<svg viewBox="0 0 24 24" xmlns="http://www.w3.org/2000/svg"><path d="M6.919 3.230 C 6.801 3.810,6.469 4.441,6.047 4.887 C 5.595 5.367,5.103 5.669,4.452 5.866 C 4.147 5.958,4.025 5.973,3.540 5.976 C 3.185 5.979,2.902 5.960,2.768 5.925 C 2.651 5.896,2.546 5.881,2.534 5.892 C 2.505 5.922,2.592 6.332,2.690 6.620 C 3.095 7.816,4.119 8.702,5.370 8.940 C 5.834 9.027,18.153 9.031,18.606 8.943 C 20.047 8.665,21.128 7.613,21.422 6.203 C 21.456 6.042,21.474 5.901,21.464 5.890 C 21.453 5.880,21.349 5.896,21.232 5.925 C 21.098 5.960,20.815 5.979,20.460 5.976 C 19.975 5.973,19.853 5.958,19.548 5.866 C 18.897 5.669,18.405 5.367,17.953 4.887 C 17.531 4.441,17.199 3.810,17.081 3.230 L 17.034 3.000 12.000 3.000 L 6.966 3.000 6.919 3.230 M15.696 5.190 C 15.947 5.681,16.506 6.341,17.025 6.759 L 17.325 7.000 12.000 7.000 L 6.675 7.000 6.975 6.759 C 7.487 6.347,8.020 5.720,8.309 5.190 L 8.413 5.000 12.006 5.000 L 15.599 5.000 15.696 5.190 M5.024 10.110 C 4.824 10.486,4.313 10.941,3.820 11.182 C 3.354 11.409,3.003 11.492,2.500 11.492 C 2.042 11.492,1.684 11.417,1.295 11.241 C 1.149 11.174,1.020 11.120,1.009 11.120 C 0.998 11.120,0.999 11.341,1.010 11.610 C 1.052 12.576,1.409 13.376,2.088 14.026 C 2.337 14.264,2.769 14.572,2.924 14.621 C 2.998 14.645,3.000 14.736,3.000 17.823 L 3.000 21.000 6.500 21.000 L 10.000 21.000 10.000 19.927 C 10.000 19.330,10.019 18.750,10.043 18.617 C 10.190 17.815,10.872 17.161,11.695 17.033 C 12.746 16.870,13.768 17.586,13.957 18.617 C 13.981 18.750,14.000 19.330,14.000 19.927 L 14.000 21.000 17.500 21.000 L 21.000 21.000 21.000 17.823 C 21.000 14.736,21.002 14.645,21.076 14.621 C 21.231 14.572,21.663 14.264,21.912 14.026 C 22.591 13.376,22.948 12.576,22.990 11.610 C 23.001 11.341,23.002 11.120,22.991 11.120 C 22.980 11.120,22.856 11.172,22.716 11.235 C 22.143 11.493,21.409 11.566,20.820 11.425 C 20.440 11.333,19.870 11.048,19.590 10.810 C 19.372 10.625,18.920 10.099,18.920 10.031 C 18.920 10.014,15.806 10.000,12.001 10.000 L 5.082 10.000 5.024 10.110 M18.168 12.221 C 18.461 12.492,18.881 12.779,19.280 12.980 L 19.580 13.131 19.290 13.263 L 19.000 13.395 19.000 16.198 L 19.000 19.000 17.506 19.000 L 16.012 19.000 15.988 18.666 C 15.871 17.008,14.607 15.516,12.978 15.114 C 12.462 14.987,11.531 14.986,11.025 15.112 C 10.327 15.287,9.709 15.643,9.178 16.176 C 8.473 16.886,8.090 17.707,8.014 18.670 L 7.988 19.000 6.494 19.000 L 5.000 19.000 5.000 16.198 L 5.000 13.395 4.710 13.263 L 4.420 13.131 4.680 13.001 C 5.080 12.800,5.556 12.478,5.821 12.229 L 6.060 12.003 11.995 12.001 L 17.929 12.000 18.168 12.221 " stroke="none" fill-rule="evenodd" fill="black"></path></svg>