<svg viewBox="0 0 24 24" xmlns="http://www.w3.org/2000/svg"><path d="M11.341 2.370 C 10.120 5.442,7.230 7.602,3.860 7.963 C 3.388 8.014,2.150 7.989,1.762 7.921 C 1.642 7.900,1.536 7.890,1.527 7.900 C 1.517 7.909,1.539 8.079,1.575 8.277 C 1.882 9.953,3.032 11.266,4.650 11.786 L 5.000 11.898 5.000 15.449 L 5.000 19.000 4.000 19.000 L 3.000 19.000 3.000 20.000 L 3.000 21.000 12.000 21.000 L 21.000 21.000 21.000 20.000 L 21.000 19.000 20.000 19.000 L 19.000 19.000 19.000 15.449 L 19.000 11.898 19.350 11.786 C 20.727 11.343,21.806 10.288,22.255 8.945 C 22.361 8.629,22.506 7.933,22.473 7.900 C 22.464 7.890,22.358 7.900,22.238 7.921 C 21.850 7.989,20.612 8.014,20.140 7.963 C 16.758 7.601,13.869 5.431,12.642 2.330 L 12.511 2.000 12.000 2.000 L 11.488 2.000 11.341 2.370 M17.000 15.500 L 17.000 19.000 12.000 19.000 L 7.000 19.000 7.000 15.500 L 7.000 12.000 12.000 12.000 L 17.000 12.000 17.000 15.500 " stroke="none" fill-rule="evenodd" fill="black"></path></svg>