<svg viewBox="0 0 24 24" xmlns="http://www.w3.org/2000/svg"><path d="M7.420 3.034 C 5.264 3.995,3.454 4.812,3.398 4.850 C 3.342 4.888,3.255 4.974,3.206 5.041 C 2.989 5.334,3.000 4.950,3.000 12.245 L 3.000 19.000 2.000 19.000 L 1.000 19.000 1.000 20.000 L 1.000 21.000 12.000 21.000 L 23.000 21.000 23.000 20.000 L 23.000 19.000 22.001 19.000 L 21.001 19.000 20.991 14.190 L 20.980 9.380 20.891 9.213 C 20.841 9.121,20.731 8.987,20.645 8.915 C 20.536 8.823,19.523 8.370,17.255 7.398 L 14.020 6.012 14.010 12.506 L 14.000 19.000 13.000 19.000 L 12.001 19.000 11.990 10.277 L 11.980 1.554 11.831 1.417 C 11.707 1.304,11.651 1.281,11.511 1.283 C 11.376 1.285,10.516 1.653,7.420 3.034 " stroke="none" fill-rule="evenodd" fill="black"></path></svg>