<svg viewBox="0 0 24 24" xmlns="http://www.w3.org/2000/svg"><path d="M11.563 1.470 C 11.429 1.542,9.558 3.216,6.190 6.280 L 1.022 10.980 2.510 10.990 L 3.999 11.001 4.009 15.650 L 4.020 20.300 4.131 20.489 C 4.192 20.592,4.301 20.723,4.374 20.778 C 4.683 21.014,4.201 21.000,11.998 21.000 C 20.023 21.000,19.377 21.025,19.701 20.701 C 20.019 20.383,20.000 20.714,20.000 15.573 L 20.000 11.001 21.489 10.990 L 22.978 10.980 17.810 6.280 C 14.442 3.216,12.571 1.542,12.437 1.470 C 12.280 1.386,12.175 1.360,12.000 1.360 C 11.825 1.360,11.720 1.386,11.563 1.470 M15.010 6.441 L 18.000 9.162 18.000 14.081 L 18.000 19.000 12.000 19.000 L 6.000 19.000 6.010 14.072 L 6.020 9.143 8.999 6.432 C 10.638 4.940,11.988 3.720,12.000 3.720 C 12.011 3.720,13.366 4.944,15.010 6.441 M11.500 10.057 C 10.709 10.239,10.094 10.720,9.765 11.411 C 9.571 11.819,9.508 12.084,9.508 12.500 C 9.508 12.918,9.571 13.181,9.770 13.600 C 9.898 13.869,9.995 14.003,10.236 14.243 C 10.774 14.778,11.256 14.980,12.000 14.980 C 12.397 14.980,12.504 14.965,12.781 14.870 C 13.421 14.650,13.953 14.182,14.235 13.589 C 14.429 13.181,14.492 12.916,14.492 12.500 C 14.492 12.084,14.429 11.819,14.235 11.411 C 13.846 10.593,13.028 10.057,12.106 10.017 C 11.879 10.007,11.649 10.022,11.500 10.057 " stroke="none" fill-rule="evenodd" fill="black"></path></svg>