<svg viewBox="0 0 24 24" xmlns="http://www.w3.org/2000/svg"><path d="M11.726 2.044 C 11.652 2.066,11.526 2.127,11.446 2.180 C 11.366 2.232,9.491 3.703,7.280 5.449 C 3.929 8.096,3.241 8.656,3.140 8.819 L 3.020 9.014 3.020 14.657 L 3.020 20.300 3.131 20.489 C 3.192 20.592,3.301 20.723,3.374 20.778 C 3.684 21.015,3.106 21.000,11.998 21.000 C 21.146 21.000,20.376 21.027,20.702 20.700 C 21.024 20.378,21.002 20.830,20.991 14.575 L 20.980 9.014 20.859 8.818 C 20.758 8.654,20.073 8.097,16.654 5.401 C 14.408 3.629,12.501 2.146,12.416 2.106 C 12.228 2.017,11.908 1.988,11.726 2.044 M9.000 12.142 C 9.000 12.366,9.113 12.855,9.234 13.151 C 9.521 13.857,10.143 14.479,10.849 14.766 C 12.610 15.483,14.554 14.445,14.938 12.581 C 14.972 12.417,15.000 12.220,15.000 12.142 L 15.000 12.000 16.000 12.000 L 17.000 12.000 17.000 12.131 C 17.000 12.203,16.981 12.415,16.958 12.601 C 16.723 14.522,15.375 16.158,13.539 16.753 C 12.973 16.936,12.676 16.980,12.000 16.980 C 11.325 16.980,11.027 16.936,10.465 16.754 C 8.624 16.158,7.277 14.524,7.042 12.601 C 7.019 12.415,7.000 12.203,7.000 12.131 L 7.000 12.000 8.000 12.000 L 9.000 12.000 9.000 12.142 " stroke="none" fill-rule="evenodd" fill="black"></path></svg>