<svg viewBox="0 0 24 24" xmlns="http://www.w3.org/2000/svg"><path d="M11.563 1.470 C 11.429 1.542,9.558 3.216,6.190 6.280 L 1.022 10.980 2.510 10.990 L 3.999 11.001 4.009 15.650 L 4.020 20.300 4.131 20.489 C 4.192 20.592,4.301 20.723,4.374 20.778 C 4.683 21.014,4.201 21.000,11.998 21.000 C 20.023 21.000,19.377 21.025,19.701 20.701 C 20.019 20.383,20.000 20.714,20.000 15.573 L 20.000 11.001 21.489 10.990 L 22.978 10.980 17.810 6.280 C 14.442 3.216,12.571 1.542,12.437 1.470 C 12.280 1.386,12.175 1.360,12.000 1.360 C 11.825 1.360,11.720 1.386,11.563 1.470 " stroke="none" fill-rule="evenodd" fill="black"></path></svg>