<svg viewBox="0 0 24 24" xmlns="http://www.w3.org/2000/svg"><path d="M11.563 1.470 C 11.429 1.542,9.558 3.216,6.190 6.280 L 1.022 10.980 2.510 10.990 L 3.999 11.001 4.009 15.650 L 4.020 20.300 4.131 20.489 C 4.192 20.592,4.301 20.723,4.374 20.778 C 4.683 21.014,4.201 21.000,11.998 21.000 C 20.023 21.000,19.377 21.025,19.701 20.701 C 20.019 20.383,20.000 20.714,20.000 15.573 L 20.000 11.001 21.489 10.990 L 22.978 10.980 17.810 6.280 C 14.442 3.216,12.571 1.542,12.437 1.470 C 12.280 1.386,12.175 1.360,12.000 1.360 C 11.825 1.360,11.720 1.386,11.563 1.470 M15.010 6.441 L 18.000 9.162 18.000 14.081 L 18.000 19.000 12.000 19.000 L 6.000 19.000 6.010 14.072 L 6.020 9.143 8.999 6.432 C 10.638 4.940,11.988 3.720,12.000 3.720 C 12.011 3.720,13.366 4.944,15.010 6.441 M10.991 9.082 L 10.980 9.643 10.660 9.772 C 10.344 9.900,9.833 10.213,9.697 10.363 C 9.659 10.405,9.611 10.440,9.591 10.440 C 9.570 10.440,9.340 10.315,9.078 10.162 L 8.601 9.884 8.445 10.152 C 7.764 11.319,7.598 11.620,7.627 11.631 C 7.758 11.682,8.579 12.197,8.573 12.225 C 8.476 12.739,8.470 13.263,8.559 13.656 C 8.597 13.824,8.650 13.777,8.011 14.147 L 7.601 14.384 7.945 14.982 C 8.135 15.311,8.360 15.701,8.445 15.848 L 8.601 16.116 9.078 15.838 C 9.340 15.685,9.566 15.560,9.580 15.560 C 9.595 15.560,9.682 15.621,9.773 15.695 C 10.045 15.915,10.379 16.114,10.689 16.238 L 10.980 16.355 10.991 16.938 L 11.002 17.520 12.001 17.520 L 13.000 17.520 13.000 16.938 L 13.000 16.356 13.121 16.314 C 13.407 16.214,13.880 15.957,14.129 15.766 C 14.276 15.653,14.406 15.560,14.416 15.560 C 14.427 15.560,14.637 15.678,14.883 15.822 C 15.129 15.966,15.345 16.087,15.363 16.092 C 15.397 16.100,16.360 14.468,16.360 14.403 C 16.360 14.383,16.145 14.244,15.882 14.093 L 15.404 13.820 15.432 13.660 C 15.447 13.572,15.460 13.275,15.460 13.000 C 15.460 12.725,15.447 12.428,15.432 12.340 L 15.404 12.180 15.882 11.907 C 16.145 11.756,16.360 11.617,16.360 11.596 C 16.360 11.576,16.142 11.181,15.876 10.719 L 15.391 9.879 15.266 9.954 C 14.893 10.178,14.435 10.440,14.417 10.440 C 14.406 10.440,14.276 10.347,14.129 10.234 C 13.881 10.044,13.286 9.722,13.085 9.670 C 13.003 9.648,13.000 9.626,13.000 9.084 L 13.000 8.520 12.001 8.520 L 11.002 8.520 10.991 9.082 M12.698 11.657 C 13.620 12.110,13.823 13.331,13.097 14.057 C 12.364 14.790,11.133 14.561,10.687 13.609 C 10.595 13.411,10.580 13.329,10.580 13.000 C 10.580 12.673,10.595 12.589,10.685 12.395 C 10.964 11.802,11.438 11.512,12.100 11.530 C 12.405 11.538,12.497 11.558,12.698 11.657 " stroke="none" fill-rule="evenodd" fill="black"></path></svg>