<svg viewBox="0 0 24 24" xmlns="http://www.w3.org/2000/svg"><path d="M11.563 1.470 C 11.429 1.542,9.558 3.216,6.190 6.280 L 1.022 10.980 2.510 10.990 L 3.999 11.001 4.009 15.650 L 4.020 20.300 4.131 20.489 C 4.192 20.592,4.301 20.723,4.374 20.778 C 4.683 21.014,4.201 21.000,11.998 21.000 C 20.023 21.000,19.377 21.025,19.701 20.701 C 20.019 20.383,20.000 20.714,20.000 15.573 L 20.000 11.001 21.489 10.990 L 22.978 10.980 17.810 6.280 C 14.442 3.216,12.571 1.542,12.437 1.470 C 12.280 1.386,12.175 1.360,12.000 1.360 C 11.825 1.360,11.720 1.386,11.563 1.470 M10.700 9.860 C 11.068 9.938,11.398 10.105,11.730 10.381 L 12.000 10.606 12.270 10.381 C 13.034 9.745,13.967 9.629,14.810 10.066 C 15.367 10.355,15.835 10.961,15.956 11.552 C 16.018 11.851,16.011 12.343,15.940 12.612 C 15.799 13.155,15.739 13.229,14.088 14.900 C 13.240 15.758,12.424 16.586,12.273 16.740 L 12.000 17.019 10.378 15.400 C 9.486 14.509,8.660 13.663,8.543 13.520 C 8.155 13.047,8.000 12.623,8.000 12.042 C 8.001 11.420,8.209 10.913,8.640 10.478 C 9.194 9.920,9.932 9.698,10.700 9.860 " stroke="none" fill-rule="evenodd" fill="black"></path></svg>