<svg viewBox="0 0 24 24" xmlns="http://www.w3.org/2000/svg"><path d="M11.563 1.470 C 11.429 1.542,9.558 3.216,6.190 6.280 L 1.022 10.980 2.511 10.990 L 4.000 11.001 4.000 15.570 C 4.000 18.595,4.014 20.190,4.042 20.289 C 4.104 20.512,4.316 20.763,4.539 20.878 L 4.738 20.980 7.869 20.991 L 11.000 21.001 11.000 19.001 L 11.000 17.000 11.500 17.000 L 12.000 17.000 12.000 13.000 L 12.000 9.000 16.389 8.990 L 20.778 8.980 16.710 5.280 C 14.082 2.889,12.569 1.541,12.437 1.470 C 12.280 1.386,12.175 1.360,12.000 1.360 C 11.825 1.360,11.720 1.386,11.563 1.470 M14.000 14.500 L 14.000 18.000 18.500 18.000 L 23.000 18.000 23.000 14.500 L 23.000 11.000 18.500 11.000 L 14.000 11.000 14.000 14.500 M13.000 20.000 L 13.000 21.000 18.500 21.000 L 24.000 21.000 24.000 20.000 L 24.000 19.000 18.500 19.000 L 13.000 19.000 13.000 20.000 " stroke="none" fill-rule="evenodd" fill="black"></path></svg>