<svg viewBox="0 0 24 24" xmlns="http://www.w3.org/2000/svg"><path d="M3.664 2.063 C 3.436 2.146,3.257 2.297,3.131 2.511 L 3.020 2.700 3.010 11.350 L 2.999 20.000 2.000 20.000 L 1.000 20.000 1.000 21.000 L 1.000 22.000 12.000 22.000 L 23.000 22.000 23.000 21.000 L 23.000 20.000 22.000 20.000 L 21.000 20.000 21.000 11.427 C 21.000 1.805,21.027 2.625,20.701 2.299 C 20.376 1.973,21.147 2.000,11.983 2.003 C 5.003 2.005,3.797 2.014,3.664 2.063 M13.000 7.000 L 13.000 8.000 14.000 8.000 L 15.000 8.000 15.000 9.000 L 15.000 10.000 14.000 10.000 L 13.000 10.000 13.000 11.000 L 13.000 12.000 12.000 12.000 L 11.000 12.000 11.000 11.000 L 11.000 10.000 10.000 10.000 L 9.000 10.000 9.000 9.000 L 9.000 8.000 10.000 8.000 L 11.000 8.000 11.000 7.000 L 11.000 6.000 12.000 6.000 L 13.000 6.000 13.000 7.000 M16.000 17.000 L 16.000 20.000 15.000 20.000 L 14.000 20.000 14.000 18.000 L 14.000 16.000 12.000 16.000 L 10.000 16.000 10.000 18.000 L 10.000 20.000 9.000 20.000 L 8.000 20.000 8.000 17.000 L 8.000 14.000 12.000 14.000 L 16.000 14.000 16.000 17.000 " stroke="none" fill-rule="evenodd" fill="black"></path></svg>