<svg viewBox="0 0 24 24" xmlns="http://www.w3.org/2000/svg"><path d="M3.000 4.000 L 3.000 5.000 12.000 5.000 L 21.000 5.000 21.000 4.000 L 21.000 3.000 12.000 3.000 L 3.000 3.000 3.000 4.000 M2.980 6.090 C 2.968 6.140,2.743 7.260,2.479 8.579 L 2.000 10.978 2.000 11.989 L 2.000 13.000 2.499 13.000 L 2.998 13.000 3.009 16.650 L 3.020 20.300 3.131 20.489 C 3.192 20.592,3.301 20.723,3.374 20.778 C 3.684 21.015,3.106 21.000,11.998 21.000 C 21.144 21.000,20.376 21.026,20.701 20.701 C 21.015 20.387,21.000 20.595,21.000 16.573 L 21.000 13.000 21.500 13.000 L 22.000 13.000 22.000 11.989 L 22.000 10.978 21.521 8.579 C 21.257 7.260,21.032 6.140,21.020 6.090 L 20.998 6.000 12.000 6.000 L 3.002 6.000 2.980 6.090 M19.000 16.000 L 19.000 19.000 12.000 19.000 L 5.000 19.000 5.000 16.000 L 5.000 13.000 12.000 13.000 L 19.000 13.000 19.000 16.000 M6.000 15.500 L 6.000 17.000 10.000 17.000 L 14.000 17.000 14.000 15.500 L 14.000 14.000 10.000 14.000 L 6.000 14.000 6.000 15.500 " stroke="none" fill-rule="evenodd" fill="black"></path></svg>