<svg fill="currentColor" viewBox="0 0 256 256" xmlns="http://www.w3.org/2000/svg"><path d="M58.993 20.711 C 53.731 22.128,48.615 26.138,46.340 30.628 C 44.286 34.681,43.960 37.217,43.953 49.173 L 43.947 60.160 36.587 60.169 C 30.114 60.178,28.995 60.283,27.307 61.046 C 23.200 62.901,20.510 66.675,20.156 71.076 C 19.761 76.000,22.180 80.351,26.608 82.681 C 28.711 83.788,29.106 83.840,36.373 83.978 L 43.947 84.122 43.947 100.088 L 43.947 116.053 36.983 116.053 C 28.772 116.053,27.071 116.478,23.920 119.311 C 18.951 123.778,18.782 131.547,23.549 136.404 C 26.480 139.390,28.580 139.947,36.923 139.947 L 43.947 139.947 43.947 155.905 L 43.947 171.864 36.373 172.014 C 28.906 172.162,28.768 172.181,26.514 173.428 C 22.014 175.917,19.760 179.992,20.156 184.924 C 20.520 189.454,23.017 192.945,27.307 194.921 C 29.450 195.909,30.273 196.018,36.800 196.189 L 43.947 196.376 43.953 207.095 C 43.960 218.763,44.296 221.339,46.340 225.372 C 47.756 228.167,51.680 232.114,54.423 233.503 C 59.577 236.113,54.042 235.947,135.881 235.947 C 217.491 235.947,212.967 236.080,217.657 233.528 C 220.002 232.252,223.675 228.693,225.132 226.287 C 225.681 225.381,226.562 223.392,227.091 221.867 L 228.053 219.093 228.053 128.000 L 228.053 36.907 227.079 34.087 C 225.376 29.161,222.814 25.916,218.326 23.000 C 213.509 19.870,218.626 20.050,135.596 20.081 C 73.006 20.105,60.873 20.205,58.993 20.711 M203.947 128.000 L 203.947 212.053 136.107 212.053 L 68.267 212.053 68.267 128.000 L 68.267 43.947 136.107 43.947 L 203.947 43.947 203.947 128.000 M131.181 68.273 C 121.023 69.346,112.045 73.788,104.533 81.456 C 96.188 89.976,92.099 100.042,92.141 111.965 C 92.176 122.040,95.308 131.450,100.984 138.536 L 102.418 140.325 99.477 142.043 C 91.744 146.559,82.708 154.594,81.030 158.445 C 77.576 166.373,83.482 175.203,92.160 175.083 C 95.885 175.032,97.498 174.235,101.659 170.390 C 111.630 161.178,121.623 156.791,133.805 156.279 C 147.764 155.692,159.178 160.020,169.629 169.865 C 174.002 173.984,176.209 175.090,180.053 175.090 C 184.691 175.090,188.544 172.701,190.816 168.415 C 192.210 165.788,192.180 160.558,190.756 157.867 C 189.603 155.686,185.523 151.493,181.120 147.963 C 178.384 145.771,171.305 141.084,170.143 140.697 C 169.860 140.602,170.479 139.380,171.622 137.779 C 183.480 121.161,182.655 99.584,169.551 83.567 C 162.842 75.367,151.819 69.541,140.657 68.296 C 136.216 67.801,135.667 67.800,131.181 68.273 M144.012 93.810 C 149.318 96.293,152.859 100.066,154.736 105.238 C 156.085 108.953,156.128 114.718,154.837 118.542 C 153.697 121.917,150.897 125.730,147.890 128.000 C 140.299 133.731,129.046 133.041,122.276 126.431 C 117.029 121.308,115.016 114.321,116.713 107.122 C 118.259 100.563,123.326 95.180,130.047 92.957 C 131.948 92.328,133.420 92.184,136.783 92.296 C 140.564 92.423,141.441 92.606,144.012 93.810 " stroke="none" fill-rule="evenodd"></path></svg>