<svg fill="currentColor" viewBox="0 0 256 256" xmlns="http://www.w3.org/2000/svg"><path d="M191.147 40.363 C 186.370 41.241,183.168 42.112,180.143 43.356 C 178.197 44.156,167.061 50.508,155.396 57.472 C 143.731 64.436,131.949 71.450,129.215 73.059 L 124.242 75.985 97.489 66.152 C 66.630 54.811,68.380 55.213,61.209 57.809 C 52.899 60.817,48.574 64.108,46.089 69.315 C 43.367 75.017,43.388 81.157,46.150 87.000 C 47.326 89.490,48.675 90.986,57.886 100.019 C 64.193 106.204,68.139 110.378,67.902 110.615 C 67.687 110.830,64.561 112.780,60.955 114.948 L 54.400 118.889 40.533 114.237 C 23.654 108.574,23.083 108.503,17.206 111.322 C 9.379 115.078,5.461 120.035,4.205 127.769 C 3.639 131.261,4.393 135.392,6.292 139.188 C 7.653 141.908,9.085 143.469,20.648 154.843 C 51.436 185.126,50.649 184.431,58.188 187.948 C 64.959 191.108,68.189 191.775,76.587 191.753 C 84.652 191.731,87.597 191.169,93.828 188.458 C 98.253 186.533,246.431 98.008,248.400 96.113 C 251.746 92.892,252.873 87.234,250.993 83.090 C 249.745 80.341,229.883 54.985,226.584 51.931 C 221.305 47.043,213.975 43.021,207.341 41.372 C 203.842 40.503,193.793 39.876,191.147 40.363 M202.873 65.078 C 205.471 65.970,208.793 68.063,210.707 70.013 C 211.492 70.813,214.350 74.314,217.057 77.795 C 221.192 83.109,221.886 84.212,221.390 84.677 C 220.116 85.875,85.821 165.783,83.495 166.728 C 78.467 168.769,72.850 168.422,67.483 165.737 C 64.974 164.482,62.833 162.565,51.809 151.708 L 39.040 139.133 46.080 141.491 C 54.277 144.236,56.929 144.517,60.335 143.000 C 64.138 141.307,94.470 122.788,96.295 121.045 C 99.649 117.843,100.750 113.039,99.199 108.371 C 98.385 105.920,98.002 105.503,84.379 92.247 C 79.747 87.741,76.130 84.053,76.339 84.053 C 76.549 84.053,86.866 87.812,99.267 92.406 C 124.353 101.701,125.877 102.099,129.771 100.377 C 130.823 99.911,144.095 92.121,159.263 83.066 C 174.431 74.011,187.425 66.300,188.137 65.932 C 191.912 63.980,198.557 63.595,202.873 65.078 M20.141 204.755 C 17.057 205.820,14.953 207.630,13.485 210.483 C 11.938 213.490,11.637 216.317,12.536 219.409 C 13.429 222.482,16.242 225.656,19.294 227.035 L 21.547 228.053 96.000 228.053 L 170.453 228.053 172.706 227.035 C 177.327 224.947,180.415 219.803,179.950 214.966 C 179.669 212.046,177.659 208.332,175.443 206.643 C 171.677 203.770,176.888 203.945,95.816 203.961 C 25.817 203.974,22.295 204.011,20.141 204.755 " stroke="none" fill-rule="evenodd"></path></svg>