<svg fill="currentColor" viewBox="0 0 256 256" xmlns="http://www.w3.org/2000/svg"><path d="M221.155 44.331 C 219.048 44.872,216.084 46.777,214.657 48.509 C 211.876 51.883,212.053 46.456,212.053 128.000 C 212.053 210.222,211.838 204.179,214.898 207.754 C 217.286 210.544,220.140 211.819,224.000 211.819 C 227.860 211.819,230.714 210.544,233.102 207.754 C 236.162 204.179,235.947 210.222,235.947 128.000 C 235.947 46.012,236.147 51.803,233.197 48.356 C 230.401 45.091,225.100 43.319,221.155 44.331 M27.713 76.528 C 20.196 78.147,14.012 84.433,12.418 92.074 C 11.761 95.225,11.761 160.775,12.418 163.926 C 14.040 171.702,20.298 177.960,28.074 179.582 C 29.675 179.916,51.937 180.053,104.251 180.053 C 184.746 180.053,180.285 180.184,185.219 177.684 C 189.838 175.343,193.838 170.384,195.256 165.239 C 196.004 162.525,196.053 160.227,196.053 128.000 C 196.053 95.773,196.004 93.475,195.256 90.761 C 193.835 85.607,189.799 80.645,185.075 78.246 C 180.372 75.857,183.956 75.957,103.893 75.989 C 48.352 76.011,29.494 76.144,27.713 76.528 M171.947 128.213 L 171.947 156.160 104.107 156.160 L 36.267 156.160 36.267 128.213 L 36.267 100.267 104.107 100.267 L 171.947 100.267 171.947 128.213 " stroke="none" fill-rule="evenodd"></path></svg>