<svg fill="currentColor" viewBox="0 0 256 256" xmlns="http://www.w3.org/2000/svg"><path d="M29.155 44.331 C 27.048 44.872,24.084 46.777,22.657 48.509 C 19.876 51.883,20.053 46.456,20.053 128.000 C 20.053 210.222,19.838 204.179,22.898 207.754 C 25.286 210.544,28.140 211.819,32.000 211.819 C 35.860 211.819,38.714 210.544,41.102 207.754 C 44.162 204.179,43.947 210.222,43.947 128.000 C 43.947 46.012,44.147 51.803,41.197 48.356 C 38.401 45.091,33.100 43.319,29.155 44.331 M75.423 76.610 C 68.568 78.272,63.036 83.421,60.968 90.065 C 60.202 92.526,60.160 94.517,60.160 128.000 C 60.160 161.483,60.202 163.474,60.968 165.935 C 63.028 172.552,68.433 177.605,75.389 179.417 C 77.510 179.969,87.606 180.053,151.749 180.053 C 204.063 180.053,226.325 179.916,227.926 179.582 C 235.702 177.960,241.960 171.702,243.582 163.926 C 244.239 160.775,244.239 95.225,243.582 92.074 C 241.942 84.211,235.452 77.827,227.655 76.408 C 225.900 76.088,202.530 75.958,151.495 75.982 C 90.227 76.012,77.456 76.117,75.423 76.610 M220.160 128.213 L 220.160 156.160 152.107 156.160 L 84.053 156.160 84.053 128.213 L 84.053 100.267 152.107 100.267 L 220.160 100.267 220.160 128.213 " stroke="none" fill-rule="evenodd"></path></svg>