<svg fill="currentColor" viewBox="0 0 256 256" xmlns="http://www.w3.org/2000/svg"><path d="M29.227 44.322 C 25.257 45.370,21.889 48.455,20.654 52.172 C 19.737 54.933,20.025 58.871,21.333 61.453 C 21.957 62.685,26.420 67.514,33.937 75.093 L 45.576 86.827 43.004 89.600 C 27.253 106.589,16.937 128.297,13.157 152.410 C 12.399 157.245,12.237 160.647,12.061 175.512 C 11.912 188.047,11.997 193.680,12.363 195.565 C 13.923 203.590,20.139 209.927,28.074 211.582 C 31.279 212.250,224.721 212.250,227.926 211.582 C 235.858 209.928,242.077 203.590,243.636 195.571 C 244.434 191.467,243.956 158.195,243.015 152.320 C 239.029 127.436,229.690 107.558,213.682 89.888 L 210.658 86.550 222.208 74.950 C 231.545 65.573,233.967 62.902,234.848 61.008 C 237.551 55.202,235.154 48.317,229.392 45.340 C 227.600 44.414,226.615 44.205,224.000 44.196 C 219.052 44.180,218.291 44.743,204.179 58.861 L 191.880 71.166 189.700 69.772 C 164.675 53.767,132.485 48.232,102.954 54.855 C 90.595 57.627,78.279 62.619,67.870 69.076 L 64.272 71.307 51.656 58.733 C 43.622 50.726,38.383 45.833,37.232 45.260 C 35.237 44.268,31.216 43.797,29.227 44.322 M141.034 77.012 C 160.758 79.883,179.016 89.026,193.048 103.058 C 207.418 117.428,216.660 136.420,219.305 157.013 C 219.562 159.008,219.888 166.832,220.032 174.400 L 220.292 188.160 128.280 188.160 L 36.267 188.160 36.269 174.613 C 36.270 163.381,36.414 160.095,37.107 155.379 C 42.548 118.396,69.462 88.276,105.387 78.964 C 109.991 77.771,116.953 76.604,121.813 76.211 C 125.792 75.889,136.340 76.329,141.034 77.012 M87.904 140.631 C 84.707 141.490,82.377 142.939,80.072 145.503 C 77.314 148.571,76.198 151.632,76.185 156.160 C 76.177 159.349,76.335 160.121,77.501 162.560 C 79.190 166.093,81.818 168.726,85.333 170.407 C 87.836 171.604,88.502 171.733,92.160 171.732 C 95.773 171.730,96.490 171.594,98.764 170.481 C 102.013 168.891,104.891 166.013,106.481 162.764 C 107.594 160.490,107.730 159.773,107.732 156.160 C 107.733 152.500,107.604 151.838,106.405 149.333 C 104.223 144.778,100.395 141.647,95.636 140.527 C 92.607 139.814,90.855 139.838,87.904 140.631 M160.164 140.523 C 154.666 141.923,150.131 146.310,148.694 151.617 C 146.619 159.283,150.110 166.993,157.236 170.481 C 159.510 171.594,160.227 171.730,163.840 171.732 C 167.387 171.733,168.213 171.584,170.453 170.539 C 173.831 168.964,177.119 165.684,178.620 162.391 C 180.233 158.855,180.303 153.794,178.793 149.973 C 177.388 146.419,173.521 142.568,170.055 141.273 C 166.895 140.092,163.011 139.797,160.164 140.523 " stroke="none" fill-rule="evenodd"></path></svg>