<svg fill="currentColor" viewBox="0 0 256 256" xmlns="http://www.w3.org/2000/svg"><path d="M123.307 29.046 C 120.970 30.101,118.434 32.477,117.191 34.773 L 116.267 36.480 116.155 111.777 L 116.044 187.075 89.489 160.542 C 60.137 131.214,61.235 132.141,55.848 132.141 C 50.856 132.141,46.565 135.113,44.819 139.782 C 43.705 142.757,43.715 145.254,44.851 148.357 C 45.711 150.709,47.497 152.573,82.291 187.441 C 102.385 207.578,119.691 224.688,120.747 225.463 C 124.506 228.221,128.840 228.683,133.047 226.773 C 135.184 225.803,139.842 221.295,172.856 188.251 C 208.499 152.576,210.288 150.711,211.150 148.357 C 212.285 145.254,212.295 142.757,211.181 139.782 C 209.441 135.130,205.160 132.155,200.164 132.126 C 194.817 132.095,195.880 131.197,166.511 160.542 L 139.956 187.075 139.845 111.777 L 139.733 36.480 138.809 34.773 C 136.571 30.638,132.539 28.179,128.000 28.179 C 126.126 28.179,124.604 28.460,123.307 29.046 " stroke="none" fill-rule="evenodd"></path></svg>