<svg fill="currentColor" viewBox="0 0 256 256" xmlns="http://www.w3.org/2000/svg"><path d="M174.046 36.312 C 172.971 36.471,171.339 36.994,170.419 37.472 C 168.340 38.555,118.163 88.775,117.058 90.880 C 115.952 92.987,115.956 99.025,117.064 101.120 C 118.165 103.201,120.643 105.715,122.667 106.804 C 124.967 108.043,130.876 108.120,133.120 106.942 C 133.941 106.510,141.189 99.601,149.227 91.588 L 163.840 77.018 163.840 128.536 L 163.840 180.053 96.929 180.053 C 21.804 180.053,27.842 179.784,23.920 183.311 C 18.822 187.894,18.776 195.919,23.822 200.638 C 27.681 204.248,20.659 203.970,104.764 203.845 L 179.413 203.733 181.170 202.794 C 184.000 201.279,185.478 199.801,186.752 197.207 L 187.947 194.773 188.160 135.998 L 188.373 77.222 202.880 91.738 C 215.745 104.611,217.642 106.349,219.643 107.100 C 229.419 110.769,238.770 101.418,235.100 91.643 C 234.332 89.599,231.838 86.976,208.540 63.721 C 194.398 49.605,182.184 37.734,181.399 37.342 C 179.485 36.386,176.431 35.958,174.046 36.312 " stroke="none" fill-rule="evenodd"></path></svg>