<svg fill="currentColor" viewBox="0 0 256 256" xmlns="http://www.w3.org/2000/svg"><path d="M125.825 4.300 C 124.746 4.467,123.210 4.934,122.412 5.338 C 121.613 5.741,113.224 13.777,103.770 23.196 C 89.428 37.483,86.370 40.738,85.316 42.841 C 82.364 48.736,84.680 55.606,90.649 58.659 C 92.711 59.714,93.674 59.944,95.970 59.932 C 100.494 59.909,102.059 58.939,109.519 51.535 L 116.025 45.077 116.146 68.299 C 116.265 91.173,116.280 91.545,117.189 93.227 C 121.130 100.519,130.427 102.120,136.249 96.510 C 137.149 95.643,138.301 94.165,138.809 93.227 C 139.720 91.545,139.735 91.186,139.854 68.299 L 139.975 45.077 146.481 51.535 C 153.928 58.926,155.510 59.908,160.000 59.932 C 165.218 59.960,170.141 56.340,171.503 51.474 C 172.194 49.005,171.916 45.097,170.890 42.880 C 170.366 41.747,164.279 35.323,152.783 23.769 C 134.596 5.491,133.519 4.584,129.493 4.171 C 128.555 4.075,126.904 4.133,125.825 4.300 M36.691 116.450 C 31.588 118.012,28.168 122.646,28.168 128.000 C 28.168 132.598,30.579 136.544,34.773 138.811 L 36.480 139.733 128.000 139.733 L 219.520 139.733 221.227 138.809 C 230.049 134.034,230.049 121.957,221.227 117.189 L 219.520 116.267 128.640 116.195 C 78.656 116.155,37.279 116.270,36.691 116.450 M123.307 157.046 C 120.970 158.101,118.434 160.477,117.191 162.773 C 116.280 164.455,116.265 164.814,116.146 187.701 L 116.025 210.923 109.519 204.465 C 102.046 197.048,100.565 196.141,95.929 196.141 C 90.754 196.141,86.232 199.313,84.660 204.046 C 83.793 206.658,83.993 210.722,85.107 213.120 C 85.631 214.249,91.765 220.722,103.217 232.231 C 122.587 251.699,122.861 251.917,127.971 251.900 C 133.138 251.882,133.160 251.865,152.228 232.834 C 171.227 213.873,171.947 212.978,171.947 208.301 C 171.947 205.151,171.282 203.145,169.426 200.688 C 167.190 197.730,163.933 196.141,160.106 196.141 C 155.430 196.141,153.968 197.035,146.481 204.465 L 139.975 210.923 139.854 187.701 C 139.735 164.814,139.720 164.455,138.809 162.773 C 136.571 158.638,132.539 156.179,128.000 156.179 C 126.126 156.179,124.604 156.460,123.307 157.046 " stroke="none" fill-rule="evenodd"></path></svg>