<svg fill="currentColor" viewBox="0 0 256 256" xmlns="http://www.w3.org/2000/svg"><path d="M119.680 20.310 C 97.411 22.610,80.001 29.205,63.147 41.728 C 57.186 46.157,46.223 57.026,41.973 62.720 C 16.611 96.701,12.928 141.035,32.385 178.133 C 37.761 188.385,42.832 195.175,51.828 204.172 C 60.825 213.168,67.615 218.239,77.867 223.615 C 114.965 243.072,159.250 239.395,193.280 214.031 C 198.497 210.143,210.143 198.497,214.031 193.280 C 228.489 173.882,235.947 151.668,235.947 128.000 C 235.947 92.235,218.399 59.167,188.587 38.752 C 175.422 29.738,160.539 23.864,144.427 21.325 C 139.077 20.483,124.002 19.864,119.680 20.310 M135.040 44.374 C 172.305 47.758,202.630 74.580,210.140 110.797 C 215.959 138.858,207.285 167.541,186.865 187.761 C 173.241 201.252,155.612 209.521,136.017 211.611 C 111.761 214.199,86.191 204.984,68.686 187.348 C 48.533 167.041,40.077 138.684,45.860 110.797 C 54.430 69.467,93.221 40.575,135.040 44.374 M125.227 76.322 C 122.071 77.155,119.850 79.128,102.990 96.074 C 83.669 115.493,84.053 115.001,84.053 120.359 C 84.053 122.286,84.348 123.374,85.440 125.481 C 87.131 128.744,89.628 130.684,93.373 131.643 C 95.759 132.254,96.239 132.255,98.604 131.649 C 102.042 130.768,102.833 130.176,109.973 123.145 L 116.053 117.158 116.053 143.623 C 116.053 173.031,115.994 172.362,118.898 175.754 C 121.286 178.544,124.140 179.819,128.000 179.819 C 131.860 179.819,134.714 178.544,137.102 175.754 C 140.006 172.362,139.947 173.030,139.947 143.633 L 139.947 117.178 146.453 123.574 C 150.032 127.091,153.669 130.297,154.535 130.699 C 162.470 134.379,171.158 129.473,171.844 120.924 C 171.990 119.097,171.828 117.608,171.308 116.005 C 170.611 113.859,169.399 112.540,153.061 96.142 C 141.389 84.427,134.885 78.210,133.533 77.474 C 131.339 76.280,127.436 75.739,125.227 76.322 " stroke="none" fill-rule="evenodd"></path></svg>