<svg fill="currentColor" viewBox="0 0 256 256" xmlns="http://www.w3.org/2000/svg"><path d="M140.447 44.554 C 134.956 46.344,131.088 52.322,132.048 57.537 C 132.816 61.713,133.039 61.963,160.542 89.489 L 187.075 116.044 111.777 116.155 L 36.480 116.267 34.773 117.189 C 30.579 119.456,28.168 123.402,28.168 128.000 C 28.168 132.598,30.579 136.544,34.773 138.811 L 36.480 139.733 111.681 139.947 L 186.883 140.160 160.441 166.599 C 131.225 195.812,132.075 194.807,132.101 200.107 C 132.125 205.110,135.127 209.440,139.781 211.181 C 142.756 212.294,145.253 212.286,148.357 211.151 C 150.713 210.289,152.553 208.521,188.416 172.644 C 213.003 148.048,226.252 134.495,226.718 133.465 C 228.327 129.905,228.327 126.095,226.718 122.535 C 226.253 121.506,213.045 107.982,188.630 83.536 C 157.676 52.543,150.895 45.956,149.168 45.197 C 146.534 44.041,142.855 43.769,140.447 44.554 " stroke="none" fill-rule="evenodd"></path></svg>