<svg fill="currentColor" viewBox="0 0 256 256" xmlns="http://www.w3.org/2000/svg"><path d="M155.372 36.920 C 149.400 39.514,146.395 46.875,148.998 52.537 C 150.478 55.758,151.983 57.372,154.793 58.752 L 157.227 59.947 168.068 60.086 L 178.909 60.226 158.200 80.993 C 135.090 104.167,135.852 103.209,136.184 108.671 C 136.390 112.043,137.364 114.324,139.520 116.480 C 141.676 118.636,143.957 119.610,147.329 119.816 C 152.791 120.148,151.833 120.910,175.007 97.800 L 195.774 77.091 195.914 87.932 L 196.053 98.773 197.248 101.207 C 198.524 103.805,200.009 105.289,202.830 106.786 C 205.330 108.113,210.670 108.113,213.170 106.786 C 215.991 105.289,217.476 103.805,218.752 101.207 L 219.947 98.773 219.947 72.320 C 219.947 47.395,219.900 45.746,219.140 43.774 C 218.073 41.009,215.748 38.497,213.120 37.271 L 210.987 36.275 183.893 36.288 C 161.159 36.298,156.570 36.400,155.372 36.920 M103.893 136.759 C 102.955 137.097,102.095 137.377,101.983 137.380 C 101.872 137.384,92.431 146.729,81.003 158.148 L 60.226 178.909 60.086 168.068 L 59.947 157.227 58.752 154.793 C 57.476 152.195,55.991 150.711,53.170 149.214 C 50.670 147.887,45.330 147.887,42.830 149.214 C 40.009 150.711,38.524 152.195,37.248 154.793 L 36.053 157.227 36.053 183.680 C 36.053 208.675,36.098 210.250,36.866 212.242 C 37.944 215.036,40.465 217.697,43.210 218.938 L 45.440 219.947 72.107 219.947 L 98.773 219.947 101.207 218.752 C 103.805 217.476,105.289 215.991,106.786 213.170 C 107.518 211.791,107.720 210.679,107.726 208.000 C 107.732 205.011,107.577 204.304,106.475 202.315 C 105.783 201.066,104.504 199.479,103.633 198.789 C 100.568 196.362,99.983 196.267,88.120 196.267 C 82.129 196.267,77.227 196.122,77.227 195.945 C 77.227 195.768,86.437 186.415,97.694 175.160 C 120.669 152.188,120.113 152.884,119.812 147.448 C 119.539 142.528,117.293 139.175,112.897 137.129 C 110.354 135.944,106.584 135.790,103.893 136.759 " stroke="none" fill-rule="evenodd"></path></svg>