<svg fill="currentColor" viewBox="0 0 256 256" xmlns="http://www.w3.org/2000/svg"><path d="M34.644 29.465 C 30.310 31.631,28.156 35.222,28.164 40.267 C 28.170 43.700,29.522 46.608,32.214 48.978 C 35.995 52.306,28.111 52.053,128.000 52.053 C 227.889 52.053,220.005 52.306,223.786 48.978 C 226.478 46.608,227.830 43.700,227.836 40.267 C 227.844 35.222,225.690 31.631,221.356 29.465 L 218.744 28.160 128.000 28.160 L 37.256 28.160 34.644 29.465 M125.503 68.294 C 124.481 68.497,122.849 69.138,121.876 69.717 C 119.114 71.361,46.359 144.458,45.231 146.721 C 41.390 154.430,47.140 163.822,55.711 163.836 C 61.380 163.845,59.669 165.277,89.280 135.741 L 116.053 109.035 116.053 167.568 C 116.053 224.963,116.070 226.145,116.903 228.371 C 118.535 232.735,123.241 235.947,128.000 235.947 C 132.759 235.947,137.465 232.735,139.097 228.371 C 139.930 226.145,139.947 224.963,139.947 167.562 L 139.947 109.023 166.507 135.560 C 195.628 164.658,194.726 163.890,199.838 163.920 C 203.471 163.940,206.404 162.634,208.862 159.901 C 212.016 156.392,212.796 152.252,211.151 147.749 C 210.291 145.395,208.503 143.531,172.858 107.825 C 133.155 68.054,133.773 68.617,129.280 68.132 C 128.224 68.018,126.524 68.091,125.503 68.294 " stroke="none" fill-rule="evenodd"></path></svg>