<svg fill="currentColor" viewBox="0 0 256 256" xmlns="http://www.w3.org/2000/svg"><path d="M118.827 28.432 C 96.111 30.845,74.627 41.034,55.813 58.316 L 52.267 61.573 52.051 53.293 C 51.862 46.023,51.725 44.779,50.931 43.093 C 49.719 40.518,47.624 38.486,44.879 37.223 C 42.955 36.337,42.110 36.202,39.299 36.329 C 36.511 36.456,35.656 36.684,33.901 37.769 C 31.469 39.273,29.233 42.021,28.606 44.277 C 28.324 45.294,28.165 55.400,28.167 72.320 L 28.168 98.773 29.166 100.907 C 30.318 103.369,32.335 105.493,34.773 106.811 C 36.472 107.729,36.604 107.733,64.000 107.733 C 91.410 107.733,91.527 107.730,93.227 106.809 C 102.049 102.034,102.049 89.957,93.227 85.189 C 91.604 84.312,90.837 84.256,77.694 84.053 L 63.868 83.840 69.340 78.583 C 92.556 56.279,117.387 48.170,145.229 53.800 C 158.526 56.488,172.446 63.163,182.794 71.811 C 187.714 75.923,191.008 76.778,195.898 75.215 C 199.094 74.193,202.349 70.930,203.271 67.826 C 205.249 61.168,203.033 56.879,194.167 50.200 C 179.850 39.416,162.273 32.029,144.213 29.209 C 139.889 28.533,122.797 28.011,118.827 28.432 M164.691 148.446 C 159.572 150.033,156.168 154.647,156.168 160.000 C 156.168 164.598,158.579 168.544,162.773 170.811 C 164.404 171.692,165.083 171.739,178.027 171.862 C 185.477 171.933,191.573 172.147,191.573 172.338 C 191.573 172.890,182.303 181.701,178.556 184.712 C 168.637 192.680,157.287 198.610,146.347 201.542 C 122.282 207.990,93.436 201.138,73.173 184.161 C 70.707 182.094,69.118 181.113,67.445 180.625 C 59.761 178.382,52.053 184.186,52.053 192.215 C 52.053 196.555,54.472 200.100,60.756 204.972 C 75.243 216.203,91.354 223.226,110.398 226.612 C 116.771 227.746,131.703 228.189,138.269 227.440 C 160.370 224.919,181.610 214.760,199.893 197.966 L 203.733 194.438 203.949 202.713 C 204.138 209.960,204.276 211.225,205.064 212.907 C 209.173 221.672,221.476 222.322,226.335 214.031 C 228.149 210.937,228.322 207.934,228.183 181.931 L 228.053 157.653 226.947 155.307 C 225.691 152.644,223.721 150.537,221.227 149.189 C 219.533 148.274,219.308 148.266,192.640 148.190 C 177.856 148.149,165.279 148.263,164.691 148.446 " stroke="none" fill-rule="evenodd"></path></svg>