<svg fill="currentColor" viewBox="0 0 256 256" xmlns="http://www.w3.org/2000/svg"><path d="M125.013 12.320 C 121.874 13.354,119.474 15.506,102.986 32.074 C 86.611 48.529,85.389 49.860,84.692 52.005 C 82.116 59.938,87.756 67.832,96.000 67.832 C 100.499 67.832,102.340 66.704,109.708 59.438 L 116.053 53.180 116.053 75.641 C 116.053 97.021,116.094 98.211,116.903 100.371 C 118.535 104.735,123.241 107.947,128.000 107.947 C 132.759 107.947,137.465 104.735,139.097 100.371 C 139.906 98.211,139.947 97.021,139.947 75.641 L 139.947 53.180 146.300 59.446 C 153.975 67.015,155.715 68.029,160.564 67.761 C 164.053 67.567,166.076 66.736,168.293 64.582 C 171.577 61.393,172.757 56.468,171.308 52.005 C 170.611 49.860,169.389 48.529,153.014 32.073 C 140.068 19.064,134.909 14.154,133.342 13.350 C 131.077 12.188,126.961 11.679,125.013 12.320 M51.627 84.780 C 50.000 85.339,46.988 88.148,31.898 103.184 C 19.193 115.842,13.817 121.483,13.140 122.864 C 11.714 125.772,11.791 130.462,13.311 133.333 C 14.123 134.867,19.393 140.396,32.073 153.014 C 48.529 169.389,49.860 170.611,52.005 171.308 C 61.079 174.254,69.953 166.228,67.602 157.202 C 66.748 153.920,66.089 153.051,59.143 146.027 L 53.131 139.947 75.616 139.947 C 97.021 139.947,98.210 139.906,100.371 139.097 C 108.459 136.072,110.516 125.097,104.080 119.311 C 100.391 115.994,100.914 116.053,75.590 116.053 L 53.198 116.053 59.575 109.547 C 63.082 105.968,66.282 102.334,66.687 101.472 C 69.867 94.697,66.799 87.144,59.862 84.669 C 57.728 83.908,54.020 83.958,51.627 84.780 M196.146 84.667 C 193.779 85.511,191.737 87.027,190.361 88.960 C 188.711 91.279,188.159 93.090,188.164 96.170 C 188.171 100.479,189.376 102.422,196.562 109.708 L 202.820 116.053 180.419 116.053 C 155.085 116.053,155.609 115.993,151.920 119.311 C 145.464 125.115,147.522 136.012,155.658 139.104 C 157.765 139.904,159.005 139.947,180.372 139.947 L 202.869 139.947 196.857 146.027 C 189.844 153.118,189.240 153.925,188.351 157.396 C 187.745 159.761,187.746 160.241,188.357 162.627 C 190.205 169.839,197.107 173.597,204.191 171.250 C 206.071 170.627,208.159 168.697,223.927 153.010 C 236.611 140.391,241.877 134.868,242.689 133.333 C 243.620 131.574,243.819 130.639,243.819 128.000 C 243.819 125.361,243.620 124.426,242.689 122.667 C 241.877 121.132,236.611 115.609,223.927 102.990 C 208.159 87.303,206.071 85.373,204.191 84.750 C 201.667 83.914,198.353 83.879,196.146 84.667 M123.850 148.759 C 121.059 149.748,117.967 152.784,116.931 155.554 C 116.086 157.811,116.053 158.739,116.053 180.359 L 116.053 202.820 109.708 196.562 C 102.335 189.291,100.495 188.165,96.000 188.174 C 91.174 188.183,87.462 190.434,85.370 194.622 C 83.831 197.701,83.630 200.810,84.750 204.191 C 85.373 206.071,87.303 208.159,102.990 223.927 C 115.609 236.611,121.132 241.877,122.667 242.689 C 124.426 243.620,125.361 243.819,128.000 243.819 C 130.639 243.819,131.574 243.620,133.333 242.689 C 134.867 241.877,140.396 236.607,153.014 223.927 C 169.389 207.471,170.611 206.140,171.308 203.995 C 173.891 196.039,168.268 188.168,160.000 188.168 C 155.462 188.168,153.573 189.325,146.244 196.596 L 139.947 202.843 139.947 180.371 C 139.947 158.739,139.914 157.811,139.069 155.554 C 138.002 152.702,134.916 149.735,131.975 148.733 C 129.528 147.899,126.249 147.910,123.850 148.759 " stroke="none" fill-rule="evenodd"></path></svg>