<svg fill="currentColor" viewBox="0 0 256 256" xmlns="http://www.w3.org/2000/svg"><path d="M42.621 28.778 C 37.215 30.269,32.466 34.310,29.967 39.543 L 28.373 42.880 28.373 128.000 L 28.373 213.120 29.958 216.440 C 33.070 222.956,38.805 227.007,46.107 227.846 C 50.959 228.404,205.041 228.404,209.893 227.846 C 219.655 226.724,226.724 219.655,227.846 209.893 C 228.404 205.041,228.404 50.959,227.846 46.107 C 226.875 37.658,221.143 30.874,213.184 28.755 C 210.056 27.922,45.644 27.945,42.621 28.778 M203.947 128.000 L 203.947 203.947 128.000 203.947 L 52.053 203.947 52.053 128.000 L 52.053 52.053 128.000 52.053 L 203.947 52.053 203.947 128.000 M156.584 84.427 C 155.996 84.619,154.940 85.082,154.237 85.454 C 153.535 85.827,142.977 96.128,130.775 108.346 C 118.573 120.564,108.457 130.560,108.294 130.560 C 108.132 130.560,107.939 125.616,107.866 119.573 L 107.733 108.587 106.475 106.315 C 104.204 102.216,100.828 100.267,96.000 100.267 C 91.172 100.267,87.796 102.216,85.525 106.315 L 84.267 108.587 84.148 135.212 C 84.040 159.184,84.100 162.053,84.743 163.991 C 85.740 166.993,88.625 169.973,91.614 171.092 C 93.909 171.950,94.596 171.968,120.689 171.852 C 147.304 171.734,147.421 171.729,149.170 170.794 C 153.657 168.393,155.909 164.787,155.909 160.000 C 155.909 155.213,153.657 151.607,149.170 149.206 C 147.522 148.325,146.718 148.253,136.211 148.053 L 125.008 147.840 147.439 125.440 C 160.077 112.820,170.275 102.295,170.797 101.333 C 172.047 99.030,172.125 93.128,170.936 90.880 C 169.822 88.774,167.338 86.269,165.333 85.230 C 163.478 84.268,158.470 83.808,156.584 84.427 " stroke="none" fill-rule="evenodd"></path></svg>