<svg fill="currentColor" viewBox="0 0 256 256" xmlns="http://www.w3.org/2000/svg"><path d="M125.227 12.322 C 124.523 12.508,123.179 13.062,122.240 13.554 C 121.187 14.105,101.566 33.446,70.985 64.077 C 25.498 109.639,21.380 113.879,20.745 115.809 C 19.218 120.449,20.329 125.301,23.657 128.534 C 25.638 130.458,27.508 131.351,30.621 131.861 C 31.966 132.081,40.884 132.263,50.439 132.264 L 67.812 132.267 67.933 155.413 L 68.053 178.560 69.062 180.790 C 70.303 183.535,72.964 186.056,75.758 187.134 C 77.789 187.917,79.715 187.947,128.000 187.947 C 176.285 187.947,178.211 187.917,180.242 187.134 C 183.036 186.056,185.697 183.535,186.938 180.790 L 187.947 178.560 188.067 155.441 L 188.188 132.322 207.267 132.188 C 226.128 132.055,226.371 132.042,228.480 131.073 C 234.469 128.321,237.284 121.977,235.255 115.809 C 234.619 113.879,230.515 109.654,185.046 64.133 C 150.650 29.699,134.914 14.225,133.516 13.465 C 131.339 12.280,127.429 11.741,125.227 12.322 M161.460 74.634 L 194.705 107.881 183.859 108.020 C 173.601 108.152,172.907 108.212,171.051 109.127 C 168.549 110.360,166.253 112.656,165.020 115.157 C 164.056 117.115,164.053 117.178,163.930 140.693 L 163.806 164.267 128.000 164.267 L 92.194 164.267 92.070 140.693 L 91.947 117.120 90.961 115.139 C 89.705 112.615,87.450 110.359,84.949 109.127 C 83.093 108.212,82.399 108.152,72.141 108.020 L 61.295 107.881 94.540 74.634 C 112.824 56.348,127.882 41.387,128.000 41.387 C 128.118 41.387,143.176 56.348,161.460 74.634 M77.013 204.423 C 73.001 205.363,69.143 209.420,68.247 213.641 C 67.048 219.292,70.720 225.593,76.325 227.505 C 78.414 228.217,172.805 228.525,177.276 227.834 C 180.613 227.319,183.218 225.990,184.983 223.902 C 190.194 217.736,188.258 208.729,180.949 205.127 L 178.987 204.160 128.853 204.092 C 98.924 204.051,78.032 204.185,77.013 204.423 " stroke="none" fill-rule="evenodd"></path></svg>