<svg fill="currentColor" viewBox="0 0 256 256" xmlns="http://www.w3.org/2000/svg"><path d="M75.898 28.723 C 75.049 29.040,73.801 29.702,73.124 30.193 C 72.447 30.684,60.540 42.476,46.664 56.396 C 22.844 80.292,21.392 81.835,20.690 84.005 C 19.745 86.924,20.003 90.816,21.317 93.453 C 21.988 94.799,29.753 102.843,47.720 120.803 C 71.794 144.867,73.307 146.295,75.643 147.150 C 78.746 148.285,81.243 148.295,84.218 147.181 C 88.817 145.461,91.885 141.138,91.925 136.320 C 91.969 131.155,91.867 131.021,75.786 114.871 L 61.227 100.249 118.613 100.366 L 176.000 100.483 179.321 101.428 C 181.148 101.947,184.266 103.134,186.251 104.064 C 199.368 110.210,208.231 121.493,211.256 135.893 C 211.950 139.193,211.950 148.807,211.256 152.107 C 207.520 169.895,194.805 182.914,177.043 187.139 C 174.133 187.832,169.771 187.915,125.013 188.134 L 76.160 188.373 74.178 189.538 C 65.661 194.545,66.183 206.751,75.093 210.938 C 77.013 211.840,77.014 211.840,126.293 211.840 L 175.573 211.840 180.376 210.867 C 208.253 205.217,228.625 185.096,234.731 157.182 C 236.008 151.342,236.115 138.365,234.937 132.053 C 230.673 109.192,215.490 90.308,194.133 81.304 C 189.693 79.432,185.445 78.173,179.224 76.887 C 176.417 76.306,168.581 76.200,118.644 76.067 L 61.287 75.914 75.636 61.525 C 91.599 45.517,91.918 45.098,91.918 40.107 C 91.918 35.512,89.839 31.916,85.810 29.541 C 83.541 28.204,78.417 27.781,75.898 28.723 " stroke="none" fill-rule="evenodd"></path></svg>