<svg fill="currentColor" viewBox="0 0 256 256" xmlns="http://www.w3.org/2000/svg"><path d="M27.850 52.757 C 26.859 53.109,25.094 54.255,23.928 55.303 C 17.463 61.115,19.516 72.010,27.658 75.104 C 29.832 75.930,31.194 75.947,96.858 75.947 L 163.840 75.947 163.840 127.458 L 163.840 178.970 149.227 164.411 C 141.189 156.404,133.941 149.497,133.120 149.063 C 130.879 147.879,124.973 147.954,122.667 149.196 C 120.643 150.285,118.165 152.799,117.064 154.880 C 115.875 157.127,115.953 163.029,117.202 165.333 C 118.581 167.878,169.185 218.214,171.184 219.030 C 173.959 220.162,176.298 220.298,179.245 219.498 L 181.973 218.758 207.925 192.899 C 222.832 178.045,234.269 166.314,234.799 165.333 C 236.047 163.029,236.124 157.125,234.936 154.880 C 233.835 152.799,231.357 150.285,229.333 149.196 C 226.880 147.875,221.107 147.879,218.667 149.203 C 217.728 149.712,210.528 156.575,202.667 164.453 L 188.373 178.778 188.160 120.002 L 187.947 61.227 186.752 58.793 C 185.478 56.199,184.000 54.721,181.170 53.206 L 179.413 52.267 104.533 52.191 C 38.885 52.125,29.431 52.195,27.850 52.757 " stroke="none" fill-rule="evenodd"></path></svg>