<svg fill="currentColor" viewBox="0 0 256 256" xmlns="http://www.w3.org/2000/svg"><path d="M115.200 21.116 C 113.188 22.066,105.826 29.244,63.651 71.379 C 26.928 108.066,14.161 121.074,13.315 122.667 C 11.794 125.530,11.712 130.224,13.133 133.122 C 13.828 134.538,27.191 148.146,63.891 184.808 C 111.537 232.404,113.807 234.604,116.005 235.313 C 122.071 237.269,128.179 234.563,130.947 228.693 L 132.053 226.347 132.188 207.267 L 132.322 188.188 155.441 188.067 L 178.560 187.947 180.790 186.938 C 183.535 185.697,186.056 183.036,187.134 180.242 C 187.917 178.211,187.947 176.285,187.947 128.000 C 187.947 79.848,187.915 77.784,187.140 75.774 C 186.073 73.009,183.748 70.497,181.120 69.271 L 178.987 68.275 155.654 68.271 L 132.321 68.267 132.187 48.960 C 132.055 29.858,132.043 29.631,131.072 27.520 C 128.986 22.982,125.349 20.448,120.533 20.176 C 117.989 20.033,117.199 20.172,115.200 21.116 M109.062 84.907 C 110.194 87.316,112.570 89.683,115.139 90.961 L 117.120 91.947 140.480 92.070 L 163.840 92.194 163.840 128.230 L 163.840 164.267 140.480 164.271 L 117.120 164.275 114.987 165.273 C 112.358 166.502,110.259 168.566,109.066 171.093 C 108.239 172.847,108.142 173.947,107.947 183.789 L 107.733 194.565 74.454 161.282 L 41.175 128.000 74.454 94.718 L 107.733 61.435 107.947 72.211 C 108.141 82.032,108.240 83.157,109.062 84.907 M210.987 69.251 C 208.347 70.513,206.253 72.578,205.066 75.093 L 204.160 77.013 204.160 128.000 L 204.160 178.987 205.062 180.907 C 208.480 188.181,217.746 190.185,223.902 184.983 C 225.990 183.218,227.319 180.613,227.834 177.276 C 228.536 172.734,228.216 78.414,227.491 76.277 C 226.694 73.926,224.459 71.229,222.099 69.769 C 220.304 68.659,219.537 68.463,216.567 68.356 C 213.651 68.251,212.791 68.389,210.987 69.251 " stroke="none" fill-rule="evenodd"></path></svg>