<svg fill="currentColor" viewBox="0 0 256 256" xmlns="http://www.w3.org/2000/svg"><path d="M116.907 28.636 C 94.643 31.177,73.646 41.239,57.801 56.960 C 55.199 59.541,51.857 63.156,50.375 64.992 C 38.741 79.403,31.062 97.536,28.770 116.007 C 28.060 121.734,27.975 133.357,28.604 138.880 C 31.985 168.589,48.500 195.451,73.387 211.718 C 97.843 227.704,128.147 232.103,156.686 223.811 C 169.287 220.149,182.561 212.866,193.125 203.818 C 198.268 199.413,199.836 197.121,200.365 193.238 C 200.959 188.867,198.334 183.960,194.133 181.590 C 192.046 180.413,191.410 180.267,188.373 180.274 C 184.202 180.283,182.728 180.969,178.264 184.981 C 170.435 192.015,159.182 198.148,148.616 201.140 C 140.895 203.326,137.778 203.717,128.000 203.725 C 119.988 203.732,118.205 203.605,113.920 202.721 C 103.508 200.572,94.145 196.676,85.333 190.826 C 79.317 186.832,70.336 178.057,66.010 171.947 C 62.598 167.127,57.686 157.466,55.923 152.107 C 52.514 141.746,51.280 129.094,52.656 118.613 C 54.320 105.945,58.837 94.276,66.034 84.053 C 69.688 78.863,78.801 69.739,84.053 66.011 C 88.808 62.637,98.442 57.759,103.893 55.967 C 119.548 50.818,136.425 50.817,152.107 55.964 C 157.498 57.733,167.186 62.645,171.733 65.913 C 173.845 67.431,181.306 73.910,188.314 80.310 L 201.054 91.947 190.660 92.160 C 180.981 92.359,180.146 92.438,178.505 93.315 C 174.734 95.333,171.947 99.945,171.947 104.168 C 171.947 108.680,175.389 113.498,179.789 115.144 C 182.170 116.035,182.737 116.053,208.000 116.053 C 233.263 116.053,233.830 116.035,236.211 115.144 C 239.389 113.955,241.955 111.389,243.144 108.211 C 244.035 105.830,244.053 105.263,244.053 80.000 C 244.053 55.351,244.016 54.120,243.209 51.963 C 242.038 48.837,240.197 46.771,237.325 45.360 C 231.228 42.367,223.843 45.016,221.047 51.200 C 220.243 52.979,220.178 53.979,220.169 64.782 C 220.164 71.684,220.000 76.386,219.768 76.302 C 219.552 76.224,214.059 71.264,207.560 65.280 C 201.062 59.296,194.182 53.089,192.272 51.486 C 177.221 38.856,159.217 31.087,139.708 28.805 C 133.813 28.116,122.219 28.030,116.907 28.636 " stroke="none" fill-rule="evenodd"></path></svg>