<svg fill="currentColor" viewBox="0 0 256 256" xmlns="http://www.w3.org/2000/svg"><path d="M75.839 28.765 C 72.109 30.105,69.113 33.682,68.253 37.825 C 67.080 43.477,70.506 49.334,76.121 51.275 C 78.145 51.974,81.673 52.026,127.816 52.039 C 183.735 52.055,180.208 52.259,183.911 48.795 C 186.702 46.185,187.875 43.619,187.884 40.107 C 187.894 35.592,185.745 31.845,181.822 29.538 L 179.840 28.373 128.640 28.282 C 86.610 28.207,77.153 28.293,75.839 28.765 M74.880 69.285 C 65.472 73.740,66.020 87.378,75.758 91.134 C 77.789 91.917,79.715 91.947,128.000 91.947 C 176.285 91.947,178.211 91.917,180.242 91.134 C 189.980 87.378,190.528 73.740,181.120 69.285 L 178.987 68.275 128.000 68.275 L 77.013 68.275 74.880 69.285 M77.013 108.423 C 73.143 109.330,69.191 113.368,68.295 117.333 C 68.056 118.389,67.856 120.357,67.850 121.707 L 67.840 124.160 48.533 124.169 C 30.048 124.178,29.145 124.216,27.307 125.046 C 24.945 126.113,22.403 128.508,21.240 130.761 C 20.003 133.160,19.765 137.134,20.687 139.995 C 21.396 142.193,23.599 144.467,70.981 191.924 C 108.383 229.385,121.045 241.817,122.619 242.627 C 125.464 244.092,128.545 244.356,131.686 243.406 C 134.177 242.652,134.383 242.453,184.010 192.898 C 220.870 156.091,234.075 142.649,234.763 141.233 C 237.513 135.575,235.060 128.353,229.353 125.297 C 227.665 124.394,227.194 124.371,207.952 124.251 L 188.278 124.128 188.059 120.624 C 187.710 115.044,185.410 111.325,180.949 109.127 L 178.987 108.160 128.853 108.092 C 98.924 108.051,78.032 108.185,77.013 108.423 M163.952 135.675 C 164.223 139.628,165.217 142.024,167.580 144.420 C 170.718 147.602,171.661 147.813,183.789 148.053 L 194.565 148.267 161.282 181.546 L 127.999 214.825 94.613 181.439 L 61.227 148.053 71.283 148.053 C 83.214 148.053,84.750 147.752,87.911 144.795 C 90.639 142.244,91.770 139.729,92.054 135.585 L 92.282 132.267 128.000 132.267 L 163.718 132.267 163.952 135.675 " stroke="none" fill-rule="evenodd"></path></svg>