<svg fill="currentColor" viewBox="0 0 256 256" xmlns="http://www.w3.org/2000/svg"><path d="M76.105 44.705 C 74.902 45.135,72.982 46.279,71.838 47.246 C 70.695 48.213,59.067 59.723,45.998 72.822 C 19.901 98.980,20.066 98.784,20.058 103.711 C 20.048 109.127,18.841 107.685,47.094 136.016 C 75.400 164.399,74.868 163.947,79.931 163.947 C 86.719 163.947,91.921 158.706,91.907 151.881 C 91.896 146.832,92.033 147.000,69.487 124.366 L 49.079 103.878 69.540 83.420 C 92.208 60.756,91.918 61.113,91.907 55.881 C 91.890 47.826,83.659 42.004,76.105 44.705 M132.053 44.624 C 130.085 45.242,127.914 47.297,103.989 71.180 C 85.314 89.822,77.793 97.604,77.114 98.987 C 76.415 100.408,76.169 101.682,76.165 103.893 C 76.156 109.392,75.494 108.604,103.983 137.010 C 132.193 165.138,130.636 163.845,136.289 163.836 C 143.034 163.825,148.550 157.775,147.941 151.057 C 147.820 149.723,147.296 147.781,146.776 146.742 C 146.147 145.485,141.031 140.025,131.476 130.413 L 117.120 115.973 127.147 116.185 C 137.969 116.413,142.035 116.923,150.090 119.060 C 176.913 126.178,198.961 147.146,207.742 173.890 C 209.975 180.692,211.138 186.934,211.671 194.987 C 212.193 202.867,212.808 205.312,214.871 207.722 C 217.285 210.543,220.128 211.819,224.000 211.819 C 226.643 211.819,227.581 211.619,229.392 210.673 C 232.058 209.280,234.393 206.649,235.284 204.034 C 237.076 198.773,235.146 181.343,231.404 168.994 C 222.670 140.174,202.599 116.542,175.573 103.255 C 168.055 99.559,162.585 97.494,155.243 95.581 C 145.990 93.170,140.738 92.520,128.533 92.276 C 122.373 92.153,117.333 91.939,117.333 91.800 C 117.333 91.661,123.933 84.917,131.999 76.814 C 145.591 63.159,146.720 61.912,147.413 59.781 C 149.274 54.061,146.676 48.007,141.152 45.189 C 138.884 44.032,134.752 43.775,132.053 44.624 " stroke="none" fill-rule="evenodd"></path></svg>