<svg fill="currentColor" viewBox="0 0 256 256" xmlns="http://www.w3.org/2000/svg"><path d="M34.644 29.465 C 30.310 31.631,28.156 35.222,28.164 40.267 C 28.170 43.700,29.522 46.608,32.214 48.978 C 35.995 52.306,28.111 52.053,128.000 52.053 C 227.889 52.053,220.005 52.306,223.786 48.978 C 226.478 46.608,227.830 43.700,227.836 40.267 C 227.844 35.222,225.690 31.631,221.356 29.465 L 218.744 28.160 128.000 28.160 L 37.256 28.160 34.644 29.465 M76.108 76.704 C 70.794 78.604,67.114 84.463,68.048 89.537 C 68.836 93.822,68.048 92.978,116.601 141.547 L 163.199 188.160 128.213 188.169 C 93.963 188.179,93.186 188.197,91.307 189.046 C 87.200 190.901,84.510 194.675,84.156 199.076 C 83.761 203.999,86.178 208.347,90.608 210.684 L 92.800 211.840 144.000 211.840 L 195.200 211.840 197.392 210.684 C 198.598 210.048,200.271 208.725,201.111 207.744 C 204.138 204.208,203.973 207.611,203.847 151.229 L 203.733 100.480 202.809 98.773 C 198.877 91.510,189.549 89.903,183.751 95.490 C 182.851 96.357,181.699 97.835,181.191 98.773 C 180.267 100.479,180.267 100.502,180.150 135.664 L 180.034 170.848 133.644 124.524 C 97.104 88.037,86.822 77.998,85.221 77.246 C 82.417 75.929,78.865 75.718,76.108 76.704 " stroke="none" fill-rule="evenodd"></path></svg>