<svg fill="currentColor" viewBox="0 0 256 256" xmlns="http://www.w3.org/2000/svg"><path d="M119.680 20.310 C 97.411 22.610,80.001 29.205,63.147 41.728 C 57.186 46.157,46.223 57.026,41.973 62.720 C 16.611 96.701,12.928 141.035,32.385 178.133 C 37.761 188.385,42.832 195.175,51.828 204.172 C 60.825 213.168,67.615 218.239,77.867 223.615 C 114.965 243.072,159.250 239.395,193.280 214.031 C 198.497 210.143,210.143 198.497,214.031 193.280 C 228.489 173.882,235.947 151.668,235.947 128.000 C 235.947 92.235,218.399 59.167,188.587 38.752 C 175.422 29.738,160.539 23.864,144.427 21.325 C 139.077 20.483,124.002 19.864,119.680 20.310 M135.040 44.374 C 172.305 47.758,202.630 74.580,210.140 110.797 C 215.959 138.858,207.285 167.541,186.865 187.761 C 173.241 201.252,155.612 209.521,136.017 211.611 C 111.761 214.199,86.191 204.984,68.686 187.348 C 48.533 167.041,40.077 138.684,45.860 110.797 C 54.430 69.467,93.221 40.575,135.040 44.374 M132.138 84.669 C 128.078 86.117,125.461 89.063,124.338 93.447 C 123.748 95.751,123.749 96.255,124.355 98.618 C 125.213 101.967,126.680 103.914,133.314 110.507 L 138.680 115.840 111.687 116.053 L 84.693 116.267 82.773 117.274 C 80.147 118.651,78.631 120.146,77.304 122.667 C 76.381 124.421,76.181 125.369,76.181 128.000 C 76.181 131.860,77.456 134.714,80.246 137.102 C 83.638 140.006,82.971 139.947,112.357 139.947 L 138.802 139.947 132.425 146.453 C 128.918 150.032,125.716 153.669,125.310 154.535 C 122.280 160.989,124.844 168.025,131.303 170.982 C 134.200 172.308,138.251 172.223,141.227 170.774 C 142.596 170.107,148.234 164.729,160.893 152.013 C 178.192 134.636,178.659 134.124,179.401 131.686 C 180.356 128.549,180.095 125.472,178.630 122.619 C 177.852 121.102,172.754 115.752,159.927 102.990 C 144.159 87.303,142.071 85.373,140.191 84.750 C 137.664 83.913,134.352 83.880,132.138 84.669 " stroke="none" fill-rule="evenodd"></path></svg>