<svg fill="currentColor" viewBox="0 0 256 256" xmlns="http://www.w3.org/2000/svg"><path d="M155.372 68.920 C 149.400 71.514,146.395 78.875,148.998 84.537 C 150.478 87.758,151.983 89.372,154.793 90.752 L 157.227 91.947 180.035 92.071 L 202.843 92.196 161.478 133.562 L 120.114 174.927 75.737 130.601 C 44.847 99.745,30.776 85.971,29.440 85.278 C 26.556 83.781,21.517 83.852,18.501 85.431 C 12.763 88.436,10.392 95.494,13.188 101.246 C 13.799 102.504,28.955 117.916,63.883 152.801 C 109.634 198.495,113.879 202.619,115.809 203.255 C 116.966 203.635,118.982 203.945,120.289 203.942 C 125.428 203.933,122.888 206.239,173.760 155.396 L 220.160 109.022 220.160 131.662 C 220.160 157.540,220.083 156.896,223.594 160.406 C 228.498 165.311,236.365 165.027,240.985 159.779 C 244.217 156.106,244.086 158.081,243.956 115.167 C 243.841 77.277,243.834 77.000,242.934 75.093 C 241.741 72.566,239.642 70.502,237.013 69.273 L 234.880 68.275 195.840 68.288 C 162.658 68.298,156.586 68.393,155.372 68.920 " stroke="none" fill-rule="evenodd"></path></svg>