<svg fill="currentColor" viewBox="0 0 256 256" xmlns="http://www.w3.org/2000/svg"><path d="M29.155 44.331 C 25.465 45.278,21.890 48.522,20.705 51.999 C 19.474 55.612,20.052 66.279,22.035 76.553 C 28.289 108.950,49.499 137.099,78.959 152.100 C 86.925 156.156,93.829 158.735,102.399 160.855 C 114.597 163.873,121.245 164.248,162.765 164.259 L 194.757 164.267 180.205 178.880 C 164.116 195.038,164.015 195.172,164.091 200.320 C 164.163 205.138,167.238 209.481,171.781 211.181 C 174.758 212.295,177.254 212.286,180.357 211.149 C 182.692 210.293,184.214 208.857,208.278 184.802 C 226.221 166.866,234.011 158.797,234.682 157.453 C 235.997 154.817,236.256 150.926,235.310 148.005 C 234.608 145.835,233.150 144.286,209.123 120.183 C 195.129 106.146,182.838 94.160,181.810 93.550 C 179.183 91.990,174.210 91.685,171.431 92.914 C 166.822 94.953,164.095 99.109,164.087 104.107 C 164.079 109.095,164.395 109.510,180.380 125.541 L 194.745 139.947 158.621 139.947 C 118.962 139.947,117.314 139.864,107.325 137.364 C 79.753 130.466,57.212 109.379,48.258 82.110 C 46.025 75.308,44.862 69.066,44.329 61.013 C 43.813 53.222,43.188 50.683,41.224 48.388 C 38.402 45.091,33.116 43.314,29.155 44.331 " stroke="none" fill-rule="evenodd"></path></svg>