<svg fill="currentColor" viewBox="0 0 256 256" xmlns="http://www.w3.org/2000/svg"><path d="M42.621 28.778 C 37.215 30.269,32.466 34.310,29.967 39.543 L 28.373 42.880 28.373 128.000 L 28.373 213.120 29.958 216.440 C 33.070 222.956,38.805 227.007,46.107 227.846 C 50.959 228.404,205.041 228.404,209.893 227.846 C 219.655 226.724,226.724 219.655,227.846 209.893 C 228.404 205.041,228.404 50.959,227.846 46.107 C 226.875 37.658,221.143 30.874,213.184 28.755 C 210.056 27.922,45.644 27.945,42.621 28.778 M203.947 128.000 L 203.947 203.947 128.000 203.947 L 52.053 203.947 52.053 128.000 L 52.053 52.053 128.000 52.053 L 203.947 52.053 203.947 128.000 M92.049 84.637 C 91.167 84.966,90.111 85.487,89.703 85.795 C 84.564 89.664,82.844 94.880,84.900 100.357 C 85.664 102.392,87.962 104.827,108.370 125.227 L 130.992 147.840 119.789 148.053 C 109.282 148.253,108.478 148.325,106.830 149.206 C 102.343 151.607,100.091 155.213,100.091 160.000 C 100.091 164.787,102.343 168.393,106.830 170.794 C 108.579 171.729,108.696 171.734,135.311 171.852 C 161.404 171.968,162.091 171.950,164.386 171.092 C 167.375 169.973,170.260 166.993,171.257 163.991 C 171.900 162.053,171.960 159.184,171.852 135.212 L 171.733 108.587 170.475 106.315 C 168.204 102.216,164.828 100.267,160.000 100.267 C 155.172 100.267,151.796 102.216,149.525 106.315 L 148.267 108.587 148.053 119.789 L 147.840 130.992 125.440 108.561 C 112.088 95.190,102.351 85.769,101.333 85.237 C 99.161 84.102,94.323 83.789,92.049 84.637 " stroke="none" fill-rule="evenodd"></path></svg>