<svg fill="currentColor" viewBox="0 0 256 256" xmlns="http://www.w3.org/2000/svg"><path d="M123.372 4.920 C 120.982 5.958,118.848 7.927,117.525 10.315 L 116.267 12.587 116.146 35.808 L 116.025 59.029 109.533 52.605 C 101.873 45.026,100.549 44.204,96.000 44.206 C 93.373 44.206,92.408 44.409,90.608 45.340 C 84.849 48.316,82.454 55.190,85.147 61.013 C 86.055 62.978,89.026 66.154,103.383 80.513 C 122.963 100.097,122.931 100.072,128.564 99.761 C 130.329 99.663,132.350 99.253,133.333 98.793 C 135.768 97.654,169.394 64.036,170.682 61.453 C 173.603 55.596,171.226 48.355,165.392 45.340 C 163.591 44.409,162.629 44.207,160.000 44.207 C 155.356 44.207,153.799 45.171,146.347 52.668 L 140.160 58.892 139.947 35.739 L 139.733 12.587 138.475 10.315 C 137.126 7.881,134.977 5.922,132.531 4.901 C 130.586 4.088,125.263 4.099,123.372 4.920 M36.691 116.450 C 31.588 118.012,28.168 122.646,28.168 128.000 C 28.168 132.598,30.579 136.544,34.773 138.811 L 36.480 139.733 128.000 139.733 L 219.520 139.733 221.227 138.809 C 230.049 134.034,230.049 121.957,221.227 117.189 L 219.520 116.267 128.640 116.195 C 78.656 116.155,37.279 116.270,36.691 116.450 M122.880 157.254 C 120.914 158.163,117.758 161.117,103.403 175.489 C 91.645 187.262,85.974 193.238,85.320 194.547 C 84.026 197.137,83.743 201.085,84.654 203.828 C 86.678 209.923,93.434 213.321,99.686 211.390 C 101.986 210.680,102.742 210.071,109.120 203.790 L 116.053 196.962 116.053 219.800 L 116.053 242.637 117.358 245.248 C 119.563 249.661,123.128 251.883,128.029 251.900 C 132.777 251.916,136.395 249.654,138.794 245.170 C 139.724 243.430,139.734 243.194,139.854 220.202 L 139.975 196.990 146.900 203.835 C 153.149 210.013,154.050 210.747,156.136 211.367 C 160.962 212.800,164.945 211.858,168.318 208.484 C 172.079 204.723,173.013 199.215,170.680 194.547 C 170.026 193.238,164.355 187.262,152.597 175.489 C 133.455 156.325,133.256 156.168,128.000 156.168 C 125.929 156.168,124.633 156.443,122.880 157.254 " stroke="none" fill-rule="evenodd"></path></svg>