<svg fill="currentColor" viewBox="0 0 256 256" xmlns="http://www.w3.org/2000/svg"><path d="M76.246 52.669 C 72.101 54.147,69.173 57.400,68.293 61.503 C 67.986 62.934,67.840 82.217,67.840 121.299 L 67.840 178.982 53.227 164.412 C 45.189 156.399,37.941 149.490,37.120 149.058 C 34.876 147.880,28.967 147.957,26.667 149.196 C 24.620 150.297,22.133 152.834,21.111 154.861 C 19.991 157.082,19.801 161.140,20.687 163.888 C 21.388 166.060,22.840 167.603,47.088 191.938 C 74.050 218.998,74.419 219.324,78.762 219.975 C 79.875 220.142,81.516 219.968,83.245 219.498 L 85.973 218.758 111.925 192.899 C 126.832 178.045,138.269 166.314,138.799 165.333 C 140.047 163.029,140.124 157.125,138.936 154.880 C 137.835 152.799,135.357 150.285,133.333 149.196 C 131.033 147.957,125.124 147.880,122.880 149.058 C 122.059 149.490,114.811 156.399,106.773 164.412 L 92.160 178.982 92.160 127.464 L 92.160 75.947 159.131 75.947 C 224.949 75.947,226.140 75.932,228.371 75.097 C 236.459 72.072,238.516 61.097,232.080 55.311 C 228.144 51.772,235.060 52.051,151.924 52.072 C 90.748 52.088,77.585 52.191,76.246 52.669 " stroke="none" fill-rule="evenodd"></path></svg>