<svg fill="currentColor" viewBox="0 0 256 256" xmlns="http://www.w3.org/2000/svg"><path d="M42.621 28.778 C 37.215 30.269,32.466 34.310,29.967 39.543 L 28.373 42.880 28.373 128.000 L 28.373 213.120 29.958 216.440 C 33.070 222.956,38.805 227.007,46.107 227.846 C 50.959 228.404,205.041 228.404,209.893 227.846 C 219.655 226.724,226.724 219.655,227.846 209.893 C 228.404 205.041,228.404 50.959,227.846 46.107 C 226.875 37.658,221.143 30.874,213.184 28.755 C 210.056 27.922,45.644 27.945,42.621 28.778 M203.947 128.000 L 203.947 203.947 128.000 203.947 L 52.053 203.947 52.053 128.000 L 52.053 52.053 128.000 52.053 L 203.947 52.053 203.947 128.000 M91.850 84.753 C 89.053 85.753,85.966 88.787,84.931 91.554 C 84.080 93.827,84.053 94.704,84.053 120.268 L 84.053 146.637 85.358 149.248 C 87.563 153.661,91.128 155.883,96.029 155.900 C 100.777 155.916,104.395 153.654,106.794 149.170 C 107.681 147.512,107.741 146.796,107.866 136.427 C 107.939 130.384,108.132 125.440,108.294 125.440 C 108.457 125.440,118.573 135.437,130.775 147.655 C 143.264 160.161,153.706 170.275,154.667 170.797 C 157.106 172.121,162.880 172.125,165.333 170.804 C 167.357 169.715,169.835 167.201,170.936 165.120 C 172.125 162.872,172.047 156.970,170.797 154.667 C 170.275 153.706,160.161 143.264,147.655 130.775 C 135.437 118.573,125.440 108.457,125.440 108.294 C 125.440 108.132,130.384 107.939,136.427 107.866 C 146.796 107.741,147.512 107.681,149.170 106.794 C 153.657 104.393,155.909 100.787,155.909 96.000 C 155.909 91.213,153.657 87.607,149.170 85.206 C 147.418 84.269,147.346 84.266,120.533 84.187 C 97.492 84.119,93.396 84.200,91.850 84.753 " stroke="none" fill-rule="evenodd"></path></svg>