<svg fill="currentColor" viewBox="0 0 256 256" xmlns="http://www.w3.org/2000/svg"><path d="M205.653 36.227 C 204.832 36.400,203.488 36.882,202.667 37.298 C 201.845 37.715,191.909 47.300,180.587 58.599 L 160.000 79.143 160.000 68.601 C 160.000 59.048,159.919 57.841,159.133 55.742 C 158.081 52.931,155.109 49.977,152.224 48.875 C 149.708 47.915,145.163 48.112,142.734 49.286 C 140.586 50.326,138.238 52.664,137.159 54.841 C 136.355 56.462,136.315 57.670,136.204 83.526 C 136.089 110.248,136.097 110.540,136.997 112.631 C 137.501 113.804,138.791 115.571,139.898 116.606 C 143.601 120.070,142.219 119.935,172.587 119.800 C 198.326 119.685,199.538 119.644,201.159 118.841 C 203.153 117.852,205.759 115.352,206.708 113.516 C 209.229 108.642,207.792 102.181,203.387 98.578 C 200.656 96.345,198.675 96.029,187.313 96.014 L 176.865 96.000 197.624 75.200 C 212.373 60.422,218.596 53.906,219.120 52.693 C 220.074 50.484,220.122 45.566,219.209 43.460 C 218.244 41.232,215.619 38.491,213.360 37.351 C 211.160 36.241,207.871 35.761,205.653 36.227 M55.479 136.984 C 52.700 138.254,50.935 139.732,49.719 141.807 C 45.940 148.256,48.823 156.469,55.803 159.138 C 57.846 159.919,59.050 160.000,68.593 160.000 L 79.127 160.000 58.186 181.013 L 37.245 202.027 36.503 204.755 C 35.256 209.343,36.444 213.521,39.902 216.709 C 42.399 219.011,44.452 219.837,47.787 219.883 C 52.981 219.954,51.986 220.760,74.987 197.826 L 96.000 176.873 96.000 187.407 C 96.000 196.950,96.081 198.154,96.862 200.197 C 98.319 204.009,101.179 206.529,105.224 207.565 C 109.446 208.647,113.275 207.578,116.410 204.443 C 119.855 200.998,119.665 202.783,119.800 172.587 C 119.908 148.224,119.852 145.529,119.200 143.812 C 118.319 141.492,115.618 138.485,113.299 137.244 C 111.588 136.328,111.350 136.319,84.480 136.216 C 57.986 136.115,57.344 136.132,55.479 136.984 " stroke="none" fill-rule="evenodd"></path></svg>