<svg fill="currentColor" viewBox="0 0 256 256" xmlns="http://www.w3.org/2000/svg"><path d="M20.141 76.729 C 17.012 77.845,14.944 79.649,13.440 82.571 L 12.160 85.059 12.046 119.194 C 11.947 148.635,12.020 153.635,12.577 155.550 C 13.427 158.475,16.309 161.686,19.294 163.035 L 21.547 164.053 55.680 164.053 C 94.706 164.053,92.568 164.244,96.397 160.415 C 98.835 157.977,99.844 155.420,99.831 151.711 C 99.814 147.205,97.513 143.576,93.227 141.295 L 91.093 140.160 72.165 139.947 L 53.237 139.733 62.992 130.131 C 68.414 124.794,74.689 119.068,77.119 117.239 C 89.033 108.274,101.380 103.122,116.225 100.922 C 122.317 100.018,133.630 100.014,139.775 100.912 C 169.107 105.197,193.446 123.851,205.141 151.007 C 209.189 160.406,211.190 169.399,211.986 181.763 C 212.273 186.218,212.556 187.914,213.234 189.230 C 216.969 196.484,226.432 198.116,232.249 192.510 C 234.987 189.872,235.663 188.122,235.865 183.145 C 235.963 180.738,235.815 176.514,235.535 173.758 C 231.683 135.790,208.912 103.224,174.720 86.785 C 165.190 82.204,157.966 79.851,147.352 77.873 C 125.182 73.740,102.120 76.801,81.707 86.584 C 68.353 92.984,61.473 98.101,47.072 112.343 L 36.330 122.966 36.192 104.256 C 36.055 85.777,36.041 85.520,35.071 83.413 C 32.398 77.605,25.873 74.683,20.141 76.729 " stroke="none" fill-rule="evenodd"></path></svg>