<svg fill="currentColor" viewBox="0 0 256 256" xmlns="http://www.w3.org/2000/svg"><path d="M125.227 12.322 C 124.523 12.508,123.179 13.062,122.240 13.554 C 121.187 14.105,101.566 33.446,70.985 64.077 C 25.498 109.639,21.380 113.879,20.745 115.809 C 19.216 120.456,20.305 125.188,23.666 128.505 C 25.650 130.463,27.482 131.347,30.621 131.861 C 31.966 132.081,40.863 132.263,50.392 132.264 L 67.718 132.267 67.952 135.675 C 68.320 141.044,70.768 144.906,75.093 146.938 C 77.009 147.838,77.116 147.840,127.120 147.954 C 183.778 148.082,180.184 148.281,183.903 144.803 C 186.633 142.250,187.770 139.730,188.053 135.612 L 188.278 132.321 207.312 132.187 C 226.130 132.055,226.371 132.042,228.480 131.072 C 231.044 129.893,233.568 127.548,234.760 125.239 C 235.997 122.840,236.235 118.866,235.313 116.005 C 234.604 113.807,232.412 111.545,185.050 64.133 C 150.656 29.703,134.914 14.225,133.516 13.465 C 131.339 12.280,127.429 11.741,125.227 12.322 M161.460 74.634 L 194.705 107.881 183.859 108.020 C 173.601 108.152,172.907 108.212,171.051 109.127 C 166.550 111.345,164.293 114.975,163.945 120.555 L 163.720 124.160 128.000 124.160 L 92.280 124.160 92.060 120.640 C 91.710 115.043,89.415 111.327,84.949 109.127 C 83.093 108.212,82.399 108.152,72.141 108.020 L 61.295 107.881 94.540 74.634 C 112.824 56.348,127.882 41.387,128.000 41.387 C 128.118 41.387,143.176 56.348,161.460 74.634 M74.880 165.285 C 65.472 169.740,66.020 183.378,75.758 187.134 C 77.789 187.917,79.715 187.947,128.000 187.947 C 176.285 187.947,178.211 187.917,180.242 187.134 C 189.980 183.378,190.528 169.740,181.120 165.285 L 178.987 164.275 128.000 164.275 L 77.013 164.275 74.880 165.285 M77.013 204.423 C 73.001 205.363,69.143 209.420,68.247 213.641 C 67.048 219.292,70.720 225.593,76.325 227.505 C 78.414 228.217,172.805 228.525,177.276 227.834 C 180.613 227.319,183.218 225.990,184.983 223.902 C 190.194 217.736,188.258 208.729,180.949 205.127 L 178.987 204.160 128.853 204.092 C 98.924 204.051,78.032 204.185,77.013 204.423 " stroke="none" fill-rule="evenodd"></path></svg>