<svg fill="currentColor" viewBox="0 0 256 256" xmlns="http://www.w3.org/2000/svg"><path d="M83.627 20.752 C 81.997 21.332,77.815 25.317,55.984 47.091 C 27.602 75.400,28.053 74.868,28.053 79.931 C 28.053 86.719,33.294 91.921,40.119 91.907 C 45.002 91.897,45.526 91.498,61.547 75.576 L 75.947 61.266 75.950 116.286 C 75.952 151.117,76.114 172.709,76.392 175.129 C 79.816 205.023,101.167 228.409,130.795 234.721 C 134.802 235.574,136.681 235.716,144.000 235.716 C 151.319 235.716,153.198 235.574,157.205 234.721 C 187.028 228.368,208.443 204.731,211.644 174.633 C 211.932 171.921,212.045 154.047,211.964 123.733 C 211.840 77.117,211.838 77.009,210.934 75.093 C 209.717 72.516,207.623 70.486,204.879 69.223 C 202.955 68.337,202.110 68.202,199.299 68.329 C 196.511 68.456,195.656 68.684,193.901 69.769 C 191.469 71.273,189.233 74.021,188.606 76.277 C 188.315 77.324,188.162 92.943,188.156 122.027 C 188.151 146.352,187.963 168.390,187.738 171.093 C 187.203 177.526,186.050 181.875,183.498 187.093 C 177.576 199.204,167.756 207.133,154.040 210.881 C 149.411 212.145,138.589 212.145,133.960 210.881 C 125.331 208.523,118.609 204.737,112.961 199.052 C 107.637 193.693,103.506 186.626,101.428 179.321 L 100.483 176.000 100.366 118.613 L 100.249 61.227 114.871 75.786 C 131.060 91.907,131.164 91.984,136.363 91.909 C 141.066 91.841,145.520 88.658,147.201 84.165 C 148.295 81.242,148.280 78.731,147.150 75.643 C 146.295 73.307,144.867 71.794,120.803 47.720 C 102.820 29.730,94.797 21.986,93.440 21.306 C 90.938 20.054,86.322 19.793,83.627 20.752 " stroke="none" fill-rule="evenodd"></path></svg>