<svg fill="currentColor" viewBox="0 0 256 256" xmlns="http://www.w3.org/2000/svg"><path d="M123.307 29.046 C 120.970 30.101,118.434 32.477,117.191 34.773 L 116.267 36.480 116.267 128.000 L 116.267 219.520 117.189 221.227 C 121.130 228.519,130.427 230.120,136.249 224.510 C 137.149 223.643,138.301 222.165,138.809 221.227 L 139.733 219.520 139.733 128.000 L 139.733 36.480 138.809 34.773 C 136.571 30.638,132.539 28.179,128.000 28.179 C 126.126 28.179,124.604 28.460,123.307 29.046 M44.323 84.642 C 43.474 84.946,42.130 85.600,41.336 86.096 C 40.543 86.592,32.270 94.639,22.952 103.979 C 4.162 122.814,4.110 122.881,4.110 128.000 C 4.110 133.126,4.142 133.167,23.166 152.228 C 37.441 166.532,40.743 169.629,42.841 170.682 C 48.733 173.637,55.606 171.322,58.659 165.351 C 59.714 163.289,59.944 162.326,59.932 160.030 C 59.909 155.506,58.939 153.941,51.535 146.481 L 45.077 139.975 68.299 139.854 C 91.186 139.735,91.545 139.720,93.227 138.809 C 102.049 134.034,102.049 121.957,93.227 117.189 C 91.545 116.280,91.173 116.265,68.299 116.146 L 45.077 116.025 51.535 109.519 C 56.035 104.984,58.257 102.414,58.866 101.038 C 61.575 94.914,59.327 88.520,53.383 85.443 C 50.398 83.898,47.198 83.615,44.323 84.642 M204.323 84.616 C 201.748 85.580,199.664 87.069,198.348 88.886 C 196.681 91.187,195.670 94.755,196.001 97.170 C 196.523 100.974,197.724 102.727,204.465 109.519 L 210.923 116.025 187.701 116.146 C 164.827 116.265,164.455 116.280,162.773 117.189 C 158.579 119.456,156.168 123.402,156.168 128.000 C 156.168 132.598,158.579 136.544,162.773 138.811 C 164.455 139.720,164.827 139.735,187.701 139.854 L 210.923 139.975 204.465 146.481 C 197.074 153.928,196.092 155.510,196.068 160.000 C 196.041 165.098,199.331 169.773,204.046 171.340 C 206.658 172.207,210.722 172.007,213.120 170.893 C 214.249 170.369,220.722 164.235,232.231 152.783 C 251.707 133.405,251.909 133.150,251.909 128.000 C 251.909 122.864,251.681 122.576,232.442 103.403 C 220.630 91.632,214.653 85.973,213.333 85.313 C 210.968 84.129,206.539 83.787,204.323 84.616 " stroke="none" fill-rule="evenodd"></path></svg>