<svg fill="currentColor" viewBox="0 0 256 256" xmlns="http://www.w3.org/2000/svg"><path d="M52.907 20.420 C 49.220 21.657,46.870 23.620,45.177 26.880 C 43.694 29.736,43.760 34.394,45.327 37.392 C 46.799 40.208,49.501 42.510,52.241 43.282 C 53.429 43.617,57.376 44.088,61.013 44.329 C 69.066 44.862,75.308 46.025,82.110 48.258 C 103.300 55.216,120.861 70.313,130.826 90.141 C 133.912 96.281,135.410 100.145,136.940 105.910 C 139.753 116.514,139.673 115.099,139.838 156.800 L 139.988 194.773 125.568 180.443 C 109.514 164.491,109.055 164.141,104.152 164.141 C 97.293 164.141,92.053 169.277,92.053 176.000 C 92.053 181.143,91.544 180.543,119.984 208.910 C 144.285 233.148,145.834 234.607,148.005 235.310 C 150.926 236.256,154.817 235.997,157.453 234.682 C 158.797 234.011,166.866 226.221,184.802 208.278 C 208.857 184.214,210.293 182.692,211.149 180.357 C 212.285 177.255,212.295 174.758,211.181 171.782 C 209.441 167.130,205.160 164.155,200.164 164.126 C 195.067 164.097,194.737 164.347,178.667 180.385 L 164.267 194.757 164.259 162.765 C 164.248 121.245,163.873 114.597,160.855 102.399 C 156.465 84.652,147.711 68.259,135.747 55.377 C 117.997 36.266,96.446 24.855,71.061 21.125 C 65.653 20.331,54.469 19.897,52.907 20.420 " stroke="none" fill-rule="evenodd"></path></svg>