<svg fill="currentColor" viewBox="0 0 256 256" xmlns="http://www.w3.org/2000/svg"><path d="M42.621 28.778 C 37.215 30.269,32.466 34.310,29.967 39.543 L 28.373 42.880 28.373 128.000 L 28.373 213.120 29.958 216.440 C 33.070 222.956,38.805 227.007,46.107 227.846 C 50.959 228.404,205.041 228.404,209.893 227.846 C 219.655 226.724,226.724 219.655,227.846 209.893 C 228.404 205.041,228.404 50.959,227.846 46.107 C 226.875 37.658,221.143 30.874,213.184 28.755 C 210.056 27.922,45.644 27.945,42.621 28.778 M203.947 128.000 L 203.947 203.947 128.000 203.947 L 52.053 203.947 52.053 128.000 L 52.053 52.053 128.000 52.053 L 203.947 52.053 203.947 128.000 M132.138 84.669 C 128.078 86.117,125.461 89.063,124.338 93.447 C 123.748 95.751,123.749 96.255,124.355 98.618 C 125.213 101.967,126.680 103.914,133.314 110.507 L 138.680 115.840 111.687 116.053 L 84.693 116.267 82.773 117.274 C 80.147 118.651,78.631 120.146,77.304 122.667 C 76.381 124.421,76.181 125.369,76.181 128.000 C 76.181 131.860,77.456 134.714,80.246 137.102 C 83.638 140.006,82.968 139.947,112.390 139.947 L 138.869 139.947 132.857 146.027 C 125.844 153.118,125.240 153.925,124.351 157.396 C 123.745 159.760,123.746 160.241,124.355 162.619 C 126.196 169.807,133.135 173.588,140.191 171.250 C 142.071 170.627,144.159 168.697,159.927 153.010 C 172.611 140.391,177.877 134.868,178.689 133.333 C 180.305 130.281,180.305 125.719,178.689 122.667 C 177.877 121.132,172.611 115.609,159.927 102.990 C 144.159 87.303,142.071 85.373,140.191 84.750 C 137.664 83.913,134.352 83.880,132.138 84.669 " stroke="none" fill-rule="evenodd"></path></svg>