<svg fill="currentColor" viewBox="0 0 256 256" xmlns="http://www.w3.org/2000/svg"><path d="M123.850 20.759 C 121.059 21.748,117.967 24.784,116.931 27.554 C 116.061 29.878,116.053 30.412,116.053 88.438 L 116.053 146.977 89.493 120.466 C 74.885 105.884,62.261 93.614,61.440 93.198 C 60.569 92.757,58.606 92.363,56.728 92.252 C 52.538 92.003,49.853 93.080,47.138 96.099 C 43.984 99.608,43.204 103.748,44.849 108.251 C 45.709 110.605,47.497 112.469,83.142 148.175 C 124.485 189.589,122.589 187.909,128.000 187.909 C 133.407 187.909,131.537 189.564,172.652 148.387 C 199.007 121.994,210.112 110.596,210.780 109.258 C 212.964 104.875,212.167 99.587,208.775 95.961 C 206.067 93.065,203.360 92.009,199.272 92.252 C 197.394 92.363,195.431 92.757,194.560 93.198 C 193.739 93.614,181.115 105.884,166.507 120.466 L 139.947 146.977 139.947 88.438 C 139.947 30.412,139.939 29.878,139.069 27.554 C 138.002 24.702,134.916 21.735,131.975 20.733 C 129.528 19.899,126.249 19.910,123.850 20.759 M37.333 204.345 C 31.937 205.675,28.189 210.323,28.169 215.711 C 28.156 219.420,29.165 221.977,31.603 224.415 C 35.605 228.418,25.946 228.053,128.000 228.053 C 230.054 228.053,220.395 228.418,224.397 224.415 C 226.835 221.977,227.844 219.420,227.831 215.711 C 227.814 211.205,225.513 207.576,221.227 205.295 L 219.093 204.160 128.853 204.095 C 79.221 204.059,38.037 204.171,37.333 204.345 " stroke="none" fill-rule="evenodd"></path></svg>