<svg fill="currentColor" viewBox="0 0 256 256" xmlns="http://www.w3.org/2000/svg"><path d="M42.621 28.778 C 37.215 30.269,32.466 34.310,29.967 39.543 L 28.373 42.880 28.373 128.000 L 28.373 213.120 29.958 216.440 C 33.070 222.956,38.805 227.007,46.107 227.846 C 50.959 228.404,205.041 228.404,209.893 227.846 C 219.655 226.724,226.724 219.655,227.846 209.893 C 228.404 205.041,228.404 50.959,227.846 46.107 C 226.875 37.658,221.143 30.874,213.184 28.755 C 210.056 27.922,45.644 27.945,42.621 28.778 M203.947 128.000 L 203.947 203.947 128.000 203.947 L 52.053 203.947 52.053 128.000 L 52.053 52.053 128.000 52.053 L 203.947 52.053 203.947 128.000 M125.155 76.331 C 123.048 76.872,120.084 78.777,118.657 80.509 C 116.019 83.708,116.053 83.294,116.053 112.366 L 116.053 138.820 109.708 132.562 C 102.340 125.296,100.499 124.168,96.000 124.168 C 87.732 124.168,82.109 132.039,84.692 139.995 C 85.389 142.140,86.611 143.471,102.986 159.927 C 115.604 172.607,121.133 177.877,122.667 178.689 C 124.426 179.620,125.361 179.819,128.000 179.819 C 130.639 179.819,131.574 179.620,133.333 178.689 C 134.868 177.877,140.391 172.611,153.010 159.927 C 168.697 144.159,170.627 142.071,171.250 140.191 C 172.370 136.810,172.169 133.701,170.630 130.622 C 168.538 126.434,164.826 124.183,160.000 124.174 C 155.505 124.165,153.665 125.291,146.292 132.562 L 139.947 138.820 139.947 112.366 C 139.947 83.088,139.993 83.623,137.197 80.356 C 134.401 77.091,129.100 75.319,125.155 76.331 " stroke="none" fill-rule="evenodd"></path></svg>