<svg fill="currentColor" viewBox="0 0 256 256" xmlns="http://www.w3.org/2000/svg"><path d="M75.839 28.765 C 72.109 30.105,69.113 33.682,68.253 37.825 C 67.080 43.477,70.506 49.334,76.121 51.275 C 78.145 51.974,81.673 52.026,127.816 52.039 C 183.735 52.055,180.208 52.259,183.911 48.795 C 186.702 46.185,187.875 43.619,187.884 40.107 C 187.894 35.592,185.745 31.845,181.822 29.538 L 179.840 28.373 128.640 28.282 C 86.610 28.207,77.153 28.293,75.839 28.765 M74.880 69.285 C 72.245 70.533,70.319 72.517,69.035 75.307 C 68.054 77.439,68.053 77.446,67.933 100.800 L 67.812 124.160 48.519 124.169 C 30.053 124.178,29.144 124.216,27.307 125.045 C 21.550 127.644,18.746 134.115,20.745 140.191 C 21.380 142.121,25.498 146.361,70.985 191.924 C 108.388 229.388,121.044 241.817,122.619 242.627 C 125.464 244.092,128.545 244.356,131.686 243.406 C 134.177 242.652,134.383 242.453,184.010 192.898 C 220.870 156.091,234.075 142.649,234.763 141.233 C 237.513 135.575,235.060 128.353,229.353 125.297 C 227.664 124.394,227.195 124.371,207.907 124.251 L 188.188 124.128 188.067 100.784 C 187.947 77.446,187.946 77.439,186.965 75.307 C 185.681 72.517,183.755 70.533,181.120 69.285 L 178.987 68.275 128.000 68.275 L 77.013 68.275 74.880 69.285 M163.930 115.520 C 164.053 138.813,164.056 138.886,165.020 140.843 C 166.275 143.388,168.683 145.805,171.093 146.938 C 172.843 147.760,173.968 147.859,183.789 148.053 L 194.565 148.267 161.282 181.546 L 127.999 214.825 94.613 181.439 L 61.227 148.053 71.283 148.053 C 83.214 148.053,84.750 147.752,87.911 144.795 C 89.036 143.743,90.405 141.981,90.952 140.881 L 91.947 138.880 92.070 115.520 L 92.194 92.160 128.000 92.160 L 163.806 92.160 163.930 115.520 " stroke="none" fill-rule="evenodd"></path></svg>