<svg fill="currentColor" viewBox="0 0 256 256" xmlns="http://www.w3.org/2000/svg"><path d="M120.034 12.382 C 107.678 13.582,97.354 16.558,86.541 22.036 C 57.730 36.633,39.010 64.635,36.238 97.280 C 34.781 114.452,38.940 134.140,47.783 151.929 C 57.897 172.276,73.580 188.947,91.891 198.818 C 94.151 200.037,96.000 201.119,96.000 201.223 C 96.000 201.326,93.360 207.598,90.133 215.159 C 84.332 228.753,84.267 228.943,84.271 232.107 C 84.275 234.847,84.456 235.635,85.537 237.592 C 87.067 240.364,89.069 242.085,92.069 243.209 C 94.248 244.024,95.485 244.053,128.000 244.053 C 160.515 244.053,161.752 244.024,163.931 243.209 C 166.931 242.085,168.933 240.364,170.463 237.592 C 171.544 235.635,171.725 234.847,171.729 232.107 C 171.733 228.940,171.673 228.765,165.867 215.218 C 162.640 207.689,160.000 201.418,160.000 201.282 C 160.000 201.147,161.842 200.052,164.092 198.849 C 176.652 192.138,187.771 182.383,197.335 169.684 C 212.943 148.958,221.548 121.490,219.781 98.029 C 217.300 65.076,198.561 36.807,169.387 22.004 C 160.229 17.357,151.230 14.496,141.165 13.032 C 135.456 12.201,125.155 11.885,120.034 12.382 M142.933 37.680 C 170.783 44.335,190.980 66.134,195.193 94.084 C 199.103 120.032,186.462 151.324,164.693 169.577 C 148.299 183.325,128.973 187.377,110.720 180.893 C 94.190 175.022,79.037 160.577,69.554 141.653 C 54.383 111.379,57.705 79.872,78.419 57.576 C 87.737 47.546,100.471 40.344,113.758 37.589 C 119.873 36.322,119.723 36.332,129.493 36.477 C 137.293 36.592,139.033 36.748,142.933 37.680 M137.173 54.134 C 130.232 55.959,126.313 63.385,128.807 69.987 C 130.077 73.349,132.542 75.604,136.945 77.434 C 141.784 79.444,144.715 81.266,147.504 83.997 C 151.904 88.304,154.440 93.219,155.570 99.627 C 156.434 104.528,156.846 105.535,158.949 107.874 C 164.113 113.618,173.032 113.185,177.533 106.972 C 179.892 103.715,180.264 99.720,178.820 93.150 C 175.961 80.139,168.626 69.081,157.775 61.423 C 150.233 56.100,141.477 53.002,137.173 54.134 M132.243 207.848 L 136.486 207.563 139.069 213.627 C 140.491 216.962,141.653 219.796,141.653 219.925 C 141.653 220.054,135.509 220.160,128.000 220.160 C 120.491 220.160,114.347 220.054,114.347 219.925 C 114.347 219.796,115.509 216.962,116.931 213.627 L 119.514 207.563 123.757 207.848 C 126.091 208.004,129.909 208.004,132.243 207.848 " stroke="none" fill-rule="evenodd"></path></svg>