<svg fill="currentColor" viewBox="0 0 256 256" xmlns="http://www.w3.org/2000/svg"><path d="M63.716 28.337 C 47.006 31.520,34.024 43.401,29.178 59.947 C 27.584 65.386,27.282 74.375,28.495 80.213 C 29.592 85.491,31.453 90.232,34.192 94.724 C 36.060 97.788,38.673 100.633,51.141 113.173 L 65.882 128.000 51.141 142.827 C 38.673 155.367,36.060 158.212,34.192 161.276 C 31.453 165.768,29.592 170.509,28.495 175.787 C 27.283 181.617,27.585 190.610,29.174 196.053 C 32.701 208.138,40.930 218.146,51.786 223.553 C 58.442 226.869,62.554 227.907,69.973 228.147 C 77.070 228.377,81.758 227.634,87.684 225.340 C 95.053 222.487,97.080 220.859,113.173 204.859 L 128.000 190.118 142.827 204.859 C 158.920 220.859,160.947 222.487,168.316 225.340 C 174.242 227.634,178.930 228.377,186.027 228.147 C 193.446 227.907,197.558 226.869,204.214 223.553 C 215.070 218.146,223.299 208.138,226.826 196.053 C 228.415 190.610,228.717 181.617,227.505 175.787 C 226.408 170.509,224.547 165.768,221.808 161.276 C 219.940 158.212,217.327 155.367,204.859 142.827 L 190.118 128.000 204.859 113.173 C 220.859 97.080,222.487 95.053,225.340 87.684 C 227.634 81.758,228.377 77.070,228.147 69.973 C 227.908 62.564,226.869 58.442,223.572 51.823 C 218.297 41.232,209.011 33.291,197.750 29.741 C 187.905 26.637,176.518 27.179,167.050 31.202 C 160.347 34.051,158.491 35.579,142.829 51.144 L 128.005 65.877 112.962 50.964 C 100.081 38.193,97.430 35.766,94.507 34.068 C 90.290 31.619,86.910 30.189,82.524 28.999 C 78.180 27.819,68.266 27.471,63.716 28.337 M77.003 52.565 C 81.744 53.756,83.265 54.987,97.493 69.161 L 111.147 82.761 96.951 96.954 L 82.755 111.147 69.172 97.493 C 56.623 84.879,55.471 83.596,54.034 80.640 C 46.469 65.079,60.165 48.339,77.003 52.565 M189.440 52.538 C 192.490 53.227,196.038 55.364,198.611 58.061 C 204.432 64.163,205.730 72.898,201.966 80.640 C 200.529 83.596,199.377 84.879,186.828 97.493 L 173.245 111.147 159.049 96.954 L 144.853 82.761 158.507 69.142 C 171.296 56.385,172.364 55.427,175.375 53.998 C 180.029 51.789,184.207 51.356,189.440 52.538 M142.294 113.921 L 156.370 128.002 142.185 142.187 L 128.000 156.372 113.815 142.187 L 99.630 128.002 113.706 113.921 C 121.448 106.176,127.880 99.840,128.000 99.840 C 128.120 99.840,134.552 106.176,142.294 113.921 M97.067 159.147 L 111.142 173.226 98.131 186.258 C 90.975 193.425,84.112 199.964,82.879 200.788 C 78.300 203.850,72.705 204.946,67.671 203.766 C 54.768 200.743,48.272 187.210,54.035 175.360 C 55.471 172.408,56.633 171.112,69.055 158.613 C 76.460 151.163,82.625 145.067,82.755 145.067 C 82.885 145.067,89.325 151.403,97.067 159.147 M186.944 158.613 C 198.753 170.506,200.566 172.509,201.792 175.017 C 208.587 188.924,197.972 204.911,182.660 203.831 C 178.615 203.546,175.251 202.302,172.064 199.913 C 170.709 198.897,164.033 192.477,157.229 185.646 L 144.859 173.226 158.934 159.146 C 166.675 151.403,173.117 145.067,173.251 145.067 C 173.384 145.067,179.546 151.163,186.944 158.613 " stroke="none" fill-rule="evenodd"></path></svg>