<svg fill="currentColor" viewBox="0 0 256 256" xmlns="http://www.w3.org/2000/svg"><path d="M124.373 20.650 C 121.835 21.454,18.075 85.368,15.746 87.563 C 10.628 92.387,10.927 100.550,16.394 105.229 C 19.239 107.664,20.980 107.947,33.144 107.947 L 43.947 107.947 43.947 132.053 L 43.947 156.160 36.587 156.169 C 30.114 156.178,28.995 156.283,27.307 157.046 C 23.200 158.901,20.510 162.675,20.156 167.076 C 19.761 171.999,22.178 176.347,26.608 178.684 L 28.800 179.840 128.000 179.840 L 227.200 179.840 229.392 178.684 C 233.822 176.347,236.239 171.999,235.844 167.076 C 235.490 162.675,232.800 158.901,228.693 157.046 C 227.005 156.283,225.886 156.178,219.413 156.169 L 212.053 156.160 212.053 132.053 L 212.053 107.947 222.884 107.947 C 231.786 107.947,234.104 107.821,235.896 107.242 C 240.204 105.851,243.402 101.753,243.884 97.006 C 244.238 93.516,242.914 90.070,240.254 87.563 C 237.776 85.228,134.049 21.410,131.452 20.623 C 129.148 19.925,126.635 19.935,124.373 20.650 M158.819 65.067 L 189.313 83.840 158.656 83.949 C 141.795 84.010,114.206 84.010,97.346 83.949 L 66.692 83.840 97.239 64.996 C 114.040 54.632,127.908 46.184,128.056 46.223 C 128.204 46.262,142.047 54.741,158.819 65.067 M92.160 132.053 L 92.160 156.160 80.213 156.160 L 68.267 156.160 68.267 132.053 L 68.267 107.947 80.213 107.947 L 92.160 107.947 92.160 132.053 M139.947 132.053 L 139.947 156.160 128.000 156.160 L 116.053 156.160 116.053 132.053 L 116.053 107.947 128.000 107.947 L 139.947 107.947 139.947 132.053 M188.160 132.053 L 188.160 156.160 176.213 156.160 L 164.267 156.160 164.267 132.053 L 164.267 107.947 176.213 107.947 L 188.160 107.947 188.160 132.053 M10.880 197.285 C 1.472 201.740,2.020 215.378,11.758 219.134 C 13.813 219.926,16.769 219.947,128.000 219.947 C 239.231 219.947,242.187 219.926,244.242 219.134 C 253.980 215.378,254.528 201.740,245.120 197.285 L 242.987 196.275 128.000 196.275 L 13.013 196.275 10.880 197.285 " stroke="none" fill-rule="evenodd"></path></svg>