<svg fill="currentColor" viewBox="0 0 256 256" xmlns="http://www.w3.org/2000/svg"><path d="M64.046 44.408 C 60.826 45.041,56.856 47.196,54.143 49.784 C 49.975 53.758,47.824 59.326,47.795 66.213 L 47.787 68.213 37.203 68.346 L 26.618 68.480 23.443 70.053 C 19.681 71.916,15.978 75.418,14.363 78.641 C 12.115 83.124,11.947 84.686,11.947 100.996 C 11.947 115.268,11.906 116.053,11.171 116.053 C 8.798 116.053,5.764 117.487,3.639 119.612 C 0.165 123.086,-0.860 127.457,0.715 132.080 C 2.051 136.002,7.175 139.947,10.932 139.947 L 11.900 139.947 12.044 156.053 C 12.180 171.321,12.235 172.287,13.108 174.606 C 15.589 181.197,21.246 186.092,28.045 187.533 C 29.987 187.945,33.694 188.148,39.360 188.153 L 47.787 188.160 47.795 189.973 C 47.845 200.719,53.799 208.905,63.378 211.400 C 67.032 212.352,92.968 212.352,96.622 211.400 C 104.634 209.313,110.617 202.711,111.779 194.675 C 112.014 193.048,112.200 180.470,112.205 165.867 L 112.213 139.947 128.000 139.947 L 143.787 139.947 143.795 165.867 C 143.800 180.470,143.986 193.048,144.221 194.675 C 145.383 202.711,151.366 209.313,159.378 211.400 C 163.032 212.352,188.968 212.352,192.622 211.400 C 200.634 209.313,206.617 202.711,207.779 194.675 C 208.009 193.086,208.200 190.971,208.205 189.973 L 208.213 188.160 216.640 188.153 C 222.306 188.148,226.013 187.945,227.955 187.533 C 234.754 186.092,240.411 181.197,242.892 174.606 C 243.765 172.287,243.820 171.321,243.956 156.053 L 244.100 139.947 245.068 139.947 C 248.985 139.947,254.121 135.881,255.325 131.826 C 256.751 127.023,255.796 123.047,252.401 119.652 C 250.243 117.494,247.221 116.053,244.853 116.053 C 244.150 116.053,244.091 114.994,243.956 99.947 C 243.820 84.679,243.765 83.713,242.892 81.394 C 241.017 76.413,237.439 72.490,232.557 70.060 L 229.382 68.480 218.797 68.346 L 208.213 68.213 208.205 66.213 C 208.188 62.278,207.345 58.298,205.885 55.262 C 203.286 49.859,197.589 45.514,191.620 44.382 C 188.634 43.816,163.366 43.816,160.380 44.382 C 152.144 45.944,145.430 52.957,144.232 61.251 C 143.983 62.970,143.800 75.095,143.795 90.133 L 143.787 116.053 128.000 116.053 L 112.213 116.053 112.205 90.133 C 112.200 75.095,112.017 62.970,111.768 61.251 C 110.570 52.957,103.856 45.944,95.620 44.382 C 92.861 43.859,66.733 43.880,64.046 44.408 M87.893 128.213 L 87.893 188.160 80.000 188.160 L 72.107 188.160 72.107 128.213 L 72.107 68.267 80.000 68.267 L 87.893 68.267 87.893 128.213 M183.893 128.213 L 183.893 188.160 176.000 188.160 L 168.107 188.160 168.107 128.213 L 168.107 68.267 176.000 68.267 L 183.893 68.267 183.893 128.213 M47.787 128.213 L 47.787 164.267 42.027 164.267 L 36.267 164.267 36.267 128.213 L 36.267 92.160 42.027 92.160 L 47.787 92.160 47.787 128.213 M220.056 128.107 L 219.947 164.053 214.080 164.172 L 208.213 164.291 208.213 128.225 L 208.213 92.160 214.189 92.160 L 220.165 92.160 220.056 128.107 " stroke="none" fill-rule="evenodd"></path></svg>