<svg fill="currentColor" viewBox="0 0 256 256" xmlns="http://www.w3.org/2000/svg"><path d="M119.680 20.310 C 97.411 22.610,80.001 29.205,63.147 41.728 C 57.186 46.157,46.223 57.026,41.973 62.720 C 16.611 96.701,12.928 141.035,32.385 178.133 C 37.761 188.385,42.832 195.175,51.828 204.172 C 60.825 213.168,67.615 218.239,77.867 223.615 C 114.965 243.072,159.250 239.395,193.280 214.031 C 198.497 210.143,210.143 198.497,214.031 193.280 C 228.489 173.882,235.947 151.668,235.947 128.000 C 235.947 92.235,218.399 59.167,188.587 38.752 C 175.422 29.738,160.539 23.864,144.427 21.325 C 139.077 20.483,124.002 19.864,119.680 20.310 M135.040 44.374 C 145.521 45.326,155.422 48.040,164.449 52.435 C 169.594 54.941,178.773 60.667,178.773 61.371 C 178.773 61.576,178.104 62.620,177.287 63.691 C 173.977 68.026,169.739 75.016,169.107 77.185 C 166.952 84.576,172.797 92.217,180.602 92.212 C 185.814 92.208,188.356 90.424,192.715 83.710 L 195.924 78.767 196.728 79.810 C 198.539 82.159,201.981 88.124,204.013 92.431 C 214.628 114.934,214.556 141.379,203.819 163.968 C 201.794 168.228,196.517 177.067,195.998 177.067 C 195.898 177.067,194.386 174.863,192.637 172.169 C 188.086 165.160,185.487 163.526,179.552 163.947 C 173.235 164.394,168.740 169.342,168.796 175.787 C 168.827 179.276,169.596 180.933,174.817 188.754 C 176.993 192.013,178.773 194.738,178.773 194.809 C 178.773 195.334,168.654 201.524,164.471 203.558 C 141.565 214.695,114.764 214.781,91.947 203.793 C 87.282 201.546,80.668 197.627,78.373 195.750 L 77.174 194.769 81.677 188.022 C 86.594 180.655,87.754 177.891,87.305 174.617 C 86.482 168.613,82.247 164.400,76.578 163.945 C 70.658 163.470,67.884 165.206,63.310 172.252 L 60.076 177.233 59.272 176.190 C 57.504 173.896,54.069 167.969,52.083 163.784 C 41.386 141.250,41.386 114.750,52.083 92.216 C 54.069 88.031,57.504 82.104,59.272 79.810 L 60.076 78.767 63.285 83.710 C 67.644 90.424,70.186 92.208,75.398 92.212 C 82.976 92.217,88.791 84.953,87.043 77.666 C 86.525 75.505,83.117 69.668,79.278 64.367 C 78.150 62.809,77.227 61.427,77.227 61.297 C 77.227 61.166,79.099 59.814,81.387 58.292 C 93.970 49.922,105.994 45.804,122.453 44.226 C 125.733 43.912,130.582 43.969,135.040 44.374 M82.938 104.797 C 80.373 105.706,77.873 108.055,76.506 110.838 C 75.377 113.136,75.318 113.531,75.502 117.547 C 75.610 119.893,75.698 124.597,75.698 128.000 C 75.698 131.403,75.610 136.107,75.502 138.453 C 75.318 142.469,75.377 142.864,76.506 145.162 C 80.887 154.083,93.576 154.196,97.903 145.353 C 99.359 142.376,99.836 137.964,99.824 127.573 C 99.808 114.256,98.866 110.163,95.071 106.914 C 91.951 104.244,86.955 103.372,82.938 104.797 M164.907 104.626 C 161.077 105.979,157.913 109.571,157.009 113.593 C 156.272 116.868,155.970 132.879,156.539 138.453 C 156.893 141.910,157.306 143.734,158.109 145.376 C 162.422 154.197,175.120 154.070,179.494 145.162 C 180.631 142.846,180.683 142.488,180.497 138.240 C 180.388 135.776,180.300 131.168,180.300 128.000 C 180.300 124.832,180.388 120.224,180.497 117.760 C 180.683 113.512,180.631 113.154,179.494 110.838 C 178.086 107.971,175.612 105.698,172.888 104.770 C 170.687 104.020,166.820 103.950,164.907 104.626 " stroke="none" fill-rule="evenodd"></path></svg>