<svg fill="currentColor" viewBox="0 0 256 256" xmlns="http://www.w3.org/2000/svg"><path d="M68.480 12.468 C 64.259 13.966,54.129 21.799,46.270 29.642 C 35.772 40.120,25.166 55.495,23.951 61.995 C 22.677 68.817,27.742 75.276,34.809 75.844 C 40.427 76.295,44.109 73.790,47.822 66.989 C 54.826 54.164,64.446 43.606,76.602 35.403 C 80.796 32.573,82.910 30.073,83.804 26.887 C 85.914 19.368,80.169 11.915,72.320 11.990 C 70.912 12.003,69.184 12.218,68.480 12.468 M179.212 12.831 C 174.972 14.754,172.728 17.553,171.919 21.927 C 171.076 26.489,173.106 30.911,177.459 33.991 C 192.613 44.714,200.839 53.550,208.178 66.989 C 211.891 73.790,215.573 76.295,221.191 75.844 C 225.732 75.479,229.213 73.017,231.142 68.804 C 232.285 66.308,232.500 62.859,231.671 60.346 C 230.480 56.737,224.765 47.436,219.366 40.320 C 211.527 29.989,193.943 14.676,187.350 12.439 C 185.089 11.672,181.373 11.851,179.212 12.831 M121.729 36.296 C 112.524 37.004,103.854 39.366,95.275 43.501 C 89.017 46.518,85.145 48.961,79.917 53.191 C 67.109 63.552,58.138 77.766,54.176 93.974 C 52.751 99.805,52.254 104.419,51.634 117.547 C 50.648 138.436,46.550 152.241,37.116 166.458 C 35.289 169.212,33.441 172.485,33.010 173.733 C 31.916 176.897,31.936 182.832,33.052 186.240 C 34.875 191.805,39.737 196.822,45.284 198.859 C 47.948 199.838,48.354 199.860,66.453 200.007 C 82.850 200.140,84.907 200.231,84.907 200.824 C 84.907 202.126,87.944 210.545,89.257 212.882 C 92.587 218.811,98.218 224.994,103.429 228.442 C 128.147 244.798,161.164 233.112,169.986 204.885 C 170.595 202.937,171.093 201.076,171.093 200.749 C 171.093 200.254,174.146 200.132,189.547 200.010 C 207.223 199.869,208.103 199.824,210.453 198.941 C 220.946 194.999,226.147 184.516,222.937 173.783 C 222.571 172.559,220.823 169.404,219.035 166.743 C 212.684 157.285,208.534 147.180,206.367 135.893 C 204.960 128.568,204.429 123.318,203.951 112.000 C 203.428 99.641,202.428 94.210,198.972 84.957 C 189.992 60.910,168.577 42.700,143.222 37.551 C 139.480 36.791,129.159 35.746,126.933 35.902 C 126.464 35.935,124.122 36.112,121.729 36.296 M137.387 60.022 C 153.470 62.694,167.885 73.760,174.911 88.827 C 178.635 96.813,179.552 101.471,180.063 114.987 C 180.275 120.619,180.751 127.627,181.119 130.560 C 183.169 146.880,188.079 162.075,195.287 174.400 L 196.348 176.213 128.041 176.213 C 90.472 176.213,59.733 176.120,59.733 176.006 C 59.733 175.893,60.302 174.875,60.998 173.744 C 62.988 170.510,66.809 162.319,68.461 157.746 C 73.111 144.872,75.307 132.274,75.946 114.809 C 76.163 108.862,76.595 103.307,77.000 101.226 C 81.444 78.425,100.306 61.327,123.209 59.337 C 127.812 58.938,132.109 59.145,137.387 60.022 M145.399 201.879 C 143.950 204.520,139.951 208.368,137.341 209.632 C 134.436 211.040,130.526 212.053,128.000 212.053 C 125.474 212.053,121.564 211.040,118.659 209.632 C 116.049 208.368,112.050 204.520,110.601 201.879 L 109.628 200.107 128.000 200.107 L 146.372 200.107 145.399 201.879 " stroke="none" fill-rule="evenodd"></path></svg>