<svg fill="currentColor" viewBox="0 0 256 256" xmlns="http://www.w3.org/2000/svg"><path d="M117.760 20.706 C 93.166 23.780,71.662 37.102,57.996 57.731 C 48.610 71.899,43.947 87.812,43.947 105.672 C 43.947 116.561,42.476 130.398,40.259 140.373 C 38.579 147.933,36.139 154.850,32.431 162.560 C 28.454 170.832,27.984 172.480,28.261 177.183 C 28.723 185.026,33.542 191.888,40.450 194.538 C 44.227 195.987,48.400 196.260,66.872 196.263 L 84.037 196.267 84.216 197.227 C 86.344 208.613,89.622 215.393,96.403 222.437 C 102.247 228.507,109.004 232.479,117.333 234.739 C 120.434 235.580,121.981 235.723,128.000 235.723 C 134.019 235.723,135.566 235.580,138.667 234.739 C 147.066 232.460,153.859 228.449,159.677 222.336 C 166.464 215.204,169.706 208.485,171.774 197.263 L 171.945 196.340 191.679 196.179 C 210.943 196.023,211.479 195.996,214.164 195.043 C 222.644 192.036,227.840 184.800,227.840 176.000 C 227.840 171.979,227.140 169.796,223.410 162.179 C 219.885 154.980,217.680 148.737,215.881 140.854 C 213.550 130.645,212.053 116.887,212.053 105.672 C 212.053 74.317,196.887 47.359,170.356 31.555 C 154.981 22.397,135.832 18.447,117.760 20.706 M139.323 45.168 C 160.932 49.360,178.484 64.957,185.130 85.872 C 187.106 92.089,187.675 96.669,188.140 110.080 C 188.981 134.307,192.748 153.302,199.711 168.427 L 201.332 171.947 128.000 171.947 L 54.668 171.947 56.289 168.427 C 59.847 160.699,63.524 148.238,65.260 138.027 C 66.784 129.060,67.424 122.126,67.858 109.867 C 68.091 103.296,68.566 96.147,68.914 93.979 C 71.021 80.849,78.290 67.823,88.447 58.977 C 98.117 50.554,109.102 45.840,122.880 44.200 C 126.004 43.828,135.213 44.370,139.323 45.168 M147.172 197.643 C 145.123 204.788,138.698 210.393,131.054 211.703 C 121.520 213.338,111.513 207.007,108.828 197.643 L 108.433 196.267 128.000 196.267 L 147.567 196.267 147.172 197.643 " stroke="none" fill-rule="evenodd"></path></svg>