<svg fill="currentColor" viewBox="0 0 256 256" xmlns="http://www.w3.org/2000/svg"><path d="M122.667 44.394 C 110.839 46.249,100.358 54.162,95.337 65.028 L 93.841 68.267 53.427 68.271 L 13.013 68.275 10.880 69.285 C 1.682 73.641,1.912 86.728,11.261 90.960 L 13.440 91.947 38.121 92.067 L 62.802 92.187 58.977 95.787 C 47.490 106.601,37.602 122.335,32.862 137.342 L 31.731 140.925 28.985 141.858 C 17.572 145.738,8.930 154.574,5.595 165.775 C 4.309 170.095,3.853 174.815,4.283 179.348 C 4.750 184.277,5.943 188.189,8.464 193.067 C 10.087 196.207,11.227 197.684,14.718 201.173 C 19.442 205.895,23.148 208.274,28.613 210.093 C 42.087 214.578,56.594 210.884,66.367 200.480 C 70.282 196.311,72.477 192.523,74.491 186.453 C 75.610 183.081,75.694 182.347,75.694 176.000 C 75.694 169.678,75.606 168.905,74.503 165.547 C 71.659 156.887,65.890 149.521,58.626 145.272 L 55.995 143.734 56.829 141.520 C 59.397 134.701,63.768 126.978,68.462 120.967 C 75.008 112.584,87.339 102.757,95.690 99.268 L 97.214 98.631 98.390 100.409 C 101.260 104.745,106.692 109.482,111.651 111.972 C 122.267 117.303,133.733 117.303,144.349 111.972 C 149.308 109.482,154.740 104.745,157.610 100.409 L 158.786 98.631 160.310 99.268 C 168.661 102.757,180.992 112.584,187.538 120.967 C 192.232 126.978,196.603 134.701,199.171 141.520 L 200.005 143.734 197.176 145.360 C 193.190 147.653,187.467 153.434,185.009 157.653 C 183.915 159.531,182.408 162.891,181.660 165.120 C 180.356 169.007,180.300 169.454,180.303 176.000 C 180.305 182.343,180.391 183.083,181.509 186.453 C 183.718 193.109,186.582 197.707,191.222 202.047 C 196.481 206.966,201.962 209.827,208.852 211.249 C 229.537 215.519,249.745 200.530,251.701 179.466 C 253.265 162.629,243.271 147.385,227.051 141.870 L 224.343 140.949 222.751 136.288 C 217.423 120.687,208.260 106.293,196.875 95.641 L 193.183 92.187 217.872 92.067 L 242.560 91.947 244.739 90.960 C 254.088 86.728,254.318 73.641,245.120 69.285 L 242.987 68.275 202.573 68.271 L 162.159 68.267 160.663 65.028 C 158.003 59.271,153.485 53.903,148.341 50.388 C 145.418 48.391,139.801 45.869,136.438 45.043 C 132.907 44.177,126.100 43.856,122.667 44.394 M132.531 68.901 C 134.977 69.922,137.126 71.881,138.475 74.315 C 139.577 76.304,139.732 77.011,139.726 80.000 C 139.720 82.679,139.518 83.791,138.786 85.170 C 136.410 89.647,132.789 91.909,128.000 91.909 C 123.211 91.909,119.590 89.647,117.214 85.170 C 116.482 83.791,116.280 82.679,116.274 80.000 C 116.268 77.011,116.423 76.304,117.525 74.315 C 118.848 71.927,120.982 69.958,123.372 68.920 C 125.263 68.099,130.586 68.088,132.531 68.901 M45.013 165.273 C 49.422 167.335,51.823 171.134,51.794 176.000 C 51.772 179.581,51.041 181.452,48.653 184.043 C 43.112 190.055,33.738 188.966,29.538 181.822 C 28.503 180.060,28.373 179.414,28.373 176.000 C 28.373 172.586,28.503 171.940,29.538 170.178 C 31.865 166.220,35.257 164.288,39.893 164.280 C 42.140 164.276,43.409 164.522,45.013 165.273 M221.355 165.371 C 225.406 167.390,227.840 171.379,227.840 176.000 C 227.840 186.614,215.112 191.930,207.626 184.444 C 203.003 179.821,202.931 172.359,207.464 167.699 C 210.878 164.189,216.944 163.173,221.355 165.371 " stroke="none" fill-rule="evenodd"></path></svg>