<svg fill="currentColor" viewBox="0 0 256 256" xmlns="http://www.w3.org/2000/svg"><path d="M47.925 52.743 C 45.635 53.566,42.465 56.360,41.267 58.612 C 40.007 60.980,39.923 66.863,41.117 69.120 C 42.216 71.197,44.693 73.712,46.720 74.809 C 48.358 75.696,48.999 75.738,62.754 75.861 L 77.081 75.988 82.561 85.401 C 87.485 93.859,87.985 94.902,87.493 95.690 C 87.192 96.172,84.061 100.199,80.535 104.638 C 75.936 110.428,73.929 112.650,73.435 112.499 C 73.057 112.383,71.115 111.708,69.120 110.999 C 63.086 108.853,58.988 108.186,51.840 108.186 C 42.402 108.186,35.887 109.753,27.717 113.989 C 13.562 121.327,3.549 134.810,0.611 150.491 C -0.477 156.299,-0.060 168.255,1.413 173.478 C 5.542 188.117,14.922 199.707,28.090 206.440 C 35.827 210.396,43.178 212.158,52.053 212.184 C 62.369 212.213,72.099 209.236,81.120 203.289 C 85.400 200.467,92.293 193.478,95.342 188.869 C 100.748 180.695,104.107 169.575,104.107 159.853 C 104.107 150.508,100.421 138.811,94.964 130.842 C 93.891 129.274,93.013 127.890,93.013 127.766 C 93.013 127.334,100.759 117.760,101.108 117.760 C 101.301 117.760,105.444 124.585,110.315 132.928 C 120.031 149.570,120.944 150.741,125.262 152.099 C 134.081 154.873,143.062 146.131,140.243 137.516 C 139.874 136.389,136.008 129.345,131.653 121.863 C 127.297 114.381,123.733 108.189,123.733 108.103 C 123.733 108.017,131.845 107.951,141.760 107.956 L 159.787 107.966 163.914 115.093 L 168.042 122.219 165.796 124.790 C 158.919 132.660,155.108 140.245,152.928 150.400 C 151.929 155.058,151.929 164.942,152.928 169.600 C 157.566 191.210,172.814 206.509,194.265 211.075 C 198.626 212.003,208.809 212.100,213.120 211.254 C 237.585 206.454,254.897 186.549,255.881 162.089 C 256.932 135.980,238.672 113.319,212.907 108.753 C 207.870 107.860,198.177 108.083,193.134 109.207 C 190.824 109.722,188.875 110.081,188.803 110.005 C 188.709 109.906,174.031 84.780,169.083 76.248 C 168.975 76.062,174.488 75.966,181.334 76.035 L 193.782 76.160 194.745 77.281 C 195.346 77.980,195.806 79.224,195.968 80.587 C 197.212 91.099,209.019 95.643,216.400 88.451 C 218.816 86.098,219.933 83.196,219.900 79.360 C 219.814 69.316,213.649 59.521,204.651 55.135 C 198.590 52.181,199.946 52.305,172.015 52.153 C 143.114 51.996,143.726 51.936,140.019 55.269 C 136.525 58.411,135.198 63.452,136.727 67.784 C 137.068 68.750,139.180 72.701,141.420 76.563 C 143.660 80.426,145.493 83.693,145.493 83.824 C 145.493 83.955,137.396 84.013,127.499 83.951 L 109.505 83.840 101.579 70.318 C 97.220 62.880,93.173 56.285,92.587 55.662 C 92.000 55.039,90.560 54.020,89.387 53.398 L 87.253 52.267 68.480 52.185 C 52.721 52.116,49.421 52.206,47.925 52.743 M57.507 132.627 C 57.901 132.877,55.746 135.897,49.805 143.422 C 45.268 149.168,41.277 154.529,40.938 155.335 C 39.957 157.661,40.137 163.236,41.261 165.362 C 42.288 167.305,44.889 169.823,46.995 170.912 C 49.129 172.015,53.218 172.195,55.903 171.304 C 58.928 170.299,60.898 168.262,69.841 156.889 L 77.152 147.591 78.071 150.048 C 79.350 153.465,79.787 156.100,79.787 160.395 C 79.787 164.928,79.008 168.132,76.817 172.608 C 71.802 182.857,60.078 189.266,49.058 187.783 C 41.898 186.819,37.223 184.507,32.209 179.448 C 26.670 173.859,24.184 167.833,24.184 160.000 C 24.184 152.033,26.661 146.123,32.417 140.358 C 36.298 136.471,40.055 134.224,44.800 132.952 C 47.333 132.273,56.577 132.037,57.507 132.627 M210.006 132.729 C 211.249 132.984,214.091 134.064,216.320 135.129 C 223.589 138.604,229.041 145.268,231.081 153.173 C 232.479 158.587,231.844 166.213,229.567 171.361 C 224.669 182.432,212.090 189.555,200.588 187.771 C 188.778 185.938,179.700 177.851,176.858 166.630 C 176.102 163.647,176.014 157.160,176.685 153.941 C 177.199 151.475,180.208 144.640,180.779 144.640 C 180.974 144.640,183.998 149.584,187.500 155.627 C 194.381 167.504,196.083 169.661,199.489 170.822 C 202.251 171.763,206.264 171.708,208.485 170.700 C 213.859 168.259,216.983 161.827,215.350 156.564 C 215.019 155.495,211.906 149.735,208.433 143.764 C 204.960 137.792,202.038 132.763,201.941 132.587 C 201.671 132.102,207.438 132.204,210.006 132.729 " stroke="none" fill-rule="evenodd"></path></svg>