<svg fill="currentColor" viewBox="0 0 256 256" xmlns="http://www.w3.org/2000/svg"><path d="M82.987 36.305 C 75.387 37.108,67.678 40.710,62.525 45.867 L 59.540 48.853 38.276 97.280 C 14.737 150.884,14.804 150.728,13.862 154.284 C 12.845 158.124,11.952 164.549,11.949 168.052 C 11.946 172.630,13.086 179.582,14.574 184.050 C 20.642 202.272,35.055 215.031,54.204 219.134 C 58.545 220.064,68.730 220.182,72.960 219.351 C 91.919 215.626,107.126 202.547,113.191 184.747 C 115.882 176.849,115.776 178.663,115.939 137.707 L 116.088 100.267 128.017 100.267 L 139.947 100.267 139.949 135.787 C 139.952 173.618,140.025 175.212,142.090 182.613 C 143.272 186.847,146.599 193.765,149.412 197.835 C 156.906 208.678,169.399 216.671,183.040 219.351 C 187.270 220.182,197.455 220.064,201.796 219.134 C 225.813 213.988,242.450 194.834,243.924 170.633 C 244.476 161.570,242.718 154.221,236.786 140.800 C 234.452 135.520,224.403 112.672,214.455 90.027 C 200.296 57.799,196.020 48.454,194.773 47.016 C 191.587 43.344,184.852 39.203,179.409 37.570 C 173.382 35.762,164.538 35.762,158.511 37.570 C 153.013 39.219,146.090 43.538,142.819 47.360 C 140.216 50.401,139.947 52.024,139.947 64.689 L 139.947 75.947 128.000 75.947 L 116.053 75.947 116.053 64.689 C 116.053 55.273,115.935 53.065,115.330 51.192 C 113.286 44.863,101.782 37.509,92.358 36.507 C 87.318 35.971,86.349 35.950,82.987 36.305 M90.816 60.628 L 92.160 61.097 92.160 92.628 C 92.160 109.971,92.097 124.160,92.019 124.160 C 91.942 124.160,90.400 123.317,88.593 122.288 C 81.232 118.092,71.159 115.805,61.760 116.193 C 58.768 116.317,56.320 116.348,56.320 116.263 C 56.320 116.178,61.672 103.956,68.214 89.102 L 80.108 62.095 82.188 61.133 C 84.501 60.063,88.519 59.828,90.816 60.628 M174.263 61.310 C 175.935 62.174,175.979 62.267,187.810 89.188 C 194.339 104.043,199.680 116.247,199.680 116.308 C 199.680 116.368,197.232 116.317,194.240 116.193 C 184.864 115.805,175.335 117.958,167.360 122.264 L 163.840 124.164 163.840 92.624 L 163.840 61.084 165.013 60.630 C 166.884 59.907,172.321 60.306,174.263 61.310 M70.816 140.867 C 73.829 141.580,79.355 144.392,81.734 146.423 C 88.380 152.095,91.733 159.249,91.733 167.757 C 91.733 173.228,91.196 175.619,88.881 180.442 C 84.311 189.965,74.817 195.840,64.000 195.840 C 56.259 195.840,49.810 193.175,44.310 187.704 C 41.646 185.055,40.692 183.720,39.119 180.442 C 36.804 175.619,36.267 173.228,36.267 167.757 C 36.267 153.942,46.099 142.528,59.876 140.349 C 62.440 139.944,68.037 140.208,70.816 140.867 M198.816 140.867 C 201.829 141.580,207.355 144.392,209.734 146.423 C 216.380 152.095,219.733 159.249,219.733 167.757 C 219.733 173.228,219.196 175.619,216.881 180.442 C 212.311 189.965,202.817 195.840,192.000 195.840 C 184.259 195.840,177.810 193.175,172.310 187.704 C 169.646 185.055,168.692 183.720,167.119 180.442 C 164.804 175.619,164.267 173.228,164.267 167.757 C 164.267 153.942,174.099 142.528,187.876 140.349 C 190.440 139.944,196.037 140.208,198.816 140.867 " stroke="none" fill-rule="evenodd"></path></svg>