<svg fill="currentColor" viewBox="0 0 256 256" xmlns="http://www.w3.org/2000/svg"><path d="M66.047 28.984 C 64.709 29.412,62.789 30.248,61.780 30.842 C 59.307 32.298,55.801 35.902,54.459 38.367 C 51.905 43.060,52.053 37.054,52.053 135.694 C 52.053 237.987,51.696 228.392,55.652 232.348 C 59.119 235.814,63.774 236.860,68.155 235.157 C 69.273 234.723,83.116 226.275,98.919 216.384 C 114.721 206.493,127.808 198.400,128.000 198.400 C 128.192 198.400,141.279 206.493,157.081 216.384 C 172.884 226.275,186.727 234.723,187.845 235.157 C 192.226 236.860,196.881 235.814,200.348 232.348 C 204.304 228.392,203.947 237.987,203.947 135.694 C 203.947 37.002,204.097 43.064,201.528 38.343 C 200.256 36.006,196.704 32.335,194.287 30.859 C 193.381 30.306,191.420 29.473,189.928 29.007 C 187.277 28.179,185.904 28.161,127.848 28.183 C 71.609 28.205,68.352 28.247,66.047 28.984 M180.053 127.162 C 180.053 199.119,180.021 202.253,179.292 201.862 C 178.873 201.638,168.649 195.275,156.572 187.723 C 144.495 180.170,133.845 173.589,132.907 173.098 C 130.509 171.843,125.491 171.843,123.093 173.098 C 122.155 173.589,111.505 180.170,99.428 187.723 C 87.351 195.275,77.127 201.638,76.708 201.862 C 75.979 202.253,75.947 199.119,75.947 127.162 L 75.947 52.053 128.000 52.053 L 180.053 52.053 180.053 127.162 " stroke="none" fill-rule="evenodd"></path></svg>