<svg fill="currentColor" viewBox="0 0 256 256" xmlns="http://www.w3.org/2000/svg"><path d="M82.133 20.347 C 70.281 21.883,59.245 27.268,51.113 35.482 C 42.305 44.380,37.479 55.022,36.049 68.702 C 35.809 70.997,35.748 71.089,33.704 72.238 C 30.024 74.307,24.640 78.543,21.120 82.138 C 12.834 90.603,7.666 100.511,5.008 113.031 C 3.750 118.955,3.785 129.087,5.085 135.253 C 8.685 152.343,18.513 166.547,32.695 175.160 C 35.449 176.832,35.645 177.054,35.924 178.817 C 36.088 179.849,36.513 182.522,36.868 184.756 C 40.342 206.603,58.388 224.185,80.682 227.445 C 86.044 228.229,95.317 227.748,100.361 226.424 C 109.876 223.927,116.635 220.195,123.571 213.608 L 128.000 209.403 132.429 213.608 C 139.365 220.195,146.124 223.927,155.639 226.424 C 160.683 227.748,169.956 228.229,175.318 227.445 C 189.446 225.379,202.666 217.203,210.653 205.591 C 216.047 197.747,218.600 190.480,219.975 179.055 C 220.185 177.316,220.428 176.879,221.521 176.282 C 225.110 174.322,230.636 170.004,234.493 166.146 C 245.755 154.881,251.813 140.305,251.853 124.373 C 251.887 110.521,247.777 98.263,239.405 87.253 C 235.326 81.890,227.947 75.415,222.289 72.234 C 220.341 71.139,220.165 70.904,219.954 69.125 C 219.161 62.422,218.666 59.901,217.384 56.042 C 212.210 40.465,201.157 29.029,185.600 23.155 C 178.839 20.602,169.162 19.494,161.920 20.442 C 150.366 21.955,140.586 26.584,132.219 34.497 L 128.000 38.487 123.781 34.497 C 115.562 26.723,105.713 22.003,94.582 20.503 C 91.401 20.074,84.869 19.993,82.133 20.347 M95.210 45.030 C 104.515 47.441,112.136 54.989,115.038 64.667 C 115.731 66.980,115.810 70.032,115.943 99.740 L 116.088 132.280 113.939 130.958 C 112.757 130.230,109.917 128.846,107.628 127.882 C 103.962 126.337,103.061 126.126,100.053 126.104 C 97.000 126.083,96.392 126.220,94.293 127.404 C 91.415 129.027,89.403 131.558,88.488 134.706 C 87.638 137.629,87.914 140.164,89.417 143.242 C 90.861 146.201,93.210 148.126,97.110 149.549 C 105.526 152.618,111.645 158.885,114.607 167.471 C 115.639 170.463,115.782 171.506,115.773 176.000 C 115.765 180.391,115.600 181.619,114.615 184.625 C 112.344 191.553,106.937 197.816,100.480 200.999 C 85.338 208.464,67.599 201.217,61.479 185.067 L 61.034 183.893 67.561 183.893 C 75.649 183.893,77.329 183.420,80.502 180.247 C 82.221 178.528,82.878 177.477,83.437 175.555 C 85.091 169.865,82.795 164.346,77.582 161.485 C 75.341 160.255,75.176 160.232,66.560 159.944 C 57.070 159.628,54.364 159.116,48.780 156.584 C 43.221 154.064,37.302 148.872,33.786 143.431 C 24.881 129.653,26.604 111.168,37.901 99.295 C 41.233 95.794,44.702 93.413,50.402 90.716 C 55.749 88.186,57.458 86.723,58.934 83.413 C 59.748 81.589,59.929 80.199,60.188 73.813 C 60.395 68.726,60.723 65.599,61.220 64.000 C 63.874 55.453,71.033 48.107,79.312 45.435 C 84.257 43.838,90.043 43.691,95.210 45.030 M176.113 45.280 C 184.798 47.925,192.044 55.192,194.780 64.000 C 195.277 65.599,195.605 68.726,195.812 73.813 C 196.276 85.256,197.124 86.609,206.807 91.345 C 212.125 93.947,213.310 94.728,216.485 97.734 C 224.385 105.212,227.987 113.598,227.928 124.373 C 227.850 138.330,220.544 150.000,207.917 156.337 C 202.445 159.083,199.640 159.638,189.653 159.949 C 180.780 160.226,180.671 160.241,178.418 161.481 C 171.558 165.258,169.886 174.005,174.930 179.735 C 177.904 183.114,179.551 183.646,187.811 183.893 L 194.928 184.107 194.027 186.240 C 192.083 190.846,188.377 195.609,184.260 198.796 C 182.243 200.358,177.013 202.620,173.734 203.350 C 169.627 204.264,163.515 203.966,159.573 202.662 C 146.588 198.362,138.497 185.652,140.344 172.451 C 141.853 161.663,148.706 153.250,159.038 149.501 C 164.735 147.434,168.107 143.078,168.107 137.785 C 168.107 132.980,164.404 127.854,159.986 126.542 C 155.549 125.224,152.268 125.887,144.658 129.638 C 142.438 130.732,140.462 131.693,140.267 131.775 C 140.071 131.856,139.977 117.360,140.057 99.561 C 140.190 70.028,140.269 66.979,140.962 64.667 C 144.268 53.638,152.998 46.050,164.480 44.225 C 166.927 43.836,173.256 44.410,176.113 45.280 M83.765 72.805 C 81.345 73.663,78.356 76.387,77.188 78.800 C 76.404 80.420,76.169 81.852,75.927 86.482 C 75.656 91.690,75.516 92.405,74.285 94.906 C 72.583 98.365,69.163 101.577,65.874 102.807 C 64.560 103.299,61.919 103.860,60.004 104.054 C 55.041 104.557,51.701 106.425,49.719 109.807 C 45.940 116.256,48.823 124.469,55.803 127.138 C 63.065 129.914,77.398 125.745,86.075 118.332 C 91.616 113.599,96.264 106.353,98.324 99.240 C 99.698 94.496,100.462 86.431,99.880 82.818 C 99.112 78.047,96.918 75.026,92.844 73.129 C 90.294 71.942,86.576 71.809,83.765 72.805 M163.156 73.129 C 160.591 74.323,158.350 76.442,157.200 78.761 C 156.516 80.140,156.351 81.528,156.246 86.827 C 156.132 92.511,156.238 93.704,157.192 97.493 C 160.550 110.830,170.647 121.807,183.280 125.853 C 196.830 130.194,205.270 127.735,207.565 118.776 C 209.496 111.241,204.545 104.920,196.038 104.058 C 194.100 103.862,191.440 103.299,190.126 102.807 C 186.837 101.577,183.417 98.365,181.715 94.906 C 180.484 92.405,180.344 91.690,180.073 86.482 C 179.725 79.817,178.999 77.822,175.941 75.130 C 172.397 72.011,167.278 71.209,163.156 73.129 " stroke="none" fill-rule="evenodd"></path></svg>