<svg fill="currentColor" viewBox="0 0 256 256" xmlns="http://www.w3.org/2000/svg"><path d="M50.188 28.786 C 46.271 30.182,43.231 34.052,38.442 43.733 C 33.556 53.613,30.238 64.520,28.775 75.507 C 27.979 81.482,27.994 94.237,28.805 100.565 C 32.622 130.382,50.193 157.508,75.947 173.341 C 86.340 179.731,100.352 184.859,112.960 186.886 L 116.053 187.384 116.053 199.699 L 116.053 212.014 100.373 212.140 L 84.693 212.267 82.560 213.400 C 78.241 215.695,76.179 219.121,76.181 224.000 C 76.182 227.860,77.457 230.715,80.246 233.102 C 83.740 236.093,81.282 235.947,128.000 235.947 C 174.718 235.947,172.260 236.093,175.754 233.102 C 178.543 230.715,179.818 227.860,179.819 224.000 C 179.821 219.121,177.759 215.695,173.440 213.400 L 171.307 212.267 155.627 212.140 L 139.947 212.014 139.947 199.699 L 139.947 187.384 143.040 186.886 C 152.662 185.339,162.347 182.300,171.093 178.085 C 178.059 174.727,181.770 172.480,187.947 167.876 C 209.349 151.923,223.791 127.154,227.195 100.565 C 228.032 94.029,228.028 81.710,227.188 75.222 C 225.450 61.815,220.734 48.181,213.864 36.706 C 211.379 32.555,209.367 30.435,206.720 29.180 L 204.587 28.168 128.213 28.183 C 64.377 28.195,51.569 28.294,50.188 28.786 M196.908 56.000 C 199.226 60.898,201.157 66.613,202.234 71.760 C 202.688 73.925,203.002 75.754,202.932 75.823 C 202.863 75.892,169.108 75.901,127.921 75.841 L 53.036 75.733 53.820 71.893 C 54.775 67.220,57.099 60.314,59.314 55.573 L 60.958 52.053 127.999 52.053 L 195.041 52.053 196.908 56.000 M202.197 104.000 C 200.870 110.108,198.945 115.481,195.817 121.813 C 191.865 129.812,188.283 134.729,181.347 141.677 C 170.408 152.634,158.160 159.242,142.507 162.631 C 138.561 163.485,136.830 163.600,128.000 163.600 C 119.151 163.600,117.449 163.486,113.511 162.627 C 106.417 161.080,100.103 158.845,93.882 155.678 C 78.874 148.039,67.271 136.319,59.953 121.409 C 56.800 114.984,53.333 104.233,53.333 100.879 C 53.333 100.349,63.449 100.267,128.171 100.267 L 203.009 100.267 202.197 104.000 " stroke="none" fill-rule="evenodd"></path></svg>