<svg fill="currentColor" viewBox="0 0 256 256" xmlns="http://www.w3.org/2000/svg"><path d="M61.155 44.331 C 59.044 44.873,56.083 46.779,54.648 48.519 C 52.879 50.666,52.177 53.144,51.854 58.390 C 51.359 66.415,49.838 72.295,46.484 79.147 C 41.328 89.678,32.668 98.046,21.446 103.340 C 16.226 105.802,14.126 107.701,12.849 111.114 C 11.234 115.431,11.987 119.645,14.983 123.049 C 17.919 126.384,22.073 127.891,26.193 127.113 C 30.891 126.227,43.594 118.943,49.135 113.959 C 50.463 112.764,51.663 111.787,51.802 111.787 C 51.940 111.787,52.053 121.762,52.053 133.954 L 52.053 156.121 36.160 156.247 C 20.707 156.370,20.218 156.399,18.505 157.315 C 14.734 159.333,11.947 163.945,11.947 168.168 C 11.947 172.680,15.389 177.498,19.789 179.144 C 22.098 180.008,22.959 180.053,37.136 180.053 L 52.053 180.053 52.053 191.071 C 52.053 203.440,52.264 204.677,54.898 207.754 C 57.286 210.544,60.140 211.819,64.000 211.819 C 67.860 211.819,70.714 210.544,73.102 207.754 C 75.736 204.677,75.947 203.440,75.947 191.071 L 75.947 180.053 128.000 180.053 L 180.053 180.053 180.053 191.071 C 180.053 203.440,180.264 204.677,182.898 207.754 C 185.286 210.544,188.140 211.819,192.000 211.819 C 195.860 211.819,198.714 210.544,201.102 207.754 C 203.736 204.677,203.947 203.440,203.947 191.071 L 203.947 180.053 218.864 180.053 C 233.041 180.053,233.902 180.008,236.211 179.144 C 240.611 177.498,244.053 172.680,244.053 168.168 C 244.053 163.945,241.266 159.333,237.495 157.315 C 235.782 156.399,235.293 156.370,219.840 156.247 L 203.947 156.121 203.947 133.929 C 203.947 116.286,204.056 111.803,204.480 112.061 C 204.773 112.239,206.247 113.429,207.755 114.705 C 213.703 119.737,224.831 126.042,229.683 127.129 C 235.312 128.391,241.808 124.413,243.473 118.686 C 244.664 114.588,243.507 109.989,240.538 107.020 C 239.718 106.200,237.022 104.552,234.547 103.358 C 228.445 100.414,224.577 97.787,220.174 93.597 C 210.399 84.295,205.017 72.489,204.150 58.448 C 203.998 55.987,203.596 53.088,203.256 52.007 C 202.442 49.416,200.307 46.986,197.486 45.439 C 195.531 44.367,194.737 44.185,192.000 44.185 C 189.263 44.185,188.469 44.367,186.514 45.439 C 183.693 46.986,181.558 49.416,180.744 52.007 C 180.404 53.088,180.002 55.987,179.850 58.448 C 179.345 66.632,177.697 72.879,174.276 79.584 C 159.633 108.280,122.459 116.902,96.832 97.546 C 84.271 88.060,77.147 74.590,76.150 58.448 C 75.816 53.035,75.098 50.578,73.205 48.366 C 70.402 45.091,65.105 43.317,61.155 44.331 M180.053 133.760 L 180.053 156.160 172.160 156.160 L 164.267 156.160 164.272 139.413 L 164.277 122.667 166.725 121.321 C 169.533 119.778,177.205 114.130,178.741 112.474 C 179.310 111.861,179.838 111.360,179.914 111.360 C 179.991 111.360,180.053 121.440,180.053 133.760 M79.053 114.028 C 82.431 116.882,86.573 119.818,89.707 121.581 L 92.160 122.961 92.160 139.561 L 92.160 156.160 84.053 156.160 L 75.947 156.160 75.947 133.973 C 75.947 121.771,76.048 111.787,76.173 111.787 C 76.297 111.787,77.593 112.795,79.053 114.028 M128.000 131.627 C 133.045 131.627,137.797 131.487,138.560 131.317 L 139.947 131.008 139.947 143.584 L 139.947 156.160 128.000 156.160 L 116.053 156.160 116.053 143.584 L 116.053 131.008 117.440 131.317 C 118.203 131.487,122.955 131.627,128.000 131.627 " stroke="none" fill-rule="evenodd"></path></svg>