<svg fill="currentColor" viewBox="0 0 256 256" xmlns="http://www.w3.org/2000/svg"><path d="M149.547 4.712 C 146.713 5.297,142.966 6.736,139.989 8.382 C 136.324 10.408,129.975 16.773,128.135 20.267 C 127.393 21.675,121.990 34.943,116.129 49.752 C 110.268 64.561,105.171 77.260,104.802 77.972 C 103.896 79.725,101.996 80.370,99.918 79.630 C 99.054 79.322,92.587 76.739,85.547 73.890 C 76.581 70.262,71.916 68.596,69.973 68.330 C 63.768 67.479,58.010 69.339,53.273 73.725 C 49.446 77.268,42.335 85.951,38.208 92.122 C 17.610 122.917,14.302 161.439,29.181 197.263 C 33.987 208.837,42.222 221.565,50.596 230.365 C 56.584 236.657,44.378 235.947,146.500 235.947 C 243.708 235.947,236.162 236.177,239.754 233.102 C 243.248 230.111,244.724 225.244,243.457 220.887 C 242.513 217.639,240.528 215.230,237.227 213.322 C 230.247 209.290,227.014 206.928,222.932 202.880 C 217.803 197.794,215.255 194.292,211.967 187.811 C 205.895 175.842,203.957 165.024,203.936 142.978 C 203.930 136.969,203.732 131.211,203.494 130.181 C 202.332 125.139,198.284 119.802,193.831 117.441 C 192.472 116.720,185.696 113.899,178.773 111.172 C 171.190 108.185,165.788 105.817,165.184 105.215 C 164.522 104.555,164.184 103.726,164.188 102.774 C 164.193 101.895,168.358 91.001,174.880 74.814 C 180.756 60.228,185.943 47.169,186.406 45.794 C 192.151 28.739,181.618 9.612,164.001 5.107 C 160.520 4.216,152.950 4.010,149.547 4.712 M159.566 29.009 C 162.119 30.312,163.545 32.471,163.753 35.353 C 163.922 37.687,163.534 38.750,152.358 66.565 C 142.025 92.282,140.735 95.759,140.290 99.089 C 139.249 106.893,141.841 115.200,147.228 121.318 C 150.831 125.410,154.028 127.175,167.520 132.519 L 180.053 137.484 180.053 146.182 C 180.053 150.966,179.909 154.882,179.733 154.885 C 179.557 154.888,152.017 143.917,118.532 130.505 L 57.650 106.119 59.359 103.604 C 61.609 100.289,67.314 93.451,68.070 93.161 C 68.398 93.035,73.521 94.904,79.453 97.314 C 94.878 103.580,95.692 103.823,101.333 103.849 C 106.770 103.874,110.588 102.918,115.200 100.375 C 119.017 98.271,123.991 93.188,125.952 89.387 C 126.800 87.744,132.227 74.400,138.013 59.733 C 143.798 45.067,148.985 32.374,149.538 31.529 C 151.539 28.468,156.206 27.295,159.566 29.009 M116.291 155.481 L 184.155 182.633 185.081 185.782 C 187.114 192.690,191.427 201.518,196.111 208.354 C 197.370 210.191,198.400 211.775,198.400 211.874 C 198.400 211.973,179.990 212.053,157.489 212.053 L 116.578 212.053 113.681 208.747 C 105.168 199.030,99.939 189.729,95.895 177.113 C 93.937 171.004,93.426 169.866,91.853 168.105 C 86.418 162.022,76.164 163.213,72.483 170.354 C 70.912 173.402,70.712 175.974,71.727 180.034 C 74.144 189.695,78.812 200.499,84.870 210.453 L 85.844 212.053 76.063 212.053 L 66.282 212.053 64.123 209.387 C 47.705 189.109,40.547 160.353,45.670 135.253 C 46.857 129.438,47.343 127.901,47.923 128.131 C 48.200 128.240,78.965 140.548,116.291 155.481 " stroke="none" fill-rule="evenodd"></path></svg>