<svg fill="currentColor" viewBox="0 0 256 256" xmlns="http://www.w3.org/2000/svg"><path d="M70.827 32.774 C 63.486 34.693,57.722 40.916,56.356 48.398 C 56.101 49.791,55.893 55.695,55.893 61.518 L 55.893 72.107 44.676 72.107 C 32.438 72.107,30.333 72.389,26.294 74.574 C 21.187 77.337,17.188 83.139,16.232 89.173 C 15.647 92.870,15.639 202.560,16.224 206.720 C 17.370 214.868,23.923 221.861,32.000 223.556 C 33.736 223.921,53.882 224.015,109.440 223.918 L 184.533 223.787 186.976 222.800 C 192.413 220.604,196.693 216.263,198.771 210.835 C 199.823 208.085,199.861 207.638,200.016 195.947 L 200.176 183.893 211.616 183.893 C 224.714 183.893,226.516 183.576,231.211 180.440 C 235.838 177.351,238.943 172.331,239.767 166.613 C 240.343 162.608,240.352 53.375,239.776 49.280 C 238.624 41.087,232.218 34.251,224.000 32.443 C 222.772 32.173,195.310 32.026,147.840 32.035 C 79.385 32.048,73.384 32.106,70.827 32.774 M215.893 107.947 L 215.893 160.000 208.000 160.000 L 200.107 160.000 200.107 125.248 C 200.107 101.525,199.957 89.778,199.635 88.234 C 198.075 80.753,192.320 74.657,184.960 72.688 C 183.235 72.226,172.998 72.116,131.520 72.112 L 80.213 72.107 80.213 64.000 L 80.213 55.893 148.053 55.893 L 215.893 55.893 215.893 107.947 M175.787 104.107 L 175.787 112.213 107.947 112.213 L 40.107 112.213 40.107 104.107 L 40.107 96.000 107.947 96.000 L 175.787 96.000 175.787 104.107 M175.787 168.107 L 175.787 200.107 107.947 200.107 L 40.107 200.107 40.107 168.107 L 40.107 136.107 107.947 136.107 L 175.787 136.107 175.787 168.107 " stroke="none" fill-rule="evenodd"></path></svg>