<svg fill="currentColor" viewBox="0 0 256 256" xmlns="http://www.w3.org/2000/svg"><path d="M52.141 12.729 C 45.871 14.967,42.561 21.562,44.588 27.781 C 45.246 29.798,46.150 30.901,51.962 36.778 C 58.106 42.989,58.544 43.535,57.987 44.301 C 57.657 44.755,56.174 46.691,54.691 48.603 C 45.515 60.436,39.409 75.055,36.817 91.396 C 36.140 95.664,36.053 99.374,36.053 123.947 C 36.053 154.420,36.136 155.683,38.820 166.458 C 46.870 198.778,72.121 224.313,104.533 232.915 C 113.419 235.273,116.992 235.697,128.000 235.697 C 139.008 235.697,142.581 235.273,151.467 232.915 C 183.872 224.315,209.132 198.770,217.180 166.458 C 219.864 155.683,219.947 154.420,219.947 123.947 C 219.947 99.374,219.860 95.664,219.183 91.396 C 216.591 75.055,210.485 60.436,201.309 48.603 C 199.826 46.691,198.345 44.758,198.017 44.308 C 197.467 43.550,197.924 42.980,204.052 36.776 C 210.015 30.740,210.751 29.832,211.367 27.755 C 212.274 24.704,212.233 22.698,211.209 19.963 C 208.916 13.839,202.741 10.748,196.452 12.576 C 194.093 13.262,193.492 13.748,186.676 20.489 L 179.413 27.671 176.640 25.971 C 168.825 21.180,159.380 17.136,150.929 14.963 C 142.917 12.902,137.260 12.227,128.000 12.227 C 118.740 12.227,113.083 12.902,105.071 14.963 C 96.612 17.138,87.137 21.196,79.360 25.974 L 76.587 27.678 69.547 20.708 C 64.941 16.148,61.922 13.496,60.816 13.039 C 58.105 11.920,54.745 11.799,52.141 12.729 M142.933 37.680 C 174.033 45.112,195.821 72.074,195.837 103.147 L 195.840 107.947 128.000 107.947 L 60.160 107.947 60.163 103.147 C 60.171 86.465,66.685 70.206,78.419 57.576 C 87.737 47.546,100.471 40.344,113.758 37.589 C 119.873 36.322,119.723 36.332,129.493 36.477 C 137.293 36.592,139.033 36.748,142.933 37.680 M96.313 64.437 C 90.935 65.795,86.693 69.687,84.895 74.913 C 82.690 81.322,85.096 88.967,90.550 92.884 C 98.845 98.841,110.294 95.715,114.683 86.294 C 115.657 84.204,115.827 83.270,115.827 80.000 C 115.827 76.736,115.656 75.794,114.690 73.720 C 112.106 68.176,106.866 64.512,101.075 64.201 C 99.340 64.108,97.197 64.214,96.313 64.437 M151.863 64.556 C 147.410 65.819,143.346 69.353,141.302 73.739 C 140.345 75.792,140.173 76.743,140.173 80.000 C 140.173 83.270,140.343 84.204,141.317 86.294 C 147.537 99.644,166.359 98.882,171.105 85.087 C 173.204 78.985,171.122 71.644,166.173 67.702 C 162.326 64.638,156.268 63.306,151.863 64.556 M195.721 142.827 C 195.545 151.498,195.342 154.150,194.581 157.653 C 191.814 170.401,186.005 181.456,177.222 190.694 C 156.234 212.767,123.803 218.268,96.834 204.328 C 81.455 196.379,69.025 181.934,63.614 165.722 C 61.051 158.041,60.512 154.345,60.279 142.827 L 60.065 132.267 128.000 132.267 L 195.935 132.267 195.721 142.827 " stroke="none" fill-rule="evenodd"></path></svg>