<svg fill="currentColor" viewBox="0 0 256 256" xmlns="http://www.w3.org/2000/svg"><path d="M148.240 12.384 C 147.286 12.573,145.366 13.200,143.973 13.778 C 142.000 14.595,53.157 56.030,39.982 62.278 C 36.662 63.852,32.471 67.524,30.864 70.266 C 30.261 71.295,29.406 73.299,28.964 74.720 C 28.192 77.201,28.160 79.800,28.160 140.583 L 28.160 203.864 20.587 204.012 C 13.751 204.146,12.822 204.254,11.051 205.127 C 6.671 207.285,4.085 211.290,4.100 215.890 C 4.122 222.158,8.162 226.787,14.507 227.812 C 18.378 228.438,237.622 228.438,241.493 227.812 C 244.646 227.303,247.263 225.937,248.983 223.902 C 254.194 217.736,252.258 208.725,244.949 205.128 C 243.188 204.261,242.233 204.147,235.640 204.013 L 228.294 203.863 228.174 148.331 C 228.053 92.820,228.053 92.799,227.138 90.134 C 224.753 83.185,219.360 78.235,212.382 76.590 C 210.235 76.084,205.977 75.958,190.827 75.953 L 171.947 75.947 171.947 52.783 C 171.947 27.674,171.906 27.165,169.554 22.522 C 168.157 19.767,164.334 15.948,161.400 14.379 C 157.627 12.361,152.371 11.564,148.240 12.384 M148.053 121.173 L 148.053 203.947 100.053 203.947 L 52.053 203.947 52.069 143.467 L 52.086 82.987 99.749 60.739 C 125.965 48.503,147.557 38.471,147.733 38.446 C 147.909 38.421,148.053 75.648,148.053 121.173 M74.880 101.285 C 72.245 102.533,70.319 104.517,69.035 107.307 C 68.112 109.313,68.053 109.961,68.053 118.187 C 68.053 126.499,68.103 127.033,69.051 128.941 C 70.215 131.281,73.192 134.173,75.439 135.147 C 77.513 136.045,82.487 136.045,84.561 135.147 C 86.808 134.173,89.785 131.281,90.949 128.941 C 91.897 127.033,91.947 126.499,91.947 118.187 C 91.947 109.961,91.888 109.313,90.965 107.307 C 88.846 102.703,85.060 100.275,80.000 100.275 C 77.744 100.275,76.492 100.522,74.880 101.285 M114.987 101.251 C 112.347 102.513,110.253 104.578,109.066 107.093 C 108.232 108.861,108.160 109.726,108.160 117.973 C 108.160 128.116,108.446 129.324,111.588 132.466 C 116.375 137.253,124.423 137.034,128.847 131.996 C 131.736 128.705,132.034 127.435,132.043 118.400 C 132.048 113.037,131.866 109.686,131.507 108.498 C 130.755 106.013,128.574 103.300,126.099 101.769 C 124.304 100.659,123.537 100.463,120.567 100.356 C 117.651 100.251,116.791 100.389,114.987 101.251 M203.947 152.107 L 203.947 203.947 187.947 203.947 L 171.947 203.947 171.947 152.107 L 171.947 100.267 187.947 100.267 L 203.947 100.267 203.947 152.107 M77.653 152.298 C 73.957 153.118,70.753 155.636,69.051 159.059 C 68.105 160.962,68.053 161.511,68.053 169.600 C 68.053 179.353,68.421 180.985,71.330 184.140 C 77.225 190.535,87.980 188.418,91.134 180.242 C 91.838 178.415,91.945 176.992,91.933 169.600 C 91.918 160.058,91.746 159.300,88.871 156.117 C 86.100 153.051,81.430 151.461,77.653 152.298 M117.140 152.354 C 114.614 152.976,111.558 155.130,110.120 157.300 C 108.213 160.179,107.847 162.614,108.014 171.307 C 108.144 178.042,108.273 179.223,109.063 180.907 C 112.477 188.180,121.746 190.185,127.902 184.983 C 131.421 182.008,132.504 177.596,132.158 167.643 C 131.915 160.633,131.383 158.825,128.685 155.839 C 126.068 152.943,120.982 151.408,117.140 152.354 " stroke="none" fill-rule="evenodd"></path></svg>