<svg fill="currentColor" viewBox="0 0 256 256" xmlns="http://www.w3.org/2000/svg"><path d="M64.213 28.861 C 62.571 29.208,59.786 30.111,58.025 30.867 C 47.506 35.384,40.034 44.134,37.018 55.467 L 36.053 59.093 36.053 135.467 L 36.053 211.840 37.015 214.366 C 39.508 220.912,44.126 225.312,50.560 227.273 C 52.853 227.972,54.857 228.053,69.760 228.053 C 84.695 228.053,86.696 227.972,89.292 227.256 C 94.446 225.835,99.408 221.799,101.807 217.075 C 103.671 213.405,104.094 210.419,104.100 200.853 L 104.107 192.000 128.000 192.000 L 151.893 192.000 151.900 200.853 C 151.906 210.419,152.329 213.405,154.193 217.075 C 156.592 221.799,161.554 225.835,166.708 227.256 C 169.304 227.972,171.305 228.053,186.240 228.053 C 202.720 228.053,202.911 228.043,206.054 227.014 C 213.259 224.654,218.342 218.703,219.777 210.947 C 220.021 209.625,220.132 179.384,220.061 133.720 L 219.944 58.667 218.978 55.253 C 215.770 43.910,208.379 35.329,197.975 30.870 C 191.362 28.035,194.541 28.156,127.698 28.195 C 76.010 28.225,66.765 28.322,64.213 28.861 M189.227 53.191 C 191.523 54.434,193.899 56.970,194.954 59.307 C 195.766 61.104,195.822 62.081,195.831 74.560 L 195.840 87.893 128.000 87.893 L 60.160 87.893 60.169 74.560 C 60.178 62.081,60.234 61.104,61.046 59.307 C 62.475 56.144,65.503 53.428,68.691 52.449 C 69.279 52.268,96.256 52.153,128.640 52.194 L 187.520 52.267 189.227 53.191 M7.098 69.124 C 4.319 70.511,2.807 71.903,1.482 74.295 L 0.213 76.587 0.213 91.947 C 0.213 106.961,0.235 107.346,1.153 109.063 C 4.163 114.689,9.699 117.139,15.555 115.437 C 18.748 114.509,22.115 111.306,23.178 108.187 C 24.205 105.173,24.248 78.845,23.230 75.859 C 22.328 73.212,20.073 70.699,17.409 69.371 C 14.559 67.951,9.682 67.834,7.098 69.124 M238.614 69.345 C 235.922 70.704,233.671 73.213,232.770 75.859 C 231.752 78.845,231.795 105.173,232.822 108.187 C 233.885 111.306,237.252 114.509,240.445 115.437 C 246.301 117.139,251.837 114.689,254.847 109.063 C 255.754 107.368,255.791 106.804,255.914 92.924 C 255.994 83.921,255.877 77.926,255.600 76.898 C 254.904 74.315,252.747 71.445,250.339 69.899 C 248.348 68.621,247.768 68.467,244.491 68.347 C 241.253 68.228,240.607 68.338,238.614 69.345 M195.840 140.160 L 195.840 168.107 128.000 168.107 L 60.160 168.107 60.160 140.160 L 60.160 112.213 128.000 112.213 L 195.840 112.213 195.840 140.160 M86.827 124.904 C 78.645 127.841,74.235 136.404,76.742 144.483 C 78.952 151.601,84.990 156.005,92.373 155.883 C 98.414 155.784,103.588 152.439,106.336 146.856 C 107.619 144.251,107.733 143.684,107.733 139.947 C 107.733 136.216,107.617 135.640,106.347 133.059 C 104.696 129.705,102.006 127.080,98.635 125.531 C 95.423 124.056,89.993 123.767,86.827 124.904 M159.269 124.779 C 154.909 126.142,151.379 129.257,149.391 133.495 C 148.423 135.560,148.267 136.458,148.267 139.956 C 148.267 143.683,148.382 144.252,149.664 146.856 C 156.145 160.021,174.901 158.517,179.258 144.483 C 181.805 136.275,176.990 127.259,168.730 124.774 C 166.230 124.021,161.686 124.024,159.269 124.779 M79.787 197.973 L 79.787 203.947 69.973 203.947 L 60.160 203.947 60.160 197.973 L 60.160 192.000 69.973 192.000 L 79.787 192.000 79.787 197.973 M195.840 197.973 L 195.840 203.947 186.027 203.947 L 176.213 203.947 176.213 197.973 L 176.213 192.000 186.027 192.000 L 195.840 192.000 195.840 197.973 " stroke="none" fill-rule="evenodd"></path></svg>