<svg fill="currentColor" viewBox="0 0 256 256" xmlns="http://www.w3.org/2000/svg"><path d="M124.523 0.567 C 117.887 3.050,107.771 11.273,102.131 18.771 C 95.418 27.693,92.157 37.168,92.163 47.727 C 92.167 53.596,93.123 58.180,95.350 63.001 C 98.950 70.792,105.932 77.693,113.533 80.972 C 115.579 81.855,116.053 82.247,116.053 83.057 L 116.053 84.053 80.533 84.061 C 51.006 84.067,44.509 84.174,42.027 84.693 C 32.063 86.778,23.479 95.117,20.895 105.220 C 20.134 108.196,20.053 109.978,20.054 123.908 C 20.055 140.536,20.311 143.363,22.373 149.506 C 23.553 153.023,25.573 157.286,27.041 159.360 C 27.929 160.616,27.951 161.069,28.169 183.253 C 28.383 205.132,28.421 205.957,29.331 208.640 C 32.146 216.945,39.327 224.096,47.356 226.589 C 48.879 227.062,52.047 227.640,54.396 227.875 C 57.111 228.145,85.088 228.253,131.200 228.171 L 203.733 228.042 206.999 227.116 C 217.037 224.268,224.352 216.961,227.070 207.067 C 227.939 203.906,227.996 202.608,228.164 181.987 C 228.327 161.967,228.402 160.155,229.103 159.160 C 231.605 155.614,234.343 148.415,235.336 142.768 C 236.214 137.782,236.192 110.256,235.307 106.027 C 233.676 98.231,227.777 90.651,220.581 87.103 C 214.290 84.002,215.287 84.069,175.467 84.061 L 139.947 84.053 139.947 83.057 C 139.947 82.247,140.421 81.855,142.467 80.972 C 150.068 77.693,157.050 70.792,160.650 63.001 C 164.661 54.318,164.960 42.612,161.422 32.704 C 157.032 20.414,146.668 8.581,134.583 2.062 C 130.898 0.074,127.279 -0.463,124.523 0.567 M131.081 29.125 C 140.203 38.114,142.550 49.345,136.747 56.241 C 133.706 59.856,127.368 60.986,122.763 58.733 C 114.647 54.762,113.843 43.996,120.894 33.712 C 122.310 31.647,127.394 26.453,128.000 26.453 C 128.203 26.453,129.590 27.656,131.081 29.125 M209.719 108.456 C 211.940 109.468,212.054 110.232,212.046 124.032 C 212.041 133.295,211.876 137.514,211.440 139.572 C 209.179 150.235,199.166 157.446,188.999 155.731 C 185.111 155.075,180.813 152.920,178.194 150.313 C 174.399 146.537,172.628 142.563,171.999 136.415 C 171.529 131.818,170.705 129.856,168.249 127.490 C 165.878 125.205,163.322 124.179,160.000 124.179 C 156.678 124.179,154.122 125.205,151.751 127.490 C 149.322 129.831,148.474 131.821,148.018 136.256 C 147.797 138.403,147.401 140.832,147.137 141.653 C 144.789 148.959,138.477 154.470,131.016 155.728 C 121.569 157.322,111.931 151.199,108.863 141.653 C 108.599 140.832,108.203 138.403,107.982 136.256 C 107.526 131.821,106.678 129.831,104.249 127.490 C 101.878 125.205,99.322 124.179,96.000 124.179 C 92.678 124.179,90.122 125.205,87.751 127.490 C 85.295 129.856,84.471 131.818,84.001 136.415 C 83.372 142.563,81.601 146.537,77.806 150.313 C 75.187 152.920,70.889 155.075,67.001 155.731 C 56.834 157.446,46.821 150.235,44.560 139.572 C 43.727 135.638,43.712 111.625,44.542 110.127 C 45.801 107.856,41.093 107.978,127.873 107.962 C 189.580 107.950,208.863 108.067,209.719 108.456 M98.460 168.562 C 103.581 173.243,110.097 176.746,117.246 178.662 C 120.863 179.631,122.223 179.771,128.000 179.771 C 133.777 179.771,135.137 179.631,138.754 178.662 C 145.927 176.740,152.417 173.245,157.587 168.520 L 160.000 166.314 162.413 168.520 C 172.043 177.321,186.308 181.633,198.656 179.474 C 200.792 179.101,202.856 178.674,203.243 178.525 C 203.886 178.279,203.947 179.254,203.947 189.854 L 203.947 201.452 202.699 202.699 L 201.452 203.947 128.000 203.947 L 54.548 203.947 53.301 202.699 L 52.053 201.452 52.053 189.854 C 52.053 179.321,52.117 178.280,52.747 178.522 C 53.128 178.668,55.073 179.072,57.069 179.420 C 69.862 181.651,83.978 177.445,93.499 168.566 C 94.757 167.393,95.856 166.425,95.940 166.416 C 96.025 166.407,97.158 167.373,98.460 168.562 " stroke="none" fill-rule="evenodd"></path></svg>