<svg fill="currentColor" viewBox="0 0 256 256" xmlns="http://www.w3.org/2000/svg"><path d="M77.013 12.405 C 73.111 13.361,69.189 17.379,68.295 21.333 C 68.056 22.389,67.856 24.357,67.850 25.707 L 67.840 28.160 56.427 28.165 C 48.125 28.169,44.414 28.330,42.816 28.755 C 37.244 30.239,32.513 34.211,29.967 39.543 L 28.373 42.880 28.373 128.000 L 28.373 213.120 29.958 216.440 C 33.070 222.956,38.805 227.007,46.107 227.846 C 50.959 228.404,205.041 228.404,209.893 227.846 C 219.655 226.724,226.724 219.655,227.846 209.893 C 228.404 205.041,228.404 50.959,227.846 46.107 C 227.073 39.378,223.294 33.623,217.641 30.563 C 213.622 28.388,211.988 28.171,199.633 28.165 L 188.280 28.160 188.060 24.640 C 187.709 19.038,185.399 15.302,180.949 13.141 C 178.221 11.816,173.779 11.816,171.051 13.141 C 166.566 15.319,164.293 18.969,163.945 24.555 L 163.720 28.160 128.000 28.160 L 92.280 28.160 92.060 24.640 C 91.804 20.550,90.756 17.939,88.444 15.626 C 85.555 12.738,80.949 11.440,77.013 12.405 M68.258 54.360 C 69.411 59.911,74.365 63.963,80.000 63.963 C 85.635 63.963,90.589 59.911,91.742 54.360 L 92.220 52.053 128.000 52.053 L 163.780 52.053 164.258 54.360 C 165.411 59.911,170.365 63.963,176.000 63.963 C 181.635 63.963,186.589 59.911,187.742 54.360 L 188.220 52.053 196.084 52.053 L 203.947 52.053 203.947 64.000 L 203.947 75.947 128.000 75.947 L 52.053 75.947 52.053 64.000 L 52.053 52.053 59.916 52.053 L 67.780 52.053 68.258 54.360 M203.947 152.107 L 203.947 203.947 128.000 203.947 L 52.053 203.947 52.053 152.107 L 52.053 100.267 128.000 100.267 L 203.947 100.267 203.947 152.107 M159.147 117.116 C 157.189 118.041,153.422 121.599,136.438 138.567 L 116.075 158.908 107.600 150.501 C 98.638 141.610,97.197 140.576,93.084 140.089 C 89.580 139.674,86.484 140.860,83.637 143.711 C 81.574 145.775,81.104 146.550,80.454 148.956 C 79.562 152.255,79.954 155.142,81.690 158.070 C 82.250 159.014,88.722 165.760,96.074 173.061 C 110.828 187.714,111.152 187.953,116.271 187.940 C 121.282 187.927,120.930 188.225,148.780 160.336 C 176.689 132.387,175.962 133.253,175.923 128.000 C 175.874 121.349,171.240 116.548,164.509 116.175 C 161.936 116.032,161.149 116.170,159.147 117.116 " stroke="none" fill-rule="evenodd"></path></svg>