<svg fill="currentColor" viewBox="0 0 256 256" xmlns="http://www.w3.org/2000/svg"><path d="M77.013 12.405 C 73.111 13.361,69.189 17.379,68.295 21.333 C 68.056 22.389,67.856 24.357,67.850 25.707 L 67.840 28.160 56.427 28.165 C 48.125 28.169,44.414 28.330,42.816 28.755 C 37.244 30.239,32.513 34.211,29.967 39.543 L 28.373 42.880 28.373 128.000 L 28.373 213.120 29.958 216.440 C 33.070 222.956,38.805 227.007,46.107 227.846 C 50.959 228.404,205.041 228.404,209.893 227.846 C 219.655 226.724,226.724 219.655,227.846 209.893 C 228.404 205.041,228.404 50.959,227.846 46.107 C 227.073 39.378,223.294 33.623,217.641 30.563 C 213.622 28.388,211.988 28.171,199.633 28.165 L 188.280 28.160 188.060 24.640 C 187.709 19.038,185.399 15.302,180.949 13.141 C 178.221 11.816,173.779 11.816,171.051 13.141 C 166.566 15.319,164.293 18.969,163.945 24.555 L 163.720 28.160 128.000 28.160 L 92.280 28.160 92.060 24.640 C 91.804 20.550,90.756 17.939,88.444 15.626 C 85.555 12.738,80.949 11.440,77.013 12.405 M68.258 54.360 C 69.411 59.911,74.365 63.963,80.000 63.963 C 85.635 63.963,90.589 59.911,91.742 54.360 L 92.220 52.053 128.000 52.053 L 163.780 52.053 164.258 54.360 C 165.411 59.911,170.365 63.963,176.000 63.963 C 181.635 63.963,186.589 59.911,187.742 54.360 L 188.220 52.053 196.084 52.053 L 203.947 52.053 203.947 64.000 L 203.947 75.947 128.000 75.947 L 52.053 75.947 52.053 64.000 L 52.053 52.053 59.916 52.053 L 67.780 52.053 68.258 54.360 M203.947 152.107 L 203.947 203.947 128.000 203.947 L 52.053 203.947 52.053 152.107 L 52.053 100.267 128.000 100.267 L 203.947 100.267 203.947 152.107 M123.850 116.759 C 121.059 117.748,117.967 120.784,116.931 123.554 C 116.177 125.569,116.053 126.880,116.053 132.881 L 116.053 139.864 108.480 140.024 C 101.283 140.177,100.801 140.241,98.773 141.308 C 94.498 143.558,92.186 147.200,92.169 151.711 C 92.156 155.415,93.165 157.978,95.594 160.406 C 98.588 163.401,100.334 163.892,108.907 164.156 L 116.053 164.376 116.053 171.506 C 116.053 178.606,116.059 178.649,117.358 181.248 C 119.563 185.661,123.128 187.883,128.029 187.900 C 132.778 187.916,136.399 185.651,138.792 181.170 C 139.636 179.589,139.744 178.663,139.872 171.894 L 140.014 164.374 147.127 164.155 C 155.663 163.893,157.415 163.398,160.406 160.406 C 162.835 157.978,163.844 155.415,163.831 151.711 C 163.814 147.200,161.502 143.558,157.227 141.308 C 155.199 140.241,154.717 140.177,147.520 140.024 L 139.947 139.864 139.947 132.881 C 139.947 124.277,139.376 122.274,136.080 119.311 C 132.644 116.221,128.067 115.266,123.850 116.759 " stroke="none" fill-rule="evenodd"></path></svg>