<svg fill="currentColor" viewBox="0 0 256 256" xmlns="http://www.w3.org/2000/svg"><path d="M100.691 20.446 C 95.572 22.033,92.168 26.647,92.168 32.000 C 92.168 36.598,94.581 40.547,98.773 42.810 C 100.310 43.640,101.257 43.746,108.276 43.873 L 116.071 44.015 115.956 52.371 L 115.840 60.727 111.277 61.495 C 79.347 66.869,51.527 87.963,37.632 117.333 C 32.533 128.113,28.160 145.171,28.160 154.285 L 28.160 156.058 24.213 156.243 C 19.500 156.465,17.591 157.295,14.983 160.258 C 11.982 163.667,11.233 167.875,12.856 172.211 C 14.045 175.389,16.611 177.955,19.789 179.144 L 22.219 180.053 128.000 180.053 L 233.781 180.053 236.211 179.144 C 239.389 177.955,241.955 175.389,243.144 172.211 C 244.767 167.875,244.018 163.667,241.017 160.258 C 238.409 157.295,236.500 156.465,231.787 156.243 L 227.840 156.058 227.840 154.285 C 227.840 148.530,225.505 136.681,222.728 128.343 C 211.119 93.488,180.890 67.582,144.723 61.495 L 140.160 60.727 140.044 52.371 L 139.929 44.015 147.724 43.873 C 154.748 43.745,155.689 43.640,157.227 42.809 C 166.049 38.038,166.049 25.957,157.227 21.189 C 155.533 20.274,155.308 20.266,128.640 20.190 C 113.856 20.149,101.279 20.263,100.691 20.446 M136.017 84.509 C 161.730 87.334,184.235 102.878,195.810 125.808 C 200.109 134.324,202.417 142.525,203.720 153.920 L 203.976 156.160 128.000 156.160 L 52.024 156.160 52.280 153.920 C 52.942 148.128,53.507 144.920,54.625 140.587 C 59.388 122.134,71.531 105.714,87.973 95.493 C 102.205 86.647,119.496 82.693,136.017 84.509 M18.987 197.273 C 14.524 199.360,12.183 203.051,12.183 208.000 C 12.183 212.896,14.598 216.702,19.139 218.961 L 21.120 219.947 128.000 219.947 L 234.880 219.947 236.881 218.952 C 246.195 214.321,246.273 201.604,237.013 197.273 L 234.880 196.275 128.000 196.275 L 21.120 196.275 18.987 197.273 " stroke="none" fill-rule="evenodd"></path></svg>