<svg fill="currentColor" viewBox="0 0 256 256" xmlns="http://www.w3.org/2000/svg"><path d="M91.093 29.166 C 89.920 29.715,88.351 30.790,87.607 31.555 C 86.863 32.321,83.407 37.241,79.927 42.490 L 73.600 52.033 59.307 52.051 C 48.455 52.064,44.294 52.219,42.027 52.693 C 32.063 54.778,23.479 63.117,20.895 73.220 C 20.077 76.417,20.053 78.188,20.053 135.893 C 20.053 193.928,20.073 195.353,20.909 198.652 C 23.530 208.987,31.340 216.722,41.813 219.356 C 45.312 220.236,210.688 220.236,214.187 219.356 C 224.660 216.722,232.470 208.987,235.091 198.652 C 235.927 195.353,235.946 193.941,235.939 136.145 C 235.933 85.883,235.838 76.565,235.307 74.027 C 233.676 66.231,227.777 58.651,220.581 55.103 C 214.906 52.305,213.071 52.071,196.693 52.051 L 182.400 52.033 176.073 42.490 C 172.593 37.241,169.137 32.321,168.393 31.555 C 167.649 30.790,166.080 29.715,164.907 29.166 L 162.773 28.168 128.000 28.168 L 93.227 28.168 91.093 29.166 M160.441 62.314 C 167.666 73.139,168.880 74.438,172.785 75.523 C 173.657 75.765,181.552 75.943,191.488 75.944 C 210.258 75.947,210.584 75.987,211.573 78.380 C 211.939 79.267,212.036 94.249,211.953 136.677 L 211.840 193.781 210.675 194.783 C 210.034 195.334,208.690 195.902,207.688 196.045 C 206.686 196.188,170.015 196.248,126.196 196.179 L 46.526 196.053 45.343 194.870 L 44.160 193.687 44.047 136.630 C 43.964 94.238,44.061 79.267,44.427 78.380 C 45.416 75.987,45.742 75.947,64.512 75.944 C 74.448 75.943,82.343 75.765,83.215 75.523 C 87.120 74.438,88.334 73.139,95.559 62.314 L 102.409 52.053 128.000 52.053 L 153.591 52.053 160.441 62.314 M123.093 84.308 C 112.747 85.814,105.988 88.242,98.847 93.019 C 93.894 96.331,92.156 99.257,92.164 104.267 C 92.178 112.721,101.188 118.458,108.800 114.859 C 109.856 114.360,111.940 113.186,113.431 112.249 C 118.592 109.008,125.048 107.609,131.275 108.383 C 134.135 108.738,139.108 110.100,139.869 110.736 C 139.944 110.798,139.353 111.704,138.556 112.748 C 134.909 117.525,135.430 124.377,139.760 128.582 C 143.158 131.882,146.241 132.425,160.194 132.182 C 172.207 131.973,173.499 131.641,176.868 127.893 C 179.927 124.491,180.125 123.296,179.971 109.140 C 179.824 95.553,179.681 94.849,176.439 91.652 C 171.706 86.985,163.649 87.042,159.377 91.771 L 157.893 93.414 154.733 91.546 C 149.187 88.267,143.320 86.052,137.173 84.916 C 134.402 84.404,125.171 84.005,123.093 84.308 M82.987 133.273 C 80.358 134.502,78.259 136.566,77.066 139.093 C 76.220 140.885,76.151 141.817,76.029 153.087 C 75.875 167.242,76.073 168.438,79.132 171.840 C 83.887 177.129,92.324 177.254,96.847 172.102 L 98.180 170.584 99.791 171.650 C 104.438 174.725,111.715 177.635,118.286 179.044 C 123.160 180.090,132.877 180.081,137.796 179.027 C 144.959 177.493,151.671 174.721,157.014 171.093 C 160.316 168.851,161.565 167.518,162.813 164.907 C 166.244 157.723,161.171 148.887,153.204 148.172 C 150.193 147.902,148.060 148.482,144.845 150.445 C 138.140 154.539,134.159 155.830,128.213 155.835 C 124.372 155.839,119.529 154.920,117.233 153.752 L 116.066 153.158 117.492 151.139 C 119.318 148.554,119.893 146.802,119.893 143.830 C 119.893 140.639,118.087 136.775,115.720 134.901 C 112.437 132.300,112.207 132.266,98.040 132.271 C 85.393 132.275,85.075 132.296,82.987 133.273 " stroke="none" fill-rule="evenodd"></path></svg>