<svg fill="currentColor" viewBox="0 0 256 256" xmlns="http://www.w3.org/2000/svg"><path d="M91.093 29.166 C 89.920 29.715,88.351 30.790,87.607 31.555 C 86.863 32.321,83.407 37.241,79.927 42.490 L 73.600 52.033 59.307 52.051 C 48.455 52.064,44.294 52.219,42.027 52.693 C 32.063 54.778,23.479 63.117,20.895 73.220 C 20.077 76.417,20.053 78.188,20.053 135.893 C 20.053 193.928,20.073 195.353,20.909 198.652 C 23.530 208.987,31.340 216.722,41.813 219.356 C 45.312 220.236,210.688 220.236,214.187 219.356 C 224.660 216.722,232.470 208.987,235.091 198.652 C 235.927 195.353,235.946 193.941,235.939 136.145 C 235.933 85.883,235.838 76.565,235.307 74.027 C 233.676 66.231,227.777 58.651,220.581 55.103 C 214.906 52.305,213.071 52.071,196.693 52.051 L 182.400 52.033 176.073 42.490 C 172.593 37.241,169.137 32.321,168.393 31.555 C 167.649 30.790,166.080 29.715,164.907 29.166 L 162.773 28.168 128.000 28.168 L 93.227 28.168 91.093 29.166 M160.441 62.314 C 167.666 73.139,168.880 74.438,172.785 75.523 C 173.657 75.765,181.552 75.943,191.488 75.944 C 210.258 75.947,210.584 75.987,211.573 78.380 C 211.939 79.267,212.036 94.249,211.953 136.677 L 211.840 193.781 210.675 194.783 C 210.034 195.334,208.690 195.902,207.688 196.045 C 206.686 196.188,170.015 196.248,126.196 196.179 L 46.526 196.053 45.343 194.870 L 44.160 193.687 44.047 136.630 C 43.964 94.238,44.061 79.267,44.427 78.380 C 45.416 75.987,45.742 75.947,64.512 75.944 C 74.448 75.943,82.343 75.765,83.215 75.523 C 87.120 74.438,88.334 73.139,95.559 62.314 L 102.409 52.053 128.000 52.053 L 153.591 52.053 160.441 62.314 M123.307 93.046 C 120.970 94.101,118.434 96.477,117.191 98.773 C 116.317 100.387,116.260 101.123,116.135 112.320 L 116.004 124.160 104.615 124.169 C 94.091 124.178,93.081 124.245,91.307 125.046 C 87.200 126.901,84.510 130.675,84.156 135.076 C 83.761 139.999,86.178 144.347,90.608 146.684 L 92.800 147.840 104.427 147.972 L 116.053 148.103 116.053 159.096 C 116.053 171.438,116.265 172.679,118.898 175.754 C 121.286 178.544,124.140 179.819,128.000 179.819 C 131.860 179.819,134.714 178.544,137.102 175.754 C 139.735 172.679,139.947 171.438,139.947 159.096 L 139.947 148.103 151.573 147.972 L 163.200 147.840 165.392 146.684 C 169.822 144.347,172.239 139.999,171.844 135.076 C 171.490 130.675,168.800 126.901,164.693 125.046 C 162.919 124.245,161.909 124.178,151.385 124.169 L 139.996 124.160 139.865 112.320 C 139.740 101.123,139.683 100.387,138.809 98.773 C 136.571 94.638,132.539 92.179,128.000 92.179 C 126.126 92.179,124.604 92.460,123.307 93.046 " stroke="none" fill-rule="evenodd"></path></svg>