<svg fill="currentColor" viewBox="0 0 256 256" xmlns="http://www.w3.org/2000/svg"><path d="M62.928 37.031 C 58.148 38.691,53.624 42.545,51.516 46.755 C 50.938 47.909,44.571 62.127,37.366 78.351 L 24.266 107.849 18.640 108.017 C 13.904 108.159,12.703 108.336,11.051 109.140 C 3.725 112.702,1.788 121.714,7.017 127.902 C 9.078 130.340,11.493 131.434,15.993 131.969 L 20.053 132.452 20.053 171.523 C 20.053 214.073,20.003 213.121,22.472 217.657 C 23.748 220.002,27.307 223.675,29.713 225.132 C 30.619 225.681,32.608 226.562,34.133 227.091 C 36.806 228.018,37.449 228.053,51.840 228.053 C 65.298 228.053,67.040 227.973,69.477 227.240 C 74.532 225.720,79.402 221.721,81.684 217.219 C 83.601 213.435,84.053 210.762,84.053 203.217 L 84.053 196.267 128.000 196.267 L 171.947 196.267 171.947 203.217 C 171.947 210.762,172.399 213.435,174.316 217.219 C 176.598 221.721,181.468 225.720,186.523 227.240 C 188.960 227.973,190.702 228.053,204.160 228.053 C 218.551 228.053,219.194 228.018,221.867 227.091 C 223.392 226.562,225.381 225.681,226.287 225.132 C 228.693 223.675,232.252 220.002,233.528 217.657 C 235.997 213.121,235.947 214.073,235.947 171.523 L 235.947 132.452 240.007 131.969 C 244.507 131.434,246.922 130.340,248.983 127.902 C 254.193 121.737,252.249 112.689,244.949 109.140 C 243.297 108.336,242.096 108.159,237.360 108.017 L 231.734 107.849 218.641 78.351 C 211.440 62.127,204.973 47.757,204.270 46.417 C 202.561 43.159,198.709 39.557,195.109 37.852 L 192.213 36.480 128.640 36.384 C 69.188 36.295,64.928 36.337,62.928 37.031 M194.795 83.833 C 200.533 96.736,205.227 107.440,205.227 107.619 C 205.227 107.799,170.452 107.947,127.950 107.947 C 54.556 107.947,50.685 107.909,50.890 107.200 C 51.008 106.789,55.560 96.469,61.004 84.267 C 66.448 72.064,71.073 61.647,71.281 61.118 L 71.660 60.157 128.012 60.265 L 184.364 60.373 194.795 83.833 M212.053 168.107 L 212.053 203.947 204.206 203.947 L 196.359 203.947 196.189 192.747 C 196.030 182.225,195.961 181.417,195.055 179.413 C 193.838 176.724,191.955 174.747,189.227 173.295 L 187.093 172.160 128.000 172.160 L 68.907 172.160 66.773 173.295 C 64.112 174.711,62.172 176.712,61.047 179.200 C 60.244 180.975,60.178 181.980,60.169 192.533 L 60.160 203.947 52.053 203.947 L 43.947 203.947 43.947 168.107 L 43.947 132.267 128.000 132.267 L 212.053 132.267 212.053 168.107 " stroke="none" fill-rule="evenodd"></path></svg>