<svg fill="currentColor" viewBox="0 0 256 256" xmlns="http://www.w3.org/2000/svg"><path d="M59.947 32.756 C 56.980 33.735,53.714 37.034,52.705 40.072 C 51.799 42.800,51.981 46.845,53.111 49.086 C 54.131 51.109,56.617 53.647,58.667 54.756 L 60.373 55.680 138.133 55.791 L 215.893 55.902 215.893 116.620 C 215.893 184.828,215.663 179.988,219.093 183.803 C 221.640 186.636,224.268 187.866,227.840 187.897 C 232.726 187.940,236.991 185.208,239.014 180.739 L 240.000 178.560 240.124 115.840 C 240.206 74.411,240.098 51.961,239.806 49.707 C 238.699 41.141,232.435 34.299,224.000 32.443 C 222.769 32.173,193.357 32.027,142.080 32.037 C 68.923 32.051,61.898 32.113,59.947 32.756 M30.765 72.782 C 23.245 74.804,17.479 81.308,16.232 89.173 C 15.647 92.870,15.639 202.560,16.224 206.720 C 17.370 214.868,23.923 221.861,32.000 223.556 C 33.736 223.921,53.882 224.015,109.440 223.918 L 184.533 223.787 186.976 222.800 C 192.401 220.609,196.665 216.290,198.789 210.835 L 199.893 208.000 200.021 149.547 C 200.114 107.228,200.016 90.387,199.665 88.533 C 198.222 80.906,192.456 74.693,184.960 72.688 C 181.650 71.802,34.073 71.892,30.765 72.782 M175.787 148.053 L 175.787 200.107 107.947 200.107 L 40.107 200.107 40.107 148.053 L 40.107 96.000 107.947 96.000 L 175.787 96.000 175.787 148.053 " stroke="none" fill-rule="evenodd"></path></svg>