<svg fill="currentColor" viewBox="0 0 256 256" xmlns="http://www.w3.org/2000/svg"><path d="M119.680 20.310 C 97.411 22.610,80.001 29.205,63.147 41.728 C 57.186 46.157,46.223 57.026,41.973 62.720 C 16.611 96.701,12.928 141.035,32.385 178.133 C 37.761 188.385,42.832 195.175,51.828 204.172 C 60.825 213.168,67.615 218.239,77.867 223.615 C 114.965 243.072,159.250 239.395,193.280 214.031 C 198.497 210.143,210.143 198.497,214.031 193.280 C 228.489 173.882,235.947 151.668,235.947 128.000 C 235.947 92.235,218.399 59.167,188.587 38.752 C 175.422 29.738,160.539 23.864,144.427 21.325 C 139.077 20.483,124.002 19.864,119.680 20.310 M135.040 44.374 C 172.305 47.758,202.630 74.580,210.140 110.797 C 215.959 138.858,207.285 167.541,186.865 187.761 C 173.241 201.252,155.612 209.521,136.017 211.611 C 111.761 214.199,86.191 204.984,68.686 187.348 C 48.533 167.041,40.077 138.684,45.860 110.797 C 54.430 69.467,93.221 40.575,135.040 44.374 M85.973 100.260 C 81.942 100.894,78.266 103.914,76.819 107.781 C 75.705 110.758,75.714 113.254,76.851 116.357 C 77.703 118.683,79.015 120.086,99.358 140.417 C 113.163 154.214,121.529 162.263,122.535 162.718 C 126.098 164.328,129.913 164.327,133.465 162.715 C 134.467 162.260,142.894 154.152,156.644 140.414 C 176.997 120.076,178.300 118.684,179.150 116.357 C 180.280 113.268,180.295 110.758,179.201 107.835 C 177.481 103.236,173.086 100.198,168.112 100.166 C 162.957 100.134,162.912 100.169,144.536 118.516 L 128.005 135.020 111.256 118.340 C 97.146 104.289,94.204 101.555,92.587 100.994 C 90.141 100.145,88.127 99.922,85.973 100.260 " stroke="none" fill-rule="evenodd"></path></svg>