<svg fill="currentColor" viewBox="0 0 256 256" xmlns="http://www.w3.org/2000/svg"><path d="M117.760 36.233 C 116.939 36.400,115.499 36.889,114.560 37.319 C 112.174 38.413,30.323 120.254,29.202 122.667 C 28.749 123.642,28.336 125.687,28.239 127.436 C 27.908 133.418,25.206 130.348,71.592 176.689 C 116.874 221.928,114.604 219.896,119.881 219.907 C 126.673 219.921,131.947 214.716,131.947 208.000 C 131.947 202.798,133.634 204.706,93.534 164.588 L 56.964 128.002 93.532 91.415 C 133.606 51.319,131.947 53.193,131.947 48.021 C 131.947 40.574,124.959 34.768,117.760 36.233 M197.855 36.311 C 196.734 36.484,195.006 37.108,194.015 37.698 C 193.024 38.287,173.557 57.454,150.755 80.291 C 110.370 120.737,109.278 121.873,108.621 124.131 C 107.770 127.056,107.770 128.944,108.621 131.869 C 109.278 134.127,110.368 135.260,151.161 176.091 C 197.294 222.268,194.676 219.925,200.107 219.899 C 205.110 219.875,209.440 216.873,211.181 212.219 C 212.295 209.241,212.286 206.745,211.148 203.643 C 210.286 201.292,208.490 199.418,173.717 164.586 L 137.192 127.998 173.719 91.412 C 208.511 56.564,210.288 54.709,211.149 52.357 C 212.280 49.269,212.295 46.759,211.201 43.835 C 209.198 38.480,203.738 35.402,197.855 36.311 " stroke="none" fill-rule="evenodd"></path></svg>