<svg fill="currentColor" viewBox="0 0 256 256" xmlns="http://www.w3.org/2000/svg"><path d="M119.680 20.310 C 97.411 22.610,80.001 29.205,63.147 41.728 C 57.186 46.157,46.223 57.026,41.973 62.720 C 16.611 96.701,12.928 141.035,32.385 178.133 C 37.761 188.385,42.832 195.175,51.828 204.172 C 60.825 213.168,67.615 218.239,77.867 223.615 C 114.965 243.072,159.250 239.395,193.280 214.031 C 198.497 210.143,210.143 198.497,214.031 193.280 C 228.489 173.882,235.947 151.668,235.947 128.000 C 235.947 92.235,218.399 59.167,188.587 38.752 C 175.422 29.738,160.539 23.864,144.427 21.325 C 139.077 20.483,124.002 19.864,119.680 20.310 M135.040 44.374 C 172.305 47.758,202.630 74.580,210.140 110.797 C 215.959 138.858,207.285 167.541,186.865 187.761 C 173.241 201.252,155.612 209.521,136.017 211.611 C 111.761 214.199,86.191 204.984,68.686 187.348 C 48.533 167.041,40.077 138.684,45.860 110.797 C 54.430 69.467,93.221 40.575,135.040 44.374 M140.500 76.539 C 139.513 76.861,137.785 77.807,136.660 78.641 C 135.534 79.475,125.552 89.242,114.476 100.345 C 91.588 123.292,91.924 122.865,92.239 128.564 C 92.337 130.320,92.748 132.355,93.204 133.333 C 93.739 134.481,101.075 142.121,115.586 156.644 C 135.924 176.997,137.316 178.300,139.643 179.150 C 142.747 180.285,145.243 180.295,148.218 179.181 C 152.817 177.461,155.885 173.138,155.925 168.320 C 155.969 163.089,156.081 163.233,137.661 144.747 L 120.975 128.000 137.661 111.253 C 156.081 92.767,155.969 92.911,155.925 87.680 C 155.873 81.476,151.093 76.557,144.688 76.117 C 143.343 76.025,141.507 76.210,140.500 76.539 " stroke="none" fill-rule="evenodd"></path></svg>