<svg fill="currentColor" viewBox="0 0 256 256" xmlns="http://www.w3.org/2000/svg"><path d="M93.503 36.294 C 90.812 36.830,88.019 38.625,86.470 40.814 C 84.646 43.393,84.123 44.970,84.090 48.000 C 84.032 53.263,82.469 51.492,122.576 91.625 L 158.924 127.998 122.182 164.799 C 88.606 198.428,85.379 201.781,84.746 203.703 C 82.753 209.753,85.145 215.844,90.612 218.640 C 92.637 219.676,93.620 219.909,95.962 219.909 C 101.442 219.909,99.088 222.015,144.908 176.121 C 190.406 130.551,187.947 133.300,187.947 128.000 C 187.947 122.700,190.406 125.449,144.908 79.879 C 100.886 35.785,101.794 36.619,97.280 36.132 C 96.224 36.018,94.524 36.091,93.503 36.294 " stroke="none" fill-rule="evenodd"></path></svg>