<svg fill="currentColor" viewBox="0 0 256 256" xmlns="http://www.w3.org/2000/svg"><path d="M117.973 20.526 C 92.419 22.903,68.537 34.389,50.538 52.961 C 34.491 69.518,24.721 89.436,21.053 113.067 C 19.984 119.955,19.984 136.045,21.053 142.933 C 21.937 148.625,23.471 155.350,24.994 160.213 C 34.703 191.197,58.239 216.517,88.396 228.421 C 102.347 233.927,116.319 236.319,131.596 235.815 C 147.716 235.283,161.058 231.958,175.573 224.854 C 186.714 219.402,195.649 213.019,204.352 204.295 C 213.102 195.524,219.332 186.794,224.847 175.573 C 229.912 165.269,233.184 154.846,234.960 143.360 C 236.030 136.442,236.029 119.550,234.959 112.640 C 233.160 101.024,229.958 90.825,224.847 80.427 C 216.209 62.853,203.781 48.730,187.307 37.766 C 181.563 33.944,170.625 28.477,164.295 26.264 C 149.602 21.129,133.259 19.104,117.973 20.526 M135.040 44.378 C 155.362 46.241,173.180 54.518,187.331 68.669 C 200.156 81.494,208.194 97.413,211.039 115.627 C 211.910 121.199,212.012 133.481,211.235 139.093 C 206.946 170.057,186.386 195.818,157.285 206.691 C 148.491 209.977,137.150 212.053,128.000 212.053 C 103.713 212.053,79.408 200.755,64.011 182.310 C 53.777 170.048,47.427 156.074,44.955 140.373 C 44.001 134.313,44.001 121.687,44.955 115.627 C 49.254 88.320,66.059 65.121,90.345 52.969 C 100.167 48.055,109.758 45.443,122.453 44.226 C 125.743 43.911,130.586 43.969,135.040 44.378 M93.227 76.322 C 89.257 77.370,85.889 80.455,84.654 84.172 C 83.744 86.913,84.026 90.862,85.318 93.453 C 86.591 96.005,120.217 129.639,122.667 130.811 C 125.059 131.954,130.941 131.954,133.333 130.811 C 135.783 129.639,169.409 96.005,170.682 93.453 C 173.603 87.596,171.226 80.355,165.392 77.340 C 162.409 75.798,157.737 75.728,154.880 77.182 C 153.620 77.823,148.669 82.436,140.480 90.597 L 128.000 103.035 115.520 90.597 C 107.583 82.687,102.382 77.832,101.232 77.260 C 99.237 76.268,95.216 75.797,93.227 76.322 M93.503 132.294 C 89.421 133.107,85.579 136.668,84.454 140.682 C 83.801 143.011,84.108 146.953,85.110 149.120 C 85.634 150.253,91.721 156.677,103.217 168.231 C 122.595 187.707,122.850 187.909,128.000 187.909 C 133.150 187.909,133.405 187.707,152.783 168.231 C 163.916 157.042,170.392 150.217,170.917 149.120 C 172.067 146.716,172.055 141.235,170.894 138.894 C 168.803 134.676,164.765 132.191,160.000 132.191 C 154.916 132.191,154.436 132.542,140.480 146.464 L 128.000 158.914 115.520 146.464 C 102.394 133.371,101.432 132.615,97.280 132.143 C 96.224 132.023,94.524 132.091,93.503 132.294 " stroke="none" fill-rule="evenodd"></path></svg>