<svg fill="currentColor" viewBox="0 0 256 256" xmlns="http://www.w3.org/2000/svg"><path d="M180.141 12.729 C 177.013 13.845,174.944 15.649,173.440 18.571 L 172.160 21.057 172.037 35.489 C 171.970 43.426,171.816 49.920,171.696 49.920 C 171.576 49.920,170.959 49.656,170.325 49.333 C 169.692 49.010,167.637 48.232,165.760 47.605 C 143.564 40.188,119.509 44.557,101.126 59.344 C 88.095 69.826,72.361 91.715,57.913 119.467 C 46.351 141.672,33.721 172.094,23.718 201.827 C 20.500 211.392,20.054 213.082,20.058 215.693 C 20.067 220.917,21.777 225.481,25.122 229.207 C 27.702 232.081,30.047 233.593,33.977 234.916 C 39.100 236.641,42.477 236.290,52.053 233.038 C 119.300 210.198,169.326 183.993,192.931 159.240 C 209.892 141.456,216.126 116.392,209.332 93.304 C 208.560 90.680,207.515 87.525,207.010 86.293 L 206.092 84.053 219.937 84.053 C 233.019 84.053,233.915 84.003,236.211 83.144 C 240.611 81.498,244.053 76.680,244.053 72.168 C 244.053 67.945,241.266 63.333,237.495 61.315 C 235.828 60.424,235.133 60.366,224.533 60.241 C 218.373 60.168,213.333 59.974,213.333 59.811 C 213.333 59.647,217.955 54.907,223.603 49.277 C 229.251 43.646,234.289 38.272,234.798 37.333 C 236.047 35.030,236.125 29.128,234.936 26.880 C 233.835 24.799,231.357 22.285,229.333 21.196 C 227.025 19.953,221.119 19.879,218.880 21.065 C 218.059 21.500,212.656 26.560,206.875 32.308 L 196.363 42.761 196.189 32.154 C 196.026 22.268,195.949 21.402,195.052 19.413 C 192.441 13.624,185.877 10.682,180.141 12.729 M152.693 68.964 C 160.763 70.388,168.100 74.273,174.607 80.569 C 184.136 89.789,188.743 102.078,187.703 115.502 C 187.130 122.902,185.077 129.118,181.067 135.596 C 178.582 139.611,170.604 147.755,164.267 152.745 C 159.607 156.414,144.837 166.400,144.069 166.400 C 143.827 166.400,138.145 160.963,131.441 154.317 C 117.680 140.675,117.001 140.181,112.000 140.199 C 105.244 140.222,100.130 145.146,100.075 151.680 C 100.033 156.628,100.574 157.415,111.714 168.631 L 121.771 178.754 114.752 182.125 C 103.200 187.672,88.225 194.105,74.667 199.343 C 65.458 202.902,46.848 209.550,46.650 209.353 C 46.436 209.139,52.102 193.273,56.100 182.889 C 68.814 149.871,82.297 122.329,95.295 102.827 C 98.782 97.594,104.435 90.027,104.857 90.027 C 105.017 90.027,112.546 97.395,121.588 106.401 C 139.587 124.329,139.084 123.941,144.213 123.897 C 147.763 123.866,150.411 122.638,152.902 119.868 C 155.099 117.424,156.398 113.578,155.975 110.762 C 155.353 106.610,154.388 105.445,138.284 89.389 C 129.812 80.942,122.880 73.889,122.880 73.716 C 122.880 73.226,126.598 71.473,130.156 70.285 C 137.168 67.944,144.483 67.515,152.693 68.964 " stroke="none" fill-rule="evenodd"></path></svg>