<svg fill="currentColor" viewBox="0 0 256 256" xmlns="http://www.w3.org/2000/svg"><path d="M196.691 20.426 C 193.314 21.534,190.638 23.920,189.152 27.149 L 188.144 29.338 188.259 72.589 L 188.373 115.840 189.538 117.822 C 191.845 121.745,195.592 123.894,200.107 123.884 C 203.622 123.875,206.185 122.702,208.803 119.903 C 212.254 116.213,212.085 118.840,211.955 71.009 L 211.840 28.800 210.706 26.667 C 208.563 22.632,205.110 20.442,200.533 20.214 C 199.008 20.138,197.279 20.233,196.691 20.426 M155.307 61.046 C 152.970 62.101,150.434 64.477,149.191 66.773 C 148.280 68.455,148.265 68.820,148.146 91.451 L 148.025 114.421 149.038 116.624 C 151.251 121.439,154.968 123.909,160.000 123.909 C 164.787 123.909,168.393 121.657,170.794 117.170 C 171.729 115.421,171.733 115.315,171.733 91.947 C 171.733 68.693,171.725 68.465,170.809 66.773 C 168.571 62.638,164.539 60.179,160.000 60.179 C 158.126 60.179,156.604 60.460,155.307 61.046 M114.987 101.251 C 112.347 102.513,110.253 104.578,109.066 107.093 C 108.162 109.009,108.160 109.114,108.046 155.378 L 107.932 201.742 108.848 204.191 C 110.502 208.611,115.311 212.053,119.832 212.053 C 124.408 212.053,129.108 208.971,131.035 204.706 L 132.053 202.453 132.053 156.373 C 132.053 120.207,131.936 109.907,131.508 108.498 C 130.754 106.012,128.573 103.299,126.099 101.769 C 124.304 100.659,123.537 100.463,120.567 100.356 C 117.651 100.251,116.791 100.389,114.987 101.251 M77.013 140.405 C 73.001 141.389,69.141 145.429,68.264 149.563 C 67.961 150.991,67.849 160.308,67.931 177.297 L 68.053 202.880 69.020 204.843 C 73.647 214.232,86.291 214.255,90.952 204.881 L 91.947 202.880 91.947 176.000 L 91.947 149.120 90.961 147.139 C 89.735 144.674,87.452 142.355,85.163 141.249 C 83.038 140.222,79.326 139.837,77.013 140.405 M157.227 140.322 C 149.847 142.270,145.991 150.219,149.142 156.987 C 149.979 158.785,152.087 161.188,158.504 167.656 L 166.786 176.004 158.541 184.322 C 153.466 189.442,149.925 193.373,149.331 194.547 C 146.982 199.192,147.914 204.716,151.682 208.484 C 155.056 211.858,159.033 212.799,163.869 211.367 C 166.007 210.735,166.874 209.999,175.036 201.901 L 183.885 193.120 192.529 201.666 C 200.206 209.256,201.450 210.316,203.643 211.133 C 206.734 212.285,209.231 212.299,212.219 211.181 C 216.869 209.441,219.872 205.114,219.904 200.107 C 219.934 195.430,219.116 194.208,209.475 184.525 L 200.969 175.983 209.299 167.671 C 218.915 158.076,219.967 156.514,219.916 151.893 C 219.842 145.079,214.859 140.183,208.000 140.183 C 203.115 140.183,202.017 140.907,192.348 150.500 L 183.874 158.906 175.457 150.533 C 170.403 145.506,166.318 141.801,165.232 141.261 C 163.237 140.268,159.216 139.797,157.227 140.322 M36.691 180.426 C 33.344 181.524,30.658 183.905,29.166 187.093 C 28.251 189.051,28.168 189.790,28.168 196.053 C 28.168 202.320,28.250 203.056,29.169 205.030 C 31.059 209.087,35.703 212.053,40.168 212.053 C 44.723 212.053,49.496 208.615,51.179 204.120 C 52.032 201.845,52.109 200.979,51.974 195.200 C 51.835 189.261,51.743 188.646,50.698 186.667 C 48.573 182.639,45.113 180.442,40.533 180.214 C 39.008 180.138,37.279 180.233,36.691 180.426 " stroke="none" fill-rule="evenodd"></path></svg>