<svg fill="currentColor" viewBox="0 0 256 256" xmlns="http://www.w3.org/2000/svg"><path d="M196.691 20.426 C 193.344 21.524,190.658 23.905,189.166 27.093 L 188.168 29.227 188.168 116.053 L 188.168 202.880 189.169 205.030 C 191.059 209.087,195.703 212.053,200.168 212.053 C 204.685 212.053,209.498 208.611,211.148 204.200 L 212.061 201.760 211.951 115.280 L 211.840 28.800 210.706 26.667 C 208.563 22.632,205.110 20.442,200.533 20.214 C 199.008 20.138,197.279 20.233,196.691 20.426 M155.307 61.046 C 152.970 62.101,150.434 64.477,149.191 66.773 L 148.267 68.480 148.155 135.234 C 148.030 209.361,147.835 204.176,150.889 207.744 C 153.286 210.544,156.136 211.819,160.000 211.819 C 163.864 211.819,166.714 210.544,169.111 207.744 C 172.165 204.176,171.970 209.361,171.845 135.234 L 171.733 68.480 170.809 66.773 C 168.571 62.638,164.539 60.179,160.000 60.179 C 158.126 60.179,156.604 60.460,155.307 61.046 M114.987 101.251 C 112.347 102.513,110.253 104.578,109.066 107.093 C 108.162 109.009,108.160 109.114,108.046 155.378 L 107.932 201.742 108.848 204.191 C 110.502 208.611,115.311 212.053,119.832 212.053 C 124.408 212.053,129.108 208.971,131.035 204.706 L 132.053 202.453 132.053 156.373 C 132.053 120.207,131.936 109.907,131.508 108.498 C 130.754 106.012,128.573 103.299,126.099 101.769 C 124.304 100.659,123.537 100.463,120.567 100.356 C 117.651 100.251,116.791 100.389,114.987 101.251 M77.013 140.405 C 73.001 141.389,69.141 145.429,68.264 149.563 C 67.961 150.991,67.849 160.308,67.931 177.297 L 68.053 202.880 69.020 204.843 C 73.647 214.232,86.291 214.255,90.952 204.881 L 91.947 202.880 91.947 176.000 L 91.947 149.120 90.961 147.139 C 89.735 144.674,87.452 142.355,85.163 141.249 C 83.038 140.222,79.326 139.837,77.013 140.405 M36.691 180.426 C 33.344 181.524,30.658 183.905,29.166 187.093 C 28.251 189.051,28.168 189.790,28.168 196.053 C 28.168 202.320,28.250 203.056,29.169 205.030 C 31.059 209.087,35.703 212.053,40.168 212.053 C 44.723 212.053,49.496 208.615,51.179 204.120 C 52.032 201.845,52.109 200.979,51.974 195.200 C 51.835 189.261,51.743 188.646,50.698 186.667 C 48.573 182.639,45.113 180.442,40.533 180.214 C 39.008 180.138,37.279 180.233,36.691 180.426 " stroke="none" fill-rule="evenodd"></path></svg>