<svg fill="currentColor" viewBox="0 0 256 256" xmlns="http://www.w3.org/2000/svg"><path d="M34.347 36.863 C 27.753 38.961,22.843 43.864,20.895 50.295 C 20.051 53.083,20.041 54.110,20.153 128.853 L 20.267 204.587 21.269 207.072 C 23.534 212.686,28.309 217.184,33.920 218.987 C 36.719 219.886,37.642 219.947,48.640 219.947 C 62.852 219.947,63.567 219.806,66.987 216.339 C 68.713 214.589,69.642 213.172,70.499 210.980 C 74.866 199.810,84.266 191.654,95.857 188.975 C 101.134 187.756,109.500 187.966,114.133 189.434 C 125.053 192.894,133.174 200.343,137.462 210.831 C 139.209 215.103,140.976 217.204,144.118 218.747 L 146.560 219.947 182.827 219.947 L 219.093 219.947 222.080 218.987 C 227.691 217.184,232.466 212.686,234.731 207.072 L 235.733 204.587 235.847 129.280 C 235.926 76.561,235.822 53.305,235.499 51.746 C 234.296 45.933,230.138 40.735,224.564 38.074 L 221.227 36.480 128.640 36.400 C 54.680 36.336,35.710 36.429,34.347 36.863 M212.053 128.213 L 212.053 196.267 184.771 196.267 L 157.489 196.267 154.182 191.253 C 150.361 185.461,143.706 178.516,138.773 175.173 C 137.072 174.020,135.680 172.916,135.680 172.720 C 135.680 172.524,136.450 171.235,137.392 169.855 C 139.560 166.679,141.410 162.610,142.494 158.630 C 146.753 143.002,141.409 126.715,128.728 116.674 C 116.935 107.336,100.745 105.416,87.225 111.752 C 82.637 113.902,80.275 115.538,76.433 119.226 C 70.891 124.547,67.245 130.725,65.213 138.240 C 63.826 143.369,63.801 152.737,65.162 157.474 C 66.703 162.838,67.759 165.287,70.223 169.211 C 71.961 171.981,72.430 173.038,72.020 173.267 C 69.946 174.430,64.964 178.459,61.923 181.434 C 58.010 185.262,54.731 189.402,52.276 193.617 L 50.712 196.301 47.436 196.177 L 44.160 196.053 44.052 128.107 L 43.944 60.160 127.999 60.160 L 212.053 60.160 212.053 128.213 M63.738 72.797 C 59.916 74.152,56.663 78.397,56.062 82.815 C 55.467 87.186,58.093 92.094,62.293 94.463 L 64.640 95.787 120.201 95.900 L 175.761 96.012 175.881 135.366 C 176.000 174.607,176.003 174.726,176.917 176.704 C 178.030 179.111,180.553 181.715,182.841 182.817 C 183.772 183.266,185.716 183.713,187.161 183.810 C 192.249 184.154,196.450 181.732,198.694 177.162 L 199.893 174.720 199.893 128.000 L 199.893 81.280 198.694 78.838 C 198.034 77.494,196.716 75.729,195.764 74.914 C 192.258 71.913,196.918 72.103,127.817 72.140 C 74.338 72.169,65.244 72.262,63.738 72.797 M109.865 133.156 C 113.203 134.405,116.854 137.880,118.442 141.320 C 119.534 143.683,119.680 144.480,119.680 148.062 C 119.680 151.783,119.563 152.361,118.293 154.941 C 116.649 158.281,113.972 160.902,110.581 162.492 C 108.465 163.483,107.622 163.627,103.893 163.627 C 100.077 163.627,99.368 163.500,97.178 162.424 C 94.233 160.978,91.209 158.061,89.827 155.333 C 85.372 146.542,90.029 135.531,99.413 132.666 C 101.703 131.967,107.401 132.234,109.865 133.156 " stroke="none" fill-rule="evenodd"></path></svg>