<svg fill="currentColor" viewBox="0 0 256 256" xmlns="http://www.w3.org/2000/svg"><path d="M92.858 5.124 C 90.123 6.489,88.571 7.895,87.384 10.082 C 86.037 12.563,82.419 24.795,79.197 37.760 C 63.698 100.124,64.328 145.183,81.030 168.842 C 83.956 172.986,88.533 177.440,92.750 180.246 C 96.680 182.861,98.913 183.918,104.107 185.621 L 107.733 186.811 107.844 207.539 L 107.955 228.267 100.470 228.267 C 92.319 228.267,91.278 228.484,88.367 230.789 C 84.497 233.854,82.964 240.112,84.998 244.537 C 86.478 247.758,87.983 249.372,90.793 250.752 L 93.227 251.947 119.680 251.947 C 144.675 251.947,146.250 251.902,148.242 251.134 C 157.980 247.378,158.528 233.740,149.120 229.285 C 147.134 228.345,146.478 228.275,139.627 228.271 L 132.267 228.267 132.267 207.455 L 132.267 186.642 135.185 185.891 C 139.000 184.908,145.833 181.496,149.383 178.801 C 160.917 170.044,167.958 155.546,170.947 134.400 C 172.009 126.892,172.015 103.833,170.958 94.080 C 169.425 79.944,167.022 65.203,164.000 51.413 C 160.670 36.215,154.527 13.710,152.787 10.335 C 151.690 8.207,149.537 6.210,147.200 5.154 C 145.338 4.311,144.519 4.286,119.893 4.293 C 95.679 4.300,94.430 4.339,92.858 5.124 M190.754 4.944 C 186.590 6.454,183.329 9.470,181.391 13.602 C 180.423 15.667,180.267 16.565,180.267 20.062 C 180.267 23.783,180.383 24.361,181.653 26.941 C 183.297 30.281,185.975 32.902,189.365 34.492 C 191.481 35.483,192.325 35.627,196.053 35.627 C 199.793 35.627,200.622 35.485,202.767 34.480 C 204.113 33.849,206.135 32.409,207.261 31.280 C 214.865 23.650,212.968 11.063,203.444 5.959 C 201.005 4.652,200.358 4.502,196.693 4.387 C 193.775 4.295,192.112 4.451,190.754 4.944 M135.407 35.520 C 137.159 42.049,141.213 58.999,141.223 59.840 C 141.225 60.016,131.723 60.160,120.107 60.160 C 99.277 60.160,98.987 60.148,98.987 59.307 C 98.987 57.689,105.281 31.847,106.443 28.693 C 106.595 28.282,109.708 28.160,120.036 28.160 L 133.431 28.160 135.407 35.520 M219.520 40.679 C 216.870 41.555,215.104 42.590,213.090 44.446 C 210.595 46.746,209.137 49.363,208.411 52.844 C 206.891 60.133,210.553 67.248,217.514 70.534 C 220.025 71.719,220.816 71.884,224.000 71.884 C 227.184 71.884,227.975 71.719,230.486 70.534 C 240.984 65.578,243.220 52.107,234.829 44.372 C 231.908 41.679,228.744 40.397,224.640 40.242 C 222.602 40.166,220.539 40.341,219.520 40.679 M145.675 85.653 C 147.361 96.185,148.278 113.549,147.668 123.423 C 146.154 147.967,139.378 160.681,126.379 163.372 C 123.091 164.053,115.820 163.953,112.836 163.187 C 102.042 160.415,95.837 150.953,93.122 133.120 C 92.524 129.195,92.380 125.525,92.400 114.773 C 92.425 101.948,92.553 99.837,94.122 86.507 L 94.411 84.053 119.915 84.053 L 145.418 84.053 145.675 85.653 M197.091 88.306 C 188.923 89.763,182.844 98.138,184.201 106.063 C 185.156 111.634,188.439 116.147,193.264 118.518 C 195.358 119.548,196.113 119.680,199.893 119.680 C 203.622 119.680,204.465 119.537,206.581 118.545 C 212.154 115.933,215.486 110.971,215.803 104.813 C 215.946 102.055,215.800 100.816,215.102 98.838 C 212.505 91.478,204.746 86.941,197.091 88.306 " stroke="none" fill-rule="evenodd"></path></svg>