<svg fill="currentColor" viewBox="0 0 256 256" xmlns="http://www.w3.org/2000/svg"><path d="M123.850 20.759 C 121.452 21.608,118.046 24.731,117.061 26.983 C 116.307 28.708,116.256 31.148,116.053 75.219 L 115.840 121.639 77.013 144.231 C 35.380 168.457,35.397 168.446,33.962 172.658 C 32.410 177.213,33.303 180.643,37.802 187.401 C 53.264 210.627,76.527 226.841,103.467 233.170 C 112.714 235.342,116.456 235.733,128.000 235.733 C 136.546 235.733,139.887 235.566,143.573 234.953 C 162.717 231.769,178.415 225.174,193.182 214.110 C 198.428 210.180,207.741 201.136,212.045 195.792 C 241.331 159.438,243.973 108.227,218.571 69.333 C 206.045 50.154,187.932 35.486,166.420 27.101 C 152.860 21.816,130.341 18.461,123.850 20.759 M85.760 29.068 C 81.365 29.828,68.256 37.536,59.947 44.245 C 55.048 48.201,47.486 55.825,43.527 60.800 C 34.921 71.615,28.138 84.814,24.242 98.325 C 21.070 109.330,19.831 119.229,20.159 130.966 C 20.346 137.626,20.523 139.254,21.280 141.240 C 22.253 143.797,24.797 146.595,27.287 147.850 C 29.234 148.830,33.562 149.157,35.672 148.482 C 38.561 147.558,94.376 116.417,96.272 114.672 C 97.242 113.778,98.490 112.043,99.045 110.817 L 100.053 108.587 100.180 75.542 C 100.314 40.378,100.202 37.901,98.335 34.715 C 95.814 30.413,90.857 28.187,85.760 29.068 M148.693 46.723 C 161.457 49.911,173.542 56.296,183.717 65.228 C 187.311 68.383,193.707 75.259,193.707 75.968 C 193.707 76.138,182.235 82.961,168.213 91.129 C 154.192 99.298,142.096 106.346,141.333 106.793 L 139.947 107.604 139.947 76.229 L 139.947 44.854 141.547 45.095 C 142.427 45.228,145.643 45.961,148.693 46.723 M75.932 80.747 L 75.918 99.200 60.360 107.802 L 44.802 116.404 45.069 114.629 C 45.663 110.677,48.214 101.493,49.889 97.280 C 54.572 85.500,62.993 73.381,71.950 65.529 C 73.980 63.749,75.709 62.293,75.794 62.293 C 75.878 62.293,75.940 70.597,75.932 80.747 M208.836 105.600 C 213.574 122.848,212.647 141.877,206.271 158.217 C 195.590 185.590,172.193 204.979,143.028 210.627 C 137.847 211.630,136.143 211.761,128.213 211.766 C 120.882 211.771,118.361 211.608,114.347 210.866 C 98.010 207.847,84.045 201.145,72.082 190.583 C 68.299 187.243,62.702 181.243,62.734 180.562 C 62.742 180.400,72.667 174.507,84.789 167.467 C 96.911 160.427,129.112 141.680,156.348 125.808 L 205.867 96.949 206.648 98.715 C 207.078 99.686,208.062 102.784,208.836 105.600 " stroke="none" fill-rule="evenodd"></path></svg>