<svg fill="currentColor" viewBox="0 0 256 256" xmlns="http://www.w3.org/2000/svg"><path d="M87.303 20.095 C 58.634 23.119,33.584 40.430,20.698 66.123 C 17.737 72.029,14.386 81.958,13.136 88.533 C 12.295 92.959,12.163 95.014,12.166 103.680 C 12.169 112.375,12.298 114.358,13.139 118.613 C 14.271 124.345,16.478 131.667,18.497 136.394 L 19.924 139.733 15.955 153.600 C 13.397 162.539,11.979 168.231,11.966 169.617 C 11.943 172.177,12.875 175.985,14.125 178.435 C 15.383 180.900,18.798 184.392,21.263 185.734 C 24.165 187.314,28.691 188.297,31.469 187.951 C 32.702 187.797,39.670 185.969,46.953 183.888 L 60.196 180.104 64.338 181.761 C 69.336 183.760,74.845 185.387,79.938 186.366 L 83.716 187.093 85.213 190.059 C 96.442 212.299,117.442 228.497,142.145 233.972 C 149.432 235.587,155.034 236.091,162.767 235.827 C 173.288 235.469,181.664 233.730,191.485 229.865 L 195.920 228.119 209.654 232.033 C 224.823 236.355,226.516 236.595,231.315 235.104 C 234.993 233.961,238.170 231.713,240.411 228.669 C 243.051 225.082,243.852 222.504,243.784 217.813 C 243.733 214.318,243.382 212.791,239.879 200.820 L 236.030 187.667 237.218 185.034 C 240.200 178.423,242.762 168.409,243.606 160.061 C 246.446 131.986,234.200 103.425,211.840 85.973 C 201.343 77.780,188.828 72.066,176.080 69.646 L 172.321 68.932 170.377 65.079 C 155.133 34.873,121.233 16.516,87.303 20.095 M107.537 45.210 C 131.805 49.914,150.907 69.463,155.050 93.835 C 155.932 99.028,155.949 109.141,155.083 114.184 C 152.990 126.370,147.210 137.433,138.267 146.371 C 131.260 153.375,124.147 157.769,114.825 160.853 C 108.220 163.039,102.822 163.891,95.651 163.881 C 86.251 163.868,78.501 162.057,69.547 157.780 C 62.737 154.527,61.986 154.544,49.280 158.215 C 43.648 159.842,38.996 161.137,38.941 161.092 C 38.887 161.048,40.193 156.320,41.844 150.586 C 45.553 137.703,45.554 137.606,42.142 130.341 C 39.532 124.786,37.877 119.621,36.880 113.926 C 36.025 109.039,36.052 99.169,36.936 93.935 C 41.404 67.466,63.180 47.140,90.027 44.380 C 94.885 43.880,102.553 44.244,107.537 45.210 M184.863 97.458 C 199.629 104.117,211.633 117.361,216.753 132.643 C 222.021 148.367,220.668 165.105,212.882 180.528 C 210.582 185.086,210.668 186.333,214.118 198.397 C 215.762 204.145,217.040 208.915,216.959 208.997 C 216.877 209.079,212.332 207.860,206.858 206.289 C 194.095 202.625,193.409 202.600,187.011 205.573 C 184.454 206.762,180.872 208.234,179.051 208.845 C 157.340 216.133,133.293 210.341,117.205 193.949 C 114.582 191.275,111.114 186.956,111.407 186.727 C 111.498 186.656,113.397 186.154,115.627 185.612 C 131.097 181.850,144.649 174.191,155.809 162.900 C 171.993 146.527,180.923 123.614,179.928 101.013 C 179.751 96.989,179.820 95.574,180.191 95.575 C 180.467 95.577,182.570 96.424,184.863 97.458 " stroke="none" fill-rule="evenodd"></path></svg>