<svg fill="currentColor" viewBox="0 0 256 256" xmlns="http://www.w3.org/2000/svg"><path d="M87.467 20.537 C 71.058 22.214,54.641 29.178,41.813 39.902 C 25.388 53.634,14.593 74.196,12.394 95.939 C 12.121 98.635,11.947 114.274,11.947 136.062 C 11.947 174.377,11.935 174.141,14.125 178.435 C 15.382 180.899,18.797 184.392,21.259 185.732 C 25.598 188.093,26.375 188.147,56.379 188.154 L 83.957 188.160 86.199 192.107 C 98.386 213.557,116.768 227.675,140.183 233.568 C 149.235 235.846,151.412 235.947,191.550 235.947 C 227.247 235.947,228.703 235.916,231.315 235.104 C 234.993 233.961,238.170 231.713,240.411 228.669 C 244.065 223.705,243.840 226.726,243.840 182.613 C 243.840 144.134,243.826 143.499,242.893 138.370 C 239.550 120.003,231.658 104.794,218.965 92.262 C 207.440 80.883,191.695 72.523,176.490 69.710 L 172.287 68.932 170.455 65.293 C 164.383 53.232,154.114 41.814,142.334 34.025 C 126.439 23.514,106.441 18.598,87.467 20.537 M107.323 45.168 C 131.858 49.927,151.142 69.630,155.090 93.972 C 155.913 99.047,155.923 109.310,155.109 113.977 C 152.926 126.496,147.280 137.348,138.259 146.363 C 131.253 153.366,124.178 157.745,114.825 160.869 C 105.563 163.963,105.655 163.956,69.013 164.156 L 36.267 164.335 36.268 131.128 C 36.270 94.613,36.312 93.892,38.882 85.868 C 44.785 67.441,59.205 52.906,77.440 47.003 C 80.842 45.902,86.501 44.722,90.880 44.200 C 94.004 43.828,103.213 44.370,107.323 45.168 M185.576 97.750 C 200.454 104.710,212.896 119.159,217.403 134.712 C 219.853 143.165,219.821 142.622,220.036 178.667 L 220.235 212.053 188.506 212.053 C 169.050 212.053,155.379 211.881,153.162 211.608 C 139.671 209.945,127.191 203.898,117.721 194.435 C 114.717 191.433,111.074 186.987,111.407 186.727 C 111.498 186.656,113.397 186.154,115.627 185.612 C 131.097 181.850,144.649 174.191,155.809 162.900 C 172.005 146.515,180.923 123.616,179.927 100.974 L 179.685 95.496 180.829 95.780 C 181.459 95.937,183.595 96.823,185.576 97.750 " stroke="none" fill-rule="evenodd"></path></svg>