<svg fill="currentColor" viewBox="0 0 256 256" xmlns="http://www.w3.org/2000/svg"><path d="M122.226 20.503 C 113.888 21.313,103.909 23.550,96.537 26.262 C 94.247 27.104,89.493 29.208,85.973 30.937 C 57.186 45.074,36.540 71.840,30.128 103.335 C 28.220 112.711,28.160 114.553,28.160 164.212 C 28.160 209.474,28.195 211.665,28.968 214.148 C 30.896 220.342,35.729 225.116,42.240 227.259 C 44.426 227.979,47.400 228.042,85.760 228.174 C 138.719 228.358,145.550 228.009,158.933 224.439 C 191.829 215.663,218.955 190.502,230.129 158.400 C 233.717 148.092,235.445 138.651,235.811 127.360 C 236.409 108.892,232.660 92.304,224.222 76.082 C 215.649 59.602,203.034 45.948,186.880 35.667 C 182.726 33.023,172.859 28.220,167.569 26.267 C 154.025 21.267,136.844 19.083,122.226 20.503 M139.155 44.384 C 167.490 47.191,191.164 63.492,203.727 88.847 C 216.148 113.915,214.329 144.067,198.976 167.621 C 188.544 183.625,172.492 195.569,154.470 200.737 C 143.636 203.843,146.375 203.696,96.747 203.844 L 52.053 203.976 52.053 161.918 C 52.053 135.244,52.218 118.344,52.505 115.717 C 54.139 100.715,59.219 87.866,68.346 75.651 C 84.502 54.029,112.355 41.730,139.155 44.384 M102.860 112.890 C 100.169 113.867,98.190 115.213,96.086 117.500 C 93.109 120.734,92.401 122.752,92.401 128.000 C 92.401 133.332,93.124 135.319,96.292 138.706 C 98.926 141.523,101.198 142.818,104.838 143.577 C 113.724 145.429,121.921 139.737,123.793 130.413 C 125.066 124.075,121.158 116.707,114.899 113.645 C 112.892 112.663,111.809 112.437,108.611 112.332 C 105.862 112.242,104.202 112.403,102.860 112.890 M150.071 113.222 C 146.945 114.538,144.260 116.735,142.583 119.348 C 141.163 121.561,139.947 125.552,139.947 128.000 C 139.947 130.437,141.161 134.436,142.565 136.624 C 146.854 143.308,155.641 145.815,162.870 142.417 C 165.856 141.013,168.776 138.078,170.334 134.914 C 171.618 132.305,171.733 131.738,171.733 128.009 C 171.733 124.502,171.578 123.616,170.598 121.525 C 169.077 118.279,166.539 115.622,163.308 113.890 C 160.910 112.605,160.230 112.447,156.587 112.323 C 153.064 112.203,152.211 112.321,150.071 113.222 " stroke="none" fill-rule="evenodd"></path></svg>