<svg fill="currentColor" viewBox="0 0 256 256" xmlns="http://www.w3.org/2000/svg"><path d="M42.621 28.778 C 37.215 30.269,32.466 34.310,29.967 39.543 L 28.373 42.880 28.373 128.000 L 28.373 213.120 29.958 216.440 C 33.070 222.956,38.805 227.007,46.107 227.846 C 50.959 228.404,205.041 228.404,209.893 227.846 C 219.655 226.724,226.724 219.655,227.846 209.893 C 228.404 205.041,228.404 50.959,227.846 46.107 C 226.875 37.658,221.143 30.874,213.184 28.755 C 210.056 27.922,45.644 27.945,42.621 28.778 M203.947 128.000 L 203.947 203.947 128.000 203.947 L 52.053 203.947 52.053 128.000 L 52.053 52.053 128.000 52.053 L 203.947 52.053 203.947 128.000 M163.791 92.749 C 162.943 93.052,161.695 93.703,161.018 94.196 C 160.341 94.689,149.038 105.854,135.901 119.007 L 112.015 142.921 103.474 134.444 C 98.777 129.781,94.261 125.623,93.440 125.204 C 92.560 124.755,90.625 124.364,88.728 124.252 C 84.538 124.003,81.853 125.080,79.138 128.099 C 75.981 131.612,75.202 135.757,76.855 140.251 C 77.691 142.523,78.824 143.786,91.042 156.072 C 106.000 171.113,107.101 171.947,112.000 171.947 C 117.258 171.947,116.507 172.594,148.758 140.281 C 169.158 119.842,178.118 110.583,178.779 109.258 C 182.679 101.439,176.865 92.137,168.107 92.183 C 166.581 92.191,164.639 92.445,163.791 92.749 " stroke="none" fill-rule="evenodd"></path></svg>