<svg fill="currentColor" viewBox="0 0 256 256" xmlns="http://www.w3.org/2000/svg"><path d="M42.621 28.778 C 37.215 30.269,32.466 34.310,29.967 39.543 L 28.373 42.880 28.251 92.373 C 28.164 127.360,28.265 142.367,28.597 143.573 C 29.863 148.183,34.802 151.893,39.672 151.893 C 43.319 151.893,45.934 150.815,48.494 148.255 C 52.288 144.461,52.053 147.855,52.053 96.776 L 52.053 52.053 128.000 52.053 L 203.947 52.053 203.947 127.988 L 203.947 203.922 170.347 204.041 L 136.747 204.160 134.471 205.420 C 125.566 210.353,126.088 222.848,135.375 227.047 L 137.600 228.053 171.687 228.177 C 192.630 228.253,207.258 228.135,209.624 227.871 C 219.640 226.752,226.710 219.777,227.846 209.893 C 228.404 205.041,228.404 50.959,227.846 46.107 C 226.875 37.658,221.143 30.874,213.184 28.755 C 210.056 27.922,45.644 27.945,42.621 28.778 M115.627 148.752 C 113.999 149.332,109.928 153.206,88.856 174.227 L 64.005 199.018 55.363 190.459 C 45.378 180.572,44.172 179.800,39.269 180.152 C 30.567 180.777,25.611 189.371,29.285 197.465 C 30.250 199.590,56.410 225.750,58.535 226.715 C 62.087 228.327,65.907 228.328,69.465 226.716 C 71.709 225.700,129.726 167.635,130.797 165.333 C 131.251 164.357,131.664 162.316,131.761 160.564 C 131.903 157.988,131.764 157.139,130.885 155.230 C 129.686 152.624,127.682 150.499,125.227 149.228 C 122.956 148.053,118.246 147.820,115.627 148.752 " stroke="none" fill-rule="evenodd"></path></svg>