<svg fill="currentColor" viewBox="0 0 256 256" xmlns="http://www.w3.org/2000/svg"><path d="M86.132 28.208 C 82.212 28.790,67.752 37.108,60.888 42.731 C 39.091 60.587,25.358 84.577,21.114 112.213 C 20.150 118.490,19.823 130.957,20.447 137.654 C 22.343 158.001,29.542 176.606,41.969 193.280 C 45.857 198.497,57.503 210.143,62.720 214.031 C 82.118 228.489,104.332 235.947,128.000 235.947 C 151.668 235.947,173.882 228.489,193.280 214.031 C 198.497 210.143,210.143 198.497,214.031 193.280 C 226.458 176.606,233.657 158.001,235.553 137.654 C 236.177 130.957,235.850 118.490,234.886 112.213 C 229.456 76.856,207.551 46.371,176.437 30.868 C 171.139 28.229,170.737 28.100,167.826 28.109 C 162.547 28.126,158.378 30.937,156.605 35.675 C 155.500 38.629,155.500 41.158,156.606 44.113 C 157.863 47.472,160.160 49.533,165.935 52.481 C 177.175 58.217,187.471 66.820,194.780 76.584 C 214.081 102.368,217.344 137.102,203.115 165.333 C 194.656 182.119,182.217 194.620,165.760 202.878 C 145.366 213.110,123.312 214.786,101.789 207.739 C 79.932 200.582,62.108 184.822,52.069 163.778 C 37.208 132.622,43.520 94.236,67.623 69.178 C 74.924 61.587,81.759 56.563,91.114 51.912 C 95.765 49.599,98.200 47.305,99.394 44.113 C 100.500 41.158,100.500 38.629,99.395 35.675 C 97.412 30.375,92.014 27.336,86.132 28.208 " stroke="none" fill-rule="evenodd"></path></svg>