<svg fill="currentColor" viewBox="0 0 256 256" xmlns="http://www.w3.org/2000/svg"><path d="M69.333 36.893 C 46.403 42.161,32.152 64.020,36.919 86.613 C 40.127 101.817,51.420 113.872,66.773 118.482 C 70.278 119.534,71.247 119.636,77.867 119.653 C 85.817 119.673,88.453 119.176,94.862 116.449 C 103.935 112.588,112.601 103.904,116.481 94.785 C 119.174 88.458,119.673 85.796,119.653 77.867 C 119.636 71.247,119.534 70.278,118.482 66.773 C 114.225 52.596,103.656 41.895,89.787 37.722 C 86.442 36.715,85.108 36.558,78.933 36.439 C 74.035 36.346,71.115 36.484,69.333 36.893 M169.435 36.926 C 165.266 37.830,162.685 38.761,158.716 40.790 C 148.602 45.963,140.951 55.340,137.518 66.773 C 136.466 70.278,136.364 71.247,136.347 77.867 C 136.331 84.174,136.455 85.559,137.299 88.484 C 141.699 103.743,152.257 114.301,167.516 118.701 C 170.441 119.545,171.826 119.669,178.133 119.653 C 184.753 119.636,185.722 119.534,189.227 118.482 C 197.743 115.925,205.363 110.900,210.542 104.428 C 220.533 91.941,222.721 76.238,216.535 61.417 C 211.375 49.054,199.908 39.737,186.341 36.883 C 182.637 36.104,173.112 36.128,169.435 36.926 M85.891 61.998 C 92.561 65.294,96.484 72.121,95.869 79.360 C 94.901 90.764,83.702 98.523,73.013 95.196 C 67.686 93.538,64.103 90.432,61.724 85.410 C 60.461 82.744,60.374 82.256,60.378 77.867 C 60.383 73.460,60.467 73.002,61.748 70.374 C 63.998 65.761,68.771 61.798,73.600 60.535 C 74.304 60.351,76.634 60.247,78.778 60.304 C 82.308 60.399,82.978 60.558,85.891 61.998 M185.293 61.579 C 188.717 63.114,192.544 66.871,194.252 70.374 C 195.533 73.002,195.617 73.460,195.622 77.867 C 195.626 82.256,195.539 82.744,194.276 85.410 C 188.512 97.578,172.573 99.663,164.158 89.350 C 156.101 79.476,160.297 65.305,172.581 60.900 C 175.774 59.755,181.965 60.086,185.293 61.579 M69.547 136.914 C 59.205 139.206,50.740 144.505,44.776 152.420 C 33.805 166.980,33.062 185.773,42.856 200.983 C 45.502 205.091,51.395 210.902,55.508 213.459 C 71.043 223.114,90.132 221.980,104.414 210.553 C 110.901 205.363,115.923 197.750,118.482 189.227 C 119.534 185.722,119.636 184.753,119.653 178.133 C 119.673 170.183,119.176 167.547,116.449 161.138 C 113.768 154.839,107.652 147.414,101.864 143.431 C 98.727 141.273,92.278 138.331,88.533 137.350 C 83.543 136.043,74.423 135.833,69.547 136.914 M173.665 136.822 C 172.547 137.232,170.839 138.439,169.540 139.737 C 166.258 143.020,165.973 144.333,165.973 156.205 L 165.973 165.908 155.413 166.067 C 143.663 166.243,143.123 166.354,139.906 169.261 C 137.467 171.464,136.437 173.710,136.199 177.339 C 136.030 179.932,136.157 180.726,137.049 182.675 C 138.356 185.530,140.363 187.569,143.138 188.861 C 145.197 189.820,145.681 189.858,155.627 189.862 L 165.973 189.867 165.973 199.877 C 165.973 208.916,166.058 210.114,166.846 212.219 C 169.300 218.779,176.881 221.803,183.165 218.729 C 184.492 218.079,186.245 216.769,187.059 215.818 C 189.620 212.826,189.867 211.437,189.867 200.031 L 189.867 189.867 200.031 189.867 C 211.437 189.867,212.826 189.620,215.818 187.059 C 221.048 182.582,221.324 174.579,216.420 169.606 C 213.270 166.413,212.329 166.204,200.427 166.053 L 189.867 165.919 189.862 155.600 C 189.858 145.682,189.819 145.196,188.861 143.138 C 187.673 140.587,185.727 138.541,183.311 137.303 C 180.958 136.097,176.280 135.863,173.665 136.822 M84.360 161.191 C 89.104 163.003,93.370 167.367,95.019 172.094 C 96.146 175.322,96.024 181.203,94.764 184.428 C 93.589 187.433,91.090 190.667,88.411 192.648 C 83.622 196.188,75.878 196.873,70.396 194.241 C 66.842 192.535,63.499 189.198,61.740 185.600 C 60.467 182.997,60.383 182.538,60.378 178.113 C 60.373 173.517,60.414 173.317,61.980 170.146 C 65.284 163.459,71.537 159.779,78.933 160.170 C 80.698 160.264,83.132 160.721,84.360 161.191 " stroke="none" fill-rule="evenodd"></path></svg>