<svg fill="currentColor" viewBox="0 0 256 256" xmlns="http://www.w3.org/2000/svg"><path d="M27.713 44.528 C 20.196 46.147,14.012 52.433,12.418 60.074 C 11.753 63.265,11.753 192.735,12.418 195.926 C 14.040 203.702,20.298 209.960,28.074 211.582 C 31.279 212.250,224.721 212.250,227.926 211.582 C 235.702 209.960,241.960 203.702,243.582 195.926 C 244.247 192.735,244.247 63.265,243.582 60.074 C 241.942 52.211,235.452 45.827,227.655 44.408 C 223.861 43.717,30.939 43.833,27.713 44.528 M220.160 128.213 L 220.160 188.160 128.213 188.160 L 36.267 188.160 36.267 128.213 L 36.267 68.267 128.213 68.267 L 220.160 68.267 220.160 128.213 M90.453 84.323 C 83.914 85.165,74.813 88.906,69.520 92.927 C 54.582 104.276,48.433 123.881,54.225 141.693 C 61.673 164.602,86.737 177.282,109.712 169.764 C 113.611 168.488,118.279 166.128,120.263 164.430 C 126.570 159.031,125.185 148.633,117.657 144.882 C 114.295 143.207,110.557 143.331,106.284 145.260 C 100.369 147.931,96.620 148.541,92.074 147.571 C 85.104 146.084,79.598 141.267,77.143 134.506 C 75.899 131.079,75.899 124.921,77.143 121.494 C 79.699 114.454,85.568 109.544,92.869 108.339 C 96.792 107.691,100.465 108.283,105.238 110.333 C 109.803 112.294,112.173 112.572,115.485 111.537 C 118.810 110.497,122.003 107.388,123.082 104.141 C 124.525 99.797,123.396 94.878,120.230 91.707 C 118.382 89.857,111.220 86.499,106.667 85.349 C 103.089 84.445,93.982 83.868,90.453 84.323 M168.121 84.775 C 156.200 86.892,145.639 93.982,138.960 104.352 C 133.661 112.578,131.120 123.147,132.233 132.329 C 134.562 151.548,147.006 165.838,165.724 170.790 C 170.726 172.113,181.300 172.106,186.333 170.776 C 193.478 168.888,199.591 165.705,201.933 162.655 C 205.356 158.195,204.903 151.254,200.927 147.270 C 198.507 144.844,195.895 143.787,192.322 143.787 C 189.623 143.787,188.774 143.992,186.020 145.312 C 180.281 148.062,176.149 148.657,171.389 147.417 C 162.229 145.031,156.160 137.293,156.160 128.000 C 156.160 118.136,162.971 110.100,172.825 108.339 C 176.717 107.644,180.825 108.322,185.378 110.411 C 188.288 111.747,189.247 111.981,191.787 111.979 C 198.625 111.974,203.653 107.025,203.686 100.267 C 203.711 95.142,201.226 91.459,195.959 88.812 C 187.526 84.574,177.464 83.115,168.121 84.775 " stroke="none" fill-rule="evenodd"></path></svg>