<svg fill="currentColor" viewBox="0 0 256 256" xmlns="http://www.w3.org/2000/svg"><path d="M72.533 21.732 C 67.163 23.372,63.538 28.042,63.594 33.249 C 63.606 34.322,64.145 38.110,64.792 41.667 L 65.968 48.134 62.744 49.649 C 58.241 51.765,53.223 54.942,49.699 57.907 L 46.704 60.426 40.739 56.252 C 33.885 51.456,31.785 50.571,27.976 50.877 C 24.908 51.123,23.218 51.905,20.660 54.263 C 16.269 58.310,15.886 65.664,19.825 70.267 C 20.939 71.568,26.671 75.880,32.559 79.846 C 32.797 80.006,32.500 81.333,31.843 83.054 C 30.068 87.696,28.578 94.165,28.293 98.453 C 28.149 100.624,28.012 102.400,27.989 102.400 C 26.257 102.412,12.971 105.214,11.677 105.840 C 7.901 107.669,5.120 112.181,5.120 116.480 C 5.120 122.798,10.644 128.427,16.845 128.427 C 17.812 128.427,21.282 127.947,24.555 127.362 C 27.829 126.776,30.897 126.296,31.373 126.295 C 32.045 126.294,32.596 127.077,33.823 129.778 L 35.406 133.262 34.236 134.697 C 27.047 143.513,23.269 151.145,21.070 161.302 C 19.978 166.346,19.962 177.557,21.040 182.613 C 22.754 190.659,26.413 199.045,30.819 205.029 C 33.779 209.051,40.076 215.202,43.960 217.867 C 52.560 223.768,61.852 227.002,72.606 227.838 C 79.334 228.361,151.248 228.367,160.000 227.846 C 176.466 226.864,191.337 221.504,203.938 212.009 C 231.888 190.947,242.943 154.633,231.459 121.600 C 227.290 109.608,220.812 99.570,211.354 90.448 C 199.043 78.573,184.225 71.324,167.266 68.878 C 160.923 67.963,147.179 68.210,141.461 69.342 L 137.641 70.098 136.554 68.676 C 135.956 67.894,134.651 66.294,133.653 65.119 C 132.656 63.945,131.840 62.825,131.840 62.631 C 131.840 62.436,133.568 59.809,135.680 56.793 C 140.706 49.615,141.391 48.052,141.127 44.365 C 140.652 37.726,135.887 33.280,129.248 33.280 C 124.266 33.280,121.747 34.897,117.652 40.723 C 115.993 43.083,113.990 45.910,113.200 47.006 L 111.764 48.998 109.230 47.968 C 105.371 46.400,99.268 44.944,94.322 44.412 C 91.874 44.149,89.806 43.869,89.727 43.789 C 89.648 43.710,89.024 40.537,88.341 36.738 C 87.656 32.931,86.687 28.980,86.180 27.934 C 83.866 23.153,77.442 20.234,72.533 21.732 M98.347 69.539 C 103.790 71.286,109.738 74.800,112.974 78.180 L 114.375 79.643 111.481 81.568 C 104.422 86.264,96.739 93.550,91.749 100.280 C 88.793 104.267,84.940 110.635,83.473 113.958 L 82.510 116.140 75.495 116.237 C 68.193 116.338,64.705 116.869,58.584 118.813 L 55.515 119.787 54.440 116.747 C 52.721 111.879,52.457 110.564,52.204 105.600 C 51.873 99.130,52.932 94.068,55.850 88.167 C 59.562 80.660,64.868 75.370,72.384 71.681 C 78.009 68.920,81.420 68.251,88.960 68.429 C 94.131 68.552,95.933 68.765,98.347 69.539 M165.760 92.852 C 182.387 95.555,197.650 106.718,205.562 121.964 C 210.053 130.616,211.759 137.640,211.793 147.627 C 211.819 154.995,211.305 158.661,209.401 164.693 C 202.946 185.147,185.897 199.805,164.480 203.314 C 161.272 203.840,153.377 203.944,116.533 203.945 C 73.431 203.947,72.340 203.927,68.666 203.064 C 57.414 200.422,48.289 191.566,45.176 180.267 C 43.853 175.467,43.856 168.380,45.183 163.627 C 46.760 157.975,49.161 153.932,53.547 149.547 C 59.217 143.877,65.428 140.942,73.387 140.171 L 76.160 139.903 76.170 143.445 C 76.183 147.625,77.060 149.922,79.622 152.485 C 85.531 158.393,95.611 156.449,99.004 148.746 C 99.430 147.778,99.997 144.995,100.263 142.561 C 102.136 125.445,110.836 110.831,124.685 101.535 C 136.937 93.312,150.696 90.403,165.760 92.852 " stroke="none" fill-rule="evenodd"></path></svg>