<svg fill="currentColor" viewBox="0 0 256 256" xmlns="http://www.w3.org/2000/svg"><path d="M42.880 29.166 C 36.906 31.960,34.336 38.891,37.043 44.906 C 37.560 46.056,44.044 53.518,54.747 65.280 L 71.635 83.840 66.218 84.334 C 56.690 85.204,48.944 87.449,40.533 91.781 C 15.350 104.749,0.780 132.525,4.477 160.511 C 6.485 175.712,13.033 189.113,23.699 199.852 C 35.073 211.303,49.278 218.023,65.707 219.725 C 71.260 220.301,160.768 220.287,167.467 219.710 C 173.596 219.182,181.671 217.614,186.870 215.942 L 190.658 214.724 195.592 220.175 C 201.608 226.823,202.957 227.632,208.000 227.615 C 210.649 227.606,211.800 227.399,213.139 226.691 C 215.476 225.456,218.158 222.456,219.076 220.051 C 220.011 217.602,219.834 212.999,218.715 210.689 C 218.295 209.822,181.389 168.893,136.702 119.737 C 46.388 20.392,53.907 28.156,48.023 28.164 C 45.767 28.167,44.479 28.418,42.880 29.166 M153.781 36.287 C 141.148 37.112,129.195 40.456,117.703 46.380 C 111.974 49.333,110.430 50.615,108.934 53.662 C 104.867 61.943,111.299 71.463,120.462 70.726 C 122.606 70.554,124.121 70.001,128.640 67.741 C 136.477 63.822,143.262 61.635,150.751 60.615 C 155.492 59.969,165.477 60.056,170.240 60.786 C 200.254 65.381,223.419 89.085,227.447 119.323 C 228.164 124.707,227.715 136.465,226.592 141.703 C 224.782 150.145,221.570 157.800,216.576 165.576 C 212.281 172.264,211.734 175.156,213.832 180.099 C 216.977 187.512,227.454 189.390,233.071 183.547 C 235.499 181.021,239.196 175.165,242.305 168.919 C 249.560 154.343,252.955 137.507,251.781 121.923 C 249.076 85.999,226.876 55.615,193.707 42.439 C 185.692 39.255,176.127 37.019,168.303 36.498 C 160.553 35.983,158.826 35.957,153.781 36.287 M69.813 109.547 C 68.629 116.503,68.209 120.435,68.137 125.227 C 68.057 130.523,68.107 130.883,69.248 133.207 C 70.524 135.805,72.009 137.289,74.830 138.786 C 76.214 139.521,77.311 139.719,80.000 139.719 C 82.689 139.719,83.786 139.521,85.170 138.786 C 87.963 137.304,89.473 135.810,90.685 133.335 C 91.661 131.340,91.865 130.197,92.198 124.871 C 92.410 121.484,92.966 116.818,93.434 114.503 C 93.902 112.188,94.287 110.149,94.289 109.973 C 94.292 109.797,94.476 109.653,94.699 109.653 C 94.922 109.653,112.514 128.802,133.792 152.207 L 172.480 194.760 171.040 195.080 C 166.547 196.078,153.524 196.314,111.573 196.160 C 68.584 196.001,67.080 195.969,63.360 195.116 C 54.510 193.087,47.728 189.406,41.543 183.276 C 33.773 175.573,29.630 166.865,28.580 156.026 C 26.318 132.656,43.285 111.443,66.675 108.401 C 68.137 108.210,69.502 108.031,69.709 108.001 C 69.916 107.971,69.962 108.667,69.813 109.547 " stroke="none" fill-rule="evenodd"></path></svg>