<svg fill="currentColor" viewBox="0 0 256 256" xmlns="http://www.w3.org/2000/svg"><path d="M122.240 29.577 C 113.937 33.653,16.694 86.383,15.646 87.377 C 14.975 88.013,13.917 89.493,13.294 90.667 L 12.160 92.800 12.160 128.000 L 12.160 163.200 13.417 165.469 C 14.109 166.718,15.272 168.264,16.003 168.905 C 17.212 169.967,117.529 224.249,122.918 226.757 C 126.106 228.241,129.894 228.241,133.082 226.757 C 138.775 224.107,238.824 169.935,240.109 168.807 C 240.900 168.112,242.064 166.566,242.694 165.372 L 243.840 163.200 243.840 128.000 L 243.840 92.800 242.583 90.531 C 241.891 89.282,240.733 87.746,240.009 87.117 C 239.284 86.488,214.607 73.013,185.170 57.173 L 131.648 28.373 128.437 28.242 C 125.505 28.122,124.968 28.238,122.240 29.577 M115.738 96.892 C 115.442 97.170,83.676 114.347,83.458 114.347 C 83.406 114.347,75.728 110.239,66.396 105.219 C 54.801 98.981,49.608 95.975,49.994 95.727 C 50.305 95.527,65.248 87.451,83.200 77.780 L 115.840 60.196 115.951 78.392 C 116.013 88.400,115.917 96.725,115.738 96.892 M173.227 77.980 C 190.475 87.246,205.039 95.109,205.591 95.453 C 206.559 96.055,205.973 96.413,189.591 105.232 L 172.587 114.385 169.387 112.682 C 167.627 111.745,160.331 107.820,153.173 103.961 L 140.160 96.943 140.049 78.534 L 139.938 60.125 140.902 60.629 C 141.433 60.906,155.979 68.714,173.227 77.980 M220.065 133.952 L 219.947 139.904 209.284 134.177 C 203.419 131.026,198.569 128.294,198.506 128.106 C 198.443 127.917,203.242 125.147,209.169 121.951 L 219.947 116.140 220.065 122.070 C 220.130 125.331,220.130 130.678,220.065 133.952 M47.142 122.119 C 52.894 125.221,57.600 127.888,57.600 128.045 C 57.600 128.323,37.030 139.520,36.520 139.520 C 36.380 139.520,36.267 134.336,36.267 128.000 C 36.267 121.664,36.361 116.480,36.475 116.480 C 36.590 116.480,41.390 119.018,47.142 122.119 M137.470 122.750 C 142.587 125.495,146.773 127.867,146.773 128.021 C 146.773 128.427,128.762 138.027,128.000 138.027 C 127.239 138.027,109.227 128.428,109.227 128.022 C 109.227 127.774,127.504 117.775,127.977 117.764 C 128.081 117.762,132.353 120.006,137.470 122.750 M100.587 150.918 L 116.053 159.226 116.053 177.540 L 116.053 195.854 114.027 194.820 C 112.912 194.252,97.923 186.204,80.717 176.937 C 59.452 165.483,49.614 159.971,49.997 159.724 C 50.307 159.524,57.938 155.387,66.955 150.532 C 80.973 142.983,83.478 141.769,84.235 142.157 C 84.722 142.407,92.080 146.350,100.587 150.918 M189.867 150.937 C 197.963 155.278,205.037 159.110,205.588 159.452 C 206.550 160.049,205.326 160.755,175.295 176.930 C 158.083 186.201,143.088 194.252,141.973 194.820 L 139.947 195.854 139.947 177.537 L 139.947 159.219 156.231 150.462 L 172.515 141.705 173.831 142.375 C 174.555 142.743,181.771 146.596,189.867 150.937 " stroke="none" fill-rule="evenodd"></path></svg>