<svg fill="currentColor" viewBox="0 0 256 256" xmlns="http://www.w3.org/2000/svg"><path d="M77.447 36.954 C 50.137 39.657,27.155 48.384,14.708 60.779 C 10.091 65.377,7.396 69.550,5.465 75.093 L 4.053 79.147 4.053 103.680 C 4.053 127.890,4.066 128.257,5.018 131.541 C 7.397 139.752,12.926 146.898,21.849 153.295 C 31.233 160.023,49.076 166.697,64.904 169.399 L 67.728 169.881 68.024 173.581 C 69.261 189.072,81.693 201.920,103.788 210.542 C 125.281 218.930,155.692 222.056,182.621 218.648 C 208.477 215.376,229.578 206.952,241.302 195.223 C 245.905 190.617,248.617 186.412,250.534 180.907 L 251.945 176.853 252.080 154.096 C 252.169 138.910,252.057 130.325,251.742 128.293 C 250.584 120.833,247.570 115.252,241.308 108.974 C 232.340 99.984,219.151 93.301,201.813 88.961 C 198.645 88.169,194.805 87.310,193.280 87.053 C 187.724 86.116,188.313 86.630,187.977 82.432 C 187.336 74.407,183.822 67.281,177.305 60.792 C 164.672 48.212,141.657 39.566,113.745 36.912 C 105.277 36.107,85.781 36.130,77.447 36.954 M109.867 60.609 C 132.486 62.552,152.020 69.197,160.504 77.834 C 165.107 82.520,164.943 85.965,159.893 90.742 C 151.784 98.411,135.866 104.213,115.413 106.955 C 111.102 107.533,106.778 107.698,96.000 107.698 C 85.222 107.698,80.898 107.533,76.587 106.955 C 56.134 104.213,40.216 98.411,32.107 90.742 C 27.057 85.965,26.893 82.520,31.496 77.834 C 39.854 69.325,59.533 62.554,81.493 60.632 C 87.417 60.114,103.945 60.100,109.867 60.609 M195.275 112.050 C 207.583 115.012,217.984 119.747,223.675 124.979 C 228.081 129.029,228.917 132.201,226.529 135.807 C 220.145 145.445,195.713 154.257,171.733 155.571 L 166.613 155.852 170.200 153.270 C 176.664 148.618,182.044 142.731,184.782 137.314 C 187.301 132.330,187.824 129.487,188.050 119.550 L 188.256 110.460 189.595 110.733 C 190.331 110.882,192.887 111.475,195.275 112.050 M42.240 123.423 C 45.173 124.475,48.581 125.588,49.813 125.895 L 52.053 126.455 52.053 134.051 L 52.053 141.646 50.240 140.941 C 39.119 136.612,32.329 132.274,29.367 127.602 C 28.255 125.850,28.160 125.372,28.160 121.546 L 28.160 117.393 32.533 119.451 C 34.939 120.583,39.307 122.370,42.240 123.423 M162.819 127.320 C 161.022 130.387,155.841 134.530,150.284 137.344 C 147.691 138.657,141.231 141.227,140.523 141.227 C 140.031 141.227,139.947 139.947,140.043 133.906 L 140.160 126.586 145.707 124.796 C 152.088 122.738,156.679 120.931,160.760 118.872 L 163.627 117.426 163.749 121.475 C 163.860 125.133,163.770 125.697,162.819 127.320 M96.000 131.627 C 102.923 131.627,110.267 131.482,112.320 131.304 L 116.053 130.982 116.053 138.858 L 116.053 146.735 114.667 146.974 C 111.855 147.459,101.592 148.051,96.000 148.051 C 90.408 148.051,80.145 147.459,77.333 146.974 L 75.947 146.735 75.947 138.858 L 75.947 130.982 79.680 131.304 C 81.733 131.482,89.077 131.627,96.000 131.627 M227.772 169.954 C 227.631 174.216,227.579 174.424,226.174 176.247 C 223.112 180.224,217.098 184.294,209.920 187.249 C 207.691 188.166,205.435 189.047,204.907 189.207 L 203.947 189.498 203.947 182.052 L 203.947 174.607 207.680 173.473 C 213.364 171.746,219.107 169.553,223.360 167.485 C 225.472 166.458,227.361 165.602,227.559 165.582 C 227.756 165.563,227.852 167.530,227.772 169.954 M111.835 173.284 L 116.053 174.621 116.053 182.059 L 116.053 189.498 115.093 189.209 C 112.467 188.419,105.730 185.381,102.860 183.692 C 97.085 180.295,92.897 176.166,92.325 173.307 L 92.053 171.947 99.835 171.947 C 107.374 171.947,107.749 171.988,111.835 173.284 M179.956 194.799 C 179.892 194.863,177.095 195.150,173.740 195.436 C 167.854 195.938,146.960 195.746,141.973 195.145 L 139.947 194.901 139.947 187.022 L 139.947 179.144 145.600 179.492 C 152.374 179.909,172.658 179.801,176.853 179.325 L 179.840 178.987 179.956 186.835 C 180.020 191.151,180.020 194.735,179.956 194.799 " stroke="none" fill-rule="evenodd"></path></svg>