<svg fill="currentColor" viewBox="0 0 256 256" xmlns="http://www.w3.org/2000/svg"><path d="M57.925 28.981 C 51.397 31.088,46.374 36.512,44.583 43.389 C 43.622 47.081,43.622 208.919,44.583 212.611 C 46.394 219.564,51.323 224.840,58.134 227.113 C 60.635 227.948,61.934 228.014,79.155 228.170 C 100.750 228.365,104.047 228.118,108.502 225.972 C 113.703 223.466,117.423 219.165,119.064 213.760 C 119.892 211.034,119.905 209.564,119.793 127.147 L 119.680 43.307 118.687 40.847 C 116.660 35.826,112.225 31.393,107.196 29.362 C 104.755 28.377,104.671 28.373,82.560 28.282 C 61.983 28.198,60.196 28.248,57.925 28.981 M150.100 28.984 C 143.680 31.037,138.909 35.821,136.945 42.178 C 136.124 44.834,136.107 46.601,136.107 128.000 C 136.107 209.399,136.124 211.166,136.945 213.822 C 138.605 219.195,142.328 223.482,147.498 225.972 C 151.953 228.118,155.250 228.365,176.845 228.170 C 194.066 228.014,195.365 227.948,197.866 227.113 C 204.677 224.840,209.606 219.564,211.417 212.611 C 212.378 208.919,212.378 47.081,211.417 43.389 C 209.605 36.433,204.552 31.028,197.935 28.968 C 195.526 28.219,193.780 28.162,173.935 28.183 C 154.438 28.204,152.317 28.275,150.100 28.984 M96.000 128.000 L 96.000 203.947 82.133 203.947 L 68.267 203.947 68.267 128.000 L 68.267 52.053 82.133 52.053 L 96.000 52.053 96.000 128.000 M188.160 128.000 L 188.160 203.947 174.080 203.947 L 160.000 203.947 160.000 128.000 L 160.000 52.053 174.080 52.053 L 188.160 52.053 188.160 128.000 " stroke="none" fill-rule="evenodd"></path></svg>