<svg fill="currentColor" viewBox="0 0 256 256" xmlns="http://www.w3.org/2000/svg"><path d="M134.873 5.195 C 132.557 6.341,130.441 8.417,129.176 10.785 C 128.228 12.559,128.213 12.821,128.213 27.947 C 128.213 42.961,128.235 43.346,129.153 45.063 C 132.163 50.689,137.699 53.139,143.555 51.437 C 146.748 50.509,150.115 47.306,151.178 44.187 C 152.205 41.173,152.248 14.845,151.230 11.859 C 150.328 9.212,148.073 6.699,145.409 5.371 C 142.432 3.887,137.675 3.808,134.873 5.195 M212.141 12.729 C 207.383 14.427,204.567 18.243,203.955 23.822 C 203.279 29.977,200.915 33.954,197.221 35.149 C 196.110 35.509,192.704 36.003,189.653 36.247 C 183.016 36.777,180.133 37.481,175.500 39.705 C 167.310 43.636,161.738 49.988,158.448 59.145 C 154.970 68.821,156.598 75.509,163.218 78.748 C 168.708 81.434,175.458 79.384,178.767 74.027 C 179.202 73.323,179.941 71.244,180.410 69.408 C 181.414 65.477,182.832 63.152,185.169 61.605 C 186.669 60.613,187.492 60.441,192.312 60.110 C 198.511 59.686,201.062 59.230,205.289 57.792 C 215.834 54.206,223.724 45.129,226.785 33.064 C 228.160 27.642,228.228 22.020,226.953 19.200 C 224.431 13.623,217.779 10.717,212.141 12.729 M96.473 44.408 C 91.084 45.466,85.093 50.011,82.780 54.794 C 82.091 56.220,69.570 90.219,54.956 130.347 L 28.385 203.307 28.379 208.213 C 28.373 212.986,28.415 213.207,29.921 216.320 C 32.571 221.801,36.273 225.118,41.836 226.997 C 44.125 227.770,45.267 227.895,48.640 227.738 L 52.693 227.551 125.653 201.001 C 165.781 186.398,199.632 173.989,200.877 173.425 C 204.034 171.994,208.237 167.838,209.837 164.565 C 213.240 157.604,212.570 149.979,208.022 143.904 C 207.007 142.549,184.987 120.306,159.088 94.475 C 115.614 51.113,111.787 47.408,109.227 46.189 C 104.967 44.161,100.738 43.570,96.473 44.408 M224.853 64.363 C 217.931 66.668,211.473 68.962,210.503 69.461 C 206.357 71.591,204.189 75.199,204.173 80.000 C 204.156 84.814,206.701 88.804,211.139 90.920 C 214.968 92.747,216.611 92.461,232.087 87.280 C 245.281 82.863,246.030 82.555,247.946 80.763 C 250.704 78.183,251.873 75.611,251.893 72.077 C 251.922 67.041,248.712 62.381,244.141 60.823 C 240.267 59.503,238.436 59.839,224.853 64.363 M183.990 154.079 C 183.819 154.237,177.666 156.532,170.316 159.179 L 156.952 163.992 124.479 131.518 L 92.006 99.045 96.830 85.683 C 99.483 78.333,101.751 72.154,101.870 71.950 C 101.988 71.747,120.584 90.078,143.192 112.686 C 165.801 135.294,184.160 153.921,183.990 154.079 M214.699 105.411 C 210.289 107.615,208.056 111.192,208.056 116.053 C 208.056 120.862,208.775 121.904,219.435 132.565 C 230.117 143.247,231.122 143.937,236.014 143.953 C 238.335 143.961,239.307 143.731,241.335 142.694 C 245.758 140.432,248.181 136.099,247.819 131.099 C 247.511 126.841,246.564 125.556,236.060 115.143 C 227.668 106.822,226.061 105.417,224.244 104.809 C 220.882 103.686,217.758 103.883,214.699 105.411 M107.716 148.463 C 121.081 161.830,131.907 172.875,131.774 173.008 C 131.584 173.198,115.982 178.962,105.693 182.644 L 104.079 183.221 88.520 167.666 C 79.962 159.111,72.960 151.940,72.960 151.730 C 72.960 151.452,80.701 129.883,82.663 124.693 C 82.774 124.400,82.989 124.160,83.140 124.160 C 83.292 124.160,94.351 135.096,107.716 148.463 M71.665 184.518 C 75.758 188.616,78.983 192.092,78.833 192.243 C 78.431 192.645,55.368 201.003,55.180 200.815 C 55.092 200.727,56.774 195.876,58.917 190.034 C 61.061 184.193,63.004 178.885,63.236 178.240 C 63.467 177.595,63.784 177.067,63.940 177.067 C 64.095 177.067,67.571 180.420,71.665 184.518 " stroke="none" fill-rule="evenodd"></path></svg>