<svg fill="currentColor" viewBox="0 0 256 256" xmlns="http://www.w3.org/2000/svg"><path d="M125.503 36.294 C 124.481 36.497,122.849 37.138,121.876 37.717 C 119.114 39.361,46.359 112.458,45.231 114.721 C 41.390 122.430,47.140 131.822,55.711 131.836 C 61.440 131.845,59.017 133.932,95.255 97.766 L 128.003 65.082 160.748 97.772 C 191.701 128.672,193.618 130.502,195.762 131.195 C 200.775 132.814,205.518 131.619,208.868 127.893 C 212.176 124.214,212.922 119.043,210.769 114.721 C 210.115 113.410,198.758 101.757,172.652 75.613 C 133.174 36.075,133.768 36.617,129.280 36.132 C 128.224 36.018,126.524 36.091,125.503 36.294 " stroke="none" fill-rule="evenodd"></path></svg>