<svg fill="currentColor" viewBox="0 0 256 256" xmlns="http://www.w3.org/2000/svg"><path d="M119.680 20.310 C 97.411 22.610,80.001 29.205,63.147 41.728 C 57.186 46.157,46.223 57.026,41.973 62.720 C 16.611 96.701,12.928 141.035,32.385 178.133 C 37.761 188.385,42.832 195.175,51.828 204.172 C 60.825 213.168,67.615 218.239,77.867 223.615 C 114.965 243.072,159.250 239.395,193.280 214.031 C 198.497 210.143,210.143 198.497,214.031 193.280 C 228.489 173.882,235.947 151.668,235.947 128.000 C 235.947 92.235,218.399 59.167,188.587 38.752 C 175.422 29.738,160.539 23.864,144.427 21.325 C 139.077 20.483,124.002 19.864,119.680 20.310 M135.040 44.374 C 172.305 47.758,202.630 74.580,210.140 110.797 C 215.959 138.858,207.285 167.541,186.865 187.761 C 173.241 201.252,155.612 209.521,136.017 211.611 C 111.761 214.199,86.191 204.984,68.686 187.348 C 48.533 167.041,40.077 138.684,45.860 110.797 C 54.430 69.467,93.221 40.575,135.040 44.374 M123.520 76.245 C 100.531 78.334,82.206 94.695,76.945 117.829 C 75.957 122.176,75.957 133.824,76.945 138.171 C 79.343 148.715,84.078 157.456,91.311 164.689 C 108.093 181.470,133.796 184.805,154.176 172.846 C 161.378 168.619,168.688 161.568,171.032 156.587 C 173.831 150.637,171.117 143.560,164.965 140.767 C 162.540 139.666,157.856 139.680,155.398 140.796 C 154.269 141.308,151.735 143.479,148.784 146.463 C 143.572 151.732,140.485 153.654,134.827 155.154 C 131.175 156.122,124.834 156.114,121.173 155.137 C 111.281 152.497,103.467 144.707,100.944 134.971 C 100.055 131.542,100.055 124.458,100.944 121.029 C 103.006 113.073,108.328 106.626,115.960 102.839 C 122.796 99.447,132.014 99.274,139.307 102.400 C 142.629 103.824,145.108 105.730,149.547 110.272 C 152.983 113.789,154.223 114.777,155.916 115.346 C 159.272 116.475,162.399 116.279,165.463 114.748 C 169.746 112.608,172.005 108.893,171.996 104.005 C 171.990 100.837,170.895 98.389,167.782 94.583 C 157.472 81.980,140.013 74.747,123.520 76.245 " stroke="none" fill-rule="evenodd"></path></svg>