<svg fill="currentColor" viewBox="0 0 256 256" xmlns="http://www.w3.org/2000/svg"><path d="M101.333 12.321 C 98.015 13.193,94.884 15.623,93.296 18.560 C 92.473 20.082,92.350 21.120,92.160 28.160 L 91.947 36.053 71.253 36.267 L 50.560 36.480 47.682 37.888 C 43.958 39.709,40.188 43.217,38.448 46.480 C 36.028 51.021,35.856 52.813,35.847 73.459 L 35.840 92.092 28.053 92.234 C 20.997 92.362,20.101 92.464,18.505 93.316 C 14.735 95.331,11.947 99.944,11.947 104.168 C 11.947 106.745,13.560 110.436,15.562 112.438 C 18.533 115.409,20.933 116.053,29.029 116.053 L 35.840 116.053 35.840 128.000 L 35.840 139.947 29.304 139.947 C 21.836 139.947,19.422 140.457,16.557 142.643 C 14.341 144.332,12.331 148.046,12.050 150.966 C 11.583 155.828,14.703 161.007,19.294 162.991 C 21.252 163.837,22.482 163.992,28.693 164.175 L 35.840 164.385 35.847 182.779 C 35.855 202.673,36.045 204.841,38.142 208.979 C 38.741 210.160,40.317 212.300,41.645 213.734 C 44.411 216.722,48.527 218.951,52.665 219.701 C 54.218 219.983,62.344 220.160,73.678 220.160 L 92.160 220.160 92.164 227.520 C 92.168 234.342,92.242 235.037,93.169 237.030 C 95.059 241.087,99.703 244.053,104.168 244.053 C 106.745 244.053,110.436 242.440,112.438 240.438 C 115.409 237.467,116.053 235.067,116.053 226.971 L 116.053 220.160 128.000 220.160 L 139.947 220.160 139.947 226.971 C 139.947 235.067,140.591 237.467,143.562 240.438 C 148.109 244.984,155.113 245.166,159.901 240.862 C 163.316 237.791,163.923 235.867,164.175 227.307 L 164.385 220.160 182.594 220.160 C 193.937 220.160,201.754 219.984,203.325 219.694 C 211.606 218.163,218.163 211.606,219.694 203.325 C 219.984 201.754,220.160 193.937,220.160 182.594 L 220.160 164.385 227.307 164.175 C 235.871 163.923,237.790 163.317,240.868 159.893 C 246.714 153.391,243.807 143.087,235.424 140.598 C 233.876 140.138,231.312 139.947,226.696 139.947 L 220.160 139.947 220.160 128.000 L 220.160 116.053 226.971 116.053 C 235.067 116.053,237.467 115.409,240.438 112.438 C 242.440 110.436,244.053 106.745,244.053 104.168 C 244.053 99.944,241.265 95.331,237.495 93.316 C 235.899 92.464,235.003 92.362,227.947 92.234 L 220.160 92.092 220.160 73.644 C 220.160 62.129,219.985 54.249,219.694 52.675 C 218.528 46.368,214.258 40.782,208.427 37.937 L 205.440 36.480 184.911 36.358 L 164.382 36.236 164.179 28.891 C 164.003 22.515,163.852 21.265,163.033 19.413 C 160.212 13.034,152.872 10.318,146.675 13.360 C 143.803 14.771,141.962 16.837,140.791 19.963 C 140.075 21.876,139.947 23.287,139.947 29.243 L 139.947 36.267 128.000 36.267 L 116.053 36.267 116.053 29.243 C 116.053 21.395,115.537 19.129,113.067 16.134 C 110.645 13.198,104.991 11.361,101.333 12.321 M195.840 128.213 L 195.840 196.267 128.000 196.267 L 60.160 196.267 60.160 128.213 L 60.160 60.160 128.000 60.160 L 195.840 60.160 195.840 128.213 M98.644 93.465 C 97.127 94.223,95.486 95.460,94.730 96.414 C 92.111 99.721,92.160 99.117,92.160 127.978 C 92.160 157.992,92.039 156.852,95.603 160.415 C 99.351 164.164,98.369 164.053,128.000 164.053 C 157.640 164.053,156.648 164.165,160.406 160.406 C 164.168 156.645,164.053 157.667,164.053 127.787 C 164.053 104.066,163.988 101.596,163.312 99.908 C 162.137 96.974,160.215 94.894,157.356 93.465 L 154.744 92.160 128.000 92.160 L 101.256 92.160 98.644 93.465 M139.947 128.000 L 139.947 139.947 128.000 139.947 L 116.053 139.947 116.053 128.000 L 116.053 116.053 128.000 116.053 L 139.947 116.053 139.947 128.000 " stroke="none" fill-rule="evenodd"></path></svg>