<svg fill="currentColor" viewBox="0 0 256 256" xmlns="http://www.w3.org/2000/svg"><path d="M125.155 12.331 C 123.144 12.847,120.140 14.731,118.807 16.312 C 116.941 18.525,116.332 20.406,116.078 24.747 L 115.840 28.800 114.560 28.932 C 113.856 29.004,110.897 29.539,107.985 30.121 C 73.905 36.931,45.036 62.130,33.721 94.943 C 31.809 100.489,30.237 106.467,29.459 111.147 C 29.186 112.789,28.881 114.542,28.780 115.042 C 28.612 115.874,28.261 115.967,24.645 116.137 C 18.831 116.409,15.626 118.255,13.304 122.667 C 12.381 124.421,12.181 125.369,12.181 128.000 C 12.181 131.860,13.456 134.714,16.246 137.102 C 18.615 139.130,21.197 139.947,25.241 139.947 C 29.014 139.947,28.556 139.413,29.459 144.853 C 34.684 176.308,55.997 204.424,85.120 218.280 C 92.781 221.924,103.129 225.209,111.147 226.541 C 116.587 227.444,116.053 226.986,116.053 230.759 C 116.053 234.803,116.870 237.385,118.898 239.754 C 121.286 242.544,124.140 243.819,128.000 243.819 C 131.860 243.819,134.714 242.544,137.102 239.754 C 139.130 237.385,139.947 234.803,139.947 230.759 C 139.947 226.986,139.413 227.444,144.853 226.541 C 164.721 223.241,183.978 213.233,198.605 198.605 C 213.233 183.978,223.241 164.721,226.541 144.853 C 227.444 139.413,226.986 139.947,230.759 139.947 C 234.803 139.947,237.385 139.130,239.754 137.102 C 242.544 134.714,243.819 131.860,243.819 128.000 C 243.819 125.369,243.619 124.421,242.696 122.667 C 240.374 118.255,237.169 116.409,231.355 116.137 C 227.739 115.967,227.388 115.874,227.220 115.042 C 227.119 114.542,226.814 112.789,226.541 111.147 C 221.160 78.751,198.988 50.255,168.652 36.745 C 160.605 33.161,148.348 29.642,141.440 28.932 L 140.160 28.800 139.941 24.747 C 139.614 18.706,137.774 15.601,133.113 13.223 C 131.217 12.256,127.202 11.806,125.155 12.331 M117.231 61.227 C 120.975 68.485,130.430 70.118,136.249 64.510 C 138.645 62.202,139.609 60.030,139.905 56.276 L 140.160 53.032 143.900 53.808 C 172.624 59.760,196.240 83.376,202.192 112.100 L 202.968 115.840 199.724 116.095 C 196.092 116.381,193.868 117.325,191.615 119.536 C 185.865 125.179,187.479 135.007,194.773 138.769 C 195.828 139.313,197.720 139.747,199.724 139.905 L 202.968 140.160 202.192 143.900 C 197.634 165.895,182.294 185.715,161.907 195.948 C 156.419 198.702,147.679 201.621,141.387 202.801 L 140.054 203.051 139.858 199.765 C 139.631 195.966,138.715 193.866,136.249 191.490 C 131.580 186.991,124.420 186.991,119.751 191.490 C 117.285 193.866,116.369 195.966,116.142 199.765 L 115.946 203.051 114.613 202.801 C 108.321 201.621,99.581 198.702,94.093 195.948 C 73.693 185.708,58.369 165.910,53.808 143.900 L 53.032 140.160 56.276 139.905 C 60.030 139.609,62.202 138.645,64.510 136.249 C 70.118 130.430,68.485 120.975,61.227 117.231 C 60.172 116.687,58.280 116.253,56.276 116.095 L 53.032 115.840 53.808 112.100 C 59.760 83.376,83.376 59.760,112.100 53.808 L 115.840 53.032 116.095 56.276 C 116.253 58.280,116.687 60.172,117.231 61.227 M120.209 84.729 C 105.589 87.372,92.786 97.762,87.258 111.472 C 82.031 124.435,83.339 139.458,90.735 151.409 C 93.376 155.675,100.325 162.624,104.591 165.265 C 118.893 174.116,137.107 174.116,151.409 165.265 C 155.675 162.624,162.624 155.675,165.265 151.409 C 172.552 139.634,173.934 124.921,168.960 112.057 C 161.470 92.682,140.679 81.028,120.209 84.729 M131.655 108.408 C 137.552 109.481,143.169 113.712,145.794 119.055 C 151.780 131.244,144.498 145.398,131.054 147.703 C 120.445 149.523,110.130 141.976,108.330 131.081 C 106.644 120.868,113.571 110.713,123.713 108.528 C 126.776 107.868,128.545 107.841,131.655 108.408 " stroke="none" fill-rule="evenodd"></path></svg>