<svg fill="currentColor" viewBox="0 0 256 256" xmlns="http://www.w3.org/2000/svg"><path d="M27.372 36.920 C 24.982 37.958,22.848 39.927,21.525 42.315 L 20.267 44.587 20.267 68.053 C 20.267 91.295,20.276 91.536,21.189 93.227 C 25.130 100.519,34.427 102.120,40.249 96.510 C 41.149 95.643,42.301 94.165,42.809 93.227 C 43.702 91.578,43.738 90.984,43.860 75.864 L 43.986 60.208 59.433 60.078 C 74.627 59.949,74.913 59.930,76.881 58.952 C 86.195 54.321,86.273 41.604,77.013 37.273 L 74.880 36.275 51.840 36.288 C 32.651 36.298,28.561 36.404,27.372 36.920 M178.987 37.273 C 174.524 39.360,172.183 43.051,172.183 48.000 C 172.183 52.896,174.598 56.702,179.139 58.961 C 181.082 59.928,181.416 59.949,196.567 60.078 L 212.014 60.208 212.140 75.864 C 212.262 90.975,212.299 91.579,213.189 93.227 C 217.130 100.519,226.427 102.120,232.249 96.510 C 233.149 95.643,234.301 94.165,234.809 93.227 C 235.725 91.535,235.733 91.307,235.733 68.053 L 235.733 44.587 234.475 42.315 C 233.783 41.066,232.504 39.479,231.633 38.789 C 228.359 36.196,229.125 36.266,204.067 36.271 L 181.120 36.275 178.987 37.273 M123.861 52.519 C 122.876 52.755,117.308 55.684,111.488 59.028 C 62.997 86.890,64.329 86.028,61.770 91.224 L 60.373 94.062 60.373 128.000 L 60.373 161.938 61.738 164.702 C 64.161 169.611,65.032 170.216,92.800 186.269 C 106.880 194.409,119.648 201.668,121.173 202.401 C 123.679 203.605,124.338 203.733,128.000 203.733 C 131.471 203.733,132.391 203.575,134.400 202.630 C 135.691 202.023,148.459 194.763,162.773 186.496 C 181.769 175.527,189.354 170.926,190.849 169.467 C 193.446 166.932,195.283 163.201,195.827 159.360 C 196.387 155.407,196.387 100.593,195.827 96.640 C 195.248 92.548,193.376 88.880,190.564 86.327 C 189.036 84.940,179.748 79.335,162.151 69.180 C 147.771 60.883,135.140 53.711,134.082 53.243 C 131.833 52.248,126.555 51.875,123.861 52.519 M143.708 86.246 C 152.316 91.207,159.601 95.455,159.895 95.686 C 160.281 95.990,155.913 98.717,144.215 105.475 L 128.000 114.842 111.728 105.442 L 95.455 96.041 97.109 95.061 C 100.796 92.875,127.796 77.265,127.921 77.247 C 127.995 77.236,135.099 81.285,143.708 86.246 M101.120 127.067 L 115.840 135.587 115.951 153.811 L 116.063 172.036 114.551 171.144 C 113.719 170.654,106.517 166.480,98.546 161.868 L 84.053 153.484 84.053 135.398 L 84.053 117.311 85.227 117.929 C 85.872 118.269,93.024 122.381,101.120 127.067 M171.947 135.406 L 171.947 153.479 156.367 162.500 C 147.799 167.461,140.597 171.520,140.363 171.520 C 140.085 171.520,139.976 165.276,140.049 153.523 L 140.160 135.525 155.733 126.475 C 164.299 121.497,171.451 117.404,171.627 117.379 C 171.803 117.354,171.947 125.466,171.947 135.406 M27.307 157.046 C 24.970 158.101,22.434 160.477,21.191 162.773 C 20.280 164.455,20.265 164.820,20.146 187.451 L 20.025 210.421 21.038 212.624 C 22.478 215.758,24.004 217.382,26.793 218.752 L 29.227 219.947 52.053 219.947 L 74.880 219.947 76.881 218.952 C 85.979 214.428,86.310 202.143,77.463 197.406 C 75.801 196.516,75.115 196.472,59.947 196.267 L 44.160 196.053 43.947 180.267 C 43.742 165.101,43.697 164.413,42.809 162.773 C 40.571 158.638,36.539 156.179,32.000 156.179 C 30.126 156.179,28.604 156.460,27.307 157.046 M219.307 157.046 C 216.970 158.101,214.434 160.477,213.191 162.773 C 212.297 164.423,212.262 165.010,212.141 180.373 L 212.014 196.267 196.567 196.271 C 181.271 196.275,181.099 196.285,178.987 197.273 C 174.524 199.360,172.183 203.051,172.183 208.000 C 172.183 212.896,174.598 216.702,179.139 218.961 L 181.120 219.947 203.947 219.947 L 226.773 219.947 229.207 218.752 C 231.801 217.478,233.279 216.000,234.794 213.170 C 235.729 211.421,235.733 211.315,235.733 187.947 C 235.733 164.693,235.725 164.465,234.809 162.773 C 232.571 158.638,228.539 156.179,224.000 156.179 C 222.126 156.179,220.604 156.460,219.307 157.046 " stroke="none" fill-rule="evenodd"></path></svg>