<svg fill="currentColor" viewBox="0 0 256 256" xmlns="http://www.w3.org/2000/svg"><path d="M119.680 20.310 C 97.411 22.610,80.001 29.205,63.147 41.728 C 57.186 46.157,46.223 57.026,41.973 62.720 C 16.611 96.701,12.928 141.035,32.385 178.133 C 37.761 188.385,42.832 195.175,51.828 204.172 C 60.825 213.168,67.615 218.239,77.867 223.615 C 114.965 243.072,159.250 239.395,193.280 214.031 C 198.497 210.143,210.143 198.497,214.031 193.280 C 228.489 173.882,235.947 151.668,235.947 128.000 C 235.947 92.235,218.399 59.167,188.587 38.752 C 175.422 29.738,160.539 23.864,144.427 21.325 C 139.077 20.483,124.002 19.864,119.680 20.310 M135.040 44.374 C 172.305 47.758,202.630 74.580,210.140 110.797 C 215.959 138.858,207.285 167.541,186.865 187.761 C 173.241 201.252,155.612 209.521,136.017 211.611 C 111.761 214.199,86.191 204.984,68.686 187.348 C 48.533 167.041,40.077 138.684,45.860 110.797 C 54.430 69.467,93.221 40.575,135.040 44.374 M123.307 61.046 C 122.251 61.523,120.650 62.623,119.751 63.490 C 117.166 65.980,116.355 67.935,116.139 72.189 L 115.951 75.898 113.549 76.158 C 104.652 77.120,97.088 81.009,91.546 87.471 C 88.953 90.494,86.960 94.078,85.498 98.347 C 84.452 101.403,84.326 102.385,84.298 107.733 C 84.271 112.859,84.409 114.161,85.266 116.907 C 88.573 127.497,96.235 135.226,106.880 138.706 C 109.715 139.632,110.690 139.694,126.080 139.921 C 143.911 140.184,143.732 140.157,146.066 142.931 C 147.100 144.160,148.049 146.611,148.049 148.053 C 148.049 149.604,147.051 152.033,145.857 153.394 C 143.511 156.065,142.646 156.160,120.737 156.160 L 101.256 156.160 98.644 157.465 C 94.310 159.631,92.156 163.222,92.164 168.267 C 92.170 171.700,93.522 174.608,96.214 176.978 C 99.155 179.567,101.216 180.053,109.252 180.053 L 115.949 180.053 116.138 183.787 C 116.274 186.462,116.580 188.004,117.219 189.227 C 121.018 196.495,130.430 198.118,136.249 192.510 C 138.829 190.024,139.645 188.063,139.860 183.837 L 140.046 180.154 143.040 179.859 C 150.384 179.135,157.364 175.778,162.691 170.407 C 169.173 163.871,172.258 155.815,171.823 146.560 C 171.276 134.935,165.273 125.445,154.859 119.745 C 149.061 116.571,147.614 116.361,129.707 116.086 C 115.701 115.871,113.540 115.749,112.371 115.109 C 107.202 112.279,106.595 105.204,111.219 101.675 L 112.785 100.480 133.513 100.243 C 157.182 99.972,156.784 100.029,160.406 96.406 C 162.835 93.978,163.844 91.415,163.831 87.711 C 163.814 83.200,161.502 79.558,157.227 77.308 C 155.201 76.242,154.713 76.177,147.570 76.025 L 140.047 75.866 139.860 72.173 C 139.645 67.936,138.831 65.978,136.249 63.490 C 133.878 61.205,131.322 60.179,128.000 60.179 C 126.126 60.179,124.604 60.460,123.307 61.046 " stroke="none" fill-rule="evenodd"></path></svg>