<svg fill="currentColor" viewBox="0 0 256 256" xmlns="http://www.w3.org/2000/svg"><path d="M59.850 52.759 C 58.859 53.110,57.094 54.255,55.928 55.303 C 49.463 61.115,51.516 72.010,59.658 75.104 C 61.832 75.930,63.190 75.947,128.000 75.947 C 192.810 75.947,194.168 75.930,196.342 75.104 C 204.478 72.012,206.536 61.115,200.080 55.311 C 196.157 51.783,202.118 52.049,127.817 52.087 C 70.227 52.116,61.420 52.203,59.850 52.759 M45.013 108.425 C 41.004 109.360,37.143 113.419,36.247 117.641 C 35.048 123.294,38.746 129.635,44.325 131.492 C 45.425 131.858,52.502 132.049,69.040 132.159 L 92.214 132.314 91.943 136.877 C 91.027 152.287,86.045 163.669,75.972 173.363 C 66.258 182.714,52.866 188.135,39.428 188.156 C 36.590 188.161,32.521 190.152,30.730 192.414 C 26.727 197.468,27.380 204.723,32.221 208.985 C 35.182 211.591,37.767 212.244,43.766 211.901 C 62.876 210.810,80.199 203.076,93.638 189.638 C 107.491 175.784,115.079 158.324,115.926 138.347 L 116.184 132.267 128.065 132.267 L 139.947 132.267 139.950 155.413 C 139.952 169.124,140.131 179.691,140.391 181.333 C 142.846 196.896,155.104 209.154,170.667 211.609 C 172.296 211.866,182.514 212.048,195.443 212.050 C 213.829 212.053,217.802 211.947,219.614 211.409 C 222.489 210.555,225.704 207.651,227.035 204.706 C 228.042 202.478,228.053 202.298,228.053 188.373 C 228.053 178.171,227.903 173.799,227.508 172.498 C 226.754 170.011,224.573 167.299,222.099 165.769 C 220.344 164.684,219.489 164.456,216.701 164.329 C 213.890 164.202,213.045 164.337,211.121 165.223 C 208.377 166.486,206.282 168.517,205.067 171.093 C 204.272 172.779,204.145 173.938,204.020 180.607 L 203.877 188.200 188.658 188.073 C 173.814 187.950,173.388 187.923,171.307 186.965 C 168.517 185.681,166.533 183.755,165.285 181.120 L 164.275 178.987 164.271 155.627 L 164.267 132.267 185.493 132.263 C 208.032 132.260,211.088 132.053,214.035 130.330 C 222.333 125.480,221.717 113.447,212.949 109.127 L 210.987 108.160 128.853 108.093 C 79.279 108.053,46.043 108.185,45.013 108.425 " stroke="none" fill-rule="evenodd"></path></svg>