<svg fill="currentColor" viewBox="0 0 256 256" xmlns="http://www.w3.org/2000/svg"><path d="M124.800 28.824 C 115.661 30.059,107.857 32.457,99.200 36.693 C 81.740 45.236,68.493 58.571,60.203 75.947 C 57.878 80.819,54.986 89.099,54.129 93.333 L 53.589 96.000 46.072 96.000 C 37.145 96.000,35.223 96.426,32.214 99.075 C 29.444 101.513,28.160 104.349,28.197 107.947 C 28.248 112.961,30.338 116.436,34.578 118.555 L 37.256 119.893 44.655 119.893 L 52.053 119.893 52.053 128.000 L 52.053 136.107 44.693 136.111 C 37.845 136.115,37.182 136.186,35.156 137.129 C 30.816 139.150,28.531 142.520,28.238 147.329 C 28.013 151.025,28.912 153.499,31.477 156.241 C 34.533 159.508,36.408 160.000,45.797 160.000 L 53.589 160.000 54.129 162.667 C 55.545 169.665,59.982 180.613,64.261 187.671 C 71.229 199.162,81.837 209.590,93.602 216.514 C 114.167 228.617,139.550 231.294,162.347 223.763 C 175.609 219.382,191.821 208.953,194.783 202.898 C 198.373 195.560,193.561 186.886,185.290 185.789 C 181.861 185.334,179.020 186.405,174.865 189.721 C 162.060 199.938,148.875 204.431,133.547 203.803 C 117.953 203.164,104.693 197.335,93.642 186.260 C 87.159 179.763,82.440 172.289,79.421 163.733 L 78.104 160.000 100.049 160.000 C 121.064 160.000,122.093 159.963,124.312 159.133 C 127.122 158.081,130.076 155.109,131.178 152.224 C 132.133 149.722,131.941 145.162,130.780 142.761 C 129.665 140.457,127.423 138.330,124.844 137.129 L 122.667 136.115 99.307 136.111 L 75.947 136.107 75.947 128.000 L 75.947 119.893 107.017 119.893 C 142.599 119.893,140.668 120.081,144.502 116.247 C 146.221 114.528,146.878 113.477,147.437 111.555 C 149.090 105.868,146.802 100.365,141.582 97.474 L 139.307 96.213 108.709 96.096 L 78.112 95.978 79.425 92.256 C 86.727 71.563,104.126 56.854,126.080 52.816 C 131.047 51.902,142.735 52.137,147.920 53.255 C 158.913 55.624,165.158 58.784,176.968 67.951 C 178.630 69.241,182.009 70.400,184.107 70.400 C 190.304 70.400,195.826 64.862,195.836 58.636 C 195.845 53.226,193.981 50.509,186.443 44.942 C 174.221 35.915,161.509 30.731,146.858 28.797 C 141.015 28.025,130.620 28.038,124.800 28.824 " stroke="none" fill-rule="evenodd"></path></svg>