<svg fill="currentColor" viewBox="0 0 256 256" xmlns="http://www.w3.org/2000/svg"><path d="M125.155 12.331 C 123.048 12.872,120.084 14.777,118.657 16.509 C 116.450 19.186,116.053 21.095,116.053 29.032 L 116.053 36.152 109.547 36.378 C 101.657 36.651,96.723 37.815,90.129 40.958 C 79.501 46.025,71.522 53.517,66.298 63.337 C 59.643 75.848,58.252 90.755,62.514 103.897 C 68.108 121.148,81.515 133.631,99.746 138.565 L 103.893 139.687 130.347 139.959 C 153.753 140.200,157.092 140.317,159.333 140.976 C 168.979 143.814,176.426 151.341,179.034 160.887 C 180.156 164.994,180.060 171.703,178.821 175.787 C 175.802 185.738,167.839 193.134,157.627 195.473 C 153.937 196.318,102.063 196.318,98.373 195.473 C 88.239 193.152,80.085 185.625,77.279 176.000 C 76.800 174.357,76.224 171.069,75.999 168.693 C 75.537 163.806,74.767 161.916,72.249 159.490 C 69.878 157.205,67.322 156.179,64.000 156.179 C 59.450 156.179,55.371 158.674,53.218 162.773 C 51.978 165.136,51.741 170.864,52.665 176.194 C 56.450 198.045,72.740 214.810,94.373 219.116 C 96.663 219.572,101.132 219.902,106.987 220.048 L 116.053 220.273 116.053 227.180 C 116.053 235.067,116.473 236.921,118.898 239.754 C 121.286 242.544,124.140 243.819,128.000 243.819 C 131.860 243.819,134.714 242.544,137.102 239.754 C 139.527 236.921,139.947 235.067,139.947 227.180 L 139.947 220.273 149.013 220.048 C 154.868 219.902,159.337 219.572,161.627 219.116 C 185.566 214.351,202.864 194.299,203.829 170.195 C 204.818 145.506,188.859 124.039,164.759 117.641 L 159.787 116.320 133.333 116.065 L 106.880 115.810 103.375 114.638 C 87.210 109.232,79.500 90.907,87.006 75.733 C 90.769 68.125,97.881 62.444,105.722 60.782 C 109.840 59.909,146.127 59.902,150.236 60.773 C 155.706 61.933,161.504 65.506,165.466 70.159 C 169.154 74.490,171.921 81.809,171.939 87.283 C 171.963 94.336,177.111 99.825,183.711 99.836 C 185.136 99.838,187.213 99.529,188.327 99.150 C 191.014 98.234,194.234 95.014,195.150 92.327 C 196.118 89.486,196.044 83.269,194.980 78.047 C 191.718 62.039,181.692 48.867,167.253 41.621 C 160.045 38.003,154.829 36.680,146.347 36.318 L 140.160 36.053 139.947 28.373 C 139.754 21.453,139.636 20.495,138.744 18.685 C 136.412 13.950,130.187 11.040,125.155 12.331 " stroke="none" fill-rule="evenodd"></path></svg>