<svg fill="currentColor" viewBox="0 0 256 256" xmlns="http://www.w3.org/2000/svg"><path d="M115.200 20.515 C 86.841 22.667,61.961 31.566,45.688 45.378 C 37.603 52.241,32.018 60.583,29.359 69.768 L 28.373 73.173 28.373 128.000 L 28.373 182.827 29.359 186.232 C 35.113 206.110,54.488 221.564,84.459 230.182 C 111.343 237.913,144.618 237.913,171.541 230.185 C 179.598 227.872,184.748 225.918,191.787 222.506 C 207.670 214.805,218.483 204.947,224.024 193.117 C 226.225 188.418,227.343 184.152,227.841 178.560 C 228.394 172.356,228.394 83.644,227.841 77.440 C 226.955 67.490,223.460 59.530,216.352 51.271 C 207.302 40.758,190.605 31.252,171.733 25.868 C 155.091 21.121,133.790 19.104,115.200 20.515 M145.067 45.035 C 172.656 48.196,195.420 59.296,202.121 72.854 C 203.629 75.905,203.733 76.366,203.733 80.000 C 203.733 83.630,203.628 84.096,202.129 87.130 C 194.884 101.790,170.085 113.034,139.307 115.615 C 101.809 118.759,63.129 105.863,53.871 87.130 C 52.372 84.096,52.267 83.630,52.267 80.000 C 52.267 76.366,52.371 75.905,53.879 72.854 C 58.641 63.218,72.391 54.189,90.035 49.111 C 98.365 46.714,110.019 44.802,119.893 44.213 C 125.038 43.906,139.266 44.371,145.067 45.035 M55.966 122.102 C 84.982 140.138,133.231 145.182,171.541 134.185 C 182.293 131.098,192.578 126.737,200.034 122.102 C 201.988 120.887,203.668 119.893,203.767 119.893 C 203.866 119.893,203.947 122.203,203.947 125.027 C 203.947 129.079,203.762 130.709,203.069 132.765 C 198.081 147.572,173.771 160.022,143.673 163.182 C 135.523 164.038,120.477 164.038,112.327 163.182 C 81.980 159.995,57.090 147.095,52.735 132.296 C 52.119 130.203,51.702 119.893,52.233 119.893 C 52.332 119.893,54.012 120.887,55.966 122.102 M56.976 170.702 C 70.957 179.227,90.629 185.136,112.427 187.359 C 119.022 188.032,136.978 188.032,143.573 187.359 C 167.407 184.928,187.397 178.506,202.823 168.324 L 204.046 167.517 203.886 173.708 C 203.726 179.865,203.717 179.918,202.125 183.138 C 194.884 197.789,170.077 209.035,139.307 211.615 C 101.817 214.759,63.129 201.863,53.875 183.138 C 52.283 179.918,52.274 179.865,52.114 173.708 L 51.954 167.517 53.177 168.324 C 53.850 168.768,55.559 169.838,56.976 170.702 " stroke="none" fill-rule="evenodd"></path></svg>