<svg fill="currentColor" viewBox="0 0 256 256" xmlns="http://www.w3.org/2000/svg"><path d="M90.234 37.011 C 87.033 38.153,84.057 40.036,82.015 42.214 C 81.011 43.284,70.439 57.600,58.521 74.027 L 36.851 103.893 22.585 104.107 L 8.320 104.320 6.329 105.490 C -0.845 109.708,-2.139 118.664,3.599 124.401 C 7.566 128.368,-5.156 128.000,128.000 128.000 C 261.156 128.000,248.434 128.368,252.401 124.401 C 258.139 118.664,256.845 109.708,249.671 105.490 L 247.680 104.320 233.412 104.107 L 219.143 103.893 197.484 74.027 C 185.572 57.600,174.873 43.170,173.708 41.961 C 172.346 40.546,170.406 39.176,168.272 38.121 C 164.977 36.492,164.916 36.480,159.810 36.480 C 150.918 36.480,149.138 37.626,137.960 50.548 C 133.128 56.133,129.976 59.427,129.205 59.696 C 126.935 60.487,125.915 59.651,118.040 50.548 C 109.848 41.078,107.542 38.968,103.788 37.507 C 100.374 36.178,93.298 35.919,90.234 37.011 M102.094 68.808 C 105.011 72.157,108.502 75.905,109.851 77.138 C 114.176 81.091,121.951 84.053,128.000 84.053 C 134.049 84.053,141.824 81.091,146.149 77.138 C 147.498 75.905,151.001 72.143,153.934 68.777 C 158.310 63.754,159.364 62.758,159.811 63.222 C 160.110 63.532,166.906 72.811,174.913 83.840 L 189.471 103.893 158.735 104.003 C 141.831 104.063,114.169 104.063,97.265 104.003 L 66.530 103.893 79.392 86.187 C 86.466 76.448,93.195 67.184,94.345 65.600 C 95.495 64.016,96.516 62.720,96.613 62.720 C 96.710 62.720,99.176 65.460,102.094 68.808 M70.196 140.407 C 65.934 140.995,59.434 143.340,55.366 145.758 C 50.823 148.457,44.424 154.793,41.900 159.090 C 37.929 165.850,36.174 172.222,36.124 180.053 C 36.020 196.351,46.238 211.285,61.527 217.181 C 72.584 221.445,84.131 220.768,94.610 215.242 C 101.465 211.628,106.569 206.758,110.547 200.039 L 112.780 196.267 128.000 196.267 L 143.220 196.267 145.471 200.069 C 149.720 207.247,155.261 212.329,162.776 215.941 C 169.866 219.349,177.254 220.648,184.344 219.735 C 203.351 217.286,217.283 203.371,219.728 184.396 C 220.553 177.989,219.586 171.312,216.873 164.693 C 212.024 152.864,201.177 143.785,188.521 140.959 C 184.360 140.030,175.767 140.026,171.630 140.950 C 159.795 143.594,149.569 151.544,144.106 162.347 C 143.513 163.520,142.503 166.160,141.863 168.213 L 140.699 171.947 128.000 171.947 L 115.301 171.947 114.139 168.220 C 110.696 157.178,102.949 148.379,92.463 143.601 C 86.076 140.690,77.281 139.428,70.196 140.407 M82.857 165.622 C 85.959 167.072,88.929 170.043,90.376 173.143 C 91.982 176.583,92.206 182.184,90.880 185.721 C 89.663 188.968,86.089 192.846,82.849 194.437 C 80.665 195.509,79.985 195.627,75.947 195.627 C 71.840 195.627,71.261 195.523,69.002 194.378 C 66.074 192.896,63.240 190.000,61.614 186.830 C 59.970 183.626,59.682 178.384,60.952 174.785 C 62.484 170.440,65.976 166.807,70.271 165.088 C 73.410 163.831,79.588 164.094,82.857 165.622 M186.894 165.639 C 189.907 167.119,192.822 170.035,194.390 173.138 C 195.501 175.337,195.621 175.988,195.624 179.840 C 195.626 183.580,195.485 184.408,194.483 186.546 C 192.963 189.790,190.022 192.854,186.998 194.346 C 182.053 196.786,175.154 196.223,170.836 193.026 C 166.404 189.745,164.234 185.495,164.222 180.072 C 164.207 173.202,167.706 167.905,174.004 165.264 C 176.079 164.393,177.008 164.264,180.480 164.364 C 183.881 164.461,184.913 164.667,186.894 165.639 " stroke="none" fill-rule="evenodd"></path></svg>