<svg fill="currentColor" viewBox="0 0 256 256" xmlns="http://www.w3.org/2000/svg"><path d="M123.713 12.501 C 118.164 13.760,117.454 14.336,100.004 31.761 C 84.703 47.040,83.650 48.189,82.199 51.200 C 79.027 57.782,79.387 64.899,83.193 70.808 C 85.018 73.642,115.412 103.745,117.882 105.165 C 122.549 107.848,128.440 108.656,133.149 107.259 C 138.315 105.726,139.061 105.109,155.436 88.806 C 164.072 80.208,171.768 72.213,172.539 71.040 C 176.622 64.819,177.060 58.077,173.827 51.213 C 172.415 48.213,171.446 47.142,157.319 32.964 C 149.065 24.679,141.198 17.089,139.837 16.097 C 135.171 12.697,128.957 11.312,123.713 12.501 M139.203 48.963 L 150.187 59.953 139.093 71.040 L 128.000 82.127 116.907 71.040 L 105.813 59.953 116.797 48.963 C 122.838 42.919,127.879 37.973,128.000 37.973 C 128.121 37.973,133.162 42.919,139.203 48.963 M53.968 80.958 C 49.341 82.607,47.728 83.993,31.559 100.207 C 14.351 117.464,14.039 117.850,12.546 123.733 C 11.285 128.700,12.345 134.482,15.333 138.944 C 16.273 140.346,23.794 148.187,32.503 156.842 C 46.922 171.173,48.223 172.352,51.200 173.800 C 57.636 176.930,64.985 176.558,70.808 172.807 C 71.874 172.121,79.878 164.398,88.593 155.646 C 105.246 138.924,105.756 138.305,107.319 132.927 C 108.744 128.027,107.613 121.466,104.551 116.862 C 103.865 115.830,96.140 107.872,87.385 99.176 C 72.174 84.068,71.325 83.301,68.267 81.909 C 65.379 80.594,64.630 80.439,60.587 80.324 C 57.118 80.224,55.624 80.367,53.968 80.958 M189.674 81.092 C 188.278 81.585,186.166 82.635,184.981 83.425 C 183.796 84.215,175.792 91.928,167.194 100.564 C 155.595 112.214,151.286 116.817,150.495 118.400 C 147.246 124.900,147.246 131.100,150.495 137.600 C 151.286 139.183,155.595 143.786,167.194 155.436 C 175.792 164.072,183.787 171.768,184.960 172.539 C 191.079 176.554,198.069 177.012,204.800 173.839 C 207.842 172.405,208.802 171.524,224.230 156.032 C 241.668 138.519,241.958 138.161,243.454 132.267 C 244.715 127.302,243.656 121.521,240.669 117.056 C 239.726 115.647,232.249 107.855,223.499 99.162 C 208.861 84.619,207.812 83.671,204.617 82.099 C 201.418 80.525,200.990 80.429,196.724 80.316 C 193.021 80.217,191.759 80.356,189.674 81.092 M71.040 139.093 L 59.951 150.189 48.857 139.095 L 37.764 128.002 48.853 116.907 L 59.943 105.811 71.036 116.905 L 82.129 127.998 71.040 139.093 M207.147 139.093 L 196.057 150.189 184.964 139.095 L 173.871 128.002 184.960 116.907 L 196.049 105.811 207.143 116.905 L 218.236 127.998 207.147 139.093 M122.993 148.711 C 117.899 150.083,117.038 150.792,100.564 167.194 C 91.928 175.792,84.214 183.797,83.423 184.983 C 79.141 191.405,78.990 200.043,83.044 206.647 C 83.645 207.626,91.366 215.633,100.202 224.441 C 117.464 241.648,117.851 241.961,123.733 243.454 C 128.700 244.715,134.482 243.655,138.944 240.667 C 140.346 239.727,148.187 232.206,156.842 223.497 C 171.173 209.078,172.352 207.777,173.800 204.800 C 176.956 198.310,176.590 191.072,172.809 185.192 C 170.773 182.025,140.114 151.848,137.568 150.504 C 133.102 148.147,127.599 147.470,122.993 148.711 M139.203 185.070 L 150.187 196.059 139.093 207.147 L 128.000 218.234 116.907 207.147 L 105.813 196.059 116.797 185.070 C 122.838 179.025,127.879 174.080,128.000 174.080 C 128.121 174.080,133.162 179.025,139.203 185.070 " stroke="none" fill-rule="evenodd"></path></svg>