<svg fill="currentColor" viewBox="0 0 256 256" xmlns="http://www.w3.org/2000/svg"><path d="M56.533 28.787 C 42.834 31.824,32.535 41.910,28.994 55.755 C 28.183 58.925,28.160 60.945,28.160 128.000 C 28.160 195.055,28.183 197.075,28.994 200.245 C 32.613 214.395,42.779 224.144,57.387 227.470 C 61.184 228.335,194.816 228.335,198.613 227.470 C 206.027 225.782,212.577 222.285,217.396 217.444 C 222.128 212.690,225.039 207.520,227.103 200.206 L 228.034 196.907 228.170 131.840 C 228.255 90.866,228.147 64.911,227.878 61.744 C 226.552 46.116,217.295 34.527,202.027 29.380 L 199.040 28.373 129.067 28.296 C 72.179 28.234,58.615 28.325,56.533 28.787 M196.080 52.769 C 198.900 53.729,202.271 57.100,203.231 59.920 C 203.888 61.848,203.947 67.385,203.947 128.000 C 203.947 202.085,204.214 196.160,200.689 200.080 C 199.346 201.574,198.104 202.449,196.446 203.069 C 194.117 203.941,193.657 203.947,128.000 203.947 C 62.343 203.947,61.883 203.941,59.554 203.069 C 57.896 202.449,56.654 201.574,55.311 200.080 C 51.786 196.160,52.053 202.085,52.053 128.000 C 52.053 53.111,51.731 59.573,55.660 55.644 C 59.497 51.808,53.060 52.125,127.817 52.087 C 188.657 52.056,194.150 52.111,196.080 52.769 M122.595 112.979 C 115.533 115.497,111.030 123.077,112.227 130.432 C 114.324 143.315,130.026 148.430,139.228 139.228 C 147.007 131.449,144.795 118.461,134.865 113.602 C 131.750 112.079,125.947 111.784,122.595 112.979 " stroke="none" fill-rule="evenodd"></path></svg>