<svg fill="currentColor" viewBox="0 0 256 256" xmlns="http://www.w3.org/2000/svg"><path d="M44.391 20.342 C 37.919 21.701,31.870 27.015,29.646 33.294 C 29.275 34.342,25.125 55.744,20.425 80.853 C 12.975 120.647,11.905 126.890,12.088 129.493 C 12.822 139.946,21.392 147.809,32.075 147.832 L 35.777 147.840 35.962 168.960 C 36.163 191.933,36.175 192.057,38.788 199.218 C 43.695 212.662,55.014 222.877,69.120 226.591 C 70.880 227.054,74.528 227.618,77.227 227.843 C 83.649 228.380,172.351 228.380,178.773 227.843 C 181.472 227.618,185.120 227.054,186.880 226.591 C 200.986 222.877,212.305 212.662,217.212 199.218 C 219.825 192.056,219.837 191.935,220.038 168.942 L 220.222 147.804 222.886 147.973 C 228.185 148.311,234.237 145.974,238.137 142.084 C 241.812 138.419,244.052 133.260,244.054 128.456 C 244.055 127.149,240.210 105.440,235.511 80.213 C 227.451 36.944,226.881 34.170,225.447 31.226 C 221.866 23.877,214.363 19.550,206.293 20.181 C 204.179 20.346,195.642 22.667,177.067 28.127 L 150.827 35.840 128.018 35.840 L 105.210 35.840 78.952 28.097 C 55.202 21.094,52.347 20.343,49.067 20.238 C 47.072 20.174,44.968 20.221,44.391 20.342 M67.762 49.838 C 76.285 52.355,83.243 54.604,83.224 54.834 C 83.180 55.367,39.562 111.811,39.355 111.604 C 39.209 111.458,50.999 47.565,51.466 45.973 C 51.586 45.563,51.815 45.234,51.975 45.244 C 52.136 45.253,59.240 47.321,67.762 49.838 M204.534 45.973 C 204.997 47.563,216.789 111.460,216.646 111.603 C 216.437 111.812,172.691 55.209,172.719 54.766 C 172.738 54.464,202.393 45.412,203.811 45.275 C 204.089 45.248,204.414 45.563,204.534 45.973 M171.031 92.222 L 195.840 124.285 195.840 155.751 C 195.840 185.942,195.806 187.327,194.993 189.928 C 194.527 191.420,193.694 193.381,193.141 194.287 C 191.665 196.704,187.994 200.256,185.657 201.528 C 181.408 203.840,180.247 203.947,159.270 203.947 L 139.947 203.947 139.947 200.442 L 139.947 196.937 147.158 189.669 C 151.743 185.048,154.641 181.778,155.113 180.693 C 156.074 178.487,156.125 173.575,155.209 171.460 C 154.217 169.170,151.601 166.483,149.147 165.233 C 147.436 164.362,146.366 164.133,144.000 164.132 C 139.864 164.131,138.122 165.118,132.587 170.594 L 128.000 175.132 123.413 170.570 C 118.074 165.259,116.197 164.213,112.000 164.213 C 107.191 164.213,103.287 166.643,101.292 170.877 C 99.829 173.982,99.635 176.060,100.513 179.245 C 101.246 181.902,101.458 182.168,108.659 189.465 L 116.053 196.956 116.053 200.451 L 116.053 203.947 96.730 203.947 C 75.753 203.947,74.592 203.840,70.343 201.528 C 68.006 200.256,64.335 196.704,62.859 194.287 C 62.306 193.381,61.473 191.420,61.007 189.928 C 60.194 187.327,60.160 185.942,60.160 155.751 L 60.160 124.285 84.969 92.222 L 109.778 60.160 128.000 60.160 L 146.222 60.160 171.031 92.222 M89.168 120.303 C 86.081 120.855,83.162 122.455,80.603 124.998 C 77.379 128.200,76.199 131.170,76.185 136.107 C 76.177 139.302,76.336 140.075,77.527 142.603 C 79.148 146.044,81.875 148.830,85.241 150.482 C 87.420 151.552,88.135 151.680,91.947 151.680 C 95.686 151.680,96.516 151.538,98.661 150.533 C 101.795 149.064,105.127 145.727,106.574 142.608 C 107.548 140.508,107.711 139.583,107.721 136.107 C 107.732 132.520,107.591 131.745,106.496 129.373 C 103.520 122.929,96.127 119.059,89.168 120.303 M160.968 120.325 C 156.052 121.344,151.580 124.880,149.493 129.398 C 148.415 131.733,148.267 132.543,148.267 136.107 C 148.267 139.615,148.421 140.489,149.414 142.607 C 150.044 143.953,151.535 146.029,152.726 147.220 C 153.918 148.411,155.993 149.902,157.339 150.533 C 159.484 151.538,160.314 151.680,164.053 151.680 C 167.868 151.680,168.579 151.553,170.768 150.478 C 175.805 148.005,179.389 142.833,179.907 137.289 C 180.550 130.402,176.006 123.325,169.489 121.064 C 166.895 120.164,163.267 119.849,160.968 120.325 " stroke="none" fill-rule="evenodd"></path></svg>