<svg fill="currentColor" viewBox="0 0 256 256" xmlns="http://www.w3.org/2000/svg"><path d="M122.699 96.423 C 115.497 97.729,108.336 101.869,103.498 107.524 C 95.861 116.452,93.932 129.071,98.492 140.277 C 101.558 147.811,108.189 154.442,115.723 157.508 C 127.881 162.456,141.348 159.769,150.559 150.559 C 162.541 138.577,163.146 119.596,151.952 106.880 C 148.234 102.656,141.615 98.553,136.067 97.033 C 133.235 96.257,125.548 95.906,122.699 96.423 M132.321 121.396 C 134.695 122.930,135.822 125.079,135.822 128.073 C 135.822 130.165,135.612 130.887,134.572 132.367 C 132.831 134.844,130.894 135.879,128.000 135.879 C 125.106 135.879,123.169 134.844,121.428 132.367 C 120.388 130.887,120.178 130.165,120.178 128.073 C 120.178 121.616,126.922 117.908,132.321 121.396 " stroke="none" fill-rule="evenodd"></path></svg>