<svg fill="currentColor" viewBox="0 0 256 256" xmlns="http://www.w3.org/2000/svg"><path d="M124.424 44.394 C 121.794 45.054,117.879 47.338,116.210 49.186 C 113.049 52.685,111.444 58.048,112.241 62.446 C 113.214 67.812,116.321 71.988,121.086 74.334 C 123.697 75.619,124.261 75.733,128.000 75.733 C 131.739 75.733,132.303 75.619,134.914 74.334 C 141.211 71.234,144.858 64.399,143.773 57.729 C 143.232 54.395,141.176 50.359,139.035 48.425 C 135.247 45.003,128.937 43.262,124.424 44.394 M122.595 112.979 C 115.533 115.497,111.030 123.077,112.227 130.432 C 114.324 143.315,130.026 148.430,139.228 139.228 C 147.007 131.449,144.795 118.461,134.865 113.602 C 131.750 112.079,125.947 111.784,122.595 112.979 M123.703 180.609 C 116.052 182.780,110.808 190.910,112.211 198.426 C 112.854 201.869,114.932 205.772,117.173 207.744 C 126.918 216.322,141.694 211.060,143.773 198.271 C 144.846 191.670,141.205 184.763,135.055 181.736 C 131.865 180.165,126.977 179.680,123.703 180.609 " stroke="none" fill-rule="evenodd"></path></svg>