<svg fill="currentColor" viewBox="0 0 256 256" xmlns="http://www.w3.org/2000/svg"><path d="M91.947 0.730 C 89.084 1.710,85.731 5.043,84.769 7.866 C 84.175 9.609,84.053 11.781,84.049 20.663 L 84.045 31.360 73.184 46.869 C 66.882 55.868,61.918 63.391,61.359 64.789 C 60.557 66.795,60.393 68.025,60.384 72.107 C 60.374 76.887,60.413 77.096,61.924 80.213 C 62.776 81.973,67.705 90.032,72.877 98.120 C 82.156 112.634,82.272 112.845,81.720 114.120 C 81.412 114.832,71.371 136.245,59.406 161.707 C 47.442 187.168,37.320 208.960,36.913 210.133 C 36.479 211.384,36.152 213.679,36.121 215.680 C 35.993 224.039,41.042 231.549,48.928 234.731 L 51.413 235.733 128.000 235.733 L 204.587 235.733 207.072 234.731 C 214.961 231.548,220.037 224.000,219.884 215.680 C 219.848 213.722,219.508 211.361,219.087 210.141 C 218.683 208.972,208.562 187.180,196.596 161.715 C 184.630 136.249,174.587 114.829,174.278 114.115 C 173.724 112.835,173.824 112.647,181.063 101.315 C 193.160 82.377,194.248 80.558,195.080 77.886 C 196.169 74.386,196.132 69.701,194.985 66.003 C 194.005 62.843,193.614 62.238,180.334 43.307 L 171.953 31.360 171.950 20.663 C 171.946 8.645,171.723 7.361,169.102 4.299 C 164.543 -1.027,156.618 -1.339,151.649 3.611 C 148.274 6.972,148.053 8.006,148.053 20.454 L 148.053 30.943 145.107 34.603 C 140.824 39.926,137.924 41.982,132.830 43.309 C 126.954 44.839,120.389 43.419,115.479 39.555 C 114.577 38.845,112.513 36.617,110.893 34.603 L 107.947 30.943 107.947 20.454 C 107.947 8.664,107.716 7.353,105.102 4.299 C 101.988 0.661,96.501 -0.827,91.947 0.730 M162.264 86.093 L 153.350 100.053 127.997 100.053 L 102.643 100.053 93.747 86.090 L 84.851 72.127 90.676 63.797 C 93.880 59.215,96.696 55.467,96.935 55.467 C 97.173 55.467,98.308 56.312,99.457 57.345 C 103.869 61.311,109.516 64.359,116.267 66.416 C 119.861 67.512,120.612 67.587,128.000 67.587 C 135.388 67.587,136.139 67.512,139.733 66.416 C 146.587 64.328,151.846 61.472,156.762 57.170 L 159.228 55.013 165.203 63.572 L 171.179 72.132 162.264 86.093 M173.063 168.016 L 193.594 211.840 160.797 211.949 C 142.759 212.009,113.241 212.009,95.203 211.949 L 62.406 211.840 82.937 168.016 L 103.467 124.191 128.000 124.191 L 152.533 124.191 173.063 168.016 " stroke="none" fill-rule="evenodd"></path></svg>