<svg fill="currentColor" viewBox="0 0 256 256" xmlns="http://www.w3.org/2000/svg"><path d="M123.110 5.144 C 116.632 8.375,96.134 26.342,84.670 38.837 C 52.289 74.130,36.144 109.115,36.140 144.000 C 36.139 152.957,36.763 158.187,38.821 166.458 C 46.859 198.765,72.121 224.313,104.533 232.915 C 113.419 235.273,116.992 235.697,128.000 235.697 C 139.008 235.697,142.581 235.273,151.467 232.915 C 183.871 224.315,209.143 198.757,217.179 166.458 C 219.271 158.049,219.866 152.982,219.867 143.573 C 219.869 111.113,205.797 78.646,177.241 45.227 C 165.521 31.511,140.877 9.190,133.192 5.329 C 130.435 3.945,125.689 3.857,123.110 5.144 M116.053 126.293 C 116.053 206.466,116.015 210.773,115.307 210.773 C 114.896 210.773,112.744 210.275,110.524 209.666 C 85.581 202.830,66.824 182.955,61.437 157.653 C 60.118 151.461,59.824 140.655,60.772 133.213 C 63.648 110.628,74.772 87.788,94.507 63.948 C 99.144 58.345,114.959 41.813,115.680 41.813 C 115.892 41.813,116.053 78.386,116.053 126.293 M148.528 49.822 C 152.843 54.227,158.243 60.055,160.528 62.773 C 165.614 68.822,173.218 78.951,173.223 79.685 C 173.226 80.111,169.778 80.200,156.693 80.112 L 140.160 80.000 140.049 60.907 C 139.987 50.241,140.102 41.813,140.310 41.813 C 140.515 41.813,144.213 45.417,148.528 49.822 M187.906 106.133 C 189.586 110.482,191.911 117.187,192.196 118.507 L 192.494 119.893 166.221 119.893 L 139.947 119.893 139.947 112.000 L 139.947 104.107 163.535 104.107 L 187.123 104.107 187.906 106.133 M195.827 146.667 C 195.812 149.394,195.235 154.340,194.533 157.760 L 194.073 160.000 167.010 160.000 L 139.947 160.000 139.947 152.107 L 139.947 144.213 167.893 144.213 L 195.840 144.213 195.827 146.667 M182.613 184.153 C 182.613 184.819,177.986 190.112,174.589 193.331 C 168.155 199.428,160.858 204.077,152.598 207.341 C 149.393 208.608,141.785 210.773,140.540 210.773 C 140.046 210.773,139.947 208.525,139.947 197.333 L 139.947 183.893 161.280 183.893 C 173.013 183.893,182.613 184.010,182.613 184.153 " stroke="none" fill-rule="evenodd"></path></svg>