<svg fill="currentColor" viewBox="0 0 256 256" xmlns="http://www.w3.org/2000/svg"><path d="M121.600 12.202 C 107.044 13.480,90.174 18.632,85.889 23.108 C 78.721 30.593,84.100 43.183,94.477 43.208 C 96.534 43.213,97.945 42.856,101.333 41.475 C 110.709 37.652,117.871 36.239,127.855 36.242 C 139.340 36.246,148.573 38.383,158.507 43.335 C 164.967 46.556,170.458 50.565,176.000 56.107 C 181.764 61.871,185.284 66.787,188.830 74.027 C 193.328 83.211,195.192 90.393,195.814 100.950 C 196.220 107.826,196.804 109.606,199.580 112.420 C 205.387 118.308,215.151 116.524,218.952 108.881 C 219.846 107.082,219.941 106.341,219.891 101.547 C 219.822 95.029,218.860 88.230,216.965 80.869 C 207.794 45.239,177.979 18.449,141.464 13.027 C 136.951 12.357,125.331 11.874,121.600 12.202 M43.684 28.828 C 39.233 30.462,36.030 35.214,36.084 40.107 C 36.128 44.188,37.127 45.956,43.010 52.372 L 48.186 58.017 45.687 63.035 C 38.977 76.508,36.136 88.837,36.125 104.533 C 36.116 116.489,37.309 124.851,40.298 133.783 C 43.670 143.860,47.165 149.077,57.916 160.087 C 66.690 169.070,69.063 172.199,70.407 176.550 C 71.389 179.730,72.097 185.284,72.105 189.867 C 72.116 196.768,74.475 206.171,77.901 212.975 C 87.832 232.696,108.747 245.027,130.347 243.895 C 144.187 243.169,154.390 238.542,164.779 228.280 C 170.622 222.509,171.704 220.640,171.704 216.320 C 171.704 209.818,167.236 204.929,160.878 204.474 C 156.043 204.128,154.151 205.016,149.333 209.895 C 144.783 214.503,141.680 216.720,137.663 218.232 C 125.412 222.843,110.107 217.897,102.226 206.781 C 97.850 200.607,96.557 196.369,95.995 186.359 C 95.515 177.813,94.392 171.949,92.123 166.144 C 89.458 159.326,86.292 154.980,77.237 145.710 C 68.691 136.960,66.024 133.429,63.767 127.875 C 61.123 121.367,60.433 116.758,60.401 105.387 C 60.379 97.366,60.525 94.613,61.134 91.627 C 62.043 87.163,63.639 81.557,64.731 78.996 L 65.522 77.138 71.615 83.799 L 77.708 90.460 76.974 93.977 C 76.562 95.949,76.222 99.555,76.200 102.187 C 76.166 106.126,76.306 107.195,77.066 108.838 C 80.364 115.969,89.697 118.211,95.479 113.262 L 97.119 111.858 114.934 131.457 L 132.749 151.056 132.252 155.208 C 131.475 161.707,132.355 167.033,135.160 172.800 C 137.338 177.279,142.721 182.662,147.200 184.840 C 151.934 187.142,155.209 187.895,160.213 187.829 C 162.560 187.798,164.794 187.716,165.177 187.646 C 165.634 187.564,171.874 194.115,183.222 206.591 C 198.199 223.056,200.872 225.806,202.791 226.719 C 206.020 228.257,208.090 228.465,211.269 227.573 C 213.477 226.954,214.406 226.387,216.388 224.448 C 218.355 222.524,218.945 221.607,219.535 219.555 C 220.397 216.562,220.175 213.661,218.879 210.986 C 218.331 209.853,187.219 175.307,136.725 119.763 C 68.330 44.528,55.132 30.206,53.433 29.377 C 50.906 28.144,46.261 27.883,43.684 28.828 M121.663 52.484 C 117.835 53.295,114.605 55.968,112.948 59.696 C 112.278 61.205,112.150 62.233,112.302 64.866 C 112.592 69.867,114.884 73.192,119.436 75.215 C 120.947 75.886,122.444 76.075,126.903 76.160 C 133.386 76.283,135.494 76.727,140.160 78.951 C 147.428 82.417,152.774 88.827,154.913 96.640 C 155.771 99.776,155.823 100.634,155.552 107.188 C 155.283 113.676,155.330 114.491,156.073 116.170 C 159.180 123.193,167.522 125.714,173.829 121.537 C 178.239 118.616,179.867 113.684,179.795 103.467 C 179.694 89.145,174.730 77.369,164.505 67.194 C 157.183 59.907,148.549 55.240,138.453 53.111 C 134.523 52.283,124.399 51.904,121.663 52.484 " stroke="none" fill-rule="evenodd"></path></svg>