<svg fill="currentColor" viewBox="0 0 256 256" xmlns="http://www.w3.org/2000/svg"><path d="M160.213 28.797 C 157.111 29.487,154.173 30.759,151.040 32.769 C 148.509 34.393,30.760 151.634,26.662 156.610 C 19.368 165.469,18.042 176.909,23.107 187.279 C 24.853 190.855,25.262 191.306,42.206 208.339 C 56.269 222.477,59.961 225.962,61.867 226.899 L 64.213 228.053 141.013 228.053 C 228.327 228.053,220.414 228.399,224.397 224.415 C 226.835 221.977,227.844 219.420,227.831 215.711 C 227.814 211.205,225.513 207.576,221.227 205.295 L 219.093 204.160 180.071 204.042 L 141.048 203.925 186.075 158.816 C 230.446 114.365,231.128 113.656,232.846 110.228 C 237.304 101.337,236.933 91.162,231.842 82.648 C 230.670 80.688,224.708 74.421,208.889 58.524 C 197.136 46.712,186.142 35.933,184.458 34.570 C 180.864 31.660,176.718 29.593,172.820 28.767 C 169.349 28.031,163.595 28.045,160.213 28.797 M189.975 73.714 C 209.453 93.181,211.675 95.539,211.913 97.005 L 212.177 98.635 186.090 124.731 L 160.003 150.827 136.533 127.357 L 113.062 103.888 138.993 77.971 C 164.550 52.426,164.947 52.053,166.613 52.053 C 168.275 52.053,168.661 52.412,189.975 73.714 M119.572 144.532 L 142.933 167.890 124.908 185.918 L 106.884 203.947 89.160 203.947 L 71.437 203.947 57.955 190.400 C 50.541 182.949,44.338 176.407,44.172 175.863 C 44.006 175.318,43.994 174.358,44.147 173.729 C 44.329 172.979,53.235 163.765,70.101 146.880 C 84.223 132.741,95.875 121.173,95.994 121.173 C 96.113 121.173,106.723 131.685,119.572 144.532 " stroke="none" fill-rule="evenodd"></path></svg>