<svg fill="currentColor" viewBox="0 0 256 256" xmlns="http://www.w3.org/2000/svg"><path d="M89.387 12.220 C 72.862 14.104,61.767 17.952,49.580 26.025 C 30.004 38.994,17.163 58.783,13.034 82.347 C 12.055 87.935,11.721 98.552,12.344 104.320 C 14.609 125.295,24.884 145.360,40.193 158.704 C 50.139 167.374,60.668 173.175,72.592 176.553 L 77.983 178.081 79.124 182.335 C 84.435 202.140,97.243 219.453,115.156 231.041 C 119.635 233.938,128.721 238.177,134.187 239.919 C 144.207 243.112,152.723 244.296,162.987 243.921 C 184.666 243.130,204.007 234.700,219.354 219.354 C 234.700 204.007,243.130 184.666,243.921 162.987 C 244.635 143.421,238.604 124.595,226.566 108.814 C 215.757 94.645,199.480 83.722,182.321 79.120 L 178.030 77.970 176.883 73.690 C 171.518 53.685,158.151 35.759,140.357 24.708 C 129.447 17.932,116.583 13.587,103.893 12.390 C 99.494 11.975,92.279 11.891,89.387 12.220 M108.337 37.314 C 125.552 41.000,140.846 52.523,148.856 67.840 C 150.022 70.069,151.365 72.885,151.840 74.096 L 152.705 76.299 150.486 76.580 C 146.494 77.086,141.424 78.089,137.359 79.177 L 133.368 80.245 111.479 58.362 L 89.589 36.480 92.688 36.267 C 96.877 35.978,104.475 36.487,108.337 37.314 M110.810 91.984 C 110.760 92.026,109.184 93.270,107.307 94.750 C 103.172 98.010,97.982 103.196,94.458 107.588 L 91.850 110.839 68.522 87.509 L 45.195 64.179 47.412 60.996 C 50.256 56.914,56.914 50.256,60.996 47.412 L 64.179 45.195 87.539 68.552 C 100.387 81.399,110.859 91.943,110.810 91.984 M78.965 138.267 C 77.867 142.385,76.385 150.364,76.376 152.207 C 76.373 152.903,73.183 151.649,67.777 148.828 C 54.331 141.810,43.338 128.558,38.819 113.920 C 36.931 107.804,36.267 103.096,36.267 95.838 L 36.267 89.388 58.267 111.388 L 80.267 133.388 78.965 138.267 M155.733 101.277 C 155.733 105.612,153.054 115.391,150.220 121.400 C 141.986 138.856,126.037 151.228,107.017 154.915 C 104.696 155.365,102.227 155.733,101.532 155.733 C 100.015 155.733,99.975 155.383,100.891 150.130 C 103.084 137.554,108.526 127.037,117.547 117.937 C 126.549 108.856,137.262 103.199,149.760 100.925 C 151.520 100.605,153.584 100.326,154.347 100.305 C 155.532 100.272,155.733 100.414,155.733 101.277 M188.160 107.144 C 201.686 114.217,212.657 127.424,217.181 142.080 C 219.069 148.196,219.733 152.904,219.733 160.162 L 219.733 166.612 197.733 144.612 L 175.733 122.612 177.035 117.733 C 178.133 113.615,179.615 105.636,179.624 103.793 C 179.627 103.098,182.824 104.353,188.160 107.144 M210.357 192.408 C 209.467 194.070,205.711 198.848,203.340 201.331 C 200.843 203.948,196.331 207.814,193.342 209.897 L 191.911 210.895 168.536 187.523 L 145.161 164.150 148.420 161.547 C 152.447 158.331,159.072 151.648,161.920 147.930 L 164.053 145.145 187.386 168.438 C 205.657 186.677,210.641 191.877,210.357 192.408 M144.591 197.711 L 166.512 219.635 163.497 219.938 C 157.565 220.534,147.308 219.087,140.459 216.687 C 135.270 214.870,128.354 211.199,124.094 208.002 C 115.524 201.570,108.049 191.762,104.119 181.791 L 103.297 179.705 105.942 179.400 C 109.179 179.026,117.280 177.338,119.893 176.492 C 120.949 176.151,122.006 175.852,122.242 175.829 C 122.477 175.806,132.534 185.653,144.591 197.711 " stroke="none" fill-rule="evenodd"></path></svg>