<svg fill="currentColor" viewBox="0 0 256 256" xmlns="http://www.w3.org/2000/svg"><path d="M47.278 37.136 C 33.895 40.426,23.527 51.285,20.728 64.942 C 20.136 67.830,20.053 74.340,20.053 118.326 C 20.053 173.093,19.996 171.706,22.563 179.277 C 25.147 186.898,28.937 192.769,35.058 198.634 C 42.676 205.935,51.722 210.246,62.293 211.613 C 73.358 213.044,85.441 210.065,95.204 203.499 C 96.698 202.494,99.673 199.928,101.816 197.796 C 108.219 191.426,112.666 183.586,114.606 175.245 L 115.374 171.947 128.000 171.947 L 140.626 171.947 141.394 175.245 C 143.334 183.586,147.781 191.426,154.184 197.796 C 156.327 199.928,159.302 202.494,160.796 203.499 C 170.559 210.065,182.642 213.044,193.707 211.613 C 204.278 210.246,213.324 205.935,220.942 198.634 C 226.992 192.837,230.878 186.823,233.422 179.321 C 236.006 171.699,235.947 173.132,235.947 118.326 C 235.947 74.330,235.865 67.830,235.272 64.942 C 232.455 51.206,222.020 40.350,208.523 37.114 C 203.872 35.999,197.587 35.975,195.200 37.063 C 192.789 38.162,190.891 39.878,189.538 42.178 C 188.503 43.940,188.373 44.586,188.373 48.000 C 188.373 51.414,188.503 52.060,189.538 53.822 C 191.792 57.656,194.841 59.421,200.420 60.120 C 205.752 60.789,208.555 62.638,210.834 66.987 L 211.840 68.907 211.962 95.693 L 212.084 122.479 209.189 121.033 C 185.307 109.101,155.672 119.572,144.425 143.915 C 143.605 145.691,142.933 147.349,142.933 147.599 C 142.933 147.912,138.318 148.052,128.107 148.048 L 113.280 148.043 112.115 145.164 C 107.741 134.354,97.842 124.506,86.677 119.858 C 80.229 117.174,76.039 116.358,68.480 116.314 C 64.352 116.290,60.641 116.493,59.093 116.826 C 55.083 117.690,49.974 119.436,46.811 121.025 L 43.916 122.479 44.038 95.693 L 44.160 68.907 45.166 66.987 C 47.445 62.638,50.248 60.789,55.580 60.120 C 61.159 59.421,64.208 57.656,66.462 53.822 C 67.497 52.060,67.627 51.414,67.627 48.000 C 67.627 44.586,67.497 43.940,66.462 42.178 C 65.109 39.878,63.211 38.162,60.800 37.063 C 58.463 35.998,51.759 36.034,47.278 37.136 M75.662 141.368 C 81.763 143.583,86.626 147.772,89.299 153.114 C 91.302 157.117,91.866 160.056,91.638 165.301 C 91.413 170.480,90.432 173.495,87.635 177.596 C 83.162 184.158,76.233 187.836,68.267 187.879 C 61.531 187.915,56.068 185.727,51.385 181.120 C 41.711 171.603,41.611 156.701,51.156 147.156 C 54.469 143.843,59.483 141.116,63.573 140.401 C 67.097 139.786,72.492 140.217,75.662 141.368 M192.000 140.390 C 193.572 140.638,196.318 141.562,198.340 142.523 C 208.051 147.140,213.597 158.021,211.489 168.320 C 209.616 177.473,203.214 184.502,194.347 187.139 C 190.623 188.247,184.515 188.142,180.907 186.910 C 172.570 184.062,166.784 177.881,164.740 169.639 C 164.024 166.753,164.109 160.727,164.909 157.688 C 167.531 147.724,177.035 140.289,187.520 140.000 C 188.459 139.974,190.475 140.150,192.000 140.390 " stroke="none" fill-rule="evenodd"></path></svg>