<svg fill="currentColor" viewBox="0 0 256 256" xmlns="http://www.w3.org/2000/svg"><path d="M113.067 13.206 C 106.626 14.382,102.097 15.900,95.787 18.998 C 77.634 27.911,65.189 44.466,61.156 65.067 C 60.117 70.377,60.117 81.943,61.156 87.253 C 64.257 103.093,72.131 116.380,84.215 126.164 L 85.871 127.504 82.935 128.369 C 81.321 128.844,68.506 132.515,54.457 136.527 C 40.409 140.538,28.192 144.188,27.309 144.639 C 24.684 145.978,22.384 148.954,21.527 152.119 C 20.010 157.726,21.361 169.600,24.563 178.800 C 27.899 188.384,32.317 195.335,39.878 202.896 C 49.359 212.377,59.366 217.796,72.702 220.672 C 78.974 222.025,90.887 222.011,97.280 220.644 C 120.440 215.691,138.522 199.676,145.699 177.760 C 146.535 175.208,147.552 171.233,147.959 168.926 L 148.699 164.733 170.029 185.421 C 184.941 199.883,191.999 206.442,193.485 207.218 C 196.482 208.783,200.016 209.001,203.155 207.815 C 209.568 205.393,220.661 196.220,226.390 188.601 C 229.879 183.962,234.693 174.311,236.344 168.647 C 244.235 141.572,233.912 113.086,210.551 97.471 C 203.182 92.546,195.504 89.381,186.651 87.621 C 181.202 86.538,169.431 86.539,163.627 87.624 C 160.102 88.283,153.229 90.261,150.108 91.514 C 149.536 91.744,150.855 85.988,156.615 63.122 C 161.345 44.346,163.840 33.677,163.840 32.230 C 163.840 26.659,161.242 23.378,153.813 19.564 C 148.207 16.687,144.259 15.223,138.240 13.791 C 131.915 12.287,119.666 12.002,113.067 13.206 M133.858 37.305 C 135.459 37.697,137.033 38.181,137.355 38.381 C 137.830 38.674,136.758 43.480,131.671 63.851 C 128.222 77.661,125.212 89.672,124.982 90.543 C 124.615 91.931,124.367 92.159,122.975 92.392 C 114.220 93.858,105.850 98.443,100.719 104.584 L 98.616 107.101 95.814 104.300 C 88.659 97.145,84.651 87.966,84.178 77.653 C 83.205 56.429,99.376 37.941,120.320 36.332 C 124.795 35.988,130.016 36.363,133.858 37.305 M184.701 111.790 C 188.633 112.741,194.200 115.186,197.407 117.369 C 200.374 119.389,205.443 124.376,207.629 127.427 C 218.623 142.769,217.030 164.237,203.869 178.095 L 200.591 181.547 196.402 177.464 C 194.098 175.219,186.165 167.557,178.773 160.438 C 171.381 153.320,164.318 146.507,163.078 145.301 L 160.822 143.106 162.200 139.073 C 163.521 135.207,163.579 134.758,163.602 128.213 C 163.625 121.840,163.547 121.146,162.428 117.760 C 161.768 115.765,161.134 113.912,161.019 113.642 C 160.775 113.068,163.722 112.037,167.467 111.387 C 168.875 111.143,170.507 110.858,171.093 110.753 C 173.332 110.355,181.271 110.959,184.701 111.790 M132.080 116.769 C 134.900 117.729,138.271 121.100,139.231 123.920 C 140.723 128.297,139.825 132.593,136.689 136.080 C 132.064 141.225,123.936 141.225,119.311 136.080 C 114.809 131.073,114.952 124.352,119.660 119.644 C 123.073 116.231,127.497 115.207,132.080 116.769 M100.766 151.413 C 105.345 157.156,113.957 162.077,121.829 163.447 L 124.494 163.912 123.922 166.329 C 122.049 174.251,118.318 180.807,112.572 186.275 C 106.400 192.148,99.854 195.432,91.357 196.920 C 77.205 199.399,62.055 193.385,53.253 181.794 C 50.527 178.204,47.204 171.336,46.264 167.349 C 45.862 165.642,45.610 164.167,45.705 164.073 C 45.907 163.871,97.714 148.978,98.347 148.939 C 98.581 148.925,99.670 150.038,100.766 151.413 " stroke="none" fill-rule="evenodd"></path></svg>