<svg fill="currentColor" viewBox="0 0 256 256" xmlns="http://www.w3.org/2000/svg"><path d="M169.173 12.386 C 155.403 13.944,142.036 19.589,132.267 27.973 C 127.014 32.480,56.852 102.197,55.367 104.385 C 54.491 105.676,53.387 107.985,52.914 109.517 C 52.079 112.221,52.053 113.405,52.053 149.701 L 52.053 187.098 36.900 202.242 C 23.434 215.700,21.652 217.638,20.900 219.643 C 18.703 225.498,21.224 231.947,26.880 234.937 C 29.129 236.125,35.031 236.046,37.333 234.797 C 38.272 234.288,45.759 227.138,53.971 218.909 L 68.902 203.947 106.299 203.947 C 142.399 203.947,143.792 203.917,146.439 203.100 C 147.947 202.634,150.320 201.506,151.711 200.594 C 154.373 198.849,225.047 127.575,228.985 122.664 C 239.312 109.786,244.673 93.480,243.925 77.227 C 242.432 44.811,218.920 18.242,187.093 13.005 C 182.147 12.191,173.528 11.893,169.173 12.386 M180.445 36.284 C 208.831 39.196,226.958 67.564,217.622 94.463 C 216.551 97.551,213.515 103.319,211.575 105.955 L 210.133 107.913 187.522 107.930 L 164.911 107.947 179.507 93.333 C 195.633 77.188,195.947 76.779,195.947 71.893 C 195.947 67.551,193.780 63.799,189.990 61.578 C 188.535 60.725,187.304 60.404,184.911 60.250 C 179.051 59.874,180.934 58.322,150.933 88.260 L 124.160 114.977 124.160 92.095 L 124.160 69.212 135.941 57.752 C 142.421 51.450,148.805 45.468,150.128 44.460 C 155.270 40.542,163.639 37.193,170.453 36.327 C 174.687 35.790,175.593 35.786,180.445 36.284 M88.220 150.927 C 81.825 157.325,76.447 162.560,76.270 162.560 C 76.092 162.560,75.947 152.337,75.947 139.843 L 75.947 117.126 87.787 105.280 L 99.627 93.434 99.737 116.364 L 99.848 139.293 88.220 150.927 M175.784 142.827 C 170.036 148.635,159.383 159.387,152.110 166.720 L 138.885 180.053 115.844 180.053 L 92.803 180.053 116.693 156.160 L 140.584 132.267 163.409 132.267 L 186.233 132.267 175.784 142.827 " stroke="none" fill-rule="evenodd"></path></svg>