<svg fill="currentColor" viewBox="0 0 256 256" xmlns="http://www.w3.org/2000/svg"><path d="M80.493 20.735 C 67.645 23.056,56.236 31.036,49.877 42.151 C 47.235 46.769,44.950 53.862,44.316 59.413 C 42.908 71.754,47.252 84.638,56.040 94.187 L 57.709 96.000 55.978 97.877 C 51.020 103.257,47.252 110.096,45.360 117.150 C 44.358 120.889,44.226 122.164,44.235 128.000 C 44.244 133.736,44.391 135.163,45.346 138.754 C 47.356 146.311,50.917 152.729,56.215 158.346 L 59.023 161.322 56.868 163.541 C 47.575 173.108,42.441 188.771,44.340 201.758 C 45.941 212.713,50.029 221.352,57.168 228.869 C 73.873 246.458,100.060 249.044,119.873 235.060 C 127.469 229.699,134.048 221.050,137.047 212.480 C 139.653 205.031,139.641 205.147,139.833 185.460 C 139.968 171.685,140.135 167.242,140.512 167.409 C 146.855 170.226,151.529 171.453,157.227 171.800 C 170.987 172.636,185.231 166.414,193.723 155.857 C 203.391 143.841,206.270 129.052,201.722 114.773 C 199.615 108.157,196.798 103.210,192.391 98.388 L 190.163 95.951 191.876 94.162 C 199.433 86.270,203.968 74.899,203.938 63.918 C 203.880 42.297,187.534 23.476,166.245 20.515 C 164.041 20.209,149.626 20.066,123.382 20.092 C 91.246 20.123,83.213 20.243,80.493 20.735 M116.053 64.024 L 116.053 84.100 99.947 83.956 C 84.679 83.820,83.713 83.765,81.394 82.892 C 76.412 81.016,72.489 77.439,70.060 72.555 C 68.489 69.396,68.480 69.346,68.480 64.000 C 68.480 58.660,68.491 58.600,70.054 55.445 C 71.005 53.527,72.526 51.368,73.891 49.999 C 76.356 47.527,80.916 45.020,84.053 44.412 C 85.109 44.208,92.741 44.019,101.013 43.993 L 116.053 43.947 116.053 64.024 M163.655 44.408 C 174.108 46.311,181.396 56.628,179.670 67.081 C 178.309 75.319,172.040 81.890,163.926 83.582 C 162.618 83.854,157.085 84.053,150.806 84.053 L 139.947 84.053 139.947 64.000 L 139.947 43.947 150.535 43.947 C 156.359 43.947,162.263 44.154,163.655 44.408 M116.053 128.024 L 116.053 148.100 99.947 147.956 C 84.679 147.820,83.713 147.765,81.394 146.892 C 76.412 145.016,72.489 141.439,70.060 136.555 C 68.489 133.396,68.480 133.346,68.480 128.000 C 68.480 122.660,68.491 122.600,70.054 119.445 C 71.005 117.527,72.526 115.368,73.891 113.999 C 76.356 111.527,80.916 109.020,84.053 108.412 C 85.109 108.208,92.741 108.019,101.013 107.993 L 116.053 107.947 116.053 128.024 M163.655 108.408 C 169.552 109.481,175.169 113.712,177.794 119.055 C 183.780 131.244,176.498 145.398,163.054 147.703 C 152.445 149.523,142.130 141.976,140.330 131.081 C 138.644 120.868,145.571 110.713,155.713 108.528 C 158.776 107.868,160.545 107.841,163.655 108.408 M116.046 184.853 C 116.040 194.544,115.882 198.504,115.411 200.747 C 113.571 209.511,107.036 216.554,98.347 219.139 C 94.623 220.247,88.515 220.142,84.907 218.910 C 76.570 216.062,70.784 209.881,68.740 201.639 C 68.024 198.753,68.109 192.727,68.909 189.688 C 71.186 181.033,78.976 173.931,87.893 172.381 C 88.949 172.197,95.717 172.024,102.933 171.997 L 116.053 171.947 116.046 184.853 " stroke="none" fill-rule="evenodd"></path></svg>