<svg fill="currentColor" viewBox="0 0 256 256" xmlns="http://www.w3.org/2000/svg"><path d="M50.880 20.709 C 44.477 22.443,39.480 27.081,36.990 33.601 L 36.053 36.053 36.053 73.387 L 36.053 110.720 37.253 113.162 C 41.687 122.192,54.313 122.192,58.747 113.162 L 59.947 110.720 60.066 77.333 L 60.185 43.947 98.146 43.947 L 136.107 43.947 136.107 69.044 C 136.107 96.895,136.065 96.435,138.914 99.764 C 139.729 100.716,141.494 102.034,142.838 102.694 L 145.280 103.893 170.500 104.013 L 195.720 104.132 195.954 107.556 C 196.471 115.093,201.158 119.893,208.000 119.893 C 212.724 119.893,216.649 117.435,218.747 113.162 L 219.947 110.720 219.947 97.920 C 219.947 85.286,219.933 85.092,218.923 82.987 C 218.111 81.296,211.820 74.770,188.629 51.562 C 168.634 31.552,158.752 21.954,157.440 21.269 L 155.520 20.267 104.320 20.185 C 61.211 20.116,52.766 20.198,50.880 20.709 M182.613 79.890 C 182.613 80.068,177.525 80.213,171.307 80.213 L 160.000 80.213 160.000 68.590 L 160.000 56.966 171.307 68.267 C 177.525 74.482,182.613 79.713,182.613 79.890 M29.155 140.332 C 27.050 140.871,24.085 142.776,22.657 144.509 C 19.992 147.741,20.053 146.905,20.053 180.275 L 20.053 210.637 21.358 213.248 C 22.801 216.135,24.414 217.709,27.307 219.054 C 29.051 219.865,30.143 219.959,39.253 220.082 C 50.826 220.239,55.734 219.694,61.487 217.612 C 74.762 212.808,84.657 201.128,87.341 187.093 C 88.222 182.484,87.890 174.264,86.635 169.654 C 82.827 155.664,71.718 144.788,57.555 141.185 C 54.419 140.388,52.515 140.256,42.240 140.130 C 35.787 140.051,29.898 140.142,29.155 140.332 M122.970 140.437 C 116.578 141.353,109.217 145.147,104.168 150.127 C 96.274 157.914,92.160 168.166,92.160 180.053 C 92.160 192.075,96.023 201.540,104.270 209.725 C 107.827 213.256,109.279 214.366,112.523 216.033 C 117.955 218.825,121.938 219.820,127.787 219.847 C 133.785 219.875,137.179 219.065,142.933 216.228 C 146.895 214.276,147.913 213.524,151.730 209.730 C 159.980 201.532,163.840 192.072,163.840 180.053 C 163.840 165.385,157.063 152.344,145.789 145.317 C 138.773 140.945,131.010 139.284,122.970 140.437 M198.866 140.443 C 187.590 142.055,176.329 151.288,171.504 162.877 C 169.267 168.252,168.460 172.056,168.225 178.347 C 167.775 190.368,171.440 200.577,179.131 208.731 C 189.384 219.599,203.829 222.838,217.129 217.250 C 222.897 214.826,228.823 209.987,230.699 206.166 C 233.617 200.224,231.196 193.139,225.187 190.032 C 223.361 189.088,218.923 188.771,216.606 189.420 C 215.581 189.707,213.801 190.689,212.651 191.602 C 207.713 195.523,207.489 195.627,203.947 195.627 C 201.098 195.627,200.458 195.477,198.902 194.447 C 196.709 192.996,194.451 189.993,193.211 186.880 C 191.859 183.484,191.874 176.605,193.241 173.106 C 194.443 170.031,196.389 167.444,198.752 165.784 C 200.242 164.736,201.094 164.476,203.474 164.342 C 206.812 164.153,208.144 164.673,211.200 167.360 C 214.442 170.209,216.072 170.864,219.947 170.873 C 222.983 170.879,223.619 170.734,225.707 169.556 C 228.585 167.933,230.597 165.402,231.512 162.254 C 232.857 157.626,231.253 153.091,226.855 149.090 C 219.221 142.147,209.012 138.992,198.866 140.443 M55.387 165.955 C 60.839 168.881,63.723 173.662,63.764 179.840 C 63.826 189.132,57.421 195.558,47.736 195.920 L 44.160 196.053 44.048 180.111 L 43.936 164.169 48.315 164.339 C 52.310 164.495,52.929 164.636,55.387 165.955 M132.725 165.475 C 142.071 171.402,142.330 187.903,133.176 194.336 C 131.511 195.506,131.028 195.627,128.000 195.627 C 124.972 195.627,124.489 195.506,122.824 194.336 C 113.670 187.903,113.929 171.402,123.275 165.475 C 124.872 164.462,125.637 164.267,128.000 164.267 C 130.363 164.267,131.128 164.462,132.725 165.475 " stroke="none" fill-rule="evenodd"></path></svg>