<svg fill="currentColor" viewBox="0 0 256 256" xmlns="http://www.w3.org/2000/svg"><path d="M50.880 20.709 C 44.477 22.443,39.480 27.081,36.990 33.601 L 36.053 36.053 36.053 81.493 L 36.053 126.933 37.051 128.941 C 38.215 131.281,41.192 134.173,43.439 135.147 C 45.513 136.045,50.487 136.045,52.561 135.147 C 54.808 134.173,57.785 131.281,58.949 128.941 L 59.947 126.933 60.064 85.440 L 60.180 43.947 98.144 43.947 L 136.107 43.947 136.107 69.044 C 136.107 96.895,136.065 96.435,138.914 99.764 C 139.729 100.716,141.494 102.034,142.838 102.694 L 145.280 103.893 170.560 104.013 L 195.840 104.133 195.840 158.045 L 195.840 211.956 193.979 212.236 C 189.486 212.909,185.337 216.940,184.282 221.657 C 182.991 227.427,186.680 233.583,192.584 235.508 C 195.249 236.377,203.980 235.883,207.072 234.688 C 212.607 232.550,217.176 227.715,218.987 222.080 L 219.947 219.093 219.947 152.107 L 219.947 85.120 218.928 82.987 C 218.117 81.291,211.902 74.844,188.634 51.562 C 168.640 31.557,158.751 21.954,157.440 21.269 L 155.520 20.267 104.320 20.185 C 61.211 20.116,52.766 20.198,50.880 20.709 M182.613 79.890 C 182.613 80.068,177.525 80.213,171.307 80.213 L 160.000 80.213 160.000 68.590 L 160.000 56.966 171.307 68.267 C 177.525 74.482,182.613 79.713,182.613 79.890 M100.167 140.673 C 96.701 141.829,95.029 143.757,86.819 156.067 L 79.011 167.774 75.121 161.962 C 70.857 155.590,69.150 154.005,65.373 152.907 C 61.162 151.683,55.910 153.328,53.196 156.722 C 51.567 158.759,15.445 214.879,13.462 218.453 C 12.330 220.493,12.161 221.218,12.171 224.000 C 12.184 227.865,13.465 230.722,16.256 233.111 C 19.824 236.165,14.639 235.970,88.766 235.845 L 155.520 235.733 157.227 234.811 C 161.349 232.583,163.829 228.590,163.836 224.170 C 163.838 222.739,163.614 220.915,163.338 220.117 C 163.062 219.319,151.545 201.727,137.743 181.023 C 110.921 140.785,111.766 141.907,107.280 140.557 C 104.718 139.786,102.729 139.818,100.167 140.673 M116.904 193.014 C 123.730 203.310,129.242 211.807,129.153 211.896 C 129.064 211.985,110.349 212.009,87.564 211.949 L 46.137 211.840 54.113 199.391 C 58.500 192.544,62.202 186.829,62.340 186.691 C 62.478 186.553,64.196 188.861,66.156 191.821 C 70.062 197.717,72.049 199.716,75.006 200.724 C 77.492 201.571,81.075 201.572,83.107 200.727 C 86.850 199.170,87.789 198.085,95.912 185.929 C 100.274 179.403,103.988 174.115,104.167 174.178 C 104.346 174.241,110.077 182.717,116.904 193.014 " stroke="none" fill-rule="evenodd"></path></svg>