<svg fill="currentColor" viewBox="0 0 256 256" xmlns="http://www.w3.org/2000/svg"><path d="M50.880 20.709 C 44.477 22.443,39.480 27.081,36.990 33.601 L 36.053 36.053 36.053 127.787 L 36.053 219.520 37.024 222.293 C 38.966 227.837,43.447 232.520,48.928 234.731 L 51.413 235.733 128.000 235.733 L 204.587 235.733 207.072 234.731 C 212.686 232.466,217.184 227.691,218.987 222.080 L 219.947 219.093 219.947 152.107 L 219.947 85.120 218.923 82.987 C 218.111 81.296,211.820 74.770,188.629 51.562 C 168.634 31.552,158.752 21.954,157.440 21.269 L 155.520 20.267 104.320 20.185 C 61.211 20.116,52.766 20.198,50.880 20.709 M136.107 69.044 C 136.107 96.895,136.065 96.435,138.914 99.764 C 139.729 100.716,141.494 102.034,142.838 102.694 L 145.280 103.893 170.560 104.013 L 195.840 104.133 195.840 158.093 L 195.840 212.053 128.000 212.053 L 60.160 212.053 60.160 128.000 L 60.160 43.947 98.133 43.947 L 136.107 43.947 136.107 69.044 M182.613 79.890 C 182.613 80.068,177.525 80.213,171.307 80.213 L 160.000 80.213 160.000 68.590 L 160.000 56.966 171.307 68.267 C 177.525 74.482,182.613 79.713,182.613 79.890 M103.680 116.757 C 102.094 117.324,99.330 119.862,87.809 131.325 C 71.984 147.071,71.894 147.193,72.188 152.499 C 72.284 154.234,72.697 156.247,73.157 157.227 C 73.669 158.318,78.741 163.749,87.219 172.285 C 102.155 187.324,102.979 187.947,107.947 187.947 C 116.354 187.947,121.930 179.889,119.189 171.703 C 118.586 169.900,117.232 168.335,109.709 160.737 L 100.933 151.875 109.542 143.244 C 119.174 133.587,119.875 132.553,119.875 128.000 C 119.875 123.446,117.365 119.347,113.280 117.230 C 111.005 116.051,106.299 115.819,103.680 116.757 M144.637 116.452 C 139.539 118.003,136.110 122.652,136.120 128.000 C 136.129 132.556,136.831 133.592,146.458 143.244 L 155.067 151.875 146.291 160.737 C 138.768 168.335,137.414 169.900,136.811 171.703 C 134.070 179.889,139.646 187.947,148.053 187.947 C 153.021 187.947,153.845 187.324,168.781 172.285 C 177.066 163.943,182.349 158.293,182.861 157.227 C 183.470 155.957,183.680 154.592,183.680 151.893 C 183.680 148.725,183.536 148.024,182.539 146.347 C 181.912 145.291,175.288 138.357,167.819 130.939 C 155.828 119.029,153.994 117.370,152.137 116.752 C 149.955 116.027,146.491 115.888,144.637 116.452 " stroke="none" fill-rule="evenodd"></path></svg>