<svg fill="currentColor" viewBox="0 0 256 256" xmlns="http://www.w3.org/2000/svg"><path d="M50.880 20.709 C 44.477 22.443,39.480 27.081,36.990 33.601 L 36.053 36.053 36.053 127.787 L 36.053 219.520 37.024 222.293 C 38.966 227.837,43.447 232.520,48.928 234.731 L 51.413 235.733 128.000 235.733 L 204.587 235.733 207.072 234.731 C 212.686 232.466,217.184 227.691,218.987 222.080 L 219.947 219.093 219.947 152.107 L 219.947 85.120 218.928 82.987 C 218.117 81.291,211.902 74.844,188.634 51.562 C 168.640 31.557,158.751 21.954,157.440 21.269 L 155.520 20.267 104.320 20.185 C 61.211 20.116,52.766 20.198,50.880 20.709 M136.107 69.044 C 136.107 96.895,136.065 96.435,138.914 99.764 C 139.729 100.716,141.494 102.034,142.838 102.694 L 145.280 103.893 170.560 104.013 L 195.840 104.133 195.840 158.093 L 195.840 212.053 155.947 212.053 L 116.053 212.053 116.053 202.027 L 116.053 192.000 119.024 192.000 C 123.141 192.000,126.104 190.827,128.523 188.241 C 131.088 185.499,131.987 183.025,131.762 179.329 C 131.469 174.520,129.184 171.150,124.844 169.129 C 123.145 168.338,121.940 168.114,119.360 168.111 L 116.053 168.107 116.053 160.000 L 116.053 151.893 119.399 151.893 C 122.294 151.893,123.104 151.713,125.422 150.555 C 129.662 148.436,131.752 144.961,131.803 139.947 C 131.840 136.349,130.556 133.513,127.786 131.075 C 125.377 128.955,122.571 128.000,118.749 128.000 L 116.053 128.000 116.053 121.251 C 116.053 112.644,115.574 110.825,112.494 107.745 C 107.670 102.921,100.256 102.866,95.503 107.619 C 92.673 110.449,92.388 111.542,92.241 120.162 L 92.108 127.898 88.401 128.086 C 82.983 128.360,79.755 130.222,77.495 134.374 C 74.922 139.101,75.694 144.443,79.498 148.247 C 82.203 150.952,84.665 151.893,89.036 151.893 L 92.160 151.893 92.160 160.000 L 92.160 168.107 89.036 168.107 C 84.665 168.107,82.203 169.048,79.498 171.753 C 77.779 173.472,77.122 174.523,76.563 176.445 C 74.908 182.138,77.211 187.669,82.418 190.506 C 84.313 191.538,85.318 191.775,88.427 191.925 L 92.160 192.104 92.160 202.079 L 92.160 212.053 76.160 212.053 L 60.160 212.053 60.160 128.000 L 60.160 43.947 98.133 43.947 L 136.107 43.947 136.107 69.044 M182.613 79.890 C 182.613 80.068,177.525 80.213,171.307 80.213 L 160.000 80.213 160.000 68.590 L 160.000 56.966 171.307 68.267 C 177.525 74.482,182.613 79.713,182.613 79.890 " stroke="none" fill-rule="evenodd"></path></svg>