<svg fill="currentColor" viewBox="0 0 256 256" xmlns="http://www.w3.org/2000/svg"><path d="M50.880 20.709 C 44.477 22.443,39.480 27.081,36.990 33.601 L 36.053 36.053 36.053 73.387 L 36.053 110.720 37.253 113.162 C 41.687 122.192,54.313 122.192,58.747 113.162 L 59.947 110.720 60.066 77.333 L 60.185 43.947 98.146 43.947 L 136.107 43.947 136.107 69.044 C 136.107 96.895,136.065 96.435,138.914 99.764 C 139.729 100.716,141.494 102.034,142.838 102.694 L 145.280 103.893 170.560 104.013 L 195.840 104.133 195.840 158.093 L 195.840 212.053 186.956 212.053 C 176.758 212.053,175.314 212.353,172.166 215.124 C 169.144 217.784,168.330 219.667,168.330 224.000 C 168.330 228.172,169.067 229.995,171.804 232.593 C 175.183 235.800,174.785 235.733,190.507 235.733 C 204.296 235.733,204.638 235.713,207.072 234.731 C 212.686 232.466,217.184 227.691,218.987 222.080 L 219.947 219.093 219.947 152.107 L 219.947 85.120 218.928 82.987 C 218.117 81.291,211.902 74.844,188.634 51.562 C 168.640 31.557,158.751 21.954,157.440 21.269 L 155.520 20.267 104.320 20.185 C 61.211 20.116,52.766 20.198,50.880 20.709 M182.613 79.890 C 182.613 80.068,177.525 80.213,171.307 80.213 L 160.000 80.213 160.000 68.590 L 160.000 56.966 171.307 68.267 C 177.525 74.482,182.613 79.713,182.613 79.890 M37.333 140.338 C 31.914 141.701,28.189 146.324,28.169 151.711 C 28.156 155.415,29.165 157.978,31.594 160.406 C 34.288 163.101,36.478 163.834,42.756 164.144 L 47.752 164.391 47.876 187.475 C 48.000 210.558,48.000 210.560,48.986 212.739 C 52.592 220.704,62.829 222.419,68.706 216.043 C 72.036 212.430,71.878 213.785,72.017 187.627 L 72.141 164.267 75.430 164.263 C 82.332 164.257,86.411 162.944,88.983 159.902 C 94.194 153.736,92.258 144.729,84.949 141.127 C 82.992 140.163,82.924 140.160,60.800 140.088 C 48.597 140.048,38.037 140.161,37.333 140.338 M121.173 140.424 C 113.930 141.253,107.605 144.102,103.252 148.495 C 99.978 151.799,98.003 155.290,96.843 159.828 C 94.850 167.619,96.473 174.634,101.554 180.194 C 105.713 184.744,110.464 187.120,122.667 190.752 C 128.730 192.556,131.840 193.839,131.840 194.536 C 131.840 196.018,122.823 196.442,117.535 195.209 C 109.619 193.362,104.081 195.404,101.351 201.176 C 98.475 207.254,101.158 214.501,107.285 217.206 C 113.391 219.902,128.411 220.829,135.467 218.944 C 145.042 216.387,152.005 210.175,154.628 201.847 C 157.977 191.214,154.934 181.081,146.622 175.187 C 141.891 171.832,138.792 170.526,126.739 166.809 C 122.186 165.405,121.155 164.951,121.756 164.614 C 122.965 163.938,131.457 164.132,135.347 164.926 C 139.840 165.842,142.716 165.564,145.622 163.932 C 153.901 159.282,153.705 147.309,145.280 142.985 C 143.096 141.864,138.658 140.938,132.824 140.385 C 127.632 139.892,125.760 139.899,121.173 140.424 " stroke="none" fill-rule="evenodd"></path></svg>