<svg fill="currentColor" viewBox="0 0 256 256" xmlns="http://www.w3.org/2000/svg"><path d="M50.880 20.709 C 44.477 22.443,39.480 27.081,36.990 33.601 L 36.053 36.053 36.053 73.387 L 36.053 110.720 37.253 113.162 C 41.687 122.192,54.313 122.192,58.747 113.162 L 59.947 110.720 60.066 77.333 L 60.185 43.947 98.146 43.947 L 136.107 43.947 136.107 69.044 C 136.107 96.895,136.065 96.435,138.914 99.764 C 139.729 100.716,141.494 102.034,142.838 102.694 L 145.280 103.893 170.500 104.013 L 195.720 104.132 195.954 107.556 C 196.471 115.093,201.158 119.893,208.000 119.893 C 212.724 119.893,216.649 117.435,218.747 113.162 L 219.947 110.720 219.947 97.920 C 219.947 85.306,219.932 85.089,218.928 82.987 C 218.117 81.291,211.902 74.844,188.634 51.562 C 168.640 31.557,158.751 21.954,157.440 21.269 L 155.520 20.267 104.320 20.185 C 61.211 20.116,52.766 20.198,50.880 20.709 M182.613 79.890 C 182.613 80.068,177.525 80.213,171.307 80.213 L 160.000 80.213 160.000 68.590 L 160.000 56.966 171.307 68.267 C 177.525 74.482,182.613 79.713,182.613 79.890 M32.501 140.571 C 23.640 143.380,21.109 154.793,28.004 160.847 C 30.744 163.252,32.718 163.866,38.615 164.144 L 43.919 164.395 44.040 187.691 C 44.157 210.387,44.183 211.036,45.062 212.907 C 49.180 221.670,61.486 222.323,66.330 214.035 C 68.052 211.090,68.260 208.029,68.263 185.556 L 68.267 164.392 73.280 164.147 C 76.037 164.012,79.000 163.648,79.863 163.337 C 86.140 161.081,89.389 154.302,87.230 147.966 C 86.341 145.357,84.009 142.725,81.339 141.316 L 79.147 140.160 56.747 140.073 C 38.761 140.003,33.983 140.101,32.501 140.571 M117.021 140.401 C 109.381 141.395,104.073 143.821,99.368 148.472 C 94.405 153.379,92.160 158.846,92.160 166.025 C 92.160 172.446,93.984 176.714,98.624 181.152 C 103.024 185.360,106.624 187.119,117.333 190.289 C 124.570 192.432,128.185 193.916,127.776 194.577 C 126.807 196.146,119.476 196.340,112.640 194.978 C 107.546 193.964,105.406 194.103,102.354 195.650 C 96.883 198.422,94.411 205.559,97.043 210.987 C 99.459 215.971,102.316 217.635,110.907 219.061 C 124.318 221.288,134.771 219.488,142.437 213.632 C 144.914 211.740,147.814 208.218,149.299 205.299 C 150.787 202.374,151.893 197.350,151.893 193.515 C 151.893 186.783,150.001 182.305,145.119 177.479 C 141.348 173.753,136.571 171.138,129.493 168.928 C 117.048 165.041,116.854 164.970,117.599 164.553 C 118.815 163.873,127.126 164.092,131.524 164.920 C 136.393 165.837,139.082 165.451,142.197 163.389 C 145.337 161.308,147.627 157.083,147.627 153.368 C 147.627 149.587,144.993 145.197,141.511 143.175 C 137.511 140.853,124.700 139.402,117.021 140.401 M169.173 140.321 C 162.345 142.116,158.293 149.617,160.733 155.947 C 161.185 157.120,164.745 162.532,168.643 167.973 C 172.541 173.413,176.052 178.354,176.444 178.953 C 177.155 180.039,177.149 180.049,169.484 190.820 C 165.264 196.749,161.479 202.255,161.072 203.056 C 160.120 204.931,159.777 208.806,160.369 210.993 C 162.020 217.097,168.405 221.088,174.377 219.752 C 178.445 218.842,180.142 217.271,186.151 208.853 C 189.167 204.629,191.799 201.173,192.000 201.173 C 192.201 201.173,194.833 204.629,197.849 208.853 C 203.858 217.271,205.555 218.842,209.623 219.752 C 215.559 221.080,221.988 217.068,223.626 211.012 C 224.223 208.808,223.883 204.937,222.928 203.056 C 222.521 202.255,218.736 196.749,214.516 190.820 C 206.851 180.049,206.845 180.039,207.556 178.953 C 207.948 178.354,211.459 173.413,215.357 167.973 C 219.255 162.532,222.815 157.120,223.267 155.947 C 224.847 151.847,223.391 145.931,220.124 143.182 C 217.436 140.920,215.496 140.205,212.053 140.206 C 209.437 140.206,208.459 140.410,206.693 141.323 C 203.969 142.732,202.712 144.158,196.907 152.426 C 194.325 156.102,192.117 159.116,192.000 159.123 C 191.883 159.130,189.675 156.123,187.093 152.441 C 181.316 144.199,180.019 142.720,177.415 141.400 C 175.199 140.278,171.287 139.765,169.173 140.321 " stroke="none" fill-rule="evenodd"></path></svg>