<svg fill="currentColor" viewBox="0 0 256 256" xmlns="http://www.w3.org/2000/svg"><path d="M86.400 16.809 C 79.772 18.922,74.956 23.719,72.954 30.201 C 72.198 32.648,72.107 34.177,72.107 44.418 L 72.107 55.893 63.893 55.897 C 59.376 55.898,54.432 56.099,52.907 56.342 C 44.538 57.677,37.685 64.477,36.296 72.824 C 35.945 74.934,35.845 95.552,35.933 147.840 L 36.053 219.947 37.027 222.507 C 39.107 227.979,43.581 232.573,48.928 234.731 L 51.413 235.733 108.800 235.850 C 146.936 235.927,166.877 235.819,168.244 235.528 C 174.948 234.098,181.007 228.505,183.085 221.828 C 183.794 219.551,183.893 217.820,183.893 207.798 L 183.893 196.364 195.520 196.165 C 205.707 195.990,207.475 195.858,209.798 195.099 C 213.581 193.863,215.852 192.406,218.563 189.478 C 221.284 186.539,222.856 183.503,223.553 179.840 C 223.907 177.981,224.006 161.868,223.913 120.960 L 223.787 64.640 222.580 62.464 C 220.972 59.563,179.768 18.430,177.280 17.242 C 175.638 16.458,173.918 16.424,131.840 16.345 C 97.382 16.282,87.745 16.380,86.400 16.809 M183.575 56.642 L 200.107 73.177 200.107 122.562 L 200.107 171.947 192.010 171.947 L 183.913 171.947 183.797 138.133 L 183.680 104.320 182.749 102.613 C 181.387 100.117,139.373 58.362,136.960 57.106 C 135.040 56.107,135.039 56.107,115.520 55.976 L 96.000 55.846 96.000 47.976 L 96.000 40.107 131.522 40.107 L 167.044 40.107 183.575 56.642 M143.678 96.531 L 160.000 112.849 160.000 162.451 L 160.000 212.053 110.080 212.053 L 60.160 212.053 60.160 146.133 L 60.160 80.213 93.758 80.213 L 127.356 80.213 143.678 96.531 M82.987 133.273 C 78.524 135.360,76.183 139.051,76.183 144.000 C 76.183 148.896,78.598 152.702,83.139 154.961 L 85.120 155.947 109.653 155.947 C 132.760 155.947,134.309 155.899,136.295 155.134 C 146.175 151.323,146.495 137.487,136.805 133.087 C 135.143 132.332,133.585 132.285,110.080 132.280 L 85.120 132.275 82.987 133.273 M84.141 172.746 C 81.050 173.825,78.951 175.635,77.485 178.483 C 75.938 181.490,75.637 184.317,76.536 187.409 C 77.429 190.482,80.242 193.656,83.294 195.035 L 85.547 196.053 109.653 196.053 C 131.686 196.053,133.948 195.988,135.940 195.292 C 144.405 192.337,146.675 181.411,140.086 175.337 C 136.473 172.007,137.951 172.172,110.720 172.059 C 88.008 171.964,86.251 172.010,84.141 172.746 " stroke="none" fill-rule="evenodd"></path></svg>