<svg fill="currentColor" viewBox="0 0 256 256" xmlns="http://www.w3.org/2000/svg"><path d="M50.880 20.709 C 44.477 22.443,39.480 27.081,36.990 33.601 L 36.053 36.053 36.053 127.787 L 36.053 219.520 37.024 222.293 C 38.966 227.837,43.447 232.520,48.928 234.731 L 51.413 235.733 128.000 235.733 L 204.587 235.733 207.072 234.731 C 212.686 232.466,217.184 227.691,218.987 222.080 L 219.947 219.093 219.947 152.107 L 219.947 85.120 218.923 82.987 C 218.111 81.296,211.820 74.770,188.629 51.562 C 168.634 31.552,158.752 21.954,157.440 21.269 L 155.520 20.267 104.320 20.185 C 61.211 20.116,52.766 20.198,50.880 20.709 M136.107 69.044 C 136.107 96.895,136.065 96.435,138.914 99.764 C 139.729 100.716,141.494 102.034,142.838 102.694 L 145.280 103.893 170.560 104.013 L 195.840 104.133 195.840 158.093 L 195.840 212.053 128.000 212.053 L 60.160 212.053 60.160 128.000 L 60.160 43.947 98.133 43.947 L 136.107 43.947 136.107 69.044 M182.613 79.890 C 182.613 80.068,177.525 80.213,171.307 80.213 L 160.000 80.213 160.000 68.590 L 160.000 56.966 171.307 68.267 C 177.525 74.482,182.613 79.713,182.613 79.890 M92.929 120.484 C 87.107 122.070,83.621 127.102,84.168 133.132 C 84.629 138.218,88.114 142.224,93.241 143.559 C 96.943 144.523,158.991 144.541,162.685 143.578 C 165.719 142.788,168.120 141.229,169.608 139.082 C 173.959 132.803,172.037 124.814,165.352 121.394 L 162.835 120.107 128.884 120.023 C 102.426 119.957,94.491 120.059,92.929 120.484 M91.947 160.751 C 88.978 161.738,85.712 165.039,84.705 168.072 C 83.799 170.800,83.981 174.845,85.111 177.086 C 86.131 179.109,88.617 181.647,90.667 182.756 L 92.373 183.680 128.000 183.680 C 168.120 183.680,164.674 183.965,168.431 180.341 C 174.169 174.806,172.628 165.186,165.392 161.370 L 163.200 160.213 128.640 160.128 C 97.426 160.051,93.873 160.111,91.947 160.751 " stroke="none" fill-rule="evenodd"></path></svg>