<svg fill="currentColor" viewBox="0 0 256 256" xmlns="http://www.w3.org/2000/svg"><path d="M50.880 20.709 C 44.477 22.443,39.480 27.081,36.990 33.601 L 36.053 36.053 36.053 73.387 L 36.053 110.720 37.253 113.162 C 41.687 122.192,54.313 122.192,58.747 113.162 L 59.947 110.720 60.066 77.333 L 60.185 43.947 98.146 43.947 L 136.107 43.947 136.107 69.044 C 136.107 96.895,136.065 96.435,138.914 99.764 C 139.729 100.716,141.494 102.034,142.838 102.694 L 145.280 103.893 170.500 104.013 L 195.720 104.132 195.954 107.556 C 196.471 115.093,201.158 119.893,208.000 119.893 C 212.724 119.893,216.649 117.435,218.747 113.162 L 219.947 110.720 219.947 97.920 C 219.947 85.286,219.933 85.092,218.923 82.987 C 218.111 81.296,211.820 74.770,188.629 51.562 C 168.634 31.552,158.752 21.954,157.440 21.269 L 155.520 20.267 104.320 20.185 C 61.211 20.116,52.766 20.198,50.880 20.709 M182.613 79.890 C 182.613 80.068,177.525 80.213,171.307 80.213 L 160.000 80.213 160.000 68.590 L 160.000 56.966 171.307 68.267 C 177.525 74.482,182.613 79.713,182.613 79.890 M41.328 140.248 C 37.873 140.779,33.456 145.082,32.421 148.926 C 32.129 150.013,32.018 160.916,32.096 180.993 L 32.213 211.413 33.176 213.215 C 36.408 219.264,43.270 221.626,49.192 218.729 C 53.725 216.511,55.893 212.738,55.893 207.071 L 55.893 203.947 59.538 203.947 C 71.989 203.947,83.137 197.168,88.482 186.347 C 91.068 181.112,91.876 177.598,91.843 171.733 C 91.794 163.150,88.770 155.813,82.773 149.728 C 77.620 144.498,71.445 141.383,64.289 140.404 C 61.182 139.978,43.845 139.860,41.328 140.248 M109.013 140.428 C 105.046 141.347,101.143 145.417,100.268 149.547 C 99.968 150.963,99.856 161.577,99.935 181.120 L 100.053 210.560 101.040 212.739 C 102.264 215.443,104.518 217.683,107.307 218.966 C 109.374 219.916,109.808 219.946,121.387 219.931 C 135.580 219.913,138.014 219.489,145.707 215.690 C 156.259 210.478,163.653 201.418,166.709 189.955 C 167.634 186.487,167.815 184.877,167.823 180.053 C 167.838 171.408,165.880 164.813,161.239 157.874 C 154.932 148.446,144.177 141.756,133.131 140.393 C 128.748 139.852,111.391 139.877,109.013 140.428 M184.721 140.520 C 181.370 141.439,178.597 143.909,176.983 147.413 L 176.000 149.547 176.000 179.840 C 176.000 213.960,175.863 212.436,179.276 216.140 C 183.986 221.249,191.948 221.205,196.706 216.043 C 199.563 212.944,199.832 211.941,200.022 203.680 L 200.189 196.374 207.295 196.178 C 215.668 195.947,217.634 195.341,220.722 192.039 C 224.274 188.242,224.951 182.914,222.463 178.342 C 221.149 175.928,219.688 174.526,217.010 173.111 C 215.439 172.281,214.452 172.166,207.680 172.024 L 200.107 171.864 200.107 168.111 L 200.107 164.359 211.307 164.189 C 221.503 164.035,222.681 163.941,224.448 163.138 C 229.170 160.994,231.822 157.045,231.855 152.107 C 231.888 147.173,229.331 143.119,224.891 141.066 C 223.003 140.192,222.287 140.157,204.800 140.073 C 191.378 140.009,186.161 140.125,184.721 140.520 M63.488 164.869 C 67.458 166.943,68.930 171.559,66.935 175.680 C 65.551 178.538,63.430 179.727,59.284 179.967 L 55.893 180.163 55.893 172.215 L 55.893 164.267 59.115 164.267 C 61.058 164.267,62.793 164.505,63.488 164.869 M134.929 165.683 C 138.049 167.215,140.839 170.005,142.371 173.125 C 143.458 175.338,143.573 176.003,143.573 180.053 C 143.573 184.158,143.469 184.740,142.327 186.993 C 140.825 189.961,137.299 193.409,134.572 194.578 C 132.592 195.426,128.212 196.242,125.547 196.258 L 124.160 196.267 124.160 180.227 L 124.160 164.187 128.320 164.333 C 131.839 164.457,132.858 164.665,134.929 165.683 " stroke="none" fill-rule="evenodd"></path></svg>