<svg fill="currentColor" viewBox="0 0 256 256" xmlns="http://www.w3.org/2000/svg"><path d="M119.040 20.520 C 74.456 24.361,36.782 55.140,24.325 97.903 C 14.500 131.630,21.820 168.330,43.817 195.627 C 61.759 217.891,87.329 231.942,116.051 235.320 C 120.465 235.839,130.389 235.947,173.753 235.947 C 224.868 235.947,226.177 235.926,228.342 235.104 C 236.478 232.012,238.536 221.115,232.080 215.311 C 228.535 212.123,228.081 212.053,210.909 212.053 L 195.838 212.053 197.652 210.480 C 201.319 207.299,207.091 201.503,210.132 197.946 C 231.895 172.494,240.620 137.592,233.378 104.960 C 226.451 73.750,206.154 47.224,177.920 32.485 C 159.810 23.030,138.995 18.801,119.040 20.520 M135.040 44.374 C 172.305 47.758,202.630 74.580,210.140 110.797 C 216.962 143.695,203.768 177.112,176.187 196.793 C 167.877 202.723,155.031 208.223,144.640 210.301 C 111.127 217.004,77.454 203.127,58.387 174.755 C 35.957 141.379,40.254 97.112,68.683 68.683 C 86.237 51.128,110.708 42.164,135.040 44.374 M122.845 64.782 C 117.287 66.233,112.618 70.061,110.095 75.236 C 104.837 86.023,110.112 98.771,121.555 102.931 C 124.889 104.143,131.111 104.143,134.445 102.931 C 141.504 100.365,146.439 94.478,147.701 87.119 C 149.426 77.063,142.702 67.026,132.656 64.658 C 129.147 63.830,126.356 63.866,122.845 64.782 M79.467 108.594 C 75.900 109.369,72.850 111.082,69.985 113.920 C 58.368 125.430,64.717 144.976,80.960 147.707 C 90.295 149.276,99.576 143.674,102.931 134.445 C 104.143 131.111,104.143 124.889,102.931 121.555 C 100.450 114.730,94.604 109.689,87.688 108.411 C 84.529 107.827,82.822 107.865,79.467 108.594 M167.680 108.539 C 160.964 110.030,155.484 114.911,153.069 121.555 C 151.857 124.889,151.857 131.111,153.069 134.445 C 155.635 141.504,161.522 146.439,168.881 147.701 C 178.824 149.406,188.749 142.864,191.346 132.892 C 193.121 126.076,191.129 118.987,186.015 113.920 C 183.089 111.021,180.105 109.374,176.333 108.575 C 172.893 107.846,170.842 107.837,167.680 108.539 M124.644 152.322 C 118.989 153.171,112.772 157.797,110.163 163.096 C 102.656 178.346,116.541 195.605,132.892 191.346 C 142.873 188.746,149.406 178.825,147.698 168.863 C 146.455 161.614,141.635 155.820,134.714 153.256 C 132.005 152.252,127.741 151.857,124.644 152.322 " stroke="none" fill-rule="evenodd"></path></svg>