<svg fill="currentColor" viewBox="0 0 256 256" xmlns="http://www.w3.org/2000/svg"><path d="M50.880 20.710 C 44.478 22.442,39.481 27.080,36.990 33.601 L 36.053 36.053 36.053 127.787 L 36.053 219.520 37.024 222.293 C 38.966 227.837,43.447 232.520,48.928 234.731 L 51.413 235.733 128.000 235.733 L 204.587 235.733 207.072 234.731 C 212.686 232.466,217.184 227.691,218.987 222.080 L 219.947 219.093 219.947 128.000 L 219.947 36.907 218.987 33.920 C 217.184 28.309,212.686 23.534,207.072 21.269 L 204.587 20.267 128.853 20.185 C 64.571 20.116,52.781 20.195,50.880 20.710 M195.840 128.000 L 195.840 212.053 128.000 212.053 L 60.160 212.053 60.160 128.000 L 60.160 43.947 128.000 43.947 L 195.840 43.947 195.840 128.000 M87.863 64.556 C 83.410 65.819,79.346 69.353,77.302 73.739 C 76.345 75.792,76.173 76.743,76.173 80.000 C 76.173 83.270,76.343 84.204,77.317 86.294 C 83.537 99.644,102.359 98.882,107.105 85.087 C 109.204 78.985,107.122 71.644,102.173 67.702 C 98.326 64.638,92.268 63.306,87.863 64.556 M86.071 113.222 C 82.945 114.538,80.260 116.735,78.583 119.348 C 77.163 121.561,75.947 125.552,75.947 128.000 C 75.947 130.437,77.161 134.436,78.565 136.624 C 82.854 143.308,91.641 145.815,98.870 142.417 C 101.856 141.013,104.776 138.078,106.334 134.914 C 107.618 132.305,107.733 131.738,107.733 128.009 C 107.733 124.502,107.578 123.616,106.598 121.525 C 105.077 118.279,102.539 115.622,99.308 113.890 C 96.910 112.605,96.230 112.447,92.587 112.323 C 89.064 112.203,88.211 112.321,86.071 113.222 M87.863 160.556 C 83.410 161.819,79.346 165.353,77.302 169.739 C 76.345 171.792,76.173 172.743,76.173 176.000 C 76.173 179.270,76.343 180.204,77.317 182.294 C 83.537 195.644,102.359 194.882,107.105 181.087 C 109.204 174.985,107.122 167.644,102.173 163.702 C 98.326 160.638,92.268 159.306,87.863 160.556 " stroke="none" fill-rule="evenodd"></path></svg>