<svg fill="currentColor" viewBox="0 0 256 256" xmlns="http://www.w3.org/2000/svg"><path d="M114.671 16.861 C 63.563 23.047,22.759 63.811,16.877 114.560 C 16.524 117.611,16.047 124.235,15.819 129.280 C 15.346 139.724,14.486 144.962,11.918 153.052 C 10.024 159.015,9.870 161.114,11.089 164.371 C 14.107 172.436,24.797 174.547,30.806 168.264 C 32.713 166.269,33.608 164.309,35.573 157.811 C 38.392 148.492,40.102 136.955,40.105 127.237 C 40.116 94.052,59.320 63.500,89.387 48.832 C 102.205 42.579,113.659 39.953,128.000 39.979 C 142.545 40.006,153.821 42.592,166.613 48.832 C 193.973 62.180,212.204 88.261,215.451 118.703 C 216.999 133.207,214.827 161.407,210.497 183.040 C 208.371 193.662,208.778 196.809,212.764 200.593 C 215.038 202.751,216.915 203.598,219.976 203.843 C 223.386 204.117,226.310 203.156,228.837 200.932 C 231.356 198.715,232.277 196.686,233.568 190.507 C 239.744 160.969,241.649 127.445,238.236 108.373 C 229.547 59.811,189.940 22.585,140.852 16.843 C 134.324 16.079,121.052 16.088,114.671 16.861 M124.929 56.490 C 119.118 58.055,115.621 63.100,116.168 69.132 C 116.779 75.874,122.345 80.213,130.380 80.213 C 133.815 80.213,139.407 81.209,143.147 82.486 C 158.949 87.882,170.823 100.983,174.819 117.430 C 175.436 119.967,175.573 122.441,175.570 130.987 C 175.569 136.736,175.473 144.608,175.357 148.480 L 175.147 155.520 176.427 157.833 C 180.278 164.792,189.498 166.004,195.311 160.313 C 197.851 157.827,198.678 155.307,199.212 148.436 C 201.211 122.705,199.604 110.632,192.207 95.787 C 188.567 88.480,184.759 83.223,178.768 77.232 C 172.819 71.283,167.579 67.490,160.213 63.802 C 151.161 59.269,143.594 57.170,133.286 56.333 C 126.939 55.817,127.467 55.807,124.929 56.490 M83.552 72.277 C 79.832 73.606,72.769 80.971,67.640 88.869 C 62.540 96.723,58.539 106.981,56.977 116.206 C 56.585 118.519,56.092 124.663,55.882 129.859 C 55.453 140.415,55.046 144.219,53.543 151.701 C 51.315 162.787,48.513 170.884,43.034 182.066 C 39.175 189.939,38.751 191.760,39.873 195.620 C 40.449 197.602,41.084 198.591,43.017 200.517 C 45.038 202.530,45.893 203.057,48.168 203.691 C 52.635 204.937,57.164 203.615,60.284 200.153 C 63.555 196.525,70.970 179.640,74.219 168.420 C 77.950 155.537,79.261 146.616,80.222 127.573 C 80.733 117.454,81.730 113.362,85.498 105.928 C 87.568 101.845,90.686 97.613,94.521 93.682 C 98.050 90.065,99.307 87.847,99.698 84.551 C 100.247 79.915,97.254 74.756,92.816 72.689 C 90.342 71.537,86.147 71.351,83.552 72.277 M122.699 96.423 C 113.625 98.068,104.701 104.268,100.272 112.000 C 96.611 118.394,95.051 127.197,96.715 132.080 C 97.676 134.900,101.047 138.271,103.866 139.231 C 108.333 140.753,113.232 139.653,116.341 136.431 C 118.702 133.983,119.387 132.479,119.930 128.551 C 120.189 126.675,120.769 124.610,121.261 123.811 C 124.157 119.105,131.239 118.867,134.445 123.369 C 135.937 125.465,136.104 127.298,135.669 136.747 C 134.352 165.295,127.994 190.221,115.370 216.331 C 110.813 225.758,110.389 227.442,111.558 231.502 C 112.520 234.845,116.047 238.453,119.258 239.379 C 123.878 240.711,128.960 239.374,131.867 236.064 C 134.516 233.047,142.070 216.666,146.874 203.520 C 154.831 181.747,160.000 152.913,160.000 130.295 C 160.000 120.276,157.601 113.297,151.952 106.880 C 148.234 102.656,141.615 98.553,136.067 97.033 C 133.235 96.257,125.548 95.906,122.699 96.423 M99.837 156.559 C 96.001 157.726,92.955 160.939,91.756 165.084 C 91.309 166.629,90.343 170.005,89.610 172.587 C 86.611 183.151,81.740 194.917,76.324 204.681 C 71.712 212.998,71.092 214.503,71.104 217.365 C 71.130 223.988,76.368 229.227,82.966 229.227 C 86.213 229.227,89.341 227.952,91.407 225.787 C 95.498 221.499,104.929 202.403,109.567 189.013 C 114.700 174.196,116.012 167.712,114.634 163.975 C 112.925 159.339,108.331 156.129,103.505 156.197 C 102.076 156.217,100.425 156.380,99.837 156.559 M176.163 180.642 C 171.859 182.180,169.453 184.846,168.053 189.628 C 165.025 199.972,163.491 204.814,161.635 209.897 C 159.307 216.268,159.020 218.702,160.184 222.205 C 162.972 230.600,174.197 232.810,180.173 226.141 C 181.163 225.035,182.328 223.189,182.762 222.039 C 185.879 213.765,191.083 197.095,191.743 193.269 C 192.080 191.317,191.034 187.336,189.625 185.206 C 186.873 181.048,180.794 178.987,176.163 180.642 " stroke="none" fill-rule="evenodd"></path></svg>