<svg fill="currentColor" viewBox="0 0 256 256" xmlns="http://www.w3.org/2000/svg"><path d="M134.542 12.712 C 131.645 13.745,129.550 15.387,128.209 17.675 C 127.610 18.698,122.688 31.700,117.272 46.568 C 111.856 61.435,107.291 73.746,107.126 73.925 C 106.962 74.104,102.172 69.733,96.481 64.214 C 90.791 58.694,85.344 53.774,84.378 53.281 C 79.947 51.021,74.237 52.008,70.609 55.661 C 68.374 57.910,63.157 65.215,58.487 72.630 C 40.865 100.616,33.201 130.642,36.949 157.013 C 42.136 193.511,68.772 223.425,104.533 232.915 C 113.419 235.273,116.992 235.697,128.000 235.697 C 139.008 235.697,142.581 235.273,151.467 232.915 C 183.871 224.315,209.143 198.757,217.179 166.458 C 219.224 158.238,219.858 152.952,219.872 144.000 C 219.889 133.855,218.946 126.171,216.471 116.286 C 210.855 93.856,198.426 70.749,180.313 49.067 C 168.458 34.876,148.380 15.498,143.122 13.172 C 140.393 11.965,137.129 11.790,134.542 12.712 M156.860 58.610 C 179.687 84.108,192.572 109.557,195.444 134.816 C 196.155 141.070,195.726 152.175,194.562 157.653 C 191.878 170.279,186.020 181.441,177.222 190.694 C 156.234 212.767,123.803 218.268,96.834 204.328 C 81.455 196.379,69.025 181.934,63.614 165.722 C 59.708 154.016,59.097 139.944,61.896 126.121 C 64.479 113.368,70.366 99.039,78.279 86.247 L 80.705 82.325 92.431 93.749 C 99.216 100.360,105.059 105.693,106.297 106.406 C 107.903 107.331,109.175 107.691,111.394 107.850 C 114.080 108.042,114.603 107.938,117.098 106.709 C 121.702 104.443,121.624 104.600,131.289 78.119 C 136.050 65.074,140.741 52.223,141.713 49.562 L 143.481 44.724 147.522 48.709 C 149.744 50.900,153.946 55.356,156.860 58.610 " stroke="none" fill-rule="evenodd"></path></svg>