<svg fill="currentColor" viewBox="0 0 256 256" xmlns="http://www.w3.org/2000/svg"><path d="M99.200 20.646 C 94.064 21.898,88.396 26.370,86.202 30.901 C 84.105 35.233,84.064 35.811,84.058 60.693 L 84.053 84.053 61.034 84.053 C 45.815 84.053,37.249 84.214,35.754 84.527 C 30.432 85.641,24.479 90.198,22.202 94.901 C 20.081 99.283,20.063 99.554,20.063 128.000 C 20.063 156.491,20.076 156.680,22.227 161.171 C 23.477 163.782,28.218 168.523,30.829 169.773 C 35.269 171.900,35.769 171.936,60.693 171.942 L 84.053 171.947 84.058 195.307 C 84.064 220.231,84.100 220.731,86.227 225.171 C 87.477 227.782,92.218 232.523,94.829 233.773 C 99.320 235.924,99.509 235.937,128.000 235.937 C 156.491 235.937,156.680 235.924,161.171 233.773 C 163.782 232.523,168.523 227.782,169.773 225.171 C 171.900 220.731,171.936 220.231,171.942 195.307 L 171.947 171.947 195.307 171.942 C 220.231 171.936,220.731 171.900,225.171 169.773 C 227.782 168.523,232.523 163.782,233.773 161.171 C 235.924 156.680,235.937 156.491,235.937 128.000 C 235.937 99.554,235.919 99.283,233.798 94.901 C 231.521 90.198,225.568 85.641,220.246 84.527 C 218.751 84.214,210.185 84.053,194.966 84.053 L 171.947 84.053 171.942 60.693 C 171.936 35.811,171.895 35.233,169.798 30.901 C 167.521 26.198,161.568 21.641,156.246 20.527 C 152.943 19.835,102.090 19.941,99.200 20.646 M148.053 71.024 C 148.053 97.013,148.087 98.193,148.903 100.371 C 149.981 103.253,152.728 105.991,155.658 107.104 C 157.782 107.911,159.024 107.947,184.965 107.947 L 212.053 107.947 212.053 128.000 L 212.053 148.053 185.036 148.053 C 154.549 148.053,155.665 147.944,151.920 151.311 C 150.426 152.654,149.551 153.896,148.931 155.554 C 148.079 157.830,148.053 158.697,148.053 184.976 L 148.053 212.053 128.000 212.053 L 107.947 212.053 107.947 184.976 C 107.947 158.697,107.921 157.830,107.069 155.554 C 106.449 153.896,105.574 152.654,104.080 151.311 C 100.335 147.944,101.451 148.053,70.964 148.053 L 43.947 148.053 43.947 128.000 L 43.947 107.947 71.035 107.947 C 96.976 107.947,98.218 107.911,100.342 107.104 C 103.272 105.991,106.019 103.253,107.097 100.371 C 107.913 98.193,107.947 97.013,107.947 71.024 L 107.947 43.947 128.000 43.947 L 148.053 43.947 148.053 71.024 " stroke="none" fill-rule="evenodd"></path></svg>