<svg fill="currentColor" viewBox="0 0 256 256" xmlns="http://www.w3.org/2000/svg"><path d="M67.520 12.594 C 60.520 14.114,54.916 19.521,52.741 26.851 C 52.142 28.870,52.054 32.444,52.058 54.584 C 52.064 80.892,52.107 81.650,53.852 85.771 C 54.203 86.598,59.317 93.721,65.218 101.601 L 75.947 115.928 75.947 170.796 C 75.947 209.205,76.088 226.343,76.418 227.926 C 78.040 235.702,84.298 241.960,92.074 243.582 C 95.225 244.239,160.775 244.239,163.926 243.582 C 171.702 241.960,177.960 235.702,179.582 227.926 C 179.912 226.343,180.053 209.205,180.053 170.796 L 180.053 115.928 190.782 101.601 C 196.683 93.721,201.797 86.598,202.148 85.771 C 203.893 81.650,203.936 80.892,203.942 54.584 C 203.947 26.966,203.972 27.300,201.503 22.423 C 200.152 19.756,196.296 15.928,193.400 14.379 C 188.750 11.892,190.591 11.959,127.787 11.988 C 80.945 12.010,69.689 12.123,67.520 12.594 M180.053 44.160 L 180.053 52.053 128.000 52.053 L 75.947 52.053 75.947 44.160 L 75.947 36.267 128.000 36.267 L 180.053 36.267 180.053 44.160 M179.627 76.223 C 179.627 76.374,174.850 82.878,169.011 90.674 C 161.812 100.288,158.070 105.657,157.385 107.358 L 156.373 109.867 156.260 165.013 L 156.147 220.160 128.207 220.160 L 100.267 220.160 100.253 168.000 C 100.246 138.780,100.068 114.511,99.847 112.818 C 99.112 107.158,98.350 105.846,86.989 90.674 C 81.150 82.878,76.373 76.374,76.373 76.223 C 76.373 76.071,99.605 75.947,128.000 75.947 C 156.395 75.947,179.627 76.071,179.627 76.223 M125.155 108.331 C 123.044 108.873,120.083 110.779,118.648 112.519 C 116.056 115.664,116.006 116.142,116.143 136.801 C 116.264 155.056,116.290 155.562,117.189 157.227 C 121.130 164.519,130.427 166.120,136.249 160.510 C 137.149 159.643,138.301 158.165,138.809 157.227 C 139.711 155.561,139.736 155.066,139.857 136.801 C 139.995 115.977,139.951 115.574,137.205 112.366 C 134.402 109.091,129.105 107.317,125.155 108.331 " stroke="none" fill-rule="evenodd"></path></svg>