<svg fill="currentColor" viewBox="0 0 256 256" xmlns="http://www.w3.org/2000/svg"><path d="M42.621 28.778 C 37.215 30.269,32.466 34.310,29.967 39.543 L 28.373 42.880 28.373 128.000 L 28.373 213.120 29.958 216.440 C 33.070 222.956,38.805 227.007,46.107 227.846 C 50.959 228.404,205.041 228.404,209.893 227.846 C 219.762 226.712,226.753 219.638,227.867 209.659 C 228.136 207.249,228.249 184.164,228.173 146.975 L 228.053 88.107 227.138 85.441 C 226.635 83.975,225.634 81.863,224.915 80.747 C 223.056 77.868,176.895 31.940,174.507 30.595 C 169.943 28.023,173.733 28.156,106.269 28.198 C 57.801 28.228,44.166 28.352,42.621 28.778 M183.572 72.425 L 203.947 92.797 203.947 148.372 L 203.947 203.947 196.053 203.947 L 188.160 203.947 188.160 177.572 C 188.160 160.324,187.999 150.324,187.694 148.675 C 186.528 142.368,182.258 136.782,176.427 133.937 L 173.440 132.480 128.000 132.480 L 82.560 132.480 79.682 133.888 C 75.958 135.709,72.188 139.217,70.448 142.480 C 67.921 147.222,67.856 148.100,67.847 177.387 L 67.840 203.947 59.947 203.947 L 52.053 203.947 52.053 128.000 L 52.053 52.053 107.625 52.053 L 163.197 52.053 183.572 72.425 M91.372 68.920 C 85.400 71.514,82.395 78.875,84.998 84.537 C 86.478 87.758,87.983 89.372,90.793 90.752 L 93.227 91.947 123.947 91.947 C 154.220 91.947,154.695 91.934,156.587 91.054 C 159.217 89.832,161.080 88.172,162.462 85.822 C 163.497 84.060,163.627 83.414,163.627 80.000 C 163.627 76.586,163.497 75.940,162.462 74.178 C 161.109 71.878,159.211 70.162,156.800 69.063 C 155.198 68.333,153.188 68.286,123.947 68.293 C 97.659 68.299,92.577 68.397,91.372 68.920 M163.840 180.053 L 163.840 203.947 128.000 203.947 L 92.160 203.947 92.160 180.053 L 92.160 156.160 128.000 156.160 L 163.840 156.160 163.840 180.053 " stroke="none" fill-rule="evenodd"></path></svg>