<svg fill="currentColor" viewBox="0 0 256 256" xmlns="http://www.w3.org/2000/svg"><path d="M123.299 28.576 C 118.864 29.707,114.965 32.357,108.217 38.827 C 100.697 46.035,94.835 53.612,89.824 62.598 C 89.796 62.648,87.160 61.381,83.966 59.781 C 75.066 55.324,64.453 52.047,58.959 52.058 C 51.820 52.073,44.271 56.852,41.229 63.281 C 38.824 68.365,36.567 79.859,36.018 89.813 C 35.767 94.375,36.316 104.292,36.967 106.947 C 37.179 107.814,36.999 107.883,33.850 108.148 C 24.531 108.929,18.640 110.137,14.679 112.076 C 7.538 115.573,2.881 124.705,4.246 132.539 C 6.017 142.713,13.599 157.464,22.553 168.156 C 38.571 187.285,64.939 202.719,91.733 208.647 C 103.880 211.335,115.416 212.254,132.693 211.911 C 145.895 211.648,151.886 211.096,161.176 209.284 C 189.168 203.826,216.685 188.158,233.490 168.107 C 242.319 157.572,250.001 142.609,251.757 132.522 C 253.110 124.755,248.409 115.547,241.321 112.076 C 237.361 110.137,231.468 108.929,222.156 108.148 C 219.709 107.943,218.875 107.723,219.028 107.324 C 219.604 105.822,220.246 94.354,220.014 89.719 C 219.530 80.076,217.179 68.193,214.774 63.233 C 211.617 56.725,204.153 52.073,196.846 52.058 C 191.468 52.048,180.424 55.522,171.547 60.017 C 168.629 61.494,166.215 62.659,166.183 62.605 C 166.151 62.551,165.583 61.547,164.921 60.373 C 158.004 48.120,142.995 32.447,135.275 29.417 C 132.631 28.379,125.917 27.908,123.299 28.576 M131.434 56.186 C 144.356 68.376,153.067 87.068,155.316 107.433 C 156.013 113.749,155.646 130.571,154.690 136.101 C 152.469 148.949,148.135 160.220,141.756 169.738 C 138.344 174.828,133.546 180.501,130.327 183.251 L 128.009 185.232 125.882 183.438 C 124.712 182.452,122.630 180.375,121.255 178.823 C 109.862 165.962,103.203 150.864,100.882 132.625 C 99.864 124.627,100.194 108.621,101.532 101.120 C 104.584 84.008,112.024 69.045,123.115 57.715 C 125.474 55.305,127.631 53.333,127.907 53.333 C 128.184 53.333,129.771 54.617,131.434 56.186 M65.167 77.828 C 68.900 79.098,74.755 81.820,78.025 83.806 L 80.483 85.300 79.534 89.063 C 75.373 105.570,74.875 127.481,78.292 143.782 C 78.611 145.305,78.814 146.608,78.744 146.678 C 78.477 146.945,73.275 138.524,70.846 133.894 C 66.374 125.369,63.235 116.655,61.415 107.707 C 60.295 102.204,59.844 90.063,60.559 84.693 C 61.060 80.932,61.836 76.800,62.041 76.800 C 62.097 76.800,63.504 77.263,65.167 77.828 M194.489 79.040 C 196.549 88.440,196.262 100.787,193.737 111.360 C 191.863 119.203,188.092 128.690,183.848 136.236 C 181.266 140.829,177.447 146.870,177.251 146.673 C 177.176 146.598,177.308 145.678,177.545 144.628 C 179.537 135.786,180.536 119.188,179.677 109.227 C 179.098 102.510,177.880 94.865,176.497 89.263 L 175.518 85.299 177.892 83.870 C 181.671 81.596,185.518 79.757,189.653 78.246 C 191.765 77.474,193.607 76.833,193.745 76.821 C 193.884 76.810,194.219 77.808,194.489 79.040 M42.027 132.268 L 43.733 132.279 45.653 136.827 C 50.588 148.514,59.410 162.267,68.800 172.907 C 70.198 174.491,71.196 175.787,71.018 175.787 C 69.914 175.787,58.205 168.455,53.760 164.980 C 47.271 159.907,39.632 151.732,35.697 145.648 C 33.590 142.391,29.440 134.194,29.440 133.291 C 29.440 132.541,35.516 131.776,38.827 132.108 C 39.648 132.190,41.088 132.262,42.027 132.268 M225.805 132.630 L 226.971 132.907 224.662 137.693 C 220.570 146.173,216.585 151.605,209.218 158.739 C 204.205 163.594,200.927 166.205,195.200 169.903 C 190.725 172.792,185.527 175.787,184.987 175.787 C 184.813 175.787,185.905 174.395,187.414 172.693 C 196.532 162.415,205.531 148.350,210.390 136.785 L 212.267 132.318 214.613 132.177 C 217.596 131.998,224.281 132.269,225.805 132.630 " stroke="none" fill-rule="evenodd"></path></svg>