<svg fill="currentColor" viewBox="0 0 256 256" xmlns="http://www.w3.org/2000/svg"><path d="M35.520 44.594 C 28.496 46.120,22.860 51.577,20.726 58.918 C 20.110 61.035,20.054 68.293,20.155 132.926 L 20.267 204.587 21.269 207.072 C 23.534 212.686,28.309 217.184,33.920 218.987 L 36.907 219.947 75.520 219.947 C 112.475 219.947,114.224 219.912,116.242 219.134 C 125.757 215.464,126.549 202.269,117.547 197.403 C 115.845 196.483,115.728 196.479,80.000 196.267 L 44.160 196.053 44.052 132.160 L 43.944 68.267 68.119 68.267 L 92.294 68.267 106.220 78.705 C 113.940 84.492,121.202 89.611,122.517 90.192 C 123.820 90.768,126.007 91.447,127.375 91.700 C 129.044 92.008,143.394 92.160,170.930 92.160 L 211.996 92.160 212.131 101.867 C 212.282 112.660,212.355 112.981,215.407 116.196 C 218.004 118.932,219.828 119.670,224.000 119.671 C 228.163 119.673,229.541 119.129,232.431 116.341 C 235.713 113.175,235.947 111.940,235.947 97.780 C 235.947 88.135,235.807 84.976,235.293 83.002 C 233.790 77.231,230.006 72.672,224.564 70.074 L 221.227 68.480 176.754 68.366 L 132.281 68.251 117.874 57.475 C 109.950 51.548,102.460 46.267,101.230 45.739 C 100.000 45.211,98.006 44.592,96.798 44.363 C 93.191 43.679,38.789 43.884,35.520 44.594 M186.321 140.413 C 175.071 142.058,164.304 150.279,159.347 161.006 C 156.862 166.385,156.031 170.780,156.271 177.280 C 156.444 181.987,156.676 183.445,157.807 186.912 C 158.540 189.159,160.083 192.568,161.237 194.488 L 163.334 197.978 160.557 200.642 C 155.273 205.711,151.355 211.902,149.159 218.655 C 147.205 224.665,147.925 228.621,151.652 232.348 C 156.508 237.203,163.496 237.200,168.357 232.339 C 170.033 230.663,170.751 229.512,171.471 227.347 C 173.539 221.132,176.981 217.059,182.466 214.334 C 194.280 208.465,208.782 214.683,212.475 227.202 C 214.185 232.999,220.417 236.751,226.307 235.528 C 231.776 234.393,235.876 229.459,235.928 223.948 C 235.967 219.861,232.157 210.976,228.130 205.763 C 227.087 204.412,224.964 202.092,223.412 200.607 L 220.591 197.907 221.812 196.127 C 224.383 192.376,226.451 187.286,227.425 182.311 C 228.094 178.895,227.746 170.028,226.809 166.613 C 225.122 160.466,221.518 154.548,216.639 149.915 C 208.483 142.169,197.612 138.762,186.321 140.413 M196.531 164.901 C 198.977 165.922,201.126 167.881,202.475 170.315 C 203.577 172.304,203.732 173.011,203.726 176.000 C 203.720 178.679,203.518 179.791,202.786 181.170 C 200.410 185.647,196.789 187.909,192.000 187.909 C 187.211 187.909,183.590 185.647,181.214 181.170 C 180.482 179.791,180.280 178.679,180.274 176.000 C 180.268 173.011,180.423 172.304,181.525 170.315 C 182.848 167.927,184.982 165.958,187.372 164.920 C 189.263 164.099,194.586 164.088,196.531 164.901 " stroke="none" fill-rule="evenodd"></path></svg>