<svg fill="currentColor" viewBox="0 0 256 256" xmlns="http://www.w3.org/2000/svg"><path d="M35.520 44.594 C 28.520 46.114,22.916 51.521,20.741 58.851 C 20.120 60.943,20.053 68.417,20.053 135.903 L 20.053 210.637 21.358 213.248 C 22.801 216.135,24.414 217.709,27.307 219.054 L 29.227 219.947 121.600 219.947 L 213.973 219.947 215.954 218.961 C 218.106 217.891,220.769 215.458,221.647 213.760 C 222.967 211.207,251.418 128.972,251.820 126.547 C 252.364 123.265,251.516 118.429,249.773 114.865 C 248.379 112.018,244.565 108.110,241.675 106.569 C 237.940 104.578,235.192 104.107,227.324 104.107 L 220.160 104.107 220.160 95.652 C 220.160 86.202,219.785 83.382,218.003 79.454 C 216.349 75.805,212.391 71.871,208.427 69.937 L 205.440 68.480 168.729 68.267 L 132.017 68.053 118.220 57.658 C 104.270 47.149,101.109 45.180,96.900 44.382 C 93.196 43.680,38.866 43.867,35.520 44.594 M106.220 78.705 C 113.940 84.492,121.202 89.611,122.517 90.192 C 123.820 90.768,126.007 91.447,127.375 91.700 C 129.017 92.003,141.091 92.160,162.852 92.160 L 195.840 92.160 195.840 98.133 L 195.840 104.107 131.503 104.107 C 61.160 104.107,64.775 103.982,60.036 106.562 C 57.288 108.057,53.838 111.492,52.413 114.152 C 51.789 115.315,49.706 120.779,47.784 126.293 C 45.861 131.808,44.211 136.400,44.117 136.498 C 44.023 136.596,43.947 121.284,43.947 102.471 L 43.947 68.267 68.120 68.267 L 92.294 68.267 106.220 78.705 M226.133 128.327 C 226.133 128.811,203.118 194.570,202.628 195.485 C 202.225 196.238,199.435 196.267,125.638 196.267 C 80.460 196.267,49.067 196.109,49.067 195.882 C 49.067 195.671,53.984 181.415,59.994 164.202 C 66.005 146.990,71.302 131.803,71.767 130.453 L 72.612 128.000 149.373 128.000 C 191.591 128.000,226.133 128.147,226.133 128.327 " stroke="none" fill-rule="evenodd"></path></svg>