<svg fill="currentColor" viewBox="0 0 256 256" xmlns="http://www.w3.org/2000/svg"><path d="M68.085 12.373 C 52.267 15.218,38.285 32.175,29.648 58.988 C 25.863 70.735,24.141 81.691,24.164 93.867 C 24.180 102.836,24.748 107.489,26.709 114.732 C 30.075 127.161,37.278 137.793,43.505 139.523 C 44.419 139.777,55.704 139.943,72.137 139.944 C 102.211 139.947,101.537 140.004,104.867 137.154 C 108.667 133.902,113.083 126.730,115.760 119.467 C 118.894 110.960,120.121 102.074,119.766 90.456 C 119.481 81.141,118.774 76.068,116.450 66.648 C 111.240 45.533,101.754 28.373,90.208 19.176 C 87.061 16.670,82.094 13.962,78.979 13.054 C 76.077 12.208,70.825 11.880,68.085 12.373 M75.372 37.936 C 83.322 44.266,91.658 61.979,94.777 79.170 C 95.510 83.207,95.708 85.997,95.730 92.587 C 95.761 101.943,95.120 106.041,92.607 112.533 L 91.245 116.053 72.052 116.053 L 52.860 116.053 51.770 113.600 C 47.878 104.842,46.981 90.559,49.503 77.492 C 52.741 60.712,61.379 43.246,69.291 37.479 C 71.555 35.829,72.848 35.927,75.372 37.936 M177.493 36.953 C 163.466 40.719,150.331 57.112,142.318 80.853 C 140.360 86.656,138.070 96.032,137.159 101.973 C 136.216 108.130,135.865 121.546,136.500 127.154 C 138.054 140.876,143.566 154.024,150.463 160.462 C 154.469 164.201,153.090 164.053,183.893 164.053 C 213.439 164.053,213.120 164.078,216.376 161.588 C 220.393 158.518,225.671 149.895,228.257 142.178 C 231.350 132.946,232.592 121.898,231.764 110.999 C 229.811 85.319,219.732 60.125,206.001 46.604 C 200.817 41.499,195.649 38.294,190.408 36.936 C 187.175 36.099,180.645 36.107,177.493 36.953 M187.272 61.880 C 196.024 68.797,205.011 89.078,207.389 107.273 C 207.693 109.601,207.805 114.158,207.677 119.006 C 207.451 127.569,206.518 132.570,204.200 137.633 L 203.141 139.947 183.973 139.947 L 164.805 139.947 163.687 137.369 C 157.062 122.094,159.516 98.141,169.877 76.932 C 174.223 68.038,180.933 60.167,184.175 60.162 C 184.682 60.161,186.076 60.934,187.272 61.880 M39.040 157.166 C 36.241 158.475,33.591 161.404,32.655 164.223 C 32.007 166.171,31.937 167.755,32.108 176.562 C 32.325 187.780,32.790 190.429,35.618 196.549 C 39.619 205.209,47.249 212.810,55.716 216.572 C 61.787 219.270,70.146 220.547,76.506 219.748 C 88.330 218.264,98.748 211.896,105.223 202.196 C 110.607 194.130,112.478 186.004,112.143 172.132 C 111.982 165.462,111.933 165.141,110.701 162.732 C 109.285 159.964,106.394 157.450,103.696 156.642 C 102.565 156.303,93.043 156.161,71.630 156.164 L 41.173 156.168 39.040 157.166 M87.756 182.220 C 87.163 187.221,83.753 191.898,78.992 194.240 C 76.381 195.524,75.858 195.627,71.900 195.627 C 68.077 195.627,67.369 195.500,65.178 194.424 C 60.535 192.144,57.291 187.882,56.358 182.838 C 56.103 181.455,55.893 180.263,55.893 180.188 C 55.893 180.114,63.120 180.053,71.953 180.053 L 88.012 180.053 87.756 182.220 M152.191 180.669 C 148.176 182.101,145.535 185.041,144.422 189.315 C 143.654 192.262,143.564 202.743,144.258 208.427 C 146.439 226.302,159.722 240.340,177.367 243.417 C 186.650 245.035,196.573 243.100,205.106 238.008 C 208.225 236.147,214.191 230.504,216.578 227.160 C 219.002 223.762,221.646 218.117,222.796 213.881 C 223.554 211.089,223.729 208.988,223.893 200.688 C 224.135 188.489,223.851 187.102,220.408 183.659 C 216.648 179.899,218.196 180.050,183.709 180.072 C 159.663 180.087,153.496 180.204,152.191 180.669 M200.107 204.082 C 200.107 204.156,199.897 205.348,199.642 206.731 C 198.394 213.480,193.569 218.335,186.722 219.731 C 178.237 221.461,169.279 214.851,168.242 206.092 L 167.988 203.947 184.047 203.947 C 192.880 203.947,200.107 204.007,200.107 204.082 " stroke="none" fill-rule="evenodd"></path></svg>