<svg fill="currentColor" viewBox="0 0 256 256" xmlns="http://www.w3.org/2000/svg"><path d="M34.347 36.863 C 27.753 38.961,22.843 43.864,20.895 50.295 C 20.051 53.083,20.041 54.110,20.153 128.853 L 20.267 204.587 21.269 207.072 C 23.534 212.686,28.309 217.184,33.920 218.987 L 36.907 219.947 128.000 219.947 L 219.093 219.947 222.080 218.987 C 227.691 217.184,232.466 212.686,234.731 207.072 L 235.733 204.587 235.847 129.280 C 235.926 76.561,235.822 53.305,235.499 51.746 C 234.296 45.933,230.138 40.735,224.564 38.074 L 221.227 36.480 128.640 36.400 C 54.680 36.336,35.710 36.429,34.347 36.863 M212.053 128.214 L 212.053 196.269 128.107 196.161 L 44.160 196.053 44.052 128.107 L 43.944 60.160 127.999 60.160 L 212.053 60.160 212.053 128.214 M148.141 76.744 C 145.049 77.827,142.950 79.637,141.485 82.483 C 139.938 85.490,139.637 88.317,140.536 91.409 C 141.435 94.501,144.247 97.666,147.294 99.014 C 149.428 99.958,150.138 100.020,160.747 100.185 L 171.947 100.359 171.947 110.902 C 171.947 123.136,172.212 124.594,175.022 127.786 C 179.639 133.032,187.505 133.308,192.415 128.397 C 196.036 124.777,196.053 124.659,196.053 103.680 C 196.053 85.658,196.047 85.534,195.071 83.413 C 193.829 80.714,191.945 78.742,189.227 77.295 L 187.093 76.160 168.747 76.056 C 151.818 75.961,150.225 76.014,148.141 76.744 M66.682 125.430 C 65.152 126.204,63.482 127.465,62.730 128.414 C 60.184 131.628,60.160 131.858,60.164 152.267 L 60.168 170.880 61.169 173.030 C 61.736 174.246,63.057 175.960,64.214 176.978 C 67.633 179.988,68.143 180.053,88.168 180.053 C 105.096 180.053,105.876 180.018,108.211 179.144 C 112.611 177.498,116.053 172.680,116.053 168.168 C 116.053 163.945,113.266 159.333,109.495 157.315 C 107.819 156.419,107.156 156.367,95.893 156.242 L 84.053 156.111 84.053 145.333 C 84.053 132.878,83.793 131.411,81.017 128.258 C 78.580 125.489,76.445 124.485,72.533 124.267 C 69.607 124.104,69.107 124.204,66.682 125.430 " stroke="none" fill-rule="evenodd"></path></svg>