<svg fill="currentColor" viewBox="0 0 256 256" xmlns="http://www.w3.org/2000/svg"><path d="M73.173 36.941 C 59.169 39.447,47.733 45.593,37.707 56.002 C 30.970 62.997,25.806 71.662,23.025 80.640 C 21.592 85.266,4.498 172.611,4.067 177.510 C 3.906 179.336,4.001 182.379,4.286 184.550 C 6.758 203.362,20.750 217.299,39.604 219.728 C 49.832 221.046,61.261 217.634,69.448 210.821 C 70.793 209.702,80.715 198.769,91.497 186.527 L 111.100 164.267 128.001 164.267 L 144.902 164.267 164.663 186.683 C 185.497 210.316,187.594 212.395,193.705 215.464 C 209.536 223.415,227.739 220.595,240.202 208.262 C 248.623 199.928,252.998 187.763,251.695 176.299 C 251.174 171.715,234.549 86.153,233.439 82.347 C 230.297 71.565,225.223 63.029,217.200 55.025 C 208.256 46.103,198.319 40.560,185.655 37.430 C 182.008 36.529,181.471 36.519,129.280 36.425 C 85.131 36.346,76.033 36.429,73.173 36.941 M178.773 60.611 C 193.796 63.021,206.681 74.879,210.640 89.937 C 212.134 95.618,212.219 103.797,210.843 109.388 C 207.336 123.630,196.994 134.203,182.128 138.743 C 178.998 139.699,178.848 139.703,141.013 139.931 L 103.040 140.160 100.651 141.333 C 98.479 142.400,96.304 144.733,76.758 166.961 C 64.930 180.411,54.466 192.027,53.503 192.775 C 49.069 196.222,42.272 196.806,36.970 194.196 C 31.885 191.693,28.602 186.767,28.270 181.143 C 28.117 178.544,29.231 172.287,36.440 135.253 C 41.030 111.669,45.091 91.125,45.464 89.600 C 46.748 84.340,50.459 77.536,54.588 72.867 C 56.818 70.346,62.468 66.062,65.743 64.408 C 68.850 62.840,73.882 61.135,76.870 60.638 C 80.206 60.084,175.326 60.058,178.773 60.611 M84.141 76.729 C 81.013 77.845,78.944 79.649,77.440 82.571 C 76.385 84.620,76.134 85.683,76.010 88.609 L 75.859 92.160 72.558 92.160 C 69.729 92.160,68.882 92.347,66.644 93.465 C 62.310 95.631,60.156 99.222,60.164 104.267 C 60.170 107.700,61.522 110.608,64.214 112.978 C 66.623 115.098,69.429 116.053,73.251 116.053 L 75.947 116.053 75.947 118.749 C 75.947 122.571,76.902 125.377,79.022 127.786 C 83.639 133.032,91.505 133.308,96.415 128.397 C 98.789 126.023,99.685 123.779,100.107 119.147 L 100.389 116.053 103.085 116.053 C 108.705 116.053,113.337 113.041,115.144 108.211 C 116.767 103.875,116.018 99.667,113.017 96.258 C 110.467 93.361,108.479 92.472,104.051 92.247 L 100.368 92.060 100.071 88.590 C 99.907 86.682,99.394 84.256,98.931 83.200 C 96.500 77.654,89.783 74.715,84.141 76.729 M148.477 92.548 C 143.589 94.082,139.947 99.044,139.947 104.168 C 139.947 108.680,143.389 113.498,147.789 115.144 C 150.081 116.002,150.986 116.053,163.779 116.053 C 179.580 116.053,180.606 115.887,183.911 112.795 C 186.702 110.185,187.875 107.619,187.884 104.107 C 187.894 99.592,185.745 95.845,181.822 93.538 L 179.840 92.373 164.693 92.293 C 156.363 92.249,149.065 92.364,148.477 92.548 M224.382 160.048 C 227.393 175.580,227.915 178.901,227.737 181.386 C 227.335 187.013,223.824 192.009,218.528 194.492 C 216.412 195.483,215.568 195.627,211.840 195.627 C 208.064 195.627,207.303 195.494,205.227 194.472 C 202.311 193.037,201.057 191.755,187.577 176.427 L 176.695 164.053 178.694 163.719 C 188.973 162.000,193.468 160.633,200.747 157.015 C 206.890 153.961,212.339 150.014,216.960 145.270 C 218.837 143.342,220.473 141.740,220.594 141.709 C 220.716 141.679,222.420 149.931,224.382 160.048 " stroke="none" fill-rule="evenodd"></path></svg>