<svg fill="currentColor" viewBox="0 0 256 256" xmlns="http://www.w3.org/2000/svg"><path d="M162.644 29.465 C 158.310 31.631,156.156 35.222,156.164 40.267 C 156.170 43.700,157.522 46.608,160.214 48.978 C 163.393 51.776,164.890 52.053,176.822 52.053 L 187.089 52.053 170.880 68.267 C 161.965 77.184,154.533 84.480,154.364 84.480 C 154.194 84.480,152.150 83.231,149.819 81.704 C 141.285 76.112,131.116 71.930,120.747 69.747 C 113.469 68.215,99.982 67.800,92.587 68.880 C 79.427 70.802,68.203 75.078,57.339 82.308 C 33.949 97.874,20.053 123.886,20.053 152.107 C 20.053 168.354,24.856 184.476,33.718 197.973 C 37.100 203.125,38.898 205.339,43.700 210.272 C 57.499 224.447,74.076 232.779,93.604 235.355 C 100.477 236.261,112.189 235.966,118.837 234.720 C 145.498 229.720,167.690 212.898,179.416 188.800 C 192.457 161.999,190.461 130.733,174.125 105.908 C 172.692 103.731,171.520 101.810,171.520 101.639 C 171.520 101.469,178.816 94.035,187.733 85.120 L 203.947 68.911 203.947 79.178 C 203.947 91.110,204.224 92.607,207.022 95.786 C 211.639 101.032,219.505 101.308,224.415 96.397 C 228.166 92.647,228.053 93.658,228.053 63.787 C 228.053 40.066,227.988 37.596,227.312 35.908 C 226.137 32.974,224.215 30.894,221.356 29.465 L 218.744 28.160 192.000 28.160 L 165.256 28.160 162.644 29.465 M113.067 92.781 C 126.993 94.896,140.848 102.587,149.457 112.982 C 153.378 117.718,155.524 121.058,158.106 126.447 C 162.340 135.284,164.101 143.996,163.725 154.240 C 163.293 165.994,160.042 175.952,153.310 186.144 C 150.704 190.089,141.909 198.896,137.991 201.483 C 131.010 206.093,123.842 209.145,116.035 210.832 C 110.078 212.118,98.535 212.230,93.024 211.053 C 70.858 206.323,54.064 191.643,47.139 170.945 C 44.917 164.304,44.204 159.580,44.230 151.680 C 44.255 144.309,45.076 139.055,47.193 132.736 C 52.276 117.560,64.221 104.340,79.018 97.514 C 89.157 92.837,101.835 91.075,113.067 92.781 " stroke="none" fill-rule="evenodd"></path></svg>