<svg fill="currentColor" viewBox="0 0 256 256" xmlns="http://www.w3.org/2000/svg"><path d="M164.691 20.445 C 159.568 22.038,156.168 26.647,156.168 32.000 C 156.168 36.599,158.585 40.553,162.773 42.807 C 164.288 43.622,165.290 43.742,171.692 43.873 L 178.904 44.021 171.087 51.847 L 163.269 59.673 161.528 58.259 C 157.152 54.706,148.935 50.183,142.933 48.023 C 128.629 42.875,112.632 42.742,98.133 47.650 C 87.879 51.121,79.914 56.135,71.864 64.184 C 63.651 72.397,58.751 80.328,55.238 91.093 C 52.691 98.897,51.922 104.635,52.180 113.920 C 52.418 122.511,53.087 126.512,55.478 133.648 C 60.256 147.910,70.379 160.910,83.126 169.155 C 89.297 173.146,98.771 177.079,105.318 178.367 L 107.947 178.884 107.947 183.497 L 107.947 188.111 96.107 188.242 C 84.844 188.367,84.181 188.419,82.505 189.315 C 78.734 191.333,75.947 195.945,75.947 200.168 C 75.947 204.680,79.389 209.498,83.789 211.144 C 86.035 211.984,87.041 212.053,97.083 212.053 L 107.947 212.053 107.947 222.917 C 107.947 232.959,108.016 233.965,108.856 236.211 C 110.502 240.611,115.320 244.053,119.832 244.053 C 124.421 244.053,129.133 240.958,131.014 236.706 C 131.958 234.572,132.020 233.862,132.185 223.253 L 132.359 212.053 142.902 212.053 C 155.136 212.053,156.594 211.788,159.786 208.978 C 162.478 206.608,163.830 203.700,163.836 200.267 C 163.844 195.222,161.690 191.631,157.356 189.465 L 154.744 188.160 143.505 188.160 L 132.267 188.160 132.267 183.572 L 132.267 178.983 136.791 177.824 C 152.101 173.903,165.925 164.514,175.078 151.823 C 178.299 147.356,182.874 138.454,184.537 133.416 C 190.073 116.652,188.920 99.075,181.208 82.642 L 179.043 78.031 187.335 69.729 L 195.627 61.427 195.849 68.154 C 196.100 75.739,196.607 77.405,199.580 80.420 C 205.387 86.308,215.151 84.524,218.952 76.881 L 219.947 74.880 219.947 52.053 L 219.947 29.227 218.752 26.793 C 217.478 24.199,216.000 22.721,213.170 21.206 C 211.428 20.274,211.223 20.266,188.587 20.189 C 176.032 20.147,165.279 20.262,164.691 20.445 M132.053 69.720 C 147.146 74.221,158.528 85.913,162.623 101.120 C 163.460 104.229,163.599 105.783,163.599 112.000 C 163.599 118.217,163.460 119.771,162.623 122.880 C 161.481 127.118,158.687 133.239,156.268 136.799 C 147.309 149.985,130.985 157.598,115.606 155.763 C 100.219 153.926,87.542 145.196,80.867 131.840 C 77.405 124.914,76.206 119.809,76.206 112.000 C 76.206 104.191,77.405 99.086,80.867 92.160 C 86.736 80.417,97.658 71.912,110.507 69.079 C 113.449 68.430,115.463 68.307,121.173 68.427 C 127.308 68.555,128.707 68.722,132.053 69.720 " stroke="none" fill-rule="evenodd"></path></svg>