<svg fill="currentColor" viewBox="0 0 256 256" xmlns="http://www.w3.org/2000/svg"><path d="M55.040 60.991 C 43.520 63.440,33.402 70.416,26.987 80.333 C 24.451 84.253,22.814 87.961,21.422 92.938 L 20.267 97.067 20.267 128.000 L 20.267 158.933 21.255 162.551 C 23.492 170.740,27.363 177.490,33.078 183.168 C 38.441 188.497,44.503 192.050,52.267 194.416 C 55.861 195.512,56.612 195.587,64.000 195.587 C 71.361 195.587,72.152 195.509,75.733 194.427 C 91.086 189.793,102.137 178.634,106.530 163.331 C 107.662 159.389,107.672 159.239,107.839 142.710 C 108.002 126.558,107.980 125.987,107.100 123.635 C 106.446 121.888,105.598 120.675,104.070 119.301 C 100.485 116.078,99.921 115.993,83.133 116.139 C 69.053 116.262,68.413 116.303,66.773 117.189 C 59.446 121.149,57.862 130.818,63.615 136.464 C 66.663 139.456,67.629 139.716,76.267 139.873 L 84.053 140.014 84.046 146.701 C 84.034 157.216,82.790 161.235,78.059 166.030 C 70.281 173.915,57.719 173.915,49.941 166.030 C 48.637 164.708,47.034 162.625,46.379 161.400 C 44.053 157.051,43.960 155.744,43.979 127.573 C 43.994 104.582,44.076 101.453,44.729 98.952 C 47.549 88.147,58.481 81.938,69.581 84.836 C 74.605 86.147,77.412 88.299,83.610 95.590 C 86.116 98.539,88.852 99.832,92.587 99.832 C 100.806 99.832,106.616 91.771,103.916 84.116 C 101.407 77.006,90.607 67.224,81.036 63.394 C 73.137 60.232,63.012 59.296,55.040 60.991 M130.682 61.430 C 129.152 62.204,127.482 63.465,126.730 64.414 C 124.002 67.859,124.160 63.948,124.160 127.978 C 124.160 193.901,123.883 188.695,127.594 192.406 C 132.495 197.308,140.365 197.027,144.978 191.786 C 148.256 188.062,148.053 192.269,148.053 128.000 C 148.053 63.811,148.250 67.931,145.017 64.258 C 142.580 61.489,140.445 60.485,136.533 60.267 C 133.607 60.104,133.107 60.204,130.682 61.430 M171.839 60.769 C 168.156 62.083,165.114 65.680,164.278 69.707 C 163.967 71.205,163.860 89.969,163.939 129.280 C 164.053 186.491,164.056 186.673,164.946 188.587 C 166.168 191.217,167.828 193.080,170.178 194.462 C 171.940 195.497,172.586 195.627,176.000 195.627 C 179.414 195.627,180.060 195.497,181.822 194.462 C 184.172 193.080,185.832 191.217,187.054 188.587 C 187.920 186.723,187.950 185.976,188.070 163.326 L 188.194 139.986 203.857 139.860 C 218.984 139.738,219.578 139.702,221.227 138.809 C 230.049 134.034,230.049 121.957,221.227 117.189 C 219.579 116.299,218.975 116.262,203.840 116.140 L 188.160 116.014 188.160 100.050 L 188.160 84.086 207.680 83.963 L 227.200 83.840 229.392 82.684 C 233.822 80.347,236.239 75.999,235.844 71.076 C 235.490 66.675,232.800 62.901,228.693 61.046 C 226.828 60.203,226.013 60.179,200.107 60.188 C 178.929 60.196,173.111 60.315,171.839 60.769 " stroke="none" fill-rule="evenodd"></path></svg>