<svg fill="currentColor" viewBox="0 0 256 256" xmlns="http://www.w3.org/2000/svg"><path d="M65.445 28.598 C 52.052 30.999,40.611 41.747,37.070 55.253 C 35.800 60.098,35.802 68.014,37.075 72.747 C 39.864 83.119,46.803 91.647,56.198 96.247 L 60.160 98.187 60.160 128.045 L 60.160 157.902 57.355 159.161 C 47.115 163.755,39.557 172.975,36.845 184.180 C 35.796 188.512,35.907 196.379,37.078 200.747 C 40.351 212.957,49.069 222.238,61.013 226.226 C 64.849 227.506,65.421 227.580,71.680 227.603 C 79.578 227.631,81.873 227.129,88.107 224.005 C 97.692 219.202,104.005 211.331,106.974 200.482 C 108.010 196.698,108.010 187.302,106.974 183.518 C 104.012 172.696,97.589 164.671,88.233 160.102 L 84.092 158.080 84.084 128.000 L 84.076 97.920 86.911 96.653 C 91.191 94.740,94.413 92.389,98.048 88.526 C 101.572 84.781,103.591 81.735,105.213 77.721 C 107.318 72.509,107.735 70.132,107.699 63.573 C 107.667 58.012,107.544 57.020,106.475 53.760 C 104.399 47.425,102.012 43.419,97.644 38.939 C 93.240 34.422,87.777 31.127,81.847 29.410 C 78.296 28.381,69.172 27.930,65.445 28.598 M138.880 37.271 C 136.252 38.497,133.927 41.009,132.860 43.774 C 132.100 45.746,132.053 47.395,132.053 72.320 L 132.053 98.773 133.248 101.207 C 134.524 103.805,136.009 105.289,138.830 106.786 C 141.330 108.113,146.670 108.113,149.170 106.786 C 151.991 105.289,153.476 103.805,154.752 101.207 C 155.943 98.780,155.947 98.743,156.160 87.963 L 156.373 77.153 168.123 89.030 C 180.408 101.448,182.692 104.264,185.109 109.979 C 187.679 116.054,187.816 117.389,188.041 138.559 L 188.246 157.864 185.398 159.142 C 175.113 163.756,167.561 172.956,164.845 184.180 C 163.796 188.512,163.907 196.379,165.078 200.747 C 168.351 212.957,177.069 222.238,189.013 226.226 C 192.849 227.506,193.421 227.580,199.680 227.603 C 207.578 227.631,209.873 227.129,216.107 224.005 C 225.692 219.202,232.005 211.331,234.974 200.482 C 236.010 196.698,236.010 187.302,234.974 183.518 C 232.012 172.696,225.589 164.671,216.233 160.102 L 212.092 158.080 212.072 139.307 C 212.060 128.439,211.854 118.916,211.583 116.693 C 210.496 107.780,207.115 98.583,202.139 91.001 C 199.540 87.041,197.307 84.576,186.120 73.313 L 173.122 60.226 183.947 60.086 L 194.773 59.947 197.207 58.752 C 199.805 57.476,201.289 55.991,202.786 53.170 C 203.518 51.791,203.720 50.679,203.726 48.000 C 203.732 45.011,203.577 44.304,202.475 42.315 C 201.783 41.066,200.504 39.479,199.633 38.789 C 196.328 36.171,197.518 36.266,168.014 36.271 L 141.013 36.275 138.880 37.271 M77.491 53.463 C 79.866 54.668,81.450 56.309,82.878 59.044 C 83.575 60.378,83.798 61.568,83.805 64.000 C 83.813 66.748,83.637 67.523,82.561 69.486 C 80.098 73.978,76.012 76.240,71.076 75.844 C 61.056 75.039,56.508 62.992,63.490 55.752 C 66.214 52.927,68.546 52.015,72.533 52.215 C 74.465 52.312,75.970 52.690,77.491 53.463 M77.491 181.463 C 79.866 182.668,81.450 184.309,82.878 187.044 C 83.575 188.378,83.798 189.568,83.805 192.000 C 83.813 194.748,83.637 195.523,82.561 197.486 C 80.098 201.978,76.012 204.240,71.076 203.844 C 61.056 203.039,56.508 190.992,63.490 183.752 C 66.214 180.927,68.546 180.015,72.533 180.215 C 74.465 180.312,75.970 180.690,77.491 181.463 M205.491 181.463 C 207.866 182.668,209.450 184.309,210.878 187.044 C 211.575 188.378,211.798 189.568,211.805 192.000 C 211.813 194.748,211.637 195.523,210.561 197.486 C 208.098 201.978,204.012 204.240,199.076 203.844 C 192.793 203.339,188.179 198.324,188.179 192.000 C 188.179 186.689,191.542 182.116,196.691 180.426 C 198.726 179.759,203.163 180.281,205.491 181.463 " stroke="none" fill-rule="evenodd"></path></svg>