<svg fill="currentColor" viewBox="0 0 256 256" xmlns="http://www.w3.org/2000/svg"><path d="M72.068 20.685 C 70.991 21.034,69.232 22.092,68.159 23.036 C 64.709 26.073,60.175 36.344,58.163 45.678 C 56.974 51.196,57.075 65.246,58.344 70.918 L 59.272 75.063 57.857 78.171 C 55.902 82.467,54.315 87.200,53.272 91.851 C 52.560 95.024,52.350 97.770,52.185 106.027 C 51.960 117.351,52.385 121.687,54.404 128.640 C 59.920 147.644,75.237 163.335,93.973 169.176 L 97.628 170.316 96.191 173.371 C 93.610 178.857,92.526 183.421,92.221 190.080 L 91.947 196.053 82.560 196.029 C 74.877 196.009,72.709 195.867,70.613 195.249 C 65.764 193.817,62.022 191.004,59.221 186.687 C 57.034 183.315,56.419 180.970,55.898 174.013 C 54.629 157.057,46.065 144.030,31.290 136.580 C 25.755 133.789,21.174 132.632,14.647 132.377 C 9.430 132.173,8.885 132.227,7.028 133.126 C 4.600 134.301,2.465 136.369,1.184 138.785 C 0.427 140.212,0.227 141.296,0.221 144.000 C 0.214 146.989,0.370 147.696,1.472 149.685 C 3.769 153.833,6.807 155.545,12.923 156.141 C 19.105 156.744,22.796 158.466,26.585 162.517 C 30.225 166.408,31.512 169.904,32.019 177.280 C 32.624 186.086,35.007 193.848,38.852 199.541 C 43.813 206.886,49.198 211.676,56.533 215.270 C 64.608 219.226,69.760 220.160,83.509 220.160 L 92.160 220.160 92.164 227.520 C 92.168 234.342,92.242 235.037,93.169 237.030 C 95.059 241.087,99.703 244.053,104.168 244.053 C 108.680 244.053,113.498 240.611,115.144 236.211 C 116.029 233.847,116.053 233.188,116.053 211.700 C 116.053 187.770,116.105 187.143,118.446 182.522 C 120.011 179.434,123.807 175.789,127.147 174.166 C 139.631 168.100,154.164 176.080,155.739 189.867 C 155.967 191.861,156.157 202.805,156.161 214.187 L 156.168 234.880 157.169 237.030 C 159.059 241.087,163.703 244.053,168.168 244.053 C 172.713 244.053,177.497 240.613,179.170 236.143 C 180.097 233.663,180.103 233.481,179.954 209.516 L 179.804 185.387 178.687 181.283 C 178.073 179.025,176.881 175.686,176.039 173.863 C 175.196 172.039,174.507 170.495,174.507 170.433 C 174.507 170.370,176.379 169.702,178.667 168.948 C 196.380 163.112,210.494 149.293,216.502 131.903 C 219.404 123.504,219.893 120.130,219.910 108.373 C 219.930 94.867,219.038 89.911,214.745 79.670 L 212.818 75.073 213.813 70.070 C 215.187 63.159,215.194 52.210,213.830 45.804 C 211.993 37.176,207.703 26.975,204.543 23.721 C 201.642 20.735,200.175 20.262,193.920 20.301 C 184.479 20.360,175.973 22.503,166.899 27.111 C 163.926 28.621,159.957 31.009,158.080 32.419 C 154.665 34.984,147.492 41.794,146.724 43.200 C 146.354 43.879,145.395 43.947,136.198 43.946 L 126.080 43.946 122.984 40.561 C 111.791 28.323,95.708 20.869,79.147 20.244 C 75.340 20.100,73.524 20.213,72.068 20.685 M87.978 45.916 C 96.451 48.587,103.324 53.642,108.803 61.231 C 110.184 63.144,112.045 65.192,112.937 65.782 C 116.338 68.028,116.603 68.053,136.320 68.053 C 154.039 68.053,154.732 68.023,156.587 67.161 C 159.110 65.988,161.004 64.351,162.642 61.924 C 166.546 56.143,171.474 51.779,177.767 48.529 C 181.817 46.437,188.004 44.473,188.616 45.085 C 188.815 45.285,189.322 46.694,189.742 48.217 C 190.345 50.399,190.501 52.524,190.481 58.240 C 190.458 64.958,190.367 65.777,189.256 69.333 C 187.267 75.696,187.167 76.448,187.919 79.383 C 188.289 80.827,188.951 82.517,189.389 83.138 C 190.926 85.313,193.697 91.280,194.606 94.372 C 195.916 98.828,196.284 113.815,195.214 119.106 C 192.796 131.059,184.026 141.431,172.762 145.659 C 166.649 147.954,165.120 148.054,136.166 148.050 C 120.010 148.048,108.343 147.874,106.667 147.609 C 92.465 145.369,80.792 134.816,77.187 120.960 C 76.050 116.589,75.607 105.621,76.344 100.053 C 76.970 95.321,78.760 89.855,80.885 86.187 C 84.808 79.416,85.248 77.192,83.628 72.324 C 82.061 67.614,81.507 64.860,81.220 60.342 C 80.818 54.024,82.370 44.800,83.835 44.800 C 84.165 44.800,86.030 45.302,87.978 45.916 " stroke="none" fill-rule="evenodd"></path></svg>