<svg fill="currentColor" viewBox="0 0 256 256" xmlns="http://www.w3.org/2000/svg"><path d="M119.680 20.310 C 97.411 22.610,80.001 29.205,63.147 41.728 C 57.186 46.157,46.223 57.026,41.973 62.720 C 16.611 96.701,12.928 141.035,32.385 178.133 C 37.761 188.385,42.832 195.175,51.828 204.172 C 60.825 213.168,67.615 218.239,77.867 223.615 C 114.965 243.072,159.250 239.395,193.280 214.031 C 198.497 210.143,210.143 198.497,214.031 193.280 C 228.489 173.882,235.947 151.668,235.947 128.000 C 235.947 92.235,218.399 59.167,188.587 38.752 C 175.422 29.738,160.539 23.864,144.427 21.325 C 139.077 20.483,124.002 19.864,119.680 20.310 M135.253 44.399 C 146.131 45.395,156.034 48.216,165.660 53.060 L 171.733 56.116 171.849 64.332 L 171.965 72.548 161.871 84.266 C 153.454 94.035,151.555 96.021,150.448 96.207 C 149.718 96.330,143.321 97.207,136.233 98.155 L 123.346 99.880 113.503 93.437 C 101.858 85.816,100.489 85.088,96.496 84.404 C 90.350 83.350,83.879 85.307,79.441 89.562 C 77.468 91.454,56.280 122.616,54.216 126.663 C 52.347 130.327,52.069 133.188,52.057 148.907 L 52.045 163.627 51.024 161.434 C 49.229 157.580,46.965 150.322,45.882 144.949 C 41.604 123.735,45.393 102.052,56.511 84.117 C 63.165 73.384,70.924 65.311,81.245 58.383 C 97.246 47.642,116.430 42.675,135.253 44.399 M198.454 82.453 C 209.141 98.686,213.926 119.990,211.175 139.093 C 210.464 144.037,209.830 147.200,209.552 147.193 C 209.402 147.189,206.400 144.573,202.880 141.378 C 195.595 134.767,192.482 132.924,187.607 132.337 C 182.067 131.670,180.571 132.101,162.684 139.525 C 153.581 143.304,145.104 147.008,143.846 147.757 C 139.660 150.252,136.306 154.864,135.066 159.832 C 134.721 161.215,133.836 166.522,133.100 171.625 C 131.886 180.042,131.809 181.182,132.271 183.921 C 133.295 189.989,137.542 195.881,142.822 198.557 C 144.026 199.167,148.815 200.656,153.465 201.867 C 158.115 203.077,162.062 204.192,162.235 204.343 C 163.176 205.167,148.603 209.684,140.587 211.052 C 134.692 212.059,121.299 212.058,115.413 211.050 C 97.977 208.066,83.501 201.054,71.114 189.592 L 68.628 187.291 70.474 185.238 C 71.489 184.108,72.845 182.220,73.486 181.041 C 75.686 176.998,75.855 175.348,76.147 155.093 L 76.417 136.320 85.035 123.362 C 89.775 116.235,93.780 110.204,93.935 109.959 C 94.103 109.694,97.999 111.999,103.535 115.637 C 113.041 121.884,116.156 123.423,120.327 123.933 C 123.088 124.271,156.125 119.944,159.986 118.739 C 164.714 117.264,166.731 115.411,178.708 101.547 C 191.995 86.165,193.393 84.362,194.606 81.035 C 195.113 79.645,195.601 78.507,195.692 78.507 C 195.782 78.507,197.025 80.283,198.454 82.453 M197.107 175.560 C 194.507 179.376,187.786 187.402,185.882 188.963 C 185.245 189.486,184.894 189.300,182.822 187.340 C 179.671 184.360,177.593 183.496,166.470 180.536 C 161.238 179.145,156.856 177.905,156.732 177.781 C 156.608 177.657,156.861 175.286,157.294 172.511 L 158.080 167.467 171.058 162.072 L 184.035 156.677 192.029 163.978 L 200.023 171.280 197.107 175.560 " stroke="none" fill-rule="evenodd"></path></svg>