<svg fill="currentColor" viewBox="0 0 256 256" xmlns="http://www.w3.org/2000/svg"><path d="M27.713 44.528 C 20.196 46.147,14.012 52.433,12.418 60.074 C 11.753 63.265,11.753 192.735,12.418 195.926 C 14.040 203.702,20.298 209.960,28.074 211.582 C 29.611 211.902,40.621 212.051,62.421 212.047 C 97.250 212.040,97.356 212.034,102.088 209.660 C 103.749 208.827,107.348 205.529,116.160 196.767 L 128.000 184.994 139.848 196.793 C 150.250 207.152,152.034 208.751,154.463 209.887 C 155.985 210.600,158.264 211.378,159.527 211.618 C 162.804 212.239,224.929 212.207,227.926 211.582 C 235.702 209.960,241.960 203.702,243.582 195.926 C 244.247 192.735,244.247 63.265,243.582 60.074 C 241.942 52.211,235.452 45.827,227.655 44.408 C 223.861 43.717,30.939 43.833,27.713 44.528 M220.160 128.213 L 220.160 188.160 192.774 188.160 L 165.388 188.160 152.774 175.641 C 141.015 163.971,139.930 163.010,136.769 161.455 L 133.378 159.787 127.970 159.787 L 122.562 159.787 119.287 161.493 C 116.391 163.002,114.535 164.646,103.267 175.680 L 90.524 188.160 63.395 188.160 L 36.267 188.160 36.267 128.213 L 36.267 68.267 128.213 68.267 L 220.160 68.267 220.160 128.213 M75.552 92.624 C 66.656 94.369,58.441 99.905,53.572 107.438 C 49.741 113.363,48.070 119.065,48.110 126.080 C 48.164 135.777,51.755 144.046,58.794 150.686 C 62.571 154.250,66.492 156.582,71.680 158.353 C 75.476 159.649,76.112 159.738,81.707 159.755 C 88.419 159.775,90.994 159.248,96.423 156.742 C 108.867 150.999,116.830 137.595,115.908 123.947 C 114.871 108.613,103.901 95.890,89.085 92.837 C 85.578 92.115,78.699 92.007,75.552 92.624 M166.617 92.842 C 151.897 96.127,141.119 108.766,140.092 123.947 C 139.170 137.595,147.133 150.999,159.577 156.742 C 165.006 159.248,167.581 159.775,174.293 159.755 C 179.888 159.738,180.524 159.649,184.320 158.353 C 198.719 153.438,207.806 140.995,207.890 126.080 C 207.930 119.065,206.259 113.363,202.428 107.438 C 198.147 100.815,191.685 95.991,183.680 93.440 C 179.698 92.171,170.992 91.866,166.617 92.842 M85.044 116.511 C 87.039 117.065,89.805 119.492,90.911 121.661 C 91.929 123.657,92.008 127.796,91.071 130.040 C 89.268 134.355,84.410 136.789,79.806 135.685 C 72.645 133.967,69.674 125.349,74.308 119.732 C 76.812 116.696,81.089 115.413,85.044 116.511 M178.164 117.069 C 183.326 119.473,185.340 125.355,182.769 130.515 C 179.065 137.948,168.111 137.656,164.929 130.040 C 163.994 127.802,164.070 123.654,165.083 121.690 C 167.644 116.721,173.201 114.758,178.164 117.069 " stroke="none" fill-rule="evenodd"></path></svg>