<svg fill="currentColor" viewBox="0 0 256 256" xmlns="http://www.w3.org/2000/svg"><path d="M118.613 28.450 C 79.880 32.420,47.595 57.322,34.153 93.594 C 31.920 99.622,29.619 108.979,28.788 115.413 C 27.934 122.033,27.941 133.950,28.803 140.587 C 34.107 181.432,63.584 214.714,103.435 224.854 C 113.084 227.310,119.440 227.984,130.526 227.728 C 140.272 227.503,143.577 227.070,152.613 224.835 C 180.022 218.054,204.012 198.963,216.926 173.653 C 223.808 160.166,227.847 144.158,227.836 130.414 C 227.832 125.874,227.707 124.960,226.834 123.093 C 225.682 120.631,223.665 118.507,221.227 117.189 L 219.520 116.267 172.826 116.153 C 120.275 116.024,123.809 115.814,119.930 119.301 C 113.484 125.097,115.534 136.069,123.629 139.097 C 125.834 139.922,127.005 139.947,164.504 139.947 L 203.110 139.947 202.902 140.907 C 200.711 151.033,198.972 156.088,195.170 163.384 C 189.382 174.488,180.004 184.779,169.387 191.676 C 144.169 208.057,111.835 208.057,86.613 191.676 C 79.073 186.779,71.330 179.352,66.024 171.927 C 62.576 167.104,57.659 157.433,55.941 152.097 C 48.384 128.624,52.041 104.139,66.120 83.957 C 69.662 78.879,78.792 69.745,84.053 66.014 C 88.859 62.607,98.515 57.713,103.893 55.957 C 119.639 50.817,136.433 50.820,152.107 55.964 C 157.468 57.724,167.128 62.617,171.947 66.014 C 174.409 67.750,178.554 71.429,182.509 75.388 C 186.089 78.972,189.833 82.336,190.829 82.863 C 193.559 84.306,198.271 84.220,201.232 82.673 C 207.198 79.556,209.465 72.615,206.473 66.627 C 204.941 63.562,196.624 54.861,190.729 50.158 C 175.519 38.022,157.376 30.566,138.301 28.612 C 134.218 28.194,122.084 28.094,118.613 28.450 " stroke="none" fill-rule="evenodd"></path></svg>