<svg fill="currentColor" viewBox="0 0 256 256" xmlns="http://www.w3.org/2000/svg"><path d="M116.267 20.519 C 106.061 21.348,94.394 23.820,84.267 27.298 C 78.075 29.424,66.065 35.266,60.800 38.713 C 48.557 46.728,39.033 56.894,33.108 68.272 C 28.279 77.544,27.089 83.909,29.018 90.154 C 30.732 95.705,35.897 100.892,41.706 102.898 L 44.587 103.893 128.000 103.893 L 211.413 103.893 214.294 102.898 C 220.103 100.892,225.268 95.705,226.982 90.154 C 228.911 83.909,227.721 77.544,222.892 68.272 C 216.967 56.894,207.443 46.728,195.200 38.713 C 189.710 35.119,177.806 29.376,171.179 27.123 C 153.992 21.282,134.995 18.998,116.267 20.519 M142.834 45.037 C 157.654 46.980,171.664 51.993,182.768 59.327 C 187.524 62.468,194.109 68.415,197.039 72.217 C 198.891 74.620,201.813 79.303,201.813 79.868 C 201.813 80.058,168.597 80.213,128.000 80.213 C 87.403 80.213,54.187 80.058,54.187 79.868 C 54.187 79.303,57.109 74.620,58.961 72.217 C 61.891 68.415,68.476 62.468,73.232 59.327 C 86.360 50.656,102.162 45.693,121.387 44.203 C 125.351 43.896,137.830 44.381,142.834 45.037 M20.907 116.451 C 17.366 117.537,14.876 119.609,13.177 122.880 C 12.391 124.394,12.180 125.477,12.181 128.000 C 12.182 131.860,13.457 134.715,16.246 137.102 C 19.854 140.191,10.254 139.947,128.000 139.947 C 245.746 139.947,236.146 140.191,239.754 137.102 C 242.544 134.714,243.819 131.860,243.819 128.000 C 243.819 123.058,241.708 119.624,237.227 117.274 L 235.307 116.267 128.640 116.195 C 69.973 116.156,21.493 116.271,20.907 116.451 M65.493 152.278 C 62.650 153.017,18.889 169.113,17.607 169.890 C 15.449 171.200,13.404 173.887,12.586 176.488 C 10.278 183.825,15.441 191.285,23.241 191.884 C 25.465 192.055,26.473 191.846,30.685 190.334 C 33.364 189.373,35.695 188.587,35.863 188.587 C 36.032 188.587,36.305 189.490,36.471 190.595 C 37.450 197.124,40.727 204.874,44.789 210.264 C 52.664 220.715,63.740 226.717,77.227 227.843 C 83.649 228.380,172.351 228.380,178.773 227.843 C 187.013 227.155,193.510 225.006,199.798 220.888 C 212.148 212.799,219.084 200.613,220.017 185.363 L 220.284 180.993 226.516 178.762 C 237.406 174.865,238.716 174.234,240.850 171.861 C 247.726 164.212,242.432 152.220,232.164 152.187 C 229.552 152.179,227.742 152.758,208.748 159.675 L 188.162 167.173 169.494 159.679 C 152.106 152.699,150.637 152.185,148.053 152.170 C 145.443 152.155,144.199 152.586,126.925 159.491 C 116.830 163.525,108.282 166.827,107.930 166.827 C 107.578 166.827,99.167 163.575,89.240 159.600 C 71.012 152.302,68.445 151.510,65.493 152.278 M86.504 184.370 C 101.091 190.210,105.270 191.717,107.359 191.891 C 109.943 192.106,110.182 192.025,128.964 184.529 L 147.956 176.949 166.458 184.344 C 187.020 192.561,187.748 192.755,192.183 191.195 C 193.575 190.705,194.779 190.370,194.859 190.451 C 194.940 190.531,194.414 191.729,193.691 193.112 C 192.108 196.140,188.361 200.056,185.618 201.549 C 181.055 204.032,183.115 203.947,128.000 203.947 C 72.830 203.947,74.951 204.036,70.343 201.528 C 68.008 200.257,64.338 196.707,62.857 194.287 C 61.026 191.295,60.111 187.436,60.249 183.283 L 60.373 179.530 63.573 178.333 C 65.333 177.675,67.108 177.121,67.518 177.102 C 67.927 177.082,76.471 180.353,86.504 184.370 " stroke="none" fill-rule="evenodd"></path></svg>