<svg fill="currentColor" viewBox="0 0 256 256" xmlns="http://www.w3.org/2000/svg"><path d="M107.520 12.416 C 87.659 14.141,68.573 21.830,52.907 34.417 C 48.998 37.557,31.690 54.884,30.112 57.236 C 28.695 59.348,28.160 61.255,28.164 64.170 C 28.178 72.993,37.817 78.677,45.589 74.447 C 47.026 73.665,50.441 70.466,56.079 64.620 C 64.642 55.742,68.639 52.201,74.219 48.548 L 77.397 46.467 98.217 67.284 L 119.037 88.101 71.092 136.104 C 29.125 178.121,23.009 184.405,22.042 186.501 C 18.973 193.151,19.469 200.329,23.410 206.324 C 25.478 209.469,47.190 231.089,50.133 232.934 C 55.950 236.579,63.244 236.897,69.864 233.794 C 71.464 233.044,82.059 222.690,119.897 184.902 L 167.900 136.962 180.910 149.988 C 188.066 157.152,194.880 163.678,196.053 164.489 C 200.541 167.594,206.634 168.775,211.627 167.508 C 217.396 166.043,218.051 165.527,233.549 150.194 C 250.480 133.445,252.927 130.720,254.555 126.804 C 255.591 124.310,255.744 123.377,255.757 119.467 C 255.774 114.393,255.006 111.677,252.543 108.097 C 250.632 105.320,181.920 36.545,178.044 33.530 C 157.829 17.807,132.559 10.241,107.520 12.416 M123.840 36.505 C 131.185 37.071,140.572 39.645,147.956 43.116 C 160.164 48.855,166.122 53.926,191.693 80.347 L 201.113 90.081 189.649 101.551 L 178.186 113.020 176.579 111.569 C 172.991 108.327,168.839 107.303,164.443 108.576 C 162.004 109.282,161.557 109.667,151.030 120.138 L 140.141 130.970 132.585 123.415 L 125.030 115.859 135.845 104.970 C 145.701 95.045,146.726 93.876,147.410 91.781 C 148.346 88.915,148.100 85.390,146.778 82.742 C 146.127 81.437,139.105 74.109,124.072 59.042 L 102.308 37.231 104.381 36.911 C 110.273 36.001,115.805 35.886,123.840 36.505 M224.324 113.177 L 230.398 119.262 218.880 130.773 L 207.363 142.285 201.173 136.107 L 194.984 129.928 206.396 118.511 C 212.672 112.231,217.907 107.093,218.029 107.093 C 218.151 107.093,220.984 109.831,224.324 113.177 M115.628 140.588 L 123.088 148.057 91.947 179.200 L 60.805 210.343 53.228 202.774 L 45.650 195.206 76.691 164.163 C 93.763 147.089,107.830 133.120,107.950 133.120 C 108.071 133.120,111.526 136.481,115.628 140.588 " stroke="none" fill-rule="evenodd"></path></svg>