<svg fill="currentColor" viewBox="0 0 256 256" xmlns="http://www.w3.org/2000/svg"><path d="M172.447 0.607 C 168.209 1.989,165.139 5.400,164.241 9.725 C 163.458 13.496,163.895 22.366,164.984 24.785 C 166.042 27.137,168.328 29.514,170.785 30.816 C 173.354 32.179,178.646 32.179,181.215 30.816 C 183.655 29.523,185.947 27.150,187.041 24.785 C 187.845 23.047,187.947 22.059,187.947 16.000 C 187.947 8.259,187.497 6.619,184.576 3.698 C 181.385 0.507,176.541 -0.727,172.447 0.607 M212.228 14.247 C 209.773 15.390,207.741 17.577,203.975 23.130 C 200.954 27.583,200.201 30.263,200.952 33.880 C 202.772 42.648,212.672 46.292,220.169 40.953 C 221.619 39.921,227.203 32.143,228.351 29.556 C 229.878 26.116,229.296 21.176,226.990 17.993 C 223.775 13.555,217.263 11.902,212.228 14.247 M119.072 20.517 C 113.963 21.520,109.173 23.835,104.970 27.333 L 102.437 29.440 100.230 28.138 C 94.391 24.695,85.677 23.398,78.746 24.941 C 72.588 26.310,65.915 30.458,62.061 35.310 C 57.513 41.038,55.296 47.935,55.536 55.614 L 55.680 60.242 53.760 60.976 C 48.424 63.016,42.013 68.666,39.113 73.885 C 33.956 83.165,33.888 93.279,38.916 103.136 C 39.661 104.597,40.186 105.854,40.082 105.930 C 39.978 106.006,38.453 106.771,36.693 107.631 C 28.561 111.603,23.140 118.420,20.853 127.550 C 20.123 130.466,19.989 132.011,20.150 135.656 C 20.490 143.333,20.589 143.538,41.547 179.840 C 51.844 197.675,61.469 213.995,62.936 216.107 C 77.197 236.631,99.739 249.486,125.451 251.760 C 144.771 253.468,165.956 247.277,182.125 235.197 C 186.164 232.179,193.411 225.221,196.724 221.179 C 203.041 213.474,208.517 203.558,211.425 194.560 C 211.958 192.909,212.968 191.328,214.830 189.227 C 224.883 177.883,231.176 165.186,234.545 149.447 C 235.631 144.371,235.711 143.303,235.710 133.760 C 235.709 122.619,235.364 119.769,232.988 111.325 C 231.311 105.362,229.453 100.601,226.777 95.408 C 223.093 88.261,205.279 57.556,203.375 55.071 C 199.760 50.354,193.420 46.208,187.291 44.552 C 183.589 43.552,176.117 43.544,172.446 44.537 C 168.694 45.552,165.537 47.013,162.515 49.133 C 160.402 50.615,159.868 50.829,159.539 50.323 C 159.319 49.984,157.172 46.290,154.769 42.114 C 147.696 29.823,144.658 26.447,137.600 23.038 C 132.131 20.397,124.782 19.397,119.072 20.517 M127.483 44.805 C 128.255 45.276,129.311 46.373,129.830 47.242 C 130.349 48.112,134.829 55.838,139.785 64.412 L 148.796 80.000 145.876 81.541 C 144.270 82.388,142.278 83.598,141.449 84.231 C 140.620 84.863,139.788 85.285,139.600 85.169 C 139.412 85.053,136.983 81.015,134.202 76.196 C 131.422 71.377,128.246 66.422,127.145 65.184 C 124.311 61.999,118.975 52.706,118.720 50.514 C 118.168 45.763,123.431 42.335,127.483 44.805 M237.440 48.980 C 231.122 51.221,229.535 52.091,227.457 54.452 C 221.104 61.669,225.690 72.942,235.449 74.098 C 237.153 74.300,238.427 74.030,242.807 72.539 C 249.608 70.225,250.831 69.578,252.938 67.184 C 259.485 59.746,254.757 48.355,244.782 47.533 C 242.469 47.342,241.539 47.525,237.440 48.980 M88.174 48.914 C 89.253 49.426,90.160 50.485,91.545 52.852 C 92.587 54.632,93.440 56.204,93.440 56.345 C 93.440 56.486,92.434 57.066,91.204 57.634 C 89.974 58.202,87.743 59.588,86.247 60.714 C 84.750 61.840,83.481 62.704,83.427 62.634 C 82.227 61.097,79.761 56.103,79.572 54.827 C 78.896 50.249,83.834 46.854,88.174 48.914 M181.880 67.998 C 182.636 68.320,183.656 69.040,184.148 69.598 C 185.267 70.869,202.962 101.612,205.718 107.075 C 208.036 111.669,210.010 117.586,210.992 122.880 C 211.841 127.455,212.237 135.597,211.762 138.667 L 211.398 141.013 209.970 137.387 C 207.877 132.071,205.226 127.144,194.193 108.071 C 188.474 98.185,183.460 90.015,182.358 88.790 C 180.100 86.279,174.191 76.332,173.837 74.447 C 173.513 72.718,174.713 69.761,176.155 68.738 C 178.084 67.369,179.864 67.139,181.880 67.998 M107.521 79.467 C 108.621 80.217,112.906 87.303,127.126 111.892 C 137.134 129.197,145.962 144.016,146.744 144.823 C 149.989 148.172,155.897 149.238,160.087 147.232 C 162.414 146.118,165.315 143.147,166.288 140.881 C 167.153 138.865,167.224 134.203,166.419 132.267 C 166.077 131.445,163.132 126.185,159.875 120.578 C 154.071 110.586,153.226 108.641,153.761 106.509 C 154.206 104.737,156.096 102.877,157.962 102.374 C 160.139 101.788,162.998 102.743,164.203 104.460 C 165.510 106.321,184.076 138.622,185.704 141.867 C 187.593 145.633,189.588 151.471,190.587 156.160 C 191.699 161.378,191.681 174.469,190.555 179.840 C 185.367 204.573,165.920 223.174,141.026 227.212 C 135.963 228.033,127.040 228.012,121.995 227.166 C 117.116 226.348,109.185 223.780,104.908 221.632 C 96.667 217.493,87.096 209.099,82.310 201.813 C 77.708 194.807,44.301 136.420,44.066 134.972 C 43.748 133.012,44.995 130.346,46.732 129.273 C 48.474 128.196,51.415 128.169,53.120 129.215 C 54.066 129.795,56.448 133.552,62.249 143.613 C 74.458 164.791,75.840 167.081,77.269 168.510 C 82.916 174.157,92.700 172.552,96.198 165.403 C 97.742 162.246,97.989 159.500,96.990 156.587 C 96.547 155.296,87.959 140.032,77.905 122.667 C 58.203 88.639,58.327 88.892,59.920 85.812 C 62.000 81.790,67.920 81.818,70.411 85.863 C 70.882 86.628,78.512 99.797,87.367 115.128 C 96.222 130.458,104.123 143.682,104.925 144.514 C 107.122 146.791,110.165 148.045,113.493 148.045 C 122.377 148.045,128.071 138.682,124.027 130.725 C 123.444 129.578,117.476 119.141,110.764 107.530 C 99.914 88.762,98.560 86.216,98.560 84.576 C 98.560 83.561,98.857 82.156,99.221 81.453 C 100.693 78.606,104.814 77.620,107.521 79.467 " stroke="none" fill-rule="evenodd"></path></svg>