<svg fill="currentColor" viewBox="0 0 256 256" xmlns="http://www.w3.org/2000/svg"><path d="M197.333 12.363 C 196.629 12.544,195.477 12.919,194.773 13.196 C 194.054 13.479,185.698 21.482,175.697 31.466 C 156.359 50.771,156.155 51.023,156.100 55.662 C 156.085 56.931,156.404 58.990,156.809 60.238 C 157.493 62.345,158.796 63.762,175.093 80.124 C 194.554 99.663,194.838 99.891,199.773 99.919 C 208.760 99.971,214.742 90.628,210.770 82.742 C 210.222 81.654,207.180 78.186,203.594 74.560 L 197.370 68.267 218.045 68.263 C 240.011 68.260,243.099 68.047,246.035 66.330 C 254.333 61.480,253.717 49.447,244.949 45.127 C 242.994 44.163,242.905 44.160,219.981 44.036 L 196.975 43.911 203.836 36.996 C 210.281 30.500,210.742 29.926,211.427 27.552 C 213.307 21.042,209.801 14.491,203.424 12.598 C 201.079 11.901,199.384 11.836,197.333 12.363 M95.150 44.447 C 88.555 45.388,82.204 48.677,77.227 53.728 C 73.426 57.584,70.920 61.821,69.256 67.200 L 68.068 71.040 67.936 106.815 L 67.803 142.589 65.795 140.717 C 59.608 134.949,52.520 132.177,43.953 132.176 C 34.414 132.174,26.645 135.629,20.079 142.795 C 17.177 145.962,14.130 151.608,12.980 155.947 C 11.308 162.260,11.880 170.099,14.460 176.213 C 16.105 180.110,41.702 222.546,43.534 224.412 C 45.656 226.574,47.941 227.556,51.329 227.762 C 55.025 227.987,57.499 227.088,60.241 224.523 C 63.580 221.400,64.844 216.448,63.364 212.294 C 63.035 211.371,56.777 200.676,49.458 188.528 C 36.526 167.066,36.149 166.376,36.129 164.180 C 36.087 159.463,39.332 156.153,43.984 156.167 C 48.509 156.181,48.473 156.139,60.063 174.719 C 65.764 183.858,70.854 191.791,71.374 192.348 C 73.240 194.347,75.847 195.520,78.908 195.739 C 84.284 196.124,88.448 193.792,90.747 189.109 L 91.947 186.667 92.160 129.920 C 92.318 87.873,92.502 72.952,92.870 72.320 C 93.504 71.231,95.513 69.365,96.719 68.745 C 97.923 68.126,102.185 68.127,103.388 68.747 C 104.792 69.470,106.238 70.890,107.027 72.320 C 107.664 73.474,107.754 77.203,107.947 110.293 C 108.157 146.535,108.171 147.010,109.062 148.907 C 112.480 156.181,121.746 158.185,127.902 152.983 C 131.326 150.088,132.311 146.267,132.243 136.142 C 132.196 129.238,132.411 128.362,134.682 126.214 C 138.134 122.948,143.883 123.661,146.620 127.696 L 147.840 129.493 148.054 142.507 C 148.256 154.811,148.318 155.613,149.190 157.227 C 153.127 164.518,162.427 166.120,168.249 160.510 C 170.977 157.881,171.618 156.166,171.945 150.613 C 172.262 145.241,172.777 143.747,174.937 141.929 C 177.379 139.874,181.007 139.521,183.963 141.049 C 185.748 141.972,187.257 144.260,187.731 146.762 C 188.261 149.556,188.270 178.552,187.745 189.653 C 187.313 198.771,186.496 204.980,184.956 210.841 C 183.682 215.692,183.644 217.329,184.738 220.251 C 186.395 224.675,190.099 227.554,194.860 228.118 C 199.181 228.630,203.956 226.131,206.263 222.151 C 207.578 219.883,209.239 213.702,210.309 207.096 C 211.782 198.002,212.127 189.273,211.967 165.120 C 211.817 142.560,211.804 142.258,210.822 139.307 C 208.864 133.422,206.434 129.330,202.610 125.482 C 198.269 121.114,192.479 117.996,186.364 116.732 C 181.183 115.662,177.016 115.881,169.600 117.612 C 168.929 117.769,168.442 117.299,167.320 115.411 C 163.198 108.481,155.267 102.717,147.298 100.862 C 144.092 100.116,136.840 99.971,134.129 100.599 L 132.364 101.007 132.167 86.664 C 131.947 70.525,131.668 68.481,128.873 62.507 C 124.222 52.565,115.225 45.917,104.377 44.408 C 100.600 43.883,99.060 43.889,95.150 44.447 " stroke="none" fill-rule="evenodd"></path></svg>