<svg fill="currentColor" viewBox="0 0 256 256" xmlns="http://www.w3.org/2000/svg"><path d="M96.853 28.770 C 84.480 31.387,73.578 40.919,69.976 52.267 C 69.207 54.690,69.233 54.672,67.523 53.958 C 65.342 53.046,59.291 52.053,55.944 52.057 C 46.263 52.068,37.789 55.650,30.720 62.721 C 26.571 66.870,24.573 69.753,22.798 74.147 C 20.222 80.523,20.302 79.532,20.141 107.093 C 19.982 134.409,20.202 139.246,22.029 148.660 C 25.162 164.799,31.781 179.612,41.969 193.280 C 45.857 198.497,57.503 210.143,62.720 214.031 C 82.118 228.489,104.332 235.947,128.000 235.947 C 151.668 235.947,173.882 228.489,193.280 214.031 C 198.497 210.143,210.143 198.497,214.031 193.280 C 226.251 176.885,233.541 158.268,235.488 138.486 C 236.182 131.429,236.085 109.170,235.342 105.289 C 233.175 93.963,225.853 84.539,215.344 79.548 C 209.686 76.861,206.941 76.341,197.013 76.072 L 188.160 75.833 188.160 69.307 C 188.160 61.396,187.635 57.226,186.054 52.598 C 181.841 40.259,171.662 31.383,158.730 28.773 C 154.441 27.908,146.833 28.132,142.720 29.245 C 139.085 30.229,133.782 32.821,130.667 35.136 L 128.000 37.118 125.333 35.136 C 122.228 32.828,116.930 30.236,113.280 29.238 C 109.749 28.274,100.452 28.008,96.853 28.770 M109.491 53.463 C 111.852 54.661,113.423 56.281,114.900 59.044 C 115.829 60.780,115.841 61.057,115.965 82.922 C 116.103 107.482,116.066 107.892,113.365 111.434 C 111.667 113.659,107.960 115.669,105.034 115.950 C 100.308 116.404,95.222 113.437,93.169 109.030 L 92.168 106.880 92.174 84.053 C 92.179 62.024,92.209 61.160,93.046 59.307 C 94.469 56.157,97.423 53.499,100.691 52.426 C 102.726 51.759,107.163 52.281,109.491 53.463 M157.227 53.233 C 159.492 54.403,161.885 56.941,162.954 59.307 C 163.717 60.995,163.822 62.114,163.831 68.587 L 163.840 75.947 151.852 75.947 L 139.864 75.947 140.024 68.373 C 140.166 61.601,140.281 60.614,141.111 59.044 C 142.941 55.581,145.231 53.637,148.907 52.427 C 150.731 51.826,155.373 52.276,157.227 53.233 M61.125 77.267 C 63.459 78.435,65.543 80.413,66.704 82.560 C 67.586 84.191,67.627 84.784,67.627 96.000 C 67.627 109.431,67.579 109.639,63.735 113.023 C 57.243 118.738,47.000 115.672,44.562 107.285 C 44.015 105.404,43.915 103.114,44.025 95.014 L 44.160 85.056 45.440 82.570 C 46.944 79.649,49.013 77.845,52.141 76.729 C 54.922 75.736,58.496 75.950,61.125 77.267 M205.013 101.273 C 207.591 102.478,209.595 104.458,210.882 107.070 C 211.777 108.886,211.849 109.670,211.984 119.040 C 212.209 134.740,211.089 144.020,207.742 154.217 C 194.443 194.721,153.049 218.758,111.147 210.309 C 81.878 204.408,57.627 182.749,48.225 154.115 C 46.627 149.248,44.381 138.944,44.821 138.503 C 44.928 138.397,46.070 138.615,47.361 138.987 C 48.997 139.459,51.577 139.671,55.893 139.687 C 61.172 139.708,62.581 139.564,65.493 138.712 C 69.721 137.473,74.640 135.035,77.552 132.733 C 78.767 131.773,79.869 130.987,80.000 130.987 C 80.131 130.987,81.233 131.773,82.448 132.733 C 85.364 135.038,90.285 137.476,94.507 138.708 C 97.347 139.536,98.923 139.705,103.893 139.717 C 110.820 139.733,114.307 138.951,120.166 136.066 L 123.639 134.357 126.700 137.472 C 128.623 139.428,129.632 140.764,129.414 141.064 C 129.223 141.326,128.264 142.526,127.284 143.730 C 120.806 151.686,116.687 162.476,116.178 172.828 C 116.018 176.074,116.105 178.278,116.432 179.269 C 119.026 187.129,127.712 190.360,134.566 186.013 C 136.705 184.656,138.895 181.620,139.475 179.207 C 139.673 178.382,140.030 175.777,140.269 173.419 C 141.679 159.513,152.327 149.136,166.149 148.198 C 173.233 147.717,177.263 145.240,179.144 140.211 C 180.767 135.875,180.018 131.667,177.017 128.258 C 173.719 124.512,173.338 124.418,160.427 124.150 C 149.786 123.930,149.003 123.859,147.139 122.946 C 144.623 121.714,142.363 119.459,141.128 116.949 C 140.261 115.188,140.147 114.233,140.012 107.627 L 139.862 100.267 171.371 100.271 L 202.880 100.275 205.013 101.273 " stroke="none" fill-rule="evenodd"></path></svg>