<svg fill="currentColor" viewBox="0 0 256 256" xmlns="http://www.w3.org/2000/svg"><path d="M204.447 12.554 C 198.988 14.334,195.189 20.078,196.023 25.292 C 196.621 29.030,197.808 30.734,204.474 37.422 L 210.941 43.911 187.924 44.036 L 164.907 44.160 162.773 45.295 C 158.487 47.576,156.186 51.205,156.169 55.711 C 156.156 59.415,157.165 61.978,159.594 64.406 C 163.276 68.089,162.601 68.000,188.096 68.168 L 210.432 68.316 204.289 74.584 C 197.171 81.848,196.102 83.582,196.093 87.881 C 196.079 94.673,201.284 99.947,208.000 99.947 C 212.957 99.947,213.033 99.886,232.410 80.538 C 251.940 61.037,251.918 61.065,251.907 55.881 C 251.896 50.876,251.783 50.733,232.578 31.528 C 219.421 18.371,214.764 13.973,213.221 13.247 C 210.683 12.054,206.899 11.755,204.447 12.554 M95.150 44.447 C 88.555 45.388,82.204 48.677,77.227 53.728 C 73.426 57.584,70.920 61.821,69.256 67.200 L 68.068 71.040 67.936 106.815 L 67.803 142.589 65.795 140.717 C 58.843 134.236,50.385 131.438,40.448 132.334 C 29.142 133.352,18.658 141.312,14.279 152.201 C 11.042 160.252,11.339 169.769,15.070 177.547 C 17.366 182.332,41.933 222.781,43.534 224.413 C 45.700 226.619,47.935 227.564,51.448 227.759 C 55.403 227.978,58.156 226.851,60.773 223.940 C 63.779 220.597,64.757 216.202,63.364 212.294 C 63.035 211.371,56.777 200.676,49.458 188.528 C 36.526 167.066,36.149 166.376,36.129 164.180 C 36.087 159.463,39.332 156.153,43.984 156.167 C 48.512 156.181,48.458 156.118,60.195 174.921 C 66.891 185.647,71.275 192.243,72.295 193.125 C 76.516 196.773,83.496 196.732,87.818 193.033 C 88.769 192.218,90.088 190.452,90.747 189.109 L 91.947 186.667 92.160 129.920 C 92.318 87.873,92.502 72.952,92.870 72.320 C 93.504 71.231,95.513 69.365,96.719 68.745 C 97.923 68.126,102.185 68.127,103.388 68.747 C 104.792 69.470,106.238 70.890,107.027 72.320 C 107.664 73.474,107.754 77.203,107.947 110.293 C 108.157 146.535,108.171 147.010,109.062 148.907 C 112.480 156.181,121.746 158.185,127.902 152.983 C 131.326 150.088,132.311 146.267,132.243 136.142 C 132.196 129.238,132.411 128.362,134.682 126.214 C 138.134 122.948,143.883 123.661,146.620 127.696 L 147.840 129.493 148.054 142.507 C 148.256 154.811,148.318 155.613,149.190 157.227 C 153.127 164.518,162.427 166.120,168.249 160.510 C 170.977 157.881,171.618 156.166,171.945 150.613 C 172.262 145.241,172.777 143.747,174.937 141.929 C 177.379 139.874,181.007 139.521,183.963 141.049 C 185.748 141.972,187.257 144.260,187.731 146.762 C 188.261 149.556,188.270 178.552,187.745 189.653 C 187.313 198.771,186.496 204.980,184.956 210.841 C 183.682 215.692,183.644 217.329,184.738 220.251 C 186.395 224.675,190.099 227.554,194.860 228.118 C 199.188 228.630,203.936 226.141,206.289 222.127 C 207.543 219.985,209.622 211.916,210.534 205.640 C 211.816 196.827,212.112 188.555,211.975 165.333 L 211.840 142.293 210.381 138.077 C 206.366 126.476,196.864 118.373,185.039 116.465 C 181.145 115.837,174.897 116.135,171.733 117.100 C 170.560 117.458,169.405 117.753,169.166 117.755 C 168.928 117.758,168.094 116.692,167.313 115.386 C 163.170 108.461,155.250 102.713,147.298 100.862 C 144.092 100.116,136.840 99.971,134.129 100.599 L 132.364 101.007 132.167 86.664 C 131.947 70.525,131.668 68.481,128.873 62.507 C 124.222 52.565,115.225 45.917,104.377 44.408 C 100.600 43.883,99.060 43.889,95.150 44.447 " stroke="none" fill-rule="evenodd"></path></svg>