<svg fill="currentColor" viewBox="0 0 256 256" xmlns="http://www.w3.org/2000/svg"><path d="M123.520 44.798 C 121.877 45.265,110.165 48.691,97.493 52.411 L 74.453 59.175 63.556 53.737 C 57.562 50.746,51.623 47.992,50.358 47.616 C 45.285 46.110,38.589 47.060,34.133 49.920 C 29.696 52.767,29.055 53.833,14.946 81.777 C 7.650 96.229,1.302 109.175,0.840 110.546 C -0.705 115.131,-0.051 121.357,2.467 126.038 C 3.105 127.223,4.740 129.294,6.101 130.640 C 8.306 132.821,10.024 133.815,21.887 139.776 L 35.200 146.464 62.507 166.388 C 77.525 177.347,90.220 186.529,90.717 186.794 C 92.385 187.684,158.257 203.947,160.193 203.947 C 161.243 203.947,163.169 203.547,164.473 203.059 C 166.694 202.228,168.601 200.380,194.459 174.002 L 222.072 145.832 234.778 139.457 C 246.063 133.795,247.758 132.810,249.934 130.648 C 255.105 125.508,257.131 118.442,255.371 111.683 C 255.024 110.354,248.710 97.209,241.338 82.473 C 227.079 53.967,226.449 52.910,222.045 50.092 C 217.288 47.049,210.832 46.075,205.642 47.616 C 204.377 47.992,198.438 50.747,192.444 53.739 L 181.547 59.178 156.373 51.781 C 142.528 47.713,130.144 44.286,128.853 44.166 C 127.229 44.015,125.587 44.209,123.520 44.798 M129.280 69.093 C 129.280 69.312,120.154 78.372,109.000 89.226 C 97.846 100.081,88.154 109.817,87.461 110.862 C 83.399 116.994,83.041 125.082,86.542 131.617 C 89.741 137.586,99.381 143.447,110.809 146.369 C 125.969 150.247,142.484 147.243,156.675 138.028 L 160.391 135.616 171.075 144.233 C 176.952 148.972,181.760 152.972,181.760 153.121 C 181.760 153.270,176.048 159.095,169.067 166.065 L 156.373 178.738 128.759 171.822 L 101.144 164.907 79.530 149.120 C 67.643 140.437,57.605 133.106,57.225 132.828 C 56.614 132.381,57.992 129.401,69.083 107.188 L 81.634 82.055 104.283 75.405 C 116.741 71.748,127.461 68.742,128.107 68.724 C 128.752 68.707,129.280 68.873,129.280 69.093 M46.466 98.642 L 35.836 119.898 30.718 117.332 C 27.903 115.921,25.600 114.673,25.600 114.558 C 25.600 114.443,30.341 104.864,36.136 93.271 L 46.673 72.194 51.884 74.790 L 57.096 77.385 46.466 98.642 M230.377 114.450 C 230.390 114.624,228.097 115.921,225.282 117.332 L 220.164 119.898 209.534 98.642 L 198.904 77.385 204.092 74.791 L 209.280 72.196 219.817 93.165 C 225.612 104.697,230.364 114.276,230.377 114.450 M187.825 108.986 C 204.044 141.430,204.487 140.208,182.800 122.864 C 174.028 115.849,166.029 109.682,165.025 109.160 C 163.627 108.432,162.452 108.206,160.000 108.192 C 156.088 108.170,154.241 109.028,150.187 112.749 C 141.465 120.752,130.135 125.034,120.799 123.854 C 117.331 123.416,111.989 121.934,111.228 121.199 C 111.037 121.016,119.389 112.590,129.788 102.476 L 148.693 84.087 162.027 84.070 L 175.361 84.053 187.825 108.986 M52.531 180.545 C 49.505 181.415,46.912 183.612,45.304 186.667 C 44.381 188.421,44.181 189.369,44.181 192.000 C 44.181 194.631,44.381 195.579,45.304 197.333 C 45.922 198.507,46.973 199.971,47.640 200.588 C 50.143 202.900,74.491 218.755,76.587 219.436 C 77.760 219.817,85.676 221.864,94.178 223.985 C 110.298 228.005,112.911 228.391,116.161 227.231 C 118.451 226.414,120.648 224.611,122.052 222.397 C 125.511 216.944,124.171 210.428,118.732 206.252 C 117.228 205.097,114.999 204.428,101.066 200.948 L 85.120 196.966 73.091 188.963 C 66.475 184.561,60.331 180.757,59.437 180.509 C 57.477 179.965,54.495 179.980,52.531 180.545 " stroke="none" fill-rule="evenodd"></path></svg>