<svg fill="currentColor" viewBox="0 0 256 256" xmlns="http://www.w3.org/2000/svg"><path d="M103.648 12.340 C 91.243 14.068,80.960 23.029,77.157 35.425 L 76.179 38.613 76.049 74.605 L 75.919 110.597 73.906 108.721 C 69.877 104.965,65.132 102.340,59.709 100.866 C 55.963 99.848,47.752 99.843,43.947 100.857 C 37.445 102.590,30.628 107.066,26.683 112.192 C 24.165 115.464,21.470 121.174,20.677 124.913 C 19.216 131.810,20.220 140.064,23.245 146.019 C 25.396 150.252,41.555 178.477,46.585 186.787 C 64.023 215.592,76.743 229.464,92.605 236.974 C 108.668 244.580,131.126 246.146,150.921 241.042 C 180.987 233.290,205.386 210.517,215.162 181.079 C 219.581 167.773,220.301 160.498,220.052 131.627 C 219.852 108.419,219.863 108.515,216.438 101.547 C 214.765 98.142,213.825 96.870,210.566 93.598 C 207.145 90.164,206.158 89.449,202.223 87.557 C 199.768 86.377,196.704 85.154,195.413 84.839 C 191.979 84.001,183.010 84.112,179.988 85.028 C 178.661 85.431,177.407 85.760,177.201 85.760 C 176.996 85.760,175.873 84.299,174.707 82.513 C 170.815 76.552,164.648 71.806,158.089 69.723 C 155.012 68.746,148.176 67.699,147.082 68.037 C 146.795 68.126,145.072 68.318,143.253 68.464 L 139.947 68.729 139.947 54.577 C 139.947 41.765,139.863 40.070,139.064 36.666 C 135.842 22.941,123.891 13.004,109.653 12.211 C 107.659 12.100,104.956 12.158,103.648 12.340 M112.794 37.686 C 116.044 40.165,115.815 37.299,116.053 78.507 L 116.267 115.413 117.206 117.170 C 119.607 121.657,123.213 123.909,128.000 123.909 C 132.791 123.909,136.419 121.641,138.783 117.170 C 139.624 115.578,139.732 114.576,139.941 106.453 C 140.168 97.647,140.191 97.463,141.312 95.731 C 143.925 91.695,149.863 90.945,153.318 94.214 C 155.887 96.644,155.913 96.795,156.157 110.720 C 156.412 125.212,156.444 125.369,159.758 128.590 C 164.501 133.199,172.356 132.936,176.788 128.020 C 179.204 125.340,179.725 123.746,180.027 118.102 C 180.282 113.351,180.357 113.034,181.606 111.489 C 183.551 109.083,185.382 108.165,188.165 108.203 C 191.276 108.245,193.676 109.718,194.962 112.375 C 195.890 114.293,195.892 114.352,195.727 137.896 C 195.572 160.196,195.512 161.718,194.641 165.580 C 191.125 181.166,183.164 194.460,171.561 204.121 C 155.973 217.099,135.845 222.425,115.224 219.028 C 97.533 216.113,86.765 206.295,68.417 176.347 C 61.437 164.955,44.818 135.625,44.343 133.861 C 43.046 129.046,46.940 124.160,52.074 124.160 C 56.521 124.160,56.581 124.229,68.212 142.902 C 79.165 160.485,80.280 161.921,83.966 163.177 C 90.006 165.235,96.166 162.527,98.951 156.589 L 100.053 154.240 100.164 97.970 L 100.275 41.701 101.222 40.016 C 101.743 39.090,102.941 37.858,103.884 37.279 C 105.342 36.385,106.024 36.247,108.420 36.364 C 110.720 36.476,111.528 36.720,112.794 37.686 " stroke="none" fill-rule="evenodd"></path></svg>