<svg fill="currentColor" viewBox="0 0 256 256" xmlns="http://www.w3.org/2000/svg"><path d="M100.693 12.395 C 69.442 15.811,43.957 38.720,37.559 69.150 C 36.245 75.401,35.630 83.343,36.235 86.253 C 38.215 95.772,49.693 99.185,56.576 92.302 C 59.035 89.843,59.751 87.710,60.188 81.541 C 60.667 74.786,62.084 69.069,64.588 63.782 C 71.202 49.819,83.413 40.147,98.308 37.073 C 104.404 35.815,114.871 36.102,120.539 37.683 C 137.146 42.316,150.238 55.595,154.446 72.078 C 154.931 73.978,155.519 78.048,155.753 81.122 C 156.261 87.796,157.066 90.014,159.961 92.722 C 167.372 99.655,179.217 94.796,179.951 84.522 C 180.199 81.051,179.431 73.601,178.298 68.480 C 171.941 39.770,148.611 17.742,119.500 12.964 C 114.724 12.180,105.273 11.894,100.693 12.395 M101.356 52.730 C 90.151 55.237,81.450 63.106,77.572 74.240 L 76.160 78.293 76.037 114.497 L 75.915 150.700 73.904 148.826 C 60.268 136.113,39.441 137.373,27.391 151.640 C 20.066 160.312,18.062 172.644,22.195 183.621 C 23.392 186.798,49.389 230.080,51.368 232.189 C 53.846 234.830,56.005 235.719,59.947 235.719 C 62.636 235.719,63.733 235.521,65.116 234.786 C 67.894 233.312,69.419 231.814,70.602 229.395 C 72.141 226.249,72.388 223.498,71.392 220.587 C 70.951 219.296,64.874 208.784,57.887 197.227 C 50.900 185.670,44.905 175.548,44.565 174.734 C 42.184 169.036,47.666 162.741,53.689 164.258 C 54.751 164.525,56.134 165.110,56.763 165.558 C 57.400 166.012,62.318 173.493,67.886 182.479 C 73.936 192.243,78.644 199.378,79.841 200.595 C 84.265 205.093,91.823 205.018,96.313 200.431 C 97.292 199.431,98.534 197.653,99.073 196.480 L 100.053 194.347 100.143 138.880 C 100.193 108.373,100.327 82.771,100.443 81.987 C 101.234 76.608,108.656 74.221,113.063 77.929 C 116.012 80.410,115.817 77.763,116.053 118.613 C 116.266 155.431,116.269 155.524,117.189 157.227 C 121.130 164.519,130.427 166.120,136.249 160.510 C 139.473 157.404,139.682 156.613,139.945 146.560 C 140.206 136.573,140.394 135.831,143.197 133.692 C 144.412 132.766,145.317 132.477,147.429 132.343 C 150.871 132.124,153.162 133.289,154.815 136.102 L 155.947 138.027 156.160 150.827 C 156.362 162.925,156.424 163.722,157.299 165.356 C 160.993 172.256,169.941 174.078,175.744 169.111 C 178.736 166.550,179.726 164.039,180.031 158.244 C 180.262 153.834,180.416 153.099,181.424 151.576 C 183.459 148.500,187.590 147.269,191.038 148.710 C 193.080 149.563,194.034 150.455,195.064 152.472 C 195.878 154.067,195.898 154.912,195.728 179.779 C 195.538 207.481,195.426 209.082,192.999 218.667 C 192.247 221.637,191.989 223.549,192.152 224.960 C 193.088 233.060,201.593 238.040,208.853 234.738 C 213.029 232.839,214.888 230.174,216.495 223.787 C 219.539 211.686,219.947 206.088,219.947 176.427 C 219.947 151.426,219.940 151.230,218.965 147.864 C 213.719 129.745,196.080 120.267,177.660 125.671 C 176.904 125.893,176.538 125.538,175.366 123.447 C 174.595 122.071,172.329 119.335,170.293 117.322 C 162.879 109.992,153.276 106.954,142.429 108.507 L 140.004 108.854 139.851 93.360 C 139.704 78.548,139.654 77.735,138.713 74.880 C 135.211 64.251,127.096 56.230,116.907 53.326 C 112.617 52.104,105.393 51.827,101.356 52.730 " stroke="none" fill-rule="evenodd"></path></svg>