<svg fill="currentColor" viewBox="0 0 256 256" xmlns="http://www.w3.org/2000/svg"><path d="M101.333 12.338 C 95.913 13.703,92.189 18.324,92.169 23.711 C 92.156 27.415,93.165 29.978,95.594 32.406 C 98.588 35.401,100.334 35.892,108.907 36.156 L 116.053 36.376 116.053 46.077 L 116.053 55.778 107.413 56.015 C 97.388 56.290,93.645 57.017,88.194 59.745 C 83.771 61.959,81.420 63.720,77.802 67.529 C 71.333 74.338,68.474 81.619,67.892 92.761 L 67.627 97.841 65.369 98.607 C 64.127 99.029,61.727 100.076,60.035 100.934 C 46.601 107.750,37.907 120.599,36.236 136.107 C 35.960 138.668,35.848 154.841,35.931 180.053 L 36.061 219.947 37.031 222.507 C 39.099 227.971,43.578 232.572,48.928 234.731 L 51.413 235.733 128.000 235.733 L 204.587 235.733 207.072 234.731 C 212.555 232.519,217.073 227.802,218.984 222.293 L 219.947 219.520 220.073 179.840 C 220.152 154.869,220.037 138.657,219.763 136.107 C 218.097 120.604,209.400 107.750,195.965 100.934 C 194.273 100.076,191.873 99.029,190.631 98.607 L 188.373 97.841 188.108 92.761 C 187.526 81.619,184.667 74.338,178.198 67.529 C 174.580 63.720,172.229 61.959,167.806 59.745 C 162.355 57.017,158.612 56.290,148.587 56.015 L 139.947 55.778 139.947 46.022 L 139.947 36.267 154.900 36.267 L 169.854 36.267 170.900 37.396 C 171.631 38.184,171.947 39.016,171.947 40.153 C 171.947 44.680,175.383 49.496,179.789 51.144 C 184.147 52.775,188.331 52.020,191.786 48.978 C 194.711 46.404,195.833 43.761,195.825 39.467 C 195.818 35.421,195.374 33.182,193.838 29.440 C 190.672 21.727,184.311 15.923,176.000 13.164 L 173.013 12.172 137.813 12.094 C 118.453 12.051,102.037 12.160,101.333 12.338 M158.010 81.639 C 160.130 82.885,162.389 85.627,163.274 88.028 C 163.550 88.775,163.790 90.875,163.808 92.693 L 163.840 96.000 128.000 96.000 L 92.160 96.000 92.160 92.854 C 92.160 88.086,93.556 84.883,96.669 82.509 C 99.704 80.194,99.165 80.231,128.640 80.332 L 155.947 80.427 158.010 81.639 M178.987 120.333 C 185.432 121.245,190.790 125.215,193.814 131.318 L 195.627 134.975 195.744 173.514 L 195.862 212.053 128.011 212.053 L 60.160 212.053 60.170 174.613 C 60.177 151.891,60.344 136.466,60.596 135.374 C 62.306 127.966,69.274 121.427,76.587 120.368 C 80.241 119.839,175.265 119.806,178.987 120.333 " stroke="none" fill-rule="evenodd"></path></svg>