<svg fill="currentColor" viewBox="0 0 256 256" xmlns="http://www.w3.org/2000/svg"><path d="M116.053 20.668 C 94.703 23.182,75.365 31.427,58.880 45.044 C 54.197 48.913,45.470 58.044,41.885 62.827 C 32.286 75.632,25.626 90.245,22.361 105.659 C 20.193 115.894,20.053 118.854,20.061 154.237 C 20.069 191.025,20.024 190.392,23.054 196.508 C 26.276 203.013,32.405 208.315,39.375 210.629 C 42.773 211.757,43.229 211.798,54.305 211.959 C 63.715 212.096,66.342 212.002,69.201 211.423 C 79.487 209.338,87.353 202.341,90.785 192.222 L 91.946 188.800 91.946 164.480 C 91.947 138.136,91.943 138.090,89.551 132.759 C 86.127 125.127,80.083 119.829,71.680 117.091 C 69.707 116.449,67.378 116.300,57.067 116.156 L 44.801 115.985 44.998 115.059 C 45.107 114.550,45.511 112.501,45.896 110.507 C 49.201 93.386,59.865 75.552,73.700 64.003 C 86.106 53.648,99.989 47.362,115.804 44.937 C 121.534 44.059,133.743 43.949,139.307 44.726 C 157.765 47.303,174.184 55.478,187.353 68.647 C 198.917 80.211,206.826 94.627,209.931 109.800 C 210.419 112.184,210.904 114.550,211.008 115.059 L 211.199 115.985 198.933 116.156 C 185.581 116.342,184.775 116.464,179.413 119.116 C 173.729 121.927,169.621 126.151,166.833 132.053 C 164.016 138.016,164.053 137.583,164.054 164.480 L 164.054 188.800 165.215 192.222 C 168.615 202.246,176.467 209.293,186.562 211.378 C 189.043 211.891,192.447 212.053,200.694 212.053 L 211.558 212.053 211.117 213.653 C 209.448 219.715,204.299 224.949,197.866 227.125 C 195.274 228.001,194.323 228.032,163.592 228.253 L 131.985 228.480 129.901 229.769 C 127.385 231.325,125.210 234.060,124.551 236.498 C 124.284 237.485,124.156 239.575,124.267 241.141 C 124.588 245.679,126.976 248.992,131.413 251.054 C 133.294 251.928,133.937 251.949,162.773 252.074 C 180.835 252.152,193.788 252.033,196.287 251.765 C 213.194 249.954,227.265 239.056,233.243 223.142 C 235.986 215.838,235.947 216.666,235.947 166.816 C 235.947 138.724,235.779 120.023,235.503 117.272 C 233.002 92.338,221.999 69.118,204.396 51.627 C 195.797 43.082,186.626 36.565,175.573 31.145 C 165.273 26.094,154.893 22.820,143.787 21.118 C 137.600 20.170,122.378 19.923,116.053 20.668 M66.811 141.357 L 67.840 142.554 67.840 163.982 C 67.840 187.382,67.917 186.641,65.362 187.700 C 64.502 188.056,61.453 188.170,55.282 188.078 L 46.435 187.947 45.191 186.553 L 43.947 185.160 43.947 162.533 L 43.947 139.906 54.864 140.033 L 65.782 140.160 66.811 141.357 M212.053 164.053 L 212.053 188.160 201.792 188.160 C 190.918 188.160,189.617 187.952,188.599 186.050 C 188.315 185.519,188.160 177.733,188.160 163.963 C 188.160 140.949,188.125 141.306,190.446 140.370 C 190.949 140.167,196.016 139.989,201.707 139.974 L 212.053 139.947 212.053 164.053 " stroke="none" fill-rule="evenodd"></path></svg>