<svg fill="currentColor" viewBox="0 0 256 256" xmlns="http://www.w3.org/2000/svg"><path d="M70.187 28.425 C 61.832 29.688,55.965 31.485,48.853 34.960 C 42.058 38.280,37.053 41.884,31.340 47.573 C 20.828 58.041,14.551 70.802,12.561 85.751 C 10.509 101.162,14.394 119.325,23.332 136.107 C 33.787 155.739,52.142 176.249,76.955 196.028 C 90.923 207.163,113.482 222.262,122.667 226.624 C 126.056 228.233,129.769 228.299,132.973 226.807 C 142.816 222.224,174.465 200.807,177.418 196.730 C 179.075 194.443,179.793 191.679,179.519 188.652 C 178.961 182.499,173.922 177.939,167.680 177.939 C 164.072 177.939,162.337 178.748,156.407 183.196 C 153.807 185.146,149.088 188.512,145.920 190.677 L 140.160 194.612 140.052 134.587 L 139.944 74.562 141.278 72.230 C 144.379 66.810,148.853 62.264,154.556 58.737 C 158.562 56.259,162.036 54.833,167.640 53.362 C 174.658 51.521,176.606 50.232,178.891 45.916 C 180.305 43.243,180.206 38.501,178.673 35.568 C 176.579 31.561,172.483 29.013,168.137 29.014 C 165.812 29.015,158.913 30.635,154.453 32.228 C 146.363 35.118,137.681 40.422,131.565 46.212 L 128.028 49.560 125.774 47.280 C 116.862 38.265,105.614 32.256,92.373 29.437 C 89.075 28.735,86.218 28.495,79.787 28.380 C 75.211 28.299,70.891 28.319,70.187 28.425 M204.246 37.735 C 198.430 39.810,195.024 45.592,196.250 51.309 C 197.000 54.806,198.492 56.881,202.359 59.810 C 212.169 67.239,217.434 75.871,219.532 87.964 C 219.904 90.108,220.565 92.554,221.000 93.398 C 224.652 100.483,234.181 102.050,239.929 96.510 C 243.562 93.010,244.332 89.009,242.803 81.590 C 240.907 72.388,237.694 64.594,232.665 56.993 C 227.557 49.273,216.169 38.919,211.297 37.566 C 209.138 36.967,206.204 37.037,204.246 37.735 M88.107 53.108 C 95.489 54.650,102.999 58.635,108.211 63.777 C 111.167 66.692,115.427 72.618,115.859 74.415 C 115.977 74.906,116.021 102.149,115.957 134.957 L 115.840 194.607 110.720 191.120 C 87.565 175.348,66.722 156.391,54.122 139.643 C 45.140 127.705,38.794 114.312,36.879 103.253 C 35.894 97.563,36.217 87.267,37.520 82.802 C 42.085 67.169,54.664 55.686,70.546 52.656 C 74.448 51.911,83.491 52.144,88.107 53.108 M220.800 116.019 C 216.691 117.154,214.418 119.187,211.752 124.111 C 207.169 132.577,200.443 142.081,193.750 149.547 C 189.142 154.687,188.370 156.283,188.385 160.640 C 188.399 164.689,189.214 166.576,192.096 169.233 C 194.730 171.661,197.254 172.540,200.852 172.281 C 204.636 172.010,206.569 170.970,209.943 167.390 C 218.856 157.935,228.826 143.862,233.465 134.187 C 235.064 130.852,235.305 129.981,235.292 127.573 C 235.259 121.261,230.595 116.282,224.288 115.825 C 223.074 115.737,221.504 115.824,220.800 116.019 " stroke="none" fill-rule="evenodd"></path></svg>