<svg fill="currentColor" viewBox="0 0 256 256" xmlns="http://www.w3.org/2000/svg"><path d="M67.222 36.311 C 53.692 37.736,41.076 43.652,31.054 53.271 C 21.797 62.156,16.040 72.483,13.152 85.384 C 12.304 89.170,12.160 90.991,12.160 97.920 C 12.160 104.849,12.304 106.670,13.152 110.456 C 16.016 123.247,20.932 132.108,30.932 142.502 C 33.982 145.673,55.472 167.528,78.688 191.070 C 105.179 217.933,121.545 234.218,122.636 234.798 C 125.125 236.123,130.876 236.123,133.366 234.797 C 134.459 234.216,150.718 218.038,177.100 191.282 C 230.539 137.086,230.089 137.556,233.310 132.739 C 238.035 125.674,241.312 117.688,243.050 108.998 C 244.192 103.289,244.097 91.682,242.863 86.076 C 237.338 60.976,219.487 42.878,194.773 37.320 C 189.993 36.246,177.828 36.006,172.278 36.877 C 164.655 38.074,156.691 40.916,150.463 44.662 C 145.747 47.499,141.976 50.527,134.933 57.134 L 128.000 63.639 121.067 57.131 C 113.672 50.191,109.175 46.621,104.621 44.074 C 93.154 37.661,80.109 34.953,67.222 36.311 M84.607 61.619 C 92.567 63.971,95.095 65.755,109.685 79.315 C 122.538 91.261,123.454 91.890,128.000 91.890 C 132.546 91.890,133.462 91.261,146.315 79.315 C 160.860 65.796,163.324 64.053,171.393 61.575 C 174.806 60.527,175.766 60.422,181.973 60.422 C 188.207 60.422,189.134 60.524,192.640 61.596 C 203.419 64.892,211.790 72.193,216.502 82.409 C 218.695 87.164,219.350 90.083,219.607 96.248 C 219.976 105.098,218.072 112.223,213.493 119.129 C 211.481 122.163,193.203 140.966,144.967 189.620 L 128.014 206.720 112.754 191.344 C 76.251 154.565,45.265 122.917,43.633 120.744 C 41.285 117.619,38.671 112.312,37.539 108.373 C 36.395 104.393,35.959 96.250,36.651 91.806 C 38.767 78.223,48.728 66.526,61.937 62.110 C 66.752 60.500,69.149 60.186,75.307 60.356 C 79.713 60.478,81.625 60.738,84.607 61.619 " stroke="none" fill-rule="evenodd"></path></svg>