<svg fill="currentColor" viewBox="0 0 256 256" xmlns="http://www.w3.org/2000/svg"><path d="M116.693 20.554 C 110.929 21.133,101.147 23.213,95.136 25.139 C 64.436 34.971,39.609 58.066,27.767 87.807 C 19.832 107.734,17.941 129.817,22.401 150.447 C 26.771 170.659,36.184 188.243,50.553 203.039 C 67.230 220.210,87.086 230.520,111.615 234.743 C 119.050 236.023,135.407 236.133,142.933 234.954 C 167.721 231.070,188.425 220.534,205.244 203.247 C 221.448 186.591,231.190 166.955,234.892 143.487 C 235.839 137.484,236.171 124.994,235.560 118.370 C 232.528 85.502,214.974 56.179,187.307 37.766 C 177.090 30.967,162.738 24.961,150.613 22.410 C 140.350 20.251,126.988 19.520,116.693 20.554 M133.973 44.387 C 163.245 46.612,188.424 62.992,202.167 88.747 C 212.785 108.646,214.828 132.634,207.742 154.217 C 204.859 162.995,200.318 171.602,194.510 179.294 C 191.766 182.929,183.901 191.047,181.440 192.785 L 180.053 193.765 180.053 173.772 C 180.053 157.427,179.937 153.333,179.417 151.336 C 177.878 145.426,174.273 140.950,168.876 138.249 C 166.991 137.306,165.191 136.533,164.876 136.533 C 164.406 136.533,164.279 131.352,164.160 107.200 C 164.052 85.261,163.881 77.466,163.484 76.277 C 162.700 73.934,160.465 71.232,158.099 69.769 C 156.170 68.577,155.716 68.480,152.044 68.480 L 148.074 68.480 122.640 81.195 C 100.955 92.036,96.935 94.189,95.364 95.805 C 92.197 99.064,92.160 99.331,92.160 119.082 L 92.160 136.466 90.773 136.759 C 86.284 137.709,80.546 142.328,78.267 146.826 C 76.032 151.236,75.947 152.225,75.947 173.758 L 75.947 193.737 75.005 193.232 C 74.486 192.955,71.833 190.500,69.108 187.777 C 61.624 180.300,56.851 173.636,52.421 164.480 C 36.999 132.608,43.362 94.258,68.239 69.135 C 82.464 54.769,101.348 45.937,121.089 44.418 C 127.712 43.909,127.685 43.909,133.973 44.387 M139.947 117.760 L 139.947 136.107 128.000 136.107 L 116.053 136.107 116.053 123.735 L 116.053 111.363 127.893 105.411 C 134.405 102.138,139.781 99.449,139.840 99.436 C 139.899 99.424,139.947 107.669,139.947 117.760 M156.160 183.613 L 156.160 207.225 152.417 208.374 C 136.756 213.178,118.829 213.187,103.670 208.398 L 100.267 207.323 100.267 183.661 L 100.267 160.000 128.213 160.000 L 156.160 160.000 156.160 183.613 " stroke="none" fill-rule="evenodd"></path></svg>