<svg fill="currentColor" viewBox="0 0 256 256" xmlns="http://www.w3.org/2000/svg"><path d="M61.825 36.295 C 57.938 36.907,55.892 38.631,49.191 46.933 C 34.540 65.088,24.970 86.747,21.237 110.198 C 20.278 116.217,20.270 116.625,20.269 160.427 L 20.267 204.587 21.269 207.072 C 23.484 212.562,28.213 217.088,33.707 218.975 C 36.374 219.891,37.164 219.933,54.400 220.067 C 66.226 220.160,73.247 220.046,75.047 219.734 C 83.500 218.267,90.142 211.720,91.694 203.325 C 91.991 201.720,92.160 193.153,92.160 179.762 C 92.160 168.189,92.304 158.724,92.480 158.730 C 92.656 158.735,94.279 159.846,96.088 161.198 C 111.786 172.935,122.684 186.650,131.228 205.424 C 134.171 211.890,136.976 215.300,141.205 217.554 C 146.157 220.194,145.179 220.145,193.493 220.146 C 241.651 220.147,240.140 220.222,245.332 217.601 C 248.318 216.093,251.930 212.587,253.523 209.649 C 255.598 205.823,256.113 202.754,255.877 195.627 C 255.629 188.145,254.999 185.319,252.341 179.767 C 248.785 172.341,243.010 166.591,235.520 163.019 C 232.462 161.561,228.010 160.345,207.147 155.269 L 182.400 149.248 126.507 93.449 C 77.879 44.905,70.364 37.565,68.693 36.989 C 66.157 36.115,64.212 35.919,61.825 36.295 M116.904 117.933 C 150.894 151.894,169.334 170.024,170.453 170.578 C 171.392 171.043,183.776 174.255,197.973 177.715 C 212.796 181.327,224.626 184.427,225.758 184.995 C 229.112 186.679,231.521 190.350,231.769 194.156 L 231.893 196.053 192.723 196.162 L 153.553 196.271 151.716 192.314 C 135.224 156.781,102.112 129.442,64.213 120.067 C 57.940 118.516,48.975 116.907,46.600 116.907 C 45.777 116.907,45.103 116.654,44.965 116.294 C 44.585 115.304,46.782 104.227,48.450 98.725 C 51.496 88.675,55.871 79.326,61.557 70.720 C 63.224 68.197,64.694 66.133,64.825 66.133 C 64.955 66.133,88.391 89.443,116.904 117.933 M53.892 142.358 C 56.663 142.932,60.599 143.894,62.638 144.496 C 64.678 145.098,66.683 145.687,67.093 145.805 C 67.794 146.006,67.840 147.582,67.840 171.150 L 67.840 196.280 56.000 196.167 L 44.160 196.053 44.050 168.396 L 43.940 140.738 46.397 141.026 C 47.748 141.184,51.121 141.784,53.892 142.358 " stroke="none" fill-rule="evenodd"></path></svg>