<svg fill="currentColor" viewBox="0 0 256 256" xmlns="http://www.w3.org/2000/svg"><path d="M51.095 28.620 C 48.654 29.200,44.808 31.288,42.609 33.228 C 35.550 39.456,34.029 49.987,38.977 58.385 C 39.975 60.079,49.305 69.267,75.307 94.162 C 94.549 112.585,110.293 127.815,110.293 128.006 C 110.293 128.197,94.549 143.426,75.307 161.847 C 38.748 196.847,38.557 197.047,36.874 202.240 C 35.852 205.396,35.847 210.695,36.864 213.760 C 39.038 220.310,43.357 224.710,49.920 227.060 L 52.693 228.053 128.000 228.053 L 203.307 228.053 206.080 227.060 C 218.628 222.566,223.679 208.967,217.023 197.601 C 216.013 195.878,206.991 186.995,180.693 161.833 C 161.451 143.421,145.707 128.200,145.707 128.010 C 145.707 127.819,160.011 113.999,177.493 97.299 C 215.892 60.618,216.406 60.103,218.010 56.712 C 219.816 52.893,220.414 48.994,219.781 45.161 C 218.663 38.390,214.844 33.213,208.735 30.186 L 205.078 28.373 128.886 28.307 C 85.593 28.269,52.003 28.404,51.095 28.620 M184.005 57.723 C 180.776 60.841,176.964 64.489,175.535 65.829 L 172.936 68.267 128.000 68.267 L 83.064 68.267 80.465 65.829 C 79.036 64.489,75.224 60.841,71.995 57.723 L 66.123 52.053 128.000 52.053 L 189.877 52.053 184.005 57.723 M142.792 97.173 C 139.937 99.931,135.442 104.288,132.801 106.856 L 128.000 111.526 123.199 106.856 C 120.558 104.288,116.063 99.931,113.208 97.173 L 108.018 92.160 128.000 92.160 L 147.982 92.160 142.792 97.173 M159.003 174.293 L 189.715 203.733 158.857 203.843 C 141.886 203.903,114.115 203.903,97.144 203.843 L 66.288 203.733 97.037 174.216 C 113.949 157.982,127.900 144.734,128.039 144.776 C 128.178 144.819,142.112 158.101,159.003 174.293 " stroke="none" fill-rule="evenodd"></path></svg>