<svg fill="currentColor" viewBox="0 0 256 256" xmlns="http://www.w3.org/2000/svg"><path d="M122.925 20.701 C 119.445 21.678,116.601 23.383,113.289 26.479 C 97.198 41.513,33.983 101.377,32.765 102.733 C 30.874 104.840,29.758 106.936,28.832 110.119 C 28.216 112.238,28.158 117.614,28.260 162.800 L 28.373 213.120 29.958 216.440 C 33.138 223.097,38.808 227.026,46.475 227.882 C 48.908 228.153,59.790 228.265,74.813 228.172 C 98.269 228.027,99.302 227.987,101.866 227.122 C 108.695 224.820,113.607 219.560,115.417 212.611 C 115.943 210.591,116.053 206.184,116.053 187.217 L 116.053 164.267 128.000 164.267 L 139.947 164.267 139.947 187.217 C 139.947 206.184,140.057 210.591,140.583 212.611 C 142.393 219.560,147.305 224.820,154.134 227.122 C 156.698 227.987,157.731 228.027,181.187 228.172 C 196.210 228.265,207.092 228.153,209.525 227.882 C 219.767 226.738,226.734 219.807,227.870 209.632 C 228.140 207.212,228.250 188.490,228.168 159.107 C 228.044 115.113,227.991 112.292,227.251 110.080 C 226.063 106.530,224.974 104.626,222.787 102.281 C 219.056 98.278,140.734 24.553,138.951 23.365 C 134.592 20.460,127.802 19.332,122.925 20.701 M166.133 81.493 L 203.910 117.120 203.929 160.533 L 203.947 203.947 184.136 203.947 L 164.325 203.947 164.172 180.373 C 164.025 157.758,163.982 156.692,163.121 154.134 C 160.793 147.222,155.369 142.237,148.382 140.590 C 144.481 139.670,111.519 139.670,107.618 140.590 C 100.584 142.248,95.067 147.323,92.968 154.065 C 92.216 156.483,92.160 158.300,92.160 180.305 L 92.160 203.947 72.107 203.947 L 52.053 203.947 52.072 160.533 L 52.090 117.120 89.938 81.403 C 110.755 61.758,127.915 45.726,128.071 45.776 C 128.228 45.826,145.355 61.899,166.133 81.493 " stroke="none" fill-rule="evenodd"></path></svg>