<svg fill="currentColor" viewBox="0 0 256 256" xmlns="http://www.w3.org/2000/svg"><path d="M122.925 20.701 C 119.445 21.678,116.601 23.383,113.289 26.479 C 97.198 41.513,33.983 101.377,32.765 102.733 C 30.874 104.840,29.758 106.936,28.832 110.119 C 28.216 112.238,28.158 117.614,28.260 162.800 L 28.373 213.120 29.958 216.440 C 33.070 222.956,38.805 227.007,46.107 227.846 C 50.959 228.404,205.041 228.404,209.893 227.846 C 219.774 226.710,226.752 219.640,227.870 209.632 C 228.140 207.212,228.250 188.490,228.168 159.107 C 228.044 115.113,227.991 112.292,227.251 110.080 C 226.063 106.530,224.974 104.626,222.787 102.281 C 219.056 98.278,140.734 24.553,138.951 23.365 C 134.592 20.460,127.802 19.332,122.925 20.701 M166.133 81.493 L 203.910 117.120 203.929 160.533 L 203.947 203.947 128.000 203.947 L 52.053 203.947 52.072 160.533 L 52.090 117.120 89.938 81.403 C 110.755 61.758,127.915 45.726,128.071 45.776 C 128.228 45.826,145.355 61.899,166.133 81.493 " stroke="none" fill-rule="evenodd"></path></svg>