<svg fill="currentColor" viewBox="0 0 256 256" xmlns="http://www.w3.org/2000/svg"><path d="M34.347 36.863 C 27.753 38.961,22.843 43.864,20.895 50.295 C 20.051 53.083,20.041 54.110,20.153 128.853 L 20.267 204.587 21.269 207.072 C 23.534 212.686,28.309 217.184,33.920 218.987 L 36.907 219.947 128.000 219.947 L 219.093 219.947 222.080 218.987 C 227.691 217.184,232.466 212.686,234.731 207.072 L 235.733 204.587 235.847 129.280 C 235.926 76.561,235.822 53.305,235.499 51.746 C 234.296 45.933,230.138 40.735,224.564 38.074 L 221.227 36.480 128.640 36.400 C 54.680 36.336,35.710 36.429,34.347 36.863 M212.053 128.214 L 212.053 196.269 128.107 196.161 L 44.160 196.053 44.052 128.107 L 43.944 60.160 127.999 60.160 L 212.053 60.160 212.053 128.214 M88.303 84.882 C 74.651 87.763,63.711 98.800,60.803 112.627 C 60.003 116.430,59.984 123.475,60.765 127.157 C 61.608 131.136,63.718 136.337,65.684 139.284 L 67.376 141.821 63.645 145.684 C 59.334 150.146,57.775 152.298,55.361 157.122 C 53.943 159.955,53.584 161.167,53.424 163.665 C 53.256 166.276,53.383 167.071,54.276 169.022 C 56.291 173.423,60.391 176.201,64.884 176.209 C 70.166 176.218,73.878 173.702,76.621 168.252 C 79.446 162.640,84.689 158.330,90.611 156.753 C 93.417 156.006,98.583 156.006,101.389 156.753 C 107.151 158.287,112.633 162.705,115.102 167.803 C 118.290 174.386,123.956 177.221,130.278 175.397 C 133.282 174.530,136.654 171.314,137.833 168.191 C 139.179 164.627,138.841 161.521,136.623 157.090 C 134.225 152.300,132.659 150.139,128.355 145.684 L 124.624 141.821 126.316 139.284 C 128.282 136.337,130.392 131.136,131.235 127.157 C 132.016 123.475,131.997 116.430,131.197 112.627 C 127.095 93.124,107.944 80.737,88.303 84.882 M152.068 96.768 C 148.130 98.149,145.498 101.076,144.424 105.266 C 143.354 109.444,144.434 113.287,147.557 116.410 C 150.905 119.759,150.254 119.665,171.264 119.800 C 192.154 119.933,192.480 119.897,195.754 117.095 C 197.772 115.367,199.556 111.995,199.938 109.185 C 200.533 104.814,197.907 99.906,193.707 97.537 L 191.360 96.213 172.800 96.110 C 155.916 96.016,154.044 96.075,152.068 96.768 M101.068 109.200 C 103.647 110.516,105.333 112.141,106.573 114.509 C 108.107 117.438,108.217 122.591,106.802 125.227 C 102.067 134.045,89.924 134.045,85.196 125.227 C 83.783 122.590,83.894 117.437,85.427 114.509 C 87.021 111.466,89.874 109.202,93.227 108.321 C 95.178 107.808,99.229 108.262,101.068 109.200 M151.479 136.991 C 148.708 138.248,146.938 139.728,145.719 141.807 C 141.928 148.277,144.822 156.470,151.847 159.154 C 154.063 160.001,154.836 160.029,172.754 159.910 L 191.360 159.787 193.707 158.463 C 197.907 156.094,200.533 151.186,199.938 146.815 C 199.556 144.009,197.773 140.633,195.764 138.914 C 192.528 136.144,192.198 136.106,171.764 136.116 C 154.223 136.125,153.300 136.165,151.479 136.991 " stroke="none" fill-rule="evenodd"></path></svg>