<svg fill="currentColor" viewBox="0 0 256 256" xmlns="http://www.w3.org/2000/svg"><path d="M42.621 28.778 C 37.215 30.269,32.466 34.310,29.967 39.543 L 28.373 42.880 28.373 128.000 L 28.373 213.120 29.958 216.440 C 33.070 222.956,38.805 227.007,46.107 227.846 C 50.959 228.404,205.041 228.404,209.893 227.846 C 219.655 226.724,226.724 219.655,227.846 209.893 C 228.404 205.041,228.404 50.959,227.846 46.107 C 226.875 37.658,221.143 30.874,213.184 28.755 C 210.056 27.922,45.644 27.945,42.621 28.778 M203.947 83.935 L 203.947 115.816 193.813 105.751 C 188.240 100.215,182.816 95.197,181.760 94.599 C 177.761 92.336,171.958 91.539,167.302 92.612 C 161.935 93.850,164.387 91.561,106.347 149.514 L 52.053 203.725 52.053 127.889 L 52.053 52.053 128.000 52.053 L 203.947 52.053 203.947 83.935 M91.713 76.528 C 81.570 78.713,74.564 88.950,76.297 99.054 C 78.180 110.035,88.419 117.527,99.054 115.703 C 107.763 114.210,114.210 107.763,115.703 99.054 C 117.477 88.709,110.108 78.311,99.655 76.408 C 96.545 75.841,94.776 75.868,91.713 76.528 M188.051 133.651 L 203.947 149.542 203.947 176.745 L 203.947 203.947 144.747 203.947 L 85.548 203.947 128.640 160.853 C 152.340 137.152,171.827 117.760,171.944 117.760 C 172.060 117.760,179.309 124.911,188.051 133.651 " stroke="none" fill-rule="evenodd"></path></svg>