<svg fill="currentColor" viewBox="0 0 256 256" xmlns="http://www.w3.org/2000/svg"><path d="M73.169 37.262 C 67.576 39.348,63.286 43.576,61.147 49.113 C 60.591 50.554,60.369 52.960,60.185 59.520 L 59.947 68.053 47.360 68.267 L 34.773 68.480 31.811 69.883 C 30.182 70.654,28.038 71.950,27.047 72.762 C 24.581 74.782,21.924 78.900,20.895 82.295 C 20.053 85.073,20.040 86.106,20.153 144.853 L 20.267 204.587 21.269 207.072 C 23.534 212.686,28.309 217.184,33.920 218.987 L 36.907 219.947 112.000 219.947 L 187.093 219.947 190.080 218.987 C 195.697 217.182,200.487 212.666,202.720 207.072 C 203.663 204.710,203.719 203.978,203.859 192.320 L 204.005 180.053 211.123 180.029 C 219.345 180.000,222.427 179.397,226.321 177.056 C 230.644 174.457,233.709 170.374,235.259 165.149 C 235.876 163.071,235.947 157.197,235.947 108.172 C 235.947 60.441,235.864 53.194,235.293 51.002 C 233.790 45.231,230.006 40.672,224.564 38.074 L 221.227 36.480 148.480 36.393 L 75.733 36.306 73.169 37.262 M212.053 82.612 L 212.053 105.063 209.109 102.286 C 202.209 95.777,193.559 94.288,185.600 98.240 C 183.336 99.364,181.218 101.200,174.061 108.245 L 165.295 116.872 147.821 99.386 C 138.210 89.768,129.237 81.088,127.881 80.097 C 121.629 75.524,114.064 74.822,107.093 78.167 C 104.730 79.301,102.822 80.982,94.187 89.535 L 84.053 99.573 84.053 79.866 L 84.053 60.160 148.053 60.160 L 212.053 60.160 212.053 82.612 M60.160 127.749 C 60.160 161.479,60.202 163.473,60.968 165.935 C 63.028 172.552,68.433 177.605,75.389 179.417 C 77.489 179.964,85.015 180.053,128.943 180.053 L 180.053 180.053 180.053 188.161 L 180.053 196.269 112.107 196.161 L 44.160 196.053 44.052 144.107 L 43.943 92.160 52.052 92.160 L 60.160 92.160 60.160 127.749 M137.590 123.251 C 160.982 146.572,160.185 145.920,165.333 145.920 C 170.173 145.920,170.671 145.563,183.267 133.064 L 194.801 121.619 203.427 130.254 L 212.053 138.888 212.053 147.524 L 212.053 156.160 148.053 156.160 L 84.053 156.160 84.053 144.962 L 84.053 133.764 99.945 117.869 C 108.685 109.126,115.928 101.973,116.042 101.973 C 116.155 101.973,125.852 111.548,137.590 123.251 " stroke="none" fill-rule="evenodd"></path></svg>