<svg fill="currentColor" viewBox="0 0 256 256" xmlns="http://www.w3.org/2000/svg"><path d="M119.755 20.504 C 105.319 22.182,90.812 28.693,80.250 38.235 C 65.328 51.716,57.219 68.735,56.043 89.039 L 55.766 93.812 52.232 95.972 C 47.568 98.822,43.238 102.326,38.960 106.712 C 34.703 111.075,33.460 112.612,30.192 117.547 C 11.821 145.290,15.207 182.374,38.322 206.598 C 60.302 229.631,94.181 235.404,122.987 221.024 L 128.000 218.521 133.013 221.024 C 148.065 228.538,163.977 230.689,180.137 227.396 C 186.281 226.144,191.516 224.306,197.760 221.209 C 229.742 205.343,245.111 168.538,233.989 134.452 C 231.538 126.940,226.773 118.090,221.900 112.000 C 217.358 106.324,209.855 99.692,203.768 95.972 L 200.234 93.812 199.957 89.039 C 199.805 86.414,199.397 82.539,199.049 80.427 C 193.815 48.586,168.097 24.189,135.876 20.498 C 131.531 20.001,124.063 20.003,119.755 20.504 M133.404 44.403 C 153.174 46.607,169.787 61.207,174.530 80.545 C 175.061 82.713,175.403 84.580,175.288 84.694 C 175.174 84.808,173.655 84.717,171.914 84.491 C 159.542 82.885,145.384 85.326,133.013 91.198 L 128.000 93.578 122.987 91.198 C 110.616 85.326,96.458 82.885,84.086 84.491 C 82.345 84.717,80.826 84.808,80.712 84.694 C 80.597 84.580,80.939 82.713,81.470 80.545 C 86.614 59.571,105.384 44.595,127.270 44.002 C 128.394 43.972,131.154 44.152,133.404 44.403 M97.067 108.385 C 100.365 108.755,107.430 110.275,107.862 110.706 C 107.940 110.785,107.152 111.972,106.111 113.344 C 103.465 116.834,100.847 121.190,98.858 125.416 L 97.161 129.019 93.805 125.535 C 91.960 123.618,89.382 120.413,88.078 118.412 C 85.731 114.812,82.975 109.309,83.337 108.947 C 83.613 108.672,88.623 108.063,91.093 108.004 C 92.267 107.976,94.955 108.148,97.067 108.385 M169.348 108.383 C 171.087 108.609,172.607 108.892,172.727 109.012 C 172.847 109.132,172.042 111.051,170.937 113.277 C 168.658 117.867,165.079 122.796,161.405 126.402 L 158.904 128.858 156.250 123.629 C 154.790 120.753,152.352 116.672,150.833 114.560 L 148.071 110.720 151.582 109.760 C 157.520 108.136,163.735 107.655,169.348 108.383 M63.145 123.194 C 68.195 133.970,77.589 144.776,87.937 151.711 L 92.034 154.457 92.293 160.322 C 92.905 174.111,97.726 187.346,106.497 199.310 C 108.161 201.580,108.626 201.152,102.827 202.690 C 98.594 203.813,90.405 204.225,85.775 203.548 C 70.822 201.361,58.380 193.101,50.647 180.225 C 42.723 167.033,41.939 149.884,48.617 135.838 C 49.747 133.461,51.493 130.307,52.495 128.831 C 54.347 126.105,60.410 119.467,61.049 119.467 C 61.242 119.467,62.185 121.144,63.145 123.194 M198.491 122.806 C 202.502 127.005,204.780 130.350,207.362 135.838 C 214.955 151.974,212.891 170.983,202.005 185.173 C 195.996 193.005,187.857 198.697,178.347 201.717 C 168.937 204.706,159.727 204.658,149.013 201.564 C 148.059 201.289,148.062 201.275,149.503 199.310 C 152.553 195.149,154.167 192.470,156.605 187.520 C 160.760 179.081,163.216 170.125,163.660 161.789 C 164.073 154.029,163.967 154.333,166.868 152.543 C 177.458 146.006,187.432 134.677,193.096 122.749 C 193.953 120.944,194.800 119.467,194.977 119.467 C 195.155 119.467,196.736 120.969,198.491 122.806 M130.529 127.467 C 131.722 129.051,133.658 132.259,134.831 134.595 C 136.782 138.481,136.900 138.882,136.215 139.289 C 135.772 139.552,132.417 139.733,128.000 139.733 C 123.583 139.733,120.228 139.552,119.785 139.289 C 119.100 138.882,119.218 138.481,121.169 134.595 C 123.225 130.499,127.261 124.587,128.000 124.587 C 128.197 124.587,129.335 125.883,130.529 127.467 M126.080 163.726 C 130.539 163.828,135.339 163.723,136.747 163.493 C 138.155 163.262,139.341 163.105,139.383 163.142 C 139.424 163.179,139.197 164.457,138.878 165.981 C 138.087 169.752,136.348 174.502,134.350 178.347 C 132.506 181.895,128.671 187.307,128.000 187.307 C 127.288 187.307,123.436 181.794,121.441 177.920 C 119.464 174.079,118.049 170.298,117.334 166.943 C 117.095 165.823,116.796 164.450,116.668 163.893 C 116.474 163.042,116.560 162.932,117.205 163.210 C 117.628 163.392,121.621 163.624,126.080 163.726 " stroke="none" fill-rule="evenodd"></path></svg>