<svg fill="currentColor" viewBox="0 0 256 256" xmlns="http://www.w3.org/2000/svg"><path d="M205.663 20.720 C 199.697 22.013,195.658 24.028,191.032 28.016 C 189.444 29.386,148.995 70.686,101.146 119.795 C 37.944 184.661,13.894 209.607,13.220 211.001 C 10.427 216.771,12.834 223.999,18.462 226.739 C 24.677 229.764,47.424 232.492,61.867 231.945 C 103.640 230.362,142.759 213.811,180.053 181.942 C 191.004 172.585,208.246 154.276,210.585 149.521 C 212.060 146.523,212.327 143.666,211.422 140.551 C 210.721 138.138,210.293 137.628,201.715 128.988 C 196.316 123.551,192.832 119.726,192.971 119.388 C 193.098 119.079,203.028 108.363,215.037 95.573 C 227.070 82.759,237.692 71.075,238.699 69.547 C 251.076 50.761,240.468 25.298,218.364 20.732 C 214.397 19.913,209.409 19.908,205.663 20.720 M214.400 44.423 C 219.161 45.738,221.368 51.950,218.607 56.265 C 217.705 57.674,175.825 102.400,175.407 102.400 C 175.258 102.400,172.463 99.723,169.197 96.451 L 163.260 90.502 177.737 75.672 C 207.440 45.244,207.467 45.217,209.280 44.582 C 211.379 43.847,212.219 43.821,214.400 44.423 M165.225 126.185 C 175.258 136.216,183.467 144.634,183.467 144.892 C 183.467 145.671,167.411 161.220,161.707 165.964 C 134.721 188.410,106.396 202.106,77.867 206.503 C 70.211 207.683,57.003 208.446,52.641 207.960 L 49.176 207.573 97.655 157.790 C 124.318 130.410,146.325 107.994,146.558 107.977 C 146.792 107.960,155.192 116.154,165.225 126.185 " stroke="none" fill-rule="evenodd"></path></svg>