<svg fill="currentColor" viewBox="0 0 256 256" xmlns="http://www.w3.org/2000/svg"><path d="M34.347 36.863 C 27.753 38.961,22.843 43.864,20.895 50.295 C 20.051 53.083,20.041 54.110,20.153 128.853 L 20.267 204.587 21.269 207.072 C 23.534 212.686,28.309 217.184,33.920 218.987 L 36.907 219.947 128.000 219.947 L 219.093 219.947 222.080 218.987 C 227.691 217.184,232.466 212.686,234.731 207.072 L 235.733 204.587 235.847 129.280 C 235.926 76.561,235.822 53.305,235.499 51.746 C 234.296 45.933,230.138 40.735,224.564 38.074 L 221.227 36.480 128.640 36.400 C 54.680 36.336,35.710 36.429,34.347 36.863 M212.053 76.160 L 212.053 92.160 128.000 92.160 L 43.947 92.160 43.947 76.160 L 43.947 60.160 128.000 60.160 L 212.053 60.160 212.053 76.160 M92.056 156.053 L 91.947 196.053 68.053 196.053 L 44.160 196.053 44.051 156.053 L 43.942 116.053 68.053 116.053 L 92.164 116.053 92.056 156.053 M212.053 156.160 L 212.053 196.267 164.053 196.267 L 116.053 196.267 116.053 156.160 L 116.053 116.053 164.053 116.053 L 212.053 116.053 212.053 156.160 " stroke="none" fill-rule="evenodd"></path></svg>