<svg fill="currentColor" viewBox="0 0 256 256" xmlns="http://www.w3.org/2000/svg"><path d="M181.333 28.412 C 180.277 28.499,176.725 28.773,173.440 29.022 C 116.175 33.365,70.306 56.814,49.019 92.628 C 43.293 102.262,39.538 112.468,37.262 124.587 C 36.298 129.717,36.154 148.534,37.039 153.600 C 39.094 165.360,41.874 174.660,46.157 184.107 C 47.328 186.688,48.392 189.155,48.523 189.589 C 48.705 190.191,46.527 192.617,39.332 199.829 C 28.916 210.269,28.185 211.309,28.169 215.711 C 28.144 222.730,33.104 227.947,39.804 227.947 C 44.584 227.947,45.642 227.219,56.121 216.732 C 61.272 211.578,65.733 207.360,66.035 207.360 C 66.337 207.360,67.724 207.935,69.116 208.638 C 74.669 211.441,85.038 215.154,92.160 216.889 C 98.913 218.534,103.651 219.249,110.767 219.697 C 155.305 222.502,194.086 193.867,213.546 143.811 C 220.370 126.255,224.333 109.039,226.857 85.973 C 227.459 80.472,227.606 75.253,227.615 59.093 C 227.629 35.767,227.667 36.038,223.785 32.156 C 220.189 28.560,219.891 28.512,200.107 28.374 C 190.837 28.309,182.389 28.326,181.333 28.412 M203.812 64.320 C 203.539 77.049,202.875 85.580,201.361 95.787 C 197.137 124.264,187.424 149.046,173.684 166.400 C 170.083 170.949,162.368 178.478,157.949 181.758 C 144.941 191.410,131.786 195.831,116.053 195.837 C 107.032 195.841,96.159 193.828,88.279 190.696 C 87.011 190.192,85.505 189.598,84.932 189.376 C 83.950 188.996,86.377 186.483,127.226 145.580 C 166.940 105.813,170.620 102.011,171.254 100.084 C 173.188 94.211,170.645 87.984,165.120 85.063 C 163.025 83.956,156.986 83.952,154.880 85.058 C 154.059 85.489,133.956 105.253,110.208 128.978 L 67.030 172.115 66.537 170.858 C 64.524 165.720,63.785 163.490,62.693 159.256 C 58.869 144.426,59.426 129.416,64.286 116.267 C 66.007 111.612,70.146 103.867,73.295 99.413 C 77.010 94.158,86.466 84.649,92.160 80.445 C 116.905 62.170,152.425 52.421,195.371 52.115 L 204.075 52.053 203.812 64.320 " stroke="none" fill-rule="evenodd"></path></svg>