<svg fill="currentColor" viewBox="0 0 256 256" xmlns="http://www.w3.org/2000/svg"><path d="M119.893 12.361 C 87.568 15.551,59.646 34.839,45.446 63.787 C 32.879 89.406,32.861 118.515,45.395 144.427 C 50.352 154.673,57.003 163.543,65.710 171.520 C 73.768 178.903,74.553 179.781,75.279 182.226 C 75.646 183.463,75.947 185.744,75.947 187.294 C 75.947 192.890,77.804 197.588,81.635 201.683 C 84.725 204.986,88.810 207.126,93.251 207.768 C 97.150 208.332,158.786 208.341,162.675 207.779 C 172.667 206.334,180.053 197.627,180.053 187.294 C 180.053 185.744,180.355 183.459,180.724 182.217 C 181.454 179.759,182.266 178.857,190.932 170.880 C 214.007 149.641,224.447 117.225,218.202 86.204 C 215.955 75.040,210.920 62.673,204.900 53.532 C 190.553 31.744,167.460 16.961,141.645 13.040 C 136.261 12.222,124.896 11.867,119.893 12.361 M135.127 36.494 C 142.502 37.030,152.398 39.998,159.573 43.828 C 177.816 53.564,190.160 70.012,194.645 90.560 C 195.470 94.341,195.598 96.175,195.591 104.107 C 195.581 114.454,195.003 118.219,192.184 126.318 C 188.074 138.127,181.293 147.873,171.241 156.419 C 168.510 158.740,165.452 161.650,164.446 162.885 C 160.238 168.047,157.518 174.062,156.518 180.423 L 155.972 183.893 127.906 183.893 L 99.840 183.893 99.837 182.507 C 99.832 179.986,98.125 173.920,96.446 170.453 C 93.985 165.372,91.070 161.851,85.017 156.648 C 78.927 151.413,75.395 147.525,71.608 141.887 C 66.729 134.624,63.250 126.384,61.358 117.610 C 60.079 111.676,59.965 97.369,61.151 91.535 C 62.387 85.455,64.281 79.997,67.227 74.027 C 70.687 67.015,74.568 61.588,80.024 56.131 C 91.479 44.676,106.472 37.633,122.240 36.299 C 126.399 35.947,127.895 35.969,135.127 36.494 M137.600 58.427 C 133.962 59.317,130.755 62.059,129.175 65.632 C 128.115 68.028,128.273 72.771,129.497 75.293 C 130.635 77.638,133.222 80.106,135.600 81.115 C 141.299 83.533,144.774 86.092,147.450 89.842 C 149.922 93.306,150.891 95.575,151.884 100.225 C 152.869 104.833,153.875 106.923,156.007 108.795 C 162.318 114.337,171.606 112.272,175.076 104.555 C 176.944 100.403,175.454 91.935,171.356 83.413 C 166.433 73.176,158.574 65.369,148.386 60.594 C 143.318 58.220,140.645 57.682,137.600 58.427 M84.477 220.555 C 79.612 222.053,75.947 227.043,75.947 232.168 C 75.947 236.680,79.389 241.498,83.789 243.144 C 86.208 244.049,86.410 244.053,128.000 244.053 C 169.590 244.053,169.792 244.049,172.211 243.144 C 176.611 241.498,180.053 236.680,180.053 232.168 C 180.053 227.945,177.266 223.333,173.495 221.315 L 171.733 220.373 128.640 220.299 C 104.939 220.259,85.065 220.373,84.477 220.555 " stroke="none" fill-rule="evenodd"></path></svg>