<svg fill="currentColor" viewBox="0 0 256 256" xmlns="http://www.w3.org/2000/svg"><path d="M123.911 12.524 C 122.952 12.838,121.571 13.447,120.842 13.878 C 118.842 15.060,22.592 119.133,21.357 121.449 C 20.144 123.724,19.744 127.399,20.431 129.950 C 21.068 132.316,23.112 135.251,25.016 136.533 C 25.887 137.120,37.174 142.342,50.100 148.137 C 63.025 153.933,73.654 158.931,73.720 159.245 C 73.786 159.559,70.921 172.001,67.354 186.894 C 63.018 204.992,60.868 214.752,60.872 216.320 C 60.880 220.391,63.181 224.264,66.875 226.429 C 68.383 227.312,69.534 227.603,72.118 227.753 C 78.447 228.119,73.773 232.621,128.887 173.084 C 157.596 142.072,178.117 119.568,178.703 118.454 C 180.185 115.640,180.363 112.171,179.187 109.053 C 177.368 104.235,177.225 104.149,152.960 93.249 C 140.992 87.873,130.031 82.944,128.601 82.297 L 126.003 81.120 132.537 53.680 C 136.394 37.482,139.076 25.353,139.082 24.076 C 139.114 17.794,134.405 12.680,128.108 12.157 C 126.649 12.035,124.947 12.184,123.911 12.524 M104.509 67.733 C 104.311 68.613,103.254 72.981,102.159 77.440 C 99.860 86.809,99.664 89.603,101.077 92.846 C 102.913 97.060,103.381 97.334,126.333 107.657 C 137.927 112.871,147.369 117.325,147.314 117.555 C 147.203 118.021,95.427 174.021,95.245 173.872 C 95.181 173.821,96.205 169.286,97.520 163.796 C 100.281 152.263,100.416 149.626,98.422 146.224 C 96.219 142.464,97.501 143.141,64.427 128.286 C 57.973 125.388,52.693 122.819,52.693 122.577 C 52.693 122.192,104.378 66.133,104.732 66.133 C 104.808 66.133,104.707 66.853,104.509 67.733 M194.133 132.281 C 191.561 132.611,189.078 133.966,187.164 136.085 C 186.070 137.295,179.804 149.399,166.772 175.476 C 149.199 210.637,147.954 213.276,147.899 215.467 C 147.809 219.084,148.743 221.618,151.129 224.229 C 155.934 229.487,163.500 229.586,168.444 224.456 C 169.421 223.443,171.412 220.019,173.643 215.514 L 177.260 208.213 195.924 208.213 L 214.588 208.213 218.292 215.545 C 223.450 225.756,225.831 227.846,232.289 227.836 C 239.063 227.825,244.595 221.676,243.942 214.883 C 243.770 213.097,240.444 206.136,224.954 175.141 C 214.625 154.473,205.652 136.944,205.015 136.187 C 202.554 133.262,198.326 131.744,194.133 132.281 M202.218 183.573 C 202.230 183.749,199.359 183.893,195.837 183.893 L 189.435 183.893 192.691 177.392 L 195.946 170.891 199.071 177.072 C 200.789 180.472,202.205 183.397,202.218 183.573 " stroke="none" fill-rule="evenodd"></path></svg>