<svg fill="currentColor" viewBox="0 0 256 256" xmlns="http://www.w3.org/2000/svg"><path d="M183.384 29.029 C 162.913 34.063,151.175 55.591,158.012 75.561 L 159.434 79.714 119.504 119.639 L 79.573 159.564 76.876 158.473 C 72.539 156.718,67.916 156.025,62.293 156.287 C 54.356 156.658,48.174 158.916,41.844 163.756 C 36.251 168.033,32.445 173.410,29.915 180.606 C 28.405 184.901,28.384 185.053,28.379 191.787 C 28.374 197.786,28.496 199.001,29.382 201.813 C 34.369 217.637,47.939 227.840,64.000 227.840 C 81.130 227.840,95.702 215.965,99.270 199.098 C 99.723 196.957,99.864 194.406,99.744 190.507 C 99.591 185.509,99.425 184.531,98.070 180.623 L 96.566 176.286 136.496 136.388 L 176.427 96.491 178.560 97.352 C 187.675 101.032,198.291 100.772,207.207 96.653 C 217.024 92.117,224.171 83.496,227.026 72.747 C 228.297 67.963,228.298 60.037,227.029 55.276 C 223.460 41.887,212.721 31.617,199.318 28.776 C 195.243 27.913,187.420 28.037,183.384 29.029 M197.133 53.324 C 202.474 56.003,205.022 61.790,203.367 67.483 C 202.553 70.283,199.958 73.436,197.388 74.748 C 194.881 76.028,190.447 76.284,187.864 75.298 C 185.423 74.366,182.419 71.674,181.241 69.365 C 179.992 66.917,179.763 62.962,180.705 60.125 C 181.706 57.112,184.972 53.801,187.947 52.784 C 190.748 51.826,194.598 52.052,197.133 53.324 M67.826 180.729 C 69.518 181.231,70.675 181.979,72.348 183.652 C 76.913 188.217,77.149 195.033,72.910 199.849 C 70.216 202.910,68.345 203.723,64.000 203.723 C 59.667 203.723,57.784 202.909,55.124 199.888 C 50.796 194.970,51.032 188.273,55.698 183.607 C 59.041 180.263,63.052 179.311,67.826 180.729 " stroke="none" fill-rule="evenodd"></path></svg>