<svg fill="currentColor" viewBox="0 0 256 256" xmlns="http://www.w3.org/2000/svg"><path d="M53.547 68.941 C 45.091 70.422,35.007 74.795,28.136 79.962 C 20.881 85.416,13.672 94.107,10.022 101.800 C 5.972 110.333,4.115 118.571,4.115 128.000 C 4.115 135.271,4.903 140.260,7.081 146.773 C 10.247 156.237,14.427 162.928,21.750 170.250 C 29.072 177.573,35.763 181.753,45.227 184.919 C 54.062 187.873,54.960 187.947,82.347 187.947 L 106.880 187.947 108.881 186.952 C 117.979 182.428,118.310 170.143,109.463 165.406 C 107.764 164.496,107.308 164.476,83.413 164.226 C 56.577 163.947,56.761 163.964,49.599 160.955 C 40.591 157.171,33.210 149.026,29.785 139.093 C 28.426 135.153,28.387 134.845,28.387 128.000 C 28.387 121.155,28.426 120.847,29.785 116.907 C 33.622 105.777,41.755 97.642,52.907 93.778 L 56.960 92.373 81.920 92.160 L 106.880 91.947 108.881 90.952 C 118.195 86.321,118.273 73.604,109.013 69.273 L 106.880 68.275 81.920 68.309 C 62.550 68.336,56.196 68.477,53.547 68.941 M146.987 69.273 C 142.524 71.360,140.183 75.051,140.183 80.000 C 140.183 84.896,142.598 88.702,147.139 90.961 L 149.120 91.947 174.080 92.178 C 198.699 92.406,199.081 92.423,202.027 93.395 C 208.249 95.448,213.271 98.450,217.411 102.589 C 221.646 106.825,224.677 111.954,226.626 118.187 C 227.495 120.966,227.627 122.256,227.627 128.000 C 227.627 133.753,227.496 135.030,226.623 137.813 C 221.959 152.679,210.017 162.479,194.906 163.841 C 192.486 164.059,181.195 164.246,169.813 164.256 L 149.120 164.275 146.987 165.273 C 142.524 167.360,140.183 171.051,140.183 176.000 C 140.183 180.896,142.598 184.702,147.139 186.961 L 149.120 187.947 173.653 187.947 C 201.040 187.947,201.938 187.873,210.773 184.919 C 220.237 181.753,226.928 177.573,234.250 170.250 C 241.573 162.928,245.753 156.237,248.919 146.773 C 251.097 140.260,251.885 135.271,251.885 128.000 C 251.885 120.729,251.097 115.740,248.919 109.227 C 245.970 100.410,241.776 93.460,235.331 86.705 C 228.450 79.494,220.080 74.177,210.748 71.090 C 202.560 68.382,201.041 68.266,173.685 68.271 L 149.120 68.275 146.987 69.273 M76.246 116.665 C 72.018 118.183,69.142 121.437,68.256 125.707 C 67.014 131.690,70.898 137.931,76.864 139.537 C 77.872 139.809,96.529 139.920,128.924 139.847 L 179.413 139.733 181.170 138.794 C 185.657 136.393,187.909 132.787,187.909 128.000 C 187.909 123.213,185.657 119.607,181.170 117.206 L 179.413 116.267 128.640 116.175 C 86.682 116.100,77.585 116.185,76.246 116.665 " stroke="none" fill-rule="evenodd"></path></svg>