<svg fill="currentColor" viewBox="0 0 256 256" xmlns="http://www.w3.org/2000/svg"><path d="M121.387 20.304 C 120.683 20.404,118.571 20.690,116.693 20.939 C 96.103 23.674,76.040 36.574,64.324 54.613 C 56.394 66.823,52.090 81.119,52.057 95.360 C 51.956 138.908,41.487 180.087,23.692 206.933 C 20.464 211.804,19.878 213.459,20.157 216.928 C 20.517 221.418,22.962 224.915,27.084 226.834 C 30.950 228.634,36.370 227.931,39.724 225.196 C 41.029 224.131,44.793 218.839,47.559 214.180 C 59.833 193.501,68.995 165.834,73.144 136.916 C 74.727 125.882,75.513 116.040,75.952 101.760 C 76.448 85.602,77.294 81.295,81.667 72.632 C 86.966 62.136,95.110 54.220,105.923 49.058 C 131.156 37.012,161.656 47.522,174.333 72.632 C 178.706 81.295,179.552 85.602,180.048 101.760 C 180.487 116.040,181.273 125.882,182.856 136.916 C 187.436 168.837,198.117 199.186,212.093 219.992 C 216.009 225.821,219.063 227.832,224.000 227.832 C 230.355 227.832,235.336 223.246,235.843 216.928 C 236.122 213.458,235.536 211.803,232.306 206.933 C 217.521 184.647,207.521 151.788,204.825 116.634 C 204.588 113.551,204.280 106.447,204.139 100.847 C 203.765 85.898,202.515 78.058,199.092 69.197 C 194.802 58.087,188.929 49.310,180.199 40.960 C 169.176 30.418,155.687 23.675,140.373 21.053 C 136.841 20.448,123.951 19.939,121.387 20.304 M99.810 96.556 C 95.203 97.863,90.823 101.797,89.124 106.154 C 87.808 109.527,87.811 114.480,89.131 117.865 C 90.444 121.233,93.649 124.643,97.096 126.340 C 104.239 129.856,112.981 127.428,117.313 120.726 C 123.994 110.390,117.153 96.895,104.872 96.183 C 103.043 96.077,100.956 96.231,99.810 96.556 M148.372 96.436 C 141.555 98.158,136.636 103.927,136.201 110.708 C 135.942 114.742,136.641 117.561,138.687 120.726 C 144.345 129.480,156.673 130.428,163.776 122.655 C 166.664 119.495,167.825 116.439,167.825 112.000 C 167.825 105.696,164.578 100.454,158.962 97.689 C 156.000 96.231,151.358 95.682,148.372 96.436 M96.689 141.051 C 93.890 141.940,90.438 145.373,89.462 148.240 C 87.892 152.848,88.915 157.254,92.343 160.636 C 94.361 162.628,95.515 163.202,109.339 169.081 C 117.497 172.550,125.032 175.549,126.085 175.745 C 127.138 175.942,128.862 175.942,129.915 175.745 C 130.968 175.549,138.503 172.550,146.661 169.081 C 160.496 163.197,161.636 162.630,163.645 160.640 C 169.474 154.866,167.912 145.380,160.513 141.617 C 158.931 140.813,157.831 140.596,155.307 140.592 C 152.153 140.587,151.933 140.662,140.053 145.797 L 128.000 151.007 115.947 145.826 C 102.691 140.128,100.951 139.696,96.689 141.051 M122.453 192.267 C 112.075 193.585,103.708 196.700,95.573 202.274 C 88.039 207.436,85.572 210.799,85.580 215.893 C 85.588 220.891,88.315 225.047,92.924 227.086 C 94.482 227.775,95.490 227.904,98.096 227.749 C 101.855 227.526,102.770 227.108,107.093 223.638 C 113.495 218.499,119.853 216.253,128.000 216.253 C 136.147 216.253,142.505 218.499,148.907 223.638 C 153.650 227.445,154.078 227.623,158.507 227.625 C 161.901 227.626,162.570 227.495,164.267 226.491 C 168.351 224.077,170.424 220.508,170.424 215.893 C 170.424 210.795,167.956 207.434,160.427 202.274 C 150.835 195.701,141.009 192.507,129.493 192.217 C 126.443 192.140,123.275 192.162,122.453 192.267 " stroke="none" fill-rule="evenodd"></path></svg>