<svg fill="currentColor" viewBox="0 0 256 256" xmlns="http://www.w3.org/2000/svg"><path d="M85.412 36.280 C 84.399 36.488,82.863 37.080,81.999 37.596 C 81.134 38.111,74.913 44.012,68.174 50.709 L 55.922 62.886 51.104 58.178 C 45.511 52.713,43.664 51.788,39.076 52.156 C 30.507 52.844,25.632 61.469,29.291 69.465 C 29.713 70.387,33.916 74.946,39.433 80.467 C 50.085 91.126,51.222 91.915,55.890 91.900 C 61.033 91.882,61.049 91.869,80.332 72.621 C 99.778 53.209,99.840 53.131,99.840 48.000 C 99.840 45.599,99.612 44.510,98.745 42.769 C 96.310 37.884,90.759 35.182,85.412 36.280 M123.850 52.755 C 122.859 53.108,121.094 54.255,119.928 55.303 C 114.821 59.894,114.772 67.915,119.822 72.638 C 123.619 76.190,120.088 75.976,172.826 75.847 L 219.520 75.733 221.227 74.809 C 230.049 70.034,230.049 57.957,221.227 53.189 L 219.520 52.267 172.587 52.190 C 131.746 52.123,125.419 52.196,123.850 52.755 M85.412 100.280 C 84.399 100.488,82.863 101.080,81.999 101.596 C 81.134 102.111,74.913 108.012,68.174 114.709 L 55.922 126.886 51.104 122.178 C 45.511 116.713,43.664 115.788,39.076 116.156 C 30.507 116.844,25.632 125.469,29.291 133.465 C 29.713 134.387,33.916 138.946,39.433 144.467 C 50.085 155.126,51.222 155.915,55.890 155.900 C 61.033 155.882,61.049 155.869,80.332 136.621 C 99.778 117.209,99.840 117.131,99.840 112.000 C 99.840 109.599,99.612 108.510,98.745 106.769 C 96.310 101.884,90.759 99.182,85.412 100.280 M123.850 116.755 C 122.859 117.108,121.094 118.255,119.928 119.303 C 114.821 123.894,114.772 131.915,119.822 136.638 C 123.619 140.190,120.088 139.976,172.826 139.847 L 219.520 139.733 221.227 138.809 C 230.049 134.034,230.049 121.957,221.227 117.189 L 219.520 116.267 172.587 116.190 C 131.746 116.123,125.419 116.196,123.850 116.755 M85.412 164.280 C 84.399 164.488,82.863 165.080,81.999 165.596 C 81.134 166.111,74.913 172.012,68.174 178.709 L 55.922 190.886 51.104 186.178 C 45.511 180.713,43.664 179.788,39.076 180.156 C 30.507 180.844,25.632 189.469,29.291 197.465 C 29.713 198.387,33.916 202.946,39.433 208.467 C 50.085 219.126,51.222 219.915,55.890 219.900 C 61.033 219.882,61.049 219.869,80.332 200.621 C 99.778 181.209,99.840 181.131,99.840 176.000 C 99.840 173.599,99.612 172.510,98.745 170.769 C 96.310 165.884,90.759 163.182,85.412 164.280 M123.850 180.755 C 122.859 181.108,121.094 182.255,119.928 183.303 C 114.821 187.894,114.772 195.915,119.822 200.638 C 123.619 204.190,120.088 203.976,172.826 203.847 L 219.520 203.733 221.227 202.809 C 230.049 198.034,230.049 185.957,221.227 181.189 L 219.520 180.267 172.587 180.190 C 131.746 180.123,125.419 180.196,123.850 180.755 " stroke="none" fill-rule="evenodd"></path></svg>