<svg fill="currentColor" viewBox="0 0 256 256" xmlns="http://www.w3.org/2000/svg"><path d="M36.691 52.450 C 31.588 54.012,28.168 58.646,28.168 64.000 C 28.168 68.598,30.579 72.544,34.773 74.811 L 36.480 75.733 128.000 75.733 L 219.520 75.733 221.227 74.809 C 230.049 70.034,230.049 57.957,221.227 53.189 L 219.520 52.267 128.640 52.195 C 78.656 52.155,37.279 52.270,36.691 52.450 M179.413 100.305 C 169.548 101.196,159.467 106.101,152.387 113.455 C 139.404 126.941,136.353 146.798,144.686 163.580 C 151.459 177.222,164.127 185.924,179.928 187.787 C 186.732 188.589,195.283 187.116,202.419 183.910 L 205.371 182.584 215.005 192.145 C 221.098 198.191,225.341 202.061,226.547 202.670 C 227.634 203.219,229.583 203.724,231.076 203.844 C 239.565 204.525,245.834 196.656,243.425 188.341 C 242.719 185.906,242.320 185.438,232.528 175.573 L 222.365 165.333 223.579 162.952 C 225.030 160.108,226.770 154.782,227.391 151.282 C 228.059 147.518,227.941 139.546,227.162 135.769 C 224.293 121.863,215.723 110.624,203.396 104.602 C 199.196 102.549,193.546 100.842,189.802 100.493 C 184.364 99.986,183.183 99.964,179.413 100.305 M36.691 116.447 C 31.577 118.026,28.168 122.647,28.168 128.000 C 28.168 132.598,30.579 136.544,34.773 138.811 C 36.477 139.732,36.532 139.734,71.220 139.850 C 109.862 139.979,108.267 140.087,111.744 137.111 C 114.544 134.714,115.819 131.864,115.819 128.000 C 115.819 123.058,113.708 119.624,109.227 117.274 L 107.307 116.267 72.533 116.192 C 53.408 116.151,37.279 116.265,36.691 116.447 M189.928 124.998 C 206.047 129.980,208.875 151.680,194.606 160.894 C 191.160 163.120,187.761 163.961,183.107 163.742 C 176.410 163.426,172.045 161.144,168.056 155.875 C 165.344 152.293,164.267 148.913,164.267 143.984 C 164.267 137.850,166.362 132.975,170.609 129.228 C 172.812 127.285,176.659 125.197,179.095 124.622 C 182.023 123.932,187.043 124.106,189.928 124.998 M36.691 180.448 C 31.580 182.022,28.168 186.647,28.168 192.000 C 28.168 196.598,30.579 200.544,34.773 202.811 L 36.480 203.733 80.000 203.733 L 123.520 203.733 125.227 202.809 C 134.049 198.034,134.049 185.957,125.227 181.189 L 123.520 180.267 80.640 180.193 C 57.056 180.152,37.279 180.267,36.691 180.448 " stroke="none" fill-rule="evenodd"></path></svg>