<svg fill="currentColor" viewBox="0 0 256 256" xmlns="http://www.w3.org/2000/svg"><path d="M75.839 28.743 C 72.151 30.118,69.141 33.655,68.293 37.610 C 68.044 38.771,67.840 42.481,67.840 45.853 L 67.840 51.984 60.267 52.127 C 53.293 52.259,52.541 52.350,50.773 53.275 C 48.149 54.649,46.631 56.145,45.304 58.667 C 44.381 60.421,44.181 61.369,44.181 64.000 C 44.181 67.860,45.456 70.714,48.246 73.102 C 51.080 75.528,52.932 75.947,60.834 75.947 L 67.756 75.947 67.916 83.307 C 68.054 89.621,68.202 90.940,68.957 92.587 C 70.159 95.206,71.821 97.076,74.178 98.462 C 75.940 99.497,76.586 99.627,80.000 99.627 C 83.414 99.627,84.060 99.497,85.822 98.462 C 88.179 97.076,89.841 95.206,91.043 92.587 C 91.798 90.940,91.946 89.621,92.084 83.307 L 92.244 75.947 99.166 75.947 C 107.068 75.947,108.920 75.528,111.754 73.102 C 114.544 70.714,115.819 67.860,115.819 64.000 C 115.819 59.057,113.706 55.620,109.227 53.275 C 107.460 52.351,106.705 52.259,99.775 52.128 L 92.243 51.985 92.083 44.659 C 91.946 38.379,91.798 37.059,91.043 35.413 C 88.913 30.773,85.631 28.515,80.690 28.293 C 78.611 28.199,76.863 28.361,75.839 28.743 M180.861 29.173 C 179.311 29.720,177.199 30.758,176.168 31.480 C 173.052 33.659,31.812 175.325,30.592 177.493 C 27.328 183.299,27.331 191.339,30.598 197.120 C 31.942 199.498,55.335 223.112,58.134 224.916 C 63.902 228.634,72.403 228.839,78.507 225.408 C 80.900 224.062,223.013 82.194,224.913 79.253 C 228.636 73.491,228.841 64.964,225.402 58.880 C 224.175 56.709,201.342 33.497,198.445 31.476 C 195.366 29.327,191.484 28.178,187.307 28.178 C 184.598 28.178,182.966 28.430,180.861 29.173 M194.988 61.228 L 202.446 68.695 189.439 81.708 C 182.285 88.864,176.241 94.720,176.007 94.720 C 175.449 94.720,161.280 80.564,161.280 80.007 C 161.280 79.582,186.886 53.760,187.309 53.760 C 187.430 53.760,190.885 57.120,194.988 61.228 M151.569 104.422 C 155.502 108.350,158.720 111.758,158.720 111.996 C 158.720 112.234,138.464 132.683,113.707 157.440 L 68.694 202.451 61.122 194.878 L 53.549 187.306 98.560 142.293 C 123.317 117.536,143.762 97.280,143.995 97.280 C 144.227 97.280,147.636 100.494,151.569 104.422 M212.907 116.427 C 209.257 117.628,206.880 119.610,205.169 122.880 C 204.244 124.647,204.152 125.402,204.021 132.332 L 203.879 139.865 196.339 140.014 C 188.909 140.161,188.767 140.182,186.514 141.428 C 182.014 143.917,179.760 147.992,180.156 152.924 C 180.520 157.454,183.017 160.945,187.307 162.921 C 189.448 163.908,190.275 164.018,196.766 164.188 L 203.878 164.374 204.021 171.680 C 204.145 178.036,204.281 179.237,205.064 180.907 C 208.474 188.179,217.746 190.185,223.902 184.983 C 227.191 182.202,228.258 178.413,228.263 169.493 L 228.267 164.267 233.493 164.263 C 242.413 164.258,246.202 163.191,248.983 159.902 C 254.194 153.736,252.258 144.725,244.949 141.128 C 243.189 140.262,242.232 140.147,235.680 140.013 L 228.374 139.864 228.188 132.759 C 228.019 126.275,227.908 125.448,226.921 123.307 C 224.887 118.890,221.379 116.445,216.747 116.214 C 215.221 116.138,213.493 116.234,212.907 116.427 M165.333 172.323 C 163.237 172.875,160.730 174.338,159.277 175.856 C 157.047 178.187,156.180 180.623,156.169 184.589 L 156.160 188.058 152.213 188.243 C 147.500 188.465,145.591 189.295,142.983 192.258 C 139.982 195.667,139.233 199.875,140.856 204.211 C 142.701 209.143,147.278 212.053,153.189 212.053 L 156.160 212.053 156.160 215.177 C 156.160 219.427,157.076 221.888,159.594 224.406 C 164.495 229.308,172.365 229.027,176.978 223.786 C 179.098 221.377,180.053 218.571,180.053 214.749 L 180.053 212.053 182.749 212.053 C 186.571 212.053,189.377 211.098,191.786 208.978 C 194.478 206.608,195.830 203.700,195.836 200.267 C 195.844 195.222,193.690 191.631,189.356 189.465 C 187.109 188.342,186.276 188.160,183.399 188.160 L 180.053 188.160 180.053 185.189 C 180.053 179.734,177.684 175.497,173.481 173.441 C 171.045 172.249,167.472 171.759,165.333 172.323 " stroke="none" fill-rule="evenodd"></path></svg>