<svg fill="currentColor" viewBox="0 0 256 256" xmlns="http://www.w3.org/2000/svg"><path d="M49.556 37.112 C 42.547 39.655,37.492 45.644,36.278 52.842 C 35.937 54.862,35.842 69.640,35.950 104.107 C 36.115 157.341,36.016 155.178,38.821 166.458 C 43.414 184.924,54.141 202.108,68.657 214.257 C 81.550 225.046,96.926 232.123,113.493 234.894 C 119.152 235.840,131.029 236.179,136.919 235.562 C 169.095 232.193,197.022 212.345,210.981 182.925 C 214.873 174.722,217.475 166.201,219.154 156.160 C 219.830 152.114,219.917 147.028,220.051 103.680 C 220.159 68.895,220.065 54.879,219.710 52.770 C 218.641 46.428,214.370 40.847,208.318 37.888 L 205.440 36.480 180.031 36.480 L 154.622 36.480 151.440 38.053 C 146.535 40.477,143.044 44.326,141.062 49.493 C 140.170 51.817,140.160 52.299,139.947 99.627 L 139.733 147.413 138.794 149.170 C 136.393 153.657,132.787 155.909,128.000 155.909 C 123.213 155.909,119.607 153.657,117.206 149.170 L 116.267 147.413 116.053 99.627 L 115.838 51.840 114.905 49.394 C 112.994 44.388,109.430 40.485,104.556 38.060 L 101.379 36.480 76.609 36.382 C 53.020 36.288,51.731 36.323,49.556 37.112 M92.160 72.107 L 92.160 84.053 76.160 84.053 L 60.160 84.053 60.160 72.107 L 60.160 60.160 76.160 60.160 L 92.160 60.160 92.160 72.107 M195.840 72.107 L 195.840 84.053 180.053 84.053 L 164.267 84.053 164.267 72.107 L 164.267 60.160 180.053 60.160 L 195.840 60.160 195.840 72.107 M92.163 128.320 C 92.166 147.196,92.229 148.954,93.017 152.242 C 95.778 163.760,104.359 173.575,115.238 177.659 C 135.574 185.293,157.568 173.598,163.042 152.242 C 163.892 148.928,163.965 147.343,164.153 128.320 L 164.355 107.947 180.125 107.947 L 195.895 107.947 195.721 130.240 C 195.561 150.843,195.480 152.846,194.659 156.651 C 191.102 173.128,182.091 187.650,169.173 197.723 C 152.672 210.591,131.525 215.069,111.458 209.945 C 99.226 206.822,89.352 201.162,80.183 192.016 C 70.303 182.161,64.287 171.138,61.337 157.484 C 60.518 153.695,60.438 151.677,60.279 130.667 L 60.106 107.947 76.133 107.947 L 92.160 107.947 92.163 128.320 " stroke="none" fill-rule="evenodd"></path></svg>