<svg fill="currentColor" viewBox="0 0 256 256" xmlns="http://www.w3.org/2000/svg"><path d="M101.760 20.325 C 89.205 22.201,81.018 24.580,71.893 29.006 C 62.396 33.613,54.582 39.203,46.892 46.893 C 32.418 61.365,23.568 79.019,20.647 99.245 C 19.673 105.987,19.678 118.376,20.657 124.800 C 25.735 158.115,47.447 185.527,78.401 197.704 C 94.368 203.985,113.290 205.629,130.133 202.200 C 142.299 199.723,152.730 195.346,163.344 188.264 L 168.181 185.037 192.787 209.640 C 214.889 231.740,217.621 234.330,219.634 235.095 C 227.989 238.269,236.557 231.856,235.843 222.962 C 235.727 221.517,235.301 219.671,234.895 218.861 C 234.490 218.050,223.098 206.308,209.580 192.767 L 185.003 168.146 187.586 164.393 C 198.407 148.676,203.915 131.071,203.938 112.129 C 203.982 77.112,184.800 45.791,153.556 29.862 C 145.205 25.604,137.092 22.887,127.360 21.089 C 123.639 20.401,104.978 19.845,101.760 20.325 M118.543 44.381 C 134.719 46.085,148.674 52.694,159.990 64.010 C 180.860 84.879,185.878 116.270,172.574 142.720 C 169.348 149.134,165.326 154.655,159.990 159.990 C 150.182 169.798,138.338 176.088,124.472 178.853 C 118.213 180.101,106.394 180.203,100.480 179.060 C 81.447 175.382,65.891 165.178,55.378 149.476 C 41.890 129.330,40.380 103.266,51.428 81.280 C 61.675 60.889,82.075 46.834,104.960 44.400 C 109.585 43.909,113.998 43.902,118.543 44.381 M106.880 69.285 C 104.245 70.533,102.319 72.517,101.035 75.307 C 100.101 77.337,100.047 77.992,99.921 88.853 L 99.789 100.267 88.401 100.271 C 77.313 100.275,76.957 100.302,74.880 101.285 C 65.641 105.661,65.896 118.638,75.307 122.966 C 77.332 123.897,78.007 123.953,88.614 124.079 L 99.789 124.211 99.921 135.386 C 100.047 145.999,100.103 146.669,101.040 148.739 C 105.346 158.253,118.654 158.253,122.960 148.739 C 123.897 146.669,123.953 145.999,124.079 135.386 L 124.211 124.211 135.386 124.079 C 145.999 123.953,146.669 123.897,148.739 122.960 C 158.088 118.728,158.318 105.641,149.120 101.285 C 147.043 100.302,146.687 100.275,135.599 100.271 L 124.211 100.267 124.079 88.853 C 123.953 77.992,123.899 77.337,122.965 75.307 C 120.846 70.703,117.060 68.275,112.000 68.275 C 109.744 68.275,108.492 68.522,106.880 69.285 " stroke="none" fill-rule="evenodd"></path></svg>