<svg fill="currentColor" viewBox="0 0 256 256" xmlns="http://www.w3.org/2000/svg"><path d="M120.034 12.382 C 107.678 13.582,97.354 16.558,86.541 22.036 C 57.598 36.700,38.883 64.820,36.225 97.636 C 34.933 113.585,38.360 132.829,45.650 150.563 C 52.737 167.805,63.617 185.058,78.102 202.027 C 89.804 215.736,114.696 238.445,122.667 242.684 C 125.583 244.235,130.285 244.304,133.064 242.835 C 138.332 240.053,153.669 227.014,164.706 215.936 C 188.295 192.257,204.671 167.554,213.108 142.921 C 223.082 113.804,222.139 86.980,210.307 63.187 C 198.355 39.154,176.297 21.303,150.671 14.928 C 141.072 12.539,128.861 11.525,120.034 12.382 M142.933 37.680 C 164.957 42.943,181.869 57.217,190.846 78.118 C 194.074 85.634,195.833 94.824,195.837 104.191 C 195.849 130.161,184.013 157.242,160.261 185.595 C 153.765 193.350,138.491 208.305,130.027 215.199 L 128.000 216.849 125.973 215.216 C 118.080 208.856,102.169 193.267,95.739 185.594 C 71.981 157.243,60.151 130.175,60.163 104.191 C 60.168 91.961,62.809 81.588,68.597 71.069 C 77.978 54.022,94.858 41.507,113.758 37.589 C 119.873 36.322,119.723 36.332,129.493 36.477 C 137.293 36.592,139.033 36.748,142.933 37.680 M119.734 60.823 C 102.902 64.167,89.826 76.486,85.337 93.227 C 84.153 97.643,83.736 105.841,84.463 110.383 C 87.310 128.149,99.819 141.992,117.246 146.662 C 120.863 147.631,122.223 147.771,128.000 147.771 C 133.777 147.771,135.137 147.631,138.754 146.662 C 156.181 141.992,168.690 128.149,171.537 110.383 C 172.719 103.002,171.321 92.993,168.120 85.935 C 163.633 76.039,154.077 66.985,144.004 63.087 C 136.792 60.296,126.987 59.382,119.734 60.823 M132.892 84.707 C 140.638 86.725,146.402 93.082,147.680 101.015 C 149.773 114.005,137.883 125.904,124.984 123.728 C 114.097 121.892,106.447 111.306,108.342 100.701 C 110.399 89.194,121.743 81.803,132.892 84.707 " stroke="none" fill-rule="evenodd"></path></svg>