<svg fill="currentColor" viewBox="0 0 256 256" xmlns="http://www.w3.org/2000/svg"><path d="M42.621 28.778 C 35.877 30.638,30.050 36.763,28.597 43.520 C 28.223 45.260,28.136 55.517,28.261 83.200 C 28.443 123.532,28.433 123.335,30.965 137.813 C 38.908 183.244,63.091 220.626,94.458 235.960 C 100.883 239.101,108.306 241.589,114.987 242.840 C 122.277 244.205,133.723 244.205,141.013 242.840 C 158.057 239.648,174.340 230.479,187.601 216.603 C 192.957 211.000,196.512 206.518,201.192 199.467 C 214.800 178.964,223.472 154.083,226.770 126.080 C 227.862 116.807,228.336 97.961,228.159 70.827 C 228.017 49.005,227.888 44.674,227.325 42.816 C 224.627 33.908,217.056 28.170,208.000 28.170 C 204.527 28.170,203.277 28.495,193.375 31.965 C 176.869 37.749,159.559 41.541,142.507 43.109 C 136.191 43.689,119.811 43.689,113.493 43.109 C 97.121 41.605,80.476 38.020,64.445 32.546 C 59.389 30.820,54.293 29.129,53.120 28.789 C 50.542 28.041,45.313 28.036,42.621 28.778 M67.200 58.642 C 80.599 62.532,95.288 65.407,109.013 66.826 C 117.858 67.741,136.698 67.857,144.853 67.047 C 162.638 65.281,179.635 61.742,196.373 56.319 L 203.947 53.866 203.945 81.866 C 203.943 109.583,203.685 117.197,202.426 126.720 C 198.956 152.964,189.766 176.040,175.729 193.756 C 171.504 199.087,163.440 206.678,158.489 209.984 C 148.103 216.918,138.991 219.873,128.000 219.873 C 112.525 219.873,98.902 213.426,85.683 199.846 C 69.112 182.822,57.493 156.361,53.574 126.720 C 52.314 117.196,52.057 109.582,52.055 81.842 L 52.053 53.816 56.427 55.300 C 58.832 56.117,63.680 57.621,67.200 58.642 M72.194 108.729 C 63.619 111.789,61.256 122.440,67.794 128.556 C 70.262 130.864,76.515 134.005,81.280 135.329 C 84.172 136.134,85.800 136.282,91.947 136.299 C 98.250 136.317,99.647 136.193,102.613 135.349 C 107.772 133.880,115.294 130.018,117.098 127.911 C 121.221 123.094,120.836 115.617,116.247 111.388 C 113.705 109.044,111.717 108.264,108.145 108.207 C 105.431 108.165,104.798 108.331,101.532 109.948 C 94.416 113.471,90.185 113.555,83.337 110.311 C 78.281 107.916,75.556 107.529,72.194 108.729 M145.280 108.323 C 141.847 109.228,138.763 111.706,137.113 114.886 C 136.718 115.645,136.305 117.661,136.195 119.364 C 136.011 122.194,136.111 122.700,137.344 125.205 C 138.932 128.431,141.010 130.141,146.428 132.680 C 152.958 135.740,155.798 136.323,164.053 136.299 C 172.631 136.275,175.583 135.631,182.400 132.300 C 188.907 129.121,191.487 126.031,191.897 120.924 C 192.293 115.986,190.027 111.894,185.540 109.445 C 183.638 108.408,182.745 108.194,180.230 108.179 C 177.459 108.162,176.834 108.339,172.763 110.293 C 168.344 112.415,168.296 112.427,164.053 112.427 C 159.842 112.427,159.730 112.400,155.431 110.371 C 150.917 108.240,147.900 107.632,145.280 108.323 M118.689 164.910 C 111.150 166.276,101.531 170.593,98.595 173.929 C 94.332 178.771,94.576 185.512,99.182 190.118 C 103.471 194.407,108.030 194.800,114.797 191.465 C 119.696 189.051,123.217 188.173,128.000 188.173 C 132.757 188.173,136.225 189.032,141.033 191.403 C 145.422 193.567,147.902 193.911,151.612 192.872 C 156.092 191.618,160.000 186.341,160.000 181.547 C 160.000 178.878,158.532 175.283,156.653 173.346 C 153.537 170.135,144.320 166.165,137.030 164.894 C 132.617 164.124,122.979 164.133,118.689 164.910 " stroke="none" fill-rule="evenodd"></path></svg>