<svg fill="currentColor" viewBox="0 0 256 256" xmlns="http://www.w3.org/2000/svg"><path d="M120.459 4.275 C 112.426 4.931,102.214 7.266,94.987 10.099 C 63.586 22.407,42.265 49.222,36.863 83.200 C 36.368 86.314,36.154 90.281,36.159 96.213 C 36.169 106.119,37.215 113.403,39.898 122.237 C 44.489 137.350,51.340 148.886,62.600 160.461 L 67.822 165.829 67.938 204.194 L 68.053 242.560 69.035 244.693 C 70.320 247.485,72.247 249.469,74.877 250.708 C 77.942 252.153,80.116 252.373,83.006 251.533 C 84.353 251.141,95.012 246.042,106.692 240.200 L 127.930 229.580 149.879 240.411 C 161.951 246.368,172.658 251.465,173.671 251.738 C 175.946 252.351,178.339 252.020,181.123 250.708 C 183.753 249.469,185.680 247.485,186.965 244.693 L 187.947 242.560 188.062 204.173 L 188.178 165.785 193.001 160.866 C 201.132 152.573,205.933 145.869,210.580 136.320 C 225.884 104.872,222.289 68.087,201.194 40.290 C 188.916 24.112,170.788 12.039,151.258 7.034 C 141.654 4.572,129.806 3.511,120.459 4.275 M141.721 29.406 C 168.543 35.193,188.763 55.473,194.652 82.497 C 195.462 86.214,195.595 88.124,195.595 96.000 C 195.595 103.876,195.462 105.786,194.652 109.503 C 189.436 133.435,172.917 152.312,150.333 160.147 C 141.941 163.058,138.292 163.627,128.000 163.627 C 119.964 163.627,118.280 163.504,114.413 162.638 C 87.174 156.539,67.251 136.589,61.348 109.503 C 60.538 105.786,60.405 103.876,60.405 96.000 C 60.405 86.081,60.932 82.341,63.386 74.836 C 64.820 70.449,68.934 62.041,71.544 58.162 C 81.418 43.484,97.173 32.906,114.284 29.464 C 120.290 28.256,120.634 28.231,129.493 28.380 C 135.703 28.485,138.564 28.725,141.721 29.406 M121.642 44.424 C 108.837 45.908,95.803 53.133,87.707 63.234 C 67.603 88.317,74.210 124.641,101.824 140.846 C 106.294 143.469,110.771 145.257,116.350 146.648 C 120.442 147.668,121.751 147.795,128.000 147.782 C 135.491 147.766,138.348 147.329,144.571 145.251 C 167.298 137.658,182.156 114.819,179.733 91.200 C 176.715 61.782,150.939 41.026,121.642 44.424 M134.613 68.886 C 144.653 71.267,152.733 79.347,155.114 89.387 C 155.893 92.672,155.893 99.328,155.114 102.613 C 152.775 112.478,144.895 120.450,134.827 123.137 C 131.167 124.113,124.833 124.113,121.173 123.137 C 111.105 120.450,103.225 112.478,100.886 102.613 C 100.107 99.328,100.107 92.672,100.886 89.387 C 103.242 79.453,111.282 71.339,121.173 68.913 C 124.299 68.147,131.433 68.132,134.613 68.886 M97.729 182.812 C 107.884 186.351,116.918 187.857,128.000 187.857 C 140.398 187.857,150.772 185.860,163.093 181.104 C 163.798 180.832,163.840 181.937,163.840 200.695 L 163.840 220.575 147.386 212.367 L 130.932 204.160 127.866 204.192 L 124.800 204.225 108.480 212.407 L 92.160 220.589 92.160 200.702 C 92.160 181.937,92.202 180.832,92.907 181.104 C 93.317 181.262,95.487 182.031,97.729 182.812 " stroke="none" fill-rule="evenodd"></path></svg>