<svg fill="currentColor" viewBox="0 0 256 256" xmlns="http://www.w3.org/2000/svg"><path d="M34.032 28.989 C 27.563 31.056,22.010 37.042,20.506 43.568 C 20.224 44.791,20.071 71.321,20.064 120.136 C 20.052 201.748,19.898 196.444,22.430 201.444 C 25.758 208.017,34.185 212.630,41.553 211.911 C 43.157 211.755,59.412 206.974,83.809 199.482 C 105.616 192.786,123.616 187.307,123.809 187.307 C 124.002 187.307,124.160 189.114,124.160 191.322 C 124.160 194.064,124.416 196.161,124.968 197.935 C 127.028 204.552,132.433 209.605,139.389 211.417 C 142.973 212.350,177.027 212.350,180.611 211.417 C 187.570 209.604,192.861 204.656,195.104 197.866 C 195.903 195.445,196.007 193.808,196.232 180.069 L 196.480 164.938 210.351 160.649 C 217.980 158.291,225.104 155.844,226.180 155.213 C 228.668 153.756,232.567 149.561,233.798 147.019 C 235.871 142.735,235.936 141.912,235.942 119.832 C 235.946 100.325,235.896 98.912,235.100 96.334 C 233.375 90.751,228.837 85.656,223.801 83.648 C 221.938 82.905,56.380 32.038,46.624 29.211 C 42.192 27.926,37.607 27.846,34.032 28.989 M84.516 65.871 L 123.947 77.982 124.055 119.966 L 124.164 161.950 84.802 174.053 C 63.153 180.710,45.104 186.245,44.693 186.355 C 43.985 186.543,43.947 183.182,43.947 120.156 C 43.947 65.078,44.044 53.760,44.516 53.760 C 44.829 53.760,62.829 59.210,84.516 65.871 M179.200 94.929 C 195.744 99.997,209.904 104.343,210.667 104.585 L 212.053 105.026 212.048 120.033 L 212.043 135.040 180.677 144.640 C 163.425 149.920,149.028 154.302,148.682 154.378 C 148.132 154.499,148.053 150.172,148.053 119.938 C 148.053 92.466,148.163 85.396,148.587 85.537 C 148.880 85.634,162.656 89.860,179.200 94.929 M171.947 180.267 L 171.947 188.160 160.000 188.160 L 148.053 188.160 148.053 183.959 L 148.053 179.759 159.893 176.101 C 166.405 174.089,171.781 172.427,171.840 172.408 C 171.899 172.389,171.947 175.925,171.947 180.267 " stroke="none" fill-rule="evenodd"></path></svg>