<svg fill="currentColor" viewBox="0 0 256 256" xmlns="http://www.w3.org/2000/svg"><path d="M101.810 28.635 C 97.326 29.687,91.743 34.033,89.512 38.207 C 88.879 39.391,76.613 77.215,62.255 122.260 L 36.148 204.160 36.161 208.000 C 36.191 216.988,41.202 223.901,49.993 227.077 L 52.693 228.053 128.000 228.053 L 203.307 228.053 206.057 227.061 C 211.337 225.155,215.613 221.496,217.812 217.002 C 219.333 213.892,220.269 209.034,219.910 206.112 C 219.750 204.804,213.421 184.245,205.847 160.427 C 198.272 136.608,192.010 116.805,191.931 116.421 C 191.841 115.986,196.701 110.310,204.800 101.391 C 213.394 91.926,218.137 86.368,218.768 85.023 C 220.705 80.889,219.765 75.239,216.599 71.987 C 213.889 69.205,212.068 68.480,207.787 68.480 C 202.552 68.480,201.791 69.028,191.744 80.031 C 187.134 85.080,183.307 89.154,183.241 89.085 C 183.175 89.016,179.632 78.016,175.367 64.640 C 171.102 51.264,167.100 39.368,166.473 38.204 C 164.988 35.447,161.612 32.100,158.766 30.563 C 154.350 28.178,154.197 28.167,127.787 28.208 C 114.411 28.229,102.721 28.421,101.810 28.635 M155.280 80.747 C 160.286 96.528,164.404 109.562,164.431 109.711 C 164.458 109.860,155.072 120.362,143.573 133.049 L 122.667 156.115 99.688 156.137 C 81.485 156.155,76.746 156.049,76.888 155.627 C 76.987 155.333,84.435 131.909,93.439 103.573 L 109.809 52.053 127.994 52.053 L 146.179 52.053 155.280 80.747 M176.169 146.310 C 177.837 151.570,179.135 155.941,179.052 156.023 C 178.969 156.106,173.564 156.123,167.040 156.060 L 155.179 155.947 164.038 146.217 C 168.910 140.866,172.950 136.546,173.016 136.617 C 173.082 136.688,174.501 141.050,176.169 146.310 M190.697 192.000 L 194.427 203.733 161.214 203.843 C 142.946 203.903,113.048 203.903,94.774 203.843 L 61.548 203.733 65.132 192.427 C 67.103 186.208,68.801 180.879,68.905 180.585 C 69.056 180.159,81.100 180.072,128.030 180.158 L 186.967 180.267 190.697 192.000 " stroke="none" fill-rule="evenodd"></path></svg>