<svg fill="currentColor" viewBox="0 0 256 256" xmlns="http://www.w3.org/2000/svg"><path d="M160.375 12.417 C 155.460 12.893,147.861 14.571,143.147 16.222 C 120.412 24.187,102.960 42.074,95.646 64.908 C 93.001 73.165,92.493 76.562,92.335 87.040 L 92.191 96.640 57.722 143.655 C 38.764 169.513,22.732 191.689,22.094 192.935 C 18.944 199.090,19.470 206.830,23.440 212.757 C 25.525 215.871,40.848 231.099,43.733 232.925 C 48.881 236.184,56.181 236.862,61.716 234.595 C 63.623 233.814,77.325 223.999,111.902 198.642 L 159.464 163.764 166.665 163.817 C 171.049 163.850,175.620 163.623,178.347 163.236 C 211.658 158.515,237.817 132.686,242.984 99.413 C 244.803 87.700,243.752 75.416,239.955 64.000 C 228.796 30.457,195.699 9.003,160.375 12.417 M180.267 37.519 C 198.102 42.238,211.858 54.998,217.394 71.957 C 219.035 76.986,219.733 81.832,219.733 88.202 C 219.733 97.032,217.988 104.350,214.072 111.932 L 212.345 115.277 176.596 79.529 L 140.846 43.781 142.210 42.942 C 146.331 40.406,152.939 37.994,158.820 36.880 C 163.568 35.980,175.831 36.346,180.267 37.519 M159.556 96.623 C 179.140 116.208,195.069 132.326,194.955 132.441 C 194.840 132.556,193.216 133.415,191.346 134.351 C 174.487 142.788,154.463 141.502,138.872 130.981 C 117.473 116.541,110.034 88.244,121.517 64.960 C 122.587 62.789,123.572 61.013,123.706 61.013 C 123.839 61.013,139.972 77.038,159.556 96.623 M102.990 127.204 C 105.076 130.918,110.333 137.571,114.381 141.619 C 118.429 145.667,125.082 150.924,128.796 153.010 C 130.000 153.687,130.930 154.409,130.861 154.615 C 130.793 154.822,113.657 167.526,92.782 182.848 L 54.827 210.706 50.039 205.959 C 45.914 201.869,45.329 201.121,45.811 200.553 C 46.118 200.190,58.711 183.045,73.794 162.453 C 88.877 141.861,101.340 125.014,101.489 125.014 C 101.638 125.014,102.313 126.000,102.990 127.204 " stroke="none" fill-rule="evenodd"></path></svg>