<svg fill="currentColor" viewBox="0 0 256 256" xmlns="http://www.w3.org/2000/svg"><path d="M121.642 12.424 C 114.349 13.269,105.181 16.700,99.002 20.896 C 86.268 29.544,78.111 42.984,76.338 58.240 C 76.050 60.720,75.951 73.640,76.059 94.720 C 76.207 123.536,76.311 127.710,76.948 130.347 C 79.622 141.411,83.935 149.259,91.498 156.821 C 111.693 177.013,144.307 177.013,164.502 156.821 C 172.066 149.258,176.390 141.388,179.049 130.347 C 179.683 127.715,179.789 123.476,179.939 94.720 C 180.050 73.563,179.953 60.729,179.663 58.240 C 176.309 29.451,150.507 9.076,121.642 12.424 M134.613 36.886 C 143.070 38.891,150.357 45.085,153.721 53.130 C 155.945 58.448,155.947 58.481,155.947 92.373 L 155.947 123.947 154.963 127.360 C 152.013 137.591,143.738 145.296,133.458 147.385 C 129.309 148.228,126.691 148.228,122.542 147.385 C 112.338 145.312,103.871 137.476,101.146 127.582 C 100.294 124.489,100.267 123.400,100.273 92.169 C 100.278 65.807,100.390 59.481,100.886 57.387 C 103.242 47.453,111.282 39.339,121.173 36.913 C 124.299 36.147,131.433 36.132,134.613 36.886 M45.013 108.405 C 42.593 108.998,39.608 111.160,38.045 113.451 C 36.025 116.413,35.639 119.133,36.223 126.299 C 38.060 148.864,46.774 168.188,62.261 184.043 C 76.014 198.122,92.155 206.825,111.142 210.400 L 116.053 211.325 116.053 222.706 C 116.053 235.475,116.251 236.662,118.898 239.754 C 121.286 242.544,124.140 243.819,128.000 243.819 C 131.860 243.819,134.714 242.544,137.102 239.754 C 139.749 236.662,139.947 235.475,139.947 222.706 L 139.947 211.325 144.858 210.400 C 163.845 206.825,179.986 198.122,193.739 184.043 C 209.007 168.413,217.830 148.972,219.748 126.730 C 220.482 118.226,219.764 114.946,216.444 111.626 C 214.040 109.222,211.500 108.188,208.000 108.188 C 204.492 108.188,201.960 109.223,199.538 111.644 C 196.814 114.368,196.219 116.190,195.814 123.050 C 195.055 135.923,191.563 146.873,184.983 157.013 C 169.841 180.351,141.549 192.215,114.386 186.619 C 87.826 181.147,66.824 160.111,61.445 133.593 C 60.951 131.155,60.386 126.450,60.191 123.138 C 59.791 116.354,59.124 114.306,56.444 111.626 C 53.555 108.738,48.949 107.440,45.013 108.405 " stroke="none" fill-rule="evenodd"></path></svg>