<svg fill="currentColor" viewBox="0 0 256 256" xmlns="http://www.w3.org/2000/svg"><path d="M42.621 28.778 C 37.215 30.269,32.466 34.310,29.967 39.543 L 28.373 42.880 28.373 128.000 L 28.373 213.120 29.958 216.440 C 33.070 222.956,38.805 227.007,46.107 227.846 C 50.959 228.404,205.041 228.404,209.893 227.846 C 219.655 226.724,226.724 219.655,227.846 209.893 C 228.404 205.041,228.404 50.959,227.846 46.107 C 226.875 37.658,221.143 30.874,213.184 28.755 C 210.056 27.922,45.644 27.945,42.621 28.778 M203.947 128.000 L 203.947 203.947 128.000 203.947 L 52.053 203.947 52.053 128.000 L 52.053 52.053 128.000 52.053 L 203.947 52.053 203.947 128.000 M84.907 116.448 C 81.355 117.546,78.875 119.610,77.177 122.880 C 76.391 124.394,76.180 125.477,76.181 128.000 C 76.182 131.860,77.457 134.715,80.246 137.102 C 83.740 140.093,81.282 139.947,128.000 139.947 C 174.718 139.947,172.260 140.093,175.754 137.102 C 178.543 134.715,179.818 131.860,179.819 128.000 C 179.821 123.121,177.759 119.695,173.440 117.400 L 171.307 116.267 128.640 116.193 C 105.173 116.152,85.493 116.267,84.907 116.448 " stroke="none" fill-rule="evenodd"></path></svg>