<svg fill="currentColor" viewBox="0 0 256 256" xmlns="http://www.w3.org/2000/svg"><path d="M40.960 36.947 C 30.962 39.626,23.470 47.249,20.909 57.348 C 20.073 60.647,20.053 62.072,20.053 120.107 C 20.053 177.812,20.077 179.583,20.895 182.780 C 22.197 187.871,24.414 191.688,28.363 195.637 C 32.312 199.586,36.129 201.803,41.220 203.105 C 44.439 203.929,46.302 203.947,128.000 203.947 C 209.698 203.947,211.561 203.929,214.780 203.105 C 222.419 201.152,229.413 195.579,232.849 188.709 C 236.169 182.071,235.987 186.293,235.853 118.827 L 235.733 58.667 234.565 55.220 C 231.806 47.084,225.725 40.886,217.276 37.599 L 214.400 36.480 128.853 36.399 C 54.646 36.328,42.996 36.401,40.960 36.947 M210.643 61.190 L 211.840 62.219 211.953 119.323 C 212.036 161.751,211.939 176.733,211.573 177.620 C 210.500 180.219,216.178 180.053,128.000 180.053 C 39.822 180.053,45.500 180.219,44.427 177.620 C 44.061 176.733,43.964 161.751,44.047 119.323 L 44.160 62.219 45.357 61.190 L 46.554 60.160 128.000 60.160 L 209.446 60.160 210.643 61.190 M111.980 80.779 C 108.455 82.137,105.760 84.875,104.601 88.277 C 104.245 89.322,104.107 98.146,104.107 119.881 C 104.107 154.430,103.926 152.622,107.753 156.448 C 109.472 158.167,110.523 158.825,112.445 159.384 C 115.471 160.263,118.621 160.022,121.183 158.715 C 123.477 157.545,162.262 130.474,164.212 128.682 C 167.101 126.027,168.597 121.155,167.687 117.362 C 166.602 112.839,166.320 112.597,143.576 96.665 C 131.977 88.541,121.664 81.520,120.657 81.063 C 118.566 80.114,114.087 79.968,111.980 80.779 M92.929 216.484 C 87.107 218.070,83.621 223.102,84.168 229.132 C 84.629 234.218,88.114 238.224,93.241 239.559 C 96.943 240.523,158.991 240.541,162.685 239.578 C 165.719 238.788,168.120 237.229,169.608 235.082 C 173.959 228.803,172.037 220.814,165.352 217.394 L 162.835 216.107 128.884 216.023 C 102.426 215.957,94.491 216.059,92.929 216.484 " stroke="none" fill-rule="evenodd"></path></svg>