<svg fill="currentColor" viewBox="0 0 256 256" xmlns="http://www.w3.org/2000/svg"><path d="M100.907 17.863 C 84.427 23.643,70.776 32.389,58.447 45.069 C 41.950 62.035,31.924 82.931,28.810 106.839 C 28.033 112.804,27.924 125.456,28.595 131.627 C 32.165 164.414,50.907 194.153,79.147 211.840 C 90.505 218.953,105.768 224.594,119.680 226.819 C 125.405 227.735,141.108 228.089,147.289 227.442 C 170.997 224.959,193.258 214.590,210.443 198.025 C 223.529 185.411,232.334 171.707,238.103 154.974 C 240.298 148.609,240.352 146.233,238.388 142.437 C 237.296 140.327,236.458 139.368,234.572 138.071 C 231.252 135.787,227.815 135.534,221.653 137.121 C 214.664 138.920,210.089 139.579,202.874 139.826 C 180.145 140.604,158.797 132.522,142.351 116.912 C 124.549 100.016,115.148 76.854,116.198 52.480 C 116.510 45.239,116.852 42.929,118.868 34.422 C 120.223 28.709,120.322 27.879,119.898 25.835 C 119.026 21.637,116.118 18.231,112.237 16.862 C 109.135 15.767,106.125 16.033,100.907 17.863 M92.160 55.910 C 92.160 63.977,92.617 69.246,93.899 75.947 C 102.281 119.778,136.222 153.719,180.053 162.101 C 186.754 163.383,192.023 163.840,200.090 163.840 C 204.088 163.840,207.360 163.947,207.360 164.077 C 207.360 164.475,203.924 169.429,201.457 172.587 C 198.238 176.707,191.089 183.666,186.659 186.990 C 176.102 194.914,163.919 200.264,150.837 202.721 C 144.108 203.985,132.035 204.275,125.305 203.334 C 81.851 197.260,50.703 160.628,52.180 117.333 C 52.634 104.013,54.996 94.733,61.030 82.560 C 67.429 69.651,76.378 59.224,88.024 51.111 C 89.947 49.771,91.664 48.667,91.840 48.657 C 92.016 48.648,92.160 51.912,92.160 55.910 " stroke="none" fill-rule="evenodd"></path></svg>