<svg fill="currentColor" viewBox="0 0 256 256" xmlns="http://www.w3.org/2000/svg"><path d="M138.752 41.411 C 134.342 43.615,132.110 47.192,132.110 52.053 C 132.110 56.689,134.490 60.529,138.785 62.824 C 140.526 63.755,141.028 63.791,153.813 63.916 L 167.040 64.044 168.772 69.939 L 170.504 75.834 156.185 76.074 C 141.097 76.328,136.718 76.744,128.622 78.695 C 121.392 80.437,114.329 83.508,109.128 87.171 C 104.002 90.780,103.095 91.279,100.787 91.758 C 97.367 92.468,95.810 91.947,78.507 84.294 C 54.613 73.727,26.901 61.822,24.175 60.954 C 20.424 59.759,17.711 59.906,14.569 61.476 C 9.205 64.156,6.789 70.222,8.770 76.034 C 9.599 78.469,11.957 81.264,14.106 82.360 C 15.009 82.821,25.309 87.308,36.994 92.332 C 48.679 97.356,64.564 104.277,72.293 107.711 C 89.004 115.137,91.189 115.810,98.560 115.810 C 107.309 115.810,113.221 113.779,121.297 107.998 C 127.690 103.423,135.398 100.938,144.851 100.404 L 149.120 100.163 146.729 102.668 C 143.578 105.971,140.138 110.353,137.396 114.560 C 132.258 122.443,127.180 135.033,125.577 143.862 L 124.816 148.053 109.611 148.053 L 94.406 148.053 93.703 145.549 C 92.726 142.066,89.248 135.140,86.852 131.904 C 79.960 122.597,70.817 116.447,59.418 113.452 C 54.691 112.210,45.046 111.889,39.820 112.800 C 15.998 116.952,-0.911 137.976,0.144 162.133 C 1.264 187.772,22.213 207.914,47.787 207.941 C 53.509 207.947,57.618 207.309,62.873 205.599 C 76.215 201.255,87.618 190.579,92.418 177.939 C 93.268 175.699,94.130 173.435,94.333 172.907 L 94.702 171.947 116.395 171.947 C 140.704 171.947,140.478 171.971,143.925 168.937 C 146.880 166.335,147.680 164.176,148.102 157.653 C 149.425 137.201,158.991 120.475,175.521 109.709 C 177.370 108.505,179.120 107.520,179.410 107.520 C 179.860 107.520,183.040 117.156,183.040 118.520 C 183.040 118.765,181.744 119.884,180.160 121.008 C 166.447 130.735,158.518 148.210,160.348 164.670 C 162.125 180.645,171.103 194.293,184.919 202.019 C 196.620 208.563,212.126 209.738,224.640 205.029 C 241.137 198.821,253.073 184.104,255.594 166.861 C 256.299 162.042,255.901 153.087,254.796 148.894 C 252.576 140.466,248.801 133.423,243.416 127.661 C 234.701 118.334,223.411 112.938,211.213 112.269 L 206.319 112.000 204.718 106.667 C 203.838 103.733,203.112 101.110,203.106 100.836 C 203.098 100.522,204.306 100.244,206.400 100.080 C 213.152 99.549,216.520 97.653,218.729 93.138 C 221.677 87.111,219.084 79.905,212.945 77.066 C 211.224 76.270,210.054 76.143,203.294 76.021 L 195.600 75.881 191.814 63.007 C 189.732 55.927,187.678 49.173,187.249 48.000 C 186.119 44.904,184.151 42.752,181.151 41.333 L 178.560 40.107 159.961 40.107 L 141.363 40.107 138.752 41.411 M53.720 136.764 C 58.761 137.952,64.317 141.725,67.518 146.133 L 68.757 147.840 56.672 148.053 C 45.252 148.255,44.490 148.318,42.830 149.206 C 38.343 151.607,36.091 155.213,36.091 160.000 C 36.091 164.787,38.343 168.393,42.830 170.794 C 44.490 171.682,45.252 171.745,56.672 171.947 L 68.757 172.160 67.508 173.867 C 65.481 176.637,61.761 179.879,59.021 181.262 C 47.812 186.921,34.579 183.312,27.723 172.726 C 22.879 165.248,22.906 154.720,27.789 147.165 C 31.070 142.089,36.523 138.130,42.089 136.783 C 45.410 135.978,50.355 135.970,53.720 136.764 M218.320 138.478 C 224.521 141.461,229.738 147.889,231.262 154.425 C 233.097 162.293,230.703 170.770,224.971 176.708 C 217.719 184.219,206.508 186.072,197.086 181.316 C 194.066 179.791,189.770 175.882,187.884 172.940 C 183.005 165.329,183.005 154.672,187.884 147.060 C 190.244 143.379,190.556 143.303,191.397 146.206 C 197.198 166.219,197.786 167.615,201.380 169.899 C 203.923 171.514,206.214 172.087,209.098 171.828 C 215.264 171.275,219.880 166.330,219.891 160.266 C 219.895 157.771,219.535 156.409,213.926 137.707 C 213.583 136.562,214.771 136.771,218.320 138.478 " stroke="none" fill-rule="evenodd"></path></svg>