<svg fill="currentColor" viewBox="0 0 256 256" xmlns="http://www.w3.org/2000/svg"><path d="M124.584 28.533 C 121.564 29.523,118.623 32.046,117.060 34.987 C 116.301 36.415,116.262 38.717,116.153 88.213 C 116.091 116.667,115.945 139.947,115.829 139.947 C 115.713 139.947,114.036 139.093,112.103 138.050 C 104.911 134.171,96.938 132.267,87.893 132.267 C 79.235 132.267,72.445 133.816,65.067 137.477 C 50.216 144.844,40.074 158.275,36.841 174.856 C 35.890 179.733,35.898 188.411,36.857 193.397 C 38.892 203.966,44.003 213.533,51.632 221.055 C 69.285 238.460,96.837 240.905,117.464 226.898 C 121.126 224.411,126.818 218.859,129.840 214.827 C 134.521 208.580,138.413 199.126,139.489 191.388 C 139.799 189.163,139.947 166.759,139.947 122.163 L 139.947 56.227 141.120 56.521 C 141.765 56.682,156.650 61.119,174.196 66.380 C 194.077 72.342,206.779 75.946,207.903 75.944 C 215.478 75.934,221.251 68.963,219.734 61.658 C 219.104 58.622,217.039 55.589,214.566 54.068 C 213.190 53.221,200.427 49.196,172.112 40.680 C 130.479 28.157,127.810 27.475,124.584 28.533 M94.887 157.001 C 99.823 158.264,103.797 160.541,107.561 164.262 C 113.228 169.866,115.796 175.995,115.787 183.893 C 115.780 190.684,114.358 195.018,110.224 200.849 C 106.966 205.444,101.555 209.151,95.336 211.048 C 91.470 212.228,84.360 212.129,80.213 210.838 C 75.159 209.265,72.229 207.494,68.469 203.739 C 62.879 198.156,60.160 191.662,60.160 183.893 C 60.160 171.034,68.944 159.843,81.412 156.820 C 85.078 155.931,91.014 156.011,94.887 157.001 " stroke="none" fill-rule="evenodd"></path></svg>