<svg fill="currentColor" viewBox="0 0 256 256" xmlns="http://www.w3.org/2000/svg"><path d="M34.347 36.863 C 27.753 38.961,22.843 43.864,20.896 50.295 C 20.050 53.086,20.041 54.111,20.153 136.320 L 20.267 219.520 21.191 221.246 C 22.446 223.591,25.445 226.267,27.843 227.183 C 29.273 227.729,30.647 227.892,32.796 227.771 C 35.650 227.610,36.337 227.321,49.885 220.591 L 64.000 213.580 78.139 220.603 L 92.279 227.627 96.000 227.627 L 99.721 227.627 113.861 220.603 L 128.000 213.580 142.139 220.603 L 156.279 227.627 160.000 227.627 L 163.721 227.627 177.861 220.603 L 192.000 213.580 206.115 220.591 C 219.663 227.321,220.350 227.610,223.204 227.771 C 225.353 227.892,226.727 227.729,228.157 227.183 C 230.555 226.267,233.554 223.591,234.809 221.246 L 235.733 219.520 235.846 136.747 C 235.925 78.771,235.821 53.306,235.499 51.746 C 234.297 45.935,230.139 40.735,224.564 38.074 L 221.227 36.480 128.640 36.400 C 54.680 36.336,35.710 36.429,34.347 36.863 M212.053 128.419 L 212.053 196.678 203.484 192.419 C 195.137 188.271,194.838 188.160,191.986 188.160 L 189.057 188.160 174.528 195.409 L 160.000 202.657 145.472 195.409 L 130.943 188.160 128.000 188.160 L 125.057 188.160 110.528 195.409 L 96.000 202.657 81.472 195.409 L 66.943 188.160 64.016 188.160 C 61.176 188.160,60.847 188.280,52.929 192.213 C 48.441 194.443,44.583 196.267,44.357 196.267 C 44.096 196.267,43.947 171.548,43.947 128.213 L 43.947 60.160 128.000 60.160 L 212.053 60.160 212.053 128.419 M68.691 84.445 C 65.413 85.464,62.662 87.895,61.166 91.093 L 60.168 93.227 60.168 128.000 L 60.168 162.773 61.166 164.907 C 62.318 167.369,64.335 169.493,66.773 170.811 C 68.464 171.724,68.705 171.733,91.947 171.733 C 115.315 171.733,115.421 171.729,117.170 170.794 C 120.000 169.279,121.478 167.801,122.752 165.207 L 123.947 162.773 123.947 128.000 L 123.947 93.227 122.752 90.793 C 121.478 88.199,120.000 86.721,117.170 85.206 C 115.428 84.274,115.223 84.266,92.587 84.189 C 80.032 84.147,69.279 84.262,68.691 84.445 M144.175 96.663 C 141.766 97.405,138.509 100.200,137.305 102.559 C 136.025 105.065,135.769 109.500,136.756 112.083 C 137.768 114.734,140.511 117.655,143.147 118.887 L 145.280 119.885 166.012 119.889 L 186.744 119.893 189.422 118.555 C 193.662 116.436,195.752 112.961,195.803 107.947 C 195.856 102.836,192.390 98.062,187.594 96.638 C 184.525 95.727,147.144 95.748,144.175 96.663 M99.840 128.000 L 99.840 148.053 91.947 148.053 L 84.053 148.053 84.053 128.000 L 84.053 107.947 91.947 107.947 L 99.840 107.947 99.840 128.000 M144.637 136.505 C 142.563 137.136,140.950 138.195,139.244 140.046 C 136.819 142.677,135.940 145.201,136.199 148.799 C 136.455 152.363,137.566 154.641,140.166 156.929 C 143.665 160.009,143.589 160.000,166.033 160.000 C 185.054 160.000,186.104 159.959,188.312 159.133 C 191.122 158.081,194.076 155.109,195.178 152.224 C 196.133 149.722,195.941 145.162,194.780 142.761 C 193.665 140.457,191.423 138.330,188.844 137.129 L 186.667 136.115 166.187 136.148 C 154.923 136.165,145.225 136.326,144.637 136.505 " stroke="none" fill-rule="evenodd"></path></svg>