<svg fill="currentColor" viewBox="0 0 256 256" xmlns="http://www.w3.org/2000/svg"><path d="M35.200 37.063 C 32.789 38.162,30.891 39.878,29.538 42.178 C 28.503 43.940,28.373 44.586,28.373 48.000 C 28.373 51.414,28.503 52.060,29.538 53.822 C 30.930 56.189,32.807 57.852,35.413 59.028 C 36.900 59.698,38.513 59.935,42.560 60.078 L 47.787 60.263 47.787 128.265 L 47.787 196.267 42.347 196.276 C 38.005 196.284,36.562 196.443,35.200 197.063 C 32.789 198.162,30.891 199.878,29.538 202.178 C 28.503 203.940,28.373 204.586,28.373 208.000 C 28.373 211.414,28.503 212.060,29.538 213.822 C 30.920 216.172,32.783 217.832,35.413 219.054 C 37.285 219.924,37.902 219.947,59.733 219.947 C 80.742 219.947,82.264 219.896,84.242 219.134 C 93.980 215.378,94.528 201.740,85.120 197.285 C 83.225 196.388,82.378 196.275,77.547 196.271 L 72.107 196.267 72.107 145.608 L 72.107 94.949 105.180 155.085 C 123.370 188.160,138.773 215.763,139.407 216.425 C 140.042 217.087,141.623 218.150,142.920 218.788 L 145.280 219.947 171.733 219.947 C 196.729 219.947,198.303 219.902,200.295 219.134 C 203.089 218.056,205.751 215.535,206.992 212.790 L 208.000 210.560 208.112 135.411 L 208.225 60.263 213.446 60.078 C 220.677 59.822,223.823 58.310,226.462 53.822 C 227.497 52.060,227.627 51.414,227.627 48.000 C 227.627 44.586,227.497 43.940,226.462 42.178 C 225.109 39.878,223.211 38.162,220.800 37.063 C 219.216 36.341,217.435 36.285,196.053 36.280 L 173.013 36.275 170.880 37.285 C 161.685 41.640,161.916 54.792,171.261 58.942 C 173.037 59.730,174.407 59.940,178.667 60.078 L 183.893 60.248 183.893 110.649 L 183.893 161.051 150.820 100.915 C 132.630 67.840,117.232 40.243,116.604 39.587 C 115.975 38.931,114.501 37.915,113.327 37.330 L 111.192 36.267 74.050 36.276 C 39.026 36.285,36.809 36.330,35.200 37.063 M138.165 127.785 C 158.622 164.979,175.360 195.606,175.360 195.846 C 175.360 196.134,171.927 196.243,165.254 196.168 L 155.149 196.053 117.919 128.427 C 97.443 91.232,80.678 60.656,80.665 60.480 C 80.651 60.304,85.214 60.160,90.805 60.160 L 100.970 60.160 138.165 127.785 " stroke="none" fill-rule="evenodd"></path></svg>