<svg fill="currentColor" viewBox="0 0 256 256" xmlns="http://www.w3.org/2000/svg"><path d="M190.507 20.359 C 177.774 22.131,166.010 30.575,160.323 42.027 C 157.019 48.679,155.976 53.735,156.253 61.756 C 156.438 67.125,156.592 68.036,158.063 72.417 C 160.210 78.815,162.985 83.270,167.857 88.143 C 172.730 93.015,177.185 95.790,183.583 97.937 C 187.964 99.408,188.875 99.562,194.244 99.747 C 197.851 99.872,201.141 99.755,202.777 99.446 C 218.406 96.489,230.581 85.316,234.671 70.174 C 235.842 65.839,236.247 58.312,235.545 53.956 C 232.356 34.188,215.282 19.773,195.464 20.117 C 193.442 20.152,191.211 20.261,190.507 20.359 M41.169 37.265 C 35.092 39.525,30.557 44.340,28.829 50.364 C 28.219 52.494,28.162 60.705,28.262 132.924 L 28.373 213.120 29.958 216.440 C 33.070 222.956,38.805 227.007,46.107 227.846 C 50.808 228.387,196.936 228.405,201.600 227.865 C 206.059 227.350,209.301 226.067,212.344 223.616 C 215.428 221.131,217.697 217.922,218.967 214.249 L 219.947 211.413 219.947 170.240 C 219.947 124.179,220.187 127.788,216.871 124.117 C 214.450 121.438,211.605 120.183,208.000 120.204 C 206.197 120.215,204.368 120.502,203.385 120.929 C 201.090 121.924,198.225 124.697,197.051 127.059 L 196.053 129.067 195.935 166.507 L 195.818 203.947 123.935 203.947 L 52.053 203.947 52.053 132.065 L 52.053 60.182 89.493 60.065 L 126.933 59.947 128.941 58.949 C 131.281 57.785,134.173 54.808,135.147 52.561 C 136.040 50.498,136.045 45.513,135.156 43.460 C 134.139 41.114,131.454 38.385,129.067 37.271 L 126.933 36.275 85.333 36.293 L 43.733 36.311 41.169 37.265 M202.055 45.273 C 205.504 46.561,209.419 50.444,210.685 53.831 C 211.947 57.209,212.234 60.005,211.623 62.967 C 210.106 70.314,204.188 75.422,196.693 75.853 C 184.882 76.532,176.641 64.342,181.536 53.433 C 182.795 50.628,185.960 47.234,188.611 45.843 C 192.518 43.795,197.532 43.583,202.055 45.273 " stroke="none" fill-rule="evenodd"></path></svg>