<svg fill="currentColor" viewBox="0 0 256 256" xmlns="http://www.w3.org/2000/svg"><path d="M107.238 28.558 C 105.320 29.429,102.514 32.021,101.651 33.720 C 101.357 34.299,91.889 60.597,80.612 92.160 L 60.108 149.547 60.258 152.533 C 60.572 158.755,64.321 162.812,70.728 163.861 C 72.103 164.086,87.780 164.263,106.546 164.264 L 139.919 164.267 140.039 187.627 C 140.157 210.388,140.183 211.036,141.062 212.907 C 145.180 221.670,157.486 222.323,162.330 214.035 C 164.053 211.088,164.260 208.032,164.263 185.493 L 164.267 164.267 169.493 164.263 C 178.413 164.258,182.202 163.191,184.983 159.902 C 190.194 153.736,188.258 144.725,180.949 141.128 C 179.188 140.262,178.233 140.147,171.650 140.013 L 164.313 139.863 164.183 116.758 L 164.053 93.653 162.947 91.307 C 161.689 88.639,159.715 86.530,157.227 85.196 C 154.605 83.791,149.431 83.894,146.560 85.408 C 144.039 86.739,142.543 88.255,141.167 90.880 L 140.160 92.800 140.040 116.373 L 139.919 139.947 114.546 139.947 C 100.591 139.947,89.173 139.850,89.173 139.732 C 89.173 139.613,96.997 117.677,106.560 90.985 C 123.621 43.361,123.947 42.393,123.942 39.253 C 123.939 36.505,123.758 35.727,122.662 33.740 C 121.369 31.394,119.149 29.436,116.535 28.338 C 114.431 27.454,109.408 27.573,107.238 28.558 " stroke="none" fill-rule="evenodd"></path></svg>