<svg fill="currentColor" viewBox="0 0 256 256" xmlns="http://www.w3.org/2000/svg"><path d="M99.200 37.063 C 98.261 37.491,96.866 38.371,96.098 39.019 C 92.961 41.667,93.130 41.015,84.660 83.259 C 78.827 112.355,76.819 123.144,76.987 124.493 C 77.756 130.679,82.640 135.225,88.533 135.242 C 92.228 135.252,93.804 134.678,97.336 132.038 C 101.129 129.203,107.150 126.140,110.933 125.120 C 113.030 124.556,115.321 124.377,120.320 124.389 C 126.783 124.404,127.032 124.439,131.287 125.925 C 140.806 129.249,147.774 135.303,152.094 144.000 C 154.751 149.349,155.380 151.979,155.618 158.720 C 155.788 163.555,155.678 165.077,154.936 168.196 C 151.936 180.794,143.091 190.299,130.560 194.389 C 127.252 195.469,126.352 195.576,120.320 195.600 C 115.232 195.621,113.067 195.451,110.933 194.866 C 106.438 193.633,101.643 191.156,96.956 187.644 C 92.321 184.172,91.013 183.655,87.158 183.774 C 83.156 183.898,79.468 186.160,77.325 189.805 C 76.302 191.545,76.160 192.231,76.160 195.422 C 76.160 200.228,77.215 202.359,81.289 205.781 C 92.334 215.060,105.492 219.865,119.893 219.881 C 132.034 219.894,142.786 216.721,152.678 210.205 C 166.539 201.075,175.777 187.271,179.061 170.782 C 180.089 165.622,180.089 154.378,179.061 149.218 C 176.351 135.609,169.826 124.155,159.573 115.007 C 151.740 108.018,140.611 102.695,130.165 100.942 C 125.000 100.075,114.903 100.057,110.080 100.907 C 108.085 101.258,106.242 101.546,105.984 101.546 C 105.692 101.546,107.077 93.729,109.631 80.960 L 113.747 60.373 142.314 60.160 L 170.880 59.947 172.881 58.952 C 182.195 54.321,182.273 41.604,173.013 37.273 L 170.880 36.275 135.893 36.280 C 102.951 36.285,100.807 36.331,99.200 37.063 " stroke="none" fill-rule="evenodd"></path></svg>