<svg fill="currentColor" viewBox="0 0 256 256" xmlns="http://www.w3.org/2000/svg"><path d="M42.621 28.778 C 37.215 30.269,32.466 34.310,29.967 39.543 L 28.373 42.880 28.373 128.000 L 28.373 213.120 29.958 216.440 C 33.070 222.956,38.805 227.007,46.107 227.846 C 50.959 228.404,205.041 228.404,209.893 227.846 C 219.655 226.724,226.724 219.655,227.846 209.893 C 228.404 205.041,228.404 50.959,227.846 46.107 C 226.875 37.658,221.143 30.874,213.184 28.755 C 210.056 27.922,45.644 27.945,42.621 28.778 M203.947 128.000 L 203.947 203.947 128.000 203.947 L 52.053 203.947 52.053 128.000 L 52.053 52.053 128.000 52.053 L 203.947 52.053 203.947 128.000 M124.118 68.326 C 113.272 69.174,102.863 75.013,96.025 84.089 C 84.378 99.546,85.599 121.087,98.930 135.323 C 104.364 141.124,110.949 144.913,119.101 146.928 L 122.789 147.840 115.796 159.573 C 111.949 166.027,108.611 171.979,108.377 172.800 C 107.200 176.931,108.306 181.380,111.277 184.463 C 115.666 189.018,122.776 189.394,127.533 185.323 C 128.915 184.139,133.177 177.339,146.417 155.194 C 155.822 139.464,163.953 125.605,164.487 124.398 C 172.299 106.734,166.428 85.823,150.654 75.123 C 142.657 69.698,134.219 67.537,124.118 68.326 M135.040 93.753 C 138.169 95.367,140.783 98.002,142.350 101.120 C 144.041 104.484,144.285 110.036,142.904 113.707 C 141.583 117.220,137.743 121.074,134.187 122.457 C 130.679 123.821,125.787 123.837,122.348 122.496 C 118.937 121.166,115.573 117.982,113.824 114.429 C 112.556 111.854,112.427 111.235,112.433 107.742 C 112.439 104.437,112.608 103.531,113.628 101.333 C 115.075 98.217,117.678 95.445,120.533 93.981 C 123.763 92.324,124.483 92.176,128.640 92.309 C 131.959 92.415,132.827 92.611,135.040 93.753 " stroke="none" fill-rule="evenodd"></path></svg>