<svg fill="currentColor" viewBox="0 0 256 256" xmlns="http://www.w3.org/2000/svg"><path d="M119.680 20.310 C 97.411 22.610,80.001 29.205,63.147 41.728 C 57.186 46.157,46.223 57.026,41.973 62.720 C 16.611 96.701,12.928 141.035,32.385 178.133 C 37.761 188.385,42.832 195.175,51.828 204.172 C 60.825 213.168,67.615 218.239,77.867 223.615 C 114.965 243.072,159.250 239.395,193.280 214.031 C 198.497 210.143,210.143 198.497,214.031 193.280 C 228.489 173.882,235.947 151.668,235.947 128.000 C 235.947 92.235,218.399 59.167,188.587 38.752 C 175.422 29.738,160.539 23.864,144.427 21.325 C 139.077 20.483,124.002 19.864,119.680 20.310 M135.040 44.374 C 172.305 47.758,202.630 74.580,210.140 110.797 C 215.959 138.858,207.285 167.541,186.865 187.761 C 173.241 201.252,155.612 209.521,136.017 211.611 C 111.761 214.199,86.191 204.984,68.686 187.348 C 48.533 167.041,40.077 138.684,45.860 110.797 C 54.430 69.467,93.221 40.575,135.040 44.374 M99.156 73.122 C 94.810 75.159,92.530 78.522,92.238 83.329 C 92.017 86.957,92.893 89.449,95.320 92.094 C 98.616 95.688,98.962 95.757,114.876 96.000 L 128.845 96.213 121.328 106.880 C 117.194 112.747,113.427 118.398,112.958 119.437 C 111.767 122.078,111.791 125.886,113.015 128.640 C 115.044 133.204,118.543 135.459,124.560 136.081 C 130.430 136.689,134.424 138.898,137.139 143.039 C 141.604 149.848,140.566 158.325,134.602 163.776 C 131.442 166.664,128.386 167.825,123.947 167.825 C 119.518 167.825,116.634 166.716,113.095 163.651 C 109.554 160.584,107.938 159.857,104.207 159.651 C 101.510 159.502,100.805 159.627,98.782 160.617 C 94.673 162.628,91.733 167.085,91.733 171.307 C 91.733 173.434,92.874 176.710,94.282 178.624 C 96.973 182.283,103.360 186.772,109.217 189.120 C 128.345 196.790,150.474 188.398,159.568 170.027 C 163.000 163.093,163.628 160.246,163.617 151.680 L 163.608 144.427 161.969 139.637 C 161.013 136.844,159.431 133.387,158.175 131.346 C 155.527 127.043,150.667 121.884,146.722 119.188 C 145.013 118.021,143.847 116.938,143.965 116.630 C 144.078 116.336,148.233 110.301,153.198 103.219 C 158.163 96.136,162.584 89.551,163.023 88.584 C 163.538 87.451,163.823 85.842,163.826 84.053 C 163.835 79.440,161.436 75.484,157.284 73.264 C 155.524 72.322,155.466 72.320,128.427 72.211 L 101.333 72.102 99.156 73.122 " stroke="none" fill-rule="evenodd"></path></svg>