<svg fill="currentColor" viewBox="0 0 256 256" xmlns="http://www.w3.org/2000/svg"><path d="M42.621 28.778 C 37.215 30.269,32.466 34.310,29.967 39.543 L 28.373 42.880 28.373 128.000 L 28.373 213.120 29.958 216.440 C 33.070 222.956,38.805 227.007,46.107 227.846 C 50.959 228.404,205.041 228.404,209.893 227.846 C 219.655 226.724,226.724 219.655,227.846 209.893 C 228.404 205.041,228.404 50.959,227.846 46.107 C 226.875 37.658,221.143 30.874,213.184 28.755 C 210.056 27.922,45.644 27.945,42.621 28.778 M203.947 128.000 L 203.947 203.947 128.000 203.947 L 52.053 203.947 52.053 128.000 L 52.053 52.053 128.000 52.053 L 203.947 52.053 203.947 128.000 M119.040 68.880 C 100.962 72.658,87.708 86.840,82.331 108.157 C 80.697 114.634,80.074 120.199,80.084 128.213 C 80.107 146.121,85.124 161.534,94.502 172.507 C 107.484 187.696,128.954 192.303,146.924 183.756 C 165.133 175.096,175.893 154.386,175.893 128.000 C 175.893 101.644,165.267 81.132,147.055 72.333 C 140.800 69.311,137.540 68.606,129.067 68.441 C 124.094 68.344,120.941 68.482,119.040 68.880 M135.253 93.237 C 138.435 94.515,141.654 96.872,143.650 99.385 C 149.263 106.449,152.333 118.324,151.756 130.734 C 150.966 147.704,144.454 159.916,134.565 162.971 C 130.753 164.148,125.247 164.148,121.435 162.971 C 113.671 160.572,107.970 152.565,105.323 140.340 C 103.933 133.919,103.933 122.081,105.323 115.660 C 107.126 107.335,110.809 100.040,114.906 96.683 C 117.015 94.955,120.403 93.188,122.720 92.608 C 125.342 91.952,133.013 92.337,135.253 93.237 " stroke="none" fill-rule="evenodd"></path></svg>