<svg fill="currentColor" viewBox="0 0 256 256" xmlns="http://www.w3.org/2000/svg"><path d="M117.547 36.941 C 109.091 38.422,99.007 42.795,92.136 47.962 C 84.881 53.416,77.672 62.107,74.022 69.800 C 69.972 78.333,68.115 86.571,68.115 96.000 C 68.115 103.271,68.903 108.260,71.081 114.773 C 74.247 124.237,78.427 130.928,85.750 138.250 C 93.072 145.573,99.763 149.753,109.227 152.919 C 116.032 155.194,120.695 155.904,128.692 155.881 L 135.571 155.861 133.136 160.170 C 106.332 207.596,107.254 205.726,108.319 210.485 C 109.745 216.854,116.173 221.128,122.273 219.763 C 124.954 219.163,127.942 217.334,129.389 215.405 C 130.610 213.778,179.213 127.520,181.728 122.516 C 185.867 114.281,187.879 105.619,187.884 96.000 C 187.890 86.209,185.855 77.576,181.509 68.955 C 177.571 61.144,171.002 53.323,163.906 47.998 C 156.813 42.675,146.866 38.384,138.271 36.942 C 133.282 36.104,122.327 36.104,117.547 36.941 M138.027 61.440 C 144.080 63.346,149.231 66.410,153.411 70.589 C 157.646 74.825,160.677 79.954,162.626 86.187 C 163.495 88.966,163.627 90.256,163.627 96.000 C 163.627 101.753,163.496 103.030,162.623 105.813 C 160.410 112.869,156.409 119.092,151.378 123.307 C 147.411 126.630,144.393 128.331,139.394 130.062 C 135.508 131.409,134.453 131.591,129.578 131.756 C 123.415 131.966,120.647 131.552,115.316 129.623 C 105.448 126.052,97.429 117.661,93.785 107.093 C 92.426 103.153,92.387 102.845,92.387 96.000 C 92.387 89.155,92.426 88.847,93.785 84.907 C 98.052 72.532,107.842 63.695,120.533 60.763 C 124.468 59.854,134.184 60.230,138.027 61.440 " stroke="none" fill-rule="evenodd"></path></svg>