<svg fill="currentColor" viewBox="0 0 256 256" xmlns="http://www.w3.org/2000/svg"><path d="M61.295 28.589 C 57.511 29.257,53.157 30.769,49.603 32.647 C 39.653 37.905,32.938 46.089,29.575 57.053 C 28.532 60.454,28.424 61.451,28.400 67.840 C 28.377 73.958,28.501 75.321,29.349 78.249 C 31.878 86.980,37.284 95.055,43.662 99.629 C 44.969 100.566,46.048 101.505,46.060 101.715 C 46.071 101.925,45.215 103.984,44.158 106.290 C 40.790 113.636,37.938 123.664,36.649 132.693 C 35.891 137.997,36.013 151.157,36.869 156.587 C 39.111 170.801,43.955 183.547,51.369 194.741 C 65.899 216.678,87.961 230.696,114.987 235.160 C 120.175 236.018,136.890 235.889,142.275 234.951 C 161.788 231.550,178.086 223.443,191.720 210.357 C 201.150 201.305,210.798 187.013,211.479 181.085 C 212.026 176.325,209.083 171.202,204.603 169.116 C 200.228 167.079,194.179 168.103,191.054 171.410 C 190.443 172.057,188.702 174.729,187.185 177.348 C 182.960 184.647,178.995 189.544,172.800 195.117 C 169.187 198.367,162.441 202.874,157.815 205.128 C 154.452 206.767,145.824 209.920,144.703 209.920 C 144.365 209.920,144.201 195.850,144.117 159.680 C 144.000 109.621,143.997 109.433,143.102 107.498 C 140.937 102.821,136.974 100.213,132.028 100.213 C 128.387 100.213,129.542 99.649,90.667 120.434 C 67.098 133.035,60.773 136.250,60.672 135.679 C 60.463 134.498,62.247 126.371,63.614 122.278 C 66.924 112.362,72.283 103.856,80.180 95.982 C 90.022 86.168,101.904 79.755,114.560 77.426 L 118.400 76.719 151.467 92.226 L 184.533 107.733 189.440 107.720 C 207.838 107.670,223.849 93.792,227.446 74.777 C 227.755 73.141,227.872 69.851,227.747 66.244 C 227.562 60.875,227.408 59.964,225.937 55.583 C 221.202 41.476,209.318 31.180,194.802 28.608 C 191.124 27.957,186.057 28.056,183.806 28.823 C 177.548 30.955,174.348 38.484,177.056 44.706 C 178.918 48.985,183.620 52.053,188.316 52.053 C 192.950 52.053,198.271 54.923,201.020 58.905 C 205.369 65.204,204.672 73.569,199.339 79.089 C 197.187 81.316,192.958 83.626,191.033 83.626 C 190.364 83.627,164.180 71.645,130.659 56.000 L 71.467 28.373 67.413 28.298 C 65.184 28.257,62.431 28.388,61.295 28.589 M76.373 57.168 C 80.011 58.864,83.724 60.629,84.626 61.088 L 86.265 61.924 82.492 64.081 C 75.425 68.122,69.153 72.890,63.074 78.841 L 59.802 82.045 57.258 79.620 C 53.595 76.125,52.299 73.113,52.280 68.053 C 52.269 64.760,52.430 63.865,53.414 61.766 C 54.044 60.420,55.070 58.651,55.692 57.835 C 57.171 55.896,60.706 53.574,63.371 52.792 C 65.795 52.080,64.617 51.683,76.373 57.168 M119.893 171.936 L 119.893 211.605 118.507 211.370 C 115.112 210.794,110.875 209.802,107.627 208.821 L 104.107 207.759 104.107 174.110 L 104.107 140.461 111.680 136.395 C 115.845 134.159,119.397 132.315,119.573 132.298 C 119.749 132.281,119.893 150.118,119.893 171.936 M171.027 132.837 C 164.681 135.202,160.670 140.296,160.135 146.672 C 159.693 151.940,161.957 157.212,166.050 160.447 C 173.361 166.226,184.411 164.469,189.328 156.745 C 194.469 148.667,191.800 138.466,183.361 133.944 C 180.957 132.655,180.293 132.501,176.640 132.385 C 173.971 132.300,172.054 132.455,171.027 132.837 M79.767 172.693 L 79.746 191.787 77.189 189.013 C 72.058 183.449,66.410 173.836,63.813 166.249 C 63.182 164.407,62.788 162.775,62.939 162.623 C 63.301 162.257,79.055 153.696,79.467 153.642 C 79.643 153.619,79.778 162.192,79.767 172.693 " stroke="none" fill-rule="evenodd"></path></svg>