<svg fill="currentColor" viewBox="0 0 256 256" xmlns="http://www.w3.org/2000/svg"><path d="M124.587 12.356 C 123.531 12.550,121.808 13.056,120.758 13.479 C 119.708 13.902,98.588 25.335,73.825 38.884 C 25.082 65.553,25.304 65.416,22.645 70.406 C 19.936 75.489,20.063 72.634,20.063 128.000 C 20.063 183.366,19.936 180.511,22.645 185.594 C 25.319 190.612,25.076 190.462,73.600 217.064 C 98.240 230.572,119.648 242.110,121.173 242.704 C 125.135 244.247,130.871 244.246,134.827 242.702 C 136.352 242.106,157.760 230.568,182.400 217.062 C 230.927 190.462,230.679 190.615,233.355 185.594 C 236.064 180.512,235.936 183.366,235.942 127.971 C 235.947 72.197,236.105 75.618,233.275 70.271 C 230.729 65.462,230.885 65.558,182.373 38.990 C 157.570 25.407,136.182 13.876,134.844 13.366 C 132.050 12.301,127.382 11.842,124.587 12.356 M163.906 56.213 C 183.563 66.949,199.653 75.845,199.663 75.981 C 199.683 76.275,178.732 87.715,178.377 87.603 C 178.205 87.549,113.952 52.418,107.150 48.659 C 106.767 48.447,110.197 46.348,117.177 42.521 C 123.012 39.323,127.872 36.703,127.977 36.699 C 128.081 36.696,144.249 45.477,163.906 56.213 M117.608 81.754 C 137.169 92.458,153.167 101.338,153.158 101.488 C 153.141 101.787,129.146 114.908,128.237 115.115 C 127.662 115.246,56.306 76.396,56.337 75.969 C 56.362 75.612,80.765 62.346,81.448 62.318 C 81.775 62.304,98.047 71.051,117.608 81.754 M82.240 117.733 L 116.053 136.239 116.053 174.578 L 116.053 212.917 112.724 211.099 C 110.893 210.098,94.669 201.217,76.671 191.361 L 43.947 173.442 43.947 135.116 L 43.947 96.789 46.187 98.008 C 47.419 98.679,63.643 107.555,82.240 117.733 M212.052 135.147 L 212.050 173.440 176.608 192.853 C 157.114 203.531,140.891 212.329,140.556 212.405 C 140.032 212.523,139.947 207.224,139.947 174.371 L 139.947 136.200 151.787 129.763 L 163.627 123.326 163.840 138.997 C 164.041 153.752,164.105 154.779,164.946 156.587 C 166.168 159.217,167.828 161.080,170.178 162.462 C 171.940 163.497,172.586 163.627,176.000 163.627 C 179.414 163.627,180.060 163.497,181.822 162.462 C 184.172 161.080,185.832 159.217,187.054 156.587 C 187.919 154.727,187.951 153.961,188.071 132.253 L 188.195 109.839 200.017 103.356 C 206.520 99.791,211.888 96.869,211.947 96.864 C 212.005 96.858,212.053 114.085,212.052 135.147 " stroke="none" fill-rule="evenodd"></path></svg>