<svg fill="currentColor" viewBox="0 0 256 256" xmlns="http://www.w3.org/2000/svg"><path d="M202.880 12.391 C 196.766 13.341,190.312 16.117,185.717 19.773 C 184.491 20.748,171.445 34.933,156.726 51.293 L 129.965 81.040 125.249 76.437 C 117.806 69.172,112.528 66.791,103.893 66.802 C 98.442 66.809,95.820 67.459,90.667 70.081 C 87.351 71.767,86.093 72.974,46.811 112.175 C 2.120 156.773,4.091 154.567,4.091 160.000 C 4.091 165.436,2.024 163.127,47.879 208.908 C 93.658 254.614,90.670 251.954,96.218 251.940 C 101.367 251.927,99.513 253.591,143.619 209.402 C 174.022 178.942,184.142 168.551,185.294 166.609 C 190.289 158.199,190.679 148.561,186.387 139.589 C 184.953 136.589,183.923 135.245,179.828 131.029 L 174.971 126.027 204.585 99.439 C 220.873 84.816,235.070 71.743,236.134 70.389 C 238.875 66.900,241.255 62.276,242.605 57.813 C 243.633 54.420,243.768 53.279,243.768 48.000 C 243.768 42.721,243.633 41.580,242.605 38.187 C 238.009 23.003,225.151 12.896,209.519 12.180 C 207.276 12.078,204.288 12.172,202.880 12.391 M213.333 37.103 C 215.927 38.406,217.475 39.919,218.730 42.380 C 220.675 46.191,220.481 50.823,218.235 54.254 C 217.673 55.112,203.428 68.187,186.580 83.309 C 169.732 98.431,155.144 111.678,154.164 112.746 C 148.725 118.670,147.702 128.531,151.782 135.680 C 152.385 136.736,155.633 140.404,158.999 143.831 C 164.975 149.915,165.120 150.107,165.120 151.911 C 165.120 153.725,164.999 153.880,158.512 160.399 L 151.905 167.040 120.432 135.568 L 88.960 104.095 95.601 97.488 C 102.109 91.012,102.278 90.880,104.080 90.880 C 105.874 90.880,106.073 91.032,112.381 97.221 C 115.935 100.709,119.614 103.955,120.555 104.435 C 126.718 107.579,134.276 107.446,140.178 104.089 C 142.992 102.489,143.513 101.932,173.785 68.177 C 188.034 52.287,200.332 38.800,201.112 38.205 C 204.461 35.650,209.530 35.193,213.333 37.103 M103.680 152.534 L 135.038 183.894 115.520 203.412 L 96.002 222.931 90.571 217.501 L 85.141 212.071 95.425 201.715 C 102.007 195.087,106.055 190.674,106.671 189.453 C 109.612 183.625,107.241 176.383,101.392 173.327 C 99.581 172.381,98.643 172.181,96.000 172.181 C 91.069 172.181,90.125 172.849,78.299 184.714 L 68.066 194.981 64.544 191.477 L 61.022 187.974 71.822 177.080 C 81.737 167.078,82.680 165.999,83.337 163.898 C 84.824 159.145,83.873 155.070,80.484 151.682 C 76.717 147.915,71.196 146.983,66.547 149.329 C 65.326 149.945,60.913 153.993,54.285 160.575 L 43.929 170.859 38.500 165.429 L 33.071 160.000 52.480 140.587 C 63.155 129.909,71.987 121.173,72.106 121.173 C 72.225 121.173,86.433 135.285,103.680 152.534 " stroke="none" fill-rule="evenodd"></path></svg>