<svg fill="currentColor" viewBox="0 0 256 256" xmlns="http://www.w3.org/2000/svg"><path d="M64.898 20.729 C 58.416 22.472,52.787 27.791,50.970 33.888 C 50.133 36.700,28.160 212.390,28.160 216.275 C 28.160 219.589,29.196 223.421,30.860 226.260 C 32.626 229.273,37.018 233.075,40.369 234.492 L 43.307 235.733 67.353 235.857 C 93.562 235.991,93.388 236.005,98.306 233.513 C 101.379 231.955,104.993 228.156,106.542 224.853 C 107.414 222.995,111.123 209.379,117.785 183.573 C 123.253 162.395,127.849 145.067,127.998 145.067 C 128.148 145.067,132.744 162.395,138.212 183.573 C 144.893 209.452,148.580 222.990,149.456 224.853 C 151.007 228.156,154.623 231.956,157.694 233.513 C 162.612 236.005,162.438 235.991,188.647 235.857 L 212.693 235.733 215.631 234.492 C 218.982 233.075,223.374 229.273,225.140 226.260 C 226.804 223.421,227.840 219.589,227.840 216.275 C 227.840 212.390,205.867 36.700,205.030 33.888 C 203.186 27.698,197.551 22.435,190.918 20.707 C 187.239 19.749,68.466 19.769,64.898 20.729 M183.400 51.520 C 183.913 55.685,184.330 59.333,184.326 59.627 C 184.317 60.411,71.683 60.411,71.674 59.627 C 71.670 59.333,72.087 55.685,72.600 51.520 L 73.532 43.947 128.000 43.947 L 182.468 43.947 183.400 51.520 M79.138 86.510 C 78.019 91.306,75.489 95.918,72.026 99.472 C 69.967 101.586,66.541 104.230,66.245 103.934 C 66.066 103.755,68.182 85.603,68.500 84.587 C 68.622 84.196,70.144 84.053,74.189 84.053 L 79.711 84.053 79.138 86.510 M116.061 89.067 L 116.069 94.080 100.824 153.067 L 85.580 212.053 69.010 212.053 L 52.441 212.053 52.680 210.667 C 52.811 209.904,55.020 192.288,57.590 171.520 C 60.159 150.752,62.412 133.113,62.597 132.322 C 62.919 130.945,63.090 130.838,66.560 129.843 C 81.490 125.559,94.281 114.032,100.090 99.624 C 101.754 95.498,103.160 90.190,103.532 86.630 L 103.802 84.053 109.927 84.053 L 116.053 84.053 116.061 89.067 M152.468 86.630 C 152.840 90.190,154.246 95.498,155.910 99.624 C 161.719 114.032,174.510 125.559,189.440 129.843 C 192.910 130.838,193.081 130.945,193.403 132.322 C 193.588 133.113,195.841 150.752,198.410 171.520 C 200.980 192.288,203.189 209.904,203.320 210.667 L 203.559 212.053 186.996 212.053 L 170.433 212.053 155.180 153.067 L 139.927 94.080 139.937 89.067 L 139.947 84.053 146.073 84.053 L 152.198 84.053 152.468 86.630 M188.666 93.440 C 190.164 105.273,190.175 104.335,188.550 103.384 C 186.493 102.180,182.302 97.904,180.656 95.330 C 178.770 92.381,177.594 89.646,176.859 86.498 L 176.283 84.029 181.894 84.148 L 187.505 84.267 188.666 93.440 " stroke="none" fill-rule="evenodd"></path></svg>