<svg fill="currentColor" viewBox="0 0 256 256" xmlns="http://www.w3.org/2000/svg"><path d="M74.880 69.285 C 65.641 73.661,65.896 86.638,75.307 90.966 L 77.440 91.947 138.240 92.160 L 199.040 92.373 202.027 93.377 C 208.321 95.492,213.288 98.466,217.411 102.589 C 221.646 106.825,224.677 111.954,226.626 118.187 C 227.495 120.966,227.627 122.256,227.627 128.000 C 227.627 133.753,227.496 135.030,226.623 137.813 C 221.959 152.679,210.017 162.479,194.906 163.841 C 188.837 164.388,45.891 164.377,42.101 163.829 C 36.580 163.031,32.268 159.931,29.583 154.830 C 28.477 152.731,28.373 152.148,28.373 148.053 C 28.373 144.040,28.494 143.327,29.535 141.210 C 31.018 138.194,34.092 135.120,37.106 133.639 L 39.467 132.480 112.853 132.267 C 196.104 132.025,188.415 132.398,192.406 128.406 C 194.835 125.978,195.844 123.415,195.831 119.711 C 195.814 115.205,193.513 111.576,189.227 109.295 L 187.093 108.160 114.645 108.047 C 52.994 107.951,41.579 108.027,38.043 108.556 C 13.930 112.161,-1.438 136.556,5.819 159.706 C 10.653 175.129,23.712 185.907,39.802 187.753 C 42.470 188.060,68.616 188.160,121.173 188.066 C 193.485 187.936,198.868 187.876,202.453 187.164 C 214.267 184.819,224.886 179.377,233.247 171.384 C 242.655 162.389,248.613 151.293,251.154 138.027 C 252.139 132.887,252.132 123.223,251.140 117.760 C 250.116 112.124,247.860 105.613,245.073 100.250 C 236.550 83.845,220.378 72.060,202.077 68.917 C 198.802 68.355,190.067 68.267,137.651 68.271 L 77.013 68.275 74.880 69.285 " stroke="none" fill-rule="evenodd"></path></svg>