<svg fill="currentColor" viewBox="0 0 256 256" xmlns="http://www.w3.org/2000/svg"><path d="M87.253 36.555 C 83.973 36.966,77.193 38.586,73.864 39.753 C 50.981 47.781,34.755 66.213,29.330 90.343 C 28.524 93.931,28.393 95.805,28.384 103.893 C 28.375 112.177,28.489 113.799,29.362 117.693 C 35.769 146.308,57.770 166.984,86.404 171.299 C 89.748 171.803,95.100 171.942,111.237 171.944 L 131.807 171.947 131.930 191.253 C 132.052 210.367,132.063 210.581,133.034 212.693 C 137.456 222.309,150.544 222.309,154.966 212.693 L 155.947 210.560 156.058 135.360 L 156.169 60.160 164.053 60.160 L 171.937 60.160 172.049 135.573 L 172.160 210.987 173.062 212.907 C 176.480 220.181,185.746 222.185,191.902 216.983 C 193.937 215.263,195.303 212.646,195.812 209.493 C 196.112 207.635,196.261 182.568,196.263 133.476 L 196.267 60.232 203.413 60.082 C 209.756 59.949,210.805 59.822,212.739 58.953 C 222.087 54.754,222.317 41.641,213.120 37.285 L 210.987 36.275 149.760 36.335 C 116.085 36.368,87.957 36.467,87.253 36.555 M131.840 104.132 L 131.840 148.104 110.613 147.954 L 89.387 147.804 85.246 146.678 C 64.490 141.034,51.031 122.660,52.186 101.547 C 53.287 81.423,67.814 64.781,87.734 60.823 C 89.949 60.383,95.704 60.230,111.253 60.200 L 131.840 60.160 131.840 104.132 " stroke="none" fill-rule="evenodd"></path></svg>