<svg fill="currentColor" viewBox="0 0 256 256" xmlns="http://www.w3.org/2000/svg"><path d="M51.095 28.622 C 48.659 29.197,44.812 31.285,42.609 33.228 C 40.242 35.316,38.323 38.200,37.015 41.634 L 36.053 44.160 36.053 128.000 L 36.053 211.840 37.015 214.366 C 39.508 220.912,44.126 225.312,50.560 227.273 C 52.902 227.987,55.044 228.053,75.733 228.053 C 96.502 228.053,98.583 227.988,101.239 227.256 C 108.159 225.348,113.549 219.780,115.417 212.611 C 116.378 208.919,116.378 47.081,115.417 43.389 C 113.605 36.433,108.552 31.028,101.935 28.968 C 99.511 28.214,97.776 28.163,76.015 28.203 C 63.188 28.226,51.974 28.415,51.095 28.622 M153.925 28.980 C 147.395 31.090,142.374 36.512,140.583 43.389 C 139.622 47.081,139.622 208.919,140.583 212.611 C 142.451 219.780,147.841 225.348,154.761 227.256 C 157.417 227.988,159.498 228.053,180.267 228.053 L 202.880 228.053 206.054 227.014 C 213.253 224.656,218.343 218.702,219.774 210.962 C 220.015 209.658,220.128 176.261,220.060 126.482 L 219.947 44.160 218.985 41.634 C 216.865 36.068,213.587 32.502,208.213 29.914 L 205.013 28.373 180.693 28.281 C 158.028 28.195,156.207 28.243,153.925 28.980 M92.160 128.000 L 92.160 203.947 76.160 203.947 L 60.160 203.947 60.160 128.000 L 60.160 52.053 76.160 52.053 L 92.160 52.053 92.160 128.000 M195.840 128.000 L 195.840 203.947 180.053 203.947 L 164.267 203.947 164.267 128.000 L 164.267 52.053 180.053 52.053 L 195.840 52.053 195.840 128.000 " stroke="none" fill-rule="evenodd"></path></svg>