<svg fill="currentColor" viewBox="0 0 256 256" xmlns="http://www.w3.org/2000/svg"><path d="M119.680 20.310 C 97.411 22.610,80.001 29.205,63.147 41.728 C 57.186 46.157,46.223 57.026,41.973 62.720 C 16.611 96.701,12.928 141.035,32.385 178.133 C 37.761 188.385,42.832 195.175,51.828 204.172 C 60.825 213.168,67.615 218.239,77.867 223.615 C 114.965 243.072,159.250 239.395,193.280 214.031 C 198.497 210.143,210.143 198.497,214.031 193.280 C 228.489 173.882,235.947 151.668,235.947 128.000 C 235.947 92.235,218.399 59.167,188.587 38.752 C 175.422 29.738,160.539 23.864,144.427 21.325 C 139.077 20.483,124.002 19.864,119.680 20.310 M135.040 44.374 C 172.305 47.758,202.630 74.580,210.140 110.797 C 215.959 138.858,207.285 167.541,186.865 187.761 C 173.241 201.252,155.612 209.521,136.017 211.611 C 111.761 214.199,86.191 204.984,68.686 187.348 C 48.533 167.041,40.077 138.684,45.860 110.797 C 54.430 69.467,93.221 40.575,135.040 44.374 M100.691 84.426 C 97.344 85.524,94.658 87.905,93.166 91.093 L 92.168 93.227 92.168 128.000 L 92.168 162.773 93.166 164.907 C 95.080 168.997,98.636 171.487,103.076 171.844 C 107.999 172.239,112.347 169.822,114.684 165.392 L 115.840 163.200 115.840 128.000 L 115.840 92.800 114.706 90.667 C 112.563 86.632,109.110 84.442,104.533 84.214 C 103.008 84.138,101.279 84.233,100.691 84.426 M148.907 84.427 C 145.258 85.628,142.883 87.609,141.167 90.880 L 140.160 92.800 140.160 128.000 L 140.160 163.200 141.316 165.392 C 143.653 169.822,148.001 172.239,152.924 171.844 C 156.155 171.584,158.447 170.455,160.699 168.011 C 164.231 164.179,164.053 166.314,164.053 127.787 L 164.053 93.653 162.947 91.307 C 160.854 86.868,157.368 84.444,152.747 84.214 C 151.221 84.138,149.493 84.234,148.907 84.427 " stroke="none" fill-rule="evenodd"></path></svg>