<svg fill="currentColor" viewBox="0 0 256 256" xmlns="http://www.w3.org/2000/svg"><path d="M151.019 12.501 C 145.566 13.738,144.648 14.473,128.387 30.618 L 113.200 45.697 84.257 56.570 C 68.338 62.550,54.394 67.944,53.270 68.556 C 49.264 70.736,45.876 74.769,44.312 79.218 C 43.403 81.806,20.053 221.345,20.053 224.193 C 20.053 230.424,25.631 235.947,31.926 235.947 C 34.720 235.947,173.859 212.599,176.725 211.650 C 180.980 210.240,185.344 206.589,187.492 202.643 C 188.116 201.495,193.501 187.565,199.458 171.686 L 210.288 142.815 225.401 127.621 C 238.707 114.245,240.675 112.095,241.851 109.653 C 244.634 103.876,244.637 97.534,241.859 91.733 C 240.642 89.193,237.512 85.935,204.638 52.993 C 184.898 33.211,167.725 16.344,166.476 15.510 C 162.048 12.553,155.988 11.374,151.019 12.501 M186.879 69.332 L 218.235 100.691 209.067 109.867 L 199.898 119.043 168.430 87.577 L 136.963 56.111 146.024 47.042 C 151.008 42.054,155.184 37.973,155.304 37.973 C 155.424 37.973,169.633 52.085,186.879 69.332 M151.602 104.456 L 186.083 138.938 176.640 164.123 L 167.197 189.309 117.305 197.623 C 89.865 202.196,67.413 205.825,67.413 205.687 C 67.413 205.549,74.699 198.152,83.605 189.249 L 99.796 173.062 103.338 174.204 C 122.415 180.356,141.876 169.565,147.032 149.973 C 148.182 145.604,148.107 137.825,146.873 133.480 C 145.599 128.997,144.129 125.811,141.908 122.722 C 137.006 115.903,130.340 111.240,122.511 109.151 C 117.917 107.925,109.856 107.922,105.325 109.143 C 97.852 111.157,90.802 116.036,86.400 122.240 C 84.112 125.465,83.062 127.548,81.740 131.488 C 79.441 138.335,79.451 145.384,81.769 152.681 L 82.900 156.243 66.732 172.415 C 57.840 181.309,50.451 188.587,50.313 188.587 C 50.175 188.587,53.804 166.135,58.377 138.695 L 66.691 88.803 91.692 79.407 C 105.443 74.240,116.790 70.003,116.908 69.993 C 117.026 69.982,132.638 85.490,151.602 104.456 M119.388 133.657 C 122.304 135.587,123.496 137.812,123.655 141.622 C 123.781 144.643,123.697 145.005,122.375 147.181 C 121.286 148.972,120.432 149.785,118.671 150.701 C 109.897 155.271,100.729 146.103,105.299 137.329 C 106.215 135.568,107.028 134.714,108.819 133.625 C 110.995 132.303,111.357 132.219,114.378 132.345 C 117.056 132.457,117.914 132.682,119.388 133.657 " stroke="none" fill-rule="evenodd"></path></svg>