<svg fill="currentColor" viewBox="0 0 256 256" xmlns="http://www.w3.org/2000/svg"><path d="M166.596 20.621 C 163.216 21.485,160.771 22.854,157.381 25.783 C 155.653 27.275,126.661 56.116,92.954 89.874 C 31.842 151.079,31.664 151.263,30.021 154.667 L 28.373 158.080 28.373 185.600 L 28.373 213.120 29.958 216.440 C 33.144 223.111,38.805 227.025,46.512 227.886 C 48.986 228.162,59.171 228.269,73.356 228.168 C 95.639 228.008,96.277 227.981,98.739 227.067 C 100.128 226.551,102.144 225.625,103.219 225.009 C 104.437 224.311,120.466 208.620,145.759 183.368 L 186.344 142.848 187.223 145.771 C 187.706 147.378,188.632 150.479,189.280 152.662 L 190.459 156.631 172.282 174.849 C 160.663 186.494,153.792 193.699,153.236 194.818 C 148.472 204.411,158.169 214.933,168.320 211.186 C 170.756 210.287,171.915 209.208,192.298 188.854 C 210.447 170.731,213.881 167.109,214.800 165.120 C 216.702 161.006,216.523 159.928,210.748 140.717 L 205.604 123.600 218.596 110.547 C 225.741 103.367,232.191 96.533,232.929 95.360 C 236.917 89.018,236.919 80.390,232.935 74.027 C 231.304 71.423,185.394 25.435,182.472 23.478 C 178.174 20.600,171.427 19.386,166.596 20.621 M201.173 93.864 L 191.999 103.038 172.482 83.521 L 152.964 64.003 162.133 54.827 L 171.301 45.651 190.824 65.171 L 210.347 84.690 201.173 93.864 M139.521 155.519 L 104.107 190.932 84.588 171.413 L 65.068 151.894 100.479 116.481 L 135.891 81.067 155.413 100.586 L 174.935 120.105 139.521 155.519 M67.627 188.587 L 82.982 203.947 67.518 203.947 L 52.053 203.947 52.053 188.587 C 52.053 180.139,52.102 173.227,52.162 173.227 C 52.222 173.227,59.181 180.139,67.627 188.587 " stroke="none" fill-rule="evenodd"></path></svg>