<svg fill="currentColor" viewBox="0 0 256 256" xmlns="http://www.w3.org/2000/svg"><path d="M75.423 12.610 C 68.568 14.272,63.036 19.421,60.968 26.065 C 60.224 28.458,60.160 30.231,60.160 48.611 L 60.160 68.559 45.161 95.186 C 36.912 109.831,29.716 123.061,29.170 124.587 C 27.270 129.898,28.147 137.385,31.179 141.726 C 34.066 145.860,118.167 250.976,119.953 252.682 C 124.575 257.099,131.421 257.099,136.051 252.682 C 137.835 250.981,221.901 145.903,224.820 141.726 C 227.768 137.509,228.706 130.116,226.952 124.912 C 226.464 123.463,219.408 110.461,211.272 96.019 L 196.480 69.760 196.242 49.280 C 196.017 30.012,195.950 28.642,195.113 26.134 C 192.811 19.238,187.373 14.238,180.382 12.590 C 176.518 11.679,79.187 11.698,75.423 12.610 M171.947 48.213 L 171.947 60.160 128.000 60.160 L 84.053 60.160 84.053 48.213 L 84.053 36.267 128.000 36.267 L 171.947 36.267 171.947 48.213 M190.151 107.443 C 201.794 128.168,203.107 130.696,202.559 131.337 C 202.223 131.731,188.259 149.237,171.528 170.240 C 154.797 191.243,140.847 208.708,140.528 209.051 C 140.037 209.579,139.947 206.282,139.947 187.831 L 139.947 165.986 142.613 164.649 C 152.100 159.895,158.282 152.209,161.153 141.602 C 162.326 137.266,162.114 129.651,160.687 124.882 C 157.028 112.651,148.326 104.217,136.107 101.060 C 131.703 99.922,124.284 99.926,119.853 101.068 C 107.671 104.211,99.003 112.619,95.304 124.882 C 94.360 128.009,94.165 129.500,94.142 133.760 C 94.104 140.599,95.557 145.926,99.049 151.742 C 102.170 156.943,108.812 162.783,114.060 164.941 L 116.050 165.760 116.052 187.718 C 116.053 206.240,115.963 209.578,115.474 209.051 C 115.155 208.708,101.208 191.243,84.481 170.240 C 67.754 149.237,53.788 131.730,53.447 131.335 C 52.889 130.690,54.136 128.284,65.721 107.655 C 72.814 95.026,78.699 84.549,78.801 84.372 C 78.903 84.195,101.068 84.099,128.058 84.158 L 177.130 84.267 190.151 107.443 M132.053 124.962 C 140.680 128.919,139.245 141.858,129.967 143.775 C 123.851 145.038,118.171 140.319,118.196 133.996 C 118.218 128.371,122.405 124.179,128.000 124.179 C 129.372 124.179,131.056 124.504,132.053 124.962 " stroke="none" fill-rule="evenodd"></path></svg>