<svg fill="currentColor" viewBox="0 0 256 256" xmlns="http://www.w3.org/2000/svg"><path d="M166.819 20.496 C 164.218 21.113,161.580 22.436,158.933 24.450 C 157.525 25.521,128.315 54.490,94.021 88.825 C 31.821 151.101,31.664 151.262,30.021 154.667 L 28.373 158.080 28.373 185.600 L 28.373 213.120 29.958 216.440 C 33.144 223.111,38.805 227.025,46.512 227.886 C 48.986 228.162,59.171 228.269,73.356 228.168 C 95.639 228.008,96.277 227.981,98.739 227.067 C 100.128 226.551,102.144 225.628,103.219 225.014 C 104.468 224.302,128.069 201.001,168.582 160.483 C 217.719 111.341,232.288 96.533,233.313 94.696 C 236.714 88.596,236.785 81.162,233.501 74.912 C 231.854 71.777,184.674 24.569,181.310 22.690 C 177.102 20.339,171.224 19.449,166.819 20.496 M201.173 93.864 L 191.999 103.038 172.482 83.521 L 152.964 64.003 162.133 54.827 L 171.301 45.651 190.824 65.171 L 210.347 84.690 201.173 93.864 M133.015 162.025 L 91.095 203.947 71.574 203.947 L 52.053 203.947 52.053 184.427 L 52.053 164.908 93.972 122.988 L 135.891 81.068 155.413 100.586 L 174.934 120.104 133.015 162.025 " stroke="none" fill-rule="evenodd"></path></svg>