<svg fill="currentColor" viewBox="0 0 256 256" xmlns="http://www.w3.org/2000/svg"><path d="M122.683 12.392 C 114.716 13.644,107.469 17.458,101.951 23.304 C 95.399 30.243,92.166 38.404,92.166 48.000 C 92.166 65.525,104.284 80.103,121.579 83.384 C 137.522 86.408,153.745 77.945,160.650 63.001 C 165.957 51.513,164.637 37.437,157.287 27.161 C 152.410 20.344,144.392 14.903,136.429 13.010 C 133.004 12.195,125.952 11.878,122.683 12.392 M132.531 36.901 C 134.977 37.922,137.126 39.881,138.475 42.315 C 139.577 44.304,139.732 45.011,139.726 48.000 C 139.720 50.679,139.518 51.791,138.786 53.170 C 136.410 57.647,132.789 59.909,128.000 59.909 C 123.211 59.909,119.590 57.647,117.214 53.170 C 116.482 51.791,116.280 50.679,116.274 48.000 C 116.268 45.011,116.423 44.304,117.525 42.315 C 118.848 39.927,120.982 37.958,123.372 36.920 C 125.263 36.099,130.586 36.088,132.531 36.901 M114.560 96.441 C 103.228 97.220,90.353 99.111,79.360 101.611 C 61.989 105.561,41.440 113.104,28.525 120.272 C 22.280 123.737,20.025 126.894,20.072 132.103 C 20.122 137.659,23.706 142.117,29.293 143.573 C 32.787 144.483,34.445 144.073,41.387 140.589 C 61.885 130.301,85.255 123.488,107.947 121.187 C 110.411 120.937,113.243 120.643,114.240 120.534 L 116.053 120.336 116.042 133.875 L 116.031 147.413 85.070 182.187 C 68.041 201.312,53.697 217.728,53.193 218.667 C 51.880 221.113,51.881 226.892,53.196 229.333 C 54.285 231.357,56.799 233.835,58.880 234.936 C 61.122 236.122,67.027 236.047,69.333 234.802 C 71.701 233.524,72.230 232.951,101.556 199.893 C 115.920 183.701,127.818 170.453,127.996 170.453 C 128.175 170.453,140.075 183.701,154.441 199.893 C 183.781 232.962,184.301 233.525,186.667 234.802 C 188.973 236.047,194.878 236.122,197.120 234.936 C 199.201 233.835,201.715 231.357,202.804 229.333 C 204.119 226.892,204.120 221.114,202.807 218.667 C 202.304 217.728,187.959 201.312,170.929 182.187 L 139.966 147.413 139.957 133.897 L 139.947 120.382 142.400 120.595 C 167.624 122.790,191.476 129.281,212.749 139.740 C 221.557 144.071,223.099 144.493,226.714 143.568 C 229.976 142.734,232.151 141.257,233.816 138.743 C 236.286 135.014,236.598 130.452,234.649 126.558 C 233.096 123.456,230.971 121.915,222.507 117.756 C 199.713 106.555,174.098 99.486,146.773 96.854 C 140.378 96.238,121.097 95.991,114.560 96.441 " stroke="none" fill-rule="evenodd"></path></svg>