<svg fill="currentColor" viewBox="0 0 256 256" xmlns="http://www.w3.org/2000/svg"><path d="M148.053 12.208 C 139.777 13.216,131.243 17.503,125.789 23.394 C 110.621 39.777,113.573 65.619,132.009 77.841 C 138.582 82.199,144.062 83.828,152.107 83.815 C 158.196 83.806,161.791 83.051,167.008 80.685 C 174.578 77.253,181.586 70.177,184.951 62.568 C 188.011 55.649,188.789 46.447,186.922 39.253 C 183.649 26.643,173.478 16.397,161.093 13.232 C 157.765 12.382,150.993 11.850,148.053 12.208 M157.355 37.371 C 161.406 39.390,163.840 43.379,163.840 48.000 C 163.840 58.614,151.112 63.930,143.626 56.444 C 139.003 51.821,138.931 44.359,143.464 39.699 C 146.878 36.189,152.944 35.173,157.355 37.371 M108.658 88.347 C 92.086 89.816,72.395 98.751,52.267 113.935 C 44.812 119.559,38.829 124.892,37.669 126.950 C 35.038 131.614,35.581 136.863,39.099 140.776 C 41.693 143.661,44.224 144.816,48.000 144.837 C 51.756 144.858,53.657 143.968,58.027 140.146 C 74.945 125.350,95.573 114.034,108.596 112.407 C 110.942 112.114,110.949 112.116,110.559 113.123 C 110.344 113.679,98.886 140.053,85.098 171.733 C 60.642 227.920,60.027 229.401,60.000 232.107 C 59.895 242.614,71.987 248.045,79.940 241.062 C 80.822 240.288,81.899 238.958,82.332 238.108 C 82.766 237.258,90.168 220.344,98.782 200.521 C 107.395 180.698,114.509 164.407,114.592 164.318 C 114.674 164.229,120.365 168.172,127.237 173.081 L 139.733 182.007 139.947 208.443 L 140.160 234.880 141.360 237.325 C 144.862 244.456,153.970 246.194,159.901 240.862 C 161.172 239.718,162.424 238.059,163.035 236.706 L 164.053 234.453 164.053 204.373 C 164.053 181.566,163.925 173.871,163.521 172.546 C 162.399 168.861,161.123 167.768,142.543 154.576 C 132.696 147.586,124.628 141.702,124.613 141.500 C 124.586 141.129,132.617 122.391,132.944 122.062 C 133.041 121.964,136.529 125.238,140.694 129.337 C 144.859 133.437,150.091 138.303,152.320 140.152 C 160.915 147.279,170.794 152.835,180.267 155.869 C 192.317 159.728,208.614 161.175,213.215 158.794 C 219.227 155.682,221.627 148.733,218.733 142.817 C 217.383 140.058,215.728 138.506,212.693 137.152 C 210.973 136.384,209.444 136.148,204.800 135.934 C 195.162 135.489,186.769 133.360,179.200 129.441 C 172.594 126.021,168.057 122.340,156.232 110.810 C 150.026 104.759,143.324 98.589,141.340 97.100 C 134.635 92.068,127.294 89.187,119.005 88.337 C 114.309 87.855,114.200 87.855,108.658 88.347 " stroke="none" fill-rule="evenodd"></path></svg>