<svg fill="currentColor" viewBox="0 0 256 256" xmlns="http://www.w3.org/2000/svg"><path d="M123.596 4.276 C 111.384 5.756,100.533 13.677,95.350 24.893 C 89.119 38.380,92.097 55.023,102.574 65.265 C 103.886 66.548,104.960 67.748,104.960 67.932 C 104.960 68.116,104.240 68.268,103.360 68.270 C 101.092 68.274,95.383 69.717,92.405 71.040 C 88.923 72.586,84.686 75.407,82.094 77.906 C 80.346 79.591,50.430 113.354,35.251 130.772 C 30.065 136.723,28.146 141.309,28.107 147.850 C 28.066 154.615,30.337 160.088,35.183 164.907 C 41.218 170.908,49.323 173.232,57.498 171.304 C 61.438 170.375,64.499 168.653,69.920 164.312 C 72.589 162.175,74.829 160.427,74.899 160.427 C 74.968 160.427,74.859 161.051,74.656 161.813 C 74.453 162.576,71.773 172.800,68.700 184.533 C 65.627 196.267,62.432 208.235,61.599 211.129 C 59.257 219.267,59.511 224.253,62.598 230.779 C 66.276 238.555,75.223 244.053,84.198 244.053 C 90.099 244.053,96.455 241.364,100.737 237.056 C 103.125 234.653,104.984 231.685,115.578 213.368 C 122.240 201.850,127.829 192.427,127.998 192.427 C 128.167 192.427,133.658 201.691,140.200 213.013 C 151.262 232.159,152.319 233.827,155.301 236.841 C 161.428 243.035,169.411 245.322,177.598 243.228 C 188.708 240.386,195.840 231.302,195.840 219.992 C 195.840 217.641,195.575 215.177,195.189 213.934 C 194.832 212.783,191.653 200.896,188.126 187.520 C 184.599 174.144,181.547 162.576,181.344 161.813 C 181.141 161.051,181.032 160.427,181.101 160.427 C 181.171 160.427,183.411 162.175,186.080 164.312 C 188.749 166.449,192.035 168.755,193.382 169.436 C 200.251 172.909,209.121 172.680,215.893 168.853 C 219.505 166.813,223.662 162.355,225.408 158.651 C 227.324 154.585,227.899 152.072,227.878 147.861 C 227.847 141.993,225.903 136.696,222.232 132.480 C 207.996 116.129,175.560 79.499,173.907 77.906 C 171.314 75.407,167.076 72.585,163.595 71.040 C 160.617 69.717,154.908 68.274,152.640 68.270 C 151.760 68.268,151.040 68.116,151.040 67.932 C 151.040 67.748,152.114 66.548,153.426 65.265 C 167.552 51.457,167.310 27.691,152.903 14.057 C 145.029 6.605,134.200 2.991,123.596 4.276 M132.693 29.046 C 135.035 30.104,137.572 32.482,138.802 34.773 C 140.209 37.394,140.107 42.567,138.592 45.440 C 136.317 49.752,132.883 51.820,128.000 51.820 C 123.117 51.820,119.683 49.752,117.408 45.440 C 115.893 42.567,115.791 37.394,117.198 34.773 C 119.413 30.648,123.458 28.179,128.000 28.179 C 129.874 28.179,131.396 28.460,132.693 29.046 M154.981 93.562 C 156.492 94.450,162.624 101.131,179.258 120.015 C 191.498 133.911,201.820 145.656,202.196 146.115 C 203.086 147.201,202.113 146.440,182.466 130.666 C 164.888 116.553,164.112 116.053,159.785 116.053 C 153.785 116.053,148.562 121.014,148.184 127.072 C 148.019 129.715,148.846 133.101,159.699 174.208 C 166.129 198.566,171.255 218.342,171.088 218.154 C 170.921 217.967,163.440 205.141,154.463 189.653 C 145.486 174.165,137.444 160.757,136.591 159.857 C 133.998 157.121,132.173 156.384,128.000 156.384 C 123.828 156.384,122.006 157.120,119.406 159.857 C 118.551 160.757,110.509 174.165,101.535 189.653 C 92.561 205.141,85.083 217.965,84.917 218.151 C 84.751 218.336,89.863 198.560,96.276 174.204 C 103.296 147.545,107.939 129.144,107.942 127.969 C 107.962 120.050,100.035 114.302,92.404 116.703 C 90.350 117.349,87.536 119.432,73.459 130.731 C 51.967 147.981,52.932 147.230,53.975 145.903 C 57.854 140.968,99.271 94.614,100.456 93.882 C 101.297 93.362,102.511 92.775,103.153 92.578 C 103.795 92.381,115.264 92.254,128.640 92.297 L 152.960 92.373 154.981 93.562 " stroke="none" fill-rule="evenodd"></path></svg>