<svg fill="currentColor" viewBox="0 0 256 256" xmlns="http://www.w3.org/2000/svg"><path d="M121.173 20.667 C 107.703 23.523,97.618 32.683,93.432 45.867 C 91.985 50.426,91.762 59.098,92.964 64.129 C 96.128 77.374,105.920 87.356,119.253 90.927 C 121.881 91.631,123.895 91.842,128.000 91.842 C 132.105 91.842,134.119 91.631,136.747 90.927 C 150.074 87.358,159.877 77.354,163.045 64.089 C 164.237 59.099,164.010 50.408,162.568 45.867 C 158.658 33.554,149.094 24.317,136.960 21.137 C 133.219 20.156,124.770 19.905,121.173 20.667 M133.068 45.200 C 135.647 46.516,137.333 48.141,138.573 50.509 C 140.107 53.438,140.217 58.591,138.802 61.227 C 134.067 70.045,121.924 70.045,117.196 61.227 C 115.783 58.590,115.894 53.437,117.427 50.509 C 119.021 47.466,121.874 45.202,125.227 44.321 C 127.178 43.808,131.229 44.262,133.068 45.200 M59.713 76.528 C 49.570 78.713,42.564 88.950,44.297 99.054 C 45.790 107.763,52.237 114.210,60.946 115.703 C 71.581 117.527,81.820 110.035,83.703 99.054 C 85.477 88.709,78.108 78.311,67.655 76.408 C 64.545 75.841,62.776 75.868,59.713 76.528 M176.048 92.649 C 161.136 93.964,146.271 99.619,129.920 110.198 C 114.814 119.972,105.733 124.553,94.277 128.181 C 85.531 130.951,81.337 131.614,72.533 131.621 C 65.422 131.626,64.316 131.526,61.368 130.615 C 51.977 127.711,44.350 132.749,44.383 141.836 C 44.398 146.054,46.841 150.105,50.493 151.968 C 53.284 153.392,61.419 155.236,67.363 155.793 C 83.093 157.266,103.072 152.415,122.696 142.357 C 126.083 140.621,128.853 139.417,128.852 139.681 C 128.848 140.915,125.783 153.049,124.391 157.341 C 114.353 188.301,94.404 208.952,64.706 219.130 C 58.042 221.414,55.897 222.662,54.136 225.284 C 48.988 232.950,53.896 243.101,63.158 243.941 C 65.260 244.131,66.395 243.881,71.977 241.992 C 90.251 235.809,104.823 227.025,117.320 214.658 C 130.230 201.884,138.310 188.945,146.076 168.612 L 146.616 167.197 154.161 173.477 C 158.311 176.931,161.707 179.980,161.707 180.253 C 161.707 180.525,158.635 190.078,154.880 201.481 C 147.290 224.531,147.144 225.230,149.063 229.350 C 151.115 233.757,156.202 236.724,160.927 236.270 C 163.821 235.992,167.562 233.978,169.218 231.806 C 170.297 230.391,172.377 224.640,179.243 204.077 C 188.999 174.858,188.907 175.269,186.653 170.836 C 185.474 168.516,184.209 167.345,170.447 155.832 C 162.237 148.964,154.976 142.916,154.312 142.392 L 153.104 141.440 154.026 133.760 C 154.533 129.536,155.038 125.455,155.147 124.692 C 155.375 123.101,156.505 122.395,162.162 120.309 C 169.698 117.531,175.850 116.423,183.680 116.434 C 194.196 116.450,199.925 118.074,210.000 123.900 C 216.463 127.637,224.768 124.653,227.217 117.713 C 228.224 114.858,228.027 111.049,226.738 108.462 C 225.133 105.243,222.467 103.161,215.703 99.849 C 206.684 95.431,199.110 93.379,188.888 92.584 C 182.988 92.126,181.928 92.131,176.048 92.649 " stroke="none" fill-rule="evenodd"></path></svg>