<svg fill="currentColor" viewBox="0 0 256 256" xmlns="http://www.w3.org/2000/svg"><path d="M162.459 20.494 C 155.297 21.700,147.892 26.053,143.232 31.797 C 140.531 35.127,137.638 41.170,136.723 45.396 C 135.753 49.872,136.055 56.986,137.395 61.227 C 142.391 77.045,158.196 86.613,173.991 83.380 C 186.337 80.854,195.718 72.005,199.087 59.709 C 200.224 55.560,200.134 48.124,198.893 43.757 C 197.258 37.999,194.896 34.011,190.507 29.598 C 187.101 26.174,186.093 25.441,182.170 23.542 C 175.635 20.377,169.127 19.371,162.459 20.494 M172.457 45.445 C 175.829 47.676,176.869 52.774,174.650 56.195 C 172.641 59.293,169.294 60.566,165.814 59.554 C 161.098 58.183,158.783 53.237,160.806 48.853 C 162.915 44.286,168.317 42.705,172.457 45.445 M116.004 72.695 C 115.156 72.998,113.908 73.648,113.231 74.138 C 112.554 74.628,104.192 82.868,94.649 92.448 C 77.531 109.633,77.288 109.901,76.570 112.395 C 75.685 115.472,75.919 118.594,77.233 121.226 C 77.865 122.490,84.278 129.223,97.098 142.080 L 116.030 161.067 116.148 184.320 C 116.265 207.243,116.280 207.598,117.191 209.280 C 118.288 211.307,120.803 213.784,122.880 214.883 C 123.996 215.473,125.290 215.672,128.000 215.671 C 132.280 215.670,134.088 214.906,136.814 211.949 C 140.056 208.432,139.987 209.179,139.852 179.159 L 139.733 152.533 138.730 150.613 C 138.074 149.358,132.056 143.006,121.344 132.261 L 104.963 115.828 112.425 108.375 L 119.888 100.921 132.371 113.349 C 140.279 121.223,145.557 126.145,146.773 126.782 L 148.693 127.787 170.027 127.787 L 191.360 127.787 193.707 126.463 C 197.907 124.094,200.533 119.186,199.938 114.815 C 199.556 112.009,197.773 108.633,195.764 106.914 C 192.569 104.179,191.999 104.107,173.692 104.107 L 157.243 104.107 142.301 89.197 C 125.676 72.607,125.019 72.102,120.107 72.130 C 118.699 72.138,116.853 72.392,116.004 72.695 M48.000 136.387 C 42.050 137.334,35.247 140.012,30.243 143.376 C 26.597 145.826,21.356 151.172,18.946 154.897 C 2.969 179.595,15.934 211.881,44.669 218.956 C 50.269 220.335,58.417 220.238,64.183 218.723 C 87.747 212.533,101.248 188.356,93.992 165.343 C 91.908 158.733,88.702 153.491,83.659 148.448 C 78.233 143.022,71.705 139.259,64.427 137.361 C 60.857 136.430,51.292 135.863,48.000 136.387 M196.053 136.387 C 180.000 138.943,166.789 150.179,162.008 165.343 C 157.464 179.755,160.937 195.375,171.093 206.212 C 177.102 212.623,183.655 216.579,191.817 218.723 C 197.583 220.238,205.731 220.335,211.331 218.956 C 231.401 214.014,245.163 195.798,243.919 175.819 C 243.263 165.276,239.033 155.776,231.764 148.516 C 226.241 143.001,219.783 139.265,212.480 137.361 C 208.910 136.430,199.345 135.863,196.053 136.387 M57.686 160.480 C 66.927 162.443,73.155 171.459,71.674 180.731 C 70.739 186.581,66.880 191.736,61.543 194.264 C 58.851 195.539,58.366 195.627,53.973 195.627 C 49.580 195.627,49.096 195.539,46.404 194.264 C 39.240 190.871,35.399 183.669,36.356 175.423 C 37.519 165.409,47.608 158.340,57.686 160.480 M205.739 160.473 C 210.903 161.554,216.091 165.696,218.370 170.559 C 219.410 172.779,219.520 173.483,219.520 177.920 C 219.520 182.553,219.444 182.987,218.158 185.703 C 216.394 189.425,213.318 192.501,209.596 194.264 C 206.904 195.539,206.420 195.627,202.027 195.627 C 197.634 195.627,197.149 195.539,194.457 194.264 C 190.922 192.590,187.817 189.573,186.075 186.122 C 179.303 172.708,191.041 157.398,205.739 160.473 " stroke="none" fill-rule="evenodd"></path></svg>