<svg fill="currentColor" viewBox="0 0 256 256" xmlns="http://www.w3.org/2000/svg"><path d="M45.013 28.109 C 37.925 29.980,34.131 37.239,36.689 44.037 C 37.391 45.904,39.709 48.686,50.121 60.160 C 57.042 67.787,62.704 74.123,62.705 74.240 C 62.706 74.357,60.478 75.605,57.754 77.013 C 45.063 83.574,32.505 92.682,22.392 102.662 C 11.513 113.396,5.706 125.229,4.193 139.742 C 3.656 144.894,4.094 151.398,5.338 156.747 C 7.843 167.516,15.105 180.425,20.863 184.345 C 25.134 187.253,30.762 188.589,35.250 187.761 C 38.147 187.226,87.480 169.826,90.644 168.224 C 93.610 166.720,97.357 162.993,99.000 159.911 C 100.185 157.688,100.849 155.045,103.424 142.327 L 106.453 127.360 108.291 126.779 L 110.129 126.197 111.567 127.845 C 112.358 128.752,132.747 151.183,156.876 177.693 C 193.241 217.646,201.102 226.073,202.823 226.949 C 208.651 229.917,215.875 227.511,218.879 221.601 C 220.390 218.627,220.391 213.951,218.880 211.065 C 218.209 209.784,187.657 175.837,136.608 119.651 C 67.970 44.107,55.077 30.110,53.303 29.211 C 51.038 28.064,47.145 27.546,45.013 28.109 M126.293 61.045 C 120.912 63.475,117.935 69.604,119.464 75.108 C 120.536 78.969,124.277 82.686,127.993 83.583 C 128.818 83.782,132.770 84.159,136.775 84.420 C 154.668 85.586,169.181 89.486,185.387 97.481 C 196.371 102.900,206.354 109.836,215.140 118.153 C 225.453 127.914,229.512 138.828,227.240 150.682 C 226.481 154.641,225.372 157.557,223.154 161.424 C 221.735 163.899,221.001 164.703,219.292 165.651 C 215.530 167.738,212.927 172.815,213.495 176.957 C 214.599 185.017,222.108 189.549,229.954 186.891 C 234.082 185.494,237.300 183.009,240.444 178.793 C 247.904 168.790,251.810 157.101,251.856 144.640 C 251.908 130.697,247.319 118.437,237.789 107.057 C 234.900 103.607,226.715 95.997,221.440 91.857 C 199.094 74.316,172.448 63.731,143.276 60.805 C 134.048 59.880,128.708 59.955,126.293 61.045 M86.746 100.410 L 92.495 106.740 89.411 109.797 C 84.793 114.374,84.443 115.316,80.970 132.589 C 79.331 140.742,77.942 147.465,77.884 147.529 C 77.457 147.994,34.300 162.978,33.865 162.811 C 33.091 162.514,30.579 157.394,29.451 153.813 C 28.116 149.578,27.827 142.923,28.773 138.220 C 29.637 133.925,32.345 127.995,35.106 124.353 C 39.170 118.992,48.702 110.751,57.721 104.801 C 66.330 99.122,79.543 92.610,80.498 93.576 C 80.772 93.853,83.583 96.929,86.746 100.410 " stroke="none" fill-rule="evenodd"></path></svg>