<svg fill="currentColor" viewBox="0 0 256 256" xmlns="http://www.w3.org/2000/svg"><path d="M76.094 20.935 C 63.880 23.501,52.617 29.845,44.177 38.913 C 38.121 45.419,33.957 52.465,31.148 60.962 C 28.791 68.089,28.159 72.518,28.164 81.889 C 28.187 126.713,50.312 170.437,86.969 198.103 C 108.458 214.321,133.372 224.187,160.427 227.192 C 168.158 228.051,180.856 228.038,186.058 227.166 C 190.867 226.360,198.861 223.785,202.958 221.722 C 212.353 216.990,221.684 208.524,227.161 199.760 C 232.040 191.954,235.947 180.088,235.947 173.076 C 235.947 165.902,231.567 158.706,225.254 155.507 C 223.234 154.483,179.584 134.860,175.850 133.297 C 173.546 132.333,169.121 131.898,165.973 132.328 C 160.911 133.018,158.271 134.709,146.317 144.921 C 140.317 150.046,135.111 154.482,134.747 154.779 C 134.190 155.233,133.324 154.808,129.259 152.093 C 121.221 146.722,113.892 139.978,107.946 132.480 C 104.858 128.585,101.120 122.922,101.120 122.138 C 101.120 121.847,105.280 116.673,110.365 110.640 C 120.705 98.371,121.509 97.279,122.875 93.653 C 124.158 90.249,124.211 84.926,123.000 81.280 C 121.705 77.385,100.736 30.749,99.398 28.790 C 96.694 24.830,91.775 21.521,87.126 20.533 C 83.954 19.860,80.634 19.981,76.094 20.935 M180.477 28.559 C 178.326 29.213,176.699 30.309,174.980 32.261 C 172.208 35.411,171.947 36.881,171.947 49.333 L 171.947 60.111 160.107 60.242 C 148.844 60.367,148.181 60.419,146.505 61.315 C 142.734 63.333,139.947 67.945,139.947 72.168 C 139.947 76.680,143.389 81.498,147.789 83.144 C 150.035 83.984,151.041 84.053,161.083 84.053 L 171.947 84.053 171.947 94.917 C 171.947 104.959,172.016 105.965,172.856 108.211 C 174.502 112.611,179.320 116.053,183.832 116.053 C 188.421 116.053,193.133 112.958,195.014 108.706 C 195.958 106.572,196.020 105.862,196.185 95.253 L 196.359 84.053 206.902 84.053 C 219.136 84.053,220.594 83.788,223.786 80.978 C 226.478 78.608,227.830 75.700,227.836 72.267 C 227.844 67.222,225.690 63.631,221.356 61.465 L 218.744 60.160 207.547 60.160 L 196.350 60.160 196.168 48.960 C 196.020 39.882,195.851 37.409,195.278 35.908 C 193.510 31.278,188.962 28.129,184.145 28.197 C 182.716 28.217,181.065 28.380,180.477 28.559 M89.595 64.853 C 94.580 76.000,98.810 85.409,98.995 85.763 C 99.240 86.230,96.600 89.653,89.287 98.349 C 78.452 111.232,77.213 113.152,76.309 118.454 C 75.569 122.795,76.310 126.522,78.960 131.794 C 86.230 146.257,100.418 161.723,115.899 172.059 C 124.219 177.614,130.101 180.053,135.177 180.053 C 137.800 180.053,142.335 178.781,144.692 177.385 C 145.720 176.776,151.729 171.877,158.047 166.499 L 169.534 156.720 183.220 162.862 C 190.748 166.240,200.194 170.461,204.212 172.242 L 211.518 175.479 210.995 177.446 C 208.243 187.792,199.927 197.176,189.934 201.213 C 184.346 203.470,182.565 203.735,173.227 203.703 C 163.792 203.670,159.002 203.128,149.120 200.975 C 101.522 190.607,63.836 151.974,54.427 103.905 C 52.820 95.692,52.298 90.348,52.282 81.920 C 52.268 74.938,52.380 73.633,53.245 70.613 C 56.406 59.591,63.943 50.945,74.240 46.530 C 76.189 45.694,80.289 44.389,80.480 44.544 C 80.509 44.567,84.611 53.707,89.595 64.853 " stroke="none" fill-rule="evenodd"></path></svg>