<svg fill="currentColor" viewBox="0 0 256 256" xmlns="http://www.w3.org/2000/svg"><path d="M104.320 28.824 C 89.912 30.791,77.439 35.432,65.493 43.270 C 48.170 54.637,35.360 71.306,28.785 91.040 C 27.021 96.332,24.747 106.154,24.747 108.477 C 24.747 109.398,24.162 109.834,20.373 111.737 C 12.452 115.717,7.476 120.680,3.854 128.213 C 0.962 134.229,0.250 137.079,0.230 142.720 C 0.214 147.135,0.288 147.548,1.472 149.685 C 4.625 155.377,11.414 157.555,17.192 154.729 C 21.492 152.625,23.497 149.334,24.101 143.387 C 24.255 141.877,24.675 140.070,25.036 139.373 L 25.692 138.104 26.916 142.857 C 30.060 155.065,35.262 165.690,43.233 176.182 L 46.612 180.630 52.888 198.155 C 56.339 207.794,59.604 216.535,60.142 217.581 C 61.462 220.147,65.254 224.046,67.734 225.388 C 72.075 227.737,74.067 228.056,84.267 228.028 C 92.890 228.004,93.877 227.923,96.404 227.035 C 102.728 224.811,107.077 220.492,109.447 214.080 L 110.196 212.053 135.960 212.053 L 161.725 212.053 162.199 213.227 C 165.352 221.033,169.235 224.979,175.787 227.034 C 179.255 228.122,189.871 228.582,195.804 227.901 C 203.112 227.063,209.044 223.185,211.946 217.349 C 212.635 215.962,216.637 205.179,220.839 193.387 L 228.478 171.947 229.972 171.940 C 232.569 171.929,236.889 170.692,240.616 168.890 C 245.673 166.446,250.405 161.702,252.889 156.587 C 255.884 150.417,256.000 149.348,256.000 127.877 C 256.000 110.373,255.936 108.681,255.150 105.562 C 252.556 95.265,244.888 87.498,234.761 84.907 C 233.004 84.458,232.872 84.304,231.278 80.855 C 227.354 72.361,221.238 63.509,214.294 56.275 L 210.318 52.132 216.626 51.979 C 223.808 51.804,225.620 51.258,228.466 48.412 C 233.217 43.661,233.034 35.577,228.075 31.223 C 224.528 28.109,230.297 28.381,166.187 28.308 C 119.598 28.254,107.771 28.353,104.320 28.824 M161.011 53.271 C 169.204 54.978,176.286 57.700,182.827 61.655 C 195.836 69.523,205.987 81.492,211.233 95.147 C 212.179 97.611,213.177 100.203,213.450 100.907 C 214.150 102.711,217.034 105.723,219.074 106.779 C 220.343 107.436,221.818 107.716,224.640 107.837 C 229.358 108.039,230.577 108.479,231.437 110.291 C 232.432 112.387,232.440 143.595,231.446 145.690 C 230.490 147.705,229.314 148.053,223.447 148.056 C 220.583 148.057,217.546 148.251,216.698 148.486 C 214.512 149.094,211.853 150.988,210.407 152.970 C 209.584 154.097,206.485 162.181,201.170 177.067 C 196.771 189.387,192.799 200.475,192.342 201.707 L 191.512 203.947 187.974 203.947 L 184.437 203.947 183.038 200.000 C 180.559 193.004,179.104 191.005,175.156 189.166 L 173.013 188.168 136.289 188.164 C 95.524 188.160,97.367 188.036,93.905 190.999 C 91.801 192.800,91.212 193.854,89.169 199.467 L 87.616 203.733 84.021 203.850 L 80.427 203.966 74.696 187.850 C 71.544 178.986,68.549 170.773,68.041 169.600 C 67.532 168.427,65.905 166.027,64.423 164.267 C 56.995 155.440,51.827 144.969,49.407 133.840 C 48.595 130.110,48.459 128.163,48.444 120.107 C 48.429 111.814,48.542 110.207,49.412 106.319 C 52.035 94.606,57.006 84.509,64.515 75.639 C 73.010 65.604,85.420 57.808,98.395 54.355 C 106.219 52.272,108.924 52.107,133.547 52.210 C 155.415 52.300,156.568 52.345,161.011 53.271 M112.175 64.654 C 109.761 65.408,106.506 68.206,105.305 70.559 C 104.025 73.065,103.769 77.500,104.756 80.083 C 105.768 82.734,108.511 85.655,111.147 86.887 L 113.280 87.885 135.711 87.889 C 160.617 87.894,160.466 87.909,163.764 85.086 C 165.773 83.367,167.556 79.991,167.938 77.185 C 168.533 72.814,165.907 67.906,161.707 65.537 L 159.360 64.213 136.747 64.127 C 118.113 64.057,113.789 64.149,112.175 64.654 M178.901 104.873 C 174.579 106.421,171.372 109.333,169.430 113.474 C 168.466 115.528,168.320 116.402,168.320 120.107 C 168.320 123.887,168.452 124.642,169.482 126.736 C 171.853 131.561,176.366 134.844,181.937 135.799 C 188.901 136.992,196.717 132.188,199.139 125.227 C 200.211 122.144,200.077 117.373,198.827 114.144 C 197.560 110.871,194.334 107.423,190.934 105.706 C 187.570 104.008,182.330 103.645,178.901 104.873 " stroke="none" fill-rule="evenodd"></path></svg>