<svg fill="currentColor" viewBox="0 0 256 256" xmlns="http://www.w3.org/2000/svg"><path d="M118.613 20.500 C 78.437 24.858,45.646 54.633,37.812 93.867 C 35.909 103.401,35.522 116.042,36.866 124.800 C 38.718 136.872,43.638 150.919,48.623 158.368 C 50.215 160.746,53.147 162.697,56.186 163.400 C 61.934 164.730,68.355 160.874,69.964 155.126 C 70.960 151.568,70.409 148.829,67.509 142.929 C 64.459 136.726,62.297 130.395,61.171 124.373 C 59.961 117.903,60.069 104.668,61.382 98.560 C 63.373 89.293,66.543 81.768,71.712 74.038 C 91.804 43.992,132.629 35.168,163.627 54.172 C 176.781 62.236,187.546 75.778,192.427 90.399 C 195.042 98.234,195.602 102.129,195.592 112.427 C 195.585 120.544,195.453 122.419,194.619 126.293 C 190.061 147.481,176.714 163.480,158.526 169.558 C 143.944 174.432,126.775 171.696,117.737 163.057 L 115.208 160.640 123.527 125.440 C 128.222 105.574,131.864 89.278,131.887 88.032 C 131.962 83.957,130.032 80.257,126.644 77.981 C 120.769 74.036,112.513 76.196,109.476 82.473 C 108.300 84.904,75.947 221.599,75.947 224.137 C 75.947 228.527,79.141 233.307,83.260 235.078 C 85.999 236.257,90.559 236.164,93.213 234.876 C 95.337 233.845,97.725 231.482,98.683 229.463 C 99.088 228.610,101.532 218.921,104.114 207.930 C 106.697 196.939,108.893 187.719,108.994 187.441 C 109.115 187.111,110.705 187.707,113.576 189.156 C 118.496 191.641,123.337 193.314,129.565 194.681 C 135.307 195.942,150.967 196.047,156.587 194.862 C 187.118 188.427,210.234 165.248,217.521 133.760 C 220.523 120.793,220.757 106.737,218.188 93.867 C 210.697 56.349,179.993 27.010,142.072 21.133 C 136.719 20.303,123.671 19.951,118.613 20.500 " stroke="none" fill-rule="evenodd"></path></svg>