<svg fill="currentColor" viewBox="0 0 256 256" xmlns="http://www.w3.org/2000/svg"><path d="M116.693 20.315 C 91.610 21.916,68.359 27.451,45.975 37.149 C 34.136 42.278,21.716 49.147,18.080 52.575 C 12.471 57.863,10.503 66.708,13.361 73.784 C 14.320 76.157,109.085 231.883,112.145 236.113 C 113.995 238.671,117.813 241.542,121.077 242.831 C 124.602 244.222,131.417 244.214,134.965 242.815 C 138.125 241.569,142.283 238.422,144.039 235.947 C 145.817 233.442,239.540 79.942,241.353 76.565 C 244.855 70.046,244.879 63.591,241.427 57.113 C 239.686 53.847,236.639 51.043,231.680 48.142 C 206.441 33.378,178.613 24.290,148.907 21.110 C 143.016 20.479,122.179 19.965,116.693 20.315 M138.461 44.388 C 165.736 46.151,190.231 53.022,213.437 65.417 L 218.448 68.094 214.325 74.900 C 212.058 78.644,210.175 81.751,210.141 81.805 C 210.107 81.859,206.539 80.114,202.213 77.928 C 187.041 70.261,172.087 65.276,156.049 62.541 C 145.787 60.791,140.388 60.373,128.000 60.373 C 115.612 60.373,110.213 60.791,99.951 62.541 C 83.913 65.276,68.959 70.261,53.787 77.928 C 49.461 80.114,45.893 81.859,45.859 81.805 C 45.825 81.751,43.942 78.644,41.675 74.900 L 37.552 68.094 42.563 65.417 C 71.892 49.752,105.942 42.285,138.461 44.388 M145.280 85.111 C 157.233 86.709,169.128 89.758,179.570 93.900 C 184.561 95.881,197.130 101.944,197.271 102.440 C 197.376 102.806,182.959 126.293,182.630 126.293 C 182.461 126.293,180.804 125.891,178.948 125.400 C 173.817 124.041,164.467 123.812,159.145 124.915 C 135.318 129.855,119.979 153.001,124.829 176.699 C 126.444 184.593,130.264 192.022,135.589 197.628 L 137.895 200.057 133.084 207.985 C 130.437 212.345,128.120 215.860,127.935 215.796 C 127.750 215.732,121.356 205.450,113.726 192.947 L 99.853 170.213 102.979 167.087 C 119.820 150.246,120.239 123.002,103.921 105.870 C 98.177 99.840,89.938 95.012,82.667 93.416 C 81.317 93.120,80.213 92.748,80.213 92.590 C 80.213 92.108,91.339 88.788,97.363 87.472 C 103.530 86.126,110.118 85.100,116.480 84.495 C 122.322 83.940,139.225 84.302,145.280 85.111 M76.998 116.707 C 82.695 118.191,87.153 121.893,89.875 127.400 C 91.380 130.447,91.515 131.021,91.652 135.001 C 91.769 138.407,91.624 139.864,90.958 141.973 C 90.165 144.486,87.704 148.910,87.102 148.904 C 86.823 148.901,67.413 117.238,67.413 116.785 C 67.413 115.951,73.893 115.899,76.998 116.707 M169.387 148.274 C 169.387 148.470,151.584 177.836,151.163 178.334 C 150.473 179.151,148.388 172.916,148.159 169.351 C 147.763 163.172,149.572 158.414,153.994 153.999 C 156.854 151.145,159.335 149.664,162.907 148.680 C 164.893 148.133,169.387 147.852,169.387 148.274 " stroke="none" fill-rule="evenodd"></path></svg>