<svg fill="currentColor" viewBox="0 0 256 256" xmlns="http://www.w3.org/2000/svg"><path d="M35.612 52.462 C 30.842 53.484,24.794 57.970,22.498 62.189 C 19.941 66.886,20.053 63.872,20.053 128.000 C 20.053 179.447,20.134 187.012,20.710 189.220 C 22.526 196.196,28.700 202.029,35.900 203.573 C 38.859 204.207,44.026 203.821,46.810 202.758 C 50.404 201.384,139.578 144.406,142.231 141.788 C 145.686 138.378,148.053 132.772,148.053 128.000 C 148.053 123.324,145.707 117.669,142.391 114.353 C 139.941 111.903,50.559 54.770,46.866 53.294 C 44.318 52.276,38.493 51.845,35.612 52.462 M172.246 52.643 C 168.008 54.223,165.139 57.448,164.278 61.600 C 163.967 63.102,163.861 84.288,163.939 129.280 L 164.053 194.773 165.248 197.207 C 166.524 199.805,168.009 201.289,170.830 202.786 C 173.330 204.113,178.670 204.113,181.170 202.786 C 183.991 201.289,185.476 199.805,186.752 197.207 L 187.947 194.773 187.947 128.000 L 187.947 61.227 186.752 58.793 C 184.761 54.739,181.263 52.457,176.640 52.195 C 174.922 52.098,173.250 52.268,172.246 52.643 M219.850 52.759 C 217.059 53.748,213.967 56.784,212.931 59.554 C 212.059 61.883,212.053 62.343,212.053 128.011 C 212.053 192.810,212.070 194.168,212.896 196.342 C 214.579 200.771,219.215 203.947,224.000 203.947 C 228.785 203.947,233.421 200.771,235.104 196.342 C 235.930 194.168,235.947 192.810,235.947 128.011 C 235.947 62.343,235.941 61.883,235.069 59.554 C 234.002 56.702,230.916 53.735,227.975 52.733 C 225.528 51.899,222.249 51.910,219.850 52.759 M82.578 103.957 C 103.101 117.023,119.893 127.851,119.893 128.018 C 119.893 128.358,45.374 175.920,44.500 176.138 C 44.049 176.250,43.947 167.317,43.947 127.986 C 43.947 84.656,44.014 79.721,44.604 79.948 C 44.966 80.087,62.054 90.891,82.578 103.957 " stroke="none" fill-rule="evenodd"></path></svg>