<svg fill="currentColor" viewBox="0 0 256 256" xmlns="http://www.w3.org/2000/svg"><path d="M228.053 12.628 C 226.128 13.237,224.556 14.662,211.946 27.224 L 197.972 41.145 195.519 38.778 C 187.483 31.020,178.613 27.671,167.762 28.299 C 162.492 28.603,159.339 29.364,154.948 31.389 C 149.753 33.785,146.631 36.365,135.017 47.862 L 123.900 58.866 121.790 56.721 C 117.083 51.937,111.751 50.785,106.617 53.443 C 100.670 56.521,98.431 62.895,101.134 69.052 C 101.836 70.653,110.048 79.088,143.270 112.334 C 188.850 157.947,186.570 155.909,192.000 155.909 C 197.060 155.909,200.747 153.442,202.994 148.554 C 203.859 146.673,204.009 145.790,203.866 143.434 C 203.647 139.853,202.712 137.911,199.632 134.638 L 197.198 132.053 208.588 120.533 C 215.847 113.192,220.701 107.919,221.972 105.995 C 228.767 95.709,229.819 82.161,224.685 71.050 C 222.792 66.952,221.051 64.438,217.652 60.895 L 214.878 58.004 228.788 44.042 C 242.405 30.375,242.714 30.027,243.428 27.552 C 245.621 19.949,240.647 12.713,232.836 12.145 C 231.108 12.020,229.445 12.187,228.053 12.628 M175.659 53.518 C 177.091 54.298,181.736 58.633,189.781 66.700 C 203.703 80.660,204.203 81.375,203.853 86.829 C 203.704 89.164,203.379 90.398,202.548 91.795 C 201.940 92.817,196.629 98.452,190.747 104.318 L 180.051 114.983 160.534 95.466 L 141.017 75.949 151.469 65.475 C 161.877 55.044,163.415 53.715,166.350 52.616 C 168.779 51.707,173.100 52.126,175.659 53.518 M61.748 100.306 C 58.966 100.743,56.090 102.524,54.470 104.814 C 52.673 107.355,52.125 108.965,52.086 111.817 C 52.035 115.504,53.076 117.898,56.142 121.148 L 58.833 124.001 50.279 132.507 C 45.574 137.186,40.056 142.876,38.015 145.153 C 31.309 152.637,28.152 160.526,28.167 169.761 C 28.184 179.905,31.520 188.120,38.542 195.306 L 41.146 197.971 27.224 211.946 C 13.595 225.625,13.286 225.973,12.572 228.448 C 9.864 237.835,18.154 246.128,27.552 243.432 C 30.030 242.722,30.359 242.429,44.051 228.777 L 58.023 214.848 60.691 217.455 C 63.405 220.107,67.105 222.784,70.187 224.327 C 76.867 227.672,86.506 228.759,94.041 227.018 C 98.718 225.937,104.547 223.239,107.947 220.580 C 109.237 219.571,115.189 213.896,121.173 207.969 L 132.053 197.192 134.942 199.892 C 138.161 202.901,140.497 203.947,144.000 203.947 C 150.710 203.947,155.967 198.683,155.932 192.000 C 155.907 187.298,155.081 186.066,145.475 176.418 L 136.968 167.875 143.562 161.291 C 151.319 153.547,152.079 152.270,151.812 147.448 C 151.536 142.463,149.272 139.141,144.736 137.065 C 142.750 136.155,141.968 136.030,139.366 136.199 C 137.437 136.325,135.694 136.725,134.613 137.289 C 133.675 137.779,130.029 141.074,126.511 144.610 L 120.116 151.041 112.544 143.478 L 104.972 135.914 111.734 129.077 C 119.497 121.228,120.111 120.183,119.816 115.329 C 119.519 110.455,117.216 107.116,112.736 105.065 C 110.750 104.155,109.968 104.030,107.366 104.199 C 105.437 104.325,103.694 104.725,102.613 105.289 C 101.675 105.779,98.034 109.068,94.524 112.598 L 88.141 119.016 79.377 110.351 C 72.367 103.420,70.229 101.551,68.693 101.007 C 66.161 100.111,64.230 99.916,61.748 100.306 M95.575 160.648 L 114.987 180.069 103.680 191.312 C 93.345 201.588,92.176 202.619,90.075 203.304 C 86.921 204.333,83.147 204.009,80.311 202.465 C 77.427 200.896,54.678 178.055,53.327 175.373 C 51.999 172.735,51.740 168.856,52.696 165.925 C 53.381 163.827,54.416 162.651,64.572 152.427 C 70.691 146.267,75.802 141.227,75.930 141.227 C 76.059 141.227,84.899 149.966,95.575 160.648 " stroke="none" fill-rule="evenodd"></path></svg>