<svg fill="currentColor" viewBox="0 0 256 256" xmlns="http://www.w3.org/2000/svg"><path d="M228.053 12.650 C 226.069 13.249,224.114 15.097,200.044 39.128 L 174.169 64.962 171.031 62.227 C 165.391 57.311,161.961 55.333,155.865 53.484 C 152.593 52.491,151.333 52.340,146.133 52.314 C 141.191 52.289,139.596 52.446,136.893 53.223 C 128.127 55.743,125.178 57.860,111.263 71.619 L 99.859 82.895 96.870 80.075 C 94.491 77.831,93.385 77.110,91.457 76.550 C 82.243 73.872,73.871 82.241,76.549 91.452 C 77.111 93.386,77.829 94.489,80.077 96.872 L 82.900 99.865 71.826 111.052 C 58.140 124.878,56.122 127.599,53.565 135.680 C 52.181 140.053,51.701 146.707,52.433 151.377 C 53.506 158.234,56.546 164.521,61.580 170.296 L 64.959 174.172 39.126 200.046 C 13.358 225.854,13.291 225.926,12.568 228.448 C 9.873 237.844,18.150 246.122,27.552 243.435 C 30.075 242.713,30.132 242.660,55.966 216.861 L 81.853 191.010 84.980 193.781 C 90.252 198.452,93.648 200.441,99.840 202.483 C 103.184 203.586,103.982 203.680,110.080 203.680 C 116.178 203.680,116.976 203.586,120.320 202.483 C 128.592 199.755,131.110 197.889,144.744 184.384 L 156.154 173.081 159.037 175.860 C 162.522 179.219,165.129 180.287,168.989 179.937 C 176.620 179.245,181.596 171.925,179.451 164.548 C 178.889 162.614,178.171 161.511,175.925 159.130 L 173.105 156.141 184.390 144.737 C 190.597 138.465,196.454 132.181,197.405 130.773 C 200.646 125.978,202.622 121.176,203.552 115.837 C 204.184 112.207,203.829 104.415,202.872 100.907 C 201.255 94.976,197.652 88.891,192.703 83.728 L 190.959 81.910 216.833 55.995 C 242.642 30.145,242.709 30.074,243.432 27.552 C 245.302 21.033,241.798 14.491,235.424 12.598 C 232.732 11.798,230.831 11.812,228.053 12.650 M93.227 20.027 C 89.869 20.848,86.711 23.376,85.064 26.562 C 84.672 27.320,84.260 29.213,84.149 30.769 C 83.963 33.373,84.158 34.233,86.601 41.562 C 89.726 50.938,90.779 52.552,95.147 54.657 C 96.523 55.321,97.874 55.584,99.921 55.587 C 106.636 55.599,111.787 50.461,111.787 43.751 C 111.787 41.182,107.281 27.210,105.665 24.768 C 103.229 21.087,97.626 18.951,93.227 20.027 M151.362 77.399 C 152.766 78.118,157.266 82.339,166.038 91.165 C 177.960 103.159,178.729 104.027,179.372 106.211 C 180.232 109.137,180.232 111.025,179.371 113.949 C 178.730 116.122,177.978 116.980,167.327 127.688 L 155.966 139.109 136.650 119.796 C 126.026 109.174,117.333 100.286,117.333 100.044 C 117.333 99.295,138.792 78.221,140.373 77.417 C 143.812 75.668,147.973 75.662,151.362 77.399 M27.996 84.753 C 25.203 85.610,21.752 89.032,20.769 91.920 C 19.196 96.533,20.219 100.915,23.674 104.370 C 25.817 106.512,26.055 106.623,34.576 109.435 C 44.128 112.587,45.348 112.717,49.240 110.995 C 53.186 109.250,56.320 104.406,56.320 100.053 C 56.320 97.208,54.893 93.888,52.804 91.873 C 50.451 89.603,49.809 89.305,41.106 86.453 C 33.291 83.891,31.540 83.664,27.996 84.753 M119.572 136.425 C 130.074 146.925,138.667 155.711,138.667 155.948 C 138.667 156.842,117.128 177.836,115.252 178.770 C 112.614 180.083,109.495 180.315,106.421 179.427 C 103.958 178.715,103.567 178.373,91.165 166.042 C 76.649 151.609,76.207 151.015,76.206 145.920 C 76.205 143.417,76.419 142.302,77.188 140.800 C 78.179 138.867,99.148 117.333,100.040 117.333 C 100.280 117.333,109.069 125.925,119.572 136.425 M207.019 145.518 C 205.582 146.236,203.889 147.436,203.256 148.185 C 198.726 153.545,199.643 161.891,205.186 165.732 C 207.437 167.292,221.542 171.947,224.017 171.947 C 230.425 171.947,235.947 166.417,235.947 160.000 C 235.947 156.795,234.774 154.078,232.340 151.644 C 230.242 149.546,229.877 149.372,222.281 146.840 C 212.800 143.680,211.007 143.525,207.019 145.518 M152.270 200.269 C 149.748 201.170,147.625 202.677,146.302 204.503 C 144.961 206.354,143.787 209.738,143.787 211.753 C 143.787 212.441,145.047 216.823,146.587 221.491 C 148.584 227.541,149.784 230.498,150.766 231.785 C 152.439 233.978,156.166 235.990,159.073 236.270 C 163.798 236.724,168.885 233.757,170.937 229.350 C 172.618 225.740,172.364 223.340,169.332 214.187 C 166.612 205.976,165.368 203.659,162.701 201.826 C 159.820 199.847,155.328 199.176,152.270 200.269 " stroke="none" fill-rule="evenodd"></path></svg>