<svg fill="currentColor" viewBox="0 0 256 256" xmlns="http://www.w3.org/2000/svg"><path d="M181.048 12.356 C 180.305 12.533,178.865 13.173,177.848 13.778 C 176.832 14.383,168.803 22.089,160.006 30.902 L 144.012 46.926 131.632 34.601 C 123.725 26.729,118.560 21.917,117.333 21.279 C 115.794 20.479,114.737 20.280,112.000 20.274 C 108.964 20.267,108.327 20.413,106.240 21.590 C 103.361 23.214,101.350 25.744,100.435 28.893 C 99.159 33.279,100.410 37.252,104.377 41.410 L 106.818 43.969 80.575 70.304 C 65.365 85.568,53.497 97.826,52.345 99.460 C 41.668 114.607,41.257 134.126,51.292 149.373 C 53.198 152.268,56.134 155.622,61.826 161.407 L 69.717 169.426 45.737 193.410 C 24.213 214.936,21.670 217.622,20.905 219.634 C 18.691 225.462,21.222 231.946,26.880 234.937 C 28.976 236.044,35.014 236.048,37.120 234.942 C 37.941 234.511,49.404 223.386,62.593 210.220 L 86.574 186.283 94.593 194.174 C 105.572 204.977,110.345 208.029,120.734 210.887 C 125.368 212.162,136.178 212.162,140.813 210.887 C 146.375 209.357,150.772 207.437,154.919 204.729 C 158.413 202.448,162.378 198.674,185.481 175.643 L 212.028 149.179 214.589 151.622 C 217.894 154.775,220.380 155.913,224.000 155.932 C 229.098 155.959,233.773 152.669,235.340 147.954 C 236.208 145.340,236.007 141.274,234.890 138.880 C 234.381 137.788,229.589 132.636,221.587 124.578 L 209.080 111.982 225.263 95.804 C 236.085 84.985,241.817 78.942,242.568 77.563 C 245.820 71.587,243.056 63.745,236.740 61.028 C 234.032 59.863,229.470 59.945,226.773 61.208 C 225.657 61.731,219.347 67.698,208.527 78.464 L 191.988 94.920 176.532 79.463 L 161.075 64.007 177.585 47.470 C 195.779 29.246,195.947 29.033,195.947 24.128 C 195.947 16.292,188.668 10.541,181.048 12.356 M169.280 157.773 C 155.141 171.921,142.694 184.064,141.619 184.759 C 135.377 188.795,127.400 188.996,120.747 185.287 C 118.403 183.980,73.083 138.929,71.239 136.072 C 67.227 129.859,67.171 121.011,71.102 114.633 C 71.705 113.654,83.841 101.188,98.070 86.931 L 123.941 61.010 159.464 96.530 L 194.986 132.051 169.280 157.773 " stroke="none" fill-rule="evenodd"></path></svg>