<svg fill="currentColor" viewBox="0 0 256 256" xmlns="http://www.w3.org/2000/svg"><path d="M115.226 12.410 C 104.899 13.747,95.511 19.710,89.653 28.653 C 84.251 36.900,82.637 48.439,85.521 58.190 C 86.138 60.274,86.588 62.016,86.521 62.061 C 86.242 62.247,60.244 85.589,58.851 86.904 L 57.329 88.342 54.881 87.259 C 39.793 80.587,22.006 84.870,11.878 97.614 C 2.145 109.862,1.382 126.943,9.988 139.888 C 12.470 143.621,17.828 148.735,21.588 150.960 C 27.467 154.439,36.311 156.527,42.667 155.939 C 48.424 155.405,55.347 153.129,58.894 150.604 L 60.170 149.695 92.058 173.043 C 109.597 185.885,124.282 196.704,124.691 197.086 C 125.382 197.729,125.390 197.995,124.805 200.756 C 123.320 207.769,124.310 216.420,127.350 223.001 C 137.641 245.273,166.681 251.034,184.400 234.319 C 192.027 227.124,195.844 218.359,195.837 208.052 C 195.831 198.100,192.579 190.124,185.553 182.827 L 182.678 179.840 195.339 143.896 L 208.000 107.952 209.831 107.950 C 212.696 107.945,217.911 106.739,221.703 105.203 C 238.466 98.416,247.626 79.529,242.576 62.162 C 240.744 55.865,237.924 51.104,233.327 46.550 C 226.447 39.733,217.897 36.211,208.213 36.204 C 197.080 36.195,187.521 40.577,180.528 48.895 C 179.462 50.163,178.295 51.196,177.935 51.192 C 177.575 51.187,172.490 49.873,166.635 48.271 L 155.991 45.358 155.450 42.154 C 154.138 34.386,150.546 27.668,144.739 22.120 C 138.968 16.606,132.197 13.337,124.598 12.395 C 120.557 11.894,119.199 11.896,115.226 12.410 M124.828 37.073 C 127.311 38.201,129.355 40.140,130.571 42.520 C 132.082 45.479,132.082 50.521,130.571 53.480 C 128.507 57.521,124.561 59.890,119.893 59.890 C 113.185 59.890,108.183 54.812,108.183 48.000 C 108.183 43.166,110.445 39.519,114.859 37.239 C 117.272 35.992,122.265 35.909,124.828 37.073 M213.872 61.571 C 217.775 63.859,219.712 67.277,219.720 71.893 C 219.726 75.726,218.491 78.503,215.679 80.978 C 211.043 85.059,204.571 84.988,200.100 80.806 C 193.514 74.645,195.527 63.842,203.839 60.743 C 206.447 59.771,211.513 60.189,213.872 61.571 M160.843 71.528 C 166.598 73.087,171.547 74.550,171.840 74.780 C 172.133 75.010,172.373 75.825,172.373 76.591 C 172.373 78.601,174.295 84.936,175.841 88.020 C 177.543 91.415,180.792 95.819,183.305 98.135 C 185.233 99.913,185.265 99.984,184.804 101.496 C 184.545 102.345,178.880 118.496,172.215 137.387 L 160.097 171.733 156.102 172.267 C 151.071 172.938,147.497 174.074,143.105 176.398 L 139.651 178.226 107.692 154.798 C 90.115 141.912,75.470 131.109,75.148 130.791 C 74.652 130.300,74.652 129.864,75.148 127.933 C 75.518 126.493,75.722 123.452,75.701 119.680 C 75.673 114.458,75.524 113.230,74.514 109.917 C 73.878 107.832,73.412 106.075,73.479 106.013 C 73.545 105.950,80.128 100.015,88.107 92.823 C 97.190 84.637,102.853 79.823,103.253 79.949 C 103.605 80.059,105.057 80.636,106.480 81.232 C 110.394 82.872,113.712 83.630,118.187 83.907 C 129.150 84.584,140.249 79.717,147.555 71.028 C 148.634 69.744,149.711 68.693,149.948 68.693 C 150.185 68.693,155.088 69.969,160.843 71.528 M45.018 109.185 C 49.247 111.055,51.845 115.250,51.783 120.107 C 51.738 123.663,50.960 125.647,48.612 128.194 C 43.063 134.214,32.895 132.658,29.218 125.227 C 28.082 122.931,28.035 116.923,29.136 114.886 C 30.886 111.649,33.921 109.220,37.333 108.324 C 39.164 107.843,42.942 108.266,45.018 109.185 M166.371 197.866 C 172.569 201.679,173.692 210.365,168.747 216.241 C 166.927 218.404,163.327 219.912,160.029 219.892 C 155.388 219.863,151.760 217.719,149.525 213.685 C 148.426 211.701,148.267 210.982,148.267 208.000 C 148.267 204.976,148.417 204.319,149.586 202.240 C 151.339 199.121,154.702 196.731,157.916 196.321 C 161.112 195.913,164.078 196.455,166.371 197.866 " stroke="none" fill-rule="evenodd"></path></svg>