<svg fill="currentColor" viewBox="0 0 256 256" xmlns="http://www.w3.org/2000/svg"><path d="M125.155 12.331 C 123.048 12.872,120.084 14.777,118.657 16.509 C 116.447 19.190,116.053 21.091,116.053 29.081 L 116.053 36.250 75.413 36.365 L 34.773 36.480 31.811 37.883 C 30.182 38.654,28.038 39.950,27.047 40.762 C 24.606 42.762,21.950 46.856,20.911 50.221 C 20.068 52.948,20.053 54.105,20.053 115.795 C 20.053 184.303,19.940 181.004,22.459 185.633 C 23.781 188.062,27.297 191.696,29.687 193.104 C 30.645 193.668,32.565 194.546,33.954 195.056 C 36.352 195.935,37.342 195.992,53.440 196.165 C 62.768 196.266,70.400 196.427,70.400 196.522 C 70.400 196.617,66.603 201.447,61.961 207.254 C 57.320 213.062,53.240 218.485,52.895 219.307 C 52.514 220.212,52.271 222.144,52.278 224.213 C 52.292 228.216,53.128 230.198,55.837 232.645 C 58.229 234.806,59.907 235.578,62.779 235.838 C 65.803 236.113,68.573 235.397,70.840 233.755 C 71.763 233.086,79.052 224.377,87.038 214.403 L 101.557 196.267 127.962 196.267 L 154.366 196.267 167.905 213.227 C 182.840 231.935,184.191 233.487,186.654 234.759 C 189.073 236.008,193.036 236.238,195.875 235.295 C 200.444 233.778,203.947 228.876,203.947 224.000 C 203.947 220.193,203.021 218.634,194.112 207.439 C 189.430 201.556,185.600 196.654,185.600 196.545 C 185.600 196.437,193.232 196.266,202.560 196.165 C 218.658 195.992,219.648 195.935,222.046 195.056 C 223.435 194.546,225.355 193.668,226.313 193.104 C 228.703 191.696,232.219 188.062,233.541 185.633 C 236.060 181.005,235.947 184.278,235.947 116.053 C 235.947 61.241,235.866 53.202,235.293 51.002 C 233.790 45.231,230.006 40.672,224.564 38.074 L 221.227 36.480 180.693 36.267 L 140.160 36.053 139.947 28.373 C 139.754 21.453,139.636 20.495,138.744 18.685 C 136.412 13.950,130.187 11.040,125.155 12.331 M212.053 116.053 L 212.053 171.947 128.000 171.947 L 43.947 171.947 43.947 116.053 L 43.947 60.160 128.000 60.160 L 212.053 60.160 212.053 116.053 " stroke="none" fill-rule="evenodd"></path></svg>