<svg fill="currentColor" viewBox="0 0 256 256" xmlns="http://www.w3.org/2000/svg"><path d="M119.680 20.310 C 97.411 22.610,80.001 29.205,63.147 41.728 C 57.186 46.157,46.223 57.026,41.973 62.720 C 16.611 96.701,12.928 141.035,32.385 178.133 C 37.761 188.385,42.832 195.175,51.828 204.172 C 60.825 213.168,67.615 218.239,77.867 223.615 C 114.965 243.072,159.250 239.395,193.280 214.031 C 198.497 210.143,210.143 198.497,214.031 193.280 C 228.489 173.882,235.947 151.668,235.947 128.000 C 235.947 92.235,218.399 59.167,188.587 38.752 C 175.422 29.738,160.539 23.864,144.427 21.325 C 139.077 20.483,124.002 19.864,119.680 20.310 M135.040 44.374 C 172.305 47.758,202.630 74.580,210.140 110.797 C 215.959 138.858,207.285 167.541,186.865 187.761 C 173.241 201.252,155.612 209.521,136.017 211.611 C 111.761 214.199,86.191 204.984,68.686 187.348 C 48.533 167.041,40.077 138.684,45.860 110.797 C 54.430 69.467,93.221 40.575,135.040 44.374 M91.872 84.752 C 89.588 85.561,86.415 88.354,85.214 90.612 C 83.958 92.973,83.871 98.858,85.058 101.120 C 86.143 103.188,152.525 169.634,154.667 170.797 C 156.969 172.046,162.871 172.125,165.120 170.937 C 170.775 167.947,173.296 161.501,171.101 155.643 C 170.330 153.584,167.280 150.416,136.221 119.413 C 105.169 88.417,102.002 85.379,100.084 84.747 C 97.524 83.903,94.263 83.905,91.872 84.752 " stroke="none" fill-rule="evenodd"></path></svg>