<svg fill="currentColor" viewBox="0 0 256 256" xmlns="http://www.w3.org/2000/svg"><path d="M42.880 29.166 C 36.908 31.960,34.339 38.883,37.040 44.906 C 37.543 46.030,42.424 51.731,49.860 59.884 C 56.464 67.123,61.867 73.217,61.867 73.426 C 61.867 74.038,46.085 163.148,45.873 163.733 C 45.736 164.112,44.408 164.269,41.293 164.276 C 35.146 164.289,32.102 165.818,29.538 170.178 C 28.503 171.940,28.373 172.586,28.373 176.000 C 28.373 179.414,28.503 180.060,29.538 181.822 C 30.920 184.172,32.783 185.832,35.413 187.054 C 37.312 187.937,37.778 187.948,76.693 188.064 L 116.053 188.181 116.053 215.409 L 116.053 242.637 117.358 245.248 C 119.563 249.661,123.128 251.883,128.029 251.900 C 132.777 251.916,136.395 249.654,138.794 245.170 C 139.731 243.418,139.734 243.332,139.852 215.787 L 139.971 188.160 153.292 188.183 L 166.613 188.207 183.581 206.922 C 202.823 228.147,202.219 227.635,208.000 227.615 C 210.649 227.606,211.800 227.399,213.139 226.691 C 215.476 225.456,218.158 222.456,219.076 220.051 C 220.011 217.602,219.834 212.999,218.715 210.689 C 218.295 209.822,181.389 168.893,136.702 119.737 C 46.388 20.392,53.907 28.156,48.023 28.164 C 45.767 28.167,44.479 28.418,42.880 29.166 M97.050 29.169 C 95.831 29.737,94.120 31.058,93.095 32.221 C 87.516 38.559,90.031 48.209,98.043 51.209 C 100.219 52.024,101.455 52.053,133.136 52.053 C 151.197 52.053,165.973 52.142,165.973 52.251 C 165.973 53.636,182.359 144.653,182.797 145.702 C 183.130 146.497,184.189 148.002,185.151 149.046 C 192.417 156.929,205.653 151.777,205.653 141.066 C 205.654 139.437,191.698 58.345,190.510 53.072 C 190.325 52.253,190.532 52.150,192.780 51.946 C 199.582 51.330,204.379 45.748,203.844 39.076 C 203.490 34.675,200.800 30.901,196.693 29.046 C 194.800 28.191,194.110 28.179,146.987 28.174 L 99.200 28.168 97.050 29.169 M113.526 129.912 C 130.287 148.351,144.064 163.624,144.142 163.852 C 144.234 164.118,131.047 164.267,107.295 164.267 L 70.305 164.267 70.552 162.880 C 70.687 162.117,73.209 147.765,76.156 130.987 C 82.363 95.643,82.309 95.926,82.731 96.187 C 82.908 96.296,96.766 111.473,113.526 129.912 " stroke="none" fill-rule="evenodd"></path></svg>