<svg fill="currentColor" viewBox="0 0 256 256" xmlns="http://www.w3.org/2000/svg"><path d="M130.586 12.382 C 119.817 13.887,109.087 20.555,102.855 29.612 C 99.380 34.663,96.688 42.335,96.157 48.702 L 95.877 52.053 78.748 52.053 C 60.204 52.053,59.012 52.171,54.522 54.446 C 51.690 55.881,47.775 59.796,46.340 62.628 C 44.171 66.908,43.960 68.907,43.953 85.227 L 43.947 100.267 41.415 100.267 C 30.664 100.267,17.795 107.457,11.232 117.131 C 2.111 130.578,1.617 146.808,9.900 160.910 C 12.424 165.207,18.823 171.543,23.366 174.242 C 27.988 176.989,34.160 179.070,39.615 179.723 L 43.947 180.241 43.947 195.204 C 43.947 207.091,44.078 210.670,44.583 212.611 C 46.391 219.551,51.271 224.783,58.134 227.138 L 60.800 228.053 133.333 228.171 C 179.395 228.246,207.255 228.134,209.671 227.865 C 219.804 226.735,226.740 219.749,227.882 209.524 C 228.147 207.147,228.269 197.046,228.188 184.173 L 228.053 162.773 226.863 160.349 C 224.684 155.912,220.770 153.466,215.912 153.505 C 214.096 153.519,212.421 153.829,211.121 154.390 C 207.771 155.836,204.283 156.345,201.525 155.792 C 196.010 154.684,191.905 151.619,189.571 146.866 C 188.489 144.663,188.373 143.993,188.373 139.947 C 188.373 135.663,188.437 135.350,189.820 132.799 C 191.505 129.692,193.984 127.261,197.188 125.573 C 199.274 124.475,199.845 124.375,203.947 124.387 C 207.702 124.399,208.772 124.560,210.560 125.384 C 216.941 128.323,224.185 125.680,227.035 119.373 L 228.053 117.120 228.053 93.013 C 228.053 69.013,228.049 68.894,227.079 66.087 C 225.376 61.161,222.814 57.916,218.326 55.000 C 214.109 52.259,212.345 52.053,193.115 52.053 L 176.266 52.053 176.018 50.027 C 175.140 42.829,174.009 38.629,171.737 34.133 C 166.297 23.364,156.120 15.428,144.658 13.017 C 140.730 12.191,134.095 11.891,130.586 12.382 M141.988 37.211 C 145.225 38.409,148.889 41.937,150.410 45.320 C 152.288 49.494,152.363 53.360,150.663 58.236 C 148.452 64.576,149.083 68.498,152.932 72.348 C 156.618 76.033,155.928 75.947,181.623 75.947 L 203.947 75.947 203.947 88.107 L 203.947 100.267 201.415 100.267 C 191.866 100.267,179.691 106.437,173.239 114.545 C 167.113 122.243,164.232 130.242,164.166 139.733 C 164.117 146.819,165.456 152.269,168.843 158.771 C 174.839 170.280,186.400 178.142,199.659 179.728 L 203.947 180.241 203.947 192.094 L 203.947 203.947 136.136 203.947 L 68.325 203.947 68.189 183.360 L 68.053 162.773 66.863 160.349 C 65.512 157.599,63.414 155.565,60.675 154.354 C 58.142 153.234,53.789 153.243,51.162 154.375 C 44.555 157.220,38.317 156.275,33.351 151.677 C 31.897 150.331,30.376 148.382,29.632 146.913 C 28.476 144.629,28.373 144.061,28.373 139.947 C 28.373 135.874,28.483 135.253,29.575 133.120 C 31.174 129.996,33.784 127.368,36.907 125.736 C 39.301 124.484,39.756 124.398,43.947 124.396 C 47.730 124.395,48.759 124.548,50.560 125.381 C 56.976 128.346,64.168 125.713,67.047 119.345 C 68.053 117.121,68.053 117.108,68.189 96.547 L 68.325 75.975 91.229 75.854 C 114.074 75.734,114.138 75.731,115.935 74.770 C 118.418 73.444,120.657 71.099,121.685 68.749 C 122.845 66.096,122.849 61.911,121.692 59.268 C 119.540 54.349,119.517 49.701,121.624 45.246 C 125.251 37.577,133.833 34.191,141.988 37.211 " stroke="none" fill-rule="evenodd"></path></svg>