<svg fill="currentColor" viewBox="0 0 256 256" xmlns="http://www.w3.org/2000/svg"><path d="M49.556 37.113 C 42.549 39.653,37.491 45.644,36.278 52.842 C 35.952 54.774,35.840 63.376,35.927 79.787 L 36.054 103.893 37.158 106.729 C 39.636 113.094,44.168 117.257,50.744 119.206 C 52.760 119.804,56.326 119.893,78.112 119.893 C 101.806 119.893,103.310 119.848,105.875 119.055 C 112.164 117.112,117.112 112.164,119.055 105.875 C 119.848 103.310,119.893 101.806,119.893 78.112 C 119.893 56.318,119.804 52.760,119.206 50.744 C 117.439 44.790,113.965 40.678,108.493 38.065 L 105.173 36.480 78.507 36.382 C 53.045 36.289,51.737 36.322,49.556 37.113 M149.568 37.162 C 144.728 38.838,140.612 42.302,138.463 46.507 C 136.099 51.133,136.107 51.030,136.107 78.112 C 136.107 101.806,136.152 103.310,136.945 105.875 C 138.888 112.164,143.836 117.112,150.125 119.055 C 152.690 119.848,154.194 119.893,177.888 119.893 C 199.674 119.893,203.240 119.804,205.256 119.206 C 211.832 117.257,216.364 113.094,218.842 106.729 L 219.946 103.893 220.075 79.787 C 220.163 63.520,220.052 54.793,219.733 52.953 C 218.612 46.479,214.360 40.832,208.427 37.937 L 205.440 36.480 178.773 36.381 C 152.814 36.285,152.039 36.306,149.568 37.162 M96.000 78.080 L 96.000 96.000 78.080 96.000 L 60.160 96.000 60.160 78.080 L 60.160 60.160 78.080 60.160 L 96.000 60.160 96.000 78.080 M195.840 78.080 L 195.840 96.000 177.920 96.000 L 160.000 96.000 160.000 78.080 L 160.000 60.160 177.920 60.160 L 195.840 60.160 195.840 78.080 M50.880 136.766 C 44.512 138.481,39.377 143.189,37.069 149.428 C 36.082 152.095,36.077 152.212,35.939 176.213 C 35.843 192.675,35.951 201.220,36.278 203.158 C 37.330 209.402,41.582 215.155,47.096 217.798 C 48.767 218.598,51.381 219.467,52.907 219.729 C 54.790 220.052,63.419 220.164,79.787 220.075 L 103.893 219.946 106.729 218.842 C 113.094 216.364,117.257 211.832,119.206 205.256 C 119.804 203.240,119.893 199.674,119.893 177.888 C 119.893 154.194,119.848 152.690,119.055 150.125 C 117.050 143.637,111.665 138.455,105.167 136.763 C 101.590 135.831,54.341 135.834,50.880 136.766 M144.637 136.480 C 141.370 137.551,138.415 140.210,136.993 143.360 C 136.175 145.170,136.125 146.121,136.120 160.000 C 136.115 174.543,136.127 174.746,137.113 176.853 C 139.277 181.480,143.786 184.161,148.799 183.801 C 152.363 183.545,154.641 182.434,156.929 179.834 C 159.890 176.471,160.000 175.758,160.000 160.000 C 160.000 144.445,159.875 143.583,157.168 140.420 C 154.775 137.625,152.342 136.423,148.755 136.264 C 147.078 136.190,145.225 136.287,144.637 136.480 M179.638 136.848 C 178.485 137.255,176.853 138.398,175.514 139.737 C 171.853 143.398,171.947 142.568,171.947 171.384 L 171.947 196.267 158.377 196.267 L 144.808 196.267 142.591 197.371 C 133.796 201.754,133.942 214.379,142.838 218.747 L 145.280 219.947 164.634 220.074 C 177.465 220.158,184.745 220.044,186.234 219.735 C 190.405 218.869,194.215 215.549,195.484 211.675 C 195.825 210.632,196.044 204.654,196.158 193.216 L 196.327 176.298 203.443 176.132 C 211.542 175.943,213.627 175.353,216.451 172.454 C 219.706 169.113,220.881 163.431,219.139 159.457 C 218.116 157.122,215.627 154.552,213.147 153.270 C 211.118 152.221,210.545 152.142,203.710 151.977 L 196.434 151.800 196.001 148.113 C 195.506 143.906,194.609 141.730,192.497 139.619 C 189.246 136.367,184.126 135.264,179.638 136.848 M96.000 178.133 L 96.000 196.267 78.080 196.267 L 60.160 196.267 60.160 178.133 L 60.160 160.000 78.080 160.000 L 96.000 160.000 96.000 178.133 " stroke="none" fill-rule="evenodd"></path></svg>