<svg fill="currentColor" viewBox="0 0 256 256" xmlns="http://www.w3.org/2000/svg"><path d="M35.200 52.646 C 28.041 54.391,22.045 60.588,20.500 67.840 C 20.135 69.556,20.036 79.648,20.134 105.387 L 20.267 140.587 21.269 143.072 C 23.482 148.556,28.199 153.074,33.707 154.983 C 36.467 155.940,36.624 155.945,66.240 156.066 L 96.000 156.188 95.997 159.054 C 95.988 167.286,93.200 174.185,87.623 179.776 C 82.692 184.721,76.659 187.340,68.420 188.112 C 63.826 188.542,62.372 189.075,59.925 191.223 C 56.304 194.402,55.014 200.453,57.022 204.838 C 59.805 210.919,65.514 212.969,75.448 211.457 C 94.958 208.486,111.077 194.955,117.327 176.302 C 119.943 168.491,119.893 169.649,119.893 116.889 C 119.893 70.860,119.858 68.656,119.085 66.172 C 116.985 59.426,111.068 54.009,104.192 52.537 C 100.891 51.831,38.139 51.930,35.200 52.646 M151.253 52.660 C 144.415 54.371,138.765 59.788,136.787 66.531 C 136.189 68.568,136.107 73.083,136.107 103.893 C 136.107 134.868,136.186 139.208,136.794 141.256 C 138.743 147.832,142.905 152.363,149.271 154.843 L 152.107 155.947 182.144 156.070 L 212.181 156.193 211.904 160.550 C 211.365 169.041,208.934 174.586,203.356 180.053 C 198.491 184.822,192.559 187.354,184.479 188.111 C 179.365 188.590,177.492 189.408,174.983 192.258 C 171.982 195.667,171.233 199.875,172.856 204.211 C 174.054 207.414,176.605 209.949,179.880 211.191 C 182.104 212.035,182.906 212.118,186.707 211.895 C 194.255 211.453,200.991 209.640,207.584 206.276 C 212.741 203.645,216.326 200.997,220.821 196.502 C 228.478 188.844,233.462 179.161,235.301 168.371 C 236.228 162.932,236.264 70.565,235.341 67.096 C 233.416 59.865,227.356 54.016,220.246 52.527 C 216.864 51.819,154.132 51.939,151.253 52.660 M96.000 104.110 L 96.000 132.273 70.080 132.163 L 44.160 132.053 44.050 104.000 L 43.941 75.947 69.970 75.947 L 96.000 75.947 96.000 104.110 M212.053 104.107 L 212.053 132.267 186.027 132.267 L 160.000 132.267 160.000 104.107 L 160.000 75.947 186.027 75.947 L 212.053 75.947 212.053 104.107 " stroke="none" fill-rule="evenodd"></path></svg>