<svg fill="currentColor" viewBox="0 0 256 256" xmlns="http://www.w3.org/2000/svg"><path d="M123.372 4.920 C 120.982 5.958,118.848 7.927,117.525 10.315 L 116.267 12.587 116.140 28.245 L 116.014 43.903 83.074 44.059 C 51.135 44.210,50.039 44.242,47.018 45.111 C 35.580 48.399,26.586 56.362,22.566 66.759 C 19.928 73.580,20.024 70.751,20.163 137.607 C 20.306 206.603,19.955 200.000,23.911 208.000 C 28.826 217.939,37.523 224.698,48.796 227.340 C 51.581 227.993,58.314 228.053,128.000 228.053 C 197.686 228.053,204.419 227.993,207.204 227.340 C 218.477 224.698,227.174 217.939,232.089 208.000 C 236.045 200.000,235.694 206.603,235.837 137.607 C 235.976 70.751,236.072 73.580,233.434 66.759 C 229.414 56.362,220.420 48.399,208.982 45.111 C 205.961 44.242,204.865 44.210,172.926 44.059 L 139.986 43.903 139.860 28.245 L 139.733 12.587 138.475 10.315 C 137.126 7.881,134.977 5.922,132.531 4.901 C 130.586 4.088,125.263 4.099,123.372 4.920 M205.013 69.273 C 207.591 70.478,209.595 72.458,210.882 75.070 L 211.840 77.013 211.840 136.107 L 211.840 195.200 210.574 197.486 C 209.877 198.744,208.559 200.414,207.644 201.197 C 204.197 204.147,209.988 203.947,128.000 203.947 C 46.012 203.947,51.803 204.147,48.356 201.197 C 47.441 200.414,46.123 198.744,45.426 197.486 L 44.160 195.200 44.160 136.107 L 44.160 77.013 45.118 75.070 C 46.405 72.458,48.409 70.478,50.987 69.273 L 53.120 68.275 128.000 68.275 L 202.880 68.275 205.013 69.273 M79.757 84.609 C 72.972 86.534,68.231 92.651,68.117 99.627 C 67.995 107.008,72.399 113.048,79.512 115.256 C 87.778 117.822,96.832 112.957,99.246 104.652 C 99.692 103.118,99.875 101.183,99.776 99.040 C 99.505 93.108,96.218 88.244,90.635 85.512 C 87.890 84.170,82.796 83.747,79.757 84.609 M167.788 84.523 C 165.372 85.101,160.985 88.103,159.299 90.333 C 155.263 95.671,155.081 103.561,158.867 109.080 C 163.886 116.396,174.291 118.134,181.438 112.852 C 189.026 107.242,190.142 96.305,183.830 89.398 C 180.810 86.094,177.346 84.454,172.950 84.248 C 171.107 84.161,168.785 84.285,167.788 84.523 M86.665 128.474 C 74.557 130.523,65.121 139.072,61.078 151.657 C 60.105 154.687,60.105 165.313,61.078 168.343 C 64.790 179.897,72.057 187.266,83.200 190.778 L 86.400 191.787 127.787 191.787 L 169.173 191.787 172.567 190.804 C 183.217 187.721,190.959 180.119,194.640 169.131 C 195.490 166.594,195.627 165.332,195.627 160.000 C 195.627 154.668,195.490 153.406,194.640 150.869 C 191.624 141.867,186.075 135.324,178.169 131.449 C 171.219 128.042,174.452 128.259,129.280 128.167 C 106.579 128.121,87.957 128.255,86.665 128.474 M96.000 160.000 L 96.000 168.107 93.426 168.107 C 89.285 168.107,86.528 166.567,84.865 163.324 C 83.281 160.234,84.198 156.270,87.054 153.867 C 87.787 153.251,88.899 152.634,89.526 152.496 C 90.153 152.358,90.859 152.181,91.093 152.103 C 91.328 152.025,92.528 151.946,93.760 151.927 L 96.000 151.893 96.000 160.000 M136.107 160.000 L 136.107 168.107 128.000 168.107 L 119.893 168.107 119.893 160.000 L 119.893 151.893 128.000 151.893 L 136.107 151.893 136.107 160.000 M167.524 152.883 C 171.342 154.869,173.005 159.677,171.135 163.324 C 169.472 166.567,166.715 168.107,162.574 168.107 L 160.000 168.107 160.000 159.938 L 160.000 151.770 163.150 152.008 C 164.883 152.139,166.851 152.533,167.524 152.883 " stroke="none" fill-rule="evenodd"></path></svg>