<svg fill="currentColor" viewBox="0 0 256 256" xmlns="http://www.w3.org/2000/svg"><path d="M125.080 4.316 C 121.777 4.724,117.969 6.469,114.562 9.137 C 106.803 15.212,97.248 24.828,90.357 33.493 C 74.044 54.008,63.720 77.922,60.942 101.631 L 60.407 106.196 46.594 122.751 C 38.997 131.857,32.194 140.150,31.475 141.181 C 30.756 142.212,29.720 144.324,29.173 145.875 C 27.307 151.160,27.429 152.023,34.548 184.001 C 38.061 199.782,41.106 213.271,41.315 213.977 C 43.235 220.469,49.155 225.907,55.948 227.418 C 59.871 228.291,65.014 227.819,68.286 226.285 C 69.921 225.518,76.707 220.719,84.992 214.470 L 98.944 203.947 127.998 203.947 L 157.052 203.947 171.006 214.467 C 179.069 220.545,186.131 225.544,187.733 226.307 C 190.356 227.555,190.785 227.627,195.627 227.627 C 200.654 227.627,200.806 227.598,204.066 226.042 C 209.188 223.596,213.182 219.058,214.685 213.977 C 214.894 213.271,217.939 199.782,221.452 184.001 C 228.571 152.023,228.693 151.160,226.827 145.875 C 226.280 144.324,225.244 142.212,224.525 141.181 C 223.806 140.150,217.003 131.857,209.406 122.751 L 195.593 106.196 195.059 101.631 C 191.419 70.551,174.323 38.586,149.157 15.806 C 140.110 7.617,136.136 5.013,131.869 4.478 C 130.797 4.343,129.440 4.177,128.853 4.108 C 128.267 4.038,126.569 4.132,125.080 4.316 M131.984 32.615 C 139.772 39.544,147.496 48.579,153.686 57.998 C 172.517 86.657,176.778 118.218,166.332 151.680 C 164.003 159.143,161.886 164.387,157.767 172.907 L 154.311 180.053 128.000 180.053 L 101.689 180.053 98.233 172.907 C 91.507 158.997,88.010 148.571,85.748 135.680 C 83.316 121.828,83.644 106.879,86.665 93.867 C 91.120 74.672,101.608 55.782,116.704 39.762 C 120.795 35.421,127.340 29.440,128.000 29.440 C 128.229 29.440,130.022 30.869,131.984 32.615 M123.703 84.609 C 116.052 86.780,110.808 94.910,112.211 102.426 C 112.854 105.869,114.932 109.772,117.173 111.744 C 126.918 120.322,141.694 115.060,143.773 102.271 C 144.846 95.670,141.205 88.763,135.055 85.736 C 131.865 84.165,126.977 83.680,123.703 84.609 M63.990 148.755 C 66.863 160.568,70.503 170.748,75.776 181.710 C 77.513 185.319,78.933 188.437,78.933 188.637 C 78.933 189.150,62.972 201.083,62.847 200.663 C 61.984 197.764,52.506 153.720,52.659 153.322 C 52.933 152.608,62.037 141.685,62.213 141.859 C 62.286 141.931,63.086 145.034,63.990 148.755 M198.780 147.560 C 201.387 150.691,203.520 153.427,203.520 153.640 C 203.520 153.973,193.436 199.712,193.153 200.663 C 193.019 201.116,177.067 189.129,177.067 188.575 C 177.067 188.339,178.197 185.891,179.580 183.134 C 184.576 173.167,189.251 160.184,192.058 148.480 C 193.568 142.186,193.744 141.545,193.912 141.728 C 193.983 141.804,196.173 144.428,198.780 147.560 M108.246 212.660 C 104.007 214.195,101.142 217.439,100.256 221.707 C 99.010 227.707,102.898 233.931,108.902 235.548 C 109.910 235.819,117.410 235.935,128.962 235.857 C 147.043 235.736,147.449 235.714,149.170 234.794 C 153.657 232.393,155.909 228.787,155.909 224.000 C 155.909 219.213,153.657 215.607,149.170 213.206 C 147.445 212.283,147.079 212.265,128.640 212.170 C 113.593 212.093,109.545 212.190,108.246 212.660 " stroke="none" fill-rule="evenodd"></path></svg>