<svg fill="currentColor" viewBox="0 0 256 256" xmlns="http://www.w3.org/2000/svg"><path d="M50.987 37.273 C 46.524 39.360,44.183 43.051,44.183 48.000 C 44.183 51.565,45.186 54.059,47.561 56.401 C 50.580 59.378,52.142 59.816,61.097 60.199 C 72.548 60.688,81.402 61.977,91.520 64.628 C 140.135 77.366,178.634 115.865,191.372 164.480 C 194.027 174.614,195.270 183.172,195.780 194.824 C 196.179 203.971,196.570 205.368,199.580 208.420 C 205.387 214.308,215.151 212.524,218.952 204.881 C 219.883 203.008,219.942 202.438,219.866 195.980 C 219.343 151.137,198.068 106.113,163.200 76.058 C 133.908 50.808,95.987 36.257,59.520 36.272 C 53.707 36.275,52.924 36.367,50.987 37.273 M52.141 108.728 C 49.037 109.837,46.946 111.646,45.485 114.483 C 43.077 119.163,43.677 124.051,47.132 127.893 C 49.969 131.049,51.926 131.729,59.666 132.248 C 77.430 133.441,91.719 139.842,103.915 152.071 C 116.201 164.391,122.560 178.579,123.752 196.334 C 124.271 204.070,124.952 206.032,128.099 208.862 C 131.608 212.017,135.779 212.803,140.211 211.144 C 145.127 209.305,148.053 204.719,148.053 198.856 C 148.053 182.812,142.282 163.852,133.239 150.187 C 116.288 124.571,90.144 109.629,59.733 108.175 C 55.153 107.956,54.081 108.034,52.141 108.728 M55.680 180.652 C 51.082 182.110,47.344 185.372,45.367 189.653 C 44.366 191.820,44.185 192.771,44.190 195.840 C 44.197 200.877,45.360 203.728,48.816 207.184 C 52.275 210.643,55.125 211.804,60.160 211.806 C 64.773 211.808,67.966 210.479,71.171 207.223 C 79.640 198.617,76.283 184.494,64.915 180.909 C 61.865 179.946,58.223 179.845,55.680 180.652 " stroke="none" fill-rule="evenodd"></path></svg>