<svg fill="currentColor" viewBox="0 0 256 256" xmlns="http://www.w3.org/2000/svg"><path d="M122.796 12.596 C 116.467 13.856,109.824 18.020,101.320 26.058 C 90.259 36.512,90.802 36.258,78.532 36.740 C 66.592 37.209,62.078 37.757,57.410 39.306 C 48.556 42.245,42.752 47.787,39.680 56.237 C 37.802 61.403,37.139 66.095,36.705 77.285 C 36.493 82.767,36.110 87.959,35.855 88.822 C 35.202 91.029,32.518 94.485,26.472 100.907 C 19.912 107.873,17.537 110.999,15.123 115.840 C 10.946 124.215,10.946 131.785,15.123 140.160 C 17.526 144.979,19.892 148.094,26.464 155.093 C 32.545 161.569,35.209 164.997,35.856 167.178 C 36.112 168.041,36.496 173.395,36.709 179.077 C 37.143 190.641,37.982 196.003,40.181 201.286 C 43.238 208.628,49.149 214.056,57.056 216.781 C 61.302 218.244,66.431 218.893,77.013 219.304 C 82.645 219.523,87.939 219.901,88.777 220.144 C 91.011 220.790,93.456 222.678,100.537 229.224 C 108.393 236.487,110.966 238.446,115.840 240.877 C 124.213 245.053,131.649 245.054,140.126 240.879 C 144.967 238.495,148.066 236.145,155.093 229.528 C 161.513 223.483,164.970 220.799,167.178 220.144 C 168.041 219.888,173.259 219.506,178.773 219.295 C 196.487 218.618,203.297 216.572,209.935 209.935 C 216.573 203.296,218.605 196.520,219.295 178.715 C 219.507 173.233,219.890 168.041,220.145 167.178 C 220.798 164.971,223.482 161.515,229.528 155.093 C 236.088 148.127,238.463 145.001,240.877 140.160 C 245.054 131.785,245.054 124.215,240.877 115.840 C 238.463 110.999,236.088 107.873,229.528 100.907 C 223.483 94.487,220.799 91.030,220.144 88.822 C 219.888 87.959,219.506 82.741,219.295 77.227 C 218.774 63.603,217.653 57.683,214.529 52.053 C 211.810 47.154,206.929 42.656,201.998 40.505 C 196.313 38.026,191.299 37.249,177.686 36.737 C 165.180 36.266,165.640 36.479,154.681 26.066 C 146.085 17.897,139.531 13.841,132.869 12.566 C 129.003 11.826,126.625 11.833,122.796 12.596 M131.999 38.171 C 133.437 39.218,137.301 42.600,140.587 45.686 C 149.279 53.851,153.925 56.957,160.213 58.809 C 164.393 60.039,168.967 60.538,180.068 60.974 C 190.335 61.378,192.210 61.752,193.427 63.644 C 194.352 65.081,194.986 69.119,194.988 73.572 C 194.991 80.755,195.817 90.653,196.702 94.114 C 198.534 101.279,201.585 106.069,210.132 115.200 C 217.068 122.609,219.733 126.125,219.733 127.864 C 219.733 129.677,217.929 132.253,212.663 137.958 C 203.292 148.109,201.085 150.963,198.812 155.871 C 196.186 161.543,195.677 164.900,195.002 181.012 C 194.580 191.111,194.198 192.514,191.513 193.826 C 189.808 194.660,182.133 195.379,174.709 195.401 C 165.843 195.427,158.951 196.951,153.440 200.104 C 149.642 202.277,145.707 205.477,137.572 213.009 C 134.343 215.998,130.869 218.847,129.851 219.340 L 128.000 220.236 126.149 219.340 C 125.131 218.847,121.655 215.998,118.423 213.009 C 110.466 205.647,108.229 203.757,104.840 201.525 C 97.870 196.938,93.775 195.946,79.573 195.403 C 67.373 194.937,64.768 194.541,63.127 192.899 C 61.733 191.506,61.014 187.924,61.012 182.365 C 61.009 175.240,60.180 165.335,59.298 161.886 C 57.466 154.721,54.415 149.931,45.868 140.800 C 38.726 133.170,36.267 129.892,36.267 128.000 C 36.267 126.113,38.739 122.809,45.686 115.413 C 58.249 102.038,60.223 97.192,60.805 78.293 C 61.095 68.880,61.620 64.855,62.744 63.426 C 63.989 61.844,66.404 61.438,77.227 60.993 C 97.819 60.145,102.172 58.358,116.438 44.889 C 126.537 35.354,127.539 34.922,131.999 38.171 " stroke="none" fill-rule="evenodd"></path></svg>