<svg fill="currentColor" viewBox="0 0 256 256" xmlns="http://www.w3.org/2000/svg"><path d="M42.621 28.769 C 37.185 30.295,32.463 34.315,29.967 39.543 L 28.373 42.880 28.247 58.756 C 28.124 74.269,28.143 74.681,29.052 76.795 C 30.834 80.937,35.607 84.053,40.168 84.053 C 44.680 84.053,49.498 80.611,51.144 76.211 C 51.984 73.965,52.053 72.959,52.053 62.917 L 52.053 52.053 62.917 52.053 C 72.959 52.053,73.965 51.984,76.211 51.144 C 80.611 49.498,84.053 44.680,84.053 40.168 C 84.053 35.945,81.266 31.333,77.495 29.315 C 75.779 28.398,75.330 28.371,60.160 28.295 C 48.513 28.236,44.091 28.356,42.621 28.769 M107.839 28.760 C 104.101 30.114,101.113 33.685,100.253 37.825 C 99.080 43.477,102.506 49.334,108.121 51.275 C 110.054 51.943,112.220 52.027,127.816 52.039 C 148.015 52.055,148.495 51.991,151.911 48.795 C 154.702 46.185,155.875 43.619,155.884 40.107 C 155.894 35.592,153.745 31.845,149.822 29.538 L 147.840 28.373 128.640 28.277 C 113.339 28.200,109.115 28.298,107.839 28.760 M180.477 28.559 C 175.627 30.034,171.947 35.042,171.947 40.168 C 171.947 44.680,175.389 49.498,179.789 51.144 C 182.035 51.984,183.041 52.053,193.083 52.053 L 203.947 52.053 203.947 62.917 C 203.947 72.959,204.016 73.965,204.856 76.211 C 206.502 80.611,211.320 84.053,215.832 84.053 C 220.419 84.053,225.129 80.960,227.017 76.706 C 227.973 74.553,228.025 73.927,228.181 62.507 C 228.384 47.684,227.998 43.699,225.940 39.365 C 223.499 34.226,218.682 30.219,213.184 28.755 C 211.512 28.310,207.467 28.178,196.267 28.202 C 188.171 28.219,181.065 28.380,180.477 28.559 M74.880 69.271 C 72.252 70.497,69.927 73.009,68.860 75.774 C 68.085 77.784,68.053 79.848,68.053 128.000 C 68.053 176.285,68.083 178.211,68.866 180.242 C 69.944 183.036,72.465 185.697,75.210 186.938 L 77.440 187.947 128.000 187.947 L 178.560 187.947 180.790 186.938 C 183.535 185.697,186.056 183.036,187.134 180.242 C 187.917 178.211,187.947 176.285,187.947 128.000 C 187.947 79.848,187.915 77.784,187.140 75.774 C 186.073 73.009,183.748 70.497,181.120 69.271 L 178.987 68.275 128.000 68.275 L 77.013 68.275 74.880 69.271 M163.840 128.213 L 163.840 164.267 128.000 164.267 L 92.160 164.267 92.160 128.213 L 92.160 92.160 128.000 92.160 L 163.840 92.160 163.840 128.213 M35.200 101.063 C 32.789 102.162,30.891 103.878,29.538 106.178 L 28.373 108.160 28.373 128.000 L 28.373 147.840 29.538 149.822 C 31.845 153.745,35.592 155.894,40.107 155.884 C 43.622 155.875,46.185 154.702,48.803 151.903 C 52.052 148.430,52.108 147.990,51.964 127.084 C 51.845 109.685,51.806 108.942,50.934 107.093 C 48.891 102.767,44.848 100.272,39.893 100.280 C 37.921 100.284,36.327 100.550,35.200 101.063 M210.987 101.251 C 208.347 102.513,206.253 104.578,205.066 107.093 C 204.185 108.961,204.160 109.530,204.160 128.000 C 204.160 146.439,204.186 147.042,205.062 148.907 C 208.480 156.181,217.746 158.185,223.902 152.983 C 226.011 151.200,227.318 148.616,227.852 145.177 C 228.506 140.960,228.190 110.496,227.469 108.277 C 226.712 105.950,224.476 103.239,222.099 101.769 C 220.304 100.659,219.537 100.463,216.567 100.356 C 213.651 100.251,212.791 100.389,210.987 101.251 M37.333 172.323 C 33.561 173.317,30.136 176.282,28.840 179.675 C 28.202 181.346,28.134 183.363,28.247 197.341 L 28.373 213.120 29.958 216.440 C 32.037 220.792,35.160 223.943,39.383 225.949 C 43.697 227.997,47.701 228.384,62.507 228.181 C 73.927 228.025,74.553 227.973,76.706 227.017 C 81.315 224.971,84.416 219.813,83.950 214.966 C 83.669 212.046,81.659 208.332,79.443 206.643 C 76.287 204.235,74.491 203.947,62.643 203.947 L 52.053 203.947 52.053 193.083 C 52.053 181.014,51.771 179.413,49.067 176.134 C 46.644 173.197,40.987 171.359,37.333 172.323 M212.141 172.729 C 209.013 173.845,206.944 175.649,205.440 178.570 L 204.160 181.056 204.034 192.501 L 203.907 203.947 193.338 203.947 C 181.511 203.947,179.712 204.236,176.557 206.643 C 174.341 208.332,172.331 212.046,172.050 214.966 C 171.584 219.813,174.685 224.971,179.294 227.017 C 181.447 227.973,182.073 228.025,193.493 228.181 C 208.299 228.384,212.303 227.997,216.617 225.949 C 220.779 223.972,223.972 220.779,225.949 216.617 C 227.995 212.308,228.383 208.299,228.185 193.493 C 228.035 182.167,227.976 181.436,227.058 179.413 C 224.427 173.618,217.876 170.682,212.141 172.729 M109.013 204.417 C 104.990 205.374,101.142 209.424,100.247 213.641 C 99.047 219.296,102.766 225.667,108.325 227.482 C 110.495 228.191,141.020 228.497,145.177 227.852 C 148.616 227.318,151.200 226.011,152.983 223.902 C 158.194 217.736,156.258 208.729,148.949 205.127 C 147.011 204.172,146.762 204.159,128.853 204.086 C 118.568 204.043,109.981 204.187,109.013 204.417 " stroke="none" fill-rule="evenodd"></path></svg>