<svg fill="currentColor" viewBox="0 0 256 256" xmlns="http://www.w3.org/2000/svg"><path d="M152.320 20.322 C 147.620 20.995,144.808 21.580,141.918 22.486 C 129.871 26.259,119.238 34.394,112.421 45.051 C 104.056 58.127,101.813 75.179,106.494 90.100 C 115.508 118.825,146.443 134.718,174.844 125.215 C 206.249 114.706,220.983 79.204,206.181 49.707 C 203.650 44.664,200.591 40.512,196.093 36.014 C 187.541 27.462,177.787 22.496,165.973 20.681 C 162.316 20.119,155.068 19.929,152.320 20.322 M165.694 45.052 C 171.520 46.561,178.035 50.886,181.572 55.590 C 185.888 61.333,187.733 66.853,187.733 74.027 C 187.733 87.640,179.433 98.748,166.244 102.786 C 151.055 107.436,134.532 98.559,129.409 82.996 C 128.424 80.006,128.282 78.872,128.281 74.027 C 128.280 69.229,128.426 68.038,129.363 65.209 C 131.039 60.149,133.290 56.489,136.930 52.907 C 141.859 48.055,147.056 45.408,153.734 44.349 C 156.663 43.885,162.519 44.229,165.694 45.052 M56.191 52.643 C 52.867 53.883,50.045 56.540,48.889 59.520 C 47.372 63.433,11.947 182.692,11.947 183.887 C 11.947 188.407,15.052 193.118,19.294 195.035 L 21.547 196.053 59.733 196.053 C 102.833 196.053,100.152 196.256,104.011 192.699 C 106.447 190.454,107.584 188.157,107.841 184.963 C 108.037 182.521,107.044 179.035,89.623 120.950 C 78.927 85.291,70.758 58.765,70.149 57.721 C 69.056 55.844,67.382 54.385,64.857 53.106 C 62.886 52.108,58.286 51.862,56.191 52.643 M70.173 139.714 C 75.443 157.304,79.695 171.754,79.624 171.825 C 79.552 171.897,70.656 171.905,59.854 171.844 L 40.214 171.733 50.057 138.924 C 57.070 115.546,59.999 106.347,60.246 106.924 C 60.436 107.369,64.904 122.125,70.173 139.714 M131.732 144.822 C 128.366 146.023,125.593 149.020,124.597 152.533 C 124.253 153.750,124.151 162.504,124.244 183.040 L 124.373 211.840 125.538 213.822 C 126.920 216.172,128.783 217.832,131.413 219.054 C 133.325 219.943,133.546 219.947,180.053 219.947 L 226.773 219.947 229.207 218.752 C 231.801 217.478,233.279 216.000,234.794 213.170 C 235.732 211.417,235.734 211.359,235.852 182.916 C 235.930 164.115,235.819 153.856,235.525 152.766 C 234.725 149.794,232.510 147.125,229.578 145.600 L 226.912 144.213 180.123 144.232 C 142.151 144.247,133.032 144.358,131.732 144.822 M212.053 182.187 L 212.053 196.267 180.053 196.267 L 148.053 196.267 148.053 182.187 L 148.053 168.107 180.053 168.107 L 212.053 168.107 212.053 182.187 " stroke="none" fill-rule="evenodd"></path></svg>