<svg fill="currentColor" viewBox="0 0 256 256" xmlns="http://www.w3.org/2000/svg"><path d="M172.447 44.554 C 166.956 46.344,163.088 52.322,164.048 57.537 C 164.782 61.530,165.605 62.525,180.598 77.547 L 195.183 92.160 176.629 92.160 C 153.439 92.160,147.205 92.773,135.159 96.240 C 99.563 106.486,71.550 134.445,61.242 170.014 C 60.049 174.133,59.883 177.679,60.769 180.161 C 62.089 183.861,65.635 186.847,69.819 187.784 C 71.776 188.222,72.507 188.189,74.776 187.558 C 77.636 186.763,80.442 184.887,81.856 182.827 C 82.340 182.123,83.704 178.571,84.889 174.933 C 89.337 161.282,95.658 150.834,105.504 140.862 C 117.536 128.676,133.088 120.499,150.400 117.257 C 154.589 116.473,157.224 116.357,174.933 116.184 L 194.773 115.990 180.394 130.428 C 164.419 146.467,164.125 146.854,164.101 151.893 C 164.068 158.734,169.211 163.893,176.063 163.893 C 181.203 163.893,180.562 164.438,208.906 136.016 C 237.178 107.665,235.947 109.139,235.947 103.672 C 235.947 98.728,236.009 98.801,208.336 71.167 C 181.199 44.069,181.655 44.459,176.688 44.117 C 175.321 44.023,173.501 44.211,172.447 44.554 M29.155 76.331 C 27.048 76.872,24.084 78.777,22.657 80.509 C 19.892 83.863,20.053 79.659,20.053 148.253 C 20.053 216.298,19.938 213.002,22.472 217.657 C 23.748 220.002,27.307 223.675,29.713 225.132 C 30.619 225.681,32.608 226.562,34.133 227.091 L 36.907 228.053 115.413 228.053 C 191.604 228.053,193.982 228.029,196.028 227.240 C 198.570 226.260,201.566 223.598,202.759 221.258 C 203.240 220.316,203.728 218.366,203.844 216.924 C 204.240 211.993,201.987 207.919,197.486 205.426 L 195.200 204.160 119.573 204.048 L 43.947 203.935 43.947 144.924 C 43.947 79.631,44.123 83.775,41.197 80.356 C 38.401 77.091,33.100 75.319,29.155 76.331 " stroke="none" fill-rule="evenodd"></path></svg>