<svg fill="currentColor" viewBox="0 0 256 256" xmlns="http://www.w3.org/2000/svg"><path d="M148.353 20.643 C 144.450 22.098,141.401 25.289,140.370 28.999 C 140.125 29.881,139.950 38.419,139.949 49.592 L 139.947 68.677 138.987 68.858 C 138.459 68.958,135.243 69.561,131.840 70.198 C 120.375 72.345,109.084 76.215,97.067 82.115 C 54.459 103.037,22.537 141.884,13.943 183.270 C 11.539 194.847,11.491 198.631,13.691 203.033 C 17.221 210.098,25.583 213.667,32.853 211.212 C 35.744 210.235,39.632 207.627,40.758 205.909 C 41.636 204.570,51.273 195.815,56.320 191.772 C 72.330 178.948,90.526 168.970,108.800 162.994 C 116.931 160.335,128.024 157.966,137.690 156.824 L 139.914 156.562 140.037 175.881 L 140.160 195.200 141.426 197.486 C 143.919 201.987,147.993 204.240,152.924 203.844 C 154.391 203.726,156.385 203.214,157.453 202.682 C 158.820 202.000,171.031 190.066,200.623 160.492 C 246.218 114.924,243.817 117.619,243.817 112.000 C 243.817 106.381,246.218 109.076,200.623 63.508 C 170.897 33.799,158.823 22.001,157.440 21.311 C 155.036 20.110,150.646 19.788,148.353 20.643 M189.760 137.282 L 164.480 162.566 164.214 152.216 C 164.063 146.322,163.734 141.183,163.450 140.277 C 162.726 137.966,160.489 135.246,158.096 133.769 L 156.007 132.480 146.804 132.495 C 111.974 132.551,74.544 146.634,42.764 171.640 C 42.465 171.875,42.909 170.456,43.749 168.487 C 54.593 143.081,78.364 118.556,105.602 104.670 C 121.294 96.671,133.686 93.073,148.576 92.195 C 155.229 91.803,157.240 91.232,159.902 88.983 C 163.495 85.945,164.259 82.618,164.263 69.975 L 164.267 61.229 189.653 86.613 L 215.040 111.997 189.760 137.282 " stroke="none" fill-rule="evenodd"></path></svg>