<svg fill="currentColor" viewBox="0 0 256 256" xmlns="http://www.w3.org/2000/svg"><path d="M41.169 37.265 C 35.069 39.533,30.558 44.337,28.813 50.421 C 28.189 52.597,28.133 56.764,28.269 91.381 C 28.416 128.845,28.447 130.087,29.375 135.893 C 33.662 162.693,43.414 183.781,60.263 202.692 C 74.458 218.624,94.437 232.306,115.908 240.800 C 123.411 243.768,126.836 244.427,131.025 243.708 C 134.780 243.064,144.262 239.341,151.946 235.493 C 190.426 216.222,215.695 185.449,224.448 147.200 C 227.736 132.834,228.394 121.061,228.173 80.640 C 228.022 53.108,228.006 52.651,227.072 49.854 C 225.195 44.230,220.055 39.025,214.542 37.163 L 211.888 36.267 127.810 36.289 L 43.733 36.311 41.169 37.265 M203.831 93.547 C 203.647 129.487,203.669 129.093,201.219 140.419 C 200.630 143.142,199.515 147.300,198.741 149.657 L 197.333 153.944 165.973 131.973 C 148.725 119.889,133.845 109.597,132.907 109.103 C 130.506 107.840,125.494 107.840,123.093 109.103 C 122.155 109.597,107.275 119.886,90.027 131.967 L 58.667 153.932 57.685 151.099 C 56.335 147.203,54.388 139.271,53.585 134.400 C 52.279 126.481,52.061 120.179,52.057 90.347 L 52.053 60.160 128.028 60.160 L 204.002 60.160 203.831 93.547 M157.299 155.132 C 172.982 166.094,185.955 175.186,186.128 175.334 C 186.753 175.872,179.309 185.091,173.666 190.766 C 161.492 203.009,148.077 211.813,131.520 218.424 L 128.000 219.829 124.480 218.426 C 103.759 210.168,85.105 196.312,72.995 180.183 C 71.111 177.674,69.620 175.571,69.680 175.511 C 70.907 174.285,127.928 134.871,128.280 135.007 C 128.558 135.113,141.616 144.169,157.299 155.132 " stroke="none" fill-rule="evenodd"></path></svg>