<svg fill="currentColor" viewBox="0 0 256 256" xmlns="http://www.w3.org/2000/svg"><path d="M41.169 37.265 C 35.069 39.533,30.558 44.337,28.813 50.421 C 28.189 52.597,28.133 56.764,28.269 91.381 C 28.416 128.849,28.447 130.086,29.376 135.893 C 29.901 139.179,30.881 144.267,31.552 147.200 C 40.446 186.068,66.505 217.320,105.884 236.345 C 117.833 242.118,124.676 244.326,129.287 243.898 C 133.856 243.473,142.317 240.319,152.279 235.327 C 190.407 216.221,215.730 185.299,224.448 147.200 C 227.736 132.834,228.394 121.061,228.173 80.640 C 228.022 53.108,228.006 52.651,227.072 49.854 C 225.195 44.230,220.055 39.025,214.542 37.163 L 211.888 36.267 127.810 36.289 L 43.733 36.311 41.169 37.265 M116.053 88.107 L 116.053 116.053 84.053 116.053 L 52.053 116.053 52.053 88.107 L 52.053 60.160 84.053 60.160 L 116.053 60.160 116.053 88.107 M203.947 88.107 L 203.947 116.053 171.947 116.053 L 139.947 116.053 139.947 88.107 L 139.947 60.160 171.947 60.160 L 203.947 60.160 203.947 88.107 M116.053 177.280 C 116.053 197.813,115.909 214.612,115.733 214.610 C 115.011 214.604,105.669 209.182,100.693 205.882 C 78.592 191.224,63.543 171.295,56.543 147.413 C 55.786 144.832,55.047 142.096,54.901 141.333 L 54.635 139.947 85.344 139.947 L 116.053 139.947 116.053 177.280 M201.105 141.333 C 200.962 142.096,200.185 144.922,199.380 147.612 C 192.161 171.716,177.404 191.227,155.307 205.882 C 150.331 209.182,140.989 214.604,140.267 214.610 C 140.091 214.612,139.947 197.813,139.947 177.280 L 139.947 139.947 170.656 139.947 L 201.365 139.947 201.105 141.333 " stroke="none" fill-rule="evenodd"></path></svg>