<svg fill="currentColor" viewBox="0 0 256 256" xmlns="http://www.w3.org/2000/svg"><path d="M43.839 28.743 C 40.061 30.152,37.111 33.694,36.246 37.862 C 35.876 39.640,35.417 40.504,34.335 41.454 C 32.293 43.247,30.075 46.769,29.025 49.885 C 28.122 52.565,28.119 52.747,28.269 91.248 C 28.416 128.853,28.446 130.085,29.375 135.893 C 33.665 162.705,43.401 183.756,60.282 202.716 C 74.178 218.324,94.448 232.286,115.243 240.574 C 126.893 245.217,129.129 245.203,141.068 240.412 C 147.932 237.658,158.818 232.136,165.051 228.246 C 170.448 224.878,179.310 218.284,183.987 214.156 C 187.338 211.198,187.488 211.117,188.132 211.912 C 191.545 216.124,200.667 225.572,202.173 226.455 C 203.638 227.314,204.809 227.604,207.408 227.755 C 210.393 227.928,211.008 227.825,213.082 226.811 C 218.958 223.936,221.624 216.778,218.921 211.133 C 217.524 208.215,56.285 30.887,53.742 29.471 C 51.439 28.189,46.332 27.814,43.839 28.743 M105.125 36.832 C 95.177 40.585,94.787 54.198,104.491 58.980 L 106.453 59.947 155.200 60.062 L 203.947 60.178 203.943 90.355 C 203.941 106.953,203.748 122.741,203.513 125.440 C 202.743 134.313,200.789 143.946,198.105 152.099 C 196.362 157.395,196.713 161.126,199.298 164.756 C 202.323 169.004,208.717 170.662,213.740 168.501 C 216.166 167.458,218.944 164.673,219.958 162.269 C 221.250 159.204,223.984 149.261,225.255 143.002 C 227.908 129.938,228.009 127.973,228.032 88.747 L 228.053 53.120 227.097 50.078 C 225.281 44.304,220.195 39.072,214.542 37.163 C 211.900 36.271,211.648 36.267,159.170 36.299 C 119.927 36.323,106.114 36.460,105.125 36.832 M111.850 128.069 L 171.261 193.419 169.364 195.085 C 157.705 205.324,144.588 213.398,131.260 218.538 L 127.906 219.831 124.860 218.647 C 106.334 211.441,88.440 198.799,76.275 184.320 C 66.138 172.255,58.456 156.731,55.005 141.336 C 52.389 129.666,52.369 129.348,52.174 94.613 C 52.076 77.072,52.095 62.720,52.217 62.720 C 52.338 62.720,79.173 92.127,111.850 128.069 " stroke="none" fill-rule="evenodd"></path></svg>