<svg fill="currentColor" viewBox="0 0 256 256" xmlns="http://www.w3.org/2000/svg"><path d="M34.347 36.863 C 27.753 38.961,22.843 43.864,20.895 50.295 C 20.051 53.083,20.041 54.110,20.153 128.853 L 20.267 204.587 21.269 207.072 C 23.534 212.686,28.309 217.184,33.920 218.987 L 36.907 219.947 128.000 219.947 L 219.093 219.947 222.080 218.987 C 227.691 217.184,232.466 212.686,234.731 207.072 L 235.733 204.587 235.847 129.280 C 235.926 76.561,235.822 53.305,235.499 51.746 C 234.296 45.933,230.138 40.735,224.564 38.074 L 221.227 36.480 128.640 36.400 C 54.680 36.336,35.710 36.429,34.347 36.863 M212.053 68.053 L 212.053 75.947 128.000 75.947 L 43.947 75.947 43.947 68.053 L 43.947 60.160 128.000 60.160 L 212.053 60.160 212.053 68.053 M212.053 148.268 L 212.053 196.269 128.107 196.161 L 44.160 196.053 44.051 148.160 L 43.943 100.267 127.998 100.267 L 212.053 100.267 212.053 148.268 M82.970 113.196 C 80.069 114.583,77.394 117.694,76.520 120.698 C 75.999 122.490,75.893 124.027,76.087 126.974 C 76.986 140.665,82.507 152.307,92.659 161.920 C 107.158 175.648,128.229 179.685,147.029 172.336 C 158.199 167.970,168.499 158.732,174.013 148.133 C 178.698 139.126,181.192 126.589,179.474 120.678 C 178.560 117.534,175.761 114.381,172.725 113.075 C 169.600 111.731,164.829 111.979,162.008 113.632 C 157.942 116.015,156.475 118.953,155.757 126.146 C 155.281 130.912,154.573 133.416,152.700 136.960 C 149.820 142.406,145.607 146.492,140.148 149.132 C 135.669 151.297,132.048 152.014,126.720 151.789 C 119.351 151.477,113.710 149.018,108.361 143.787 C 103.553 139.085,100.977 133.495,100.247 126.183 C 99.525 118.945,98.065 116.019,93.981 113.626 C 92.395 112.697,91.373 112.451,88.573 112.325 C 85.608 112.191,84.816 112.314,82.970 113.196 " stroke="none" fill-rule="evenodd"></path></svg>