<svg fill="currentColor" viewBox="0 0 256 256" xmlns="http://www.w3.org/2000/svg"><path d="M206.046 36.312 C 203.359 36.711,200.987 38.007,199.076 40.123 C 196.818 42.622,196.118 44.486,196.118 48.000 C 196.118 51.857,196.881 53.567,200.095 56.915 C 201.510 58.388,202.667 59.720,202.667 59.876 C 202.667 60.032,195.131 60.162,185.920 60.165 C 167.746 60.171,166.768 60.271,162.504 62.563 C 161.252 63.236,159.342 64.651,158.258 65.707 C 155.894 68.010,142.725 86.464,141.533 89.142 C 139.643 93.393,140.977 99.314,144.529 102.432 C 149.152 106.492,156.307 106.514,160.579 102.484 C 161.250 101.851,164.581 97.445,167.982 92.693 L 174.166 84.053 188.481 84.053 L 202.797 84.053 200.366 86.601 C 197.225 89.894,196.087 92.383,196.068 96.000 C 196.041 101.098,199.331 105.773,204.046 107.340 C 206.660 108.208,210.725 108.007,213.120 106.891 C 214.219 106.379,219.581 101.374,228.179 92.834 C 242.439 78.671,243.541 77.285,243.954 72.990 C 244.072 71.766,243.860 69.945,243.424 68.435 C 242.715 65.980,242.373 65.593,228.976 52.126 C 221.298 44.408,214.527 37.957,213.605 37.479 C 211.514 36.398,208.552 35.940,206.046 36.312 M27.307 61.046 C 23.200 62.901,20.510 66.675,20.156 71.076 C 19.761 75.999,22.178 80.347,26.608 82.684 L 28.800 83.840 55.324 83.959 L 81.847 84.078 119.069 136.226 C 139.541 164.907,157.213 189.278,158.340 190.383 C 159.467 191.489,161.406 192.910,162.648 193.541 C 167.244 195.876,167.903 195.950,185.951 196.154 L 202.729 196.343 200.175 199.002 C 196.968 202.342,196.152 204.149,196.112 208.000 C 196.074 211.693,197.166 214.187,199.940 216.744 C 202.562 219.161,204.412 219.882,208.000 219.883 C 212.919 219.886,213.273 219.616,228.781 204.046 C 241.954 190.821,242.728 189.957,243.373 187.763 C 244.286 184.654,244.230 182.699,243.145 179.749 C 242.309 177.477,241.179 176.217,229.013 163.986 C 214.244 149.139,213.362 148.460,208.455 148.154 C 205.679 147.981,205.222 148.080,202.686 149.400 C 199.405 151.107,197.428 153.477,196.435 156.893 C 195.161 161.276,196.411 165.252,200.366 169.399 L 202.797 171.947 188.461 171.947 L 174.125 171.947 136.922 119.787 C 116.461 91.099,98.831 66.763,97.745 65.707 C 96.660 64.651,94.748 63.236,93.496 62.563 C 89.010 60.151,89.283 60.170,58.027 60.174 C 29.991 60.179,29.176 60.202,27.307 61.046 M98.773 151.384 C 95.825 152.773,94.412 154.336,88.050 163.243 L 81.856 171.916 55.328 172.038 L 28.800 172.160 26.514 173.426 C 22.013 175.919,19.760 179.993,20.156 184.924 C 20.519 189.443,22.995 192.914,27.307 194.947 L 29.653 196.053 57.813 196.053 C 88.333 196.053,88.293 196.056,93.042 193.681 C 94.348 193.028,96.312 191.662,97.405 190.647 C 99.703 188.513,113.220 169.667,114.468 166.858 C 116.788 161.634,114.509 155.055,109.328 152.018 C 106.707 150.482,101.368 150.162,98.773 151.384 " stroke="none" fill-rule="evenodd"></path></svg>