<svg fill="currentColor" viewBox="0 0 256 256" xmlns="http://www.w3.org/2000/svg"><path d="M46.046 36.312 C 42.182 36.885,38.458 39.761,36.861 43.404 C 35.991 45.388,35.880 49.959,36.646 52.267 C 37.113 53.677,49.518 66.288,107.993 124.803 C 146.922 163.759,178.773 195.775,178.773 195.950 C 178.773 196.124,175.653 196.271,171.840 196.276 C 166.053 196.284,164.625 196.414,163.200 197.063 C 160.789 198.162,158.891 199.878,157.538 202.178 C 156.503 203.940,156.373 204.586,156.373 208.000 C 156.373 211.414,156.503 212.060,157.538 213.822 C 158.920 216.172,160.783 217.832,163.413 219.054 C 165.285 219.924,165.899 219.947,187.947 219.947 L 210.560 219.947 212.790 218.938 C 215.535 217.697,218.056 215.036,219.134 212.242 C 219.896 210.264,219.947 208.742,219.947 187.733 C 219.947 165.902,219.924 165.285,219.054 163.413 C 217.832 160.783,216.172 158.920,213.822 157.538 C 212.060 156.503,211.414 156.373,208.000 156.373 C 204.586 156.373,203.940 156.503,202.178 157.538 C 199.818 158.926,198.157 160.797,196.961 163.413 C 196.224 165.027,196.057 166.415,195.916 172.113 L 195.748 178.894 125.287 108.474 C 86.534 69.743,54.184 37.734,53.399 37.342 C 51.484 36.386,48.431 35.958,46.046 36.312 M163.200 37.063 C 160.789 38.162,158.891 39.878,157.538 42.178 C 156.503 43.940,156.373 44.586,156.373 48.000 C 156.373 51.414,156.503 52.060,157.538 53.822 C 158.926 56.182,160.797 57.843,163.413 59.039 C 165.027 59.776,166.415 59.943,172.107 60.084 L 178.880 60.252 162.223 76.953 C 146.317 92.899,145.534 93.758,144.889 95.971 C 143.994 99.042,144.037 101.044,145.058 103.771 C 146.208 106.842,148.062 108.959,150.755 110.277 C 153.846 111.789,156.682 112.066,159.822 111.162 C 162.309 110.446,162.595 110.187,179.048 93.782 L 195.748 77.129 195.916 83.898 C 196.057 89.585,196.224 90.973,196.961 92.587 C 198.157 95.203,199.818 97.074,202.178 98.462 C 203.940 99.497,204.586 99.627,208.000 99.627 C 211.414 99.627,212.060 99.497,213.822 98.462 C 216.172 97.080,217.832 95.217,219.054 92.587 C 219.924 90.715,219.947 90.098,219.947 68.267 C 219.947 47.317,219.894 45.731,219.140 43.774 C 218.073 41.009,215.748 38.497,213.120 37.271 L 210.987 36.275 187.947 36.280 C 166.565 36.285,164.784 36.341,163.200 37.063 M97.067 144.586 C 96.363 144.770,95.110 145.242,94.283 145.636 C 93.403 146.055,81.246 157.914,65.010 174.190 L 37.242 202.027 36.502 204.755 C 35.256 209.345,36.445 213.522,39.902 216.709 C 42.471 219.077,44.442 219.851,48.000 219.888 C 50.251 219.911,51.460 219.688,52.907 218.984 C 54.304 218.304,62.392 210.471,82.631 190.198 C 109.531 163.251,110.456 162.271,111.111 160.029 C 111.482 158.755,111.787 156.986,111.787 156.099 C 111.787 153.930,110.389 150.327,108.800 148.400 C 106.379 145.465,100.731 143.629,97.067 144.586 " stroke="none" fill-rule="evenodd"></path></svg>