<svg fill="currentColor" viewBox="0 0 256 256" xmlns="http://www.w3.org/2000/svg"><path d="M59.372 36.920 C 56.982 37.958,54.848 39.927,53.525 42.315 C 52.426 44.299,52.267 45.018,52.267 48.000 C 52.267 50.868,52.440 51.720,53.351 53.333 C 53.948 54.389,67.533 71.621,83.540 91.627 L 112.645 128.000 83.540 164.373 C 67.533 184.379,53.948 201.611,53.351 202.667 C 51.870 205.289,51.801 210.509,53.214 213.170 C 54.711 215.991,56.195 217.476,58.793 218.752 L 61.227 219.947 128.000 219.947 L 194.773 219.947 197.207 218.752 C 199.801 217.478,201.279 216.000,202.794 213.170 C 203.702 211.473,203.738 210.919,203.861 196.760 C 204.003 180.407,203.885 179.497,201.205 176.366 C 200.417 175.446,198.744 174.129,197.486 173.439 C 195.531 172.367,194.737 172.185,192.000 172.185 C 189.263 172.185,188.469 172.367,186.514 173.439 C 185.256 174.129,183.586 175.441,182.803 176.356 C 180.460 179.094,180.053 180.976,180.053 189.089 L 180.053 196.267 134.613 196.267 C 109.621 196.267,89.173 196.169,89.173 196.049 C 89.173 195.930,99.956 182.357,113.135 165.888 C 126.313 149.420,137.689 134.990,138.415 133.823 C 139.624 131.878,139.733 131.396,139.733 128.000 C 139.733 124.604,139.624 124.122,138.415 122.177 C 137.689 121.010,126.312 106.579,113.131 90.108 L 89.167 60.160 134.610 60.160 L 180.053 60.160 180.053 67.124 C 180.053 75.072,180.469 76.916,182.898 79.754 C 185.286 82.544,188.140 83.819,192.000 83.819 C 195.864 83.819,198.714 82.544,201.111 79.744 C 203.895 76.491,204.004 75.679,203.861 59.240 L 203.733 44.587 202.475 42.315 C 201.126 39.881,198.977 37.922,196.531 36.901 C 194.267 35.955,61.552 35.974,59.372 36.920 " stroke="none" fill-rule="evenodd"></path></svg>