<svg fill="currentColor" viewBox="0 0 256 256" xmlns="http://www.w3.org/2000/svg"><path d="M71.931 20.725 C 59.509 23.513,49.105 34.650,42.658 52.062 C 38.218 64.052,35.374 82.672,36.044 95.360 C 37.154 116.358,42.352 131.279,51.646 140.143 L 54.175 142.556 48.741 153.305 L 43.307 164.053 31.787 164.267 C 21.006 164.466,20.156 164.539,18.537 165.406 C 14.357 167.644,12.183 171.268,12.183 176.000 C 12.183 179.565,13.186 182.059,15.561 184.401 C 18.231 187.034,20.462 187.839,25.731 188.070 C 29.636 188.241,30.304 188.371,30.092 188.922 C 29.707 189.926,21.656 204.201,17.032 212.077 C 11.690 221.177,11.184 222.985,12.622 227.826 C 13.540 230.917,16.825 234.234,20.019 235.295 C 24.371 236.741,29.264 235.619,32.381 232.461 C 34.359 230.457,42.891 215.893,53.210 196.907 L 57.847 188.373 146.364 188.160 L 234.880 187.947 236.881 186.952 C 246.195 182.321,246.273 169.604,237.013 165.273 L 234.880 164.275 152.640 164.271 C 107.408 164.269,70.400 164.194,70.400 164.106 C 70.400 164.018,72.040 160.582,74.044 156.472 L 77.689 148.998 79.698 148.698 C 85.232 147.870,93.891 144.126,100.617 139.653 C 105.505 136.402,112.428 130.681,118.273 125.063 L 123.180 120.346 124.921 123.853 C 131.302 136.709,139.730 144.689,149.593 147.212 C 159.307 149.696,169.798 146.090,179.337 136.987 C 181.766 134.669,182.826 133.913,183.234 134.208 C 183.542 134.431,185.046 135.529,186.577 136.649 C 195.730 143.344,209.589 147.209,226.873 147.887 C 233.167 148.134,233.762 148.090,236.120 147.193 C 239.396 145.948,241.946 143.412,243.144 140.211 C 244.767 135.875,244.018 131.667,241.017 128.258 C 238.187 125.043,236.721 124.512,229.547 124.106 C 216.977 123.394,209.932 122.043,204.067 119.222 C 200.068 117.299,196.952 114.338,196.300 111.840 C 196.047 110.872,195.643 109.320,195.401 108.391 C 194.799 106.069,192.590 103.310,190.107 101.774 C 188.396 100.717,187.472 100.462,184.869 100.330 C 179.304 100.049,176.451 101.769,172.599 107.724 C 166.356 117.376,158.282 124.876,155.174 123.911 C 151.009 122.619,145.112 112.461,141.695 100.693 C 140.980 98.229,139.992 94.795,139.501 93.062 C 138.736 90.366,138.281 89.586,136.346 87.651 C 134.581 85.886,133.542 85.232,131.608 84.670 C 126.801 83.272,122.049 84.683,118.905 88.441 C 110.949 97.951,106.290 103.086,100.537 108.680 C 96.865 112.251,93.481 115.376,93.017 115.625 C 92.229 116.046,92.203 115.997,92.632 114.892 C 99.862 96.264,104.509 80.954,106.673 68.635 C 107.986 61.155,108.291 50.140,107.326 45.024 C 105.911 37.527,102.422 30.871,97.844 26.938 C 95.269 24.726,90.184 22.051,86.827 21.143 C 83.061 20.124,75.548 19.914,71.931 20.725 M80.716 44.387 C 83.166 45.068,83.848 47.326,83.808 54.613 C 83.757 63.780,81.783 72.975,76.388 89.173 C 73.600 97.541,69.304 108.817,65.901 116.693 L 65.164 118.400 64.354 116.511 C 61.229 109.224,60.397 103.824,60.403 90.880 C 60.408 79.734,60.785 76.316,62.952 67.768 C 65.827 56.423,70.820 47.257,75.457 44.807 C 77.235 43.867,78.484 43.767,80.716 44.387 " stroke="none" fill-rule="evenodd"></path></svg>