<svg fill="currentColor" viewBox="0 0 256 256" xmlns="http://www.w3.org/2000/svg"><path d="M123.850 20.759 C 121.059 21.748,117.967 24.784,116.931 27.554 C 116.106 29.758,116.053 30.806,116.053 45.029 L 116.053 60.160 76.418 60.160 C 38.079 60.160,36.695 60.188,34.072 61.007 C 30.616 62.086,28.625 63.311,25.824 66.084 C 23.197 68.684,21.616 71.407,20.707 74.895 C 19.726 78.662,19.726 145.338,20.707 149.105 C 21.605 152.552,23.156 155.246,25.752 157.864 C 28.259 160.393,30.348 161.722,33.954 163.081 L 36.480 164.033 76.267 164.170 L 116.053 164.307 116.053 195.204 C 116.053 225.007,116.083 226.182,116.903 228.371 C 118.535 232.735,123.241 235.947,128.000 235.947 C 132.759 235.947,137.465 232.735,139.097 228.371 C 139.917 226.182,139.947 225.007,139.947 195.201 L 139.947 164.301 173.120 164.177 L 206.293 164.053 208.688 162.930 C 211.544 161.591,210.977 162.179,232.716 138.027 C 244.256 125.206,249.967 118.541,250.727 117.007 C 252.277 113.878,252.277 110.122,250.727 106.993 C 249.967 105.459,244.256 98.794,232.716 85.973 C 211.201 62.070,211.523 62.405,208.907 61.187 L 206.720 60.168 173.333 60.164 L 139.947 60.160 139.947 45.029 C 139.947 30.806,139.894 29.758,139.069 27.554 C 138.002 24.702,134.916 21.735,131.975 20.733 C 129.528 19.899,126.249 19.910,123.850 20.759 M211.035 97.761 C 217.814 105.300,223.360 111.708,223.360 112.000 C 223.360 112.292,217.814 118.700,211.035 126.239 L 198.711 139.947 121.329 139.947 L 43.947 139.947 43.947 112.000 L 43.947 84.053 121.329 84.053 L 198.711 84.053 211.035 97.761 " stroke="none" fill-rule="evenodd"></path></svg>