<svg fill="currentColor" viewBox="0 0 256 256" xmlns="http://www.w3.org/2000/svg"><path d="M66.583 29.547 C 64.158 30.834,61.878 33.328,34.818 64.289 C 16.646 85.079,5.420 98.258,5.017 99.275 C 3.389 103.375,3.968 107.948,6.520 111.147 C 7.269 112.085,33.262 140.045,64.282 173.280 C 110.869 223.191,121.042 233.883,122.742 234.720 C 125.701 236.177,130.360 236.153,133.333 234.667 C 135.119 233.774,144.839 223.560,192.928 172.045 C 255.157 105.382,251.932 109.096,251.932 104.107 C 251.932 99.383,252.507 100.129,221.203 64.312 C 194.123 33.329,191.842 30.834,189.417 29.547 L 186.805 28.160 128.000 28.160 L 69.195 28.160 66.583 29.547 M103.609 52.422 C 103.531 52.625,96.843 61.641,88.747 72.457 L 74.027 92.124 58.311 92.142 C 49.668 92.152,42.660 92.002,42.738 91.808 C 42.816 91.614,50.643 82.590,60.131 71.755 L 77.381 52.053 90.566 52.053 C 97.818 52.053,103.687 52.219,103.609 52.422 M195.869 71.755 C 205.357 82.590,213.184 91.614,213.262 91.808 C 213.340 92.002,206.382 92.160,197.799 92.160 L 182.194 92.160 167.554 72.640 C 159.503 61.904,152.770 52.880,152.592 52.587 C 152.337 52.165,155.017 52.053,165.444 52.053 L 178.619 52.053 195.869 71.755 M140.079 76.071 L 151.945 91.947 139.972 92.060 C 133.388 92.122,122.612 92.122,116.028 92.060 L 104.055 91.947 115.921 76.071 C 122.447 67.340,127.883 60.196,128.000 60.196 C 128.117 60.196,133.553 67.340,140.079 76.071 M82.230 141.954 C 87.915 156.192,92.501 167.908,92.421 167.988 C 92.287 168.122,47.159 119.961,44.875 117.247 L 43.871 116.053 57.882 116.059 L 71.893 116.065 82.230 141.954 M143.211 153.594 C 134.962 174.241,128.117 191.134,128.000 191.134 C 127.883 191.134,121.038 174.241,112.789 153.594 L 97.791 116.053 128.000 116.053 L 158.209 116.053 143.211 153.594 M211.125 117.247 C 208.841 119.961,163.713 168.122,163.579 167.988 C 163.499 167.908,168.085 156.192,173.770 141.954 L 184.107 116.065 198.118 116.059 L 212.129 116.053 211.125 117.247 " stroke="none" fill-rule="evenodd"></path></svg>