<svg fill="currentColor" viewBox="0 0 256 256" xmlns="http://www.w3.org/2000/svg"><path d="M119.680 20.310 C 97.411 22.610,80.001 29.205,63.147 41.728 C 57.186 46.157,46.223 57.026,41.973 62.720 C 16.611 96.701,12.928 141.035,32.385 178.133 C 37.761 188.385,42.832 195.175,51.828 204.172 C 60.825 213.168,67.615 218.239,77.867 223.615 C 114.965 243.072,159.250 239.395,193.280 214.031 C 198.497 210.143,210.143 198.497,214.031 193.280 C 228.489 173.882,235.947 151.668,235.947 128.000 C 235.947 92.235,218.399 59.167,188.587 38.752 C 175.422 29.738,160.539 23.864,144.427 21.325 C 139.077 20.483,124.002 19.864,119.680 20.310 M135.040 44.374 C 172.305 47.758,202.630 74.580,210.140 110.797 C 215.959 138.858,207.285 167.541,186.865 187.761 C 173.241 201.252,155.612 209.521,136.017 211.611 C 111.761 214.199,86.191 204.984,68.686 187.348 C 48.533 167.041,40.077 138.684,45.860 110.797 C 54.430 69.467,93.221 40.575,135.040 44.374 M71.797 84.733 C 70.806 85.099,69.040 86.255,67.874 87.303 C 64.326 90.494,63.118 95.378,64.713 100.084 C 65.279 101.753,66.415 103.197,70.228 107.090 L 75.031 111.994 70.229 116.904 C 66.423 120.796,65.280 122.249,64.714 123.916 C 63.195 128.391,64.294 133.286,67.516 136.394 C 70.406 139.182,71.784 139.726,75.947 139.725 C 80.649 139.723,81.750 139.124,87.245 133.578 C 89.588 131.214,91.689 129.280,91.916 129.280 C 92.143 129.280,94.450 131.365,97.044 133.914 C 100.989 137.791,102.136 138.671,104.058 139.301 C 111.951 141.887,119.864 136.234,119.880 128.000 C 119.887 123.902,118.714 121.811,113.539 116.701 C 111.167 114.359,109.227 112.243,109.227 112.000 C 109.227 111.757,111.167 109.641,113.539 107.299 C 118.709 102.194,119.885 100.100,119.885 96.000 C 119.885 87.748,111.951 82.088,104.058 84.709 C 102.137 85.347,100.951 86.264,96.832 90.296 L 91.905 95.120 87.446 90.622 C 84.993 88.148,82.219 85.724,81.280 85.235 C 79.036 84.065,74.292 83.814,71.797 84.733 M144.637 84.452 C 139.543 86.002,136.115 90.646,136.115 96.000 C 136.115 100.100,137.291 102.194,142.461 107.299 C 144.833 109.641,146.773 111.757,146.773 112.000 C 146.773 112.243,144.833 114.359,142.461 116.701 C 137.291 121.806,136.115 123.900,136.115 128.000 C 136.115 136.504,144.355 142.118,152.411 139.102 C 154.200 138.432,155.593 137.328,159.139 133.769 C 161.599 131.300,163.800 129.280,164.030 129.280 C 164.260 129.280,166.280 131.172,168.518 133.485 C 173.143 138.265,175.250 139.541,179.022 139.844 C 185.988 140.403,192.000 134.916,192.000 128.000 C 192.000 124.051,190.974 122.224,185.771 116.904 L 180.969 111.994 185.772 107.090 C 189.585 103.197,190.721 101.753,191.287 100.084 C 193.216 94.395,190.977 88.556,185.671 85.437 C 183.919 84.407,183.244 84.267,180.053 84.272 C 175.327 84.278,174.259 84.868,168.554 90.622 L 164.095 95.120 159.168 90.300 C 155.259 86.478,153.805 85.333,152.137 84.767 C 149.964 84.029,146.505 83.884,144.637 84.452 M122.390 165.063 C 114.877 168.075,110.816 175.451,112.423 183.162 C 113.182 186.802,114.477 189.074,117.294 191.708 C 120.681 194.876,122.668 195.599,128.000 195.599 C 133.332 195.599,135.319 194.876,138.706 191.708 C 141.523 189.074,142.818 186.802,143.577 183.162 C 145.064 176.027,141.557 168.937,134.929 165.683 C 132.843 164.658,131.879 164.464,128.427 164.374 C 125.280 164.291,123.930 164.445,122.390 165.063 " stroke="none" fill-rule="evenodd"></path></svg>