<svg fill="currentColor" viewBox="0 0 256 256" xmlns="http://www.w3.org/2000/svg"><path d="M99.257 12.624 C 93.693 13.970,94.240 13.478,57.730 50.039 C 31.178 76.628,23.314 84.743,22.490 86.400 C 19.180 93.055,19.228 99.398,22.638 105.795 C 23.875 108.116,30.473 114.664,76.747 159.499 C 105.733 187.583,130.974 211.963,132.840 213.678 C 136.735 217.258,139.302 218.697,143.304 219.545 C 147.616 220.459,236.225 220.434,240.111 219.518 C 247.645 217.741,253.223 212.488,255.219 205.288 C 256.223 201.669,256.310 190.042,255.374 184.696 C 252.504 168.309,240.904 155.059,225.049 150.059 C 221.148 148.828,216.222 148.053,212.304 148.053 C 208.833 148.053,203.724 146.730,200.399 144.970 C 195.611 142.435,191.535 137.505,189.133 131.340 C 188.512 129.748,188.377 126.905,188.155 110.720 C 187.909 92.779,187.855 91.835,186.960 89.421 C 184.770 83.520,180.696 79.319,174.979 77.069 C 173.948 76.663,170.991 76.038,168.408 75.679 C 162.399 74.843,158.132 73.745,154.064 71.986 C 141.085 66.374,133.365 54.999,132.082 39.594 C 131.762 35.756,130.641 32.227,128.863 29.454 C 126.969 26.503,115.814 15.772,113.186 14.373 C 110.746 13.074,106.143 11.945,103.467 11.990 C 102.528 12.005,100.634 12.290,99.257 12.624 M106.328 40.017 C 108.161 41.977,108.252 42.197,108.543 45.412 C 109.415 55.030,114.066 66.726,120.322 75.027 C 129.014 86.563,142.206 94.719,157.653 98.109 C 160.000 98.624,162.352 99.131,162.880 99.237 C 163.798 99.421,163.840 99.615,163.840 103.653 L 163.840 107.876 154.347 108.022 C 144.991 108.166,144.822 108.185,142.661 109.320 C 133.276 114.254,134.167 127.578,144.137 131.370 C 145.243 131.791,148.515 132.025,155.204 132.163 L 164.700 132.359 164.924 133.486 C 165.047 134.106,165.814 136.667,166.627 139.177 C 167.441 141.687,168.107 143.847,168.107 143.977 C 168.107 144.107,164.688 144.213,160.510 144.213 C 153.210 144.213,152.829 144.256,150.716 145.309 C 143.234 149.037,141.758 159.042,147.860 164.666 C 151.455 167.980,150.517 167.854,173.440 168.106 C 193.528 168.327,193.969 168.350,196.480 169.315 C 199.951 170.649,206.758 171.947,210.283 171.947 C 219.318 171.947,226.189 175.897,229.718 183.120 C 231.326 186.413,232.263 190.907,232.027 194.199 L 231.893 196.053 190.507 196.146 L 149.120 196.239 97.707 146.404 C 69.429 118.995,46.293 96.351,46.293 96.085 C 46.293 95.407,103.199 37.973,103.870 37.973 C 104.171 37.973,105.277 38.893,106.328 40.017 M24.068 160.768 C 20.130 162.149,17.498 165.076,16.424 169.266 C 15.354 173.444,16.434 177.287,19.557 180.410 C 22.866 183.719,22.620 183.680,40.107 183.680 C 55.353 183.680,55.717 183.660,57.441 182.738 C 59.788 181.483,62.499 178.334,63.328 175.900 C 65.245 170.275,62.908 164.453,57.540 161.480 L 55.253 160.213 40.747 160.110 C 27.750 160.017,26.014 160.086,24.068 160.768 M38.873 197.195 C 36.552 198.344,34.436 200.422,33.184 202.785 C 31.821 205.354,31.821 210.646,33.184 213.215 C 34.477 215.655,36.850 217.947,39.215 219.041 C 41.146 219.934,41.555 219.947,68.053 219.947 L 94.933 219.947 96.941 218.949 C 99.281 217.785,102.173 214.808,103.147 212.561 C 104.040 210.498,104.045 205.513,103.156 203.460 C 102.139 201.114,99.454 198.385,97.067 197.271 L 94.933 196.275 67.840 196.271 C 40.881 196.267,40.737 196.272,38.873 197.195 " stroke="none" fill-rule="evenodd"></path></svg>