<svg fill="currentColor" viewBox="0 0 256 256" xmlns="http://www.w3.org/2000/svg"><path d="M119.680 20.310 C 97.411 22.610,80.001 29.205,63.147 41.728 C 57.186 46.157,46.223 57.026,41.973 62.720 C 16.611 96.701,12.928 141.035,32.385 178.133 C 37.761 188.385,42.832 195.175,51.828 204.172 C 60.825 213.168,67.615 218.239,77.867 223.615 C 114.965 243.072,159.250 239.395,193.280 214.031 C 198.497 210.143,210.143 198.497,214.031 193.280 C 228.489 173.882,235.947 151.668,235.947 128.000 C 235.947 92.235,218.399 59.167,188.587 38.752 C 175.422 29.738,160.539 23.864,144.427 21.325 C 139.077 20.483,124.002 19.864,119.680 20.310 M116.053 57.283 L 116.053 69.765 95.504 84.269 C 84.201 92.247,74.730 98.908,74.457 99.073 C 74.076 99.303,57.130 94.137,52.763 92.460 C 52.047 92.184,52.131 91.878,53.750 88.877 C 66.003 66.161,86.433 50.941,111.787 45.640 C 113.781 45.223,115.557 44.864,115.733 44.841 C 115.909 44.818,116.053 50.417,116.053 57.283 M144.087 45.646 C 150.973 46.853,161.304 50.534,167.647 54.040 C 182.823 62.429,194.117 73.799,202.250 88.877 C 203.869 91.878,203.953 92.184,203.237 92.460 C 198.870 94.137,181.924 99.303,181.543 99.073 C 181.270 98.908,171.799 92.247,160.496 84.269 L 139.947 69.765 139.947 57.254 C 139.947 45.539,139.994 44.756,140.693 44.962 C 141.104 45.083,142.631 45.391,144.087 45.646 M147.187 104.199 C 157.273 111.305,165.530 117.313,165.536 117.550 C 165.542 117.786,162.410 127.386,158.577 138.883 L 151.608 159.787 128.000 159.787 L 104.392 159.787 97.423 138.883 C 93.590 127.386,90.458 117.786,90.463 117.550 C 90.479 116.876,127.689 90.833,128.301 91.068 C 128.602 91.183,137.100 97.092,147.187 104.199 M74.421 145.671 C 78.783 158.597,82.351 169.414,82.349 169.708 C 82.346 170.291,70.175 187.132,69.419 187.599 C 68.598 188.107,61.985 180.289,57.594 173.620 C 47.789 158.726,42.850 139.502,44.319 121.957 C 44.597 118.644,44.912 115.790,45.020 115.617 C 45.127 115.443,50.002 116.846,55.853 118.735 L 66.491 122.170 74.421 145.671 M211.724 127.787 C 211.776 142.445,208.772 154.875,202.203 167.186 C 198.591 173.955,191.625 183.533,187.673 187.164 L 186.667 188.089 180.088 179.069 L 173.510 170.048 181.475 146.144 L 189.441 122.240 200.214 118.756 L 210.987 115.272 211.341 117.476 C 211.536 118.688,211.708 123.328,211.724 127.787 M157.251 188.480 C 159.079 191.003,162.078 195.127,163.916 197.646 L 167.257 202.226 164.802 203.456 C 158.366 206.679,150.482 209.217,141.859 210.840 C 137.544 211.652,135.349 211.799,127.787 211.781 C 119.895 211.763,118.128 211.625,112.972 210.627 C 106.040 209.284,98.666 206.938,92.885 204.234 L 88.704 202.278 92.065 197.673 C 93.913 195.139,96.921 191.003,98.749 188.480 L 102.072 183.893 128.000 183.893 L 153.928 183.893 157.251 188.480 " stroke="none" fill-rule="evenodd"></path></svg>