<svg fill="currentColor" viewBox="0 0 256 256" xmlns="http://www.w3.org/2000/svg"><path d="M44.246 52.669 C 40.026 54.174,37.142 57.435,36.256 61.707 C 35.021 67.655,38.862 73.877,44.785 75.523 C 45.743 75.789,71.065 75.943,114.164 75.944 C 191.236 75.947,184.471 76.278,188.441 72.308 C 193.229 67.520,193.212 60.463,188.401 55.652 C 184.492 51.743,190.913 52.051,113.736 52.072 C 57.765 52.088,45.583 52.192,44.246 52.669 M178.987 101.251 C 176.347 102.513,174.253 104.578,173.066 107.093 C 172.168 108.995,172.159 109.340,172.044 143.979 L 171.927 178.945 161.377 168.430 C 149.550 156.642,148.892 156.179,144.000 156.179 C 137.104 156.179,132.068 161.227,132.101 168.107 C 132.126 173.346,131.755 172.893,155.433 196.526 C 179.118 220.166,178.805 219.909,183.919 219.909 C 189.128 219.909,188.921 220.080,212.962 195.963 C 233.272 175.589,234.609 174.156,235.309 171.995 C 237.873 164.084,232.230 156.189,224.000 156.174 C 219.104 156.164,217.915 156.993,206.430 168.414 L 196.300 178.487 196.160 144.177 C 196.054 118.150,195.892 109.483,195.487 108.277 C 194.698 105.931,192.463 103.231,190.099 101.769 C 188.304 100.659,187.537 100.463,184.567 100.356 C 181.651 100.251,180.791 100.389,178.987 101.251 M44.246 116.669 C 40.026 118.174,37.142 121.435,36.256 125.707 C 35.021 131.655,38.862 137.877,44.785 139.523 C 45.717 139.782,60.006 139.943,82.164 139.944 C 123.145 139.947,120.581 140.168,124.441 136.308 C 129.229 131.520,129.212 124.463,124.401 119.652 C 120.605 115.856,122.924 116.051,81.736 116.072 C 52.683 116.087,45.559 116.201,44.246 116.669 M44.246 180.669 C 40.026 182.174,37.142 185.435,36.256 189.707 C 35.021 195.655,38.862 201.877,44.785 203.523 C 45.704 203.778,57.206 203.936,74.240 203.926 C 104.388 203.908,103.692 203.957,107.082 201.608 C 109.258 200.100,110.805 197.689,111.609 194.553 C 112.196 192.259,112.196 191.741,111.609 189.447 C 110.485 185.063,107.868 182.117,103.809 180.669 C 101.426 179.820,46.629 179.819,44.246 180.669 " stroke="none" fill-rule="evenodd"></path></svg>