<svg fill="currentColor" viewBox="0 0 256 256" xmlns="http://www.w3.org/2000/svg"><path d="M134.873 37.195 C 132.552 38.344,130.436 40.422,129.184 42.785 C 128.424 44.218,128.228 45.286,128.228 48.000 C 128.228 51.903,129.046 53.924,131.698 56.576 C 134.234 59.113,136.289 59.773,142.933 60.189 C 152.737 60.803,159.736 62.671,167.596 66.773 C 183.075 74.852,194.070 88.778,198.127 105.444 C 198.719 107.877,199.324 110.923,199.471 112.213 C 199.901 115.992,200.939 118.610,202.813 120.642 C 204.907 122.915,206.509 123.768,210.967 124.985 C 216.085 126.383,219.878 128.566,223.607 132.262 C 227.254 135.877,228.960 138.618,230.644 143.573 C 231.622 146.450,231.808 147.725,231.823 151.680 C 231.852 158.900,230.074 164.085,225.664 169.646 C 223.077 172.907,220.008 175.293,215.878 177.254 C 209.949 180.070,210.448 180.038,172.557 180.046 C 133.342 180.054,135.374 179.877,131.639 183.612 C 126.746 188.505,126.729 195.478,131.599 200.348 C 135.408 204.157,132.981 203.947,173.196 203.945 C 211.811 203.943,212.442 203.909,220.134 201.395 C 233.257 197.107,244.278 187.613,250.453 175.278 C 263.542 149.132,252.507 117.371,226.021 104.959 L 222.378 103.252 221.859 101.013 C 219.325 90.090,213.923 78.598,207.004 69.411 C 191.620 48.986,166.783 36.309,142.080 36.275 C 137.455 36.268,136.498 36.390,134.873 37.195 M96.501 44.554 C 92.343 45.909,89.209 49.328,88.317 53.481 C 87.980 55.052,87.883 75.551,87.976 125.257 L 88.107 194.834 89.394 197.351 C 90.822 200.144,93.703 202.654,96.410 203.465 C 101.302 204.930,107.118 202.904,109.843 198.785 C 112.338 195.015,112.236 198.432,112.113 122.845 L 112.000 53.547 110.992 51.316 C 109.875 48.846,106.980 45.919,104.718 44.974 C 102.516 44.054,98.643 43.856,96.501 44.554 M56.191 84.643 C 52.125 86.159,49.532 89.053,48.422 93.315 C 47.452 97.037,47.470 191.032,48.441 194.759 C 49.308 198.086,51.310 200.779,54.078 202.339 C 60.094 205.729,67.457 203.507,70.606 197.352 L 71.893 194.834 72.007 144.910 C 72.106 101.205,72.040 94.707,71.470 92.748 C 70.043 87.841,65.809 84.492,60.661 84.200 C 58.870 84.098,57.211 84.263,56.191 84.643 M17.280 108.322 C 14.926 108.944,12.479 110.461,10.949 112.248 C 8.051 115.634,8.107 115.012,8.107 144.000 C 8.107 173.972,7.966 172.715,11.753 176.502 C 13.472 178.221,14.523 178.878,16.445 179.437 C 22.301 181.139,27.837 178.689,30.847 173.063 L 31.787 171.307 31.787 144.000 L 31.787 116.693 30.526 114.418 C 29.151 111.935,27.659 110.495,25.122 109.200 C 23.281 108.261,19.229 107.808,17.280 108.322 " stroke="none" fill-rule="evenodd"></path></svg>