<svg fill="currentColor" viewBox="0 0 256 256" xmlns="http://www.w3.org/2000/svg"><path d="M148.904 20.426 C 146.445 21.233,143.570 23.379,110.535 49.071 L 75.977 75.947 53.427 75.947 C 39.122 75.947,29.951 76.115,28.345 76.408 C 20.548 77.827,14.058 84.211,12.418 92.074 C 11.761 95.225,11.761 160.775,12.418 163.926 C 14.040 171.702,20.298 177.960,28.074 179.582 C 29.561 179.892,38.136 180.053,53.127 180.053 L 75.919 180.053 110.973 207.318 C 149.333 237.155,148.063 236.296,153.146 235.836 C 154.486 235.714,156.345 235.226,157.277 234.750 C 159.599 233.565,162.263 230.563,163.240 228.028 C 164.031 225.977,164.053 223.284,164.053 128.000 C 164.053 32.716,164.031 30.023,163.240 27.972 C 162.258 25.425,159.597 22.434,157.246 21.233 C 155.372 20.277,150.729 19.828,148.904 20.426 M139.842 163.625 L 139.733 199.250 115.963 180.798 L 92.192 162.347 92.192 128.000 L 92.192 93.653 115.963 75.202 L 139.733 56.750 139.842 92.375 C 139.902 111.969,139.902 144.031,139.842 163.625 M67.840 128.213 L 67.840 156.160 52.053 156.160 L 36.267 156.160 36.267 128.213 L 36.267 100.267 52.053 100.267 L 67.840 100.267 67.840 128.213 " stroke="none" fill-rule="evenodd"></path></svg>