<svg fill="currentColor" viewBox="0 0 256 256" xmlns="http://www.w3.org/2000/svg"><path d="M58.993 20.711 C 53.731 22.128,48.615 26.138,46.340 30.628 C 43.825 35.590,43.959 30.118,43.959 128.000 C 43.959 225.882,43.825 220.410,46.340 225.372 C 47.756 228.167,51.680 232.114,54.423 233.503 C 59.559 236.104,54.837 235.947,128.000 235.947 C 188.218 235.947,195.061 235.879,197.149 235.259 C 204.334 233.127,209.466 227.963,211.271 221.048 C 211.953 218.436,212.004 211.928,212.004 128.000 C 212.004 44.072,211.953 37.564,211.271 34.952 C 209.451 27.979,203.972 22.552,196.892 20.707 C 194.685 20.133,186.303 20.057,127.804 20.081 C 71.919 20.105,60.868 20.206,58.993 20.711 M188.160 128.000 L 188.160 212.053 128.213 212.053 L 68.267 212.053 68.267 128.000 L 68.267 43.947 128.213 43.947 L 188.160 43.947 188.160 128.000 M123.733 60.536 C 121.125 61.393,118.231 63.224,116.411 65.170 C 113.930 67.823,113.158 69.317,112.406 72.923 C 110.567 81.740,116.285 89.925,125.587 91.793 C 131.848 93.051,139.293 89.157,142.273 83.067 C 144.430 78.658,144.432 72.830,142.279 68.665 C 141.056 66.300,137.730 63.118,135.047 61.745 C 132.836 60.613,131.948 60.414,128.640 60.309 C 126.528 60.241,124.320 60.343,123.733 60.536 M122.240 108.434 C 105.492 110.561,91.182 122.606,86.068 138.880 C 84.405 144.174,83.899 148.271,84.181 154.151 C 85.092 173.127,97.499 188.696,116.267 194.416 C 119.861 195.512,120.612 195.587,128.000 195.587 C 135.361 195.587,136.152 195.509,139.733 194.427 C 155.104 189.787,166.338 178.425,170.480 163.331 C 171.846 158.351,172.316 150.479,171.537 145.617 C 167.698 121.656,146.143 105.398,122.240 108.434 M136.582 134.064 C 144.476 137.965,149.037 146.563,147.680 154.985 C 145.071 171.185,125.462 177.599,113.913 166.030 C 103.489 155.589,107.685 138.044,121.808 133.012 C 123.472 132.419,124.994 132.275,128.663 132.365 C 133.133 132.475,133.546 132.563,136.582 134.064 " stroke="none" fill-rule="evenodd"></path></svg>