<svg fill="currentColor" viewBox="0 0 256 256" xmlns="http://www.w3.org/2000/svg"><path d="M148.904 20.426 C 148.316 20.619,147.222 21.094,146.474 21.481 C 144.832 22.330,111.029 48.559,109.418 50.234 C 106.446 53.324,105.519 59.162,107.367 63.147 C 109.348 67.417,113.583 70.155,118.183 70.140 C 122.083 70.126,123.611 69.301,132.267 62.532 L 139.733 56.692 139.947 77.306 C 140.191 100.898,140.052 99.997,144.008 103.613 C 150.409 109.463,160.448 106.968,163.292 98.820 C 163.997 96.800,164.053 94.195,164.053 63.360 C 164.053 31.650,164.015 29.981,163.240 27.972 C 162.258 25.425,159.597 22.434,157.246 21.233 C 155.372 20.277,150.729 19.828,148.904 20.426 M42.880 29.166 C 37.014 31.910,34.452 38.542,36.898 44.654 C 37.356 45.799,42.091 51.331,50.935 61.057 L 64.280 75.733 46.114 75.951 C 28.883 76.158,27.822 76.216,25.524 77.081 C 18.648 79.671,13.920 85.085,12.429 92.074 C 11.762 95.202,11.752 160.731,12.418 163.926 C 14.040 171.702,20.298 177.960,28.074 179.582 C 29.561 179.892,38.136 180.053,53.127 180.053 L 75.919 180.053 110.973 207.318 C 149.333 237.155,148.063 236.296,153.146 235.836 C 157.455 235.445,161.118 232.730,163.072 228.480 C 164.041 226.373,164.056 226.098,164.267 206.148 L 164.480 185.949 182.373 205.643 C 193.435 217.819,200.932 225.728,202.010 226.359 C 204.978 228.099,207.853 228.491,211.134 227.603 C 213.490 226.965,214.328 226.462,216.374 224.462 C 218.356 222.523,218.944 221.610,219.535 219.555 C 220.397 216.562,220.175 213.661,218.879 210.986 C 218.331 209.853,187.219 175.307,136.725 119.763 C 46.385 20.389,53.907 28.156,48.023 28.164 C 45.767 28.167,44.479 28.418,42.880 29.166 M224.501 76.554 C 220.344 77.909,217.211 81.326,216.316 85.481 C 215.981 87.033,215.881 99.923,215.974 129.280 C 216.106 170.644,216.112 170.891,217.012 172.838 C 219.529 178.279,225.667 181.118,231.347 179.467 C 234.429 178.571,237.601 175.762,238.982 172.706 L 240.000 170.453 240.000 128.000 L 240.000 85.547 238.992 83.316 C 237.875 80.846,234.980 77.919,232.718 76.974 C 230.516 76.054,226.643 75.856,224.501 76.554 M187.307 93.046 C 184.970 94.101,182.434 96.477,181.191 98.773 C 180.286 100.445,180.264 100.894,180.144 120.695 C 180.007 143.230,180.023 143.383,182.852 146.687 C 186.403 150.836,192.479 152.031,197.351 149.539 C 200.220 148.072,202.727 145.136,203.503 142.335 C 203.842 141.112,203.950 134.561,203.861 120.533 C 203.736 100.902,203.714 100.444,202.809 98.773 C 200.571 94.638,196.539 92.179,192.000 92.179 C 190.126 92.179,188.604 92.460,187.307 93.046 M113.251 129.600 L 139.940 158.933 139.943 179.119 C 139.945 190.220,139.787 199.205,139.592 199.085 C 139.397 198.964,127.255 189.547,112.610 178.158 C 94.247 163.877,85.395 157.251,84.089 156.805 C 82.490 156.261,78.610 156.160,59.231 156.160 L 36.267 156.160 36.267 128.213 L 36.267 100.267 61.414 100.267 L 86.562 100.267 113.251 129.600 " stroke="none" fill-rule="evenodd"></path></svg>