<svg fill="currentColor" viewBox="0 0 256 256" xmlns="http://www.w3.org/2000/svg"><path d="M148.904 20.426 C 146.445 21.233,143.570 23.379,110.535 49.071 L 75.977 75.947 53.427 75.947 C 39.122 75.947,29.951 76.115,28.345 76.408 C 20.548 77.827,14.058 84.211,12.418 92.074 C 11.761 95.225,11.761 160.775,12.418 163.926 C 14.040 171.702,20.298 177.960,28.074 179.582 C 29.561 179.892,38.136 180.053,53.127 180.053 L 75.919 180.053 110.973 207.318 C 149.333 237.155,148.063 236.296,153.146 235.836 C 154.486 235.714,156.345 235.226,157.277 234.750 C 159.599 233.565,162.263 230.563,163.240 228.028 C 164.031 225.977,164.053 223.284,164.053 128.000 C 164.053 32.716,164.031 30.023,163.240 27.972 C 162.258 25.425,159.597 22.434,157.246 21.233 C 155.372 20.277,150.729 19.828,148.904 20.426 M139.842 163.625 L 139.733 199.249 112.857 178.350 C 94.323 163.937,85.394 157.250,84.088 156.805 C 82.491 156.261,78.606 156.160,59.231 156.160 L 36.267 156.160 36.267 128.213 L 36.267 100.267 57.493 100.263 C 78.449 100.260,82.914 100.024,85.292 98.795 C 85.910 98.475,98.412 88.884,113.075 77.482 L 139.733 56.750 139.842 92.375 C 139.902 111.969,139.902 144.031,139.842 163.625 M186.516 93.476 C 181.096 96.184,178.747 102.187,180.757 108.191 C 181.361 109.993,182.714 111.558,190.228 119.147 L 198.995 128.000 190.228 136.853 C 180.575 146.601,180.053 147.397,180.053 152.359 C 180.053 154.286,180.348 155.374,181.440 157.481 C 183.131 160.744,185.628 162.684,189.373 163.643 C 191.763 164.255,192.236 164.255,194.618 163.645 C 198.124 162.747,199.841 161.390,208.636 152.559 L 216.098 145.066 224.636 153.584 C 234.190 163.116,235.422 163.947,240.000 163.947 C 246.716 163.947,251.921 158.673,251.907 151.881 C 251.897 147.341,250.996 145.996,241.552 136.427 L 233.237 128.000 241.640 119.502 C 251.092 109.943,251.877 108.765,251.899 104.107 C 251.932 97.222,246.908 92.191,239.977 92.169 C 235.266 92.155,234.037 92.979,224.440 102.593 L 216.133 110.915 207.774 102.622 C 198.208 93.132,196.755 92.171,191.961 92.164 C 189.668 92.161,188.664 92.403,186.516 93.476 " stroke="none" fill-rule="evenodd"></path></svg>