<svg fill="currentColor" viewBox="0 0 256 256" xmlns="http://www.w3.org/2000/svg"><path d="M123.850 20.759 C 121.059 21.748,117.967 24.784,116.931 27.554 C 116.096 29.785,116.053 30.779,116.053 48.000 C 116.053 68.711,116.098 69.018,119.596 72.451 C 125.686 78.427,136.154 76.237,139.097 68.371 C 139.896 66.236,139.947 65.028,139.947 48.000 C 139.947 30.779,139.904 29.785,139.069 27.554 C 138.002 24.702,134.916 21.735,131.975 20.733 C 129.528 19.899,126.249 19.910,123.850 20.759 M56.744 48.587 C 51.548 50.290,48.222 54.808,48.222 60.160 C 48.222 65.029,48.705 65.669,63.418 80.261 C 77.716 94.441,78.089 94.720,82.773 94.720 C 87.649 94.720,92.551 91.217,94.069 86.648 C 95.013 83.806,94.780 79.842,93.528 77.427 C 92.435 75.319,67.353 50.307,65.280 49.258 C 63.632 48.424,58.476 48.019,56.744 48.587 M27.850 116.759 C 26.859 117.110,25.094 118.255,23.928 119.303 C 17.463 125.115,19.516 136.010,27.658 139.104 C 29.740 139.895,30.986 139.947,47.989 139.947 C 65.028 139.947,66.236 139.896,68.371 139.097 C 76.459 136.072,78.516 125.097,72.080 119.311 C 68.455 116.051,68.437 116.049,47.817 116.087 C 32.843 116.115,29.337 116.233,27.850 116.759 M187.850 116.759 C 186.859 117.110,185.094 118.255,183.928 119.303 C 177.463 125.115,179.516 136.010,187.658 139.104 C 189.740 139.895,190.986 139.947,207.989 139.947 C 225.028 139.947,226.236 139.896,228.371 139.097 C 236.459 136.072,238.516 125.097,232.080 119.311 C 228.455 116.051,228.437 116.049,207.817 116.087 C 192.843 116.115,189.337 116.233,187.850 116.759 M78.720 161.988 C 76.785 162.577,75.366 163.851,63.433 175.719 C 55.835 183.274,49.904 189.521,49.392 190.507 C 48.833 191.582,48.431 193.340,48.306 195.259 C 48.137 197.852,48.263 198.646,49.156 200.595 C 51.250 205.170,55.255 207.782,60.160 207.773 C 64.923 207.764,65.420 207.393,79.709 193.156 C 87.062 185.830,93.025 179.535,93.526 178.573 C 94.780 176.160,95.013 172.197,94.069 169.352 C 93.008 166.158,89.690 162.873,86.599 161.955 C 83.812 161.128,81.518 161.137,78.720 161.988 M169.222 161.979 C 166.321 162.870,162.953 166.276,161.931 169.352 C 160.987 172.197,161.220 176.160,162.474 178.573 C 162.975 179.535,168.938 185.830,176.291 193.156 C 190.580 207.393,191.077 207.764,195.840 207.773 C 200.745 207.782,204.750 205.170,206.844 200.595 C 207.737 198.646,207.863 197.852,207.694 195.259 C 207.569 193.340,207.167 191.582,206.608 190.507 C 206.096 189.520,200.168 183.279,192.567 175.721 C 180.152 163.378,179.283 162.604,177.096 161.961 C 174.269 161.130,171.971 161.135,169.222 161.979 M123.850 180.759 C 121.059 181.748,117.967 184.784,116.931 187.554 C 116.096 189.785,116.053 190.779,116.053 208.000 C 116.053 228.711,116.098 229.018,119.596 232.451 C 125.686 238.427,136.154 236.237,139.097 228.371 C 139.896 226.236,139.947 225.028,139.947 208.000 C 139.947 190.779,139.904 189.785,139.069 187.554 C 138.002 184.702,134.916 181.735,131.975 180.733 C 129.528 179.899,126.249 179.910,123.850 180.759 " stroke="none" fill-rule="evenodd"></path></svg>