<svg fill="currentColor" viewBox="0 0 256 256" xmlns="http://www.w3.org/2000/svg"><path d="M125.155 12.331 C 124.412 12.522,122.972 13.171,121.955 13.774 C 120.938 14.377,112.308 22.709,102.777 32.289 C 87.288 47.857,85.373 49.930,84.750 51.809 C 82.412 58.865,86.193 65.804,93.381 67.645 C 95.759 68.254,96.240 68.255,98.604 67.649 C 102.075 66.760,102.882 66.156,109.973 59.143 L 116.053 53.131 116.053 72.636 L 116.053 92.141 80.107 92.257 L 44.160 92.373 42.178 93.538 C 33.661 98.545,34.183 110.751,43.093 114.938 L 45.013 115.840 127.129 115.951 C 219.590 116.076,212.121 116.341,215.903 112.803 C 218.702 110.185,219.875 107.622,219.884 104.107 C 219.894 99.592,217.745 95.845,213.822 93.538 L 211.840 92.373 175.893 92.257 L 139.947 92.141 139.947 72.650 L 139.947 53.158 146.027 59.145 C 153.167 66.176,153.958 66.768,157.396 67.649 C 159.761 68.255,160.241 68.254,162.627 67.643 C 169.839 65.795,173.597 58.893,171.250 51.809 C 170.626 49.928,168.710 47.856,153.057 32.142 C 141.383 20.422,134.886 14.210,133.533 13.474 C 131.322 12.270,127.449 11.742,125.155 12.331 M45.013 140.425 C 41.004 141.360,37.143 145.419,36.247 149.641 C 35.048 155.292,38.729 161.608,44.325 163.500 C 45.476 163.889,54.764 164.057,80.960 164.160 L 116.053 164.299 116.053 183.571 L 116.053 202.843 109.756 196.596 C 102.427 189.325,100.538 188.168,96.000 188.168 C 87.732 188.168,82.109 196.039,84.692 203.995 C 85.389 206.140,86.611 207.471,102.986 223.927 C 115.604 236.607,121.133 241.877,122.667 242.689 C 125.719 244.305,130.281 244.305,133.333 242.689 C 134.868 241.877,140.391 236.611,153.010 223.927 C 168.697 208.159,170.627 206.071,171.250 204.191 C 173.246 198.168,170.900 192.183,165.484 189.476 C 163.336 188.403,162.332 188.161,160.039 188.164 C 155.494 188.171,153.673 189.284,146.292 196.562 L 139.947 202.820 139.947 183.543 L 139.947 164.267 173.333 164.263 C 194.589 164.261,207.728 164.097,209.493 163.812 C 212.646 163.303,215.263 161.937,216.983 159.902 C 222.194 153.736,220.258 144.729,212.949 141.127 L 210.987 140.160 128.853 140.093 C 79.279 140.053,46.043 140.185,45.013 140.425 " stroke="none" fill-rule="evenodd"></path></svg>