<svg fill="currentColor" viewBox="0 0 256 256" xmlns="http://www.w3.org/2000/svg"><path d="M125.455 24.356 C 124.145 24.615,105.741 34.897,66.575 57.250 C 3.340 93.338,5.971 91.660,4.520 96.833 C 3.284 101.236,4.587 105.809,7.903 108.709 C 9.866 110.426,120.377 173.787,123.659 175.078 C 126.206 176.079,129.794 176.079,132.341 175.078 C 135.623 173.787,246.134 110.426,248.097 108.709 C 253.028 104.397,253.173 96.242,248.400 91.607 C 246.991 90.238,135.839 26.321,132.480 24.948 C 130.594 24.177,127.619 23.926,125.455 24.356 M171.527 74.699 C 195.342 88.328,214.986 99.633,215.181 99.822 C 215.376 100.010,195.840 111.420,171.768 125.177 L 128.000 150.189 84.232 125.177 C 60.160 111.420,40.624 100.008,40.819 99.817 C 41.231 99.411,127.678 49.952,128.007 49.933 C 128.129 49.926,147.713 61.071,171.527 74.699 M10.755 137.209 C 3.363 140.893,1.651 150.530,7.373 156.251 C 8.305 157.184,30.212 169.951,64.708 189.667 C 95.412 207.215,121.465 222.043,122.604 222.618 C 125.187 223.921,128.834 224.270,131.413 223.460 C 133.539 222.792,245.512 158.957,247.893 157.055 C 248.715 156.400,249.963 154.743,250.667 153.375 C 253.662 147.552,251.316 140.324,245.480 137.393 C 243.019 136.158,238.910 135.770,236.522 136.548 C 235.619 136.842,210.935 150.783,181.670 167.528 C 152.404 184.273,128.252 197.973,127.999 197.973 C 127.745 197.973,103.594 184.276,74.329 167.534 C 45.064 150.793,20.467 136.873,19.670 136.601 C 17.075 135.717,13.222 135.980,10.755 137.209 " stroke="none" fill-rule="evenodd"></path></svg>