<svg fill="currentColor" viewBox="0 0 256 256" xmlns="http://www.w3.org/2000/svg"><path d="M123.733 12.528 C 118.929 13.572,114.385 16.583,111.673 20.521 C 110.446 22.303,107.414 30.165,98.446 54.823 L 86.811 86.812 55.672 98.153 C 38.546 104.391,23.527 110.012,22.298 110.645 C 15.303 114.247,10.934 123.109,12.281 130.962 C 13.244 136.581,16.175 141.333,20.521 144.327 C 22.303 145.554,30.165 148.586,54.822 157.554 L 86.812 169.188 98.446 201.178 C 110.971 235.613,111.212 236.158,115.406 239.492 C 122.869 245.425,133.131 245.425,140.594 239.492 C 144.788 236.158,145.029 235.613,157.554 201.178 L 169.188 169.188 201.178 157.554 C 225.835 148.586,233.697 145.554,235.479 144.327 C 239.825 141.333,242.756 136.581,243.719 130.962 C 245.066 123.109,240.697 114.247,233.702 110.645 C 232.473 110.012,217.454 104.391,200.328 98.153 L 169.189 86.812 157.554 54.823 C 145.068 20.494,144.813 19.916,140.699 16.640 C 135.674 12.639,129.788 11.213,123.733 12.528 M137.763 70.722 C 143.015 85.212,147.886 98.163,148.587 99.503 C 150.114 102.423,153.915 106.169,156.823 107.621 C 157.984 108.200,170.788 112.974,185.278 118.230 C 199.767 123.486,211.623 127.883,211.624 128.000 C 211.625 128.117,199.770 132.510,185.279 137.761 C 170.789 143.013,157.837 147.883,156.497 148.585 C 153.576 150.115,149.830 153.916,148.379 156.823 C 147.800 157.984,143.026 170.788,137.770 185.278 C 132.514 199.767,128.117 211.622,128.000 211.622 C 127.883 211.622,123.486 199.767,118.230 185.278 C 112.974 170.788,108.200 157.984,107.621 156.823 C 106.170 153.917,102.425 150.115,99.503 148.584 C 98.163 147.882,85.211 143.013,70.720 137.764 C 56.229 132.515,44.374 128.123,44.376 128.003 C 44.377 127.884,56.233 123.486,70.722 118.230 C 85.212 112.974,98.016 108.200,99.177 107.621 C 102.085 106.169,105.886 102.423,107.413 99.503 C 108.114 98.163,112.985 85.212,118.237 70.722 C 123.489 56.233,127.883 44.378,128.000 44.378 C 128.117 44.378,132.511 56.233,137.763 70.722 " stroke="none" fill-rule="evenodd"></path></svg>