<svg fill="currentColor" viewBox="0 0 256 256" xmlns="http://www.w3.org/2000/svg"><path d="M102.613 28.431 C 78.574 31.008,56.856 41.454,40.517 58.298 C 35.104 63.878,32.126 67.576,28.123 73.690 C 20.512 85.311,15.158 99.602,12.970 114.133 C 11.906 121.198,11.906 134.802,12.970 141.867 C 16.201 163.321,25.420 182.111,40.213 197.390 C 55.165 212.832,74.007 222.814,95.360 226.604 C 101.798 227.747,115.954 228.184,122.502 227.441 C 132.927 226.259,143.829 223.288,153.339 219.037 C 160.924 215.646,163.827 212.225,163.836 206.667 C 163.844 201.766,161.878 198.374,157.589 195.885 C 151.080 192.109,149.716 191.236,146.133 188.552 C 142.396 185.754,135.400 179.017,132.655 175.573 C 131.907 174.635,130.149 172.139,128.749 170.027 C 104.206 133.000,116.449 82.956,155.297 61.516 C 161.593 58.041,163.845 54.823,163.836 49.311 C 163.831 46.216,162.534 43.138,160.372 41.090 C 158.690 39.497,150.779 35.629,145.280 33.713 C 140.516 32.053,132.919 30.124,127.573 29.218 C 123.633 28.550,106.532 28.010,102.613 28.431 M120.410 52.526 C 122.824 52.786,124.875 53.068,124.966 53.154 C 125.057 53.240,123.011 55.516,120.419 58.213 C 106.053 73.156,97.251 90.436,93.378 111.301 C 92.278 117.223,91.831 132.332,92.566 138.695 C 95.194 161.434,104.646 181.422,120.589 197.959 L 125.441 202.991 120.589 203.532 C 114.741 204.184,104.262 203.875,98.875 202.892 C 71.441 197.885,48.756 178.386,40.094 152.365 C 36.970 142.979,36.504 139.817,36.504 128.000 C 36.504 118.721,36.613 117.043,37.475 113.067 C 42.071 91.861,54.192 74.479,72.136 63.361 C 86.431 54.503,103.397 50.695,120.410 52.526 M208.640 68.278 C 206.480 68.551,204.290 69.512,202.583 70.935 C 201.951 71.462,197.557 76.597,192.820 82.347 C 186.802 89.651,183.976 92.771,183.440 92.704 C 183.018 92.651,177.241 91.247,170.601 89.584 C 157.298 86.251,154.596 85.944,151.323 87.392 C 146.869 89.362,144.121 93.519,144.086 98.339 C 144.061 101.686,144.380 102.358,152.662 116.376 L 159.532 128.005 152.664 139.629 C 148.887 146.022,145.407 152.117,144.931 153.173 C 142.459 158.661,145.410 166.071,151.031 168.489 C 155.040 170.213,155.703 170.148,169.813 166.620 C 176.971 164.830,183.139 163.329,183.521 163.283 C 183.959 163.231,187.458 167.130,193.016 173.867 C 198.094 180.021,202.631 185.108,203.739 185.891 C 209.964 190.287,219.083 187.340,221.634 180.108 C 222.145 178.660,224.427 154.355,224.427 150.364 C 224.427 149.686,226.747 148.535,237.265 143.995 C 245.207 140.567,250.704 137.942,251.678 137.113 C 254.940 134.339,256.680 129.102,255.631 125.220 C 254.913 122.566,252.792 119.578,250.669 118.232 C 249.608 117.559,243.269 114.644,236.583 111.755 C 229.209 108.569,224.427 106.275,224.427 105.923 C 224.427 101.961,222.132 77.413,221.615 75.846 C 220.884 73.629,218.128 70.489,215.906 69.340 C 214.126 68.420,211.062 67.972,208.640 68.278 M201.010 114.535 C 201.585 120.560,203.851 123.590,209.876 126.388 C 213.353 128.003,213.490 128.118,212.480 128.555 C 203.868 132.287,201.515 134.899,201.084 141.201 C 200.823 145.032,200.640 145.508,199.845 144.427 C 195.510 138.529,190.611 136.713,183.801 138.477 C 182.392 138.842,181.184 139.082,181.117 139.011 C 181.050 138.939,181.833 137.456,182.856 135.716 C 186.336 129.798,186.336 126.202,182.856 120.284 C 181.833 118.544,181.023 117.089,181.058 117.052 C 181.092 117.015,182.776 117.370,184.799 117.840 C 187.951 118.574,188.816 118.626,190.839 118.206 C 193.781 117.595,196.458 115.852,198.640 113.126 C 199.564 111.971,200.408 111.109,200.515 111.210 C 200.622 111.311,200.845 112.807,201.010 114.535 " stroke="none" fill-rule="evenodd"></path></svg>