<svg fill="currentColor" viewBox="0 0 256 256" xmlns="http://www.w3.org/2000/svg"><path d="M119.680 20.310 C 97.411 22.610,80.001 29.205,63.147 41.728 C 57.186 46.157,46.223 57.026,41.973 62.720 C 16.611 96.701,12.928 141.035,32.385 178.133 C 37.761 188.385,42.832 195.175,51.828 204.172 C 60.825 213.168,67.615 218.239,77.867 223.615 C 114.965 243.072,159.250 239.395,193.280 214.031 C 198.497 210.143,210.143 198.497,214.031 193.280 C 228.489 173.882,235.947 151.668,235.947 128.000 C 235.947 92.235,218.399 59.167,188.587 38.752 C 175.422 29.738,160.539 23.864,144.427 21.325 C 139.077 20.483,124.002 19.864,119.680 20.310 M140.602 45.026 C 173.474 49.961,200.708 74.352,209.076 106.353 C 210.242 110.811,211.728 119.069,211.421 119.385 C 211.351 119.457,209.208 118.088,206.660 116.344 C 188.571 103.961,168.806 96.425,145.842 93.154 C 138.333 92.084,117.635 92.090,110.080 93.163 C 87.234 96.409,67.766 103.833,49.323 116.331 C 46.766 118.064,44.624 119.431,44.563 119.368 C 44.270 119.066,45.789 110.693,46.924 106.353 C 53.645 80.650,72.315 59.813,97.675 49.712 C 104.547 46.975,112.671 45.183,122.667 44.199 C 125.748 43.895,136.316 44.383,140.602 45.026 M137.813 116.503 C 160.975 118.611,182.855 127.336,200.486 141.494 C 205.204 145.283,209.066 148.879,209.068 149.486 C 209.069 149.754,208.657 151.365,208.153 153.067 L 207.236 156.160 184.671 156.160 C 162.961 156.160,162.006 156.194,159.453 157.047 C 154.823 158.594,150.223 162.266,148.221 166.013 C 147.794 166.812,143.686 177.451,139.092 189.653 L 130.740 211.840 127.983 211.840 L 125.227 211.840 116.907 189.647 C 112.331 177.440,108.066 166.570,107.429 165.490 C 105.101 161.543,99.737 157.682,95.098 156.612 C 93.968 156.352,84.419 156.177,70.995 156.170 L 48.764 156.160 47.847 153.067 C 47.343 151.365,46.931 149.754,46.932 149.486 C 46.934 148.879,50.796 145.283,55.514 141.494 C 67.534 131.842,83.620 123.735,98.333 119.915 C 111.157 116.585,125.294 115.363,137.813 116.503 M123.747 128.683 C 117.805 130.280,113.411 135.155,112.249 141.441 C 110.987 148.271,114.942 155.550,121.600 158.650 C 123.600 159.581,124.546 159.743,128.000 159.743 C 131.454 159.743,132.400 159.581,134.400 158.650 C 141.058 155.550,145.013 148.271,143.751 141.441 C 142.571 135.059,138.177 130.253,132.066 128.661 C 128.970 127.855,126.809 127.860,123.747 128.683 M92.501 192.908 C 95.148 199.978,97.221 205.854,97.109 205.967 C 96.735 206.341,86.460 201.062,82.385 198.403 C 75.635 193.998,67.702 186.973,63.530 181.705 L 62.222 180.053 74.955 180.053 L 87.689 180.053 92.501 192.908 M192.470 181.705 C 188.298 186.973,180.365 193.998,173.615 198.403 C 169.540 201.062,159.265 206.341,158.891 205.967 C 158.779 205.854,160.852 199.978,163.499 192.908 L 168.311 180.053 181.045 180.053 L 193.778 180.053 192.470 181.705 " stroke="none" fill-rule="evenodd"></path></svg>