<svg fill="currentColor" viewBox="0 0 256 256" xmlns="http://www.w3.org/2000/svg"><path d="M78.293 28.824 C 64.870 31.092,51.674 38.418,42.986 48.427 C 37.336 54.935,33.643 61.441,30.997 69.547 C 28.092 78.445,28.160 77.041,28.160 128.000 C 28.160 178.862,28.099 177.578,30.950 186.309 C 37.999 207.889,55.600 223.108,78.293 227.246 C 82.130 227.945,85.335 228.025,110.080 228.039 C 141.339 228.055,138.543 228.345,146.987 224.221 C 159.388 218.166,173.542 207.090,190.316 190.316 C 207.099 173.533,218.187 159.361,224.216 146.987 C 228.331 138.542,228.023 141.013,228.183 115.200 C 228.261 102.481,228.130 89.350,227.885 85.547 C 227.385 77.765,225.985 71.391,223.386 65.067 C 215.538 45.968,197.971 32.142,177.293 28.788 C 171.839 27.904,83.551 27.935,78.293 28.824 M174.507 52.662 C 188.980 55.283,200.748 67.049,203.342 81.493 C 203.768 83.864,203.921 89.808,203.932 104.427 L 203.947 124.160 191.253 124.162 C 173.999 124.164,168.344 125.152,158.447 129.894 C 143.021 137.284,132.229 149.519,126.997 165.547 C 124.531 173.101,124.160 176.431,124.160 191.034 L 124.160 203.997 102.720 203.855 L 81.280 203.713 77.653 202.500 C 70.866 200.230,66.449 197.448,61.788 192.506 C 57.060 187.495,53.877 181.217,52.662 174.507 C 51.817 169.837,51.813 86.198,52.658 81.493 C 55.233 67.153,66.975 55.334,81.280 52.684 C 85.749 51.856,169.945 51.837,174.507 52.662 M195.413 148.245 C 195.413 148.350,193.846 150.414,191.930 152.831 C 181.376 166.146,167.183 180.455,154.102 190.967 C 147.377 196.371,148.051 196.694,148.068 188.068 C 148.077 183.824,148.327 179.335,148.658 177.493 C 151.233 163.153,162.975 151.334,177.280 148.684 C 180.026 148.175,195.413 147.802,195.413 148.245 " stroke="none" fill-rule="evenodd"></path></svg>