<svg fill="currentColor" viewBox="0 0 256 256" xmlns="http://www.w3.org/2000/svg"><path d="M136.960 32.392 C 134.613 33.124,132.280 34.622,130.810 36.340 C 128.031 39.586,128.000 39.891,128.000 64.215 C 128.000 89.344,127.921 88.723,131.599 92.401 C 136.360 97.163,143.792 97.199,148.341 92.484 C 151.321 89.395,151.626 88.446,151.880 81.493 L 152.107 75.307 153.048 76.900 C 159.798 88.321,160.244 102.907,154.214 115.061 C 148.873 125.824,141.300 133.246,130.312 138.484 C 125.789 140.640,124.394 141.528,122.950 143.168 C 121.118 145.250,119.893 148.329,119.893 150.855 C 119.893 153.311,121.257 156.587,123.159 158.703 C 126.779 162.729,131.854 163.733,137.513 161.542 C 146.573 158.034,154.566 152.605,162.176 144.792 C 185.735 120.606,189.213 86.956,170.924 60.160 L 168.158 56.107 175.919 55.888 C 184.828 55.638,185.867 55.314,188.938 51.824 C 192.236 48.078,192.857 43.037,190.575 38.536 C 189.392 36.200,187.766 34.627,185.010 33.153 C 183.269 32.222,183.057 32.213,160.640 32.136 C 148.203 32.094,137.547 32.209,136.960 32.392 M35.654 64.836 C 32.953 65.924,30.167 68.666,28.995 71.390 C 27.857 74.035,27.962 78.633,29.220 81.280 C 29.670 82.227,32.875 85.880,36.421 89.488 L 42.812 95.990 36.430 102.502 C 32.921 106.083,29.680 109.781,29.229 110.720 C 27.950 113.383,27.852 117.952,29.016 120.659 C 31.759 127.035,39.548 129.789,45.571 126.511 C 46.762 125.862,50.246 122.773,53.782 119.231 L 59.924 113.078 66.335 119.422 C 74.001 127.006,75.248 127.769,80.000 127.779 C 83.036 127.786,83.673 127.640,85.760 126.463 C 91.395 123.285,93.490 116.947,90.866 111.015 C 90.257 109.639,88.033 107.066,83.521 102.520 L 77.049 96.000 83.521 89.480 C 88.033 84.934,90.257 82.361,90.866 80.985 C 93.490 75.053,91.393 68.711,85.760 65.539 C 83.667 64.361,83.044 64.220,80.000 64.235 C 75.248 64.259,73.991 65.027,66.330 72.582 L 59.913 78.911 53.777 72.763 C 50.150 69.130,46.771 66.143,45.516 65.460 C 42.641 63.895,38.620 63.641,35.654 64.836 M64.000 144.838 C 55.947 146.562,48.343 150.807,42.857 156.640 C 30.714 169.550,28.571 189.213,37.652 204.396 C 48.222 222.070,70.328 228.859,89.036 220.177 C 99.033 215.537,106.743 206.594,110.202 195.627 C 116.881 174.445,104.471 151.807,82.699 145.456 C 78.659 144.277,68.226 143.933,64.000 144.838 M172.323 160.563 C 169.748 161.527,167.664 163.016,166.348 164.833 C 164.681 167.134,163.670 170.702,164.001 173.117 C 164.523 176.922,165.723 178.673,172.479 185.480 L 178.951 192.000 172.479 198.520 C 167.967 203.066,165.743 205.639,165.134 207.015 C 162.510 212.947,164.605 219.285,170.240 222.463 C 172.322 223.638,172.971 223.787,176.000 223.787 C 180.752 223.787,182.300 222.833,189.884 215.236 L 196.021 209.088 202.864 215.836 C 210.288 223.158,211.638 224.000,215.953 224.000 C 220.669 224.000,225.481 220.666,227.178 216.224 C 228.132 213.725,227.940 209.176,226.777 206.720 C 226.326 205.768,223.140 202.136,219.574 198.507 L 213.178 192.000 219.574 185.493 C 223.091 181.915,226.297 178.278,226.699 177.411 C 228.958 172.541,228.117 167.254,224.505 163.628 C 221.869 160.981,220.009 160.228,216.107 160.228 C 211.356 160.228,210.114 160.987,202.442 168.578 L 196.031 174.922 189.889 168.769 C 186.258 165.131,182.878 162.143,181.623 161.460 C 179.074 160.073,174.748 159.655,172.323 160.563 M78.607 169.492 C 81.718 170.918,85.059 174.249,86.533 177.393 C 87.543 179.547,87.678 180.350,87.666 184.107 C 87.653 188.031,87.545 188.579,86.327 190.933 C 81.884 199.519,71.359 202.543,63.493 197.495 C 53.220 190.903,53.864 175.426,64.640 169.913 C 67.639 168.379,68.860 168.130,72.747 168.258 C 75.358 168.344,76.735 168.634,78.607 169.492 " stroke="none" fill-rule="evenodd"></path></svg>