<svg fill="currentColor" viewBox="0 0 256 256" xmlns="http://www.w3.org/2000/svg"><path d="M42.621 28.778 C 37.215 30.269,32.466 34.310,29.967 39.543 L 28.373 42.880 28.373 128.000 L 28.373 213.120 29.958 216.440 C 33.070 222.956,38.805 227.007,46.107 227.846 C 50.959 228.404,205.041 228.404,209.893 227.846 C 219.655 226.724,226.724 219.655,227.846 209.893 C 228.404 205.041,228.404 50.959,227.846 46.107 C 226.875 37.658,221.143 30.874,213.184 28.755 C 210.056 27.922,45.644 27.945,42.621 28.778 M203.947 128.000 L 203.947 203.947 128.000 203.947 L 52.053 203.947 52.053 128.000 L 52.053 52.053 128.000 52.053 L 203.947 52.053 203.947 128.000 M118.329 68.874 C 104.190 71.554,92.617 80.316,88.203 91.682 C 83.791 103.045,85.413 114.309,92.591 122.142 C 98.249 128.317,106.821 132.648,121.953 136.977 C 129.500 139.136,136.993 141.667,140.225 143.148 C 144.105 144.925,147.039 147.577,147.654 149.860 C 149.015 154.917,145.450 159.340,137.678 162.234 C 131.004 164.719,121.802 164.298,115.655 161.227 C 111.868 159.334,109.589 156.912,108.217 153.323 C 106.821 149.669,105.492 147.803,103.184 146.252 C 98.303 142.974,92.280 143.611,88.039 147.852 C 84.509 151.382,83.706 155.266,85.382 160.702 C 89.553 174.222,102.600 184.419,119.467 187.341 C 123.994 188.126,133.364 188.026,137.931 187.145 C 153.923 184.058,166.252 174.367,170.556 161.502 C 171.588 158.417,171.701 157.471,171.701 151.893 C 171.701 146.311,171.589 145.373,170.555 142.293 C 168.872 137.283,166.652 133.796,162.541 129.707 C 156.506 123.704,148.992 119.955,134.352 115.642 C 118.173 110.876,112.917 108.773,110.751 106.199 C 109.756 105.017,109.640 104.594,109.891 103.082 C 110.998 96.432,118.136 92.183,128.230 92.166 C 132.490 92.159,135.902 92.889,139.040 94.479 C 142.029 95.994,143.637 97.490,145.575 100.559 C 148.252 104.798,151.550 106.667,156.353 106.667 C 163.039 106.667,168.739 100.331,167.961 93.764 C 167.391 88.956,162.873 82.272,157.078 77.666 C 153.020 74.440,146.548 71.196,141.227 69.722 C 137.672 68.738,136.203 68.581,129.280 68.447 C 123.822 68.341,120.444 68.473,118.329 68.874 " stroke="none" fill-rule="evenodd"></path></svg>