<svg fill="currentColor" viewBox="0 0 256 256" xmlns="http://www.w3.org/2000/svg"><path d="M76.246 28.349 C 71.222 30.141,67.850 34.748,67.842 39.831 C 67.839 42.034,72.637 56.497,74.176 58.924 C 76.642 62.812,81.966 65.030,86.433 64.030 C 90.623 63.092,93.996 60.185,95.352 56.344 C 96.516 53.044,96.201 50.708,93.507 42.653 C 90.498 33.661,90.173 33.004,87.632 30.767 C 84.491 28.002,79.932 27.034,76.246 28.349 M172.335 28.370 C 170.094 29.090,166.699 31.891,165.679 33.862 C 165.298 34.598,163.865 38.554,162.493 42.653 C 159.799 50.708,159.484 53.044,160.648 56.344 C 162.004 60.185,165.377 63.092,169.567 64.030 C 174.034 65.030,179.358 62.812,181.824 58.924 C 183.397 56.443,188.160 42.023,188.160 39.740 C 188.160 37.489,186.800 33.892,185.227 31.986 C 182.378 28.532,176.748 26.953,172.335 28.370 M116.449 68.895 C 92.933 72.720,73.369 86.366,61.541 107.193 C 57.823 113.739,54.571 122.869,53.107 130.875 C 52.730 132.931,52.312 137.630,52.178 141.317 L 51.933 148.021 32.260 148.144 C 12.918 148.265,12.557 148.282,10.830 149.206 C 6.343 151.607,4.091 155.213,4.091 160.000 C 4.091 164.787,6.343 168.393,10.830 170.794 L 12.587 171.733 128.000 171.733 L 243.413 171.733 245.170 170.794 C 249.657 168.393,251.909 164.787,251.909 160.000 C 251.909 155.213,249.657 151.607,245.170 149.206 C 243.443 148.282,243.082 148.265,223.740 148.144 L 204.067 148.021 203.822 141.317 C 203.465 131.522,202.048 124.783,198.377 115.414 C 192.819 101.232,181.603 87.930,168.084 79.492 C 160.882 74.996,151.933 71.420,143.147 69.528 C 137.597 68.333,122.155 67.967,116.449 68.895 M20.907 84.452 C 17.374 85.531,14.876 87.608,13.177 90.880 C 11.694 93.736,11.760 98.394,13.327 101.392 C 15.329 105.224,17.069 106.315,25.765 109.190 C 35.444 112.391,35.920 112.473,39.306 111.529 C 44.243 110.152,48.213 105.038,48.213 100.053 C 48.213 95.987,45.253 91.340,41.439 89.420 C 40.354 88.874,36.458 87.443,32.780 86.240 C 26.131 84.066,23.481 83.666,20.907 84.452 M222.933 86.313 C 215.073 88.953,213.220 89.829,211.329 91.803 C 204.194 99.246,209.591 111.959,219.847 111.870 C 223.682 111.837,236.954 107.342,239.586 105.186 C 246.221 99.749,244.710 88.694,236.856 85.220 C 233.085 83.552,230.566 83.749,222.933 86.313 M136.657 92.796 C 147.804 94.740,157.892 100.138,165.674 108.321 C 174.327 117.421,178.958 128.250,179.872 141.520 C 180.035 143.889,180.043 146.329,179.890 146.941 L 179.610 148.053 128.000 148.053 L 76.390 148.053 76.110 146.941 C 75.734 145.443,76.275 137.999,77.061 133.858 C 79.952 118.617,90.230 105.054,104.373 97.818 C 109.024 95.439,114.070 93.716,119.007 92.822 C 123.392 92.028,132.178 92.015,136.657 92.796 M43.839 188.767 C 40.111 190.102,37.113 193.682,36.253 197.825 C 35.080 203.477,38.506 209.334,44.121 211.275 C 46.165 211.981,51.127 212.026,127.816 212.039 C 219.545 212.055,212.135 212.328,215.911 208.795 C 218.702 206.185,219.875 203.619,219.884 200.107 C 219.894 195.592,217.745 191.845,213.822 189.538 L 211.840 188.373 128.640 188.283 C 59.877 188.209,45.162 188.293,43.839 188.767 " stroke="none" fill-rule="evenodd"></path></svg>