<svg fill="currentColor" viewBox="0 0 256 256" xmlns="http://www.w3.org/2000/svg"><path d="M61.486 12.382 C 58.255 13.062,54.271 15.219,51.678 17.692 C 48.935 20.309,47.348 22.915,46.341 26.453 C 45.975 27.744,39.961 61.344,32.979 101.120 L 20.284 173.440 20.312 180.480 C 20.337 186.646,20.478 188.032,21.444 191.646 C 26.011 208.730,38.950 221.924,55.467 226.337 C 62.561 228.232,66.856 228.320,145.707 228.182 L 219.520 228.053 222.046 227.091 C 223.435 226.562,225.355 225.668,226.313 225.104 C 228.703 223.696,232.219 220.062,233.541 217.633 C 235.936 213.233,235.947 213.069,235.944 181.990 C 235.943 162.648,235.791 152.834,235.476 151.680 C 234.499 148.102,215.339 96.113,214.270 94.140 C 211.802 89.585,206.314 85.588,200.944 84.437 C 195.549 83.280,194.944 83.452,160.640 95.907 C 143.275 102.211,129.023 107.344,128.969 107.312 C 128.915 107.279,131.363 92.995,134.409 75.568 C 137.455 58.141,139.942 42.793,139.936 41.461 C 139.897 32.462,133.226 24.222,124.373 22.240 C 118.902 21.015,68.585 12.301,66.133 12.154 C 64.608 12.062,62.517 12.165,61.486 12.382 M92.907 41.022 C 105.168 43.206,115.200 45.178,115.200 45.405 C 115.200 46.231,90.833 185.013,90.397 186.667 C 89.513 190.024,86.929 194.284,84.027 197.170 C 74.827 206.318,60.238 206.171,50.996 196.836 C 46.328 192.122,43.584 184.940,44.095 178.773 C 44.270 176.669,67.294 43.856,68.529 37.831 C 68.729 36.858,68.956 36.664,69.695 36.836 C 70.200 36.954,80.645 38.838,92.907 41.022 M202.723 131.590 C 207.167 143.757,210.748 153.747,210.681 153.789 C 210.615 153.831,189.056 161.651,162.773 171.167 C 134.914 181.254,114.942 188.271,114.879 187.995 C 114.757 187.452,123.951 134.881,124.206 134.663 C 124.609 134.320,193.957 109.297,194.282 109.378 C 194.480 109.427,198.279 119.423,202.723 131.590 M66.385 160.477 C 64.112 161.010,62.207 162.256,60.230 164.502 C 58.328 166.663,57.596 168.915,56.495 176.000 C 55.814 180.384,55.813 180.853,56.473 183.118 C 59.897 194.858,76.254 194.802,79.506 183.040 C 79.863 181.749,80.479 178.691,80.875 176.244 C 81.466 172.594,81.506 171.395,81.096 169.565 C 79.603 162.891,73.132 158.894,66.385 160.477 M211.915 203.800 C 211.832 203.884,196.350 203.903,177.512 203.843 L 143.259 203.733 177.550 191.309 L 211.840 178.885 211.953 191.267 C 212.015 198.077,211.998 203.717,211.915 203.800 " stroke="none" fill-rule="evenodd"></path></svg>