<svg fill="currentColor" viewBox="0 0 256 256" xmlns="http://www.w3.org/2000/svg"><path d="M84.907 20.427 C 81.258 21.628,78.883 23.609,77.167 26.880 L 76.160 28.800 76.160 84.693 L 76.160 140.587 77.316 142.779 C 82.020 151.697,94.568 151.414,98.834 142.293 C 99.383 141.120,99.836 139.680,99.842 139.093 C 99.847 138.507,99.967 137.595,100.109 137.067 L 100.366 136.107 128.210 136.107 L 156.053 136.107 156.240 139.666 C 156.391 142.538,156.646 143.600,157.565 145.168 C 159.839 149.048,163.608 151.201,168.107 151.190 C 171.622 151.182,174.185 150.009,176.803 147.210 C 180.297 143.474,180.080 147.770,179.953 84.669 L 179.840 28.800 178.833 26.880 C 177.457 24.255,175.961 22.739,173.440 21.408 C 170.569 19.894,165.395 19.791,162.773 21.196 C 160.342 22.500,158.320 24.626,157.166 27.093 C 156.285 28.978,156.168 29.862,156.164 34.667 L 156.160 40.107 128.275 40.107 L 100.391 40.107 100.162 34.807 C 99.971 30.394,99.758 29.126,98.887 27.233 C 97.685 24.622,95.680 22.496,93.227 21.232 C 91.373 20.276,86.729 19.827,84.907 20.427 M156.160 69.973 L 156.160 75.947 128.213 75.947 L 100.267 75.947 100.267 69.973 L 100.267 64.000 128.213 64.000 L 156.160 64.000 156.160 69.973 M156.065 106.133 L 155.947 112.000 128.107 112.110 L 100.267 112.220 100.267 106.243 L 100.267 100.267 128.225 100.267 L 156.184 100.267 156.065 106.133 M28.929 152.490 C 23.118 154.055,19.621 159.100,20.168 165.132 C 20.766 171.731,26.357 176.213,33.989 176.213 C 39.113 176.213,42.113 177.408,50.553 182.810 C 56.366 186.531,60.328 188.508,64.640 189.842 C 71.451 191.949,81.183 192.566,88.607 191.362 C 96.299 190.114,101.748 187.842,109.909 182.479 C 117.950 177.195,120.783 176.213,128.000 176.213 C 135.293 176.213,137.438 176.976,146.553 182.810 C 152.366 186.531,156.328 188.508,160.640 189.842 C 167.451 191.949,177.183 192.566,184.607 191.362 C 192.299 190.114,197.748 187.842,205.909 182.479 C 213.270 177.642,216.940 176.213,222.011 176.213 C 226.925 176.213,231.435 174.218,233.608 171.082 C 238.697 163.738,234.955 154.107,226.314 152.313 C 223.463 151.721,215.519 152.392,210.574 153.642 C 205.999 154.799,199.813 157.803,193.081 162.136 C 185.427 167.062,183.073 167.849,176.000 167.849 C 168.897 167.849,166.580 167.066,158.593 161.967 C 148.173 155.315,142.577 153.217,132.800 152.297 C 127.144 151.765,119.878 152.301,114.574 153.642 C 109.999 154.799,103.813 157.803,97.081 162.136 C 89.427 167.062,87.073 167.849,80.000 167.849 C 72.905 167.849,70.626 167.080,62.667 161.999 C 52.435 155.467,46.554 153.227,37.262 152.323 C 32.017 151.813,31.399 151.826,28.929 152.490 M27.372 196.891 C 21.347 199.630,18.396 206.876,20.998 212.537 C 23.433 217.834,26.319 219.558,33.765 220.165 C 40.429 220.708,42.687 221.565,49.493 226.130 C 60.804 233.716,69.238 236.238,81.920 235.826 C 92.193 235.492,98.933 233.428,107.520 227.988 C 118.892 220.783,119.486 220.538,126.293 220.266 C 134.320 219.945,137.886 221.023,145.331 226.019 C 156.810 233.724,165.174 236.241,177.920 235.826 C 188.193 235.492,194.933 233.428,203.520 227.988 C 214.539 221.006,215.339 220.671,222.239 220.149 C 229.348 219.611,232.213 218.017,234.786 213.170 C 235.518 211.791,235.720 210.679,235.726 208.000 C 235.732 205.011,235.577 204.304,234.475 202.315 C 231.954 197.764,228.956 196.267,222.363 196.267 C 211.748 196.267,204.944 198.530,193.707 205.799 C 190.773 207.697,187.317 209.675,186.027 210.196 C 180.760 212.320,173.299 212.568,167.648 210.806 C 166.105 210.325,163.129 208.841,161.034 207.507 C 146.374 198.172,142.412 196.739,130.267 196.378 C 116.367 195.965,110.106 197.777,97.707 205.799 C 94.773 207.697,91.317 209.675,90.027 210.196 C 84.760 212.320,77.299 212.568,71.648 210.806 C 70.105 210.325,67.129 208.841,65.034 207.507 C 54.552 200.833,51.173 199.152,44.875 197.479 C 40.425 196.297,29.487 195.929,27.372 196.891 " stroke="none" fill-rule="evenodd"></path></svg>