<svg fill="currentColor" viewBox="0 0 256 256" xmlns="http://www.w3.org/2000/svg"><path d="M147.413 28.957 C 146.475 29.385,145.085 30.259,144.326 30.900 C 143.567 31.541,129.081 50.092,112.135 72.123 L 81.324 112.181 76.939 107.914 C 73.437 104.508,71.884 103.328,69.237 102.064 C 65.957 100.498,65.860 100.480,60.587 100.480 C 55.398 100.480,55.172 100.519,52.267 101.925 C 49.628 103.201,48.023 104.618,38.485 114.085 C 29.213 123.288,27.488 125.202,26.262 127.649 C 23.341 133.479,23.286 139.509,26.098 145.454 C 27.233 147.853,28.718 149.568,36.201 157.123 L 44.974 165.979 33.211 177.816 C 22.881 188.210,21.290 189.991,20.152 192.427 C 16.960 199.262,17.432 206.468,21.468 212.480 C 23.234 215.112,39.695 231.684,42.764 233.921 C 49.098 238.537,56.405 239.215,63.573 235.853 C 66.004 234.713,67.810 233.098,78.184 222.789 L 90.021 211.026 98.877 219.795 C 106.293 227.138,108.184 228.781,110.507 229.902 C 116.343 232.718,122.523 232.660,128.351 229.735 C 130.792 228.509,132.735 226.760,141.928 217.512 C 153.591 205.781,154.412 204.673,155.590 199.094 C 156.324 195.614,156.106 192.363,154.904 188.869 C 153.723 185.437,152.184 183.250,147.797 178.767 L 143.823 174.706 182.952 144.633 C 204.472 128.093,222.971 113.737,224.061 112.731 C 225.156 111.720,226.491 109.908,227.047 108.678 L 228.053 106.453 228.053 72.107 C 228.053 40.485,227.995 37.613,227.312 35.908 C 226.137 32.974,224.215 30.894,221.356 29.465 L 218.744 28.160 183.932 28.169 C 151.164 28.178,149.020 28.224,147.413 28.957 M203.844 75.174 L 203.733 98.295 169.173 124.891 C 150.165 139.518,132.821 152.856,130.631 154.530 L 126.648 157.573 123.807 154.732 L 120.965 151.891 145.562 127.252 C 159.090 113.701,170.511 101.941,170.942 101.120 C 172.130 98.858,172.042 92.973,170.786 90.612 C 167.989 85.354,161.649 82.854,155.916 84.748 C 154.012 85.377,151.463 87.787,128.958 110.235 L 104.102 135.028 101.251 132.176 L 98.399 129.325 100.329 126.849 C 101.390 125.487,112.884 110.549,125.871 93.653 C 138.857 76.757,151.378 60.485,153.694 57.493 L 157.905 52.053 180.930 52.053 L 203.954 52.053 203.844 75.174 M95.571 160.637 L 130.339 195.408 125.016 200.744 C 122.088 203.679,119.497 206.080,119.259 206.080 C 118.701 206.080,49.920 137.310,49.920 136.752 C 49.920 136.330,60.168 125.867,60.581 125.867 C 60.703 125.867,76.448 141.513,95.571 160.637 M63.790 203.088 L 54.614 212.263 49.177 206.826 L 43.739 201.388 52.905 192.215 L 62.070 183.042 67.518 188.477 L 72.965 193.913 63.790 203.088 " stroke="none" fill-rule="evenodd"></path></svg>