<svg fill="currentColor" viewBox="0 0 256 256" xmlns="http://www.w3.org/2000/svg"><path d="M35.520 44.590 C 28.512 46.123,22.915 51.523,20.741 58.851 C 20.121 60.939,20.053 67.782,20.053 128.000 C 20.053 201.163,19.896 196.441,22.497 201.577 C 23.886 204.320,27.833 208.244,30.628 209.660 C 35.558 212.158,31.431 212.040,113.937 212.047 C 195.893 212.054,191.813 212.162,196.612 209.851 C 201.423 207.535,201.257 207.757,226.948 169.225 C 253.809 128.936,252.874 130.582,251.756 125.587 C 251.287 123.493,248.022 118.385,227.009 86.867 C 200.153 46.587,201.210 47.936,194.347 45.186 L 191.787 44.160 114.987 44.083 C 51.415 44.020,37.727 44.107,35.520 44.590 M205.440 97.761 C 216.235 113.970,225.126 127.485,225.198 127.793 C 225.270 128.102,216.358 141.811,205.394 158.257 L 185.460 188.160 114.703 188.160 L 43.947 188.160 43.947 128.213 L 43.947 68.267 114.880 68.278 L 185.813 68.290 205.440 97.761 " stroke="none" fill-rule="evenodd"></path></svg>