<svg fill="currentColor" viewBox="0 0 256 256" xmlns="http://www.w3.org/2000/svg"><path d="M34.644 29.465 C 33.127 30.223,31.486 31.460,30.730 32.414 C 28.019 35.836,28.160 32.859,28.160 86.842 C 28.160 133.920,28.195 136.142,28.968 138.628 C 29.413 140.056,30.366 142.137,31.085 143.253 C 31.805 144.368,55.777 168.624,84.357 197.156 C 133.051 245.769,136.486 249.105,138.961 250.182 C 140.413 250.814,143.101 251.547,144.934 251.810 C 147.902 252.237,148.651 252.191,151.779 251.394 C 153.711 250.901,156.207 249.980,157.326 249.346 C 160.144 247.749,247.749 160.144,249.346 157.326 C 249.980 156.207,250.901 153.711,251.394 151.779 C 252.191 148.651,252.237 147.902,251.810 144.934 C 251.547 143.101,250.814 140.413,250.182 138.961 C 249.105 136.486,245.769 133.051,197.156 84.357 C 168.624 55.777,144.368 31.805,143.253 31.085 C 142.137 30.366,140.056 29.413,138.628 28.968 C 136.142 28.195,133.916 28.160,86.643 28.160 L 37.256 28.160 34.644 29.465 M178.774 99.627 L 226.346 147.200 186.773 186.773 L 147.200 226.346 99.627 178.774 L 52.053 131.201 52.053 91.627 L 52.053 52.053 91.627 52.053 L 131.201 52.053 178.774 99.627 M78.046 69.247 C 72.620 71.524,69.410 75.508,68.250 81.406 C 66.957 87.976,70.819 95.327,77.212 98.467 C 79.326 99.505,80.043 99.627,84.053 99.627 C 88.138 99.627,88.746 99.519,90.943 98.405 C 93.936 96.889,96.851 93.957,98.426 90.880 C 99.517 88.747,99.627 88.125,99.627 84.053 C 99.627 80.043,99.505 79.326,98.467 77.212 C 97.829 75.914,96.396 73.940,95.281 72.825 C 92.091 69.635,89.352 68.503,84.480 68.364 C 81.025 68.265,80.075 68.395,78.046 69.247 " stroke="none" fill-rule="evenodd"></path></svg>