<svg fill="currentColor" viewBox="0 0 256 256" xmlns="http://www.w3.org/2000/svg"><path d="M118.827 20.301 C 118.123 20.396,115.819 20.682,113.707 20.937 C 78.639 25.176,46.586 48.212,30.930 80.427 C 12.577 118.190,17.452 162.643,43.523 195.281 C 47.581 200.360,55.180 207.981,60.373 212.178 C 75.731 224.592,95.299 232.842,115.187 235.291 C 121.234 236.036,133.573 236.150,139.307 235.514 C 164.079 232.765,186.985 221.809,204.382 204.388 C 209.901 198.861,213.184 194.851,217.833 187.954 C 227.074 174.247,233.393 156.992,235.357 140.104 C 236.281 132.158,235.975 118.449,234.711 111.147 C 232.977 101.122,230.026 91.114,227.826 87.792 C 222.583 79.877,209.778 81.459,206.732 90.399 C 205.688 93.462,205.923 96.033,207.774 101.825 C 217.737 132.989,209.254 166.796,185.936 188.854 C 168.170 205.660,143.288 214.187,119.557 211.602 C 97.756 209.227,77.620 198.613,64.031 182.333 C 53.727 169.989,47.410 156.088,44.963 140.373 C 44.011 134.262,44.015 122.073,44.972 115.840 C 49.242 88.010,66.289 64.788,91.452 52.521 C 114.991 41.046,143.291 41.377,166.400 53.398 C 171.247 55.919,177.904 60.201,177.913 60.804 C 177.917 61.041,174.182 64.970,169.612 69.534 L 161.305 77.834 156.274 75.206 C 146.833 70.274,138.366 68.187,127.787 68.185 C 117.849 68.183,109.682 70.119,101.025 74.530 C 94.686 77.760,89.958 81.247,85.026 86.331 C 73.852 97.848,68.115 111.986,68.115 128.000 C 68.115 135.250,68.903 140.261,71.057 146.699 C 78.189 168.014,95.927 183.177,118.400 187.171 C 123.622 188.099,133.063 188.087,138.027 187.147 C 157.398 183.474,173.154 171.714,181.740 154.518 C 186.113 145.760,187.902 137.046,186.143 133.071 C 183.008 125.984,174.663 123.460,168.300 127.675 C 165.622 129.449,164.195 131.818,162.822 136.769 C 159.371 149.209,151.124 158.051,139.093 162.211 C 135.149 163.575,134.851 163.613,128.000 163.613 C 121.155 163.613,120.847 163.574,116.907 162.215 C 101.898 157.040,92.160 143.664,92.160 128.223 C 92.160 119.450,95.006 111.473,100.566 104.662 C 104.387 99.982,111.878 95.250,118.492 93.339 C 121.257 92.540,122.850 92.380,128.000 92.381 C 134.462 92.383,137.417 92.896,141.589 94.742 L 143.538 95.604 130.646 108.500 C 119.375 119.776,117.648 121.678,116.904 123.636 C 114.691 129.462,117.223 135.946,122.880 138.937 C 125.129 140.126,131.031 140.046,133.333 138.797 C 135.482 137.630,233.855 39.192,234.942 37.120 C 236.129 34.858,236.042 28.973,234.786 26.612 C 232.765 22.814,228.226 20.053,224.000 20.053 C 219.403 20.053,218.758 20.517,206.645 32.545 L 195.476 43.635 191.712 40.884 C 177.356 30.397,161.541 23.868,143.787 21.101 C 139.554 20.441,121.974 19.877,118.827 20.301 " stroke="none" fill-rule="evenodd"></path></svg>