<svg fill="currentColor" viewBox="0 0 256 256" xmlns="http://www.w3.org/2000/svg"><path d="M111.258 17.042 C 106.850 18.451,101.948 22.389,100.024 26.066 C 99.606 26.866,96.725 33.856,93.621 41.600 L 87.979 55.680 76.309 55.947 C 69.107 56.112,63.987 56.413,62.933 56.735 C 59.953 57.645,56.522 59.712,54.376 61.891 C 53.092 63.195,46.396 73.181,36.869 88.001 L 21.441 112.000 14.881 112.214 C 7.376 112.458,6.169 112.864,3.133 116.158 C -2.727 122.515,0.250 132.967,8.630 135.456 C 9.835 135.814,11.939 136.107,13.304 136.107 L 15.787 136.107 15.795 169.920 C 15.800 189.751,15.977 204.968,16.224 206.720 C 17.333 214.609,23.337 221.287,31.203 223.380 C 34.508 224.260,61.492 224.260,64.797 223.380 C 72.663 221.287,78.667 214.609,79.776 206.720 C 80.007 205.077,80.200 199.269,80.205 193.813 L 80.213 183.893 128.000 183.893 L 175.787 183.893 175.795 193.813 C 175.800 199.269,175.993 205.077,176.224 206.720 C 177.333 214.609,183.337 221.287,191.203 223.380 C 194.508 224.260,221.492 224.260,224.797 223.380 C 232.663 221.287,238.667 214.609,239.776 206.720 C 240.023 204.968,240.200 189.751,240.205 169.920 L 240.213 136.107 242.696 136.107 C 244.061 136.107,246.165 135.814,247.370 135.456 C 255.750 132.967,258.727 122.515,252.867 116.158 C 249.831 112.864,248.624 112.458,241.119 112.214 L 234.559 112.000 219.131 88.001 C 209.604 73.181,202.908 63.195,201.624 61.891 C 199.478 59.712,196.047 57.645,193.067 56.735 C 192.014 56.414,186.895 56.112,179.704 55.947 L 168.048 55.680 162.188 41.159 C 158.965 33.172,155.730 25.769,155.000 24.708 C 152.433 20.977,148.532 18.142,144.243 16.890 C 142.326 16.330,139.486 16.217,127.816 16.236 C 115.346 16.257,113.422 16.350,111.258 17.042 M138.787 47.253 C 140.347 51.184,141.747 54.736,141.897 55.147 C 142.155 55.848,141.316 55.893,128.000 55.893 C 114.684 55.893,113.845 55.848,114.103 55.147 C 114.253 54.736,115.653 51.184,117.213 47.253 L 120.049 40.107 128.000 40.107 L 135.951 40.107 138.787 47.253 M195.683 95.970 C 201.167 104.518,205.653 111.670,205.653 111.863 C 205.653 112.056,170.709 112.213,128.000 112.213 C 85.291 112.213,50.347 112.053,50.347 111.857 C 50.347 111.661,54.404 105.181,59.362 97.457 C 64.321 89.733,68.836 82.693,69.395 81.812 L 70.413 80.210 128.063 80.318 L 185.713 80.427 195.683 95.970 M215.893 148.053 L 215.893 160.000 128.000 160.000 L 40.107 160.000 40.107 148.053 L 40.107 136.107 128.000 136.107 L 215.893 136.107 215.893 148.053 M55.893 192.000 L 55.893 200.107 48.000 200.107 L 40.107 200.107 40.107 192.000 L 40.107 183.893 48.000 183.893 L 55.893 183.893 55.893 192.000 M215.893 192.000 L 215.893 200.107 208.000 200.107 L 200.107 200.107 200.107 192.000 L 200.107 183.893 208.000 183.893 L 215.893 183.893 215.893 192.000 " stroke="none" fill-rule="evenodd"></path></svg>