<svg fill="currentColor" viewBox="0 0 256 256" xmlns="http://www.w3.org/2000/svg"><path d="M76.108 12.704 C 70.794 14.604,67.114 20.463,68.048 25.537 C 68.786 29.547,69.585 30.514,84.600 45.547 L 99.195 60.160 67.989 60.160 C 38.058 60.160,36.672 60.195,34.072 61.007 C 30.597 62.092,28.625 63.312,25.758 66.150 C 23.182 68.700,21.195 72.286,20.501 75.640 C 20.180 77.191,20.074 97.080,20.153 141.227 L 20.267 204.587 21.269 207.072 C 23.534 212.686,28.309 217.184,33.920 218.987 L 36.907 219.947 128.000 219.947 L 219.093 219.947 222.080 218.987 C 227.691 217.184,232.466 212.686,234.731 207.072 L 235.733 204.587 235.847 141.227 C 235.927 97.018,235.822 77.194,235.500 75.640 C 234.804 72.285,232.818 68.699,230.242 66.150 C 227.375 63.312,225.403 62.092,221.928 61.007 C 219.328 60.195,217.942 60.160,188.017 60.160 L 156.816 60.160 171.581 45.333 C 187.888 28.959,187.969 28.852,187.925 23.680 C 187.871 17.221,182.780 12.222,176.213 12.178 C 170.657 12.142,171.419 11.532,148.587 34.284 L 128.000 54.798 107.627 34.505 C 92.128 19.067,86.767 13.982,85.221 13.252 C 82.423 11.930,78.870 11.716,76.108 12.704 M128.000 140.162 L 128.000 196.271 86.080 196.162 L 44.160 196.053 44.052 140.053 L 43.944 84.053 85.972 84.053 L 128.000 84.053 128.000 140.162 M212.053 140.163 L 212.053 196.272 182.080 196.163 L 152.107 196.053 151.998 140.053 L 151.890 84.053 181.972 84.053 L 212.053 84.053 212.053 140.163 M178.049 101.140 C 175.577 102.117,171.932 105.174,170.474 107.494 C 167.615 112.044,167.315 118.083,169.707 122.942 C 171.351 126.281,174.029 128.902,177.419 130.492 C 179.535 131.483,180.378 131.627,184.107 131.627 C 187.923 131.627,188.632 131.500,190.822 130.424 C 200.735 125.557,203.048 112.586,195.376 104.889 C 194.285 103.794,192.358 102.364,191.096 101.713 C 189.117 100.692,188.210 100.510,184.533 100.396 C 181.021 100.287,179.875 100.419,178.049 101.140 M180.217 148.431 C 175.768 149.584,171.408 153.197,169.467 157.339 C 168.462 159.484,168.320 160.314,168.320 164.053 C 168.320 167.865,168.448 168.580,169.518 170.759 C 171.170 174.125,173.956 176.852,177.397 178.473 C 179.925 179.664,180.698 179.823,183.893 179.815 C 188.932 179.801,191.785 178.637,195.237 175.184 C 198.626 171.795,199.825 168.886,199.825 164.053 C 199.825 159.614,198.664 156.558,195.776 153.398 C 192.758 150.096,189.293 148.455,184.896 148.246 C 183.054 148.158,180.948 148.241,180.217 148.431 " stroke="none" fill-rule="evenodd"></path></svg>