<svg fill="currentColor" viewBox="0 0 256 256" xmlns="http://www.w3.org/2000/svg"><path d="M117.973 20.526 C 92.419 22.903,68.537 34.389,50.538 52.961 C 34.491 69.518,24.721 89.436,21.053 113.067 C 19.984 119.955,19.984 136.045,21.053 142.933 C 21.937 148.625,23.471 155.350,24.994 160.213 C 34.703 191.197,58.239 216.517,88.396 228.421 C 102.347 233.927,116.319 236.319,131.596 235.815 C 147.716 235.283,161.058 231.958,175.573 224.854 C 186.714 219.402,195.649 213.019,204.352 204.295 C 213.102 195.524,219.332 186.794,224.847 175.573 C 229.912 165.269,233.184 154.846,234.960 143.360 C 236.030 136.442,236.029 119.550,234.959 112.640 C 233.160 101.024,229.958 90.825,224.847 80.427 C 216.209 62.853,203.781 48.730,187.307 37.766 C 181.563 33.944,170.625 28.477,164.295 26.264 C 149.602 21.129,133.259 19.104,117.973 20.526 M145.153 45.846 C 167.596 50.515,187.255 64.262,199.356 83.746 C 204.429 91.914,208.472 102.209,210.346 111.730 C 211.383 116.998,211.311 117.313,209.067 117.327 C 206.036 117.346,195.175 119.956,188.644 122.236 C 150.860 135.425,123.863 167.934,117.332 208.107 C 117.056 209.808,116.665 211.200,116.463 211.200 C 114.825 211.200,105.953 209.111,101.783 207.744 C 76.465 199.441,56.509 179.485,48.278 154.240 C 46.759 149.582,44.492 139.681,44.861 139.320 C 44.945 139.239,46.837 138.860,49.067 138.479 C 72.120 134.536,91.876 124.386,108.131 108.131 C 121.079 95.182,129.769 80.636,135.400 62.484 C 136.469 59.038,138.330 50.620,138.862 46.827 C 139.019 45.701,139.371 44.802,139.653 44.803 C 139.932 44.805,142.407 45.274,145.153 45.846 M114.506 46.613 C 109.483 74.962,89.222 99.654,62.526 109.964 C 56.081 112.453,45.917 115.179,45.317 114.579 C 44.922 114.184,46.568 107.054,48.276 101.760 C 50.231 95.704,54.378 87.067,57.905 81.707 C 69.176 64.576,87.222 51.709,106.880 46.786 C 114.607 44.850,114.820 44.846,114.506 46.613 M210.598 143.040 C 210.059 146.477,208.207 153.227,206.671 157.355 C 197.799 181.194,178.527 199.714,154.240 207.741 C 149.347 209.358,141.838 211.100,141.447 210.709 C 141.076 210.338,142.969 202.441,144.594 197.582 C 152.939 172.622,172.601 152.917,197.416 144.644 C 201.639 143.236,208.691 141.413,210.508 141.258 C 210.714 141.241,210.754 142.043,210.598 143.040 " stroke="none" fill-rule="evenodd"></path></svg>