<svg fill="currentColor" viewBox="0 0 256 256" xmlns="http://www.w3.org/2000/svg"><path d="M36.138 52.647 C 32.034 54.167,29.459 57.073,28.338 61.447 C 27.746 63.758,27.749 64.253,28.367 66.667 C 28.743 68.133,29.472 69.950,29.988 70.703 C 30.504 71.456,45.075 84.608,62.367 99.930 C 79.659 115.251,93.809 127.883,93.811 128.000 C 93.813 128.117,79.660 140.756,62.359 156.087 C 45.059 171.417,30.487 184.569,29.977 185.314 C 29.467 186.058,28.743 187.867,28.367 189.333 C 27.743 191.768,27.743 192.229,28.357 194.627 C 29.323 198.400,31.252 200.866,34.588 202.599 C 37.080 203.893,37.611 204.011,40.339 203.875 C 42.505 203.767,43.908 203.429,45.360 202.663 C 46.497 202.063,63.542 187.222,84.471 168.609 C 118.567 138.286,121.664 135.421,122.757 133.195 C 123.688 131.299,123.947 130.171,123.947 128.000 C 123.947 125.829,123.688 124.701,122.757 122.805 C 121.664 120.579,118.567 117.714,84.471 87.391 C 63.700 68.919,46.493 53.935,45.371 53.343 C 42.941 52.061,38.603 51.734,36.138 52.647 M116.907 180.449 C 113.358 181.544,110.875 183.610,109.177 186.880 C 108.391 188.394,108.180 189.477,108.181 192.000 C 108.182 195.864,109.457 198.715,112.256 201.111 C 115.792 204.138,112.389 203.973,168.771 203.847 L 219.520 203.733 221.227 202.809 C 230.049 198.034,230.049 185.957,221.227 181.189 L 219.520 180.267 168.747 180.193 C 140.821 180.153,117.493 180.268,116.907 180.449 " stroke="none" fill-rule="evenodd"></path></svg>