<svg fill="currentColor" viewBox="0 0 256 256" xmlns="http://www.w3.org/2000/svg"><path d="M36.691 52.450 C 31.588 54.012,28.168 58.646,28.168 64.000 C 28.168 68.598,30.579 72.544,34.773 74.811 L 36.480 75.733 128.000 75.733 L 219.520 75.733 221.227 74.809 C 230.049 70.034,230.049 57.957,221.227 53.189 L 219.520 52.267 128.640 52.195 C 78.656 52.155,37.279 52.270,36.691 52.450 M84.477 92.559 C 79.627 94.034,75.947 99.042,75.947 104.168 C 75.947 108.680,79.389 113.498,83.789 115.144 L 86.219 116.053 151.832 116.053 C 225.191 116.053,220.042 116.273,223.786 112.978 C 226.478 110.608,227.830 107.700,227.836 104.267 C 227.844 99.222,225.690 95.631,221.356 93.465 L 218.744 92.160 152.145 92.197 C 115.516 92.217,85.065 92.380,84.477 92.559 M35.200 133.063 C 32.789 134.162,30.891 135.878,29.538 138.178 C 28.503 139.940,28.373 140.586,28.373 144.000 C 28.373 147.414,28.503 148.060,29.538 149.822 C 30.920 152.172,32.783 153.832,35.413 155.054 L 37.333 155.947 128.000 155.947 L 218.667 155.947 220.587 155.054 C 223.217 153.832,225.080 152.172,226.462 149.822 C 227.497 148.060,227.627 147.414,227.627 144.000 C 227.627 140.586,227.497 139.940,226.462 138.178 C 225.109 135.878,223.211 134.162,220.800 133.063 C 219.165 132.318,215.244 132.285,128.000 132.285 C 40.756 132.285,36.835 132.318,35.200 133.063 M84.141 172.751 C 81.054 173.822,78.952 175.632,77.485 178.483 C 75.938 181.490,75.637 184.317,76.536 187.409 C 77.429 190.482,80.242 193.656,83.294 195.035 L 85.547 196.053 151.680 196.053 C 226.914 196.053,220.435 196.377,224.397 192.415 C 226.835 189.977,227.844 187.420,227.831 183.711 C 227.814 179.205,225.513 175.576,221.227 173.295 L 219.093 172.160 152.747 172.064 C 89.327 171.972,86.300 172.002,84.141 172.751 " stroke="none" fill-rule="evenodd"></path></svg>