<svg fill="currentColor" viewBox="0 0 256 256" xmlns="http://www.w3.org/2000/svg"><path d="M37.333 44.323 C 33.560 45.317,30.129 48.288,28.849 51.668 C 28.195 53.396,28.147 58.609,28.256 116.693 L 28.373 179.840 29.538 181.822 C 31.845 185.745,35.592 187.894,40.107 187.884 C 43.619 187.875,46.185 186.702,48.795 183.911 C 52.099 180.379,52.053 180.820,52.053 152.669 L 52.053 128.000 91.934 128.000 L 131.814 128.000 131.934 153.280 L 132.053 178.560 133.040 180.739 C 137.442 190.466,151.311 190.153,155.134 180.242 C 155.920 178.203,155.947 176.081,155.947 115.627 L 155.947 53.120 154.961 51.139 C 152.736 46.666,148.828 44.188,144.000 44.188 C 139.174 44.188,135.217 46.700,133.020 51.157 L 132.053 53.120 131.931 78.613 L 131.808 104.107 91.931 104.107 L 52.053 104.107 52.053 79.163 C 52.053 55.348,52.015 54.117,51.209 51.963 C 50.055 48.882,48.203 46.773,45.481 45.441 C 43.045 44.249,39.472 43.759,37.333 44.323 M216.271 100.429 C 214.443 101.082,212.687 102.293,211.148 103.961 C 209.482 105.768,176.705 160.928,175.274 164.333 C 172.873 170.048,172.250 173.285,172.250 180.053 C 172.250 186.885,172.870 190.057,175.337 195.853 C 183.251 214.452,204.465 224.241,223.706 218.175 C 239.055 213.335,249.611 200.665,251.762 184.498 C 252.588 178.292,251.499 170.887,248.804 164.388 C 244.023 152.860,232.710 143.512,220.441 140.954 C 218.772 140.606,217.364 140.279,217.312 140.228 C 217.260 140.176,220.304 134.956,224.075 128.627 C 227.847 122.298,231.197 116.376,231.520 115.466 C 232.976 111.365,231.820 106.751,228.508 103.439 C 225.208 100.139,220.394 98.955,216.271 100.429 M218.894 165.639 C 221.907 167.119,224.822 170.035,226.390 173.138 C 227.501 175.337,227.621 175.988,227.624 179.840 C 227.626 183.580,227.485 184.408,226.483 186.546 C 224.963 189.790,222.022 192.854,218.998 194.346 C 214.053 196.786,207.154 196.223,202.836 193.026 C 198.404 189.745,196.234 185.495,196.222 180.072 C 196.207 173.202,199.706 167.905,206.004 165.264 C 208.079 164.393,209.008 164.264,212.480 164.364 C 215.881 164.461,216.913 164.667,218.894 165.639 " stroke="none" fill-rule="evenodd"></path></svg>