<svg fill="currentColor" viewBox="0 0 256 256" xmlns="http://www.w3.org/2000/svg"><path d="M115.200 36.946 C 89.029 41.122,70.215 55.852,64.569 76.587 C 63.605 80.128,63.403 81.760,63.384 86.187 C 63.357 92.234,63.810 93.587,66.844 96.510 C 72.622 102.078,82.165 100.487,85.807 93.348 C 86.336 92.310,86.830 90.128,87.075 87.744 C 87.295 85.597,87.755 82.880,88.098 81.707 C 90.356 73.968,98.771 66.508,109.314 62.896 C 119.502 59.406,134.671 59.251,145.068 62.531 C 152.742 64.952,159.506 69.373,162.992 74.247 C 167.953 81.183,168.727 81.883,172.708 83.040 C 178.415 84.699,184.713 81.426,186.861 75.685 C 188.499 71.308,187.852 68.197,184.111 62.457 C 176.250 50.398,161.864 41.318,144.901 37.710 C 140.355 36.743,138.502 36.592,129.493 36.455 C 121.776 36.338,118.255 36.459,115.200 36.946 M36.691 116.450 C 31.588 118.012,28.168 122.646,28.168 128.000 C 28.168 132.598,30.579 136.544,34.773 138.811 L 36.480 139.733 87.253 139.947 L 138.027 140.160 143.787 142.239 C 160.290 148.196,167.786 153.371,170.749 160.853 C 172.106 164.281,172.111 170.741,170.759 174.293 C 166.889 184.468,154.177 192.594,138.039 195.212 C 133.093 196.014,122.907 196.014,117.961 195.212 C 104.833 193.082,94.001 187.416,88.287 179.689 C 85.634 176.102,84.567 173.280,84.079 168.563 C 83.617 164.100,82.966 162.395,80.817 160.016 C 78.552 157.509,76.342 156.492,72.636 156.249 C 69.805 156.065,69.301 156.164,66.793 157.398 C 63.681 158.930,61.758 161.048,60.724 164.082 C 60.194 165.638,60.098 167.115,60.283 170.824 C 60.573 176.617,61.611 180.490,64.431 186.301 C 72.686 203.314,91.269 215.326,115.231 219.137 C 121.300 220.103,134.700 220.103,140.769 219.137 C 164.735 215.326,183.369 203.278,191.557 186.301 C 194.665 179.854,195.458 176.666,195.721 169.542 C 196.113 158.948,193.979 151.322,188.387 143.343 L 186.033 139.984 202.777 139.859 C 219.013 139.737,219.572 139.705,221.227 138.809 C 230.049 134.034,230.049 121.957,221.227 117.189 L 219.520 116.267 128.640 116.195 C 78.656 116.155,37.279 116.270,36.691 116.450 " stroke="none" fill-rule="evenodd"></path></svg>