<svg fill="currentColor" viewBox="0 0 256 256" xmlns="http://www.w3.org/2000/svg"><path d="M109.013 44.423 C 105.000 45.364,101.143 49.421,100.247 53.641 C 99.047 59.297,102.782 65.692,108.325 67.474 C 109.291 67.785,114.610 68.039,122.560 68.156 C 129.541 68.259,135.238 68.469,135.220 68.625 C 135.202 68.780,126.226 95.691,115.273 128.427 L 95.360 187.947 77.867 188.160 C 58.373 188.398,59.159 188.279,55.751 191.514 C 53.513 193.637,52.406 195.967,52.156 199.076 C 51.761 203.999,54.178 208.347,58.608 210.684 L 60.800 211.840 103.009 211.955 C 150.840 212.085,148.213 212.254,151.903 208.803 C 154.702 206.185,155.875 203.622,155.884 200.107 C 155.894 195.592,153.745 191.845,149.822 189.538 L 147.840 188.373 134.293 188.244 C 126.843 188.174,120.747 187.982,120.747 187.818 C 120.747 187.654,129.686 160.702,140.612 127.924 L 160.478 68.327 177.412 68.190 C 194.034 68.056,194.386 68.035,196.480 67.072 C 200.817 65.078,203.484 61.402,203.844 56.924 C 204.240 51.993,201.987 47.919,197.486 45.426 L 195.200 44.160 152.960 44.091 C 127.876 44.050,110.027 44.185,109.013 44.423 " stroke="none" fill-rule="evenodd"></path></svg>