<svg fill="currentColor" viewBox="0 0 256 256" xmlns="http://www.w3.org/2000/svg"><path d="M36.691 52.450 C 31.588 54.012,28.168 58.646,28.168 64.000 C 28.168 68.598,30.579 72.544,34.773 74.811 L 36.480 75.733 128.000 75.733 L 219.520 75.733 221.227 74.809 C 230.049 70.034,230.049 57.957,221.227 53.189 L 219.520 52.267 128.640 52.195 C 78.656 52.155,37.279 52.270,36.691 52.450 M59.307 93.046 C 55.200 94.901,52.510 98.675,52.156 103.076 C 51.761 107.999,54.178 112.347,58.608 114.684 L 60.800 115.840 128.000 115.840 L 195.200 115.840 197.392 114.684 C 201.822 112.347,204.239 107.999,203.844 103.076 C 203.490 98.675,200.800 94.901,196.693 93.046 C 194.789 92.186,194.218 92.179,128.000 92.179 C 61.782 92.179,61.211 92.186,59.307 93.046 M35.200 133.063 C 32.789 134.162,30.891 135.878,29.538 138.178 C 28.503 139.940,28.373 140.586,28.373 144.000 C 28.373 147.414,28.503 148.060,29.538 149.822 C 30.920 152.172,32.783 153.832,35.413 155.054 L 37.333 155.947 128.000 155.947 L 218.667 155.947 220.587 155.054 C 223.217 153.832,225.080 152.172,226.462 149.822 C 227.497 148.060,227.627 147.414,227.627 144.000 C 227.627 140.586,227.497 139.940,226.462 138.178 C 225.109 135.878,223.211 134.162,220.800 133.063 C 219.165 132.318,215.244 132.285,128.000 132.285 C 40.756 132.285,36.835 132.318,35.200 133.063 M61.155 172.353 C 57.433 173.248,53.858 176.546,52.643 180.205 C 50.712 186.017,53.514 192.216,59.307 194.947 L 61.653 196.053 127.787 196.053 C 191.808 196.053,193.987 196.027,196.028 195.240 C 198.570 194.260,201.566 191.598,202.759 189.258 C 203.240 188.316,203.728 186.366,203.844 184.924 C 204.240 179.993,201.987 175.919,197.486 173.426 L 195.200 172.160 128.853 172.094 C 92.363 172.057,61.898 172.174,61.155 172.353 " stroke="none" fill-rule="evenodd"></path></svg>