<svg fill="currentColor" viewBox="0 0 256 256" xmlns="http://www.w3.org/2000/svg"><path d="M37.333 44.323 C 33.560 45.317,30.129 48.288,28.849 51.668 C 28.195 53.396,28.147 58.609,28.256 116.693 L 28.373 179.840 29.538 181.822 C 31.845 185.745,35.592 187.894,40.107 187.884 C 43.619 187.875,46.185 186.702,48.795 183.911 C 52.099 180.379,52.053 180.820,52.053 152.669 L 52.053 128.000 91.934 128.000 L 131.814 128.000 131.934 153.280 L 132.053 178.560 133.040 180.739 C 137.442 190.466,151.311 190.153,155.134 180.242 C 155.920 178.203,155.947 176.081,155.947 115.627 L 155.947 53.120 154.961 51.139 C 152.736 46.666,148.828 44.188,144.000 44.188 C 139.174 44.188,135.217 46.700,133.020 51.157 L 132.053 53.120 131.931 78.613 L 131.808 104.107 91.931 104.107 L 52.053 104.107 52.053 79.163 C 52.053 55.348,52.015 54.117,51.209 51.963 C 50.055 48.882,48.203 46.773,45.481 45.441 C 43.045 44.249,39.472 43.759,37.333 44.323 M187.372 100.920 C 181.400 103.514,178.395 110.875,180.998 116.537 C 182.478 119.758,183.983 121.372,186.793 122.752 L 189.227 123.947 202.972 124.160 L 216.718 124.373 208.855 135.586 C 204.531 141.754,200.795 147.514,200.552 148.386 C 199.796 151.109,200.019 154.460,201.113 156.809 C 203.142 161.168,206.884 163.562,212.480 164.082 C 214.240 164.246,216.687 164.752,217.919 165.206 C 220.918 166.315,224.557 169.701,226.268 172.976 C 227.529 175.390,227.625 175.875,227.626 179.840 C 227.627 183.570,227.484 184.411,226.492 186.528 C 224.901 189.920,222.281 192.596,218.939 194.240 C 216.326 195.525,215.808 195.626,211.847 195.624 C 206.710 195.620,205.179 195.034,200.747 191.369 C 196.883 188.175,195.475 187.581,191.787 187.592 C 186.864 187.607,182.906 190.203,180.838 194.773 C 178.620 199.675,180.060 204.872,184.870 209.326 C 193.334 217.165,205.046 221.053,216.190 219.724 C 235.097 217.468,249.370 203.311,251.751 184.453 C 253.559 170.133,246.175 154.378,234.091 146.773 C 232.786 145.952,231.796 145.049,231.891 144.768 C 231.986 144.486,236.130 138.456,241.099 131.368 C 246.068 124.279,250.527 117.598,251.008 116.520 C 253.490 110.952,250.793 103.972,245.120 101.285 L 242.987 100.275 215.893 100.288 C 193.159 100.298,188.570 100.400,187.372 100.920 " stroke="none" fill-rule="evenodd"></path></svg>