<svg fill="currentColor" viewBox="0 0 256 256" xmlns="http://www.w3.org/2000/svg"><path d="M76.204 44.622 C 74.705 45.101,73.448 45.973,71.752 47.711 C 69.448 50.073,68.613 51.784,38.302 116.267 C 21.205 152.640,6.540 183.891,5.715 185.713 C 3.245 191.161,3.745 195.833,7.221 199.791 C 10.480 203.503,16.629 204.795,21.018 202.689 C 24.903 200.826,26.019 199.028,34.510 180.959 L 42.354 164.267 80.001 164.267 L 117.649 164.267 125.622 181.195 C 130.007 190.506,134.145 198.820,134.819 199.670 C 137.407 202.938,143.456 204.826,147.286 203.562 C 153.241 201.597,156.997 195.571,155.786 189.924 C 155.544 188.796,140.767 156.882,122.950 119.003 C 88.201 45.133,89.283 47.242,85.112 45.223 C 82.611 44.012,78.899 43.762,76.204 44.622 M93.189 112.273 L 106.117 139.733 93.196 139.846 C 86.089 139.908,74.337 139.908,67.080 139.846 L 53.885 139.733 66.895 112.095 C 74.050 96.893,79.985 84.536,80.083 84.634 C 80.181 84.732,86.078 97.169,93.189 112.273 M190.037 92.756 C 181.014 94.224,172.688 98.264,167.380 103.748 C 161.251 110.080,162.995 119.854,170.880 123.360 C 175.417 125.377,180.199 124.289,185.059 120.134 C 188.002 117.618,191.609 116.476,197.547 116.180 C 200.101 116.052,203.127 116.162,204.587 116.436 C 210.282 117.503,216.244 121.536,218.414 125.790 C 218.905 126.752,219.307 127.620,219.307 127.719 C 219.307 127.818,217.723 127.353,215.787 126.686 C 210.050 124.711,205.059 124.030,198.187 124.285 C 190.591 124.566,185.501 125.826,178.987 129.036 C 168.561 134.175,161.388 142.212,157.828 152.747 C 156.637 156.269,156.431 157.540,156.254 162.442 C 156.081 167.216,156.192 168.702,156.980 172.109 C 160.197 186.034,171.164 197.212,186.250 201.944 C 191.380 203.554,196.036 204.100,202.199 203.817 C 208.400 203.531,213.193 202.476,218.358 200.257 L 221.896 198.737 223.930 200.639 C 227.672 204.140,232.893 204.874,237.467 202.541 C 239.948 201.275,241.449 199.758,242.833 197.120 L 243.840 195.200 243.840 160.853 C 243.840 128.604,243.791 126.327,243.040 123.556 C 238.991 108.623,227.516 97.624,211.627 93.447 C 207.055 92.245,195.455 91.873,190.037 92.756 M205.279 148.667 C 211.238 149.930,216.290 153.611,218.630 158.394 C 219.702 160.584,219.806 161.186,219.667 164.361 C 219.553 166.936,219.248 168.431,218.539 169.876 C 217.311 172.380,213.993 175.719,211.247 177.213 C 208.525 178.695,203.193 180.055,200.145 180.046 C 191.990 180.021,184.343 175.744,181.261 169.485 C 180.468 167.876,180.268 166.775,180.273 164.053 C 180.281 159.992,181.187 157.652,183.888 154.722 C 188.989 149.188,197.016 146.916,205.279 148.667 " stroke="none" fill-rule="evenodd"></path></svg>