<svg fill="currentColor" viewBox="0 0 256 256" xmlns="http://www.w3.org/2000/svg"><path d="M106.880 37.285 C 104.243 38.534,102.318 40.518,101.037 43.307 C 100.159 45.218,100.042 46.206,99.914 52.790 L 99.770 60.139 59.378 60.256 L 18.987 60.373 15.787 61.914 C 10.413 64.502,7.135 68.068,5.015 73.634 L 4.053 76.160 4.053 127.787 C 4.053 177.021,4.090 179.522,4.848 181.760 C 7.081 188.352,11.608 192.945,18.027 195.131 C 20.659 196.027,21.201 196.041,60.231 196.173 L 99.769 196.307 99.914 203.434 C 100.043 209.776,100.167 210.795,101.037 212.693 C 105.523 222.477,119.294 222.196,123.134 212.242 C 123.923 210.194,123.947 207.758,123.947 128.000 C 123.947 48.461,123.921 45.801,123.140 43.774 C 122.073 41.009,119.748 38.497,117.120 37.271 C 114.140 35.880,109.835 35.886,106.880 37.285 M148.477 60.554 C 143.609 62.057,139.947 67.043,139.947 72.168 C 139.947 76.680,143.389 81.498,147.789 83.144 C 150.203 84.047,150.471 84.053,189.029 84.053 L 227.840 84.053 227.840 128.000 L 227.840 171.947 189.304 171.947 C 146.753 171.947,148.206 171.859,144.557 174.643 C 142.341 176.332,140.331 180.046,140.050 182.966 C 139.585 187.803,142.673 192.947,147.294 195.035 L 149.547 196.053 192.213 196.053 L 234.880 196.053 238.054 195.014 C 245.261 192.654,250.342 186.703,251.778 178.942 C 252.020 177.631,252.134 156.732,252.064 126.462 L 251.947 76.160 250.985 73.634 C 248.865 68.068,245.587 64.502,240.213 61.914 L 237.013 60.373 193.280 60.298 C 169.227 60.257,149.065 60.372,148.477 60.554 M99.840 128.000 L 99.840 171.947 64.000 171.947 L 28.160 171.947 28.160 128.000 L 28.160 84.053 64.000 84.053 L 99.840 84.053 99.840 128.000 M46.591 101.371 C 42.533 103.394,40.107 107.378,40.107 112.022 C 40.107 117.828,43.993 122.547,49.760 123.744 L 52.053 124.220 52.053 135.429 L 52.053 146.637 53.358 149.248 C 55.563 153.661,59.128 155.883,64.029 155.900 C 68.777 155.916,72.395 153.654,74.794 149.170 C 75.685 147.503,75.740 146.818,75.865 135.812 L 75.996 124.210 78.265 123.739 C 84.006 122.547,87.893 117.817,87.893 112.022 C 87.893 107.378,85.467 103.394,81.409 101.371 L 79.192 100.267 64.000 100.267 L 48.808 100.267 46.591 101.371 " stroke="none" fill-rule="evenodd"></path></svg>