<svg fill="currentColor" viewBox="0 0 256 256" xmlns="http://www.w3.org/2000/svg"><path d="M67.200 37.063 C 64.789 38.162,62.891 39.878,61.538 42.178 L 60.373 44.160 60.262 123.431 L 60.151 202.701 61.067 204.830 C 62.297 207.689,65.538 210.576,68.476 211.431 C 70.444 212.003,76.220 212.065,115.041 211.934 C 163.140 211.771,160.569 211.893,168.107 209.420 C 182.982 204.539,195.368 192.691,200.550 178.383 C 203.213 171.034,203.701 168.186,203.701 160.000 C 203.701 151.814,203.213 148.966,200.550 141.617 C 197.045 131.939,189.666 122.645,180.918 116.888 C 179.034 115.648,177.493 114.453,177.493 114.232 C 177.493 114.011,178.036 113.130,178.699 112.275 C 186.735 101.913,189.951 85.947,186.648 72.808 C 182.078 54.632,167.807 40.798,149.853 37.139 C 145.727 36.298,144.189 36.267,107.240 36.276 C 71.064 36.285,68.811 36.329,67.200 37.063 M145.152 60.628 C 153.802 62.419,161.581 70.198,163.372 78.848 C 165.026 86.840,162.649 95.016,157.013 100.720 C 153.638 104.136,150.487 105.980,146.109 107.100 C 142.962 107.904,141.328 107.947,113.425 107.947 L 84.053 107.947 84.053 84.053 L 84.053 60.160 113.472 60.160 C 133.160 60.160,143.639 60.315,145.152 60.628 M159.582 133.146 C 164.876 134.604,169.748 137.779,173.577 142.266 C 175.719 144.775,178.442 150.225,179.242 153.600 C 179.962 156.639,179.955 163.406,179.229 166.400 C 176.919 175.921,169.824 183.531,160.222 186.784 L 156.800 187.943 120.427 188.070 L 84.053 188.196 84.053 160.231 L 84.053 132.267 120.222 132.267 C 155.428 132.267,156.475 132.290,159.582 133.146 " stroke="none" fill-rule="evenodd"></path></svg>