<svg fill="currentColor" viewBox="0 0 256 256" xmlns="http://www.w3.org/2000/svg"><path d="M37.333 44.323 C 33.560 45.317,30.129 48.288,28.849 51.668 C 28.195 53.396,28.147 58.609,28.256 116.693 L 28.373 179.840 29.538 181.822 C 31.845 185.745,35.592 187.894,40.107 187.884 C 43.619 187.875,46.185 186.702,48.795 183.911 C 52.099 180.379,52.053 180.820,52.053 152.669 L 52.053 128.000 91.934 128.000 L 131.814 128.000 131.934 153.280 L 132.053 178.560 133.040 180.739 C 137.442 190.466,151.311 190.153,155.134 180.242 C 155.920 178.203,155.947 176.081,155.947 115.627 L 155.947 53.120 154.961 51.139 C 152.736 46.666,148.828 44.188,144.000 44.188 C 139.174 44.188,135.217 46.700,133.020 51.157 L 132.053 53.120 131.931 78.613 L 131.808 104.107 91.931 104.107 L 52.053 104.107 52.053 79.163 C 52.053 55.348,52.015 54.117,51.209 51.963 C 50.055 48.882,48.203 46.773,45.481 45.441 C 43.045 44.249,39.472 43.759,37.333 44.323 M194.645 101.371 C 192.083 102.648,189.742 105.184,188.813 107.691 C 188.022 109.826,180.053 157.522,180.053 160.124 C 180.053 163.204,181.256 165.951,183.652 168.348 C 188.389 173.084,195.172 173.159,200.417 168.533 C 204.418 165.005,208.780 163.661,214.166 164.296 C 219.253 164.896,223.937 168.283,226.390 173.138 C 227.501 175.337,227.621 175.988,227.624 179.840 C 227.626 183.562,227.483 184.413,226.502 186.505 C 223.653 192.580,218.395 195.904,211.626 195.906 C 207.496 195.908,204.560 194.818,201.063 191.985 C 197.411 189.027,195.392 188.179,192.000 188.179 C 185.676 188.179,180.661 192.793,180.156 199.076 C 179.721 204.504,182.655 208.911,189.772 213.514 C 205.744 223.847,226.654 221.669,240.202 208.262 C 251.746 196.838,255.163 179.278,248.768 164.249 C 244.773 154.860,236.447 146.767,226.835 142.927 C 222.003 140.998,218.078 140.256,212.418 140.205 L 207.449 140.160 207.661 138.880 C 207.777 138.176,208.381 134.624,209.003 130.987 L 210.133 124.373 226.347 124.160 C 242.132 123.952,242.616 123.921,244.693 122.966 C 254.104 118.638,254.359 105.661,245.120 101.285 L 242.987 100.275 219.924 100.271 L 196.861 100.267 194.645 101.371 " stroke="none" fill-rule="evenodd"></path></svg>