<svg fill="currentColor" viewBox="0 0 256 256" xmlns="http://www.w3.org/2000/svg"><path d="M97.615 5.111 C 87.676 7.207,79.534 11.487,72.252 18.444 C 64.432 25.915,59.839 34.009,57.055 45.227 C 56.171 48.786,56.150 49.804,55.917 100.053 L 55.680 151.253 54.277 153.274 C 50.573 158.608,46.894 167.706,45.174 175.787 C 43.910 181.723,43.794 193.211,44.940 199.040 C 47.765 213.412,54.137 225.136,64.294 234.649 C 86.540 255.481,120.036 257.767,145.067 240.160 C 146.827 238.922,150.066 236.172,152.266 234.048 C 161.715 224.925,167.809 213.921,170.768 200.644 C 172.034 194.965,172.124 181.736,170.935 176.213 C 169.168 168.006,165.698 159.343,161.744 153.266 L 160.000 150.585 159.998 101.212 C 159.996 47.662,160.013 48.083,157.637 40.561 C 156.015 35.427,154.285 31.834,151.207 27.209 C 143.541 15.687,131.632 7.736,118.065 5.083 C 112.477 3.990,102.866 4.003,97.615 5.111 M114.940 29.001 C 124.664 31.488,132.068 38.784,135.085 48.853 C 135.800 51.239,135.868 55.057,136.086 104.960 C 136.281 149.628,136.419 158.684,136.915 159.573 C 137.242 160.160,138.556 162.080,139.836 163.840 C 142.899 168.055,145.626 173.811,146.809 178.560 C 147.553 181.545,147.766 183.634,147.768 187.947 C 147.772 194.914,146.743 199.451,143.801 205.440 C 138.117 217.014,128.218 224.674,115.658 227.219 C 110.934 228.177,101.792 227.893,97.703 226.662 C 90.276 224.426,84.937 221.322,79.891 216.307 C 72.198 208.659,68.250 199.187,68.236 188.343 C 68.224 178.909,70.691 171.303,76.175 163.862 C 77.290 162.349,78.607 160.237,79.101 159.169 C 79.996 157.235,80.001 157.003,80.213 103.680 L 80.427 50.133 81.371 47.360 C 84.456 38.302,91.805 31.376,100.848 29.005 C 104.988 27.920,110.706 27.918,114.940 29.001 M105.328 44.223 C 101.848 44.834,97.489 49.056,96.441 52.831 C 96.154 53.862,96.004 73.732,96.002 110.806 L 96.000 167.212 94.145 168.489 C 88.064 172.673,84.053 180.388,84.053 187.902 C 84.053 198.330,90.968 207.773,100.889 210.895 C 104.830 212.135,111.311 212.195,114.773 211.023 C 120.448 209.102,124.434 206.200,127.611 201.677 C 134.064 192.488,133.077 179.443,125.330 171.531 C 124.116 170.292,122.397 168.797,121.508 168.209 L 119.893 167.140 119.893 110.526 C 119.893 47.696,120.080 51.787,117.049 48.246 C 114.412 45.165,109.522 43.487,105.328 44.223 M189.312 60.984 C 184.488 62.036,178.036 65.142,175.589 67.589 C 167.976 75.202,173.429 87.893,184.312 87.893 C 186.245 87.893,187.408 87.556,190.290 86.163 C 196.408 83.205,200.677 83.364,206.724 86.778 C 213.271 90.474,222.049 92.574,228.438 91.972 C 237.527 91.116,246.764 87.173,249.739 82.880 C 253.054 78.097,252.332 71.354,248.087 67.441 C 245.548 65.101,243.556 64.317,240.000 64.261 C 237.320 64.218,236.663 64.388,233.600 65.920 C 230.503 67.468,229.829 67.640,226.327 67.771 L 222.468 67.916 217.125 65.128 C 209.833 61.322,206.973 60.556,199.253 60.339 C 194.260 60.198,192.342 60.323,189.312 60.984 M194.001 100.333 C 184.077 101.107,174.604 106.274,172.662 111.973 C 171.092 116.580,172.113 120.969,175.556 124.411 C 179.696 128.551,184.494 129.078,190.546 126.058 C 193.799 124.434,194.073 124.373,198.187 124.373 L 202.453 124.373 206.556 126.619 C 213.699 130.530,218.945 131.914,226.525 131.888 C 236.818 131.853,247.973 127.003,250.628 121.408 C 252.813 116.804,251.951 111.339,248.475 107.760 C 246.019 105.231,243.890 104.350,240.194 104.334 C 237.308 104.321,236.600 104.497,233.367 106.027 C 229.990 107.624,229.515 107.733,225.918 107.733 C 221.822 107.733,221.680 107.686,215.467 104.211 C 209.763 101.022,202.347 99.682,194.001 100.333 " stroke="none" fill-rule="evenodd"></path></svg>