<svg fill="currentColor" viewBox="0 0 256 256" xmlns="http://www.w3.org/2000/svg"><path d="M116.141 12.730 C 111.326 14.446,112.538 12.402,91.622 54.093 L 72.525 92.160 50.594 92.160 C 30.268 92.160,28.473 92.219,26.065 92.968 C 19.288 95.078,13.835 101.121,12.378 108.137 C 12.075 109.599,11.966 125.558,12.044 157.232 L 12.160 204.160 13.095 206.606 C 15.711 213.455,21.828 218.531,28.877 219.703 C 30.997 220.056,55.743 220.154,120.107 220.065 C 203.678 219.950,208.564 219.902,210.987 219.176 C 216.351 217.569,219.698 215.573,223.572 211.670 C 227.545 207.668,229.346 204.726,230.785 199.893 C 231.687 196.859,244.053 99.832,244.053 95.781 C 244.053 92.415,242.783 87.392,240.980 83.627 C 238.607 78.671,233.392 73.367,228.693 71.131 C 222.546 68.207,223.309 68.267,192.326 68.267 L 164.402 68.267 164.122 59.627 C 163.932 53.794,163.580 49.739,163.038 47.147 C 158.974 27.712,142.473 13.424,122.667 12.190 C 119.102 11.968,118.028 12.057,116.141 12.730 M132.975 40.827 C 135.154 42.610,137.508 45.965,138.766 49.076 C 139.666 51.301,139.722 52.171,139.936 67.200 C 140.148 82.126,140.209 83.091,141.062 84.907 C 142.194 87.316,144.570 89.683,147.139 90.961 L 149.120 91.947 183.467 92.160 C 202.357 92.277,218.073 92.541,218.390 92.745 C 218.707 92.950,219.218 93.718,219.525 94.452 C 220.018 95.634,219.383 101.376,213.988 144.527 C 209.470 180.652,207.714 193.540,207.204 194.319 C 206.823 194.900,205.796 195.571,204.911 195.816 C 203.834 196.115,185.029 196.263,147.733 196.264 L 92.160 196.267 92.160 151.467 L 92.160 106.668 109.527 71.931 L 126.894 37.194 129.047 38.284 C 130.231 38.883,131.999 40.028,132.975 40.827 M67.840 156.160 L 67.840 196.267 52.053 196.267 L 36.267 196.267 36.267 156.160 L 36.267 116.053 52.053 116.053 L 67.840 116.053 67.840 156.160 " stroke="none" fill-rule="evenodd"></path></svg>