<svg fill="currentColor" viewBox="0 0 256 256" xmlns="http://www.w3.org/2000/svg"><path d="M56.856 28.830 C 40.310 32.455,25.838 49.813,18.176 75.221 C 10.597 100.354,9.941 131.881,16.448 158.293 C 22.680 183.589,34.853 201.890,50.081 208.856 C 55.014 211.113,58.410 211.821,64.213 211.802 C 69.970 211.783,73.015 211.132,77.919 208.868 C 81.924 207.020,85.590 204.494,89.169 201.118 L 92.089 198.364 92.231 205.742 L 92.373 213.120 93.958 216.440 C 97.115 223.050,102.818 227.027,110.345 227.867 C 112.757 228.136,135.011 228.249,170.683 228.174 L 227.200 228.053 229.866 227.138 C 236.729 224.783,241.609 219.551,243.417 212.611 C 243.963 210.515,244.053 203.345,244.050 162.150 C 244.047 134.818,243.864 111.560,243.624 108.160 C 240.608 65.511,222.725 33.827,198.830 28.801 C 196.189 28.245,186.727 28.166,127.652 28.203 C 71.705 28.238,59.043 28.350,56.856 28.830 M68.206 53.126 C 70.955 54.405,75.446 58.796,78.020 62.720 C 82.473 69.506,86.765 80.537,88.896 90.667 C 91.199 101.614,91.506 105.042,91.513 119.893 C 91.521 135.760,90.893 141.574,87.890 153.416 C 83.340 171.356,75.111 184.542,66.613 187.508 C 64.415 188.275,63.878 188.299,61.792 187.720 C 53.686 185.468,44.893 171.803,40.349 154.393 C 37.392 143.066,36.246 133.475,36.250 120.077 C 36.252 109.992,36.643 104.778,38.022 96.427 C 41.539 75.139,50.434 57.547,59.947 53.067 C 62.739 51.751,65.292 51.769,68.206 53.126 M196.206 53.126 C 198.955 54.405,203.446 58.796,206.020 62.720 C 211.982 71.807,216.730 86.132,218.649 100.822 C 219.670 108.635,220.191 107.812,214.080 108.031 C 209.480 108.195,208.591 108.353,206.661 109.345 C 197.286 114.166,198.198 127.752,208.137 131.340 C 209.000 131.651,212.059 132.015,214.933 132.149 L 220.160 132.391 220.160 168.169 L 220.160 203.947 168.107 203.947 L 116.053 203.947 116.053 168.172 L 116.053 132.396 121.371 132.145 C 127.283 131.866,129.254 131.254,131.996 128.847 C 134.527 126.624,135.831 123.671,135.855 120.107 C 135.879 116.528,134.870 113.992,132.466 111.588 C 129.715 108.836,127.742 108.206,121.319 108.024 L 115.705 107.865 115.422 104.812 C 113.731 86.541,109.274 70.117,102.410 56.853 L 99.926 52.053 146.923 52.058 L 193.920 52.062 196.206 53.126 M59.520 104.679 C 56.870 105.555,55.104 106.590,53.090 108.446 C 50.595 110.746,49.137 113.363,48.411 116.844 C 46.891 124.133,50.553 131.248,57.514 134.534 C 60.025 135.719,60.816 135.884,64.000 135.884 C 67.184 135.884,67.975 135.719,70.486 134.534 C 80.984 129.578,83.220 116.107,74.829 108.372 C 71.908 105.679,68.744 104.397,64.640 104.242 C 62.602 104.166,60.539 104.341,59.520 104.679 M160.501 108.557 C 149.739 112.047,149.133 126.445,159.552 131.130 C 161.198 131.870,162.401 132.007,167.467 132.028 C 171.207 132.044,174.158 131.844,175.360 131.494 C 183.567 129.103,186.624 118.759,181.049 112.246 C 180.214 111.271,178.544 109.961,177.339 109.335 C 175.291 108.273,174.725 108.190,168.747 108.078 C 164.134 107.992,161.831 108.126,160.501 108.557 " stroke="none" fill-rule="evenodd"></path></svg>