<svg fill="currentColor" viewBox="0 0 256 256" xmlns="http://www.w3.org/2000/svg"><path d="M96.945 29.021 C 91.992 30.319,88.150 32.575,84.261 36.469 C 78.316 42.422,76.376 47.391,76.052 57.493 L 75.843 64.000 53.046 64.000 C 27.567 64.000,26.449 64.101,21.906 66.825 C 18.699 68.749,16.758 70.652,14.930 73.669 C 11.838 78.770,11.999 75.289,11.971 137.686 C 11.954 176.995,12.087 194.338,12.418 195.926 C 14.040 203.702,20.298 209.960,28.074 211.582 C 31.279 212.250,224.721 212.250,227.926 211.582 C 235.702 209.960,241.960 203.702,243.582 195.926 C 243.912 194.342,244.053 176.986,244.053 137.983 C 244.053 76.212,244.171 78.908,241.252 73.960 C 239.553 71.079,236.385 68.019,233.442 66.418 C 229.214 64.117,227.909 64.013,203.039 64.006 L 180.157 64.000 179.948 57.493 C 179.713 50.166,178.980 47.084,176.323 42.240 C 174.236 38.437,169.173 33.504,165.248 31.450 C 158.923 28.140,159.116 28.157,127.825 28.183 C 101.911 28.205,99.845 28.261,96.945 29.021 M154.247 52.737 C 155.625 53.640,156.155 55.727,156.158 60.267 L 156.160 64.000 128.213 64.000 L 100.267 64.000 100.267 59.073 C 100.267 54.293,100.300 54.115,101.396 53.100 L 102.525 52.053 127.864 52.053 C 150.392 52.053,153.319 52.129,154.247 52.737 M220.160 103.893 L 220.160 119.893 208.302 119.893 L 196.445 119.893 196.006 116.160 C 195.506 111.908,194.614 109.736,192.497 107.619 C 187.744 102.866,180.330 102.921,175.506 107.745 C 172.935 110.316,171.947 112.941,171.947 117.197 L 171.947 119.893 128.000 119.893 L 84.053 119.893 84.053 117.197 C 84.053 112.941,83.065 110.316,80.494 107.745 C 75.670 102.921,68.256 102.866,63.503 107.619 C 61.174 109.948,60.416 111.927,60.235 116.160 L 60.075 119.893 48.171 119.893 L 36.267 119.893 36.267 103.893 L 36.267 87.893 128.213 87.893 L 220.160 87.893 220.160 103.893 M60.164 147.520 C 60.169 151.608,61.297 154.297,64.076 156.848 C 69.801 162.104,78.766 160.496,82.555 153.534 C 83.558 151.691,83.825 150.600,83.975 147.739 L 84.160 144.213 128.000 144.213 L 171.840 144.213 172.025 147.739 C 172.175 150.600,172.442 151.691,173.445 153.534 C 177.234 160.496,186.199 162.104,191.924 156.848 C 194.465 154.516,195.723 151.704,196.086 147.549 L 196.377 144.213 208.268 144.213 L 220.160 144.213 220.160 166.187 L 220.160 188.160 128.213 188.160 L 36.267 188.160 36.267 166.187 L 36.267 144.213 48.213 144.213 L 60.160 144.213 60.164 147.520 " stroke="none" fill-rule="evenodd"></path></svg>