<svg fill="currentColor" viewBox="0 0 256 256" xmlns="http://www.w3.org/2000/svg"><path d="M118.827 13.059 C 103.405 15.812,89.173 26.215,82.021 39.963 C 79.656 44.509,77.323 51.571,76.653 56.213 L 76.114 59.947 51.604 60.165 C 29.486 60.361,26.908 60.456,25.192 61.137 C 18.432 63.818,13.469 69.890,12.258 76.959 C 11.828 79.469,12.388 84.733,19.146 141.648 C 23.894 181.629,26.781 204.497,27.287 206.121 C 29.189 212.234,33.958 216.925,40.533 219.152 C 42.791 219.917,46.095 219.947,128.000 219.947 C 209.905 219.947,213.209 219.917,215.467 219.152 C 222.042 216.925,226.811 212.234,228.713 206.121 C 229.219 204.496,232.104 181.641,236.852 141.637 C 245.040 72.650,244.701 77.276,241.994 71.490 C 239.881 66.975,236.014 63.410,230.827 61.194 C 229.028 60.425,227.356 60.360,204.396 60.160 L 179.886 59.947 179.347 56.213 C 178.733 51.956,176.475 44.860,174.474 40.895 C 167.109 26.305,152.926 15.847,136.657 13.010 C 132.128 12.220,123.393 12.244,118.827 13.059 M136.960 37.497 C 143.532 39.790,149.445 44.895,152.618 51.014 C 154.211 54.087,154.668 55.358,155.485 58.987 L 155.750 60.160 127.979 60.160 C 101.736 60.160,100.221 60.119,100.419 59.413 C 100.535 59.003,100.759 57.995,100.917 57.173 C 101.337 54.984,103.196 50.896,104.991 48.213 C 108.095 43.574,113.605 39.358,118.827 37.626 C 122.777 36.316,122.752 36.319,128.640 36.428 C 133.121 36.510,134.719 36.716,136.960 37.497 M75.947 94.917 C 75.947 104.959,76.016 105.965,76.856 108.211 C 78.502 112.611,83.320 116.053,87.832 116.053 C 92.421 116.053,97.133 112.958,99.014 108.706 C 99.958 106.572,100.020 105.862,100.185 95.253 L 100.359 84.053 128.259 84.053 L 156.160 84.053 156.164 95.467 C 156.168 106.541,156.198 106.944,157.169 109.030 C 159.059 113.087,163.703 116.053,168.168 116.053 C 172.680 116.053,177.498 112.611,179.144 108.211 C 179.984 105.965,180.053 104.959,180.053 94.917 L 180.053 84.053 199.680 84.053 C 217.030 84.053,219.307 84.129,219.307 84.707 C 219.307 85.511,206.598 192.945,206.274 194.880 L 206.041 196.267 128.000 196.267 L 49.959 196.267 49.726 194.880 C 49.402 192.945,36.693 85.511,36.693 84.707 C 36.693 84.129,38.970 84.053,56.320 84.053 L 75.947 84.053 75.947 94.917 " stroke="none" fill-rule="evenodd"></path></svg>