<svg fill="currentColor" viewBox="0 0 256 256" xmlns="http://www.w3.org/2000/svg"><path d="M119.680 20.310 C 97.411 22.610,80.001 29.205,63.147 41.728 C 57.186 46.157,46.223 57.026,41.973 62.720 C 16.611 96.701,12.928 141.035,32.385 178.133 C 37.761 188.385,42.832 195.175,51.828 204.172 C 60.825 213.168,67.615 218.239,77.867 223.615 C 114.965 243.072,159.250 239.395,193.280 214.031 C 198.497 210.143,210.143 198.497,214.031 193.280 C 228.489 173.882,235.947 151.668,235.947 128.000 C 235.947 92.235,218.399 59.167,188.587 38.752 C 175.422 29.738,160.539 23.864,144.427 21.325 C 139.077 20.483,124.002 19.864,119.680 20.310 M135.040 44.374 C 172.305 47.758,202.630 74.580,210.140 110.797 C 215.959 138.858,207.285 167.541,186.865 187.761 C 173.241 201.252,155.612 209.521,136.017 211.611 C 111.761 214.199,86.191 204.984,68.686 187.348 C 48.533 167.041,40.077 138.684,45.860 110.797 C 54.430 69.467,93.221 40.575,135.040 44.374 M101.333 76.332 C 97.726 77.257,94.540 79.898,93.047 83.200 C 92.192 85.090,92.179 85.796,92.174 128.000 L 92.168 170.880 93.169 173.030 C 95.059 177.087,99.703 180.053,104.168 180.053 C 108.680 180.053,113.498 176.611,115.144 172.211 C 115.984 169.965,116.053 168.959,116.053 158.917 L 116.053 148.053 124.157 148.053 L 132.260 148.053 141.275 161.600 C 146.234 169.051,150.795 175.693,151.412 176.360 C 154.711 179.930,160.997 180.970,165.392 178.673 C 170.690 175.905,173.269 169.573,171.322 164.114 C 170.999 163.208,167.622 157.790,163.818 152.073 L 156.900 141.679 160.535 138.146 C 165.852 132.980,169.038 127.574,170.915 120.533 C 172.009 116.433,172.022 107.652,170.940 103.467 C 169.861 99.288,166.438 92.447,163.832 89.260 C 159.275 83.686,152.105 79.106,144.853 77.138 C 141.616 76.259,140.439 76.206,122.027 76.107 C 111.349 76.050,102.037 76.151,101.333 76.332 M141.013 101.273 C 143.599 102.482,145.605 104.468,146.868 107.070 C 148.027 109.457,148.138 114.148,147.094 116.561 C 146.119 118.810,143.227 121.786,140.887 122.946 C 138.961 123.902,138.419 123.947,127.467 124.082 L 116.053 124.222 116.053 112.244 L 116.053 100.267 127.467 100.271 C 138.534 100.275,138.945 100.305,141.013 101.273 " stroke="none" fill-rule="evenodd"></path></svg>