<svg fill="currentColor" viewBox="0 0 256 256" xmlns="http://www.w3.org/2000/svg"><path d="M112.853 20.646 C 107.206 22.023,102.095 26.302,99.665 31.687 C 98.900 33.385,85.048 72.837,68.885 119.360 L 39.496 203.947 31.132 203.947 C 21.696 203.947,19.577 204.339,16.557 206.643 C 14.341 208.332,12.331 212.046,12.050 214.966 C 11.585 219.803,14.673 224.947,19.294 227.035 L 21.547 228.053 128.000 228.053 L 234.453 228.053 236.706 227.035 C 241.327 224.947,244.415 219.803,243.950 214.966 C 243.669 212.046,241.659 208.332,239.443 206.643 C 236.423 204.339,234.304 203.947,224.868 203.947 L 216.504 203.947 187.115 119.360 C 170.952 72.837,157.100 33.385,156.335 31.687 C 153.834 26.144,148.419 21.747,142.592 20.527 C 139.427 19.864,115.671 19.959,112.853 20.646 M135.865 45.333 C 136.178 46.096,139.265 54.880,142.725 64.853 C 146.185 74.827,149.108 83.227,149.220 83.520 C 149.382 83.942,144.964 84.053,128.000 84.053 C 111.037 84.053,106.617 83.942,106.777 83.520 C 106.888 83.227,109.810 74.827,113.270 64.853 C 116.730 54.880,119.818 46.096,120.132 45.333 L 120.703 43.947 128.000 43.947 L 135.297 43.947 135.865 45.333 M164.473 127.467 C 168.194 138.203,171.323 147.227,171.425 147.520 C 171.573 147.944,162.704 148.053,128.000 148.053 C 93.295 148.053,84.427 147.944,84.576 147.520 C 84.679 147.227,87.800 138.203,91.512 127.467 L 98.259 107.947 127.984 107.947 L 157.708 107.947 164.473 127.467 M181.935 177.600 C 183.023 180.709,185.518 187.861,187.480 193.493 L 191.046 203.733 159.523 203.843 C 142.185 203.903,113.815 203.903,96.477 203.843 L 64.954 203.733 68.520 193.493 C 70.482 187.861,72.977 180.709,74.065 177.600 L 76.043 171.947 128.000 171.947 L 179.957 171.947 181.935 177.600 " stroke="none" fill-rule="evenodd"></path></svg>