<svg fill="currentColor" viewBox="0 0 256 256" xmlns="http://www.w3.org/2000/svg"><path d="M84.907 20.427 C 81.257 21.628,78.880 23.610,77.169 26.880 C 76.243 28.648,76.152 29.400,76.021 36.373 L 75.878 43.947 49.323 43.947 C 19.976 43.947,20.105 43.936,16.557 46.643 C 14.341 48.332,12.331 52.046,12.050 54.966 C 11.585 59.803,14.673 64.947,19.294 67.035 L 21.547 68.053 64.320 68.176 C 87.845 68.243,107.093 68.386,107.093 68.494 C 107.093 69.778,104.666 79.511,103.460 83.067 C 100.577 91.559,94.431 102.750,89.453 108.570 L 88.008 110.260 86.874 108.997 C 84.683 106.556,79.084 97.872,76.706 93.227 C 75.385 90.645,73.666 87.919,72.885 87.169 C 69.496 83.908,63.785 82.930,59.622 84.898 C 55.109 87.032,52.076 92.297,52.633 97.031 C 53.137 101.311,60.714 114.682,67.339 122.981 L 69.975 126.282 68.161 127.432 C 62.235 131.189,54.611 134.539,47.041 136.711 C 40.360 138.629,34.850 139.520,27.274 139.908 C 21.670 140.194,20.742 140.354,18.614 141.395 C 17.303 142.036,15.647 143.269,14.933 144.134 C 13.345 146.060,11.947 149.663,11.947 151.832 C 11.947 156.439,15.059 161.164,19.294 162.987 C 21.438 163.909,21.907 163.944,29.013 163.712 C 37.128 163.447,41.702 162.810,49.920 160.799 C 62.339 157.761,76.475 151.324,86.122 144.314 L 87.977 142.965 91.669 145.459 C 102.572 152.825,116.067 158.642,128.532 161.350 C 131.054 161.898,133.118 162.491,133.119 162.668 C 133.119 162.845,127.527 174.173,120.691 187.841 C 109.335 210.546,108.243 212.919,108.050 215.302 C 107.741 219.120,108.790 221.913,111.582 224.705 C 113.312 226.434,114.360 227.091,116.285 227.650 C 120.790 228.960,125.838 227.583,128.769 224.244 C 129.502 223.409,133.088 216.773,136.738 209.497 L 143.375 196.267 176.000 196.267 L 208.625 196.267 215.289 209.551 C 222.584 224.094,223.811 225.834,227.699 227.159 C 230.666 228.169,234.440 228.037,237.030 226.831 C 241.478 224.759,244.404 219.696,243.941 214.875 C 243.767 213.060,238.919 203.074,214.693 154.619 C 188.582 102.396,185.474 96.385,183.870 95.013 C 179.425 91.208,172.580 91.203,168.141 95.003 C 166.599 96.323,164.971 99.317,155.611 118.059 L 144.853 139.598 142.160 139.331 C 134.829 138.604,124.491 135.692,117.022 132.250 C 112.759 130.285,106.243 126.645,106.241 126.227 C 106.241 126.073,106.937 125.113,107.789 124.094 C 112.493 118.466,118.514 108.893,121.796 101.820 C 125.768 93.262,129.387 81.593,130.549 73.600 C 130.821 71.723,131.127 69.773,131.227 69.268 C 131.407 68.360,131.548 68.346,142.825 68.164 C 156.086 67.949,157.075 67.737,160.406 64.406 C 162.835 61.978,163.844 59.415,163.831 55.711 C 163.814 51.205,161.513 47.576,157.227 45.295 L 155.093 44.160 127.734 44.039 L 100.375 43.917 100.189 36.785 C 100.018 30.274,99.908 29.449,98.921 27.307 C 96.887 22.890,93.379 20.445,88.747 20.214 C 87.221 20.138,85.493 20.234,84.907 20.427 M196.243 171.627 C 196.256 171.803,187.147 171.947,176.000 171.947 C 164.853 171.947,155.733 171.851,155.733 171.735 C 155.733 171.618,160.293 162.401,165.865 151.253 L 175.997 130.984 186.109 151.145 C 191.670 162.234,196.231 171.451,196.243 171.627 " stroke="none" fill-rule="evenodd"></path></svg>