<svg fill="currentColor" viewBox="0 0 256 256" xmlns="http://www.w3.org/2000/svg"><path d="M97.707 8.767 C 93.119 9.746,88.161 12.528,84.439 16.208 C 80.873 19.736,78.706 23.247,77.196 27.947 C 76.367 30.524,76.210 32.114,76.048 39.557 L 75.860 48.182 55.956 48.304 L 36.053 48.427 34.058 49.600 C 30.155 51.894,28.152 55.548,28.169 60.343 C 28.193 66.928,33.040 71.547,40.410 72.006 L 43.947 72.227 43.947 141.197 C 43.947 216.285,43.822 212.297,46.316 217.219 C 48.657 221.838,53.616 225.838,58.761 227.256 C 61.528 228.019,64.521 228.053,128.000 228.053 C 191.479 228.053,194.472 228.019,197.239 227.256 C 202.384 225.838,207.343 221.838,209.684 217.219 C 212.178 212.297,212.053 216.285,212.053 141.197 L 212.053 72.227 215.590 72.006 C 222.960 71.547,227.807 66.928,227.831 60.343 C 227.848 55.548,225.845 51.894,221.942 49.600 L 219.947 48.427 200.044 48.304 L 180.140 48.182 179.952 39.557 C 179.790 32.114,179.633 30.524,178.804 27.947 C 176.450 20.621,171.292 14.494,164.693 11.184 C 158.582 8.118,158.580 8.118,127.787 8.148 C 106.189 8.169,99.900 8.298,97.707 8.767 M153.746 32.474 C 155.641 33.337,155.947 34.599,155.947 41.556 L 155.947 48.000 128.107 48.110 L 100.267 48.220 100.216 42.136 C 100.188 38.791,100.196 35.765,100.233 35.413 C 100.356 34.251,101.204 32.947,102.129 32.499 C 103.445 31.861,152.350 31.838,153.746 32.474 M188.160 138.027 L 188.160 203.947 128.213 203.947 L 68.267 203.947 68.267 138.027 L 68.267 72.107 128.213 72.107 L 188.160 72.107 188.160 138.027 M98.682 93.430 C 97.152 94.204,95.482 95.465,94.730 96.414 C 92.064 99.780,92.160 98.302,92.164 136.267 L 92.168 170.880 93.169 173.030 C 95.059 177.087,99.703 180.053,104.168 180.053 C 108.680 180.053,113.498 176.611,115.144 172.211 C 116.044 169.807,116.053 169.423,116.053 136.168 C 116.053 98.460,116.157 99.826,113.017 96.258 C 110.580 93.489,108.445 92.485,104.533 92.267 C 101.607 92.104,101.107 92.204,98.682 93.430 M148.477 92.559 C 146.326 93.213,144.699 94.309,142.980 96.261 C 139.843 99.825,139.947 98.465,139.947 136.168 C 139.947 169.423,139.956 169.807,140.856 172.211 C 142.502 176.611,147.320 180.053,151.832 180.053 C 156.408 180.053,161.108 176.971,163.035 172.706 L 164.053 170.453 164.053 136.107 C 164.053 104.485,163.995 101.613,163.312 99.908 C 161.439 95.229,156.949 92.129,152.145 92.197 C 150.716 92.217,149.065 92.380,148.477 92.559 " stroke="none" fill-rule="evenodd"></path></svg>