<svg fill="currentColor" viewBox="0 0 256 256" xmlns="http://www.w3.org/2000/svg"><path d="M83.638 8.848 C 80.706 9.883,77.456 13.372,76.563 16.445 C 74.861 22.301,77.311 27.837,82.937 30.847 L 84.693 31.787 128.000 31.787 L 171.307 31.787 173.582 30.526 C 178.802 27.635,181.090 22.132,179.437 16.445 C 178.878 14.523,178.221 13.472,176.502 11.753 C 172.596 7.847,176.029 8.102,127.817 8.140 C 90.455 8.170,85.325 8.252,83.638 8.848 M35.732 48.820 C 31.001 50.514,28.150 54.850,28.169 60.320 C 28.193 66.929,33.029 71.546,40.410 72.006 L 43.947 72.227 43.947 141.197 C 43.947 216.285,43.822 212.297,46.316 217.219 C 48.657 221.838,53.616 225.838,58.761 227.256 C 61.528 228.019,64.521 228.053,128.000 228.053 C 191.479 228.053,194.472 228.019,197.239 227.256 C 202.384 225.838,207.343 221.838,209.684 217.219 C 212.178 212.297,212.053 216.285,212.053 141.197 L 212.053 72.227 215.590 72.006 C 222.960 71.547,227.807 66.928,227.831 60.343 C 227.848 55.548,225.845 51.894,221.942 49.600 L 219.947 48.427 128.640 48.337 C 53.105 48.262,37.057 48.346,35.732 48.820 M188.160 138.027 L 188.160 203.947 128.213 203.947 L 68.267 203.947 68.267 138.027 L 68.267 72.107 128.213 72.107 L 188.160 72.107 188.160 138.027 " stroke="none" fill-rule="evenodd"></path></svg>