<svg fill="currentColor" viewBox="0 0 256 256" xmlns="http://www.w3.org/2000/svg"><path d="M42.621 28.778 C 37.215 30.269,32.466 34.310,29.967 39.543 L 28.373 42.880 28.373 128.000 L 28.373 213.120 29.958 216.440 C 33.070 222.956,38.805 227.007,46.107 227.846 C 50.959 228.404,205.041 228.404,209.893 227.846 C 219.655 226.724,226.724 219.655,227.846 209.893 C 228.404 205.041,228.404 50.959,227.846 46.107 C 226.875 37.658,221.143 30.874,213.184 28.755 C 210.056 27.922,45.644 27.945,42.621 28.778 M203.947 98.133 L 203.947 144.213 189.905 144.213 C 174.324 144.213,172.859 144.415,168.641 147.140 C 167.526 147.860,162.199 152.872,156.803 158.278 L 146.994 168.107 128.000 168.107 L 109.006 168.107 99.197 158.278 C 93.801 152.872,88.474 147.860,87.359 147.140 C 83.141 144.415,81.676 144.213,66.095 144.213 L 52.053 144.213 52.053 98.133 L 52.053 52.053 128.000 52.053 L 203.947 52.053 203.947 98.133 M85.742 178.491 C 96.617 189.276,97.709 190.116,102.509 191.394 C 105.407 192.166,149.245 192.279,152.832 191.524 C 157.902 190.458,159.118 189.549,170.258 178.496 L 180.730 168.107 192.338 168.107 L 203.947 168.107 203.947 186.027 L 203.947 203.947 128.000 203.947 L 52.053 203.947 52.053 186.027 L 52.053 168.107 63.662 168.107 L 75.270 168.107 85.742 178.491 " stroke="none" fill-rule="evenodd"></path></svg>