<svg fill="currentColor" viewBox="0 0 256 256" xmlns="http://www.w3.org/2000/svg"><path d="M119.512 12.403 C 94.061 15.284,71.941 29.640,58.857 51.769 C 57.490 54.083,56.033 56.792,55.620 57.789 C 55.010 59.265,54.429 59.832,52.502 60.833 C 48.516 62.903,41.784 67.583,37.869 71.005 C 14.132 91.758,5.614 126.264,17.095 155.164 C 27.701 181.865,51.590 200.301,79.787 203.548 C 85.739 204.233,96.578 203.816,102.162 202.687 C 105.687 201.974,112.785 199.989,115.400 198.986 C 115.980 198.763,116.053 200.715,116.053 216.412 C 116.053 236.107,116.099 236.485,118.898 239.754 C 121.286 242.544,124.140 243.819,128.000 243.819 C 131.860 243.819,134.714 242.544,137.102 239.754 C 139.901 236.485,139.947 236.107,139.947 216.412 C 139.947 200.715,140.020 198.763,140.600 198.986 C 143.209 199.987,150.312 201.974,153.838 202.688 C 159.427 203.821,170.625 204.241,176.640 203.544 C 182.153 202.905,190.969 200.673,195.923 198.663 C 221.183 188.415,238.860 166.090,243.260 138.880 C 244.099 133.692,243.972 121.024,243.030 115.857 C 238.735 92.304,224.968 72.772,204.765 61.570 C 201.584 59.806,201.007 59.306,200.367 57.758 C 199.236 55.025,194.959 47.974,191.985 43.941 C 188.388 39.063,179.879 30.706,175.048 27.306 C 164.362 19.785,153.728 15.288,141.653 13.184 C 135.938 12.188,124.865 11.798,119.512 12.403 M137.924 36.959 C 147.615 38.554,157.705 43.462,165.130 50.193 C 171.269 55.758,174.850 60.570,178.773 68.524 C 182.266 75.608,184.671 78.132,191.144 81.506 C 203.607 88.003,212.456 97.950,216.943 110.507 C 218.544 114.986,219.204 118.090,219.719 123.563 C 221.136 138.641,215.617 153.867,204.830 164.633 C 188.622 180.810,164.536 184.595,144.196 174.160 L 140.160 172.090 140.049 153.777 L 139.938 135.464 161.319 124.799 C 176.651 117.151,183.166 113.686,184.346 112.551 C 189.096 107.983,189.383 100.841,185.008 96.076 C 182.513 93.358,179.750 92.169,175.913 92.164 L 172.839 92.160 156.598 100.267 C 147.665 104.725,140.264 108.373,140.152 108.373 C 140.039 108.373,139.947 103.320,139.947 97.143 C 139.947 84.617,139.734 83.321,137.197 80.356 C 136.414 79.441,134.744 78.129,133.486 77.439 C 131.531 76.367,130.737 76.185,128.000 76.185 C 125.263 76.185,124.469 76.367,122.514 77.439 C 121.256 78.129,119.586 79.441,118.803 80.356 C 116.036 83.589,116.053 83.405,116.053 109.304 L 116.053 132.696 99.733 124.510 L 83.413 116.325 80.213 116.303 C 77.661 116.286,76.625 116.483,75.093 117.280 C 70.738 119.546,68.670 122.658,68.359 127.419 C 68.190 130.019,68.316 130.804,69.221 132.781 C 71.153 137.000,71.914 137.481,94.838 148.960 L 116.076 159.594 115.958 165.843 L 115.840 172.091 111.804 174.161 C 91.466 184.591,67.245 180.782,51.144 164.619 C 43.767 157.214,38.651 147.419,36.832 137.213 C 35.927 132.139,35.945 123.396,36.871 118.496 C 39.897 102.480,49.844 89.332,64.856 81.506 C 71.329 78.132,73.734 75.608,77.227 68.524 C 79.983 62.936,83.167 58.076,86.335 54.625 C 99.751 40.006,118.152 33.705,137.924 36.959 " stroke="none" fill-rule="evenodd"></path></svg>