<svg fill="currentColor" viewBox="0 0 256 256" xmlns="http://www.w3.org/2000/svg"><path d="M18.880 52.710 C 12.480 54.440,7.481 59.080,4.990 65.601 L 4.053 68.053 4.053 127.787 L 4.053 187.520 5.024 190.293 C 6.970 195.849,11.483 200.557,16.928 202.712 C 19.195 203.608,20.228 203.709,28.668 203.856 L 37.923 204.018 39.836 207.929 C 43.802 216.042,50.992 222.590,59.307 225.663 C 68.581 229.091,79.369 228.501,88.152 224.085 C 95.513 220.383,101.992 213.546,104.989 206.315 L 105.970 203.947 128.000 203.947 L 150.030 203.947 151.011 206.315 C 152.301 209.428,155.569 214.320,158.054 216.861 C 163.056 221.974,169.173 225.431,176.016 227.012 C 181.889 228.369,189.340 228.070,194.845 226.256 C 204.407 223.104,211.924 216.644,216.171 207.929 L 218.077 204.018 227.332 203.856 C 235.772 203.709,236.805 203.608,239.072 202.712 C 244.520 200.556,249.069 195.814,250.984 190.293 C 251.947 187.520,251.947 187.515,252.072 154.240 C 252.154 132.671,252.042 120.059,251.756 118.400 C 251.342 115.999,238.401 82.908,236.168 78.541 C 233.956 74.215,229.521 70.540,224.701 69.040 C 222.342 68.306,220.618 68.236,205.197 68.257 L 188.281 68.279 188.054 64.640 C 187.694 58.869,185.764 55.664,181.170 53.206 L 179.413 52.267 100.267 52.186 C 33.079 52.117,20.782 52.196,18.880 52.710 M163.840 96.000 L 163.840 116.053 96.000 116.053 L 28.160 116.053 28.160 96.000 L 28.160 75.947 96.000 75.947 L 163.840 75.947 163.840 96.000 M219.097 100.160 L 222.217 107.947 205.188 107.947 L 188.160 107.947 188.160 100.048 L 188.160 92.148 202.068 92.261 L 215.977 92.373 219.097 100.160 M227.840 156.160 L 227.840 180.053 222.954 180.053 L 218.068 180.053 216.405 176.533 C 211.641 166.444,201.889 158.840,191.147 156.840 L 188.373 156.323 188.260 144.295 L 188.147 132.267 207.993 132.267 L 227.840 132.267 227.840 156.160 M163.840 151.253 C 163.840 158.588,163.688 162.560,163.409 162.560 C 163.171 162.560,161.413 164.048,159.501 165.867 C 155.795 169.391,152.612 173.823,151.011 177.685 L 150.030 180.053 128.000 180.053 L 105.970 180.053 104.989 177.685 C 101.125 168.362,91.920 160.302,81.847 157.420 C 77.789 156.260,70.622 155.870,66.249 156.573 C 54.651 158.436,44.579 165.978,39.595 176.533 L 37.932 180.053 33.046 180.053 L 28.160 180.053 28.160 160.000 L 28.160 139.947 96.000 139.947 L 163.840 139.947 163.840 151.253 M77.491 181.463 C 79.866 182.668,81.450 184.309,82.878 187.044 C 83.575 188.378,83.798 189.568,83.805 192.000 C 83.813 194.748,83.637 195.523,82.561 197.486 C 80.098 201.978,76.012 204.240,71.076 203.844 C 61.056 203.039,56.508 190.992,63.490 183.752 C 66.214 180.927,68.546 180.015,72.533 180.215 C 74.465 180.312,75.970 180.690,77.491 181.463 M189.227 181.233 C 193.307 183.340,195.821 187.445,195.821 192.000 C 195.821 198.324,191.207 203.339,184.924 203.844 C 179.988 204.240,175.902 201.978,173.439 197.486 C 172.363 195.523,172.187 194.748,172.195 192.000 C 172.206 188.560,172.928 186.608,175.180 183.932 C 176.278 182.627,178.669 181.163,180.907 180.427 C 182.731 179.826,187.373 180.276,189.227 181.233 " stroke="none" fill-rule="evenodd"></path></svg>