<svg fill="currentColor" viewBox="0 0 256 256" xmlns="http://www.w3.org/2000/svg"><path d="M122.880 29.253 C 120.891 30.172,117.269 33.606,99.146 51.755 C 79.038 71.892,77.704 73.321,76.853 75.643 C 75.715 78.745,75.705 81.241,76.819 84.218 C 78.539 88.817,82.862 91.885,87.680 91.925 C 92.668 91.967,93.354 91.488,105.272 79.644 L 116.037 68.945 116.152 112.232 L 116.267 155.520 117.189 157.227 C 121.130 164.519,130.427 166.120,136.249 160.510 C 137.149 159.643,138.301 158.165,138.809 157.227 L 139.733 155.520 139.848 112.232 L 139.963 68.945 150.728 79.644 C 162.646 91.488,163.332 91.967,168.320 91.925 C 173.138 91.885,177.461 88.817,179.181 84.218 C 180.296 81.240,180.285 78.744,179.146 75.643 C 178.293 73.322,176.950 71.882,156.853 51.752 C 133.037 27.898,133.368 28.168,128.000 28.168 C 125.929 28.168,124.632 28.443,122.880 29.253 M37.333 140.323 C 33.562 141.317,30.132 144.285,28.847 147.668 C 28.198 149.374,28.144 152.464,28.253 181.333 L 28.373 213.120 29.958 216.440 C 33.070 222.956,38.805 227.007,46.107 227.846 C 48.305 228.099,80.185 228.260,128.000 228.260 C 175.815 228.260,207.695 228.099,209.893 227.846 C 219.800 226.707,226.752 219.644,227.876 209.574 C 228.143 207.185,228.262 194.789,228.183 177.609 L 228.053 149.547 227.071 147.413 C 224.119 140.998,216.866 138.320,210.675 141.360 C 207.803 142.771,205.962 144.837,204.791 147.963 C 203.982 150.123,203.947 151.355,203.947 177.083 L 203.947 203.947 128.000 203.947 L 52.053 203.947 52.053 177.083 C 52.053 151.355,52.018 150.123,51.209 147.963 C 50.055 144.882,48.203 142.773,45.481 141.441 C 43.045 140.249,39.472 139.759,37.333 140.323 " stroke="none" fill-rule="evenodd"></path></svg>