<svg fill="currentColor" viewBox="0 0 256 256" xmlns="http://www.w3.org/2000/svg"><path d="M125.155 12.331 C 124.412 12.522,122.972 13.172,121.955 13.776 C 120.938 14.379,108.755 26.263,94.881 40.183 C 67.036 68.121,68.012 66.950,68.091 72.320 C 68.163 77.185,71.194 81.465,75.782 83.181 C 78.763 84.297,81.260 84.285,84.357 83.141 C 86.637 82.300,87.947 81.115,101.440 67.694 L 116.053 53.159 116.053 91.642 C 116.053 128.927,116.080 130.193,116.896 132.342 C 118.579 136.771,123.215 139.947,128.000 139.947 C 132.785 139.947,137.421 136.771,139.104 132.342 C 139.920 130.193,139.947 128.927,139.947 91.642 L 139.947 53.159 154.560 67.694 C 168.053 81.115,169.363 82.300,171.643 83.141 C 174.740 84.285,177.237 84.297,180.218 83.181 C 184.916 81.424,187.875 77.157,187.899 72.107 C 187.925 66.807,188.689 67.715,160.518 39.595 C 143.427 22.536,134.445 13.867,133.232 13.263 C 131.220 12.260,127.227 11.799,125.155 12.331 M26.993 116.711 C 21.729 118.129,16.615 122.138,14.338 126.632 C 11.903 131.436,11.912 131.277,12.042 169.291 C 12.160 203.993,12.165 204.172,13.095 206.606 C 15.623 213.226,21.252 218.094,28.045 219.533 C 32.379 220.452,223.621 220.452,227.955 219.533 C 234.748 218.094,240.377 213.226,242.905 206.606 C 243.834 204.172,243.839 203.985,243.962 169.387 C 244.069 138.984,244.000 134.231,243.411 131.573 C 241.825 124.405,236.154 118.599,228.892 116.707 C 225.091 115.717,179.012 115.733,176.100 116.725 C 173.663 117.556,170.514 120.269,169.267 122.612 C 168.007 124.980,167.923 130.863,169.117 133.120 C 170.216 135.197,172.693 137.712,174.720 138.809 C 176.398 139.718,176.796 139.735,198.296 139.855 L 220.166 139.976 220.056 168.015 L 219.947 196.053 128.107 196.161 L 36.267 196.269 36.267 168.108 L 36.267 139.947 57.157 139.947 C 76.970 139.947,78.165 139.903,80.318 139.097 C 82.766 138.182,85.546 135.651,86.883 133.120 C 87.473 132.005,87.672 130.708,87.671 128.000 C 87.669 123.667,86.855 121.783,83.834 119.124 C 80.269 115.986,80.908 116.050,53.577 116.081 C 34.033 116.104,28.786 116.228,26.993 116.711 M185.168 152.303 C 182.081 152.855,179.162 154.455,176.603 156.998 C 173.379 160.200,172.199 163.170,172.185 168.107 C 172.177 171.302,172.336 172.075,173.527 174.603 C 175.148 178.044,177.875 180.830,181.241 182.482 C 183.420 183.552,184.135 183.680,187.947 183.680 C 191.686 183.680,192.516 183.538,194.661 182.533 C 197.795 181.064,201.127 177.727,202.574 174.608 C 203.548 172.508,203.711 171.583,203.721 168.107 C 203.732 164.520,203.591 163.745,202.496 161.373 C 199.520 154.929,192.127 151.059,185.168 152.303 " stroke="none" fill-rule="evenodd"></path></svg>