<svg fill="currentColor" viewBox="0 0 256 256" xmlns="http://www.w3.org/2000/svg"><path d="M119.680 20.311 C 101.238 22.205,86.726 26.942,71.680 35.979 C 62.575 41.448,50.552 52.021,43.940 60.373 C 31.744 75.779,23.758 94.626,21.069 114.347 C 20.097 121.477,20.096 134.077,21.066 141.227 C 24.493 166.478,35.130 187.682,53.175 205.235 C 79.033 230.387,114.954 240.783,150.400 233.375 C 167.603 229.779,184.837 221.290,198.187 209.836 C 219.412 191.625,232.753 165.996,235.551 138.052 C 236.179 131.775,235.845 118.354,234.915 112.492 C 234.126 107.519,232.690 104.546,230.187 102.702 C 227.561 100.768,225.823 100.191,222.618 100.191 C 217.386 100.191,212.960 103.289,211.375 108.062 C 210.625 110.321,210.634 110.764,211.656 122.097 C 213.228 139.530,208.034 159.410,198.017 174.293 C 193.894 180.420,194.307 180.100,192.782 178.347 C 185.418 169.886,177.254 163.195,168.228 158.222 L 165.150 156.526 167.421 153.848 C 175.356 144.495,179.340 134.338,179.919 121.988 C 180.868 101.732,169.606 82.679,151.253 73.494 C 136.996 66.359,118.805 66.368,104.696 73.518 C 100.724 75.530,94.961 79.691,91.774 82.846 C 76.568 97.902,71.993 119.592,79.835 139.446 C 81.596 143.905,84.290 148.409,87.851 152.848 L 90.834 156.565 86.583 158.951 C 79.967 162.663,74.126 167.236,67.780 173.668 L 61.959 179.567 61.105 178.637 C 59.794 177.209,55.643 170.669,53.550 166.731 C 43.223 147.305,41.253 123.120,48.258 101.783 C 54.385 83.122,67.049 67.014,83.746 56.644 C 98.580 47.431,117.281 42.845,133.903 44.344 C 145.236 45.366,145.679 45.375,147.938 44.625 C 156.076 41.922,158.639 31.094,152.576 25.031 C 150.267 22.722,148.108 21.810,143.248 21.092 C 139.055 20.472,123.222 19.948,119.680 20.311 M196.691 20.426 C 193.344 21.524,190.658 23.905,189.166 27.093 C 188.242 29.070,188.168 29.769,188.164 36.587 L 188.160 43.947 181.653 43.957 C 178.075 43.963,174.283 44.163,173.227 44.401 C 169.016 45.353,165.165 49.316,164.247 53.641 C 163.046 59.302,166.831 65.772,172.325 67.450 C 173.173 67.708,177.068 68.022,180.980 68.147 L 188.094 68.374 188.234 76.107 C 188.370 83.642,188.403 83.891,189.538 85.822 C 191.845 89.745,195.592 91.894,200.107 91.884 C 203.619 91.875,206.185 90.702,208.795 87.911 C 211.524 84.994,212.053 82.872,212.053 74.857 L 212.053 68.376 219.200 68.183 C 225.406 68.016,226.628 67.865,228.480 67.041 C 232.783 65.125,235.483 61.416,235.844 56.924 C 236.240 51.992,233.986 47.917,229.486 45.428 C 227.233 44.182,227.091 44.161,219.661 44.014 L 212.121 43.865 211.978 36.332 C 211.841 29.144,211.783 28.703,210.704 26.667 C 208.566 22.634,205.111 20.442,200.533 20.214 C 199.008 20.138,197.279 20.233,196.691 20.426 M135.016 93.007 C 139.941 94.267,143.878 96.535,147.685 100.304 C 150.363 102.957,151.302 104.268,152.881 107.558 C 155.196 112.381,155.733 114.772,155.733 120.243 C 155.733 128.751,152.380 135.905,145.734 141.577 C 141.460 145.225,133.715 148.053,128.000 148.053 C 122.285 148.053,114.540 145.225,110.266 141.577 C 103.620 135.905,100.267 128.751,100.267 120.243 C 100.267 114.772,100.804 112.381,103.119 107.558 C 108.735 95.855,122.177 89.723,135.016 93.007 M134.310 172.397 C 146.693 173.742,157.317 178.366,167.324 186.767 C 170.220 189.198,176.213 195.721,176.213 196.442 C 176.213 197.016,168.756 201.535,164.170 203.740 C 155.629 207.847,145.692 210.638,136.168 211.605 C 121.229 213.122,105.562 210.343,91.830 203.740 C 87.244 201.535,79.787 197.016,79.787 196.442 C 79.787 196.293,81.051 194.673,82.596 192.842 C 94.964 178.186,114.931 170.292,134.310 172.397 " stroke="none" fill-rule="evenodd"></path></svg>