<svg fill="currentColor" viewBox="0 0 256 256" xmlns="http://www.w3.org/2000/svg"><path d="M99.200 28.429 C 84.030 30.701,71.148 36.556,60.154 46.175 C 43.717 60.558,34.248 83.934,36.212 105.280 C 37.958 124.243,45.334 139.570,58.943 152.510 L 63.156 156.516 56.644 159.677 C 45.472 165.101,35.886 171.565,26.668 179.888 C 21.192 184.833,14.392 192.392,13.178 194.886 C 9.254 202.940,15.943 212.704,24.847 211.923 C 28.826 211.574,30.488 210.461,36.447 204.154 C 45.983 194.060,55.039 187.259,66.238 181.781 C 80.088 175.006,92.010 172.279,107.947 172.242 C 124.434 172.204,137.050 175.128,151.083 182.241 C 161.400 187.470,168.835 193.127,178.411 203.035 C 186.133 211.023,187.357 211.816,192.000 211.830 C 194.760 211.839,195.514 211.666,197.486 210.574 C 201.987 208.081,204.240 204.007,203.844 199.076 C 203.571 195.681,202.598 193.850,198.718 189.433 C 188.172 177.426,175.669 167.886,160.625 160.368 L 152.931 156.522 158.723 150.688 C 168.788 140.550,174.232 131.042,177.701 117.547 C 187.050 81.167,166.496 43.618,130.671 31.632 C 123.144 29.113,119.282 28.520,109.440 28.372 C 104.512 28.298,99.904 28.324,99.200 28.429 M114.588 52.511 C 134.824 55.325,151.291 70.970,155.088 90.987 C 155.907 95.304,155.928 104.723,155.127 108.906 C 149.823 136.628,121.796 153.906,94.816 146.087 C 77.134 140.963,64.149 126.499,60.768 108.160 C 59.795 102.886,60.123 93.429,61.455 88.320 C 65.761 71.803,78.547 58.554,94.612 53.963 C 101.129 52.100,108.028 51.599,114.588 52.511 M214.697 105.412 C 210.431 107.544,208.405 110.865,207.916 116.528 L 207.673 119.349 205.703 118.734 C 197.309 116.116,189.211 121.632,189.282 129.920 C 189.333 135.951,192.785 139.883,199.998 142.128 C 200.347 142.237,199.953 143.142,198.852 144.764 C 196.643 148.018,196.141 149.684,196.339 153.106 C 196.558 156.879,197.898 159.584,200.614 161.730 C 203.004 163.619,205.272 164.365,208.515 164.326 C 212.558 164.278,215.899 162.198,219.113 157.731 L 219.978 156.529 221.963 159.084 C 224.275 162.062,226.886 163.741,229.964 164.227 C 236.047 165.189,241.694 161.496,243.467 155.397 C 244.443 152.040,243.826 148.861,241.510 145.305 C 240.562 143.850,239.787 142.540,239.787 142.392 C 239.787 142.244,240.891 141.779,242.240 141.359 C 245.824 140.241,249.265 136.812,250.255 133.369 C 251.933 127.539,249.240 121.623,243.729 119.033 C 241.353 117.916,237.498 117.789,234.400 118.727 L 232.214 119.389 232.012 116.334 C 231.516 108.844,226.757 104.107,219.725 104.107 C 217.884 104.107,216.688 104.417,214.697 105.412 " stroke="none" fill-rule="evenodd"></path></svg>