<svg fill="currentColor" viewBox="0 0 256 256" xmlns="http://www.w3.org/2000/svg"><path d="M99.200 28.429 C 84.030 30.701,71.148 36.556,60.154 46.175 C 43.717 60.558,34.248 83.934,36.212 105.280 C 37.958 124.245,45.334 139.570,58.945 152.512 L 63.161 156.521 57.074 159.462 C 45.767 164.924,35.897 171.555,26.668 179.888 C 21.192 184.833,14.392 192.392,13.178 194.886 C 9.254 202.940,15.943 212.704,24.847 211.923 C 28.826 211.574,30.488 210.461,36.447 204.154 C 46.391 193.628,55.064 187.143,66.719 181.521 C 80.304 174.967,92.250 172.279,107.947 172.242 C 124.434 172.204,137.050 175.128,151.083 182.241 C 161.400 187.470,168.835 193.127,178.411 203.035 C 186.133 211.023,187.357 211.816,192.000 211.830 C 194.760 211.839,195.514 211.666,197.486 210.574 C 201.987 208.081,204.240 204.007,203.844 199.076 C 203.571 195.681,202.598 193.850,198.718 189.433 C 188.172 177.426,175.669 167.886,160.625 160.368 L 152.931 156.522 158.723 150.688 C 168.788 140.550,174.232 131.042,177.701 117.547 C 187.050 81.167,166.496 43.618,130.671 31.632 C 123.144 29.113,119.282 28.520,109.440 28.372 C 104.512 28.298,99.904 28.324,99.200 28.429 M114.588 52.511 C 134.824 55.325,151.291 70.970,155.088 90.987 C 155.907 95.304,155.928 104.723,155.127 108.906 C 149.823 136.628,121.796 153.906,94.816 146.087 C 77.134 140.963,64.149 126.499,60.768 108.160 C 59.795 102.886,60.123 93.429,61.455 88.320 C 65.761 71.803,78.547 58.554,94.612 53.963 C 101.129 52.100,108.028 51.599,114.588 52.511 M199.040 125.166 C 192.755 128.106,190.249 135.617,193.537 141.658 C 194.847 144.065,196.299 145.460,198.990 146.900 C 200.739 147.836,200.851 147.840,224.000 147.840 C 247.149 147.840,247.261 147.836,249.010 146.900 C 251.701 145.460,253.153 144.065,254.463 141.658 C 257.751 135.617,255.245 128.106,248.960 125.166 L 246.827 124.168 224.000 124.168 L 201.173 124.168 199.040 125.166 " stroke="none" fill-rule="evenodd"></path></svg>