<svg fill="currentColor" viewBox="0 0 256 256" xmlns="http://www.w3.org/2000/svg"><path d="M117.959 20.473 C 109.003 21.420,98.321 23.851,90.599 26.701 C 80.347 30.485,68.857 37.058,59.946 44.238 C 55.318 47.967,45.652 57.693,43.623 60.663 C 39.616 66.528,40.898 73.934,46.583 77.752 C 48.893 79.304,51.282 79.914,54.213 79.702 C 57.955 79.431,60.255 77.953,64.451 73.118 C 76.452 59.291,93.133 49.535,111.032 45.872 C 140.920 39.756,171.935 50.279,191.495 73.173 C 201.982 85.448,208.617 99.945,210.955 115.696 C 211.693 120.662,211.796 122.611,211.307 122.360 C 207.863 120.596,206.636 120.245,203.906 120.245 C 198.826 120.245,194.632 123.130,192.872 127.835 C 191.755 130.820,191.768 133.317,192.917 136.411 C 193.745 138.642,194.844 139.900,204.330 149.475 C 210.103 155.302,215.691 160.701,216.747 161.471 C 220.520 164.224,224.850 164.681,229.047 162.769 C 231.066 161.850,233.321 159.811,242.650 150.472 C 255.143 137.966,255.712 137.174,255.744 132.267 C 255.773 127.670,253.700 124.093,249.600 121.669 C 247.925 120.678,247.216 120.533,244.038 120.533 C 240.926 120.533,240.076 120.699,238.201 121.671 L 236.007 122.808 235.736 119.964 C 233.574 97.302,226.047 77.967,212.869 61.227 C 209.017 56.333,201.018 48.255,196.053 44.246 C 187.181 37.080,175.664 30.485,165.361 26.670 C 159.866 24.635,149.573 22.041,143.360 21.125 C 137.741 20.296,123.171 19.922,117.959 20.473 M122.773 68.304 C 118.626 68.716,113.493 69.926,109.487 71.434 C 98.160 75.697,87.618 85.063,82.057 95.802 C 72.308 114.630,74.558 136.342,87.982 152.972 L 90.843 156.517 86.587 158.927 C 79.898 162.715,74.100 167.262,67.740 173.708 L 61.880 179.647 59.907 176.970 C 54.789 170.027,49.740 159.648,47.343 151.140 C 45.390 144.207,43.714 133.137,44.693 133.640 C 48.266 135.470,49.493 135.837,52.053 135.837 C 57.088 135.837,61.367 132.873,63.128 128.165 C 64.243 125.185,64.232 122.689,63.091 119.589 C 62.260 117.335,61.194 116.130,50.824 105.729 C 38.002 92.869,37.029 92.168,32.000 92.168 C 26.997 92.168,25.982 92.895,13.354 105.518 C 0.859 118.009,0.288 118.803,0.256 123.733 C 0.227 128.330,2.300 131.907,6.400 134.331 C 8.096 135.334,8.768 135.467,12.160 135.467 C 15.595 135.467,16.214 135.341,18.027 134.275 C 19.820 133.221,20.053 133.172,20.053 133.851 C 20.053 135.832,21.397 145.726,22.184 149.547 C 28.321 179.318,46.860 205.367,72.960 220.894 C 85.144 228.142,98.770 232.863,114.133 235.159 C 119.964 236.031,137.173 235.903,143.273 234.942 C 166.798 231.238,186.662 221.401,203.238 205.244 C 212.097 196.609,214.620 192.896,214.673 188.415 C 214.723 184.203,212.832 180.542,209.425 178.253 C 205.218 175.428,200.369 175.513,195.946 178.488 L 193.875 179.882 192.404 178.016 C 189.779 174.686,181.168 166.684,177.132 163.824 C 174.967 162.290,171.390 160.015,169.182 158.769 L 165.168 156.504 167.431 153.837 C 175.408 144.434,179.400 134.254,179.904 122.027 C 181.207 90.441,154.326 65.163,122.773 68.304 M135.016 93.007 C 139.941 94.267,143.878 96.535,147.685 100.304 C 150.363 102.957,151.302 104.268,152.881 107.558 C 155.196 112.381,155.733 114.772,155.733 120.243 C 155.733 128.751,152.380 135.905,145.734 141.577 C 141.460 145.225,133.715 148.053,128.000 148.053 C 122.285 148.053,114.540 145.225,110.266 141.577 C 103.620 135.905,100.267 128.751,100.267 120.243 C 100.267 114.772,100.804 112.381,103.119 107.558 C 108.735 95.855,122.177 89.723,135.016 93.007 M134.310 172.397 C 146.693 173.742,157.317 178.366,167.324 186.767 C 170.421 189.367,176.213 195.738,176.213 196.545 C 176.213 197.168,169.485 201.194,164.267 203.694 C 141.195 214.749,114.761 214.765,91.830 203.740 C 87.244 201.535,79.787 197.016,79.787 196.442 C 79.787 196.293,81.051 194.673,82.596 192.842 C 94.964 178.186,114.931 170.292,134.310 172.397 " stroke="none" fill-rule="evenodd"></path></svg>