<svg fill="currentColor" viewBox="0 0 256 256" xmlns="http://www.w3.org/2000/svg"><path d="M34.347 36.863 C 27.783 38.952,22.888 43.818,20.911 50.221 C 20.067 52.954,20.053 54.093,20.053 123.914 C 20.053 201.575,19.891 196.431,22.497 201.577 C 23.886 204.320,27.833 208.244,30.628 209.660 C 34.284 211.513,37.486 212.040,45.120 212.047 L 52.053 212.053 52.053 219.077 C 52.053 227.420,52.610 229.520,55.596 232.451 C 60.281 237.049,67.719 237.049,72.404 232.451 C 75.390 229.520,75.947 227.420,75.947 219.077 L 75.947 212.053 128.000 212.053 L 180.053 212.053 180.053 219.077 C 180.053 227.420,180.610 229.520,183.596 232.451 C 188.302 237.069,195.893 237.048,200.451 232.404 C 203.409 229.390,203.947 227.343,203.947 219.089 L 203.947 212.053 211.093 212.029 C 219.347 212.000,222.423 211.400,226.321 209.056 C 230.644 206.457,233.709 202.374,235.259 197.149 C 235.879 195.059,235.947 187.911,235.947 124.172 C 235.947 62.066,235.867 53.209,235.293 51.002 C 233.790 45.231,230.006 40.672,224.564 38.074 L 221.227 36.480 128.640 36.400 C 54.680 36.336,35.710 36.429,34.347 36.863 M212.053 88.107 L 212.053 116.053 201.231 116.053 L 190.408 116.053 189.442 113.387 C 182.712 94.802,165.064 83.080,145.493 84.195 C 134.285 84.834,124.461 89.313,116.644 97.348 C 110.980 103.170,107.495 109.276,105.280 117.258 C 104.512 120.025,104.371 121.691,104.371 128.000 C 104.371 136.228,104.839 138.773,107.541 145.265 C 111.457 154.672,120.401 163.821,129.882 168.120 C 139.330 172.404,151.067 173.089,161.057 169.939 C 174.314 165.758,184.672 155.786,189.442 142.613 L 190.408 139.947 201.231 139.947 L 212.053 139.947 212.053 164.053 L 212.053 188.160 128.000 188.160 L 43.947 188.160 43.947 124.160 L 43.947 60.160 128.000 60.160 L 212.053 60.160 212.053 88.107 M151.688 108.411 C 161.981 110.314,169.269 120.553,167.680 130.880 C 166.719 137.121,162.383 143.140,156.903 145.837 C 144.769 151.811,130.599 144.496,128.346 131.093 C 126.645 120.972,133.510 110.757,143.467 108.594 C 146.822 107.865,148.529 107.827,151.688 108.411 " stroke="none" fill-rule="evenodd"></path></svg>