<svg fill="currentColor" viewBox="0 0 256 256" xmlns="http://www.w3.org/2000/svg"><path d="M34.347 36.863 C 27.783 38.952,22.888 43.818,20.911 50.221 C 20.071 52.940,20.053 54.117,20.053 107.914 C 20.053 167.965,19.915 164.478,22.497 169.577 C 23.886 172.320,27.833 176.244,30.628 177.660 C 35.592 180.176,30.086 180.042,128.213 180.022 C 211.904 180.005,218.438 179.953,221.048 179.271 C 227.963 177.466,233.127 172.334,235.259 165.149 C 235.876 163.071,235.947 157.197,235.947 108.172 C 235.947 60.441,235.864 53.194,235.293 51.002 C 233.790 45.231,230.006 40.672,224.564 38.074 L 221.227 36.480 128.640 36.400 C 54.680 36.336,35.710 36.429,34.347 36.863 M212.053 108.160 L 212.053 156.160 128.000 156.160 L 43.947 156.160 43.947 108.160 L 43.947 60.160 128.000 60.160 L 212.053 60.160 212.053 108.160 M113.280 76.347 C 110.980 76.909,108.494 78.443,106.940 80.259 C 104.045 83.641,104.064 83.442,104.199 108.847 C 104.335 134.447,104.124 132.766,107.659 136.431 C 110.661 139.543,115.751 140.768,119.776 139.348 C 120.708 139.019,128.941 134.104,138.069 128.426 C 149.867 121.087,155.249 117.492,156.682 115.993 C 161.002 111.474,161.060 104.377,156.813 100.034 C 154.713 97.888,122.695 77.791,119.680 76.727 C 117.448 75.940,115.435 75.820,113.280 76.347 M27.372 196.920 C 21.400 199.514,18.395 206.875,20.998 212.537 C 22.478 215.758,23.983 217.372,26.793 218.752 L 29.227 219.947 128.000 219.947 L 226.773 219.947 229.207 218.752 C 231.805 217.476,233.289 215.991,234.786 213.170 C 235.518 211.791,235.720 210.679,235.726 208.000 C 235.732 205.011,235.577 204.304,234.475 202.315 C 233.126 199.881,230.977 197.922,228.531 196.901 C 226.262 195.953,29.557 195.972,27.372 196.920 " stroke="none" fill-rule="evenodd"></path></svg>