<svg fill="currentColor" viewBox="0 0 256 256" xmlns="http://www.w3.org/2000/svg"><path d="M29.155 44.354 C 27.083 44.851,24.099 46.759,22.657 48.509 C 19.876 51.883,20.053 46.456,20.053 128.000 C 20.053 210.222,19.838 204.179,22.898 207.754 C 23.733 208.729,25.402 210.048,26.608 210.684 L 28.800 211.840 128.000 211.840 L 227.200 211.840 229.392 210.684 C 230.598 210.048,232.267 208.729,233.102 207.754 C 236.162 204.179,235.947 210.222,235.947 128.000 C 235.947 46.012,236.147 51.803,233.197 48.356 C 232.414 47.441,230.744 46.123,229.486 45.426 L 227.200 44.160 128.853 44.095 C 74.763 44.059,29.898 44.175,29.155 44.354 M116.053 80.213 L 116.053 92.160 80.000 92.160 L 43.947 92.160 43.947 80.213 L 43.947 68.267 80.000 68.267 L 116.053 68.267 116.053 80.213 M212.053 80.213 L 212.053 92.160 176.000 92.160 L 139.947 92.160 139.947 80.213 L 139.947 68.267 176.000 68.267 L 212.053 68.267 212.053 80.213 M67.840 128.000 L 67.840 139.947 55.893 139.947 L 43.947 139.947 43.947 128.000 L 43.947 116.053 55.893 116.053 L 67.840 116.053 67.840 128.000 M163.840 128.000 L 163.840 139.947 128.000 139.947 L 92.160 139.947 92.160 128.000 L 92.160 116.053 128.000 116.053 L 163.840 116.053 163.840 128.000 M212.053 128.000 L 212.053 139.947 200.107 139.947 L 188.160 139.947 188.160 128.000 L 188.160 116.053 200.107 116.053 L 212.053 116.053 212.053 128.000 M116.053 176.213 L 116.053 188.160 80.000 188.160 L 43.947 188.160 43.947 176.213 L 43.947 164.267 80.000 164.267 L 116.053 164.267 116.053 176.213 M212.053 176.213 L 212.053 188.160 176.000 188.160 L 139.947 188.160 139.947 176.213 L 139.947 164.267 176.000 164.267 L 212.053 164.267 212.053 176.213 " stroke="none" fill-rule="evenodd"></path></svg>