<svg fill="currentColor" viewBox="0 0 256 256" xmlns="http://www.w3.org/2000/svg"><path d="M122.004 20.691 C 118.958 21.298,114.546 23.149,111.944 24.912 C 109.341 26.675,105.551 30.617,103.733 33.454 C 100.877 37.910,15.724 186.065,14.432 188.826 C 9.567 199.222,12.438 212.814,21.115 220.464 C 26.185 224.934,31.216 227.113,38.165 227.845 C 43.342 228.391,212.658 228.391,217.835 227.845 C 225.275 227.061,230.593 224.622,235.522 219.733 C 238.918 216.365,241.060 212.937,242.560 208.466 C 244.725 202.019,244.362 194.795,241.574 188.840 C 240.285 186.084,155.107 37.884,152.267 33.454 C 150.448 30.617,146.659 26.675,144.056 24.912 C 137.947 20.774,129.601 19.176,122.004 20.691 M130.751 44.967 C 131.233 45.286,151.401 79.891,175.570 121.867 C 210.800 183.054,219.542 198.532,219.661 199.931 C 219.789 201.453,219.637 201.819,218.458 202.811 L 217.108 203.947 128.000 203.947 L 38.892 203.947 37.579 202.842 C 34.895 200.583,32.238 205.603,80.350 122.022 C 119.467 54.069,124.599 45.354,125.897 44.677 C 127.467 43.858,129.239 43.963,130.751 44.967 M123.307 93.046 C 120.970 94.101,118.434 96.477,117.191 98.773 C 116.289 100.439,116.264 100.934,116.143 119.199 C 116.005 140.119,116.037 140.412,118.889 143.744 C 121.286 146.544,124.136 147.819,128.000 147.819 C 131.864 147.819,134.714 146.544,137.111 143.744 C 139.963 140.412,139.995 140.119,139.857 119.199 C 139.736 100.934,139.711 100.439,138.809 98.773 C 136.571 94.638,132.539 92.179,128.000 92.179 C 126.126 92.179,124.604 92.460,123.307 93.046 M123.747 160.683 C 117.805 162.280,113.411 167.155,112.249 173.441 C 110.987 180.271,114.942 187.550,121.600 190.650 C 123.600 191.581,124.546 191.743,128.000 191.743 C 131.454 191.743,132.400 191.581,134.400 190.650 C 141.058 187.550,145.013 180.271,143.751 173.441 C 142.571 167.059,138.177 162.253,132.066 160.661 C 128.970 159.855,126.809 159.860,123.747 160.683 " stroke="none" fill-rule="evenodd"></path></svg>