<svg fill="currentColor" viewBox="0 0 256 256" xmlns="http://www.w3.org/2000/svg"><path d="M124.160 12.385 C 123.104 12.605,120.800 13.481,119.040 14.332 C 115.927 15.838,114.482 17.239,65.876 65.860 C 18.427 113.324,15.835 115.994,14.399 118.904 C 11.389 125.003,11.386 130.978,14.392 137.096 C 15.825 140.013,18.307 142.569,66.082 190.322 C 120.141 244.356,117.414 241.835,123.503 243.400 C 128.353 244.646,133.912 243.781,138.355 241.088 C 140.048 240.062,155.328 225.042,190.644 189.686 C 237.355 142.923,240.625 139.554,241.861 136.920 C 244.559 131.167,244.623 125.192,242.050 119.279 C 241.006 116.879,237.350 113.109,191.183 66.832 C 158.783 34.355,140.558 16.390,138.912 15.306 C 137.521 14.391,135.409 13.351,134.218 12.996 C 131.440 12.167,126.619 11.874,124.160 12.385 M173.227 82.987 L 218.239 128.001 173.119 173.120 L 128.000 218.239 82.881 173.120 L 37.761 128.001 82.773 82.987 C 107.530 58.229,127.882 37.973,128.000 37.973 C 128.118 37.973,148.470 58.229,173.227 82.987 M123.372 68.920 C 120.982 69.958,118.848 71.927,117.525 74.315 L 116.267 76.587 116.267 106.027 L 116.267 135.467 117.594 137.813 C 119.245 140.731,121.895 142.699,125.373 143.590 C 127.745 144.197,128.248 144.199,130.553 143.609 C 131.957 143.249,133.875 142.446,134.815 141.824 C 136.776 140.526,138.906 137.533,139.537 135.190 C 139.815 134.157,139.928 123.395,139.852 105.084 L 139.733 76.587 138.475 74.315 C 137.126 71.881,134.977 69.922,132.531 68.901 C 130.586 68.088,125.263 68.099,123.372 68.920 M123.733 156.536 C 121.125 157.393,118.231 159.224,116.411 161.170 C 113.930 163.823,113.158 165.317,112.406 168.923 C 110.567 177.740,116.285 185.925,125.587 187.793 C 131.848 189.051,139.293 185.157,142.273 179.067 C 144.430 174.658,144.432 168.830,142.279 164.665 C 141.056 162.300,137.730 159.118,135.047 157.745 C 132.836 156.613,131.948 156.414,128.640 156.309 C 126.528 156.241,124.320 156.343,123.733 156.536 " stroke="none" fill-rule="evenodd"></path></svg>