<svg fill="currentColor" viewBox="0 0 256 256" xmlns="http://www.w3.org/2000/svg"><path d="M71.680 52.671 C 53.198 56.644,36.087 76.195,16.769 115.413 C 11.440 126.233,11.035 128.441,13.471 133.429 C 16.984 140.627,26.795 142.158,32.522 136.403 C 33.371 135.550,35.882 131.066,38.914 124.992 C 44.925 112.948,48.682 106.293,53.955 98.347 C 61.051 87.656,67.594 80.550,73.003 77.663 C 78.199 74.889,81.833 75.862,87.456 81.532 C 95.299 89.442,102.511 101.970,117.062 132.958 C 134.160 169.369,141.651 181.897,152.682 192.532 C 161.273 200.813,169.462 204.276,179.413 203.835 C 199.453 202.948,217.177 184.498,238.181 142.664 C 243.121 132.824,243.800 131.213,243.964 128.946 C 244.237 125.168,243.177 122.375,240.425 119.622 C 235.890 115.088,229.059 114.864,224.256 119.092 C 222.544 120.599,221.549 122.264,217.402 130.566 C 205.064 155.264,194.976 169.957,185.676 176.772 C 182.039 179.438,178.980 180.400,176.364 179.700 C 167.467 177.321,157.361 162.222,140.330 125.867 C 125.755 94.754,118.679 81.843,110.281 71.040 C 107.248 67.138,100.604 60.583,97.577 58.507 C 94.575 56.447,89.331 53.929,86.400 53.140 C 82.805 52.172,75.138 51.927,71.680 52.671 " stroke="none" fill-rule="evenodd"></path></svg>