<svg fill="currentColor" viewBox="0 0 256 256" xmlns="http://www.w3.org/2000/svg"><path d="M118.827 20.495 C 100.567 22.573,83.587 30.493,70.207 43.173 C 53.509 58.997,43.932 81.254,43.950 104.197 C 43.982 143.695,72.313 178.282,111.147 186.231 L 115.840 187.191 115.961 191.729 L 116.082 196.267 72.534 196.267 C 24.864 196.267,27.743 196.116,24.367 198.789 C 20.497 201.854,18.964 208.112,20.998 212.537 C 22.478 215.758,23.983 217.372,26.793 218.752 L 29.227 219.947 128.000 219.947 L 226.773 219.947 229.207 218.752 C 231.805 217.476,233.289 215.991,234.786 213.170 C 235.518 211.791,235.720 210.679,235.726 208.000 C 235.732 205.011,235.577 204.304,234.475 202.315 C 233.279 200.156,231.471 198.387,229.120 197.075 C 228.234 196.581,220.607 196.444,184.107 196.267 L 140.160 196.053 140.160 191.623 L 140.160 187.193 144.853 186.231 C 177.473 179.550,203.065 154.190,210.098 121.580 C 213.337 106.562,212.517 92.209,207.573 77.348 C 197.782 47.921,172.354 26.287,141.441 21.083 C 136.803 20.302,123.549 19.957,118.827 20.495 M139.323 45.168 C 163.858 49.927,183.142 69.630,187.090 93.972 C 187.913 99.047,187.923 109.310,187.109 113.977 C 184.926 126.496,179.280 137.348,170.259 146.363 C 163.253 153.366,156.178 157.745,146.825 160.869 C 140.423 163.007,135.158 163.836,127.969 163.838 C 111.696 163.843,97.241 157.861,85.743 146.363 C 77.671 138.291,72.516 129.185,69.692 118.009 C 68.226 112.211,67.822 100.883,68.849 94.400 C 70.986 80.902,78.160 67.937,88.447 58.977 C 98.117 50.554,109.102 45.840,122.880 44.200 C 126.004 43.828,135.213 44.370,139.323 45.168 M123.093 64.273 C 119.328 64.869,114.365 66.296,111.576 67.585 C 98.927 73.429,90.255 85.055,88.355 98.715 C 87.730 103.206,87.774 105.869,88.543 110.279 C 90.070 119.034,93.646 126.069,99.621 132.073 C 107.369 139.857,117.096 143.916,128.000 143.916 C 143.497 143.916,157.036 135.429,163.844 121.446 C 166.869 115.232,167.850 110.848,167.818 103.680 C 167.790 97.236,167.055 93.674,164.572 87.930 C 159.836 76.974,149.356 68.101,137.813 65.274 C 134.266 64.406,125.864 63.834,123.093 64.273 M130.784 88.358 C 135.916 89.307,140.037 92.424,142.328 97.090 C 143.464 99.404,143.573 100.020,143.573 104.107 C 143.573 108.390,143.510 108.704,142.127 111.254 C 140.370 114.495,137.711 117.028,134.475 118.545 C 132.385 119.524,131.498 119.680,128.000 119.680 C 124.502 119.680,123.615 119.524,121.525 118.545 C 118.289 117.028,115.630 114.495,113.873 111.254 C 112.490 108.704,112.427 108.390,112.427 104.107 C 112.427 100.020,112.536 99.404,113.672 97.090 C 115.888 92.578,119.699 89.573,124.587 88.487 C 127.621 87.812,127.809 87.808,130.784 88.358 " stroke="none" fill-rule="evenodd"></path></svg>