<svg fill="currentColor" viewBox="0 0 256 256" xmlns="http://www.w3.org/2000/svg"><path d="M98.987 12.380 C 85.701 14.193,74.264 23.746,69.972 36.613 C 66.973 45.602,67.380 53.897,71.264 62.958 C 74.396 70.265,82.347 78.036,89.777 81.052 L 92.199 82.035 92.073 84.342 L 91.947 86.648 87.546 88.123 C 78.484 91.159,69.090 96.611,61.606 103.177 C 44.135 118.507,34.237 142.888,36.242 165.653 C 38.966 196.578,58.584 221.956,87.437 231.881 C 101.152 236.598,117.054 237.228,130.851 233.599 C 139.560 231.309,146.861 228.041,154.129 223.181 C 167.666 214.129,178.107 200.825,183.456 185.812 C 184.608 182.579,184.794 181.536,184.636 179.200 C 184.410 175.864,183.308 173.527,180.963 171.408 C 178.064 168.789,176.843 168.328,172.800 168.324 C 169.610 168.320,168.933 168.461,167.182 169.490 C 164.467 171.087,162.403 173.624,161.256 176.775 C 155.786 191.804,144.162 203.617,129.707 208.836 C 113.988 214.512,96.715 212.354,82.818 202.979 C 78.716 200.212,73.532 195.235,70.342 191.001 C 67.263 186.915,63.555 179.448,62.127 174.459 C 56.210 153.786,63.664 131.410,80.734 118.599 C 83.997 116.150,89.350 113.003,91.200 112.445 L 92.160 112.156 92.164 125.518 C 92.168 138.637,92.187 138.919,93.169 141.030 C 94.463 143.808,97.610 146.585,100.406 147.415 C 102.248 147.962,108.408 148.053,143.546 148.053 L 184.536 148.053 199.130 177.244 C 207.300 193.586,214.325 207.121,215.090 207.992 C 217.289 210.497,220.252 211.802,223.787 211.822 C 226.610 211.839,227.413 211.584,238.507 207.147 C 249.581 202.717,250.364 202.331,252.445 200.276 C 256.911 195.866,257.181 188.943,253.069 184.272 C 250.577 181.441,247.957 180.278,244.053 180.272 C 241.179 180.267,240.290 180.494,235.329 182.493 C 232.290 183.718,229.768 184.678,229.722 184.627 C 229.677 184.575,223.398 172.053,215.767 156.800 C 200.925 127.128,200.784 126.894,196.693 125.046 C 194.808 124.194,194.060 124.179,155.413 124.169 L 116.053 124.160 116.053 116.053 L 116.053 107.947 143.071 107.947 C 173.090 107.947,172.356 108.011,175.754 105.102 C 178.543 102.715,179.818 99.860,179.819 96.000 C 179.821 91.121,177.759 87.695,173.440 85.400 L 171.307 84.267 143.680 84.148 L 116.053 84.029 116.053 83.022 C 116.053 82.188,116.604 81.753,119.251 80.496 C 125.404 77.574,130.124 73.536,133.742 68.099 C 145.826 49.937,139.540 25.679,120.230 15.955 C 114.076 12.855,105.757 11.456,98.987 12.380 M109.013 37.273 C 113.422 39.335,115.823 43.134,115.794 48.000 C 115.772 51.581,115.041 53.452,112.653 56.043 C 107.112 62.055,97.738 60.966,93.538 53.822 C 92.503 52.060,92.373 51.414,92.373 48.000 C 92.373 44.586,92.503 43.940,93.538 42.178 C 95.865 38.220,99.257 36.288,103.893 36.280 C 106.140 36.276,107.409 36.522,109.013 37.273 " stroke="none" fill-rule="evenodd"></path></svg>