<svg fill="currentColor" viewBox="0 0 256 256" xmlns="http://www.w3.org/2000/svg"><path d="M42.880 29.166 C 36.905 31.961,34.334 38.896,37.044 44.906 C 37.501 45.919,40.761 49.900,44.424 53.918 C 48.034 57.877,51.037 61.246,51.100 61.403 C 51.162 61.561,50.298 62.130,49.180 62.667 C 38.943 67.581,20.868 79.499,15.481 84.886 C 13.492 86.875,11.947 90.402,11.947 92.952 C 11.947 96.311,13.143 99.042,15.722 101.568 C 17.692 103.497,18.633 104.074,20.797 104.682 C 25.499 106.001,28.009 105.171,34.718 100.078 C 44.460 92.684,52.066 87.979,62.158 83.105 C 65.701 81.394,68.481 80.285,68.635 80.521 C 68.785 80.748,72.555 84.920,77.013 89.791 C 81.472 94.662,85.171 98.780,85.233 98.942 C 85.295 99.104,83.279 100.072,80.753 101.092 C 68.015 106.236,52.037 115.824,47.156 121.253 C 42.662 126.251,43.430 134.224,48.795 138.279 C 51.209 140.104,53.257 140.800,56.209 140.800 C 59.307 140.800,61.520 139.862,65.661 136.794 C 75.068 129.826,85.306 124.553,96.213 121.060 C 104.275 118.478,102.181 117.443,113.021 129.363 C 118.208 135.067,122.452 139.877,122.453 140.053 C 122.453 140.229,121.800 140.373,121.002 140.373 C 118.647 140.373,109.954 141.978,105.734 143.192 C 95.346 146.181,82.722 152.881,78.763 157.506 C 76.021 160.708,75.284 165.025,76.791 169.051 C 77.941 172.122,79.795 174.239,82.488 175.557 C 87.348 177.935,90.881 177.429,96.957 173.484 C 103.723 169.092,110.900 166.224,118.400 164.916 C 122.872 164.136,132.121 164.024,136.371 164.698 C 139.804 165.242,145.479 166.644,146.935 167.307 C 147.493 167.562,159.722 180.723,174.110 196.555 C 190.657 214.762,200.911 225.715,202.012 226.361 C 204.978 228.099,207.854 228.491,211.134 227.603 C 213.490 226.965,214.328 226.462,216.374 224.462 C 218.356 222.523,218.944 221.610,219.535 219.555 C 220.397 216.562,220.175 213.661,218.879 210.986 C 218.331 209.853,187.219 175.307,136.725 119.763 C 46.385 20.389,53.907 28.156,48.023 28.164 C 45.767 28.167,44.479 28.418,42.880 29.166 M117.760 44.335 C 114.660 44.580,113.191 44.919,111.515 45.777 C 107.108 48.033,104.667 52.415,105.063 57.358 C 105.309 60.418,106.155 62.295,108.314 64.569 C 111.600 68.032,111.516 68.016,127.573 68.318 C 144.761 68.641,151.963 69.476,164.480 72.597 C 184.785 77.658,202.807 86.289,220.185 99.275 C 223.695 101.897,227.285 104.289,228.163 104.591 C 230.647 105.444,234.560 105.245,236.861 104.147 C 244.380 100.561,246.311 91.212,240.758 85.276 C 239.678 84.121,236.857 81.720,234.490 79.942 C 208.056 60.082,178.017 48.271,145.626 45.001 C 138.247 44.256,123.281 43.898,117.760 44.335 M162.510 99.149 C 157.527 100.930,154.503 104.889,154.324 109.867 C 154.203 113.238,155.174 115.839,157.507 118.392 C 159.313 120.368,160.159 120.886,164.161 122.469 C 174.224 126.447,182.211 130.792,189.936 136.490 C 194.640 139.961,196.658 140.813,200.054 140.768 C 205.884 140.689,210.532 136.758,211.628 130.981 C 212.178 128.078,211.273 124.184,209.547 122.027 C 205.911 117.484,192.408 108.744,180.940 103.511 C 170.681 98.830,166.303 97.794,162.510 99.149 M123.733 188.536 C 121.125 189.393,118.231 191.224,116.411 193.170 C 113.930 195.823,113.158 197.317,112.406 200.923 C 110.567 209.740,116.285 217.925,125.587 219.793 C 131.848 221.051,139.293 217.157,142.273 211.067 C 144.430 206.658,144.432 200.830,142.279 196.665 C 141.056 194.300,137.730 191.118,135.047 189.745 C 132.836 188.613,131.948 188.414,128.640 188.309 C 126.528 188.241,124.320 188.343,123.733 188.536 " stroke="none" fill-rule="evenodd"></path></svg>