<svg fill="currentColor" viewBox="0 0 256 256" xmlns="http://www.w3.org/2000/svg"><path d="M116.907 36.294 C 84.591 37.267,52.749 42.265,35.693 49.040 C 25.812 52.965,19.913 59.879,17.286 70.613 C 11.123 95.787,10.151 143.543,15.169 174.507 C 17.410 188.334,19.552 194.161,24.298 199.340 C 28.956 204.423,33.385 206.680,45.556 210.173 C 67.222 216.392,96.838 219.878,128.000 219.878 C 163.984 219.878,199.619 214.928,219.882 207.114 C 230.088 203.179,236.040 196.312,238.714 185.387 C 245.794 156.468,245.794 99.532,238.714 70.613 C 236.106 59.959,230.330 53.087,220.727 49.215 C 204.216 42.557,171.663 37.264,142.367 36.472 C 137.868 36.351,132.555 36.193,130.560 36.122 C 128.565 36.050,122.421 36.127,116.907 36.294 M146.347 60.598 C 167.726 61.782,185.481 64.185,199.893 67.846 C 209.207 70.212,213.633 71.904,214.402 73.391 C 215.783 76.061,217.785 87.961,218.960 100.480 C 219.729 108.680,219.729 147.315,218.960 155.520 C 217.817 167.714,215.758 179.987,214.422 182.570 C 213.679 184.008,211.748 184.841,203.947 187.088 C 191.047 190.803,176.081 193.208,154.240 195.077 C 144.200 195.936,109.878 195.803,99.413 194.864 C 75.997 192.763,57.746 189.451,45.961 185.166 C 41.596 183.578,41.406 183.333,40.142 177.641 C 37.091 163.900,35.704 141.592,36.339 116.480 C 36.725 101.221,37.941 89.000,40.106 78.624 C 41.336 72.731,41.557 72.436,45.961 70.834 C 59.357 65.963,83.424 62.039,108.587 60.623 C 117.568 60.117,137.434 60.104,146.347 60.598 M103.040 81.219 C 100.221 82.536,97.887 85.015,96.846 87.798 C 96.026 89.990,96.000 91.215,96.000 128.000 C 96.000 164.836,96.025 166.007,96.849 168.211 C 97.879 170.963,100.525 173.683,103.411 174.956 C 105.787 176.003,109.755 176.182,111.915 175.339 C 114.027 174.515,171.091 137.787,172.592 136.286 C 176.963 131.916,176.963 124.073,172.594 119.721 C 170.913 118.047,113.783 81.363,111.830 80.703 C 109.364 79.870,105.431 80.101,103.040 81.219 M131.236 121.193 C 136.942 124.819,141.614 127.883,141.620 128.000 C 141.631 128.246,121.532 141.116,120.547 141.494 C 119.968 141.716,119.893 140.168,119.893 128.010 C 119.893 117.947,120.023 114.319,120.378 114.437 C 120.645 114.526,125.531 117.566,131.236 121.193 " stroke="none" fill-rule="evenodd"></path></svg>