<svg fill="currentColor" viewBox="0 0 256 256" xmlns="http://www.w3.org/2000/svg"><path d="M191.360 52.331 C 188.423 52.799,184.775 53.921,181.973 55.219 C 180.331 55.980,167.200 63.651,152.795 72.264 C 138.389 80.878,126.247 88.117,125.811 88.350 C 125.191 88.682,118.983 86.557,97.094 78.520 C 81.735 72.881,68.629 68.267,67.970 68.267 C 66.153 68.267,58.266 71.419,56.416 72.884 C 55.518 73.595,54.217 75.199,53.525 76.449 C 52.426 78.433,52.267 79.152,52.267 82.133 C 52.267 87.418,52.586 87.835,68.068 102.787 C 75.456 109.923,81.451 115.805,81.390 115.857 C 80.763 116.403,56.011 131.147,55.498 131.282 C 55.118 131.381,47.850 129.129,39.347 126.278 L 23.888 121.094 20.469 122.698 C 14.477 125.510,11.464 130.049,12.089 135.324 C 12.639 139.973,12.212 139.502,44.587 171.138 C 55.992 182.283,59.590 184.750,67.627 186.935 C 72.850 188.355,80.785 188.254,85.973 186.700 C 88.085 186.068,90.869 185.024,92.160 184.381 C 95.045 182.943,240.314 96.291,242.222 94.870 C 243.984 93.558,244.476 91.383,243.391 89.705 C 241.590 86.920,224.523 65.267,222.344 63.003 C 217.814 58.297,211.818 54.753,205.653 53.137 C 202.921 52.420,193.968 51.916,191.360 52.331 M205.583 61.553 C 209.589 62.970,212.848 64.939,215.633 67.627 C 218.023 69.934,233.876 90.041,233.704 90.549 C 233.647 90.718,201.056 110.297,161.280 134.058 C 81.988 181.424,85.386 179.554,77.867 179.938 C 72.870 180.193,68.682 179.310,64.043 177.023 C 60.111 175.084,57.596 172.777,31.669 147.320 C 20.403 136.258,20.032 135.841,20.043 134.251 C 20.051 132.987,20.346 132.335,21.327 131.419 C 22.028 130.764,23.070 130.111,23.643 129.967 C 24.362 129.787,29.352 131.292,39.750 134.826 C 48.036 137.643,55.262 139.947,55.809 139.947 C 56.356 139.947,57.222 139.725,57.735 139.455 C 59.986 138.266,89.893 120.119,90.609 119.507 C 91.833 118.460,92.248 116.972,91.742 115.440 C 91.438 114.520,86.704 109.655,76.749 100.034 C 68.746 92.301,61.740 85.431,61.180 84.767 C 59.920 83.278,59.849 81.150,61.009 79.676 C 61.518 79.029,63.101 78.143,64.959 77.466 L 68.059 76.335 96.622 86.841 C 112.484 92.675,125.590 97.269,126.096 97.173 C 126.597 97.077,139.567 89.504,154.917 80.344 C 170.267 71.184,183.661 63.266,184.681 62.748 C 190.297 59.899,199.431 59.377,205.583 61.553 M21.301 213.301 C 19.191 215.410,19.732 218.433,22.421 219.556 C 24.589 220.462,167.411 220.462,169.579 219.556 C 172.268 218.433,172.809 215.410,170.699 213.301 L 169.452 212.053 96.000 212.053 L 22.548 212.053 21.301 213.301 " stroke="none" fill-rule="evenodd"></path></svg>