<svg fill="currentColor" viewBox="0 0 256 256" xmlns="http://www.w3.org/2000/svg"><path d="M84.430 52.642 C 82.224 53.431,79.989 54.890,78.771 56.337 C 77.368 58.005,75.947 61.907,75.947 64.092 C 75.947 65.216,77.962 71.921,81.493 82.544 C 84.544 91.721,87.040 99.463,87.040 99.748 C 87.040 100.145,83.616 100.267,72.444 100.267 L 57.848 100.267 45.768 88.213 L 33.689 76.160 28.379 76.019 C 22.110 75.852,19.492 76.446,16.535 78.703 C 14.175 80.506,12.419 83.825,12.095 87.097 C 11.891 89.166,12.613 91.865,19.608 115.161 C 24.230 130.554,27.945 142.162,28.832 143.980 C 34.308 155.212,45.370 162.692,58.217 163.851 C 64.403 164.409,238.713 164.382,240.727 163.823 C 241.597 163.581,242.715 162.867,243.212 162.234 C 244.104 161.101,244.114 160.860,243.947 145.502 C 243.761 128.367,243.649 127.527,240.668 120.954 C 236.153 110.997,226.815 103.446,215.893 100.920 C 213.553 100.379,207.895 100.278,179.625 100.273 L 146.130 100.267 123.305 77.397 C 110.751 64.819,99.731 53.971,98.816 53.290 C 97.175 52.070,97.076 52.054,91.563 52.072 C 88.120 52.084,85.380 52.303,84.430 52.642 M118.293 83.947 L 142.082 107.733 177.601 107.960 C 210.526 108.170,213.291 108.244,215.467 108.968 C 223.782 111.736,229.673 116.723,233.162 123.947 C 235.532 128.854,235.947 131.965,235.947 144.842 L 235.947 156.174 146.240 156.059 C 62.161 155.951,56.373 155.897,53.973 155.195 C 49.063 153.758,45.259 151.504,41.566 147.844 C 36.292 142.616,35.750 141.293,27.286 112.968 C 23.308 99.655,20.053 88.264,20.053 87.655 C 20.053 87.000,20.563 86.038,21.301 85.301 C 22.500 84.101,22.699 84.053,26.517 84.053 L 30.487 84.053 42.461 96.000 L 54.435 107.947 74.397 107.947 L 94.359 107.947 95.606 106.699 C 96.399 105.907,96.853 105.011,96.853 104.241 C 96.853 103.575,93.973 94.394,90.453 83.840 C 86.933 73.286,84.053 64.231,84.053 63.718 C 84.053 63.205,84.550 62.195,85.158 61.473 C 86.251 60.174,86.306 60.160,90.383 60.160 L 94.504 60.160 118.293 83.947 M69.675 212.809 C 67.613 214.430,67.493 217.151,69.404 218.946 L 70.469 219.947 143.990 219.947 C 216.910 219.947,217.518 219.940,218.458 219.093 C 219.850 217.838,220.264 216.436,219.725 214.800 C 218.742 211.823,225.100 212.052,143.908 212.063 C 75.118 212.072,70.556 212.118,69.675 212.809 " stroke="none" fill-rule="evenodd"></path></svg>