<svg fill="currentColor" viewBox="0 0 256 256" xmlns="http://www.w3.org/2000/svg"><path d="M43.423 44.610 C 38.289 45.855,34.094 48.863,31.128 53.428 C 27.927 58.353,28.106 54.152,28.247 121.173 L 28.373 181.120 29.958 184.440 C 33.070 190.956,38.805 195.007,46.107 195.846 C 50.869 196.394,62.944 196.378,64.947 195.821 C 65.821 195.579,66.829 194.961,67.187 194.448 C 68.094 193.155,68.012 190.601,67.025 189.381 C 66.219 188.384,66.106 188.371,55.825 188.160 C 46.137 187.961,45.297 187.881,43.307 186.965 C 40.517 185.681,38.533 183.755,37.285 181.120 L 36.275 178.987 36.271 119.986 C 36.266 55.341,36.091 59.774,38.789 56.367 C 39.479 55.496,41.066 54.217,42.315 53.525 L 44.587 52.267 128.000 52.267 L 211.413 52.267 213.685 53.525 C 216.120 54.874,218.015 56.955,219.206 59.589 C 219.898 61.118,219.947 65.105,219.947 119.680 C 219.947 176.148,219.919 178.205,219.134 180.242 C 218.055 183.038,215.533 185.699,212.790 186.935 C 210.698 187.878,209.917 187.954,200.175 188.157 C 189.896 188.371,189.781 188.384,188.975 189.381 C 187.988 190.601,187.906 193.155,188.813 194.448 C 189.171 194.961,190.179 195.579,191.053 195.821 C 193.056 196.378,205.131 196.394,209.893 195.846 C 219.764 194.712,226.752 187.638,227.867 177.655 C 228.136 175.243,228.249 152.989,228.174 117.317 L 228.053 60.800 227.138 58.134 C 224.753 51.185,219.360 46.235,212.382 44.590 C 208.494 43.673,47.208 43.693,43.423 44.610 M124.850 157.583 C 118.973 163.869,76.505 214.052,76.198 215.073 C 75.600 217.065,76.762 219.137,78.809 219.731 C 79.954 220.063,94.593 220.163,128.915 220.073 C 176.713 219.948,177.417 219.935,178.351 219.093 C 179.592 217.975,180.120 216.523,179.780 215.166 C 179.524 214.148,132.382 158.545,130.393 156.916 C 129.891 156.504,128.762 156.175,127.837 156.169 C 126.504 156.162,125.921 156.437,124.850 157.583 M147.754 189.227 L 167.133 211.840 147.567 211.951 C 136.805 212.012,119.196 212.012,108.435 211.951 L 88.869 211.840 108.328 189.125 C 119.030 176.631,127.919 166.455,128.081 166.511 C 128.243 166.567,137.096 176.789,147.754 189.227 " stroke="none" fill-rule="evenodd"></path></svg>