<svg fill="currentColor" viewBox="0 0 256 256" xmlns="http://www.w3.org/2000/svg"><path d="M37.233 37.233 C 21.548 52.917,20.053 54.534,20.053 55.821 C 20.053 56.595,20.261 57.617,20.514 58.091 C 21.106 59.197,23.683 60.278,24.885 59.924 C 26.067 59.577,59.235 26.588,59.779 25.219 C 60.724 22.843,58.579 20.053,55.808 20.053 C 54.539 20.053,52.852 21.613,37.233 37.233 M197.675 20.809 C 196.505 21.729,195.733 23.717,196.084 24.910 C 196.425 26.074,229.430 59.242,230.781 59.779 C 232.105 60.306,234.445 59.554,235.305 58.326 C 235.658 57.822,235.947 56.735,235.947 55.911 C 235.947 54.506,234.870 53.335,218.767 37.233 C 202.671 21.137,201.494 20.054,200.101 20.063 C 199.283 20.068,198.191 20.404,197.675 20.809 M114.133 37.120 C 87.468 41.168,63.721 56.973,49.383 80.213 C 44.355 88.363,39.803 100.090,37.791 110.080 C 32.478 136.448,39.181 163.906,56.195 185.479 C 61.934 192.756,71.754 201.398,80.213 206.617 C 95.694 216.168,116.220 221.160,134.293 219.769 C 157.437 217.987,177.895 208.440,193.934 191.937 C 203.926 181.654,210.736 170.481,215.218 157.013 C 222.924 133.859,221.305 109.818,210.544 87.606 C 205.880 77.977,199.624 69.444,191.550 61.694 C 177.095 47.819,159.430 39.428,138.956 36.710 C 133.602 35.999,120.039 36.223,114.133 37.120 M135.040 44.374 C 172.305 47.758,202.630 74.580,210.140 110.797 C 215.959 138.858,207.285 167.541,186.865 187.761 C 173.241 201.252,155.612 209.521,136.017 211.611 C 111.761 214.199,86.191 204.984,68.686 187.348 C 48.533 167.041,40.077 138.684,45.860 110.797 C 54.430 69.467,93.221 40.575,135.040 44.374 M125.207 69.314 L 124.160 70.361 124.160 99.939 C 124.160 132.820,123.992 130.971,127.053 131.821 C 129.432 132.482,183.218 132.378,185.152 131.709 C 186.970 131.081,188.371 128.898,187.973 127.315 C 187.822 126.713,187.235 125.756,186.669 125.190 L 185.639 124.160 158.953 124.160 L 132.267 124.160 132.264 98.453 C 132.263 82.080,132.102 72.170,131.821 71.159 C 131.276 69.195,130.012 68.267,127.886 68.267 C 126.723 68.267,125.954 68.567,125.207 69.314 " stroke="none" fill-rule="evenodd"></path></svg>