<svg fill="currentColor" viewBox="0 0 256 256" xmlns="http://www.w3.org/2000/svg"><path d="M59.372 36.920 C 56.982 37.958,54.848 39.927,53.525 42.315 L 52.267 44.587 52.151 84.373 L 52.036 124.160 41.145 124.160 L 30.255 124.160 29.207 125.207 C 27.976 126.438,27.785 128.981,28.813 130.448 C 29.873 131.963,32.101 132.262,42.347 132.264 L 52.053 132.267 52.053 171.452 L 52.053 210.637 53.358 213.248 C 54.801 216.135,56.414 217.709,59.307 219.054 C 61.179 219.925,61.789 219.947,84.053 219.947 L 106.880 219.947 108.881 218.952 C 109.981 218.405,111.743 217.036,112.795 215.911 C 116.210 212.260,116.053 214.434,116.053 170.803 L 116.053 132.267 128.000 132.267 L 139.947 132.267 139.947 158.856 C 139.947 181.326,140.046 185.781,140.591 187.614 C 141.445 190.489,144.349 193.704,147.294 195.035 L 149.547 196.053 171.733 196.053 C 192.532 196.053,194.052 196.002,196.028 195.240 C 198.546 194.269,201.534 191.628,202.809 189.246 C 203.726 187.534,203.734 187.297,203.852 159.893 L 203.971 132.267 213.665 132.264 C 223.899 132.262,226.127 131.963,227.187 130.448 C 228.215 128.981,228.024 126.438,226.793 125.207 L 225.745 124.160 214.858 124.160 L 203.970 124.160 203.852 96.320 C 203.734 68.698,203.726 68.467,202.809 66.754 C 201.569 64.437,198.563 61.735,196.242 60.851 C 194.531 60.199,192.107 60.141,171.307 60.251 C 148.474 60.372,148.251 60.382,146.505 61.315 C 144.011 62.649,141.346 65.841,140.585 68.406 C 140.048 70.214,139.947 74.812,139.947 97.357 L 139.947 124.160 128.009 124.160 L 116.071 124.160 115.955 84.587 C 115.841 45.248,115.835 45.002,114.934 43.093 C 113.741 40.566,111.642 38.502,109.013 37.273 L 106.880 36.275 83.840 36.288 C 64.651 36.298,60.561 36.404,59.372 36.920 M105.822 44.591 C 106.507 44.946,107.266 45.605,107.507 46.056 C 107.804 46.611,107.947 73.228,107.947 128.161 L 107.947 209.446 106.917 210.643 L 105.888 211.840 84.282 211.958 L 62.677 212.076 61.419 210.818 L 60.160 209.559 60.160 128.128 C 60.160 54.025,60.222 46.608,60.846 45.718 C 61.223 45.179,61.943 44.573,62.446 44.370 C 62.949 44.167,72.634 43.989,83.968 43.974 C 101.551 43.951,104.759 44.041,105.822 44.591 M194.793 69.314 L 195.840 70.361 195.840 127.795 C 195.840 166.371,195.696 185.499,195.401 186.050 C 194.294 188.119,193.839 188.160,172.245 188.160 C 158.924 188.160,151.572 188.003,150.705 187.701 C 147.856 186.708,148.053 191.153,148.053 127.864 L 148.053 70.525 149.100 69.396 L 150.146 68.267 171.946 68.267 L 193.745 68.267 194.793 69.314 " stroke="none" fill-rule="evenodd"></path></svg>