<svg fill="currentColor" viewBox="0 0 256 256" xmlns="http://www.w3.org/2000/svg"><path d="M126.720 44.232 C 126.368 44.370,125.648 44.875,125.120 45.355 L 124.160 46.229 124.160 65.132 L 124.160 84.036 84.373 84.151 L 44.587 84.267 42.830 85.206 C 40.000 86.721,38.522 88.199,37.248 90.793 L 36.053 93.227 36.053 128.000 L 36.053 162.773 37.248 165.207 C 38.522 167.801,40.000 169.279,42.830 170.794 L 44.587 171.733 84.373 171.849 L 124.160 171.964 124.160 190.904 L 124.160 209.844 125.473 210.949 C 127.874 212.970,130.943 211.896,131.823 208.727 C 132.091 207.762,132.263 200.296,132.264 189.555 L 132.267 171.964 171.840 171.849 L 211.413 171.733 213.170 170.794 C 216.000 169.279,217.478 167.801,218.752 165.207 L 219.947 162.773 219.947 128.000 L 219.947 93.227 218.752 90.793 C 217.478 88.199,216.000 86.721,213.170 85.206 L 211.413 84.267 171.861 84.151 L 132.308 84.036 132.181 65.281 L 132.053 46.525 130.987 45.460 C 129.896 44.370,127.865 43.785,126.720 44.232 M210.643 93.190 L 211.840 94.219 211.840 128.000 L 211.840 161.781 210.675 162.783 C 210.034 163.334,208.690 163.902,207.688 164.045 C 206.686 164.188,170.015 164.248,126.196 164.179 L 46.526 164.053 45.343 162.870 L 44.160 161.687 44.160 127.953 L 44.160 94.219 45.357 93.190 L 46.554 92.160 128.000 92.160 L 209.446 92.160 210.643 93.190 " stroke="none" fill-rule="evenodd"></path></svg>