<svg fill="currentColor" viewBox="0 0 256 256" xmlns="http://www.w3.org/2000/svg"><path d="M91.372 36.920 C 88.982 37.958,86.848 39.927,85.525 42.315 L 84.267 44.587 84.151 84.373 L 84.036 124.160 65.239 124.160 L 46.441 124.160 45.194 125.407 C 43.539 127.062,43.538 128.809,45.191 130.660 L 46.436 132.053 65.245 132.181 L 84.053 132.308 84.053 171.473 L 84.053 210.637 85.358 213.248 C 86.801 216.135,88.414 217.709,91.307 219.054 C 93.205 219.937,93.614 219.947,128.000 219.947 L 162.773 219.947 165.207 218.752 C 167.801 217.478,169.279 216.000,170.794 213.170 L 171.733 211.413 171.849 171.840 L 171.964 132.267 189.555 132.264 C 200.296 132.263,207.762 132.091,208.727 131.823 C 211.995 130.915,213.052 127.653,210.806 125.407 L 209.559 124.160 190.761 124.160 L 171.964 124.160 171.849 84.373 L 171.733 44.587 170.475 42.315 C 169.126 39.881,166.977 37.922,164.531 36.901 C 162.282 35.961,93.539 35.979,91.372 36.920 M162.810 45.357 L 163.840 46.554 163.840 128.057 L 163.840 209.559 162.593 210.806 L 161.346 212.053 128.000 212.053 L 94.654 212.053 93.407 210.806 L 92.160 209.559 92.160 128.128 C 92.160 54.025,92.222 46.608,92.846 45.718 C 93.223 45.179,93.943 44.571,94.446 44.366 C 94.949 44.161,110.305 44.030,128.570 44.076 L 161.781 44.160 162.810 45.357 " stroke="none" fill-rule="evenodd"></path></svg>