<svg fill="currentColor" viewBox="0 0 256 256" xmlns="http://www.w3.org/2000/svg"><path d="M221.473 53.158 L 220.160 54.263 220.160 128.000 L 220.160 201.737 221.473 202.842 C 223.224 204.315,224.905 204.270,226.660 202.702 L 228.053 201.457 228.053 128.000 L 228.053 54.543 226.660 53.298 C 224.905 51.730,223.224 51.685,221.473 53.158 M27.850 84.757 C 25.057 85.750,21.967 88.785,20.931 91.554 C 20.072 93.848,20.053 94.634,20.053 128.000 C 20.053 161.234,20.075 162.160,20.920 164.418 C 21.503 165.976,22.454 167.359,23.822 168.638 C 27.687 172.254,20.161 171.970,108.817 171.844 L 187.520 171.733 189.246 170.809 C 191.628 169.534,194.269 166.546,195.240 164.028 C 196.016 162.018,196.053 160.336,196.053 127.787 L 196.053 93.653 194.947 91.307 C 193.691 88.644,191.721 86.537,189.227 85.189 L 187.520 84.267 108.587 84.191 C 39.340 84.125,29.432 84.195,27.850 84.757 M186.652 93.173 C 187.262 93.783,187.772 94.929,187.934 96.053 C 188.082 97.080,188.145 112.137,188.075 129.512 C 187.931 164.921,188.120 162.910,184.857 163.816 C 182.635 164.434,33.274 164.438,31.053 163.821 C 27.975 162.966,28.160 165.265,28.160 127.886 L 28.160 94.255 29.207 93.207 L 30.255 92.160 107.947 92.160 L 185.639 92.160 186.652 93.173 " stroke="none" fill-rule="evenodd"></path></svg>