<svg fill="currentColor" viewBox="0 0 256 256" xmlns="http://www.w3.org/2000/svg"><path d="M53.158 29.473 C 51.685 31.224,51.730 32.905,53.298 34.660 L 54.543 36.053 128.000 36.053 L 201.457 36.053 202.702 34.660 C 204.270 32.905,204.315 31.224,202.842 29.473 L 201.737 28.160 128.000 28.160 L 54.263 28.160 53.158 29.473 M91.307 61.046 C 88.970 62.101,86.434 64.477,85.191 66.773 L 84.267 68.480 84.156 147.183 C 84.030 235.839,83.746 228.313,87.362 232.178 C 88.641 233.546,90.024 234.497,91.582 235.080 C 93.840 235.925,94.766 235.947,128.000 235.947 C 161.234 235.947,162.160 235.925,164.418 235.080 C 165.976 234.497,167.359 233.546,168.638 232.178 C 172.254 228.313,171.970 235.839,171.844 147.183 L 171.733 68.480 170.809 66.773 C 169.566 64.477,167.030 62.101,164.693 61.046 C 162.813 60.197,162.046 60.179,128.000 60.179 C 93.954 60.179,93.187 60.197,91.307 61.046 M162.793 69.314 L 163.840 70.361 163.840 147.939 C 163.840 234.115,164.100 226.946,160.947 227.821 C 158.770 228.426,97.230 228.426,95.053 227.821 C 91.900 226.946,92.160 234.115,92.160 147.939 L 92.160 70.361 93.207 69.314 L 94.255 68.267 128.000 68.267 L 161.745 68.267 162.793 69.314 " stroke="none" fill-rule="evenodd"></path></svg>