<svg fill="currentColor" viewBox="0 0 256 256" xmlns="http://www.w3.org/2000/svg"><path d="M29.473 53.158 C 28.397 54.063,28.160 54.581,28.160 56.024 C 28.160 57.767,28.303 57.929,42.631 72.306 L 57.103 86.827 52.326 91.554 C 35.425 108.277,25.264 128.401,21.069 153.462 C 20.523 156.720,20.323 161.663,20.171 175.666 C 19.994 191.960,20.046 193.891,20.717 195.911 C 21.737 198.981,24.590 201.960,27.582 203.080 C 29.886 203.942,30.432 203.947,128.000 203.947 C 224.900 203.947,226.129 203.936,228.371 203.097 C 231.253 202.019,233.991 199.272,235.104 196.342 C 235.889 194.275,235.947 193.022,235.947 177.961 C 235.947 161.825,235.642 156.178,234.404 149.333 C 230.372 127.053,220.139 107.545,204.040 91.445 L 199.132 86.538 213.486 72.161 C 227.699 57.925,227.840 57.767,227.840 56.023 C 227.840 54.581,227.603 54.063,226.527 53.158 C 224.941 51.823,223.510 51.759,221.602 52.938 C 220.815 53.425,214.045 60.068,206.558 67.700 L 192.946 81.577 187.186 77.761 C 174.393 69.285,160.152 63.807,144.000 61.148 C 136.720 59.950,118.685 60.067,111.188 61.361 C 94.634 64.219,81.291 69.544,67.909 78.632 L 63.498 81.627 49.349 67.538 C 41.567 59.789,34.725 53.135,34.145 52.751 C 32.627 51.747,30.979 51.890,29.473 53.158 M139.531 68.703 C 173.445 72.798,202.683 93.463,217.616 123.893 C 220.961 130.709,223.060 136.275,224.646 142.532 C 227.388 153.346,227.840 158.352,227.840 177.870 C 227.840 195.310,227.889 195.004,224.947 195.821 C 222.722 196.439,33.262 196.435,31.036 195.816 C 28.003 194.974,28.064 195.423,28.273 175.699 C 28.478 156.237,28.727 153.650,31.373 143.491 C 33.312 136.049,35.533 130.240,39.192 123.040 C 54.293 93.333,82.624 73.151,115.200 68.895 C 120.255 68.234,134.706 68.121,139.531 68.703 M88.392 148.969 C 81.477 152.392,83.424 163.115,91.076 163.750 C 94.094 164.000,96.056 163.287,97.868 161.282 C 101.370 157.405,100.102 151.001,95.410 148.870 C 93.085 147.814,90.655 147.848,88.392 148.969 M160.590 148.870 C 155.898 151.001,154.630 157.405,158.132 161.282 C 161.943 165.500,168.904 164.410,171.192 159.236 C 174.170 152.504,167.325 145.811,160.590 148.870 " stroke="none" fill-rule="evenodd"></path></svg>