<svg fill="currentColor" viewBox="0 0 256 256" xmlns="http://www.w3.org/2000/svg"><path d="M101.087 28.981 C 99.662 30.406,99.503 31.814,100.541 33.835 C 100.927 34.586,106.214 43.607,112.291 53.883 L 123.340 72.566 98.683 114.351 L 74.027 156.137 48.145 156.149 L 22.263 156.160 21.158 157.473 C 19.685 159.224,19.730 160.905,21.298 162.660 L 22.543 164.053 81.565 164.180 C 114.027 164.249,141.426 164.186,142.452 164.039 C 146.130 163.513,147.677 159.740,145.222 157.285 L 144.097 156.160 113.816 156.160 C 88.490 156.160,83.572 156.065,83.758 155.581 C 83.880 155.262,99.903 128.046,119.365 95.101 C 138.827 62.155,155.067 34.586,155.455 33.835 C 156.497 31.816,156.340 30.407,154.913 28.981 C 153.325 27.392,151.031 27.267,149.634 28.693 C 149.117 29.221,144.085 37.474,138.453 47.033 C 132.821 56.591,128.117 64.412,128.000 64.412 C 127.883 64.412,123.179 56.592,117.547 47.033 C 111.915 37.475,106.883 29.222,106.366 28.694 C 104.969 27.267,102.676 27.392,101.087 28.981 M143.574 101.624 C 142.738 102.617,142.476 103.333,142.598 104.291 C 142.788 105.785,204.340 210.143,205.717 211.307 C 207.137 212.506,209.344 212.268,210.860 210.753 C 211.969 209.643,212.127 209.220,211.937 207.873 C 211.789 206.827,207.578 199.306,199.466 185.600 C 192.729 174.219,187.121 164.667,187.003 164.373 C 186.833 163.951,191.625 163.840,210.121 163.840 L 233.452 163.840 234.699 162.593 C 236.033 161.259,236.291 159.737,235.450 158.159 C 234.376 156.141,235.038 156.188,207.787 156.164 L 181.973 156.142 166.203 129.410 C 157.530 114.707,149.977 102.136,149.419 101.472 C 148.593 100.492,148.060 100.267,146.560 100.267 C 145.011 100.267,144.533 100.484,143.574 101.624 M55.650 188.754 C 54.596 189.221,53.325 191.062,49.143 198.179 C 43.463 207.845,43.118 208.910,44.968 211.060 C 45.785 212.009,46.350 212.247,47.787 212.247 C 50.116 212.247,50.262 212.068,56.299 201.834 C 61.657 192.750,62.039 191.538,60.139 189.668 C 58.785 188.336,57.285 188.030,55.650 188.754 " stroke="none" fill-rule="evenodd"></path></svg>