<svg fill="currentColor" viewBox="0 0 256 256" xmlns="http://www.w3.org/2000/svg"><path d="M71.467 37.089 C 65.737 38.546,60.950 41.002,56.711 44.663 C 50.988 49.604,47.619 54.802,45.368 62.162 C 44.249 65.824,44.215 66.257,44.046 79.041 C 43.874 92.085,43.867 92.163,42.950 92.350 C 39.153 93.122,37.062 93.693,34.832 94.567 C 19.957 100.397,10.313 116.429,12.285 132.046 C 14.255 147.643,25.361 159.846,40.640 163.200 L 43.947 163.926 43.947 182.853 C 43.947 201.123,43.978 201.866,44.856 204.211 C 46.045 207.389,48.611 209.955,51.789 211.144 L 54.219 212.053 128.000 212.053 L 201.781 212.053 204.211 211.144 C 207.389 209.955,209.955 207.389,211.144 204.211 C 212.022 201.866,212.053 201.123,212.053 182.853 L 212.053 163.926 215.360 163.200 C 230.609 159.852,241.764 147.505,243.749 131.775 C 245.395 118.737,238.164 104.144,226.677 97.320 C 222.354 94.751,219.197 93.600,213.050 92.350 C 212.133 92.163,212.126 92.082,211.947 79.041 C 211.749 64.671,211.545 63.299,208.668 56.954 C 204.153 46.997,194.815 39.446,183.893 36.920 C 181.501 36.367,173.785 36.283,127.787 36.304 C 78.105 36.328,74.249 36.381,71.467 37.089 M183.467 44.960 C 191.824 47.771,197.675 52.726,201.162 59.947 C 203.531 64.853,203.947 67.966,203.947 80.827 L 203.947 92.144 202.987 92.341 C 194.435 94.096,188.990 96.683,183.868 101.426 C 176.353 108.382,172.555 116.694,172.063 127.253 L 171.830 132.267 128.004 132.267 L 84.179 132.267 83.931 127.253 C 83.404 116.618,79.639 108.376,72.132 101.426 C 66.999 96.673,61.622 94.121,52.976 92.331 L 51.979 92.125 52.150 79.236 C 52.317 66.631,52.346 66.278,53.437 63.217 C 54.800 59.396,56.727 56.144,59.425 53.113 C 63.139 48.941,69.984 45.214,75.420 44.403 C 76.766 44.202,101.099 44.068,129.493 44.104 C 178.495 44.167,181.239 44.211,183.467 44.960 M54.844 100.913 C 62.586 102.881,69.392 108.352,72.884 115.413 C 75.763 121.235,75.674 120.327,75.928 146.277 L 76.160 169.888 77.357 170.917 C 78.940 172.278,81.060 172.278,82.643 170.917 L 83.840 169.888 83.962 154.917 L 84.085 139.947 128.000 139.947 L 171.915 139.947 172.038 154.917 L 172.160 169.888 173.357 170.917 C 174.940 172.278,177.060 172.278,178.643 170.917 L 179.840 169.888 180.072 146.277 C 180.326 120.327,180.237 121.235,183.116 115.413 C 186.649 108.269,193.444 102.853,201.373 100.863 C 205.532 99.818,213.434 100.206,217.276 101.643 C 223.104 103.822,228.334 107.911,231.340 112.640 C 240.701 127.368,235.048 146.483,219.241 153.546 C 215.957 155.014,213.697 155.579,209.502 155.983 C 206.808 156.242,206.127 156.474,205.129 157.472 L 203.947 158.654 203.947 180.053 L 203.947 201.452 202.699 202.699 L 201.452 203.947 128.000 203.947 L 54.548 203.947 53.301 202.699 L 52.053 201.452 52.053 180.053 L 52.053 158.654 50.871 157.472 C 49.873 156.474,49.192 156.242,46.498 155.983 C 42.303 155.579,40.043 155.014,36.759 153.546 C 29.347 150.234,24.203 144.573,21.494 136.747 C 20.466 133.776,20.311 132.669,20.293 128.213 C 20.271 122.583,20.841 119.998,23.113 115.413 C 26.573 108.432,33.347 102.939,40.960 100.939 C 44.115 100.110,51.631 100.096,54.844 100.913 " stroke="none" fill-rule="evenodd"></path></svg>