<svg fill="currentColor" viewBox="0 0 256 256" xmlns="http://www.w3.org/2000/svg"><path d="M78.127 44.542 C 75.859 45.799,75.978 41.495,75.962 122.657 L 75.947 198.168 63.040 185.299 C 54.311 176.595,49.739 172.333,48.915 172.131 C 46.218 171.468,43.477 174.234,44.137 176.952 C 44.534 178.592,77.408 211.466,79.048 211.863 C 79.698 212.021,80.766 211.928,81.420 211.657 C 83.238 210.904,115.511 178.383,115.861 176.952 C 116.525 174.236,113.783 171.468,111.085 172.131 C 110.261 172.333,105.689 176.595,96.960 185.299 L 84.053 198.168 84.053 122.743 C 84.053 40.710,84.199 45.586,81.719 44.456 C 80.300 43.810,79.409 43.831,78.127 44.542 M173.867 44.756 C 171.438 46.286,140.445 77.798,140.139 79.048 C 139.475 81.764,142.217 84.532,144.915 83.869 C 145.739 83.667,150.311 79.405,159.040 70.701 L 171.947 57.832 171.947 133.216 C 171.947 190.753,172.067 208.865,172.456 209.719 C 172.979 210.865,174.783 212.053,176.000 212.053 C 177.217 212.053,179.021 210.865,179.544 209.719 C 179.933 208.865,180.053 190.753,180.053 133.216 L 180.053 57.832 192.960 70.701 C 201.689 79.405,206.261 83.667,207.085 83.869 C 209.783 84.532,212.525 81.764,211.861 79.048 C 211.542 77.745,179.860 45.629,177.835 44.557 C 176.300 43.744,175.401 43.790,173.867 44.756 " stroke="none" fill-rule="evenodd"></path></svg>