<svg fill="currentColor" viewBox="0 0 256 256" xmlns="http://www.w3.org/2000/svg"><path d="M77.867 44.756 C 75.438 46.286,44.445 77.798,44.139 79.048 C 43.980 79.698,44.072 80.766,44.343 81.420 C 45.112 83.278,77.620 115.512,79.085 115.870 C 81.785 116.531,84.526 113.762,83.860 111.048 C 83.669 110.272,79.158 105.442,70.701 96.960 L 57.832 84.053 133.257 84.053 C 215.290 84.053,210.414 84.199,211.544 81.719 C 212.184 80.314,212.184 79.686,211.544 78.281 C 210.414 75.801,215.290 75.947,133.257 75.947 L 57.832 75.947 70.701 63.040 C 79.158 54.558,83.669 49.728,83.860 48.952 C 84.255 47.344,83.342 45.322,81.881 44.567 C 80.292 43.745,79.406 43.787,77.867 44.756 M174.032 140.587 C 172.641 141.342,171.756 143.386,172.140 144.952 C 172.331 145.728,176.842 150.558,185.299 159.040 L 198.168 171.947 122.743 171.947 C 40.710 171.947,45.586 171.801,44.456 174.281 C 43.816 175.686,43.816 176.314,44.456 177.719 C 45.586 180.199,40.710 180.053,122.743 180.053 L 198.168 180.053 185.299 192.960 C 176.842 201.442,172.331 206.272,172.140 207.048 C 171.474 209.762,174.215 212.531,176.915 211.870 C 178.380 211.512,210.888 179.278,211.657 177.420 C 211.928 176.766,212.020 175.698,211.861 175.048 C 211.542 173.745,179.860 141.629,177.835 140.557 C 176.406 139.800,175.465 139.808,174.032 140.587 " stroke="none" fill-rule="evenodd"></path></svg>