<svg fill="currentColor" viewBox="0 0 256 256" xmlns="http://www.w3.org/2000/svg"><path d="M125.184 21.285 C 124.269 21.963,116.464 29.606,107.840 38.270 C 92.793 53.386,92.160 54.087,92.160 55.626 C 92.160 56.508,92.358 57.599,92.599 58.050 C 93.253 59.272,95.469 60.277,96.793 59.953 C 97.500 59.780,102.809 54.802,111.040 46.594 L 124.160 33.512 124.160 65.629 L 124.160 97.745 125.207 98.793 C 125.954 99.539,126.723 99.840,127.886 99.840 C 130.012 99.840,131.276 98.912,131.821 96.947 C 132.106 95.923,132.263 84.467,132.264 64.649 L 132.267 33.939 145.173 46.808 C 153.262 54.872,158.501 59.780,159.207 59.953 C 160.531 60.277,162.747 59.272,163.401 58.050 C 163.642 57.599,163.840 56.508,163.840 55.626 C 163.840 54.087,163.207 53.386,148.160 38.270 C 139.536 29.606,131.731 21.963,130.816 21.285 C 129.901 20.608,128.634 20.053,128.000 20.053 C 127.366 20.053,126.099 20.608,125.184 21.285 M37.266 108.907 C 26.109 120.069,20.432 126.045,20.244 126.827 C 20.088 127.472,20.088 128.528,20.244 129.173 C 20.432 129.955,26.109 135.931,37.266 147.093 C 53.394 163.228,54.065 163.840,55.618 163.840 C 56.504 163.840,57.599 163.642,58.050 163.401 C 59.272 162.747,60.277 160.531,59.953 159.207 C 59.780 158.501,54.872 153.262,46.808 145.173 L 33.939 132.267 64.649 132.264 C 84.467 132.263,95.923 132.106,96.947 131.821 C 98.912 131.276,99.840 130.012,99.840 127.886 C 99.840 126.723,99.539 125.954,98.793 125.207 L 97.745 124.160 65.629 124.160 L 33.512 124.160 46.594 111.040 C 54.802 102.809,59.780 97.500,59.953 96.793 C 60.277 95.469,59.272 93.253,58.050 92.599 C 57.599 92.358,56.504 92.160,55.618 92.160 C 54.065 92.160,53.394 92.772,37.266 108.907 M197.867 92.621 C 196.698 93.302,195.733 95.513,196.047 96.793 C 196.220 97.500,201.198 102.809,209.406 111.040 L 222.488 124.160 190.371 124.160 L 158.255 124.160 157.207 125.207 C 156.461 125.954,156.160 126.723,156.160 127.886 C 156.160 130.012,157.088 131.276,159.053 131.821 C 160.077 132.106,171.533 132.263,191.351 132.264 L 222.061 132.267 209.192 145.173 C 201.128 153.262,196.220 158.501,196.047 159.207 C 195.723 160.531,196.728 162.747,197.950 163.401 C 198.401 163.642,199.496 163.840,200.382 163.840 C 201.935 163.840,202.606 163.228,218.734 147.093 C 229.891 135.931,235.568 129.955,235.756 129.173 C 235.912 128.528,235.912 127.472,235.756 126.827 C 235.568 126.045,229.891 120.069,218.734 108.907 C 202.284 92.450,201.965 92.160,200.304 92.173 C 199.374 92.180,198.277 92.382,197.867 92.621 M125.207 157.207 L 124.160 158.255 124.160 190.371 L 124.160 222.488 111.024 209.377 C 97.912 196.290,97.885 196.267,96.071 196.267 C 93.563 196.267,92.160 197.670,92.160 200.178 L 92.160 201.994 108.907 218.734 C 120.069 229.891,126.045 235.568,126.827 235.756 C 127.472 235.912,128.528 235.912,129.173 235.756 C 129.955 235.568,135.931 229.891,147.093 218.734 L 163.840 201.994 163.840 200.178 C 163.840 197.670,162.437 196.267,159.929 196.267 C 158.116 196.267,158.084 196.295,145.189 209.164 L 132.267 222.061 132.264 191.351 C 132.263 171.533,132.106 160.077,131.821 159.053 C 131.276 157.088,130.012 156.160,127.886 156.160 C 126.723 156.160,125.954 156.461,125.207 157.207 " stroke="none" fill-rule="evenodd"></path></svg>