<svg fill="currentColor" viewBox="0 0 256 256" xmlns="http://www.w3.org/2000/svg"><path d="M129.186 121.056 L 68.285 181.951 68.169 134.247 L 68.053 86.543 66.660 85.298 C 64.905 83.730,63.224 83.685,61.473 85.158 L 60.160 86.263 60.160 140.004 L 60.160 193.745 61.173 194.759 C 61.784 195.369,62.928 195.878,64.053 196.039 C 65.080 196.187,89.216 196.250,117.688 196.180 L 169.457 196.053 170.702 194.660 C 172.270 192.905,172.315 191.224,170.842 189.473 L 169.737 188.160 121.671 188.160 L 73.604 188.160 134.722 127.036 L 195.840 65.913 195.840 64.084 C 195.840 61.557,194.443 60.160,191.916 60.160 L 190.087 60.160 129.186 121.056 " stroke="none" fill-rule="evenodd"></path></svg>