<svg fill="currentColor" viewBox="0 0 256 256" xmlns="http://www.w3.org/2000/svg"><path d="M21.301 85.301 L 20.053 86.548 20.053 120.093 L 20.053 153.639 21.072 154.658 C 21.633 155.218,22.737 155.793,23.526 155.936 C 24.315 156.078,39.484 156.139,57.235 156.071 C 88.820 155.949,89.531 155.928,90.458 155.093 C 91.850 153.838,92.264 152.436,91.725 150.800 C 90.776 147.927,92.171 148.053,61.425 148.053 L 33.647 148.053 49.896 131.999 C 58.833 123.169,67.631 114.709,69.446 113.199 C 79.160 105.121,92.421 98.319,104.541 95.198 C 150.403 83.389,197.114 107.473,214.055 151.663 C 217.246 159.988,219.703 172.274,219.757 180.182 C 219.788 184.590,220.392 186.387,222.195 187.436 C 223.856 188.403,225.319 188.160,226.810 186.669 C 227.778 185.700,227.840 185.351,227.832 180.819 C 227.805 165.447,222.432 147.058,213.769 132.693 C 202.160 113.442,185.420 99.307,164.231 90.866 C 145.974 83.592,124.418 82.146,104.533 86.861 C 90.488 90.192,75.242 97.845,64.027 107.195 C 62.018 108.870,53.125 117.442,44.267 126.245 L 28.160 142.248 28.160 115.134 C 28.160 96.901,28.010 87.590,27.701 86.705 C 26.724 83.901,23.424 83.177,21.301 85.301 " stroke="none" fill-rule="evenodd"></path></svg>