<svg fill="currentColor" viewBox="0 0 256 256" xmlns="http://www.w3.org/2000/svg"><path d="M125.184 21.289 C 124.269 21.969,102.064 44.004,75.840 70.257 L 28.160 117.990 28.160 119.771 C 28.160 121.039,28.457 121.898,29.190 122.750 L 30.219 123.947 53.083 124.064 L 75.947 124.182 75.947 154.671 L 75.947 185.160 77.192 186.553 L 78.437 187.947 128.000 187.947 L 177.563 187.947 178.808 186.553 L 180.053 185.160 180.053 154.671 L 180.053 124.182 202.917 124.064 L 225.781 123.947 226.810 122.750 C 227.543 121.898,227.840 121.039,227.840 119.771 L 227.840 117.990 180.160 70.257 C 153.936 44.004,131.731 21.969,130.816 21.289 C 128.714 19.728,127.286 19.728,125.184 21.289 M171.307 72.960 L 214.398 116.053 194.476 116.053 L 174.554 116.053 173.357 117.083 L 172.160 118.113 172.045 149.083 L 171.930 180.053 128.000 180.053 L 84.070 180.053 83.955 149.083 L 83.840 118.113 82.643 117.083 L 81.446 116.053 61.524 116.053 L 41.602 116.053 84.693 72.960 C 108.394 49.259,127.882 29.867,128.000 29.867 C 128.118 29.867,147.606 49.259,171.307 72.960 M77.449 213.013 C 76.801 213.577,76.243 214.610,76.099 215.515 C 75.892 216.816,76.055 217.281,77.145 218.501 L 78.437 219.947 128.000 219.947 L 177.563 219.947 178.855 218.501 C 179.945 217.281,180.108 216.816,179.901 215.515 C 179.757 214.610,179.199 213.577,178.551 213.013 L 177.446 212.053 128.000 212.053 L 78.554 212.053 77.449 213.013 " stroke="none" fill-rule="evenodd"></path></svg>