<svg fill="currentColor" viewBox="0 0 256 256" xmlns="http://www.w3.org/2000/svg"><path d="M122.667 36.311 C 103.333 37.285,83.979 44.892,69.333 57.271 C 67.221 59.056,57.141 68.176,46.933 77.537 L 28.373 94.557 28.160 74.692 C 28.043 63.766,27.787 54.502,27.591 54.106 C 26.469 51.831,23.189 51.412,21.301 53.301 L 20.053 54.548 20.053 80.000 L 20.053 105.452 21.301 106.699 L 22.548 107.947 48.000 107.947 L 73.452 107.947 74.699 106.699 C 76.329 105.070,76.413 102.827,74.899 101.314 L 73.852 100.267 54.171 100.267 C 43.346 100.267,34.553 100.109,34.631 99.916 C 34.758 99.602,68.860 68.162,73.149 64.404 C 83.526 55.311,97.871 48.317,111.573 45.667 C 129.670 42.168,147.759 44.431,164.053 52.232 C 173.503 56.757,180.194 61.497,187.538 68.871 C 218.795 100.253,220.136 150.685,190.598 183.893 C 177.602 198.504,160.964 207.535,140.568 211.049 C 134.719 212.056,121.320 212.060,115.413 211.055 C 106.306 209.505,97.998 206.868,90.698 203.211 C 83.773 199.741,79.860 197.074,71.110 189.861 C 68.487 187.699,66.660 187.567,64.821 189.407 C 62.254 191.973,63.504 194.275,70.425 199.726 C 85.259 211.410,102.397 218.175,121.173 219.758 C 142.734 221.576,165.824 214.733,183.680 201.234 C 188.110 197.885,196.438 189.748,199.805 185.479 C 214.181 167.251,221.452 144.116,219.781 121.923 C 217.271 88.595,197.968 59.902,168.298 45.397 C 154.070 38.441,139.191 35.479,122.667 36.311 " stroke="none" fill-rule="evenodd"></path></svg>