<svg fill="currentColor" viewBox="0 0 256 256" xmlns="http://www.w3.org/2000/svg"><path d="M126.720 12.224 C 126.368 12.357,118.448 20.076,109.120 29.378 C 92.212 46.238,92.160 46.295,92.160 48.067 C 92.160 49.528,92.394 50.041,93.473 50.949 C 96.264 53.298,96.098 53.414,110.500 39.040 C 117.671 31.883,123.678 26.027,123.849 26.027 C 124.020 26.027,124.160 42.163,124.160 61.886 L 124.160 97.745 125.207 98.793 C 125.954 99.539,126.723 99.840,127.886 99.840 C 130.012 99.840,131.276 98.912,131.821 96.947 C 132.108 95.915,132.263 83.203,132.264 60.596 L 132.267 25.832 145.403 38.943 C 157.303 50.820,158.671 52.053,159.942 52.053 C 161.986 52.053,163.840 50.089,163.840 47.924 C 163.840 46.341,163.309 45.758,146.880 29.339 C 129.657 12.126,128.832 11.426,126.720 12.224 M37.331 125.190 C 36.765 125.756,36.178 126.713,36.027 127.315 C 35.629 128.898,37.030 131.081,38.848 131.709 C 40.981 132.447,215.019 132.447,217.152 131.709 C 218.970 131.081,220.371 128.898,219.973 127.315 C 219.822 126.713,219.235 125.756,218.669 125.190 L 217.639 124.160 128.000 124.160 L 38.361 124.160 37.331 125.190 M125.207 157.207 L 124.160 158.255 124.160 194.114 C 124.160 213.837,124.017 229.973,123.843 229.973 C 123.668 229.973,117.719 224.170,110.623 217.076 C 98.049 204.508,97.678 204.179,96.031 204.179 C 93.643 204.179,92.160 205.633,92.160 207.975 C 92.160 209.705,92.312 209.873,109.346 226.887 C 125.344 242.867,126.633 244.053,128.006 244.053 C 129.380 244.053,130.665 242.870,146.661 226.874 C 163.643 209.892,163.840 209.675,163.840 207.962 C 163.840 205.634,162.351 204.179,159.969 204.179 C 158.322 204.179,157.950 204.508,145.273 217.180 L 132.267 230.181 132.264 195.411 C 132.263 172.800,132.108 160.085,131.821 159.053 C 131.276 157.088,130.012 156.160,127.886 156.160 C 126.723 156.160,125.954 156.461,125.207 157.207 " stroke="none" fill-rule="evenodd"></path></svg>