<svg fill="currentColor" viewBox="0 0 256 256" xmlns="http://www.w3.org/2000/svg"><path d="M118.613 28.464 C 110.565 29.114,98.652 32.003,90.782 35.214 C 59.612 47.931,37.421 74.312,30.138 107.307 C 27.496 119.279,27.496 136.721,30.138 148.693 C 34.441 168.185,43.446 184.693,57.377 198.623 C 71.307 212.554,87.815 221.559,107.307 225.862 C 119.279 228.504,136.721 228.504,148.693 225.862 C 168.098 221.579,184.802 212.474,198.638 198.638 C 214.932 182.343,224.819 161.762,227.445 138.671 C 228.165 132.336,227.709 117.227,226.621 111.360 C 223.614 95.153,217.576 81.024,208.365 68.641 C 191.765 46.323,167.094 32.009,139.708 28.805 C 134.728 28.223,123.794 28.046,118.613 28.464 M141.450 37.088 C 151.293 38.536,159.191 40.985,168.320 45.421 C 195.814 58.779,214.837 85.062,219.065 115.535 C 219.837 121.096,219.960 133.911,219.290 138.956 C 216.572 159.430,208.181 177.095,194.306 191.550 C 186.556 199.624,178.023 205.880,168.394 210.544 C 146.182 221.305,122.141 222.924,98.987 215.218 C 75.515 207.406,56.191 190.487,45.421 168.320 C 38.959 155.019,36.271 143.174,36.271 128.000 C 36.271 112.826,38.959 100.981,45.421 87.680 C 58.548 60.660,84.406 41.633,114.133 37.120 C 121.418 36.014,134.048 35.999,141.450 37.088 M125.473 85.158 L 124.160 86.263 124.160 122.375 L 124.160 158.488 111.024 145.377 C 97.912 132.290,97.885 132.267,96.071 132.267 C 93.563 132.267,92.160 133.670,92.160 136.178 L 92.160 137.994 108.907 154.734 C 120.069 165.891,126.045 171.568,126.827 171.756 C 127.472 171.912,128.528 171.912,129.173 171.756 C 129.955 171.568,135.931 165.891,147.093 154.734 L 163.840 137.994 163.840 136.178 C 163.840 133.670,162.437 132.267,159.929 132.267 C 158.116 132.267,158.084 132.295,145.201 145.152 L 132.290 158.038 132.172 122.290 L 132.053 86.543 130.660 85.298 C 128.905 83.730,127.224 83.685,125.473 85.158 " stroke="none" fill-rule="evenodd"></path></svg>