<svg fill="currentColor" viewBox="0 0 256 256" xmlns="http://www.w3.org/2000/svg"><path d="M158.720 44.248 C 157.100 44.840,156.160 46.231,156.160 48.036 C 156.160 49.531,156.387 50.035,157.473 50.949 L 158.785 52.053 178.482 52.053 L 198.178 52.053 169.301 80.960 C 149.644 100.637,140.332 110.244,140.137 111.048 C 139.477 113.764,142.215 116.529,144.915 115.872 C 145.767 115.665,154.814 106.904,175.040 86.699 L 203.947 57.822 203.947 77.518 L 203.947 97.215 205.051 98.527 C 206.588 100.353,209.018 100.381,210.806 98.593 L 212.053 97.346 212.053 72.332 C 212.053 45.190,212.082 45.533,209.719 44.456 C 208.890 44.079,202.222 43.955,183.980 43.980 C 170.439 43.999,159.072 44.119,158.720 44.248 M110.293 140.436 C 109.824 140.690,96.528 153.788,80.747 169.541 L 52.053 198.184 52.053 178.419 L 52.053 158.654 50.806 157.407 C 49.883 156.484,49.154 156.160,48.000 156.160 C 46.846 156.160,46.117 156.484,45.194 157.407 L 43.947 158.654 43.947 183.668 C 43.947 210.810,43.918 210.467,46.281 211.544 C 47.108 211.920,53.920 212.053,72.373 212.053 L 97.346 212.053 98.593 210.806 C 100.270 209.129,100.334 206.693,98.739 205.194 L 97.639 204.160 77.743 204.041 L 57.847 203.922 86.711 175.028 C 106.360 155.359,115.668 145.756,115.863 144.952 C 116.630 141.795,113.085 138.921,110.293 140.436 " stroke="none" fill-rule="evenodd"></path></svg>