<svg fill="currentColor" viewBox="0 0 256 256" xmlns="http://www.w3.org/2000/svg"><path d="M77.867 44.757 C 77.163 45.201,65.691 56.485,52.373 69.831 L 28.160 94.098 28.160 95.921 C 28.160 98.440,29.560 99.840,32.077 99.840 L 33.900 99.840 54.923 78.832 L 75.947 57.825 75.947 125.546 L 75.947 193.267 77.192 194.660 L 78.437 196.053 150.258 196.179 C 189.760 196.248,222.920 196.185,223.947 196.038 C 226.496 195.674,227.840 194.280,227.840 192.000 C 227.840 190.716,227.563 189.978,226.793 189.207 L 225.745 188.160 154.899 188.160 L 84.053 188.160 84.053 122.992 L 84.053 57.825 105.077 78.832 L 126.100 99.840 127.923 99.840 C 130.440 99.840,131.840 98.440,131.840 95.921 L 131.840 94.097 107.413 69.633 C 93.979 56.178,82.468 44.894,81.835 44.558 C 80.300 43.744,79.401 43.789,77.867 44.757 " stroke="none" fill-rule="evenodd"></path></svg>