<svg fill="currentColor" viewBox="0 0 256 256" xmlns="http://www.w3.org/2000/svg"><path d="M46.032 44.587 C 44.644 45.341,43.756 47.385,44.137 48.952 C 44.332 49.752,52.395 58.114,69.146 74.885 C 82.742 88.498,93.867 99.778,93.867 99.952 C 93.867 100.125,86.754 100.267,78.061 100.267 L 62.255 100.267 61.207 101.314 C 59.626 102.896,59.745 105.389,61.473 106.842 L 62.785 107.947 84.119 107.947 L 105.452 107.947 106.699 106.699 L 107.947 105.452 107.947 84.119 L 107.947 62.785 106.842 61.473 C 105.034 59.324,101.802 59.737,100.484 62.285 C 99.945 63.328,99.840 66.016,99.840 78.804 L 99.840 94.077 75.200 69.483 C 61.648 55.956,50.141 44.677,49.628 44.418 C 48.404 43.799,47.394 43.846,46.032 44.587 M206.293 44.436 C 205.824 44.690,194.352 55.964,180.800 69.488 L 156.160 94.077 156.160 78.804 C 156.160 66.016,156.055 63.328,155.516 62.285 C 154.198 59.737,150.966 59.324,149.158 61.473 L 148.053 62.785 148.053 84.119 L 148.053 105.452 149.301 106.699 L 150.548 107.947 171.881 107.947 L 193.215 107.947 194.527 106.842 C 196.255 105.389,196.374 102.896,194.793 101.314 L 193.745 100.267 177.939 100.267 C 169.246 100.267,162.133 100.125,162.133 99.952 C 162.133 99.778,173.258 88.498,186.854 74.885 C 203.605 58.114,211.668 49.752,211.863 48.952 C 212.630 45.796,209.085 42.921,206.293 44.436 M61.473 149.158 C 59.324 150.966,59.737 154.198,62.285 155.516 C 63.328 156.055,66.016 156.160,78.801 156.160 L 94.070 156.160 69.247 181.013 C 52.426 197.855,44.332 206.248,44.137 207.048 C 43.477 209.764,46.216 212.529,48.915 211.872 C 49.764 211.665,57.672 204.046,74.987 186.753 L 99.840 161.930 99.840 177.199 C 99.840 189.984,99.945 192.672,100.484 193.715 C 101.802 196.263,105.034 196.676,106.842 194.527 L 107.947 193.215 107.947 171.881 L 107.947 150.548 106.699 149.301 L 105.452 148.053 84.119 148.053 L 62.785 148.053 61.473 149.158 M149.301 149.301 L 148.053 150.548 148.053 171.881 L 148.053 193.215 149.158 194.527 C 150.966 196.676,154.198 196.263,155.516 193.715 C 156.055 192.672,156.160 189.984,156.160 177.199 L 156.160 161.930 181.013 186.753 C 197.855 203.574,206.248 211.668,207.048 211.863 C 209.764 212.523,212.529 209.784,211.872 207.085 C 211.665 206.236,204.046 198.328,186.753 181.013 L 161.930 156.160 177.199 156.160 C 189.984 156.160,192.672 156.055,193.715 155.516 C 196.263 154.198,196.676 150.966,194.527 149.158 L 193.215 148.053 171.881 148.053 L 150.548 148.053 149.301 149.301 " stroke="none" fill-rule="evenodd"></path></svg>