<svg fill="currentColor" viewBox="0 0 256 256" xmlns="http://www.w3.org/2000/svg"><path d="M89.069 73.283 C 53.676 108.676,52.053 110.366,52.053 111.839 C 52.053 114.788,55.170 116.889,57.662 115.619 C 58.214 115.338,73.403 100.394,91.413 82.411 L 124.160 49.714 124.160 133.676 L 124.160 217.639 125.190 218.669 C 125.756 219.235,126.713 219.822,127.315 219.973 C 128.898 220.371,131.081 218.970,131.709 217.152 C 132.097 216.032,132.224 195.878,132.243 132.910 L 132.267 50.141 164.800 82.624 C 182.693 100.490,197.786 115.338,198.338 115.619 C 200.830 116.889,203.947 114.788,203.947 111.839 C 203.947 110.366,202.324 108.676,166.931 73.283 L 129.914 36.267 128.000 36.267 L 126.086 36.267 89.069 73.283 " stroke="none" fill-rule="evenodd"></path></svg>