<svg fill="currentColor" viewBox="0 0 256 256" xmlns="http://www.w3.org/2000/svg"><path d="M61.473 53.158 L 60.160 54.263 60.160 103.951 L 60.160 153.639 61.190 154.669 C 61.756 155.235,62.713 155.822,63.315 155.973 C 64.898 156.371,67.081 154.970,67.709 153.152 C 68.090 152.051,68.225 140.862,68.243 108.802 L 68.267 65.925 121.284 118.936 C 172.083 169.729,174.366 171.947,175.840 171.947 C 178.787 171.947,180.888 168.830,179.620 166.338 C 179.339 165.786,155.467 141.669,126.570 112.747 L 74.031 60.160 117.250 60.160 C 154.964 60.160,160.628 60.078,161.715 59.516 C 164.263 58.198,164.676 54.966,162.527 53.158 L 161.215 52.053 112.000 52.053 L 62.785 52.053 61.473 53.158 M37.675 212.809 C 35.613 214.430,35.493 217.151,37.404 218.946 L 38.469 219.947 127.990 219.947 C 216.910 219.947,217.517 219.941,218.458 219.093 C 219.850 217.838,220.264 216.436,219.725 214.800 C 218.738 211.811,226.841 212.052,127.908 212.063 C 43.958 212.072,38.557 212.116,37.675 212.809 " stroke="none" fill-rule="evenodd"></path></svg>