<svg fill="currentColor" viewBox="0 0 256 256" xmlns="http://www.w3.org/2000/svg"><path d="M69.088 37.368 L 68.053 38.468 67.929 70.754 C 67.861 88.511,67.922 103.712,68.064 104.533 C 68.287 105.814,72.304 110.011,96.242 133.978 L 124.160 161.929 124.160 192.208 L 124.160 222.488 111.024 209.377 C 97.912 196.290,97.885 196.267,96.071 196.267 C 93.563 196.267,92.160 197.670,92.160 200.178 L 92.160 201.994 108.907 218.734 C 120.069 229.891,126.045 235.568,126.827 235.756 C 127.472 235.912,128.528 235.912,129.173 235.756 C 129.955 235.568,135.931 229.891,147.093 218.734 L 163.840 201.994 163.840 200.178 C 163.840 197.670,162.437 196.267,159.929 196.267 C 158.116 196.267,158.084 196.295,145.189 209.164 L 132.267 222.061 132.267 191.782 L 132.267 161.502 159.971 133.764 C 183.723 109.984,187.713 105.814,187.936 104.533 C 188.078 103.712,188.139 88.511,188.071 70.754 L 187.947 38.468 186.912 37.368 C 185.477 35.840,182.601 35.814,181.101 37.314 L 180.053 38.361 180.053 70.275 L 180.053 102.189 154.027 128.213 L 128.000 154.237 101.973 128.213 L 75.947 102.189 75.947 70.275 L 75.947 38.361 74.899 37.314 C 73.399 35.814,70.523 35.840,69.088 37.368 " stroke="none" fill-rule="evenodd"></path></svg>