<svg fill="currentColor" viewBox="0 0 256 256" xmlns="http://www.w3.org/2000/svg"><path d="M125.207 37.314 L 124.160 38.361 124.160 128.000 L 124.160 217.639 125.190 218.669 C 125.756 219.235,126.713 219.822,127.315 219.973 C 128.898 220.371,131.081 218.970,131.709 217.152 C 132.386 215.195,132.495 41.587,131.821 39.159 C 131.276 37.195,130.012 36.267,127.886 36.267 C 126.723 36.267,125.954 36.567,125.207 37.314 M61.207 93.207 C 60.423 93.991,60.160 94.711,60.160 96.071 C 60.160 97.885,60.183 97.912,73.271 111.024 L 86.382 124.160 50.411 124.160 L 14.441 124.160 13.194 125.407 C 11.539 127.062,11.538 128.809,13.192 130.660 L 14.436 132.053 50.184 132.172 L 85.931 132.290 73.045 145.201 C 60.189 158.084,60.160 158.116,60.160 159.929 C 60.160 162.441,61.563 163.840,64.081 163.840 L 65.908 163.840 82.874 146.874 L 99.840 129.908 99.840 128.000 L 99.840 126.092 82.874 109.126 L 65.908 92.160 64.081 92.160 C 62.711 92.160,61.993 92.421,61.207 93.207 M173.126 109.126 L 156.160 126.092 156.160 128.000 L 156.160 129.908 173.126 146.874 L 190.092 163.840 191.919 163.840 C 194.437 163.840,195.840 162.441,195.840 159.929 C 195.840 158.116,195.812 158.084,182.943 145.189 L 170.045 132.267 204.596 132.264 C 226.960 132.263,239.704 132.107,240.727 131.823 C 243.995 130.915,245.052 127.653,242.806 125.407 L 241.559 124.160 205.589 124.160 L 169.618 124.160 182.729 111.024 C 195.817 97.912,195.840 97.885,195.840 96.071 C 195.840 93.559,194.437 92.160,191.919 92.160 L 190.092 92.160 173.126 109.126 " stroke="none" fill-rule="evenodd"></path></svg>