<svg fill="currentColor" viewBox="0 0 256 256" xmlns="http://www.w3.org/2000/svg"><path d="M190.720 28.464 C 182.672 29.114,170.758 32.003,162.889 35.214 C 132.296 47.695,110.167 73.471,102.642 105.387 C 100.040 116.421,100.122 114.569,99.950 166.366 L 99.792 213.906 79.016 193.169 C 65.076 179.255,57.851 172.336,57.058 172.141 C 55.626 171.788,53.533 172.584,52.676 173.807 C 52.334 174.296,52.053 175.372,52.053 176.198 C 52.053 177.613,53.483 179.128,77.124 202.769 L 102.195 227.840 104.095 227.840 L 105.995 227.840 130.434 203.426 C 143.875 189.998,155.167 178.389,155.528 177.629 C 156.367 175.861,155.996 174.377,154.374 173.012 C 152.995 171.852,151.922 171.688,150.479 172.418 C 149.966 172.677,140.180 182.229,128.732 193.645 L 107.918 214.400 108.063 166.827 C 108.222 114.537,108.126 116.593,110.928 105.329 C 116.368 83.456,130.310 63.935,149.588 51.199 C 163.305 42.137,178.232 37.257,195.185 36.291 L 201.569 35.927 202.758 34.597 C 204.268 32.907,204.296 31.201,202.842 29.473 L 201.737 28.160 197.189 28.235 C 194.687 28.276,191.776 28.379,190.720 28.464 " stroke="none" fill-rule="evenodd"></path></svg>