<svg fill="currentColor" viewBox="0 0 256 256" xmlns="http://www.w3.org/2000/svg"><path d="M173.867 44.757 C 173.163 45.201,161.691 56.485,148.373 69.831 L 124.160 94.098 124.160 95.921 C 124.160 98.440,125.560 99.840,128.077 99.840 L 129.900 99.840 150.923 78.832 L 171.947 57.825 171.947 122.992 L 171.947 188.160 101.101 188.160 L 30.255 188.160 29.207 189.207 C 28.461 189.954,28.160 190.723,28.160 191.886 C 28.160 194.012,29.088 195.276,31.053 195.821 C 33.252 196.432,174.528 196.434,176.727 195.823 C 177.597 195.581,178.701 194.885,179.181 194.274 C 180.051 193.167,180.053 193.020,180.053 125.495 L 180.053 57.825 201.077 78.832 L 222.100 99.840 223.923 99.840 C 226.440 99.840,227.840 98.440,227.840 95.921 L 227.840 94.097 203.413 69.633 C 189.979 56.178,178.468 44.894,177.835 44.558 C 176.300 43.744,175.401 43.789,173.867 44.757 " stroke="none" fill-rule="evenodd"></path></svg>