<svg fill="currentColor" viewBox="0 0 256 256" xmlns="http://www.w3.org/2000/svg"><path d="M61.207 61.207 C 60.421 61.993,60.160 62.711,60.160 64.084 L 60.160 65.913 121.278 127.036 L 182.396 188.160 134.329 188.160 L 86.263 188.160 85.158 189.473 C 83.685 191.224,83.730 192.905,85.298 194.660 L 86.543 196.053 139.824 196.053 C 199.700 196.053,194.905 196.325,195.831 192.885 C 196.141 191.737,196.247 174.703,196.168 138.875 L 196.053 86.543 194.660 85.298 C 192.905 83.730,191.224 83.685,189.473 85.158 L 188.160 86.263 188.160 134.329 L 188.160 182.396 127.036 121.278 L 65.913 60.160 64.084 60.160 C 62.711 60.160,61.993 60.421,61.207 61.207 " stroke="none" fill-rule="evenodd"></path></svg>