<svg fill="currentColor" viewBox="0 0 256 256" xmlns="http://www.w3.org/2000/svg"><path d="M157.207 29.207 C 156.422 29.992,156.160 30.711,156.160 32.077 L 156.160 33.900 177.164 54.919 L 198.167 75.939 130.265 76.049 L 62.362 76.160 61.261 77.194 L 60.160 78.229 60.160 151.987 L 60.160 225.745 61.207 226.793 C 61.954 227.539,62.723 227.840,63.886 227.840 C 66.012 227.840,67.276 226.912,67.821 224.947 C 68.116 223.885,68.263 200.322,68.264 153.707 L 68.267 84.053 133.221 84.053 L 198.175 84.053 177.168 105.077 L 156.160 126.100 156.160 127.923 C 156.160 130.440,157.560 131.840,160.079 131.840 L 161.903 131.840 186.535 107.221 C 200.083 93.681,211.388 82.069,211.659 81.416 C 211.929 80.764,212.021 79.698,211.864 79.048 C 211.670 78.246,203.608 69.890,186.745 53.013 L 161.912 28.160 160.083 28.160 C 158.711 28.160,157.993 28.421,157.207 29.207 " stroke="none" fill-rule="evenodd"></path></svg>