<svg fill="currentColor" viewBox="0 0 256 256" xmlns="http://www.w3.org/2000/svg"><path d="M134.400 28.816 C 129.089 29.656,123.676 31.343,118.716 33.706 C 101.326 41.990,90.096 56.004,85.211 75.520 C 84.309 79.122,84.301 79.600,84.071 146.668 L 83.840 214.190 63.360 193.681 C 52.096 182.401,42.362 172.896,41.728 172.559 C 40.083 171.685,39.071 171.797,37.626 173.012 C 36.004 174.377,35.633 175.861,36.472 177.629 C 36.833 178.389,48.125 189.998,61.566 203.426 L 86.005 227.840 87.905 227.840 L 89.805 227.840 114.876 202.769 C 138.517 179.128,139.947 177.613,139.947 176.198 C 139.947 175.372,139.666 174.296,139.324 173.807 C 138.467 172.584,136.374 171.788,134.942 172.141 C 134.149 172.336,126.917 179.262,112.960 193.193 L 92.160 213.953 92.160 148.419 C 92.160 76.502,92.058 79.558,94.726 71.595 C 98.057 61.650,104.562 52.610,112.828 46.435 C 117.286 43.105,125.381 39.159,130.773 37.689 C 134.787 36.594,135.571 36.525,144.000 36.525 C 152.456 36.525,153.200 36.591,157.227 37.698 C 175.832 42.815,189.532 56.874,194.675 76.127 C 195.586 79.537,195.598 80.094,195.825 128.568 L 196.053 177.564 197.499 178.855 C 198.719 179.945,199.184 180.108,200.485 179.901 C 201.397 179.756,202.424 179.198,203.000 178.535 L 203.974 177.414 203.833 128.280 C 203.693 79.881,203.678 79.092,202.786 75.520 C 197.929 56.050,186.657 41.982,169.284 33.706 C 161.220 29.865,153.145 28.137,143.573 28.204 C 140.523 28.225,136.395 28.501,134.400 28.816 " stroke="none" fill-rule="evenodd"></path></svg>