<svg fill="currentColor" viewBox="0 0 256 256" xmlns="http://www.w3.org/2000/svg"><path d="M133.250 29.190 L 132.053 30.219 131.936 53.083 L 131.818 75.947 117.329 75.947 L 102.840 75.947 101.447 77.192 L 100.053 78.437 100.053 128.000 L 100.053 177.563 101.447 178.808 L 102.840 180.053 117.329 180.053 L 131.818 180.053 131.936 202.917 L 132.053 225.781 133.250 226.810 C 134.103 227.544,134.961 227.840,136.231 227.840 L 138.015 227.840 186.745 179.093 C 220.126 145.701,235.563 129.977,235.757 129.173 C 235.912 128.528,235.912 127.472,235.757 126.827 C 235.563 126.023,220.126 110.299,186.745 76.907 L 138.015 28.160 136.231 28.160 C 134.961 28.160,134.103 28.456,133.250 29.190 M183.146 171.200 L 139.947 214.399 139.947 194.638 C 139.947 181.901,139.791 174.585,139.507 174.056 C 138.441 172.064,137.485 171.947,122.261 171.947 L 107.947 171.947 107.947 128.016 L 107.947 84.085 122.917 83.962 L 137.888 83.840 138.917 82.643 L 139.947 81.446 139.947 61.523 L 139.947 41.601 183.146 84.800 L 226.346 128.000 183.146 171.200 M37.447 77.192 L 36.053 78.437 36.053 128.000 L 36.053 177.563 37.499 178.855 C 38.719 179.945,39.184 180.108,40.485 179.901 C 41.390 179.757,42.423 179.199,42.987 178.551 L 43.947 177.446 43.947 128.161 C 43.947 95.175,43.801 78.606,43.507 78.056 C 42.988 77.086,40.936 75.947,39.708 75.947 C 39.231 75.947,38.213 76.507,37.447 77.192 M69.447 77.192 L 68.053 78.437 68.053 128.000 L 68.053 177.563 69.499 178.855 C 70.719 179.945,71.184 180.108,72.485 179.901 C 73.390 179.757,74.423 179.199,74.987 178.551 L 75.947 177.446 75.947 128.161 C 75.947 95.175,75.801 78.606,75.507 78.056 C 74.988 77.086,72.936 75.947,71.708 75.947 C 71.231 75.947,70.213 76.507,69.447 77.192 " stroke="none" fill-rule="evenodd"></path></svg>