<svg fill="currentColor" viewBox="0 0 256 256" xmlns="http://www.w3.org/2000/svg"><path d="M21.301 53.301 C 20.451 54.150,20.053 54.975,20.053 55.889 C 20.053 59.394,21.812 60.160,29.853 60.160 L 35.840 60.160 35.840 96.213 L 35.840 132.267 28.994 132.267 C 22.294 132.267,22.125 132.289,21.101 133.314 C 19.587 134.827,19.671 137.070,21.301 138.699 L 22.548 139.947 35.997 139.947 C 49.332 139.947,49.455 139.939,50.551 138.987 C 51.192 138.429,51.757 137.390,51.897 136.510 C 52.093 135.277,51.923 134.738,50.991 133.630 C 49.920 132.356,49.663 132.267,47.095 132.267 C 45.289 132.267,44.277 132.084,44.143 131.733 C 44.031 131.440,43.989 117.497,44.050 100.749 L 44.160 70.298 60.117 95.842 C 68.893 109.892,76.615 121.953,77.277 122.645 C 78.939 124.384,81.061 124.384,82.722 122.645 C 83.384 121.953,90.989 110.059,99.622 96.213 C 108.256 82.368,115.485 70.858,115.686 70.635 C 115.892 70.408,116.053 83.907,116.053 101.248 L 116.053 132.267 113.105 132.267 C 110.312 132.267,110.095 132.339,109.009 133.630 C 108.077 134.738,107.907 135.277,108.103 136.510 C 108.243 137.390,108.808 138.429,109.449 138.987 C 110.545 139.939,110.668 139.947,124.003 139.947 L 137.452 139.947 138.699 138.699 C 140.329 137.070,140.413 134.827,138.899 133.314 C 137.875 132.289,137.706 132.267,131.006 132.267 L 124.160 132.267 124.160 96.213 L 124.160 60.160 130.147 60.160 C 138.188 60.160,139.947 59.394,139.947 55.889 C 139.947 54.975,139.549 54.150,138.699 53.301 L 137.452 52.053 128.040 52.053 L 118.627 52.053 117.388 53.227 C 116.707 53.872,108.034 67.417,98.116 83.327 C 88.198 99.237,79.942 112.101,79.770 111.914 C 79.598 111.726,71.446 98.709,61.653 82.987 C 51.861 67.264,43.293 53.872,42.611 53.227 L 41.373 52.053 31.960 52.053 L 22.548 52.053 21.301 53.301 M165.243 101.227 C 164.760 101.755,164.238 102.605,164.084 103.115 C 163.721 104.312,164.799 106.891,165.909 107.486 C 166.507 107.806,178.178 107.947,204.108 107.947 L 241.446 107.947 242.551 106.987 C 243.192 106.429,243.757 105.390,243.897 104.510 C 244.093 103.277,243.923 102.738,242.991 101.630 L 241.844 100.267 203.983 100.267 L 166.122 100.267 165.243 101.227 M165.243 133.227 C 164.760 133.755,164.238 134.605,164.084 135.115 C 163.721 136.312,164.799 138.891,165.909 139.486 C 166.507 139.806,178.178 139.947,204.108 139.947 L 241.446 139.947 242.551 138.987 C 243.192 138.429,243.757 137.390,243.897 136.510 C 244.093 135.277,243.923 134.738,242.991 133.630 L 241.844 132.267 203.983 132.267 L 166.122 132.267 165.243 133.227 M69.243 165.227 C 68.760 165.755,68.238 166.605,68.084 167.115 C 67.721 168.312,68.799 170.891,69.909 171.486 C 70.518 171.811,95.794 171.947,156.108 171.947 L 241.446 171.947 242.551 170.987 C 243.192 170.429,243.757 169.390,243.897 168.510 C 244.093 167.277,243.923 166.738,242.991 165.630 L 241.844 164.267 155.983 164.267 L 70.122 164.267 69.243 165.227 M69.243 197.227 C 68.760 197.755,68.238 198.605,68.084 199.115 C 67.721 200.312,68.799 202.891,69.909 203.486 C 70.518 203.811,95.794 203.947,156.108 203.947 L 241.446 203.947 242.551 202.987 C 243.192 202.429,243.757 201.390,243.897 200.510 C 244.093 199.277,243.923 198.738,242.991 197.630 L 241.844 196.267 155.983 196.267 L 70.122 196.267 69.243 197.227 " stroke="none" fill-rule="evenodd"></path></svg>