<svg fill="currentColor" viewBox="0 0 256 256" xmlns="http://www.w3.org/2000/svg"><path d="M39.040 52.550 C 37.867 52.770,35.333 53.709,33.409 54.637 C 22.844 59.730,17.517 72.452,21.300 83.558 C 23.074 88.765,27.261 94.049,31.590 96.539 L 33.135 97.429 31.890 100.391 C 29.474 106.141,28.497 110.950,28.274 118.187 C 28.124 123.050,28.247 125.816,28.737 128.640 C 31.197 142.799,39.317 155.313,51.156 163.190 C 75.803 179.588,108.609 172.301,124.432 146.915 C 127.269 142.364,129.398 137.081,129.079 135.384 C 128.562 132.626,125.025 131.341,122.790 133.099 C 122.208 133.557,121.391 134.853,120.975 135.979 C 116.713 147.503,106.068 157.606,93.867 161.709 C 91.481 162.511,85.611 163.840,84.453 163.840 C 84.240 163.840,84.024 153.897,83.957 140.976 L 83.840 118.112 82.643 117.083 C 81.060 115.722,78.940 115.722,77.357 117.083 L 76.160 118.112 76.042 141.012 L 75.925 163.911 74.122 163.634 C 55.438 160.765,40.794 147.105,37.072 129.076 C 36.104 124.384,36.008 116.198,36.868 111.718 C 37.988 105.883,40.265 100.394,43.653 95.360 C 45.912 92.003,51.186 86.562,54.400 84.271 C 59.098 80.922,66.545 77.665,71.045 76.990 C 72.963 76.703,73.138 76.789,93.816 88.270 C 114.508 99.759,114.671 99.840,117.167 99.835 C 124.635 99.820,132.983 94.739,136.890 87.830 C 139.662 82.928,140.612 76.050,139.291 70.444 C 136.888 60.251,126.915 52.107,116.779 52.061 C 113.284 52.045,111.203 54.526,112.370 57.316 C 113.228 59.369,114.054 59.811,117.721 60.181 C 122.176 60.630,125.236 62.138,128.210 65.351 C 131.404 68.801,132.382 71.558,132.196 76.587 C 132.078 79.749,131.842 80.857,130.855 82.866 C 128.604 87.452,124.534 90.623,119.542 91.683 L 117.270 92.165 81.185 72.109 C 41.476 50.040,44.623 51.500,39.040 52.550 M52.933 65.573 L 62.621 70.985 59.388 72.391 C 50.995 76.039,42.680 82.705,37.759 89.730 C 37.149 90.602,37.118 90.594,34.786 88.988 C 31.965 87.045,29.330 83.310,28.582 80.196 C 27.858 77.176,28.221 71.963,29.330 69.472 C 31.454 64.697,37.512 60.253,41.996 60.180 C 42.827 60.167,46.483 61.969,52.933 65.573 M157.207 101.314 C 155.626 102.896,155.745 105.389,157.473 106.842 L 158.785 107.947 200.116 107.947 L 241.446 107.947 242.551 106.987 C 243.192 106.429,243.757 105.390,243.897 104.510 C 244.093 103.277,243.923 102.738,242.991 101.630 L 241.844 100.267 200.049 100.267 L 158.255 100.267 157.207 101.314 M157.207 133.314 C 155.626 134.896,155.745 137.389,157.473 138.842 L 158.785 139.947 200.116 139.947 L 241.446 139.947 242.551 138.987 C 243.192 138.429,243.757 137.390,243.897 136.510 C 244.093 135.277,243.923 134.738,242.991 133.630 L 241.844 132.267 200.049 132.267 L 158.255 132.267 157.207 133.314 M157.207 165.314 C 155.626 166.896,155.745 169.389,157.473 170.842 L 158.785 171.947 200.116 171.947 L 241.446 171.947 242.551 170.987 C 243.192 170.429,243.757 169.390,243.897 168.510 C 244.093 167.277,243.923 166.738,242.991 165.630 L 241.844 164.267 200.049 164.267 L 158.255 164.267 157.207 165.314 M69.243 197.227 C 68.760 197.755,68.238 198.605,68.084 199.115 C 67.721 200.312,68.799 202.891,69.909 203.486 C 70.518 203.811,95.794 203.947,156.108 203.947 L 241.446 203.947 242.551 202.987 C 243.192 202.429,243.757 201.390,243.897 200.510 C 244.093 199.277,243.923 198.738,242.991 197.630 L 241.844 196.267 155.983 196.267 L 70.122 196.267 69.243 197.227 " stroke="none" fill-rule="evenodd"></path></svg>