<svg fill="currentColor" viewBox="0 0 256 256" xmlns="http://www.w3.org/2000/svg"><path d="M58.667 36.310 C 51.897 36.818,47.293 38.805,43.049 43.049 C 38.086 48.012,36.104 53.523,36.127 62.293 C 36.148 70.429,38.180 79.186,42.514 89.813 C 46.283 99.055,54.312 113.417,61.102 123.060 C 62.742 125.389,64.161 127.501,64.256 127.754 C 64.350 128.007,63.071 130.133,61.414 132.480 C 54.505 142.261,46.313 156.872,42.514 166.187 C 38.168 176.844,36.127 185.629,36.119 193.707 C 36.114 199.583,36.986 203.734,39.106 207.916 C 40.477 210.623,45.189 215.422,47.766 216.736 C 57.375 221.638,69.386 221.029,86.450 214.777 C 96.423 211.123,112.525 202.353,123.520 194.586 C 125.867 192.929,127.993 191.650,128.246 191.744 C 128.499 191.839,130.611 193.258,132.940 194.898 C 142.583 201.688,156.945 209.717,166.187 213.486 C 176.819 217.821,185.608 219.866,193.707 219.887 C 202.464 219.909,207.962 217.939,212.888 213.014 C 217.917 207.985,219.896 202.514,219.873 193.707 C 219.852 185.571,217.820 176.814,213.486 166.187 C 209.717 156.945,201.688 142.583,194.898 132.940 C 193.258 130.611,191.839 128.499,191.744 128.246 C 191.650 127.993,192.929 125.867,194.586 123.520 C 201.495 113.739,209.687 99.128,213.486 89.813 C 217.844 79.125,219.863 70.396,219.851 62.293 C 219.838 53.397,217.903 48.001,212.951 43.049 C 208.005 38.103,202.705 36.224,193.707 36.224 C 177.383 36.224,156.178 45.043,131.636 62.038 L 128.000 64.556 124.364 62.038 C 109.229 51.557,95.047 44.045,82.574 39.901 C 73.493 36.884,66.002 35.759,58.667 36.310 M68.539 44.605 C 81.438 46.521,98.071 53.983,115.699 65.764 C 118.438 67.594,120.781 69.258,120.907 69.461 C 121.033 69.665,118.782 71.760,115.906 74.118 C 100.681 86.599,85.795 101.543,73.197 116.992 C 71.341 119.268,69.641 121.018,69.419 120.881 C 68.853 120.531,60.701 108.003,58.366 103.893 C 44.008 78.622,40.199 58.047,48.193 48.942 C 48.956 48.073,50.800 46.780,52.291 46.068 C 56.688 43.970,61.401 43.545,68.539 44.605 M198.400 44.388 C 201.936 44.943,206.044 46.933,207.814 48.949 C 217.157 59.590,210.279 85.709,190.236 115.699 C 188.406 118.438,186.740 120.783,186.533 120.911 C 186.327 121.038,184.640 119.278,182.786 116.999 C 170.489 101.889,154.532 85.943,139.203 73.445 C 136.799 71.485,134.943 69.704,135.077 69.487 C 135.212 69.269,137.562 67.594,140.301 65.764 C 163.695 50.129,185.010 42.287,198.400 44.388 M132.218 77.966 C 148.769 91.276,164.740 107.251,178.081 123.840 L 181.426 128.000 178.098 132.160 C 165.009 148.520,148.524 165.006,132.172 178.089 L 128.024 181.407 124.705 178.727 C 107.885 165.140,90.861 148.117,77.284 131.308 L 74.615 128.003 78.513 123.202 C 91.584 107.104,108.320 90.437,124.800 77.105 C 126.443 75.777,127.861 74.684,127.951 74.678 C 128.042 74.672,129.962 76.151,132.218 77.966 M125.979 120.299 C 120.084 121.738,118.063 129.256,122.403 133.597 C 126.762 137.955,134.098 136.007,135.698 130.066 C 137.259 124.270,131.876 118.860,125.979 120.299 M73.828 139.733 C 85.411 153.921,99.564 168.170,114.221 180.400 C 118.024 183.573,121.033 186.336,120.907 186.539 C 120.781 186.742,118.438 188.408,115.699 190.240 C 95.972 203.436,78.265 210.926,64.488 211.904 C 57.654 212.389,51.182 210.462,48.186 207.051 C 38.913 196.489,45.656 170.552,65.409 140.800 C 67.045 138.336,68.681 135.978,69.043 135.560 C 69.812 134.675,69.418 134.331,73.828 139.733 M190.236 140.301 C 205.344 162.906,213.377 184.160,211.734 197.175 C 210.907 203.732,208.474 207.634,203.803 209.897 C 196.150 213.606,184.878 212.369,169.173 206.099 C 165.004 204.434,155.456 199.670,150.827 196.944 C 146.400 194.337,134.847 186.738,134.836 186.425 C 134.831 186.292,136.699 184.661,138.987 182.800 C 153.586 170.927,167.955 156.693,180.400 141.779 C 183.573 137.976,186.336 134.967,186.539 135.093 C 186.742 135.219,188.406 137.562,190.236 140.301 " stroke="none" fill-rule="evenodd"></path></svg>