<svg fill="currentColor" viewBox="0 0 256 256" xmlns="http://www.w3.org/2000/svg"><path d="M120.209 20.700 C 105.426 23.499,92.783 33.772,87.258 47.472 C 85.267 52.410,84.053 58.650,84.053 63.950 L 84.053 68.246 60.019 68.363 L 35.986 68.480 33.901 69.769 C 31.469 71.273,29.233 74.022,28.606 76.277 C 28.311 77.339,28.165 98.618,28.167 140.373 L 28.168 202.880 29.169 205.030 C 30.463 207.808,33.610 210.585,36.406 211.415 C 38.283 211.973,49.859 212.053,128.000 212.053 C 206.525 212.053,217.710 211.975,219.614 211.409 C 222.489 210.555,225.704 207.651,227.035 204.706 L 228.053 202.453 228.053 140.373 C 228.053 91.225,227.940 77.919,227.508 76.498 C 226.754 74.011,224.573 71.299,222.099 69.769 L 220.015 68.480 196.087 68.267 L 172.160 68.053 171.902 62.720 C 171.347 51.232,167.542 41.972,160.151 34.125 C 158.542 32.418,155.979 30.071,154.453 28.910 C 150.722 26.071,143.112 22.409,138.667 21.315 C 133.848 20.129,124.816 19.828,120.209 20.700 M138.027 29.440 C 144.080 31.346,149.231 34.410,153.411 38.589 C 156.421 41.599,158.130 43.998,160.158 48.060 C 162.671 53.092,163.466 56.337,163.727 62.613 L 163.961 68.267 128.005 68.267 L 92.049 68.267 92.253 62.613 C 92.430 57.713,92.639 56.420,93.820 52.907 C 97.947 40.627,107.826 31.699,120.533 28.763 C 124.468 27.854,134.184 28.230,138.027 29.440 M218.553 77.192 L 219.947 78.437 220.072 138.312 C 220.141 171.243,220.078 199.027,219.931 200.054 C 219.771 201.180,219.263 202.322,218.652 202.934 L 217.639 203.947 128.000 203.947 L 38.361 203.947 37.314 202.899 L 36.267 201.852 36.267 140.004 L 36.267 78.156 37.579 77.051 L 38.892 75.947 128.026 75.947 L 217.160 75.947 218.553 77.192 " stroke="none" fill-rule="evenodd"></path></svg>