<svg fill="currentColor" viewBox="0 0 256 256" xmlns="http://www.w3.org/2000/svg"><path d="M59.850 52.749 C 57.049 53.757,53.965 56.790,52.931 59.554 C 52.176 61.570,52.053 62.880,52.053 68.892 L 52.053 75.886 40.427 76.023 L 28.800 76.160 26.514 77.426 C 25.256 78.123,23.586 79.441,22.803 80.356 C 20.088 83.528,20.053 83.842,20.053 105.036 L 20.053 124.160 13.207 124.160 C 6.539 124.160,6.334 124.187,5.331 125.190 C 3.840 126.681,3.597 128.144,4.564 129.805 C 5.719 131.791,7.392 132.215,14.187 132.243 L 20.053 132.267 20.053 151.177 C 20.053 172.234,20.080 172.462,22.898 175.754 C 23.733 176.729,25.402 178.048,26.608 178.684 L 28.800 179.840 40.427 179.972 L 52.053 180.103 52.053 187.102 C 52.053 195.621,52.615 197.639,55.822 200.638 C 59.314 203.905,59.986 204.008,76.867 203.861 C 90.956 203.738,91.586 203.698,93.227 202.809 C 95.581 201.535,97.905 199.019,99.072 196.480 L 100.053 194.347 100.178 163.307 L 100.303 132.267 128.232 132.267 L 156.160 132.267 156.164 163.520 L 156.168 194.773 157.166 196.907 C 158.318 199.369,160.335 201.493,162.773 202.811 C 164.413 203.697,165.053 203.738,179.133 203.861 C 196.014 204.008,196.686 203.905,200.178 200.638 C 203.385 197.639,203.947 195.621,203.947 187.102 L 203.947 180.103 215.573 179.972 L 227.200 179.840 229.392 178.684 C 230.598 178.048,232.267 176.729,233.102 175.754 C 235.920 172.462,235.947 172.234,235.947 151.177 L 235.947 132.267 241.813 132.243 C 248.608 132.215,250.281 131.791,251.436 129.805 C 252.403 128.144,252.160 126.681,250.669 125.190 C 249.666 124.187,249.461 124.160,242.793 124.160 L 235.947 124.160 235.947 105.036 C 235.947 83.842,235.912 83.528,233.197 80.356 C 232.414 79.441,230.744 78.123,229.486 77.426 L 227.200 76.160 215.573 76.023 L 203.947 75.886 203.947 68.892 C 203.947 60.269,203.378 58.276,200.070 55.301 C 196.485 52.078,195.921 51.993,179.133 52.139 C 165.053 52.262,164.413 52.303,162.773 53.189 C 160.335 54.507,158.318 56.631,157.166 59.093 L 156.168 61.227 156.164 92.693 L 156.160 124.160 128.231 124.160 L 100.303 124.160 100.178 92.907 L 100.053 61.653 98.947 59.307 C 97.691 56.644,95.721 54.537,93.227 53.189 C 91.580 52.299,90.999 52.264,76.587 52.183 C 64.144 52.114,61.353 52.208,59.850 52.749 M90.342 60.813 C 90.854 61.171,91.472 62.179,91.714 63.053 C 92.330 65.270,92.326 190.746,91.710 192.964 C 90.883 195.942,90.469 196.036,77.460 196.189 C 64.347 196.344,62.605 196.191,61.173 194.759 L 60.160 193.745 60.160 128.000 L 60.160 62.255 61.207 61.207 L 62.255 60.160 75.832 60.160 C 87.327 60.160,89.553 60.260,90.342 60.813 M194.793 61.207 L 195.840 62.255 195.840 127.886 C 195.840 200.794,196.089 194.949,192.947 195.821 C 190.857 196.402,169.250 196.402,167.159 195.821 C 164.018 194.949,164.267 200.794,164.267 127.886 L 164.267 62.255 165.314 61.207 L 166.361 60.160 180.053 60.160 L 193.745 60.160 194.793 61.207 M52.053 128.000 L 52.053 171.947 41.419 171.947 L 30.785 171.947 29.473 170.842 L 28.160 169.737 28.160 128.000 L 28.160 86.263 29.473 85.158 L 30.785 84.053 41.419 84.053 L 52.053 84.053 52.053 128.000 M226.527 85.158 L 227.840 86.263 227.840 128.000 L 227.840 169.737 226.527 170.842 L 225.215 171.947 214.581 171.947 L 203.947 171.947 203.947 128.000 L 203.947 84.053 214.581 84.053 L 225.215 84.053 226.527 85.158 " stroke="none" fill-rule="evenodd"></path></svg>