<svg fill="currentColor" viewBox="0 0 256 256" xmlns="http://www.w3.org/2000/svg"><path d="M25.925 60.986 C 19.408 63.076,14.375 68.509,12.583 75.389 C 11.627 79.061,11.627 176.939,12.583 180.611 C 14.391 187.551,19.271 192.783,26.134 195.138 L 28.800 196.053 113.280 196.170 C 164.901 196.242,199.171 196.129,201.387 195.881 C 206.037 195.359,209.251 194.108,212.344 191.616 C 215.428 189.131,217.697 185.922,218.967 182.249 L 219.947 179.413 219.947 127.787 L 219.947 76.160 218.985 73.634 C 216.865 68.068,213.587 64.502,208.213 61.914 L 205.013 60.373 116.693 60.287 C 31.966 60.204,28.274 60.233,25.925 60.986 M205.013 69.273 C 207.591 70.478,209.595 72.458,210.882 75.070 L 211.840 77.013 211.840 127.787 C 211.840 168.679,211.731 178.869,211.278 180.145 C 210.494 182.359,207.328 185.737,204.911 186.937 L 202.880 187.947 116.053 187.947 L 29.227 187.947 26.793 186.752 C 24.199 185.478,22.721 184.000,21.206 181.170 L 20.267 179.413 20.267 128.000 L 20.267 76.587 21.525 74.315 C 22.217 73.066,23.494 71.481,24.364 70.792 C 27.756 68.105,20.585 68.301,115.840 68.288 L 202.880 68.275 205.013 69.273 M113.289 93.179 C 112.728 93.739,112.151 94.843,112.006 95.632 C 111.861 96.421,111.800 103.467,111.871 111.289 L 112.000 125.511 113.393 126.755 C 115.244 128.409,116.991 128.408,118.646 126.753 L 119.893 125.506 119.893 109.958 L 119.893 94.410 118.768 93.285 C 117.259 91.775,114.741 91.726,113.289 93.179 M245.158 93.473 L 244.053 94.785 244.053 128.000 L 244.053 161.215 245.158 162.527 C 246.966 164.676,250.198 164.263,251.516 161.715 C 252.074 160.636,252.160 156.126,252.160 128.000 C 252.160 99.874,252.074 95.364,251.516 94.285 C 250.198 91.737,246.966 91.324,245.158 93.473 M112.853 148.723 C 106.878 151.824,106.394 159.511,111.968 162.777 C 115.283 164.720,119.351 164.048,121.909 161.136 C 124.144 158.590,124.578 155.302,123.073 152.320 C 121.317 148.842,116.137 147.019,112.853 148.723 " stroke="none" fill-rule="evenodd"></path></svg>