<svg fill="currentColor" viewBox="0 0 256 256" xmlns="http://www.w3.org/2000/svg"><path d="M25.925 60.986 C 19.408 63.076,14.375 68.509,12.583 75.389 C 11.627 79.061,11.627 176.939,12.583 180.611 C 14.391 187.551,19.271 192.783,26.134 195.138 L 28.800 196.053 113.280 196.170 C 164.901 196.242,199.171 196.129,201.387 195.881 C 206.037 195.359,209.251 194.108,212.344 191.616 C 215.428 189.131,217.697 185.922,218.967 182.249 L 219.947 179.413 219.947 127.787 L 219.947 76.160 218.985 73.634 C 216.865 68.068,213.587 64.502,208.213 61.914 L 205.013 60.373 116.693 60.287 C 31.966 60.204,28.274 60.233,25.925 60.986 M205.013 69.273 C 207.591 70.478,209.595 72.458,210.882 75.070 L 211.840 77.013 211.840 127.787 C 211.840 168.679,211.731 178.869,211.278 180.145 C 210.494 182.359,207.328 185.737,204.911 186.937 L 202.880 187.947 116.053 187.947 L 29.227 187.947 26.793 186.752 C 24.199 185.478,22.721 184.000,21.206 181.170 L 20.267 179.413 20.267 128.000 L 20.267 76.587 21.525 74.315 C 22.217 73.066,23.494 71.481,24.364 70.792 C 27.756 68.105,20.585 68.301,115.840 68.288 L 202.880 68.275 205.013 69.273 M53.158 93.473 L 52.053 94.785 52.053 128.000 L 52.053 161.215 53.158 162.527 C 54.966 164.676,58.198 164.263,59.516 161.715 C 60.487 159.836,60.487 96.164,59.516 94.285 C 58.198 91.737,54.966 91.324,53.158 93.473 M93.207 93.207 L 92.160 94.255 92.160 128.000 L 92.160 161.745 93.207 162.793 C 93.954 163.539,94.723 163.840,95.886 163.840 C 98.012 163.840,99.276 162.912,99.821 160.947 C 100.426 158.770,100.426 97.230,99.821 95.053 C 99.276 93.088,98.012 92.160,95.886 92.160 C 94.723 92.160,93.954 92.461,93.207 93.207 M133.867 92.621 C 131.814 93.817,131.840 93.356,131.840 128.000 C 131.840 156.126,131.926 160.636,132.484 161.715 C 133.802 164.263,137.034 164.676,138.842 162.527 L 139.947 161.215 139.947 128.000 L 139.947 94.785 138.842 93.473 C 137.973 92.440,137.405 92.163,136.175 92.173 C 135.316 92.180,134.277 92.382,133.867 92.621 M173.194 93.407 L 171.947 94.654 171.947 127.934 L 171.947 161.215 173.051 162.527 C 174.588 164.353,177.018 164.381,178.806 162.593 L 180.053 161.346 180.053 128.000 L 180.053 94.654 178.806 93.407 C 177.883 92.484,177.154 92.160,176.000 92.160 C 174.846 92.160,174.117 92.484,173.194 93.407 M245.158 93.473 L 244.053 94.785 244.053 128.000 L 244.053 161.215 245.158 162.527 C 246.966 164.676,250.198 164.263,251.516 161.715 C 252.074 160.636,252.160 156.126,252.160 128.000 C 252.160 99.874,252.074 95.364,251.516 94.285 C 250.198 91.737,246.966 91.324,245.158 93.473 " stroke="none" fill-rule="evenodd"></path></svg>