<svg fill="currentColor" viewBox="0 0 256 256" xmlns="http://www.w3.org/2000/svg"><path d="M93.207 5.314 C 91.626 6.896,91.745 9.389,93.473 10.842 L 94.785 11.947 128.000 11.947 L 161.215 11.947 162.527 10.842 C 164.255 9.389,164.374 6.896,162.793 5.314 L 161.745 4.267 128.000 4.267 L 94.255 4.267 93.207 5.314 M73.169 37.265 C 67.116 39.516,62.592 44.304,60.836 50.317 C 60.229 52.400,60.160 61.507,60.160 139.986 C 60.160 224.518,60.186 227.421,60.968 229.935 C 63.028 236.552,68.433 241.605,75.389 243.417 C 79.061 244.373,176.939 244.373,180.611 243.417 C 187.780 241.549,193.348 236.159,195.256 229.239 C 196.023 226.458,196.053 223.005,196.053 139.733 L 196.053 53.120 195.097 50.078 C 193.281 44.304,188.195 39.072,182.542 37.163 C 179.901 36.271,179.625 36.267,127.810 36.289 L 75.733 36.311 73.169 37.265 M180.930 45.118 C 183.599 46.433,185.529 48.420,186.840 51.200 L 187.947 53.547 187.947 140.160 C 187.947 221.466,187.901 226.874,187.206 228.411 C 186.015 231.045,184.120 233.126,181.685 234.475 L 179.413 235.733 128.000 235.733 L 76.587 235.733 74.315 234.475 C 73.066 233.783,71.479 232.504,70.789 231.633 C 68.068 228.196,68.266 235.418,68.271 140.067 L 68.275 53.120 69.314 50.987 C 70.563 48.423,70.983 47.903,73.097 46.309 C 76.261 43.922,74.595 43.989,128.853 44.078 L 178.987 44.160 180.930 45.118 M125.207 93.207 L 124.160 94.255 124.160 115.996 L 124.160 137.737 125.473 138.842 C 127.223 140.315,128.905 140.270,130.660 138.702 L 132.053 137.457 132.186 117.689 C 132.259 106.816,132.196 97.080,132.045 96.053 C 131.672 93.504,130.275 92.160,128.000 92.160 C 126.716 92.160,125.978 92.437,125.207 93.207 M124.088 165.131 C 121.051 166.735,119.292 170.816,120.253 174.024 C 121.689 178.817,126.805 181.256,131.218 179.251 C 135.893 177.128,137.372 171.427,134.349 167.182 C 132.365 164.395,127.371 163.397,124.088 165.131 " stroke="none" fill-rule="evenodd"></path></svg>