<svg fill="currentColor" viewBox="0 0 256 256" xmlns="http://www.w3.org/2000/svg"><path d="M14.127 44.542 C 11.856 45.801,11.978 41.093,11.962 127.873 C 11.950 189.580,12.067 208.863,12.456 209.719 C 12.979 210.865,14.783 212.053,16.000 212.053 C 17.217 212.053,19.021 210.865,19.544 209.719 C 19.914 208.907,20.053 203.573,20.053 190.273 L 20.053 171.947 128.000 171.947 L 235.947 171.947 235.947 190.273 C 235.947 203.573,236.086 208.907,236.456 209.719 C 236.979 210.865,238.783 212.053,240.000 212.053 C 241.217 212.053,243.021 210.865,243.544 209.719 C 244.213 208.250,244.275 110.885,243.609 106.667 C 241.371 92.481,231.090 81.081,216.960 77.118 L 213.547 76.160 116.800 76.046 L 20.053 75.932 20.053 61.625 C 20.053 46.104,19.969 45.482,17.719 44.456 C 16.300 43.810,15.409 43.831,14.127 44.542 M99.840 124.160 L 99.840 164.267 59.947 164.267 L 20.053 164.267 20.053 124.160 L 20.053 84.053 59.947 84.053 L 99.840 84.053 99.840 124.160 M213.973 84.693 C 221.752 86.321,229.248 92.158,232.875 99.413 C 235.932 105.526,235.931 105.516,235.939 136.641 L 235.947 164.269 172.053 164.161 L 108.160 164.053 108.051 124.053 L 107.942 84.053 159.464 84.061 C 203.044 84.067,211.447 84.164,213.973 84.693 " stroke="none" fill-rule="evenodd"></path></svg>