<svg fill="currentColor" viewBox="0 0 256 256" xmlns="http://www.w3.org/2000/svg"><path d="M120.320 28.406 C 119.733 28.507,117.813 28.794,116.053 29.044 C 91.361 32.550,68.247 50.429,58.272 73.739 C 53.953 83.831,52.588 90.774,52.051 105.387 C 51.554 118.916,51.012 126.113,49.867 134.400 C 47.544 151.210,43.765 165.178,38.500 176.407 C 36.368 180.955,36.112 181.798,36.134 184.187 C 36.181 189.196,39.373 193.637,44.113 195.292 C 46.176 196.012,50.714 196.053,128.427 196.053 L 210.560 196.053 212.984 194.863 C 217.417 192.686,219.936 188.691,219.902 183.893 C 219.884 181.417,219.627 180.594,217.499 176.213 C 212.446 165.809,208.688 152.162,206.332 135.664 C 204.997 126.309,204.474 119.671,203.949 105.387 C 203.499 93.151,202.923 89.120,200.519 81.381 C 192.127 54.368,169.519 34.492,141.131 29.168 C 137.767 28.538,122.756 27.988,120.320 28.406 M142.933 37.680 C 169.369 43.997,189.042 64.030,194.552 90.240 C 195.228 93.458,195.545 97.180,195.843 105.387 C 196.314 118.382,196.882 126.003,198.022 134.613 C 200.288 151.733,204.419 167.313,209.713 178.713 C 212.299 184.280,212.383 185.168,210.490 186.946 L 209.425 187.947 128.000 187.947 L 46.575 187.947 45.497 186.933 C 43.704 185.249,43.697 183.942,45.460 180.441 C 54.225 163.035,60.105 132.154,60.156 103.253 C 60.186 86.421,66.657 70.236,78.419 57.576 C 87.737 47.546,100.471 40.344,113.758 37.589 C 119.873 36.322,119.723 36.332,129.493 36.477 C 137.293 36.592,139.033 36.748,142.933 37.680 M93.207 221.207 C 92.461 221.954,92.160 222.723,92.160 223.886 C 92.160 226.012,93.088 227.276,95.053 227.821 C 96.079 228.106,107.728 228.262,128.000 228.262 C 148.272 228.262,159.921 228.106,160.947 227.821 C 162.912 227.276,163.840 226.012,163.840 223.886 C 163.840 222.723,163.539 221.954,162.793 221.207 L 161.745 220.160 128.000 220.160 L 94.255 220.160 93.207 221.207 " stroke="none" fill-rule="evenodd"></path></svg>