<svg fill="currentColor" viewBox="0 0 256 256" xmlns="http://www.w3.org/2000/svg"><path d="M120.320 28.406 C 119.733 28.507,117.813 28.794,116.053 29.044 C 91.361 32.550,68.247 50.429,58.272 73.739 C 53.953 83.831,52.588 90.774,52.051 105.387 C 51.554 118.916,51.012 126.113,49.867 134.400 C 47.544 151.210,43.765 165.178,38.500 176.407 C 36.368 180.955,36.112 181.798,36.134 184.187 C 36.180 189.078,39.281 193.509,43.890 195.268 C 45.674 195.949,48.126 196.037,69.011 196.168 L 92.156 196.314 92.391 197.464 C 92.520 198.096,93.019 200.053,93.500 201.813 C 96.722 213.606,106.312 223.142,118.489 226.660 C 123.289 228.047,132.710 228.047,137.508 226.661 C 149.678 223.145,159.281 213.597,162.500 201.813 C 162.981 200.053,163.480 198.097,163.609 197.466 L 163.843 196.319 187.202 196.186 L 210.560 196.053 212.984 194.863 C 217.417 192.686,219.936 188.691,219.902 183.893 C 219.884 181.417,219.627 180.594,217.499 176.213 C 212.446 165.809,208.688 152.162,206.332 135.664 C 204.997 126.309,204.474 119.671,203.949 105.387 C 203.499 93.151,202.923 89.120,200.519 81.381 C 192.127 54.368,169.519 34.492,141.131 29.168 C 137.767 28.538,122.756 27.988,120.320 28.406 M142.933 37.680 C 169.369 43.997,189.042 64.030,194.552 90.240 C 195.228 93.458,195.545 97.180,195.843 105.387 C 196.314 118.382,196.882 126.003,198.022 134.613 C 200.288 151.733,204.419 167.313,209.713 178.713 C 212.299 184.280,212.383 185.168,210.490 186.946 L 209.425 187.947 128.000 187.947 L 46.575 187.947 45.497 186.933 C 43.704 185.249,43.697 183.942,45.460 180.441 C 54.225 163.035,60.105 132.154,60.156 103.253 C 60.186 86.421,66.657 70.236,78.419 57.576 C 87.737 47.546,100.471 40.344,113.758 37.589 C 119.873 36.322,119.723 36.332,129.493 36.477 C 137.293 36.592,139.033 36.748,142.933 37.680 M109.194 93.407 C 107.539 95.062,107.538 96.809,109.191 98.660 L 110.436 100.053 123.271 100.189 C 130.331 100.263,136.107 100.406,136.107 100.506 C 136.107 100.606,129.771 110.197,122.027 121.820 C 114.283 133.443,107.947 143.323,107.947 143.776 C 107.947 144.229,108.176 145.103,108.456 145.719 C 109.498 148.005,109.905 148.053,128.000 148.053 C 146.095 148.053,146.502 148.005,147.544 145.719 C 147.824 145.103,148.053 144.330,148.053 144.000 C 148.053 142.794,147.004 141.147,145.858 140.555 C 144.918 140.069,142.152 139.947,132.072 139.947 L 119.462 139.947 133.651 118.720 C 146.336 99.743,147.838 97.318,147.817 95.837 C 147.800 94.575,147.515 93.939,146.620 93.170 L 145.446 92.160 127.943 92.160 L 110.441 92.160 109.194 93.407 M155.047 198.885 C 154.170 202.646,151.259 207.948,148.386 211.019 C 137.270 222.903,118.730 222.903,107.614 211.019 C 104.741 207.948,101.830 202.646,100.953 198.885 L 100.342 196.267 128.000 196.267 L 155.658 196.267 155.047 198.885 " stroke="none" fill-rule="evenodd"></path></svg>