<svg fill="currentColor" viewBox="0 0 256 256" xmlns="http://www.w3.org/2000/svg"><path d="M117.158 29.473 L 116.053 30.785 116.053 51.906 L 116.053 73.026 117.301 74.273 C 119.322 76.294,122.229 75.883,123.516 73.395 C 124.057 72.349,124.160 69.583,124.160 56.125 L 124.160 40.101 150.613 59.947 C 165.163 70.862,177.067 79.885,177.067 80.000 C 177.067 80.114,170.395 85.213,162.240 91.330 C 154.085 97.448,147.161 102.934,146.852 103.521 C 146.074 105.001,146.580 106.855,148.117 108.148 C 149.656 109.443,150.794 109.503,152.626 108.386 C 154.917 106.990,186.179 83.394,187.072 82.388 C 188.057 81.279,188.168 78.907,187.285 77.833 C 186.945 77.419,171.995 66.073,154.063 52.620 C 124.506 30.446,121.310 28.160,119.861 28.160 C 118.600 28.160,118.029 28.437,117.158 29.473 M46.243 36.516 C 43.645 37.797,43.256 40.557,45.333 42.963 C 46.096 43.846,62.980 62.461,82.854 84.329 C 106.200 110.019,118.781 124.168,118.404 124.313 C 117.139 124.798,52.924 173.250,52.503 174.037 C 50.849 177.127,54.027 180.952,57.190 179.678 C 57.767 179.445,71.200 169.553,87.040 157.695 L 115.840 136.136 116.053 180.887 L 116.267 225.638 117.301 226.739 C 118.062 227.549,118.765 227.840,119.962 227.840 C 121.445 227.840,124.005 226.029,148.871 207.384 L 176.152 186.927 190.739 203.010 C 199.343 212.497,205.848 219.320,206.599 219.646 C 208.307 220.386,210.357 219.700,211.323 218.064 C 212.190 216.597,212.224 215.616,211.456 214.229 C 210.327 212.192,50.976 37.181,49.642 36.513 C 48.006 35.694,47.908 35.694,46.243 36.516 M156.544 165.369 C 164.346 173.958,170.668 181.036,170.592 181.097 C 170.516 181.159,160.037 189.014,147.307 198.554 L 124.160 215.899 124.160 176.000 L 124.160 136.100 133.259 142.926 L 142.357 149.753 156.544 165.369 " stroke="none" fill-rule="evenodd"></path></svg>