<svg fill="currentColor" viewBox="0 0 256 256" xmlns="http://www.w3.org/2000/svg"><path d="M64.945 29.021 C 59.992 30.319,56.150 32.575,52.261 36.469 C 48.605 40.130,46.840 42.997,45.162 48.000 L 44.160 50.987 44.047 138.120 L 43.935 225.253 45.186 226.653 L 46.437 228.053 118.258 228.179 C 157.760 228.248,190.920 228.185,191.947 228.038 C 194.496 227.674,195.840 226.280,195.840 224.000 C 195.840 222.716,195.563 221.978,194.793 221.207 L 193.745 220.160 122.899 220.160 L 52.053 220.160 52.053 216.836 C 52.053 208.281,56.129 201.562,63.436 198.074 L 66.773 196.480 137.813 196.267 C 193.780 196.099,209.052 195.939,209.791 195.517 C 212.221 194.127,212.053 200.314,212.053 111.872 L 212.053 30.654 210.806 29.407 L 209.559 28.160 138.806 28.183 C 70.595 28.206,67.942 28.236,64.945 29.021 M107.947 82.806 L 107.947 129.346 109.194 130.593 C 111.724 133.123,111.841 133.063,127.970 120.976 C 135.943 115.001,142.838 109.881,143.291 109.597 C 144.025 109.139,145.803 110.343,159.331 120.461 C 173.105 130.762,174.702 131.840,176.195 131.840 C 177.513 131.840,178.066 131.576,178.949 130.527 L 180.053 129.215 180.053 82.741 L 180.053 36.267 192.000 36.267 L 203.947 36.267 203.947 112.213 L 203.947 188.160 136.175 188.160 C 70.597 188.160,68.299 188.187,65.180 188.984 C 61.169 190.010,57.504 191.837,54.424 194.346 L 52.053 196.276 52.053 124.895 C 52.053 46.781,51.916 51.163,54.521 46.348 C 56.841 42.058,61.331 38.459,66.347 36.866 C 67.620 36.461,73.120 36.317,88.000 36.295 L 107.947 36.267 107.947 82.806 M171.947 78.131 L 171.947 119.995 170.560 118.949 C 148.035 101.957,145.632 100.267,144.000 100.267 C 142.368 100.267,139.965 101.957,117.440 118.949 L 116.053 119.995 116.053 78.131 L 116.053 36.267 144.000 36.267 L 171.947 36.267 171.947 78.131 " stroke="none" fill-rule="evenodd"></path></svg>