<svg fill="currentColor" viewBox="0 0 256 256" xmlns="http://www.w3.org/2000/svg"><path d="M91.307 29.046 C 88.970 30.101,86.434 32.477,85.191 34.773 C 84.317 36.387,84.260 37.123,84.135 48.320 L 84.004 60.160 72.615 60.169 C 62.091 60.178,61.081 60.245,59.307 61.046 C 56.970 62.101,54.434 64.477,53.191 66.773 L 52.267 68.480 52.156 146.842 L 52.044 225.204 53.153 226.522 C 54.039 227.574,54.593 227.840,55.904 227.840 C 57.385 227.840,60.122 226.000,83.916 209.009 C 98.420 198.652,110.685 189.916,111.173 189.597 C 111.995 189.058,114.001 190.401,139.293 208.428 C 163.341 225.569,166.710 227.840,168.096 227.840 C 169.230 227.840,169.951 227.535,170.699 226.739 L 171.733 225.638 171.947 201.356 L 172.160 177.073 185.314 186.457 C 196.956 194.761,198.657 195.840,200.103 195.840 C 201.406 195.840,201.963 195.573,202.847 194.522 L 203.956 193.204 203.844 114.842 L 203.733 36.480 202.809 34.773 C 201.566 32.477,199.030 30.101,196.693 29.046 C 194.798 28.190,194.132 28.179,144.000 28.179 C 93.868 28.179,93.202 28.190,91.307 29.046 M194.793 37.314 L 195.840 38.361 195.840 111.176 L 195.840 183.991 194.809 183.316 C 194.242 182.944,188.914 179.164,182.969 174.916 L 172.160 167.192 171.947 117.836 L 171.733 68.480 170.809 66.773 C 169.566 64.477,167.030 62.101,164.693 61.046 C 162.813 60.197,162.038 60.179,127.467 60.169 L 92.160 60.160 92.160 49.261 L 92.160 38.361 93.207 37.314 L 94.255 36.267 144.000 36.267 L 193.745 36.267 194.793 37.314 M162.793 69.314 L 163.840 70.361 163.840 143.176 L 163.840 215.991 162.880 215.361 C 162.352 215.014,150.987 206.928,137.624 197.392 C 117.949 183.351,113.072 180.053,111.981 180.053 C 110.890 180.053,106.032 183.341,86.398 197.367 C 73.067 206.889,61.711 214.975,61.160 215.336 L 60.160 215.991 60.160 143.176 L 60.160 70.361 61.207 69.314 L 62.255 68.267 112.000 68.267 L 161.745 68.267 162.793 69.314 " stroke="none" fill-rule="evenodd"></path></svg>