<svg fill="currentColor" viewBox="0 0 256 256" xmlns="http://www.w3.org/2000/svg"><path d="M67.200 37.061 C 64.787 38.164,62.890 39.879,61.538 42.178 L 60.373 44.160 60.263 134.949 L 60.152 225.738 61.203 226.789 C 63.539 229.125,62.652 229.586,96.511 208.427 C 113.596 197.749,127.766 189.013,128.000 189.013 C 128.234 189.013,142.404 197.749,159.489 208.427 C 186.056 225.029,190.785 227.840,192.150 227.840 C 194.270 227.840,195.684 226.424,196.039 223.947 C 196.186 222.920,196.246 182.432,196.174 133.973 C 196.069 63.901,195.930 45.541,195.497 44.277 C 194.689 41.919,192.455 39.226,190.099 37.769 L 188.014 36.480 128.460 36.380 C 71.550 36.285,68.831 36.315,67.200 37.061 M186.553 45.192 L 187.947 46.437 188.057 131.609 C 188.163 212.792,188.133 216.762,187.417 216.378 C 187.005 216.156,173.733 207.893,157.925 198.014 C 138.029 185.581,128.819 180.053,128.000 180.053 C 127.181 180.053,117.976 185.580,98.075 198.021 C 82.267 207.903,69.093 216.084,68.800 216.200 C 68.374 216.369,68.267 199.214,68.267 131.284 L 68.267 46.156 69.579 45.051 L 70.892 43.947 128.026 43.947 L 185.160 43.947 186.553 45.192 " stroke="none" fill-rule="evenodd"></path></svg>