<svg fill="currentColor" viewBox="0 0 256 256" xmlns="http://www.w3.org/2000/svg"><path d="M85.158 29.473 C 83.685 31.224,83.730 32.905,85.298 34.660 L 86.543 36.053 140.376 36.267 L 194.209 36.480 195.024 37.487 C 195.821 38.471,195.840 40.320,195.840 115.482 C 195.840 183.315,195.917 192.617,196.484 193.715 C 197.804 196.266,201.034 196.676,202.847 194.522 L 203.956 193.204 203.844 114.842 L 203.733 36.480 202.809 34.773 C 201.566 32.477,199.030 30.101,196.693 29.046 C 194.796 28.189,194.140 28.179,140.518 28.169 L 86.263 28.160 85.158 29.473 M59.307 61.046 C 56.970 62.101,54.434 64.477,53.191 66.773 L 52.267 68.480 52.156 146.842 L 52.044 225.204 53.153 226.522 C 54.039 227.574,54.593 227.840,55.904 227.840 C 57.385 227.840,60.122 226.000,83.916 209.009 C 98.420 198.652,110.685 189.916,111.173 189.597 C 111.995 189.058,114.001 190.401,139.293 208.428 C 163.610 225.761,166.699 227.840,168.132 227.840 C 169.402 227.840,169.969 227.565,170.847 226.522 L 171.956 225.204 171.844 146.842 L 171.733 68.480 170.809 66.773 C 169.566 64.477,167.030 62.101,164.693 61.046 C 162.798 60.190,162.132 60.179,112.000 60.179 C 61.868 60.179,61.202 60.190,59.307 61.046 M162.793 69.314 L 163.840 70.361 163.840 143.176 L 163.840 215.991 162.840 215.336 C 162.289 214.975,150.933 206.889,137.602 197.367 C 117.801 183.221,113.116 180.053,112.000 180.053 C 110.884 180.053,106.199 183.221,86.398 197.367 C 73.067 206.889,61.711 214.975,61.160 215.336 L 60.160 215.991 60.160 143.176 L 60.160 70.361 61.207 69.314 L 62.255 68.267 112.000 68.267 L 161.745 68.267 162.793 69.314 " stroke="none" fill-rule="evenodd"></path></svg>