<svg fill="currentColor" viewBox="0 0 256 256" xmlns="http://www.w3.org/2000/svg"><path d="M27.850 52.751 C 25.051 53.755,21.965 56.789,20.931 59.554 C 20.059 61.883,20.053 62.343,20.053 128.000 C 20.053 192.951,20.068 194.141,20.903 196.371 C 21.881 198.987,24.539 201.819,27.093 202.966 C 28.678 203.679,31.375 203.750,64.853 203.971 C 104.767 204.234,102.444 204.067,108.587 207.111 C 113.528 209.559,117.815 213.739,120.658 218.880 C 122.384 222.000,123.269 225.112,123.754 229.760 C 124.117 233.247,124.273 233.708,125.444 234.773 C 127.132 236.309,128.868 236.309,130.556 234.773 C 131.727 233.708,131.883 233.247,132.246 229.760 C 132.731 225.112,133.616 222.000,135.342 218.880 C 138.185 213.739,142.472 209.559,147.413 207.111 C 153.556 204.067,151.233 204.234,191.147 203.971 C 224.625 203.750,227.322 203.679,228.907 202.966 C 231.461 201.819,234.119 198.987,235.097 196.371 C 235.932 194.141,235.947 192.951,235.947 128.000 C 235.947 62.343,235.941 61.883,235.069 59.554 C 234.448 57.893,233.574 56.653,232.070 55.301 C 228.218 51.838,230.440 52.004,189.815 52.155 C 156.938 52.278,153.593 52.355,151.280 53.040 C 147.601 54.130,144.105 55.603,141.321 57.235 C 138.200 59.065,130.643 66.584,129.269 69.227 C 128.689 70.341,128.118 71.253,128.001 71.253 C 127.883 71.253,127.230 70.245,126.549 69.013 C 124.978 66.169,117.859 59.110,114.671 57.235 C 111.900 55.606,108.407 54.133,104.720 53.040 C 102.400 52.352,99.129 52.281,65.920 52.197 C 34.434 52.116,29.416 52.189,27.850 52.751 M103.016 61.007 C 107.941 62.267,111.878 64.535,115.685 68.304 C 118.363 70.957,119.303 72.269,120.882 75.558 C 121.942 77.766,123.053 80.533,123.351 81.707 C 123.772 83.369,123.925 97.684,124.041 146.519 L 124.190 209.198 121.291 206.466 C 117.673 203.056,114.232 200.759,110.007 198.932 C 103.801 196.249,104.344 196.282,66.773 196.272 C 44.624 196.265,32.083 196.107,31.053 195.821 C 27.911 194.949,28.160 200.794,28.160 127.886 L 28.160 62.255 29.207 61.207 L 30.255 60.160 64.979 60.160 C 98.223 60.160,99.845 60.196,103.016 61.007 M226.793 61.207 L 227.840 62.255 227.840 127.886 C 227.840 200.794,228.089 194.949,224.947 195.821 C 223.917 196.107,211.376 196.265,189.227 196.272 C 151.656 196.282,152.199 196.249,145.993 198.932 C 141.874 200.713,138.370 203.028,134.942 206.236 L 132.267 208.738 132.267 146.417 C 132.267 103.316,132.409 83.398,132.729 81.834 C 132.984 80.591,134.059 77.766,135.119 75.558 C 138.540 68.429,145.091 63.051,152.816 61.027 C 155.778 60.251,157.831 60.206,190.846 60.183 L 225.745 60.160 226.793 61.207 M157.207 93.207 C 156.437 93.978,156.160 94.716,156.160 96.000 C 156.160 98.275,157.504 99.672,160.053 100.045 C 161.080 100.196,170.816 100.259,181.689 100.186 L 201.457 100.053 202.702 98.660 C 204.270 96.905,204.315 95.223,202.842 93.473 L 201.737 92.160 179.996 92.160 L 158.255 92.160 157.207 93.207 M157.207 125.207 C 156.437 125.978,156.160 126.716,156.160 128.000 C 156.160 130.275,157.504 131.672,160.053 132.045 C 161.080 132.196,170.816 132.259,181.689 132.186 L 201.457 132.053 202.702 130.660 C 204.270 128.905,204.315 127.223,202.842 125.473 L 201.737 124.160 179.996 124.160 L 158.255 124.160 157.207 125.207 M157.207 157.207 C 156.437 157.978,156.160 158.716,156.160 160.000 C 156.160 162.275,157.504 163.672,160.053 164.045 C 161.080 164.196,170.816 164.259,181.689 164.186 L 201.457 164.053 202.702 162.660 C 204.270 160.905,204.315 159.223,202.842 157.473 L 201.737 156.160 179.996 156.160 L 158.255 156.160 157.207 157.207 " stroke="none" fill-rule="evenodd"></path></svg>