<svg fill="currentColor" viewBox="0 0 256 256" xmlns="http://www.w3.org/2000/svg"><path d="M66.504 39.030 C 59.409 44.355,51.853 52.647,46.083 61.440 C 42.633 66.698,37.228 77.808,35.041 84.136 C 32.784 90.667,30.561 99.824,29.363 107.520 C 28.507 113.026,28.401 115.279,28.401 128.000 C 28.401 140.775,28.504 142.951,29.372 148.480 C 33.430 174.332,43.224 194.800,59.001 210.397 C 63.054 214.404,68.918 219.089,70.756 219.788 C 73.043 220.657,75.947 218.684,75.947 216.260 C 75.947 214.336,75.543 213.815,71.946 211.098 C 67.299 207.589,60.629 200.817,56.848 195.774 C 42.987 177.278,36.252 155.125,36.249 128.010 C 36.246 108.206,39.455 92.658,46.818 76.800 C 52.429 64.716,62.527 51.880,71.777 45.074 C 75.343 42.450,75.947 41.682,75.947 39.770 C 75.947 37.792,74.237 36.267,72.020 36.267 C 70.427 36.267,69.703 36.630,66.504 39.030 M181.101 37.314 C 179.982 38.432,179.718 40.389,180.490 41.832 C 180.730 42.281,182.314 43.681,184.010 44.944 C 198.609 55.815,210.488 74.609,215.875 95.360 C 218.661 106.088,219.733 115.161,219.733 128.000 C 219.733 137.583,219.329 142.924,218.020 150.658 C 213.718 176.067,201.036 198.357,183.339 211.614 C 180.588 213.675,180.053 214.421,180.053 216.197 C 180.053 217.851,181.054 219.148,182.767 219.713 C 184.651 220.335,185.521 219.970,189.769 216.769 C 206.602 204.084,219.849 181.693,225.005 157.210 C 227.333 146.156,227.622 142.886,227.608 127.787 C 227.594 112.580,227.100 107.489,224.607 96.853 C 219.434 74.784,208.670 55.744,194.020 42.751 C 186.767 36.317,183.480 34.934,181.101 37.314 " stroke="none" fill-rule="evenodd"></path></svg>