<svg fill="currentColor" viewBox="0 0 256 256" xmlns="http://www.w3.org/2000/svg"><path d="M78.965 29.065 C 59.079 33.238,45.031 50.005,44.066 70.718 L 43.823 75.943 40.169 77.887 C 25.855 85.501,16.412 98.033,12.951 114.007 C 11.883 118.935,11.892 128.998,12.968 133.973 C 14.645 141.722,17.900 149.079,22.214 154.864 C 26.916 161.171,35.077 167.948,41.521 170.899 L 43.823 171.953 44.064 177.176 C 44.628 189.424,48.964 199.212,57.448 207.392 C 69.115 218.641,84.817 222.612,100.183 218.200 C 111.380 214.985,121.635 206.699,126.669 196.800 C 127.176 195.803,127.775 194.987,128.000 194.987 C 128.225 194.987,128.824 195.803,129.331 196.800 C 131.988 202.025,136.568 207.337,141.727 211.178 C 156.813 222.409,176.993 222.872,192.640 212.346 C 195.977 210.102,201.407 204.832,203.713 201.600 C 208.948 194.265,212.053 184.560,212.053 175.539 L 212.053 171.990 214.747 170.705 C 224.170 166.208,233.609 156.912,238.398 147.413 C 240.162 143.915,242.089 138.329,243.034 133.973 C 243.978 129.623,244.103 118.967,243.257 114.987 C 239.680 98.156,230.441 85.659,215.831 77.887 L 212.177 75.943 211.934 70.718 C 211.291 56.907,205.040 44.905,194.347 36.947 C 188.711 32.754,183.506 30.412,176.766 29.039 C 160.273 25.678,143.061 32.102,133.083 45.344 C 131.640 47.259,129.962 49.840,129.354 51.080 C 128.746 52.319,128.145 53.330,128.018 53.326 C 127.891 53.322,127.075 52.000,126.205 50.387 C 120.241 39.334,108.506 31.030,95.693 28.796 C 90.680 27.921,83.893 28.030,78.965 29.065 M96.678 37.127 C 109.535 40.403,119.289 50.139,122.961 63.360 C 123.907 66.764,123.910 66.887,124.045 108.800 L 124.181 150.827 123.039 149.333 C 120.958 146.613,115.433 141.446,112.629 139.598 C 105.767 135.076,98.808 132.728,91.238 132.381 C 86.317 132.155,86.250 132.165,85.158 133.257 C 83.719 134.696,83.671 136.895,85.043 138.490 C 85.944 139.538,86.482 139.693,91.030 140.214 C 101.156 141.376,109.234 145.514,115.316 152.652 C 121.066 159.401,123.721 166.777,123.721 176.000 C 123.721 179.041,123.460 182.246,123.080 183.893 C 120.553 194.823,113.004 204.153,103.030 208.676 C 97.791 211.051,94.202 211.806,88.107 211.815 C 80.080 211.828,74.580 210.197,68.053 205.870 C 58.748 199.702,52.902 189.559,52.174 178.320 L 51.934 174.618 54.874 175.192 C 56.491 175.508,60.988 175.895,64.868 176.053 C 71.012 176.304,72.120 176.247,73.449 175.616 C 76.160 174.330,76.745 171.400,74.699 169.354 L 73.452 168.107 67.553 168.104 C 57.642 168.100,50.525 166.570,43.520 162.938 C 35.006 158.524,28.450 151.578,24.068 142.327 C 19.270 132.198,18.769 119.423,22.753 108.816 C 26.994 97.524,34.175 89.759,45.470 84.249 C 49.626 82.222,51.175 81.247,51.550 80.424 C 51.851 79.764,52.056 77.141,52.059 73.900 C 52.067 66.489,53.073 61.784,55.852 56.164 C 60.604 46.554,69.087 39.635,79.147 37.166 C 83.986 35.978,92.100 35.960,96.678 37.127 M176.640 37.140 C 186.855 39.584,195.348 46.457,200.148 56.164 C 202.927 61.784,203.933 66.489,203.941 73.900 C 203.944 77.198,204.147 79.760,204.459 80.445 C 204.845 81.292,206.239 82.173,210.113 84.019 C 216.409 87.020,221.424 90.739,225.279 95.266 C 243.601 116.781,237.621 149.171,212.819 162.757 C 206.178 166.394,198.405 168.100,188.447 168.104 L 182.548 168.107 181.301 169.354 C 179.156 171.498,179.992 174.851,182.911 175.815 C 184.868 176.460,196.681 176.055,201.127 175.190 L 204.068 174.618 203.805 178.509 C 202.880 192.176,193.986 204.404,181.333 209.406 C 176.435 211.342,173.709 211.818,167.680 211.788 C 162.713 211.764,161.403 211.604,158.162 210.622 C 148.905 207.816,141.646 202.161,136.999 194.133 C 133.539 188.157,132.279 183.317,132.279 176.000 C 132.279 166.777,134.934 159.401,140.684 152.652 C 146.766 145.514,154.844 141.376,164.970 140.214 C 169.518 139.693,170.056 139.538,170.957 138.490 C 172.329 136.895,172.281 134.696,170.842 133.257 C 169.750 132.165,169.683 132.155,164.762 132.381 C 153.279 132.907,141.921 138.630,134.383 147.688 L 132.267 150.231 132.267 108.464 C 132.267 67.987,132.293 66.592,133.127 63.322 C 136.384 50.539,146.383 40.482,159.147 37.149 C 163.676 35.967,171.717 35.963,176.640 37.140 M85.878 76.788 C 84.274 77.767,84.177 78.122,83.891 84.053 C 83.631 89.466,82.562 93.186,80.266 96.671 C 77.426 100.979,74.157 103.855,69.934 105.758 C 66.357 107.370,63.489 107.947,59.051 107.947 C 53.911 107.947,52.053 109.065,52.053 112.161 C 52.053 112.904,52.488 113.951,53.083 114.643 C 54.056 115.775,54.334 115.848,58.192 115.987 C 73.344 116.535,86.484 107.157,90.678 92.800 C 91.590 89.681,91.814 87.973,91.874 83.703 L 91.947 78.446 90.553 77.196 C 88.922 75.734,87.772 75.633,85.878 76.788 M165.447 77.196 L 164.053 78.446 164.126 83.703 C 164.186 87.973,164.410 89.681,165.322 92.800 C 169.516 107.157,182.656 116.535,197.808 115.987 C 201.666 115.848,201.944 115.775,202.917 114.643 C 203.512 113.951,203.947 112.904,203.947 112.161 C 203.947 109.065,202.089 107.947,196.949 107.947 C 187.672 107.947,180.736 104.260,175.734 96.671 C 173.438 93.186,172.369 89.466,172.109 84.053 C 171.823 78.122,171.726 77.767,170.122 76.788 C 168.228 75.633,167.078 75.734,165.447 77.196 " stroke="none" fill-rule="evenodd"></path></svg>