<svg fill="currentColor" viewBox="0 0 256 256" xmlns="http://www.w3.org/2000/svg"><path d="M98.047 28.984 C 94.712 30.050,92.343 31.521,89.752 34.136 C 85.134 38.794,84.053 42.332,84.053 52.783 L 84.053 60.160 60.655 60.160 L 37.256 60.160 34.644 61.465 C 33.127 62.223,31.486 63.460,30.730 64.414 C 27.990 67.874,28.160 63.118,28.164 136.267 L 28.168 202.880 29.169 205.030 C 30.463 207.808,33.610 210.585,36.406 211.415 C 38.283 211.973,49.859 212.053,128.000 212.053 C 206.525 212.053,217.710 211.975,219.614 211.409 C 222.489 210.555,225.704 207.651,227.035 204.706 L 228.053 202.453 228.053 136.107 C 228.053 74.096,228.005 69.639,227.312 67.908 C 226.137 64.974,224.215 62.894,221.356 61.465 L 218.744 60.160 195.345 60.160 L 171.947 60.160 171.947 52.783 C 171.947 42.289,170.839 38.700,166.176 34.084 C 163.375 31.311,161.384 30.086,157.928 29.007 C 155.339 28.198,153.987 28.161,127.848 28.183 C 102.576 28.204,100.294 28.265,98.047 28.984 M157.355 37.371 C 158.574 37.978,160.233 39.249,161.042 40.194 C 163.436 42.991,163.840 44.836,163.840 52.983 L 163.840 60.160 127.967 60.160 L 92.094 60.160 92.233 52.160 C 92.370 44.334,92.399 44.117,93.538 42.178 C 94.891 39.878,96.789 38.162,99.200 37.063 C 100.794 36.337,102.702 36.285,128.023 36.276 L 155.139 36.267 157.355 37.371 M218.912 69.367 L 219.947 70.468 220.068 93.269 L 220.189 116.070 211.748 120.233 C 202.365 124.860,196.906 127.129,187.733 130.214 C 156.925 140.576,123.800 142.746,91.947 136.489 C 75.203 133.200,61.154 128.444,45.120 120.638 L 36.267 116.328 36.267 93.285 L 36.267 70.242 37.194 69.254 L 38.122 68.267 128.000 68.267 L 217.878 68.267 218.912 69.367 M110.127 108.542 C 108.993 109.171,107.985 110.740,107.962 111.915 C 107.937 113.191,109.094 115.003,110.281 115.544 C 112.049 116.349,144.283 116.260,145.858 115.445 C 147.004 114.853,148.053 113.206,148.053 112.000 C 148.053 110.794,147.004 109.147,145.858 108.555 C 144.193 107.694,111.678 107.682,110.127 108.542 M42.732 128.434 C 72.373 142.932,107.755 149.882,140.373 147.615 C 166.189 145.820,190.342 139.488,212.856 128.611 C 216.466 126.867,219.586 125.440,219.790 125.440 C 220.335 125.440,220.262 199.082,219.714 201.054 C 218.837 204.214,227.331 203.947,127.886 203.947 L 38.361 203.947 37.314 202.899 L 36.267 201.852 36.267 163.646 C 36.267 142.633,36.344 125.440,36.439 125.440 C 36.534 125.440,39.366 126.787,42.732 128.434 " stroke="none" fill-rule="evenodd"></path></svg>