<svg fill="currentColor" viewBox="0 0 256 256" xmlns="http://www.w3.org/2000/svg"><path d="M124.120 20.678 C 123.276 20.989,103.828 33.749,80.902 49.034 C 35.298 79.439,37.356 77.880,36.293 82.836 C 35.985 84.273,35.840 105.279,35.840 148.501 L 35.840 212.053 25.197 212.053 C 14.772 212.053,14.532 212.073,13.449 213.013 C 12.801 213.577,12.243 214.610,12.099 215.515 C 11.892 216.816,12.055 217.281,13.145 218.501 L 14.437 219.947 128.000 219.947 L 241.563 219.947 242.855 218.501 C 243.945 217.281,244.108 216.816,243.901 215.515 C 243.757 214.610,243.199 213.577,242.551 213.013 C 241.468 212.073,241.228 212.053,230.810 212.053 L 220.175 212.053 220.061 152.640 L 219.947 93.227 218.752 90.793 C 217.478 88.199,216.000 86.721,213.170 85.206 L 211.413 84.267 175.680 84.151 L 139.947 84.034 139.947 57.027 C 139.947 26.067,140.090 27.394,136.348 23.652 C 133.037 20.341,128.218 19.169,124.120 20.678 M130.715 29.285 L 131.840 30.410 131.840 121.232 L 131.840 212.053 87.893 212.053 L 43.947 212.053 43.953 148.373 C 43.958 98.705,44.075 84.459,44.486 83.627 C 44.831 82.929,59.103 73.154,85.758 55.360 C 130.321 25.610,128.245 26.815,130.715 29.285 M210.643 93.190 L 211.840 94.219 211.951 153.136 L 212.062 212.053 176.004 212.053 L 139.947 212.053 139.947 152.107 L 139.947 92.160 174.696 92.160 L 209.446 92.160 210.643 93.190 M69.447 109.191 L 68.053 110.435 67.922 119.282 C 67.783 128.620,67.991 130.020,69.700 131.217 C 70.190 131.560,71.298 131.840,72.164 131.840 C 73.397 131.840,73.976 131.556,74.842 130.527 L 75.947 129.215 75.947 120.046 C 75.947 114.573,75.770 110.546,75.507 110.056 C 74.988 109.086,72.936 107.947,71.708 107.947 C 71.231 107.947,70.213 108.507,69.447 109.191 M101.447 109.191 L 100.053 110.435 99.922 119.282 C 99.783 128.620,99.991 130.020,101.700 131.217 C 102.190 131.560,103.298 131.840,104.164 131.840 C 105.397 131.840,105.976 131.556,106.842 130.527 L 107.947 129.215 107.947 120.046 C 107.947 114.573,107.770 110.546,107.507 110.056 C 106.988 109.086,104.936 107.947,103.708 107.947 C 103.231 107.947,102.213 108.507,101.447 109.191 M69.088 165.368 C 68.057 166.465,68.053 166.501,68.053 175.990 C 68.053 184.910,68.107 185.570,68.907 186.458 C 70.170 187.860,71.564 188.265,73.233 187.713 C 75.854 186.848,75.947 186.447,75.947 175.886 L 75.947 166.361 74.899 165.314 C 73.399 163.814,70.523 163.840,69.088 165.368 M101.088 165.368 C 100.057 166.465,100.053 166.501,100.053 175.990 C 100.053 184.910,100.107 185.570,100.907 186.458 C 102.170 187.860,103.564 188.265,105.233 187.713 C 107.854 186.848,107.947 186.447,107.947 175.886 L 107.947 166.361 106.899 165.314 C 105.399 163.814,102.523 163.840,101.088 165.368 " stroke="none" fill-rule="evenodd"></path></svg>