<svg fill="currentColor" viewBox="0 0 256 256" xmlns="http://www.w3.org/2000/svg"><path d="M42.228 44.363 C 36.496 45.103,30.653 48.086,27.315 51.977 C 24.828 54.876,22.720 59.157,21.443 63.898 C 20.396 67.783,20.322 68.677,20.298 77.653 C 20.271 88.115,20.595 91.044,23.248 104.320 C 27.628 126.243,31.503 136.104,38.793 143.883 C 44.115 149.561,50.152 153.194,56.917 154.791 L 60.103 155.542 58.375 158.260 C 52.585 167.367,50.794 179.016,53.554 189.614 C 56.529 201.033,64.994 211.055,75.807 215.958 C 86.094 220.622,98.951 220.527,109.091 215.711 C 115.823 212.515,122.173 206.970,125.867 201.065 C 126.923 199.376,127.883 197.992,128.000 197.988 C 128.117 197.984,129.014 199.278,129.992 200.864 C 136.240 210.993,147.395 217.903,159.716 219.277 C 175.614 221.050,191.807 212.314,199.203 197.973 C 202.362 191.848,203.689 186.250,203.655 179.200 C 203.617 171.609,201.551 164.435,197.625 158.260 L 195.897 155.542 199.083 154.791 C 210.987 151.982,220.743 142.818,226.133 129.383 C 228.865 122.574,232.570 107.092,234.733 93.440 C 235.550 88.289,235.711 85.647,235.697 77.653 C 235.682 68.656,235.611 67.793,234.560 63.898 C 230.528 48.960,219.399 42.069,203.275 44.526 C 181.793 47.801,154.264 67.941,137.289 92.800 C 135.526 95.381,133.723 98.165,133.282 98.987 C 132.486 100.468,132.478 100.295,132.267 77.511 L 132.053 54.543 130.660 53.298 C 128.905 51.730,127.223 51.685,125.473 53.158 L 124.160 54.263 124.153 77.798 L 124.146 101.333 123.247 99.840 C 113.013 82.843,99.143 68.307,82.627 57.270 C 67.772 47.343,53.779 42.872,42.228 44.363 M53.183 52.692 C 58.016 53.617,61.415 54.809,67.200 57.611 C 90.474 68.882,114.663 94.806,121.794 116.122 C 124.064 122.907,124.254 126.389,124.047 157.440 C 123.850 186.860,123.877 186.509,121.350 192.514 C 117.253 202.249,108.673 209.193,98.045 211.377 C 93.878 212.234,90.442 212.234,86.275 211.377 C 66.963 207.408,55.761 187.967,62.080 169.386 C 63.952 163.882,67.686 158.499,72.003 155.081 C 75.481 152.327,81.259 149.532,85.200 148.697 C 90.055 147.668,90.899 147.258,91.593 145.597 C 92.426 143.604,91.718 141.461,89.921 140.532 C 86.839 138.938,76.344 142.140,69.547 146.748 C 67.263 148.297,64.541 148.467,59.604 147.372 C 49.152 145.052,41.074 136.940,36.493 124.160 C 33.932 117.016,30.095 99.184,28.747 88.164 C 27.894 81.197,28.127 69.826,29.202 65.920 C 31.320 58.226,35.535 53.754,41.833 52.519 C 44.850 51.928,49.564 52.000,53.183 52.692 M216.833 53.310 C 221.571 55.106,224.984 59.322,226.675 65.465 C 227.879 69.839,228.158 80.771,227.253 88.164 C 225.861 99.543,222.016 117.247,219.354 124.531 C 214.139 138.803,204.541 147.054,192.138 147.929 C 188.684 148.173,188.622 148.160,186.376 146.676 C 179.622 142.211,169.565 139.062,166.334 140.401 C 164.528 141.149,163.620 143.322,164.280 145.320 C 164.888 147.162,165.708 147.591,170.428 148.539 C 181.686 150.800,190.723 158.874,194.596 170.132 C 197.670 179.065,195.967 190.238,190.302 198.304 C 181.184 211.288,164.379 215.596,149.973 208.643 C 143.547 205.541,138.539 200.449,135.273 193.696 C 132.167 187.272,132.217 187.974,132.356 152.533 L 132.480 120.960 134.081 116.335 C 143.481 89.179,177.001 58.000,202.507 52.688 C 206.712 51.813,213.680 52.115,216.833 53.310 " stroke="none" fill-rule="evenodd"></path></svg>