<svg fill="currentColor" viewBox="0 0 256 256" xmlns="http://www.w3.org/2000/svg"><path d="M121.173 20.667 C 107.711 23.521,97.845 32.468,93.387 45.867 C 92.407 48.812,92.391 49.156,92.255 70.507 L 92.117 92.160 87.679 92.160 C 80.297 92.160,76.316 90.845,72.675 87.204 C 70.115 84.644,68.681 81.391,68.211 77.075 C 67.554 71.041,66.967 68.569,65.428 65.349 C 61.714 57.579,52.882 52.063,44.160 52.067 C 32.981 52.072,23.222 59.792,20.654 70.662 C 19.119 77.157,20.587 88.903,24.114 98.350 C 26.108 103.692,27.232 105.943,30.185 110.507 C 35.194 118.247,41.172 124.291,48.853 129.382 C 53.607 132.533,56.200 133.851,61.650 135.886 C 69.407 138.783,73.781 139.571,83.520 139.827 L 92.160 140.054 92.160 176.054 L 92.160 212.053 65.478 212.053 C 35.946 212.053,37.222 211.933,36.275 214.800 C 35.736 216.436,36.150 217.838,37.542 219.093 C 38.483 219.941,39.090 219.947,128.000 219.947 C 216.910 219.947,217.517 219.941,218.458 219.093 C 219.850 217.838,220.264 216.436,219.725 214.800 C 218.779 211.935,220.031 212.053,190.735 212.053 L 164.267 212.053 164.267 196.116 L 164.267 180.179 172.267 179.922 C 181.279 179.633,185.810 178.858,192.885 176.395 C 211.800 169.811,226.551 154.837,232.743 135.933 C 234.706 129.941,235.542 125.355,235.823 119.039 C 236.025 114.497,235.927 113.176,235.162 110.152 C 233.999 105.551,232.195 102.421,228.724 98.983 C 224.119 94.422,218.527 92.153,211.926 92.166 C 205.253 92.180,199.984 94.390,195.187 99.187 C 190.481 103.893,188.568 108.341,187.932 116.053 C 187.524 120.999,186.449 123.656,183.613 126.718 C 179.819 130.816,175.704 132.237,167.573 132.258 L 164.267 132.267 164.263 95.253 C 164.259 56.826,164.046 50.794,162.519 45.814 C 158.805 33.702,149.081 24.314,136.960 21.137 C 133.219 20.156,124.770 19.905,121.173 20.667 M135.016 29.007 C 139.941 30.267,143.878 32.535,147.685 36.304 C 150.363 38.957,151.303 40.269,152.882 43.558 C 153.942 45.766,155.050 48.533,155.344 49.707 C 155.749 51.323,155.918 62.244,156.040 94.806 L 156.201 137.772 157.493 138.860 C 158.778 139.940,158.834 139.947,166.791 139.947 C 178.909 139.947,183.277 138.518,189.086 132.654 C 193.613 128.084,195.211 124.108,196.211 114.925 C 196.892 108.670,200.011 104.025,205.143 101.619 C 207.293 100.611,208.090 100.480,212.053 100.480 C 216.064 100.480,216.781 100.601,218.894 101.639 C 221.921 103.126,224.835 106.049,226.369 109.138 C 229.405 115.254,227.665 129.119,222.515 139.841 C 219.445 146.234,216.516 150.402,211.627 155.336 C 203.854 163.179,194.962 168.120,183.893 170.745 C 180.984 171.435,178.099 171.660,169.313 171.883 C 158.486 172.157,158.348 172.172,157.260 173.194 L 156.160 174.229 156.160 193.141 L 156.160 212.053 128.213 212.053 L 100.267 212.053 100.264 174.400 C 100.263 149.555,100.110 136.201,99.816 135.143 C 99.089 132.524,98.587 132.397,87.893 132.110 C 74.131 131.742,68.019 130.456,59.093 126.051 C 40.071 116.663,27.389 95.916,28.236 75.571 C 28.389 71.905,28.560 71.182,29.837 68.799 C 31.498 65.699,33.973 63.267,37.188 61.573 C 39.267 60.479,39.860 60.373,43.947 60.373 C 48.041 60.373,48.636 60.480,50.862 61.607 C 53.939 63.166,56.881 66.092,58.312 69.015 C 59.140 70.707,59.563 72.567,59.974 76.314 C 60.277 79.079,60.885 82.408,61.325 83.712 C 63.824 91.113,70.344 97.154,78.080 99.234 C 80.230 99.812,82.678 99.988,88.975 100.016 C 98.226 100.058,99.019 99.835,99.816 96.964 C 100.099 95.947,100.263 87.441,100.264 73.728 C 100.266 59.870,100.433 51.283,100.729 49.834 C 100.984 48.591,102.059 45.766,103.119 43.558 C 108.735 31.855,122.177 25.723,135.016 29.007 " stroke="none" fill-rule="evenodd"></path></svg>