<svg fill="currentColor" viewBox="0 0 256 256" xmlns="http://www.w3.org/2000/svg"><path d="M101.331 29.190 C 99.840 30.681,99.597 32.144,100.564 33.805 C 101.831 35.983,103.135 36.216,114.240 36.243 L 124.160 36.267 124.160 48.135 L 124.160 60.003 119.231 60.517 C 107.833 61.705,97.634 64.606,87.622 69.508 C 63.052 81.538,45.086 103.794,38.684 130.133 C 36.583 138.777,36.197 142.696,35.959 157.760 L 35.735 171.947 29.579 171.947 C 23.077 171.947,21.415 172.332,20.493 174.056 C 19.745 175.454,19.992 177.375,21.083 178.643 L 22.113 179.840 128.000 179.840 L 233.887 179.840 234.917 178.643 C 236.008 177.375,236.255 175.454,235.507 174.056 C 234.585 172.332,232.923 171.947,226.421 171.947 L 220.265 171.947 220.041 157.760 C 219.803 142.696,219.417 138.777,217.316 130.133 C 208.159 92.458,176.254 64.792,137.062 60.541 L 132.267 60.021 132.267 48.144 L 132.267 36.267 141.973 36.243 C 152.851 36.216,154.173 35.976,155.436 33.805 C 156.403 32.144,156.160 30.681,154.669 29.190 L 153.639 28.160 128.000 28.160 L 102.361 28.160 101.331 29.190 M139.892 68.929 C 178.746 74.603,208.064 105.634,211.626 144.853 C 211.861 147.435,212.053 154.587,212.053 160.747 L 212.053 171.947 128.000 171.947 L 43.947 171.947 43.947 160.747 C 43.948 143.811,44.935 135.833,48.290 125.653 C 58.205 95.572,84.178 73.764,115.840 68.935 C 121.245 68.111,134.266 68.107,139.892 68.929 M22.091 204.612 C 19.822 205.843,19.355 208.634,21.083 210.643 L 22.113 211.840 128.000 211.840 L 233.887 211.840 234.917 210.643 C 236.676 208.598,236.171 205.806,233.822 204.591 C 232.720 204.021,220.453 203.949,127.915 203.964 C 36.382 203.979,23.107 204.060,22.091 204.612 " stroke="none" fill-rule="evenodd"></path></svg>