<svg fill="currentColor" viewBox="0 0 256 256" xmlns="http://www.w3.org/2000/svg"><path d="M93.842 36.682 C 93.477 36.895,89.733 42.261,85.522 48.605 L 77.867 60.139 61.440 60.154 C 48.918 60.166,44.491 60.309,42.816 60.755 C 37.244 62.239,32.513 66.211,29.967 71.543 L 28.373 74.880 28.247 134.827 C 28.106 201.848,27.927 197.647,31.128 202.572 C 34.073 207.104,38.165 210.056,43.389 211.417 C 47.081 212.378,208.919 212.378,212.611 211.417 C 219.551 209.609,224.783 204.729,227.138 197.866 L 228.053 195.200 228.174 138.683 C 228.249 103.011,228.136 80.757,227.867 78.345 C 227.091 71.390,223.386 65.672,217.641 62.563 C 213.421 60.280,212.385 60.171,194.560 60.154 L 178.133 60.139 170.474 48.598 C 166.261 42.251,162.481 36.880,162.075 36.662 C 161.100 36.140,94.735 36.159,93.842 36.682 M165.645 55.573 C 172.491 65.785,173.622 67.262,174.933 67.709 C 175.988 68.069,181.505 68.227,193.707 68.247 C 210.887 68.275,210.999 68.281,213.120 69.271 C 215.748 70.497,218.073 73.009,219.140 75.774 C 219.917 77.790,219.947 80.008,219.947 136.320 C 219.947 190.895,219.898 194.882,219.206 196.411 C 218.015 199.045,216.120 201.126,213.685 202.475 L 211.413 203.733 128.000 203.733 L 44.587 203.733 42.315 202.475 C 41.066 201.783,39.479 200.504,38.789 199.633 C 36.091 196.226,36.266 200.659,36.271 136.014 L 36.275 77.013 37.285 74.880 C 38.507 72.299,40.516 70.319,43.093 69.154 C 44.918 68.328,45.868 68.284,62.293 68.252 C 74.483 68.228,80.013 68.068,81.067 67.709 C 82.378 67.262,83.509 65.785,90.355 55.573 L 98.150 43.947 128.000 43.947 L 157.850 43.947 165.645 55.573 M120.116 92.823 C 113.088 94.149,105.126 97.709,101.466 101.161 C 99.470 103.043,99.313 104.695,100.945 106.634 C 102.568 108.563,104.294 108.422,108.102 106.050 C 114.696 101.941,120.347 100.274,127.698 100.270 C 135.400 100.265,141.918 102.130,147.842 106.035 C 150.412 107.729,158.293 115.009,158.293 115.689 C 158.293 115.890,154.752 116.053,150.424 116.053 C 142.875 116.053,142.509 116.092,141.449 117.013 C 140.801 117.577,140.243 118.610,140.099 119.515 C 139.892 120.816,140.055 121.282,141.145 122.501 L 142.436 123.947 154.738 124.077 C 161.504 124.148,167.685 124.087,168.474 123.942 C 169.263 123.796,170.367 123.218,170.928 122.658 L 171.947 121.639 171.947 108.212 L 171.947 94.785 170.842 93.473 C 169.999 92.470,169.387 92.160,168.254 92.160 C 164.437 92.160,163.840 93.583,163.840 102.688 L 163.840 109.845 159.893 105.866 C 150.947 96.848,141.547 92.696,129.280 92.345 C 125.306 92.231,122.465 92.379,120.116 92.823 M86.091 140.612 C 85.451 140.959,84.731 141.610,84.491 142.060 C 84.219 142.568,84.053 147.905,84.053 156.165 L 84.053 169.452 85.301 170.699 C 86.633 172.032,88.498 172.338,90.091 171.486 C 91.755 170.595,92.160 168.587,92.160 161.228 L 92.160 154.321 96.533 158.556 C 98.939 160.886,102.008 163.516,103.354 164.401 C 116.958 173.349,133.356 174.372,147.826 167.174 C 154.581 163.814,156.840 161.392,155.726 158.703 C 154.411 155.527,151.877 155.360,147.543 158.163 C 143.860 160.546,139.451 162.328,134.927 163.264 C 130.518 164.176,122.652 163.852,118.225 162.577 C 111.482 160.634,104.690 156.228,99.904 150.693 L 97.622 148.053 105.152 148.053 C 110.835 148.053,112.971 147.904,113.858 147.445 C 115.004 146.853,116.053 145.206,116.053 144.000 C 116.053 142.794,115.004 141.147,113.858 140.555 C 112.104 139.648,87.775 139.698,86.091 140.612 " stroke="none" fill-rule="evenodd"></path></svg>