<svg fill="currentColor" viewBox="0 0 256 256" xmlns="http://www.w3.org/2000/svg"><path d="M65.845 44.558 C 63.241 45.377,61.092 46.832,59.747 48.689 C 59.095 49.589,51.987 65.114,43.952 83.189 L 29.341 116.053 21.948 116.053 C 14.892 116.053,14.504 116.097,13.449 117.013 C 12.801 117.577,12.243 118.610,12.099 119.515 C 11.892 120.816,12.055 121.282,13.144 122.501 L 14.435 123.947 21.290 124.083 L 28.144 124.219 28.259 168.029 L 28.373 211.840 29.538 213.822 C 30.920 216.172,32.783 217.832,35.413 219.054 C 37.245 219.905,38.014 219.947,52.053 219.947 L 66.773 219.947 69.207 218.752 C 71.801 217.478,73.279 216.000,74.794 213.170 C 75.685 211.503,75.740 210.818,75.865 199.787 L 75.997 188.160 128.025 188.160 L 180.053 188.160 180.053 199.399 L 180.053 210.637 181.358 213.248 C 182.801 216.135,184.414 217.709,187.307 219.054 C 189.138 219.905,189.908 219.947,203.947 219.947 C 217.986 219.947,218.755 219.905,220.587 219.054 C 224.776 217.107,227.074 214.066,227.812 209.493 C 228.103 207.695,228.261 192.217,228.263 165.470 L 228.267 124.220 234.916 124.083 L 241.565 123.947 242.856 122.501 C 243.945 121.282,244.108 120.816,243.901 119.515 C 243.757 118.610,243.199 117.577,242.551 117.013 C 241.496 116.097,241.108 116.053,234.052 116.053 L 226.659 116.053 212.020 83.124 C 203.968 65.013,196.785 49.415,196.058 48.462 C 195.266 47.423,193.730 46.214,192.225 45.444 L 189.714 44.160 128.670 44.079 C 79.295 44.013,67.286 44.105,65.845 44.558 M189.195 53.013 C 189.929 53.664,194.607 63.723,203.729 84.267 C 211.128 100.928,217.288 114.896,217.419 115.307 C 217.646 116.016,213.194 116.053,128.000 116.053 C 42.806 116.053,38.354 116.016,38.581 115.307 C 38.712 114.896,44.872 100.928,52.271 84.267 C 61.393 63.723,66.071 53.664,66.805 53.013 L 67.888 52.053 128.000 52.053 L 188.112 52.053 189.195 53.013 M220.061 166.862 L 219.947 209.564 218.553 210.808 L 217.160 212.053 203.907 212.053 L 190.654 212.053 189.407 210.806 L 188.160 209.559 188.160 196.790 C 188.160 188.785,187.989 183.530,187.701 182.705 C 186.708 179.857,191.139 180.053,128.000 180.053 C 64.861 180.053,69.292 179.857,68.299 182.705 C 68.011 183.530,67.840 188.785,67.840 196.790 L 67.840 209.559 66.593 210.806 L 65.346 212.053 52.119 212.053 L 38.892 212.053 37.579 210.949 L 36.267 209.844 36.267 167.002 L 36.267 124.160 128.221 124.160 L 220.176 124.160 220.061 166.862 " stroke="none" fill-rule="evenodd"></path></svg>