<svg fill="currentColor" viewBox="0 0 256 256" xmlns="http://www.w3.org/2000/svg"><path d="M54.339 44.370 C 52.996 44.912,52.053 46.490,52.053 48.196 C 52.053 49.616,54.141 51.784,91.197 88.848 L 130.340 128.000 91.197 167.152 C 53.780 204.578,52.053 206.372,52.053 207.841 C 52.053 211.136,55.351 212.997,58.118 211.264 C 58.889 210.781,77.509 192.377,99.495 170.366 C 126.728 143.103,139.561 129.973,139.755 129.173 C 139.911 128.528,139.911 127.472,139.755 126.827 C 139.561 126.028,126.846 113.006,99.922 86.036 C 78.170 64.247,59.625 45.863,58.709 45.183 C 57.005 43.917,55.948 43.720,54.339 44.370 M133.626 45.012 C 132.117 46.282,131.675 47.716,132.287 49.357 C 132.539 50.034,149.656 67.491,171.431 89.280 L 210.127 128.000 171.431 166.720 C 149.656 188.509,132.539 205.966,132.287 206.643 C 131.670 208.299,132.120 209.721,133.676 211.030 C 136.515 213.419,133.943 215.706,178.468 171.212 C 200.725 148.971,219.226 130.225,219.582 129.554 C 219.974 128.817,220.122 127.889,219.957 127.207 C 219.654 125.957,139.723 45.618,137.728 44.558 C 136.082 43.685,135.070 43.797,133.626 45.012 " stroke="none" fill-rule="evenodd"></path></svg>