<svg fill="currentColor" viewBox="0 0 256 256" xmlns="http://www.w3.org/2000/svg"><path d="M126.507 44.349 C 126.037 44.559,107.269 63.132,84.800 85.624 C 47.854 122.606,43.947 126.646,43.947 127.866 C 43.947 128.694,44.373 129.721,45.051 130.527 C 45.959 131.606,46.473 131.840,47.930 131.840 L 49.705 131.840 88.852 92.694 L 128.000 53.548 167.148 92.694 L 206.295 131.840 208.070 131.840 C 209.527 131.840,210.041 131.606,210.949 130.527 C 211.627 129.721,212.053 128.694,212.053 127.865 C 212.053 126.644,208.144 122.606,170.987 85.451 C 128.249 42.715,128.874 43.293,126.507 44.349 M85.253 165.013 C 56.431 193.850,44.334 206.225,44.126 207.085 C 43.473 209.786,46.236 212.522,48.952 211.864 C 49.762 211.667,62.377 199.342,89.067 172.672 L 128.000 133.766 166.933 172.672 C 194.361 200.080,206.227 211.665,207.085 211.873 C 209.784 212.528,212.521 209.765,211.865 207.048 C 211.669 206.237,198.797 193.078,170.747 165.013 L 129.915 124.160 128.000 124.160 L 126.085 124.160 85.253 165.013 " stroke="none" fill-rule="evenodd"></path></svg>