<svg fill="currentColor" viewBox="0 0 256 256" xmlns="http://www.w3.org/2000/svg"><path d="M52.477 28.546 C 50.288 29.238,48.689 30.320,46.974 32.269 C 43.878 35.786,43.904 35.508,44.040 63.195 C 44.159 87.420,44.170 87.702,45.102 89.720 C 45.752 91.129,48.193 93.943,52.995 98.824 L 59.947 105.889 60.160 162.704 C 60.400 226.650,60.071 221.007,63.767 224.599 C 67.603 228.327,62.516 228.053,128.000 228.053 C 193.814 228.053,188.457 228.356,192.397 224.415 C 196.363 220.449,196.036 225.867,196.170 161.945 L 196.288 105.651 203.122 98.705 C 207.830 93.920,210.250 91.125,210.898 89.720 C 211.830 87.702,211.841 87.420,211.960 63.195 C 212.096 35.504,212.123 35.787,209.023 32.265 C 205.639 28.421,205.431 28.373,192.000 28.373 C 178.572 28.373,178.360 28.422,174.983 32.258 C 172.273 35.337,171.947 37.015,171.947 47.879 C 171.947 58.184,171.802 58.827,169.295 59.701 C 167.562 60.306,152.438 60.306,150.705 59.701 C 148.198 58.827,148.053 58.184,148.053 47.879 C 148.053 37.015,147.727 35.337,145.017 32.258 C 141.640 28.422,141.428 28.373,128.000 28.373 C 114.572 28.373,114.360 28.422,110.983 32.258 C 108.273 35.337,107.947 37.015,107.947 47.879 C 107.947 58.184,107.802 58.827,105.295 59.701 C 103.562 60.306,88.438 60.306,86.705 59.701 C 84.198 58.827,84.053 58.184,84.053 47.879 C 84.053 37.015,83.727 35.337,81.017 32.258 C 77.683 28.470,77.332 28.385,64.640 28.290 C 58.539 28.245,53.065 28.360,52.477 28.546 M74.900 37.396 C 75.946 38.523,75.947 38.534,75.947 47.985 C 75.947 55.179,76.101 57.965,76.591 59.614 C 77.445 62.489,80.349 65.704,83.294 67.035 C 85.471 68.019,85.897 68.053,96.000 68.053 C 106.103 68.053,106.529 68.019,108.706 67.035 C 111.651 65.704,114.555 62.489,115.409 59.614 C 115.899 57.965,116.053 55.179,116.053 47.985 C 116.053 38.534,116.054 38.523,117.100 37.396 L 118.146 36.267 128.000 36.267 L 137.854 36.267 138.900 37.396 C 139.946 38.523,139.947 38.534,139.947 47.985 C 139.947 55.179,140.101 57.965,140.591 59.614 C 141.445 62.489,144.349 65.704,147.294 67.035 C 149.471 68.019,149.897 68.053,160.000 68.053 C 170.103 68.053,170.529 68.019,172.706 67.035 C 175.651 65.704,178.555 62.489,179.409 59.614 C 179.899 57.965,180.053 55.179,180.053 47.985 C 180.053 38.534,180.054 38.523,181.100 37.396 L 182.146 36.267 192.000 36.267 L 201.854 36.267 202.900 37.396 L 203.947 38.525 203.947 62.423 L 203.947 86.320 196.923 93.423 C 192.236 98.163,189.614 101.157,189.039 102.423 C 188.191 104.294,188.179 105.085,188.169 160.213 C 188.159 212.563,188.111 216.201,187.413 217.594 C 186.147 220.117,185.948 220.147,170.365 220.154 L 156.196 220.160 156.049 183.787 C 155.885 142.949,156.088 145.605,152.614 138.880 C 150.330 134.457,145.679 129.734,141.372 127.461 C 127.203 119.983,109.960 125.501,102.877 139.779 C 99.979 145.619,100.112 143.616,99.951 183.803 L 99.804 220.192 85.136 220.069 L 70.468 219.947 69.367 218.912 L 68.267 217.878 68.263 163.232 C 68.260 108.039,68.175 104.708,66.699 101.810 C 66.327 101.078,62.879 97.294,59.038 93.400 L 52.053 86.320 52.053 62.423 L 52.053 38.525 53.100 37.396 L 54.146 36.267 64.000 36.267 L 73.854 36.267 74.900 37.396 M136.582 134.064 C 142.195 136.838,146.476 142.412,147.618 148.433 C 147.892 149.877,148.053 163.616,148.053 185.445 L 148.053 220.160 128.000 220.160 L 107.947 220.160 107.947 185.445 C 107.947 164.148,108.111 149.841,108.373 148.432 C 109.338 143.227,113.283 137.538,117.754 134.902 C 121.450 132.724,123.533 132.239,128.663 132.365 C 133.133 132.475,133.546 132.563,136.582 134.064 " stroke="none" fill-rule="evenodd"></path></svg>