<svg fill="currentColor" viewBox="0 0 256 256" xmlns="http://www.w3.org/2000/svg"><path d="M59.307 29.046 C 56.970 30.101,54.434 32.477,53.191 34.773 C 52.270 36.473,52.267 36.590,52.267 64.000 C 52.267 91.396,52.271 91.528,53.189 93.227 C 54.539 95.724,56.646 97.693,59.307 98.943 C 61.611 100.025,61.854 100.047,72.853 100.197 L 84.053 100.350 84.053 120.128 L 84.053 139.907 64.533 140.033 C 45.236 140.159,44.991 140.171,43.051 141.127 C 40.549 142.360,38.253 144.656,37.020 147.157 C 36.092 149.041,36.053 149.555,36.053 160.000 C 36.053 170.445,36.092 170.959,37.020 172.843 C 38.275 175.389,40.684 177.806,43.093 178.937 C 44.775 179.726,45.953 179.856,52.587 179.980 L 60.160 180.122 60.160 202.934 L 60.160 225.745 61.207 226.793 C 61.954 227.539,62.723 227.840,63.886 227.840 C 66.012 227.840,67.276 226.912,67.821 224.947 C 68.098 223.952,68.263 215.291,68.264 201.707 L 68.267 180.053 128.213 180.053 L 188.160 180.053 188.160 202.899 L 188.160 225.745 189.207 226.793 C 189.954 227.539,190.723 227.840,191.886 227.840 C 194.012 227.840,195.276 226.912,195.821 224.947 C 196.098 223.952,196.263 215.291,196.264 201.707 L 196.267 180.053 202.803 180.053 C 210.877 180.053,212.989 179.528,215.911 176.795 C 217.036 175.743,218.405 173.981,218.952 172.881 C 219.916 170.943,219.947 170.539,219.947 160.000 C 219.947 149.490,219.913 149.053,218.961 147.139 C 217.705 144.615,215.450 142.359,212.949 141.127 C 211.009 140.171,210.764 140.159,191.467 140.033 L 171.947 139.907 171.947 120.128 L 171.947 100.350 183.147 100.191 C 193.706 100.042,194.469 99.977,196.480 99.062 C 199.013 97.909,201.532 95.587,202.809 93.227 C 203.730 91.527,203.733 91.410,203.733 64.000 C 203.733 36.590,203.730 36.473,202.809 34.773 C 201.566 32.477,199.030 30.101,196.693 29.046 C 194.789 28.186,194.218 28.179,128.000 28.179 C 61.782 28.179,61.211 28.186,59.307 29.046 M194.793 37.314 L 195.840 38.361 195.840 63.795 C 195.840 80.424,195.688 89.514,195.401 90.050 C 194.217 92.263,197.499 92.160,128.000 92.160 C 58.501 92.160,61.783 92.263,60.599 90.050 C 60.312 89.514,60.160 80.424,60.160 63.795 L 60.160 38.361 61.207 37.314 L 62.255 36.267 128.000 36.267 L 193.745 36.267 194.793 37.314 M163.840 120.107 L 163.840 139.947 128.000 139.947 L 92.160 139.947 92.160 120.107 L 92.160 100.267 128.000 100.267 L 163.840 100.267 163.840 120.107 M209.944 148.493 C 211.788 149.480,212.053 150.927,212.053 160.000 C 212.053 169.073,211.788 170.520,209.944 171.507 C 209.389 171.804,182.823 171.947,128.000 171.947 C 73.177 171.947,46.611 171.804,46.056 171.507 C 44.212 170.520,43.947 169.073,43.947 160.000 C 43.947 151.016,44.207 149.543,45.973 148.514 C 47.018 147.905,208.807 147.884,209.944 148.493 " stroke="none" fill-rule="evenodd"></path></svg>