<svg fill="currentColor" viewBox="0 0 256 256" xmlns="http://www.w3.org/2000/svg"><path d="M37.333 44.345 C 33.767 45.223,30.543 47.891,29.047 51.200 C 28.188 53.100,28.179 53.713,28.169 111.429 L 28.160 169.737 29.473 170.842 C 31.224 172.315,32.905 172.270,34.660 170.702 L 36.053 169.457 36.267 111.584 L 36.480 53.711 37.547 52.892 C 38.591 52.090,40.509 52.072,127.908 52.063 C 227.354 52.052,218.835 51.782,219.723 54.977 C 220.005 55.992,220.156 76.231,220.158 113.135 L 220.160 169.737 221.473 170.842 C 223.224 172.315,224.905 172.270,226.660 170.702 L 228.053 169.457 228.053 111.715 C 228.053 56.101,228.024 53.896,227.246 51.881 C 226.207 49.187,223.976 46.737,221.254 45.300 L 219.093 44.160 128.853 44.095 C 79.221 44.059,38.037 44.171,37.333 44.345 M117.101 165.314 L 116.053 166.361 116.053 181.314 L 116.053 196.267 65.105 196.267 L 14.156 196.267 13.009 197.630 C 12.077 198.738,11.907 199.277,12.103 200.510 C 12.243 201.390,12.808 202.429,13.449 202.987 L 14.554 203.947 128.000 203.947 L 241.446 203.947 242.551 202.987 C 243.192 202.429,243.757 201.390,243.897 200.510 C 244.093 199.277,243.923 198.738,242.991 197.630 L 241.844 196.267 215.018 196.267 L 188.192 196.267 188.069 181.367 L 187.947 166.468 186.912 165.367 L 185.878 164.267 152.013 164.267 L 118.148 164.267 117.101 165.314 M180.053 184.107 L 180.053 196.267 152.107 196.267 L 124.160 196.267 124.160 184.107 L 124.160 171.947 152.107 171.947 L 180.053 171.947 180.053 184.107 " stroke="none" fill-rule="evenodd"></path></svg>