<svg fill="currentColor" viewBox="0 0 256 256" xmlns="http://www.w3.org/2000/svg"><path d="M96.213 12.350 C 94.597 13.012,93.962 14.314,91.941 21.120 C 84.550 46.006,78.967 74.016,76.720 97.493 C 76.002 104.985,76.006 125.686,76.725 131.413 C 80.436 160.947,92.599 176.941,113.316 179.528 L 115.840 179.844 115.950 207.875 L 116.059 235.906 105.210 236.033 C 94.395 236.160,94.357 236.163,93.260 237.194 C 91.601 238.755,91.700 241.457,93.473 242.949 L 94.785 244.053 119.734 244.053 C 146.804 244.053,146.467 244.082,147.544 241.719 C 148.184 240.314,148.184 239.686,147.544 238.281 C 146.560 236.123,145.570 235.947,134.421 235.947 L 124.160 235.947 124.160 207.846 L 124.160 179.745 126.834 179.471 C 130.434 179.102,134.762 177.821,138.651 175.975 C 150.526 170.336,158.365 158.222,161.862 140.109 C 163.403 132.125,163.840 126.573,163.838 115.019 C 163.833 93.130,160.398 69.057,153.117 39.893 C 150.752 30.421,147.101 17.476,146.062 14.878 C 144.850 11.851,145.683 11.943,120.021 11.974 C 107.396 11.989,96.683 12.158,96.213 12.350 M194.133 12.317 C 190.614 13.207,188.160 16.275,188.160 19.785 C 188.160 22.418,188.965 24.241,190.864 25.909 C 195.675 30.132,203.051 27.341,203.800 21.013 C 204.135 18.185,203.407 16.169,201.393 14.350 C 199.160 12.333,196.746 11.657,194.133 12.317 M141.787 28.693 C 145.752 42.875,151.315 67.422,150.704 68.034 C 150.576 68.162,136.679 68.267,119.822 68.267 C 93.492 68.267,89.173 68.180,89.173 67.655 C 89.173 64.453,98.049 27.502,100.479 20.587 C 100.625 20.171,104.921 20.053,120.019 20.053 L 139.372 20.053 141.787 28.693 M217.440 44.557 C 215.319 45.334,213.058 47.529,212.436 49.415 C 211.724 51.570,212.240 54.858,213.561 56.590 C 216.571 60.537,221.503 61.099,225.136 57.909 C 227.035 56.241,227.840 54.418,227.840 51.785 C 227.840 46.567,222.355 42.755,217.440 44.557 M152.502 77.120 C 152.880 78.890,153.975 86.965,154.717 93.440 C 155.616 101.290,155.985 122.625,155.333 129.131 C 153.302 149.426,146.799 162.689,136.150 168.261 C 130.730 171.097,127.782 171.734,120.107 171.728 C 112.414 171.722,109.977 171.242,104.533 168.660 C 101.977 167.448,100.561 166.360,97.493 163.251 C 94.344 160.060,93.260 158.593,91.464 155.093 C 86.578 145.572,84.615 136.130,84.188 120.107 C 83.864 107.911,84.727 95.377,86.897 80.747 L 87.610 75.947 119.931 75.947 L 152.252 75.947 152.502 77.120 M192.640 92.830 C 189.320 94.553,187.934 97.108,188.250 100.924 C 188.702 106.374,194.492 109.502,199.573 107.042 C 203.980 104.908,205.275 98.889,202.175 94.948 C 200.183 92.415,195.461 91.366,192.640 92.830 " stroke="none" fill-rule="evenodd"></path></svg>