<svg fill="currentColor" viewBox="0 0 256 256" xmlns="http://www.w3.org/2000/svg"><path d="M30.720 44.232 C 30.368 44.370,29.648 44.875,29.120 45.355 L 28.160 46.229 28.160 128.036 L 28.160 209.844 29.473 210.949 L 30.785 212.053 128.066 212.053 L 225.346 212.053 226.593 210.806 C 228.270 209.129,228.334 206.692,226.739 205.194 L 225.638 204.160 130.958 204.051 L 36.278 203.941 36.166 125.234 L 36.053 46.526 34.987 45.460 C 33.896 44.370,31.865 43.785,30.720 44.232 M192.213 69.065 C 188.202 71.556,186.949 76.151,189.223 80.032 C 192.003 84.776,198.172 85.277,201.975 81.067 C 205.228 77.467,204.255 71.710,199.951 69.085 C 198.135 67.978,193.980 67.967,192.213 69.065 M104.729 84.831 C 102.071 86.076,99.845 89.319,99.845 91.947 C 99.845 94.503,102.396 98.246,104.833 99.264 C 111.510 102.053,118.393 95.035,115.123 88.771 C 112.971 84.650,108.631 83.005,104.729 84.831 M169.232 108.572 C 164.357 110.310,162.632 115.917,165.525 120.623 C 167.125 123.227,170.946 124.512,174.239 123.554 C 178.958 122.182,181.260 117.258,179.251 112.836 C 178.296 110.731,176.296 108.982,174.173 108.392 C 172.123 107.823,171.243 107.855,169.232 108.572 M130.133 140.317 C 126.614 141.207,124.160 144.275,124.160 147.785 C 124.160 150.418,124.965 152.241,126.864 153.909 C 131.675 158.132,139.051 155.341,139.800 149.013 C 140.135 146.185,139.407 144.169,137.393 142.350 C 135.160 140.333,132.746 139.657,130.133 140.317 M72.739 156.755 C 70.931 157.542,68.815 160.097,68.259 162.163 C 66.762 167.721,71.935 172.874,77.889 171.757 C 81.357 171.107,84.451 166.522,83.877 162.886 C 83.076 157.821,77.428 154.711,72.739 156.755 M184.533 156.845 C 182.475 157.969,181.403 159.150,180.648 161.126 C 178.091 167.821,184.853 174.108,191.410 171.130 C 194.116 169.901,195.562 167.699,195.739 164.535 C 195.915 161.403,195.130 159.620,192.731 157.703 C 191.392 156.633,190.661 156.389,188.464 156.279 C 186.606 156.186,185.430 156.355,184.533 156.845 " stroke="none" fill-rule="evenodd"></path></svg>