<svg fill="currentColor" viewBox="0 0 256 256" xmlns="http://www.w3.org/2000/svg"><path d="M30.720 44.232 C 30.368 44.370,29.648 44.875,29.120 45.355 L 28.160 46.229 28.160 128.036 L 28.160 209.844 29.473 210.949 L 30.785 212.053 128.066 212.053 L 225.346 212.053 226.593 210.806 C 228.270 209.129,228.334 206.692,226.739 205.194 L 225.638 204.160 130.952 204.051 L 36.267 203.941 36.281 182.717 L 36.296 161.493 66.149 135.467 C 82.567 121.152,96.192 109.488,96.426 109.546 C 96.659 109.605,110.633 119.987,127.477 132.618 C 144.322 145.250,158.561 155.704,159.119 155.850 C 159.678 155.996,160.728 155.857,161.454 155.542 C 163.336 154.725,226.652 99.180,227.364 97.722 C 228.881 94.613,225.386 91.107,222.294 92.636 C 221.637 92.961,207.604 105.035,191.108 119.467 C 174.612 133.899,160.781 145.949,160.372 146.245 C 159.719 146.718,155.830 143.938,128.586 123.525 C 100.373 102.386,97.398 100.267,95.934 100.267 C 94.781 100.267,93.924 100.610,92.922 101.472 C 92.151 102.135,79.187 113.463,64.114 126.646 C 49.040 139.828,36.612 150.613,36.495 150.613 C 36.379 150.613,36.231 127.194,36.168 98.570 L 36.053 46.526 34.987 45.460 C 33.896 44.370,31.865 43.785,30.720 44.232 " stroke="none" fill-rule="evenodd"></path></svg>