<svg fill="currentColor" viewBox="0 0 256 256" xmlns="http://www.w3.org/2000/svg"><path d="M118.613 28.464 C 110.565 29.114,98.652 32.003,90.782 35.214 C 59.612 47.931,37.421 74.312,30.138 107.307 C 27.496 119.279,27.496 136.721,30.138 148.693 C 34.441 168.185,43.446 184.693,57.377 198.623 C 71.307 212.554,87.815 221.559,107.307 225.862 C 119.279 228.504,136.721 228.504,148.693 225.862 C 168.098 221.579,184.802 212.474,198.638 198.638 C 214.932 182.343,224.819 161.762,227.445 138.671 C 228.165 132.336,227.709 117.227,226.621 111.360 C 223.614 95.153,217.576 81.024,208.365 68.641 C 191.765 46.323,167.094 32.009,139.708 28.805 C 134.728 28.223,123.794 28.046,118.613 28.464 M124.154 80.960 L 124.149 125.653 85.710 147.840 C 64.568 160.043,47.028 170.084,46.731 170.154 C 45.630 170.413,40.763 158.045,38.796 149.993 C 36.730 141.530,36.134 135.456,36.386 125.440 C 36.755 110.829,39.408 99.926,45.684 87.226 C 56.590 65.155,75.882 48.383,99.151 40.744 C 106.997 38.168,115.746 36.452,121.707 36.321 L 124.160 36.267 124.154 80.960 M138.956 36.710 C 153.515 38.643,167.238 43.706,178.737 51.389 C 184.763 55.415,189.031 58.973,193.932 64.058 C 199.027 69.342,205.227 77.227,205.227 78.420 C 205.227 78.729,134.223 120.059,132.633 120.676 C 132.430 120.754,132.267 101.931,132.267 78.542 L 132.267 36.267 133.942 36.267 C 134.864 36.267,137.120 36.466,138.956 36.710 M211.632 89.920 C 217.353 102.895,219.733 114.086,219.733 128.000 C 219.733 142.737,216.876 155.260,210.528 168.339 C 206.134 177.394,201.188 184.425,193.935 191.925 C 179.592 206.759,161.983 215.776,140.800 219.135 C 134.688 220.104,121.312 220.104,115.200 219.135 C 98.130 216.428,83.447 210.048,70.385 199.660 C 64.026 194.603,53.698 183.227,51.160 178.486 C 50.674 177.577,50.682 177.361,51.214 177.041 C 57.829 173.063,208.994 85.833,209.326 85.803 C 209.586 85.779,210.623 87.632,211.632 89.920 " stroke="none" fill-rule="evenodd"></path></svg>