<svg fill="currentColor" viewBox="0 0 256 256" xmlns="http://www.w3.org/2000/svg"><path d="M37.088 37.368 L 36.053 38.469 36.053 127.990 C 36.053 216.910,36.059 217.517,36.907 218.458 C 38.170 219.860,39.564 220.265,41.233 219.713 C 43.735 218.888,43.947 218.184,43.947 210.678 L 43.947 203.947 90.699 203.947 L 137.452 203.947 138.699 202.699 L 139.947 201.452 139.947 178.813 L 139.947 156.173 178.764 156.060 L 217.581 155.947 218.764 154.764 L 219.947 153.581 219.947 128.025 L 219.947 102.469 218.916 101.371 L 217.885 100.274 195.022 100.164 L 172.160 100.053 171.947 77.083 L 171.733 54.112 170.536 53.083 L 169.339 52.053 106.643 52.053 L 43.947 52.053 43.947 45.207 C 43.947 38.508,43.924 38.339,42.899 37.314 C 41.399 35.814,38.523 35.840,37.088 37.368 M163.840 80.215 L 163.840 100.270 104.000 100.161 L 44.160 100.053 44.049 80.107 L 43.938 60.160 103.889 60.160 L 163.840 60.160 163.840 80.215 M212.053 128.000 L 212.053 148.053 128.000 148.053 L 43.947 148.053 43.947 128.000 L 43.947 107.947 128.000 107.947 L 212.053 107.947 212.053 128.000 M131.840 176.215 L 131.840 196.271 88.000 196.162 L 44.160 196.053 44.049 176.107 L 43.938 156.160 87.889 156.160 L 131.840 156.160 131.840 176.215 " stroke="none" fill-rule="evenodd"></path></svg>