<svg fill="currentColor" viewBox="0 0 256 256" xmlns="http://www.w3.org/2000/svg"><path d="M118.613 28.450 C 84.007 31.997,54.036 52.491,38.648 83.131 C 31.579 97.206,28.115 111.922,28.086 128.000 C 28.057 143.797,31.576 158.787,38.592 172.757 L 40.491 176.538 34.307 195.042 C 28.358 212.848,28.129 213.659,28.267 216.533 C 28.581 223.123,32.877 227.419,39.467 227.733 C 42.340 227.871,43.152 227.642,60.923 221.704 L 79.392 215.533 84.176 217.831 C 93.021 222.081,102.453 225.079,112.427 226.813 C 118.388 227.849,133.830 228.090,140.160 227.245 C 162.580 224.253,182.668 214.497,198.185 199.065 C 206.568 190.728,212.572 182.418,217.592 172.201 C 224.477 158.190,227.840 143.684,227.840 128.000 C 227.840 83.174,198.441 44.252,155.190 31.818 C 150.680 30.522,143.683 29.173,138.453 28.593 C 134.878 28.196,121.992 28.103,118.613 28.450 M138.453 36.730 C 155.472 38.500,173.361 46.109,186.667 57.237 C 204.546 72.190,216.117 93.082,219.076 115.755 C 219.832 121.550,219.947 134.006,219.290 138.956 C 216.584 159.343,208.230 177.030,194.560 191.316 C 186.699 199.530,178.246 205.739,168.320 210.589 C 142.457 223.224,112.932 223.111,86.987 210.276 C 83.745 208.672,80.564 207.360,79.919 207.360 C 79.274 207.360,70.066 210.247,59.458 213.776 C 45.443 218.438,39.868 220.116,39.065 219.915 C 37.499 219.522,36.267 217.772,36.267 215.943 C 36.267 215.092,39.150 205.751,42.693 195.120 L 49.120 175.839 45.906 169.306 C 40.957 159.248,37.997 149.485,36.683 138.880 C 36.066 133.895,36.062 122.014,36.677 117.120 C 38.765 100.498,45.162 84.903,55.404 71.467 C 58.308 67.657,66.274 59.617,70.400 56.332 C 75.837 52.002,81.498 48.428,87.680 45.423 C 103.715 37.627,120.101 34.822,138.453 36.730 " stroke="none" fill-rule="evenodd"></path></svg>