<svg fill="currentColor" viewBox="0 0 256 256" xmlns="http://www.w3.org/2000/svg"><path d="M119.253 28.425 C 94.993 30.916,73.906 40.780,57.383 57.367 C 43.556 71.248,34.914 86.988,30.317 106.667 C 27.496 118.742,27.421 136.381,30.138 148.693 C 31.973 157.005,34.980 165.566,38.592 172.757 L 40.491 176.538 34.307 195.042 C 28.358 212.848,28.129 213.659,28.267 216.533 C 28.581 223.123,32.877 227.419,39.467 227.733 C 42.340 227.871,43.152 227.642,60.918 221.706 L 79.382 215.536 84.598 218.012 C 99.236 224.963,112.282 227.885,128.640 227.876 C 174.218 227.851,214.009 196.482,225.023 151.893 C 227.086 143.540,227.840 137.150,227.840 128.017 C 227.840 111.962,224.666 98.283,217.579 83.799 C 204.730 57.537,180.528 38.078,151.893 30.987 C 144.302 29.107,139.452 28.533,129.920 28.387 C 124.992 28.311,120.192 28.328,119.253 28.425 M139.947 36.885 C 150.067 38.244,159.375 41.052,168.320 45.444 C 195.995 59.033,214.881 85.117,219.070 115.535 C 219.839 121.120,219.954 133.710,219.285 139.105 C 217.198 155.920,210.299 172.279,199.673 185.600 C 198.082 187.595,194.601 191.353,191.937 193.951 C 180.172 205.427,166.709 212.948,150.355 217.180 C 143.153 219.044,136.457 219.859,128.213 219.874 C 113.352 219.900,100.851 216.993,87.142 210.321 C 83.795 208.693,80.537 207.360,79.901 207.360 C 79.266 207.360,70.066 210.247,59.458 213.776 C 45.443 218.438,39.868 220.116,39.065 219.915 C 37.499 219.522,36.267 217.772,36.267 215.943 C 36.267 215.092,39.150 205.751,42.693 195.120 L 49.120 175.839 45.906 169.306 C 40.995 159.325,37.995 149.469,36.714 139.105 C 36.043 133.680,36.161 121.111,36.935 115.535 C 41.528 82.426,63.262 54.806,94.445 42.450 C 100.301 40.129,109.255 37.773,115.399 36.937 C 121.132 36.157,134.316 36.129,139.947 36.885 M81.972 120.322 C 80.162 120.748,78.566 121.917,77.344 123.714 C 73.253 129.723,79.227 137.715,86.240 135.614 C 91.469 134.047,93.582 127.700,90.373 123.194 C 88.803 120.989,84.863 119.642,81.972 120.322 M125.979 120.299 C 120.084 121.738,118.063 129.256,122.403 133.597 C 126.762 137.955,134.098 136.007,135.698 130.066 C 137.259 124.270,131.876 118.860,125.979 120.299 M169.889 120.398 C 167.382 120.957,164.992 123.377,164.323 126.032 C 162.851 131.878,168.222 137.257,173.982 135.706 C 178.620 134.458,181.193 129.420,179.393 125.112 C 177.764 121.214,174.188 119.440,169.889 120.398 " stroke="none" fill-rule="evenodd"></path></svg>