<svg fill="currentColor" viewBox="0 0 256 256" xmlns="http://www.w3.org/2000/svg"><path d="M35.200 37.063 C 32.789 38.162,30.891 39.878,29.538 42.178 L 28.373 44.160 28.261 110.998 L 28.150 177.835 29.468 178.944 C 30.998 180.232,32.613 180.356,34.161 179.304 C 34.764 178.895,43.732 171.696,54.092 163.307 C 70.923 149.676,73.088 148.053,74.437 148.053 L 75.947 148.053 75.947 166.749 C 75.947 182.180,76.059 185.824,76.591 187.614 C 77.445 190.489,80.349 193.704,83.294 195.035 L 85.547 196.053 134.613 196.267 L 183.680 196.480 203.031 212.160 C 221.170 226.858,222.487 227.840,224.064 227.840 C 226.274 227.840,227.678 226.466,228.040 223.947 C 228.188 222.920,228.251 193.184,228.181 157.867 L 228.053 93.653 226.947 91.307 C 225.691 88.644,223.721 86.537,221.227 85.189 C 219.558 84.287,219.082 84.264,199.803 84.144 L 180.086 84.021 179.963 64.517 C 179.844 45.654,179.810 44.950,178.934 43.093 C 177.741 40.566,175.642 38.502,173.013 37.273 L 170.880 36.275 103.893 36.280 C 39.984 36.285,36.828 36.321,35.200 37.063 M169.822 44.591 C 170.507 44.946,171.266 45.605,171.507 46.056 C 171.801 46.605,171.947 61.920,171.947 92.165 L 171.947 137.452 170.699 138.699 L 169.452 139.947 119.990 139.947 L 70.528 139.947 68.864 141.163 C 67.949 141.832,60.288 147.975,51.840 154.815 L 36.480 167.250 36.364 106.772 L 36.248 46.293 37.544 45.120 L 38.840 43.947 103.708 43.947 C 160.731 43.947,168.726 44.025,169.822 44.591 M218.652 93.173 C 219.265 93.786,219.769 94.924,219.929 96.053 C 220.075 97.080,220.138 124.397,220.070 156.758 L 219.947 215.596 208.640 206.453 C 202.421 201.425,194.780 195.252,191.660 192.735 L 185.987 188.160 137.004 188.160 C 103.176 188.160,87.614 188.018,86.705 187.701 C 84.011 186.762,84.053 187.102,84.053 166.628 L 84.053 148.053 126.917 148.053 C 169.612 148.053,169.791 148.050,172.211 147.144 C 175.389 145.955,177.955 143.389,179.144 140.211 C 180.030 137.843,180.053 137.202,180.053 114.971 L 180.053 92.160 198.846 92.160 L 217.639 92.160 218.652 93.173 " stroke="none" fill-rule="evenodd"></path></svg>