<svg fill="currentColor" viewBox="0 0 256 256" xmlns="http://www.w3.org/2000/svg"><path d="M204.131 44.696 C 202.941 45.122,201.445 45.881,200.805 46.384 C 200.166 46.887,181.267 65.409,158.808 87.544 C 101.091 144.427,105.784 139.947,103.910 139.947 C 102.189 139.947,103.579 141.215,74.027 112.693 C 61.837 100.929,60.689 100.136,55.880 100.167 C 50.884 100.198,50.414 100.549,35.539 115.372 C 20.298 130.560,19.825 131.208,20.123 136.490 C 20.236 138.488,20.609 139.979,21.343 141.370 C 22.082 142.771,33.489 154.546,59.307 180.559 C 100.222 221.783,98.139 219.935,103.680 219.924 C 109.145 219.912,104.296 224.420,176.304 152.411 C 248.304 80.411,243.785 85.272,243.822 79.787 C 243.856 74.659,243.774 74.549,228.796 59.673 C 218.834 49.778,214.716 45.966,213.221 45.256 C 210.437 43.935,206.873 43.715,204.131 44.696 M219.661 61.818 C 235.125 76.770,235.947 77.669,235.947 79.632 C 235.947 81.246,234.813 82.408,170.763 146.462 C 111.345 205.884,105.436 211.672,103.947 211.914 L 102.313 212.179 65.237 175.095 L 28.160 138.012 28.160 136.116 L 28.160 134.220 40.824 121.529 C 47.790 114.550,54.026 108.617,54.683 108.345 C 55.339 108.073,56.363 107.972,56.958 108.121 C 57.586 108.279,66.203 116.247,77.553 127.167 C 90.605 139.724,97.702 146.254,98.987 146.885 C 100.414 147.588,101.680 147.831,103.921 147.835 C 109.374 147.844,107.666 149.333,149.435 108.147 C 211.502 46.947,206.171 52.053,207.988 52.053 C 209.463 52.053,210.200 52.670,219.661 61.818 " stroke="none" fill-rule="evenodd"></path></svg>