<svg fill="currentColor" viewBox="0 0 256 256" xmlns="http://www.w3.org/2000/svg"><path d="M42.880 37.271 C 40.252 38.497,37.927 41.009,36.860 43.774 C 36.079 45.801,36.053 48.461,36.053 128.000 C 36.053 207.758,36.077 210.194,36.866 212.242 C 37.944 215.036,40.465 217.697,43.210 218.938 L 45.440 219.947 128.000 219.947 L 210.560 219.947 212.790 218.938 C 215.535 217.697,218.056 215.036,219.134 212.242 C 219.923 210.194,219.947 207.758,219.947 128.000 C 219.947 48.461,219.921 45.801,219.140 43.774 C 218.073 41.009,215.748 38.497,213.120 37.271 L 210.987 36.275 128.000 36.275 L 45.013 36.275 42.880 37.271 M84.053 96.135 L 84.053 148.324 81.737 149.054 C 75.033 151.168,70.106 156.808,68.413 164.307 C 65.427 177.529,78.452 190.577,91.659 187.595 C 99.668 185.786,105.341 180.489,107.293 172.998 C 109.036 166.305,107.336 159.628,102.579 154.491 C 100.332 152.063,95.997 149.367,93.333 148.740 L 92.160 148.464 92.160 127.246 L 92.160 106.029 120.107 133.973 L 148.053 161.918 148.053 186.985 L 148.053 212.053 97.685 212.053 C 42.949 212.053,45.573 212.168,44.456 209.719 C 43.668 207.989,43.752 47.552,44.542 46.127 C 45.726 43.992,45.859 43.978,65.600 43.962 L 84.053 43.947 84.053 96.135 M131.840 57.999 C 131.840 66.745,132.009 72.505,132.287 73.252 C 132.533 73.913,136.885 78.615,141.959 83.702 L 151.184 92.952 150.074 95.436 C 148.379 99.230,147.909 101.661,148.167 105.312 C 149.180 119.682,164.286 128.290,177.097 121.798 C 180.183 120.234,183.935 116.552,185.571 113.483 C 194.589 96.564,177.155 78.117,159.594 85.998 L 156.952 87.184 148.449 78.689 L 139.947 70.195 139.947 57.071 L 139.947 43.947 174.315 43.947 C 211.631 43.947,210.446 43.872,211.544 46.281 C 212.283 47.904,212.283 208.096,211.544 209.719 C 210.463 212.090,210.919 212.053,182.421 212.053 L 156.160 212.053 156.160 185.792 C 156.160 163.792,156.061 159.344,155.547 158.379 C 155.211 157.745,140.811 143.115,123.547 125.868 L 92.160 94.509 92.160 69.228 L 92.160 43.947 112.000 43.947 L 131.840 43.947 131.840 57.999 M173.440 93.332 C 179.168 96.308,181.504 103.492,178.640 109.325 C 177.229 112.197,175.163 114.038,172.037 115.209 C 167.858 116.773,163.616 115.973,160.214 112.978 C 157.464 110.557,156.167 107.710,156.174 104.107 C 156.183 99.272,158.426 95.582,162.661 93.441 C 165.109 92.202,165.602 92.104,168.533 92.267 C 170.654 92.385,172.309 92.744,173.440 93.332 M93.405 157.490 C 97.851 159.711,100.113 163.764,99.748 168.852 C 99.491 172.430,98.380 174.695,95.742 177.017 C 92.386 179.971,88.119 180.765,83.963 179.209 C 80.837 178.038,78.771 176.197,77.360 173.325 C 74.125 166.735,77.550 158.666,84.477 156.559 C 85.065 156.380,86.716 156.217,88.145 156.197 C 90.247 156.167,91.253 156.414,93.405 157.490 " stroke="none" fill-rule="evenodd"></path></svg>