<svg fill="currentColor" viewBox="0 0 256 256" xmlns="http://www.w3.org/2000/svg"><path d="M119.253 28.413 C 118.549 28.512,116.437 28.790,114.560 29.032 C 112.683 29.273,109.171 29.882,106.757 30.384 C 101.616 31.452,100.267 32.402,100.267 34.950 C 100.267 38.210,102.595 39.520,106.667 38.553 C 113.918 36.831,117.526 36.480,128.000 36.480 C 138.585 36.480,140.881 36.698,148.549 38.427 C 152.471 39.312,153.658 39.177,154.922 37.702 C 155.997 36.447,156.219 35.392,155.723 33.890 C 155.119 32.060,154.047 31.418,150.187 30.577 C 142.614 28.928,138.705 28.507,129.707 28.372 C 124.661 28.296,119.957 28.315,119.253 28.413 M57.235 57.434 C 55.401 58.719,48.127 67.605,44.792 72.635 C 39.640 80.404,35.724 88.496,32.831 97.348 C 31.230 102.249,31.228 103.400,32.821 104.993 C 34.283 106.455,36.509 106.674,37.915 105.493 C 38.450 105.044,39.592 102.452,40.783 98.987 C 45.058 86.542,51.728 75.122,59.873 66.299 C 64.071 61.752,64.530 60.198,62.326 57.994 C 60.889 56.556,58.814 56.328,57.235 57.434 M194.987 57.049 C 192.972 57.790,191.898 60.492,192.877 62.355 C 193.168 62.908,194.577 64.611,196.009 66.141 C 204.017 74.692,211.025 86.684,215.205 98.987 C 216.427 102.584,217.502 105.027,218.068 105.493 C 219.500 106.672,221.717 106.455,223.179 104.993 C 224.772 103.400,224.770 102.249,223.169 97.348 C 220.276 88.496,216.360 80.404,211.208 72.635 C 207.873 67.605,200.599 58.719,198.765 57.434 C 197.794 56.754,196.225 56.594,194.987 57.049 M32.821 151.007 C 31.228 152.600,31.230 153.751,32.831 158.652 C 35.724 167.504,39.640 175.596,44.792 183.365 C 48.127 188.395,55.401 197.281,57.235 198.566 C 59.504 200.155,62.874 198.793,63.383 196.080 C 63.727 194.245,63.211 193.298,59.991 189.859 C 51.991 181.316,44.993 169.347,40.789 157.015 C 38.665 150.784,37.934 149.786,35.487 149.769 C 34.479 149.763,33.706 150.121,32.821 151.007 M218.410 150.398 C 217.502 150.891,216.929 152.075,215.271 156.887 C 210.990 169.305,204.147 181.082,196.238 189.642 C 194.931 191.056,193.539 192.688,193.144 193.268 C 190.781 196.743,195.295 200.996,198.765 198.566 C 200.599 197.281,207.873 188.395,211.208 183.365 C 216.360 175.596,220.276 167.504,223.169 158.652 C 224.770 153.751,224.772 152.600,223.179 151.007 C 221.792 149.620,220.212 149.418,218.410 150.398 M101.424 218.032 C 99.973 219.173,99.598 221.015,100.473 222.707 C 101.242 224.193,101.909 224.552,105.600 225.461 C 116.214 228.075,131.871 228.633,143.257 226.803 C 150.655 225.614,154.120 224.617,155.192 223.371 C 156.472 221.883,156.422 220.111,155.055 218.486 C 153.710 216.888,152.473 216.812,146.967 217.992 C 140.558 219.364,135.365 219.882,128.000 219.882 C 120.635 219.882,115.442 219.364,109.033 217.992 C 104.195 216.955,102.783 216.963,101.424 218.032 " stroke="none" fill-rule="evenodd"></path></svg>