<svg fill="currentColor" viewBox="0 0 256 256" xmlns="http://www.w3.org/2000/svg"><path d="M112.640 28.882 C 81.254 33.708,53.179 54.216,38.796 82.825 C 32.156 96.033,28.718 109.698,28.278 124.628 C 27.763 142.104,31.208 157.740,38.920 172.929 C 43.906 182.749,49.398 190.258,57.570 198.430 C 70.137 210.997,84.267 219.331,101.236 224.187 C 118.952 229.256,139.497 229.033,157.198 223.581 C 173.993 218.408,187.868 209.900,200.127 197.258 C 214.486 182.449,223.478 164.668,226.953 144.212 C 227.939 138.403,228.071 135.203,227.379 133.909 C 227.125 133.435,226.247 132.767,225.426 132.424 C 224.078 131.861,223.784 131.875,222.375 132.567 C 220.452 133.512,220.067 134.572,219.150 141.440 C 215.774 166.725,200.761 190.207,178.560 204.928 C 171.082 209.886,159.182 215.054,149.973 217.343 C 138.785 220.123,124.435 220.623,112.853 218.636 C 74.835 212.111,44.855 182.663,37.739 144.853 C 36.355 137.502,35.876 125.636,36.660 118.146 C 38.840 97.311,48.129 77.782,62.932 62.910 C 76.939 48.839,95.074 39.610,114.040 36.902 C 116.673 36.526,119.450 36.124,120.212 36.010 C 120.973 35.896,122.121 35.351,122.762 34.800 C 124.432 33.363,124.421 30.628,122.740 29.181 C 121.328 27.967,119.035 27.899,112.640 28.882 M156.800 28.744 C 154.131 29.989,151.912 33.307,151.912 36.053 C 151.912 38.819,154.496 42.491,157.148 43.493 C 158.686 44.074,161.314 44.074,162.852 43.493 C 165.508 42.489,168.077 38.834,168.097 36.030 C 168.111 34.079,166.209 30.656,164.447 29.464 C 162.574 28.196,158.746 27.836,156.800 28.744 M192.590 52.870 C 187.898 55.001,186.630 61.405,190.132 65.282 C 193.943 69.500,200.904 68.410,203.192 63.236 C 206.170 56.504,199.325 49.811,192.590 52.870 M125.207 69.314 L 124.160 70.361 124.160 99.939 C 124.160 132.820,123.992 130.971,127.053 131.821 C 129.432 132.482,183.218 132.378,185.152 131.709 C 186.970 131.081,188.371 128.898,187.973 127.315 C 187.822 126.713,187.235 125.756,186.669 125.190 L 185.639 124.160 158.953 124.160 L 132.267 124.160 132.264 98.453 C 132.263 82.080,132.102 72.170,131.821 71.159 C 131.276 69.195,130.012 68.267,127.886 68.267 C 126.723 68.267,125.954 68.567,125.207 69.314 M219.093 88.104 C 218.859 88.182,218.142 88.361,217.501 88.502 C 215.937 88.847,213.341 91.183,212.630 92.886 C 211.328 96.003,212.167 99.581,214.727 101.828 C 217.680 104.422,220.721 104.682,224.205 102.641 C 228.977 99.844,229.020 92.138,224.279 89.428 C 222.588 88.462,220.005 87.802,219.093 88.104 " stroke="none" fill-rule="evenodd"></path></svg>