<svg fill="currentColor" viewBox="0 0 256 256" xmlns="http://www.w3.org/2000/svg"><path d="M146.251 20.677 C 125.203 23.698,106.895 35.318,95.471 52.907 C 92.746 57.102,90.226 62.043,88.559 66.455 C 87.917 68.157,87.249 69.462,87.075 69.355 C 86.191 68.809,80.349 68.230,75.775 68.237 C 62.513 68.254,51.034 73.122,41.750 82.666 C 33.171 91.485,28.745 101.701,28.272 113.777 C 28.001 120.667,28.581 125.028,30.558 130.987 C 36.072 147.603,49.028 159.088,66.773 163.090 C 70.328 163.891,72.457 163.970,95.442 164.151 L 120.271 164.347 106.215 185.424 C 93.736 204.137,92.160 206.688,92.160 208.172 C 92.160 209.529,92.417 210.060,93.523 210.991 C 94.617 211.912,95.175 212.091,96.349 211.901 C 97.154 211.770,98.145 211.362,98.552 210.994 C 98.958 210.626,106.182 199.967,114.605 187.308 L 129.920 164.290 141.653 164.269 C 162.177 164.234,169.488 163.405,179.395 159.988 C 200.414 152.741,216.740 136.416,223.987 115.399 C 226.679 107.593,227.444 103.303,227.713 94.505 C 227.978 85.846,227.578 81.790,225.741 74.523 C 222.432 61.432,216.401 50.856,206.720 41.171 C 196.103 30.550,183.235 23.866,168.044 21.083 C 162.982 20.155,151.391 19.940,146.251 20.677 M168.747 29.442 C 195.332 35.095,215.604 56.556,219.272 82.930 C 219.927 87.641,219.840 97.666,219.105 102.199 C 216.911 115.725,210.647 127.797,200.736 137.600 C 193.626 144.632,184.740 149.979,175.226 152.949 C 165.450 156.001,167.944 155.862,119.467 156.049 C 87.791 156.171,74.616 156.081,71.680 155.720 C 55.119 153.684,42.064 142.538,37.465 126.507 C 36.140 121.890,36.036 110.685,37.274 106.027 C 39.526 97.552,45.158 89.165,52.007 84.088 C 60.262 77.968,70.367 75.192,80.283 76.319 C 82.695 76.594,84.811 76.960,84.985 77.134 C 85.159 77.308,85.021 79.176,84.679 81.285 C 83.879 86.217,83.884 89.168,84.695 90.326 C 85.545 91.540,87.892 92.302,89.219 91.795 C 91.201 91.037,91.806 89.851,92.229 85.887 C 93.532 73.693,98.419 61.560,105.724 52.379 C 115.946 39.533,131.527 30.774,148.053 28.583 C 152.780 27.957,163.940 28.420,168.747 29.442 M149.251 189.333 C 148.649 189.979,140.987 201.259,132.226 214.400 C 120.122 232.555,116.257 238.661,116.136 239.825 C 115.802 243.035,119.647 245.163,122.180 243.171 C 123.570 242.077,155.577 194.265,155.972 192.692 C 156.278 191.473,155.224 189.227,154.050 188.599 C 152.487 187.762,150.423 188.078,149.251 189.333 " stroke="none" fill-rule="evenodd"></path></svg>