<svg fill="currentColor" viewBox="0 0 256 256" xmlns="http://www.w3.org/2000/svg"><path d="M154.453 44.226 C 141.139 45.502,131.518 48.213,121.290 53.572 C 105.544 61.821,92.923 74.531,85.149 89.969 L 83.587 93.070 81.154 92.722 C 76.570 92.066,64.122 92.342,60.160 93.187 C 48.112 95.757,38.623 100.906,29.826 109.645 C 20.781 118.630,15.443 128.576,12.936 141.112 C 11.810 146.739,11.918 157.942,13.154 163.707 C 15.743 175.787,21.162 185.847,29.658 194.342 C 38.053 202.738,47.880 208.073,60.075 210.856 C 64.195 211.796,64.428 211.801,113.493 211.951 C 146.998 212.054,164.332 211.953,167.642 211.636 C 178.319 210.614,187.830 207.846,197.760 202.872 C 214.156 194.659,226.653 182.165,234.880 165.760 C 245.111 145.357,246.786 123.310,239.739 101.789 C 233.547 82.880,220.820 66.863,203.520 56.205 C 189.554 47.602,169.731 42.762,154.453 44.226 M172.373 53.053 C 183.860 55.020,194.539 59.411,203.947 66.034 C 209.185 69.722,218.278 78.815,221.966 84.053 C 227.197 91.483,231.431 100.622,233.534 109.017 C 235.290 116.033,235.707 119.670,235.707 128.000 C 235.707 136.330,235.290 139.967,233.534 146.983 C 229.058 164.856,217.115 181.461,201.387 191.676 C 191.874 197.854,181.441 201.724,170.007 203.315 C 165.941 203.880,158.346 203.954,114.753 203.850 L 64.213 203.730 59.210 202.377 C 39.532 197.055,25.317 182.007,21.016 161.946 C 20.473 159.412,20.289 156.654,20.319 151.467 C 20.356 145.049,20.476 143.982,21.674 139.397 C 26.848 119.611,42.030 105.162,61.904 101.112 C 66.205 100.236,75.863 99.892,79.105 100.500 L 80.502 100.762 79.270 104.888 C 77.629 110.384,76.448 117.463,76.107 123.847 L 75.828 129.073 76.992 130.457 C 78.561 132.322,80.989 132.410,82.735 130.664 C 83.843 129.556,83.927 129.200,84.175 124.584 C 84.987 109.459,89.557 96.093,98.034 84.053 C 101.722 78.815,110.815 69.722,116.053 66.034 C 125.741 59.213,137.761 54.391,148.693 52.939 C 150.571 52.690,152.683 52.404,153.387 52.304 C 155.951 51.939,168.841 52.448,172.373 53.053 M133.626 109.012 C 132.115 110.283,131.674 111.719,132.292 113.357 C 132.541 114.019,137.577 119.408,143.482 125.333 L 154.218 136.107 143.272 147.093 C 136.495 153.894,132.220 158.509,132.048 159.207 C 131.722 160.531,132.727 162.746,133.950 163.401 C 134.401 163.642,135.488 163.840,136.364 163.840 C 137.878 163.840,138.514 163.287,148.979 152.872 L 160.000 141.903 171.021 152.872 C 181.486 163.287,182.122 163.840,183.636 163.840 C 184.512 163.840,185.599 163.642,186.050 163.401 C 187.273 162.746,188.278 160.531,187.952 159.207 C 187.780 158.509,183.505 153.894,176.728 147.093 L 165.782 136.107 176.518 125.333 C 182.423 119.408,187.459 114.019,187.708 113.357 C 188.326 111.719,187.885 110.283,186.374 109.012 C 184.995 107.852,183.921 107.688,182.479 108.418 C 181.966 108.678,176.699 113.716,170.773 119.615 L 160.000 130.340 149.227 119.615 C 143.301 113.716,138.034 108.678,137.521 108.418 C 136.079 107.688,135.005 107.852,133.626 109.012 " stroke="none" fill-rule="evenodd"></path></svg>