<svg fill="currentColor" viewBox="0 0 256 256" xmlns="http://www.w3.org/2000/svg"><path d="M153.046 44.411 C 124.189 46.792,98.062 64.327,85.141 89.985 C 83.602 93.041,83.545 93.097,82.212 92.833 C 81.465 92.685,77.781 92.452,74.027 92.314 C 68.259 92.103,66.405 92.201,62.080 92.949 C 49.226 95.172,38.855 100.567,29.632 109.826 C 20.893 118.601,15.830 128.011,13.170 140.421 C 11.930 146.211,11.820 156.986,12.945 162.675 C 17.788 187.183,35.625 205.408,60.075 210.829 C 63.809 211.657,65.828 211.765,80.741 211.938 L 97.269 212.130 98.555 210.844 C 100.270 209.129,100.350 206.708,98.740 205.194 L 97.640 204.160 80.926 203.900 C 63.017 203.622,61.506 203.459,54.878 201.101 C 33.846 193.618,20.047 174.223,20.055 152.157 C 20.060 138.519,24.894 126.249,34.177 116.308 C 41.494 108.473,52.106 102.737,62.716 100.880 C 66.429 100.230,75.721 100.016,78.803 100.509 L 80.520 100.783 79.528 103.997 C 77.544 110.429,75.972 120.363,75.954 126.581 C 75.948 128.798,76.121 129.422,77.051 130.527 C 78.588 132.353,81.018 132.381,82.806 130.593 C 83.948 129.451,84.053 129.092,84.053 126.348 C 84.053 119.137,86.340 107.626,89.215 100.363 C 93.134 90.464,98.507 82.381,106.444 74.444 C 116.581 64.307,127.461 57.998,140.682 54.589 C 164.062 48.561,188.074 53.575,207.147 68.468 C 211.677 72.005,218.382 79.073,221.965 84.087 C 225.429 88.934,230.364 98.621,232.061 103.903 C 239.385 126.697,236.100 150.808,222.995 170.433 C 219.673 175.408,219.408 176.807,221.407 178.806 C 222.903 180.302,224.676 180.438,226.275 179.180 C 228.023 177.805,232.397 170.965,235.351 164.988 C 242.252 151.022,245.187 135.014,243.618 119.893 C 240.161 86.575,217.976 58.969,186.048 48.257 C 180.361 46.348,172.681 44.884,165.736 44.383 C 159.212 43.913,159.082 43.913,153.046 44.411 M133.645 140.480 C 124.638 149.456,116.996 157.318,116.661 157.952 C 115.765 159.652,115.917 161.052,117.158 162.527 C 118.063 163.602,118.581 163.840,120.022 163.840 C 121.760 163.840,121.939 163.683,134.917 150.729 L 148.053 137.618 148.053 173.532 L 148.053 209.446 149.013 210.551 C 149.577 211.199,150.610 211.757,151.515 211.901 C 152.816 212.108,153.281 211.945,154.501 210.855 L 155.947 209.564 156.061 173.818 L 156.174 138.073 169.103 150.956 C 181.694 163.503,182.076 163.840,183.721 163.840 C 185.750 163.840,187.002 163.045,187.726 161.297 C 188.142 160.294,188.151 159.728,187.767 158.801 C 187.494 158.142,179.737 150.078,170.529 140.881 L 153.788 124.160 151.904 124.160 L 150.020 124.160 133.645 140.480 " stroke="none" fill-rule="evenodd"></path></svg>