<svg fill="currentColor" viewBox="0 0 256 256" xmlns="http://www.w3.org/2000/svg"><path d="M146.347 20.699 C 120.289 24.283,97.625 42.226,88.550 66.455 C 87.912 68.157,87.249 69.462,87.075 69.355 C 86.191 68.809,80.349 68.230,75.775 68.237 C 62.513 68.254,51.034 73.122,41.750 82.666 C 33.171 91.485,28.745 101.701,28.272 113.777 C 28.001 120.667,28.581 125.028,30.558 130.987 C 36.134 147.791,49.605 159.557,67.493 163.249 C 70.509 163.871,74.755 164.018,95.852 164.230 L 120.665 164.480 110.651 181.120 C 105.144 190.272,100.453 198.220,100.226 198.781 C 99.672 200.157,100.442 202.404,101.767 203.272 C 102.662 203.859,105.005 203.947,119.711 203.947 C 134.957 203.947,136.599 204.013,136.366 204.621 C 136.223 204.992,131.595 212.819,126.080 222.013 C 118.596 234.490,116.053 239.074,116.053 240.088 C 116.053 241.916,117.575 243.592,119.515 243.901 C 120.807 244.106,121.270 243.949,122.377 242.926 C 124.072 241.360,147.645 202.030,147.926 200.299 C 148.087 199.307,147.862 198.665,146.991 197.630 L 145.844 196.267 128.602 196.267 C 118.288 196.267,111.360 196.108,111.360 195.871 C 111.360 195.653,115.546 188.501,120.663 179.978 L 129.966 164.480 145.943 164.205 C 163.046 163.911,167.403 163.497,174.897 161.456 C 187.491 158.025,198.302 151.602,207.613 142.020 C 217.375 131.972,223.556 120.309,226.649 106.097 C 227.463 102.359,227.596 100.435,227.610 92.160 C 227.629 81.179,227.040 77.359,223.935 68.332 C 212.911 36.275,180.000 16.070,146.347 20.699 M164.907 28.635 C 174.700 29.886,184.988 33.985,193.420 39.995 C 197.851 43.153,204.749 50.056,207.920 54.503 C 213.456 62.270,217.666 72.505,219.102 81.689 C 220.012 87.504,219.783 99.941,218.675 104.960 C 213.612 127.886,197.103 146.120,175.226 152.949 C 165.450 156.001,167.944 155.862,119.467 156.049 C 72.673 156.230,70.604 156.159,64.213 154.147 C 51.201 150.052,41.296 139.871,37.531 126.720 C 36.363 122.639,35.933 113.980,36.672 109.399 C 38.269 99.500,44.015 90.003,51.965 84.124 C 60.288 77.969,70.366 75.192,80.283 76.319 C 82.695 76.594,84.811 76.960,84.985 77.134 C 85.159 77.308,85.021 79.176,84.679 81.285 C 83.879 86.217,83.884 89.168,84.695 90.326 C 85.545 91.540,87.892 92.302,89.219 91.795 C 91.170 91.049,91.802 89.845,92.204 86.104 C 94.615 63.667,107.176 45.047,126.645 35.046 C 138.410 29.003,151.122 26.873,164.907 28.635 " stroke="none" fill-rule="evenodd"></path></svg>