<svg fill="currentColor" viewBox="0 0 256 256" xmlns="http://www.w3.org/2000/svg"><path d="M85.301 21.301 L 84.053 22.548 84.053 39.979 C 84.053 59.237,83.993 58.798,86.767 59.713 C 88.436 60.264,89.829 59.860,91.093 58.458 C 91.910 57.552,91.952 56.815,92.074 41.236 C 92.145 32.284,92.084 24.315,91.940 23.527 C 91.327 20.181,87.652 18.949,85.301 21.301 M117.301 21.301 L 116.053 22.548 116.053 39.979 C 116.053 59.237,115.993 58.798,118.767 59.713 C 120.436 60.264,121.829 59.860,123.093 58.458 C 123.910 57.552,123.952 56.815,124.074 41.236 C 124.145 32.284,124.084 24.315,123.940 23.527 C 123.327 20.181,119.652 18.949,117.301 21.301 M149.301 21.301 L 148.053 22.548 148.053 39.979 C 148.053 59.237,147.993 58.798,150.767 59.713 C 152.436 60.264,153.829 59.860,155.093 58.458 C 155.910 57.552,155.952 56.815,156.074 41.236 C 156.145 32.284,156.084 24.315,155.940 23.527 C 155.327 20.181,151.652 18.949,149.301 21.301 M29.460 85.169 L 28.118 86.298 28.264 116.642 C 28.403 145.790,28.446 147.172,29.339 151.680 C 32.951 169.896,39.682 183.724,51.524 197.259 C 55.099 201.344,61.683 207.357,65.862 210.353 L 67.937 211.840 49.149 212.053 L 30.361 212.267 29.261 213.301 C 27.265 215.176,27.983 218.602,30.596 219.680 C 31.483 220.045,54.446 220.142,120.675 220.058 L 209.563 219.947 210.855 218.501 C 211.945 217.281,212.108 216.816,211.901 215.515 C 211.757 214.610,211.199 213.577,210.551 213.013 L 209.446 212.053 190.632 212.053 L 171.818 212.053 175.400 209.387 C 179.750 206.149,186.836 199.388,190.562 194.920 C 196.781 187.464,202.899 176.887,206.195 167.893 L 207.602 164.053 211.001 163.786 C 219.943 163.084,227.910 159.193,234.319 152.400 C 239.169 147.259,242.060 141.466,243.437 134.133 C 244.360 129.214,244.113 115.538,243.029 111.573 C 239.399 98.294,230.403 89.146,216.960 85.063 C 214.523 84.323,209.993 84.280,122.601 84.163 L 30.801 84.040 29.460 85.169 M203.947 116.283 C 203.947 130.348,203.758 142.135,203.495 144.550 C 200.917 168.221,188.514 189.872,169.600 203.723 C 165.819 206.492,161.796 209.005,158.406 210.716 L 155.758 212.053 119.788 212.053 L 83.818 212.053 78.922 209.219 C 57.344 196.729,43.058 177.129,37.688 152.648 L 36.540 147.413 36.378 119.787 L 36.216 92.160 120.081 92.160 L 203.947 92.160 203.947 116.283 M215.253 93.040 C 216.427 93.335,218.731 94.240,220.373 95.052 C 226.006 97.835,230.166 102.015,232.994 107.733 C 235.537 112.874,236.051 116.062,235.848 125.440 C 235.691 132.703,235.584 133.606,234.501 136.743 C 231.455 145.566,225.008 151.881,216.191 154.678 C 214.361 155.258,212.180 155.733,211.345 155.733 C 209.924 155.733,209.845 155.663,210.106 154.626 C 211.569 148.794,211.736 145.530,211.925 118.959 C 212.069 98.717,212.237 92.246,212.618 92.357 C 212.894 92.437,214.080 92.745,215.253 93.040 " stroke="none" fill-rule="evenodd"></path></svg>