<svg fill="currentColor" viewBox="0 0 256 256" xmlns="http://www.w3.org/2000/svg"><path d="M84.864 44.365 C 61.187 45.933,41.735 51.418,27.733 60.474 C 22.800 63.664,16.882 69.704,14.825 73.648 C 11.937 79.185,11.896 79.649,12.045 105.315 C 12.178 128.027,12.187 128.235,13.165 130.868 C 18.518 145.287,39.437 157.121,67.627 161.678 C 70.677 162.171,73.797 162.676,74.560 162.800 L 75.947 163.025 75.953 168.446 C 75.964 178.106,77.831 182.788,84.257 189.269 C 88.834 193.886,93.003 196.765,100.022 200.158 C 111.435 205.675,126.361 209.541,142.933 211.271 C 149.863 211.995,170.137 211.995,177.067 211.271 C 197.831 209.103,215.893 203.566,228.146 195.613 C 233.207 192.328,239.100 186.330,241.175 182.352 C 244.063 176.815,244.104 176.351,243.955 150.685 C 243.822 127.973,243.813 127.765,242.835 125.132 C 237.395 110.479,215.757 98.416,187.469 94.265 C 183.977 93.752,180.880 93.267,180.587 93.187 C 180.196 93.079,180.052 91.582,180.047 87.587 C 180.036 77.899,178.179 73.233,171.743 66.716 C 160.555 55.391,140.415 47.749,114.560 45.020 C 107.079 44.230,91.946 43.897,84.864 44.365 M115.413 53.090 C 142.890 56.396,163.912 65.817,170.226 77.653 C 171.555 80.144,171.707 80.776,171.719 83.848 C 171.732 86.858,171.567 87.606,170.351 90.078 C 165.128 100.692,146.272 110.150,122.880 113.889 C 112.836 115.494,108.304 115.820,96.000 115.820 C 83.696 115.820,79.164 115.494,69.120 113.889 C 45.730 110.151,26.874 100.694,21.649 90.079 C 20.439 87.621,20.267 86.846,20.267 83.849 C 20.267 80.750,20.408 80.164,21.760 77.653 C 28.840 64.504,53.617 54.564,84.907 52.320 C 90.117 51.946,110.098 52.451,115.413 53.090 M188.160 102.454 C 199.075 104.315,208.112 107.048,216.228 110.944 C 225.770 115.523,231.665 120.359,234.346 125.804 C 235.565 128.280,235.733 129.038,235.727 132.044 C 235.721 134.958,235.538 135.829,234.492 137.903 C 228.578 149.642,208.075 159.153,180.693 162.860 C 172.759 163.934,147.656 163.938,139.947 162.866 C 132.600 161.845,132.267 161.760,132.267 160.897 C 132.267 160.323,133.012 159.983,135.573 159.389 C 141.476 158.020,150.278 154.918,155.710 152.294 C 168.051 146.331,175.778 139.168,178.824 130.868 C 179.747 128.352,179.806 127.507,179.953 114.698 L 180.107 101.182 181.680 101.400 C 182.545 101.520,185.461 101.994,188.160 102.454 M27.947 107.720 C 34.191 111.910,44.370 116.216,54.507 118.956 L 60.160 120.484 60.160 136.243 L 60.160 152.002 58.531 151.742 C 55.637 151.279,45.995 148.015,41.238 145.889 C 32.099 141.802,24.210 135.399,21.495 129.863 L 20.267 127.360 20.137 114.404 L 20.007 101.447 22.483 103.582 C 23.845 104.756,26.304 106.618,27.947 107.720 M171.864 117.333 L 171.733 127.360 170.505 129.863 C 167.183 136.637,157.646 143.541,145.280 148.127 C 142.081 149.314,133.405 151.893,132.614 151.893 C 132.417 151.893,132.307 144.761,132.368 136.044 L 132.480 120.194 137.973 118.751 C 150.814 115.377,162.995 109.491,169.813 103.364 L 171.733 101.639 171.864 104.473 C 171.937 106.031,171.937 111.819,171.864 117.333 M78.293 123.164 C 82.344 123.625,88.044 123.844,96.000 123.844 C 106.947 123.844,110.574 123.613,121.925 122.188 L 124.171 121.907 124.059 137.860 L 123.947 153.813 118.827 154.519 C 104.108 156.547,87.380 156.497,72.000 154.378 L 68.267 153.863 68.267 137.887 L 68.267 121.911 70.293 122.197 C 71.408 122.355,75.008 122.790,78.293 123.164 M235.864 165.333 L 235.733 175.573 234.240 178.340 C 229.672 186.803,216.797 194.621,200.213 199.002 L 196.267 200.045 196.267 184.124 L 196.267 168.202 200.213 167.240 C 213.689 163.953,228.418 156.842,234.260 150.803 L 235.733 149.280 235.864 152.187 C 235.936 153.785,235.936 159.701,235.864 165.333 M113.067 165.283 C 115.531 166.068,119.035 167.059,120.853 167.486 L 124.160 168.263 124.160 184.185 C 124.160 192.942,124.112 200.106,124.053 200.106 C 123.225 200.097,114.684 197.539,110.958 196.183 C 98.530 191.661,89.491 185.260,85.763 178.340 C 84.298 175.622,84.269 175.471,84.122 169.707 L 83.972 163.840 96.279 163.848 L 108.587 163.856 113.067 165.283 M140.160 170.908 C 152.283 172.364,172.287 172.147,183.511 170.439 C 185.716 170.103,187.664 169.825,187.840 169.821 C 188.016 169.817,188.160 176.991,188.160 185.764 L 188.160 201.715 184.853 202.184 C 174.933 203.590,172.820 203.718,159.787 203.704 C 146.887 203.689,140.964 203.296,133.653 201.970 L 132.267 201.718 132.267 185.732 L 132.267 169.746 133.440 169.994 C 134.085 170.130,137.109 170.541,140.160 170.908 " stroke="none" fill-rule="evenodd"></path></svg>