<svg fill="currentColor" viewBox="0 0 256 256" xmlns="http://www.w3.org/2000/svg"><path d="M96.427 28.814 C 83.971 31.522,73.105 39.778,63.994 53.455 C 37.296 93.533,37.296 162.467,63.994 202.545 C 73.359 216.604,84.017 224.541,97.493 227.493 C 101.196 228.304,154.804 228.304,158.507 227.493 C 172.035 224.530,182.485 216.741,192.077 202.471 C 215.793 167.188,218.709 106.137,198.641 65.049 C 189.296 45.915,177.031 33.938,162.105 29.369 C 158.948 28.403,158.793 28.398,129.067 28.305 C 104.662 28.228,98.693 28.322,96.427 28.814 M111.084 36.946 C 130.283 41.921,146.572 65.404,152.933 97.280 C 155.204 108.658,155.504 112.246,155.504 128.000 C 155.504 143.754,155.204 147.342,152.933 158.720 C 147.009 188.403,131.951 211.631,114.509 217.992 C 106.358 220.964,98.993 220.645,91.041 216.975 C 63.550 204.287,46.753 154.557,53.568 106.027 C 58.628 70.000,76.173 41.916,96.734 36.935 C 100.190 36.098,107.834 36.104,111.084 36.946 M159.106 36.923 C 168.628 39.168,178.958 47.593,186.158 58.987 L 186.900 60.160 167.579 60.160 L 148.258 60.160 146.229 56.775 C 142.018 49.748,135.397 41.966,129.929 37.617 L 128.232 36.267 142.303 36.273 C 153.342 36.278,156.962 36.418,159.106 36.923 M193.505 73.032 C 197.600 82.735,200.300 92.416,202.026 103.583 C 202.904 109.270,203.939 119.845,203.945 123.200 L 203.947 124.160 183.959 124.160 L 163.972 124.160 163.701 118.502 C 162.892 101.639,158.835 83.634,152.550 69.013 C 152.247 68.308,153.326 68.267,171.861 68.267 L 191.493 68.267 193.505 73.032 M203.721 136.853 C 202.664 154.013,199.092 170.053,193.388 183.253 L 191.360 187.947 171.789 188.058 C 153.273 188.163,152.231 188.128,152.455 187.418 C 152.585 187.005,153.552 184.459,154.603 181.760 C 159.567 169.024,162.936 152.720,163.693 137.770 L 163.971 132.267 183.988 132.267 L 204.004 132.267 203.721 136.853 M185.974 197.227 C 184.686 199.656,180.450 204.915,177.111 208.234 C 172.953 212.365,169.379 214.935,164.959 216.974 C 158.929 219.755,158.240 219.848,142.293 220.026 L 127.787 220.188 129.707 218.583 C 136.838 212.623,141.306 207.255,147.482 197.227 L 148.073 196.267 167.278 196.267 L 186.483 196.267 185.974 197.227 " stroke="none" fill-rule="evenodd"></path></svg>