<svg fill="currentColor" viewBox="0 0 256 256" xmlns="http://www.w3.org/2000/svg"><path d="M118.613 28.464 C 110.565 29.114,98.652 32.003,90.782 35.214 C 59.612 47.931,37.421 74.312,30.138 107.307 C 27.496 119.279,27.496 136.721,30.138 148.693 C 34.441 168.185,43.446 184.693,57.377 198.623 C 71.307 212.554,87.815 221.559,107.307 225.862 C 119.279 228.504,136.721 228.504,148.693 225.862 C 168.098 221.579,184.802 212.474,198.638 198.638 C 214.932 182.343,224.819 161.762,227.445 138.671 C 228.165 132.336,227.709 117.227,226.621 111.360 C 223.614 95.153,217.576 81.024,208.365 68.641 C 191.765 46.323,167.094 32.009,139.708 28.805 C 134.728 28.223,123.794 28.046,118.613 28.464 M141.450 37.088 C 151.293 38.536,159.191 40.985,168.320 45.421 C 195.814 58.779,214.837 85.062,219.065 115.535 C 219.837 121.096,219.960 133.911,219.290 138.956 C 216.572 159.430,208.181 177.095,194.306 191.550 C 186.556 199.624,178.023 205.880,168.394 210.544 C 146.182 221.305,122.141 222.924,98.987 215.218 C 75.515 207.406,56.191 190.487,45.421 168.320 C 38.959 155.019,36.271 143.174,36.271 128.000 C 36.271 112.826,38.959 100.981,45.421 87.680 C 58.548 60.660,84.406 41.633,114.133 37.120 C 121.418 36.014,134.048 35.999,141.450 37.088 M122.667 84.311 C 112.149 85.868,103.321 90.320,96.389 97.562 C 92.819 101.291,92.160 102.314,92.160 104.126 C 92.160 105.402,92.434 105.968,93.473 106.842 C 95.863 108.854,96.800 108.481,101.694 103.573 C 110.056 95.188,118.546 91.767,129.707 92.287 C 135.587 92.560,138.476 93.279,143.573 95.735 C 148.228 97.978,151.959 100.735,154.838 104.059 C 165.377 116.223,166.822 132.952,158.544 146.948 C 156.166 150.967,150.753 156.317,146.542 158.809 C 141.162 161.992,136.096 163.492,129.878 163.742 C 123.870 163.984,120.491 163.496,115.374 161.644 C 110.380 159.837,105.872 156.769,101.280 152.053 C 96.883 147.536,95.854 147.155,93.473 149.158 C 90.699 151.492,91.976 154.425,98.358 160.381 C 103.658 165.326,109.879 168.702,117.471 170.754 C 120.366 171.536,122.122 171.699,127.787 171.715 C 133.625 171.731,135.161 171.589,138.396 170.733 C 147.105 168.431,152.568 165.290,158.929 158.929 C 165.297 152.562,168.450 147.073,170.725 138.396 C 172.159 132.929,172.159 123.071,170.725 117.604 C 168.041 107.369,162.255 98.687,154.078 92.625 C 150.310 89.831,143.289 86.516,138.667 85.349 C 135.128 84.455,125.788 83.849,122.667 84.311 " stroke="none" fill-rule="evenodd"></path></svg>