<svg fill="currentColor" viewBox="0 0 256 256" xmlns="http://www.w3.org/2000/svg"><path d="M85.101 37.314 L 84.053 38.361 84.053 61.207 L 84.053 84.053 61.289 84.053 L 38.525 84.053 37.424 85.074 C 36.818 85.635,36.207 86.739,36.066 87.527 C 35.924 88.315,35.864 117.900,35.931 153.270 L 36.053 217.581 37.236 218.764 L 38.419 219.947 102.730 220.069 C 138.100 220.136,167.685 220.075,168.474 219.934 C 169.263 219.793,170.367 219.218,170.928 218.658 L 171.947 217.639 171.947 194.793 L 171.947 171.947 194.793 171.947 L 217.639 171.947 218.658 170.928 C 219.218 170.367,219.793 169.263,219.934 168.474 C 220.075 167.685,220.136 138.111,220.069 102.754 L 219.947 38.469 218.912 37.368 L 217.878 36.267 152.013 36.267 L 86.148 36.267 85.101 37.314 M212.053 104.111 L 212.053 164.275 192.107 164.164 L 172.160 164.053 171.947 125.083 L 171.733 86.113 170.536 85.083 L 169.339 84.053 130.750 84.053 L 92.160 84.053 92.160 64.000 L 92.160 43.947 152.107 43.947 L 212.053 43.947 212.053 104.111 M163.840 152.107 L 163.840 212.053 103.893 212.053 L 43.947 212.053 43.947 152.107 L 43.947 92.160 103.893 92.160 L 163.840 92.160 163.840 152.107 " stroke="none" fill-rule="evenodd"></path></svg>