<svg fill="currentColor" viewBox="0 0 256 256" xmlns="http://www.w3.org/2000/svg"><path d="M46.127 44.542 C 43.972 45.737,43.978 45.669,43.962 68.153 L 43.947 89.160 45.173 90.532 C 46.141 91.615,46.735 91.904,48.000 91.904 C 49.265 91.904,49.859 91.615,50.827 90.532 L 52.053 89.160 52.053 70.607 L 52.053 52.053 70.607 52.053 L 89.160 52.053 90.532 50.827 C 92.462 49.103,92.462 46.897,90.532 45.173 L 89.160 43.947 68.153 43.962 C 51.537 43.974,46.934 44.095,46.127 44.542 M165.468 45.173 C 164.385 46.141,164.096 46.735,164.096 48.000 C 164.096 49.265,164.385 49.859,165.468 50.827 L 166.840 52.053 185.393 52.053 L 203.947 52.053 203.947 70.607 L 203.947 89.160 205.173 90.532 C 206.897 92.462,209.103 92.462,210.827 90.532 L 212.053 89.160 212.053 68.239 C 212.053 45.544,212.051 45.519,209.719 44.456 C 208.900 44.083,203.000 43.947,187.720 43.947 L 166.840 43.947 165.468 45.173 M45.051 165.579 L 43.947 166.892 43.947 187.746 C 43.947 203.005,44.083 208.900,44.456 209.719 C 45.519 212.051,45.544 212.053,68.239 212.053 L 89.160 212.053 90.532 210.827 C 92.462 209.103,92.462 206.897,90.532 205.173 L 89.160 203.947 70.607 203.947 L 52.053 203.947 52.053 185.419 L 52.053 166.892 50.949 165.579 C 50.029 164.486,49.535 164.267,48.000 164.267 C 46.465 164.267,45.971 164.486,45.051 165.579 M205.051 165.579 L 203.947 166.892 203.947 185.419 L 203.947 203.947 185.393 203.947 L 166.840 203.947 165.468 205.173 C 163.538 206.897,163.538 209.103,165.468 210.827 L 166.840 212.053 187.761 212.053 C 210.456 212.053,210.481 212.051,211.544 209.719 C 211.917 208.900,212.053 203.005,212.053 187.746 L 212.053 166.892 210.949 165.579 C 210.029 164.486,209.535 164.267,208.000 164.267 C 206.465 164.267,205.971 164.486,205.051 165.579 " stroke="none" fill-rule="evenodd"></path></svg>