<svg fill="currentColor" viewBox="0 0 256 256" xmlns="http://www.w3.org/2000/svg"><path d="M118.613 28.464 C 110.565 29.114,98.652 32.003,90.782 35.214 C 59.612 47.931,37.421 74.312,30.138 107.307 C 27.496 119.279,27.496 136.721,30.138 148.693 C 34.441 168.185,43.446 184.693,57.377 198.623 C 71.307 212.554,87.815 221.559,107.307 225.862 C 119.279 228.504,136.721 228.504,148.693 225.862 C 168.098 221.579,184.802 212.474,198.638 198.638 C 214.932 182.343,224.819 161.762,227.445 138.671 C 228.165 132.336,227.709 117.227,226.621 111.360 C 223.614 95.153,217.576 81.024,208.365 68.641 C 191.765 46.323,167.094 32.009,139.708 28.805 C 134.728 28.223,123.794 28.046,118.613 28.464 M124.160 55.002 L 124.160 73.737 125.473 74.842 C 127.223 76.315,128.905 76.270,130.660 74.702 L 132.053 73.457 132.181 54.862 L 132.309 36.267 133.963 36.267 C 134.874 36.267,137.120 36.466,138.956 36.710 C 160.202 39.530,178.061 48.269,192.896 63.104 C 207.731 77.939,216.470 95.798,219.290 117.044 C 219.534 118.880,219.733 121.232,219.733 122.271 L 219.733 124.160 200.998 124.160 L 182.263 124.160 181.158 125.473 C 179.685 127.223,179.730 128.905,181.298 130.660 L 182.543 132.053 201.138 132.181 L 219.733 132.309 219.733 133.963 C 219.733 138.687,217.663 149.491,215.479 156.160 C 204.440 189.876,175.857 213.936,140.745 219.070 C 138.251 219.435,135.333 219.733,134.260 219.733 L 132.309 219.733 132.181 201.138 L 132.053 182.543 130.660 181.298 C 128.905 179.730,127.223 179.685,125.473 181.158 L 124.160 182.263 124.160 200.998 L 124.160 219.733 121.975 219.733 C 120.773 219.733,117.749 219.435,115.255 219.070 C 80.399 213.974,51.609 189.917,40.733 156.800 C 38.354 149.555,36.267 138.884,36.267 133.963 L 36.267 132.309 54.862 132.181 L 73.457 132.053 74.702 130.660 C 76.270 128.905,76.315 127.223,74.842 125.473 L 73.737 124.160 55.002 124.160 L 36.267 124.160 36.267 122.255 C 36.267 119.255,37.490 111.143,38.676 106.274 C 42.711 89.712,50.810 75.401,63.106 63.106 C 75.076 51.135,88.756 43.251,104.960 38.985 C 109.774 37.717,118.270 36.358,121.707 36.305 L 124.160 36.267 124.160 55.002 " stroke="none" fill-rule="evenodd"></path></svg>