<svg fill="currentColor" viewBox="0 0 256 256" xmlns="http://www.w3.org/2000/svg"><path d="M123.947 20.860 C 120.509 22.116,33.244 70.175,31.653 71.688 C 30.857 72.446,29.747 74.050,29.187 75.253 L 28.168 77.440 28.168 128.000 L 28.168 178.560 29.178 180.728 C 29.733 181.920,30.867 183.552,31.698 184.355 C 33.210 185.814,121.632 234.485,124.544 235.461 C 125.341 235.728,126.897 235.947,128.000 235.947 C 129.103 235.947,130.659 235.728,131.456 235.461 C 134.379 234.482,222.791 185.813,224.308 184.348 C 225.143 183.543,226.327 181.815,226.939 180.508 L 228.053 178.133 228.053 128.000 L 228.053 77.867 226.931 75.473 C 226.313 74.156,225.154 72.456,224.354 71.694 C 222.758 70.176,135.500 22.119,132.053 20.860 C 129.343 19.870,126.657 19.870,123.947 20.860 M172.977 52.053 C 196.797 65.077,216.294 75.842,216.303 75.974 C 216.312 76.106,196.448 87.089,172.160 100.380 L 128.000 124.546 83.840 100.380 C 59.552 87.089,39.688 76.106,39.697 75.974 C 39.706 75.842,59.242 65.037,83.110 51.963 C 120.543 31.460,126.724 28.205,128.087 28.283 C 129.274 28.351,140.462 34.275,172.977 52.053 M80.582 107.701 L 124.160 131.561 124.160 178.893 C 124.160 223.795,124.122 226.210,123.413 225.939 C 121.289 225.128,38.044 179.289,37.227 178.482 L 36.267 177.532 36.267 130.544 C 36.267 104.280,36.429 83.618,36.636 83.698 C 36.839 83.776,56.615 94.577,80.582 107.701 M220.061 130.259 C 219.958 172.441,219.881 176.992,219.254 177.948 C 218.684 178.818,182.494 198.903,134.505 224.981 L 132.263 226.199 132.371 178.707 L 132.480 131.214 175.787 107.460 C 199.605 94.395,219.337 83.688,219.634 83.666 C 220.068 83.635,220.152 92.822,220.061 130.259 " stroke="none" fill-rule="evenodd"></path></svg>