<svg fill="currentColor" viewBox="0 0 256 256" xmlns="http://www.w3.org/2000/svg"><path d="M69.243 37.227 C 68.760 37.755,68.238 38.605,68.084 39.115 C 67.730 40.282,68.788 42.886,69.845 43.452 C 70.334 43.713,79.155 43.952,92.601 44.069 C 115.990 44.271,116.331 44.299,123.307 46.575 C 135.343 50.502,146.170 60.307,151.710 72.297 C 152.515 74.039,153.173 75.573,153.173 75.705 C 153.173 75.838,134.648 75.947,112.007 75.947 L 70.840 75.947 69.468 77.173 C 68.385 78.141,68.096 78.735,68.096 80.000 C 68.096 81.265,68.385 81.859,69.468 82.827 L 70.840 84.053 113.020 84.053 L 155.200 84.053 155.467 85.387 C 155.961 87.856,155.739 97.139,155.098 100.813 C 152.283 116.956,140.220 131.280,124.660 136.959 C 116.977 139.763,114.953 139.947,91.806 139.947 L 70.892 139.947 69.626 141.012 C 68.151 142.253,67.672 143.716,68.247 145.227 C 68.550 146.024,133.641 205.713,155.894 225.599 C 158.015 227.495,158.659 227.840,160.073 227.840 C 163.798 227.840,165.245 223.587,162.453 220.847 C 161.691 220.098,143.420 203.461,121.852 183.876 L 82.638 148.267 98.812 148.024 C 116.714 147.755,118.495 147.547,126.385 144.801 C 131.768 142.927,134.467 141.574,139.393 138.279 C 149.422 131.571,157.535 120.736,161.236 109.109 C 163.329 102.534,163.946 98.028,163.775 90.572 L 163.627 84.078 182.757 83.959 L 201.888 83.840 202.917 82.643 C 204.567 80.725,204.187 77.882,202.124 76.703 C 201.408 76.294,196.300 76.107,181.409 75.947 L 161.646 75.733 160.281 72.107 C 157.428 64.523,153.062 57.983,146.806 51.918 C 144.559 49.740,141.472 47.103,139.947 46.059 L 137.173 44.160 169.530 43.947 L 201.887 43.733 202.917 42.536 C 204.305 40.922,204.298 38.712,202.899 37.314 L 201.852 36.267 135.987 36.267 L 70.122 36.267 69.243 37.227 " stroke="none" fill-rule="evenodd"></path></svg>