<svg fill="currentColor" viewBox="0 0 256 256" xmlns="http://www.w3.org/2000/svg"><path d="M118.613 28.464 C 110.565 29.114,98.652 32.003,90.782 35.214 C 59.612 47.931,37.421 74.312,30.138 107.307 C 27.496 119.279,27.496 136.721,30.138 148.693 C 34.441 168.185,43.446 184.693,57.377 198.623 C 71.307 212.554,87.815 221.559,107.307 225.862 C 119.279 228.504,136.721 228.504,148.693 225.862 C 168.098 221.579,184.802 212.474,198.638 198.638 C 214.932 182.343,224.819 161.762,227.445 138.671 C 228.165 132.336,227.709 117.227,226.621 111.360 C 223.614 95.153,217.576 81.024,208.365 68.641 C 191.765 46.323,167.094 32.009,139.708 28.805 C 134.728 28.223,123.794 28.046,118.613 28.464 M141.450 37.088 C 151.293 38.536,159.191 40.985,168.320 45.421 C 195.814 58.779,214.837 85.062,219.065 115.535 C 219.837 121.096,219.960 133.911,219.290 138.956 C 216.572 159.430,208.181 177.095,194.306 191.550 C 186.556 199.624,178.023 205.880,168.394 210.544 C 146.182 221.305,122.141 222.924,98.987 215.218 C 75.515 207.406,56.191 190.487,45.421 168.320 C 38.959 155.019,36.271 143.174,36.271 128.000 C 36.271 112.826,38.959 100.981,45.421 87.680 C 58.548 60.660,84.406 41.633,114.133 37.120 C 121.418 36.014,134.048 35.999,141.450 37.088 M125.207 69.314 C 124.182 70.339,124.160 70.508,124.160 77.207 L 124.160 84.053 118.720 84.060 C 109.546 84.070,104.085 86.070,98.936 91.303 C 94.373 95.942,92.174 101.325,92.165 107.885 C 92.155 114.735,94.315 119.940,99.187 124.813 C 102.499 128.124,105.819 130.084,110.080 131.241 C 112.402 131.872,115.420 132.034,128.640 132.237 L 144.427 132.480 146.857 133.619 C 149.961 135.074,152.930 138.045,154.376 141.143 C 155.279 143.078,155.541 144.356,155.658 147.413 C 155.852 152.472,154.879 155.190,151.613 158.718 C 148.812 161.744,145.958 163.239,141.867 163.823 C 140.224 164.058,130.609 164.254,120.501 164.258 L 102.122 164.267 101.243 165.227 C 100.760 165.755,100.238 166.605,100.084 167.115 C 99.721 168.312,100.799 170.891,101.909 171.486 C 102.460 171.781,106.620 171.947,113.465 171.947 L 124.160 171.947 124.160 178.793 C 124.160 185.461,124.187 185.666,125.190 186.669 C 126.681 188.160,128.144 188.403,129.805 187.436 C 131.791 186.281,132.215 184.608,132.243 177.813 L 132.267 171.947 137.532 171.947 C 146.621 171.947,151.755 170.036,157.064 164.677 C 161.622 160.076,163.826 154.687,163.835 148.115 C 163.845 141.282,161.693 136.085,156.813 131.157 C 153.534 127.846,149.333 125.493,145.152 124.628 C 143.783 124.345,137.439 124.160,129.067 124.160 C 120.456 124.160,114.389 123.979,112.981 123.680 C 104.522 121.886,99.334 114.534,100.308 105.723 C 100.850 100.815,104.328 96.044,109.138 93.607 L 111.573 92.373 132.542 92.160 C 152.753 91.954,153.546 91.916,154.458 91.093 C 155.851 89.838,156.264 88.435,155.725 86.800 C 154.852 84.158,154.360 84.053,142.735 84.053 L 132.267 84.053 132.264 78.400 C 132.262 72.122,131.834 69.890,130.448 68.919 C 128.981 67.891,126.438 68.083,125.207 69.314 " stroke="none" fill-rule="evenodd"></path></svg>