<svg fill="currentColor" viewBox="0 0 256 256" xmlns="http://www.w3.org/2000/svg"><path d="M85.117 37.298 L 84.053 38.361 84.053 89.154 L 84.053 139.947 69.739 139.947 C 54.515 139.947,53.559 140.064,52.493 142.056 C 51.745 143.453,51.992 145.375,53.083 146.643 L 54.112 147.840 69.083 147.962 L 84.053 148.085 84.053 160.016 L 84.053 171.947 69.739 171.947 C 54.515 171.947,53.559 172.064,52.493 174.056 C 51.745 175.453,51.992 177.375,53.083 178.643 L 54.112 179.840 69.083 179.962 L 84.053 180.085 84.053 198.747 C 84.053 219.362,83.980 218.794,86.767 219.713 C 88.436 220.264,89.829 219.860,91.093 218.458 C 91.915 217.546,91.951 216.822,92.066 198.782 L 92.186 180.053 118.393 180.053 C 137.803 180.053,144.890 179.921,145.719 179.544 C 146.865 179.021,148.053 177.217,148.053 176.000 C 148.053 174.783,146.865 172.979,145.719 172.456 C 144.890 172.079,137.800 171.947,118.380 171.947 L 92.160 171.947 92.160 160.000 L 92.160 148.053 121.865 148.053 C 154.969 148.053,156.853 147.932,165.123 145.259 C 184.037 139.148,197.883 123.986,202.705 104.107 C 204.011 98.723,204.157 86.655,202.982 81.212 C 200.615 70.255,196.034 61.446,188.661 53.675 C 181.086 45.692,172.256 40.479,161.493 37.636 L 157.227 36.509 121.703 36.372 L 86.180 36.234 85.117 37.298 M153.457 44.403 C 169.523 46.194,183.608 56.068,190.847 70.613 C 194.729 78.414,196.048 84.711,195.717 93.867 C 195.265 106.401,190.936 116.512,182.187 125.467 C 175.793 132.012,168.818 136.070,159.646 138.584 L 155.520 139.714 123.840 139.848 L 92.160 139.983 92.160 91.965 L 92.160 43.947 120.763 43.947 C 138.228 43.947,150.960 44.124,153.457 44.403 " stroke="none" fill-rule="evenodd"></path></svg>