<svg fill="currentColor" viewBox="0 0 256 256" xmlns="http://www.w3.org/2000/svg"><path d="M61.207 43.287 L 60.160 44.335 60.160 76.141 L 60.160 107.947 49.500 107.947 L 38.840 107.947 37.468 109.173 C 35.538 110.897,35.538 113.103,37.468 114.827 L 38.840 116.053 49.500 116.053 L 60.160 116.053 60.160 128.000 L 60.160 139.947 49.500 139.947 L 38.840 139.947 37.468 141.173 C 35.538 142.897,35.538 145.103,37.468 146.827 L 38.840 148.053 49.500 148.053 L 60.160 148.053 60.160 179.655 C 60.160 201.476,60.303 211.523,60.621 212.118 C 60.875 212.591,61.753 213.259,62.574 213.602 C 63.922 214.166,64.217 214.152,65.633 213.459 C 66.731 212.922,67.352 212.247,67.709 211.200 C 68.084 210.100,68.225 201.590,68.243 178.880 L 68.267 148.053 103.415 148.053 L 138.563 148.053 164.007 180.653 C 184.349 206.717,189.720 213.348,190.795 213.722 C 192.730 214.397,195.020 213.222,195.709 211.200 C 196.084 210.100,196.225 201.590,196.243 178.880 L 196.267 148.053 206.713 148.053 L 217.160 148.053 218.532 146.827 C 220.462 145.103,220.462 142.897,218.532 141.173 L 217.160 139.947 206.713 139.947 L 196.267 139.947 196.267 128.000 L 196.267 116.053 206.713 116.053 L 217.160 116.053 218.532 114.827 C 220.462 113.103,220.462 110.897,218.532 109.173 L 217.160 107.947 206.713 107.947 L 196.267 107.947 196.264 77.333 C 196.263 57.583,196.105 46.157,195.821 45.133 C 195.276 43.168,194.012 42.240,191.886 42.240 C 190.723 42.240,189.954 42.541,189.207 43.287 L 188.160 44.335 188.160 76.141 L 188.160 107.947 152.790 107.947 L 117.421 107.947 91.985 75.350 C 77.995 57.422,66.248 42.638,65.879 42.497 C 64.322 41.899,62.244 42.251,61.207 43.287 M87.501 82.667 C 97.882 95.984,106.560 107.120,106.787 107.413 C 107.114 107.838,103.240 107.947,87.732 107.947 L 68.267 107.947 68.267 83.200 C 68.267 69.589,68.348 58.453,68.447 58.453 C 68.546 58.453,77.121 69.349,87.501 82.667 M122.975 128.020 L 132.244 139.947 100.255 139.947 L 68.267 139.947 68.267 128.000 L 68.267 116.053 90.987 116.073 L 113.707 116.093 122.975 128.020 M188.160 128.000 L 188.160 139.947 165.227 139.927 L 142.293 139.907 133.025 127.980 L 123.756 116.053 155.958 116.053 L 188.160 116.053 188.160 128.000 M188.160 173.039 C 188.160 188.607,188.008 197.930,187.757 197.775 C 187.471 197.598,155.242 156.471,149.210 148.587 C 148.885 148.162,152.805 148.053,168.481 148.053 L 188.160 148.053 188.160 173.039 " stroke="none" fill-rule="evenodd"></path></svg>