<svg fill="currentColor" viewBox="0 0 256 256" xmlns="http://www.w3.org/2000/svg"><path d="M131.129 36.898 C 122.009 38.553,113.644 42.965,106.560 49.856 C 100.258 55.987,95.874 63.437,93.537 71.988 L 92.397 76.160 92.258 100.160 L 92.120 124.160 73.191 124.160 L 54.263 124.160 53.158 125.473 C 51.685 127.223,51.730 128.905,53.298 130.660 L 54.543 132.053 73.351 132.181 L 92.160 132.308 92.153 151.594 C 92.149 162.201,91.960 172.634,91.735 174.778 C 90.931 182.406,88.293 188.325,83.282 193.748 C 77.101 200.437,68.849 203.947,59.303 203.947 C 55.188 203.947,53.310 204.528,52.493 206.056 C 51.745 207.454,51.992 209.375,53.083 210.643 L 54.113 211.840 119.632 211.951 L 185.151 212.061 186.527 210.831 C 188.462 209.103,188.464 206.899,186.532 205.173 L 185.160 203.947 134.812 203.947 L 84.464 203.947 87.803 200.640 C 95.151 193.363,98.900 185.291,99.841 174.720 C 100.071 172.139,100.261 161.540,100.263 151.168 L 100.267 132.309 118.862 132.181 L 137.457 132.053 138.702 130.660 C 140.270 128.905,140.315 127.223,138.842 125.473 L 137.737 124.160 119.006 124.160 L 100.275 124.160 100.164 104.000 C 100.038 81.008,100.220 77.492,101.797 72.491 C 105.200 61.696,111.962 53.648,121.968 48.480 C 127.821 45.457,132.838 44.271,139.733 44.279 C 149.547 44.290,155.446 46.202,164.125 52.186 C 166.830 54.051,167.358 54.262,168.693 54.011 C 170.598 53.654,171.947 51.999,171.947 50.020 C 171.947 48.315,170.591 46.815,166.766 44.286 C 161.254 40.641,154.652 37.965,148.531 36.893 C 144.195 36.134,135.329 36.136,131.129 36.898 " stroke="none" fill-rule="evenodd"></path></svg>