<svg fill="currentColor" viewBox="0 0 256 256" xmlns="http://www.w3.org/2000/svg"><path d="M125.258 13.333 C 124.461 14.096,104.068 39.870,79.941 70.609 C 40.618 120.707,36.073 126.653,36.073 128.000 C 36.073 129.347,40.618 135.293,79.941 185.391 C 104.068 216.130,124.461 241.904,125.258 242.667 C 126.241 243.607,127.123 244.053,128.000 244.053 C 128.877 244.053,129.759 243.607,130.742 242.667 C 131.539 241.904,151.932 216.130,176.059 185.391 C 215.382 135.293,219.927 129.347,219.927 128.000 C 219.927 126.653,215.382 120.707,176.059 70.609 C 151.932 39.870,131.539 14.096,130.742 13.333 C 129.759 12.393,128.877 11.947,128.000 11.947 C 127.123 11.947,126.241 12.393,125.258 13.333 M124.004 161.578 C 123.855 161.728,46.991 126.920,46.595 126.524 C 46.494 126.423,63.857 104.135,85.179 76.996 L 123.947 27.652 124.055 94.536 C 124.114 131.322,124.091 161.491,124.004 161.578 M171.299 77.569 C 192.359 104.393,209.507 126.422,209.406 126.523 C 209.256 126.673,142.352 157.168,134.507 160.662 L 132.267 161.660 132.267 94.825 C 132.267 57.005,132.427 28.165,132.637 28.395 C 132.841 28.618,150.239 50.746,171.299 77.569 M88.960 154.672 C 107.968 163.298,123.665 170.484,123.843 170.642 C 124.021 170.800,124.117 183.848,124.056 199.638 L 123.947 228.346 89.147 184.040 C 70.007 159.671,54.186 139.464,53.988 139.134 C 53.781 138.789,53.792 138.631,54.014 138.762 C 54.226 138.887,69.952 146.046,88.960 154.672 M201.972 139.200 C 201.656 139.730,133.344 226.830,132.637 227.605 C 132.427 227.834,132.270 215.498,132.274 199.232 L 132.281 170.453 167.154 154.581 C 186.334 145.852,202.086 138.700,202.159 138.688 C 202.231 138.676,202.147 138.907,201.972 139.200 " stroke="none" fill-rule="evenodd"></path></svg>