<svg fill="currentColor" viewBox="0 0 256 256" xmlns="http://www.w3.org/2000/svg"><path d="M54.339 44.370 C 53.026 44.900,52.053 46.479,52.053 48.082 C 52.053 49.158,52.695 50.257,54.925 53.001 C 56.505 54.944,71.700 73.525,88.691 94.293 L 119.585 132.053 98.867 132.164 L 78.149 132.275 77.006 133.634 C 75.581 135.327,75.763 137.522,77.449 138.987 L 78.554 139.947 101.364 139.947 L 124.173 139.947 124.060 152.000 L 123.947 164.053 101.048 164.164 L 78.150 164.274 77.006 165.633 C 75.581 167.327,75.763 169.521,77.449 170.987 L 78.554 171.947 101.357 171.947 L 124.160 171.947 124.160 194.793 L 124.160 217.639 125.190 218.669 C 125.756 219.235,126.713 219.822,127.315 219.973 C 128.898 220.371,131.081 218.970,131.709 217.152 C 132.077 216.090,132.225 209.592,132.243 193.813 L 132.267 171.947 154.856 171.947 L 177.446 171.947 178.551 170.987 C 179.192 170.429,179.757 169.390,179.897 168.510 C 180.093 167.277,179.923 166.738,178.991 165.630 L 177.844 164.267 155.055 164.267 L 132.267 164.267 132.267 152.107 L 132.267 139.947 154.856 139.947 L 177.446 139.947 178.551 138.987 C 180.237 137.522,180.419 135.327,178.994 133.634 L 177.851 132.275 157.133 132.164 L 136.415 132.053 167.309 94.293 C 184.300 73.525,199.495 54.944,201.075 53.001 C 203.369 50.178,203.947 49.175,203.947 48.011 C 203.947 44.875,200.256 42.913,197.876 44.785 C 197.236 45.288,181.326 64.506,162.521 87.490 C 143.716 110.475,128.182 129.280,128.000 129.280 C 127.818 129.280,112.284 110.475,93.479 87.490 C 74.674 64.506,58.786 45.306,58.173 44.823 C 56.996 43.897,55.846 43.761,54.339 44.370 " stroke="none" fill-rule="evenodd"></path></svg>