<svg fill="currentColor" viewBox="0 0 256 256" xmlns="http://www.w3.org/2000/svg"><path d="M146.987 37.273 C 144.358 38.502,142.259 40.566,141.066 43.093 L 140.160 45.013 140.160 128.000 L 140.160 210.987 141.062 212.907 C 142.194 215.316,144.570 217.683,147.139 218.961 L 149.120 219.947 192.000 219.947 L 234.880 219.947 236.881 218.952 C 237.981 218.405,239.746 217.033,240.803 215.903 C 244.341 212.121,244.076 219.590,243.951 127.129 L 243.840 45.013 242.934 43.093 C 241.741 40.566,239.642 38.502,237.013 37.273 L 234.880 36.275 192.000 36.275 L 149.120 36.275 146.987 37.273 M233.822 44.591 C 234.507 44.946,235.266 45.605,235.507 46.056 C 235.804 46.611,235.947 73.228,235.947 128.161 L 235.947 209.446 234.917 210.643 L 233.887 211.840 192.000 211.840 L 150.113 211.840 149.083 210.643 L 148.053 209.446 148.053 128.161 C 148.053 73.459,148.196 46.610,148.491 46.060 C 149.637 43.918,148.308 43.982,191.915 43.964 C 227.370 43.949,232.735 44.029,233.822 44.591 M173.009 69.630 C 172.077 70.738,171.907 71.277,172.103 72.510 C 172.243 73.390,172.808 74.429,173.449 74.987 L 174.554 75.947 192.000 75.947 L 209.446 75.947 210.551 74.987 C 211.192 74.429,211.757 73.390,211.897 72.510 C 212.093 71.277,211.923 70.738,210.991 69.630 L 209.844 68.267 192.000 68.267 L 174.156 68.267 173.009 69.630 M27.713 76.528 C 20.059 78.177,13.865 84.580,12.387 92.373 C 12.040 94.202,11.938 105.969,12.031 133.547 C 12.160 172.097,12.162 172.164,13.095 174.606 C 14.877 179.273,18.417 183.329,22.696 185.610 C 27.316 188.072,28.307 188.144,57.493 188.153 L 84.053 188.160 84.053 200.107 L 84.053 212.053 73.419 212.053 L 62.785 212.053 61.473 213.158 C 59.233 215.042,59.839 218.540,62.603 219.685 C 63.476 220.047,70.518 220.149,88.681 220.064 L 113.564 219.947 114.855 218.501 C 115.945 217.281,116.108 216.816,115.901 215.515 C 115.757 214.610,115.199 213.577,114.551 213.013 C 113.468 212.073,113.228 212.053,102.803 212.053 L 92.160 212.053 92.160 200.128 L 92.160 188.202 102.862 188.074 L 113.565 187.947 114.855 186.501 C 115.940 185.287,116.107 184.814,115.900 183.540 C 115.765 182.707,115.259 181.629,114.775 181.146 C 113.903 180.273,113.598 180.265,71.348 180.053 L 28.800 179.840 26.880 178.833 C 24.260 177.459,22.742 175.965,21.400 173.440 L 20.267 171.307 20.151 132.723 C 20.019 88.645,19.797 91.507,23.642 87.662 C 27.497 83.808,24.251 84.053,71.351 84.053 C 116.247 84.053,114.436 84.149,115.544 81.719 C 116.184 80.314,116.184 79.686,115.544 78.281 C 114.435 75.849,116.257 75.944,71.381 75.982 C 41.077 76.009,29.450 76.154,27.713 76.528 M173.009 101.630 C 172.077 102.738,171.907 103.277,172.103 104.510 C 172.243 105.390,172.808 106.429,173.449 106.987 L 174.554 107.947 192.000 107.947 L 209.446 107.947 210.551 106.987 C 211.192 106.429,211.757 105.390,211.897 104.510 C 212.093 103.277,211.923 102.738,210.991 101.630 L 209.844 100.267 192.000 100.267 L 174.156 100.267 173.009 101.630 M189.227 172.588 C 188.288 172.919,186.908 173.856,186.159 174.668 C 181.496 179.728,185.101 187.887,192.000 187.887 C 199.069 187.887,202.590 179.450,197.603 174.462 C 196.119 172.978,193.678 171.932,191.787 171.968 C 191.317 171.977,190.165 172.256,189.227 172.588 " stroke="none" fill-rule="evenodd"></path></svg>