<svg fill="currentColor" viewBox="0 0 256 256" xmlns="http://www.w3.org/2000/svg"><path d="M43.423 44.610 C 38.289 45.855,34.094 48.863,31.128 53.428 C 27.927 58.353,28.106 54.152,28.247 121.173 L 28.373 181.120 29.958 184.440 C 33.070 190.956,38.805 195.007,46.107 195.846 C 48.163 196.083,65.669 196.262,86.933 196.263 L 124.160 196.267 124.160 208.213 L 124.160 220.160 109.207 220.160 L 94.255 220.160 93.207 221.207 C 92.461 221.954,92.160 222.723,92.160 223.886 C 92.160 226.012,93.088 227.276,95.053 227.821 C 97.230 228.426,158.770 228.426,160.947 227.821 C 162.912 227.276,163.840 226.012,163.840 223.886 C 163.840 222.723,163.539 221.954,162.793 221.207 L 161.745 220.160 147.006 220.160 L 132.267 220.160 132.267 208.213 L 132.267 196.267 169.280 196.263 C 190.407 196.262,207.838 196.083,209.893 195.846 C 219.764 194.712,226.752 187.638,227.867 177.655 C 228.136 175.243,228.249 152.989,228.174 117.317 L 228.053 60.800 227.138 58.134 C 224.753 51.185,219.360 46.235,212.382 44.590 C 208.494 43.673,47.208 43.693,43.423 44.610 M213.685 53.525 C 216.120 54.874,218.015 56.955,219.206 59.589 C 219.891 61.103,219.956 64.499,220.069 104.640 L 220.191 148.053 128.229 148.053 L 36.267 148.053 36.267 104.520 C 36.267 57.205,36.138 59.817,38.637 56.540 C 39.883 54.907,41.942 53.494,44.323 52.640 C 45.572 52.192,61.687 52.104,128.640 52.176 L 211.413 52.267 213.685 53.525 M220.080 167.360 C 219.926 177.976,219.865 178.676,218.924 180.790 C 217.704 183.528,215.044 186.053,212.242 187.134 C 210.194 187.923,207.758 187.947,128.000 187.947 C 48.461 187.947,45.801 187.921,43.774 187.140 C 41.009 186.073,38.497 183.748,37.271 181.120 C 36.306 179.053,36.275 178.632,36.271 167.573 L 36.267 156.160 128.255 156.160 L 220.243 156.160 220.080 167.360 " stroke="none" fill-rule="evenodd"></path></svg>