<svg fill="currentColor" viewBox="0 0 256 256" xmlns="http://www.w3.org/2000/svg"><path d="M93.653 44.323 C 91.666 44.847,89.067 46.309,87.898 47.561 C 87.314 48.187,75.870 63.806,62.466 82.269 L 38.096 115.840 22.438 115.952 C 5.129 116.076,5.177 116.068,4.275 118.800 C 3.736 120.436,4.150 121.838,5.542 123.093 C 6.485 123.942,7.090 123.947,128.000 123.947 C 248.910 123.947,249.515 123.942,250.458 123.093 C 251.850 121.838,252.264 120.436,251.725 118.800 C 250.823 116.068,250.871 116.076,233.560 115.952 L 217.901 115.840 193.479 82.213 C 180.047 63.718,168.614 48.113,168.072 47.537 C 164.193 43.407,156.184 43.143,151.834 47.001 C 151.215 47.551,148.070 51.072,144.847 54.827 C 136.765 64.240,135.355 65.656,132.907 66.818 C 129.978 68.209,126.041 68.214,123.093 66.830 C 120.696 65.705,119.348 64.336,110.336 53.872 C 105.103 47.797,103.612 46.327,101.758 45.420 C 99.365 44.249,95.775 43.763,93.653 44.323 M97.916 52.324 C 98.304 52.473,102.239 56.764,106.660 61.859 C 114.912 71.369,116.746 73.004,121.128 74.752 C 124.559 76.121,131.441 76.121,134.872 74.752 C 139.257 73.003,141.087 71.371,149.386 61.806 C 157.538 52.410,158.407 51.668,160.610 52.221 C 162.048 52.582,162.287 52.860,168.453 61.359 C 171.465 65.510,181.634 79.515,191.052 92.480 L 208.175 116.053 128.000 116.053 L 47.825 116.053 64.947 92.480 C 74.364 79.515,84.675 65.316,87.861 60.927 C 91.047 56.538,94.037 52.759,94.507 52.529 C 95.519 52.033,96.936 51.948,97.916 52.324 M69.973 148.671 C 63.131 150.142,58.534 152.646,53.510 157.640 C 50.228 160.903,49.330 162.114,47.646 165.547 C 44.384 172.198,43.337 178.277,44.360 184.620 C 45.474 191.529,48.185 196.997,53.020 202.088 C 69.042 218.954,96.903 213.504,105.682 191.787 L 107.062 188.373 128.000 188.373 L 148.938 188.373 150.318 191.787 C 154.666 202.544,163.837 209.761,175.562 211.652 C 188.599 213.755,202.409 206.477,208.581 194.251 C 214.650 182.228,212.397 167.707,202.945 157.923 C 194.655 149.341,182.586 146.087,171.093 149.334 C 158.737 152.826,149.265 164.243,148.191 176.939 L 147.928 180.053 128.000 180.053 L 108.072 180.053 107.809 176.939 C 106.701 163.831,96.964 152.526,83.840 149.111 C 80.189 148.161,73.354 147.944,69.973 148.671 M81.152 156.628 C 89.802 158.419,97.581 166.198,99.372 174.848 C 101.026 182.840,98.649 191.016,93.013 196.720 C 89.638 200.136,86.487 201.980,82.109 203.100 C 66.767 207.023,52.074 195.648,52.067 179.840 C 52.063 169.300,59.919 159.236,70.070 156.777 C 72.909 156.090,78.208 156.018,81.152 156.628 M185.259 156.625 C 195.659 158.767,203.938 169.058,203.933 179.840 C 203.926 195.692,188.829 207.268,173.645 203.063 C 169.322 201.866,166.292 200.064,162.983 196.724 C 158.422 192.119,156.153 186.527,156.166 179.926 C 156.180 173.253,158.390 167.984,163.187 163.187 C 166.501 159.873,170.049 157.775,173.924 156.837 C 176.983 156.096,182.215 155.999,185.259 156.625 " stroke="none" fill-rule="evenodd"></path></svg>