<svg fill="currentColor" viewBox="0 0 256 256" xmlns="http://www.w3.org/2000/svg"><path d="M57.925 28.989 C 51.413 31.070,46.375 36.508,44.583 43.389 C 43.622 47.081,43.622 208.919,44.583 212.611 C 46.451 219.780,51.841 225.348,58.761 227.256 C 61.528 228.019,64.521 228.053,128.000 228.053 C 191.479 228.053,194.472 228.019,197.239 227.256 C 204.159 225.348,209.549 219.780,211.417 212.611 C 212.378 208.919,212.378 47.081,211.417 43.389 C 209.605 36.433,204.552 31.028,197.935 28.968 C 195.430 28.189,192.922 28.161,127.855 28.183 C 63.615 28.205,60.256 28.243,57.925 28.989 M196.531 36.901 C 198.977 37.922,201.126 39.881,202.475 42.315 L 203.733 44.587 203.733 128.000 L 203.733 211.413 202.794 213.170 C 201.279 216.000,199.801 217.478,197.207 218.752 L 194.773 219.947 128.000 219.947 L 61.227 219.947 58.793 218.752 C 56.199 217.478,54.721 216.000,53.206 213.170 L 52.267 211.413 52.267 128.000 L 52.267 44.587 53.525 42.315 C 54.848 39.927,56.982 37.958,59.372 36.920 C 61.552 35.974,194.267 35.955,196.531 36.901 M93.207 61.207 C 92.461 61.954,92.160 62.723,92.160 63.886 C 92.160 66.012,93.088 67.276,95.053 67.821 C 97.230 68.426,158.770 68.426,160.947 67.821 C 162.912 67.276,163.840 66.012,163.840 63.886 C 163.840 62.723,163.539 61.954,162.793 61.207 L 161.745 60.160 128.000 60.160 L 94.255 60.160 93.207 61.207 " stroke="none" fill-rule="evenodd"></path></svg>