<svg fill="currentColor" viewBox="0 0 256 256" xmlns="http://www.w3.org/2000/svg"><path d="M57.173 36.913 C 47.629 39.254,39.836 46.848,37.039 56.533 L 36.053 59.947 36.053 128.000 C 36.053 204.254,35.796 197.883,39.160 204.800 C 41.338 209.279,46.721 214.662,51.200 216.840 C 58.117 220.204,51.746 219.947,128.000 219.947 C 204.254 219.947,197.883 220.204,204.800 216.840 C 209.279 214.662,214.662 209.279,216.840 204.800 C 220.204 197.883,219.947 204.254,219.947 128.000 C 219.947 63.539,219.906 59.800,219.172 57.173 C 216.321 46.974,208.465 39.222,198.613 36.886 C 194.906 36.007,60.764 36.033,57.173 36.913 M195.655 44.408 C 203.540 45.843,210.157 52.460,211.592 60.345 C 212.238 63.889,212.238 192.111,211.592 195.655 C 210.173 203.452,203.789 209.942,195.926 211.582 C 192.735 212.247,63.265 212.247,60.074 211.582 C 52.211 209.942,45.827 203.452,44.408 195.655 C 43.762 192.111,43.762 63.889,44.408 60.345 C 45.803 52.682,52.107 46.166,59.713 44.528 C 62.929 43.835,191.884 43.721,195.655 44.408 M88.392 84.969 C 81.477 88.392,83.424 99.115,91.076 99.750 C 94.094 100.000,96.056 99.287,97.868 97.282 C 101.370 93.405,100.102 87.001,95.410 84.870 C 93.085 83.814,90.655 83.848,88.392 84.969 M125.979 120.299 C 120.084 121.738,118.063 129.256,122.403 133.597 C 126.762 137.955,134.098 136.007,135.698 130.066 C 137.259 124.270,131.876 118.860,125.979 120.299 M160.640 156.830 C 157.320 158.553,155.934 161.108,156.250 164.924 C 156.702 170.374,162.492 173.502,167.573 171.042 C 171.980 168.908,173.275 162.889,170.175 158.948 C 168.183 156.415,163.461 155.366,160.640 156.830 " stroke="none" fill-rule="evenodd"></path></svg>