<svg fill="currentColor" viewBox="0 0 256 256" xmlns="http://www.w3.org/2000/svg"><path d="M122.199 20.659 C 113.291 22.694,106.330 28.289,102.635 36.383 C 100.730 40.554,100.101 43.441,100.101 48.000 C 100.101 52.410,100.725 55.400,102.449 59.241 C 110.061 76.206,131.387 81.282,145.795 69.559 C 150.172 65.998,153.952 59.905,155.333 54.187 C 156.060 51.173,156.060 44.827,155.333 41.813 C 152.946 31.928,145.569 24.166,135.680 21.137 C 132.473 20.155,125.489 19.907,122.199 20.659 M133.935 28.968 C 143.236 31.863,149.351 41.716,147.673 51.105 C 145.901 61.023,137.887 67.840,128.000 67.840 C 118.107 67.840,109.912 60.833,108.279 50.980 C 106.730 41.635,112.760 31.918,121.925 28.989 C 125.250 27.926,130.556 27.917,133.935 28.968 M121.173 100.913 C 108.840 103.938,100.091 115.191,100.116 128.000 C 100.131 135.895,102.675 141.959,108.358 147.642 C 114.048 153.332,120.119 155.877,128.000 155.877 C 135.881 155.877,141.952 153.332,147.642 147.642 C 153.332 141.952,155.877 135.881,155.877 128.000 C 155.877 125.504,155.592 122.881,155.137 121.173 C 152.450 111.105,144.478 103.225,134.613 100.886 C 131.433 100.132,124.299 100.147,121.173 100.913 M131.655 108.408 C 137.552 109.481,143.169 113.712,145.794 119.055 C 151.780 131.244,144.498 145.398,131.054 147.703 C 120.445 149.523,110.130 141.976,108.330 131.081 C 106.644 120.868,113.571 110.713,123.713 108.528 C 126.776 107.868,128.545 107.841,131.655 108.408 M122.199 180.659 C 113.291 182.694,106.330 188.289,102.635 196.383 C 100.730 200.554,100.101 203.441,100.101 208.000 C 100.101 212.410,100.725 215.400,102.449 219.241 C 110.061 236.206,131.387 241.282,145.795 229.559 C 150.172 225.998,153.952 219.905,155.333 214.187 C 156.060 211.173,156.060 204.827,155.333 201.813 C 152.946 191.928,145.569 184.166,135.680 181.137 C 132.473 180.155,125.489 179.907,122.199 180.659 M133.935 188.968 C 143.236 191.863,149.351 201.716,147.673 211.105 C 145.901 221.023,137.887 227.840,128.000 227.840 C 118.107 227.840,109.912 220.833,108.279 210.980 C 106.730 201.635,112.760 191.918,121.925 188.989 C 125.250 187.926,130.556 187.917,133.935 188.968 " stroke="none" fill-rule="evenodd"></path></svg>