<svg fill="currentColor" viewBox="0 0 256 256" xmlns="http://www.w3.org/2000/svg"><path d="M56.392 52.969 C 49.477 56.392,51.424 67.115,59.076 67.750 C 62.094 68.000,64.056 67.287,65.868 65.282 C 69.370 61.405,68.102 55.001,63.410 52.870 C 61.085 51.814,58.655 51.848,56.392 52.969 M124.800 52.761 C 121.578 54.457,119.551 57.884,120.029 60.828 C 120.935 66.417,126.637 69.402,131.711 66.946 C 134.867 65.418,136.761 61.089,135.692 57.849 C 134.186 53.287,128.684 50.717,124.800 52.761 M192.590 52.870 C 187.898 55.001,186.630 61.405,190.132 65.282 C 193.943 69.500,200.904 68.410,203.192 63.236 C 206.170 56.504,199.325 49.811,192.590 52.870 M59.093 120.104 C 58.859 120.182,58.142 120.361,57.501 120.502 C 55.937 120.847,53.341 123.183,52.630 124.886 C 51.328 128.003,52.167 131.581,54.727 133.828 C 57.680 136.422,60.721 136.682,64.205 134.641 C 68.977 131.844,69.020 124.138,64.279 121.428 C 62.588 120.462,60.005 119.802,59.093 120.104 M125.979 120.299 C 120.084 121.738,118.063 129.256,122.403 133.597 C 126.762 137.955,134.098 136.007,135.698 130.066 C 137.259 124.270,131.876 118.860,125.979 120.299 M194.286 120.301 C 187.504 121.913,185.894 131.183,191.795 134.641 C 195.279 136.682,198.320 136.422,201.273 133.828 C 206.356 129.366,203.874 121.229,197.120 120.208 C 196.299 120.084,195.023 120.126,194.286 120.301 M56.533 188.845 C 54.475 189.969,53.403 191.150,52.648 193.126 C 50.091 199.821,56.853 206.108,63.410 203.130 C 66.116 201.901,67.562 199.699,67.739 196.535 C 67.915 193.403,67.130 191.620,64.731 189.703 C 63.392 188.633,62.661 188.389,60.464 188.279 C 58.606 188.186,57.430 188.355,56.533 188.845 M124.800 188.744 C 122.131 189.989,119.912 193.307,119.912 196.053 C 119.912 198.819,122.496 202.491,125.148 203.493 C 127.881 204.526,131.150 203.882,133.280 201.893 C 134.783 200.489,136.085 197.781,136.097 196.030 C 136.111 194.079,134.209 190.656,132.447 189.464 C 130.574 188.196,126.746 187.836,124.800 188.744 M192.640 188.830 C 189.320 190.553,187.934 193.108,188.250 196.924 C 188.702 202.374,194.492 205.502,199.573 203.042 C 203.980 200.908,205.275 194.889,202.175 190.948 C 200.183 188.415,195.461 187.366,192.640 188.830 " stroke="none" fill-rule="evenodd"></path></svg>