<svg fill="currentColor" viewBox="0 0 256 256" xmlns="http://www.w3.org/2000/svg"><path d="M40.960 100.925 C 33.199 103.076,26.429 108.547,23.031 115.413 C 15.916 129.795,22.100 146.974,36.759 153.551 C 40.600 155.275,43.590 155.899,48.000 155.899 C 52.410 155.899,55.400 155.275,59.241 153.551 C 69.955 148.744,76.448 138.252,75.836 126.738 C 75.217 115.112,68.317 105.781,57.276 101.639 C 54.857 100.731,53.520 100.537,48.853 100.418 C 44.821 100.314,42.666 100.453,40.960 100.925 M121.173 100.913 C 108.840 103.938,100.091 115.191,100.116 128.000 C 100.131 135.895,102.675 141.959,108.358 147.642 C 114.048 153.332,120.119 155.877,128.000 155.877 C 135.881 155.877,141.952 153.332,147.642 147.642 C 153.332 141.952,155.877 135.881,155.877 128.000 C 155.877 125.504,155.592 122.881,155.137 121.173 C 152.450 111.105,144.478 103.225,134.613 100.886 C 131.433 100.132,124.299 100.147,121.173 100.913 M200.960 100.925 C 193.199 103.076,186.429 108.547,183.031 115.413 C 175.916 129.795,182.100 146.974,196.759 153.551 C 200.600 155.275,203.590 155.899,208.000 155.899 C 212.410 155.899,215.400 155.275,219.241 153.551 C 229.955 148.744,236.448 138.252,235.836 126.738 C 235.217 115.112,228.317 105.781,217.276 101.639 C 214.857 100.731,213.520 100.537,208.853 100.418 C 204.821 100.314,202.666 100.453,200.960 100.925 M52.382 108.590 C 63.530 111.218,70.085 122.187,67.178 133.350 C 64.542 143.473,53.443 150.036,43.389 147.417 C 34.183 145.019,28.160 137.339,28.160 128.000 C 28.160 115.135,39.977 105.665,52.382 108.590 M131.655 108.408 C 137.552 109.481,143.169 113.712,145.794 119.055 C 151.780 131.244,144.498 145.398,131.054 147.703 C 120.445 149.523,110.130 141.976,108.330 131.081 C 106.644 120.868,113.571 110.713,123.713 108.528 C 126.776 107.868,128.545 107.841,131.655 108.408 M212.382 108.590 C 223.530 111.218,230.085 122.187,227.178 133.350 C 224.542 143.473,213.443 150.036,203.389 147.417 C 194.183 145.019,188.160 137.339,188.160 128.000 C 188.160 115.135,199.977 105.665,212.382 108.590 " stroke="none" fill-rule="evenodd"></path></svg>