<svg fill="currentColor" viewBox="0 0 256 256" xmlns="http://www.w3.org/2000/svg"><path d="M118.613 28.464 C 110.565 29.114,98.652 32.003,90.782 35.214 C 59.612 47.931,37.421 74.312,30.138 107.307 C 27.496 119.279,27.496 136.721,30.138 148.693 C 34.441 168.185,43.446 184.693,57.377 198.623 C 71.307 212.554,87.815 221.559,107.307 225.862 C 119.279 228.504,136.721 228.504,148.693 225.862 C 168.098 221.579,184.802 212.474,198.638 198.638 C 214.932 182.343,224.819 161.762,227.445 138.671 C 228.165 132.336,227.709 117.227,226.621 111.360 C 223.614 95.153,217.576 81.024,208.365 68.641 C 191.765 46.323,167.094 32.009,139.708 28.805 C 134.728 28.223,123.794 28.046,118.613 28.464 M141.450 37.088 C 151.293 38.536,159.191 40.985,168.320 45.421 C 195.814 58.779,214.837 85.062,219.065 115.535 C 219.837 121.096,219.960 133.911,219.290 138.956 C 216.572 159.430,208.181 177.095,194.306 191.550 C 186.556 199.624,178.023 205.880,168.394 210.544 C 146.182 221.305,122.141 222.924,98.987 215.218 C 75.515 207.406,56.191 190.487,45.421 168.320 C 38.959 155.019,36.271 143.174,36.271 128.000 C 36.271 112.826,38.959 100.981,45.421 87.680 C 58.548 60.660,84.406 41.633,114.133 37.120 C 121.418 36.014,134.048 35.999,141.450 37.088 M81.972 120.322 C 80.162 120.748,78.566 121.917,77.344 123.714 C 73.253 129.723,79.227 137.715,86.240 135.614 C 91.469 134.047,93.582 127.700,90.373 123.194 C 88.803 120.989,84.863 119.642,81.972 120.322 M125.979 120.299 C 120.084 121.738,118.063 129.256,122.403 133.597 C 126.762 137.955,134.098 136.007,135.698 130.066 C 137.259 124.270,131.876 118.860,125.979 120.299 M169.889 120.398 C 167.382 120.957,164.992 123.377,164.323 126.032 C 162.851 131.878,168.222 137.257,173.982 135.706 C 178.620 134.458,181.193 129.420,179.393 125.112 C 177.764 121.214,174.188 119.440,169.889 120.398 " stroke="none" fill-rule="evenodd"></path></svg>