<svg fill="currentColor" viewBox="0 0 256 256" xmlns="http://www.w3.org/2000/svg"><path d="M125.473 21.158 L 124.160 22.263 124.160 70.325 L 124.160 118.388 103.147 97.407 C 88.591 82.874,81.759 76.335,80.915 76.129 C 78.217 75.471,75.478 78.234,76.136 80.952 C 76.330 81.754,84.392 90.110,101.255 106.987 L 126.088 131.840 128.000 131.840 L 129.912 131.840 154.745 106.987 C 172.078 89.640,179.667 81.765,179.873 80.915 C 180.528 78.214,177.763 75.476,175.048 76.138 C 174.253 76.332,167.076 83.206,153.076 97.185 L 132.285 117.943 132.169 70.243 L 132.053 22.543 130.660 21.298 C 128.905 19.730,127.224 19.685,125.473 21.158 M27.307 125.046 C 24.970 126.101,22.434 128.477,21.191 130.773 C 20.268 132.478,20.267 132.514,20.150 167.220 C 20.021 205.862,19.913 204.267,22.889 207.744 C 23.729 208.725,25.402 210.048,26.608 210.684 L 28.800 211.840 128.000 211.840 L 227.200 211.840 229.392 210.684 C 230.598 210.048,232.271 208.725,233.111 207.744 C 236.087 204.267,235.979 205.862,235.850 167.220 C 235.733 132.514,235.732 132.478,234.809 130.773 C 233.566 128.477,231.030 126.101,228.693 125.046 C 226.843 124.210,225.968 124.178,204.518 124.169 L 182.263 124.160 181.158 125.473 C 179.685 127.223,179.730 128.905,181.298 130.660 L 182.543 132.053 204.376 132.267 L 226.210 132.480 227.025 133.487 C 227.812 134.460,227.840 135.655,227.840 168.116 L 227.840 201.737 226.527 202.842 L 225.215 203.947 128.000 203.947 L 30.785 203.947 29.473 202.842 L 28.160 201.737 28.160 168.116 C 28.160 135.655,28.188 134.460,28.975 133.487 L 29.790 132.480 51.624 132.267 L 73.457 132.053 74.702 130.660 C 76.270 128.905,76.315 127.223,74.842 125.473 L 73.737 124.160 51.482 124.169 C 30.032 124.178,29.157 124.210,27.307 125.046 M185.813 160.340 C 180.045 162.367,178.268 168.911,182.253 173.451 C 185.871 177.571,193.435 176.136,195.387 170.959 C 196.662 167.578,195.348 163.376,192.408 161.430 C 190.653 160.269,187.499 159.748,185.813 160.340 " stroke="none" fill-rule="evenodd"></path></svg>