<svg fill="currentColor" viewBox="0 0 256 256" xmlns="http://www.w3.org/2000/svg"><path d="M126.148 12.584 C 122.385 14.547,108.816 26.051,99.474 35.200 C 86.712 47.699,77.363 58.790,68.903 71.467 C 55.479 91.583,48.145 109.474,44.944 129.920 C 43.893 136.630,43.893 150.491,44.944 156.748 C 48.440 177.568,58.681 195.518,74.667 208.844 C 86.118 218.390,100.874 224.902,116.173 227.161 C 122.140 228.042,133.309 228.048,139.583 227.172 C 172.804 222.539,200.495 198.091,209.058 165.834 C 211.300 157.389,211.787 153.403,211.779 143.573 C 211.765 126.514,208.250 111.829,199.780 93.440 C 188.138 68.167,163.355 38.522,135.947 17.084 C 128.983 11.637,128.441 11.388,126.148 12.584 M132.463 24.531 C 146.404 35.743,160.320 49.589,170.684 62.559 C 199.989 99.229,210.406 136.992,199.887 168.426 C 194.681 183.985,184.113 197.760,170.293 207.001 C 156.012 216.551,138.452 221.230,122.347 219.779 C 82.031 216.145,52.133 183.794,52.061 143.725 C 52.003 111.567,69.930 75.972,102.632 43.316 C 111.254 34.706,126.578 21.398,127.924 21.352 C 128.234 21.342,130.277 22.772,132.463 24.531 M174.260 148.649 C 172.875 149.262,172.241 150.420,171.548 153.600 C 169.820 161.524,164.363 170.788,157.975 176.642 C 152.446 181.708,145.511 185.525,138.667 187.270 C 133.665 188.544,133.163 188.806,132.452 190.508 C 131.910 191.806,131.908 192.190,132.438 193.459 C 133.530 196.071,135.487 196.423,140.809 194.966 C 153.951 191.368,164.504 183.767,171.895 172.576 C 175.824 166.627,178.972 158.894,179.851 153.037 C 180.104 151.348,180.004 151.003,178.921 149.827 C 177.453 148.235,176.015 147.872,174.260 148.649 " stroke="none" fill-rule="evenodd"></path></svg>