<svg fill="currentColor" viewBox="0 0 256 256" xmlns="http://www.w3.org/2000/svg"><path d="M118.752 20.491 C 111.550 21.401,103.746 23.330,97.707 25.694 C 93.400 27.380,85.338 31.440,84.203 32.495 C 81.668 34.852,83.575 39.253,87.130 39.253 C 87.627 39.253,89.395 38.506,91.059 37.593 C 98.045 33.759,106.769 30.668,114.773 29.190 C 119.835 28.256,131.608 27.921,136.812 28.563 C 162.513 31.733,184.354 47.041,195.816 69.918 C 200.747 79.760,203.107 88.748,203.887 100.655 C 204.217 105.689,204.291 106.000,205.394 106.949 C 206.922 108.263,209.076 108.265,210.602 106.952 C 212.083 105.678,212.350 102.996,211.660 96.329 C 208.421 65.063,189.293 38.874,160.853 26.768 C 154.443 24.039,148.683 22.368,141.227 21.074 C 136.846 20.314,122.998 19.954,118.752 20.491 M46.243 36.516 C 43.537 37.850,43.249 40.589,45.539 43.199 C 47.141 45.023,54.543 53.215,56.901 55.772 L 58.166 57.144 56.658 59.612 C 52.409 66.566,49.509 73.131,47.274 80.853 C 42.719 96.593,42.944 116.455,47.844 131.093 C 50.861 140.107,54.229 145.086,64.222 155.307 C 73.012 164.297,74.063 165.563,76.121 169.641 C 78.527 174.408,79.336 178.085,79.821 186.453 C 80.059 190.560,80.547 195.360,80.906 197.120 C 83.560 210.141,91.060 221.164,102.144 228.331 C 106.655 231.249,110.784 233.050,116.449 234.570 C 120.049 235.537,121.394 235.670,127.787 235.694 C 135.759 235.723,138.182 235.302,144.213 232.836 C 148.663 231.016,152.549 228.617,156.518 225.236 C 161.160 221.283,163.840 217.936,163.840 216.091 C 163.840 214.171,162.356 212.521,160.342 212.200 C 158.808 211.956,158.632 212.075,154.155 216.378 C 147.271 222.995,143.303 225.348,136.148 227.056 C 131.290 228.216,122.238 227.991,117.333 226.587 C 106.376 223.452,97.198 215.748,92.142 205.440 C 89.331 199.707,88.428 195.609,87.913 186.232 C 87.031 170.160,84.038 163.814,71.314 151.040 C 67.458 147.168,63.171 142.486,61.789 140.636 C 57.406 134.768,54.586 127.678,53.033 118.618 C 52.129 113.345,52.008 97.233,52.838 92.587 C 53.837 86.995,55.478 80.986,57.208 76.587 C 59.102 71.768,63.164 63.919,63.796 63.855 C 64.182 63.815,83.146 84.244,85.615 87.360 L 86.714 88.746 85.576 92.693 C 84.853 95.197,84.344 98.228,84.183 100.984 L 83.928 105.327 85.238 106.637 C 87.489 108.887,90.777 108.192,91.662 105.279 C 91.894 104.517,92.191 102.302,92.323 100.357 C 92.455 98.412,92.712 96.566,92.895 96.255 C 93.125 95.862,100.258 103.419,116.267 121.015 C 128.939 134.943,139.829 146.965,140.468 147.730 L 141.629 149.120 140.928 151.680 C 140.490 153.279,140.214 156.002,140.193 158.933 C 140.166 162.816,140.334 164.131,141.167 166.544 C 144.429 175.992,154.894 181.830,164.267 179.430 C 165.792 179.039,167.373 178.683,167.781 178.640 C 168.266 178.588,174.880 185.562,186.924 198.827 C 197.905 210.920,205.841 219.316,206.600 219.646 C 208.307 220.386,210.357 219.699,211.323 218.064 C 212.178 216.618,212.224 215.615,211.497 214.306 C 210.385 212.306,50.941 37.159,49.642 36.511 C 48.006 35.694,47.908 35.694,46.243 36.516 M120.039 60.764 C 115.784 61.574,112.879 62.602,111.953 63.625 C 110.804 64.895,110.913 67.522,112.169 68.860 C 113.491 70.267,114.402 70.357,117.973 69.431 C 137.361 64.404,155.991 74.381,162.276 93.155 C 163.499 96.810,163.586 97.487,163.606 103.467 C 163.628 110.189,163.067 112.994,160.823 117.393 C 160.370 118.280,160.000 119.407,160.000 119.898 C 160.000 121.514,161.207 123.217,162.704 123.711 C 165.571 124.657,167.289 123.132,169.336 117.824 C 173.211 107.777,172.690 95.840,167.927 85.532 C 162.517 73.823,151.594 64.781,138.742 61.374 C 134.486 60.246,124.473 59.919,120.039 60.764 M155.437 164.132 C 159.120 168.165,162.133 171.573,162.133 171.706 C 162.133 172.295,157.680 171.865,155.554 171.069 C 152.702 170.002,149.735 166.916,148.733 163.975 C 148.035 161.928,147.782 156.403,148.397 156.658 C 148.586 156.736,151.754 160.100,155.437 164.132 " stroke="none" fill-rule="evenodd"></path></svg>