<svg fill="currentColor" viewBox="0 0 256 256" xmlns="http://www.w3.org/2000/svg"><path d="M121.173 20.863 C 111.106 23.102,100.972 29.520,89.813 40.724 C 80.521 50.054,73.130 59.960,65.886 72.793 C 48.336 103.884,40.317 141.991,45.694 168.747 C 50.858 194.445,68.717 217.080,92.569 228.154 C 127.352 244.304,169.021 234.731,193.010 205.080 C 206.334 188.611,212.687 169.288,211.903 147.622 C 210.704 114.513,197.615 79.417,176.139 51.727 C 171.652 45.941,160.458 34.716,155.829 31.360 C 145.372 23.779,137.741 20.607,129.067 20.238 C 125.899 20.103,123.865 20.264,121.173 20.863 M137.064 29.850 C 141.196 31.373,146.087 34.169,151.004 37.818 C 154.147 40.149,167.253 52.903,167.253 53.629 C 167.253 53.828,158.682 63.587,148.206 75.315 C 122.407 104.199,124.160 102.106,124.160 104.037 C 124.160 106.111,125.271 107.313,127.895 108.079 C 129.009 108.404,135.642 110.090,142.636 111.826 C 152.767 114.342,155.319 115.114,155.190 115.625 C 155.102 115.978,153.425 124.331,151.465 134.187 C 149.107 146.046,148.001 152.502,148.197 153.275 C 148.848 155.841,152.740 156.787,154.678 154.850 C 155.619 153.908,156.164 151.635,159.786 133.550 C 162.016 122.416,163.840 112.702,163.840 111.964 C 163.840 109.000,163.370 108.786,148.902 105.172 C 141.611 103.351,135.702 101.700,135.770 101.502 C 135.983 100.881,172.073 60.587,172.416 60.587 C 172.915 60.587,177.011 66.587,180.682 72.697 C 193.682 94.336,201.681 118.759,203.545 142.507 C 205.118 162.543,201.207 178.900,191.251 193.920 C 187.890 198.990,186.718 200.424,182.058 205.170 C 171.117 216.312,158.551 223.122,142.455 226.634 C 138.556 227.485,136.829 227.600,128.000 227.600 C 116.968 227.600,113.715 227.141,105.023 224.357 C 84.908 217.913,68.682 203.775,59.566 184.747 C 51.897 168.739,50.260 152.623,53.995 129.895 C 56.602 114.033,61.348 99.719,69.196 84.053 C 76.867 68.739,84.506 57.708,94.710 47.208 C 104.397 37.242,113.272 31.279,122.111 28.799 C 123.673 28.361,125.761 28.212,128.853 28.319 C 132.604 28.449,133.941 28.698,137.064 29.850 " stroke="none" fill-rule="evenodd"></path></svg>