<svg fill="currentColor" viewBox="0 0 256 256" xmlns="http://www.w3.org/2000/svg"><path d="M42.880 37.271 C 40.252 38.497,37.927 41.009,36.860 43.774 C 36.079 45.801,36.053 48.461,36.053 128.000 C 36.053 207.758,36.077 210.194,36.866 212.242 C 37.944 215.036,40.465 217.697,43.210 218.938 L 45.440 219.947 128.000 219.947 L 210.560 219.947 212.790 218.938 C 215.535 217.697,218.056 215.036,219.134 212.242 C 219.923 210.194,219.947 207.758,219.947 128.000 C 219.947 48.461,219.921 45.801,219.140 43.774 C 218.073 41.009,215.748 38.497,213.120 37.271 L 210.987 36.275 128.000 36.275 L 45.013 36.275 42.880 37.271 M209.719 44.456 C 212.203 45.588,212.053 40.243,212.053 127.959 C 212.053 189.572,211.933 208.864,211.544 209.719 C 210.560 211.877,209.570 212.053,198.426 212.053 L 188.170 212.053 188.058 157.261 L 187.947 102.469 186.912 101.368 L 185.878 100.267 128.000 100.267 L 70.122 100.267 69.088 101.368 L 68.053 102.469 67.942 157.261 L 67.830 212.053 57.574 212.053 C 46.430 212.053,45.440 211.877,44.456 209.719 C 44.067 208.863,43.950 189.580,43.962 127.873 C 43.978 41.093,43.856 45.801,46.127 44.542 C 47.552 43.752,207.989 43.668,209.719 44.456 M109.009 69.630 C 108.077 70.738,107.907 71.277,108.103 72.510 C 108.243 73.390,108.808 74.429,109.449 74.987 L 110.554 75.947 128.000 75.947 L 145.446 75.947 146.551 74.987 C 147.192 74.429,147.757 73.390,147.897 72.510 C 148.093 71.277,147.923 70.738,146.991 69.630 L 145.844 68.267 128.000 68.267 L 110.156 68.267 109.009 69.630 M124.160 160.000 L 124.160 212.053 100.053 212.053 L 75.947 212.053 75.947 160.000 L 75.947 107.947 100.053 107.947 L 124.160 107.947 124.160 160.000 M180.053 160.000 L 180.053 212.053 156.160 212.053 L 132.267 212.053 132.267 160.000 L 132.267 107.947 156.160 107.947 L 180.053 107.947 180.053 160.000 " stroke="none" fill-rule="evenodd"></path></svg>