<svg fill="currentColor" viewBox="0 0 256 256" xmlns="http://www.w3.org/2000/svg"><path d="M29.473 53.158 L 28.160 54.263 28.164 124.518 L 28.168 194.773 29.166 196.907 C 30.318 199.369,32.335 201.493,34.773 202.811 L 36.480 203.733 128.000 203.733 L 219.520 203.733 221.246 202.809 C 223.628 201.534,226.269 198.546,227.240 196.028 C 228.028 193.986,228.053 191.750,228.053 124.232 L 228.053 54.543 226.660 53.298 L 225.267 52.053 128.026 52.053 L 30.785 52.053 29.473 53.158 M212.470 61.182 C 207.871 65.627,128.265 138.240,127.991 138.240 C 127.717 138.240,48.129 65.628,43.530 61.182 L 42.473 60.160 128.000 60.160 L 213.527 60.160 212.470 61.182 M219.718 192.910 C 219.450 193.905,218.820 194.859,218.135 195.308 C 217.063 196.010,211.926 196.060,128.933 196.164 C 68.502 196.240,40.346 196.134,39.206 195.827 C 36.011 194.967,36.252 200.604,36.372 129.479 L 36.480 65.532 81.235 106.587 C 105.851 129.167,126.443 147.755,126.995 147.894 C 127.548 148.032,128.451 148.033,129.001 147.895 C 129.552 147.756,150.240 129.081,174.975 106.393 L 219.947 65.143 220.055 128.201 C 220.128 170.947,220.020 191.790,219.718 192.910 " stroke="none" fill-rule="evenodd"></path></svg>