<svg fill="currentColor" viewBox="0 0 256 256" xmlns="http://www.w3.org/2000/svg"><path d="M29.473 53.158 L 28.160 54.263 28.164 124.518 L 28.168 194.773 29.166 196.907 C 30.318 199.369,32.335 201.493,34.773 202.811 L 36.480 203.733 128.000 203.733 L 219.520 203.733 221.246 202.809 C 223.628 201.534,226.269 198.546,227.240 196.028 C 228.028 193.986,228.053 191.750,228.053 124.232 L 228.053 54.543 226.660 53.298 L 225.267 52.053 128.026 52.053 L 30.785 52.053 29.473 53.158 M212.470 61.182 C 207.871 65.627,128.265 138.240,127.991 138.240 C 127.717 138.240,48.129 65.628,43.530 61.182 L 42.473 60.160 128.000 60.160 L 213.527 60.160 212.470 61.182 M220.056 159.443 L 219.947 190.886 185.813 159.592 C 167.040 142.380,151.680 128.172,151.680 128.019 C 151.680 127.865,167.040 113.657,185.813 96.445 L 219.947 65.151 220.056 96.576 C 220.116 113.859,220.116 142.149,220.056 159.443 M70.492 96.724 C 89.097 113.784,104.320 127.866,104.320 128.018 C 104.320 128.331,36.827 190.293,36.486 190.293 C 36.365 190.293,36.267 162.261,36.267 128.000 C 36.267 93.739,36.356 65.707,36.465 65.707 C 36.574 65.707,51.886 79.664,70.492 96.724 M118.360 140.607 C 122.563 144.477,126.451 147.757,127.000 147.895 C 129.196 148.446,128.906 148.662,141.526 137.082 L 145.452 133.480 179.286 164.466 C 197.895 181.509,213.184 195.636,213.262 195.860 C 213.352 196.117,182.004 196.267,128.000 196.267 C 74.299 196.267,42.648 196.116,42.738 195.862 C 42.894 195.418,110.161 133.597,110.507 133.580 C 110.624 133.574,114.158 136.736,118.360 140.607 " stroke="none" fill-rule="evenodd"></path></svg>