<svg fill="currentColor" viewBox="0 0 256 256" xmlns="http://www.w3.org/2000/svg"><path d="M169.173 44.220 C 165.177 45.103,166.136 44.126,118.115 96.207 C 92.797 123.667,71.483 146.565,70.751 147.093 L 69.420 148.053 49.720 148.053 C 27.396 148.053,27.567 148.032,23.920 151.311 C 22.426 152.654,21.551 153.896,20.931 155.554 C 20.087 157.809,20.053 158.743,20.053 179.993 C 20.053 204.568,20.037 204.412,22.898 207.754 C 23.733 208.729,25.402 210.048,26.608 210.684 L 28.800 211.840 58.061 211.840 L 87.322 211.840 89.587 210.779 C 91.611 209.832,96.744 204.412,137.885 159.793 C 163.203 132.333,184.517 109.435,185.249 108.907 L 186.580 107.947 206.340 107.947 C 228.919 107.947,228.982 107.938,232.451 104.404 C 235.988 100.800,235.947 101.132,235.947 76.018 C 235.947 51.538,235.950 51.573,233.197 48.356 C 232.414 47.441,230.744 46.123,229.486 45.426 L 227.200 44.160 198.613 44.096 C 182.891 44.060,169.643 44.116,169.173 44.220 M226.527 53.158 L 227.840 54.263 227.840 75.890 C 227.840 99.953,227.957 98.985,224.947 99.821 C 223.963 100.095,215.980 100.263,203.917 100.264 L 184.473 100.267 182.157 101.440 C 180.131 102.466,174.021 108.922,133.547 152.804 C 108.085 180.409,86.812 203.209,86.273 203.470 C 85.583 203.806,77.229 203.947,58.039 203.947 L 30.785 203.947 29.473 202.842 L 28.160 201.737 28.160 180.063 C 28.160 159.362,28.197 158.343,28.975 157.381 L 29.790 156.373 50.415 156.160 L 71.040 155.947 73.600 154.667 C 75.956 153.489,79.741 149.507,121.057 104.747 C 145.750 77.995,166.904 55.195,168.065 54.080 L 170.177 52.053 197.696 52.053 L 225.215 52.053 226.527 53.158 M185.324 160.960 C 176.773 169.513,172.324 174.265,172.135 175.048 C 171.479 177.769,174.221 180.534,176.915 179.867 C 177.715 179.669,181.171 176.542,186.976 170.766 L 195.819 161.968 195.936 185.766 L 196.053 209.564 197.499 210.855 C 198.719 211.945,199.184 212.108,200.485 211.901 C 201.390 211.757,202.423 211.199,202.987 210.551 L 203.947 209.446 203.947 185.790 C 203.947 172.779,204.085 162.133,204.254 162.133 C 204.423 162.133,208.609 166.165,213.557 171.093 C 221.594 179.099,222.701 180.053,223.949 180.053 C 225.989 180.053,227.840 178.086,227.840 175.917 C 227.840 174.331,227.388 173.823,214.704 161.164 C 201.954 148.439,201.519 148.053,199.898 148.053 C 198.278 148.053,197.850 148.432,185.324 160.960 " stroke="none" fill-rule="evenodd"></path></svg>