<svg fill="currentColor" viewBox="0 0 256 256" xmlns="http://www.w3.org/2000/svg"><path d="M29.155 44.349 C 27.076 44.855,24.096 46.763,22.657 48.509 C 20.059 51.660,20.053 51.724,20.053 76.007 C 20.053 97.021,20.095 98.212,20.903 100.371 C 21.981 103.253,24.728 105.991,27.658 107.104 C 29.751 107.899,30.993 107.947,49.648 107.947 L 69.420 107.947 70.752 108.907 C 71.484 109.435,92.796 132.332,118.110 159.790 C 159.298 204.464,164.375 209.825,166.407 210.777 L 168.678 211.840 197.939 211.840 L 227.200 211.840 229.392 210.684 C 230.598 210.048,232.267 208.729,233.102 207.754 C 235.963 204.412,235.947 204.568,235.947 179.993 C 235.947 158.743,235.913 157.809,235.069 155.554 C 234.449 153.896,233.574 152.654,232.080 151.311 C 228.433 148.032,228.604 148.053,206.280 148.053 L 186.580 148.053 185.249 147.093 C 184.517 146.565,163.203 123.669,137.885 96.213 C 100.087 55.223,91.479 46.103,89.766 45.227 L 87.680 44.160 59.093 44.090 C 43.371 44.051,29.898 44.168,29.155 44.349 M197.447 45.191 L 196.053 46.436 195.936 70.234 L 195.819 94.032 186.976 85.234 C 181.171 79.458,177.715 76.331,176.915 76.133 C 174.220 75.466,171.476 78.233,172.137 80.952 C 172.327 81.732,176.802 86.517,185.313 95.040 C 197.882 107.626,198.244 107.947,199.893 107.947 C 201.543 107.947,201.909 107.622,214.712 94.819 C 227.618 81.914,227.840 81.662,227.840 79.960 C 227.840 77.635,226.350 76.179,223.970 76.179 C 222.342 76.179,221.964 76.497,213.430 85.023 C 208.562 89.887,204.437 93.867,204.263 93.867 C 204.089 93.867,203.947 83.294,203.947 70.372 C 203.947 55.074,203.793 46.591,203.507 46.056 C 202.988 45.086,200.936 43.947,199.708 43.947 C 199.231 43.947,198.213 44.507,197.447 45.191 M87.935 54.080 C 89.096 55.195,110.250 77.995,134.943 104.747 C 176.259 149.507,180.044 153.489,182.400 154.667 L 184.960 155.947 205.585 156.160 L 226.210 156.373 227.025 157.381 C 227.803 158.343,227.840 159.362,227.840 180.063 L 227.840 201.737 226.527 202.842 L 225.215 203.947 197.961 203.947 C 178.771 203.947,170.417 203.806,169.727 203.470 C 169.188 203.209,147.915 180.409,122.453 152.804 C 81.979 108.922,75.869 102.466,73.843 101.440 L 71.527 100.267 52.083 100.264 C 40.020 100.263,32.037 100.095,31.053 99.821 C 28.043 98.985,28.160 99.953,28.160 75.890 L 28.160 54.263 29.473 53.158 L 30.785 52.053 58.304 52.053 L 85.823 52.053 87.935 54.080 " stroke="none" fill-rule="evenodd"></path></svg>