<svg fill="currentColor" viewBox="0 0 256 256" xmlns="http://www.w3.org/2000/svg"><path d="M185.173 36.327 C 180.831 36.698,178.325 37.369,174.293 39.244 C 169.280 41.574,166.949 43.556,154.269 56.268 L 142.778 67.788 140.382 65.574 C 136.339 61.837,132.087 60.190,126.438 60.170 C 122.816 60.158,119.045 61.227,116.146 63.087 C 115.022 63.808,111.213 67.333,107.680 70.919 C 101.405 77.291,101.240 77.505,100.501 80.262 C 99.168 85.236,100.472 88.831,105.356 93.644 L 108.377 96.621 80.062 125.004 C 64.488 140.614,51.124 154.313,50.363 155.446 C 48.381 158.398,45.873 163.994,44.976 167.467 C 44.029 171.131,43.909 178.958,44.733 183.253 L 45.306 186.240 40.815 196.539 C 38.344 202.204,36.196 207.516,36.041 208.343 C 35.656 210.393,36.775 214.019,38.394 215.973 C 40.372 218.360,43.897 219.910,47.331 219.904 C 49.951 219.899,50.812 219.602,60.587 215.336 C 70.881 210.844,71.066 210.782,72.747 211.294 C 73.752 211.601,76.821 211.803,80.213 211.787 C 85.204 211.764,86.487 211.605,89.813 210.602 C 94.546 209.174,99.177 206.723,102.827 203.716 C 104.352 202.459,117.689 189.331,132.464 174.543 L 159.328 147.656 162.606 150.845 C 166.609 154.741,168.940 155.893,172.800 155.884 C 177.226 155.873,178.882 154.844,186.068 147.641 C 191.346 142.349,192.533 140.913,193.853 138.219 C 196.809 132.183,196.698 125.663,193.533 119.543 C 193.163 118.828,191.803 117.101,190.510 115.704 L 188.160 113.166 200.691 100.417 C 208.200 92.777,213.916 86.594,214.955 84.987 C 216.658 82.351,218.320 78.453,219.354 74.667 C 220.120 71.863,220.007 63.939,219.150 60.373 C 218.061 55.843,215.007 50.046,211.953 46.714 C 204.710 38.809,195.939 35.407,185.173 36.327 M193.037 44.568 C 201.424 46.172,208.083 52.258,211.033 61.013 C 212.192 64.452,212.124 70.944,210.888 74.898 C 209.247 80.150,207.342 82.482,192.580 97.309 C 180.689 109.252,178.710 111.419,178.497 112.733 C 178.260 114.192,178.428 114.454,182.078 118.330 C 186.742 123.285,187.809 125.341,187.809 129.381 C 187.809 133.876,186.715 135.684,179.932 142.400 C 173.849 148.424,173.235 148.761,170.752 147.441 C 169.734 146.900,146.373 123.604,117.588 94.425 L 107.827 84.531 108.088 82.924 C 108.306 81.579,109.230 80.433,113.766 75.887 C 120.370 69.268,122.285 68.095,126.507 68.081 C 130.681 68.068,132.811 69.147,137.336 73.568 C 141.177 77.322,142.607 78.072,144.280 77.212 C 144.830 76.929,151.808 70.230,159.787 62.326 C 173.394 48.846,174.483 47.869,177.361 46.569 C 182.917 44.059,187.393 43.488,193.037 44.568 M146.457 149.010 L 139.316 156.160 99.846 156.160 L 60.376 156.160 87.253 129.280 L 114.130 102.400 133.864 122.130 L 153.597 141.860 146.457 149.010 M113.920 181.494 C 96.601 198.754,96.134 199.178,92.587 200.911 C 86.451 203.907,80.374 204.647,73.535 203.230 L 70.057 202.509 59.050 207.313 C 47.185 212.491,45.991 212.763,44.583 210.614 C 43.983 209.698,44.226 208.994,48.671 198.794 C 51.270 192.829,53.495 187.458,53.615 186.858 C 53.735 186.259,53.487 184.627,53.064 183.231 C 51.829 179.160,52.030 171.861,53.501 167.360 L 54.650 163.840 93.139 163.845 L 131.627 163.849 113.920 181.494 " stroke="none" fill-rule="evenodd"></path></svg>