<svg fill="currentColor" viewBox="0 0 256 256" xmlns="http://www.w3.org/2000/svg"><path d="M185.173 36.327 C 180.831 36.698,178.325 37.369,174.293 39.244 C 169.280 41.574,166.949 43.556,154.269 56.268 L 142.778 67.788 140.382 65.574 C 136.339 61.837,132.087 60.190,126.438 60.170 C 122.816 60.158,119.045 61.227,116.146 63.087 C 115.022 63.808,111.213 67.333,107.680 70.919 C 101.405 77.291,101.240 77.505,100.501 80.262 C 99.168 85.236,100.472 88.831,105.356 93.644 L 108.377 96.621 80.062 125.004 C 64.488 140.614,51.124 154.313,50.363 155.446 C 48.381 158.398,45.873 163.994,44.976 167.467 C 44.029 171.131,43.909 178.958,44.733 183.253 L 45.306 186.240 40.815 196.539 C 38.344 202.204,36.196 207.516,36.041 208.343 C 35.656 210.393,36.775 214.019,38.394 215.973 C 40.372 218.360,43.897 219.910,47.331 219.904 C 49.951 219.899,50.812 219.602,60.587 215.336 C 70.881 210.844,71.066 210.782,72.747 211.294 C 73.752 211.601,76.821 211.803,80.213 211.787 C 85.204 211.764,86.487 211.605,89.813 210.602 C 94.546 209.174,99.177 206.723,102.827 203.716 C 104.352 202.459,117.689 189.331,132.464 174.543 L 159.328 147.656 162.606 150.845 C 166.609 154.741,168.940 155.893,172.800 155.884 C 177.226 155.873,178.882 154.844,186.068 147.641 C 191.360 142.336,192.529 140.919,193.846 138.219 C 197.664 130.392,196.395 121.837,190.501 115.657 L 188.102 113.142 200.662 100.411 C 208.331 92.637,213.897 86.634,214.955 84.993 C 216.659 82.350,218.322 78.448,219.354 74.667 C 220.142 71.784,220.020 63.917,219.132 60.373 C 217.964 55.707,214.965 50.000,211.953 46.714 C 204.710 38.809,195.939 35.407,185.173 36.327 M193.037 44.568 C 201.424 46.172,208.083 52.258,211.033 61.013 C 212.192 64.452,212.124 70.944,210.888 74.898 C 209.247 80.150,207.342 82.482,192.580 97.309 C 180.644 109.296,178.711 111.415,178.495 112.745 C 178.256 114.218,178.410 114.459,182.043 118.273 C 186.665 123.124,187.809 125.314,187.809 129.315 C 187.809 133.804,186.875 135.393,180.384 141.948 C 174.313 148.078,173.185 148.731,170.825 147.479 C 169.732 146.899,152.750 129.977,119.082 95.921 L 107.826 84.535 108.087 82.926 C 108.306 81.578,109.227 80.436,113.766 75.887 C 120.370 69.268,122.285 68.095,126.507 68.081 C 130.681 68.068,132.811 69.147,137.336 73.568 C 141.177 77.322,142.607 78.072,144.280 77.212 C 144.830 76.929,151.808 70.230,159.787 62.326 C 173.394 48.846,174.483 47.869,177.361 46.569 C 182.917 44.059,187.393 43.488,193.037 44.568 M124.912 170.507 C 96.279 199.082,96.205 199.152,92.587 200.915 C 86.443 203.908,80.369 204.646,73.535 203.230 L 70.057 202.509 59.050 207.313 C 47.185 212.491,45.991 212.763,44.583 210.614 C 43.983 209.698,44.227 208.997,48.707 198.793 C 53.912 186.940,53.984 186.633,52.777 181.547 C 51.137 174.639,52.648 166.705,56.775 160.545 C 57.526 159.424,70.738 145.882,86.134 130.452 L 114.127 102.397 133.869 122.132 L 153.610 141.867 124.912 170.507 " stroke="none" fill-rule="evenodd"></path></svg>