<svg fill="currentColor" viewBox="0 0 256 256" xmlns="http://www.w3.org/2000/svg"><path d="M51.792 44.373 C 40.647 46.006,31.040 55.021,28.602 66.133 C 28.338 67.335,28.177 86.915,28.170 118.479 C 28.162 160.939,28.258 169.364,28.779 171.812 C 32.012 187.006,42.983 198.661,57.826 202.671 C 62.161 203.842,69.688 204.247,74.044 203.545 C 86.238 201.578,97.020 194.047,103.030 183.299 C 105.687 178.549,107.947 170.666,107.947 166.149 L 107.947 164.267 128.000 164.267 L 148.053 164.267 148.053 166.108 C 148.053 168.857,148.797 172.547,150.236 176.939 C 153.996 188.410,163.438 197.856,175.081 201.791 C 184.788 205.072,195.528 204.546,204.626 200.343 C 216.545 194.836,224.487 184.603,227.493 170.880 C 228.331 167.054,228.313 70.039,227.473 66.373 C 224.657 54.076,214.706 45.334,202.188 44.161 C 199.000 43.863,198.914 43.880,197.518 45.128 C 196.385 46.141,196.096 46.724,196.096 48.000 C 196.096 50.268,198.108 52.053,200.664 52.053 C 203.163 52.053,207.079 53.128,209.652 54.521 C 214.986 57.407,218.902 63.253,219.719 69.551 C 219.956 71.376,220.139 87.161,220.147 106.348 L 220.160 139.949 217.069 136.695 C 210.839 130.137,203.026 125.959,194.383 124.565 C 189.408 123.762,181.560 124.241,176.853 125.635 C 170.124 127.627,163.585 131.625,158.853 136.641 C 154.576 141.173,150.755 148.088,149.303 153.920 L 148.745 156.160 128.000 156.160 L 107.255 156.160 106.697 153.920 C 105.312 148.355,101.567 141.426,97.608 137.103 C 92.907 131.969,85.426 127.395,78.507 125.424 C 74.416 124.259,66.129 123.837,61.617 124.565 C 53.118 125.936,45.260 130.092,39.137 136.454 L 36.248 139.456 36.364 103.115 L 36.480 66.773 38.074 63.436 C 41.289 56.701,48.338 52.053,55.336 52.053 C 57.892 52.053,59.904 50.268,59.904 48.000 C 59.904 46.735,59.615 46.141,58.532 45.173 C 57.062 43.859,56.086 43.744,51.792 44.373 M75.301 132.913 C 79.105 133.719,85.292 136.801,88.347 139.412 C 95.510 145.533,99.265 153.041,99.726 162.165 C 99.998 167.544,99.417 171.361,97.660 175.755 C 94.160 184.506,86.715 191.525,77.867 194.418 C 72.942 196.028,65.578 196.294,60.554 195.043 C 51.235 192.724,43.754 186.722,39.463 178.125 C 37.129 173.451,36.219 169.370,36.233 163.654 C 36.268 149.303,45.988 136.756,59.896 133.110 C 63.682 132.117,71.098 132.023,75.301 132.913 M196.001 133.107 C 202.499 134.768,209.290 139.208,213.113 144.295 C 217.709 150.409,219.738 156.394,219.726 163.802 C 219.716 169.698,218.889 173.414,216.536 178.128 C 212.246 186.722,204.764 192.724,195.446 195.043 C 190.422 196.294,183.058 196.028,178.133 194.418 C 169.285 191.525,161.840 184.506,158.340 175.755 C 156.583 171.361,156.002 167.544,156.274 162.165 C 156.735 153.041,160.490 145.533,167.653 139.412 C 170.623 136.873,176.885 133.715,180.503 132.931 C 184.716 132.017,192.068 132.101,196.001 133.107 " stroke="none" fill-rule="evenodd"></path></svg>