<svg fill="currentColor" viewBox="0 0 256 256" xmlns="http://www.w3.org/2000/svg"><path d="M170.678 20.782 C 167.998 21.745,164.586 25.260,163.709 27.960 C 163.330 29.126,160.215 49.758,156.786 73.809 C 153.357 97.860,150.502 117.587,150.442 117.647 C 150.382 117.707,140.216 110.173,127.852 100.905 C 112.077 89.080,105.049 84.053,104.291 84.053 C 102.561 84.053,100.826 85.192,100.313 86.664 C 99.993 87.581,99.840 94.424,99.840 107.797 C 99.840 118.674,99.744 127.573,99.627 127.573 C 99.511 127.573,86.356 117.781,70.396 105.813 C 49.871 90.423,41.060 84.053,40.294 84.053 C 38.562 84.053,36.826 85.191,36.313 86.664 C 35.975 87.633,35.840 105.749,35.840 150.037 L 35.840 212.053 25.197 212.053 C 14.772 212.053,14.532 212.073,13.449 213.013 C 12.801 213.577,12.243 214.610,12.099 215.515 C 11.892 216.816,12.055 217.281,13.145 218.501 L 14.437 219.947 128.000 219.947 L 241.563 219.947 242.855 218.501 C 243.945 217.281,244.108 216.816,243.901 215.515 C 243.757 214.610,243.199 213.577,242.551 213.013 C 241.468 212.073,241.228 212.053,230.803 212.053 L 220.160 212.053 220.160 174.391 L 220.160 136.728 212.487 82.977 C 208.267 53.414,204.512 28.422,204.142 27.438 C 203.323 25.263,200.782 22.564,198.311 21.244 C 196.540 20.299,196.086 20.264,184.533 20.181 C 174.481 20.109,172.284 20.205,170.678 20.782 M195.628 29.120 C 196.731 30.069,196.828 30.661,203.962 80.213 C 207.932 107.787,211.185 130.779,211.190 131.307 L 211.200 132.267 190.437 132.267 L 169.674 132.267 163.877 127.936 C 160.689 125.555,158.035 123.574,157.980 123.534 C 157.717 123.346,171.101 30.649,171.499 29.905 C 171.751 29.435,172.291 28.855,172.699 28.618 C 173.143 28.359,177.663 28.181,183.976 28.173 C 194.297 28.160,194.535 28.180,195.628 29.120 M73.351 118.069 C 105.182 141.960,104.106 141.292,106.656 138.743 L 107.947 137.452 107.947 116.939 C 107.947 105.657,108.091 96.431,108.267 96.437 C 108.443 96.443,121.627 106.235,137.565 118.197 L 166.543 139.947 189.298 139.947 L 212.053 139.947 212.053 176.000 L 212.053 212.053 128.000 212.053 L 43.947 212.053 43.947 154.240 C 43.947 122.443,44.075 96.427,44.231 96.427 C 44.387 96.427,57.491 106.166,73.351 118.069 M78.127 172.542 C 76.993 173.171,75.985 174.740,75.962 175.915 C 75.937 177.191,77.094 179.003,78.281 179.544 C 79.081 179.908,83.658 180.053,94.307 180.053 L 109.213 180.053 110.543 178.866 C 111.604 177.917,111.872 177.339,111.872 176.000 C 111.872 174.661,111.604 174.083,110.543 173.134 L 109.213 171.947 94.180 171.962 C 82.522 171.974,78.918 172.104,78.127 172.542 M145.457 173.134 C 144.396 174.083,144.128 174.661,144.128 176.000 C 144.128 177.339,144.396 177.917,145.457 178.866 L 146.787 180.053 161.735 180.053 C 177.950 180.053,178.514 179.979,179.544 177.719 C 179.824 177.103,180.053 176.330,180.053 176.000 C 180.053 175.670,179.824 174.897,179.544 174.281 C 178.514 172.021,177.950 171.947,161.735 171.947 L 146.787 171.947 145.457 173.134 " stroke="none" fill-rule="evenodd"></path></svg>