<svg fill="currentColor" viewBox="0 0 256 256" xmlns="http://www.w3.org/2000/svg"><path d="M101.675 52.809 C 101.159 53.215,100.535 54.087,100.289 54.748 C 99.994 55.535,99.840 64.241,99.840 80.041 C 99.840 105.724,99.891 106.406,101.909 107.486 C 103.502 108.338,105.367 108.032,106.699 106.699 L 107.947 105.452 107.947 94.753 L 107.947 84.053 162.553 84.053 L 217.160 84.053 218.532 82.827 C 220.462 81.103,220.462 78.897,218.532 77.173 L 217.160 75.947 162.553 75.947 L 107.947 75.947 107.947 65.247 L 107.947 54.548 106.699 53.301 C 105.247 51.848,103.159 51.644,101.675 52.809 M37.468 77.173 C 35.531 78.903,35.537 81.102,37.483 82.841 L 38.871 84.081 56.379 83.960 L 73.888 83.840 74.917 82.643 C 76.008 81.375,76.255 79.453,75.507 78.056 C 74.420 76.025,73.682 75.947,55.708 75.947 L 38.840 75.947 37.468 77.173 M165.675 148.809 C 165.159 149.215,164.535 150.087,164.289 150.748 C 163.994 151.535,163.840 160.241,163.840 176.041 C 163.840 201.724,163.891 202.406,165.909 203.486 C 167.502 204.338,169.367 204.032,170.699 202.699 L 171.947 201.452 171.947 190.753 L 171.947 180.053 194.553 180.053 L 217.160 180.053 218.532 178.827 C 220.462 177.103,220.462 174.897,218.532 173.173 L 217.160 171.947 194.553 171.947 L 171.947 171.947 171.947 161.247 L 171.947 150.548 170.699 149.301 C 169.247 147.848,167.159 147.644,165.675 148.809 M37.468 173.173 C 35.535 174.900,35.538 177.102,37.474 178.833 L 38.852 180.064 88.370 179.952 L 137.887 179.840 138.917 178.643 C 140.008 177.375,140.255 175.454,139.507 174.056 C 138.335 171.867,140.300 171.947,87.708 171.947 L 38.840 171.947 37.468 173.173 " stroke="none" fill-rule="evenodd"></path></svg>