<svg fill="currentColor" viewBox="0 0 256 256" xmlns="http://www.w3.org/2000/svg"><path d="M53.101 37.314 L 52.053 38.361 52.053 85.314 L 52.053 132.267 41.154 132.267 L 30.255 132.267 29.207 133.314 C 27.626 134.896,27.745 137.389,29.473 138.842 L 30.785 139.947 56.116 139.947 L 81.446 139.947 82.551 138.987 C 83.192 138.429,83.757 137.390,83.897 136.510 C 84.093 135.277,83.923 134.738,82.991 133.630 L 81.844 132.267 71.008 132.267 L 60.171 132.267 60.059 85.368 L 59.947 38.469 58.912 37.368 C 57.477 35.840,54.601 35.814,53.101 37.314 M125.207 37.314 L 124.160 38.361 124.160 61.207 L 124.160 84.053 113.478 84.053 C 101.619 84.053,101.150 84.151,100.275 86.800 C 99.736 88.436,100.150 89.838,101.542 91.093 C 102.467 91.927,103.090 91.947,128.000 91.947 C 152.910 91.947,153.533 91.927,154.458 91.093 C 155.850 89.838,156.264 88.436,155.725 86.800 C 154.852 84.158,154.360 84.053,142.735 84.053 L 132.267 84.053 132.264 62.400 C 132.263 48.816,132.098 40.155,131.821 39.159 C 131.276 37.195,130.012 36.267,127.886 36.267 C 126.723 36.267,125.954 36.567,125.207 37.314 M197.088 37.368 L 196.053 38.469 195.942 101.368 L 195.832 164.267 184.994 164.267 L 174.156 164.267 173.009 165.630 C 172.077 166.738,171.907 167.277,172.103 168.510 C 172.243 169.390,172.808 170.429,173.449 170.987 L 174.554 171.947 199.884 171.947 L 225.215 171.947 226.527 170.842 C 227.569 169.965,227.840 169.403,227.840 168.116 C 227.840 167.156,227.508 166.084,227.025 165.487 C 226.215 164.487,226.138 164.479,215.185 164.267 L 204.160 164.053 203.947 100.976 L 203.733 37.898 202.726 37.082 C 201.191 35.840,198.390 35.981,197.088 37.368 M125.473 117.158 L 124.160 118.263 124.160 167.951 L 124.160 217.639 125.190 218.669 C 127.476 220.954,130.703 220.125,131.742 216.984 C 132.171 215.689,132.260 205.191,132.169 166.944 L 132.053 118.543 130.660 117.298 C 128.905 115.730,127.224 115.685,125.473 117.158 M53.101 165.314 L 52.053 166.361 52.053 191.886 C 52.053 220.070,51.927 218.776,54.767 219.713 C 56.436 220.265,57.830 219.860,59.093 218.458 C 59.927 217.533,59.947 216.910,59.947 191.990 L 59.947 166.469 58.912 165.368 C 57.477 163.840,54.601 163.814,53.101 165.314 M197.088 197.368 C 196.057 198.465,196.053 198.501,196.053 207.990 C 196.053 216.910,196.107 217.570,196.907 218.458 C 198.170 219.860,199.564 220.265,201.233 219.713 C 203.854 218.848,203.947 218.447,203.947 207.886 L 203.947 198.361 202.899 197.314 C 201.399 195.814,198.523 195.840,197.088 197.368 " stroke="none" fill-rule="evenodd"></path></svg>