<svg fill="currentColor" viewBox="0 0 256 256" xmlns="http://www.w3.org/2000/svg"><path d="M118.613 28.464 C 110.565 29.114,98.652 32.003,90.782 35.214 C 59.612 47.931,37.421 74.312,30.138 107.307 C 27.496 119.279,27.496 136.721,30.138 148.693 C 34.441 168.185,43.446 184.693,57.377 198.623 C 71.307 212.554,87.815 221.559,107.307 225.862 C 119.279 228.504,136.721 228.504,148.693 225.862 C 168.098 221.579,184.802 212.474,198.638 198.638 C 214.932 182.343,224.819 161.762,227.445 138.671 C 228.165 132.336,227.709 117.227,226.621 111.360 C 223.614 95.153,217.576 81.024,208.365 68.641 C 191.765 46.323,167.094 32.009,139.708 28.805 C 134.728 28.223,123.794 28.046,118.613 28.464 M141.450 37.088 C 151.293 38.536,159.191 40.985,168.320 45.421 C 195.814 58.779,214.837 85.062,219.065 115.535 C 219.837 121.096,219.960 133.911,219.290 138.956 C 216.572 159.430,208.181 177.095,194.306 191.550 C 186.556 199.624,178.023 205.880,168.394 210.544 C 146.182 221.305,122.141 222.924,98.987 215.218 C 75.515 207.406,56.191 190.487,45.421 168.320 C 38.959 155.019,36.271 143.174,36.271 128.000 C 36.271 112.826,38.959 100.981,45.421 87.680 C 58.548 60.660,84.406 41.633,114.133 37.120 C 121.418 36.014,134.048 35.999,141.450 37.088 M81.773 92.643 C 79.798 93.791,79.787 94.001,79.787 128.000 C 79.787 162.381,79.780 162.268,81.931 163.419 C 84.258 164.665,85.032 164.226,110.357 147.319 C 123.768 138.366,135.048 130.601,135.424 130.065 C 136.055 129.164,136.107 130.320,136.107 145.340 L 136.107 161.590 137.267 162.751 C 139.640 165.123,139.414 165.243,166.250 147.323 C 179.661 138.367,190.941 130.601,191.317 130.065 C 192.188 128.821,192.188 127.179,191.317 125.935 C 190.941 125.399,179.661 117.633,166.250 108.677 C 139.414 90.757,139.640 90.877,137.267 93.249 L 136.107 94.410 136.094 110.672 C 136.085 122.190,135.951 126.710,135.635 126.167 C 135.390 125.746,123.973 117.922,110.264 108.780 C 84.297 91.465,84.045 91.323,81.773 92.643 M106.611 115.840 C 116.485 122.411,124.564 127.883,124.564 128.000 C 124.564 128.214,88.997 151.981,88.276 152.249 C 88.053 152.332,87.893 142.201,87.893 128.000 C 87.893 113.799,88.053 103.668,88.276 103.751 C 88.486 103.829,96.737 109.269,106.611 115.840 M180.468 128.037 C 180.477 128.225,154.253 145.879,145.387 151.654 L 144.213 152.418 144.213 128.049 L 144.213 103.679 162.335 115.733 C 172.301 122.362,180.461 127.899,180.468 128.037 " stroke="none" fill-rule="evenodd"></path></svg>