<svg fill="currentColor" viewBox="0 0 256 256" xmlns="http://www.w3.org/2000/svg"><path d="M52.477 28.559 C 48.947 29.633,45.611 32.949,44.585 36.406 C 44.027 38.283,43.947 49.859,43.947 128.000 C 43.947 206.525,44.025 217.710,44.591 219.614 C 45.445 222.489,48.349 225.704,51.294 227.035 L 53.547 228.053 128.000 228.053 L 202.453 228.053 204.706 227.035 C 207.686 225.689,210.573 222.475,211.420 219.562 C 211.981 217.631,212.048 209.111,211.951 151.768 L 211.840 86.181 182.820 57.171 L 153.800 28.160 103.673 28.197 C 76.104 28.217,53.065 28.380,52.477 28.559 M148.053 62.748 C 148.053 80.902,148.198 89.500,148.514 90.091 C 149.602 92.123,150.132 92.160,177.906 92.160 L 203.947 92.160 203.947 154.682 C 203.947 223.700,204.150 218.706,201.295 219.701 C 199.443 220.347,56.557 220.347,54.705 219.701 C 51.827 218.698,52.053 226.532,52.053 127.864 L 52.053 38.525 53.100 37.396 L 54.146 36.267 101.100 36.267 L 148.053 36.267 148.053 62.748 M178.985 64.747 L 198.125 84.053 177.143 84.053 L 156.160 84.053 156.160 62.832 L 156.160 41.611 158.003 43.526 C 159.016 44.579,168.458 54.128,178.985 64.747 M125.473 117.158 L 124.160 118.263 124.160 146.256 L 124.160 174.250 115.052 165.205 C 106.471 156.683,105.853 156.160,104.358 156.160 C 103.485 156.160,102.401 156.358,101.950 156.599 C 100.728 157.253,99.722 159.469,100.047 160.793 C 100.387 162.177,125.043 187.039,126.798 187.765 C 127.714 188.145,128.286 188.145,129.202 187.765 C 130.957 187.039,155.613 162.177,155.953 160.793 C 156.278 159.469,155.272 157.253,154.050 156.599 C 153.599 156.358,152.516 156.160,151.643 156.160 C 150.151 156.160,149.534 156.679,141.177 164.976 L 132.297 173.792 132.175 146.168 L 132.053 118.543 130.660 117.298 C 128.905 115.730,127.224 115.685,125.473 117.158 " stroke="none" fill-rule="evenodd"></path></svg>