<svg fill="currentColor" viewBox="0 0 256 256" xmlns="http://www.w3.org/2000/svg"><path d="M52.477 28.559 C 50.326 29.213,48.699 30.309,46.980 32.261 C 43.787 35.889,43.947 33.169,43.947 83.885 L 43.947 129.215 45.051 130.527 C 46.588 132.353,49.018 132.381,50.806 130.593 L 52.053 129.346 52.053 83.935 L 52.053 38.525 53.100 37.396 L 54.146 36.267 101.100 36.267 L 148.053 36.267 148.053 62.748 C 148.053 80.902,148.198 89.500,148.514 90.091 C 149.602 92.123,150.132 92.160,177.906 92.160 L 203.947 92.160 203.947 154.682 C 203.947 223.700,204.150 218.706,201.295 219.701 C 200.470 219.989,195.215 220.160,187.210 220.160 L 174.441 220.160 173.194 221.407 C 171.538 223.063,171.538 224.809,173.192 226.660 L 174.438 228.053 188.445 228.053 C 202.295 228.053,202.479 228.042,204.706 227.035 C 207.686 225.689,210.573 222.475,211.420 219.562 C 211.981 217.631,212.048 209.111,211.951 151.768 L 211.840 86.181 182.820 57.171 L 153.800 28.160 103.673 28.197 C 76.104 28.217,53.065 28.380,52.477 28.559 M178.985 64.747 L 198.125 84.053 177.143 84.053 L 156.160 84.053 156.160 62.832 L 156.160 41.611 158.003 43.526 C 159.016 44.579,168.458 54.128,178.985 64.747 M43.839 156.763 C 40.135 158.098,37.113 161.683,36.271 165.741 C 35.966 167.209,35.851 175.185,35.931 189.261 L 36.053 210.560 37.062 212.790 C 38.303 215.535,40.964 218.056,43.758 219.134 C 45.761 219.906,47.391 219.947,76.373 219.947 L 106.880 219.947 108.881 218.952 C 113.110 216.849,116.053 212.236,116.053 207.709 C 116.053 206.813,116.154 206.080,116.276 206.080 C 116.399 206.080,122.399 209.188,129.609 212.987 C 144.191 220.670,144.755 220.851,146.836 218.522 L 148.070 217.141 147.955 187.680 L 147.840 158.219 146.643 157.190 C 145.914 156.563,144.913 156.162,144.083 156.164 C 143.195 156.166,138.192 158.395,129.717 162.564 C 122.566 166.082,116.566 168.960,116.384 168.960 C 116.202 168.960,116.053 168.419,116.053 167.757 C 116.053 163.945,113.101 159.244,109.495 157.315 L 107.733 156.373 76.587 156.280 C 51.308 156.204,45.138 156.295,43.839 156.763 M106.900 165.396 L 107.947 166.525 107.947 187.985 L 107.947 209.446 106.917 210.643 L 105.888 211.840 76.733 211.955 C 55.333 212.040,47.261 211.939,46.383 211.575 C 43.944 210.565,43.947 210.594,43.947 187.787 L 43.947 166.892 45.051 165.579 L 46.156 164.267 76.005 164.267 L 105.854 164.267 106.900 165.396 M139.764 208.965 C 139.659 209.070,134.286 206.400,127.824 203.031 L 116.075 196.907 116.065 187.520 L 116.054 178.133 127.894 172.356 L 139.733 166.578 139.844 187.676 C 139.905 199.280,139.869 208.860,139.764 208.965 " stroke="none" fill-rule="evenodd"></path></svg>