<svg fill="currentColor" viewBox="0 0 256 256" xmlns="http://www.w3.org/2000/svg"><path d="M52.477 28.559 C 48.947 29.633,45.611 32.949,44.585 36.406 C 44.027 38.283,43.947 49.859,43.947 128.000 C 43.947 206.525,44.025 217.710,44.591 219.614 C 45.445 222.489,48.349 225.704,51.294 227.035 L 53.547 228.053 128.000 228.053 L 202.453 228.053 204.706 227.035 C 207.686 225.689,210.573 222.475,211.420 219.562 C 211.981 217.631,212.048 209.111,211.951 151.768 L 211.840 86.181 182.820 57.171 L 153.800 28.160 103.673 28.197 C 76.104 28.217,53.065 28.380,52.477 28.559 M148.053 62.748 C 148.053 80.902,148.198 89.500,148.514 90.091 C 149.602 92.123,150.132 92.160,177.906 92.160 L 203.947 92.160 203.947 154.682 C 203.947 223.700,204.150 218.706,201.295 219.701 C 199.443 220.347,56.557 220.347,54.705 219.701 C 51.827 218.698,52.053 226.532,52.053 127.864 L 52.053 38.525 53.100 37.396 L 54.146 36.267 101.100 36.267 L 148.053 36.267 148.053 62.748 M178.985 64.747 L 198.125 84.053 177.143 84.053 L 156.160 84.053 156.160 62.832 L 156.160 41.611 158.003 43.526 C 159.016 44.579,168.458 54.128,178.985 64.747 M125.184 117.286 C 122.355 119.383,100.772 141.369,100.292 142.643 C 99.669 144.296,100.118 145.719,101.676 147.030 C 104.224 149.174,104.892 148.753,115.078 138.576 L 124.160 129.501 124.160 157.570 L 124.160 185.639 125.190 186.669 C 125.756 187.235,126.713 187.822,127.315 187.973 C 128.898 188.371,131.081 186.970,131.709 185.152 C 132.082 184.075,132.225 176.465,132.243 156.804 L 132.267 129.928 141.136 138.789 C 151.089 148.734,151.783 149.168,154.324 147.030 C 155.882 145.719,156.331 144.296,155.708 142.643 C 155.228 141.369,133.645 119.383,130.816 117.286 C 129.901 116.608,128.634 116.053,128.000 116.053 C 127.366 116.053,126.099 116.608,125.184 117.286 " stroke="none" fill-rule="evenodd"></path></svg>