<svg fill="currentColor" viewBox="0 0 256 256" xmlns="http://www.w3.org/2000/svg"><path d="M52.477 28.559 C 50.324 29.214,48.698 30.310,46.974 32.269 C 43.754 35.926,43.923 32.705,44.048 88.271 L 44.160 137.887 45.357 138.917 C 46.940 140.279,49.060 140.279,50.643 138.917 L 51.840 137.887 51.952 88.200 L 52.064 38.513 53.105 37.390 L 54.146 36.267 101.100 36.267 L 148.053 36.267 148.053 62.748 C 148.053 80.902,148.198 89.500,148.514 90.091 C 149.602 92.123,150.132 92.160,177.906 92.160 L 203.947 92.160 203.947 154.682 C 203.947 223.700,204.150 218.706,201.295 219.701 C 200.571 219.954,197.791 220.160,195.117 220.160 C 190.523 220.160,190.197 220.218,189.207 221.207 C 188.437 221.978,188.160 222.716,188.160 224.000 C 188.160 227.564,190.803 228.613,198.511 228.108 C 203.856 227.758,206.281 226.771,208.868 223.893 C 212.306 220.070,212.075 225.468,211.951 151.768 L 211.840 86.181 182.820 57.171 L 153.800 28.160 103.673 28.197 C 76.104 28.217,53.065 28.380,52.477 28.559 M178.985 64.747 L 198.125 84.053 177.143 84.053 L 156.160 84.053 156.160 62.832 L 156.160 41.611 158.003 43.526 C 159.016 44.579,168.458 54.128,178.985 64.747 M102.064 148.626 C 101.527 148.924,95.555 157.467,88.793 167.610 C 79.664 181.305,76.387 185.912,76.064 185.506 C 75.824 185.206,72.799 180.550,69.341 175.159 C 65.882 169.769,62.738 165.119,62.353 164.826 C 61.152 163.912,58.295 164.138,57.283 165.227 C 56.497 166.071,25.192 214.479,21.481 220.587 C 19.717 223.490,19.677 224.845,21.298 226.660 L 22.543 228.053 86.951 228.167 C 138.006 228.257,151.697 228.168,152.991 227.740 C 155.030 227.065,156.336 225.064,155.892 223.295 C 155.488 221.686,107.433 149.620,106.178 148.740 C 105.011 147.923,103.410 147.878,102.064 148.626 M124.267 189.562 C 135.237 206.042,144.213 219.669,144.213 219.843 C 144.213 220.017,118.869 220.160,87.893 220.160 C 56.917 220.160,31.573 220.041,31.573 219.895 C 31.573 219.713,56.124 181.252,59.920 175.487 C 59.951 175.440,62.927 179.997,66.533 185.614 C 70.140 191.230,73.461 196.161,73.913 196.570 C 74.992 197.547,77.758 197.544,78.840 196.565 C 79.295 196.153,85.101 187.661,91.742 177.694 C 98.382 167.728,103.929 159.579,104.068 159.585 C 104.206 159.592,113.296 173.081,124.267 189.562 " stroke="none" fill-rule="evenodd"></path></svg>