<svg fill="currentColor" viewBox="0 0 256 256" xmlns="http://www.w3.org/2000/svg"><path d="M52.477 28.559 C 50.326 29.213,48.699 30.309,46.980 32.261 C 43.823 35.848,43.947 34.085,43.947 75.619 C 43.947 115.869,43.863 114.442,46.281 115.544 C 47.686 116.184,48.314 116.184,49.719 115.544 C 52.137 114.442,52.053 115.870,52.053 75.603 L 52.053 38.525 53.100 37.396 L 54.146 36.267 101.100 36.267 L 148.053 36.267 148.053 62.748 C 148.053 80.902,148.198 89.500,148.514 90.091 C 149.602 92.123,150.132 92.160,177.906 92.160 L 203.947 92.160 203.947 102.421 C 203.947 113.570,204.123 114.560,206.281 115.544 C 207.738 116.207,208.425 116.186,209.881 115.433 C 211.989 114.343,212.100 113.482,211.965 99.278 L 211.840 86.180 182.820 57.170 L 153.800 28.160 103.673 28.197 C 76.104 28.217,53.065 28.380,52.477 28.559 M178.985 64.747 L 198.125 84.053 177.143 84.053 L 156.160 84.053 156.160 62.832 L 156.160 41.611 158.003 43.526 C 159.016 44.579,168.458 54.128,178.985 64.747 M53.301 149.301 C 51.968 150.633,51.662 152.498,52.514 154.091 C 53.513 155.956,55.082 156.160,68.437 156.160 L 81.008 156.160 66.531 181.492 C 56.149 199.657,52.053 207.195,52.053 208.135 C 52.053 208.905,52.478 209.939,53.083 210.643 L 54.112 211.840 71.621 211.960 L 89.129 212.081 90.517 210.841 C 92.463 209.102,92.469 206.903,90.532 205.173 L 89.160 203.947 76.153 203.947 C 69.000 203.947,63.147 203.873,63.147 203.784 C 63.147 203.694,69.502 192.510,77.269 178.931 C 85.036 165.351,91.570 153.780,91.788 153.219 C 92.375 151.711,91.489 149.449,90.012 148.686 C 88.991 148.158,85.963 148.053,71.668 148.053 L 54.548 148.053 53.301 149.301 M125.473 149.158 L 124.160 150.263 124.160 180.053 L 124.160 209.844 125.473 210.949 C 128.155 213.206,131.483 211.585,132.040 207.749 C 132.191 206.714,132.255 193.419,132.184 178.205 L 132.053 150.543 130.660 149.298 C 128.905 147.730,127.224 147.685,125.473 149.158 M165.424 149.074 C 164.818 149.635,164.206 150.739,164.063 151.527 C 163.921 152.315,163.860 165.696,163.929 181.262 L 164.053 209.564 165.499 210.855 C 166.719 211.945,167.184 212.108,168.485 211.901 C 169.390 211.757,170.423 211.199,170.987 210.551 C 171.892 209.508,171.947 209.076,171.947 202.920 L 171.947 196.394 179.733 196.143 C 191.218 195.773,195.272 194.369,200.794 188.847 C 205.693 183.949,207.915 178.582,207.873 171.755 C 207.804 160.712,200.236 151.264,189.417 148.714 C 187.369 148.231,184.096 148.064,176.596 148.060 C 166.563 148.053,166.520 148.057,165.424 149.074 M190.822 157.576 C 197.263 160.738,200.906 167.746,199.666 174.586 C 198.740 179.689,195.929 183.681,191.688 185.917 C 188.255 187.726,185.671 188.160,178.326 188.160 L 171.947 188.160 171.947 172.127 L 171.947 156.095 180.160 156.234 C 188.170 156.370,188.434 156.403,190.822 157.576 " stroke="none" fill-rule="evenodd"></path></svg>