<svg fill="currentColor" viewBox="0 0 256 256" xmlns="http://www.w3.org/2000/svg"><path d="M52.477 28.559 C 50.326 29.213,48.699 30.309,46.980 32.261 C 43.823 35.848,43.947 34.085,43.947 75.619 C 43.947 115.869,43.863 114.442,46.281 115.544 C 47.686 116.184,48.314 116.184,49.719 115.544 C 52.137 114.442,52.053 115.870,52.053 75.603 L 52.053 38.525 53.100 37.396 L 54.146 36.267 101.100 36.267 L 148.053 36.267 148.053 62.748 C 148.053 80.902,148.198 89.500,148.514 90.091 C 149.602 92.123,150.132 92.160,177.906 92.160 L 203.947 92.160 203.947 102.421 C 203.947 113.570,204.123 114.560,206.281 115.544 C 207.738 116.207,208.425 116.186,209.881 115.433 C 211.989 114.343,212.100 113.482,211.965 99.278 L 211.840 86.180 182.820 57.170 L 153.800 28.160 103.673 28.197 C 76.104 28.217,53.065 28.380,52.477 28.559 M177.493 62.933 L 198.610 84.053 177.385 84.053 L 156.160 84.053 156.160 62.933 C 156.160 51.317,156.209 41.813,156.268 41.813 C 156.328 41.813,165.879 51.317,177.493 62.933 M58.453 148.696 C 48.267 151.179,40.057 159.859,37.066 171.307 C 35.825 176.056,35.818 184.052,37.050 188.671 C 40.032 199.840,46.972 207.551,57.173 211.028 C 58.904 211.618,60.696 211.822,64.000 211.807 C 69.724 211.780,74.011 210.466,78.326 207.414 C 83.950 203.436,85.179 201.083,82.991 198.483 C 82.053 197.368,81.533 197.120,80.136 197.120 C 78.693 197.120,77.990 197.484,75.593 199.474 C 63.084 209.857,46.538 201.178,44.262 183.040 C 42.956 172.631,48.171 161.950,56.580 157.813 C 59.342 156.453,59.755 156.374,63.993 156.377 C 69.295 156.382,71.408 157.163,75.910 160.785 C 77.958 162.433,78.999 162.987,80.046 162.987 C 81.960 162.987,83.588 161.489,83.917 159.427 C 84.169 157.845,84.080 157.695,81.346 155.079 C 75.343 149.336,66.241 146.798,58.453 148.696 M121.813 148.292 C 121.344 148.400,119.904 148.702,118.613 148.962 C 112.940 150.108,107.814 154.037,105.470 159.039 C 104.461 161.192,104.320 162.018,104.320 165.760 C 104.320 170.828,104.920 172.384,108.063 175.462 C 110.818 178.160,114.667 179.925,124.131 182.827 C 133.014 185.552,136.238 187.011,138.129 189.166 C 139.657 190.906,140.138 192.661,139.763 195.133 C 139.145 199.212,136.257 202.116,131.644 203.296 C 128.440 204.116,122.023 204.112,117.547 203.289 C 110.495 201.991,110.693 201.988,109.249 203.432 C 107.801 204.880,107.597 206.299,108.567 208.174 C 109.758 210.478,115.929 211.821,125.227 211.799 C 130.994 211.785,131.967 211.671,135.069 210.645 C 139.306 209.242,142.727 206.853,144.771 203.867 C 147.121 200.434,147.743 198.339,147.784 193.707 C 147.817 190.102,147.689 189.384,146.636 187.220 C 144.141 182.098,139.034 179.017,126.933 175.333 C 114.588 171.575,112.213 170.022,112.213 165.710 C 112.213 163.269,113.169 160.810,114.633 159.487 C 115.075 159.087,116.583 158.231,117.985 157.585 C 120.236 156.548,121.156 156.391,125.867 156.241 C 129.537 156.125,132.431 156.285,135.147 156.756 C 140.299 157.649,140.968 157.623,142.284 156.480 C 143.951 155.031,144.151 152.819,142.764 151.170 C 141.813 150.040,141.126 149.751,137.921 149.132 C 134.346 148.442,123.598 147.881,121.813 148.292 M185.813 148.292 C 185.344 148.400,183.904 148.702,182.613 148.962 C 176.940 150.108,171.814 154.037,169.470 159.039 C 168.461 161.192,168.320 162.018,168.320 165.760 C 168.320 170.828,168.920 172.384,172.063 175.462 C 174.818 178.160,178.667 179.925,188.131 182.827 C 197.014 185.552,200.238 187.011,202.129 189.166 C 203.657 190.906,204.138 192.661,203.763 195.133 C 203.145 199.212,200.257 202.116,195.644 203.296 C 192.440 204.116,186.023 204.112,181.547 203.289 C 174.495 201.991,174.693 201.988,173.249 203.432 C 171.801 204.880,171.597 206.299,172.567 208.174 C 173.758 210.478,179.929 211.821,189.227 211.799 C 194.994 211.785,195.967 211.671,199.069 210.645 C 203.306 209.242,206.727 206.853,208.771 203.867 C 211.121 200.434,211.743 198.339,211.784 193.707 C 211.817 190.102,211.689 189.384,210.636 187.220 C 208.141 182.098,203.034 179.017,190.933 175.333 C 178.588 171.575,176.213 170.022,176.213 165.710 C 176.213 163.269,177.169 160.810,178.633 159.487 C 179.075 159.087,180.583 158.231,181.985 157.585 C 184.236 156.548,185.156 156.391,189.867 156.241 C 193.537 156.125,196.431 156.285,199.147 156.756 C 204.299 157.649,204.968 157.623,206.284 156.480 C 207.951 155.031,208.151 152.819,206.764 151.170 C 205.813 150.040,205.126 149.751,201.921 149.132 C 198.346 148.442,187.598 147.881,185.813 148.292 " stroke="none" fill-rule="evenodd"></path></svg>