<svg fill="currentColor" viewBox="0 0 256 256" xmlns="http://www.w3.org/2000/svg"><path d="M52.477 28.559 C 50.326 29.213,48.699 30.309,46.980 32.261 C 43.823 35.848,43.947 34.085,43.947 75.619 C 43.947 115.869,43.863 114.442,46.281 115.544 C 47.686 116.184,48.314 116.184,49.719 115.544 C 52.137 114.442,52.053 115.870,52.053 75.603 L 52.053 38.525 53.100 37.396 L 54.146 36.267 101.100 36.267 L 148.053 36.267 148.053 62.748 C 148.053 80.902,148.198 89.500,148.514 90.091 C 149.602 92.123,150.132 92.160,177.906 92.160 L 203.947 92.160 203.947 102.421 C 203.947 113.570,204.123 114.560,206.281 115.544 C 207.738 116.207,208.425 116.186,209.881 115.433 C 211.989 114.343,212.100 113.482,211.965 99.278 L 211.840 86.180 182.820 57.170 L 153.800 28.160 103.673 28.197 C 76.104 28.217,53.065 28.380,52.477 28.559 M178.985 64.747 L 198.125 84.053 177.143 84.053 L 156.160 84.053 156.160 62.832 L 156.160 41.611 158.003 43.526 C 159.016 44.579,168.458 54.128,178.985 64.747 M41.390 149.264 L 40.107 150.548 40.107 179.997 L 40.107 209.446 41.067 210.551 C 41.630 211.199,42.663 211.757,43.568 211.901 C 44.869 212.108,45.335 211.945,46.555 210.855 L 48.000 209.565 48.144 202.980 L 48.287 196.396 56.037 196.148 C 65.475 195.847,68.900 194.966,73.677 191.611 C 89.786 180.298,86.326 156.180,67.598 149.239 C 65.280 148.379,64.123 148.287,53.870 148.140 L 42.674 147.980 41.390 149.264 M105.354 149.301 L 104.107 150.548 104.107 179.997 L 104.107 209.446 105.067 210.551 C 105.630 211.199,106.663 211.757,107.568 211.901 C 108.869 212.108,109.335 211.945,110.555 210.855 L 112.000 209.564 112.213 187.335 L 112.427 165.107 128.579 187.732 C 137.463 200.175,145.239 210.756,145.859 211.244 C 147.327 212.399,149.597 212.089,150.933 210.551 L 151.893 209.446 151.893 179.997 L 151.893 150.548 150.646 149.301 C 149.901 148.555,148.948 148.053,148.278 148.053 C 146.847 148.053,144.851 149.080,144.372 150.064 C 144.167 150.484,143.904 160.743,143.787 172.863 L 143.573 194.899 127.162 171.930 C 117.643 158.607,110.332 148.770,109.755 148.507 C 108.060 147.734,106.669 147.985,105.354 149.301 M195.200 148.489 C 189.965 149.540,185.036 152.429,180.907 156.866 C 177.493 160.534,175.628 163.620,174.049 168.209 C 172.405 172.988,171.787 177.337,172.094 181.973 C 173.562 204.174,193.054 217.899,210.972 209.348 C 214.716 207.562,218.787 204.273,219.568 202.405 C 220.304 200.642,220.412 184.744,219.701 182.705 C 218.904 180.419,217.827 180.053,211.879 180.053 C 206.969 180.053,206.468 180.128,205.449 181.013 C 204.801 181.577,204.243 182.610,204.099 183.515 C 203.893 184.812,204.055 185.281,205.124 186.478 C 206.275 187.765,206.661 187.916,209.224 188.079 L 212.053 188.259 212.053 193.735 L 212.053 199.210 210.649 200.281 C 208.014 202.291,204.405 203.646,201.130 203.856 C 191.559 204.471,183.061 196.952,180.693 185.776 C 178.266 174.319,183.492 162.120,192.694 157.762 C 195.424 156.469,195.936 156.373,200.107 156.373 C 204.430 156.373,204.699 156.429,207.790 157.973 C 211.632 159.892,213.217 160.000,214.768 158.448 C 216.322 156.895,216.317 154.567,214.757 153.007 C 211.156 149.406,201.614 147.202,195.200 148.489 M67.082 157.776 C 70.355 159.388,72.793 161.907,74.556 165.495 C 75.591 167.604,75.733 168.384,75.733 171.956 C 75.733 175.683,75.618 176.252,74.336 178.856 C 72.586 182.411,69.223 185.593,65.812 186.921 C 63.695 187.745,62.327 187.901,55.787 188.065 L 48.213 188.255 48.213 172.174 L 48.213 156.094 56.225 156.233 L 64.236 156.373 67.082 157.776 " stroke="none" fill-rule="evenodd"></path></svg>