<svg fill="currentColor" viewBox="0 0 256 256" xmlns="http://www.w3.org/2000/svg"><path d="M52.477 28.559 C 50.326 29.213,48.699 30.309,46.980 32.261 C 43.823 35.848,43.947 34.085,43.947 75.619 C 43.947 115.869,43.863 114.442,46.281 115.544 C 47.686 116.184,48.314 116.184,49.719 115.544 C 52.137 114.442,52.053 115.870,52.053 75.603 L 52.053 38.525 53.100 37.396 L 54.146 36.267 101.100 36.267 L 148.053 36.267 148.053 62.748 C 148.053 80.902,148.198 89.500,148.514 90.091 C 149.602 92.123,150.132 92.160,177.906 92.160 L 203.947 92.160 203.947 102.421 C 203.947 113.570,204.123 114.560,206.281 115.544 C 207.738 116.207,208.425 116.186,209.881 115.433 C 211.989 114.343,212.100 113.482,211.965 99.278 L 211.840 86.180 182.820 57.170 L 153.800 28.160 103.673 28.197 C 76.104 28.217,53.065 28.380,52.477 28.559 M178.985 64.747 L 198.125 84.053 177.143 84.053 L 156.160 84.053 156.160 62.832 L 156.160 41.611 158.003 43.526 C 159.016 44.579,168.458 54.128,178.985 64.747 M37.675 148.809 C 35.613 150.430,35.493 153.150,37.403 154.946 C 38.436 155.918,38.714 155.950,47.180 156.078 L 55.893 156.209 55.893 182.446 C 55.893 211.190,55.838 210.543,58.405 211.607 C 59.973 212.256,61.942 211.869,62.996 210.705 C 63.746 209.876,63.793 208.436,63.903 183.020 L 64.019 156.209 72.792 156.078 L 81.565 155.947 82.856 154.501 C 83.945 153.282,84.108 152.816,83.901 151.515 C 83.757 150.610,83.199 149.577,82.551 149.013 L 81.446 148.053 60.030 148.063 C 40.393 148.072,38.535 148.134,37.675 148.809 M116.586 148.527 C 110.804 149.490,106.215 152.045,103.400 155.870 C 100.050 160.420,99.097 166.865,101.100 171.426 C 103.202 176.212,108.001 179.113,119.680 182.660 C 133.715 186.921,136.651 189.191,135.834 195.150 C 135.244 199.453,132.108 202.342,126.806 203.467 C 123.671 204.132,117.353 204.041,113.280 203.273 C 106.549 202.002,106.845 201.996,105.407 203.434 C 103.780 205.061,103.645 207.206,105.067 208.846 C 106.561 210.569,112.882 211.762,120.747 211.806 C 129.570 211.855,133.994 210.508,138.478 206.410 C 143.718 201.621,145.508 192.763,142.449 186.767 C 140.005 181.977,134.753 178.922,122.478 175.150 C 113.780 172.476,111.342 171.401,109.440 169.398 C 108.386 168.288,108.162 167.698,108.172 166.052 C 108.179 164.953,108.328 163.520,108.503 162.869 C 109.040 160.874,111.632 158.415,114.273 157.396 C 117.635 156.099,125.013 155.813,130.931 156.750 C 137.029 157.716,137.539 157.676,138.842 156.127 C 141.189 153.338,139.543 150.264,135.226 149.377 C 128.978 148.093,121.291 147.742,116.586 148.527 M165.675 148.809 C 164.502 149.732,163.733 151.721,164.090 152.910 C 164.239 153.407,168.571 159.700,173.717 166.896 L 183.074 179.978 173.831 192.903 C 168.747 200.012,164.404 206.355,164.180 206.998 C 163.676 208.443,164.401 210.109,166.072 211.346 C 167.045 212.066,167.502 212.142,168.845 211.811 C 170.521 211.397,170.684 211.186,185.851 189.911 L 188.021 186.866 196.603 198.955 C 206.189 212.458,206.796 213.029,209.881 211.433 C 211.272 210.714,212.259 208.666,211.902 207.242 C 211.765 206.698,207.437 200.346,202.283 193.126 L 192.911 180.000 202.025 167.255 C 207.038 160.246,211.362 154.094,211.635 153.584 C 212.351 152.246,211.784 149.946,210.487 148.925 C 209.288 147.982,207.364 147.793,206.062 148.490 C 205.613 148.730,201.477 154.203,196.870 160.653 C 192.264 167.103,188.334 172.479,188.138 172.600 C 187.942 172.721,184.003 167.530,179.385 161.064 C 174.766 154.598,170.585 149.026,170.092 148.681 C 168.895 147.842,166.830 147.902,165.675 148.809 " stroke="none" fill-rule="evenodd"></path></svg>