<svg fill="currentColor" viewBox="0 0 256 256" xmlns="http://www.w3.org/2000/svg"><path d="M52.477 28.559 C 50.326 29.213,48.699 30.309,46.980 32.261 C 43.823 35.848,43.947 34.085,43.947 75.619 C 43.947 115.869,43.863 114.442,46.281 115.544 C 47.686 116.184,48.314 116.184,49.719 115.544 C 52.137 114.442,52.053 115.870,52.053 75.603 L 52.053 38.525 53.100 37.396 L 54.146 36.267 101.100 36.267 L 148.053 36.267 148.053 62.748 C 148.053 80.902,148.198 89.500,148.514 90.091 C 149.602 92.123,150.132 92.160,177.906 92.160 L 203.947 92.160 203.947 102.421 C 203.947 113.570,204.123 114.560,206.281 115.544 C 207.738 116.207,208.425 116.186,209.881 115.433 C 211.989 114.343,212.100 113.482,211.965 99.278 L 211.840 86.180 182.820 57.170 L 153.800 28.160 103.673 28.197 C 76.104 28.217,53.065 28.380,52.477 28.559 M177.493 62.933 L 198.610 84.053 177.385 84.053 L 156.160 84.053 156.160 62.933 C 156.160 51.317,156.209 41.813,156.268 41.813 C 156.328 41.813,165.879 51.317,177.493 62.933 M59.842 148.691 C 51.901 150.131,46.405 154.860,44.542 161.856 C 42.232 170.530,46.766 177.003,57.813 180.807 C 59.221 181.291,63.467 182.671,67.248 183.873 C 77.458 187.119,79.791 188.951,79.776 193.707 C 79.761 198.106,77.303 201.403,72.892 202.939 C 69.690 204.055,60.096 204.047,55.175 202.925 C 51.744 202.143,51.658 202.143,50.268 202.952 C 47.650 204.476,47.699 208.516,50.351 209.778 C 54.610 211.805,68.377 212.550,73.783 211.047 C 79.882 209.350,83.614 206.458,86.042 201.546 C 87.384 198.830,87.650 197.814,87.808 194.815 C 88.076 189.696,87.245 187.184,84.189 183.883 C 81.075 180.520,75.745 177.883,66.560 175.162 C 58.504 172.775,54.027 170.699,52.879 168.816 C 50.799 165.404,52.897 160.062,57.173 157.880 C 60.669 156.097,68.738 155.620,75.307 156.806 C 80.214 157.693,81.190 157.627,82.502 156.315 C 83.850 154.966,84.030 152.482,82.880 151.072 C 80.926 148.676,67.551 147.293,59.842 148.691 M131.200 148.461 C 125.804 149.634,121.019 152.448,116.907 156.866 C 113.493 160.534,111.628 163.620,110.049 168.209 C 108.405 172.988,107.787 177.337,108.094 181.973 C 109.552 204.025,128.915 217.813,146.722 209.480 C 148.264 208.759,150.173 207.674,150.964 207.071 L 152.404 205.973 155.350 208.897 C 158.031 211.557,158.455 211.821,160.047 211.821 C 162.274 211.821,163.840 210.215,163.840 207.931 C 163.840 206.633,163.413 205.975,160.865 203.348 L 157.890 200.280 160.025 196.033 C 163.169 189.775,163.992 185.965,163.745 178.795 C 163.571 173.726,163.378 172.514,162.178 168.960 C 158.897 159.241,152.261 152.195,143.644 149.282 C 140.706 148.289,134.021 147.848,131.200 148.461 M189.473 149.158 L 188.160 150.263 188.160 180.053 L 188.160 209.844 189.473 210.949 L 190.785 212.053 205.793 212.047 C 217.033 212.042,221.068 211.905,221.867 211.501 C 224.430 210.205,224.604 206.269,222.164 204.781 C 220.896 204.008,219.940 203.950,208.549 203.948 L 196.297 203.947 196.175 177.245 L 196.053 150.543 194.660 149.298 C 192.905 147.730,191.224 147.685,189.473 149.158 M140.829 156.838 C 147.344 158.743,153.046 165.221,155.079 173.027 C 155.944 176.348,155.935 183.632,155.062 187.001 C 154.510 189.133,152.710 193.379,152.055 194.098 C 151.965 194.196,150.473 192.900,148.738 191.218 C 145.920 188.485,145.409 188.161,143.939 188.174 C 142.145 188.188,141.209 188.720,140.443 190.159 C 139.364 192.184,139.805 193.233,143.209 196.730 C 146.961 200.586,146.959 200.612,142.823 202.469 C 131.884 207.378,119.608 199.535,116.693 185.776 C 114.012 173.122,120.496 160.152,131.200 156.758 C 133.593 155.999,138.089 156.036,140.829 156.838 " stroke="none" fill-rule="evenodd"></path></svg>