<svg fill="currentColor" viewBox="0 0 256 256" xmlns="http://www.w3.org/2000/svg"><path d="M52.477 28.559 C 50.326 29.213,48.699 30.309,46.980 32.261 C 43.787 35.889,43.947 33.169,43.947 83.885 L 43.947 129.215 45.051 130.527 C 46.588 132.353,49.018 132.381,50.806 130.593 L 52.053 129.346 52.053 83.935 L 52.053 38.525 53.100 37.396 L 54.146 36.267 101.100 36.267 L 148.053 36.267 148.053 62.748 C 148.053 80.902,148.198 89.500,148.514 90.091 C 149.602 92.123,150.132 92.160,177.906 92.160 L 203.947 92.160 203.947 154.682 C 203.947 223.700,204.150 218.706,201.295 219.701 C 200.470 219.989,195.215 220.160,187.210 220.160 L 174.441 220.160 173.194 221.407 C 171.538 223.063,171.538 224.809,173.192 226.660 L 174.438 228.053 188.445 228.053 C 202.295 228.053,202.479 228.042,204.706 227.035 C 207.686 225.689,210.573 222.475,211.420 219.562 C 211.981 217.631,212.048 209.111,211.951 151.768 L 211.840 86.181 182.820 57.171 L 153.800 28.160 103.673 28.197 C 76.104 28.217,53.065 28.380,52.477 28.559 M178.985 64.747 L 198.125 84.053 177.143 84.053 L 156.160 84.053 156.160 62.832 L 156.160 41.611 158.003 43.526 C 159.016 44.579,168.458 54.128,178.985 64.747 M103.546 132.322 C 86.519 133.658,70.273 145.384,63.919 160.924 L 62.552 164.267 59.116 164.274 C 47.694 164.299,36.829 171.112,31.571 181.547 C 28.907 186.834,28.019 191.062,28.264 197.301 C 28.614 206.222,31.194 212.100,37.547 218.453 C 43.585 224.492,49.279 227.075,58.385 227.907 C 61.420 228.184,72.672 228.272,88.470 228.142 C 115.279 227.920,115.579 227.899,122.667 225.691 C 135.873 221.577,147.625 210.587,152.516 197.777 C 156.912 186.263,157.185 175.756,153.383 164.429 C 147.596 147.188,130.618 133.655,113.280 132.462 C 111.403 132.332,109.387 132.174,108.800 132.110 C 108.213 132.046,105.849 132.141,103.546 132.322 M113.004 140.391 C 134.531 143.090,150.046 162.675,147.697 184.187 C 146.700 193.315,142.959 201.234,136.533 207.816 C 130.892 213.595,125.036 216.949,117.024 218.992 C 113.330 219.934,112.897 219.947,84.480 219.947 L 55.680 219.947 52.907 218.955 C 47.508 217.023,43.655 214.231,40.729 210.130 C 37.443 205.526,36.213 201.629,36.232 195.879 C 36.254 189.234,38.381 183.958,42.880 179.385 C 46.933 175.265,52.049 172.762,57.635 172.163 L 60.441 171.863 60.407 174.927 C 60.377 177.660,60.483 178.081,61.387 178.815 C 62.817 179.975,64.235 180.236,65.735 179.615 C 67.398 178.926,68.022 177.628,68.668 173.515 C 70.426 162.324,77.537 151.654,86.951 146.083 C 95.540 141.000,103.681 139.222,113.004 140.391 " stroke="none" fill-rule="evenodd"></path></svg>