<svg fill="currentColor" viewBox="0 0 256 256" xmlns="http://www.w3.org/2000/svg"><path d="M52.477 28.559 C 50.326 29.213,48.699 30.309,46.980 32.261 C 43.823 35.848,43.947 34.085,43.947 75.619 C 43.947 115.869,43.863 114.442,46.281 115.544 C 47.686 116.184,48.314 116.184,49.719 115.544 C 52.137 114.442,52.053 115.870,52.053 75.603 L 52.053 38.525 53.100 37.396 L 54.146 36.267 101.100 36.267 L 148.053 36.267 148.053 62.748 C 148.053 80.902,148.198 89.500,148.514 90.091 C 149.602 92.123,150.132 92.160,177.906 92.160 L 203.947 92.160 203.947 154.682 C 203.947 223.700,204.150 218.706,201.295 219.701 C 200.470 219.989,195.215 220.160,187.210 220.160 L 174.441 220.160 173.194 221.407 C 171.538 223.063,171.538 224.809,173.192 226.660 L 174.438 228.053 188.445 228.053 C 202.295 228.053,202.479 228.042,204.706 227.035 C 207.686 225.689,210.573 222.475,211.420 219.562 C 211.981 217.631,212.048 209.111,211.951 151.768 L 211.840 86.181 182.820 57.171 L 153.800 28.160 103.673 28.197 C 76.104 28.217,53.065 28.380,52.477 28.559 M178.985 64.747 L 198.125 84.053 177.143 84.053 L 156.160 84.053 156.160 62.832 L 156.160 41.611 158.003 43.526 C 159.016 44.579,168.458 54.128,178.985 64.747 M69.396 149.100 C 68.775 149.675,68.226 150.203,68.177 150.273 C 68.128 150.343,67.984 160.192,67.857 172.160 L 67.627 193.920 66.582 196.042 C 65.249 198.752,62.664 201.334,59.947 202.668 C 58.164 203.544,57.182 203.717,53.973 203.721 C 50.608 203.725,49.858 203.581,47.908 202.556 C 43.649 200.319,40.702 196.197,40.261 191.860 C 39.946 188.762,39.322 187.364,37.934 186.647 C 36.082 185.689,34.639 185.882,33.247 187.274 C 32.210 188.311,32.000 188.871,32.000 190.598 C 32.000 200.004,39.536 209.140,49.169 211.411 C 60.762 214.144,73.041 206.319,75.475 194.646 C 75.782 193.173,75.947 185.090,75.947 171.466 L 75.947 150.548 74.699 149.301 C 73.088 147.690,71.002 147.611,69.396 149.100 M116.775 148.468 C 106.216 150.399,100.226 156.616,100.110 165.760 C 100.054 170.150,101.193 172.873,104.225 175.599 C 107.154 178.232,111.084 180.011,120.107 182.785 C 128.919 185.495,132.716 187.272,134.538 189.540 C 135.654 190.929,135.815 191.463,135.793 193.725 C 135.743 199.057,132.466 202.446,126.296 203.549 C 122.673 204.197,115.290 203.875,111.013 202.883 C 108.439 202.286,107.669 202.252,106.619 202.686 C 105.367 203.205,104.107 204.994,104.107 206.252 C 104.107 207.477,105.133 209.134,106.248 209.711 C 110.165 211.737,124.289 212.537,129.707 211.041 C 139.590 208.311,145.188 200.309,143.727 190.999 C 142.566 183.600,137.479 179.742,123.093 175.348 C 114.645 172.767,111.182 171.277,109.531 169.511 C 106.175 165.925,108.671 159.552,114.273 157.400 C 117.794 156.048,124.420 155.826,131.470 156.824 C 136.944 157.599,136.970 157.599,138.136 156.731 C 140.421 155.030,140.469 152.204,138.240 150.548 C 137.653 150.112,135.733 149.468,133.973 149.116 C 130.107 148.343,119.618 147.947,116.775 148.468 " stroke="none" fill-rule="evenodd"></path></svg>