<svg fill="currentColor" viewBox="0 0 256 256" xmlns="http://www.w3.org/2000/svg"><path d="M37.333 44.345 C 33.767 45.223,30.543 47.891,29.047 51.200 C 28.184 53.107,28.179 53.615,28.174 128.000 L 28.168 202.880 29.169 205.030 C 30.463 207.808,33.610 210.585,36.406 211.415 C 38.283 211.973,49.859 212.053,128.000 212.053 C 206.525 212.053,217.710 211.975,219.614 211.409 C 222.489 210.555,225.704 207.651,227.035 204.706 L 228.053 202.453 228.053 128.213 C 228.053 56.417,228.027 53.904,227.246 51.881 C 226.207 49.187,223.976 46.737,221.254 45.300 L 219.093 44.160 128.853 44.095 C 79.221 44.059,38.037 44.171,37.333 44.345 M75.947 64.000 L 75.947 75.947 56.107 75.947 L 36.267 75.947 36.267 65.046 L 36.267 54.146 37.396 53.100 L 38.525 52.053 57.236 52.053 L 75.947 52.053 75.947 64.000 M124.160 64.000 L 124.160 75.947 104.107 75.947 L 84.053 75.947 84.053 64.000 L 84.053 52.053 104.107 52.053 L 124.160 52.053 124.160 64.000 M171.947 64.000 L 171.947 75.947 152.107 75.947 L 132.267 75.947 132.267 64.000 L 132.267 52.053 152.107 52.053 L 171.947 52.053 171.947 64.000 M218.247 52.737 C 218.821 53.113,219.485 54.121,219.723 54.977 C 219.961 55.833,220.156 60.901,220.158 66.240 L 220.160 75.947 200.107 75.947 L 180.053 75.947 180.053 64.000 L 180.053 52.053 198.628 52.053 C 214.950 52.053,217.330 52.136,218.247 52.737 M124.160 128.000 L 124.160 171.947 80.213 171.947 L 36.267 171.947 36.267 128.000 L 36.267 84.053 80.213 84.053 L 124.160 84.053 124.160 128.000 M220.160 128.000 L 220.160 171.947 176.213 171.947 L 132.267 171.947 132.267 128.000 L 132.267 84.053 176.213 84.053 L 220.160 84.053 220.160 128.000 M75.947 192.000 L 75.947 203.947 57.154 203.947 L 38.361 203.947 37.314 202.899 L 36.267 201.852 36.267 190.953 L 36.267 180.053 56.107 180.053 L 75.947 180.053 75.947 192.000 M124.160 192.000 L 124.160 203.947 104.107 203.947 L 84.053 203.947 84.053 192.000 L 84.053 180.053 104.107 180.053 L 124.160 180.053 124.160 192.000 M171.947 192.000 L 171.947 203.947 152.107 203.947 L 132.267 203.947 132.267 192.000 L 132.267 180.053 152.107 180.053 L 171.947 180.053 171.947 192.000 M220.158 189.760 C 220.156 195.123,219.958 200.177,219.714 201.054 C 218.886 204.035,219.528 203.947,198.732 203.947 L 180.053 203.947 180.053 192.000 L 180.053 180.053 200.107 180.053 L 220.160 180.053 220.158 189.760 " stroke="none" fill-rule="evenodd"></path></svg>