<svg fill="currentColor" viewBox="0 0 256 256" xmlns="http://www.w3.org/2000/svg"><path d="M40.960 36.925 C 30.861 39.724,23.426 47.320,20.891 57.431 C 20.042 60.817,20.027 61.843,20.152 106.924 C 20.280 152.839,20.283 152.971,21.237 157.182 C 24.831 173.053,32.563 186.119,44.087 195.794 C 53.341 203.564,63.465 208.402,75.624 210.867 L 80.427 211.840 128.000 211.840 L 175.573 211.840 180.376 210.867 C 208.347 205.197,228.694 185.032,234.777 156.949 L 235.733 152.533 235.733 105.600 L 235.733 58.667 234.565 55.220 C 231.798 47.060,225.587 40.746,217.276 37.645 C 213.915 36.390,205.996 35.848,202.375 36.625 C 191.909 38.869,183.583 46.789,180.917 57.034 L 180.160 59.947 128.040 60.055 C 86.543 60.141,75.893 60.054,75.781 59.628 C 73.287 50.129,69.194 44.094,62.576 40.159 C 57.856 37.353,55.007 36.576,48.853 36.418 C 44.821 36.314,42.666 36.453,40.960 36.925 M52.382 44.590 C 59.565 46.284,65.422 51.847,67.182 58.650 C 67.544 60.048,67.841 61.968,67.842 62.916 C 67.844 65.347,69.124 67.256,71.124 67.811 C 73.386 68.440,182.614 68.440,184.876 67.811 C 186.966 67.231,188.156 65.361,188.158 62.651 C 188.159 61.558,188.524 59.494,188.968 58.065 C 191.208 50.869,197.345 45.625,205.067 44.309 C 214.669 42.673,224.782 49.264,227.199 58.734 C 227.792 61.060,227.853 66.622,227.731 107.161 L 227.593 152.960 226.478 157.440 C 223.717 168.536,218.945 177.261,211.259 185.269 C 204.204 192.619,196.676 197.497,187.520 200.651 C 178.112 203.892,181.177 203.733,128.000 203.733 C 74.817 203.733,77.876 203.892,68.480 200.648 C 59.739 197.630,52.539 193.112,45.817 186.427 C 37.616 178.271,32.394 168.982,29.522 157.440 L 28.407 152.960 28.259 107.093 C 28.094 55.761,27.958 58.306,31.128 53.428 C 35.890 46.099,44.173 42.655,52.382 44.590 M79.278 101.136 C 65.895 104.426,55.527 115.285,52.728 128.942 C 51.844 133.250,51.803 146.242,52.658 150.711 C 55.306 164.552,65.440 175.194,79.643 179.048 C 82.399 179.796,85.076 179.840,128.000 179.840 C 170.098 179.840,173.644 179.785,176.213 179.087 C 183.230 177.181,188.293 174.334,193.084 169.600 C 198.668 164.083,201.934 158.068,203.342 150.711 C 204.197 146.241,204.156 133.249,203.272 128.942 C 200.455 115.206,190.020 104.350,176.523 101.114 C 173.140 100.303,171.382 100.274,127.787 100.301 C 84.919 100.327,82.389 100.371,79.278 101.136 M176.000 109.160 C 183.362 111.613,189.544 116.798,192.753 123.209 C 195.479 128.654,195.962 131.618,195.745 141.554 C 195.600 148.204,195.401 150.422,194.800 152.107 C 191.220 162.138,184.324 168.637,174.629 171.117 C 171.518 171.912,169.579 171.947,128.000 171.947 C 86.421 171.947,84.482 171.912,81.371 171.117 C 71.079 168.484,62.879 160.172,60.773 150.236 C 59.814 145.709,59.948 133.230,61.001 129.113 C 63.751 118.361,72.943 109.993,83.792 108.365 C 84.992 108.185,105.557 108.066,129.493 108.101 L 173.013 108.165 176.000 109.160 M88.049 133.085 C 83.745 135.710,82.772 141.467,86.025 145.067 C 89.828 149.277,95.997 148.776,98.777 144.032 C 99.934 142.058,100.184 139.207,99.386 137.094 C 98.830 135.623,97.035 133.677,95.488 132.869 C 93.780 131.977,89.671 132.096,88.049 133.085 M160.213 133.065 C 156.202 135.556,154.949 140.151,157.223 144.032 C 160.003 148.776,166.172 149.277,169.975 145.067 C 173.228 141.467,172.255 135.710,167.951 133.085 C 166.135 131.978,161.980 131.967,160.213 133.065 " stroke="none" fill-rule="evenodd"></path></svg>