<svg fill="currentColor" viewBox="0 0 256 256" xmlns="http://www.w3.org/2000/svg"><path d="M135.741 21.227 C 134.723 22.196,132.454 28.061,122.660 55.040 C 116.143 72.992,110.694 87.898,110.552 88.165 C 110.295 88.647,108.083 86.597,89.652 68.800 C 81.159 60.599,80.621 60.161,79.072 60.174 C 78.174 60.181,77.129 60.424,76.748 60.714 C 75.589 61.596,68.917 70.971,65.271 76.841 C 38.631 119.722,37.000 162.563,60.795 194.347 C 63.923 198.526,70.366 205.259,74.667 208.844 C 86.118 218.390,100.874 224.902,116.173 227.161 C 122.140 228.042,133.309 228.048,139.583 227.172 C 172.804 222.539,200.495 198.091,209.058 165.834 C 211.290 157.427,211.786 153.395,211.795 143.573 C 211.803 134.599,211.547 131.927,209.857 123.337 C 204.119 94.162,185.592 63.544,156.526 35.200 C 149.682 28.526,141.682 21.398,140.081 20.548 C 138.560 19.740,137.055 19.976,135.741 21.227 M153.387 43.322 C 192.142 82.190,209.659 124.009,202.226 159.921 C 198.307 178.857,186.625 196.080,170.293 207.001 C 156.012 216.551,138.452 221.230,122.347 219.779 C 103.600 218.089,87.335 210.618,74.429 197.767 C 59.155 182.558,51.229 162.015,52.203 140.160 C 53.174 118.370,60.881 97.326,76.068 74.991 L 79.474 69.982 90.096 80.324 C 108.585 98.326,110.282 99.840,111.972 99.840 C 114.934 99.840,114.694 100.377,127.768 64.492 C 134.466 46.106,139.947 30.967,139.947 30.848 C 139.947 30.345,146.652 36.568,153.387 43.322 " stroke="none" fill-rule="evenodd"></path></svg>