<svg fill="currentColor" viewBox="0 0 256 256" xmlns="http://www.w3.org/2000/svg"><path d="M158.720 16.213 C 135.796 27.733,134.958 28.114,132.480 28.144 C 122.984 28.260,109.658 31.918,100.267 36.988 C 80.334 47.748,66.901 65.615,61.519 88.528 L 60.415 93.227 60.276 151.526 L 60.137 209.825 61.461 210.939 C 63.874 212.970,66.941 211.904,67.823 208.727 C 68.091 207.762,68.263 200.293,68.264 189.547 L 68.267 171.947 80.213 171.947 L 92.160 171.947 92.164 203.413 L 92.168 234.880 93.169 237.030 C 94.463 239.808,97.610 242.585,100.406 243.415 C 102.234 243.958,107.578 244.053,136.168 244.053 C 169.423 244.053,169.807 244.044,172.211 243.144 C 175.399 241.952,177.955 239.390,179.153 236.187 L 180.071 233.734 179.956 165.614 L 179.840 97.493 178.666 93.227 C 175.436 81.486,168.193 71.938,157.970 65.947 C 153.266 63.190,148.023 61.412,141.547 60.377 L 139.947 60.121 139.947 48.834 C 139.947 42.626,140.072 37.547,140.225 37.547 C 140.378 37.547,157.489 42.640,178.250 48.866 C 202.798 56.226,216.315 60.088,216.905 59.908 C 218.157 59.528,219.330 58.436,219.795 57.219 C 220.364 55.729,219.483 53.446,218.053 52.707 C 217.403 52.371,201.435 47.471,182.569 41.819 C 163.703 36.167,147.979 31.436,147.627 31.305 C 147.256 31.168,155.390 26.860,166.919 21.087 C 184.294 12.386,186.940 10.935,187.541 9.774 C 188.349 8.211,188.082 6.628,186.774 5.227 C 184.838 3.153,184.252 3.383,158.720 16.213 M131.840 48.194 L 131.840 60.121 130.240 60.387 C 123.993 61.422,118.920 63.184,114.026 66.019 C 104.119 71.758,97.090 80.806,93.556 92.373 L 92.382 96.213 92.164 130.133 L 91.947 164.053 80.088 164.167 L 68.230 164.280 68.381 128.967 C 68.530 94.326,68.550 93.580,69.469 89.813 C 72.852 75.941,78.600 65.524,88.074 56.102 C 95.455 48.761,103.206 43.726,112.327 40.350 C 118.313 38.134,125.728 36.465,130.240 36.319 L 131.840 36.267 131.840 48.194 M144.640 69.140 C 154.855 71.584,163.348 78.457,168.148 88.164 C 171.977 95.906,171.935 95.416,171.941 132.373 L 171.947 164.267 136.107 164.267 L 100.267 164.267 100.267 131.482 C 100.267 100.011,100.301 98.561,101.127 95.322 C 104.384 82.539,114.383 72.482,127.147 69.149 C 131.676 67.967,139.717 67.963,144.640 69.140 M171.947 202.699 L 171.947 233.452 170.699 234.699 L 169.452 235.947 135.907 235.947 L 102.361 235.947 101.314 234.899 L 100.267 233.852 100.267 202.899 L 100.267 171.947 136.107 171.947 L 171.947 171.947 171.947 202.699 " stroke="none" fill-rule="evenodd"></path></svg>