<svg fill="currentColor" viewBox="0 0 256 256" xmlns="http://www.w3.org/2000/svg"><path d="M69.333 28.808 C 61.400 30.258,53.329 33.624,45.944 38.561 C 41.094 41.804,36.730 45.502,36.243 46.782 C 35.985 47.460,35.874 79.300,35.944 132.685 C 36.052 216.832,36.060 217.518,36.907 218.458 C 38.170 219.860,39.564 220.265,41.233 219.713 C 44.062 218.780,43.947 219.891,43.947 193.608 L 43.947 169.805 47.680 167.026 C 52.605 163.361,61.316 159.055,66.773 157.589 C 70.637 156.552,71.766 156.442,78.720 156.424 C 85.677 156.407,86.882 156.518,91.520 157.603 C 100.883 159.795,107.732 162.585,127.787 172.378 C 146.065 181.304,155.479 184.927,165.688 186.966 C 171.981 188.222,182.308 188.302,187.722 187.137 C 192.548 186.098,199.166 183.767,203.093 181.724 C 209.600 178.339,218.854 171.512,219.694 169.478 C 220.041 168.637,220.141 151.638,220.059 107.448 L 219.947 46.575 218.946 45.510 C 216.859 43.289,215.205 43.610,210.862 47.078 C 206.417 50.628,202.941 52.829,198.242 55.067 C 185.105 61.325,172.901 61.636,156.373 56.137 C 149.851 53.966,143.094 50.980,125.653 42.563 C 108.134 34.108,101.411 31.515,91.520 29.400 C 85.913 28.202,74.343 27.893,69.333 28.808 M91.733 37.697 C 100.701 39.818,107.968 42.755,125.692 51.420 C 149.468 63.044,159.392 66.586,171.753 67.860 C 184.629 69.188,198.309 65.622,209.501 58.022 L 212.053 56.288 212.053 111.267 L 212.053 166.246 209.126 168.429 C 202.295 173.525,196.091 176.565,188.254 178.655 C 184.620 179.625,183.262 179.763,177.280 179.769 C 163.934 179.784,155.930 177.177,128.445 163.861 C 113.081 156.417,109.021 154.621,102.660 152.453 C 92.677 149.049,84.862 147.799,75.989 148.184 C 65.482 148.640,56.012 151.812,46.850 157.947 C 45.514 158.841,44.314 159.573,44.183 159.573 C 44.053 159.573,43.947 134.913,43.947 104.772 L 43.947 49.970 46.400 48.101 C 54.451 41.968,61.842 38.526,70.500 36.877 C 75.380 35.947,86.087 36.361,91.733 37.697 " stroke="none" fill-rule="evenodd"></path></svg>