<svg fill="currentColor" viewBox="0 0 256 256" xmlns="http://www.w3.org/2000/svg"><path d="M68.691 20.449 C 65.398 21.460,62.644 23.908,61.150 27.153 L 60.141 29.346 60.257 55.100 C 60.364 78.815,60.433 80.972,61.133 82.347 C 61.551 83.168,66.879 90.528,72.973 98.702 L 84.053 113.564 84.053 169.833 C 84.053 224.967,84.070 226.147,84.903 228.371 C 85.981 231.253,88.728 233.991,91.658 235.104 C 93.799 235.918,95.054 235.947,128.000 235.947 C 160.946 235.947,162.201 235.918,164.342 235.104 C 167.272 233.991,170.019 231.253,171.097 228.371 C 171.930 226.147,171.947 224.967,171.947 169.824 L 171.947 113.547 180.766 101.680 C 185.617 95.153,190.785 88.198,192.251 86.223 C 193.716 84.248,195.171 81.752,195.484 80.676 C 195.929 79.146,196.053 73.374,196.053 54.187 L 196.053 29.653 194.947 27.307 C 193.691 24.644,191.721 22.537,189.227 21.189 L 187.520 20.267 128.640 20.194 C 96.256 20.153,69.279 20.268,68.691 20.449 M186.342 28.813 C 187.943 29.934,188.155 31.993,188.158 46.400 L 188.160 60.160 128.213 60.160 L 68.267 60.160 68.267 45.207 L 68.267 30.255 69.314 29.207 L 70.361 28.160 127.886 28.160 C 178.821 28.160,185.517 28.235,186.342 28.813 M188.085 73.493 L 187.922 78.720 176.895 93.440 C 170.831 101.536,165.460 109.024,164.961 110.080 L 164.053 112.000 163.840 169.001 C 163.663 216.163,163.527 226.123,163.047 226.701 C 162.728 227.085,161.768 227.593,160.914 227.830 C 158.797 228.418,97.203 228.418,95.086 227.830 C 94.232 227.593,93.272 227.085,92.953 226.701 C 92.473 226.123,92.337 216.163,92.160 169.001 C 91.962 116.030,91.894 111.884,91.204 110.359 C 90.796 109.456,85.468 102.019,79.364 93.832 L 68.267 78.947 68.267 73.607 L 68.267 68.267 128.257 68.267 L 188.248 68.267 188.085 73.493 M125.473 117.158 L 124.160 118.263 124.160 135.951 L 124.160 153.639 125.190 154.669 C 126.682 156.160,128.144 156.403,129.805 155.436 C 132.228 154.024,132.327 153.168,132.183 134.901 L 132.053 118.542 130.660 117.298 C 128.905 115.730,127.223 115.685,125.473 117.158 " stroke="none" fill-rule="evenodd"></path></svg>