<svg fill="currentColor" viewBox="0 0 256 256" xmlns="http://www.w3.org/2000/svg"><path d="M85.158 29.473 C 83.685 31.223,83.730 32.905,85.297 34.659 L 86.542 36.051 93.191 36.205 L 99.840 36.358 99.840 67.272 L 99.840 98.186 68.840 149.883 C 51.790 178.316,37.453 202.448,36.979 203.510 C 34.382 209.333,37.605 216.760,43.758 219.134 C 45.806 219.923,48.242 219.947,128.000 219.947 C 207.758 219.947,210.194 219.923,212.242 219.134 C 218.421 216.750,221.630 209.359,219.020 203.520 C 218.548 202.464,204.212 178.329,187.161 149.887 L 156.160 98.175 156.160 67.266 L 156.160 36.358 162.809 36.205 L 169.458 36.051 170.703 34.659 C 172.270 32.905,172.315 31.223,170.842 29.473 L 169.737 28.160 128.000 28.160 L 86.263 28.160 85.158 29.473 M148.053 68.304 L 148.053 100.341 168.787 134.894 C 180.191 153.899,189.455 169.503,189.374 169.571 C 189.089 169.810,183.222 171.091,180.480 171.513 C 176.461 172.132,167.729 172.029,162.616 171.302 C 152.117 169.810,140.852 166.028,128.672 159.906 C 113.982 152.522,100.095 148.725,85.479 148.099 L 79.438 147.840 93.675 124.160 L 107.912 100.480 107.929 68.373 L 107.947 36.267 128.000 36.267 L 148.053 36.267 148.053 68.304 M92.171 156.609 C 103.066 157.963,111.823 160.784,125.867 167.464 C 151.345 179.584,170.045 182.674,188.974 177.894 C 191.665 177.214,193.898 176.702,193.937 176.756 C 195.619 179.101,212.053 207.280,212.053 207.817 C 212.053 209.193,211.070 210.819,209.858 211.445 C 208.070 212.370,47.908 212.359,46.119 211.433 C 44.731 210.716,43.738 208.662,44.101 207.262 C 44.240 206.729,51.038 195.157,59.209 181.547 L 74.065 156.800 75.753 156.541 C 78.636 156.097,88.378 156.138,92.171 156.609 " stroke="none" fill-rule="evenodd"></path></svg>