<svg fill="currentColor" viewBox="0 0 256 256" xmlns="http://www.w3.org/2000/svg"><path d="M86.187 37.153 C 84.730 37.811,78.733 43.544,61.317 60.930 C 42.500 79.714,38.159 84.263,37.210 86.187 L 36.053 88.533 36.053 149.547 L 36.053 210.560 37.062 212.790 C 38.303 215.535,40.964 218.056,43.758 219.134 C 45.806 219.923,48.242 219.947,128.000 219.947 C 207.758 219.947,210.194 219.923,212.242 219.134 C 215.036 218.056,217.697 215.535,218.938 212.790 L 219.947 210.560 219.947 128.213 C 219.947 48.465,219.921 45.801,219.140 43.774 C 218.073 41.009,215.748 38.497,213.120 37.271 L 210.987 36.275 149.547 36.280 C 88.701 36.285,88.088 36.294,86.187 37.153 M171.947 62.696 L 171.947 81.446 170.917 82.643 L 169.887 83.840 128.000 84.053 L 86.113 84.267 85.083 85.464 C 82.978 87.912,84.274 91.347,87.526 91.937 C 88.315 92.080,107.392 92.141,129.920 92.072 L 170.880 91.947 172.881 90.952 C 173.981 90.405,175.743 89.036,176.795 87.911 C 180.011 84.474,180.053 84.143,180.053 62.643 L 180.053 43.947 194.368 43.947 C 209.897 43.947,210.518 44.031,211.544 46.281 C 212.283 47.904,212.283 208.096,211.544 209.719 C 210.412 212.203,215.761 212.053,128.000 212.053 C 39.822 212.053,45.500 212.219,44.428 209.620 C 44.061 208.733,43.964 193.180,44.047 149.015 L 44.160 89.603 66.560 67.167 C 78.880 54.827,89.344 44.567,89.813 44.366 C 90.283 44.165,108.955 43.989,131.307 43.974 L 171.947 43.947 171.947 62.696 M121.173 116.667 C 107.703 119.523,97.618 128.683,93.432 141.867 C 91.985 146.426,91.762 155.098,92.964 160.129 C 96.128 173.374,105.920 183.356,119.253 186.927 C 121.881 187.631,123.895 187.842,128.000 187.842 C 132.105 187.842,134.119 187.631,136.747 186.927 C 150.074 183.358,159.877 173.354,163.045 160.089 C 164.237 155.099,164.010 146.408,162.568 141.867 C 158.658 129.554,149.094 120.317,136.960 117.137 C 133.219 116.156,124.770 115.905,121.173 116.667 M135.016 125.007 C 139.941 126.267,143.878 128.535,147.685 132.304 C 150.363 134.957,151.302 136.268,152.881 139.558 C 155.196 144.381,155.733 146.772,155.733 152.243 C 155.733 160.751,152.380 167.905,145.734 173.577 C 141.460 177.225,133.715 180.053,128.000 180.053 C 122.285 180.053,114.540 177.225,110.266 173.577 C 103.620 167.905,100.267 160.751,100.267 152.243 C 100.267 146.772,100.804 144.381,103.119 139.558 C 108.735 127.855,122.177 121.723,135.016 125.007 " stroke="none" fill-rule="evenodd"></path></svg>