<svg fill="currentColor" viewBox="0 0 256 256" xmlns="http://www.w3.org/2000/svg"><path d="M104.533 36.267 L 44.160 36.480 42.424 37.409 C 40.089 38.659,37.842 41.231,36.860 43.774 C 36.079 45.801,36.053 48.465,36.053 128.213 L 36.053 210.560 37.062 212.790 C 38.303 215.535,40.964 218.056,43.758 219.134 C 45.806 219.923,48.242 219.947,128.000 219.947 C 207.758 219.947,210.194 219.923,212.242 219.134 C 215.036 218.056,217.697 215.535,218.938 212.790 L 219.947 210.560 219.947 149.547 L 219.947 88.533 218.790 86.187 C 217.840 84.261,213.517 79.736,194.683 60.954 C 182.061 48.366,171.091 37.744,170.306 37.348 C 169.520 36.953,167.984 36.499,166.892 36.341 C 165.800 36.183,137.739 36.149,104.533 36.267 M189.120 66.880 L 211.840 89.601 211.953 149.014 C 212.036 193.180,211.939 208.733,211.572 209.620 C 210.603 211.969,210.004 212.053,194.376 212.053 L 180.069 212.053 179.955 180.556 L 179.840 149.059 178.556 146.548 C 177.040 143.584,174.585 141.537,171.424 140.598 C 168.122 139.617,87.878 139.617,84.576 140.598 C 81.415 141.537,78.960 143.584,77.444 146.548 L 76.160 149.059 76.045 180.556 L 75.931 212.053 61.624 212.053 C 46.104 212.053,45.482 211.969,44.456 209.719 C 43.668 207.989,43.752 47.552,44.542 46.127 C 45.798 43.861,42.648 43.965,106.773 44.066 L 166.399 44.160 189.120 66.880 M93.207 69.314 C 91.626 70.896,91.745 73.389,93.473 74.842 L 94.785 75.947 124.007 75.947 C 144.124 75.947,153.498 75.803,154.091 75.486 C 155.201 74.891,156.279 72.312,155.916 71.115 C 155.762 70.605,155.240 69.755,154.757 69.227 L 153.878 68.267 124.066 68.267 L 94.255 68.267 93.207 69.314 M170.699 149.301 L 171.947 150.548 171.947 181.301 L 171.947 212.053 128.000 212.053 L 84.053 212.053 84.053 181.301 L 84.053 150.548 85.301 149.301 L 86.548 148.053 128.000 148.053 L 169.452 148.053 170.699 149.301 " stroke="none" fill-rule="evenodd"></path></svg>