<svg fill="currentColor" viewBox="0 0 256 256" xmlns="http://www.w3.org/2000/svg"><path d="M36.691 52.446 C 33.419 53.459,30.663 55.894,29.166 59.093 L 28.168 61.227 28.168 132.053 L 28.168 202.880 29.169 205.030 C 30.479 207.842,33.624 210.602,36.459 211.426 C 38.371 211.981,50.033 212.047,129.296 211.951 L 219.947 211.840 221.673 210.916 C 224.079 209.627,226.827 206.506,227.493 204.305 C 227.944 202.815,228.053 191.070,228.053 144.213 C 228.053 88.110,228.024 85.897,227.246 83.881 C 226.207 81.187,223.976 78.737,221.254 77.300 L 219.093 76.160 174.184 76.044 L 129.274 75.928 114.802 65.082 C 106.842 59.117,99.500 53.793,98.485 53.251 L 96.640 52.267 67.200 52.191 C 51.008 52.149,37.279 52.264,36.691 52.446 M109.914 71.446 C 121.740 80.302,125.461 82.873,127.209 83.392 C 129.156 83.971,134.943 84.053,173.455 84.053 L 217.475 84.053 218.570 85.068 C 219.285 85.730,219.758 86.731,219.932 87.948 C 220.078 88.974,220.142 115.126,220.073 146.064 L 219.947 202.315 218.939 203.131 C 217.955 203.928,215.911 203.947,128.147 203.947 L 38.361 203.947 37.314 202.899 L 36.267 201.852 36.267 132.053 L 36.267 62.255 37.314 61.207 L 38.361 60.160 66.604 60.160 L 94.846 60.160 109.914 71.446 M101.468 141.173 C 100.385 142.141,100.096 142.735,100.096 144.000 C 100.096 145.265,100.385 145.859,101.468 146.827 L 102.840 148.053 128.000 148.053 L 153.160 148.053 154.532 146.827 C 155.615 145.859,155.904 145.265,155.904 144.000 C 155.904 142.735,155.615 142.141,154.532 141.173 L 153.160 139.947 128.000 139.947 L 102.840 139.947 101.468 141.173 " stroke="none" fill-rule="evenodd"></path></svg>