<svg fill="currentColor" viewBox="0 0 256 256" xmlns="http://www.w3.org/2000/svg"><path d="M37.333 44.340 C 33.752 45.236,30.542 47.894,29.047 51.200 C 28.184 53.107,28.179 53.613,28.174 128.213 L 28.168 203.307 29.173 205.464 C 29.727 206.655,31.007 208.331,32.030 209.207 C 35.494 212.171,33.517 212.054,79.757 212.052 C 120.268 212.050,121.423 212.028,122.750 211.219 C 125.200 209.725,125.052 205.931,122.493 204.607 C 121.366 204.024,116.337 203.947,79.675 203.947 C 38.459 203.947,38.127 203.940,37.200 203.077 L 36.267 202.207 36.267 143.130 L 36.267 84.053 126.735 84.053 C 227.486 84.053,218.835 83.781,219.723 86.977 C 219.980 87.904,220.156 95.225,220.158 105.086 L 220.160 121.639 221.190 122.669 C 222.682 124.160,224.144 124.403,225.805 123.436 C 228.249 122.012,228.340 121.210,228.189 102.400 C 228.056 85.858,228.035 85.507,227.071 83.413 C 225.829 80.714,223.945 78.742,221.227 77.295 L 219.093 76.160 174.293 76.044 L 129.493 75.929 114.347 60.828 C 104.294 50.805,98.626 45.463,97.493 44.943 C 95.897 44.210,93.946 44.155,67.200 44.090 C 51.477 44.051,38.037 44.164,37.333 44.340 M94.635 52.665 C 95.268 53.002,100.873 58.378,107.090 64.612 L 118.394 75.947 77.330 75.947 L 36.267 75.947 36.267 65.046 L 36.267 54.146 37.396 53.100 L 38.525 52.053 66.003 52.053 C 89.045 52.053,93.668 52.152,94.635 52.665 M181.373 125.184 C 180.844 125.747,177.645 132.599,174.264 140.411 C 170.884 148.222,167.971 154.750,167.792 154.918 C 167.613 155.086,160.016 155.794,150.910 156.492 C 135.228 157.694,134.300 157.812,133.332 158.721 C 131.886 160.080,131.590 161.858,132.551 163.406 C 132.981 164.098,138.517 168.919,144.853 174.119 C 151.189 179.319,156.719 183.900,157.141 184.299 C 157.877 184.996,157.751 185.652,154.042 200.471 C 151.698 209.838,150.277 216.316,150.431 216.931 C 150.829 218.515,152.578 219.904,154.175 219.904 C 155.232 219.904,159.022 217.879,169.468 211.731 C 177.105 207.235,183.531 203.501,183.747 203.432 C 183.962 203.363,190.468 207.034,198.203 211.589 C 212.940 220.269,213.808 220.639,216.031 219.182 C 218.090 217.833,217.971 216.778,213.877 200.224 L 210.079 184.869 222.204 174.888 C 228.872 169.398,234.692 164.449,235.137 163.889 C 236.279 162.454,236.186 160.200,234.934 158.948 C 233.688 157.702,233.865 157.726,215.253 156.329 C 207.040 155.713,200.209 155.087,200.074 154.938 C 199.938 154.789,197.081 148.235,193.724 140.373 C 189.945 131.526,187.226 125.714,186.586 125.120 C 185.147 123.783,182.661 123.814,181.373 125.184 M194.041 161.115 C 194.308 161.611,195.063 162.229,195.717 162.490 C 196.722 162.890,216.887 164.693,220.355 164.693 C 221.007 164.693,221.377 164.876,221.225 165.122 C 221.080 165.358,216.766 169.009,211.640 173.235 C 205.537 178.267,202.178 181.325,201.910 182.093 C 201.584 183.028,202.088 185.680,204.403 195.198 C 205.999 201.761,207.237 207.198,207.155 207.281 C 207.072 207.364,202.053 204.536,196.002 200.996 C 189.868 197.408,184.534 194.560,183.947 194.560 C 183.356 194.560,178.118 197.374,172.022 200.967 C 166.043 204.490,161.055 207.278,160.938 207.161 C 160.821 207.044,162.004 201.713,163.567 195.314 C 165.130 188.915,166.407 183.370,166.404 182.991 C 166.396 181.729,164.688 180.094,155.417 172.471 C 149.140 167.311,146.474 164.877,147.028 164.813 C 147.474 164.761,153.215 164.311,159.783 163.812 C 166.352 163.314,172.018 162.750,172.375 162.559 C 172.731 162.368,173.326 161.859,173.696 161.426 C 174.234 160.798,178.336 151.507,183.352 139.555 L 183.964 138.097 188.759 149.155 C 191.396 155.237,193.773 160.619,194.041 161.115 " stroke="none" fill-rule="evenodd"></path></svg>