<svg fill="currentColor" viewBox="0 0 256 256" xmlns="http://www.w3.org/2000/svg"><path d="M37.333 44.340 C 33.752 45.236,30.542 47.894,29.047 51.200 C 28.184 53.107,28.179 53.613,28.174 128.213 L 28.168 203.307 29.173 205.464 C 29.727 206.655,31.007 208.331,32.030 209.207 C 35.494 212.171,33.517 212.054,79.757 212.052 C 120.268 212.050,121.423 212.028,122.750 211.219 C 125.200 209.725,125.052 205.931,122.493 204.607 C 121.366 204.024,116.337 203.947,79.675 203.947 C 38.459 203.947,38.127 203.940,37.200 203.077 L 36.267 202.207 36.267 143.130 L 36.267 84.053 126.735 84.053 C 227.486 84.053,218.835 83.781,219.723 86.977 C 219.980 87.904,220.156 95.225,220.158 105.086 L 220.160 121.639 221.190 122.669 C 222.682 124.160,224.144 124.403,225.805 123.436 C 228.249 122.012,228.340 121.210,228.189 102.400 C 228.056 85.858,228.035 85.507,227.071 83.413 C 225.829 80.714,223.945 78.742,221.227 77.295 L 219.093 76.160 174.293 76.046 L 129.493 75.932 114.560 61.046 C 104.833 51.349,98.957 45.811,97.707 45.160 L 95.787 44.160 67.200 44.090 C 51.477 44.051,38.037 44.164,37.333 44.340 M94.635 52.665 C 95.268 53.002,100.873 58.378,107.090 64.612 L 118.394 75.947 77.330 75.947 L 36.267 75.947 36.267 65.046 L 36.267 54.146 37.396 53.100 L 38.525 52.053 66.003 52.053 C 89.045 52.053,93.668 52.152,94.635 52.665 M185.813 148.760 C 173.225 151.446,164.103 162.892,164.103 176.000 C 164.103 184.339,168.014 192.745,174.064 197.411 C 175.226 198.307,176.185 199.136,176.194 199.253 C 176.204 199.371,175.124 200.035,173.795 200.729 C 167.427 204.057,162.043 209.694,158.700 216.533 C 155.705 222.663,155.410 225.769,157.683 227.259 C 159.005 228.125,161.004 228.119,162.340 227.244 C 162.923 226.861,163.636 225.661,164.066 224.336 C 166.440 217.021,171.876 210.585,178.347 207.427 C 183.341 204.990,186.600 204.226,192.000 204.226 C 200.368 204.226,206.942 206.912,212.694 212.682 C 216.274 216.274,217.900 218.840,219.721 223.768 C 220.578 226.087,221.120 226.912,222.204 227.545 C 223.856 228.510,225.320 228.265,226.810 226.775 C 228.094 225.491,228.142 223.730,226.983 220.361 C 224.226 212.351,217.604 204.593,210.240 200.747 C 208.892 200.043,207.793 199.371,207.798 199.253 C 207.803 199.136,208.590 198.464,209.547 197.760 C 213.294 195.003,216.978 189.531,218.738 184.107 C 220.244 179.463,220.306 172.772,218.883 168.320 C 216.871 162.024,213.700 157.364,209.046 153.866 C 202.305 148.798,194.092 146.994,185.813 148.760 M197.935 156.968 C 207.236 159.863,213.351 169.716,211.673 179.105 C 209.901 189.023,201.887 195.840,192.000 195.840 C 182.107 195.840,173.912 188.833,172.279 178.980 C 170.730 169.635,176.760 159.918,185.925 156.989 C 189.250 155.926,194.556 155.917,197.935 156.968 " stroke="none" fill-rule="evenodd"></path></svg>