<svg fill="currentColor" viewBox="0 0 256 256" xmlns="http://www.w3.org/2000/svg"><path d="M36.691 52.446 C 33.419 53.459,30.663 55.894,29.166 59.093 C 28.207 61.144,28.168 61.626,28.164 71.535 L 28.160 81.844 29.473 82.949 C 31.874 84.970,34.943 83.896,35.823 80.727 C 36.064 79.858,36.263 75.346,36.264 70.701 C 36.267 62.304,36.273 62.248,37.314 61.207 L 38.361 60.160 66.604 60.160 L 94.847 60.160 110.795 72.107 C 128.291 85.212,128.223 85.176,130.593 82.806 C 131.918 81.481,132.232 79.610,131.392 78.041 C 130.860 77.046,101.207 54.703,98.508 53.263 L 96.640 52.267 67.200 52.191 C 51.008 52.149,37.279 52.264,36.691 52.446 M165.485 77.157 C 163.537 78.898,163.530 81.096,165.468 82.827 L 166.840 84.053 192.022 84.053 C 220.088 84.053,218.875 83.925,219.723 86.977 C 219.970 87.866,220.156 93.960,220.158 101.189 L 220.160 113.844 221.473 114.949 C 223.235 116.432,225.004 116.395,226.556 114.843 C 228.239 113.160,228.381 111.661,228.191 97.629 C 228.035 86.167,227.977 85.437,227.058 83.413 C 225.836 80.722,223.953 78.746,221.227 77.295 L 219.093 76.160 192.984 76.038 L 166.875 75.916 165.485 77.157 M29.473 117.158 L 28.160 118.263 28.160 135.951 L 28.160 153.639 29.190 154.669 C 30.682 156.160,32.144 156.403,33.805 155.436 C 36.228 154.024,36.327 153.168,36.183 134.901 L 36.053 118.542 34.660 117.298 C 32.905 115.730,31.223 115.685,29.473 117.158 M221.485 149.147 L 220.185 150.241 220.066 176.279 L 219.947 202.316 218.939 203.131 C 218.015 203.880,217.148 203.947,208.386 203.947 L 198.840 203.947 197.468 205.173 C 195.525 206.909,195.537 209.102,197.498 210.854 L 198.900 212.107 209.423 211.973 C 219.259 211.849,220.059 211.780,221.673 210.916 C 224.079 209.627,226.827 206.506,227.493 204.305 C 227.929 202.864,228.053 196.701,228.053 176.498 L 228.053 150.543 226.660 149.298 C 224.909 147.734,223.223 147.685,221.485 149.147 M29.207 189.207 C 28.186 190.228,28.160 190.418,28.164 196.781 C 28.168 202.734,28.257 203.496,29.173 205.464 C 29.727 206.655,31.007 208.331,32.030 209.207 C 35.374 212.069,35.203 212.053,63.644 212.053 L 89.160 212.053 90.532 210.827 C 92.462 209.103,92.462 206.897,90.532 205.173 L 89.160 203.947 63.647 203.947 C 33.158 203.947,36.268 204.688,36.264 197.423 C 36.261 190.013,35.385 188.160,31.886 188.160 C 30.723 188.160,29.954 188.461,29.207 189.207 M126.720 204.241 C 125.089 204.855,124.160 206.233,124.160 208.036 C 124.160 209.531,124.387 210.035,125.473 210.949 L 126.785 212.053 144.066 212.053 L 161.346 212.053 162.593 210.806 C 164.270 209.129,164.334 206.693,162.739 205.194 L 161.639 204.160 144.499 204.080 C 135.073 204.036,127.072 204.108,126.720 204.241 " stroke="none" fill-rule="evenodd"></path></svg>