<svg fill="currentColor" viewBox="0 0 256 256" xmlns="http://www.w3.org/2000/svg"><path d="M71.014 20.894 C 60.284 24.412,49.659 39.081,42.726 59.949 C 34.093 85.933,33.753 111.102,41.793 129.022 C 43.485 132.791,46.282 137.101,48.038 138.643 L 49.523 139.947 76.080 139.947 C 99.038 139.947,102.761 139.860,103.554 139.304 C 104.685 138.512,107.813 133.825,109.627 130.207 C 118.329 112.838,118.021 84.854,108.837 58.370 C 102.285 39.477,93.103 26.492,82.880 21.660 C 79.293 19.964,74.743 19.671,71.014 20.894 M80.331 29.286 C 83.515 30.900,87.959 35.384,91.264 40.321 C 105.033 60.885,111.462 94.825,105.820 117.165 C 104.575 122.094,101.918 128.366,100.023 130.851 L 98.943 132.267 75.920 132.267 L 52.896 132.267 51.328 129.815 C 44.506 119.151,42.339 100.289,45.681 80.675 C 49.082 60.716,57.752 41.259,67.098 32.605 C 71.933 28.129,76.023 27.103,80.331 29.286 M176.511 44.388 C 166.261 46.964,156.045 59.403,148.673 78.283 C 136.614 109.165,137.240 142.883,150.200 160.533 C 151.841 162.767,152.618 163.456,153.899 163.812 C 156.302 164.479,204.529 164.385,206.494 163.709 C 207.656 163.310,208.535 162.372,210.570 159.360 C 216.932 149.944,219.857 138.469,219.868 122.880 C 219.881 104.723,215.615 86.291,207.575 69.760 C 203.778 61.955,200.282 56.838,195.449 52.018 C 192.090 48.667,190.696 47.607,187.728 46.151 C 184.821 44.723,183.518 44.334,181.120 44.177 C 179.477 44.069,177.403 44.164,176.511 44.388 M185.067 53.579 C 193.639 58.573,203.265 75.576,208.018 94.121 C 214.016 117.523,212.977 139.365,205.221 152.921 L 203.368 156.160 180.084 156.159 L 156.800 156.158 155.672 154.346 C 152.447 149.165,150.384 143.530,149.075 136.320 C 148.125 131.092,147.984 115.825,148.829 109.867 C 152.034 87.294,160.831 66.211,171.023 56.676 C 176.182 51.851,180.474 50.904,185.067 53.579 M45.011 165.628 L 43.865 166.989 44.056 176.188 C 44.274 186.675,44.767 189.113,47.904 195.188 C 50.378 199.979,56.026 205.625,60.824 208.102 C 66.245 210.901,70.089 211.831,76.160 211.809 C 81.447 211.790,83.160 211.469,87.893 209.608 C 95.347 206.677,101.986 200.315,105.219 193.005 C 107.386 188.105,107.940 184.444,107.944 175.021 C 107.947 166.394,107.943 166.357,106.899 165.314 L 105.852 164.267 76.004 164.267 L 46.156 164.267 45.011 165.628 M99.840 177.617 C 99.840 186.627,98.058 191.615,93.013 196.720 C 89.638 200.136,86.487 201.980,82.109 203.100 C 71.245 205.878,60.010 200.986,54.910 191.256 C 52.805 187.242,52.070 183.606,52.061 177.173 L 52.053 171.947 75.947 171.947 L 99.840 171.947 99.840 177.617 M149.118 189.520 L 147.974 190.879 148.154 200.506 C 148.313 209.056,148.442 210.468,149.302 213.120 C 152.718 223.649,160.487 231.407,170.880 234.666 C 175.399 236.082,182.204 236.294,186.921 235.165 C 196.783 232.804,204.272 226.924,208.619 218.127 C 211.361 212.579,211.740 210.540,211.951 200.227 L 212.145 190.747 210.852 189.453 L 209.559 188.160 179.911 188.160 L 150.263 188.160 149.118 189.520 M203.940 201.493 C 203.930 210.437,201.886 215.959,196.697 221.064 C 192.058 225.627,186.675 227.826,180.115 227.835 C 173.265 227.845,168.060 225.685,163.187 220.813 C 157.868 215.494,156.177 210.891,156.166 201.707 L 156.160 196.267 180.053 196.267 L 203.947 196.267 203.940 201.493 " stroke="none" fill-rule="evenodd"></path></svg>