<svg fill="currentColor" viewBox="0 0 256 256" xmlns="http://www.w3.org/2000/svg"><path d="M46.720 36.435 C 46.016 36.740,45.187 37.294,44.878 37.666 C 44.562 38.047,42.461 49.464,40.070 63.792 C 35.903 88.767,35.833 89.307,36.269 92.823 C 38.738 112.688,53.371 128.042,73.067 131.432 L 75.947 131.928 75.947 178.571 L 75.947 225.215 77.051 226.527 C 78.588 228.353,81.018 228.381,82.806 226.593 L 84.053 225.346 84.053 178.637 L 84.053 131.928 86.933 131.432 C 106.778 128.016,121.434 112.493,123.764 92.423 C 124.213 88.552,124.196 88.417,120.127 64.000 C 117.879 50.507,115.824 38.931,115.561 38.277 C 114.323 35.195,109.563 35.510,108.322 38.755 C 108.050 39.465,109.122 46.800,112.063 64.355 L 116.184 88.960 115.705 92.800 C 113.931 107.015,104.265 118.435,90.240 122.888 C 85.649 124.345,77.015 124.558,71.893 123.339 C 57.016 119.800,45.692 106.913,44.454 92.113 C 44.179 88.824,44.481 86.559,48.183 64.213 C 50.758 48.666,52.103 39.472,51.912 38.725 C 51.393 36.698,48.777 35.544,46.720 36.435 M206.926 36.282 C 205.022 36.797,199.918 39.558,196.027 42.178 C 175.285 56.149,160.745 83.123,152.989 122.027 C 150.369 135.166,148.680 149.224,148.204 161.849 L 147.922 169.321 149.235 170.634 L 150.548 171.947 177.247 171.947 L 203.947 171.947 203.947 198.581 L 203.947 225.215 205.051 226.527 C 206.588 228.353,209.018 228.381,210.806 226.593 L 212.053 225.346 212.053 132.119 L 212.053 38.892 210.991 37.630 C 209.835 36.256,208.573 35.837,206.926 36.282 M77.051 37.579 L 75.947 38.892 75.947 64.026 L 75.947 89.160 77.173 90.532 C 78.897 92.462,81.103 92.462,82.827 90.532 L 84.053 89.160 84.053 64.026 L 84.053 38.892 82.949 37.579 C 82.029 36.486,81.535 36.267,80.000 36.267 C 78.465 36.267,77.971 36.486,77.051 37.579 M203.947 105.387 L 203.947 164.267 180.053 164.267 L 156.160 164.267 156.161 163.093 C 156.166 157.137,157.942 140.904,159.809 129.740 C 164.236 103.271,172.236 81.574,183.462 65.595 C 187.048 60.490,195.447 52.100,200.107 48.967 C 202.101 47.625,203.781 46.523,203.840 46.517 C 203.899 46.511,203.947 73.003,203.947 105.387 " stroke="none" fill-rule="evenodd"></path></svg>