<svg fill="currentColor" viewBox="0 0 256 256" xmlns="http://www.w3.org/2000/svg"><path d="M37.333 44.345 C 33.767 45.223,30.543 47.891,29.047 51.200 C 28.184 53.107,28.179 53.615,28.174 128.000 L 28.168 202.880 29.169 205.030 C 30.463 207.808,33.610 210.585,36.406 211.415 C 38.283 211.973,49.859 212.053,128.000 212.053 C 206.525 212.053,217.710 211.975,219.614 211.409 C 222.489 210.555,225.704 207.651,227.035 204.706 L 228.053 202.453 228.053 128.213 C 228.053 56.417,228.027 53.904,227.246 51.881 C 226.207 49.187,223.976 46.737,221.254 45.300 L 219.093 44.160 128.853 44.095 C 79.221 44.059,38.037 44.171,37.333 44.345 M218.247 52.737 C 218.821 53.113,219.485 54.121,219.723 54.977 C 220.328 57.154,220.319 198.876,219.714 201.054 C 218.837 204.214,227.331 203.947,127.886 203.947 L 38.361 203.947 37.314 202.899 L 36.267 201.852 36.267 127.999 L 36.267 54.146 37.396 53.100 L 38.525 52.053 127.864 52.053 C 209.105 52.053,217.298 52.115,218.247 52.737 M158.720 76.241 C 157.089 76.855,156.160 78.233,156.160 80.036 C 156.160 81.531,156.387 82.035,157.473 82.949 L 158.785 84.053 173.473 84.053 L 188.160 84.053 188.160 98.949 L 188.160 113.844 189.473 114.949 C 192.154 117.205,195.478 115.587,196.045 111.749 C 196.199 110.714,196.263 102.815,196.189 94.196 L 196.053 78.525 194.871 77.342 L 193.688 76.160 176.524 76.080 C 167.084 76.036,159.072 76.108,158.720 76.241 M62.720 140.232 C 62.368 140.370,61.648 140.875,61.120 141.355 L 60.160 142.229 60.160 160.036 L 60.160 177.844 61.473 178.949 L 62.785 180.053 80.066 180.053 L 97.346 180.053 98.593 178.806 C 100.270 177.129,100.334 174.693,98.739 173.194 L 97.639 172.160 82.978 172.037 L 68.317 171.915 68.185 157.220 L 68.053 142.525 66.987 141.459 C 65.896 140.370,63.865 139.785,62.720 140.232 " stroke="none" fill-rule="evenodd"></path></svg>