<svg fill="currentColor" viewBox="0 0 256 256" xmlns="http://www.w3.org/2000/svg"><path d="M123.504 28.961 C 121.185 30.014,33.449 88.487,31.643 90.183 C 30.859 90.918,29.803 92.288,29.296 93.227 L 28.373 94.933 28.160 145.493 L 27.947 196.053 21.042 196.170 L 14.138 196.288 13.000 197.640 C 11.581 199.326,11.766 201.524,13.449 202.987 L 14.554 203.947 128.000 203.947 L 241.446 203.947 242.551 202.987 C 243.192 202.429,243.757 201.390,243.897 200.510 C 244.093 199.277,243.923 198.738,242.991 197.630 L 241.844 196.267 235.069 196.267 L 228.294 196.267 228.173 146.240 L 228.053 96.213 227.070 94.080 C 226.530 92.907,225.570 91.395,224.937 90.720 C 223.581 89.275,135.019 30.107,132.496 28.961 C 130.193 27.915,125.807 27.915,123.504 28.961 M174.401 66.205 C 217.428 94.887,219.330 96.210,219.738 97.724 C 220.012 98.743,220.125 116.497,220.055 147.679 L 219.947 196.053 204.062 196.165 L 188.176 196.277 188.062 165.373 L 187.947 134.468 186.912 133.368 L 185.878 132.267 128.000 132.267 L 70.122 132.267 69.088 133.368 L 68.053 134.468 67.938 165.368 L 67.824 196.267 52.045 196.267 L 36.267 196.267 36.267 146.642 C 36.267 107.587,36.380 96.872,36.800 96.340 C 37.093 95.968,57.397 82.299,81.920 65.965 C 119.673 40.818,126.735 36.267,127.998 36.267 C 129.261 36.267,136.358 40.846,174.401 66.205 M124.060 152.000 L 123.947 164.053 100.053 164.053 L 76.160 164.053 76.047 152.000 L 75.933 139.947 100.053 139.947 L 124.173 139.947 124.060 152.000 M180.053 152.107 L 180.053 164.267 156.160 164.267 L 132.267 164.267 132.267 152.107 L 132.267 139.947 156.160 139.947 L 180.053 139.947 180.053 152.107 M124.060 184.000 L 123.947 196.053 100.053 196.053 L 76.160 196.053 76.047 184.000 L 75.933 171.947 100.053 171.947 L 124.173 171.947 124.060 184.000 M180.053 184.107 L 180.053 196.267 156.160 196.267 L 132.267 196.267 132.267 184.107 L 132.267 171.947 156.160 171.947 L 180.053 171.947 180.053 184.107 " stroke="none" fill-rule="evenodd"></path></svg>