<svg fill="currentColor" viewBox="0 0 256 256" xmlns="http://www.w3.org/2000/svg"><path d="M75.898 28.723 C 73.390 29.661,72.498 30.471,58.601 44.447 C 46.046 57.072,45.271 57.942,44.628 60.131 C 43.766 63.061,43.768 64.950,44.634 67.869 C 45.262 69.985,45.994 70.865,53.041 77.978 L 60.760 85.770 53.034 93.552 C 45.957 100.679,45.250 101.528,44.627 103.651 C 44.020 105.720,43.947 111.944,43.947 161.707 C 43.947 210.172,44.031 217.728,44.591 219.614 C 45.445 222.489,48.349 225.704,51.294 227.035 L 53.547 228.053 128.000 228.053 L 202.453 228.053 204.706 227.035 C 207.651 225.704,210.555 222.489,211.409 219.614 C 211.975 217.710,212.053 206.525,212.053 128.000 C 212.053 49.859,211.973 38.283,211.415 36.406 C 210.654 33.841,207.989 30.649,205.495 29.315 L 203.733 28.373 162.190 28.258 L 120.646 28.144 118.243 29.236 C 116.301 30.119,114.485 31.713,108.777 37.546 L 101.714 44.763 94.697 37.713 C 90.838 33.835,86.838 30.162,85.810 29.551 C 83.544 28.204,78.428 27.777,75.898 28.723 M89.029 43.200 L 96.022 50.133 81.066 65.067 L 66.109 80.000 59.325 73.153 C 52.458 66.224,51.690 65.103,52.248 62.827 C 52.436 62.060,56.930 57.255,65.216 48.960 L 77.897 36.267 79.966 36.267 L 82.036 36.267 89.029 43.200 M202.900 37.396 L 203.947 38.525 203.947 127.864 C 203.947 226.532,204.173 218.698,201.295 219.701 C 199.443 220.347,56.557 220.347,54.705 219.701 C 51.859 218.709,52.053 222.991,52.053 161.405 L 52.053 105.606 86.723 70.936 L 121.393 36.267 161.623 36.267 L 201.854 36.267 202.900 37.396 M133.331 61.190 C 132.765 61.756,132.178 62.713,132.027 63.315 C 131.629 64.898,133.030 67.081,134.848 67.709 C 136.763 68.372,174.383 68.474,176.727 67.823 C 179.995 66.915,181.052 63.653,178.806 61.407 L 177.559 60.160 155.960 60.160 L 134.361 60.160 133.331 61.190 M77.449 117.013 C 75.867 118.388,75.600 120.618,76.831 122.182 C 77.359 122.854,87.409 130.607,99.163 139.411 C 110.916 148.216,120.698 155.568,120.900 155.751 C 121.102 155.934,111.272 163.582,99.056 172.748 C 86.840 181.914,76.642 189.790,76.396 190.252 C 75.601 191.737,75.885 193.284,77.194 194.593 C 79.819 197.218,79.007 197.695,104.568 178.530 C 117.450 168.872,127.908 161.317,128.226 161.439 C 128.541 161.560,138.756 169.130,150.928 178.262 C 163.099 187.394,173.467 195.085,173.967 195.353 C 177.358 197.167,181.365 193.541,179.604 190.252 C 179.358 189.790,169.160 181.914,156.944 172.748 C 144.728 163.582,134.898 155.937,135.100 155.758 C 135.302 155.579,145.108 148.194,156.893 139.348 C 168.677 130.501,178.727 122.745,179.225 122.112 C 181.067 119.770,179.117 116.053,176.046 116.053 C 174.867 116.053,170.982 118.802,151.323 133.549 L 128.000 151.044 104.677 133.549 C 79.401 114.589,79.895 114.889,77.449 117.013 " stroke="none" fill-rule="evenodd"></path></svg>