<svg fill="currentColor" viewBox="0 0 256 256" xmlns="http://www.w3.org/2000/svg"><path d="M119.893 52.330 C 98.181 54.362,79.801 61.410,62.933 74.170 C 57.483 78.293,46.327 89.460,42.366 94.758 C 29.915 111.408,22.265 131.069,20.469 151.040 C 20.182 154.226,20.045 162.645,20.128 171.947 C 20.262 186.960,20.300 187.581,21.189 189.227 C 22.537 191.721,24.644 193.691,27.307 194.947 L 29.653 196.053 127.787 196.053 C 223.281 196.053,225.977 196.031,228.028 195.240 C 230.546 194.269,233.534 191.628,234.809 189.246 C 235.717 187.550,235.733 187.189,235.733 168.533 C 235.733 147.660,235.528 145.177,232.909 134.448 C 229.105 118.861,221.264 103.218,211.284 91.307 C 207.142 86.363,199.385 78.764,194.773 75.132 C 175.588 60.022,151.539 51.840,127.147 52.123 C 123.979 52.160,120.715 52.253,119.893 52.330 M124.160 74.899 L 124.160 89.639 125.190 90.669 C 126.681 92.160,128.144 92.403,129.805 91.436 C 132.081 90.112,132.216 89.139,132.243 73.920 L 132.267 60.160 133.440 60.164 C 135.645 60.170,142.289 61.018,146.832 61.873 C 172.829 66.766,196.063 82.128,210.915 104.246 C 217.500 114.053,221.768 123.564,224.844 135.289 L 226.066 139.947 212.453 139.947 L 198.840 139.947 197.468 141.173 C 195.538 142.897,195.538 145.103,197.468 146.827 L 198.840 148.053 213.065 148.053 L 227.290 148.053 227.562 150.933 C 227.712 152.517,227.835 160.923,227.837 169.612 C 227.840 186.816,227.860 186.668,225.404 187.679 C 224.524 188.041,209.570 188.140,168.057 188.058 L 111.900 187.947 138.755 151.040 C 174.932 101.323,171.947 105.583,171.947 103.666 C 171.947 100.740,168.434 98.847,166.073 100.501 C 165.554 100.864,150.894 120.736,133.494 144.661 L 101.858 188.160 66.609 188.158 C 32.320 188.157,31.323 188.134,29.985 187.318 C 29.228 186.857,28.489 186.000,28.342 185.413 C 27.954 183.868,28.309 149.221,28.719 148.587 C 28.983 148.178,32.342 148.053,43.112 148.053 L 57.160 148.053 58.532 146.827 C 60.462 145.103,60.462 142.897,58.532 141.173 L 57.160 139.947 43.727 139.947 C 36.338 139.947,30.294 139.803,30.294 139.627 C 30.296 138.469,33.189 128.877,34.765 124.798 C 44.094 100.660,61.653 81.446,84.693 70.164 C 96.456 64.404,111.073 60.520,122.133 60.216 L 124.160 60.160 124.160 74.899 " stroke="none" fill-rule="evenodd"></path></svg>