<svg fill="currentColor" viewBox="0 0 256 256" xmlns="http://www.w3.org/2000/svg"><path d="M85.301 21.301 C 83.985 22.616,83.660 24.495,84.484 26.034 C 84.721 26.476,92.804 31.574,102.447 37.361 C 116.757 45.951,119.873 47.982,119.403 48.417 C 119.086 48.711,111.339 53.415,102.187 58.871 C 93.035 64.327,85.211 69.175,84.800 69.643 C 83.598 71.014,83.839 73.238,85.354 74.753 C 86.460 75.859,86.891 76.021,88.234 75.838 C 89.521 75.662,105.014 66.676,123.840 55.185 C 124.016 55.078,124.160 65.177,124.160 77.628 L 124.160 100.267 122.709 100.267 C 119.818 100.267,111.133 102.014,106.773 103.473 C 82.286 111.667,65.009 132.026,60.795 157.653 C 59.864 163.315,59.967 173.290,61.019 179.448 C 65.219 204.013,82.962 224.728,106.453 232.493 C 114.332 235.097,118.378 235.699,128.000 235.699 C 135.493 235.699,137.389 235.560,141.227 234.731 C 159.749 230.726,175.021 220.356,184.987 205.013 C 192.214 193.888,195.840 181.536,195.840 168.039 C 195.840 160.997,195.440 157.612,193.860 151.290 C 191.820 143.126,188.421 135.777,183.361 128.589 C 180.308 124.253,172.574 116.324,168.635 113.493 C 158.853 106.462,148.826 102.369,137.503 100.786 L 132.267 100.053 132.267 77.760 C 132.267 65.499,132.349 55.467,132.449 55.467 C 132.549 55.467,140.307 60.075,149.689 65.707 C 162.393 73.332,167.094 75.947,168.100 75.947 C 171.072 75.947,173.104 71.814,171.200 69.643 C 170.789 69.175,162.965 64.327,153.813 58.871 C 144.661 53.415,136.914 48.711,136.597 48.417 C 136.127 47.982,139.243 45.951,153.553 37.361 C 163.196 31.574,171.279 26.476,171.516 26.034 C 172.822 23.595,170.850 20.053,168.187 20.053 C 167.289 20.053,161.329 23.406,147.705 31.573 C 137.136 37.909,128.269 43.093,128.000 43.093 C 127.731 43.093,118.864 37.909,108.295 31.573 C 94.671 23.406,88.711 20.053,87.813 20.053 C 86.983 20.053,86.118 20.483,85.301 21.301 M139.323 109.168 C 164.044 113.963,183.244 133.728,187.152 158.403 C 188.005 163.792,187.747 175.603,186.669 180.480 C 182.751 198.201,170.805 213.634,154.744 221.722 C 150.647 223.785,142.654 226.360,137.845 227.166 C 132.713 228.026,123.454 228.033,118.187 227.181 C 106.122 225.229,94.657 219.291,85.733 210.371 C 76.729 201.373,71.074 190.496,68.891 177.977 C 68.077 173.310,68.087 163.047,68.910 157.972 C 71.046 144.803,78.294 131.820,88.447 122.977 C 98.117 114.554,109.102 109.840,122.880 108.200 C 126.004 107.828,135.213 108.370,139.323 109.168 " stroke="none" fill-rule="evenodd"></path></svg>