<svg fill="currentColor" viewBox="0 0 256 256" xmlns="http://www.w3.org/2000/svg"><path d="M165.243 37.227 C 164.760 37.755,164.238 38.605,164.084 39.115 C 163.721 40.312,164.799 42.891,165.909 43.486 C 166.491 43.797,173.192 43.947,186.531 43.947 L 206.291 43.947 180.489 69.751 L 154.688 95.555 153.397 94.352 C 149.492 90.712,142.851 86.455,136.044 83.230 C 121.076 76.137,103.900 74.259,87.500 77.921 C 80.895 79.396,76.342 81.033,69.760 84.300 C 55.247 91.504,43.070 103.749,35.850 118.400 C 27.155 136.044,25.681 156.949,31.812 175.687 C 39.289 198.538,57.442 216.715,80.213 224.153 C 104.643 232.132,131.745 227.250,151.481 211.314 C 156.012 207.657,162.690 200.573,166.086 195.823 C 169.775 190.663,174.445 181.221,176.418 174.933 C 182.259 156.314,180.785 136.167,172.305 118.734 C 169.918 113.827,165.642 107.210,162.556 103.645 L 160.493 101.264 186.273 75.487 L 212.053 49.709 212.053 69.560 C 212.053 91.484,211.968 90.790,214.767 91.713 C 216.436 92.265,217.830 91.860,219.093 90.458 C 219.927 89.533,219.947 88.910,219.947 63.990 L 219.947 38.469 218.912 37.368 L 217.878 36.267 192.000 36.267 L 166.122 36.267 165.243 37.227 M115.840 85.095 C 140.065 89.388,160.612 107.082,168.318 130.285 C 172.964 144.275,173.028 159.412,168.499 173.354 C 166.761 178.706,162.709 186.683,159.245 191.573 C 155.597 196.722,148.552 203.760,143.347 207.454 C 130.511 216.563,113.946 221.153,98.827 219.791 C 89.480 218.949,82.783 217.146,74.679 213.289 C 61.402 206.970,49.888 195.734,43.360 182.729 C 38.334 172.717,36.185 163.311,36.219 151.482 C 36.294 125.539,50.961 102.261,74.408 90.874 C 81.320 87.518,88.261 85.488,96.288 84.475 C 100.446 83.950,111.329 84.296,115.840 85.095 " stroke="none" fill-rule="evenodd"></path></svg>