<svg fill="currentColor" viewBox="0 0 256 256" xmlns="http://www.w3.org/2000/svg"><path d="M118.827 77.059 C 103.405 79.812,89.173 90.215,82.021 103.963 C 79.656 108.509,77.323 115.571,76.653 120.213 L 76.114 123.947 41.006 124.160 L 5.898 124.373 5.077 125.387 C 4.625 125.945,4.142 126.853,4.004 127.406 C 3.630 128.894,5.089 131.101,6.848 131.709 C 7.938 132.086,17.124 132.225,42.252 132.243 L 76.184 132.267 76.673 135.848 C 77.226 139.909,79.511 147.103,81.520 151.113 C 86.067 160.188,94.187 168.546,103.347 173.579 C 107.310 175.758,114.303 178.184,119.004 179.012 C 121.018 179.367,125.067 179.658,128.000 179.658 C 142.673 179.658,155.534 174.112,165.765 163.374 C 172.926 155.857,178.004 145.551,179.327 135.848 L 179.816 132.267 213.748 132.243 C 238.876 132.225,248.062 132.086,249.152 131.709 C 250.911 131.101,252.370 128.894,251.996 127.406 C 251.858 126.853,251.375 125.945,250.923 125.387 L 250.102 124.373 214.994 124.160 L 179.886 123.947 179.347 120.213 C 178.733 115.956,176.475 108.859,174.474 104.895 C 167.109 90.305,152.926 79.847,136.657 77.010 C 132.128 76.220,123.393 76.244,118.827 77.059 M138.648 85.319 C 142.664 86.317,148.847 89.093,152.613 91.589 C 155.900 93.767,160.488 98.128,163.090 101.547 C 165.963 105.322,169.600 112.905,170.661 117.333 C 174.727 134.297,168.458 152.325,154.854 162.793 C 137.878 175.856,113.829 174.803,98.319 160.318 C 93.886 156.178,91.247 152.595,88.503 146.987 C 85.174 140.185,84.296 136.220,84.296 128.000 C 84.296 122.567,84.467 120.706,85.252 117.572 C 86.308 113.364,89.060 107.203,91.589 103.387 C 97.810 93.998,108.719 86.876,120.209 84.700 C 124.830 83.825,133.857 84.128,138.648 85.319 " stroke="none" fill-rule="evenodd"></path></svg>