<svg fill="currentColor" viewBox="0 0 256 256" xmlns="http://www.w3.org/2000/svg"><path d="M73.487 28.989 C 72.142 30.274,69.468 35.736,67.917 40.370 C 64.394 50.891,64.072 62.525,67.023 72.681 L 67.971 75.944 66.000 79.892 C 63.511 84.878,61.667 90.416,60.774 95.590 C 60.214 98.832,60.114 101.685,60.266 110.080 C 60.437 119.588,60.553 120.903,61.543 124.618 C 62.939 129.851,64.821 134.353,67.422 138.681 C 75.943 152.858,91.713 162.738,107.301 163.666 C 113.460 164.032,113.366 163.973,111.117 166.046 C 106.659 170.156,102.796 176.775,101.076 183.253 C 100.347 185.999,100.126 188.357,99.951 195.307 L 99.733 203.947 84.320 203.939 C 66.775 203.931,65.112 203.730,59.492 200.946 C 49.868 196.179,43.995 186.320,43.955 174.864 C 43.935 169.235,41.582 161.592,38.347 156.653 C 32.027 147.004,22.093 141.133,10.409 140.141 C 6.994 139.851,6.934 139.863,5.524 141.123 C 3.536 142.899,3.514 145.082,5.468 146.827 C 6.566 147.808,7.244 148.055,8.860 148.061 C 12.211 148.073,16.657 149.221,20.267 151.006 C 25.973 153.828,30.247 158.073,33.003 163.656 C 35.024 167.748,35.365 169.191,35.870 175.787 C 36.564 184.832,38.163 190.028,42.052 195.878 C 46.798 203.018,53.584 207.998,62.162 210.640 L 65.920 211.797 82.880 211.956 L 99.840 212.114 99.840 222.124 C 99.840 232.758,100.114 234.525,101.909 235.486 C 103.344 236.254,105.255 236.019,106.536 234.917 L 107.733 233.888 107.980 210.491 C 108.191 190.509,108.330 186.751,108.929 184.747 C 112.652 172.299,123.173 164.267,135.757 164.267 C 141.228 164.267,143.619 164.804,148.442 167.119 C 155.648 170.577,160.984 177.128,162.993 184.984 C 163.784 188.077,163.840 189.746,163.840 210.215 C 163.840 233.566,163.910 234.415,165.909 235.486 C 167.510 236.342,169.367 236.032,170.716 234.683 L 171.980 233.418 171.845 209.616 C 171.723 188.409,171.627 185.537,170.959 183.280 C 168.942 176.466,166.592 172.255,162.230 167.645 C 158.760 163.977,158.787 163.840,162.974 163.840 C 164.337 163.840,167.058 163.543,169.020 163.181 C 191.242 159.074,208.058 141.677,211.478 119.253 C 212.319 113.742,212.036 98.589,211.009 94.080 C 209.852 89.007,208.244 84.441,206.117 80.193 L 204.078 76.119 205.326 71.233 C 207.000 64.676,207.397 56.003,206.321 49.460 C 205.051 41.732,200.690 30.495,198.316 28.832 C 196.436 27.515,187.553 28.232,180.053 30.307 C 175.883 31.461,168.114 35.198,163.949 38.055 C 160.244 40.597,153.079 47.479,151.265 50.240 L 150.073 52.053 136.075 52.053 L 122.077 52.053 120.177 49.600 C 110.393 36.967,95.390 29.104,79.573 28.319 C 74.725 28.079,74.402 28.114,73.487 28.989 M88.664 37.760 C 98.850 40.487,107.877 46.646,114.390 55.311 C 116.067 57.543,117.908 59.546,118.481 59.764 C 120.103 60.381,152.277 60.237,153.670 59.607 C 154.295 59.325,155.943 57.557,157.333 55.680 C 164.589 45.879,175.235 39.141,186.987 36.912 C 188.857 36.557,191.146 36.267,192.074 36.267 C 193.742 36.267,193.774 36.298,195.064 39.142 C 195.781 40.723,196.860 43.843,197.463 46.075 C 198.452 49.743,198.558 50.893,198.559 58.027 C 198.560 65.360,198.477 66.208,197.392 69.973 C 196.749 72.203,196.019 74.741,195.770 75.614 C 195.382 76.969,195.448 77.436,196.221 78.814 C 199.130 83.999,201.535 89.487,202.535 93.227 C 203.621 97.284,203.679 98.007,203.705 107.947 C 203.731 117.435,203.645 118.747,202.776 122.158 C 198.547 138.748,186.488 150.669,169.579 154.974 C 165.787 155.940,165.552 155.947,136.533 155.947 C 105.180 155.947,104.861 155.928,98.133 153.698 C 83.983 149.009,73.028 137.141,69.294 122.453 C 68.594 119.702,68.480 117.669,68.481 107.947 C 68.482 97.438,68.552 96.384,69.474 93.013 C 70.526 89.170,72.949 83.633,75.132 80.084 C 76.672 77.582,76.657 76.786,74.961 71.141 C 71.913 60.994,72.603 49.614,76.892 39.311 L 78.206 36.155 81.450 36.426 C 83.234 36.575,86.480 37.175,88.664 37.760 " stroke="none" fill-rule="evenodd"></path></svg>