<svg fill="currentColor" viewBox="0 0 256 256" xmlns="http://www.w3.org/2000/svg"><path d="M53.973 36.739 C 51.741 38.031,50.291 39.945,49.490 42.662 C 49.039 44.190,44.739 60.512,39.934 78.933 C 35.129 97.355,30.566 114.827,29.794 117.760 C 28.439 122.907,28.390 123.383,28.382 131.413 C 28.374 138.656,28.498 140.221,29.332 143.496 C 31.915 153.630,36.776 162.310,43.711 169.173 C 46.956 172.384,53.429 177.135,83.209 198.163 C 129.782 231.049,124.938 227.840,128.000 227.840 C 131.062 227.840,126.218 231.049,172.791 198.163 C 202.625 177.097,209.038 172.390,212.284 169.173 C 219.031 162.488,223.794 154.126,226.472 144.262 C 227.495 140.494,227.587 139.466,227.602 131.627 C 227.617 123.311,227.581 122.957,226.209 117.760 C 225.435 114.827,220.871 97.355,216.066 78.933 C 205.166 37.143,206.060 40.146,203.961 38.251 C 201.952 36.436,200.853 36.099,197.771 36.355 C 195.103 36.576,192.761 38.097,191.717 40.286 C 191.356 41.042,186.903 52.975,181.821 66.804 L 172.580 91.947 127.997 91.947 L 83.414 91.947 74.172 66.795 C 69.089 52.962,64.637 41.029,64.279 40.278 C 63.921 39.526,62.917 38.369,62.048 37.706 C 60.747 36.714,59.969 36.478,57.647 36.373 C 56.044 36.300,54.458 36.458,53.973 36.739 M67.405 71.680 C 72.624 85.877,77.159 97.916,77.483 98.432 C 77.807 98.949,78.794 99.571,79.676 99.816 C 81.900 100.434,174.100 100.434,176.324 99.816 C 177.206 99.571,178.194 98.949,178.520 98.432 C 178.845 97.916,183.494 85.552,188.850 70.956 C 194.206 56.361,198.632 44.463,198.686 44.517 C 198.892 44.723,215.466 108.390,215.446 108.901 C 215.435 109.198,195.755 123.319,171.713 140.283 L 128.001 171.127 84.287 140.283 C 60.244 123.319,40.564 109.208,40.553 108.924 C 40.538 108.539,53.448 58.499,56.820 45.867 C 57.202 44.437,57.328 44.298,57.596 45.013 C 57.772 45.483,62.186 57.483,67.405 71.680 M79.523 146.668 C 102.024 162.566,120.441 175.764,120.451 175.998 C 120.474 176.588,93.759 195.452,93.196 195.242 C 92.945 195.149,83.927 188.861,73.156 181.269 C 48.868 164.151,45.542 161.127,41.012 152.049 C 37.204 144.417,36.077 139.054,36.367 129.946 C 36.545 124.378,37.610 117.758,38.328 117.761 C 38.485 117.762,57.023 130.770,79.523 146.668 M218.744 121.067 C 219.351 123.655,219.513 126.043,219.489 132.053 C 219.453 141.237,218.851 143.985,215.288 151.253 C 212.575 156.786,209.937 160.387,205.595 164.480 C 202.964 166.961,164.555 194.588,162.859 195.221 C 162.291 195.432,135.506 176.659,135.482 176.033 C 135.467 175.645,217.112 117.763,217.678 117.761 C 217.838 117.761,218.318 119.248,218.744 121.067 M141.652 190.559 C 149.162 195.867,155.304 200.331,155.300 200.479 C 155.292 200.816,128.911 219.474,128.195 219.649 C 127.576 219.800,100.907 201.075,100.907 200.489 C 100.907 200.195,127.256 181.102,127.892 180.934 C 127.950 180.919,134.142 185.250,141.652 190.559 " stroke="none" fill-rule="evenodd"></path></svg>