<svg fill="currentColor" viewBox="0 0 256 256" xmlns="http://www.w3.org/2000/svg"><path d="M53.973 36.739 C 51.741 38.031,50.291 39.945,49.490 42.662 C 49.039 44.190,44.739 60.512,39.934 78.933 C 35.129 97.355,30.566 114.827,29.794 117.760 C 28.439 122.907,28.390 123.383,28.382 131.413 C 28.374 138.656,28.498 140.221,29.332 143.496 C 31.915 153.630,36.776 162.310,43.711 169.173 C 46.956 172.384,53.429 177.135,83.209 198.163 C 129.782 231.049,124.938 227.840,128.000 227.840 C 131.062 227.840,126.218 231.049,172.791 198.163 C 202.625 177.097,209.038 172.390,212.284 169.173 C 219.031 162.488,223.794 154.126,226.472 144.262 C 227.495 140.494,227.587 139.466,227.602 131.627 C 227.617 123.311,227.581 122.957,226.209 117.760 C 225.435 114.827,220.871 97.355,216.066 78.933 C 205.166 37.143,206.060 40.146,203.961 38.251 C 201.952 36.436,200.853 36.099,197.771 36.355 C 195.103 36.576,192.761 38.097,191.717 40.286 C 191.356 41.042,186.903 52.975,181.821 66.804 L 172.580 91.947 127.997 91.947 L 83.414 91.947 74.172 66.795 C 69.089 52.962,64.637 41.029,64.279 40.278 C 63.921 39.526,62.917 38.369,62.048 37.706 C 60.747 36.714,59.969 36.478,57.647 36.373 C 56.044 36.300,54.458 36.458,53.973 36.739 M67.190 71.040 C 72.525 85.589,77.156 97.916,77.481 98.432 C 77.806 98.949,78.794 99.571,79.676 99.816 C 81.900 100.434,174.100 100.434,176.324 99.816 C 177.206 99.571,178.194 98.949,178.520 98.432 C 178.845 97.916,183.494 85.552,188.850 70.956 C 194.206 56.361,198.631 44.462,198.683 44.514 C 198.970 44.801,218.911 121.860,219.333 124.311 C 220.086 128.684,219.634 138.880,218.498 143.147 C 217.338 147.503,213.597 155.145,210.875 158.720 C 209.714 160.245,207.335 162.837,205.590 164.480 C 202.045 167.817,129.159 219.520,128.000 219.520 C 127.616 219.520,110.713 207.808,90.439 193.493 C 52.480 166.692,49.088 164.078,44.833 158.338 C 41.032 153.210,37.681 145.436,36.722 139.520 C 36.083 135.572,36.161 126.917,36.870 123.238 C 37.201 121.516,41.905 103.147,47.323 82.418 C 52.741 61.690,57.173 44.618,57.173 44.481 C 57.173 43.798,58.183 46.474,67.190 71.040 " stroke="none" fill-rule="evenodd"></path></svg>