<svg fill="currentColor" viewBox="0 0 256 256" xmlns="http://www.w3.org/2000/svg"><path d="M118.613 28.464 C 110.565 29.114,98.652 32.003,90.782 35.214 C 59.612 47.931,37.421 74.312,30.138 107.307 C 27.496 119.279,27.496 136.721,30.138 148.693 C 34.441 168.185,43.446 184.693,57.377 198.623 C 71.307 212.554,87.815 221.559,107.307 225.862 C 119.279 228.504,136.721 228.504,148.693 225.862 C 168.098 221.579,184.802 212.474,198.638 198.638 C 214.932 182.343,224.819 161.762,227.445 138.671 C 228.165 132.336,227.709 117.227,226.621 111.360 C 223.614 95.153,217.576 81.024,208.365 68.641 C 191.765 46.323,167.094 32.009,139.708 28.805 C 134.728 28.223,123.794 28.046,118.613 28.464 M143.360 37.323 C 154.967 39.329,166.631 43.754,176.533 49.909 L 180.053 52.097 180.038 63.489 C 180.027 71.627,179.875 75.134,179.505 75.770 C 178.578 77.363,156.172 103.157,155.487 103.420 C 154.580 103.768,123.985 107.947,122.344 107.947 C 121.365 107.947,118.154 106.066,109.690 100.536 C 103.451 96.460,97.600 92.884,96.686 92.589 C 92.707 91.306,87.274 92.755,84.439 95.855 C 83.066 97.356,62.782 127.535,61.388 130.151 L 60.373 132.053 60.160 152.320 C 60.006 166.959,59.804 172.834,59.435 173.479 C 58.891 174.426,52.559 178.773,51.723 178.773 C 51.085 178.773,46.967 171.775,44.485 166.472 C 40.767 158.527,37.842 148.081,36.704 138.678 C 36.141 134.023,36.141 121.977,36.704 117.322 C 40.524 85.769,60.037 58.531,88.533 44.978 C 96.416 41.229,104.949 38.581,113.920 37.100 C 121.529 35.844,135.410 35.949,143.360 37.323 M198.741 69.333 C 209.737 82.392,217.147 99.606,219.312 117.120 C 219.914 121.988,219.910 134.011,219.304 138.944 C 219.050 141.021,218.453 144.640,217.978 146.987 C 216.952 152.058,213.854 161.813,213.329 161.625 C 213.126 161.553,208.228 157.173,202.446 151.893 C 196.664 146.613,191.036 141.831,189.940 141.267 C 188.402 140.475,187.265 140.238,184.960 140.231 C 182.059 140.221,181.492 140.421,165.182 147.205 C 150.805 153.186,148.099 154.452,146.360 156.016 C 143.401 158.676,142.800 160.503,141.176 171.785 C 139.773 181.529,139.765 181.678,140.494 183.991 C 141.472 187.092,143.311 189.552,145.700 190.952 C 146.943 191.681,151.704 193.161,158.838 195.039 C 164.992 196.658,170.521 198.182,171.126 198.426 C 171.730 198.669,173.554 200.215,175.179 201.862 L 178.133 204.855 176.853 205.889 C 174.989 207.394,166.322 211.787,161.678 213.581 C 140.827 221.633,119.890 222.162,98.829 215.167 C 83.448 210.059,70.172 201.208,58.815 188.492 L 56.254 185.624 59.807 183.300 C 64.109 180.487,65.779 178.809,67.071 176.000 C 68.045 173.885,68.054 173.699,68.187 153.865 L 68.320 133.862 79.391 117.385 C 90.752 100.474,91.502 99.572,93.789 100.078 C 94.333 100.199,99.458 103.353,105.177 107.087 C 116.981 114.794,118.328 115.550,120.852 115.880 C 123.521 116.230,156.460 111.646,158.811 110.598 C 161.126 109.566,162.676 107.929,175.658 92.800 C 182.163 85.219,186.596 79.683,187.102 78.507 C 187.815 76.850,187.949 75.332,188.075 67.454 L 188.222 58.321 191.865 61.907 C 193.869 63.879,196.963 67.221,198.741 69.333 M186.588 148.551 C 187.366 148.966,203.836 163.780,208.572 168.323 L 209.996 169.691 208.599 172.205 C 206.216 176.494,202.614 181.798,199.212 186.026 C 196.011 190.005,187.972 198.092,185.808 199.510 L 184.709 200.229 180.568 196.173 C 178.290 193.942,175.800 191.796,175.034 191.404 C 174.269 191.013,168.509 189.340,162.234 187.688 C 155.960 186.036,150.386 184.400,149.847 184.053 C 147.870 182.778,147.810 181.941,149.071 173.104 C 150.328 164.291,150.743 162.484,151.694 161.695 C 152.698 160.862,183.597 148.099,184.668 148.075 C 185.211 148.063,186.075 148.277,186.588 148.551 " stroke="none" fill-rule="evenodd"></path></svg>