<svg fill="currentColor" viewBox="0 0 256 256" xmlns="http://www.w3.org/2000/svg"><path d="M118.613 28.464 C 110.565 29.114,98.652 32.003,90.782 35.214 C 59.612 47.931,37.421 74.312,30.138 107.307 C 27.496 119.279,27.496 136.721,30.138 148.693 C 34.441 168.185,43.446 184.693,57.377 198.623 C 71.307 212.554,87.815 221.559,107.307 225.862 C 119.279 228.504,136.721 228.504,148.693 225.862 C 168.098 221.579,184.802 212.474,198.638 198.638 C 214.932 182.343,224.819 161.762,227.445 138.671 C 228.165 132.336,227.709 117.227,226.621 111.360 C 223.614 95.153,217.576 81.024,208.365 68.641 C 191.765 46.323,167.094 32.009,139.708 28.805 C 134.728 28.223,123.794 28.046,118.613 28.464 M131.291 37.867 C 144.524 52.119,154.858 72.321,159.968 93.932 C 161.996 102.510,163.834 115.901,163.839 122.133 L 163.840 124.160 127.937 124.160 L 92.035 124.160 92.331 119.147 C 94.050 90.064,104.178 62.761,120.782 42.453 C 125.479 36.709,125.994 36.267,128.000 36.267 C 129.537 36.267,130.025 36.504,131.291 37.867 M114.347 37.380 C 114.347 37.522,113.410 38.818,112.265 40.260 C 108.558 44.925,103.285 53.389,99.865 60.160 C 90.892 77.927,85.964 96.100,84.389 117.227 L 83.872 124.160 60.069 124.160 L 36.267 124.160 36.267 122.335 C 36.267 116.757,38.204 106.751,40.788 98.987 C 49.893 71.621,71.810 49.707,98.987 40.796 C 106.214 38.426,114.347 36.617,114.347 37.380 M146.905 38.015 C 160.563 40.827,174.834 47.668,186.240 56.870 C 193.384 62.633,202.097 72.703,206.783 80.610 C 211.884 89.219,216.234 100.344,217.971 109.227 C 219.056 114.774,219.733 119.788,219.733 122.271 L 219.733 124.160 195.895 124.160 L 172.056 124.160 171.759 119.360 C 170.806 103.990,167.580 88.378,162.545 74.764 C 158.141 62.857,149.317 46.878,142.936 39.256 C 140.841 36.754,140.816 36.762,146.905 38.015 M84.237 136.640 C 85.019 148.293,86.843 159.234,89.788 169.929 C 94.146 185.759,102.500 202.875,111.873 215.182 C 113.273 217.020,114.305 218.637,114.167 218.775 C 113.708 219.234,104.824 217.148,98.987 215.211 C 71.521 206.096,49.945 184.457,40.749 156.800 C 38.363 149.621,36.267 138.935,36.267 133.942 L 36.267 132.267 60.105 132.267 L 83.943 132.267 84.237 136.640 M163.839 134.080 C 163.836 137.168,162.989 145.444,162.081 151.253 C 158.190 176.139,147.948 198.997,132.928 216.320 C 129.914 219.795,128.511 220.562,126.739 219.704 C 124.360 218.553,116.742 208.967,111.962 201.111 C 100.413 182.130,93.927 160.885,92.345 136.853 L 92.044 132.267 127.942 132.267 L 163.840 132.267 163.839 134.080 M219.733 133.878 C 219.733 139.243,217.753 149.379,215.212 157.013 C 206.115 184.355,184.346 206.164,157.171 215.161 C 151.099 217.171,142.292 219.235,141.816 218.759 C 141.670 218.612,142.510 217.283,143.683 215.806 C 147.397 211.131,152.547 202.872,156.073 195.935 C 165.022 178.328,169.985 160.131,171.603 138.987 L 172.118 132.267 195.926 132.267 L 219.733 132.267 219.733 133.878 " stroke="none" fill-rule="evenodd"></path></svg>