<svg fill="currentColor" viewBox="0 0 256 256" xmlns="http://www.w3.org/2000/svg"><path d="M63.360 68.555 C 37.613 71.998,15.754 89.954,7.675 114.295 C 4.720 123.198,3.309 133.196,4.220 138.773 C 5.491 146.551,11.014 152.955,18.323 155.126 C 20.223 155.690,20.327 155.806,21.051 158.176 C 23.620 166.583,32.608 175.083,45.258 181.068 C 58.267 187.223,71.142 189.358,80.627 186.933 C 87.861 185.084,94.829 180.741,99.477 175.184 C 102.608 171.441,105.954 164.820,106.908 160.477 C 107.301 158.689,107.690 156.987,107.771 156.693 C 107.888 156.276,112.300 156.160,128.000 156.160 C 143.700 156.160,148.112 156.276,148.229 156.693 C 148.310 156.987,148.699 158.689,149.092 160.477 C 150.655 167.589,156.038 175.922,161.980 180.428 C 172.774 188.615,185.159 190.022,201.173 184.881 C 218.165 179.426,231.734 168.698,234.949 158.176 C 235.673 155.806,235.777 155.690,237.677 155.126 C 241.027 154.131,243.287 152.739,246.071 149.955 C 251.051 144.975,252.616 139.733,251.773 130.855 C 250.088 113.106,243.210 98.719,230.689 86.751 C 221.898 78.348,211.220 72.667,198.187 69.460 L 194.347 68.515 129.493 68.450 C 93.824 68.414,64.064 68.461,63.360 68.555 M194.719 76.943 C 213.857 80.772,229.651 92.822,237.872 109.867 C 241.437 117.257,243.138 123.681,243.866 132.502 C 244.384 138.792,242.647 143.230,238.623 145.896 C 236.277 147.450,235.525 147.525,235.190 146.242 C 235.052 145.715,234.172 143.747,233.235 141.869 C 231.878 139.148,230.701 137.627,227.446 134.390 C 225.199 132.155,221.824 129.310,219.947 128.067 C 212.651 123.235,202.403 118.942,193.707 117.074 C 188.179 115.887,179.226 115.986,174.621 117.285 C 161.292 121.046,151.512 131.564,148.748 145.111 L 148.192 147.840 128.000 147.840 L 107.808 147.840 107.252 145.111 C 104.488 131.564,94.708 121.046,81.379 117.285 C 76.774 115.986,67.821 115.887,62.293 117.074 C 53.597 118.942,43.349 123.235,36.053 128.067 C 34.176 129.310,30.801 132.155,28.554 134.390 C 25.299 137.627,24.122 139.148,22.765 141.869 C 21.828 143.747,20.948 145.715,20.810 146.242 C 20.475 147.525,19.723 147.450,17.377 145.896 C 12.141 142.428,11.044 137.194,13.056 125.290 C 16.154 106.967,28.764 90.377,45.867 82.128 C 52.700 78.831,59.012 77.068,66.987 76.228 C 67.808 76.142,96.032 76.097,129.707 76.128 C 186.510 76.181,191.207 76.240,194.719 76.943 M80.996 125.549 C 85.363 127.099,88.422 129.030,91.696 132.304 C 94.949 135.557,96.877 138.599,98.478 143.004 C 99.497 145.809,99.616 146.730,99.621 151.893 C 99.625 156.439,99.457 158.148,98.821 160.000 C 97.926 162.603,95.996 166.578,94.988 167.893 C 94.361 168.711,93.479 167.893,74.047 148.482 C 62.889 137.336,53.760 128.102,53.760 127.961 C 53.760 127.628,60.762 125.530,64.382 124.778 C 66.149 124.411,69.189 124.238,72.533 124.315 C 76.989 124.418,78.382 124.621,80.996 125.549 M192.440 125.016 C 206.776 127.938,221.481 136.878,226.132 145.500 C 227.504 148.042,227.625 148.562,227.626 151.893 C 227.627 157.002,226.412 159.402,221.256 164.480 C 219.112 166.592,216.865 168.577,216.264 168.891 C 215.184 169.454,214.905 169.194,193.814 147.991 L 172.459 126.522 173.803 125.951 C 178.371 124.013,185.709 123.644,192.440 125.016 M87.797 175.105 C 84.806 177.606,76.871 180.053,71.754 180.053 C 63.452 180.053,49.962 175.527,41.173 169.793 C 36.570 166.789,31.212 161.358,29.618 158.080 C 28.537 155.858,28.375 155.042,28.383 151.893 C 28.390 148.933,28.576 147.914,29.391 146.347 C 31.900 141.527,36.129 137.389,42.658 133.366 L 45.850 131.400 67.309 152.846 L 88.767 174.293 87.797 175.105 M186.839 152.492 L 207.914 173.571 206.235 174.427 C 203.761 175.690,196.549 178.129,192.640 179.025 C 190.427 179.532,187.500 179.813,184.320 179.824 C 178.820 179.842,175.150 178.962,170.453 176.501 C 166.809 174.591,161.469 169.132,159.444 165.248 C 155.279 157.259,155.072 147.690,158.894 139.812 C 160.461 136.584,164.372 131.413,165.248 131.413 C 165.531 131.413,175.247 140.899,186.839 152.492 " stroke="none" fill-rule="evenodd"></path></svg>