<svg fill="currentColor" viewBox="0 0 256 256" xmlns="http://www.w3.org/2000/svg"><path d="M125.544 21.098 L 124.160 22.263 124.160 46.288 L 124.160 70.314 119.360 67.832 C 113.739 64.926,107.454 62.663,101.396 61.363 C 95.425 60.081,82.095 59.982,75.733 61.171 C 44.976 66.922,21.844 93.085,20.203 123.977 L 19.929 129.128 21.236 130.591 L 22.543 132.053 46.258 132.177 C 59.301 132.245,69.973 132.393,69.973 132.505 C 69.973 132.618,69.486 133.482,68.891 134.425 C 66.349 138.452,63.019 147.277,61.414 154.240 C 60.111 159.890,59.799 171.818,60.788 178.133 C 65.768 209.937,92.260 234.112,123.977 235.797 L 129.128 236.071 130.591 234.764 L 132.053 233.457 132.177 209.742 C 132.245 196.699,132.381 186.027,132.478 186.027 C 132.576 186.027,133.576 186.561,134.701 187.215 C 140.738 190.721,149.310 193.710,157.191 195.057 C 163.856 196.196,175.420 195.981,181.662 194.603 C 212.183 187.866,234.180 162.448,235.796 132.051 L 236.068 126.929 234.903 125.545 L 233.737 124.160 209.645 124.160 L 185.552 124.160 186.657 122.347 C 189.733 117.301,193.019 108.710,194.638 101.480 C 195.500 97.632,195.627 95.920,195.627 88.107 C 195.627 78.327,195.264 75.703,192.792 67.627 C 184.621 40.921,159.857 21.716,131.624 20.188 C 126.967 19.936,126.916 19.944,125.544 21.098 M139.947 29.284 C 163.133 33.804,181.678 52.295,186.743 75.947 C 187.364 78.845,187.515 81.417,187.495 88.747 C 187.471 97.641,187.430 98.069,186.141 102.838 C 184.169 110.129,181.775 115.318,177.043 122.555 L 176.000 124.149 154.133 124.155 L 132.267 124.160 132.267 76.120 L 132.267 28.080 134.507 28.370 C 135.739 28.530,138.187 28.941,139.947 29.284 M102.156 69.723 C 109.266 71.437,116.801 74.861,122.347 78.898 L 124.160 80.219 124.160 102.189 L 124.160 124.160 76.111 124.160 L 28.062 124.160 28.356 121.707 C 31.199 97.962,46.867 78.512,69.120 71.104 C 79.075 67.789,91.906 67.253,102.156 69.723 M124.160 180.053 L 124.160 227.840 123.169 227.840 C 118.644 227.840,106.886 224.557,101.256 221.722 C 89.683 215.894,79.260 205.228,73.856 193.683 C 70.532 186.582,68.838 180.037,68.343 172.373 C 67.426 158.190,70.615 145.974,78.171 134.720 L 79.818 132.267 101.989 132.267 L 124.160 132.267 124.160 180.053 M227.630 134.507 C 224.499 158.683,208.906 177.739,186.233 185.098 C 174.331 188.960,161.016 188.897,148.907 184.921 C 144.989 183.634,137.042 179.701,134.293 177.689 L 132.267 176.205 132.267 154.236 L 132.267 132.267 180.093 132.267 L 227.920 132.267 227.630 134.507 " stroke="none" fill-rule="evenodd"></path></svg>