<svg fill="currentColor" viewBox="0 0 256 256" xmlns="http://www.w3.org/2000/svg"><path d="M98.489 36.328 C 96.037 36.678,93.591 37.943,91.870 39.749 C 90.643 41.038,23.487 150.659,21.305 154.935 C 20.186 157.128,19.792 160.877,20.431 163.241 C 20.947 165.146,48.358 213.461,50.303 215.893 C 50.960 216.715,52.617 217.963,53.985 218.667 L 56.473 219.947 127.970 219.947 L 199.467 219.947 201.450 219.030 C 202.541 218.525,204.173 217.362,205.077 216.445 C 206.855 214.640,234.249 167.030,235.388 163.767 C 236.227 161.360,235.922 157.341,234.721 154.986 C 232.309 150.259,165.291 40.971,163.962 39.600 C 163.124 38.734,161.513 37.628,160.381 37.141 C 158.375 36.278,157.606 36.254,129.365 36.155 C 113.437 36.099,99.543 36.177,98.489 36.328 M152.676 44.316 C 152.336 45.200,128.192 85.307,128.000 85.307 C 127.808 85.307,103.664 45.200,103.324 44.316 C 103.245 44.110,114.173 43.947,128.000 43.947 C 141.827 43.947,152.755 44.110,152.676 44.316 M109.631 70.577 L 123.308 93.367 104.471 124.763 L 85.635 156.160 57.729 156.160 C 34.001 156.160,29.875 156.071,30.165 155.566 C 31.159 153.836,95.800 47.820,95.871 47.805 C 95.917 47.795,102.109 58.042,109.631 70.577 M193.405 102.400 C 211.223 131.616,225.887 155.664,225.992 155.840 C 226.097 156.016,213.625 156.160,198.275 156.160 L 170.365 156.160 151.529 124.763 L 132.692 93.367 146.403 70.519 C 158.042 51.125,160.182 47.793,160.562 48.476 C 160.808 48.918,175.588 73.184,193.405 102.400 M144.533 128.747 L 160.851 155.947 144.425 156.058 C 135.391 156.120,120.609 156.120,111.575 156.058 L 95.149 155.947 111.467 128.747 C 120.441 113.787,127.881 101.547,128.000 101.547 C 128.119 101.547,135.559 113.787,144.533 128.747 M80.515 164.587 C 78.630 168.024,54.836 207.360,54.642 207.360 C 54.430 207.360,37.256 177.618,30.879 166.208 L 29.794 164.267 55.242 164.267 C 69.239 164.267,80.611 164.411,80.515 164.587 M180.183 188.160 L 194.518 212.053 128.000 212.053 L 61.482 212.053 75.817 188.160 L 90.151 164.267 128.000 164.267 L 165.849 164.267 180.183 188.160 M225.121 166.208 C 218.744 177.618,201.570 207.360,201.358 207.360 C 201.164 207.360,177.370 168.024,175.485 164.587 C 175.389 164.411,186.761 164.267,200.758 164.267 L 226.206 164.267 225.121 166.208 " stroke="none" fill-rule="evenodd"></path></svg>