<svg fill="currentColor" viewBox="0 0 256 256" xmlns="http://www.w3.org/2000/svg"><path d="M126.720 12.232 C 126.368 12.370,125.648 12.875,125.120 13.355 L 124.160 14.229 124.160 32.036 L 124.160 49.844 125.473 50.949 C 128.154 53.205,131.478 51.587,132.045 47.749 C 132.199 46.714,132.263 38.815,132.189 30.196 L 132.053 14.525 130.987 13.459 C 129.896 12.370,127.865 11.785,126.720 12.232 M77.194 61.407 L 75.947 62.654 75.947 91.907 L 75.947 121.160 77.173 122.532 C 78.141 123.615,78.735 123.904,80.000 123.904 C 81.265 123.904,81.859 123.615,82.827 122.532 L 84.053 121.160 84.053 91.907 L 84.053 62.654 82.806 61.407 C 81.883 60.484,81.154 60.160,80.000 60.160 C 78.846 60.160,78.117 60.484,77.194 61.407 M173.194 61.407 L 171.947 62.654 171.947 79.934 L 171.947 97.215 173.051 98.527 C 174.588 100.353,177.018 100.381,178.806 98.593 L 180.053 97.346 180.053 80.000 L 180.053 62.654 178.806 61.407 C 177.883 60.484,177.154 60.160,176.000 60.160 C 174.846 60.160,174.117 60.484,173.194 61.407 M125.473 85.158 L 124.160 86.263 124.160 128.000 L 124.160 169.737 125.473 170.842 C 127.224 172.315,128.905 172.270,130.660 170.702 L 132.053 169.457 132.053 128.000 L 132.053 86.543 130.660 85.298 C 128.905 83.730,127.224 83.685,125.473 85.158 M30.720 108.232 C 30.368 108.370,29.648 108.875,29.120 109.355 L 28.160 110.229 28.160 128.036 L 28.160 145.844 29.473 146.949 C 32.154 149.205,35.478 147.587,36.045 143.749 C 36.199 142.714,36.263 134.815,36.189 126.196 L 36.053 110.525 34.987 109.459 C 33.896 108.370,31.865 107.785,30.720 108.232 M222.720 108.232 C 222.368 108.370,221.648 108.875,221.120 109.355 L 220.160 110.229 220.160 128.036 L 220.160 145.844 221.473 146.949 C 224.154 149.205,227.478 147.587,228.045 143.749 C 228.199 142.714,228.263 134.815,228.189 126.196 L 228.053 110.525 226.987 109.459 C 225.896 108.370,223.865 107.785,222.720 108.232 M173.051 133.579 L 171.947 134.892 171.947 164.053 L 171.947 193.215 173.051 194.527 C 174.588 196.353,177.018 196.381,178.806 194.593 L 180.053 193.346 180.053 164.119 L 180.053 134.892 178.949 133.579 C 178.029 132.486,177.535 132.267,176.000 132.267 C 174.465 132.267,173.971 132.486,173.051 133.579 M77.194 157.407 L 75.947 158.654 75.947 175.934 L 75.947 193.215 77.051 194.527 C 78.588 196.353,81.018 196.381,82.806 194.593 L 84.053 193.346 84.053 176.000 L 84.053 158.654 82.806 157.407 C 81.883 156.484,81.154 156.160,80.000 156.160 C 78.846 156.160,78.117 156.484,77.194 157.407 M126.720 204.232 C 126.368 204.370,125.648 204.875,125.120 205.355 L 124.160 206.229 124.160 224.036 L 124.160 241.844 125.473 242.949 C 128.154 245.205,131.478 243.587,132.045 239.749 C 132.199 238.714,132.263 230.815,132.189 222.196 L 132.053 206.525 130.987 205.459 C 129.896 204.370,127.865 203.785,126.720 204.232 " stroke="none" fill-rule="evenodd"></path></svg>