<svg fill="currentColor" viewBox="0 0 256 256" xmlns="http://www.w3.org/2000/svg"><path d="M29.207 61.207 C 28.461 61.954,28.160 62.723,28.160 63.886 C 28.160 66.012,29.088 67.276,31.053 67.821 C 33.264 68.435,222.736 68.435,224.947 67.821 C 226.912 67.276,227.840 66.012,227.840 63.886 C 227.840 62.723,227.539 61.954,226.793 61.207 L 225.745 60.160 128.000 60.160 L 30.255 60.160 29.207 61.207 M29.207 101.314 C 27.626 102.896,27.745 105.389,29.473 106.842 L 30.785 107.947 72.116 107.947 L 113.446 107.947 114.551 106.987 C 115.192 106.429,115.757 105.390,115.897 104.510 C 116.093 103.277,115.923 102.738,114.991 101.630 L 113.844 100.267 72.049 100.267 L 30.255 100.267 29.207 101.314 M141.009 101.630 C 140.077 102.738,139.907 103.277,140.103 104.510 C 140.243 105.390,140.808 106.429,141.449 106.987 L 142.554 107.947 183.884 107.947 L 225.215 107.947 226.527 106.842 C 228.255 105.389,228.374 102.896,226.793 101.314 L 225.745 100.267 183.951 100.267 L 142.156 100.267 141.009 101.630 M30.720 140.248 C 29.100 140.840,28.160 142.231,28.160 144.036 C 28.160 145.535,28.387 146.035,29.486 146.960 L 30.812 148.076 52.350 147.958 L 73.888 147.840 74.917 146.643 C 76.008 145.375,76.255 143.453,75.507 142.056 C 74.396 139.980,73.989 139.944,51.968 139.980 C 40.634 139.999,31.072 140.119,30.720 140.248 M101.468 141.173 C 100.385 142.141,100.096 142.735,100.096 144.000 C 100.096 145.265,100.385 145.859,101.468 146.827 L 102.840 148.053 128.000 148.053 L 153.160 148.053 154.532 146.827 C 155.615 145.859,155.904 145.265,155.904 144.000 C 155.904 142.735,155.615 142.141,154.532 141.173 L 153.160 139.947 128.000 139.947 L 102.840 139.947 101.468 141.173 M182.091 140.605 C 179.821 141.850,179.356 144.635,181.083 146.643 L 182.112 147.840 203.718 147.958 L 225.323 148.076 226.581 146.818 C 228.270 145.129,228.338 142.697,226.739 141.194 L 225.639 140.160 204.446 140.064 C 186.325 139.982,183.085 140.060,182.091 140.605 M29.473 181.158 C 27.225 183.049,27.839 186.540,30.622 187.693 C 31.490 188.052,35.521 188.161,44.675 188.072 C 56.816 187.953,57.563 187.900,58.458 187.093 C 59.851 185.838,60.264 184.435,59.725 182.800 C 58.829 180.087,58.636 180.053,43.994 180.053 L 30.785 180.053 29.473 181.158 M85.301 181.301 C 82.900 183.701,84.110 187.311,87.526 187.942 C 88.315 188.087,94.496 188.148,101.262 188.077 L 113.564 187.947 114.855 186.501 C 115.945 185.282,116.108 184.816,115.901 183.515 C 115.757 182.610,115.199 181.577,114.551 181.013 C 113.455 180.061,113.332 180.053,99.997 180.053 L 86.548 180.053 85.301 181.301 M141.449 181.013 C 140.801 181.577,140.243 182.610,140.099 183.515 C 139.892 184.816,140.055 185.282,141.145 186.501 L 142.436 187.947 154.738 188.077 C 161.504 188.148,167.685 188.087,168.474 187.942 C 171.890 187.311,173.100 183.701,170.699 181.301 L 169.452 180.053 156.003 180.053 C 142.668 180.053,142.545 180.061,141.449 181.013 M197.675 180.809 C 195.613 182.430,195.493 185.150,197.403 186.946 C 198.464 187.944,198.505 187.947,211.315 188.072 C 224.825 188.203,225.973 188.075,227.217 186.300 C 227.560 185.810,227.840 184.702,227.840 183.836 C 227.840 182.603,227.556 182.024,226.527 181.158 L 225.215 180.053 211.914 180.063 C 199.967 180.071,198.518 180.147,197.675 180.809 " stroke="none" fill-rule="evenodd"></path></svg>