<svg fill="currentColor" viewBox="0 0 256 256" xmlns="http://www.w3.org/2000/svg"><path d="M123.075 22.234 C 114.613 27.062,104.042 35.688,97.425 43.167 C 91.429 49.944,85.793 58.320,83.050 64.533 C 82.454 65.883,81.865 66.987,81.741 66.987 C 81.617 66.987,80.095 66.422,78.359 65.733 C 70.495 62.609,61.348 60.691,52.405 60.292 L 46.569 60.032 45.240 61.361 L 43.910 62.691 44.066 108.039 C 44.217 152.269,44.244 153.502,45.133 158.080 C 49.175 178.892,59.006 195.789,74.667 208.844 C 86.118 218.390,100.874 224.902,116.173 227.161 C 122.140 228.042,133.309 228.048,139.583 227.172 C 172.804 222.539,200.500 198.087,209.057 165.834 C 211.905 155.103,211.787 157.481,211.945 107.825 L 212.090 62.691 210.760 61.361 L 209.431 60.032 203.595 60.292 C 194.634 60.692,185.506 62.608,177.598 65.750 C 175.838 66.449,174.310 66.932,174.201 66.823 C 174.092 66.715,172.992 64.625,171.755 62.180 C 165.125 49.073,153.811 36.412,140.160 26.823 C 135.260 23.381,129.283 20.053,128.000 20.053 C 127.394 20.053,125.178 21.035,123.075 22.234 M132.066 31.078 C 143.454 38.492,153.505 48.214,160.233 58.325 C 163.014 62.504,167.001 70.199,166.667 70.741 C 166.542 70.942,165.231 71.845,163.753 72.746 C 153.713 78.870,143.865 88.558,137.244 98.824 C 134.764 102.668,131.020 110.160,129.434 114.449 C 128.763 116.265,128.090 117.753,127.940 117.755 C 127.789 117.758,127.545 117.280,127.398 116.693 C 126.835 114.449,123.116 106.288,120.835 102.291 C 114.263 90.775,102.070 78.209,91.893 72.466 C 90.632 71.754,89.498 71.007,89.373 70.805 C 89.248 70.603,90.039 68.653,91.130 66.472 C 97.713 53.319,108.465 41.545,122.453 32.173 C 125.387 30.208,127.888 28.597,128.012 28.593 C 128.136 28.590,129.960 29.708,132.066 31.078 M60.438 69.126 C 76.619 71.875,89.865 78.742,101.555 90.441 C 108.042 96.932,111.654 101.927,115.760 110.080 C 119.789 118.082,121.755 124.189,123.107 132.907 C 123.772 137.194,124.570 163.840,124.034 163.840 C 123.892 163.840,122.971 162.292,121.987 160.401 C 114.003 145.053,99.994 131.765,83.651 124.037 C 76.076 120.455,65.709 117.465,58.240 116.709 C 56.832 116.566,54.864 116.349,53.867 116.225 L 52.053 116.001 52.053 92.134 L 52.053 68.267 53.718 68.267 C 54.633 68.267,57.657 68.653,60.438 69.126 M203.947 92.134 L 203.947 116.001 202.133 116.225 C 201.136 116.349,199.168 116.566,197.760 116.709 C 193.467 117.144,186.926 118.616,181.735 120.315 C 161.572 126.918,144.337 141.309,134.208 160.000 L 132.242 163.627 132.388 148.693 C 132.520 135.255,132.630 133.299,133.487 129.152 C 137.941 107.596,151.388 89.010,170.562 77.907 C 174.487 75.634,182.277 72.341,186.784 71.048 C 191.214 69.778,199.084 68.349,201.920 68.301 L 203.947 68.267 203.947 92.134 M62.668 125.506 C 92.435 131.150,116.294 154.950,122.445 185.133 C 123.553 190.571,124.140 199.444,124.151 210.943 L 124.160 219.859 120.432 219.573 C 115.893 219.224,108.228 217.545,103.287 215.818 C 75.239 206.015,55.737 181.431,52.505 151.803 C 52.257 149.525,52.053 142.353,52.053 135.867 L 52.053 124.073 55.147 124.370 C 56.848 124.533,60.233 125.044,62.668 125.506 M203.947 135.910 C 203.947 148.236,203.580 153.340,202.223 159.921 C 198.971 175.692,189.270 191.843,176.946 202.006 C 171.415 206.567,167.438 209.155,161.493 212.061 C 153.024 216.201,143.731 218.912,135.749 219.569 L 132.192 219.862 132.381 204.544 C 132.551 190.770,132.665 188.801,133.506 185.005 C 137.737 165.927,147.814 150.111,162.747 139.111 C 169.847 133.880,176.527 130.400,184.434 127.810 C 189.908 126.016,197.762 124.465,202.560 124.228 L 203.947 124.160 203.947 135.910 " stroke="none" fill-rule="evenodd"></path></svg>