<svg fill="currentColor" viewBox="0 0 256 256" xmlns="http://www.w3.org/2000/svg"><path d="M36.691 52.450 C 33.432 53.447,30.664 55.892,29.166 59.093 L 28.168 61.227 28.168 128.000 L 28.168 194.773 29.166 196.907 C 30.318 199.369,32.335 201.493,34.773 202.811 L 36.480 203.733 128.000 203.733 L 219.520 203.733 221.246 202.809 C 223.628 201.534,226.269 198.546,227.240 196.028 C 228.027 193.987,228.053 191.808,228.053 127.787 L 228.053 61.653 226.947 59.307 C 225.691 56.644,223.721 54.537,221.227 53.189 L 219.520 52.267 128.640 52.195 C 78.656 52.155,37.279 52.270,36.691 52.450 M92.058 80.107 L 91.947 100.053 64.107 100.163 L 36.267 100.273 36.267 81.264 L 36.267 62.255 37.314 61.207 L 38.361 60.160 65.265 60.160 L 92.168 60.160 92.058 80.107 M156.058 80.107 L 155.947 100.053 128.107 100.163 L 100.267 100.273 100.267 80.216 L 100.267 60.160 128.218 60.160 L 156.168 60.160 156.058 80.107 M218.652 61.173 C 219.264 61.785,219.770 62.926,219.931 64.053 C 220.077 65.080,220.141 73.600,220.072 82.987 L 219.947 100.053 192.107 100.163 L 164.267 100.273 164.267 80.216 L 164.267 60.160 190.953 60.160 L 217.639 60.160 218.652 61.173 M92.160 128.000 L 92.160 148.053 64.213 148.053 L 36.267 148.053 36.267 128.000 L 36.267 107.947 64.213 107.947 L 92.160 107.947 92.160 128.000 M156.160 128.000 L 156.160 148.053 128.213 148.053 L 100.267 148.053 100.267 128.000 L 100.267 107.947 128.213 107.947 L 156.160 107.947 156.160 128.000 M220.160 128.000 L 220.160 148.053 192.213 148.053 L 164.267 148.053 164.267 128.000 L 164.267 107.947 192.213 107.947 L 220.160 107.947 220.160 128.000 M92.058 176.107 L 91.947 196.053 66.987 196.178 C 53.259 196.246,41.187 196.183,40.160 196.037 C 39.032 195.877,37.892 195.371,37.280 194.759 L 36.267 193.745 36.267 174.953 L 36.267 156.160 64.218 156.160 L 92.168 156.160 92.058 176.107 M156.058 176.107 L 155.947 196.053 128.107 196.163 L 100.267 196.273 100.267 176.216 L 100.267 156.160 128.218 156.160 L 156.168 156.160 156.058 176.107 M220.070 174.633 C 219.932 195.369,219.996 194.945,216.857 195.816 C 215.826 196.103,206.156 196.263,189.760 196.264 L 164.267 196.267 164.267 176.213 L 164.267 156.160 192.230 156.160 L 220.194 156.160 220.070 174.633 " stroke="none" fill-rule="evenodd"></path></svg>