<svg fill="currentColor" viewBox="0 0 256 256" xmlns="http://www.w3.org/2000/svg"><path d="M110.276 12.542 C 105.150 13.787,100.293 17.579,98.364 21.842 C 97.800 23.087,89.057 51.467,78.935 84.907 L 60.530 145.707 41.378 164.907 C 19.699 186.641,19.804 186.507,20.134 191.926 C 20.230 193.492,20.666 195.541,21.104 196.480 C 22.250 198.937,56.135 232.918,58.988 234.471 C 61.807 236.005,65.589 236.331,68.742 235.310 C 70.914 234.607,72.474 233.135,97.285 208.379 C 116.877 188.831,124.070 181.383,125.659 179.002 C 126.829 177.248,127.903 175.806,128.046 175.799 C 128.189 175.792,129.033 176.987,129.923 178.453 C 131.124 180.435,138.236 187.837,157.610 207.270 C 186.567 236.315,186.133 235.947,191.360 235.947 C 196.412 235.947,196.967 235.504,216.570 215.804 C 228.175 204.141,234.368 197.610,234.893 196.480 C 236.029 194.036,236.206 190.027,235.302 187.239 C 234.612 185.110,233.274 183.666,215.006 165.333 L 195.450 145.707 176.878 84.368 C 166.663 50.632,157.894 22.223,157.391 21.238 C 156.124 18.754,152.390 15.230,149.651 13.935 C 148.391 13.338,146.111 12.621,144.585 12.339 C 139.558 11.413,133.796 13.113,129.952 16.656 L 128.000 18.455 126.048 16.656 C 123.783 14.568,120.570 12.987,117.351 12.377 C 114.528 11.841,113.014 11.877,110.276 12.542 M119.395 21.448 C 121.724 22.990,123.201 25.297,123.746 28.244 C 124.043 29.853,124.143 52.382,124.050 96.919 C 123.895 170.991,124.168 164.639,120.853 171.520 C 119.413 174.509,118.298 175.740,103.933 190.195 L 88.554 205.670 69.460 186.580 L 50.366 167.490 59.005 158.732 L 67.644 149.973 86.332 88.107 C 97.128 52.365,105.466 25.473,106.076 24.424 C 106.763 23.243,107.908 22.155,109.353 21.311 C 111.353 20.143,111.874 20.027,114.598 20.145 C 117.048 20.251,117.961 20.499,119.395 21.448 M144.791 20.515 C 146.968 21.119,149.979 23.950,150.803 26.167 C 151.577 28.248,188.160 149.133,188.160 149.608 C 188.160 149.785,192.268 154.067,197.290 159.124 L 206.420 168.320 186.943 186.967 L 167.467 205.615 152.077 190.167 C 137.677 175.714,136.588 174.514,135.146 171.520 C 131.836 164.645,132.107 170.980,131.950 96.925 C 131.856 52.392,131.955 29.857,132.252 28.232 C 133.344 22.266,138.863 18.869,144.791 20.515 M63.999 192.212 L 82.981 211.198 74.668 219.519 C 66.640 227.554,66.296 227.840,64.650 227.840 C 62.973 227.840,62.655 227.550,45.552 210.448 C 28.551 193.446,28.160 193.017,28.160 191.379 C 28.160 189.773,28.501 189.360,36.359 181.465 C 40.868 176.934,44.661 173.227,44.787 173.227 C 44.914 173.227,53.559 181.770,63.999 192.212 M220.068 181.893 C 227.499 189.363,227.840 189.779,227.840 191.380 C 227.840 193.017,227.445 193.450,210.448 210.448 C 193.345 227.550,193.027 227.840,191.350 227.840 C 189.704 227.840,189.360 227.554,181.395 219.582 L 173.145 211.324 177.346 207.256 C 189.989 195.013,211.871 174.117,212.068 174.100 C 212.194 174.089,215.794 177.596,220.068 181.893 " stroke="none" fill-rule="evenodd"></path></svg>