<svg fill="currentColor" viewBox="0 0 256 256" xmlns="http://www.w3.org/2000/svg"><path d="M100.480 20.542 C 82.589 22.822,66.208 34.513,58.038 50.832 C 53.389 60.119,50.637 74.103,52.680 78.055 C 53.529 79.696,55.531 80.376,57.316 79.630 C 59.550 78.696,59.851 77.988,60.226 72.802 C 61.719 52.161,75.898 34.929,95.797 29.574 C 99.692 28.526,100.724 28.429,107.947 28.429 C 115.133 28.429,116.214 28.530,120.012 29.553 C 137.722 34.324,151.303 48.581,154.886 66.162 C 155.352 68.449,155.744 71.539,155.757 73.027 C 155.792 76.888,156.466 78.557,158.367 79.486 C 159.783 80.178,160.078 80.192,161.426 79.629 C 163.450 78.783,163.840 77.857,163.840 73.897 C 163.840 64.618,160.393 53.797,154.724 45.282 C 142.737 27.276,121.968 17.803,100.480 20.542 M102.518 52.698 C 96.276 54.055,89.962 58.905,86.973 64.640 C 84.109 70.136,84.304 66.402,84.062 120.398 L 83.840 169.756 77.867 160.113 C 71.275 149.472,68.847 146.496,64.798 144.095 C 55.010 138.293,43.376 139.684,35.364 147.616 C 33.636 149.327,32.012 151.460,31.175 153.117 C 29.509 156.418,28.160 161.501,28.160 164.480 C 28.160 167.255,29.483 172.502,30.866 175.212 C 32.881 179.161,60.228 225.499,61.085 226.417 C 63.511 229.016,67.840 227.186,67.840 223.561 C 67.840 223.061,61.240 211.388,53.173 197.620 C 45.107 183.852,38.104 171.789,37.612 170.815 C 35.631 166.889,35.708 160.893,37.791 156.776 C 39.276 153.840,42.380 150.899,45.560 149.415 C 47.663 148.433,48.560 148.275,52.053 148.271 C 55.604 148.267,56.399 148.410,58.466 149.426 C 62.958 151.631,63.726 152.617,74.703 170.264 C 82.375 182.596,85.402 187.114,86.306 187.582 C 87.860 188.385,89.610 188.018,90.933 186.610 L 91.947 185.531 92.160 128.499 L 92.373 71.467 93.573 69.188 C 95.261 65.984,97.692 63.505,100.799 61.820 C 103.350 60.437,103.663 60.373,107.947 60.373 C 112.041 60.373,112.636 60.480,114.862 61.607 C 119.809 64.113,123.058 68.679,123.758 74.109 C 123.964 75.707,124.138 92.500,124.146 111.429 L 124.160 145.844 125.473 146.949 C 127.897 148.989,130.966 147.884,131.835 144.660 C 132.078 143.758,132.262 139.770,132.245 135.798 C 132.219 129.887,132.349 128.234,132.957 126.688 C 134.655 122.375,137.508 119.307,141.602 117.395 C 143.658 116.435,144.577 116.275,148.053 116.271 C 151.620 116.267,152.394 116.408,154.505 117.444 C 158.093 119.207,160.612 121.645,162.224 124.918 L 163.627 127.765 163.840 140.639 C 164.041 152.749,164.104 153.569,164.907 154.459 C 166.171 155.860,167.564 156.264,169.233 155.713 C 171.438 154.986,171.947 153.908,171.947 149.968 C 171.947 142.129,174.853 136.908,181.029 133.653 C 183.065 132.579,183.651 132.480,187.947 132.480 C 192.289 132.480,192.824 132.573,195.105 133.728 C 198.146 135.268,201.079 138.338,202.590 141.560 L 203.733 144.000 203.733 168.747 C 203.733 190.709,203.644 194.069,202.943 198.613 C 201.872 205.548,199.601 214.289,197.524 219.465 C 195.617 224.219,195.599 225.546,197.424 226.981 C 199.051 228.262,201.394 228.123,202.731 226.667 C 205.330 223.835,208.974 211.790,211.023 199.253 C 212.138 192.436,212.454 147.761,211.420 143.116 C 209.425 134.150,202.675 127.098,193.898 124.812 C 190.715 123.983,185.208 123.975,182.060 124.795 C 179.210 125.538,175.169 127.498,173.372 129.010 L 172.110 130.072 171.404 127.064 C 170.320 122.443,168.463 118.910,165.492 115.816 C 160.372 110.484,155.293 108.244,148.267 108.217 C 142.384 108.195,137.824 109.619,133.905 112.703 L 132.343 113.932 132.153 93.126 C 131.946 70.330,131.958 70.441,129.239 64.919 C 128.409 63.232,126.798 61.066,125.064 59.303 C 119.167 53.309,110.879 50.881,102.518 52.698 " stroke="none" fill-rule="evenodd"></path></svg>