<svg fill="currentColor" viewBox="0 0 256 256" xmlns="http://www.w3.org/2000/svg"><path d="M115.805 36.326 C 100.020 37.438,85.438 48.141,79.361 63.074 C 76.991 68.899,76.206 73.021,76.182 79.787 C 76.158 86.591,76.778 90.430,78.958 96.973 C 80.480 101.541,83.587 107.899,86.522 112.450 L 88.709 115.840 85.634 116.360 C 81.923 116.987,79.616 117.804,75.947 119.791 C 73.702 121.007,70.613 123.838,59.733 134.655 L 46.293 148.018 29.440 148.142 C 13.008 148.264,12.543 148.290,10.830 149.206 C 8.000 150.721,6.522 152.199,5.248 154.793 L 4.053 157.227 4.053 180.053 L 4.053 202.880 5.020 204.843 C 6.275 207.388,8.683 209.805,11.093 210.938 C 13.012 211.839,13.052 211.840,66.645 211.953 L 120.277 212.066 152.794 203.935 L 185.311 195.803 205.402 187.257 C 226.319 178.358,228.354 177.285,231.370 173.567 C 241.243 161.393,234.268 143.053,218.737 140.353 C 215.248 139.747,213.398 139.954,205.050 141.889 C 201.551 142.700,198.639 143.314,198.579 143.255 C 198.520 143.195,200.588 141.237,203.176 138.902 C 208.315 134.266,214.609 127.580,218.862 122.240 C 235.981 100.747,240.447 78.377,231.256 60.160 C 225.204 48.165,214.103 39.591,201.165 36.918 C 196.709 35.998,188.145 35.999,183.662 36.920 C 178.734 37.933,173.399 40.059,169.155 42.701 C 165.202 45.162,159.212 50.666,157.254 53.636 L 156.070 55.431 154.170 52.904 C 148.794 45.752,139.356 39.583,130.375 37.350 C 126.536 36.395,120.673 35.983,115.805 36.326 M128.640 45.219 C 135.166 46.902,140.417 49.988,145.087 54.884 C 148.462 58.423,149.252 59.527,151.232 63.473 C 152.973 66.941,153.991 67.840,156.181 67.840 C 158.021 67.840,158.983 66.921,160.644 63.573 C 165.618 53.552,175.091 46.543,186.303 44.588 C 190.949 43.777,193.495 43.780,198.203 44.602 C 211.095 46.850,221.743 56.141,226.180 69.016 C 227.583 73.085,227.613 73.323,227.604 80.213 C 227.596 86.489,227.472 87.696,226.469 91.334 C 225.084 96.350,222.678 102.005,219.919 106.724 C 213.224 118.176,200.365 131.807,184.673 144.086 L 180.201 147.585 170.757 149.739 C 165.563 150.924,161.205 151.893,161.074 151.893 C 160.943 151.893,161.225 151.131,161.700 150.200 C 163.806 146.072,164.485 138.782,163.211 133.993 C 160.947 125.487,153.975 118.720,145.388 116.695 C 143.220 116.184,138.597 116.065,120.709 116.060 L 98.697 116.053 96.275 112.689 C 83.905 95.509,80.856 78.600,87.621 64.694 C 92.958 53.723,102.915 46.224,114.577 44.392 C 118.229 43.818,124.679 44.198,128.640 45.219 M146.862 125.607 C 149.967 127.180,152.882 130.095,154.361 133.106 C 155.399 135.219,155.520 135.936,155.520 139.947 C 155.520 143.910,155.389 144.707,154.381 146.857 C 153.071 149.651,150.195 152.716,147.680 153.999 C 143.795 155.982,141.983 156.160,125.744 156.160 L 110.441 156.160 109.194 157.407 C 107.539 159.062,107.538 160.809,109.192 162.660 L 110.436 164.053 127.645 164.053 L 144.853 164.053 178.560 156.186 C 215.785 147.498,216.753 147.339,220.587 149.298 C 226.324 152.229,229.001 158.347,227.223 164.465 C 226.641 166.465,226.029 167.410,224.077 169.319 C 221.706 171.638,221.234 171.867,202.240 179.940 L 182.827 188.190 151.364 196.069 L 119.902 203.947 85.978 203.947 L 52.053 203.947 52.053 178.871 L 52.053 153.795 65.387 140.517 C 72.720 133.215,79.392 126.898,80.213 126.480 C 84.818 124.138,84.032 124.187,115.413 124.284 L 144.427 124.373 146.862 125.607 M43.947 180.053 L 43.947 203.947 29.322 203.947 C 13.389 203.947,13.437 203.953,12.420 201.500 C 12.059 200.627,11.955 194.550,12.041 179.259 L 12.160 158.219 13.357 157.189 L 14.554 156.160 29.250 156.160 L 43.947 156.160 43.947 180.053 " stroke="none" fill-rule="evenodd"></path></svg>