<svg fill="currentColor" viewBox="0 0 256 256" xmlns="http://www.w3.org/2000/svg"><path d="M142.624 20.670 C 138.601 21.587,134.176 24.110,130.947 27.327 C 127.777 30.485,125.872 33.934,124.711 38.613 C 124.303 40.256,123.929 41.667,123.879 41.750 C 123.830 41.832,123.153 41.422,122.375 40.837 C 120.416 39.367,117.129 37.771,114.376 36.954 C 111.413 36.075,105.088 36.058,101.778 36.920 C 94.427 38.835,88.304 44.455,85.376 51.977 L 84.267 54.827 84.053 96.290 L 83.840 137.753 77.448 127.443 C 69.977 115.393,67.971 113.114,62.564 110.534 C 58.605 108.644,55.720 107.944,51.926 107.953 C 38.864 107.984,28.109 118.644,28.041 131.627 C 28.013 136.879,28.639 138.733,34.662 151.238 C 60.061 203.967,76.076 223.899,99.413 231.822 C 113.927 236.750,132.784 237.340,148.675 233.364 C 182.811 224.824,208.279 194.973,211.632 159.573 C 211.942 156.305,212.054 140.775,211.969 113.067 L 211.840 71.467 210.886 68.663 C 209.064 63.304,205.128 58.456,200.146 55.431 C 196.206 53.039,193.337 52.284,188.160 52.275 C 182.722 52.265,178.950 53.344,174.730 56.115 L 171.947 57.944 171.940 49.558 C 171.933 39.930,171.491 37.320,169.092 32.755 C 165.193 25.335,157.667 20.618,149.120 20.236 C 146.721 20.128,144.283 20.291,142.624 20.670 M154.812 29.602 C 157.990 31.236,160.484 33.672,162.180 36.799 L 163.627 39.467 163.840 80.489 C 164.049 120.756,164.069 121.528,164.907 122.458 C 166.162 123.851,167.564 124.264,169.201 123.724 C 171.845 122.852,171.714 124.121,171.947 97.108 L 172.160 72.320 173.514 69.461 C 175.176 65.954,177.793 63.264,181.143 61.619 C 183.434 60.494,184.095 60.373,187.956 60.373 C 191.927 60.373,192.434 60.473,195.080 61.776 C 198.355 63.388,200.792 65.905,202.556 69.495 L 203.733 71.893 203.733 115.627 C 203.733 149.717,203.609 160.160,203.171 162.987 C 198.673 191.972,178.676 215.484,150.977 224.357 C 141.988 227.236,139.193 227.608,126.507 227.608 C 113.537 227.609,110.219 227.195,102.454 224.609 C 93.791 221.724,87.328 217.474,79.942 209.806 C 69.177 198.629,59.768 183.528,44.657 153.173 L 36.480 136.747 36.480 132.267 C 36.480 128.221,36.596 127.550,37.678 125.347 C 42.505 115.517,55.712 113.218,63.291 120.890 C 64.267 121.879,69.570 129.946,75.073 138.818 C 82.476 150.751,85.398 155.112,86.304 155.581 C 87.860 156.385,89.610 156.019,90.933 154.610 L 91.947 153.532 92.160 104.606 L 92.373 55.680 93.619 53.143 C 95.227 49.869,97.925 47.197,101.180 45.658 C 110.974 41.026,122.160 47.082,123.718 57.861 C 123.968 59.590,124.147 73.325,124.152 91.219 L 124.160 121.639 125.190 122.669 C 125.756 123.235,126.713 123.822,127.315 123.973 C 128.897 124.371,131.080 122.970,131.711 121.152 C 132.094 120.051,132.226 109.722,132.236 80.133 C 132.250 42.007,132.280 40.507,133.080 38.401 C 134.772 33.950,138.310 30.527,142.967 28.837 C 146.011 27.732,151.917 28.114,154.812 29.602 " stroke="none" fill-rule="evenodd"></path></svg>