<svg fill="currentColor" viewBox="0 0 256 256" xmlns="http://www.w3.org/2000/svg"><path d="M82.133 52.333 C 69.968 53.780,63.046 55.825,53.345 60.837 C 45.806 64.732,40.761 68.461,34.344 74.877 C 27.641 81.581,24.001 86.586,20.069 94.507 C 14.133 106.465,11.490 118.558,12.097 130.987 C 13.946 168.856,41.741 198.825,79.349 203.497 C 81.485 203.763,92.605 203.947,106.533 203.947 C 129.019 203.947,130.206 203.908,132.371 203.097 C 135.253 202.019,137.991 199.272,139.104 196.342 C 139.930 194.168,139.947 192.810,139.947 128.011 C 139.947 62.343,139.941 61.883,139.069 59.554 C 138.449 57.896,137.574 56.654,136.080 55.311 C 132.367 51.973,133.034 52.045,106.697 52.117 C 93.891 52.152,82.837 52.250,82.133 52.333 M130.793 61.207 L 131.840 62.255 131.840 128.000 L 131.840 193.745 130.827 194.759 C 130.202 195.383,129.052 195.886,127.827 196.070 C 126.734 196.234,115.910 196.273,103.773 196.158 C 83.649 195.967,81.259 195.868,76.616 195.035 C 48.380 189.968,26.922 168.918,21.253 140.726 C 19.873 133.862,19.874 122.249,21.255 115.316 C 26.884 87.054,49.699 65.289,78.373 60.828 C 81.197 60.388,88.059 60.232,105.939 60.201 L 129.745 60.160 130.793 61.207 M165.468 77.173 C 164.385 78.141,164.096 78.735,164.096 80.000 C 164.096 81.265,164.385 81.859,165.468 82.827 L 166.840 84.053 203.720 84.053 C 231.404 84.053,240.879 83.926,241.719 83.544 C 242.865 83.021,244.053 81.217,244.053 80.000 C 244.053 78.783,242.865 76.979,241.719 76.456 C 240.879 76.074,231.404 75.947,203.720 75.947 L 166.840 75.947 165.468 77.173 M165.468 109.173 C 164.385 110.141,164.096 110.735,164.096 112.000 C 164.096 113.265,164.385 113.859,165.468 114.827 L 166.840 116.053 203.720 116.053 C 231.404 116.053,240.879 115.926,241.719 115.544 C 242.865 115.021,244.053 113.217,244.053 112.000 C 244.053 110.783,242.865 108.979,241.719 108.456 C 240.879 108.074,231.404 107.947,203.720 107.947 L 166.840 107.947 165.468 109.173 M165.468 141.173 C 164.385 142.141,164.096 142.735,164.096 144.000 C 164.096 145.265,164.385 145.859,165.468 146.827 L 166.840 148.053 203.720 148.053 C 231.404 148.053,240.879 147.926,241.719 147.544 C 242.865 147.021,244.053 145.217,244.053 144.000 C 244.053 142.783,242.865 140.979,241.719 140.456 C 240.879 140.074,231.404 139.947,203.720 139.947 L 166.840 139.947 165.468 141.173 M165.468 173.173 C 164.385 174.141,164.096 174.735,164.096 176.000 C 164.096 177.265,164.385 177.859,165.468 178.827 L 166.840 180.053 203.720 180.053 C 231.404 180.053,240.879 179.926,241.719 179.544 C 242.865 179.021,244.053 177.217,244.053 176.000 C 244.053 174.783,242.865 172.979,241.719 172.456 C 240.879 172.074,231.404 171.947,203.720 171.947 L 166.840 171.947 165.468 173.173 " stroke="none" fill-rule="evenodd"></path></svg>