<svg fill="currentColor" viewBox="0 0 256 256" xmlns="http://www.w3.org/2000/svg"><path d="M173.440 36.330 C 168.244 36.667,163.691 37.598,158.791 39.327 C 149.689 42.538,144.063 46.284,134.932 55.211 L 127.992 61.996 121.276 55.405 C 111.908 46.210,105.497 42.067,95.683 38.864 C 87.781 36.286,76.947 35.520,68.267 36.927 C 47.914 40.225,30.166 55.223,23.340 74.891 C 20.741 82.378,20.269 85.419,20.289 94.507 C 20.306 101.617,20.448 103.270,21.443 107.956 C 25.736 128.154,36.964 146.849,57.154 167.412 C 74.603 185.184,94.641 200.736,118.837 215.286 C 124.700 218.811,126.858 219.898,128.000 219.898 C 129.142 219.898,131.300 218.811,137.163 215.286 C 161.359 200.736,181.397 185.184,198.846 167.412 C 219.275 146.605,230.612 127.548,234.739 107.074 C 236.054 100.552,236.152 88.366,234.934 82.785 C 230.351 61.786,216.097 45.717,196.122 39.034 C 188.851 36.601,181.949 35.778,173.440 36.330 M87.504 44.962 C 94.365 46.284,101.196 49.219,107.093 53.379 C 108.853 54.620,113.035 58.321,116.386 61.603 L 122.479 67.570 115.213 74.879 C 108.666 81.465,107.947 82.332,107.947 83.640 C 107.947 84.976,109.074 86.220,122.232 99.399 L 136.518 113.708 126.286 123.965 C 116.536 133.739,116.053 134.299,116.053 135.838 C 116.053 138.091,117.909 139.947,120.163 139.947 C 121.706 139.947,122.296 139.431,133.468 128.320 C 140.133 121.691,145.422 116.084,145.771 115.275 C 146.108 114.495,146.261 113.439,146.111 112.929 C 145.961 112.418,139.472 105.612,131.692 97.804 L 117.547 83.607 131.627 69.602 C 146.111 55.194,149.166 52.608,155.458 49.427 C 162.745 45.742,169.676 44.162,178.347 44.208 C 184.590 44.241,187.737 44.705,193.048 46.376 C 208.642 51.280,221.341 64.239,225.870 79.870 C 229.085 90.963,228.292 104.506,223.701 116.907 C 215.019 140.356,194.028 164.817,161.707 189.149 C 151.663 196.711,129.525 211.200,128.016 211.200 C 126.921 211.200,112.112 201.874,102.567 195.173 C 66.268 169.690,41.652 142.274,32.294 116.907 C 27.706 104.469,26.916 90.958,30.130 79.870 C 35.562 61.122,52.355 46.785,71.680 44.394 C 75.767 43.888,83.339 44.160,87.504 44.962 " stroke="none" fill-rule="evenodd"></path></svg>