<svg fill="currentColor" viewBox="0 0 256 256" xmlns="http://www.w3.org/2000/svg"><path d="M67.769 36.911 C 44.247 41.339,26.292 58.975,21.060 82.791 C 20.435 85.635,20.272 88.118,20.290 94.507 C 20.311 101.597,20.455 103.283,21.446 107.956 C 25.724 128.135,36.962 146.847,57.154 167.412 C 74.603 185.184,94.641 200.736,118.837 215.286 C 124.700 218.811,126.858 219.898,128.000 219.898 C 129.142 219.898,131.300 218.811,137.163 215.286 C 161.359 200.736,181.397 185.184,198.846 167.412 C 219.275 146.605,230.612 127.548,234.739 107.074 C 235.558 103.016,235.725 100.847,235.724 94.293 C 235.723 85.441,235.223 82.275,232.660 74.891 C 225.808 55.147,208.471 40.478,187.733 36.880 C 182.178 35.916,169.525 36.234,164.267 37.469 C 156.770 39.231,149.978 42.139,143.987 46.151 C 139.799 48.956,132.674 55.982,130.119 59.826 C 129.071 61.403,128.117 62.693,128.000 62.693 C 127.883 62.693,126.982 61.499,125.999 60.040 C 118.649 49.134,106.076 40.850,91.733 37.466 C 86.874 36.319,72.662 35.990,67.769 36.911 M89.545 45.281 C 104.544 48.526,116.272 57.372,122.728 70.309 C 124.846 74.555,126.148 75.947,128.000 75.947 C 129.770 75.947,131.311 74.448,132.709 71.364 C 135.336 65.570,140.476 59.126,146.252 54.385 C 150.980 50.504,158.470 47.105,166.187 45.338 C 171.764 44.060,181.143 43.787,186.453 44.746 C 205.201 48.134,220.667 61.915,225.870 79.870 C 229.085 90.963,228.292 104.506,223.701 116.907 C 215.019 140.356,194.028 164.817,161.707 189.149 C 151.663 196.711,129.525 211.200,128.016 211.200 C 126.921 211.200,112.112 201.874,102.567 195.173 C 61.555 166.381,35.963 135.696,29.641 107.733 C 28.238 101.524,27.766 92.475,28.563 87.028 C 30.164 76.075,35.019 66.447,42.863 58.667 C 50.359 51.232,59.974 46.252,69.547 44.846 C 71.307 44.587,73.227 44.292,73.813 44.190 C 76.163 43.779,85.641 44.437,89.545 45.281 " stroke="none" fill-rule="evenodd"></path></svg>