<svg fill="currentColor" viewBox="0 0 256 256" xmlns="http://www.w3.org/2000/svg"><path d="M60.454 46.127 C 55.073 51.709,48.147 61.336,43.297 69.973 C 36.546 81.996,31.877 95.547,29.147 111.039 C 28.541 114.473,28.429 120.692,28.287 158.811 L 28.123 202.635 29.053 204.797 C 30.275 207.639,33.509 210.555,36.386 211.409 C 38.167 211.938,41.703 212.053,56.168 212.053 C 73.096 212.053,73.876 212.018,76.211 211.144 C 79.389 209.955,81.955 207.389,83.144 204.211 C 84.039 201.821,84.053 201.320,84.053 173.211 C 84.053 157.497,84.179 144.640,84.332 144.640 C 84.737 144.640,89.697 147.434,93.653 149.891 C 102.812 155.578,113.634 165.046,121.058 173.867 C 126.843 180.740,131.903 188.711,136.831 198.711 C 141.453 208.089,142.117 209.007,145.657 210.900 L 147.413 211.840 194.319 211.954 C 247.398 212.083,244.195 212.271,247.903 208.803 C 249.033 207.746,250.405 205.981,250.952 204.881 C 251.862 203.049,251.944 202.356,251.912 196.693 C 251.881 191.216,251.748 190.115,250.754 187.093 C 250.136 185.216,248.941 182.528,248.098 181.120 C 244.885 175.754,238.897 170.905,233.173 169.034 C 231.765 168.574,218.805 165.558,204.373 162.331 L 178.133 156.463 122.015 100.407 C 58.145 36.608,64.353 42.082,60.454 46.127 M119.041 108.613 C 148.960 138.547,173.775 163.225,174.185 163.453 C 174.594 163.681,187.597 166.727,203.079 170.221 C 234.083 177.218,233.914 177.164,238.082 181.332 C 242.220 185.469,244.030 190.302,244.046 197.248 C 244.054 200.794,243.405 202.725,241.944 203.507 C 241.395 203.801,225.897 203.947,195.252 203.947 L 149.381 203.947 148.303 202.987 C 147.710 202.459,146.198 199.719,144.943 196.899 C 139.024 183.599,130.455 171.308,119.507 160.415 C 112.650 153.592,108.555 150.241,100.480 144.844 C 82.463 132.802,62.242 125.898,40.427 124.340 L 36.267 124.043 36.267 121.777 C 36.267 118.553,37.406 110.282,38.610 104.764 C 42.102 88.760,49.113 73.620,59.228 60.235 C 61.266 57.539,63.124 55.075,63.358 54.760 C 63.591 54.445,63.976 54.187,64.212 54.187 C 64.448 54.187,89.121 78.678,119.041 108.613 M49.178 133.350 C 57.366 134.580,68.268 137.478,74.086 139.972 L 75.947 140.770 75.947 171.111 L 75.947 201.452 74.699 202.699 L 73.452 203.947 55.907 203.947 L 38.361 203.947 37.314 202.899 L 36.267 201.852 36.267 166.995 L 36.267 132.138 40.564 132.420 C 42.927 132.575,46.804 132.993,49.178 133.350 " stroke="none" fill-rule="evenodd"></path></svg>