<svg fill="currentColor" viewBox="0 0 256 256" xmlns="http://www.w3.org/2000/svg"><path d="M84.815 36.331 C 82.672 36.637,81.549 37.134,79.435 38.713 C 77.526 40.138,20.053 126.324,20.053 127.761 C 20.053 129.326,42.574 211.575,43.566 213.635 C 44.604 215.787,46.826 217.824,49.472 219.048 C 51.332 219.909,52.056 219.947,66.773 219.947 C 80.858 219.947,82.308 219.879,84.242 219.134 C 87.036 218.056,89.697 215.535,90.938 212.790 C 91.903 210.657,91.952 210.072,92.079 199.360 L 92.212 188.160 128.000 188.160 L 163.788 188.160 163.921 199.360 C 164.048 210.072,164.097 210.657,165.062 212.790 C 166.303 215.535,168.964 218.056,171.758 219.134 C 173.692 219.879,175.142 219.947,189.227 219.947 C 203.944 219.947,204.668 219.909,206.528 219.048 C 209.174 217.824,211.396 215.787,212.434 213.635 C 213.427 211.573,235.947 129.325,235.947 127.758 C 235.947 127.099,225.401 110.906,206.931 83.202 C 176.787 37.990,176.738 37.923,173.068 36.711 C 171.542 36.208,88.188 35.848,84.815 36.331 M170.784 44.407 C 171.340 44.661,173.272 47.054,175.078 49.726 L 178.360 54.585 177.393 55.196 C 172.548 58.260,128.222 83.217,127.803 83.117 C 126.769 82.871,78.080 54.855,78.080 54.507 C 78.080 53.819,84.048 45.279,84.989 44.620 C 85.848 44.018,90.383 43.947,127.862 43.947 C 156.953 43.947,170.082 44.088,170.784 44.407 M92.373 72.275 L 107.733 81.063 107.947 109.475 L 108.160 137.888 109.357 138.917 C 110.940 140.278,113.060 140.278,114.643 138.917 L 115.840 137.888 115.956 111.866 L 116.072 85.845 121.290 88.802 C 124.159 90.429,126.915 91.864,127.415 91.993 C 128.402 92.247,130.299 91.377,136.213 87.957 L 139.947 85.799 139.947 107.507 L 139.947 129.215 141.051 130.527 C 142.588 132.353,145.018 132.381,146.806 130.593 L 148.053 129.346 148.053 105.264 L 148.053 81.182 163.839 72.164 C 172.522 67.205,179.722 63.147,179.839 63.147 C 179.957 63.147,180.053 88.674,180.053 119.873 C 180.053 162.945,179.931 176.869,179.544 177.719 C 178.429 180.165,180.897 180.053,128.041 180.053 C 91.238 180.053,79.128 179.929,78.281 179.544 C 75.821 178.423,75.947 181.626,75.947 119.869 C 75.947 74.588,76.055 63.099,76.480 63.271 C 76.773 63.389,83.925 67.441,92.373 72.275 M69.040 180.739 C 71.075 185.236,75.068 187.738,80.747 188.074 L 84.053 188.270 84.053 198.476 C 84.053 209.566,83.876 210.561,81.719 211.544 C 80.925 211.905,76.581 212.053,66.760 212.053 L 52.920 212.053 51.652 210.880 C 50.468 209.785,49.660 207.047,39.485 169.677 C 33.491 147.660,28.587 129.372,28.587 129.036 C 28.587 128.700,37.371 115.249,48.107 99.145 L 67.627 69.864 67.840 124.212 L 68.053 178.560 69.040 180.739 M208.162 99.518 C 218.750 115.415,227.413 128.697,227.413 129.034 C 227.413 129.371,222.509 147.660,216.515 169.677 C 206.340 207.047,205.532 209.785,204.348 210.880 L 203.080 212.053 189.240 212.053 C 179.419 212.053,175.075 211.905,174.281 211.544 C 172.124 210.561,171.947 209.566,171.947 198.476 L 171.947 188.270 175.253 188.074 C 180.932 187.738,184.925 185.236,186.960 180.739 L 187.947 178.560 188.060 124.188 C 188.123 93.563,188.334 69.990,188.542 70.214 C 188.745 70.434,197.574 83.620,208.162 99.518 " stroke="none" fill-rule="evenodd"></path></svg>