<svg fill="currentColor" viewBox="0 0 256 256" xmlns="http://www.w3.org/2000/svg"><path d="M117.158 29.473 L 116.053 30.785 116.053 46.267 L 116.053 61.749 65.191 93.061 C 37.217 110.283,13.882 124.757,13.337 125.227 C 12.791 125.696,12.243 126.752,12.119 127.573 C 11.915 128.930,12.588 130.176,19.494 141.227 C 27.616 154.223,29.954 157.103,34.676 159.924 C 41.083 163.751,47.539 164.627,57.498 163.019 C 66.733 161.528,74.424 160.863,82.470 160.858 C 93.935 160.851,102.165 161.981,110.882 164.761 C 114.019 165.761,120.864 168.511,121.940 169.203 C 122.034 169.263,91.244 211.816,90.713 212.360 C 90.663 212.412,88.608 211.444,86.147 210.211 C 80.737 207.499,74.403 203.398,69.664 199.538 C 65.341 196.017,64.454 195.639,62.472 196.467 C 60.130 197.446,59.379 200.049,60.800 202.266 C 61.434 203.256,66.304 207.257,70.187 209.979 C 83.500 219.311,99.500 225.368,116.255 227.419 C 121.402 228.049,133.620 228.054,138.880 227.429 C 172.035 223.485,200.728 203.911,216.458 174.507 C 221.845 164.437,226.093 150.609,227.404 138.880 C 228.045 133.145,227.933 121.077,227.185 115.329 C 223.867 89.811,211.013 66.750,190.991 50.393 C 182.536 43.486,171.055 37.130,160.562 33.549 C 149.378 29.732,139.365 28.160,126.227 28.160 L 118.263 28.160 117.158 29.473 M143.360 37.307 C 157.958 39.841,170.961 45.421,183.040 54.333 C 187.758 57.815,195.661 65.384,199.371 69.973 C 210.166 83.330,217.110 99.730,219.332 117.120 C 219.978 122.179,219.979 134.003,219.332 139.093 C 215.925 165.933,201.128 189.802,178.560 204.866 C 173.039 208.551,164.042 212.885,157.186 215.162 C 139.915 220.898,122.516 221.562,104.827 217.160 C 102.054 216.470,99.527 215.759,99.210 215.580 C 98.787 215.340,102.804 209.519,114.295 193.722 L 129.957 172.191 134.169 171.662 C 154.195 169.147,170.889 155.506,177.268 136.445 C 179.017 131.218,180.200 124.219,179.949 120.576 C 179.805 118.479,179.581 117.890,178.611 117.056 C 177.082 115.740,174.926 115.734,173.407 117.040 C 172.359 117.942,172.229 118.405,171.886 122.460 C 170.904 134.065,166.647 143.494,158.922 151.168 C 151.789 158.255,141.695 163.041,132.476 163.706 C 129.063 163.952,129.056 163.950,125.115 161.971 C 117.555 158.174,111.418 156.133,102.613 154.486 C 89.671 152.065,76.406 152.154,59.307 154.776 C 50.790 156.082,46.902 156.171,43.448 155.137 C 40.332 154.204,36.384 151.642,34.417 149.277 C 32.853 147.397,21.743 129.878,21.780 129.351 C 21.790 129.195,44.472 115.147,72.182 98.133 C 109.381 75.294,122.773 66.865,123.361 65.920 C 124.096 64.738,124.157 63.557,124.158 50.477 L 124.160 36.313 126.187 36.183 C 129.705 35.958,139.148 36.575,143.360 37.307 M120.533 92.845 C 118.475 93.969,117.403 95.150,116.648 97.126 C 114.091 103.821,120.853 110.108,127.410 107.130 C 130.116 105.901,131.562 103.699,131.739 100.535 C 131.915 97.403,131.130 95.620,128.731 93.703 C 127.392 92.633,126.661 92.389,124.464 92.279 C 122.606 92.186,121.430 92.355,120.533 92.845 " stroke="none" fill-rule="evenodd"></path></svg>