<svg fill="currentColor" viewBox="0 0 256 256" xmlns="http://www.w3.org/2000/svg"><path d="M50.987 37.273 C 45.013 40.067,42.443 46.998,45.149 53.013 C 46.141 55.218,46.855 55.921,88.960 96.188 C 107.029 113.469,121.813 127.785,121.813 128.002 C 121.813 128.219,109.237 140.430,93.867 155.138 C 49.115 197.960,46.245 200.775,45.246 202.839 C 42.398 208.722,45.010 215.917,51.089 218.937 L 53.120 219.947 128.000 219.947 L 202.880 219.947 204.881 218.952 C 211.005 215.907,213.627 208.774,210.781 202.896 C 209.702 200.667,208.272 199.259,167.253 160.026 C 149.067 142.631,134.187 128.220,134.187 128.002 C 134.187 127.784,146.763 115.574,162.133 100.869 C 206.661 58.269,209.746 55.242,210.751 53.166 C 213.604 47.272,211.008 40.060,205.030 37.276 L 202.880 36.275 128.000 36.275 L 53.120 36.275 50.987 37.273 M202.917 45.357 C 203.589 46.138,203.947 47.083,203.947 48.074 C 203.947 49.987,206.721 47.212,163.093 88.930 L 127.999 122.488 92.693 88.715 C 49.874 47.756,52.052 49.918,52.060 48.367 C 52.068 46.696,52.928 45.136,54.195 44.493 C 55.036 44.066,70.299 43.976,128.570 44.058 L 201.887 44.160 202.917 45.357 M163.324 167.304 C 207.035 209.117,203.947 206.029,203.947 207.929 C 203.947 208.917,203.588 209.863,202.917 210.643 L 201.887 211.840 128.000 211.840 L 54.113 211.840 53.083 210.643 C 51.851 209.211,51.724 207.000,52.800 205.697 C 53.518 204.827,127.657 133.641,127.911 133.577 C 127.979 133.561,143.915 148.737,163.324 167.304 " stroke="none" fill-rule="evenodd"></path></svg>