<svg fill="currentColor" viewBox="0 0 256 256" xmlns="http://www.w3.org/2000/svg"><path d="M123.093 29.163 C 121.451 29.928,111.460 39.126,79.669 69.139 C 43.396 103.383,38.236 108.408,37.215 110.487 L 36.053 112.853 36.053 161.493 C 36.053 208.310,36.084 210.212,36.866 212.242 C 37.944 215.036,40.465 217.697,43.210 218.938 L 45.440 219.947 72.107 219.947 L 98.773 219.947 101.207 218.752 C 103.801 217.478,105.279 216.000,106.794 213.170 C 107.726 211.427,107.735 211.211,107.947 184.816 L 108.160 158.219 109.357 157.189 L 110.554 156.160 128.000 156.160 L 145.446 156.160 146.643 157.189 L 147.840 158.219 148.053 184.816 C 148.265 211.211,148.274 211.427,149.206 213.170 C 150.721 216.000,152.199 217.478,154.793 218.752 L 157.227 219.947 183.893 219.947 L 210.560 219.947 212.790 218.938 C 215.535 217.697,218.056 215.036,219.134 212.242 C 219.916 210.212,219.947 208.310,219.947 161.493 L 219.947 112.853 218.785 110.487 C 217.764 108.409,212.604 103.384,176.331 69.141 C 144.581 39.167,134.547 29.930,132.907 29.164 C 129.977 27.796,126.026 27.796,123.093 29.163 M132.822 39.156 C 172.202 76.198,211.568 113.579,211.780 114.130 C 211.930 114.522,212.053 135.938,212.053 161.721 C 212.053 197.158,211.929 208.873,211.544 209.719 C 210.467 212.082,210.805 212.053,183.725 212.053 L 158.768 212.053 157.570 211.024 L 156.373 209.995 156.160 183.611 L 155.947 157.227 154.752 154.793 C 153.478 152.199,152.000 150.721,149.170 149.206 C 147.433 148.277,147.191 148.267,128.000 148.267 C 108.809 148.267,108.567 148.277,106.830 149.206 C 104.000 150.721,102.522 152.199,101.248 154.793 L 100.053 157.227 99.840 183.611 L 99.627 209.995 98.430 211.024 L 97.232 212.053 72.275 212.053 C 45.195 212.053,45.533 212.082,44.456 209.719 C 44.071 208.873,43.947 197.123,43.947 161.568 C 43.947 119.341,44.016 114.438,44.623 113.571 C 45.127 112.852,99.774 61.069,123.808 38.537 C 125.925 36.552,126.452 36.267,127.991 36.267 C 129.578 36.267,130.054 36.551,132.822 39.156 " stroke="none" fill-rule="evenodd"></path></svg>