<svg fill="currentColor" viewBox="0 0 256 256" xmlns="http://www.w3.org/2000/svg"><path d="M123.093 29.165 C 121.454 29.931,111.403 39.184,79.666 69.146 C 43.429 103.357,38.231 108.420,37.213 110.492 L 36.053 112.853 36.053 161.707 L 36.053 210.560 37.062 212.790 C 38.303 215.535,40.964 218.056,43.758 219.134 C 45.806 219.923,48.242 219.947,128.000 219.947 C 207.758 219.947,210.194 219.923,212.242 219.134 C 215.036 218.056,217.697 215.535,218.938 212.790 L 219.947 210.560 219.947 161.707 L 219.947 112.853 218.785 110.487 C 217.764 108.408,212.604 103.383,176.331 69.139 C 144.540 39.126,134.549 29.928,132.907 29.163 C 129.973 27.795,126.023 27.796,123.093 29.165 M132.410 38.754 C 133.857 40.122,152.245 57.482,173.274 77.331 C 195.366 98.184,211.621 113.842,211.775 114.417 C 211.922 114.965,212.044 136.380,212.048 162.007 C 212.052 197.233,211.929 208.873,211.544 209.719 C 210.412 212.203,215.761 212.053,128.000 212.053 C 40.239 212.053,45.588 212.203,44.456 209.719 C 44.071 208.873,43.947 197.123,43.947 161.568 C 43.947 119.341,44.016 114.438,44.623 113.571 C 45.127 112.852,99.774 61.069,123.808 38.537 C 125.932 36.546,126.448 36.267,128.005 36.267 C 129.584 36.267,130.072 36.542,132.410 38.754 " stroke="none" fill-rule="evenodd"></path></svg>