<svg fill="currentColor" viewBox="0 0 256 256" xmlns="http://www.w3.org/2000/svg"><path d="M120.107 12.449 C 89.333 15.550,62.980 37.843,54.805 67.689 C 53.053 74.083,52.431 78.336,52.176 85.653 C 51.959 91.871,51.857 92.587,51.190 92.587 C 50.780 92.587,48.903 93.359,47.017 94.303 C 41.175 97.227,37.268 102.569,36.222 109.065 C 35.316 114.694,37.208 120.981,41.105 125.288 C 45.130 129.737,49.526 131.607,57.077 132.085 L 61.875 132.389 93.065 187.048 C 110.220 217.110,124.813 242.235,125.495 242.880 C 127.124 244.423,128.876 244.423,130.505 242.880 C 131.187 242.235,145.780 217.110,162.935 187.048 L 194.125 132.389 198.923 132.085 C 206.446 131.609,210.893 129.726,214.828 125.348 C 222.139 117.217,221.549 104.702,213.505 97.287 C 211.612 95.542,206.117 92.587,204.765 92.587 C 204.156 92.587,204.035 91.693,203.824 85.653 C 203.421 74.084,200.957 64.017,196.203 54.505 C 181.859 25.812,151.885 9.246,120.107 12.449 M135.449 20.498 C 165.005 23.884,188.349 45.176,194.605 74.453 C 195.311 77.754,195.565 80.767,195.730 87.759 C 195.913 95.515,196.054 96.980,196.723 98.079 C 197.509 99.372,199.562 100.255,201.813 100.268 C 203.422 100.278,206.970 102.089,208.536 103.699 C 210.825 106.052,211.814 108.574,211.794 112.000 C 211.783 113.756,211.494 115.635,211.094 116.561 C 210.120 118.808,207.228 121.785,204.887 122.949 L 202.880 123.947 128.000 123.947 L 53.120 123.947 51.139 122.961 C 43.569 119.195,41.736 109.588,47.464 103.699 C 49.030 102.089,52.578 100.278,54.187 100.268 C 56.439 100.255,58.491 99.372,59.278 98.078 C 59.948 96.976,60.089 95.498,60.282 87.544 C 60.587 74.930,62.009 68.607,66.778 58.653 C 79.266 32.587,106.908 17.229,135.449 20.498 M120.918 169.627 L 142.210 206.958 141.185 208.794 C 135.968 218.137,128.171 231.655,128.000 231.653 C 127.816 231.650,71.708 133.623,71.324 132.634 C 71.246 132.432,77.582 132.273,85.404 132.281 L 99.627 132.296 120.918 169.627 M149.062 152.909 C 155.547 164.262,160.853 173.743,160.853 173.977 C 160.853 174.210,157.707 179.910,153.861 186.642 L 146.868 198.882 128.640 166.961 C 118.615 149.405,110.034 134.416,109.571 133.653 L 108.730 132.267 123.001 132.267 L 137.271 132.267 149.062 152.909 M184.747 132.430 C 184.747 132.520,180.499 140.025,175.307 149.108 C 167.666 162.474,165.766 165.514,165.341 165.051 C 164.734 164.391,146.773 132.937,146.773 132.535 C 146.773 132.387,155.317 132.267,165.760 132.267 C 176.203 132.267,184.747 132.340,184.747 132.430 " stroke="none" fill-rule="evenodd"></path></svg>