<svg fill="currentColor" viewBox="0 0 256 256" xmlns="http://www.w3.org/2000/svg"><path d="M69.333 44.344 C 65.766 45.225,62.543 47.891,61.047 51.200 C 60.244 52.975,60.178 53.981,60.169 64.503 L 60.160 75.886 48.533 76.023 L 36.907 76.160 34.773 77.295 C 32.112 78.711,30.172 80.712,29.047 83.200 C 28.187 85.101,28.179 85.705,28.174 144.000 L 28.168 202.880 29.169 205.030 C 30.463 207.808,33.610 210.585,36.406 211.415 C 38.277 211.971,48.059 212.053,112.000 212.053 C 176.256 212.053,185.717 211.973,187.614 211.409 C 190.509 210.550,193.713 207.647,195.014 204.706 C 195.958 202.572,196.020 201.862,196.185 191.253 L 196.359 180.053 206.902 180.053 C 215.062 180.053,217.935 179.908,219.614 179.409 C 222.489 178.555,225.704 175.651,227.035 172.706 L 228.053 170.453 228.053 112.213 C 228.053 56.110,228.024 53.897,227.246 51.881 C 226.207 49.187,223.976 46.737,221.254 45.300 L 219.093 44.160 144.853 44.094 C 104.021 44.058,70.037 44.170,69.333 44.344 M218.247 52.737 C 218.821 53.113,219.485 54.121,219.723 54.977 C 219.999 55.971,220.156 69.557,220.158 92.583 L 220.160 128.633 210.880 119.396 C 205.033 113.577,200.890 109.798,199.680 109.182 C 196.963 107.799,192.149 107.801,189.440 109.188 C 188.194 109.825,183.249 114.422,175.354 122.281 L 163.189 134.392 139.088 110.261 C 124.689 95.844,114.305 85.775,113.293 85.248 C 110.895 84.001,106.924 83.762,104.058 84.693 C 101.917 85.388,100.618 86.577,85.013 102.121 L 68.267 118.802 68.267 86.474 L 68.267 54.146 69.396 53.100 L 70.525 52.053 143.864 52.053 C 210.427 52.053,217.300 52.117,218.247 52.737 M169.232 76.572 C 164.357 78.310,162.632 83.917,165.525 88.623 C 167.125 91.227,170.946 92.512,174.239 91.554 C 178.958 90.182,181.260 85.258,179.251 80.836 C 178.296 78.731,176.296 76.982,174.173 76.392 C 172.123 75.823,171.243 75.855,169.232 76.572 M60.164 127.467 L 60.168 170.880 61.169 173.030 C 62.463 175.808,65.610 178.585,68.406 179.415 C 70.268 179.968,78.412 180.053,129.357 180.053 L 188.160 180.053 188.158 189.760 C 188.156 195.123,187.958 200.177,187.714 201.054 C 186.840 204.203,193.560 203.947,111.886 203.947 L 38.361 203.947 37.314 202.899 L 36.267 201.852 36.267 143.999 L 36.267 86.146 37.396 85.100 L 38.525 84.053 49.342 84.053 L 60.160 84.053 60.164 127.467 M135.458 117.739 C 149.543 131.808,161.595 143.515,162.240 143.755 C 163.041 144.054,163.785 144.053,164.587 143.754 C 165.232 143.513,171.911 137.182,179.429 129.684 C 193.868 115.284,193.900 115.259,196.401 116.525 C 196.914 116.784,202.469 122.111,208.747 128.362 L 220.160 139.727 220.158 153.597 C 220.156 161.825,219.976 168.112,219.714 169.054 C 218.840 172.203,225.560 171.947,143.886 171.947 L 70.361 171.947 69.314 170.899 L 68.267 169.852 68.267 149.875 L 68.267 129.898 87.167 111.029 L 106.067 92.160 107.959 92.160 L 109.850 92.160 135.458 117.739 " stroke="none" fill-rule="evenodd"></path></svg>