<svg fill="currentColor" viewBox="0 0 256 256" xmlns="http://www.w3.org/2000/svg"><path d="M89.387 20.304 C 88.683 20.404,86.571 20.690,84.693 20.939 C 73.767 22.390,61.760 27.206,52.053 34.030 C 45.964 38.311,37.194 47.278,33.174 53.333 C 27.319 62.153,23.306 71.798,21.251 81.991 C 20.416 86.134,20.276 88.141,20.276 96.000 C 20.276 103.859,20.416 105.866,21.251 110.009 C 26.555 136.317,44.314 157.483,69.123 167.064 C 72.657 168.429,79.540 170.314,82.987 170.862 L 84.693 171.133 85.682 175.700 C 92.195 205.769,115.519 228.606,145.991 234.749 C 150.138 235.585,152.132 235.723,160.000 235.721 C 169.752 235.717,172.684 235.349,180.605 233.133 C 198.035 228.257,213.789 216.646,223.680 201.387 C 229.225 192.834,232.776 183.893,234.950 173.013 C 235.546 170.032,235.717 167.123,235.717 160.000 C 235.717 150.246,235.351 147.322,233.133 139.395 C 225.680 112.757,203.519 91.812,176.557 85.925 L 171.141 84.743 170.866 83.011 C 170.315 79.543,168.433 72.667,167.062 69.118 C 162.804 58.092,156.906 49.287,148.199 40.960 C 137.245 30.483,124.218 23.938,108.587 21.056 C 105.301 20.450,92.023 19.930,89.387 20.304 M109.440 29.444 C 127.578 33.274,143.038 43.822,153.075 59.216 C 156.969 65.187,160.792 74.136,162.136 80.427 C 162.386 81.600,162.684 82.866,162.797 83.241 C 162.975 83.833,162.235 83.956,157.128 84.182 C 143.613 84.782,131.917 88.291,120.683 95.118 C 98.294 108.721,84.112 133.397,84.062 158.835 L 84.053 163.003 82.880 162.737 C 68.659 159.513,57.581 153.556,48.013 143.987 C 42.588 138.563,38.698 133.114,35.227 126.080 C 32.279 120.106,30.385 114.645,29.152 108.571 C 27.956 102.675,28.068 88.372,29.357 82.560 C 33.885 62.125,46.059 45.812,64.000 36.134 C 70.841 32.443,79.810 29.572,87.505 28.608 C 92.715 27.955,104.520 28.406,109.440 29.444 M163.840 96.609 C 163.840 103.548,162.830 109.894,160.603 116.941 C 159.605 120.103,156.829 126.720,156.502 126.720 C 156.428 126.720,150.244 120.594,142.760 113.106 L 129.151 99.493 131.265 98.422 C 134.659 96.702,141.618 94.430,146.399 93.481 C 151.915 92.387,152.650 92.312,158.827 92.228 L 163.840 92.160 163.840 96.609 M175.573 93.864 C 188.559 96.639,202.906 105.455,211.753 116.098 C 239.979 150.055,229.793 200.565,190.692 220.533 C 168.209 232.015,141.147 229.940,120.333 215.140 C 115.182 211.477,108.546 204.847,104.849 199.667 C 100.124 193.049,95.371 182.623,93.864 175.573 C 93.614 174.400,93.316 173.132,93.202 172.756 C 93.022 172.159,93.768 172.041,99.085 171.820 C 114.023 171.201,127.809 166.525,139.947 157.959 C 145.173 154.271,154.271 145.173,157.959 139.947 C 166.525 127.809,171.201 114.023,171.820 99.085 C 172.041 93.768,172.159 93.022,172.756 93.202 C 173.132 93.316,174.400 93.614,175.573 93.864 M137.357 118.797 L 152.469 133.913 149.969 137.250 C 146.912 141.329,141.183 147.071,137.172 150.076 C 135.530 151.306,134.090 152.314,133.971 152.316 C 133.853 152.318,126.955 145.518,118.643 137.203 L 103.531 122.087 106.037 118.750 C 109.172 114.574,114.438 109.286,118.613 106.121 C 120.373 104.787,121.910 103.692,122.029 103.688 C 122.147 103.684,129.045 110.482,137.357 118.797 M113.266 142.919 L 126.900 156.559 123.717 158.020 C 115.790 161.659,105.846 163.840,97.176 163.840 L 92.037 163.840 92.270 157.333 C 92.536 149.911,93.572 144.234,95.865 137.649 C 97.138 133.989,99.201 129.280,99.530 129.280 C 99.586 129.280,105.767 135.418,113.266 142.919 " stroke="none" fill-rule="evenodd"></path></svg>