<svg fill="currentColor" viewBox="0 0 256 256" xmlns="http://www.w3.org/2000/svg"><path d="M37.088 37.368 L 36.053 38.469 35.946 99.554 C 35.840 159.467,35.854 160.666,36.670 162.000 C 37.229 162.914,38.036 163.509,39.124 163.811 C 40.180 164.105,49.726 164.263,66.453 164.264 L 92.160 164.267 92.160 190.838 C 92.160 219.816,92.060 218.634,94.596 219.680 C 95.480 220.045,111.492 220.143,156.684 220.059 L 217.581 219.947 218.764 218.764 L 219.947 217.581 220.059 156.684 C 220.143 111.492,220.045 95.480,219.680 94.596 C 218.634 92.060,219.816 92.160,190.838 92.160 L 164.267 92.160 164.264 66.453 C 164.263 50.080,164.102 40.170,163.821 39.159 C 162.950 36.022,168.359 36.267,99.819 36.267 L 38.122 36.267 37.088 37.368 M156.160 68.053 L 156.160 92.160 125.207 92.160 L 94.255 92.160 93.207 93.207 L 92.160 94.255 92.160 125.207 L 92.160 156.160 68.053 156.160 L 43.947 156.160 43.947 100.053 L 43.947 43.947 100.053 43.947 L 156.160 43.947 156.160 68.053 M156.160 125.227 C 156.160 138.955,156.111 150.187,156.052 150.187 C 155.993 150.187,144.713 138.955,130.987 125.227 L 106.029 100.267 131.095 100.267 L 156.160 100.267 156.160 125.227 M212.053 156.160 L 212.053 212.053 156.160 212.053 L 100.267 212.053 100.267 188.160 L 100.267 164.267 129.813 164.264 C 149.026 164.263,159.921 164.106,160.964 163.816 C 164.220 162.912,164.039 164.783,164.171 130.686 L 164.289 100.267 188.171 100.267 L 212.053 100.267 212.053 156.160 M125.440 131.200 L 150.397 156.160 125.332 156.160 L 100.267 156.160 100.267 131.200 C 100.267 117.472,100.315 106.240,100.375 106.240 C 100.434 106.240,111.714 117.472,125.440 131.200 " stroke="none" fill-rule="evenodd"></path></svg>