<svg fill="currentColor" viewBox="0 0 256 256" xmlns="http://www.w3.org/2000/svg"><path d="M37.424 53.074 C 36.818 53.635,36.207 54.739,36.066 55.527 C 35.924 56.315,35.863 91.520,35.931 133.760 L 36.053 210.560 37.062 212.790 C 38.303 215.535,40.964 218.056,43.758 219.134 C 45.736 219.896,47.258 219.947,68.267 219.947 C 90.098 219.947,90.715 219.924,92.587 219.054 C 96.776 217.107,99.074 214.066,99.812 209.493 C 100.089 207.783,100.261 197.033,100.263 181.440 L 100.267 156.160 128.189 156.160 L 156.111 156.160 156.242 168.000 L 156.373 179.840 157.538 181.822 C 158.920 184.172,160.783 185.832,163.413 187.054 C 165.285 187.924,165.902 187.947,187.733 187.947 C 208.742 187.947,210.264 187.896,212.242 187.134 C 215.036 186.056,217.697 183.535,218.938 180.790 L 219.947 178.560 220.070 117.760 C 220.137 84.320,220.077 56.315,219.935 55.527 C 219.793 54.739,219.182 53.635,218.576 53.074 L 217.475 52.053 128.000 52.053 L 38.525 52.053 37.424 53.074 M92.160 88.107 L 92.160 116.053 68.053 116.053 L 43.947 116.053 43.947 88.107 L 43.947 60.160 68.053 60.160 L 92.160 60.160 92.160 88.107 M156.160 104.107 L 156.160 148.053 128.213 148.053 L 100.267 148.053 100.267 104.107 L 100.267 60.160 128.213 60.160 L 156.160 60.160 156.160 104.107 M212.053 88.107 L 212.053 116.053 188.160 116.053 L 164.267 116.053 164.267 88.107 L 164.267 60.160 188.160 60.160 L 212.053 60.160 212.053 88.107 M92.061 166.862 L 91.947 209.564 90.553 210.808 L 89.160 212.053 68.280 212.053 C 53.000 212.053,47.100 211.917,46.281 211.544 C 43.849 210.435,43.947 212.330,43.947 166.421 L 43.947 124.160 68.061 124.160 L 92.176 124.160 92.061 166.862 M212.053 150.380 C 212.053 169.800,211.921 176.890,211.544 177.719 C 210.481 180.051,210.454 180.053,187.787 180.053 L 166.892 180.053 165.579 178.949 L 164.267 177.844 164.267 151.002 L 164.267 124.160 188.160 124.160 L 212.053 124.160 212.053 150.380 " stroke="none" fill-rule="evenodd"></path></svg>