<svg fill="currentColor" viewBox="0 0 256 256" xmlns="http://www.w3.org/2000/svg"><path d="M37.333 44.345 C 33.767 45.223,30.543 47.891,29.047 51.200 C 28.184 53.107,28.179 53.615,28.174 128.000 L 28.168 202.880 29.169 205.030 C 30.463 207.808,33.610 210.585,36.406 211.415 C 38.283 211.973,49.859 212.053,128.000 212.053 C 206.525 212.053,217.710 211.975,219.614 211.409 C 222.489 210.555,225.704 207.651,227.035 204.706 L 228.053 202.453 228.053 128.213 C 228.053 56.417,228.027 53.904,227.246 51.881 C 226.207 49.187,223.976 46.737,221.254 45.300 L 219.093 44.160 128.853 44.095 C 79.221 44.059,38.037 44.171,37.333 44.345 M218.247 52.737 C 218.821 53.113,219.485 54.121,219.723 54.977 C 220.328 57.154,220.319 198.876,219.714 201.054 C 218.837 204.214,227.331 203.947,127.886 203.947 L 38.361 203.947 37.314 202.899 L 36.267 201.852 36.267 127.999 L 36.267 54.146 37.396 53.100 L 38.525 52.053 127.864 52.053 C 209.105 52.053,217.298 52.115,218.247 52.737 M173.051 101.579 L 171.947 102.892 171.947 117.579 L 171.947 132.267 130.987 132.267 C 108.459 132.267,90.027 132.128,90.027 131.959 C 90.027 131.790,94.059 127.604,98.987 122.657 C 107.204 114.407,107.947 113.538,107.947 112.179 C 107.947 111.364,107.666 110.296,107.324 109.807 C 106.465 108.580,104.373 107.787,102.942 108.145 C 101.643 108.470,78.251 131.439,76.730 133.882 C 75.018 136.634,75.184 136.859,89.297 150.944 C 102.059 163.680,102.241 163.840,103.978 163.840 C 106.924 163.840,108.804 160.784,107.475 158.159 C 107.215 157.646,103.137 153.339,98.412 148.587 L 89.821 139.947 133.633 139.947 L 177.446 139.947 178.643 138.917 L 179.840 137.888 179.960 120.406 L 180.081 102.924 178.962 101.596 C 178.028 100.486,177.540 100.267,176.000 100.267 C 174.465 100.267,173.971 100.486,173.051 101.579 " stroke="none" fill-rule="evenodd"></path></svg>