<svg fill="currentColor" viewBox="0 0 256 256" xmlns="http://www.w3.org/2000/svg"><path d="M118.613 28.464 C 110.565 29.114,98.652 32.003,90.782 35.214 C 59.612 47.931,37.421 74.312,30.138 107.307 C 27.496 119.279,27.496 136.721,30.138 148.693 C 34.441 168.185,43.446 184.693,57.377 198.623 C 71.307 212.554,87.815 221.559,107.307 225.862 C 119.279 228.504,136.721 228.504,148.693 225.862 C 168.098 221.579,184.802 212.474,198.638 198.638 C 214.932 182.343,224.819 161.762,227.445 138.671 C 228.165 132.336,227.709 117.227,226.621 111.360 C 223.614 95.153,217.576 81.024,208.365 68.641 C 191.765 46.323,167.094 32.009,139.708 28.805 C 134.728 28.223,123.794 28.046,118.613 28.464 M141.450 37.088 C 151.293 38.536,159.191 40.985,168.320 45.421 C 195.814 58.779,214.837 85.062,219.065 115.535 C 219.837 121.096,219.960 133.911,219.290 138.956 C 216.572 159.430,208.181 177.095,194.306 191.550 C 186.556 199.624,178.023 205.880,168.394 210.544 C 146.182 221.305,122.141 222.924,98.987 215.218 C 75.515 207.406,56.191 190.487,45.421 168.320 C 38.959 155.019,36.271 143.174,36.271 128.000 C 36.271 112.826,38.959 100.981,45.421 87.680 C 58.548 60.660,84.406 41.633,114.133 37.120 C 121.418 36.014,134.048 35.999,141.450 37.088 M122.683 76.392 C 113.102 77.898,104.348 83.292,98.715 91.161 C 91.384 101.403,90.044 115.515,95.318 126.930 C 97.151 130.899,98.933 133.510,102.016 136.747 L 104.455 139.307 98.307 154.661 C 91.601 171.411,91.331 172.490,93.022 175.803 C 93.496 176.732,94.682 178.021,95.657 178.666 L 97.431 179.840 128.000 179.840 L 158.569 179.840 160.343 178.666 C 161.318 178.021,162.504 176.732,162.978 175.803 C 164.657 172.513,164.383 171.413,157.711 154.667 L 151.591 139.307 154.007 136.747 C 160.565 129.796,163.843 121.553,163.837 112.025 C 163.830 100.418,158.591 89.928,149.389 83.092 C 146.431 80.896,140.094 77.934,136.438 77.040 C 132.907 76.177,126.095 75.856,122.683 76.392 M136.747 85.529 C 144.505 88.135,149.939 93.013,153.404 100.480 C 155.130 104.200,155.819 107.484,155.819 112.000 C 155.819 120.508,152.997 126.730,146.206 133.200 C 143.178 136.084,142.770 136.651,142.822 137.893 C 142.855 138.671,145.773 146.502,149.307 155.297 C 152.842 164.092,155.733 171.436,155.733 171.617 C 155.733 171.798,143.231 171.947,127.950 171.947 C 101.695 171.947,100.179 171.906,100.375 171.200 C 100.489 170.789,103.319 163.637,106.663 155.307 C 110.007 146.976,112.907 139.603,113.107 138.921 C 113.618 137.183,112.636 135.396,110.092 133.434 C 106.050 130.316,102.326 124.335,100.873 118.627 C 99.817 114.482,100.199 106.584,101.643 102.724 C 105.177 93.270,112.405 86.931,122.240 84.656 C 126.202 83.740,132.562 84.123,136.747 85.529 " stroke="none" fill-rule="evenodd"></path></svg>