<svg fill="currentColor" viewBox="0 0 256 256" xmlns="http://www.w3.org/2000/svg"><path d="M177.493 36.721 C 121.302 40.893,79.171 60.975,57.605 93.867 C 52.265 102.012,47.609 113.286,45.683 122.733 C 44.272 129.659,43.816 135.326,44.076 142.720 C 44.591 157.359,48.335 171.120,55.800 185.811 L 58.710 191.536 47.700 202.540 C 40.628 209.608,36.533 214.018,36.252 214.870 C 35.204 218.047,38.381 220.920,41.462 219.582 C 42.258 219.236,47.612 214.214,53.673 208.127 L 64.466 197.288 69.777 199.993 C 109.564 220.260,148.830 214.816,178.490 184.920 C 201.622 161.605,215.574 125.358,219.371 78.720 C 219.939 71.731,220.078 45.212,219.567 41.291 C 219.107 37.770,218.350 37.033,214.781 36.637 C 211.027 36.220,183.399 36.282,177.493 36.721 M206.785 44.225 L 211.544 44.499 211.866 50.729 C 212.542 63.798,210.952 87.405,208.416 101.969 C 202.472 136.100,189.205 164.000,170.583 181.534 C 150.478 200.465,125.854 207.593,99.205 202.196 C 93.018 200.944,83.023 197.478,76.242 194.234 L 70.350 191.415 117.095 144.663 L 163.840 97.911 163.840 96.083 C 163.840 93.558,162.442 92.160,159.917 92.160 L 158.089 92.160 111.336 138.906 L 64.582 185.652 61.893 180.008 C 50.255 155.578,48.952 131.577,58.098 110.118 C 66.092 91.362,81.630 75.519,103.253 64.075 C 119.859 55.286,141.007 49.029,164.053 46.086 C 177.400 44.381,195.681 43.585,206.785 44.225 " stroke="none" fill-rule="evenodd"></path></svg>