<svg fill="currentColor" viewBox="0 0 256 256" xmlns="http://www.w3.org/2000/svg"><path d="M122.859 22.933 C 121.260 24.517,99.298 48.155,74.056 75.462 C 29.771 123.367,28.160 125.167,28.160 126.744 C 28.160 127.844,28.474 128.723,29.120 129.429 C 29.731 130.097,39.705 134.780,56.533 142.299 C 71.083 148.799,83.059 154.186,83.147 154.268 C 83.236 154.351,80.009 168.307,75.978 185.281 C 70.241 209.432,68.734 216.371,69.048 217.191 C 69.977 219.622,72.402 220.609,74.531 219.423 C 75.854 218.686,170.368 116.837,171.398 115.038 C 172.165 113.699,172.055 112.039,171.120 110.850 C 170.542 110.116,162.289 106.209,143.764 97.899 C 129.173 91.355,117.144 85.764,117.034 85.476 C 116.923 85.187,120.039 71.453,123.959 54.956 C 127.878 38.458,131.087 24.512,131.089 23.965 C 131.095 22.540,130.206 21.077,129.000 20.527 C 126.855 19.550,125.894 19.926,122.859 22.933 M113.718 63.385 C 110.544 76.738,107.947 87.988,107.947 88.386 C 107.947 90.467,109.680 91.383,135.634 103.022 L 161.283 114.525 159.638 116.249 C 158.733 117.197,141.235 136.117,120.753 158.293 C 100.271 180.469,82.779 199.370,81.882 200.295 L 80.251 201.977 80.849 199.442 C 81.178 198.047,83.857 186.770,86.801 174.381 C 92.997 148.312,92.896 149.918,88.474 147.877 C 87.099 147.242,75.418 141.982,62.517 136.188 C 49.616 130.394,39.094 125.500,39.135 125.313 C 39.267 124.707,119.249 38.453,119.371 38.785 C 119.436 38.962,116.892 50.031,113.718 63.385 M194.018 140.622 C 193.047 141.149,189.564 147.807,174.498 177.937 C 161.514 203.904,156.160 215.020,156.160 216.011 C 156.160 218.937,158.753 220.693,161.426 219.576 C 162.866 218.974,163.316 218.225,168.624 207.600 L 174.286 196.267 195.941 196.267 L 217.597 196.267 223.096 207.253 C 226.120 213.296,228.953 218.553,229.391 218.936 C 230.661 220.047,231.934 220.244,233.534 219.575 C 235.182 218.887,235.947 217.796,235.947 216.135 C 235.947 215.534,227.653 198.452,217.516 178.176 C 198.517 140.176,198.368 139.912,195.988 139.964 C 195.554 139.973,194.668 140.269,194.018 140.622 M213.310 187.840 C 213.323 188.016,205.557 188.160,196.053 188.160 C 184.762 188.160,178.773 188.011,178.773 187.731 C 178.773 187.495,182.637 179.576,187.360 170.133 L 195.947 152.964 204.617 170.242 C 209.385 179.745,213.297 187.664,213.310 187.840 " stroke="none" fill-rule="evenodd"></path></svg>