<svg fill="currentColor" viewBox="0 0 256 256" xmlns="http://www.w3.org/2000/svg"><path d="M158.616 12.225 C 157.852 12.440,45.897 132.127,44.581 134.135 C 43.708 135.468,43.991 137.762,45.159 138.819 C 45.582 139.201,58.778 144.335,74.484 150.227 C 90.190 156.118,104.019 161.307,105.216 161.756 L 107.391 162.573 99.776 200.641 C 95.587 221.578,92.160 239.292,92.160 240.006 C 92.160 242.530,94.454 244.367,96.928 243.824 C 97.836 243.624,112.052 228.649,154.411 183.269 C 185.364 150.110,211.017 122.478,211.419 121.865 C 212.293 120.530,212.008 118.238,210.836 117.176 C 210.239 116.636,185.098 107.075,149.069 93.687 C 148.749 93.568,151.093 81.009,156.216 55.401 C 160.409 34.441,163.840 16.676,163.840 15.923 C 163.840 13.447,161.118 11.521,158.616 12.225 M146.555 62.743 C 142.921 80.908,139.947 96.100,139.947 96.502 C 139.947 98.632,141.138 99.164,171.244 110.492 C 187.402 116.572,200.677 121.606,200.744 121.680 C 200.906 121.857,103.137 226.585,102.967 226.416 C 102.895 226.344,105.810 211.422,109.445 193.257 C 113.079 175.092,116.053 159.900,116.053 159.498 C 116.053 157.355,114.897 156.839,84.870 145.583 C 68.776 139.550,55.596 134.421,55.582 134.187 C 55.555 133.740,152.803 29.354,153.032 29.584 C 153.105 29.656,150.190 44.578,146.555 62.743 " stroke="none" fill-rule="evenodd"></path></svg>