<svg fill="currentColor" viewBox="0 0 256 256" xmlns="http://www.w3.org/2000/svg"><path d="M118.400 20.521 C 99.969 22.765,81.974 31.523,68.849 44.636 C 50.946 62.521,41.888 87.577,44.395 112.275 C 46.520 133.198,56.799 153.363,72.053 166.534 C 78.475 172.078,80.311 174.074,81.813 177.144 C 83.482 180.557,84.053 183.706,84.053 189.502 C 84.053 193.049,84.248 194.621,84.903 196.371 C 85.981 199.253,88.728 201.991,91.658 203.104 C 93.799 203.918,95.054 203.947,127.989 203.947 C 161.002 203.947,162.174 203.919,164.371 203.097 C 167.004 202.112,169.842 199.438,170.940 196.907 C 171.477 195.669,171.764 193.381,171.985 188.587 C 172.446 178.551,174.102 174.943,180.825 169.324 C 185.957 165.035,191.526 159.272,194.967 154.689 C 216.605 125.873,217.716 87.405,197.777 57.387 C 184.937 38.055,164.685 25.004,141.441 21.081 C 136.737 20.287,123.049 19.954,118.400 20.521 M137.398 28.596 C 155.830 30.818,173.831 40.517,185.683 54.613 C 199.381 70.905,205.744 91.447,203.496 112.123 C 202.447 121.780,199.821 130.462,195.337 139.106 C 190.566 148.301,186.994 152.589,172.952 165.973 C 169.449 169.313,168.426 170.590,167.143 173.227 C 164.861 177.915,164.228 180.771,163.973 187.520 C 163.719 194.275,163.406 195.138,160.964 195.816 C 160.005 196.083,153.909 196.263,145.813 196.264 L 132.267 196.267 132.267 170.781 L 132.267 145.295 148.053 129.488 C 163.610 113.910,163.840 113.655,163.840 111.954 C 163.840 109.634,162.348 108.179,159.969 108.179 C 158.316 108.179,157.944 108.514,143.139 123.314 L 128.000 138.449 112.861 123.314 C 98.056 108.514,97.684 108.179,96.031 108.179 C 93.645 108.179,92.160 109.634,92.160 111.970 C 92.160 113.692,92.338 113.889,108.163 129.709 L 124.166 145.707 124.056 170.880 L 123.947 196.053 110.361 196.166 C 95.985 196.285,93.876 196.077,92.845 194.437 C 92.446 193.802,92.178 191.537,92.027 187.520 C 91.772 180.765,91.131 177.840,88.904 173.281 C 87.281 169.957,84.440 166.841,76.598 159.787 C 60.246 145.075,51.211 123.352,52.199 101.120 C 52.726 89.251,55.225 79.679,60.466 69.443 C 71.539 47.821,93.156 32.312,117.094 28.816 C 121.838 28.123,132.518 28.008,137.398 28.596 M85.101 229.314 C 83.587 230.827,83.671 233.070,85.301 234.699 L 86.548 235.947 128.000 235.947 L 169.452 235.947 170.699 234.699 C 172.329 233.070,172.413 230.827,170.899 229.314 L 169.852 228.267 128.000 228.267 L 86.148 228.267 85.101 229.314 " stroke="none" fill-rule="evenodd"></path></svg>