<svg fill="currentColor" viewBox="0 0 256 256" xmlns="http://www.w3.org/2000/svg"><path d="M124.970 12.513 C 123.890 12.815,122.420 13.435,121.704 13.891 C 118.894 15.678,76.456 53.800,76.217 54.752 C 76.003 55.605,70.827 106.240,70.827 107.481 C 70.827 107.803,67.941 107.947,61.461 107.947 L 52.094 107.947 51.967 97.029 L 51.840 86.111 50.643 85.082 C 49.060 83.722,46.940 83.722,45.357 85.083 L 44.160 86.112 44.035 99.244 C 43.946 108.639,44.054 112.723,44.415 113.595 C 45.373 115.907,46.224 116.053,58.694 116.053 L 70.070 116.053 69.813 117.867 C 68.748 125.391,60.133 214.536,60.258 216.747 C 60.603 222.855,64.473 226.884,70.959 227.886 C 72.570 228.135,95.561 228.247,129.920 228.173 C 193.857 228.036,188.451 228.362,192.406 224.406 C 194.794 222.019,195.840 219.428,195.840 215.903 C 195.840 213.889,187.014 124.218,186.212 118.080 L 185.947 116.053 197.314 116.053 C 209.775 116.053,210.627 115.907,211.585 113.595 C 211.946 112.723,212.054 108.639,211.965 99.244 L 211.840 86.112 210.643 85.083 C 209.060 83.722,206.940 83.722,205.357 85.082 L 204.160 86.111 204.033 97.029 L 203.906 107.947 194.539 107.947 C 188.059 107.947,185.173 107.803,185.173 107.481 C 185.173 106.240,179.997 55.605,179.783 54.752 C 179.436 53.370,136.349 15.072,133.436 13.557 C 130.739 12.154,127.624 11.770,124.970 12.513 M130.145 20.787 C 131.453 21.696,165.120 51.616,165.120 51.870 C 165.120 51.971,148.311 52.053,127.767 52.053 L 90.414 52.053 107.837 36.552 C 117.420 28.026,125.637 20.831,126.097 20.564 C 127.314 19.859,128.938 19.948,130.145 20.787 M172.552 62.187 C 172.862 64.619,177.067 106.797,177.067 107.474 C 177.067 107.814,170.788 107.947,154.699 107.947 L 132.332 107.947 132.193 97.244 L 132.053 86.542 130.660 85.298 C 128.905 83.730,127.223 83.685,125.473 85.158 L 124.160 86.263 124.160 97.105 L 124.160 107.947 101.547 107.947 C 85.278 107.947,78.933 107.814,78.933 107.474 C 78.933 106.797,83.138 64.619,83.448 62.187 L 83.707 60.160 128.000 60.160 L 172.293 60.160 172.552 62.187 M178.116 117.867 C 178.487 120.584,182.613 162.327,182.613 163.367 L 182.613 164.267 128.000 164.267 L 73.387 164.267 73.387 163.367 C 73.387 162.327,77.513 120.584,77.884 117.867 L 78.132 116.053 128.000 116.053 L 177.868 116.053 178.116 117.867 M183.658 173.333 C 183.997 175.373,187.761 213.181,187.861 215.554 C 187.933 217.262,187.761 217.766,186.764 218.763 L 185.581 219.947 128.025 219.947 L 70.469 219.947 69.368 218.912 C 68.441 218.042,68.267 217.503,68.267 215.518 C 68.267 213.292,71.836 176.310,72.338 173.333 L 72.572 171.947 128.000 171.947 L 183.428 171.947 183.658 173.333 " stroke="none" fill-rule="evenodd"></path></svg>