<svg fill="currentColor" viewBox="0 0 256 256" xmlns="http://www.w3.org/2000/svg"><path d="M57.642 76.424 C 44.837 77.908,31.803 85.133,23.707 95.234 C 0.744 123.884,13.240 166.156,48.000 177.413 C 55.403 179.811,55.811 179.840,81.850 179.840 L 105.887 179.840 106.917 178.643 C 108.008 177.375,108.255 175.454,107.507 174.056 C 106.390 171.969,106.124 171.947,82.115 171.947 C 61.406 171.947,59.333 171.881,55.534 171.102 C 46.074 169.164,38.561 164.989,31.996 158.023 C 16.126 141.184,16.126 114.816,31.996 97.977 C 38.025 91.580,44.974 87.563,54.400 85.027 C 56.558 84.447,60.806 84.299,81.424 84.089 L 105.888 83.840 106.917 82.643 C 108.676 80.597,108.171 77.806,105.822 76.591 C 104.754 76.039,101.451 75.955,82.688 76.002 C 70.650 76.032,59.379 76.222,57.642 76.424 M150.091 76.612 C 147.822 77.843,147.355 80.634,149.083 82.643 L 150.112 83.840 174.576 84.082 C 202.752 84.362,202.443 84.324,210.987 88.504 C 220.761 93.285,227.195 99.833,231.920 109.808 C 234.836 115.964,235.692 120.091,235.692 128.000 C 235.692 136.239,234.815 140.206,231.497 146.987 C 228.753 152.595,226.114 156.178,221.681 160.318 C 215.736 165.870,208.816 169.405,200.626 171.074 C 196.635 171.888,194.828 171.947,173.885 171.947 C 149.876 171.947,149.610 171.969,148.493 174.056 C 147.745 175.454,147.992 177.375,149.083 178.643 L 150.113 179.840 174.150 179.840 C 192.922 179.840,198.841 179.710,201.173 179.248 C 224.567 174.614,241.319 156.332,243.733 132.800 C 246.585 105.001,225.859 79.569,197.760 76.388 C 195.638 76.148,184.378 75.960,172.587 75.967 C 154.587 75.979,151.072 76.079,150.091 76.612 " stroke="none" fill-rule="evenodd"></path></svg>