<svg fill="currentColor" viewBox="0 0 256 256" xmlns="http://www.w3.org/2000/svg"><path d="M166.655 28.845 C 162.531 29.590,156.669 31.520,153.078 33.315 C 146.086 36.810,143.752 38.801,126.151 56.288 C 116.804 65.575,108.872 73.715,108.524 74.378 C 106.950 77.380,110.148 80.970,113.330 79.772 C 114.007 79.517,122.235 71.672,131.627 62.326 C 142.054 51.950,149.752 44.636,151.416 43.524 C 164.058 35.079,180.833 33.726,194.351 40.061 C 203.880 44.526,211.482 52.136,215.961 61.695 C 221.206 72.888,221.188 87.129,215.915 98.397 C 212.959 104.715,211.238 106.723,193.464 124.587 C 182.031 136.078,176.173 142.263,175.980 143.048 C 175.316 145.754,177.880 148.396,180.664 147.874 C 181.747 147.670,185.531 144.088,199.294 130.236 C 216.997 112.419,219.195 109.872,222.399 103.467 C 231.026 86.218,229.512 65.787,218.430 49.920 C 213.988 43.560,206.263 36.985,198.922 33.315 C 195.172 31.441,189.469 29.598,185.009 28.820 C 180.322 28.003,171.251 28.016,166.655 28.845 M74.027 108.750 C 73.323 109.191,65.252 117.110,56.091 126.349 C 39.045 143.541,36.780 146.178,33.601 152.533 C 24.986 169.757,26.492 190.355,37.508 205.958 C 52.337 226.964,80.370 233.951,103.467 222.399 C 109.872 219.195,112.419 216.997,130.236 199.294 C 148.896 180.754,148.886 180.767,147.459 178.007 C 146.608 176.363,144.450 175.558,142.675 176.224 C 141.989 176.481,133.755 184.328,124.160 193.869 C 113.913 204.058,105.871 211.705,104.402 212.658 C 95.778 218.250,85.178 220.891,75.749 219.795 C 65.224 218.571,57.091 214.792,49.638 207.660 C 39.829 198.275,35.099 185.612,36.297 171.947 C 36.947 164.534,39.382 157.616,43.524 151.416 C 44.637 149.750,52.016 141.987,62.536 131.413 C 73.969 119.922,79.827 113.737,80.020 112.952 C 80.415 111.344,79.502 109.322,78.041 108.567 C 76.455 107.746,75.567 107.787,74.027 108.750 " stroke="none" fill-rule="evenodd"></path></svg>