<svg fill="currentColor" viewBox="0 0 256 256" xmlns="http://www.w3.org/2000/svg"><path d="M163.346 36.295 C 154.093 37.100,145.598 40.225,137.813 45.686 C 133.834 48.477,121.278 60.736,120.475 62.613 C 119.966 63.802,119.969 64.208,120.491 65.459 C 121.219 67.201,122.272 67.840,124.413 67.840 C 125.896 67.840,126.490 67.360,133.295 60.654 C 137.305 56.701,141.795 52.656,143.272 51.665 C 147.298 48.963,152.454 46.641,157.227 45.381 C 160.960 44.395,162.320 44.254,168.107 44.254 C 173.888 44.254,175.253 44.395,178.956 45.375 C 197.783 50.358,210.906 66.530,211.902 85.973 C 212.403 95.775,209.478 105.729,203.765 113.660 C 201.169 117.263,171.471 146.665,168.444 148.629 C 164.514 151.178,159.244 153.516,154.667 154.741 C 150.896 155.749,149.631 155.881,143.787 155.870 C 136.558 155.857,134.064 155.389,127.258 152.764 C 123.713 151.397,118.484 148.247,115.443 145.647 C 114.113 144.510,113.393 144.213,111.961 144.213 C 110.455 144.213,109.966 144.439,109.009 145.576 C 106.705 148.314,108.161 150.682,114.987 155.300 C 133.613 167.902,158.038 166.955,176.000 152.935 C 181.137 148.925,208.004 121.636,210.631 117.760 C 214.912 111.443,218.066 103.726,219.350 96.427 C 220.138 91.947,220.018 82.522,219.118 78.293 C 216.754 67.175,212.085 58.561,204.289 50.928 C 193.289 40.160,178.730 34.957,163.346 36.295 M109.440 92.034 C 99.524 92.595,90.071 95.871,81.920 101.573 C 78.008 104.309,51.013 130.972,47.171 135.893 C 37.743 147.973,34.068 162.942,36.899 177.736 C 37.658 181.705,39.712 187.826,41.430 191.242 C 45.052 198.443,52.269 206.643,58.880 211.071 C 76.847 223.104,99.771 222.957,117.646 210.694 C 121.675 207.930,134.719 195.308,135.532 193.387 C 136.032 192.203,136.029 191.787,135.509 190.541 C 134.785 188.808,133.729 188.160,131.630 188.160 C 130.203 188.160,129.476 188.753,122.089 195.947 C 113.639 204.176,110.627 206.369,104.400 208.823 C 98.236 211.252,95.460 211.754,88.107 211.766 C 82.030 211.777,80.811 211.652,77.013 210.636 C 63.360 206.982,51.954 196.831,46.963 183.893 C 44.867 178.461,44.214 174.566,44.242 167.680 C 44.263 162.422,44.435 160.853,45.387 157.227 C 46.584 152.669,48.909 147.409,51.477 143.450 C 53.720 139.992,83.013 110.618,86.906 107.923 C 91.191 104.956,96.330 102.593,101.333 101.288 C 104.894 100.359,106.589 100.169,111.573 100.139 C 114.878 100.119,118.691 100.342,120.107 100.639 C 127.039 102.090,133.263 104.906,138.916 109.149 C 143.446 112.549,144.854 112.794,146.874 110.533 C 149.418 107.686,147.882 105.244,140.493 100.397 C 131.443 94.460,120.181 91.427,109.440 92.034 " stroke="none" fill-rule="evenodd"></path></svg>