<svg fill="currentColor" viewBox="0 0 256 256" xmlns="http://www.w3.org/2000/svg"><path d="M37.331 61.190 C 36.765 61.756,36.178 62.713,36.027 63.315 C 35.629 64.898,37.030 67.081,38.848 67.709 C 40.981 68.447,215.019 68.447,217.152 67.709 C 218.970 67.081,220.371 64.898,219.973 63.315 C 219.822 62.713,219.235 61.756,218.669 61.190 L 217.639 60.160 128.000 60.160 L 38.361 60.160 37.331 61.190 M37.331 125.190 C 36.765 125.756,36.178 126.713,36.027 127.315 C 35.629 128.898,37.030 131.081,38.848 131.709 C 40.981 132.447,215.019 132.447,217.152 131.709 C 218.970 131.081,220.371 128.898,219.973 127.315 C 219.822 126.713,219.235 125.756,218.669 125.190 L 217.639 124.160 128.000 124.160 L 38.361 124.160 37.331 125.190 M205.051 165.579 L 203.947 166.892 203.947 177.526 L 203.947 188.160 193.105 188.160 L 182.263 188.160 181.158 189.473 C 179.685 191.223,179.730 192.905,181.298 194.660 L 182.542 196.053 193.244 196.193 L 203.947 196.332 203.947 206.746 L 203.947 217.160 205.173 218.532 C 206.141 219.615,206.735 219.904,208.000 219.904 C 209.265 219.904,209.859 219.615,210.827 218.532 L 212.053 217.160 212.053 206.746 L 212.053 196.332 222.756 196.193 L 233.458 196.053 234.702 194.660 C 236.270 192.905,236.315 191.223,234.842 189.473 L 233.737 188.160 222.895 188.160 L 212.053 188.160 212.053 177.526 L 212.053 166.892 210.949 165.579 C 210.029 164.486,209.535 164.267,208.000 164.267 C 206.465 164.267,205.971 164.486,205.051 165.579 M37.331 189.190 C 36.765 189.756,36.178 190.713,36.027 191.315 C 35.629 192.898,37.030 195.081,38.848 195.709 C 40.793 196.382,142.322 196.491,144.727 195.823 C 147.995 194.915,149.052 191.653,146.806 189.407 L 145.559 188.160 91.960 188.160 L 38.361 188.160 37.331 189.190 " stroke="none" fill-rule="evenodd"></path></svg>