<svg fill="currentColor" viewBox="0 0 256 256" xmlns="http://www.w3.org/2000/svg"><path d="M46.080 40.507 C 41.504 42.814,37.386 45.118,36.928 45.626 C 35.590 47.111,35.823 49.357,37.468 50.827 C 38.223 51.502,39.293 52.053,39.846 52.053 C 40.399 52.053,43.372 50.810,46.453 49.291 L 52.053 46.528 52.053 75.990 L 52.053 105.452 53.301 106.699 C 55.701 109.100,59.319 107.887,59.936 104.474 C 60.078 103.685,60.139 88.511,60.071 70.754 L 59.947 38.468 58.912 37.368 C 57.056 35.391,55.444 35.786,46.080 40.507 M101.331 61.190 C 100.765 61.756,100.178 62.713,100.027 63.315 C 99.629 64.898,101.030 67.081,102.848 67.709 C 104.973 68.444,215.027 68.444,217.152 67.709 C 218.970 67.081,220.371 64.898,219.973 63.315 C 219.822 62.713,219.235 61.756,218.669 61.190 L 217.639 60.160 160.000 60.160 L 102.361 60.160 101.331 61.190 M101.331 125.190 C 100.765 125.756,100.178 126.713,100.027 127.315 C 99.629 128.898,101.030 131.081,102.848 131.709 C 104.973 132.444,215.027 132.444,217.152 131.709 C 218.970 131.081,220.371 128.898,219.973 127.315 C 219.822 126.713,219.235 125.756,218.669 125.190 L 217.639 124.160 160.000 124.160 L 102.361 124.160 101.331 125.190 M52.053 140.388 C 45.795 141.500,40.082 145.617,37.369 150.969 C 35.847 153.974,35.908 155.782,37.579 157.189 C 40.056 159.273,42.657 158.262,44.580 154.467 C 45.707 152.243,47.369 150.656,50.084 149.211 C 51.495 148.461,52.553 148.277,55.467 148.278 C 58.566 148.279,59.404 148.443,61.227 149.408 C 65.587 151.716,67.821 155.305,67.821 160.000 C 67.821 161.787,67.543 163.380,67.038 164.480 C 66.607 165.419,59.581 175.111,51.426 186.018 C 43.270 196.925,36.427 206.299,36.218 206.848 C 35.669 208.291,36.175 209.767,37.642 211.002 L 38.924 212.081 56.406 211.960 L 73.888 211.840 74.917 210.643 C 76.006 209.376,76.255 207.454,75.510 206.062 C 74.566 204.298,73.653 204.168,60.670 203.947 L 48.167 203.733 60.554 187.203 C 67.366 178.111,73.307 169.951,73.756 169.069 C 77.656 161.413,76.204 151.989,70.225 146.153 C 65.380 141.424,58.504 139.242,52.053 140.388 M101.331 189.190 C 100.765 189.756,100.178 190.713,100.027 191.315 C 99.629 192.898,101.030 195.081,102.848 195.709 C 104.973 196.444,215.027 196.444,217.152 195.709 C 218.970 195.081,220.371 192.898,219.973 191.315 C 219.822 190.713,219.235 189.756,218.669 189.190 L 217.639 188.160 160.000 188.160 L 102.361 188.160 101.331 189.190 " stroke="none" fill-rule="evenodd"></path></svg>