<svg fill="currentColor" viewBox="0 0 256 256" xmlns="http://www.w3.org/2000/svg"><path d="M122.240 12.434 C 105.840 14.517,91.743 26.120,86.344 41.980 C 84.277 48.052,84.053 50.581,84.053 67.871 L 84.053 84.021 64.320 84.144 C 44.916 84.265,44.557 84.282,42.830 85.206 C 40.000 86.721,38.522 88.199,37.248 90.793 L 36.053 93.227 36.053 151.893 L 36.053 210.560 37.062 212.790 C 38.303 215.535,40.964 218.056,43.758 219.134 C 45.806 219.923,48.242 219.947,128.000 219.947 C 207.758 219.947,210.194 219.923,212.242 219.134 C 215.036 218.056,217.697 215.535,218.938 212.790 L 219.947 210.560 219.947 151.893 L 219.947 93.227 218.752 90.793 C 217.478 88.199,216.000 86.721,213.170 85.206 C 211.443 84.282,211.084 84.265,191.680 84.144 L 171.947 84.021 171.947 67.871 C 171.947 50.581,171.723 48.052,169.656 41.980 C 162.870 22.045,143.178 9.774,122.240 12.434 M136.960 21.137 C 149.289 24.368,159.238 34.202,162.844 46.720 C 163.475 48.912,163.603 51.782,163.737 66.667 L 163.892 84.053 128.000 84.053 L 92.108 84.053 92.263 66.667 C 92.435 47.457,92.469 47.182,95.357 41.057 C 100.467 30.223,109.407 23.161,121.173 20.667 C 124.770 19.905,133.219 20.156,136.960 21.137 M210.643 93.189 L 211.840 94.218 211.967 105.136 L 212.094 116.053 128.000 116.053 L 43.906 116.053 44.033 105.136 L 44.160 94.218 45.357 93.189 L 46.554 92.160 128.000 92.160 L 209.446 92.160 210.643 93.189 M212.053 136.107 L 212.053 148.053 128.000 148.053 L 43.947 148.053 43.947 136.107 L 43.947 124.160 128.000 124.160 L 212.053 124.160 212.053 136.107 M212.053 168.107 L 212.053 180.053 128.000 180.053 L 43.947 180.053 43.947 168.107 L 43.947 156.160 128.000 156.160 L 212.053 156.160 212.053 168.107 M212.053 198.421 C 212.053 209.570,211.877 210.560,209.719 211.544 C 208.096 212.283,47.904 212.283,46.281 211.544 C 44.123 210.560,43.947 209.570,43.947 198.421 L 43.947 188.160 128.000 188.160 L 212.053 188.160 212.053 198.421 " stroke="none" fill-rule="evenodd"></path></svg>