<svg fill="currentColor" viewBox="0 0 256 256" xmlns="http://www.w3.org/2000/svg"><path d="M122.240 12.434 C 105.856 14.515,91.737 26.136,86.344 41.980 C 84.277 48.052,84.053 50.581,84.053 67.871 L 84.053 84.021 64.320 84.144 C 44.916 84.265,44.557 84.282,42.830 85.206 C 40.000 86.721,38.522 88.199,37.248 90.793 L 36.053 93.227 36.053 151.893 L 36.053 210.560 37.062 212.790 C 38.303 215.535,40.964 218.056,43.758 219.134 C 45.806 219.923,48.242 219.947,128.000 219.947 C 207.758 219.947,210.194 219.923,212.242 219.134 C 215.036 218.056,217.697 215.535,218.938 212.790 L 219.947 210.560 219.947 151.893 L 219.947 93.227 218.752 90.793 C 217.478 88.199,216.000 86.721,213.170 85.206 L 211.413 84.267 151.761 84.154 L 92.108 84.042 92.264 66.661 C 92.435 47.458,92.469 47.181,95.357 41.057 C 100.116 30.967,108.569 23.897,119.253 21.070 C 123.363 19.983,132.536 19.988,136.747 21.080 C 143.201 22.753,149.779 26.539,154.334 31.203 C 158.990 35.970,161.639 40.434,163.414 46.507 C 164.612 50.606,166.175 52.268,168.485 51.901 C 170.331 51.607,171.947 49.921,171.947 48.288 C 171.947 46.582,170.398 41.289,168.990 38.186 C 164.851 29.056,156.146 20.335,147.060 16.215 C 142.978 14.365,137.660 12.925,132.977 12.403 C 128.353 11.887,126.503 11.892,122.240 12.434 M210.643 93.190 L 211.840 94.219 211.953 151.323 C 212.036 193.751,211.939 208.733,211.573 209.620 C 210.500 212.219,216.178 212.053,128.000 212.053 C 39.822 212.053,45.500 212.219,44.427 209.620 C 44.061 208.733,43.964 193.751,44.047 151.323 L 44.160 94.219 45.357 93.190 L 46.554 92.160 128.000 92.160 L 209.446 92.160 210.643 93.190 M123.679 145.436 C 118.355 148.812,118.976 156.561,124.782 159.198 C 126.971 160.192,129.029 160.192,131.218 159.198 C 139.047 155.642,136.593 144.213,128.000 144.213 C 126.099 144.213,125.211 144.465,123.679 145.436 " stroke="none" fill-rule="evenodd"></path></svg>