<svg fill="currentColor" viewBox="0 0 256 256" xmlns="http://www.w3.org/2000/svg"><path d="M185.132 36.295 C 184.053 36.465,182.517 36.931,181.719 37.331 C 180.920 37.731,148.340 69.959,109.319 108.949 C 31.164 187.042,36.024 181.842,36.084 187.307 C 36.138 192.258,36.680 193.007,49.621 205.990 C 62.602 219.014,63.750 219.864,68.427 219.914 C 74.111 219.975,67.820 225.832,146.467 147.256 C 224.824 68.970,219.909 74.228,219.909 68.693 C 219.909 63.740,219.210 62.787,205.779 49.447 C 195.995 39.727,193.584 37.549,192.000 36.997 C 189.474 36.116,187.527 35.917,185.132 36.295 M77.051 37.579 L 75.947 38.892 75.947 49.526 L 75.947 60.160 65.105 60.160 L 54.263 60.160 53.158 61.473 C 51.685 63.223,51.730 64.905,53.298 66.660 L 54.542 68.053 65.244 68.193 L 75.947 68.332 75.947 78.746 L 75.947 89.160 77.173 90.532 C 78.897 92.462,81.103 92.462,82.827 90.532 L 84.053 89.160 84.053 78.746 L 84.053 68.332 94.756 68.193 L 105.458 68.053 106.702 66.660 C 108.270 64.905,108.315 63.223,106.842 61.473 L 105.737 60.160 94.895 60.160 L 84.053 60.160 84.053 49.526 L 84.053 38.892 82.949 37.579 C 82.029 36.486,81.535 36.267,80.000 36.267 C 78.465 36.267,77.971 36.486,77.051 37.579 M200.524 55.679 C 211.573 66.722,211.821 67.007,211.821 68.692 C 211.821 70.394,211.593 70.644,193.913 88.327 L 176.004 106.239 162.882 93.122 L 149.759 80.004 167.360 62.368 C 177.040 52.667,185.344 44.559,185.813 44.350 C 188.008 43.369,188.877 44.038,200.524 55.679 M120.416 161.823 C 75.287 206.953,70.438 211.674,68.972 211.912 L 67.354 212.175 55.767 200.610 C 44.404 189.270,44.179 189.012,44.179 187.314 C 44.179 185.583,44.222 185.540,94.088 135.672 L 143.997 85.762 157.120 98.880 L 170.242 111.997 120.416 161.823 M213.158 125.473 L 212.053 126.785 212.053 137.419 L 212.053 148.053 201.419 148.053 L 190.785 148.053 189.473 149.158 C 187.324 150.966,187.737 154.198,190.285 155.516 C 191.295 156.038,193.474 156.160,201.792 156.160 L 212.053 156.160 212.053 166.803 C 212.053 177.228,212.073 177.468,213.013 178.551 C 213.577 179.199,214.610 179.757,215.515 179.901 C 216.816 180.108,217.282 179.945,218.501 178.855 L 219.947 177.565 220.074 166.883 L 220.201 156.201 230.883 156.074 L 241.565 155.947 242.855 154.501 C 243.945 153.282,244.108 152.816,243.901 151.515 C 243.757 150.610,243.199 149.577,242.551 149.013 C 241.468 148.073,241.228 148.053,230.803 148.053 L 220.160 148.053 220.160 137.792 C 220.160 129.474,220.038 127.295,219.516 126.285 C 218.198 123.737,214.966 123.324,213.158 125.473 M165.675 180.809 C 164.155 182.004,163.840 183.601,163.840 190.108 L 163.840 196.267 156.994 196.267 C 150.294 196.267,150.125 196.289,149.101 197.314 C 147.587 198.827,147.671 201.070,149.301 202.699 L 150.548 203.947 157.164 203.947 L 163.781 203.947 163.917 210.730 C 164.039 216.802,164.143 217.612,164.907 218.459 C 166.171 219.860,167.564 220.264,169.233 219.713 C 171.735 218.888,171.947 218.184,171.947 210.678 L 171.947 203.947 178.678 203.947 C 186.184 203.947,186.888 203.735,187.713 201.233 C 188.249 199.612,187.864 198.173,186.588 197.025 C 185.900 196.405,184.697 196.271,178.966 196.171 L 172.160 196.053 171.947 189.082 L 171.733 182.110 170.536 181.082 C 169.116 179.862,167.030 179.745,165.675 180.809 " stroke="none" fill-rule="evenodd"></path></svg>