<svg fill="currentColor" viewBox="0 0 256 256" xmlns="http://www.w3.org/2000/svg"><path d="M134.231 28.614 C 119.017 30.379,103.536 36.947,91.268 46.841 C 86.189 50.937,22.424 115.621,21.308 117.810 C 20.001 120.372,19.745 124.277,20.693 127.195 C 21.388 129.333,22.559 130.617,37.493 145.613 C 48.898 157.065,54.103 162.003,55.467 162.665 C 58.255 164.018,61.905 164.144,64.968 162.992 C 67.315 162.109,68.922 160.537,99.678 129.032 L 131.927 95.998 135.458 94.248 C 138.502 92.740,139.484 92.468,142.578 92.275 C 144.582 92.150,147.163 92.264,148.422 92.534 C 154.193 93.772,159.387 97.831,162.021 103.161 C 163.508 106.169,163.629 106.704,163.771 110.903 C 163.947 116.078,163.153 119.194,160.669 123.076 C 159.777 124.472,147.190 136.974,126.598 156.920 C 95.310 187.225,93.903 188.654,93.012 191.022 C 91.856 194.095,91.980 197.741,93.335 200.533 C 93.997 201.897,98.935 207.102,110.387 218.507 C 125.383 233.441,126.667 234.612,128.805 235.307 C 131.717 236.253,135.628 235.999,138.179 234.698 C 139.363 234.094,150.770 223.256,170.380 204.103 C 202.996 172.246,205.225 170.006,209.179 165.120 C 219.089 152.872,225.438 137.691,227.438 121.455 C 228.267 114.726,227.738 101.733,226.371 95.240 C 222.801 78.280,215.341 64.377,203.454 52.528 C 190.036 39.154,173.121 30.966,154.038 28.607 C 149.930 28.099,138.633 28.103,134.231 28.614 M150.827 36.445 C 159.700 36.885,168.941 39.501,178.338 44.232 C 193.009 51.620,204.239 62.675,211.574 76.953 C 217.275 88.049,219.774 98.739,219.757 111.951 C 219.736 128.119,215.399 142.254,206.435 155.369 C 202.506 161.118,199.171 164.699,183.276 180.233 L 168.467 194.706 151.402 177.641 L 134.337 160.576 149.765 145.675 C 166.467 129.542,168.159 127.552,170.392 121.402 C 172.004 116.965,172.439 109.711,171.354 105.376 C 168.503 93.986,159.271 85.835,147.543 84.355 C 139.922 83.393,131.974 85.831,126.005 90.962 C 124.556 92.208,117.173 99.611,109.597 107.413 C 102.022 115.216,95.718 121.600,95.590 121.600 C 95.461 121.600,87.736 113.968,78.423 104.640 L 61.491 87.680 77.999 70.979 C 94.536 54.247,98.184 51.007,105.173 46.845 C 115.488 40.702,127.289 37.016,138.880 36.319 C 141.696 36.149,144.576 36.060,145.280 36.122 C 145.984 36.183,148.480 36.328,150.827 36.445 M88.321 129.140 C 87.537 130.039,81.400 136.389,74.681 143.253 L 62.467 155.733 60.579 155.733 L 58.692 155.733 43.426 140.467 L 28.160 125.202 28.160 123.379 C 28.160 121.562,28.199 121.516,41.919 107.498 L 55.678 93.439 72.712 110.473 L 89.746 127.508 88.321 129.140 M145.603 183.363 L 162.562 200.326 154.134 208.652 C 134.236 228.309,134.761 227.840,132.669 227.840 L 130.798 227.840 115.533 212.574 L 100.267 197.308 100.267 195.425 L 100.267 193.541 109.547 184.571 C 114.651 179.637,120.939 173.533,123.520 171.005 C 126.101 168.478,128.310 166.408,128.429 166.405 C 128.547 166.402,136.276 174.033,145.603 183.363 " stroke="none" fill-rule="evenodd"></path></svg>