<svg fill="currentColor" viewBox="0 0 256 256" xmlns="http://www.w3.org/2000/svg"><path d="M121.173 20.294 C 120.587 20.395,118.379 20.693,116.267 20.956 C 93.605 23.781,71.488 37.606,58.384 57.138 C 41.665 82.058,39.545 112.418,52.233 145.212 C 63.901 175.367,89.430 207.295,122.000 232.467 C 127.661 236.842,128.197 236.884,132.934 233.313 C 147.523 222.318,163.309 207.096,175.266 192.494 C 198.266 164.407,210.727 135.586,211.915 107.733 C 213.317 74.876,195.142 43.855,165.895 29.188 C 157.565 25.010,150.276 22.621,141.227 21.105 C 137.392 20.462,123.471 19.899,121.173 20.294 M141.131 29.168 C 160.349 32.772,177.317 43.156,188.496 58.152 C 203.773 78.645,207.691 102.754,200.266 130.560 C 191.956 161.674,165.971 196.957,130.872 224.783 L 128.000 227.060 125.124 224.783 C 97.904 203.234,75.523 176.513,63.545 151.259 C 46.598 115.530,48.561 81.641,69.056 56.117 C 80.452 41.924,98.480 31.539,116.053 29.044 C 117.813 28.794,119.733 28.507,120.320 28.406 C 122.756 27.988,137.767 28.538,141.131 29.168 M120.779 68.706 C 110.053 70.951,100.534 78.335,95.769 88.107 C 91.357 97.154,90.895 108.053,94.538 117.160 C 97.916 125.604,103.886 132.075,112.000 136.090 C 118.222 139.168,120.622 139.712,128.000 139.712 C 135.378 139.712,137.778 139.168,144.000 136.090 C 153.890 131.197,160.954 122.131,163.224 111.421 C 164.122 107.185,164.007 99.928,162.973 95.573 C 160.649 85.791,153.612 76.785,144.678 72.161 C 139.046 69.246,136.326 68.599,129.067 68.446 C 125.547 68.371,121.817 68.488,120.779 68.706 M134.816 76.867 C 137.829 77.580,143.355 80.392,145.734 82.423 C 152.380 88.095,155.733 95.249,155.733 103.757 C 155.733 109.228,155.196 111.619,152.881 116.442 C 148.311 125.965,138.817 131.840,128.000 131.840 C 120.259 131.840,113.810 129.175,108.310 123.704 C 105.646 121.055,104.692 119.720,103.119 116.442 C 100.804 111.619,100.267 109.228,100.267 103.757 C 100.267 89.942,110.099 78.528,123.876 76.349 C 126.440 75.944,132.037 76.208,134.816 76.867 " stroke="none" fill-rule="evenodd"></path></svg>