<svg fill="currentColor" viewBox="0 0 256 256" xmlns="http://www.w3.org/2000/svg"><path d="M119.893 28.020 C 101.505 29.864,86.855 34.926,72.555 44.377 C 47.425 60.985,31.251 87.838,28.119 118.150 C 27.067 128.333,28.193 142.399,30.889 152.747 C 39.490 185.761,64.798 212.733,97.067 223.276 C 113.369 228.603,131.305 229.689,147.840 226.350 C 168.092 222.260,185.608 212.657,200.127 197.684 C 211.535 185.919,219.135 173.008,224.066 157.013 C 229.229 140.269,229.600 120.475,225.076 103.173 C 215.308 65.819,184.906 37.186,147.035 29.674 C 138.726 28.026,126.972 27.310,119.893 28.020 M138.667 36.722 C 148.121 37.721,158.779 40.782,167.680 45.054 C 195.625 58.465,214.730 84.601,219.127 115.435 C 220.089 122.177,220.086 133.746,219.122 140.565 C 216.461 159.371,207.804 177.571,195.304 190.641 C 190.252 195.923,181.434 203.520,180.355 203.520 C 180.211 203.520,180.036 196.656,179.967 188.267 C 179.846 173.745,179.797 172.921,178.934 171.093 C 176.847 166.672,172.874 164.278,167.615 164.271 L 164.350 164.267 164.155 153.067 C 164.035 146.187,163.766 141.254,163.456 140.277 C 162.135 136.112,157.825 132.655,153.567 132.347 C 152.177 132.246,151.040 132.050,151.040 131.911 C 151.040 130.264,139.299 75.906,138.682 74.697 C 136.461 70.344,132.927 68.191,128.000 68.191 C 123.073 68.191,119.539 70.344,117.318 74.697 C 116.689 75.930,104.960 130.280,104.960 131.962 C 104.960 132.130,104.048 132.271,102.933 132.276 C 99.300 132.293,95.650 134.586,93.538 138.178 L 92.373 140.160 92.160 152.107 L 91.947 164.053 88.107 164.286 C 82.504 164.627,79.140 166.701,77.066 171.093 C 76.203 172.921,76.154 173.745,76.033 188.267 C 75.964 196.656,75.759 203.520,75.579 203.520 C 74.781 203.520,65.956 195.968,62.039 191.932 C 47.995 177.465,39.230 159.032,36.714 138.678 C 36.064 133.427,36.166 121.557,36.909 115.893 C 41.740 79.034,68.810 48.405,104.842 39.028 C 115.567 36.237,126.819 35.469,138.667 36.722 M130.035 76.609 C 130.555 76.973,131.171 77.628,131.405 78.064 C 131.638 78.500,134.240 90.443,137.187 104.602 C 140.134 118.762,142.653 130.779,142.785 131.307 L 143.026 132.267 128.000 132.267 L 112.974 132.267 113.215 131.307 C 113.347 130.779,115.866 118.762,118.813 104.602 C 121.760 90.443,124.362 78.500,124.595 78.064 C 125.217 76.902,126.753 75.947,128.000 75.947 C 128.600 75.947,129.515 76.245,130.035 76.609 M154.553 141.191 L 155.947 142.436 155.947 153.244 L 155.947 164.053 128.107 164.163 L 100.267 164.273 100.267 153.214 L 100.267 142.156 101.579 141.051 L 102.892 139.947 128.026 139.947 L 153.160 139.947 154.553 141.191 M169.822 172.591 C 170.507 172.946,171.266 173.605,171.507 174.056 C 171.788 174.580,171.947 181.044,171.947 191.909 L 171.947 208.942 167.350 211.098 C 154.639 217.060,142.313 219.817,128.213 219.851 C 113.915 219.886,101.592 217.158,88.640 211.090 L 84.053 208.942 84.053 191.909 C 84.053 181.092,84.213 174.579,84.491 174.060 C 85.637 171.918,84.308 171.982,127.915 171.964 C 163.370 171.949,168.735 172.029,169.822 172.591 " stroke="none" fill-rule="evenodd"></path></svg>