<svg fill="currentColor" viewBox="0 0 256 256" xmlns="http://www.w3.org/2000/svg"><path d="M158.720 44.232 C 157.102 44.864,156.160 46.239,156.160 47.971 C 156.160 49.680,156.368 49.921,167.250 60.796 L 178.339 71.880 167.250 82.998 C 156.230 94.047,156.160 94.128,156.160 95.931 C 156.160 98.435,157.565 99.840,160.069 99.840 C 161.872 99.840,161.953 99.770,173.002 88.750 L 184.120 77.661 195.204 88.750 C 206.153 99.706,206.309 99.840,208.066 99.840 C 209.528 99.840,210.041 99.607,210.949 98.527 C 213.265 95.775,213.233 95.727,200.864 83.325 L 189.675 72.107 200.622 61.120 C 207.943 53.772,211.667 49.730,211.868 48.915 C 212.533 46.216,209.763 43.472,207.048 44.141 C 206.281 44.330,202.016 48.268,194.876 55.382 L 183.885 66.333 172.903 55.361 C 161.823 44.293,160.741 43.443,158.720 44.232 M37.243 69.227 C 36.760 69.755,36.238 70.605,36.084 71.115 C 35.721 72.312,36.799 74.891,37.909 75.486 C 38.505 75.805,49.044 75.947,72.111 75.947 L 105.452 75.947 106.699 74.699 C 108.329 73.070,108.413 70.827,106.899 69.314 L 105.852 68.267 71.987 68.267 L 38.122 68.267 37.243 69.227 M69.675 148.809 C 67.972 150.148,67.840 151.383,67.840 166.001 L 67.840 180.053 53.318 180.053 C 37.229 180.053,37.179 180.061,36.275 182.800 C 35.736 184.435,36.149 185.838,37.542 187.093 C 38.444 187.906,39.181 187.952,53.148 188.069 L 67.808 188.192 67.931 202.852 C 68.048 216.819,68.094 217.556,68.907 218.458 C 70.171 219.860,71.564 220.264,73.233 219.713 C 75.969 218.811,75.947 218.952,75.947 202.785 L 75.947 188.160 90.040 188.160 C 105.018 188.160,106.470 187.988,107.486 186.091 C 108.338 184.498,108.032 182.633,106.699 181.301 L 105.452 180.053 90.699 180.053 L 75.947 180.053 75.947 165.301 L 75.947 150.548 74.699 149.301 C 73.247 147.848,71.159 147.644,69.675 148.809 M149.101 165.314 C 147.587 166.827,147.671 169.070,149.301 170.699 L 150.548 171.947 183.889 171.947 C 206.956 171.947,217.495 171.805,218.091 171.486 C 219.201 170.891,220.279 168.312,219.916 167.115 C 219.762 166.605,219.240 165.755,218.757 165.227 L 217.878 164.267 184.013 164.267 L 150.148 164.267 149.101 165.314 M149.101 197.314 C 147.587 198.827,147.671 201.070,149.301 202.699 L 150.548 203.947 183.889 203.947 C 206.956 203.947,217.495 203.805,218.091 203.486 C 219.201 202.891,220.279 200.312,219.916 199.115 C 219.762 198.605,219.240 197.755,218.757 197.227 L 217.878 196.267 184.013 196.267 L 150.148 196.267 149.101 197.314 " stroke="none" fill-rule="evenodd"></path></svg>