<svg fill="currentColor" viewBox="0 0 256 256" xmlns="http://www.w3.org/2000/svg"><path d="M120.960 12.208 C 109.502 13.408,100.097 16.094,90.453 20.921 C 64.659 33.830,47.554 58.579,44.398 87.557 C 42.221 107.545,48.195 129.257,60.421 145.790 C 63.919 150.520,68.720 155.741,72.516 158.945 L 75.947 161.840 75.947 201.220 C 75.947 230.843,76.073 240.877,76.456 241.719 C 77.008 242.930,78.800 244.053,80.178 244.053 C 80.652 244.053,91.606 238.775,104.520 232.323 L 128.000 220.593 151.480 232.323 C 164.394 238.775,175.348 244.053,175.822 244.053 C 177.200 244.053,178.992 242.930,179.544 241.719 C 179.927 240.877,180.053 230.844,180.053 201.224 L 180.053 161.848 183.517 158.897 C 190.528 152.923,198.573 142.572,202.843 134.029 C 213.017 113.675,214.757 90.880,207.748 69.760 C 197.800 39.782,172.485 18.184,141.227 13.007 C 137.289 12.355,124.405 11.847,120.960 12.208 M140.373 21.053 C 151.860 23.020,162.539 27.411,171.947 34.034 C 177.185 37.722,186.278 46.815,189.966 52.053 C 196.716 61.641,201.217 72.777,203.157 84.693 C 204.000 89.871,203.865 103.337,202.918 108.569 C 201.123 118.479,197.910 127.043,192.882 135.317 C 182.810 151.893,166.660 164.173,148.383 169.153 C 141.718 170.968,137.571 171.573,130.133 171.814 C 117.061 172.236,105.584 169.715,93.861 163.845 C 86.011 159.914,79.510 155.047,72.960 148.199 C 62.234 136.983,55.404 123.099,52.846 107.307 C 52.129 102.881,52.129 89.119,52.846 84.693 C 54.771 72.808,59.282 61.644,66.034 52.053 C 69.722 46.815,78.815 37.722,84.053 34.034 C 93.741 27.213,105.761 22.391,116.693 20.939 C 118.571 20.690,120.683 20.404,121.387 20.304 C 123.951 19.939,136.841 20.448,140.373 21.053 M121.642 44.424 C 108.837 45.908,95.803 53.133,87.707 63.234 C 72.068 82.747,72.075 109.262,87.725 128.788 C 95.104 137.995,105.363 144.220,117.829 147.055 C 122.176 148.043,133.824 148.043,138.171 147.055 C 153.384 143.595,165.463 134.916,173.001 122.027 C 184.840 101.784,181.320 75.761,164.489 59.093 C 153.239 47.952,137.546 42.579,121.642 44.424 M138.648 53.319 C 142.664 54.317,148.847 57.093,152.613 59.589 C 155.900 61.767,160.488 66.128,163.090 69.547 C 165.963 73.322,169.600 80.905,170.661 85.333 C 174.727 102.297,168.458 120.325,154.854 130.793 C 137.878 143.856,113.829 142.803,98.319 128.318 C 93.886 124.178,91.247 120.595,88.503 114.987 C 85.174 108.185,84.296 104.220,84.296 96.000 C 84.296 90.567,84.467 88.706,85.252 85.572 C 86.308 81.364,89.060 75.203,91.589 71.387 C 97.810 61.998,108.719 54.876,120.209 52.700 C 124.830 51.825,133.857 52.128,138.648 53.319 M100.907 175.471 C 123.060 182.784,145.467 181.185,165.867 170.838 L 171.947 167.754 171.947 200.570 C 171.947 218.619,171.850 233.387,171.732 233.387 C 171.613 233.387,161.918 228.587,150.187 222.720 C 138.455 216.853,128.471 212.053,128.000 212.053 C 127.529 212.053,117.545 216.853,105.813 222.720 C 94.082 228.587,84.387 233.387,84.268 233.387 C 84.150 233.387,84.053 218.619,84.053 200.570 L 84.053 167.754 90.133 170.838 C 93.477 172.534,98.325 174.619,100.907 175.471 " stroke="none" fill-rule="evenodd"></path></svg>