<svg fill="currentColor" viewBox="0 0 256 256" xmlns="http://www.w3.org/2000/svg"><path d="M61.592 68.913 C 53.936 70.252,45.706 73.568,38.991 78.018 C 25.460 86.985,16.623 100.038,13.151 116.186 C 11.812 122.409,11.812 133.591,13.151 139.814 C 18.451 164.462,37.221 182.673,61.957 187.168 C 67.263 188.132,76.989 188.122,82.133 187.147 C 95.545 184.604,106.929 178.430,115.823 168.874 C 121.862 162.386,126.017 155.363,128.869 146.825 C 131.007 140.423,131.836 135.158,131.838 127.969 C 131.843 111.696,125.861 97.241,114.363 85.743 C 106.295 77.675,97.211 72.531,86.009 69.687 C 82.276 68.739,80.606 68.575,73.387 68.450 C 67.512 68.348,64.046 68.484,61.592 68.913 M179.134 68.842 C 176.204 69.925,173.810 71.624,170.973 74.631 C 164.486 81.508,159.949 92.797,157.326 108.587 C 156.515 113.471,156.405 115.790,156.405 128.000 C 156.405 140.210,156.515 142.529,157.326 147.413 C 159.970 163.333,164.509 174.556,171.114 181.510 C 179.098 189.916,188.339 190.162,196.335 182.182 C 202.350 176.179,207.053 165.775,209.672 152.682 C 211.392 144.081,211.826 139.111,211.826 128.000 C 211.826 116.889,211.392 111.919,209.672 103.318 C 206.299 86.454,199.331 73.982,190.922 69.760 C 188.739 68.663,187.823 68.465,184.533 68.372 C 182.103 68.304,180.121 68.476,179.134 68.842 M237.051 69.579 L 235.947 70.892 235.947 128.026 L 235.947 185.160 237.173 186.532 C 238.141 187.615,238.735 187.904,240.000 187.904 C 241.265 187.904,241.859 187.615,242.827 186.532 L 244.053 185.160 244.053 128.026 L 244.053 70.892 242.949 69.579 C 242.029 68.486,241.535 68.267,240.000 68.267 C 238.465 68.267,237.971 68.486,237.051 69.579 M77.867 76.418 C 83.983 77.164,89.400 78.734,94.529 81.246 C 109.480 88.570,119.559 101.575,122.910 117.867 C 124.197 124.124,123.928 134.843,122.332 140.872 C 114.570 170.199,84.084 186.814,55.555 177.268 C 37.868 171.349,25.016 156.811,21.052 138.240 C 19.980 133.217,19.980 122.783,21.052 117.760 C 26.758 91.027,51.292 73.174,77.867 76.418 M187.977 77.245 C 193.580 80.708,199.022 91.505,201.590 104.256 C 203.365 113.068,203.718 117.028,203.710 128.000 C 203.702 138.961,203.333 143.088,201.590 151.744 C 198.361 167.773,190.755 180.053,184.056 180.053 C 182.031 180.053,178.513 178.034,176.471 175.700 C 174.200 173.104,170.775 166.641,169.055 161.707 C 165.277 150.868,163.653 136.900,164.344 121.173 C 164.959 107.149,167.595 95.904,172.457 86.555 C 175.079 81.515,177.637 78.516,180.586 77.023 C 183.186 75.707,185.606 75.780,187.977 77.245 " stroke="none" fill-rule="evenodd"></path></svg>