<svg fill="currentColor" viewBox="0 0 256 256" xmlns="http://www.w3.org/2000/svg"><path d="M34.578 29.498 C 31.808 30.882,29.773 33.135,28.726 35.975 C 28.349 36.996,28.218 57.866,28.197 120.107 L 28.168 202.880 29.169 205.030 C 30.463 207.808,33.610 210.585,36.406 211.415 C 41.331 212.878,44.203 211.921,50.874 206.598 C 77.423 185.412,109.810 170.560,140.373 165.556 C 143.307 165.076,146.235 164.594,146.880 164.485 L 148.053 164.288 148.063 183.797 C 148.075 208.540,147.486 206.748,157.911 213.776 C 161.441 216.155,165.227 218.504,166.324 218.996 C 168.797 220.104,173.131 220.173,175.476 219.142 C 177.426 218.284,180.152 215.884,181.317 213.999 C 181.937 212.996,194.987 165.382,194.987 164.123 C 194.987 164.028,196.139 163.820,197.548 163.660 C 203.725 162.962,211.599 159.965,217.012 156.253 C 227.564 149.016,234.827 136.615,235.868 124.055 C 237.674 102.271,224.096 83.053,202.880 77.363 L 198.613 76.219 172.373 75.944 C 146.382 75.671,146.076 75.657,140.117 74.541 C 114.343 69.711,89.192 59.609,67.413 45.340 C 62.020 41.807,58.519 39.255,47.518 30.838 C 43.410 27.694,39.084 27.247,34.578 29.498 M44.587 38.668 C 67.868 57.353,91.903 70.022,118.881 77.830 C 126.455 80.021,137.598 82.432,143.896 83.240 L 148.058 83.775 147.949 120.054 L 147.840 156.333 142.720 157.042 C 110.209 161.543,74.948 177.158,47.242 199.324 C 44.948 201.160,42.592 202.975,42.007 203.359 C 40.632 204.260,38.035 203.882,37.013 202.632 C 36.308 201.769,36.267 197.201,36.267 120.117 L 36.267 38.515 37.151 37.391 C 37.855 36.496,38.399 36.267,39.818 36.269 C 41.342 36.271,42.032 36.618,44.587 38.668 M200.960 85.087 C 213.555 88.615,223.489 98.471,226.798 110.720 C 227.881 114.729,228.093 122.856,227.228 127.175 C 224.540 140.596,214.462 151.168,200.747 154.956 C 197.488 155.856,196.402 155.906,176.747 156.058 L 156.160 156.218 156.160 120.114 L 156.160 84.009 177.173 84.159 C 195.907 84.293,198.488 84.394,200.960 85.087 M186.446 164.800 C 186.443 165.093,183.767 175.413,180.500 187.732 C 175.241 207.564,174.432 210.242,173.443 211.092 C 171.502 212.762,170.389 212.396,163.471 207.811 C 159.950 205.477,156.865 203.186,156.615 202.719 C 156.313 202.155,156.160 195.555,156.160 183.068 L 156.160 164.267 171.307 164.267 C 183.143 164.267,186.452 164.383,186.446 164.800 " stroke="none" fill-rule="evenodd"></path></svg>