<svg fill="currentColor" viewBox="0 0 256 256" xmlns="http://www.w3.org/2000/svg"><path d="M35.200 37.042 C 32.769 38.181,30.882 39.892,29.538 42.178 L 28.373 44.160 28.262 119.418 L 28.151 194.676 29.155 196.858 C 31.050 200.974,34.610 203.485,39.056 203.842 C 41.524 204.040,43.932 203.352,86.310 190.345 C 110.869 182.807,131.144 176.640,131.365 176.640 C 131.599 176.640,131.827 180.425,131.910 185.707 C 132.051 194.638,132.071 194.810,133.248 197.207 C 134.522 199.801,136.000 201.279,138.830 202.794 C 140.567 203.723,140.809 203.733,160.000 203.733 C 179.191 203.733,179.433 203.723,181.170 202.794 C 184.000 201.279,185.478 199.801,186.752 197.207 L 187.947 194.773 188.160 176.900 L 188.373 159.028 204.703 154.017 C 221.503 148.863,223.389 148.077,225.450 145.374 C 228.065 141.947,228.051 142.075,228.052 119.893 L 228.053 99.627 227.045 97.396 C 225.948 94.970,223.040 92.001,220.881 91.102 C 220.132 90.790,179.968 78.385,131.627 63.534 C 51.729 38.989,43.423 36.520,40.320 36.388 C 37.652 36.274,36.534 36.417,35.200 37.042 M86.827 58.167 L 131.627 71.938 131.735 120.005 L 131.844 168.073 129.815 168.679 C 128.699 169.013,108.288 175.261,84.457 182.563 C 60.625 189.865,40.505 195.840,39.744 195.840 C 38.845 195.840,37.995 195.474,37.314 194.793 L 36.267 193.745 36.267 119.951 L 36.267 46.156 37.629 45.010 C 38.752 44.065,39.257 43.911,40.509 44.130 C 41.344 44.276,62.187 50.593,86.827 58.167 M178.969 86.443 C 200.099 92.920,217.811 98.488,218.330 98.815 C 220.052 99.903,220.201 101.822,220.071 121.167 L 219.947 139.501 218.880 140.562 C 218.021 141.415,210.334 143.914,179.413 153.387 C 158.293 159.859,140.773 165.236,140.480 165.336 C 140.056 165.482,139.947 156.248,139.947 120.093 C 139.947 95.109,140.083 74.667,140.249 74.667 C 140.416 74.667,157.840 79.966,178.969 86.443 M180.053 177.039 C 180.053 185.750,179.877 192.834,179.646 193.443 C 179.422 194.033,178.710 194.861,178.064 195.284 C 176.982 195.993,175.544 196.053,159.708 196.053 L 142.526 196.053 141.343 194.871 L 140.160 193.689 140.031 183.880 C 139.911 174.759,139.956 174.049,140.671 173.763 C 142.014 173.227,178.963 161.806,179.520 161.755 C 179.938 161.717,180.053 165.032,180.053 177.039 " stroke="none" fill-rule="evenodd"></path></svg>