<svg fill="currentColor" viewBox="0 0 256 256" xmlns="http://www.w3.org/2000/svg"><path d="M122.453 20.352 C 116.269 21.026,106.830 24.890,101.547 28.910 C 95.699 33.361,90.027 40.365,90.027 43.136 C 90.027 45.929,92.975 47.740,95.772 46.667 C 96.155 46.520,97.257 45.224,98.223 43.787 C 102.135 37.962,109.118 32.569,115.840 30.180 C 123.071 27.611,132.038 27.452,138.880 29.772 C 148.462 33.020,155.944 39.386,160.031 47.766 C 163.891 55.684,163.840 55.082,163.840 92.347 C 163.840 114.749,163.983 124.870,164.313 125.816 C 165.247 128.496,168.655 129.224,170.699 127.179 L 171.947 125.932 171.947 93.102 C 171.947 66.161,171.834 59.630,171.321 56.696 C 167.246 33.408,146.213 17.766,122.453 20.352 M46.243 36.516 C 44.813 37.221,43.947 38.663,43.947 40.337 C 43.947 41.565,43.898 41.509,66.918 66.773 L 84.024 85.547 84.039 108.860 C 84.055 134.649,84.141 135.724,86.802 143.168 C 93.817 162.796,114.713 174.924,135.304 171.321 C 141.402 170.254,148.906 167.276,152.604 164.455 C 153.355 163.882,154.156 163.413,154.383 163.413 C 154.610 163.413,158.355 167.328,162.704 172.112 L 170.611 180.810 169.679 181.663 C 165.949 185.076,156.640 190.018,149.349 192.456 C 124.098 200.899,95.280 193.348,77.777 173.702 C 67.165 161.791,61.085 147.378,60.297 132.267 C 59.952 125.633,59.125 124.160,55.746 124.160 C 54.613 124.160,54.001 124.470,53.158 125.473 C 52.170 126.647,52.053 127.148,52.053 130.218 C 52.053 137.077,54.179 147.738,57.007 155.060 C 59.098 160.475,62.711 167.228,66.041 171.947 C 69.729 177.173,78.827 186.271,84.053 189.959 C 94.996 197.681,107.349 202.230,121.493 203.745 L 124.160 204.030 124.160 218.884 L 124.160 233.737 125.473 234.842 C 127.223 236.315,128.905 236.270,130.660 234.702 L 132.053 233.458 132.185 218.764 L 132.317 204.070 137.518 203.368 C 151.255 201.516,164.184 196.187,174.552 188.105 L 176.091 186.905 190.697 202.999 C 199.450 212.643,205.819 219.315,206.589 219.646 C 208.309 220.385,210.356 219.701,211.323 218.064 C 212.190 216.597,212.224 215.616,211.456 214.229 C 210.327 212.192,50.976 37.181,49.642 36.513 C 48.006 35.694,47.908 35.694,46.243 36.516 M121.327 126.587 C 136.496 143.292,148.907 157.059,148.907 157.181 C 148.907 157.794,142.654 160.975,139.093 162.174 C 135.628 163.340,134.251 163.569,129.605 163.746 C 123.460 163.980,120.694 163.569,115.316 161.623 C 105.452 158.054,97.446 149.679,93.778 139.093 L 92.373 135.040 92.247 114.773 C 92.123 94.828,92.134 94.520,92.934 95.360 C 93.381 95.829,106.158 109.881,121.327 126.587 M197.700 124.783 C 196.349 125.729,195.928 127.344,195.693 132.480 C 195.443 137.948,194.228 144.322,192.423 149.626 C 191.054 153.654,190.895 154.893,191.586 156.184 C 192.243 157.411,194.424 158.391,195.818 158.085 C 197.735 157.664,198.706 156.210,200.281 151.401 C 202.305 145.224,203.525 138.622,203.819 132.264 L 204.066 126.928 202.902 125.544 C 201.976 124.444,201.415 124.160,200.164 124.160 C 199.298 124.160,198.190 124.440,197.700 124.783 " stroke="none" fill-rule="evenodd"></path></svg>