<svg fill="currentColor" viewBox="0 0 256 256" xmlns="http://www.w3.org/2000/svg"><path d="M120.209 20.700 C 105.426 23.499,92.783 33.772,87.258 47.472 C 86.455 49.464,85.405 53.020,84.926 55.374 C 84.087 59.487,84.053 61.072,84.053 96.000 C 84.053 130.833,84.089 132.523,84.919 136.592 C 89.775 160.421,112.922 175.905,136.505 171.099 C 154.198 167.494,167.466 154.212,171.102 136.466 C 171.905 132.550,171.947 130.545,171.947 96.000 C 171.947 61.072,171.913 59.487,171.074 55.374 C 168.916 44.782,163.049 35.437,154.462 28.913 C 150.718 26.069,143.110 22.409,138.667 21.315 C 133.848 20.129,124.816 19.828,120.209 20.700 M138.027 29.440 C 144.080 31.346,149.231 34.410,153.411 38.589 C 157.646 42.825,160.677 47.954,162.626 54.187 L 163.627 57.387 163.627 96.000 L 163.627 134.613 162.623 137.813 C 160.410 144.869,156.409 151.092,151.378 155.307 C 147.411 158.630,144.393 160.331,139.394 162.062 C 135.508 163.409,134.453 163.591,129.578 163.756 C 123.415 163.966,120.647 163.552,115.316 161.623 C 105.452 158.054,97.446 149.679,93.778 139.093 L 92.373 135.040 92.373 96.000 L 92.373 56.960 93.778 52.907 C 98.072 40.513,107.845 31.694,120.533 28.763 C 124.468 27.854,134.184 28.230,138.027 29.440 M53.158 125.473 C 52.170 126.647,52.053 127.148,52.053 130.218 C 52.053 137.077,54.179 147.738,57.007 155.060 C 59.098 160.475,62.711 167.228,66.041 171.947 C 69.729 177.173,78.827 186.271,84.053 189.959 C 94.996 197.681,107.349 202.230,121.493 203.745 L 124.160 204.030 124.160 218.884 L 124.160 233.737 125.473 234.842 C 127.223 236.315,128.905 236.270,130.660 234.702 L 132.053 233.458 132.185 218.739 L 132.317 204.020 134.532 203.753 C 149.441 201.954,160.975 197.702,171.947 189.959 C 177.173 186.271,186.271 177.173,189.959 171.947 C 198.254 160.193,203.093 146.252,203.809 132.051 C 204.066 126.929,204.066 126.928,202.902 125.544 C 202.000 124.472,201.403 124.160,200.254 124.160 C 196.865 124.160,196.039 125.637,195.720 132.267 C 194.432 159.047,176.125 183.199,150.333 192.147 C 141.941 195.058,138.292 195.627,128.000 195.627 C 117.708 195.627,114.059 195.058,105.667 192.147 C 79.869 183.197,61.569 159.053,60.280 132.267 C 59.961 125.637,59.135 124.160,55.746 124.160 C 54.613 124.160,54.001 124.470,53.158 125.473 " stroke="none" fill-rule="evenodd"></path></svg>