<svg fill="currentColor" viewBox="0 0 256 256" xmlns="http://www.w3.org/2000/svg"><path d="M66.654 29.460 C 64.033 30.770,61.985 32.836,60.919 35.245 C 60.522 36.144,60.315 40.771,60.160 52.267 L 59.947 68.053 47.965 68.267 L 35.984 68.480 33.900 69.769 C 31.435 71.294,29.212 74.053,28.591 76.355 C 28.291 77.471,28.183 94.567,28.260 128.924 L 28.373 179.840 29.538 181.822 C 30.920 184.172,32.783 185.832,35.413 187.054 C 37.183 187.877,38.228 187.957,48.747 188.084 L 60.160 188.222 60.160 203.262 C 60.160 220.655,60.222 221.035,63.603 224.415 C 67.565 228.377,61.086 228.053,136.320 228.053 L 202.453 228.053 204.706 227.035 C 207.651 225.704,210.555 222.489,211.409 219.614 C 211.975 217.710,212.053 206.525,212.053 128.000 C 212.053 49.859,211.973 38.283,211.415 36.406 C 210.654 33.841,207.989 30.649,205.495 29.315 L 203.733 28.373 136.505 28.261 L 69.277 28.150 66.654 29.460 M131.840 52.267 L 131.840 68.267 100.053 68.267 L 68.267 68.267 68.267 53.254 C 68.267 38.428,68.278 38.229,69.194 37.254 L 70.122 36.267 100.981 36.267 L 131.840 36.267 131.840 52.267 M202.900 37.396 L 203.947 38.525 203.947 65.342 L 203.947 92.160 180.089 92.160 L 156.230 92.160 156.087 84.800 C 155.958 78.206,155.841 77.218,154.963 75.307 C 152.815 70.630,149.695 68.632,144.000 68.286 L 140.160 68.053 140.048 52.160 L 139.936 36.267 170.895 36.267 L 201.854 36.267 202.900 37.396 M145.858 76.555 C 146.505 76.889,147.263 77.666,147.544 78.281 C 148.280 79.898,148.280 176.102,147.544 177.719 C 146.425 180.173,149.276 180.053,91.787 180.053 L 38.892 180.053 37.579 178.949 L 36.267 177.844 36.267 128.000 L 36.267 78.156 37.579 77.051 L 38.892 75.947 91.787 75.947 C 136.733 75.947,144.859 76.038,145.858 76.555 M109.699 100.934 C 108.984 101.535,104.717 106.446,100.217 111.846 C 92.392 121.236,92.003 121.631,91.305 120.886 C 90.903 120.457,87.164 115.979,82.995 110.933 C 78.826 105.888,75.034 101.424,74.567 101.013 C 74.066 100.572,73.031 100.267,72.040 100.267 C 69.724 100.267,68.267 101.736,68.267 104.073 C 68.267 105.675,68.848 106.484,77.333 116.692 C 82.320 122.691,86.400 127.782,86.400 128.005 C 86.400 128.228,82.419 133.193,77.554 139.038 C 72.689 144.882,68.508 150.191,68.263 150.835 C 67.530 152.765,68.655 154.982,70.781 155.795 C 73.069 156.670,74.083 155.773,83.166 144.852 C 87.947 139.103,91.911 134.400,91.974 134.400 C 92.037 134.400,95.759 138.804,100.244 144.186 C 109.845 155.708,110.506 156.339,112.616 156.003 C 114.581 155.691,116.053 154.016,116.053 152.093 C 116.053 150.818,114.866 149.208,106.635 139.317 L 97.217 128.000 106.635 116.683 C 114.363 107.397,116.053 105.133,116.053 104.068 C 116.053 102.321,115.423 101.257,113.929 100.484 C 112.169 99.575,111.191 99.679,109.699 100.934 M203.947 128.213 L 203.947 156.160 180.053 156.160 L 156.160 156.160 156.160 128.213 L 156.160 100.267 180.053 100.267 L 203.947 100.267 203.947 128.213 M203.947 190.735 C 203.947 219.916,204.054 218.739,201.295 219.701 C 200.405 220.012,190.267 220.160,169.963 220.160 L 139.947 220.160 139.947 204.215 L 139.947 188.270 143.253 188.070 C 149.005 187.721,152.851 185.298,154.963 180.693 C 155.834 178.794,155.957 177.776,156.086 171.413 L 156.232 164.267 180.089 164.267 L 203.947 164.267 203.947 190.735 M131.840 204.168 L 131.840 220.177 101.154 220.062 L 70.468 219.947 69.368 218.912 L 68.267 217.878 68.267 203.019 L 68.267 188.160 100.053 188.160 L 131.840 188.160 131.840 204.168 " stroke="none" fill-rule="evenodd"></path></svg>