<svg fill="currentColor" viewBox="0 0 256 256" xmlns="http://www.w3.org/2000/svg"><path d="M106.880 37.285 C 104.245 38.533,102.319 40.517,101.035 43.307 C 100.101 45.337,100.047 45.993,99.921 56.845 L 99.789 68.251 67.888 68.365 L 35.986 68.480 33.901 69.769 C 31.435 71.294,29.212 74.052,28.591 76.355 C 28.291 77.471,28.183 94.567,28.260 128.924 L 28.373 179.840 29.538 181.822 C 30.920 184.172,32.783 185.832,35.413 187.054 C 37.258 187.912,38.090 187.952,56.615 188.073 L 75.896 188.200 76.028 199.593 C 76.150 210.146,76.227 211.128,77.062 212.907 C 78.194 215.316,80.570 217.683,83.139 218.961 L 85.120 219.947 150.613 220.061 C 195.605 220.139,216.791 220.033,218.293 219.722 C 222.516 218.846,226.304 215.453,227.521 211.454 C 227.932 210.105,228.053 199.257,228.053 163.840 C 228.053 119.873,228.020 117.887,227.246 115.881 C 226.204 113.180,223.970 110.730,221.254 109.313 C 219.200 108.241,218.719 108.177,211.531 108.025 L 203.968 107.864 203.851 76.225 L 203.733 44.587 202.475 42.315 C 201.783 41.066,200.504 39.479,199.633 38.789 C 196.259 36.117,199.083 36.266,152.014 36.271 L 109.013 36.275 106.880 37.285 M194.810 45.357 L 195.840 46.554 195.840 86.993 L 195.840 127.432 174.030 143.182 C 162.035 151.845,152.145 158.933,152.053 158.933 C 151.961 158.933,151.030 158.357,149.985 157.653 L 148.085 156.373 147.962 116.693 C 147.841 77.254,147.835 77.002,146.934 75.093 C 145.841 72.778,143.801 70.658,141.463 69.406 C 139.801 68.516,139.115 68.472,123.947 68.267 L 108.160 68.053 108.045 57.814 C 107.967 50.789,108.086 47.201,108.424 46.384 C 109.471 43.856,107.393 43.965,152.464 44.067 L 193.781 44.160 194.810 45.357 M137.822 76.591 C 138.507 76.946,139.266 77.605,139.507 78.056 C 139.801 78.606,139.947 95.175,139.947 128.161 L 139.947 177.446 138.917 178.643 L 137.887 179.840 88.396 179.952 L 38.905 180.064 37.586 178.954 L 36.267 177.844 36.267 128.000 L 36.267 78.156 37.579 77.051 L 38.892 75.947 87.734 75.947 C 130.463 75.947,136.732 76.027,137.822 76.591 M81.141 100.889 C 76.703 101.963,71.771 104.816,68.272 108.333 C 59.482 117.170,57.604 130.159,63.487 141.433 C 66.717 147.623,73.865 153.190,81.067 155.125 C 85.409 156.291,91.922 156.122,96.222 154.731 C 106.113 151.533,113.288 143.558,115.378 133.438 C 116.228 129.322,116.230 126.700,115.385 122.542 C 113.312 112.338,105.476 103.871,95.582 101.146 C 91.860 100.121,84.833 99.996,81.141 100.889 M92.280 108.575 C 103.146 110.877,110.095 122.133,107.293 132.892 C 104.330 144.266,92.452 150.653,81.394 146.819 C 76.540 145.136,72.515 141.491,70.060 136.555 C 68.489 133.396,68.480 133.346,68.480 128.000 C 68.480 122.660,68.491 122.600,70.054 119.445 C 72.073 115.369,75.216 112.193,79.143 110.258 C 83.816 107.955,87.269 107.513,92.280 108.575 M210.965 116.424 C 210.135 117.184,204.458 121.173,204.207 121.173 C 204.064 121.173,203.947 120.021,203.947 118.613 L 203.947 116.053 207.659 116.053 C 209.787 116.053,211.198 116.212,210.965 116.424 M220.057 185.966 L 219.947 208.156 189.694 186.304 C 173.054 174.285,159.433 164.265,159.423 164.039 C 159.414 163.812,173.028 153.783,189.677 141.752 L 219.947 119.878 220.057 141.826 C 220.118 153.898,220.118 173.761,220.057 185.966 M179.307 188.637 C 196.262 200.868,210.416 211.142,210.762 211.468 C 211.300 211.975,202.274 212.046,148.752 211.951 L 86.113 211.840 85.083 210.643 C 84.054 209.447,84.053 209.437,84.053 198.818 L 84.053 188.190 111.467 188.068 L 138.880 187.947 140.881 186.952 C 141.981 186.405,143.743 185.036,144.795 183.911 C 147.428 181.097,148.053 178.785,148.053 171.869 C 148.053 168.861,148.150 166.400,148.267 166.400 C 148.385 166.400,162.353 176.407,179.307 188.637 " stroke="none" fill-rule="evenodd"></path></svg>