<svg fill="currentColor" viewBox="0 0 256 256" xmlns="http://www.w3.org/2000/svg"><path d="M102.613 25.762 C 88.136 31.035,75.941 38.772,65.249 49.463 C 40.355 74.358,30.552 110.261,39.251 144.682 C 42.613 157.984,49.219 171.257,58.022 182.400 C 61.873 187.274,70.319 195.515,75.324 199.281 C 93.425 212.902,113.721 219.733,136.091 219.733 C 152.354 219.733,165.584 216.662,180.308 209.469 C 203.444 198.165,221.126 178.257,230.234 153.259 C 231.892 148.709,232.029 146.906,230.833 145.385 C 229.547 143.750,228.254 143.648,223.883 144.835 C 214.059 147.503,202.195 148.572,192.427 147.669 C 149.328 143.685,115.492 111.815,108.953 69.044 C 107.945 62.451,107.946 49.793,108.955 42.925 C 109.364 40.134,110.266 35.656,110.957 32.975 C 112.327 27.661,112.275 26.473,110.615 25.167 C 109.103 23.978,107.101 24.127,102.613 25.762 M101.495 38.720 C 98.054 57.796,100.582 78.144,108.701 96.710 C 118.594 119.331,138.759 138.993,161.493 148.185 C 180.163 155.733,197.961 157.761,217.067 154.519 C 222.278 153.635,222.151 153.061,218.420 160.646 C 213.678 170.287,207.690 178.441,199.627 186.242 C 189.405 196.130,178.099 202.958,164.574 207.412 C 145.640 213.646,125.977 213.542,106.633 207.106 C 62.830 192.529,36.799 147.372,45.883 101.718 C 50.579 78.118,65.071 56.675,85.333 43.348 C 87.563 41.882,90.719 39.947,92.348 39.048 C 95.065 37.549,101.429 34.598,102.003 34.571 C 102.136 34.565,101.908 36.432,101.495 38.720 " stroke="none" fill-rule="evenodd"></path></svg>