<svg fill="currentColor" viewBox="0 0 256 256" xmlns="http://www.w3.org/2000/svg"><path d="M133.243 37.227 C 132.760 37.755,132.238 38.605,132.084 39.115 C 131.770 40.150,132.718 42.786,133.610 43.361 C 133.927 43.566,141.189 43.829,149.746 43.947 L 165.306 44.160 182.276 89.387 C 191.610 114.261,199.343 134.905,199.461 135.262 C 199.607 135.703,198.920 136.362,197.307 137.326 C 188.275 142.729,182.815 150.993,180.282 163.097 L 180.035 164.274 156.903 164.164 L 133.770 164.053 120.684 129.081 C 112.519 107.258,107.246 93.742,106.661 93.134 L 105.724 92.160 63.993 92.160 L 22.263 92.160 21.158 93.473 C 19.685 95.223,19.730 96.905,21.297 98.659 L 22.542 100.051 29.191 100.205 L 35.840 100.358 35.840 110.250 L 35.840 120.142 33.276 121.319 C 22.132 126.435,11.959 137.571,7.424 149.619 C 4.941 156.216,3.316 166.293,4.270 169.182 C 5.064 171.590,5.463 171.714,13.149 171.947 L 20.197 172.160 20.798 175.140 C 23.503 188.544,33.608 199.115,47.361 202.931 C 49.449 203.510,51.607 203.695,56.107 203.678 C 61.321 203.659,62.558 203.512,65.838 202.516 C 79.052 198.507,88.310 188.555,91.159 175.297 L 91.880 171.943 136.036 172.051 L 180.192 172.160 180.748 174.889 C 182.183 181.920,185.115 187.579,189.974 192.695 C 200.857 204.151,217.843 207.198,231.948 200.224 C 243.197 194.662,250.750 183.493,251.939 170.667 C 252.321 166.544,251.597 161.255,249.992 156.437 C 246.159 144.929,236.541 136.126,224.472 133.079 C 221.388 132.301,220.055 132.204,214.872 132.386 C 211.562 132.503,208.469 132.721,208.000 132.871 C 207.214 133.122,205.724 129.344,189.240 85.304 C 176.702 51.805,171.078 37.285,170.479 36.866 C 169.778 36.375,166.422 36.267,151.873 36.267 L 134.122 36.267 133.243 37.227 M112.974 131.307 C 119.375 148.379,124.724 162.779,124.862 163.307 L 125.113 164.267 68.684 164.267 L 12.254 164.267 12.507 162.135 C 14.268 147.266,25.125 133.158,39.253 127.378 C 44.153 125.374,43.947 126.040,43.947 112.190 L 43.947 100.267 72.641 100.267 L 101.336 100.267 112.974 131.307 M223.326 141.061 C 235.915 144.316,244.897 156.987,243.832 169.990 C 242.913 181.218,235.990 190.315,225.271 194.380 C 222.332 195.494,221.608 195.591,216.107 195.608 C 210.666 195.625,209.854 195.525,207.004 194.484 C 202.590 192.871,199.552 190.944,196.304 187.696 C 191.120 182.512,188.598 176.823,188.256 169.542 C 187.861 161.151,190.492 154.189,196.230 148.435 C 199.493 145.163,202.070 143.413,202.656 144.070 C 202.831 144.266,205.061 150.091,207.611 157.013 C 212.649 170.688,213.354 171.947,215.979 171.947 C 217.845 171.947,219.127 171.012,219.718 169.220 C 220.161 167.879,219.843 166.839,215.271 154.648 C 212.562 147.428,210.347 141.274,210.347 140.972 C 210.347 139.822,218.757 139.880,223.326 141.061 M83.417 173.333 C 81.479 183.026,74.723 190.851,65.271 194.352 C 60.680 196.052,53.665 196.334,48.848 195.012 C 42.646 193.311,37.511 189.866,33.780 184.903 C 31.343 181.662,29.144 176.856,28.736 173.882 L 28.471 171.947 56.083 171.947 L 83.694 171.947 83.417 173.333 " stroke="none" fill-rule="evenodd"></path></svg>