<svg fill="currentColor" viewBox="0 0 256 256" xmlns="http://www.w3.org/2000/svg"><path d="M104.533 20.498 C 80.806 23.634,60.993 40.573,54.412 63.347 C 52.012 71.656,52.057 70.419,52.057 128.000 C 52.057 185.581,52.012 184.344,54.412 192.653 C 60.038 212.122,75.878 227.962,95.347 233.588 C 102.932 235.779,105.206 235.943,128.000 235.943 C 150.794 235.943,153.068 235.779,160.653 233.588 C 180.122 227.962,195.962 212.122,201.588 192.653 C 203.988 184.344,203.943 185.581,203.943 128.000 C 203.943 70.419,203.988 71.656,201.588 63.347 C 198.769 53.592,193.752 45.202,186.273 37.734 C 177.723 29.198,168.115 23.927,156.264 21.272 C 152.318 20.387,150.969 20.335,129.707 20.236 C 117.387 20.179,106.059 20.297,104.533 20.498 M124.160 68.053 L 124.160 107.947 92.160 107.947 L 60.160 107.947 60.162 91.627 C 60.164 73.925,60.452 70.570,62.516 64.204 C 68.509 45.722,84.253 32.037,103.253 28.794 C 105.069 28.484,110.282 28.229,115.307 28.204 L 124.160 28.160 124.160 68.053 M152.543 28.788 C 169.919 31.606,185.230 43.743,191.941 60.016 C 195.414 68.439,195.840 71.888,195.840 91.576 L 195.840 107.947 164.053 107.947 L 132.267 107.947 132.267 68.053 L 132.267 28.160 140.480 28.162 C 145.643 28.163,150.123 28.395,152.543 28.788 M195.840 148.424 C 195.840 175.448,195.733 181.421,195.191 184.584 C 191.691 205.028,176.689 221.312,156.678 226.388 C 151.174 227.784,143.836 228.265,128.000 228.265 C 112.164 228.265,104.826 227.784,99.322 226.388 C 81.946 221.981,68.077 208.946,62.516 191.796 C 60.240 184.778,60.164 183.368,60.162 148.373 L 60.160 116.053 128.000 116.053 L 195.840 116.053 195.840 148.424 " stroke="none" fill-rule="evenodd"></path></svg>