<svg fill="currentColor" viewBox="0 0 256 256" xmlns="http://www.w3.org/2000/svg"><path d="M104.533 20.498 C 80.806 23.634,60.993 40.573,54.412 63.347 C 52.012 71.656,52.057 70.419,52.057 128.000 C 52.057 185.581,52.012 184.344,54.412 192.653 C 60.038 212.122,75.878 227.962,95.347 233.588 C 102.932 235.779,105.206 235.943,128.000 235.943 C 150.794 235.943,153.068 235.779,160.653 233.588 C 180.122 227.962,195.962 212.122,201.588 192.653 C 203.988 184.344,203.943 185.581,203.943 128.000 C 203.943 70.419,203.988 71.656,201.588 63.347 C 198.769 53.592,193.752 45.202,186.273 37.734 C 177.723 29.198,168.115 23.927,156.264 21.272 C 152.318 20.387,150.969 20.335,129.707 20.236 C 117.387 20.179,106.059 20.297,104.533 20.498 M152.543 28.788 C 171.895 31.927,188.393 46.523,193.855 65.337 C 195.845 72.191,195.840 72.029,195.840 128.000 C 195.840 173.302,195.748 181.333,195.191 184.584 C 191.691 205.028,176.689 221.312,156.678 226.388 C 151.174 227.784,143.836 228.265,128.000 228.265 C 112.164 228.265,104.826 227.784,99.322 226.388 C 79.341 221.320,64.062 204.728,60.788 184.543 C 59.858 178.811,59.858 77.189,60.788 71.457 C 64.291 49.856,81.572 32.495,103.253 28.794 C 108.163 27.956,147.383 27.951,152.543 28.788 M125.207 61.207 L 124.160 62.255 124.160 88.049 L 124.160 113.844 125.473 114.949 C 127.874 116.970,130.943 115.896,131.823 112.727 C 132.421 110.573,132.419 65.207,131.821 63.053 C 131.276 61.088,130.012 60.160,127.886 60.160 C 126.723 60.160,125.954 60.461,125.207 61.207 " stroke="none" fill-rule="evenodd"></path></svg>