<svg fill="currentColor" viewBox="0 0 256 256" xmlns="http://www.w3.org/2000/svg"><path d="M125.207 37.314 L 124.160 38.361 124.146 98.647 L 124.133 158.933 123.223 157.653 C 121.387 155.069,115.289 149.374,112.263 147.416 C 96.199 137.024,76.416 137.779,61.034 149.369 C 48.862 158.541,42.264 174.721,44.408 190.138 C 45.258 196.246,48.236 203.924,51.721 208.992 C 53.949 212.231,59.542 217.788,62.935 220.134 C 83.235 234.167,111.410 228.729,124.698 208.213 C 129.016 201.548,131.151 195.173,131.843 186.880 C 132.083 184.014,132.256 153.625,132.260 113.813 C 132.264 76.325,132.388 45.653,132.537 45.653 C 132.686 45.653,149.468 50.645,169.830 56.747 C 190.192 62.848,207.455 67.840,208.192 67.840 C 209.705 67.840,211.442 66.380,211.846 64.767 C 212.186 63.413,211.463 61.631,210.259 60.850 C 208.736 59.863,129.625 36.267,127.840 36.267 C 126.726 36.267,125.943 36.578,125.207 37.314 M95.516 148.889 C 108.716 151.613,119.730 162.275,122.860 175.360 C 124.055 180.357,124.061 188.018,122.873 192.678 C 119.510 205.875,109.300 215.834,95.724 219.162 C 91.431 220.214,83.560 220.102,79.170 218.927 C 51.785 211.593,42.865 177.390,63.280 157.998 C 71.980 149.734,83.641 146.439,95.516 148.889 " stroke="none" fill-rule="evenodd"></path></svg>