<svg fill="currentColor" viewBox="0 0 256 256" xmlns="http://www.w3.org/2000/svg"><path d="M197.867 28.621 C 196.045 29.682,195.840 31.015,195.840 41.792 L 195.840 52.053 185.197 52.053 C 174.772 52.053,174.532 52.073,173.449 53.013 C 172.801 53.577,172.243 54.610,172.099 55.515 C 171.892 56.816,172.055 57.282,173.145 58.501 L 174.435 59.947 185.117 60.074 L 195.799 60.201 195.926 70.883 L 196.053 81.565 197.499 82.855 C 198.718 83.945,199.184 84.108,200.485 83.901 C 201.390 83.757,202.423 83.199,202.987 82.551 C 203.927 81.468,203.947 81.228,203.947 70.803 L 203.947 60.160 214.208 60.160 C 222.526 60.160,224.705 60.038,225.715 59.516 C 228.263 58.198,228.676 54.966,226.527 53.158 L 225.215 52.053 214.581 52.053 L 203.947 52.053 203.947 41.419 L 203.947 30.785 202.842 29.473 C 201.973 28.440,201.405 28.163,200.175 28.173 C 199.316 28.180,198.277 28.382,197.867 28.621 M106.293 53.283 C 80.131 59.868,77.896 60.501,76.960 61.589 L 75.947 62.768 75.947 122.749 L 75.947 182.730 73.920 180.841 C 61.673 169.423,43.830 169.132,30.630 180.136 C 26.385 183.675,22.226 190.666,20.723 196.791 C 19.226 202.890,20.042 211.143,22.746 217.248 C 25.725 223.975,32.017 230.272,38.732 233.246 C 51.845 239.053,67.867 235.338,76.553 224.476 C 79.598 220.668,80.761 218.548,82.428 213.760 L 83.840 209.707 84.053 162.373 L 84.267 115.040 123.018 105.352 C 154.586 97.459,161.961 95.483,162.804 94.691 C 164.787 92.828,163.734 88.814,161.088 88.150 C 160.397 87.977,146.955 91.153,122.471 97.275 C 101.815 102.441,84.720 106.667,84.484 106.667 C 84.201 106.667,84.053 99.900,84.053 86.879 L 84.053 67.092 111.023 60.351 C 140.611 52.956,139.947 53.192,139.947 50.038 C 139.947 48.015,138.000 46.065,136.033 46.118 C 135.252 46.138,121.869 49.363,106.293 53.283 M205.357 117.083 L 204.160 118.112 203.947 134.391 L 203.733 150.671 202.453 149.319 C 196.209 142.723,184.903 138.961,175.570 140.373 C 164.550 142.040,155.641 148.621,151.022 158.507 C 148.810 163.242,148.017 166.819,148.022 172.045 C 148.031 182.956,153.136 192.543,162.252 198.771 C 175.324 207.703,194.680 204.822,204.553 192.476 C 207.598 188.668,208.761 186.548,210.428 181.760 L 211.840 177.707 211.840 147.910 L 211.840 118.113 210.643 117.083 C 209.060 115.722,206.940 115.721,205.357 117.083 M185.283 148.679 C 191.698 150.039,197.991 154.853,201.110 160.789 C 206.077 170.241,204.308 181.576,196.697 189.064 C 192.058 193.627,186.675 195.826,180.115 195.835 C 173.265 195.845,168.060 193.685,163.187 188.813 C 159.803 185.429,157.776 181.951,156.817 177.880 C 154.854 169.554,157.129 161.209,162.983 155.256 C 168.821 149.321,176.969 146.917,185.283 148.679 M57.283 180.679 C 63.698 182.039,69.991 186.853,73.110 192.789 C 78.077 202.241,76.308 213.576,68.697 221.064 C 64.058 225.627,58.675 227.826,52.115 227.835 C 45.265 227.845,40.060 225.685,35.187 220.813 C 31.803 217.429,29.776 213.951,28.817 209.880 C 26.854 201.554,29.129 193.209,34.983 187.256 C 40.821 181.321,48.969 178.917,57.283 180.679 " stroke="none" fill-rule="evenodd"></path></svg>