<svg fill="currentColor" viewBox="0 0 256 256" xmlns="http://www.w3.org/2000/svg"><path d="M42.880 37.271 C 40.252 38.497,37.927 41.009,36.860 43.774 C 36.079 45.801,36.053 48.461,36.053 128.000 C 36.053 207.758,36.077 210.194,36.866 212.242 C 37.944 215.036,40.465 217.697,43.210 218.938 L 45.440 219.947 102.400 219.947 L 159.360 219.947 161.707 218.789 C 163.645 217.833,168.777 212.896,191.200 190.416 C 215.151 166.403,218.440 162.949,219.146 161.067 C 219.914 159.020,219.947 156.639,219.947 102.400 C 219.947 47.971,219.917 45.789,219.140 43.774 C 218.073 41.009,215.748 38.497,213.120 37.271 L 210.987 36.275 128.000 36.275 L 45.013 36.275 42.880 37.271 M209.719 44.456 C 212.175 45.576,212.053 42.588,212.053 101.739 L 212.053 156.160 185.154 156.160 L 158.255 156.160 157.207 157.207 L 156.160 158.255 156.160 185.154 L 156.160 212.053 101.739 212.053 C 42.588 212.053,45.576 212.175,44.456 209.719 C 44.067 208.863,43.950 189.580,43.962 127.873 C 43.978 41.093,43.856 45.801,46.127 44.542 C 47.552 43.752,207.989 43.668,209.719 44.456 M204.155 166.323 C 202.984 167.455,193.531 176.801,183.147 187.092 L 164.267 205.804 164.267 185.035 L 164.267 164.267 185.275 164.267 L 206.283 164.267 204.155 166.323 " stroke="none" fill-rule="evenodd"></path></svg>