<svg fill="currentColor" viewBox="0 0 256 256" xmlns="http://www.w3.org/2000/svg"><path d="M42.880 37.271 C 40.252 38.497,37.927 41.009,36.860 43.774 C 36.079 45.801,36.053 48.461,36.053 128.000 C 36.053 207.758,36.077 210.194,36.866 212.242 C 37.944 215.036,40.465 217.697,43.210 218.938 L 45.440 219.947 128.000 219.947 L 210.560 219.947 212.790 218.938 C 215.535 217.697,218.056 215.036,219.134 212.242 C 219.923 210.194,219.947 207.758,219.947 128.000 C 219.947 48.461,219.921 45.801,219.140 43.774 C 218.073 41.009,215.748 38.497,213.120 37.271 L 210.987 36.275 128.000 36.275 L 45.013 36.275 42.880 37.271 M209.719 44.456 C 212.203 45.588,212.053 40.243,212.053 127.959 C 212.053 189.572,211.933 208.864,211.544 209.719 C 210.412 212.203,215.761 212.053,128.000 212.053 C 40.239 212.053,45.588 212.203,44.456 209.719 C 44.067 208.863,43.950 189.580,43.962 127.873 C 43.978 41.093,43.856 45.801,46.127 44.542 C 47.552 43.752,207.989 43.668,209.719 44.456 M118.095 84.547 C 110.988 89.277,104.939 93.453,104.654 93.827 C 103.711 95.060,103.997 97.480,105.232 98.715 C 107.419 100.903,108.403 100.534,118.716 93.654 L 127.989 87.468 128.101 132.650 C 128.209 175.956,128.246 177.867,129.004 178.704 C 130.058 179.869,132.027 180.256,133.595 179.607 C 136.244 178.509,136.107 181.341,136.107 127.980 C 136.107 83.307,136.048 79.179,135.396 78.076 C 134.648 76.809,133.206 75.947,131.835 75.947 C 131.385 75.947,125.202 79.817,118.095 84.547 " stroke="none" fill-rule="evenodd"></path></svg>