<svg fill="currentColor" viewBox="0 0 256 256" xmlns="http://www.w3.org/2000/svg"><path d="M121.961 44.403 C 104.516 46.561,89.341 57.226,81.490 72.847 C 79.506 76.794,77.993 81.236,76.947 86.187 C 75.993 90.703,75.889 100.819,76.752 105.173 C 81.232 127.792,98.683 144.384,121.387 147.612 C 130.096 148.850,140.726 147.270,148.868 143.526 C 150.606 142.727,152.099 142.144,152.186 142.230 C 152.272 142.317,144.178 156.875,134.198 174.582 C 121.020 197.964,116.053 207.142,116.053 208.111 C 116.053 209.915,117.587 211.594,119.515 211.901 C 120.807 212.106,121.270 211.949,122.378 210.926 C 123.565 209.831,170.201 127.615,174.499 119.040 C 176.436 115.176,178.073 110.393,179.071 105.682 C 180.081 100.913,180.081 91.087,179.071 86.318 C 174.552 64.979,158.986 49.366,137.894 45.017 C 133.868 44.187,126.122 43.889,121.961 44.403 M138.648 53.319 C 142.664 54.317,148.847 57.093,152.613 59.589 C 155.900 61.767,160.488 66.128,163.090 69.547 C 165.963 73.322,169.600 80.905,170.661 85.333 C 174.727 102.297,168.458 120.325,154.854 130.793 C 137.878 143.856,113.829 142.803,98.319 128.318 C 93.886 124.178,91.247 120.595,88.503 114.987 C 85.174 108.185,84.296 104.220,84.296 96.000 C 84.296 90.567,84.467 88.706,85.252 85.572 C 86.308 81.364,89.060 75.203,91.589 71.387 C 97.810 61.998,108.719 54.876,120.209 52.700 C 124.830 51.825,133.857 52.128,138.648 53.319 " stroke="none" fill-rule="evenodd"></path></svg>