<svg fill="currentColor" viewBox="0 0 256 256" xmlns="http://www.w3.org/2000/svg"><path d="M42.880 37.271 C 40.252 38.497,37.927 41.009,36.860 43.774 C 36.079 45.801,36.053 48.461,36.053 128.000 C 36.053 207.758,36.077 210.194,36.866 212.242 C 37.944 215.036,40.465 217.697,43.210 218.938 L 45.440 219.947 128.000 219.947 L 210.560 219.947 212.790 218.938 C 215.535 217.697,218.056 215.036,219.134 212.242 C 219.923 210.194,219.947 207.758,219.947 128.000 C 219.947 48.461,219.921 45.801,219.140 43.774 C 218.073 41.009,215.748 38.497,213.120 37.271 L 210.987 36.275 128.000 36.275 L 45.013 36.275 42.880 37.271 M209.719 44.456 C 212.203 45.588,212.053 40.243,212.053 127.959 C 212.053 189.572,211.933 208.864,211.544 209.719 C 210.412 212.203,215.761 212.053,128.000 212.053 C 40.239 212.053,45.588 212.203,44.456 209.719 C 44.067 208.863,43.950 189.580,43.962 127.873 C 43.978 41.093,43.856 45.801,46.127 44.542 C 47.552 43.752,207.989 43.668,209.719 44.456 M110.032 76.587 C 109.419 76.920,108.703 77.728,108.439 78.383 C 108.176 79.038,106.134 90.555,103.902 103.977 C 99.614 129.760,99.614 129.756,101.615 131.157 C 103.427 132.427,105.366 132.039,107.950 129.892 C 112.681 125.958,117.633 124.160,123.733 124.160 C 128.200 124.160,131.447 124.963,135.426 127.052 C 140.841 129.895,145.232 135.336,147.035 141.440 C 148.136 145.165,148.065 151.260,146.877 155.111 C 144.933 161.410,139.953 167.046,133.934 169.758 C 125.258 173.668,115.121 172.280,108.018 166.211 C 106.094 164.566,105.465 164.267,103.933 164.267 C 101.095 164.267,99.407 166.570,100.289 169.241 C 100.889 171.060,105.619 174.828,109.820 176.834 C 122.643 182.957,138.202 179.925,147.676 169.456 C 152.967 163.609,155.797 156.266,155.843 148.267 C 155.876 142.384,155.070 138.898,152.439 133.547 C 150.767 130.146,149.824 128.869,146.583 125.617 C 143.336 122.359,142.074 121.421,138.667 119.735 C 133.715 117.285,131.088 116.552,125.999 116.200 C 121.445 115.884,116.743 116.519,112.656 118.000 C 111.139 118.550,109.839 118.941,109.767 118.869 C 109.694 118.796,110.933 110.933,112.518 101.395 L 115.402 84.053 134.281 84.053 L 153.160 84.053 154.532 82.827 C 156.462 81.103,156.462 78.897,154.532 77.173 L 153.160 75.947 132.153 75.964 C 114.842 75.978,110.951 76.087,110.032 76.587 " stroke="none" fill-rule="evenodd"></path></svg>