<svg fill="currentColor" viewBox="0 0 256 256" xmlns="http://www.w3.org/2000/svg"><path d="M114.347 56.319 C 102.965 63.148,93.317 69.131,92.907 69.615 C 92.481 70.116,92.160 71.191,92.160 72.116 C 92.160 73.403,92.431 73.965,93.473 74.842 C 94.203 75.457,95.317 75.947,95.984 75.947 C 96.790 75.947,102.687 72.646,113.978 65.872 C 123.216 60.331,131.012 55.703,131.303 55.588 C 131.724 55.421,131.856 71.271,131.943 132.471 L 132.053 209.563 133.499 210.855 C 134.719 211.945,135.184 212.108,136.485 211.901 C 137.390 211.757,138.423 211.199,138.987 210.551 L 139.947 209.446 139.947 128.000 L 139.947 46.554 138.987 45.449 C 138.424 44.802,137.408 44.253,136.533 44.124 C 135.174 43.923,133.180 45.019,114.347 56.319 " stroke="none" fill-rule="evenodd"></path></svg>