<svg fill="currentColor" viewBox="0 0 256 256" xmlns="http://www.w3.org/2000/svg"><path d="M86.091 44.612 C 83.822 45.843,83.355 48.634,85.083 50.643 L 86.113 51.840 123.053 51.954 L 159.993 52.067 138.023 81.357 C 114.182 113.142,114.864 112.063,117.035 114.587 C 117.924 115.620,118.420 115.764,122.262 116.102 C 133.173 117.063,141.416 120.427,148.991 127.010 C 155.433 132.609,159.757 139.499,162.389 148.359 C 163.916 153.500,164.297 162.753,163.203 168.107 C 161.354 177.160,157.373 184.745,151.268 190.850 C 145.512 196.606,139.051 200.357,131.108 202.554 C 127.414 203.575,126.172 203.710,120.320 203.721 C 113.288 203.734,110.172 203.231,104.829 201.220 C 99.901 199.365,96.577 197.436,91.137 193.273 C 87.895 190.793,84.053 192.102,84.053 195.686 C 84.053 197.030,84.375 197.586,86.126 199.275 C 91.646 204.595,100.762 209.079,110.080 211.057 C 115.106 212.124,125.144 212.111,130.133 211.032 C 148.052 207.155,162.609 194.784,168.550 178.383 C 171.194 171.085,171.694 168.180,171.715 160.000 C 171.732 153.165,171.632 152.146,170.540 147.957 C 166.401 132.085,157.003 120.422,142.604 113.288 C 138.813 111.410,133.106 109.486,129.790 108.970 C 128.555 108.777,128.022 108.505,128.162 108.140 C 128.277 107.841,138.175 94.521,150.159 78.540 C 172.901 48.211,172.768 48.413,171.507 46.056 C 170.345 43.884,171.624 43.945,127.915 43.964 C 92.862 43.978,87.093 44.068,86.091 44.612 " stroke="none" fill-rule="evenodd"></path></svg>