<svg fill="currentColor" viewBox="0 0 256 256" xmlns="http://www.w3.org/2000/svg"><path d="M123.947 36.352 C 118.481 36.789,113.981 38.067,108.587 40.715 C 82.705 53.422,75.974 86.799,94.848 108.844 C 97.706 112.183,102.840 116.358,106.607 118.409 L 108.746 119.573 104.814 121.546 C 70.151 138.947,65.970 186.680,97.089 209.753 C 106.208 216.514,116.489 219.883,128.000 219.883 C 134.563 219.883,139.272 219.115,144.971 217.115 C 162.566 210.940,175.110 196.517,179.057 177.920 C 180.114 172.937,180.111 162.852,179.049 157.954 C 175.560 141.851,165.598 128.768,151.417 121.663 L 147.313 119.608 150.350 117.814 C 168.036 107.364,176.093 85.986,169.740 66.369 C 164.179 49.201,148.465 37.159,130.347 36.183 C 128.939 36.107,126.059 36.183,123.947 36.352 M136.429 45.010 C 149.600 48.142,160.432 59.329,163.164 72.622 C 167.236 92.435,154.352 111.603,134.421 115.384 C 115.524 118.969,96.727 106.309,92.836 87.378 C 88.682 67.164,102.265 47.601,122.683 44.392 C 125.952 43.878,133.004 44.195,136.429 45.010 M136.000 124.805 C 145.034 126.519,152.854 130.682,159.337 137.230 C 174.048 152.086,176.051 175.440,164.126 193.067 C 161.862 196.412,156.229 202.020,152.797 204.344 C 148.940 206.956,143.574 209.370,138.754 210.662 C 135.137 211.631,133.777 211.771,128.000 211.771 C 122.223 211.771,120.863 211.631,117.246 210.662 C 96.556 205.118,83.031 186.661,84.186 165.547 C 85.287 145.423,99.814 128.781,119.734 124.823 C 123.744 124.026,131.846 124.017,136.000 124.805 " stroke="none" fill-rule="evenodd"></path></svg>