<svg fill="currentColor" viewBox="0 0 256 256" xmlns="http://www.w3.org/2000/svg"><path d="M42.880 37.271 C 40.252 38.497,37.927 41.009,36.860 43.774 C 36.079 45.801,36.053 48.461,36.053 128.000 C 36.053 207.758,36.077 210.194,36.866 212.242 C 37.944 215.036,40.465 217.697,43.210 218.938 L 45.440 219.947 128.000 219.947 L 210.560 219.947 212.790 218.938 C 215.535 217.697,218.056 215.036,219.134 212.242 C 219.923 210.194,219.947 207.758,219.947 128.000 C 219.947 48.461,219.921 45.801,219.140 43.774 C 218.073 41.009,215.748 38.497,213.120 37.271 L 210.987 36.275 128.000 36.275 L 45.013 36.275 42.880 37.271 M209.719 44.456 C 212.203 45.588,212.053 40.243,212.053 127.959 C 212.053 189.572,211.933 208.864,211.544 209.719 C 210.412 212.203,215.761 212.053,128.000 212.053 C 40.239 212.053,45.588 212.203,44.456 209.719 C 44.067 208.863,43.950 189.580,43.962 127.873 C 43.978 41.093,43.856 45.801,46.127 44.542 C 47.552 43.752,207.989 43.668,209.719 44.456 M121.564 76.569 C 112.616 78.844,105.082 85.441,101.988 93.713 C 101.197 95.827,101.175 96.160,101.745 97.523 C 102.615 99.604,104.793 100.526,106.830 99.675 C 108.008 99.183,108.567 98.461,109.879 95.733 C 116.001 83.004,132.233 80.099,142.087 89.970 C 147.993 95.886,149.554 104.795,146.010 112.368 C 145.252 113.988,136.153 126.507,122.436 144.803 C 97.672 177.834,98.625 176.287,101.468 178.827 L 102.840 180.053 128.000 180.053 L 153.160 180.053 154.532 178.827 C 156.353 177.200,156.437 175.016,154.743 173.322 L 153.581 172.160 132.870 171.947 L 112.158 171.733 131.613 145.797 C 142.313 131.532,151.624 118.956,152.303 117.850 C 154.228 114.716,155.765 109.589,156.037 105.394 C 156.844 92.946,149.033 81.572,136.651 77.164 C 133.414 76.012,125.052 75.682,121.564 76.569 " stroke="none" fill-rule="evenodd"></path></svg>