<svg fill="currentColor" viewBox="0 0 256 256" xmlns="http://www.w3.org/2000/svg"><path d="M42.880 37.271 C 40.252 38.497,37.927 41.009,36.860 43.774 C 36.079 45.801,36.053 48.461,36.053 128.000 C 36.053 207.758,36.077 210.194,36.866 212.242 C 37.944 215.036,40.465 217.697,43.210 218.938 L 45.440 219.947 128.000 219.947 L 210.560 219.947 212.790 218.938 C 215.535 217.697,218.056 215.036,219.134 212.242 C 219.923 210.194,219.947 207.758,219.947 128.000 C 219.947 48.461,219.921 45.801,219.140 43.774 C 218.073 41.009,215.748 38.497,213.120 37.271 L 210.987 36.275 128.000 36.275 L 45.013 36.275 42.880 37.271 M209.719 44.456 C 212.203 45.588,212.053 40.243,212.053 127.959 C 212.053 189.572,211.933 208.864,211.544 209.719 C 210.412 212.203,215.761 212.053,128.000 212.053 C 40.239 212.053,45.588 212.203,44.456 209.719 C 44.067 208.863,43.950 189.580,43.962 127.873 C 43.978 41.093,43.856 45.801,46.127 44.542 C 47.552 43.752,207.989 43.668,209.719 44.456 M121.813 72.707 C 113.894 74.528,107.022 79.843,103.283 87.040 C 100.947 91.537,100.117 94.941,100.111 100.053 C 100.101 108.466,104.019 116.759,110.287 121.595 C 111.581 122.593,112.638 123.531,112.636 123.679 C 112.634 123.826,111.480 124.689,110.072 125.596 C 104.411 129.244,99.506 136.019,97.213 143.360 C 95.920 147.499,95.817 155.667,97.004 160.000 C 100.893 174.208,113.457 183.893,128.000 183.893 C 142.543 183.893,155.107 174.208,158.996 160.000 C 160.183 155.667,160.080 147.499,158.787 143.360 C 156.494 136.019,151.589 129.244,145.928 125.596 C 144.520 124.689,143.366 123.823,143.364 123.673 C 143.362 123.522,144.299 122.683,145.446 121.807 C 149.550 118.678,152.947 113.686,154.734 108.160 C 156.122 103.869,156.290 97.351,155.125 93.013 C 153.880 88.379,151.216 83.779,147.836 80.427 C 142.279 74.915,136.760 72.516,129.067 72.269 C 126.071 72.173,123.448 72.332,121.813 72.707 M133.935 81.022 C 143.313 83.941,149.358 93.730,147.658 103.246 C 145.908 113.033,137.808 119.893,128.000 119.893 C 118.192 119.893,110.092 113.033,108.342 103.246 C 106.643 93.737,112.621 84.021,122.022 81.012 C 125.246 79.980,130.601 79.984,133.935 81.022 M132.508 128.456 C 136.582 129.190,141.604 131.853,144.718 134.930 C 154.247 144.348,154.326 159.350,144.896 168.794 C 140.074 173.623,134.680 175.888,128.000 175.888 C 121.320 175.888,115.926 173.623,111.104 168.794 C 106.413 164.095,104.099 158.530,104.113 151.979 C 104.133 142.861,109.359 134.490,117.472 130.579 C 122.559 128.126,127.111 127.484,132.508 128.456 " stroke="none" fill-rule="evenodd"></path></svg>