<svg fill="currentColor" viewBox="0 0 256 256" xmlns="http://www.w3.org/2000/svg"><path d="M86.091 44.612 C 83.822 45.843,83.355 48.634,85.083 50.643 L 86.113 51.840 124.363 51.953 C 160.434 52.060,162.600 52.109,162.381 52.807 C 158.127 66.371,116.335 206.400,116.181 207.602 C 115.899 209.818,117.232 211.538,119.515 211.901 C 120.806 212.106,121.271 211.948,122.381 210.926 C 123.625 209.781,125.186 204.772,147.827 129.245 C 161.093 84.991,171.947 48.355,171.947 47.830 C 171.947 46.419,171.223 45.316,169.822 44.591 C 167.962 43.629,87.865 43.649,86.091 44.612 " stroke="none" fill-rule="evenodd"></path></svg>