<svg fill="currentColor" viewBox="0 0 256 256" xmlns="http://www.w3.org/2000/svg"><path d="M118.613 28.464 C 110.565 29.114,98.652 32.003,90.782 35.214 C 59.612 47.931,37.421 74.312,30.138 107.307 C 27.496 119.279,27.496 136.721,30.138 148.693 C 34.441 168.185,43.446 184.693,57.377 198.623 C 71.307 212.554,87.815 221.559,107.307 225.862 C 119.279 228.504,136.721 228.504,148.693 225.862 C 168.098 221.579,184.802 212.474,198.638 198.638 C 214.932 182.343,224.819 161.762,227.445 138.671 C 228.165 132.336,227.709 117.227,226.621 111.360 C 223.614 95.153,217.576 81.024,208.365 68.641 C 191.765 46.323,167.094 32.009,139.708 28.805 C 134.728 28.223,123.794 28.046,118.613 28.464 M141.450 37.088 C 151.293 38.536,159.191 40.985,168.320 45.421 C 195.814 58.779,214.837 85.062,219.065 115.535 C 219.837 121.096,219.960 133.911,219.290 138.956 C 216.572 159.430,208.181 177.095,194.306 191.550 C 186.556 199.624,178.023 205.880,168.394 210.544 C 146.182 221.305,122.141 222.924,98.987 215.218 C 75.515 207.406,56.191 190.487,45.421 168.320 C 38.959 155.019,36.271 143.174,36.271 128.000 C 36.271 112.826,38.959 100.981,45.421 87.680 C 58.548 60.660,84.406 41.633,114.133 37.120 C 121.418 36.014,134.048 35.999,141.450 37.088 M122.637 76.364 C 114.230 77.556,105.745 82.250,100.515 88.603 C 94.609 95.777,90.520 105.632,88.683 117.120 C 87.979 121.521,87.979 134.479,88.683 138.880 C 92.348 161.797,104.159 176.397,121.478 179.417 C 133.351 181.488,144.873 178.011,153.107 169.873 C 171.292 151.899,173.140 112.084,156.797 90.370 C 151.956 83.937,145.029 79.199,137.635 77.263 C 133.781 76.253,126.497 75.817,122.637 76.364 M134.187 84.693 C 146.741 87.320,155.787 98.780,158.989 116.117 C 160.010 121.642,160.010 134.358,158.989 139.883 C 155.253 160.112,143.815 171.947,128.000 171.947 C 112.177 171.947,100.749 160.123,97.011 139.883 C 95.990 134.358,95.990 121.642,97.011 116.117 C 98.440 108.379,100.692 102.523,104.365 96.988 C 109.883 88.676,118.068 84.170,127.787 84.095 C 129.664 84.080,132.544 84.349,134.187 84.693 " stroke="none" fill-rule="evenodd"></path></svg>