<svg fill="currentColor" viewBox="0 0 256 256" xmlns="http://www.w3.org/2000/svg"><path d="M118.613 28.464 C 110.565 29.114,98.652 32.003,90.782 35.214 C 59.612 47.931,37.421 74.312,30.138 107.307 C 27.496 119.279,27.496 136.721,30.138 148.693 C 34.441 168.185,43.446 184.693,57.377 198.623 C 71.307 212.554,87.815 221.559,107.307 225.862 C 119.279 228.504,136.721 228.504,148.693 225.862 C 168.098 221.579,184.802 212.474,198.638 198.638 C 214.932 182.343,224.819 161.762,227.445 138.671 C 228.165 132.336,227.709 117.227,226.621 111.360 C 223.614 95.153,217.576 81.024,208.365 68.641 C 191.765 46.323,167.094 32.009,139.708 28.805 C 134.728 28.223,123.794 28.046,118.613 28.464 M141.450 37.088 C 151.293 38.536,159.191 40.985,168.320 45.421 C 195.814 58.779,214.837 85.062,219.065 115.535 C 219.837 121.096,219.960 133.911,219.290 138.956 C 216.572 159.430,208.181 177.095,194.306 191.550 C 186.556 199.624,178.023 205.880,168.394 210.544 C 146.182 221.305,122.141 222.924,98.987 215.218 C 75.515 207.406,56.191 190.487,45.421 168.320 C 38.959 155.019,36.271 143.174,36.271 128.000 C 36.271 112.826,38.959 100.981,45.421 87.680 C 58.548 60.660,84.406 41.633,114.133 37.120 C 121.418 36.014,134.048 35.999,141.450 37.088 M121.564 76.569 C 112.616 78.844,105.082 85.441,101.988 93.713 C 101.197 95.827,101.175 96.160,101.745 97.523 C 102.615 99.604,104.793 100.526,106.830 99.675 C 108.008 99.183,108.567 98.461,109.879 95.733 C 116.001 83.004,132.233 80.099,142.087 89.970 C 147.993 95.886,149.554 104.795,146.010 112.368 C 145.252 113.988,136.153 126.507,122.436 144.803 C 97.672 177.834,98.625 176.287,101.468 178.827 L 102.840 180.053 128.000 180.053 L 153.160 180.053 154.532 178.827 C 156.353 177.200,156.437 175.016,154.743 173.322 L 153.581 172.160 132.870 171.947 L 112.158 171.733 131.613 145.797 C 142.313 131.532,151.624 118.956,152.303 117.850 C 154.228 114.716,155.765 109.589,156.037 105.394 C 156.844 92.946,149.033 81.572,136.651 77.164 C 133.414 76.012,125.052 75.682,121.564 76.569 " stroke="none" fill-rule="evenodd"></path></svg>