<svg fill="currentColor" viewBox="0 0 256 256" xmlns="http://www.w3.org/2000/svg"><path d="M62.362 68.267 L 29.791 68.480 28.976 69.487 C 28.492 70.084,28.160 71.155,28.160 72.116 C 28.160 73.403,28.431 73.965,29.473 74.842 L 30.785 75.947 63.201 75.947 C 91.500 75.947,95.776 76.030,96.881 76.601 C 97.980 77.169,101.644 84.250,124.574 130.109 C 152.800 186.558,151.968 185.060,156.160 187.040 C 158.059 187.937,158.439 187.948,191.134 188.066 C 215.602 188.154,224.501 188.056,225.391 187.687 C 227.020 187.012,227.840 185.724,227.840 183.836 C 227.840 182.603,227.556 182.024,226.527 181.158 L 225.215 180.053 192.714 180.047 C 167.791 180.042,159.965 179.918,159.147 179.514 C 158.303 179.097,152.537 167.923,131.598 126.132 C 114.427 91.861,104.636 72.773,103.753 71.845 C 101.996 69.999,99.279 68.601,96.853 68.295 C 95.797 68.162,80.276 68.149,62.362 68.267 M149.101 69.314 C 147.587 70.827,147.671 73.070,149.301 74.699 L 150.548 75.947 187.881 75.947 L 225.215 75.947 226.527 74.842 C 228.255 73.389,228.374 70.896,226.793 69.314 L 225.745 68.267 187.947 68.267 L 150.148 68.267 149.101 69.314 " stroke="none" fill-rule="evenodd"></path></svg>