<svg fill="currentColor" viewBox="0 0 256 256" xmlns="http://www.w3.org/2000/svg"><path d="M123.947 20.860 C 120.509 22.116,33.244 70.175,31.653 71.688 C 30.857 72.446,29.747 74.050,29.187 75.253 L 28.168 77.440 28.168 128.000 L 28.168 178.560 29.178 180.728 C 29.733 181.920,30.867 183.552,31.698 184.355 C 33.210 185.814,121.632 234.485,124.544 235.461 C 125.341 235.728,126.897 235.947,128.000 235.947 C 129.103 235.947,130.659 235.728,131.456 235.461 C 134.379 234.482,222.791 185.813,224.308 184.348 C 225.143 183.543,226.327 181.815,226.939 180.508 L 228.053 178.133 228.053 128.000 L 228.053 77.867 226.931 75.473 C 226.313 74.156,225.154 72.456,224.354 71.694 C 222.758 70.176,135.500 22.119,132.053 20.860 C 129.343 19.870,126.657 19.870,123.947 20.860 M172.977 52.053 C 196.797 65.077,216.294 75.844,216.303 75.978 C 216.324 76.286,179.142 96.640,178.560 96.640 C 177.898 96.640,90.069 48.455,90.304 48.221 C 90.418 48.106,98.610 43.553,108.509 38.102 C 123.809 29.677,126.744 28.205,128.087 28.282 C 129.273 28.351,140.493 34.292,172.977 52.053 M125.698 77.057 C 149.961 90.340,169.806 101.332,169.798 101.484 C 169.789 101.636,160.381 106.881,148.890 113.139 L 127.997 124.519 83.839 100.369 C 59.551 87.087,39.687 76.110,39.696 75.977 C 39.709 75.781,80.897 53.043,81.431 52.937 C 81.514 52.920,101.434 63.774,125.698 77.057 M80.582 107.701 L 124.160 131.561 124.160 178.893 C 124.160 223.415,124.117 226.208,123.429 225.944 C 121.327 225.138,38.041 179.274,37.227 178.474 L 36.267 177.532 36.267 130.544 C 36.267 104.280,36.429 83.618,36.636 83.698 C 36.839 83.776,56.615 94.577,80.582 107.701 M220.061 130.259 C 219.958 172.396,219.880 176.992,219.256 177.939 C 218.801 178.629,204.466 186.695,177.229 201.586 C 154.494 214.016,135.076 224.641,134.078 225.197 L 132.263 226.208 132.371 178.713 L 132.480 131.217 152.107 120.471 L 171.733 109.724 171.947 131.653 L 172.160 153.581 173.322 154.743 C 175.016 156.437,177.200 156.353,178.827 154.532 L 180.053 153.160 180.053 129.162 L 180.053 105.164 199.573 94.437 C 210.309 88.537,219.337 83.691,219.634 83.668 C 220.068 83.635,220.152 92.822,220.061 130.259 " stroke="none" fill-rule="evenodd"></path></svg>