<svg fill="currentColor" viewBox="0 0 256 256" xmlns="http://www.w3.org/2000/svg"><path d="M118.613 28.450 C 70.958 33.334,33.955 69.836,28.561 117.280 C 27.809 123.889,28.253 138.494,29.385 144.427 C 31.286 154.384,33.861 162.086,38.045 170.327 C 47.283 188.520,62.336 203.135,81.907 212.910 C 88.315 216.111,95.666 218.888,99.621 219.601 C 110.926 221.639,123.199 215.566,128.579 205.270 C 130.670 201.270,131.381 198.557,132.049 192.034 C 132.566 186.993,132.815 185.945,134.132 183.287 C 136.854 177.794,142.521 173.469,148.432 172.373 C 149.798 172.119,161.060 171.947,176.203 171.947 C 200.111 171.947,201.878 171.895,204.948 171.110 C 210.470 169.698,213.507 167.932,217.820 163.627 C 223.231 158.225,224.793 154.741,226.809 143.573 C 227.904 137.510,228.119 122.722,227.216 115.619 C 222.258 76.614,194.831 44.089,157.013 32.367 C 152.045 30.827,144.117 29.212,138.577 28.610 C 134.754 28.195,122.092 28.093,118.613 28.450 M143.174 37.345 C 172.577 42.322,197.585 61.000,210.574 87.680 C 217.010 100.901,219.808 113.201,219.794 128.213 C 219.786 136.232,218.626 145.874,217.137 150.295 C 215.043 156.512,210.760 160.790,204.373 163.047 C 201.618 164.021,201.419 164.028,173.653 164.263 C 147.982 164.479,145.533 164.562,143.573 165.280 C 134.444 168.622,127.809 175.360,125.243 183.893 C 124.855 185.184,124.274 188.817,123.951 191.966 C 123.434 197.012,123.185 198.055,121.859 200.739 C 118.063 208.418,109.191 213.099,101.071 211.706 C 95.604 210.769,83.228 205.147,75.605 200.138 C 57.116 187.989,44.100 170.202,38.835 149.890 C 37.053 143.015,36.603 139.378,36.390 130.133 C 36.094 117.273,37.272 109.171,41.044 98.133 C 53.044 63.020,85.765 38.184,122.453 36.342 C 129.447 35.991,137.476 36.380,143.174 37.345 M124.088 69.131 C 121.051 70.735,119.292 74.816,120.253 78.024 C 121.689 82.817,126.805 85.256,131.218 83.251 C 135.893 81.128,137.372 75.427,134.349 71.182 C 132.365 68.395,127.371 67.397,124.088 69.131 M80.285 93.076 C 76.806 94.798,75.172 98.968,76.556 102.593 C 77.451 104.935,80.083 107.377,82.128 107.761 C 89.843 109.208,94.999 100.662,89.909 94.864 C 87.445 92.058,83.733 91.369,80.285 93.076 M168.739 92.755 C 166.931 93.542,164.815 96.097,164.259 98.163 C 162.762 103.721,167.935 108.874,173.889 107.757 C 177.357 107.107,180.451 102.522,179.877 98.886 C 179.076 93.821,173.428 90.711,168.739 92.755 M80.853 148.723 C 74.878 151.824,74.394 159.511,79.968 162.777 C 83.283 164.720,87.351 164.048,89.909 161.136 C 92.144 158.590,92.578 155.302,91.073 152.320 C 89.317 148.842,84.137 147.019,80.853 148.723 " stroke="none" fill-rule="evenodd"></path></svg>