<svg fill="currentColor" viewBox="0 0 256 256" xmlns="http://www.w3.org/2000/svg"><path d="M122.482 29.504 C 120.572 30.498,119.322 31.518,118.376 32.853 C 117.225 34.478,24.077 197.424,21.252 202.754 C 20.479 204.215,20.280 205.280,20.274 208.000 C 20.268 210.989,20.423 211.696,21.525 213.685 C 23.708 217.626,27.376 219.844,31.787 219.889 C 34.076 219.912,39.238 218.234,80.546 204.037 C 105.956 195.305,127.257 188.160,127.882 188.160 C 128.508 188.160,149.766 195.244,175.123 203.903 C 200.480 212.562,221.904 219.762,222.731 219.904 C 224.797 220.259,228.895 219.119,230.927 217.625 C 235.758 214.072,237.259 207.758,234.541 202.427 C 231.498 196.457,137.589 32.888,136.612 31.855 C 134.395 29.510,132.009 28.455,128.477 28.256 C 125.444 28.086,125.043 28.170,122.482 29.504 M129.400 36.419 C 130.633 36.939,135.721 45.653,179.307 121.897 C 214.331 183.165,227.840 207.156,227.840 208.087 C 227.840 209.746,226.466 211.486,224.882 211.834 C 223.918 212.045,213.405 208.603,177.741 196.400 L 131.841 180.693 131.841 149.478 L 131.840 118.263 130.527 117.158 C 129.122 115.975,127.793 115.777,126.184 116.510 C 123.872 117.564,123.956 116.381,123.829 149.760 L 123.711 180.693 77.939 196.402 C 42.715 208.491,31.900 212.044,31.010 211.821 C 28.475 211.185,27.469 208.233,28.863 205.525 C 30.804 201.757,124.347 38.074,124.950 37.390 C 125.600 36.653,126.900 35.931,127.694 35.867 C 127.877 35.852,128.645 36.100,129.400 36.419 " stroke="none" fill-rule="evenodd"></path></svg>