<svg fill="currentColor" viewBox="0 0 256 256" xmlns="http://www.w3.org/2000/svg"><path d="M168.320 28.868 C 166.677 29.219,163.974 30.072,162.312 30.763 C 155.403 33.637,155.628 33.426,109.805 79.898 C 47.969 142.609,47.391 143.206,45.102 146.653 C 31.272 167.485,33.407 194.063,50.335 211.783 C 60.398 222.317,73.514 227.968,87.893 227.965 C 95.994 227.963,102.935 226.443,110.030 223.118 C 118.470 219.163,117.672 219.895,163.993 173.694 C 189.639 148.114,207.267 130.213,207.625 129.387 C 208.142 128.192,208.140 127.798,207.615 126.541 C 206.885 124.793,205.835 124.160,203.664 124.160 C 202.085 124.160,200.967 125.236,158.729 167.411 C 131.268 194.831,114.476 211.285,112.853 212.365 C 99.545 221.220,83.494 222.431,69.183 215.661 C 64.276 213.339,60.841 210.921,57.013 207.093 C 51.411 201.491,47.441 194.516,45.387 186.667 C 44.421 182.979,44.270 181.532,44.270 176.000 C 44.270 170.468,44.421 169.021,45.387 165.333 C 46.683 160.380,49.541 154.201,52.380 150.210 C 53.475 148.672,67.728 133.877,84.054 117.333 C 100.380 100.789,123.547 77.300,135.537 65.135 C 147.527 52.970,158.272 42.339,159.415 41.512 C 164.384 37.913,169.639 36.244,176.000 36.244 C 180.984 36.244,184.181 36.965,188.373 39.033 C 195.555 42.577,200.486 48.502,202.937 56.533 C 204.018 60.073,204.021 67.918,202.943 71.443 C 201.836 75.065,199.849 78.957,197.909 81.305 C 196.988 82.419,173.547 106.347,145.818 134.476 C 90.066 191.034,93.435 187.926,87.923 187.892 C 86.345 187.882,84.432 187.578,83.546 187.196 C 81.291 186.225,78.281 183.297,77.155 180.979 C 75.786 178.158,75.808 173.797,77.206 170.917 C 77.993 169.295,87.900 158.984,120.985 125.353 C 145.451 100.483,163.823 81.482,163.923 80.942 C 164.485 77.939,161.869 75.385,158.974 76.112 C 157.770 76.414,73.077 162.368,71.208 165.185 C 65.287 174.106,68.005 186.875,77.062 192.685 C 83.484 196.805,92.336 196.910,98.560 192.939 C 100.605 191.634,112.127 180.096,168.400 123.000 C 193.110 97.928,204.428 86.153,205.844 84.043 C 209.573 78.485,212.053 70.479,212.053 64.000 C 212.053 60.163,210.896 54.478,209.317 50.563 C 204.877 39.552,194.936 31.227,183.375 28.839 C 179.308 27.999,172.323 28.012,168.320 28.868 " stroke="none" fill-rule="evenodd"></path></svg>