<svg fill="currentColor" viewBox="0 0 256 256" xmlns="http://www.w3.org/2000/svg"><path d="M44.244 20.669 C 40.720 21.927,38.078 24.534,36.655 28.160 C 35.231 31.790,35.121 31.412,51.984 80.553 C 60.705 105.966,67.840 127.269,67.840 127.894 C 67.840 128.519,60.846 149.487,52.299 174.489 C 43.751 199.491,36.542 220.768,36.279 221.771 C 35.769 223.720,36.207 227.396,37.168 229.228 C 38.293 231.375,40.168 233.285,42.315 234.475 C 44.305 235.577,45.010 235.732,48.000 235.725 C 50.852 235.718,51.764 235.532,53.547 234.594 C 62.358 229.954,223.237 137.470,224.327 136.418 C 228.897 132.006,229.069 124.222,224.693 119.783 C 223.347 118.418,202.082 106.095,138.069 69.585 C 91.407 42.971,52.532 20.948,51.681 20.644 C 49.674 19.927,46.294 19.938,44.244 20.669 M133.580 76.217 C 179.908 102.648,218.229 124.650,218.737 125.111 C 219.998 126.252,220.288 127.721,219.586 129.400 C 219.080 130.613,217.647 131.581,209.232 136.394 C 203.861 139.466,165.698 161.298,124.425 184.910 C 65.102 218.848,49.078 227.840,47.926 227.840 C 46.294 227.840,44.574 226.441,44.156 224.774 C 43.983 224.085,48.808 209.431,59.498 178.182 C 68.076 153.110,75.093 132.528,75.093 132.445 C 75.093 132.361,89.125 132.239,106.275 132.173 L 137.457 132.053 138.702 130.660 C 140.269 128.906,140.315 127.223,138.844 125.475 L 137.742 124.166 106.562 124.056 L 75.382 123.947 59.856 78.933 C 50.237 51.047,44.298 33.216,44.245 32.070 C 44.174 30.516,44.351 30.055,45.357 29.190 C 46.095 28.555,47.089 28.160,47.951 28.160 C 49.021 28.160,68.999 39.372,133.580 76.217 " stroke="none" fill-rule="evenodd"></path></svg>