<svg fill="currentColor" viewBox="0 0 256 256" xmlns="http://www.w3.org/2000/svg"><path d="M90.880 44.231 C 63.354 46.947,41.756 66.829,36.829 93.985 C 35.862 99.315,35.870 109.040,36.846 114.133 C 39.415 127.543,45.491 138.779,55.019 147.743 C 61.371 153.718,68.615 158.010,77.175 160.869 C 86.036 163.829,87.239 163.933,115.093 164.154 L 139.947 164.352 139.947 186.476 C 139.947 202.720,140.082 208.897,140.456 209.719 C 140.979 210.865,142.783 212.053,144.000 212.053 C 145.217 212.053,147.021 210.865,147.544 209.719 C 147.933 208.864,148.053 190.104,148.053 130.327 L 148.053 52.053 164.053 52.053 L 180.053 52.053 180.053 130.750 L 180.053 209.446 181.013 210.551 C 181.577 211.199,182.610 211.757,183.515 211.901 C 184.816 212.108,185.281 211.945,186.501 210.855 L 187.947 209.563 188.057 130.808 L 188.167 52.053 198.425 52.053 C 206.468 52.053,208.936 51.922,209.858 51.445 C 211.004 50.853,212.053 49.206,212.053 48.000 C 212.053 47.670,211.824 46.897,211.544 46.281 C 210.420 43.816,213.770 43.941,150.528 44.015 C 118.543 44.053,91.701 44.150,90.880 44.231 M139.947 104.137 L 139.947 156.220 114.667 156.047 C 86.876 155.857,86.431 155.819,78.507 152.956 C 49.096 142.329,35.551 108.191,49.724 80.416 C 55.387 69.317,64.779 60.674,76.370 55.895 C 84.870 52.390,87.406 52.145,115.733 52.096 L 139.947 52.053 139.947 104.137 " stroke="none" fill-rule="evenodd"></path></svg>