<svg fill="currentColor" viewBox="0 0 256 256" xmlns="http://www.w3.org/2000/svg"><path d="M119.893 20.318 C 95.627 22.525,73.839 32.715,56.952 49.754 C 42.483 64.353,33.195 82.385,29.394 103.253 C 28.524 108.031,27.847 119.440,28.321 121.328 C 28.544 122.220,38.902 130.187,76.383 158.300 L 124.160 194.136 124.160 207.148 L 124.160 220.160 117.301 220.160 L 110.441 220.160 109.194 221.407 C 107.539 223.062,107.538 224.809,109.191 226.660 L 110.436 228.053 126.151 228.189 C 134.795 228.263,142.714 228.199,143.749 228.045 C 147.689 227.463,149.320 223.921,146.806 221.407 L 145.559 220.160 138.913 220.160 L 132.267 220.160 132.267 206.987 L 132.267 193.813 179.830 158.140 C 217.165 130.138,227.455 122.222,227.679 121.329 C 228.153 119.440,227.476 108.032,226.606 103.253 C 220.791 71.323,201.479 45.232,173.013 30.850 C 163.165 25.873,153.426 22.747,142.720 21.124 C 138.213 20.441,124.041 19.940,119.893 20.318 M113.647 31.253 C 96.520 49.490,85.720 78.394,84.209 110.030 L 83.922 116.053 60.094 116.053 L 36.267 116.053 36.267 114.369 C 36.267 110.987,37.598 102.665,39.036 97.054 C 43.971 77.798,55.114 60.591,70.695 48.167 C 81.524 39.532,95.698 32.807,108.800 30.087 C 116.148 28.562,116.169 28.568,113.647 31.253 M131.660 32.107 C 140.237 40.100,145.288 46.947,150.793 58.050 C 158.404 73.399,162.704 90.832,163.681 110.304 L 163.970 116.053 128.000 116.053 L 92.030 116.053 92.316 110.613 C 93.756 83.191,101.874 58.929,115.407 41.600 C 118.053 38.212,127.226 29.013,127.958 29.013 C 128.168 29.013,129.834 30.405,131.660 32.107 M146.942 30.063 C 166.051 33.932,185.068 45.209,197.822 60.235 C 204.264 67.825,210.418 78.206,214.055 87.621 C 216.866 94.897,219.733 108.404,219.733 114.369 L 219.733 116.053 195.906 116.053 L 172.078 116.053 171.791 110.030 C 170.766 88.561,165.163 67.099,156.366 50.947 C 152.535 43.914,146.886 36.014,142.130 31.040 C 139.813 28.617,139.808 28.618,146.942 30.063 M100.361 150.534 C 108.337 164.922,114.794 176.751,114.711 176.820 C 114.628 176.890,98.734 165.068,79.391 150.549 L 44.222 124.152 65.041 124.263 L 85.861 124.373 100.361 150.534 M160.782 124.553 C 160.431 125.526,128.190 183.437,128.000 183.437 C 127.810 183.437,95.569 125.526,95.218 124.553 C 95.132 124.315,108.085 124.160,128.000 124.160 C 147.915 124.160,160.868 124.315,160.782 124.553 M176.604 150.554 C 157.264 165.070,141.368 176.886,141.280 176.812 C 141.151 176.702,159.453 143.437,168.195 127.893 L 170.294 124.160 191.031 124.160 L 211.767 124.160 176.604 150.554 " stroke="none" fill-rule="evenodd"></path></svg>