<svg fill="currentColor" viewBox="0 0 256 256" xmlns="http://www.w3.org/2000/svg"><path d="M69.675 52.809 C 67.613 54.430,67.493 57.151,69.404 58.946 L 70.468 59.947 122.168 60.160 L 173.867 60.373 176.996 61.516 C 181.410 63.129,184.448 65.056,187.696 68.304 C 192.856 73.464,195.362 79.117,195.736 86.438 C 196.162 94.779,193.541 101.721,187.772 107.536 C 184.238 111.098,180.772 113.249,176.000 114.841 L 173.013 115.836 119.040 116.058 L 65.067 116.280 61.013 117.405 C 53.095 119.603,46.395 123.479,40.832 129.078 C 35.503 134.441,31.950 140.503,29.584 148.267 C 28.488 151.861,28.413 152.612,28.413 160.000 C 28.413 167.388,28.488 168.139,29.584 171.733 C 34.299 187.207,45.214 198.028,60.669 202.553 L 64.640 203.715 118.441 203.842 L 172.242 203.969 172.771 206.411 C 173.658 210.512,176.280 215.400,179.397 218.767 C 182.643 222.274,186.202 224.664,190.729 226.379 C 193.645 227.483,194.417 227.589,199.680 227.607 C 204.483 227.623,205.936 227.469,208.427 226.680 C 212.563 225.370,216.392 223.005,219.700 219.718 C 224.959 214.493,227.457 208.762,227.754 201.242 C 228.105 192.376,225.260 185.389,218.906 179.506 C 210.510 171.733,198.280 169.889,187.992 174.845 C 180.332 178.536,175.435 184.408,172.974 192.853 L 172.042 196.053 119.834 196.053 L 67.627 196.053 63.787 195.083 C 51.190 191.901,41.341 182.600,37.480 170.240 C 36.601 167.427,36.480 166.189,36.480 160.000 C 36.480 153.811,36.601 152.573,37.480 149.760 C 40.501 140.090,47.169 132.233,56.107 127.812 C 63.533 124.139,58.287 124.441,119.253 124.169 L 173.440 123.927 176.853 122.971 C 189.543 119.416,199.132 109.962,202.764 97.425 C 203.590 94.574,203.728 93.134,203.700 87.680 C 203.670 81.880,203.555 80.940,202.477 77.653 C 201.823 75.659,200.807 73.067,200.219 71.893 C 196.360 64.183,188.879 57.471,180.693 54.372 C 174.568 52.054,175.342 52.084,120.960 52.078 C 73.899 52.073,70.552 52.120,69.675 52.809 M204.998 180.707 C 210.769 182.210,215.328 185.994,217.926 191.436 C 219.504 194.739,219.520 194.828,219.520 200.107 C 219.520 205.309,219.484 205.513,218.063 208.427 C 215.037 214.628,209.234 218.824,202.308 219.819 C 199.415 220.235,198.637 220.186,195.528 219.394 C 191.263 218.306,188.632 216.837,185.813 213.967 C 183.283 211.391,181.605 208.443,180.707 204.998 C 176.919 190.452,190.452 176.919,204.998 180.707 " stroke="none" fill-rule="evenodd"></path></svg>