<svg fill="currentColor" viewBox="0 0 256 256" xmlns="http://www.w3.org/2000/svg"><path d="M50.987 37.273 C 48.358 38.502,46.259 40.566,45.066 43.093 L 44.160 45.013 44.160 128.000 L 44.160 210.987 45.062 212.907 C 46.194 215.316,48.570 217.683,51.139 218.961 L 53.120 219.947 75.947 219.947 L 98.773 219.947 101.207 218.752 C 103.801 217.478,105.279 216.000,106.794 213.170 L 107.733 211.413 107.733 128.000 L 107.733 44.587 106.475 42.315 C 105.783 41.066,104.504 39.479,103.633 38.789 C 100.359 36.196,101.125 36.266,76.067 36.271 L 53.120 36.275 50.987 37.273 M155.372 36.920 C 152.982 37.958,150.848 39.927,149.525 42.315 L 148.267 44.587 148.156 127.526 L 148.045 210.465 149.048 212.646 C 150.478 215.758,152.009 217.384,154.793 218.752 L 157.227 219.947 180.053 219.947 L 202.880 219.947 204.881 218.952 C 205.981 218.405,207.746 217.033,208.803 215.903 C 212.341 212.121,212.076 219.590,211.951 127.129 L 211.840 45.013 210.934 43.093 C 209.741 40.566,207.642 38.502,205.013 37.273 L 202.880 36.275 179.840 36.288 C 160.651 36.298,156.561 36.404,155.372 36.920 M98.811 45.357 L 99.840 46.554 99.840 128.057 L 99.840 209.559 98.581 210.818 L 97.323 212.076 75.718 211.958 L 54.112 211.840 53.083 210.643 L 52.053 209.446 52.053 128.161 C 52.053 73.459,52.196 46.610,52.491 46.060 C 53.606 43.976,53.784 43.962,76.517 44.064 L 97.781 44.160 98.811 45.357 M201.822 44.591 C 202.507 44.946,203.266 45.605,203.507 46.056 C 203.804 46.611,203.947 73.228,203.947 128.161 L 203.947 209.446 202.917 210.643 L 201.888 211.840 180.282 211.958 L 158.677 212.076 157.419 210.818 L 156.160 209.559 156.160 128.128 C 156.160 54.025,156.222 46.608,156.846 45.718 C 157.223 45.179,157.943 44.573,158.446 44.370 C 158.949 44.167,168.634 43.989,179.968 43.974 C 197.551 43.951,200.759 44.041,201.822 44.591 " stroke="none" fill-rule="evenodd"></path></svg>