<svg fill="currentColor" viewBox="0 0 256 256" xmlns="http://www.w3.org/2000/svg"><path d="M151.040 20.781 C 149.423 21.338,146.653 23.898,133.508 36.987 L 117.896 52.532 88.921 63.383 C 72.985 69.351,59.013 74.662,57.872 75.185 C 55.202 76.411,52.673 79.294,51.823 82.082 C 51.036 84.663,28.160 222.130,28.160 224.277 C 28.160 226.284,29.737 227.840,31.772 227.840 C 33.896 227.840,171.247 204.970,173.892 204.176 C 176.517 203.388,179.342 201.057,180.559 198.674 C 181.056 197.702,186.411 183.675,192.458 167.502 L 203.453 138.098 218.849 122.698 C 232.436 109.107,234.344 107.035,235.095 105.058 C 236.176 102.214,236.178 99.209,235.101 96.336 C 234.329 94.275,231.114 90.943,197.875 57.760 C 164.637 24.578,161.312 21.379,159.391 20.746 C 156.803 19.893,153.581 19.907,151.040 20.781 M192.530 63.470 L 227.840 98.779 227.840 100.683 L 227.840 102.586 213.976 116.467 L 200.112 130.347 162.883 93.117 L 125.653 55.888 139.533 42.024 L 153.414 28.160 155.317 28.160 L 157.221 28.160 192.530 63.470 M194.747 138.633 C 194.416 139.473,189.545 152.433,183.923 167.433 C 177.108 185.616,173.373 195.032,172.717 195.684 C 171.817 196.579,166.383 197.552,108.800 207.131 C 74.187 212.889,45.387 217.706,44.800 217.836 C 44.092 217.993,53.547 208.251,72.916 188.866 L 102.099 159.659 104.703 161.079 C 108.165 162.968,111.782 163.841,116.115 163.835 C 122.828 163.825,128.158 161.601,132.894 156.834 C 144.610 145.042,141.380 125.936,126.404 118.442 C 117.186 113.829,105.123 116.238,98.110 124.092 C 94.157 128.520,92.170 133.822,92.170 139.947 C 92.170 144.258,92.892 147.259,94.855 151.103 L 96.303 153.939 67.115 183.103 C 47.742 202.459,38.007 211.908,38.164 211.200 C 38.294 210.613,43.111 181.813,48.869 147.200 C 58.451 89.601,59.421 84.183,60.316 83.282 C 60.969 82.626,70.871 78.698,90.061 71.484 L 118.827 60.670 157.087 98.888 L 195.348 137.106 194.747 138.633 M122.812 125.602 C 125.990 127.236,128.484 129.672,130.180 132.799 C 131.563 135.350,131.627 135.663,131.627 139.947 C 131.627 144.061,131.524 144.629,130.368 146.913 C 127.138 153.294,119.775 157.078,113.224 155.724 C 104.550 153.932,99.322 146.646,100.308 137.723 C 100.934 132.057,105.165 126.943,110.967 124.837 C 114.011 123.732,119.917 124.114,122.812 125.602 " stroke="none" fill-rule="evenodd"></path></svg>