<svg fill="currentColor" viewBox="0 0 256 256" xmlns="http://www.w3.org/2000/svg"><path d="M167.204 28.723 C 166.356 29.040,165.108 29.702,164.431 30.194 C 163.754 30.686,153.564 40.749,141.786 52.557 C 128.012 66.367,120.275 74.429,120.098 75.154 C 119.776 76.477,120.783 78.695,122.003 79.347 C 122.455 79.589,123.525 79.787,124.381 79.787 C 125.794 79.787,126.412 79.323,131.039 74.793 L 136.140 69.800 147.209 80.862 L 158.278 91.925 152.525 97.730 C 147.092 103.213,146.773 103.628,146.773 105.219 C 146.773 107.231,147.612 108.567,149.220 109.113 C 151.435 109.865,152.746 109.039,158.502 103.264 L 164.044 97.703 175.242 108.895 L 186.440 120.087 179.833 126.740 C 174.024 132.591,173.227 133.561,173.227 134.783 C 173.227 136.806,175.199 138.667,177.345 138.667 C 178.920 138.667,179.655 137.981,202.153 115.520 C 214.904 102.789,225.835 91.537,226.442 90.515 C 227.277 89.111,227.597 87.884,227.750 85.497 C 228.123 79.684,229.342 81.194,202.719 54.476 C 189.666 41.377,178.145 30.160,177.117 29.549 C 174.850 28.204,169.733 27.777,167.204 28.723 M46.243 36.516 C 43.533 37.853,43.247 40.596,45.547 43.187 C 46.427 44.179,57.689 56.612,70.573 70.815 C 83.458 85.019,94.393 97.078,94.873 97.613 L 95.746 98.586 66.700 127.693 C 41.018 153.428,37.560 157.047,36.853 158.933 C 36.105 160.928,36.053 162.656,36.053 185.600 C 36.053 208.707,36.101 210.256,36.866 212.242 C 37.944 215.036,40.465 217.697,43.210 218.938 L 45.440 219.947 70.187 219.947 C 93.342 219.947,95.071 219.895,97.067 219.147 C 98.950 218.440,102.436 215.117,126.827 190.781 L 154.454 163.215 155.902 164.701 C 156.699 165.518,168.147 178.091,181.342 192.640 C 195.796 208.577,205.838 219.313,206.603 219.646 C 208.307 220.386,210.358 219.699,211.323 218.064 C 212.178 216.618,212.224 215.615,211.497 214.306 C 210.385 212.306,50.941 37.159,49.642 36.511 C 48.006 35.694,47.908 35.694,46.243 36.516 M196.578 59.422 L 219.733 82.577 219.733 84.491 L 219.733 86.405 205.866 100.268 L 191.998 114.130 166.934 89.066 L 141.870 64.002 155.732 50.134 L 169.595 36.267 171.509 36.267 L 173.423 36.267 196.578 59.422 M111.965 116.280 L 122.426 127.787 95.241 154.987 L 68.056 182.187 56.962 171.094 L 45.869 160.000 73.583 132.284 C 88.825 117.040,101.343 104.614,101.400 104.671 C 101.457 104.728,106.211 109.952,111.965 116.280 M138.453 145.366 C 144.085 151.599,148.741 156.818,148.800 156.963 C 148.859 157.109,137.004 169.131,122.455 183.679 L 96.002 210.129 84.907 199.040 L 73.812 187.951 100.798 160.962 C 115.640 146.118,127.881 133.987,127.999 134.003 C 128.117 134.020,132.821 139.133,138.453 145.366 M66.882 211.953 C 53.026 212.033,47.236 211.926,46.380 211.572 C 43.958 210.573,43.947 210.468,43.947 189.143 L 43.947 169.603 65.068 190.722 L 86.190 211.840 66.882 211.953 " stroke="none" fill-rule="evenodd"></path></svg>