<svg fill="currentColor" viewBox="0 0 256 256" xmlns="http://www.w3.org/2000/svg"><path d="M119.893 28.020 C 101.505 29.864,86.855 34.926,72.555 44.377 C 47.425 60.985,31.251 87.838,28.119 118.150 C 27.067 128.333,28.193 142.399,30.889 152.747 C 39.490 185.761,64.798 212.733,97.067 223.276 C 113.369 228.603,131.305 229.689,147.840 226.350 C 168.092 222.260,185.608 212.657,200.127 197.684 C 211.535 185.919,219.135 173.008,224.066 157.013 C 229.229 140.269,229.600 120.475,225.076 103.173 C 215.308 65.819,184.906 37.186,147.035 29.674 C 138.726 28.026,126.972 27.310,119.893 28.020 M138.667 36.722 C 148.121 37.721,158.779 40.782,167.680 45.054 C 195.625 58.465,214.730 84.601,219.127 115.435 C 220.089 122.177,220.086 133.746,219.122 140.565 C 216.277 160.668,207.203 178.857,192.987 192.951 C 188.990 196.914,181.120 203.520,180.396 203.520 C 180.208 203.520,180.050 197.136,180.046 189.333 L 180.039 175.147 155.722 122.453 C 142.024 92.773,131.013 69.434,130.508 69.013 C 129.348 68.047,126.652 68.047,125.492 69.013 C 124.987 69.434,113.976 92.773,100.278 122.453 L 75.961 175.147 75.954 189.333 C 75.950 197.136,75.790 203.520,75.599 203.520 C 74.784 203.520,66.004 196.017,62.039 191.932 C 47.995 177.465,39.230 159.032,36.714 138.678 C 36.064 133.427,36.166 121.557,36.909 115.893 C 41.740 79.034,68.810 48.405,104.842 39.028 C 115.567 36.237,126.819 35.469,138.667 36.722 M137.863 102.939 L 147.513 123.947 137.757 124.061 C 132.390 124.124,123.600 124.124,118.222 124.061 L 108.444 123.947 118.115 102.940 C 123.435 91.386,127.883 81.933,128.000 81.932 C 128.117 81.931,132.556 91.384,137.863 102.939 M159.787 150.400 C 164.346 160.256,168.083 168.454,168.092 168.618 C 168.100 168.782,166.672 168.183,164.920 167.287 C 160.672 165.114,157.086 164.267,152.147 164.267 C 146.754 164.267,144.328 164.816,139.663 167.095 C 135.745 169.008,131.819 172.250,129.134 175.787 L 128.000 177.280 126.866 175.787 C 124.181 172.250,120.255 169.008,116.337 167.095 C 111.672 164.816,109.246 164.267,103.853 164.267 C 98.914 164.267,95.328 165.114,91.080 167.287 C 89.328 168.183,87.893 168.817,87.893 168.696 C 87.893 168.575,91.280 161.144,95.419 152.184 C 99.558 143.224,103.311 135.076,103.760 134.076 L 104.576 132.259 128.037 132.370 L 151.498 132.480 159.787 150.400 M107.568 172.373 C 113.499 173.473,119.484 178.112,122.053 183.603 C 123.818 187.374,124.153 191.037,124.157 206.613 L 124.160 219.733 121.811 219.733 C 117.463 219.733,107.171 217.887,101.333 216.060 C 97.017 214.709,93.115 213.179,88.640 211.082 L 84.053 208.933 84.053 199.276 C 84.053 188.812,84.365 186.629,86.446 182.522 C 87.845 179.762,91.667 175.948,94.614 174.371 C 98.462 172.313,103.257 171.573,107.568 172.373 M156.280 172.575 C 163.512 174.107,169.388 179.795,171.293 187.108 C 171.787 189.006,171.947 191.977,171.947 199.276 L 171.947 208.933 167.360 211.082 C 162.885 213.179,158.983 214.709,154.667 216.060 C 148.948 217.850,138.548 219.733,134.384 219.733 L 132.229 219.733 132.355 203.177 L 132.480 186.620 134.054 183.443 C 136.074 179.369,139.217 176.193,143.143 174.258 C 147.816 171.955,151.269 171.513,156.280 172.575 " stroke="none" fill-rule="evenodd"></path></svg>