<svg fill="currentColor" viewBox="0 0 256 256" xmlns="http://www.w3.org/2000/svg"><path d="M167.204 28.723 C 166.356 29.040,165.108 29.703,164.431 30.195 C 163.754 30.687,134.951 59.375,100.424 93.945 C 44.114 150.326,37.566 157.020,36.851 158.933 C 36.106 160.926,36.053 162.687,36.053 185.600 C 36.053 208.707,36.101 210.256,36.866 212.242 C 37.944 215.036,40.465 217.697,43.210 218.938 L 45.440 219.947 70.187 219.947 C 93.308 219.947,95.073 219.894,97.067 219.149 C 98.980 218.434,105.693 211.867,162.268 155.363 C 197.697 119.978,225.821 91.559,226.442 90.515 C 227.277 89.110,227.597 87.885,227.750 85.497 C 228.123 79.684,229.342 81.194,202.719 54.476 C 189.666 41.377,178.145 30.160,177.117 29.549 C 174.850 28.204,169.733 27.777,167.204 28.723 M196.578 59.422 L 219.733 82.577 219.733 84.491 L 219.733 86.405 205.866 100.267 L 191.999 114.130 167.039 89.173 C 153.312 75.447,142.087 64.119,142.096 64.001 C 142.106 63.883,148.202 57.594,155.643 50.024 L 169.173 36.262 171.298 36.264 L 173.423 36.267 196.578 59.422 M140.156 165.974 L 94.072 212.053 70.695 212.053 C 45.332 212.053,45.528 212.071,44.456 209.719 C 44.081 208.895,43.947 202.492,43.947 185.462 C 43.947 164.768,44.020 162.212,44.644 161.268 C 45.027 160.688,65.715 139.813,90.616 114.880 L 135.892 69.546 161.066 94.721 L 186.240 119.895 140.156 165.974 " stroke="none" fill-rule="evenodd"></path></svg>