<svg fill="currentColor" viewBox="0 0 256 256" xmlns="http://www.w3.org/2000/svg"><path d="M125.013 12.192 C 117.224 13.521,112.763 15.730,107.947 20.644 C 104.906 23.746,102.649 27.509,101.269 31.778 C 99.878 36.078,99.709 42.591,100.875 46.933 C 102.146 51.663,104.773 56.158,108.361 59.742 C 113.794 65.169,120.272 67.840,128.000 67.840 C 135.741 67.840,142.190 65.175,147.690 59.704 C 150.359 57.050,151.304 55.726,152.876 52.442 C 155.330 47.314,155.922 44.749,155.871 39.467 C 155.801 32.253,153.131 25.824,148.053 20.644 C 144.263 16.776,139.612 14.049,134.816 12.880 C 132.611 12.342,126.604 11.921,125.013 12.192 M132.892 20.707 C 140.638 22.725,146.402 29.082,147.680 37.015 C 149.773 50.005,137.883 61.904,124.984 59.728 C 114.097 57.892,106.447 47.306,108.342 36.701 C 110.399 25.194,121.743 17.803,132.892 20.707 M101.760 76.566 C 96.061 77.644,90.564 80.609,86.551 84.771 C 81.178 90.344,38.637 139.072,37.923 140.471 C 34.823 146.548,35.626 153.457,39.997 158.318 C 42.333 160.916,44.190 162.155,47.282 163.178 C 50.529 164.251,55.344 163.962,58.453 162.506 C 59.849 161.852,66.411 156.888,74.641 150.260 C 82.253 144.129,88.554 139.185,88.643 139.274 C 88.777 139.408,70.375 209.620,68.394 216.533 C 66.487 223.193,70.384 231.221,77.134 234.535 C 79.314 235.606,80.027 235.733,83.849 235.733 C 87.820 235.733,88.327 235.634,90.973 234.331 C 92.671 233.495,94.477 232.184,95.444 231.085 C 96.337 230.071,103.979 217.318,112.427 202.745 C 120.875 188.172,127.883 176.249,128.000 176.249 C 128.117 176.250,135.029 188.088,143.360 202.557 C 159.606 230.774,160.796 232.519,165.189 234.564 C 169.508 236.573,174.518 236.554,178.982 234.510 C 185.430 231.558,189.416 223.330,187.590 216.739 C 184.960 207.243,167.288 139.666,167.368 139.410 C 167.423 139.232,173.708 144.101,181.334 150.230 C 189.145 156.506,196.225 161.865,197.547 162.500 C 199.604 163.488,200.419 163.626,204.160 163.622 C 207.954 163.619,208.695 163.487,210.849 162.433 C 212.336 161.705,214.176 160.270,215.613 158.718 C 220.417 153.529,221.350 146.667,218.078 140.587 C 216.578 137.800,169.598 84.567,166.476 82.116 C 163.660 79.906,159.895 77.981,156.359 76.944 C 154.084 76.276,151.207 76.187,129.280 76.099 C 110.374 76.024,104.062 76.131,101.760 76.566 M156.273 85.260 C 157.625 85.806,159.776 87.054,161.051 88.033 C 163.471 89.891,209.863 142.167,211.097 144.427 C 211.505 145.174,211.802 146.717,211.811 148.133 C 211.823 150.153,211.612 150.862,210.553 152.362 C 208.283 155.576,203.871 156.850,200.723 155.201 C 200.007 154.825,190.918 147.687,180.526 139.339 C 162.832 125.124,161.525 124.160,159.943 124.160 C 157.741 124.160,156.160 125.639,156.160 127.701 C 156.160 129.002,177.898 212.584,179.422 217.143 C 180.228 219.553,180.220 221.069,179.391 223.054 C 178.433 225.346,176.795 226.867,174.438 227.649 C 172.056 228.441,170.408 228.221,167.892 226.775 C 166.326 225.876,164.740 223.303,148.905 195.990 C 139.402 179.598,131.203 165.755,130.686 165.227 C 129.386 163.900,126.614 163.900,125.314 165.227 C 124.797 165.755,116.597 179.597,107.093 195.988 C 91.277 223.266,89.669 225.873,88.107 226.773 C 85.807 228.098,84.038 228.410,81.975 227.855 C 79.734 227.251,77.728 225.533,76.749 223.378 C 75.794 221.276,75.749 219.627,76.576 217.143 C 78.118 212.514,99.840 129.008,99.840 127.708 C 99.840 125.640,98.263 124.160,96.059 124.160 C 94.481 124.160,93.164 125.132,75.453 139.368 C 65.047 147.732,55.916 154.836,55.160 155.154 C 53.515 155.848,50.854 155.904,49.201 155.280 C 47.567 154.662,45.671 152.821,44.961 151.160 C 44.245 149.488,44.227 146.124,44.926 144.544 C 45.468 143.318,89.581 93.009,93.200 89.490 C 95.529 87.224,99.450 85.103,102.400 84.512 C 103.456 84.301,115.456 84.159,129.067 84.197 L 153.813 84.267 156.273 85.260 " stroke="none" fill-rule="evenodd"></path></svg>