<svg fill="currentColor" viewBox="0 0 256 256" xmlns="http://www.w3.org/2000/svg"><path d="M125.013 12.192 C 117.224 13.521,112.763 15.730,107.947 20.644 C 104.906 23.746,102.649 27.509,101.269 31.778 C 99.878 36.078,99.709 42.591,100.875 46.933 C 102.146 51.663,104.773 56.158,108.361 59.742 C 113.794 65.169,120.272 67.840,128.000 67.840 C 135.741 67.840,142.190 65.175,147.690 59.704 C 150.359 57.050,151.304 55.726,152.876 52.442 C 155.330 47.314,155.922 44.749,155.871 39.467 C 155.801 32.253,153.131 25.824,148.053 20.644 C 144.263 16.776,139.612 14.049,134.816 12.880 C 132.611 12.342,126.604 11.921,125.013 12.192 M132.892 20.707 C 140.638 22.725,146.402 29.082,147.680 37.015 C 149.773 50.005,137.883 61.904,124.984 59.728 C 114.097 57.892,106.447 47.306,108.342 36.701 C 110.399 25.194,121.743 17.803,132.892 20.707 M40.685 76.388 C 36.155 77.291,31.520 80.968,29.513 85.249 C 28.516 87.376,28.373 88.214,28.373 91.953 C 28.373 95.923,28.473 96.429,29.778 99.083 C 32.384 104.380,32.128 104.236,63.413 118.011 C 87.503 128.618,91.279 130.402,91.067 131.071 C 90.931 131.497,85.915 150.421,79.920 173.123 C 73.924 195.825,68.743 215.360,68.405 216.533 C 66.522 223.087,70.419 231.025,77.144 234.336 C 79.756 235.622,80.305 235.732,84.044 235.721 C 87.530 235.711,88.454 235.549,90.554 234.574 C 95.168 232.434,95.867 231.418,112.430 202.792 C 120.876 188.194,127.883 176.250,128.000 176.250 C 128.117 176.250,135.029 188.091,143.360 202.563 C 160.125 231.688,160.865 232.746,165.834 234.710 C 169.255 236.062,174.586 236.084,177.920 234.761 C 184.305 232.227,188.876 224.521,187.757 218.176 C 187.557 217.038,182.296 196.816,176.066 173.239 C 169.836 149.662,164.777 130.345,164.823 130.313 C 164.869 130.281,176.619 125.113,190.933 118.830 C 205.248 112.546,218.033 106.868,219.344 106.211 C 222.478 104.642,225.798 100.997,226.994 97.812 C 229.439 91.304,227.170 83.425,221.653 79.269 C 217.127 75.859,226.125 76.168,129.067 76.098 C 81.429 76.063,41.658 76.194,40.685 76.388 M215.253 84.860 C 218.392 86.308,219.733 88.509,219.733 92.209 C 219.733 94.611,219.082 96.116,217.318 97.789 C 216.552 98.516,205.354 103.665,186.880 111.785 C 170.533 118.971,157.324 125.019,156.907 125.510 C 156.496 125.993,156.160 127.007,156.160 127.763 C 156.160 128.519,161.372 148.898,167.742 173.049 C 174.113 197.200,179.522 217.850,179.763 218.937 C 180.159 220.721,180.087 221.149,179.029 223.311 C 178.158 225.092,177.389 225.982,176.038 226.774 C 172.877 228.626,168.738 228.056,166.346 225.439 C 165.730 224.765,157.611 211.061,148.303 194.987 C 138.995 178.912,130.982 165.424,130.496 165.013 C 129.201 163.920,126.485 164.032,125.314 165.227 C 124.797 165.755,116.598 179.599,107.094 195.991 C 91.263 223.297,89.672 225.877,88.107 226.776 C 85.592 228.221,83.944 228.441,81.562 227.649 C 79.205 226.867,77.567 225.346,76.609 223.054 C 75.781 221.070,75.772 219.555,76.576 217.143 C 78.070 212.660,99.840 129.030,99.840 127.775 C 99.840 127.012,99.504 125.990,99.093 125.504 C 98.669 125.002,85.725 119.075,69.120 111.779 C 50.640 103.660,39.448 98.516,38.682 97.789 C 36.918 96.116,36.267 94.611,36.267 92.209 C 36.267 88.509,37.608 86.308,40.747 84.860 C 42.388 84.102,45.731 84.072,128.000 84.072 C 210.269 84.072,213.612 84.102,215.253 84.860 " stroke="none" fill-rule="evenodd"></path></svg>