<svg fill="currentColor" viewBox="0 0 256 256" xmlns="http://www.w3.org/2000/svg"><path d="M206.720 36.186 C 206.016 36.262,169.077 42.932,124.634 51.009 C 37.987 66.756,42.097 65.892,39.170 68.975 C 38.537 69.642,37.577 71.147,37.036 72.320 L 36.053 74.453 35.934 99.307 L 35.814 124.160 25.127 124.160 L 14.441 124.160 13.194 125.407 C 11.539 127.062,11.538 128.809,13.191 130.660 L 14.435 132.053 25.125 132.193 L 35.814 132.332 35.933 156.939 L 36.053 181.547 37.073 183.803 C 38.259 186.429,41.083 189.104,43.662 190.046 C 46.887 191.224,207.843 220.236,209.493 219.937 C 213.572 219.197,216.856 216.795,218.811 213.120 L 219.947 210.987 220.064 171.659 L 220.181 132.332 230.873 132.193 L 241.565 132.053 242.809 130.660 C 244.462 128.809,244.461 127.062,242.806 125.407 L 241.559 124.160 230.868 124.160 L 220.177 124.160 220.062 84.800 L 219.947 45.440 218.965 43.307 C 216.730 38.451,211.886 35.634,206.720 36.186 M209.719 44.456 C 212.141 45.560,212.053 44.011,212.053 85.739 L 212.053 124.160 128.000 124.160 L 43.947 124.160 43.947 100.287 C 43.947 84.223,44.096 76.085,44.404 75.410 C 44.655 74.859,45.266 74.154,45.762 73.844 C 46.495 73.387,205.422 44.114,207.873 43.985 C 208.273 43.964,209.103 44.176,209.719 44.456 M212.053 170.475 C 212.053 212.345,212.165 210.520,209.534 211.610 C 208.397 212.081,199.362 210.524,128.127 197.578 C 84.057 189.570,47.373 182.814,46.606 182.566 C 43.898 181.691,43.947 182.175,43.947 155.968 L 43.947 132.267 128.000 132.267 L 212.053 132.267 212.053 170.475 " stroke="none" fill-rule="evenodd"></path></svg>