<svg fill="currentColor" viewBox="0 0 256 256" xmlns="http://www.w3.org/2000/svg"><path d="M145.920 20.687 C 135.828 22.963,127.162 31.479,124.817 41.424 C 123.991 44.929,123.991 51.071,124.817 54.576 C 128.897 71.885,148.415 80.918,164.508 72.946 C 171.020 69.720,176.325 63.586,178.623 56.625 C 179.622 53.598,179.780 52.422,179.780 48.000 C 179.780 43.578,179.622 42.402,178.623 39.375 C 175.873 31.046,169.198 24.353,160.783 21.487 C 156.783 20.125,150.026 19.761,145.920 20.687 M157.928 28.998 C 174.047 33.980,176.875 55.680,162.606 64.894 C 159.160 67.120,155.761 67.961,151.107 67.742 C 144.410 67.426,140.045 65.144,136.056 59.875 C 133.344 56.293,132.267 52.913,132.267 47.984 C 132.267 41.850,134.362 36.975,138.609 33.228 C 140.812 31.285,144.659 29.197,147.095 28.622 C 150.023 27.932,155.043 28.106,157.928 28.998 M107.307 92.421 C 103.108 93.037,96.919 94.592,92.623 96.109 C 79.000 100.923,59.446 113.140,46.592 124.870 C 43.636 127.567,43.242 129.332,45.126 131.440 C 46.860 133.381,48.833 133.400,51.080 131.500 C 64.641 120.030,73.879 113.720,85.547 107.956 C 97.015 102.290,104.308 100.267,113.263 100.267 C 119.336 100.267,124.367 101.240,123.953 102.334 C 123.806 102.722,111.105 131.983,95.729 167.358 C 68.549 229.890,67.786 231.718,68.266 233.170 C 69.157 235.871,72.148 236.830,74.330 235.114 C 75.101 234.508,80.225 223.144,93.233 193.194 C 103.048 170.596,111.119 152.049,111.169 151.979 C 111.219 151.909,119.538 157.763,129.657 164.990 L 148.053 178.128 148.053 205.790 L 148.053 233.452 149.301 234.699 C 151.410 236.809,154.433 236.268,155.556 233.579 C 156.376 231.618,156.424 176.266,155.607 174.395 C 155.246 173.567,149.127 168.954,135.040 158.890 C 121.457 149.186,114.995 144.324,115.013 143.823 C 115.059 142.501,131.184 105.828,131.722 105.820 C 132.009 105.817,137.289 110.757,143.456 116.800 C 149.622 122.843,156.107 128.959,157.867 130.393 C 170.353 140.562,183.438 146.013,199.192 147.606 C 207.831 148.480,210.469 148.077,211.544 145.719 C 212.207 144.262,212.186 143.575,211.433 142.119 C 210.562 140.433,209.177 140.046,203.093 139.791 C 187.803 139.151,174.211 133.705,161.920 123.295 C 160.043 121.705,154.283 116.249,149.120 111.169 C 138.571 100.791,135.678 98.400,130.773 96.006 C 125.207 93.290,121.874 92.533,114.773 92.373 C 111.371 92.296,108.011 92.318,107.307 92.421 " stroke="none" fill-rule="evenodd"></path></svg>