<svg fill="currentColor" viewBox="0 0 256 256" xmlns="http://www.w3.org/2000/svg"><path d="M76.587 29.008 C 59.126 32.979,44.452 46.192,38.873 62.967 C 36.469 70.196,36.099 72.801,36.150 82.133 C 36.317 112.849,47.015 142.586,66.925 167.680 C 71.058 172.889,83.093 184.926,88.320 189.079 C 112.325 208.151,139.916 218.468,170.880 219.950 C 188.096 220.774,201.959 215.701,213.195 204.464 C 219.915 197.744,224.367 189.794,226.816 180.142 C 228.304 174.273,228.208 171.028,226.444 167.611 C 225.440 165.666,224.512 164.547,223.138 163.625 C 222.087 162.920,210.091 157.360,196.480 151.269 L 171.733 140.196 168.747 140.204 C 166.419 140.211,165.322 140.442,163.775 141.253 C 162.683 141.825,156.097 147.141,149.140 153.067 C 134.646 165.410,135.488 164.991,130.601 162.276 C 116.051 154.192,101.483 139.716,93.922 125.830 C 92.927 124.003,92.160 122.015,92.160 121.265 C 92.160 119.884,91.767 120.383,109.287 99.513 C 113.356 94.665,114.862 92.541,115.420 90.858 C 116.878 86.470,116.798 86.233,104.730 59.307 C 98.683 45.813,93.128 33.909,92.386 32.853 C 90.372 29.987,86.604 28.148,82.843 28.196 C 81.279 28.216,78.464 28.581,76.587 29.008 M85.468 37.105 C 86.577 38.156,107.947 86.014,107.947 87.444 C 107.947 88.379,105.597 91.425,97.031 101.598 C 91.028 108.727,85.703 115.328,85.198 116.267 C 84.478 117.607,84.282 118.705,84.284 121.387 C 84.286 124.551,84.415 125.052,86.063 128.257 C 93.536 142.796,108.412 158.292,123.814 167.580 C 129.262 170.866,132.034 171.951,134.938 171.934 C 139.010 171.910,140.710 170.799,153.864 159.573 C 160.601 153.824,166.514 148.887,167.003 148.602 C 167.493 148.317,168.313 148.077,168.827 148.068 C 169.871 148.052,216.792 168.954,218.430 170.166 C 219.990 171.320,220.183 172.788,219.325 176.977 C 215.991 193.249,203.573 206.181,186.968 210.672 C 183.173 211.698,182.131 211.793,174.507 211.803 C 162.401 211.819,152.164 210.371,139.919 206.911 C 93.316 193.740,56.780 154.678,46.956 107.520 C 43.707 91.924,43.222 76.717,45.690 67.812 C 49.976 52.345,63.206 39.953,78.933 36.676 C 82.841 35.862,84.255 35.955,85.468 37.105 " stroke="none" fill-rule="evenodd"></path></svg>