<svg fill="currentColor" viewBox="0 0 256 256" xmlns="http://www.w3.org/2000/svg"><path d="M76.587 29.008 C 59.126 32.979,44.452 46.192,38.873 62.967 C 36.469 70.196,36.099 72.801,36.150 82.133 C 36.317 112.849,47.015 142.586,66.925 167.680 C 71.058 172.889,83.093 184.926,88.320 189.079 C 113.153 208.808,142.916 219.574,173.440 219.869 C 182.574 219.957,185.558 219.559,192.340 217.348 C 203.501 213.710,213.032 206.470,219.550 196.680 C 224.190 189.710,227.296 181.263,227.722 174.454 C 227.928 171.166,227.840 170.531,226.901 168.478 C 225.702 165.860,223.753 163.738,221.497 162.594 C 220.644 162.162,209.099 156.946,195.840 151.003 L 171.733 140.199 168.747 140.206 C 166.417 140.211,165.324 140.441,163.776 141.253 C 162.685 141.825,156.091 147.141,149.122 153.067 C 134.234 165.726,135.587 165.149,129.280 161.538 C 120.752 156.656,111.379 148.855,104.678 141.061 C 98.155 133.473,92.160 123.995,92.160 121.268 C 92.160 119.748,92.109 119.815,103.893 105.870 C 109.291 99.483,114.154 93.390,114.700 92.328 C 115.971 89.861,116.295 86.546,115.510 84.053 C 114.389 80.494,93.748 34.792,92.386 32.853 C 90.372 29.987,86.604 28.148,82.843 28.196 C 81.279 28.216,78.464 28.581,76.587 29.008 M85.258 36.830 C 86.091 37.489,86.497 38.354,97.675 63.289 C 103.433 76.135,107.947 86.745,107.947 87.437 C 107.947 88.427,105.798 91.220,97.037 101.615 C 91.036 108.735,85.715 115.328,85.211 116.267 C 84.510 117.572,84.291 118.733,84.281 121.203 C 84.268 124.150,84.423 124.748,86.054 128.041 C 93.835 143.756,111.393 161.290,127.948 169.879 C 131.318 171.627,131.723 171.733,134.988 171.723 C 137.607 171.714,138.839 171.506,140.030 170.869 C 140.897 170.406,147.119 165.323,153.857 159.573 C 160.594 153.824,166.509 148.887,167.000 148.602 C 167.491 148.317,168.311 148.077,168.823 148.068 C 169.868 148.051,216.807 168.957,218.430 170.163 C 219.990 171.321,220.183 172.789,219.325 176.977 C 215.991 193.249,203.573 206.181,186.968 210.672 C 183.173 211.698,182.131 211.793,174.507 211.803 C 162.401 211.819,152.164 210.371,139.919 206.911 C 93.316 193.740,56.780 154.678,46.956 107.520 C 43.707 91.924,43.222 76.717,45.690 67.812 C 49.976 52.345,63.206 39.953,78.933 36.676 C 82.525 35.928,84.166 35.968,85.258 36.830 M157.207 37.314 C 155.790 38.731,155.761 41.290,157.147 42.592 C 157.690 43.102,160.234 44.193,162.801 45.015 C 168.828 46.947,178.321 51.697,183.467 55.357 C 188.663 59.052,196.948 67.337,200.643 72.533 C 204.303 77.679,209.053 87.172,210.985 93.199 C 212.686 98.508,213.649 99.840,215.782 99.840 C 217.775 99.840,218.847 99.171,219.550 97.487 C 220.092 96.190,220.050 95.717,219.106 92.459 C 211.726 66.993,191.716 46.255,166.346 37.781 C 160.861 35.949,158.683 35.838,157.207 37.314 M149.531 69.239 C 148.723 69.934,148.388 70.649,148.357 71.747 C 148.285 74.284,149.285 75.271,153.254 76.584 C 166.384 80.926,175.072 89.610,179.410 102.727 C 181.030 107.626,182.896 108.926,186.002 107.320 C 187.878 106.350,188.259 104.651,187.320 101.452 C 182.667 85.606,171.906 74.411,156.280 69.159 C 152.805 67.990,150.957 68.012,149.531 69.239 " stroke="none" fill-rule="evenodd"></path></svg>