<svg fill="currentColor" viewBox="0 0 256 256" xmlns="http://www.w3.org/2000/svg"><path d="M61.212 29.202 L 60.140 30.274 60.271 100.364 L 60.401 170.453 61.369 174.675 C 64.996 190.505,71.329 202.394,81.821 213.072 C 91.862 223.290,103.506 230.051,117.189 233.607 C 122.213 234.913,129.652 235.947,134.021 235.947 C 137.245 235.947,137.528 235.871,138.699 234.699 L 139.947 233.452 139.947 198.899 L 139.947 164.346 144.107 164.099 C 158.191 163.261,167.679 160.737,177.285 155.273 C 203.993 140.081,217.448 108.846,209.945 79.458 C 206.822 67.226,201.162 57.352,192.016 48.183 C 182.170 38.312,171.238 32.341,157.484 29.323 C 153.485 28.445,152.293 28.420,107.835 28.277 L 62.284 28.131 61.212 29.202 M131.840 90.336 L 131.840 144.406 101.716 90.870 C 85.147 61.425,71.495 37.093,71.377 36.800 C 71.206 36.376,77.400 36.267,101.501 36.267 L 131.840 36.267 131.840 90.336 M156.373 37.288 C 174.438 41.267,189.434 52.929,197.706 69.432 C 200.046 74.100,201.519 78.333,202.768 83.975 C 204.085 89.928,204.085 102.072,202.768 108.025 C 198.411 127.714,185.714 143.286,167.633 151.112 C 160.594 154.159,150.702 156.160,142.675 156.160 L 139.947 156.160 139.947 96.157 L 139.947 36.154 146.667 36.392 C 150.363 36.523,154.731 36.927,156.373 37.288 M99.125 102.613 C 115.215 131.243,128.506 155.003,128.662 155.413 C 128.930 156.120,127.323 156.160,98.606 156.160 L 68.267 156.160 68.274 102.080 C 68.281 49.140,68.298 48.027,69.076 49.280 C 69.514 49.984,83.036 73.984,99.125 102.613 M131.840 196.103 L 131.840 227.939 128.960 227.644 C 119.060 226.627,107.597 222.570,99.161 217.096 C 82.005 205.965,70.484 187.233,68.442 167.147 L 68.149 164.267 99.994 164.267 L 131.840 164.267 131.840 196.103 " stroke="none" fill-rule="evenodd"></path></svg>