<svg fill="currentColor" viewBox="0 0 256 256" xmlns="http://www.w3.org/2000/svg"><path d="M75.788 28.765 C 73.737 29.523,71.347 31.415,70.069 33.293 C 67.706 36.764,67.823 31.495,67.943 128.869 L 68.053 218.667 69.064 220.903 C 70.207 223.431,72.636 225.834,75.248 227.020 C 77.372 227.984,81.521 228.096,83.893 227.252 C 84.803 226.929,118.283 206.661,158.293 182.214 C 212.718 148.958,231.486 137.287,232.812 135.873 C 237.103 131.295,236.985 124.249,232.545 119.908 C 231.198 118.592,207.691 103.997,158.989 74.240 C 119.623 50.187,86.513 30.028,85.413 29.444 C 82.972 28.147,78.343 27.820,75.788 28.765 M153.481 80.280 C 193.088 104.487,226.021 124.779,226.667 125.373 C 227.965 126.568,228.256 128.911,227.267 130.211 C 226.646 131.029,82.215 219.459,80.758 219.914 C 79.474 220.315,77.042 219.111,76.432 217.773 C 75.726 216.223,75.737 39.591,76.443 38.265 C 77.204 36.837,78.142 36.295,79.881 36.280 C 81.248 36.269,91.467 42.378,153.481 80.280 " stroke="none" fill-rule="evenodd"></path></svg>