<svg fill="currentColor" viewBox="0 0 256 256" xmlns="http://www.w3.org/2000/svg"><path d="M35.578 60.828 C 33.071 61.748,30.544 64.076,29.264 66.645 L 28.160 68.861 28.160 128.000 L 28.160 187.139 29.264 189.355 C 31.886 194.616,38.293 197.195,43.861 195.230 C 44.812 194.895,65.716 181.830,90.315 166.197 C 121.559 146.341,135.574 137.203,136.812 135.879 C 137.786 134.836,138.890 133.083,139.265 131.982 C 140.705 127.755,139.781 123.290,136.812 120.133 C 135.592 118.836,121.333 109.541,91.013 90.278 C 66.798 74.894,46.158 61.874,45.146 61.345 C 42.833 60.136,38.153 59.883,35.578 60.828 M173.194 61.407 L 171.947 62.654 171.947 127.934 L 171.947 193.215 173.051 194.527 C 174.588 196.353,177.018 196.381,178.806 194.593 L 180.053 193.346 180.053 128.000 L 180.053 62.654 178.806 61.407 C 177.883 60.484,177.154 60.160,176.000 60.160 C 174.846 60.160,174.117 60.484,173.194 61.407 M221.207 61.207 L 220.160 62.255 220.160 128.000 L 220.160 193.745 221.207 194.793 C 221.954 195.539,222.723 195.840,223.886 195.840 C 226.012 195.840,227.276 194.912,227.821 192.947 C 228.433 190.745,228.433 65.255,227.821 63.053 C 227.276 61.088,226.012 60.160,223.886 60.160 C 222.723 60.160,221.954 60.461,221.207 61.207 M85.466 96.279 C 109.681 111.686,130.021 124.777,130.667 125.372 C 131.532 126.169,131.840 126.859,131.840 128.000 C 131.840 129.139,131.531 129.834,130.667 130.636 C 130.021 131.235,109.626 144.365,85.344 159.814 C 50.236 182.151,40.910 187.904,39.809 187.904 C 38.938 187.904,38.023 187.528,37.345 186.891 L 36.267 185.878 36.267 128.060 L 36.267 70.242 37.194 69.254 C 37.856 68.550,38.599 68.267,39.781 68.267 C 41.244 68.267,46.628 71.568,85.466 96.279 " stroke="none" fill-rule="evenodd"></path></svg>