<svg fill="currentColor" viewBox="0 0 256 256" xmlns="http://www.w3.org/2000/svg"><path d="M202.040 48.192 L 173.867 76.330 168.107 70.694 C 161.580 64.308,158.014 62.100,152.099 60.785 C 147.866 59.843,141.356 60.106,137.387 61.381 C 131.625 63.230,129.993 64.551,114.560 79.861 L 100.053 94.252 94.868 89.153 C 90.141 84.504,89.544 84.053,88.115 84.053 C 85.919 84.053,84.053 85.933,84.053 88.146 C 84.053 89.616,84.462 90.156,89.157 94.896 L 94.261 100.048 79.638 114.771 C 66.843 127.653,64.822 129.868,63.470 132.487 C 58.999 141.149,59.006 150.768,63.488 159.353 C 64.672 161.621,66.418 163.742,70.692 168.107 L 76.333 173.867 48.193 202.034 C 20.812 229.442,20.053 230.246,20.053 231.827 C 20.053 234.097,21.903 235.947,24.173 235.947 C 25.754 235.947,26.558 235.188,53.966 207.807 L 82.133 179.667 87.893 185.308 C 92.258 189.582,94.379 191.328,96.647 192.512 C 105.232 196.994,114.851 197.001,123.513 192.530 C 126.132 191.178,128.347 189.157,141.229 176.362 L 155.952 161.739 161.104 166.843 C 165.844 171.538,166.384 171.947,167.854 171.947 C 170.082 171.947,171.947 170.082,171.947 167.854 C 171.947 166.384,171.538 165.844,166.843 161.104 L 161.739 155.952 176.362 141.229 C 189.157 128.347,191.178 126.132,192.530 123.513 C 197.001 114.851,196.994 105.232,192.512 96.647 C 191.328 94.379,189.582 92.258,185.308 87.893 L 179.667 82.133 207.807 53.966 C 235.188 26.558,235.947 25.754,235.947 24.173 C 235.947 21.906,234.097 20.053,231.833 20.053 C 230.260 20.053,229.415 20.852,202.040 48.192 M94.720 28.020 C 93.652 28.439,92.511 29.596,92.097 30.678 C 91.785 31.494,92.586 34.355,96.042 44.758 C 98.427 51.938,100.689 58.171,101.069 58.609 C 103.376 61.265,107.947 59.545,107.947 56.021 C 107.947 54.525,99.365 29.528,98.619 28.854 C 97.770 28.085,95.689 27.640,94.720 28.020 M154.690 70.141 C 157.880 71.703,158.850 72.571,171.140 84.860 C 183.430 97.151,184.297 98.120,185.860 101.311 L 187.520 104.702 187.520 110.080 C 187.520 115.450,187.518 115.462,185.874 118.849 C 184.306 122.079,183.559 122.904,170.125 136.249 L 156.022 150.259 130.918 125.158 L 105.814 100.057 119.787 86.054 C 127.472 78.353,134.621 71.539,135.674 70.913 C 139.345 68.729,141.443 68.239,146.583 68.365 C 151.089 68.476,151.451 68.555,154.690 70.141 M29.207 93.207 C 27.927 94.487,27.777 97.147,28.907 98.517 C 29.429 99.151,33.494 100.702,42.445 103.685 C 49.481 106.029,55.586 107.947,56.013 107.947 C 59.505 107.947,61.284 103.255,58.594 101.139 C 57.244 100.077,33.495 92.160,31.660 92.160 C 30.737 92.160,29.895 92.519,29.207 93.207 M144.660 161.679 C 141.649 164.862,135.369 171.226,130.704 175.821 C 123.276 183.139,121.827 184.370,119.032 185.738 C 114.500 187.955,110.677 188.532,106.511 187.628 C 100.162 186.250,99.626 185.843,85.069 171.323 C 72.526 158.813,71.700 157.892,70.136 154.689 C 68.481 151.299,68.480 151.296,68.480 145.942 C 68.480 137.331,68.027 138.010,85.508 120.420 L 100.038 105.801 125.086 130.846 L 150.135 155.892 144.660 161.679 M197.579 149.158 C 196.532 150.040,196.267 150.594,196.267 151.907 C 196.267 154.870,196.945 155.242,210.560 159.747 C 217.366 161.998,223.566 163.840,224.340 163.840 C 227.287 163.840,229.026 159.826,227.093 157.483 C 226.571 156.849,222.506 155.298,213.555 152.315 C 206.519 149.971,200.342 148.053,199.827 148.053 C 199.313 148.053,198.301 148.550,197.579 149.158 M149.301 197.514 C 148.615 198.200,148.053 199.211,148.053 199.762 C 148.053 200.312,149.971 206.519,152.315 213.555 C 155.298 222.506,156.849 226.571,157.483 227.093 C 159.826 229.026,163.840 227.287,163.840 224.340 C 163.840 223.566,161.998 217.366,159.747 210.560 C 155.288 197.083,154.849 196.267,152.050 196.267 C 150.958 196.267,150.207 196.608,149.301 197.514 " stroke="none" fill-rule="evenodd"></path></svg>