<svg fill="currentColor" viewBox="0 0 256 256" xmlns="http://www.w3.org/2000/svg"><path d="M214.129 36.122 L 198.024 52.190 192.588 46.967 C 184.116 38.827,178.682 36.227,170.139 36.228 C 164.861 36.229,162.271 36.820,157.440 39.128 L 153.387 41.064 138.664 55.716 L 123.941 70.368 118.789 65.264 C 114.050 60.568,113.510 60.160,112.039 60.160 C 109.905 60.160,107.947 62.032,107.947 64.071 C 107.947 65.382,111.044 68.586,149.229 106.771 C 187.414 144.956,190.618 148.053,191.929 148.053 C 193.989 148.053,195.840 146.097,195.840 143.919 C 195.840 142.396,195.491 141.932,190.933 137.387 C 188.235 134.696,186.027 132.307,186.027 132.079 C 186.027 131.851,192.531 125.128,200.481 117.139 L 214.935 102.613 216.867 98.560 C 219.332 93.385,219.922 90.828,219.871 85.547 C 219.790 77.197,217.210 71.912,209.102 63.481 L 203.803 57.972 219.875 41.880 C 235.371 26.363,235.947 25.729,235.947 24.167 C 235.947 21.911,234.094 20.053,231.843 20.053 C 230.296 20.053,229.617 20.669,214.129 36.122 M176.032 44.996 C 180.010 46.183,182.966 48.672,195.882 61.708 C 209.780 75.735,210.592 76.819,211.658 82.781 C 212.332 86.553,211.808 90.456,210.106 94.345 C 209.024 96.817,207.583 98.406,194.385 111.686 L 179.855 126.306 154.782 101.235 L 129.708 76.164 143.894 61.956 C 156.615 49.216,158.388 47.596,161.067 46.267 C 162.709 45.451,164.917 44.605,165.973 44.385 C 168.432 43.874,173.253 44.167,176.032 44.996 M62.720 108.232 C 61.100 108.864,60.160 110.239,60.160 111.975 C 60.160 113.633,60.405 113.965,65.067 118.613 C 67.765 121.304,69.973 123.693,69.973 123.921 C 69.973 124.149,63.469 130.872,55.519 138.861 L 41.065 153.387 39.133 157.440 C 36.643 162.666,36.052 165.219,36.120 170.453 C 36.229 178.832,38.803 184.102,46.898 192.519 L 52.197 198.028 36.125 214.120 C 20.629 229.637,20.053 230.271,20.053 231.833 C 20.053 234.094,21.906 235.947,24.167 235.947 C 25.729 235.947,26.363 235.371,41.880 219.875 L 57.972 203.803 63.481 209.102 C 71.912 217.210,77.197 219.790,85.547 219.871 C 90.828 219.922,93.385 219.332,98.560 216.867 L 102.613 214.935 117.139 200.481 C 125.128 192.531,131.851 186.027,132.079 186.027 C 132.307 186.027,134.696 188.235,137.387 190.933 C 142.067 195.627,142.357 195.840,144.062 195.840 C 145.528 195.840,146.040 195.607,146.949 194.527 C 149.265 191.775,149.233 191.727,136.864 179.325 L 125.675 168.107 136.622 157.120 C 143.943 149.772,147.667 145.730,147.868 144.915 C 148.533 142.216,145.763 139.472,143.048 140.141 C 142.281 140.330,138.016 144.269,130.875 151.383 L 119.883 162.335 106.774 149.226 L 93.665 136.117 104.617 125.125 C 111.941 117.773,115.667 113.730,115.868 112.915 C 116.533 110.216,113.763 107.472,111.048 108.141 C 110.281 108.330,106.016 112.268,98.876 119.382 L 87.885 130.333 76.903 119.361 C 65.823 108.293,64.741 107.443,62.720 108.232 M120.333 185.999 C 111.449 195.344,99.461 207.034,97.166 208.591 C 92.784 211.564,86.494 212.730,81.607 211.477 C 76.135 210.073,75.338 209.439,60.961 195.050 C 49.083 183.163,47.310 181.215,46.143 178.773 C 43.488 173.216,43.408 167.338,45.909 161.622 C 46.972 159.192,48.482 157.528,61.615 144.314 L 76.145 129.694 101.193 154.740 L 126.241 179.785 120.333 185.999 " stroke="none" fill-rule="evenodd"></path></svg>