<svg fill="currentColor" viewBox="0 0 256 256" xmlns="http://www.w3.org/2000/svg"><path d="M121.904 20.489 C 108.733 22.576,97.061 31.441,91.627 43.487 C 90.931 45.030,90.304 46.355,90.235 46.430 C 90.166 46.505,88.854 46.179,87.320 45.705 C 85.787 45.231,82.515 44.617,80.050 44.339 C 67.763 42.957,55.192 47.672,46.690 56.852 C 42.114 61.793,38.464 68.602,37.112 74.720 L 36.581 77.120 34.397 76.538 C 31.322 75.719,30.815 75.786,29.407 77.194 C 28.527 78.074,28.160 78.860,28.160 79.864 C 28.160 82.017,58.781 211.570,59.778 213.635 C 60.818 215.787,63.041 217.825,65.685 219.048 L 67.627 219.947 128.000 219.947 L 188.373 219.947 190.816 218.747 C 193.707 217.328,195.991 214.823,196.879 212.100 C 198.039 208.540,227.840 81.205,227.840 79.807 C 227.840 78.154,225.841 75.944,224.353 75.951 C 223.807 75.954,222.475 76.225,221.393 76.553 L 219.425 77.150 218.891 74.735 C 218.093 71.121,215.814 65.753,213.678 62.452 C 205.463 49.756,190.718 42.678,175.950 44.339 C 173.485 44.617,170.213 45.231,168.680 45.705 C 167.146 46.179,165.834 46.505,165.765 46.430 C 165.696 46.355,165.045 44.976,164.318 43.367 C 161.664 37.484,156.641 31.405,151.187 27.475 C 147.792 25.029,142.336 22.488,138.027 21.346 C 134.114 20.309,125.821 19.868,121.904 20.489 M134.738 28.835 C 145.707 31.085,155.177 39.725,158.507 50.519 C 159.800 54.709,160.187 55.321,161.894 55.885 C 163.203 56.317,163.698 56.226,166.321 55.075 C 170.535 53.225,173.709 52.463,178.363 52.184 C 187.330 51.645,196.147 54.997,202.338 61.298 C 205.479 64.494,206.667 66.113,208.458 69.636 C 209.926 72.524,211.895 78.807,211.466 79.236 C 211.338 79.364,201.578 82.236,189.777 85.618 L 168.320 91.769 149.522 84.284 C 132.067 77.335,130.529 76.800,128.000 76.800 C 125.471 76.800,123.933 77.335,106.478 84.284 L 87.680 91.769 66.223 85.618 C 54.422 82.236,44.662 79.365,44.536 79.238 C 44.048 78.751,45.737 73.431,47.545 69.760 C 55.215 54.179,73.297 47.885,89.701 55.084 C 94.369 57.133,95.458 56.511,97.476 50.641 C 99.381 45.098,101.912 40.958,105.611 37.333 C 113.361 29.739,124.007 26.633,134.738 28.835 M146.293 91.656 C 155.533 95.332,163.186 98.583,163.300 98.879 C 163.464 99.308,149.535 205.422,148.625 210.667 L 148.385 212.053 127.990 212.053 L 107.595 212.053 107.343 210.453 C 106.161 202.968,92.564 99.235,92.713 98.846 C 92.857 98.470,123.044 86.128,127.147 84.768 C 128.133 84.441,128.413 84.542,146.293 91.656 M61.440 92.581 C 73.995 96.160,84.292 99.114,84.324 99.145 C 84.355 99.175,87.674 123.968,91.698 154.240 C 95.723 184.512,99.127 209.904,99.262 210.667 L 99.508 212.053 84.321 212.053 L 69.133 212.053 67.864 210.880 C 66.634 209.744,66.142 207.782,52.262 148.693 C 44.379 115.136,37.815 87.216,37.674 86.650 C 37.483 85.879,37.569 85.677,38.016 85.846 C 38.345 85.971,48.885 89.001,61.440 92.581 M218.252 86.930 C 218.091 87.573,211.535 115.461,203.685 148.903 C 189.847 207.848,189.372 209.743,188.139 210.880 L 186.867 212.053 171.679 212.053 L 156.492 212.053 156.738 210.667 C 156.873 209.904,160.277 184.512,164.302 154.240 C 168.326 123.968,171.645 99.175,171.676 99.145 C 171.772 99.052,217.788 85.851,218.180 85.804 C 218.381 85.780,218.414 86.286,218.252 86.930 " stroke="none" fill-rule="evenodd"></path></svg>