<svg fill="currentColor" viewBox="0 0 256 256" xmlns="http://www.w3.org/2000/svg"><path d="M200.960 28.624 C 187.021 29.890,174.426 33.269,163.627 38.641 C 145.359 47.728,134.538 61.777,132.264 79.360 C 131.173 87.798,133.040 97.754,137.491 107.224 L 139.257 110.980 129.575 120.662 L 119.894 130.344 111.477 121.927 L 103.060 113.510 103.632 112.115 C 105.382 107.851,107.122 102.220,107.558 99.413 C 108.567 92.911,107.275 84.368,104.428 78.720 C 102.904 75.698,99.515 71.105,96.978 68.625 C 85.896 57.793,68.246 52.060,45.960 52.055 C 39.742 52.053,37.584 52.523,36.762 54.058 C 35.424 56.559,35.870 71.652,37.560 81.039 C 41.616 103.563,53.668 119.096,70.239 123.160 C 72.215 123.645,74.845 123.870,78.293 123.850 C 84.117 123.817,89.353 122.688,94.494 120.357 L 97.458 119.013 105.902 127.448 L 114.345 135.884 108.272 141.969 L 102.198 148.053 78.373 148.053 L 54.548 148.053 53.301 149.301 C 51.398 151.203,51.676 154.146,53.876 155.404 C 54.490 155.754,57.311 156.022,61.830 156.160 L 68.834 156.373 75.970 188.461 C 80.790 210.129,83.390 221.005,83.979 221.954 C 85.313 224.106,87.458 225.988,89.813 227.071 L 91.947 228.053 128.000 228.053 L 164.053 228.053 166.187 227.071 C 168.542 225.988,170.687 224.106,172.021 221.954 C 172.610 221.005,175.210 210.130,180.029 188.461 L 187.166 156.373 194.170 156.160 C 198.689 156.022,201.510 155.754,202.124 155.404 C 204.324 154.146,204.602 151.203,202.699 149.301 L 201.452 148.053 157.580 148.053 L 113.708 148.053 129.364 132.398 L 145.019 116.742 148.776 118.513 C 158.799 123.234,168.997 124.996,178.133 123.584 C 203.419 119.676,221.522 96.777,226.554 62.335 C 227.679 54.631,228.290 43.406,227.961 36.450 C 227.717 31.286,227.644 30.940,226.528 29.690 L 225.351 28.373 215.182 28.315 C 209.589 28.283,203.189 28.422,200.960 28.624 M219.655 36.494 C 219.981 36.769,219.704 51.406,219.297 55.469 C 217.999 68.413,215.369 78.285,210.601 88.107 C 202.370 105.065,189.573 114.806,174.080 115.906 C 167.163 116.398,157.917 114.311,150.613 110.609 C 147.424 108.993,147.407 108.975,145.436 105.189 C 143.400 101.276,141.681 96.430,140.739 91.947 C 139.877 87.843,140.111 78.934,141.187 74.880 C 147.287 51.907,173.758 37.036,210.133 36.147 C 213.838 36.057,219.377 36.258,219.655 36.494 M63.583 61.376 C 78.763 64.062,90.766 71.093,96.304 80.543 C 99.475 85.954,100.647 93.672,99.276 100.109 C 98.433 104.060,96.134 109.570,94.744 110.969 C 93.342 112.379,87.416 114.668,83.001 115.505 C 67.762 118.393,53.958 108.059,47.773 89.131 C 45.562 82.366,43.948 71.513,43.947 63.408 L 43.947 60.044 51.307 60.275 C 55.802 60.416,60.580 60.844,63.583 61.376 M178.773 156.701 C 178.773 157.247,165.720 216.290,165.280 217.736 C 165.150 218.163,164.437 218.882,163.695 219.335 C 162.393 220.128,161.164 220.157,128.000 220.157 C 94.607 220.157,93.615 220.134,92.278 219.318 C 91.522 218.857,90.798 218.042,90.669 217.507 C 89.737 213.621,77.227 156.931,77.227 156.591 C 77.227 156.303,94.093 156.160,128.000 156.160 C 168.741 156.160,178.773 156.267,178.773 156.701 " stroke="none" fill-rule="evenodd"></path></svg>