<svg fill="currentColor" viewBox="0 0 256 256" xmlns="http://www.w3.org/2000/svg"><path d="M69.088 37.368 L 68.053 38.469 67.941 115.341 C 67.858 172.539,67.955 192.518,68.320 193.404 C 68.987 195.020,70.280 195.840,72.164 195.840 C 73.397 195.840,73.976 195.556,74.842 194.527 L 75.947 193.215 75.947 162.741 L 75.947 132.267 93.335 132.267 L 110.722 132.267 138.348 159.895 C 153.542 175.090,165.973 187.713,165.973 187.945 C 165.973 188.178,160.208 194.136,153.161 201.185 C 138.914 215.439,138.743 215.678,140.970 218.324 C 142.281 219.882,143.703 220.331,145.357 219.709 C 146.019 219.460,152.323 213.509,159.366 206.485 L 172.172 193.713 184.966 206.543 C 192.003 213.600,198.220 219.556,198.781 219.780 C 200.105 220.306,202.445 219.554,203.305 218.326 C 203.658 217.822,203.947 216.740,203.947 215.921 C 203.947 214.537,203.019 213.502,190.833 201.293 L 177.719 188.153 190.361 175.463 C 197.314 168.484,203.216 162.354,203.475 161.841 C 204.236 160.338,204.024 158.877,202.842 157.473 C 201.937 156.398,201.419 156.160,199.978 156.160 C 198.240 156.160,198.061 156.317,185.079 169.275 L 171.939 182.389 146.979 157.435 C 119.447 129.908,121.095 131.971,126.566 131.883 C 131.825 131.797,140.238 129.598,145.493 126.935 C 155.141 122.047,163.733 112.971,167.970 103.193 C 172.722 92.230,173.205 79.501,169.296 68.267 C 163.695 52.167,149.706 40.078,133.013 36.912 C 130.182 36.375,124.628 36.267,99.867 36.267 L 70.122 36.267 69.088 37.368 M134.063 45.320 C 145.313 48.385,154.717 56.074,159.782 66.347 C 162.915 72.701,163.607 75.857,163.617 83.840 C 163.625 89.565,163.476 91.218,162.691 94.080 C 159.080 107.251,149.506 117.515,136.747 121.893 C 130.733 123.957,127.587 124.155,100.800 124.157 L 75.947 124.160 75.947 84.030 L 75.947 43.900 102.933 44.046 L 129.920 44.191 134.063 45.320 " stroke="none" fill-rule="evenodd"></path></svg>