<svg fill="currentColor" viewBox="0 0 256 256" xmlns="http://www.w3.org/2000/svg"><path d="M61.207 37.314 L 60.160 38.361 60.160 57.154 L 60.160 75.947 49.813 75.954 C 42.584 75.959,38.615 76.142,36.641 76.560 C 28.789 78.225,22.198 84.442,20.506 91.781 C 20.231 92.974,20.070 108.854,20.064 135.550 L 20.053 177.446 21.083 178.643 L 22.112 179.840 41.136 179.959 L 60.160 180.079 60.160 198.654 C 60.160 210.578,60.317 217.523,60.599 218.050 C 61.783 220.263,58.493 220.160,128.085 220.158 C 191.270 220.157,192.669 220.139,194.000 219.327 C 194.915 218.770,195.509 217.966,195.811 216.876 C 196.094 215.858,196.263 208.694,196.264 197.666 L 196.267 180.079 215.077 179.960 L 233.888 179.840 234.917 178.643 L 235.947 177.446 235.936 135.550 C 235.930 108.854,235.769 92.974,235.494 91.781 C 233.820 84.519,227.155 78.212,219.422 76.574 C 217.384 76.142,213.550 75.959,206.400 75.954 L 196.267 75.947 196.264 58.347 C 196.263 47.552,196.091 40.133,195.821 39.159 C 194.949 36.018,200.794 36.267,127.886 36.267 L 62.255 36.267 61.207 37.314 M188.160 59.947 L 188.160 75.947 128.213 75.947 L 68.267 75.947 68.267 59.947 L 68.267 43.947 128.213 43.947 L 188.160 43.947 188.160 59.947 M220.624 85.384 C 223.384 86.679,225.625 88.765,226.800 91.135 C 227.597 92.741,227.631 94.212,227.740 132.373 L 227.853 171.947 212.093 171.947 L 196.332 171.947 196.193 161.244 L 196.053 150.542 194.660 149.298 L 193.267 148.053 128.026 148.053 L 62.785 148.053 61.473 149.158 L 60.160 150.263 60.160 161.105 L 60.160 171.947 44.160 171.947 L 28.160 171.947 28.160 132.970 C 28.160 104.318,28.292 93.610,28.659 92.544 C 29.924 88.871,32.665 86.286,36.821 84.846 C 38.935 84.114,43.294 84.082,128.640 84.172 L 218.240 84.267 220.624 85.384 M185.440 108.557 C 183.319 109.334,181.058 111.529,180.436 113.415 C 179.724 115.570,180.240 118.858,181.561 120.590 C 184.571 124.537,189.503 125.099,193.136 121.909 C 195.035 120.241,195.840 118.418,195.840 115.785 C 195.840 110.567,190.355 106.755,185.440 108.557 M188.160 184.107 L 188.160 212.053 128.213 212.053 L 68.267 212.053 68.267 184.107 L 68.267 156.160 128.213 156.160 L 188.160 156.160 188.160 184.107 " stroke="none" fill-rule="evenodd"></path></svg>