<svg fill="currentColor" viewBox="0 0 256 256" xmlns="http://www.w3.org/2000/svg"><path d="M159.997 20.430 C 159.409 20.621,158.353 21.082,157.651 21.454 C 155.705 22.486,112.784 65.742,112.496 66.961 C 112.168 68.354,113.281 70.593,114.601 71.194 C 117.302 72.425,116.631 72.993,139.733 49.920 C 160.753 28.926,161.577 28.160,163.122 28.160 C 164.003 28.160,165.149 28.440,165.668 28.783 C 166.188 29.126,180.389 43.320,197.227 60.327 C 226.932 90.331,227.840 91.296,227.840 92.864 C 227.840 94.430,227.121 95.201,204.824 117.534 C 192.165 130.213,181.605 141.128,181.356 141.790 C 180.385 144.379,182.316 146.967,185.218 146.967 C 186.899 146.967,187.212 146.675,210.319 123.510 C 226.591 107.198,234.010 99.472,234.676 98.146 C 235.997 95.515,236.258 91.628,235.311 88.698 C 234.606 86.516,232.953 84.781,202.511 54.282 C 179.096 30.824,169.936 21.912,168.533 21.228 C 166.481 20.226,161.936 19.801,159.997 20.430 M46.243 36.516 C 44.813 37.221,43.947 38.663,43.947 40.337 C 43.947 41.536,44.460 42.133,62.454 61.867 C 72.549 72.938,74.947 75.788,74.349 76.007 C 73.937 76.158,72.064 76.512,70.187 76.795 C 60.196 78.299,46.260 85.106,39.655 91.709 C 37.682 93.681,37.155 94.539,36.522 96.808 C 35.700 99.756,35.829 102.072,36.970 104.870 C 37.422 105.978,45.572 114.421,64.136 133.013 L 90.657 159.573 67.541 182.720 C 51.474 198.808,44.335 206.238,44.128 207.085 C 43.471 209.784,46.236 212.523,48.952 211.862 C 49.751 211.668,57.631 204.087,73.279 188.461 L 96.424 165.346 123.199 192.052 L 149.973 218.758 152.701 219.498 C 157.208 220.721,161.709 219.387,164.858 215.895 C 168.930 211.378,174.857 200.742,177.281 193.600 C 177.978 191.547,178.647 189.880,178.768 189.897 C 178.888 189.914,184.313 195.818,190.822 203.017 C 205.304 219.034,205.927 219.679,207.246 220.010 C 209.863 220.666,212.592 217.687,211.791 215.048 C 211.291 213.400,51.463 37.419,49.642 36.511 C 48.006 35.694,47.908 35.694,46.243 36.516 M82.128 83.897 C 82.515 84.046,102.904 106.243,127.436 133.224 L 172.041 182.281 171.777 183.928 C 170.857 189.683,166.581 199.328,161.742 206.564 C 158.521 211.381,157.220 212.402,154.995 211.864 C 153.566 211.519,45.102 103.305,44.340 101.465 C 43.248 98.829,44.402 97.387,51.133 92.977 C 60.158 87.062,68.408 84.452,80.498 83.685 C 81.007 83.653,81.740 83.748,82.128 83.897 " stroke="none" fill-rule="evenodd"></path></svg>