<svg fill="currentColor" viewBox="0 0 256 256" xmlns="http://www.w3.org/2000/svg"><path d="M37.331 61.190 C 36.765 61.756,36.178 62.713,36.027 63.315 C 35.629 64.898,37.030 67.081,38.848 67.709 C 40.981 68.447,215.019 68.447,217.152 67.709 C 218.970 67.081,220.371 64.898,219.973 63.315 C 219.822 62.713,219.235 61.756,218.669 61.190 L 217.639 60.160 128.000 60.160 L 38.361 60.160 37.331 61.190 M173.357 117.083 L 172.160 118.113 172.160 160.000 L 172.160 201.887 173.357 202.917 C 174.073 203.533,175.093 203.947,175.894 203.947 C 176.922 203.947,184.755 199.254,209.470 183.834 C 227.200 172.772,242.182 163.268,242.764 162.714 C 243.544 161.970,243.821 161.261,243.821 160.000 C 243.821 158.739,243.544 158.030,242.764 157.286 C 242.182 156.732,227.200 147.228,209.470 136.166 C 184.755 120.746,176.922 116.053,175.894 116.053 C 175.093 116.053,174.073 116.467,173.357 117.083 M37.331 125.190 C 35.046 127.476,35.875 130.703,39.016 131.742 C 40.311 132.171,50.809 132.260,89.056 132.169 L 137.457 132.053 138.702 130.660 C 140.270 128.905,140.315 127.224,138.842 125.473 L 137.737 124.160 88.049 124.160 L 38.361 124.160 37.331 125.190 M206.338 143.680 C 220.511 152.539,232.106 159.883,232.106 160.000 C 232.106 160.245,180.703 192.427,180.311 192.427 C 180.169 192.427,180.053 177.835,180.053 160.000 C 180.053 142.165,180.169 127.573,180.311 127.573 C 180.453 127.573,192.165 134.821,206.338 143.680 M37.331 189.190 C 35.046 191.476,35.875 194.703,39.016 195.742 C 40.311 196.171,50.809 196.260,89.056 196.169 L 137.457 196.053 138.702 194.660 C 140.270 192.905,140.315 191.224,138.842 189.473 L 137.737 188.160 88.049 188.160 L 38.361 188.160 37.331 189.190 " stroke="none" fill-rule="evenodd"></path></svg>