<svg fill="currentColor" viewBox="0 0 256 256" xmlns="http://www.w3.org/2000/svg"><path d="M73.695 44.529 C 71.166 45.238,68.265 47.218,62.384 52.249 C 54.565 58.939,47.978 66.638,42.460 75.537 C 34.849 87.810,29.024 105.217,28.297 117.857 C 28.036 122.392,28.046 122.459,29.415 125.241 C 30.978 128.416,33.466 130.554,36.693 131.494 C 38.189 131.930,44.682 132.053,66.062 132.053 L 93.510 132.053 94.755 130.660 C 96.298 128.933,96.371 127.199,94.971 125.570 L 93.941 124.373 66.133 124.160 L 38.326 123.947 37.239 122.683 C 36.201 121.476,36.163 121.247,36.390 117.563 C 37.266 103.367,44.704 84.857,54.829 71.680 C 61.079 63.547,73.830 52.053,76.604 52.053 C 79.187 52.053,79.401 52.365,92.910 75.836 C 100.124 88.370,106.485 99.090,107.045 99.659 C 108.153 100.785,110.332 101.045,111.851 100.232 C 113.127 99.549,114.013 97.153,113.493 95.787 C 112.596 93.425,86.860 49.201,85.600 47.855 C 82.709 44.766,77.770 43.386,73.695 44.529 M176.427 44.324 C 174.317 44.878,171.816 46.343,170.400 47.856 C 169.141 49.201,143.405 93.424,142.507 95.787 C 141.987 97.153,142.873 99.549,144.149 100.232 C 145.642 101.031,147.874 100.787,148.910 99.710 C 149.430 99.170,155.751 88.513,162.955 76.029 C 170.160 63.545,176.426 53.049,176.880 52.705 C 178.533 51.455,180.203 51.902,183.750 54.543 C 201.116 67.475,213.542 86.936,218.257 108.588 C 218.871 111.403,219.479 115.442,219.610 117.563 C 219.837 121.247,219.799 121.476,218.761 122.683 L 217.674 123.947 189.867 124.160 L 162.059 124.373 161.029 125.570 C 159.629 127.199,159.702 128.933,161.245 130.660 L 162.490 132.053 190.152 132.053 C 220.133 132.053,219.407 132.106,222.961 129.679 C 226.183 127.478,228.007 123.651,227.944 119.225 C 227.855 113.110,224.937 100.420,221.683 92.001 C 216.525 78.655,207.913 65.645,197.922 56.106 C 193.050 51.453,187.109 46.726,184.533 45.450 C 182.225 44.307,178.476 43.786,176.427 44.324 M125.979 120.299 C 120.084 121.738,118.063 129.256,122.403 133.597 C 126.762 137.955,134.098 136.007,135.698 130.066 C 137.259 124.270,131.876 118.860,125.979 120.299 M107.665 156.063 C 106.754 156.791,80.968 201.059,79.772 203.947 C 78.164 207.830,79.682 213.749,83.046 216.710 C 86.838 220.048,100.037 224.597,112.427 226.835 C 118.571 227.946,137.429 227.946,143.573 226.835 C 155.963 224.597,169.162 220.048,172.954 216.710 C 176.188 213.863,177.627 209.080,176.458 205.059 C 175.670 202.348,150.222 157.745,148.619 156.267 C 147.093 154.858,144.904 154.977,143.327 156.554 C 141.902 157.979,141.743 159.387,142.781 161.408 C 143.167 162.159,149.119 172.532,156.008 184.460 C 162.897 196.387,168.651 206.615,168.795 207.188 C 169.323 209.293,168.191 210.783,164.937 212.266 C 158.555 215.174,149.430 217.771,140.800 219.136 C 134.685 220.104,121.306 220.103,115.200 219.135 C 104.154 217.383,90.443 212.947,88.128 210.375 C 86.336 208.384,86.549 207.928,100.608 183.574 C 114.327 159.809,114.797 158.830,113.373 156.976 C 112.048 155.250,109.243 154.801,107.665 156.063 " stroke="none" fill-rule="evenodd"></path></svg>