<svg fill="currentColor" viewBox="0 0 256 256" xmlns="http://www.w3.org/2000/svg"><path d="M21.723 68.814 C 20.835 69.495,20.053 70.992,20.053 72.010 C 20.053 72.457,30.989 101.982,44.355 137.622 C 62.835 186.899,68.891 202.602,69.635 203.175 C 71.003 204.227,73.110 204.145,74.450 202.987 C 75.340 202.218,80.265 189.474,99.142 139.093 L 122.722 76.160 175.281 76.052 L 227.840 75.943 227.840 86.206 C 227.840 94.525,227.962 96.705,228.484 97.715 C 229.802 100.263,233.034 100.676,234.842 98.527 L 235.947 97.215 235.947 83.788 L 235.947 70.361 234.899 69.314 L 233.852 68.267 176.067 68.267 C 121.653 68.267,118.230 68.310,117.401 69.013 C 116.813 69.513,109.227 89.243,94.477 128.640 C 82.353 161.024,72.300 187.666,72.137 187.845 C 71.974 188.023,61.894 161.623,49.736 129.178 C 37.364 96.160,27.245 69.764,26.755 69.227 C 25.766 68.144,22.901 67.909,21.723 68.814 " stroke="none" fill-rule="evenodd"></path></svg>