<svg fill="currentColor" viewBox="0 0 256 256" xmlns="http://www.w3.org/2000/svg"><path d="M37.333 44.345 C 33.767 45.223,30.543 47.891,29.047 51.200 C 28.184 53.108,28.179 53.600,28.169 131.339 L 28.160 209.559 29.407 210.806 C 30.139 211.538,31.108 212.053,31.752 212.053 C 32.356 212.053,39.859 208.551,48.425 204.269 L 64.000 196.485 79.575 204.269 C 88.141 208.551,95.532 212.053,96.000 212.053 C 96.468 212.053,103.859 208.551,112.425 204.269 L 128.000 196.485 143.575 204.269 C 152.141 208.551,159.532 212.053,160.000 212.053 C 160.468 212.053,167.856 208.552,176.418 204.273 L 191.985 196.493 207.673 204.290 C 216.301 208.578,223.807 212.079,224.353 212.070 C 225.916 212.044,227.725 209.922,228.037 207.749 C 228.186 206.714,228.251 171.595,228.181 129.707 L 228.053 53.547 227.071 51.413 C 225.829 48.714,223.945 46.742,221.227 45.295 L 219.093 44.160 128.853 44.095 C 79.221 44.059,38.037 44.171,37.333 44.345 M218.247 52.737 C 218.821 53.113,219.485 54.121,219.723 54.977 C 220.164 56.564,220.382 201.387,219.944 201.387 C 219.825 201.387,213.778 198.411,206.507 194.773 C 198.225 190.631,192.805 188.160,192.000 188.160 C 191.188 188.160,185.069 190.984,175.358 195.841 L 160.000 203.522 144.642 195.841 C 134.934 190.985,128.812 188.160,128.000 188.160 C 127.188 188.160,121.066 190.985,111.358 195.841 L 96.000 203.522 80.642 195.841 C 70.931 190.984,64.812 188.160,64.000 188.160 C 63.195 188.160,57.774 190.631,49.491 194.775 L 36.267 201.389 36.267 127.768 L 36.267 54.146 37.396 53.100 L 38.525 52.053 127.864 52.053 C 209.105 52.053,217.298 52.115,218.247 52.737 M101.867 92.621 C 100.697 93.302,99.733 95.513,100.048 96.793 C 100.220 97.491,104.495 102.106,111.272 108.907 L 122.218 119.893 111.482 130.667 C 105.577 136.592,100.541 141.981,100.292 142.643 C 99.669 144.296,100.118 145.719,101.676 147.030 C 104.281 149.222,104.724 148.922,116.998 136.655 L 128.000 125.659 139.002 136.655 C 151.276 148.922,151.719 149.222,154.324 147.030 C 155.882 145.719,156.331 144.296,155.708 142.643 C 155.459 141.981,150.423 136.592,144.518 130.667 L 133.782 119.893 144.728 108.907 C 151.505 102.106,155.780 97.491,155.952 96.793 C 156.278 95.469,155.273 93.254,154.050 92.599 C 153.599 92.358,152.512 92.160,151.636 92.160 C 150.122 92.160,149.486 92.713,139.021 103.128 L 128.000 114.097 116.979 103.128 C 106.295 92.495,105.907 92.160,104.286 92.173 C 103.366 92.180,102.277 92.382,101.867 92.621 " stroke="none" fill-rule="evenodd"></path></svg>