<svg fill="currentColor" viewBox="0 0 256 256" xmlns="http://www.w3.org/2000/svg"><path d="M193.920 36.552 C 176.781 38.657,162.227 44.419,149.239 54.240 C 147.296 55.710,143.099 59.469,139.911 62.594 L 134.116 68.276 102.701 68.261 L 71.287 68.247 69.243 69.181 C 67.656 69.907,63.084 74.220,48.766 88.498 C 28.190 109.015,28.168 109.043,28.168 114.347 C 28.168 119.501,31.548 124.180,36.323 125.637 C 37.583 126.021,47.539 127.572,58.448 129.083 L 78.283 131.831 101.221 154.769 L 124.159 177.707 126.926 197.547 C 128.447 208.459,129.815 217.963,129.965 218.667 C 131.074 223.875,136.103 227.816,141.653 227.826 C 147.017 227.837,146.958 227.884,167.585 207.039 C 180.418 194.071,186.340 187.793,186.999 186.456 L 187.947 184.533 188.067 152.966 L 188.187 121.399 193.637 115.846 C 196.635 112.792,200.061 109.045,201.250 107.520 C 210.626 95.489,216.796 80.769,219.134 64.853 C 220.032 58.740,220.174 47.501,219.387 44.800 C 218.470 41.653,216.316 39.105,213.297 37.596 L 210.637 36.267 202.919 36.331 C 198.673 36.366,194.624 36.465,193.920 36.552 M210.602 45.288 C 212.029 46.715,212.346 50.677,211.657 58.477 C 210.604 70.392,208.262 78.914,203.278 88.960 C 199.928 95.713,196.760 100.462,191.702 106.314 C 190.013 108.268,174.989 123.498,158.315 140.159 L 127.999 170.452 106.774 149.226 L 85.548 128.001 115.201 98.304 C 131.510 81.971,146.773 66.881,149.120 64.770 C 159.675 55.278,172.814 48.663,186.695 45.853 C 193.596 44.455,198.337 43.991,204.494 44.110 C 209.241 44.202,209.582 44.268,210.602 45.288 M102.575 99.877 L 78.645 123.808 59.696 121.178 C 49.274 119.731,40.034 118.365,39.162 118.142 C 37.189 117.636,36.267 116.366,36.267 114.157 C 36.267 112.480,36.562 112.155,53.653 95.007 C 63.216 85.413,71.616 77.200,72.320 76.757 C 73.540 75.988,74.848 75.950,100.053 75.948 L 126.506 75.947 102.575 99.877 M179.614 183.065 C 178.918 184.754,143.780 219.629,142.446 219.955 C 141.128 220.276,138.907 219.272,138.259 218.063 C 138.021 217.618,136.567 208.270,135.027 197.288 L 132.227 177.322 156.034 153.513 L 179.840 129.704 179.952 155.838 C 180.027 173.430,179.917 182.330,179.614 183.065 M67.413 157.393 C 57.531 161.676,48.640 170.239,43.572 180.357 C 38.945 189.594,36.341 200.808,36.143 212.358 C 36.054 217.542,36.060 217.576,37.242 218.758 C 38.422 219.939,38.465 219.946,43.601 219.864 C 58.614 219.623,73.265 215.149,83.237 207.758 C 92.334 201.017,101.088 187.751,99.757 182.725 C 99.360 181.224,97.644 180.053,95.841 180.053 C 94.278 180.053,92.387 181.876,91.771 183.975 C 89.956 190.165,83.816 197.670,76.587 202.533 C 69.822 207.084,59.323 210.604,50.133 211.402 C 48.491 211.545,46.523 211.758,45.760 211.877 L 44.373 212.092 44.376 209.619 C 44.379 206.269,45.441 199.455,46.694 194.750 C 50.460 180.600,59.816 169.006,70.970 164.666 C 75.373 162.953,76.856 160.798,75.450 158.159 C 74.200 155.810,71.629 155.565,67.413 157.393 " stroke="none" fill-rule="evenodd"></path></svg>