<svg fill="currentColor" viewBox="0 0 256 256" xmlns="http://www.w3.org/2000/svg"><path d="M125.579 12.388 C 123.212 12.862,121.921 13.569,118.613 16.201 C 110.818 22.404,101.555 32.022,94.630 41.104 C 82.618 56.855,73.908 75.399,70.447 92.590 C 69.352 98.029,68.285 105.435,68.274 107.669 C 68.267 109.198,67.226 110.557,53.071 127.509 C 44.651 137.593,37.485 146.563,36.999 147.627 C 35.420 151.083,35.665 152.695,42.180 181.760 C 45.521 196.661,48.561 209.968,48.937 211.330 C 50.776 218.006,58.647 221.786,64.908 219.000 C 65.994 218.516,73.392 213.204,81.348 207.194 L 95.814 196.267 128.000 196.267 L 160.186 196.267 174.652 207.194 C 182.608 213.204,190.006 218.516,191.092 219.000 C 193.857 220.230,197.534 220.194,200.439 218.908 C 203.145 217.710,206.133 214.558,206.859 212.134 C 207.141 211.192,210.175 197.972,213.602 182.757 C 220.360 152.743,220.624 151.017,218.977 147.614 C 218.465 146.555,211.225 137.504,202.889 127.500 C 188.753 110.534,187.733 109.200,187.731 107.669 C 187.722 101.365,184.140 85.193,180.661 75.755 C 178.206 69.094,172.608 57.761,168.742 51.627 C 160.890 39.168,149.978 26.717,138.641 17.282 C 133.132 12.697,129.964 11.510,125.579 12.388 M130.347 20.847 C 134.280 23.276,144.837 33.525,150.987 40.884 C 181.824 77.783,188.107 122.364,168.887 167.884 C 166.571 173.370,160.095 186.377,159.058 187.627 C 158.411 188.406,97.589 188.406,96.942 187.627 C 95.905 186.377,89.429 173.370,87.113 167.884 C 75.627 140.681,73.174 114.179,79.774 88.584 C 85.666 65.731,100.716 42.247,120.533 24.983 C 126.525 19.763,127.754 19.245,130.347 20.847 M124.800 92.744 C 122.971 93.597,121.623 95.006,120.707 97.022 C 119.703 99.234,119.701 100.878,120.702 103.040 C 123.106 108.232,129.278 109.632,133.280 105.893 C 134.783 104.489,136.085 101.781,136.097 100.030 C 136.111 98.079,134.209 94.656,132.447 93.464 C 130.574 92.196,126.746 91.836,124.800 92.744 M68.440 127.978 C 69.635 144.215,75.515 163.429,85.111 182.456 L 89.443 191.046 76.032 201.179 C 68.657 206.752,62.076 211.517,61.408 211.769 C 59.790 212.380,57.494 211.313,56.824 209.639 C 56.557 208.972,53.537 195.794,50.113 180.354 C 45.618 160.082,43.985 151.993,44.237 151.241 C 44.430 150.669,49.771 143.972,56.107 136.360 C 64.549 126.217,67.696 122.710,67.885 123.233 C 68.027 123.625,68.277 125.761,68.440 127.978 M201.122 137.813 C 206.904 144.736,211.750 150.832,211.890 151.360 C 212.233 152.649,199.769 208.694,198.776 210.327 C 197.852 211.847,195.626 212.423,194.018 211.559 C 193.433 211.244,187.008 206.491,179.740 200.996 L 166.526 191.006 170.277 183.716 C 174.803 174.921,177.608 168.443,180.436 160.257 C 183.969 150.029,186.870 137.073,187.515 128.640 C 187.658 126.763,187.876 124.576,187.998 123.780 L 188.221 122.333 189.415 123.780 C 190.072 124.576,195.340 130.891,201.122 137.813 M109.194 221.407 C 107.539 223.062,107.538 224.809,109.191 226.660 L 110.436 228.053 126.151 228.189 C 134.795 228.263,142.714 228.199,143.749 228.045 C 147.689 227.463,149.320 223.921,146.806 221.407 L 145.559 220.160 128.000 220.160 L 110.441 220.160 109.194 221.407 " stroke="none" fill-rule="evenodd"></path></svg>