<svg fill="currentColor" viewBox="0 0 256 256" xmlns="http://www.w3.org/2000/svg"><path d="M44.246 52.666 C 40.041 54.172,37.142 57.437,36.267 61.651 C 35.958 63.141,35.845 71.062,35.928 85.384 C 36.053 106.738,36.060 106.893,37.020 108.843 C 38.275 111.388,40.683 113.805,43.093 114.938 L 45.013 115.840 127.129 115.951 C 219.590 116.076,212.121 116.341,215.903 112.803 C 217.033 111.746,218.405 109.981,218.952 108.881 L 219.947 106.880 219.947 84.053 L 219.947 61.227 218.752 58.793 C 217.478 56.199,216.000 54.721,213.170 53.206 L 211.413 52.267 128.640 52.176 C 59.766 52.101,45.595 52.184,44.246 52.666 M210.643 61.189 L 211.840 62.219 211.959 83.259 C 212.083 105.347,212.032 106.035,210.193 107.324 C 208.848 108.266,47.152 108.266,45.807 107.324 C 43.968 106.035,43.917 105.347,44.041 83.259 L 44.160 62.219 45.357 61.189 L 46.554 60.160 128.000 60.160 L 209.446 60.160 210.643 61.189 M45.013 140.425 C 41.030 141.354,37.143 145.418,36.261 149.576 C 35.959 151.002,35.845 159.062,35.928 173.256 L 36.053 194.773 37.248 197.207 C 38.522 199.801,40.000 201.279,42.830 202.794 L 44.587 203.733 128.000 203.733 L 211.413 203.733 213.170 202.794 C 216.000 201.279,217.478 199.801,218.752 197.207 L 219.947 194.773 219.947 171.947 L 219.947 149.120 218.961 147.139 C 217.705 144.615,215.450 142.359,212.949 141.127 L 210.987 140.160 128.853 140.093 C 79.279 140.053,46.043 140.185,45.013 140.425 M210.193 148.676 C 212.032 149.965,212.083 150.653,211.959 172.741 L 211.840 193.781 210.675 194.783 C 210.034 195.334,208.690 195.902,207.688 196.045 C 206.686 196.188,170.015 196.248,126.196 196.179 L 46.526 196.053 45.343 194.871 L 44.160 193.688 44.041 172.694 C 43.917 150.656,43.968 149.965,45.807 148.676 C 47.152 147.734,208.848 147.734,210.193 148.676 " stroke="none" fill-rule="evenodd"></path></svg>