<svg fill="currentColor" viewBox="0 0 256 256" xmlns="http://www.w3.org/2000/svg"><path d="M167.630 20.616 C 166.781 20.934,165.437 21.600,164.643 22.097 C 163.849 22.594,131.405 54.834,92.544 93.740 C 13.827 172.550,19.783 166.120,20.137 171.915 C 20.231 173.458,20.665 175.488,21.101 176.427 C 21.640 177.587,30.717 186.982,49.454 205.775 C 80.044 236.456,79.448 235.947,84.693 235.947 C 90.175 235.947,85.099 240.692,163.053 162.680 C 212.997 112.699,234.025 91.383,234.726 90.027 C 236.143 87.285,236.143 82.099,234.724 79.360 C 233.294 76.597,179.841 23.098,176.927 21.512 C 174.381 20.126,170.054 19.709,167.630 20.616 M200.423 55.577 C 227.528 82.682,227.840 83.013,227.840 84.696 C 227.840 86.389,227.484 86.753,157.119 157.119 C 86.640 227.598,86.391 227.840,84.687 227.840 C 82.994 227.840,82.712 227.574,55.569 200.419 C 28.545 173.383,28.160 172.974,28.160 171.309 C 28.160 169.654,28.512 169.269,46.074 151.692 L 63.988 133.764 79.048 148.802 L 94.108 163.840 95.927 163.840 C 98.438 163.840,99.840 162.438,99.840 159.927 L 99.840 158.108 84.804 143.050 L 69.769 127.993 82.881 114.881 L 95.993 101.769 111.050 116.804 L 126.108 131.840 127.927 131.840 C 130.438 131.840,131.840 130.438,131.840 127.927 L 131.840 126.108 116.804 111.050 L 101.769 95.993 114.881 82.881 L 127.993 69.769 143.050 84.804 L 158.108 99.840 159.927 99.840 C 162.438 99.840,163.840 98.438,163.840 95.927 L 163.840 94.108 148.802 79.048 L 133.764 63.988 151.692 46.074 C 169.284 28.497,169.653 28.160,171.313 28.160 C 172.984 28.160,173.367 28.521,200.423 55.577 " stroke="none" fill-rule="evenodd"></path></svg>