<svg fill="currentColor" viewBox="0 0 256 256" xmlns="http://www.w3.org/2000/svg"><path d="M133.243 37.227 C 132.760 37.755,132.238 38.605,132.084 39.115 C 131.721 40.312,132.799 42.891,133.909 43.486 C 134.480 43.791,139.881 43.947,149.909 43.947 L 165.048 43.947 175.318 74.754 C 183.996 100.784,185.507 105.679,185.061 106.321 C 184.771 106.739,173.205 121.665,159.360 139.490 L 134.187 171.898 105.067 171.922 L 75.947 171.947 75.947 170.435 C 75.947 168.105,74.777 162.978,73.564 159.992 C 69.765 150.645,61.202 143.321,51.298 140.950 C 47.583 140.060,40.373 140.064,36.595 140.958 C 21.666 144.490,11.090 158.732,12.090 173.958 C 13.205 190.936,27.042 203.906,44.076 203.939 C 48.996 203.949,53.097 202.999,57.813 200.756 C 65.604 197.052,71.482 190.505,74.202 182.502 L 74.961 180.267 106.376 180.053 C 137.082 179.845,137.809 179.821,138.624 178.987 C 139.082 178.517,150.424 164.021,163.829 146.773 C 177.234 129.525,188.338 115.365,188.505 115.305 C 188.758 115.215,197.973 142.175,197.973 143.006 C 197.973 143.156,196.869 143.901,195.520 144.663 C 192.492 146.371,187.774 150.852,185.513 154.165 C 181.639 159.845,179.842 166.266,180.178 173.227 C 180.424 178.333,181.157 181.377,183.193 185.744 C 186.972 193.852,194.080 199.920,203.093 202.734 C 205.839 203.591,207.141 203.729,212.267 203.702 C 217.615 203.674,218.597 203.548,221.653 202.502 C 231.892 198.995,238.894 191.990,242.408 181.737 C 243.680 178.026,243.792 177.267,243.813 172.160 C 243.832 167.501,243.676 166.101,242.838 163.413 C 239.358 152.248,231.277 144.267,220.288 141.143 C 217.580 140.373,215.909 140.201,211.321 140.220 L 205.681 140.244 188.565 88.894 C 175.235 48.905,171.246 37.403,170.536 36.906 C 169.761 36.363,166.949 36.267,151.873 36.267 L 134.122 36.267 133.243 37.227 M49.388 148.695 C 53.706 149.713,57.883 152.070,61.017 155.256 C 70.279 164.673,70.201 179.546,60.843 188.813 C 55.915 193.693,50.718 195.845,43.885 195.835 C 37.325 195.826,31.942 193.627,27.303 189.064 C 19.678 181.562,17.924 170.255,22.910 160.744 C 27.845 151.330,39.011 146.248,49.388 148.695 M217.283 148.679 C 223.698 150.039,229.991 154.853,233.110 160.789 C 238.077 170.241,236.308 181.576,228.697 189.064 C 224.058 193.627,218.675 195.826,212.115 195.835 C 205.265 195.845,200.060 193.685,195.187 188.813 C 191.803 185.429,189.776 181.951,188.817 177.880 C 186.854 169.554,189.129 161.209,194.983 155.256 C 200.821 149.321,208.969 146.917,217.283 148.679 " stroke="none" fill-rule="evenodd"></path></svg>