<svg fill="currentColor" viewBox="0 0 256 256" xmlns="http://www.w3.org/2000/svg"><path d="M91.372 36.920 C 88.982 37.958,86.848 39.927,85.525 42.315 L 84.267 44.587 84.145 66.933 C 84.010 91.846,83.898 90.850,86.932 91.743 C 87.990 92.054,92.781 92.168,101.049 92.080 L 113.564 91.947 114.855 90.501 C 115.945 89.282,116.108 88.816,115.901 87.515 C 115.757 86.610,115.199 85.577,114.551 85.013 C 113.468 84.073,113.228 84.053,102.803 84.053 L 92.160 84.053 92.160 65.304 L 92.160 46.554 93.190 45.357 L 94.219 44.160 151.323 44.047 C 193.751 43.964,208.733 44.061,209.620 44.427 C 212.192 45.489,212.053 42.097,212.053 103.844 C 212.053 138.736,211.897 160.781,211.646 161.443 C 211.422 162.033,210.710 162.861,210.065 163.284 C 208.981 163.995,207.502 164.053,190.526 164.053 L 172.160 164.053 171.929 152.960 C 171.801 146.859,171.657 141.816,171.609 141.754 C 171.560 141.692,170.896 141.260,170.133 140.795 C 168.229 139.634,167.081 139.731,165.447 141.191 L 164.053 142.436 163.920 154.951 C 163.834 162.987,163.950 168.022,164.243 169.020 C 165.147 172.095,164.225 171.990,189.127 171.854 C 211.165 171.735,211.433 171.723,213.170 170.794 C 216.000 169.279,217.478 167.801,218.752 165.207 L 219.947 162.773 219.947 104.320 C 219.947 48.008,219.917 45.790,219.140 43.774 C 218.073 41.009,215.748 38.497,213.120 37.271 L 210.987 36.275 151.893 36.288 C 101.174 36.298,92.598 36.388,91.372 36.920 M44.246 84.669 C 40.101 86.147,37.173 89.400,36.293 93.503 C 35.628 96.605,35.718 103.842,36.444 105.579 C 37.507 108.124,40.394 108.758,42.536 106.918 C 43.715 105.906,43.737 105.801,43.947 100.103 C 44.234 92.299,44.086 92.449,51.806 92.160 C 57.956 91.930,58.890 91.586,59.795 89.219 C 60.323 87.838,59.539 85.584,58.233 84.728 C 56.878 83.840,46.691 83.797,44.246 84.669 M149.301 85.301 C 148.451 86.150,148.053 86.975,148.053 87.889 C 148.053 91.257,149.904 92.160,156.806 92.160 C 161.481 92.160,161.801 92.216,162.793 93.207 C 163.784 94.199,163.840 94.519,163.840 99.194 C 163.840 106.096,164.743 107.947,168.111 107.947 C 169.025 107.947,169.850 107.549,170.699 106.699 L 171.947 105.452 171.947 99.675 C 171.947 92.402,171.244 90.155,168.080 87.311 C 165.052 84.588,163.113 84.053,156.265 84.053 L 150.548 84.053 149.301 85.301 M37.447 141.191 L 36.053 142.435 35.922 151.282 C 35.783 160.620,35.991 162.020,37.700 163.217 C 38.190 163.560,39.298 163.840,40.164 163.840 C 41.397 163.840,41.976 163.556,42.842 162.527 L 43.947 161.215 43.947 152.046 C 43.947 146.573,43.770 142.546,43.507 142.056 C 42.988 141.086,40.936 139.947,39.708 139.947 C 39.231 139.947,38.213 140.507,37.447 141.191 M37.088 197.368 C 36.097 198.422,36.053 198.716,36.053 204.301 C 36.053 209.015,36.209 210.538,36.866 212.242 C 37.944 215.036,40.465 217.697,43.210 218.938 C 45.217 219.846,46.044 219.947,51.474 219.947 C 56.908 219.947,57.603 219.862,58.457 219.093 C 59.850 217.839,60.265 216.436,59.725 214.800 C 58.952 212.460,57.847 212.053,52.260 212.053 C 44.488 212.053,43.947 211.495,43.947 203.481 C 43.947 198.614,43.895 198.309,42.899 197.314 C 41.399 195.814,38.523 195.840,37.088 197.368 M165.088 197.367 C 164.125 198.391,164.039 198.868,163.840 204.232 C 163.630 209.905,163.608 210.013,162.430 211.025 C 161.302 211.993,160.920 212.053,155.890 212.053 C 150.554 212.053,150.546 212.055,149.301 213.301 C 146.855 215.746,148.114 219.306,151.660 219.971 C 152.522 220.133,155.395 220.182,158.043 220.081 C 162.205 219.922,163.182 219.738,165.249 218.727 C 167.806 217.476,169.293 215.984,170.787 213.170 C 171.602 211.634,171.738 210.599,171.871 204.925 C 172.022 198.453,172.020 198.434,170.937 197.352 C 169.399 195.814,166.541 195.821,165.088 197.367 M93.473 213.158 C 91.219 215.055,91.840 218.540,94.638 219.700 C 95.498 220.056,98.547 220.170,104.718 220.078 L 113.565 219.947 114.856 218.501 C 115.945 217.282,116.108 216.816,115.901 215.515 C 115.757 214.610,115.199 213.577,114.551 213.013 C 113.477 212.081,113.179 212.053,104.116 212.053 L 94.785 212.053 93.473 213.158 " stroke="none" fill-rule="evenodd"></path></svg>