<svg fill="currentColor" viewBox="0 0 256 256" xmlns="http://www.w3.org/2000/svg"><path d="M146.773 28.942 C 136.747 31.045,128.894 35.294,121.813 42.445 C 103.791 60.649,103.400 89.859,120.928 108.688 C 131.109 119.624,146.275 125.352,160.789 123.744 C 171.515 122.555,181.173 118.103,188.924 110.774 C 199.206 101.052,204.489 87.886,203.824 73.638 C 203.249 61.305,198.388 50.529,189.467 41.813 C 183.144 35.635,176.222 31.738,167.400 29.387 C 162.604 28.110,151.848 27.877,146.773 28.942 M166.124 37.280 C 180.251 41.272,190.846 51.894,194.691 65.920 C 196.061 70.917,196.035 81.478,194.642 86.400 C 188.675 107.471,167.191 120.095,146.347 114.779 C 120.315 108.139,108.131 78.705,121.778 55.424 C 126.987 46.539,137.180 39.192,147.413 36.948 C 151.411 36.071,162.547 36.269,166.124 37.280 M61.571 60.799 C 60.858 61.298,56.194 74.832,40.297 122.521 C 17.724 190.241,18.963 185.802,22.187 187.413 C 23.577 188.107,26.467 188.159,64.000 188.159 C 101.533 188.159,104.423 188.107,105.813 187.413 C 109.037 185.802,110.276 190.241,87.703 122.521 C 71.806 74.832,67.142 61.298,66.429 60.799 C 65.927 60.448,64.834 60.160,64.000 60.160 C 63.166 60.160,62.073 60.448,61.571 60.799 M81.352 128.640 L 98.488 180.053 64.000 180.053 L 29.512 180.053 46.648 128.640 C 56.073 100.363,63.881 77.227,64.000 77.227 C 64.119 77.227,71.927 100.363,81.352 128.640 M133.424 149.074 C 132.818 149.635,132.206 150.739,132.063 151.527 C 131.921 152.315,131.860 165.696,131.929 181.262 L 132.053 209.564 133.447 210.808 L 134.840 212.053 180.093 212.053 L 225.346 212.053 226.556 210.843 C 227.361 210.038,227.859 209.001,228.040 207.749 C 228.191 206.714,228.255 193.419,228.184 178.205 L 228.053 150.543 226.660 149.298 L 225.267 148.053 179.896 148.053 L 134.525 148.053 133.424 149.074 M220.160 180.053 L 220.160 203.947 180.053 203.947 L 139.947 203.947 139.947 180.053 L 139.947 156.160 180.053 156.160 L 220.160 156.160 220.160 180.053 " stroke="none" fill-rule="evenodd"></path></svg>