<svg fill="currentColor" viewBox="0 0 256 256" xmlns="http://www.w3.org/2000/svg"><path d="M173.513 52.925 C 171.943 54.160,171.618 56.332,172.736 58.118 C 173.219 58.889,182.743 68.511,193.900 79.501 C 205.058 90.491,214.187 99.660,214.187 99.878 C 214.187 100.117,202.932 100.268,185.694 100.261 C 155.459 100.247,152.374 100.404,143.176 102.432 C 124.845 106.473,107.612 115.967,94.145 129.441 C 83.451 140.142,74.971 153.887,70.158 168.320 C 67.652 175.837,67.572 177.133,69.505 178.860 C 70.704 179.932,71.191 180.106,72.431 179.905 C 74.600 179.553,75.420 178.575,76.389 175.185 C 86.981 138.134,118.986 111.692,157.227 108.397 C 160.043 108.154,174.058 107.953,188.372 107.951 L 214.397 107.947 193.373 128.973 C 170.149 152.201,170.655 151.573,172.970 154.324 C 174.375 155.994,175.846 156.374,177.629 155.528 C 178.389 155.167,189.998 143.875,203.426 130.434 L 227.840 105.995 227.840 104.095 L 227.840 102.195 202.769 77.124 C 178.897 53.252,177.625 52.053,176.160 52.053 C 175.257 52.053,174.164 52.413,173.513 52.925 M29.467 85.163 L 28.149 86.272 28.261 149.056 L 28.373 211.840 29.538 213.822 C 30.920 216.172,32.783 217.832,35.413 219.054 L 37.333 219.947 114.773 220.060 C 172.512 220.144,192.516 220.048,193.404 219.681 C 195.021 219.013,195.840 217.720,195.840 215.836 C 195.840 214.603,195.556 214.024,194.527 213.158 L 193.215 212.053 116.053 212.053 L 38.892 212.053 37.586 210.955 L 36.281 209.856 36.167 148.200 L 36.053 86.543 34.660 85.298 C 32.903 83.728,31.224 83.684,29.467 85.163 " stroke="none" fill-rule="evenodd"></path></svg>