<svg fill="currentColor" viewBox="0 0 256 256" xmlns="http://www.w3.org/2000/svg"><path d="M149.301 29.261 L 148.267 30.362 148.053 53.261 L 147.840 76.160 143.927 76.461 C 114.806 78.701,81.258 96.028,56.680 121.521 C 38.222 140.665,26.149 163.002,21.355 186.880 C 19.910 194.077,19.782 197.024,20.813 199.355 C 22.376 202.889,26.757 204.758,30.545 203.507 C 31.691 203.129,34.082 201.131,38.546 196.822 C 60.522 175.607,87.275 160.162,114.488 152.979 C 124.027 150.461,131.916 149.216,144.533 148.238 L 148.053 147.965 148.053 170.590 L 148.053 193.215 149.158 194.527 C 150.065 195.605,150.579 195.840,152.035 195.840 L 153.808 195.840 194.878 154.771 C 235.622 114.026,235.947 113.688,235.947 112.000 C 235.947 110.312,235.622 109.974,194.878 69.229 C 153.858 28.209,153.806 28.160,152.072 28.160 C 150.757 28.160,150.084 28.427,149.301 29.261 M191.253 146.880 L 156.373 181.763 156.160 162.099 L 155.947 142.436 154.493 141.137 L 153.039 139.839 146.813 140.132 C 121.207 141.336,100.826 146.836,77.515 158.832 C 62.137 166.745,48.890 176.199,34.619 189.446 L 28.065 195.530 28.350 193.658 C 32.234 168.146,44.244 145.226,64.213 125.215 C 88.364 101.014,119.580 85.719,147.914 84.204 C 153.009 83.932,153.388 83.849,154.630 82.740 L 155.947 81.564 156.066 61.809 L 156.185 42.054 191.159 77.026 L 226.133 111.998 191.253 146.880 " stroke="none" fill-rule="evenodd"></path></svg>