<svg fill="currentColor" viewBox="0 0 256 256" xmlns="http://www.w3.org/2000/svg"><path d="M45.013 44.425 C 41.001 45.361,37.143 49.420,36.246 53.648 C 35.911 55.228,35.827 66.185,35.962 90.982 C 36.167 128.739,36.243 130.202,38.599 141.835 C 40.783 152.622,44.966 164.548,49.759 173.653 C 52.916 179.651,59.288 189.108,63.701 194.347 C 73.048 205.441,86.485 216.579,99.627 224.125 C 104.517 226.933,115.546 232.182,120.533 234.076 C 128.502 237.101,131.745 236.423,148.267 228.277 C 161.934 221.538,173.363 213.544,183.624 203.547 C 202.824 184.840,214.368 162.408,218.440 135.893 C 219.930 126.194,220.221 117.035,220.080 84.267 L 219.947 53.120 218.961 51.139 C 217.705 48.615,215.450 46.359,212.949 45.127 L 210.987 44.160 128.853 44.093 C 79.279 44.053,46.043 44.185,45.013 44.425 M209.944 52.493 C 212.079 53.636,212.053 53.228,212.052 85.845 C 212.050 123.735,211.670 130.450,208.802 143.360 C 206.251 154.839,200.216 169.115,193.833 178.773 C 182.266 196.274,165.939 210.497,145.501 220.879 C 138.922 224.221,129.829 227.840,128.012 227.840 C 125.564 227.840,113.705 222.838,106.027 218.566 C 87.729 208.386,72.803 194.844,62.170 178.773 C 55.790 169.131,49.751 154.845,47.198 143.360 C 44.330 130.450,43.950 123.735,43.948 85.845 C 43.947 53.408,43.929 53.705,45.973 52.514 C 47.018 51.905,208.807 51.884,209.944 52.493 " stroke="none" fill-rule="evenodd"></path></svg>