<svg fill="currentColor" viewBox="0 0 256 256" xmlns="http://www.w3.org/2000/svg"><path d="M45.013 44.425 C 41.001 45.361,37.143 49.420,36.246 53.648 C 35.911 55.228,35.827 66.185,35.962 90.982 C 36.167 128.739,36.243 130.202,38.599 141.835 C 40.783 152.622,44.966 164.548,49.759 173.653 C 52.916 179.651,59.288 189.108,63.701 194.347 C 73.048 205.441,86.485 216.579,99.627 224.125 C 108.848 229.419,122.808 235.398,126.947 235.825 C 130.501 236.192,138.079 233.514,149.034 228.020 C 184.091 210.438,207.734 181.862,216.322 146.697 C 219.740 132.699,220.241 124.388,220.076 84.480 L 219.947 53.120 218.961 51.139 C 217.705 48.615,215.450 46.359,212.949 45.127 L 210.987 44.160 128.853 44.093 C 79.279 44.053,46.043 44.185,45.013 44.425 M209.944 52.493 C 212.079 53.636,212.053 53.228,212.052 85.845 C 212.050 123.735,211.670 130.450,208.802 143.360 C 206.251 154.839,200.216 169.115,193.833 178.773 C 182.266 196.274,165.939 210.497,145.501 220.879 C 138.922 224.221,129.829 227.840,128.012 227.840 C 125.564 227.840,113.705 222.838,106.027 218.566 C 87.729 208.386,72.803 194.844,62.170 178.773 C 55.790 169.131,49.751 154.845,47.198 143.360 C 44.330 130.450,43.950 123.735,43.948 85.845 C 43.947 53.408,43.929 53.705,45.973 52.514 C 47.018 51.905,208.807 51.884,209.944 52.493 M125.207 93.207 L 124.160 94.255 124.160 115.996 L 124.160 137.737 125.473 138.842 C 127.223 140.315,128.905 140.270,130.660 138.702 L 132.053 137.457 132.186 117.689 C 132.259 106.816,132.196 97.080,132.045 96.053 C 131.672 93.504,130.275 92.160,128.000 92.160 C 126.716 92.160,125.978 92.437,125.207 93.207 M124.088 165.131 C 121.051 166.735,119.292 170.816,120.253 174.024 C 121.689 178.817,126.805 181.256,131.218 179.251 C 135.893 177.128,137.372 171.427,134.349 167.182 C 132.365 164.395,127.371 163.397,124.088 165.131 " stroke="none" fill-rule="evenodd"></path></svg>