<svg fill="currentColor" viewBox="0 0 256 256" xmlns="http://www.w3.org/2000/svg"><path d="M45.013 44.425 C 41.001 45.361,37.143 49.420,36.246 53.648 C 35.911 55.228,35.827 66.185,35.962 90.982 C 36.120 119.927,36.273 126.978,36.836 131.200 C 39.250 149.312,44.193 164.359,52.276 178.200 C 65.934 201.589,89.532 221.413,117.120 232.674 C 123.750 235.381,126.451 236.094,129.053 235.825 C 132.338 235.486,138.768 232.960,148.267 228.277 C 161.934 221.538,173.363 213.544,183.624 203.547 C 202.824 184.840,214.368 162.408,218.440 135.893 C 219.930 126.194,220.221 117.035,220.080 84.267 L 219.947 53.120 218.961 51.139 C 217.705 48.615,215.450 46.359,212.949 45.127 L 210.987 44.160 128.853 44.093 C 79.279 44.053,46.043 44.185,45.013 44.425 M209.944 52.493 C 212.079 53.636,212.053 53.228,212.052 85.845 C 212.050 123.735,211.670 130.450,208.802 143.360 C 206.251 154.839,200.216 169.115,193.833 178.773 C 184.198 193.350,170.860 206.000,154.902 215.696 C 146.370 220.880,130.951 227.840,128.000 227.840 C 125.067 227.840,109.743 220.917,101.120 215.695 C 88.879 208.283,77.362 198.387,69.050 188.138 C 58.629 175.288,50.669 158.977,47.198 143.360 C 44.330 130.450,43.950 123.735,43.948 85.845 C 43.947 53.408,43.929 53.705,45.973 52.514 C 47.018 51.905,208.807 51.884,209.944 52.493 M125.381 92.975 L 124.373 93.791 124.160 111.920 L 123.947 130.050 106.458 123.051 C 96.840 119.202,88.425 116.053,87.759 116.053 C 84.987 116.053,83.055 119.985,84.684 122.311 C 85.114 122.925,90.853 125.421,102.711 130.151 C 112.279 133.968,120.441 137.259,120.849 137.465 C 121.483 137.784,120.084 139.846,111.270 151.586 C 105.593 159.147,100.685 165.862,100.362 166.509 C 99.635 167.966,100.282 170.330,101.674 171.305 C 102.740 172.052,104.655 172.140,105.855 171.498 C 106.316 171.251,111.404 164.771,117.162 157.098 C 122.919 149.425,127.796 143.147,128.000 143.147 C 128.204 143.147,133.081 149.425,138.838 157.098 C 144.596 164.771,149.684 171.251,150.145 171.498 C 151.345 172.140,153.260 172.052,154.326 171.305 C 155.718 170.330,156.365 167.966,155.638 166.509 C 155.315 165.862,150.407 159.147,144.730 151.586 C 135.916 139.846,134.517 137.784,135.151 137.465 C 135.559 137.259,143.707 133.974,153.256 130.164 C 162.806 126.355,170.839 122.973,171.108 122.649 C 171.377 122.325,171.699 121.294,171.825 120.357 C 172.024 118.873,171.887 118.488,170.753 117.354 C 169.912 116.513,169.023 116.053,168.237 116.053 C 167.569 116.053,159.350 119.125,149.973 122.880 C 140.597 126.635,132.777 129.707,132.596 129.707 C 132.415 129.707,132.266 122.267,132.264 113.173 C 132.263 103.112,132.089 96.019,131.821 95.053 C 131.579 94.179,130.961 93.171,130.448 92.813 C 129.154 91.906,126.600 91.988,125.381 92.975 " stroke="none" fill-rule="evenodd"></path></svg>