<svg fill="currentColor" viewBox="0 0 256 256" xmlns="http://www.w3.org/2000/svg"><path d="M45.013 44.425 C 41.001 45.361,37.143 49.420,36.246 53.648 C 35.911 55.228,35.827 66.185,35.962 90.982 C 36.121 120.286,36.269 126.954,36.853 131.376 C 38.396 143.047,41.007 153.232,45.019 163.235 C 56.091 190.837,78.106 213.669,107.733 228.277 C 124.276 236.433,127.519 237.109,135.467 234.057 C 165.625 222.474,190.202 202.014,204.758 176.374 C 211.330 164.797,216.246 150.261,218.430 135.948 C 219.935 126.077,220.213 117.418,220.076 84.480 L 219.947 53.120 218.961 51.139 C 217.705 48.615,215.450 46.359,212.949 45.127 L 210.987 44.160 128.853 44.093 C 79.279 44.053,46.043 44.185,45.013 44.425 M209.944 52.493 C 212.079 53.636,212.053 53.228,212.052 85.845 C 212.050 123.735,211.670 130.450,208.802 143.360 C 206.251 154.839,200.216 169.115,193.833 178.773 C 182.266 196.274,165.939 210.497,145.501 220.879 C 138.922 224.221,129.829 227.840,128.012 227.840 C 125.564 227.840,113.705 222.838,106.027 218.566 C 87.729 208.386,72.803 194.844,62.170 178.773 C 55.790 169.131,49.751 154.845,47.198 143.360 C 44.330 130.450,43.950 123.735,43.948 85.845 C 43.947 53.408,43.929 53.705,45.973 52.514 C 47.018 51.905,208.807 51.884,209.944 52.493 M125.207 93.207 L 124.160 94.255 124.160 109.207 L 124.160 124.160 109.207 124.160 L 94.255 124.160 93.207 125.207 C 91.976 126.438,91.785 128.981,92.813 130.448 C 93.934 132.049,95.993 132.262,110.400 132.264 L 124.160 132.267 124.160 147.006 L 124.160 161.745 125.207 162.793 C 126.438 164.024,128.981 164.215,130.448 163.187 C 132.046 162.069,132.262 160.001,132.264 145.813 L 132.267 132.267 145.813 132.264 C 160.001 132.262,162.069 132.046,163.187 130.448 C 164.215 128.981,164.024 126.438,162.793 125.207 L 161.745 124.160 147.006 124.160 L 132.267 124.160 132.264 110.400 C 132.262 95.993,132.049 93.934,130.448 92.813 C 128.981 91.785,126.438 91.976,125.207 93.207 " stroke="none" fill-rule="evenodd"></path></svg>