<svg fill="currentColor" viewBox="0 0 256 256" xmlns="http://www.w3.org/2000/svg"><path d="M46.243 36.516 C 43.791 37.725,43.258 40.503,45.066 42.652 C 45.682 43.384,46.114 44.036,46.026 44.101 C 45.939 44.166,45.069 44.448,44.094 44.728 C 41.794 45.388,38.345 48.508,37.063 51.089 L 36.053 53.120 36.067 89.173 C 36.082 128.291,36.153 129.755,38.599 141.836 C 40.783 152.622,44.966 164.548,49.759 173.653 C 52.916 179.651,59.288 189.108,63.701 194.347 C 73.048 205.441,86.485 216.579,99.627 224.125 C 104.517 226.933,115.546 232.182,120.533 234.076 C 128.296 237.023,131.580 236.398,146.685 229.100 C 160.890 222.238,172.602 214.187,183.011 204.131 L 187.653 199.646 189.757 201.903 C 190.914 203.144,194.896 207.520,198.606 211.627 C 202.316 215.733,205.919 219.342,206.612 219.646 C 208.305 220.387,210.358 219.698,211.323 218.064 C 212.178 216.618,212.224 215.615,211.497 214.306 C 210.385 212.306,50.941 37.159,49.642 36.511 C 48.006 35.694,47.908 35.694,46.243 36.516 M95.973 45.127 C 94.083 46.815,94.079 49.181,95.964 50.866 L 97.293 52.053 153.298 52.053 C 214.665 52.053,210.492 51.873,211.608 54.568 C 212.464 56.635,211.959 123.454,211.033 130.522 C 209.585 141.585,206.902 152.207,203.488 160.387 C 201.535 165.069,201.400 166.725,202.835 168.393 C 203.634 169.322,204.226 169.581,205.554 169.581 C 206.488 169.581,207.594 169.297,208.012 168.950 C 210.528 166.862,216.283 148.997,218.179 137.387 C 219.865 127.068,219.947 124.798,219.947 88.533 L 219.947 53.120 218.961 51.139 C 217.705 48.615,215.450 46.359,212.949 45.127 L 210.987 44.160 154.149 44.046 L 97.310 43.932 95.973 45.127 M114.650 119.286 C 148.158 156.147,177.109 187.998,178.987 190.067 L 182.400 193.828 177.707 198.277 C 164.914 210.406,149.412 220.151,132.814 226.499 C 130.885 227.237,128.711 227.840,127.981 227.840 C 124.975 227.840,109.737 220.962,101.120 215.715 C 85.058 205.935,71.825 193.385,62.167 178.773 C 55.784 169.115,49.749 154.839,47.198 143.360 C 44.330 130.450,43.950 123.735,43.948 85.845 C 43.947 53.408,43.928 53.721,45.973 52.506 C 46.384 52.262,48.296 52.108,50.223 52.164 L 53.726 52.267 114.650 119.286 " stroke="none" fill-rule="evenodd"></path></svg>