<svg fill="currentColor" viewBox="0 0 256 256" xmlns="http://www.w3.org/2000/svg"><path d="M127.044 36.267 L 93.875 36.480 86.084 44.249 L 78.293 52.019 65.493 52.143 C 52.989 52.264,52.649 52.290,50.773 53.274 C 48.153 54.648,46.635 56.142,45.294 58.667 L 44.160 60.800 44.049 139.075 C 43.951 207.739,44.017 217.622,44.580 219.560 C 45.427 222.475,48.314 225.688,51.294 227.035 L 53.547 228.053 128.000 228.053 L 202.453 228.053 204.706 227.035 C 207.686 225.688,210.573 222.475,211.420 219.560 C 211.983 217.622,212.049 207.739,211.951 139.075 L 211.840 60.800 210.706 58.667 C 209.365 56.142,207.847 54.648,205.227 53.274 C 203.351 52.290,203.011 52.264,190.507 52.143 L 177.707 52.019 170.027 44.377 C 165.803 40.173,161.867 36.581,161.280 36.394 C 160.693 36.207,145.287 36.149,127.044 36.267 M152.249 44.329 C 151.981 45.050,128.214 80.617,128.000 80.617 C 127.786 80.617,104.019 45.050,103.751 44.329 C 103.668 44.106,113.799 43.947,128.000 43.947 C 142.201 43.947,152.332 44.106,152.249 44.329 M108.862 66.440 C 116.173 77.403,122.215 86.667,122.288 87.026 C 122.371 87.439,116.760 92.557,107.068 100.907 C 98.624 108.181,91.053 114.588,90.243 115.143 C 88.402 116.406,86.223 116.137,84.925 114.487 C 84.067 113.396,84.053 112.929,84.053 85.602 L 84.053 57.825 89.701 52.166 C 92.807 49.053,95.398 46.507,95.458 46.507 C 95.519 46.507,101.551 55.476,108.862 66.440 M171.947 85.624 L 171.947 113.446 170.987 114.551 C 169.597 116.150,167.410 116.386,165.640 115.128 C 163.474 113.589,133.602 87.722,133.573 87.359 C 133.558 87.183,139.632 77.910,147.069 66.754 L 160.591 46.469 166.269 52.135 L 171.947 57.801 171.947 85.624 M76.041 87.573 C 76.158 114.560,76.174 115.017,77.071 116.907 C 80.014 123.107,87.368 125.728,93.181 122.648 C 94.554 121.920,101.285 116.423,109.090 109.653 C 116.531 103.200,122.965 97.669,123.389 97.362 C 124.131 96.826,124.160 99.087,124.160 158.482 L 124.160 220.160 90.090 220.160 C 66.896 220.160,55.601 220.014,54.705 219.701 C 51.835 218.701,52.053 225.250,52.053 139.994 L 52.053 62.785 53.158 61.473 L 54.263 60.160 65.093 60.160 L 75.923 60.160 76.041 87.573 M202.842 61.473 L 203.947 62.785 203.947 139.994 C 203.947 225.250,204.165 218.701,201.295 219.701 C 200.400 220.014,189.165 220.160,166.123 220.160 L 132.267 220.160 132.267 158.699 C 132.267 107.423,132.361 97.294,132.839 97.579 C 133.153 97.766,139.504 103.200,146.952 109.653 C 154.399 116.107,161.194 121.814,162.052 122.337 C 164.749 123.980,167.792 124.372,171.038 123.493 C 173.383 122.858,174.223 122.354,176.264 120.355 C 180.196 116.503,180.053 117.769,180.053 86.749 L 180.053 60.160 190.895 60.160 L 201.737 60.160 202.842 61.473 " stroke="none" fill-rule="evenodd"></path></svg>