<svg fill="currentColor" viewBox="0 0 256 256" xmlns="http://www.w3.org/2000/svg"><path d="M160.640 20.695 C 157.201 21.911,156.502 23.148,148.035 42.993 C 141.869 57.446,139.975 61.497,139.307 61.656 C 138.837 61.767,129.508 62.609,118.574 63.526 C 97.312 65.310,96.752 65.412,94.420 67.911 C 92.031 70.473,91.435 75.271,93.132 78.293 C 93.786 79.458,98.966 84.173,109.445 93.140 C 117.890 100.367,124.854 106.517,124.920 106.806 C 124.986 107.095,123.018 115.886,120.546 126.341 C 118.075 136.795,116.053 146.156,116.053 147.142 C 116.053 149.554,116.905 151.436,118.851 153.327 C 121.045 155.457,124.329 156.434,127.021 155.756 C 128.157 155.470,136.038 151.057,146.147 145.048 C 155.604 139.426,163.638 134.827,164.002 134.827 C 164.365 134.827,172.301 139.372,181.637 144.927 C 190.974 150.482,199.466 155.284,200.508 155.597 C 205.894 157.220,212.037 152.579,212.051 146.877 C 212.052 146.347,210.037 137.377,207.573 126.943 C 205.109 116.510,203.093 107.611,203.093 107.168 C 203.093 106.635,208.361 101.860,218.618 93.095 C 235.226 78.905,235.947 78.126,235.947 74.382 C 235.947 70.896,234.311 67.998,231.366 66.268 C 229.650 65.260,228.555 65.122,209.606 63.533 C 198.632 62.612,189.256 61.770,188.771 61.661 C 188.063 61.502,186.352 57.868,180.084 43.211 C 175.792 33.173,171.795 24.315,171.203 23.527 C 169.878 21.764,166.341 20.057,164.053 20.076 C 163.115 20.084,161.579 20.362,160.640 20.695 M164.998 28.693 C 165.222 28.987,168.903 37.406,173.178 47.403 C 181.314 66.434,181.732 67.190,185.065 68.869 C 186.104 69.392,191.482 69.995,206.611 71.282 C 217.700 72.226,227.013 73.079,227.307 73.179 C 227.600 73.278,227.824 73.702,227.805 74.120 C 227.785 74.570,221.540 80.186,212.489 87.893 C 204.084 95.051,196.767 101.549,196.228 102.333 C 194.283 105.166,194.486 106.756,199.435 127.491 C 201.916 137.889,203.947 146.679,203.947 147.025 C 203.947 147.370,203.659 147.764,203.307 147.899 C 202.923 148.046,195.541 143.905,184.894 137.569 C 168.780 127.979,166.912 126.975,164.867 126.806 C 163.626 126.703,162.025 126.823,161.309 127.073 C 160.593 127.322,152.213 132.160,142.688 137.822 C 133.058 143.546,125.101 148.014,124.765 147.885 C 124.432 147.758,124.158 147.311,124.156 146.893 C 124.154 146.475,126.197 137.479,128.696 126.902 C 133.576 106.246,133.670 105.512,131.841 102.504 C 131.386 101.755,124.335 95.449,116.173 88.490 C 108.011 81.531,100.988 75.446,100.567 74.967 C 99.940 74.255,99.901 73.998,100.354 73.556 C 100.728 73.190,107.385 72.466,120.977 71.313 C 142.971 69.448,143.684 69.313,146.036 66.548 C 146.964 65.459,149.980 58.925,155.271 46.545 C 163.211 27.970,163.723 27.030,164.998 28.693 M49.177 145.177 C 21.396 172.958,20.053 174.371,20.053 175.839 C 20.053 179.135,23.349 180.997,26.118 179.265 C 27.887 178.157,82.925 123.022,83.619 121.662 C 84.889 119.171,82.788 116.053,79.839 116.053 C 78.371 116.053,76.958 117.396,49.177 145.177 M94.720 172.224 C 93.657 172.625,36.659 229.680,36.221 230.781 C 35.694 232.105,36.446 234.445,37.674 235.305 C 38.178 235.658,39.266 235.947,40.091 235.947 C 41.510 235.947,43.203 234.336,70.717 206.823 C 99.717 177.823,99.840 177.692,99.840 175.964 C 99.840 174.705,99.571 173.976,98.859 173.308 C 97.832 172.342,95.809 171.813,94.720 172.224 M137.515 201.048 C 117.417 221.138,108.324 230.508,108.148 231.310 C 107.589 233.852,110.281 236.345,112.951 235.759 C 113.830 235.566,122.237 227.422,143.059 206.591 C 169.612 180.028,171.947 177.578,171.947 176.285 C 171.947 175.511,171.749 174.508,171.507 174.056 C 170.970 173.053,168.922 171.947,167.602 171.947 C 166.882 171.947,159.038 179.533,137.515 201.048 " stroke="none" fill-rule="evenodd"></path></svg>