<svg fill="currentColor" viewBox="0 0 256 256" xmlns="http://www.w3.org/2000/svg"><path d="M37.333 44.345 C 33.767 45.223,30.543 47.891,29.047 51.200 C 28.184 53.107,28.179 53.615,28.174 128.000 L 28.168 202.880 29.169 205.030 C 30.463 207.808,33.610 210.585,36.406 211.415 C 38.283 211.973,49.859 212.053,128.000 212.053 C 206.525 212.053,217.710 211.975,219.614 211.409 C 222.489 210.555,225.704 207.651,227.035 204.706 L 228.053 202.453 228.053 128.213 C 228.053 56.417,228.027 53.904,227.246 51.881 C 226.207 49.187,223.976 46.737,221.254 45.300 L 219.093 44.160 128.853 44.095 C 79.221 44.059,38.037 44.171,37.333 44.345 M218.247 52.737 C 218.821 53.113,219.485 54.121,219.723 54.977 C 220.328 57.154,220.319 198.876,219.714 201.054 C 218.837 204.214,227.331 203.947,127.886 203.947 L 38.361 203.947 37.314 202.899 L 36.267 201.852 36.267 127.999 L 36.267 54.146 37.396 53.100 L 38.525 52.053 127.864 52.053 C 209.105 52.053,217.298 52.115,218.247 52.737 M85.238 85.363 L 83.928 86.673 84.185 91.016 C 84.808 101.528,89.387 111.527,97.078 119.168 C 102.441 124.497,108.503 128.050,116.267 130.416 C 119.861 131.512,120.612 131.587,128.000 131.587 C 135.361 131.587,136.152 131.509,139.733 130.427 C 158.063 124.894,170.706 109.360,171.810 91.016 L 172.072 86.673 170.762 85.363 C 169.861 84.462,169.038 84.053,168.124 84.053 C 165.306 84.053,163.840 86.125,163.840 90.108 C 163.840 93.254,162.668 98.388,161.130 101.975 C 156.660 112.405,147.886 119.944,136.747 122.927 C 134.119 123.631,132.105 123.842,128.000 123.842 C 123.895 123.842,121.881 123.631,119.253 122.927 C 108.114 119.944,99.340 112.405,94.870 101.975 C 93.332 98.388,92.160 93.254,92.160 90.108 C 92.160 86.125,90.694 84.053,87.876 84.053 C 86.962 84.053,86.139 84.462,85.238 85.363 " stroke="none" fill-rule="evenodd"></path></svg>