<svg fill="currentColor" viewBox="0 0 256 256" xmlns="http://www.w3.org/2000/svg"><path d="M53.101 37.314 L 52.053 38.361 52.053 127.886 C 52.053 226.777,51.816 218.740,54.767 219.713 C 56.436 220.265,57.830 219.860,59.093 218.458 C 59.932 217.527,59.949 216.829,60.060 178.729 C 60.122 157.399,60.272 139.947,60.393 139.947 C 60.515 139.947,88.592 157.461,122.787 178.867 C 156.982 200.273,185.920 218.260,187.093 218.839 C 191.625 221.074,197.772 219.752,201.139 215.818 C 204.165 212.282,203.947 219.123,203.947 128.000 C 203.947 36.903,204.164 43.716,201.149 40.194 C 197.854 36.344,191.768 35.081,187.093 37.277 C 185.920 37.829,157.120 55.704,123.093 77.001 C 89.067 98.297,60.990 115.815,60.700 115.930 C 60.285 116.095,60.149 107.903,60.060 77.304 L 59.947 38.469 58.912 37.368 C 57.477 35.840,54.601 35.814,53.101 37.314 M194.880 45.463 L 195.840 46.554 195.840 128.057 L 195.840 209.559 194.540 210.859 C 193.457 211.942,193.002 212.120,191.810 211.927 C 190.307 211.683,61.732 131.524,60.729 130.206 C 59.744 128.911,60.037 126.567,61.333 125.367 C 62.305 124.468,186.937 46.309,190.293 44.494 C 191.731 43.716,193.711 44.135,194.880 45.463 " stroke="none" fill-rule="evenodd"></path></svg>