<svg fill="currentColor" viewBox="0 0 256 256" xmlns="http://www.w3.org/2000/svg"><path d="M58.538 37.371 C 57.319 37.978,55.660 39.249,54.851 40.194 C 51.836 43.716,52.053 36.903,52.053 128.000 C 52.053 219.123,51.835 212.282,54.861 215.818 C 58.228 219.752,64.376 221.074,68.907 218.838 C 70.080 218.259,99.018 200.272,133.213 178.866 C 167.408 157.460,195.485 139.947,195.606 139.947 C 195.727 139.947,195.878 157.399,195.940 178.729 C 196.051 216.829,196.068 217.527,196.907 218.458 C 198.170 219.860,199.564 220.265,201.233 219.713 C 204.184 218.740,203.947 226.777,203.947 127.886 L 203.947 38.361 202.899 37.314 C 201.399 35.814,198.523 35.840,197.088 37.368 L 196.053 38.469 195.940 77.304 C 195.851 107.902,195.715 116.095,195.300 115.931 C 195.010 115.817,166.933 98.298,132.907 77.001 C 98.880 55.704,70.080 37.829,68.907 37.277 C 65.824 35.829,61.555 35.868,58.538 37.371 M130.187 84.713 C 165.688 106.919,194.976 125.406,195.273 125.797 C 195.969 126.712,195.968 129.289,195.272 130.205 C 194.271 131.521,65.689 211.683,64.188 211.927 C 62.998 212.120,62.542 211.941,61.460 210.859 L 60.160 209.559 60.160 128.128 C 60.160 54.025,60.222 46.608,60.846 45.718 C 61.711 44.483,63.035 43.916,64.501 44.154 C 65.128 44.256,94.687 62.507,130.187 84.713 " stroke="none" fill-rule="evenodd"></path></svg>