<svg fill="currentColor" viewBox="0 0 256 256" xmlns="http://www.w3.org/2000/svg"><path d="M98.347 52.686 C 88.393 54.881,80.908 61.458,77.622 70.898 C 76.942 72.853,76.382 74.789,76.379 75.200 C 76.374 75.900,75.193 75.947,57.607 75.947 L 38.840 75.947 37.468 77.173 C 35.538 78.897,35.538 81.103,37.468 82.827 L 38.840 84.053 57.508 84.053 L 76.175 84.053 76.915 86.873 C 80.815 101.744,96.016 110.854,110.673 107.105 C 115.927 105.762,119.581 103.619,123.744 99.439 C 127.756 95.411,130.058 91.470,131.114 86.821 L 131.694 84.267 174.637 84.053 L 217.581 83.840 218.742 82.678 C 220.332 81.089,220.332 78.911,218.742 77.322 L 217.581 76.160 174.637 75.947 L 131.694 75.733 131.114 73.179 C 129.477 65.972,123.422 58.488,116.480 55.092 C 110.598 52.215,104.283 51.377,98.347 52.686 M112.012 61.810 C 117.318 64.293,120.859 68.066,122.736 73.238 C 124.085 76.953,124.128 82.718,122.837 86.542 C 121.697 89.917,118.897 93.730,115.890 96.000 C 108.299 101.731,97.046 101.041,90.276 94.431 C 85.029 89.308,83.016 82.321,84.713 75.122 C 86.259 68.563,91.326 63.180,98.047 60.957 C 99.948 60.328,101.420 60.184,104.783 60.296 C 108.564 60.423,109.441 60.606,112.012 61.810 M162.347 148.686 C 152.393 150.881,144.908 157.458,141.622 166.898 C 140.942 168.853,140.382 170.789,140.379 171.200 C 140.374 171.907,137.669 171.947,89.607 171.947 L 38.840 171.947 37.468 173.173 C 35.538 174.897,35.538 177.103,37.468 178.827 L 38.840 180.053 89.508 180.053 L 140.175 180.053 140.915 182.873 C 144.815 197.744,160.016 206.854,174.673 203.105 C 179.927 201.762,183.581 199.619,187.744 195.439 C 191.756 191.411,194.059 187.469,195.113 182.821 L 195.693 180.267 206.638 180.053 L 217.582 179.840 218.743 178.678 C 220.331 177.089,220.331 174.911,218.743 173.322 L 217.582 172.160 206.638 171.947 L 195.693 171.733 195.113 169.179 C 193.478 161.974,187.422 154.488,180.480 151.092 C 174.598 148.215,168.283 147.377,162.347 148.686 M176.012 157.810 C 181.318 160.293,184.859 164.066,186.736 169.238 C 188.085 172.953,188.128 178.718,186.837 182.542 C 185.697 185.917,182.897 189.730,179.890 192.000 C 172.299 197.731,161.046 197.041,154.276 190.431 C 149.029 185.308,147.016 178.321,148.713 171.122 C 150.259 164.563,155.326 159.180,162.047 156.957 C 163.948 156.328,165.420 156.184,168.783 156.296 C 172.564 156.423,173.441 156.606,176.012 157.810 " stroke="none" fill-rule="evenodd"></path></svg>