<svg fill="currentColor" viewBox="0 0 256 256" xmlns="http://www.w3.org/2000/svg"><path d="M21.301 53.301 L 20.053 54.548 20.053 128.000 L 20.053 201.452 21.301 202.699 C 22.633 204.032,24.498 204.338,26.091 203.486 C 28.244 202.334,28.160 205.382,28.160 128.077 C 28.160 77.796,28.021 55.623,27.701 54.705 C 26.724 51.901,23.424 51.177,21.301 53.301 M59.850 52.759 C 57.059 53.748,53.967 56.784,52.931 59.554 C 52.059 61.883,52.053 62.343,52.053 128.011 C 52.053 192.810,52.070 194.168,52.896 196.342 C 54.009 199.272,56.747 202.019,59.629 203.097 C 61.859 203.932,63.049 203.947,128.000 203.947 C 192.951 203.947,194.141 203.932,196.371 203.097 C 199.253 202.019,201.991 199.272,203.104 196.342 C 203.930 194.168,203.947 192.810,203.947 128.011 C 203.947 62.343,203.941 61.883,203.069 59.554 C 202.449 57.896,201.574 56.654,200.080 55.311 C 196.157 51.783,202.118 52.049,127.817 52.087 C 70.227 52.116,61.420 52.203,59.850 52.759 M229.675 52.809 C 229.159 53.215,228.535 54.087,228.289 54.748 C 227.981 55.570,227.840 78.678,227.840 128.041 C 227.840 205.384,227.756 202.333,229.909 203.486 C 231.502 204.338,233.367 204.032,234.699 202.699 L 235.947 201.452 235.947 128.000 L 235.947 54.548 234.699 53.301 C 233.247 51.848,231.159 51.644,229.675 52.809 M194.793 61.207 L 195.840 62.255 195.840 127.886 C 195.840 200.794,196.089 194.949,192.947 195.821 C 190.745 196.433,65.255 196.433,63.053 195.821 C 59.911 194.949,60.160 200.794,60.160 127.886 L 60.160 62.255 61.207 61.207 L 62.255 60.160 128.000 60.160 L 193.745 60.160 194.793 61.207 " stroke="none" fill-rule="evenodd"></path></svg>