<svg fill="currentColor" viewBox="0 0 256 256" xmlns="http://www.w3.org/2000/svg"><path d="M118.613 28.464 C 110.565 29.114,98.652 32.003,90.782 35.214 C 59.612 47.931,37.421 74.312,30.138 107.307 C 27.496 119.279,27.496 136.721,30.138 148.693 C 34.441 168.185,43.446 184.693,57.377 198.623 C 71.307 212.554,87.815 221.559,107.307 225.862 C 119.279 228.504,136.721 228.504,148.693 225.862 C 168.098 221.579,184.802 212.474,198.638 198.638 C 214.932 182.343,224.819 161.762,227.445 138.671 C 228.165 132.336,227.709 117.227,226.621 111.360 C 223.614 95.153,217.576 81.024,208.365 68.641 C 191.765 46.323,167.094 32.009,139.708 28.805 C 134.728 28.223,123.794 28.046,118.613 28.464 M141.450 37.088 C 151.293 38.536,159.191 40.985,168.320 45.421 C 195.814 58.779,214.837 85.062,219.065 115.535 C 219.837 121.096,219.960 133.911,219.290 138.956 C 216.572 159.430,208.181 177.095,194.306 191.550 C 186.556 199.624,178.023 205.880,168.394 210.544 C 146.182 221.305,122.141 222.924,98.987 215.218 C 75.515 207.406,56.191 190.487,45.421 168.320 C 38.959 155.019,36.271 143.174,36.271 128.000 C 36.271 112.826,38.959 100.981,45.421 87.680 C 58.548 60.660,84.406 41.633,114.133 37.120 C 121.418 36.014,134.048 35.999,141.450 37.088 M88.049 101.085 C 83.745 103.710,82.772 109.467,86.025 113.067 C 89.828 117.277,95.997 116.776,98.777 112.032 C 99.934 110.058,100.184 107.207,99.386 105.094 C 98.830 103.623,97.035 101.677,95.488 100.869 C 93.780 99.977,89.671 100.096,88.049 101.085 M149.301 105.354 C 147.899 106.755,147.716 108.189,148.696 110.085 C 149.742 112.107,151.183 112.288,165.049 112.137 L 177.565 112.000 178.855 110.555 C 179.945 109.335,180.108 108.869,179.901 107.568 C 179.757 106.663,179.199 105.630,178.551 105.067 C 177.455 104.115,177.332 104.107,163.997 104.107 L 150.548 104.107 149.301 105.354 M86.366 148.649 C 84.817 149.335,83.830 151.371,84.245 153.024 C 84.750 155.037,89.691 161.763,93.440 165.541 C 100.914 173.074,110.289 177.861,120.617 179.418 C 125.912 180.216,130.088 180.216,135.383 179.418 C 145.725 177.859,155.082 173.076,162.590 165.512 C 167.433 160.633,171.952 153.996,171.949 151.767 C 171.946 149.621,170.437 148.053,168.374 148.053 C 166.041 148.053,165.649 148.366,163.110 152.267 C 160.257 156.648,153.154 163.858,149.677 165.901 C 145.609 168.291,140.538 170.274,136.193 171.173 C 130.860 172.277,122.715 172.073,117.547 170.707 C 113.385 169.607,107.831 167.002,104.351 164.517 C 100.981 162.111,95.870 156.732,93.356 152.945 C 92.260 151.294,91.014 149.629,90.588 149.245 C 89.446 148.216,87.853 147.991,86.366 148.649 " stroke="none" fill-rule="evenodd"></path></svg>