<svg fill="currentColor" viewBox="0 0 256 256" xmlns="http://www.w3.org/2000/svg"><path d="M116.693 28.629 C 71.782 34.067,36.341 68.193,29.190 112.887 C 28.256 118.727,27.923 131.938,28.560 137.915 C 31.827 168.578,48.394 195.538,74.240 212.250 C 83.568 218.281,95.710 223.283,106.880 225.696 C 122.634 229.100,141.510 228.457,155.733 224.033 L 158.507 223.170 190.989 190.625 L 223.470 158.080 224.367 154.667 C 226.958 144.805,227.840 137.990,227.840 127.825 C 227.840 101.400,217.473 76.295,198.847 57.615 C 183.657 42.381,165.328 33.004,143.360 29.227 C 138.487 28.390,121.768 28.014,116.693 28.629 M136.779 36.720 C 170.317 39.984,199.251 61.064,212.459 91.858 C 217.571 103.775,219.773 114.679,219.758 128.000 C 219.748 137.199,219.087 142.923,217.121 150.827 L 216.272 154.240 185.273 185.264 L 154.274 216.289 149.749 217.370 C 141.753 219.282,136.868 219.855,128.427 219.870 C 116.763 219.891,107.253 218.268,96.853 214.485 C 59.342 200.837,34.749 164.314,36.412 124.725 C 37.439 100.257,47.086 78.804,64.684 61.852 C 71.994 54.809,78.527 50.265,87.996 45.636 C 103.152 38.226,120.213 35.108,136.779 36.720 M88.049 101.085 C 83.745 103.710,82.772 109.467,86.025 113.067 C 89.828 117.277,95.997 116.776,98.777 112.032 C 99.934 110.058,100.184 107.207,99.386 105.094 C 98.830 103.623,97.035 101.677,95.488 100.869 C 93.780 99.977,89.671 100.096,88.049 101.085 M160.213 101.065 C 156.202 103.556,154.949 108.151,157.223 112.032 C 160.003 116.776,166.172 117.277,169.975 113.067 C 173.228 109.467,172.255 103.710,167.951 101.085 C 166.135 99.978,161.980 99.967,160.213 101.065 M86.366 148.649 C 84.817 149.335,83.830 151.371,84.245 153.024 C 84.750 155.037,89.691 161.763,93.440 165.541 C 100.914 173.074,110.289 177.861,120.617 179.418 C 125.912 180.216,130.088 180.216,135.383 179.418 C 145.725 177.859,155.082 173.076,162.590 165.512 C 167.433 160.633,171.952 153.996,171.949 151.767 C 171.946 149.621,170.437 148.053,168.374 148.053 C 166.041 148.053,165.649 148.366,163.110 152.267 C 160.257 156.648,153.154 163.858,149.677 165.901 C 145.609 168.291,140.538 170.274,136.193 171.173 C 130.860 172.277,122.715 172.073,117.547 170.707 C 113.385 169.607,107.831 167.002,104.351 164.517 C 100.981 162.111,95.870 156.732,93.356 152.945 C 92.260 151.294,91.014 149.629,90.588 149.245 C 89.446 148.216,87.853 147.991,86.366 148.649 " stroke="none" fill-rule="evenodd"></path></svg>