<svg fill="currentColor" viewBox="0 0 256 256" xmlns="http://www.w3.org/2000/svg"><path d="M118.613 28.464 C 110.565 29.114,98.652 32.003,90.782 35.214 C 59.612 47.931,37.421 74.312,30.138 107.307 C 27.496 119.279,27.496 136.721,30.138 148.693 C 34.441 168.185,43.446 184.693,57.377 198.623 C 71.307 212.554,87.815 221.559,107.307 225.862 C 119.279 228.504,136.721 228.504,148.693 225.862 C 168.098 221.579,184.802 212.474,198.638 198.638 C 214.932 182.343,224.819 161.762,227.445 138.671 C 228.165 132.336,227.709 117.227,226.621 111.360 C 223.614 95.153,217.576 81.024,208.365 68.641 C 191.765 46.323,167.094 32.009,139.708 28.805 C 134.728 28.223,123.794 28.046,118.613 28.464 M141.450 37.088 C 151.293 38.536,159.191 40.985,168.320 45.421 C 195.814 58.779,214.837 85.062,219.065 115.535 C 219.837 121.096,219.960 133.911,219.290 138.956 C 216.572 159.430,208.181 177.095,194.306 191.550 C 186.556 199.624,178.023 205.880,168.394 210.544 C 146.182 221.305,122.141 222.924,98.987 215.218 C 75.515 207.406,56.191 190.487,45.421 168.320 C 38.959 155.019,36.271 143.174,36.271 128.000 C 36.271 112.826,38.959 100.981,45.421 87.680 C 58.548 60.660,84.406 41.633,114.133 37.120 C 121.418 36.014,134.048 35.999,141.450 37.088 M88.049 101.085 C 83.745 103.710,82.772 109.467,86.025 113.067 C 89.828 117.277,95.997 116.776,98.777 112.032 C 99.934 110.058,100.184 107.207,99.386 105.094 C 98.830 103.623,97.035 101.677,95.488 100.869 C 93.780 99.977,89.671 100.096,88.049 101.085 M160.213 101.065 C 156.202 103.556,154.949 108.151,157.223 112.032 C 160.003 116.776,166.172 117.277,169.975 113.067 C 173.228 109.467,172.255 103.710,167.951 101.085 C 166.135 99.978,161.980 99.967,160.213 101.065 M93.184 149.284 C 90.978 150.916,77.053 165.055,76.389 166.338 C 75.110 168.808,77.207 171.947,80.136 171.947 C 81.523 171.947,82.249 171.351,88.825 164.816 L 96.000 157.686 103.175 164.816 C 109.974 171.573,110.437 171.947,112.000 171.947 C 113.563 171.947,114.026 171.573,120.825 164.816 L 128.000 157.686 135.175 164.816 C 141.974 171.573,142.437 171.947,144.000 171.947 C 145.563 171.947,146.026 171.573,152.825 164.816 L 160.000 157.686 167.175 164.816 C 173.751 171.351,174.477 171.947,175.864 171.947 C 179.130 171.947,180.986 168.645,179.273 165.882 C 177.824 163.545,162.442 148.574,161.159 148.252 C 158.906 147.686,157.769 148.465,150.849 155.313 L 144.005 162.085 137.152 155.312 C 130.234 148.473,129.089 147.688,126.850 148.249 C 126.164 148.422,122.927 151.279,118.834 155.325 L 111.967 162.113 106.224 156.318 C 97.464 147.481,96.399 146.906,93.184 149.284 " stroke="none" fill-rule="evenodd"></path></svg>