<svg fill="currentColor" viewBox="0 0 256 256" xmlns="http://www.w3.org/2000/svg"><path d="M118.613 28.464 C 110.565 29.114,98.652 32.003,90.782 35.214 C 59.612 47.931,37.421 74.312,30.138 107.307 C 27.496 119.279,27.496 136.721,30.138 148.693 C 34.441 168.185,43.446 184.693,57.377 198.623 C 71.307 212.554,87.815 221.559,107.307 225.862 C 119.279 228.504,136.721 228.504,148.693 225.862 C 168.098 221.579,184.802 212.474,198.638 198.638 C 214.932 182.343,224.819 161.762,227.445 138.671 C 228.165 132.336,227.709 117.227,226.621 111.360 C 223.614 95.153,217.576 81.024,208.365 68.641 C 191.765 46.323,167.094 32.009,139.708 28.805 C 134.728 28.223,123.794 28.046,118.613 28.464 M140.373 36.953 C 145.262 37.598,153.553 39.373,154.712 40.021 C 155.145 40.264,151.424 43.049,141.888 49.621 C 134.499 54.714,128.252 58.880,128.006 58.880 C 127.759 58.880,121.506 54.716,114.109 49.626 C 104.447 42.977,100.835 40.275,101.279 40.026 C 102.176 39.524,110.154 37.704,114.133 37.093 C 121.831 35.912,132.079 35.857,140.373 36.953 M107.960 55.099 L 124.175 66.252 124.061 76.106 L 123.947 85.960 105.813 98.439 C 95.840 105.302,87.511 110.921,87.303 110.925 C 86.711 110.938,68.267 104.945,68.267 104.740 C 68.267 104.539,58.133 70.091,57.819 69.224 C 57.537 68.445,65.215 60.616,70.183 56.618 C 72.532 54.727,76.060 52.143,78.024 50.875 C 82.246 48.149,90.175 43.947,91.097 43.947 C 91.453 43.947,99.041 48.965,107.960 55.099 M170.072 46.307 C 179.121 51.031,187.282 57.131,194.210 64.349 L 198.331 68.643 196.459 74.962 C 195.430 78.437,193.014 86.604,191.091 93.111 L 187.595 104.941 178.231 107.965 C 173.080 109.628,168.637 110.901,168.357 110.793 C 168.077 110.686,159.842 105.087,150.057 98.351 L 132.267 86.104 132.271 76.012 L 132.276 65.920 148.165 54.962 C 156.903 48.935,164.390 43.991,164.802 43.975 C 165.214 43.959,167.585 45.009,170.072 46.307 M56.120 91.627 C 58.460 99.547,60.373 106.185,60.373 106.379 C 60.373 106.573,54.997 110.850,48.427 115.885 L 36.480 125.039 36.340 123.000 C 35.823 115.474,39.829 99.318,44.812 88.834 C 47.051 84.123,51.061 77.227,51.562 77.227 C 51.730 77.227,53.781 83.707,56.120 91.627 M207.169 81.299 C 212.110 89.696,215.722 98.810,217.754 108.011 C 219.040 113.835,219.852 120.213,219.660 122.999 L 219.520 125.037 207.445 115.788 C 200.696 110.618,195.457 106.315,195.566 106.030 C 195.674 105.751,197.647 99.155,199.951 91.374 C 202.255 83.593,204.282 77.227,204.456 77.227 C 204.630 77.227,205.851 79.059,207.169 81.299 M145.527 104.916 C 154.778 111.274,162.508 116.717,162.705 117.013 C 162.929 117.349,160.592 124.752,156.474 136.749 L 149.885 155.947 128.000 155.947 L 106.115 155.947 99.526 136.749 C 95.406 124.747,93.071 117.349,93.295 117.012 C 93.917 116.078,127.764 93.003,128.247 93.184 C 128.500 93.279,136.276 98.559,145.527 104.916 M75.529 115.658 L 84.848 118.677 85.460 120.458 C 85.796 121.438,88.882 130.411,92.316 140.397 C 95.750 150.383,98.560 158.803,98.560 159.107 C 98.560 159.412,96.016 163.188,92.907 167.499 L 87.253 175.338 68.058 175.242 L 48.863 175.147 45.812 169.084 C 41.173 159.866,37.850 148.877,36.734 139.067 C 36.429 136.392,36.454 135.338,36.829 134.966 C 37.595 134.206,65.785 112.640,66.013 112.640 C 66.121 112.640,70.404 113.998,75.529 115.658 M205.142 124.120 L 219.712 135.291 219.483 137.299 C 218.148 149.015,215.171 159.181,210.162 169.135 L 207.137 175.147 187.942 175.242 L 168.747 175.338 163.093 167.499 C 159.984 163.188,157.441 159.401,157.441 159.084 C 157.443 158.481,170.929 119.062,171.240 118.751 C 171.676 118.315,189.298 112.722,189.899 112.828 C 190.269 112.894,197.128 117.975,205.142 124.120 M156.314 171.776 C 159.313 175.906,161.868 179.551,161.992 179.874 C 162.116 180.198,159.271 188.811,155.669 199.014 L 149.120 217.565 146.987 218.031 C 135.747 220.486,120.253 220.486,109.013 218.031 L 106.880 217.565 100.331 199.014 C 96.729 188.811,93.884 180.198,94.008 179.874 C 94.132 179.551,96.687 175.906,99.686 171.776 L 105.139 164.267 128.000 164.267 L 150.861 164.267 156.314 171.776 M91.839 198.904 C 94.831 207.389,97.207 214.402,97.120 214.489 C 96.551 215.058,85.525 209.820,79.676 206.202 C 71.682 201.257,63.098 193.796,57.200 186.665 L 54.554 183.467 70.477 183.472 L 86.400 183.478 91.839 198.904 M200.960 183.739 C 200.960 184.407,195.842 190.165,191.665 194.197 C 184.750 200.872,177.406 206.100,169.029 210.312 C 165.190 212.242,159.128 214.737,158.880 214.489 C 158.793 214.402,161.169 207.389,164.161 198.904 L 169.600 183.478 185.280 183.472 C 193.904 183.469,200.960 183.589,200.960 183.739 " stroke="none" fill-rule="evenodd"></path></svg>