<svg fill="currentColor" viewBox="0 0 256 256" xmlns="http://www.w3.org/2000/svg"><path d="M181.973 44.759 C 181.269 45.204,171.616 54.665,160.522 65.784 C 138.232 88.123,138.663 87.582,140.970 90.324 C 142.280 91.881,143.703 92.331,145.357 91.710 C 146.019 91.462,154.096 83.737,163.307 74.544 L 180.053 57.828 180.053 101.637 L 180.053 145.446 181.013 146.551 C 181.577 147.199,182.610 147.757,183.515 147.901 C 184.816 148.108,185.281 147.945,186.501 146.855 L 187.947 145.563 188.059 101.702 L 188.172 57.840 205.126 74.759 C 215.926 85.538,222.489 91.779,223.207 91.954 C 224.531 92.277,226.748 91.271,227.401 90.050 C 227.642 89.599,227.840 88.506,227.840 87.621 C 227.840 86.069,227.142 85.312,208.107 66.213 C 197.253 55.323,187.625 45.858,186.709 45.180 C 184.765 43.739,183.732 43.647,181.973 44.759 M45.194 61.407 C 43.539 63.062,43.538 64.809,45.192 66.660 L 46.437 68.053 75.947 68.053 L 105.457 68.053 106.702 66.660 C 108.270 64.905,108.315 63.224,106.842 61.473 L 105.737 60.160 76.089 60.160 L 46.441 60.160 45.194 61.407 M45.194 125.407 C 43.539 127.062,43.538 128.809,45.192 130.660 L 46.436 132.053 82.883 132.171 C 122.911 132.301,121.949 132.357,123.436 129.805 C 124.403 128.144,124.160 126.682,122.669 125.190 L 121.639 124.160 84.040 124.160 L 46.441 124.160 45.194 125.407 M45.194 189.407 C 43.539 191.062,43.538 192.809,45.192 194.660 L 46.437 196.053 114.899 196.166 C 169.198 196.256,183.698 196.168,184.992 195.740 C 188.125 194.703,188.952 191.473,186.669 189.190 L 185.639 188.160 116.040 188.160 L 46.441 188.160 45.194 189.407 " stroke="none" fill-rule="evenodd"></path></svg>