<svg fill="currentColor" viewBox="0 0 256 256" xmlns="http://www.w3.org/2000/svg"><path d="M142.127 44.542 C 140.993 45.171,139.985 46.740,139.962 47.915 C 139.937 49.191,141.094 51.003,142.281 51.544 C 142.897 51.824,144.500 52.053,145.845 52.053 C 151.368 52.053,159.622 53.505,165.724 55.549 C 175.783 58.918,184.096 64.142,192.028 72.077 C 202.984 83.035,209.473 96.179,211.425 111.360 C 211.902 115.067,212.533 115.926,215.366 116.715 C 219.927 117.987,220.796 118.301,223.745 119.747 C 242.410 128.900,249.428 151.591,239.230 169.810 C 236.777 174.191,231.034 180.103,226.706 182.702 C 222.631 185.149,216.910 187.105,212.065 187.709 C 209.807 187.991,196.053 188.160,175.445 188.160 L 142.441 188.160 141.194 189.407 C 139.539 191.062,139.538 192.809,141.191 194.660 L 142.436 196.053 173.511 196.178 C 205.998 196.308,213.419 196.052,218.955 194.610 C 233.471 190.831,245.021 180.026,249.793 165.760 C 256.681 145.168,247.149 122.394,227.580 112.687 C 225.728 111.769,223.112 110.676,221.765 110.259 C 219.482 109.552,219.299 109.398,219.062 107.977 C 216.694 93.814,210.225 80.201,200.802 69.555 C 190.294 57.684,174.939 48.784,159.573 45.657 C 155.578 44.844,147.553 43.933,144.640 43.962 C 143.819 43.970,142.688 44.231,142.127 44.542 M109.357 53.083 L 108.160 54.113 108.050 123.659 L 107.939 193.206 109.047 194.523 C 110.589 196.355,113.016 196.383,114.810 194.589 L 116.061 193.338 115.950 123.725 L 115.840 54.113 114.643 53.083 C 113.887 52.433,112.913 52.053,112.000 52.053 C 111.087 52.053,110.113 52.433,109.357 53.083 M77.357 85.083 L 76.160 86.113 76.048 139.658 L 75.937 193.203 77.046 194.521 C 78.590 196.356,81.015 196.384,82.811 194.588 L 84.063 193.336 83.952 139.724 L 83.840 86.113 82.643 85.083 C 81.887 84.433,80.913 84.053,80.000 84.053 C 79.087 84.053,78.113 84.433,77.357 85.083 M45.194 93.407 L 43.947 94.654 43.947 143.934 L 43.947 193.215 45.051 194.527 C 46.588 196.353,49.018 196.381,50.806 194.593 L 52.053 193.346 52.053 144.000 L 52.053 94.654 50.806 93.407 C 49.883 92.484,49.154 92.160,48.000 92.160 C 46.846 92.160,46.117 92.484,45.194 93.407 M13.357 117.083 L 12.160 118.113 12.160 144.000 L 12.160 169.887 13.357 170.917 C 14.113 171.567,15.087 171.947,16.000 171.947 C 16.913 171.947,17.887 171.567,18.643 170.917 L 19.840 169.887 19.840 144.000 L 19.840 118.113 18.643 117.083 C 17.887 116.433,16.913 116.053,16.000 116.053 C 15.087 116.053,14.113 116.433,13.357 117.083 " stroke="none" fill-rule="evenodd"></path></svg>