<svg fill="currentColor" viewBox="0 0 256 256" xmlns="http://www.w3.org/2000/svg"><path d="M174.127 12.542 C 172.104 13.663,171.978 14.430,171.962 25.707 L 171.947 36.267 161.047 36.267 L 150.148 36.267 149.101 37.314 C 147.587 38.827,147.671 41.070,149.301 42.699 L 150.548 43.947 161.247 43.947 L 171.947 43.947 171.947 54.581 L 171.947 65.215 173.051 66.527 C 174.588 68.353,177.018 68.381,178.806 66.593 L 180.053 65.346 180.053 54.646 L 180.053 43.947 190.753 43.947 L 201.452 43.947 202.699 42.699 C 204.329 41.070,204.413 38.827,202.899 37.314 L 201.852 36.267 190.953 36.267 L 180.053 36.267 180.053 25.833 C 180.053 14.564,179.895 13.608,177.858 12.555 C 176.416 11.809,175.456 11.806,174.127 12.542 M108.017 52.867 C 105.263 53.819,102.455 56.433,101.183 59.232 C 100.684 60.329,96.050 72.740,90.885 86.811 C 85.720 100.883,81.248 112.641,80.948 112.942 C 80.648 113.242,68.611 117.824,54.199 123.123 C 39.788 128.423,27.313 133.110,26.478 133.538 C 22.802 135.423,20.053 139.899,20.053 144.000 C 20.053 148.109,22.802 152.577,26.494 154.470 C 27.338 154.903,39.816 159.593,54.223 164.892 C 68.629 170.191,80.662 174.772,80.961 175.071 C 81.260 175.371,85.840 187.407,91.137 201.819 C 96.435 216.231,101.119 228.701,101.547 229.531 C 102.589 231.552,104.753 233.690,106.827 234.748 C 108.921 235.817,112.703 236.198,115.012 235.573 C 117.537 234.890,120.534 232.745,121.830 230.695 C 122.452 229.712,127.332 217.013,132.676 202.475 C 138.143 187.601,142.757 175.679,143.227 175.209 C 143.696 174.739,155.705 170.089,170.662 164.586 C 185.292 159.202,197.996 154.312,198.893 153.719 C 200.819 152.444,202.916 149.439,203.573 147.012 C 204.921 142.030,202.350 136.064,197.821 133.664 C 197.084 133.273,184.688 128.607,170.275 123.294 C 155.526 117.858,143.705 113.269,143.233 112.798 C 142.760 112.324,138.100 100.279,132.517 85.100 C 127.084 70.327,122.178 57.618,121.616 56.858 C 118.550 52.715,113.095 51.114,108.017 52.867 M114.505 61.120 C 115.304 61.843,117.996 68.705,125.421 88.935 C 131.177 104.619,135.721 116.372,136.344 117.189 C 136.931 117.959,138.055 119.080,138.842 119.680 C 139.701 120.335,151.000 124.705,167.097 130.609 C 195.789 141.131,195.840 141.155,195.840 144.000 C 195.840 146.848,195.794 146.870,167.085 157.402 C 151.144 163.250,139.673 167.686,138.830 168.329 C 138.050 168.924,136.931 170.041,136.344 170.811 C 135.721 171.628,131.177 183.381,125.421 199.065 C 114.977 227.523,114.831 227.840,112.161 227.840 C 110.252 227.840,109.235 227.116,108.366 225.137 C 107.937 224.160,103.429 212.043,98.348 198.211 C 93.267 184.379,88.849 172.556,88.529 171.939 C 87.918 170.758,85.104 168.038,83.771 167.340 C 83.340 167.114,71.083 162.568,56.533 157.238 C 36.790 150.005,29.836 147.281,29.120 146.496 C 27.448 144.667,27.981 141.777,30.199 140.641 C 30.838 140.314,42.976 135.778,57.173 130.561 C 71.371 125.344,83.371 120.883,83.840 120.647 C 85.099 120.016,87.878 117.283,88.537 116.029 C 88.852 115.429,93.234 103.717,98.275 90.003 C 109.275 60.077,108.687 61.567,109.799 60.789 C 111.132 59.855,113.276 60.006,114.505 61.120 M221.207 69.314 C 220.182 70.339,220.160 70.508,220.160 77.207 L 220.160 84.053 213.357 84.053 C 206.914 84.053,206.496 84.104,205.449 85.013 C 204.801 85.577,204.243 86.610,204.099 87.515 C 203.892 88.816,204.055 89.282,205.144 90.501 L 206.435 91.947 213.297 92.083 L 220.160 92.219 220.160 98.978 L 220.160 105.737 221.473 106.842 C 223.223 108.315,224.905 108.270,226.659 106.703 L 228.051 105.458 228.204 98.839 L 228.356 92.219 234.961 92.083 L 241.565 91.947 242.856 90.501 C 243.945 89.282,244.108 88.816,243.901 87.515 C 243.757 86.610,243.199 85.577,242.551 85.013 C 241.507 84.107,241.078 84.053,234.856 84.053 L 228.267 84.053 228.264 78.400 C 228.262 72.122,227.834 69.890,226.448 68.919 C 224.981 67.891,222.438 68.083,221.207 69.314 " stroke="none" fill-rule="evenodd"></path></svg>