<svg fill="currentColor" viewBox="0 0 256 256" xmlns="http://www.w3.org/2000/svg"><path d="M130.347 43.773 C 119.317 52.350,109.843 59.809,109.293 60.347 C 107.724 61.883,107.846 64.216,109.574 65.760 C 110.430 66.525,111.422 66.987,112.208 66.987 C 113.630 66.987,113.799 66.863,134.507 50.702 L 148.053 40.129 148.053 74.066 C 148.053 96.526,148.202 108.280,148.493 108.824 C 149.150 110.051,151.331 111.031,152.724 110.725 C 153.382 110.581,154.376 109.977,154.933 109.384 L 155.947 108.305 156.070 70.686 C 156.138 49.995,156.078 32.421,155.935 31.632 C 155.558 29.539,153.996 28.158,152.019 28.169 C 150.545 28.177,148.605 29.574,130.347 43.773 M46.243 36.516 C 44.816 37.220,43.947 38.662,43.947 40.326 C 43.947 41.567,44.497 42.202,65.192 64.853 L 80.981 82.133 79.850 83.078 L 78.720 84.023 54.369 84.038 C 26.864 84.055,27.632 83.973,23.920 87.311 C 22.426 88.654,21.551 89.896,20.931 91.554 C 20.072 93.848,20.053 94.634,20.053 128.011 C 20.053 160.946,20.082 162.201,20.896 164.342 C 22.009 167.272,24.747 170.019,27.629 171.097 C 29.798 171.909,30.982 171.947,54.219 171.947 L 78.540 171.947 114.470 199.893 C 152.543 229.507,151.487 228.773,154.045 227.404 C 155.948 226.385,155.936 226.566,156.160 195.121 L 156.373 165.175 180.621 191.921 C 194.620 207.363,205.484 218.997,206.325 219.447 C 208.183 220.443,210.257 219.869,211.323 218.064 C 212.178 216.618,212.224 215.615,211.497 214.306 C 210.385 212.306,50.941 37.159,49.642 36.511 C 48.006 35.694,47.908 35.694,46.243 36.516 M219.686 76.587 C 218.355 77.310,217.405 79.377,217.757 80.781 C 217.896 81.336,219.002 83.020,220.213 84.522 C 227.621 93.708,232.510 104.071,234.742 115.316 C 236.103 122.172,236.103 133.828,234.742 140.684 C 232.510 151.929,227.621 162.292,220.213 171.478 C 219.002 172.980,217.896 174.664,217.757 175.219 C 217.122 177.749,219.964 180.516,222.535 179.871 C 225.635 179.093,233.886 167.258,237.797 157.981 C 248.979 131.452,244.751 101.733,226.663 79.728 C 223.576 75.972,222.066 75.293,219.686 76.587 M117.360 122.256 L 148.008 155.947 148.031 185.917 L 148.053 215.888 116.078 191.037 L 84.102 166.187 84.078 128.068 L 84.053 89.950 85.013 89.150 C 85.541 88.710,86.139 88.399,86.342 88.458 C 86.545 88.517,100.503 103.726,117.360 122.256 M75.947 128.213 L 75.947 164.267 54.293 164.264 C 40.709 164.263,32.048 164.098,31.053 163.821 C 27.975 162.966,28.160 165.265,28.160 127.886 L 28.160 94.255 29.207 93.207 L 30.255 92.160 53.101 92.160 L 75.947 92.160 75.947 128.213 M189.404 104.014 C 187.387 105.817,187.561 107.563,190.099 110.981 C 195.310 117.999,197.106 126.753,195.013 134.937 C 194.033 138.770,193.045 140.813,190.182 144.924 C 188.925 146.730,188.053 148.448,188.053 149.119 C 188.053 151.506,189.805 153.173,192.312 153.173 C 194.472 153.173,198.875 147.507,201.213 141.721 C 203.242 136.698,203.719 134.082,203.719 128.000 C 203.719 123.843,203.512 121.483,202.974 119.518 C 201.320 113.475,198.734 108.493,195.392 104.909 C 193.036 102.383,191.489 102.152,189.404 104.014 " stroke="none" fill-rule="evenodd"></path></svg>