<svg fill="currentColor" viewBox="0 0 256 256" xmlns="http://www.w3.org/2000/svg"><path d="M125.207 29.207 L 124.160 30.255 124.160 48.000 L 124.160 65.745 125.207 66.793 C 126.438 68.024,128.981 68.215,130.448 67.187 C 132.074 66.049,132.262 64.057,132.262 48.000 C 132.262 31.943,132.074 29.951,130.448 28.813 C 128.981 27.785,126.438 27.976,125.207 29.207 M57.880 56.803 C 57.447 57.055,56.821 57.913,56.488 58.710 C 55.965 59.960,55.965 60.351,56.485 61.547 C 57.261 63.332,80.031 85.999,81.656 86.604 C 84.631 87.711,87.627 84.778,86.624 81.740 C 86.336 80.867,81.994 76.224,74.114 68.362 C 62.341 56.615,62.004 56.320,60.356 56.333 C 59.427 56.340,58.313 56.552,57.880 56.803 M29.207 125.207 C 27.976 126.438,27.785 128.981,28.813 130.448 C 29.951 132.074,31.943 132.262,48.000 132.262 C 64.057 132.262,66.049 132.074,67.187 130.448 C 68.215 128.981,68.024 126.438,66.793 125.207 L 65.745 124.160 48.000 124.160 L 30.255 124.160 29.207 125.207 M189.207 125.207 C 187.976 126.438,187.785 128.981,188.813 130.448 C 189.951 132.074,191.943 132.262,208.000 132.262 C 224.057 132.262,226.049 132.074,227.187 130.448 C 228.215 128.981,228.024 126.438,226.793 125.207 L 225.745 124.160 208.000 124.160 L 190.255 124.160 189.207 125.207 M81.707 169.449 C 79.926 169.925,56.896 192.977,56.371 194.810 C 55.523 197.764,58.515 200.698,61.313 199.657 C 62.697 199.142,85.503 176.592,86.455 174.796 C 87.242 173.311,86.908 171.507,85.631 170.352 C 84.440 169.275,83.322 169.018,81.707 169.449 M172.160 169.298 C 170.026 169.739,168.675 172.138,169.372 174.249 C 169.921 175.913,192.955 199.013,194.720 199.670 C 197.440 200.682,200.436 197.693,199.629 194.773 C 199.390 193.906,195.451 189.674,187.422 181.653 C 175.634 169.879,174.356 168.845,172.160 169.298 M125.207 189.207 L 124.160 190.255 124.160 208.000 L 124.160 225.745 125.207 226.793 C 126.438 228.024,128.981 228.215,130.448 227.187 C 132.074 226.049,132.262 224.057,132.262 208.000 C 132.262 191.943,132.074 189.951,130.448 188.813 C 128.981 187.785,126.438 187.976,125.207 189.207 " stroke="none" fill-rule="evenodd"></path></svg>