<svg fill="currentColor" viewBox="0 0 256 256" xmlns="http://www.w3.org/2000/svg"><path d="M70.400 68.276 C 37.663 86.975,13.785 100.870,13.074 101.634 C 12.055 102.728,11.894 103.193,12.100 104.460 C 12.235 105.293,12.688 106.305,13.106 106.707 C 13.525 107.109,39.285 121.952,70.351 139.692 C 107.223 160.747,127.240 171.947,128.000 171.947 C 128.760 171.947,148.777 160.747,185.649 139.692 C 216.715 121.952,242.475 107.109,242.894 106.707 C 244.128 105.520,244.286 103.237,243.226 101.890 C 242.674 101.189,220.420 88.220,186.121 68.614 C 141.498 43.106,129.568 36.460,128.213 36.357 C 126.641 36.238,122.097 38.746,70.400 68.276 M180.202 74.437 C 219.845 97.096,231.559 103.974,231.147 104.349 C 230.854 104.618,207.525 118.017,179.307 134.126 L 128.000 163.415 76.693 134.126 C 48.475 118.017,25.147 104.618,24.853 104.350 C 24.442 103.975,36.193 97.063,75.840 74.362 C 104.176 58.137,127.666 44.896,128.041 44.937 C 128.416 44.979,151.888 58.254,180.202 74.437 M13.783 140.781 C 12.097 141.810,11.555 143.928,12.509 145.762 C 13.444 147.558,125.792 211.790,128.000 211.790 C 129.196 211.790,140.747 205.358,186.027 179.476 C 217.120 161.704,242.808 146.835,243.112 146.434 C 244.659 144.394,243.956 141.573,241.622 140.460 C 240.482 139.917,239.921 139.870,238.949 140.237 C 238.272 140.492,213.118 154.759,183.050 171.941 C 150.715 190.418,128.085 203.102,127.657 202.988 C 127.259 202.882,102.187 188.655,71.942 171.371 C 41.697 154.088,16.545 139.947,16.049 139.948 C 15.553 139.949,14.533 140.324,13.783 140.781 " stroke="none" fill-rule="evenodd"></path></svg>