<svg fill="currentColor" viewBox="0 0 256 256" xmlns="http://www.w3.org/2000/svg"><path d="M113.920 20.717 C 112.395 21.044,109.515 22.112,107.520 23.089 C 104.594 24.523,103.192 25.576,100.260 28.540 C 96.247 32.598,94.302 35.943,92.939 41.134 C 91.267 47.502,91.302 47.730,100.693 91.584 C 105.387 113.500,109.227 131.620,109.227 131.849 C 109.227 132.118,97.758 132.268,77.120 132.271 L 45.013 132.275 42.880 133.271 C 40.252 134.497,37.927 137.009,36.860 139.774 C 36.106 141.731,36.053 143.317,36.053 164.267 C 36.053 186.098,36.076 186.715,36.946 188.587 C 38.893 192.776,41.934 195.074,46.507 195.812 C 50.362 196.435,205.638 196.435,209.493 195.812 C 214.066 195.074,217.107 192.776,219.054 188.587 C 219.924 186.715,219.947 186.098,219.947 164.267 C 219.947 143.317,219.894 141.731,219.140 139.774 C 218.073 137.009,215.748 134.497,213.120 133.271 L 210.987 132.275 178.880 132.271 C 158.242 132.268,146.773 132.118,146.773 131.849 C 146.773 131.620,150.613 113.500,155.307 91.584 C 162.740 56.871,163.840 51.251,163.840 47.975 C 163.840 37.119,158.073 27.875,148.267 23.011 C 143.022 20.410,140.596 20.064,127.787 20.095 C 119.992 20.113,115.869 20.298,113.920 20.717 M144.213 29.921 C 149.655 32.552,153.016 36.281,154.847 41.716 C 156.634 47.020,156.583 47.347,147.059 91.733 L 138.408 132.053 128.001 132.053 L 117.595 132.053 108.948 91.947 C 99.585 48.515,99.399 47.364,100.929 42.240 C 102.856 35.792,108.691 30.176,115.095 28.608 C 115.974 28.393,122.165 28.252,128.853 28.295 L 141.013 28.373 144.213 29.921 M209.719 140.456 C 212.051 141.519,212.053 141.544,212.053 164.239 L 212.053 185.160 210.808 186.553 L 209.563 187.947 128.000 187.947 L 46.437 187.947 45.192 186.553 L 43.947 185.160 43.962 164.153 C 43.978 141.669,43.972 141.737,46.127 140.542 C 47.552 139.752,207.989 139.668,209.719 140.456 M37.331 221.190 C 36.765 221.756,36.178 222.713,36.027 223.315 C 35.629 224.898,37.030 227.081,38.848 227.709 C 40.981 228.447,215.019 228.447,217.152 227.709 C 218.970 227.081,220.371 224.898,219.973 223.315 C 219.822 222.713,219.235 221.756,218.669 221.190 L 217.639 220.160 128.000 220.160 L 38.361 220.160 37.331 221.190 " stroke="none" fill-rule="evenodd"></path></svg>