<svg fill="currentColor" viewBox="0 0 256 256" xmlns="http://www.w3.org/2000/svg"><path d="M43.839 28.769 C 40.112 30.099,37.114 33.681,36.252 37.833 C 35.916 39.450,35.826 47.235,35.954 63.700 C 36.128 86.085,36.184 87.465,37.083 91.520 C 39.862 104.051,45.118 113.799,53.760 122.451 C 63.481 132.183,75.193 137.747,90.133 139.730 L 92.160 139.999 92.160 164.524 C 92.160 185.278,92.264 189.555,92.838 192.338 C 96.501 210.094,109.612 223.247,127.573 227.184 C 131.781 228.106,153.881 228.570,162.133 227.910 C 173.987 226.960,182.480 223.201,190.652 215.287 C 197.726 208.436,202.084 199.810,203.712 189.434 L 203.947 187.935 207.831 187.007 C 221.419 183.761,231.557 173.561,234.948 159.724 C 235.996 155.451,235.888 147.572,234.722 143.147 C 232.083 133.136,225.460 124.851,216.328 120.134 C 211.492 117.636,207.299 116.498,201.795 116.188 C 191.050 115.583,181.942 119.129,174.293 126.895 C 169.174 132.093,166.763 136.292,164.811 143.412 C 163.765 147.226,163.779 156.989,164.835 160.853 C 166.010 165.150,169.481 171.806,172.308 175.184 C 177.158 180.979,184.204 185.268,191.641 186.953 L 195.761 187.887 195.549 189.410 C 194.935 193.829,192.790 199.380,190.098 203.520 C 185.109 211.194,177.875 216.404,168.618 218.991 C 165.513 219.859,164.400 219.910,148.267 219.928 C 129.687 219.948,128.959 219.875,122.516 217.321 C 112.182 213.226,103.945 203.736,101.127 192.678 C 100.313 189.486,100.267 187.968,100.267 164.651 L 100.267 139.999 102.293 139.718 C 127.104 136.277,146.335 120.065,153.382 96.649 C 155.897 88.293,155.947 87.610,155.947 61.440 C 155.947 37.877,155.927 37.290,155.054 35.413 C 153.832 32.783,152.172 30.920,149.822 29.538 L 147.840 28.373 137.074 28.240 L 126.308 28.107 125.234 29.181 C 123.976 30.439,123.774 32.966,124.813 34.448 C 125.854 35.936,128.087 36.262,137.242 36.264 L 145.844 36.267 146.980 37.617 L 148.116 38.967 147.939 62.470 C 147.771 84.822,147.716 86.182,146.816 90.240 C 139.968 121.102,109.151 138.971,79.541 129.251 C 64.744 124.393,52.528 112.493,47.157 97.707 C 44.315 89.883,44.253 89.183,44.060 62.896 L 43.885 38.966 45.020 37.616 L 46.156 36.267 54.758 36.264 C 63.913 36.262,66.146 35.936,67.187 34.448 C 68.215 32.981,68.024 30.438,66.793 29.207 L 65.745 28.160 55.593 28.179 C 48.234 28.192,45.000 28.355,43.839 28.769 M208.996 125.553 C 213.358 127.096,216.419 129.027,219.696 132.304 C 224.856 137.464,227.362 143.117,227.736 150.438 C 228.162 158.779,225.541 165.721,219.772 171.536 C 214.058 177.297,207.963 179.839,199.893 179.828 C 194.729 179.821,192.033 179.204,187.479 176.983 C 180.614 173.636,175.068 166.808,172.967 159.116 C 171.844 155.005,171.939 148.299,173.179 144.213 C 176.029 134.820,183.513 127.544,192.945 124.996 C 197.476 123.772,204.668 124.022,208.996 125.553 M196.198 145.076 C 193.155 146.684,191.656 149.821,192.200 153.447 C 192.453 155.131,192.876 155.878,194.499 157.501 C 196.122 159.124,196.869 159.547,198.553 159.800 C 205.150 160.789,210.144 153.994,207.037 148.257 C 206.340 146.970,204.300 145.174,202.959 144.667 C 201.106 143.967,197.934 144.159,196.198 145.076 " stroke="none" fill-rule="evenodd"></path></svg>