<svg fill="currentColor" viewBox="0 0 256 256" xmlns="http://www.w3.org/2000/svg"><path d="M49.252 37.073 C 46.939 38.124,44.500 40.316,43.548 42.200 C 43.122 43.043,39.485 55.255,35.467 69.337 L 28.160 94.941 28.163 105.817 C 28.166 115.205,28.282 117.179,29.017 120.242 C 30.057 124.581,32.209 129.337,34.715 132.839 C 36.514 135.353,40.969 139.905,42.977 141.282 L 43.927 141.933 44.043 176.460 C 44.159 210.597,44.170 211.008,45.062 212.907 C 46.194 215.316,48.570 217.683,51.139 218.961 L 53.120 219.947 128.000 219.947 L 202.880 219.947 204.881 218.952 C 205.981 218.405,207.743 217.036,208.795 215.911 C 212.181 212.291,212.053 213.878,212.053 175.545 L 212.053 141.751 213.227 140.986 C 217.273 138.347,222.189 132.327,224.653 126.994 C 227.449 120.942,227.964 117.660,228.011 105.600 L 228.053 94.933 220.896 70.187 C 216.959 56.576,213.428 44.595,213.049 43.561 C 212.127 41.050,209.919 38.688,207.249 37.358 L 205.059 36.267 128.023 36.276 C 54.043 36.285,50.918 36.317,49.252 37.073 M203.908 44.567 C 204.567 44.907,205.319 45.723,205.580 46.380 C 206.127 47.761,217.966 89.189,218.322 90.970 L 218.560 92.160 128.000 92.160 L 37.440 92.160 37.678 90.970 C 38.034 89.192,49.873 47.762,50.419 46.383 C 51.433 43.824,46.358 43.982,127.915 43.964 C 192.508 43.949,202.873 44.031,203.908 44.567 M92.033 108.267 C 91.867 113.441,91.536 117.171,91.098 118.827 C 87.649 131.857,75.930 140.538,62.738 139.836 C 51.117 139.217,41.856 132.374,37.620 121.276 C 36.592 118.581,36.512 117.830,36.358 109.333 L 36.193 100.267 64.242 100.267 L 92.290 100.267 92.033 108.267 M156.033 108.267 C 155.867 113.441,155.536 117.171,155.098 118.827 C 151.649 131.857,139.930 140.538,126.738 139.836 C 115.117 139.217,105.856 132.374,101.620 121.276 C 100.592 118.581,100.512 117.830,100.358 109.333 L 100.193 100.267 128.242 100.267 L 156.290 100.267 156.033 108.267 M220.033 108.267 C 219.867 113.441,219.536 117.171,219.098 118.827 C 215.649 131.857,203.930 140.538,190.738 139.836 C 179.117 139.217,169.856 132.374,165.620 121.276 C 164.592 118.581,164.512 117.830,164.358 109.333 L 164.193 100.267 192.242 100.267 L 220.290 100.267 220.033 108.267 M98.133 131.907 C 100.187 135.119,105.050 140.037,108.040 141.927 C 111.204 143.925,114.550 145.431,118.458 146.613 C 121.698 147.593,123.035 147.760,127.787 147.779 C 133.681 147.803,136.175 147.337,141.653 145.192 C 147.806 142.782,155.005 136.775,158.338 131.269 C 159.135 129.954,159.883 128.878,160.000 128.878 C 160.117 128.878,160.865 129.954,161.662 131.269 C 163.386 134.118,167.847 138.944,170.674 141.018 C 173.757 143.282,179.004 145.752,183.040 146.840 C 187.923 148.156,196.227 148.176,200.853 146.882 L 203.947 146.018 203.947 177.732 L 203.947 209.446 202.917 210.643 L 201.887 211.840 128.000 211.840 L 54.113 211.840 53.083 210.643 L 52.053 209.446 52.053 177.732 L 52.053 146.018 55.147 146.882 C 59.382 148.066,68.075 148.143,72.250 147.033 C 79.029 145.230,84.019 142.493,88.707 138.007 C 90.489 136.303,92.811 133.557,93.867 131.906 C 94.923 130.254,95.883 128.903,96.000 128.903 C 96.117 128.903,97.077 130.255,98.133 131.907 " stroke="none" fill-rule="evenodd"></path></svg>