<svg fill="currentColor" viewBox="0 0 256 256" xmlns="http://www.w3.org/2000/svg"><path d="M133.088 37.368 L 132.053 38.469 132.053 60.016 L 132.053 81.563 133.499 82.855 C 134.719 83.945,135.184 84.108,136.485 83.901 C 137.390 83.757,138.423 83.199,138.987 82.551 C 139.945 81.447,139.947 81.421,139.947 65.582 L 139.947 49.719 145.740 55.473 C 157.125 66.781,162.293 74.742,165.214 85.471 C 166.039 88.501,166.163 89.999,166.153 96.853 C 166.143 104.045,166.041 105.120,165.006 108.944 C 161.352 122.447,151.346 135.569,139.082 142.940 C 135.943 144.827,133.969 145.694,126.997 148.251 C 125.404 148.835,124.794 149.328,124.352 150.385 C 123.682 151.990,123.938 153.438,125.126 154.751 C 126.523 156.297,127.914 156.315,132.298 154.848 C 151.559 148.398,167.475 131.023,172.872 110.553 C 174.572 104.104,175.014 94.645,173.915 88.201 C 172.563 80.266,169.583 72.776,165.000 65.792 C 161.398 60.303,158.870 57.299,151.734 50.027 L 145.769 43.947 161.607 43.947 C 177.421 43.947,177.448 43.945,178.551 42.987 C 179.192 42.429,179.757 41.390,179.897 40.510 C 180.093 39.277,179.923 38.738,178.991 37.630 L 177.844 36.267 155.983 36.267 L 134.122 36.267 133.088 37.368 M37.243 69.227 C 35.962 70.626,35.722 71.859,36.418 73.462 C 36.756 74.242,40.889 78.714,45.601 83.401 L 54.170 91.922 45.280 100.894 C 39.521 106.707,36.289 110.287,36.102 111.061 C 35.748 112.524,36.505 114.186,38.042 115.323 C 40.345 117.027,41.219 116.443,50.982 106.671 L 59.930 97.716 68.898 106.641 C 74.794 112.508,78.284 115.669,79.085 115.867 C 81.783 116.535,84.528 113.763,83.858 111.048 C 83.672 110.293,80.347 106.634,74.643 100.907 L 65.719 91.947 74.685 82.971 C 84.779 72.866,85.177 72.227,82.991 69.630 C 82.009 68.463,81.563 68.267,79.895 68.267 L 77.945 68.267 68.946 77.212 L 59.947 86.157 50.964 77.212 L 41.981 68.267 40.052 68.267 C 38.595 68.267,37.907 68.502,37.243 69.227 M61.227 156.800 C 49.414 159.439,40.166 168.309,37.043 179.995 C 35.808 184.618,35.810 191.495,37.047 195.937 C 41.070 210.380,53.277 219.865,67.840 219.864 C 73.437 219.864,77.097 219.012,82.133 216.538 C 90.631 212.363,96.724 204.764,99.043 195.446 C 100.294 190.422,100.028 183.058,98.418 178.133 C 94.946 167.514,85.575 159.075,74.694 156.768 C 71.204 156.029,64.610 156.044,61.227 156.800 M74.184 164.887 C 81.552 166.847,87.932 172.687,90.524 179.840 C 91.659 182.974,92.063 189.852,91.321 193.425 C 89.947 200.045,84.750 206.521,78.453 209.460 C 68.708 214.009,58.868 212.386,51.324 204.985 C 41.609 195.454,41.636 180.472,51.385 170.880 C 54.242 168.068,57.939 165.895,61.488 164.941 C 64.472 164.138,71.264 164.109,74.184 164.887 M173.009 165.630 C 170.823 168.227,171.221 168.866,181.315 178.971 L 190.281 187.947 181.357 196.907 C 175.653 202.634,172.328 206.293,172.142 207.048 C 171.472 209.763,174.217 212.535,176.915 211.867 C 177.716 211.669,181.206 208.508,187.102 202.641 L 196.070 193.716 205.018 202.671 C 214.781 212.443,215.655 213.027,217.958 211.323 C 219.495 210.186,220.252 208.524,219.898 207.061 C 219.711 206.287,216.479 202.707,210.720 196.894 L 201.830 187.922 210.399 179.401 C 215.111 174.714,219.244 170.242,219.582 169.462 C 220.761 166.747,219.026 164.267,215.948 164.267 L 214.019 164.267 205.036 173.212 L 196.053 182.157 187.054 173.212 L 178.055 164.267 176.105 164.267 C 174.437 164.267,173.991 164.463,173.009 165.630 " stroke="none" fill-rule="evenodd"></path></svg>