<svg fill="currentColor" viewBox="0 0 256 256" xmlns="http://www.w3.org/2000/svg"><path d="M42.880 37.271 C 40.252 38.497,37.927 41.009,36.860 43.774 C 36.079 45.801,36.053 48.461,36.053 128.000 C 36.053 207.758,36.077 210.194,36.866 212.242 C 37.944 215.036,40.465 217.697,43.210 218.938 L 45.440 219.947 128.000 219.947 L 210.560 219.947 212.790 218.938 C 215.535 217.697,218.056 215.036,219.134 212.242 C 219.923 210.194,219.947 207.758,219.947 128.000 C 219.947 48.461,219.921 45.801,219.140 43.774 C 218.073 41.009,215.748 38.497,213.120 37.271 L 210.987 36.275 128.000 36.275 L 45.013 36.275 42.880 37.271 M209.719 44.456 C 212.203 45.588,212.053 40.243,212.053 127.959 C 212.053 189.572,211.933 208.864,211.544 209.719 C 210.412 212.203,215.761 212.053,128.000 212.053 C 40.239 212.053,45.588 212.203,44.456 209.719 C 44.067 208.863,43.950 189.580,43.962 127.873 C 43.978 41.093,43.856 45.801,46.127 44.542 C 47.552 43.752,207.989 43.668,209.719 44.456 M122.453 76.387 C 117.931 76.922,114.401 77.997,109.709 80.269 C 105.977 82.076,104.732 82.959,101.761 85.899 C 95.975 91.626,93.591 97.566,93.978 105.292 C 94.243 110.604,96.010 114.340,100.035 118.106 C 105.034 122.782,110.094 125.064,126.192 129.901 C 138.424 133.576,143.226 135.417,147.499 138.072 C 151.279 140.421,153.714 143.120,154.906 146.284 C 155.653 148.264,155.785 149.377,155.648 152.533 C 155.503 155.873,155.300 156.712,154.092 158.970 C 149.871 166.858,139.640 171.947,128.000 171.947 C 113.397 171.947,101.618 164.114,100.211 153.468 C 99.870 150.887,99.604 150.214,98.536 149.227 C 96.916 147.729,95.198 147.706,93.473 149.158 C 92.266 150.174,92.160 150.476,92.160 152.920 C 92.160 159.156,95.969 166.431,101.663 171.069 C 107.029 175.439,114.772 178.672,122.240 179.659 C 138.510 181.810,155.307 174.382,161.387 162.347 C 164.175 156.828,164.680 150.137,162.748 144.293 C 159.438 134.278,150.854 128.687,129.167 122.421 C 120.001 119.772,115.746 118.285,111.573 116.271 C 106.788 113.961,104.484 112.003,103.013 108.996 C 101.982 106.889,101.886 106.299,102.052 103.121 C 102.424 96.048,106.206 90.864,113.619 87.269 C 126.800 80.878,144.362 84.354,151.252 94.719 C 152.304 96.301,153.407 97.784,153.702 98.016 C 154.711 98.806,156.293 98.943,157.686 98.360 C 160.312 97.263,160.689 94.869,158.765 91.514 C 152.543 80.666,137.887 74.561,122.453 76.387 " stroke="none" fill-rule="evenodd"></path></svg>