<svg fill="currentColor" viewBox="0 0 256 256" xmlns="http://www.w3.org/2000/svg"><path d="M78.080 44.401 C 42.175 56.392,29.460 60.809,28.907 61.481 C 28.207 62.331,28.160 65.005,28.160 104.116 L 28.160 145.844 29.473 146.949 C 31.874 148.970,34.943 147.896,35.823 144.727 C 36.108 143.701,36.263 130.263,36.264 106.381 L 36.267 69.615 57.869 76.819 C 69.750 80.781,79.537 84.088,79.617 84.168 C 79.696 84.248,78.868 85.645,77.776 87.274 C 71.546 96.560,68.121 108.137,68.125 119.893 C 68.130 132.114,71.293 142.828,77.804 152.678 C 83.777 161.714,90.947 168.259,100.267 173.182 L 104.187 175.252 101.127 176.182 C 85.174 181.027,68.802 192.565,57.852 206.677 C 51.576 214.765,51.020 216.206,53.301 218.486 C 54.538 219.723,56.197 220.081,57.817 219.460 C 58.209 219.309,60.166 216.957,62.167 214.233 C 66.673 208.097,75.980 198.783,81.397 194.988 C 100.243 181.782,122.219 177.196,144.640 181.787 C 164.493 185.853,182.474 198.035,195.130 215.994 C 197.362 219.163,198.123 219.733,200.111 219.733 C 201.897 219.733,203.947 217.724,203.947 215.974 C 203.947 212.190,189.994 196.343,180.619 189.481 C 172.792 183.751,162.808 178.592,154.898 176.189 L 151.813 175.252 155.733 173.182 C 181.394 159.628,193.684 130.228,185.322 102.400 C 184.002 98.007,180.788 91.072,178.482 87.640 C 177.551 86.254,176.658 84.896,176.498 84.623 C 176.298 84.280,183.999 81.529,201.385 75.734 C 220.670 69.305,226.711 67.128,227.201 66.429 C 228.065 65.196,228.008 62.592,227.093 61.481 C 226.539 60.808,213.807 56.396,177.709 44.367 C 150.958 35.453,128.494 28.175,127.789 28.194 C 127.084 28.212,104.715 35.505,78.080 44.401 M169.491 50.025 C 192.196 57.592,210.773 63.881,210.773 64.000 C 210.773 64.119,192.149 70.424,169.387 78.010 L 128.000 91.803 86.613 78.010 C 63.851 70.424,45.227 64.119,45.227 64.000 C 45.227 63.788,126.952 36.368,127.784 36.301 C 128.018 36.282,146.786 42.458,169.491 50.025 M107.733 93.440 C 118.287 96.960,127.407 99.840,128.000 99.840 C 128.593 99.840,137.713 96.960,148.267 93.440 C 158.821 89.920,167.650 87.046,167.888 87.052 C 168.552 87.072,171.729 91.653,173.836 95.629 C 179.920 107.113,181.486 120.207,178.294 132.907 C 174.841 146.647,165.378 158.777,152.691 165.726 C 140.773 172.254,124.960 173.736,112.260 169.515 C 98.978 165.101,88.597 156.424,82.310 144.481 C 78.635 137.500,77.247 132.953,76.368 125.013 C 75.117 113.718,78.177 101.183,84.518 91.628 C 87.007 87.877,87.643 87.068,88.112 87.053 C 88.350 87.046,97.179 89.920,107.733 93.440 " stroke="none" fill-rule="evenodd"></path></svg>