<svg fill="currentColor" viewBox="0 0 256 256" xmlns="http://www.w3.org/2000/svg"><path d="M89.387 20.303 C 88.683 20.403,86.571 20.690,84.693 20.939 C 73.767 22.390,61.760 27.206,52.053 34.030 C 45.964 38.311,37.194 47.278,33.174 53.333 C 27.319 62.153,23.306 71.798,21.251 81.991 C 20.416 86.134,20.276 88.141,20.276 96.000 C 20.276 103.859,20.416 105.866,21.251 110.009 C 26.555 136.317,44.314 157.483,69.123 167.064 C 72.657 168.429,79.540 170.314,82.987 170.862 L 84.693 171.133 85.682 175.700 C 91.138 200.890,108.440 221.277,132.459 230.818 C 136.336 232.358,141.845 233.924,146.987 234.946 C 151.805 235.904,166.590 236.038,171.520 235.169 C 176.327 234.321,183.926 232.254,187.637 230.785 C 192.694 228.783,199.463 225.123,203.947 221.966 C 209.185 218.278,218.278 209.185,221.966 203.947 C 228.647 194.457,232.955 183.871,235.162 171.520 C 236.039 166.608,235.909 151.831,234.946 146.987 C 231.534 129.825,224.382 116.612,212.199 104.960 C 201.472 94.701,186.921 87.349,172.939 85.126 C 171.240 84.856,171.144 84.760,170.874 83.061 C 170.315 79.543,168.440 72.686,167.062 69.118 C 162.804 58.092,156.906 49.287,148.199 40.960 C 137.242 30.481,124.135 23.897,108.587 21.063 C 105.277 20.459,91.976 19.933,89.387 20.303 M109.721 29.406 C 136.543 35.193,156.763 55.473,162.652 82.497 C 163.462 86.214,163.595 88.124,163.595 96.000 C 163.595 103.876,163.462 105.786,162.652 109.503 C 157.436 133.435,140.917 152.312,118.333 160.147 C 109.941 163.058,106.292 163.627,96.000 163.627 C 87.964 163.627,86.280 163.504,82.413 162.638 C 55.174 156.539,35.251 136.589,29.348 109.503 C 28.538 105.786,28.405 103.876,28.405 96.000 C 28.405 86.081,28.932 82.341,31.386 74.836 C 32.820 70.449,36.934 62.041,39.544 58.162 C 49.418 43.484,65.173 32.906,82.284 29.464 C 88.290 28.256,88.634 28.231,97.493 28.380 C 103.703 28.485,106.564 28.725,109.721 29.406 M177.493 94.348 C 184.692 96.217,193.219 100.206,199.562 104.671 C 204.367 108.053,211.951 115.638,215.339 120.451 C 216.794 122.518,219.142 126.481,220.558 129.257 C 225.325 138.607,227.324 146.433,227.710 157.256 C 227.942 163.742,227.305 172.800,226.617 172.800 C 226.467 172.800,213.513 159.968,197.830 144.283 L 169.316 115.767 169.805 113.953 C 170.897 109.896,171.581 104.852,171.820 99.101 L 172.071 93.028 173.182 93.273 C 173.793 93.407,175.733 93.891,177.493 94.348 M195.723 153.280 L 224.404 181.973 222.992 185.387 C 220.257 191.997,216.011 199.134,212.331 203.307 L 210.826 205.013 181.712 175.925 L 152.597 146.836 153.845 145.274 C 158.033 140.033,161.205 135.203,163.720 130.240 C 165.296 127.131,166.688 124.587,166.814 124.587 C 166.939 124.587,179.949 137.499,195.723 153.280 M176.001 181.787 L 205.013 210.827 203.307 212.331 C 199.079 216.059,190.378 221.174,184.501 223.387 L 181.908 224.364 153.159 195.612 C 137.347 179.799,124.513 166.758,124.638 166.633 C 124.764 166.507,126.858 165.431,129.291 164.241 C 134.368 161.758,139.280 158.638,143.573 155.170 C 145.216 153.843,146.657 152.755,146.775 152.752 C 146.892 152.749,160.044 165.815,176.001 181.787 M144.409 197.956 C 160.121 213.669,172.889 226.613,172.782 226.719 C 172.254 227.243,165.226 227.840,159.585 227.840 C 131.646 227.840,107.389 211.226,96.667 184.747 C 95.698 182.354,94.078 176.835,93.273 173.182 L 93.028 172.071 99.101 171.819 C 104.709 171.586,110.594 170.792,113.707 169.848 C 114.411 169.635,115.179 169.444,115.415 169.423 C 115.650 169.403,128.698 182.243,144.409 197.956 " stroke="none" fill-rule="evenodd"></path></svg>