<svg fill="currentColor" viewBox="0 0 256 256" xmlns="http://www.w3.org/2000/svg"><path d="M77.051 37.579 C 76.444 38.301,75.947 39.350,75.947 39.909 C 75.947 40.468,77.975 44.980,80.455 49.936 C 84.555 58.131,85.096 59.003,86.432 59.561 C 88.166 60.286,89.618 60.012,90.808 58.737 C 92.631 56.784,92.484 56.193,87.880 46.913 C 85.499 42.113,83.151 37.755,82.661 37.227 C 82.008 36.522,81.290 36.267,79.964 36.267 C 78.469 36.267,77.965 36.494,77.051 37.579 M173.339 37.227 C 172.849 37.755,170.501 42.113,168.120 46.913 C 163.516 56.193,163.369 56.784,165.192 58.737 C 166.382 60.012,167.834 60.286,169.568 59.561 C 170.904 59.003,171.445 58.131,175.545 49.936 C 178.025 44.980,180.053 40.468,180.053 39.909 C 180.053 39.350,179.556 38.301,178.949 37.579 C 178.035 36.494,177.531 36.267,176.036 36.267 C 174.710 36.267,173.992 36.522,173.339 37.227 M122.027 76.366 C 104.794 78.039,90.156 85.203,78.357 97.737 C 69.985 106.631,64.492 117.050,61.615 129.493 C 60.540 134.144,60.429 135.395,60.403 143.147 C 60.386 147.840,60.524 152.688,60.708 153.920 L 61.043 156.160 37.742 156.160 L 14.441 156.160 13.194 157.407 C 11.539 159.062,11.538 160.809,13.192 162.660 L 14.437 164.053 126.152 164.178 C 187.595 164.247,238.714 164.182,239.749 164.035 C 243.685 163.475,245.323 159.924,242.806 157.407 L 241.559 156.160 218.258 156.160 L 194.957 156.160 195.292 153.920 C 195.476 152.688,195.617 147.840,195.605 143.147 C 195.585 135.355,195.480 134.171,194.394 129.526 C 191.421 116.814,185.894 106.427,177.283 97.371 C 166.870 86.419,154.008 79.570,139.093 77.033 C 134.359 76.228,126.582 75.924,122.027 76.366 M140.160 85.295 C 145.463 86.459,148.821 87.614,153.869 90.008 C 171.398 98.324,183.783 114.722,187.050 133.942 C 187.850 138.648,187.953 148.247,187.255 152.943 L 186.776 156.160 128.000 156.160 L 69.224 156.160 68.745 152.943 C 68.064 148.366,68.156 138.730,68.926 133.973 C 72.648 110.967,90.476 91.640,113.183 85.996 C 115.583 85.399,118.891 84.729,120.533 84.506 C 125.115 83.884,135.664 84.309,140.160 85.295 M21.158 93.473 C 19.813 95.071,19.747 96.775,20.967 98.327 C 22.141 99.819,38.370 107.947,40.176 107.947 C 42.867 107.947,44.824 104.410,43.501 101.938 C 43.248 101.466,39.183 99.167,34.118 96.632 C 24.054 91.596,22.961 91.330,21.158 93.473 M221.779 96.655 C 216.809 99.158,212.750 101.469,212.499 101.938 C 211.176 104.410,213.133 107.947,215.824 107.947 C 217.630 107.947,233.859 99.819,235.033 98.327 C 236.330 96.678,236.210 94.918,234.699 93.407 C 232.711 91.418,231.645 91.686,221.779 96.655 M45.009 197.630 C 44.077 198.738,43.907 199.277,44.103 200.510 C 44.243 201.390,44.808 202.429,45.449 202.987 L 46.554 203.947 128.000 203.947 L 209.446 203.947 210.551 202.987 C 211.192 202.429,211.757 201.390,211.897 200.510 C 212.093 199.277,211.923 198.738,210.991 197.630 L 209.844 196.267 128.000 196.267 L 46.156 196.267 45.009 197.630 " stroke="none" fill-rule="evenodd"></path></svg>