<svg fill="currentColor" viewBox="0 0 256 256" xmlns="http://www.w3.org/2000/svg"><path d="M85.158 29.473 L 84.053 30.785 84.053 86.674 C 84.053 124.190,84.198 142.833,84.493 143.384 C 85.150 144.611,87.331 145.591,88.724 145.285 C 89.382 145.141,90.376 144.537,90.933 143.944 C 91.927 142.887,91.949 142.687,92.076 133.513 L 92.206 124.160 128.023 124.160 L 163.840 124.160 163.840 133.995 C 163.840 141.932,163.964 144.069,164.484 145.075 C 165.771 147.563,168.678 147.974,170.699 145.953 L 171.947 144.706 171.947 87.746 L 171.947 30.785 170.842 29.473 C 169.034 27.324,165.802 27.737,164.484 30.285 C 163.962 31.295,163.840 33.474,163.840 41.792 L 163.840 52.053 128.000 52.053 L 92.160 52.053 92.160 41.792 C 92.160 33.474,92.038 31.295,91.516 30.285 C 90.198 27.737,86.966 27.324,85.158 29.473 M163.840 72.107 L 163.840 84.053 128.000 84.053 L 92.160 84.053 92.160 72.107 L 92.160 60.160 128.000 60.160 L 163.840 60.160 163.840 72.107 M163.840 104.107 L 163.840 116.053 128.000 116.053 L 92.160 116.053 92.160 104.107 L 92.160 92.160 128.000 92.160 L 163.840 92.160 163.840 104.107 M29.263 165.258 C 27.660 166.862,27.719 169.366,29.394 170.776 C 30.413 171.633,31.280 171.864,34.377 172.102 C 42.033 172.690,45.448 173.954,53.535 179.193 C 62.567 185.042,67.328 186.902,75.567 187.795 C 83.398 188.645,92.084 187.145,98.773 183.789 C 100.181 183.082,103.692 180.979,106.574 179.116 C 115.520 173.332,119.006 172.211,128.000 172.227 C 137.090 172.244,140.519 173.353,149.535 179.193 C 158.567 185.042,163.328 186.902,171.567 187.795 C 175.028 188.171,177.179 188.168,180.579 187.786 C 188.759 186.865,193.482 185.011,202.465 179.193 C 210.552 173.954,213.967 172.690,221.623 172.102 C 224.720 171.864,225.587 171.633,226.606 170.776 C 228.281 169.366,228.340 166.862,226.737 165.258 C 225.641 164.162,225.595 164.156,220.443 164.387 C 212.123 164.759,207.063 166.616,197.636 172.758 C 188.761 178.541,184.856 179.815,176.000 179.815 C 167.144 179.815,163.239 178.541,154.364 172.758 C 148.513 168.946,144.022 166.708,139.733 165.467 C 136.686 164.586,135.429 164.480,128.000 164.480 C 120.571 164.480,119.314 164.586,116.267 165.467 C 111.978 166.708,107.487 168.946,101.636 172.758 C 92.761 178.541,88.856 179.815,80.000 179.815 C 71.144 179.815,67.239 178.541,58.364 172.758 C 48.937 166.616,43.877 164.759,35.557 164.387 C 30.405 164.156,30.359 164.162,29.263 165.258 M30.720 204.248 C 27.929 205.268,27.179 209.018,29.393 210.881 C 30.449 211.770,31.229 211.958,34.833 212.192 C 42.033 212.659,45.607 214.038,54.422 219.747 C 60.472 223.666,63.739 225.263,68.570 226.663 C 71.501 227.513,72.851 227.627,80.000 227.627 C 87.149 227.627,88.499 227.513,91.430 226.663 C 96.266 225.262,99.529 223.666,105.607 219.729 C 115.393 213.390,118.765 212.267,128.000 212.267 C 137.235 212.267,140.607 213.390,150.393 219.729 C 156.471 223.666,159.734 225.262,164.570 226.663 C 167.501 227.513,168.851 227.627,176.000 227.627 C 183.149 227.627,184.499 227.513,187.430 226.663 C 192.261 225.263,195.528 223.666,201.578 219.747 C 210.411 214.026,213.963 212.659,221.224 212.188 C 225.126 211.935,225.587 211.812,226.664 210.735 C 229.065 208.334,227.789 204.658,224.360 204.101 C 222.576 203.812,215.776 204.595,212.267 205.494 C 208.508 206.456,203.546 208.922,197.798 212.684 C 188.811 218.565,184.855 219.869,176.000 219.869 C 167.092 219.869,163.410 218.643,153.852 212.492 C 145.095 206.858,141.202 205.328,133.120 204.345 C 125.410 203.407,116.788 204.686,110.346 207.724 C 108.440 208.623,104.593 210.855,101.798 212.684 C 92.873 218.524,88.748 219.885,80.000 219.875 C 71.085 219.865,67.402 218.637,57.852 212.492 C 49.239 206.950,45.211 205.343,37.558 204.395 C 33.688 203.915,31.745 203.873,30.720 204.248 " stroke="none" fill-rule="evenodd"></path></svg>