<svg fill="currentColor" viewBox="0 0 256 256" xmlns="http://www.w3.org/2000/svg"><path d="M21.257 53.344 C 18.789 55.812,18.023 54.508,43.940 91.947 C 60.673 116.118,67.623 126.491,67.754 127.490 C 67.890 128.528,67.609 129.428,66.687 130.903 C 65.998 132.005,55.282 147.595,42.873 165.547 C 18.115 201.363,18.796 200.195,21.257 202.656 L 22.548 203.947 102.931 203.947 C 192.209 203.947,185.392 204.174,189.012 201.076 C 191.167 199.231,233.951 135.350,235.171 132.155 C 235.598 131.038,235.947 129.168,235.947 128.000 C 235.947 126.832,235.598 124.962,235.171 123.845 C 233.932 120.601,191.164 56.767,188.974 54.892 C 185.421 51.850,191.587 52.053,102.716 52.053 L 22.548 52.053 21.257 53.344 M183.738 60.916 C 184.240 61.322,194.320 76.149,206.138 93.867 C 226.549 124.465,227.627 126.176,227.627 128.000 C 227.627 129.825,226.541 131.546,205.775 162.643 C 184.818 194.024,183.856 195.384,182.308 195.814 C 180.203 196.398,32.000 196.451,32.000 195.867 C 32.000 195.647,41.535 181.679,53.188 164.827 C 64.841 147.975,74.749 133.227,75.206 132.053 C 76.202 129.494,76.062 125.166,74.912 122.942 C 74.507 122.158,64.686 107.795,53.088 91.023 C 41.489 74.251,32.000 60.446,32.000 60.344 C 32.000 60.243,65.936 60.164,107.413 60.169 C 178.221 60.178,182.882 60.224,183.738 60.916 " stroke="none" fill-rule="evenodd"></path></svg>