<svg fill="currentColor" viewBox="0 0 256 256" xmlns="http://www.w3.org/2000/svg"><path d="M85.513 36.162 L 38.119 36.270 37.086 37.370 L 36.053 38.469 36.053 86.968 L 36.053 135.467 37.212 137.813 C 38.184 139.782,46.608 148.387,89.479 191.206 C 138.447 240.114,140.690 242.289,143.056 243.152 C 146.005 244.228,147.960 244.284,151.069 243.379 C 153.329 242.721,154.492 241.600,197.874 198.259 C 239.227 156.945,242.424 153.648,243.250 151.467 C 244.434 148.339,244.186 144.716,242.587 141.778 C 241.759 140.256,227.330 125.575,190.587 88.866 C 162.617 60.923,139.091 37.738,138.306 37.345 C 137.520 36.951,135.984 36.499,134.892 36.341 C 133.800 36.183,111.579 36.102,85.513 36.162 M185.175 94.937 C 235.559 145.327,235.947 145.727,235.947 147.411 C 235.947 149.093,235.574 149.480,192.533 192.527 C 149.438 235.628,149.107 235.947,147.417 235.947 C 145.725 235.947,145.388 235.621,94.937 185.175 L 44.160 134.403 44.048 89.169 L 43.935 43.935 89.169 44.048 L 134.403 44.160 185.175 94.937 M81.346 76.569 C 79.234 77.322,77.740 78.716,76.753 80.853 C 74.730 85.237,77.045 90.183,81.761 91.554 C 84.249 92.277,85.603 92.086,88.111 90.658 C 91.176 88.913,92.573 85.266,91.540 81.711 C 90.778 79.090,88.812 77.095,86.305 76.399 C 84.230 75.823,83.355 75.853,81.346 76.569 " stroke="none" fill-rule="evenodd"></path></svg>