<svg fill="currentColor" viewBox="0 0 256 256" xmlns="http://www.w3.org/2000/svg"><path d="M113.980 20.532 C 111.922 21.140,109.531 22.747,108.101 24.480 C 107.313 25.437,104.395 32.170,100.046 43.064 L 93.227 60.147 79.535 60.154 L 65.843 60.160 63.181 61.490 C 61.525 62.318,60.086 63.418,59.372 64.404 C 58.741 65.275,51.796 77.251,43.939 91.016 L 29.653 116.044 22.104 116.049 C 14.890 116.053,14.505 116.096,13.449 117.013 C 12.801 117.577,12.243 118.610,12.099 119.515 C 11.892 120.816,12.055 121.282,13.144 122.501 L 14.435 123.947 21.290 124.083 L 28.144 124.219 28.259 168.029 L 28.373 211.840 29.538 213.822 C 30.920 216.172,32.783 217.832,35.413 219.054 C 37.245 219.905,38.014 219.947,52.053 219.947 L 66.773 219.947 69.207 218.752 C 71.801 217.478,73.279 216.000,74.794 213.170 C 75.685 211.503,75.740 210.818,75.865 199.787 L 75.997 188.160 128.025 188.160 L 180.053 188.160 180.053 199.399 L 180.053 210.637 181.358 213.248 C 182.801 216.135,184.414 217.709,187.307 219.054 C 189.138 219.905,189.908 219.947,203.947 219.947 C 217.986 219.947,218.755 219.905,220.587 219.054 C 224.776 217.107,227.074 214.066,227.812 209.493 C 228.103 207.695,228.261 192.217,228.263 165.470 L 228.267 124.220 234.916 124.083 L 241.565 123.947 242.856 122.501 C 243.945 121.282,244.108 120.816,243.901 119.515 C 243.757 118.610,243.199 117.577,242.551 117.013 C 241.495 116.096,241.110 116.053,233.896 116.049 L 226.347 116.044 211.840 90.623 C 203.861 76.641,196.699 64.546,195.923 63.744 C 195.147 62.942,193.707 61.856,192.723 61.330 C 190.988 60.403,190.499 60.369,176.820 60.246 L 162.707 60.118 155.961 43.240 C 151.723 32.639,148.720 25.722,147.887 24.638 C 147.157 23.690,145.504 22.318,144.213 21.590 L 141.867 20.267 128.640 20.187 C 120.872 20.140,114.822 20.283,113.980 20.532 M141.088 28.976 C 141.768 29.609,146.908 41.899,153.907 59.627 C 154.074 60.050,148.722 60.160,128.000 60.160 C 107.278 60.160,101.926 60.050,102.093 59.627 C 109.092 41.899,114.232 29.609,114.912 28.976 C 115.732 28.212,116.566 28.160,128.000 28.160 C 139.434 28.160,140.268 28.212,141.088 28.976 M189.806 69.013 C 190.294 69.424,196.638 80.176,203.904 92.907 L 217.116 116.053 128.000 116.053 L 38.884 116.053 52.096 92.907 C 59.362 80.176,65.706 69.424,66.194 69.013 C 67.030 68.310,70.604 68.267,128.000 68.267 C 185.396 68.267,188.970 68.310,189.806 69.013 M220.160 152.107 L 220.160 180.053 128.213 180.053 L 36.267 180.053 36.267 152.107 L 36.267 124.160 128.213 124.160 L 220.160 124.160 220.160 152.107 M61.473 149.158 C 59.219 151.055,59.840 154.540,62.638 155.700 C 63.498 156.056,66.547 156.170,72.718 156.078 L 81.565 155.947 82.856 154.501 C 83.945 153.282,84.108 152.816,83.901 151.515 C 83.757 150.610,83.199 149.577,82.551 149.013 C 81.477 148.081,81.179 148.053,72.116 148.053 L 62.785 148.053 61.473 149.158 M173.449 149.013 C 172.801 149.577,172.243 150.610,172.099 151.515 C 171.892 152.816,172.055 153.282,173.144 154.501 L 174.435 155.947 183.282 156.078 C 192.620 156.217,194.020 156.009,195.217 154.300 C 195.560 153.810,195.840 152.702,195.840 151.836 C 195.840 150.603,195.556 150.024,194.527 149.158 L 193.215 148.053 183.884 148.053 C 174.821 148.053,174.523 148.081,173.449 149.013 M67.840 198.859 L 67.840 209.559 66.593 210.806 L 65.346 212.053 52.119 212.053 L 38.892 212.053 37.579 210.949 L 36.267 209.844 36.267 199.002 L 36.267 188.160 52.053 188.160 L 67.840 188.160 67.840 198.859 M220.080 198.862 L 219.947 209.565 218.553 210.809 L 217.160 212.053 203.907 212.053 L 190.654 212.053 189.407 210.806 L 188.160 209.559 188.160 198.859 L 188.160 188.160 204.187 188.160 L 220.214 188.160 220.080 198.862 " stroke="none" fill-rule="evenodd"></path></svg>