<svg fill="currentColor" viewBox="0 0 256 256" xmlns="http://www.w3.org/2000/svg"><path d="M77.513 20.925 C 75.943 22.160,75.618 24.333,76.736 26.118 C 77.220 26.889,86.745 36.640,97.903 47.787 L 118.190 68.053 77.088 68.267 L 35.986 68.480 33.901 69.769 C 31.469 71.273,29.233 74.021,28.606 76.277 C 28.311 77.339,28.165 98.618,28.167 140.373 L 28.168 202.880 29.169 205.030 C 30.463 207.808,33.610 210.585,36.406 211.415 C 38.283 211.973,49.859 212.053,128.000 212.053 C 206.525 212.053,217.710 211.975,219.614 211.409 C 222.489 210.555,225.704 207.651,227.035 204.706 L 228.053 202.453 228.053 140.373 C 228.053 91.225,227.940 77.919,227.508 76.498 C 226.754 74.011,224.573 71.299,222.099 69.769 L 220.014 68.480 178.912 68.267 L 137.810 68.053 158.097 47.787 C 169.255 36.640,178.780 26.889,179.264 26.118 C 180.996 23.353,179.136 20.053,175.845 20.053 C 174.388 20.053,173.152 21.213,151.156 43.195 L 128.000 66.336 104.844 43.195 C 82.848 21.213,81.612 20.053,80.155 20.053 C 79.257 20.053,78.163 20.415,77.513 20.925 M148.053 139.947 L 148.053 203.947 93.207 203.947 L 38.361 203.947 37.314 202.899 L 36.267 201.852 36.267 140.004 L 36.267 78.156 37.579 77.051 L 38.892 75.947 93.473 75.947 L 148.053 75.947 148.053 139.947 M218.553 77.192 L 219.947 78.437 220.072 138.312 C 220.141 171.243,220.078 199.027,219.931 200.054 C 219.771 201.180,219.263 202.322,218.652 202.934 L 217.639 203.947 186.899 203.947 L 156.160 203.947 156.160 139.947 L 156.160 75.947 186.660 75.947 L 217.160 75.947 218.553 77.192 M185.440 108.557 C 183.319 109.334,181.058 111.529,180.436 113.415 C 179.724 115.570,180.240 118.858,181.561 120.590 C 184.571 124.537,189.503 125.099,193.136 121.909 C 195.035 120.241,195.840 118.418,195.840 115.785 C 195.840 110.567,190.355 106.755,185.440 108.557 M184.533 156.845 C 182.475 157.969,181.403 159.150,180.648 161.126 C 178.091 167.821,184.853 174.108,191.410 171.130 C 194.116 169.901,195.562 167.699,195.739 164.535 C 195.915 161.403,195.130 159.620,192.731 157.703 C 191.392 156.633,190.661 156.389,188.464 156.279 C 186.606 156.186,185.430 156.355,184.533 156.845 " stroke="none" fill-rule="evenodd"></path></svg>