<svg fill="currentColor" viewBox="0 0 256 256" xmlns="http://www.w3.org/2000/svg"><path d="M118.613 28.450 C 99.808 30.377,82.695 37.075,67.638 48.402 C 62.040 52.614,54.581 59.781,50.375 64.992 C 36.004 82.793,28.160 104.980,28.160 127.825 C 28.160 139.740,29.565 148.452,33.316 159.787 C 44.159 192.553,71.448 217.331,105.600 225.421 C 121.450 229.175,139.194 228.712,155.520 224.117 C 189.231 214.630,216.237 186.884,224.823 152.917 C 232.810 121.317,225.322 88.445,204.470 63.573 C 188.030 43.965,164.226 31.331,138.577 28.601 C 134.742 28.193,122.057 28.097,118.613 28.450 M123.499 39.147 C 123.043 44.247,121.577 52.412,120.304 56.946 C 113.364 81.662,95.771 102.826,72.747 114.154 C 65.946 117.499,61.615 119.106,54.376 120.969 C 48.723 122.423,36.952 124.134,36.399 123.582 C 36.233 123.415,36.314 121.126,36.579 118.493 C 40.171 82.762,64.963 51.957,99.151 40.746 C 106.678 38.278,115.870 36.475,121.719 36.321 L 123.757 36.267 123.499 39.147 M139.105 36.715 C 155.530 38.753,171.743 45.464,184.747 55.608 C 188.833 58.795,196.353 66.254,199.662 70.400 C 210.365 83.812,217.185 99.972,219.285 116.895 C 219.929 122.089,219.870 124.016,219.058 124.328 C 218.687 124.470,217.522 124.587,216.469 124.587 C 213.282 124.587,205.340 125.879,199.467 127.354 C 168.652 135.090,142.771 157.857,131.226 187.383 C 128.005 195.623,125.547 205.420,124.825 212.907 C 124.678 214.432,124.450 216.592,124.319 217.707 L 124.080 219.733 121.880 219.726 C 118.966 219.715,111.717 218.668,107.143 217.598 C 94.859 214.721,82.435 208.883,72.320 201.233 C 67.805 197.818,59.929 190.117,56.332 185.600 C 45.616 172.143,38.814 156.022,36.715 139.105 C 36.469 137.116,36.267 134.686,36.267 133.705 L 36.267 131.920 38.293 131.681 C 39.408 131.550,41.568 131.323,43.093 131.177 C 48.471 130.661,57.032 128.760,63.350 126.679 C 95.809 115.987,120.853 88.806,129.011 55.415 C 129.995 51.390,130.972 45.198,131.646 38.720 L 131.901 36.267 133.695 36.267 C 134.682 36.267,137.116 36.469,139.105 36.715 M219.565 136.125 C 218.248 153.563,210.887 171.757,199.376 186.027 C 195.819 190.435,187.430 198.490,182.927 201.821 C 176.224 206.778,168.894 210.812,160.879 213.954 C 153.502 216.846,140.285 219.733,134.421 219.733 L 132.205 219.733 132.472 217.280 C 133.872 204.382,135.895 196.452,140.337 186.435 C 153.993 155.645,185.109 134.196,218.835 132.323 L 219.856 132.267 219.565 136.125 " stroke="none" fill-rule="evenodd"></path></svg>