<svg fill="currentColor" viewBox="0 0 256 256" xmlns="http://www.w3.org/2000/svg"><path d="M37.331 61.190 C 36.765 61.756,36.178 62.713,36.027 63.315 C 35.629 64.898,37.030 67.081,38.848 67.709 C 40.981 68.447,215.019 68.447,217.152 67.709 C 218.970 67.081,220.371 64.898,219.973 63.315 C 219.822 62.713,219.235 61.756,218.669 61.190 L 217.639 60.160 128.000 60.160 L 38.361 60.160 37.331 61.190 M37.243 101.227 C 36.760 101.755,36.238 102.605,36.084 103.115 C 35.721 104.312,36.799 106.891,37.909 107.486 C 38.515 107.810,58.122 107.947,104.111 107.947 L 169.452 107.947 170.699 106.699 C 172.329 105.070,172.413 102.827,170.899 101.314 L 169.852 100.267 103.987 100.267 L 38.122 100.267 37.243 101.227 M37.468 141.173 C 36.385 142.141,36.096 142.735,36.096 144.000 C 36.096 145.265,36.385 145.859,37.468 146.827 L 38.840 148.053 128.000 148.053 L 217.160 148.053 218.532 146.827 C 220.462 145.103,220.462 142.897,218.532 141.173 L 217.160 139.947 128.000 139.947 L 38.840 139.947 37.468 141.173 M37.675 180.809 C 35.613 182.430,35.493 185.151,37.404 186.946 L 38.469 187.947 102.754 188.069 C 138.111 188.136,167.685 188.075,168.474 187.934 C 171.886 187.322,173.101 183.702,170.699 181.301 L 169.452 180.053 104.033 180.063 C 42.704 180.072,38.555 180.118,37.675 180.809 " stroke="none" fill-rule="evenodd"></path></svg>