<svg fill="currentColor" viewBox="0 0 256 256" xmlns="http://www.w3.org/2000/svg"><path d="M37.331 61.190 C 36.765 61.756,36.178 62.713,36.027 63.315 C 35.629 64.898,37.030 67.081,38.848 67.709 C 40.981 68.447,215.019 68.447,217.152 67.709 C 218.970 67.081,220.371 64.898,219.973 63.315 C 219.822 62.713,219.235 61.756,218.669 61.190 L 217.639 60.160 128.000 60.160 L 38.361 60.160 37.331 61.190 M61.207 101.314 C 59.626 102.896,59.745 105.389,61.473 106.842 L 62.785 107.947 128.000 107.947 L 193.215 107.947 194.527 106.842 C 196.255 105.389,196.374 102.896,194.793 101.314 L 193.745 100.267 128.000 100.267 L 62.255 100.267 61.207 101.314 M37.468 141.173 C 36.385 142.141,36.096 142.735,36.096 144.000 C 36.096 145.265,36.385 145.859,37.468 146.827 L 38.840 148.053 128.000 148.053 L 217.160 148.053 218.532 146.827 C 220.462 145.103,220.462 142.897,218.532 141.173 L 217.160 139.947 128.000 139.947 L 38.840 139.947 37.468 141.173 M61.473 181.158 C 59.324 182.966,59.737 186.198,62.285 187.516 C 63.380 188.082,71.332 188.160,128.000 188.160 C 184.668 188.160,192.620 188.082,193.715 187.516 C 196.263 186.198,196.676 182.966,194.527 181.158 L 193.215 180.053 128.000 180.053 L 62.785 180.053 61.473 181.158 " stroke="none" fill-rule="evenodd"></path></svg>