<svg fill="currentColor" viewBox="0 0 256 256" xmlns="http://www.w3.org/2000/svg"><path d="M37.424 53.074 C 36.818 53.635,36.207 54.739,36.066 55.527 C 35.924 56.315,35.864 84.096,35.931 117.262 L 36.053 177.563 37.499 178.855 C 38.719 179.945,39.184 180.108,40.485 179.901 C 41.390 179.757,42.423 179.199,42.987 178.551 L 43.947 177.446 43.947 148.670 L 43.947 119.893 91.947 119.893 L 139.947 119.893 139.947 148.247 C 139.947 169.320,140.078 176.887,140.456 177.719 C 140.979 178.865,142.783 180.053,144.000 180.053 C 145.267 180.053,147.077 178.821,147.572 177.620 C 147.939 176.733,148.036 160.750,147.952 115.270 L 147.840 54.113 146.643 53.083 C 145.060 51.722,142.940 51.721,141.357 53.083 L 140.160 54.112 140.045 83.165 L 139.929 112.217 92.045 112.109 L 44.160 112.000 43.947 83.056 L 43.733 54.112 42.536 53.083 C 40.960 51.727,38.881 51.723,37.424 53.074 M190.720 108.248 C 188.023 109.234,187.211 112.880,189.261 114.806 L 190.361 115.840 211.247 116.053 L 232.133 116.267 220.341 133.105 C 213.856 142.365,208.379 150.391,208.171 150.938 C 207.740 152.073,208.501 154.307,209.642 155.253 C 210.031 155.576,211.959 156.003,213.928 156.202 C 220.246 156.843,224.623 158.878,228.962 163.192 C 238.200 172.376,238.175 187.641,228.908 196.908 C 220.008 205.809,205.841 206.265,196.125 197.965 C 194.049 196.192,193.358 195.840,191.946 195.840 C 189.628 195.840,188.160 197.305,188.160 199.619 C 188.160 201.078,188.439 201.571,190.237 203.294 C 193.909 206.814,197.925 209.091,203.520 210.827 C 208.051 212.232,215.513 212.244,220.349 210.852 C 226.129 209.190,230.106 206.832,234.490 202.470 C 237.770 199.206,238.672 197.990,240.354 194.560 C 243.616 187.909,244.663 181.830,243.640 175.486 C 241.822 164.207,234.498 154.814,224.120 150.449 C 222.660 149.836,221.220 149.330,220.920 149.327 C 218.877 149.302,219.391 148.417,231.453 131.186 C 238.161 121.603,243.763 113.313,243.900 112.766 C 244.038 112.218,243.909 111.189,243.615 110.478 C 242.545 107.895,243.077 107.943,216.021 107.980 C 202.458 107.999,191.072 108.119,190.720 108.248 " stroke="none" fill-rule="evenodd"></path></svg>