<svg fill="currentColor" viewBox="0 0 256 256" xmlns="http://www.w3.org/2000/svg"><path d="M37.424 53.074 C 36.818 53.635,36.207 54.739,36.066 55.527 C 35.924 56.315,35.864 84.096,35.931 117.262 L 36.053 177.563 37.499 178.855 C 38.719 179.945,39.184 180.108,40.485 179.901 C 41.390 179.757,42.423 179.199,42.987 178.551 L 43.947 177.446 43.947 148.670 L 43.947 119.893 91.947 119.893 L 139.947 119.893 139.947 148.247 C 139.947 169.320,140.078 176.887,140.456 177.719 C 140.979 178.865,142.783 180.053,144.000 180.053 C 145.267 180.053,147.077 178.821,147.572 177.620 C 147.939 176.733,148.036 160.750,147.952 115.270 L 147.840 54.113 146.643 53.083 C 145.060 51.722,142.940 51.721,141.357 53.083 L 140.160 54.112 140.045 83.165 L 139.929 112.217 92.045 112.109 L 44.160 112.000 43.947 83.056 L 43.733 54.112 42.536 53.083 C 40.960 51.727,38.881 51.723,37.424 53.074 M210.987 108.558 C 207.237 109.298,204.890 110.148,201.945 111.833 C 195.798 115.350,189.440 123.707,189.440 128.268 C 189.440 129.944,190.834 131.638,192.572 132.074 C 194.566 132.575,195.924 131.448,197.895 127.661 C 201.704 120.342,208.301 116.053,215.749 116.053 C 230.672 116.053,240.528 131.904,233.802 145.088 C 233.325 146.025,222.860 160.231,210.547 176.657 C 185.804 209.667,186.746 208.145,189.407 210.806 L 190.654 212.053 215.627 212.053 C 234.080 212.053,240.892 211.920,241.719 211.544 C 242.865 211.021,244.053 209.217,244.053 208.000 C 244.053 206.949,242.892 204.946,242.042 204.532 C 241.623 204.327,232.028 204.064,220.720 203.947 L 200.160 203.733 220.011 177.280 C 230.929 162.731,240.307 149.958,240.850 148.896 C 242.959 144.771,243.841 140.912,243.820 135.893 C 243.797 130.624,243.145 127.854,240.863 123.332 C 238.157 117.972,233.880 113.767,228.235 110.918 C 223.301 108.427,216.419 107.485,210.987 108.558 " stroke="none" fill-rule="evenodd"></path></svg>