<svg fill="currentColor" viewBox="0 0 256 256" xmlns="http://www.w3.org/2000/svg"><path d="M37.331 61.190 C 36.765 61.756,36.178 62.713,36.027 63.315 C 35.629 64.898,37.030 67.081,38.848 67.709 C 40.981 68.447,215.019 68.447,217.152 67.709 C 218.970 67.081,220.371 64.898,219.973 63.315 C 219.822 62.713,219.235 61.756,218.669 61.190 L 217.639 60.160 128.000 60.160 L 38.361 60.160 37.331 61.190 M85.101 101.314 C 83.587 102.827,83.671 105.070,85.301 106.699 L 86.548 107.947 151.889 107.947 C 197.878 107.947,217.485 107.810,218.091 107.486 C 219.201 106.891,220.279 104.312,219.916 103.115 C 219.762 102.605,219.240 101.755,218.757 101.227 L 217.878 100.267 152.013 100.267 L 86.148 100.267 85.101 101.314 M37.468 141.173 C 36.385 142.141,36.096 142.735,36.096 144.000 C 36.096 145.265,36.385 145.859,37.468 146.827 L 38.840 148.053 128.000 148.053 L 217.160 148.053 218.532 146.827 C 220.462 145.103,220.462 142.897,218.532 141.173 L 217.160 139.947 128.000 139.947 L 38.840 139.947 37.468 141.173 M85.301 181.301 C 82.899 183.702,84.114 187.322,87.526 187.934 C 88.315 188.075,117.884 188.136,153.235 188.069 C 216.823 187.948,217.521 187.938,218.458 187.093 C 219.850 185.838,220.264 184.436,219.725 182.800 C 218.745 179.831,224.232 180.053,151.876 180.053 L 86.548 180.053 85.301 181.301 " stroke="none" fill-rule="evenodd"></path></svg>