<svg fill="currentColor" viewBox="0 0 256 256" xmlns="http://www.w3.org/2000/svg"><path d="M116.053 12.208 C 102.856 13.815,91.227 22.705,86.571 34.745 C 83.998 41.401,84.053 40.172,84.053 90.180 L 84.053 135.912 80.945 138.507 C 70.636 147.109,63.210 160.302,60.800 174.293 C 60.029 178.772,59.920 188.456,60.593 192.703 C 62.734 206.203,68.846 217.908,78.650 227.280 C 87.171 235.427,96.743 240.360,109.227 243.039 C 114.632 244.199,125.844 244.103,131.707 242.846 C 143.792 240.256,153.910 234.807,162.347 226.344 C 179.755 208.883,184.647 183.877,175.202 160.639 C 172.193 153.235,167.395 146.435,160.733 140.129 L 156.192 135.831 156.048 89.142 L 155.904 42.453 154.941 39.040 C 151.367 26.360,141.357 16.366,129.093 13.232 C 125.765 12.382,118.993 11.850,116.053 12.208 M128.783 21.487 C 138.732 24.875,146.149 33.661,147.613 43.794 C 147.872 45.582,148.040 64.674,148.045 92.872 C 148.050 118.255,148.166 139.318,148.304 139.677 C 148.442 140.036,150.272 141.701,152.371 143.378 C 170.585 157.922,176.905 183.081,167.705 204.420 C 165.033 210.617,161.961 215.146,157.013 220.179 C 149.519 227.803,142.552 231.787,131.900 234.537 C 127.849 235.583,126.601 235.710,120.320 235.715 C 112.286 235.721,108.562 235.099,101.973 232.649 C 89.450 227.993,79.601 219.135,73.616 207.147 C 69.689 199.279,68.220 192.874,68.238 183.699 C 68.273 166.888,74.875 153.877,89.600 141.601 L 91.947 139.645 92.172 90.836 C 92.417 37.753,92.242 41.232,94.948 35.708 C 98.551 28.355,105.972 22.479,113.920 20.687 C 118.026 19.761,124.783 20.125,128.783 21.487 M214.091 44.612 C 213.451 44.959,212.731 45.610,212.491 46.060 C 212.218 46.569,212.053 52.030,212.053 60.559 C 212.053 69.360,211.902 74.240,211.628 74.240 C 211.395 74.240,205.587 72.416,198.722 70.188 C 191.857 67.959,185.811 66.135,185.287 66.134 C 183.750 66.133,181.715 68.245,181.669 69.890 C 181.584 72.891,182.165 73.204,196.428 77.860 L 209.520 82.133 202.840 91.288 C 193.662 103.866,193.280 104.449,193.280 105.876 C 193.280 109.072,197.115 111.038,199.582 109.106 C 199.880 108.872,203.589 103.911,207.825 98.081 C 212.060 92.251,215.673 87.390,215.853 87.278 C 216.032 87.167,219.777 92.043,224.174 98.112 C 232.402 109.472,233.419 110.517,235.595 109.856 C 238.025 109.118,239.485 106.375,238.471 104.452 C 238.186 103.910,234.503 98.704,230.288 92.884 C 226.073 87.063,222.705 82.220,222.804 82.120 C 222.904 82.021,228.349 80.203,234.906 78.080 C 249.597 73.324,249.074 73.537,249.871 71.995 C 251.171 69.481,249.378 66.133,246.731 66.133 C 246.154 66.133,240.078 67.957,233.228 70.187 C 226.378 72.416,220.643 74.240,220.484 74.240 C 220.324 74.240,220.138 67.984,220.070 60.338 L 219.947 46.436 218.553 45.191 C 217.012 43.815,215.840 43.663,214.091 44.612 M117.464 117.083 L 116.267 118.112 116.053 137.209 L 115.840 156.306 113.412 156.858 C 103.721 159.058,95.720 166.888,92.988 176.848 C 91.666 181.665,91.948 188.680,93.648 193.271 C 95.269 197.647,97.653 201.266,100.941 204.342 C 104.319 207.502,107.089 209.143,111.573 210.643 C 114.520 211.628,115.687 211.783,120.107 211.781 C 124.517 211.779,125.676 211.624,128.468 210.661 C 138.769 207.109,145.825 198.922,147.654 188.403 C 148.622 182.833,147.431 176.062,144.498 170.453 C 142.716 167.047,137.136 161.484,133.664 159.655 C 130.567 158.022,126.588 156.587,125.160 156.587 L 124.160 156.587 124.160 138.304 C 124.160 126.367,124.001 119.564,123.701 118.705 C 122.777 116.053,119.617 115.231,117.464 117.083 M128.564 166.077 C 141.278 172.134,143.855 189.002,133.526 198.564 C 123.572 207.779,107.912 204.792,102.074 192.564 C 100.496 189.261,100.480 189.172,100.480 183.893 C 100.480 178.742,100.527 178.463,101.866 175.727 C 104.311 170.729,108.416 166.997,113.556 165.096 C 115.418 164.408,116.707 164.274,120.533 164.370 C 124.952 164.481,125.422 164.580,128.564 166.077 " stroke="none" fill-rule="evenodd"></path></svg>