<svg fill="currentColor" viewBox="0 0 256 256" xmlns="http://www.w3.org/2000/svg"><path d="M116.053 12.208 C 102.856 13.815,91.227 22.705,86.571 34.745 C 83.998 41.401,84.053 40.172,84.053 90.180 L 84.053 135.912 80.884 138.558 C 70.660 147.089,63.134 160.447,60.826 174.159 C 59.953 179.342,59.930 188.850,60.778 193.622 C 63.165 207.046,68.901 217.883,78.564 227.221 C 94.762 242.874,118.594 248.075,139.814 240.588 C 156.965 234.536,170.536 220.965,176.588 203.814 C 179.027 196.900,179.792 192.208,179.801 184.107 C 179.810 176.097,179.230 172.168,177.063 165.536 C 173.894 155.838,169.543 148.945,161.664 141.138 L 156.192 135.717 156.048 89.085 L 155.904 42.453 154.941 39.040 C 151.367 26.360,141.357 16.366,129.093 13.232 C 125.765 12.382,118.993 11.850,116.053 12.208 M128.783 21.487 C 138.732 24.875,146.149 33.661,147.613 43.794 C 147.872 45.583,148.040 64.769,148.045 93.153 L 148.053 139.586 149.244 140.726 C 149.900 141.353,151.822 142.984,153.517 144.350 C 162.053 151.230,168.371 161.780,170.938 173.440 C 171.943 178.005,172.151 186.724,171.375 191.787 C 169.607 203.321,164.281 213.464,155.678 221.682 C 151.506 225.669,148.410 227.863,143.422 230.370 C 130.017 237.106,114.479 237.739,100.444 232.119 C 84.179 225.607,71.956 210.513,68.877 193.140 C 68.070 188.585,68.070 179.517,68.877 174.929 C 70.100 167.977,73.199 160.385,77.248 154.422 C 79.154 151.615,85.440 145.095,89.602 141.609 L 91.947 139.644 92.172 90.835 C 92.417 37.753,92.242 41.232,94.948 35.708 C 98.551 28.355,105.972 22.479,113.920 20.687 C 118.026 19.761,124.783 20.125,128.783 21.487 M205.924 60.837 C 202.049 61.775,198.501 63.873,195.187 67.187 C 190.315 72.060,188.155 77.265,188.165 84.115 C 188.174 90.687,190.378 96.076,194.936 100.677 C 198.291 104.063,201.307 105.862,205.645 107.063 C 220.764 111.250,235.905 99.731,235.940 84.015 C 235.948 80.390,234.619 75.227,232.890 72.170 C 229.844 66.784,223.147 61.838,217.259 60.625 C 214.215 59.999,208.983 60.096,205.924 60.837 M218.894 69.639 C 221.907 71.119,224.822 74.035,226.390 77.138 C 227.501 79.337,227.621 79.988,227.624 83.840 C 227.626 87.580,227.485 88.408,226.483 90.546 C 224.963 93.790,222.022 96.854,218.998 98.346 C 214.053 100.786,207.154 100.223,202.836 97.026 C 198.404 93.745,196.234 89.495,196.222 84.072 C 196.207 77.202,199.706 71.905,206.004 69.264 C 208.079 68.393,209.008 68.264,212.480 68.364 C 215.881 68.461,216.913 68.667,218.894 69.639 M117.464 85.083 L 116.267 86.113 116.053 121.209 L 115.840 156.306 113.458 156.847 C 103.415 159.127,95.035 167.598,92.777 177.751 C 91.717 182.513,92.084 189.021,93.653 193.271 C 95.265 197.641,97.650 201.263,100.941 204.342 C 104.324 207.507,107.097 209.148,111.573 210.636 C 115.970 212.098,123.297 212.291,127.336 211.053 C 137.265 208.007,144.467 200.730,147.068 191.114 C 148.195 186.946,148.093 180.261,146.841 176.213 C 144.090 167.325,137.422 160.461,128.584 157.421 C 127.251 156.962,125.710 156.587,125.160 156.587 L 124.160 156.587 124.160 122.304 C 124.160 98.958,124.014 87.601,123.701 86.705 C 122.777 84.053,119.617 83.231,117.464 85.083 M128.564 166.077 C 141.278 172.134,143.855 189.002,133.526 198.564 C 123.572 207.779,107.912 204.792,102.074 192.564 C 100.496 189.261,100.480 189.172,100.480 183.893 C 100.480 178.742,100.527 178.463,101.866 175.727 C 104.311 170.729,108.416 166.997,113.556 165.096 C 115.418 164.408,116.707 164.274,120.533 164.370 C 124.952 164.481,125.422 164.580,128.564 166.077 " stroke="none" fill-rule="evenodd"></path></svg>