<svg fill="currentColor" viewBox="0 0 256 256" xmlns="http://www.w3.org/2000/svg"><path d="M25.521 72.830 C 14.084 84.258,4.505 94.146,4.232 94.804 C 3.856 95.712,3.856 96.288,4.232 97.196 C 4.505 97.854,14.084 107.742,25.521 119.170 C 45.939 139.572,46.344 139.947,47.999 139.947 C 49.652 139.947,50.052 139.579,68.792 120.857 L 87.899 101.767 105.066 118.934 L 122.233 136.101 103.143 155.208 C 84.421 173.948,84.053 174.348,84.053 176.001 C 84.053 177.656,84.428 178.061,104.830 198.479 C 116.258 209.916,126.146 219.495,126.804 219.768 C 127.712 220.144,128.288 220.144,129.196 219.768 C 129.854 219.495,139.742 209.916,151.170 198.479 C 171.572 178.061,171.947 177.656,171.947 176.001 C 171.947 174.348,171.579 173.948,152.857 155.208 L 133.767 136.101 150.934 118.934 L 168.101 101.767 187.208 120.857 C 205.948 139.579,206.348 139.947,208.001 139.947 C 209.656 139.947,210.061 139.572,230.479 119.170 C 241.916 107.742,251.495 97.854,251.768 97.196 C 252.144 96.288,252.144 95.712,251.768 94.804 C 251.495 94.146,241.916 84.258,230.479 72.830 C 210.061 52.428,209.656 52.053,208.001 52.053 C 206.348 52.053,205.948 52.421,187.213 71.138 L 168.111 90.223 149.229 71.381 C 136.699 58.879,129.952 52.442,129.173 52.250 C 128.528 52.091,127.472 52.091,126.827 52.250 C 126.048 52.442,119.301 58.879,106.771 71.381 L 87.889 90.223 68.787 71.138 C 50.052 52.421,49.652 52.053,47.999 52.053 C 46.344 52.053,45.939 52.428,25.521 72.830 M65.067 113.067 L 48.003 130.135 30.936 113.068 L 13.869 96.001 30.933 78.933 L 47.997 61.865 65.064 78.932 L 82.131 95.999 65.067 113.067 M145.281 78.934 L 162.344 96.001 145.172 113.173 L 128.000 130.345 110.828 113.173 L 93.656 96.001 110.719 78.934 C 120.104 69.547,127.880 61.867,128.000 61.867 C 128.120 61.867,135.896 69.547,145.281 78.934 M225.067 113.067 L 208.003 130.135 190.936 113.068 L 173.869 96.001 190.933 78.933 L 207.997 61.865 225.064 78.932 L 242.131 95.999 225.067 113.067 M145.175 159.042 L 162.133 176.004 145.067 193.067 L 128.000 210.129 110.933 193.067 L 93.867 176.004 110.825 159.042 C 120.152 149.713,127.880 142.080,128.000 142.080 C 128.120 142.080,135.848 149.713,145.175 159.042 " stroke="none" fill-rule="evenodd"></path></svg>