<svg fill="currentColor" viewBox="0 0 256 256" xmlns="http://www.w3.org/2000/svg"><path d="M125.486 21.147 L 124.187 22.240 124.061 91.227 C 123.941 156.773,123.896 160.330,123.154 162.560 C 120.499 170.531,114.406 176.656,106.793 179.008 C 95.850 182.388,83.563 176.876,78.494 166.312 C 75.165 159.375,75.263 152.223,78.784 145.067 C 80.638 141.300,84.368 137.326,87.948 135.306 C 92.319 132.839,91.929 135.198,92.076 110.356 C 92.166 95.303,92.060 88.032,91.734 86.916 C 91.383 85.712,90.882 85.117,89.778 84.591 C 88.389 83.928,88.059 83.932,84.583 84.655 C 76.698 86.294,68.078 90.044,60.309 95.215 C 53.919 99.468,45.274 108.117,41.011 114.521 C 35.383 122.977,31.441 132.200,29.345 141.819 C 28.531 145.557,28.404 147.444,28.396 155.947 C 28.388 164.547,28.505 166.296,29.341 170.097 C 31.762 181.109,36.266 191.085,42.600 199.467 C 45.451 203.239,51.784 209.635,55.680 212.678 C 64.504 219.567,74.413 224.148,85.903 226.649 C 89.641 227.463,91.565 227.596,99.840 227.610 C 108.311 227.625,109.985 227.510,114.068 226.636 C 140.876 220.898,161.767 201.644,169.136 175.885 C 171.783 166.633,171.947 164.283,171.947 135.496 C 171.947 121.282,172.022 109.653,172.114 109.653 C 172.206 109.653,173.834 110.527,175.732 111.594 C 188.555 118.805,203.714 123.058,219.733 123.938 C 224.184 124.183,224.767 124.128,226.005 123.350 C 226.952 122.755,227.513 121.961,227.838 120.755 C 228.155 119.577,228.265 112.499,228.179 98.771 L 228.053 78.525 226.908 77.380 C 225.862 76.335,225.360 76.206,221.148 75.898 C 213.131 75.312,207.820 73.878,200.747 70.389 C 187.393 63.803,177.400 51.388,173.665 36.743 C 173.163 34.775,172.509 30.666,172.211 27.611 C 171.703 22.408,171.595 21.994,170.504 21.055 L 169.339 20.053 148.062 20.053 L 126.785 20.053 125.486 21.147 M164.594 32.122 C 165.802 41.685,169.997 51.892,176.047 59.989 C 178.401 63.139,183.709 68.542,187.155 71.294 C 194.728 77.344,206.692 82.419,215.680 83.394 C 217.088 83.547,218.672 83.761,219.200 83.871 L 220.160 84.070 220.160 100.092 L 220.160 116.115 217.707 115.851 C 207.042 114.702,201.299 113.495,193.280 110.716 C 187.225 108.618,179.529 104.811,173.949 101.155 C 169.278 98.094,167.761 97.603,165.955 98.570 C 164.046 99.591,164.066 99.284,163.811 133.120 C 163.578 164.052,163.532 165.489,162.656 169.256 C 159.762 181.703,154.132 192.080,145.546 200.791 C 135.789 210.691,124.382 216.642,110.293 219.181 C 105.002 220.135,94.937 220.114,89.387 219.138 C 80.336 217.546,70.148 213.280,62.595 207.920 C 58.175 204.783,51.300 197.900,48.080 193.387 C 41.224 183.776,37.041 172.111,36.340 160.640 C 35.559 147.855,37.815 136.968,43.541 125.897 C 50.272 112.881,60.882 102.672,73.957 96.632 C 76.490 95.461,83.213 93.013,83.894 93.013 C 83.982 93.013,84.053 100.961,84.053 110.676 L 84.053 128.338 81.926 129.703 C 78.604 131.835,73.767 137.266,71.766 141.110 C 69.143 146.154,68.117 150.306,68.103 155.947 C 68.068 169.477,76.117 181.143,88.747 185.871 C 97.620 189.193,106.381 188.660,114.785 184.288 C 122.832 180.101,128.453 172.973,131.078 163.627 L 132.037 160.213 132.167 94.187 L 132.297 28.160 148.196 28.160 L 164.094 28.160 164.594 32.122 " stroke="none" fill-rule="evenodd"></path></svg>