<svg fill="currentColor" viewBox="0 0 256 256" xmlns="http://www.w3.org/2000/svg"><path d="M57.557 36.884 C 41.044 41.439,27.224 63.477,22.225 93.227 C 20.544 103.233,20.267 107.077,20.270 120.320 C 20.274 134.196,20.691 139.019,22.852 150.187 C 26.968 171.457,36.084 189.356,47.037 197.668 C 50.889 200.592,53.623 201.971,57.887 203.141 C 61.944 204.254,67.385 204.089,71.687 202.724 C 81.812 199.509,91.501 188.871,97.969 173.868 L 99.808 169.603 99.931 190.082 L 100.053 210.560 101.062 212.790 C 102.303 215.535,104.964 218.056,107.758 219.134 C 109.795 219.919,111.852 219.947,168.320 219.947 L 226.773 219.947 229.207 218.752 C 231.801 217.478,233.279 216.000,234.794 213.170 L 235.733 211.413 235.733 159.360 C 235.733 104.710,235.740 104.920,233.775 93.227 C 228.749 63.320,214.863 41.285,198.255 36.863 C 195.132 36.031,60.576 36.052,57.557 36.884 M69.952 45.179 C 83.763 50.427,95.031 72.317,98.805 101.229 C 99.747 108.448,100.073 124.226,99.443 132.088 C 98.521 143.580,95.827 156.740,92.592 165.547 C 87.456 179.528,79.760 190.105,71.915 193.960 C 68.620 195.580,68.397 195.627,64.000 195.627 C 59.603 195.627,59.380 195.580,56.085 193.960 C 48.240 190.105,40.544 179.528,35.408 165.547 C 32.170 156.731,29.479 143.583,28.554 132.053 C 27.929 124.260,28.278 107.630,29.209 100.907 C 33.434 70.373,45.225 48.691,59.840 44.579 C 62.688 43.777,66.925 44.029,69.952 45.179 M196.036 44.600 C 203.440 46.529,210.084 52.903,215.849 63.609 C 222.201 75.405,226.768 93.565,227.682 110.665 L 227.970 116.053 217.262 116.053 C 206.769 116.053,206.532 116.073,205.449 117.013 C 204.801 117.577,204.243 118.610,204.099 119.515 C 203.892 120.816,204.055 121.282,205.145 122.501 L 206.435 123.947 217.138 124.074 L 227.840 124.202 227.840 166.880 L 227.840 209.559 226.593 210.806 L 225.346 212.053 168.332 212.053 C 106.357 212.053,109.577 212.179,108.456 209.719 C 108.072 208.875,107.947 198.205,107.947 166.380 L 107.947 124.160 118.208 124.160 C 126.526 124.160,128.705 124.038,129.715 123.516 C 132.203 122.229,132.614 119.322,130.593 117.301 L 129.346 116.053 118.707 116.053 L 108.068 116.053 107.765 110.827 C 106.203 83.795,97.945 59.686,85.861 46.877 L 83.097 43.947 138.312 43.947 C 186.516 43.947,193.846 44.030,196.036 44.600 M59.679 113.436 C 54.355 116.812,54.976 124.561,60.782 127.198 C 62.971 128.192,65.029 128.192,67.218 127.198 C 75.047 123.642,72.593 112.213,64.000 112.213 C 62.099 112.213,61.211 112.465,59.679 113.436 M157.473 117.158 C 155.219 119.055,155.840 122.540,158.638 123.700 C 159.498 124.056,162.547 124.170,168.718 124.078 L 177.565 123.947 178.856 122.501 C 179.945 121.282,180.108 120.816,179.901 119.515 C 179.757 118.610,179.199 117.577,178.551 117.013 C 177.477 116.081,177.179 116.053,168.116 116.053 L 158.785 116.053 157.473 117.158 " stroke="none" fill-rule="evenodd"></path></svg>