<svg fill="currentColor" viewBox="0 0 256 256" xmlns="http://www.w3.org/2000/svg"><path d="M118.613 28.464 C 110.565 29.114,98.652 32.003,90.782 35.214 C 59.612 47.931,37.421 74.312,30.138 107.307 C 27.496 119.279,27.496 136.721,30.138 148.693 C 34.441 168.185,43.446 184.693,57.377 198.623 C 71.307 212.554,87.815 221.559,107.307 225.862 C 119.279 228.504,136.721 228.504,148.693 225.862 C 168.098 221.579,184.802 212.474,198.638 198.638 C 214.932 182.343,224.819 161.762,227.445 138.671 C 228.165 132.336,227.709 117.227,226.621 111.360 C 223.614 95.153,217.576 81.024,208.365 68.641 C 191.765 46.323,167.094 32.009,139.708 28.805 C 134.728 28.223,123.794 28.046,118.613 28.464 M141.450 37.088 C 151.293 38.536,159.191 40.985,168.320 45.421 C 195.814 58.779,214.837 85.062,219.065 115.535 C 219.837 121.096,219.960 133.911,219.290 138.956 C 216.572 159.430,208.181 177.095,194.306 191.550 C 186.556 199.624,178.023 205.880,168.394 210.544 C 146.182 221.305,122.141 222.924,98.987 215.218 C 75.515 207.406,56.191 190.487,45.421 168.320 C 38.959 155.019,36.271 143.174,36.271 128.000 C 36.271 112.826,38.959 100.981,45.421 87.680 C 58.548 60.660,84.406 41.633,114.133 37.120 C 121.418 36.014,134.048 35.999,141.450 37.088 M69.243 101.227 C 68.760 101.755,68.238 102.605,68.084 103.115 C 67.721 104.312,68.799 106.891,69.909 107.486 C 70.420 107.759,73.470 107.947,77.412 107.947 L 84.053 107.947 84.053 130.678 C 84.053 155.781,83.945 154.782,86.767 155.713 C 88.436 156.264,89.829 155.860,91.093 154.458 C 91.921 153.539,91.950 152.824,92.064 130.729 L 92.182 107.947 98.817 107.947 L 105.452 107.947 106.699 106.699 C 108.329 105.070,108.413 102.827,106.899 101.314 L 105.852 100.267 87.987 100.267 L 70.122 100.267 69.243 101.227 M125.207 101.314 L 124.160 102.361 124.160 128.000 L 124.160 153.639 125.190 154.669 C 126.603 156.081,128.063 156.370,129.648 155.550 C 132.062 154.302,132.036 154.519,132.267 134.068 L 132.480 115.177 143.087 127.321 C 148.920 134.000,153.976 139.573,154.322 139.706 C 155.431 140.131,157.226 139.964,158.092 139.353 C 158.555 139.027,163.637 133.372,169.387 126.787 L 179.840 114.813 180.053 134.355 C 180.286 155.640,180.186 154.862,182.799 155.724 C 184.436 156.264,185.838 155.851,187.093 154.458 C 187.927 153.533,187.947 152.910,187.947 127.918 L 187.947 102.326 186.750 101.296 C 185.909 100.574,185.036 100.267,183.820 100.267 C 181.772 100.267,183.236 98.780,167.680 116.658 C 161.461 123.805,156.244 129.665,156.086 129.679 C 155.928 129.694,150.483 123.611,143.987 116.160 C 137.490 108.709,131.617 102.085,130.934 101.440 C 129.267 99.864,126.713 99.808,125.207 101.314 " stroke="none" fill-rule="evenodd"></path></svg>