<svg fill="currentColor" viewBox="0 0 256 256" xmlns="http://www.w3.org/2000/svg"><path d="M66.459 28.582 C 63.472 29.489,60.529 32.173,59.200 35.204 C 58.789 36.140,53.366 55.627,47.148 78.507 L 35.844 120.107 47.182 161.707 C 53.418 184.587,58.865 204.092,59.286 205.051 C 60.284 207.326,62.788 209.799,65.242 210.934 C 67.017 211.755,68.164 211.860,77.520 212.053 L 87.839 212.267 77.968 225.433 C 66.868 240.237,66.777 240.423,69.520 242.874 C 70.704 243.932,71.194 244.105,72.431 243.905 C 73.250 243.772,74.231 243.376,74.613 243.026 C 74.994 242.675,80.395 235.571,86.613 227.238 L 97.920 212.088 128.002 212.071 L 158.084 212.053 169.907 227.818 C 180.949 242.542,181.831 243.601,183.276 243.872 C 186.011 244.385,188.685 241.480,187.804 238.953 C 187.571 238.284,183.050 231.970,177.758 224.922 L 168.137 212.108 178.468 211.974 C 187.937 211.851,188.964 211.764,190.758 210.934 C 192.941 209.925,195.485 207.577,196.478 205.657 C 196.837 204.963,202.307 185.419,208.634 162.226 L 220.137 120.057 208.845 78.482 C 202.634 55.615,197.128 35.982,196.610 34.852 C 195.618 32.688,193.428 30.434,191.065 29.144 C 189.724 28.412,186.592 28.370,128.640 28.300 C 95.083 28.260,67.101 28.387,66.459 28.582 M187.928 36.532 C 188.307 36.677,188.876 37.301,189.190 37.918 C 189.973 39.455,210.944 116.452,210.657 116.738 C 210.531 116.865,191.882 120.340,169.214 124.462 L 128.000 131.956 86.786 124.462 C 64.118 120.340,45.466 116.862,45.337 116.732 C 45.046 116.441,66.020 39.476,66.818 37.905 C 67.136 37.281,67.639 36.672,67.938 36.552 C 68.723 36.236,187.105 36.216,187.928 36.532 M93.473 85.158 C 91.324 86.966,91.737 90.198,94.285 91.516 C 96.164 92.487,159.836 92.487,161.715 91.516 C 164.263 90.198,164.676 86.966,162.527 85.158 L 161.215 84.053 128.000 84.053 L 94.785 84.053 93.473 85.158 M88.107 132.851 L 123.947 139.364 124.056 171.655 L 124.165 203.947 96.453 203.947 L 68.741 203.947 67.630 202.987 C 66.644 202.134,65.379 197.845,56.309 164.592 C 50.694 144.003,45.983 126.697,45.842 126.135 L 45.586 125.113 48.926 125.725 C 50.763 126.062,68.395 129.268,88.107 132.851 M199.905 163.840 C 190.643 197.768,189.357 202.134,188.370 202.987 L 187.259 203.947 159.763 203.947 L 132.267 203.947 132.268 171.627 L 132.269 139.307 171.201 132.233 C 192.614 128.342,210.177 125.270,210.231 125.406 C 210.285 125.542,205.638 142.837,199.905 163.840 " stroke="none" fill-rule="evenodd"></path></svg>