<svg fill="currentColor" viewBox="0 0 256 256" xmlns="http://www.w3.org/2000/svg"><path d="M85.158 29.473 L 84.053 30.785 84.053 41.419 L 84.053 52.053 53.301 52.053 L 22.548 52.053 21.301 53.301 C 19.968 54.633,19.662 56.498,20.514 58.091 C 21.645 60.203,20.626 60.160,69.867 60.160 L 115.868 60.160 115.510 64.533 C 113.945 83.660,105.763 102.249,92.095 117.730 L 88.166 122.181 84.750 118.584 C 76.944 110.364,70.571 100.218,66.141 88.960 C 65.403 87.083,64.379 85.215,63.866 84.809 C 62.456 83.695,59.911 83.837,58.647 85.101 C 57.282 86.466,57.292 88.253,58.686 91.958 C 62.760 102.780,69.497 113.622,78.213 123.381 L 81.899 127.508 79.024 129.640 C 71.102 135.512,62.515 140.011,53.333 143.098 C 44.562 146.047,33.215 148.053,25.309 148.053 C 22.826 148.053,22.422 148.179,21.301 149.301 C 19.063 151.538,19.845 154.749,22.872 155.748 C 25.272 156.540,35.120 155.710,43.886 153.975 C 58.581 151.068,73.437 144.237,85.316 134.925 L 88.073 132.764 90.071 134.437 C 94.055 137.772,101.896 142.669,108.160 145.733 C 118.433 150.758,129.551 154.030,140.800 155.340 C 143.264 155.627,145.339 155.908,145.411 155.964 C 145.483 156.020,138.907 169.335,130.797 185.552 C 121.957 203.231,116.057 215.508,116.063 216.212 C 116.081 218.450,118.567 220.425,120.760 219.944 C 121.444 219.793,122.441 219.139,122.975 218.489 C 123.509 217.839,127.208 210.749,131.195 202.733 L 138.443 188.160 176.000 188.160 L 213.556 188.160 221.018 203.115 C 225.122 211.340,228.864 218.422,229.333 218.852 C 230.632 220.044,231.892 220.261,233.534 219.575 C 235.182 218.887,235.947 217.796,235.947 216.134 C 235.947 214.885,180.012 102.697,178.656 101.227 C 178.012 100.527,177.290 100.267,176.000 100.267 C 174.710 100.267,173.988 100.527,173.344 101.227 C 172.857 101.755,167.331 112.459,161.063 125.013 C 154.794 137.568,149.591 147.920,149.499 148.018 C 149.150 148.391,138.659 147.131,133.616 146.111 C 126.457 144.663,119.143 142.158,112.000 138.706 C 106.263 135.934,96.671 129.929,94.972 128.046 C 94.160 127.146,94.167 127.133,96.921 124.265 C 111.902 108.665,122.199 85.527,123.587 64.344 L 123.860 60.191 138.686 60.069 C 152.819 59.952,153.556 59.907,154.458 59.093 C 155.851 57.838,156.264 56.435,155.725 54.800 C 154.772 51.913,156.465 52.053,122.682 52.053 L 92.160 52.053 92.160 41.792 C 92.160 33.474,92.038 31.295,91.516 30.285 C 90.198 27.737,86.966 27.324,85.158 29.473 M192.807 146.667 L 209.494 180.053 176.001 180.053 L 142.507 180.053 159.241 146.583 C 168.444 128.174,176.007 113.150,176.047 113.196 C 176.087 113.242,183.629 128.304,192.807 146.667 " stroke="none" fill-rule="evenodd"></path></svg>