<svg fill="currentColor" viewBox="0 0 256 256" xmlns="http://www.w3.org/2000/svg"><path d="M99.200 20.646 C 94.064 21.898,88.396 26.370,86.202 30.901 C 84.434 34.554,84.064 36.935,84.058 44.693 L 84.053 52.053 61.425 52.053 C 36.378 52.053,37.212 51.962,36.275 54.800 C 35.736 56.435,36.149 57.838,37.541 59.093 C 38.388 59.857,39.198 59.961,45.270 60.083 L 52.053 60.219 52.053 135.428 L 52.053 210.637 53.358 213.248 C 54.801 216.135,56.414 217.709,59.307 219.054 L 61.227 219.947 128.000 219.947 L 194.773 219.947 197.207 218.752 C 199.801 217.478,201.279 216.000,202.794 213.170 L 203.733 211.413 203.845 135.816 L 203.956 60.219 210.734 60.083 C 216.802 59.961,217.612 59.857,218.459 59.093 C 219.851 57.838,220.264 56.435,219.725 54.800 C 218.788 51.962,219.622 52.053,194.575 52.053 L 171.947 52.053 171.942 44.693 C 171.935 34.520,170.962 31.224,166.564 26.474 C 163.980 23.683,159.793 21.270,156.246 20.527 C 152.943 19.835,102.090 19.941,99.200 20.646 M156.575 29.044 C 159.652 30.440,161.123 31.819,162.524 34.622 L 163.840 37.256 163.840 44.655 L 163.840 52.053 128.000 52.053 L 92.160 52.053 92.169 44.693 C 92.178 38.223,92.283 37.103,93.044 35.425 C 94.440 32.348,95.819 30.877,98.622 29.476 L 101.256 28.160 127.961 28.169 C 153.869 28.178,154.724 28.205,156.575 29.044 M195.840 134.859 L 195.840 209.559 194.593 210.806 L 193.346 212.053 128.000 212.053 L 62.654 212.053 61.407 210.806 L 60.160 209.559 60.160 134.859 L 60.160 60.160 128.000 60.160 L 195.840 60.160 195.840 134.859 M101.088 101.368 L 100.053 102.468 99.929 134.754 C 99.861 152.511,99.922 167.685,100.064 168.474 C 100.681 171.887,104.299 173.100,106.699 170.699 L 107.947 169.452 107.947 135.907 L 107.947 102.361 106.899 101.314 C 105.399 99.814,102.523 99.840,101.088 101.368 M149.101 101.314 L 148.053 102.361 148.053 135.907 L 148.053 169.452 149.301 170.699 C 151.701 173.100,155.319 171.887,155.936 168.474 C 156.078 167.685,156.139 152.511,156.071 134.754 L 155.947 102.468 154.912 101.368 C 153.477 99.840,150.601 99.814,149.101 101.314 " stroke="none" fill-rule="evenodd"></path></svg>