<svg fill="currentColor" viewBox="0 0 256 256" xmlns="http://www.w3.org/2000/svg"><path d="M184.107 36.292 C 179.198 36.627,174.030 37.614,169.409 39.100 C 164.598 40.647,156.459 44.828,152.003 48.042 C 146.928 51.702,139.595 59.281,136.160 64.416 C 133.394 68.551,129.802 75.346,128.880 78.187 C 128.594 79.067,128.198 79.787,128.000 79.787 C 127.802 79.787,127.410 79.067,127.130 78.187 C 126.051 74.802,121.392 66.480,118.184 62.207 C 108.405 49.184,95.131 40.662,79.307 37.250 C 74.136 36.136,59.745 36.150,54.613 37.275 C 42.763 39.874,32.112 45.453,23.718 53.458 C 20.425 56.598,20.046 57.119,20.050 58.502 C 20.052 59.376,20.411 60.499,20.878 61.093 C 21.471 61.847,31.296 66.312,55.857 76.990 C 74.643 85.156,89.926 91.978,89.820 92.150 C 89.714 92.321,88.313 92.584,86.708 92.733 C 79.803 93.375,69.286 96.935,62.171 101.039 C 56.682 104.204,53.354 106.696,48.800 111.050 C 37.785 121.580,30.752 135.347,28.587 150.614 C 27.461 158.547,28.579 173.303,30.622 177.478 C 31.483 179.238,33.252 180.223,34.895 179.856 C 35.532 179.714,55.829 164.534,80.000 146.124 L 123.947 112.650 124.160 169.429 L 124.373 226.209 125.381 227.024 C 126.476 227.911,128.850 228.100,130.152 227.404 C 132.106 226.357,132.042 228.148,132.267 169.027 L 132.480 112.987 176.213 146.317 C 200.267 164.649,220.406 179.766,220.967 179.912 C 222.353 180.271,223.964 179.632,224.915 178.347 C 225.993 176.891,227.362 170.315,227.741 164.783 C 228.589 152.387,226.468 141.184,221.223 130.347 C 213.827 115.068,201.333 103.410,185.531 97.043 C 180.705 95.099,173.701 93.202,169.813 92.786 C 168.523 92.648,166.999 92.438,166.427 92.320 C 165.667 92.162,174.588 88.106,199.707 77.190 C 223.514 66.844,234.321 61.944,234.987 61.194 C 235.612 60.489,235.948 59.563,235.949 58.536 C 235.951 57.117,235.596 56.618,232.382 53.528 C 226.931 48.286,219.879 43.692,212.799 40.773 C 204.002 37.145,194.152 35.606,184.107 36.292 M78.103 45.231 C 101.085 49.915,119.178 69.369,123.099 93.613 C 123.439 95.717,123.661 97.495,123.591 97.564 C 123.473 97.683,33.096 58.443,31.746 57.688 C 31.281 57.428,31.845 56.809,34.017 55.197 C 42.065 49.224,50.984 45.599,60.587 44.398 C 65.093 43.834,73.122 44.216,78.103 45.231 M194.560 44.384 C 204.539 45.425,213.670 49.025,221.983 55.197 C 224.384 56.979,224.753 57.409,224.162 57.740 C 222.911 58.440,132.559 97.715,132.460 97.602 C 132.213 97.320,133.228 91.522,134.171 87.829 C 138.312 71.613,149.920 57.051,164.480 49.807 C 173.849 45.145,184.113 43.295,194.560 44.384 M106.027 100.951 C 109.778 101.530,117.943 103.877,119.776 104.903 C 120.274 105.182,118.162 106.997,110.881 112.552 C 105.630 116.558,86.837 130.881,69.120 144.381 L 36.907 168.927 36.588 167.557 C 35.967 164.886,36.154 153.963,36.897 149.547 C 41.424 122.632,64.310 102.007,91.520 100.318 C 97.039 99.976,100.758 100.138,106.027 100.951 M170.027 100.968 C 194.663 104.771,214.964 124.867,219.100 149.547 C 219.838 153.950,220.025 164.876,219.408 167.552 L 219.093 168.918 186.880 144.377 C 169.163 130.880,150.370 116.559,145.119 112.553 C 138.496 107.500,135.751 105.169,136.159 104.945 C 136.482 104.768,138.424 104.033,140.473 103.312 C 149.650 100.086,159.333 99.318,170.027 100.968 " stroke="none" fill-rule="evenodd"></path></svg>