<svg fill="currentColor" viewBox="0 0 256 256" xmlns="http://www.w3.org/2000/svg"><path d="M161.813 44.402 C 152.402 45.625,143.605 50.125,136.713 57.241 C 131.087 63.050,127.921 68.440,125.599 76.160 C 124.528 79.721,124.431 80.693,124.260 89.533 L 124.077 99.066 122.518 98.781 C 119.618 98.252,113.305 96.363,107.963 94.427 C 87.541 87.025,66.456 73.770,46.187 55.592 C 41.763 51.625,40.334 51.164,38.184 53.014 C 36.574 54.399,36.181 58.083,36.151 72.107 C 36.116 87.644,37.301 98.102,40.560 111.030 C 47.127 137.082,60.980 159.885,79.042 174.375 L 82.334 177.016 81.201 178.428 C 73.017 188.623,57.918 199.607,42.569 206.532 C 37.164 208.970,36.427 209.500,36.050 211.213 C 35.698 212.818,36.573 214.412,39.109 216.784 C 44.555 221.877,54.472 225.633,66.743 227.250 C 70.770 227.780,74.266 227.881,82.773 227.710 C 96.261 227.439,104.433 226.265,116.053 222.930 C 143.764 214.975,168.350 198.080,185.593 175.147 C 199.916 156.097,208.653 134.337,211.380 110.928 L 211.993 105.665 227.822 89.832 C 245.410 72.238,245.305 72.379,242.991 69.630 L 241.844 68.267 224.646 68.267 L 207.448 68.267 205.514 65.173 C 196.189 50.260,179.128 42.150,161.813 44.402 M177.067 53.330 C 186.699 56.051,194.978 62.454,199.356 70.569 C 200.355 72.422,201.633 74.390,202.196 74.943 L 203.218 75.947 216.693 75.947 L 230.168 75.947 217.534 88.640 C 210.586 95.621,204.706 101.717,204.468 102.187 C 204.230 102.656,203.903 104.576,203.740 106.453 C 201.338 134.164,189.695 160.146,170.389 180.876 C 155.131 197.259,133.423 210.177,111.549 215.890 C 89.145 221.741,64.618 221.296,50.788 214.787 L 47.603 213.288 52.068 210.928 C 68.234 202.385,80.774 192.379,89.019 181.444 C 91.760 177.809,92.361 176.372,91.781 174.845 C 91.548 174.232,89.543 172.399,87.177 170.637 C 84.872 168.919,80.479 165.007,77.413 161.944 C 60.330 144.869,49.694 122.558,45.672 95.360 C 44.581 87.981,43.706 72.597,44.127 68.191 L 44.440 64.915 48.522 68.347 C 67.416 84.232,89.345 96.859,109.653 103.544 C 115.205 105.372,123.586 107.456,126.760 107.797 C 128.987 108.037,129.243 107.968,130.600 106.756 L 132.053 105.457 132.315 93.155 C 132.607 79.471,132.795 78.305,135.673 72.320 C 140.534 62.209,149.405 55.251,160.647 52.732 C 164.749 51.813,172.723 52.103,177.067 53.330 " stroke="none" fill-rule="evenodd"></path></svg>