<svg fill="currentColor" viewBox="0 0 256 256" xmlns="http://www.w3.org/2000/svg"><path d="M105.071 57.285 C 85.108 77.248,84.053 78.380,84.053 79.841 C 84.053 82.789,87.174 84.891,89.662 83.617 C 90.214 83.334,98.203 75.592,107.413 66.412 L 124.160 49.721 124.160 101.680 L 124.160 153.639 125.190 154.669 C 125.756 155.235,126.713 155.822,127.315 155.973 C 128.898 156.371,131.081 154.970,131.709 153.152 C 132.092 152.045,132.224 139.086,132.243 100.914 L 132.267 50.148 148.800 66.625 C 157.893 75.688,165.786 83.334,166.338 83.617 C 168.826 84.891,171.947 82.789,171.947 79.841 C 171.947 78.380,170.892 77.248,150.929 57.285 L 129.910 36.267 128.000 36.267 L 126.090 36.267 105.071 57.285 M37.424 149.074 C 36.818 149.635,36.205 150.739,36.062 151.527 C 35.918 152.315,35.858 165.920,35.927 181.760 L 36.053 210.560 37.062 212.790 C 38.303 215.535,40.964 218.056,43.758 219.134 C 45.806 219.923,48.242 219.947,128.000 219.947 C 207.758 219.947,210.194 219.923,212.242 219.134 C 215.036 218.056,217.697 215.535,218.938 212.790 L 219.947 210.560 220.073 181.760 C 220.142 165.920,220.082 152.315,219.938 151.527 C 219.329 148.182,215.653 146.948,213.301 149.301 L 212.053 150.548 212.053 179.615 C 212.053 211.164,212.105 210.456,209.719 211.544 C 208.864 211.933,189.572 212.053,127.959 212.053 C 40.243 212.053,45.588 212.203,44.456 209.719 C 44.077 208.886,43.947 201.169,43.947 179.574 L 43.947 150.548 42.699 149.301 C 41.100 147.701,39.002 147.611,37.424 149.074 " stroke="none" fill-rule="evenodd"></path></svg>