<svg fill="currentColor" viewBox="0 0 256 256" xmlns="http://www.w3.org/2000/svg"><path d="M73.600 60.441 C 67.650 61.385,60.166 64.359,55.121 67.785 C 44.659 74.889,37.771 86.502,36.221 99.648 C 35.098 109.172,37.939 120.173,43.765 128.856 C 46.312 132.653,53.212 139.278,56.648 141.227 C 58.096 142.048,59.287 142.826,59.294 142.956 C 59.301 143.086,57.916 143.640,56.217 144.187 C 51.829 145.601,43.153 150.129,38.400 153.488 C 32.440 157.700,25.198 165.127,21.224 171.102 C 19.426 173.806,17.204 177.646,16.286 179.636 C 14.468 183.574,11.947 190.814,11.947 192.095 C 11.947 193.419,13.091 195.215,14.281 195.757 C 17.309 197.136,19.047 195.603,20.829 189.981 C 27.246 169.739,45.216 154.073,67.546 149.254 C 73.826 147.899,86.174 147.899,92.454 149.254 C 114.786 154.073,132.754 169.738,139.173 189.986 C 140.651 194.648,141.652 195.840,144.090 195.840 C 145.860 195.840,148.053 193.892,148.053 192.320 C 148.053 190.642,145.556 183.562,143.351 178.987 C 136.871 165.542,125.571 154.423,111.216 147.365 C 108.672 146.115,105.264 144.664,103.642 144.142 C 102.020 143.619,100.699 143.086,100.706 142.956 C 100.713 142.826,101.904 142.048,103.352 141.227 C 106.788 139.278,113.688 132.653,116.235 128.856 C 122.061 120.173,124.902 109.172,123.779 99.648 C 121.898 83.699,112.799 70.987,98.399 64.191 C 92.433 61.375,88.403 60.482,81.067 60.350 C 77.664 60.288,74.304 60.329,73.600 60.441 M87.893 68.920 C 100.944 71.938,111.348 81.990,114.817 94.933 C 116.053 99.544,116.151 107.635,115.028 112.213 C 112.216 123.670,103.884 133.319,93.255 137.429 C 72.669 145.389,50.240 133.676,44.972 112.213 C 43.849 107.635,43.947 99.544,45.183 94.933 C 48.607 82.158,58.562 72.370,71.467 69.089 C 75.330 68.107,83.990 68.018,87.893 68.920 M150.091 76.612 C 147.822 77.843,147.355 80.634,149.083 82.643 L 150.113 83.840 199.630 83.952 L 249.148 84.064 250.526 82.833 C 252.462 81.102,252.465 78.900,250.532 77.173 L 249.160 75.947 200.207 75.964 C 157.837 75.979,151.097 76.066,150.091 76.612 M149.158 125.473 C 147.685 127.224,147.730 128.905,149.298 130.660 L 150.543 132.053 198.944 132.169 C 237.191 132.260,247.689 132.171,248.984 131.742 C 252.125 130.703,252.954 127.476,250.669 125.190 L 249.639 124.160 199.951 124.160 L 150.263 124.160 149.158 125.473 M174.127 172.542 C 172.993 173.171,171.985 174.740,171.962 175.915 C 171.937 177.191,173.094 179.003,174.281 179.544 C 175.121 179.926,184.596 180.053,212.280 180.053 L 249.160 180.053 250.532 178.827 C 252.462 177.103,252.462 174.897,250.532 173.173 L 249.160 171.947 212.153 171.962 C 182.256 171.974,174.951 172.085,174.127 172.542 " stroke="none" fill-rule="evenodd"></path></svg>