<svg fill="currentColor" viewBox="0 0 256 256" xmlns="http://www.w3.org/2000/svg"><path d="M37.333 44.345 C 33.767 45.223,30.543 47.891,29.047 51.200 C 28.187 53.101,28.179 53.705,28.174 112.000 L 28.168 170.880 29.169 173.030 C 30.463 175.808,33.610 178.585,36.406 179.415 C 38.283 179.973,49.859 180.053,128.000 180.053 C 206.525 180.053,217.710 179.975,219.614 179.409 C 222.489 178.555,225.704 175.651,227.035 172.706 L 228.053 170.453 228.053 112.213 C 228.053 56.110,228.024 53.897,227.246 51.881 C 226.207 49.187,223.976 46.737,221.254 45.300 L 219.093 44.160 128.853 44.095 C 79.221 44.059,38.037 44.171,37.333 44.345 M218.247 52.737 C 218.821 53.113,219.485 54.121,219.723 54.977 C 220.326 57.147,220.317 166.882,219.714 169.054 C 218.837 172.214,227.331 171.947,127.886 171.947 L 38.361 171.947 37.314 170.899 L 36.267 169.852 36.267 111.999 L 36.267 54.146 37.396 53.100 L 38.525 52.053 127.864 52.053 C 209.105 52.053,217.298 52.115,218.247 52.737 M110.127 76.542 C 107.918 77.767,107.978 76.783,107.962 111.873 C 107.950 136.366,108.075 144.881,108.456 145.719 C 109.009 146.932,110.800 148.053,112.184 148.053 C 113.283 148.053,162.780 115.103,163.389 113.966 C 163.966 112.887,163.966 111.113,163.389 110.034 C 162.735 108.813,113.255 75.943,112.099 75.962 C 111.575 75.970,110.688 76.231,110.127 76.542 M152.436 111.762 C 152.617 111.927,144.505 117.568,134.409 124.298 L 116.053 136.534 116.053 111.998 L 116.053 87.462 134.080 99.463 C 143.995 106.063,152.255 111.598,152.436 111.762 M30.720 204.247 C 29.098 204.843,28.160 206.232,28.160 208.036 C 28.160 209.531,28.387 210.035,29.473 210.949 L 30.785 212.053 128.066 212.053 L 225.346 212.053 226.593 210.806 C 228.270 209.129,228.334 206.692,226.739 205.194 L 225.638 204.160 128.499 204.086 C 75.073 204.045,31.072 204.117,30.720 204.247 " stroke="none" fill-rule="evenodd"></path></svg>