<svg fill="currentColor" viewBox="0 0 256 256" xmlns="http://www.w3.org/2000/svg"><path d="M27.307 61.046 C 24.970 62.101,22.434 64.477,21.191 66.773 L 20.267 68.480 20.267 128.000 L 20.267 187.520 21.189 189.227 C 22.537 191.721,24.644 193.691,27.307 194.947 L 29.653 196.053 111.787 196.053 C 191.545 196.053,193.981 196.030,196.028 195.240 C 198.546 194.269,201.534 191.628,202.809 189.246 C 203.708 187.567,203.737 187.038,203.858 169.668 C 203.961 154.790,204.079 151.853,204.565 152.039 C 204.885 152.162,214.403 158.435,225.716 165.980 C 238.541 174.532,246.806 179.781,247.670 179.921 C 248.792 180.103,249.332 179.899,250.501 178.855 L 251.947 177.563 251.947 128.000 L 251.947 78.437 250.501 77.145 C 249.332 76.101,248.792 75.897,247.670 76.079 C 246.806 76.219,238.541 81.468,225.716 90.020 C 214.403 97.565,204.885 103.838,204.565 103.961 C 204.079 104.147,203.961 101.210,203.858 86.332 C 203.737 68.957,203.709 68.434,202.809 66.773 C 201.566 64.477,199.030 62.101,196.693 61.046 C 194.784 60.184,194.304 60.179,112.000 60.179 C 29.696 60.179,29.216 60.184,27.307 61.046 M194.793 69.314 L 195.840 70.361 195.840 127.795 C 195.840 166.371,195.696 185.499,195.401 186.050 C 194.209 188.277,198.843 188.160,112.000 188.160 C 25.157 188.160,29.791 188.277,28.599 186.050 C 28.304 185.499,28.160 166.371,28.160 127.795 L 28.160 70.361 29.207 69.314 L 30.255 68.267 112.000 68.267 L 193.745 68.267 194.793 69.314 M244.053 128.000 L 244.053 168.534 224.012 155.200 L 203.971 141.867 203.971 128.000 L 203.971 114.133 223.905 100.829 C 234.869 93.511,243.888 87.511,243.947 87.496 C 244.005 87.480,244.053 105.707,244.053 128.000 " stroke="none" fill-rule="evenodd"></path></svg>