<svg fill="currentColor" viewBox="0 0 256 256" xmlns="http://www.w3.org/2000/svg"><path d="M46.243 36.516 C 44.817 37.219,43.947 38.662,43.947 40.325 C 43.947 41.497,44.159 41.756,53.740 52.254 L 60.759 59.947 44.566 60.160 C 29.845 60.354,28.238 60.445,26.880 61.167 C 24.800 62.273,22.286 64.750,21.191 66.773 L 20.267 68.480 20.267 128.000 L 20.267 187.520 21.189 189.227 C 22.537 191.721,24.644 193.691,27.307 194.947 L 29.653 196.053 107.157 196.168 L 184.661 196.282 194.991 207.688 C 200.941 214.257,205.862 219.327,206.597 219.646 C 208.308 220.386,210.357 219.700,211.323 218.064 C 212.178 216.618,212.224 215.615,211.497 214.306 C 210.385 212.306,50.941 37.159,49.642 36.511 C 48.006 35.694,47.908 35.694,46.243 36.516 M110.274 61.207 C 109.527 61.954,109.227 62.723,109.227 63.886 C 109.227 66.012,110.155 67.276,112.119 67.821 C 113.159 68.110,127.482 68.263,153.659 68.264 C 192.357 68.267,193.644 68.292,194.619 69.082 L 195.627 69.898 195.840 115.555 L 196.053 161.211 197.047 162.269 C 198.319 163.623,199.967 163.936,201.648 163.144 C 203.529 162.258,203.947 160.977,203.947 156.094 C 203.947 152.580,204.055 151.844,204.547 152.032 C 204.877 152.159,214.403 158.435,225.716 165.980 C 238.541 174.532,246.806 179.781,247.670 179.921 C 248.792 180.103,249.332 179.899,250.501 178.855 L 251.947 177.563 251.947 128.000 L 251.947 78.437 250.501 77.145 C 249.332 76.101,248.792 75.897,247.670 76.079 C 246.806 76.219,238.541 81.468,225.716 90.020 C 214.403 97.565,204.885 103.838,204.565 103.961 C 204.079 104.147,203.961 101.210,203.858 86.332 C 203.737 68.957,203.709 68.434,202.809 66.773 C 201.566 64.477,199.030 62.101,196.693 61.046 C 194.806 60.193,194.073 60.179,153.047 60.169 L 111.321 60.160 110.274 61.207 M122.770 128.135 L 177.059 187.947 104.423 188.057 C 50.525 188.140,31.480 188.042,30.596 187.679 C 27.992 186.607,28.160 190.738,28.160 127.886 L 28.160 70.361 29.207 69.314 L 30.255 68.267 49.367 68.295 L 68.480 68.323 122.770 128.135 M244.053 128.000 L 244.053 168.534 224.012 155.200 L 203.971 141.867 203.971 128.000 L 203.971 114.133 223.905 100.829 C 234.869 93.511,243.888 87.511,243.947 87.496 C 244.005 87.480,244.053 105.707,244.053 128.000 " stroke="none" fill-rule="evenodd"></path></svg>