<svg fill="currentColor" viewBox="0 0 256 256" xmlns="http://www.w3.org/2000/svg"><path d="M118.613 28.450 C 84.007 31.997,54.036 52.491,38.648 83.131 C 31.579 97.206,28.115 111.922,28.086 128.000 C 28.057 143.797,31.576 158.787,38.592 172.757 L 40.491 176.538 34.307 195.042 C 28.358 212.848,28.129 213.659,28.267 216.533 C 28.581 223.123,32.877 227.419,39.467 227.733 C 42.340 227.871,43.152 227.642,60.923 221.704 L 79.392 215.533 84.176 217.831 C 93.021 222.081,102.453 225.079,112.427 226.813 C 118.388 227.849,133.830 228.090,140.160 227.245 C 162.580 224.253,182.668 214.497,198.185 199.065 C 206.568 190.728,212.572 182.418,217.592 172.201 C 224.477 158.190,227.840 143.684,227.840 128.000 C 227.840 83.174,198.441 44.252,155.190 31.818 C 150.680 30.522,143.683 29.173,138.453 28.593 C 134.878 28.196,121.992 28.103,118.613 28.450 M138.453 36.730 C 155.472 38.500,173.361 46.109,186.667 57.237 C 204.546 72.190,216.117 93.082,219.076 115.755 C 219.832 121.550,219.947 134.006,219.290 138.956 C 216.584 159.343,208.230 177.030,194.560 191.316 C 186.699 199.530,178.246 205.739,168.320 210.589 C 142.457 223.224,112.932 223.111,86.987 210.276 C 83.745 208.672,80.564 207.360,79.919 207.360 C 79.274 207.360,70.066 210.247,59.458 213.776 C 45.443 218.438,39.868 220.116,39.065 219.915 C 37.499 219.522,36.267 217.772,36.267 215.943 C 36.267 215.092,39.150 205.751,42.693 195.120 L 49.120 175.839 45.906 169.306 C 40.957 159.248,37.997 149.485,36.683 138.880 C 36.066 133.895,36.062 122.014,36.677 117.120 C 38.765 100.498,45.162 84.903,55.404 71.467 C 58.308 67.657,66.274 59.617,70.400 56.332 C 75.837 52.002,81.498 48.428,87.680 45.423 C 103.715 37.627,120.101 34.822,138.453 36.730 M95.147 69.149 C 83.277 72.248,73.830 80.999,70.001 92.441 C 68.101 98.117,67.623 102.884,68.235 110.060 C 70.043 131.269,78.772 149.846,93.712 164.278 C 100.659 170.989,107.064 175.456,115.718 179.626 C 125.200 184.196,134.763 186.790,145.701 187.759 C 151.538 188.277,155.456 188.085,159.937 187.063 C 173.263 184.025,184.072 173.213,187.054 159.937 C 188.127 155.159,188.295 152.190,187.588 150.496 C 186.979 149.039,186.121 148.549,170.286 140.615 C 157.436 134.177,153.255 132.267,152.010 132.267 C 150.649 132.267,149.044 133.169,141.752 138.034 L 133.107 143.802 131.727 143.094 C 124.995 139.643,118.033 132.908,113.924 125.874 L 112.192 122.908 117.941 114.254 C 121.103 109.494,123.809 105.105,123.953 104.501 C 124.160 103.633,122.463 99.892,115.876 86.696 C 111.289 77.508,107.149 69.602,106.675 69.128 C 105.938 68.391,105.275 68.270,102.080 68.290 C 99.820 68.304,97.083 68.644,95.147 69.149 M108.568 89.990 L 115.366 103.606 109.523 112.418 C 105.597 118.339,103.680 121.611,103.680 122.394 C 103.680 124.026,106.874 130.207,109.861 134.355 C 114.658 141.018,122.877 147.877,129.851 151.040 C 131.404 151.744,133.146 152.320,133.723 152.320 C 134.356 152.320,138.261 150.005,143.584 146.476 L 152.398 140.632 166.180 147.519 L 179.963 154.407 179.378 157.523 C 178.515 162.122,175.565 167.800,172.270 171.204 C 165.928 177.754,158.562 180.452,148.491 179.910 C 123.184 178.548,100.180 164.933,87.279 143.683 C 80.733 132.901,77.332 122.210,76.317 109.227 C 75.907 103.980,75.934 102.468,76.499 99.272 C 77.674 92.626,81.547 86.030,86.521 82.206 C 90.840 78.886,96.560 76.471,100.272 76.401 L 101.771 76.373 108.568 89.990 " stroke="none" fill-rule="evenodd"></path></svg>