<svg fill="currentColor" viewBox="0 0 256 256" xmlns="http://www.w3.org/2000/svg"><path d="M169.813 20.717 C 160.024 22.819,151.452 31.221,148.895 41.220 C 147.225 47.750,148.107 54.945,151.338 61.142 C 153.510 65.308,158.692 70.490,162.858 72.662 C 174.019 78.481,186.745 76.530,195.637 67.637 C 204.413 58.861,206.413 46.609,200.897 35.419 C 197.349 28.223,189.769 22.324,181.973 20.693 C 178.284 19.921,173.474 19.931,169.813 20.717 M181.120 28.739 C 194.310 32.253,200.046 47.795,192.387 59.265 C 190.250 62.464,187.949 64.393,184.082 66.224 C 181.245 67.567,180.903 67.627,176.000 67.627 C 170.967 67.627,170.823 67.599,167.543 66.033 C 155.067 60.076,152.202 43.672,161.937 33.937 C 164.308 31.567,167.599 29.612,170.621 28.778 C 173.243 28.055,178.481 28.035,181.120 28.739 M97.280 76.241 C 85.789 77.108,72.555 80.776,62.507 85.878 C 54.896 89.742,45.220 96.516,44.366 98.578 C 43.233 101.314,44.981 103.907,47.938 103.873 C 49.447 103.856,50.253 103.436,53.434 101.011 C 63.758 93.137,76.346 87.670,89.714 85.254 C 94.014 84.477,96.511 84.310,103.893 84.309 C 115.062 84.307,121.188 85.259,131.217 88.555 C 135.085 89.827,146.347 95.108,146.347 95.651 C 146.347 95.848,141.355 104.693,135.253 115.306 C 122.993 136.633,122.955 136.724,125.473 138.842 L 126.785 139.947 160.932 139.947 L 195.079 139.947 194.868 140.907 C 194.753 141.435,191.337 158.571,187.279 178.987 C 182.292 204.075,179.996 216.485,180.197 217.275 C 180.849 219.844,184.740 220.787,186.680 218.847 C 187.644 217.883,188.454 214.207,195.898 176.987 C 201.152 150.719,203.959 135.787,203.778 135.068 C 203.624 134.454,203.119 133.573,202.656 133.109 C 201.831 132.285,201.102 132.267,168.533 132.267 C 146.789 132.267,135.253 132.120,135.253 131.843 C 135.253 131.610,139.700 123.690,145.135 114.243 C 150.570 104.796,155.295 96.368,155.635 95.514 C 156.875 92.395,155.167 90.857,144.621 85.599 C 130.016 78.317,113.368 75.026,97.280 76.241 M97.280 108.419 C 74.440 110.999,55.089 126.430,47.412 148.186 C 44.999 155.026,44.224 159.784,44.205 167.893 C 44.185 175.905,44.758 179.797,46.937 186.464 C 50.732 198.077,58.343 208.677,68.267 216.169 C 72.720 219.532,81.676 224.036,86.814 225.498 C 95.236 227.894,105.799 228.540,113.951 227.158 C 122.522 225.706,131.738 221.890,138.800 216.870 C 143.249 213.707,149.707 207.249,152.870 202.800 C 159.583 193.356,163.840 180.684,163.840 170.145 C 163.840 166.697,163.747 166.268,162.793 165.314 C 162.046 164.567,161.277 164.267,160.114 164.267 C 156.999 164.267,155.741 166.244,155.736 171.144 C 155.730 176.939,153.528 185.207,150.310 191.513 C 138.571 214.518,111.782 225.476,87.432 217.232 C 65.318 209.745,50.931 188.576,52.186 165.370 C 52.910 151.992,57.879 140.870,67.374 131.374 C 73.494 125.255,80.085 121.153,87.827 118.646 C 92.306 117.195,95.654 116.573,101.520 116.099 C 105.607 115.769,106.055 115.645,106.960 114.593 C 108.008 113.374,108.243 111.430,107.507 110.056 C 106.434 108.050,103.996 107.660,97.280 108.419 " stroke="none" fill-rule="evenodd"></path></svg>