<svg fill="currentColor" viewBox="0 0 256 256" xmlns="http://www.w3.org/2000/svg"><path d="M98.017 20.708 C 84.961 23.305,75.049 36.503,76.083 49.912 C 76.635 57.068,80.084 64.089,85.366 68.809 C 88.445 71.561,93.682 74.327,97.395 75.163 L 99.857 75.718 99.742 84.423 L 99.627 93.128 95.573 94.109 C 72.174 99.774,53.455 118.009,46.550 141.867 C 43.341 152.954,43.341 167.046,46.550 178.133 C 52.904 200.087,69.243 217.343,90.381 224.425 C 98.542 227.159,101.650 227.612,112.213 227.606 C 121.231 227.601,122.122 227.527,126.900 226.402 C 136.526 224.135,144.178 220.858,151.813 215.730 C 164.655 207.107,173.897 195.143,178.621 181.026 C 180.234 176.207,180.241 175.019,178.667 173.333 C 177.419 171.996,174.581 171.999,173.321 173.339 C 172.822 173.870,171.841 176.058,171.141 178.201 C 168.308 186.870,163.644 194.357,156.815 201.194 C 150.265 207.753,144.477 211.677,136.341 215.075 C 127.169 218.906,116.126 220.672,106.952 219.776 C 85.552 217.687,67.851 205.591,58.267 186.506 C 54.394 178.795,52.574 171.502,52.184 162.133 C 51.772 152.220,53.571 143.392,57.812 134.515 C 65.517 118.389,79.353 106.709,96.107 102.189 L 99.840 101.182 99.840 118.658 C 99.840 137.250,99.958 138.442,101.909 139.486 C 102.510 139.807,115.879 139.947,146.105 139.947 L 189.439 139.947 204.988 171.043 C 215.782 192.629,220.889 202.416,221.686 203.043 C 222.318 203.540,223.337 203.932,223.951 203.915 C 224.565 203.898,230.822 201.930,237.855 199.542 C 250.010 195.415,250.684 195.131,251.446 193.805 C 252.868 191.332,251.062 188.160,248.233 188.160 C 247.460 188.160,242.159 189.716,236.453 191.618 C 230.748 193.519,226.017 195.007,225.940 194.924 C 225.863 194.841,218.875 180.917,210.411 163.983 C 201.947 147.048,194.774 133.032,194.471 132.836 C 194.168 132.640,174.624 132.384,151.040 132.267 L 108.160 132.053 108.048 116.173 L 107.936 100.294 138.697 100.173 L 169.457 100.053 170.702 98.660 C 172.270 96.905,172.315 95.224,170.842 93.473 L 169.737 92.160 138.833 92.160 L 107.928 92.160 108.044 84.005 L 108.160 75.851 111.360 74.922 C 117.335 73.187,122.134 69.985,125.997 65.155 C 129.922 60.247,131.827 54.642,131.827 48.000 C 131.827 40.015,129.437 34.253,123.757 28.544 C 120.829 25.601,119.389 24.523,116.480 23.096 C 110.545 20.186,104.545 19.410,98.017 20.708 M112.012 29.810 C 117.318 32.293,120.859 36.066,122.736 41.238 C 124.085 44.953,124.128 50.718,122.837 54.542 C 121.697 57.917,118.897 61.730,115.890 64.000 C 108.299 69.731,97.046 69.041,90.276 62.431 C 85.029 57.308,83.016 50.321,84.713 43.122 C 86.259 36.563,91.326 31.180,98.047 28.957 C 99.948 28.328,101.420 28.184,104.783 28.296 C 108.564 28.423,109.441 28.606,112.012 29.810 " stroke="none" fill-rule="evenodd"></path></svg>