<svg fill="currentColor" viewBox="0 0 256 256" xmlns="http://www.w3.org/2000/svg"><path d="M117.760 52.304 C 89.271 54.714,66.487 61.577,44.121 74.486 C 36.008 79.168,22.125 88.966,20.681 91.028 C 19.085 93.306,20.632 96.669,23.485 97.122 C 24.881 97.345,25.414 97.047,30.525 93.194 C 59.745 71.163,92.195 60.169,128.000 60.169 C 157.078 60.169,184.496 67.612,209.175 82.206 C 215.477 85.932,217.981 87.617,224.653 92.621 C 227.711 94.914,230.714 96.916,231.327 97.070 C 232.637 97.398,234.854 96.391,235.507 95.170 C 236.136 93.995,236.049 92.070,235.319 91.028 C 234.974 90.535,232.526 88.501,229.879 86.506 C 204.881 67.673,178.204 56.945,146.788 53.091 C 141.747 52.473,122.071 51.939,117.760 52.304 M121.173 100.289 C 99.577 101.455,79.669 108.162,60.904 120.594 C 53.786 125.309,52.053 126.950,52.053 128.977 C 52.053 130.971,53.490 132.645,55.473 132.961 C 56.763 133.166,57.328 132.937,59.526 131.321 C 80.960 115.556,102.543 108.253,127.787 108.223 C 136.950 108.212,141.780 108.668,150.187 110.340 C 165.940 113.472,181.382 120.277,194.057 129.675 C 198.501 132.971,199.074 133.249,200.773 132.930 C 202.595 132.588,203.947 130.894,203.947 128.953 C 203.947 127.193,202.893 126.084,197.649 122.327 C 180.028 109.704,157.296 101.529,136.884 100.474 C 134.462 100.349,131.232 100.186,129.707 100.112 C 128.181 100.038,124.341 100.117,121.173 100.289 M119.755 148.504 C 108.956 149.759,98.110 153.668,88.935 159.612 C 84.094 162.748,83.185 164.091,84.225 166.579 C 85.593 169.853,88.021 169.794,93.327 166.357 C 100.365 161.798,107.925 158.742,116.098 157.153 C 119.093 156.571,122.104 156.373,128.000 156.373 C 133.896 156.373,136.907 156.571,139.902 157.153 C 147.941 158.716,155.464 161.749,162.656 166.325 C 167.479 169.395,168.791 169.621,170.699 167.713 C 172.006 166.406,172.340 164.520,171.533 163.011 C 171.305 162.586,169.276 161.044,167.023 159.584 C 153.211 150.637,136.039 146.611,119.755 148.504 M124.088 197.131 C 121.051 198.735,119.292 202.816,120.253 206.024 C 121.689 210.817,126.805 213.256,131.218 211.251 C 135.893 209.128,137.372 203.427,134.349 199.182 C 132.365 196.395,127.371 195.397,124.088 197.131 " stroke="none" fill-rule="evenodd"></path></svg>