<svg fill="currentColor" viewBox="0 0 256 256" xmlns="http://www.w3.org/2000/svg"><path d="M118.613 28.464 C 110.565 29.114,98.652 32.003,90.782 35.214 C 59.612 47.931,37.421 74.312,30.138 107.307 C 27.496 119.279,27.496 136.721,30.138 148.693 C 34.441 168.185,43.446 184.693,57.377 198.623 C 71.307 212.554,87.815 221.559,107.307 225.862 C 119.279 228.504,136.721 228.504,148.693 225.862 C 168.098 221.579,184.802 212.474,198.638 198.638 C 214.932 182.343,224.819 161.762,227.445 138.671 C 228.165 132.336,227.709 117.227,226.621 111.360 C 223.614 95.153,217.576 81.024,208.365 68.641 C 191.765 46.323,167.094 32.009,139.708 28.805 C 134.728 28.223,123.794 28.046,118.613 28.464 M141.450 37.088 C 151.293 38.536,159.191 40.985,168.320 45.421 C 195.814 58.779,214.837 85.062,219.065 115.535 C 219.837 121.096,219.960 133.911,219.290 138.956 C 216.572 159.430,208.181 177.095,194.306 191.550 C 186.556 199.624,178.023 205.880,168.394 210.544 C 146.182 221.305,122.141 222.924,98.987 215.218 C 75.515 207.406,56.191 190.487,45.421 168.320 C 38.959 155.019,36.271 143.174,36.271 128.000 C 36.271 112.826,38.959 100.981,45.421 87.680 C 58.548 60.660,84.406 41.633,114.133 37.120 C 121.418 36.014,134.048 35.999,141.450 37.088 M93.207 93.207 C 92.423 93.992,92.160 94.711,92.160 96.073 L 92.160 97.892 107.192 112.946 L 122.224 128.000 107.192 143.054 L 92.160 158.108 92.160 159.927 C 92.160 162.438,93.562 163.840,96.073 163.840 L 97.892 163.840 112.946 148.808 L 128.000 133.776 143.054 148.808 L 158.108 163.840 159.927 163.840 C 161.289 163.840,162.008 163.577,162.793 162.793 C 163.577 162.008,163.840 161.289,163.840 159.927 L 163.840 158.108 148.808 143.054 L 133.776 128.000 148.808 112.946 L 163.840 97.892 163.840 96.073 C 163.840 93.562,162.438 92.160,159.927 92.160 L 158.108 92.160 143.054 107.192 L 128.000 122.224 112.946 107.192 L 97.892 92.160 96.073 92.160 C 94.711 92.160,93.992 92.423,93.207 93.207 " stroke="none" fill-rule="evenodd"></path></svg>