<svg fill="currentColor" viewBox="0 0 256 256" xmlns="http://www.w3.org/2000/svg"><path d="M42.084 40.781 C 33.527 42.861,26.396 50.339,24.518 59.202 C 23.594 63.561,23.610 176.287,24.535 180.693 C 26.520 190.146,33.854 197.480,43.307 199.465 C 46.968 200.234,63.731 200.354,66.337 199.631 C 69.451 198.766,72.096 195.114,72.104 191.666 C 72.108 190.317,70.972 187.730,69.846 186.525 C 67.711 184.238,67.093 184.122,55.860 183.893 L 45.374 183.680 43.645 182.535 C 42.606 181.846,41.556 180.645,41.012 179.520 L 40.107 177.651 40.116 120.079 C 40.125 65.146,40.161 62.428,40.909 60.782 C 41.789 58.845,43.867 56.907,45.580 56.427 C 47.070 56.008,208.930 56.008,210.420 56.427 C 212.133 56.907,214.211 58.845,215.091 60.782 C 215.839 62.428,215.875 65.146,215.884 120.079 L 215.893 177.651 214.988 179.520 C 214.444 180.645,213.394 181.846,212.355 182.535 L 210.626 183.680 200.140 183.893 C 188.907 184.122,188.289 184.238,186.154 186.525 C 185.028 187.730,183.892 190.317,183.896 191.666 C 183.904 195.114,186.549 198.766,189.663 199.631 C 192.269 200.354,209.032 200.234,212.693 199.465 C 219.855 197.961,226.192 193.150,229.268 186.880 C 232.269 180.765,232.137 184.050,232.009 118.492 L 231.893 59.520 230.761 56.421 C 228.695 50.768,225.195 46.507,220.066 43.401 C 214.502 40.031,223.122 40.329,128.853 40.246 C 57.165 40.183,44.213 40.263,42.084 40.781 M124.710 152.727 C 123.222 153.403,118.660 158.506,98.111 182.478 C 84.470 198.392,73.018 212.080,72.662 212.894 C 71.097 216.483,72.928 221.376,76.480 223.095 L 78.349 224.000 128.000 224.000 L 177.651 224.000 179.520 223.095 C 183.072 221.376,184.903 216.483,183.338 212.894 C 182.982 212.080,171.530 198.392,157.889 182.478 C 131.514 151.710,131.712 151.912,128.000 151.912 C 127.179 151.912,125.698 152.279,124.710 152.727 M143.147 189.911 C 151.360 199.528,158.144 207.580,158.222 207.805 C 158.312 208.063,147.165 208.213,128.000 208.213 C 108.835 208.213,97.688 208.063,97.778 207.805 C 97.967 207.262,127.725 172.425,128.000 172.425 C 128.117 172.425,134.933 180.294,143.147 189.911 " stroke="none" fill-rule="evenodd"></path></svg>