<svg fill="currentColor" viewBox="0 0 256 256" xmlns="http://www.w3.org/2000/svg"><path d="M51.593 17.470 C 49.369 18.952,17.851 50.500,17.053 52.043 C 15.543 54.962,15.954 59.112,17.969 61.300 C 19.242 62.683,21.996 63.979,23.680 63.988 C 27.389 64.009,27.546 63.881,44.316 47.209 C 53.084 38.492,60.993 30.445,61.891 29.327 C 66.449 23.649,62.978 16.213,55.770 16.213 C 53.946 16.213,53.096 16.469,51.593 17.470 M196.198 17.076 C 191.668 19.470,190.709 25.091,194.109 29.327 C 195.007 30.445,202.916 38.492,211.684 47.209 C 228.454 63.881,228.611 64.009,232.320 63.988 C 234.243 63.978,236.975 62.566,238.212 60.945 C 240.414 58.058,240.465 54.332,238.347 51.279 C 236.675 48.869,205.199 17.686,203.648 16.903 C 201.782 15.961,198.150 16.045,196.198 17.076 M120.960 32.257 C 106.943 33.704,96.967 36.422,85.973 41.789 C 56.392 56.230,36.475 84.406,32.633 117.248 C 28.441 153.087,45.213 188.474,75.947 208.636 C 84.578 214.298,97.344 219.612,107.650 221.832 C 150.844 231.138,194.724 209.808,214.223 170.027 C 226.354 145.277,227.201 116.510,216.547 91.099 C 203.551 60.102,175.416 38.185,142.080 33.088 C 137.736 32.424,124.420 31.900,120.960 32.257 M139.039 48.876 C 156.278 51.393,170.843 58.491,183.199 70.395 C 199.345 85.950,207.787 105.720,207.787 127.977 C 207.787 148.797,200.166 167.892,185.868 182.900 C 170.354 199.184,150.374 207.787,128.067 207.787 C 105.638 207.787,86.029 199.427,70.395 183.199 C 55.820 168.071,48.213 149.142,48.213 128.000 C 48.213 105.719,56.648 85.957,72.801 70.395 C 85.057 58.587,99.511 51.502,116.693 48.882 C 122.050 48.065,133.465 48.062,139.039 48.876 M124.800 64.806 C 122.735 65.760,121.435 67.110,120.554 69.219 C 119.979 70.594,119.895 74.609,119.903 100.146 C 119.912 127.766,119.958 129.594,120.700 131.200 C 121.653 133.265,123.004 134.565,125.112 135.446 C 126.487 136.021,130.518 136.107,156.056 136.107 L 185.419 136.107 187.298 135.147 C 188.332 134.619,189.764 133.449,190.482 132.547 C 191.649 131.080,191.787 130.601,191.787 128.000 C 191.787 125.399,191.649 124.920,190.482 123.453 C 189.764 122.551,188.332 121.381,187.298 120.853 L 185.419 119.893 160.763 119.893 L 136.107 119.893 136.097 95.253 C 136.089 72.210,136.037 70.503,135.300 68.907 C 133.370 64.725,128.823 62.949,124.800 64.806 " stroke="none" fill-rule="evenodd"></path></svg>