<svg fill="currentColor" viewBox="0 0 256 256" xmlns="http://www.w3.org/2000/svg"><path d="M124.800 40.711 C 123.117 41.463,121.379 43.350,120.556 45.320 C 119.995 46.662,119.893 49.468,119.893 63.553 L 119.893 80.200 81.804 80.313 L 43.715 80.427 40.867 81.829 C 37.565 83.454,34.982 86.117,33.328 89.600 L 32.213 91.947 32.213 128.000 L 32.213 164.053 33.328 166.400 C 35.659 171.308,40.155 174.787,45.412 175.750 C 47.105 176.060,59.854 176.213,83.918 176.213 L 119.893 176.213 119.903 192.747 C 119.911 207.929,119.977 209.419,120.702 210.987 C 123.759 217.588,132.241 217.588,135.298 210.987 C 136.023 209.419,136.089 207.929,136.097 192.747 L 136.107 176.213 172.082 176.213 C 196.146 176.213,208.895 176.060,210.588 175.750 C 215.845 174.787,220.341 171.308,222.672 166.400 L 223.787 164.053 223.787 128.000 L 223.787 91.947 222.672 89.600 C 221.018 86.117,218.435 83.454,215.133 81.829 L 212.285 80.427 174.196 80.313 L 136.107 80.200 136.097 63.460 C 136.087 44.972,136.058 44.755,133.280 42.160 C 131.072 40.098,127.531 39.493,124.800 40.711 M207.787 128.000 L 207.787 160.000 128.000 160.000 L 48.213 160.000 48.213 128.000 L 48.213 96.000 128.000 96.000 L 207.787 96.000 207.787 128.000 " stroke="none" fill-rule="evenodd"></path></svg>