<svg fill="currentColor" viewBox="0 0 256 256" xmlns="http://www.w3.org/2000/svg"><path d="M124.373 24.342 C 111.697 25.642,101.225 34.517,97.213 47.360 C 95.920 51.499,95.817 59.667,97.004 64.000 C 99.862 74.440,107.606 82.802,117.547 86.182 L 119.680 86.908 119.793 99.561 L 119.906 112.213 102.812 112.213 C 88.719 112.213,85.508 112.322,84.522 112.832 C 82.901 113.670,80.709 116.236,80.397 117.661 C 80.257 118.302,80.077 119.043,79.998 119.307 C 79.698 120.307,80.731 123.559,81.788 124.945 C 84.065 127.930,84.419 127.980,103.147 127.991 L 119.893 128.000 119.893 161.920 C 119.893 181.094,119.731 195.840,119.519 195.840 C 119.313 195.840,118.887 195.529,118.571 195.149 C 117.725 194.129,112.378 190.602,109.440 189.126 C 102.987 185.884,97.329 184.556,87.253 183.920 C 74.883 183.138,66.534 179.396,58.846 171.187 C 52.528 164.439,48.213 154.549,48.213 146.812 C 48.213 143.595,47.409 140.497,46.202 139.062 C 42.437 134.589,35.360 135.408,32.842 140.609 C 31.951 142.452,31.896 142.979,32.149 147.357 C 33.616 172.767,52.651 194.327,77.773 199.035 C 79.726 199.400,84.194 199.881,87.702 200.104 C 95.044 200.568,97.449 201.129,102.187 203.481 C 108.778 206.753,113.451 211.512,116.679 218.240 C 118.831 222.726,119.404 224.890,119.855 230.228 C 120.264 235.077,121.175 236.995,123.859 238.663 C 126.582 240.354,129.418 240.354,132.141 238.663 C 134.825 236.995,135.736 235.077,136.145 230.228 C 136.596 224.890,137.169 222.726,139.321 218.240 C 142.549 211.512,147.222 206.753,153.813 203.481 C 158.551 201.129,160.956 200.568,168.298 200.104 C 171.806 199.881,176.274 199.400,178.227 199.035 C 203.341 194.329,222.384 172.758,223.851 147.357 C 224.104 142.979,224.049 142.452,223.158 140.609 C 220.724 135.582,213.895 134.604,210.055 138.732 C 208.641 140.252,208.186 141.870,207.784 146.819 C 207.312 152.615,206.470 155.837,204.135 160.790 C 201.781 165.781,199.322 169.236,195.568 172.826 C 188.092 179.974,180.321 183.189,168.747 183.920 C 158.671 184.556,153.013 185.884,146.560 189.126 C 143.622 190.602,138.275 194.129,137.429 195.149 C 137.113 195.529,136.687 195.840,136.481 195.840 C 136.269 195.840,136.107 181.094,136.107 161.920 L 136.107 128.000 152.853 127.991 C 171.581 127.980,171.935 127.930,174.212 124.945 C 177.428 120.728,175.775 114.487,170.959 112.667 C 170.184 112.374,163.781 112.213,152.926 112.213 L 136.094 112.213 136.207 99.561 L 136.320 86.908 138.453 86.182 C 148.394 82.802,156.138 74.440,158.996 64.000 C 160.183 59.667,160.080 51.499,158.787 47.360 C 157.310 42.631,154.715 37.955,151.805 34.780 C 144.580 26.896,135.004 23.252,124.373 24.342 M134.475 41.481 C 137.846 43.026,140.535 45.650,142.187 49.008 C 143.471 51.619,143.573 52.142,143.573 56.100 C 143.573 59.886,143.441 60.643,142.414 62.734 C 140.108 67.429,135.694 70.728,130.408 71.705 C 123.912 72.906,116.690 69.054,113.586 62.734 C 112.559 60.643,112.427 59.885,112.427 56.107 C 112.427 52.388,112.571 51.532,113.551 49.442 C 115.531 45.219,119.005 42.144,123.429 40.701 C 126.287 39.768,131.548 40.140,134.475 41.481 " stroke="none" fill-rule="evenodd"></path></svg>