<svg fill="currentColor" viewBox="0 0 256 256" xmlns="http://www.w3.org/2000/svg"><path d="M36.053 40.505 C 30.344 41.916,25.583 47.035,24.322 53.120 C 24.024 54.557,23.916 79.407,23.993 129.280 L 24.107 203.307 25.224 205.957 C 27.063 210.321,30.434 213.551,34.721 215.057 C 37.053 215.877,38.826 215.893,128.000 215.893 C 217.174 215.893,218.947 215.877,221.279 215.057 C 225.566 213.551,228.937 210.321,230.776 205.957 L 231.893 203.307 231.893 128.000 L 231.893 52.693 230.867 50.144 C 229.561 46.901,226.312 43.426,222.933 41.659 L 220.373 40.320 128.853 40.255 C 78.517 40.219,36.757 40.331,36.053 40.505 M215.893 128.000 L 215.893 200.107 128.000 200.107 L 40.107 200.107 40.107 128.000 L 40.107 55.893 128.000 55.893 L 215.893 55.893 215.893 128.000 M63.892 72.715 C 56.923 75.203,53.924 83.452,57.630 89.942 C 59.984 94.063,64.337 96.320,69.100 95.888 C 77.465 95.130,82.458 86.322,78.782 78.809 C 77.393 75.971,74.912 73.696,72.194 72.770 C 69.833 71.965,66.064 71.940,63.892 72.715 M103.253 72.993 C 99.146 74.848,96.456 78.621,96.103 83.022 C 95.797 86.837,96.844 89.646,99.599 92.401 C 107.180 99.983,119.940 94.723,119.852 84.053 C 119.825 80.821,119.329 79.274,117.490 76.673 C 114.619 72.614,107.923 70.883,103.253 72.993 " stroke="none" fill-rule="evenodd"></path></svg>