<svg fill="currentColor" viewBox="0 0 256 256" xmlns="http://www.w3.org/2000/svg"><path d="M74.027 32.473 C 61.109 34.336,49.242 43.242,43.703 55.230 C 40.657 61.824,40.407 63.358,40.213 76.654 L 40.038 88.668 36.346 89.819 C 22.877 94.018,13.009 104.266,9.263 117.945 C 7.900 122.919,7.900 133.081,9.263 138.055 C 13.011 151.741,22.876 161.982,36.363 166.187 L 40.073 167.343 40.196 185.752 L 40.320 204.160 41.455 206.581 C 43.044 209.972,45.666 212.649,49.005 214.293 L 51.822 215.680 127.991 215.680 L 204.160 215.680 206.581 214.545 C 209.971 212.956,212.649 210.334,214.293 206.996 L 215.680 204.180 215.804 185.762 L 215.927 167.343 219.637 166.187 C 233.124 161.982,242.992 151.738,246.737 138.055 C 248.097 133.082,248.097 122.918,246.737 117.945 C 244.788 110.824,241.414 104.969,236.329 99.884 C 231.495 95.050,226.221 91.866,219.661 89.821 L 215.962 88.668 215.787 76.654 C 215.593 63.358,215.343 61.824,212.297 55.230 C 206.662 43.034,194.889 34.309,181.568 32.457 C 177.561 31.899,77.899 31.915,74.027 32.473 M181.951 48.865 C 187.485 50.307,192.881 54.206,196.090 59.084 C 196.866 60.262,198.025 62.763,198.666 64.640 C 199.781 67.906,199.839 68.500,200.017 78.371 L 200.202 88.688 198.341 89.172 C 183.346 93.069,171.969 104.860,168.912 119.672 C 168.475 121.789,168.115 124.528,168.112 125.760 L 168.107 128.000 128.063 128.000 L 88.020 128.000 87.761 124.480 C 86.532 107.765,74.387 93.520,57.659 89.172 L 55.798 88.688 55.983 78.371 C 56.161 68.500,56.219 67.906,57.334 64.640 C 59.391 58.615,63.417 53.789,68.705 51.010 C 74.215 48.115,70.850 48.272,127.804 48.241 C 172.821 48.217,179.769 48.297,181.951 48.865 M55.970 105.497 C 63.266 108.165,68.497 113.742,71.073 121.600 C 71.768 123.717,71.856 126.139,71.977 146.347 C 72.051 158.667,72.215 169.375,72.343 170.142 C 72.615 171.776,74.663 174.262,76.533 175.229 C 78.208 176.095,81.779 176.104,83.423 175.246 C 85.077 174.383,86.869 172.470,87.440 170.959 C 87.723 170.208,87.893 164.972,87.893 156.986 L 87.893 144.213 128.000 144.213 L 168.107 144.213 168.107 156.986 C 168.107 164.972,168.277 170.208,168.560 170.959 C 169.131 172.470,170.923 174.383,172.577 175.246 C 174.221 176.104,177.792 176.095,179.467 175.229 C 181.337 174.262,183.385 171.776,183.657 170.142 C 183.785 169.375,183.949 158.667,184.023 146.347 C 184.144 126.139,184.232 123.717,184.927 121.600 C 187.531 113.658,193.064 107.852,200.452 105.311 C 202.755 104.518,204.213 104.329,208.000 104.329 C 211.787 104.329,213.245 104.518,215.548 105.311 C 223.045 107.890,228.785 113.994,231.054 121.800 C 232.008 125.080,232.008 130.920,231.054 134.200 C 228.084 144.418,218.641 151.893,208.703 151.893 C 205.938 151.893,202.573 153.603,201.296 155.657 C 200.321 157.225,200.320 157.250,200.107 178.560 L 199.893 199.893 128.000 199.893 L 56.107 199.893 55.893 178.560 C 55.680 157.250,55.679 157.225,54.704 155.657 C 53.427 153.603,50.062 151.893,47.297 151.893 C 41.594 151.893,35.765 149.342,31.313 144.896 C 22.108 135.705,21.703 121.495,30.375 111.987 C 33.913 108.108,38.791 105.371,43.947 104.373 C 46.617 103.856,53.153 104.467,55.970 105.497 " stroke="none" fill-rule="evenodd"></path></svg>