<svg fill="currentColor" viewBox="0 0 256 256" xmlns="http://www.w3.org/2000/svg"><path d="M44.265 32.461 C 39.776 33.526,35.661 36.951,33.540 41.387 L 32.213 44.160 32.213 128.000 L 32.213 211.840 33.407 214.400 C 34.974 217.760,38.261 221.060,41.555 222.583 L 44.160 223.787 128.000 223.787 L 211.840 223.787 214.445 222.583 C 217.739 221.060,221.026 217.760,222.593 214.400 L 223.787 211.840 223.787 128.000 L 223.787 44.160 222.583 41.555 C 221.060 38.261,217.760 34.974,214.400 33.407 L 211.840 32.213 128.853 32.147 C 81.512 32.109,45.179 32.244,44.265 32.461 M207.787 128.000 L 207.787 207.787 128.000 207.787 L 48.213 207.787 48.213 128.000 L 48.213 48.213 128.000 48.213 L 207.787 48.213 207.787 128.000 M92.800 88.700 C 88.746 90.571,86.920 94.950,88.548 98.894 C 89.004 99.997,97.027 108.309,114.894 126.187 L 140.584 151.893 125.629 151.893 L 110.674 151.893 108.451 153.001 C 102.932 155.751,102.508 163.140,107.665 166.714 L 109.366 167.893 135.003 168.024 C 152.768 168.114,161.133 168.010,162.247 167.685 C 164.445 167.042,166.634 165.014,167.454 162.860 C 168.058 161.274,168.122 158.074,168.015 135.216 L 167.893 109.366 166.672 107.605 C 163.477 102.995,156.523 102.995,153.328 107.604 L 152.107 109.365 151.980 124.955 L 151.853 140.544 126.166 114.873 C 108.303 97.021,99.997 89.004,98.894 88.548 C 96.806 87.686,94.892 87.734,92.800 88.700 " stroke="none" fill-rule="evenodd"></path></svg>