<svg fill="currentColor" viewBox="0 0 256 256" xmlns="http://www.w3.org/2000/svg"><path d="M125.979 24.299 C 124.155 24.745,121.781 26.592,120.853 28.289 C 120.161 29.554,120.098 32.369,119.991 66.872 L 119.875 104.091 86.430 104.206 L 52.986 104.320 51.346 105.627 C 48.321 108.040,47.173 112.423,48.775 115.444 C 49.140 116.131,66.107 133.343,86.479 153.692 C 112.531 179.714,123.991 190.885,125.106 191.345 C 127.118 192.175,128.882 192.175,130.894 191.345 C 132.009 190.885,143.469 179.714,169.521 153.692 C 189.893 133.343,206.860 116.131,207.225 115.444 C 208.827 112.423,207.679 108.040,204.654 105.627 L 203.014 104.320 169.570 104.206 L 136.125 104.091 136.009 66.872 C 135.895 30.238,135.880 29.630,135.020 28.166 C 133.268 25.184,129.303 23.488,125.979 24.299 M154.346 146.240 L 128.000 172.586 101.654 146.240 L 75.308 119.893 128.000 119.893 L 180.692 119.893 154.346 146.240 M36.198 209.076 C 33.176 210.673,31.657 213.825,32.191 217.389 C 32.568 219.899,35.156 222.916,37.488 223.564 C 39.633 224.160,216.367 224.160,218.512 223.564 C 220.844 222.916,223.432 219.899,223.809 217.389 C 224.351 213.775,222.806 210.634,219.710 209.055 C 218.083 208.225,216.813 208.214,127.910 208.232 C 39.637 208.251,37.727 208.268,36.198 209.076 " stroke="none" fill-rule="evenodd"></path></svg>