<svg fill="currentColor" viewBox="0 0 256 256" xmlns="http://www.w3.org/2000/svg"><path d="M123.710 17.443 C 122.667 18.119,114.391 26.135,105.320 35.256 C 91.418 49.235,88.754 52.108,88.363 53.547 C 87.788 55.656,87.786 56.129,88.339 58.120 C 88.928 60.243,90.678 62.242,92.782 63.198 C 94.330 63.901,95.808 63.982,107.200 63.991 L 119.893 64.000 119.893 128.000 L 119.893 192.000 107.200 192.009 C 95.808 192.018,94.330 192.099,92.782 192.802 C 90.678 193.758,88.928 195.757,88.339 197.880 C 87.786 199.871,87.788 200.343,88.363 202.453 C 88.754 203.893,91.436 206.780,105.534 220.938 C 114.722 230.166,123.063 238.204,124.068 238.801 C 126.555 240.276,129.445 240.276,131.932 238.801 C 132.937 238.204,141.278 230.166,150.466 220.938 C 164.564 206.780,167.246 203.893,167.637 202.453 C 168.212 200.343,168.214 199.871,167.661 197.880 C 167.072 195.757,165.322 193.758,163.218 192.802 C 161.670 192.099,160.192 192.018,148.800 192.009 L 136.107 192.000 136.107 128.000 L 136.107 64.000 148.800 63.991 C 160.192 63.982,161.670 63.901,163.218 63.198 C 165.322 62.242,167.072 60.243,167.661 58.120 C 168.214 56.129,168.212 55.656,167.637 53.547 C 167.246 52.108,164.582 49.235,150.680 35.256 C 141.609 26.135,133.333 18.119,132.290 17.443 C 130.773 16.460,129.914 16.213,128.000 16.213 C 126.086 16.213,125.227 16.460,123.710 17.443 M134.187 41.813 L 140.149 47.787 128.000 47.787 L 115.851 47.787 121.813 41.813 C 125.092 38.528,127.876 35.840,128.000 35.840 C 128.124 35.840,130.908 38.528,134.187 41.813 M134.078 214.291 L 128.000 220.370 121.922 214.291 L 115.844 208.213 128.000 208.213 L 140.156 208.213 134.078 214.291 " stroke="none" fill-rule="evenodd"></path></svg>