<svg fill="currentColor" viewBox="0 0 256 256" xmlns="http://www.w3.org/2000/svg"><path d="M76.800 40.779 C 74.910 41.588,42.089 74.241,40.931 76.463 C 39.873 78.494,39.872 81.500,40.927 83.537 C 41.379 84.408,49.491 92.833,58.954 102.260 C 77.713 120.946,76.868 120.285,81.339 119.781 C 83.585 119.528,85.905 117.854,87.102 115.623 C 87.824 114.277,87.893 112.990,87.893 101.020 L 87.893 87.893 148.707 87.893 C 214.014 87.893,211.080 87.986,213.485 85.850 C 214.718 84.755,215.875 81.925,215.875 80.000 C 215.875 78.075,214.718 75.245,213.485 74.150 C 211.080 72.014,214.014 72.107,148.707 72.107 L 87.893 72.107 87.893 59.076 C 87.893 47.132,87.826 45.914,87.085 44.463 C 86.087 42.508,85.118 41.610,83.091 40.763 C 81.127 39.942,78.741 39.949,76.800 40.779 M72.107 80.000 C 72.107 86.688,71.965 92.160,71.792 92.160 C 71.310 92.160,59.733 80.497,59.733 80.011 C 59.733 79.517,71.292 67.840,71.781 67.840 C 71.960 67.840,72.107 73.312,72.107 80.000 M172.813 136.782 C 170.863 137.628,169.895 138.542,168.915 140.463 C 168.174 141.914,168.107 143.132,168.107 155.076 L 168.107 168.107 107.293 168.107 C 41.988 168.107,44.891 168.015,42.530 170.150 C 39.400 172.980,39.400 179.020,42.530 181.850 C 44.891 183.985,41.988 183.893,107.293 183.893 L 168.107 183.893 168.107 196.928 C 168.107 210.682,168.170 211.190,170.185 213.485 C 172.233 215.819,176.658 216.568,179.537 215.069 C 181.496 214.049,214.272 181.212,215.212 179.328 C 216.138 177.472,216.074 174.392,215.069 172.463 C 213.840 170.104,181.072 137.573,179.107 136.762 C 177.120 135.941,174.734 135.949,172.813 136.782 M190.394 169.701 C 193.624 172.924,196.267 175.754,196.267 175.989 C 196.267 176.483,184.708 188.160,184.219 188.160 C 184.040 188.160,183.893 182.688,183.893 176.000 C 183.893 169.312,184.035 163.840,184.208 163.840 C 184.381 163.840,187.165 166.477,190.394 169.701 " stroke="none" fill-rule="evenodd"></path></svg>