<svg fill="currentColor" viewBox="0 0 256 256" xmlns="http://www.w3.org/2000/svg"><path d="M120.960 24.326 C 100.935 25.586,81.587 32.844,64.891 45.360 C 59.554 49.360,49.234 59.686,45.276 64.986 C 34.512 79.399,27.973 94.882,25.095 112.768 C 23.886 120.283,23.787 134.307,24.890 141.867 C 27.542 160.046,34.293 176.318,45.279 191.014 C 49.299 196.392,59.608 206.701,64.986 210.721 C 79.686 221.710,96.000 228.476,114.133 231.105 C 117.683 231.620,121.936 231.847,128.000 231.847 C 144.598 231.847,158.874 228.583,173.440 221.458 C 184.661 215.968,192.320 210.472,201.396 201.396 C 210.475 192.317,215.974 184.654,221.456 173.440 C 235.707 144.287,235.458 110.173,220.780 81.026 C 214.698 68.950,203.517 55.194,193.067 46.931 C 172.349 30.550,147.221 22.673,120.960 24.326 M136.870 40.549 C 171.639 44.258,200.534 67.488,211.419 100.480 C 224.378 139.761,208.166 182.761,172.459 203.815 C 152.624 215.510,127.989 218.917,105.654 213.052 C 83.649 207.274,64.445 192.822,52.504 173.052 C 44.609 159.983,40.107 143.620,40.107 128.000 C 40.107 90.362,64.333 56.637,99.918 44.739 C 111.860 40.747,124.883 39.270,136.870 40.549 M132.907 88.677 C 128.643 90.714,126.892 95.082,128.651 99.292 C 129.059 100.270,132.821 104.392,138.753 110.361 L 148.203 119.872 116.805 119.989 L 85.406 120.107 83.594 121.387 C 78.904 124.701,78.904 131.299,83.595 134.613 L 85.406 135.893 116.808 136.008 L 148.209 136.123 138.755 145.636 C 132.822 151.607,129.060 155.730,128.651 156.708 C 126.890 160.923,128.662 165.332,132.907 167.298 C 135.118 168.321,137.121 168.311,139.279 167.266 C 140.411 166.718,146.959 160.460,158.141 149.240 C 174.464 132.862,175.289 131.958,175.690 130.027 C 175.966 128.696,175.966 127.304,175.690 125.973 C 175.289 124.043,174.459 123.132,158.141 106.742 C 148.721 97.279,140.475 89.253,139.817 88.905 C 137.816 87.850,134.843 87.752,132.907 88.677 " stroke="none" fill-rule="evenodd"></path></svg>