<svg fill="currentColor" viewBox="0 0 256 256" xmlns="http://www.w3.org/2000/svg"><path d="M36.903 32.796 C 29.817 36.015,30.827 46.123,38.396 47.746 C 41.475 48.406,214.525 48.406,217.604 47.746 C 225.173 46.123,226.183 36.015,219.097 32.796 C 217.460 32.052,213.548 32.019,128.000 32.019 C 42.452 32.019,38.540 32.052,36.903 32.796 M124.800 64.819 C 122.247 66.015,48.787 139.703,48.416 141.440 C 48.265 142.144,48.057 142.989,47.953 143.318 C 47.849 143.647,48.049 144.898,48.398 146.098 C 49.083 148.456,51.013 150.676,53.041 151.440 C 53.850 151.746,64.958 151.893,87.068 151.893 L 119.893 151.893 119.896 188.267 C 119.897 213.489,120.043 225.160,120.369 226.337 C 120.999 228.607,123.497 231.042,125.843 231.674 C 130.116 232.824,134.505 230.389,135.661 226.227 C 135.948 225.193,136.103 211.971,136.104 188.267 L 136.107 151.893 168.932 151.893 C 191.042 151.893,202.150 151.746,202.959 151.440 C 207.075 149.888,209.161 144.333,207.113 140.373 C 206.810 139.787,189.893 122.657,169.521 102.308 C 143.469 76.286,132.009 65.115,130.894 64.655 C 128.798 63.790,126.885 63.841,124.800 64.819 M154.453 109.867 L 180.691 136.107 128.000 136.107 L 75.309 136.107 101.547 109.867 C 115.977 95.435,127.881 83.627,128.000 83.627 C 128.119 83.627,140.023 95.435,154.453 109.867 " stroke="none" fill-rule="evenodd"></path></svg>