<svg fill="currentColor" viewBox="0 0 256 256" xmlns="http://www.w3.org/2000/svg"><path d="M219.679 49.436 C 216.810 51.256,216.223 52.839,215.822 59.851 C 214.560 81.916,206.466 100.953,191.758 116.447 C 177.892 131.055,160.443 140.068,139.947 143.208 C 135.723 143.856,131.775 143.963,111.573 143.980 L 88.107 144.000 87.893 122.635 L 87.680 101.270 86.535 99.540 C 84.399 96.314,80.108 95.147,76.615 96.842 C 75.458 97.403,66.546 106.045,49.883 122.762 C 23.760 148.970,23.893 148.819,23.893 152.277 C 23.893 154.903,25.413 156.584,50.468 181.666 C 74.178 205.402,75.866 206.998,77.883 207.590 C 79.780 208.147,80.281 208.147,82.161 207.589 C 84.463 206.905,86.688 204.954,87.440 202.959 C 87.737 202.172,87.893 194.572,87.893 180.909 L 87.893 160.060 113.173 159.889 C 140.790 159.702,141.724 159.632,152.747 156.952 C 192.791 147.214,223.852 113.692,230.573 72.960 C 231.494 67.382,232.235 58.720,232.015 56.125 C 231.600 51.245,228.529 48.213,224.000 48.213 C 222.099 48.213,221.211 48.465,219.679 49.436 M72.107 152.211 L 72.107 180.689 57.813 166.400 L 43.520 152.111 57.704 137.922 C 65.506 130.118,71.938 123.733,71.998 123.733 C 72.058 123.733,72.107 136.548,72.107 152.211 " stroke="none" fill-rule="evenodd"></path></svg>