<svg fill="currentColor" viewBox="0 0 256 256" xmlns="http://www.w3.org/2000/svg"><path d="M119.040 32.465 C 100.546 34.351,81.780 42.368,65.554 55.315 L 61.653 58.427 53.120 49.949 C 48.427 45.286,43.931 41.142,43.130 40.742 C 39.701 39.025,34.652 40.872,32.905 44.480 C 32.014 46.321,32.000 46.736,32.000 71.828 C 32.000 93.860,32.089 97.521,32.660 98.888 C 33.541 100.996,34.841 102.347,36.907 103.300 C 38.504 104.037,40.216 104.088,63.573 104.095 C 79.456 104.099,89.110 103.942,90.120 103.661 C 93.290 102.781,95.969 99.327,95.991 96.093 C 96.010 93.154,94.876 91.708,83.931 80.719 L 73.173 69.919 75.093 68.186 C 78.258 65.329,88.083 59.046,93.603 56.349 C 105.348 50.609,115.453 48.237,128.225 48.221 C 135.256 48.213,139.538 48.627,146.347 49.976 C 159.512 52.584,174.554 59.786,184.913 68.440 C 186.954 70.145,188.954 71.434,189.994 71.714 C 196.714 73.524,202.249 66.366,198.995 60.074 C 198.102 58.347,192.559 53.757,186.453 49.690 C 173.318 40.941,158.952 35.477,142.720 33.058 C 137.306 32.251,124.328 31.926,119.040 32.465 M58.453 77.867 L 68.473 87.893 58.343 87.893 L 48.213 87.893 48.213 77.867 C 48.213 72.352,48.263 67.840,48.323 67.840 C 48.384 67.840,52.942 72.352,58.453 77.867 M167.040 152.095 C 166.805 152.178,166.100 152.358,165.473 152.496 C 162.768 153.090,160.019 156.872,160.019 160.000 C 160.019 162.943,161.374 164.664,172.116 175.357 C 177.889 181.104,182.612 186.000,182.609 186.237 C 182.604 186.845,174.595 192.736,169.795 195.663 C 144.651 210.996,115.758 212.030,88.107 198.587 C 82.634 195.927,75.616 191.451,71.677 188.110 C 67.423 184.501,66.797 184.178,64.073 184.180 C 60.142 184.184,57.278 186.310,56.296 189.954 C 55.080 194.472,56.914 197.200,65.467 203.592 C 82.511 216.330,105.885 224.000,127.664 224.000 C 149.832 224.000,172.304 215.560,191.161 200.152 L 194.334 197.560 203.300 206.480 C 210.983 214.123,212.500 215.442,213.894 215.699 C 217.846 216.426,221.530 214.753,223.095 211.520 C 223.986 209.679,224.000 209.264,224.000 184.172 C 224.000 156.684,224.022 156.969,221.740 154.525 C 219.400 152.019,220.496 152.114,192.853 152.025 C 178.891 151.981,167.275 152.012,167.040 152.095 M207.787 178.133 C 207.787 183.648,207.737 188.160,207.677 188.160 C 207.616 188.160,203.058 183.648,197.547 178.133 L 187.527 168.107 197.657 168.107 L 207.787 168.107 207.787 178.133 " stroke="none" fill-rule="evenodd"></path></svg>