<svg fill="currentColor" viewBox="0 0 256 256" xmlns="http://www.w3.org/2000/svg"><path d="M44.265 32.461 C 39.776 33.526,35.661 36.951,33.540 41.387 L 32.213 44.160 32.213 128.000 L 32.213 211.840 33.407 214.400 C 34.974 217.760,38.261 221.060,41.555 222.583 L 44.160 223.787 128.000 223.787 L 211.840 223.787 214.445 222.583 C 217.739 221.060,221.026 217.760,222.593 214.400 L 223.787 211.840 223.787 128.000 L 223.787 44.160 222.583 41.555 C 221.060 38.261,217.760 34.974,214.400 33.407 L 211.840 32.213 128.853 32.147 C 81.512 32.109,45.179 32.244,44.265 32.461 M207.787 128.000 L 207.787 207.787 128.000 207.787 L 48.213 207.787 48.213 128.000 L 48.213 48.213 128.000 48.213 L 207.787 48.213 207.787 128.000 M126.507 80.203 C 125.803 80.365,124.651 80.805,123.947 81.181 C 121.763 82.347,89.289 115.207,88.548 117.000 C 87.686 119.088,87.734 121.002,88.702 123.093 C 90.668 127.338,95.077 129.110,99.292 127.349 C 100.270 126.940,104.393 123.178,110.364 117.245 L 119.877 107.791 119.992 139.192 L 120.107 170.594 121.387 172.405 C 124.701 177.096,131.299 177.096,134.613 172.405 L 135.893 170.594 136.008 139.192 L 136.123 107.791 145.636 117.245 C 151.607 123.178,155.730 126.940,156.708 127.349 C 160.923 129.110,165.332 127.338,167.298 123.093 C 168.267 121.000,168.314 119.086,167.448 117.000 C 166.642 115.060,134.100 82.249,131.840 81.097 C 129.943 80.131,128.135 79.828,126.507 80.203 " stroke="none" fill-rule="evenodd"></path></svg>