<svg fill="currentColor" viewBox="0 0 256 256" xmlns="http://www.w3.org/2000/svg"><path d="M124.800 32.806 C 122.735 33.760,121.435 35.110,120.554 37.219 C 119.971 38.614,119.893 44.503,119.893 87.445 L 119.893 136.091 86.439 136.206 L 52.986 136.320 51.346 137.627 C 48.321 140.040,47.173 144.423,48.775 147.444 C 49.140 148.131,66.107 165.343,86.479 185.692 C 112.531 211.714,123.991 222.885,125.106 223.345 C 127.118 224.175,128.882 224.175,130.894 223.345 C 132.009 222.885,143.469 211.714,169.521 185.692 C 189.893 165.343,206.860 148.131,207.225 147.444 C 208.827 144.423,207.679 140.040,204.654 137.627 L 203.014 136.320 169.561 136.206 L 136.107 136.091 136.097 87.352 C 136.088 40.879,136.051 38.534,135.300 36.907 C 133.370 32.725,128.823 30.949,124.800 32.806 M154.346 178.240 L 128.000 204.586 101.654 178.240 L 75.308 151.893 128.000 151.893 L 180.692 151.893 154.346 178.240 " stroke="none" fill-rule="evenodd"></path></svg>