<svg fill="currentColor" viewBox="0 0 256 256" xmlns="http://www.w3.org/2000/svg"><path d="M76.587 48.811 C 74.993 49.531,73.158 51.459,72.560 53.041 C 71.309 56.353,72.705 60.694,75.647 62.641 L 77.377 63.787 126.262 64.031 C 179.182 64.295,176.420 64.171,183.521 66.603 C 192.849 69.796,202.300 76.975,207.525 84.835 C 210.380 89.129,213.200 95.320,214.499 100.148 C 215.516 103.925,215.622 105.047,215.622 112.000 C 215.622 118.953,215.516 120.075,214.499 123.852 C 213.303 128.296,210.595 134.425,208.115 138.303 C 201.159 149.177,188.708 157.243,175.597 159.370 C 172.388 159.890,164.633 159.997,129.813 159.998 L 87.893 160.000 87.893 139.121 C 87.893 125.407,87.738 117.830,87.440 117.041 C 86.822 115.407,84.981 113.511,83.320 112.801 C 81.691 112.104,78.614 112.036,76.934 112.660 C 75.146 113.324,25.707 162.787,24.713 164.907 C 23.776 166.903,23.711 168.004,24.390 170.404 C 24.817 171.914,28.385 175.670,49.883 197.238 C 66.546 213.955,75.458 222.597,76.615 223.158 C 80.230 224.913,84.476 223.675,86.662 220.228 L 87.893 218.286 87.893 197.250 L 87.893 176.213 127.893 176.210 C 167.717 176.206,174.301 176.016,180.847 174.685 C 194.265 171.956,207.473 164.246,216.227 154.034 C 233.353 134.056,236.828 106.732,225.203 83.457 C 216.602 66.237,201.592 54.414,182.187 49.575 L 177.707 48.457 127.787 48.345 C 86.502 48.252,77.645 48.332,76.587 48.811 M72.107 167.998 L 72.107 196.475 57.813 182.187 L 43.520 167.898 57.704 153.709 C 65.506 145.905,71.938 139.520,71.998 139.520 C 72.058 139.520,72.107 152.335,72.107 167.998 " stroke="none" fill-rule="evenodd"></path></svg>