<svg fill="currentColor" viewBox="0 0 256 256" xmlns="http://www.w3.org/2000/svg"><path d="M44.265 32.461 C 39.776 33.526,35.661 36.951,33.540 41.387 L 32.213 44.160 32.213 128.000 L 32.213 211.840 33.407 214.400 C 34.974 217.760,38.261 221.060,41.555 222.583 L 44.160 223.787 128.000 223.787 L 211.840 223.787 214.445 222.583 C 217.739 221.060,221.026 217.760,222.593 214.400 L 223.787 211.840 223.787 128.000 L 223.787 44.160 222.583 41.555 C 221.060 38.261,217.760 34.974,214.400 33.407 L 211.840 32.213 128.853 32.147 C 81.512 32.109,45.179 32.244,44.265 32.461 M207.787 128.000 L 207.787 207.787 128.000 207.787 L 48.213 207.787 48.213 128.000 L 48.213 48.213 128.000 48.213 L 207.787 48.213 207.787 128.000 M117.127 88.536 C 115.799 89.009,111.636 92.947,98.091 106.544 C 81.884 122.814,80.724 124.079,80.265 125.973 C 79.895 127.501,79.895 128.499,80.266 130.027 C 80.724 131.919,81.892 133.196,97.872 149.274 C 115.407 166.917,116.777 168.088,119.893 168.088 C 122.864 168.088,126.511 165.593,127.546 162.852 C 128.192 161.144,128.108 158.524,127.349 156.708 C 126.940 155.730,123.178 151.607,117.245 145.636 L 107.791 136.123 139.192 136.008 L 170.594 135.893 172.405 134.613 C 177.096 131.299,177.096 124.701,172.406 121.387 L 170.594 120.107 139.195 119.989 L 107.797 119.872 117.247 110.361 C 123.179 104.392,126.941 100.270,127.349 99.292 C 129.110 95.077,127.338 90.668,123.093 88.702 C 121.062 87.762,119.429 87.716,117.127 88.536 " stroke="none" fill-rule="evenodd"></path></svg>