<svg fill="currentColor" viewBox="0 0 256 256" xmlns="http://www.w3.org/2000/svg"><path d="M124.587 8.787 C 123.668 9.185,116.730 15.783,106.546 25.944 C 89.486 42.965,87.880 44.862,87.903 47.977 C 87.923 50.781,90.492 54.436,93.148 55.440 C 93.899 55.723,99.134 55.893,107.121 55.893 L 119.893 55.893 119.896 76.267 C 119.897 89.815,120.056 97.209,120.369 98.337 C 120.999 100.607,123.497 103.042,125.843 103.674 C 130.116 104.824,134.505 102.389,135.661 98.227 C 135.936 97.238,136.103 88.965,136.104 76.267 L 136.107 55.893 148.879 55.893 C 156.866 55.893,162.101 55.723,162.852 55.440 C 165.508 54.436,168.077 50.781,168.097 47.977 C 168.120 44.863,166.514 42.965,149.453 25.943 C 138.311 14.825,132.387 9.215,131.320 8.769 C 129.330 7.938,126.529 7.945,124.587 8.787 M134.400 33.920 L 140.576 40.107 128.000 40.107 L 115.424 40.107 121.600 33.920 C 124.997 30.517,127.877 27.733,128.000 27.733 C 128.123 27.733,131.003 30.517,134.400 33.920 M39.040 120.100 C 38.805 120.180,38.100 120.358,37.473 120.496 C 34.768 121.090,32.019 124.872,32.019 128.000 C 32.019 129.829,33.242 132.583,34.616 133.846 C 37.240 136.258,30.969 136.107,128.000 136.107 C 225.031 136.107,218.760 136.258,221.384 133.846 C 222.726 132.613,223.979 129.847,223.991 128.093 C 224.009 125.299,222.143 122.260,219.520 120.813 C 218.342 120.163,211.142 120.101,128.853 120.031 C 79.691 119.990,39.275 120.021,39.040 120.100 M125.979 152.299 C 124.155 152.745,121.781 154.592,120.853 156.289 C 120.176 157.527,120.095 159.615,119.985 178.880 L 119.863 200.107 107.106 200.107 C 99.130 200.107,93.899 200.277,93.148 200.560 C 90.492 201.564,87.923 205.219,87.903 208.023 C 87.880 211.137,89.486 213.035,106.547 230.057 C 117.689 241.175,123.613 246.785,124.680 247.231 C 126.703 248.076,129.297 248.076,131.320 247.231 C 132.387 246.785,138.311 241.175,149.453 230.057 C 166.514 213.035,168.120 211.137,168.097 208.023 C 168.077 205.219,165.508 201.564,162.852 200.560 C 162.101 200.277,156.870 200.107,148.894 200.107 L 136.137 200.107 136.015 178.880 C 135.897 158.372,135.864 157.603,135.020 156.166 C 133.268 153.184,129.303 151.488,125.979 152.299 M134.292 222.185 L 128.000 228.476 121.708 222.185 L 115.417 215.893 128.000 215.893 L 140.583 215.893 134.292 222.185 " stroke="none" fill-rule="evenodd"></path></svg>