<svg fill="currentColor" viewBox="0 0 256 256" xmlns="http://www.w3.org/2000/svg"><path d="M156.800 40.711 C 154.241 41.854,151.882 45.410,151.903 48.093 C 151.925 50.922,153.523 52.993,163.111 62.619 L 172.572 72.117 155.021 89.712 C 145.367 99.389,137.163 107.921,136.788 108.672 C 135.490 111.275,136.097 115.107,138.185 117.485 C 140.147 119.721,144.616 120.565,147.328 119.212 C 148.079 118.837,156.611 110.633,166.288 100.979 L 183.883 83.428 193.381 92.889 C 203.088 102.557,205.086 104.088,208.000 104.088 C 210.766 104.088,214.438 101.504,215.440 98.852 C 215.742 98.052,215.893 89.105,215.893 72.065 C 215.893 50.005,215.803 46.263,215.237 44.909 C 214.353 42.793,213.443 41.841,211.413 40.909 C 209.816 40.176,208.047 40.126,183.893 40.133 C 163.261 40.139,157.823 40.255,156.800 40.711 M199.915 56.436 C 200.029 56.734,200.071 61.344,200.008 66.680 L 199.893 76.381 189.657 66.137 L 179.420 55.893 189.563 55.893 C 197.377 55.893,199.755 56.018,199.915 56.436 M108.800 136.779 C 107.865 137.179,100.727 143.992,89.716 154.991 L 72.126 172.564 62.623 163.137 C 57.396 157.953,52.452 153.371,51.637 152.955 C 49.799 152.017,46.282 151.971,44.577 152.861 C 42.923 153.724,41.131 155.637,40.560 157.148 C 40.258 157.948,40.107 166.958,40.107 184.151 C 40.107 208.629,40.148 210.035,40.915 211.537 C 41.913 213.492,42.882 214.390,44.909 215.237 C 46.263 215.803,50.005 215.893,72.065 215.893 C 89.105 215.893,98.052 215.742,98.852 215.440 C 101.504 214.438,104.088 210.766,104.088 208.000 C 104.088 205.086,102.557 203.088,92.889 193.381 L 83.428 183.883 100.979 166.288 C 110.633 156.611,118.837 148.079,119.212 147.328 C 120.569 144.609,119.731 140.194,117.470 138.150 C 115.312 136.199,111.547 135.603,108.800 136.779 M66.680 200.008 C 61.344 200.071,56.734 200.029,56.436 199.915 C 56.018 199.755,55.893 197.377,55.893 189.563 L 55.893 179.420 66.137 189.657 L 76.381 199.893 66.680 200.008 " stroke="none" fill-rule="evenodd"></path></svg>