<svg fill="currentColor" viewBox="0 0 256 256" xmlns="http://www.w3.org/2000/svg"><path d="M119.253 32.469 C 103.492 33.919,88.134 39.334,74.929 48.098 C 69.920 51.422,65.789 54.852,56.337 63.534 L 49.314 69.985 38.844 59.552 C 33.085 53.814,27.833 48.915,27.172 48.666 C 23.432 47.256,18.974 48.778,17.062 52.118 L 16.000 53.973 16.000 80.000 C 16.000 103.685,16.065 106.146,16.725 107.350 C 17.660 109.057,20.172 111.257,21.661 111.674 C 23.183 112.100,72.817 112.100,74.339 111.674 C 75.672 111.301,78.310 109.111,79.016 107.792 C 79.923 106.098,80.179 103.922,79.701 101.973 C 79.285 100.272,78.195 99.007,70.122 90.859 C 65.112 85.802,61.027 81.482,61.045 81.259 C 61.091 80.654,77.877 65.552,80.957 63.344 C 105.230 45.944,137.343 43.253,163.600 56.419 C 185.692 67.496,201.158 87.649,206.399 112.188 C 207.464 117.172,207.544 118.277,207.544 128.000 C 207.544 137.726,207.464 138.825,206.400 143.787 C 204.741 151.528,203.033 156.404,199.452 163.627 C 193.102 176.431,184.225 186.581,172.587 194.340 C 158.804 203.529,144.233 207.949,127.787 207.930 C 120.359 207.921,116.172 207.408,108.867 205.611 C 96.650 202.605,84.580 196.367,75.520 188.375 C 71.469 184.802,70.427 184.259,67.627 184.259 C 63.055 184.259,59.733 187.534,59.733 192.041 C 59.733 194.616,60.671 196.346,63.555 199.095 C 72.279 207.409,84.971 214.812,97.872 219.111 C 138.789 232.745,183.830 217.176,208.062 181.021 C 218.115 166.023,224.000 146.444,224.000 128.000 C 224.000 95.854,207.670 65.526,180.907 47.968 C 162.548 35.924,140.885 30.478,119.253 32.469 M42.453 85.760 L 52.687 96.000 42.343 96.000 L 32.000 96.000 32.000 85.760 C 32.000 80.128,32.050 75.520,32.110 75.520 C 32.171 75.520,36.825 80.128,42.453 85.760 " stroke="none" fill-rule="evenodd"></path></svg>