<svg fill="currentColor" viewBox="0 0 256 256" xmlns="http://www.w3.org/2000/svg"><path d="M117.711 24.472 C 116.863 24.781,115.615 25.436,114.938 25.929 C 112.426 27.756,17.550 123.148,16.846 124.554 C 15.754 126.736,15.899 129.740,17.202 131.932 C 17.801 132.937,40.239 155.666,67.065 182.439 C 118.616 233.890,116.728 232.131,120.370 232.097 C 121.788 232.084,124.618 230.711,125.740 229.490 C 127.986 227.047,128.000 226.892,128.000 204.600 L 128.000 183.893 169.319 183.893 C 214.944 183.893,212.670 184.024,217.009 181.143 C 219.912 179.216,222.051 176.328,223.145 172.862 C 223.977 170.224,224.000 168.996,224.000 128.000 C 224.000 87.004,223.977 85.776,223.145 83.138 C 222.051 79.672,219.912 76.784,217.009 74.857 C 212.670 71.976,214.944 72.107,169.319 72.107 L 128.000 72.107 128.000 51.400 C 128.000 29.107,127.984 28.929,125.740 26.525 C 123.759 24.404,120.317 23.524,117.711 24.472 M112.709 83.413 C 113.645 85.105,115.552 86.877,117.041 87.440 C 117.862 87.750,132.418 87.893,163.014 87.893 L 207.787 87.893 207.787 128.000 L 207.787 168.107 163.014 168.107 C 132.418 168.107,117.862 168.250,117.041 168.560 C 115.552 169.123,113.645 170.895,112.709 172.587 C 112.098 173.689,111.970 175.957,111.787 188.908 L 111.573 203.950 73.601 165.975 L 35.628 128.000 73.601 90.025 L 111.573 52.050 111.787 67.092 C 111.970 80.043,112.098 82.311,112.709 83.413 " stroke="none" fill-rule="evenodd"></path></svg>