<svg fill="currentColor" viewBox="0 0 256 256" xmlns="http://www.w3.org/2000/svg"><path d="M44.265 32.461 C 39.776 33.526,35.661 36.951,33.540 41.387 L 32.213 44.160 32.213 128.000 L 32.213 211.840 33.407 214.400 C 34.974 217.760,38.261 221.060,41.555 222.583 L 44.160 223.787 128.000 223.787 L 211.840 223.787 214.445 222.583 C 217.739 221.060,221.026 217.760,222.593 214.400 L 223.787 211.840 223.787 128.000 L 223.787 44.160 222.583 41.555 C 221.060 38.261,217.760 34.974,214.400 33.407 L 211.840 32.213 128.853 32.147 C 81.512 32.109,45.179 32.244,44.265 32.461 M207.787 128.000 L 207.787 207.787 128.000 207.787 L 48.213 207.787 48.213 128.000 L 48.213 48.213 128.000 48.213 L 207.787 48.213 207.787 128.000 M126.507 80.203 C 124.229 80.727,122.476 81.905,121.278 83.714 L 120.107 85.484 119.992 116.854 L 119.877 148.225 110.605 138.991 C 100.983 129.408,99.134 128.019,96.000 128.019 C 94.171 128.019,91.417 129.242,90.154 130.616 C 88.898 131.982,87.891 134.479,87.903 136.200 C 87.923 139.221,89.200 140.709,106.726 158.141 C 123.127 174.454,124.043 175.289,125.973 175.690 C 127.304 175.966,128.696 175.966,130.027 175.690 C 131.958 175.289,132.862 174.464,149.240 158.141 C 166.662 140.778,168.107 139.096,168.107 136.172 C 168.107 134.469,167.089 131.968,165.846 130.616 C 164.583 129.242,161.829 128.019,160.000 128.019 C 156.866 128.019,155.017 129.408,145.395 138.991 L 136.123 148.225 136.008 116.854 L 135.893 85.484 134.720 83.710 C 132.967 81.062,129.397 79.537,126.507 80.203 " stroke="none" fill-rule="evenodd"></path></svg>