<svg fill="currentColor" viewBox="0 0 256 256" xmlns="http://www.w3.org/2000/svg"><path d="M36.053 40.505 C 30.344 41.916,25.583 47.035,24.322 53.120 C 24.024 54.557,23.916 79.407,23.993 129.280 L 24.107 203.307 25.224 205.957 C 27.063 210.321,30.434 213.551,34.721 215.057 C 37.053 215.877,38.826 215.893,128.000 215.893 C 217.174 215.893,218.947 215.877,221.279 215.057 C 225.566 213.551,228.937 210.321,230.776 205.957 L 231.893 203.307 231.893 128.000 L 231.893 52.693 230.867 50.144 C 229.561 46.901,226.312 43.426,222.933 41.659 L 220.373 40.320 128.853 40.255 C 78.517 40.219,36.757 40.331,36.053 40.505 M215.893 128.000 L 215.893 200.107 128.000 200.107 L 40.107 200.107 40.107 128.000 L 40.107 55.893 128.000 55.893 L 215.893 55.893 215.893 128.000 M76.451 89.001 C 70.932 91.752,70.508 99.140,75.665 102.714 L 77.367 103.893 128.000 103.893 L 178.633 103.893 180.395 102.672 C 185.378 99.219,184.976 91.853,179.653 89.073 L 177.396 87.893 128.035 87.893 L 78.674 87.893 76.451 89.001 M76.451 121.001 C 70.932 123.752,70.508 131.140,75.665 134.714 L 77.367 135.893 128.000 135.893 L 178.633 135.893 180.395 134.672 C 185.378 131.219,184.976 123.853,179.653 121.073 L 177.396 119.893 128.035 119.893 L 78.674 119.893 76.451 121.001 M76.451 153.001 C 70.932 155.752,70.508 163.140,75.665 166.714 L 77.367 167.893 128.000 167.893 L 178.633 167.893 180.395 166.672 C 185.378 163.219,184.976 155.853,179.653 153.073 L 177.396 151.893 128.035 151.893 L 78.674 151.893 76.451 153.001 " stroke="none" fill-rule="evenodd"></path></svg>