<svg fill="currentColor" viewBox="0 0 256 256" xmlns="http://www.w3.org/2000/svg"><path d="M124.800 32.806 C 122.735 33.760,121.435 35.110,120.554 37.219 C 119.974 38.606,119.893 43.531,119.893 77.472 C 119.893 108.238,119.784 116.102,119.360 115.934 C 119.067 115.818,103.371 109.527,84.480 101.953 C 46.889 86.882,47.663 87.129,44.153 89.106 C 41.418 90.647,40.320 92.622,40.320 96.000 C 40.320 99.463,41.457 101.421,44.373 102.978 C 45.429 103.541,61.557 110.105,80.213 117.564 C 98.869 125.023,114.298 131.269,114.499 131.443 C 114.701 131.618,106.533 142.483,96.350 155.587 C 86.167 168.692,75.079 182.965,71.711 187.307 C 68.343 191.648,65.209 196.044,64.746 197.076 C 62.657 201.734,65.978 207.183,71.211 207.686 C 73.967 207.951,75.885 207.260,77.754 205.327 C 79.351 203.676,80.177 202.622,109.867 164.352 C 119.723 151.648,127.883 141.255,128.000 141.257 C 128.117 141.258,136.661 152.126,146.987 165.408 C 175.926 202.634,177.058 204.079,178.274 205.371 C 181.410 208.705,185.897 208.946,189.296 205.962 C 191.888 203.686,192.735 200.111,191.420 197.000 C 191.101 196.244,179.664 181.249,166.006 163.675 C 152.347 146.102,141.328 131.581,141.519 131.407 C 141.710 131.233,157.131 124.998,175.787 117.553 C 194.443 110.107,210.571 103.551,211.627 102.984 C 214.545 101.416,215.680 99.461,215.680 96.000 C 215.680 92.622,214.582 90.647,211.847 89.106 C 208.337 87.129,209.111 86.882,171.520 101.953 C 152.629 109.527,136.933 115.818,136.640 115.934 C 136.216 116.102,136.105 108.216,136.097 77.379 C 136.088 40.602,136.048 38.526,135.300 36.907 C 133.370 32.725,128.823 30.949,124.800 32.806 " stroke="none" fill-rule="evenodd"></path></svg>