<svg fill="currentColor" viewBox="0 0 256 256" xmlns="http://www.w3.org/2000/svg"><path d="M119.183 16.845 C 104.782 19.458,91.392 29.596,85.028 42.705 C 82.197 48.534,80.854 53.558,79.993 61.529 L 79.730 63.964 57.882 64.089 L 36.034 64.213 33.197 65.610 C 29.683 67.341,26.479 70.713,25.097 74.135 L 24.107 76.587 24.107 139.947 L 24.107 203.307 25.224 205.957 C 27.063 210.321,30.434 213.551,34.721 215.057 C 37.053 215.877,38.826 215.893,128.000 215.893 C 217.174 215.893,218.947 215.877,221.279 215.057 C 225.566 213.551,228.937 210.321,230.776 205.957 L 231.893 203.307 231.893 139.947 L 231.893 76.587 230.903 74.135 C 229.521 70.713,226.317 67.341,222.803 65.610 L 219.966 64.213 198.113 64.089 L 176.260 63.964 176.020 61.955 C 174.897 52.568,173.882 48.698,170.972 42.705 C 164.562 29.503,151.108 19.383,136.584 16.840 C 132.248 16.080,123.382 16.083,119.183 16.845 M136.067 33.033 C 142.252 34.728,148.832 39.037,152.849 44.022 C 156.752 48.867,160.000 57.380,160.000 62.767 L 160.000 64.000 127.941 64.000 L 95.882 64.000 96.176 61.120 C 96.612 56.849,97.192 54.812,99.181 50.560 C 103.630 41.050,112.393 34.292,122.699 32.423 C 125.548 31.906,133.235 32.257,136.067 33.033 M79.856 89.067 C 80.020 99.172,80.329 100.306,83.528 102.566 C 87.059 105.061,91.547 104.234,94.482 100.548 L 95.787 98.910 95.916 89.562 L 96.046 80.213 128.023 80.213 L 160.000 80.213 160.000 88.974 C 160.000 98.751,160.186 99.644,162.673 101.828 C 165.691 104.478,169.389 104.745,172.513 102.538 C 175.668 100.309,175.980 99.150,176.144 89.067 L 176.288 80.213 196.091 80.213 L 215.893 80.213 215.893 140.160 L 215.893 200.107 128.000 200.107 L 40.107 200.107 40.107 140.160 L 40.107 80.213 59.909 80.213 L 79.712 80.213 79.856 89.067 " stroke="none" fill-rule="evenodd"></path></svg>