<svg fill="currentColor" viewBox="0 0 256 256" xmlns="http://www.w3.org/2000/svg"><path d="M126.291 24.180 C 125.703 24.277,101.130 39.183,71.683 57.303 C 21.199 88.370,18.087 90.355,17.129 92.091 C 14.982 95.983,16.422 100.992,20.267 103.001 C 21.871 103.840,22.749 103.901,34.880 104.018 L 47.787 104.142 47.787 136.124 L 47.787 168.107 39.068 168.107 C 33.945 168.107,29.854 168.294,29.148 168.560 C 26.496 169.562,23.912 173.234,23.912 176.000 C 23.912 178.766,26.496 182.438,29.148 183.440 C 30.838 184.078,225.162 184.078,226.852 183.440 C 229.504 182.438,232.088 178.766,232.088 176.000 C 232.088 173.234,229.504 169.562,226.852 168.560 C 226.146 168.294,222.055 168.107,216.932 168.107 L 208.213 168.107 208.213 136.124 L 208.213 104.142 221.120 104.018 C 233.251 103.901,234.129 103.840,235.733 103.001 C 239.547 101.008,241.000 95.951,238.870 92.089 C 237.913 90.354,234.806 88.374,184.314 57.324 C 129.268 23.473,129.562 23.640,126.291 24.180 M165.705 64.640 L 203.124 87.680 165.562 87.789 C 144.903 87.849,111.098 87.849,90.440 87.789 L 52.880 87.680 90.333 64.577 C 110.933 51.870,127.899 41.502,128.036 41.537 C 128.173 41.572,145.124 51.968,165.705 64.640 M96.000 136.107 L 96.000 168.107 80.000 168.107 L 64.000 168.107 64.000 136.107 L 64.000 104.107 80.000 104.107 L 96.000 104.107 96.000 136.107 M143.787 136.107 L 143.787 168.107 128.000 168.107 L 112.213 168.107 112.213 136.107 L 112.213 104.107 128.000 104.107 L 143.787 104.107 143.787 136.107 M192.000 136.107 L 192.000 168.107 176.000 168.107 L 160.000 168.107 160.000 136.107 L 160.000 104.107 176.000 104.107 L 192.000 104.107 192.000 136.107 M12.813 200.782 C 10.863 201.628,9.895 202.542,8.915 204.463 C 7.433 207.367,8.183 211.728,10.530 213.850 C 12.930 216.020,5.633 215.894,128.093 215.884 C 237.427 215.875,241.771 215.845,243.413 215.091 C 245.443 214.159,246.353 213.207,247.237 211.091 C 248.072 209.093,248.072 206.907,247.237 204.909 C 246.353 202.793,245.443 201.841,243.413 200.909 C 241.771 200.155,237.444 200.126,128.000 200.133 C 27.704 200.139,14.119 200.216,12.813 200.782 " stroke="none" fill-rule="evenodd"></path></svg>