<svg fill="currentColor" viewBox="0 0 256 256" xmlns="http://www.w3.org/2000/svg"><path d="M28.800 40.711 C 27.117 41.463,25.379 43.350,24.556 45.320 C 23.987 46.683,23.895 49.894,23.903 68.146 C 23.911 87.831,23.969 89.513,24.695 91.111 C 26.816 95.779,32.817 97.447,36.619 94.424 C 37.481 93.738,38.619 92.332,39.147 91.298 C 40.094 89.444,40.107 89.199,40.107 72.656 L 40.107 55.893 56.932 55.893 C 67.783 55.893,74.184 55.732,74.959 55.440 C 78.643 54.048,80.631 50.009,79.596 46.020 C 78.975 43.626,77.726 42.096,75.430 40.918 C 73.934 40.151,72.654 40.108,51.964 40.123 C 34.631 40.137,29.814 40.259,28.800 40.711 M180.480 40.938 C 178.254 42.121,177.014 43.667,176.404 46.020 C 175.369 50.009,177.357 54.048,181.041 55.440 C 181.816 55.732,188.217 55.893,199.068 55.893 L 215.893 55.893 215.903 72.640 C 215.913 91.135,215.942 91.352,218.720 93.946 C 222.725 97.688,229.237 96.068,231.446 90.781 C 232.013 89.425,232.105 86.181,232.097 67.960 C 232.089 48.196,232.033 46.601,231.298 45.013 C 230.378 43.027,228.560 41.206,226.852 40.560 C 226.058 40.260,218.250 40.113,203.812 40.126 C 183.360 40.143,181.878 40.195,180.480 40.938 M79.147 79.997 C 78.912 80.075,78.196 80.254,77.554 80.396 C 75.991 80.740,73.395 83.076,72.683 84.780 C 72.212 85.907,72.107 93.817,72.107 127.959 C 72.107 156.454,72.251 170.140,72.560 170.959 C 73.658 173.865,76.730 175.909,80.000 175.909 C 83.270 175.909,86.342 173.865,87.440 170.959 C 87.749 170.140,87.893 156.466,87.893 128.000 C 87.893 99.534,87.749 85.860,87.440 85.041 C 86.892 83.592,85.087 81.618,83.627 80.872 C 82.474 80.283,79.838 79.768,79.147 79.997 M111.147 79.997 C 110.912 80.075,110.196 80.254,109.554 80.396 C 107.991 80.740,105.395 83.076,104.683 84.780 C 104.212 85.907,104.107 93.817,104.107 127.959 C 104.107 156.454,104.251 170.140,104.560 170.959 C 105.658 173.865,108.730 175.909,112.000 175.909 C 115.270 175.909,118.342 173.865,119.440 170.959 C 120.073 169.281,120.073 86.719,119.440 85.041 C 118.892 83.592,117.087 81.618,115.627 80.872 C 114.474 80.283,111.838 79.768,111.147 79.997 M143.147 79.997 C 142.912 80.075,142.196 80.254,141.554 80.396 C 139.991 80.740,137.395 83.076,136.683 84.780 C 136.212 85.907,136.107 93.817,136.107 127.959 C 136.107 156.454,136.251 170.140,136.560 170.959 C 137.658 173.865,140.730 175.909,144.000 175.909 C 147.270 175.909,150.342 173.865,151.440 170.959 C 152.073 169.281,152.073 86.719,151.440 85.041 C 150.892 83.592,149.087 81.618,147.627 80.872 C 146.474 80.283,143.838 79.768,143.147 79.997 M175.147 79.997 C 174.912 80.075,174.196 80.254,173.554 80.396 C 171.991 80.740,169.395 83.076,168.683 84.780 C 168.212 85.907,168.107 93.817,168.107 127.959 C 168.107 156.454,168.251 170.140,168.560 170.959 C 169.658 173.865,172.730 175.909,176.000 175.909 C 179.270 175.909,182.342 173.865,183.440 170.959 C 184.073 169.281,184.073 86.719,183.440 85.041 C 182.892 83.592,181.087 81.618,179.627 80.872 C 178.474 80.283,175.838 79.768,175.147 79.997 M28.800 160.806 C 26.735 161.760,25.435 163.110,24.554 165.219 C 23.987 166.575,23.895 169.819,23.903 188.040 C 23.911 207.662,23.971 209.410,24.689 210.990 C 25.668 213.146,28.146 215.348,29.964 215.678 C 30.732 215.818,41.182 215.875,53.187 215.806 L 75.015 215.680 76.654 214.373 C 78.751 212.700,79.885 210.404,79.885 207.831 C 79.885 204.693,77.817 201.640,74.959 200.560 C 74.184 200.268,67.783 200.107,56.932 200.107 L 40.107 200.107 40.097 183.360 C 40.089 167.991,40.023 166.473,39.300 164.907 C 37.370 160.725,32.823 158.949,28.800 160.806 M220.800 160.806 C 218.735 161.760,217.435 163.110,216.554 165.219 C 215.996 166.554,215.893 169.387,215.893 183.453 L 215.893 200.107 199.068 200.107 C 188.217 200.107,181.816 200.268,181.041 200.560 C 179.700 201.067,177.660 202.863,176.963 204.150 C 174.861 208.031,176.765 213.585,180.786 215.306 C 181.892 215.779,186.389 215.893,203.905 215.893 C 218.232 215.893,226.061 215.739,226.852 215.440 C 228.560 214.794,230.378 212.973,231.298 210.987 C 232.034 209.397,232.088 207.813,232.088 187.947 C 232.088 168.107,232.033 166.494,231.300 164.907 C 229.370 160.725,224.823 158.949,220.800 160.806 " stroke="none" fill-rule="evenodd"></path></svg>