<svg fill="currentColor" viewBox="0 0 256 256" xmlns="http://www.w3.org/2000/svg"><path d="M120.960 24.326 C 100.935 25.586,81.587 32.844,64.891 45.360 C 59.554 49.360,49.234 59.686,45.276 64.986 C 34.512 79.399,27.973 94.882,25.095 112.768 C 23.886 120.283,23.787 134.307,24.890 141.867 C 27.542 160.046,34.293 176.318,45.279 191.014 C 49.299 196.392,59.608 206.701,64.986 210.721 C 79.686 221.710,96.000 228.476,114.133 231.105 C 117.683 231.620,121.936 231.847,128.000 231.847 C 144.598 231.847,158.874 228.583,173.440 221.458 C 184.661 215.968,192.320 210.472,201.396 201.396 C 210.475 192.317,215.974 184.654,221.456 173.440 C 235.707 144.287,235.458 110.173,220.780 81.026 C 214.698 68.950,203.517 55.194,193.067 46.931 C 172.349 30.550,147.221 22.673,120.960 24.326 M142.080 41.152 C 151.177 42.690,159.852 45.539,167.835 49.609 C 171.898 51.681,180.091 56.906,182.638 59.048 L 183.875 60.089 182.237 62.072 C 180.745 63.877,179.623 66.380,179.629 67.890 C 179.635 69.426,180.655 71.849,181.883 73.249 C 185.137 76.955,190.501 76.877,193.985 73.072 C 194.838 72.142,195.575 71.654,195.751 71.904 C 195.917 72.140,197.270 73.954,198.758 75.934 C 221.546 106.279,221.546 149.721,198.758 180.066 C 197.270 182.046,195.910 183.862,195.734 184.100 C 195.543 184.360,194.860 183.906,194.028 182.966 C 189.803 178.194,182.945 178.976,180.429 184.516 C 178.924 187.828,179.452 190.500,182.276 193.857 C 183.233 194.995,183.841 196.051,183.625 196.203 C 183.409 196.355,181.798 197.546,180.043 198.848 C 165.042 209.986,147.006 215.893,128.000 215.893 C 114.391 215.893,102.091 213.084,89.813 207.171 C 84.635 204.677,77.403 200.211,73.707 197.226 L 72.107 195.933 73.787 193.900 C 76.865 190.174,76.990 186.024,74.122 182.758 C 70.863 179.045,65.502 179.121,62.015 182.928 C 61.162 183.858,60.425 184.346,60.249 184.096 C 60.083 183.860,58.730 182.046,57.242 180.066 C 34.437 149.697,34.437 106.303,57.242 75.934 C 58.730 73.954,60.083 72.140,60.249 71.904 C 60.425 71.654,61.162 72.142,62.015 73.072 C 65.502 76.879,70.863 76.955,74.122 73.242 C 76.987 69.980,76.865 65.825,73.796 62.111 L 72.125 60.089 73.362 59.048 C 75.909 56.906,84.102 51.681,88.165 49.609 C 96.587 45.315,106.969 42.035,115.413 41.001 C 117.525 40.743,119.733 40.449,120.320 40.349 C 122.762 39.932,138.241 40.503,142.080 41.152 M82.073 88.287 C 78.467 89.182,75.947 92.301,75.947 95.869 C 75.947 96.822,76.510 99.432,77.199 101.669 C 77.887 103.907,78.872 107.722,79.387 110.148 C 80.440 115.115,80.899 116.203,82.629 117.840 C 87.117 122.087,95.048 119.298,95.868 113.185 C 96.288 110.049,92.489 94.814,90.474 91.553 C 88.959 89.102,84.997 87.562,82.073 88.287 M169.703 88.493 C 166.337 89.715,165.459 90.924,163.460 97.093 C 161.391 103.478,159.838 110.989,160.132 113.185 C 160.625 116.858,164.185 119.893,168.000 119.893 C 170.246 119.893,171.848 119.281,173.371 117.840 C 175.101 116.203,175.560 115.115,176.613 110.148 C 177.128 107.722,178.113 103.907,178.801 101.669 C 180.286 96.846,180.365 94.779,179.159 92.289 C 177.606 89.081,173.084 87.266,169.703 88.493 M86.578 136.112 C 84.357 136.495,82.230 137.963,81.207 139.819 C 80.715 140.711,79.894 143.425,79.382 145.852 C 78.870 148.278,77.887 152.093,77.199 154.331 C 75.727 159.113,75.636 161.222,76.799 163.624 C 78.059 166.228,81.113 168.122,84.010 168.097 C 85.607 168.084,88.436 166.696,89.764 165.276 C 92.005 162.878,96.515 145.955,95.848 142.448 C 95.056 138.285,90.809 135.383,86.578 136.112 M166.545 136.128 C 163.333 136.800,160.734 139.370,160.156 142.447 C 159.486 146.020,163.968 162.849,166.236 165.276 C 167.564 166.696,170.393 168.084,171.990 168.097 C 174.887 168.122,177.941 166.228,179.201 163.624 C 180.364 161.222,180.273 159.113,178.801 154.331 C 178.113 152.093,177.130 148.278,176.618 145.852 C 176.106 143.425,175.285 140.711,174.793 139.819 C 173.292 137.097,169.667 135.475,166.545 136.128 " stroke="none" fill-rule="evenodd"></path></svg>