<svg fill="currentColor" viewBox="0 0 256 256" xmlns="http://www.w3.org/2000/svg"><path d="M92.782 0.802 C 89.257 2.403,87.318 6.189,88.245 9.658 C 88.958 12.322,89.844 13.510,92.114 14.844 L 94.080 16.000 128.000 16.000 L 161.920 16.000 163.886 14.844 C 166.156 13.510,167.042 12.322,167.755 9.658 C 168.682 6.189,166.743 2.403,163.218 0.802 C 161.592 0.063,159.584 0.019,128.000 0.019 C 96.416 0.019,94.408 0.063,92.782 0.802 M74.774 32.647 C 70.337 33.611,66.723 35.662,63.146 39.246 C 59.902 42.496,58.439 44.894,56.895 49.493 C 56.139 51.745,56.107 55.402,56.107 139.947 L 56.107 228.053 57.131 231.180 C 59.693 239.001,66.239 245.192,74.088 247.217 C 76.410 247.816,82.571 247.893,128.000 247.893 C 173.429 247.893,179.590 247.816,181.912 247.217 C 189.761 245.192,196.307 239.001,198.869 231.180 L 199.893 228.053 199.893 139.733 L 199.893 51.413 198.666 48.213 C 195.532 40.039,189.075 34.333,181.029 32.628 C 176.860 31.745,78.847 31.762,74.774 32.647 M179.537 49.021 C 181.492 50.019,182.390 50.988,183.237 53.015 C 183.820 54.411,183.892 64.090,183.884 140.040 C 183.875 222.023,183.843 225.563,183.091 227.218 C 182.211 229.155,180.133 231.093,178.420 231.573 C 176.930 231.991,79.070 231.991,77.580 231.573 C 75.867 231.093,73.789 229.155,72.909 227.218 C 72.157 225.563,72.125 222.031,72.125 139.947 C 72.125 57.837,72.157 54.331,72.909 52.693 C 73.761 50.839,74.610 49.968,76.587 48.924 C 77.733 48.318,83.077 48.246,127.910 48.230 C 176.193 48.214,178.010 48.242,179.537 49.021 M124.308 104.984 C 123.333 105.467,121.989 106.650,121.321 107.613 L 120.107 109.365 119.974 120.576 L 119.842 131.788 108.881 131.921 L 97.920 132.053 95.995 133.185 C 92.418 135.288,91.068 139.975,92.968 143.697 C 95.025 147.728,96.238 148.053,109.193 148.053 L 119.854 148.053 119.980 159.324 L 120.107 170.595 121.387 172.406 C 124.701 177.096,131.299 177.096,134.613 172.406 L 135.893 170.595 136.020 159.324 L 136.146 148.053 146.807 148.053 C 159.762 148.053,160.975 147.728,163.032 143.697 C 164.937 139.964,163.536 135.177,159.935 133.115 C 158.110 132.071,157.900 132.051,147.119 131.921 L 136.158 131.788 136.026 120.576 L 135.893 109.365 134.672 107.604 C 132.396 104.322,127.928 103.192,124.308 104.984 " stroke="none" fill-rule="evenodd"></path></svg>