<svg fill="currentColor" viewBox="0 0 256 256" xmlns="http://www.w3.org/2000/svg"><path d="M92.782 0.802 C 89.257 2.403,87.318 6.189,88.245 9.658 C 88.958 12.322,89.844 13.510,92.114 14.844 L 94.080 16.000 128.000 16.000 L 161.920 16.000 163.886 14.844 C 166.156 13.510,167.042 12.322,167.755 9.658 C 168.682 6.189,166.743 2.403,163.218 0.802 C 161.592 0.063,159.584 0.019,128.000 0.019 C 96.416 0.019,94.408 0.063,92.782 0.802 M74.774 32.647 C 70.337 33.611,66.723 35.662,63.146 39.246 C 59.902 42.496,58.439 44.894,56.895 49.493 C 56.139 51.745,56.107 55.402,56.107 139.947 L 56.107 228.053 57.131 231.180 C 59.693 239.001,66.239 245.192,74.088 247.217 C 76.410 247.816,82.571 247.893,128.000 247.893 C 173.429 247.893,179.590 247.816,181.912 247.217 C 189.761 245.192,196.307 239.001,198.869 231.180 L 199.893 228.053 199.893 139.733 L 199.893 51.413 198.666 48.213 C 195.532 40.039,189.075 34.333,181.029 32.628 C 176.860 31.745,78.847 31.762,74.774 32.647 M179.537 49.021 C 181.492 50.019,182.390 50.988,183.237 53.015 C 183.820 54.411,183.892 64.090,183.884 140.040 C 183.875 222.023,183.843 225.563,183.091 227.218 C 182.211 229.155,180.133 231.093,178.420 231.573 C 176.930 231.991,79.070 231.991,77.580 231.573 C 75.867 231.093,73.789 229.155,72.909 227.218 C 72.157 225.563,72.125 222.031,72.125 139.947 C 72.125 57.837,72.157 54.331,72.909 52.693 C 73.761 50.839,74.610 49.968,76.587 48.924 C 77.733 48.318,83.077 48.246,127.910 48.230 C 176.193 48.214,178.010 48.242,179.537 49.021 M124.689 96.705 C 123.924 97.082,122.712 98.058,121.995 98.874 C 121.279 99.690,116.961 107.833,112.400 116.971 C 104.643 132.510,104.107 133.737,104.107 135.934 C 104.107 137.225,104.385 138.820,104.725 139.478 C 105.623 141.216,108.105 143.246,109.962 143.761 C 110.863 144.011,115.759 144.210,121.067 144.211 C 126.288 144.212,130.560 144.301,130.560 144.409 C 130.560 144.517,128.208 149.336,125.333 155.119 C 120.473 164.897,120.108 165.804,120.120 168.056 C 120.157 174.831,127.549 178.366,133.021 174.226 C 134.130 173.387,136.206 169.591,143.155 155.697 C 151.040 139.928,151.893 138.014,151.893 136.081 C 151.893 133.833,150.886 131.324,149.470 130.043 C 147.442 128.209,145.987 128.000,135.265 128.000 L 125.010 128.000 130.337 117.353 C 133.267 111.497,135.785 105.949,135.933 105.023 C 136.871 99.156,130.011 94.082,124.689 96.705 " stroke="none" fill-rule="evenodd"></path></svg>