<svg fill="currentColor" viewBox="0 0 256 256" xmlns="http://www.w3.org/2000/svg"><path d="M117.776 24.385 C 115.594 25.025,114.020 26.303,112.950 28.303 C 112.003 30.074,112.000 30.156,112.000 51.840 L 112.000 73.600 113.062 75.455 C 114.499 77.965,117.218 79.543,120.104 79.543 C 122.693 79.543,124.574 78.562,126.461 76.228 L 127.787 74.589 128.000 61.426 L 128.213 48.263 149.274 64.063 C 165.201 76.011,170.216 79.983,169.845 80.358 C 169.576 80.630,163.748 85.077,156.894 90.240 C 143.270 100.502,142.527 101.269,142.514 105.084 C 142.506 107.232,143.536 109.763,144.930 111.024 C 147.317 113.182,151.488 113.655,154.240 112.080 C 155.179 111.542,163.649 105.322,173.063 98.257 C 188.101 86.970,190.291 85.182,191.090 83.530 C 192.235 81.166,192.247 78.860,191.127 76.547 C 190.360 74.961,186.288 71.769,157.282 50.013 C 139.147 36.412,123.939 25.089,123.488 24.851 C 122.151 24.148,119.361 23.920,117.776 24.385 M44.587 32.806 C 42.612 33.718,41.209 35.120,40.562 36.828 C 39.928 38.501,39.994 41.580,40.699 43.214 C 41.025 43.969,57.350 62.237,76.976 83.810 C 96.602 105.383,112.608 123.180,112.543 123.360 C 112.479 123.539,98.507 134.132,81.493 146.898 C 64.480 159.665,50.197 170.521,49.752 171.023 C 49.308 171.525,48.695 172.899,48.389 174.076 C 46.747 180.406,53.009 185.823,59.050 183.299 C 59.832 182.972,72.013 174.046,86.119 163.464 L 111.766 144.223 111.883 185.072 L 112.000 225.920 112.968 227.733 C 114.708 230.989,118.465 232.639,121.984 231.691 C 123.295 231.338,130.706 226.018,149.252 212.116 C 163.259 201.616,174.947 192.887,175.225 192.718 C 175.547 192.523,180.731 197.912,189.492 207.551 C 200.092 219.214,203.628 222.841,204.888 223.346 C 208.399 224.750,212.198 223.724,214.458 220.762 C 215.912 218.855,216.328 215.175,215.346 212.893 C 214.820 211.672,181.092 174.307,121.384 108.800 C 115.930 102.816,98.387 83.520,82.399 65.920 C 61.944 43.402,52.806 33.636,51.559 32.960 C 49.401 31.792,46.904 31.737,44.587 32.806 M135.275 149.579 C 138.997 152.374,141.690 155.068,150.809 165.120 C 156.876 171.808,162.491 177.969,163.287 178.812 L 164.734 180.344 147.753 193.069 C 138.414 200.069,130.149 206.266,129.387 206.842 L 128.000 207.888 128.000 176.000 L 128.000 144.112 129.387 145.155 C 130.149 145.728,132.799 147.719,135.275 149.579 " stroke="none" fill-rule="evenodd"></path></svg>