<svg fill="currentColor" viewBox="0 0 256 256" xmlns="http://www.w3.org/2000/svg"><path d="M123.679 17.436 C 120.401 19.515,120.128 20.519,119.977 31.029 L 119.846 40.085 89.897 40.202 L 59.947 40.320 57.525 41.455 C 53.324 43.425,50.012 47.120,48.600 51.413 C 48.172 52.717,47.984 59.412,47.806 79.750 L 47.573 106.379 40.880 108.615 C 37.199 109.845,33.195 111.391,31.982 112.051 C 28.270 114.072,25.374 118.045,24.337 122.542 C 24.093 123.597,23.912 132.148,23.910 142.720 L 23.906 161.067 25.580 166.041 C 31.589 183.897,43.959 199.339,63.075 212.846 C 77.925 223.338,99.263 232.948,120.107 238.531 C 126.731 240.305,129.269 240.305,135.893 238.531 C 156.751 232.944,178.074 223.339,192.948 212.829 C 211.989 199.375,224.430 183.842,230.420 166.041 L 232.094 161.067 232.090 142.720 C 232.088 132.148,231.907 123.597,231.663 122.542 C 230.618 118.010,227.394 113.739,223.526 111.760 C 222.496 111.233,218.677 109.807,215.040 108.591 L 208.427 106.379 208.194 79.750 C 208.016 59.412,207.828 52.717,207.400 51.413 C 205.988 47.120,202.676 43.425,198.475 41.455 L 196.053 40.320 166.103 40.202 L 136.154 40.085 136.023 31.029 C 135.872 20.519,135.599 19.515,132.321 17.436 C 129.609 15.716,126.391 15.716,123.679 17.436 M192.000 78.293 C 192.000 90.613,191.855 100.693,191.677 100.693 C 191.499 100.693,177.532 96.085,160.640 90.453 C 138.677 83.131,129.378 80.213,128.000 80.213 C 126.622 80.213,117.323 83.131,95.360 90.453 C 78.468 96.085,64.501 100.693,64.323 100.693 C 64.145 100.693,64.000 90.613,64.000 78.293 L 64.000 55.893 128.000 55.893 L 192.000 55.893 192.000 78.293 M119.993 135.003 L 120.107 170.594 121.387 172.405 C 124.701 177.096,131.299 177.096,134.613 172.405 L 135.893 170.594 136.007 135.003 C 136.070 115.429,136.263 99.413,136.436 99.413 C 136.609 99.413,154.509 105.333,176.215 112.569 L 215.680 125.725 215.798 142.329 L 215.915 158.933 214.797 162.133 C 213.212 166.666,209.517 173.609,206.170 178.342 C 200.443 186.439,189.079 196.631,178.347 203.294 C 165.818 211.074,148.414 218.489,132.800 222.701 L 128.000 223.996 123.200 222.703 C 107.386 218.441,90.199 211.085,77.563 203.171 C 59.145 191.634,46.633 177.508,41.213 162.133 L 40.085 158.933 40.202 142.329 L 40.320 125.724 79.573 112.602 C 101.163 105.385,119.063 99.466,119.353 99.447 C 119.765 99.421,119.904 107.114,119.993 135.003 " stroke="none" fill-rule="evenodd"></path></svg>