<svg fill="currentColor" viewBox="0 0 256 256" xmlns="http://www.w3.org/2000/svg"><path d="M67.810 32.580 C 63.275 33.811,58.872 37.744,57.090 42.154 L 56.107 44.587 55.995 134.550 C 55.915 199.331,56.016 225.004,56.356 226.267 C 57.366 230.019,61.746 232.665,65.521 231.804 C 66.618 231.553,78.333 224.484,97.413 212.557 C 114.000 202.189,127.764 193.707,128.000 193.707 C 128.236 193.707,142.000 202.189,158.587 212.557 C 177.667 224.484,189.382 231.553,190.479 231.804 C 194.254 232.665,198.634 230.019,199.644 226.267 C 199.984 225.004,200.085 199.331,200.005 134.550 L 199.893 44.587 198.903 42.135 C 197.521 38.712,194.317 35.341,190.802 33.610 L 187.965 32.213 128.862 32.132 C 82.926 32.068,69.326 32.168,67.810 32.580 M183.893 104.747 C 183.893 135.840,183.797 161.280,183.679 161.280 C 183.562 161.280,171.899 154.051,157.763 145.215 C 143.627 136.380,131.441 128.892,130.684 128.575 C 128.805 127.790,126.834 127.868,124.800 128.806 C 123.861 129.239,111.700 136.723,97.775 145.437 C 83.850 154.150,72.378 161.280,72.282 161.280 C 72.186 161.280,72.107 135.840,72.107 104.747 L 72.107 48.213 128.000 48.213 L 183.893 48.213 183.893 104.747 M155.947 162.922 L 183.680 180.296 183.792 194.874 L 183.904 209.453 158.619 193.642 C 144.712 184.946,132.565 177.434,131.627 176.949 C 130.643 176.440,129.107 176.066,128.000 176.066 C 126.893 176.066,125.357 176.440,124.373 176.949 C 123.435 177.434,111.288 184.946,97.381 193.642 L 72.096 209.453 72.208 194.874 L 72.320 180.296 100.053 162.922 C 115.307 153.367,127.883 145.548,128.000 145.548 C 128.117 145.548,140.693 153.367,155.947 162.922 " stroke="none" fill-rule="evenodd"></path></svg>