<svg fill="currentColor" viewBox="0 0 256 256" xmlns="http://www.w3.org/2000/svg"><path d="M68.130 24.341 C 55.904 25.775,45.622 34.248,41.491 46.293 L 40.320 49.707 40.197 137.173 C 40.129 185.280,40.186 225.268,40.324 226.036 C 40.651 227.853,42.852 230.331,45.010 231.311 C 46.642 232.053,50.029 232.088,119.680 232.095 C 171.622 232.100,193.129 231.966,194.337 231.631 C 196.597 231.003,199.042 228.502,199.668 226.176 C 200.620 222.643,199.345 219.373,196.208 217.297 L 194.409 216.107 125.133 215.994 L 55.857 215.881 56.124 214.287 C 56.638 211.218,57.696 208.580,59.204 206.604 C 61.169 204.029,61.966 203.362,65.067 201.696 L 67.627 200.320 138.880 200.107 C 204.237 199.911,210.239 199.835,211.413 199.185 C 213.105 198.248,214.877 196.342,215.440 194.852 C 216.077 193.164,216.077 30.836,215.440 29.148 C 214.877 27.658,213.105 25.752,211.413 24.815 C 210.236 24.164,204.537 24.102,140.587 24.053 C 102.336 24.023,69.730 24.153,68.130 24.341 M200.107 112.000 L 200.107 183.893 135.228 183.893 C 89.716 183.893,69.434 184.035,67.282 184.368 C 64.131 184.856,57.361 187.084,56.935 187.774 C 56.804 187.986,56.512 188.160,56.286 188.160 C 56.024 188.160,55.917 163.587,55.991 120.427 L 56.107 52.693 57.090 50.261 C 58.823 45.972,63.026 42.135,67.535 40.726 C 68.988 40.272,81.895 40.158,134.720 40.135 L 200.107 40.107 200.107 112.000 " stroke="none" fill-rule="evenodd"></path></svg>