<svg fill="currentColor" viewBox="0 0 256 256" xmlns="http://www.w3.org/2000/svg"><path d="M68.130 24.341 C 55.904 25.775,45.622 34.248,41.491 46.293 L 40.320 49.707 40.197 137.173 C 40.129 185.280,40.186 225.268,40.324 226.036 C 40.651 227.853,42.852 230.331,45.010 231.311 C 46.642 232.053,50.029 232.088,119.680 232.095 C 171.622 232.100,193.129 231.966,194.337 231.631 C 196.597 231.003,199.042 228.502,199.668 226.176 C 200.620 222.643,199.345 219.373,196.208 217.297 L 194.409 216.107 125.133 215.994 L 55.857 215.881 56.124 214.287 C 56.638 211.218,57.696 208.580,59.204 206.604 C 61.169 204.029,61.966 203.362,65.067 201.696 L 67.627 200.320 138.880 200.107 C 204.237 199.911,210.239 199.835,211.413 199.185 C 213.105 198.248,214.877 196.342,215.440 194.852 C 216.077 193.164,216.077 30.836,215.440 29.148 C 214.877 27.658,213.105 25.752,211.413 24.815 C 210.236 24.164,204.537 24.102,140.587 24.053 C 102.336 24.023,69.730 24.153,68.130 24.341 M104.107 85.189 L 104.107 130.272 105.170 132.085 C 106.901 135.040,110.062 136.473,113.550 135.884 C 114.948 135.648,118.130 133.466,129.581 124.891 C 142.336 115.339,143.957 114.248,144.700 114.712 C 145.158 114.998,151.645 119.812,159.115 125.410 C 169.993 133.561,173.046 135.647,174.446 135.883 C 177.938 136.473,181.098 135.042,182.830 132.085 L 183.893 130.272 183.893 85.189 L 183.893 40.107 192.000 40.107 L 200.107 40.107 200.107 112.000 L 200.107 183.893 135.228 183.893 C 89.716 183.893,69.434 184.035,67.282 184.368 C 64.131 184.856,57.361 187.084,56.935 187.774 C 56.804 187.986,56.512 188.160,56.286 188.160 C 56.024 188.160,55.917 163.587,55.991 120.427 L 56.107 52.693 57.090 50.261 C 58.823 45.972,63.026 42.135,67.535 40.726 C 68.892 40.302,73.601 40.157,86.720 40.135 L 104.107 40.107 104.107 85.189 M168.107 75.947 C 168.107 95.659,168.012 111.787,167.895 111.787 C 167.779 111.787,163.105 108.358,157.508 104.167 C 150.142 98.650,146.888 96.463,145.722 96.244 C 142.229 95.589,141.301 96.072,130.511 104.152 C 124.904 108.351,120.221 111.787,120.105 111.787 C 119.988 111.787,119.893 95.659,119.893 75.947 L 119.893 40.107 144.000 40.107 L 168.107 40.107 168.107 75.947 " stroke="none" fill-rule="evenodd"></path></svg>