<svg fill="currentColor" viewBox="0 0 256 256" xmlns="http://www.w3.org/2000/svg"><path d="M86.339 24.300 C 80.925 25.591,78.440 31.476,81.337 36.141 C 82.080 37.337,83.230 38.460,84.267 39.001 C 85.968 39.890,86.144 39.894,138.987 40.005 L 192.000 40.117 192.009 116.805 C 192.018 190.284,192.052 193.565,192.802 195.218 C 194.403 198.743,198.189 200.682,201.658 199.755 C 204.322 199.042,205.510 198.156,206.844 195.886 L 208.000 193.920 208.118 117.333 C 208.191 69.713,208.080 39.734,207.825 38.070 C 206.716 30.853,201.767 25.649,194.784 24.358 C 191.885 23.822,88.575 23.767,86.339 24.300 M60.587 56.487 C 53.896 57.974,49.253 63.056,48.175 70.070 C 47.920 71.734,47.809 101.713,47.882 149.333 L 48.000 225.920 48.950 227.697 C 50.673 230.920,54.495 232.653,57.854 231.734 C 59.025 231.414,68.114 225.166,85.374 212.819 C 99.549 202.679,111.531 194.382,112.000 194.382 C 112.469 194.382,124.451 202.679,138.626 212.819 C 155.886 225.166,164.975 231.414,166.146 231.734 C 169.505 232.653,173.327 230.920,175.050 227.697 L 176.000 225.920 176.118 149.333 C 176.191 101.713,176.080 71.734,175.825 70.070 C 174.716 62.853,169.767 57.649,162.784 56.358 C 159.018 55.662,63.757 55.782,60.587 56.487 M160.000 140.185 C 160.000 194.536,159.892 208.199,159.467 207.941 C 159.173 207.763,149.196 200.658,137.294 192.153 C 117.836 178.247,114.041 175.791,112.000 175.791 C 109.982 175.791,106.125 178.286,86.709 192.149 C 74.793 200.657,64.809 207.764,64.522 207.941 C 64.111 208.195,64.000 193.744,64.000 140.185 L 64.000 72.107 112.000 72.107 L 160.000 72.107 160.000 140.185 " stroke="none" fill-rule="evenodd"></path></svg>