<svg fill="currentColor" viewBox="0 0 256 256" xmlns="http://www.w3.org/2000/svg"><path d="M28.800 40.711 C 26.358 41.801,23.893 45.383,23.893 47.842 C 23.893 48.357,24.646 51.099,25.566 53.936 C 34.087 80.204,34.007 126.077,25.377 161.631 L 23.893 167.741 23.893 184.474 C 23.893 202.138,24.056 203.942,25.986 207.693 C 27.184 210.022,30.563 213.191,33.264 214.518 L 35.627 215.680 52.956 215.680 L 70.286 215.680 77.833 211.947 L 85.381 208.213 93.896 208.213 L 102.411 208.213 108.699 211.353 C 118.500 216.246,116.626 215.949,136.856 215.805 L 154.342 215.680 161.888 211.947 L 169.434 208.213 177.903 208.213 L 186.373 208.213 193.978 211.947 L 201.584 215.680 218.881 215.680 L 236.178 215.680 238.995 214.293 C 242.334 212.649,244.956 209.972,246.545 206.581 L 247.680 204.160 247.680 181.973 L 247.680 159.787 246.512 155.190 C 243.681 144.043,238.542 135.170,230.479 127.511 C 224.301 121.641,217.006 117.276,209.174 114.763 C 201.958 112.448,199.193 112.217,178.667 112.215 L 160.000 112.213 160.000 83.032 C 160.000 55.014,159.966 53.742,159.145 51.138 C 157.587 46.201,153.556 42.189,148.677 40.720 C 145.741 39.837,30.779 39.828,28.800 40.711 M143.787 67.817 L 143.787 79.742 126.827 79.871 C 111.979 79.984,109.707 80.088,108.587 80.709 C 106.895 81.645,105.123 83.552,104.560 85.041 C 103.492 87.869,104.414 92.043,106.530 93.957 C 108.696 95.916,109.547 96.000,127.133 96.000 L 143.787 96.000 143.787 103.871 L 143.787 111.742 126.827 111.871 C 108.270 112.012,108.689 111.956,106.160 114.629 C 102.673 118.314,103.687 124.629,108.159 127.084 C 109.317 127.719,113.685 127.809,153.813 128.022 C 197.625 128.254,198.228 128.269,201.484 129.180 C 216.264 133.313,226.656 143.583,230.618 157.973 L 231.176 160.000 136.679 160.000 C 46.889 160.000,42.193 159.963,42.387 159.253 C 43.818 154.039,45.916 139.797,47.023 127.787 C 47.893 118.345,47.747 86.826,46.796 78.720 C 45.973 71.708,44.667 63.577,43.715 59.544 C 43.380 58.123,43.103 56.720,43.100 56.427 C 43.095 56.003,53.444 55.893,93.440 55.893 L 143.787 55.893 143.787 67.817 M232.107 188.160 L 232.107 200.107 219.088 200.107 L 206.070 200.107 199.342 196.738 C 189.888 192.004,189.871 192.000,178.290 192.000 C 172.947 192.000,167.617 192.206,166.445 192.457 C 165.273 192.708,161.024 194.532,157.002 196.510 L 149.689 200.107 135.880 200.107 L 122.072 200.107 114.102 196.160 L 106.132 192.213 94.080 192.213 L 82.028 192.213 74.058 196.160 L 66.088 200.107 53.097 200.107 L 40.107 200.107 40.107 188.160 L 40.107 176.213 136.107 176.213 L 232.107 176.213 232.107 188.160 " stroke="none" fill-rule="evenodd"></path></svg>