<svg fill="currentColor" viewBox="0 0 256 256" xmlns="http://www.w3.org/2000/svg"><path d="M68.480 32.981 C 61.088 36.515,48.478 49.840,41.145 61.867 C 25.339 87.790,20.077 123.147,26.927 157.404 C 31.153 178.538,41.566 198.569,55.676 212.707 C 60.471 217.512,66.536 222.390,69.000 223.424 C 71.796 224.597,75.386 223.825,77.776 221.536 C 79.116 220.252,80.414 216.408,80.005 214.936 C 79.130 211.788,78.275 210.664,74.904 208.231 C 60.534 197.857,48.979 179.500,43.785 158.797 C 36.866 131.216,39.652 100.400,51.179 77.013 C 56.972 65.259,65.990 54.072,74.553 48.019 C 78.294 45.374,79.449 43.741,79.698 40.745 C 80.212 34.543,74.084 30.302,68.480 32.981 M180.907 32.680 C 180.085 33.036,178.878 33.839,178.224 34.465 C 176.884 35.748,175.586 39.592,175.995 41.064 C 176.870 44.212,177.725 45.336,181.096 47.769 C 198.611 60.414,211.288 84.066,214.837 110.720 C 216.373 122.263,216.090 138.356,214.149 149.760 C 209.946 174.457,198.015 195.650,181.359 208.004 C 176.670 211.482,175.415 213.825,176.249 217.546 C 177.350 222.459,182.539 225.296,187.000 223.424 C 191.626 221.483,202.665 211.141,208.703 203.093 C 222.777 184.333,230.081 163.150,231.765 136.213 C 232.556 123.558,231.445 109.284,228.703 96.853 C 223.331 72.509,210.082 50.145,193.067 36.698 C 187.454 32.263,184.287 31.216,180.907 32.680 " stroke="none" fill-rule="evenodd"></path></svg>