<svg fill="currentColor" viewBox="0 0 256 256" xmlns="http://www.w3.org/2000/svg"><path d="M72.533 32.480 C 67.425 33.069,62.811 34.399,58.453 36.537 C 53.083 39.172,47.995 44.122,45.332 49.301 C 41.341 57.064,40.278 63.937,39.928 84.267 C 39.670 99.197,39.141 104.655,37.532 108.954 C 34.914 115.952,29.511 119.124,18.928 119.879 C 15.790 120.103,13.252 120.506,12.485 120.902 C 10.624 121.864,8.616 124.351,8.288 126.098 C 7.192 131.944,11.129 136.107,17.753 136.107 C 22.024 136.107,27.034 137.143,30.141 138.668 C 34.614 140.865,37.302 144.736,38.633 150.897 C 39.420 154.544,40.079 166.561,40.095 177.578 C 40.120 195.548,42.975 205.750,50.068 213.217 C 55.608 219.050,62.384 222.206,72.244 223.546 C 77.668 224.284,81.371 224.135,83.520 223.095 C 87.996 220.928,89.334 214.637,86.102 210.956 C 84.027 208.593,82.788 208.168,76.805 207.771 C 67.209 207.135,62.246 204.588,59.283 198.780 C 56.906 194.121,55.898 185.047,55.895 168.287 C 55.892 153.739,54.656 145.565,51.432 138.775 C 49.718 135.166,48.433 133.320,45.509 130.267 L 43.390 128.055 46.244 124.972 C 51.266 119.547,54.331 111.752,55.421 101.637 C 55.681 99.222,55.899 93.270,55.907 88.410 C 55.939 66.742,57.266 58.672,61.581 53.896 C 64.730 50.410,69.041 48.837,77.072 48.242 C 82.776 47.820,84.067 47.363,86.102 45.044 C 89.334 41.363,87.996 35.072,83.520 32.905 C 81.473 31.914,78.452 31.797,72.533 32.480 M172.445 32.916 C 167.994 35.119,166.679 41.378,169.898 45.044 C 171.933 47.363,173.224 47.820,178.928 48.242 C 186.959 48.837,191.270 50.410,194.419 53.896 C 198.734 58.672,200.061 66.742,200.093 88.410 C 200.101 93.270,200.319 99.222,200.579 101.637 C 201.666 111.732,204.736 119.549,209.731 124.945 L 212.560 128.000 209.793 130.988 C 206.733 134.293,204.110 138.939,202.694 143.560 C 200.832 149.639,200.515 152.831,200.106 169.665 C 199.691 186.755,199.148 192.529,197.556 196.785 C 194.876 203.947,189.634 207.079,179.165 207.773 C 173.214 208.168,171.970 208.595,169.898 210.956 C 166.666 214.637,168.004 220.928,172.480 223.095 C 174.629 224.135,178.332 224.284,183.756 223.546 C 202.996 220.931,213.222 209.946,215.421 189.530 C 215.681 187.115,215.896 181.163,215.899 176.303 C 215.911 158.845,216.893 149.798,219.283 145.113 C 222.129 139.535,227.604 136.697,236.373 136.256 C 241.752 135.986,243.223 135.582,245.220 133.828 C 248.586 130.873,248.862 125.930,245.840 122.735 C 243.926 120.712,242.570 120.271,237.072 119.880 C 227.388 119.192,222.175 116.557,219.283 110.887 C 216.893 106.202,215.911 97.155,215.899 79.697 C 215.889 65.079,214.639 57.574,210.952 49.994 C 209.316 46.632,208.366 45.329,205.293 42.235 C 202.192 39.113,200.950 38.199,197.547 36.534 C 192.919 34.271,188.739 33.107,182.885 32.455 C 176.764 31.772,174.558 31.870,172.445 32.916 " stroke="none" fill-rule="evenodd"></path></svg>