<svg fill="currentColor" viewBox="0 0 256 256" xmlns="http://www.w3.org/2000/svg"><path d="M52.693 16.710 C 49.125 18.679,47.511 22.061,48.306 25.905 C 48.703 27.822,49.363 28.585,59.138 38.411 C 64.863 44.166,69.547 49.002,69.547 49.157 C 69.547 49.312,68.478 50.651,67.171 52.133 C 58.124 62.390,50.928 78.128,48.922 92.041 L 48.382 95.787 39.018 96.000 C 28.752 96.234,28.063 96.391,25.876 98.991 C 24.202 100.980,23.625 103.339,24.245 105.658 C 24.958 108.322,25.844 109.510,28.114 110.844 C 30.054 111.985,30.196 112.002,38.933 112.144 L 47.787 112.288 47.787 120.144 L 47.787 128.000 39.147 128.009 C 31.688 128.017,30.271 128.126,28.782 128.802 C 25.257 130.403,23.318 134.189,24.245 137.658 C 24.958 140.322,25.844 141.510,28.114 142.844 C 30.054 143.985,30.196 144.002,38.933 144.144 L 47.787 144.288 47.787 147.598 C 47.787 149.418,47.912 152.953,48.065 155.454 L 48.343 160.000 39.425 160.009 C 31.696 160.017,30.277 160.123,28.782 160.802 C 25.257 162.403,23.318 166.189,24.245 169.658 C 24.958 172.322,25.844 173.510,28.114 174.844 C 30.080 176.000,30.081 176.000,40.866 176.213 L 51.651 176.427 53.754 181.658 C 56.690 188.963,59.728 194.328,64.442 200.533 C 83.060 225.042,115.111 236.848,144.892 230.169 C 171.892 224.113,192.881 205.981,202.902 180.053 L 204.304 176.427 215.112 176.213 L 225.920 176.000 227.886 174.844 C 232.361 172.214,233.356 166.831,230.086 162.945 C 227.870 160.311,226.528 160.020,216.575 160.009 L 207.657 160.000 207.935 155.454 C 208.088 152.953,208.213 149.418,208.213 147.598 L 208.213 144.288 217.067 144.144 C 225.804 144.002,225.946 143.985,227.886 142.844 C 232.361 140.214,233.356 134.831,230.086 130.945 C 227.883 128.327,226.500 128.020,216.853 128.009 L 208.213 128.000 208.213 120.144 L 208.213 112.288 217.067 112.144 C 225.804 112.002,225.946 111.985,227.886 110.844 C 230.156 109.510,231.042 108.322,231.755 105.658 C 232.375 103.339,231.798 100.980,230.124 98.991 C 227.937 96.391,227.248 96.234,216.982 96.000 L 207.618 95.787 207.074 92.014 C 205.081 78.190,197.838 62.359,188.827 52.133 C 187.522 50.651,186.453 49.315,186.453 49.165 C 186.453 49.014,191.135 44.178,196.857 38.418 C 206.693 28.518,207.284 27.833,207.699 25.856 C 207.940 24.706,208.074 23.554,207.998 23.296 C 207.921 23.038,207.743 22.302,207.603 21.661 C 207.291 20.236,205.099 17.670,203.478 16.832 C 201.769 15.948,198.254 16.050,196.356 17.037 C 195.486 17.490,190.167 22.482,184.537 28.131 C 178.907 33.779,174.160 38.400,173.990 38.400 C 173.819 38.400,172.378 37.559,170.787 36.530 C 149.845 22.998,122.265 20.307,98.987 29.524 C 94.684 31.227,88.743 34.250,85.213 36.530 C 83.622 37.559,82.181 38.400,82.010 38.400 C 81.840 38.400,77.093 33.779,71.463 28.131 C 65.833 22.482,60.514 17.490,59.644 17.037 C 57.879 16.119,54.089 15.940,52.693 16.710 M140.708 41.327 C 156.632 44.754,170.882 53.996,179.990 66.803 C 185.195 74.122,189.454 84.211,190.875 92.587 L 191.418 95.787 128.066 95.895 C 93.222 95.954,64.655 95.944,64.584 95.873 C 64.244 95.533,66.621 85.553,67.823 82.270 C 75.929 60.132,94.887 44.592,118.479 40.746 C 123.781 39.882,135.408 40.186,140.708 41.327 M191.901 135.787 C 191.751 158.210,191.697 159.584,190.789 163.953 C 188.974 172.677,185.557 180.845,180.638 188.214 C 178.114 191.995,171.575 198.924,167.347 202.298 C 159.370 208.663,147.913 213.687,137.920 215.202 L 136.107 215.477 136.107 175.138 C 136.107 139.694,136.027 134.607,135.446 133.219 C 132.592 126.388,123.408 126.388,120.554 133.219 C 119.973 134.607,119.893 139.694,119.893 175.138 L 119.893 215.477 118.080 215.202 C 114.356 214.637,108.254 212.906,104.009 211.209 C 95.530 207.819,88.569 202.985,81.493 195.573 C 74.983 188.753,70.492 181.263,67.448 172.148 C 64.359 162.898,64.331 162.589,64.123 136.000 L 63.937 112.213 127.997 112.213 L 192.058 112.213 191.901 135.787 " stroke="none" fill-rule="evenodd"></path></svg>