<svg fill="currentColor" viewBox="0 0 256 256" xmlns="http://www.w3.org/2000/svg"><path d="M60.800 40.708 C 58.238 41.858,55.882 45.411,55.903 48.093 C 55.924 50.787,58.543 54.455,61.148 55.440 C 61.980 55.754,85.916 55.893,139.121 55.893 L 215.893 55.893 215.903 116.587 C 215.912 174.753,215.945 177.351,216.702 178.987 C 219.270 184.532,225.939 185.650,229.854 181.191 C 230.603 180.338,231.425 178.918,231.681 178.034 C 232.012 176.894,232.111 158.423,232.021 114.560 L 231.893 52.693 230.867 50.144 C 229.561 46.901,226.312 43.426,222.933 41.659 L 220.373 40.320 141.227 40.227 C 75.665 40.150,61.860 40.233,60.800 40.708 M36.053 72.505 C 30.342 73.918,25.585 79.033,24.321 85.120 C 24.024 86.550,23.915 106.377,23.992 145.280 L 24.107 203.307 25.224 205.957 C 27.063 210.321,30.434 213.551,34.721 215.057 C 37.047 215.875,38.715 215.893,112.000 215.893 C 185.285 215.893,186.953 215.875,189.279 215.057 C 193.566 213.551,196.937 210.321,198.776 205.957 L 199.893 203.307 199.893 144.000 L 199.893 84.693 198.867 82.144 C 197.561 78.901,194.312 75.426,190.933 73.659 L 188.373 72.320 112.853 72.254 C 71.317 72.218,36.757 72.331,36.053 72.505 M183.893 144.000 L 183.893 200.107 112.000 200.107 L 40.107 200.107 40.107 144.000 L 40.107 87.893 112.000 87.893 L 183.893 87.893 183.893 144.000 " stroke="none" fill-rule="evenodd"></path></svg>