<svg fill="currentColor" viewBox="0 0 256 256" xmlns="http://www.w3.org/2000/svg"><path d="M42.027 48.845 C 32.927 51.324,26.463 58.130,24.526 67.270 C 23.595 71.665,23.603 184.362,24.535 188.800 C 26.439 197.867,33.561 205.182,42.667 207.423 C 46.150 208.280,209.850 208.280,213.333 207.423 C 222.439 205.182,229.561 197.867,231.465 188.800 C 232.402 184.334,232.404 71.662,231.467 67.237 C 229.751 59.136,224.313 52.737,216.481 49.601 L 213.547 48.427 128.853 48.345 C 58.522 48.278,43.798 48.363,42.027 48.845 M210.987 64.809 C 212.973 65.729,214.794 67.547,215.440 69.254 C 215.689 69.915,215.893 72.555,215.893 75.121 L 215.893 79.787 127.965 79.787 L 40.037 79.787 40.179 74.527 C 40.307 69.747,40.417 69.123,41.387 67.693 C 42.005 66.781,43.341 65.673,44.564 65.059 L 46.674 64.000 127.977 64.009 C 206.204 64.018,209.345 64.049,210.987 64.809 M215.893 103.893 L 215.893 111.787 191.418 111.787 C 176.762 111.787,166.034 111.959,164.676 112.217 C 157.733 113.533,153.157 118.051,151.252 125.470 C 150.070 130.072,148.147 133.464,144.859 136.748 C 140.147 141.453,134.557 143.787,128.000 143.787 C 116.740 143.787,107.715 136.479,104.552 124.800 C 102.641 117.743,98.227 113.489,91.531 112.252 C 89.905 111.951,80.381 111.787,64.562 111.787 L 40.107 111.787 40.107 103.893 L 40.107 96.000 128.000 96.000 L 215.893 96.000 215.893 103.893 M89.603 131.093 C 91.663 137.877,94.375 142.499,99.375 147.747 C 104.446 153.068,110.778 156.781,118.215 158.794 C 123.387 160.194,132.613 160.194,137.785 158.794 C 151.734 155.019,162.212 144.874,166.397 131.093 L 167.336 128.000 191.623 128.000 L 215.910 128.000 215.795 157.365 L 215.680 186.730 214.535 188.460 C 213.845 189.502,212.646 190.550,211.520 191.095 L 209.651 192.000 128.000 192.000 L 46.349 192.000 44.480 191.095 C 43.354 190.550,42.155 189.502,41.465 188.460 L 40.320 186.730 40.205 157.365 L 40.090 128.000 64.377 128.000 L 88.664 128.000 89.603 131.093 " stroke="none" fill-rule="evenodd"></path></svg>