<svg fill="currentColor" viewBox="0 0 256 256" xmlns="http://www.w3.org/2000/svg"><path d="M45.493 88.520 C 43.386 89.271,41.114 91.466,40.492 93.352 C 39.769 95.542,40.221 98.705,41.525 100.579 C 42.141 101.463,60.745 120.275,82.869 142.382 C 111.141 170.634,123.565 182.773,124.680 183.235 C 125.552 183.597,127.046 183.893,128.000 183.893 C 128.954 183.893,130.448 183.597,131.320 183.235 C 132.435 182.773,144.859 170.634,173.131 142.382 C 195.255 120.275,213.859 101.463,214.475 100.579 C 215.789 98.691,216.230 95.538,215.492 93.305 C 214.859 91.385,212.175 88.939,210.057 88.351 C 208.933 88.039,183.375 87.903,127.787 87.914 C 60.299 87.928,46.877 88.027,45.493 88.520 M158.186 134.293 L 128.000 164.479 97.814 134.293 L 67.627 104.107 128.000 104.107 L 188.373 104.107 158.186 134.293 " stroke="none" fill-rule="evenodd"></path></svg>