<svg fill="currentColor" viewBox="0 0 256 256" xmlns="http://www.w3.org/2000/svg"><path d="M120.960 24.326 C 100.935 25.586,81.587 32.844,64.891 45.360 C 59.554 49.360,49.234 59.686,45.276 64.986 C 34.512 79.399,27.973 94.882,25.095 112.768 C 23.886 120.283,23.787 134.307,24.890 141.867 C 27.542 160.046,34.293 176.318,45.279 191.014 C 49.299 196.392,59.608 206.701,64.986 210.721 C 79.686 221.710,96.000 228.476,114.133 231.105 C 117.683 231.620,121.936 231.847,128.000 231.847 C 144.598 231.847,158.874 228.583,173.440 221.458 C 184.661 215.968,192.320 210.472,201.396 201.396 C 210.475 192.317,215.974 184.654,221.456 173.440 C 235.707 144.287,235.458 110.173,220.780 81.026 C 214.698 68.950,203.517 55.194,193.067 46.931 C 172.349 30.550,147.221 22.673,120.960 24.326 M136.870 40.549 C 171.639 44.258,200.534 67.488,211.419 100.480 C 224.378 139.761,208.166 182.761,172.459 203.815 C 152.624 215.510,127.989 218.917,105.654 213.052 C 83.649 207.274,64.445 192.822,52.504 173.052 C 44.609 159.983,40.107 143.620,40.107 128.000 C 40.107 90.362,64.333 56.637,99.918 44.739 C 111.860 40.747,124.883 39.270,136.870 40.549 M124.350 97.054 C 122.755 97.850,117.277 103.084,101.914 118.494 C 90.735 129.706,81.252 139.548,80.840 140.363 C 79.911 142.203,79.868 145.726,80.754 147.423 C 81.617 149.077,83.530 150.869,85.041 151.440 C 86.797 152.103,89.868 151.994,91.435 151.212 C 92.186 150.837,100.720 142.630,110.400 132.974 L 128.000 115.417 145.600 132.974 C 155.280 142.630,163.814 150.837,164.565 151.212 C 166.132 151.994,169.203 152.103,170.959 151.440 C 172.470 150.869,174.383 149.077,175.246 147.423 C 176.132 145.726,176.089 142.203,175.160 140.363 C 174.748 139.548,165.265 129.706,154.086 118.494 C 132.831 97.175,131.468 96.000,128.000 96.000 C 127.153 96.000,125.511 96.474,124.350 97.054 " stroke="none" fill-rule="evenodd"></path></svg>