<svg fill="currentColor" viewBox="0 0 256 256" xmlns="http://www.w3.org/2000/svg"><path d="M120.747 24.320 C 100.702 25.678,81.581 32.877,64.891 45.350 C 59.600 49.305,49.272 59.644,45.285 64.978 C 29.947 85.496,22.391 110.531,24.234 134.720 C 25.330 149.089,28.553 161.196,34.542 173.440 C 40.032 184.661,45.528 192.320,54.604 201.396 C 63.683 210.475,71.346 215.974,82.560 221.456 C 97.130 228.578,111.425 231.847,128.000 231.847 C 144.575 231.847,158.870 228.578,173.440 221.456 C 184.654 215.974,192.317 210.475,201.396 201.396 C 210.475 192.317,215.974 184.654,221.456 173.440 C 228.578 158.870,231.847 144.575,231.847 128.000 C 231.847 121.892,231.622 117.709,231.099 114.133 C 228.432 95.894,221.715 79.693,210.721 64.986 C 206.728 59.644,196.403 49.307,191.109 45.350 C 176.201 34.209,159.489 27.336,141.653 25.012 C 135.278 24.181,126.900 23.904,120.747 24.320 M136.870 40.549 C 153.659 42.340,169.540 48.789,182.793 59.199 C 186.787 62.336,194.596 70.266,197.616 74.252 C 206.643 86.165,212.230 99.205,214.893 114.578 C 215.922 120.522,215.922 135.478,214.893 141.422 C 212.230 156.795,206.643 169.835,197.616 181.748 C 194.592 185.739,186.772 193.679,182.827 196.764 C 166.724 209.358,147.994 215.893,128.000 215.893 C 108.225 215.893,88.870 209.145,73.207 196.791 C 69.203 193.632,61.397 185.707,58.384 181.740 C 34.048 149.705,34.048 106.473,58.384 74.240 C 61.491 70.124,70.124 61.491,74.240 58.384 C 92.392 44.679,115.066 38.222,136.870 40.549 M124.356 72.961 C 123.264 73.501,116.441 80.027,105.730 90.774 C 90.648 105.907,88.774 107.937,88.324 109.623 C 86.904 114.941,90.560 119.886,95.915 119.891 C 97.158 119.892,98.790 119.584,99.541 119.207 C 100.292 118.829,107.003 112.449,114.453 105.029 L 128.000 91.538 141.547 105.029 C 148.997 112.449,155.708 118.829,156.459 119.207 C 157.210 119.584,158.842 119.892,160.085 119.891 C 165.440 119.886,169.096 114.941,167.676 109.623 C 167.226 107.937,165.351 105.906,150.259 90.763 C 139.180 79.646,132.746 73.502,131.605 72.950 C 129.378 71.871,126.548 71.876,124.356 72.961 M124.350 129.053 C 122.777 129.837,118.094 134.261,105.946 146.439 C 88.996 163.430,87.912 164.732,87.912 168.107 C 87.912 173.112,92.997 176.956,98.007 175.738 C 99.911 175.274,101.022 174.277,114.027 161.341 L 128.000 147.443 141.973 161.341 C 154.978 174.277,156.089 175.274,157.993 175.738 C 161.776 176.658,165.515 174.897,167.210 171.397 C 167.703 170.378,168.102 168.885,168.097 168.079 C 168.076 164.723,166.968 163.394,150.054 146.439 C 133.029 129.373,131.387 128.000,128.000 128.000 C 127.153 128.000,125.511 128.474,124.350 129.053 " stroke="none" fill-rule="evenodd"></path></svg>