<svg fill="currentColor" viewBox="0 0 256 256" xmlns="http://www.w3.org/2000/svg"><path d="M120.747 24.320 C 100.702 25.678,81.581 32.877,64.891 45.350 C 59.600 49.305,49.272 59.644,45.285 64.978 C 29.947 85.496,22.391 110.531,24.234 134.720 C 25.330 149.089,28.553 161.196,34.542 173.440 C 40.032 184.661,45.528 192.320,54.604 201.396 C 63.683 210.475,71.346 215.974,82.560 221.456 C 97.130 228.578,111.425 231.847,128.000 231.847 C 144.575 231.847,158.870 228.578,173.440 221.456 C 184.654 215.974,192.317 210.475,201.396 201.396 C 210.475 192.317,215.974 184.654,221.456 173.440 C 228.578 158.870,231.847 144.575,231.847 128.000 C 231.847 121.892,231.622 117.709,231.099 114.133 C 228.432 95.894,221.715 79.693,210.721 64.986 C 206.728 59.644,196.403 49.307,191.109 45.350 C 176.201 34.209,159.489 27.336,141.653 25.012 C 135.278 24.181,126.900 23.904,120.747 24.320 M136.870 40.549 C 153.659 42.340,169.540 48.789,182.793 59.199 C 186.787 62.336,194.596 70.266,197.616 74.252 C 206.643 86.165,212.230 99.205,214.893 114.578 C 215.922 120.522,215.922 135.478,214.893 141.422 C 212.230 156.795,206.643 169.835,197.616 181.748 C 194.592 185.739,186.772 193.679,182.827 196.764 C 166.724 209.358,147.994 215.893,128.000 215.893 C 108.225 215.893,88.870 209.145,73.207 196.791 C 69.203 193.632,61.397 185.707,58.384 181.740 C 34.048 149.705,34.048 106.473,58.384 74.240 C 61.491 70.124,70.124 61.491,74.240 58.384 C 92.392 44.679,115.066 38.222,136.870 40.549 M108.800 88.778 C 107.372 89.422,102.740 93.765,90.725 105.728 C 81.840 114.575,74.016 122.667,73.338 123.710 C 71.603 126.382,71.602 129.613,73.334 132.290 C 74.009 133.333,82.025 141.608,91.147 150.679 C 105.920 165.368,107.940 167.226,109.623 167.676 C 114.940 169.096,119.886 165.440,119.891 160.085 C 119.892 158.842,119.584 157.210,119.207 156.459 C 118.829 155.708,112.449 148.997,105.029 141.547 L 91.538 128.000 105.029 114.453 C 112.449 107.003,118.829 100.292,119.207 99.541 C 119.584 98.790,119.893 97.175,119.893 95.952 C 119.893 92.772,118.436 90.440,115.549 89.001 C 112.886 87.674,111.359 87.624,108.800 88.778 M164.693 88.782 C 163.267 89.428,158.627 93.787,146.652 105.732 C 137.785 114.577,130.009 122.565,129.372 123.484 C 128.394 124.893,128.213 125.598,128.213 128.000 C 128.213 130.402,128.394 131.107,129.372 132.516 C 130.009 133.435,137.785 141.423,146.652 150.268 C 163.384 166.958,164.728 168.076,168.079 168.097 C 170.058 168.110,173.022 166.611,174.281 164.961 C 175.724 163.069,176.287 160.265,175.706 157.867 C 175.283 156.126,173.945 154.645,161.341 141.973 L 147.443 128.000 161.354 114.027 C 174.800 100.520,175.280 99.981,175.716 97.901 C 176.330 94.968,175.665 92.515,173.695 90.451 C 171.248 87.885,168.002 87.283,164.693 88.782 " stroke="none" fill-rule="evenodd"></path></svg>