<svg fill="currentColor" viewBox="0 0 256 256" xmlns="http://www.w3.org/2000/svg"><path d="M26.597 49.003 C 22.460 50.432,18.751 54.089,16.928 58.537 L 16.000 60.800 16.000 128.000 L 16.000 195.200 16.928 197.463 C 18.719 201.833,22.167 205.281,26.537 207.072 L 28.800 208.000 128.000 208.000 L 227.200 208.000 229.463 207.072 C 233.833 205.281,237.281 201.833,239.072 197.463 L 240.000 195.200 240.000 128.000 L 240.000 60.800 239.072 58.537 C 237.249 54.089,233.540 50.432,229.403 49.003 C 227.313 48.280,222.101 48.241,128.000 48.241 C 33.899 48.241,28.687 48.280,26.597 49.003 M224.000 128.000 L 224.000 192.000 210.021 192.000 L 196.042 192.000 186.315 179.017 C 180.964 171.876,175.720 165.234,174.661 164.258 C 173.603 163.282,171.646 161.973,170.315 161.348 L 167.893 160.213 128.000 160.213 L 88.107 160.213 85.685 161.348 C 84.354 161.973,82.397 163.282,81.339 164.258 C 80.280 165.234,75.036 171.876,69.685 179.017 L 59.958 192.000 45.979 192.000 L 32.000 192.000 32.000 128.000 L 32.000 64.000 128.000 64.000 L 224.000 64.000 224.000 128.000 M72.107 81.083 C 63.094 83.401,55.460 89.618,51.432 97.920 C 48.991 102.952,48.113 106.676,48.113 112.000 C 48.113 117.324,48.991 121.048,51.432 126.080 C 54.555 132.516,59.484 137.445,65.920 140.568 C 73.512 144.251,68.972 144.000,128.000 144.000 C 187.028 144.000,182.488 144.251,190.080 140.568 C 198.497 136.484,204.909 128.482,207.159 119.253 C 208.114 115.337,208.114 108.663,207.159 104.747 C 204.345 93.204,195.175 83.938,183.718 81.061 C 180.440 80.237,178.847 80.214,127.825 80.237 C 77.387 80.259,75.180 80.293,72.107 81.083 M86.001 97.326 C 89.483 98.627,93.344 102.478,94.723 106.027 C 96.087 109.534,96.103 114.427,94.763 117.865 C 93.432 121.276,90.249 124.640,86.696 126.390 C 84.124 127.656,83.496 127.787,80.000 127.787 C 76.504 127.787,75.876 127.656,73.304 126.390 C 67.518 123.541,64.281 118.379,64.281 112.000 C 64.281 100.581,75.119 93.259,86.001 97.326 M148.053 96.154 C 148.053 96.239,147.502 97.535,146.827 99.034 C 143.128 107.257,143.128 116.743,146.827 124.966 C 147.502 126.465,148.053 127.761,148.053 127.846 C 148.053 127.931,139.029 128.000,128.000 128.000 C 116.971 128.000,107.947 127.931,107.947 127.846 C 107.947 127.761,108.498 126.465,109.173 124.966 C 111.077 120.734,111.905 116.802,111.905 112.000 C 111.905 107.198,111.077 103.266,109.173 99.034 C 108.498 97.535,107.947 96.239,107.947 96.154 C 107.947 96.069,116.971 96.000,128.000 96.000 C 139.029 96.000,148.053 96.069,148.053 96.154 M182.001 97.326 C 185.483 98.627,189.344 102.478,190.723 106.027 C 192.087 109.534,192.103 114.427,190.763 117.865 C 189.432 121.276,186.249 124.640,182.696 126.390 C 180.124 127.656,179.496 127.787,176.000 127.787 C 172.504 127.787,171.876 127.656,169.304 126.390 C 163.518 123.541,160.281 118.379,160.281 112.000 C 160.281 100.581,171.119 93.259,182.001 97.326 M169.897 184.000 L 175.725 191.787 151.863 191.897 C 138.738 191.958,117.262 191.958,104.137 191.897 L 80.275 191.787 86.103 184.000 L 91.932 176.213 128.000 176.213 L 164.068 176.213 169.897 184.000 " stroke="none" fill-rule="evenodd"></path></svg>