<svg fill="currentColor" viewBox="0 0 256 256" xmlns="http://www.w3.org/2000/svg"><path d="M35.810 32.556 C 31.223 33.857,26.865 37.759,25.090 42.154 L 24.107 44.587 24.107 94.293 C 24.107 139.743,24.171 144.397,24.859 148.639 C 26.596 159.347,30.268 170.401,34.847 178.702 C 49.685 205.607,76.269 224.289,108.075 230.163 C 131.462 234.483,155.489 231.137,176.853 220.586 C 203.667 207.343,222.440 184.748,229.316 157.440 C 231.968 146.910,231.893 148.736,231.893 94.293 L 231.893 44.587 230.903 42.135 C 229.521 38.712,226.317 35.341,222.802 33.610 C 220.231 32.344,219.604 32.214,216.116 32.215 C 212.680 32.217,211.969 32.361,209.493 33.554 C 207.968 34.290,206.111 35.441,205.367 36.112 C 204.623 36.784,200.249 41.701,195.646 47.040 C 191.044 52.379,187.181 56.747,187.063 56.747 C 186.944 56.747,184.602 55.498,181.858 53.972 C 166.512 45.438,149.719 40.851,131.627 40.252 C 110.934 39.566,90.389 44.594,73.219 54.547 C 71.132 55.757,69.282 56.747,69.107 56.747 C 68.933 56.747,65.099 52.475,60.588 47.253 C 50.925 36.070,50.103 35.267,46.632 33.620 C 43.488 32.128,38.905 31.678,35.810 32.556 M51.324 61.144 C 57.301 68.021,62.742 74.011,63.415 74.455 C 64.923 75.448,69.027 75.819,70.447 75.091 C 71.008 74.803,73.291 73.359,75.520 71.882 C 77.749 70.406,81.445 68.203,83.733 66.987 L 87.893 64.777 87.903 77.082 C 87.911 88.061,87.996 89.571,88.689 91.097 C 91.606 97.517,99.910 97.633,103.147 91.298 C 104.089 89.454,104.107 89.141,104.107 74.217 L 104.107 59.016 106.347 58.527 C 108.494 58.059,114.258 57.093,118.080 56.562 L 119.893 56.310 119.903 72.848 C 119.911 87.922,119.981 89.538,120.689 91.097 C 123.606 97.517,131.910 97.633,135.147 91.298 C 136.093 89.445,136.107 89.191,136.107 72.865 L 136.107 56.310 137.920 56.562 C 141.742 57.093,147.506 58.059,149.653 58.527 L 151.893 59.016 151.903 74.201 C 151.911 87.966,151.985 89.547,152.689 91.097 C 155.606 97.517,163.910 97.633,167.147 91.298 C 168.077 89.478,168.107 89.034,168.107 77.098 L 168.107 64.777 172.267 66.987 C 174.555 68.203,178.251 70.406,180.480 71.882 C 182.709 73.359,184.992 74.803,185.553 75.091 C 186.967 75.816,191.077 75.448,192.574 74.461 C 193.242 74.021,198.714 67.991,204.734 61.061 L 215.680 48.460 215.805 94.097 C 215.951 147.285,215.938 147.511,212.062 159.187 C 203.387 185.324,180.214 205.809,151.073 213.098 C 146.836 214.158,139.187 215.467,137.229 215.467 L 136.107 215.467 136.107 205.358 L 136.107 195.248 143.749 187.535 C 152.028 179.179,152.250 178.823,151.785 174.696 C 151.232 169.791,145.143 166.554,140.672 168.789 C 139.921 169.165,136.763 171.994,133.653 175.077 L 128.000 180.681 122.347 175.077 C 119.237 171.994,116.079 169.165,115.328 168.789 C 111.572 166.912,106.036 169.043,104.562 172.934 C 103.978 174.476,103.978 177.525,104.562 179.066 C 104.813 179.726,108.365 183.633,112.455 187.748 L 119.893 195.230 119.893 205.348 L 119.893 215.467 118.720 215.467 C 118.075 215.467,115.243 215.086,112.427 214.622 C 73.887 208.263,44.997 179.965,40.556 144.225 C 40.130 140.797,39.865 48.640,40.281 48.640 C 40.378 48.640,45.347 54.267,51.324 61.144 M79.601 128.862 C 76.915 129.911,74.120 132.650,72.942 135.390 C 72.207 137.098,72.055 138.143,72.188 140.552 C 72.382 144.049,73.319 146.279,75.520 148.480 C 77.676 150.636,79.957 151.610,83.329 151.816 C 86.952 152.036,89.454 151.159,92.064 148.753 C 94.508 146.500,95.638 144.209,95.897 140.978 C 96.203 137.168,95.156 134.353,92.411 131.609 C 88.896 128.094,84.167 127.079,79.601 128.862 M167.692 128.741 C 164.949 129.709,161.610 133.186,160.651 136.072 C 159.709 138.909,159.939 142.864,161.187 145.312 C 162.362 147.614,165.368 150.311,167.789 151.236 C 170.291 152.192,174.843 151.992,177.266 150.820 C 179.429 149.774,181.774 147.429,182.820 145.266 C 183.995 142.837,184.192 138.292,183.231 135.776 C 180.929 129.749,173.879 126.557,167.692 128.741 " stroke="none" fill-rule="evenodd"></path></svg>