<svg fill="currentColor" viewBox="0 0 256 256" xmlns="http://www.w3.org/2000/svg"><path d="M188.587 24.487 C 187.296 24.774,185.376 25.447,184.320 25.983 C 182.937 26.686,159.532 49.820,100.604 108.733 C 11.261 198.052,17.183 191.802,16.206 197.805 C 15.713 200.835,16.547 205.331,18.090 207.964 C 19.546 210.450,22.651 213.198,25.525 214.545 L 27.947 215.680 78.293 215.803 C 105.984 215.870,129.275 215.812,130.052 215.672 C 131.973 215.327,134.622 212.830,135.497 210.539 C 136.881 206.916,135.181 202.680,131.658 200.975 C 129.886 200.117,129.273 200.107,81.039 200.107 L 32.214 200.107 112.000 120.319 L 191.787 40.532 192.000 81.631 L 192.213 122.729 193.359 124.460 C 197.203 130.268,206.164 128.482,207.752 121.591 C 208.348 119.006,208.377 40.659,207.783 37.529 C 206.468 30.595,201.547 25.608,194.784 24.358 C 191.809 23.808,191.621 23.812,188.587 24.487 M156.800 144.922 C 155.050 145.845,153.641 147.179,152.889 148.624 C 152.037 150.263,152.087 154.041,152.985 155.802 C 153.384 156.586,157.902 161.452,163.024 166.615 L 172.337 176.004 162.987 185.408 C 153.294 195.156,151.922 196.977,151.903 200.123 C 151.878 204.098,155.783 207.885,159.906 207.885 C 161.050 207.885,162.643 207.553,163.446 207.147 C 164.249 206.741,169.230 202.113,174.514 196.862 L 184.122 187.315 193.928 197.138 C 202.816 206.042,203.934 207.019,205.883 207.591 C 207.780 208.147,208.282 208.147,210.161 207.589 C 214.869 206.191,217.138 201.355,215.231 196.786 C 214.806 195.767,211.147 191.766,204.995 185.592 L 195.422 175.984 204.814 166.606 C 210.532 160.896,214.536 156.548,215.050 155.492 C 217.066 151.345,215.181 146.222,211.066 144.667 C 209.400 144.038,206.324 144.100,204.658 144.796 C 203.890 145.117,198.892 149.663,193.551 154.899 L 183.839 164.419 174.373 154.972 C 168.240 148.851,164.348 145.294,163.320 144.869 C 161.298 144.033,158.442 144.056,156.800 144.922 " stroke="none" fill-rule="evenodd"></path></svg>