<svg fill="currentColor" viewBox="0 0 256 256" xmlns="http://www.w3.org/2000/svg"><path d="M28.800 40.711 C 27.117 41.463,25.379 43.350,24.556 45.320 C 23.965 46.735,23.894 55.646,23.903 128.093 C 23.912 206.207,23.942 209.345,24.702 210.987 C 25.622 212.973,27.440 214.794,29.148 215.440 C 30.838 216.078,225.162 216.078,226.852 215.440 C 229.504 214.438,232.088 210.766,232.088 208.000 C 232.088 205.234,229.504 201.562,226.852 200.560 C 226.017 200.245,197.389 200.107,132.879 200.107 L 40.107 200.107 40.107 189.759 L 40.107 179.411 68.049 151.471 L 95.992 123.530 109.543 137.025 C 116.996 144.448,123.708 150.829,124.459 151.207 C 126.209 152.087,129.786 152.088,131.541 151.210 C 132.292 150.834,146.203 137.252,162.453 121.028 L 192.000 91.528 192.000 102.525 C 192.000 114.038,192.189 115.419,194.043 117.470 C 196.037 119.675,200.306 120.534,203.220 119.317 C 204.877 118.625,207.222 116.059,207.674 114.446 C 208.096 112.938,208.102 70.975,207.680 69.473 C 207.200 67.760,205.262 65.682,203.324 64.802 C 201.724 64.075,200.047 64.019,180.053 64.019 C 160.060 64.019,158.382 64.075,156.782 64.802 C 152.140 66.911,150.576 72.428,153.462 76.513 C 155.764 79.771,156.610 79.971,169.069 80.213 L 180.059 80.427 154.033 106.448 L 128.008 132.470 114.457 118.948 C 105.426 109.937,100.378 105.207,99.320 104.767 C 97.299 103.926,94.705 103.925,92.680 104.764 C 91.580 105.220,83.273 113.235,65.600 130.893 L 40.107 156.364 40.097 101.542 C 40.088 49.091,40.054 46.646,39.298 45.013 C 38.378 43.027,36.560 41.206,34.852 40.560 C 33.223 39.945,30.357 40.017,28.800 40.711 " stroke="none" fill-rule="evenodd"></path></svg>