<svg fill="currentColor" viewBox="0 0 256 256" xmlns="http://www.w3.org/2000/svg"><path d="M125.979 24.294 C 124.150 24.748,121.779 26.596,120.853 28.289 C 120.157 29.561,120.099 32.845,119.989 76.800 L 119.872 123.947 80.578 146.773 C 58.966 159.328,40.559 170.272,39.673 171.093 C 37.810 172.821,36.916 175.451,37.340 177.961 C 38.238 183.274,52.258 200.587,62.080 208.511 C 89.178 230.372,124.466 237.505,157.440 227.787 C 173.509 223.051,188.051 214.524,200.266 202.674 C 224.945 178.735,236.258 144.406,230.570 110.720 C 223.004 65.911,186.653 30.872,141.653 25.012 C 135.422 24.201,127.768 23.850,125.979 24.294 M94.080 29.834 C 93.376 30.013,91.264 30.779,89.387 31.536 C 59.964 43.396,37.607 67.831,28.451 98.133 C 25.390 108.264,24.141 116.828,24.126 127.787 C 24.110 140.486,25.375 148.389,27.833 150.928 C 29.581 152.733,32.342 153.781,34.567 153.482 C 36.694 153.197,99.659 117.020,101.774 114.868 C 102.530 114.099,103.372 112.659,103.645 111.668 C 104.009 110.347,104.108 99.920,104.017 72.533 C 103.895 35.791,103.880 35.176,103.020 33.713 C 101.287 30.763,97.274 29.022,94.080 29.834 M142.080 41.189 C 156.571 43.522,170.992 49.903,182.779 59.197 C 187.052 62.566,194.398 70.008,197.325 73.931 C 198.686 75.756,199.725 77.322,199.633 77.411 C 199.442 77.596,138.527 113.089,137.067 113.866 L 136.107 114.377 136.107 77.455 L 136.107 40.533 137.067 40.535 C 137.595 40.536,139.851 40.830,142.080 41.189 M87.790 77.476 L 87.680 105.031 64.078 118.649 C 51.097 126.139,40.366 132.267,40.232 132.267 C 39.659 132.267,40.517 118.080,41.392 113.067 C 45.793 87.866,60.950 65.800,82.987 52.510 C 85.333 51.095,87.399 49.933,87.576 49.928 C 87.754 49.924,87.850 62.320,87.790 77.476 M208.349 92.053 C 208.478 92.464,209.347 94.762,210.279 97.161 C 212.114 101.879,214.195 109.839,215.107 115.627 C 215.869 120.462,215.863 135.606,215.098 140.373 C 212.084 159.140,204.437 175.004,192.016 188.259 C 178.990 202.159,161.908 211.287,142.293 214.829 C 137.149 215.758,124.678 216.129,119.113 215.519 C 98.412 213.250,78.449 203.507,64.584 188.906 C 60.169 184.257,56.561 179.641,57.002 179.207 C 57.495 178.722,207.483 91.329,207.844 91.316 C 207.992 91.311,208.219 91.643,208.349 92.053 " stroke="none" fill-rule="evenodd"></path></svg>