<svg fill="currentColor" viewBox="0 0 256 256" xmlns="http://www.w3.org/2000/svg"><path d="M28.800 40.711 C 27.117 41.463,25.379 43.350,24.556 45.320 C 23.965 46.735,23.894 55.646,23.903 128.093 C 23.912 206.207,23.942 209.345,24.702 210.987 C 25.622 212.973,27.440 214.794,29.148 215.440 C 30.838 216.078,225.162 216.078,226.852 215.440 C 229.504 214.438,232.088 210.766,232.088 208.000 C 232.088 205.234,229.504 201.562,226.852 200.560 C 226.017 200.245,197.389 200.107,132.879 200.107 L 40.107 200.107 40.107 141.761 L 40.107 83.416 65.813 109.106 C 83.691 126.973,92.003 134.996,93.106 135.452 C 95.118 136.282,96.883 136.282,98.894 135.451 C 99.959 135.011,105.001 130.281,114.241 121.053 L 128.001 107.310 154.243 133.549 L 180.485 159.787 168.856 160.000 C 157.332 160.211,157.212 160.223,155.618 161.280 C 153.362 162.776,151.711 166.192,152.001 168.763 C 152.285 171.285,154.017 173.829,156.267 175.032 C 158.069 175.994,158.205 176.001,178.773 176.138 C 202.225 176.295,203.091 176.216,205.616 173.691 C 208.242 171.064,208.273 170.747,208.129 147.200 C 207.984 123.407,208.065 124.014,204.693 121.571 C 201.534 119.283,197.702 119.513,194.673 122.172 C 192.106 124.426,192.000 125.033,192.000 137.478 L 192.000 148.691 162.240 118.947 C 141.432 98.150,132.003 89.006,130.894 88.548 C 128.882 87.718,127.117 87.718,125.106 88.549 C 124.041 88.989,118.999 93.719,109.759 102.947 L 95.999 116.690 68.053 88.746 L 40.107 60.802 40.097 53.761 C 40.087 45.989,39.708 44.428,37.280 42.160 C 35.072 40.098,31.531 39.493,28.800 40.711 " stroke="none" fill-rule="evenodd"></path></svg>