<svg fill="currentColor" viewBox="0 0 256 256" xmlns="http://www.w3.org/2000/svg"><path d="M28.800 40.711 C 27.117 41.463,25.379 43.350,24.556 45.320 C 23.965 46.735,23.894 55.646,23.903 128.093 C 23.912 206.207,23.942 209.345,24.702 210.987 C 25.622 212.973,27.440 214.794,29.148 215.440 C 30.838 216.078,225.162 216.078,226.852 215.440 C 229.504 214.438,232.088 210.766,232.088 208.000 C 232.088 205.234,229.504 201.562,226.852 200.560 C 226.017 200.245,197.389 200.107,132.879 200.107 L 40.107 200.107 40.097 123.413 C 40.088 49.674,40.057 46.654,39.298 45.013 C 38.378 43.027,36.560 41.206,34.852 40.560 C 33.223 39.945,30.357 40.017,28.800 40.711 M192.376 64.563 C 187.521 66.380,184.634 69.927,184.064 74.774 C 183.483 79.722,186.235 84.546,190.957 86.857 C 193.046 87.879,193.656 87.981,196.645 87.808 C 199.267 87.656,200.412 87.369,201.925 86.482 C 205.807 84.207,207.957 80.430,207.922 75.947 C 207.886 71.313,205.743 67.673,201.781 65.517 C 199.126 64.072,194.848 63.638,192.376 64.563 M105.813 80.199 C 100.345 81.383,96.600 85.514,96.112 90.900 C 95.817 94.148,96.528 96.626,98.491 99.200 C 104.000 106.424,114.828 105.277,118.857 97.043 C 119.879 94.954,119.981 94.344,119.808 91.355 C 119.590 87.585,118.428 85.054,115.955 82.964 C 113.231 80.662,109.001 79.509,105.813 80.199 M167.253 104.993 C 163.146 106.848,160.456 110.621,160.103 115.022 C 159.797 118.837,160.844 121.646,163.599 124.401 C 171.180 131.983,183.940 126.723,183.852 116.053 C 183.825 112.821,183.329 111.274,181.490 108.673 C 178.619 104.614,171.923 102.883,167.253 104.993 M127.892 136.715 C 120.923 139.203,117.924 147.452,121.630 153.942 C 123.984 158.063,128.337 160.320,133.100 159.888 C 141.465 159.130,146.458 150.322,142.782 142.809 C 141.393 139.971,138.912 137.696,136.194 136.770 C 133.833 135.965,130.064 135.940,127.892 136.715 M72.311 152.636 C 69.477 153.650,67.680 154.976,66.196 157.148 C 64.426 159.739,63.860 161.845,64.107 164.920 C 64.623 171.349,69.490 175.872,75.947 175.922 C 80.430 175.957,84.207 173.807,86.482 169.925 C 88.055 167.241,88.375 162.278,87.152 159.515 C 84.568 153.672,77.966 150.612,72.311 152.636 M184.260 152.537 C 181.704 153.357,178.284 156.443,177.058 159.035 C 175.039 163.306,176.122 169.168,179.546 172.505 C 183.059 175.927,188.710 176.954,192.965 174.942 C 195.816 173.594,198.663 170.295,199.520 167.347 C 202.170 158.232,193.310 149.633,184.260 152.537 " stroke="none" fill-rule="evenodd"></path></svg>