<svg fill="currentColor" viewBox="0 0 256 256" xmlns="http://www.w3.org/2000/svg"><path d="M36.053 40.505 C 32.312 41.430,27.686 45.015,25.988 48.307 C 23.820 52.510,23.893 49.989,23.893 120.107 C 23.893 192.720,23.719 188.343,26.784 192.838 C 28.591 195.489,31.741 198.041,34.560 199.139 C 36.316 199.823,39.181 199.898,68.053 200.025 L 99.627 200.163 107.307 212.828 C 111.753 220.160,115.759 226.271,116.821 227.339 C 117.830 228.354,119.942 229.792,121.514 230.534 C 124.025 231.719,124.816 231.884,128.000 231.884 C 131.184 231.884,131.975 231.719,134.486 230.534 C 136.058 229.792,138.170 228.354,139.179 227.339 C 140.241 226.271,144.247 220.160,148.693 212.828 L 156.373 200.163 187.947 200.025 C 216.819 199.898,219.684 199.823,221.440 199.139 C 224.258 198.041,227.408 195.490,229.218 192.838 C 232.302 188.321,232.133 192.818,232.007 119.004 L 231.893 52.693 230.867 50.144 C 229.561 46.901,226.312 43.426,222.933 41.659 L 220.373 40.320 128.853 40.255 C 78.517 40.219,36.757 40.331,36.053 40.505 M215.893 119.893 L 215.893 183.893 185.493 183.904 C 166.563 183.910,154.387 184.077,153.222 184.346 C 150.131 185.058,146.799 186.939,144.919 189.033 C 143.944 190.119,139.801 196.511,135.711 203.237 C 131.622 209.963,128.152 215.467,127.999 215.467 C 127.847 215.467,124.377 209.973,120.288 203.258 C 116.199 196.544,112.121 190.212,111.225 189.188 C 110.179 187.990,108.435 186.751,106.341 185.716 L 103.085 184.107 71.596 183.987 L 40.107 183.867 40.107 119.880 L 40.107 55.893 128.000 55.893 L 215.893 55.893 215.893 119.893 M92.782 96.802 C 86.659 99.583,86.418 107.999,92.373 111.109 C 94.063 111.991,94.427 112.000,128.000 112.000 C 161.573 112.000,161.937 111.991,163.627 111.109 C 169.582 107.999,169.341 99.583,163.218 96.802 C 161.592 96.063,159.584 96.019,128.000 96.019 C 96.416 96.019,94.408 96.063,92.782 96.802 M92.782 128.802 C 86.659 131.583,86.418 139.999,92.373 143.109 C 94.063 143.991,94.427 144.000,128.000 144.000 C 161.573 144.000,161.937 143.991,163.627 143.109 C 169.582 139.999,169.341 131.583,163.218 128.802 C 161.592 128.063,159.584 128.019,128.000 128.019 C 96.416 128.019,94.408 128.063,92.782 128.802 " stroke="none" fill-rule="evenodd"></path></svg>