<svg fill="currentColor" viewBox="0 0 256 256" xmlns="http://www.w3.org/2000/svg"><path d="M44.265 32.461 C 39.776 33.526,35.661 36.951,33.540 41.387 L 32.213 44.160 32.100 94.891 L 31.986 145.622 32.898 147.506 C 35.072 151.996,41.357 153.339,45.044 150.102 C 48.244 147.293,47.987 151.727,48.115 97.173 L 48.231 48.213 128.009 48.213 L 207.787 48.213 207.787 128.000 L 207.787 207.787 172.181 207.787 C 147.232 207.787,135.899 207.932,134.314 208.271 C 130.142 209.165,127.539 213.041,128.191 217.389 C 128.576 219.952,131.165 222.932,133.571 223.580 C 134.642 223.868,148.288 223.978,173.519 223.902 L 211.840 223.787 214.445 222.583 C 217.739 221.060,221.026 217.760,222.593 214.400 L 223.787 211.840 223.787 128.000 L 223.787 44.160 222.583 41.555 C 221.060 38.261,217.760 34.974,214.400 33.407 L 211.840 32.213 128.853 32.147 C 81.512 32.109,45.179 32.244,44.265 32.461 M117.143 152.531 C 115.820 153.002,109.934 158.655,89.735 178.852 L 64.011 204.573 54.085 194.697 C 45.581 186.234,43.899 184.751,42.340 184.338 C 38.244 183.255,34.294 185.203,32.660 189.112 C 31.824 191.113,31.823 192.879,32.655 194.894 C 33.551 197.062,58.435 222.072,60.800 223.181 C 62.978 224.202,65.021 224.196,67.300 223.161 C 68.612 222.566,76.815 214.669,97.233 194.345 C 112.702 178.948,125.874 165.607,126.503 164.699 C 129.444 160.455,127.854 154.850,123.097 152.689 C 121.059 151.763,119.420 151.719,117.143 152.531 " stroke="none" fill-rule="evenodd"></path></svg>