<svg fill="currentColor" viewBox="0 0 256 256" xmlns="http://www.w3.org/2000/svg"><path d="M120.960 24.350 C 111.263 24.978,101.547 26.981,99.083 28.860 C 97.492 30.074,96.024 32.821,96.009 34.613 C 95.988 37.111,96.616 38.599,98.521 40.567 C 101.096 43.227,102.947 43.552,108.491 42.316 C 116.242 40.587,118.724 40.335,128.000 40.335 C 137.282 40.335,139.757 40.587,147.530 42.320 C 152.154 43.352,154.289 43.192,156.520 41.646 C 159.673 39.461,160.803 35.432,159.248 31.917 C 157.672 28.354,154.664 27.020,144.547 25.394 C 140.779 24.789,129.011 23.834,126.933 23.965 C 126.464 23.994,123.776 24.168,120.960 24.350 M57.387 53.294 C 55.309 53.810,54.470 54.415,51.648 57.432 C 41.930 67.821,33.995 81.267,29.408 95.123 C 27.207 101.771,27.152 102.055,27.672 104.001 C 28.392 106.694,29.846 108.496,32.187 109.596 C 34.548 110.706,36.359 110.737,38.631 109.705 C 41.295 108.495,42.342 106.854,44.552 100.432 C 48.576 88.737,53.991 79.312,62.135 69.829 C 66.854 64.335,67.676 62.701,67.166 59.834 C 66.361 55.307,61.735 52.213,57.387 53.294 M191.946 54.129 C 189.574 55.634,188.414 57.849,188.444 60.822 C 188.472 63.558,188.773 64.092,192.960 68.836 C 201.903 78.969,208.045 89.613,211.791 101.473 C 212.404 103.413,213.187 105.544,213.531 106.209 C 214.933 108.921,218.764 110.864,221.643 110.323 C 225.309 109.636,228.451 105.960,228.407 102.409 C 228.368 99.175,224.697 88.840,220.904 81.280 C 215.597 70.704,204.164 55.602,199.952 53.603 C 197.561 52.468,194.218 52.688,191.946 54.129 M33.557 145.922 C 29.965 147.026,27.522 150.265,27.603 153.813 C 27.674 156.892,31.031 166.294,34.765 173.867 C 39.460 183.390,45.230 191.718,52.429 199.359 C 54.669 201.736,55.553 202.365,57.418 202.907 C 62.703 204.444,67.612 200.701,67.556 195.178 C 67.528 192.460,67.259 191.976,63.220 187.390 C 53.977 176.893,48.021 166.596,44.203 154.510 C 42.917 150.438,42.483 149.506,41.227 148.119 C 39.460 146.170,35.987 145.175,33.557 145.922 M218.311 146.002 C 215.173 146.858,213.713 148.881,211.439 155.520 C 207.188 167.931,201.669 177.404,193.031 187.118 C 189.353 191.254,188.587 192.639,188.587 195.151 C 188.587 199.867,191.793 203.093,196.480 203.093 C 199.466 203.093,200.914 202.242,204.537 198.354 C 213.819 188.394,221.668 175.302,226.122 162.347 C 229.151 153.538,229.197 151.762,226.479 148.666 C 224.214 146.086,221.383 145.163,218.311 146.002 M100.480 213.709 C 99.541 214.140,98.445 214.863,98.043 215.315 C 96.211 217.378,95.483 221.296,96.454 223.866 C 97.000 225.312,98.803 227.285,100.267 228.039 C 101.677 228.765,108.249 230.201,114.347 231.115 C 121.683 232.215,135.308 232.115,143.147 230.904 C 150.139 229.824,154.973 228.562,156.627 227.385 C 160.518 224.614,160.936 218.862,157.495 215.421 C 155.107 213.033,153.028 212.574,148.755 213.490 C 139.976 215.371,137.647 215.619,128.427 215.650 C 119.107 215.680,115.645 215.344,108.463 213.711 C 104.079 212.714,102.648 212.713,100.480 213.709 " stroke="none" fill-rule="evenodd"></path></svg>