<svg fill="currentColor" viewBox="0 0 256 256" xmlns="http://www.w3.org/2000/svg"><path d="M44.265 32.461 C 39.776 33.526,35.661 36.951,33.540 41.387 L 32.213 44.160 32.213 128.000 L 32.213 211.840 33.407 214.400 C 34.974 217.760,38.261 221.060,41.555 222.583 L 44.160 223.787 128.000 223.787 L 211.840 223.787 214.445 222.583 C 217.739 221.060,221.026 217.760,222.593 214.400 L 223.787 211.840 223.787 128.000 L 223.787 44.160 222.583 41.555 C 221.060 38.261,217.760 34.974,214.400 33.407 L 211.840 32.213 128.853 32.147 C 81.512 32.109,45.179 32.244,44.265 32.461 M79.785 96.747 L 79.784 145.280 76.973 146.733 C 62.624 154.153,59.614 173.538,71.038 184.962 C 75.932 189.855,82.384 192.281,89.387 191.860 C 95.392 191.499,99.672 189.717,104.108 185.733 C 116.766 174.363,113.560 153.341,98.085 146.242 L 96.000 145.285 96.000 130.351 L 96.000 115.416 119.893 139.307 L 143.787 163.197 143.787 185.492 L 143.787 207.787 96.000 207.787 L 48.213 207.787 48.213 128.000 L 48.213 48.213 64.000 48.213 L 79.787 48.213 79.785 96.747 M128.009 60.907 C 128.018 72.412,128.094 73.760,128.818 75.307 C 129.312 76.360,132.800 80.177,137.932 85.279 L 146.246 93.544 145.442 95.829 C 140.969 108.558,147.593 122.318,160.341 126.778 C 163.805 127.990,169.695 128.270,173.392 127.398 C 184.804 124.707,192.547 114.321,191.869 102.613 C 191.282 92.492,184.670 84.062,174.933 81.024 C 170.184 79.542,162.728 79.907,158.980 81.806 L 157.747 82.430 150.980 75.674 L 144.213 68.917 144.213 58.565 L 144.213 48.213 176.000 48.213 L 207.787 48.213 207.787 128.000 L 207.787 207.787 183.893 207.787 L 160.000 207.787 160.000 183.026 C 160.000 161.670,159.909 158.048,159.341 156.680 C 158.882 155.574,149.195 145.598,127.341 123.727 L 96.000 92.360 96.000 70.287 L 96.000 48.213 112.000 48.213 L 128.000 48.213 128.009 60.907 M170.985 96.656 C 173.012 97.503,173.981 98.401,174.979 100.356 C 177.351 105.004,174.654 110.647,169.504 111.808 C 166.235 112.546,162.244 110.500,160.816 107.356 C 158.957 103.262,160.709 98.744,164.907 96.806 C 167.000 95.840,168.918 95.793,170.985 96.656 M90.781 160.660 C 92.890 161.541,94.240 162.841,95.194 164.907 C 97.289 169.446,94.644 174.606,89.646 175.729 C 88.624 175.958,87.572 176.081,87.307 176.002 C 87.043 175.923,86.302 175.743,85.661 175.603 C 84.236 175.291,81.670 173.099,80.832 171.478 C 80.492 170.820,80.213 169.305,80.213 168.111 C 80.213 162.278,85.587 158.490,90.781 160.660 " stroke="none" fill-rule="evenodd"></path></svg>