<svg fill="currentColor" viewBox="0 0 256 256" xmlns="http://www.w3.org/2000/svg"><path d="M71.680 40.933 C 57.407 43.947,45.908 54.622,41.545 68.907 C 40.476 72.409,40.370 73.366,40.346 79.787 C 40.323 85.904,40.448 87.268,41.296 90.195 C 44.683 101.889,52.028 110.776,62.507 115.859 C 69.006 119.011,72.067 119.679,80.000 119.679 C 87.933 119.679,90.994 119.011,97.493 115.859 C 107.972 110.776,115.318 101.888,118.704 90.195 C 119.539 87.311,119.679 85.845,119.679 80.000 C 119.679 74.155,119.539 72.689,118.704 69.805 C 113.489 51.793,98.072 40.043,79.787 40.142 C 77.205 40.156,73.770 40.491,71.680 40.933 M167.680 40.933 C 153.407 43.947,141.908 54.622,137.545 68.907 C 136.476 72.409,136.370 73.366,136.346 79.787 C 136.323 85.904,136.448 87.268,137.296 90.195 C 140.683 101.889,148.028 110.776,158.507 115.859 C 165.006 119.011,168.067 119.679,176.000 119.679 C 183.933 119.679,186.994 119.011,193.493 115.859 C 203.972 110.776,211.318 101.888,214.704 90.195 C 215.539 87.311,215.679 85.845,215.679 80.000 C 215.679 74.155,215.539 72.689,214.704 69.805 C 209.489 51.793,194.072 40.043,175.787 40.142 C 173.205 40.156,169.770 40.491,167.680 40.933 M87.253 57.260 C 94.725 59.704,100.239 65.258,102.838 72.960 C 104.151 76.848,104.151 83.152,102.838 87.040 C 101.465 91.107,99.571 94.162,96.621 97.070 C 91.999 101.624,86.631 103.796,80.000 103.796 C 69.364 103.796,60.663 97.412,57.162 87.040 C 55.849 83.152,55.849 76.848,57.162 72.960 C 61.516 60.060,74.732 53.165,87.253 57.260 M183.253 57.260 C 190.725 59.704,196.239 65.258,198.838 72.960 C 199.555 75.082,199.774 76.735,199.774 80.000 C 199.774 86.852,197.512 92.250,192.621 97.070 C 187.999 101.624,182.631 103.796,176.000 103.796 C 169.369 103.796,164.001 101.624,159.379 97.070 C 154.488 92.250,152.226 86.852,152.226 80.000 C 152.226 73.405,154.395 67.988,158.876 63.401 C 165.283 56.841,174.710 54.466,183.253 57.260 M71.680 136.933 C 57.407 139.947,45.908 150.622,41.545 164.907 C 40.476 168.409,40.370 169.366,40.346 175.787 C 40.323 181.904,40.448 183.268,41.296 186.195 C 44.683 197.889,52.028 206.776,62.507 211.859 C 69.006 215.011,72.067 215.679,80.000 215.679 C 87.933 215.679,90.994 215.011,97.493 211.859 C 107.972 206.776,115.318 197.888,118.704 186.195 C 119.539 183.311,119.679 181.845,119.679 176.000 C 119.679 170.155,119.539 168.689,118.704 165.805 C 113.489 147.793,98.072 136.043,79.787 136.142 C 77.205 136.156,73.770 136.491,71.680 136.933 M172.813 136.782 C 170.863 137.628,169.895 138.542,168.915 140.463 C 168.174 141.914,168.107 143.132,168.107 155.076 L 168.107 168.107 155.293 168.107 C 141.832 168.107,140.627 168.254,138.530 170.150 C 135.400 172.980,135.400 179.020,138.530 181.850 C 140.627 183.746,141.832 183.893,155.293 183.893 L 168.107 183.893 168.107 196.924 C 168.107 208.868,168.174 210.086,168.915 211.537 C 169.913 213.492,170.882 214.390,172.909 215.237 C 174.907 216.072,177.093 216.072,179.091 215.237 C 181.207 214.353,182.159 213.443,183.091 211.413 C 183.796 209.878,183.876 208.408,183.884 196.800 L 183.893 183.893 196.800 183.884 C 208.408 183.876,209.878 183.796,211.413 183.091 C 213.443 182.159,214.353 181.207,215.237 179.091 C 216.072 177.093,216.072 174.907,215.237 172.909 C 214.353 170.793,213.443 169.841,211.413 168.909 C 209.878 168.204,208.408 168.124,196.800 168.116 L 183.893 168.107 183.884 155.200 C 183.876 143.592,183.796 142.122,183.091 140.587 C 182.159 138.557,181.207 137.647,179.091 136.763 C 177.125 135.941,174.735 135.949,172.813 136.782 M87.253 153.260 C 94.725 155.704,100.239 161.258,102.838 168.960 C 104.151 172.848,104.151 179.152,102.838 183.040 C 101.465 187.107,99.571 190.162,96.621 193.070 C 91.999 197.624,86.631 199.796,80.000 199.796 C 69.364 199.796,60.663 193.412,57.162 183.040 C 55.849 179.152,55.849 172.848,57.162 168.960 C 61.516 156.060,74.732 149.165,87.253 153.260 " stroke="none" fill-rule="evenodd"></path></svg>