<svg fill="currentColor" viewBox="0 0 256 256" xmlns="http://www.w3.org/2000/svg"><path d="M123.307 32.247 C 122.720 32.351,121.088 32.636,119.680 32.881 C 107.810 34.939,96.373 42.999,90.009 53.790 C 87.875 57.408,85.832 62.881,84.858 67.588 C 83.134 75.920,84.310 86.246,87.880 94.118 C 92.179 103.599,101.328 112.543,110.735 116.459 C 117.118 119.116,119.801 119.618,127.787 119.651 C 135.761 119.683,138.908 119.105,145.338 116.428 C 155.305 112.279,164.586 102.780,168.742 92.475 C 178.939 67.185,163.884 38.826,137.173 33.014 C 134.218 32.371,125.367 31.882,123.307 32.247 M135.016 49.061 C 142.642 51.011,149.349 56.366,152.676 63.161 C 154.982 67.871,155.733 70.976,155.733 75.802 C 155.733 81.068,155.177 83.498,152.865 88.320 C 151.278 91.632,150.328 92.965,147.674 95.610 C 142.060 101.204,135.823 103.800,128.000 103.800 C 120.177 103.800,113.940 101.204,108.326 95.610 C 105.672 92.965,104.722 91.632,103.135 88.320 C 100.823 83.498,100.267 81.068,100.267 75.802 C 100.267 70.976,101.018 67.871,103.324 63.161 C 108.854 51.868,122.410 45.837,135.016 49.061 M61.973 128.455 C 39.504 131.376,22.430 152.304,24.087 174.892 C 25.513 194.332,38.845 210.038,58.027 214.873 C 60.578 215.517,62.696 215.673,68.480 215.646 C 75.072 215.616,76.084 215.508,79.573 214.461 C 87.545 212.069,95.416 207.300,100.302 201.901 C 113.126 187.731,115.616 167.828,106.652 151.138 C 98.066 135.151,80.207 126.084,61.973 128.455 M181.961 128.414 C 172.693 129.735,163.767 134.172,157.104 140.769 C 147.689 150.091,142.815 163.508,144.217 176.246 C 145.047 183.788,147.250 189.998,151.241 196.049 C 157.194 205.075,165.563 211.194,176.427 214.464 C 179.953 215.526,180.876 215.622,187.733 215.640 C 195.975 215.661,198.959 215.118,205.200 212.462 C 224.491 204.253,235.349 183.470,231.042 162.997 C 227.623 146.744,214.986 133.580,198.827 129.438 C 194.292 128.276,186.325 127.792,181.961 128.414 M76.491 145.431 C 81.214 147.112,84.170 148.983,87.682 152.514 C 91.398 156.250,93.230 159.262,94.699 164.053 C 96.734 170.694,96.153 177.623,93.018 184.107 C 88.298 193.868,78.866 199.785,68.012 199.793 C 63.044 199.797,60.445 199.187,55.635 196.886 C 42.170 190.445,36.414 174.082,42.759 160.283 C 46.184 152.836,53.339 146.867,61.232 144.875 C 64.900 143.949,73.175 144.250,76.491 145.431 M194.560 144.878 C 209.289 148.339,218.778 163.945,215.040 178.560 C 213.927 182.912,212.644 185.623,210.119 188.961 C 207.468 192.463,204.169 195.094,199.893 197.114 C 195.508 199.186,192.791 199.797,187.988 199.793 C 177.109 199.785,167.740 193.907,162.987 184.107 C 159.757 177.448,159.248 170.565,161.469 163.605 C 162.895 159.138,164.553 156.348,167.862 152.850 C 171.656 148.840,177.272 145.657,182.316 144.661 C 185.290 144.073,191.613 144.185,194.560 144.878 " stroke="none" fill-rule="evenodd"></path></svg>