<svg fill="currentColor" viewBox="0 0 256 256" xmlns="http://www.w3.org/2000/svg"><path d="M114.560 24.561 C 103.604 26.049,92.479 29.437,82.560 34.306 C 54.165 48.245,33.758 73.982,26.710 104.747 C 24.740 113.346,24.542 115.487,24.563 128.000 C 24.582 139.393,24.655 140.525,25.721 145.955 C 29.981 167.656,38.856 184.924,53.524 200.049 C 70.384 217.434,91.118 227.820,115.413 231.049 C 118.530 231.463,123.624 231.729,128.433 231.729 C 156.445 231.728,182.249 220.954,202.164 200.944 C 218.513 184.517,228.982 162.713,231.716 139.392 C 232.146 135.724,232.118 134.980,231.489 133.332 C 229.088 127.046,220.393 126.202,217.167 131.942 C 216.567 133.010,215.989 135.457,215.452 139.203 C 213.929 149.816,211.632 157.407,207.158 166.613 C 191.600 198.625,157.281 218.322,121.884 215.554 C 100.753 213.901,82.446 205.764,67.485 191.372 C 55.180 179.535,47.292 166.167,43.057 149.971 C 32.494 109.580,51.899 67.230,89.387 48.857 C 98.446 44.417,106.388 42.000,116.699 40.548 C 122.706 39.701,124.113 39.202,125.946 37.265 C 129.886 33.100,127.756 25.904,122.120 24.339 C 120.227 23.813,120.020 23.819,114.560 24.561 M156.929 24.470 C 151.555 25.972,148.053 30.501,148.053 35.951 C 148.053 40.621,150.467 44.574,154.612 46.694 C 162.200 50.574,171.063 45.615,171.839 37.054 C 172.129 33.855,171.411 31.368,169.444 28.765 C 166.644 25.062,161.334 23.239,156.929 24.470 M190.917 49.223 C 186.480 51.289,183.486 56.448,184.036 61.084 C 185.208 70.985,196.552 75.474,203.840 68.921 C 210.244 63.164,208.935 53.121,201.284 49.309 C 198.288 47.816,194.014 47.780,190.917 49.223 M124.800 64.806 C 122.735 65.760,121.435 67.110,120.554 69.219 C 119.979 70.594,119.895 74.609,119.903 100.146 C 119.912 127.766,119.958 129.594,120.700 131.200 C 121.653 133.265,123.004 134.565,125.112 135.446 C 126.487 136.021,130.518 136.107,156.056 136.107 L 185.419 136.107 187.298 135.147 C 188.332 134.619,189.764 133.449,190.482 132.547 C 191.649 131.080,191.787 130.601,191.787 128.000 C 191.787 125.399,191.649 124.920,190.482 123.453 C 189.764 122.551,188.332 121.381,187.298 120.853 L 185.419 119.893 160.763 119.893 L 136.107 119.893 136.097 95.253 C 136.089 72.210,136.037 70.503,135.300 68.907 C 133.370 64.725,128.823 62.949,124.800 64.806 M216.193 84.643 C 211.916 86.237,209.087 89.447,208.202 93.707 C 206.699 100.947,212.427 107.947,219.854 107.947 C 224.449 107.947,228.483 105.517,230.501 101.534 C 232.084 98.412,232.380 95.879,231.512 92.893 C 230.043 87.839,225.869 84.495,220.661 84.200 C 218.871 84.099,217.212 84.263,216.193 84.643 " stroke="none" fill-rule="evenodd"></path></svg>