<svg fill="currentColor" viewBox="0 0 256 256" xmlns="http://www.w3.org/2000/svg"><path d="M150.187 40.580 C 126.141 43.308,103.322 56.521,89.079 75.962 C 86.648 79.280,81.902 86.947,81.399 88.367 C 81.334 88.553,79.302 88.518,76.885 88.290 C 71.946 87.822,64.016 88.306,58.870 89.389 C 36.624 94.068,18.504 110.258,11.356 131.840 C 9.064 138.759,8.502 142.032,8.244 149.973 C 8.044 156.107,8.144 158.023,8.890 162.385 C 13.387 188.684,32.487 208.618,59.010 214.696 C 62.549 215.507,64.580 215.613,79.747 215.779 C 88.995 215.880,97.215 215.840,98.013 215.691 C 99.976 215.322,102.618 212.840,103.497 210.539 C 104.795 207.142,103.357 203.092,100.170 201.164 C 98.866 200.376,97.702 200.303,82.560 200.060 C 65.138 199.780,62.417 199.491,56.171 197.262 C 33.359 189.119,20.058 165.276,25.192 141.727 C 26.491 135.771,30.056 127.992,33.668 123.235 C 37.850 117.727,44.508 112.162,50.560 109.117 C 56.523 106.117,64.960 104.107,71.592 104.107 C 75.120 104.107,75.188 104.126,74.929 105.067 C 73.312 110.945,72.107 119.798,72.107 125.797 C 72.107 130.968,72.813 132.737,75.665 134.714 C 77.075 135.691,77.819 135.893,80.000 135.893 C 82.202 135.893,82.921 135.694,84.395 134.672 C 87.100 132.798,87.743 130.968,88.290 123.591 C 89.053 113.291,91.147 105.280,95.337 96.631 C 112.629 60.934,155.632 46.025,191.369 63.337 C 221.378 77.874,237.417 111.149,230.139 143.773 C 228.127 152.791,224.863 160.294,219.373 168.521 C 216.194 173.285,216.107 173.486,216.107 176.019 C 216.107 178.129,216.324 178.950,217.252 180.353 C 219.268 183.399,223.731 184.740,227.107 183.313 C 229.043 182.495,230.530 180.868,233.596 176.213 C 247.103 155.706,251.312 130.156,245.146 106.096 C 235.105 66.920,199.650 39.766,159.057 40.162 C 155.938 40.192,151.947 40.381,150.187 40.580 M149.424 120.375 C 147.152 121.030,144.808 123.705,144.258 126.269 C 143.939 127.757,143.787 138.157,143.787 158.417 L 143.787 188.366 134.293 178.918 C 129.072 173.722,124.186 169.163,123.435 168.788 C 121.868 168.006,118.798 167.897,117.041 168.560 C 115.530 169.131,113.617 170.923,112.754 172.577 C 111.879 174.254,111.911 177.785,112.819 179.637 C 113.802 181.640,146.977 214.564,148.767 215.312 C 150.607 216.080,153.253 216.049,155.214 215.234 C 157.401 214.326,190.071 181.790,191.183 179.413 C 192.521 176.553,192.002 172.792,189.957 170.530 C 187.911 168.268,183.689 167.468,180.601 168.758 C 179.624 169.166,175.501 172.929,169.530 178.862 L 160.016 188.315 159.901 156.704 L 159.787 125.092 158.482 123.453 C 156.129 120.497,152.857 119.385,149.424 120.375 " stroke="none" fill-rule="evenodd"></path></svg>