<svg fill="currentColor" viewBox="0 0 256 256" xmlns="http://www.w3.org/2000/svg"><path d="M150.187 40.557 C 125.418 43.622,103.651 56.231,89.159 75.909 C 86.617 79.360,81.954 86.840,81.399 88.356 C 81.334 88.536,79.168 88.512,76.587 88.303 C 58.756 86.858,41.004 93.296,27.830 105.986 C 22.265 111.346,18.675 116.102,15.418 122.429 C 10.637 131.718,8.577 139.539,8.219 149.760 C 7.588 167.804,14.109 184.400,26.846 197.162 C 36.608 206.944,48.957 213.178,62.720 215.272 C 68.636 216.172,164.394 216.175,171.093 215.275 C 186.796 213.166,200.897 207.387,213.427 197.923 C 217.965 194.496,226.496 185.965,229.923 181.427 C 241.788 165.717,247.877 147.598,247.877 128.000 C 247.877 104.938,239.418 83.843,223.490 67.182 C 210.367 53.455,193.126 44.372,174.080 41.152 C 169.273 40.339,154.849 39.980,150.187 40.557 M170.027 56.806 C 186.894 58.967,203.873 68.365,214.955 81.673 C 224.891 93.606,230.399 107.093,231.656 122.570 C 234.522 157.864,210.466 190.400,175.787 198.136 C 167.339 200.020,162.015 200.177,112.213 200.005 C 67.100 199.849,65.822 199.822,62.080 198.955 C 41.106 194.096,26.474 177.547,24.306 156.234 C 23.406 147.387,25.147 138.641,29.516 130.062 C 32.135 124.919,34.732 121.474,39.206 117.209 C 46.158 110.583,54.437 106.433,63.969 104.797 C 67.581 104.177,75.093 103.832,75.093 104.286 C 75.093 104.385,74.697 106.135,74.212 108.175 C 72.935 113.552,72.125 120.287,72.115 125.595 C 72.105 130.988,72.777 132.712,75.665 134.714 C 77.075 135.691,77.819 135.893,80.000 135.893 C 82.202 135.893,82.921 135.694,84.395 134.672 C 87.100 132.798,87.743 130.968,88.290 123.591 C 89.053 113.291,91.147 105.280,95.337 96.631 C 105.053 76.575,123.309 62.326,145.323 57.616 C 153.068 55.960,161.314 55.689,170.027 56.806 M132.480 104.817 C 129.632 106.322,128.019 108.920,128.019 112.000 C 128.019 115.135,129.248 116.752,139.041 126.495 L 148.464 135.870 138.883 145.509 C 132.854 151.575,129.062 155.725,128.652 156.707 C 127.892 158.523,127.808 161.143,128.454 162.852 C 129.473 165.549,133.117 168.078,136.014 168.097 C 138.899 168.117,140.430 166.938,150.298 157.106 L 160.009 147.429 169.711 157.112 C 179.581 166.963,181.081 168.117,183.986 168.097 C 186.883 168.078,190.527 165.549,191.546 162.852 C 192.192 161.143,192.108 158.523,191.348 156.707 C 190.938 155.725,187.146 151.575,181.117 145.509 L 171.536 135.870 180.959 126.495 C 190.681 116.822,191.973 115.136,191.991 112.093 C 192.001 110.300,191.075 107.766,189.957 106.530 C 187.911 104.268,183.689 103.468,180.601 104.758 C 179.623 105.166,175.498 108.931,169.522 114.870 L 160.000 124.332 150.478 114.870 C 144.502 108.931,140.377 105.166,139.399 104.758 C 137.401 103.923,134.119 103.951,132.480 104.817 " stroke="none" fill-rule="evenodd"></path></svg>