<svg fill="currentColor" viewBox="0 0 256 256" xmlns="http://www.w3.org/2000/svg"><path d="M73.600 25.134 C 70.737 25.845,68.645 27.866,67.779 30.757 C 67.336 32.235,67.452 33.526,68.652 40.444 C 69.413 44.835,70.141 48.957,70.269 49.605 C 70.472 50.632,70.327 50.843,69.135 51.259 C 63.423 53.250,54.954 58.414,50.116 62.855 L 47.111 65.614 40.089 60.691 C 36.227 57.984,32.449 55.509,31.694 55.191 C 27.893 53.591,23.294 55.699,21.567 59.832 C 20.700 61.907,20.746 63.817,21.712 65.946 C 22.599 67.899,23.406 68.578,31.787 74.436 C 35.072 76.733,37.810 78.654,37.870 78.705 C 37.931 78.757,37.424 80.029,36.742 81.533 C 34.012 87.560,32.008 96.608,32.003 102.933 C 32.001 104.517,31.906 105.813,31.790 105.813 C 31.675 105.813,27.691 106.501,22.937 107.342 C 13.935 108.935,12.273 109.529,10.722 111.710 C 8.324 115.084,8.659 119.166,11.575 122.081 C 14.322 124.828,15.415 124.907,25.713 123.093 C 30.616 122.230,34.685 121.589,34.757 121.669 C 34.830 121.748,35.490 123.324,36.225 125.170 C 36.960 127.016,38.249 129.758,39.090 131.262 L 40.620 133.997 37.696 137.078 C 26.847 148.514,21.960 165.613,24.969 181.612 C 28.397 199.838,41.848 215.308,59.387 221.196 C 67.357 223.871,64.217 223.717,114.133 223.889 C 146.129 224.000,161.063 223.904,164.053 223.567 C 198.405 219.701,225.269 194.146,231.103 159.787 C 232.117 153.813,232.102 141.645,231.073 135.893 C 227.220 114.343,215.806 96.694,197.973 84.708 C 193.403 81.636,185.293 77.646,180.164 75.946 C 166.538 71.431,150.830 70.888,136.894 74.449 C 135.865 74.712,135.593 74.490,133.938 72.036 C 132.935 70.550,130.803 67.973,129.200 66.310 L 126.286 63.287 131.046 56.497 C 137.688 47.022,138.232 45.600,136.578 42.027 C 134.033 36.530,127.491 35.386,123.472 39.736 C 122.741 40.526,120.272 43.861,117.985 47.147 C 115.698 50.432,113.677 53.282,113.493 53.480 C 113.308 53.678,111.400 53.136,109.251 52.277 C 103.085 49.809,97.784 48.609,91.826 48.332 C 88.944 48.198,86.506 47.959,86.409 47.801 C 86.311 47.643,85.541 43.687,84.697 39.010 C 83.854 34.333,82.818 29.835,82.397 29.013 C 80.913 26.122,76.844 24.328,73.600 25.134 M97.454 65.267 C 101.695 66.355,106.557 68.445,109.869 70.601 C 112.321 72.198,120.326 79.789,120.315 80.507 C 120.312 80.697,118.844 81.703,117.052 82.740 C 111.802 85.782,107.204 89.396,102.143 94.460 C 95.305 101.302,90.117 108.751,86.437 117.010 L 84.776 120.736 83.028 120.421 C 82.067 120.248,78.688 120.119,75.520 120.134 C 69.116 120.165,64.789 120.901,58.880 122.964 C 56.885 123.661,54.929 124.330,54.534 124.451 C 53.600 124.738,51.239 120.141,49.626 114.896 C 48.571 111.463,48.474 110.553,48.478 104.107 C 48.482 95.837,49.163 92.653,52.262 86.400 C 58.121 74.576,69.206 66.574,82.694 64.430 C 86.282 63.860,93.587 64.274,97.454 65.267 M167.993 89.147 C 179.740 91.550,190.496 97.479,198.992 106.234 C 210.653 118.251,216.401 133.394,215.758 150.400 C 215.401 159.849,213.677 166.606,209.498 174.933 C 200.999 191.869,185.304 203.507,165.945 207.227 C 162.216 207.943,158.596 208.000,116.693 208.000 C 75.083 208.000,71.235 207.941,68.573 207.256 C 56.670 204.197,48.115 197.244,43.305 186.719 C 37.363 173.713,39.985 157.995,49.841 147.547 C 57.009 139.949,65.928 136.126,76.522 136.112 L 80.724 136.107 80.426 138.673 C 79.626 145.563,80.186 147.800,83.346 150.355 C 84.817 151.544,85.281 151.680,87.857 151.680 C 93.103 151.680,95.602 148.992,96.188 142.720 C 98.275 120.365,112.344 101.135,132.896 92.548 C 137.262 90.724,143.713 88.959,148.267 88.344 C 152.949 87.711,162.968 88.119,167.993 89.147 " stroke="none" fill-rule="evenodd"></path></svg>