<svg fill="currentColor" viewBox="0 0 256 256" xmlns="http://www.w3.org/2000/svg"><path d="M144.827 16.870 C 119.259 20.603,96.577 37.882,86.320 61.440 L 84.927 64.640 82.677 64.427 C 78.107 63.993,69.330 64.313,65.794 65.042 C 45.068 69.312,29.327 85.169,24.898 106.240 C 23.981 110.602,23.875 120.801,24.703 125.013 C 28.422 143.945,41.901 159.530,59.520 165.271 C 67.284 167.801,67.132 167.788,91.200 167.985 C 103.461 168.085,113.493 168.267,113.493 168.389 C 113.493 168.512,109.627 175.053,104.901 182.925 C 95.503 198.581,95.228 199.242,96.615 202.873 C 97.351 204.801,99.110 206.619,101.096 207.503 C 101.801 207.816,107.043 208.066,115.906 208.207 L 129.625 208.427 120.972 222.847 C 115.958 231.201,112.217 237.890,112.078 238.748 C 111.542 242.049,113.957 246.278,117.041 247.440 C 120.398 248.706,124.588 247.380,126.599 244.417 C 127.292 243.396,133.206 233.638,139.742 222.733 C 150.449 204.868,151.643 202.688,151.807 200.715 C 152.060 197.661,150.834 195.001,148.443 193.418 L 146.624 192.213 132.446 192.000 L 118.267 191.787 125.373 179.947 L 132.479 168.107 145.554 168.107 C 163.848 168.107,170.078 167.352,180.461 163.881 C 202.499 156.513,220.512 138.501,227.879 116.466 C 234.534 96.563,233.128 76.480,223.774 57.813 C 220.340 50.961,216.483 45.485,211.200 39.961 C 198.957 27.160,184.208 19.449,167.009 16.857 C 161.815 16.074,150.230 16.081,144.827 16.870 M167.680 33.071 C 179.349 35.603,188.943 40.641,197.215 48.581 C 204.863 55.921,209.684 63.521,212.893 73.294 C 215.193 80.297,216.056 86.516,215.778 94.080 C 215.531 100.817,214.795 104.873,212.647 111.339 C 206.904 128.630,192.593 142.911,175.215 148.691 C 165.736 151.845,168.950 151.680,116.907 151.680 C 72.479 151.680,70.040 151.641,67.200 150.876 C 56.267 147.932,46.896 139.814,42.841 129.774 C 40.771 124.650,40.325 122.161,40.345 115.840 C 40.367 108.705,40.939 106.200,43.951 100.053 C 47.495 92.819,53.083 87.283,60.373 83.782 C 65.749 81.200,68.425 80.569,75.024 80.324 L 80.714 80.112 80.410 82.547 C 79.891 86.696,80.018 90.147,80.740 91.520 C 82.839 95.515,87.558 97.065,91.627 95.095 C 94.572 93.669,95.538 91.800,96.270 86.109 C 98.174 71.311,103.207 60.461,112.832 50.404 C 121.848 40.983,133.643 34.806,146.773 32.628 C 151.470 31.849,163.193 32.097,167.680 33.071 " stroke="none" fill-rule="evenodd"></path></svg>