<svg fill="currentColor" viewBox="0 0 256 256" xmlns="http://www.w3.org/2000/svg"><path d="M62.080 24.280 C 61.376 24.455,60.416 24.811,59.947 25.071 C 59.477 25.331,51.382 33.284,41.956 42.745 C 27.453 57.303,24.749 60.209,24.359 61.653 C 23.786 63.777,23.786 64.223,24.359 66.347 C 24.749 67.790,27.460 70.707,41.956 85.272 C 53.365 96.735,59.664 102.758,60.800 103.290 C 64.807 105.164,69.368 103.388,71.300 99.200 C 72.266 97.107,72.314 95.193,71.451 93.106 C 71.011 92.041,66.282 87.000,57.057 77.763 L 43.318 64.006 57.248 50.030 C 68.942 38.297,71.253 35.779,71.640 34.347 C 72.211 32.235,72.214 31.762,71.661 29.773 C 71.145 27.915,69.485 25.808,67.896 24.995 C 66.393 24.226,63.653 23.889,62.080 24.280 M103.040 24.089 C 102.805 24.175,102.100 24.358,101.473 24.496 C 98.767 25.090,96.017 28.875,96.021 32.000 C 96.022 32.821,96.353 34.205,96.758 35.076 C 97.186 35.996,103.100 42.390,110.892 50.356 L 124.290 64.054 110.804 77.582 C 101.904 86.510,97.094 91.648,96.659 92.689 C 94.890 96.924,96.653 101.328,100.907 103.298 C 103.118 104.321,105.121 104.311,107.279 103.266 C 108.411 102.718,114.959 96.460,126.141 85.240 C 142.464 68.862,143.289 67.958,143.690 66.027 C 143.966 64.696,143.966 63.304,143.689 61.973 C 143.289 60.044,142.466 59.140,126.568 43.168 C 117.382 33.940,109.099 25.939,108.160 25.387 C 106.517 24.421,103.928 23.765,103.040 24.089 M172.813 40.772 C 169.807 42.097,168.107 44.743,168.107 48.096 C 168.107 50.600,169.145 52.658,171.284 54.389 L 172.877 55.680 186.385 55.893 L 199.893 56.107 199.893 128.000 L 199.893 199.893 128.000 199.893 L 56.107 199.893 55.893 166.613 C 55.698 136.114,55.618 133.221,54.942 131.984 C 51.991 126.591,43.693 126.834,41.002 132.393 L 40.087 134.283 40.204 169.231 L 40.320 204.179 41.707 206.995 C 43.351 210.334,46.029 212.956,49.419 214.545 L 51.840 215.680 128.009 215.680 L 204.178 215.680 206.995 214.293 C 210.334 212.649,212.956 209.972,214.545 206.581 L 215.680 204.160 215.680 127.991 L 215.680 51.822 214.278 48.973 C 212.652 45.670,209.987 43.085,206.507 41.434 L 204.160 40.320 189.227 40.219 C 176.595 40.134,174.065 40.219,172.813 40.772 " stroke="none" fill-rule="evenodd"></path></svg>