<svg fill="currentColor" viewBox="0 0 256 256" xmlns="http://www.w3.org/2000/svg"><path d="M70.613 40.385 C 65.610 41.180,59.942 43.459,55.628 46.409 C 41.966 55.751,36.541 73.293,42.454 89.004 C 45.617 97.407,52.850 105.033,61.285 108.857 C 67.036 111.465,69.815 111.870,83.520 112.099 L 96.000 112.307 96.000 128.260 L 96.000 144.213 83.822 144.213 C 70.384 144.213,67.426 144.566,62.179 146.795 C 45.722 153.787,36.795 171.582,41.144 188.728 C 46.458 209.677,68.675 221.197,89.004 213.546 C 97.407 210.383,105.033 203.150,108.857 194.715 C 111.465 188.964,111.870 186.185,112.099 172.480 L 112.307 160.000 128.000 160.000 L 143.693 160.000 143.901 172.480 C 144.082 183.316,144.228 185.422,145.006 188.470 C 150.824 211.253,175.877 222.622,196.570 211.869 C 212.791 203.439,220.045 184.265,213.546 166.996 C 209.438 156.082,199.087 147.248,187.645 144.891 C 185.090 144.365,181.637 144.213,172.178 144.213 L 160.000 144.213 160.000 128.260 L 160.000 112.307 172.480 112.099 C 183.316 111.918,185.422 111.772,188.470 110.994 C 207.961 106.016,219.742 86.534,214.871 67.334 C 211.629 54.550,201.882 44.671,189.013 41.125 C 184.647 39.922,174.927 40.014,170.482 41.300 C 157.894 44.945,148.223 54.867,145.032 67.413 C 144.222 70.596,144.084 72.568,143.901 83.520 L 143.693 96.000 128.000 96.000 L 112.307 96.000 112.099 83.520 C 111.916 72.568,111.778 70.596,110.968 67.413 C 107.799 54.956,98.097 44.940,85.744 41.374 C 82.594 40.465,73.749 39.887,70.613 40.385 M81.280 56.820 C 85.394 57.860,90.481 61.596,92.790 65.271 C 93.309 66.097,94.187 67.925,94.743 69.333 C 95.703 71.769,95.760 72.477,95.911 83.947 L 96.069 96.000 85.176 96.000 C 78.895 96.000,73.324 95.801,72.021 95.530 C 61.949 93.436,54.894 83.442,56.332 73.305 C 57.256 66.787,61.444 60.995,67.251 58.202 C 71.820 56.004,76.308 55.562,81.280 56.820 M182.803 56.338 C 191.440 57.587,198.431 64.570,199.648 73.165 C 201.103 83.433,194.102 93.425,183.979 95.530 C 182.676 95.801,177.105 96.000,170.824 96.000 L 159.931 96.000 160.089 83.947 C 160.240 72.477,160.297 71.769,161.257 69.333 C 162.603 65.920,163.744 64.173,166.224 61.728 C 169.363 58.633,174.367 56.442,179.413 55.952 C 179.648 55.929,181.173 56.103,182.803 56.338 M143.787 128.213 L 143.787 144.213 128.000 144.213 L 112.213 144.213 112.213 128.213 L 112.213 112.213 128.000 112.213 L 143.787 112.213 143.787 128.213 M96.000 170.608 C 96.000 182.500,95.744 184.535,93.709 188.800 C 87.991 200.783,71.994 203.564,62.249 194.270 C 55.985 188.295,54.388 179.172,58.226 171.294 C 60.576 166.470,64.320 163.120,69.334 161.356 C 72.874 160.110,72.719 160.123,85.013 160.058 L 96.000 160.000 96.000 170.608 M186.667 161.257 C 191.884 163.314,195.452 166.537,197.781 171.294 C 206.070 188.226,188.254 206.037,171.294 197.774 C 166.543 195.460,163.316 191.888,161.257 186.667 C 160.297 184.230,160.241 183.525,160.089 172.018 L 159.930 159.930 172.018 160.089 C 183.525 160.241,184.230 160.297,186.667 161.257 " stroke="none" fill-rule="evenodd"></path></svg>