<svg fill="currentColor" viewBox="0 0 256 256" xmlns="http://www.w3.org/2000/svg"><path d="M120.960 24.313 C 100.810 25.632,81.578 32.851,64.891 45.360 C 59.554 49.360,49.234 59.686,45.276 64.986 C 34.512 79.399,27.973 94.882,25.095 112.768 C 23.886 120.283,23.787 134.307,24.890 141.867 C 27.542 160.046,34.293 176.318,45.279 191.014 C 49.299 196.392,59.608 206.701,64.986 210.721 C 79.686 221.710,96.000 228.476,114.133 231.105 C 117.683 231.620,121.936 231.847,128.000 231.847 C 144.598 231.847,158.874 228.583,173.440 221.458 C 184.661 215.968,192.320 210.472,201.396 201.396 C 210.475 192.317,215.974 184.654,221.456 173.440 C 227.379 161.323,230.589 149.359,231.749 135.072 C 232.467 126.230,231.837 123.699,228.343 121.386 C 226.935 120.455,225.931 120.224,221.819 119.885 C 211.145 119.005,202.884 115.329,195.907 108.352 C 188.919 101.364,185.323 93.529,184.158 82.754 C 183.176 73.678,182.115 72.687,172.362 71.737 C 152.481 69.801,137.779 54.612,136.159 34.334 C 135.715 28.783,135.116 27.353,132.460 25.507 C 130.405 24.079,128.134 23.843,120.960 24.313 M120.747 41.305 C 120.747 42.892,122.619 49.400,124.163 53.181 C 129.249 65.632,138.861 76.000,150.972 82.099 C 154.737 83.995,161.716 86.372,165.591 87.078 L 168.409 87.591 168.922 90.409 C 169.628 94.284,172.005 101.263,173.901 105.028 C 180.012 117.163,190.343 126.741,202.819 131.837 C 206.661 133.406,213.114 135.253,214.753 135.253 C 215.524 135.253,215.563 135.463,215.292 138.112 C 214.430 146.524,211.325 157.446,207.491 165.554 C 194.412 193.213,167.361 212.364,137.021 215.445 C 102.957 218.903,70.307 202.527,52.504 173.052 C 41.350 154.587,37.477 131.245,42.011 109.819 C 49.434 74.741,77.577 47.569,112.853 41.420 C 119.124 40.327,120.747 40.304,120.747 41.305 M80.175 96.637 C 77.545 97.482,74.351 100.372,73.116 103.024 C 71.119 107.313,72.037 112.879,75.294 116.231 C 77.800 118.809,79.460 119.569,83.097 119.805 C 86.932 120.054,89.391 119.217,92.064 116.753 C 94.508 114.500,95.638 112.209,95.897 108.978 C 96.578 100.498,88.324 94.019,80.175 96.637 M129.593 112.246 C 123.620 113.671,119.361 119.391,120.036 125.084 C 120.551 129.440,123.250 133.214,127.109 134.976 C 129.796 136.203,134.318 136.205,136.960 134.980 C 142.910 132.220,145.596 125.182,142.981 119.208 C 140.772 114.160,134.734 111.020,129.593 112.246 M88.468 152.479 C 82.728 154.357,78.989 160.450,80.176 165.987 C 81.482 172.075,86.011 175.893,91.926 175.893 C 102.318 175.893,107.733 163.880,100.955 155.862 C 98.395 152.834,92.370 151.202,88.468 152.479 M152.193 160.589 C 146.299 162.787,142.996 168.429,144.202 174.240 C 145.501 180.495,150.674 184.314,157.148 183.794 C 161.419 183.451,164.701 181.232,166.724 177.318 C 167.643 175.540,167.847 174.567,167.848 171.947 C 167.849 168.504,167.133 166.564,164.871 163.876 C 162.266 160.780,156.023 159.161,152.193 160.589 " stroke="none" fill-rule="evenodd"></path></svg>