<svg fill="currentColor" viewBox="0 0 256 256" xmlns="http://www.w3.org/2000/svg"><path d="M100.480 16.924 C 98.503 17.968,97.654 18.839,96.802 20.693 C 96.123 22.172,96.017 23.579,96.009 31.239 L 96.000 40.077 73.920 40.199 L 51.840 40.320 49.493 41.434 C 46.013 43.085,43.348 45.670,41.722 48.973 L 40.320 51.820 40.199 73.910 L 40.077 96.000 31.239 96.009 C 21.287 96.020,19.856 96.344,17.788 99.055 C 16.731 100.441,15.698 103.693,15.998 104.693 C 16.077 104.957,16.257 105.698,16.397 106.339 C 16.714 107.787,18.892 110.313,20.650 111.272 C 21.747 111.870,23.525 112.019,31.045 112.140 L 40.117 112.287 40.005 128.143 L 39.893 144.000 30.507 144.213 C 24.303 144.354,20.814 144.602,20.219 144.944 C 18.803 145.755,16.678 148.379,16.397 149.661 C 16.257 150.302,16.077 151.043,15.998 151.307 C 15.698 152.307,16.731 155.559,17.788 156.945 C 19.856 159.656,21.287 159.980,31.239 159.991 L 40.077 160.000 40.199 182.080 L 40.320 204.160 41.455 206.581 C 43.044 209.971,45.666 212.649,49.005 214.293 L 51.820 215.680 73.910 215.801 L 96.000 215.923 96.009 224.761 C 96.020 234.713,96.344 236.144,99.055 238.212 C 100.441 239.269,103.693 240.302,104.693 240.002 C 104.957 239.923,105.698 239.743,106.339 239.603 C 107.787 239.286,110.313 237.108,111.272 235.350 C 111.870 234.253,112.019 232.475,112.140 224.960 L 112.287 215.893 128.000 215.893 L 143.713 215.893 143.860 224.960 C 143.981 232.475,144.130 234.253,144.728 235.350 C 145.687 237.108,148.213 239.286,149.661 239.603 C 150.302 239.743,151.043 239.923,151.307 240.002 C 152.307 240.302,155.559 239.269,156.945 238.212 C 159.656 236.144,159.980 234.713,159.991 224.761 L 160.000 215.923 182.080 215.801 L 204.160 215.680 206.581 214.545 C 209.971 212.956,212.649 210.334,214.293 206.995 L 215.680 204.180 215.801 182.090 L 215.923 160.000 224.761 159.991 C 234.713 159.980,236.144 159.656,238.212 156.945 C 239.269 155.559,240.302 152.307,240.002 151.307 C 239.923 151.043,239.743 150.302,239.603 149.661 C 239.322 148.379,237.197 145.755,235.781 144.944 C 235.186 144.602,231.697 144.354,225.493 144.213 L 216.107 144.000 215.995 128.143 L 215.883 112.287 224.955 112.140 C 232.475 112.019,234.253 111.870,235.350 111.272 C 237.108 110.313,239.286 107.787,239.603 106.339 C 239.743 105.698,239.923 104.957,240.002 104.693 C 240.302 103.693,239.269 100.441,238.212 99.055 C 236.144 96.344,234.713 96.020,224.761 96.009 L 215.923 96.000 215.801 73.910 L 215.680 51.820 214.278 48.973 C 212.652 45.670,209.987 43.085,206.507 41.434 L 204.160 40.320 182.080 40.199 L 160.000 40.077 160.000 31.332 C 160.000 22.221,159.741 20.609,157.957 18.637 C 156.667 17.210,154.168 16.213,151.882 16.213 C 149.472 16.213,148.429 16.626,146.629 18.292 C 144.151 20.586,144.019 21.190,143.860 31.040 L 143.713 40.107 128.000 40.107 L 112.287 40.107 112.140 31.040 C 112.020 23.604,111.867 21.743,111.288 20.693 C 110.357 19.004,108.450 17.231,106.959 16.667 C 105.222 16.011,101.963 16.140,100.480 16.924 M199.893 128.000 L 199.893 199.893 128.000 199.893 L 56.107 199.893 55.997 128.427 C 55.937 89.120,55.979 56.719,56.091 56.425 C 56.253 55.999,70.878 55.913,128.094 55.999 L 199.893 56.107 199.893 128.000 M100.338 96.916 C 99.257 97.451,98.018 98.544,97.352 99.551 L 96.213 101.271 96.213 128.000 L 96.213 154.729 97.359 156.459 C 98.048 157.502,99.247 158.550,100.373 159.095 C 102.215 159.987,102.624 160.000,128.000 160.000 C 153.376 160.000,153.785 159.987,155.627 159.095 C 156.753 158.550,157.952 157.502,158.641 156.459 L 159.787 154.729 159.787 128.000 L 159.787 101.271 158.641 99.541 C 157.952 98.498,156.753 97.450,155.627 96.905 C 153.785 96.013,153.376 96.000,127.972 96.000 C 102.468 96.001,102.166 96.011,100.338 96.916 M143.787 128.213 L 143.787 144.213 128.000 144.213 L 112.213 144.213 112.213 128.213 L 112.213 112.213 128.000 112.213 L 143.787 112.213 143.787 128.213 " stroke="none" fill-rule="evenodd"></path></svg>