<svg fill="currentColor" viewBox="0 0 256 256" xmlns="http://www.w3.org/2000/svg"><path d="M52.693 40.814 C 50.470 41.984,49.067 43.630,48.413 45.833 C 47.135 50.137,45.799 48.269,80.004 90.027 L 110.935 127.787 94.156 128.000 L 77.376 128.213 75.646 129.359 C 72.601 131.375,71.264 135.824,72.683 139.220 C 73.561 141.322,75.980 143.205,78.494 143.744 C 79.905 144.047,87.642 144.213,100.288 144.213 L 119.893 144.213 119.893 152.107 L 119.893 160.000 99.121 160.000 C 78.826 160.000,78.307 160.021,76.480 160.905 C 73.063 162.559,71.265 167.038,72.508 170.802 C 73.243 173.031,75.833 175.173,78.478 175.741 C 79.909 176.048,87.556 176.213,100.288 176.213 L 119.893 176.213 119.893 196.707 C 119.893 214.239,119.989 217.429,120.554 218.781 C 123.408 225.612,132.592 225.612,135.446 218.781 C 136.011 217.429,136.107 214.241,136.107 196.726 L 136.107 176.251 156.907 176.126 C 176.727 176.006,177.786 175.960,179.386 175.147 C 180.310 174.677,181.654 173.556,182.373 172.654 C 183.539 171.190,183.680 170.705,183.680 168.143 C 183.680 164.561,182.373 162.286,179.520 160.905 C 177.693 160.021,177.174 160.000,156.879 160.000 L 136.107 160.000 136.107 152.126 L 136.107 144.251 156.907 144.126 C 176.727 144.006,177.786 143.960,179.386 143.147 C 180.310 142.677,181.638 141.575,182.337 140.698 C 185.029 137.320,184.066 131.817,180.354 129.359 L 178.624 128.213 161.844 128.000 L 145.065 127.787 175.996 90.027 C 210.201 48.269,208.865 50.137,207.587 45.833 C 206.588 42.467,203.481 40.107,200.049 40.107 C 195.925 40.107,197.250 38.655,161.479 82.368 C 143.245 104.649,128.178 122.880,127.998 122.880 C 127.741 122.880,76.358 60.419,64.096 45.202 C 61.073 41.450,58.880 40.097,55.865 40.124 C 54.825 40.133,53.397 40.444,52.693 40.814 " stroke="none" fill-rule="evenodd"></path></svg>