<svg fill="currentColor" viewBox="0 0 256 256" xmlns="http://www.w3.org/2000/svg"><path d="M52.693 48.710 C 51.484 49.377,49.502 51.262,48.963 52.257 C 46.876 56.111,48.647 61.369,52.644 63.184 C 54.337 63.953,57.028 63.981,128.000 63.981 C 198.972 63.981,201.663 63.953,203.356 63.184 C 207.353 61.369,209.124 56.111,207.037 52.257 C 206.340 50.970,204.300 49.174,202.959 48.667 C 201.231 48.014,53.878 48.056,52.693 48.710 M54.339 88.297 C 48.921 89.602,46.440 95.476,49.337 100.141 C 50.080 101.337,51.230 102.460,52.267 103.001 C 53.949 103.881,54.439 103.895,86.933 104.008 L 119.893 104.122 119.893 160.661 C 119.893 210.728,119.969 217.382,120.554 218.781 C 123.408 225.612,132.592 225.612,135.446 218.781 C 136.031 217.382,136.107 210.728,136.107 160.661 L 136.107 104.122 169.067 104.008 C 201.561 103.895,202.051 103.881,203.733 103.001 C 209.141 100.175,209.226 92.228,203.882 89.169 L 202.027 88.107 128.853 88.041 C 88.608 88.004,55.077 88.120,54.339 88.297 " stroke="none" fill-rule="evenodd"></path></svg>