<svg fill="currentColor" viewBox="0 0 256 256" xmlns="http://www.w3.org/2000/svg"><path d="M123.679 17.436 C 120.404 19.513,120.128 20.524,119.977 30.988 L 119.847 40.003 112.084 40.216 C 105.561 40.394,103.653 40.603,100.148 41.526 C 95.728 42.689,89.615 45.379,85.697 47.885 C 70.148 57.832,61.479 77.591,64.660 95.836 C 66.513 106.461,71.180 115.189,79.029 122.712 C 85.581 128.991,92.776 132.818,102.346 135.113 C 104.696 135.677,109.638 135.840,131.627 136.078 C 157.747 136.360,158.118 136.376,161.067 137.351 C 174.471 141.780,183.029 152.725,183.782 166.401 C 184.098 172.120,183.163 176.486,180.408 182.170 C 178.509 186.087,177.767 187.107,174.349 190.513 C 171.078 193.771,169.804 194.712,166.400 196.385 C 159.045 200.002,160.237 199.893,127.787 199.893 C 99.376 199.893,99.180 199.887,95.876 198.930 C 82.493 195.051,73.179 183.931,72.283 170.762 C 72.144 168.715,71.839 166.411,71.605 165.642 C 70.676 162.588,67.201 160.019,64.000 160.019 C 61.979 160.019,59.298 161.300,57.939 162.915 C 56.176 165.010,55.747 166.892,56.083 171.049 C 57.077 183.355,61.941 193.812,70.649 202.364 C 76.365 207.978,84.091 212.360,92.042 214.498 C 95.969 215.555,96.906 215.630,108.030 215.792 L 119.847 215.963 119.977 224.995 C 120.128 235.499,120.420 236.526,123.859 238.663 C 127.736 241.071,132.925 239.707,135.001 235.733 C 135.810 234.187,135.905 233.181,136.023 224.995 L 136.153 215.963 147.970 215.792 C 159.094 215.630,160.031 215.555,163.958 214.498 C 179.623 210.286,192.502 198.253,197.526 183.136 C 201.514 171.140,200.660 158.758,195.033 146.987 C 188.672 133.680,176.113 123.996,161.216 120.911 C 158.174 120.281,153.883 120.132,131.840 119.891 C 103.403 119.579,104.497 119.682,98.292 116.736 C 82.115 109.054,75.532 89.691,83.625 73.600 C 86.739 67.408,92.085 62.210,98.393 59.243 C 104.978 56.145,105.294 56.111,127.787 56.109 C 150.679 56.106,151.608 56.211,158.213 59.536 C 168.601 64.766,174.650 73.754,175.775 85.633 C 176.238 90.514,176.954 92.483,178.844 94.074 C 181.938 96.678,186.257 96.558,189.265 93.786 C 192.132 91.143,192.639 87.883,191.349 80.376 C 188.693 64.916,179.269 52.181,165.333 45.217 C 157.787 41.447,153.655 40.482,143.916 40.216 L 136.153 40.003 136.023 30.988 C 135.910 23.108,135.790 21.765,135.071 20.316 C 133.104 16.353,127.586 14.958,123.679 17.436 " stroke="none" fill-rule="evenodd"></path></svg>