<svg fill="currentColor" viewBox="0 0 256 256" xmlns="http://www.w3.org/2000/svg"><path d="M74.027 16.844 C 64.920 19.331,58.463 26.130,56.526 35.270 C 55.590 39.688,55.599 216.340,56.535 220.800 C 58.439 229.867,65.561 237.182,74.667 239.423 C 78.131 240.275,177.869 240.275,181.333 239.423 C 190.439 237.182,197.561 229.867,199.465 220.800 C 200.407 216.312,200.409 39.685,199.467 35.237 C 197.751 27.136,192.313 20.737,184.481 17.601 L 181.547 16.427 128.853 16.344 C 85.451 16.276,75.784 16.364,74.027 16.844 M178.987 32.809 C 180.973 33.729,182.794 35.547,183.440 37.254 C 184.076 38.940,184.078 217.054,183.441 218.746 C 182.766 220.540,180.073 223.101,178.362 223.576 C 176.271 224.157,79.687 224.145,77.595 223.564 C 75.617 223.015,72.676 219.882,72.332 217.958 C 72.191 217.175,72.131 176.199,72.198 126.902 L 72.320 37.271 73.387 35.695 C 74.006 34.780,75.339 33.674,76.564 33.059 L 78.674 32.000 127.977 32.009 C 175.056 32.018,177.357 32.054,178.987 32.809 M125.503 48.241 C 121.656 49.007,118.039 52.177,116.619 56.028 C 115.900 57.980,115.946 61.826,116.716 64.088 C 117.610 66.709,119.948 69.339,122.608 70.714 C 124.409 71.644,125.371 71.847,128.000 71.847 C 130.629 71.847,131.591 71.644,133.392 70.714 C 142.056 66.236,142.140 53.668,133.534 49.424 C 130.859 48.105,128.174 47.709,125.503 48.241 " stroke="none" fill-rule="evenodd"></path></svg>