<svg fill="currentColor" viewBox="0 0 256 256" xmlns="http://www.w3.org/2000/svg"><path d="M58.699 32.448 C 47.861 34.285,37.934 42.409,34.154 52.536 C 31.940 58.465,32.015 55.822,32.007 127.911 C 31.999 201.370,31.885 197.871,34.492 204.277 C 37.558 211.811,44.189 218.442,51.723 221.508 C 58.127 224.114,54.644 224.000,128.000 224.000 C 201.341 224.000,197.878 224.113,204.263 221.513 C 211.733 218.471,218.471 211.733,221.513 204.263 C 224.113 197.878,224.000 201.341,224.000 128.000 C 224.000 54.644,224.114 58.127,221.508 51.723 C 218.658 44.721,212.947 38.748,205.827 35.325 C 198.820 31.956,205.774 32.243,129.280 32.163 C 91.616 32.124,59.854 32.252,58.699 32.448 M198.827 49.644 C 201.977 51.277,204.588 53.860,206.223 56.960 L 207.573 59.520 207.573 128.000 L 207.573 196.480 206.231 199.047 C 204.653 202.065,201.603 205.059,198.613 206.526 L 196.480 207.573 128.000 207.573 L 59.520 207.573 57.387 206.526 C 54.397 205.059,51.347 202.065,49.769 199.047 L 48.427 196.480 48.427 128.000 L 48.427 59.520 49.644 57.173 C 51.738 53.135,55.547 49.902,59.733 48.611 C 60.320 48.429,91.328 48.314,128.640 48.354 L 196.480 48.427 198.827 49.644 M124.584 116.427 C 121.540 117.425,118.553 120.000,117.103 122.877 C 115.967 125.128,115.770 129.695,116.702 132.136 C 117.627 134.556,120.299 137.554,122.647 138.804 C 124.025 139.538,125.106 139.723,128.000 139.723 C 132.172 139.723,133.995 138.986,136.593 136.249 C 139.181 133.523,139.726 132.088,139.726 128.000 C 139.726 123.912,139.181 122.477,136.593 119.751 C 134.296 117.330,132.134 116.368,128.640 116.211 C 126.997 116.137,125.172 116.234,124.584 116.427 " stroke="none" fill-rule="evenodd"></path></svg>