<svg fill="currentColor" viewBox="0 0 256 256" xmlns="http://www.w3.org/2000/svg"><path d="M120.960 24.326 C 100.935 25.586,81.587 32.844,64.891 45.360 C 59.554 49.360,49.234 59.686,45.276 64.986 C 34.512 79.399,27.973 94.882,25.095 112.768 C 23.886 120.283,23.787 134.307,24.890 141.867 C 27.542 160.046,34.293 176.318,45.279 191.014 C 49.299 196.392,59.608 206.701,64.986 210.721 C 79.686 221.710,96.000 228.476,114.133 231.105 C 117.683 231.620,121.936 231.847,128.000 231.847 C 144.598 231.847,158.874 228.583,173.440 221.458 C 184.661 215.968,192.320 210.472,201.396 201.396 C 210.475 192.317,215.974 184.654,221.456 173.440 C 235.707 144.287,235.458 110.173,220.780 81.026 C 214.698 68.950,203.517 55.194,193.067 46.931 C 172.349 30.550,147.221 22.673,120.960 24.326 M142.720 41.345 C 152.196 43.110,158.941 45.327,167.197 49.392 C 172.310 51.909,179.532 56.484,182.400 59.022 L 184.107 60.533 167.120 77.548 L 150.134 94.563 146.095 92.481 C 140.135 89.408,135.134 88.208,128.213 88.191 C 121.313 88.174,116.821 89.181,110.723 92.112 C 105.606 94.572,102.060 97.179,98.442 101.143 C 86.029 114.744,84.547 135.090,94.855 150.400 C 100.271 158.445,108.989 164.540,118.485 166.920 C 123.846 168.264,132.664 168.240,137.813 166.868 C 151.657 163.177,162.222 152.951,166.397 139.200 L 167.336 136.107 191.402 136.107 C 214.763 136.107,215.467 136.130,215.467 136.918 C 215.467 137.364,215.086 139.953,214.622 142.671 C 211.490 160.992,203.124 177.095,189.882 190.294 C 172.522 207.598,149.456 216.624,124.800 215.764 C 84.504 214.357,50.834 186.209,42.055 146.591 C 40.425 139.232,39.963 133.816,40.233 125.227 C 40.573 114.432,42.198 106.187,45.871 96.632 C 57.684 65.899,85.140 44.606,118.187 40.551 C 123.531 39.895,137.333 40.342,142.720 41.345 M197.607 74.347 C 206.688 85.730,213.417 102.150,215.268 117.444 L 215.566 119.900 191.322 119.790 L 167.079 119.680 166.474 117.203 C 166.142 115.840,164.872 112.768,163.653 110.376 L 161.437 106.027 178.317 89.067 C 187.600 79.739,195.336 72.107,195.508 72.107 C 195.680 72.107,196.624 73.115,197.607 74.347 M136.159 105.516 C 143.085 108.142,147.753 112.784,150.498 119.774 C 151.513 122.360,151.634 123.233,151.634 128.000 C 151.634 132.767,151.513 133.640,150.498 136.226 C 146.693 145.916,138.109 151.893,128.000 151.893 C 117.891 151.893,109.307 145.916,105.502 136.226 C 104.487 133.640,104.366 132.767,104.366 128.000 C 104.366 123.262,104.490 122.351,105.477 119.841 C 108.646 111.779,114.974 106.273,123.093 104.514 C 126.301 103.818,133.047 104.336,136.159 105.516 " stroke="none" fill-rule="evenodd"></path></svg>