<svg fill="currentColor" viewBox="0 0 256 256" xmlns="http://www.w3.org/2000/svg"><path d="M120.960 24.326 C 100.935 25.586,81.587 32.844,64.891 45.360 C 59.554 49.360,49.234 59.686,45.276 64.986 C 34.512 79.399,27.973 94.882,25.095 112.768 C 23.886 120.283,23.787 134.307,24.890 141.867 C 27.542 160.046,34.293 176.318,45.279 191.014 C 49.299 196.392,59.608 206.701,64.986 210.721 C 79.686 221.710,96.000 228.476,114.133 231.105 C 117.683 231.620,121.936 231.847,128.000 231.847 C 144.598 231.847,158.874 228.583,173.440 221.458 C 184.661 215.968,192.320 210.472,201.396 201.396 C 210.475 192.317,215.974 184.654,221.456 173.440 C 235.707 144.287,235.458 110.173,220.780 81.026 C 214.698 68.950,203.517 55.194,193.067 46.931 C 172.349 30.550,147.221 22.673,120.960 24.326 M136.870 40.549 C 171.639 44.258,200.534 67.488,211.419 100.480 C 224.378 139.761,208.166 182.761,172.459 203.815 C 152.624 215.510,127.989 218.917,105.654 213.052 C 83.649 207.274,64.445 192.822,52.504 173.052 C 44.609 159.983,40.107 143.620,40.107 128.000 C 40.107 90.362,64.333 56.637,99.918 44.739 C 111.860 40.747,124.883 39.270,136.870 40.549 M123.084 73.113 C 120.310 74.405,118.303 76.444,116.996 79.298 C 116.099 81.256,115.976 82.039,116.147 84.696 C 116.381 88.347,117.605 90.803,120.367 93.168 C 126.048 98.030,134.610 96.410,138.523 89.732 C 140.219 86.839,140.423 82.398,139.004 79.298 C 136.912 74.727,132.910 72.115,128.000 72.115 C 125.988 72.115,124.638 72.389,123.084 73.113 M124.584 116.427 C 121.540 117.425,118.553 120.000,117.103 122.877 C 115.967 125.128,115.770 129.695,116.702 132.136 C 117.627 134.556,120.299 137.554,122.647 138.804 C 124.025 139.538,125.106 139.723,128.000 139.723 C 132.172 139.723,133.995 138.986,136.593 136.249 C 139.181 133.523,139.726 132.088,139.726 128.000 C 139.726 123.912,139.181 122.477,136.593 119.751 C 134.296 117.330,132.134 116.368,128.640 116.211 C 126.997 116.137,125.172 116.234,124.584 116.427 M123.898 160.690 C 121.598 161.505,118.887 163.860,117.477 166.268 C 115.781 169.161,115.577 173.602,116.996 176.702 C 121.414 186.351,134.586 186.351,139.004 176.702 C 140.423 173.602,140.219 169.161,138.523 166.268 C 135.486 161.085,129.365 158.751,123.898 160.690 " stroke="none" fill-rule="evenodd"></path></svg>