<svg fill="currentColor" viewBox="0 0 256 256" xmlns="http://www.w3.org/2000/svg"><path d="M120.865 16.832 C 109.684 19.373,100.804 27.797,97.219 39.264 C 95.782 43.862,95.782 52.138,97.219 56.736 C 102.775 74.508,120.511 83.896,138.026 78.334 C 147.830 75.220,155.496 67.243,158.781 56.736 C 160.205 52.178,160.200 43.898,158.769 39.253 C 155.482 28.586,147.536 20.587,136.937 17.277 C 133.739 16.278,124.434 16.020,120.865 16.832 M135.115 33.915 C 138.608 35.642,140.753 37.826,142.453 41.387 C 143.431 43.435,143.573 44.275,143.573 48.000 C 143.573 51.739,143.432 52.569,142.426 54.714 C 138.646 62.781,128.941 66.153,120.813 62.223 C 118.089 60.906,114.950 57.650,113.574 54.714 C 112.568 52.569,112.427 51.739,112.427 48.000 C 112.427 44.275,112.569 43.435,113.547 41.387 C 115.112 38.107,117.268 35.795,120.231 34.215 C 123.591 32.424,125.480 31.996,129.058 32.213 C 131.375 32.353,132.718 32.731,135.115 33.915 M122.699 96.423 C 115.497 97.729,108.336 101.869,103.498 107.524 C 95.861 116.452,93.932 129.071,98.492 140.277 C 101.558 147.811,108.189 154.442,115.723 157.508 C 127.881 162.456,141.348 159.769,150.559 150.559 C 162.541 138.577,163.146 119.596,151.952 106.880 C 148.234 102.656,141.615 98.553,136.067 97.033 C 133.235 96.257,125.548 95.906,122.699 96.423 M134.827 113.672 C 137.955 115.256,140.578 117.841,142.223 120.960 C 143.491 123.363,143.573 123.794,143.573 128.000 C 143.573 132.196,143.488 132.643,142.231 135.047 C 140.653 138.065,137.603 141.059,134.613 142.526 C 132.760 143.436,131.892 143.573,128.000 143.573 C 124.108 143.573,123.240 143.436,121.387 142.526 C 118.397 141.059,115.347 138.065,113.769 135.047 C 112.512 132.643,112.427 132.196,112.427 128.000 C 112.427 123.907,112.532 123.317,113.644 121.173 C 115.217 118.140,117.851 115.410,120.533 114.034 C 123.762 112.378,124.483 112.229,128.640 112.361 C 131.845 112.463,132.868 112.680,134.827 113.672 M120.865 176.832 C 109.684 179.373,100.804 187.797,97.219 199.264 C 95.782 203.862,95.782 212.138,97.219 216.736 C 102.775 234.508,120.511 243.896,138.026 238.334 C 147.830 235.220,155.496 227.243,158.781 216.736 C 160.205 212.178,160.200 203.898,158.769 199.253 C 155.482 188.586,147.536 180.587,136.937 177.277 C 133.739 176.278,124.434 176.020,120.865 176.832 M135.115 193.915 C 138.608 195.642,140.753 197.826,142.453 201.387 C 143.431 203.435,143.573 204.275,143.573 208.000 C 143.573 211.739,143.432 212.569,142.426 214.714 C 141.050 217.650,137.911 220.906,135.187 222.223 C 127.059 226.153,117.354 222.781,113.574 214.714 C 112.568 212.569,112.427 211.739,112.427 208.000 C 112.427 204.275,112.569 203.435,113.547 201.387 C 115.112 198.107,117.268 195.795,120.231 194.215 C 123.591 192.424,125.480 191.996,129.058 192.213 C 131.375 192.353,132.718 192.731,135.115 193.915 " stroke="none" fill-rule="evenodd"></path></svg>