<svg fill="currentColor" viewBox="0 0 256 256" xmlns="http://www.w3.org/2000/svg"><path d="M57.487 48.235 C 51.730 49.648,48.034 54.332,48.077 60.160 C 48.104 63.746,49.327 66.374,52.151 68.914 C 59.448 75.474,70.791 70.992,71.964 61.084 C 72.862 53.503,64.881 46.420,57.487 48.235 M125.503 48.241 C 121.656 49.007,118.039 52.177,116.619 56.028 C 115.900 57.980,115.946 61.826,116.716 64.088 C 117.610 66.709,119.948 69.339,122.608 70.714 C 124.409 71.644,125.371 71.847,128.000 71.847 C 130.629 71.847,131.591 71.644,133.392 70.714 C 142.056 66.236,142.140 53.668,133.534 49.424 C 130.859 48.105,128.174 47.709,125.503 48.241 M193.593 48.235 C 187.590 49.709,183.362 55.394,184.036 61.084 C 185.209 70.992,196.552 75.474,203.849 68.914 C 206.677 66.371,207.898 63.745,207.919 60.160 C 207.939 56.758,206.715 53.698,204.454 51.495 C 201.660 48.774,197.044 47.388,193.593 48.235 M54.699 117.358 C 50.272 119.570,48.063 123.126,48.047 128.067 C 48.020 136.309,56.144 141.990,64.088 139.284 C 66.709 138.390,69.339 136.052,70.714 133.392 C 72.332 130.262,72.332 125.738,70.714 122.608 C 67.639 116.659,60.669 114.375,54.699 117.358 M124.584 116.427 C 121.540 117.425,118.553 120.000,117.103 122.877 C 115.967 125.128,115.770 129.695,116.702 132.136 C 117.627 134.556,120.299 137.554,122.647 138.804 C 124.025 139.538,125.106 139.723,128.000 139.723 C 132.172 139.723,133.995 138.986,136.593 136.249 C 139.181 133.523,139.726 132.088,139.726 128.000 C 139.726 123.912,139.181 122.477,136.593 119.751 C 134.296 117.330,132.134 116.368,128.640 116.211 C 126.997 116.137,125.172 116.234,124.584 116.427 M191.738 116.743 C 189.280 117.615,186.623 120.026,185.274 122.608 C 184.327 124.419,184.128 125.357,184.128 128.000 C 184.128 130.643,184.327 131.581,185.274 133.392 C 189.847 142.145,202.216 142.143,206.694 133.388 C 207.731 131.361,207.961 130.388,207.953 128.067 C 207.937 123.126,205.728 119.570,201.301 117.358 C 198.323 115.870,194.834 115.645,191.738 116.743 M56.260 184.537 C 53.704 185.357,50.284 188.443,49.058 191.035 C 47.039 195.306,48.122 201.168,51.546 204.505 C 55.059 207.927,60.710 208.954,64.965 206.942 C 67.816 205.594,70.663 202.295,71.520 199.347 C 74.170 190.232,65.310 181.633,56.260 184.537 M125.227 184.269 C 121.344 185.294,117.925 188.364,116.716 191.912 C 114.730 197.741,117.196 203.924,122.612 206.694 C 132.216 211.605,142.797 202.224,139.284 191.912 C 138.398 189.314,136.051 186.656,133.500 185.363 C 131.252 184.224,127.352 183.708,125.227 184.269 M192.087 184.702 C 189.030 185.758,186.901 187.574,185.483 190.335 C 183.036 195.101,183.616 199.989,187.086 203.849 C 189.629 206.677,192.255 207.898,195.840 207.919 C 202.752 207.959,207.974 202.739,207.923 195.840 C 207.896 192.257,206.673 189.626,203.856 187.093 C 200.428 184.011,196.436 183.200,192.087 184.702 " stroke="none" fill-rule="evenodd"></path></svg>