<svg fill="currentColor" viewBox="0 0 256 256" xmlns="http://www.w3.org/2000/svg"><path d="M124.800 32.806 C 122.735 33.760,121.435 35.110,120.554 37.219 C 119.977 38.599,119.893 42.944,119.893 71.439 L 119.893 104.079 102.439 104.200 L 84.985 104.320 83.346 105.627 C 80.321 108.040,79.173 112.423,80.775 115.444 C 81.925 117.612,123.324 158.609,125.106 159.345 C 127.118 160.176,128.882 160.176,130.894 159.345 C 132.676 158.609,174.075 117.612,175.225 115.444 C 176.827 112.423,175.679 108.040,172.654 105.627 L 171.015 104.320 153.561 104.200 L 136.107 104.079 136.097 71.346 C 136.088 40.435,136.044 38.518,135.300 36.907 C 133.370 32.725,128.823 30.949,124.800 32.806 M138.346 130.239 L 128.000 140.584 117.654 130.239 L 107.309 119.893 128.000 119.893 L 148.691 119.893 138.346 130.239 M36.480 144.922 C 34.469 145.983,33.356 147.186,32.637 149.078 C 32.053 150.613,31.987 154.550,32.093 181.333 L 32.213 211.840 33.407 214.400 C 34.974 217.760,38.261 221.060,41.555 222.583 L 44.160 223.787 128.000 223.787 L 211.840 223.787 214.400 222.593 C 217.760 221.026,221.060 217.739,222.583 214.445 L 223.787 211.840 223.916 181.547 C 224.003 161.217,223.898 150.746,223.596 149.711 C 222.612 146.332,219.639 144.213,215.882 144.213 C 213.472 144.213,212.429 144.626,210.629 146.292 C 207.863 148.851,208.012 147.078,207.879 179.093 L 207.758 208.213 128.000 208.213 L 48.242 208.213 48.121 179.093 C 48.012 152.898,47.929 149.845,47.291 148.693 C 46.355 147.002,44.448 145.230,42.959 144.667 C 41.224 144.012,37.964 144.140,36.480 144.922 " stroke="none" fill-rule="evenodd"></path></svg>