<svg fill="currentColor" viewBox="0 0 256 256" xmlns="http://www.w3.org/2000/svg"><path d="M124.525 8.863 C 120.213 11.116,103.981 24.907,94.522 34.354 C 64.501 64.339,46.178 96.565,41.156 128.213 C 40.231 134.040,39.862 148.059,40.492 153.415 C 43.628 180.087,57.723 203.025,80.000 217.713 C 95.554 227.969,116.019 233.263,134.293 231.758 C 177.207 228.225,210.486 196.123,215.508 153.415 C 216.221 147.354,215.774 133.878,214.638 127.188 C 208.757 92.544,188.096 58.737,152.960 26.267 C 147.801 21.500,138.976 14.201,134.298 10.833 C 131.263 8.648,130.599 8.348,128.476 8.208 C 126.714 8.092,125.669 8.266,124.525 8.863 M119.699 215.377 C 119.246 215.829,110.747 213.961,105.600 212.277 C 80.331 204.014,61.789 182.572,57.113 156.207 C 55.985 149.847,55.905 138.143,56.943 131.200 C 60.697 106.072,73.855 80.930,96.468 55.680 C 101.516 50.042,110.956 40.604,116.267 35.885 L 119.680 32.851 119.788 124.016 C 119.847 174.156,119.807 215.269,119.699 215.377 M150.214 46.068 C 178.607 74.405,194.824 102.814,199.054 131.627 C 199.882 137.265,199.999 148.517,199.283 153.600 C 195.446 180.828,176.533 203.605,150.613 212.214 C 146.505 213.578,142.635 214.505,137.920 215.254 L 136.107 215.542 136.107 124.154 L 136.107 32.765 139.200 35.464 C 140.901 36.948,145.858 41.720,150.214 46.068 " stroke="none" fill-rule="evenodd"></path></svg>