<svg fill="currentColor" viewBox="0 0 256 256" xmlns="http://www.w3.org/2000/svg"><path d="M122.632 32.633 C 118.988 33.425,114.201 35.955,111.443 38.546 C 108.182 41.608,36.322 117.130,34.883 119.007 C 33.417 120.919,32.000 125.324,32.000 127.968 C 32.000 134.412,36.246 140.460,42.559 143.009 L 45.013 144.000 128.000 144.000 L 210.987 144.000 213.441 143.009 C 219.754 140.460,224.000 134.412,224.000 127.968 C 224.000 125.324,222.583 120.919,221.117 119.007 C 219.678 117.130,147.818 41.608,144.557 38.546 C 138.900 33.233,130.402 30.942,122.632 32.633 M131.683 48.960 C 132.748 49.464,145.349 62.409,170.410 88.747 L 207.559 127.787 128.243 127.894 C 84.619 127.954,48.845 127.921,48.746 127.821 C 48.365 127.440,122.594 49.867,124.101 49.071 C 126.088 48.021,129.590 47.970,131.683 48.960 M44.265 160.461 C 39.776 161.526,35.661 164.951,33.540 169.387 L 32.213 172.160 32.086 187.055 C 31.966 201.068,32.010 202.116,32.832 204.761 C 34.391 209.779,38.399 213.798,43.323 215.280 C 46.388 216.202,209.612 216.202,212.677 215.280 C 217.601 213.798,221.609 209.779,223.168 204.761 C 223.990 202.116,224.034 201.068,223.914 187.055 L 223.787 172.160 222.583 169.555 C 221.060 166.261,217.760 162.974,214.400 161.407 L 211.840 160.213 128.853 160.147 C 81.512 160.109,45.179 160.244,44.265 160.461 M207.787 188.160 L 207.787 200.107 128.000 200.107 L 48.213 200.107 48.213 188.160 L 48.213 176.213 128.000 176.213 L 207.787 176.213 207.787 188.160 " stroke="none" fill-rule="evenodd"></path></svg>