<svg fill="currentColor" viewBox="0 0 256 256" xmlns="http://www.w3.org/2000/svg"><path d="M27.679 49.436 C 26.519 50.172,25.424 51.318,24.929 52.316 C 24.127 53.933,24.107 55.713,24.107 124.800 L 24.107 195.627 25.461 198.486 C 27.893 203.620,32.228 206.883,37.836 207.802 C 41.187 208.350,214.813 208.350,218.164 207.802 C 223.772 206.883,228.107 203.620,230.539 198.486 L 231.893 195.627 231.893 124.800 C 231.893 55.713,231.873 53.933,231.071 52.316 C 230.576 51.318,229.481 50.172,228.321 49.436 L 226.393 48.213 128.000 48.213 L 29.607 48.213 27.679 49.436 M202.230 65.018 C 196.931 70.124,128.301 132.693,128.000 132.693 C 127.699 132.693,59.069 70.124,53.770 65.018 L 52.713 64.000 128.000 64.000 L 203.287 64.000 202.230 65.018 M69.446 101.167 C 85.341 115.742,98.347 127.817,98.347 128.000 C 98.347 128.350,40.706 181.333,40.326 181.333 C 40.205 181.333,40.107 157.333,40.107 128.000 C 40.107 98.667,40.205 74.667,40.326 74.667 C 40.447 74.667,53.551 86.592,69.446 101.167 M215.893 128.000 C 215.893 157.333,215.795 181.333,215.674 181.333 C 215.294 181.333,157.653 128.350,157.653 128.000 C 157.653 127.611,215.098 74.747,215.573 74.699 C 215.749 74.681,215.893 98.667,215.893 128.000 M117.109 144.894 C 120.567 148.084,124.042 150.964,124.831 151.294 C 126.648 152.053,129.335 152.062,131.107 151.314 C 131.862 150.996,135.328 148.105,138.809 144.891 C 142.290 141.676,145.305 139.105,145.508 139.176 C 145.712 139.248,158.763 151.115,174.511 165.547 L 203.144 191.787 165.572 191.896 C 144.907 191.956,111.077 191.956,90.392 191.896 L 52.785 191.787 81.533 165.440 C 97.344 150.949,110.402 139.093,110.551 139.093 C 110.700 139.093,113.652 141.704,117.109 144.894 " stroke="none" fill-rule="evenodd"></path></svg>