<svg fill="currentColor" viewBox="0 0 256 256" xmlns="http://www.w3.org/2000/svg"><path d="M160.447 32.879 C 153.989 34.570,156.773 31.963,89.778 99.066 C 31.668 157.268,27.791 161.242,26.505 163.931 C 23.893 169.393,23.319 174.683,24.736 180.226 C 26.414 186.784,26.782 187.246,44.983 205.557 C 55.928 216.568,62.237 222.603,63.381 223.157 C 65.096 223.987,66.299 224.000,141.041 223.998 C 190.854 223.996,217.494 223.847,218.512 223.564 C 220.844 222.916,223.432 219.899,223.809 217.389 C 224.351 213.775,222.806 210.634,219.710 209.055 C 218.100 208.234,217.014 208.213,174.637 208.213 L 131.212 208.213 179.475 159.893 C 226.329 112.983,227.782 111.480,229.288 108.373 C 233.135 100.435,232.772 91.478,228.325 84.581 C 227.609 83.469,216.502 72.085,203.644 59.283 C 178.460 34.207,178.710 34.419,172.550 32.844 C 168.436 31.792,164.559 31.803,160.447 32.879 M169.679 48.660 C 171.281 49.255,214.524 92.399,215.296 94.173 C 216.138 96.109,216.038 98.847,215.049 100.879 C 214.488 102.031,205.105 111.709,187.102 129.706 L 159.999 156.798 133.654 130.453 L 107.308 104.107 134.609 76.805 C 149.624 61.788,162.487 49.216,163.194 48.867 C 164.696 48.126,167.961 48.021,169.679 48.660 M122.345 141.759 L 148.480 167.890 128.535 187.839 L 108.590 207.787 89.161 207.787 L 69.731 207.787 55.579 193.593 C 46.191 184.177,41.204 178.868,40.767 177.820 C 39.929 175.815,39.927 173.635,40.761 171.613 C 41.218 170.507,49.654 161.784,68.600 142.827 C 83.551 127.867,95.880 115.627,95.997 115.627 C 96.115 115.627,107.971 127.386,122.345 141.759 " stroke="none" fill-rule="evenodd"></path></svg>