<svg fill="currentColor" viewBox="0 0 256 256" xmlns="http://www.w3.org/2000/svg"><path d="M36.907 32.809 C 34.738 33.813,32.954 35.708,32.418 37.576 C 32.154 38.498,32.000 61.508,32.000 100.171 C 32.000 154.387,32.075 161.486,32.660 162.888 C 33.541 164.996,34.841 166.347,36.907 167.300 C 38.503 168.037,40.210 168.089,63.253 168.097 L 87.893 168.107 87.893 192.654 C 87.893 213.845,87.984 217.417,88.554 218.781 C 89.435 220.890,90.735 222.240,92.800 223.194 C 94.434 223.948,97.117 223.982,155.733 223.988 C 194.519 223.993,217.513 223.842,218.468 223.576 C 220.357 223.052,223.025 220.366,223.579 218.432 C 223.847 217.499,224.000 194.713,224.000 155.829 C 224.000 89.442,224.126 93.081,221.740 90.525 C 219.405 88.025,220.449 88.117,193.173 87.984 L 168.107 87.861 168.097 63.237 C 168.089 40.210,168.037 38.503,167.300 36.907 C 166.347 34.841,164.996 33.541,162.888 32.660 C 161.486 32.075,154.381 32.001,99.960 32.009 C 41.158 32.018,38.543 32.052,36.907 32.809 M151.893 68.053 L 151.893 87.893 123.293 87.893 C 98.444 87.893,94.485 87.980,93.112 88.554 C 91.004 89.435,89.653 90.735,88.700 92.800 C 87.959 94.405,87.912 96.216,87.903 123.200 L 87.893 151.893 68.053 151.893 L 48.213 151.893 48.213 100.053 L 48.213 48.213 100.053 48.213 L 151.893 48.213 151.893 68.053 M151.893 128.000 L 151.893 151.893 128.000 151.893 L 104.107 151.893 104.107 128.000 L 104.107 104.107 128.000 104.107 L 151.893 104.107 151.893 128.000 M207.787 155.947 L 207.787 207.787 155.947 207.787 L 104.107 207.787 104.107 187.947 L 104.107 168.107 132.707 168.107 C 157.556 168.107,161.515 168.020,162.888 167.446 C 164.996 166.565,166.347 165.265,167.300 163.200 C 168.041 161.595,168.088 159.784,168.097 132.800 L 168.107 104.107 187.947 104.107 L 207.787 104.107 207.787 155.947 " stroke="none" fill-rule="evenodd"></path></svg>