<svg fill="currentColor" viewBox="0 0 256 256" xmlns="http://www.w3.org/2000/svg"><path d="M120.960 24.326 C 100.935 25.586,81.587 32.844,64.891 45.360 C 59.554 49.360,49.234 59.686,45.276 64.986 C 34.512 79.399,27.973 94.882,25.095 112.768 C 23.886 120.283,23.787 134.307,24.890 141.867 C 27.542 160.046,34.293 176.318,45.279 191.014 C 49.299 196.392,59.608 206.701,64.986 210.721 C 79.686 221.710,96.000 228.476,114.133 231.105 C 117.683 231.620,121.936 231.847,128.000 231.847 C 144.598 231.847,158.874 228.583,173.440 221.458 C 184.661 215.968,192.320 210.472,201.396 201.396 C 210.475 192.317,215.974 184.654,221.456 173.440 C 235.707 144.287,235.458 110.173,220.780 81.026 C 214.698 68.950,203.517 55.194,193.067 46.931 C 172.349 30.550,147.221 22.673,120.960 24.326 M136.960 40.542 C 176.083 44.601,207.917 74.340,214.596 113.067 C 220.694 148.419,204.635 183.916,173.931 202.955 C 163.863 209.198,150.067 214.026,138.773 215.259 L 136.107 215.550 136.107 183.722 L 136.107 151.893 148.985 151.893 C 163.678 151.893,164.338 151.763,166.672 148.395 C 167.694 146.921,167.893 146.202,167.893 144.000 C 167.893 141.798,167.694 141.079,166.672 139.605 C 164.338 136.236,163.681 136.107,148.964 136.107 L 136.063 136.107 136.192 122.133 L 136.320 108.160 137.640 105.387 C 139.318 101.862,141.969 99.212,145.493 97.534 L 148.267 96.213 159.360 96.000 C 170.964 95.777,171.376 95.710,173.587 93.707 C 177.342 90.304,176.496 83.803,171.951 81.131 L 170.027 80.000 158.933 80.025 C 149.927 80.044,147.283 80.187,144.878 80.784 C 131.916 84.001,122.435 94.169,120.348 107.093 C 120.101 108.619,119.898 115.771,119.897 122.987 L 119.893 136.107 107.015 136.107 C 92.322 136.107,91.662 136.237,89.328 139.605 C 88.306 141.079,88.107 141.798,88.107 144.000 C 88.107 146.202,88.306 146.921,89.328 148.395 C 91.662 151.763,92.322 151.893,107.015 151.893 L 119.893 151.893 119.893 183.722 L 119.893 215.550 117.227 215.259 C 109.250 214.388,97.948 211.103,90.240 207.415 C 71.964 198.669,56.655 183.172,48.123 164.779 C 45.820 159.814,42.956 150.998,41.857 145.493 C 33.995 106.114,53.347 66.850,89.387 49.056 C 97.869 44.868,109.260 41.544,118.449 40.575 C 123.261 40.067,132.232 40.051,136.960 40.542 " stroke="none" fill-rule="evenodd"></path></svg>