<svg fill="currentColor" viewBox="0 0 256 256" xmlns="http://www.w3.org/2000/svg"><path d="M169.847 16.914 C 165.623 18.393,161.512 22.281,160.077 26.154 C 159.544 27.593,157.200 42.771,153.410 69.328 C 150.195 91.854,147.516 110.333,147.456 110.393 C 147.395 110.453,138.387 103.788,127.436 95.580 C 116.485 87.373,107.036 80.535,106.437 80.384 C 104.239 79.833,100.832 80.433,99.230 81.655 C 96.180 83.981,96.237 83.610,96.000 102.694 L 95.787 119.840 70.187 100.631 C 56.107 90.065,44.029 81.129,43.347 80.772 C 42.491 80.324,41.282 80.175,39.451 80.292 C 36.244 80.496,34.045 81.938,32.816 84.644 C 32.049 86.332,32.018 88.743,32.009 147.307 L 32.000 208.213 23.026 208.213 C 12.999 208.213,12.152 208.388,9.934 210.914 C 6.667 214.636,7.979 220.916,12.480 223.095 L 14.349 224.000 128.000 224.000 L 241.651 224.000 243.520 223.095 C 248.021 220.916,249.333 214.636,246.066 210.914 C 243.848 208.388,243.001 208.213,232.974 208.213 L 224.000 208.213 224.000 171.886 L 224.000 135.559 216.546 83.033 C 212.446 54.143,208.786 29.355,208.411 27.947 C 207.081 22.945,203.426 18.904,198.598 17.098 C 196.403 16.276,195.362 16.215,183.984 16.234 C 174.063 16.250,171.375 16.380,169.847 16.914 M199.757 79.147 C 203.453 104.960,206.483 126.512,206.492 127.040 L 206.507 128.000 188.566 128.000 L 170.625 128.000 166.365 124.774 C 162.272 121.674,162.114 121.494,162.345 120.187 C 162.564 118.947,174.933 32.404,174.933 32.110 C 174.933 32.040,179.007 32.035,183.986 32.098 L 193.038 32.213 199.757 79.147 M74.161 123.674 C 88.194 134.201,100.134 143.061,100.695 143.361 C 101.256 143.661,102.694 143.921,103.891 143.939 C 106.774 143.980,109.485 142.420,110.938 139.882 L 112.000 138.027 112.125 121.280 C 112.194 112.069,112.340 104.533,112.449 104.533 C 112.558 104.533,124.129 113.147,138.161 123.674 C 152.194 134.201,164.144 143.081,164.717 143.407 C 165.559 143.886,169.803 144.024,186.773 144.125 L 207.787 144.251 207.787 176.019 L 207.787 207.787 128.000 207.787 L 48.213 207.787 48.213 156.160 C 48.213 127.765,48.311 104.533,48.430 104.533 C 48.550 104.533,60.129 113.147,74.161 123.674 M76.290 168.977 C 75.422 169.435,74.174 170.516,73.516 171.379 C 72.460 172.763,72.320 173.309,72.320 176.034 C 72.320 178.834,72.440 179.269,73.611 180.715 C 76.227 183.948,75.877 183.893,94.096 183.893 L 110.340 183.893 112.282 182.662 C 117.473 179.369,117.133 171.651,111.680 169.012 C 109.875 168.138,109.263 168.107,93.839 168.126 C 78.841 168.143,77.770 168.195,76.290 168.977 M144.348 168.936 C 143.247 169.436,142.120 170.417,141.405 171.497 C 138.862 175.339,139.875 180.224,143.718 182.662 L 145.660 183.893 161.904 183.893 C 180.123 183.893,179.773 183.948,182.389 180.715 C 183.560 179.269,183.680 178.834,183.680 176.034 C 183.680 173.308,183.540 172.763,182.482 171.376 C 181.823 170.512,180.535 169.423,179.619 168.956 C 178.044 168.152,177.098 168.107,162.044 168.116 C 147.337 168.125,145.998 168.187,144.348 168.936 " stroke="none" fill-rule="evenodd"></path></svg>