<svg fill="currentColor" viewBox="0 0 256 256" xmlns="http://www.w3.org/2000/svg"><path d="M100.480 48.924 C 98.503 49.968,97.654 50.839,96.802 52.693 C 96.070 54.288,96.018 56.071,96.009 79.907 C 95.999 107.429,95.977 107.136,98.260 109.581 C 101.765 113.335,108.192 112.504,110.869 107.951 C 111.982 106.058,112.002 105.880,112.143 96.960 L 112.287 87.893 165.022 87.893 L 217.757 87.893 219.627 86.988 C 222.398 85.647,223.787 83.314,223.787 80.000 C 223.787 76.686,222.398 74.353,219.627 73.012 L 217.757 72.107 165.022 72.107 L 112.287 72.107 112.140 63.040 C 112.020 55.604,111.867 53.743,111.288 52.693 C 110.357 51.004,108.450 49.231,106.959 48.667 C 105.222 48.011,101.963 48.140,100.480 48.924 M36.338 73.022 C 33.590 74.383,32.213 76.711,32.213 80.000 C 32.213 83.314,33.602 85.647,36.373 86.988 C 38.187 87.866,38.777 87.893,56.000 87.893 C 67.509 87.893,74.180 87.734,74.959 87.440 C 78.643 86.048,80.631 82.009,79.596 78.020 C 78.975 75.626,77.726 74.096,75.430 72.918 C 73.949 72.159,72.705 72.107,56.017 72.107 C 38.647 72.107,38.139 72.131,36.338 73.022 M165.854 144.409 C 163.438 145.040,161.884 146.358,160.806 148.693 C 160.068 150.293,160.019 152.012,160.019 176.000 C 160.019 200.092,160.066 201.703,160.816 203.356 C 161.255 204.322,162.263 205.607,163.055 206.212 C 164.441 207.269,167.693 208.302,168.693 208.002 C 168.957 207.923,169.698 207.743,170.339 207.603 C 171.787 207.286,174.313 205.108,175.272 203.350 C 175.870 202.253,176.019 200.475,176.140 192.960 L 176.287 183.893 197.022 183.893 C 217.280 183.893,217.800 183.873,219.627 182.988 C 222.398 181.647,223.787 179.314,223.787 176.000 C 223.787 172.686,222.398 170.353,219.627 169.012 C 217.800 168.127,217.280 168.107,197.022 168.107 L 176.287 168.107 176.143 159.040 C 176.002 150.120,175.982 149.942,174.869 148.049 C 172.983 144.841,169.536 143.450,165.854 144.409 M36.338 169.022 C 33.590 170.383,32.213 172.711,32.213 176.000 C 32.213 179.319,33.601 181.646,36.384 182.994 L 38.264 183.904 88.639 183.792 L 139.014 183.680 140.654 182.373 C 142.751 180.701,143.885 178.404,143.885 175.831 C 143.885 172.693,141.817 169.640,138.959 168.560 C 138.135 168.249,122.111 168.107,87.972 168.107 L 38.187 168.107 36.338 169.022 " stroke="none" fill-rule="evenodd"></path></svg>