<svg fill="currentColor" viewBox="0 0 256 256" xmlns="http://www.w3.org/2000/svg"><path d="M37.077 56.313 C 32.033 57.198,27.022 61.262,25.097 66.028 L 24.107 68.480 24.107 128.000 L 24.107 187.520 25.059 189.867 C 28.328 197.926,37.523 201.977,45.554 198.896 C 46.665 198.470,65.553 186.664,87.529 172.661 C 109.505 158.657,127.594 147.200,127.727 147.200 C 127.860 147.200,128.024 156.372,128.091 167.583 L 128.213 187.966 129.610 190.803 C 133.849 199.411,143.977 202.482,152.154 197.639 C 160.592 192.641,242.047 140.401,243.330 139.165 C 244.224 138.304,245.568 136.356,246.317 134.836 C 247.561 132.312,247.680 131.717,247.680 128.000 C 247.680 124.254,247.567 123.700,246.267 121.059 C 245.350 119.195,244.153 117.589,242.854 116.479 C 240.855 114.770,156.524 60.878,151.680 58.214 C 143.355 53.636,133.429 56.926,129.357 65.614 L 128.213 68.053 128.091 88.597 L 127.969 109.141 87.301 83.244 C 64.934 69.000,45.885 57.131,44.970 56.869 C 42.476 56.152,39.279 55.927,37.077 56.313 M84.265 100.273 C 108.061 115.406,127.532 127.883,127.534 128.000 C 127.536 128.117,124.905 129.869,121.689 131.893 C 118.472 133.917,98.800 146.429,77.973 159.698 L 40.107 183.823 40.107 128.143 C 40.107 89.620,40.244 72.508,40.552 72.611 C 40.798 72.693,60.468 85.141,84.265 100.273 M187.938 100.112 C 211.762 115.280,231.253 127.832,231.253 128.004 C 231.253 128.305,144.911 183.467,144.441 183.467 C 144.316 183.467,144.213 158.507,144.213 128.000 C 144.213 97.493,144.306 72.533,144.418 72.533 C 144.531 72.533,164.115 84.944,187.938 100.112 " stroke="none" fill-rule="evenodd"></path></svg>