<svg fill="currentColor" viewBox="0 0 256 256" xmlns="http://www.w3.org/2000/svg"><path d="M120.960 24.326 C 100.935 25.586,81.587 32.844,64.891 45.360 C 59.554 49.360,49.234 59.686,45.276 64.986 C 34.512 79.399,27.973 94.882,25.095 112.768 C 23.886 120.283,23.787 134.307,24.890 141.867 C 27.542 160.046,34.293 176.318,45.279 191.014 C 49.299 196.392,59.608 206.701,64.986 210.721 C 79.686 221.710,96.000 228.476,114.133 231.105 C 117.683 231.620,121.936 231.847,128.000 231.847 C 144.598 231.847,158.874 228.583,173.440 221.458 C 184.661 215.968,192.320 210.472,201.396 201.396 C 210.475 192.317,215.974 184.654,221.456 173.440 C 235.707 144.287,235.458 110.173,220.780 81.026 C 214.698 68.950,203.517 55.194,193.067 46.931 C 172.349 30.550,147.221 22.673,120.960 24.326 M136.870 40.549 C 171.639 44.258,200.534 67.488,211.419 100.480 C 224.378 139.761,208.166 182.761,172.459 203.815 C 152.624 215.510,127.989 218.917,105.654 213.052 C 83.649 207.274,64.445 192.822,52.504 173.052 C 44.609 159.983,40.107 143.620,40.107 128.000 C 40.107 90.362,64.333 56.637,99.918 44.739 C 111.860 40.747,124.883 39.270,136.870 40.549 M78.080 88.192 C 75.633 89.077,74.410 89.975,73.329 91.679 L 72.107 93.607 72.107 127.939 L 72.107 162.272 73.170 164.085 C 74.712 166.718,76.828 167.888,80.050 167.891 L 82.659 167.893 107.863 151.096 C 121.725 141.857,133.440 133.889,133.895 133.389 C 134.350 132.889,135.027 131.904,135.398 131.200 C 136.024 130.012,136.074 131.086,136.090 146.096 L 136.107 162.272 137.170 164.085 C 138.713 166.719,140.827 167.888,144.055 167.891 L 146.670 167.893 172.215 150.827 C 190.275 138.761,198.038 133.340,198.710 132.326 C 200.497 129.626,200.497 126.374,198.710 123.674 C 198.042 122.666,190.603 117.446,173.653 106.093 C 160.395 97.212,148.520 89.461,147.265 88.869 C 143.501 87.093,139.524 88.218,137.329 91.679 L 136.107 93.607 136.090 109.844 C 136.074 124.923,136.024 125.989,135.396 124.800 C 135.024 124.096,134.408 123.157,134.027 122.714 C 133.091 121.626,85.190 89.688,83.007 88.696 C 81.318 87.929,79.360 87.729,78.080 88.192 M101.349 119.904 L 113.593 128.074 101.917 135.856 C 95.494 140.136,89.712 143.982,89.067 144.401 L 87.893 145.165 87.893 128.217 C 87.893 113.753,87.982 111.303,88.499 111.501 C 88.832 111.629,94.615 115.410,101.349 119.904 M165.349 119.904 L 177.593 128.074 165.917 135.856 C 159.494 140.136,153.712 143.982,153.067 144.401 L 151.893 145.165 151.893 128.217 C 151.893 113.753,151.982 111.303,152.499 111.501 C 152.832 111.629,158.615 115.410,165.349 119.904 " stroke="none" fill-rule="evenodd"></path></svg>