<svg fill="currentColor" viewBox="0 0 256 256" xmlns="http://www.w3.org/2000/svg"><path d="M83.627 24.313 C 74.925 25.189,66.241 29.362,59.745 35.791 C 46.190 49.205,44.229 70.650,55.089 86.695 C 56.092 88.175,58.420 90.881,60.265 92.708 L 63.618 96.029 60.264 99.321 C 53.346 106.111,49.401 114.105,48.241 123.681 C 46.679 136.574,52.426 150.706,62.520 158.795 L 65.165 160.915 61.219 164.831 C 59.049 166.984,56.368 170.153,55.262 171.871 C 45.190 187.523,45.743 207.455,56.657 222.128 C 72.982 244.073,104.763 246.109,123.607 226.416 C 129.132 220.641,132.593 214.474,134.727 206.594 L 135.850 202.453 136.007 181.440 C 136.093 169.883,136.243 160.427,136.340 160.427 C 136.437 160.427,137.589 161.112,138.899 161.951 C 142.012 163.942,146.180 165.696,150.643 166.891 C 155.765 168.264,164.235 168.264,169.357 166.891 C 177.334 164.754,183.023 161.462,188.587 155.763 C 192.959 151.284,195.860 146.603,197.790 140.912 C 200.111 134.069,200.602 128.401,199.448 121.763 C 197.901 112.858,194.544 106.302,188.262 99.914 L 184.310 95.896 187.070 93.367 C 195.708 85.452,200.828 72.863,199.951 61.698 C 198.550 43.860,186.689 29.668,169.368 25.105 C 165.774 24.158,165.611 24.154,126.293 24.073 C 104.587 24.027,85.387 24.135,83.627 24.313 M119.893 64.000 L 119.893 87.893 102.507 87.887 C 83.129 87.880,81.844 87.741,76.834 85.108 C 71.584 82.350,66.947 76.764,65.167 71.058 C 63.176 64.674,64.209 56.844,67.761 51.396 C 71.228 46.079,76.671 42.122,82.439 40.725 C 84.069 40.330,89.569 40.169,102.293 40.143 L 119.893 40.107 119.893 64.000 M168.226 41.489 C 175.221 44.267,179.768 48.832,182.523 55.841 C 183.510 58.351,183.634 59.262,183.634 64.000 C 183.634 68.767,183.513 69.640,182.498 72.226 C 180.204 78.069,176.113 82.694,170.955 85.278 C 166.104 87.708,164.599 87.893,149.670 87.893 L 136.107 87.893 136.107 63.970 L 136.107 40.047 150.720 40.194 L 165.333 40.340 168.226 41.489 M119.893 128.021 L 119.893 151.935 101.227 151.807 L 82.560 151.680 79.626 150.505 C 68.953 146.233,62.714 135.634,64.333 124.526 C 65.405 117.167,70.173 110.376,76.649 106.984 C 81.819 104.276,82.667 104.182,102.293 104.142 L 119.893 104.107 119.893 128.021 M165.503 104.763 C 176.073 107.254,183.881 117.127,183.881 128.000 C 183.881 137.986,177.439 147.122,167.986 150.543 C 165.338 151.501,164.219 151.658,160.000 151.658 C 155.781 151.658,154.662 151.501,152.014 150.543 C 142.561 147.122,136.119 137.986,136.119 128.000 C 136.119 112.735,150.632 101.257,165.503 104.763 M119.795 184.853 C 119.648 201.006,119.608 201.698,118.666 204.373 C 115.546 213.239,109.045 219.767,100.536 222.583 C 97.542 223.573,96.364 223.730,91.947 223.728 C 87.475 223.726,86.395 223.577,83.417 222.551 C 74.417 219.451,67.776 212.506,65.016 203.307 C 63.851 199.421,63.946 192.303,65.219 188.160 C 67.514 180.693,72.689 174.497,79.404 171.175 C 85.153 168.331,86.394 168.179,104.240 168.141 L 119.947 168.107 119.795 184.853 " stroke="none" fill-rule="evenodd"></path></svg>