<svg fill="currentColor" viewBox="0 0 256 256" xmlns="http://www.w3.org/2000/svg"><path d="M52.926 24.355 C 48.250 25.282,43.642 28.869,41.482 33.264 L 40.320 35.627 40.205 74.773 C 40.093 112.614,40.117 113.973,40.906 115.520 C 41.912 117.492,42.878 118.388,44.909 119.237 C 46.907 120.072,49.093 120.072,51.091 119.237 C 53.207 118.353,54.159 117.443,55.091 115.413 C 55.832 113.800,55.875 111.702,55.884 76.907 L 55.893 40.107 99.840 40.107 L 143.787 40.107 143.797 63.893 C 143.804 78.689,143.974 88.403,144.248 89.591 C 144.827 92.104,146.472 94.198,148.644 95.184 C 150.294 95.933,151.902 95.982,175.253 95.991 L 200.107 96.000 200.107 104.977 C 200.107 112.944,200.198 114.132,200.915 115.537 C 201.913 117.492,202.882 118.390,204.909 119.237 C 206.907 120.072,209.093 120.072,211.091 119.237 C 213.207 118.353,214.159 117.443,215.091 115.413 C 215.799 113.871,215.875 112.384,215.884 99.974 C 215.890 91.446,215.724 85.787,215.447 85.041 C 214.935 83.662,157.471 25.922,155.520 24.826 C 154.342 24.164,150.285 24.102,104.533 24.042 C 77.187 24.007,53.972 24.148,52.926 24.355 M174.293 65.707 L 188.368 79.787 174.184 79.787 L 160.000 79.787 160.000 65.707 C 160.000 57.963,160.049 51.627,160.109 51.627 C 160.169 51.627,166.552 57.963,174.293 65.707 M68.480 144.924 C 66.503 145.968,65.654 146.839,64.802 148.693 C 64.077 150.273,64.018 151.921,64.009 170.830 C 64.003 185.600,63.856 191.748,63.481 193.017 C 62.673 195.751,59.210 198.987,56.358 199.671 C 53.205 200.427,50.208 199.734,47.828 197.696 C 45.574 195.767,44.478 193.614,43.988 190.155 C 43.405 186.042,42.356 184.385,39.381 182.878 C 37.820 182.088,34.753 181.974,32.988 182.640 C 31.353 183.258,29.458 185.099,28.747 186.760 C 27.964 188.591,28.003 193.191,28.830 196.381 C 30.697 203.589,36.172 210.251,42.728 213.295 C 46.959 215.259,49.703 215.893,53.973 215.893 C 58.109 215.893,60.953 215.265,64.804 213.500 C 71.946 210.227,77.143 204.026,79.248 196.267 C 79.919 193.791,80.000 191.204,80.000 172.160 C 80.000 160.427,79.853 150.302,79.674 149.661 C 79.222 148.047,76.877 145.482,75.220 144.790 C 73.381 144.021,70.063 144.087,68.480 144.924 M114.560 144.899 C 110.267 145.785,104.952 148.506,102.271 151.190 C 95.020 158.450,94.021 170.267,100.088 177.015 C 103.741 181.079,108.441 183.475,119.054 186.685 C 125.936 188.766,129.819 190.303,131.079 191.443 C 132.038 192.312,132.084 194.984,131.170 196.752 C 129.973 199.065,127.373 199.878,121.173 199.875 C 117.520 199.874,114.773 199.626,112.454 199.090 C 106.611 197.738,103.214 198.782,100.964 202.623 C 99.217 205.605,100.276 210.177,103.265 212.557 C 106.663 215.263,121.269 216.816,128.857 215.278 C 133.945 214.247,138.131 212.198,141.276 209.199 C 145.439 205.229,147.449 200.914,147.916 194.945 C 148.377 189.050,146.329 183.773,142.108 179.982 C 138.771 176.986,131.878 173.767,123.093 171.101 C 114.539 168.506,112.483 167.514,112.294 165.889 C 111.694 160.713,120.165 158.730,132.693 161.114 C 137.239 161.979,139.256 161.544,141.608 159.192 C 143.380 157.420,144.420 154.423,143.957 152.423 C 143.412 150.071,141.656 147.645,139.822 146.709 C 135.503 144.506,121.373 143.493,114.560 144.899 M165.760 144.735 C 161.258 146.331,158.957 151.654,161.033 155.669 C 161.421 156.419,165.391 162.138,169.856 168.379 C 174.561 174.957,177.876 179.979,177.743 180.327 C 177.616 180.657,173.782 186.154,169.223 192.543 C 164.002 199.860,160.767 204.792,160.483 205.867 C 159.359 210.132,162.282 214.535,166.974 215.643 C 168.729 216.058,172.407 214.864,173.714 213.456 C 174.321 212.802,177.737 208.187,181.305 203.200 C 184.873 198.213,187.923 194.143,188.083 194.156 C 188.242 194.168,191.541 198.619,195.413 204.048 C 203.116 214.848,203.956 215.636,207.758 215.626 C 213.057 215.612,217.010 210.443,215.418 205.610 C 215.063 204.530,211.212 198.711,206.353 191.907 C 200.820 184.161,198.022 179.892,198.241 179.534 C 198.426 179.233,202.214 173.900,206.660 167.683 C 211.106 161.466,215.002 155.760,215.318 155.003 C 216.676 151.755,215.680 148.070,212.832 145.795 C 210.207 143.698,205.591 143.670,203.136 145.736 C 202.442 146.320,198.867 151.016,195.192 156.171 C 191.518 161.325,188.354 165.640,188.162 165.759 C 187.970 165.878,184.805 161.756,181.129 156.600 C 177.454 151.444,173.878 146.747,173.183 146.162 C 171.091 144.402,168.243 143.854,165.760 144.735 " stroke="none" fill-rule="evenodd"></path></svg>