<svg fill="currentColor" viewBox="0 0 256 256" xmlns="http://www.w3.org/2000/svg"><path d="M52.926 24.355 C 48.250 25.282,43.642 28.869,41.482 33.264 L 40.320 35.627 40.209 127.253 C 40.101 217.437,40.112 218.917,40.939 221.268 C 42.449 225.566,45.675 228.935,50.043 230.776 L 52.693 231.893 128.000 231.893 L 203.307 231.893 205.957 230.776 C 210.321 228.937,213.551 225.566,215.057 221.279 C 215.874 218.957,215.893 217.345,215.893 152.572 C 215.893 107.470,215.751 85.858,215.447 85.041 C 214.935 83.662,157.471 25.922,155.520 24.826 C 154.342 24.164,150.285 24.102,104.533 24.042 C 77.187 24.007,53.972 24.148,52.926 24.355 M143.797 63.893 C 143.804 78.689,143.974 88.403,144.248 89.591 C 144.827 92.104,146.472 94.198,148.644 95.184 C 150.294 95.933,151.902 95.982,175.253 95.991 L 200.107 96.000 200.107 155.947 L 200.107 215.893 128.000 215.893 L 55.893 215.893 55.893 128.000 L 55.893 40.107 99.840 40.107 L 143.787 40.107 143.797 63.893 M174.293 65.707 L 188.368 79.787 174.184 79.787 L 160.000 79.787 160.000 65.707 C 160.000 57.963,160.049 51.627,160.109 51.627 C 160.169 51.627,166.552 57.963,174.293 65.707 M123.710 113.441 C 122.667 114.117,116.222 120.309,109.388 127.201 C 96.048 140.655,95.687 141.138,96.112 144.912 C 96.674 149.896,102.194 153.222,106.959 151.446 C 107.620 151.199,110.800 148.370,114.027 145.158 L 119.893 139.318 119.903 162.352 C 119.911 183.834,119.965 185.502,120.700 187.093 C 121.653 189.159,123.004 190.459,125.112 191.340 C 129.036 192.979,133.429 191.149,135.300 187.093 C 136.035 185.502,136.089 183.834,136.097 162.352 L 136.107 139.318 141.973 145.158 C 145.200 148.370,148.380 151.199,149.041 151.446 C 153.806 153.222,159.326 149.896,159.888 144.912 C 160.313 141.138,159.952 140.655,146.612 127.201 C 139.778 120.309,133.333 114.117,132.290 113.441 C 130.774 112.460,129.912 112.213,128.000 112.213 C 126.088 112.213,125.226 112.460,123.710 113.441 " stroke="none" fill-rule="evenodd"></path></svg>