<svg fill="currentColor" viewBox="0 0 256 256" xmlns="http://www.w3.org/2000/svg"><path d="M52.926 24.355 C 48.250 25.282,43.642 28.869,41.482 33.264 L 40.320 35.627 40.205 74.773 C 40.093 112.614,40.117 113.973,40.906 115.520 C 41.912 117.492,42.878 118.388,44.909 119.237 C 46.907 120.072,49.093 120.072,51.091 119.237 C 53.207 118.353,54.159 117.443,55.091 115.413 C 55.832 113.800,55.875 111.702,55.884 76.907 L 55.893 40.107 99.840 40.107 L 143.787 40.107 143.797 63.893 C 143.804 78.689,143.974 88.403,144.248 89.591 C 144.827 92.104,146.472 94.198,148.644 95.184 C 150.294 95.933,151.902 95.982,175.253 95.991 L 200.107 96.000 200.107 104.977 C 200.107 112.944,200.198 114.132,200.915 115.537 C 201.913 117.492,202.882 118.390,204.909 119.237 C 206.907 120.072,209.093 120.072,211.091 119.237 C 213.207 118.353,214.159 117.443,215.091 115.413 C 215.799 113.871,215.875 112.384,215.884 99.974 C 215.890 91.446,215.724 85.787,215.447 85.041 C 214.935 83.662,157.471 25.922,155.520 24.826 C 154.342 24.164,150.285 24.102,104.533 24.042 C 77.187 24.007,53.972 24.148,52.926 24.355 M174.293 65.707 L 188.368 79.787 174.184 79.787 L 160.000 79.787 160.000 65.707 C 160.000 57.963,160.049 51.627,160.109 51.627 C 160.169 51.627,166.552 57.963,174.293 65.707 M44.475 144.492 C 41.802 145.810,39.668 149.207,39.692 152.107 C 39.706 153.840,41.434 156.629,49.337 167.680 C 53.784 173.899,57.574 179.233,57.759 179.534 C 57.978 179.892,55.192 184.144,49.685 191.855 C 45.059 198.331,40.988 204.359,40.638 205.251 C 38.753 210.051,42.829 215.611,48.242 215.626 C 52.044 215.636,52.884 214.848,60.587 204.048 C 64.459 198.619,67.761 194.168,67.925 194.156 C 68.089 194.143,71.134 198.213,74.693 203.200 C 78.251 208.187,81.664 212.802,82.276 213.456 C 83.789 215.071,87.327 216.090,89.419 215.512 C 93.897 214.276,96.465 210.258,95.505 205.987 C 95.214 204.692,92.768 200.920,86.794 192.556 C 82.225 186.160,78.384 180.657,78.257 180.327 C 78.124 179.978,81.475 174.913,86.240 168.263 C 90.757 161.958,94.801 156.089,95.227 155.221 C 97.550 150.476,94.253 144.741,88.949 144.301 C 84.170 143.905,83.508 144.483,74.861 156.614 C 71.190 161.762,68.033 165.880,67.845 165.763 C 67.657 165.647,64.671 161.567,61.210 156.696 C 54.154 146.765,52.860 145.219,50.894 144.376 C 49.069 143.593,46.193 143.645,44.475 144.492 M116.693 144.710 C 115.318 145.469,113.472 147.314,112.709 148.693 C 112.072 149.844,111.988 152.860,111.879 178.529 C 111.795 198.357,111.903 207.787,112.234 209.382 C 112.780 212.009,114.623 214.416,116.780 215.317 C 117.854 215.766,121.656 215.893,133.973 215.893 C 151.470 215.893,151.543 215.883,153.909 213.189 C 157.163 209.483,156.578 204.657,152.497 201.543 L 150.895 200.320 139.447 200.194 L 128.000 200.067 128.000 175.327 C 128.000 149.024,127.990 148.885,125.957 146.637 C 124.038 144.515,118.961 143.459,116.693 144.710 M182.400 144.878 C 172.361 147.066,165.554 153.888,164.215 163.104 C 163.351 169.051,164.882 173.843,168.943 177.902 C 172.650 181.607,176.138 183.252,188.800 187.268 C 198.892 190.468,200.590 191.708,199.632 195.178 C 199.385 196.071,198.743 197.242,198.206 197.779 C 196.083 199.903,189.898 200.581,183.040 199.442 C 180.576 199.033,177.576 198.615,176.374 198.513 C 169.867 197.961,165.866 205.208,169.579 210.819 C 170.946 212.885,172.844 213.813,177.920 214.902 C 183.034 215.999,194.880 215.994,198.827 214.894 C 207.898 212.365,213.884 206.318,215.489 198.062 C 216.332 193.730,215.825 188.650,214.227 185.405 C 211.193 179.241,205.005 175.387,191.573 171.295 C 182.352 168.485,180.325 167.527,180.134 165.889 C 179.535 160.726,188.433 158.658,200.735 161.101 C 205.092 161.966,207.118 161.522,209.448 159.192 C 212.347 156.293,212.623 151.958,210.118 148.647 C 207.985 145.825,203.267 144.668,192.853 144.411 C 187.185 144.272,184.667 144.384,182.400 144.878 " stroke="none" fill-rule="evenodd"></path></svg>