<svg fill="currentColor" viewBox="0 0 256 256" xmlns="http://www.w3.org/2000/svg"><path d="M52.926 24.355 C 48.250 25.282,43.642 28.869,41.482 33.264 L 40.320 35.627 40.196 82.133 C 40.128 107.712,40.185 129.268,40.324 130.036 C 40.834 132.868,44.918 136.088,48.000 136.088 C 50.766 136.088,54.438 133.504,55.440 130.852 C 55.750 130.031,55.893 115.475,55.893 84.879 L 55.893 40.107 99.840 40.107 L 143.787 40.107 143.797 63.893 C 143.804 78.689,143.974 88.403,144.248 89.591 C 144.827 92.104,146.472 94.198,148.644 95.184 C 150.294 95.933,151.902 95.982,175.253 95.991 L 200.107 96.000 200.107 155.928 L 200.107 215.856 178.848 215.981 L 157.590 216.107 155.792 217.297 C 152.654 219.374,151.380 222.644,152.332 226.176 C 152.976 228.569,155.412 231.019,157.782 231.657 C 159.051 231.999,166.074 232.106,181.446 232.018 L 203.307 231.893 205.957 230.776 C 210.321 228.937,213.551 225.566,215.057 221.279 C 215.874 218.957,215.893 217.345,215.893 152.572 C 215.893 107.470,215.751 85.858,215.447 85.041 C 214.935 83.662,157.471 25.922,155.520 24.826 C 154.342 24.164,150.285 24.102,104.533 24.042 C 77.187 24.007,53.972 24.148,52.926 24.355 M174.293 65.707 L 188.368 79.787 174.184 79.787 L 160.000 79.787 160.000 65.707 C 160.000 57.963,160.049 51.627,160.109 51.627 C 160.169 51.627,166.552 57.963,174.293 65.707 M77.301 144.809 C 72.764 145.961,67.878 148.788,64.390 152.280 C 58.921 157.756,56.461 163.438,56.015 171.627 L 55.765 176.213 50.909 176.213 C 47.735 176.213,45.577 176.417,44.680 176.801 C 43.019 177.511,41.178 179.407,40.560 181.041 C 39.934 182.698,39.934 225.195,40.560 226.852 C 41.206 228.560,43.027 230.378,45.013 231.298 C 46.633 232.048,48.622 232.088,83.960 232.097 C 116.622 232.106,121.395 232.025,122.781 231.446 C 124.890 230.565,126.240 229.265,127.194 227.200 C 127.926 225.613,127.982 223.985,127.991 204.040 C 127.999 185.684,127.905 182.359,127.344 181.015 C 125.754 177.211,123.647 176.213,117.198 176.213 L 112.335 176.213 112.043 171.967 C 111.669 166.532,110.922 163.638,108.746 159.194 C 105.717 153.008,99.875 147.985,92.757 145.447 C 89.528 144.296,80.750 143.933,77.301 144.809 M89.022 161.203 C 91.670 162.554,93.141 163.968,94.506 166.471 C 95.538 168.366,95.775 169.371,95.925 172.480 L 96.104 176.213 84.055 176.213 L 72.005 176.213 72.178 172.246 C 72.325 168.890,72.530 167.974,73.506 166.308 C 75.001 163.757,77.765 161.413,80.200 160.630 C 82.762 159.806,86.798 160.068,89.022 161.203 M111.787 203.947 L 111.787 215.893 83.840 215.893 L 55.893 215.893 55.893 203.947 L 55.893 192.000 83.840 192.000 L 111.787 192.000 111.787 203.947 " stroke="none" fill-rule="evenodd"></path></svg>