<svg fill="currentColor" viewBox="0 0 256 256" xmlns="http://www.w3.org/2000/svg"><path d="M52.926 24.356 C 48.252 25.281,43.642 28.869,41.482 33.264 L 40.320 35.627 40.209 127.253 C 40.101 217.437,40.112 218.917,40.939 221.268 C 42.449 225.566,45.675 228.935,50.043 230.776 L 52.693 231.893 128.000 231.893 L 203.307 231.893 205.957 230.776 C 210.321 228.937,213.551 225.566,215.057 221.279 C 215.877 218.947,215.893 217.174,215.893 128.000 C 215.893 38.826,215.877 37.053,215.057 34.721 C 213.550 30.430,210.072 26.880,205.569 25.034 L 203.307 24.107 129.067 24.043 C 87.649 24.008,53.986 24.146,52.926 24.356 M200.107 128.000 L 200.107 215.893 128.000 215.893 L 55.893 215.893 55.893 128.000 L 55.893 40.107 128.000 40.107 L 200.107 40.107 200.107 128.000 M80.301 68.624 C 75.493 70.336,72.554 74.042,72.216 78.819 C 71.962 82.402,72.576 84.761,74.376 87.129 C 79.712 94.146,90.134 93.436,94.463 85.760 C 95.640 83.673,95.786 83.036,95.779 80.000 C 95.771 76.348,95.101 74.492,92.801 71.759 C 90.176 68.639,84.357 67.180,80.301 68.624 M80.637 116.452 C 75.496 118.016,72.115 122.598,72.115 128.000 C 72.115 132.910,74.727 136.912,79.298 139.004 C 82.398 140.423,86.839 140.219,89.732 138.523 C 94.973 135.452,97.210 129.569,95.285 123.920 C 94.324 121.100,90.953 117.729,88.134 116.769 C 85.965 116.029,82.506 115.883,80.637 116.452 M80.301 164.624 C 75.493 166.336,72.554 170.042,72.216 174.819 C 71.962 178.402,72.576 180.761,74.376 183.129 C 79.712 190.146,90.134 189.436,94.463 181.760 C 95.640 179.673,95.786 179.036,95.779 176.000 C 95.771 172.348,95.101 170.492,92.801 167.759 C 90.176 164.639,84.357 163.180,80.301 164.624 " stroke="none" fill-rule="evenodd"></path></svg>