<svg fill="currentColor" viewBox="0 0 256 256" xmlns="http://www.w3.org/2000/svg"><path d="M36.053 40.505 C 30.344 41.916,25.583 47.035,24.322 53.120 C 24.024 54.557,23.916 79.407,23.993 129.280 L 24.107 203.307 25.224 205.957 C 27.063 210.321,30.434 213.551,34.721 215.057 C 37.053 215.877,38.826 215.893,128.000 215.893 C 217.174 215.893,218.947 215.877,221.279 215.057 C 225.566 213.551,228.937 210.321,230.776 205.957 L 231.893 203.307 231.893 128.000 L 231.893 52.693 230.867 50.144 C 229.561 46.901,226.312 43.426,222.933 41.659 L 220.373 40.320 128.853 40.255 C 78.517 40.219,36.757 40.331,36.053 40.505 M71.893 64.000 L 71.893 71.893 56.000 72.005 L 40.107 72.117 40.107 64.000 L 40.107 55.883 56.000 55.995 L 71.893 56.107 71.893 64.000 M119.893 64.005 L 119.893 72.117 104.000 72.005 L 88.107 71.893 87.990 64.442 C 87.925 60.343,87.967 56.743,88.083 56.442 C 88.249 56.009,91.616 55.893,104.093 55.893 L 119.893 55.893 119.893 64.005 M167.893 64.000 L 167.893 71.893 152.000 72.005 L 136.107 72.117 136.107 64.000 L 136.107 55.883 152.000 55.995 L 167.893 56.107 167.893 64.000 M215.893 64.005 L 215.893 72.117 200.000 72.005 L 184.107 71.893 183.990 64.442 C 183.925 60.343,183.967 56.743,184.083 56.442 C 184.249 56.009,187.616 55.893,200.093 55.893 L 215.893 55.893 215.893 64.005 M119.893 128.000 L 119.893 168.107 80.000 168.107 L 40.107 168.107 40.107 128.000 L 40.107 87.893 80.000 87.893 L 119.893 87.893 119.893 128.000 M215.893 128.000 L 215.893 168.107 176.000 168.107 L 136.107 168.107 136.107 128.000 L 136.107 87.893 176.000 87.893 L 215.893 87.893 215.893 128.000 M71.893 192.000 L 71.893 199.893 56.000 200.005 L 40.107 200.117 40.107 192.000 L 40.107 183.883 56.000 183.995 L 71.893 184.107 71.893 192.000 M119.893 192.005 L 119.893 200.117 104.000 200.005 L 88.107 199.893 87.990 192.442 C 87.925 188.343,87.967 184.743,88.083 184.442 C 88.249 184.009,91.616 183.893,104.093 183.893 L 119.893 183.893 119.893 192.005 M167.893 192.000 L 167.893 199.893 152.000 200.005 L 136.107 200.117 136.107 192.000 L 136.107 183.883 152.000 183.995 L 167.893 184.107 167.893 192.000 M215.893 192.005 L 215.893 200.117 200.000 200.005 L 184.107 199.893 183.990 192.442 C 183.925 188.343,183.967 184.743,184.083 184.442 C 184.249 184.009,187.616 183.893,200.093 183.893 L 215.893 183.893 215.893 192.005 " stroke="none" fill-rule="evenodd"></path></svg>