<svg fill="currentColor" viewBox="0 0 256 256" xmlns="http://www.w3.org/2000/svg"><path d="M134.328 17.078 C 133.467 17.533,132.380 18.441,131.913 19.097 C 131.447 19.752,126.136 33.816,120.111 50.350 C 114.087 66.884,109.024 80.651,108.860 80.944 C 108.665 81.293,104.326 77.374,96.201 69.507 C 89.403 62.924,83.269 57.237,82.571 56.869 C 80.827 55.948,77.373 55.983,75.385 56.940 C 73.523 57.837,70.808 61.239,64.986 69.973 C 48.369 94.901,40.107 119.418,40.107 143.795 C 40.107 154.296,41.363 162.128,44.624 171.947 C 54.447 201.531,79.617 223.815,110.427 230.206 C 142.135 236.783,175.609 224.831,196.174 199.590 C 206.657 186.723,213.366 170.864,215.446 154.038 C 216.087 148.852,215.997 138.056,215.260 131.755 C 211.899 103.021,197.101 73.693,171.494 45.013 C 162.794 35.269,145.269 18.723,141.686 16.870 C 139.922 15.958,136.252 16.061,134.328 17.078 M151.480 47.211 C 171.456 67.549,184.705 86.897,192.630 107.307 C 196.865 118.212,198.933 127.361,199.683 138.509 C 200.609 152.282,198.013 164.906,191.755 177.065 C 184.998 190.193,173.312 201.741,160.041 208.406 C 140.283 218.328,115.717 218.328,95.959 208.406 C 87.075 203.945,77.489 196.105,71.465 188.373 C 51.944 163.321,51.017 130.200,68.855 95.056 C 71.486 89.873,77.436 79.790,79.476 77.058 C 80.040 76.301,80.936 77.080,93.210 89.004 C 100.432 96.020,107.014 102.240,107.838 102.827 C 109.044 103.686,109.842 103.893,111.947 103.891 C 114.997 103.888,117.194 102.776,118.579 100.536 C 119.053 99.769,124.158 86.195,129.923 70.371 C 135.689 54.547,140.711 40.788,141.084 39.796 L 141.762 37.993 142.881 38.794 C 143.496 39.235,147.366 43.023,151.480 47.211 M174.293 144.183 C 171.146 144.942,168.880 147.328,168.125 150.674 C 164.369 167.329,152.678 179.683,137.070 183.491 C 132.552 184.593,131.125 185.343,129.504 187.468 C 127.213 190.471,127.521 194.458,130.262 197.305 C 132.712 199.849,134.778 200.441,138.582 199.690 C 148.726 197.687,159.070 192.272,166.794 184.922 C 174.745 177.355,180.175 168.228,182.855 157.927 C 184.545 151.427,184.157 148.643,181.195 146.043 C 180.345 145.297,178.925 144.485,178.038 144.239 C 176.254 143.743,176.123 143.741,174.293 144.183 " stroke="none" fill-rule="evenodd"></path></svg>