<svg fill="currentColor" viewBox="0 0 256 256" xmlns="http://www.w3.org/2000/svg"><path d="M98.678 32.645 C 90.593 34.402,83.331 41.274,80.873 49.493 C 80.450 50.909,80.070 54.244,79.915 57.902 L 79.658 63.964 57.846 64.089 L 36.034 64.213 33.197 65.610 C 29.683 67.341,26.479 70.713,25.097 74.135 L 24.107 76.587 24.107 144.000 L 24.107 211.413 25.097 213.865 C 26.479 217.288,29.683 220.659,33.198 222.390 L 36.035 223.787 128.000 223.787 L 219.965 223.787 222.802 222.390 C 226.317 220.659,229.521 217.288,230.903 213.865 L 231.893 211.413 231.893 144.000 L 231.893 76.587 230.903 74.135 C 229.521 70.713,226.317 67.341,222.803 65.610 L 219.966 64.213 198.154 64.089 L 176.342 63.964 176.085 57.902 C 175.930 54.244,175.550 50.909,175.127 49.493 C 172.639 41.171,165.387 34.377,157.123 32.626 C 153.037 31.760,102.674 31.776,98.678 32.645 M155.644 49.021 C 159.097 50.784,160.000 52.914,160.000 59.293 L 160.000 64.000 128.000 64.000 L 96.000 64.000 96.009 59.200 C 96.022 52.806,96.884 50.824,100.480 48.924 C 101.607 48.328,104.886 48.245,127.910 48.230 C 152.748 48.214,154.140 48.254,155.644 49.021 M215.893 144.000 L 215.893 207.787 128.000 207.787 L 40.107 207.787 40.107 144.000 L 40.107 80.213 128.000 80.213 L 215.893 80.213 215.893 144.000 M126.507 112.203 C 124.230 112.727,122.476 113.904,121.278 115.713 L 120.107 117.481 119.977 126.794 L 119.847 136.107 110.893 136.107 C 102.949 136.107,101.761 136.198,100.356 136.915 C 98.401 137.913,97.503 138.882,96.656 140.909 C 95.821 142.907,95.821 145.093,96.656 147.091 C 97.503 149.118,98.401 150.087,100.356 151.085 C 101.761 151.802,102.949 151.893,110.893 151.893 L 119.847 151.893 119.977 161.245 L 120.107 170.596 121.387 172.407 C 124.701 177.096,131.299 177.096,134.613 172.407 L 135.893 170.596 136.023 161.245 L 136.153 151.893 145.107 151.893 C 153.051 151.893,154.239 151.802,155.644 151.085 C 157.599 150.087,158.497 149.118,159.344 147.091 C 160.212 145.014,160.159 142.681,159.198 140.587 C 157.366 136.599,155.794 136.107,144.890 136.107 L 136.153 136.107 136.023 126.794 L 135.893 117.481 134.720 115.709 C 132.966 113.062,129.396 111.537,126.507 112.203 " stroke="none" fill-rule="evenodd"></path></svg>