<svg fill="currentColor" viewBox="0 0 256 256" xmlns="http://www.w3.org/2000/svg"><path d="M168.069 24.353 C 120.666 27.074,86.363 48.782,69.139 86.957 C 62.413 101.863,58.226 119.645,56.608 140.166 L 56.107 146.528 29.867 157.771 C 13.153 164.933,3.182 169.431,2.401 170.161 C -1.776 174.065,-0.339 180.945,5.120 183.179 C 5.941 183.515,17.874 187.006,31.637 190.937 C 45.400 194.867,56.892 198.226,57.174 198.401 C 57.457 198.575,61.007 210.310,65.065 224.479 C 69.123 238.648,72.636 250.720,72.873 251.307 C 73.437 252.701,75.842 254.975,77.361 255.547 C 80.083 256.573,84.033 255.593,86.051 253.390 C 86.563 252.831,92.042 240.565,98.226 226.133 L 109.470 199.893 113.295 199.569 C 130.982 198.070,142.409 196.032,154.880 192.152 C 184.474 182.946,206.652 164.555,219.100 138.898 C 222.840 131.189,224.668 126.326,226.944 118.025 C 232.155 99.020,233.354 76.623,230.395 53.547 C 229.286 44.890,228.044 39.063,226.737 36.378 C 225.347 33.523,222.478 30.655,219.606 29.250 C 215.489 27.236,201.556 25.103,187.520 24.339 C 178.652 23.856,176.691 23.858,168.069 24.353 M197.973 41.136 C 206.716 42.302,211.692 43.219,212.236 43.764 C 212.785 44.312,213.723 49.420,214.855 58.027 C 215.782 65.062,216.133 82.992,215.492 90.515 C 214.118 106.635,210.818 119.337,204.811 131.627 C 199.954 141.563,193.437 150.376,186.136 156.879 L 182.632 160.000 179.956 159.997 C 166.101 159.980,153.058 151.441,147.219 138.564 C 145.160 134.022,144.533 130.881,144.256 123.702 C 143.970 116.284,143.574 115.175,140.444 113.028 C 139.068 112.084,138.471 111.990,133.153 111.882 C 121.453 111.645,113.035 108.132,105.910 100.515 C 99.829 94.015,96.826 86.951,96.170 77.603 L 95.882 73.500 99.062 69.931 C 109.822 57.850,126.062 48.502,144.226 43.932 C 149.697 42.555,157.681 41.188,163.840 40.573 C 169.794 39.978,192.050 40.345,197.973 41.136 M152.744 64.373 C 144.097 67.210,141.332 77.750,147.543 84.196 C 149.707 86.441,152.029 87.542,155.129 87.790 C 160.056 88.186,164.416 85.761,166.726 81.339 C 167.673 79.528,167.872 78.590,167.872 75.947 C 167.872 70.989,165.712 67.489,161.280 65.263 C 159.214 64.225,154.646 63.749,152.744 64.373 M88.930 104.939 C 96.610 116.458,109.694 125.010,122.880 127.129 C 128.721 128.067,127.933 127.279,128.871 133.120 C 130.479 143.126,136.181 153.824,143.926 161.367 C 147.471 164.820,153.768 169.154,158.267 171.238 L 161.399 172.689 156.886 174.453 C 144.282 179.381,128.871 182.419,111.147 183.470 C 106.688 183.734,102.400 184.150,101.617 184.394 C 98.275 185.434,97.888 186.113,89.568 205.515 C 83.679 219.247,81.679 223.516,81.424 222.899 C 81.238 222.448,78.955 214.592,76.350 205.440 C 73.745 196.288,71.235 188.186,70.772 187.435 C 70.309 186.684,69.316 185.699,68.565 185.246 C 67.814 184.794,59.616 182.261,50.347 179.618 C 41.077 176.975,33.234 174.678,32.918 174.512 C 32.574 174.333,39.626 171.089,50.461 166.443 C 63.006 161.063,68.910 158.319,69.654 157.523 C 71.711 155.323,71.969 154.217,72.500 145.288 C 73.626 126.353,76.502 112.088,82.033 98.000 L 83.342 94.666 84.777 97.766 C 85.567 99.470,87.436 102.699,88.930 104.939 " stroke="none" fill-rule="evenodd"></path></svg>