<svg fill="currentColor" viewBox="0 0 256 256" xmlns="http://www.w3.org/2000/svg"><path d="M52.644 32.792 C 50.573 33.761,48.907 35.810,48.258 38.187 C 47.598 40.603,47.594 214.527,48.254 217.604 C 49.156 221.810,53.056 224.458,57.389 223.809 C 59.899 223.432,62.916 220.844,63.564 218.512 C 63.828 217.561,63.996 208.587,63.998 195.350 L 64.000 173.740 67.093 172.626 C 68.795 172.013,109.318 157.907,157.145 141.279 C 250.040 108.981,245.876 110.555,247.306 107.214 C 248.748 103.842,247.499 99.412,244.578 97.542 C 242.406 96.151,58.741 32.339,56.320 32.134 C 55.031 32.024,53.823 32.241,52.644 32.792 M214.715 104.147 C 214.433 104.404,64.641 156.587,64.187 156.587 C 64.084 156.587,64.000 132.904,64.000 103.959 L 64.000 51.331 139.515 77.596 C 181.048 92.042,214.888 103.990,214.715 104.147 " stroke="none" fill-rule="evenodd"></path></svg>