<svg fill="currentColor" viewBox="0 0 256 256" xmlns="http://www.w3.org/2000/svg"><path d="M123.093 32.871 C 119.765 33.942,115.812 36.938,109.612 43.090 C 102.708 49.940,98.427 55.564,93.453 64.320 C 92.220 66.491,91.156 68.267,91.089 68.267 C 91.022 68.267,89.740 67.521,88.240 66.610 C 78.761 60.851,65.972 56.238,59.307 56.173 C 56.110 56.142,55.349 56.293,52.886 57.446 C 46.287 60.536,44.194 64.069,41.548 76.581 C 40.067 83.585,39.675 97.031,40.720 104.957 C 41.106 107.889,41.531 110.721,41.664 111.251 C 41.905 112.208,41.879 112.213,36.984 112.213 C 29.184 112.213,20.744 113.588,16.853 115.491 C 13.872 116.950,10.950 119.963,9.525 123.046 C 8.465 125.339,8.322 126.143,8.334 129.707 C 8.350 134.560,9.633 138.756,13.656 147.109 C 18.093 156.324,23.564 163.938,31.357 171.746 C 49.529 189.953,75.193 202.487,102.600 206.543 C 116.069 208.536,139.931 208.536,153.400 206.543 C 173.107 203.627,190.079 197.149,206.854 186.140 C 222.787 175.685,234.766 162.542,242.151 147.413 C 246.313 138.889,247.635 134.639,247.660 129.707 C 247.678 126.134,247.537 125.344,246.475 123.046 C 245.050 119.963,242.128 116.950,239.147 115.491 C 235.259 113.589,226.816 112.213,219.029 112.213 L 214.119 112.213 214.369 111.040 C 215.947 103.637,216.376 89.053,215.249 81.122 C 214.610 76.627,213.058 69.960,211.882 66.662 C 210.407 62.521,207.568 59.543,203.093 57.441 C 200.650 56.293,199.888 56.142,196.693 56.173 C 190.028 56.238,177.239 60.851,167.760 66.610 C 166.260 67.521,164.978 68.267,164.911 68.267 C 164.844 68.267,163.780 66.491,162.547 64.320 C 159.812 59.505,156.778 54.955,153.659 50.987 C 150.509 46.979,142.146 38.700,138.453 35.934 C 133.429 32.170,128.394 31.166,123.093 32.871 M131.297 50.702 C 150.515 67.243,161.058 94.065,159.834 123.307 C 158.974 143.846,153.171 161.446,142.577 175.640 C 139.675 179.528,132.426 187.106,129.600 189.206 L 128.000 190.395 126.400 189.174 C 123.408 186.893,118.598 182.066,115.438 178.174 C 103.392 163.341,97.036 145.175,96.168 123.100 C 95.011 93.696,105.387 67.374,124.704 50.708 C 126.294 49.336,127.777 48.213,128.000 48.213 C 128.223 48.213,129.706 49.333,131.297 50.702 M65.707 73.868 C 72.444 76.034,84.907 82.535,84.907 83.883 C 84.907 84.142,84.336 86.543,83.639 89.217 C 78.947 107.224,78.778 128.874,83.182 147.764 C 84.106 151.725,86.618 159.752,87.932 162.939 L 88.743 164.907 85.903 161.920 C 70.936 146.182,60.018 124.737,56.904 104.960 C 56.045 99.506,55.937 87.831,56.700 82.987 C 57.241 79.550,58.752 73.086,59.173 72.404 C 59.449 71.957,60.484 72.189,65.707 73.868 M197.622 75.019 C 199.938 83.600,200.541 95.835,199.099 104.960 C 195.982 124.676,184.919 146.411,170.053 162.024 L 167.308 164.907 168.789 160.944 C 172.737 150.373,175.023 139.104,175.807 126.335 C 176.571 113.912,175.339 100.646,172.361 89.217 C 171.664 86.543,171.093 84.142,171.093 83.883 C 171.093 83.211,176.103 80.094,181.252 77.563 C 185.641 75.406,195.058 72.065,196.262 72.238 C 196.652 72.295,197.176 73.364,197.622 75.019 M43.822 128.268 L 46.383 128.535 47.783 132.001 C 49.857 137.134,55.060 147.228,58.221 152.252 C 66.014 164.634,78.083 178.339,88.533 186.671 C 89.365 187.334,89.359 187.344,88.320 187.066 C 84.583 186.067,75.699 182.536,70.613 180.028 C 59.186 174.393,49.920 167.692,41.480 158.961 C 33.882 151.100,28.267 142.199,25.102 132.999 C 23.900 129.505,23.863 129.544,28.986 128.848 C 30.996 128.575,32.928 128.295,33.280 128.226 C 34.534 127.977,41.305 128.004,43.822 128.268 M228.379 128.998 C 229.965 129.315,231.392 129.703,231.548 129.859 C 232.270 130.581,228.324 140.092,225.006 145.629 C 214.742 162.752,195.329 177.428,172.200 185.550 C 166.722 187.474,166.197 187.594,167.467 186.635 C 167.936 186.280,170.319 184.222,172.762 182.062 C 181.239 174.566,191.224 162.668,197.779 152.252 C 200.948 147.216,206.144 137.131,208.230 131.968 C 209.642 128.473,209.647 128.468,211.382 128.278 C 214.469 127.941,225.409 128.404,228.379 128.998 " stroke="none" fill-rule="evenodd"></path></svg>