<svg fill="currentColor" viewBox="0 0 256 256" xmlns="http://www.w3.org/2000/svg"><path d="M36.053 40.501 C 32.295 41.443,27.685 45.018,25.988 48.307 C 24.123 51.923,23.893 54.096,23.903 68.036 C 23.911 80.016,23.987 81.443,24.702 82.987 C 25.622 84.973,27.440 86.794,29.148 87.440 C 30.829 88.075,129.171 88.075,130.852 87.440 C 133.508 86.436,136.077 82.781,136.097 79.977 C 136.120 76.859,134.490 74.921,118.300 58.812 C 105.045 45.622,102.183 42.979,99.840 41.761 L 97.067 40.320 67.200 40.250 C 50.773 40.212,36.757 40.325,36.053 40.501 M100.480 64.000 L 108.578 72.107 74.342 72.107 L 40.107 72.107 40.107 64.000 L 40.107 55.893 66.244 55.893 L 92.382 55.893 100.480 64.000 M164.338 73.014 C 161.589 74.387,160.213 76.716,160.213 80.000 C 160.213 83.314,161.602 85.647,164.373 86.988 C 166.213 87.879,166.642 87.893,191.068 87.893 L 215.893 87.893 215.903 100.587 C 215.911 112.031,215.990 113.448,216.702 114.987 C 219.270 120.532,225.939 121.650,229.854 117.191 C 232.076 114.660,232.183 113.738,232.024 98.560 C 231.883 85.110,231.848 84.617,230.859 82.144 C 229.563 78.902,226.321 75.431,222.933 73.659 L 220.373 72.320 193.280 72.205 C 166.246 72.091,166.183 72.093,164.338 73.014 M27.679 113.436 C 24.093 115.710,24.125 115.519,23.976 135.253 C 23.888 146.787,23.998 153.059,24.307 154.114 C 25.254 157.350,28.704 159.981,32.000 159.981 C 35.296 159.981,38.746 157.350,39.693 154.114 C 40.002 153.059,40.112 146.787,40.024 135.253 C 39.903 119.198,39.835 117.856,39.071 116.316 C 37.847 113.850,35.026 112.213,32.000 112.213 C 30.099 112.213,29.211 112.465,27.679 113.436 M219.679 145.436 C 215.964 147.792,216.123 146.516,215.990 175.040 L 215.874 200.107 207.058 200.107 C 198.947 200.107,198.093 200.179,196.373 201.012 C 193.602 202.353,192.213 204.686,192.213 208.000 C 192.213 211.314,193.602 213.647,196.373 214.988 C 198.130 215.839,198.897 215.893,209.095 215.883 C 219.478 215.874,220.051 215.830,222.369 214.877 C 227.146 212.912,230.205 209.429,231.461 204.524 C 232.034 202.289,232.110 198.339,232.010 175.952 C 231.899 151.285,231.852 149.890,231.071 148.316 C 229.847 145.850,227.026 144.213,224.000 144.213 C 222.099 144.213,221.211 144.465,219.679 145.436 M29.979 184.299 C 28.155 184.745,25.781 186.592,24.853 188.289 C 24.225 189.437,24.107 190.805,24.107 196.907 C 24.107 203.995,24.135 204.220,25.333 206.815 C 26.773 209.932,30.112 213.309,33.156 214.728 C 35.195 215.677,35.272 215.680,62.453 215.799 C 89.587 215.917,89.715 215.914,91.602 215.001 C 94.400 213.646,95.787 211.326,95.787 208.000 C 95.787 204.686,94.398 202.353,91.627 201.012 C 89.787 200.121,89.357 200.107,64.976 200.107 L 40.194 200.107 40.044 194.880 C 39.919 190.560,39.742 189.395,39.020 188.166 C 37.268 185.184,33.303 183.488,29.979 184.299 M124.800 200.711 C 122.241 201.854,119.882 205.410,119.903 208.093 C 119.924 210.787,122.543 214.455,125.148 215.440 C 125.926 215.733,132.566 215.893,144.000 215.893 C 155.434 215.893,162.074 215.733,162.852 215.440 C 165.504 214.438,168.088 210.766,168.088 208.000 C 168.088 205.234,165.504 201.562,162.852 200.560 C 160.947 199.841,126.444 199.977,124.800 200.711 " stroke="none" fill-rule="evenodd"></path></svg>