<svg fill="currentColor" viewBox="0 0 256 256" xmlns="http://www.w3.org/2000/svg"><path d="M34.521 49.014 C 30.123 50.748,27.383 53.382,25.254 57.926 L 24.107 60.373 23.980 134.400 C 23.890 187.004,23.988 208.892,24.319 210.034 C 24.903 212.047,27.076 214.560,28.886 215.317 C 30.941 216.175,212.259 216.175,214.314 215.317 C 217.694 213.905,217.252 215.031,233.178 167.234 L 247.994 122.766 247.809 119.237 C 247.481 112.991,244.213 108.142,238.507 105.434 C 236.214 104.346,235.928 104.317,226.054 104.186 L 215.949 104.051 215.814 93.935 L 215.680 83.818 214.278 80.971 C 212.651 77.671,209.985 75.084,206.507 73.434 L 204.160 72.320 167.498 72.204 L 130.837 72.088 116.607 61.432 C 108.780 55.571,101.374 50.247,100.148 49.601 L 97.920 48.427 67.200 48.334 C 38.433 48.248,36.355 48.291,34.521 49.014 M107.555 74.719 C 115.397 80.614,122.869 85.942,124.160 86.559 L 126.507 87.680 163.200 87.893 L 199.893 88.107 199.893 96.000 L 199.893 103.893 171.093 104.107 C 142.984 104.315,142.247 104.341,140.361 105.214 C 139.298 105.706,133.826 109.162,128.201 112.894 L 117.973 119.680 91.947 119.893 C 66.004 120.106,65.912 120.110,63.487 121.090 C 60.808 122.172,57.306 125.074,55.865 127.406 C 55.354 128.232,51.609 137.200,47.541 147.334 L 40.146 165.760 40.126 114.880 L 40.107 64.000 66.702 64.000 L 93.296 64.000 107.555 74.719 M231.680 120.428 C 231.680 120.723,225.760 138.723,218.524 160.428 L 205.368 199.893 124.611 200.001 C 47.809 200.104,43.868 200.072,44.128 199.361 C 44.278 198.950,50.011 184.558,56.867 167.380 L 69.333 136.146 95.147 136.020 C 120.114 135.897,121.030 135.864,123.093 135.011 C 124.267 134.526,130.026 130.926,135.892 127.011 L 146.557 119.893 189.119 119.893 C 222.957 119.893,231.680 120.003,231.680 120.428 " stroke="none" fill-rule="evenodd"></path></svg>