<svg fill="currentColor" viewBox="0 0 256 256" xmlns="http://www.w3.org/2000/svg"><path d="M34.521 49.014 C 30.123 50.748,27.383 53.382,25.254 57.926 L 24.107 60.373 24.107 131.840 L 24.107 203.307 25.224 205.957 C 27.063 210.321,30.434 213.551,34.721 215.057 C 37.053 215.877,38.826 215.893,128.000 215.893 C 217.174 215.893,218.947 215.877,221.279 215.057 C 225.566 213.551,228.937 210.321,230.776 205.957 L 231.893 203.307 231.893 144.000 L 231.893 84.693 230.867 82.144 C 229.561 78.901,226.312 75.426,222.933 73.659 L 220.373 72.320 175.605 72.204 L 130.836 72.088 116.606 61.432 C 108.780 55.571,101.374 50.247,100.148 49.601 L 97.920 48.427 67.200 48.334 C 38.433 48.248,36.355 48.291,34.521 49.014 M103.825 71.898 C 109.612 76.241,114.347 79.887,114.347 80.000 C 114.347 80.113,109.612 83.759,103.825 88.102 L 93.303 96.000 66.705 96.000 L 40.107 96.000 40.107 80.000 L 40.107 64.000 66.705 64.000 L 93.303 64.000 103.825 71.898 M215.893 144.000 L 215.893 200.107 128.000 200.107 L 40.107 200.107 40.107 156.160 L 40.107 112.213 66.695 112.213 C 94.184 112.213,96.601 112.085,100.113 110.434 C 101.109 109.965,108.416 104.707,116.349 98.748 L 130.773 87.914 173.333 87.904 L 215.893 87.893 215.893 144.000 M100.198 145.076 C 97.176 146.673,95.657 149.825,96.191 153.389 C 96.568 155.899,99.156 158.916,101.488 159.564 C 102.452 159.832,112.499 159.995,128.000 159.995 C 143.501 159.995,153.548 159.832,154.512 159.564 C 156.844 158.916,159.432 155.899,159.809 153.389 C 160.351 149.775,158.806 146.634,155.710 145.055 C 154.120 144.244,153.115 144.214,127.910 144.232 C 102.903 144.250,101.692 144.287,100.198 145.076 " stroke="none" fill-rule="evenodd"></path></svg>