<svg fill="currentColor" viewBox="0 0 256 256" xmlns="http://www.w3.org/2000/svg"><path d="M34.521 49.014 C 30.123 50.748,27.383 53.382,25.254 57.926 L 24.107 60.373 23.993 130.560 C 23.916 177.800,24.024 201.444,24.321 202.880 C 25.369 207.929,28.713 212.281,33.264 214.518 L 35.627 215.680 78.675 215.795 L 121.724 215.909 123.610 214.996 C 126.399 213.646,127.787 211.322,127.787 208.000 C 127.787 204.686,126.398 202.353,123.627 201.012 C 121.762 200.109,121.662 200.107,80.932 200.107 L 40.107 200.107 40.107 132.053 L 40.107 64.000 66.702 64.000 L 93.296 64.000 107.555 74.719 C 115.397 80.614,122.869 85.942,124.160 86.559 L 126.507 87.680 171.200 87.794 L 215.893 87.909 215.903 104.648 C 215.911 120.009,215.977 121.527,216.700 123.093 C 217.653 125.159,219.004 126.459,221.112 127.340 C 225.329 129.102,230.369 126.613,231.697 122.114 C 232.012 121.046,232.119 114.721,232.027 102.613 C 231.892 84.837,231.882 84.673,230.865 82.144 C 229.561 78.901,226.314 75.427,222.933 73.659 L 220.373 72.320 175.605 72.204 L 130.836 72.088 116.606 61.432 C 108.780 55.571,101.374 50.247,100.148 49.601 L 97.920 48.427 67.200 48.334 C 38.433 48.248,36.355 48.291,34.521 49.014 M184.107 145.028 C 173.066 148.038,165.092 155.623,161.413 166.613 C 160.407 169.616,160.266 170.720,160.242 175.787 C 160.218 180.683,160.363 182.026,161.213 184.747 C 162.509 188.898,164.649 192.951,167.245 196.174 L 169.325 198.754 167.680 199.842 C 160.953 204.294,154.097 214.226,152.272 222.161 C 151.615 225.017,152.323 227.417,154.453 229.547 C 158.603 233.696,165.340 232.243,167.389 226.758 C 169.381 221.422,171.269 218.223,174.053 215.466 C 178.990 210.576,184.836 208.213,192.000 208.213 C 194.200 208.213,197.084 208.511,198.552 208.890 C 206.742 211.003,213.776 217.725,216.145 225.704 C 218.108 232.311,225.540 234.317,229.854 229.404 C 231.781 227.210,232.377 224.964,231.752 222.256 C 229.961 214.497,223.864 205.370,217.256 200.559 L 214.713 198.707 216.822 196.100 C 219.277 193.066,221.994 187.761,222.965 184.107 C 224.011 180.167,224.209 174.442,223.439 170.377 C 222.162 163.634,219.485 158.539,214.613 153.578 C 210.979 149.877,206.991 147.373,201.984 145.650 C 197.402 144.073,188.716 143.771,184.107 145.028 M199.115 161.915 C 202.608 163.642,204.753 165.826,206.453 169.387 C 207.431 171.435,207.573 172.275,207.573 176.000 C 207.573 179.739,207.432 180.569,206.426 182.714 C 202.646 190.781,192.941 194.153,184.813 190.223 C 182.089 188.906,178.950 185.650,177.574 182.714 C 176.568 180.569,176.427 179.739,176.427 176.000 C 176.427 172.275,176.569 171.435,177.547 169.387 C 179.112 166.107,181.268 163.795,184.231 162.215 C 187.591 160.424,189.480 159.996,193.058 160.213 C 195.375 160.353,196.718 160.731,199.115 161.915 " stroke="none" fill-rule="evenodd"></path></svg>