<svg fill="currentColor" viewBox="0 0 256 256" xmlns="http://www.w3.org/2000/svg"><path d="M157.440 24.339 C 125.285 26.103,97.433 36.139,74.667 54.168 C 68.981 58.670,58.805 68.854,54.183 74.667 C 29.095 106.217,19.274 148.760,26.064 196.480 C 27.426 206.052,28.960 210.545,32.616 215.669 C 36.688 221.376,42.585 225.670,49.280 227.806 C 58.618 230.784,83.404 232.747,98.773 231.724 C 131.911 229.519,158.549 219.875,181.333 201.832 C 187.019 197.330,197.195 187.146,201.817 181.333 C 226.905 149.783,236.726 107.240,229.936 59.520 C 228.950 52.591,228.176 49.480,226.502 45.719 C 223.039 37.941,215.631 31.186,207.548 28.437 C 202.142 26.599,190.528 25.024,177.204 24.323 C 168.446 23.863,166.091 23.865,157.440 24.339 M188.373 41.164 C 201.763 42.785,205.166 43.889,208.821 47.797 C 212.354 51.574,213.327 54.810,214.845 67.840 C 215.457 73.098,216.247 92.587,215.847 92.587 C 215.754 92.587,203.870 80.759,189.439 66.302 L 163.200 40.018 173.013 40.255 C 178.411 40.386,185.323 40.795,188.373 41.164 M213.459 116.846 C 209.702 137.001,200.697 157.095,188.824 171.817 C 171.931 192.762,147.896 207.012,119.499 212.915 L 113.707 214.120 77.820 178.267 L 41.933 142.415 42.541 139.154 C 46.202 119.515,54.323 100.994,66.005 85.646 C 70.269 80.044,80.044 70.269,85.646 66.005 C 100.437 54.747,117.591 47.016,136.501 43.085 L 142.293 41.880 178.180 77.733 L 214.067 113.585 213.459 116.846 M157.254 88.529 C 156.028 88.966,153.463 91.237,147.763 96.930 L 139.951 104.733 136.216 101.054 C 131.934 96.836,131.250 96.409,128.699 96.358 C 126.110 96.306,124.114 97.059,122.555 98.675 C 120.914 100.377,120.320 101.889,120.320 104.369 C 120.320 107.046,121.179 108.497,125.158 112.537 L 128.629 116.061 122.355 122.335 L 116.081 128.608 112.334 124.953 C 108.185 120.905,106.557 120.099,103.187 120.423 C 100.818 120.650,98.467 122.251,97.117 124.554 C 96.196 126.127,96.058 129.901,96.865 131.482 C 97.145 132.031,99.026 134.157,101.044 136.206 L 104.714 139.932 96.555 148.159 C 87.757 157.031,87.494 157.437,88.018 161.338 C 88.691 166.358,94.677 169.641,99.115 167.425 C 99.866 167.049,103.979 163.264,108.255 159.014 L 116.031 151.285 120.217 155.398 C 122.877 158.011,124.865 159.615,125.669 159.795 C 126.364 159.951,127.260 160.167,127.659 160.275 C 129.937 160.890,134.397 158.146,135.530 155.434 C 136.308 153.572,136.258 150.446,135.423 148.779 C 135.047 148.028,133.081 145.732,131.055 143.676 L 127.371 139.940 133.655 133.655 L 139.940 127.371 143.676 131.055 C 147.929 135.247,149.354 136.107,152.058 136.107 C 155.353 136.107,157.942 134.543,159.459 131.637 C 160.257 130.108,160.328 126.441,159.587 124.993 C 159.293 124.417,157.301 122.170,155.159 119.998 L 151.266 116.049 159.030 108.265 C 166.922 100.353,168.116 98.725,168.097 95.907 C 168.076 92.673,165.396 89.219,162.227 88.339 C 160.170 87.768,159.297 87.801,157.254 88.529 M66.561 189.696 L 92.800 215.978 82.773 215.750 C 69.016 215.436,56.573 213.866,52.284 211.903 C 49.061 210.427,45.912 207.358,44.384 204.205 C 42.236 199.770,40.621 187.593,40.234 172.907 C 40.096 167.685,40.060 163.413,40.153 163.413 C 40.246 163.413,52.130 175.240,66.561 189.696 " stroke="none" fill-rule="evenodd"></path></svg>