<svg fill="currentColor" viewBox="0 0 256 256" xmlns="http://www.w3.org/2000/svg"><path d="M44.587 32.709 C 42.677 33.716,41.574 34.853,40.804 36.610 C 40.424 37.477,38.270 49.227,36.018 62.720 C 31.414 90.298,31.350 91.220,33.458 99.530 C 37.858 116.877,51.007 130.005,68.513 134.531 L 72.107 135.460 72.107 180.555 C 72.107 211.380,72.250 226.031,72.560 226.852 C 73.562 229.504,77.234 232.088,80.000 232.088 C 82.766 232.088,86.438 229.504,87.440 226.852 C 87.750 226.031,87.893 211.380,87.893 180.555 L 87.893 135.460 91.487 134.531 C 108.993 130.005,122.142 116.877,126.542 99.530 C 128.651 91.218,128.587 90.299,123.978 62.720 C 121.724 49.227,119.664 37.651,119.401 36.996 C 117.084 31.231,109.352 30.244,105.551 35.227 C 103.581 37.809,103.681 39.025,107.953 64.427 C 111.476 85.376,111.841 88.060,111.639 91.520 C 111.017 102.143,103.870 112.661,94.108 117.320 C 86.855 120.782,78.422 121.501,71.040 119.288 C 68.928 118.655,66.144 117.545,64.853 116.822 C 55.263 111.446,48.962 101.780,48.361 91.520 C 48.159 88.060,48.524 85.376,52.047 64.427 C 56.319 39.025,56.419 37.809,54.449 35.227 C 52.194 32.271,47.629 31.105,44.587 32.709 M76.445 32.891 C 75.388 33.429,74.110 34.566,73.458 35.550 L 72.320 37.270 72.204 63.494 C 72.088 89.549,72.093 89.730,73.002 91.607 C 74.354 94.399,76.677 95.787,80.000 95.787 C 83.314 95.787,85.647 94.398,86.988 91.627 C 87.880 89.785,87.893 89.376,87.893 64.000 C 87.893 38.624,87.880 38.215,86.988 36.373 C 85.140 32.554,80.272 30.947,76.445 32.891 M201.600 34.277 C 174.169 48.086,155.791 80.338,147.636 128.978 C 145.637 140.904,144.317 154.367,144.133 164.693 C 144.032 170.390,144.215 171.128,146.292 173.371 C 148.831 176.114,147.512 175.988,175.040 176.123 L 200.107 176.246 200.107 200.948 C 200.107 217.365,200.259 226.054,200.560 226.852 C 201.562 229.504,205.234 232.088,208.000 232.088 C 210.766 232.088,214.438 229.504,215.440 226.852 C 215.755 226.017,215.893 197.116,215.893 131.947 L 215.893 38.243 214.988 36.373 C 213.811 33.941,211.540 32.442,208.580 32.144 C 206.445 31.929,205.981 32.071,201.600 34.277 M200.107 107.093 L 200.107 160.000 180.267 160.000 L 160.427 160.000 160.427 158.800 C 160.427 158.140,160.722 154.444,161.084 150.587 C 165.171 106.975,178.208 72.686,196.780 56.701 C 198.387 55.318,199.793 54.187,199.904 54.187 C 200.016 54.187,200.107 77.995,200.107 107.093 " stroke="none" fill-rule="evenodd"></path></svg>