<svg fill="currentColor" viewBox="0 0 256 256" xmlns="http://www.w3.org/2000/svg"><path d="M53.598 24.417 C 51.287 25.032,48.896 27.546,48.275 30.012 C 47.507 33.061,48.296 35.563,50.782 37.969 C 51.876 39.027,64.894 50.645,79.712 63.787 L 106.653 87.680 80.313 87.893 L 53.973 88.107 52.118 89.169 C 50.975 89.823,49.829 90.970,49.131 92.155 L 48.000 94.080 48.000 128.000 C 48.000 160.182,48.040 161.997,48.789 163.413 C 49.850 165.419,121.745 237.415,124.068 238.797 C 128.470 241.417,133.918 239.287,135.615 234.283 C 135.969 233.238,136.107 223.784,136.107 200.470 L 136.107 168.107 168.377 168.107 C 192.623 168.107,201.082 167.977,202.394 167.584 C 204.811 166.859,207.105 164.452,207.725 161.988 C 208.493 158.938,207.704 156.436,205.216 154.031 C 204.121 152.973,191.100 141.355,176.279 128.213 L 149.333 104.320 175.680 104.107 C 201.364 103.899,202.070 103.871,203.733 103.001 C 204.795 102.446,205.923 101.331,206.720 100.048 L 208.000 97.987 208.000 64.033 L 208.000 30.080 206.869 28.155 C 206.171 26.970,205.025 25.823,203.882 25.169 L 202.027 24.107 128.640 24.041 C 79.260 23.997,54.712 24.120,53.598 24.417 M192.000 64.000 L 192.000 87.893 161.487 87.893 L 130.974 87.893 104.314 64.186 C 89.651 51.147,77.653 40.395,77.653 40.292 C 77.653 40.190,103.381 40.107,134.827 40.107 L 192.000 40.107 192.000 64.000 M151.775 127.893 L 178.525 151.680 152.089 151.893 C 123.340 152.125,124.489 152.024,122.154 154.525 C 119.863 156.978,119.893 156.568,119.893 185.478 L 119.893 212.264 91.947 184.320 L 64.000 156.376 64.000 130.241 L 64.000 104.107 94.513 104.107 L 125.026 104.107 151.775 127.893 " stroke="none" fill-rule="evenodd"></path></svg>