<svg fill="currentColor" viewBox="0 0 256 256" xmlns="http://www.w3.org/2000/svg"><path d="M77.077 24.329 C 72.631 25.101,71.280 26.195,56.612 40.894 C 40.304 57.237,40.320 57.214,40.320 64.009 C 40.320 70.051,41.364 71.914,49.037 79.556 L 55.017 85.512 48.915 91.716 C 44.325 96.383,42.504 98.554,41.567 100.480 L 40.320 103.040 40.320 161.707 L 40.320 220.373 41.482 222.736 C 43.719 227.287,48.071 230.632,53.120 231.678 C 54.557 231.976,79.407 232.084,129.280 232.007 L 203.307 231.893 205.957 230.776 C 210.321 228.937,213.551 225.566,215.057 221.279 C 215.877 218.947,215.893 217.174,215.893 128.000 C 215.893 38.826,215.877 37.053,215.057 34.721 C 213.550 30.430,210.072 26.880,205.569 25.034 C 203.310 24.108,203.253 24.106,163.413 23.981 C 135.846 23.894,122.678 24.000,120.794 24.324 C 116.329 25.091,114.267 26.449,107.614 33.002 L 101.521 39.003 95.454 33.003 C 92.117 29.703,88.715 26.615,87.893 26.140 C 84.908 24.414,80.670 23.705,77.077 24.329 M78.293 62.293 L 66.352 74.241 61.232 69.121 L 56.112 64.001 68.053 52.053 L 79.995 40.106 85.115 45.226 L 90.235 50.346 78.293 62.293 M200.107 128.000 L 200.107 215.893 128.000 215.893 L 55.893 215.893 55.893 161.814 L 55.893 107.735 89.706 73.921 L 123.518 40.107 161.812 40.107 L 200.107 40.107 200.107 128.000 M132.907 56.702 C 127.361 59.270,126.243 65.939,130.703 69.854 C 131.555 70.603,132.976 71.427,133.860 71.686 C 134.966 72.010,142.196 72.116,157.050 72.025 L 178.634 71.893 180.395 70.672 C 185.378 67.218,184.976 59.853,179.653 57.073 L 177.396 55.893 156.005 55.903 C 136.094 55.911,134.495 55.967,132.907 56.702 M77.499 112.402 C 74.150 113.615,72.107 116.537,72.107 120.110 C 72.107 124.148,72.143 124.182,93.558 140.218 C 104.405 148.341,113.543 155.233,113.865 155.534 C 114.349 155.986,110.977 158.684,94.216 171.256 C 72.058 187.876,72.107 187.830,72.107 192.021 C 72.107 195.891,74.673 199.093,78.409 199.883 C 81.909 200.624,82.027 200.550,105.444 182.993 C 117.616 173.867,127.766 166.400,128.000 166.400 C 128.234 166.400,138.384 173.867,150.556 182.993 C 173.973 200.550,174.091 200.624,177.591 199.883 C 181.327 199.093,183.893 195.891,183.893 192.021 C 183.893 187.830,183.942 187.876,161.784 171.256 C 145.023 158.684,141.651 155.986,142.135 155.534 C 142.457 155.233,151.595 148.341,162.442 140.218 C 183.857 124.182,183.893 124.148,183.893 120.110 C 183.893 117.527,183.078 115.696,181.189 114.038 C 178.805 111.944,176.627 111.536,173.065 112.513 C 172.624 112.634,162.302 120.200,150.129 129.328 L 127.995 145.923 106.595 129.866 C 94.825 121.035,84.602 113.469,83.878 113.052 C 81.979 111.960,79.433 111.701,77.499 112.402 " stroke="none" fill-rule="evenodd"></path></svg>