<svg fill="currentColor" viewBox="0 0 256 256" xmlns="http://www.w3.org/2000/svg"><path d="M94.507 25.359 C 87.876 27.581,83.120 29.593,77.653 32.491 C 73.130 34.888,71.418 36.278,70.583 38.225 C 70.273 38.951,69.410 45.095,68.666 51.879 L 67.314 64.213 65.764 65.773 L 64.213 67.332 52.267 68.671 C 45.696 69.408,39.537 70.293,38.579 70.639 C 37.622 70.985,36.342 71.793,35.735 72.434 C 33.116 75.199,27.262 88.037,24.720 96.589 C 23.358 101.168,23.173 103.408,24.000 105.260 C 24.293 105.916,28.037 110.848,32.320 116.220 C 42.622 129.142,42.636 126.846,32.183 139.939 C 27.825 145.398,24.081 150.333,23.863 150.907 C 23.157 152.764,23.439 155.466,24.794 159.804 C 26.654 165.759,29.114 171.800,31.894 177.237 C 34.531 182.394,36.232 184.597,38.219 185.428 C 38.948 185.732,45.095 186.590,51.879 187.334 L 64.213 188.686 65.745 190.236 L 67.276 191.787 68.655 203.947 C 70.089 216.598,70.570 218.618,72.582 220.443 C 76.465 223.966,97.439 232.533,102.178 232.533 C 104.799 232.533,106.424 231.510,116.181 223.721 C 129.147 213.370,126.842 213.361,139.939 223.817 C 145.398 228.175,150.333 231.919,150.907 232.137 C 153.089 232.967,155.927 232.530,162.346 230.377 C 169.702 227.910,180.782 222.700,183.214 220.564 C 184.127 219.762,185.123 218.510,185.428 217.781 C 185.732 217.052,186.586 210.905,187.325 204.121 L 188.668 191.787 190.227 190.281 L 191.787 188.776 203.947 187.371 C 216.584 185.912,218.625 185.422,220.443 183.418 C 223.966 179.535,232.533 158.561,232.533 153.822 C 232.533 151.201,231.510 149.576,223.721 139.819 C 213.370 126.853,213.361 129.158,223.817 116.061 C 228.175 110.602,231.919 105.667,232.137 105.093 C 232.966 102.914,232.530 100.071,230.383 93.653 C 227.444 84.864,222.111 74.028,219.718 71.979 C 218.733 71.136,217.421 70.344,216.803 70.220 C 216.185 70.096,210.304 69.408,203.733 68.691 L 191.787 67.388 190.281 65.801 L 188.776 64.213 187.371 52.053 C 185.790 38.364,185.426 37.073,182.556 34.994 C 177.162 31.087,158.155 23.467,153.802 23.467 C 151.203 23.467,149.559 24.503,139.819 32.279 C 130.222 39.941,129.971 40.107,128.000 40.107 C 126.029 40.107,125.778 39.941,116.181 32.279 C 110.788 27.973,105.740 24.229,104.964 23.959 C 102.565 23.122,100.263 23.431,94.507 25.359 M165.973 44.322 L 170.453 46.304 171.783 57.881 C 172.514 64.248,173.249 70.002,173.416 70.668 C 173.752 72.009,182.516 81.180,184.409 82.172 C 185.326 82.652,206.108 85.333,208.915 85.333 C 209.848 85.333,215.467 97.993,215.467 100.096 C 215.467 100.439,212.384 104.562,208.616 109.257 C 204.848 113.952,201.354 118.490,200.852 119.341 C 200.044 120.710,199.930 121.602,199.861 127.111 C 199.819 130.533,199.961 134.060,200.179 134.949 C 200.454 136.070,202.895 139.468,208.175 146.074 L 215.775 155.583 214.393 159.392 C 212.049 165.849,209.648 170.667,208.774 170.668 C 206.557 170.670,186.056 173.231,184.960 173.643 C 183.509 174.188,174.769 182.646,173.835 184.409 C 173.348 185.329,170.667 206.067,170.667 208.916 C 170.667 209.885,158.090 215.467,155.908 215.467 C 155.562 215.467,151.438 212.384,146.743 208.616 C 142.048 204.848,137.510 201.354,136.659 200.852 C 135.290 200.044,134.398 199.930,128.889 199.861 C 125.467 199.819,121.940 199.961,121.051 200.179 C 119.929 200.454,116.532 202.896,109.924 208.177 L 100.413 215.779 96.606 214.417 C 94.513 213.667,91.160 212.284,89.155 211.343 L 85.510 209.631 84.142 197.595 C 83.341 190.547,82.521 185.081,82.163 184.406 C 81.235 182.652,72.492 174.187,71.055 173.650 C 69.977 173.248,49.484 170.686,47.226 170.672 C 46.670 170.668,45.964 169.612,44.724 166.933 C 42.755 162.675,40.533 156.830,40.533 155.904 C 40.533 155.561,43.616 151.438,47.384 146.743 C 51.152 142.048,54.652 137.501,55.161 136.638 C 55.982 135.246,56.096 134.372,56.172 128.868 C 56.220 125.457,56.071 121.940,55.842 121.051 C 55.559 119.955,52.979 116.375,47.812 109.911 L 40.199 100.385 41.794 96.166 C 42.672 93.845,44.060 90.498,44.879 88.728 L 46.370 85.510 58.406 84.142 C 65.453 83.341,70.919 82.521,71.594 82.163 C 72.966 81.437,81.621 72.725,82.301 71.387 C 82.684 70.633,85.333 49.399,85.333 47.085 C 85.333 46.152,97.993 40.533,100.096 40.533 C 100.439 40.533,104.562 43.616,109.257 47.384 C 113.952 51.152,118.490 54.646,119.341 55.148 C 120.710 55.956,121.602 56.070,127.111 56.139 C 130.533 56.181,134.060 56.039,134.949 55.821 C 136.073 55.546,139.442 53.119,146.042 47.829 L 155.520 40.232 158.507 41.286 C 160.149 41.866,163.509 43.232,165.973 44.322 M122.823 80.222 C 103.245 82.438,86.729 96.519,81.709 115.274 C 77.192 132.154,81.841 149.693,94.074 161.926 C 106.307 174.159,123.846 178.808,140.726 174.291 C 156.780 169.994,169.994 156.780,174.291 140.726 C 180.207 118.618,170.128 95.689,149.945 85.341 C 141.756 81.143,131.610 79.228,122.823 80.222 M136.067 97.033 C 139.655 98.016,145.011 100.769,147.978 103.155 C 155.245 108.999,160.000 118.826,160.000 128.000 C 160.000 140.482,151.738 152.844,140.277 157.508 C 124.186 164.056,106.551 157.162,99.176 141.440 C 96.768 136.306,96.222 133.824,96.222 128.000 C 96.222 122.176,96.768 119.694,99.176 114.560 C 103.641 105.042,112.395 98.292,122.699 96.423 C 125.548 95.906,133.235 96.257,136.067 97.033 " stroke="none" fill-rule="evenodd"></path></svg>