<svg fill="currentColor" viewBox="0 0 256 256" xmlns="http://www.w3.org/2000/svg"><path d="M167.040 24.093 C 166.805 24.177,166.100 24.358,165.473 24.496 C 162.768 25.090,160.019 28.872,160.019 32.000 C 160.019 33.829,161.242 36.583,162.616 37.846 C 164.882 39.929,166.057 40.107,177.585 40.107 L 188.372 40.107 175.941 52.537 L 163.510 64.968 160.582 62.629 C 151.100 55.055,141.222 50.636,129.685 48.809 C 124.189 47.938,112.013 48.189,107.093 49.273 C 94.389 52.074,83.730 57.887,74.648 66.969 C 63.113 78.503,56.741 92.958,56.017 109.230 C 54.612 140.795,76.858 168.935,107.847 174.793 L 111.787 175.538 111.787 183.769 L 111.787 192.000 99.093 192.009 C 84.877 192.020,83.983 192.177,81.788 195.055 C 80.731 196.441,79.698 199.693,79.998 200.693 C 80.077 200.957,80.257 201.698,80.397 202.339 C 80.714 203.786,82.889 206.311,84.650 207.275 C 85.795 207.902,87.706 208.018,98.852 208.135 L 111.731 208.269 111.865 221.148 C 111.982 232.294,112.098 234.205,112.725 235.350 C 113.689 237.111,116.214 239.286,117.661 239.603 C 118.302 239.743,119.043 239.923,119.307 240.002 C 120.307 240.302,123.559 239.269,124.945 238.212 C 127.823 236.017,127.980 235.123,127.991 220.907 L 128.000 208.213 139.712 208.213 C 146.589 208.213,152.324 208.020,153.604 207.746 C 159.382 206.507,161.940 199.419,158.161 195.115 C 155.537 192.126,154.939 192.020,140.693 192.009 L 128.000 192.000 128.000 183.766 L 128.000 175.532 132.072 174.772 C 158.180 169.896,178.550 148.933,183.117 122.240 C 183.852 117.941,183.955 115.992,183.757 110.080 C 183.398 99.379,181.597 92.345,176.765 82.778 L 174.073 77.448 187.090 64.432 L 200.107 51.415 200.107 62.628 C 200.107 71.200,200.245 74.164,200.694 75.214 C 202.086 78.468,206.141 80.490,209.686 79.698 C 211.892 79.205,212.983 78.482,214.478 76.522 L 215.680 74.947 215.806 53.154 C 215.875 41.167,215.818 30.732,215.678 29.964 C 215.383 28.338,213.352 25.870,211.457 24.832 C 210.267 24.180,207.971 24.098,188.800 24.024 C 177.067 23.979,167.275 24.010,167.040 24.093 M129.552 65.029 C 148.676 69.083,163.448 84.078,167.080 103.120 C 167.943 107.649,168.034 115.477,167.273 119.893 C 162.408 148.149,134.096 165.955,106.672 158.008 C 83.501 151.293,68.870 128.136,72.737 104.297 C 76.086 83.648,92.944 67.253,113.707 64.451 C 117.627 63.922,125.724 64.218,129.552 65.029 " stroke="none" fill-rule="evenodd"></path></svg>