<svg fill="currentColor" viewBox="0 0 256 256" xmlns="http://www.w3.org/2000/svg"><path d="M121.302 24.323 C 92.054 26.753,65.913 45.598,54.511 72.471 C 47.903 88.046,46.304 105.364,49.975 121.600 C 55.070 144.130,69.908 163.571,90.453 174.634 C 97.796 178.588,107.906 181.935,115.937 183.070 L 119.874 183.627 119.990 208.827 C 120.104 233.445,120.127 234.066,120.999 235.733 C 122.265 238.156,125.181 239.885,128.000 239.885 C 130.819 239.885,133.735 238.156,135.001 235.733 C 135.873 234.066,135.896 233.445,136.010 208.853 L 136.127 183.680 140.787 182.923 C 170.125 178.154,194.657 157.195,203.921 128.984 C 213.378 100.185,205.950 68.976,184.542 47.563 C 167.824 30.840,144.780 22.372,121.302 24.323 M140.795 41.354 C 164.886 46.479,183.695 64.411,189.864 88.134 C 196.637 114.184,186.009 141.970,163.504 157.050 C 149.157 166.663,131.789 170.070,114.908 166.583 C 79.711 159.313,57.364 123.762,65.980 88.747 C 72.227 63.364,93.686 44.069,119.554 40.578 C 124.438 39.918,136.040 40.342,140.795 41.354 " stroke="none" fill-rule="evenodd"></path></svg>