<svg fill="currentColor" viewBox="0 0 256 256" xmlns="http://www.w3.org/2000/svg"><path d="M164.903 32.796 C 159.592 35.208,158.418 41.748,162.582 45.719 C 164.992 48.017,166.559 48.213,182.527 48.213 L 196.478 48.213 182.303 62.389 L 168.127 76.565 158.623 67.138 C 153.397 61.953,148.452 57.371,147.637 56.955 C 145.799 56.017,142.282 55.971,140.577 56.861 C 136.685 58.892,135.080 63.277,136.758 67.293 C 137.168 68.275,140.961 72.425,146.990 78.492 L 156.571 88.131 148.757 95.937 L 140.942 103.743 137.351 101.146 C 133.026 98.020,124.100 93.500,118.827 91.767 C 104.367 87.014,87.220 87.060,73.088 91.890 C 47.905 100.497,29.754 121.690,25.142 147.870 C 23.899 154.925,23.897 165.067,25.139 172.112 C 29.178 195.038,43.911 214.629,64.640 224.639 C 76.168 230.207,89.873 232.819,101.715 231.707 C 111.584 230.780,119.567 228.522,128.213 224.212 C 163.733 206.508,178.139 163.297,160.345 127.837 C 158.212 123.588,154.737 118.035,153.026 116.146 L 152.144 115.171 160.003 107.303 L 167.862 99.436 177.691 109.175 C 188.318 119.704,188.983 120.169,192.890 119.793 C 195.647 119.528,197.735 118.051,199.047 115.436 C 201.360 110.829,200.807 109.850,189.224 98.065 C 183.946 92.694,179.627 88.159,179.627 87.988 C 179.627 87.816,185.963 81.341,193.707 73.600 L 207.787 59.525 207.787 73.475 C 207.787 81.973,207.969 88.276,208.254 89.604 C 209.156 93.810,213.056 96.458,217.389 95.809 C 219.899 95.432,222.916 92.844,223.564 90.512 C 224.138 88.444,224.149 39.592,223.575 37.528 C 223.344 36.696,222.529 35.410,221.764 34.669 C 218.927 31.924,219.771 31.999,191.907 32.009 C 168.364 32.018,166.495 32.073,164.903 32.796 M104.107 104.734 C 122.631 107.581,138.156 118.925,146.154 135.461 C 153.891 151.454,153.807 169.070,145.917 184.960 C 142.888 191.062,140.200 194.786,135.279 199.702 C 127.572 207.401,118.146 212.464,106.994 214.897 C 101.983 215.990,89.970 215.979,84.907 214.877 C 73.857 212.471,64.354 207.318,56.518 199.482 C 30.980 173.944,35.950 131.624,66.739 112.434 C 77.588 105.673,91.523 102.801,104.107 104.734 " stroke="none" fill-rule="evenodd"></path></svg>