<svg fill="currentColor" viewBox="0 0 256 256" xmlns="http://www.w3.org/2000/svg"><path d="M123.307 24.169 C 112.182 24.712,100.456 27.420,90.240 31.807 C 58.017 45.643,35.871 75.933,32.435 110.872 C 31.825 117.066,31.842 217.126,32.453 218.746 C 33.067 220.375,35.326 222.693,37.000 223.411 C 38.775 224.173,41.031 224.160,42.903 223.378 C 43.722 223.036,49.980 218.188,56.811 212.605 C 63.641 207.021,69.276 202.453,69.333 202.453 C 69.391 202.453,75.026 207.021,81.856 212.605 C 88.686 218.188,94.996 223.057,95.878 223.425 C 97.706 224.189,101.082 223.976,102.568 223.003 C 103.070 222.674,108.903 217.963,115.531 212.535 C 122.159 207.108,127.770 202.667,128.000 202.667 C 128.230 202.667,133.841 207.108,140.469 212.535 C 147.097 217.963,152.930 222.674,153.432 223.003 C 154.918 223.976,158.294 224.189,160.122 223.425 C 161.004 223.057,167.314 218.188,174.144 212.605 C 180.974 207.021,186.609 202.453,186.667 202.453 C 186.724 202.453,192.359 207.021,199.189 212.605 C 206.020 218.188,212.278 223.036,213.097 223.378 C 214.969 224.160,217.225 224.173,219.000 223.411 C 220.674 222.693,222.933 220.375,223.547 218.746 C 224.180 217.066,224.173 117.096,223.539 110.687 C 220.093 75.854,197.955 45.631,165.760 31.807 C 152.791 26.238,137.455 23.479,123.307 24.169 M138.111 40.762 C 173.963 45.429,202.172 73.330,207.116 109.013 C 207.746 113.560,207.812 118.872,207.700 156.423 L 207.573 198.713 199.362 191.990 C 194.845 188.293,190.377 184.958,189.433 184.580 C 185.314 182.932,184.471 183.394,169.980 195.227 L 157.291 205.590 154.272 203.098 C 139.918 191.250,132.710 185.441,131.627 184.849 C 130.880 184.442,129.369 184.150,128.000 184.150 C 126.631 184.150,125.120 184.442,124.373 184.849 C 123.290 185.441,116.081 191.250,101.727 203.098 L 98.708 205.590 86.255 195.425 C 79.405 189.835,73.032 184.953,72.092 184.577 C 68.190 183.016,66.802 183.674,56.890 191.786 L 48.427 198.711 48.300 156.422 C 48.160 109.390,48.175 109.060,50.998 98.773 C 61.483 60.562,98.884 35.655,138.111 40.762 M95.892 104.715 C 88.923 107.203,85.924 115.452,89.630 121.942 C 91.984 126.063,96.337 128.320,101.100 127.888 C 109.465 127.130,114.458 118.322,110.782 110.809 C 109.393 107.971,106.912 105.696,104.194 104.770 C 101.833 103.965,98.064 103.940,95.892 104.715 M151.631 104.771 C 149.050 105.724,146.558 108.070,145.218 110.808 C 141.534 118.337,146.518 127.128,154.900 127.888 C 158.148 128.183,160.626 127.472,163.200 125.509 C 170.127 120.227,169.422 109.974,161.827 105.523 C 159.408 104.105,154.429 103.738,151.631 104.771 " stroke="none" fill-rule="evenodd"></path></svg>