<svg fill="currentColor" viewBox="0 0 256 256" xmlns="http://www.w3.org/2000/svg"><path d="M66.778 32.427 C 56.562 34.275,47.981 40.643,43.497 49.707 C 38.002 60.815,39.225 73.646,46.724 83.559 C 50.218 88.178,54.876 91.617,60.715 93.888 L 63.787 95.083 63.896 128.128 L 64.005 161.172 62.631 161.447 C 60.164 161.941,54.460 165.008,51.597 167.382 C 44.371 173.371,40.107 182.508,40.107 192.000 C 40.107 206.549,49.718 219.015,64.000 222.989 C 68.274 224.179,76.453 224.075,80.640 222.778 C 97.540 217.545,107.185 200.861,102.996 184.107 C 102.644 182.699,101.464 179.723,100.374 177.493 C 98.700 174.068,97.794 172.843,94.530 169.583 C 90.576 165.635,86.336 162.956,82.027 161.681 L 80.213 161.145 80.213 128.000 L 80.213 94.855 82.027 94.319 C 85.491 93.294,90.429 90.380,93.469 87.565 C 98.188 83.196,101.365 77.941,103.087 71.655 C 104.216 67.534,104.133 60.069,102.910 55.766 C 99.754 44.660,91.503 36.355,80.567 33.274 C 77.008 32.272,70.013 31.842,66.778 32.427 M140.813 40.782 C 138.863 41.628,137.895 42.542,136.915 44.463 C 136.148 45.965,136.107 47.371,136.107 71.849 C 136.107 89.042,136.258 98.052,136.560 98.852 C 137.562 101.504,141.234 104.088,144.000 104.088 C 146.766 104.088,150.438 101.504,151.440 98.852 C 151.729 98.087,151.896 92.130,151.900 82.426 L 151.906 67.200 168.007 83.413 C 181.874 97.377,184.397 100.114,186.189 103.141 C 188.670 107.331,190.924 113.717,191.548 118.324 C 191.812 120.271,192.000 129.895,192.000 141.418 L 192.000 161.173 190.629 161.448 C 188.164 161.941,182.459 165.009,179.597 167.382 C 172.371 173.371,168.107 182.508,168.107 192.000 C 168.107 206.549,177.718 219.015,192.000 222.989 C 196.274 224.179,204.453 224.075,208.640 222.778 C 225.540 217.545,235.185 200.861,230.996 184.107 C 230.644 182.699,229.464 179.723,228.374 177.493 C 226.700 174.068,225.794 172.843,222.530 169.583 C 218.576 165.635,214.336 162.956,210.027 161.681 L 208.213 161.145 208.213 142.300 C 208.213 131.733,208.008 121.407,207.745 118.794 C 206.680 108.193,202.931 98.433,196.778 90.240 C 195.721 88.832,187.737 80.528,179.036 71.787 L 163.215 55.893 178.433 55.893 C 188.148 55.893,194.085 55.729,194.852 55.440 C 197.504 54.438,200.088 50.766,200.088 48.000 C 200.088 45.234,197.504 41.562,194.852 40.560 C 194.050 40.257,185.118 40.112,167.972 40.123 C 146.073 40.138,142.075 40.235,140.813 40.782 M78.581 49.568 C 81.966 51.146,84.647 53.769,86.293 57.112 C 87.563 59.692,87.680 60.270,87.680 63.991 C 87.680 67.498,87.525 68.384,86.545 70.475 C 85.021 73.725,82.482 76.381,79.254 78.102 C 74.255 80.767,67.372 80.292,62.889 76.972 C 58.471 73.702,56.224 69.328,56.224 64.000 C 56.224 57.234,60.429 51.208,66.703 48.982 C 70.002 47.812,75.382 48.077,78.581 49.568 M79.254 177.890 C 82.486 179.622,85.023 182.279,86.545 185.525 C 87.524 187.615,87.680 188.502,87.680 192.000 C 87.680 195.498,87.524 196.385,86.545 198.475 C 82.642 206.800,73.426 210.175,65.059 206.345 C 58.875 203.514,55.101 196.164,56.335 189.357 C 57.398 183.496,60.877 179.273,66.521 176.996 C 68.056 176.376,69.356 176.233,72.533 176.333 C 76.188 176.448,76.849 176.601,79.254 177.890 M206.581 177.568 C 209.966 179.146,212.647 181.769,214.293 185.112 C 215.563 187.692,215.680 188.270,215.680 191.991 C 215.680 195.498,215.525 196.384,214.545 198.475 C 213.021 201.725,210.482 204.381,207.254 206.102 C 202.255 208.767,195.372 208.292,190.889 204.972 C 186.471 201.702,184.224 197.328,184.224 192.000 C 184.224 185.234,188.429 179.208,194.703 176.982 C 198.002 175.812,203.382 176.077,206.581 177.568 " stroke="none" fill-rule="evenodd"></path></svg>