<svg fill="currentColor" viewBox="0 0 256 256" xmlns="http://www.w3.org/2000/svg"><path d="M51.317 16.202 C 48.602 16.845,47.654 17.676,42.000 24.376 C 19.391 51.165,10.717 88.546,19.213 122.582 C 29.656 164.418,62.164 196.085,104.228 205.396 C 108.451 206.331,111.106 206.757,118.080 207.616 L 119.893 207.839 119.893 215.919 L 119.893 224.000 107.200 224.009 C 95.808 224.018,94.330 224.099,92.782 224.802 C 89.257 226.403,87.318 230.189,88.245 233.658 C 88.958 236.322,89.844 237.510,92.114 238.844 L 94.080 240.000 128.000 240.000 L 161.920 240.000 163.886 238.844 C 168.361 236.214,169.356 230.831,166.086 226.945 C 163.742 224.159,162.924 224.020,148.800 224.009 L 136.107 224.000 136.107 215.924 L 136.107 207.848 138.560 207.571 C 163.372 204.774,184.847 195.382,202.453 179.629 C 206.638 175.885,207.885 173.941,207.885 171.163 C 207.885 166.631,204.541 163.202,200.149 163.229 C 197.189 163.247,196.122 163.815,191.787 167.681 C 178.326 179.685,161.976 187.583,144.000 190.766 C 136.769 192.047,123.351 192.345,116.068 191.387 C 105.026 189.934,94.312 186.653,84.693 181.777 C 55.147 166.801,35.595 138.167,32.385 105.173 C 31.787 99.026,32.112 87.256,33.040 81.493 C 34.651 71.483,37.127 63.632,41.585 54.400 C 45.888 45.487,50.387 38.848,57.685 30.637 C 60.399 27.584,61.013 26.330,61.013 23.844 C 61.013 18.938,56.104 15.069,51.317 16.202 M119.040 16.482 C 91.617 19.832,68.204 36.403,56.127 61.011 C 41.158 91.511,47.351 128.306,71.522 152.478 C 82.743 163.698,97.200 171.445,112.604 174.491 C 147.467 181.385,183.028 164.042,199.196 132.259 C 205.846 119.187,208.776 104.852,207.751 90.400 C 205.192 54.304,178.919 24.647,143.147 17.474 C 139.379 16.718,136.686 16.509,129.493 16.416 C 124.565 16.352,119.861 16.382,119.040 16.482 M139.307 33.079 C 144.170 33.937,152.056 36.549,156.444 38.755 C 168.424 44.778,179.222 55.576,185.245 67.556 C 187.459 71.959,190.052 79.795,190.986 84.907 C 191.998 90.440,191.998 101.560,190.986 107.093 C 188.724 119.466,182.836 130.981,174.138 140.043 C 154.322 160.688,124.482 165.766,98.789 152.865 C 87.646 147.269,76.602 136.073,70.755 124.444 C 68.541 120.041,65.948 112.205,65.014 107.093 C 63.896 100.980,63.977 90.345,65.187 84.257 C 67.832 70.953,73.405 60.508,82.957 50.957 C 93.884 40.029,106.221 34.187,122.453 32.253 C 125.336 31.910,135.506 32.408,139.307 33.079 " stroke="none" fill-rule="evenodd"></path></svg>