<svg fill="currentColor" viewBox="0 0 256 256" xmlns="http://www.w3.org/2000/svg"><path d="M120.960 24.326 C 100.935 25.586,81.587 32.844,64.891 45.360 C 59.554 49.360,49.234 59.686,45.276 64.986 C 34.512 79.399,27.973 94.882,25.095 112.768 C 23.886 120.283,23.787 134.307,24.890 141.867 C 27.542 160.046,34.293 176.318,45.279 191.014 C 49.299 196.392,59.608 206.701,64.986 210.721 C 79.686 221.710,96.000 228.476,114.133 231.105 C 117.683 231.620,121.936 231.847,128.000 231.847 C 144.598 231.847,158.874 228.583,173.440 221.458 C 184.661 215.968,192.320 210.472,201.396 201.396 C 210.475 192.317,215.974 184.654,221.456 173.440 C 235.707 144.287,235.458 110.173,220.780 81.026 C 214.698 68.950,203.517 55.194,193.067 46.931 C 172.349 30.550,147.221 22.673,120.960 24.326 M130.413 42.987 C 143.067 57.669,152.332 77.075,156.813 98.283 C 157.949 103.654,159.573 115.382,159.573 118.203 L 159.573 119.893 128.000 119.893 L 96.427 119.893 96.431 118.293 C 96.433 117.413,96.723 114.244,97.075 111.251 C 100.135 85.263,109.687 62.008,124.677 44.053 C 126.294 42.117,127.770 40.533,127.957 40.533 C 128.145 40.533,129.250 41.637,130.413 42.987 M102.682 46.991 C 90.368 65.911,82.334 90.834,80.383 116.160 L 80.096 119.893 60.315 119.893 C 41.759 119.893,40.533 119.847,40.535 119.147 C 40.539 117.555,41.900 110.104,42.932 106.033 C 44.907 98.235,48.832 89.048,53.309 81.743 C 62.298 67.075,76.605 54.641,92.617 47.581 C 96.375 45.924,104.612 43.030,104.861 43.278 C 104.940 43.358,103.959 45.028,102.682 46.991 M159.360 45.930 C 177.082 52.731,192.947 65.843,202.691 81.743 C 207.168 89.048,211.093 98.235,213.068 106.033 C 214.100 110.104,215.461 117.555,215.465 119.147 C 215.467 119.847,214.241 119.893,195.685 119.893 L 175.904 119.893 175.617 116.160 C 174.232 98.179,169.922 80.750,162.964 64.996 C 160.358 59.098,155.572 50.241,152.723 46.046 C 151.797 44.682,151.040 43.471,151.040 43.353 C 151.040 43.033,155.029 44.268,159.360 45.930 M80.383 139.840 C 82.334 165.166,90.368 190.089,102.682 209.009 C 103.959 210.972,104.937 212.646,104.854 212.728 C 104.478 213.104,94.001 209.171,89.369 206.914 C 74.933 199.883,61.630 187.835,53.309 174.257 C 48.832 166.952,44.907 157.765,42.932 149.967 C 41.900 145.896,40.539 138.445,40.535 136.853 C 40.533 136.153,41.759 136.107,60.315 136.107 L 80.096 136.107 80.383 139.840 M159.573 137.797 C 159.573 142.933,157.206 157.070,154.886 165.790 C 150.227 183.301,140.405 202.114,129.953 213.547 L 128.002 215.680 126.262 213.760 C 113.777 199.988,103.720 179.170,99.187 157.717 C 98.051 152.346,96.427 140.618,96.427 137.797 L 96.427 136.107 128.000 136.107 L 159.573 136.107 159.573 137.797 M215.465 136.853 C 215.461 138.445,214.100 145.896,213.068 149.967 C 211.093 157.765,207.168 166.952,202.691 174.257 C 194.364 187.845,181.137 199.818,166.613 206.915 C 162.004 209.167,151.524 213.106,151.146 212.728 C 151.063 212.646,152.037 210.972,153.310 209.009 C 165.648 189.987,173.671 165.109,175.617 139.840 L 175.904 136.107 195.685 136.107 C 214.241 136.107,215.467 136.153,215.465 136.853 " stroke="none" fill-rule="evenodd"></path></svg>