<svg fill="currentColor" viewBox="0 0 256 256" xmlns="http://www.w3.org/2000/svg"><path d="M64.252 64.469 C 36.519 67.393,12.547 86.795,3.679 113.493 C 0.381 123.423,-0.910 135.333,0.646 141.457 C 2.451 148.557,7.130 154.410,13.444 157.466 C 16.802 159.092,16.939 159.217,17.909 161.558 C 23.632 175.365,44.247 188.331,65.575 191.539 C 85.362 194.514,103.976 182.941,110.124 163.840 L 111.291 160.213 128.000 160.213 L 144.709 160.213 145.876 163.840 C 150.649 178.667,162.974 189.200,178.374 191.611 C 182.704 192.289,189.914 191.843,195.494 190.552 C 215.359 185.955,232.271 174.617,237.725 162.239 L 239.088 159.145 242.554 157.467 C 250.906 153.425,256.000 145.011,256.000 135.259 C 256.000 118.698,249.063 100.803,237.818 88.356 C 225.304 74.505,209.335 66.319,191.147 64.435 C 186.185 63.921,69.154 63.953,64.252 64.469 M197.218 81.573 C 208.171 84.598,215.876 88.982,223.460 96.504 C 233.400 106.364,239.104 119.052,239.633 132.480 C 239.823 137.300,239.749 138.219,239.072 139.495 C 238.644 140.302,238.101 141.021,237.867 141.093 C 237.632 141.166,236.870 140.121,236.173 138.772 C 234.355 135.252,226.970 127.931,221.867 124.590 C 214.164 119.547,203.518 115.106,194.560 113.199 C 189.147 112.046,178.073 112.159,173.510 113.412 C 165.114 115.719,156.380 121.858,151.206 129.090 C 149.113 132.016,146.546 137.454,145.578 141.013 L 144.766 144.000 128.051 144.112 C 114.887 144.200,111.304 144.109,111.182 143.685 C 108.391 133.965,106.246 130.126,100.272 124.160 C 93.792 117.688,87.715 114.363,79.573 112.836 C 74.949 111.969,66.013 112.181,61.013 113.275 C 52.301 115.184,41.659 119.663,34.133 124.590 C 29.030 127.931,21.645 135.252,19.827 138.772 C 19.130 140.121,18.368 141.166,18.133 141.093 C 17.899 141.021,17.371 140.302,16.961 139.495 C 15.999 137.602,15.959 131.706,16.873 126.456 C 20.395 106.220,34.789 89.519,54.350 82.974 C 62.823 80.139,58.985 80.273,129.280 80.354 L 193.067 80.427 197.218 81.573 M76.922 128.628 C 81.589 129.617,85.113 131.585,88.758 135.236 C 95.367 141.856,97.489 150.441,94.713 159.320 L 93.791 162.267 77.625 146.105 C 68.734 137.216,61.605 129.798,61.782 129.620 C 62.250 129.153,68.931 128.093,71.680 128.051 C 72.971 128.031,75.330 128.291,76.922 128.628 M193.493 129.466 C 206.418 132.668,219.090 140.512,222.669 147.527 C 225.026 152.148,223.756 156.550,218.610 161.596 L 215.784 164.367 197.921 146.508 C 183.501 132.091,180.202 128.587,180.803 128.324 C 182.119 127.750,189.101 128.378,193.493 129.466 M81.920 173.680 C 81.920 174.334,76.594 175.532,72.958 175.695 C 58.158 176.360,36.289 165.062,32.618 154.854 C 30.857 149.957,34.266 144.055,42.009 138.596 L 44.978 136.502 63.449 154.969 C 73.608 165.126,81.920 173.546,81.920 173.680 M200.204 172.416 C 199.619 172.941,194.335 174.509,190.996 175.148 C 181.223 177.018,173.342 174.965,167.257 168.964 C 159.305 161.122,157.862 149.038,163.723 139.367 L 165.238 136.868 182.876 154.502 C 192.577 164.201,200.374 172.262,200.204 172.416 " stroke="none" fill-rule="evenodd"></path></svg>