<svg fill="currentColor" viewBox="0 0 256 256" xmlns="http://www.w3.org/2000/svg"><path d="M120.960 24.326 C 100.935 25.586,81.587 32.844,64.891 45.360 C 59.554 49.360,49.234 59.686,45.276 64.986 C 34.512 79.399,27.973 94.882,25.095 112.768 C 23.886 120.283,23.787 134.307,24.890 141.867 C 27.542 160.046,34.293 176.318,45.279 191.014 C 49.299 196.392,59.608 206.701,64.986 210.721 C 79.686 221.710,96.000 228.476,114.133 231.105 C 117.683 231.620,121.936 231.847,128.000 231.847 C 144.598 231.847,158.874 228.583,173.440 221.458 C 184.661 215.968,192.320 210.472,201.396 201.396 C 210.475 192.317,215.974 184.654,221.456 173.440 C 235.707 144.287,235.458 110.173,220.780 81.026 C 214.698 68.950,203.517 55.194,193.067 46.931 C 172.349 30.550,147.221 22.673,120.960 24.326 M141.700 41.116 C 156.826 43.739,169.750 49.311,181.756 58.385 C 186.498 61.968,194.415 70.014,198.123 75.017 C 199.918 77.439,201.387 79.594,201.387 79.805 C 201.387 80.029,184.442 80.240,160.747 80.311 L 120.107 80.433 115.935 81.582 C 102.476 85.287,91.105 94.529,85.073 106.669 C 84.080 108.668,83.135 110.829,82.974 111.472 C 82.813 112.114,82.558 112.634,82.407 112.626 C 82.257 112.619,77.022 103.739,70.775 92.893 C 62.818 79.079,59.518 72.977,59.755 72.518 C 59.941 72.157,61.788 70.059,63.860 67.855 C 78.163 52.643,96.997 43.179,118.187 40.557 C 122.677 40.002,137.277 40.348,141.700 41.116 M68.608 121.173 C 78.567 138.421,87.643 153.877,88.779 155.520 C 96.734 167.024,109.355 174.302,123.918 175.784 C 128.050 176.204,134.652 175.856,137.132 175.086 C 137.912 174.844,137.910 174.891,137.075 176.270 C 136.597 177.060,131.454 185.963,125.646 196.053 C 119.839 206.144,114.947 214.556,114.776 214.746 C 114.606 214.936,112.224 214.589,109.483 213.974 C 93.346 210.355,79.280 202.940,67.565 191.877 C 52.499 177.648,42.649 157.645,40.555 137.021 C 38.994 121.645,41.649 105.407,48.000 91.496 C 49.380 88.473,49.599 88.199,50.025 88.960 C 50.288 89.429,58.650 103.925,68.608 121.173 M136.522 97.294 C 142.061 98.849,146.081 101.247,150.417 105.583 C 156.902 112.068,159.749 118.907,159.749 128.000 C 159.749 137.082,156.908 143.913,150.417 150.436 C 147.155 153.715,145.935 154.620,142.507 156.303 C 136.926 159.042,133.961 159.746,128.000 159.746 C 122.039 159.746,119.074 159.042,113.493 156.303 C 110.065 154.620,108.845 153.715,105.583 150.436 C 99.092 143.913,96.251 137.082,96.251 128.000 C 96.251 118.907,99.098 112.068,105.583 105.583 C 110.746 100.419,115.865 97.759,123.234 96.407 C 126.286 95.848,132.954 96.293,136.522 97.294 M210.836 98.347 C 212.382 102.316,214.539 111.543,215.274 117.333 C 216.205 124.658,215.942 135.729,214.667 142.933 C 212.524 155.042,208.105 166.219,201.509 176.213 C 188.708 195.611,169.430 208.876,146.709 213.920 C 142.344 214.889,133.191 216.146,132.924 215.813 C 132.865 215.740,140.865 201.760,150.702 184.747 C 169.656 151.965,171.901 147.871,173.500 143.177 C 178.528 128.422,175.691 111.325,166.169 99.002 L 163.844 95.993 186.925 96.103 L 210.006 96.213 210.836 98.347 " stroke="none" fill-rule="evenodd"></path></svg>