<svg fill="currentColor" viewBox="0 0 256 256" xmlns="http://www.w3.org/2000/svg"><path d="M122.586 17.897 C 106.421 26.710,88.982 44.006,81.717 58.432 C 80.902 60.051,80.062 61.483,79.850 61.614 C 79.639 61.745,78.050 61.368,76.319 60.777 C 68.215 58.009,59.182 56.388,50.954 56.226 C 46.906 56.146,45.605 56.269,44.587 56.825 C 42.902 57.745,41.125 59.653,40.560 61.148 C 39.938 62.794,39.932 149.009,40.554 154.038 C 43.808 180.366,57.929 203.161,80.000 217.713 C 95.554 227.969,116.019 233.263,134.293 231.758 C 176.951 228.246,210.211 196.393,215.446 154.038 C 216.068 149.009,216.062 62.794,215.440 61.148 C 214.875 59.653,213.098 57.745,211.413 56.825 C 210.395 56.269,209.094 56.146,205.046 56.226 C 196.732 56.390,188.824 57.794,180.133 60.650 C 177.948 61.368,176.098 61.887,176.023 61.804 C 175.948 61.721,175.192 60.266,174.343 58.570 C 167.091 44.084,149.814 26.912,133.510 17.985 C 129.087 15.563,126.900 15.546,122.586 17.897 M130.912 35.127 C 142.784 42.826,155.118 56.020,160.585 66.867 L 161.708 69.093 158.542 71.230 C 147.036 78.994,136.144 91.216,129.909 103.361 C 128.976 105.177,128.109 106.664,127.982 106.665 C 127.855 106.666,127.236 105.617,126.607 104.334 C 120.618 92.122,109.202 79.154,97.473 71.240 L 94.260 69.071 96.009 65.789 C 101.465 55.549,112.876 43.444,124.587 35.473 C 126.347 34.275,127.849 33.291,127.925 33.287 C 128.002 33.283,129.346 34.111,130.912 35.127 M63.573 73.834 C 91.554 79.904,113.301 102.565,118.831 131.413 C 119.472 134.760,120.277 149.392,119.793 148.907 C 119.676 148.789,118.035 146.773,116.146 144.427 C 103.582 128.817,85.254 117.786,65.107 113.706 C 62.210 113.120,59.255 112.640,58.541 112.640 C 55.698 112.640,55.893 114.137,55.893 92.302 L 55.893 72.481 57.920 72.764 C 59.035 72.920,61.579 73.402,63.573 73.834 M200.107 92.328 C 200.107 114.134,200.301 112.640,197.459 112.640 C 196.745 112.640,193.790 113.120,190.893 113.706 C 170.728 117.790,152.430 128.803,139.854 144.427 C 137.965 146.773,136.324 148.789,136.207 148.907 C 135.723 149.392,136.528 134.760,137.169 131.413 C 139.188 120.879,143.555 110.600,149.668 101.992 C 153.337 96.825,160.825 89.337,165.992 85.668 C 174.936 79.317,187.309 74.253,197.333 72.841 C 200.402 72.409,200.107 70.335,200.107 92.328 M62.507 129.567 C 73.520 131.672,85.140 137.318,94.415 145.072 C 106.634 155.286,115.356 170.127,118.661 186.326 C 119.463 190.255,119.629 192.738,119.790 203.200 C 119.975 215.167,119.959 215.467,119.143 215.467 C 117.162 215.467,109.091 213.534,104.550 211.972 C 83.407 204.699,66.909 187.966,59.739 166.521 C 57.032 158.422,56.291 153.119,56.010 139.809 L 55.768 128.365 57.431 128.640 C 58.345 128.791,60.629 129.208,62.507 129.567 M199.989 139.840 C 199.805 148.563,199.543 152.421,198.878 156.207 C 194.344 182.024,176.078 203.501,151.450 211.972 C 146.909 213.534,138.838 215.467,136.857 215.467 C 136.041 215.467,136.025 215.167,136.210 203.200 C 136.371 192.738,136.537 190.255,137.339 186.326 C 141.974 163.605,156.605 144.789,177.226 135.031 C 182.536 132.518,188.384 130.549,193.493 129.555 C 197.127 128.848,198.676 128.578,199.635 128.485 C 200.136 128.436,200.192 130.230,199.989 139.840 " stroke="none" fill-rule="evenodd"></path></svg>