<svg fill="currentColor" viewBox="0 0 256 256" xmlns="http://www.w3.org/2000/svg"><path d="M34.521 49.018 C 30.131 50.739,27.384 53.380,25.254 57.926 L 24.107 60.373 24.107 128.000 L 24.107 195.627 25.461 198.486 C 27.893 203.620,32.228 206.883,37.836 207.802 C 41.187 208.350,214.813 208.350,218.164 207.802 C 223.772 206.883,228.107 203.620,230.539 198.486 L 231.893 195.627 231.893 128.000 L 231.893 60.373 230.539 57.514 C 228.878 54.008,226.260 51.317,222.910 49.672 L 220.373 48.427 128.427 48.338 C 40.770 48.254,36.389 48.286,34.521 49.018 M87.893 80.000 L 87.893 96.000 64.000 96.000 L 40.107 96.000 40.107 80.000 L 40.107 64.000 64.000 64.000 L 87.893 64.000 87.893 80.000 M151.893 80.000 L 151.893 96.000 128.000 96.000 L 104.107 96.000 104.107 80.000 L 104.107 64.000 128.000 64.000 L 151.893 64.000 151.893 80.000 M215.893 80.000 L 215.893 96.000 192.000 96.000 L 168.107 96.000 168.107 80.000 L 168.107 64.000 192.000 64.000 L 215.893 64.000 215.893 80.000 M87.893 128.000 L 87.893 143.787 64.000 143.787 L 40.107 143.787 40.107 128.000 L 40.107 112.213 64.000 112.213 L 87.893 112.213 87.893 128.000 M151.893 128.000 L 151.893 143.787 128.000 143.787 L 104.107 143.787 104.107 128.000 L 104.107 112.213 128.000 112.213 L 151.893 112.213 151.893 128.000 M215.893 128.000 L 215.893 143.787 192.000 143.787 L 168.107 143.787 168.107 128.000 L 168.107 112.213 192.000 112.213 L 215.893 112.213 215.893 128.000 M87.893 176.000 L 87.893 192.000 64.000 192.000 L 40.107 192.000 40.107 176.000 L 40.107 160.000 64.000 160.000 L 87.893 160.000 87.893 176.000 M151.893 176.000 L 151.893 192.000 128.000 192.000 L 104.107 192.000 104.107 176.000 L 104.107 160.000 128.000 160.000 L 151.893 160.000 151.893 176.000 M215.893 176.000 L 215.893 192.000 192.000 192.000 L 168.107 192.000 168.107 176.000 L 168.107 160.000 192.000 160.000 L 215.893 160.000 215.893 176.000 " stroke="none" fill-rule="evenodd"></path></svg>