<svg fill="currentColor" viewBox="0 0 256 256" xmlns="http://www.w3.org/2000/svg"><path d="M204.813 8.782 C 201.622 10.166,199.936 12.944,200.205 16.374 C 200.299 17.576,200.509 18.848,200.672 19.200 C 200.885 19.662,192.556 28.249,170.762 50.040 L 140.557 80.241 136.518 78.357 C 123.515 72.290,108.736 70.611,96.310 73.789 C 83.693 77.016,73.474 85.568,68.072 97.423 C 66.483 100.911,64.424 103.005,61.979 103.623 C 61.096 103.847,58.597 104.157,56.427 104.313 C 35.049 105.852,17.376 119.416,10.942 139.223 C 8.699 146.128,8.319 148.912,8.338 158.293 C 8.355 166.107,8.478 167.610,9.494 172.382 C 14.646 196.572,29.879 218.222,52.267 233.174 C 63.590 240.737,77.128 245.907,89.730 247.482 C 94.923 248.131,106.136 247.792,110.293 246.860 C 123.675 243.861,133.941 237.474,141.439 227.483 C 147.485 219.428,150.941 209.790,151.853 198.442 C 152.396 191.692,153.221 190.532,159.771 187.310 C 175.684 179.482,184.530 163.663,183.750 144.427 C 183.402 135.825,181.516 128.012,177.724 119.458 L 175.885 115.312 206.070 85.130 C 233.581 57.621,236.334 54.989,237.140 55.420 C 239.328 56.592,244.004 55.549,245.815 53.485 C 247.990 51.008,248.514 47.237,247.069 44.463 C 245.840 42.104,213.072 9.573,211.107 8.762 C 209.120 7.941,206.734 7.949,204.813 8.782 M218.455 37.761 L 224.632 43.949 212.266 56.320 L 199.901 68.691 193.603 62.403 L 187.304 56.115 199.569 43.844 C 206.315 37.095,211.934 31.573,212.056 31.573 C 212.178 31.573,215.057 34.358,218.455 37.761 M177.730 90.855 L 166.869 101.716 164.268 98.878 C 161.660 96.031,157.911 92.361,155.520 90.312 L 154.240 89.216 165.116 78.316 L 175.992 67.415 182.291 73.704 L 188.591 79.994 177.730 90.855 M119.467 89.176 C 123.452 90.120,128.000 91.683,128.000 92.109 C 128.000 92.258,123.536 96.822,118.080 102.252 L 108.160 112.124 104.827 112.844 C 93.533 115.282,84.052 124.500,81.011 135.997 C 79.815 140.522,79.809 147.457,80.998 151.951 C 83.976 163.205,92.776 172.024,103.984 174.985 C 108.522 176.183,115.428 176.180,120.016 174.978 C 131.456 171.979,140.321 162.934,143.048 151.478 L 143.914 147.840 153.767 137.920 C 159.186 132.464,163.732 128.000,163.869 128.000 C 164.260 128.000,166.319 134.273,167.090 137.813 C 168.062 142.275,168.071 150.786,167.108 154.655 C 164.899 163.535,159.600 169.837,151.037 173.768 C 141.435 178.176,136.732 185.238,135.911 196.480 C 134.949 209.658,129.515 219.728,120.072 225.832 C 113.619 230.005,106.990 231.782,97.920 231.772 C 63.009 231.732,27.240 197.980,24.347 162.347 C 22.721 142.318,32.399 126.841,49.681 121.833 C 51.679 121.254,56.057 120.492,59.410 120.140 C 65.957 119.452,67.738 118.973,71.790 116.813 C 76.027 114.555,79.315 110.895,82.141 105.293 C 85.122 99.383,86.861 96.967,89.941 94.458 C 93.727 91.374,97.726 89.556,103.040 88.502 C 106.953 87.726,114.687 88.043,119.467 89.176 M149.356 106.615 C 152.629 109.871,155.307 112.705,155.307 112.912 C 155.307 113.119,151.888 116.703,147.711 120.876 L 140.114 128.464 138.748 126.356 C 136.587 123.020,133.797 120.155,130.547 117.935 L 127.541 115.881 135.126 108.287 C 139.298 104.111,142.867 100.693,143.058 100.693 C 143.249 100.693,146.083 103.358,149.356 106.615 M118.502 129.481 C 121.761 130.967,125.071 134.279,126.572 137.555 C 127.596 139.790,127.766 140.706,127.769 144.000 C 127.773 147.307,127.608 148.195,126.586 150.400 C 125.030 153.755,121.744 157.058,118.445 158.583 C 116.198 159.621,115.313 159.787,112.000 159.787 C 108.689 159.787,107.807 159.622,105.600 158.593 C 102.228 157.020,98.936 153.738,97.428 150.445 C 96.404 148.210,96.234 147.294,96.231 144.000 C 96.227 140.692,96.391 139.805,97.414 137.600 C 99.451 133.211,103.756 129.575,108.265 128.436 C 111.004 127.744,115.758 128.229,118.502 129.481 M52.910 160.680 C 51.073 161.476,49.620 162.801,48.752 164.470 C 47.870 166.167,47.912 169.691,48.838 171.530 C 49.827 173.495,81.608 205.401,83.981 206.811 C 86.153 208.101,89.516 208.296,91.530 207.248 C 95.273 205.302,96.957 200.677,95.341 196.786 C 94.445 194.629,61.926 162.024,59.492 160.842 C 57.439 159.846,54.974 159.785,52.910 160.680 " stroke="none" fill-rule="evenodd"></path></svg>