<svg fill="currentColor" viewBox="0 0 256 256" xmlns="http://www.w3.org/2000/svg"><path d="M121.813 24.168 C 99.477 25.337,78.962 31.781,62.720 42.729 C 48.113 52.576,38.624 64.616,33.685 79.573 C 32.506 83.141,32.270 84.505,32.244 87.901 C 32.216 91.658,32.318 92.174,33.610 94.801 C 35.341 98.317,38.711 101.521,42.135 102.903 L 44.587 103.893 128.000 103.893 L 211.413 103.893 213.865 102.903 C 217.288 101.521,220.659 98.317,222.390 94.802 C 223.681 92.179,223.785 91.658,223.759 87.902 C 223.735 84.507,223.500 83.139,222.328 79.573 C 217.435 64.694,207.731 52.412,193.173 42.674 C 178.843 33.089,161.912 27.086,143.360 25.012 C 137.197 24.323,126.699 23.912,121.813 24.168 M143.573 41.121 C 165.313 44.392,183.212 52.799,195.256 65.397 C 200.960 71.364,204.494 77.063,206.721 83.884 C 207.307 85.680,207.787 87.316,207.787 87.521 C 207.787 87.732,173.124 87.893,128.000 87.893 C 81.356 87.893,48.213 87.735,48.213 87.512 C 48.213 86.361,50.260 80.801,51.845 77.643 C 57.194 66.991,68.149 56.975,81.689 50.357 C 90.849 45.880,103.642 42.163,113.920 40.994 C 116.149 40.740,118.549 40.453,119.253 40.355 C 122.077 39.964,139.534 40.514,143.573 41.121 M22.339 120.298 C 16.922 121.599,14.440 127.476,17.337 132.141 C 18.080 133.337,19.230 134.460,20.267 135.001 L 21.973 135.893 128.000 135.893 L 234.027 135.893 235.733 135.001 C 241.141 132.175,241.226 124.228,235.882 121.169 L 234.027 120.107 128.853 120.042 C 71.008 120.006,23.077 120.121,22.339 120.298 M66.560 152.209 C 65.374 152.428,24.244 167.308,21.547 168.494 C 15.218 171.277,14.952 179.749,21.097 182.834 C 22.258 183.417,23.747 183.893,24.405 183.893 C 25.064 183.893,28.801 182.741,32.710 181.333 C 36.619 179.925,39.858 178.773,39.909 178.773 C 39.960 178.773,40.100 181.605,40.221 185.067 C 40.384 189.743,40.678 192.175,41.363 194.531 C 45.691 209.403,57.196 220.054,72.320 223.192 C 75.946 223.944,79.043 223.989,128.000 223.989 C 176.957 223.989,180.054 223.944,183.680 223.192 C 196.488 220.535,206.953 212.335,212.297 200.770 C 215.033 194.847,215.552 192.222,215.843 182.836 L 216.107 174.313 226.281 170.610 C 238.134 166.297,239.454 165.398,240.401 160.996 C 241.322 156.720,237.142 151.931,232.465 151.903 C 231.488 151.897,223.020 154.766,209.824 159.573 C 198.230 163.797,188.450 167.253,188.089 167.253 C 187.729 167.253,179.102 163.877,168.917 159.751 C 154.106 153.749,149.973 152.238,148.267 152.196 C 146.434 152.151,143.452 153.216,127.089 159.761 L 108.045 167.379 89.329 159.905 C 70.976 152.577,68.714 151.812,66.560 152.209 M87.275 176.380 C 101.803 182.187,106.503 183.893,107.977 183.893 C 109.452 183.893,114.185 182.171,128.923 176.271 L 147.964 168.648 166.888 176.267 C 181.944 182.328,186.220 183.886,187.805 183.889 C 189.059 183.892,191.567 183.259,194.586 182.177 C 197.221 181.233,199.493 180.579,199.635 180.724 C 199.777 180.868,199.857 182.580,199.812 184.529 C 199.584 194.481,193.376 203.071,183.893 206.555 L 181.120 207.573 128.000 207.573 L 74.880 207.573 72.107 206.555 C 64.924 203.916,59.803 198.643,57.350 191.360 C 56.325 188.317,56.178 187.136,55.993 180.480 L 55.786 173.013 61.706 170.822 C 64.962 169.616,67.819 168.684,68.053 168.749 C 68.288 168.814,76.938 172.248,87.275 176.380 " stroke="none" fill-rule="evenodd"></path></svg>