<svg fill="currentColor" viewBox="0 0 256 256" xmlns="http://www.w3.org/2000/svg"><path d="M204.587 16.818 C 200.780 18.517,199.075 23.158,200.769 27.214 C 201.193 28.230,204.796 32.177,210.796 38.199 C 215.946 43.368,220.160 47.736,220.160 47.906 C 220.160 48.075,207.960 48.213,193.050 48.213 C 166.909 48.213,165.880 48.243,164.290 49.055 C 161.194 50.634,159.649 53.775,160.191 57.389 C 160.568 59.899,163.156 62.916,165.488 63.564 C 166.457 63.833,177.132 63.996,193.917 63.998 L 220.793 64.000 210.897 73.920 C 205.454 79.376,200.799 84.380,200.554 85.041 C 198.780 89.808,202.104 95.326,207.088 95.888 C 210.971 96.326,211.010 96.294,229.240 78.135 C 240.318 67.099,246.505 60.624,247.053 59.492 C 248.038 57.458,248.137 54.720,247.296 52.786 C 246.527 51.019,212.665 17.254,211.066 16.660 C 209.418 16.047,206.133 16.128,204.587 16.818 M93.105 40.968 C 83.919 43.375,76.849 49.870,73.460 59.017 L 72.326 62.080 72.109 104.960 L 71.893 147.840 69.143 143.360 C 64.663 136.060,59.792 131.881,52.836 129.370 C 50.034 128.358,49.105 128.240,43.947 128.240 C 38.789 128.240,37.860 128.358,35.057 129.370 C 30.608 130.976,27.605 132.890,24.136 136.330 C 16.288 144.112,13.856 155.975,18.003 166.243 C 19.368 169.621,48.827 219.960,50.523 221.811 C 53.795 225.382,58.994 225.345,62.170 221.729 C 63.483 220.233,64.429 217.864,64.415 216.107 C 64.403 214.598,63.092 212.233,47.995 186.463 C 39.830 172.527,32.891 160.265,32.575 159.214 C 31.399 155.307,32.282 151.441,35.075 148.267 C 39.640 143.082,47.654 142.791,52.369 147.639 C 53.129 148.420,58.270 156.315,63.792 165.182 C 70.833 176.489,74.291 181.654,75.367 182.475 C 76.571 183.393,77.467 183.678,79.518 183.795 C 82.615 183.972,84.401 183.172,86.389 180.716 L 87.680 179.121 87.893 122.307 L 88.107 65.493 89.093 63.314 C 91.808 57.316,98.892 54.514,104.747 57.122 C 107.314 58.266,108.919 59.724,110.438 62.293 L 111.573 64.213 111.787 101.120 L 112.000 138.027 113.131 139.951 C 115.724 144.361,121.632 145.311,125.374 141.920 C 127.578 139.922,127.771 139.032,128.020 129.707 C 128.281 119.954,128.477 119.126,131.265 116.034 C 136.799 109.895,146.737 111.292,150.736 118.769 C 151.635 120.450,151.690 121.150,151.893 133.584 L 152.107 146.635 153.328 148.396 C 156.561 153.059,163.446 153.050,166.684 148.378 C 167.716 146.889,167.861 146.213,168.108 141.734 C 168.410 136.252,168.929 134.583,171.108 132.102 C 174.609 128.115,180.568 127.029,185.398 129.498 C 188.414 131.040,190.435 133.501,191.393 136.799 C 192.409 140.291,192.050 183.616,190.951 190.293 C 189.888 196.751,187.650 205.329,185.865 209.790 C 183.914 214.666,183.706 215.746,184.294 217.929 C 185.542 222.567,190.580 225.140,194.888 223.340 C 198.232 221.942,199.478 219.915,202.438 211.054 C 204.536 204.776,206.584 195.316,207.440 187.947 C 207.818 184.691,207.988 176.063,207.993 159.787 C 208.001 133.364,208.059 133.950,204.731 127.161 C 202.264 122.128,197.869 117.734,192.839 115.271 C 188.129 112.964,185.024 112.213,180.198 112.213 C 175.521 112.213,172.637 112.752,169.204 114.268 C 167.215 115.146,166.633 115.260,166.480 114.801 C 166.373 114.480,165.523 112.693,164.590 110.829 C 161.471 104.597,154.840 99.221,147.672 97.113 C 142.443 95.575,136.075 95.807,130.590 97.735 C 129.299 98.189,128.200 98.560,128.147 98.560 C 128.094 98.560,127.984 90.448,127.902 80.533 C 127.757 63.002,127.726 62.430,126.771 59.733 C 125.040 54.846,123.256 51.991,119.681 48.391 C 116.991 45.682,115.479 44.559,112.635 43.157 C 106.436 40.101,99.418 39.314,93.105 40.968 " stroke="none" fill-rule="evenodd"></path></svg>