<svg fill="currentColor" viewBox="0 0 256 256" xmlns="http://www.w3.org/2000/svg"><path d="M98.347 32.630 C 90.114 34.156,82.249 39.187,77.652 45.869 C 75.689 48.722,73.946 52.678,72.969 56.499 C 72.494 58.357,72.028 59.954,71.935 60.047 C 71.841 60.141,70.826 59.741,69.678 59.160 C 64.933 56.755,58.315 55.659,52.513 56.316 C 39.055 57.841,28.538 67.029,24.914 80.427 C 24.162 83.208,24.107 85.251,24.107 110.080 C 24.107 133.535,24.199 137.363,24.872 141.867 C 27.615 160.223,34.305 176.334,45.279 191.014 C 49.299 196.392,59.608 206.701,64.986 210.721 C 79.686 221.710,96.000 228.476,114.133 231.105 C 121.135 232.120,134.865 232.120,141.867 231.105 C 160.000 228.476,176.314 221.710,191.014 210.721 C 196.392 206.701,206.701 196.392,210.721 191.014 C 222.951 174.654,229.768 156.858,231.671 136.320 C 232.234 130.248,232.228 111.104,231.663 107.520 C 229.697 95.064,221.788 85.774,209.479 81.461 C 206.971 80.582,205.693 80.472,195.413 80.247 L 184.107 80.000 183.868 68.907 C 183.652 58.849,183.538 57.534,182.646 54.827 C 180.111 47.129,175.845 41.482,169.432 37.333 C 156.928 29.244,140.970 30.692,130.011 40.909 L 127.968 42.813 126.171 41.075 C 121.670 36.723,115.782 33.758,109.444 32.653 C 105.029 31.883,102.411 31.877,98.347 32.630 M110.581 49.568 C 113.966 51.146,116.647 53.769,118.293 57.112 L 119.680 59.929 119.680 84.045 L 119.680 108.160 118.430 110.711 C 116.837 113.960,113.969 116.828,110.715 118.426 C 108.431 119.547,107.729 119.680,104.098 119.680 C 100.371 119.680,99.801 119.565,97.198 118.283 C 93.683 116.553,90.479 113.181,89.097 109.759 L 88.107 107.307 88.107 84.053 C 88.107 61.157,88.121 60.765,89.034 58.537 C 90.852 54.103,94.539 50.460,98.703 48.982 C 102.002 47.812,107.382 48.077,110.581 49.568 M158.758 49.602 C 161.685 51.034,164.825 54.138,166.209 56.968 C 167.714 60.043,168.101 63.119,168.104 72.000 L 168.107 79.787 152.078 79.787 L 136.050 79.787 136.185 69.867 C 136.316 60.212,136.350 59.883,137.430 57.581 C 139.348 53.491,141.956 51.025,146.301 49.193 C 148.343 48.331,149.258 48.204,152.557 48.321 C 155.702 48.433,156.856 48.672,158.758 49.602 M62.872 73.751 C 66.320 75.449,69.536 78.851,70.898 82.241 C 71.841 84.587,71.883 85.182,71.883 96.000 C 71.883 106.818,71.841 107.413,70.898 109.759 C 69.524 113.180,66.323 116.550,62.802 118.283 C 60.199 119.565,59.629 119.680,55.902 119.680 C 52.271 119.680,51.569 119.547,49.285 118.426 C 46.031 116.828,43.163 113.960,41.570 110.711 L 40.320 108.160 40.320 96.000 L 40.320 83.840 41.570 81.289 C 43.655 77.037,47.776 73.629,52.217 72.487 C 52.948 72.299,55.022 72.200,56.826 72.267 C 59.497 72.366,60.618 72.642,62.872 73.751 M206.507 97.547 C 210.044 99.248,212.675 101.876,214.354 105.387 L 215.680 108.160 215.820 119.893 C 216.020 136.768,215.074 144.406,211.394 155.629 C 199.997 190.384,168.039 214.412,131.413 215.764 C 102.066 216.847,75.097 203.917,57.379 180.270 C 47.750 167.420,41.963 151.974,40.315 134.727 L 40.040 131.854 42.740 133.110 C 54.277 138.480,67.444 136.396,77.662 127.584 L 80.017 125.552 81.928 127.267 C 93.469 137.617,110.186 138.894,122.098 130.336 C 124.138 128.871,125.013 128.529,125.013 129.197 C 125.013 130.578,133.567 138.852,135.816 139.647 C 136.096 139.745,135.143 141.039,133.676 142.552 C 125.892 150.582,121.581 159.640,120.300 170.657 C 119.685 175.954,119.970 178.436,121.438 180.555 C 124.486 184.952,131.535 184.922,134.601 180.498 C 135.575 179.092,135.810 178.160,136.137 174.386 C 137.206 162.075,143.439 152.617,153.884 147.455 C 157.904 145.468,160.706 144.715,165.932 144.217 C 169.320 143.894,170.778 143.553,172.120 142.766 C 176.494 140.203,177.267 133.628,173.587 130.293 C 171.376 128.290,170.964 128.223,159.360 128.000 L 148.267 127.787 145.493 126.453 C 141.956 124.752,139.325 122.124,137.646 118.613 L 136.320 115.840 136.185 105.908 L 136.050 95.975 169.892 96.094 L 203.733 96.213 206.507 97.547 " stroke="none" fill-rule="evenodd"></path></svg>