<svg fill="currentColor" viewBox="0 0 256 256" xmlns="http://www.w3.org/2000/svg"><path d="M100.198 17.076 C 97.176 18.673,95.657 21.825,96.191 25.389 C 96.568 27.899,99.156 30.916,101.488 31.564 C 102.342 31.801,106.832 31.996,111.467 31.998 L 119.893 32.000 119.893 43.891 L 119.893 55.781 109.547 56.006 C 97.696 56.263,94.896 56.776,89.264 59.721 C 81.773 63.639,76.211 70.205,73.530 78.293 C 72.525 81.328,72.378 82.541,72.206 89.229 L 72.014 96.752 69.180 97.517 C 65.450 98.525,58.957 101.832,55.354 104.559 C 47.743 110.320,42.227 119.684,40.541 129.707 C 40.218 131.624,40.112 146.043,40.197 176.427 L 40.320 220.373 41.482 222.736 C 42.809 225.437,45.978 228.816,48.307 230.014 C 52.537 232.190,49.350 232.107,128.000 232.107 C 206.650 232.107,203.463 232.190,207.693 230.014 C 210.022 228.816,213.191 225.437,214.518 222.736 L 215.680 220.373 215.803 176.427 C 215.888 146.043,215.782 131.624,215.459 129.707 C 213.773 119.684,208.257 110.320,200.646 104.559 C 197.043 101.832,190.550 98.525,186.820 97.517 L 183.986 96.752 183.794 89.229 C 183.622 82.541,183.475 81.328,182.470 78.293 C 179.789 70.205,174.227 63.639,166.736 59.721 C 161.104 56.776,158.304 56.263,146.453 56.006 L 136.107 55.781 136.107 43.891 L 136.107 32.000 152.760 32.000 C 170.346 32.000,171.197 32.084,173.363 34.043 C 174.621 35.181,175.641 37.542,175.965 40.067 C 176.127 41.335,176.528 42.891,176.855 43.523 C 177.673 45.105,180.252 47.294,181.661 47.603 C 182.302 47.743,183.043 47.923,183.307 48.002 C 184.307 48.302,187.559 47.269,188.945 46.212 C 191.814 44.024,192.637 40.088,191.359 34.669 C 189.338 26.098,182.555 19.103,174.077 16.847 C 172.110 16.324,166.116 16.226,136.747 16.237 C 102.999 16.251,101.705 16.280,100.198 17.076 M158.971 73.678 C 162.314 75.426,165.615 79.011,166.854 82.241 C 167.591 84.165,167.840 85.912,168.006 90.347 L 168.218 96.000 128.056 96.000 L 87.893 96.000 87.893 91.792 C 87.893 84.436,89.190 80.385,92.674 76.859 C 94.538 74.972,97.740 73.081,100.053 72.500 C 100.757 72.324,113.717 72.211,128.853 72.250 L 156.373 72.320 158.971 73.678 M181.951 112.865 C 187.485 114.307,192.881 118.206,196.090 123.084 C 196.866 124.262,198.039 126.763,198.697 128.640 L 199.893 132.053 200.016 173.973 L 200.138 215.893 128.000 215.893 L 55.862 215.893 55.984 173.973 L 56.107 132.053 57.303 128.640 C 59.431 122.569,63.439 117.777,68.705 115.010 C 74.215 112.115,70.850 112.272,127.804 112.241 C 172.821 112.217,179.769 112.297,181.951 112.865 " stroke="none" fill-rule="evenodd"></path></svg>