<svg fill="currentColor" viewBox="0 0 256 256" xmlns="http://www.w3.org/2000/svg"><path d="M101.120 16.880 C 96.562 18.066,91.781 20.840,88.311 24.311 C 82.767 29.856,80.398 35.671,79.932 44.879 C 79.660 50.244,79.625 50.402,78.759 50.120 C 73.589 48.435,71.768 48.160,66.987 48.343 C 59.020 48.648,53.636 50.950,48.243 56.357 C 45.000 59.609,43.073 62.650,41.463 67.057 L 40.320 70.187 40.194 114.133 C 40.083 152.938,40.150 158.697,40.769 163.354 C 43.424 183.344,52.299 200.946,66.836 215.054 C 76.357 224.294,86.712 230.763,98.560 234.873 C 108.949 238.478,117.157 239.871,128.000 239.871 C 147.869 239.871,165.966 233.712,181.973 221.501 C 185.793 218.588,193.406 211.048,196.683 206.933 C 206.758 194.285,213.180 179.180,215.240 163.285 C 215.756 159.309,215.893 153.422,215.893 135.300 C 215.893 109.421,215.833 108.820,212.593 102.681 C 209.446 96.718,202.224 90.889,195.840 89.160 C 190.547 87.726,183.684 87.913,178.819 89.623 C 177.520 90.080,176.402 90.453,176.335 90.453 C 176.268 90.453,176.210 83.493,176.205 74.987 C 176.196 58.963,175.978 55.850,174.535 51.180 C 171.543 41.491,162.127 33.728,151.672 32.329 C 146.033 31.574,141.399 32.385,134.986 35.250 C 134.721 35.368,134.372 34.925,134.210 34.265 C 133.569 31.664,130.750 27.417,127.577 24.269 C 123.987 20.707,119.360 18.069,114.577 16.858 C 111.385 16.049,104.268 16.061,101.120 16.880 M113.427 33.460 C 114.562 34.035,116.121 35.224,116.892 36.102 C 119.829 39.447,119.658 37.306,119.893 73.670 L 120.107 106.594 121.387 108.406 C 124.701 113.096,131.299 113.096,134.613 108.406 L 135.893 106.594 136.107 81.564 C 136.317 56.923,136.334 56.507,137.242 54.827 C 141.388 47.156,151.292 45.868,156.925 52.267 C 160.097 55.871,160.000 54.680,160.000 90.183 C 160.000 121.486,160.008 121.773,160.905 123.627 C 163.108 128.178,169.256 129.356,173.253 125.993 C 175.365 124.215,175.872 122.724,176.191 117.353 C 176.515 111.890,177.171 110.060,179.699 107.566 C 182.220 105.079,184.120 104.335,187.947 104.335 C 190.636 104.335,191.733 104.533,193.116 105.267 C 195.938 106.765,197.422 108.248,198.698 110.846 L 199.893 113.280 200.032 131.840 C 200.228 158.161,199.423 166.184,195.534 176.640 C 180.756 216.375,136.042 234.899,97.589 217.217 C 88.444 213.012,79.502 206.086,72.765 197.987 C 65.307 189.022,59.915 177.867,57.598 166.603 C 56.042 159.042,55.836 152.090,55.974 111.787 L 56.107 73.173 57.092 71.192 C 60.767 63.805,69.737 61.797,75.682 67.030 C 76.786 68.002,78.113 69.590,78.631 70.559 C 79.557 72.289,79.577 72.683,79.787 93.227 C 80.020 116.119,79.923 115.280,82.629 117.840 C 86.314 121.327,92.629 120.313,95.084 115.841 C 95.716 114.688,95.808 110.884,96.000 77.836 L 96.213 41.112 97.493 38.625 C 100.529 32.725,107.511 30.462,113.427 33.460 M119.680 128.624 C 111.186 129.965,101.706 133.950,94.695 139.126 C 86.376 145.266,77.578 155.335,73.182 163.744 C 72.187 165.649,72.034 166.381,72.187 168.505 C 72.337 170.581,72.733 171.617,74.476 174.501 C 82.575 187.897,94.645 198.805,106.897 203.800 C 120.486 209.340,135.514 209.340,149.103 203.800 C 161.355 198.805,173.425 187.897,181.524 174.501 C 183.267 171.617,183.663 170.581,183.813 168.505 C 183.966 166.381,183.813 165.649,182.818 163.744 C 178.420 155.331,169.624 145.266,161.293 139.117 C 157.015 135.959,147.862 131.373,143.360 130.132 C 135.873 128.069,126.835 127.493,119.680 128.624 M138.240 145.466 C 145.530 147.552,153.719 152.753,159.561 159.008 C 162.749 162.422,166.400 167.237,166.400 168.028 C 166.400 168.988,161.192 175.322,157.381 178.998 C 151.136 185.019,144.744 188.814,137.471 190.818 C 132.752 192.118,123.232 192.114,118.492 190.809 C 111.113 188.777,104.831 185.021,98.413 178.803 C 94.763 175.267,89.600 168.954,89.600 168.028 C 89.600 167.238,93.249 162.424,96.429 159.019 C 103.164 151.807,111.563 146.805,120.159 144.886 C 124.427 143.934,133.952 144.239,138.240 145.466 M123.307 157.046 C 119.200 158.901,116.510 162.675,116.156 167.076 C 115.761 172.003,118.186 176.362,122.608 178.673 C 125.743 180.311,130.257 180.311,133.392 178.673 C 137.814 176.362,140.239 172.003,139.844 167.076 C 139.339 160.793,134.324 156.179,128.000 156.179 C 126.126 156.179,124.604 156.460,123.307 157.046 " stroke="none" fill-rule="evenodd"></path></svg>