<svg fill="currentColor" viewBox="0 0 256 256" xmlns="http://www.w3.org/2000/svg"><path d="M101.120 16.880 C 96.562 18.066,91.781 20.840,88.311 24.311 C 82.767 29.856,80.398 35.671,79.932 44.879 C 79.660 50.244,79.625 50.402,78.759 50.120 C 73.589 48.435,71.768 48.160,66.987 48.343 C 59.020 48.648,53.636 50.950,48.243 56.357 C 45.000 59.609,43.073 62.650,41.463 67.057 L 40.320 70.187 40.194 114.133 C 40.083 152.938,40.150 158.697,40.769 163.354 C 43.424 183.344,52.299 200.946,66.836 215.054 C 76.357 224.294,86.712 230.763,98.560 234.873 C 108.949 238.478,117.157 239.871,128.000 239.871 C 147.869 239.871,165.966 233.712,181.973 221.501 C 185.793 218.588,193.406 211.048,196.683 206.933 C 206.758 194.285,213.180 179.180,215.240 163.285 C 215.756 159.309,215.893 153.422,215.893 135.300 C 215.893 109.421,215.833 108.820,212.593 102.681 C 209.446 96.718,202.224 90.889,195.840 89.160 C 190.547 87.726,183.684 87.913,178.819 89.623 C 177.520 90.080,176.402 90.453,176.335 90.453 C 176.268 90.453,176.210 83.493,176.205 74.987 C 176.196 58.963,175.978 55.850,174.535 51.180 C 171.543 41.491,162.127 33.728,151.672 32.329 C 146.033 31.574,141.399 32.385,134.986 35.250 C 134.721 35.368,134.372 34.925,134.210 34.265 C 133.569 31.664,130.750 27.417,127.577 24.269 C 123.987 20.707,119.360 18.069,114.577 16.858 C 111.385 16.049,104.268 16.061,101.120 16.880 M113.427 33.460 C 114.562 34.035,116.121 35.224,116.892 36.102 C 119.845 39.466,119.658 36.863,119.893 77.690 L 120.107 114.634 121.328 116.395 C 124.523 121.005,131.477 121.005,134.672 116.395 L 135.893 114.634 136.107 85.584 C 136.318 56.821,136.329 56.516,137.242 54.827 C 141.388 47.156,151.292 45.868,156.925 52.267 C 160.119 55.896,160.000 54.299,160.000 93.625 L 160.000 128.642 156.883 129.351 C 136.230 134.044,120.457 153.275,120.169 174.113 C 120.109 178.431,120.159 178.702,121.328 180.391 C 124.481 184.951,131.476 185.007,134.601 180.498 C 135.575 179.092,135.810 178.160,136.137 174.386 C 137.206 162.075,143.439 152.617,153.884 147.455 C 157.904 145.468,160.706 144.715,165.932 144.217 C 171.239 143.712,173.319 142.710,174.938 139.882 C 175.989 138.045,176.002 137.899,176.213 125.227 C 176.415 113.129,176.477 112.332,177.352 110.697 C 178.515 108.526,180.617 106.434,182.827 105.250 C 185.270 103.940,190.633 103.949,193.116 105.267 C 195.938 106.765,197.422 108.248,198.698 110.846 L 199.893 113.280 200.032 131.840 C 200.228 158.161,199.423 166.184,195.534 176.640 C 180.756 216.375,136.042 234.899,97.589 217.217 C 88.444 213.012,79.502 206.086,72.765 197.987 C 65.307 189.022,59.915 177.867,57.598 166.603 C 56.042 159.042,55.836 152.090,55.974 111.787 L 56.107 73.173 57.092 71.192 C 60.767 63.805,69.737 61.797,75.682 67.030 C 76.786 68.002,78.113 69.590,78.631 70.559 C 79.565 72.304,79.575 72.553,79.787 97.280 C 79.976 119.447,80.079 122.383,80.706 123.520 C 83.706 128.958,91.324 129.472,94.641 124.460 L 95.787 122.730 96.000 81.921 L 96.213 41.112 97.493 38.625 C 100.529 32.725,107.511 30.462,113.427 33.460 " stroke="none" fill-rule="evenodd"></path></svg>