<svg fill="currentColor" viewBox="0 0 256 256" xmlns="http://www.w3.org/2000/svg"><path d="M42.880 40.876 C 38.021 42.563,34.386 46.285,32.855 51.138 C 32.038 53.729,32.000 55.016,32.000 80.000 C 32.000 104.984,32.038 106.271,32.855 108.862 C 34.413 113.799,38.444 117.811,43.323 119.280 C 46.388 120.202,209.612 120.202,212.677 119.280 C 217.556 117.811,221.587 113.799,223.145 108.862 C 223.962 106.271,224.000 104.984,224.000 80.000 C 224.000 55.016,223.962 53.729,223.145 51.138 C 222.051 47.672,219.912 44.784,217.009 42.857 C 212.557 39.901,219.229 40.105,127.826 40.121 C 50.319 40.134,44.877 40.182,42.880 40.876 M207.787 80.000 L 207.787 104.107 128.000 104.107 L 48.213 104.107 48.213 80.000 L 48.213 55.893 128.000 55.893 L 207.787 55.893 207.787 80.000 M176.301 68.624 C 171.493 70.336,168.554 74.042,168.216 78.819 C 167.962 82.402,168.576 84.761,170.376 87.129 C 175.712 94.146,186.134 93.436,190.463 85.760 C 191.640 83.673,191.786 83.036,191.779 80.000 C 191.771 76.348,191.101 74.492,188.801 71.759 C 186.176 68.639,180.357 67.180,176.301 68.624 M42.880 136.876 C 38.021 138.563,34.386 142.285,32.855 147.138 C 32.038 149.729,32.000 151.016,32.000 176.000 C 32.000 200.984,32.038 202.271,32.855 204.862 C 34.413 209.799,38.444 213.811,43.323 215.280 C 46.388 216.202,209.612 216.202,212.677 215.280 C 217.556 213.811,221.587 209.799,223.145 204.862 C 223.962 202.271,224.000 200.984,224.000 176.000 C 224.000 151.016,223.962 149.729,223.145 147.138 C 222.051 143.672,219.912 140.784,217.009 138.857 C 212.557 135.901,219.229 136.105,127.826 136.121 C 50.319 136.134,44.877 136.182,42.880 136.876 M207.787 176.000 L 207.787 200.107 128.000 200.107 L 48.213 200.107 48.213 176.000 L 48.213 151.893 128.000 151.893 L 207.787 151.893 207.787 176.000 M176.301 164.624 C 171.493 166.336,168.554 170.042,168.216 174.819 C 167.962 178.402,168.576 180.761,170.376 183.129 C 175.712 190.146,186.134 189.436,190.463 181.760 C 191.640 179.673,191.786 179.036,191.779 176.000 C 191.771 172.348,191.101 170.492,188.801 167.759 C 186.176 164.639,180.357 163.180,176.301 164.624 " stroke="none" fill-rule="evenodd"></path></svg>