<svg fill="currentColor" viewBox="0 0 256 256" xmlns="http://www.w3.org/2000/svg"><path d="M72.533 32.288 C 61.345 33.420,50.693 37.402,41.706 43.814 C 37.273 46.976,30.770 53.473,27.670 57.835 C 17.108 72.701,13.718 90.212,17.697 109.359 C 23.993 139.660,50.132 172.433,91.947 202.452 C 102.874 210.297,118.863 220.433,124.315 222.971 C 128.389 224.868,129.695 224.466,140.431 218.008 C 167.330 201.830,192.027 181.888,208.900 162.723 C 238.475 129.130,247.324 95.188,233.804 67.200 C 220.770 40.218,191.083 26.654,161.430 34.133 C 149.614 37.113,140.441 42.466,132.080 51.260 L 128.000 55.550 123.920 51.260 C 115.555 42.462,106.365 37.101,94.570 34.138 C 87.463 32.353,78.953 31.638,72.533 32.288 M86.850 48.869 C 100.301 51.215,111.769 59.020,118.148 70.168 L 119.896 73.223 119.788 137.533 L 119.680 201.843 112.427 197.007 C 74.479 171.705,48.629 144.983,37.890 119.955 C 33.744 110.292,32.230 103.254,32.279 93.867 C 32.309 88.208,32.471 86.658,33.404 83.128 C 36.194 72.565,41.937 63.857,50.421 57.329 C 55.456 53.455,63.220 50.014,69.482 48.881 C 73.935 48.075,82.263 48.069,86.850 48.869 M189.440 49.455 C 197.676 51.521,207.527 57.670,212.798 64.035 C 224.294 77.917,226.867 94.391,220.550 113.667 C 213.037 136.595,192.181 161.282,159.787 185.595 C 153.180 190.553,141.692 198.527,137.707 200.922 L 136.107 201.883 136.107 137.499 L 136.107 73.116 138.347 69.307 C 141.312 64.264,147.713 57.805,152.652 54.873 C 156.951 52.320,162.768 50.090,167.889 49.032 C 173.250 47.924,184.197 48.139,189.440 49.455 " stroke="none" fill-rule="evenodd"></path></svg>