<svg fill="currentColor" viewBox="0 0 256 256" xmlns="http://www.w3.org/2000/svg"><path d="M72.533 32.288 C 61.345 33.420,50.693 37.402,41.706 43.814 C 37.273 46.976,30.770 53.473,27.670 57.835 C 20.363 68.120,16.270 80.522,16.077 92.965 C 16.009 97.359,16.108 98.121,16.951 99.697 C 19.494 104.454,25.357 105.398,29.443 101.707 C 31.537 99.815,31.867 98.683,32.167 92.354 C 33.073 73.230,44.761 57.302,62.690 50.759 C 67.359 49.055,72.518 48.213,78.293 48.213 C 96.379 48.213,111.918 57.369,119.226 72.332 C 121.488 76.963,122.238 77.953,124.275 78.992 C 126.545 80.150,129.455 80.150,131.725 78.992 C 133.733 77.968,134.748 76.688,136.257 73.275 C 140.817 62.963,150.461 54.523,162.161 50.606 C 171.697 47.413,183.986 47.412,192.922 50.602 C 207.781 55.908,218.675 67.838,222.527 83.023 C 226.462 98.536,221.763 117.248,209.143 136.320 C 198.894 151.808,179.831 170.674,158.293 186.643 C 148.067 194.226,129.338 206.507,128.000 206.507 C 126.609 206.507,107.712 194.076,97.052 186.148 C 86.613 178.384,77.853 170.870,68.455 161.621 C 63.218 156.467,59.291 152.945,58.335 152.546 C 56.278 151.686,54.357 151.735,52.267 152.700 C 48.236 154.560,46.381 158.965,47.998 162.835 C 49.993 167.610,70.002 186.045,86.938 198.711 C 98.734 207.534,117.421 219.690,123.947 222.785 C 125.355 223.453,127.179 223.999,128.000 223.999 C 129.889 223.999,133.150 222.450,140.160 218.223 C 167.255 201.882,192.047 181.865,208.900 162.723 C 238.475 129.130,247.324 95.188,233.804 67.200 C 220.770 40.218,191.083 26.654,161.430 34.133 C 149.614 37.113,140.441 42.466,132.080 51.260 L 128.000 55.550 123.920 51.260 C 115.555 42.462,106.365 37.101,94.570 34.138 C 87.463 32.353,78.953 31.638,72.533 32.288 M84.910 96.680 C 84.090 97.035,83.005 97.715,82.498 98.191 C 81.992 98.667,78.461 103.739,74.652 109.462 L 67.726 119.868 48.658 119.987 L 29.590 120.107 27.792 121.297 C 24.654 123.374,23.380 126.644,24.332 130.176 C 24.974 132.563,27.413 135.019,29.770 135.654 C 31.022 135.991,38.034 136.100,53.008 136.015 L 74.453 135.893 76.083 134.880 C 77.277 134.138,79.085 131.814,82.841 126.192 L 87.970 118.516 100.570 137.445 C 107.501 147.855,113.580 156.824,114.079 157.375 C 116.447 159.988,120.339 160.687,123.635 159.091 C 125.335 158.268,126.206 157.138,132.836 147.156 L 140.160 136.130 150.827 136.109 C 160.268 136.090,161.689 135.997,163.200 135.300 C 169.642 132.327,169.642 123.673,163.200 120.700 C 161.655 119.987,160.219 119.912,148.053 119.912 C 135.870 119.912,134.454 119.986,132.907 120.702 C 130.597 121.772,129.683 122.856,124.462 130.717 L 119.965 137.488 106.737 117.652 C 94.453 99.233,93.374 97.751,91.633 96.908 C 89.448 95.850,87.013 95.768,84.910 96.680 " stroke="none" fill-rule="evenodd"></path></svg>