<svg fill="currentColor" viewBox="0 0 256 256" xmlns="http://www.w3.org/2000/svg"><path d="M82.308 32.804 C 79.331 33.763,76.442 35.725,74.536 38.082 C 72.306 40.839,17.464 123.272,16.797 124.869 C 16.476 125.637,16.213 127.057,16.213 128.023 C 16.213 130.056,38.487 212.155,39.821 215.040 C 41.167 217.951,44.967 221.535,48.003 222.757 C 50.553 223.784,50.602 223.787,67.200 223.787 L 83.840 223.787 86.445 222.583 C 89.739 221.060,93.026 217.760,94.593 214.400 C 95.777 211.861,95.788 211.758,95.922 201.920 L 96.057 192.000 128.000 192.000 L 159.943 192.000 160.078 201.920 C 160.212 211.758,160.223 211.861,161.407 214.400 C 162.974 217.760,166.261 221.060,169.555 222.583 L 172.160 223.787 189.013 223.787 L 205.867 223.787 208.288 222.652 C 211.161 221.305,214.267 218.556,215.722 216.073 C 217.142 213.650,239.828 130.704,239.833 127.920 C 239.835 126.820,239.513 125.295,239.119 124.533 C 238.724 123.770,225.592 103.934,209.935 80.453 C 191.373 52.615,180.831 37.186,179.639 36.111 C 178.632 35.204,176.730 33.956,175.411 33.338 L 173.013 32.213 128.853 32.125 C 87.351 32.041,84.550 32.082,82.308 32.804 M170.820 50.553 C 171.674 51.840,172.367 53.040,172.359 53.220 C 172.340 53.637,128.709 78.507,127.997 78.507 C 127.604 78.507,84.650 54.263,83.677 53.492 C 83.587 53.421,84.259 52.206,85.170 50.792 L 86.827 48.221 128.046 48.217 L 169.266 48.213 170.820 50.553 M93.867 77.782 L 103.893 83.516 104.107 111.198 C 104.260 131.132,104.459 139.119,104.817 139.733 C 105.472 140.859,107.472 142.694,108.779 143.369 C 110.222 144.114,113.891 144.046,115.423 143.246 C 117.077 142.383,118.869 140.470,119.440 138.959 C 119.739 138.166,119.893 130.155,119.893 115.386 C 119.893 103.081,119.987 93.013,120.101 93.013 C 120.215 93.013,121.574 93.685,123.123 94.507 C 126.935 96.529,129.065 96.529,132.877 94.507 C 134.426 93.685,135.785 93.013,135.899 93.013 C 136.013 93.013,136.107 101.387,136.107 111.622 C 136.107 129.943,136.121 130.256,137.035 131.883 C 137.546 132.791,138.730 134.066,139.665 134.714 C 141.075 135.691,141.819 135.893,144.000 135.893 C 146.172 135.893,146.927 135.690,148.312 134.730 C 151.844 132.282,151.653 133.751,151.893 107.144 L 152.107 83.515 162.133 77.782 C 167.648 74.629,172.976 71.574,173.973 70.993 L 175.787 69.937 175.787 122.862 L 175.787 175.787 128.000 175.787 L 80.213 175.787 80.213 122.862 L 80.213 69.937 82.027 70.993 C 83.024 71.574,88.352 74.629,93.867 77.782 M65.427 182.740 C 67.770 187.514,72.654 191.164,77.573 191.816 L 79.787 192.110 79.787 199.955 L 79.787 207.799 66.927 207.686 L 54.068 207.573 43.413 168.498 L 32.758 129.422 48.272 106.149 L 63.787 82.876 64.000 131.571 L 64.213 180.267 65.427 182.740 M212.587 168.497 L 201.932 207.573 189.073 207.686 L 176.213 207.799 176.213 199.955 L 176.213 192.110 178.427 191.816 C 183.346 191.164,188.230 187.514,190.573 182.740 L 191.787 180.267 191.902 131.427 L 192.018 82.588 207.630 106.004 L 223.243 129.420 212.587 168.497 " stroke="none" fill-rule="evenodd"></path></svg>