<svg fill="currentColor" viewBox="0 0 256 256" xmlns="http://www.w3.org/2000/svg"><path d="M118.339 24.269 C 116.097 24.856,114.156 26.316,113.050 28.246 C 112.002 30.076,112.000 30.114,111.787 44.947 L 111.573 59.814 62.080 90.273 C 34.859 107.025,11.845 121.341,10.938 122.085 C 8.253 124.287,7.344 127.930,8.687 131.107 C 9.693 133.487,23.410 154.992,25.383 157.283 C 29.167 161.676,35.390 165.490,41.244 167.004 C 46.186 168.282,49.540 168.303,57.387 167.103 C 68.759 165.364,71.387 165.092,79.360 164.826 C 91.345 164.428,102.678 165.964,111.728 169.215 L 116.052 170.767 114.612 172.744 C 113.821 173.831,107.944 181.920,101.554 190.720 C 95.164 199.520,89.778 206.888,89.586 207.094 C 88.875 207.854,78.448 201.435,72.263 196.431 C 70.119 194.697,67.678 192.990,66.837 192.639 C 61.142 190.260,54.671 195.771,56.245 201.658 C 56.990 204.441,57.710 205.328,62.091 208.851 C 87.015 228.897,118.844 236.365,150.303 229.546 C 182.560 222.555,210.389 199.515,223.510 168.937 C 235.510 140.970,234.764 109.894,221.437 82.560 C 206.259 51.430,177.211 30.204,142.895 25.168 C 136.941 24.294,120.540 23.694,118.339 24.269 M136.747 40.540 C 157.641 42.858,175.822 51.537,190.293 66.102 C 195.591 71.433,198.655 75.258,202.455 81.280 C 208.016 90.094,212.353 101.212,214.458 112.050 C 215.482 117.322,215.612 119.005,215.644 127.360 C 215.684 137.915,215.144 142.284,212.698 151.201 C 206.718 173.000,192.516 191.627,172.800 203.534 C 153.838 214.986,130.670 218.631,107.947 213.738 C 106.656 213.460,105.529 213.168,105.441 213.088 C 105.354 213.009,111.363 204.584,118.796 194.366 C 130.487 178.292,132.456 175.787,133.394 175.787 C 135.047 175.787,142.798 174.134,145.695 173.164 C 159.023 168.701,170.947 158.533,177.662 145.902 C 181.373 138.922,183.893 129.161,183.893 121.766 C 183.893 117.785,183.486 116.369,181.840 114.629 C 180.151 112.844,178.419 112.091,176.000 112.091 C 173.439 112.091,171.693 112.911,169.898 114.956 C 168.486 116.563,168.390 116.937,167.680 123.520 C 167.065 129.233,166.271 132.141,164.025 136.903 C 158.148 149.365,146.929 157.655,133.392 159.538 C 130.227 159.978,129.989 159.952,128.289 158.969 C 127.309 158.402,124.428 157.055,121.888 155.977 C 103.696 148.253,82.561 146.694,55.893 151.108 C 47.052 152.571,42.524 151.638,38.307 147.484 C 37.302 146.494,34.407 142.345,31.873 138.264 C 28.141 132.254,27.371 130.745,27.820 130.321 C 28.124 130.033,49.973 116.516,76.373 100.283 C 102.773 84.050,124.925 70.254,125.599 69.624 C 127.911 67.466,128.000 66.849,128.000 52.920 L 128.000 40.107 130.453 40.110 C 131.803 40.112,134.635 40.305,136.747 40.540 M120.260 88.537 C 117.704 89.357,114.284 92.443,113.058 95.035 C 111.039 99.306,112.122 105.168,115.546 108.505 C 119.059 111.927,124.710 112.954,128.965 110.942 C 131.816 109.594,134.663 106.295,135.520 103.347 C 138.170 94.232,129.310 85.633,120.260 88.537 " stroke="none" fill-rule="evenodd"></path></svg>