<svg fill="currentColor" viewBox="0 0 256 256" xmlns="http://www.w3.org/2000/svg"><path d="M69.091 24.319 C 65.028 25.017,60.838 27.857,58.505 31.493 C 55.943 35.485,55.841 36.606,55.981 59.179 L 56.107 79.573 57.297 82.115 C 57.952 83.513,58.981 85.305,59.585 86.096 C 60.188 86.887,72.709 96.556,87.408 107.582 C 102.107 118.607,114.133 127.794,114.133 127.997 C 114.133 128.200,102.102 137.395,87.396 148.430 C 72.691 159.466,60.170 169.136,59.573 169.919 C 58.976 170.702,57.952 172.487,57.297 173.885 L 56.107 176.427 56.107 197.760 C 56.107 217.000,56.180 219.303,56.855 221.227 C 57.883 224.157,60.379 227.318,63.162 229.216 C 67.630 232.262,64.143 232.107,128.000 232.107 C 191.857 232.107,188.370 232.262,192.838 229.216 C 195.621 227.318,198.117 224.157,199.145 221.227 C 199.819 219.305,199.893 217.020,199.893 198.187 C 199.893 178.533,199.844 177.146,199.064 175.045 C 197.396 170.549,196.494 169.768,168.530 148.622 C 153.865 137.533,141.867 128.256,141.867 128.006 C 141.867 127.757,153.862 118.485,168.523 107.403 C 196.184 86.494,197.235 85.591,199.043 81.189 C 199.829 79.275,199.890 77.879,200.014 58.967 C 200.160 36.625,200.055 35.482,197.495 31.493 C 195.751 28.776,193.676 27.024,190.314 25.430 L 187.520 24.107 129.280 24.045 C 97.248 24.011,70.163 24.134,69.091 24.319 M183.893 57.920 L 183.892 75.733 156.322 96.589 C 141.158 108.060,128.467 117.468,128.118 117.496 C 127.770 117.524,115.033 108.235,99.814 96.853 L 72.143 76.160 72.125 58.133 L 72.107 40.107 128.000 40.107 L 183.893 40.107 183.893 57.920 M152.631 156.617 C 165.719 166.509,176.805 174.964,177.268 175.407 C 178.093 176.198,177.136 176.213,127.881 176.213 C 100.256 176.213,77.653 176.118,77.653 176.002 C 77.653 175.462,127.812 138.240,128.291 138.424 C 128.591 138.539,139.544 146.726,152.631 156.617 M183.893 203.947 L 183.893 215.893 128.000 215.893 L 72.107 215.893 72.107 203.947 L 72.107 192.000 128.000 192.000 L 183.893 192.000 183.893 203.947 " stroke="none" fill-rule="evenodd"></path></svg>