<svg fill="currentColor" viewBox="0 0 256 256" xmlns="http://www.w3.org/2000/svg"><path d="M68.053 40.505 C 64.310 41.431,59.686 45.016,57.988 48.307 C 56.277 51.623,55.893 54.392,55.893 63.416 L 55.893 72.039 45.760 72.182 L 35.627 72.325 33.067 73.664 C 28.378 76.117,25.373 80.053,24.321 85.120 C 24.024 86.550,23.915 106.377,23.992 145.280 L 24.107 203.307 25.224 205.957 C 27.063 210.321,30.434 213.551,34.721 215.057 C 37.047 215.875,38.715 215.893,112.000 215.893 C 185.285 215.893,186.953 215.875,189.279 215.057 C 193.569 213.550,196.942 210.316,198.771 205.957 C 199.839 203.411,199.889 202.927,200.029 193.628 L 200.176 183.949 210.275 183.814 C 220.277 183.681,220.396 183.669,222.736 182.518 C 227.287 180.281,230.630 175.930,231.679 170.880 C 231.976 169.450,232.085 149.623,232.008 110.720 L 231.893 52.693 230.867 50.144 C 229.561 46.901,226.312 43.426,222.933 41.659 L 220.373 40.320 144.853 40.254 C 103.317 40.218,68.757 40.331,68.053 40.505 M215.893 87.104 L 215.893 118.315 210.027 112.598 C 202.436 105.200,200.827 104.327,194.773 104.323 C 187.920 104.318,187.536 104.570,174.399 117.666 L 163.412 128.620 140.479 105.719 C 120.591 85.858,117.225 82.671,115.124 81.711 C 111.919 80.248,108.567 79.731,105.515 80.227 C 100.462 81.050,99.354 81.908,85.227 95.939 L 72.107 108.970 72.107 82.432 L 72.107 55.893 144.000 55.893 L 215.893 55.893 215.893 87.104 M167.253 72.993 C 163.146 74.848,160.456 78.621,160.103 83.022 C 159.797 86.837,160.844 89.646,163.599 92.401 C 171.180 99.983,183.940 94.723,183.852 84.053 C 183.825 80.821,183.329 79.274,181.490 76.673 C 178.619 72.614,171.923 70.883,167.253 72.993 M55.990 129.600 L 56.107 171.307 57.224 173.957 C 59.063 178.321,62.434 181.551,66.721 183.057 C 69.037 183.872,70.593 183.893,126.496 183.893 L 183.893 183.893 183.893 192.000 L 183.893 200.107 112.000 200.107 L 40.107 200.107 40.107 144.000 L 40.107 87.893 47.990 87.893 L 55.873 87.893 55.990 129.600 M160.520 147.398 C 162.396 148.173,163.460 148.211,165.760 147.582 C 167.187 147.193,169.689 144.903,181.019 133.620 L 194.572 120.125 205.233 130.779 L 215.893 141.434 215.893 154.770 L 215.893 168.107 144.000 168.107 L 72.107 168.107 72.107 150.082 L 72.107 132.057 90.132 114.028 L 108.157 95.999 133.545 121.372 C 151.193 139.008,159.417 146.943,160.520 147.398 " stroke="none" fill-rule="evenodd"></path></svg>