<svg fill="currentColor" viewBox="0 0 256 256" xmlns="http://www.w3.org/2000/svg"><path d="M58.027 72.302 C 57.675 72.387,55.947 72.687,54.187 72.969 C 47.072 74.108,39.413 77.233,32.427 81.847 C 28.004 84.769,21.030 91.650,18.025 96.057 C 4.801 115.453,4.806 140.638,18.036 159.942 C 21.195 164.552,28.037 171.280,32.743 174.406 C 43.064 181.260,53.660 184.217,66.339 183.781 C 71.642 183.599,73.592 183.338,77.653 182.266 C 89.792 179.063,97.889 173.931,107.401 163.413 C 114.200 155.895,115.314 153.781,114.355 150.217 C 113.784 148.098,111.657 145.574,109.780 144.790 C 109.022 144.473,107.591 144.213,106.602 144.213 C 103.464 144.213,101.676 145.482,96.540 151.354 C 89.213 159.731,84.475 163.180,76.587 165.876 C 69.013 168.465,58.987 168.465,51.413 165.876 C 39.392 161.767,29.885 152.184,26.114 140.373 C 24.698 135.941,24.235 132.888,24.235 128.000 C 24.235 117.090,28.200 107.451,35.825 99.825 C 43.426 92.225,53.168 88.208,64.000 88.208 C 74.062 88.208,83.409 91.776,90.762 98.424 C 91.753 99.320,98.857 107.174,106.549 115.877 C 142.680 156.761,153.411 168.700,155.860 170.743 C 166.235 179.393,178.602 183.893,192.000 183.893 C 203.463 183.893,214.366 180.503,223.982 173.949 C 228.074 171.159,235.086 164.143,237.923 159.998 C 251.221 140.574,251.223 115.482,237.929 96.000 C 235.158 91.940,228.575 85.301,224.427 82.384 C 214.270 75.242,202.597 71.794,190.080 72.238 C 180.988 72.561,174.444 74.245,166.400 78.333 C 160.048 81.562,155.131 85.476,149.009 92.180 C 141.795 100.078,140.669 102.159,141.645 105.783 C 142.580 109.255,145.813 111.787,149.311 111.787 C 152.511 111.787,154.076 110.766,158.343 105.895 C 165.260 98.000,168.560 95.163,174.070 92.376 C 190.437 84.098,210.983 88.364,222.623 102.457 C 239.967 123.457,231.906 154.880,206.549 165.123 C 192.837 170.662,176.410 167.654,165.255 157.561 C 164.274 156.673,157.102 148.747,149.319 139.947 C 113.225 99.139,103.157 87.880,101.252 86.192 C 94.251 79.987,84.823 75.246,75.307 73.144 C 72.595 72.545,59.639 71.914,58.027 72.302 " stroke="none" fill-rule="evenodd"></path></svg>