<svg fill="currentColor" viewBox="0 0 256 256" xmlns="http://www.w3.org/2000/svg"><path d="M45.440 40.873 C 41.194 42.353,37.597 45.618,35.865 49.566 C 35.267 50.929,25.600 94.455,25.600 95.785 C 25.600 95.903,23.069 96.000,19.975 96.000 C 15.114 96.000,14.095 96.123,12.480 96.905 C 10.101 98.057,8.471 100.463,8.207 103.214 C 7.938 106.011,8.683 108.024,10.641 109.793 C 12.608 111.569,15.171 112.213,20.279 112.213 L 23.876 112.213 23.991 161.813 L 24.107 211.413 25.097 213.865 C 26.479 217.288,29.683 220.659,33.198 222.390 L 36.036 223.787 52.045 223.787 L 68.053 223.787 70.400 222.672 C 75.308 220.341,78.787 215.845,79.750 210.588 C 80.013 209.150,80.213 202.837,80.213 195.975 L 80.213 183.893 128.000 183.893 L 175.787 183.893 175.787 195.975 C 175.787 202.837,175.987 209.150,176.250 210.588 C 177.213 215.845,180.692 220.341,185.600 222.672 L 187.947 223.787 203.955 223.787 L 219.964 223.787 222.802 222.390 C 226.317 220.659,229.521 217.288,230.903 213.865 L 231.893 211.413 232.009 161.867 L 232.124 112.320 236.922 112.136 C 242.473 111.924,244.303 111.250,246.373 108.654 C 247.539 107.190,247.680 106.705,247.680 104.143 C 247.680 101.741,247.492 100.988,246.535 99.541 C 244.626 96.656,242.680 96.000,236.025 96.000 C 232.931 96.000,230.400 95.903,230.400 95.785 C 230.400 95.667,228.275 85.635,225.677 73.492 C 222.810 60.087,220.557 50.536,219.944 49.179 C 218.631 46.279,215.470 43.150,212.261 41.574 L 209.707 40.320 128.640 40.225 C 52.528 40.136,47.443 40.175,45.440 40.873 M205.458 56.427 C 205.570 56.720,207.547 65.744,209.851 76.480 L 214.040 96.000 128.000 96.000 L 41.960 96.000 46.149 76.480 C 48.453 65.744,50.430 56.720,50.542 56.427 C 50.843 55.643,205.157 55.643,205.458 56.427 M215.893 140.160 L 215.893 168.107 183.893 168.107 L 151.893 168.107 151.893 151.175 C 151.893 134.792,151.864 134.182,150.988 132.373 C 149.647 129.602,147.314 128.213,144.000 128.213 C 140.686 128.213,138.353 129.602,137.012 132.373 C 136.136 134.182,136.107 134.792,136.107 151.175 L 136.107 168.107 128.000 168.107 L 119.893 168.107 119.893 151.175 C 119.893 134.792,119.864 134.182,118.988 132.373 C 117.647 129.602,115.314 128.213,112.000 128.213 C 108.686 128.213,106.353 129.602,105.012 132.373 C 104.136 134.182,104.107 134.792,104.107 151.175 L 104.107 168.107 72.107 168.107 L 40.107 168.107 40.107 140.160 L 40.107 112.213 128.000 112.213 L 215.893 112.213 215.893 140.160 M64.995 128.409 C 61.058 129.347,57.692 132.697,56.473 136.891 C 54.783 142.703,58.312 149.364,64.099 151.286 C 73.077 154.268,81.887 146.288,79.576 137.266 C 77.884 130.661,71.590 126.838,64.995 128.409 M184.068 128.752 C 180.114 130.168,177.495 133.085,176.424 137.266 C 175.354 141.444,176.434 145.287,179.557 148.410 C 181.712 150.566,184.022 151.598,187.161 151.810 C 192.160 152.148,196.459 149.726,198.583 145.376 C 200.732 140.973,200.321 136.409,197.436 132.659 C 194.446 128.771,188.701 127.092,184.068 128.752 M64.000 196.053 L 64.000 208.213 52.053 208.213 L 40.107 208.213 40.107 196.053 L 40.107 183.893 52.053 183.893 L 64.000 183.893 64.000 196.053 M215.893 196.053 L 215.893 208.213 203.947 208.213 L 192.000 208.213 192.000 196.053 L 192.000 183.893 203.947 183.893 L 215.893 183.893 215.893 196.053 " stroke="none" fill-rule="evenodd"></path></svg>