<svg fill="currentColor" viewBox="0 0 256 256" xmlns="http://www.w3.org/2000/svg"><path d="M148.740 16.850 C 131.546 19.296,115.666 27.310,103.370 39.747 C 96.376 46.822,91.710 53.433,87.692 61.961 C 81.946 74.159,79.233 88.488,80.220 101.419 C 80.724 108.029,80.799 108.497,82.449 115.335 L 83.769 120.804 54.327 150.322 C 28.898 175.816,24.817 180.079,24.389 181.596 C 23.715 183.985,23.697 223.916,24.369 226.337 C 24.988 228.566,27.500 231.043,29.757 231.651 C 30.991 231.983,38.055 232.093,52.782 232.012 C 73.385 231.897,74.078 231.866,75.733 231.001 C 76.795 230.447,77.924 229.330,78.720 228.049 L 80.000 225.989 80.143 217.138 L 80.287 208.287 89.138 208.143 L 97.989 208.000 100.049 206.720 C 103.595 204.517,103.871 203.560,104.024 192.960 L 104.154 183.893 112.891 183.893 C 119.763 183.893,121.960 183.754,123.188 183.241 C 124.067 182.874,127.035 180.329,129.984 177.413 L 135.220 172.237 140.676 173.554 C 147.393 175.174,147.885 175.254,154.275 175.774 C 169.918 177.046,187.959 172.664,201.589 164.282 C 211.133 158.413,220.317 149.565,226.546 140.240 C 232.991 130.592,237.473 118.783,239.139 107.061 C 239.949 101.358,239.949 90.642,239.139 84.939 C 237.103 70.612,231.039 56.691,221.985 45.555 C 220.700 43.975,217.456 40.574,214.776 37.997 C 204.113 27.746,190.055 20.470,175.123 17.472 C 169.094 16.262,155.182 15.934,148.740 16.850 M171.093 33.066 C 184.487 35.572,195.421 41.334,205.043 50.957 C 217.555 63.468,223.742 78.372,223.742 96.000 C 223.742 113.630,217.553 128.538,205.043 141.041 C 197.338 148.742,190.078 153.272,180.101 156.603 C 166.361 161.189,150.908 160.940,137.563 155.917 C 134.325 154.698,131.927 154.602,129.771 155.604 C 128.914 156.002,125.512 158.978,122.210 162.217 L 116.207 168.107 105.172 168.107 C 92.545 168.107,91.610 168.313,89.328 171.604 L 88.107 173.364 87.970 182.682 L 87.834 192.000 79.038 192.000 C 68.880 192.000,67.459 192.367,65.359 195.539 C 64.216 197.264,64.213 197.289,64.084 206.581 L 63.954 215.893 52.030 215.893 L 40.107 215.893 40.107 201.714 L 40.107 187.534 69.954 157.660 C 90.727 136.869,100.002 127.304,100.461 126.200 C 101.454 123.810,101.271 121.787,99.616 116.884 C 96.983 109.081,96.291 104.858,96.264 96.427 C 96.236 87.681,96.888 83.406,99.396 75.899 C 102.520 66.547,106.920 59.191,113.493 52.328 C 124.841 40.480,137.388 34.332,154.453 32.257 C 157.363 31.903,167.518 32.397,171.093 33.066 M175.601 64.862 C 172.915 65.911,170.120 68.650,168.942 71.390 C 168.207 73.098,168.055 74.143,168.188 76.552 C 168.382 80.049,169.319 82.279,171.520 84.480 C 173.676 86.636,175.957 87.610,179.329 87.816 C 182.952 88.036,185.454 87.159,188.064 84.753 C 190.508 82.500,191.638 80.209,191.897 76.978 C 192.203 73.168,191.156 70.353,188.411 67.609 C 184.896 64.094,180.167 63.079,175.601 64.862 " stroke="none" fill-rule="evenodd"></path></svg>