<svg fill="currentColor" viewBox="0 0 256 256" xmlns="http://www.w3.org/2000/svg"><path d="M61.013 32.680 C 60.192 33.036,59.001 33.824,58.367 34.431 C 57.537 35.225,50.312 51.637,32.613 92.934 C 8.727 148.668,8.019 150.399,8.200 152.581 C 8.443 155.515,10.009 157.899,12.480 159.095 L 14.349 160.000 67.121 160.000 L 119.893 160.000 119.893 184.107 L 119.893 208.213 106.750 208.213 L 93.607 208.213 91.679 209.436 C 86.355 212.812,86.976 220.561,92.782 223.198 C 94.408 223.937,96.416 223.981,128.000 223.981 C 159.584 223.981,161.592 223.937,163.218 223.198 C 169.024 220.561,169.645 212.812,164.321 209.436 L 162.393 208.213 149.250 208.213 L 136.107 208.213 136.107 184.107 L 136.107 160.000 164.053 160.000 L 192.000 160.000 192.009 176.747 C 192.018 192.071,192.085 193.640,192.802 195.218 C 194.403 198.743,198.189 200.682,201.658 199.755 C 204.322 199.042,205.510 198.156,206.844 195.886 L 208.000 193.920 208.129 176.960 L 208.258 160.000 224.955 160.000 C 241.096 160.000,241.713 159.970,243.520 159.095 C 245.991 157.899,247.557 155.515,247.800 152.581 C 247.981 150.399,247.273 148.668,223.387 92.934 C 205.697 51.658,198.462 35.224,197.633 34.430 C 194.931 31.841,199.469 31.998,127.907 32.017 C 70.432 32.031,62.326 32.112,61.013 32.680 M207.071 95.680 C 218.259 121.787,227.413 143.291,227.413 143.467 C 227.413 143.643,182.677 143.787,128.000 143.787 C 73.323 143.787,28.587 143.643,28.587 143.467 C 28.587 143.291,37.741 121.787,48.929 95.680 L 69.271 48.213 128.000 48.213 L 186.729 48.213 207.071 95.680 " stroke="none" fill-rule="evenodd"></path></svg>