<svg fill="currentColor" viewBox="0 0 256 256" xmlns="http://www.w3.org/2000/svg"><path d="M49.736 48.867 C 43.624 50.544,37.312 55.645,34.676 61.036 C 31.903 66.709,32.013 64.317,32.006 118.720 L 32.000 168.107 27.076 168.107 C 21.577 168.107,19.811 168.670,17.791 171.070 C 16.016 173.180,15.655 176.159,15.901 186.667 C 16.139 196.847,16.423 198.435,18.881 203.307 C 20.783 207.078,25.438 211.545,29.440 213.441 C 31.200 214.275,33.657 215.168,34.901 215.425 C 38.097 216.087,217.903 216.087,221.099 215.425 C 229.331 213.721,236.453 207.002,239.145 198.400 C 239.709 196.599,239.931 193.872,240.099 186.667 C 240.345 176.159,239.984 173.180,238.209 171.070 C 236.189 168.670,234.423 168.107,228.924 168.107 L 224.000 168.107 223.994 118.720 C 223.988 76.739,223.893 68.934,223.359 66.669 C 221.338 58.098,214.555 51.103,206.077 48.847 C 202.704 47.950,53.009 47.969,49.736 48.867 M204.246 65.359 C 205.289 66.048,206.336 67.247,206.882 68.373 L 207.787 70.243 207.787 119.175 L 207.787 168.107 128.000 168.107 L 48.213 168.107 48.213 118.971 L 48.213 69.835 49.263 68.045 C 50.351 66.188,51.826 64.985,53.723 64.405 C 54.330 64.220,88.057 64.101,128.671 64.141 L 202.516 64.213 204.246 65.359 M111.147 79.985 C 110.912 80.070,110.196 80.254,109.554 80.396 C 107.991 80.740,105.395 83.076,104.683 84.780 C 103.466 87.694,104.325 91.963,106.530 93.957 C 108.708 95.926,109.481 96.000,128.000 96.000 C 146.519 96.000,147.292 95.926,149.470 93.957 C 151.586 92.043,152.508 87.869,151.440 85.041 C 150.877 83.552,149.105 81.645,147.413 80.709 C 146.287 80.085,144.055 79.990,128.853 79.916 C 119.349 79.869,111.381 79.900,111.147 79.985 M223.991 188.693 C 223.980 193.907,223.382 196.010,221.384 197.846 C 218.760 200.258,225.031 200.107,128.000 200.107 C 30.969 200.107,37.240 200.258,34.616 197.846 C 32.618 196.010,32.020 193.907,32.009 188.693 L 32.000 183.893 128.000 183.893 L 224.000 183.893 223.991 188.693 " stroke="none" fill-rule="evenodd"></path></svg>