<svg fill="currentColor" viewBox="0 0 256 256" xmlns="http://www.w3.org/2000/svg"><path d="M115.838 16.882 C 89.904 20.413,65.724 36.635,52.237 59.551 C 46.105 69.971,42.001 82.170,40.506 94.422 C 39.851 99.793,40.206 113.234,41.140 118.400 C 45.003 139.770,54.888 157.178,71.036 171.053 C 76.328 175.599,76.938 176.278,78.364 179.200 C 79.402 181.328,79.537 182.182,79.818 188.373 C 80.057 193.641,80.325 195.717,80.991 197.463 C 82.624 201.739,86.125 205.263,90.537 207.072 C 92.798 207.999,92.838 208.000,128.000 208.000 C 163.162 208.000,163.202 207.999,165.463 207.072 C 169.875 205.263,173.376 201.739,175.009 197.463 C 175.675 195.716,175.943 193.643,176.181 188.373 C 176.621 178.618,177.023 177.902,186.880 169.295 C 199.319 158.434,208.869 142.695,213.146 126.010 C 219.300 101.997,215.107 76.471,201.628 55.893 C 197.765 49.997,194.406 45.999,188.691 40.499 C 175.173 27.490,158.766 19.541,139.897 16.859 C 134.375 16.074,121.685 16.086,115.838 16.882 M135.163 32.454 C 144.503 33.476,152.278 35.808,160.838 40.154 C 198.220 59.133,211.209 106.391,188.910 142.293 C 185.303 148.101,180.196 153.909,174.070 159.171 C 168.073 164.323,165.521 167.358,163.213 172.086 C 160.982 176.658,160.344 179.545,160.111 186.133 L 159.903 192.000 148.005 192.000 L 136.107 192.000 136.107 169.725 L 136.107 147.449 151.638 131.858 C 165.492 117.951,167.225 116.061,167.679 114.365 C 169.463 107.692,163.065 102.110,156.680 104.767 C 155.622 105.207,150.575 109.936,141.547 118.944 L 128.000 132.462 114.453 118.944 C 105.425 109.936,100.378 105.207,99.320 104.767 C 92.935 102.110,86.537 107.692,88.321 114.365 C 88.775 116.061,90.508 117.951,104.362 131.858 L 119.893 147.449 119.893 169.725 L 119.893 192.000 108.000 192.000 L 96.107 192.000 95.893 185.920 C 95.655 179.150,94.900 176.004,92.333 171.093 C 90.214 167.041,87.586 163.910,83.337 160.377 C 69.523 148.891,60.927 134.939,57.598 118.602 C 49.556 79.140,75.428 40.706,115.006 33.320 C 122.356 31.949,128.241 31.696,135.163 32.454 M84.644 224.816 C 80.625 226.641,78.882 231.865,80.984 235.792 C 81.690 237.111,84.328 239.301,85.661 239.674 C 87.184 240.100,168.816 240.100,170.339 239.674 C 171.672 239.301,174.310 237.111,175.016 235.792 C 177.118 231.865,175.375 226.641,171.356 224.816 C 169.679 224.055,167.719 224.019,128.000 224.019 C 88.281 224.019,86.321 224.055,84.644 224.816 " stroke="none" fill-rule="evenodd"></path></svg>