<svg fill="currentColor" viewBox="0 0 256 256" xmlns="http://www.w3.org/2000/svg"><path d="M211.768 24.348 C 200.683 25.686,190.197 33.875,186.320 44.220 C 184.457 49.192,184.154 50.820,184.149 55.893 C 184.140 64.403,186.898 71.503,192.608 77.674 C 193.447 78.581,194.133 79.409,194.133 79.515 C 194.133 79.789,168.083 128.154,167.746 128.505 C 167.592 128.665,165.835 128.585,163.840 128.327 C 157.948 127.566,151.273 128.719,145.555 131.487 L 143.696 132.387 133.715 122.407 L 123.735 112.426 125.201 109.013 C 129.912 98.047,128.472 85.794,121.371 76.421 C 117.508 71.323,110.658 66.797,104.107 65.014 C 100.271 63.971,91.712 63.973,87.893 65.019 C 78.066 67.711,69.596 75.315,66.154 84.536 C 63.227 92.376,63.350 100.590,66.511 108.254 C 67.996 111.857,69.216 113.818,72.004 117.084 L 74.158 119.608 72.172 123.289 C 71.080 125.314,65.104 136.429,58.891 147.990 C 48.839 166.695,47.500 168.981,46.731 168.748 C 44.534 168.084,36.824 168.040,33.844 168.675 C 20.994 171.413,11.575 180.717,8.737 193.476 C 7.708 198.102,8.036 205.034,9.498 209.564 C 12.964 220.304,21.178 228.013,32.427 231.083 C 35.753 231.991,44.025 232.121,46.933 231.311 C 58.916 227.974,66.789 220.657,70.511 209.400 C 71.671 205.892,71.823 204.856,71.842 200.320 C 71.859 196.263,71.667 194.510,70.915 191.876 C 69.392 186.537,66.975 182.199,63.334 178.263 L 61.750 176.551 63.493 173.289 C 64.451 171.495,70.412 160.427,76.740 148.693 C 87.158 129.374,88.338 127.369,89.242 127.459 C 98.313 128.362,102.866 127.842,109.013 125.201 L 112.426 123.735 122.401 133.710 L 132.377 143.685 131.198 146.177 C 125.374 158.488,127.806 172.940,137.300 182.434 C 151.682 196.816,175.106 194.630,186.507 177.841 C 194.757 165.693,193.510 149.120,183.547 138.490 L 181.750 136.573 195.074 111.836 L 208.398 87.098 209.692 87.389 C 210.404 87.549,213.483 87.676,216.533 87.670 C 222.704 87.659,225.412 87.013,230.781 84.268 C 239.011 80.061,245.237 71.861,247.271 62.551 C 248.330 57.702,247.976 50.899,246.426 46.293 C 241.417 31.415,227.295 22.472,211.768 24.348 M222.627 41.587 C 229.090 44.501,233.043 52.023,231.665 58.785 C 229.494 69.436,218.498 74.915,208.800 70.178 C 206.038 68.828,202.942 65.540,201.463 62.386 C 200.464 60.254,200.324 59.436,200.351 55.893 C 200.374 52.748,200.579 51.410,201.263 49.920 C 203.288 45.510,206.436 42.570,210.914 40.906 C 214.168 39.697,219.067 39.982,222.627 41.587 M102.475 81.568 C 105.859 83.146,108.541 85.769,110.187 89.112 C 111.457 91.692,111.573 92.270,111.573 95.991 C 111.573 99.565,111.426 100.373,110.347 102.708 C 108.907 105.827,105.531 109.241,102.507 110.637 C 99.577 111.990,92.430 111.994,89.507 110.644 C 86.679 109.337,83.349 106.067,81.769 103.047 C 80.512 100.643,80.427 100.196,80.427 96.000 C 80.427 91.907,80.532 91.317,81.644 89.173 C 84.743 83.195,89.841 80.148,96.427 80.336 C 99.307 80.419,100.551 80.672,102.475 81.568 M166.613 145.628 C 169.941 147.172,172.859 150.073,174.368 153.340 C 175.438 155.654,175.573 156.425,175.568 160.213 C 175.563 164.159,175.462 164.673,174.226 167.047 C 172.654 170.065,169.324 173.335,166.493 174.644 C 163.578 175.990,156.422 175.990,153.507 174.644 C 150.676 173.335,147.346 170.065,145.774 167.047 C 144.538 164.673,144.437 164.159,144.432 160.213 C 144.427 156.428,144.561 155.658,145.622 153.387 C 148.426 147.379,153.717 144.145,160.427 144.336 C 163.354 144.420,164.547 144.669,166.613 145.628 M45.972 185.258 C 47.269 185.738,49.194 186.986,50.548 188.224 C 61.655 198.374,54.003 216.760,39.072 215.802 C 29.572 215.193,22.491 206.262,24.335 197.215 C 26.388 187.146,36.290 181.674,45.972 185.258 " stroke="none" fill-rule="evenodd"></path></svg>