<svg fill="currentColor" viewBox="0 0 256 256" xmlns="http://www.w3.org/2000/svg"><path d="M55.253 72.729 C 49.533 73.631,45.271 75.017,39.467 77.865 C 24.397 85.258,14.092 97.882,9.686 114.347 C 8.434 119.028,8.372 119.646,8.348 127.787 C 8.325 135.722,8.405 136.642,9.489 140.917 C 14.805 161.876,30.115 177.187,51.083 182.512 L 55.680 183.680 81.347 183.680 L 107.014 183.680 108.653 182.373 C 109.555 181.654,110.651 180.344,111.089 179.463 C 112.060 177.508,112.120 174.256,111.218 172.511 C 110.260 170.660,107.768 168.614,106.142 168.344 C 105.375 168.217,94.283 168.047,81.493 167.967 C 59.451 167.830,58.062 167.775,54.827 166.921 C 48.472 165.244,43.117 162.525,38.287 158.522 C 28.421 150.348,22.828 136.447,24.332 123.840 C 26.584 104.968,40.785 90.651,59.520 88.364 C 61.834 88.082,71.784 87.895,84.559 87.895 C 98.497 87.894,106.169 87.738,106.959 87.440 C 110.643 86.048,112.631 82.009,111.596 78.020 C 110.975 75.626,109.726 74.096,107.430 72.918 C 105.928 72.148,104.652 72.109,82.257 72.149 C 65.555 72.179,57.670 72.348,55.253 72.729 M148.480 72.925 C 146.245 74.133,145.013 75.673,144.404 78.020 C 143.369 82.009,145.357 86.048,149.041 87.440 C 149.831 87.738,157.503 87.894,171.441 87.895 C 184.216 87.895,194.166 88.082,196.480 88.364 C 215.215 90.651,229.416 104.968,231.668 123.840 C 233.186 136.563,227.604 150.301,217.502 158.707 C 213.678 161.889,206.323 165.624,201.387 166.891 C 197.916 167.782,196.757 167.828,174.507 167.967 C 161.717 168.047,150.625 168.217,149.858 168.344 C 148.390 168.587,145.793 170.590,144.984 172.102 C 142.770 176.238,145.056 182.248,149.321 183.507 C 150.317 183.800,159.281 183.898,175.787 183.794 L 200.747 183.637 205.013 182.512 C 226.295 176.902,241.416 161.602,246.660 140.373 C 247.538 136.820,247.661 135.294,247.661 128.000 C 247.661 120.706,247.538 119.180,246.660 115.627 C 241.278 93.840,225.512 78.372,203.307 73.093 C 200.734 72.482,196.828 72.365,175.147 72.250 C 151.122 72.123,149.905 72.154,148.480 72.925 " stroke="none" fill-rule="evenodd"></path></svg>