<svg fill="currentColor" viewBox="0 0 256 256" xmlns="http://www.w3.org/2000/svg"><path d="M84.693 40.807 C 83.989 41.174,77.267 47.599,69.755 55.086 L 56.098 68.698 50.982 63.546 C 48.169 60.713,45.011 57.887,43.966 57.266 C 37.348 53.334,29.570 60.266,32.818 67.200 C 33.795 69.284,51.282 86.792,53.041 87.446 C 54.904 88.140,57.586 87.976,59.492 87.053 C 60.624 86.505,67.099 80.318,78.135 69.240 C 96.294 51.010,96.326 50.971,95.888 47.088 C 95.305 41.918,89.171 38.476,84.693 40.807 M125.979 56.304 C 123.048 57.010,120.705 59.592,120.109 62.773 C 119.437 66.351,122.134 70.651,125.663 71.631 C 126.853 71.961,140.821 72.100,172.373 72.095 C 215.227 72.088,217.469 72.050,219.093 71.300 C 221.159 70.347,222.459 68.996,223.340 66.888 C 224.893 63.170,223.267 58.880,219.520 56.813 C 218.354 56.169,214.203 56.101,172.800 56.039 C 147.808 56.002,126.739 56.121,125.979 56.304 M84.693 104.807 C 83.989 105.174,77.267 111.599,69.755 119.086 L 56.098 132.698 50.982 127.546 C 48.169 124.713,45.011 121.887,43.966 121.266 C 37.348 117.334,29.570 124.266,32.818 131.200 C 33.795 133.284,51.282 150.792,53.041 151.446 C 54.904 152.140,57.586 151.976,59.492 151.053 C 60.624 150.505,67.099 144.318,78.135 133.240 C 96.294 115.010,96.326 114.971,95.888 111.088 C 95.305 105.918,89.171 102.476,84.693 104.807 M125.979 120.304 C 123.048 121.010,120.705 123.592,120.109 126.773 C 119.437 130.351,122.134 134.651,125.663 135.631 C 126.853 135.961,140.821 136.100,172.373 136.095 C 215.227 136.088,217.469 136.050,219.093 135.300 C 221.159 134.347,222.459 132.996,223.340 130.888 C 224.893 127.170,223.267 122.880,219.520 120.813 C 218.354 120.169,214.203 120.101,172.800 120.039 C 147.808 120.002,126.739 120.121,125.979 120.304 M84.693 168.807 C 83.989 169.174,77.267 175.599,69.755 183.086 L 56.098 196.698 50.982 191.546 C 48.169 188.713,45.011 185.887,43.966 185.266 C 37.348 181.334,29.570 188.266,32.818 195.200 C 33.795 197.284,51.282 214.792,53.041 215.446 C 54.904 216.140,57.586 215.976,59.492 215.053 C 60.624 214.505,67.099 208.318,78.135 197.240 C 96.294 179.010,96.326 178.971,95.888 175.088 C 95.305 169.918,89.171 166.476,84.693 168.807 M125.979 184.304 C 123.048 185.010,120.705 187.592,120.109 190.773 C 119.437 194.351,122.134 198.651,125.663 199.631 C 126.853 199.961,140.821 200.100,172.373 200.095 C 215.227 200.088,217.469 200.050,219.093 199.300 C 221.159 198.347,222.459 196.996,223.340 194.888 C 224.893 191.170,223.267 186.880,219.520 184.813 C 218.354 184.169,214.203 184.101,172.800 184.039 C 147.808 184.002,126.739 184.121,125.979 184.304 " stroke="none" fill-rule="evenodd"></path></svg>