<svg fill="currentColor" viewBox="0 0 256 256" xmlns="http://www.w3.org/2000/svg"><path d="M39.040 56.100 C 38.805 56.180,38.100 56.358,37.473 56.496 C 34.768 57.090,32.019 60.872,32.019 64.000 C 32.019 65.829,33.242 68.583,34.616 69.846 C 37.240 72.258,30.969 72.107,128.000 72.107 C 225.031 72.107,218.760 72.258,221.384 69.846 C 222.726 68.613,223.979 65.847,223.991 64.093 C 224.009 61.299,222.143 58.260,219.520 56.813 C 218.342 56.163,211.142 56.101,128.853 56.031 C 79.691 55.990,39.275 56.021,39.040 56.100 M39.040 120.100 C 38.805 120.180,38.100 120.358,37.473 120.496 C 34.768 121.090,32.019 124.872,32.019 128.000 C 32.019 129.829,33.242 132.583,34.616 133.846 C 37.240 136.258,30.969 136.107,128.000 136.107 C 225.031 136.107,218.760 136.258,221.384 133.846 C 222.726 132.613,223.979 129.847,223.991 128.093 C 224.009 125.299,222.143 122.260,219.520 120.813 C 218.342 120.163,211.142 120.101,128.853 120.031 C 79.691 119.990,39.275 120.021,39.040 120.100 M204.813 160.676 C 202.863 161.521,201.895 162.435,200.915 164.356 C 200.198 165.761,200.107 166.949,200.107 174.887 L 200.107 183.834 190.755 183.970 L 181.404 184.107 179.593 185.387 C 175.973 187.946,175.032 192.430,177.337 196.141 C 179.475 199.582,180.497 199.872,191.040 200.024 L 200.107 200.154 200.107 208.955 C 200.107 217.053,200.179 217.907,201.012 219.627 C 202.353 222.398,204.686 223.787,208.000 223.787 C 211.314 223.787,213.647 222.398,214.988 219.627 C 215.821 217.907,215.893 217.053,215.893 208.955 L 215.893 200.154 224.960 200.024 C 235.503 199.872,236.525 199.582,238.663 196.141 C 241.061 192.279,239.832 187.430,235.882 185.169 C 234.092 184.144,233.709 184.102,224.960 183.963 L 215.893 183.820 215.893 174.880 C 215.893 166.949,215.802 165.761,215.085 164.356 C 214.087 162.401,213.118 161.503,211.091 160.656 C 209.125 159.835,206.735 159.842,204.813 160.676 M39.040 184.103 C 38.805 184.181,38.100 184.358,37.473 184.496 C 34.768 185.090,32.019 188.872,32.019 192.000 C 32.019 193.829,33.242 196.583,34.616 197.846 C 37.201 200.222,34.268 200.107,92.040 200.097 C 142.951 200.088,145.355 200.053,146.987 199.298 C 153.280 196.384,153.663 188.212,147.653 185.073 L 145.396 183.893 92.431 183.927 C 63.301 183.946,39.275 184.025,39.040 184.103 " stroke="none" fill-rule="evenodd"></path></svg>