<svg fill="currentColor" viewBox="0 0 256 256" xmlns="http://www.w3.org/2000/svg"><path d="M39.040 56.085 C 38.805 56.173,38.100 56.358,37.473 56.496 C 34.768 57.090,32.019 60.872,32.019 64.000 C 32.019 65.829,33.242 68.583,34.616 69.846 C 36.830 71.882,38.173 72.107,48.109 72.107 C 56.923 72.107,57.519 72.055,59.298 71.147 C 64.210 68.637,65.453 62.967,61.993 58.854 C 59.810 56.260,59.157 56.119,48.853 56.017 C 43.691 55.966,39.275 55.997,39.040 56.085 M93.979 56.305 C 93.220 56.487,91.923 57.151,91.099 57.780 C 86.320 61.425,87.236 68.785,92.782 71.305 C 94.429 72.053,97.258 72.088,155.854 72.097 C 222.475 72.107,218.786 72.234,221.384 69.846 C 222.726 68.613,223.979 65.847,223.991 64.093 C 224.009 61.299,222.143 58.260,219.520 56.813 C 218.347 56.166,213.093 56.101,156.800 56.040 C 123.008 56.003,94.739 56.123,93.979 56.305 M39.040 120.103 C 38.805 120.181,38.100 120.358,37.473 120.496 C 34.768 121.090,32.019 124.872,32.019 128.000 C 32.019 129.829,33.242 132.583,34.616 133.846 C 36.830 135.882,38.173 136.107,48.109 136.107 C 56.923 136.107,57.519 136.055,59.298 135.147 C 60.332 134.619,61.764 133.449,62.482 132.547 C 63.649 131.080,63.787 130.601,63.787 128.000 C 63.787 125.399,63.649 124.920,62.482 123.453 C 61.764 122.551,60.332 121.381,59.298 120.853 C 57.518 119.944,56.946 119.895,48.443 119.927 C 43.506 119.946,39.275 120.025,39.040 120.103 M92.800 120.696 C 86.227 123.744,86.415 132.648,93.112 135.446 C 94.514 136.032,101.624 136.107,155.947 136.107 C 222.462 136.107,218.787 136.234,221.384 133.846 C 222.726 132.613,223.979 129.847,223.991 128.093 C 224.009 125.299,222.143 122.260,219.520 120.813 C 218.348 120.166,213.024 120.098,156.373 120.006 C 96.899 119.908,94.441 119.935,92.800 120.696 M39.040 184.103 C 38.805 184.181,38.100 184.358,37.473 184.496 C 34.768 185.090,32.019 188.872,32.019 192.000 C 32.019 193.829,33.242 196.583,34.616 197.846 C 36.833 199.884,38.171 200.107,48.093 200.097 C 58.438 200.087,59.749 199.812,61.954 197.192 C 65.454 193.033,64.236 187.376,59.298 184.853 C 57.518 183.944,56.946 183.895,48.443 183.927 C 43.506 183.946,39.275 184.025,39.040 184.103 M92.800 184.696 C 91.861 185.131,90.670 185.947,90.154 186.510 C 89.024 187.738,87.892 190.323,87.896 191.666 C 87.904 195.114,90.549 198.766,93.663 199.631 C 94.864 199.964,113.149 200.103,156.280 200.104 C 222.433 200.107,218.787 200.233,221.384 197.846 C 222.726 196.613,223.979 193.847,223.991 192.093 C 224.009 189.299,222.143 186.260,219.520 184.813 C 218.348 184.166,213.024 184.098,156.373 184.006 C 96.899 183.908,94.441 183.935,92.800 184.696 " stroke="none" fill-rule="evenodd"></path></svg>