<svg fill="currentColor" viewBox="0 0 256 256" xmlns="http://www.w3.org/2000/svg"><path d="M116.053 16.857 C 100.459 18.996,85.485 25.448,72.960 35.423 C 68.848 38.698,61.309 46.311,58.391 50.133 C 48.834 62.655,42.848 77.134,40.732 92.844 C 39.851 99.389,40.061 112.789,41.152 119.680 C 44.702 142.095,54.756 164.597,71.120 186.752 C 78.110 196.216,91.994 211.658,100.582 219.520 L 105.242 223.787 79.394 224.000 C 55.834 224.194,53.426 224.279,52.182 224.960 C 48.505 226.971,46.996 232.078,48.984 235.792 C 49.690 237.111,52.328 239.301,53.661 239.674 C 55.184 240.100,200.816 240.100,202.339 239.674 C 203.672 239.301,206.310 237.111,207.016 235.792 C 209.004 232.078,207.495 226.971,203.818 224.960 C 202.574 224.279,200.166 224.194,176.610 224.000 L 150.766 223.787 155.628 219.307 C 161.171 214.199,172.325 202.354,177.497 196.083 C 198.374 170.773,210.783 145.388,214.847 119.680 C 215.926 112.853,216.142 99.858,215.288 93.155 C 211.989 67.255,197.631 44.383,175.732 30.141 C 165.138 23.252,152.287 18.524,139.605 16.850 C 133.751 16.077,121.713 16.081,116.053 16.857 M135.163 32.454 C 151.130 34.202,166.053 41.018,177.296 51.697 C 205.608 78.591,207.323 120.086,181.869 162.366 C 173.138 176.870,162.405 190.093,147.718 204.439 C 141.483 210.528,128.656 221.865,128.000 221.865 C 127.335 221.865,114.363 210.403,108.214 204.383 C 78.767 175.548,61.794 146.799,57.162 117.913 C 53.118 92.693,60.847 68.740,78.448 51.945 C 83.588 47.039,88.693 43.438,95.162 40.154 C 108.099 33.586,121.660 30.975,135.163 32.454 M119.893 64.809 C 107.226 67.612,97.139 75.615,91.733 87.152 C 81.982 107.960,91.947 132.761,113.493 141.309 C 120.581 144.120,129.744 144.767,137.173 142.980 C 141.808 141.866,148.516 138.674,152.360 135.755 C 162.708 127.897,168.902 114.296,167.939 101.545 C 166.614 83.994,154.820 69.717,137.934 65.222 C 133.103 63.935,124.711 63.744,119.893 64.809 M134.169 80.867 C 138.091 81.888,141.591 83.968,144.896 87.240 C 152.453 94.723,154.060 105.726,149.005 115.369 C 145.052 122.911,136.589 128.000,128.000 128.000 C 124.303 128.000,121.400 127.280,117.401 125.371 C 107.743 120.759,102.353 109.635,104.575 98.901 C 106.266 90.729,113.523 83.073,121.648 80.888 C 124.715 80.063,131.042 80.052,134.169 80.867 " stroke="none" fill-rule="evenodd"></path></svg>