<svg fill="currentColor" viewBox="0 0 256 256" xmlns="http://www.w3.org/2000/svg"><path d="M66.347 49.046 C 51.615 52.921,38.165 67.395,28.662 89.600 C 14.060 123.720,11.900 162.950,23.365 185.813 C 26.667 192.398,32.048 198.602,37.547 202.164 C 44.817 206.873,56.461 209.117,64.640 207.386 C 79.802 204.177,93.550 190.676,110.289 162.560 C 116.537 152.065,117.762 149.594,117.751 147.500 C 117.718 141.228,111.030 137.373,105.663 140.532 C 104.524 141.202,103.419 142.387,102.562 143.853 C 95.659 155.676,93.295 159.609,90.547 163.840 C 81.353 177.997,71.599 188.080,64.544 190.719 C 55.369 194.152,44.596 190.054,39.126 181.049 C 29.844 165.769,29.758 136.220,38.912 107.947 C 45.001 89.143,54.477 73.907,63.963 67.673 C 68.018 65.007,70.426 64.206,74.240 64.253 C 79.786 64.322,84.900 67.077,91.273 73.430 C 101.376 83.501,109.638 96.489,129.923 134.187 C 138.921 150.909,143.451 158.946,148.480 167.107 C 162.955 190.601,175.323 202.751,188.816 206.733 C 195.713 208.769,204.747 208.182,212.480 205.196 C 220.666 202.034,228.073 194.912,232.635 185.813 C 244.089 162.972,241.935 123.798,227.348 89.650 C 218.427 68.765,205.639 54.335,191.961 49.721 C 187.411 48.186,180.255 47.777,175.518 48.781 C 164.758 51.062,154.094 59.300,143.380 73.606 C 139.020 79.427,138.320 81.165,139.121 84.176 C 140.189 88.192,143.710 90.733,147.677 90.352 C 150.422 90.088,152.063 88.876,154.880 85.030 C 162.688 74.370,170.620 67.112,176.774 64.997 C 179.751 63.973,184.351 63.983,187.093 65.019 C 209.580 73.514,229.000 127.440,222.730 163.976 C 219.896 180.488,212.890 189.669,201.646 191.603 C 193.734 192.964,187.599 190.202,179.156 181.476 C 169.493 171.491,162.069 159.796,143.042 124.587 C 128.445 97.578,122.946 88.202,115.344 77.368 C 104.013 61.221,92.892 51.851,81.745 49.059 C 77.328 47.952,70.526 47.947,66.347 49.046 " stroke="none" fill-rule="evenodd"></path></svg>