<svg fill="currentColor" viewBox="0 0 256 256" xmlns="http://www.w3.org/2000/svg"><path d="M159.360 16.482 C 144.176 18.760,131.364 24.505,120.732 33.806 C 104.121 48.335,95.324 68.804,96.153 90.994 L 96.404 97.721 62.219 144.327 C 43.418 169.961,27.395 191.894,26.613 193.069 C 25.828 194.248,24.866 196.521,24.466 198.143 C 23.843 200.666,23.813 201.506,24.254 204.076 C 24.536 205.722,25.263 207.980,25.870 209.094 C 26.558 210.360,30.517 214.635,36.419 220.487 C 44.895 228.892,46.120 229.949,48.329 230.765 C 53.383 232.632,58.602 232.232,62.507 229.677 C 63.445 229.062,85.321 213.086,111.118 194.173 L 158.023 159.787 167.438 159.758 C 177.807 159.727,182.137 159.113,189.913 156.571 C 228.363 144.007,248.959 103.229,236.166 64.996 C 228.102 40.897,207.772 22.929,182.400 17.479 C 179.007 16.750,176.342 16.535,169.387 16.426 C 164.576 16.351,160.064 16.377,159.360 16.482 M179.086 33.256 C 189.899 35.461,198.807 40.179,206.823 47.944 C 215.179 56.040,220.515 65.840,223.000 77.653 C 224.039 82.591,224.039 93.045,223.000 98.278 C 221.540 105.635,217.863 114.553,214.279 119.430 C 213.660 120.272,213.091 121.048,213.013 121.155 C 212.860 121.366,134.827 43.452,134.827 43.088 C 134.827 42.559,142.398 38.167,145.950 36.635 C 150.385 34.723,156.591 33.027,161.280 32.447 C 165.974 31.866,174.075 32.234,179.086 33.256 M162.275 93.795 L 201.454 132.976 198.754 134.730 C 189.345 140.841,179.157 143.825,167.736 143.814 C 152.402 143.799,138.690 137.931,127.871 126.753 C 117.446 115.983,112.220 103.001,112.215 87.862 C 112.212 78.988,113.993 71.160,117.752 63.529 C 119.147 60.697,122.753 54.613,123.038 54.613 C 123.069 54.613,140.726 72.245,162.275 93.795 M108.736 128.705 C 115.507 138.536,124.200 146.235,134.930 151.903 L 138.788 153.941 134.082 157.398 C 131.493 159.300,112.506 173.236,91.888 188.367 L 54.400 215.878 47.273 208.763 L 40.145 201.648 41.542 199.704 C 42.944 197.753,93.576 128.731,99.112 121.224 L 102.064 117.220 104.100 121.075 C 105.219 123.195,107.306 126.628,108.736 128.705 M101.542 144.440 C 99.979 144.922,98.604 146.058,94.208 150.500 C 91.233 153.507,88.595 156.503,88.346 157.158 C 87.277 159.970,88.203 164.152,90.317 166.064 C 92.584 168.114,96.643 168.669,99.324 167.295 C 100.194 166.849,103.234 164.107,106.079 161.203 C 110.661 156.524,111.300 155.690,111.684 153.892 C 113.008 147.680,107.548 142.591,101.542 144.440 " stroke="none" fill-rule="evenodd"></path></svg>