<svg fill="currentColor" viewBox="0 0 256 256" xmlns="http://www.w3.org/2000/svg"><path d="M128.873 16.699 C 120.134 18.148,110.655 23.801,104.971 30.954 C 100.275 36.863,97.459 43.361,96.399 50.731 C 95.897 54.218,96.044 61.732,96.643 63.240 C 96.916 63.928,95.069 63.980,66.484 64.093 L 36.034 64.213 33.197 65.610 C 29.683 67.341,26.479 70.713,25.097 74.135 L 24.107 76.587 24.107 128.000 L 24.107 179.413 25.097 181.865 C 26.479 185.287,29.683 188.659,33.197 190.390 L 36.034 191.787 56.310 191.910 L 76.587 192.034 78.363 195.774 C 90.865 222.094,120.312 236.550,149.250 230.573 C 168.113 226.677,185.369 213.125,193.643 195.710 C 195.341 192.136,195.895 191.573,197.715 191.573 C 199.684 191.573,205.577 189.744,209.280 187.982 C 220.050 182.860,227.687 173.426,230.941 161.223 C 231.888 157.672,231.893 157.473,231.893 123.733 L 231.893 89.813 230.875 87.561 C 229.623 84.790,226.431 81.821,223.708 80.893 C 222.342 80.427,220.179 80.213,216.834 80.213 C 211.284 80.213,211.615 80.635,213.544 76.023 C 216.166 69.755,216.599 61.163,214.612 54.827 C 209.065 37.134,190.379 27.764,173.082 34.001 C 171.478 34.580,170.122 34.991,170.069 34.913 C 167.179 30.670,162.256 25.577,158.720 23.173 C 156.208 21.465,151.375 19.038,148.693 18.137 C 143.312 16.330,134.815 15.714,128.873 16.699 M143.391 33.233 C 154.560 36.768,161.559 48.385,159.582 60.109 C 158.899 64.161,156.331 69.291,153.425 72.413 L 151.189 74.816 150.177 72.726 C 148.767 69.813,145.958 67.162,142.592 65.568 L 139.733 64.213 126.507 64.000 L 113.280 63.787 112.781 61.867 C 112.075 59.149,112.110 52.692,112.847 49.923 C 115.074 41.555,122.325 34.518,130.678 32.618 C 134.170 31.824,139.796 32.096,143.391 33.233 M190.804 49.571 C 194.039 51.081,196.879 54.003,198.523 57.514 C 199.694 60.016,199.862 60.827,199.862 64.000 C 199.862 67.173,199.694 67.984,198.523 70.486 C 196.178 75.494,191.970 78.740,186.471 79.783 C 184.110 80.231,168.107 80.395,168.107 79.972 C 168.107 79.839,168.566 79.119,169.127 78.372 C 173.508 72.538,176.652 60.936,175.934 53.248 L 175.671 50.428 177.113 49.683 C 179.542 48.427,180.551 48.244,184.533 48.342 C 187.669 48.419,188.819 48.644,190.804 49.571 M136.107 128.000 L 136.107 175.787 88.107 175.787 L 40.107 175.787 40.107 128.000 L 40.107 80.213 88.107 80.213 L 136.107 80.213 136.107 128.000 M68.338 96.916 C 63.813 99.156,62.657 105.271,66.007 109.253 C 67.864 111.459,69.279 111.924,74.755 112.130 L 79.749 112.317 79.875 133.279 C 80.013 156.391,79.923 155.616,82.747 157.993 C 86.744 161.356,92.892 160.178,95.095 155.627 C 95.979 153.800,96.000 153.280,96.000 133.038 L 96.000 112.319 101.042 112.139 C 105.522 111.979,106.296 111.835,107.980 110.848 C 112.503 108.197,113.323 101.754,109.581 98.260 C 107.214 96.050,106.730 96.000,87.800 96.000 C 70.651 96.001,70.138 96.025,68.338 96.916 M183.795 135.787 L 183.664 175.573 182.508 179.792 C 176.758 200.785,159.110 214.992,137.813 215.774 C 122.892 216.322,109.624 210.626,99.918 199.506 C 97.771 197.046,94.720 192.785,94.720 192.248 C 94.720 192.111,104.492 192.000,116.435 192.000 C 136.981 192.000,138.296 191.954,140.862 191.145 C 144.328 190.051,147.216 187.912,149.143 185.009 C 152.024 180.670,151.893 182.944,151.893 137.319 L 151.893 96.000 167.910 96.000 L 183.926 96.000 183.795 135.787 M215.893 125.419 C 215.893 145.107,215.739 155.586,215.425 157.099 C 215.168 158.343,214.278 160.800,213.447 162.560 C 211.494 166.697,206.710 171.562,202.776 173.409 C 201.313 174.097,200.066 174.577,200.005 174.476 C 199.944 174.376,199.947 156.677,200.013 135.147 L 200.132 96.000 208.013 96.000 L 215.893 96.000 215.893 125.419 " stroke="none" fill-rule="evenodd"></path></svg>