<svg fill="currentColor" viewBox="0 0 256 256" xmlns="http://www.w3.org/2000/svg"><path d="M157.979 24.299 C 157.220 24.485,155.923 25.151,155.099 25.780 C 152.611 27.678,152.156 29.003,151.970 34.880 L 151.806 40.107 147.142 40.107 C 140.811 40.107,138.673 41.017,136.915 44.463 C 135.433 47.367,136.183 51.728,138.530 53.850 C 140.240 55.397,142.344 55.893,147.186 55.893 L 151.893 55.893 151.896 60.267 C 151.899 65.701,152.411 67.605,154.409 69.603 C 157.754 72.948,163.085 72.729,166.119 69.122 C 167.658 67.293,168.102 65.316,168.104 60.267 L 168.107 55.893 172.907 55.884 C 179.484 55.871,181.662 54.860,183.237 51.091 C 184.072 49.093,184.072 46.907,183.237 44.909 C 181.666 41.147,179.479 40.129,172.951 40.116 L 168.194 40.107 168.044 34.880 C 167.919 30.560,167.742 29.395,167.020 28.166 C 165.268 25.184,161.303 23.488,157.979 24.299 M91.451 39.206 C 63.362 51.052,42.628 74.881,35.204 103.849 C 32.889 112.879,32.241 118.104,32.236 127.787 C 32.231 136.768,32.645 140.779,34.410 148.829 C 42.310 184.854,71.040 213.572,107.228 221.617 C 115.213 223.392,119.156 223.786,128.640 223.757 C 138.780 223.725,144.281 222.991,153.620 220.423 C 176.926 214.014,196.870 199.032,209.906 178.141 C 212.443 174.076,216.856 164.919,218.013 161.323 C 218.924 158.489,218.935 158.274,218.283 156.030 C 217.495 153.320,215.581 151.364,212.944 150.574 C 211.573 150.163,210.408 150.209,206.644 150.823 C 200.693 151.793,188.241 152.148,182.759 151.504 C 169.974 150.000,157.382 145.777,146.803 139.446 C 123.028 125.217,107.211 100.109,104.494 72.283 C 103.880 65.996,104.179 56.500,105.208 49.618 C 105.973 44.498,105.972 44.375,105.153 42.409 C 104.677 41.265,103.625 39.847,102.696 39.097 C 101.296 37.967,100.677 37.769,98.216 37.671 C 95.716 37.572,94.872 37.763,91.451 39.206 M88.733 76.727 C 93.711 114.765,118.429 146.676,153.835 160.778 C 164.989 165.220,176.370 167.506,189.983 168.040 L 197.139 168.320 194.728 171.941 C 183.700 188.499,167.308 200.240,148.267 205.217 C 140.301 207.300,137.865 207.575,127.573 207.554 C 118.801 207.536,117.504 207.434,112.531 206.377 C 95.785 202.819,82.109 195.324,70.560 183.376 C 59.829 172.275,53.001 159.238,49.601 143.360 C 48.546 138.435,48.459 137.259,48.459 128.000 C 48.459 118.744,48.547 117.562,49.602 112.615 C 53.035 96.522,59.717 83.776,70.573 72.612 C 75.469 67.578,78.889 64.693,84.053 61.244 L 87.680 58.822 87.964 65.925 C 88.121 69.832,88.467 74.693,88.733 76.727 M204.445 64.891 C 203.389 65.428,202.109 66.567,201.458 67.549 C 200.325 69.261,200.319 69.306,200.191 78.544 L 200.061 87.821 191.017 87.964 C 182.293 88.102,181.908 88.144,180.118 89.169 C 176.168 91.430,174.939 96.279,177.337 100.141 C 179.475 103.582,180.497 103.872,191.040 104.024 L 200.107 104.154 200.107 112.955 C 200.107 121.053,200.179 121.907,201.012 123.627 C 202.353 126.398,204.686 127.787,208.000 127.787 C 211.314 127.787,213.647 126.398,214.988 123.627 C 215.821 121.907,215.893 121.053,215.893 112.955 L 215.893 104.154 224.960 104.024 C 235.503 103.872,236.525 103.582,238.663 100.141 C 241.061 96.279,239.832 91.430,235.882 89.169 C 234.092 88.144,233.709 88.102,224.960 87.963 L 215.893 87.820 215.893 79.031 C 215.893 70.947,215.821 70.093,214.988 68.373 C 213.140 64.554,208.272 62.947,204.445 64.891 " stroke="none" fill-rule="evenodd"></path></svg>