<svg fill="currentColor" viewBox="0 0 256 256" xmlns="http://www.w3.org/2000/svg"><path d="M199.040 24.104 C 198.805 24.182,198.100 24.358,197.473 24.496 C 195.816 24.860,193.703 26.799,192.802 28.782 C 192.124 30.275,192.017 31.694,192.009 39.360 L 192.000 48.213 183.026 48.213 C 172.999 48.213,172.152 48.388,169.934 50.914 C 166.667 54.636,167.979 60.916,172.480 63.095 C 174.200 63.928,175.053 64.000,183.175 64.000 L 192.000 64.000 192.000 72.825 C 192.000 80.947,192.072 81.800,192.905 83.520 C 194.286 86.373,196.561 87.680,200.143 87.680 C 202.705 87.680,203.190 87.539,204.654 86.373 C 207.705 83.940,207.981 82.869,208.144 72.853 L 208.288 64.000 216.891 63.991 C 224.313 63.983,225.730 63.874,227.218 63.198 C 233.024 60.561,233.645 52.812,228.321 49.436 L 226.393 48.213 217.340 48.213 L 208.287 48.213 208.143 39.147 C 208.002 30.227,207.982 30.049,206.869 28.155 C 206.203 27.024,205.061 25.859,204.095 25.328 C 202.496 24.448,199.899 23.819,199.040 24.104 M105.712 49.265 C 90.521 53.086,77.538 56.441,76.862 56.721 C 75.305 57.366,73.149 59.584,72.560 61.148 C 72.249 61.972,72.107 79.838,72.107 118.150 L 72.107 173.950 67.925 171.865 C 62.140 168.981,57.042 167.933,50.347 168.251 C 44.600 168.524,40.649 169.529,35.872 171.931 C 27.315 176.233,20.770 183.811,17.916 192.720 C 14.900 202.135,15.529 211.070,19.833 219.947 C 24.980 230.563,34.993 237.797,47.065 239.620 C 63.241 242.063,79.773 232.314,85.585 216.904 C 87.920 210.715,87.893 211.339,87.893 163.002 L 87.893 118.292 123.413 109.429 C 142.949 104.555,160.112 100.210,161.553 99.774 C 163.511 99.182,164.558 98.555,165.702 97.288 C 167.511 95.286,167.847 94.185,167.592 91.104 C 167.271 87.233,163.927 84.088,160.103 84.063 C 159.338 84.058,142.972 87.989,123.733 92.800 C 104.495 97.611,88.558 101.547,88.319 101.547 C 88.028 101.547,87.920 96.339,87.995 85.896 L 88.107 70.245 113.717 63.816 C 132.275 59.157,139.696 57.122,140.667 56.424 C 143.979 54.043,144.773 48.494,142.247 45.374 C 140.449 43.152,138.500 42.232,135.687 42.279 C 134.168 42.304,123.532 44.783,105.712 49.265 M204.587 112.818 C 202.997 113.528,201.160 115.454,200.560 117.041 C 200.280 117.785,200.107 122.758,200.107 130.096 L 200.107 141.950 195.925 139.865 C 190.140 136.981,185.042 135.933,178.347 136.251 C 172.600 136.524,168.649 137.529,163.872 139.931 C 152.940 145.427,145.639 155.979,144.238 168.308 C 142.704 181.809,149.659 195.736,161.495 202.863 C 167.287 206.351,176.257 208.582,182.187 208.009 C 196.948 206.583,208.937 197.625,213.742 184.431 C 215.870 178.588,215.954 177.033,215.812 145.853 L 215.680 116.985 214.370 115.346 C 213.649 114.444,212.401 113.371,211.596 112.961 C 209.863 112.077,206.405 112.006,204.587 112.818 M182.803 152.338 C 198.982 154.677,205.523 174.600,193.897 186.133 C 182.623 197.318,163.621 191.332,160.419 175.588 C 159.520 171.170,160.658 165.334,163.210 161.271 C 165.842 157.081,171.765 153.156,176.640 152.371 C 179.830 151.857,179.487 151.859,182.803 152.338 M54.803 184.338 C 70.982 186.677,77.523 206.600,65.897 218.133 C 54.623 229.318,35.621 223.332,32.419 207.588 C 31.520 203.170,32.658 197.334,35.210 193.271 C 37.842 189.081,43.765 185.156,48.640 184.371 C 51.830 183.857,51.487 183.859,54.803 184.338 " stroke="none" fill-rule="evenodd"></path></svg>