<svg fill="currentColor" viewBox="0 0 256 256" xmlns="http://www.w3.org/2000/svg"><path d="M76.587 16.818 C 74.997 17.528,73.160 19.454,72.560 21.041 C 72.311 21.702,72.107 24.422,72.107 27.087 L 72.107 31.931 62.187 32.072 L 52.267 32.213 49.408 33.568 C 45.901 35.229,43.211 37.846,41.566 41.197 L 40.320 43.733 40.320 125.013 L 40.320 206.293 41.437 209.564 C 45.063 220.187,53.050 227.792,63.876 230.930 L 67.200 231.893 128.000 231.893 L 188.800 231.893 192.124 230.930 C 202.950 227.792,210.937 220.187,214.563 209.564 L 215.680 206.293 215.680 125.013 L 215.680 43.733 214.434 41.197 C 212.789 37.846,210.099 35.229,206.592 33.568 L 203.733 32.213 193.847 32.073 L 183.960 31.932 183.820 26.457 C 183.682 21.078,183.657 20.954,182.370 19.345 C 180.686 17.240,178.644 16.215,176.134 16.214 C 173.658 16.213,172.094 16.784,170.507 18.267 C 168.523 20.123,168.107 21.650,168.107 27.080 L 168.107 32.000 152.142 32.000 L 136.178 32.000 136.035 26.987 C 135.862 20.942,135.211 19.269,132.321 17.436 C 129.609 15.716,126.391 15.716,123.679 17.436 C 120.789 19.269,120.138 20.942,119.965 26.987 L 119.822 32.000 103.892 32.000 L 87.961 32.000 87.821 26.491 C 87.682 21.074,87.658 20.956,86.370 19.345 C 85.649 18.444,84.401 17.371,83.596 16.961 C 81.863 16.077,78.405 16.006,76.587 16.818 M72.107 53.137 C 72.107 59.653,73.093 61.750,76.909 63.344 C 78.907 64.179,81.093 64.179,83.091 63.344 C 86.907 61.750,87.893 59.653,87.893 53.137 L 87.893 48.213 103.893 48.213 L 119.893 48.213 119.903 52.800 C 119.914 58.111,120.539 59.994,123.017 62.169 C 126.846 65.531,132.666 64.154,135.147 59.298 C 135.967 57.693,136.107 56.748,136.107 52.816 L 136.107 48.213 152.107 48.213 L 168.107 48.213 168.107 53.137 C 168.107 59.653,169.093 61.750,172.909 63.344 C 175.678 64.501,179.307 63.913,181.470 61.957 C 183.363 60.245,183.893 58.316,183.893 53.137 L 183.893 48.213 192.008 48.213 L 200.122 48.213 200.008 125.760 L 199.893 203.307 198.903 205.759 C 197.521 209.181,194.317 212.553,190.802 214.283 L 187.965 215.680 128.000 215.680 L 68.035 215.680 65.198 214.283 C 61.683 212.553,58.479 209.181,57.097 205.759 L 56.107 203.307 55.992 125.760 L 55.878 48.213 63.992 48.213 L 72.107 48.213 72.107 53.137 M92.800 120.700 C 86.227 123.733,86.416 132.648,93.112 135.446 C 94.494 136.024,98.897 136.105,128.093 136.097 C 159.653 136.088,161.587 136.045,163.200 135.300 C 169.642 132.327,169.642 123.673,163.200 120.700 C 161.587 119.955,159.662 119.912,128.000 119.912 C 96.338 119.912,94.413 119.955,92.800 120.700 M92.800 152.700 C 86.227 155.733,86.416 164.648,93.112 167.446 C 94.494 168.024,98.897 168.105,128.093 168.097 C 159.653 168.088,161.587 168.045,163.200 167.300 C 169.642 164.327,169.642 155.673,163.200 152.700 C 161.587 151.955,159.662 151.912,128.000 151.912 C 96.338 151.912,94.413 151.955,92.800 152.700 " stroke="none" fill-rule="evenodd"></path></svg>