<svg fill="currentColor" viewBox="0 0 256 256" xmlns="http://www.w3.org/2000/svg"><path d="M44.265 32.461 C 39.776 33.526,35.661 36.951,33.540 41.387 L 32.213 44.160 32.213 128.000 L 32.213 211.840 33.407 214.400 C 34.974 217.760,38.261 221.060,41.555 222.583 L 44.160 223.787 128.000 223.787 L 211.840 223.787 214.445 222.583 C 217.739 221.060,221.026 217.760,222.593 214.400 L 223.787 211.840 223.787 128.000 L 223.787 44.160 222.583 41.555 C 221.060 38.261,217.760 34.974,214.400 33.407 L 211.840 32.213 128.853 32.147 C 81.512 32.109,45.179 32.244,44.265 32.461 M207.787 128.000 L 207.787 207.787 128.000 207.787 L 48.213 207.787 48.213 128.000 L 48.213 48.213 128.000 48.213 L 207.787 48.213 207.787 128.000 M118.963 72.948 C 97.781 77.415,84.053 99.063,84.053 128.000 C 84.053 152.930,94.357 172.898,111.149 180.512 C 116.948 183.141,119.813 183.680,128.000 183.680 C 136.187 183.680,139.052 183.141,144.851 180.512 C 161.643 172.898,171.947 152.930,171.947 128.000 C 171.947 98.935,158.174 77.332,136.836 72.929 C 131.700 71.869,124.040 71.877,118.963 72.948 M134.827 89.030 C 138.783 90.119,141.864 92.052,145.180 95.526 C 152.007 102.680,155.733 114.146,155.733 128.000 C 155.733 141.822,152.071 153.126,145.238 160.389 C 140.267 165.673,135.278 167.826,128.000 167.826 C 120.782 167.826,115.804 165.695,110.820 160.474 C 106.217 155.650,103.268 149.436,101.273 140.356 C 100.136 135.180,100.136 120.820,101.273 115.644 C 104.861 99.314,112.921 89.858,124.583 88.298 C 127.572 87.898,131.816 88.201,134.827 89.030 " stroke="none" fill-rule="evenodd"></path></svg>