<svg fill="currentColor" viewBox="0 0 256 256" xmlns="http://www.w3.org/2000/svg"><path d="M119.543 40.723 C 106.528 43.193,95.313 50.584,88.069 61.465 C 85.255 65.693,83.198 70.051,83.202 71.778 C 83.215 76.945,88.316 81.042,93.140 79.758 C 95.797 79.052,97.564 77.488,99.045 74.532 C 103.392 65.857,110.286 59.974,119.467 57.106 C 123.625 55.807,131.789 55.709,136.107 56.907 C 147.193 59.981,155.342 67.896,158.787 78.933 C 159.619 81.598,159.786 83.061,159.786 87.680 C 159.787 94.093,159.150 97.011,156.669 101.973 C 155.586 104.141,143.069 121.169,117.879 154.744 C 91.789 189.519,80.554 204.815,80.237 205.993 C 79.238 209.701,81.471 214.091,85.041 215.440 C 86.719 216.073,169.281 216.073,170.959 215.440 C 172.470 214.869,174.383 213.077,175.246 211.423 C 176.046 209.891,176.114 206.222,175.369 204.779 C 174.694 203.472,172.859 201.472,171.733 200.817 C 171.113 200.456,161.775 200.262,137.520 200.107 L 104.160 199.893 134.907 158.933 C 151.818 136.405,166.700 116.387,167.977 114.449 C 176.122 102.088,178.153 87.052,173.580 72.960 C 169.354 59.938,158.436 48.372,145.753 43.481 C 139.400 41.031,136.446 40.459,129.280 40.288 C 124.797 40.181,121.660 40.321,119.543 40.723 " stroke="none" fill-rule="evenodd"></path></svg>