<svg fill="currentColor" viewBox="0 0 256 256" xmlns="http://www.w3.org/2000/svg"><path d="M119.467 32.435 C 100.223 35.108,84.993 44.886,73.641 61.858 C 50.130 97.009,50.130 158.991,73.641 194.142 C 84.278 210.045,98.439 219.724,115.840 222.987 C 121.817 224.107,134.183 224.107,140.160 222.987 C 159.014 219.452,174.186 208.251,185.018 189.867 C 200.267 163.988,204.338 124.205,195.161 90.753 C 190.552 73.951,183.264 60.755,172.828 50.317 C 163.779 41.267,153.955 35.954,141.276 33.254 C 136.586 32.255,124.129 31.787,119.467 32.435 M140.424 49.619 C 148.821 51.822,155.736 55.950,162.217 62.630 C 172.796 73.532,179.481 88.896,182.677 109.653 C 183.496 114.970,183.629 117.549,183.629 128.000 C 183.629 138.451,183.496 141.030,182.677 146.347 C 180.250 162.106,175.768 174.803,168.999 185.088 C 166.053 189.564,160.314 195.736,156.166 198.888 C 152.336 201.799,145.662 205.003,140.577 206.374 C 136.642 207.434,135.690 207.521,128.000 207.521 C 120.362 207.521,119.341 207.430,115.539 206.403 C 106.976 204.092,100.291 200.078,93.709 193.294 C 83.194 182.458,76.529 167.111,73.320 146.347 C 72.496 141.019,72.363 138.471,72.363 128.000 C 72.363 114.532,72.984 108.750,75.558 98.224 C 81.065 75.702,92.571 59.415,107.996 52.305 C 114.845 49.148,120.053 48.191,129.280 48.390 C 135.103 48.516,137.029 48.729,140.424 49.619 " stroke="none" fill-rule="evenodd"></path></svg>