<svg fill="currentColor" viewBox="0 0 256 256" xmlns="http://www.w3.org/2000/svg"><path d="M44.265 32.461 C 39.776 33.526,35.661 36.951,33.540 41.387 L 32.213 44.160 32.213 128.000 L 32.213 211.840 33.407 214.400 C 34.974 217.760,38.261 221.060,41.555 222.583 L 44.160 223.787 128.000 223.787 L 211.840 223.787 214.445 222.583 C 217.739 221.060,221.026 217.760,222.593 214.400 L 223.787 211.840 223.787 128.000 L 223.787 44.160 222.583 41.555 C 221.060 38.261,217.760 34.974,214.400 33.407 L 211.840 32.213 128.853 32.147 C 81.512 32.109,45.179 32.244,44.265 32.461 M207.787 128.000 L 207.787 207.787 128.000 207.787 L 48.213 207.787 48.213 128.000 L 48.213 48.213 128.000 48.213 L 207.787 48.213 207.787 128.000 M108.290 72.977 C 107.422 73.435,106.192 74.492,105.557 75.326 C 104.481 76.736,104.109 78.576,100.184 101.887 C 97.473 117.993,96.028 127.663,96.136 128.977 C 96.345 131.507,98.027 133.780,100.702 135.147 C 104.116 136.891,106.470 136.322,110.938 132.673 C 124.075 121.946,143.787 131.157,143.787 148.024 C 143.787 153.586,141.960 158.021,138.048 161.956 C 130.601 169.446,119.060 169.975,110.750 163.206 C 107.403 160.480,106.402 160.006,103.986 160.003 C 101.319 159.999,99.500 160.796,97.828 162.701 C 95.461 165.396,95.353 169.942,97.589 172.725 C 100.755 176.666,108.309 181.252,114.347 182.899 C 118.288 183.974,129.222 183.987,133.120 182.922 C 145.620 179.505,155.280 169.822,158.966 157.013 C 160.192 152.754,160.103 143.039,158.797 138.482 C 154.274 122.706,140.191 112.047,123.947 112.106 C 121.365 112.115,118.293 112.319,117.120 112.560 C 115.947 112.800,114.920 112.929,114.837 112.846 C 114.754 112.763,115.618 107.163,116.757 100.401 L 118.827 88.107 136.747 87.893 C 155.890 87.665,155.979 87.655,157.958 85.468 C 159.049 84.263,160.000 81.716,160.000 80.000 C 160.000 78.290,159.055 75.751,157.957 74.515 C 157.555 74.063,156.459 73.340,155.520 72.909 C 153.933 72.180,152.270 72.126,131.840 72.135 C 110.879 72.144,109.794 72.183,108.290 72.977 " stroke="none" fill-rule="evenodd"></path></svg>