<svg fill="currentColor" viewBox="0 0 256 256" xmlns="http://www.w3.org/2000/svg"><path d="M100.159 40.990 C 96.736 42.797,97.073 41.546,88.713 83.492 C 84.512 104.569,81.073 122.637,81.071 123.644 C 81.065 126.126,82.425 128.611,84.564 130.026 C 86.023 130.992,86.810 131.200,89.001 131.200 C 91.356 131.200,91.902 131.029,93.725 129.725 C 102.835 123.207,107.777 121.173,116.578 120.318 C 123.802 119.617,130.225 120.804,137.173 124.125 C 144.489 127.622,150.196 132.776,154.105 139.415 C 158.196 146.364,159.772 152.119,159.743 160.000 C 159.701 171.236,155.805 180.569,147.894 188.387 C 140.221 195.971,131.000 199.787,120.320 199.799 C 110.655 199.809,103.093 197.248,95.355 191.344 C 91.167 188.149,90.279 187.733,87.635 187.733 C 81.343 187.733,77.684 194.749,81.203 200.067 C 83.319 203.264,92.040 209.081,99.060 211.979 C 107.598 215.503,119.304 216.807,128.843 215.296 C 140.440 213.459,151.264 207.898,159.568 199.509 C 167.824 191.170,172.509 182.308,175.151 170.038 C 175.826 166.901,176.125 159.469,175.749 155.140 C 173.534 129.617,154.597 109.158,129.117 104.761 C 121.346 103.419,111.208 104.090,103.826 106.435 C 102.006 107.013,100.478 107.445,100.432 107.396 C 100.385 107.347,102.661 95.739,105.490 81.600 L 110.633 55.893 140.196 55.893 C 160.045 55.893,170.152 55.744,170.959 55.440 C 173.865 54.342,175.909 51.270,175.909 48.000 C 175.909 44.730,173.865 41.658,170.959 40.560 C 170.145 40.253,158.788 40.113,135.759 40.126 C 102.711 40.144,101.715 40.168,100.159 40.990 " stroke="none" fill-rule="evenodd"></path></svg>