<svg fill="currentColor" viewBox="0 0 256 256" xmlns="http://www.w3.org/2000/svg"><path d="M120.960 24.326 C 100.935 25.586,81.587 32.844,64.891 45.360 C 59.554 49.360,49.234 59.686,45.276 64.986 C 34.512 79.399,27.973 94.882,25.095 112.768 C 23.886 120.283,23.787 134.307,24.890 141.867 C 27.542 160.046,34.293 176.318,45.279 191.014 C 49.299 196.392,59.608 206.701,64.986 210.721 C 79.686 221.710,96.000 228.476,114.133 231.105 C 117.683 231.620,121.936 231.847,128.000 231.847 C 144.598 231.847,158.874 228.583,173.440 221.458 C 184.661 215.968,192.320 210.472,201.396 201.396 C 210.475 192.317,215.974 184.654,221.456 173.440 C 235.707 144.287,235.458 110.173,220.780 81.026 C 214.698 68.950,203.517 55.194,193.067 46.931 C 172.349 30.550,147.221 22.673,120.960 24.326 M136.870 40.549 C 171.639 44.258,200.534 67.488,211.419 100.480 C 224.378 139.761,208.166 182.761,172.459 203.815 C 152.624 215.510,127.989 218.917,105.654 213.052 C 83.649 207.274,64.445 192.822,52.504 173.052 C 44.609 159.983,40.107 143.620,40.107 128.000 C 40.107 90.362,64.333 56.637,99.918 44.739 C 111.860 40.747,124.883 39.270,136.870 40.549 M100.457 77.006 C 97.366 78.558,96.213 80.482,96.213 84.089 C 96.213 86.665,96.350 87.130,97.539 88.600 C 100.321 92.043,99.630 91.931,118.933 92.072 C 128.379 92.140,136.107 92.300,136.107 92.428 C 136.107 92.555,131.908 98.651,126.776 105.975 C 121.645 113.299,117.112 119.937,116.703 120.727 C 115.546 122.966,115.962 126.684,117.601 128.740 C 119.359 130.946,121.166 131.734,125.625 132.240 C 133.116 133.090,138.851 137.079,141.943 143.589 C 143.271 146.387,143.510 147.370,143.688 150.774 C 144.032 157.344,142.181 162.051,137.552 166.382 C 129.729 173.699,118.568 173.773,110.448 166.561 C 109.226 165.476,107.594 164.324,106.821 164.001 C 102.497 162.195,97.227 164.828,95.993 169.412 C 95.077 172.813,96.429 175.766,100.483 179.218 C 107.483 185.181,114.957 187.879,124.373 187.841 C 130.494 187.816,134.626 186.873,139.733 184.336 C 146.863 180.793,152.301 175.477,155.926 168.504 C 158.930 162.727,159.757 159.198,159.770 152.107 C 159.781 145.790,159.331 143.285,157.266 138.173 C 154.242 130.686,147.500 123.463,140.038 119.716 C 138.560 118.974,137.886 118.404,138.084 118.065 C 138.250 117.780,142.938 111.019,148.501 103.040 C 154.065 95.061,158.949 87.878,159.355 87.077 C 160.370 85.077,160.061 81.625,158.687 79.594 C 158.100 78.726,156.741 77.608,155.543 77.006 L 153.432 75.947 128.000 75.947 L 102.568 75.947 100.457 77.006 " stroke="none" fill-rule="evenodd"></path></svg>