<svg fill="currentColor" viewBox="0 0 256 256" xmlns="http://www.w3.org/2000/svg"><path d="M44.265 32.461 C 39.776 33.526,35.661 36.951,33.540 41.387 L 32.213 44.160 32.213 128.000 L 32.213 211.840 33.407 214.400 C 34.974 217.760,38.261 221.060,41.555 222.583 L 44.160 223.787 128.000 223.787 L 211.840 223.787 214.445 222.583 C 217.739 221.060,221.026 217.760,222.593 214.400 L 223.787 211.840 223.787 128.000 L 223.787 44.160 222.583 41.555 C 221.060 38.261,217.760 34.974,214.400 33.407 L 211.840 32.213 128.853 32.147 C 81.512 32.109,45.179 32.244,44.265 32.461 M207.787 128.000 L 207.787 207.787 128.000 207.787 L 48.213 207.787 48.213 128.000 L 48.213 48.213 128.000 48.213 L 207.787 48.213 207.787 128.000 M101.847 80.395 C 94.952 82.248,93.975 91.998,100.373 95.095 C 102.193 95.976,102.752 96.000,121.308 96.000 C 131.794 96.000,140.373 96.073,140.373 96.163 C 140.373 96.253,134.018 113.773,126.251 135.096 C 111.252 176.275,111.203 176.436,112.771 179.467 C 113.755 181.371,116.227 183.380,117.991 183.711 C 122.254 184.511,125.683 182.801,127.374 179.032 C 127.911 177.834,135.472 157.241,144.176 133.270 C 155.452 102.214,160.000 89.178,160.000 87.916 C 160.000 84.524,157.626 81.408,154.286 80.417 C 151.374 79.552,105.054 79.532,101.847 80.395 " stroke="none" fill-rule="evenodd"></path></svg>