<svg fill="currentColor" viewBox="0 0 256 256" xmlns="http://www.w3.org/2000/svg"><path d="M119.835 40.538 C 101.543 43.421,86.094 54.696,77.750 71.253 C 73.957 78.782,72.110 86.883,72.110 96.000 C 72.110 105.418,73.786 112.633,77.909 120.960 C 85.867 137.033,101.143 148.302,119.001 151.272 C 124.712 152.221,135.061 151.940,140.053 150.699 C 141.872 150.247,143.360 149.928,143.360 149.990 C 143.360 150.052,136.717 161.881,128.597 176.278 C 120.478 190.674,113.493 203.125,113.076 203.947 C 111.300 207.444,111.658 210.537,114.161 213.308 C 116.110 215.465,117.614 216.037,120.739 215.811 C 122.764 215.665,123.614 215.367,124.842 214.373 C 126.055 213.391,131.880 203.385,151.772 168.107 C 165.733 143.349,177.812 121.702,178.616 120.003 C 182.156 112.512,183.893 104.606,183.893 95.981 C 183.893 70.164,166.989 48.428,141.712 41.740 C 137.269 40.565,135.984 40.412,129.493 40.293 C 125.504 40.219,121.158 40.330,119.835 40.538 M132.480 56.364 C 151.215 58.651,165.416 72.968,167.668 91.840 C 169.186 104.563,163.604 118.301,153.502 126.707 C 149.488 130.047,142.263 133.663,137.173 134.880 C 129.725 136.660,120.556 136.009,113.493 133.199 C 96.797 126.555,86.258 109.230,88.332 91.840 C 90.273 75.578,101.036 62.581,116.480 57.851 C 122.312 56.065,126.692 55.658,132.480 56.364 " stroke="none" fill-rule="evenodd"></path></svg>