<svg fill="currentColor" viewBox="0 0 256 256" xmlns="http://www.w3.org/2000/svg"><path d="M123.733 16.589 C 123.147 16.782,121.611 17.474,120.320 18.127 C 115.164 20.734,32.096 66.327,30.474 67.440 C 28.336 68.906,26.756 70.933,25.254 74.140 L 24.107 76.587 24.107 128.000 L 24.107 179.413 25.087 181.547 C 26.557 184.748,28.077 186.747,30.254 188.341 C 32.951 190.318,120.687 238.308,123.100 239.127 C 125.593 239.973,130.407 239.973,132.900 239.127 C 135.313 238.308,223.049 190.318,225.746 188.341 C 227.923 186.747,229.443 184.748,230.913 181.547 L 231.893 179.413 231.893 128.000 L 231.893 76.587 230.703 74.045 C 229.149 70.726,227.801 69.001,225.553 67.455 C 223.851 66.284,141.431 21.054,135.253 17.900 C 132.818 16.657,132.012 16.470,128.640 16.362 C 126.528 16.294,124.320 16.397,123.733 16.589 M171.777 56.036 L 215.680 80.073 215.680 128.005 L 215.680 175.937 171.842 199.953 L 128.003 223.969 84.162 199.967 L 40.320 175.965 40.320 128.020 L 40.320 80.076 84.053 56.080 C 108.107 42.882,127.806 32.065,127.830 32.042 C 127.854 32.019,147.630 42.816,171.777 56.036 M122.823 80.222 C 103.245 82.438,86.729 96.519,81.709 115.274 C 77.192 132.154,81.841 149.693,94.074 161.926 C 106.307 174.159,123.846 178.808,140.726 174.291 C 156.780 169.994,169.994 156.780,174.291 140.726 C 180.207 118.618,170.128 95.689,149.945 85.341 C 141.756 81.143,131.610 79.228,122.823 80.222 M136.067 97.033 C 139.655 98.016,145.011 100.769,147.978 103.155 C 155.245 108.999,160.000 118.826,160.000 128.000 C 160.000 140.482,151.738 152.844,140.277 157.508 C 124.186 164.056,106.551 157.162,99.176 141.440 C 96.768 136.306,96.222 133.824,96.222 128.000 C 96.222 122.176,96.768 119.694,99.176 114.560 C 103.641 105.042,112.395 98.292,122.699 96.423 C 125.548 95.906,133.235 96.257,136.067 97.033 " stroke="none" fill-rule="evenodd"></path></svg>