<svg fill="currentColor" viewBox="0 0 256 256" xmlns="http://www.w3.org/2000/svg"><path d="M61.653 32.608 C 53.139 34.264,45.431 38.811,40.114 45.314 C 37.505 48.505,34.083 55.349,33.010 59.520 C 32.447 61.711,32.249 64.042,32.268 68.267 C 32.290 73.260,32.447 74.538,33.452 77.867 C 34.881 82.603,37.321 87.213,40.379 90.951 C 43.282 94.501,45.748 96.521,51.559 100.112 C 51.639 100.162,51.028 101.417,50.202 102.901 C 48.040 106.783,45.046 114.320,43.521 119.715 C 36.959 142.939,40.110 167.735,52.244 188.353 C 66.233 212.123,90.479 227.895,118.175 231.243 C 123.423 231.877,134.036 231.779,139.605 231.043 C 159.330 228.440,176.884 219.589,190.945 205.159 C 200.569 195.283,206.680 185.541,210.953 173.264 C 212.633 168.437,212.672 168.174,212.035 165.880 C 211.142 162.666,207.682 160.019,204.373 160.019 C 202.375 160.019,199.676 161.295,198.355 162.864 C 197.764 163.567,196.739 165.658,196.079 167.511 C 187.803 190.738,169.172 207.863,145.760 213.761 C 143.150 214.419,139.909 215.094,138.560 215.261 L 136.107 215.565 136.097 163.142 C 136.088 113.359,136.049 110.634,135.311 109.010 C 133.745 105.564,130.464 103.716,126.800 104.217 C 125.560 104.386,76.321 130.222,58.920 139.833 L 56.186 141.343 56.434 137.552 C 57.566 120.255,66.682 102.145,80.314 90.116 C 90.603 81.037,103.217 75.170,117.547 72.800 C 118.579 72.629,125.298 75.612,152.320 88.241 L 185.813 103.893 189.653 103.821 C 199.241 103.641,209.199 98.731,215.676 90.989 C 218.334 87.813,221.738 81.198,222.979 76.800 C 224.069 72.939,224.070 63.241,222.982 59.308 C 220.665 50.933,215.715 43.610,209.280 39.038 C 202.995 34.573,196.628 32.380,189.653 32.276 C 185.775 32.219,185.246 32.308,183.844 33.257 C 179.636 36.105,178.861 41.450,182.097 45.296 C 183.582 47.061,185.220 47.686,189.697 48.195 C 197.105 49.036,202.864 53.054,205.936 59.522 C 207.230 62.246,207.502 63.337,207.684 66.519 C 207.939 70.994,207.364 73.861,205.495 77.428 C 202.875 82.428,197.561 86.401,192.000 87.516 L 189.653 87.987 130.133 60.169 C 71.619 32.820,70.563 32.347,67.627 32.189 C 65.984 32.100,63.296 32.289,61.653 32.608 M79.420 54.194 C 86.459 57.483,93.091 60.617,94.156 61.158 L 96.092 62.142 94.020 62.907 C 90.739 64.118,83.417 68.076,78.917 71.072 C 73.787 74.487,69.093 78.432,64.571 83.130 L 61.088 86.748 59.717 86.180 C 57.056 85.078,53.485 82.041,51.693 79.357 C 49.049 75.399,48.052 71.684,48.310 66.755 C 48.490 63.313,48.725 62.340,50.057 59.536 C 52.516 54.360,56.882 50.599,62.507 48.812 C 63.445 48.514,64.755 48.258,65.417 48.242 C 66.118 48.225,71.960 50.708,79.420 54.194 M119.893 170.491 L 119.893 215.542 118.080 215.255 C 114.469 214.683,110.230 213.745,107.198 212.846 L 104.102 211.928 104.211 172.850 L 104.320 133.771 112.000 129.635 C 116.224 127.359,119.728 125.485,119.787 125.469 C 119.845 125.453,119.893 145.713,119.893 170.491 M167.999 136.689 C 163.410 138.402,160.000 143.145,160.000 147.816 C 160.000 154.554,165.436 160.000,172.161 160.000 C 176.188 160.000,180.818 157.117,182.695 153.441 C 183.975 150.935,184.231 146.500,183.244 143.917 C 182.312 141.475,179.623 138.475,177.299 137.283 C 175.102 136.157,170.256 135.847,167.999 136.689 M87.703 203.426 C 87.324 203.805,80.388 198.043,76.711 194.294 C 70.948 188.420,67.390 183.422,63.586 175.854 C 61.276 171.257,58.140 162.467,57.936 160.019 L 57.813 158.545 72.747 150.566 L 87.680 142.587 87.790 172.908 C 87.850 189.585,87.811 203.318,87.703 203.426 " stroke="none" fill-rule="evenodd"></path></svg>