<svg fill="currentColor" viewBox="0 0 256 256" xmlns="http://www.w3.org/2000/svg"><path d="M213.302 24.316 C 209.598 24.958,18.133 83.272,16.090 84.379 C 13.437 85.818,10.876 88.627,9.455 91.659 C 8.462 93.778,8.321 94.613,8.324 98.347 C 8.328 102.141,8.460 102.881,9.514 105.036 C 10.235 106.508,11.665 108.349,13.160 109.729 C 15.440 111.833,18.820 113.514,59.190 132.620 L 102.759 153.241 123.547 197.147 L 144.336 241.054 146.806 243.410 C 150.422 246.859,152.427 247.645,157.653 247.664 C 161.401 247.678,162.215 247.542,164.341 246.545 C 167.379 245.121,170.187 242.558,171.613 239.910 C 172.218 238.786,186.019 193.995,202.282 140.373 C 230.530 47.236,231.850 42.733,231.841 39.595 C 231.832 36.682,231.654 35.951,230.265 33.140 C 229.341 31.272,227.974 29.316,226.935 28.377 C 223.372 25.158,217.878 23.522,213.302 24.316 M215.779 40.642 C 215.666 40.936,202.686 83.704,186.935 135.682 C 171.183 187.659,158.151 230.508,157.975 230.900 C 157.749 231.400,151.804 219.254,138.064 190.225 L 118.474 148.836 142.631 124.658 C 156.982 110.295,166.983 99.960,167.269 99.200 C 167.892 97.544,167.869 94.174,167.226 92.925 C 166.485 91.486,164.650 89.612,163.280 88.897 C 161.844 88.147,158.574 88.063,156.800 88.731 C 156.040 89.017,145.696 99.028,131.316 113.396 L 107.112 137.579 104.436 136.283 C 102.964 135.570,84.335 126.743,63.038 116.667 C 41.741 106.592,24.557 98.258,24.851 98.149 C 25.835 97.783,215.248 40.198,215.619 40.152 C 215.820 40.127,215.892 40.347,215.779 40.642 " stroke="none" fill-rule="evenodd"></path></svg>