<svg fill="currentColor" viewBox="0 0 256 256" xmlns="http://www.w3.org/2000/svg"><path d="M171.212 24.365 C 164.113 25.129,155.868 28.682,150.444 33.313 C 145.382 37.635,46.003 138.874,43.256 142.507 C 28.642 161.832,28.343 189.007,42.528 208.707 C 45.598 212.971,52.609 219.781,56.743 222.515 C 63.850 227.216,71.815 230.250,80.365 231.513 C 91.048 233.092,103.171 231.093,113.140 226.110 C 120.927 222.216,120.590 222.529,166.766 176.469 C 196.974 146.337,210.685 132.380,211.237 131.200 C 212.591 128.303,212.028 124.919,209.793 122.525 C 207.825 120.417,204.436 119.608,201.173 120.467 C 200.255 120.709,187.780 132.892,157.013 163.594 C 133.429 187.128,113.008 207.201,111.633 208.200 C 108.189 210.702,103.339 213.057,98.773 214.444 C 95.317 215.495,94.272 215.613,88.320 215.631 C 82.712 215.648,81.156 215.502,78.080 214.669 C 64.290 210.936,53.850 200.801,49.651 187.072 C 48.574 183.550,48.483 182.690,48.483 176.000 C 48.483 169.310,48.574 168.450,49.651 164.928 C 50.980 160.581,53.449 155.602,55.931 152.257 C 56.864 151.001,80.789 126.477,109.097 97.759 C 144.422 61.922,161.352 45.037,163.069 43.927 C 166.616 41.635,170.198 40.498,174.720 40.230 C 181.729 39.814,187.631 42.075,192.687 47.111 C 197.519 51.924,199.740 57.214,199.761 63.959 C 199.784 71.351,197.715 75.781,190.993 82.727 C 176.234 97.979,93.464 181.708,92.308 182.556 C 89.804 184.394,85.643 184.200,83.001 182.122 C 80.414 180.087,79.430 175.402,80.979 172.498 C 81.381 171.745,100.717 151.811,123.948 128.199 C 147.799 103.956,166.619 84.492,167.180 83.487 C 169.238 79.800,167.752 75.070,163.812 72.762 C 161.739 71.548,158.507 71.639,156.266 72.975 C 155.296 73.554,145.819 82.859,135.207 93.653 C 124.595 104.448,105.238 124.128,92.192 137.387 C 71.078 158.844,68.297 161.826,66.885 164.524 C 61.325 175.149,64.070 188.025,73.387 195.026 C 76.550 197.403,78.429 198.306,82.236 199.280 C 88.913 200.987,95.403 199.868,101.380 195.976 C 103.246 194.761,140.446 157.323,193.980 102.782 C 209.815 86.649,211.869 83.793,214.710 73.948 C 215.537 71.080,215.668 69.657,215.643 63.787 C 215.617 57.648,215.499 56.582,214.470 53.207 C 211.256 42.665,204.626 34.294,195.346 29.060 C 188.506 25.202,179.575 23.464,171.212 24.365 " stroke="none" fill-rule="evenodd"></path></svg>