<svg fill="currentColor" viewBox="0 0 256 256" xmlns="http://www.w3.org/2000/svg"><path d="M83.755 40.899 C 79.666 42.316,76.443 45.131,74.505 48.976 C 72.571 52.815,10.094 191.802,9.063 194.560 C 8.198 196.873,8.055 197.900,8.199 200.747 C 8.505 206.809,11.648 211.656,16.973 214.278 L 19.822 215.680 95.564 215.680 L 171.307 215.680 173.728 214.545 C 176.922 213.047,179.635 210.488,181.228 207.468 C 183.012 204.085,245.651 64.882,246.937 61.440 C 248.331 57.712,248.163 53.005,246.508 49.393 C 245.082 46.282,241.751 42.941,238.607 41.467 L 236.160 40.320 161.067 40.225 C 89.680 40.134,85.864 40.168,83.755 40.899 M231.681 56.213 C 231.681 56.389,217.141 88.837,199.369 128.320 L 167.057 200.107 95.688 200.107 C 56.436 200.107,24.319 199.963,24.318 199.787 C 24.318 199.611,38.858 167.163,56.631 127.680 L 88.944 55.893 160.312 55.893 C 199.564 55.893,231.680 56.037,231.681 56.213 " stroke="none" fill-rule="evenodd"></path></svg>