<svg fill="currentColor" viewBox="0 0 256 256" xmlns="http://www.w3.org/2000/svg"><path d="M36.480 48.924 C 34.503 49.968,33.654 50.839,32.802 52.693 C 32.052 54.328,32.019 57.484,32.019 128.000 C 32.019 198.972,32.047 201.663,32.816 203.356 C 34.641 207.375,39.865 209.118,43.792 207.016 C 45.111 206.310,47.301 203.672,47.674 202.339 C 48.100 200.816,48.100 55.184,47.674 53.661 C 47.222 52.047,44.877 49.482,43.220 48.790 C 41.381 48.021,38.063 48.087,36.480 48.924 M100.907 88.677 C 98.909 89.632,97.094 91.454,96.454 93.148 C 96.175 93.886,96.000 98.709,96.000 105.673 C 96.000 114.558,95.885 116.954,95.467 116.794 C 91.326 115.208,74.402 110.082,73.330 110.089 C 68.773 110.119,64.610 114.966,65.519 119.182 C 65.978 121.309,67.287 123.586,68.577 124.499 C 69.496 125.150,82.085 129.523,89.600 131.801 C 90.187 131.979,90.667 132.222,90.667 132.341 C 90.667 132.459,87.749 136.588,84.184 141.515 C 77.091 151.315,76.343 152.880,77.210 156.100 C 78.590 161.225,85.053 163.763,89.305 160.850 C 90.519 160.018,93.527 156.116,102.006 144.374 L 103.958 141.670 110.189 150.306 C 113.616 155.056,116.868 159.363,117.416 159.877 C 121.451 163.668,127.818 162.346,130.180 157.227 C 131.935 153.424,131.346 152.009,123.550 141.297 C 120.077 136.525,117.402 132.462,117.605 132.268 C 117.807 132.075,122.515 130.445,128.067 128.647 C 136.982 125.759,138.338 125.200,139.679 123.859 C 144.379 119.159,141.692 111.268,135.054 110.273 C 133.635 110.060,131.502 110.614,122.880 113.433 L 112.427 116.851 112.213 105.465 C 112.017 94.984,111.929 93.944,111.109 92.373 C 109.191 88.701,104.451 86.984,100.907 88.677 M196.907 88.677 C 194.909 89.632,193.094 91.454,192.454 93.148 C 192.175 93.886,192.000 98.709,192.000 105.673 C 192.000 114.739,191.890 116.956,191.450 116.787 C 187.553 115.292,170.302 110.082,169.270 110.089 C 167.201 110.103,164.529 111.500,163.175 113.275 C 160.748 116.456,161.387 121.985,164.450 124.322 C 165.220 124.909,170.116 126.748,176.013 128.664 C 181.638 130.493,186.370 132.099,186.529 132.234 C 186.688 132.369,184.713 135.360,182.140 138.880 C 172.933 151.473,172.502 152.299,173.296 155.831 C 174.436 160.903,179.900 163.523,184.596 161.250 C 186.141 160.502,187.443 158.962,193.074 151.223 C 196.733 146.194,199.860 142.083,200.023 142.086 C 200.186 142.090,202.624 145.296,205.440 149.212 C 212.745 159.370,213.613 160.401,215.614 161.310 C 219.089 162.888,222.280 162.180,224.929 159.245 C 226.750 157.226,227.387 154.486,226.625 151.942 C 226.366 151.077,223.254 146.369,219.711 141.479 C 216.167 136.589,213.426 132.438,213.620 132.253 C 213.814 132.068,218.540 130.445,224.122 128.647 C 233.098 125.754,234.461 125.195,235.915 123.808 C 238.362 121.474,239.089 118.273,237.846 115.299 C 236.593 112.300,233.511 110.110,230.514 110.089 C 229.756 110.084,224.476 111.603,218.781 113.465 L 208.427 116.851 208.213 105.465 C 208.017 94.984,207.929 93.944,207.109 92.373 C 205.191 88.701,200.451 86.984,196.907 88.677 " stroke="none" fill-rule="evenodd"></path></svg>