<svg fill="currentColor" viewBox="0 0 256 256" xmlns="http://www.w3.org/2000/svg"><path d="M168.384 24.329 C 163.720 25.139,163.125 25.655,139.181 49.641 C 119.109 69.749,116.510 72.504,116.246 73.947 C 115.082 80.307,120.205 85.266,126.255 83.637 C 127.677 83.254,129.024 82.246,132.126 79.246 L 136.151 75.352 158.410 97.611 L 180.670 119.871 175.679 124.924 C 172.902 127.735,170.400 130.668,170.038 131.535 C 167.974 136.474,171.200 141.984,176.410 142.416 C 177.657 142.520,179.328 142.390,180.122 142.128 C 181.167 141.783,188.244 134.957,205.719 117.439 C 228.584 94.518,229.924 93.090,230.849 90.667 C 232.199 87.126,232.199 82.261,230.849 78.720 C 229.924 76.296,228.575 74.860,205.496 51.717 C 192.089 38.273,180.352 26.827,179.413 26.281 C 176.200 24.412,172.090 23.685,168.384 24.329 M44.587 32.783 C 42.603 33.726,41.205 35.131,40.562 36.828 C 39.929 38.499,39.994 41.578,40.697 43.214 C 41.021 43.969,52.253 56.627,65.657 71.343 C 79.060 86.058,90.027 98.247,90.027 98.429 C 90.027 98.610,77.481 111.338,62.147 126.713 C 37.762 151.163,34.139 154.961,33.240 157.013 L 32.213 159.360 32.213 185.600 L 32.213 211.840 33.407 214.400 C 34.974 217.760,38.261 221.060,41.555 222.583 L 44.160 223.787 70.400 223.787 L 96.640 223.787 98.987 222.759 C 101.035 221.863,104.699 218.376,127.835 195.305 L 154.337 168.879 178.503 195.479 C 195.365 214.039,203.206 222.370,204.442 223.040 C 207.603 224.752,211.575 224.032,214.143 221.280 C 216.173 219.105,216.530 214.369,214.853 211.840 C 213.518 209.824,54.012 34.655,52.488 33.530 C 50.291 31.908,47.067 31.603,44.587 32.783 M203.947 96.638 L 192.000 108.585 169.708 86.294 L 147.417 64.002 159.360 52.054 L 171.302 40.105 193.598 62.398 L 215.894 84.691 203.947 96.638 M121.388 132.693 C 132.357 144.779,141.830 155.201,142.438 155.853 L 143.545 157.039 117.960 182.626 L 92.376 208.213 70.295 208.213 L 48.213 208.213 48.213 185.708 L 48.213 163.203 74.559 136.854 C 89.049 122.363,101.026 110.554,101.174 110.613 C 101.323 110.672,110.419 120.608,121.388 132.693 " stroke="none" fill-rule="evenodd"></path></svg>