<svg fill="currentColor" viewBox="0 0 256 256" xmlns="http://www.w3.org/2000/svg"><path d="M160.640 24.314 C 154.241 25.094,148.875 27.739,144.205 32.414 C 128.952 47.684,136.155 73.538,157.227 79.156 C 162.883 80.664,171.240 79.750,176.594 77.036 C 181.658 74.470,186.378 69.611,189.048 64.213 C 194.903 52.377,191.566 37.888,181.170 30.009 C 175.175 25.465,167.854 23.434,160.640 24.314 M169.368 41.445 C 173.608 43.564,175.699 47.039,175.750 52.053 C 175.842 61.045,166.223 66.781,158.292 62.465 C 152.690 59.416,150.513 52.555,153.325 46.808 C 155.444 42.476,159.112 40.205,164.092 40.140 C 166.193 40.113,167.203 40.363,169.368 41.445 M116.693 72.807 C 115.989 73.173,107.679 81.182,98.227 90.603 C 82.236 106.541,80.997 107.883,80.408 109.888 C 79.850 111.789,79.850 112.288,80.407 114.138 C 80.986 116.061,82.637 117.834,100.458 135.664 L 119.878 155.093 119.992 178.560 C 120.104 201.422,120.130 202.071,120.999 203.733 C 123.842 209.173,132.158 209.173,135.001 203.733 C 135.872 202.067,135.896 201.437,136.018 176.853 C 136.108 158.420,136.006 151.166,135.635 149.760 C 135.177 148.028,133.376 146.081,117.274 129.913 L 99.421 111.985 109.767 101.646 L 120.112 91.307 133.763 105.003 C 141.276 112.541,148.031 118.967,148.786 119.296 C 149.904 119.782,154.205 119.893,171.905 119.893 C 186.232 119.893,194.061 119.739,194.852 119.440 C 197.504 118.438,200.088 114.766,200.088 112.000 C 200.088 109.234,197.504 105.562,194.852 104.560 C 194.069 104.265,187.021 104.107,174.593 104.107 L 155.535 104.107 140.168 88.766 C 129.821 78.437,124.282 73.210,123.214 72.766 C 121.202 71.930,118.344 71.948,116.693 72.807 M48.483 136.741 C 39.850 138.540,32.982 142.328,27.071 148.551 C 19.744 156.264,16.095 165.390,16.095 176.000 C 16.095 193.933,27.500 209.085,45.047 214.461 C 48.515 215.524,49.479 215.630,55.893 215.654 C 63.754 215.683,66.712 215.095,72.754 212.304 C 93.679 202.636,102.157 176.847,91.034 156.699 C 85.980 147.544,76.475 140.107,66.347 137.381 C 61.892 136.182,52.738 135.854,48.483 136.741 M194.347 136.377 C 179.838 138.587,167.225 148.869,162.413 162.411 C 155.452 182.000,164.487 203.637,183.246 212.304 C 189.288 215.095,192.246 215.683,200.107 215.654 C 206.497 215.630,207.493 215.521,210.896 214.477 C 228.495 209.081,239.905 193.946,239.905 176.000 C 239.905 160.441,231.224 146.700,217.143 139.968 C 211.753 137.391,207.718 136.468,201.173 136.313 C 198.123 136.241,195.051 136.270,194.347 136.377 M63.573 153.457 C 73.319 156.632,79.787 165.624,79.787 176.000 C 79.787 186.331,73.390 195.255,63.522 198.689 C 59.386 200.129,53.271 200.207,49.067 198.875 C 40.267 196.086,33.760 188.517,32.347 179.426 C 30.975 170.607,35.307 160.956,42.818 156.097 C 49.241 151.942,56.204 151.056,63.573 153.457 M206.933 153.190 C 212.738 154.884,218.406 159.502,220.967 164.626 C 223.199 169.090,223.770 171.407,223.770 176.000 C 223.770 180.593,223.199 182.910,220.967 187.374 C 218.430 192.450,212.896 196.985,206.933 198.875 C 202.729 200.207,196.614 200.129,192.478 198.689 C 182.610 195.255,176.213 186.331,176.213 176.000 C 176.213 159.918,191.385 148.653,206.933 153.190 " stroke="none" fill-rule="evenodd"></path></svg>