<svg fill="currentColor" viewBox="0 0 256 256" xmlns="http://www.w3.org/2000/svg"><path d="M120.865 16.832 C 109.684 19.373,100.804 27.797,97.219 39.264 C 95.782 43.862,95.782 52.138,97.219 56.736 C 102.775 74.508,120.511 83.896,138.026 78.334 C 147.830 75.220,155.496 67.243,158.781 56.736 C 160.205 52.178,160.200 43.898,158.769 39.253 C 155.482 28.586,147.536 20.587,136.937 17.277 C 133.739 16.278,124.434 16.020,120.865 16.832 M135.115 33.915 C 138.608 35.642,140.753 37.826,142.453 41.387 C 143.431 43.435,143.573 44.275,143.573 48.000 C 143.573 51.739,143.432 52.569,142.426 54.714 C 138.646 62.781,128.941 66.153,120.813 62.223 C 118.089 60.906,114.950 57.650,113.574 54.714 C 112.568 52.569,112.427 51.739,112.427 48.000 C 112.427 44.275,112.569 43.435,113.547 41.387 C 115.112 38.107,117.268 35.795,120.231 34.215 C 123.591 32.424,125.480 31.996,129.058 32.213 C 131.375 32.353,132.718 32.731,135.115 33.915 M114.986 96.461 C 89.734 97.993,63.430 104.510,39.893 115.066 C 33.001 118.157,27.033 121.509,25.790 122.986 C 22.147 127.315,24.404 134.209,29.954 135.704 C 32.464 136.379,34.070 135.941,39.421 133.121 C 56.252 124.249,80.139 116.853,101.333 113.951 C 106.650 113.223,117.099 112.213,119.315 112.213 C 119.793 112.213,119.893 115.427,119.893 130.667 L 119.892 149.120 88.916 183.893 C 71.880 203.019,57.588 219.227,57.156 219.911 C 52.915 226.634,60.722 234.721,67.880 231.019 C 68.506 230.696,82.233 215.544,98.386 197.349 C 114.539 179.154,127.862 164.267,127.992 164.267 C 128.122 164.267,141.450 179.167,157.610 197.379 C 181.137 223.893,187.343 230.651,188.750 231.290 C 196.106 234.631,203.210 225.914,198.416 219.429 C 197.758 218.541,183.470 202.357,166.664 183.467 L 136.108 149.120 136.107 130.628 L 136.107 112.137 139.840 112.419 C 167.222 114.492,192.451 121.196,215.040 132.401 C 221.122 135.418,222.370 135.889,224.213 135.864 C 226.900 135.827,228.794 134.843,230.374 132.662 C 232.538 129.674,232.471 125.672,230.210 122.986 C 228.967 121.509,222.999 118.157,216.107 115.066 C 184.334 100.816,149.344 94.378,114.986 96.461 " stroke="none" fill-rule="evenodd"></path></svg>