<svg fill="currentColor" viewBox="0 0 256 256" xmlns="http://www.w3.org/2000/svg"><path d="M78.293 24.561 C 70.114 26.079,61.556 29.771,54.963 34.624 C 45.870 41.317,38.530 51.325,34.984 61.867 C 31.624 71.855,31.149 84.671,33.530 101.120 C 36.775 123.541,46.305 146.639,59.902 165.041 C 80.968 193.551,110.985 213.082,145.493 220.734 C 156.012 223.066,168.054 224.235,177.707 223.860 C 189.307 223.410,198.056 220.608,207.546 214.302 C 212.572 210.963,218.908 204.786,222.172 200.044 C 228.462 190.904,232.925 177.400,231.806 170.895 C 230.913 165.704,228.012 161.538,223.710 159.266 C 222.344 158.545,210.379 153.087,197.120 147.137 L 173.013 136.320 168.747 136.325 C 164.844 136.330,164.271 136.439,162.037 137.605 C 160.632 138.338,154.315 143.377,147.178 149.459 L 134.762 160.037 131.914 158.464 C 118.710 151.170,103.374 135.806,97.314 123.802 L 96.086 121.367 106.712 108.790 C 113.323 100.967,117.768 95.326,118.473 93.867 C 119.966 90.779,120.322 85.916,119.287 82.753 C 118.685 80.911,100.833 40.664,97.438 33.494 C 95.748 29.924,93.400 27.541,89.892 25.836 C 86.145 24.014,83.062 23.675,78.293 24.561 M156.782 32.776 C 152.095 34.977,150.630 40.629,153.648 44.868 C 154.761 46.430,155.934 47.022,161.579 48.872 C 183.453 56.037,199.963 72.547,207.128 94.421 C 207.957 96.949,208.921 99.572,209.271 100.249 C 210.097 101.847,211.890 103.101,214.232 103.718 C 219.418 105.085,224.594 100.341,223.849 94.904 C 223.053 89.096,217.227 75.685,212.277 68.267 C 201.495 52.106,185.459 39.827,167.343 33.862 C 161.544 31.952,159.076 31.699,156.782 32.776 M92.907 62.413 C 98.362 74.667,103.047 85.282,103.317 86.000 C 103.803 87.298,103.729 87.399,93.132 99.938 C 87.261 106.885,82.048 113.414,81.549 114.446 C 78.376 120.999,79.787 126.828,87.257 138.027 C 91.594 144.529,95.406 149.175,100.913 154.667 C 106.506 160.244,111.084 163.996,117.821 168.523 C 127.009 174.695,132.119 176.609,137.204 175.782 C 141.567 175.072,143.505 173.758,156.318 162.828 C 163.092 157.049,168.797 152.320,168.995 152.320 C 169.501 152.320,215.176 172.781,215.603 173.199 C 216.272 173.854,214.170 181.106,212.071 185.387 C 206.479 196.789,196.297 204.662,183.893 207.173 C 180.864 207.787,178.827 207.866,171.520 207.654 C 143.895 206.853,118.505 197.517,96.383 180.024 C 90.690 175.522,80.478 165.310,75.976 159.617 C 61.749 141.626,52.936 121.281,49.435 98.347 C 48.357 91.288,47.884 77.103,48.600 73.308 C 51.750 56.607,63.484 44.380,80.000 40.585 C 80.939 40.369,81.995 40.179,82.347 40.163 C 82.790 40.142,86.042 46.995,92.907 62.413 M148.644 64.816 C 144.585 66.659,142.862 71.827,144.984 75.792 C 145.951 77.599,148.399 79.252,151.503 80.195 C 158.321 82.266,164.804 86.413,168.826 91.277 C 171.497 94.507,174.513 100.256,175.795 104.560 C 176.679 107.530,178.401 110.049,180.208 111.016 C 185.394 113.792,191.955 109.907,191.991 104.041 C 192.003 101.918,189.362 94.453,187.017 89.987 C 180.916 78.363,170.732 69.840,157.759 65.499 C 152.678 63.799,151.138 63.684,148.644 64.816 " stroke="none" fill-rule="evenodd"></path></svg>