<svg fill="currentColor" viewBox="0 0 256 256" xmlns="http://www.w3.org/2000/svg"><path d="M121.813 24.330 C 79.562 27.316,45.793 59.579,40.554 101.962 C 39.979 106.611,39.979 117.389,40.554 122.038 C 41.772 131.892,44.777 142.055,49.065 150.824 C 51.917 156.654,53.789 158.777,56.793 159.586 C 60.203 160.504,63.988 158.675,65.725 155.270 C 67.174 152.431,66.862 150.665,63.818 144.465 C 62.311 141.393,60.507 137.152,59.810 135.040 C 50.038 105.414,59.929 73.436,84.696 54.583 C 112.482 33.433,152.182 35.768,177.514 60.042 C 195.714 77.482,203.454 102.348,198.401 127.143 C 197.070 133.672,195.617 137.913,192.626 144.000 C 185.198 159.113,171.958 170.180,156.266 174.392 C 152.500 175.403,151.340 175.512,144.000 175.541 C 137.530 175.567,135.204 175.414,132.480 174.782 C 124.629 172.962,118.537 169.679,113.559 164.585 L 110.852 161.815 119.427 125.388 C 124.144 105.352,127.998 88.384,127.992 87.680 C 127.975 85.694,126.547 83.010,124.795 81.674 C 123.531 80.710,122.652 80.425,120.518 80.290 C 117.171 80.076,114.770 81.251,113.269 83.835 C 112.110 85.831,80.139 220.785,80.064 224.000 C 79.978 227.693,82.369 230.699,86.194 231.708 C 89.893 232.683,93.968 230.522,95.334 226.860 C 95.702 225.874,98.314 215.179,101.139 203.093 C 103.964 191.008,106.358 180.879,106.459 180.584 C 106.579 180.231,107.411 180.631,108.894 181.756 C 114.115 185.717,122.937 189.309,131.627 191.011 C 137.049 192.073,150.168 192.066,155.505 190.997 C 183.425 185.408,205.304 164.288,212.868 135.627 C 214.956 127.711,215.531 123.622,215.773 114.936 C 216.110 102.888,214.963 94.877,211.352 84.053 C 198.693 46.103,161.811 21.502,121.813 24.330 " stroke="none" fill-rule="evenodd"></path></svg>