<svg fill="currentColor" viewBox="0 0 256 256" xmlns="http://www.w3.org/2000/svg"><path d="M118.400 24.341 C 90.170 25.602,62.112 33.015,36.907 45.872 C 28.539 50.141,23.028 53.387,20.921 55.291 C 18.830 57.180,16.826 61.016,16.244 64.240 C 15.717 67.164,16.122 70.172,17.443 73.159 C 18.269 75.027,110.013 225.618,114.175 231.939 C 119.368 239.825,127.649 242.177,135.720 238.060 C 136.681 237.569,138.266 236.363,139.241 235.379 C 140.336 234.272,148.498 221.291,160.615 201.381 C 171.395 183.667,193.167 147.957,208.995 122.027 C 224.824 96.096,238.134 74.080,238.572 73.102 C 239.010 72.124,239.551 70.364,239.773 69.191 C 240.630 64.673,238.508 58.389,235.079 55.291 C 232.881 53.305,227.315 50.056,218.229 45.455 C 187.809 30.052,153.411 22.776,118.400 24.341 M140.800 40.538 C 160.378 41.999,177.973 45.933,195.413 52.752 C 202.817 55.646,214.557 61.262,220.455 64.732 L 223.951 66.788 220.314 72.754 C 218.313 76.035,216.406 79.143,216.074 79.661 L 215.472 80.602 212.163 78.637 C 203.117 73.268,187.348 66.386,177.236 63.394 C 160.027 58.303,145.730 56.219,128.000 56.219 C 110.192 56.219,96.097 58.274,78.764 63.396 C 68.665 66.381,52.888 73.265,43.837 78.637 L 40.528 80.602 39.926 79.661 C 39.594 79.143,37.687 76.035,35.686 72.754 L 32.049 66.788 35.545 64.732 C 48.866 56.896,67.256 49.504,83.413 45.489 C 101.396 41.021,122.669 39.186,140.800 40.538 M146.347 73.160 C 166.775 75.917,183.872 81.488,201.716 91.204 C 205.630 93.334,206.890 94.219,206.705 94.707 C 206.529 95.172,185.224 130.342,184.531 131.312 C 184.487 131.374,183.198 130.953,181.666 130.376 C 172.321 126.859,160.449 127.337,151.214 131.604 C 140.675 136.473,132.902 145.492,129.421 156.887 C 128.372 160.322,128.274 161.255,128.264 167.893 C 128.254 174.590,128.342 175.435,129.410 178.896 C 131.575 185.919,134.368 190.634,139.580 196.064 L 142.867 199.488 135.540 211.529 C 131.510 218.151,128.117 223.569,128.000 223.568 C 127.768 223.565,96.853 173.063,96.853 172.686 C 96.853 172.559,97.953 171.834,99.298 171.075 C 110.984 164.480,118.553 153.045,119.805 140.093 C 120.950 128.251,117.187 117.134,109.140 108.590 C 101.952 100.958,92.715 96.668,82.299 96.122 C 72.854 95.627,63.847 98.302,56.050 103.916 C 55.165 104.553,55.057 104.435,52.103 99.590 C 50.433 96.850,49.067 94.486,49.067 94.336 C 49.067 94.022,56.202 90.042,61.227 87.554 C 77.820 79.337,97.985 73.899,117.547 72.367 C 122.324 71.993,141.638 72.525,146.347 73.160 M86.167 112.843 C 95.056 115.208,101.639 122.324,103.543 131.627 C 105.594 141.648,100.000 152.963,90.814 157.372 L 88.117 158.667 87.406 157.520 C 87.015 156.889,81.500 147.850,75.150 137.433 L 63.606 118.493 65.386 117.084 C 67.617 115.318,71.009 113.588,73.680 112.854 C 76.473 112.086,83.301 112.080,86.167 112.843 M173.662 144.682 C 175.259 145.024,175.784 145.313,175.614 145.755 C 175.375 146.378,151.962 184.791,151.589 185.173 C 151.226 185.544,148.111 181.644,146.789 179.165 C 144.983 175.776,144.213 172.374,144.213 167.772 C 144.213 157.138,150.784 148.370,161.268 145.014 C 164.015 144.135,170.323 143.966,173.662 144.682 " stroke="none" fill-rule="evenodd"></path></svg>