<svg fill="currentColor" viewBox="0 0 256 256" xmlns="http://www.w3.org/2000/svg"><path d="M214.827 32.436 C 175.456 35.322,145.639 49.418,130.457 72.320 C 127.000 77.535,125.249 81.123,123.298 86.988 C 118.041 102.788,119.309 119.934,126.953 136.404 L 128.774 140.329 126.533 143.231 C 122.004 149.094,118.355 155.973,115.884 163.308 L 114.554 167.256 106.472 159.165 L 98.389 151.074 99.321 148.817 C 101.011 144.721,102.391 140.273,103.121 136.564 C 103.987 132.164,104.087 122.952,103.309 119.253 C 99.772 102.443,89.308 90.006,71.519 81.471 C 57.815 74.896,41.307 71.794,22.092 72.183 C 15.053 72.326,14.120 72.433,12.516 73.281 C 8.403 75.456,7.932 77.470,8.227 91.640 C 8.465 103.083,8.938 107.411,10.945 116.480 C 15.805 138.453,27.207 155.158,42.688 162.988 C 55.129 169.280,68.089 169.622,82.961 164.052 L 87.165 162.477 99.476 174.783 L 111.787 187.088 111.787 201.256 C 111.787 209.913,111.968 216.272,112.254 217.604 C 113.525 223.528,120.658 225.964,125.069 221.979 C 126.002 221.136,126.995 220.046,127.276 219.557 C 127.641 218.920,127.861 213.029,128.048 198.827 C 128.343 176.422,128.550 174.657,131.886 166.121 C 134.254 160.063,139.228 151.893,140.549 151.893 C 140.856 151.893,142.740 152.648,144.735 153.569 C 157.276 159.363,172.842 161.320,185.642 158.712 C 198.173 156.158,208.374 150.493,218.249 140.604 C 228.592 130.246,235.541 118.380,240.767 102.150 C 245.750 86.673,247.903 71.288,247.883 51.283 C 247.872 39.928,247.592 37.711,245.889 35.478 C 243.758 32.684,242.293 32.373,230.471 32.208 C 224.682 32.127,217.643 32.229,214.827 32.436 M231.945 56.000 C 231.564 66.188,231.000 72.228,229.727 79.783 C 225.530 104.678,215.586 123.688,201.058 134.591 C 188.569 143.964,173.121 146.279,157.116 141.176 C 154.830 140.447,152.795 139.752,152.594 139.632 C 152.393 139.512,164.421 127.197,179.322 112.267 C 194.223 97.336,206.751 84.452,207.162 83.637 C 208.166 81.641,208.137 78.117,207.101 76.349 C 204.985 72.738,200.821 71.227,197.006 72.688 C 195.562 73.240,189.768 78.812,168.108 100.476 C 153.207 115.380,140.881 127.573,140.716 127.573 C 140.551 127.573,139.726 125.439,138.883 122.830 C 130.562 97.090,141.694 73.731,168.747 60.168 C 175.924 56.570,181.122 54.657,189.653 52.475 C 200.825 49.618,211.082 48.361,223.958 48.271 L 232.237 48.213 231.945 56.000 M32.213 88.330 C 46.935 89.264,58.790 92.333,68.053 97.608 C 72.894 100.365,75.278 102.225,78.933 106.096 C 82.765 110.154,84.564 113.075,86.311 118.075 C 87.476 121.409,87.621 122.367,87.649 126.933 C 87.671 130.513,87.443 133.066,86.891 135.421 L 86.101 138.789 73.451 126.183 C 66.493 119.249,60.186 113.270,59.435 112.895 C 56.940 111.650,52.813 112.288,50.637 114.256 C 48.522 116.169,47.600 120.339,48.665 123.172 C 48.913 123.833,54.876 130.148,61.915 137.206 L 74.713 150.038 73.090 150.518 C 64.027 153.200,54.155 151.795,46.640 146.754 C 44.021 144.997,39.209 140.357,37.147 137.600 C 31.667 130.272,27.732 120.210,25.617 108.122 C 24.731 103.057,23.659 89.044,24.103 88.326 C 24.427 87.802,23.889 87.801,32.213 88.330 " stroke="none" fill-rule="evenodd"></path></svg>