<svg fill="currentColor" viewBox="0 0 256 256" xmlns="http://www.w3.org/2000/svg"><path d="M39.040 56.100 C 38.805 56.180,38.100 56.358,37.473 56.496 C 34.768 57.090,32.019 60.872,32.019 64.000 C 32.019 65.829,33.242 68.583,34.616 69.846 C 37.240 72.258,30.969 72.107,128.000 72.107 C 225.031 72.107,218.760 72.258,221.384 69.846 C 222.726 68.613,223.979 65.847,223.991 64.093 C 224.009 61.299,222.143 58.260,219.520 56.813 C 218.342 56.163,211.142 56.101,128.853 56.031 C 79.691 55.990,39.275 56.021,39.040 56.100 M196.338 105.022 C 195.257 105.558,194.018 106.650,193.352 107.657 L 192.213 109.377 192.098 136.824 L 191.982 164.272 189.883 163.208 C 181.880 159.153,170.084 159.177,162.001 163.265 C 147.945 170.374,140.989 185.714,145.097 200.540 C 146.608 205.991,149.037 210.072,153.374 214.444 C 159.605 220.726,165.772 223.507,174.337 223.897 C 184.269 224.350,192.754 220.924,199.335 213.802 C 204.211 208.525,206.973 202.465,207.812 195.200 C 208.029 193.323,208.208 176.270,208.210 157.305 C 208.213 124.661,208.253 122.835,208.960 123.057 C 209.371 123.185,216.139 125.227,224.000 127.593 C 236.354 131.312,238.621 131.874,240.705 131.737 C 247.946 131.260,250.610 121.520,244.578 117.573 C 242.573 116.261,202.211 104.107,199.860 104.107 C 198.940 104.107,197.355 104.519,196.338 105.022 M39.040 120.099 C 38.805 120.180,38.100 120.358,37.473 120.496 C 34.768 121.090,32.019 124.872,32.019 128.000 C 32.019 129.829,33.242 132.583,34.616 133.846 C 37.213 136.233,33.567 136.107,99.720 136.104 C 142.851 136.103,161.136 135.964,162.337 135.631 C 164.597 135.003,167.042 132.502,167.668 130.176 C 168.620 126.643,167.345 123.374,164.208 121.297 L 162.409 120.107 100.938 120.030 C 67.129 119.988,39.275 120.019,39.040 120.099 M182.613 177.570 C 186.214 179.253,188.346 181.368,190.175 185.068 C 191.665 188.083,191.787 188.608,191.787 192.030 C 191.787 195.507,191.683 195.934,190.080 199.074 C 187.153 204.807,182.337 207.787,176.000 207.787 C 169.663 207.787,164.847 204.807,161.920 199.074 C 160.317 195.935,160.214 195.507,160.218 192.052 C 160.222 188.834,160.387 188.026,161.537 185.600 C 163.698 181.038,166.352 178.568,170.795 176.983 C 174.043 175.824,179.455 176.093,182.613 177.570 M39.040 184.097 C 38.805 184.179,38.100 184.358,37.473 184.496 C 34.768 185.090,32.019 188.872,32.019 192.000 C 32.019 193.829,33.242 196.583,34.616 197.846 C 37.160 200.185,35.728 200.107,76.040 200.097 C 111.378 200.088,113.367 200.048,114.987 199.298 C 118.138 197.839,119.893 195.227,119.893 192.000 C 119.893 189.858,119.262 188.238,117.840 186.735 C 115.189 183.934,117.924 184.115,76.800 184.028 C 56.267 183.984,39.275 184.016,39.040 184.097 " stroke="none" fill-rule="evenodd"></path></svg>