<svg fill="currentColor" viewBox="0 0 256 256" xmlns="http://www.w3.org/2000/svg"><path d="M37.115 56.308 C 32.161 57.180,26.979 61.361,25.110 65.994 L 24.107 68.480 24.107 128.000 L 24.107 187.520 25.059 189.867 C 28.328 197.926,37.524 201.978,45.554 198.896 C 46.665 198.470,67.733 185.289,92.373 169.604 C 141.068 138.608,141.073 138.605,142.920 133.730 C 144.221 130.296,144.229 125.726,142.940 122.325 C 141.075 117.403,141.443 117.664,92.117 86.283 C 67.101 70.368,45.885 57.131,44.970 56.869 C 42.488 56.156,39.281 55.927,37.115 56.308 M175.147 56.104 C 174.912 56.182,174.196 56.361,173.554 56.502 C 171.991 56.847,169.395 59.183,168.683 60.886 C 168.207 62.025,168.107 73.749,168.107 127.959 C 168.107 173.336,168.247 194.023,168.560 194.852 C 169.562 197.504,173.234 200.088,176.000 200.088 C 178.766 200.088,182.438 197.504,183.440 194.852 C 184.076 193.167,184.076 62.833,183.440 61.148 C 182.892 59.699,181.087 57.725,179.627 56.979 C 178.474 56.390,175.838 55.875,175.147 56.104 M221.979 56.299 C 220.155 56.745,217.781 58.592,216.853 60.289 C 216.153 61.569,216.100 65.712,215.995 127.081 C 215.914 173.957,216.017 193.007,216.356 194.266 C 216.983 196.595,219.454 199.030,221.843 199.674 C 226.149 200.833,230.540 198.368,231.674 194.155 C 231.974 193.042,232.081 171.335,232.005 127.081 C 231.894 62.012,231.889 61.645,231.020 60.166 C 229.268 57.184,225.303 55.488,221.979 56.299 M84.258 100.271 C 108.057 115.405,127.531 127.883,127.533 128.000 C 127.537 128.227,41.306 183.138,40.551 183.390 C 40.245 183.492,40.107 166.301,40.107 128.000 C 40.107 90.059,40.246 72.509,40.546 72.609 C 40.788 72.689,60.458 85.137,84.258 100.271 " stroke="none" fill-rule="evenodd"></path></svg>