<svg fill="currentColor" viewBox="0 0 256 256" xmlns="http://www.w3.org/2000/svg"><path d="M179.593 17.475 C 178.556 18.169,170.126 26.326,160.862 35.602 L 144.017 52.467 130.568 39.085 C 123.172 31.725,116.452 25.364,115.637 24.950 C 113.798 24.018,110.278 23.973,108.577 24.861 C 104.725 26.871,103.080 31.278,104.719 35.200 C 105.056 36.006,106.967 38.362,108.965 40.435 L 112.598 44.204 84.860 71.915 C 55.471 101.275,54.068 102.844,51.212 109.558 C 46.865 119.771,46.996 131.721,51.562 141.793 C 53.990 147.147,56.710 150.577,66.102 160.126 L 75.253 169.431 50.032 194.689 C 27.355 217.400,24.762 220.134,24.323 221.808 C 22.723 227.905,28.095 233.277,34.192 231.677 C 35.866 231.238,38.594 228.652,61.231 206.048 C 75.079 192.220,86.601 180.907,86.835 180.907 C 87.069 180.907,91.291 184.951,96.217 189.894 C 105.732 199.441,109.474 202.392,115.105 204.788 C 124.669 208.858,135.756 208.996,145.454 205.165 C 152.780 202.270,152.937 202.132,183.573 171.572 L 212.052 143.162 215.999 147.079 C 218.170 149.234,220.487 151.198,221.148 151.445 C 222.691 152.021,225.319 152.019,226.852 151.440 C 229.380 150.485,232.074 146.798,232.097 144.263 C 232.128 140.895,231.614 140.254,217.317 125.856 L 203.538 111.978 220.392 95.136 C 229.662 85.872,237.740 77.586,238.342 76.721 C 238.944 75.857,239.596 74.445,239.790 73.585 C 240.248 71.556,239.382 68.166,238.031 66.700 C 236.696 65.250,233.975 64.019,232.107 64.019 C 228.698 64.019,227.490 65.034,209.383 83.111 L 191.994 100.472 173.765 82.244 L 155.537 64.016 173.299 46.194 C 191.944 27.487,191.990 27.431,191.998 23.773 C 192.000 22.351,190.969 19.756,189.957 18.637 C 188.640 17.180,186.172 16.213,183.770 16.213 C 181.942 16.213,181.098 16.468,179.593 17.475 M173.333 159.270 C 158.373 174.240,145.097 187.182,143.830 188.029 C 136.990 192.604,127.541 193.131,119.893 189.363 C 117.422 188.146,114.524 185.412,93.311 164.292 C 80.216 151.254,68.874 139.627,68.107 138.453 C 63.402 131.261,62.802 122.910,66.422 115.016 C 68.000 111.576,68.021 111.553,95.968 83.515 L 123.935 55.457 162.234 93.754 L 200.533 132.051 173.333 159.270 " stroke="none" fill-rule="evenodd"></path></svg>