<svg fill="currentColor" viewBox="0 0 256 256" xmlns="http://www.w3.org/2000/svg"><path d="M190.507 24.179 C 190.037 24.291,153.366 35.260,109.016 48.554 C 33.703 71.128,28.274 72.818,26.801 74.149 C 23.649 76.996,23.856 72.062,23.988 141.227 L 24.107 203.307 25.224 205.957 C 27.063 210.321,30.434 213.551,34.721 215.057 C 37.053 215.877,38.826 215.893,128.000 215.893 C 217.174 215.893,218.947 215.877,221.279 215.057 C 225.566 213.551,228.937 210.321,230.776 205.957 L 231.893 203.307 231.893 144.000 L 231.893 84.693 230.867 82.144 C 229.561 78.901,226.312 75.426,222.933 73.659 L 220.373 72.320 153.630 72.107 L 86.887 71.893 140.830 55.739 C 173.528 45.947,195.383 39.194,196.321 38.594 C 199.724 36.417,200.983 31.537,199.012 28.162 C 197.403 25.407,193.333 23.501,190.507 24.179 M215.893 144.000 L 215.893 200.107 128.000 200.107 L 40.107 200.107 40.107 144.000 L 40.107 87.893 128.000 87.893 L 215.893 87.893 215.893 144.000 M60.308 104.984 C 59.333 105.467,57.990 106.650,57.321 107.614 C 56.307 109.078,56.107 109.801,56.107 112.000 C 56.107 114.202,56.306 114.921,57.328 116.395 C 58.022 117.397,59.322 118.531,60.342 119.025 C 62.059 119.856,62.905 119.893,80.000 119.893 C 97.095 119.893,97.941 119.856,99.658 119.025 C 100.678 118.531,101.978 117.397,102.672 116.395 C 103.694 114.921,103.893 114.202,103.893 112.000 C 103.893 109.798,103.694 109.079,102.672 107.605 C 101.978 106.603,100.678 105.469,99.658 104.975 C 97.941 104.144,97.095 104.107,79.972 104.107 C 62.777 104.107,62.011 104.142,60.308 104.984 M151.680 104.788 C 136.484 108.156,124.669 119.787,120.886 135.103 C 119.892 139.127,119.892 148.873,120.886 152.897 C 124.463 167.381,135.235 178.581,149.547 182.698 C 152.492 183.545,153.926 183.680,160.000 183.680 C 166.074 183.680,167.508 183.545,170.453 182.698 C 184.765 178.581,195.537 167.381,199.114 152.897 C 200.108 148.873,200.108 139.127,199.114 135.103 C 195.554 120.689,184.840 109.503,170.628 105.359 C 166.376 104.119,156.096 103.810,151.680 104.788 M167.467 121.260 C 174.500 123.572,180.772 129.931,182.951 136.960 C 183.947 140.171,183.947 147.829,182.951 151.040 C 182.016 154.057,179.506 158.179,177.067 160.708 C 167.753 170.359,152.247 170.359,142.933 160.708 C 140.494 158.179,137.984 154.057,137.049 151.040 C 136.053 147.829,136.053 140.171,137.049 136.960 C 139.109 130.315,144.865 124.204,151.545 121.568 C 156.075 119.781,162.583 119.655,167.467 121.260 M60.308 136.984 C 59.333 137.467,57.990 138.650,57.321 139.614 C 56.307 141.078,56.107 141.801,56.107 144.000 C 56.107 146.202,56.306 146.921,57.328 148.395 C 58.022 149.397,59.322 150.531,60.342 151.025 C 62.059 151.856,62.905 151.893,80.000 151.893 C 97.095 151.893,97.941 151.856,99.658 151.025 C 100.678 150.531,101.978 149.397,102.672 148.395 C 103.694 146.921,103.893 146.202,103.893 144.000 C 103.893 141.798,103.694 141.079,102.672 139.605 C 101.978 138.603,100.678 137.469,99.658 136.975 C 97.941 136.144,97.095 136.107,79.972 136.107 C 62.777 136.107,62.011 136.142,60.308 136.984 M60.308 168.984 C 59.333 169.467,57.990 170.650,57.321 171.614 C 56.307 173.078,56.107 173.801,56.107 176.000 C 56.107 178.202,56.306 178.921,57.328 180.395 C 58.022 181.397,59.322 182.531,60.342 183.025 C 62.059 183.856,62.905 183.893,80.000 183.893 C 97.095 183.893,97.941 183.856,99.658 183.025 C 100.678 182.531,101.978 181.397,102.672 180.395 C 103.694 178.921,103.893 178.202,103.893 176.000 C 103.893 173.798,103.694 173.079,102.672 171.605 C 101.978 170.603,100.678 169.469,99.658 168.975 C 97.941 168.144,97.095 168.107,79.972 168.107 C 62.777 168.107,62.011 168.142,60.308 168.984 " stroke="none" fill-rule="evenodd"></path></svg>