<svg fill="currentColor" viewBox="0 0 256 256" xmlns="http://www.w3.org/2000/svg"><path d="M36.053 40.505 C 32.312 41.430,27.686 45.015,25.988 48.307 C 23.805 52.539,23.893 49.001,23.903 132.036 C 23.912 206.312,23.942 209.346,24.702 210.987 C 26.198 214.217,28.766 215.893,32.220 215.893 C 33.789 215.893,36.506 214.688,49.045 208.431 L 64.000 200.969 78.955 208.431 C 92.213 215.047,94.146 215.893,96.000 215.893 C 97.854 215.893,99.787 215.047,113.045 208.431 L 128.000 200.969 142.955 208.431 C 156.213 215.047,158.146 215.893,160.000 215.893 C 161.854 215.893,163.787 215.047,177.045 208.431 L 192.000 200.969 206.955 208.431 C 222.970 216.423,223.794 216.704,227.114 215.317 C 228.924 214.560,231.097 212.047,231.681 210.034 C 232.012 208.891,232.110 185.924,232.020 130.560 L 231.893 52.693 230.867 50.144 C 229.561 46.901,226.312 43.426,222.933 41.659 L 220.373 40.320 128.853 40.255 C 78.517 40.219,36.757 40.331,36.053 40.505 M215.893 125.434 L 215.893 194.975 204.772 189.434 C 196.716 185.421,193.217 183.889,192.078 183.877 C 190.879 183.864,186.894 185.655,175.253 191.440 L 160.000 199.019 144.747 191.440 C 133.734 185.967,129.078 183.860,128.000 183.860 C 126.922 183.860,122.266 185.967,111.253 191.440 L 96.000 199.019 80.747 191.440 C 69.106 185.655,65.121 183.864,63.922 183.877 C 62.783 183.889,59.284 185.421,51.228 189.434 L 40.107 194.975 40.107 125.434 L 40.107 55.893 128.000 55.893 L 215.893 55.893 215.893 125.434 M76.813 96.676 C 75.998 97.029,74.970 97.645,74.527 98.046 C 72.325 100.037,71.466 104.308,72.683 107.220 C 73.375 108.877,75.941 111.222,77.554 111.674 C 79.077 112.100,176.923 112.100,178.446 111.674 C 180.059 111.222,182.625 108.877,183.317 107.220 C 184.534 104.306,183.675 100.037,181.470 98.043 C 179.127 95.924,181.102 95.999,127.907 96.017 C 84.695 96.031,78.102 96.116,76.813 96.676 M76.813 128.676 C 75.998 129.029,74.970 129.645,74.527 130.046 C 72.325 132.037,71.466 136.308,72.683 139.220 C 73.375 140.877,75.941 143.222,77.554 143.674 C 79.077 144.100,176.923 144.100,178.446 143.674 C 180.059 143.222,182.625 140.877,183.317 139.220 C 184.534 136.306,183.675 132.037,181.470 130.043 C 179.127 127.924,181.102 127.999,127.907 128.017 C 84.695 128.031,78.102 128.116,76.813 128.676 " stroke="none" fill-rule="evenodd"></path></svg>