<svg fill="currentColor" viewBox="0 0 256 256" xmlns="http://www.w3.org/2000/svg"><path d="M36.053 40.505 C 32.312 41.430,27.686 45.015,25.988 48.307 C 23.805 52.539,23.893 49.001,23.903 132.036 C 23.912 206.312,23.942 209.346,24.702 210.987 C 26.198 214.217,28.766 215.893,32.220 215.893 C 33.789 215.893,36.506 214.688,49.045 208.431 L 64.000 200.969 78.955 208.431 C 92.213 215.047,94.146 215.893,96.000 215.893 C 97.854 215.893,99.787 215.047,113.045 208.431 L 128.000 200.969 142.955 208.431 C 156.213 215.047,158.146 215.893,160.000 215.893 C 161.854 215.893,163.787 215.047,177.045 208.431 L 192.000 200.969 206.955 208.431 C 222.970 216.423,223.794 216.704,227.114 215.317 C 228.924 214.560,231.097 212.047,231.681 210.034 C 232.012 208.891,232.110 185.924,232.020 130.560 L 231.893 52.693 230.867 50.144 C 229.561 46.901,226.312 43.426,222.933 41.659 L 220.373 40.320 128.853 40.255 C 78.517 40.219,36.757 40.331,36.053 40.505 M215.893 125.434 L 215.893 194.975 204.772 189.434 C 196.716 185.421,193.217 183.889,192.078 183.877 C 190.879 183.864,186.894 185.655,175.253 191.440 L 160.000 199.019 144.747 191.440 C 133.734 185.967,129.078 183.860,128.000 183.860 C 126.922 183.860,122.266 185.967,111.253 191.440 L 96.000 199.019 80.747 191.440 C 69.106 185.655,65.121 183.864,63.922 183.877 C 62.783 183.889,59.284 185.421,51.228 189.434 L 40.107 194.975 40.107 125.434 L 40.107 55.893 128.000 55.893 L 215.893 55.893 215.893 125.434 M100.907 88.702 C 96.661 90.668,94.890 95.077,96.652 99.293 C 97.062 100.275,100.854 104.425,106.883 110.491 L 116.464 120.130 107.041 129.505 C 97.319 139.178,96.027 140.864,96.009 143.907 C 95.999 145.700,96.925 148.234,98.043 149.470 C 100.089 151.732,104.311 152.532,107.399 151.242 C 108.377 150.834,112.502 147.069,118.478 141.130 L 128.000 131.668 137.522 141.130 C 143.498 147.069,147.623 150.834,148.601 151.242 C 151.689 152.532,155.911 151.732,157.957 149.470 C 159.075 148.234,160.001 145.700,159.991 143.907 C 159.973 140.864,158.681 139.178,148.959 129.505 L 139.536 120.130 149.117 110.491 C 155.146 104.425,158.938 100.275,159.348 99.293 C 160.108 97.477,160.192 94.857,159.546 93.148 C 158.582 90.596,154.897 87.922,152.320 87.905 C 148.990 87.883,148.168 88.499,137.920 98.694 L 128.000 108.563 118.080 98.694 C 109.915 90.571,107.858 88.743,106.453 88.362 C 104.075 87.716,102.879 87.789,100.907 88.702 " stroke="none" fill-rule="evenodd"></path></svg>