<svg fill="currentColor" viewBox="0 0 256 256" xmlns="http://www.w3.org/2000/svg"><path d="M124.800 8.711 C 123.117 9.463,121.379 11.350,120.556 13.320 C 119.995 14.662,119.893 17.469,119.893 31.560 L 119.893 48.213 85.867 48.221 C 47.978 48.229,48.784 48.175,42.567 51.111 C 32.500 55.865,26.063 64.508,24.331 75.595 C 23.976 77.865,23.882 94.955,23.988 138.027 C 24.152 204.925,23.822 198.721,27.627 206.507 C 29.301 209.933,30.205 211.156,33.470 214.417 C 37.735 218.675,41.542 220.969,47.360 222.787 L 50.560 223.787 128.000 223.787 L 205.440 223.787 208.640 222.787 C 214.458 220.969,218.265 218.675,222.530 214.417 C 225.795 211.156,226.699 209.933,228.373 206.507 C 232.178 198.722,231.849 204.899,232.008 138.240 C 232.108 96.765,232.010 78.164,231.680 75.851 C 229.887 63.282,222.068 53.978,209.479 49.431 L 206.720 48.435 171.413 48.310 L 136.107 48.185 136.097 31.453 C 136.087 12.973,136.058 12.755,133.280 10.160 C 131.072 8.098,127.531 7.493,124.800 8.711 M206.507 65.547 C 210.044 67.248,212.675 69.876,214.354 73.387 L 215.680 76.160 215.680 136.107 L 215.680 196.053 214.545 198.475 C 213.028 201.711,210.495 204.370,207.254 206.127 L 204.587 207.573 128.000 207.573 L 51.413 207.573 48.746 206.127 C 45.505 204.370,42.972 201.711,41.455 198.475 L 40.320 196.053 40.320 136.107 L 40.320 76.160 41.640 73.387 C 43.765 68.924,47.836 65.538,52.372 64.460 C 53.284 64.244,86.213 64.109,128.853 64.147 L 203.733 64.213 206.507 65.547 M79.601 96.862 C 76.915 97.911,74.120 100.650,72.942 103.390 C 72.207 105.098,72.055 106.143,72.188 108.552 C 72.382 112.049,73.319 114.279,75.520 116.480 C 77.676 118.636,79.957 119.610,83.329 119.816 C 86.952 120.036,89.454 119.159,92.064 116.753 C 94.508 114.500,95.638 112.209,95.897 108.978 C 96.203 105.168,95.156 102.353,92.411 99.609 C 88.896 96.094,84.167 95.079,79.601 96.862 M167.692 96.741 C 164.949 97.709,161.610 101.186,160.651 104.072 C 159.709 106.909,159.939 110.864,161.187 113.312 C 162.362 115.614,165.368 118.311,167.789 119.236 C 170.291 120.192,174.843 119.992,177.266 118.820 C 179.429 117.774,181.774 115.429,182.820 113.266 C 183.995 110.837,184.192 106.292,183.231 103.776 C 180.929 97.749,173.879 94.557,167.692 96.741 M86.400 136.537 C 81.656 137.506,76.029 140.523,72.481 144.000 C 63.670 152.635,61.537 165.452,67.050 176.635 C 70.565 183.765,78.267 189.760,85.973 191.364 C 90.410 192.287,165.590 192.287,170.027 191.364 C 177.716 189.763,185.334 183.829,188.929 176.640 C 193.009 168.479,193.019 159.747,188.956 151.467 C 187.551 148.604,186.449 147.118,183.721 144.411 C 180.227 140.943,177.364 139.120,172.491 137.262 L 170.027 136.322 129.067 136.255 C 106.539 136.218,87.339 136.345,86.400 136.537 M104.007 163.947 L 103.893 176.000 96.640 175.984 C 90.239 175.970,89.158 175.864,87.445 175.085 C 82.748 172.951,80.207 169.078,80.223 164.076 C 80.238 159.297,82.413 155.569,86.400 153.488 C 88.867 152.200,90.339 151.997,97.607 151.942 L 104.120 151.893 104.007 163.947 M136.007 163.947 L 135.893 176.000 128.000 176.000 L 120.107 176.000 119.993 163.947 L 119.880 151.893 128.000 151.893 L 136.120 151.893 136.007 163.947 M169.173 153.264 C 173.599 155.573,175.762 159.115,175.777 164.076 C 175.793 169.078,173.252 172.951,168.555 175.085 C 166.842 175.864,165.761 175.970,159.360 175.984 L 152.107 176.000 151.993 163.899 L 151.880 151.798 159.460 151.974 C 166.625 152.141,167.157 152.211,169.173 153.264 " stroke="none" fill-rule="evenodd"></path></svg>