<svg fill="currentColor" viewBox="0 0 256 256" xmlns="http://www.w3.org/2000/svg"><path d="M196.693 32.294 C 181.087 33.472,164.904 38.921,152.320 47.236 C 146.717 50.938,144.061 53.083,137.550 59.168 L 132.379 64.000 102.546 64.000 C 69.801 64.000,69.674 64.009,65.711 66.563 C 64.653 67.245,55.495 76.115,45.361 86.275 C 28.888 102.790,26.800 105.035,25.651 107.472 C 24.061 110.846,23.647 113.876,24.327 117.170 C 25.586 123.270,29.567 127.804,35.170 129.521 C 36.360 129.885,46.041 131.392,56.683 132.869 L 76.033 135.554 98.239 157.761 L 120.446 179.967 123.131 199.317 C 124.608 209.959,126.115 219.640,126.479 220.830 C 128.177 226.372,132.647 230.336,138.720 231.685 C 141.895 232.391,145.125 231.952,148.528 230.352 C 150.968 229.205,153.186 227.143,169.723 210.642 C 179.882 200.506,188.745 191.349,189.419 190.293 C 192.032 186.199,192.000 186.659,192.000 153.707 L 192.000 123.676 197.283 117.986 C 205.858 108.749,210.079 102.739,214.673 93.227 C 219.129 83.997,222.392 72.437,223.550 61.777 C 224.223 55.585,224.121 47.152,223.339 44.147 C 221.748 38.042,216.940 33.642,210.571 32.465 C 208.249 32.036,201.257 31.950,196.693 32.294 M205.602 48.070 L 207.897 48.345 207.661 56.066 C 207.393 64.820,206.610 69.305,203.959 77.269 C 201.167 85.659,196.204 94.662,190.693 101.333 C 189.336 102.976,174.675 117.855,158.113 134.398 L 128.001 164.477 109.867 146.347 C 99.893 136.375,91.781 128.091,91.840 127.937 C 92.163 127.095,152.166 67.168,154.667 65.189 C 167.230 55.248,182.174 49.313,197.333 48.243 C 199.915 48.061,202.315 47.886,202.667 47.853 C 203.019 47.821,204.339 47.918,205.602 48.070 M96.639 99.837 L 77.013 119.461 58.711 116.904 C 48.645 115.497,40.293 114.342,40.151 114.337 C 40.009 114.332,47.669 106.662,57.173 97.292 L 74.453 80.257 95.359 80.235 L 116.266 80.213 96.639 99.837 M175.775 160.747 L 175.763 181.547 158.729 198.827 C 149.360 208.331,141.684 215.915,141.671 215.680 C 141.658 215.445,140.497 207.094,139.091 197.121 L 136.535 178.989 156.052 159.468 C 166.787 148.731,175.619 139.947,175.678 139.947 C 175.738 139.947,175.781 149.307,175.775 160.747 M68.693 152.700 C 63.653 154.334,57.407 158.011,52.823 162.045 C 40.282 173.079,33.269 189.435,32.149 210.260 C 31.772 217.269,32.089 218.960,34.214 221.265 C 35.245 222.383,36.560 223.306,37.488 223.564 C 40.888 224.509,50.745 223.843,59.545 222.075 C 76.814 218.606,90.173 210.015,98.634 196.937 C 101.857 191.956,103.821 187.032,103.854 183.851 C 103.900 179.428,100.594 176.213,96.000 176.213 C 92.147 176.213,89.510 178.208,88.108 182.184 C 86.493 186.760,84.298 190.085,80.218 194.133 C 75.766 198.550,71.679 201.237,65.956 203.507 C 61.985 205.083,55.101 206.816,51.241 207.211 L 48.509 207.491 48.803 204.624 C 49.619 196.652,53.826 185.523,58.208 179.738 C 61.609 175.250,65.842 171.707,70.400 169.535 C 77.121 166.333,77.393 166.155,78.663 164.126 C 80.187 161.690,80.306 158.851,78.992 156.275 C 77.953 154.239,76.421 153.034,74.027 152.371 C 71.841 151.765,71.514 151.786,68.693 152.700 " stroke="none" fill-rule="evenodd"></path></svg>