<svg fill="currentColor" viewBox="0 0 256 256" xmlns="http://www.w3.org/2000/svg"><path d="M124.800 32.806 C 122.735 33.760,121.435 35.110,120.554 37.219 C 120.005 38.532,119.893 41.071,119.893 52.210 L 119.893 65.621 116.800 66.305 C 48.454 81.426,51.032 80.764,49.363 83.607 C 49.013 84.205,41.379 103.029,32.399 125.440 L 16.073 166.187 16.115 169.266 C 16.168 173.193,17.095 176.866,19.051 180.907 C 21.101 185.140,26.851 190.930,31.741 193.683 C 39.174 197.869,50.379 200.491,58.437 199.931 C 71.437 199.027,83.656 193.486,89.839 185.692 C 93.902 180.569,96.290 173.596,95.861 168.107 C 95.674 165.718,93.686 160.451,81.525 130.133 C 73.759 110.773,67.359 94.665,67.303 94.337 C 67.205 93.772,76.629 91.551,113.173 83.523 L 119.893 82.047 119.893 145.130 L 119.893 208.213 110.916 208.213 C 102.824 208.213,101.777 208.296,100.290 209.055 C 97.194 210.634,95.649 213.775,96.191 217.389 C 96.568 219.899,99.156 222.916,101.488 223.564 C 103.589 224.148,152.411 224.148,154.512 223.564 C 156.844 222.916,159.432 219.899,159.809 217.389 C 160.351 213.775,158.806 210.634,155.710 209.055 C 154.223 208.296,153.176 208.213,145.082 208.213 L 136.104 208.213 136.212 143.288 L 136.320 78.364 161.600 72.745 C 175.504 69.655,186.880 67.195,186.880 67.277 C 186.880 67.359,180.913 82.256,173.619 100.380 C 159.318 135.921,159.442 135.538,160.403 141.058 C 162.978 155.844,177.790 166.556,197.563 167.931 C 205.621 168.491,216.826 165.869,224.259 161.683 C 229.115 158.949,234.861 153.157,236.936 148.907 C 238.903 144.876,239.833 141.204,239.881 137.266 L 239.919 134.187 223.603 93.440 C 214.628 71.029,206.928 52.110,206.491 51.397 C 205.344 49.528,202.767 48.213,200.250 48.213 C 199.103 48.213,184.350 51.285,167.467 55.040 C 150.583 58.795,136.621 61.867,136.438 61.867 C 136.256 61.867,136.102 56.635,136.097 50.240 C 136.089 39.849,136.004 38.432,135.300 36.907 C 133.370 32.725,128.823 30.949,124.800 32.806 M212.101 108.065 L 223.903 137.573 223.341 139.441 C 221.714 144.847,216.804 148.534,208.000 150.963 C 204.037 152.056,195.307 151.921,191.019 150.699 C 186.551 149.426,182.952 147.549,180.363 145.140 C 178.255 143.178,176.226 139.697,176.218 138.028 C 176.212 136.953,199.758 78.016,200.069 78.327 C 200.195 78.453,205.609 91.835,212.101 108.065 M67.868 139.307 C 74.263 155.264,79.578 168.819,79.680 169.430 C 80.198 172.538,75.922 177.908,70.916 180.435 C 66.235 182.798,62.341 183.646,56.107 183.658 C 48.464 183.673,42.788 182.070,37.997 178.544 C 35.158 176.454,33.506 174.255,32.659 171.440 L 32.096 169.571 43.696 140.572 C 50.076 124.623,55.435 111.210,55.605 110.766 C 55.774 110.321,55.987 110.033,56.077 110.126 C 56.167 110.218,61.473 123.349,67.868 139.307 " stroke="none" fill-rule="evenodd"></path></svg>