<svg fill="currentColor" viewBox="0 0 256 256" xmlns="http://www.w3.org/2000/svg"><path d="M96.000 40.392 C 73.414 42.634,51.119 53.748,31.357 72.615 C 26.757 77.007,20.062 84.495,17.744 87.839 C 15.377 91.254,15.806 95.615,18.773 98.296 C 20.950 100.262,23.471 100.966,25.976 100.306 C 28.422 99.661,29.289 98.936,32.727 94.663 C 36.612 89.836,44.920 81.623,50.249 77.342 C 69.767 61.664,89.410 54.767,110.075 56.336 C 134.538 58.193,152.334 69.775,162.126 90.213 C 164.291 94.732,166.481 101.114,167.446 105.719 L 168.021 108.463 166.891 108.221 C 151.252 104.873,146.574 104.337,132.907 104.328 C 121.088 104.320,116.369 104.693,107.995 106.298 C 76.597 112.314,54.361 131.483,49.023 157.136 C 48.349 160.373,48.116 163.029,48.116 167.467 C 48.115 176.064,49.507 181.867,53.384 189.440 C 55.964 194.480,58.762 198.222,62.856 202.111 C 72.568 211.337,85.153 215.884,100.991 215.891 C 123.152 215.900,142.784 207.954,157.882 192.866 C 172.154 178.603,181.660 158.651,184.489 137.021 C 184.838 134.356,185.215 132.083,185.327 131.971 C 185.621 131.677,194.393 136.032,199.991 139.253 C 210.775 145.457,220.678 152.794,229.760 161.308 C 237.040 168.132,239.135 169.081,242.987 167.298 C 247.244 165.327,249.004 160.924,247.231 156.680 C 246.003 153.738,234.221 143.073,223.868 135.528 C 213.888 128.257,201.423 121.134,190.111 116.239 L 185.005 114.029 184.250 108.780 C 181.322 88.439,171.532 70.022,157.295 58.069 C 142.981 46.051,124.609 39.936,103.528 40.175 C 100.209 40.213,96.821 40.310,96.000 40.392 M139.243 120.337 C 150.416 121.014,168.643 124.544,169.259 126.151 C 169.382 126.470,169.171 129.475,168.791 132.829 C 166.653 151.706,159.271 168.247,147.649 180.207 C 142.145 185.871,137.413 189.485,131.430 192.593 C 123.300 196.817,115.679 198.915,105.716 199.671 C 95.767 200.426,88.921 199.321,81.540 195.767 C 77.705 193.921,76.608 193.135,73.405 189.937 C 69.210 185.749,66.855 181.738,65.206 175.976 C 63.868 171.297,63.877 163.075,65.226 158.080 C 67.292 150.432,72.723 141.882,78.775 136.748 C 91.389 126.046,106.859 121.052,130.773 119.960 C 131.477 119.928,135.289 120.098,139.243 120.337 " stroke="none" fill-rule="evenodd"></path></svg>