<svg fill="currentColor" viewBox="0 0 256 256" xmlns="http://www.w3.org/2000/svg"><path d="M44.265 32.463 C 39.784 33.519,35.662 36.949,33.540 41.387 L 32.213 44.160 32.086 58.771 C 31.967 72.437,32.012 73.503,32.782 75.244 C 33.235 76.268,34.256 77.602,35.051 78.209 C 36.441 79.269,39.692 80.302,40.693 80.002 C 40.957 79.923,41.698 79.743,42.339 79.603 C 43.786 79.286,46.311 77.111,47.275 75.350 C 47.902 74.205,48.018 72.294,48.135 61.148 L 48.269 48.269 61.148 48.135 C 72.294 48.018,74.205 47.902,75.350 47.275 C 77.111 46.311,79.286 43.786,79.603 42.339 C 79.743 41.698,79.923 40.957,80.002 40.693 C 80.302 39.693,79.269 36.441,78.212 35.055 C 75.982 32.132,75.263 32.015,59.733 32.052 C 52.107 32.071,45.146 32.256,44.265 32.463 M108.445 32.916 C 106.090 34.081,104.469 36.491,104.207 39.214 C 103.938 42.014,104.683 44.024,106.649 45.800 C 109.214 48.117,110.779 48.278,129.354 48.130 C 147.771 47.984,147.709 47.994,150.373 44.654 C 151.539 43.190,151.680 42.705,151.680 40.143 C 151.680 36.561,150.373 34.286,147.520 32.905 C 145.707 32.027,145.115 32.000,127.972 32.000 C 110.757 32.001,110.245 32.025,108.445 32.916 M180.644 32.803 C 179.678 33.249,178.393 34.263,177.788 35.055 C 176.731 36.441,175.698 39.693,175.998 40.693 C 176.077 40.957,176.257 41.698,176.397 42.339 C 176.714 43.786,178.889 46.311,180.650 47.275 C 181.795 47.902,183.706 48.018,194.852 48.135 L 207.731 48.269 207.865 61.148 C 207.982 72.294,208.098 74.205,208.725 75.350 C 209.689 77.111,212.214 79.286,213.661 79.603 C 214.302 79.743,215.043 79.923,215.307 80.002 C 216.308 80.302,219.559 79.269,220.949 78.209 C 221.744 77.602,222.765 76.268,223.218 75.244 C 223.988 73.503,224.033 72.437,223.914 58.771 L 223.787 44.160 222.593 41.600 C 221.026 38.240,217.739 34.940,214.445 33.417 L 211.840 32.213 197.120 32.103 C 183.421 32.000,182.278 32.048,180.644 32.803 M76.813 72.782 C 74.863 73.628,73.895 74.542,72.915 76.463 C 72.135 77.990,72.107 79.823,72.107 128.000 C 72.107 176.177,72.135 178.010,72.915 179.537 C 73.913 181.492,74.882 182.390,76.909 183.237 C 78.292 183.815,84.396 183.892,128.093 183.884 C 175.322 183.875,177.789 183.837,179.413 183.091 C 181.443 182.159,182.353 181.207,183.237 179.091 C 183.815 177.709,183.893 171.599,183.893 128.000 C 183.893 84.401,183.815 78.291,183.237 76.909 C 182.353 74.793,181.443 73.841,179.413 72.909 C 177.788 72.163,175.339 72.126,128.000 72.133 C 84.691 72.139,78.103 72.223,76.813 72.782 M167.893 128.000 L 167.893 167.893 128.000 167.893 L 88.107 167.893 87.997 128.427 C 87.936 106.720,87.978 88.719,88.091 88.424 C 88.253 87.999,96.480 87.911,128.094 87.998 L 167.893 88.107 167.893 128.000 M36.338 105.022 C 35.257 105.557,34.018 106.651,33.352 107.657 L 32.213 109.377 32.093 127.486 C 31.975 145.275,31.989 145.629,32.892 147.492 C 34.287 150.375,36.547 151.680,40.143 151.680 C 42.705 151.680,43.190 151.539,44.654 150.373 C 47.994 147.709,47.984 147.771,48.130 129.354 C 48.271 111.652,48.066 109.278,46.209 107.070 C 43.764 104.165,39.752 103.332,36.338 105.022 M212.425 104.938 C 210.192 106.153,208.783 108.036,208.251 110.515 C 207.620 113.461,207.626 142.570,208.259 145.522 C 208.827 148.167,210.969 150.757,213.198 151.492 C 216.962 152.735,221.441 150.937,223.095 147.520 C 223.973 145.707,224.000 145.115,224.000 128.000 C 224.000 110.885,223.973 110.293,223.095 108.480 C 221.275 104.720,216.027 102.979,212.425 104.938 M36.480 176.922 C 34.467 177.983,33.356 179.186,32.629 181.089 C 32.055 182.592,31.976 184.965,32.085 197.345 L 32.213 211.840 33.417 214.445 C 34.940 217.739,38.240 221.026,41.600 222.593 L 44.160 223.787 58.771 223.914 C 72.437 224.033,73.503 223.988,75.244 223.218 C 79.337 221.408,81.152 216.163,79.037 212.257 C 78.340 210.970,76.300 209.174,74.959 208.667 C 74.208 208.383,68.981 208.213,61.013 208.213 L 48.269 208.213 48.134 195.093 C 48.019 183.834,47.899 181.792,47.291 180.693 C 46.355 179.002,44.448 177.230,42.959 176.667 C 41.224 176.012,37.964 176.140,36.480 176.922 M212.693 176.710 C 211.318 177.469,209.472 179.314,208.709 180.693 C 208.101 181.792,207.981 183.834,207.866 195.093 L 207.731 208.213 194.724 208.213 C 184.201 208.213,181.489 208.331,180.522 208.832 C 178.901 209.670,176.709 212.236,176.397 213.661 C 176.257 214.302,176.077 215.043,175.998 215.307 C 175.698 216.308,176.731 219.559,177.791 220.949 C 178.398 221.744,179.732 222.765,180.756 223.218 C 182.497 223.988,183.563 224.033,197.229 223.914 L 211.840 223.787 214.400 222.593 C 217.760 221.026,221.060 217.739,222.583 214.445 L 223.787 211.840 223.922 197.547 C 224.062 182.659,223.927 181.161,222.253 179.033 C 220.345 176.607,215.162 175.348,212.693 176.710 M108.579 208.808 C 106.767 209.597,104.628 212.182,104.288 213.991 C 103.568 217.832,105.278 221.545,108.480 223.095 C 110.293 223.973,110.885 224.000,128.000 224.000 C 145.115 224.000,145.707 223.973,147.520 223.095 C 150.373 221.714,151.680 219.439,151.680 215.857 C 151.680 213.292,151.540 212.811,150.370 211.346 C 147.806 208.139,148.338 208.213,128.000 208.231 C 113.979 208.243,109.575 208.374,108.579 208.808 " stroke="none" fill-rule="evenodd"></path></svg>