<svg fill="currentColor" viewBox="0 0 256 256" xmlns="http://www.w3.org/2000/svg"><path d="M44.265 32.463 C 39.784 33.519,35.662 36.949,33.540 41.387 L 32.213 44.160 32.086 58.771 C 31.967 72.437,32.012 73.503,32.782 75.244 C 35.392 81.144,43.717 81.507,46.950 75.861 C 47.992 74.040,48.001 73.934,48.135 61.148 L 48.269 48.269 61.148 48.135 C 73.934 48.001,74.040 47.992,75.861 46.950 C 81.450 43.749,81.153 35.449,75.356 32.816 C 73.751 32.087,72.409 32.022,59.733 32.052 C 52.107 32.071,45.146 32.256,44.265 32.463 M108.445 32.916 C 103.994 35.119,102.679 41.378,105.898 45.044 C 108.581 48.101,107.829 48.000,128.000 48.000 C 148.171 48.000,147.419 48.101,150.102 45.044 C 153.334 41.363,151.996 35.072,147.520 32.905 C 145.707 32.027,145.115 32.000,127.972 32.000 C 110.757 32.001,110.245 32.025,108.445 32.916 M180.644 32.803 C 174.844 35.481,174.549 43.749,180.139 46.950 C 181.960 47.992,182.066 48.001,194.852 48.135 L 207.731 48.269 207.865 61.148 C 207.999 73.934,208.008 74.040,209.050 75.861 C 212.283 81.507,220.608 81.144,223.218 75.244 C 223.988 73.503,224.033 72.437,223.914 58.771 L 223.787 44.160 222.593 41.600 C 221.026 38.240,217.739 34.940,214.445 33.417 L 211.840 32.213 197.120 32.103 C 183.421 32.000,182.278 32.048,180.644 32.803 M36.338 105.022 C 35.257 105.557,34.018 106.651,33.352 107.657 L 32.213 109.377 32.093 127.486 C 31.975 145.275,31.989 145.629,32.892 147.492 C 35.072 151.996,41.351 153.345,45.044 150.102 C 48.095 147.424,48.000 148.122,48.000 128.427 C 48.000 118.688,47.853 110.196,47.674 109.554 C 47.222 107.941,44.877 105.375,43.220 104.683 C 41.206 103.841,38.449 103.977,36.338 105.022 M212.685 104.678 C 211.083 105.405,208.760 108.004,208.326 109.554 C 208.147 110.196,208.000 118.688,208.000 128.427 C 208.000 148.122,207.905 147.424,210.956 150.102 C 214.637 153.334,220.928 151.996,223.095 147.520 C 223.973 145.707,224.000 145.115,224.000 128.000 C 224.000 110.885,223.973 110.293,223.095 108.480 C 221.845 105.899,219.493 104.408,216.388 104.231 C 214.962 104.150,213.446 104.332,212.685 104.678 M38.613 176.203 C 35.420 176.938,33.235 178.875,32.398 181.711 C 32.103 182.711,31.991 188.277,32.078 197.547 L 32.213 211.840 33.417 214.445 C 34.940 217.739,38.240 221.026,41.600 222.593 L 44.160 223.787 58.771 223.914 C 72.437 224.033,73.503 223.988,75.244 223.218 C 81.144 220.608,81.507 212.283,75.861 209.050 C 74.040 208.008,73.934 207.999,61.148 207.865 L 48.269 207.731 48.135 194.852 L 48.000 181.973 46.869 180.049 C 45.166 177.152,41.634 175.507,38.613 176.203 M213.424 184.359 C 212.652 184.590,211.280 185.520,210.375 186.425 C 208.170 188.630,207.787 190.652,207.787 200.090 L 207.787 207.712 198.933 207.862 C 190.723 208.000,189.948 208.081,188.267 208.974 C 182.390 212.095,182.692 220.432,188.782 223.198 C 190.271 223.874,191.688 223.983,199.147 223.991 L 207.787 224.000 207.787 231.659 C 207.787 235.871,207.999 240.310,208.259 241.522 C 208.827 244.167,210.969 246.757,213.198 247.492 C 216.962 248.735,221.441 246.937,223.095 243.520 C 223.928 241.800,224.000 240.947,224.000 232.825 L 224.000 224.000 232.825 224.000 C 240.947 224.000,241.800 223.928,243.520 223.095 C 246.373 221.714,247.680 219.439,247.680 215.857 C 247.680 213.292,247.540 212.811,246.370 211.346 C 244.000 208.381,243.294 208.215,233.067 208.214 L 224.000 208.213 224.000 199.453 C 224.000 190.105,223.751 188.679,221.740 186.525 C 219.832 184.482,216.182 183.532,213.424 184.359 M110.293 208.172 C 108.377 208.651,107.350 209.302,105.893 210.961 C 102.666 214.637,104.008 220.930,108.480 223.095 C 110.293 223.973,110.885 224.000,128.000 224.000 C 145.115 224.000,145.707 223.973,147.520 223.095 C 151.996 220.928,153.334 214.637,150.102 210.956 C 147.437 207.920,148.053 208.008,128.853 207.926 C 119.349 207.885,110.997 207.996,110.293 208.172 " stroke="none" fill-rule="evenodd"></path></svg>