<svg fill="currentColor" viewBox="0 0 256 256" xmlns="http://www.w3.org/2000/svg"><path d="M42.880 40.876 C 37.973 42.580,34.365 46.304,32.829 51.248 C 31.967 54.022,31.955 54.700,32.120 90.928 C 32.265 122.655,32.389 128.500,33.012 132.907 C 35.904 153.374,42.152 170.421,52.414 185.843 C 63.270 202.157,77.135 215.166,95.604 226.365 C 104.558 231.795,119.261 238.403,125.095 239.619 C 128.848 240.402,131.757 239.834,139.163 236.874 C 152.716 231.457,165.803 223.802,177.291 214.571 C 200.165 196.191,215.581 171.145,221.220 143.203 C 223.685 130.989,223.698 130.728,223.880 90.928 C 224.045 54.700,224.033 54.022,223.171 51.248 C 222.066 47.691,219.950 44.809,217.009 42.857 C 212.557 39.901,219.229 40.105,127.826 40.121 C 50.319 40.134,44.877 40.182,42.880 40.876 M207.675 92.053 C 207.521 126.923,207.482 128.411,206.578 133.760 C 204.300 147.247,200.873 157.658,195.132 168.533 C 182.885 191.734,160.378 211.127,133.030 222.044 L 128.034 224.039 123.212 222.153 C 96.950 211.885,74.343 192.828,61.926 170.491 C 55.664 159.227,51.812 147.912,49.422 133.760 C 48.518 128.411,48.479 126.923,48.325 92.053 L 48.165 55.893 128.000 55.893 L 207.835 55.893 207.675 92.053 " stroke="none" fill-rule="evenodd"></path></svg>