<svg fill="currentColor" viewBox="0 0 256 256" xmlns="http://www.w3.org/2000/svg"><path d="M45.564 32.398 C 42.367 33.427,40.107 36.646,40.107 40.169 C 40.107 41.953,39.970 42.194,38.253 43.426 C 37.234 44.158,35.710 45.775,34.866 47.019 C 31.833 51.489,31.933 49.886,32.120 90.964 C 32.302 130.725,32.315 130.990,34.780 143.203 C 38.232 160.308,45.637 177.032,55.950 191.017 C 70.319 210.499,91.843 226.725,116.650 236.775 C 126.849 240.907,128.784 240.920,138.880 236.927 C 155.458 230.369,172.252 219.845,184.105 208.586 C 185.850 206.928,187.447 205.639,187.654 205.720 C 187.861 205.800,191.325 209.515,195.351 213.973 C 203.613 223.122,205.001 224.169,208.508 223.894 C 212.842 223.555,215.887 220.243,215.865 215.893 C 215.859 214.837,215.624 213.442,215.341 212.793 C 215.058 212.144,209.835 206.108,203.733 199.380 C 194.309 188.986,74.949 57.687,58.795 39.943 C 55.815 36.670,52.810 33.633,52.118 33.194 C 50.662 32.272,47.244 31.857,45.564 32.398 M95.346 40.704 C 93.660 41.438,91.656 43.583,91.022 45.332 C 89.735 48.880,91.022 52.631,94.225 54.662 L 96.167 55.893 151.977 55.893 L 207.787 55.893 207.782 89.280 C 207.779 115.384,207.643 123.923,207.162 128.427 C 205.980 139.499,203.654 148.980,199.678 158.933 C 197.816 163.594,197.493 164.802,197.654 166.496 C 198.311 173.401,206.905 176.193,211.476 170.986 C 214.272 167.801,219.715 151.624,221.703 140.587 C 223.684 129.590,223.689 129.479,223.874 90.935 C 224.049 54.674,224.038 54.038,223.173 51.255 C 221.609 46.221,217.607 42.204,212.677 40.720 C 209.763 39.843,97.357 39.828,95.346 40.704 M114.085 124.683 L 176.620 193.473 175.243 194.911 C 173.009 197.243,166.492 202.733,162.133 205.954 C 153.777 212.130,143.164 217.999,133.061 222.032 L 128.096 224.014 124.741 222.775 C 113.196 218.513,99.744 210.877,89.600 202.827 C 84.393 198.695,73.689 187.800,70.028 182.908 C 58.736 167.814,52.488 152.660,49.172 132.318 C 48.613 128.887,48.475 122.279,48.334 92.053 L 48.165 55.893 49.857 55.893 L 51.550 55.893 114.085 124.683 " stroke="none" fill-rule="evenodd"></path></svg>