<svg fill="currentColor" viewBox="0 0 256 256" xmlns="http://www.w3.org/2000/svg"><path d="M7.040 24.081 C 6.805 24.171,6.100 24.358,5.473 24.496 C 2.810 25.081,0.030 28.853,0.009 31.907 C -0.002 33.633,1.009 36.135,2.260 37.475 C 4.368 39.732,5.098 39.879,15.344 40.107 L 24.928 40.320 43.291 104.543 C 54.457 143.596,62.124 169.691,62.854 171.126 C 65.334 176.001,70.375 180.430,75.884 182.576 L 78.720 183.680 131.107 183.795 C 189.357 183.923,185.860 184.082,191.672 181.035 C 195.176 179.198,199.811 174.479,201.467 171.062 C 202.612 168.699,232.109 73.482,232.104 72.163 C 232.094 69.242,229.979 66.056,227.218 64.802 C 225.563 64.050,221.930 64.018,136.914 64.009 L 48.334 64.000 44.173 49.387 C 41.688 40.656,39.491 33.783,38.716 32.312 C 37.094 29.232,34.830 27.165,31.199 25.448 L 28.373 24.111 17.920 24.014 C 12.171 23.960,7.275 23.991,7.040 24.081 M212.742 81.173 C 210.682 88.848,187.181 163.805,186.584 164.605 C 185.368 166.233,183.824 167.261,181.940 167.698 C 179.430 168.280,84.275 168.221,82.133 167.636 C 79.791 166.996,77.960 165.517,77.090 163.562 C 76.687 162.659,71.108 143.536,64.692 121.067 L 53.027 80.213 133.013 80.213 L 212.999 80.213 212.742 81.173 M74.880 200.876 C 65.787 204.034,61.460 214.372,65.660 222.904 C 68.456 228.582,73.669 231.825,80.000 231.825 C 84.439 231.825,87.495 230.664,90.655 227.776 C 96.764 222.193,97.685 213.013,92.799 206.403 C 91.043 204.028,87.552 201.586,84.677 200.720 C 81.941 199.897,77.494 199.968,74.880 200.876 M178.901 200.873 C 174.579 202.421,171.372 205.333,169.430 209.474 C 168.466 211.528,168.320 212.402,168.320 216.107 C 168.320 219.887,168.452 220.642,169.482 222.736 C 171.853 227.561,176.366 230.844,181.937 231.799 C 188.901 232.992,196.717 228.188,199.139 221.227 C 200.211 218.144,200.077 213.373,198.827 210.144 C 197.560 206.871,194.334 203.423,190.934 201.706 C 187.570 200.008,182.330 199.645,178.901 200.873 " stroke="none" fill-rule="evenodd"></path></svg>