<svg fill="currentColor" viewBox="0 0 256 256" xmlns="http://www.w3.org/2000/svg"><path d="M120.960 24.326 C 100.935 25.586,81.587 32.844,64.891 45.360 C 59.554 49.360,49.234 59.686,45.276 64.986 C 34.512 79.399,27.973 94.882,25.095 112.768 C 23.886 120.283,23.787 134.307,24.890 141.867 C 27.542 160.046,34.293 176.318,45.279 191.014 C 49.299 196.392,59.608 206.701,64.986 210.721 C 79.686 221.710,96.000 228.476,114.133 231.105 C 117.683 231.620,121.936 231.847,128.000 231.847 C 144.598 231.847,158.874 228.583,173.440 221.458 C 184.661 215.968,192.320 210.472,201.396 201.396 C 210.475 192.317,215.974 184.654,221.456 173.440 C 235.707 144.287,235.458 110.173,220.780 81.026 C 214.698 68.950,203.517 55.194,193.067 46.931 C 172.349 30.550,147.221 22.673,120.960 24.326 M136.870 40.549 C 171.639 44.258,200.534 67.488,211.419 100.480 C 224.378 139.761,208.166 182.761,172.459 203.815 C 152.624 215.510,127.989 218.917,105.654 213.052 C 83.649 207.274,64.445 192.822,52.504 173.052 C 44.609 159.983,40.107 143.620,40.107 128.000 C 40.107 90.362,64.333 56.637,99.918 44.739 C 111.860 40.747,124.883 39.270,136.870 40.549 M94.507 80.203 C 92.229 80.727,90.476 81.905,89.278 83.714 L 88.107 85.484 88.107 128.039 L 88.107 170.593 89.387 172.405 C 92.700 177.096,99.299 177.096,102.613 172.406 L 103.893 170.595 104.016 156.586 L 104.140 142.577 130.313 158.938 C 144.709 167.938,157.269 175.511,158.224 175.768 C 162.019 176.790,166.637 174.112,167.666 170.293 C 167.980 169.125,168.087 155.600,168.008 127.000 L 167.893 85.407 166.613 83.595 C 164.218 80.203,159.948 79.100,156.373 80.949 C 155.435 81.434,143.298 88.940,129.403 97.628 L 104.140 113.425 104.016 99.454 L 103.893 85.483 102.720 83.710 C 100.966 81.062,97.396 79.537,94.507 80.203 M151.893 128.189 L 151.893 153.551 131.627 140.882 C 120.480 133.914,111.364 128.117,111.369 128.000 C 111.379 127.737,151.127 102.866,151.573 102.843 C 151.749 102.834,151.893 114.240,151.893 128.189 " stroke="none" fill-rule="evenodd"></path></svg>