<svg fill="currentColor" viewBox="0 0 256 256" xmlns="http://www.w3.org/2000/svg"><path d="M100.423 48.280 C 93.825 48.842,87.304 51.890,82.078 56.855 C 78.252 60.489,75.940 63.913,74.157 68.587 L 72.813 72.107 55.528 72.107 C 38.786 72.107,38.184 72.135,36.373 73.012 C 33.602 74.353,32.213 76.686,32.213 80.000 C 32.213 83.314,33.602 85.647,36.373 86.988 C 38.184 87.865,38.786 87.893,55.528 87.893 L 72.813 87.893 74.157 91.413 C 75.983 96.199,78.308 99.590,82.411 103.449 C 92.858 113.278,108.373 114.809,120.858 107.243 C 126.561 103.787,132.445 96.384,134.233 90.414 L 134.988 87.893 176.373 87.893 C 217.673 87.893,217.761 87.891,219.627 86.988 C 222.398 85.647,223.787 83.314,223.787 80.000 C 223.787 76.686,222.398 74.353,219.627 73.012 C 217.761 72.109,217.673 72.107,176.380 72.107 L 135.002 72.107 134.249 69.653 C 132.625 64.366,128.399 58.417,123.694 54.796 C 117.037 49.674,109.342 47.519,100.423 48.280 M110.653 65.632 C 114.042 67.242,116.691 69.910,118.354 73.387 C 119.534 75.855,119.680 76.583,119.680 80.000 C 119.680 83.417,119.534 84.145,118.354 86.613 C 116.673 90.127,114.041 92.755,110.507 94.449 C 108.051 95.625,107.318 95.774,104.107 95.751 C 101.450 95.731,99.852 95.478,98.133 94.804 C 91.449 92.181,87.069 84.404,88.356 77.441 C 90.298 66.938,101.224 61.151,110.653 65.632 M164.423 144.280 C 157.825 144.842,151.304 147.890,146.078 152.855 C 142.252 156.489,139.940 159.913,138.157 164.587 L 136.813 168.107 87.528 168.107 L 38.243 168.107 36.373 169.012 C 33.602 170.353,32.213 172.686,32.213 176.000 C 32.213 179.314,33.602 181.647,36.373 182.988 L 38.243 183.893 87.528 183.893 L 136.813 183.893 138.157 187.413 C 139.983 192.199,142.308 195.590,146.411 199.449 C 156.858 209.278,172.373 210.809,184.858 203.243 C 190.561 199.787,196.445 192.384,198.233 186.414 L 198.988 183.893 208.373 183.893 C 217.064 183.893,217.895 183.826,219.627 182.988 C 222.398 181.647,223.787 179.314,223.787 176.000 C 223.787 172.686,222.398 170.353,219.627 169.012 C 217.896 168.174,217.064 168.107,208.380 168.107 L 199.002 168.107 198.249 165.653 C 196.625 160.366,192.399 154.417,187.694 150.796 C 181.037 145.674,173.342 143.519,164.423 144.280 M174.653 161.632 C 178.042 163.242,180.691 165.910,182.354 169.387 C 183.534 171.855,183.680 172.583,183.680 176.000 C 183.680 179.417,183.534 180.145,182.354 182.613 C 180.673 186.127,178.041 188.755,174.507 190.449 C 172.051 191.625,171.318 191.774,168.107 191.751 C 165.450 191.731,163.852 191.478,162.133 190.804 C 155.449 188.181,151.069 180.404,152.356 173.441 C 154.298 162.938,165.224 157.151,174.653 161.632 " stroke="none" fill-rule="evenodd"></path></svg>