<svg fill="currentColor" viewBox="0 0 256 256" xmlns="http://www.w3.org/2000/svg"><path d="M112.213 32.422 C 111.392 32.634,93.273 39.149,71.949 46.899 C 47.899 55.640,32.388 61.497,31.097 62.325 C 28.591 63.933,26.837 66.065,25.273 69.403 L 24.107 71.893 24.107 133.760 L 24.107 195.627 25.461 198.486 C 27.893 203.620,32.228 206.883,37.836 207.802 C 41.505 208.402,239.299 208.352,242.588 207.750 C 247.845 206.787,252.341 203.308,254.672 198.400 L 255.787 196.053 255.922 180.480 C 256.011 170.329,255.888 163.735,255.571 161.542 C 253.683 148.518,245.534 137.165,233.956 131.427 C 231.716 130.318,217.718 125.417,197.887 118.801 C 180.062 112.853,164.581 107.464,163.486 106.824 C 160.649 105.166,156.783 101.350,155.138 98.582 C 154.363 97.279,148.279 83.445,141.617 67.840 L 129.505 39.467 126.939 36.869 C 125.046 34.953,123.702 34.017,121.813 33.299 C 118.996 32.228,114.536 31.821,112.213 32.422 M119.129 56.141 C 120.943 60.346,122.433 64.001,122.440 64.263 C 122.447 64.525,117.537 66.526,111.527 68.710 C 105.518 70.894,99.998 73.081,99.261 73.570 C 94.665 76.621,95.242 84.477,100.250 87.032 C 103.571 88.726,103.936 88.636,125.045 80.940 L 129.130 79.451 131.394 84.768 C 132.671 87.764,133.495 90.237,133.283 90.434 C 133.076 90.626,129.547 91.982,125.440 93.447 C 115.360 97.042,114.196 97.697,112.796 100.558 C 111.920 102.349,111.725 103.261,111.894 104.763 C 112.161 107.130,113.783 109.662,115.851 110.940 C 118.644 112.666,120.685 112.354,130.773 108.662 C 135.701 106.859,139.860 105.384,140.016 105.385 C 140.171 105.386,141.114 106.587,142.110 108.053 C 143.107 109.520,144.777 111.726,145.822 112.955 C 147.157 114.526,147.549 115.253,147.141 115.401 C 146.821 115.516,143.584 116.686,139.947 117.999 C 136.309 119.312,132.658 120.766,131.833 121.229 C 128.957 122.844,127.506 126.300,128.185 129.918 C 128.820 133.302,133.423 136.512,136.847 135.958 C 137.730 135.815,144.779 133.391,152.511 130.572 L 166.568 125.445 194.537 134.656 C 209.920 139.721,224.102 144.609,226.052 145.517 C 231.626 148.113,236.298 153.125,238.471 158.839 L 238.912 160.000 139.509 160.000 L 40.107 160.000 40.107 117.795 L 40.107 75.591 41.920 74.908 C 54.490 70.173,115.095 48.299,115.409 48.382 C 115.642 48.444,117.316 51.936,119.129 56.141 M239.787 184.107 L 239.787 192.000 139.947 192.000 L 40.107 192.000 40.107 184.107 L 40.107 176.213 139.947 176.213 L 239.787 176.213 239.787 184.107 " stroke="none" fill-rule="evenodd"></path></svg>