<svg fill="currentColor" viewBox="0 0 256 256" xmlns="http://www.w3.org/2000/svg"><path d="M100.457 33.059 C 97.940 34.323,96.531 36.242,96.166 38.901 C 95.644 42.709,96.014 43.215,108.427 55.694 L 119.901 67.228 119.790 90.572 L 119.680 113.916 99.598 102.322 L 79.516 90.727 75.568 75.977 C 73.397 67.864,71.289 60.653,70.883 59.953 C 68.029 55.021,60.792 54.881,57.394 59.691 C 55.474 62.409,55.677 64.357,59.262 77.653 C 60.939 83.872,62.416 89.296,62.544 89.707 C 62.698 90.200,62.550 90.453,62.107 90.453 C 60.482 90.453,37.309 96.506,35.898 97.298 C 29.711 100.776,31.311 110.029,38.400 111.766 C 40.184 112.203,41.423 111.966,55.849 108.425 L 71.378 104.614 91.369 116.157 C 102.364 122.506,111.360 127.844,111.360 128.020 C 111.360 128.195,102.358 133.542,91.355 139.901 L 71.350 151.462 56.562 147.838 C 48.428 145.844,40.911 144.213,39.857 144.213 C 37.835 144.213,35.266 145.284,34.043 146.637 C 31.961 148.939,31.471 152.664,32.868 155.551 C 34.388 158.690,35.667 159.237,49.280 162.569 C 56.085 164.235,61.875 165.669,62.146 165.757 C 62.489 165.867,62.258 167.317,61.385 170.531 C 55.467 192.339,55.307 193.357,57.326 196.353 C 60.873 201.616,68.804 200.968,71.266 195.214 C 71.671 194.268,73.691 187.149,75.755 179.394 L 79.508 165.295 99.594 153.708 L 119.680 142.121 119.790 165.447 L 119.901 188.772 108.427 200.306 C 96.014 212.785,95.644 213.291,96.166 217.099 C 96.655 220.662,99.338 223.345,102.901 223.834 C 106.646 224.347,107.336 223.863,118.080 213.187 L 128.000 203.331 137.920 213.187 C 148.664 223.863,149.354 224.347,153.099 223.834 C 156.662 223.345,159.345 220.662,159.834 217.099 C 160.356 213.291,159.986 212.785,147.573 200.306 L 136.099 188.772 136.210 165.447 L 136.320 142.121 156.411 153.711 L 176.502 165.301 180.480 180.144 C 182.668 188.308,184.803 195.556,185.226 196.250 C 188.050 200.894,195.169 201.085,198.415 196.605 C 200.739 193.396,200.645 192.752,194.615 170.531 C 193.738 167.300,193.510 165.862,193.854 165.739 C 194.125 165.642,199.531 164.301,205.867 162.760 C 212.203 161.218,218.027 159.730,218.810 159.453 C 221.072 158.652,223.453 155.764,223.809 153.389 C 224.498 148.792,221.756 145.053,216.960 144.050 C 216.073 143.864,210.916 144.954,200.154 147.601 L 184.628 151.420 164.634 139.876 C 153.637 133.527,144.640 128.187,144.640 128.009 C 144.640 127.832,153.637 122.495,164.634 116.151 L 184.628 104.615 200.153 108.414 C 211.583 111.211,216.072 112.143,217.172 111.947 C 220.536 111.351,223.120 108.983,224.039 105.657 C 224.870 102.647,222.852 98.366,219.950 96.982 C 219.177 96.614,212.908 94.928,206.019 93.236 C 199.130 91.545,193.518 89.987,193.549 89.774 C 193.580 89.561,195.014 84.107,196.736 77.653 C 200.348 64.115,200.524 62.406,198.591 59.669 C 196.006 56.010,191.075 55.009,187.615 57.441 C 186.647 58.121,185.522 59.252,185.117 59.953 C 184.711 60.653,182.603 67.864,180.432 75.977 L 176.484 90.727 156.402 102.322 L 136.320 113.916 136.210 90.572 L 136.099 67.228 147.573 55.694 C 159.986 43.215,160.356 42.709,159.834 38.901 C 159.687 37.828,159.136 36.312,158.610 35.534 C 157.475 33.855,154.010 32.000,152.009 32.000 C 149.066 32.000,147.589 33.136,137.707 42.999 L 128.000 52.686 118.293 42.999 C 111.986 36.704,108.031 33.082,107.000 32.656 C 104.749 31.725,102.886 31.840,100.457 33.059 " stroke="none" fill-rule="evenodd"></path></svg>