<svg fill="currentColor" viewBox="0 0 256 256" xmlns="http://www.w3.org/2000/svg"><path d="M180.693 40.807 C 178.791 41.797,137.407 83.171,136.704 84.786 C 135.238 88.156,136.527 92.576,139.561 94.585 L 141.376 95.787 158.582 95.907 L 175.787 96.028 175.787 119.673 C 175.787 135.360,175.946 144.060,176.259 145.522 C 176.827 148.167,178.969 150.757,181.198 151.492 C 184.962 152.735,189.441 150.937,191.095 147.520 C 191.985 145.681,192.000 145.251,192.000 120.825 L 192.000 96.000 208.747 95.991 C 224.071 95.982,225.640 95.915,227.218 95.198 C 229.956 93.954,232.102 90.745,232.102 87.893 C 232.102 84.820,231.738 84.403,210.201 62.814 C 196.359 48.938,188.637 41.503,187.492 40.948 C 185.425 39.945,182.467 39.884,180.693 40.807 M47.147 56.096 C 46.912 56.178,46.196 56.361,45.554 56.502 C 43.991 56.847,41.395 59.183,40.683 60.886 C 39.375 64.017,40.220 67.581,42.809 69.854 C 43.662 70.603,45.082 71.425,45.966 71.682 C 47.082 72.007,56.516 72.111,76.800 72.022 C 105.493 71.896,106.058 71.877,107.733 71.001 C 108.770 70.460,109.920 69.337,110.663 68.141 C 113.055 64.289,111.876 59.545,107.951 57.238 L 106.027 56.107 76.800 56.026 C 60.725 55.982,47.381 56.013,47.147 56.096 M194.133 69.760 L 204.153 79.787 183.893 79.787 L 163.633 79.787 173.653 69.760 C 179.164 64.245,183.772 59.733,183.893 59.733 C 184.014 59.733,188.622 64.245,194.133 69.760 M47.147 120.097 C 46.912 120.179,46.196 120.361,45.554 120.502 C 44.913 120.643,43.685 121.377,42.824 122.133 C 38.350 126.061,39.458 132.726,45.013 135.298 C 46.633 136.048,48.614 136.088,84.053 136.088 C 119.449 136.088,121.475 136.047,123.093 135.300 C 125.159 134.347,126.459 132.996,127.340 130.888 C 128.893 127.170,127.267 122.880,123.520 120.813 C 122.360 120.173,118.753 120.099,84.907 120.028 C 64.373 119.984,47.381 120.016,47.147 120.097 M47.147 184.100 C 46.912 184.180,46.196 184.361,45.554 184.502 C 44.913 184.643,43.685 185.377,42.824 186.133 C 38.350 190.061,39.458 196.726,45.013 199.298 C 46.652 200.056,49.475 200.088,115.960 200.097 C 191.200 200.107,186.777 200.243,189.384 197.846 C 190.726 196.613,191.979 193.847,191.991 192.093 C 192.009 189.299,190.143 186.260,187.520 184.813 C 186.345 184.165,180.534 184.100,116.907 184.030 C 78.773 183.988,47.381 184.020,47.147 184.100 " stroke="none" fill-rule="evenodd"></path></svg>