<svg fill="currentColor" viewBox="0 0 256 256" xmlns="http://www.w3.org/2000/svg"><path d="M125.979 24.299 C 124.155 24.745,121.781 26.592,120.853 28.289 C 120.183 29.513,120.093 31.452,119.973 47.147 C 119.884 58.891,119.993 65.160,120.305 66.221 C 121.257 69.459,124.705 72.088,128.000 72.088 C 131.295 72.088,134.743 69.459,135.695 66.221 C 136.007 65.160,136.116 58.891,136.027 47.147 C 135.899 30.414,135.855 29.589,135.020 28.166 C 133.268 25.184,129.303 23.488,125.979 24.299 M57.453 52.676 C 55.340 53.429,53.846 54.822,52.860 56.960 C 51.857 59.133,51.860 61.199,52.869 63.360 C 53.846 65.450,77.712 89.331,79.494 90.001 C 81.167 90.631,84.246 90.565,85.880 89.866 C 87.541 89.155,89.382 87.260,90.000 85.626 C 90.651 83.901,90.558 80.777,89.808 79.197 C 89.454 78.449,83.550 72.245,76.688 65.410 C 66.276 55.037,63.931 52.906,62.507 52.520 C 60.326 51.930,59.472 51.956,57.453 52.676 M193.091 52.690 C 190.636 53.565,166.684 77.527,165.704 80.089 C 163.433 86.027,169.134 92.106,175.419 90.448 C 177.050 90.017,178.828 88.419,189.807 77.511 C 202.633 64.769,203.928 63.177,203.928 60.160 C 203.928 56.852,201.281 53.391,198.067 52.499 C 196.010 51.928,195.137 51.961,193.091 52.690 M29.979 120.309 C 27.054 121.003,24.706 123.589,24.109 126.773 C 23.437 130.351,26.134 134.651,29.663 135.631 C 30.773 135.939,37.263 136.099,48.427 136.095 C 64.110 136.088,65.632 136.024,67.200 135.300 C 73.642 132.327,73.642 123.673,67.200 120.700 C 65.627 119.974,64.161 119.915,48.427 119.946 C 39.040 119.965,30.739 120.128,29.979 120.309 M188.800 120.688 C 182.226 123.766,182.414 132.648,189.112 135.446 C 190.449 136.005,193.307 136.106,207.666 136.104 C 218.734 136.103,225.230 135.938,226.337 135.631 C 228.597 135.003,231.042 132.502,231.668 130.176 C 232.620 126.644,231.346 123.374,228.209 121.297 L 226.410 120.107 208.459 119.998 C 191.673 119.896,190.396 119.941,188.800 120.688 M79.147 166.247 C 77.031 167.349,53.779 190.705,52.872 192.640 C 50.995 196.644,52.772 201.207,56.960 203.140 C 59.133 204.143,61.199 204.140,63.360 203.131 C 65.450 202.154,89.331 178.288,90.001 176.506 C 90.582 174.962,90.581 171.914,90.000 170.374 C 89.382 168.740,87.541 166.845,85.880 166.134 C 84.069 165.359,80.745 165.415,79.147 166.247 M170.027 166.151 C 168.437 166.861,166.600 168.787,166.000 170.374 C 165.419 171.914,165.418 174.962,165.999 176.506 C 166.669 178.288,190.550 202.154,192.640 203.131 C 194.801 204.140,196.867 204.143,199.040 203.140 C 203.094 201.269,204.920 196.890,203.291 192.946 C 202.481 190.985,179.313 167.587,176.977 166.371 C 175.134 165.411,171.913 165.309,170.027 166.151 M124.800 184.700 C 122.735 185.653,121.435 187.004,120.554 189.112 C 119.995 190.449,119.894 193.307,119.896 207.666 C 119.897 218.026,120.070 225.258,120.339 226.227 C 121.495 230.389,125.884 232.824,130.157 231.674 C 132.503 231.042,135.001 228.607,135.631 226.337 C 135.939 225.227,136.099 218.737,136.095 207.573 C 136.088 191.890,136.024 190.368,135.300 188.800 C 133.370 184.618,128.823 182.843,124.800 184.700 " stroke="none" fill-rule="evenodd"></path></svg>