<svg fill="currentColor" viewBox="0 0 256 256" xmlns="http://www.w3.org/2000/svg"><path d="M76.600 44.775 C 49.665 60.485,27.146 73.781,26.557 74.322 C 25.202 75.569,23.912 78.338,23.912 80.000 C 23.912 81.729,25.223 84.446,26.720 85.820 C 27.653 86.677,109.212 134.535,122.572 142.066 C 125.692 143.824,127.749 144.304,129.810 143.754 C 131.209 143.381,226.325 88.223,228.839 86.326 C 230.343 85.192,231.191 83.871,231.744 81.805 C 232.397 79.362,231.668 76.533,229.928 74.753 C 228.977 73.780,166.002 36.704,135.062 18.901 C 130.838 16.471,130.160 16.213,127.982 16.213 L 125.573 16.213 76.600 44.775 M167.545 56.367 C 189.326 69.065,207.305 79.600,207.498 79.779 C 207.691 79.958,189.883 90.585,167.924 103.395 L 128.000 126.686 88.085 103.400 C 66.131 90.594,48.291 79.993,48.439 79.844 C 48.634 79.648,127.322 33.550,127.865 33.314 C 127.908 33.295,145.764 43.669,167.545 56.367 M221.867 120.300 C 221.280 120.483,200.013 132.755,174.606 147.570 C 149.199 162.385,128.226 174.507,128.000 174.507 C 127.774 174.507,106.801 162.383,81.394 147.566 C 31.836 118.664,33.440 119.497,29.731 120.721 C 26.966 121.634,24.331 125.502,24.322 128.663 C 24.317 130.509,26.391 133.731,28.470 135.110 C 31.550 137.152,122.838 190.310,124.800 191.204 C 126.770 192.101,128.576 192.201,130.529 191.520 C 132.318 190.897,228.162 135.016,229.496 133.819 C 231.692 131.848,232.682 127.871,231.653 125.148 C 230.268 121.482,225.555 119.147,221.867 120.300 M28.782 168.885 C 23.488 171.363,22.467 177.822,26.735 181.831 C 28.450 183.442,124.253 239.238,126.190 239.754 C 128.251 240.304,130.308 239.824,133.428 238.066 C 147.009 230.410,228.344 182.675,229.265 181.820 C 232.661 178.662,232.841 174.133,229.709 170.666 C 228.885 169.754,227.529 168.783,226.695 168.508 C 222.963 167.276,224.666 166.391,174.613 195.571 L 128.000 222.745 81.386 195.567 C 39.122 170.924,34.574 168.374,32.640 168.233 C 31.170 168.126,29.970 168.329,28.782 168.885 " stroke="none" fill-rule="evenodd"></path></svg>