<svg fill="currentColor" viewBox="0 0 256 256" xmlns="http://www.w3.org/2000/svg"><path d="M144.427 25.030 C 142.450 26.075,141.601 26.945,140.749 28.800 C 139.728 31.025,139.742 33.442,140.789 35.599 C 141.984 38.061,198.875 94.862,201.053 95.767 C 204.397 97.157,207.898 96.377,210.229 93.722 C 212.770 90.828,212.993 87.260,210.831 84.098 C 209.125 81.603,152.184 25.263,150.859 24.759 C 149.167 24.116,145.897 24.254,144.427 25.030 M111.573 66.844 C 109.597 67.888,108.747 68.759,107.896 70.613 C 106.352 73.975,107.338 78.232,110.140 80.307 C 113.099 82.498,181.269 121.550,182.902 121.990 C 186.263 122.895,190.712 120.545,191.974 117.199 C 193.154 114.070,192.129 110.008,189.700 108.181 C 188.381 107.190,121.930 68.678,118.654 67.008 C 116.595 65.957,113.392 65.883,111.573 66.844 M91.079 115.797 C 85.017 118.438,84.672 127.074,90.509 130.062 C 91.534 130.587,110.035 135.733,131.622 141.499 C 174.843 153.043,173.718 152.820,176.826 150.449 C 181.361 146.991,180.971 139.634,176.122 137.126 C 174.258 136.162,95.587 115.198,93.903 115.217 C 93.062 115.226,91.791 115.487,91.079 115.797 M44.587 144.924 C 42.702 145.920,41.819 146.799,40.907 148.584 C 40.122 150.124,40.096 151.433,40.206 184.456 L 40.320 218.729 41.465 220.460 C 42.155 221.502,43.354 222.550,44.480 223.095 L 46.349 224.000 128.000 224.000 L 209.651 224.000 211.520 223.095 C 212.646 222.550,213.845 221.502,214.535 220.460 L 215.680 218.729 215.794 184.451 C 215.897 153.401,215.842 150.043,215.209 148.793 C 214.220 146.839,213.351 145.947,211.537 145.021 C 208.641 143.543,204.223 144.299,202.185 146.621 C 200.044 149.060,200.107 148.083,200.107 178.965 L 200.107 207.787 128.000 207.787 L 55.893 207.787 55.893 178.970 C 55.893 151.534,55.855 150.077,55.085 148.570 C 54.161 146.759,53.267 145.887,51.328 144.905 C 49.604 144.032,46.257 144.041,44.587 144.924 M84.910 168.786 C 81.738 170.162,80.091 172.648,80.091 176.062 C 80.091 178.984,81.602 181.604,84.118 183.045 L 85.973 184.107 128.000 184.107 L 170.027 184.107 171.951 182.975 C 176.504 180.298,177.335 173.872,173.581 170.367 C 171.064 168.016,172.877 168.105,127.907 168.123 C 91.798 168.138,86.206 168.224,84.910 168.786 " stroke="none" fill-rule="evenodd"></path></svg>