<svg fill="currentColor" viewBox="0 0 256 256" xmlns="http://www.w3.org/2000/svg"><path d="M69.091 24.319 C 65.028 25.017,60.838 27.857,58.505 31.493 C 56.047 35.323,55.827 37.214,55.974 53.231 L 56.107 67.627 57.461 70.486 C 60.637 77.189,66.217 80.204,75.461 80.211 L 78.602 80.213 78.359 81.600 C 78.225 82.363,73.101 114.786,66.973 153.652 C 54.491 232.817,55.197 226.493,58.499 229.637 C 62.362 233.316,68.503 232.415,70.969 227.808 C 71.508 226.800,72.973 218.600,75.690 201.387 L 79.629 176.427 127.912 176.318 L 176.196 176.210 176.425 177.172 C 176.551 177.701,178.380 189.069,180.489 202.436 C 183.853 223.752,184.452 226.931,185.360 228.303 C 188.203 232.599,193.984 233.210,197.597 229.597 C 200.807 226.387,201.507 232.598,189.035 153.617 C 182.901 114.770,177.773 82.363,177.640 81.600 L 177.398 80.213 180.539 80.211 C 189.783 80.204,195.363 77.189,198.539 70.486 L 199.893 67.627 200.026 53.231 C 200.173 37.214,199.953 35.323,197.495 31.493 C 195.751 28.776,193.676 27.024,190.314 25.430 L 187.520 24.107 129.280 24.045 C 97.248 24.011,70.163 24.134,69.091 24.319 M183.893 52.053 L 183.893 64.000 128.000 64.000 L 72.107 64.000 72.107 52.053 L 72.107 40.107 128.000 40.107 L 183.893 40.107 183.893 52.053 M161.280 80.615 C 161.280 80.835,164.064 98.636,167.467 120.173 C 170.869 141.709,173.653 159.481,173.653 159.665 C 173.653 159.849,153.109 160.000,128.000 160.000 C 102.891 160.000,82.347 159.856,82.347 159.680 C 82.347 159.504,85.131 141.704,88.534 120.125 C 91.936 98.546,94.720 80.738,94.720 80.552 C 94.720 80.366,109.696 80.213,128.000 80.213 C 148.493 80.213,161.280 80.367,161.280 80.615 " stroke="none" fill-rule="evenodd"></path></svg>