<svg fill="currentColor" viewBox="0 0 256 256" xmlns="http://www.w3.org/2000/svg"><path d="M100.690 24.296 C 91.341 25.555,83.371 32.584,80.824 41.817 C 80.469 43.105,80.062 46.789,79.920 50.002 L 79.662 55.844 58.071 55.975 L 36.480 56.107 33.686 57.430 C 30.324 59.024,28.249 60.776,26.505 63.493 C 23.734 67.810,23.869 63.887,23.993 136.996 L 24.107 203.307 25.224 205.957 C 27.063 210.321,30.434 213.551,34.721 215.057 C 37.053 215.877,38.826 215.893,128.000 215.893 C 217.174 215.893,218.947 215.877,221.279 215.057 C 225.566 213.551,228.937 210.321,230.776 205.957 L 231.893 203.307 232.007 136.996 C 232.131 63.887,232.266 67.810,229.495 63.493 C 227.751 60.776,225.676 59.024,222.314 57.430 L 219.520 56.107 197.929 55.975 L 176.338 55.844 176.080 50.002 C 175.938 46.789,175.531 43.105,175.176 41.817 C 173.003 33.939,166.759 27.525,158.720 24.910 C 156.580 24.214,154.026 24.139,129.707 24.063 C 115.040 24.017,101.983 24.122,100.690 24.296 M155.627 41.012 C 156.751 41.556,157.953 42.606,158.641 43.645 C 159.702 45.246,159.797 45.763,159.928 50.633 L 160.070 55.893 128.000 55.893 L 95.930 55.893 96.072 50.633 C 96.203 45.771,96.299 45.244,97.352 43.655 C 98.017 42.651,99.258 41.557,100.338 41.022 C 102.166 40.117,102.468 40.107,127.972 40.107 C 153.376 40.107,153.785 40.120,155.627 41.012 M79.787 136.107 L 79.787 200.107 59.947 200.107 L 40.107 200.107 40.107 136.107 L 40.107 72.107 59.947 72.107 L 79.787 72.107 79.787 136.107 M160.000 136.107 L 160.000 200.107 128.000 200.107 L 96.000 200.107 96.000 136.107 L 96.000 72.107 128.000 72.107 L 160.000 72.107 160.000 136.107 M215.893 136.107 L 215.893 200.107 196.053 200.107 L 176.213 200.107 176.213 136.107 L 176.213 72.107 196.053 72.107 L 215.893 72.107 215.893 136.107 " stroke="none" fill-rule="evenodd"></path></svg>