<svg fill="currentColor" viewBox="0 0 256 256" xmlns="http://www.w3.org/2000/svg"><path d="M180.693 16.710 C 177.125 18.679,175.511 22.062,176.306 25.905 C 176.703 27.818,177.357 28.578,186.707 37.980 L 196.684 48.014 182.402 62.291 L 168.120 76.568 150.300 58.819 C 131.062 39.658,131.250 39.809,127.110 40.207 C 124.353 40.472,122.265 41.949,120.953 44.564 C 118.951 48.552,119.881 51.250,125.106 56.603 L 128.604 60.186 85.487 103.373 C 47.325 141.598,42.253 146.830,41.345 148.907 L 40.320 151.253 40.204 177.920 L 40.088 204.586 28.407 216.320 C 17.382 227.395,16.704 228.168,16.305 230.095 C 15.878 232.165,16.117 234.172,16.984 235.792 C 17.718 237.164,20.362 239.319,21.661 239.603 C 22.302 239.743,23.038 239.921,23.296 239.998 C 23.554 240.074,24.706 239.941,25.856 239.700 C 27.843 239.285,28.527 238.686,39.687 227.588 L 51.428 215.912 78.087 215.796 L 104.747 215.680 107.093 214.655 C 109.170 213.747,114.402 208.675,152.627 170.513 L 195.814 127.396 199.397 130.894 C 204.750 136.119,207.448 137.049,211.436 135.047 C 214.051 133.735,215.528 131.647,215.793 128.890 C 216.191 124.750,216.342 124.938,197.181 105.700 L 179.432 87.880 193.709 73.598 L 207.986 59.316 218.020 69.293 C 227.422 78.643,228.182 79.297,230.095 79.694 C 232.165 80.122,234.171 79.884,235.792 79.016 C 237.164 78.282,239.319 75.638,239.603 74.339 C 239.743 73.698,239.921 72.962,239.998 72.704 C 240.074 72.446,239.944 71.294,239.708 70.144 C 239.291 68.110,238.603 67.376,214.253 42.957 C 200.439 29.104,188.517 17.491,187.644 17.037 C 185.879 16.119,182.088 15.941,180.693 16.710 M162.347 93.867 L 184.531 116.054 142.505 158.083 L 100.480 200.112 78.293 200.003 L 56.107 199.893 55.996 177.714 L 55.886 155.535 64.949 146.464 L 74.012 137.394 84.899 148.220 C 96.598 159.853,97.227 160.309,100.965 159.888 C 105.949 159.326,109.273 153.809,107.500 149.041 C 107.254 148.380,102.166 142.942,96.192 136.956 L 85.331 126.072 91.630 119.783 L 97.929 113.495 107.738 123.339 C 113.133 128.754,118.411 133.791,119.467 134.533 C 123.324 137.245,128.889 135.951,130.978 131.857 C 132.029 129.796,132.113 126.370,131.158 124.459 C 130.783 123.708,125.745 118.341,119.961 112.533 L 109.445 101.972 124.587 86.826 C 132.915 78.496,139.827 71.680,139.946 71.680 C 140.065 71.680,150.146 81.664,162.347 93.867 " stroke="none" fill-rule="evenodd"></path></svg>