<svg fill="currentColor" viewBox="0 0 256 256" xmlns="http://www.w3.org/2000/svg"><path d="M27.679 49.436 C 26.519 50.172,25.424 51.318,24.929 52.316 C 24.127 53.933,24.107 55.713,24.107 124.800 L 24.107 195.627 25.461 198.486 C 27.893 203.620,32.228 206.883,37.836 207.802 C 41.187 208.350,214.813 208.350,218.164 207.802 C 223.772 206.883,228.107 203.620,230.539 198.486 L 231.893 195.627 231.893 124.800 C 231.893 55.713,231.873 53.933,231.071 52.316 C 230.576 51.318,229.481 50.172,228.321 49.436 L 226.393 48.213 128.000 48.213 L 29.607 48.213 27.679 49.436 M215.893 80.000 L 215.893 96.000 128.000 96.000 L 40.107 96.000 40.107 80.000 L 40.107 64.000 128.000 64.000 L 215.893 64.000 215.893 80.000 M79.787 128.000 L 79.787 143.787 59.947 143.787 L 40.107 143.787 40.107 128.000 L 40.107 112.213 59.947 112.213 L 79.787 112.213 79.787 128.000 M215.893 128.213 L 215.893 144.213 155.947 144.213 L 96.000 144.213 96.000 128.213 L 96.000 112.213 155.947 112.213 L 215.893 112.213 215.893 128.213 M79.787 176.000 L 79.787 192.000 59.947 192.000 L 40.107 192.000 40.107 176.000 L 40.107 160.000 59.947 160.000 L 79.787 160.000 79.787 176.000 M215.893 176.000 L 215.893 192.000 155.947 192.000 L 96.000 192.000 96.000 176.000 L 96.000 160.000 155.947 160.000 L 215.893 160.000 215.893 176.000 " stroke="none" fill-rule="evenodd"></path></svg>