<svg fill="currentColor" viewBox="0 0 256 256" xmlns="http://www.w3.org/2000/svg"><path d="M121.813 24.148 C 95.776 26.116,73.561 35.963,55.527 53.530 C 42.891 65.838,34.490 79.197,29.089 95.573 C 25.837 105.429,24.356 114.114,24.031 125.227 C 22.965 161.687,40.631 195.291,71.467 215.455 C 83.086 223.053,96.468 228.192,111.652 230.887 C 119.076 232.204,135.872 232.324,143.147 231.111 C 162.439 227.894,178.518 220.843,193.067 209.222 C 224.384 184.206,238.587 142.746,229.150 103.890 C 226.674 93.695,222.338 82.797,219.908 80.664 C 216.174 77.385,210.694 78.199,207.880 82.452 C 206.108 85.129,206.331 87.445,208.959 93.653 C 214.179 105.983,216.196 116.973,215.773 130.773 C 215.363 144.122,212.894 154.317,207.199 166.187 C 191.101 199.736,154.885 219.708,118.187 215.274 C 100.736 213.166,83.647 205.744,71.247 194.890 C 54.977 180.647,45.110 163.099,41.313 141.653 C 40.427 136.645,40.549 118.638,41.505 113.493 C 44.899 95.231,52.486 80.134,64.617 67.507 C 75.052 56.646,86.856 49.160,100.693 44.626 C 128.282 35.587,157.739 40.486,181.252 58.026 L 184.351 60.337 172.971 71.723 L 161.591 83.108 158.769 81.288 C 152.633 77.330,146.248 74.682,139.076 73.120 C 134.031 72.021,122.009 72.012,117.006 73.103 C 96.715 77.529,80.854 91.756,74.715 111.039 C 66.440 137.028,78.337 165.549,102.552 177.773 C 111.509 182.295,119.804 184.107,129.920 183.751 C 138.526 183.448,144.916 181.940,152.217 178.488 C 163.561 173.125,174.210 162.126,179.256 150.559 C 182.166 143.890,183.519 137.836,183.780 130.319 C 183.982 124.488,183.922 123.708,183.132 121.923 C 181.818 118.952,179.448 117.547,175.751 117.547 C 173.175 117.547,172.710 117.683,171.240 118.872 C 168.464 121.115,168.079 122.172,167.871 128.123 C 167.184 147.748,154.613 163.065,135.893 167.084 C 129.800 168.392,120.980 167.783,114.764 165.624 C 97.556 159.649,86.338 141.918,88.349 123.876 C 90.461 104.943,104.785 90.606,123.863 88.330 C 131.150 87.460,138.333 88.745,145.387 92.179 C 147.792 93.350,149.760 94.450,149.760 94.623 C 149.760 94.796,143.404 101.273,135.636 109.016 C 126.412 118.209,121.235 123.685,120.712 124.800 C 118.835 128.804,120.611 133.367,124.800 135.300 C 126.975 136.304,129.041 136.300,131.200 135.288 C 132.380 134.735,148.081 119.289,182.046 85.270 C 233.142 34.094,232.102 35.201,232.102 32.000 C 232.102 29.368,230.091 26.126,227.683 24.876 C 226.081 24.044,222.083 23.957,220.585 24.721 C 219.999 25.019,214.144 30.611,207.573 37.148 L 195.627 49.033 193.067 46.893 C 188.585 43.148,180.469 38.021,173.867 34.765 C 163.685 29.745,152.729 26.402,141.666 24.939 C 137.008 24.323,125.538 23.866,121.813 24.148 " stroke="none" fill-rule="evenodd"></path></svg>