<svg fill="currentColor" viewBox="0 0 256 256" xmlns="http://www.w3.org/2000/svg"><path d="M68.266 49.039 C 67.445 49.475,66.452 50.187,66.061 50.622 C 65.670 51.057,50.646 84.455,32.675 124.839 C 7.257 181.958,0.002 198.635,0.009 199.932 C 0.030 203.544,2.569 206.754,6.187 207.742 C 8.606 208.403,247.394 208.403,249.813 207.742 C 253.452 206.748,255.982 203.528,255.980 199.893 C 255.980 198.557,248.867 182.203,223.243 124.619 C 192.694 55.967,190.397 50.963,188.867 49.739 L 187.228 48.427 128.494 48.336 C 71.984 48.250,69.703 48.276,68.266 49.039 M207.194 127.947 C 222.773 163.000,235.520 191.753,235.520 191.842 C 235.520 191.931,214.283 191.955,188.326 191.895 L 141.131 191.787 112.806 128.053 C 97.227 93.000,84.480 64.247,84.480 64.158 C 84.480 64.069,105.717 64.045,131.674 64.105 L 178.869 64.213 207.194 127.947 M64.000 143.147 L 64.000 192.000 42.204 192.000 C 29.870 192.000,20.471 191.837,20.551 191.625 C 21.043 190.331,63.807 94.299,63.893 94.296 C 63.952 94.295,64.000 116.277,64.000 143.147 M123.307 191.676 C 123.307 191.854,113.611 192.000,101.760 192.000 L 80.213 192.000 80.224 143.253 L 80.234 94.507 101.770 142.930 C 113.615 169.563,123.307 191.499,123.307 191.676 " stroke="none" fill-rule="evenodd"></path></svg>