<svg fill="currentColor" viewBox="0 0 256 256" xmlns="http://www.w3.org/2000/svg"><path d="M39.040 56.089 C 38.805 56.175,38.100 56.358,37.473 56.496 C 34.768 57.090,32.019 60.872,32.019 64.000 C 32.019 67.015,33.286 68.692,40.430 75.127 C 44.187 78.511,59.080 91.744,73.525 104.533 C 87.969 117.323,99.788 127.883,99.788 128.000 C 99.788 128.117,87.968 138.677,73.521 151.467 C 36.670 184.090,33.820 186.692,32.846 188.601 C 30.850 192.514,32.686 197.352,36.907 199.300 C 40.899 201.143,42.498 200.421,51.041 192.919 C 82.821 165.013,118.123 133.311,118.926 131.955 C 120.232 129.751,120.232 126.249,118.926 124.045 C 118.358 123.085,106.009 111.814,88.307 96.098 C 47.921 60.243,44.396 57.161,43.292 56.741 C 42.045 56.267,39.586 55.890,39.040 56.089 M117.424 184.371 C 115.246 185.005,112.804 187.716,112.306 190.052 C 111.534 193.669,113.270 197.558,116.335 199.080 C 117.913 199.864,119.777 199.898,167.253 200.020 C 201.434 200.108,217.018 200.006,218.114 199.688 C 221.300 198.766,223.969 195.316,223.991 192.093 C 224.009 189.299,222.143 186.260,219.520 184.813 C 218.352 184.168,213.901 184.100,168.533 184.034 C 137.853 183.989,118.290 184.118,117.424 184.371 " stroke="none" fill-rule="evenodd"></path></svg>