<svg fill="currentColor" viewBox="0 0 256 256" xmlns="http://www.w3.org/2000/svg"><path d="M36.053 40.505 C 30.344 41.916,25.583 47.035,24.322 53.120 C 24.024 54.557,23.916 79.407,23.993 129.280 L 24.107 203.307 25.224 205.957 C 27.063 210.321,30.434 213.551,34.721 215.057 C 37.053 215.877,38.826 215.893,128.000 215.893 C 217.174 215.893,218.947 215.877,221.279 215.057 C 225.566 213.551,228.937 210.321,230.776 205.957 L 231.893 203.307 231.893 128.000 L 231.893 52.693 230.867 50.144 C 229.561 46.901,226.312 43.426,222.933 41.659 L 220.373 40.320 128.853 40.255 C 78.517 40.219,36.757 40.331,36.053 40.505 M215.893 128.000 L 215.893 200.107 128.000 200.107 L 40.107 200.107 40.107 128.000 L 40.107 55.893 128.000 55.893 L 215.893 55.893 215.893 128.000 M78.080 88.170 C 75.430 89.222,74.410 89.975,73.329 91.679 C 71.767 94.143,71.643 97.406,73.020 99.855 C 73.669 101.011,78.652 105.252,90.300 114.566 C 99.301 121.764,106.667 127.809,106.667 128.000 C 106.667 128.191,99.301 134.236,90.300 141.434 C 78.652 150.748,73.669 154.989,73.020 156.145 C 70.361 160.876,73.373 167.054,78.758 167.915 C 82.238 168.471,82.810 168.091,103.893 151.228 C 114.923 142.407,124.594 134.580,125.384 133.835 C 128.589 130.815,128.933 125.966,126.158 122.926 C 124.729 121.360,84.890 89.526,83.479 88.822 C 82.109 88.139,79.080 87.773,78.080 88.170 M132.907 152.702 C 127.361 155.270,126.243 161.939,130.703 165.854 C 131.555 166.603,132.976 167.427,133.860 167.686 C 134.966 168.010,142.196 168.116,157.050 168.025 L 178.634 167.893 180.395 166.672 C 185.378 163.218,184.976 155.853,179.653 153.073 L 177.396 151.893 156.005 151.903 C 136.094 151.911,134.495 151.967,132.907 152.702 " stroke="none" fill-rule="evenodd"></path></svg>