<svg fill="currentColor" viewBox="0 0 256 256" xmlns="http://www.w3.org/2000/svg"><path d="M36.480 48.924 C 34.503 49.968,33.654 50.839,32.802 52.693 C 32.054 54.324,32.018 57.140,32.009 116.025 L 32.000 177.651 32.905 179.520 C 35.072 183.996,41.363 185.334,45.044 182.102 C 48.165 179.362,47.986 181.159,48.122 151.147 L 48.244 124.160 92.175 124.160 L 136.107 124.160 136.107 151.153 C 136.107 181.444,135.926 179.671,139.285 182.389 C 140.734 183.563,141.163 183.680,144.000 183.680 C 146.837 183.680,147.266 183.563,148.715 182.389 C 149.593 181.679,150.668 180.431,151.106 179.616 C 151.873 178.186,151.897 175.918,151.791 115.560 L 151.680 52.986 150.370 51.346 C 148.687 49.240,146.645 48.215,144.134 48.214 C 141.658 48.213,140.094 48.784,138.507 50.267 C 136.049 52.566,136.107 51.828,136.107 81.053 L 136.107 107.947 92.175 107.947 L 48.244 107.947 48.122 80.960 C 48.013 56.754,47.927 53.841,47.291 52.693 C 46.355 51.002,44.448 49.230,42.959 48.667 C 41.222 48.011,37.963 48.140,36.480 48.924 M188.308 104.984 C 187.333 105.467,185.990 106.650,185.321 107.614 C 184.307 109.078,184.107 109.801,184.107 112.000 C 184.107 114.172,184.310 114.927,185.270 116.312 C 187.659 119.759,187.021 119.653,206.858 119.893 L 224.490 120.107 214.809 133.934 C 209.484 141.539,204.841 148.445,204.492 149.282 C 202.510 154.024,206.531 160.000,211.703 160.000 C 221.441 160.000,230.289 167.623,231.636 177.173 C 233.167 188.030,225.601 198.130,214.793 199.656 C 208.890 200.490,203.602 198.819,198.303 194.443 C 194.450 191.263,191.144 190.586,187.937 192.323 C 186.650 193.020,184.854 195.060,184.347 196.401 C 183.780 197.902,183.760 200.981,184.308 202.422 C 185.454 205.437,192.462 210.815,198.400 213.236 C 215.863 220.358,235.712 212.885,244.036 196.053 C 246.837 190.388,247.493 187.752,247.747 181.120 C 247.937 176.167,247.845 175.131,246.892 171.442 C 245.648 166.631,243.543 162.215,240.599 158.241 C 237.342 153.844,233.691 150.785,228.157 147.818 L 225.700 146.502 235.380 132.664 C 247.692 115.065,247.893 114.734,247.893 112.111 C 247.893 108.882,246.366 106.358,243.537 104.915 C 242.035 104.148,240.627 104.107,216.017 104.107 C 190.705 104.107,190.037 104.128,188.308 104.984 " stroke="none" fill-rule="evenodd"></path></svg>