<svg fill="currentColor" viewBox="0 0 256 256" xmlns="http://www.w3.org/2000/svg"><path d="M68.267 49.056 C 67.445 49.499,57.333 59.330,45.796 70.904 C 24.248 92.518,23.898 92.920,23.898 96.000 C 23.898 99.086,24.224 99.458,46.217 121.494 C 62.030 137.338,68.005 143.063,69.108 143.426 C 71.139 144.097,73.866 144.002,75.402 143.208 C 77.037 142.362,79.255 139.834,79.674 138.339 C 80.100 136.816,80.100 55.184,79.674 53.661 C 79.263 52.194,77.047 49.643,75.478 48.832 C 73.796 47.962,70.083 48.077,68.267 49.056 M111.147 56.099 C 110.912 56.179,110.196 56.361,109.554 56.502 C 108.913 56.643,107.685 57.377,106.824 58.133 C 102.350 62.061,103.458 68.726,109.013 71.298 C 110.645 72.053,113.049 72.088,163.960 72.097 C 221.732 72.107,218.799 72.222,221.384 69.846 C 222.726 68.613,223.979 65.847,223.991 64.093 C 224.009 61.299,222.143 58.260,219.520 56.813 C 218.350 56.168,213.644 56.100,164.907 56.029 C 135.573 55.987,111.381 56.018,111.147 56.099 M64.000 96.106 L 64.000 116.691 53.656 106.347 L 43.311 96.002 53.546 85.761 C 59.174 80.129,63.829 75.520,63.890 75.520 C 63.950 75.520,64.000 84.784,64.000 96.106 M111.147 120.099 C 110.912 120.179,110.196 120.361,109.554 120.502 C 108.913 120.643,107.685 121.377,106.824 122.133 C 102.350 126.061,103.458 132.726,109.013 135.298 C 110.645 136.053,113.049 136.088,163.960 136.097 C 221.732 136.107,218.799 136.222,221.384 133.846 C 222.726 132.613,223.979 129.847,223.991 128.093 C 224.009 125.299,222.143 122.260,219.520 120.813 C 218.350 120.168,213.644 120.100,164.907 120.029 C 135.573 119.987,111.381 120.018,111.147 120.099 M39.040 184.100 C 38.805 184.180,38.100 184.358,37.473 184.496 C 34.768 185.090,32.019 188.872,32.019 192.000 C 32.019 193.829,33.242 196.583,34.616 197.846 C 37.240 200.258,30.969 200.107,128.000 200.107 C 225.031 200.107,218.760 200.258,221.384 197.846 C 222.726 196.613,223.979 193.847,223.991 192.093 C 224.009 189.299,222.143 186.260,219.520 184.813 C 218.342 184.163,211.142 184.101,128.853 184.031 C 79.691 183.990,39.275 184.021,39.040 184.100 " stroke="none" fill-rule="evenodd"></path></svg>