<svg fill="currentColor" viewBox="0 0 256 256" xmlns="http://www.w3.org/2000/svg"><path d="M36.480 48.924 C 34.503 49.968,33.654 50.839,32.802 52.693 C 32.054 54.324,32.018 57.140,32.009 116.025 L 32.000 177.651 32.905 179.520 C 35.072 183.996,41.363 185.334,45.044 182.102 C 48.165 179.362,47.986 181.159,48.122 151.147 L 48.244 124.160 92.175 124.160 L 136.107 124.160 136.107 151.153 C 136.107 181.444,135.926 179.671,139.285 182.389 C 140.734 183.563,141.163 183.680,144.000 183.680 C 146.837 183.680,147.266 183.563,148.715 182.389 C 149.593 181.679,150.668 180.431,151.106 179.616 C 151.873 178.186,151.897 175.918,151.791 115.560 L 151.680 52.986 150.370 51.346 C 148.687 49.240,146.645 48.215,144.134 48.214 C 141.658 48.213,140.094 48.784,138.507 50.267 C 136.049 52.566,136.107 51.828,136.107 81.053 L 136.107 107.947 92.175 107.947 L 48.244 107.947 48.122 80.960 C 48.013 56.754,47.927 53.841,47.291 52.693 C 46.355 51.002,44.448 49.230,42.959 48.667 C 41.222 48.011,37.963 48.140,36.480 48.924 M221.154 104.534 C 220.645 104.739,214.471 108.749,207.433 113.444 C 199.383 118.815,194.200 122.556,193.458 123.528 C 190.098 127.933,193.008 135.066,198.531 135.963 C 201.306 136.413,202.981 135.716,209.493 131.400 L 215.893 127.158 215.903 168.219 C 215.912 207.276,215.951 209.363,216.702 210.987 C 219.759 217.588,228.241 217.588,231.298 210.987 C 232.052 209.357,232.088 207.059,232.097 160.093 C 232.107 106.746,232.214 109.276,229.846 106.738 C 227.745 104.485,223.773 103.478,221.154 104.534 " stroke="none" fill-rule="evenodd"></path></svg>