<svg fill="currentColor" viewBox="0 0 256 256" xmlns="http://www.w3.org/2000/svg"><path d="M112.483 8.741 C 103.983 10.512,97.077 14.284,91.255 20.334 C 86.244 25.541,83.163 31.042,81.136 38.400 L 80.019 42.453 79.885 88.181 L 79.751 133.909 74.946 138.741 C 65.399 148.342,60.009 158.389,57.131 171.947 C 55.765 178.381,55.748 188.969,57.094 195.724 C 59.761 209.107,65.630 220.000,75.378 229.658 C 83.903 238.103,95.023 244.053,107.226 246.696 C 110.846 247.480,112.966 247.641,119.893 247.659 C 127.082 247.677,128.812 247.546,132.615 246.694 C 148.772 243.076,161.658 234.919,171.164 222.293 C 177.186 214.295,181.373 204.504,183.114 194.347 C 183.854 190.031,183.956 188.088,183.761 181.973 C 183.442 171.955,181.741 164.923,177.449 155.874 C 174.231 149.092,167.216 139.910,162.181 135.893 L 160.042 134.187 160.021 89.327 C 159.998 40.548,160.031 41.289,157.587 34.411 C 153.340 22.459,142.735 12.715,130.347 9.381 C 125.892 8.182,116.738 7.854,112.483 8.741 M127.573 25.457 C 133.300 27.323,138.230 31.453,140.983 36.691 C 143.929 42.297,143.786 39.520,143.789 91.503 C 143.791 124.519,143.932 138.960,144.264 140.160 C 144.751 141.919,145.234 142.442,152.485 149.057 C 171.582 166.479,173.125 195.416,156.029 215.532 C 147.343 225.752,133.941 231.761,119.893 231.731 C 107.124 231.704,96.132 227.301,86.961 218.539 C 77.806 209.793,72.841 198.811,72.260 186.027 C 71.543 170.248,78.219 155.857,90.830 145.997 C 96.547 141.527,95.980 147.355,95.991 92.985 C 95.997 61.282,96.149 45.422,96.463 43.705 C 97.119 40.114,99.767 34.748,102.225 32.030 C 108.672 24.900,118.244 22.418,127.573 25.457 M116.907 40.585 C 115.527 41.133,113.607 42.964,112.709 44.587 C 112.061 45.757,111.990 50.448,111.882 99.413 L 111.763 152.960 108.644 154.131 C 99.134 157.703,91.944 165.618,89.091 175.655 C 87.854 180.006,87.781 187.374,88.931 191.787 C 91.952 203.388,100.820 212.108,112.627 215.089 C 115.658 215.854,117.067 215.968,121.373 215.793 C 130.010 215.441,136.462 212.622,142.542 206.542 C 148.561 200.523,151.428 194.017,151.793 185.553 C 152.061 179.318,151.267 175.350,148.685 170.027 C 146.469 165.455,143.372 161.576,139.790 158.883 C 136.880 156.696,132.575 154.408,129.813 153.581 L 128.000 153.038 127.991 99.666 C 127.982 48.789,127.945 46.214,127.198 44.587 C 126.767 43.648,126.044 42.551,125.591 42.150 C 123.543 40.330,119.416 39.587,116.907 40.585 M192.657 64.445 C 188.822 65.048,185.689 66.051,182.611 67.663 C 177.878 70.141,176.115 72.388,176.115 75.941 C 176.115 80.071,179.145 83.424,183.293 83.883 C 185.145 84.088,185.804 83.906,189.013 82.306 C 192.420 80.607,192.905 80.486,197.015 80.307 C 202.095 80.086,203.860 80.527,208.438 83.159 C 210.074 84.101,213.237 85.496,215.467 86.261 C 219.307 87.579,219.845 87.652,225.707 87.658 C 230.404 87.662,232.561 87.477,234.667 86.887 C 238.412 85.839,243.566 83.416,245.050 82.006 C 248.387 78.835,248.627 74.370,245.642 70.971 C 242.867 67.811,239.580 67.452,234.844 69.792 C 230.725 71.827,227.071 72.441,223.119 71.763 C 220.063 71.239,219.519 71.015,213.684 67.876 C 211.882 66.907,208.906 65.730,207.071 65.260 C 203.176 64.264,196.289 63.874,192.657 64.445 M192.657 96.445 C 187.473 97.260,183.313 98.878,179.263 101.654 C 176.148 103.790,174.982 107.756,176.443 111.251 C 177.290 113.278,178.188 114.247,180.143 115.245 C 182.771 116.587,185.239 116.318,189.194 114.261 C 192.462 112.562,192.866 112.460,197.015 112.293 C 202.093 112.088,203.875 112.536,208.438 115.159 C 210.074 116.101,213.237 117.496,215.467 118.261 C 219.307 119.579,219.845 119.652,225.707 119.658 C 230.404 119.662,232.561 119.477,234.667 118.887 C 238.412 117.839,243.566 115.416,245.050 114.006 C 248.387 110.835,248.627 106.370,245.642 102.971 C 242.867 99.811,239.580 99.452,234.844 101.792 C 230.725 103.827,227.071 104.441,223.119 103.763 C 220.063 103.239,219.519 103.015,213.684 99.876 C 211.882 98.907,208.906 97.730,207.071 97.260 C 203.176 96.264,196.289 95.874,192.657 96.445 M126.972 169.725 C 130.301 171.405,133.594 174.962,134.858 178.241 C 136.325 182.050,136.196 186.804,134.526 190.371 C 132.228 195.283,128.766 198.211,123.735 199.500 C 116.713 201.299,109.191 197.731,105.673 190.933 C 104.455 188.579,104.347 188.031,104.334 184.107 C 104.322 180.553,104.482 179.489,105.288 177.741 C 107.233 173.524,110.608 170.411,114.901 168.873 C 118.348 167.639,123.569 168.007,126.972 169.725 " stroke="none" fill-rule="evenodd"></path></svg>