<svg fill="currentColor" viewBox="0 0 256 256" xmlns="http://www.w3.org/2000/svg"><path d="M112.483 8.741 C 103.983 10.512,97.077 14.284,91.255 20.334 C 86.244 25.541,83.163 31.042,81.136 38.400 L 80.019 42.453 79.885 88.170 L 79.751 133.886 74.740 138.943 C 65.354 148.414,59.981 158.483,57.129 171.947 C 55.765 178.384,55.749 188.974,57.094 195.724 C 62.234 221.520,81.545 241.216,107.008 246.632 C 112.312 247.760,122.546 248.189,127.787 247.503 C 156.104 243.797,178.290 222.482,183.114 194.347 C 183.856 190.022,183.956 188.100,183.756 181.973 C 183.441 172.290,181.768 165.083,177.884 156.671 C 174.613 149.589,167.387 140.021,162.191 135.893 L 160.042 134.187 160.021 89.327 C 159.998 40.548,160.031 41.289,157.587 34.411 C 153.340 22.459,142.735 12.715,130.347 9.381 C 125.892 8.182,116.738 7.854,112.483 8.741 M127.573 25.457 C 133.300 27.323,138.230 31.453,140.983 36.691 C 143.928 42.296,143.785 39.505,143.805 91.716 C 143.821 130.865,143.925 139.170,144.418 140.587 C 144.802 141.690,145.801 142.972,147.246 144.213 C 159.447 154.698,164.365 162.297,167.092 174.875 C 168.051 179.301,168.057 188.975,167.102 193.211 C 163.657 208.491,154.719 220.179,141.297 226.952 C 128.327 233.496,111.793 233.444,98.587 226.816 C 93.715 224.371,90.532 222.020,86.159 217.637 C 79.703 211.166,75.916 204.551,73.512 195.539 C 72.525 191.839,72.395 190.529,72.373 184.107 C 72.351 177.523,72.457 176.440,73.520 172.373 C 74.878 167.182,78.345 159.762,81.265 155.797 C 84.194 151.821,86.318 149.642,90.696 146.121 C 93.621 143.768,94.788 142.532,95.306 141.237 C 95.932 139.673,96.000 134.934,96.000 92.870 C 96.000 61.210,96.149 45.424,96.463 43.705 C 97.119 40.114,99.767 34.748,102.225 32.030 C 108.672 24.900,118.244 22.418,127.573 25.457 M208.280 56.342 C 198.704 57.623,190.489 63.778,186.441 72.705 C 184.657 76.640,183.724 81.782,184.060 85.822 C 184.663 93.047,187.320 98.675,192.598 103.903 C 198.145 109.397,204.238 111.888,212.053 111.856 C 219.713 111.824,226.334 109.078,231.706 103.706 C 237.078 98.334,239.824 91.713,239.856 84.053 C 239.876 79.228,239.062 75.713,236.893 71.253 C 234.721 66.787,229.338 61.399,224.853 59.202 C 219.563 56.610,213.759 55.609,208.280 56.342 M217.732 73.530 C 223.539 76.933,225.574 83.888,222.445 89.637 C 217.856 98.070,206.439 98.089,201.490 89.671 C 200.461 87.920,200.320 87.243,200.324 84.053 C 200.328 79.965,200.875 78.527,203.460 75.805 C 206.180 72.941,208.457 72.074,212.755 72.264 C 215.120 72.369,216.235 72.653,217.732 73.530 M118.339 80.204 C 116.153 80.708,114.170 82.184,113.050 84.139 L 112.000 85.973 111.881 119.530 L 111.762 153.087 110.601 153.363 C 109.962 153.515,107.616 154.532,105.387 155.623 C 101.963 157.299,100.734 158.208,97.477 161.470 C 94.258 164.695,93.288 166.003,91.609 169.387 C 88.215 176.226,87.258 182.291,88.472 189.256 C 90.735 202.235,99.703 211.826,112.627 215.089 C 115.658 215.854,117.067 215.968,121.373 215.793 C 130.010 215.441,136.462 212.622,142.542 206.542 C 148.561 200.523,151.428 194.017,151.793 185.553 C 152.060 179.333,151.270 175.369,148.699 170.027 C 145.174 162.700,138.666 156.754,131.308 154.136 L 128.002 152.960 128.001 119.773 C 128.000 83.559,128.086 84.887,125.560 82.250 C 123.969 80.589,120.695 79.661,118.339 80.204 M126.972 169.725 C 130.301 171.405,133.594 174.962,134.858 178.241 C 136.325 182.050,136.196 186.804,134.526 190.371 C 132.228 195.283,128.766 198.211,123.735 199.500 C 116.713 201.299,109.191 197.731,105.673 190.933 C 104.455 188.579,104.347 188.031,104.334 184.107 C 104.322 180.553,104.482 179.489,105.288 177.741 C 107.233 173.524,110.608 170.411,114.901 168.873 C 118.348 167.639,123.569 168.007,126.972 169.725 " stroke="none" fill-rule="evenodd"></path></svg>