<svg fill="currentColor" viewBox="0 0 256 256" xmlns="http://www.w3.org/2000/svg"><path d="M59.203 32.437 C 55.798 33.017,51.969 34.475,48.409 36.545 C 43.894 39.170,36.927 46.130,33.311 51.627 C 12.146 83.800,10.069 143.463,28.827 180.480 C 33.198 189.105,38.234 195.735,43.879 200.294 C 56.632 210.594,71.979 210.455,84.541 199.926 C 87.849 197.153,92.136 192.325,94.411 188.808 L 95.787 186.683 96.000 199.261 L 96.213 211.840 97.407 214.400 C 98.974 217.760,102.261 221.060,105.555 222.583 L 108.160 223.787 168.107 223.787 L 228.053 223.787 230.400 222.672 C 235.415 220.290,238.833 215.791,239.786 210.316 C 240.140 208.283,240.223 193.979,240.088 158.052 C 239.930 115.823,239.801 107.745,239.208 102.834 C 236.431 79.820,230.148 61.538,220.580 48.631 C 217.450 44.409,211.388 38.782,207.532 36.518 C 205.677 35.429,202.624 34.015,200.747 33.376 L 197.333 32.213 129.280 32.152 C 91.851 32.119,60.316 32.247,59.203 32.437 M70.170 49.677 C 73.155 51.141,78.373 56.120,80.934 59.947 C 94.496 80.216,99.530 116.479,93.192 148.253 C 88.496 171.798,77.482 189.569,66.302 191.642 C 53.677 193.982,40.350 175.698,34.841 148.480 C 32.875 138.766,32.250 131.767,32.267 119.680 C 32.289 104.475,33.621 94.380,37.280 81.686 C 41.946 65.500,50.724 52.361,59.077 49.064 C 62.307 47.789,66.832 48.039,70.170 49.677 M198.132 49.657 C 206.808 53.917,215.242 67.784,219.748 85.196 C 221.680 92.661,223.573 105.074,223.573 110.277 L 223.573 112.213 214.813 112.213 C 205.018 112.213,204.145 112.396,201.934 114.914 C 198.667 118.636,199.979 124.916,204.480 127.095 C 206.200 127.928,207.053 128.000,215.175 128.000 L 224.000 128.000 224.000 168.107 L 224.000 208.213 168.107 208.213 L 112.213 208.213 112.213 168.107 L 112.213 128.000 120.853 127.991 C 128.312 127.983,129.729 127.874,131.218 127.198 C 137.024 124.561,137.645 116.812,132.321 113.436 L 130.393 112.213 121.168 112.213 L 111.944 112.213 111.412 105.920 C 109.622 84.738,103.686 65.357,94.897 51.998 C 93.626 50.067,92.587 48.423,92.587 48.345 C 92.587 48.267,115.771 48.253,144.107 48.315 L 195.627 48.427 198.132 49.657 M61.013 108.320 C 57.480 109.483,54.651 111.819,53.059 114.886 C 52.665 115.645,52.252 117.661,52.141 119.364 C 51.957 122.207,52.055 122.694,53.325 125.273 C 55.489 129.670,58.945 131.775,64.000 131.775 C 69.055 131.775,72.511 129.670,74.675 125.273 C 75.945 122.694,76.043 122.207,75.859 119.364 C 75.555 114.691,73.431 111.408,69.380 109.356 C 67.077 108.188,62.960 107.679,61.013 108.320 M155.679 113.436 C 150.355 116.812,150.976 124.561,156.782 127.198 C 158.289 127.882,159.716 127.982,168.079 127.991 C 176.972 127.999,177.783 127.936,179.520 127.095 C 182.373 125.714,183.680 123.439,183.680 119.857 C 183.680 117.292,183.540 116.811,182.370 115.346 C 179.959 112.330,179.426 112.215,167.870 112.214 L 157.607 112.213 155.679 113.436 " stroke="none" fill-rule="evenodd"></path></svg>