<svg fill="currentColor" viewBox="0 0 256 256" xmlns="http://www.w3.org/2000/svg"><path d="M59.733 32.478 C 47.475 33.887,36.559 38.289,26.499 45.879 C 21.948 49.313,17.309 53.920,16.646 55.665 C 16.034 57.275,16.110 60.372,16.801 61.987 C 17.124 62.742,17.940 63.876,18.614 64.508 C 19.567 65.400,54.681 81.082,75.474 89.901 L 76.921 90.515 72.525 91.990 C 61.336 95.744,50.189 103.079,42.390 111.820 C 33.422 121.870,27.834 133.178,25.107 146.793 C 23.340 155.614,23.843 168.948,26.261 177.385 C 27.708 182.434,32.365 185.078,36.950 183.455 C 37.630 183.214,56.523 169.048,78.933 151.974 L 119.680 120.931 119.893 173.639 C 120.091 222.370,120.162 226.447,120.838 227.683 C 122.172 230.120,125.384 232.102,128.000 232.102 C 130.616 232.102,133.828 230.120,135.162 227.683 C 135.838 226.447,135.909 222.370,136.107 173.639 L 136.320 120.931 177.067 151.974 C 199.477 169.048,218.370 183.214,219.050 183.455 C 223.635 185.079,228.293 182.433,229.738 177.385 C 232.433 167.963,232.744 155.713,230.556 145.067 C 225.538 120.651,207.156 99.935,183.449 91.982 C 179.518 90.662,179.143 90.452,180.074 90.086 C 180.649 89.859,193.504 84.282,208.640 77.691 C 232.881 67.137,236.347 65.512,237.731 64.049 C 239.895 61.762,240.456 59.507,239.597 56.551 C 239.018 54.560,238.421 53.785,234.884 50.438 C 220.946 37.247,202.111 30.643,183.292 32.347 C 166.699 33.850,152.313 40.701,140.630 52.666 C 136.990 56.393,131.867 63.188,129.781 67.053 C 128.919 68.651,128.117 69.956,128.000 69.954 C 127.883 69.951,126.965 68.458,125.960 66.636 C 123.316 61.841,118.992 56.268,114.317 51.627 C 99.861 37.275,79.661 30.189,59.733 32.478 M79.485 49.640 C 97.598 54.381,111.888 68.581,117.551 87.463 C 118.080 89.225,118.446 90.739,118.366 90.828 C 118.285 90.917,100.435 83.247,78.699 73.783 C 43.263 58.355,39.259 56.516,39.962 55.987 C 41.639 54.725,47.584 51.962,51.327 50.705 C 57.340 48.685,60.739 48.228,68.480 48.397 C 74.108 48.520,76.041 48.738,79.485 49.640 M197.124 48.806 C 203.007 49.761,212.610 53.407,216.038 55.987 C 216.741 56.516,212.750 58.350,177.424 73.729 C 155.756 83.163,137.897 90.881,137.740 90.881 C 137.295 90.880,139.028 85.130,140.585 81.438 C 147.845 64.224,162.660 52.023,180.154 48.852 C 184.296 48.101,192.644 48.079,197.124 48.806 M104.107 104.744 C 106.336 105.092,109.066 105.619,110.173 105.915 L 112.187 106.453 76.253 133.823 L 40.320 161.192 40.188 158.143 C 39.812 149.437,44.030 136.470,50.005 127.962 C 52.951 123.767,58.355 118.212,62.507 115.110 C 66.721 111.961,74.886 107.915,80.000 106.442 C 87.951 104.152,96.466 103.552,104.107 104.744 M168.107 104.727 C 180.439 106.600,190.931 111.914,199.680 120.718 C 209.684 130.786,215.082 142.870,215.786 156.776 L 216.022 161.445 214.914 160.616 C 214.304 160.160,198.062 147.787,178.820 133.120 L 143.835 106.453 145.838 105.912 C 152.345 104.151,161.207 103.679,168.107 104.727 " stroke="none" fill-rule="evenodd"></path></svg>