<svg fill="currentColor" viewBox="0 0 256 256" xmlns="http://www.w3.org/2000/svg"><path d="M116.449 16.841 C 91.787 20.853,70.246 36.693,59.803 58.497 C 57.981 62.301,57.652 62.728,55.893 63.579 C 48.069 67.363,39.194 74.336,33.362 81.280 C 14.469 103.780,10.690 134.074,23.570 159.787 C 31.324 175.265,45.095 188.177,60.587 194.494 C 70.174 198.404,77.547 199.849,87.893 199.847 C 98.247 199.844,105.883 198.389,114.773 194.722 C 116.768 193.899,118.731 193.121,119.135 192.993 C 119.822 192.775,119.877 194.095,119.988 213.393 C 120.103 233.375,120.135 234.081,120.999 235.733 C 123.842 241.173,132.158 241.173,135.001 235.733 C 135.865 234.081,135.897 233.375,136.012 213.393 C 136.123 194.095,136.178 192.775,136.865 192.993 C 137.269 193.121,139.232 193.899,141.227 194.722 C 150.117 198.389,157.753 199.844,168.107 199.847 C 183.635 199.850,196.608 195.691,209.691 186.515 C 213.613 183.765,220.986 176.806,223.969 173.040 C 244.820 146.715,245.353 111.348,225.304 84.578 C 219.083 76.272,209.032 67.896,200.107 63.579 C 198.348 62.728,198.019 62.301,196.197 58.497 C 186.335 37.907,166.394 22.488,143.147 17.476 C 137.598 16.280,122.159 15.913,116.449 16.841 M139.733 33.228 C 151.350 35.670,160.886 40.722,169.427 48.958 C 174.899 54.235,178.386 59.022,181.897 66.081 C 185.349 73.019,186.888 74.691,192.698 77.819 C 198.891 81.152,202.138 83.489,206.654 87.864 C 215.121 96.067,220.331 105.486,222.781 117.020 C 224.088 123.174,224.088 132.826,222.781 138.980 C 218.280 160.170,202.573 176.813,182.040 182.149 C 176.719 183.532,171.797 184.024,165.760 183.777 C 155.414 183.354,146.980 180.751,138.133 175.251 L 136.107 173.991 136.107 153.446 L 136.107 132.900 158.329 121.810 C 182.071 109.962,183.089 109.329,183.708 106.025 C 184.474 101.946,182.809 98.336,179.463 96.816 C 175.813 95.159,175.765 95.176,155.316 105.387 C 144.978 110.549,136.433 114.773,136.329 114.773 C 136.224 114.773,136.083 108.183,136.016 100.128 L 135.893 85.483 134.720 83.710 C 131.569 78.951,124.430 78.952,121.280 83.710 L 120.107 85.484 119.991 112.075 C 119.927 126.701,119.787 138.667,119.681 138.667 C 119.575 138.667,111.179 134.524,101.024 129.460 C 89.591 123.759,81.899 120.168,80.825 120.028 C 79.575 119.865,78.455 120.075,76.820 120.779 C 72.232 122.752,70.644 128.086,73.365 132.377 C 74.608 134.337,74.893 134.496,97.258 145.692 L 119.893 157.022 119.893 165.520 L 119.893 174.018 117.440 175.501 C 111.462 179.115,105.706 181.410,98.888 182.897 C 93.876 183.990,81.863 183.979,76.800 182.877 C 65.581 180.434,55.767 175.023,47.887 166.933 C 40.525 159.375,35.559 150.094,33.220 139.520 C 31.917 133.629,31.820 122.918,33.020 117.356 C 36.851 99.594,47.567 85.701,63.690 77.595 C 68.798 75.026,70.358 73.342,73.561 66.936 C 76.804 60.451,79.152 56.820,82.846 52.578 C 92.676 41.288,106.186 34.285,122.027 32.266 C 125.247 31.856,135.980 32.439,139.733 33.228 " stroke="none" fill-rule="evenodd"></path></svg>