<svg fill="currentColor" viewBox="0 0 256 256" xmlns="http://www.w3.org/2000/svg"><path d="M124.800 8.714 C 124.096 9.030,122.828 10.031,121.983 10.938 C 119.390 13.719,40.981 115.942,40.530 117.130 C 39.136 120.795,40.948 125.385,44.460 127.085 C 46.259 127.956,46.942 128.000,58.801 128.000 C 65.650 128.000,71.253 128.101,71.253 128.225 C 71.253 128.349,60.850 141.837,48.134 158.199 C 35.419 174.560,24.771 188.619,24.473 189.440 C 23.795 191.308,23.776 192.199,24.369 194.337 C 24.973 196.512,27.488 199.027,29.663 199.631 C 30.851 199.961,44.646 200.103,75.627 200.104 L 119.893 200.107 119.903 220.693 C 119.911 239.821,119.968 241.401,120.702 242.987 C 123.759 249.588,132.241 249.588,135.298 242.987 C 136.032 241.401,136.089 239.821,136.097 220.693 L 136.107 200.107 180.373 200.104 C 211.354 200.103,225.149 199.961,226.337 199.631 C 228.512 199.027,231.027 196.512,231.631 194.337 C 232.224 192.199,232.205 191.308,231.526 189.440 C 231.228 188.619,220.580 174.565,207.865 158.209 C 195.150 141.853,184.747 128.365,184.747 128.235 C 184.747 128.106,190.350 128.000,197.199 128.000 C 209.016 128.000,209.746 127.954,211.520 127.095 C 214.865 125.476,216.767 120.880,215.544 117.372 C 215.099 116.095,137.012 14.151,134.017 10.937 C 133.172 10.030,131.862 9.022,131.107 8.697 C 129.383 7.956,126.473 7.964,124.800 8.714 M159.744 70.484 C 177.016 92.942,191.147 111.422,191.147 111.551 C 191.147 111.681,185.902 111.787,179.491 111.787 C 166.626 111.787,164.508 112.091,162.459 114.230 C 160.172 116.617,159.402 120.216,160.582 123.000 C 160.902 123.756,171.547 137.717,184.238 154.027 L 207.313 183.680 167.657 183.789 C 145.845 183.849,110.152 183.849,88.338 183.789 L 48.677 183.680 71.906 153.839 C 84.681 137.426,95.351 123.340,95.617 122.536 C 96.397 120.171,95.891 117.115,94.416 115.290 C 91.769 112.016,91.773 112.016,77.521 111.865 C 70.525 111.790,64.861 111.570,64.934 111.375 C 65.239 110.561,127.810 29.465,128.064 29.555 C 128.217 29.609,142.473 48.027,159.744 70.484 " stroke="none" fill-rule="evenodd"></path></svg>