<svg fill="currentColor" viewBox="0 0 256 256" xmlns="http://www.w3.org/2000/svg"><path d="M124.139 24.326 C 118.746 25.165,113.455 28.072,109.710 32.252 C 108.003 34.156,96.952 52.998,64.563 109.227 C 40.976 150.176,20.750 185.408,19.617 187.520 C 16.938 192.514,16.109 195.494,16.123 200.071 C 16.156 210.615,22.695 219.347,33.280 222.981 C 35.552 223.761,38.561 223.787,128.000 223.787 L 220.373 223.787 223.228 222.800 C 233.172 219.364,239.907 210.111,239.854 199.957 C 239.829 195.437,238.941 192.242,236.394 187.520 C 235.255 185.408,215.028 150.176,191.445 109.227 C 144.840 28.304,146.540 31.040,140.751 27.615 C 135.875 24.731,129.564 23.482,124.139 24.326 M131.627 40.913 C 132.565 41.346,133.750 42.158,134.259 42.717 C 135.224 43.778,221.831 193.921,223.199 196.907 C 223.629 197.845,223.981 199.189,223.981 199.893 C 223.981 202.659,221.397 206.331,218.746 207.333 C 217.911 207.648,190.217 207.787,127.959 207.787 C 53.682 207.787,38.137 207.688,36.993 207.210 C 33.800 205.876,31.450 201.507,32.271 198.431 C 32.738 196.683,120.262 44.375,121.753 42.717 C 123.071 41.251,125.784 40.125,128.000 40.125 C 129.056 40.125,130.688 40.480,131.627 40.913 " stroke="none" fill-rule="evenodd"></path></svg>