<svg fill="currentColor" viewBox="0 0 256 256" xmlns="http://www.w3.org/2000/svg"><path d="M44.265 32.461 C 39.776 33.526,35.661 36.951,33.540 41.387 L 32.213 44.160 32.213 120.107 L 32.213 196.053 33.328 198.400 C 35.659 203.308,40.155 206.787,45.412 207.750 C 46.804 208.005,51.556 208.213,55.972 208.213 L 64.000 208.213 64.000 224.932 C 64.000 241.097,64.030 241.713,64.905 243.520 C 66.458 246.727,70.168 248.432,74.022 247.709 C 75.238 247.481,80.564 243.255,99.098 227.816 L 122.631 208.213 143.769 208.211 C 155.452 208.209,166.042 208.022,167.445 207.793 C 168.841 207.564,170.953 206.895,172.138 206.306 C 174.092 205.335,214.810 171.808,219.223 167.537 C 220.233 166.560,221.673 164.516,222.423 162.996 L 223.787 160.231 223.787 102.196 L 223.787 44.160 222.583 41.555 C 221.060 38.261,217.760 34.974,214.400 33.407 L 211.840 32.213 128.853 32.147 C 81.512 32.109,45.179 32.244,44.265 32.461 M207.787 102.295 L 207.787 156.376 186.560 174.081 L 165.333 191.787 142.080 192.000 L 118.827 192.213 116.446 193.330 C 114.866 194.071,108.441 199.133,97.355 208.370 C 88.164 216.028,80.561 222.293,80.458 222.293 C 80.356 222.293,80.211 216.773,80.136 210.027 C 79.990 196.818,79.931 196.454,77.581 194.260 C 75.305 192.135,74.306 192.000,60.814 192.000 L 48.213 192.000 48.213 120.107 L 48.213 48.213 128.000 48.213 L 207.787 48.213 207.787 102.295 M118.339 80.204 C 116.153 80.708,114.170 82.184,113.050 84.139 L 112.000 85.973 112.000 112.000 L 112.000 138.027 113.131 139.951 C 115.808 144.504,122.235 145.335,125.740 141.581 C 128.021 139.138,128.000 139.416,128.000 112.000 C 128.000 84.308,128.044 84.843,125.560 82.250 C 123.969 80.589,120.695 79.661,118.339 80.204 M165.854 80.409 C 163.438 81.040,161.884 82.358,160.806 84.693 C 160.069 86.292,160.018 88.021,160.009 111.907 C 159.999 139.429,159.977 139.136,162.260 141.581 C 165.765 145.335,172.192 144.504,174.869 139.951 L 176.000 138.027 176.000 112.000 L 176.000 85.973 174.869 84.049 C 172.983 80.841,169.536 79.450,165.854 80.409 " stroke="none" fill-rule="evenodd"></path></svg>