<svg fill="currentColor" viewBox="0 0 256 256" xmlns="http://www.w3.org/2000/svg"><path d="M44.265 32.461 C 39.776 33.526,35.661 36.951,33.540 41.387 L 32.213 44.160 32.213 128.000 L 32.213 211.840 33.407 214.400 C 34.974 217.760,38.261 221.060,41.555 222.583 L 44.160 223.787 128.000 223.787 L 211.840 223.787 214.445 222.583 C 217.739 221.060,221.026 217.760,222.593 214.400 L 223.787 211.840 223.787 128.000 L 223.787 44.160 222.583 41.555 C 221.060 38.261,217.760 34.974,214.400 33.407 L 211.840 32.213 128.853 32.147 C 81.512 32.109,45.179 32.244,44.265 32.461 M207.787 128.000 L 207.787 207.787 206.040 207.787 C 204.678 207.787,204.246 207.607,204.080 206.970 C 203.390 204.332,199.912 196.593,197.620 192.597 C 189.364 178.204,178.189 167.707,163.123 160.193 L 157.926 157.602 160.644 155.171 C 162.138 153.834,164.626 151.062,166.172 149.010 C 184.273 124.984,176.394 90.705,149.664 77.188 C 142.565 73.598,136.296 72.136,128.000 72.136 C 119.704 72.136,113.435 73.598,106.336 77.188 C 85.932 87.506,75.763 110.441,81.727 132.693 C 83.867 140.678,89.453 149.891,95.356 155.171 L 98.074 157.602 92.877 160.193 C 77.829 167.697,66.592 178.241,58.413 192.531 C 56.093 196.583,52.611 204.327,51.920 206.970 C 51.754 207.607,51.322 207.787,49.960 207.787 L 48.213 207.787 48.213 128.000 L 48.213 48.213 128.000 48.213 L 207.787 48.213 207.787 128.000 M135.565 88.993 C 144.156 90.902,152.252 97.341,156.335 105.510 C 159.067 110.975,159.751 113.903,159.743 120.107 C 159.736 125.921,159.068 129.021,156.798 133.773 C 152.931 141.866,145.843 147.907,136.960 150.681 C 134.268 151.521,132.845 151.680,128.000 151.680 C 121.701 151.680,118.385 150.949,113.506 148.486 C 105.675 144.533,99.373 136.703,97.018 128.000 C 95.990 124.200,95.963 115.994,96.965 112.213 C 98.128 107.825,101.293 101.947,104.200 98.775 C 112.397 89.828,123.602 86.334,135.565 88.993 M140.849 169.354 C 160.324 173.530,175.916 185.449,184.913 203.038 C 186.229 205.612,187.307 207.830,187.307 207.966 C 187.307 208.102,160.619 208.213,128.000 208.213 C 95.381 208.213,68.693 208.102,68.693 207.966 C 68.693 207.830,69.771 205.612,71.087 203.038 C 75.070 195.251,80.444 188.395,86.550 183.310 C 96.076 175.377,106.239 170.742,118.479 168.746 C 123.844 167.872,135.400 168.186,140.849 169.354 " stroke="none" fill-rule="evenodd"></path></svg>