<svg fill="currentColor" viewBox="0 0 256 256" xmlns="http://www.w3.org/2000/svg"><path d="M101.547 32.284 C 90.620 33.362,79.295 37.501,69.529 43.984 C 63.825 47.771,55.697 55.987,51.690 62.016 C 46.523 69.790,42.977 78.388,41.105 87.680 C 40.022 93.057,40.014 106.548,41.090 112.000 C 44.593 129.743,53.994 144.664,68.172 154.986 C 70.115 156.400,71.651 157.607,71.586 157.669 C 71.520 157.730,69.163 158.687,66.347 159.797 C 54.059 164.638,43.043 171.235,32.826 179.874 C 27.863 184.070,17.770 194.611,16.826 196.584 C 13.878 202.746,19.496 209.535,26.085 207.775 C 27.677 207.349,28.869 206.321,34.322 200.669 C 44.359 190.266,52.952 183.837,64.213 178.307 C 73.789 173.604,82.123 170.968,93.300 169.107 C 99.088 168.144,115.499 168.017,121.387 168.889 C 138.851 171.477,154.246 177.861,168.107 188.264 C 172.928 191.882,179.510 197.950,183.305 202.275 C 187.312 206.842,189.029 207.952,192.025 207.913 C 197.208 207.846,201.045 202.942,199.717 198.084 C 198.391 193.231,183.571 179.034,171.733 171.277 C 163.679 165.998,153.283 160.763,146.362 158.500 L 144.030 157.737 145.075 157.055 C 151.635 152.774,159.993 144.561,164.221 138.240 C 170.867 128.304,174.744 117.331,175.837 105.359 C 176.885 93.895,174.420 80.932,169.142 70.148 C 157.658 46.680,133.380 31.675,107.531 32.068 C 105.061 32.106,102.368 32.203,101.547 32.284 M116.744 48.864 C 123.827 50.081,131.398 53.133,137.501 57.231 C 141.129 59.667,148.747 67.397,151.117 71.048 C 157.141 80.326,159.761 89.136,159.744 100.053 C 159.725 111.877,156.425 121.923,149.564 131.041 C 139.099 144.951,123.141 152.513,105.842 151.762 C 81.462 150.704,61.523 133.418,56.915 109.344 C 55.863 103.848,55.963 95.285,57.146 89.600 C 61.467 68.837,78.037 52.651,98.815 48.899 C 103.364 48.077,112.065 48.060,116.744 48.864 M211.831 101.279 C 209.213 102.885,208.143 105.173,207.884 109.712 L 207.668 113.506 205.914 114.301 C 204.949 114.738,203.307 115.680,202.263 116.393 L 200.367 117.691 197.357 116.040 C 193.139 113.727,191.349 113.512,188.380 114.965 C 185.440 116.403,183.893 118.745,183.893 121.758 C 183.893 125.451,185.596 127.790,190.150 130.349 L 192.213 131.509 192.168 136.009 L 192.123 140.509 189.257 142.216 C 185.350 144.545,184.181 146.160,183.991 149.491 C 183.815 152.578,184.615 154.375,187.038 156.336 C 188.273 157.336,189.126 157.638,191.118 157.782 C 193.429 157.949,193.913 157.817,197.007 156.168 L 200.378 154.372 203.103 156.133 C 204.602 157.102,206.269 158.005,206.808 158.140 C 207.689 158.361,207.787 158.635,207.787 160.879 C 207.787 166.673,209.452 169.928,213.135 171.335 C 216.737 172.711,220.495 171.478,222.758 168.178 C 223.627 166.911,223.810 166.059,223.935 162.685 L 224.083 158.692 226.282 157.592 C 227.491 156.986,229.130 156.003,229.925 155.406 L 231.369 154.322 234.831 156.101 C 238.819 158.151,241.027 158.375,243.837 157.015 C 245.961 155.986,247.283 154.298,247.967 151.741 C 248.980 147.955,247.018 144.585,242.285 141.979 L 239.877 140.653 239.889 136.056 L 239.902 131.459 242.663 129.844 C 245.932 127.932,247.275 126.457,247.917 124.073 C 249.059 119.829,246.532 115.474,242.259 114.323 C 239.868 113.679,237.964 114.112,234.537 116.078 L 231.635 117.743 229.626 116.365 C 228.522 115.607,226.804 114.622,225.809 114.175 L 224.000 113.364 223.991 109.909 C 223.979 105.733,223.100 103.485,220.787 101.721 C 219.470 100.717,218.689 100.477,216.367 100.364 C 213.971 100.247,213.288 100.385,211.831 101.279 M218.781 128.660 C 220.890 129.541,222.240 130.841,223.194 132.907 C 225.289 137.446,222.644 142.606,217.646 143.729 C 216.624 143.958,215.572 144.081,215.307 144.002 C 215.043 143.923,214.302 143.743,213.661 143.603 C 212.236 143.291,209.670 141.099,208.832 139.478 C 208.492 138.820,208.213 137.305,208.213 136.111 C 208.213 130.278,213.587 126.490,218.781 128.660 " stroke="none" fill-rule="evenodd"></path></svg>