<svg fill="currentColor" viewBox="0 0 256 256" xmlns="http://www.w3.org/2000/svg"><path d="M74.956 24.319 C 64.242 25.657,53.124 32.484,46.995 41.489 C 44.899 44.568,42.354 50.170,41.324 53.973 C 39.950 59.045,39.943 68.754,41.309 73.785 C 43.121 80.456,46.590 86.748,50.904 91.189 C 52.095 92.416,52.985 93.493,52.882 93.584 C 52.778 93.674,51.066 94.563,49.076 95.558 C 40.201 99.997,32.051 106.771,25.928 114.798 C 22.591 119.173,23.931 124.994,28.782 127.198 C 32.823 129.033,35.699 127.880,40.212 122.616 C 50.100 111.081,62.956 104.809,77.867 104.245 C 94.459 103.617,109.125 110.079,119.941 122.781 C 123.217 126.628,125.314 127.981,128.000 127.981 C 130.737 127.981,132.767 126.641,136.256 122.529 C 145.797 111.283,159.128 104.802,173.867 104.245 C 190.459 103.617,205.125 110.079,215.941 122.781 C 220.269 127.864,223.213 129.017,227.218 127.198 C 231.251 125.366,232.936 121.107,231.314 116.850 C 230.617 115.022,224.585 108.129,220.851 104.893 C 216.003 100.692,207.226 95.066,203.520 93.783 C 203.047 93.620,203.458 92.962,205.098 91.261 C 207.780 88.479,208.449 87.602,210.512 84.164 C 217.734 72.130,217.644 55.371,210.292 43.352 C 204.870 34.488,195.374 27.537,185.387 25.121 C 180.487 23.936,171.977 23.836,167.467 24.911 C 152.365 28.510,141.706 38.802,137.286 54.052 C 136.452 56.932,136.325 58.318,136.356 64.213 C 136.388 70.332,136.510 71.429,137.532 74.790 C 139.501 81.263,142.476 86.510,146.751 91.048 C 148.499 92.904,148.952 93.621,148.480 93.784 C 145.266 94.893,136.960 100.069,132.971 103.450 C 131.575 104.632,129.895 106.039,129.237 106.575 L 128.041 107.549 124.074 104.223 C 119.761 100.607,114.861 97.331,110.507 95.153 C 108.981 94.390,107.660 93.699,107.571 93.618 C 107.482 93.537,108.365 92.360,109.534 91.002 C 112.820 87.184,114.648 84.444,116.311 80.845 C 121.205 70.253,121.223 57.785,116.358 47.257 C 110.097 33.705,96.997 24.919,81.920 24.159 C 79.691 24.047,76.557 24.119,74.956 24.319 M87.970 41.497 C 91.826 42.907,94.661 44.802,97.495 47.862 C 101.681 52.383,103.782 57.776,103.782 64.000 C 103.782 70.680,101.517 76.074,96.687 80.896 C 87.263 90.306,72.737 90.306,63.313 80.896 C 54.119 71.716,53.713 57.484,62.375 47.987 C 65.913 44.108,70.791 41.371,75.947 40.373 C 78.617 39.856,85.153 40.467,87.970 41.497 M183.970 41.497 C 191.373 44.204,196.810 50.081,199.054 57.800 C 200.008 61.080,200.008 66.920,199.054 70.200 C 197.116 76.867,192.328 82.658,186.453 85.441 C 176.907 89.963,166.678 88.250,159.313 80.896 C 150.119 71.716,149.713 57.484,158.375 47.987 C 161.913 44.108,166.791 41.371,171.947 40.373 C 174.617 39.856,181.153 40.467,183.970 41.497 M74.027 128.446 C 64.579 129.910,55.175 135.253,49.323 142.484 C 39.431 154.705,37.401 170.593,43.900 184.926 C 45.433 188.307,47.924 192.002,50.771 195.116 L 52.959 197.511 49.583 199.208 C 41.548 203.248,33.605 209.550,27.885 216.421 C 23.461 221.737,22.882 224.874,25.626 228.662 C 27.272 230.934,29.103 231.850,32.000 231.850 C 35.204 231.850,36.515 231.038,39.940 226.931 C 46.980 218.490,56.336 212.562,67.280 209.608 C 71.152 208.562,72.108 208.477,80.000 208.477 C 87.892 208.477,88.848 208.562,92.720 209.608 C 103.664 212.562,113.020 218.490,120.060 226.931 C 123.944 231.588,126.303 232.712,130.064 231.699 C 131.950 231.191,133.136 230.141,137.934 224.736 C 145.251 216.493,157.000 210.301,168.517 208.617 C 174.003 207.814,183.558 208.302,188.720 209.647 C 199.497 212.455,208.994 218.459,216.060 226.931 C 219.100 230.576,220.237 231.416,222.773 231.891 C 228.036 232.879,233.071 227.472,231.707 222.298 C 230.103 216.212,217.714 204.888,206.480 199.240 L 203.012 197.496 205.315 195.068 C 209.523 190.632,212.539 185.290,214.445 178.896 C 215.963 173.807,216.330 165.611,215.273 160.399 C 212.376 146.098,202.380 134.708,188.750 130.175 C 167.834 123.218,145.583 134.123,138.324 154.887 C 136.532 160.015,135.944 164.229,136.224 169.925 C 136.701 179.591,140.235 188.080,146.677 195.040 L 148.963 197.508 145.841 199.077 C 141.119 201.451,136.332 204.636,131.896 208.355 L 127.900 211.706 126.136 209.995 C 122.945 206.899,116.480 202.370,111.721 199.897 L 107.041 197.466 109.333 195.053 C 122.427 181.268,123.618 159.695,112.143 144.134 C 106.730 136.792,98.143 131.165,89.169 129.079 C 85.415 128.206,77.665 127.882,74.027 128.446 M85.951 144.865 C 91.485 146.307,96.881 150.206,100.090 155.084 C 100.866 156.262,102.016 158.763,102.645 160.640 C 105.586 169.408,103.012 179.261,96.133 185.575 C 86.941 194.012,73.059 194.012,63.867 185.575 C 56.988 179.261,54.414 169.408,57.355 160.640 C 57.984 158.763,59.134 156.262,59.910 155.084 C 63.062 150.293,68.479 146.335,73.866 144.886 C 76.914 144.067,82.845 144.057,85.951 144.865 M181.951 144.865 C 187.485 146.307,192.881 150.206,196.090 155.084 C 196.866 156.262,198.016 158.763,198.645 160.640 C 201.586 169.408,199.012 179.261,192.133 185.575 C 182.941 194.012,169.059 194.012,159.867 185.575 C 152.988 179.261,150.414 169.408,153.355 160.640 C 153.984 158.763,155.134 156.262,155.910 155.084 C 159.062 150.293,164.479 146.335,169.866 144.886 C 172.914 144.067,178.845 144.057,181.951 144.865 " stroke="none" fill-rule="evenodd"></path></svg>