<svg fill="currentColor" viewBox="0 0 256 256" xmlns="http://www.w3.org/2000/svg"><path d="M119.467 24.319 C 98.267 26.246,78.794 34.080,62.507 47.232 C 54.236 53.911,43.234 66.281,42.222 70.041 C 41.118 74.139,43.816 78.603,48.093 79.754 C 51.880 80.774,54.342 79.437,58.504 74.105 C 62.547 68.924,70.063 61.521,75.093 57.767 C 106.608 34.246,149.286 34.190,180.693 57.629 C 202.567 73.953,215.870 100.382,215.890 127.554 L 215.893 132.441 210.027 126.638 C 204.059 120.735,202.753 119.885,199.680 119.905 C 197.103 119.922,193.418 122.596,192.454 125.148 C 191.806 126.861,191.893 129.478,192.657 131.307 C 193.647 133.677,217.585 157.570,220.348 158.947 C 222.782 160.160,224.646 160.273,226.894 159.345 C 228.856 158.534,253.957 133.665,255.176 131.324 C 257.076 127.675,255.403 122.872,251.531 120.859 C 249.779 119.948,246.310 119.985,244.480 120.934 C 243.659 121.360,240.569 124.093,237.614 127.006 L 232.242 132.304 231.963 125.352 C 230.870 98.190,220.936 74.581,202.670 55.734 C 186.575 39.127,165.906 28.487,143.278 25.160 C 136.688 24.191,125.299 23.788,119.467 24.319 M119.253 72.732 C 101.053 76.076,86.001 90.160,81.526 108.032 C 77.933 122.382,80.935 137.197,89.830 149.010 C 91.375 151.062,93.853 153.827,95.338 155.154 L 98.037 157.569 92.645 160.240 C 83.658 164.693,76.993 169.578,70.185 176.700 C 68.072 178.911,65.480 181.908,64.425 183.360 C 63.370 184.813,62.365 186.007,62.192 186.014 C 62.019 186.021,60.689 184.539,59.237 182.720 C 47.456 167.960,40.837 149.860,40.241 130.773 L 40.015 123.520 45.714 129.157 C 52.886 136.250,54.970 137.207,59.093 135.298 C 63.345 133.329,65.110 128.924,63.343 124.693 C 62.353 122.323,38.415 98.430,35.652 97.053 C 33.218 95.840,31.354 95.727,29.106 96.655 C 27.144 97.466,2.043 122.335,0.824 124.676 C -1.228 128.619,0.805 133.602,5.219 135.446 C 7.120 136.241,8.093 136.269,10.404 135.594 C 11.765 135.197,13.463 133.805,17.960 129.399 L 23.759 123.716 24.038 130.658 C 24.678 146.620,28.025 160.125,34.748 173.867 C 56.322 217.964,106.274 240.976,153.774 228.701 C 168.579 224.875,183.203 217.413,194.570 207.884 C 203.026 200.795,212.780 189.529,213.731 185.751 C 214.965 180.851,211.078 176.091,205.844 176.091 C 202.701 176.091,201.316 177.045,197.422 181.890 C 195.594 184.165,193.962 186.021,193.795 186.014 C 193.629 186.007,192.630 184.813,191.575 183.360 C 190.520 181.908,187.928 178.911,185.815 176.700 C 179.007 169.578,172.342 164.693,163.355 160.240 L 157.963 157.569 160.662 155.154 C 166.552 149.886,172.206 140.560,174.278 132.693 C 180.181 110.288,170.081 87.513,149.664 77.188 C 145.568 75.117,140.715 73.462,136.533 72.711 C 132.537 71.993,123.213 72.005,119.253 72.732 M135.565 88.993 C 144.156 90.902,152.252 97.341,156.335 105.510 C 159.067 110.975,159.751 113.903,159.743 120.107 C 159.736 125.921,159.068 129.021,156.798 133.773 C 152.931 141.866,145.843 147.907,136.960 150.681 C 134.268 151.521,132.845 151.680,128.000 151.680 C 121.701 151.680,118.385 150.949,113.506 148.486 C 105.675 144.533,99.373 136.703,97.018 128.000 C 95.990 124.200,95.963 115.994,96.965 112.213 C 98.128 107.825,101.293 101.947,104.200 98.775 C 112.397 89.828,123.602 86.334,135.565 88.993 M140.849 169.354 C 151.722 171.686,160.849 176.148,169.527 183.375 C 174.773 187.744,182.548 197.158,181.521 197.899 C 164.622 210.085,147.275 215.893,127.779 215.893 C 108.811 215.893,91.019 209.957,75.115 198.323 L 74.134 197.605 75.137 195.983 C 77.012 192.949,82.330 186.920,85.650 184.063 C 95.342 175.726,105.910 170.795,118.479 168.746 C 123.844 167.872,135.400 168.186,140.849 169.354 " stroke="none" fill-rule="evenodd"></path></svg>