<svg fill="currentColor" viewBox="0 0 256 256" xmlns="http://www.w3.org/2000/svg"><path d="M120.960 24.326 C 100.935 25.586,81.587 32.844,64.891 45.360 C 59.554 49.360,49.234 59.686,45.276 64.986 C 34.512 79.399,27.973 94.882,25.095 112.768 C 23.886 120.283,23.787 134.307,24.890 141.867 C 27.542 160.046,34.293 176.318,45.279 191.014 C 49.299 196.392,59.608 206.701,64.986 210.721 C 79.686 221.710,96.000 228.476,114.133 231.105 C 117.683 231.620,121.936 231.847,128.000 231.847 C 144.598 231.847,158.874 228.583,173.440 221.458 C 184.661 215.968,192.320 210.472,201.396 201.396 C 210.475 192.317,215.974 184.654,221.456 173.440 C 235.707 144.287,235.458 110.173,220.780 81.026 C 214.698 68.950,203.517 55.194,193.067 46.931 C 172.349 30.550,147.221 22.673,120.960 24.326 M142.293 41.148 C 165.080 45.322,183.861 56.578,197.667 74.333 C 215.345 97.070,220.556 128.064,211.351 155.733 C 209.149 162.353,205.479 170.055,201.891 175.583 C 199.304 179.568,194.275 186.036,193.779 186.014 C 193.622 186.007,192.630 184.813,191.575 183.360 C 189.054 179.889,182.734 173.303,178.981 170.236 C 174.309 166.418,169.221 163.166,163.355 160.249 L 157.963 157.569 160.662 155.154 C 166.547 149.891,172.136 140.668,174.273 132.693 C 180.237 110.441,170.068 87.506,149.664 77.188 C 142.565 73.598,136.296 72.136,128.000 72.136 C 121.993 72.136,117.806 72.767,112.946 74.405 C 101.803 78.159,92.424 85.728,86.546 95.711 C 78.503 109.374,77.878 126.731,84.916 141.013 C 87.444 146.145,91.660 151.865,95.338 155.154 L 98.037 157.569 92.645 160.240 C 83.658 164.693,76.993 169.578,70.185 176.700 C 68.072 178.911,65.480 181.908,64.425 183.360 C 63.370 184.813,62.365 186.007,62.192 186.014 C 62.019 186.021,60.689 184.539,59.237 182.720 C 45.056 164.955,38.096 141.095,40.563 118.703 C 44.187 85.806,65.413 58.081,96.267 45.945 C 102.472 43.504,109.914 41.698,119.253 40.367 C 122.371 39.922,138.607 40.473,142.293 41.148 M135.565 88.993 C 144.156 90.902,152.252 97.341,156.335 105.510 C 159.067 110.975,159.751 113.903,159.743 120.107 C 159.736 125.921,159.068 129.021,156.798 133.773 C 152.931 141.866,145.843 147.907,136.960 150.681 C 134.268 151.521,132.845 151.680,128.000 151.680 C 121.701 151.680,118.385 150.949,113.506 148.486 C 105.675 144.533,99.373 136.703,97.018 128.000 C 95.990 124.200,95.963 115.994,96.965 112.213 C 98.128 107.825,101.293 101.947,104.200 98.775 C 112.397 89.828,123.602 86.334,135.565 88.993 M135.969 168.544 C 148.866 170.234,160.802 175.653,170.548 184.242 C 175.664 188.749,182.467 197.228,181.506 197.900 C 169.675 206.170,161.237 210.241,149.914 213.143 C 125.690 219.351,100.090 215.051,79.573 201.327 C 76.992 199.601,74.701 198.058,74.481 197.900 C 73.540 197.221,80.363 188.726,85.452 184.242 C 93.175 177.436,103.569 171.980,113.067 169.747 C 119.555 168.221,129.514 167.698,135.969 168.544 " stroke="none" fill-rule="evenodd"></path></svg>