<svg fill="currentColor" viewBox="0 0 256 256" xmlns="http://www.w3.org/2000/svg"><path d="M36.053 40.505 C 30.344 41.916,25.584 47.035,24.321 53.120 C 24.024 54.556,23.916 78.200,23.993 125.440 L 24.107 195.627 25.461 198.486 C 27.893 203.620,32.228 206.883,37.836 207.802 C 39.202 208.025,43.824 208.210,48.107 208.211 L 55.893 208.213 55.896 216.427 C 55.897 221.102,56.101 225.371,56.369 226.337 C 56.999 228.607,59.497 231.042,61.843 231.674 C 66.116 232.824,70.505 230.389,71.661 226.227 C 71.904 225.354,72.103 220.944,72.104 216.427 L 72.107 208.213 128.000 208.213 L 183.893 208.213 183.896 216.427 C 183.897 220.944,184.096 225.354,184.339 226.227 C 185.495 230.389,189.884 232.824,194.157 231.674 C 196.503 231.042,199.001 228.607,199.631 226.337 C 199.899 225.371,200.103 221.102,200.104 216.427 L 200.107 208.213 207.893 208.211 C 212.176 208.210,216.798 208.025,218.164 207.802 C 223.772 206.883,228.107 203.620,230.539 198.486 L 231.893 195.627 231.893 124.160 L 231.893 52.693 230.867 50.144 C 229.561 46.901,226.312 43.426,222.933 41.659 L 220.373 40.320 128.853 40.255 C 78.517 40.219,36.757 40.331,36.053 40.505 M215.893 87.893 L 215.893 119.893 207.621 119.893 L 199.348 119.893 199.050 118.304 C 198.429 114.995,196.535 109.730,194.635 106.035 C 183.810 84.976,159.008 74.916,136.660 82.517 C 119.663 88.298,107.211 103.098,104.495 120.747 C 103.704 125.890,104.229 135.463,105.573 140.373 C 109.447 154.528,120.164 166.883,133.222 172.247 C 151.089 179.586,170.983 175.998,184.971 162.913 C 191.720 156.599,197.418 146.394,199.050 137.696 L 199.348 136.107 207.621 136.107 L 215.893 136.107 215.893 164.053 L 215.893 192.000 128.000 192.000 L 40.107 192.000 40.107 123.947 L 40.107 55.893 128.000 55.893 L 215.893 55.893 215.893 87.893 M160.213 97.089 C 170.291 99.772,178.794 107.685,182.183 117.536 L 182.994 119.893 174.377 119.892 L 165.760 119.891 164.907 118.560 C 163.630 116.569,159.360 113.579,156.682 112.801 C 152.989 111.727,148.095 112.145,144.853 113.811 C 141.598 115.485,139.035 118.130,137.515 121.387 C 136.470 123.626,136.320 124.454,136.320 128.000 C 136.320 131.564,136.468 132.374,137.546 134.708 C 139.778 139.539,144.253 142.870,149.675 143.737 C 155.204 144.621,161.789 141.943,164.739 137.611 L 165.760 136.112 174.377 136.110 L 182.994 136.107 182.183 138.464 C 178.740 148.473,170.532 156.066,160.000 158.987 C 155.682 160.184,147.518 160.086,143.360 158.787 C 131.965 155.227,123.487 146.375,120.913 135.351 C 120.044 131.627,120.044 124.373,120.913 120.649 C 123.731 108.580,133.769 99.008,146.133 96.600 C 149.775 95.891,156.601 96.128,160.213 97.089 " stroke="none" fill-rule="evenodd"></path></svg>