<svg fill="currentColor" viewBox="0 0 256 256" xmlns="http://www.w3.org/2000/svg"><path d="M44.587 32.806 C 42.612 33.718,41.209 35.120,40.562 36.828 C 39.928 38.499,39.994 41.578,40.697 43.214 C 41.022 43.969,43.624 47.131,46.479 50.240 L 51.670 55.893 41.700 55.893 C 36.217 55.893,30.599 56.103,29.216 56.358 C 22.328 57.631,17.354 62.781,16.198 69.836 C 15.654 73.162,15.654 182.838,16.198 186.164 C 17.117 191.772,20.380 196.107,25.514 198.539 L 28.373 199.893 105.650 200.107 L 182.927 200.320 192.998 211.413 C 199.998 219.124,203.561 222.731,204.681 223.242 C 208.106 224.805,212.158 223.777,214.458 220.762 C 215.869 218.912,216.320 215.212,215.404 213.004 C 214.766 211.466,216.221 213.081,134.827 123.559 C 103.029 88.586,71.686 54.111,65.174 46.946 C 57.300 38.283,52.740 33.598,51.560 32.960 C 49.401 31.792,46.904 31.737,44.587 32.806 M111.046 56.309 C 110.286 56.489,108.990 57.151,108.165 57.780 C 103.387 61.425,104.303 68.785,109.849 71.305 C 111.482 72.047,113.695 72.088,151.781 72.097 L 191.989 72.107 192.101 117.258 L 192.213 162.409 193.242 163.910 C 194.983 166.451,196.882 167.467,199.893 167.467 C 202.047 167.467,202.836 167.255,204.310 166.279 C 206.081 165.108,207.446 162.893,207.983 160.324 C 208.225 159.169,208.445 159.300,226.623 171.418 L 245.018 183.680 247.873 183.680 C 251.438 183.680,253.717 182.368,255.095 179.520 L 256.000 177.651 256.000 128.000 C 256.000 78.935,255.990 78.328,255.132 76.556 C 253.604 73.399,249.966 71.623,246.401 72.292 C 245.397 72.480,238.512 76.809,226.643 84.714 L 208.427 96.846 208.195 82.877 C 207.979 69.858,207.901 68.750,207.042 66.612 C 204.744 60.890,200.616 57.436,194.788 56.359 C 191.865 55.818,113.308 55.771,111.046 56.309 M115.627 126.329 C 142.731 156.141,165.547 181.289,166.329 182.213 L 167.751 183.893 99.875 183.893 L 32.000 183.893 32.000 128.000 L 32.000 72.107 49.173 72.116 L 66.347 72.125 115.627 126.329 M239.685 144.427 L 239.573 160.855 223.893 150.399 L 208.213 139.943 208.213 128.068 L 208.213 116.192 223.893 105.740 L 239.573 95.287 239.685 111.644 C 239.746 120.640,239.746 135.392,239.685 144.427 " stroke="none" fill-rule="evenodd"></path></svg>