<svg fill="currentColor" viewBox="0 0 256 256" xmlns="http://www.w3.org/2000/svg"><path d="M49.280 72.372 C 35.877 74.406,25.435 79.540,16.411 88.533 C 5.878 99.030,0.000 113.018,0.000 127.587 C -0.000 142.760,5.699 156.724,16.203 167.286 C 24.033 175.161,32.034 179.598,44.373 182.910 C 46.955 183.603,52.581 183.664,125.867 183.789 C 213.279 183.938,208.647 184.074,217.517 181.106 C 229.946 176.947,240.271 168.923,247.339 157.929 C 249.693 154.268,252.407 148.277,253.649 144.000 C 262.865 112.259,243.658 80.189,211.200 73.123 C 206.137 72.021,194.124 72.010,189.112 73.103 C 165.933 78.159,149.209 95.344,144.879 118.554 C 143.930 123.638,143.999 132.840,145.026 138.135 C 147.044 148.544,151.704 158.040,158.360 165.303 L 160.929 168.107 128.000 168.107 L 95.071 168.107 97.611 165.334 C 104.436 157.886,109.366 147.644,111.141 137.224 C 111.961 132.411,111.967 123.800,111.154 118.785 C 107.540 96.508,90.417 78.535,67.840 73.325 C 64.295 72.506,52.413 71.897,49.280 72.372 M64.640 89.042 C 78.142 92.034,89.198 101.949,93.703 115.105 C 98.618 129.460,95.101 144.968,84.480 155.780 C 79.134 161.222,73.680 164.512,66.856 166.411 C 47.824 171.710,27.651 162.307,19.609 144.389 C 16.953 138.469,16.427 135.760,16.427 128.000 C 16.427 121.958,16.563 120.489,17.390 117.637 C 19.353 110.865,22.646 105.114,27.282 100.362 C 34.234 93.234,41.677 89.658,52.693 88.150 C 54.872 87.852,61.504 88.347,64.640 89.042 M208.317 88.991 C 223.724 92.181,236.011 104.643,239.167 120.282 C 240.134 125.072,239.840 134.113,238.575 138.465 C 232.296 160.066,210.537 172.367,189.144 166.411 C 182.320 164.512,176.866 161.222,171.520 155.780 C 160.899 144.968,157.382 129.460,162.297 115.105 C 164.392 108.987,167.146 104.637,171.963 99.840 C 178.785 93.046,187.077 89.097,196.480 88.165 C 199.087 87.906,205.106 88.327,208.317 88.991 " stroke="none" fill-rule="evenodd"></path></svg>