<svg fill="currentColor" viewBox="0 0 256 256" xmlns="http://www.w3.org/2000/svg"><path d="M126.293 64.154 C 64.928 77.351,14.196 88.285,13.554 88.453 C 11.956 88.872,9.381 91.216,8.683 92.886 C 7.375 96.017,8.220 99.581,10.809 101.854 C 13.371 104.103,15.114 104.397,19.851 103.381 L 23.893 102.513 23.893 143.151 L 23.893 183.788 18.880 183.976 C 15.420 184.106,13.470 184.375,12.587 184.844 C 6.384 188.138,6.626 196.341,13.013 199.298 C 14.661 200.061,18.638 200.088,128.000 200.088 C 237.362 200.088,241.339 200.061,242.987 199.298 C 246.138 197.839,247.893 195.227,247.893 192.000 C 247.893 189.858,247.262 188.238,245.840 186.735 C 243.804 184.584,242.524 184.179,237.119 183.976 L 232.104 183.788 232.212 120.834 L 232.320 57.881 234.667 57.357 C 235.957 57.069,238.522 56.502,240.365 56.097 C 244.205 55.254,246.250 53.795,247.524 50.990 C 248.580 48.666,248.514 47.061,247.261 44.564 C 245.790 41.634,243.817 40.381,240.483 40.257 C 238.391 40.179,215.509 44.968,126.293 64.154 M215.893 122.667 L 215.893 183.893 203.947 183.893 L 192.000 183.893 191.991 155.200 C 191.982 128.285,191.933 126.400,191.198 124.782 C 190.318 122.845,188.240 120.907,186.527 120.427 C 185.037 120.009,70.963 120.009,69.473 120.427 C 67.760 120.907,65.682 122.845,64.802 124.782 C 64.067 126.400,64.018 128.285,64.009 155.200 L 64.000 183.893 52.053 183.893 L 40.107 183.893 40.107 141.440 C 40.107 118.091,40.155 98.983,40.213 98.978 C 40.272 98.973,79.584 90.542,127.573 80.244 C 175.563 69.945,215.067 61.502,215.360 61.480 C 215.784 61.448,215.893 73.949,215.893 122.667 M175.787 144.000 L 175.787 151.893 128.000 151.893 L 80.213 151.893 80.213 144.000 L 80.213 136.107 128.000 136.107 L 175.787 136.107 175.787 144.000 M175.787 176.000 L 175.787 183.893 128.000 183.893 L 80.213 183.893 80.213 176.000 L 80.213 168.107 128.000 168.107 L 175.787 168.107 175.787 176.000 " stroke="none" fill-rule="evenodd"></path></svg>