<svg fill="currentColor" viewBox="0 0 256 256" xmlns="http://www.w3.org/2000/svg"><path d="M88.376 24.353 C 83.915 25.230,83.775 25.354,54.341 54.778 C 27.704 81.405,26.065 83.130,25.114 85.547 L 24.107 88.107 24.107 128.000 L 24.107 167.893 25.114 170.453 C 26.065 172.870,27.715 174.607,54.554 201.446 C 81.393 228.285,83.130 229.935,85.547 230.886 L 88.107 231.893 128.000 231.893 L 167.893 231.893 170.453 230.886 C 172.870 229.935,174.607 228.285,201.446 201.446 C 228.285 174.607,229.935 172.870,230.886 170.453 L 231.893 167.893 231.893 128.000 L 231.893 88.107 230.886 85.547 C 229.935 83.130,228.296 81.405,201.659 54.778 C 171.880 25.010,172.149 25.248,167.287 24.326 C 164.474 23.793,91.100 23.818,88.376 24.353 M190.185 65.812 L 215.893 91.517 215.893 127.997 L 215.893 164.477 190.188 190.185 L 164.483 215.893 128.003 215.893 L 91.523 215.893 65.815 190.188 L 40.107 164.483 40.107 128.003 L 40.107 91.523 65.812 65.815 L 91.517 40.107 127.997 40.107 L 164.477 40.107 190.185 65.812 M124.308 72.984 C 123.333 73.467,121.990 74.650,121.321 75.614 L 120.107 77.367 120.107 107.980 L 120.107 138.593 121.387 140.405 C 124.700 145.096,131.300 145.096,134.613 140.405 L 135.893 138.593 135.893 107.980 L 135.893 77.367 134.672 75.605 C 132.397 72.322,127.929 71.192,124.308 72.984 M123.898 160.690 C 121.598 161.505,118.887 163.860,117.477 166.268 C 115.781 169.161,115.577 173.602,116.996 176.702 C 121.414 186.351,134.586 186.351,139.004 176.702 C 140.423 173.602,140.219 169.161,138.523 166.268 C 135.486 161.085,129.365 158.751,123.898 160.690 " stroke="none" fill-rule="evenodd"></path></svg>