<svg fill="currentColor" viewBox="0 0 256 256" xmlns="http://www.w3.org/2000/svg"><path d="M44.587 32.806 C 41.476 34.242,40.092 36.482,40.126 40.028 C 40.152 42.741,40.720 43.850,43.888 47.374 C 45.381 49.034,46.533 50.441,46.448 50.500 C 46.363 50.559,44.085 51.724,41.387 53.089 C 32.053 57.811,18.056 66.782,13.168 71.174 C 7.669 76.116,6.482 85.184,10.548 91.185 C 12.535 94.118,116.340 219.113,117.847 220.387 C 118.620 221.041,120.309 222.069,121.600 222.672 C 124.860 224.193,130.435 224.229,134.157 222.752 C 137.639 221.370,139.196 219.715,154.944 200.660 L 168.415 184.360 185.647 203.326 C 198.170 217.109,203.354 222.526,204.615 223.146 C 207.962 224.794,212.144 223.795,214.425 220.805 C 215.869 218.912,216.330 215.238,215.404 213.001 C 215.086 212.234,205.131 200.928,193.280 187.876 C 142.103 131.512,72.074 54.471,68.268 50.347 C 65.994 47.883,61.704 43.179,58.735 39.893 C 55.535 36.354,52.612 33.529,51.560 32.960 C 49.401 31.792,46.904 31.737,44.587 32.806 M115.840 32.431 C 105.903 33.149,93.312 34.893,90.778 35.901 C 89.055 36.587,86.704 39.400,86.372 41.175 C 85.636 45.093,87.347 48.740,90.675 50.351 C 92.894 51.425,92.963 51.423,102.827 49.951 C 111.289 48.689,118.453 48.212,128.809 48.222 C 163.758 48.255,196.374 58.369,225.280 78.136 C 232.309 82.942,231.950 82.615,231.170 83.513 C 226.840 88.499,182.385 142.433,181.759 143.461 C 180.642 145.293,180.612 149.005,181.697 151.047 C 182.132 151.864,183.301 153.109,184.294 153.813 C 185.835 154.905,186.486 155.092,188.730 155.085 C 190.535 155.079,191.781 154.824,192.701 154.273 C 193.941 153.530,242.786 95.111,245.452 91.183 C 249.519 85.190,248.330 76.116,242.832 71.174 C 237.218 66.129,222.162 56.691,210.987 51.212 C 191.151 41.486,170.390 35.506,147.989 33.066 C 140.643 32.265,122.954 31.916,115.840 32.431 M108.330 118.306 L 157.471 172.398 142.842 190.070 C 134.796 199.790,128.117 207.744,128.000 207.745 C 127.759 207.747,24.589 83.350,24.433 82.869 C 24.304 82.472,30.878 77.807,36.907 74.018 C 39.488 72.396,45.248 69.199,49.707 66.915 C 57.292 63.029,57.858 62.808,58.501 63.487 C 58.880 63.887,81.303 88.555,108.330 118.306 " stroke="none" fill-rule="evenodd"></path></svg>