<svg fill="currentColor" viewBox="0 0 256 256" xmlns="http://www.w3.org/2000/svg"><path d="M117.760 32.281 C 92.014 34.048,71.309 39.147,49.280 49.146 C 36.152 55.105,16.602 67.246,12.088 72.242 C 7.487 77.336,6.809 85.667,10.548 91.185 C 12.535 94.118,116.340 219.113,117.847 220.387 C 118.620 221.041,120.309 222.069,121.600 222.672 C 123.578 223.595,124.551 223.766,127.787 223.761 C 132.489 223.755,135.584 222.670,138.440 220.027 C 141.076 217.589,204.229 141.412,205.258 139.430 C 207.880 134.382,203.870 128.000,198.077 128.000 C 194.140 128.000,195.013 127.054,160.427 168.832 C 142.709 190.234,128.117 207.745,128.000 207.746 C 127.843 207.746,42.082 104.491,26.285 85.283 C 23.853 82.324,23.306 83.205,30.720 78.136 C 55.792 60.991,83.377 51.225,114.133 48.604 C 118.010 48.274,124.672 48.177,133.110 48.327 C 145.294 48.545,146.212 48.508,147.698 47.750 C 151.406 45.859,153.009 40.979,151.131 37.300 C 149.300 33.712,147.578 32.982,139.669 32.444 C 133.850 32.048,122.393 31.963,117.760 32.281 M172.587 48.818 C 170.997 49.528,169.160 51.454,168.560 53.041 C 167.897 54.798,168.006 57.868,168.788 59.435 C 169.163 60.186,173.771 65.122,179.029 70.404 L 188.587 80.007 179.171 89.390 C 173.992 94.551,169.384 99.486,168.931 100.356 C 166.198 105.607,170.054 111.909,176.000 111.909 C 177.219 111.909,178.797 111.580,179.637 111.152 C 180.452 110.736,185.396 106.154,190.622 100.970 L 200.124 91.544 209.609 100.984 C 214.825 106.175,219.751 110.752,220.554 111.154 C 222.741 112.249,225.736 112.101,227.978 110.787 C 230.157 109.510,231.048 108.300,231.755 105.658 C 232.765 101.879,232.298 101.182,221.401 90.228 C 216.025 84.824,211.627 80.215,211.627 79.985 C 211.627 79.755,215.949 75.248,221.231 69.970 C 231.443 59.767,232.479 58.351,231.980 55.279 C 231.285 50.993,228.188 48.213,224.109 48.213 C 222.852 48.213,221.210 48.523,220.459 48.902 C 219.708 49.281,214.770 53.887,209.486 59.138 L 199.878 68.685 190.286 59.046 C 185.010 53.745,180.076 49.138,179.320 48.810 C 177.601 48.063,174.270 48.067,172.587 48.818 " stroke="none" fill-rule="evenodd"></path></svg>