<svg fill="currentColor" viewBox="0 0 256 256" xmlns="http://www.w3.org/2000/svg"><path d="M117.760 32.250 C 116.704 32.339,113.440 32.616,110.507 32.864 C 81.862 35.289,52.920 45.048,27.947 60.703 C 21.264 64.892,13.864 70.277,12.088 72.242 C 7.487 77.336,6.809 85.667,10.548 91.185 C 12.535 94.118,116.340 219.113,117.847 220.387 C 118.620 221.041,120.309 222.069,121.600 222.672 C 123.578 223.595,124.551 223.766,127.787 223.761 C 132.625 223.754,135.641 222.656,138.652 219.807 C 139.811 218.711,164.312 189.397,193.098 154.667 C 228.848 111.536,245.793 90.776,246.559 89.173 C 247.526 87.148,247.680 86.270,247.680 82.767 C 247.680 79.042,247.565 78.473,246.280 75.861 C 245.410 74.091,244.106 72.320,242.832 71.174 C 237.218 66.129,222.162 56.691,210.987 51.212 C 191.156 41.489,170.444 35.521,147.989 33.062 C 142.249 32.433,122.008 31.889,117.760 32.250 M147.627 49.043 C 173.070 52.233,196.158 60.095,216.846 72.614 C 222.776 76.203,231.680 82.290,231.680 82.755 C 231.680 82.895,224.792 91.303,216.374 101.440 L 201.068 119.871 198.746 118.209 C 189.398 111.515,174.827 104.495,163.375 101.168 C 150.971 97.564,141.628 96.270,128.000 96.270 C 114.372 96.270,105.029 97.564,92.625 101.168 C 81.319 104.452,67.417 111.107,57.632 117.918 L 54.891 119.826 39.605 101.421 C 31.198 91.299,24.320 82.901,24.320 82.759 C 24.320 82.286,33.209 76.202,39.146 72.612 C 60.117 59.931,85.614 51.346,109.013 49.088 C 111.595 48.839,114.379 48.559,115.200 48.466 C 118.129 48.135,144.065 48.596,147.627 49.043 M139.307 112.646 C 152.427 114.102,164.497 117.699,176.429 123.709 C 182.671 126.852,190.820 131.795,190.611 132.310 C 190.409 132.809,128.210 207.747,128.000 207.747 C 127.787 207.746,65.586 132.809,65.389 132.315 C 65.211 131.870,72.910 127.092,78.307 124.299 C 90.116 118.185,103.225 114.153,116.053 112.689 C 120.611 112.169,134.769 112.143,139.307 112.646 " stroke="none" fill-rule="evenodd"></path></svg>