<svg fill="currentColor" viewBox="0 0 256 256" xmlns="http://www.w3.org/2000/svg"><path d="M154.084 24.342 C 128.493 26.435,106.066 41.977,94.979 65.303 C 86.731 82.654,85.776 101.826,92.243 120.240 C 93.178 122.902,93.877 125.129,93.798 125.190 C 91.487 126.948,33.124 177.708,32.056 178.890 C 28.820 182.467,26.574 186.649,25.097 191.846 C 23.867 196.176,23.780 203.629,24.913 207.762 C 28.713 221.632,40.064 230.966,54.358 231.974 C 62.187 232.527,71.899 228.998,77.658 223.508 C 78.706 222.509,129.337 164.118,130.836 162.179 C 130.907 162.087,132.554 162.598,134.496 163.313 C 144.556 167.021,153.166 168.427,162.987 167.965 C 185.354 166.912,205.875 155.739,218.817 137.566 C 224.415 129.705,229.233 117.985,231.080 107.733 C 232.132 101.894,232.126 90.188,231.068 84.267 C 229.708 76.653,227.242 69.142,225.371 66.919 C 223.084 64.201,219.276 63.336,216.107 64.815 C 215.102 65.284,206.011 73.369,194.005 84.472 L 173.611 103.332 165.015 101.479 L 156.420 99.627 154.564 90.987 L 152.707 82.347 171.548 61.973 C 182.638 49.981,190.716 40.898,191.185 39.893 C 192.161 37.802,192.209 35.887,191.340 33.805 C 189.991 30.577,188.221 29.414,181.546 27.372 C 175.926 25.653,171.809 24.851,165.914 24.330 C 160.613 23.860,159.961 23.861,154.084 24.342 M166.352 40.382 C 167.803 40.534,168.935 40.801,168.868 40.975 C 168.801 41.149,162.118 48.465,154.017 57.233 C 145.916 66.000,138.632 73.994,137.830 74.998 C 135.476 77.945,135.562 79.389,139.052 95.491 C 142.211 110.060,142.711 111.479,145.246 113.045 C 146.843 114.033,173.358 119.893,176.227 119.893 C 177.177 119.893,178.666 119.523,179.537 119.070 C 180.408 118.617,188.704 111.242,197.973 102.681 C 208.975 92.519,214.975 87.258,215.253 87.525 C 216.039 88.281,215.778 102.583,214.903 106.667 C 211.053 124.643,199.868 138.956,183.689 146.607 C 168.657 153.716,150.896 153.595,135.680 146.278 C 128.926 143.030,126.444 143.256,122.408 147.487 C 121.327 148.620,108.401 163.516,93.683 180.589 C 78.965 197.663,66.303 212.105,65.545 212.683 C 62.654 214.888,60.225 215.654,56.107 215.661 C 52.835 215.666,51.906 215.498,49.827 214.530 C 46.426 212.945,43.371 209.948,41.703 206.560 C 40.453 204.021,40.320 203.382,40.320 199.893 C 40.320 196.381,40.448 195.776,41.746 193.138 C 43.421 189.735,40.201 192.667,80.841 157.544 C 96.792 143.759,110.280 131.828,110.815 131.030 C 112.439 128.607,112.186 125.362,110.038 121.090 C 108.064 117.163,105.788 110.480,104.909 106.027 C 104.015 101.495,104.139 89.466,105.127 84.907 C 110.303 61.022,129.275 43.526,153.387 40.400 C 155.639 40.109,163.626 40.097,166.352 40.382 " stroke="none" fill-rule="evenodd"></path></svg>