<svg fill="currentColor" viewBox="0 0 256 256" xmlns="http://www.w3.org/2000/svg"><path d="M44.265 32.461 C 39.776 33.526,35.661 36.951,33.540 41.387 L 32.213 44.160 32.213 128.000 L 32.213 211.840 33.407 214.400 C 34.974 217.760,38.261 221.060,41.555 222.583 L 44.160 223.787 128.000 223.787 L 211.840 223.787 214.445 222.583 C 217.739 221.060,221.026 217.760,222.593 214.400 L 223.787 211.840 223.787 128.000 L 223.787 44.160 222.583 41.555 C 221.060 38.261,217.760 34.974,214.400 33.407 L 211.840 32.213 128.853 32.147 C 81.512 32.109,45.179 32.244,44.265 32.461 M207.787 128.000 L 207.787 207.787 128.000 207.787 L 48.213 207.787 48.213 128.000 L 48.213 48.213 128.000 48.213 L 207.787 48.213 207.787 128.000 M92.800 88.700 C 88.746 90.571,86.920 94.950,88.549 98.894 C 88.989 99.959,93.718 105.000,102.946 114.240 L 116.688 128.000 102.946 141.760 C 88.939 155.786,87.882 157.073,87.903 160.093 C 87.914 161.847,89.167 164.613,90.510 165.846 C 91.843 167.072,94.356 168.107,96.000 168.107 C 98.928 168.107,100.310 166.966,114.240 153.054 L 128.000 139.312 141.760 153.054 C 155.786 167.061,157.073 168.118,160.093 168.097 C 161.847 168.086,164.613 166.833,165.846 165.490 C 167.072 164.157,168.107 161.644,168.107 160.000 C 168.107 157.072,166.966 155.690,153.054 141.760 L 139.312 128.000 153.054 114.240 C 166.966 100.310,168.107 98.928,168.107 96.000 C 168.107 94.356,167.072 91.843,165.846 90.510 C 164.613 89.167,161.847 87.914,160.093 87.903 C 157.073 87.882,155.786 88.939,141.760 102.946 L 128.000 116.688 114.240 102.946 C 105.000 93.718,99.959 88.989,98.894 88.549 C 96.807 87.686,94.893 87.734,92.800 88.700 " stroke="none" fill-rule="evenodd"></path></svg>