<svg fill="currentColor" viewBox="0 0 256 256" xmlns="http://www.w3.org/2000/svg"><path d="M120.960 24.326 C 100.935 25.586,81.587 32.844,64.891 45.360 C 59.554 49.360,49.234 59.686,45.276 64.986 C 34.512 79.399,27.973 94.882,25.095 112.768 C 23.886 120.283,23.787 134.307,24.890 141.867 C 27.542 160.046,34.293 176.318,45.279 191.014 C 49.299 196.392,59.608 206.701,64.986 210.721 C 79.686 221.710,96.000 228.476,114.133 231.105 C 117.683 231.620,121.936 231.847,128.000 231.847 C 144.598 231.847,158.874 228.583,173.440 221.458 C 184.661 215.968,192.320 210.472,201.396 201.396 C 210.475 192.317,215.974 184.654,221.456 173.440 C 235.707 144.287,235.458 110.173,220.780 81.026 C 214.698 68.950,203.517 55.194,193.067 46.931 C 172.349 30.550,147.221 22.673,120.960 24.326 M138.846 41.572 C 157.818 47.222,169.947 65.199,167.678 84.304 C 165.664 101.264,154.172 114.416,137.492 118.850 C 136.144 119.208,132.064 119.697,128.427 119.935 C 120.131 120.478,115.196 121.286,110.440 122.880 C 90.562 129.539,76.353 146.173,72.761 166.989 C 71.116 176.517,72.570 188.887,76.378 197.770 C 76.890 198.966,77.010 199.603,76.687 199.413 C 75.075 198.465,70.810 194.941,67.565 191.877 C 53.408 178.507,44.169 160.745,40.887 140.587 C 40.048 135.431,40.176 119.495,41.101 114.133 C 45.404 89.169,58.764 68.636,80.036 54.295 C 89.526 47.896,104.211 42.377,115.413 40.999 C 117.525 40.739,119.829 40.449,120.533 40.354 C 121.237 40.259,124.789 40.239,128.427 40.310 C 134.109 40.420,135.576 40.598,138.846 41.572 M186.798 62.736 C 196.768 71.600,205.192 83.905,210.108 96.786 C 218.791 119.539,217.552 145.086,206.709 166.874 C 202.044 176.249,197.176 183.024,189.882 190.294 C 173.564 206.559,151.223 215.894,128.640 215.884 C 115.366 215.878,103.868 210.190,95.904 199.688 C 87.478 188.579,85.770 172.443,91.648 159.481 C 93.463 155.476,95.727 152.194,99.198 148.534 C 102.876 144.656,106.330 142.155,111.092 139.924 C 116.485 137.397,120.329 136.540,128.271 136.094 C 132.058 135.882,136.666 135.404,138.511 135.033 C 158.733 130.970,174.625 116.997,181.124 97.567 C 185.308 85.060,184.732 70.151,179.604 58.187 L 178.784 56.275 180.723 57.667 C 181.789 58.433,184.523 60.714,186.798 62.736 M123.372 68.920 C 117.400 71.514,114.395 78.875,116.998 84.537 C 118.476 87.752,119.984 89.373,122.763 90.733 C 127.368 92.986,133.706 91.856,136.747 88.241 C 139.047 85.508,139.718 83.652,139.726 80.000 C 139.732 77.011,139.577 76.304,138.475 74.315 C 137.126 71.881,134.977 69.922,132.531 68.901 C 130.586 68.088,125.263 68.099,123.372 68.920 M124.929 164.416 C 114.175 167.422,112.790 181.840,122.784 186.747 C 132.405 191.472,142.777 182.112,139.284 171.859 C 137.395 166.316,130.649 162.818,124.929 164.416 " stroke="none" fill-rule="evenodd"></path></svg>