<svg viewBox="0 0 24 24" xmlns="http://www.w3.org/2000/svg"><path d="M11.120 2.039 C 8.336 2.318,5.905 3.624,4.193 5.760 C 1.474 9.155,1.267 13.917,3.682 17.533 C 6.770 22.155,12.946 23.386,17.560 20.299 C 22.155 17.225,23.377 11.041,20.299 6.440 C 18.728 4.092,16.319 2.562,13.493 2.119 C 12.909 2.027,11.660 1.985,11.120 2.039 M12.940 8.117 C 14.435 8.486,15.555 9.629,15.905 11.140 C 16.006 11.580,16.006 12.420,15.905 12.860 C 15.564 14.334,14.477 15.467,13.020 15.868 C 12.663 15.966,12.553 15.978,12.000 15.978 C 11.446 15.978,11.338 15.966,10.980 15.868 C 9.563 15.475,8.506 14.413,8.129 13.002 C 8.041 12.671,8.028 12.538,8.028 12.000 C 8.028 11.462,8.041 11.329,8.129 10.998 C 8.319 10.289,8.659 9.698,9.179 9.179 C 9.799 8.558,10.545 8.180,11.423 8.041 C 11.777 7.986,12.569 8.025,12.940 8.117 M11.643 11.069 C 11.291 11.193,11.000 11.614,11.000 12.000 C 11.000 12.527,11.473 13.000,12.000 13.000 C 12.242 13.000,12.521 12.881,12.701 12.701 C 13.454 11.948,12.653 10.712,11.643 11.069 " stroke="none" fill-rule="evenodd" fill="black"></path></svg>