<svg viewBox="0 0 24 24" xmlns="http://www.w3.org/2000/svg"><path d="M2.664 3.063 C 2.436 3.146,2.257 3.297,2.131 3.511 L 2.020 3.700 2.020 12.000 L 2.020 20.300 2.131 20.489 C 2.256 20.702,2.449 20.864,2.670 20.943 C 2.794 20.987,4.433 20.997,11.983 20.998 C 22.269 21.000,21.374 21.028,21.702 20.700 C 22.027 20.375,22.002 21.149,21.990 11.919 L 21.980 3.700 21.869 3.511 C 21.744 3.298,21.551 3.136,21.330 3.057 C 21.098 2.974,2.890 2.980,2.664 3.063 M20.000 6.000 L 20.000 7.000 19.000 7.000 L 18.000 7.000 18.000 6.000 L 18.000 5.000 19.000 5.000 L 20.000 5.000 20.000 6.000 M12.601 7.042 C 13.369 7.136,14.154 7.432,14.824 7.881 C 14.998 7.997,15.313 8.265,15.524 8.476 C 17.687 10.640,17.425 14.175,14.964 16.022 C 14.405 16.441,13.631 16.780,12.900 16.925 C 12.532 16.998,11.468 16.998,11.100 16.925 C 10.425 16.791,9.678 16.478,9.155 16.111 C 8.462 15.624,7.901 14.963,7.517 14.180 C 6.982 13.089,6.864 11.865,7.180 10.680 C 7.309 10.196,7.683 9.433,7.994 9.016 C 9.061 7.588,10.840 6.826,12.601 7.042 M11.503 9.040 C 10.828 9.162,10.156 9.550,9.703 10.080 C 8.987 10.917,8.806 12.100,9.234 13.151 C 9.521 13.857,10.143 14.479,10.849 14.766 C 11.989 15.230,13.251 14.978,14.115 14.115 C 15.238 12.992,15.295 11.212,14.246 10.020 C 13.897 9.624,13.276 9.239,12.756 9.097 C 12.491 9.024,11.770 8.991,11.503 9.040 " stroke="none" fill-rule="evenodd" fill="black"></path></svg>