<svg viewBox="0 0 24 24" xmlns="http://www.w3.org/2000/svg"><path d="M2.110 2.110 L 1.400 2.821 2.481 3.900 L 3.561 4.980 3.149 5.000 C 2.811 5.016,2.702 5.038,2.539 5.122 C 2.313 5.239,2.102 5.491,2.041 5.718 C 2.013 5.822,2.002 8.194,2.010 13.086 L 2.020 20.300 2.131 20.489 C 2.192 20.592,2.301 20.723,2.374 20.778 C 2.685 21.015,2.086 21.000,11.215 21.000 L 19.579 21.000 20.380 21.800 L 21.181 22.600 21.890 21.890 L 22.600 21.180 12.710 11.290 L 2.820 1.400 2.110 2.110 M8.569 3.451 L 8.120 3.901 8.819 4.599 L 9.519 5.298 9.671 5.149 L 9.823 5.000 12.002 5.000 L 14.181 5.000 15.180 6.000 L 16.179 7.000 18.090 7.000 L 20.000 7.000 20.000 11.390 L 20.000 15.781 21.000 16.780 L 22.000 17.779 22.000 11.820 C 22.000 7.838,21.986 5.811,21.958 5.711 C 21.896 5.488,21.684 5.237,21.461 5.122 L 21.262 5.020 19.140 5.009 L 17.017 4.998 16.019 3.999 L 15.021 3.000 12.020 3.000 L 9.019 3.000 8.569 3.451 M6.625 8.045 L 7.671 9.090 7.454 9.409 C 6.824 10.334,6.509 11.364,6.508 12.500 C 6.507 13.158,6.583 13.639,6.779 14.226 C 7.418 16.135,8.936 17.470,10.965 17.908 C 11.434 18.009,12.562 18.009,13.040 17.907 C 13.784 17.749,14.490 17.455,15.076 17.059 L 15.412 16.832 16.496 17.916 L 17.580 19.000 10.790 19.000 L 4.000 19.000 4.000 13.000 L 4.000 7.000 4.790 7.000 L 5.579 7.000 6.625 8.045 M11.449 7.033 L 11.277 7.060 12.490 8.260 C 13.286 9.047,13.783 9.508,13.936 9.600 C 14.263 9.797,14.680 10.216,14.937 10.607 C 15.102 10.859,15.432 11.216,16.296 12.078 C 16.924 12.704,17.449 13.204,17.465 13.189 C 17.480 13.173,17.492 12.877,17.491 12.530 C 17.490 11.577,17.326 10.881,16.900 10.020 C 16.165 8.535,14.685 7.418,13.033 7.100 C 12.670 7.030,11.722 6.990,11.449 7.033 M11.556 12.976 L 13.971 15.391 13.813 15.496 C 13.560 15.664,13.010 15.869,12.620 15.942 C 12.202 16.021,11.523 16.002,11.157 15.902 C 9.899 15.559,8.948 14.615,8.615 13.380 C 8.508 12.982,8.509 12.016,8.616 11.620 C 8.730 11.203,9.030 10.560,9.112 10.560 C 9.127 10.560,10.227 11.647,11.556 12.976 " stroke="none" fill-rule="evenodd" fill="black"></path></svg>