<svg viewBox="0 0 24 24" xmlns="http://www.w3.org/2000/svg"><path d="M2.664 3.063 C 2.436 3.146,2.257 3.297,2.131 3.511 L 2.020 3.700 2.020 12.000 L 2.020 20.300 2.131 20.489 C 2.256 20.702,2.449 20.864,2.670 20.943 C 2.794 20.987,4.433 20.997,11.983 20.998 C 22.267 21.000,21.375 21.028,21.701 20.701 C 22.026 20.376,22.000 21.146,21.998 11.983 C 21.997 5.268,21.987 3.793,21.943 3.670 C 21.864 3.449,21.702 3.256,21.489 3.131 C 21.314 3.028,21.263 3.019,20.800 3.008 L 20.300 2.996 19.154 4.988 L 18.007 6.980 16.859 6.991 C 15.872 7.000,15.714 6.993,15.733 6.944 C 15.753 6.891,17.745 3.429,17.927 3.130 L 18.007 3.000 16.153 3.001 L 14.300 3.002 13.154 4.991 L 12.007 6.980 10.859 6.991 C 9.872 7.000,9.714 6.993,9.733 6.944 C 9.753 6.891,11.745 3.429,11.927 3.130 L 12.007 3.000 10.153 3.001 L 8.300 3.002 7.154 4.991 L 6.007 6.980 4.859 6.991 C 3.872 7.000,3.714 6.993,3.733 6.944 C 3.753 6.891,5.745 3.429,5.927 3.130 L 6.007 3.000 4.413 3.003 C 3.135 3.005,2.789 3.017,2.664 3.063 " stroke="none" fill-rule="evenodd" fill="black"></path></svg>