<svg viewBox="0 0 24 24" xmlns="http://www.w3.org/2000/svg"><path d="M2.664 3.063 C 2.436 3.146,2.257 3.297,2.131 3.511 L 2.020 3.700 2.020 12.000 L 2.020 20.300 2.131 20.489 C 2.260 20.709,2.437 20.854,2.678 20.939 C 2.830 20.993,3.916 21.000,11.998 21.000 C 22.265 21.000,21.375 21.027,21.701 20.701 C 22.026 20.376,22.000 21.144,22.000 12.000 C 22.000 2.856,22.026 3.624,21.701 3.299 C 21.375 2.972,22.267 3.000,11.983 3.003 C 4.135 3.005,2.798 3.014,2.664 3.063 M9.958 8.120 C 10.324 8.210,10.919 8.473,11.227 8.684 C 11.510 8.876,11.800 9.126,11.800 9.177 C 11.800 9.216,10.874 10.151,10.530 10.458 L 10.401 10.574 10.310 10.492 C 10.168 10.362,9.921 10.220,9.660 10.119 C 9.327 9.990,8.691 9.987,8.343 10.114 C 7.539 10.407,7.001 11.163,7.001 12.000 C 7.001 12.942,7.698 13.781,8.632 13.962 C 9.227 14.078,9.751 13.928,10.386 13.460 C 10.427 13.430,10.605 13.585,11.120 14.100 C 11.494 14.473,11.800 14.799,11.800 14.823 C 11.800 14.848,11.714 14.940,11.608 15.029 C 10.216 16.203,8.290 16.316,6.760 15.313 C 6.434 15.099,5.949 14.619,5.723 14.285 C 5.471 13.914,5.215 13.347,5.113 12.938 C 4.987 12.429,4.987 11.571,5.113 11.062 C 5.215 10.654,5.470 10.088,5.722 9.715 C 6.304 8.853,7.337 8.215,8.433 8.040 C 8.783 7.984,9.572 8.026,9.958 8.120 M16.958 8.120 C 17.324 8.210,17.919 8.473,18.227 8.684 C 18.510 8.876,18.800 9.126,18.800 9.177 C 18.800 9.216,17.874 10.151,17.530 10.458 L 17.401 10.574 17.310 10.492 C 17.168 10.362,16.921 10.220,16.660 10.119 C 16.327 9.990,15.691 9.987,15.343 10.114 C 14.539 10.407,14.001 11.163,14.001 12.000 C 14.001 12.942,14.698 13.781,15.632 13.962 C 16.227 14.078,16.751 13.928,17.386 13.460 C 17.427 13.430,17.605 13.585,18.120 14.100 C 18.494 14.473,18.800 14.800,18.800 14.826 C 18.800 14.948,18.001 15.498,17.561 15.680 C 16.998 15.912,16.639 15.979,15.980 15.976 C 15.334 15.972,15.053 15.920,14.493 15.696 C 13.282 15.212,12.371 14.114,12.075 12.780 C 11.988 12.386,12.008 11.490,12.114 11.062 C 12.215 10.655,12.470 10.089,12.722 9.715 C 13.304 8.853,14.337 8.215,15.433 8.040 C 15.783 7.984,16.572 8.026,16.958 8.120 " stroke="none" fill-rule="evenodd" fill="black"></path></svg>