<svg viewBox="0 0 24 24" xmlns="http://www.w3.org/2000/svg"><path d="M7.000 2.060 C 5.383 2.282,3.795 3.136,2.738 4.352 C 1.712 5.531,1.143 6.877,0.998 8.467 C 0.921 9.314,1.062 10.398,1.365 11.277 C 1.540 11.784,1.963 12.608,2.270 13.040 C 2.571 13.464,3.418 14.334,3.769 14.580 L 3.997 14.740 4.008 18.020 L 4.020 21.300 4.131 21.489 C 4.192 21.592,4.301 21.723,4.374 21.778 C 4.672 22.006,4.578 22.000,7.998 22.000 C 11.545 22.000,11.390 22.013,11.701 21.701 C 12.013 21.389,12.000 21.551,12.001 17.943 L 12.002 14.740 12.231 14.574 C 13.421 13.710,14.400 12.230,14.783 10.718 C 15.246 8.885,14.932 6.859,13.942 5.300 C 13.873 5.190,13.802 5.077,13.785 5.050 C 13.761 5.010,14.390 5.000,16.878 5.000 L 20.000 5.000 20.000 10.000 L 20.000 15.000 17.000 15.000 L 14.000 15.000 14.000 16.000 L 14.000 17.000 17.573 17.000 C 21.595 17.000,21.387 17.015,21.701 16.701 C 22.023 16.379,22.000 16.903,22.000 10.000 C 22.000 3.097,22.023 3.621,21.701 3.299 C 21.382 2.980,21.737 3.000,16.381 3.000 L 11.615 3.000 11.155 2.761 C 10.440 2.390,9.644 2.147,8.801 2.042 C 8.353 1.986,7.474 1.995,7.000 2.060 M8.601 4.042 C 9.369 4.136,10.154 4.432,10.824 4.881 C 11.223 5.148,11.847 5.769,12.108 6.160 C 12.495 6.739,12.740 7.305,12.878 7.939 C 13.168 9.281,12.898 10.667,12.120 11.820 C 11.689 12.458,10.954 13.113,10.317 13.426 L 10.003 13.580 10.001 16.790 L 10.000 20.000 8.000 20.000 L 6.000 20.000 5.999 16.790 L 5.998 13.580 5.715 13.443 C 5.077 13.136,4.277 12.431,3.873 11.820 C 2.843 10.265,2.722 8.380,3.546 6.740 C 4.479 4.883,6.530 3.788,8.601 4.042 M7.503 6.040 C 6.828 6.162,6.156 6.550,5.703 7.080 C 4.987 7.917,4.806 9.100,5.234 10.151 C 5.521 10.857,6.143 11.479,6.849 11.766 C 7.989 12.230,9.251 11.978,10.115 11.115 C 11.238 9.992,11.295 8.212,10.246 7.020 C 9.897 6.624,9.276 6.239,8.756 6.097 C 8.491 6.024,7.770 5.991,7.503 6.040 M17.000 8.000 L 17.000 9.000 18.000 9.000 L 19.000 9.000 19.000 8.000 L 19.000 7.000 18.000 7.000 L 17.000 7.000 17.000 8.000 M8.340 8.066 C 8.709 8.192,9.000 8.604,9.000 9.000 C 9.000 9.527,8.527 10.000,8.000 10.000 C 7.758 10.000,7.479 9.881,7.299 9.701 C 6.907 9.309,6.908 8.690,7.300 8.298 C 7.577 8.020,7.957 7.936,8.340 8.066 M7.000 18.000 L 7.000 19.000 8.000 19.000 L 9.000 19.000 9.000 18.000 L 9.000 17.000 8.000 17.000 L 7.000 17.000 7.000 18.000 " stroke="none" fill-rule="evenodd" fill="black"></path></svg>