<svg viewBox="0 0 24 24" xmlns="http://www.w3.org/2000/svg"><path d="M11.120 2.039 C 8.641 2.287,6.414 3.362,4.761 5.107 C 1.806 8.228,1.158 12.819,3.137 16.623 C 3.620 17.552,4.164 18.288,4.938 19.061 C 5.715 19.837,6.454 20.383,7.377 20.863 C 10.286 22.376,13.714 22.376,16.623 20.863 C 17.547 20.383,18.287 19.836,19.061 19.061 C 20.272 17.850,21.082 16.499,21.578 14.865 C 21.817 14.075,21.999 12.937,22.000 12.230 L 22.000 12.000 21.006 12.000 L 20.011 12.000 19.984 12.410 C 19.849 14.440,19.113 16.127,17.743 17.551 C 17.063 18.258,16.346 18.779,15.471 19.200 C 13.249 20.271,10.700 20.265,8.500 19.183 C 7.665 18.773,7.120 18.392,6.464 17.761 C 5.192 16.538,4.402 15.022,4.094 13.220 C 4.000 12.665,4.000 11.335,4.094 10.780 C 4.341 9.332,4.891 8.086,5.761 7.006 C 8.151 4.035,12.254 3.157,15.652 4.889 C 16.427 5.285,17.124 5.805,17.756 6.459 L 18.131 6.848 17.239 7.741 L 16.346 8.634 16.120 8.520 C 15.158 8.034,14.007 8.225,13.241 8.996 C 12.909 9.330,12.739 9.616,12.594 10.080 C 12.502 10.374,12.500 10.413,12.500 12.000 C 12.500 13.587,12.502 13.626,12.594 13.920 C 12.739 14.385,12.909 14.670,13.240 15.001 C 13.563 15.324,13.917 15.538,14.340 15.665 C 14.667 15.762,15.333 15.762,15.660 15.665 C 16.319 15.468,16.936 14.964,17.213 14.399 C 17.493 13.826,17.500 13.769,17.500 11.980 C 17.500 10.413,17.498 10.374,17.406 10.081 C 17.287 9.701,17.169 9.469,16.962 9.208 L 16.798 9.000 19.399 9.000 L 22.000 9.000 22.000 5.990 L 22.000 2.980 20.777 4.203 L 19.554 5.426 19.047 4.922 C 17.501 3.385,15.672 2.463,13.480 2.117 C 12.909 2.027,11.655 1.986,11.120 2.039 M6.760 9.259 L 6.760 9.997 8.177 10.009 C 9.537 10.020,9.599 10.023,9.705 10.102 C 9.986 10.313,10.067 10.600,9.924 10.887 C 9.761 11.217,9.761 11.217,8.560 11.240 L 7.500 11.260 7.500 12.000 L 7.500 12.740 8.540 12.760 C 9.726 12.783,9.772 12.795,9.926 13.112 C 10.066 13.402,9.985 13.688,9.705 13.898 C 9.599 13.977,9.537 13.980,8.177 13.991 L 6.760 14.003 6.760 14.765 L 6.760 15.527 8.250 15.511 C 9.931 15.493,10.023 15.479,10.503 15.167 C 11.521 14.505,11.804 13.186,11.140 12.199 L 11.005 12.000 11.140 11.801 C 11.607 11.106,11.615 10.189,11.160 9.480 C 10.889 9.058,10.349 8.672,9.879 8.563 C 9.774 8.539,9.093 8.522,8.230 8.521 L 6.760 8.520 6.760 9.259 M15.443 9.870 C 15.684 9.993,15.893 10.236,15.958 10.471 C 16.014 10.670,16.014 13.330,15.958 13.529 C 15.848 13.925,15.423 14.240,15.000 14.240 C 14.571 14.240,14.148 13.922,14.039 13.517 C 14.011 13.413,14.000 12.853,14.008 11.909 C 14.020 10.512,14.023 10.454,14.106 10.300 C 14.371 9.809,14.953 9.622,15.443 9.870 " stroke="none" fill-rule="evenodd" fill="black"></path></svg>