<svg viewBox="0 0 24 24" xmlns="http://www.w3.org/2000/svg"><path d="M11.120 2.042 C 6.664 2.449,3.034 5.724,2.185 10.103 C 1.632 12.960,2.334 15.848,4.153 18.200 C 4.490 18.635,5.362 19.506,5.800 19.845 C 8.427 21.878,11.768 22.517,14.865 21.578 C 16.499 21.082,17.850 20.272,19.061 19.061 C 20.272 17.850,21.082 16.499,21.578 14.865 C 21.817 14.075,21.999 12.937,22.000 12.230 L 22.000 12.000 21.008 12.000 L 20.016 12.000 19.968 12.586 C 19.862 13.860,19.546 14.897,18.941 15.957 C 17.864 17.845,16.085 19.202,13.983 19.740 C 11.532 20.366,8.980 19.818,7.000 18.239 C 5.689 17.193,4.714 15.699,4.283 14.075 C 4.072 13.282,4.025 12.902,4.025 12.000 C 4.025 11.124,4.069 10.753,4.265 9.982 C 4.783 7.934,6.186 6.106,8.049 5.050 C 8.856 4.592,9.727 4.281,10.660 4.116 C 11.387 3.987,12.631 3.986,13.338 4.115 C 14.573 4.339,15.666 4.797,16.691 5.520 C 17.128 5.828,18.053 6.734,18.373 7.167 C 18.498 7.336,18.600 7.484,18.600 7.497 C 18.600 7.510,18.015 7.520,17.300 7.520 L 16.000 7.520 16.000 8.020 L 16.000 8.520 14.000 8.520 L 12.000 8.520 12.000 10.640 L 12.000 12.760 13.510 12.760 C 14.868 12.760,15.034 12.767,15.159 12.830 C 15.596 13.049,15.588 13.725,15.146 13.934 C 15.026 13.992,14.816 14.000,13.504 14.000 L 12.000 14.000 12.000 14.763 L 12.000 15.526 13.610 15.510 C 15.022 15.496,15.247 15.486,15.440 15.423 C 16.227 15.166,16.743 14.629,16.939 13.862 C 17.153 13.024,16.778 12.093,16.028 11.601 C 15.596 11.317,15.385 11.272,14.390 11.250 L 13.520 11.230 13.520 10.615 L 13.520 10.000 15.140 10.000 L 16.760 10.000 16.760 9.760 L 16.760 9.520 19.380 9.520 L 22.000 9.520 22.000 6.520 L 22.000 3.520 21.001 3.520 L 20.001 3.520 19.991 4.742 L 19.980 5.963 19.680 5.597 C 18.699 4.400,17.263 3.351,15.780 2.746 C 14.328 2.153,12.660 1.902,11.120 2.042 M8.490 12.010 L 8.500 15.500 9.250 15.511 L 10.000 15.522 10.000 12.021 L 10.000 8.520 9.240 8.520 L 8.480 8.520 8.490 12.010 " stroke="none" fill-rule="evenodd" fill="black"></path></svg>