<svg viewBox="0 0 24 24" xmlns="http://www.w3.org/2000/svg"><path d="M2.664 3.063 C 2.436 3.146,2.257 3.297,2.131 3.511 L 2.020 3.700 2.020 12.000 L 2.020 20.300 2.131 20.489 C 2.260 20.709,2.437 20.854,2.678 20.939 C 2.830 20.993,3.916 21.000,11.998 21.000 C 22.265 21.000,21.375 21.027,21.701 20.701 C 22.026 20.376,22.000 21.144,22.000 12.000 C 22.000 2.856,22.026 3.624,21.701 3.299 C 21.375 2.972,22.267 3.000,11.983 3.003 C 4.135 3.005,2.798 3.014,2.664 3.063 M20.000 12.000 L 20.000 19.000 12.000 19.000 L 4.000 19.000 4.000 12.000 L 4.000 5.000 12.000 5.000 L 20.000 5.000 20.000 12.000 M6.000 12.000 L 6.000 15.000 6.760 15.000 L 7.520 15.000 7.520 13.880 L 7.520 12.760 8.500 12.760 L 9.480 12.760 9.480 13.880 L 9.480 15.000 10.240 15.000 L 11.000 15.000 11.000 12.000 L 11.000 9.000 10.240 9.000 L 9.480 9.000 9.480 10.120 L 9.480 11.240 8.500 11.240 L 7.520 11.240 7.520 10.120 L 7.520 9.000 6.760 9.000 L 6.000 9.000 6.000 12.000 M13.000 12.000 L 13.000 15.000 14.598 15.000 C 15.610 15.000,16.274 14.984,16.408 14.956 C 17.158 14.799,17.799 14.158,17.956 13.408 C 18.015 13.125,18.015 10.875,17.956 10.592 C 17.797 9.830,17.138 9.181,16.383 9.043 C 16.238 9.017,15.529 9.000,14.573 9.000 L 13.000 9.000 13.000 12.000 M16.344 10.656 L 16.480 10.792 16.480 11.993 L 16.480 13.194 16.377 13.316 C 16.321 13.383,16.209 13.456,16.127 13.479 C 16.046 13.501,15.652 13.520,15.250 13.520 L 14.520 13.520 14.520 12.020 L 14.520 10.520 15.364 10.520 L 16.208 10.520 16.344 10.656 " stroke="none" fill-rule="evenodd" fill="black"></path></svg>