<svg viewBox="0 0 24 24" xmlns="http://www.w3.org/2000/svg"><path d="M11.120 2.039 C 10.299 2.121,9.443 2.304,8.751 2.545 C 5.024 3.842,2.403 7.177,2.043 11.080 C 1.983 11.725,1.984 19.122,2.044 19.408 C 2.201 20.158,2.842 20.799,3.592 20.956 C 3.881 21.016,7.119 21.016,7.408 20.956 C 8.158 20.799,8.799 20.158,8.956 19.408 C 9.017 19.114,9.017 13.886,8.956 13.592 C 8.797 12.830,8.138 12.181,7.383 12.043 C 7.238 12.017,6.529 12.000,5.573 12.000 L 4.000 12.000 4.000 11.850 C 4.000 11.768,4.019 11.502,4.041 11.260 C 4.302 8.475,5.983 6.047,8.500 4.818 C 11.800 3.206,15.787 4.059,18.141 6.881 C 18.972 7.877,19.598 9.186,19.835 10.420 C 19.920 10.863,20.000 11.555,20.000 11.844 L 20.000 12.000 18.427 12.000 C 17.471 12.000,16.762 12.017,16.617 12.043 C 15.862 12.181,15.203 12.830,15.044 13.592 C 15.014 13.735,15.000 14.686,15.000 16.500 C 15.000 18.314,15.014 19.265,15.044 19.408 C 15.201 20.158,15.842 20.799,16.592 20.956 C 16.881 21.016,20.119 21.016,20.408 20.956 C 21.158 20.799,21.799 20.158,21.956 19.408 C 22.016 19.122,22.017 11.725,21.957 11.080 C 21.569 6.872,18.510 3.305,14.430 2.303 C 13.446 2.062,12.028 1.948,11.120 2.039 M7.000 16.500 L 7.000 19.000 5.500 19.000 L 4.000 19.000 4.000 16.500 L 4.000 14.000 5.500 14.000 L 7.000 14.000 7.000 16.500 M20.000 16.500 L 20.000 19.000 18.500 19.000 L 17.000 19.000 17.000 16.500 L 17.000 14.000 18.500 14.000 L 20.000 14.000 20.000 16.500 " stroke="none" fill-rule="evenodd" fill="black"></path></svg>