<svg viewBox="0 0 24 24" xmlns="http://www.w3.org/2000/svg"><path d="M2.664 3.063 C 2.436 3.146,2.257 3.297,2.131 3.511 L 2.020 3.700 2.020 12.000 L 2.020 20.300 2.131 20.489 C 2.260 20.709,2.437 20.854,2.678 20.939 C 2.830 20.993,3.916 21.000,11.998 21.000 C 22.265 21.000,21.375 21.027,21.701 20.701 C 22.026 20.376,22.000 21.144,22.000 12.000 C 22.000 2.856,22.026 3.624,21.701 3.299 C 21.375 2.972,22.267 3.000,11.983 3.003 C 4.135 3.005,2.798 3.014,2.664 3.063 M20.000 12.000 L 20.000 19.000 12.000 19.000 L 4.000 19.000 4.000 12.000 L 4.000 5.000 12.000 5.000 L 20.000 5.000 20.000 12.000 M6.000 12.000 L 6.000 15.000 6.760 15.000 L 7.520 15.000 7.520 13.880 L 7.520 12.760 8.500 12.760 L 9.480 12.760 9.480 13.880 L 9.480 15.000 10.240 15.000 L 11.000 15.000 11.000 12.000 L 11.000 9.000 10.240 9.000 L 9.480 9.000 9.480 10.120 L 9.480 11.240 8.500 11.240 L 7.520 11.240 7.520 10.120 L 7.520 9.000 6.760 9.000 L 6.000 9.000 6.000 12.000 M13.664 9.063 C 13.436 9.146,13.257 9.297,13.131 9.511 L 13.020 9.700 13.009 11.911 C 13.001 13.377,13.012 14.175,13.040 14.279 C 13.102 14.508,13.312 14.761,13.539 14.878 C 13.716 14.969,13.793 14.981,14.249 14.993 L 14.760 15.006 14.760 15.763 L 14.760 16.520 15.500 16.520 L 16.240 16.520 16.240 15.760 L 16.240 15.000 16.693 15.000 C 17.249 15.000,17.467 14.935,17.701 14.701 C 18.003 14.399,18.000 14.427,18.000 12.000 C 18.000 9.573,18.003 9.601,17.701 9.299 C 17.406 9.004,17.373 9.000,15.483 9.003 C 14.145 9.005,13.789 9.017,13.664 9.063 M16.480 12.020 L 16.480 13.520 15.500 13.520 L 14.520 13.520 14.520 12.020 L 14.520 10.520 15.500 10.520 L 16.480 10.520 16.480 12.020 " stroke="none" fill-rule="evenodd" fill="black"></path></svg>