<svg viewBox="0 0 24 24" xmlns="http://www.w3.org/2000/svg"><path d="M3.664 3.063 C 3.436 3.146,3.257 3.297,3.131 3.511 L 3.020 3.700 3.020 12.000 L 3.020 20.300 3.131 20.489 C 3.192 20.592,3.301 20.723,3.374 20.778 C 3.684 21.015,3.106 21.000,11.998 21.000 C 21.144 21.000,20.376 21.026,20.701 20.701 C 21.026 20.376,21.000 21.144,21.000 12.000 C 21.000 2.856,21.026 3.624,20.701 3.299 C 20.376 2.973,21.147 3.000,11.983 3.003 C 5.003 3.005,3.797 3.014,3.664 3.063 M19.000 9.550 L 19.000 14.100 17.500 12.600 L 16.000 11.100 14.250 12.850 L 12.500 14.600 9.750 11.850 L 7.000 9.100 6.000 10.100 L 5.000 11.099 5.000 8.050 L 5.000 5.000 12.000 5.000 L 19.000 5.000 19.000 9.550 M15.150 7.041 C 14.722 7.149,14.343 7.465,14.144 7.880 C 14.034 8.111,14.020 8.180,14.020 8.500 C 14.020 8.811,14.035 8.894,14.133 9.104 C 14.276 9.413,14.585 9.721,14.900 9.868 C 15.107 9.965,15.190 9.980,15.500 9.980 C 15.811 9.980,15.894 9.965,16.104 9.867 C 16.413 9.724,16.721 9.415,16.868 9.100 C 16.965 8.893,16.980 8.810,16.980 8.500 C 16.980 8.189,16.965 8.106,16.867 7.896 C 16.725 7.589,16.414 7.278,16.110 7.139 C 15.852 7.022,15.407 6.976,15.150 7.041 M9.050 13.990 L 11.080 16.020 9.590 17.510 L 8.100 19.000 6.550 19.000 L 5.000 19.000 5.000 16.470 L 5.000 13.941 5.990 12.950 C 6.534 12.406,6.988 11.960,7.000 11.960 C 7.011 11.960,7.933 12.873,9.050 13.990 M17.510 15.450 L 19.000 16.940 19.000 17.970 L 19.000 19.000 14.970 19.000 L 10.940 19.000 13.460 16.480 C 14.846 15.094,15.989 13.960,16.000 13.960 C 16.011 13.960,16.690 14.630,17.510 15.450 " stroke="none" fill-rule="evenodd" fill="black"></path></svg>