<svg viewBox="0 0 24 24" xmlns="http://www.w3.org/2000/svg"><path d="M11.480 1.027 C 10.639 1.114,9.679 1.495,8.987 2.016 C 8.618 2.294,8.112 2.823,7.867 3.187 L 7.684 3.460 8.431 4.209 L 9.177 4.958 9.310 4.694 C 9.489 4.339,9.643 4.120,9.890 3.874 C 10.254 3.510,10.799 3.206,11.320 3.075 C 11.635 2.996,12.434 3.007,12.753 3.094 C 13.802 3.382,14.585 4.160,14.908 5.236 C 14.967 5.432,14.977 5.751,14.990 7.817 C 14.999 9.315,14.989 10.269,14.963 10.437 L 14.922 10.700 15.696 11.476 L 16.471 12.251 16.559 12.056 C 16.688 11.769,16.861 11.220,16.925 10.900 C 16.968 10.678,16.980 10.066,16.980 7.960 L 16.980 5.300 16.871 4.869 C 16.612 3.851,16.159 3.067,15.426 2.371 C 14.390 1.386,12.903 0.880,11.480 1.027 M2.110 2.110 L 1.400 2.821 4.196 5.616 L 6.992 8.412 7.010 9.576 C 7.028 10.670,7.035 10.765,7.134 11.152 C 7.628 13.081,9.082 14.489,11.006 14.903 C 11.637 15.038,12.559 15.019,13.169 14.857 L 13.380 14.802 14.149 15.570 C 14.572 15.992,14.905 16.351,14.889 16.367 C 14.827 16.428,14.104 16.685,13.718 16.783 C 10.303 17.646,6.789 15.840,5.484 12.551 C 5.358 12.234,5.146 11.473,5.099 11.170 L 5.073 11.000 4.063 11.000 L 3.054 11.000 3.070 11.130 C 3.078 11.202,3.121 11.449,3.165 11.680 C 3.692 14.469,5.498 16.831,8.060 18.079 C 8.917 18.497,9.786 18.772,10.635 18.895 L 10.980 18.944 10.990 20.972 L 11.001 23.000 12.000 23.000 L 13.000 23.000 13.000 20.981 L 13.000 18.962 13.090 18.945 C 13.139 18.935,13.425 18.882,13.724 18.826 C 14.435 18.692,15.261 18.418,15.903 18.103 L 16.420 17.849 18.810 20.234 L 21.199 22.619 21.663 22.160 C 21.917 21.907,22.231 21.582,22.360 21.437 L 22.595 21.175 12.707 11.287 L 2.820 1.400 2.110 2.110 M11.502 12.951 C 11.480 12.973,11.170 12.886,10.880 12.778 C 10.415 12.603,9.849 12.156,9.553 11.729 C 9.336 11.416,9.145 10.968,9.061 10.580 C 9.041 10.484,9.282 10.706,10.276 11.698 C 10.959 12.379,11.510 12.943,11.502 12.951 M18.861 11.370 C 18.752 11.941,18.547 12.525,18.235 13.155 L 17.950 13.729 18.664 14.444 L 19.378 15.158 19.593 14.829 C 19.915 14.336,20.335 13.449,20.538 12.831 C 20.696 12.354,20.864 11.638,20.934 11.150 L 20.955 11.000 19.943 11.000 L 18.932 11.000 18.861 11.370 " stroke="none" fill-rule="evenodd" fill="black"></path></svg>