<svg viewBox="0 0 24 24" xmlns="http://www.w3.org/2000/svg"><path d="M11.340 1.046 C 10.849 1.108,10.317 1.273,9.820 1.517 C 8.568 2.131,7.668 3.162,7.246 4.465 C 7.015 5.178,7.020 5.075,7.020 9.000 C 7.020 12.928,7.015 12.821,7.247 13.539 C 7.656 14.802,8.605 15.904,9.776 16.476 C 10.159 16.663,10.693 16.844,11.100 16.925 C 11.468 16.998,12.532 16.998,12.900 16.925 C 14.723 16.564,16.191 15.273,16.753 13.539 C 16.986 12.821,16.980 12.932,16.980 8.960 L 16.980 5.300 16.871 4.869 C 16.675 4.098,16.372 3.471,15.926 2.912 C 14.822 1.527,13.090 0.823,11.340 1.046 M12.756 3.097 C 13.093 3.189,13.595 3.447,13.873 3.671 C 14.402 4.096,14.814 4.779,14.937 5.434 C 15.031 5.935,15.031 12.065,14.937 12.566 C 14.757 13.522,14.042 14.404,13.151 14.766 C 11.642 15.380,9.989 14.734,9.298 13.260 C 9.007 12.639,9.020 12.844,9.020 9.000 C 9.020 5.156,9.007 5.361,9.298 4.740 C 9.716 3.848,10.537 3.215,11.503 3.040 C 11.770 2.991,12.491 3.024,12.756 3.097 M3.184 13.766 C 2.658 13.872,2.219 13.967,2.209 13.978 C 2.199 13.988,2.231 14.164,2.281 14.368 C 2.610 15.711,3.282 17.085,4.160 18.208 C 4.492 18.632,5.326 19.472,5.740 19.801 C 7.779 21.415,10.369 22.193,12.920 21.957 C 16.655 21.612,19.939 19.146,21.300 15.665 C 21.475 15.218,21.723 14.410,21.776 14.113 L 21.802 13.966 21.591 13.923 C 21.475 13.899,21.036 13.811,20.615 13.726 L 19.850 13.573 19.724 14.049 C 19.276 15.749,18.243 17.292,16.841 18.360 C 14.919 19.822,12.384 20.344,10.060 19.755 C 7.214 19.034,4.975 16.811,4.255 13.992 C 4.197 13.765,4.148 13.578,4.145 13.576 C 4.142 13.575,3.710 13.660,3.184 13.766 " stroke="none" fill-rule="evenodd" fill="black"></path></svg>