<svg viewBox="0 0 24 24" xmlns="http://www.w3.org/2000/svg"><path d="M11.120 2.039 C 9.316 2.220,7.707 2.807,6.280 3.806 C 3.031 6.081,1.434 10.017,2.185 13.897 C 2.489 15.466,3.142 16.893,4.153 18.200 C 4.490 18.635,5.362 19.506,5.800 19.845 C 7.369 21.060,9.173 21.781,11.080 21.957 C 11.370 21.984,13.102 22.000,15.770 22.000 L 20.000 22.000 20.000 21.001 L 20.000 20.001 19.018 19.991 L 18.037 19.980 18.403 19.680 C 19.466 18.809,20.416 17.580,21.038 16.271 C 21.943 14.365,22.219 12.178,21.815 10.103 C 21.073 6.292,18.165 3.221,14.430 2.303 C 13.446 2.062,12.028 1.948,11.120 2.039 M12.383 6.043 C 13.185 6.190,13.839 6.872,13.967 7.695 C 14.153 8.894,13.209 10.000,12.000 10.000 C 11.032 10.000,10.183 9.268,10.033 8.305 C 9.933 7.663,10.132 7.061,10.596 6.596 C 11.085 6.108,11.698 5.918,12.383 6.043 M8.383 10.043 C 9.185 10.190,9.839 10.872,9.967 11.695 C 10.153 12.894,9.209 14.000,8.000 14.000 C 7.032 14.000,6.183 13.268,6.033 12.305 C 5.933 11.663,6.132 11.061,6.596 10.596 C 7.085 10.108,7.698 9.918,8.383 10.043 M16.383 10.043 C 17.185 10.190,17.839 10.872,17.967 11.695 C 18.153 12.894,17.209 14.000,16.000 14.000 C 15.032 14.000,14.183 13.268,14.033 12.305 C 13.933 11.663,14.132 11.061,14.596 10.596 C 15.085 10.108,15.698 9.918,16.383 10.043 M12.383 14.043 C 13.185 14.190,13.839 14.872,13.967 15.695 C 14.153 16.894,13.209 18.000,12.000 18.000 C 11.032 18.000,10.183 17.268,10.033 16.305 C 9.933 15.663,10.132 15.061,10.596 14.596 C 11.085 14.108,11.698 13.918,12.383 14.043 " stroke="none" fill-rule="evenodd" fill="black"></path></svg>