<svg viewBox="0 0 24 24" xmlns="http://www.w3.org/2000/svg"><path d="M7.000 8.260 C 7.000 11.153,6.986 13.520,6.969 13.520 C 6.952 13.520,6.902 13.496,6.859 13.467 C 6.710 13.365,6.179 13.168,5.860 13.095 C 5.422 12.994,4.580 12.994,4.140 13.094 C 2.962 13.362,1.915 14.191,1.402 15.260 C 0.302 17.551,1.568 20.243,4.044 20.877 C 5.255 21.188,6.611 20.866,7.594 20.036 C 8.214 19.512,8.643 18.822,8.885 17.956 L 8.979 17.620 8.991 11.310 L 9.002 5.000 13.501 5.000 L 18.000 5.000 18.000 9.260 C 18.000 11.603,17.986 13.520,17.969 13.520 C 17.952 13.520,17.902 13.496,17.859 13.467 C 17.710 13.365,17.179 13.168,16.860 13.095 C 16.422 12.994,15.580 12.994,15.140 13.094 C 13.962 13.362,12.915 14.191,12.402 15.260 C 11.302 17.551,12.568 20.243,15.044 20.877 C 16.255 21.188,17.611 20.866,18.594 20.036 C 19.214 19.512,19.643 18.822,19.885 17.956 L 19.980 17.620 19.991 10.310 L 20.001 3.000 13.501 3.000 L 7.000 3.000 7.000 8.260 M5.383 15.043 C 6.185 15.190,6.839 15.872,6.967 16.695 C 7.153 17.894,6.209 19.000,5.000 19.000 C 4.032 19.000,3.183 18.268,3.033 17.305 C 2.933 16.663,3.132 16.061,3.596 15.596 C 4.085 15.108,4.698 14.918,5.383 15.043 M16.383 15.043 C 17.185 15.190,17.839 15.872,17.967 16.695 C 18.153 17.894,17.209 19.000,16.000 19.000 C 15.032 19.000,14.183 18.268,14.033 17.305 C 13.933 16.663,14.132 16.061,14.596 15.596 C 15.085 15.108,15.698 14.918,16.383 15.043 " stroke="none" fill-rule="evenodd" fill="black"></path></svg>