<svg viewBox="0 0 24 24" xmlns="http://www.w3.org/2000/svg"><path d="M12.000 8.260 C 12.000 11.153,11.986 13.520,11.969 13.520 C 11.952 13.520,11.902 13.496,11.859 13.467 C 11.710 13.365,11.179 13.168,10.860 13.095 C 10.422 12.994,9.580 12.994,9.140 13.094 C 7.962 13.362,6.915 14.191,6.402 15.260 C 5.302 17.551,6.568 20.243,9.044 20.877 C 10.255 21.188,11.611 20.866,12.594 20.036 C 13.214 19.512,13.643 18.821,13.885 17.956 L 13.979 17.620 13.991 11.810 L 14.002 6.000 17.001 6.000 L 20.000 6.000 20.000 4.500 L 20.000 3.000 16.000 3.000 L 12.000 3.000 12.000 8.260 " stroke="none" fill-rule="evenodd" fill="black"></path></svg>