<svg viewBox="0 0 24 24" xmlns="http://www.w3.org/2000/svg"><path d="M2.664 3.063 C 2.436 3.146,2.257 3.297,2.131 3.511 L 2.020 3.700 2.020 12.000 L 2.020 20.300 2.131 20.489 C 2.256 20.702,2.449 20.864,2.670 20.943 C 2.794 20.987,4.433 20.997,11.983 20.998 C 22.269 21.000,21.374 21.028,21.702 20.700 C 22.027 20.375,22.002 21.149,21.990 11.919 L 21.980 3.700 21.869 3.511 C 21.744 3.298,21.551 3.136,21.330 3.057 C 21.098 2.974,2.890 2.980,2.664 3.063 M17.000 7.000 L 17.000 8.000 15.500 8.000 L 14.000 8.000 13.999 11.610 C 13.998 14.449,13.986 15.284,13.944 15.521 C 13.649 17.173,12.041 18.272,10.408 17.937 C 9.192 17.687,8.270 16.733,8.054 15.500 C 7.783 13.953,8.768 12.464,10.320 12.075 C 10.637 11.996,11.440 12.005,11.726 12.092 C 11.851 12.129,11.963 12.160,11.976 12.160 C 11.989 12.160,12.000 10.774,12.000 9.080 L 12.000 6.000 14.500 6.000 L 17.000 6.000 17.000 7.000 " stroke="none" fill-rule="evenodd" fill="black"></path></svg>