<svg viewBox="0 0 24 24" xmlns="http://www.w3.org/2000/svg"><path d="M11.200 2.044 C 8.467 2.307,6.006 4.031,4.800 6.529 C 4.402 7.351,4.142 8.259,4.042 9.168 C 4.015 9.419,4.000 11.169,4.000 14.111 L 4.000 18.666 3.781 18.958 C 3.486 19.353,3.452 19.465,3.556 19.700 C 3.701 20.027,2.936 20.000,12.000 20.000 C 21.064 20.000,20.299 20.027,20.444 19.700 C 20.548 19.465,20.514 19.353,20.219 18.958 L 20.000 18.666 20.000 14.103 C 19.999 11.311,19.984 9.400,19.959 9.180 C 19.645 6.369,17.951 3.982,15.412 2.773 C 14.124 2.159,12.651 1.904,11.200 2.044 M13.041 4.097 C 14.371 4.333,15.638 5.046,16.506 6.045 C 17.214 6.861,17.681 7.824,17.909 8.940 C 17.966 9.222,17.976 9.781,17.989 13.630 L 18.003 18.000 12.000 18.000 L 5.997 18.000 6.011 13.630 C 6.024 9.775,6.033 9.222,6.091 8.940 C 6.375 7.553,7.056 6.353,8.045 5.494 C 9.211 4.483,10.624 3.974,12.140 4.019 C 12.448 4.029,12.853 4.063,13.041 4.097 M9.508 21.190 C 9.614 22.279,10.338 23.141,11.380 23.421 C 11.693 23.505,12.307 23.505,12.620 23.421 C 13.662 23.141,14.386 22.279,14.492 21.190 L 14.510 21.000 12.000 21.000 L 9.490 21.000 9.508 21.190 " stroke="none" fill-rule="evenodd" fill="black"></path></svg>