<svg viewBox="0 0 24 24" xmlns="http://www.w3.org/2000/svg"><path d="M11.200 2.044 C 8.467 2.307,6.006 4.031,4.800 6.529 C 4.402 7.351,4.142 8.259,4.042 9.168 C 4.016 9.414,4.000 10.924,4.000 13.278 L 4.000 17.000 3.000 17.000 L 2.000 17.000 2.000 18.000 L 2.000 19.000 12.000 19.000 L 22.000 19.000 22.000 18.000 L 22.000 17.000 21.000 17.000 L 20.000 17.000 20.000 13.270 C 19.999 11.037,19.983 9.396,19.959 9.180 C 19.645 6.369,17.951 3.982,15.412 2.773 C 14.124 2.159,12.651 1.904,11.200 2.044 M9.000 22.000 L 9.000 23.000 12.000 23.000 L 15.000 23.000 15.000 22.000 L 15.000 21.000 12.000 21.000 L 9.000 21.000 9.000 22.000 " stroke="none" fill-rule="evenodd" fill="black"></path></svg>