<svg viewBox="0 0 24 24" xmlns="http://www.w3.org/2000/svg"><path d="M2.110 2.110 L 1.400 2.820 3.147 4.567 L 4.894 6.314 4.724 6.681 C 4.387 7.407,4.134 8.328,4.042 9.168 C 4.015 9.419,4.000 11.169,4.000 14.111 L 4.000 18.666 3.781 18.958 C 3.486 19.353,3.452 19.465,3.556 19.700 C 3.700 20.026,3.023 20.000,11.248 20.000 L 18.580 20.000 19.880 21.300 L 21.181 22.600 21.890 21.890 L 22.600 21.180 12.710 11.290 L 2.820 1.400 2.110 2.110 M11.200 2.041 C 10.054 2.161,8.908 2.540,7.909 3.131 L 7.559 3.338 8.286 4.066 L 9.013 4.794 9.357 4.622 C 9.778 4.410,10.308 4.230,10.850 4.114 C 11.440 3.987,12.560 3.987,13.150 4.114 C 15.305 4.575,17.001 6.058,17.674 8.070 C 17.969 8.949,17.971 8.972,17.989 11.503 L 18.006 13.786 19.003 14.783 L 20.000 15.779 20.000 12.660 C 19.999 10.836,19.983 9.390,19.959 9.180 C 19.793 7.694,19.226 6.279,18.326 5.100 C 18.037 4.722,17.416 4.096,16.994 3.759 C 15.918 2.897,14.635 2.330,13.240 2.100 C 12.781 2.024,11.668 1.992,11.200 2.041 M11.500 12.920 L 16.580 18.000 11.290 18.000 L 6.000 18.000 6.000 13.850 C 6.001 9.578,6.010 9.294,6.166 8.620 C 6.237 8.318,6.388 7.840,6.413 7.840 C 6.417 7.840,8.706 10.126,11.500 12.920 M9.509 21.190 C 9.586 21.974,9.982 22.648,10.616 23.072 C 11.582 23.718,12.834 23.616,13.717 22.818 C 14.063 22.505,14.390 21.892,14.458 21.430 C 14.470 21.348,14.490 21.217,14.502 21.140 L 14.524 21.000 12.007 21.000 L 9.490 21.000 9.509 21.190 " stroke="none" fill-rule="evenodd" fill="black"></path></svg>