<svg viewBox="0 0 24 24" xmlns="http://www.w3.org/2000/svg"><path d="M19.433 3.040 C 18.843 3.134,18.221 3.380,17.731 3.712 C 16.955 4.240,16.394 5.037,16.130 5.989 C 16.034 6.337,16.022 6.449,16.022 7.000 C 16.022 7.553,16.034 7.663,16.132 8.017 C 16.475 9.256,17.357 10.252,18.520 10.715 C 20.334 11.437,22.462 10.710,23.444 9.033 C 24.503 7.224,23.985 4.878,22.269 3.712 C 21.917 3.473,21.343 3.214,20.958 3.120 C 20.572 3.026,19.783 2.984,19.433 3.040 M1.664 4.063 C 1.436 4.146,1.257 4.297,1.131 4.511 L 1.020 4.700 1.020 12.000 L 1.020 19.300 1.131 19.489 C 1.256 19.702,1.449 19.864,1.670 19.943 C 1.893 20.023,22.107 20.023,22.330 19.943 C 22.551 19.864,22.744 19.702,22.869 19.489 L 22.980 19.300 22.991 15.751 L 23.002 12.202 22.675 12.365 C 22.165 12.619,21.780 12.750,21.110 12.897 L 21.000 12.922 21.000 15.461 L 21.000 18.000 12.000 18.000 L 3.000 18.000 3.000 12.000 L 3.000 6.000 8.539 6.000 L 14.078 6.000 14.104 5.890 C 14.270 5.159,14.379 4.839,14.635 4.330 L 14.801 4.000 8.310 4.003 C 2.782 4.005,1.797 4.014,1.664 4.063 M20.383 5.043 C 21.185 5.190,21.839 5.872,21.967 6.695 C 22.153 7.894,21.209 9.000,20.000 9.000 C 19.032 9.000,18.183 8.268,18.033 7.305 C 17.933 6.663,18.132 6.061,18.596 5.596 C 19.085 5.108,19.698 4.918,20.383 5.043 M18.000 14.500 L 18.000 16.000 19.000 16.000 L 20.000 16.000 20.000 14.500 L 20.000 13.000 19.000 13.000 L 18.000 13.000 18.000 14.500 " stroke="none" fill-rule="evenodd" fill="black"></path></svg>