<svg viewBox="0 0 24 24" xmlns="http://www.w3.org/2000/svg"><path d="M8.300 4.476 C 8.256 4.495,8.175 4.560,8.120 4.619 L 8.020 4.726 8.020 12.002 L 8.020 19.278 8.151 19.409 C 8.265 19.524,8.307 19.540,8.491 19.540 L 8.700 19.539 14.088 15.944 C 19.720 12.186,19.600 12.272,19.600 12.000 C 19.600 11.728,19.721 11.814,14.090 8.060 C 8.414 4.276,8.556 4.363,8.300 4.476 M13.200 9.867 C 14.938 11.025,16.360 11.985,16.360 12.000 C 16.360 12.026,10.059 16.240,10.020 16.240 C 10.009 16.240,10.000 14.332,10.000 12.000 C 10.000 9.668,10.009 7.760,10.020 7.760 C 10.031 7.760,11.462 8.708,13.200 9.867 " stroke="none" fill-rule="evenodd" fill="black"></path></svg>