<svg viewBox="0 0 24 24" xmlns="http://www.w3.org/2000/svg"><path d="M2.000 8.497 C 2.000 11.238,2.007 13.480,2.016 13.480 C 2.030 13.480,9.963 8.529,9.988 8.505 C 9.996 8.497,2.092 3.549,2.034 3.527 C 2.015 3.519,2.000 5.756,2.000 8.497 M12.000 5.000 L 12.000 6.000 17.000 6.000 L 22.000 6.000 22.000 5.000 L 22.000 4.000 17.000 4.000 L 12.000 4.000 12.000 5.000 M12.000 12.000 L 12.000 13.000 17.000 13.000 L 22.000 13.000 22.000 12.000 L 22.000 11.000 17.000 11.000 L 12.000 11.000 12.000 12.000 M2.000 19.000 L 2.000 20.000 12.000 20.000 L 22.000 20.000 22.000 19.000 L 22.000 18.000 12.000 18.000 L 2.000 18.000 2.000 19.000 " stroke="none" fill-rule="evenodd" fill="black"></path></svg>