<svg viewBox="0 0 24 24" xmlns="http://www.w3.org/2000/svg"><path d="M3.664 3.063 C 3.436 3.146,3.257 3.297,3.131 3.511 L 3.020 3.700 3.020 12.000 L 3.020 20.300 3.131 20.489 C 3.192 20.592,3.301 20.723,3.374 20.778 C 3.684 21.015,3.106 21.000,11.998 21.000 C 21.144 21.000,20.376 21.026,20.701 20.701 C 20.979 20.423,21.000 20.308,21.000 19.073 L 21.000 18.000 20.000 18.000 L 19.000 18.000 19.000 18.500 L 19.000 19.000 12.000 19.000 L 5.000 19.000 5.000 12.000 L 5.000 5.000 12.000 5.000 L 19.000 5.000 19.000 5.500 L 19.000 6.000 20.000 6.000 L 21.000 6.000 21.000 4.927 C 21.000 3.692,20.979 3.577,20.701 3.299 C 20.376 2.973,21.147 3.000,11.983 3.003 C 5.003 3.005,3.797 3.014,3.664 3.063 M6.000 7.500 L 6.000 9.000 7.000 9.000 L 8.000 9.000 8.000 7.500 L 8.000 6.000 7.000 6.000 L 6.000 6.000 6.000 7.500 M14.200 6.058 C 13.483 6.161,12.933 6.332,12.320 6.640 C 10.658 7.475,9.527 8.951,9.111 10.830 C 8.986 11.395,8.986 12.605,9.111 13.170 C 9.651 15.608,11.393 17.350,13.826 17.887 C 14.397 18.013,15.603 18.013,16.174 17.887 C 18.605 17.351,20.351 15.605,20.887 13.174 C 21.013 12.603,21.013 11.397,20.887 10.826 C 20.341 8.351,18.474 6.529,16.041 6.097 C 15.552 6.010,14.660 5.991,14.200 6.058 M15.958 8.120 C 16.621 8.282,17.329 8.683,17.823 9.177 C 18.321 9.675,18.716 10.376,18.887 11.062 C 19.013 11.571,19.013 12.429,18.887 12.938 C 18.531 14.369,17.434 15.486,16.005 15.871 C 15.669 15.962,15.542 15.975,15.000 15.975 C 14.458 15.975,14.331 15.962,13.995 15.871 C 12.806 15.550,11.914 14.799,11.376 13.663 C 11.110 13.100,11.024 12.697,11.024 12.000 C 11.024 11.535,11.042 11.349,11.113 11.062 C 11.215 10.654,11.470 10.088,11.722 9.715 C 12.304 8.853,13.337 8.215,14.433 8.040 C 14.783 7.984,15.572 8.026,15.958 8.120 M14.580 10.047 C 13.707 10.214,13.000 11.087,13.000 12.000 C 13.000 12.920,13.690 13.768,14.592 13.956 C 15.816 14.211,17.000 13.249,17.000 12.000 C 17.000 11.477,16.790 10.983,16.404 10.596 C 15.913 10.106,15.277 9.914,14.580 10.047 " stroke="none" fill-rule="evenodd" fill="black"></path></svg>