<svg viewBox="0 0 24 24" xmlns="http://www.w3.org/2000/svg"><path d="M11.120 2.039 C 8.641 2.287,6.414 3.362,4.761 5.107 C 1.806 8.228,1.158 12.819,3.137 16.623 C 3.620 17.552,4.164 18.288,4.938 19.061 C 5.930 20.051,7.038 20.789,8.272 21.278 C 11.634 22.610,15.313 22.080,18.200 19.845 C 18.637 19.507,19.507 18.637,19.845 18.200 C 21.256 16.378,22.000 14.236,22.000 12.000 C 22.000 7.432,18.842 3.387,14.430 2.303 C 13.446 2.062,12.028 1.948,11.120 2.039 M12.756 9.097 C 13.093 9.189,13.595 9.447,13.873 9.671 C 14.554 10.219,15.000 11.140,15.000 12.000 C 15.000 13.170,14.225 14.329,13.151 14.766 C 11.642 15.380,9.989 14.734,9.298 13.260 C 9.072 12.779,9.021 12.546,9.021 12.000 C 9.021 11.454,9.072 11.221,9.298 10.740 C 9.716 9.848,10.537 9.215,11.503 9.040 C 11.770 8.991,12.491 9.024,12.756 9.097 " stroke="none" fill-rule="evenodd" fill="black"></path></svg>