<svg viewBox="0 0 24 24" xmlns="http://www.w3.org/2000/svg"><path d="M16.291 1.619 C 16.220 1.650,16.125 1.735,16.081 1.808 C 16.006 1.931,16.000 2.008,16.000 2.969 L 16.000 3.998 10.690 4.010 L 5.380 4.022 5.042 4.113 C 4.647 4.218,4.072 4.481,3.731 4.712 C 2.965 5.233,2.409 6.017,2.131 6.968 L 2.022 7.340 2.010 11.670 L 1.998 16.000 2.999 16.000 L 4.000 16.000 4.000 11.927 C 4.000 9.175,4.014 7.778,4.043 7.617 C 4.184 6.849,4.849 6.184,5.617 6.043 C 5.782 6.013,8.125 6.000,13.297 6.000 C 20.609 6.000,20.742 5.998,20.868 5.922 C 21.092 5.785,21.175 5.526,21.070 5.294 C 21.010 5.162,16.782 1.626,16.638 1.587 C 16.499 1.550,16.437 1.556,16.291 1.619 M9.990 8.502 L 9.000 9.000 9.000 9.500 L 9.000 10.000 10.000 10.000 L 11.000 10.000 11.000 13.000 L 11.000 16.000 12.000 16.000 L 13.000 16.000 13.000 12.000 L 13.000 8.000 11.990 8.002 L 10.980 8.004 9.990 8.502 M20.000 12.073 C 20.000 14.825,19.986 16.222,19.957 16.383 C 19.819 17.138,19.170 17.797,18.408 17.956 C 18.258 17.987,16.028 18.000,10.736 18.000 C 2.743 18.000,3.171 17.989,2.988 18.191 C 2.890 18.300,2.859 18.532,2.922 18.685 C 2.999 18.872,7.222 22.385,7.411 22.421 C 7.598 22.456,7.819 22.356,7.919 22.192 C 7.994 22.069,8.000 21.993,8.000 21.030 L 8.000 20.000 13.184 20.000 C 18.267 20.000,18.375 19.998,18.774 19.917 C 20.291 19.608,21.458 18.514,21.872 17.012 L 21.980 16.620 21.991 12.310 L 22.002 8.000 21.001 8.000 L 20.000 8.000 20.000 12.073 " stroke="none" fill-rule="evenodd" fill="black"></path></svg>