<svg viewBox="0 0 24 24" xmlns="http://www.w3.org/2000/svg"><path d="M11.280 4.491 C 11.225 4.521,8.782 6.144,5.852 8.098 C 0.282 11.812,0.400 11.728,0.400 12.000 C 0.400 12.272,0.280 12.186,5.912 15.944 L 11.300 19.539 11.509 19.540 C 11.692 19.540,11.735 19.524,11.849 19.409 L 11.980 19.278 11.991 16.319 C 11.997 14.692,12.010 13.360,12.021 13.360 C 12.032 13.360,14.124 14.750,16.670 16.450 L 21.300 19.539 21.509 19.540 C 21.693 19.540,21.735 19.524,21.849 19.409 L 21.980 19.278 21.980 12.000 L 21.980 4.722 21.849 4.591 C 21.735 4.476,21.693 4.460,21.509 4.460 L 21.300 4.461 16.670 7.550 C 14.124 9.250,12.032 10.640,12.021 10.640 C 12.010 10.640,11.997 9.308,11.991 7.681 L 11.980 4.722 11.855 4.596 C 11.708 4.450,11.444 4.401,11.280 4.491 M10.000 12.000 C 10.000 14.332,9.991 16.240,9.980 16.240 C 9.928 16.240,3.640 12.021,3.649 11.993 C 3.661 11.957,9.922 7.767,9.970 7.763 C 9.986 7.761,10.000 9.668,10.000 12.000 M20.000 12.000 C 20.000 14.332,19.991 16.240,19.980 16.240 C 19.928 16.240,13.640 12.021,13.649 11.993 C 13.661 11.957,19.922 7.767,19.970 7.763 C 19.987 7.761,20.000 9.668,20.000 12.000 " stroke="none" fill-rule="evenodd" fill="black"></path></svg>