<svg viewBox="0 0 24 24" xmlns="http://www.w3.org/2000/svg"><path d="M16.664 4.063 C 16.436 4.146,16.257 4.297,16.131 4.511 L 16.020 4.700 16.000 8.010 L 15.980 11.320 10.840 7.891 L 5.700 4.461 5.491 4.460 C 5.307 4.460,5.265 4.476,5.151 4.591 L 5.020 4.722 5.020 12.000 L 5.020 19.278 5.151 19.409 C 5.265 19.524,5.307 19.540,5.491 19.540 L 5.700 19.539 10.840 16.109 L 15.980 12.680 16.000 15.990 L 16.020 19.300 16.131 19.489 C 16.470 20.065,17.234 20.168,17.701 19.701 C 18.025 19.377,18.000 20.023,18.000 12.000 C 18.000 3.977,18.025 4.623,17.701 4.299 C 17.429 4.027,17.018 3.933,16.664 4.063 " stroke="none" fill-rule="evenodd" fill="black"></path></svg>