<svg viewBox="0 0 24 24" xmlns="http://www.w3.org/2000/svg"><path d="M6.664 6.063 C 6.436 6.146,6.257 6.297,6.131 6.511 L 6.020 6.700 6.009 11.914 C 6.002 15.436,6.012 17.177,6.041 17.282 C 6.101 17.506,6.312 17.761,6.531 17.874 C 6.932 18.080,7.390 18.012,7.700 17.702 C 8.021 17.381,8.000 17.784,8.000 12.000 C 8.000 6.217,8.021 6.619,7.701 6.299 C 7.429 6.027,7.018 5.933,6.664 6.063 M16.134 6.614 C 14.208 7.942,9.038 11.632,8.970 11.726 C 8.866 11.872,8.854 12.073,8.940 12.239 C 8.981 12.319,10.059 13.103,12.450 14.790 C 14.347 16.130,15.997 17.292,16.114 17.373 C 16.358 17.540,16.570 17.566,16.763 17.452 C 17.014 17.304,17.000 17.628,17.000 12.000 C 17.000 6.372,17.014 6.696,16.763 6.548 C 16.575 6.437,16.358 6.460,16.134 6.614 M14.991 13.063 L 14.980 14.127 13.500 13.082 C 12.686 12.508,12.020 12.021,12.020 12.001 C 12.020 11.981,12.686 11.494,13.500 10.920 L 14.980 9.876 14.991 10.938 C 14.997 11.522,14.997 12.479,14.991 13.063 " stroke="none" fill-rule="evenodd" fill="black"></path></svg>