<svg viewBox="0 0 24 24" xmlns="http://www.w3.org/2000/svg"><path d="M6.664 4.063 C 6.436 4.146,6.257 4.297,6.131 4.511 L 6.020 4.700 6.010 11.914 C 6.002 16.806,6.013 19.178,6.041 19.282 C 6.101 19.506,6.312 19.761,6.531 19.874 C 7.036 20.134,7.643 19.944,7.886 19.450 L 7.980 19.260 8.000 15.970 L 8.020 12.680 13.160 16.109 L 18.300 19.539 18.509 19.540 C 18.693 19.540,18.735 19.524,18.849 19.409 L 18.980 19.278 18.980 12.000 L 18.980 4.722 18.849 4.591 C 18.735 4.476,18.693 4.460,18.509 4.460 L 18.300 4.461 13.160 7.891 L 8.020 11.320 8.000 8.030 L 7.980 4.740 7.886 4.550 C 7.669 4.109,7.128 3.893,6.664 4.063 " stroke="none" fill-rule="evenodd" fill="black"></path></svg>