<svg viewBox="0 0 24 24" xmlns="http://www.w3.org/2000/svg"><path d="M3.000 8.500 L 3.000 14.000 4.000 14.000 L 5.000 14.000 5.000 8.500 L 5.000 3.000 4.000 3.000 L 3.000 3.000 3.000 8.500 M11.000 4.500 L 11.000 6.000 10.000 6.000 L 9.000 6.000 9.000 7.000 L 9.000 8.000 12.000 8.000 L 15.000 8.000 15.000 7.000 L 15.000 6.000 14.000 6.000 L 13.000 6.000 13.000 4.500 L 13.000 3.000 12.000 3.000 L 11.000 3.000 11.000 4.500 M19.000 8.500 L 19.000 14.000 20.000 14.000 L 21.000 14.000 21.000 8.500 L 21.000 3.000 20.000 3.000 L 19.000 3.000 19.000 8.500 M11.000 15.500 L 11.000 21.000 12.000 21.000 L 13.000 21.000 13.000 15.500 L 13.000 10.000 12.000 10.000 L 11.000 10.000 11.000 15.500 M1.000 17.000 L 1.000 18.000 2.000 18.000 L 3.000 18.000 3.000 19.500 L 3.000 21.000 4.000 21.000 L 5.000 21.000 5.000 19.500 L 5.000 18.000 6.000 18.000 L 7.000 18.000 7.000 17.000 L 7.000 16.000 4.000 16.000 L 1.000 16.000 1.000 17.000 M17.000 17.000 L 17.000 18.000 18.000 18.000 L 19.000 18.000 19.000 19.500 L 19.000 21.000 20.000 21.000 L 21.000 21.000 21.000 19.500 L 21.000 18.000 22.000 18.000 L 23.000 18.000 23.000 17.000 L 23.000 16.000 20.000 16.000 L 17.000 16.000 17.000 17.000 " stroke="none" fill-rule="evenodd" fill="black"></path></svg>