<svg viewBox="0 0 24 24" xmlns="http://www.w3.org/2000/svg"><path d="M3.664 2.063 C 3.436 2.146,3.257 2.297,3.131 2.511 L 3.020 2.700 3.020 12.000 L 3.020 21.300 3.131 21.489 C 3.192 21.592,3.301 21.723,3.374 21.778 C 3.684 22.015,3.106 22.000,11.998 22.000 C 21.144 22.000,20.376 22.026,20.701 21.701 C 21.027 21.375,21.000 22.264,21.000 12.000 C 21.000 1.736,21.027 2.625,20.701 2.299 C 20.376 1.973,21.147 2.000,11.983 2.003 C 5.003 2.005,3.797 2.014,3.664 2.063 M12.520 5.099 C 12.917 5.239,13.243 5.570,13.402 5.994 C 13.533 6.343,13.503 6.814,13.329 7.169 C 13.175 7.480,12.924 7.722,12.600 7.873 C 12.413 7.961,12.324 7.976,12.000 7.976 C 11.676 7.976,11.587 7.961,11.400 7.873 C 11.076 7.722,10.825 7.480,10.671 7.169 C 10.495 6.811,10.467 6.343,10.600 5.989 C 10.834 5.364,11.429 4.973,12.080 5.018 C 12.223 5.028,12.421 5.064,12.520 5.099 M12.601 10.042 C 13.369 10.136,14.154 10.432,14.824 10.881 C 14.998 10.997,15.313 11.265,15.524 11.476 C 17.687 13.640,17.425 17.175,14.964 19.022 C 14.405 19.441,13.631 19.780,12.900 19.925 C 12.532 19.998,11.468 19.998,11.100 19.925 C 10.425 19.791,9.678 19.478,9.155 19.111 C 8.462 18.624,7.901 17.963,7.517 17.180 C 6.982 16.089,6.864 14.865,7.180 13.680 C 7.309 13.196,7.683 12.433,7.994 12.016 C 9.061 10.588,10.840 9.826,12.601 10.042 M11.503 12.040 C 10.828 12.162,10.156 12.550,9.703 13.080 C 8.987 13.917,8.806 15.100,9.234 16.151 C 9.521 16.857,10.143 17.479,10.849 17.766 C 11.989 18.230,13.251 17.978,14.115 17.115 C 15.238 15.992,15.295 14.212,14.246 13.020 C 13.897 12.624,13.276 12.239,12.756 12.097 C 12.491 12.024,11.770 11.991,11.503 12.040 " stroke="none" fill-rule="evenodd" fill="black"></path></svg>