<svg viewBox="0 0 24 24" xmlns="http://www.w3.org/2000/svg"><path d="M4.230 6.550 C 3.987 6.701,4.000 6.389,4.000 12.000 C 4.000 17.628,3.986 17.304,4.237 17.452 C 4.405 17.551,4.641 17.539,4.813 17.422 C 4.892 17.368,6.542 16.205,8.480 14.838 C 10.894 13.134,12.021 12.316,12.061 12.238 C 12.136 12.093,12.136 11.907,12.062 11.764 C 12.013 11.670,8.910 9.449,5.085 6.771 C 4.731 6.522,4.646 6.480,4.505 6.481 C 4.414 6.482,4.291 6.513,4.230 6.550 M13.230 6.550 C 12.987 6.701,13.000 6.389,13.000 12.000 C 13.000 17.628,12.986 17.304,13.237 17.452 C 13.405 17.551,13.641 17.539,13.813 17.422 C 13.892 17.368,15.542 16.205,17.480 14.838 C 19.894 13.134,21.021 12.316,21.061 12.238 C 21.136 12.093,21.136 11.907,21.062 11.764 C 21.013 11.670,17.910 9.449,14.085 6.771 C 13.731 6.522,13.646 6.480,13.505 6.481 C 13.414 6.482,13.291 6.513,13.230 6.550 M7.586 10.981 C 8.353 11.522,8.980 11.981,8.980 12.001 C 8.980 12.032,6.058 14.120,6.015 14.120 C 6.007 14.120,6.000 13.164,6.000 11.995 L 6.000 9.871 6.096 9.934 C 6.149 9.968,6.819 10.439,7.586 10.981 M16.586 10.981 C 17.353 11.522,17.980 11.981,17.980 12.001 C 17.980 12.032,15.058 14.120,15.015 14.120 C 15.007 14.120,15.000 13.164,15.000 11.995 L 15.000 9.871 15.096 9.934 C 15.149 9.968,15.819 10.439,16.586 10.981 " stroke="none" fill-rule="evenodd" fill="black"></path></svg>