<svg viewBox="0 0 24 24" xmlns="http://www.w3.org/2000/svg"><path d="M17.440 5.100 L 15.500 7.040 16.740 8.280 L 17.980 9.520 16.740 10.760 L 15.500 12.000 16.740 13.240 L 17.980 14.480 16.740 15.720 L 15.500 16.960 17.440 18.900 L 19.379 20.840 20.090 20.130 L 20.800 19.421 19.560 18.180 L 18.320 16.940 19.560 15.700 L 20.800 14.460 19.570 13.230 L 18.340 12.000 19.570 10.770 L 20.800 9.540 19.560 8.300 L 18.320 7.060 19.560 5.820 L 20.800 4.579 20.090 3.870 L 19.379 3.160 17.440 5.100 M12.312 3.591 C 12.275 3.607,11.045 4.601,9.580 5.800 L 6.915 7.980 4.826 8.000 L 2.738 8.020 2.539 8.122 C 2.316 8.237,2.104 8.488,2.042 8.711 C 1.985 8.916,1.985 15.084,2.042 15.289 C 2.104 15.512,2.316 15.763,2.539 15.878 L 2.738 15.980 4.827 16.000 L 6.916 16.020 9.577 18.200 C 11.040 19.399,12.291 20.396,12.356 20.415 C 12.534 20.468,12.732 20.414,12.863 20.277 L 12.980 20.155 12.980 11.998 L 12.980 3.842 12.855 3.716 C 12.761 3.623,12.685 3.587,12.555 3.576 C 12.459 3.568,12.350 3.575,12.312 3.591 " stroke="none" fill-rule="evenodd" fill="black"></path></svg>