<svg fill="currentColor" viewBox="0 0 256 256" xmlns="http://www.w3.org/2000/svg"><path d="M60.587 24.487 C 53.988 25.954,49.321 30.984,48.198 37.836 C 47.975 39.202,47.790 45.648,47.789 52.160 L 47.787 64.000 39.147 64.009 C 31.688 64.017,30.271 64.126,28.782 64.802 C 25.257 66.403,23.318 70.189,24.245 73.658 C 24.958 76.322,25.844 77.510,28.114 78.844 C 30.054 79.985,30.196 80.002,38.933 80.144 L 47.787 80.288 47.787 100.054 L 47.787 119.820 38.688 119.963 L 29.589 120.107 27.791 121.297 C 24.654 123.374,23.380 126.644,24.332 130.176 C 24.958 132.502,27.403 135.003,29.663 135.631 C 30.629 135.899,34.898 136.103,39.573 136.104 L 47.787 136.107 47.787 156.160 L 47.787 176.213 38.697 176.213 L 29.607 176.213 27.679 177.436 C 22.355 180.812,22.976 188.561,28.782 191.198 C 30.271 191.874,31.688 191.983,39.147 191.991 L 47.787 192.000 47.789 203.840 C 47.790 210.352,47.975 216.798,48.198 218.164 C 49.117 223.772,52.380 228.107,57.514 230.539 L 60.373 231.893 135.893 231.893 L 211.413 231.893 213.865 230.903 C 217.288 229.521,220.659 226.317,222.390 222.802 L 223.787 219.965 223.787 128.009 L 223.787 36.053 222.643 33.614 C 220.330 28.678,215.762 25.169,210.536 24.314 C 206.534 23.658,63.571 23.823,60.587 24.487 M146.896 73.562 C 158.921 77.122,168.641 85.897,173.166 97.280 C 175.903 104.163,176.594 113.385,174.935 120.887 C 173.502 127.368,169.098 135.499,164.744 139.703 L 163.007 141.380 167.359 143.691 C 175.144 147.823,181.119 152.534,187.156 159.298 C 191.851 164.558,192.883 167.721,191.103 171.397 C 189.992 173.692,188.097 175.179,185.556 175.749 C 181.989 176.548,181.049 175.989,173.907 168.815 C 169.022 163.909,166.569 161.796,163.751 160.068 C 141.327 146.311,113.123 150.730,96.177 170.655 C 92.627 174.829,90.852 175.952,87.863 175.913 C 85.479 175.882,83.750 175.032,81.990 173.027 C 80.372 171.185,80.052 170.054,80.301 167.051 C 80.542 164.150,82.397 161.543,88.508 155.520 C 93.643 150.459,98.158 147.149,104.308 143.937 L 108.821 141.580 106.741 139.164 C 103.464 135.355,101.669 132.646,99.844 128.751 C 93.404 115.009,95.455 98.711,105.137 86.675 C 110.058 80.558,118.166 75.325,125.653 73.434 C 130.506 72.209,130.984 72.163,137.387 72.315 C 142.069 72.427,143.848 72.660,146.896 73.562 M132.690 88.294 C 120.964 89.881,112.074 100.102,112.074 112.000 C 112.074 128.449,128.464 140.094,143.840 134.569 C 145.571 133.948,147.986 132.778,149.207 131.971 C 152.022 130.110,155.601 126.248,157.129 123.423 C 158.679 120.558,160.000 115.302,160.000 112.000 C 160.000 108.717,158.686 103.466,157.137 100.555 C 155.466 97.417,150.519 92.554,147.391 90.976 C 142.682 88.600,137.466 87.648,132.690 88.294 " stroke="none" fill-rule="evenodd"></path></svg>