<svg fill="currentColor" viewBox="0 0 256 256" xmlns="http://www.w3.org/2000/svg"><path d="M100.338 9.022 C 97.590 10.383,96.213 12.711,96.213 16.000 C 96.213 19.314,97.602 21.647,100.373 22.988 C 102.094 23.821,102.947 23.893,111.068 23.893 L 119.893 23.893 119.893 39.879 L 119.893 55.865 78.187 55.986 L 36.480 56.107 33.654 57.446 C 29.725 59.307,27.594 61.380,25.729 65.153 C 24.305 68.034,24.156 68.665,24.155 71.821 L 24.153 75.307 37.972 113.246 C 47.320 138.910,52.225 151.818,53.131 153.140 C 54.978 155.831,58.153 158.147,61.378 159.154 C 64.032 159.982,65.463 160.000,128.000 160.000 C 190.537 160.000,191.968 159.982,194.622 159.154 C 197.847 158.147,201.022 155.831,202.869 153.140 C 204.513 150.742,231.481 76.846,231.914 73.550 C 232.746 67.227,229.053 60.796,222.821 57.716 L 219.565 56.107 177.836 55.986 L 136.107 55.865 136.107 39.879 L 136.107 23.893 144.932 23.893 C 153.053 23.893,153.906 23.821,155.627 22.988 C 158.398 21.647,159.787 19.314,159.787 16.000 C 159.787 12.686,158.398 10.353,155.627 9.012 C 153.785 8.120,153.376 8.107,127.972 8.107 C 102.468 8.107,102.166 8.117,100.338 9.022 M93.732 72.560 C 95.197 73.114,97.149 74.910,97.948 76.439 C 98.737 77.949,108.800 133.327,108.800 136.160 C 108.800 142.070,102.725 145.711,97.398 142.994 C 95.364 141.956,94.159 140.428,93.481 138.027 C 93.078 136.598,85.582 95.914,83.428 83.461 C 82.934 80.605,82.882 79.260,83.217 78.015 C 83.751 76.033,85.895 73.476,87.672 72.701 C 89.246 72.015,92.113 71.949,93.732 72.560 M167.972 72.560 C 170.885 73.661,172.932 76.745,172.903 79.990 C 172.892 81.169,170.556 94.901,167.711 110.507 C 163.012 136.282,162.432 139.033,161.376 140.549 C 157.040 146.772,147.200 143.767,147.200 136.219 C 147.200 133.345,157.253 77.968,158.052 76.439 C 158.817 74.975,160.777 73.124,162.133 72.585 C 163.567 72.015,166.496 72.003,167.972 72.560 M97.105 177.526 L 96.000 178.839 96.009 202.166 C 96.018 223.933,96.071 225.607,96.806 227.200 C 97.760 229.265,99.110 230.565,101.219 231.446 C 102.586 232.018,106.214 232.105,128.093 232.097 C 151.772 232.089,153.496 232.038,155.093 231.300 C 157.159 230.347,158.459 228.996,159.340 226.888 C 159.908 225.527,160.000 222.079,160.000 202.073 L 160.000 178.839 158.895 177.526 L 157.791 176.213 128.000 176.213 L 98.209 176.213 97.105 177.526 " stroke="none" fill-rule="evenodd"></path></svg>