<svg fill="currentColor" viewBox="0 0 256 256" xmlns="http://www.w3.org/2000/svg"><path d="M121.248 16.836 C 119.998 17.138,117.313 18.210,115.280 19.217 C 110.316 21.677,105.429 26.487,103.162 31.147 C 100.037 37.571,100.124 36.670,99.951 64.331 L 99.796 89.195 59.319 109.434 C 15.537 131.326,17.242 130.338,16.222 134.400 C 15.892 135.713,15.781 141.646,15.870 153.173 C 15.985 168.069,16.084 170.180,16.725 171.350 C 17.689 173.111,20.214 175.286,21.661 175.603 C 22.302 175.743,23.058 175.928,23.340 176.015 C 23.623 176.101,40.711 172.823,61.313 168.732 C 81.916 164.640,99.013 161.289,99.307 161.286 C 99.721 161.281,99.840 163.927,99.840 173.108 L 99.840 184.936 90.282 194.548 C 80.796 204.087,80.720 204.178,80.231 206.583 C 79.906 208.185,79.783 213.242,79.869 221.516 C 79.996 233.675,80.028 234.075,80.983 235.741 C 82.744 238.813,86.290 240.487,89.492 239.759 C 90.373 239.559,99.245 236.123,109.207 232.124 C 119.170 228.125,127.628 224.853,128.002 224.853 C 128.376 224.853,137.109 228.235,147.409 232.369 C 167.256 240.335,168.530 240.701,171.339 239.234 C 172.754 238.496,174.548 236.673,175.415 235.093 C 176.209 233.645,176.505 210.205,175.774 206.607 C 175.279 204.171,175.232 204.115,165.718 194.548 L 156.160 184.936 156.160 173.108 C 156.160 164.799,156.299 161.280,156.629 161.280 C 156.887 161.280,173.982 164.631,194.619 168.727 C 215.255 172.823,232.372 176.103,232.657 176.016 C 232.941 175.929,233.698 175.743,234.339 175.603 C 235.786 175.286,238.311 173.111,239.275 171.350 C 239.916 170.180,240.015 168.069,240.130 153.173 C 240.219 141.646,240.108 135.713,239.778 134.400 C 238.758 130.338,240.465 131.327,196.659 109.423 L 156.160 89.172 156.152 66.240 C 156.147 53.299,155.958 42.024,155.718 40.364 C 154.338 30.822,148.706 23.080,140.160 18.981 C 138.048 17.968,135.303 16.930,134.059 16.676 C 131.060 16.062,124.085 16.149,121.248 16.836 " stroke="none" fill-rule="evenodd"></path></svg>