<svg fill="currentColor" viewBox="0 0 256 256" xmlns="http://www.w3.org/2000/svg"><path d="M27.679 49.436 C 26.519 50.172,25.424 51.318,24.929 52.316 C 24.126 53.933,24.107 55.753,24.107 128.000 L 24.107 202.027 24.999 203.733 C 27.842 209.173,36.158 209.173,39.001 203.733 L 39.893 202.027 39.893 128.000 C 39.893 55.753,39.874 53.933,39.071 52.316 C 37.847 49.850,35.026 48.213,32.000 48.213 C 30.099 48.213,29.211 48.465,27.679 49.436 M66.521 81.020 C 62.135 82.736,59.385 85.379,57.254 89.926 L 56.107 92.373 56.107 128.000 L 56.107 163.627 57.461 166.486 C 59.933 171.703,64.298 174.937,70.070 175.826 C 71.740 176.083,101.793 176.193,149.973 176.119 L 227.200 176.000 229.463 175.072 C 233.833 173.281,237.281 169.833,239.072 165.463 C 239.999 163.202,240.000 163.162,240.000 128.000 C 240.000 92.838,239.999 92.798,239.072 90.537 C 237.249 86.089,233.540 82.432,229.403 81.003 C 227.319 80.282,222.909 80.242,147.840 80.247 C 72.492 80.253,68.381 80.292,66.521 81.020 " stroke="none" fill-rule="evenodd"></path></svg>