<svg fill="currentColor" viewBox="0 0 256 256" xmlns="http://www.w3.org/2000/svg"><path d="M91.747 32.683 C 85.810 34.279,81.411 39.156,80.252 45.429 C 79.940 47.115,79.787 59.782,79.787 83.896 L 79.787 119.848 62.827 119.977 C 47.979 120.091,45.707 120.195,44.587 120.815 C 38.380 124.251,38.619 132.337,45.013 135.298 C 46.581 136.023,48.071 136.089,63.253 136.097 L 79.787 136.107 79.787 172.082 C 79.787 196.146,79.940 208.895,80.250 210.588 C 81.213 215.845,84.692 220.341,89.600 222.672 L 91.947 223.787 128.000 223.787 L 164.053 223.787 166.400 222.672 C 171.308 220.341,174.787 215.845,175.750 210.588 C 176.060 208.895,176.213 196.146,176.213 172.082 L 176.213 136.107 192.747 136.097 C 207.929 136.089,209.419 136.023,210.987 135.298 C 216.176 132.895,217.584 126.693,213.840 122.735 C 211.311 120.063,211.730 120.119,193.173 119.977 L 176.213 119.848 176.213 83.896 C 176.213 59.782,176.060 47.115,175.748 45.429 C 174.571 39.060,170.172 34.252,164.066 32.661 C 160.371 31.699,95.337 31.718,91.747 32.683 " stroke="none" fill-rule="evenodd"></path></svg>