<svg fill="currentColor" viewBox="0 0 256 256" xmlns="http://www.w3.org/2000/svg"><path d="M36.903 32.796 C 29.817 36.015,30.827 46.123,38.396 47.746 C 41.475 48.406,214.525 48.406,217.604 47.746 C 225.173 46.123,226.183 36.015,219.097 32.796 C 217.460 32.052,213.548 32.019,128.000 32.019 C 42.452 32.019,38.540 32.052,36.903 32.796 M59.747 64.674 C 53.793 66.297,49.410 71.160,48.252 77.429 C 47.650 80.680,47.600 214.510,48.198 218.164 C 49.117 223.772,52.380 228.107,57.514 230.539 L 60.373 231.893 83.840 231.893 L 107.307 231.893 109.957 230.776 C 114.326 228.935,117.551 225.566,119.062 221.266 C 119.888 218.917,119.901 217.572,119.792 147.303 L 119.680 75.733 118.434 73.197 C 116.789 69.846,114.099 67.229,110.592 65.568 L 107.733 64.213 84.907 64.126 C 65.814 64.053,61.698 64.142,59.747 64.674 M148.372 64.463 C 143.863 65.526,139.667 68.917,137.566 73.197 L 136.320 75.733 136.188 126.720 C 136.095 163.073,136.193 178.341,136.533 179.918 C 137.163 182.848,139.838 186.903,142.377 188.780 C 143.505 189.613,145.687 190.686,147.228 191.165 C 149.924 192.003,150.890 192.031,173.041 191.911 L 196.053 191.787 198.400 190.672 C 203.308 188.341,206.787 183.845,207.750 178.588 C 208.397 175.051,208.396 80.934,207.748 77.429 C 206.571 71.060,202.172 66.252,196.066 64.661 C 193.922 64.103,190.141 64.007,171.750 64.043 C 159.773 64.066,149.253 64.256,148.372 64.463 " stroke="none" fill-rule="evenodd"></path></svg>