<svg fill="currentColor" viewBox="0 0 256 256" xmlns="http://www.w3.org/2000/svg"><path d="M219.679 49.436 C 218.519 50.172,217.424 51.318,216.929 52.316 C 216.126 53.933,216.107 55.753,216.107 128.000 L 216.107 202.027 216.999 203.733 C 219.842 209.173,228.158 209.173,231.001 203.733 L 231.893 202.027 231.893 128.000 C 231.893 55.753,231.874 53.933,231.071 52.316 C 229.847 49.850,227.026 48.213,224.000 48.213 C 222.099 48.213,221.211 48.465,219.679 49.436 M26.597 81.001 C 22.457 82.435,18.751 86.090,16.928 90.537 C 16.001 92.798,16.000 92.838,16.000 128.000 C 16.000 163.162,16.001 163.202,16.928 165.463 C 18.719 169.833,22.167 173.281,26.537 175.072 L 28.800 176.000 106.027 176.119 C 154.207 176.193,184.260 176.083,185.930 175.826 C 191.702 174.937,196.067 171.703,198.539 166.486 L 199.893 163.627 199.893 128.000 L 199.893 92.373 198.539 89.514 C 196.878 86.008,194.260 83.317,190.910 81.672 L 188.373 80.427 108.587 80.332 C 32.908 80.243,28.687 80.277,26.597 81.001 " stroke="none" fill-rule="evenodd"></path></svg>