<svg fill="currentColor" viewBox="0 0 256 256" xmlns="http://www.w3.org/2000/svg"><path d="M120.960 24.326 C 100.935 25.586,81.587 32.844,64.891 45.360 C 59.554 49.360,49.234 59.686,45.276 64.986 C 34.512 79.399,27.973 94.882,25.095 112.768 C 23.886 120.283,23.787 134.307,24.890 141.867 C 27.542 160.046,34.293 176.318,45.279 191.014 C 49.299 196.392,59.608 206.701,64.986 210.721 C 79.686 221.710,96.000 228.476,114.133 231.105 C 117.683 231.620,121.936 231.847,128.000 231.847 C 144.598 231.847,158.874 228.583,173.440 221.458 C 184.661 215.968,192.320 210.472,201.396 201.396 C 210.475 192.317,215.974 184.654,221.456 173.440 C 235.707 144.287,235.458 110.173,220.780 81.026 C 214.698 68.950,203.517 55.194,193.067 46.931 C 172.349 30.550,147.221 22.673,120.960 24.326 M114.038 56.346 C 116.711 57.088,118.290 58.943,123.090 66.982 C 125.614 71.208,127.824 74.667,128.000 74.667 C 128.176 74.667,130.386 71.208,132.910 66.982 C 135.434 62.755,138.143 58.731,138.930 58.040 C 142.342 55.044,146.944 55.465,150.102 59.062 C 151.562 60.725,152.114 62.768,151.778 65.268 C 151.620 66.446,145.719 76.639,130.860 101.401 L 110.161 135.893 120.467 136.107 C 131.341 136.332,131.618 136.383,133.601 138.523 C 135.296 140.352,135.802 141.610,135.802 143.989 C 135.802 147.269,133.762 150.340,130.852 151.440 C 129.177 152.072,54.716 152.072,53.041 151.440 C 50.164 150.353,48.213 147.363,48.213 144.041 C 48.213 140.789,49.508 138.548,52.267 137.026 C 53.386 136.409,55.929 136.293,72.533 136.107 L 91.520 135.893 104.614 114.133 C 111.815 102.165,117.924 91.977,118.190 91.492 C 118.612 90.723,117.773 89.113,111.533 78.723 C 103.896 66.007,103.378 64.728,104.492 61.352 C 105.114 59.466,107.386 57.271,109.493 56.520 C 111.521 55.797,111.998 55.779,114.038 56.346 M150.391 113.719 C 151.377 114.535,154.158 118.708,158.201 125.440 L 164.480 135.893 183.467 136.107 C 204.620 136.344,203.995 136.256,206.361 139.357 C 207.287 140.572,207.571 141.463,207.689 143.518 C 207.865 146.615,207.065 148.401,204.610 150.389 L 203.016 151.680 188.590 151.893 L 174.164 152.107 182.903 166.676 C 189.120 177.040,191.709 181.736,191.871 182.946 C 192.482 187.500,188.558 192.017,184.014 191.991 C 182.170 191.980,179.322 190.796,178.278 189.607 C 177.518 188.741,139.972 126.288,138.622 123.644 C 137.658 121.756,137.554 118.213,138.415 116.565 C 139.058 115.334,140.896 113.496,142.293 112.686 C 142.782 112.403,144.367 112.247,146.003 112.322 C 148.436 112.433,149.085 112.639,150.391 113.719 M79.914 168.683 C 83.131 170.027,85.283 174.131,84.530 177.484 C 84.149 179.177,80.367 186.006,78.177 188.953 C 76.220 191.588,72.062 192.706,68.993 191.424 C 67.230 190.687,65.092 188.256,64.422 186.227 C 63.556 183.600,64.129 181.647,67.339 176.289 C 70.410 171.164,71.958 169.323,73.813 168.585 C 75.360 167.970,78.321 168.018,79.914 168.683 " stroke="none" fill-rule="evenodd"></path></svg>