<svg fill="currentColor" viewBox="0 0 256 256" xmlns="http://www.w3.org/2000/svg"><path d="M149.711 24.472 C 148.863 24.781,147.615 25.436,146.938 25.928 C 146.261 26.420,134.819 37.731,121.511 51.064 C 104.794 67.813,97.112 75.797,96.658 76.893 C 95.162 80.501,96.455 84.558,99.772 86.662 L 101.714 87.893 122.750 87.893 L 143.787 87.893 143.787 111.265 C 143.787 135.050,143.629 138.200,142.037 146.133 C 140.256 155.008,135.749 166.196,130.640 174.422 C 122.189 188.032,110.082 199.112,95.660 206.435 C 84.239 212.234,73.529 215.064,59.983 215.863 C 54.506 216.186,53.562 216.355,51.951 217.299 C 48.222 219.484,47.009 224.217,49.213 227.978 C 51.455 231.802,53.844 232.465,62.801 231.746 C 77.077 230.599,88.805 227.506,100.924 221.693 C 128.795 208.322,149.690 182.610,156.952 152.747 C 159.632 141.724,159.702 140.790,159.889 113.173 L 160.060 87.893 180.909 87.893 C 194.572 87.893,202.172 87.737,202.959 87.440 C 204.987 86.676,206.917 84.456,207.602 82.098 C 207.951 80.898,208.151 79.647,208.047 79.318 C 207.943 78.989,207.734 78.144,207.583 77.440 C 207.378 76.481,200.972 69.810,182.054 50.851 C 168.164 36.931,156.320 25.290,155.733 24.982 C 154.017 24.079,151.399 23.858,149.711 24.472 " stroke="none" fill-rule="evenodd"></path></svg>