<svg fill="currentColor" viewBox="0 0 256 256" xmlns="http://www.w3.org/2000/svg"><path d="M118.613 32.466 C 96.458 34.724,75.551 44.670,59.947 60.375 C 42.204 78.232,32.000 102.823,32.000 127.725 C 32.000 155.641,44.192 182.447,65.067 200.425 C 100.240 230.718,151.017 231.903,187.520 203.282 C 194.449 197.849,196.267 195.513,196.267 192.041 C 196.267 188.996,194.627 186.339,191.856 184.891 C 190.294 184.076,186.446 184.078,184.891 184.896 C 184.225 185.246,181.952 187.024,179.840 188.846 C 168.484 198.644,153.680 205.252,138.240 207.415 C 133.431 208.088,122.810 208.073,117.760 207.386 C 90.603 203.688,67.693 187.058,55.921 162.498 C 52.885 156.162,51.138 151.018,49.663 144.069 C 48.158 136.977,47.765 124.199,48.827 116.907 C 53.088 87.659,72.522 63.410,99.898 53.185 C 124.807 43.881,153.207 47.653,174.720 63.122 C 178.061 65.525,194.912 80.626,194.957 81.259 C 194.973 81.482,190.888 85.802,185.878 90.859 C 177.585 99.229,176.724 100.237,176.267 102.100 C 175.625 104.714,176.191 106.979,178.001 109.041 C 180.747 112.168,179.072 112.000,207.573 112.000 C 221.653 112.000,233.698 111.853,234.339 111.674 C 235.828 111.257,238.340 109.057,239.275 107.350 C 239.935 106.146,240.000 103.685,240.000 80.000 L 240.000 53.973 238.869 52.049 C 237.404 49.557,235.061 48.213,232.183 48.213 C 230.998 48.213,229.488 48.417,228.828 48.666 C 228.167 48.915,222.910 53.819,217.145 59.563 L 206.664 70.008 199.652 63.541 C 190.335 54.949,186.136 51.458,181.071 48.098 C 169.473 40.401,156.015 35.223,142.055 33.085 C 136.553 32.242,124.049 31.913,118.613 32.466 " stroke="none" fill-rule="evenodd"></path></svg>