<svg fill="currentColor" viewBox="0 0 256 256" xmlns="http://www.w3.org/2000/svg"><path d="M124.800 32.806 C 122.735 33.760,121.435 35.110,120.554 37.219 C 119.965 38.628,119.893 48.453,119.893 128.000 C 119.893 207.547,119.965 217.372,120.554 218.781 C 123.408 225.612,132.592 225.612,135.446 218.781 C 136.035 217.372,136.106 207.552,136.097 127.907 C 136.088 42.006,136.058 38.548,135.300 36.907 C 133.370 32.725,128.823 30.949,124.800 32.806 M46.178 88.313 C 45.411 88.494,44.067 89.139,43.192 89.747 C 40.174 91.840,9.472 122.999,8.769 124.681 C 7.924 126.703,7.924 129.298,8.769 131.320 C 9.215 132.387,14.825 138.311,25.943 149.453 C 42.965 166.514,44.863 168.120,47.977 168.097 C 50.781 168.077,54.436 165.508,55.440 162.852 C 55.723 162.101,55.893 156.866,55.893 148.879 L 55.893 136.107 76.267 136.104 C 89.815 136.103,97.209 135.944,98.337 135.631 C 100.597 135.003,103.042 132.502,103.668 130.176 C 104.620 126.644,103.346 123.374,100.208 121.297 L 98.410 120.107 77.152 119.981 L 55.893 119.856 55.893 107.102 C 55.893 99.129,55.723 93.899,55.440 93.148 C 54.126 89.672,49.857 87.443,46.178 88.313 M207.147 88.104 C 206.912 88.182,206.196 88.361,205.554 88.502 C 203.991 88.847,201.395 91.183,200.683 92.886 C 200.242 93.941,200.107 97.280,200.107 107.061 L 200.107 119.856 178.848 119.981 L 157.590 120.107 155.792 121.297 C 152.654 123.374,151.380 126.644,152.332 130.176 C 152.958 132.502,155.403 135.003,157.663 135.631 C 158.791 135.944,166.185 136.103,179.733 136.104 L 200.107 136.107 200.107 148.879 C 200.107 156.866,200.277 162.101,200.560 162.852 C 201.564 165.508,205.219 168.077,208.023 168.097 C 211.154 168.120,213.023 166.533,230.242 149.239 C 243.407 136.017,247.041 132.132,247.460 130.830 C 248.224 128.462,247.810 125.341,246.478 123.421 C 244.826 121.040,213.332 89.804,211.840 89.067 C 210.495 88.402,207.872 87.864,207.147 88.104 " stroke="none" fill-rule="evenodd"></path></svg>