<svg fill="currentColor" viewBox="0 0 256 256" xmlns="http://www.w3.org/2000/svg"><path d="M76.813 40.782 C 74.863 41.628,73.895 42.542,72.915 44.463 C 72.133 45.995,72.107 48.031,72.107 107.076 L 72.107 168.107 59.072 168.107 C 45.318 168.107,44.810 168.170,42.515 170.185 C 40.181 172.233,39.432 176.658,40.931 179.537 C 41.951 181.496,74.788 214.272,76.672 215.212 C 77.423 215.587,78.921 215.893,80.000 215.893 C 81.079 215.893,82.577 215.587,83.328 215.212 C 85.212 214.272,118.049 181.496,119.069 179.537 C 120.568 176.658,119.819 172.233,117.485 170.185 C 115.190 168.170,114.682 168.107,100.928 168.107 L 87.893 168.107 87.884 107.200 C 87.875 49.012,87.840 46.217,87.091 44.587 C 86.159 42.557,85.207 41.647,83.091 40.763 C 81.125 39.941,78.735 39.949,76.813 40.782 M172.800 40.779 C 170.910 41.588,138.089 74.241,136.931 76.463 C 135.432 79.342,136.181 83.767,138.515 85.815 C 140.810 87.830,141.318 87.893,155.072 87.893 L 168.107 87.893 168.107 148.924 C 168.107 207.969,168.133 210.005,168.915 211.537 C 169.913 213.492,170.882 214.390,172.909 215.237 C 175.815 216.451,179.932 215.645,181.850 213.485 C 183.986 211.080,183.893 214.014,183.893 148.707 L 183.893 87.893 196.924 87.893 C 208.868 87.893,210.086 87.826,211.537 87.085 C 215.466 85.080,217.060 80.286,215.069 76.463 C 213.840 74.104,181.072 41.573,179.107 40.762 C 177.123 39.942,174.740 39.949,172.800 40.779 " stroke="none" fill-rule="evenodd"></path></svg>