<svg fill="currentColor" viewBox="0 0 256 256" xmlns="http://www.w3.org/2000/svg"><path d="M156.800 72.711 C 154.241 73.854,151.882 77.410,151.903 80.093 C 151.927 83.133,153.324 84.800,169.084 100.590 L 184.525 116.061 152.210 148.376 L 119.896 180.690 73.921 134.743 C 40.623 101.464,27.594 88.705,26.667 88.466 C 19.385 86.594,13.505 93.717,17.202 99.932 C 17.801 100.937,40.239 123.666,67.065 150.439 C 118.430 201.704,116.719 200.107,120.277 200.107 C 122.953 200.107,124.536 198.634,160.098 163.088 L 195.823 127.379 211.725 143.219 C 228.456 159.885,228.609 160.009,232.320 159.988 C 235.547 159.971,238.799 157.265,239.742 153.813 C 240.392 151.437,240.397 81.540,239.749 78.515 C 239.205 75.982,237.772 74.109,235.483 72.941 C 233.895 72.131,232.740 72.107,195.964 72.123 C 165.262 72.137,157.837 72.248,156.800 72.711 " stroke="none" fill-rule="evenodd"></path></svg>