<svg fill="currentColor" viewBox="0 0 256 256" xmlns="http://www.w3.org/2000/svg"><path d="M76.587 48.828 C 74.572 49.744,25.334 99.309,24.548 101.213 C 23.763 103.114,23.734 104.083,24.390 106.404 C 24.817 107.914,28.385 111.670,49.883 133.238 C 66.546 149.955,75.458 158.597,76.615 159.158 C 81.338 161.450,87.076 158.402,87.769 153.231 C 88.337 148.994,89.328 150.189,65.363 126.187 L 43.318 104.107 64.948 82.453 C 79.827 67.558,86.783 60.305,87.235 59.214 C 88.941 55.101,87.196 50.459,83.320 48.801 C 81.584 48.058,78.253 48.071,76.587 48.828 M123.710 49.446 C 120.664 51.426,73.541 98.913,72.764 100.786 C 72.003 102.624,71.913 105.237,72.553 106.959 C 73.217 108.747,122.681 158.186,124.800 159.181 C 125.739 159.621,127.179 159.981,128.000 159.981 C 131.308 159.981,134.769 157.334,135.661 154.120 C 135.935 153.133,136.103 144.972,136.104 132.525 L 136.107 112.517 138.808 112.769 C 150.566 113.867,166.182 119.689,176.956 126.991 C 194.714 139.027,207.499 156.869,212.875 177.120 C 214.571 183.506,215.413 188.965,215.815 196.167 C 216.207 203.182,216.820 204.775,219.859 206.663 C 222.582 208.354,225.418 208.354,228.141 206.663 C 231.313 204.693,231.906 203.092,231.832 196.693 C 231.680 183.347,227.982 168.171,221.696 155.093 C 206.323 123.111,175.584 101.054,140.491 96.823 L 136.129 96.297 136.011 75.135 C 135.900 55.229,135.845 53.875,135.071 52.316 C 133.103 48.350,127.554 46.948,123.710 49.446 " stroke="none" fill-rule="evenodd"></path></svg>