<svg fill="currentColor" viewBox="0 0 256 256" xmlns="http://www.w3.org/2000/svg"><path d="M27.679 49.436 C 24.591 51.395,24.091 52.867,24.186 59.733 C 24.369 72.944,28.035 87.864,34.304 100.907 C 39.206 111.104,44.998 119.463,52.812 127.618 C 69.154 144.672,89.099 155.054,113.067 158.983 C 116.844 159.602,121.510 159.744,142.827 159.889 L 168.107 160.060 168.107 180.909 C 168.107 194.572,168.263 202.172,168.560 202.959 C 169.320 204.977,171.545 206.917,173.876 207.595 C 175.776 208.147,176.284 208.146,178.149 207.588 C 180.117 206.999,182.050 205.169,205.532 181.664 C 230.587 156.583,232.107 154.903,232.107 152.277 C 232.107 148.819,232.240 148.970,206.117 122.762 C 189.454 106.045,180.542 97.403,179.385 96.842 C 175.892 95.147,171.601 96.314,169.465 99.540 L 168.320 101.270 168.107 122.635 L 167.893 144.000 144.427 143.980 C 124.225 143.963,120.277 143.856,116.053 143.208 C 95.587 140.072,78.117 131.065,64.332 116.542 C 49.463 100.877,41.433 81.999,40.169 59.733 C 39.778 52.849,39.180 51.249,36.321 49.436 C 34.789 48.465,33.901 48.213,32.000 48.213 C 30.099 48.213,29.211 48.465,27.679 49.436 " stroke="none" fill-rule="evenodd"></path></svg>