<svg fill="currentColor" viewBox="0 0 256 256" xmlns="http://www.w3.org/2000/svg"><path d="M44.265 32.461 C 39.776 33.526,35.661 36.951,33.540 41.387 L 32.213 44.160 32.213 128.000 L 32.213 211.840 33.407 214.400 C 34.974 217.760,38.261 221.060,41.555 222.583 L 44.160 223.787 128.000 223.787 L 211.840 223.787 214.445 222.583 C 217.739 221.060,221.026 217.760,222.593 214.400 L 223.787 211.840 223.787 128.000 L 223.787 44.160 222.583 41.555 C 221.060 38.261,217.760 34.974,214.400 33.407 L 211.840 32.213 128.853 32.147 C 81.512 32.109,45.179 32.244,44.265 32.461 M123.733 88.970 C 126.100 90.188,128.009 93.382,127.991 96.093 C 127.972 98.904,126.526 100.763,116.947 110.293 L 107.512 119.680 138.769 119.893 L 170.027 120.107 171.951 121.238 C 175.849 123.530,177.012 128.461,174.564 132.321 C 172.176 136.086,174.274 135.864,138.770 136.107 L 107.512 136.320 116.947 145.707 C 122.868 151.597,126.680 155.729,127.182 156.800 C 129.101 160.897,127.149 165.621,122.781 167.446 C 120.888 168.238,119.919 168.268,117.596 167.607 C 116.109 167.185,113.296 164.583,99.256 150.647 C 90.135 141.594,82.119 133.333,81.443 132.290 C 80.000 130.064,79.767 126.712,80.899 124.459 C 81.585 123.093,112.616 91.612,114.938 89.927 C 117.700 87.922,120.999 87.563,123.733 88.970 " stroke="none" fill-rule="evenodd"></path></svg>