<svg fill="currentColor" viewBox="0 0 256 256" xmlns="http://www.w3.org/2000/svg"><path d="M120.960 24.326 C 100.935 25.586,81.587 32.844,64.891 45.360 C 59.554 49.360,49.234 59.686,45.276 64.986 C 34.512 79.399,27.973 94.882,25.095 112.768 C 23.886 120.283,23.787 134.307,24.890 141.867 C 27.542 160.046,34.293 176.318,45.279 191.014 C 49.299 196.392,59.608 206.701,64.986 210.721 C 79.686 221.710,96.000 228.476,114.133 231.105 C 117.683 231.620,121.936 231.847,128.000 231.847 C 144.598 231.847,158.874 228.583,173.440 221.458 C 184.661 215.968,192.320 210.472,201.396 201.396 C 210.475 192.317,215.974 184.654,221.456 173.440 C 235.707 144.287,235.458 110.173,220.780 81.026 C 214.698 68.950,203.517 55.194,193.067 46.931 C 172.349 30.550,147.221 22.673,120.960 24.326 M132.290 81.445 C 134.858 83.112,166.117 114.604,167.055 116.470 C 167.981 118.309,168.024 121.833,167.141 123.530 C 165.802 126.105,162.714 128.009,159.907 127.991 C 157.096 127.972,155.237 126.526,145.707 116.947 L 136.320 107.512 136.107 138.769 L 135.893 170.027 134.762 171.951 C 131.676 177.200,124.324 177.200,121.238 171.951 L 120.107 170.027 119.893 138.769 L 119.680 107.512 110.293 116.947 C 100.763 126.526,98.904 127.972,96.093 127.991 C 93.286 128.009,90.198 126.105,88.859 123.531 C 87.953 121.789,87.986 118.312,88.925 116.480 C 89.894 114.591,121.158 83.102,123.710 81.445 C 125.228 80.459,126.085 80.213,128.000 80.213 C 129.915 80.213,130.772 80.459,132.290 81.445 " stroke="none" fill-rule="evenodd"></path></svg>