<svg fill="currentColor" viewBox="0 0 256 256" xmlns="http://www.w3.org/2000/svg"><path d="M167.040 24.089 C 166.805 24.175,166.037 24.370,165.333 24.522 C 164.376 24.728,157.678 31.160,138.744 50.052 C 124.824 63.942,113.188 75.787,112.885 76.373 C 110.841 80.338,112.925 85.889,117.041 87.440 C 117.828 87.737,125.436 87.893,139.121 87.893 L 160.000 87.893 160.000 129.185 C 160.000 154.967,159.835 171.792,159.560 173.981 C 157.120 193.447,143.155 209.279,123.806 214.517 C 120.073 215.527,118.949 215.633,112.000 215.633 C 105.051 215.633,103.927 215.527,100.194 214.517 C 82.242 209.657,69.543 196.482,64.973 177.974 C 64.355 175.471,64.247 169.545,64.031 126.262 L 63.787 77.377 62.641 75.647 C 58.774 69.804,49.733 71.606,48.251 78.515 C 47.626 81.432,47.609 166.433,48.232 173.013 C 48.807 179.082,49.633 183.067,51.443 188.518 C 56.651 204.196,68.170 217.503,83.026 225.000 C 88.200 227.611,90.692 228.550,96.272 229.988 C 125.005 237.397,155.270 223.731,168.901 197.195 C 171.321 192.484,173.667 185.853,174.685 180.847 C 176.016 174.301,176.206 167.717,176.210 127.893 L 176.213 87.893 196.985 87.893 C 217.281 87.893,217.800 87.873,219.627 86.988 C 223.032 85.340,224.765 81.123,223.574 77.384 C 223.151 76.058,218.215 70.885,198.457 51.063 C 184.932 37.495,173.099 25.941,172.160 25.388 C 170.518 24.421,167.929 23.765,167.040 24.089 " stroke="none" fill-rule="evenodd"></path></svg>