<svg fill="currentColor" viewBox="0 0 256 256" xmlns="http://www.w3.org/2000/svg"><path d="M138.190 24.340 C 130.089 25.062,123.568 26.915,115.840 30.692 C 109.157 33.958,104.035 37.619,98.774 42.887 C 87.775 53.903,81.513 67.558,80.192 83.413 C 79.977 85.995,79.797 106.107,79.794 128.107 L 79.787 168.107 59.015 168.107 C 38.719 168.107,38.200 168.127,36.373 169.012 C 32.630 170.824,30.981 175.550,32.790 179.279 C 33.419 180.574,41.122 188.534,58.762 206.117 C 84.970 232.240,84.819 232.107,88.277 232.107 C 90.900 232.107,92.589 230.582,117.468 205.745 C 131.269 191.967,142.860 180.131,143.225 179.444 C 144.827 176.423,143.679 172.040,140.654 169.627 L 139.015 168.320 117.490 168.202 L 95.966 168.084 96.120 124.469 C 96.286 77.260,96.176 79.565,98.603 72.479 C 101.796 63.151,108.975 53.700,116.835 48.475 C 121.129 45.620,127.320 42.800,132.148 41.501 C 135.925 40.484,137.047 40.378,144.000 40.378 C 150.953 40.378,152.075 40.484,155.852 41.501 C 160.680 42.800,166.871 45.620,171.165 48.475 C 179.025 53.700,186.204 63.151,189.397 72.479 C 191.829 79.580,191.705 76.818,191.969 129.738 L 192.213 178.623 193.359 180.353 C 195.816 184.066,201.320 185.029,204.698 182.337 C 205.575 181.638,206.677 180.310,207.147 179.386 C 207.981 177.744,208.003 176.730,208.128 133.547 C 208.283 80.421,208.171 78.363,204.535 67.418 C 201.506 58.298,196.325 49.997,189.226 42.887 C 183.960 37.614,178.836 33.953,172.160 30.697 C 164.103 26.768,158.171 25.117,149.269 24.329 C 143.972 23.860,143.568 23.861,138.190 24.340 " stroke="none" fill-rule="evenodd"></path></svg>