<svg fill="currentColor" viewBox="0 0 256 256" xmlns="http://www.w3.org/2000/svg"><path d="M79.147 56.100 C 78.912 56.180,78.196 56.361,77.554 56.502 C 75.991 56.847,73.395 59.183,72.683 60.886 C 72.211 62.015,72.107 70.406,72.107 107.080 L 72.107 151.893 51.947 151.904 C 40.859 151.909,31.034 152.088,30.113 152.302 C 25.732 153.318,23.151 157.726,24.323 162.192 C 24.762 163.865,27.349 166.597,49.846 189.150 C 63.654 202.992,75.590 214.616,76.463 215.070 C 78.497 216.128,81.503 216.128,83.537 215.070 C 84.410 214.616,96.346 202.992,110.154 189.150 C 132.651 166.597,135.238 163.865,135.677 162.192 C 136.613 158.626,135.344 155.373,132.208 153.297 L 130.410 152.107 109.152 151.981 L 87.893 151.856 87.893 111.981 L 87.893 72.107 156.267 72.104 C 204.836 72.103,225.132 71.965,226.337 71.631 C 228.597 71.003,231.042 68.502,231.668 66.176 C 232.620 62.643,231.345 59.373,228.208 57.297 L 226.409 56.107 152.991 56.031 C 112.611 55.989,79.381 56.020,79.147 56.100 " stroke="none" fill-rule="evenodd"></path></svg>