<svg fill="currentColor" viewBox="0 0 256 256" xmlns="http://www.w3.org/2000/svg"><path d="M44.265 32.461 C 39.776 33.526,35.661 36.951,33.540 41.387 L 32.213 44.160 32.213 128.000 L 32.213 211.840 33.407 214.400 C 34.974 217.760,38.261 221.060,41.555 222.583 L 44.160 223.787 128.000 223.787 L 211.840 223.787 214.445 222.583 C 217.739 221.060,221.026 217.760,222.593 214.400 L 223.787 211.840 223.787 128.000 L 223.787 44.160 222.583 41.555 C 221.060 38.261,217.760 34.974,214.400 33.407 L 211.840 32.213 128.853 32.147 C 81.512 32.109,45.179 32.244,44.265 32.461 M132.290 81.445 C 134.858 83.112,166.117 114.604,167.055 116.470 C 167.981 118.309,168.024 121.833,167.141 123.530 C 165.802 126.105,162.714 128.009,159.907 127.991 C 157.096 127.972,155.237 126.526,145.707 116.947 L 136.320 107.512 136.107 138.769 L 135.893 170.027 134.762 171.951 C 131.676 177.200,124.324 177.200,121.238 171.951 L 120.107 170.027 119.893 138.769 L 119.680 107.512 110.293 116.947 C 100.763 126.526,98.904 127.972,96.093 127.991 C 93.286 128.009,90.198 126.105,88.859 123.531 C 87.953 121.789,87.986 118.312,88.925 116.480 C 89.894 114.591,121.158 83.102,123.710 81.445 C 125.228 80.459,126.085 80.213,128.000 80.213 C 129.915 80.213,130.772 80.459,132.290 81.445 " stroke="none" fill-rule="evenodd"></path></svg>