<svg fill="currentColor" viewBox="0 0 256 256" xmlns="http://www.w3.org/2000/svg"><path d="M106.190 24.340 C 98.089 25.062,91.568 26.915,83.840 30.692 C 77.157 33.958,72.035 37.619,66.774 42.887 C 55.775 53.903,49.513 67.558,48.192 83.413 C 47.612 90.369,47.670 174.772,48.256 177.506 C 48.795 180.020,50.678 182.439,52.780 183.317 C 56.176 184.736,60.626 183.399,62.641 180.353 L 63.787 178.623 64.031 129.738 C 64.295 76.818,64.171 79.580,66.603 72.479 C 69.796 63.151,76.975 53.700,84.835 48.475 C 89.129 45.620,95.320 42.800,100.148 41.501 C 103.925 40.484,105.047 40.378,112.000 40.378 C 118.953 40.378,120.075 40.484,123.852 41.501 C 128.680 42.800,134.871 45.620,139.165 48.475 C 147.025 53.700,154.204 63.151,157.397 72.479 C 159.824 79.565,159.714 77.260,159.880 124.469 L 160.034 168.084 138.510 168.202 L 116.985 168.320 115.346 169.627 C 112.321 172.040,111.173 176.423,112.775 179.444 C 113.140 180.131,124.731 191.967,138.532 205.745 C 163.411 230.582,165.100 232.107,167.723 232.107 C 171.181 232.107,171.030 232.240,197.238 206.117 C 214.878 188.534,222.581 180.574,223.210 179.279 C 225.019 175.550,223.370 170.824,219.627 169.012 C 217.800 168.127,217.281 168.107,196.985 168.107 L 176.213 168.107 176.210 128.107 C 176.206 88.283,176.016 81.699,174.685 75.153 C 173.019 66.962,168.953 57.662,163.973 50.651 C 160.684 46.021,153.872 39.258,149.119 35.904 C 144.964 32.971,136.713 28.752,132.267 27.285 C 127.942 25.859,122.554 24.797,117.269 24.329 C 111.972 23.860,111.568 23.861,106.190 24.340 " stroke="none" fill-rule="evenodd"></path></svg>