<svg fill="currentColor" viewBox="0 0 256 256" xmlns="http://www.w3.org/2000/svg"><path d="M59.679 49.436 C 58.519 50.172,57.424 51.318,56.929 52.316 C 56.133 53.920,56.103 55.565,55.995 103.188 C 55.920 136.227,56.028 152.944,56.326 154.049 C 57.204 157.311,60.658 159.981,64.000 159.981 C 64.821 159.981,66.261 159.621,67.200 159.181 C 68.345 158.644,75.933 151.339,90.238 137.003 C 101.971 125.246,111.763 115.627,112.000 115.627 C 112.236 115.627,125.772 128.976,142.081 145.293 C 169.991 173.215,171.860 174.996,173.883 175.590 C 175.780 176.147,176.281 176.147,178.161 175.589 C 182.866 174.192,185.133 169.366,183.236 164.786 C 182.778 163.680,173.613 154.228,152.944 133.544 L 123.309 103.888 145.072 82.130 C 168.189 59.020,168.524 58.627,167.980 55.279 C 167.555 52.659,166.338 50.715,164.321 49.436 L 162.393 48.213 112.000 48.213 L 61.607 48.213 59.679 49.436 M36.198 209.076 C 33.176 210.673,31.657 213.825,32.191 217.389 C 32.568 219.899,35.156 222.916,37.488 223.564 C 39.633 224.160,216.367 224.160,218.512 223.564 C 220.844 222.916,223.432 219.899,223.809 217.389 C 224.351 213.775,222.806 210.634,219.710 209.055 C 218.083 208.225,216.813 208.214,127.910 208.232 C 39.637 208.251,37.727 208.268,36.198 209.076 " stroke="none" fill-rule="evenodd"></path></svg>