<svg fill="currentColor" viewBox="0 0 256 256" xmlns="http://www.w3.org/2000/svg"><path d="M44.265 32.461 C 39.776 33.526,35.661 36.951,33.540 41.387 L 32.213 44.160 32.213 128.000 L 32.213 211.840 33.407 214.400 C 34.974 217.760,38.261 221.060,41.555 222.583 L 44.160 223.787 128.000 223.787 L 211.840 223.787 214.445 222.583 C 217.739 221.060,221.026 217.760,222.593 214.400 L 223.787 211.840 223.787 128.000 L 223.787 44.160 222.583 41.555 C 221.060 38.261,217.760 34.974,214.400 33.407 L 211.840 32.213 128.853 32.147 C 81.512 32.109,45.179 32.244,44.265 32.461 M164.139 89.251 C 165.090 89.881,166.324 91.129,166.881 92.025 L 167.893 93.653 167.893 119.467 C 167.893 133.664,167.747 145.804,167.567 146.446 C 167.116 148.059,164.770 150.625,163.114 151.317 C 160.286 152.498,156.918 151.905,154.735 149.840 C 152.086 147.333,152.119 147.558,151.975 130.803 L 151.843 115.473 125.948 141.328 C 99.241 167.994,99.121 168.102,96.000 168.102 C 93.386 168.102,90.124 166.090,88.900 163.724 C 88.158 162.289,87.950 159.196,88.464 157.227 C 88.702 156.314,96.237 148.499,114.688 130.027 L 140.577 104.107 125.649 104.097 C 112.029 104.089,110.570 104.019,109.013 103.298 C 103.458 100.726,102.350 94.061,106.824 90.133 C 107.685 89.377,108.913 88.643,109.554 88.502 C 110.196 88.361,110.912 88.178,111.147 88.095 C 111.381 88.012,123.012 87.981,136.992 88.025 L 162.410 88.107 164.139 89.251 " stroke="none" fill-rule="evenodd"></path></svg>