<svg fill="currentColor" viewBox="0 0 256 256" xmlns="http://www.w3.org/2000/svg"><path d="M44.265 32.461 C 39.776 33.526,35.661 36.951,33.540 41.387 L 32.213 44.160 32.213 128.000 L 32.213 211.840 33.407 214.400 C 34.974 217.760,38.261 221.060,41.555 222.583 L 44.160 223.787 128.000 223.787 L 211.840 223.787 214.445 222.583 C 217.739 221.060,221.026 217.760,222.593 214.400 L 223.787 211.840 223.787 128.000 L 223.787 44.160 222.583 41.555 C 221.060 38.261,217.760 34.974,214.400 33.407 L 211.840 32.213 128.853 32.147 C 81.512 32.109,45.179 32.244,44.265 32.461 M163.840 88.970 C 165.097 89.617,166.500 91.095,167.271 92.585 C 167.979 93.952,167.983 98.037,167.277 99.415 C 166.978 100.001,155.199 112.037,141.103 126.162 L 115.473 151.843 130.803 151.975 C 147.558 152.119,147.333 152.086,149.840 154.735 C 151.905 156.918,152.498 160.286,151.317 163.114 C 150.561 164.922,148.049 167.095,146.034 167.685 C 144.921 168.010,136.625 168.114,119.040 168.024 C 94.346 167.897,93.613 167.869,92.166 167.020 C 91.348 166.539,90.100 165.322,89.393 164.316 L 88.107 162.487 88.107 136.603 C 88.107 122.368,88.253 110.196,88.433 109.554 C 88.884 107.941,91.230 105.375,92.886 104.683 C 95.714 103.502,99.082 104.095,101.265 106.160 C 103.914 108.667,103.881 108.442,104.025 125.197 L 104.157 140.527 130.052 114.663 C 149.446 95.290,156.268 88.729,157.227 88.522 C 157.931 88.370,158.699 88.177,158.933 88.093 C 159.646 87.840,162.706 88.386,163.840 88.970 " stroke="none" fill-rule="evenodd"></path></svg>