<svg fill="currentColor" viewBox="0 0 256 256" xmlns="http://www.w3.org/2000/svg"><path d="M148.644 32.816 C 144.511 34.693,142.878 39.762,145.055 43.957 C 145.356 44.538,151.670 51.111,159.084 58.565 L 172.566 72.116 150.757 93.978 C 127.202 117.590,127.617 117.092,128.166 121.099 C 128.655 124.662,131.338 127.345,134.901 127.834 C 138.908 128.383,138.410 128.798,162.022 105.243 L 183.884 83.434 197.435 96.916 C 204.889 104.330,211.462 110.644,212.043 110.945 C 216.199 113.101,221.325 111.450,223.184 107.356 C 223.941 105.689,223.982 103.904,223.988 72.320 C 223.993 51.765,223.835 38.462,223.575 37.528 C 223.344 36.696,222.529 35.410,221.764 34.669 C 218.880 31.878,220.611 31.999,183.800 32.009 C 152.101 32.018,150.311 32.059,148.644 32.816 M44.265 64.463 C 39.784 65.519,35.662 68.949,33.540 73.387 L 32.213 76.160 32.213 144.000 L 32.213 211.840 33.407 214.400 C 34.974 217.760,38.261 221.060,41.555 222.583 L 44.160 223.787 112.000 223.787 L 179.840 223.787 182.445 222.583 C 185.739 221.060,189.026 217.760,190.593 214.400 L 191.787 211.840 191.914 174.080 C 191.984 153.312,191.923 135.496,191.778 134.489 C 191.458 132.254,189.518 129.896,187.097 128.796 C 182.511 126.712,177.414 129.350,176.248 134.409 C 175.964 135.640,175.804 149.110,175.797 172.267 L 175.787 208.213 112.000 208.213 L 48.213 208.213 48.213 144.213 L 48.213 80.213 83.819 80.213 C 108.011 80.213,120.123 80.064,121.604 79.746 C 127.382 78.507,129.940 71.419,126.161 67.115 C 123.270 63.822,125.945 64.015,83.627 64.052 C 62.859 64.071,45.146 64.256,44.265 64.463 " stroke="none" fill-rule="evenodd"></path></svg>