<svg fill="currentColor" viewBox="0 0 256 256" xmlns="http://www.w3.org/2000/svg"><path d="M120.960 24.326 C 100.935 25.586,81.587 32.844,64.891 45.360 C 59.554 49.360,49.234 59.686,45.276 64.986 C 34.512 79.399,27.973 94.882,25.095 112.768 C 23.886 120.283,23.787 134.307,24.890 141.867 C 27.542 160.046,34.293 176.318,45.279 191.014 C 49.299 196.392,59.608 206.701,64.986 210.721 C 79.686 221.710,96.000 228.476,114.133 231.105 C 117.683 231.620,121.936 231.847,128.000 231.847 C 144.598 231.847,158.874 228.583,173.440 221.458 C 184.661 215.968,192.320 210.472,201.396 201.396 C 210.475 192.317,215.974 184.654,221.456 173.440 C 235.707 144.287,235.458 110.173,220.780 81.026 C 214.698 68.950,203.517 55.194,193.067 46.931 C 172.349 30.550,147.221 22.673,120.960 24.326 M99.627 88.841 C 100.096 89.072,112.037 100.798,126.162 114.898 L 151.843 140.534 151.975 125.200 C 152.119 108.441,152.086 108.667,154.735 106.160 C 156.918 104.095,160.286 103.502,163.114 104.683 C 164.770 105.375,167.116 107.941,167.567 109.554 C 167.747 110.196,167.893 122.368,167.893 136.603 L 167.893 162.487 166.607 164.316 C 165.900 165.322,164.652 166.539,163.834 167.020 C 162.387 167.869,161.654 167.897,136.960 168.024 C 119.375 168.114,111.079 168.010,109.966 167.685 C 107.951 167.095,105.439 164.922,104.683 163.114 C 103.502 160.286,104.095 156.918,106.160 154.735 C 108.667 152.086,108.442 152.119,125.197 151.975 L 140.527 151.843 114.663 125.948 C 96.230 107.494,88.702 99.686,88.464 98.773 C 87.950 96.804,88.158 93.711,88.900 92.276 C 89.750 90.632,91.891 88.820,93.366 88.496 C 93.993 88.358,94.699 88.177,94.933 88.093 C 95.569 87.867,98.649 88.358,99.627 88.841 " stroke="none" fill-rule="evenodd"></path></svg>