<svg fill="currentColor" viewBox="0 0 256 256" xmlns="http://www.w3.org/2000/svg"><path d="M124.800 8.711 C 123.117 9.463,121.379 11.350,120.556 13.320 C 119.988 14.679,119.893 17.837,119.893 35.400 L 119.893 55.893 107.840 55.904 C 101.211 55.909,95.034 56.088,94.113 56.302 C 89.731 57.318,87.150 61.728,88.324 66.192 C 88.760 67.846,90.720 69.967,105.954 85.256 C 115.380 94.718,123.669 102.772,124.373 103.155 C 125.115 103.557,126.640 103.850,128.000 103.850 C 129.360 103.850,130.885 103.557,131.627 103.155 C 132.331 102.772,140.620 94.718,150.046 85.256 C 165.280 69.967,167.240 67.846,167.676 66.192 C 168.613 62.628,167.345 59.373,164.209 57.297 L 162.411 56.107 149.259 55.972 L 136.107 55.838 136.097 35.279 C 136.089 16.178,136.032 14.599,135.298 13.013 C 134.378 11.027,132.560 9.206,130.852 8.560 C 129.223 7.945,126.357 8.017,124.800 8.711 M39.040 120.100 C 38.805 120.180,38.100 120.358,37.473 120.496 C 34.768 121.090,32.019 124.872,32.019 128.000 C 32.019 129.829,33.242 132.583,34.616 133.846 C 37.240 136.258,30.969 136.107,128.000 136.107 C 225.031 136.107,218.760 136.258,221.384 133.846 C 222.726 132.613,223.979 129.847,223.991 128.093 C 224.009 125.299,222.143 122.260,219.520 120.813 C 218.342 120.163,211.142 120.101,128.853 120.031 C 79.691 119.990,39.275 120.021,39.040 120.100 M126.080 152.280 C 125.376 152.455,124.416 152.811,123.947 153.071 C 123.477 153.331,115.380 161.284,105.954 170.745 C 90.645 186.109,88.761 188.148,88.319 189.828 C 87.186 194.134,89.610 198.505,93.773 199.661 C 94.694 199.917,100.505 200.103,107.627 200.104 L 119.893 200.107 119.903 220.693 C 119.911 239.821,119.968 241.401,120.702 242.987 C 122.161 246.138,124.773 247.893,128.000 247.893 C 131.227 247.893,133.839 246.138,135.298 242.987 C 136.032 241.401,136.089 239.821,136.097 220.693 L 136.107 200.107 148.373 200.104 C 155.495 200.103,161.306 199.917,162.227 199.661 C 166.390 198.505,168.814 194.134,167.681 189.828 C 167.239 188.148,165.355 186.108,150.046 170.744 C 140.620 161.282,132.427 153.288,131.840 152.981 C 130.403 152.226,127.646 151.891,126.080 152.280 " stroke="none" fill-rule="evenodd"></path></svg>