<svg fill="currentColor" viewBox="0 0 256 256" xmlns="http://www.w3.org/2000/svg"><path d="M120.960 24.326 C 100.935 25.586,81.587 32.844,64.891 45.360 C 59.554 49.360,49.234 59.686,45.276 64.986 C 34.512 79.399,27.973 94.882,25.095 112.768 C 23.886 120.283,23.787 134.307,24.890 141.867 C 27.542 160.046,34.293 176.318,45.279 191.014 C 49.299 196.392,59.608 206.701,64.986 210.721 C 79.686 221.710,96.000 228.476,114.133 231.105 C 117.683 231.620,121.936 231.847,128.000 231.847 C 144.598 231.847,158.874 228.583,173.440 221.458 C 184.661 215.968,192.320 210.472,201.396 201.396 C 210.475 192.317,215.974 184.654,221.456 173.440 C 235.707 144.287,235.458 110.173,220.780 81.026 C 214.698 68.950,203.517 55.194,193.067 46.931 C 172.349 30.550,147.221 22.673,120.960 24.326 M131.757 63.048 C 133.503 63.847,135.022 65.807,135.636 68.053 C 135.946 69.188,136.103 77.441,136.104 92.693 C 136.106 105.307,136.215 115.627,136.347 115.627 C 136.479 115.627,146.902 111.211,159.509 105.813 C 184.136 95.270,184.445 95.171,187.644 96.812 C 190.667 98.362,192.000 100.541,192.000 103.935 C 192.000 106.305,191.192 108.249,189.599 109.714 C 188.847 110.405,179.387 114.677,165.120 120.766 C 152.331 126.225,141.704 130.835,141.505 131.009 C 141.305 131.184,148.319 139.938,157.091 150.463 C 165.863 160.989,173.602 170.343,174.290 171.251 C 175.932 173.421,176.275 177.341,175.021 179.616 C 173.642 182.117,171.444 183.581,168.728 183.806 C 164.234 184.179,164.724 184.648,145.596 161.620 C 136.084 150.169,128.168 140.800,128.005 140.800 C 127.842 140.800,119.882 150.195,110.318 161.678 C 91.580 184.172,91.862 183.894,87.778 183.893 C 85.453 183.892,83.381 182.818,81.737 180.760 C 80.546 179.270,80.427 178.839,80.427 176.034 C 80.427 173.271,80.560 172.771,81.693 171.273 C 82.390 170.353,90.137 160.989,98.909 150.463 C 107.681 139.938,114.695 131.184,114.495 131.009 C 114.296 130.835,103.669 126.225,90.880 120.766 C 76.613 114.677,67.153 110.405,66.401 109.714 C 64.808 108.249,64.000 106.305,64.000 103.935 C 64.000 100.541,65.333 98.362,68.356 96.812 C 71.555 95.171,71.864 95.270,96.491 105.813 C 109.098 111.211,119.513 115.627,119.636 115.627 C 119.759 115.627,119.915 104.827,119.983 91.627 L 120.107 67.627 121.097 66.034 C 123.407 62.319,127.599 61.145,131.757 63.048 " stroke="none" fill-rule="evenodd"></path></svg>