<svg fill="currentColor" viewBox="0 0 256 256" xmlns="http://www.w3.org/2000/svg"><path d="M121.387 24.348 C 79.652 26.719,42.702 55.101,29.494 94.933 C 25.622 106.611,24.126 115.853,24.143 128.000 C 24.166 145.004,27.332 158.632,34.814 173.942 C 39.637 183.811,46.480 193.308,54.592 201.392 C 67.623 214.376,82.891 223.307,100.526 228.261 C 117.699 233.085,136.223 233.236,153.790 228.696 C 167.978 225.030,182.185 217.927,193.134 209.026 C 202.381 201.508,211.857 190.712,216.596 182.297 C 217.982 179.837,218.058 179.520,217.596 178.122 C 216.709 175.435,215.801 175.163,209.580 175.724 C 204.026 176.224,197.517 175.918,193.067 174.946 C 185.406 173.272,178.264 169.599,173.336 164.799 C 171.291 162.808,167.506 157.984,167.150 156.917 C 167.053 156.624,165.278 158.170,163.181 160.374 C 158.927 164.844,156.060 167.165,151.680 169.684 C 136.201 178.589,116.637 177.979,101.682 168.127 C 90.919 161.037,83.266 149.543,80.858 136.853 C 80.024 132.457,80.024 123.543,80.858 119.147 C 82.647 109.716,87.565 100.525,94.448 93.748 C 101.271 87.030,111.372 81.985,120.741 80.615 C 126.218 79.814,135.367 80.313,140.373 81.685 C 145.448 83.076,152.873 86.698,156.855 89.727 L 159.897 92.040 160.090 88.710 C 160.320 84.738,161.571 82.442,164.250 81.075 C 166.258 80.051,169.741 79.934,171.478 80.832 C 173.245 81.745,175.286 84.265,175.548 85.858 C 175.675 86.625,175.847 97.909,175.931 110.933 C 176.074 133.151,176.139 134.862,176.983 138.632 C 179.401 149.429,185.546 156.367,194.987 158.960 C 198.340 159.881,206.140 160.226,209.681 159.609 C 221.618 157.530,228.435 150.732,231.110 138.240 C 232.037 133.907,232.150 121.954,231.322 115.840 C 228.162 92.524,218.624 72.360,203.093 56.163 C 192.534 45.150,178.301 35.791,164.053 30.491 C 151.272 25.736,135.901 23.523,121.387 24.348 M122.699 96.423 C 115.497 97.729,108.336 101.869,103.498 107.524 C 95.861 116.452,93.932 129.071,98.492 140.277 C 101.558 147.811,108.189 154.442,115.723 157.508 C 127.881 162.456,141.348 159.769,150.559 150.559 C 162.541 138.577,163.146 119.596,151.952 106.880 C 148.234 102.656,141.615 98.553,136.067 97.033 C 133.235 96.257,125.548 95.906,122.699 96.423 " stroke="none" fill-rule="evenodd"></path></svg>