<svg fill="currentColor" viewBox="0 0 256 256" xmlns="http://www.w3.org/2000/svg"><path d="M56.206 32.434 C 49.465 33.503,44.865 35.785,40.272 40.337 C 36.507 44.069,34.464 47.603,33.006 52.907 C 31.811 57.254,31.917 67.536,33.217 73.387 C 36.585 88.551,44.338 105.125,56.417 122.987 L 59.808 128.000 56.417 133.013 C 44.338 150.875,36.585 167.449,33.217 182.613 C 31.917 188.464,31.811 198.746,33.006 203.093 C 34.461 208.386,36.508 211.931,40.272 215.677 C 44.110 219.496,47.797 221.597,53.120 222.998 C 57.529 224.158,67.366 224.049,73.335 222.774 C 88.042 219.632,104.667 211.872,123.025 199.581 L 128.076 196.199 133.051 199.588 C 150.429 211.426,167.971 219.626,182.665 222.778 C 188.562 224.044,198.895 224.154,203.093 222.996 C 208.411 221.529,211.969 219.482,215.725 215.725 C 219.483 211.967,221.534 208.404,222.994 203.093 C 224.189 198.746,224.083 188.464,222.783 182.613 C 219.415 167.449,211.662 150.875,199.583 133.013 L 196.192 128.000 199.583 122.987 C 211.675 105.107,219.562 88.228,222.787 73.335 C 224.055 67.477,224.160 57.148,222.994 52.907 C 221.536 47.603,219.493 44.069,215.728 40.337 C 211.887 36.530,208.172 34.417,202.880 33.031 C 198.433 31.866,188.600 31.965,182.631 33.236 C 168.274 36.292,151.973 43.853,134.054 55.769 L 127.949 59.829 123.601 56.850 C 106.123 44.877,87.580 36.174,73.369 33.276 C 68.349 32.252,59.952 31.840,56.206 32.434 M69.309 48.861 C 76.575 50.128,87.137 54.071,96.427 58.985 C 103.174 62.554,114.321 69.417,114.339 70.013 C 114.343 70.152,111.323 72.834,107.627 75.973 C 99.575 82.812,83.026 99.269,76.800 106.630 C 74.336 109.543,71.801 112.519,71.167 113.243 L 70.014 114.560 69.247 113.507 C 67.466 111.062,62.889 103.517,60.179 98.560 C 47.676 75.684,44.616 55.813,52.774 50.468 C 56.216 48.213,62.236 47.628,69.309 48.861 M201.640 49.737 C 204.709 51.282,206.274 53.215,207.128 56.516 C 209.469 65.559,205.120 81.758,195.809 98.682 C 192.609 104.498,186.503 114.347,186.097 114.347 C 185.928 114.347,183.301 111.419,180.260 107.840 C 173.061 99.368,156.882 83.199,148.373 75.973 C 144.677 72.834,141.655 70.152,141.656 70.013 C 141.662 69.573,150.171 64.220,156.313 60.793 C 166.812 54.936,178.322 50.415,186.667 48.871 C 188.721 48.490,191.887 48.288,194.618 48.363 C 198.649 48.473,199.434 48.626,201.640 49.737 M132.080 116.769 C 134.900 117.729,138.271 121.100,139.231 123.920 C 140.723 128.297,139.825 132.593,136.689 136.080 C 132.064 141.225,123.936 141.225,119.311 136.080 C 114.809 131.073,114.952 124.352,119.660 119.644 C 123.073 116.231,127.497 115.207,132.080 116.769 M73.231 145.173 C 82.457 156.343,95.773 169.819,107.627 179.982 C 111.323 183.151,114.347 185.883,114.347 186.052 C 114.347 186.222,112.379 187.610,109.973 189.136 C 91.255 201.015,74.007 207.787,62.468 207.787 C 57.089 207.787,54.044 206.834,51.618 204.394 C 49.265 202.026,48.642 200.239,48.342 194.986 C 47.690 183.599,53.975 166.783,66.242 147.093 C 68.106 144.101,69.787 141.653,69.977 141.653 C 70.168 141.653,71.632 143.237,73.231 145.173 M186.910 142.627 C 187.278 143.147,188.833 145.589,190.365 148.053 C 199.257 162.353,205.159 176.055,207.181 187.093 C 207.960 191.346,207.821 197.850,206.892 200.651 C 206.128 202.952,203.693 205.605,201.420 206.612 C 198.392 207.954,191.308 208.120,185.765 206.977 C 177.623 205.299,167.121 201.200,157.434 195.919 C 151.473 192.670,141.653 186.554,141.653 186.091 C 141.653 185.925,144.485 183.368,147.947 180.409 C 159.548 170.489,172.639 157.303,181.868 146.240 C 183.972 143.717,185.817 141.659,185.967 141.667 C 186.117 141.674,186.541 142.106,186.910 142.627 " stroke="none" fill-rule="evenodd"></path></svg>