<svg fill="currentColor" viewBox="0 0 256 256" xmlns="http://www.w3.org/2000/svg"><path d="M106.084 8.774 C 99.559 10.378,93.410 15.433,90.413 21.655 C 88.619 25.381,87.909 29.228,87.901 35.278 C 87.892 41.130,88.292 40.526,83.840 41.408 C 74.441 43.270,64.130 48.934,56.714 56.310 C 50.047 62.939,45.513 70.308,42.712 79.067 C 39.981 87.606,40.068 84.951,40.200 155.947 L 40.320 220.373 41.482 222.736 C 42.809 225.437,45.978 228.816,48.307 230.014 C 52.537 232.190,49.350 232.107,128.000 232.107 C 206.650 232.107,203.463 232.190,207.693 230.014 C 210.022 228.816,213.191 225.437,214.518 222.736 L 215.680 220.373 215.800 155.947 C 215.932 84.951,216.019 87.606,213.288 79.067 C 207.923 62.291,195.057 49.082,178.347 43.193 C 176.352 42.491,173.568 41.687,172.160 41.408 C 170.752 41.129,169.287 40.813,168.905 40.705 C 168.313 40.538,168.181 39.546,168.017 34.014 C 167.851 28.432,167.670 27.085,166.726 24.421 C 164.744 18.825,161.221 14.523,156.066 11.401 C 150.942 8.297,151.443 8.355,128.853 8.251 C 112.397 8.176,108.116 8.274,106.084 8.774 M147.413 24.815 C 149.105 25.752,150.877 27.658,151.440 29.148 C 151.689 29.808,151.893 32.544,151.893 35.228 L 151.893 40.107 128.000 40.107 L 104.107 40.107 104.107 35.186 C 104.107 32.019,104.312 29.774,104.683 28.886 C 105.395 27.183,107.991 24.847,109.554 24.502 C 110.196 24.361,110.912 24.176,111.147 24.092 C 111.381 24.007,119.349 23.976,128.853 24.022 C 144.055 24.097,146.287 24.192,147.413 24.815 M147.413 72.909 C 149.443 73.841,150.353 74.793,151.237 76.909 C 152.072 78.907,152.072 81.093,151.237 83.091 C 150.353 85.207,149.443 86.159,147.413 87.091 C 145.846 87.811,144.269 87.875,128.093 87.884 C 109.469 87.894,108.739 87.825,106.515 85.850 C 104.355 83.932,103.549 79.815,104.763 76.909 C 105.647 74.793,106.557 73.841,108.587 72.909 C 110.156 72.189,111.722 72.125,128.000 72.125 C 144.278 72.125,145.844 72.189,147.413 72.909 M166.475 137.455 C 169.711 138.972,172.370 141.505,174.127 144.746 C 175.557 147.384,175.575 147.483,175.719 153.707 L 175.865 160.000 128.000 160.000 L 80.135 160.000 80.290 153.707 C 80.435 147.818,80.521 147.268,81.624 145.158 C 83.821 140.956,87.189 138.057,91.429 136.721 C 92.873 136.266,100.199 136.170,128.640 136.237 L 164.053 136.320 166.475 137.455 M136.107 180.985 C 136.107 186.706,136.877 188.809,139.647 190.641 C 141.053 191.572,141.869 191.787,144.000 191.787 C 146.131 191.787,146.947 191.572,148.353 190.641 C 151.123 188.809,151.893 186.706,151.893 180.985 L 151.893 176.213 163.840 176.213 L 175.787 176.213 175.787 196.053 L 175.787 215.893 128.000 215.893 L 80.213 215.893 80.213 196.053 L 80.213 176.213 108.160 176.213 L 136.107 176.213 136.107 180.985 " stroke="none" fill-rule="evenodd"></path></svg>