<svg fill="currentColor" viewBox="0 0 256 256" xmlns="http://www.w3.org/2000/svg"><path d="M117.161 16.699 C 103.924 18.398,89.862 23.681,78.933 31.064 C 57.501 45.540,43.691 68.282,40.544 94.282 C 39.900 99.601,40.011 109.683,40.780 115.694 C 45.736 154.463,71.963 191.058,103.573 203.309 C 105.275 203.969,106.667 204.718,106.667 204.974 C 106.668 205.230,104.268 211.040,101.334 217.885 C 97.553 226.707,96.003 230.805,96.009 231.965 C 96.030 235.544,98.582 238.758,102.187 239.742 C 104.550 240.388,151.450 240.388,153.813 239.742 C 157.408 238.761,159.970 235.545,159.991 231.989 C 159.997 230.864,158.389 226.595,154.667 217.855 C 151.733 210.968,149.333 205.143,149.333 204.910 C 149.333 204.678,150.533 204.053,152.000 203.521 C 167.547 197.886,183.923 184.197,195.385 167.253 C 205.327 152.558,211.580 137.118,214.652 119.680 C 215.797 113.179,216.208 100.947,215.492 94.696 C 212.487 68.471,198.539 45.470,176.810 30.909 C 165.658 23.435,151.884 18.345,138.251 16.660 C 134.000 16.135,121.378 16.158,117.161 16.699 M143.787 49.708 C 159.682 54.718,171.594 64.881,178.796 79.573 C 182.388 86.903,184.381 94.335,183.711 97.906 C 183.155 100.871,179.142 104.088,176.000 104.088 C 174.136 104.088,171.490 102.751,170.005 101.059 C 169.047 99.969,168.458 98.558,167.743 95.640 C 165.702 87.320,162.338 81.235,156.607 75.495 C 150.884 69.764,143.657 65.800,135.997 64.191 C 132.151 63.384,130.078 62.049,128.905 59.627 C 126.952 55.592,128.599 50.599,132.480 48.787 C 134.340 47.918,139.422 48.332,143.787 49.708 " stroke="none" fill-rule="evenodd"></path></svg>