<svg fill="currentColor" viewBox="0 0 256 256" xmlns="http://www.w3.org/2000/svg"><path d="M66.521 49.010 C 62.114 50.756,59.382 53.384,57.254 57.926 L 56.107 60.373 56.107 128.000 L 56.107 195.627 57.461 198.486 C 59.893 203.620,64.228 206.883,69.836 207.802 C 73.050 208.328,86.950 208.328,90.164 207.802 C 95.772 206.883,100.107 203.620,102.539 198.486 L 103.893 195.627 104.014 165.867 L 104.134 136.107 128.000 136.107 L 151.866 136.107 151.986 165.867 L 152.107 195.627 153.461 198.486 C 155.893 203.620,160.228 206.883,165.836 207.802 C 169.050 208.328,182.950 208.328,186.164 207.802 C 191.772 206.883,196.107 203.620,198.539 198.486 L 199.893 195.627 199.893 128.000 L 199.893 60.373 198.539 57.514 C 196.878 54.008,194.260 51.317,190.910 49.672 L 188.373 48.427 176.000 48.427 L 163.627 48.427 161.090 49.672 C 157.740 51.317,155.122 54.008,153.461 57.514 L 152.107 60.373 151.986 90.133 L 151.866 119.893 128.000 119.893 L 104.134 119.893 104.014 90.133 L 103.893 60.373 102.539 57.514 C 100.878 54.008,98.260 51.317,94.910 49.672 L 92.373 48.427 80.427 48.330 C 69.735 48.244,68.274 48.315,66.521 49.010 M27.520 72.703 C 23.596 73.945,20.105 76.675,18.128 80.048 C 16.065 83.568,15.802 86.235,15.794 103.734 L 15.787 119.788 10.670 119.971 C 5.821 120.143,5.460 120.219,3.741 121.428 C 0.271 123.866,-0.931 127.926,0.812 131.324 C 2.706 135.018,5.092 136.107,11.293 136.107 L 15.787 136.107 15.794 152.213 C 15.802 169.769,16.064 172.430,18.128 175.952 C 19.638 178.530,22.610 181.178,25.525 182.545 C 27.599 183.517,28.626 183.700,32.682 183.822 C 37.216 183.958,37.470 183.918,38.655 182.899 L 39.893 181.834 39.893 128.000 L 39.893 74.166 38.696 73.136 C 37.602 72.196,37.142 72.109,33.363 72.135 C 31.088 72.151,28.459 72.407,27.520 72.703 M217.355 73.093 L 216.107 74.166 216.107 128.000 L 216.107 181.834 217.345 182.899 C 218.530 183.918,218.784 183.958,223.318 183.822 C 227.374 183.700,228.401 183.517,230.475 182.545 C 233.390 181.178,236.362 178.530,237.872 175.952 C 239.936 172.430,240.198 169.769,240.206 152.213 L 240.213 136.107 244.707 136.107 C 249.496 136.107,251.490 135.587,253.384 133.846 C 254.756 132.585,255.979 129.834,255.991 127.984 C 256.004 125.767,254.363 122.875,252.263 121.416 C 250.547 120.223,250.161 120.143,245.330 119.971 L 240.213 119.788 240.206 103.734 C 240.198 86.235,239.935 83.568,237.872 80.048 C 236.357 77.462,233.382 74.816,230.475 73.467 C 228.428 72.517,227.323 72.319,223.328 72.181 C 218.782 72.025,218.555 72.060,217.355 73.093 " stroke="none" fill-rule="evenodd"></path></svg>