<svg fill="currentColor" viewBox="0 0 256 256" xmlns="http://www.w3.org/2000/svg"><path d="M121.173 24.325 C 99.849 25.732,80.000 33.437,62.933 46.931 C 57.714 51.058,49.236 59.818,45.175 65.280 C 33.797 80.584,27.962 94.804,24.693 115.200 C 24.336 117.423,24.128 128.631,24.011 151.905 C 23.823 189.280,23.808 189.037,26.679 194.870 C 30.958 203.564,41.301 209.127,50.709 207.796 C 55.408 207.131,57.950 206.044,63.939 202.136 C 70.396 197.923,79.469 193.300,85.952 190.920 C 110.500 181.910,145.500 181.910,170.048 190.920 C 176.531 193.300,185.604 197.923,192.061 202.136 C 198.006 206.015,200.600 207.133,205.156 207.777 C 210.008 208.462,216.571 206.958,221.066 204.131 C 224.080 202.235,227.697 198.169,229.341 194.830 C 232.190 189.042,232.177 189.247,231.989 151.905 C 231.872 128.631,231.664 117.423,231.307 115.200 C 227.273 90.039,218.034 71.252,201.610 54.811 C 189.444 42.634,175.595 34.097,159.787 29.031 C 147.878 25.215,133.764 23.495,121.173 24.325 M108.971 42.987 C 95.118 63.822,86.203 86.141,82.154 110.120 C 81.556 113.663,81.067 116.999,81.067 117.533 C 81.067 118.407,80.360 118.747,74.002 120.924 C 63.365 124.566,53.788 128.885,44.654 134.158 C 42.392 135.465,40.443 136.533,40.324 136.533 C 39.923 136.533,40.102 122.890,40.558 118.703 C 42.752 98.560,51.692 80.000,66.090 65.696 C 77.333 54.527,90.107 47.186,105.796 42.877 C 107.800 42.326,109.510 41.862,109.596 41.845 C 109.681 41.827,109.400 42.341,108.971 42.987 M156.640 44.817 C 178.733 52.254,198.294 70.090,208.093 91.733 C 211.775 99.866,214.436 109.653,215.458 118.827 C 215.897 122.762,216.067 136.533,215.676 136.533 C 215.557 136.533,213.608 135.465,211.346 134.158 C 202.212 128.885,192.635 124.566,181.998 120.924 C 175.640 118.747,174.933 118.407,174.933 117.533 C 174.933 116.999,174.444 113.663,173.846 110.120 C 169.799 86.152,160.875 63.806,147.043 43.008 L 146.277 41.856 150.098 42.879 C 152.200 43.441,155.144 44.314,156.640 44.817 M138.667 128.444 C 164.642 130.272,188.863 138.406,210.876 152.695 L 215.885 155.947 215.889 171.004 C 215.893 185.272,215.848 186.149,215.032 187.750 C 213.706 190.348,211.205 191.787,208.013 191.787 C 205.467 191.787,205.277 191.703,200.089 188.308 C 179.360 174.742,155.681 168.107,128.000 168.107 C 100.319 168.107,76.640 174.742,55.911 188.308 C 50.723 191.703,50.533 191.787,47.987 191.787 C 44.795 191.787,42.294 190.348,40.968 187.750 C 40.152 186.149,40.107 185.272,40.111 171.004 L 40.115 155.947 45.174 152.648 C 72.832 134.611,105.633 126.119,138.667 128.444 " stroke="none" fill-rule="evenodd"></path></svg>