<svg fill="currentColor" viewBox="0 0 256 256" xmlns="http://www.w3.org/2000/svg"><path d="M72.175 24.336 C 65.812 25.200,60.953 27.697,56.097 32.598 C 53.572 35.147,52.265 36.892,51.113 39.253 C 48.023 45.588,48.094 44.871,47.899 71.760 L 47.725 95.947 33.996 96.080 L 20.267 96.213 17.408 97.568 C 13.901 99.229,11.211 101.846,9.566 105.197 L 8.320 107.733 8.191 128.213 C 8.046 151.104,8.236 153.445,10.884 161.534 C 16.242 177.897,29.076 190.971,45.554 196.853 C 49.348 198.208,55.766 199.527,60.480 199.922 L 64.000 200.217 64.002 208.588 C 64.004 213.193,64.199 217.658,64.436 218.512 C 65.084 220.844,68.101 223.432,70.611 223.809 C 74.944 224.458,78.844 221.810,79.746 217.604 C 80.003 216.405,80.213 211.978,80.213 207.766 L 80.213 200.107 128.000 200.107 L 175.787 200.107 175.787 207.766 C 175.787 211.978,175.997 216.405,176.254 217.604 C 177.156 221.810,181.056 224.458,185.389 223.809 C 187.899 223.432,190.916 220.844,191.564 218.512 C 191.801 217.658,191.996 213.203,191.998 208.612 L 192.000 200.264 196.800 199.758 C 209.652 198.404,221.014 193.436,229.507 185.457 C 237.262 178.172,242.092 170.769,245.116 161.534 C 247.764 153.445,247.954 151.104,247.809 128.213 L 247.680 107.733 246.434 105.197 C 244.789 101.846,242.099 99.229,238.592 97.568 L 235.733 96.213 225.862 96.073 L 215.992 95.932 215.726 94.271 C 215.428 92.406,213.501 89.952,211.457 88.832 C 210.239 88.165,207.074 88.107,171.947 88.107 C 136.687 88.107,133.658 88.163,132.424 88.838 C 130.516 89.883,128.902 91.966,128.323 94.131 L 127.823 96.000 95.912 96.000 L 64.000 96.000 64.000 73.251 C 64.000 47.916,64.021 47.705,66.800 44.458 C 69.193 41.663,71.640 40.435,75.289 40.201 C 78.002 40.027,78.705 40.148,81.029 41.191 C 84.463 42.732,86.689 45.236,87.924 48.945 C 89.616 54.029,92.952 56.383,97.501 55.701 C 100.915 55.189,104.113 51.250,104.099 47.573 C 104.097 47.104,103.543 45.134,102.869 43.196 C 98.429 30.440,85.543 22.523,72.175 24.336 M200.004 124.053 L 199.893 144.000 172.053 144.110 L 144.213 144.220 144.213 124.163 L 144.213 104.107 172.164 104.107 L 200.115 104.107 200.004 124.053 " stroke="none" fill-rule="evenodd"></path></svg>