<svg fill="currentColor" viewBox="0 0 256 256" xmlns="http://www.w3.org/2000/svg"><path d="M92.782 0.802 C 89.257 2.403,87.318 6.189,88.245 9.658 C 88.958 12.322,89.844 13.510,92.114 14.844 L 94.080 16.000 128.000 16.000 L 161.920 16.000 163.886 14.844 C 166.156 13.510,167.042 12.322,167.755 9.658 C 168.682 6.189,166.743 2.403,163.218 0.802 C 161.592 0.063,159.584 0.019,128.000 0.019 C 96.416 0.019,94.408 0.063,92.782 0.802 M74.774 32.647 C 70.337 33.611,66.723 35.662,63.146 39.246 C 59.902 42.496,58.439 44.894,56.895 49.493 C 56.139 51.745,56.107 55.402,56.107 139.947 L 56.107 228.053 57.131 231.180 C 59.693 239.001,66.239 245.192,74.088 247.217 C 76.410 247.816,82.571 247.893,128.000 247.893 C 173.429 247.893,179.590 247.816,181.912 247.217 C 189.761 245.192,196.307 239.001,198.869 231.180 L 199.893 228.053 199.893 139.733 L 199.893 51.413 198.666 48.213 C 195.532 40.039,189.075 34.333,181.029 32.628 C 176.860 31.745,78.847 31.762,74.774 32.647 M179.066 48.668 C 180.684 49.282,182.102 50.659,183.082 52.570 C 183.872 54.110,183.893 56.454,183.893 139.902 C 183.893 199.450,183.755 226.018,183.440 226.852 C 182.794 228.560,180.973 230.378,178.987 231.298 C 177.357 232.052,175.068 232.088,128.000 232.088 C 80.932 232.088,78.643 232.052,77.013 231.298 C 75.027 230.378,73.206 228.560,72.560 226.852 C 72.245 226.018,72.107 199.450,72.107 139.902 C 72.107 56.454,72.128 54.110,72.918 52.570 C 73.866 50.722,75.298 49.292,76.800 48.693 C 78.332 48.082,177.455 48.058,179.066 48.668 M92.800 104.711 C 91.117 105.463,89.379 107.350,88.556 109.320 C 87.970 110.723,87.894 116.576,87.903 160.093 C 87.912 207.059,87.948 209.357,88.702 210.987 C 89.622 212.973,91.440 214.794,93.148 215.440 C 94.820 216.071,161.180 216.071,162.852 215.440 C 164.560 214.794,166.378 212.973,167.298 210.987 C 168.052 209.357,168.088 207.068,168.088 160.000 C 168.088 112.932,168.052 110.643,167.298 109.013 C 166.378 107.027,164.560 105.206,162.852 104.560 C 160.912 103.827,94.460 103.971,92.800 104.711 " stroke="none" fill-rule="evenodd"></path></svg>