<svg fill="currentColor" viewBox="0 0 256 256" xmlns="http://www.w3.org/2000/svg"><path d="M92.782 0.802 C 89.257 2.403,87.318 6.189,88.245 9.658 C 88.958 12.322,89.844 13.510,92.114 14.844 L 94.080 16.000 128.000 16.000 L 161.920 16.000 163.886 14.844 C 166.156 13.510,167.042 12.322,167.755 9.658 C 168.682 6.189,166.743 2.403,163.218 0.802 C 161.592 0.063,159.584 0.019,128.000 0.019 C 96.416 0.019,94.408 0.063,92.782 0.802 M74.774 32.647 C 70.337 33.611,66.723 35.662,63.146 39.246 C 59.902 42.496,58.439 44.894,56.895 49.493 C 56.139 51.745,56.107 55.402,56.107 139.947 L 56.107 228.053 57.131 231.180 C 59.693 239.001,66.239 245.192,74.088 247.217 C 76.410 247.816,82.571 247.893,128.000 247.893 C 173.429 247.893,179.590 247.816,181.912 247.217 C 189.761 245.192,196.307 239.001,198.869 231.180 L 199.893 228.053 199.893 139.733 L 199.893 51.413 198.666 48.213 C 195.532 40.039,189.075 34.333,181.029 32.628 C 176.860 31.745,78.847 31.762,74.774 32.647 M130.888 96.660 C 134.121 98.011,135.782 100.469,135.833 103.977 C 135.863 106.018,135.386 107.180,130.461 117.082 L 125.057 127.947 135.841 128.080 L 146.625 128.213 148.354 129.359 C 150.492 130.774,151.893 133.499,151.893 136.239 C 151.893 137.987,150.791 140.428,143.040 155.838 C 133.516 174.773,133.526 174.758,129.662 175.799 C 124.571 177.170,119.161 172.014,120.174 166.757 C 120.325 165.974,122.814 160.594,125.706 154.801 L 130.963 144.268 120.628 144.134 C 111.296 144.013,110.130 143.917,108.614 143.147 C 105.935 141.785,104.406 139.531,104.196 136.632 L 104.019 134.185 112.761 116.692 C 117.569 107.072,121.958 98.778,122.514 98.263 C 124.842 96.107,128.081 95.487,130.888 96.660 " stroke="none" fill-rule="evenodd"></path></svg>