<svg fill="currentColor" viewBox="0 0 256 256" xmlns="http://www.w3.org/2000/svg"><path d="M12.813 40.782 C 10.863 41.628,9.895 42.542,8.915 44.463 C 8.130 46.000,8.107 48.423,8.107 128.000 C 8.107 207.577,8.130 210.000,8.915 211.537 C 9.913 213.492,10.882 214.390,12.909 215.237 C 15.815 216.451,19.932 215.645,21.850 213.485 C 23.812 211.276,23.893 210.453,23.893 192.867 L 23.893 176.213 128.000 176.213 L 232.107 176.213 232.107 193.084 C 232.107 208.796,232.162 210.063,232.915 211.537 C 233.913 213.492,234.882 214.390,236.909 215.237 C 241.255 217.053,246.212 214.785,247.489 210.396 C 247.795 209.343,247.895 192.328,247.804 156.800 L 247.669 104.747 246.692 101.575 C 245.439 97.512,243.293 92.876,241.212 89.736 C 235.671 81.373,226.133 74.980,216.114 72.912 C 212.431 72.152,208.251 72.118,118.080 72.112 L 23.893 72.107 23.884 59.200 C 23.876 47.592,23.796 46.122,23.091 44.587 C 22.159 42.557,21.207 41.647,19.091 40.763 C 17.125 39.941,14.735 39.949,12.813 40.782 M96.000 123.947 L 96.000 160.000 59.947 160.000 L 23.893 160.000 23.893 123.947 L 23.893 87.893 59.947 87.893 L 96.000 87.893 96.000 123.947 " stroke="none" fill-rule="evenodd"></path></svg>