<svg fill="currentColor" viewBox="0 0 256 256" xmlns="http://www.w3.org/2000/svg"><path d="M27.520 40.702 C 23.591 41.949,20.104 44.676,18.128 48.048 C 15.724 52.150,15.801 49.481,15.801 128.000 C 15.801 206.519,15.724 203.850,18.128 207.952 C 19.638 210.530,22.610 213.178,25.525 214.545 L 27.947 215.680 128.000 215.680 L 228.053 215.680 230.475 214.545 C 235.298 212.284,238.511 208.281,239.591 203.189 C 240.499 198.901,240.499 57.099,239.591 52.811 C 238.511 47.719,235.298 43.716,230.475 41.455 L 228.053 40.320 128.640 40.240 C 49.304 40.176,28.882 40.269,27.520 40.702 M99.091 81.039 C 117.520 85.752,125.913 107.950,115.169 123.564 C 113.876 125.444,113.845 125.576,114.607 125.973 C 115.051 126.204,116.979 127.983,118.893 129.927 C 121.690 132.766,122.759 134.245,124.333 137.450 C 127.078 143.039,127.751 145.931,127.743 152.107 C 127.736 157.921,127.068 161.021,124.798 165.773 C 120.985 173.754,114.067 179.710,105.173 182.670 C 102.214 183.654,101.971 183.665,78.720 183.802 C 65.813 183.879,54.625 183.825,53.858 183.683 C 52.120 183.361,49.554 181.156,48.790 179.327 C 47.913 177.229,47.937 86.246,48.815 84.565 C 49.469 83.314,51.334 81.460,52.693 80.710 C 53.282 80.385,60.100 80.235,74.705 80.226 C 94.254 80.214,96.109 80.276,99.091 81.039 M202.959 80.667 C 204.593 81.285,206.489 83.126,207.199 84.786 C 208.432 87.669,207.574 91.958,205.363 93.957 C 203.110 95.994,203.029 96.000,176.000 96.000 C 148.971 96.000,148.890 95.994,146.637 93.957 C 144.420 91.952,143.482 87.117,144.815 84.565 C 145.469 83.314,147.334 81.460,148.693 80.710 C 149.866 80.063,201.253 80.023,202.959 80.667 M64.000 107.923 L 64.000 119.893 79.071 119.893 C 95.860 119.893,96.602 119.793,99.764 117.086 C 101.773 115.367,103.556 111.991,103.938 109.185 C 104.533 104.814,101.907 99.906,97.707 97.537 L 95.360 96.213 79.680 96.083 L 64.000 95.952 64.000 107.923 M186.186 105.363 C 202.768 109.886,214.629 124.198,215.753 141.041 C 216.135 146.753,214.962 149.488,211.447 151.084 C 209.810 151.828,208.039 151.875,181.653 151.884 C 161.387 151.891,153.600 152.025,153.600 152.367 C 153.600 153.676,156.669 158.402,159.135 160.889 C 164.248 166.047,171.988 168.772,178.734 167.789 C 183.051 167.159,186.384 165.866,189.585 163.578 C 194.731 159.901,197.041 159.304,200.338 160.802 C 204.881 162.866,206.443 168.392,203.677 172.613 C 201.666 175.681,192.413 181.007,186.240 182.648 C 181.061 184.025,172.887 184.229,167.820 183.106 C 152.812 179.781,141.329 168.826,137.311 153.998 C 135.905 148.807,135.905 139.193,137.311 134.002 C 141.391 118.944,153.485 107.575,168.420 104.756 C 173.136 103.866,181.779 104.161,186.186 105.363 M172.352 120.327 C 167.155 121.134,161.675 124.091,158.185 127.973 C 156.409 129.949,153.600 134.641,153.600 135.633 C 153.600 135.974,159.871 136.107,176.000 136.107 C 192.129 136.107,198.400 135.974,198.400 135.633 C 198.400 134.330,195.311 129.605,192.853 127.147 C 187.447 121.740,179.748 119.179,172.352 120.327 M64.000 152.111 L 64.000 168.150 81.813 168.022 L 99.627 167.893 102.486 166.539 C 109.451 163.239,113.108 156.131,111.589 148.844 C 110.523 143.733,107.315 139.724,102.475 137.455 L 100.053 136.320 82.027 136.196 L 64.000 136.072 64.000 152.111 " stroke="none" fill-rule="evenodd"></path></svg>