<svg fill="currentColor" viewBox="0 0 256 256" xmlns="http://www.w3.org/2000/svg"><path d="M121.545 24.343 C 92.572 26.426,65.941 45.507,54.575 72.326 C 49.750 83.711,47.791 94.432,47.788 109.461 C 47.785 123.620,45.051 143.398,41.132 157.606 C 39.200 164.609,37.675 168.728,34.642 175.136 C 32.247 180.196,32.213 180.320,32.213 184.116 C 32.213 187.602,32.345 188.232,33.610 190.802 C 35.341 194.317,38.712 197.521,42.135 198.903 C 44.563 199.884,44.799 199.895,66.715 200.107 L 88.842 200.320 89.781 203.520 C 93.663 216.760,104.374 227.052,118.072 230.703 C 124.055 232.297,131.945 232.297,137.928 230.703 C 151.626 227.052,162.337 216.760,166.219 203.520 L 167.158 200.320 189.285 200.107 L 211.413 199.893 213.973 198.864 C 215.778 198.138,217.300 197.068,219.131 195.237 C 222.571 191.797,223.738 188.942,223.766 183.893 C 223.786 180.352,223.729 180.146,221.367 175.147 C 218.262 168.578,217.077 165.407,215.027 158.175 C 210.935 143.744,208.847 128.781,208.213 109.348 C 207.989 102.491,207.512 94.907,207.153 92.494 C 202.167 59.016,176.796 32.238,143.796 25.622 C 139.914 24.844,129.305 23.798,126.933 23.959 C 126.464 23.991,124.039 24.164,121.545 24.343 M146.057 88.351 C 148.175 88.939,150.859 91.385,151.492 93.305 C 151.767 94.138,151.902 95.763,151.791 96.915 C 151.608 98.817,150.454 100.715,139.368 117.345 C 132.646 127.428,127.147 135.775,127.147 135.893 C 127.147 136.010,131.323 136.111,136.427 136.116 C 147.968 136.128,149.438 136.603,151.237 140.909 C 152.072 142.907,152.072 145.093,151.237 147.091 C 150.353 149.207,149.443 150.159,147.413 151.091 C 145.845 151.811,144.263 151.875,127.872 151.884 C 108.914 151.894,108.879 151.891,106.515 149.815 C 104.344 147.910,103.509 143.910,104.691 141.081 C 105.012 140.312,110.581 131.726,117.066 122.001 L 128.856 104.320 119.362 104.107 C 109.066 103.875,108.519 103.758,106.160 101.265 C 104.095 99.082,103.502 95.714,104.683 92.886 C 105.395 91.183,107.991 88.847,109.554 88.502 C 110.196 88.361,110.912 88.181,111.147 88.103 C 112.313 87.714,144.588 87.943,146.057 88.351 M149.902 201.707 C 146.395 210.113,137.471 215.893,128.000 215.893 C 118.529 215.893,109.605 210.113,106.098 201.707 L 105.430 200.107 128.000 200.107 L 150.570 200.107 149.902 201.707 " stroke="none" fill-rule="evenodd"></path></svg>