<svg fill="currentColor" viewBox="0 0 256 256" xmlns="http://www.w3.org/2000/svg"><path d="M122.240 24.333 C 111.554 25.081,101.752 27.787,92.013 32.681 C 87.449 34.974,86.357 35.868,85.286 38.187 C 84.303 40.318,84.287 42.409,85.238 44.488 C 86.346 46.911,205.616 177.967,207.553 178.891 C 209.294 179.721,212.258 179.850,214.052 179.174 C 215.768 178.527,217.930 176.304,218.488 174.615 C 219.274 172.233,219.051 170.580,217.228 165.272 C 213.684 154.950,210.735 140.972,209.275 127.573 C 208.904 124.171,208.424 116.072,208.209 109.577 C 207.695 94.049,207.016 88.856,204.399 80.427 C 197.838 59.300,183.327 42.350,163.200 32.302 C 150.870 26.147,136.439 23.339,122.240 24.333 M44.537 32.816 C 41.931 34.000,40.407 36.239,40.193 39.202 C 40.078 40.786,40.242 42.141,40.665 43.107 C 41.021 43.921,45.243 48.896,50.047 54.162 L 58.781 63.738 56.721 67.816 C 52.823 75.530,50.117 83.996,48.858 92.419 C 48.510 94.748,48.037 102.122,47.807 108.807 C 47.363 121.723,46.989 126.344,45.613 135.893 C 43.376 151.419,38.812 167.658,34.566 175.196 C 31.557 180.539,31.256 186.020,33.699 190.983 C 35.337 194.310,38.791 197.553,42.135 198.903 C 44.563 199.884,44.799 199.895,66.715 200.107 L 88.842 200.320 89.769 203.520 C 93.643 216.896,104.580 227.248,118.710 230.913 C 123.385 232.126,131.870 232.223,136.492 231.116 C 146.985 228.604,155.941 222.388,161.542 213.731 C 163.817 210.213,164.944 207.745,166.203 203.520 L 167.157 200.320 174.992 200.213 L 182.827 200.106 192.853 211.202 C 199.910 219.011,203.394 222.550,204.615 223.149 C 209.168 225.383,214.439 222.958,215.714 218.042 C 216.910 213.433,223.513 221.141,134.194 122.880 C 75.960 58.815,52.835 33.651,51.558 32.960 C 49.395 31.788,46.912 31.738,44.537 32.816 M149.902 201.707 C 146.395 210.113,137.471 215.893,128.000 215.893 C 118.533 215.893,109.527 210.044,106.001 201.604 L 105.375 200.107 127.973 200.107 L 150.570 200.107 149.902 201.707 " stroke="none" fill-rule="evenodd"></path></svg>