<svg fill="currentColor" viewBox="0 0 256 256" xmlns="http://www.w3.org/2000/svg"><path d="M164.480 16.922 C 153.356 19.300,143.053 27.904,138.841 38.333 C 136.810 43.360,136.334 45.970,136.337 52.053 C 136.340 58.764,136.980 61.765,139.645 67.550 L 141.378 71.313 106.281 106.412 L 71.184 141.511 67.912 139.883 C 61.354 136.620,53.343 135.448,46.162 136.702 C 37.982 138.130,31.558 141.623,25.667 147.846 C 22.894 150.776,21.770 152.384,20.060 155.862 C 17.221 161.640,16.575 164.240,16.330 170.880 C 16.159 175.524,16.271 177.038,17.020 180.182 C 19.561 190.851,26.303 199.359,36.140 204.313 C 38.956 205.731,45.498 207.787,47.194 207.787 C 47.984 207.787,48.213 208.016,48.213 208.806 C 48.213 210.493,50.266 217.036,51.681 219.860 C 57.927 232.324,69.981 239.787,83.867 239.787 C 94.145 239.787,102.835 236.052,109.925 228.586 C 120.383 217.573,122.801 201.727,116.115 188.019 L 114.532 184.773 149.609 149.697 L 184.687 114.622 188.523 116.404 C 194.490 119.177,198.741 120.028,205.440 119.791 C 210.244 119.622,211.529 119.413,215.040 118.227 C 219.940 116.573,222.846 114.997,226.693 111.908 C 232.364 107.354,237.066 100.049,238.992 92.800 C 240.391 87.534,240.292 79.575,238.765 74.502 C 236.771 67.880,234.370 63.664,230.029 59.163 C 224.624 53.559,216.987 49.501,209.908 48.471 L 207.976 48.189 207.292 44.879 C 204.361 30.708,193.045 19.530,178.886 16.821 C 174.861 16.051,168.340 16.096,164.480 16.922 " stroke="none" fill-rule="evenodd"></path></svg>