<svg fill="currentColor" viewBox="0 0 256 256" xmlns="http://www.w3.org/2000/svg"><path d="M180.053 24.318 C 171.817 25.750,131.210 34.815,129.419 35.622 C 125.352 37.454,121.945 41.351,120.702 45.593 L 120.157 47.453 119.612 44.784 C 118.572 39.682,115.379 35.794,110.264 33.398 L 107.733 32.213 80.000 32.213 L 52.267 32.213 49.408 33.568 C 45.901 35.229,43.211 37.846,41.566 41.197 L 40.320 43.733 40.190 126.720 C 40.096 186.461,40.192 210.326,40.534 211.918 C 41.163 214.848,43.838 218.904,46.377 220.778 C 47.505 221.609,49.647 222.674,51.138 223.145 C 53.729 223.962,55.016 224.000,80.000 224.000 C 104.984 224.000,106.271 223.962,108.862 223.145 C 112.328 222.051,115.216 219.912,117.143 217.009 C 120.093 212.567,119.889 218.805,119.937 131.666 C 119.964 83.261,120.131 53.189,120.370 53.973 C 120.585 54.677,128.223 90.786,137.345 134.215 C 148.934 189.394,154.215 213.737,154.878 215.037 C 156.401 218.022,159.691 221.185,162.659 222.517 C 167.620 224.743,167.892 224.711,195.840 218.680 C 212.995 214.978,221.499 212.957,223.035 212.218 C 227.616 210.013,230.846 205.494,231.793 199.964 C 232.241 197.348,232.005 196.158,215.308 116.763 C 205.991 72.462,197.990 35.204,197.528 33.967 C 195.069 27.396,187.235 23.070,180.053 24.318 M184.302 47.246 C 185.108 51.173,185.777 54.751,185.790 55.197 C 185.811 55.926,183.448 56.518,162.627 61.003 C 147.599 64.241,139.387 65.834,139.287 65.532 C 138.896 64.353,136.046 50.266,136.175 50.148 C 136.325 50.010,181.637 40.202,182.405 40.141 C 182.643 40.122,183.496 43.320,184.302 47.246 M104.107 56.107 L 104.107 64.000 80.000 64.000 L 55.893 64.000 55.893 56.107 L 55.893 48.213 80.000 48.213 L 104.107 48.213 104.107 56.107 M189.649 72.640 C 190.678 77.026,192.735 87.286,192.611 87.416 C 192.401 87.637,147.597 97.255,146.713 97.269 C 145.971 97.281,145.732 96.432,143.747 86.732 C 143.208 84.099,142.857 81.854,142.968 81.743 C 143.167 81.544,187.873 71.784,188.899 71.715 C 189.187 71.696,189.525 72.112,189.649 72.640 M214.317 189.917 C 215.207 194.168,215.843 197.739,215.730 197.852 C 215.515 198.067,170.383 207.787,169.600 207.787 C 169.195 207.787,165.773 192.485,166.104 192.154 C 166.310 191.948,210.846 182.288,211.842 182.233 C 212.613 182.191,212.857 182.949,214.317 189.917 M104.009 200.000 L 103.893 208.000 80.000 208.000 L 56.107 208.000 55.991 200.000 L 55.875 192.000 80.000 192.000 L 104.125 192.000 104.009 200.000 " stroke="none" fill-rule="evenodd"></path></svg>