<svg fill="currentColor" viewBox="0 0 256 256" xmlns="http://www.w3.org/2000/svg"><path d="M115.200 25.022 C 88.658 29.072,65.896 44.455,52.050 67.700 C 46.334 77.296,41.669 91.060,40.689 101.227 L 40.411 104.107 35.338 104.107 C 29.550 104.107,28.164 104.511,26.172 106.780 C 24.083 109.159,23.740 110.773,24.070 116.657 C 24.903 131.476,28.432 144.883,34.973 158.080 C 41.571 171.393,50.250 182.460,61.493 191.899 C 65.295 195.091,74.203 201.220,77.761 203.093 C 79.726 204.127,79.787 204.217,79.787 206.108 C 79.787 213.650,83.382 219.718,89.600 222.672 L 91.947 223.787 128.000 223.787 L 164.053 223.787 166.400 222.672 C 172.618 219.718,176.213 213.650,176.213 206.108 C 176.213 204.217,176.274 204.127,178.239 203.093 C 181.769 201.235,190.695 195.100,194.372 192.004 C 216.898 173.034,230.268 146.212,231.930 116.657 C 232.260 110.773,231.917 109.159,229.828 106.780 C 227.836 104.511,226.450 104.107,220.662 104.107 L 215.589 104.107 215.311 101.227 C 214.645 94.318,212.062 84.948,208.602 76.883 C 201.616 60.602,188.863 46.110,173.227 36.684 C 162.998 30.518,152.416 26.755,140.319 24.984 C 134.538 24.138,120.861 24.158,115.200 25.022 M140.160 41.114 C 147.471 42.506,147.456 42.492,142.933 43.719 C 138.796 44.842,132.179 47.555,127.264 50.145 C 107.442 60.589,92.333 78.009,85.084 98.773 L 83.297 103.893 70.022 104.006 L 56.747 104.119 56.747 102.793 C 56.747 100.459,58.404 93.238,59.985 88.684 C 69.162 62.243,92.855 43.341,120.533 40.377 C 124.043 40.002,136.840 40.482,140.160 41.114 M172.081 56.282 C 173.738 56.554,174.542 57.021,176.238 58.691 C 177.395 59.831,178.199 60.889,178.024 61.043 C 177.849 61.198,175.499 62.265,172.800 63.415 C 162.853 67.655,154.239 73.572,145.885 81.901 C 139.899 87.869,136.207 92.602,132.195 99.453 L 129.493 104.064 114.880 104.085 C 105.441 104.099,100.267 103.956,100.267 103.681 C 100.267 103.448,101.096 101.371,102.110 99.067 C 112.561 75.321,136.054 58.481,161.707 56.350 C 167.163 55.896,169.636 55.880,172.081 56.282 M189.772 75.200 C 190.859 76.527,194.638 84.681,196.022 88.684 C 197.598 93.243,199.253 100.469,199.253 102.787 L 199.253 104.107 173.867 104.107 C 159.904 104.107,148.480 103.943,148.480 103.744 C 148.480 103.051,152.952 97.475,156.361 93.918 C 163.930 86.018,173.108 80.128,184.107 76.111 C 188.387 74.549,189.140 74.427,189.772 75.200 " stroke="none" fill-rule="evenodd"></path></svg>