<svg fill="currentColor" viewBox="0 0 256 256" xmlns="http://www.w3.org/2000/svg"><path d="M36.053 40.505 C 30.344 41.916,25.583 47.035,24.322 53.120 C 24.024 54.557,23.916 79.407,23.993 129.280 L 24.107 203.307 25.224 205.957 C 27.063 210.321,30.434 213.551,34.721 215.057 C 37.053 215.877,38.826 215.893,128.000 215.893 C 217.174 215.893,218.947 215.877,221.279 215.057 C 225.566 213.551,228.937 210.321,230.776 205.957 L 231.893 203.307 231.893 128.000 L 231.893 52.693 230.867 50.144 C 229.561 46.901,226.312 43.426,222.933 41.659 L 220.373 40.320 128.853 40.255 C 78.517 40.219,36.757 40.331,36.053 40.505 M99.218 64.802 C 102.613 66.344,104.602 70.162,103.802 73.600 C 103.584 74.539,96.651 87.082,88.396 101.473 C 80.141 115.865,73.387 127.802,73.387 128.000 C 73.387 128.198,80.141 140.135,88.396 154.527 C 96.651 168.918,103.584 181.461,103.802 182.400 C 104.335 184.688,103.592 187.318,101.855 189.296 C 98.873 192.692,93.929 192.982,90.744 189.946 C 90.083 189.316,82.023 175.648,72.834 159.573 C 56.191 130.460,56.126 130.337,56.154 127.958 C 56.182 125.616,56.499 125.017,72.725 96.598 C 81.824 80.664,89.679 67.169,90.181 66.610 C 91.404 65.248,94.165 64.019,96.000 64.019 C 96.821 64.019,98.269 64.371,99.218 64.802 M162.633 64.499 C 163.564 64.778,164.902 65.671,165.669 66.526 C 166.423 67.367,174.429 80.999,183.460 96.821 C 199.738 125.341,199.879 125.609,199.879 128.000 C 199.879 130.391,199.739 130.658,183.460 159.172 C 174.429 174.990,166.467 188.588,165.767 189.390 C 163.465 192.024,159.743 192.761,156.676 191.188 C 153.548 189.584,152.320 187.472,152.320 183.697 C 152.320 181.489,152.756 180.662,167.316 155.245 C 175.564 140.847,182.391 128.773,182.488 128.415 C 182.584 128.056,175.919 115.963,167.676 101.540 C 159.434 87.118,152.487 74.548,152.239 73.606 C 151.350 70.228,153.344 66.364,156.782 64.802 C 158.796 63.887,160.327 63.808,162.633 64.499 " stroke="none" fill-rule="evenodd"></path></svg>