<svg fill="currentColor" viewBox="0 0 256 256" xmlns="http://www.w3.org/2000/svg"><path d="M36.053 40.505 C 30.344 41.916,25.583 47.035,24.322 53.120 C 24.024 54.557,23.916 79.407,23.993 129.280 L 24.107 203.307 25.224 205.957 C 27.063 210.321,30.434 213.551,34.721 215.057 C 37.053 215.877,38.826 215.893,128.000 215.893 C 217.174 215.893,218.947 215.877,221.279 215.057 C 225.566 213.551,228.937 210.321,230.776 205.957 L 231.893 203.307 231.893 128.000 L 231.893 52.693 230.867 50.144 C 229.561 46.901,226.312 43.426,222.933 41.659 L 220.373 40.320 128.853 40.255 C 78.517 40.219,36.757 40.331,36.053 40.505 M99.218 64.802 C 102.739 66.402,104.600 70.123,103.689 73.742 C 102.989 76.522,101.950 77.743,98.588 79.741 C 94.469 82.187,88.945 86.830,85.740 90.540 C 76.577 101.145,72.113 113.422,72.108 128.031 C 72.106 137.545,74.004 145.888,77.974 153.813 C 82.561 162.970,89.640 170.760,98.058 175.916 C 101.974 178.314,102.981 179.438,103.718 182.232 C 104.973 186.996,101.009 192.000,95.979 192.000 C 91.794 192.000,80.583 183.907,73.734 175.943 C 65.625 166.513,60.077 155.426,57.593 143.689 C 55.640 134.460,55.640 121.540,57.593 112.311 C 61.337 94.617,72.320 78.165,86.978 68.293 C 93.398 63.970,95.848 63.271,99.218 64.802 M163.627 65.019 C 169.114 67.617,177.770 74.668,182.732 80.582 C 193.010 92.832,198.473 106.214,199.694 122.133 C 201.243 142.322,195.240 160.855,182.266 175.943 C 175.548 183.755,164.201 192.000,160.169 192.000 C 158.367 192.000,155.879 191.003,154.525 189.740 C 152.924 188.245,152.208 186.456,152.230 184.007 C 152.262 180.443,153.431 178.924,158.933 175.296 C 169.861 168.091,178.403 156.582,181.770 144.524 C 184.623 134.311,184.623 121.689,181.770 111.476 C 178.251 98.877,169.243 87.010,157.941 80.085 C 153.624 77.440,152.198 75.422,152.198 71.955 C 152.198 68.542,153.845 66.055,157.016 64.680 C 159.148 63.755,161.179 63.860,163.627 65.019 " stroke="none" fill-rule="evenodd"></path></svg>