<svg fill="currentColor" viewBox="0 0 256 256" xmlns="http://www.w3.org/2000/svg"><path d="M59.679 49.436 C 56.969 51.155,56.237 52.927,55.841 58.741 C 55.662 61.364,55.301 64.696,55.038 66.147 C 53.083 76.926,48.013 86.725,40.238 94.753 C 35.310 99.842,30.763 103.157,24.185 106.456 C 18.001 109.558,16.598 110.995,16.305 114.530 C 15.930 119.048,18.972 122.778,23.376 123.202 C 25.309 123.387,25.976 123.196,31.467 120.880 C 31.889 120.702,32.000 124.754,32.000 140.328 L 32.000 160.000 27.627 160.002 C 22.109 160.005,20.254 160.514,18.303 162.559 C 16.817 164.117,15.571 167.343,15.966 168.609 C 16.063 168.920,16.257 169.698,16.397 170.339 C 16.714 171.786,18.889 174.311,20.650 175.275 C 21.820 175.916,23.934 176.015,38.916 176.129 L 55.858 176.258 55.982 189.142 C 56.099 201.251,56.160 202.129,56.999 203.733 C 59.842 209.173,68.158 209.173,71.001 203.733 C 71.840 202.129,71.901 201.251,72.018 189.120 L 72.142 176.213 128.000 176.213 L 183.858 176.213 183.982 189.120 C 184.099 201.251,184.160 202.129,184.999 203.733 C 187.842 209.173,196.158 209.173,199.001 203.733 C 199.840 202.129,199.901 201.251,200.018 189.142 L 200.142 176.258 217.084 176.129 C 232.066 176.015,234.180 175.916,235.350 175.275 C 237.111 174.311,239.286 171.786,239.603 170.339 C 239.743 169.698,239.923 168.957,240.002 168.693 C 240.302 167.693,239.269 164.441,238.212 163.055 C 236.407 160.689,234.340 160.020,228.800 160.009 L 224.000 160.000 224.000 140.328 C 224.000 124.754,224.111 120.702,224.533 120.880 C 230.024 123.196,230.691 123.387,232.624 123.202 C 237.028 122.778,240.070 119.048,239.695 114.530 C 239.402 110.995,237.999 109.558,231.815 106.456 C 225.237 103.157,220.690 99.842,215.762 94.753 C 207.987 86.725,202.917 76.926,200.962 66.147 C 200.699 64.696,200.338 61.364,200.159 58.741 C 199.763 52.927,199.031 51.155,196.321 49.436 C 193.609 47.716,190.391 47.716,187.679 49.436 C 184.943 51.171,184.239 52.910,183.825 58.963 C 182.845 73.287,177.890 84.666,168.257 94.715 C 152.964 110.669,130.290 116.076,109.360 108.761 C 95.808 104.024,83.887 93.358,77.646 80.384 C 74.348 73.528,72.741 67.236,72.175 58.963 C 71.761 52.910,71.057 51.171,68.321 49.436 C 66.789 48.465,65.901 48.213,64.000 48.213 C 62.099 48.213,61.211 48.465,59.679 49.436 M68.580 100.979 C 69.464 101.693,70.571 102.929,71.040 103.725 C 71.866 105.127,71.893 105.940,71.893 129.280 C 71.893 142.539,71.749 153.900,71.573 154.527 C 70.789 157.322,67.097 159.981,64.000 159.981 C 60.903 159.981,57.211 157.322,56.427 154.527 C 56.251 153.900,56.107 142.539,56.107 129.280 C 56.107 103.024,56.021 104.008,58.519 101.682 C 60.430 99.903,61.939 99.361,64.527 99.525 C 66.480 99.649,67.298 99.942,68.580 100.979 M196.580 100.979 C 197.464 101.693,198.571 102.929,199.040 103.725 C 199.866 105.127,199.893 105.940,199.893 129.280 C 199.893 142.539,199.749 153.900,199.573 154.527 C 198.789 157.322,195.097 159.981,192.000 159.981 C 188.903 159.981,185.211 157.322,184.427 154.527 C 184.251 153.900,184.107 142.539,184.107 129.280 C 184.107 103.024,184.021 104.008,186.519 101.682 C 188.430 99.903,189.939 99.361,192.527 99.525 C 194.480 99.649,195.298 99.942,196.580 100.979 M108.457 124.805 C 109.341 125.389,110.451 126.628,110.925 127.557 C 111.731 129.137,111.787 130.048,111.787 141.653 C 111.787 153.160,111.726 154.180,110.945 155.710 C 107.933 161.614,99.592 161.252,96.796 155.097 C 96.104 153.575,96.019 152.092,96.019 141.653 C 96.019 131.147,96.101 129.742,96.806 128.213 C 98.915 123.646,104.317 122.065,108.457 124.805 M154.120 123.752 C 156.243 124.342,158.242 126.091,159.198 128.196 C 159.897 129.735,159.981 131.181,159.981 141.653 C 159.981 152.092,159.896 153.575,159.204 155.097 C 156.408 161.252,148.067 161.614,145.055 155.710 C 144.274 154.180,144.213 153.160,144.213 141.653 C 144.213 130.135,144.274 129.127,145.057 127.592 C 145.957 125.828,147.785 124.297,149.671 123.728 C 151.293 123.239,152.293 123.245,154.120 123.752 " stroke="none" fill-rule="evenodd"></path></svg>