<svg fill="currentColor" viewBox="0 0 256 256" xmlns="http://www.w3.org/2000/svg"><path d="M149.333 8.752 C 148.043 9.104,145.355 10.187,143.360 11.161 C 140.485 12.564,139.023 13.646,136.304 16.385 C 134.247 18.458,132.343 20.864,131.545 22.400 C 130.813 23.808,125.372 37.248,119.455 52.267 C 113.537 67.285,108.212 80.220,107.621 81.011 C 106.199 82.912,103.244 84.211,100.933 83.951 C 99.962 83.841,92.935 81.190,85.317 78.059 L 71.467 72.365 67.200 72.343 C 63.338 72.322,62.690 72.438,60.373 73.559 C 56.051 75.650,48.245 84.331,41.196 94.887 C 32.811 107.443,27.359 121.805,24.899 137.813 C 23.860 144.581,23.862 159.480,24.904 166.613 C 27.897 187.096,35.130 204.448,47.289 220.317 C 52.252 226.794,56.598 231.103,58.724 231.655 C 59.958 231.975,86.529 232.080,147.257 232.003 L 234.027 231.893 235.733 231.001 C 239.629 228.966,241.034 223.856,238.763 219.982 C 237.833 218.395,236.917 217.661,233.400 215.687 C 218.420 207.280,208.318 194.208,203.328 176.776 C 200.921 168.364,200.449 163.980,200.123 146.987 C 199.786 129.429,199.744 129.156,196.784 125.227 C 195.900 124.053,194.272 122.485,193.166 121.742 C 192.060 120.999,185.250 118.052,178.031 115.195 C 170.813 112.337,164.210 109.550,163.358 109.001 C 161.203 107.612,159.830 104.674,160.110 102.052 C 160.243 100.810,164.551 89.571,171.487 72.372 C 177.627 57.148,182.951 43.420,183.317 41.866 C 184.290 37.739,183.886 31.109,182.399 26.787 C 179.601 18.657,173.055 12.210,164.693 9.349 C 161.075 8.110,152.863 7.791,149.333 8.752 M186.429 175.314 C 188.321 184.331,192.133 194.297,196.473 201.569 C 199.041 205.874,203.826 212.321,205.813 214.154 C 206.429 214.723,206.933 215.347,206.933 215.541 C 206.933 215.735,186.213 215.893,160.889 215.893 L 114.845 215.893 111.784 212.587 C 102.327 202.370,95.206 189.750,91.501 176.640 C 90.871 174.411,89.903 171.982,89.349 171.244 C 88.122 169.606,85.154 168.103,83.172 168.116 C 80.048 168.136,76.428 170.690,75.488 173.536 C 74.748 175.779,75.239 178.540,77.659 185.752 C 80.396 193.908,85.146 203.602,89.797 210.523 L 93.406 215.893 78.903 215.893 L 64.401 215.893 63.027 214.332 C 60.217 211.139,56.643 206.150,53.750 201.380 C 41.641 181.416,37.326 157.034,41.834 134.043 C 42.694 129.657,45.203 121.494,46.861 117.684 L 47.730 115.689 116.604 143.238 L 185.479 170.788 186.429 175.314 " stroke="none" fill-rule="evenodd"></path></svg>