<svg viewBox="0 0 256 256" xmlns="http://www.w3.org/2000/svg"><path d="M67.627 32.300 C 62.164 33.077,56.526 35.557,51.940 39.201 C 46.560 43.476,42.757 49.470,40.967 56.495 C 40.120 59.816,40.107 61.072,40.107 135.254 C 40.107 218.454,39.909 212.569,42.857 217.009 C 44.808 219.948,47.690 222.066,51.239 223.168 C 53.884 223.990,54.932 224.034,68.945 223.914 L 83.840 223.787 86.445 222.583 C 89.742 221.059,93.028 217.757,94.589 214.400 C 95.674 212.065,95.792 211.324,95.930 205.973 L 96.082 200.107 128.000 200.107 L 159.918 200.107 160.070 205.973 C 160.208 211.324,160.326 212.065,161.411 214.400 C 162.972 217.757,166.258 221.059,169.555 222.583 L 172.160 223.787 187.055 223.914 C 201.068 224.034,202.116 223.990,204.761 223.168 C 206.308 222.688,208.495 221.613,209.623 220.780 C 212.162 218.903,214.837 214.848,215.468 211.918 C 215.810 210.325,215.907 188.471,215.812 133.760 L 215.680 57.813 214.671 54.827 C 210.979 43.899,203.128 36.270,192.213 33.005 C 189.808 32.286,186.011 32.236,129.280 32.179 C 96.075 32.145,68.331 32.200,67.627 32.300 M12.813 72.782 C 10.863 73.628,9.895 74.542,8.915 76.463 C 8.171 77.920,8.107 79.148,8.107 91.943 C 8.107 102.795,8.235 106.142,8.694 107.214 C 10.086 110.468,14.141 112.490,17.686 111.698 C 19.892 111.205,20.983 110.482,22.478 108.523 L 23.680 106.948 23.813 93.047 C 23.898 84.110,23.784 78.596,23.493 77.604 C 22.202 73.206,17.123 70.913,12.813 72.782 M200.004 92.053 L 199.893 112.000 128.000 112.000 L 56.107 112.000 55.996 92.053 L 55.885 72.107 128.000 72.107 L 200.115 72.107 200.004 92.053 M236.813 72.782 C 234.863 73.628,233.895 74.542,232.915 76.463 C 232.171 77.920,232.107 79.148,232.107 91.943 C 232.107 102.795,232.235 106.142,232.694 107.214 C 234.086 110.468,238.141 112.490,241.686 111.698 C 243.892 111.205,244.983 110.482,246.478 108.523 L 247.680 106.948 247.813 93.047 C 247.898 84.110,247.784 78.596,247.493 77.604 C 246.202 73.206,241.123 70.913,236.813 72.782 M96.088 136.770 C 100.659 138.328,103.869 142.989,103.838 148.024 C 103.810 152.642,101.651 156.319,97.708 158.465 C 89.777 162.781,80.158 157.045,80.250 148.053 C 80.266 146.528,80.504 144.669,80.779 143.921 C 83.022 137.838,89.854 134.646,96.088 136.770 M169.368 137.445 C 173.608 139.564,175.699 143.039,175.750 148.053 C 175.842 157.045,166.223 162.781,158.292 158.465 C 152.690 155.416,150.513 148.555,153.325 142.808 C 155.444 138.476,159.112 136.205,164.092 136.140 C 166.193 136.113,167.203 136.363,169.368 137.445 " stroke="none" fill-rule="evenodd" fill="black"></path></svg>