<svg fill="currentColor" viewBox="0 0 256 256" xmlns="http://www.w3.org/2000/svg"><path d="M119.942 16.872 C 105.737 19.954,94.591 29.842,90.069 43.372 C 88.158 49.092,87.893 52.410,87.893 70.669 L 87.893 87.893 84.587 87.884 C 80.693 87.873,78.299 86.968,75.804 84.563 C 73.275 82.126,72.508 80.239,72.063 75.355 C 71.301 66.986,68.912 61.594,63.610 56.272 C 60.973 53.627,59.622 52.663,56.320 51.073 C 51.214 48.615,48.211 48.026,42.327 48.331 C 34.909 48.715,29.539 51.096,24.311 56.316 C 17.781 62.837,15.309 70.433,16.231 81.151 C 17.026 90.404,19.248 98.382,23.278 106.453 C 26.507 112.920,30.515 118.409,36.053 123.947 C 48.652 136.546,63.485 142.960,82.453 144.014 L 87.893 144.316 87.893 176.265 L 87.893 208.213 62.916 208.213 C 38.899 208.213,37.876 208.246,36.290 209.055 C 33.194 210.634,31.649 213.775,32.191 217.389 C 32.568 219.899,35.156 222.916,37.488 223.564 C 39.633 224.160,216.367 224.160,218.512 223.564 C 220.844 222.916,223.432 219.899,223.809 217.389 C 224.351 213.775,222.806 210.634,219.710 209.055 C 218.124 208.246,217.101 208.213,193.084 208.213 L 168.107 208.213 168.107 196.114 L 168.107 184.014 174.827 183.764 C 182.287 183.486,186.875 182.654,193.907 180.300 C 220.901 171.268,239.822 145.185,239.884 116.922 C 239.903 108.050,237.623 102.339,231.695 96.411 C 225.978 90.694,220.016 88.203,212.053 88.203 C 201.027 88.203,191.565 94.104,186.898 103.893 C 184.939 108.003,184.386 110.184,183.907 115.703 C 183.488 120.528,182.515 122.655,179.580 125.168 C 177.304 127.116,174.637 128.000,171.034 128.000 L 168.140 128.000 167.999 89.067 C 167.858 50.347,167.852 50.113,166.903 46.507 C 162.925 31.391,151.028 19.984,136.018 16.891 C 131.980 16.059,123.735 16.049,119.942 16.872 " stroke="none" fill-rule="evenodd"></path></svg>