<svg fill="currentColor" viewBox="0 0 256 256" xmlns="http://www.w3.org/2000/svg"><path d="M52.926 24.356 C 48.252 25.281,43.642 28.869,41.482 33.264 L 40.320 35.627 40.209 127.253 C 40.101 217.437,40.112 218.917,40.939 221.268 C 42.449 225.566,45.675 228.935,50.043 230.776 L 52.693 231.893 128.000 231.893 L 203.307 231.893 205.957 230.776 C 210.321 228.937,213.551 225.566,215.057 221.279 C 215.877 218.947,215.893 217.174,215.893 128.000 C 215.893 38.826,215.877 37.053,215.057 34.721 C 213.550 30.430,210.072 26.880,205.569 25.034 L 203.307 24.107 129.067 24.043 C 87.649 24.008,53.986 24.146,52.926 24.356 M179.413 56.815 C 181.105 57.752,182.877 59.658,183.440 61.148 C 183.739 61.939,183.893 69.769,183.893 84.098 C 183.893 104.843,183.855 105.923,183.059 107.483 C 181.891 109.772,180.018 111.205,177.485 111.749 C 174.454 112.399,81.546 112.399,78.515 111.749 C 75.982 111.205,74.109 109.772,72.941 107.483 C 72.145 105.923,72.107 104.843,72.107 84.057 C 72.107 66.720,72.224 61.984,72.683 60.886 C 73.395 59.183,75.991 56.847,77.554 56.502 C 78.196 56.361,78.912 56.179,79.147 56.098 C 79.381 56.018,101.749 55.987,128.853 56.029 C 173.889 56.100,178.244 56.168,179.413 56.815 M92.809 137.113 C 100.720 140.797,102.326 150.971,95.924 156.848 C 90.198 162.105,81.256 160.500,77.433 153.529 C 76.363 151.577,76.187 150.799,76.196 148.053 C 76.209 144.180,77.485 141.314,80.254 138.944 C 83.693 136.000,88.816 135.253,92.809 137.113 M133.388 137.301 C 137.067 139.187,139.947 143.814,139.947 147.839 C 139.947 154.452,134.496 160.000,128.000 160.000 C 121.504 160.000,116.053 154.452,116.053 147.839 C 116.053 142.949,119.712 138.077,124.584 136.480 C 126.486 135.856,131.478 136.322,133.388 137.301 M172.034 136.770 C 177.771 138.724,181.162 145.302,179.457 151.167 C 176.963 159.744,166.554 162.795,160.076 156.848 C 157.432 154.421,156.169 151.570,156.164 148.015 C 156.152 139.732,164.132 134.077,172.034 136.770 M94.028 177.654 C 96.368 179.025,98.720 182.063,99.445 184.648 C 100.082 186.923,99.757 191.378,98.822 193.187 C 96.640 197.405,92.753 199.824,88.107 199.855 C 83.170 199.888,79.103 197.321,77.075 192.891 C 75.976 190.492,75.889 185.749,76.900 183.407 C 77.905 181.080,80.587 178.340,82.987 177.191 C 84.817 176.315,85.611 176.191,88.573 176.325 C 91.395 176.452,92.391 176.694,94.028 177.654 M133.578 177.600 C 137.987 179.893,140.271 184.109,139.821 189.122 C 139.542 192.227,137.723 195.563,135.288 197.436 C 127.805 203.192,117.017 198.456,116.172 189.044 C 115.539 181.998,120.872 176.213,128.000 176.213 C 130.454 176.213,131.331 176.431,133.578 177.600 M173.013 177.217 C 175.402 178.332,178.088 181.064,179.100 183.407 C 180.111 185.749,180.024 190.492,178.925 192.891 C 176.897 197.321,172.830 199.888,167.893 199.855 C 161.474 199.812,156.713 195.359,156.256 188.970 C 155.852 183.328,158.765 178.595,163.732 176.822 C 166.353 175.887,170.545 176.065,173.013 177.217 " stroke="none" fill-rule="evenodd"></path></svg>