<svg fill="currentColor" viewBox="0 0 256 256" xmlns="http://www.w3.org/2000/svg"><path d="M76.587 16.818 C 74.997 17.528,73.160 19.454,72.560 21.041 C 72.311 21.702,72.107 24.426,72.107 27.095 L 72.107 31.947 58.133 32.080 L 44.160 32.213 41.387 33.547 C 37.849 35.248,35.219 37.876,33.540 41.387 L 32.213 44.160 32.213 128.000 L 32.213 211.840 33.407 214.400 C 34.974 217.760,38.261 221.060,41.555 222.583 L 44.160 223.787 128.000 223.787 L 211.840 223.787 214.445 222.583 C 217.739 221.060,221.026 217.760,222.593 214.400 L 223.787 211.840 223.787 128.000 L 223.787 44.160 222.583 41.555 C 221.060 38.261,217.760 34.974,214.400 33.407 L 211.840 32.213 197.900 32.080 L 183.960 31.948 183.820 26.465 C 183.682 21.077,183.657 20.955,182.370 19.345 C 180.686 17.240,178.644 16.215,176.134 16.214 C 173.658 16.213,172.094 16.784,170.507 18.267 C 168.523 20.123,168.107 21.650,168.107 27.080 L 168.107 32.000 128.034 32.000 L 87.961 32.000 87.821 26.491 C 87.682 21.074,87.658 20.956,86.370 19.345 C 85.649 18.444,84.401 17.371,83.596 16.961 C 81.863 16.077,78.405 16.006,76.587 16.818 M72.107 52.985 C 72.107 58.706,72.877 60.809,75.647 62.641 C 78.114 64.274,81.886 64.274,84.353 62.641 C 87.123 60.809,87.893 58.706,87.893 52.985 L 87.893 48.213 128.000 48.213 L 168.107 48.213 168.107 52.985 C 168.107 58.706,168.877 60.809,171.647 62.641 C 174.114 64.274,177.886 64.274,180.353 62.641 C 183.123 60.809,183.893 58.706,183.893 52.985 L 183.893 48.213 195.840 48.213 L 207.787 48.213 207.787 64.213 L 207.787 80.213 128.000 80.213 L 48.213 80.213 48.213 64.213 L 48.213 48.213 60.160 48.213 L 72.107 48.213 72.107 52.985 M132.321 121.396 C 133.172 121.946,134.324 123.129,134.881 124.025 C 135.852 125.586,135.899 126.035,136.036 134.933 L 136.179 144.213 145.120 144.213 C 153.051 144.213,154.239 144.305,155.644 145.021 C 156.514 145.466,157.555 146.193,157.957 146.637 C 158.999 147.789,160.000 150.365,160.000 151.893 C 160.000 154.968,157.238 158.807,154.472 159.575 C 153.641 159.806,149.184 159.996,144.570 159.998 L 136.180 160.000 136.033 169.067 C 135.874 178.912,135.749 179.489,133.265 181.840 C 130.311 184.634,125.689 184.634,122.735 181.840 C 120.251 179.489,120.126 178.912,119.967 169.067 L 119.820 160.000 111.430 159.998 C 106.816 159.996,102.359 159.806,101.528 159.575 C 98.762 158.807,96.000 154.968,96.000 151.893 C 96.000 150.365,97.001 147.789,98.043 146.637 C 98.445 146.193,99.486 145.466,100.356 145.021 C 101.761 144.305,102.949 144.213,110.880 144.213 L 119.821 144.213 119.964 134.933 C 120.100 126.097,120.154 125.577,121.097 124.061 C 123.582 120.064,128.464 118.904,132.321 121.396 " stroke="none" fill-rule="evenodd"></path></svg>