<svg fill="currentColor" viewBox="0 0 256 256" xmlns="http://www.w3.org/2000/svg"><path d="M76.587 16.818 C 74.997 17.528,73.160 19.454,72.560 21.041 C 72.311 21.702,72.107 24.426,72.107 27.095 L 72.107 31.947 58.133 32.080 L 44.160 32.213 41.387 33.547 C 37.849 35.248,35.219 37.876,33.540 41.387 L 32.213 44.160 32.213 128.000 L 32.213 211.840 33.407 214.400 C 34.974 217.760,38.261 221.060,41.555 222.583 L 44.160 223.787 128.000 223.787 L 211.840 223.787 214.445 222.583 C 217.739 221.060,221.026 217.760,222.593 214.400 L 223.787 211.840 223.787 128.000 L 223.787 44.160 222.583 41.555 C 221.060 38.261,217.760 34.974,214.400 33.407 L 211.840 32.213 197.900 32.080 L 183.960 31.948 183.820 26.465 C 183.682 21.077,183.657 20.955,182.370 19.345 C 180.686 17.240,178.644 16.215,176.134 16.214 C 173.658 16.213,172.094 16.784,170.507 18.267 C 168.523 20.123,168.107 21.650,168.107 27.080 L 168.107 32.000 128.034 32.000 L 87.961 32.000 87.821 26.491 C 87.682 21.074,87.658 20.956,86.370 19.345 C 85.649 18.444,84.401 17.371,83.596 16.961 C 81.863 16.077,78.405 16.006,76.587 16.818 M72.107 52.985 C 72.107 58.706,72.877 60.809,75.647 62.641 C 78.114 64.274,81.886 64.274,84.353 62.641 C 87.123 60.809,87.893 58.706,87.893 52.985 L 87.893 48.213 128.000 48.213 L 168.107 48.213 168.107 52.985 C 168.107 58.706,168.877 60.809,171.647 62.641 C 174.114 64.274,177.886 64.274,180.353 62.641 C 183.123 60.809,183.893 58.706,183.893 52.985 L 183.893 48.213 195.840 48.213 L 207.787 48.213 207.787 64.213 L 207.787 80.213 128.000 80.213 L 48.213 80.213 48.213 64.213 L 48.213 48.213 60.160 48.213 L 72.107 48.213 72.107 52.985 M107.435 112.815 C 108.746 113.501,110.600 115.394,111.308 116.772 C 111.650 117.438,111.787 127.454,111.787 151.882 C 111.787 185.057,111.762 186.109,110.945 187.710 C 107.933 193.614,99.592 193.252,96.796 187.097 C 96.072 185.503,96.018 183.608,96.009 159.253 C 96.004 144.880,95.920 133.120,95.821 133.120 C 95.723 133.120,94.241 133.792,92.527 134.613 C 89.188 136.213,87.998 136.388,85.717 135.615 C 80.564 133.867,78.561 128.212,81.470 123.626 C 82.657 121.753,83.239 121.389,92.153 116.929 C 100.734 112.637,101.791 112.213,103.931 112.213 C 105.224 112.213,106.801 112.484,107.435 112.815 M157.993 112.849 C 164.398 114.517,170.294 119.257,173.209 125.080 C 175.366 129.389,175.939 132.290,175.684 137.595 C 175.355 144.431,174.719 145.614,162.870 161.426 C 157.271 168.899,152.586 175.283,152.459 175.613 C 152.266 176.117,153.642 176.213,161.035 176.213 C 170.631 176.213,171.672 176.410,173.733 178.614 C 174.363 179.288,175.083 180.380,175.333 181.041 C 176.401 183.869,175.479 188.043,173.363 189.957 C 171.186 191.926,170.409 192.000,151.935 192.000 C 140.622 192.000,134.032 191.840,133.254 191.546 C 130.557 190.527,128.029 186.883,128.009 183.986 C 128.004 183.216,128.268 181.945,128.595 181.161 C 128.923 180.377,135.855 170.855,144.000 160.000 C 152.145 149.145,159.077 139.623,159.405 138.839 C 161.616 133.548,156.637 127.269,150.951 128.178 C 148.330 128.597,146.947 129.508,145.064 132.057 C 142.293 135.808,138.684 137.017,134.935 135.450 C 132.819 134.566,131.868 133.657,130.936 131.627 C 129.680 128.891,129.888 126.446,131.628 123.495 C 134.486 118.648,140.116 114.410,145.753 112.863 C 148.604 112.080,155.014 112.073,157.993 112.849 " stroke="none" fill-rule="evenodd"></path></svg>