<svg fill="currentColor" viewBox="0 0 256 256" xmlns="http://www.w3.org/2000/svg"><path d="M93.016 32.680 C 92.197 33.035,91.112 33.715,90.605 34.191 C 90.098 34.667,86.575 39.727,82.776 45.436 L 75.868 55.816 59.801 55.998 C 45.972 56.154,43.406 56.284,41.387 56.930 C 34.943 58.993,29.448 63.563,26.728 69.120 C 23.732 75.241,23.863 71.960,23.991 137.508 L 24.107 196.480 25.257 199.629 C 28.095 207.402,34.389 213.231,42.088 215.217 C 44.438 215.823,53.362 215.893,128.000 215.893 C 202.638 215.893,211.562 215.823,213.912 215.217 C 221.611 213.231,227.905 207.402,230.743 199.629 L 231.893 196.480 232.009 137.508 C 232.137 71.960,232.268 75.241,229.272 69.120 C 226.552 63.563,221.057 58.993,214.613 56.930 C 212.594 56.284,210.028 56.154,196.199 55.998 L 180.132 55.816 173.224 45.436 C 169.425 39.727,165.900 34.666,165.392 34.189 C 163.007 31.947,163.891 31.999,127.907 32.017 C 99.040 32.031,94.304 32.121,93.016 32.680 M172.095 89.328 C 173.008 89.830,174.192 91.008,174.762 91.980 L 175.787 93.728 175.787 107.894 C 175.787 120.954,175.724 122.184,174.979 123.644 C 173.981 125.599,173.012 126.497,170.985 127.344 C 169.683 127.888,167.094 128.000,155.882 128.000 C 142.964 128.000,142.265 127.959,140.480 127.095 C 135.584 124.725,134.661 117.842,138.732 114.055 C 140.261 112.633,141.811 112.215,145.628 112.196 L 149.120 112.178 147.413 110.666 C 145.349 108.838,139.823 106.101,136.320 105.172 C 132.555 104.174,126.880 103.895,123.007 104.519 C 118.425 105.256,115.004 106.579,110.268 109.445 C 106.897 111.484,105.895 111.890,104.178 111.916 C 98.641 112.000,94.663 106.450,96.608 101.357 C 97.799 98.239,102.416 94.823,109.498 91.823 C 115.802 89.152,119.280 88.533,128.000 88.533 C 134.903 88.533,136.364 88.658,139.648 89.526 C 146.592 91.363,152.803 94.415,157.678 98.386 L 160.000 100.276 160.009 97.392 C 160.024 92.863,162.275 89.198,165.473 88.496 C 166.100 88.358,166.805 88.182,167.040 88.104 C 167.899 87.819,170.496 88.448,172.095 89.328 M115.091 136.763 C 117.207 137.647,118.159 138.557,119.091 140.587 C 120.089 142.759,120.089 145.241,119.091 147.413 C 117.604 150.651,115.162 151.893,110.282 151.893 C 108.040 151.893,107.132 152.037,107.332 152.361 C 107.918 153.309,113.567 156.653,116.368 157.709 C 119.944 159.058,124.726 160.000,128.000 160.000 C 133.683 160.000,140.485 157.936,145.505 154.688 C 150.488 151.465,153.874 151.237,157.055 153.914 C 161.255 157.448,160.759 163.284,155.947 166.953 C 152.690 169.437,144.919 173.090,140.160 174.376 C 136.265 175.428,135.206 175.530,128.000 175.547 C 120.662 175.564,119.807 175.482,115.840 174.386 C 110.425 172.889,103.063 169.307,99.086 166.234 L 96.000 163.850 95.991 166.725 C 95.979 170.207,94.982 172.658,92.945 174.212 C 91.559 175.269,88.307 176.302,87.307 176.002 C 87.043 175.923,86.302 175.743,85.661 175.603 C 84.236 175.291,81.670 173.099,80.832 171.478 C 79.949 169.772,79.920 142.740,80.798 140.680 C 81.453 139.143,82.784 137.822,84.693 136.816 C 86.578 135.822,112.731 135.777,115.091 136.763 " stroke="none" fill-rule="evenodd"></path></svg>