<svg fill="currentColor" viewBox="0 0 256 256" xmlns="http://www.w3.org/2000/svg"><path d="M93.016 32.680 C 92.197 33.035,91.112 33.715,90.605 34.191 C 90.098 34.667,86.575 39.727,82.776 45.436 L 75.868 55.816 59.801 55.998 C 45.972 56.154,43.406 56.284,41.387 56.930 C 34.943 58.993,29.448 63.563,26.728 69.120 C 23.732 75.241,23.863 71.960,23.991 137.508 L 24.107 196.480 25.257 199.629 C 28.095 207.402,34.389 213.231,42.088 215.217 C 44.438 215.823,53.362 215.893,128.000 215.893 C 202.638 215.893,211.562 215.823,213.912 215.217 C 221.611 213.231,227.905 207.402,230.743 199.629 L 231.893 196.480 232.009 137.508 C 232.137 71.960,232.268 75.241,229.272 69.120 C 226.552 63.563,221.057 58.993,214.613 56.930 C 212.594 56.284,210.028 56.154,196.199 55.998 L 180.132 55.816 173.224 45.436 C 169.425 39.727,165.900 34.666,165.392 34.189 C 163.007 31.947,163.891 31.999,127.907 32.017 C 99.040 32.031,94.304 32.121,93.016 32.680 M134.123 96.641 C 148.608 99.167,160.227 110.383,163.164 124.675 C 167.436 145.459,153.105 165.153,131.803 167.776 C 119.129 169.336,105.247 162.818,98.118 151.960 C 93.641 145.140,91.907 138.727,92.282 130.375 C 92.732 120.314,96.241 112.677,103.600 105.735 C 111.804 97.995,122.912 94.686,134.123 96.641 " stroke="none" fill-rule="evenodd"></path></svg>