<svg fill="currentColor" viewBox="0 0 256 256" xmlns="http://www.w3.org/2000/svg"><path d="M64.128 40.898 C 60.034 42.318,56.806 45.140,54.885 48.976 C 54.331 50.082,47.874 64.523,40.536 81.067 C 33.198 97.611,27.004 111.387,26.771 111.680 C 26.468 112.062,24.609 112.213,20.201 112.213 C 13.238 112.213,12.026 112.532,9.934 114.914 C 6.667 118.636,7.979 124.916,12.480 127.095 C 14.043 127.851,15.131 128.000,19.111 128.000 L 23.873 128.000 23.990 169.707 L 24.107 211.413 25.097 213.865 C 26.479 217.288,29.683 220.659,33.198 222.390 L 36.036 223.787 52.045 223.787 L 68.053 223.787 70.400 222.672 C 75.308 220.341,78.787 215.845,79.750 210.588 C 80.005 209.196,80.213 204.444,80.213 200.028 L 80.213 192.000 128.000 192.000 L 175.787 192.000 175.787 200.028 C 175.787 204.444,175.995 209.196,176.250 210.588 C 177.213 215.845,180.692 220.341,185.600 222.672 L 187.947 223.787 203.955 223.787 L 219.964 223.787 222.802 222.390 C 226.317 220.659,229.521 217.288,230.903 213.865 L 231.893 211.413 232.010 169.707 L 232.127 128.000 236.889 128.000 C 242.599 128.000,244.703 127.228,246.535 124.459 C 247.492 123.012,247.680 122.259,247.680 119.857 C 247.680 117.292,247.540 116.811,246.370 115.346 C 244.140 112.557,242.996 112.215,235.892 112.214 C 231.410 112.214,229.532 112.063,229.229 111.680 C 228.996 111.387,222.805 97.611,215.471 81.067 C 208.137 64.523,201.550 49.869,200.833 48.503 C 199.288 45.561,196.522 42.972,193.280 41.434 L 190.933 40.320 128.640 40.224 C 69.570 40.134,66.232 40.168,64.128 40.898 " stroke="none" fill-rule="evenodd"></path></svg>