<svg fill="currentColor" viewBox="0 0 256 256" xmlns="http://www.w3.org/2000/svg"><path d="M126.933 24.093 C 126.699 24.177,125.931 24.370,125.227 24.522 C 124.269 24.728,117.620 31.111,98.850 49.839 C 85.016 63.643,73.384 75.590,72.930 76.463 C 70.941 80.287,72.535 85.081,76.463 87.085 C 77.990 87.865,79.823 87.893,128.000 87.893 C 176.177 87.893,178.010 87.865,179.537 87.085 C 180.408 86.641,181.433 85.921,181.815 85.485 C 183.903 83.107,184.510 79.275,183.212 76.672 C 182.433 75.110,133.464 25.838,131.840 24.983 C 130.715 24.390,127.657 23.836,126.933 24.093 M76.587 168.817 C 74.705 169.811,73.819 170.691,72.915 172.463 C 71.874 174.503,71.880 177.518,72.930 179.537 C 73.384 180.410,85.004 192.342,98.850 206.152 C 124.715 231.949,124.886 232.102,128.000 232.102 C 131.114 232.102,131.285 231.949,157.150 206.152 C 170.996 192.342,182.616 180.410,183.070 179.537 C 184.568 176.657,183.818 172.232,181.485 170.185 C 178.989 167.994,181.882 168.105,127.915 168.124 C 83.077 168.139,77.733 168.211,76.587 168.817 " stroke="none" fill-rule="evenodd"></path></svg>