<svg fill="currentColor" viewBox="0 0 256 256" xmlns="http://www.w3.org/2000/svg"><path d="M44.587 40.817 C 42.705 41.811,41.819 42.691,40.915 44.463 C 39.928 46.396,39.871 49.489,40.788 51.328 C 41.162 52.079,56.570 67.813,75.027 86.293 L 108.585 119.893 78.079 119.896 C 57.889 119.897,47.022 120.051,45.943 120.351 C 43.825 120.939,41.141 123.385,40.508 125.305 C 39.770 127.538,40.211 130.691,41.525 132.579 C 42.141 133.463,60.745 152.275,82.869 174.382 C 111.141 202.634,123.565 214.773,124.680 215.235 C 126.703 216.074,129.297 216.074,131.320 215.235 C 132.435 214.773,144.859 202.634,173.131 174.382 C 195.255 152.275,213.859 133.463,214.475 132.579 C 215.789 130.691,216.230 127.538,215.492 125.305 C 214.859 123.385,212.175 120.939,210.057 120.351 C 208.978 120.051,198.111 119.897,177.921 119.896 L 147.415 119.893 180.973 86.293 C 199.430 67.813,214.838 52.079,215.212 51.328 C 216.510 48.725,215.903 44.893,213.815 42.515 C 213.433 42.079,212.408 41.359,211.537 40.915 C 210.000 40.130,207.594 40.107,127.910 40.124 C 53.868 40.139,45.742 40.207,44.587 40.817 " stroke="none" fill-rule="evenodd"></path></svg>