<svg fill="currentColor" viewBox="0 0 256 256" xmlns="http://www.w3.org/2000/svg"><path d="M120.960 24.326 C 100.935 25.586,81.587 32.844,64.891 45.360 C 59.554 49.360,49.234 59.686,45.276 64.986 C 34.512 79.399,27.973 94.882,25.095 112.768 C 23.886 120.283,23.787 134.307,24.890 141.867 C 27.542 160.046,34.293 176.318,45.279 191.014 C 49.299 196.392,59.608 206.701,64.986 210.721 C 79.686 221.710,96.000 228.476,114.133 231.105 C 117.683 231.620,121.936 231.847,128.000 231.847 C 144.598 231.847,158.874 228.583,173.440 221.458 C 184.661 215.968,192.320 210.472,201.396 201.396 C 210.475 192.317,215.974 184.654,221.456 173.440 C 235.707 144.287,235.458 110.173,220.780 81.026 C 214.698 68.950,203.517 55.194,193.067 46.931 C 172.349 30.550,147.221 22.673,120.960 24.326 M147.066 80.668 C 150.950 82.140,152.927 87.139,151.235 91.214 C 150.787 92.292,144.946 98.438,133.001 110.400 L 115.427 128.000 133.001 145.600 C 144.946 157.562,150.787 163.708,151.235 164.786 C 153.102 169.283,150.757 174.248,146.129 175.593 C 144.223 176.147,143.718 176.146,141.851 175.588 C 139.891 175.001,138.154 173.373,118.522 153.717 C 103.900 139.078,97.106 131.987,96.655 130.894 C 95.824 128.882,95.824 127.118,96.655 125.106 C 97.441 123.203,138.580 81.740,140.587 80.828 C 142.134 80.125,145.419 80.044,147.066 80.668 " stroke="none" fill-rule="evenodd"></path></svg>