<svg fill="currentColor" viewBox="0 0 256 256" xmlns="http://www.w3.org/2000/svg"><path d="M52.693 40.816 C 50.947 41.736,49.549 43.058,48.706 44.587 C 48.056 45.765,48.000 52.345,48.000 127.573 C 48.000 172.512,48.147 209.804,48.326 210.446 C 48.778 212.059,51.123 214.625,52.780 215.317 C 54.606 216.080,57.256 216.047,59.214 215.237 C 60.325 214.777,70.865 204.521,94.400 181.000 L 128.000 147.421 128.000 178.536 C 128.000 209.371,128.008 209.667,128.905 211.520 C 130.469 214.750,134.141 216.420,138.106 215.705 C 139.565 215.442,144.021 211.131,181.057 174.159 C 209.505 145.760,222.631 132.375,223.181 131.200 C 224.159 129.115,224.210 127.202,223.345 125.106 C 222.501 123.061,141.826 42.180,139.339 40.885 C 135.732 39.007,130.718 40.735,128.905 44.480 C 128.008 46.333,128.000 46.629,128.000 77.464 L 128.000 108.579 94.400 75.000 C 70.865 51.479,60.325 41.223,59.214 40.763 C 57.192 39.927,54.336 39.949,52.693 40.816 " stroke="none" fill-rule="evenodd"></path></svg>