<svg fill="currentColor" viewBox="0 0 256 256" xmlns="http://www.w3.org/2000/svg"><path d="M26.597 49.003 C 22.460 50.432,18.751 54.089,16.928 58.537 L 16.000 60.800 16.000 128.000 L 16.000 195.200 16.928 197.463 C 18.719 201.833,22.167 205.281,26.537 207.072 L 28.800 208.000 128.000 208.000 L 227.200 208.000 229.463 207.072 C 233.833 205.281,237.281 201.833,239.072 197.463 L 240.000 195.200 240.000 128.000 L 240.000 60.800 239.072 58.537 C 237.249 54.089,233.540 50.432,229.403 49.003 C 227.313 48.280,222.101 48.241,128.000 48.241 C 33.899 48.241,28.687 48.280,26.597 49.003 M193.825 81.558 C 198.740 83.235,202.835 85.843,206.774 89.808 C 209.686 92.738,210.591 94.010,212.417 97.742 C 217.124 107.360,217.119 116.651,212.402 126.289 C 210.510 130.153,209.711 131.260,206.546 134.396 C 200.765 140.122,195.070 142.852,186.975 143.780 C 181.949 144.356,74.051 144.356,69.025 143.780 C 66.978 143.545,63.810 142.880,61.985 142.301 C 51.462 138.963,43.022 129.501,40.779 118.525 C 37.274 101.375,48.035 84.682,65.067 80.849 C 67.161 80.378,78.814 80.287,129.067 80.350 L 190.507 80.427 193.825 81.558 M67.810 96.556 C 63.203 97.863,58.823 101.797,57.124 106.154 C 55.808 109.527,55.811 114.480,57.131 117.865 C 58.444 121.233,61.649 124.643,65.096 126.340 C 72.239 129.856,80.981 127.428,85.313 120.726 C 91.994 110.390,85.153 96.895,72.872 96.183 C 71.043 96.077,68.956 96.231,67.810 96.556 M99.840 96.228 C 99.840 96.353,100.317 97.397,100.901 98.549 C 104.803 106.249,104.803 117.751,100.901 125.451 C 100.317 126.603,99.840 127.647,99.840 127.772 C 99.840 127.898,112.512 128.000,128.000 128.000 C 143.488 128.000,156.160 127.898,156.160 127.772 C 156.160 127.647,155.683 126.603,155.099 125.451 C 151.172 117.702,151.172 106.298,155.099 98.549 C 155.683 97.397,156.160 96.353,156.160 96.228 C 156.160 96.102,143.488 96.000,128.000 96.000 C 112.512 96.000,99.840 96.102,99.840 96.228 M180.372 96.436 C 173.555 98.158,168.636 103.927,168.201 110.708 C 167.942 114.742,168.641 117.561,170.687 120.726 C 176.345 129.480,188.673 130.428,195.776 122.655 C 198.664 119.495,199.825 116.439,199.825 112.000 C 199.825 105.696,196.578 100.454,190.962 97.689 C 188.000 96.231,183.358 95.682,180.372 96.436 M167.540 168.934 C 169.058 169.623,170.555 171.385,177.680 180.871 L 186.039 192.000 128.000 192.000 L 69.961 192.000 78.320 180.871 C 85.445 171.385,86.942 169.623,88.460 168.934 C 90.164 168.160,91.852 168.125,128.000 168.125 C 164.148 168.125,165.836 168.160,167.540 168.934 " stroke="none" fill-rule="evenodd"></path></svg>