<svg fill="currentColor" viewBox="0 0 256 256" xmlns="http://www.w3.org/2000/svg"><path d="M52.926 24.359 C 48.261 25.274,43.643 28.867,41.482 33.264 L 40.320 35.627 40.320 62.293 L 40.320 88.960 41.565 91.520 C 42.516 93.474,44.359 95.652,49.352 100.721 L 55.893 107.362 55.893 162.391 C 55.893 223.597,55.744 220.380,58.784 224.838 C 60.682 227.621,63.843 230.117,66.773 231.145 C 68.767 231.844,72.767 231.893,128.000 231.893 C 183.233 231.893,187.233 231.844,189.227 231.145 C 192.157 230.117,195.318 227.621,197.216 224.838 C 200.256 220.380,200.107 223.597,200.107 162.391 L 200.107 107.362 206.648 100.721 C 211.641 95.652,213.484 93.474,214.435 91.520 L 215.680 88.960 215.799 63.065 C 215.914 38.148,215.887 37.079,215.070 34.756 C 213.539 30.399,210.011 26.808,205.569 25.084 C 202.711 23.974,193.969 23.537,189.655 24.288 C 182.399 25.552,177.383 30.602,176.198 37.836 C 175.975 39.202,175.790 43.824,175.789 48.107 L 175.787 55.893 161.920 55.893 L 148.053 55.893 148.053 46.978 C 148.053 39.229,147.940 37.697,147.188 35.263 C 145.738 30.567,142.023 26.697,137.275 24.936 C 133.996 23.719,122.004 23.719,118.725 24.936 C 113.977 26.697,110.262 30.567,108.812 35.263 C 108.060 37.697,107.947 39.229,107.947 46.978 L 107.947 55.893 94.080 55.893 L 80.213 55.893 80.211 48.107 C 80.210 43.824,80.025 39.202,79.802 37.836 C 78.646 30.781,73.672 25.631,66.784 24.358 C 63.861 23.818,55.686 23.818,52.926 24.359 M132.508 128.456 C 139.107 129.645,145.864 134.630,149.007 140.631 C 151.940 146.230,151.880 145.364,151.887 182.507 L 151.893 215.893 128.000 215.893 L 104.107 215.893 104.113 182.507 C 104.120 145.364,104.060 146.230,106.993 140.631 C 109.225 136.371,113.031 132.720,117.472 130.579 C 122.559 128.126,127.111 127.484,132.508 128.456 " stroke="none" fill-rule="evenodd"></path></svg>