<svg fill="currentColor" viewBox="0 0 256 256" xmlns="http://www.w3.org/2000/svg"><path d="M188.587 24.487 C 187.296 24.774,185.376 25.447,184.320 25.983 C 182.937 26.686,159.532 49.820,100.604 108.733 C 27.332 181.985,18.693 190.760,17.701 192.941 C 13.846 201.422,17.175 210.631,25.507 214.537 L 27.947 215.680 112.000 215.680 L 196.053 215.680 198.475 214.545 C 201.390 213.178,204.362 210.530,205.872 207.952 C 208.288 203.830,208.198 207.214,208.206 120.058 C 208.211 67.897,208.063 39.003,207.783 37.529 C 206.468 30.595,201.547 25.608,194.784 24.358 C 191.809 23.808,191.621 23.812,188.587 24.487 M192.000 120.107 L 192.000 200.107 160.000 200.107 L 128.000 200.107 128.000 152.001 L 128.000 103.895 159.892 72.001 C 177.433 54.459,191.833 40.107,191.892 40.107 C 191.952 40.107,192.000 76.107,192.000 120.107 " stroke="none" fill-rule="evenodd"></path></svg>