<svg fill="currentColor" viewBox="0 0 256 256" xmlns="http://www.w3.org/2000/svg"><path d="M36.053 40.505 C 32.312 41.430,27.686 45.015,25.988 48.307 C 23.820 52.510,23.893 49.989,23.893 120.107 C 23.893 192.720,23.719 188.343,26.784 192.838 C 28.589 195.486,31.736 198.038,34.560 199.142 C 36.354 199.844,40.268 199.901,94.187 200.007 L 151.893 200.122 151.896 212.381 C 151.897 220.008,152.076 225.281,152.369 226.337 C 153.345 229.851,157.648 232.563,161.194 231.898 C 162.011 231.744,169.276 228.322,177.339 224.292 L 192.000 216.966 206.661 224.292 C 214.724 228.322,221.989 231.744,222.806 231.898 C 226.352 232.563,230.655 229.851,231.631 226.337 C 231.953 225.177,232.103 215.557,232.104 195.915 L 232.107 167.190 234.456 164.421 C 240.684 157.080,244.548 149.269,246.881 139.307 C 248.023 134.429,248.023 121.571,246.881 116.693 C 244.551 106.744,240.683 98.919,234.478 91.605 L 232.150 88.861 232.021 70.777 C 231.892 52.818,231.884 52.676,230.866 50.144 C 229.561 46.901,226.313 43.427,222.933 41.659 L 220.373 40.320 128.853 40.255 C 78.517 40.219,36.757 40.331,36.053 40.505 M202.115 89.402 C 206.093 90.408,211.462 92.845,215.014 95.259 C 217.520 96.962,223.038 102.480,224.741 104.986 C 227.161 108.547,229.593 113.909,230.688 118.098 C 231.589 121.546,231.771 123.205,231.771 128.000 C 231.771 134.928,230.632 140.007,227.834 145.556 C 225.277 150.628,223.892 152.516,219.743 156.587 C 213.298 162.911,205.375 166.694,196.356 167.752 C 188.013 168.731,178.853 166.725,171.437 162.295 C 167.686 160.054,161.457 154.289,159.249 151.014 C 156.820 147.412,154.402 142.072,153.312 137.902 C 151.762 131.974,151.763 124.025,153.313 118.096 C 158.176 99.493,175.042 87.136,194.133 88.186 C 196.363 88.309,199.955 88.856,202.115 89.402 M130.888 96.660 C 134.122 98.012,135.802 100.496,135.802 103.930 C 135.802 106.877,134.373 109.382,131.845 110.869 L 129.920 112.000 101.343 112.121 C 82.274 112.202,72.060 112.091,70.645 111.788 C 62.822 110.110,61.666 100.148,68.907 96.806 C 70.513 96.065,72.341 96.018,99.960 96.009 C 125.498 96.001,129.513 96.086,130.888 96.660 M130.888 128.660 C 134.122 130.012,135.802 132.496,135.802 135.930 C 135.802 138.877,134.373 141.382,131.845 142.869 L 129.920 144.000 101.343 144.121 C 82.274 144.202,72.060 144.091,70.645 143.788 C 62.822 142.110,61.666 132.148,68.907 128.806 C 70.513 128.065,72.341 128.018,99.960 128.009 C 125.498 128.001,129.513 128.086,130.888 128.660 M174.293 180.964 C 180.462 183.082,185.364 183.893,192.000 183.893 C 194.989 183.893,199.140 183.597,201.224 183.235 C 204.387 182.685,212.352 180.272,215.147 179.017 C 215.850 178.701,215.893 179.603,215.893 194.728 C 215.893 203.553,215.803 210.773,215.692 210.773 C 215.582 210.773,210.673 208.373,204.783 205.440 C 195.492 200.813,193.800 200.107,192.000 200.107 C 190.200 200.107,188.508 200.813,179.217 205.440 C 173.327 208.373,168.418 210.773,168.308 210.773 C 168.197 210.773,168.107 203.553,168.107 194.728 C 168.107 179.603,168.150 178.701,168.853 179.017 C 169.264 179.202,171.712 180.078,174.293 180.964 " stroke="none" fill-rule="evenodd"></path></svg>