<svg fill="currentColor" viewBox="0 0 256 256" xmlns="http://www.w3.org/2000/svg"><path d="M36.053 40.505 C 32.312 41.430,27.686 45.015,25.988 48.307 C 23.810 52.530,23.893 49.340,23.893 128.000 C 23.893 206.650,23.810 203.463,25.986 207.693 C 27.184 210.022,30.563 213.191,33.264 214.518 L 35.627 215.680 45.897 215.680 L 56.168 215.680 57.854 214.564 C 59.079 213.754,60.064 212.473,61.450 209.888 C 68.504 196.735,80.173 187.984,94.720 184.938 C 99.508 183.936,108.553 183.939,113.280 184.945 C 127.933 188.062,139.376 196.624,146.513 209.809 C 147.532 211.690,148.954 213.600,149.906 214.364 L 151.546 215.680 185.960 215.680 L 220.373 215.680 222.736 214.518 C 227.287 212.281,230.632 207.929,231.678 202.880 C 231.976 201.443,232.084 176.593,232.007 126.720 L 231.893 52.693 230.867 50.144 C 229.561 46.901,226.312 43.426,222.933 41.659 L 220.373 40.320 128.853 40.255 C 78.517 40.219,36.757 40.331,36.053 40.505 M215.893 128.000 L 215.893 200.107 187.773 200.107 L 159.652 200.107 157.160 196.384 C 155.788 194.337,152.770 190.689,150.453 188.278 L 146.238 183.893 169.945 183.893 C 185.657 183.893,194.056 183.740,194.852 183.440 C 196.560 182.794,198.378 180.973,199.298 178.987 C 200.052 177.357,200.088 175.068,200.088 128.000 C 200.088 80.932,200.052 78.643,199.298 77.013 C 198.378 75.027,196.560 73.206,194.852 72.560 C 193.167 71.924,62.833 71.924,61.148 72.560 C 59.440 73.206,57.622 75.027,56.702 77.013 C 55.948 78.643,55.912 80.932,55.912 128.000 C 55.912 174.755,55.952 177.368,56.689 178.990 C 57.536 180.855,60.218 183.467,61.285 183.467 C 61.665 183.467,60.176 185.336,57.831 187.802 C 55.564 190.187,52.520 193.931,51.068 196.122 L 48.427 200.105 44.267 200.106 L 40.107 200.107 40.107 128.000 L 40.107 55.893 128.000 55.893 L 215.893 55.893 215.893 128.000 M113.707 105.559 C 128.207 110.243,137.388 124.493,135.667 139.641 C 133.461 159.055,114.372 172.019,95.650 166.821 C 82.226 163.093,72.968 151.624,72.229 137.806 C 71.675 127.445,75.970 117.626,83.850 111.232 C 87.073 108.617,93.190 105.629,97.067 104.775 C 101.613 103.774,109.305 104.136,113.707 105.559 " stroke="none" fill-rule="evenodd"></path></svg>