<svg fill="currentColor" viewBox="0 0 256 256" xmlns="http://www.w3.org/2000/svg"><path d="M133.091 24.324 C 129.044 25.009,124.841 27.853,122.512 31.483 C 119.977 35.432,119.893 36.359,119.893 60.373 C 119.893 84.388,119.977 85.315,122.512 89.264 C 125.091 93.283,128.343 95.294,134.735 96.821 C 139.458 97.950,141.765 98.916,145.552 101.352 C 152.093 105.560,156.837 112.128,158.996 119.966 C 160.027 123.706,160.021 132.301,158.986 136.107 C 156.444 145.448,150.103 152.882,140.959 157.242 C 138.781 158.280,136.798 159.505,136.553 159.963 C 136.253 160.524,136.107 171.945,136.107 194.778 L 136.107 228.759 137.354 230.006 C 138.853 231.505,139.506 231.537,145.739 230.412 C 176.492 224.859,202.525 206.582,218.150 179.573 C 232.377 154.981,235.790 125.406,227.549 98.133 C 222.618 81.815,214.471 67.984,202.461 55.543 C 187.906 40.466,170.006 30.408,149.973 26.049 C 146.306 25.251,136.628 23.838,135.551 23.944 C 135.270 23.971,134.163 24.142,133.091 24.324 M57.230 56.353 C 54.671 56.856,51.774 58.323,49.779 60.125 C 46.193 63.365,39.999 72.156,35.927 79.787 C 30.555 89.852,25.944 104.370,24.923 114.430 C 24.641 117.213,24.667 117.319,25.937 118.590 L 27.241 119.893 61.099 119.893 C 90.590 119.893,95.075 119.810,95.876 119.250 C 96.381 118.896,97.203 117.504,97.703 116.156 C 98.202 114.809,99.646 111.883,100.911 109.653 C 103.220 105.582,104.077 103.054,104.096 100.250 C 104.112 97.919,102.910 93.846,101.619 91.858 C 100.978 90.870,93.622 83.092,85.274 74.572 C 69.057 58.022,68.131 57.257,63.195 56.326 C 60.588 55.835,59.849 55.838,57.230 56.353 M25.994 137.354 C 24.523 138.824,24.456 139.746,25.414 145.280 C 28.354 162.251,36.033 179.484,46.518 192.640 C 62.418 212.589,86.156 226.574,110.939 230.594 C 116.577 231.508,117.191 231.461,118.646 230.006 L 119.893 228.759 119.893 194.778 C 119.893 171.945,119.747 160.524,119.447 159.963 C 119.202 159.505,117.188 158.265,114.973 157.209 C 107.291 153.547,101.547 147.657,98.557 140.373 C 98.027 139.083,97.128 137.595,96.559 137.067 L 95.526 136.107 61.383 136.107 L 27.241 136.107 25.994 137.354 " stroke="none" fill-rule="evenodd"></path></svg>