<svg fill="currentColor" viewBox="0 0 256 256" xmlns="http://www.w3.org/2000/svg"><path d="M120.960 24.326 C 100.935 25.586,81.587 32.844,64.891 45.360 C 59.554 49.360,49.234 59.686,45.276 64.986 C 34.512 79.399,27.973 94.882,25.095 112.768 C 23.886 120.283,23.787 134.307,24.890 141.867 C 27.542 160.046,34.293 176.318,45.279 191.014 C 49.299 196.392,59.608 206.701,64.986 210.721 C 79.686 221.710,96.000 228.476,114.133 231.105 C 117.683 231.620,121.936 231.847,128.000 231.847 C 144.598 231.847,158.874 228.583,173.440 221.458 C 184.661 215.968,192.320 210.472,201.396 201.396 C 210.475 192.317,215.974 184.654,221.456 173.440 C 235.707 144.287,235.458 110.173,220.780 81.026 C 214.698 68.950,203.517 55.194,193.067 46.931 C 172.349 30.550,147.221 22.673,120.960 24.326 M137.297 40.560 C 157.928 42.815,177.811 52.645,191.797 67.505 C 195.141 71.058,199.944 77.121,199.633 77.397 C 199.347 77.651,128.301 118.613,128.147 118.613 C 128.066 118.613,128.000 100.949,128.000 79.360 L 128.000 40.107 130.577 40.107 C 131.994 40.107,135.018 40.311,137.297 40.560 M208.349 92.053 C 208.478 92.464,209.347 94.762,210.279 97.161 C 212.114 101.879,214.195 109.839,215.107 115.627 C 215.868 120.453,215.863 135.603,215.100 140.373 C 210.322 170.235,192.642 194.372,166.187 207.150 C 158.262 210.978,151.392 213.186,142.293 214.829 C 137.132 215.761,124.678 216.129,119.081 215.516 C 98.060 213.212,78.318 203.491,64.203 188.495 C 60.888 184.973,56.050 178.873,56.367 178.616 C 56.897 178.186,207.621 91.314,207.844 91.311 C 207.992 91.309,208.219 91.643,208.349 92.053 " stroke="none" fill-rule="evenodd"></path></svg>