<svg fill="currentColor" viewBox="0 0 256 256" xmlns="http://www.w3.org/2000/svg"><path d="M122.027 24.345 C 78.855 26.794,41.869 55.565,28.819 96.853 C 27.159 102.104,25.761 108.280,24.907 114.133 C 23.878 121.184,23.871 135.334,24.892 142.080 C 26.464 152.462,29.789 163.602,33.871 172.160 L 36.110 176.853 30.129 194.773 C 24.407 211.921,24.150 212.840,24.161 216.107 C 24.193 225.035,30.965 231.807,39.893 231.839 C 43.161 231.850,44.075 231.594,61.260 225.855 L 79.214 219.860 81.740 221.140 C 90.921 225.790,102.686 229.409,114.133 231.104 C 121.152 232.143,135.270 232.146,142.080 231.109 C 177.417 225.729,206.589 204.442,221.696 173.013 C 228.594 158.660,231.838 144.353,231.853 128.213 C 231.866 114.005,229.635 102.292,224.401 89.087 C 212.843 59.927,186.994 36.682,156.607 28.121 C 150.330 26.353,141.547 24.789,136.401 24.523 C 134.010 24.399,130.997 24.241,129.707 24.170 C 128.416 24.100,124.960 24.179,122.027 24.345 " stroke="none" fill-rule="evenodd"></path></svg>