<svg fill="currentColor" viewBox="0 0 256 256" xmlns="http://www.w3.org/2000/svg"><path d="M119.986 24.362 C 96.464 26.056,73.490 36.317,56.265 52.822 C 39.153 69.220,28.570 89.827,24.888 113.920 C 23.850 120.711,23.850 135.281,24.887 142.080 C 26.477 152.504,29.795 163.614,33.871 172.160 L 36.110 176.853 30.129 194.773 C 24.407 211.921,24.150 212.840,24.161 216.107 C 24.193 225.035,30.965 231.807,39.893 231.839 C 43.161 231.850,44.075 231.594,61.260 225.855 L 79.214 219.860 81.740 221.140 C 91.228 225.945,103.671 229.678,115.627 231.304 C 120.784 232.005,135.147 232.020,140.160 231.330 C 164.618 227.962,184.629 218.186,201.407 201.407 C 218.213 184.602,228.221 164.033,231.311 139.947 C 231.988 134.674,231.992 121.218,231.319 116.053 C 228.826 96.916,222.232 80.533,210.958 65.462 C 195.379 44.636,171.275 29.892,145.839 25.629 C 140.576 24.747,130.321 23.851,126.720 23.958 C 125.664 23.989,122.634 24.171,119.986 24.362 M87.728 116.684 C 90.451 117.492,93.166 119.827,94.620 122.608 C 96.258 125.743,96.258 130.257,94.620 133.392 C 92.309 137.814,87.949 140.239,83.022 139.844 C 79.914 139.594,77.584 138.487,75.460 136.249 C 72.871 133.522,72.327 132.089,72.329 128.000 C 72.331 123.665,73.145 121.783,76.174 119.117 C 79.478 116.209,83.369 115.389,87.728 116.684 M132.080 116.769 C 134.900 117.729,138.271 121.100,139.231 123.920 C 140.723 128.297,139.825 132.593,136.689 136.080 C 132.064 141.225,123.936 141.225,119.311 136.080 C 114.809 131.073,114.952 124.352,119.660 119.644 C 123.073 116.231,127.497 115.207,132.080 116.769 M175.900 116.725 C 178.337 117.556,181.486 120.269,182.733 122.612 C 183.992 124.980,184.077 130.862,182.883 133.120 C 178.198 141.984,165.862 142.168,161.439 133.440 C 156.585 123.861,165.750 113.267,175.900 116.725 " stroke="none" fill-rule="evenodd"></path></svg>