<svg fill="currentColor" viewBox="0 0 256 256" xmlns="http://www.w3.org/2000/svg"><path d="M34.521 49.018 C 30.131 50.739,27.384 53.380,25.254 57.926 L 24.107 60.373 24.107 144.022 L 24.107 227.671 25.719 230.932 C 27.528 234.593,29.682 236.749,33.143 238.364 C 37.926 240.595,43.049 240.444,47.495 237.940 C 48.816 237.195,57.184 230.203,66.091 222.400 L 82.287 208.213 148.983 208.211 C 189.236 208.209,216.665 208.047,218.164 207.802 C 223.772 206.883,228.107 203.620,230.539 198.486 L 231.893 195.627 231.893 128.000 L 231.893 60.373 230.539 57.514 C 228.878 54.008,226.260 51.317,222.910 49.672 L 220.373 48.427 128.427 48.338 C 40.770 48.254,36.389 48.286,34.521 49.018 M87.728 116.684 C 90.451 117.492,93.166 119.827,94.620 122.608 C 96.258 125.743,96.258 130.257,94.620 133.392 C 92.309 137.814,87.949 140.239,83.022 139.844 C 79.914 139.594,77.584 138.487,75.460 136.249 C 72.871 133.522,72.327 132.089,72.329 128.000 C 72.331 123.665,73.145 121.783,76.174 119.117 C 79.478 116.209,83.369 115.389,87.728 116.684 M132.080 116.769 C 134.900 117.729,138.271 121.100,139.231 123.920 C 140.723 128.297,139.825 132.593,136.689 136.080 C 132.064 141.225,123.936 141.225,119.311 136.080 C 114.809 131.073,114.952 124.352,119.660 119.644 C 123.073 116.231,127.497 115.207,132.080 116.769 M175.900 116.725 C 178.337 117.556,181.486 120.269,182.733 122.612 C 183.992 124.980,184.077 130.862,182.883 133.120 C 178.198 141.984,165.862 142.168,161.439 133.440 C 156.585 123.861,165.750 113.267,175.900 116.725 " stroke="none" fill-rule="evenodd"></path></svg>