<svg fill="currentColor" viewBox="0 0 256 256" xmlns="http://www.w3.org/2000/svg"><path d="M71.680 40.933 C 57.407 43.947,45.908 54.622,41.545 68.907 C 40.476 72.409,40.370 73.366,40.346 79.787 C 40.323 85.904,40.448 87.268,41.296 90.195 C 44.683 101.889,52.028 110.776,62.507 115.859 C 69.006 119.011,72.067 119.679,80.000 119.679 C 87.933 119.679,90.994 119.011,97.493 115.859 C 107.972 110.776,115.318 101.888,118.704 90.195 C 119.539 87.311,119.679 85.845,119.679 80.000 C 119.679 74.155,119.539 72.689,118.704 69.805 C 113.489 51.793,98.072 40.043,79.787 40.142 C 77.205 40.156,73.770 40.491,71.680 40.933 M167.680 40.933 C 153.407 43.947,141.908 54.622,137.545 68.907 C 136.476 72.409,136.370 73.366,136.346 79.787 C 136.323 85.904,136.448 87.268,137.296 90.195 C 140.683 101.889,148.028 110.776,158.507 115.859 C 165.006 119.011,168.067 119.679,176.000 119.679 C 183.933 119.679,186.994 119.011,193.493 115.859 C 203.972 110.776,211.318 101.888,214.704 90.195 C 215.539 87.311,215.679 85.845,215.679 80.000 C 215.679 74.155,215.539 72.689,214.704 69.805 C 209.489 51.793,194.072 40.043,175.787 40.142 C 173.205 40.156,169.770 40.491,167.680 40.933 M71.680 136.933 C 57.407 139.947,45.908 150.622,41.545 164.907 C 40.476 168.409,40.370 169.366,40.346 175.787 C 40.323 181.904,40.448 183.268,41.296 186.195 C 44.683 197.889,52.028 206.776,62.507 211.859 C 69.006 215.011,72.067 215.679,80.000 215.679 C 87.933 215.679,90.994 215.011,97.493 211.859 C 107.972 206.776,115.318 197.888,118.704 186.195 C 119.539 183.311,119.679 181.845,119.679 176.000 C 119.679 170.155,119.539 168.689,118.704 165.805 C 113.489 147.793,98.072 136.043,79.787 136.142 C 77.205 136.156,73.770 136.491,71.680 136.933 M167.680 136.933 C 153.407 139.947,141.908 150.622,137.545 164.907 C 136.476 168.409,136.370 169.366,136.346 175.787 C 136.323 181.904,136.448 183.268,137.296 186.195 C 140.683 197.889,148.028 206.776,158.507 211.859 C 165.006 215.011,168.067 215.679,176.000 215.679 C 183.933 215.679,186.994 215.011,193.493 211.859 C 203.972 206.776,211.318 197.888,214.704 186.195 C 215.539 183.311,215.679 181.845,215.679 176.000 C 215.679 170.155,215.539 168.689,214.704 165.805 C 209.489 147.793,194.072 136.043,175.787 136.142 C 173.205 136.156,169.770 136.491,167.680 136.933 " stroke="none" fill-rule="evenodd"></path></svg>