<svg fill="currentColor" viewBox="0 0 256 256" xmlns="http://www.w3.org/2000/svg"><path d="M120.960 24.326 C 100.935 25.586,81.587 32.844,64.891 45.360 C 59.554 49.360,49.234 59.686,45.276 64.986 C 34.512 79.399,27.973 94.882,25.095 112.768 C 23.886 120.283,23.787 134.307,24.890 141.867 C 27.542 160.046,34.293 176.318,45.279 191.014 C 49.299 196.392,59.608 206.701,64.986 210.721 C 79.686 221.710,96.000 228.476,114.133 231.105 C 117.683 231.620,121.936 231.847,128.000 231.847 C 144.598 231.847,158.874 228.583,173.440 221.458 C 184.661 215.968,192.320 210.472,201.396 201.396 C 210.475 192.317,215.974 184.654,221.456 173.440 C 235.707 144.287,235.458 110.173,220.780 81.026 C 214.698 68.950,203.517 55.194,193.067 46.931 C 172.349 30.550,147.221 22.673,120.960 24.326 M142.933 41.400 C 159.279 44.230,174.668 51.727,187.148 62.940 L 190.373 65.839 128.160 128.053 L 65.947 190.267 64.927 189.320 C 64.367 188.799,62.491 186.690,60.760 184.633 C 50.549 172.499,43.906 158.053,41.095 141.867 C 39.964 135.353,40.072 119.684,41.294 113.067 C 48.535 73.841,79.313 45.054,118.827 40.549 C 124.436 39.909,136.854 40.348,142.933 41.400 " stroke="none" fill-rule="evenodd"></path></svg>