<svg fill="currentColor" viewBox="0 0 256 256" xmlns="http://www.w3.org/2000/svg"><path d="M120.960 24.326 C 100.935 25.586,81.587 32.844,64.891 45.360 C 59.554 49.360,49.234 59.686,45.276 64.986 C 34.512 79.399,27.973 94.882,25.095 112.768 C 23.886 120.283,23.787 134.307,24.890 141.867 C 27.542 160.046,34.293 176.318,45.279 191.014 C 49.299 196.392,59.608 206.701,64.986 210.721 C 79.686 221.710,96.000 228.476,114.133 231.105 C 117.683 231.620,121.936 231.847,128.000 231.847 C 144.598 231.847,158.874 228.583,173.440 221.458 C 184.661 215.968,192.320 210.472,201.396 201.396 C 210.475 192.317,215.974 184.654,221.456 173.440 C 235.707 144.287,235.458 110.173,220.780 81.026 C 214.698 68.950,203.517 55.194,193.067 46.931 C 172.349 30.550,147.221 22.673,120.960 24.326 M187.520 120.813 C 191.267 122.880,192.893 127.170,191.340 130.888 C 190.459 132.996,189.159 134.347,187.093 135.300 C 185.516 136.028,183.947 136.089,166.403 136.097 L 147.418 136.107 160.921 149.653 C 168.348 157.104,174.730 163.814,175.105 164.565 C 175.955 166.268,175.988 169.893,175.168 171.478 C 174.330 173.099,171.764 175.291,170.339 175.603 C 169.698 175.743,168.962 175.921,168.704 175.998 C 168.446 176.074,167.294 175.944,166.144 175.708 C 164.117 175.291,163.412 174.638,143.019 154.306 C 131.450 142.771,121.580 132.685,121.084 131.892 C 119.695 129.670,119.784 126.079,121.284 123.812 C 122.606 121.814,123.982 120.787,125.984 120.301 C 126.741 120.117,140.608 119.998,156.800 120.037 C 183.311 120.100,186.367 120.177,187.520 120.813 " stroke="none" fill-rule="evenodd"></path></svg>