<svg fill="currentColor" viewBox="0 0 256 256" xmlns="http://www.w3.org/2000/svg"><path d="M118.827 32.447 C 85.281 35.894,56.461 55.918,41.789 85.973 C 32.083 105.856,29.523 128.683,34.587 150.187 C 36.887 159.957,42.078 171.971,47.675 180.480 C 65.605 207.740,95.764 224.000,128.397 224.000 C 150.411 224.000,173.376 215.500,190.080 201.168 C 194.962 196.979,195.930 195.629,196.176 192.661 C 196.515 188.579,194.048 185.215,190.055 184.314 C 186.754 183.570,185.047 184.377,178.925 189.579 C 166.734 199.939,150.182 206.576,133.600 207.751 C 97.035 210.344,63.118 187.416,51.919 152.533 C 49.006 143.461,48.424 139.319,48.444 127.787 C 48.460 118.350,48.551 117.128,49.600 112.204 C 54.865 87.499,70.249 67.483,92.373 56.554 C 99.644 52.963,104.549 51.243,112.213 49.598 C 117.145 48.540,118.317 48.453,127.787 48.440 C 136.849 48.428,138.591 48.541,142.933 49.419 C 155.684 51.999,167.620 57.444,177.263 65.079 C 181.578 68.495,184.786 71.516,190.311 77.362 L 194.672 81.978 185.721 91.016 C 177.581 99.234,176.724 100.239,176.267 102.100 C 175.625 104.714,176.191 106.979,178.001 109.041 C 180.723 112.141,179.488 112.000,203.980 112.000 L 225.987 112.000 228.048 110.720 C 229.331 109.923,230.446 108.795,231.001 107.733 C 231.873 106.066,231.893 105.518,231.893 83.840 C 231.893 62.249,231.870 61.613,231.020 60.166 C 230.539 59.348,229.345 58.116,228.367 57.428 C 226.896 56.394,226.160 56.178,224.119 56.178 C 222.761 56.178,221.170 56.422,220.585 56.721 C 219.999 57.020,216.497 60.265,212.803 63.931 L 206.085 70.598 199.149 63.540 C 195.335 59.658,190.389 55.026,188.160 53.247 C 174.746 42.545,158.890 35.605,142.080 33.077 C 136.598 32.252,124.035 31.912,118.827 32.447 M124.800 72.711 C 123.117 73.463,121.379 75.350,120.556 77.320 C 119.983 78.692,119.894 82.253,119.896 103.773 C 119.897 120.083,120.055 129.204,120.354 130.280 C 120.604 131.182,121.419 132.555,122.165 133.330 C 122.910 134.105,132.916 140.359,144.399 147.227 C 167.465 161.022,167.317 160.955,171.183 159.246 C 175.359 157.398,177.160 152.214,175.016 148.208 C 174.068 146.437,171.427 144.683,153.909 134.190 L 136.107 123.526 136.097 101.123 C 136.089 80.227,136.035 78.605,135.298 77.013 C 134.378 75.027,132.560 73.206,130.852 72.560 C 129.223 71.945,126.357 72.017,124.800 72.711 " stroke="none" fill-rule="evenodd"></path></svg>