<svg fill="currentColor" viewBox="0 0 256 256" xmlns="http://www.w3.org/2000/svg"><path d="M144.609 16.866 C 129.765 19.180,115.547 26.021,104.581 36.124 C 94.857 45.083,88.003 55.745,83.863 68.354 C 82.033 73.926,80.216 82.880,80.211 86.347 C 80.203 91.902,76.739 95.963,71.983 95.991 C 68.757 96.009,65.373 93.354,64.374 90.020 C 63.780 88.036,64.370 81.056,65.726 74.027 C 66.651 69.232,66.492 68.012,64.785 66.816 C 62.850 65.461,59.375 66.259,52.818 69.566 C 38.228 76.922,28.376 89.898,24.873 106.372 C 23.881 111.033,23.898 121.347,24.905 125.867 C 27.257 136.426,31.779 144.832,39.035 152.131 C 46.714 159.855,55.039 164.380,66.560 167.092 C 69.485 167.780,73.538 167.858,113.707 168.001 C 143.448 168.107,159.239 168.006,162.560 167.690 C 175.565 166.452,187.812 162.079,198.691 154.790 C 204.489 150.905,213.984 141.574,218.138 135.680 C 221.433 131.004,225.960 122.178,227.785 116.873 C 231.109 107.212,232.587 95.890,231.769 86.362 C 230.866 75.833,228.447 67.212,223.760 57.813 C 219.921 50.114,216.299 45.179,209.507 38.389 C 197.424 26.310,183.716 19.361,167.040 16.859 C 161.773 16.068,149.701 16.072,144.609 16.866 M71.040 184.095 C 70.805 184.178,70.100 184.358,69.473 184.496 C 66.768 185.090,64.019 188.872,64.019 192.000 C 64.019 193.829,65.242 196.583,66.616 197.846 C 69.100 200.130,68.804 200.107,96.093 200.097 C 119.772 200.089,121.496 200.038,123.093 199.300 C 125.159 198.347,126.459 196.996,127.340 194.888 C 128.893 191.170,127.267 186.880,123.520 184.813 C 122.374 184.181,119.579 184.098,96.853 184.025 C 82.891 183.981,71.275 184.012,71.040 184.095 M157.979 184.295 C 155.037 185.023,152.705 187.596,152.109 190.773 C 151.437 194.351,154.134 198.651,157.663 199.631 C 158.728 199.927,164.170 200.103,172.280 200.104 C 186.118 200.107,187.060 199.982,189.384 197.846 C 190.726 196.613,191.979 193.847,191.991 192.093 C 192.002 190.367,190.991 187.865,189.740 186.525 C 187.514 184.142,187.316 184.113,172.800 184.030 C 165.408 183.988,158.739 184.107,157.979 184.295 M103.040 216.096 C 102.805 216.178,102.100 216.358,101.473 216.496 C 98.768 217.090,96.019 220.872,96.019 224.000 C 96.019 225.829,97.242 228.583,98.616 229.846 C 101.123 232.151,100.483 232.107,131.720 232.104 C 151.504 232.103,161.176 231.953,162.337 231.631 C 164.597 231.003,167.042 228.502,167.668 226.176 C 168.620 222.644,167.346 219.374,164.208 217.297 L 162.410 216.107 132.938 216.026 C 116.729 215.982,103.275 216.014,103.040 216.096 " stroke="none" fill-rule="evenodd"></path></svg>