<svg fill="currentColor" viewBox="0 0 256 256" xmlns="http://www.w3.org/2000/svg"><path d="M144.609 16.841 C 136.146 18.219,128.882 20.619,121.173 24.585 C 103.300 33.779,90.150 49.206,83.863 68.354 C 82.033 73.926,80.216 82.880,80.211 86.347 C 80.203 91.902,76.739 95.963,71.983 95.991 C 68.757 96.009,65.373 93.354,64.374 90.020 C 63.780 88.036,64.370 81.056,65.726 74.027 C 66.651 69.232,66.492 68.012,64.785 66.816 C 62.823 65.442,59.502 66.223,52.693 69.662 C 38.145 77.009,28.376 89.900,24.873 106.372 C 23.881 111.033,23.898 121.347,24.905 125.867 C 29.629 147.076,44.749 162.035,66.560 167.074 C 69.310 167.709,72.832 167.838,91.627 167.991 C 103.653 168.088,113.493 168.268,113.493 168.390 C 113.493 168.512,109.627 175.053,104.901 182.925 C 95.503 198.581,95.228 199.242,96.615 202.873 C 97.351 204.801,99.110 206.619,101.096 207.503 C 101.801 207.816,107.043 208.066,115.906 208.207 L 129.625 208.427 120.972 222.847 C 115.958 231.201,112.217 237.890,112.078 238.748 C 111.542 242.049,113.957 246.278,117.041 247.440 C 120.398 248.706,124.588 247.380,126.599 244.417 C 127.292 243.396,133.206 233.638,139.742 222.733 C 150.449 204.868,151.643 202.688,151.807 200.715 C 152.060 197.661,150.834 195.001,148.443 193.418 L 146.624 192.213 132.446 192.000 L 118.267 191.787 125.373 179.947 L 132.479 168.107 145.554 168.107 C 152.746 168.107,160.618 167.905,163.048 167.659 C 208.791 163.025,240.067 120.082,230.132 75.554 C 226.760 60.444,219.694 47.984,208.309 37.075 C 197.687 26.896,184.659 20.188,169.813 17.254 C 164.825 16.268,149.653 16.019,144.609 16.841 " stroke="none" fill-rule="evenodd"></path></svg>