<svg fill="currentColor" viewBox="0 0 256 256" xmlns="http://www.w3.org/2000/svg"><path d="M150.187 40.585 C 118.136 44.270,90.226 65.460,78.464 95.037 C 74.610 104.729,72.774 113.118,72.135 123.951 C 71.853 128.732,71.595 130.333,70.886 131.724 C 68.292 136.809,61.250 137.450,57.792 132.917 C 56.085 130.679,55.827 128.732,56.302 121.685 C 56.830 113.860,58.107 106.245,59.989 99.699 C 61.731 93.638,61.786 92.468,60.393 91.074 C 59.010 89.691,56.967 89.706,52.395 91.132 C 36.558 96.073,21.906 108.756,14.588 123.859 C 10.359 132.585,8.569 139.893,8.233 149.806 C 7.879 160.222,9.377 168.120,13.430 177.207 C 21.902 196.200,38.632 209.716,59.864 214.722 C 63.753 215.639,64.226 215.648,114.560 215.793 C 149.353 215.894,166.609 215.793,169.387 215.475 C 190.298 213.076,209.948 203.275,224.068 188.201 C 244.276 166.628,252.432 136.110,245.573 107.734 C 241.648 91.495,233.791 77.553,221.888 65.707 C 207.670 51.556,189.206 42.727,169.297 40.558 C 164.512 40.037,154.837 40.051,150.187 40.585 M163.930 81.169 C 164.936 81.734,166.092 82.910,166.762 84.049 L 167.893 85.973 167.893 108.230 L 167.893 130.486 166.607 132.316 C 164.832 134.843,162.910 135.879,160.000 135.879 C 157.090 135.879,155.168 134.843,153.393 132.316 L 152.107 130.486 152.107 108.230 L 152.107 85.973 153.164 84.126 C 155.301 80.394,160.171 79.056,163.930 81.169 M165.420 153.425 C 169.047 155.175,171.451 158.751,171.828 162.956 C 172.092 165.894,171.493 168.211,169.814 170.745 C 168.197 173.187,165.838 174.767,162.553 175.609 C 160.259 176.196,159.741 176.196,157.447 175.609 C 154.311 174.805,151.900 173.258,150.392 171.082 C 147.349 166.691,147.268 161.898,150.159 157.340 C 153.306 152.377,159.798 150.712,165.420 153.425 " stroke="none" fill-rule="evenodd"></path></svg>