<svg fill="currentColor" viewBox="0 0 256 256" xmlns="http://www.w3.org/2000/svg"><path d="M44.587 32.806 C 42.612 33.718,41.209 35.120,40.562 36.828 C 39.928 38.501,39.994 41.579,40.699 43.214 C 41.025 43.969,50.261 54.438,61.224 66.479 C 72.187 78.520,81.089 88.432,81.005 88.506 C 80.922 88.580,78.933 88.481,76.587 88.286 C 67.816 87.560,56.753 89.236,48.422 92.554 C 35.310 97.776,23.003 108.476,16.373 120.420 C -2.300 154.055,11.797 195.671,47.006 210.850 C 51.492 212.784,59.028 214.832,64.000 215.469 C 66.499 215.789,83.742 215.887,119.467 215.784 L 171.307 215.634 176.427 214.514 C 179.243 213.898,183.467 212.790,185.813 212.051 C 192.557 209.927,191.471 209.527,197.547 216.374 C 201.156 220.442,203.432 222.643,204.587 223.183 C 208.073 224.814,212.125 223.820,214.458 220.762 C 215.913 218.855,216.328 215.175,215.346 212.893 C 214.354 210.590,53.738 34.141,51.558 32.960 C 49.401 31.792,46.904 31.737,44.587 32.806 M149.760 40.557 C 136.235 42.229,122.800 47.137,111.787 54.431 C 107.118 57.523,105.984 58.617,105.130 60.855 C 104.385 62.805,104.549 65.539,105.514 67.261 C 105.796 67.764,130.548 95.146,160.519 128.110 C 198.302 169.666,215.442 188.226,216.413 188.636 C 218.300 189.432,221.305 189.329,223.250 188.401 C 225.029 187.552,229.642 182.110,233.581 176.213 C 238.968 168.148,244.178 155.496,246.143 145.707 C 247.464 139.125,247.893 134.766,247.893 127.926 C 247.893 84.867,216.873 48.400,174.080 41.151 C 169.277 40.337,154.466 39.976,149.760 40.557 " stroke="none" fill-rule="evenodd"></path></svg>