<svg fill="currentColor" viewBox="0 0 256 256" xmlns="http://www.w3.org/2000/svg"><path d="M150.187 40.585 C 118.136 44.270,90.226 65.460,78.464 95.037 C 74.610 104.729,72.774 113.118,72.135 123.951 C 71.853 128.732,71.595 130.333,70.886 131.724 C 68.292 136.809,61.250 137.450,57.792 132.917 C 56.085 130.679,55.827 128.732,56.302 121.685 C 56.830 113.860,58.107 106.245,59.989 99.699 C 61.731 93.638,61.786 92.468,60.393 91.074 C 59.010 89.691,56.967 89.706,52.395 91.132 C 36.558 96.073,21.906 108.756,14.588 123.859 C 10.359 132.585,8.569 139.893,8.233 149.806 C 7.879 160.222,9.377 168.120,13.430 177.207 C 21.902 196.200,38.632 209.716,59.864 214.722 C 63.753 215.639,64.226 215.648,114.560 215.793 C 149.353 215.894,166.609 215.793,169.387 215.475 C 190.298 213.076,209.948 203.275,224.068 188.201 C 244.276 166.628,252.432 136.110,245.573 107.734 C 241.648 91.495,233.791 77.553,221.888 65.707 C 207.670 51.556,189.206 42.727,169.297 40.558 C 164.512 40.037,154.837 40.051,150.187 40.585 M155.492 104.947 C 156.624 105.495,163.099 111.682,174.135 122.760 C 192.294 140.990,192.326 141.029,191.888 144.912 C 191.326 149.896,185.808 153.220,181.041 151.446 C 180.380 151.201,175.376 146.546,169.920 141.103 L 160.000 131.207 159.991 162.350 C 159.982 191.642,159.935 193.596,159.198 195.218 C 156.561 201.024,148.812 201.645,145.436 196.321 L 144.213 194.393 144.213 163.116 C 144.213 145.914,144.075 131.840,143.906 131.840 C 143.736 131.840,139.368 136.054,134.199 141.204 C 128.177 147.204,124.230 150.807,123.214 151.231 C 119.051 152.969,114.169 151.041,112.667 147.066 C 112.033 145.386,112.102 142.309,112.811 140.680 C 113.512 139.069,146.795 105.795,148.693 104.807 C 150.466 103.885,153.425 103.946,155.492 104.947 " stroke="none" fill-rule="evenodd"></path></svg>