<svg fill="currentColor" viewBox="0 0 256 256" xmlns="http://www.w3.org/2000/svg"><path d="M52.372 32.460 C 47.854 33.533,43.666 36.919,41.566 41.197 L 40.320 43.733 40.190 126.720 C 40.096 186.461,40.192 210.326,40.534 211.918 C 41.163 214.848,43.838 218.904,46.377 220.778 C 47.505 221.609,49.647 222.674,51.138 223.145 C 53.809 223.987,54.979 224.000,128.000 224.000 C 201.021 224.000,202.191 223.987,204.862 223.145 C 208.328 222.051,211.216 219.912,213.143 217.009 C 215.888 212.876,215.893 212.823,215.893 190.302 C 215.893 166.837,215.949 167.247,212.298 163.611 C 210.678 161.997,209.505 161.258,207.636 160.674 C 203.734 159.454,201.458 159.915,195.269 163.182 C 189.097 166.440,185.171 167.625,179.413 167.966 C 159.894 169.123,143.253 157.550,137.543 138.846 C 136.484 135.377,136.382 134.435,136.385 128.213 C 136.389 122.592,136.549 120.807,137.292 118.102 C 141.199 103.877,152.140 93.016,166.286 89.319 C 169.771 88.408,171.396 88.231,176.213 88.236 C 183.772 88.245,188.374 89.388,195.588 93.050 C 201.555 96.078,203.716 96.500,207.555 95.384 C 209.480 94.824,210.528 94.167,212.258 92.438 C 216.014 88.682,215.944 89.231,215.802 64.804 L 215.680 43.733 214.434 41.197 C 212.789 37.846,210.099 35.229,206.592 33.568 L 203.733 32.213 128.853 32.147 C 86.213 32.109,53.284 32.244,52.372 32.460 " stroke="none" fill-rule="evenodd"></path></svg>