<svg fill="currentColor" viewBox="0 0 256 256" xmlns="http://www.w3.org/2000/svg"><path d="M125.860 32.378 C 124.736 32.742,25.815 85.875,20.798 88.808 C 18.645 90.068,17.675 90.946,16.958 92.287 L 16.000 94.080 16.000 128.000 L 16.000 161.920 16.935 163.668 C 17.450 164.630,18.410 165.778,19.069 166.220 C 19.728 166.662,41.387 178.421,67.200 192.352 C 96.090 207.942,114.741 217.767,115.713 217.907 C 117.063 218.101,117.481 217.944,118.593 216.833 L 119.893 215.532 119.893 186.131 L 119.893 156.730 93.440 142.489 C 78.891 134.657,66.987 128.144,66.987 128.015 C 66.987 127.887,70.366 125.966,74.496 123.747 C 78.626 121.527,82.277 119.512,82.610 119.269 C 83.072 118.930,78.320 116.194,62.300 107.575 C 50.798 101.386,41.387 96.195,41.387 96.038 C 41.387 95.761,119.119 53.760,119.633 53.760 C 119.776 53.760,119.893 64.009,119.893 76.536 L 119.893 99.311 101.772 109.060 C 91.805 114.421,83.789 118.942,83.959 119.107 C 84.128 119.272,94.107 124.705,106.133 131.182 L 128.000 142.957 149.867 131.182 C 161.893 124.705,171.862 119.276,172.020 119.116 C 172.177 118.957,164.161 114.440,154.206 109.078 L 136.107 99.330 136.107 76.545 C 136.107 64.013,136.224 53.760,136.367 53.760 C 136.876 53.760,214.613 95.759,214.613 96.035 C 214.613 96.189,205.214 101.380,193.725 107.571 C 177.944 116.074,172.978 118.935,173.416 119.269 C 173.734 119.512,177.374 121.527,181.504 123.747 C 185.634 125.966,189.013 127.887,189.013 128.015 C 189.013 128.144,177.109 134.657,162.560 142.489 L 136.107 156.730 136.107 186.131 L 136.107 215.532 137.407 216.833 C 138.519 217.944,138.937 218.101,140.287 217.907 C 141.259 217.767,159.910 207.942,188.800 192.352 C 214.613 178.421,236.225 166.693,236.826 166.289 C 237.427 165.885,238.387 164.737,238.959 163.737 L 240.000 161.920 240.000 128.000 L 240.000 94.080 238.938 92.225 C 238.167 90.878,237.116 89.926,235.098 88.747 C 233.570 87.854,209.444 74.815,181.484 59.773 C 128.956 31.512,128.786 31.429,125.860 32.378 M49.301 118.720 C 58.558 123.707,66.132 127.890,66.133 128.016 C 66.133 128.259,32.710 146.347,32.261 146.347 C 32.118 146.347,32.000 138.091,32.000 128.000 C 32.000 117.909,32.106 109.653,32.235 109.653 C 32.364 109.653,40.044 113.733,49.301 118.720 M224.000 128.000 C 224.000 138.091,223.882 146.347,223.739 146.347 C 223.290 146.347,189.867 128.259,189.867 128.016 C 189.868 127.766,223.159 109.706,223.680 109.673 C 223.856 109.662,224.000 117.909,224.000 128.000 " stroke="none" fill-rule="evenodd"></path></svg>