<svg fill="currentColor" viewBox="0 0 256 256" xmlns="http://www.w3.org/2000/svg"><path d="M81.280 40.589 C 42.012 43.631,12.803 59.030,8.548 78.933 C 8.187 80.620,8.085 88.056,8.183 105.387 L 8.320 129.493 9.439 132.370 C 12.619 140.543,19.594 147.804,29.867 153.637 C 39.037 158.843,52.984 163.413,66.453 165.625 L 72.107 166.554 72.107 171.002 C 72.107 173.683,72.376 176.489,72.784 178.064 C 75.012 186.664,81.669 194.333,92.551 200.837 C 104.431 207.939,121.452 212.953,141.013 215.114 C 147.869 215.872,172.131 215.872,178.987 215.114 C 212.113 211.455,236.584 199.863,244.872 183.905 C 247.974 177.931,247.941 178.303,247.803 150.915 L 247.680 126.507 246.561 123.630 C 244.737 118.941,242.796 116.078,238.507 111.748 C 234.261 107.461,230.491 104.703,224.427 101.446 C 215.164 96.472,201.438 92.279,186.987 90.009 L 183.893 89.523 183.893 85.036 C 183.893 76.324,181.081 70.035,174.143 63.234 C 161.606 50.947,138.267 42.733,109.675 40.546 C 103.039 40.038,88.102 40.061,81.280 40.589 M28.451 112.789 C 34.385 116.354,43.676 120.175,51.520 122.275 L 55.893 123.447 55.893 135.110 C 55.893 141.525,55.807 146.773,55.702 146.773 C 54.978 146.773,47.834 144.269,44.126 142.716 C 35.240 138.993,28.060 133.659,25.379 128.790 C 24.129 126.520,24.121 126.458,23.961 118.214 L 23.800 109.921 24.807 110.562 C 25.360 110.915,27.000 111.917,28.451 112.789 M168.029 119.467 C 167.870 126.303,167.829 126.573,166.615 128.790 C 163.953 133.650,156.766 138.990,147.874 142.716 C 144.166 144.269,137.022 146.773,136.298 146.773 C 136.193 146.773,136.107 141.530,136.107 135.121 L 136.107 123.469 141.041 122.110 C 149.519 119.774,158.255 116.049,165.120 111.842 L 167.893 110.142 168.043 111.284 C 168.125 111.913,168.119 115.595,168.029 119.467 M83.627 127.595 C 92.778 128.313,103.801 128.082,116.587 126.906 L 119.893 126.602 119.893 138.366 C 119.893 149.204,119.835 150.146,119.147 150.341 C 118.736 150.458,116.288 150.806,113.707 151.116 C 104.561 152.215,77.657 151.704,72.853 150.341 C 72.165 150.146,72.107 149.204,72.107 138.366 L 72.107 126.602 75.413 126.906 C 77.232 127.074,80.928 127.384,83.627 127.595 M232.040 166.293 C 231.904 173.731,231.821 174.441,230.862 176.390 C 227.835 182.540,218.717 188.578,205.760 193.015 L 200.107 194.951 200.107 183.247 L 200.107 171.544 202.560 170.867 C 212.095 168.237,223.533 163.491,229.120 159.846 C 230.411 159.004,231.629 158.310,231.827 158.304 C 232.025 158.298,232.121 161.893,232.040 166.293 M114.133 169.714 L 119.680 171.415 119.793 183.185 L 119.907 194.955 114.247 193.017 C 104.296 189.610,97.498 185.849,92.774 181.139 C 89.437 177.811,88.303 175.441,88.014 171.195 L 87.789 167.893 98.188 167.953 L 108.587 168.013 114.133 169.714 M144.640 175.395 C 154.062 176.298,175.568 175.878,182.507 174.656 L 183.893 174.412 183.893 186.349 L 183.893 198.286 180.160 198.780 C 171.788 199.887,160.304 200.288,151.787 199.772 C 147.269 199.498,141.893 199.051,139.840 198.780 L 136.107 198.286 136.107 186.348 L 136.107 174.410 137.920 174.668 C 138.917 174.809,141.941 175.137,144.640 175.395 " stroke="none" fill-rule="evenodd"></path></svg>