<svg fill="currentColor" viewBox="0 0 256 256" xmlns="http://www.w3.org/2000/svg"><path d="M123.679 17.436 C 120.297 19.581,120.139 20.248,119.893 33.440 L 119.680 44.907 116.907 45.849 C 107.685 48.982,100.080 55.473,95.894 63.787 C 93.555 68.430,92.494 72.804,92.267 78.738 C 92.088 83.431,92.193 84.849,92.934 87.781 C 94.867 95.426,97.260 99.762,102.507 105.124 C 104.560 107.223,106.240 109.004,106.240 109.082 C 106.240 109.160,95.074 134.328,81.427 165.012 C 67.780 195.695,56.420 221.612,56.184 222.605 C 55.100 227.153,59.167 232.088,64.000 232.088 C 65.828 232.088,68.583 230.865,69.844 229.492 C 70.539 228.737,93.613 177.746,96.014 171.662 L 96.379 170.737 100.396 171.943 C 109.469 174.667,118.050 175.894,128.000 175.889 C 138.271 175.885,149.370 174.216,157.350 171.476 L 159.607 170.701 159.979 171.644 C 160.184 172.162,165.937 185.163,172.765 200.533 C 186.304 231.015,186.046 230.550,190.090 231.683 C 195.612 233.229,201.313 227.579,199.693 222.166 C 199.398 221.180,193.585 207.838,186.776 192.518 C 179.967 177.197,174.469 164.599,174.558 164.522 C 174.647 164.445,176.736 163.176,179.200 161.702 C 193.532 153.127,206.065 140.168,213.976 125.742 C 215.963 122.118,216.423 120.198,215.837 117.973 C 214.541 113.050,209.472 110.531,205.013 112.596 C 202.801 113.620,201.578 115.032,199.061 119.467 C 193.430 129.389,184.483 139.070,175.094 145.398 C 171.448 147.855,168.037 149.833,167.821 149.616 C 167.630 149.426,151.430 113.137,150.351 110.483 L 149.734 108.967 153.480 105.138 C 158.740 99.761,161.131 95.432,163.066 87.781 C 163.807 84.849,163.912 83.431,163.733 78.738 C 163.432 70.879,161.539 65.164,157.226 59.093 C 152.954 53.081,146.495 48.364,139.093 45.849 L 136.320 44.907 136.107 33.440 C 135.917 23.238,135.803 21.790,135.071 20.316 C 133.104 16.353,127.586 14.958,123.679 17.436 M129.707 115.929 C 131.936 115.808,134.023 115.642,134.344 115.561 C 134.748 115.459,137.728 121.695,144.000 135.771 L 153.072 156.129 150.874 156.768 C 140.595 159.756,128.307 160.734,118.106 159.376 C 113.374 158.746,104.768 156.838,103.719 156.187 C 103.238 155.887,104.690 152.280,111.056 137.960 C 115.421 128.141,119.471 119.027,120.054 117.706 L 121.116 115.306 123.385 115.727 C 124.632 115.959,127.477 116.050,129.707 115.929 " stroke="none" fill-rule="evenodd"></path></svg>