<svg fill="currentColor" viewBox="0 0 256 256" xmlns="http://www.w3.org/2000/svg"><path d="M92.800 8.711 C 91.117 9.463,89.379 11.350,88.556 13.320 C 87.994 14.666,87.895 17.505,87.903 32.093 C 87.911 47.911,87.975 49.416,88.702 50.987 C 90.161 54.138,92.773 55.893,96.000 55.893 C 99.227 55.893,101.839 54.138,103.298 50.987 C 104.026 49.414,104.088 47.921,104.088 32.000 C 104.088 16.079,104.026 14.586,103.298 13.013 C 102.378 11.027,100.560 9.206,98.852 8.560 C 97.223 7.945,94.357 8.017,92.800 8.711 M124.800 8.711 C 123.117 9.463,121.379 11.350,120.556 13.320 C 119.994 14.666,119.895 17.505,119.903 32.093 C 119.911 47.911,119.975 49.416,120.702 50.987 C 122.161 54.138,124.773 55.893,128.000 55.893 C 131.227 55.893,133.839 54.138,135.298 50.987 C 136.026 49.414,136.088 47.921,136.088 32.000 C 136.088 16.079,136.026 14.586,135.298 13.013 C 134.378 11.027,132.560 9.206,130.852 8.560 C 129.223 7.945,126.357 8.017,124.800 8.711 M156.800 8.711 C 155.117 9.463,153.379 11.350,152.556 13.320 C 151.994 14.666,151.895 17.505,151.903 32.093 C 151.911 47.911,151.975 49.416,152.702 50.987 C 154.161 54.138,156.773 55.893,160.000 55.893 C 163.227 55.893,165.839 54.138,167.298 50.987 C 168.026 49.414,168.088 47.921,168.088 32.000 C 168.088 16.079,168.026 14.586,167.298 13.013 C 166.378 11.027,164.560 9.206,162.852 8.560 C 161.223 7.945,158.357 8.017,156.800 8.711 M42.880 72.876 C 38.021 74.563,34.386 78.285,32.855 83.138 C 32.113 85.491,32.000 87.029,32.000 94.765 C 32.000 99.668,31.902 103.680,31.782 103.680 C 31.663 103.680,27.103 100.334,21.649 96.244 C 10.793 88.103,9.403 87.396,6.033 88.304 C 1.213 89.602,-1.244 94.715,0.796 99.204 C 1.804 101.423,2.093 101.664,18.226 113.707 L 31.943 123.947 32.097 156.800 C 32.237 186.794,32.317 189.876,33.011 192.213 C 36.278 203.217,44.173 211.263,55.055 214.680 L 58.240 215.680 128.000 215.680 L 197.760 215.680 200.960 214.681 C 209.844 211.907,216.934 205.863,220.797 197.773 C 223.880 191.315,223.733 193.263,223.903 156.800 L 224.057 123.947 237.774 113.707 C 253.907 101.664,254.196 101.423,255.204 99.204 C 257.894 93.284,252.502 86.744,246.228 88.317 C 244.751 88.687,241.819 90.644,234.351 96.244 C 228.897 100.334,224.337 103.680,224.218 103.680 C 224.098 103.680,224.000 99.668,224.000 94.765 C 224.000 87.029,223.887 85.491,223.145 83.138 C 222.051 79.672,219.912 76.784,217.009 74.857 C 212.557 71.901,219.229 72.105,127.826 72.121 C 50.319 72.134,44.877 72.182,42.880 72.876 " stroke="none" fill-rule="evenodd"></path></svg>