<svg fill="currentColor" viewBox="0 0 256 256" xmlns="http://www.w3.org/2000/svg"><path d="M120.960 24.326 C 100.935 25.586,81.587 32.844,64.891 45.360 C 59.554 49.360,49.234 59.686,45.276 64.986 C 34.512 79.399,27.973 94.882,25.095 112.768 C 23.886 120.283,23.787 134.307,24.890 141.867 C 27.542 160.046,34.293 176.318,45.279 191.014 C 49.299 196.392,59.608 206.701,64.986 210.721 C 79.686 221.710,96.000 228.476,114.133 231.105 C 117.683 231.620,121.936 231.847,128.000 231.847 C 144.598 231.847,158.874 228.583,173.440 221.458 C 184.661 215.968,192.320 210.472,201.396 201.396 C 210.475 192.317,215.974 184.654,221.456 173.440 C 235.707 144.287,235.458 110.173,220.780 81.026 C 214.698 68.950,203.517 55.194,193.067 46.931 C 172.349 30.550,147.221 22.673,120.960 24.326 M142.080 41.152 C 159.933 44.170,175.895 52.156,188.870 64.559 C 202.597 77.682,211.532 94.696,214.904 114.133 C 215.937 120.088,215.932 135.829,214.895 141.867 C 212.390 156.454,206.990 169.066,198.207 180.843 C 173.373 214.141,127.558 225.417,90.240 207.417 C 81.119 203.017,74.345 198.338,67.182 191.490 C 53.399 178.314,44.463 161.314,41.098 141.867 C 40.060 135.867,40.060 120.133,41.098 114.133 C 46.547 82.647,66.943 57.480,96.401 45.891 C 101.417 43.918,110.346 41.621,115.413 41.001 C 117.525 40.743,119.733 40.449,120.320 40.349 C 122.762 39.932,138.241 40.503,142.080 41.152 M121.813 56.329 C 97.096 58.367,74.864 73.456,63.677 95.787 C 45.875 131.321,60.242 174.516,95.787 192.323 C 131.321 210.125,174.516 195.758,192.323 160.213 C 204.286 136.336,202.089 108.188,186.547 86.187 C 183.057 81.247,175.093 73.215,170.296 69.799 C 156.026 59.636,139.016 54.910,121.813 56.329 M136.584 80.840 C 145.912 82.473,155.537 87.568,162.213 94.405 C 165.613 97.887,167.564 100.707,167.933 102.675 C 168.723 106.886,165.611 111.268,161.314 111.994 C 158.547 112.462,156.229 111.486,153.813 108.839 C 150.119 104.789,148.349 103.190,145.493 101.325 C 139.802 97.605,135.042 96.219,128.000 96.230 C 122.286 96.239,119.210 96.932,114.126 99.355 C 106.276 103.096,100.612 109.566,97.639 118.187 C 96.329 121.986,96.241 122.601,96.241 128.000 C 96.241 133.399,96.329 134.014,97.639 137.813 C 99.498 143.203,102.085 147.238,106.143 151.078 C 111.309 155.966,116.158 158.397,123.182 159.620 C 126.588 160.213,132.708 159.885,136.320 158.916 C 142.421 157.279,148.882 153.058,152.856 148.113 C 155.244 145.141,157.251 144.041,160.224 144.071 C 163.629 144.105,166.106 145.798,167.446 149.005 C 168.828 152.313,168.063 154.814,164.267 159.394 C 160.023 164.514,152.690 169.775,146.143 172.397 C 131.168 178.393,114.993 176.752,101.547 167.874 C 91.848 161.469,84.696 151.498,81.601 140.065 C 80.571 136.259,80.472 135.201,80.472 128.000 C 80.472 120.799,80.571 119.741,81.601 115.935 C 85.353 102.076,94.767 90.776,107.634 84.689 C 111.482 82.868,116.360 81.309,120.286 80.644 C 123.670 80.072,132.825 80.181,136.584 80.840 " stroke="none" fill-rule="evenodd"></path></svg>