<svg fill="currentColor" viewBox="0 0 256 256" xmlns="http://www.w3.org/2000/svg"><path d="M124.929 24.470 C 122.426 25.170,119.856 26.846,118.483 28.677 C 117.903 29.448,108.078 45.632,96.650 64.640 C 85.221 83.648,75.818 99.253,75.754 99.318 C 75.691 99.383,63.969 93.628,49.706 86.529 C 24.300 73.883,23.714 73.618,20.824 73.454 C 17.149 73.247,14.654 74.120,12.042 76.527 C 9.161 79.184,8.345 81.071,8.332 85.120 C 8.320 88.478,8.623 89.460,27.020 145.686 C 37.306 177.121,45.975 203.329,46.287 203.926 C 47.232 205.742,48.923 207.021,51.140 207.596 C 53.741 208.271,55.141 207.977,59.279 205.886 C 68.638 201.157,82.402 196.998,96.640 194.597 C 107.354 192.790,114.400 192.266,128.000 192.266 C 141.600 192.266,148.646 192.790,159.360 194.597 C 173.586 196.996,187.359 201.173,196.907 205.984 C 198.549 206.812,200.517 207.632,201.279 207.806 C 204.205 208.476,208.332 206.617,209.658 204.031 C 209.983 203.398,218.671 177.152,228.964 145.707 C 247.375 89.461,247.679 88.478,247.668 85.120 C 247.655 81.071,246.840 79.184,243.958 76.527 C 241.357 74.131,238.847 73.247,235.222 73.453 C 232.397 73.613,231.633 73.959,206.335 86.522 C 192.043 93.619,180.301 99.375,180.241 99.313 C 180.181 99.251,170.600 83.360,158.949 64.000 C 147.299 44.640,137.256 28.265,136.630 27.612 C 133.963 24.827,128.705 23.415,124.929 24.470 " stroke="none" fill-rule="evenodd"></path></svg>