<svg fill="currentColor" viewBox="0 0 256 256" xmlns="http://www.w3.org/2000/svg"><path d="M28.800 40.711 C 27.117 41.463,25.379 43.350,24.556 45.320 C 23.987 46.683,23.895 49.894,23.903 68.146 C 23.911 87.884,23.968 89.507,24.700 91.093 C 27.673 97.535,36.327 97.535,39.300 91.093 C 40.023 89.527,40.089 88.009,40.097 72.654 L 40.107 55.921 57.527 55.800 L 74.947 55.680 76.523 54.478 C 79.439 52.253,80.453 49.413,79.571 45.940 C 78.986 43.635,77.710 42.087,75.430 40.918 C 73.934 40.151,72.654 40.108,51.964 40.123 C 34.631 40.137,29.814 40.259,28.800 40.711 M180.693 40.814 C 176.778 42.875,175.225 46.699,176.605 50.882 C 177.163 52.571,179.326 54.794,181.041 55.440 C 181.814 55.732,188.241 55.893,199.068 55.893 L 215.893 55.893 215.903 72.640 C 215.911 88.009,215.977 89.527,216.700 91.093 C 219.733 97.666,228.648 97.478,231.446 90.781 C 232.013 89.425,232.105 86.181,232.097 67.960 C 232.089 48.196,232.033 46.601,231.298 45.013 C 230.378 43.027,228.560 41.206,226.852 40.560 C 226.058 40.261,218.246 40.112,203.812 40.124 C 184.763 40.139,181.810 40.227,180.693 40.814 M125.579 56.334 C 123.261 56.799,124.370 56.195,99.211 70.695 C 87.237 77.597,77.008 83.724,76.480 84.312 C 75.210 85.726,75.210 87.938,76.480 89.309 C 77.008 89.878,88.816 96.895,102.720 104.901 L 128.000 119.456 153.280 104.901 C 167.184 96.895,178.992 89.878,179.520 89.309 C 180.123 88.658,180.480 87.735,180.480 86.827 C 180.480 85.929,180.116 84.976,179.520 84.312 C 178.581 83.266,136.277 58.622,132.907 57.156 C 130.718 56.205,127.838 55.882,125.579 56.334 M65.670 104.633 C 64.022 105.948,64.000 106.328,64.000 133.289 C 64.000 158.755,64.026 159.612,64.879 161.891 C 66.556 166.374,67.474 167.032,90.880 180.543 C 102.731 187.384,113.235 193.342,114.223 193.783 C 115.848 194.508,116.162 194.526,117.496 193.969 C 118.307 193.630,119.179 192.965,119.432 192.491 C 119.750 191.898,119.893 182.532,119.893 162.435 L 119.893 133.240 94.832 118.780 C 68.860 103.795,67.528 103.149,65.670 104.633 M161.359 118.672 L 136.107 133.237 136.107 162.433 C 136.107 182.531,136.250 191.898,136.568 192.491 C 136.821 192.965,137.693 193.630,138.504 193.969 C 139.838 194.526,140.152 194.508,141.777 193.783 C 145.486 192.127,186.725 168.003,188.072 166.702 C 188.844 165.955,189.996 164.286,190.632 162.992 L 191.787 160.640 191.905 133.701 L 192.024 106.761 190.908 105.434 C 188.716 102.830,189.206 102.611,161.359 118.672 M28.800 160.806 C 26.735 161.760,25.435 163.110,24.554 165.219 C 23.987 166.575,23.895 169.819,23.903 188.040 C 23.911 207.662,23.971 209.410,24.689 210.990 C 25.668 213.146,28.146 215.348,29.964 215.678 C 30.732 215.818,41.167 215.875,53.154 215.806 L 74.947 215.680 76.522 214.478 C 79.439 212.253,80.453 209.413,79.571 205.940 C 78.986 203.635,77.710 202.087,75.430 200.918 C 73.953 200.161,72.721 200.107,56.977 200.107 L 40.107 200.107 40.097 183.360 C 40.089 167.991,40.023 166.473,39.300 164.907 C 37.370 160.725,32.823 158.949,28.800 160.806 M220.800 160.806 C 218.735 161.760,217.435 163.110,216.554 165.219 C 215.996 166.554,215.893 169.387,215.893 183.453 L 215.893 200.107 199.023 200.107 C 183.121 200.107,182.059 200.155,180.517 200.941 C 175.889 203.302,174.658 209.340,178.023 213.172 C 180.465 215.954,179.892 215.893,203.905 215.893 C 218.232 215.893,226.061 215.739,226.852 215.440 C 228.560 214.794,230.378 212.973,231.298 210.987 C 232.034 209.397,232.088 207.813,232.088 187.947 C 232.088 168.107,232.033 166.494,231.300 164.907 C 229.370 160.725,224.823 158.949,220.800 160.806 " stroke="none" fill-rule="evenodd"></path></svg>