<svg fill="currentColor" viewBox="0 0 256 256" xmlns="http://www.w3.org/2000/svg"><path d="M120.960 24.326 C 100.935 25.586,81.587 32.844,64.891 45.360 C 59.554 49.360,49.234 59.686,45.276 64.986 C 34.512 79.399,27.973 94.882,25.095 112.768 C 23.886 120.283,23.787 134.307,24.890 141.867 C 27.542 160.046,34.293 176.318,45.279 191.014 C 49.299 196.392,59.608 206.701,64.986 210.721 C 79.686 221.710,96.000 228.476,114.133 231.105 C 117.683 231.620,121.936 231.847,128.000 231.847 C 144.598 231.847,158.874 228.583,173.440 221.458 C 184.661 215.968,192.320 210.472,201.396 201.396 C 210.475 192.317,215.974 184.654,221.456 173.440 C 235.707 144.287,235.458 110.173,220.780 81.026 C 214.698 68.950,203.517 55.194,193.067 46.931 C 172.349 30.550,147.221 22.673,120.960 24.326 M179.413 72.909 C 181.443 73.841,182.353 74.793,183.237 76.909 C 184.072 78.907,184.072 81.093,183.237 83.091 C 182.353 85.207,181.443 86.159,179.413 87.091 C 177.789 87.837,175.322 87.875,128.093 87.884 C 74.899 87.894,76.902 87.970,74.515 85.850 C 72.355 83.932,71.549 79.815,72.763 76.909 C 73.647 74.793,74.557 73.841,76.587 72.909 C 78.212 72.163,80.669 72.125,128.000 72.125 C 175.331 72.125,177.788 72.163,179.413 72.909 M187.644 113.021 C 188.514 113.466,189.555 114.193,189.957 114.637 C 190.999 115.789,192.000 118.365,192.000 119.893 C 192.000 122.968,189.238 126.807,186.472 127.575 C 185.600 127.817,177.961 127.996,168.427 127.998 L 151.893 128.000 151.893 140.710 C 151.893 155.148,152.157 156.986,154.784 160.838 C 155.658 162.120,157.333 163.894,158.507 164.780 C 162.224 167.587,163.324 167.814,174.134 168.005 L 183.788 168.175 183.964 162.897 C 184.117 158.293,184.267 157.414,185.136 156.008 C 186.713 153.455,189.002 152.178,192.000 152.178 C 195.002 152.178,197.282 153.453,198.881 156.025 C 199.870 157.616,199.893 157.881,199.893 167.467 C 199.893 172.864,199.747 177.804,199.567 178.446 C 199.116 180.059,196.770 182.625,195.114 183.317 C 194.045 183.763,190.406 183.893,178.978 183.893 C 162.094 183.893,160.524 183.691,154.240 180.703 C 147.415 177.457,142.676 172.717,139.301 165.760 C 136.401 159.782,136.107 157.562,136.107 141.671 L 136.107 128.000 127.787 128.000 C 123.211 128.000,119.467 128.075,119.467 128.166 C 119.467 129.312,117.824 136.381,116.828 139.520 C 110.912 158.169,95.401 174.076,76.969 180.396 C 73.025 181.748,68.127 182.965,65.374 183.277 C 59.373 183.956,54.864 179.060,56.363 173.493 C 57.374 169.739,59.381 168.247,64.969 167.098 C 66.792 166.722,69.726 165.931,71.489 165.339 C 87.262 160.045,99.663 145.912,103.038 129.387 L 103.321 128.000 87.181 127.998 C 77.904 127.996,70.397 127.817,69.528 127.575 C 66.718 126.795,63.988 122.949,64.009 119.800 C 64.021 118.135,65.263 115.264,66.393 114.293 C 68.915 112.127,65.280 112.249,127.910 112.230 C 184.148 112.214,186.113 112.240,187.644 113.021 " stroke="none" fill-rule="evenodd"></path></svg>