<svg fill="currentColor" viewBox="0 0 256 256" xmlns="http://www.w3.org/2000/svg"><path d="M120.960 24.326 C 100.935 25.586,81.587 32.844,64.891 45.360 C 59.554 49.360,49.234 59.686,45.276 64.986 C 34.512 79.399,27.973 94.882,25.095 112.768 C 23.886 120.283,23.787 134.307,24.890 141.867 C 27.542 160.046,34.293 176.318,45.279 191.014 C 49.299 196.392,59.608 206.701,64.986 210.721 C 79.686 221.710,96.000 228.476,114.133 231.105 C 117.683 231.620,121.936 231.847,128.000 231.847 C 144.598 231.847,158.874 228.583,173.440 221.458 C 184.661 215.968,192.320 210.472,201.396 201.396 C 210.475 192.317,215.974 184.654,221.456 173.440 C 235.707 144.287,235.458 110.173,220.780 81.026 C 214.698 68.950,203.517 55.194,193.067 46.931 C 172.349 30.550,147.221 22.673,120.960 24.326 M179.413 56.815 C 184.273 59.505,185.434 65.465,181.840 69.265 C 179.350 71.896,179.498 71.874,163.130 72.107 L 148.126 72.320 150.023 74.829 C 152.505 78.110,155.097 82.576,156.213 85.493 L 157.107 87.829 167.620 87.968 C 176.439 88.084,178.340 88.221,179.413 88.815 C 185.620 92.251,185.381 100.337,178.987 103.298 C 177.507 103.983,176.140 104.089,168.719 104.097 L 160.158 104.107 159.674 108.693 C 157.150 132.613,138.290 150.568,114.347 151.845 L 109.440 152.107 133.376 173.071 C 146.541 184.601,157.755 194.658,158.297 195.419 C 159.475 197.073,159.874 200.248,159.172 202.375 C 158.530 204.320,155.855 206.735,153.590 207.414 C 151.675 207.987,148.521 207.453,147.206 206.333 C 146.850 206.031,131.956 193.015,114.106 177.409 C 89.865 156.216,81.457 148.626,80.885 147.420 C 80.331 146.253,80.168 145.124,80.297 143.345 C 80.509 140.415,81.918 138.267,84.488 136.956 C 86.048 136.160,87.020 136.106,99.930 136.103 C 107.507 136.102,114.955 135.903,116.480 135.663 C 131.591 133.278,142.511 121.531,143.922 106.142 L 144.107 104.124 115.040 104.009 C 81.994 103.878,83.819 104.078,81.436 100.321 C 78.988 96.461,80.151 91.530,84.049 89.238 L 85.973 88.107 112.778 87.893 L 139.582 87.680 138.220 85.760 C 135.031 81.266,131.073 77.891,126.022 75.355 C 120.324 72.496,119.680 72.410,101.973 72.138 C 83.699 71.859,83.677 71.854,81.436 68.321 C 78.457 63.623,80.909 57.610,86.339 56.296 C 87.077 56.117,108.032 56.002,132.907 56.039 C 174.177 56.101,178.245 56.169,179.413 56.815 " stroke="none" fill-rule="evenodd"></path></svg>