<svg fill="currentColor" viewBox="0 0 256 256" xmlns="http://www.w3.org/2000/svg"><path d="M120.960 24.326 C 100.935 25.586,81.587 32.844,64.891 45.360 C 59.554 49.360,49.234 59.686,45.276 64.986 C 34.512 79.399,27.973 94.882,25.095 112.768 C 23.886 120.283,23.787 134.307,24.890 141.867 C 27.542 160.046,34.293 176.318,45.279 191.014 C 49.299 196.392,59.608 206.701,64.986 210.721 C 79.686 221.710,96.000 228.476,114.133 231.105 C 117.683 231.620,121.936 231.847,128.000 231.847 C 144.598 231.847,158.874 228.583,173.440 221.458 C 184.661 215.968,192.320 210.472,201.396 201.396 C 210.475 192.317,215.974 184.654,221.456 173.440 C 235.707 144.287,235.458 110.173,220.780 81.026 C 214.698 68.950,203.517 55.194,193.067 46.931 C 172.349 30.550,147.221 22.673,120.960 24.326 M83.398 64.846 C 84.779 65.515,90.016 71.375,108.367 92.793 L 131.588 119.893 149.847 119.893 L 168.107 119.893 168.107 95.068 C 168.107 70.642,168.121 70.213,169.012 68.373 C 170.353 65.602,172.686 64.213,176.000 64.213 C 179.314 64.213,181.647 65.602,182.988 68.373 C 183.879 70.213,183.893 70.643,183.893 95.017 L 183.893 119.790 189.137 119.965 C 195.138 120.165,196.723 120.801,198.713 123.808 C 200.354 126.288,200.295 129.916,198.572 132.367 C 196.475 135.350,195.137 135.871,189.120 136.044 L 183.893 136.194 183.893 160.976 C 183.893 185.357,183.879 185.787,182.988 187.627 C 181.833 190.014,179.432 191.635,176.657 191.902 C 172.473 192.304,173.071 192.896,147.633 163.207 L 124.412 136.107 106.153 136.107 L 87.893 136.107 87.893 160.932 C 87.893 185.358,87.879 185.787,86.988 187.627 C 85.647 190.398,83.314 191.787,80.000 191.787 C 76.686 191.787,74.353 190.398,73.012 187.627 C 72.121 185.787,72.107 185.357,72.107 160.976 L 72.107 136.194 66.880 136.044 C 60.863 135.871,59.525 135.350,57.428 132.367 C 55.705 129.916,55.646 126.288,57.287 123.808 C 59.277 120.801,60.862 120.165,66.863 119.965 L 72.107 119.790 72.107 95.017 C 72.107 70.775,72.126 70.203,72.997 68.404 C 74.868 64.538,79.493 62.956,83.398 64.846 M87.893 106.783 L 87.893 119.893 99.212 119.893 L 110.530 119.893 100.219 107.840 C 94.547 101.211,89.454 95.311,88.900 94.730 L 87.893 93.673 87.893 106.783 M155.781 148.160 C 161.453 154.789,166.546 160.689,167.100 161.270 L 168.107 162.327 168.107 149.217 L 168.107 136.107 156.788 136.107 L 145.470 136.107 155.781 148.160 " stroke="none" fill-rule="evenodd"></path></svg>