<svg fill="currentColor" viewBox="0 0 256 256" xmlns="http://www.w3.org/2000/svg"><path d="M120.960 24.326 C 100.935 25.586,81.587 32.844,64.891 45.360 C 59.554 49.360,49.234 59.686,45.276 64.986 C 34.512 79.399,27.973 94.882,25.095 112.768 C 23.886 120.283,23.787 134.307,24.890 141.867 C 27.542 160.046,34.293 176.318,45.279 191.014 C 49.299 196.392,59.608 206.701,64.986 210.721 C 79.686 221.710,96.000 228.476,114.133 231.105 C 117.683 231.620,121.936 231.847,128.000 231.847 C 144.598 231.847,158.874 228.583,173.440 221.458 C 184.661 215.968,192.320 210.472,201.396 201.396 C 210.475 192.317,215.974 184.654,221.456 173.440 C 235.707 144.287,235.458 110.173,220.780 81.026 C 214.698 68.950,203.517 55.194,193.067 46.931 C 172.349 30.550,147.221 22.673,120.960 24.326 M148.364 56.352 C 154.826 57.073,162.131 59.698,165.452 62.493 C 169.535 65.929,168.583 73.121,163.733 75.468 C 161.034 76.775,159.014 76.628,155.313 74.855 C 147.640 71.177,139.767 71.193,132.715 74.898 C 127.490 77.644,122.985 82.994,121.081 88.716 C 120.212 91.327,120.137 92.493,119.990 105.679 L 119.832 119.837 132.983 119.972 C 144.270 120.088,146.315 120.207,147.413 120.815 C 153.620 124.251,153.381 132.337,146.987 135.298 C 145.448 136.010,144.031 136.089,132.587 136.097 L 119.893 136.107 119.893 147.802 C 119.893 160.490,119.565 163.442,117.566 168.742 C 116.947 170.382,115.970 172.529,115.394 173.511 C 114.818 174.494,114.347 175.504,114.347 175.756 C 114.347 176.077,122.627 176.213,142.052 176.213 C 160.590 176.213,170.155 176.363,170.959 176.667 C 172.593 177.285,174.489 179.126,175.199 180.786 C 176.432 183.669,175.574 187.958,173.363 189.957 C 171.030 192.067,172.654 192.000,123.882 192.000 C 78.355 192.000,78.349 192.000,76.480 191.095 C 71.394 188.633,70.649 181.511,75.087 177.777 C 76.571 176.529,77.413 176.353,83.445 176.025 C 88.243 175.765,91.601 174.801,94.750 172.781 C 97.439 171.055,100.369 167.866,101.727 165.185 C 103.758 161.177,104.094 158.591,104.100 146.880 L 104.107 136.107 91.413 136.097 C 79.969 136.089,78.552 136.010,77.013 135.298 C 73.862 133.839,72.107 131.227,72.107 128.000 C 72.107 125.858,72.738 124.238,74.160 122.735 C 76.629 120.127,76.675 120.119,90.954 119.972 L 104.042 119.838 104.205 104.399 C 104.367 89.057,104.376 88.936,105.520 85.210 C 107.668 78.220,111.042 72.526,115.896 67.699 C 123.169 60.467,132.240 56.574,143.270 55.949 C 143.807 55.918,146.100 56.100,148.364 56.352 " stroke="none" fill-rule="evenodd"></path></svg>