<svg fill="currentColor" viewBox="0 0 256 256" xmlns="http://www.w3.org/2000/svg"><path d="M117.120 16.469 C 116.416 16.564,113.536 16.949,110.720 17.324 C 96.929 19.164,82.781 24.410,73.168 31.248 C 68.893 34.288,62.692 40.644,60.649 44.077 C 58.632 47.467,57.226 51.134,56.510 54.881 C 55.588 59.699,55.588 196.301,56.510 201.119 C 57.226 204.866,58.632 208.533,60.649 211.923 C 62.692 215.356,68.893 221.712,73.168 224.752 C 93.355 239.112,126.981 243.931,155.915 236.612 C 170.616 232.893,182.160 226.707,190.204 218.240 C 195.618 212.541,198.224 207.736,199.490 201.119 C 200.412 196.301,200.412 59.699,199.490 54.881 C 198.224 48.264,195.618 43.459,190.204 37.760 C 182.159 29.292,170.554 23.075,155.947 19.407 C 146.615 17.064,141.844 16.523,129.493 16.403 C 123.392 16.345,117.824 16.374,117.120 16.469 M80.644 84.151 C 88.980 89.344,99.751 92.997,112.640 95.001 C 116.361 95.580,120.073 95.764,128.000 95.764 C 135.927 95.764,139.639 95.580,143.360 95.001 C 159.529 92.487,172.460 87.327,181.231 79.889 L 183.902 77.624 183.791 138.555 L 183.680 199.485 182.277 202.336 C 175.126 216.859,144.669 226.624,116.719 223.355 C 96.066 220.939,79.350 212.861,73.793 202.610 L 72.320 199.893 72.208 138.758 L 72.095 77.622 74.768 79.888 C 76.237 81.135,78.882 83.053,80.644 84.151 " stroke="none" fill-rule="evenodd"></path></svg>