<svg fill="currentColor" viewBox="0 0 256 256" xmlns="http://www.w3.org/2000/svg"><path d="M122.914 16.890 C 121.876 17.267,120.340 18.020,119.500 18.564 C 118.661 19.108,95.663 41.890,68.396 69.190 C 27.719 109.915,18.603 119.248,17.622 121.173 C 16.537 123.303,16.427 123.935,16.427 128.000 C 16.427 132.154,16.520 132.657,17.707 134.907 C 18.752 136.889,28.073 146.444,68.552 187.029 C 98.038 216.591,118.890 237.176,120.025 237.842 C 121.075 238.457,123.298 239.244,124.967 239.592 C 127.647 240.151,128.353 240.151,131.033 239.592 C 132.702 239.244,134.958 238.463,136.047 237.855 C 137.368 237.118,154.520 220.200,187.642 186.962 C 227.041 147.424,237.475 136.730,238.317 135.018 C 240.488 130.606,240.479 125.631,238.293 120.823 C 237.314 118.672,231.610 112.823,187.395 68.640 C 131.225 12.511,135.778 16.565,128.664 16.332 C 125.916 16.242,124.255 16.403,122.914 16.890 " stroke="none" fill-rule="evenodd"></path></svg>