<svg fill="currentColor" viewBox="0 0 256 256" xmlns="http://www.w3.org/2000/svg"><path d="M58.699 32.448 C 47.861 34.285,37.934 42.409,34.154 52.536 C 31.940 58.465,32.015 55.822,32.007 127.911 C 31.999 201.370,31.885 197.871,34.492 204.277 C 37.558 211.811,44.189 218.442,51.723 221.508 C 58.127 224.114,54.644 224.000,128.000 224.000 C 201.341 224.000,197.878 224.113,204.263 221.513 C 211.733 218.471,218.471 211.733,221.513 204.263 C 224.113 197.878,224.000 201.341,224.000 128.000 C 224.000 54.644,224.114 58.127,221.508 51.723 C 218.658 44.721,212.947 38.748,205.827 35.325 C 198.820 31.956,205.774 32.243,129.280 32.163 C 91.616 32.124,59.854 32.252,58.699 32.448 M132.080 116.769 C 134.900 117.729,138.271 121.100,139.231 123.920 C 140.723 128.297,139.825 132.593,136.689 136.080 C 132.064 141.225,123.936 141.225,119.311 136.080 C 114.809 131.073,114.952 124.352,119.660 119.644 C 123.073 116.231,127.497 115.207,132.080 116.769 " stroke="none" fill-rule="evenodd"></path></svg>