<svg fill="currentColor" viewBox="0 0 256 256" xmlns="http://www.w3.org/2000/svg"><path d="M58.699 32.448 C 47.861 34.285,37.934 42.409,34.154 52.536 C 31.940 58.465,32.015 55.822,32.007 127.911 C 31.999 201.370,31.885 197.871,34.492 204.277 C 37.558 211.811,44.189 218.442,51.723 221.508 C 58.127 224.114,54.644 224.000,128.000 224.000 C 201.341 224.000,197.878 224.113,204.263 221.513 C 211.733 218.471,218.471 211.733,221.513 204.263 C 224.113 197.878,224.000 201.341,224.000 128.000 C 224.000 54.644,224.114 58.127,221.508 51.723 C 218.658 44.721,212.947 38.748,205.827 35.325 C 198.820 31.956,205.774 32.243,129.280 32.163 C 91.616 32.124,59.854 32.252,58.699 32.448 M96.088 72.770 C 100.659 74.328,103.869 78.989,103.838 84.024 C 103.810 88.642,101.651 92.319,97.708 94.465 C 89.777 98.781,80.158 93.045,80.250 84.053 C 80.266 82.528,80.504 80.669,80.779 79.921 C 83.022 73.838,89.854 70.646,96.088 72.770 M169.368 73.445 C 173.608 75.564,175.699 79.039,175.750 84.053 C 175.842 93.045,166.223 98.781,158.292 94.465 C 152.690 91.416,150.513 84.555,153.325 78.808 C 155.444 74.476,159.112 72.205,164.092 72.140 C 166.193 72.113,167.203 72.363,169.368 73.445 M97.116 117.249 C 99.891 118.666,101.412 120.174,102.679 122.763 C 104.370 126.220,104.338 129.964,102.587 133.388 C 98.141 142.082,85.854 142.138,81.530 133.484 C 79.639 129.702,79.662 126.148,81.600 122.422 C 83.052 119.631,85.694 117.351,88.473 116.493 C 90.598 115.837,95.126 116.233,97.116 117.249 M167.331 116.494 C 170.243 117.303,172.893 119.525,174.400 122.422 C 178.635 130.563,172.965 139.933,163.797 139.944 C 156.541 139.953,150.823 132.866,152.309 125.707 C 153.731 118.859,160.624 114.631,167.331 116.494 M97.762 161.564 C 103.309 164.584,105.474 171.470,102.675 177.192 C 100.455 181.729,96.238 184.153,91.161 183.810 C 86.807 183.516,83.137 181.084,81.284 177.266 C 80.014 174.649,79.904 170.050,81.048 167.390 C 83.832 160.919,91.601 158.211,97.762 161.564 M167.655 160.672 C 170.564 161.536,173.650 164.365,174.930 167.341 C 176.096 170.051,175.998 174.625,174.716 177.266 C 170.724 185.492,158.909 186.190,154.025 178.489 C 150.376 172.735,152.074 165.262,157.808 161.840 C 161.056 159.902,163.917 159.562,167.655 160.672 " stroke="none" fill-rule="evenodd"></path></svg>