<svg fill="currentColor" viewBox="0 0 256 256" xmlns="http://www.w3.org/2000/svg"><path d="M58.699 32.448 C 47.861 34.285,37.934 42.409,34.154 52.536 C 31.940 58.465,32.015 55.822,32.007 127.911 C 31.999 201.370,31.885 197.871,34.492 204.277 C 37.558 211.811,44.189 218.442,51.723 221.508 C 58.127 224.114,54.644 224.000,128.000 224.000 C 201.341 224.000,197.878 224.113,204.263 221.513 C 211.733 218.471,218.471 211.733,221.513 204.263 C 224.113 197.878,224.000 201.341,224.000 128.000 C 224.000 54.644,224.114 58.127,221.508 51.723 C 218.658 44.721,212.947 38.748,205.827 35.325 C 198.820 31.956,205.774 32.243,129.280 32.163 C 91.616 32.124,59.854 32.252,58.699 32.448 M105.387 89.400 C 109.568 91.528,111.762 95.194,111.777 100.076 C 111.817 112.715,95.096 116.504,89.283 105.173 C 87.961 102.597,87.753 98.028,88.844 95.514 C 89.671 93.606,92.183 90.772,94.093 89.592 C 97.131 87.714,101.916 87.633,105.387 89.400 M160.721 88.975 C 162.745 89.808,165.803 92.819,166.877 95.036 C 168.263 97.900,168.194 102.298,166.718 105.173 C 162.993 112.430,154.034 114.181,147.954 108.843 C 143.176 104.647,142.876 96.458,147.331 91.803 C 148.897 90.166,151.440 88.737,153.600 88.282 C 155.448 87.892,158.909 88.229,160.721 88.975 M104.775 145.020 C 112.608 148.578,114.337 159.099,108.023 164.790 C 105.534 167.035,103.552 167.792,100.053 167.837 C 96.484 167.882,94.028 166.901,91.634 164.474 C 89.139 161.944,88.129 159.464,88.161 155.947 C 88.205 151.101,90.806 147.063,95.147 145.100 C 97.684 143.953,102.340 143.914,104.775 145.020 M160.853 145.100 C 163.364 146.235,165.363 148.187,166.718 150.827 C 168.187 153.688,168.263 158.101,166.891 160.934 C 164.714 165.431,160.801 167.899,155.947 167.837 C 152.448 167.792,150.466 167.035,147.977 164.790 C 142.909 160.222,142.895 151.599,147.947 147.163 C 150.374 145.032,152.558 144.232,155.947 144.232 C 158.037 144.232,159.510 144.493,160.853 145.100 " stroke="none" fill-rule="evenodd"></path></svg>