<svg fill="currentColor" viewBox="0 0 256 256" xmlns="http://www.w3.org/2000/svg"><path d="M120.320 22.874 C 95.783 24.596,74.580 33.460,56.320 49.630 C 45.952 58.811,36.023 72.760,30.573 85.802 C 24.729 99.788,22.429 111.288,22.432 126.507 C 22.434 135.913,22.675 138.468,24.385 147.200 C 32.019 186.192,62.497 217.840,101.633 227.415 C 110.695 229.632,115.339 230.152,126.080 230.152 C 136.826 230.152,141.478 229.631,150.527 227.413 C 188.543 218.094,217.666 188.939,227.012 150.844 C 229.202 141.914,229.727 137.267,229.736 126.720 C 229.745 116.369,229.220 111.524,227.125 102.613 C 218.903 67.640,192.788 39.218,158.507 27.935 C 152.192 25.856,146.429 24.529,139.947 23.659 C 135.255 23.029,124.334 22.593,120.320 22.874 M187.473 63.241 C 191.163 66.493,196.822 72.998,200.196 77.867 C 207.501 88.405,212.369 100.248,214.649 113.026 C 215.671 118.750,216.329 134.507,215.567 134.978 C 215.321 135.130,204.551 133.391,191.633 131.114 L 168.146 126.974 167.872 124.607 C 166.906 116.274,164.039 109.196,159.125 103.015 L 157.070 100.431 170.802 80.744 C 178.354 69.916,184.629 61.050,184.747 61.041 C 184.864 61.032,186.091 62.022,187.473 63.241 M136.159 105.516 C 143.085 108.142,147.753 112.784,150.498 119.774 C 151.513 122.360,151.634 123.233,151.634 128.000 C 151.634 132.767,151.513 133.640,150.498 136.226 C 146.693 145.916,138.109 151.893,128.000 151.893 C 117.891 151.893,109.307 145.916,105.502 136.226 C 104.487 133.640,104.366 132.767,104.366 128.000 C 104.366 123.262,104.490 122.351,105.477 119.841 C 108.646 111.779,114.974 106.273,123.093 104.514 C 126.301 103.818,133.047 104.336,136.159 105.516 " stroke="none" fill-rule="evenodd"></path></svg>