<svg fill="currentColor" viewBox="0 0 256 256" xmlns="http://www.w3.org/2000/svg"><path d="M119.183 80.845 C 110.170 82.480,100.676 87.503,94.026 94.153 C 75.405 112.774,75.433 143.255,94.089 161.911 C 110.728 178.550,137.495 180.640,156.212 166.762 C 175.347 152.575,181.348 127.667,170.782 106.283 C 164.415 93.396,150.910 83.348,136.584 80.840 C 132.248 80.080,123.382 80.083,119.183 80.845 M132.080 116.769 C 134.900 117.729,138.271 121.100,139.231 123.920 C 140.723 128.297,139.825 132.593,136.689 136.080 C 132.064 141.225,123.936 141.225,119.311 136.080 C 114.809 131.073,114.952 124.352,119.660 119.644 C 123.073 116.231,127.497 115.207,132.080 116.769 " stroke="none" fill-rule="evenodd"></path></svg>