<svg fill="currentColor" viewBox="0 0 256 256" xmlns="http://www.w3.org/2000/svg"><path d="M58.597 17.000 C 54.456 18.436,50.750 22.091,48.928 26.537 L 48.000 28.800 48.000 128.000 L 48.000 227.200 48.928 229.463 C 50.719 233.833,54.167 237.281,58.537 239.072 L 60.800 240.000 128.000 240.000 L 195.200 240.000 197.463 239.072 C 201.833 237.281,205.281 233.833,207.072 229.463 L 208.000 227.200 208.118 129.920 C 208.194 67.609,208.085 31.658,207.816 29.908 C 206.997 24.578,203.610 19.928,198.841 17.586 L 196.480 16.427 128.640 16.331 C 64.403 16.241,60.683 16.276,58.597 17.000 M105.387 57.400 C 109.568 59.528,111.762 63.194,111.777 68.076 C 111.817 80.715,95.096 84.504,89.283 73.173 C 87.961 70.597,87.753 66.028,88.844 63.514 C 89.671 61.606,92.183 58.772,94.093 57.592 C 97.131 55.714,101.916 55.633,105.387 57.400 M160.721 56.975 C 162.745 57.808,165.803 60.819,166.877 63.036 C 168.263 65.900,168.194 70.298,166.718 73.173 C 162.993 80.430,154.034 82.181,147.954 76.843 C 143.176 72.647,142.876 64.458,147.331 59.803 C 148.897 58.166,151.440 56.737,153.600 56.282 C 155.448 55.892,158.909 56.229,160.721 56.975 M103.331 116.494 C 106.243 117.303,108.893 119.525,110.400 122.422 C 114.635 130.563,108.965 139.933,99.797 139.944 C 92.541 139.953,86.823 132.866,88.309 125.707 C 89.731 118.859,96.624 114.631,103.331 116.494 M161.116 117.249 C 163.891 118.666,165.412 120.174,166.679 122.763 C 168.370 126.220,168.338 129.964,166.587 133.388 C 162.141 142.082,149.854 142.138,145.530 133.484 C 143.639 129.702,143.662 126.148,145.600 122.422 C 147.052 119.631,149.694 117.351,152.473 116.493 C 154.598 115.837,159.126 116.233,161.116 117.249 M104.775 177.020 C 112.608 180.578,114.337 191.099,108.023 196.790 C 105.534 199.035,103.552 199.792,100.053 199.837 C 96.484 199.882,94.028 198.901,91.634 196.474 C 89.139 193.944,88.129 191.464,88.161 187.947 C 88.205 183.101,90.806 179.063,95.147 177.100 C 97.684 175.953,102.340 175.914,104.775 177.020 M160.853 177.100 C 163.364 178.235,165.363 180.187,166.718 182.827 C 168.187 185.688,168.263 190.101,166.891 192.934 C 164.714 197.431,160.801 199.899,155.947 199.837 C 152.448 199.792,150.466 199.035,147.977 196.790 C 142.909 192.222,142.895 183.599,147.947 179.163 C 150.374 177.032,152.558 176.232,155.947 176.232 C 158.037 176.232,159.510 176.493,160.853 177.100 " stroke="none" fill-rule="evenodd"></path></svg>