<svg fill="currentColor" viewBox="0 0 256 256" xmlns="http://www.w3.org/2000/svg"><path d="M26.597 49.003 C 22.460 50.432,18.751 54.089,16.928 58.537 L 16.000 60.800 16.000 128.000 L 16.000 195.200 16.928 197.463 C 18.719 201.833,22.167 205.281,26.537 207.072 L 28.800 208.000 128.000 208.000 L 227.200 208.000 229.463 207.072 C 233.833 205.281,237.281 201.833,239.072 197.463 L 240.000 195.200 240.000 128.000 L 240.000 60.800 239.072 58.537 C 237.249 54.089,233.540 50.432,229.403 49.003 C 227.313 48.280,222.101 48.241,128.000 48.241 C 33.899 48.241,28.687 48.280,26.597 49.003 M65.116 117.249 C 67.891 118.666,69.412 120.174,70.679 122.763 C 72.370 126.220,72.338 129.964,70.587 133.388 C 66.141 142.082,53.854 142.138,49.530 133.484 C 47.639 129.702,47.662 126.148,49.600 122.422 C 51.052 119.631,53.694 117.351,56.473 116.493 C 58.598 115.837,63.126 116.233,65.116 117.249 M132.080 116.769 C 134.900 117.729,138.271 121.100,139.231 123.920 C 140.723 128.297,139.825 132.593,136.689 136.080 C 132.064 141.225,123.936 141.225,119.311 136.080 C 114.809 131.073,114.952 124.352,119.660 119.644 C 123.073 116.231,127.497 115.207,132.080 116.769 M199.331 116.494 C 202.243 117.303,204.893 119.525,206.400 122.422 C 210.635 130.563,204.965 139.933,195.797 139.944 C 188.541 139.953,182.823 132.866,184.309 125.707 C 185.731 118.859,192.624 114.631,199.331 116.494 " stroke="none" fill-rule="evenodd"></path></svg>