<svg fill="currentColor" viewBox="0 0 256 256" xmlns="http://www.w3.org/2000/svg"><path d="M120.637 24.320 C 114.362 24.806,107.787 25.872,102.187 27.311 C 95.110 29.130,92.687 30.141,91.941 31.585 C 90.648 34.085,91.377 35.574,95.079 37.995 C 105.485 44.801,113.461 51.181,121.966 59.501 C 128.719 66.107,134.032 72.069,138.697 78.275 C 140.380 80.515,141.835 82.347,141.929 82.347 C 142.300 82.347,148.056 78.598,152.060 75.749 C 161.621 68.947,174.219 57.213,181.167 48.640 C 184.409 44.639,184.869 43.769,184.540 42.269 C 184.178 40.623,183.094 39.727,178.133 36.973 C 161.079 27.503,139.858 22.833,120.637 24.320 M66.928 43.924 C 65.839 44.650,62.863 47.028,60.314 49.208 C 47.027 60.572,36.666 75.424,30.522 91.912 C 28.034 98.589,28.644 99.830,35.048 101.121 C 60.526 106.258,87.589 104.447,112.582 95.932 C 118.431 93.939,126.601 90.681,127.229 90.091 C 127.859 89.499,119.422 79.632,111.843 72.097 C 100.788 61.106,90.840 53.600,77.752 46.376 C 70.421 42.330,69.596 42.143,66.928 43.924 M196.140 55.787 C 195.327 56.667,192.934 59.403,190.821 61.867 C 182.781 71.245,170.530 82.352,160.427 89.422 C 157.617 91.388,151.298 95.536,150.739 95.781 C 150.691 95.802,152.611 99.755,155.006 104.565 C 157.401 109.375,160.405 116.088,161.682 119.482 C 162.959 122.876,164.024 125.694,164.048 125.744 C 164.073 125.794,165.140 125.555,166.420 125.213 C 170.389 124.153,181.299 122.105,186.667 121.414 C 196.170 120.190,207.178 119.819,216.747 120.402 C 229.207 121.161,229.012 121.171,230.291 119.685 C 231.295 118.517,231.350 118.222,231.118 115.217 C 230.357 105.356,225.493 89.828,219.889 79.366 C 215.649 71.450,206.790 59.332,202.470 55.539 C 200.216 53.559,198.123 53.641,196.140 55.787 M133.120 105.054 C 121.717 110.383,106.018 115.204,92.510 117.526 C 81.496 119.419,78.039 119.680,64.000 119.680 C 49.964 119.680,46.503 119.419,35.502 117.528 C 26.945 116.057,26.062 116.141,24.784 118.539 C 24.011 119.991,23.720 129.506,24.260 135.680 C 26.446 160.668,36.335 182.654,53.227 200.081 C 57.584 204.575,57.899 204.811,59.520 204.792 C 60.459 204.782,61.532 204.539,61.904 204.253 C 62.277 203.967,64.266 201.141,66.325 197.973 C 68.384 194.805,71.049 190.869,72.247 189.227 C 85.184 171.498,102.194 155.858,120.960 144.438 C 126.472 141.083,139.918 134.305,145.155 132.241 L 148.822 130.796 147.421 126.945 C 144.629 119.269,137.330 104.103,136.311 103.858 C 136.081 103.803,134.645 104.341,133.120 105.054 M197.547 136.400 C 192.099 136.809,183.424 138.012,177.920 139.121 C 172.172 140.281,168.533 141.146,168.533 141.354 C 168.533 141.402,169.001 143.745,169.572 146.561 C 173.901 167.891,173.899 191.095,169.567 212.589 C 168.455 218.108,168.560 219.021,170.479 220.531 C 172.538 222.150,174.120 221.641,181.956 216.837 C 191.788 210.810,203.033 200.868,209.565 192.427 C 219.900 179.071,226.760 164.233,229.975 148.280 C 231.335 141.532,231.322 139.691,229.906 138.472 C 228.646 137.387,227.393 137.144,219.947 136.537 C 215.192 136.150,201.958 136.069,197.547 136.400 M146.133 149.270 C 119.935 161.112,98.120 179.432,82.191 202.969 C 77.751 209.529,75.093 214.113,75.093 215.209 C 75.093 217.055,76.396 218.379,80.091 220.287 C 90.771 225.802,102.712 229.495,115.840 231.342 C 124.978 232.627,144.992 231.542,147.627 229.619 C 148.882 228.702,150.315 224.630,152.539 215.654 C 157.699 194.832,158.292 171.660,154.191 151.040 C 153.398 147.052,153.191 146.343,152.825 146.362 C 152.664 146.371,149.653 147.679,146.133 149.270 " stroke="none" fill-rule="evenodd"></path></svg>