<svg fill="currentColor" viewBox="0 0 256 256" xmlns="http://www.w3.org/2000/svg"><path d="M124.525 8.863 C 120.213 11.116,103.981 24.907,94.522 34.354 C 64.501 64.339,46.178 96.565,41.156 128.213 C 40.231 134.040,39.862 148.059,40.492 153.415 C 43.628 180.087,57.723 203.025,80.000 217.713 C 95.554 227.969,116.019 233.263,134.293 231.758 C 177.207 228.225,210.486 196.123,215.508 153.415 C 216.221 147.354,215.774 133.878,214.638 127.188 C 208.757 92.544,188.096 58.737,152.960 26.267 C 147.801 21.500,138.976 14.201,134.298 10.833 C 131.263 8.648,130.599 8.348,128.476 8.208 C 126.714 8.092,125.669 8.266,124.525 8.863 M128.000 121.023 L 128.000 216.020 123.200 215.770 C 101.921 214.661,80.649 202.445,68.514 184.365 C 60.259 172.066,56.266 159.019,56.226 144.213 C 56.187 129.976,59.043 116.954,65.444 102.187 C 75.890 78.088,97.439 51.257,124.160 29.077 C 126.155 27.422,127.835 26.058,127.893 26.047 C 127.952 26.036,128.000 68.775,128.000 121.023 " stroke="none" fill-rule="evenodd"></path></svg>