<svg fill="currentColor" viewBox="0 0 256 256" xmlns="http://www.w3.org/2000/svg"><path d="M44.265 32.461 C 39.776 33.526,35.661 36.951,33.540 41.387 L 32.213 44.160 32.213 128.000 L 32.213 211.840 33.407 214.400 C 34.974 217.760,38.261 221.060,41.555 222.583 L 44.160 223.787 128.000 223.787 L 211.840 223.787 214.445 222.583 C 217.739 221.060,221.026 217.760,222.593 214.400 L 223.787 211.840 223.787 128.000 L 223.787 44.160 222.583 41.555 C 221.060 38.261,217.760 34.974,214.400 33.407 L 211.840 32.213 128.853 32.147 C 81.512 32.109,45.179 32.244,44.265 32.461 M147.413 56.815 C 153.620 60.251,153.381 68.337,146.987 71.298 C 145.414 72.026,143.921 72.088,128.000 72.088 C 112.079 72.088,110.586 72.026,109.013 71.298 C 103.458 68.726,102.350 62.061,106.824 58.133 C 107.685 57.377,108.913 56.643,109.554 56.502 C 110.196 56.361,110.912 56.176,111.147 56.092 C 111.381 56.007,119.349 55.976,128.853 56.022 C 144.055 56.097,146.287 56.192,147.413 56.815 M119.893 152.107 L 119.893 208.213 91.947 208.213 L 64.000 208.213 64.000 152.107 L 64.000 96.000 91.947 96.000 L 119.893 96.000 119.893 152.107 M192.000 152.107 L 192.000 208.213 164.053 208.213 L 136.107 208.213 136.107 152.107 L 136.107 96.000 164.053 96.000 L 192.000 96.000 192.000 152.107 " stroke="none" fill-rule="evenodd"></path></svg>