<svg fill="currentColor" viewBox="0 0 256 256" xmlns="http://www.w3.org/2000/svg"><path d="M27.429 40.726 C 23.372 41.993,19.744 45.005,17.781 48.734 C 15.901 52.306,15.725 54.988,15.871 77.897 C 16.003 98.603,16.032 99.263,16.931 101.463 C 18.716 105.832,22.175 109.290,26.537 111.066 C 28.714 111.951,29.562 111.995,48.839 112.207 L 68.878 112.427 114.973 162.337 C 140.324 189.787,161.708 212.676,162.493 213.201 C 163.277 213.726,164.975 214.550,166.265 215.033 C 168.561 215.892,169.235 215.908,198.332 215.795 L 228.053 215.680 230.475 214.545 C 233.390 213.178,236.362 210.530,237.872 207.952 C 240.010 204.305,240.198 202.066,240.203 180.267 C 240.206 169.237,240.021 159.071,239.793 157.675 C 238.947 152.511,235.522 147.885,230.841 145.586 L 228.480 144.427 208.000 144.213 L 187.520 144.000 141.431 94.080 C 113.318 63.630,94.539 43.621,93.282 42.777 C 89.230 40.058,89.844 40.104,58.056 40.135 C 35.470 40.158,28.837 40.285,27.429 40.726 M196.338 41.022 C 195.257 41.557,194.018 42.651,193.352 43.657 L 192.213 45.376 192.000 64.935 L 191.787 84.494 186.453 79.108 C 180.903 73.503,178.871 72.132,176.093 72.116 C 174.300 72.106,171.766 73.032,170.530 74.150 C 168.176 76.279,167.429 80.645,168.926 83.537 C 169.376 84.408,175.664 91.003,182.899 98.192 C 195.349 110.565,196.163 111.288,198.095 111.691 C 200.588 112.210,202.635 111.795,204.721 110.345 C 205.586 109.745,211.707 103.823,218.323 97.187 C 232.900 82.565,233.540 81.529,231.047 76.564 C 229.735 73.949,227.647 72.472,224.890 72.207 C 221.323 71.864,220.078 72.591,213.897 78.628 L 208.213 84.179 208.213 66.431 C 208.213 55.241,208.042 47.881,207.749 46.515 C 206.624 41.270,201.156 38.637,196.338 41.022 " stroke="none" fill-rule="evenodd"></path></svg>