<svg fill="currentColor" viewBox="0 0 256 256" xmlns="http://www.w3.org/2000/svg"><path d="M125.013 32.287 C 123.517 32.600,43.286 61.784,41.054 62.826 C 38.344 64.092,35.177 67.153,33.921 69.721 L 32.812 71.987 29.526 72.266 C 17.506 73.285,6.922 80.945,2.492 91.830 C 0.242 97.360,-0.000 99.709,0.000 116.053 C 0.000 132.398,0.242 134.747,2.492 140.277 C 4.054 144.114,6.223 147.313,9.455 150.545 C 15.800 156.891,23.548 160.000,33.014 160.000 L 37.050 160.000 39.027 163.716 C 42.132 169.554,45.425 173.846,51.413 179.866 C 62.346 190.854,75.591 199.049,94.461 206.498 C 106.508 211.253,123.087 215.898,127.977 215.887 C 135.816 215.871,160.596 207.712,175.562 200.221 C 187.996 193.996,196.219 188.224,204.587 179.847 C 210.564 173.862,213.857 169.574,216.973 163.716 L 218.950 160.000 222.986 160.000 C 239.235 160.000,252.224 149.575,255.380 134.001 C 256.387 129.033,256.074 99.561,254.975 95.787 C 251.153 82.665,239.767 73.174,226.723 72.237 L 223.259 71.988 222.351 70.120 C 221.196 67.742,218.361 64.658,216.131 63.354 C 215.179 62.797,195.791 55.596,173.046 47.353 C 137.376 34.425,131.306 32.344,128.886 32.214 C 127.343 32.131,125.600 32.164,125.013 32.287 M32.087 115.947 C 32.156 131.376,32.202 144.044,32.187 144.097 C 32.173 144.151,31.030 144.011,29.649 143.786 C 24.516 142.950,19.881 139.514,17.586 134.841 L 16.427 132.480 16.427 116.053 L 16.427 99.627 17.672 97.090 C 19.123 94.135,21.759 91.342,24.386 89.974 C 25.977 89.146,29.775 88.046,31.447 87.929 C 31.840 87.902,31.989 94.419,32.087 115.947 M226.784 88.358 C 231.916 89.307,236.037 92.424,238.328 97.090 L 239.573 99.627 239.573 116.053 L 239.573 132.480 238.414 134.841 C 236.119 139.514,231.484 142.950,226.351 143.786 C 224.970 144.011,223.827 144.151,223.813 144.097 C 223.722 143.761,224.062 87.893,224.155 87.893 C 224.218 87.893,225.401 88.103,226.784 88.358 M170.985 96.656 C 171.849 97.017,172.919 97.641,173.363 98.043 C 175.569 100.037,176.428 104.306,175.210 107.220 C 174.518 108.877,171.953 111.222,170.339 111.674 C 168.816 112.100,87.184 112.100,85.661 111.674 C 84.194 111.263,81.643 109.047,80.832 107.478 C 79.486 104.876,80.406 100.060,82.634 98.046 C 84.924 95.975,83.589 96.035,127.907 96.017 C 164.320 96.002,169.607 96.081,170.985 96.656 M170.985 128.656 C 171.849 129.017,172.919 129.641,173.363 130.043 C 175.569 132.037,176.428 136.306,175.210 139.220 C 174.518 140.877,171.953 143.222,170.339 143.674 C 168.816 144.100,87.184 144.100,85.661 143.674 C 84.194 143.263,81.643 141.047,80.832 139.478 C 79.486 136.876,80.406 132.060,82.634 130.046 C 84.924 127.975,83.589 128.035,127.907 128.017 C 164.320 128.002,169.607 128.081,170.985 128.656 " stroke="none" fill-rule="evenodd"></path></svg>