<svg fill="currentColor" viewBox="0 0 256 256" xmlns="http://www.w3.org/2000/svg"><path d="M164.693 17.049 C 155.620 18.709,146.261 22.657,138.880 27.940 C 134.763 30.886,121.986 42.867,120.684 45.002 C 119.937 46.227,119.896 47.931,119.895 77.973 C 119.894 95.397,120.035 109.653,120.209 109.653 C 120.383 109.653,133.199 96.994,148.689 81.522 C 179.343 50.903,177.537 52.457,181.813 53.030 C 187.184 53.751,190.067 60.075,187.212 64.873 C 186.590 65.918,175.989 76.853,163.654 89.172 C 151.319 101.491,141.227 111.715,141.227 111.892 C 141.227 112.069,160.955 112.202,185.067 112.189 C 217.860 112.171,229.283 112.037,230.400 111.656 C 231.686 111.217,232.140 110.651,233.669 107.579 C 242.135 90.565,242.108 69.843,233.597 52.267 C 228.337 41.405,220.779 32.821,210.773 26.345 C 204.272 22.138,197.878 19.414,190.299 17.623 C 183.951 16.123,171.306 15.839,164.693 17.049 M79.384 85.440 C 69.163 95.589,60.247 104.525,59.571 105.296 C 58.894 106.068,57.838 107.892,57.224 109.349 L 56.107 112.000 55.985 138.723 L 55.863 165.445 56.956 166.745 C 58.314 168.358,60.106 168.810,61.729 167.948 C 62.391 167.596,72.201 158.027,83.529 146.684 L 104.125 126.059 104.009 97.552 L 103.893 69.046 102.696 68.016 C 101.848 67.287,100.985 66.987,99.734 66.987 C 97.978 66.987,97.866 67.088,79.384 85.440 M79.054 173.760 C 46.689 206.136,33.118 219.984,32.655 221.106 C 30.987 225.146,32.988 229.679,37.219 231.446 C 39.113 232.238,40.082 232.268,42.404 231.607 C 43.888 231.185,46.571 228.710,59.746 215.607 L 75.332 200.107 108.617 200.107 C 144.087 200.107,144.329 200.094,148.386 198.019 C 149.799 197.297,166.006 181.194,201.924 144.827 C 212.369 134.251,212.907 133.628,212.907 132.101 C 212.907 130.894,212.596 130.184,211.659 129.247 L 210.412 128.000 167.605 128.000 L 124.799 128.000 79.054 173.760 " stroke="none" fill-rule="evenodd"></path></svg>