<svg fill="currentColor" viewBox="0 0 256 256" xmlns="http://www.w3.org/2000/svg"><path d="M83.627 24.313 C 74.925 25.189,66.241 29.362,59.745 35.791 C 46.190 49.205,44.229 70.650,55.089 86.695 C 56.092 88.175,58.420 90.881,60.265 92.708 L 63.618 96.029 60.264 99.321 C 53.346 106.111,49.401 114.105,48.241 123.681 C 46.679 136.574,52.426 150.706,62.520 158.795 L 65.165 160.915 61.219 164.831 C 59.049 166.984,56.368 170.153,55.262 171.871 C 45.190 187.523,45.743 207.455,56.657 222.128 C 72.982 244.073,104.763 246.109,123.607 226.416 C 129.132 220.641,132.593 214.474,134.727 206.594 L 135.850 202.453 136.007 181.440 C 136.093 169.883,136.243 160.427,136.340 160.427 C 136.437 160.427,137.589 161.112,138.899 161.951 C 142.012 163.942,146.180 165.696,150.643 166.891 C 155.765 168.264,164.235 168.264,169.357 166.891 C 177.334 164.754,183.023 161.462,188.587 155.763 C 192.959 151.284,195.860 146.603,197.790 140.912 C 200.111 134.069,200.602 128.401,199.448 121.763 C 197.901 112.858,194.544 106.302,188.262 99.914 L 184.310 95.896 187.070 93.367 C 195.708 85.452,200.828 72.863,199.951 61.698 C 198.550 43.860,186.689 29.668,169.368 25.105 C 165.774 24.158,165.611 24.154,126.293 24.073 C 104.587 24.027,85.387 24.135,83.627 24.313 M168.226 41.489 C 175.221 44.267,179.768 48.832,182.523 55.841 C 183.510 58.351,183.634 59.262,183.634 64.000 C 183.634 68.767,183.513 69.640,182.498 72.226 C 180.204 78.069,176.113 82.694,170.955 85.278 C 166.104 87.708,164.599 87.893,149.670 87.893 L 136.107 87.893 136.107 63.970 L 136.107 40.047 150.720 40.194 L 165.333 40.340 168.226 41.489 M168.159 105.516 C 175.085 108.142,179.753 112.784,182.498 119.774 C 183.513 122.360,183.634 123.233,183.634 128.000 C 183.634 132.767,183.513 133.640,182.498 136.226 C 178.693 145.916,170.109 151.893,160.000 151.893 C 149.891 151.893,141.307 145.916,137.502 136.226 C 136.487 133.640,136.366 132.767,136.366 128.000 C 136.366 123.262,136.490 122.351,137.477 119.841 C 140.646 111.779,146.974 106.273,155.093 104.514 C 158.301 103.818,165.047 104.336,168.159 105.516 " stroke="none" fill-rule="evenodd"></path></svg>