<svg fill="currentColor" viewBox="0 0 256 256" xmlns="http://www.w3.org/2000/svg"><path d="M52.926 24.355 C 48.250 25.282,43.642 28.869,41.482 33.264 L 40.320 35.627 40.209 127.253 C 40.101 217.437,40.112 218.917,40.939 221.268 C 42.449 225.566,45.675 228.935,50.043 230.776 L 52.693 231.893 128.000 231.893 L 203.307 231.893 205.957 230.776 C 210.321 228.937,213.551 225.566,215.057 221.279 C 215.874 218.957,215.893 217.345,215.893 152.572 C 215.893 107.470,215.751 85.858,215.447 85.041 C 214.935 83.662,157.471 25.922,155.520 24.826 C 154.342 24.164,150.285 24.102,104.533 24.042 C 77.187 24.007,53.972 24.148,52.926 24.355 M174.293 66.133 L 196.050 87.893 173.972 87.893 L 151.893 87.893 151.893 66.133 C 151.893 54.165,152.038 44.373,152.215 44.373 C 152.392 44.373,162.327 54.165,174.293 66.133 M131.930 113.169 C 132.936 113.734,134.092 114.910,134.762 116.049 L 135.893 117.973 136.017 141.188 L 136.142 164.403 141.564 159.056 C 144.547 156.115,147.659 153.360,148.480 152.934 C 150.310 151.985,153.779 151.948,155.531 152.859 C 158.105 154.198,160.009 157.286,159.991 160.093 C 159.971 163.018,158.586 164.703,145.431 177.798 C 132.336 190.833,130.903 192.000,128.000 192.000 C 125.097 192.000,123.664 190.833,110.569 177.798 C 97.414 164.703,96.029 163.018,96.009 160.093 C 95.991 157.286,97.895 154.198,100.469 152.859 C 102.221 151.948,105.690 151.985,107.520 152.934 C 108.341 153.360,111.453 156.115,114.436 159.056 L 119.858 164.403 119.983 141.188 L 120.107 117.973 121.164 116.126 C 123.301 112.394,128.171 111.056,131.930 113.169 " stroke="none" fill-rule="evenodd"></path></svg>