<svg fill="currentColor" viewBox="0 0 256 256" xmlns="http://www.w3.org/2000/svg"><path d="M52.926 24.355 C 48.250 25.282,43.642 28.869,41.482 33.264 L 40.320 35.627 40.205 78.675 L 40.091 121.724 41.004 123.610 C 42.354 126.399,44.678 127.787,48.000 127.787 C 51.314 127.787,53.647 126.398,54.988 123.627 C 55.891 121.762,55.893 121.662,55.893 80.932 L 55.893 40.107 99.840 40.107 L 143.787 40.107 143.797 63.893 C 143.804 78.689,143.974 88.403,144.248 89.591 C 144.827 92.104,146.472 94.198,148.644 95.184 C 150.294 95.933,151.902 95.982,175.253 95.991 L 200.107 96.000 200.107 155.924 L 200.107 215.849 182.933 215.978 C 164.338 216.117,164.531 216.094,162.260 218.525 C 161.009 219.865,159.998 222.367,160.009 224.093 C 160.031 227.312,162.691 230.754,165.886 231.697 C 166.954 232.012,173.283 232.120,185.387 232.029 L 203.307 231.893 205.957 230.776 C 210.321 228.937,213.551 225.566,215.057 221.279 C 215.874 218.957,215.893 217.345,215.893 152.572 C 215.893 107.470,215.751 85.858,215.447 85.041 C 214.935 83.662,157.471 25.922,155.520 24.826 C 154.342 24.164,150.285 24.102,104.533 24.042 C 77.187 24.007,53.972 24.148,52.926 24.355 M188.160 79.891 C 188.160 80.068,181.824 80.213,174.080 80.213 L 160.000 80.213 160.000 65.816 L 160.000 51.418 174.080 65.493 C 181.824 73.235,188.160 79.714,188.160 79.891 M93.013 128.673 C 92.116 129.057,87.007 133.810,80.213 140.581 L 68.907 151.849 57.387 151.978 C 47.614 152.087,45.673 152.214,44.587 152.815 C 42.895 153.752,41.123 155.658,40.560 157.148 C 40.261 157.939,40.107 165.768,40.107 180.095 C 40.107 204.060,40.053 203.540,42.783 205.937 C 45.001 207.885,47.312 208.213,58.784 208.213 L 68.886 208.213 80.417 219.698 C 90.544 229.785,92.176 231.243,93.828 231.679 C 98.131 232.816,102.505 230.391,103.661 226.227 C 104.270 224.036,104.270 136.071,103.661 133.880 C 102.418 129.403,97.231 126.867,93.013 128.673 M125.653 144.854 C 122.017 146.140,119.742 150.312,120.698 153.941 C 121.385 156.550,122.263 157.703,124.976 159.564 C 132.034 164.404,135.864 171.620,135.851 180.053 C 135.838 188.446,131.990 195.698,125.013 200.475 C 122.284 202.344,120.930 204.158,120.540 206.469 C 119.624 211.887,125.140 217.013,130.241 215.485 C 135.817 213.814,144.172 205.427,147.805 197.853 C 152.400 188.275,153.156 177.102,149.875 167.276 C 147.232 159.361,142.311 152.542,135.710 147.649 C 131.044 144.190,129.078 143.643,125.653 144.854 " stroke="none" fill-rule="evenodd"></path></svg>