<svg fill="currentColor" viewBox="0 0 256 256" xmlns="http://www.w3.org/2000/svg"><path d="M84.926 24.354 C 80.248 25.284,75.641 28.870,73.482 33.264 C 72.331 35.604,72.319 35.723,72.186 45.720 L 72.052 55.813 62.372 55.983 C 53.747 56.134,52.447 56.251,50.431 57.057 C 45.963 58.843,42.455 62.416,40.943 66.721 C 40.125 69.047,40.107 70.715,40.107 144.000 C 40.107 217.285,40.125 218.953,40.943 221.279 C 42.449 225.566,45.679 228.937,50.043 230.776 L 52.693 231.893 110.720 232.008 C 149.623 232.085,169.450 231.976,170.880 231.679 C 175.930 230.630,180.281 227.287,182.518 222.736 C 183.669 220.396,183.681 220.277,183.814 210.275 L 183.949 200.176 193.628 200.029 C 202.927 199.889,203.411 199.839,205.957 198.771 C 210.316 196.942,213.550 193.569,215.057 189.279 C 215.872 186.963,215.893 185.401,215.893 128.637 C 215.893 77.101,215.817 70.189,215.235 68.786 C 214.410 66.798,174.775 26.936,171.947 25.251 L 170.027 24.107 128.427 24.042 C 105.547 24.006,85.971 24.147,84.926 24.354 M182.505 57.705 L 200.107 75.303 200.107 129.598 L 200.107 183.893 192.000 183.893 L 183.893 183.893 183.893 143.133 C 183.893 107.371,183.813 102.178,183.235 100.786 C 182.410 98.798,142.775 58.936,139.947 57.251 L 138.027 56.107 112.960 55.984 L 87.893 55.861 87.893 47.984 L 87.893 40.107 126.398 40.107 L 164.903 40.107 182.505 57.705 M138.959 144.667 C 140.593 145.285,142.489 147.126,143.199 148.786 C 144.432 151.669,143.574 155.958,141.363 157.957 C 139.110 159.994,139.029 160.000,112.000 160.000 C 84.971 160.000,84.890 159.994,82.637 157.957 C 80.420 155.952,79.482 151.117,80.815 148.565 C 81.469 147.314,83.334 145.460,84.693 144.710 C 85.866 144.063,137.253 144.023,138.959 144.667 M138.959 176.667 C 140.593 177.285,142.489 179.126,143.199 180.786 C 144.432 183.669,143.574 187.958,141.363 189.957 C 139.110 191.994,139.029 192.000,112.000 192.000 C 84.971 192.000,84.890 191.994,82.637 189.957 C 80.420 187.952,79.482 183.117,80.815 180.565 C 81.469 179.314,83.334 177.460,84.693 176.710 C 85.866 176.063,137.253 176.023,138.959 176.667 " stroke="none" fill-rule="evenodd"></path></svg>