<svg fill="currentColor" viewBox="0 0 256 256" xmlns="http://www.w3.org/2000/svg"><path d="M52.926 24.355 C 48.250 25.282,43.642 28.869,41.482 33.264 L 40.320 35.627 40.209 127.253 C 40.101 217.437,40.112 218.917,40.939 221.268 C 42.449 225.566,45.675 228.935,50.043 230.776 L 52.693 231.893 128.000 231.893 L 203.307 231.893 205.957 230.776 C 210.321 228.937,213.551 225.566,215.057 221.279 C 215.874 218.957,215.893 217.345,215.893 152.572 C 215.893 107.470,215.751 85.858,215.447 85.041 C 214.935 83.662,157.471 25.922,155.520 24.826 C 154.342 24.164,150.285 24.102,104.533 24.042 C 77.187 24.007,53.972 24.148,52.926 24.355 M174.293 66.133 L 196.050 87.893 173.972 87.893 L 151.893 87.893 151.893 66.133 C 151.893 54.165,152.038 44.373,152.215 44.373 C 152.392 44.373,162.327 54.165,174.293 66.133 M108.095 121.312 C 111.367 123.143,112.826 128.115,111.098 131.541 C 110.719 132.292,106.113 137.230,100.862 142.514 L 91.315 152.122 100.954 161.714 C 106.255 166.990,110.862 171.924,111.190 172.680 C 111.898 174.309,111.967 177.387,111.333 179.066 C 109.831 183.040,104.953 184.968,100.786 183.233 C 98.641 182.340,74.116 157.901,72.948 155.492 C 71.882 153.293,71.874 150.601,72.928 148.570 C 73.380 147.699,79.668 141.095,86.902 133.895 C 96.491 124.349,100.400 120.728,101.333 120.524 C 102.037 120.371,102.805 120.175,103.040 120.089 C 103.883 119.781,106.485 120.410,108.095 121.312 M155.733 120.982 C 157.339 121.827,182.427 147.206,183.212 148.779 C 184.135 150.629,184.069 153.394,183.052 155.492 C 181.884 157.901,157.359 182.340,155.214 183.233 C 151.047 184.968,146.169 183.040,144.667 179.066 C 144.033 177.387,144.102 174.309,144.810 172.680 C 145.138 171.924,149.745 166.990,155.046 161.714 L 164.685 152.122 155.138 142.514 C 149.887 137.230,145.281 132.292,144.902 131.541 C 143.897 129.548,144.014 126.124,145.157 124.090 C 147.184 120.484,152.063 119.050,155.733 120.982 " stroke="none" fill-rule="evenodd"></path></svg>