<svg fill="currentColor" viewBox="0 0 256 256" xmlns="http://www.w3.org/2000/svg"><path d="M190.080 24.193 C 186.997 24.645,34.982 65.001,33.047 65.881 C 30.331 67.116,28.170 69.004,26.505 71.599 C 24.847 74.184,23.722 78.493,24.029 81.086 C 24.158 82.168,26.003 89.482,28.131 97.340 L 32.000 111.628 32.000 156.889 C 32.000 200.999,32.022 202.219,32.855 204.862 C 34.413 209.799,38.444 213.811,43.323 215.280 C 46.388 216.202,209.612 216.202,212.677 215.280 C 217.587 213.802,221.611 209.778,223.155 204.800 C 223.998 202.081,224.012 201.114,223.901 155.702 L 223.787 109.377 222.641 107.647 C 221.952 106.605,220.753 105.557,219.627 105.012 L 217.757 104.107 160.221 104.107 C 128.576 104.107,102.764 104.028,102.862 103.932 C 102.960 103.835,126.080 97.686,154.240 90.267 C 182.400 82.848,206.981 76.310,208.865 75.738 C 213.489 74.334,215.893 71.689,215.893 68.005 C 215.893 66.417,207.838 36.104,206.679 33.330 C 205.301 30.031,201.522 26.539,197.760 25.088 C 195.853 24.352,192.029 23.907,190.080 24.193 M150.187 62.702 C 157.579 66.970,163.774 70.605,163.954 70.780 C 164.134 70.954,151.092 74.576,134.972 78.827 L 105.663 86.558 91.875 78.585 C 84.292 74.201,78.086 70.506,78.084 70.374 C 78.080 70.113,136.185 54.668,136.533 54.837 C 136.651 54.894,142.795 58.433,150.187 62.702 M207.787 160.000 L 207.787 200.107 128.000 200.107 L 48.213 200.107 48.213 160.000 L 48.213 119.893 128.000 119.893 L 207.787 119.893 207.787 160.000 " stroke="none" fill-rule="evenodd"></path></svg>