<svg fill="currentColor" viewBox="0 0 256 256" xmlns="http://www.w3.org/2000/svg"><path d="M122.880 24.182 C 96.755 25.644,73.112 36.177,54.586 54.609 C 23.101 85.934,15.071 133.521,34.532 173.440 C 36.134 176.725,37.828 179.758,38.296 180.178 C 38.764 180.599,39.817 181.052,40.635 181.185 C 41.871 181.385,42.342 181.219,43.416 180.206 C 45.625 178.123,50.063 166.482,52.503 156.373 C 54.842 146.685,55.226 143.478,56.304 124.587 C 56.746 116.852,57.575 112.028,59.533 105.813 C 62.832 95.341,71.959 80.711,76.459 78.681 C 80.195 76.997,84.465 78.067,86.545 81.209 C 87.491 82.639,87.680 83.401,87.680 85.794 C 87.680 88.323,87.528 88.862,86.400 90.346 C 85.696 91.271,84.111 93.354,82.877 94.974 C 78.780 100.356,75.019 108.695,73.178 116.480 C 72.818 118.005,72.333 123.189,72.102 128.000 C 71.207 146.597,69.624 156.495,65.483 169.393 C 62.763 177.868,60.796 182.351,53.849 195.918 C 52.299 198.946,52.694 199.883,57.314 204.148 C 59.466 206.133,62.738 208.917,64.585 210.332 C 68.389 213.248,70.004 213.607,71.842 211.947 C 73.624 210.337,77.127 203.834,83.908 189.553 C 85.111 187.020,85.710 186.268,87.246 185.369 C 89.255 184.191,92.295 183.890,94.317 184.669 C 97.440 185.872,99.734 189.594,99.308 192.767 C 98.950 195.440,93.158 207.849,88.527 215.865 C 86.144 219.991,85.904 221.801,87.533 223.370 C 89.803 225.557,107.715 230.747,113.727 230.961 C 116.611 231.063,117.146 230.569,120.074 225.103 C 132.374 202.147,140.364 175.314,143.129 147.678 C 143.645 142.520,143.980 140.802,144.692 139.649 C 147.712 134.762,154.681 134.676,158.077 139.483 C 159.281 141.188,159.348 141.500,159.265 144.992 C 159.157 149.507,157.823 160.193,156.327 168.533 C 153.208 185.912,147.055 205.344,139.344 222.167 C 137.192 226.862,137.101 227.330,138.007 229.081 C 139.110 231.215,140.449 231.429,146.257 230.399 C 152.024 229.375,161.993 226.603,163.532 225.594 C 165.837 224.084,174.016 200.027,177.744 183.793 C 182.861 161.509,185.347 132.436,183.210 119.862 C 181.256 108.367,175.997 97.800,168.055 89.410 C 160.352 81.272,150.911 75.890,139.733 73.265 C 134.238 71.975,121.925 71.976,116.093 73.268 C 112.571 74.048,111.824 74.091,109.996 73.616 C 103.370 71.898,102.054 63.823,107.697 59.519 C 110.745 57.194,124.344 55.538,133.711 56.351 C 143.784 57.226,151.303 59.340,160.213 63.802 C 167.590 67.496,172.838 71.292,178.773 77.227 C 188.721 87.174,195.145 98.808,198.165 112.345 C 199.712 119.276,200.125 126.262,199.671 137.811 C 198.805 159.856,195.789 179.536,190.259 199.231 C 188.816 204.372,189.006 206.039,191.161 207.154 C 193.311 208.266,194.344 207.955,197.429 205.272 C 206.544 197.341,215.435 185.611,221.122 174.013 C 226.381 163.288,229.500 152.854,231.306 139.947 C 232.155 133.882,231.939 120.221,230.884 113.280 C 227.449 90.670,217.526 70.768,201.828 55.002 C 193.167 46.302,184.236 39.846,173.867 34.789 C 161.079 28.551,149.357 25.409,134.827 24.325 C 129.277 23.911,128.003 23.896,122.880 24.182 M135.893 97.052 C 140.357 98.203,145.898 101.228,149.283 104.362 C 152.979 107.784,153.600 108.882,153.600 112.000 C 153.600 116.648,150.425 119.893,145.879 119.893 C 143.511 119.893,141.840 119.074,138.881 116.463 C 134.997 113.036,133.355 112.427,128.000 112.427 C 123.885 112.427,123.317 112.529,121.033 113.685 C 117.744 115.351,114.280 119.105,113.056 122.332 C 112.265 124.418,112.062 126.169,111.744 133.648 C 111.257 145.145,109.691 158.584,108.348 162.804 C 107.529 165.376,103.624 168.119,100.814 168.097 C 97.550 168.072,93.810 164.734,93.236 161.335 C 93.086 160.444,93.257 158.004,93.616 155.911 C 94.866 148.641,95.592 141.249,95.987 131.772 C 96.426 121.250,96.754 119.520,99.325 114.173 C 103.751 104.968,112.589 98.256,122.699 96.423 C 125.563 95.903,132.773 96.247,135.893 97.052 " stroke="none" fill-rule="evenodd"></path></svg>