<svg fill="currentColor" viewBox="0 0 256 256" xmlns="http://www.w3.org/2000/svg"><path d="M41.173 32.663 C 39.531 33.021,36.171 34.304,33.707 35.513 C 29.851 37.406,28.722 38.221,25.600 41.368 C 23.605 43.379,21.327 46.123,20.537 47.467 C 18.527 50.889,16.678 56.522,16.199 60.684 C 15.640 65.547,15.666 142.163,16.229 149.165 C 17.605 166.265,24.373 181.485,35.992 193.606 C 46.498 204.565,58.598 211.230,74.291 214.701 L 78.720 215.680 128.000 215.680 L 177.280 215.680 181.760 214.696 C 197.573 211.222,209.771 204.402,220.557 193.005 C 231.660 181.274,238.411 165.864,239.767 149.154 C 240.323 142.316,240.357 66.153,239.808 60.929 C 238.578 49.242,231.722 39.779,220.845 34.754 C 212.507 30.901,202.085 31.190,193.516 35.511 C 186.295 39.152,180.314 45.926,177.891 53.207 L 176.997 55.893 128.022 55.893 L 79.048 55.893 77.880 52.691 C 74.525 43.493,66.871 36.397,56.960 33.296 C 52.979 32.050,45.377 31.745,41.173 32.663 M177.707 105.491 C 188.199 109.089,196.042 117.372,198.906 127.878 C 199.692 130.760,199.812 132.359,199.812 139.947 C 199.812 149.823,199.298 152.699,196.558 158.138 C 193.239 164.730,188.723 169.240,182.107 172.571 C 174.977 176.160,177.499 176.000,128.000 176.000 C 78.501 176.000,81.023 176.160,73.893 172.571 C 67.277 169.240,62.761 164.730,59.442 158.138 C 56.702 152.699,56.188 149.823,56.188 139.947 C 56.188 132.359,56.308 130.760,57.094 127.878 C 60.344 115.957,70.470 106.561,82.243 104.541 C 83.356 104.350,104.523 104.222,129.280 104.257 L 174.293 104.320 177.707 105.491 M88.068 128.752 C 84.114 130.168,81.495 133.085,80.424 137.266 C 79.354 141.444,80.434 145.287,83.557 148.410 C 85.712 150.566,88.022 151.598,91.161 151.810 C 96.160 152.148,100.459 149.726,102.583 145.376 C 104.732 140.973,104.321 136.409,101.436 132.659 C 98.446 128.771,92.701 127.092,88.068 128.752 M160.995 128.409 C 157.058 129.347,153.692 132.697,152.473 136.891 C 150.783 142.703,154.312 149.364,160.099 151.286 C 169.077 154.268,177.887 146.288,175.576 137.266 C 173.884 130.661,167.590 126.838,160.995 128.409 " stroke="none" fill-rule="evenodd"></path></svg>