<svg fill="currentColor" viewBox="0 0 256 256" xmlns="http://www.w3.org/2000/svg"><path d="M134.135 17.276 C 133.167 17.856,132.091 18.766,131.744 19.298 C 131.397 19.831,126.157 33.899,120.100 50.560 C 114.043 67.221,108.974 80.989,108.835 81.155 C 108.695 81.320,103.015 76.075,96.211 69.499 C 89.407 62.923,83.269 57.240,82.571 56.871 C 80.828 55.949,77.375 55.982,75.385 56.940 C 73.523 57.837,70.808 61.239,64.986 69.973 C 48.369 94.901,40.107 119.418,40.107 143.795 C 40.107 154.296,41.363 162.128,44.624 171.947 C 54.447 201.531,79.617 223.815,110.427 230.206 C 142.135 236.783,175.609 224.831,196.174 199.590 C 206.657 186.723,213.366 170.864,215.446 154.038 C 216.087 148.852,215.997 138.056,215.260 131.755 C 212.080 104.572,198.260 76.112,175.106 49.067 C 166.321 38.806,146.036 19.177,141.943 16.978 C 139.854 15.855,136.276 15.992,134.135 17.276 " stroke="none" fill-rule="evenodd"></path></svg>