<svg fill="currentColor" viewBox="0 0 256 256" xmlns="http://www.w3.org/2000/svg"><path d="M171.520 24.148 C 136.132 25.972,109.736 36.291,89.773 56.105 C 80.076 65.729,73.190 75.770,67.458 88.643 C 57.608 110.765,53.127 139.371,54.562 170.978 C 54.845 177.202,54.974 182.395,54.850 182.519 C 54.507 182.862,38.672 180.257,26.578 177.868 C 14.499 175.483,13.711 175.491,10.811 178.038 C 7.159 181.244,7.145 186.530,10.780 189.721 C 11.616 190.456,12.941 191.259,13.723 191.508 C 17.413 192.678,42.691 197.240,52.170 198.446 C 54.464 198.738,56.497 199.183,56.688 199.435 C 56.880 199.687,57.276 201.813,57.570 204.160 C 59.017 215.748,63.845 241.275,65.011 243.507 C 67.665 248.589,74.228 249.442,77.961 245.191 C 80.546 242.246,80.566 241.510,78.358 230.550 C 76.582 221.737,74.376 209.053,73.603 203.200 C 73.322 201.075,73.356 200.960,74.264 200.960 C 74.791 200.960,79.868 201.171,85.547 201.430 C 96.899 201.946,111.225 201.499,121.600 200.306 C 177.146 193.918,212.443 166.957,226.319 120.320 C 232.595 99.226,233.708 72.072,229.349 46.344 C 228.177 39.426,227.113 36.231,225.158 33.763 C 221.698 29.397,218.589 28.090,207.360 26.286 C 197.994 24.780,180.037 23.709,171.520 24.148 M197.897 41.162 C 204.185 41.931,211.951 43.275,212.338 43.662 C 212.738 44.063,214.054 51.772,214.826 58.240 C 215.218 61.525,215.642 68.437,215.768 73.600 C 216.198 91.228,214.288 105.696,209.657 119.893 C 207.688 125.928,202.195 137.529,199.364 141.632 L 197.760 143.957 194.987 143.846 C 190.452 143.665,183.209 142.536,178.059 141.208 C 151.298 134.308,129.498 115.354,118.773 89.662 C 115.148 80.978,112.213 67.861,112.213 60.341 L 112.213 58.005 114.880 56.284 C 119.519 53.291,130.135 48.327,136.107 46.357 C 145.062 43.404,154.676 41.493,165.333 40.547 C 171.724 39.980,191.243 40.349,197.897 41.162 M152.068 64.752 C 148.114 66.168,145.495 69.085,144.424 73.266 C 143.354 77.444,144.434 81.287,147.557 84.410 C 149.712 86.566,152.022 87.598,155.161 87.810 C 160.160 88.148,164.459 85.726,166.583 81.376 C 168.732 76.973,168.321 72.409,165.436 68.659 C 162.446 64.771,156.701 63.092,152.068 64.752 " stroke="none" fill-rule="evenodd"></path></svg>