<svg fill="currentColor" viewBox="0 0 256 256" xmlns="http://www.w3.org/2000/svg"><path d="M72.960 24.349 C 60.549 25.503,48.913 30.610,37.030 40.121 C 31.362 44.657,32.000 33.051,32.002 131.655 C 32.004 187.789,32.152 217.491,32.436 218.512 C 33.084 220.844,36.101 223.432,38.611 223.809 C 42.944 224.458,46.844 221.810,47.746 217.604 C 48.050 216.185,48.213 207.773,48.213 193.483 L 48.213 171.542 51.307 169.360 C 55.767 166.213,63.100 162.744,68.053 161.438 C 73.878 159.902,82.914 159.808,89.493 161.214 C 98.398 163.118,104.040 165.357,122.667 174.377 C 147.219 186.266,156.079 189.548,168.617 191.394 C 174.408 192.247,183.581 192.045,188.800 190.949 C 196.941 189.240,204.785 185.877,212.129 180.949 C 218.587 176.613,222.468 173.197,223.303 171.112 C 223.937 169.528,224.000 163.789,224.000 107.859 L 224.000 46.349 223.095 44.480 C 221.467 41.116,217.199 39.328,213.619 40.509 C 212.782 40.786,210.888 41.983,209.409 43.170 C 193.875 55.640,179.318 58.755,161.079 53.513 C 154.680 51.673,148.103 48.878,133.333 41.721 C 111.747 31.262,103.906 28.117,93.760 25.851 C 89.667 24.936,79.465 23.762,77.271 23.953 C 76.895 23.986,74.955 24.164,72.960 24.349 M100.779 44.545 C 106.890 46.780,110.092 48.221,124.587 55.264 C 131.979 58.856,140.391 62.784,143.280 63.994 C 148.618 66.229,158.232 69.547,159.369 69.547 C 159.910 69.547,160.009 73.310,160.104 97.600 L 160.213 125.653 164.693 126.651 C 170.831 128.017,182.390 128.188,187.520 126.989 C 193.894 125.498,201.796 122.270,205.867 119.492 C 206.571 119.012,207.291 118.618,207.467 118.616 C 207.643 118.615,207.787 128.946,207.787 141.575 L 207.787 164.537 204.693 166.675 C 191.142 176.043,178.366 178.103,161.600 173.621 L 160.000 173.194 160.000 149.371 L 160.000 125.548 155.840 124.174 C 148.901 121.884,142.930 119.281,128.427 112.226 C 112.776 104.614,108.641 102.793,101.212 100.246 L 96.000 98.459 96.000 70.776 C 96.000 53.569,96.153 43.093,96.405 43.093 C 96.629 43.093,98.597 43.746,100.779 44.545 M89.029 97.031 C 90.945 97.373,93.297 97.865,94.256 98.123 L 96.000 98.593 96.000 122.499 C 96.000 145.625,95.974 146.396,95.205 146.152 C 89.601 144.373,76.023 143.685,69.071 144.828 C 63.578 145.731,57.193 147.819,52.098 150.377 L 48.213 152.329 48.213 129.062 L 48.213 105.795 50.240 104.494 C 55.607 101.049,63.827 97.851,69.760 96.900 C 71.403 96.637,73.227 96.339,73.813 96.238 C 75.796 95.898,85.523 96.404,89.029 97.031 " stroke="none" fill-rule="evenodd"></path></svg>