<svg fill="currentColor" viewBox="0 0 256 256" xmlns="http://www.w3.org/2000/svg"><path d="M34.521 49.014 C 30.123 50.748,27.383 53.382,25.254 57.926 L 24.107 60.373 24.107 131.840 L 24.107 203.307 25.224 205.957 C 27.063 210.321,30.434 213.551,34.721 215.057 C 37.053 215.877,38.826 215.893,128.000 215.893 C 217.174 215.893,218.947 215.877,221.279 215.057 C 225.566 213.551,228.937 210.321,230.776 205.957 L 231.893 203.307 231.893 144.000 L 231.893 84.693 230.867 82.144 C 229.561 78.901,226.312 75.426,222.933 73.659 L 220.373 72.320 175.605 72.204 L 130.836 72.088 116.606 61.432 C 108.780 55.571,101.374 50.247,100.148 49.601 L 97.920 48.427 67.200 48.334 C 38.433 48.248,36.355 48.291,34.521 49.014 M103.825 71.898 C 109.612 76.241,114.347 79.887,114.347 80.000 C 114.347 80.113,109.612 83.759,103.825 88.102 L 93.303 96.000 66.705 96.000 L 40.107 96.000 40.107 80.000 L 40.107 64.000 66.705 64.000 L 93.303 64.000 103.825 71.898 M155.644 145.021 C 156.514 145.466,157.555 146.193,157.957 146.637 C 158.999 147.789,160.000 150.365,160.000 151.893 C 160.000 154.968,157.238 158.807,154.472 159.575 C 153.559 159.829,143.072 159.995,128.000 159.995 C 112.928 159.995,102.441 159.829,101.528 159.575 C 98.718 158.795,95.988 154.949,96.009 151.800 C 96.021 150.135,97.263 147.264,98.393 146.293 C 100.843 144.188,99.982 144.249,127.910 144.230 C 152.748 144.214,154.140 144.254,155.644 145.021 " stroke="none" fill-rule="evenodd"></path></svg>