<svg fill="currentColor" viewBox="0 0 256 256" xmlns="http://www.w3.org/2000/svg"><path d="M34.521 49.014 C 30.123 50.748,27.383 53.382,25.254 57.926 L 24.107 60.373 23.993 130.560 C 23.916 177.800,24.024 201.444,24.321 202.880 C 25.369 207.929,28.713 212.281,33.264 214.518 L 35.627 215.680 78.675 215.795 L 121.724 215.909 123.610 214.996 C 126.399 213.646,127.787 211.322,127.787 208.000 C 127.787 204.686,126.398 202.353,123.627 201.012 C 121.762 200.109,121.662 200.107,80.932 200.107 L 40.107 200.107 40.107 132.053 L 40.107 64.000 66.702 64.000 L 93.296 64.000 107.555 74.719 C 115.397 80.614,122.869 85.942,124.160 86.559 L 126.507 87.680 171.200 87.794 L 215.893 87.909 215.903 104.648 C 215.911 120.009,215.977 121.527,216.700 123.093 C 217.653 125.159,219.004 126.459,221.112 127.340 C 225.329 129.102,230.369 126.613,231.697 122.114 C 232.012 121.046,232.119 114.721,232.027 102.613 C 231.892 84.837,231.882 84.673,230.865 82.144 C 229.561 78.901,226.314 75.427,222.933 73.659 L 220.373 72.320 175.605 72.204 L 130.836 72.088 116.606 61.432 C 108.780 55.571,101.374 50.247,100.148 49.601 L 97.920 48.427 67.200 48.334 C 38.433 48.248,36.355 48.291,34.521 49.014 M186.667 144.463 C 177.954 146.544,171.832 150.146,167.131 155.957 C 164.668 159.002,161.992 164.281,160.972 168.107 C 159.811 172.460,159.930 180.643,161.212 184.728 C 162.566 189.038,164.625 192.970,167.166 196.097 L 169.282 198.702 166.353 200.936 C 159.679 206.025,154.021 214.554,152.272 222.161 C 151.337 226.223,153.806 230.560,157.663 231.631 C 160.039 232.290,223.961 232.290,226.337 231.631 C 230.194 230.560,232.663 226.223,231.728 222.161 C 229.979 214.554,224.321 206.025,217.647 200.936 L 214.718 198.702 216.834 196.097 C 219.375 192.970,221.434 189.038,222.788 184.728 C 224.070 180.643,224.189 172.460,223.028 168.107 C 220.190 157.461,211.874 148.805,201.209 145.396 C 198.677 144.586,188.803 143.953,186.667 144.463 " stroke="none" fill-rule="evenodd"></path></svg>