<svg fill="currentColor" viewBox="0 0 256 256" xmlns="http://www.w3.org/2000/svg"><path d="M36.053 40.501 C 30.324 41.937,25.583 47.036,24.322 53.120 C 24.024 54.557,23.916 79.542,23.993 129.707 L 24.107 204.160 25.333 206.815 C 26.773 209.932,30.112 213.309,33.156 214.728 L 35.200 215.680 78.828 215.795 C 121.797 215.907,122.482 215.896,124.137 215.052 C 125.061 214.580,126.356 213.488,127.015 212.624 C 128.070 211.241,128.213 210.689,128.213 208.000 C 128.213 205.311,128.070 204.759,127.015 203.376 C 126.356 202.512,125.068 201.423,124.152 200.956 C 122.524 200.125,121.582 200.107,81.297 200.107 L 40.107 200.107 40.107 144.000 L 40.107 87.893 128.000 87.893 L 215.893 87.893 215.903 104.640 C 215.911 120.009,215.977 121.527,216.700 123.093 C 217.653 125.159,219.004 126.459,221.112 127.340 C 225.329 129.102,230.369 126.613,231.697 122.114 C 232.012 121.046,232.119 114.721,232.027 102.613 C 231.892 84.837,231.882 84.673,230.865 82.144 C 229.561 78.901,226.314 75.427,222.933 73.659 L 220.373 72.320 176.014 72.204 L 131.656 72.087 117.134 57.646 C 104.945 45.524,102.168 42.973,99.840 41.762 L 97.067 40.320 67.200 40.250 C 50.773 40.212,36.757 40.325,36.053 40.501 M100.480 64.000 L 108.578 72.107 74.342 72.107 L 40.107 72.107 40.107 64.000 L 40.107 55.893 66.244 55.893 L 92.382 55.893 100.480 64.000 M186.667 144.463 C 177.954 146.544,171.832 150.146,167.131 155.957 C 164.668 159.002,161.992 164.281,160.972 168.107 C 159.811 172.460,159.930 180.643,161.212 184.728 C 162.566 189.038,164.625 192.970,167.166 196.097 L 169.282 198.702 166.353 200.936 C 159.679 206.025,154.021 214.554,152.272 222.161 C 151.337 226.223,153.806 230.560,157.663 231.631 C 160.039 232.290,223.961 232.290,226.337 231.631 C 230.194 230.560,232.663 226.223,231.728 222.161 C 229.979 214.554,224.321 206.025,217.647 200.936 L 214.718 198.702 216.834 196.097 C 219.375 192.970,221.434 189.038,222.788 184.728 C 224.070 180.643,224.189 172.460,223.028 168.107 C 220.190 157.461,211.874 148.805,201.209 145.396 C 198.677 144.586,188.803 143.953,186.667 144.463 " stroke="none" fill-rule="evenodd"></path></svg>