<svg fill="currentColor" viewBox="0 0 256 256" xmlns="http://www.w3.org/2000/svg"><path d="M36.053 40.501 C 30.324 41.937,25.583 47.036,24.322 53.120 C 24.024 54.557,23.916 79.542,23.993 129.707 L 24.107 204.160 25.250 206.600 C 26.763 209.828,29.837 213.045,32.799 214.501 L 35.200 215.680 127.440 215.790 C 219.438 215.901,219.687 215.899,222.012 215.029 C 226.832 213.225,230.187 209.498,231.459 204.533 C 232.045 202.247,232.108 195.164,232.007 143.321 L 231.893 84.693 230.867 82.144 C 229.561 78.901,226.312 75.426,222.933 73.659 L 220.373 72.320 176.014 72.204 L 131.656 72.087 117.134 57.646 C 104.945 45.524,102.168 42.973,99.840 41.762 L 97.067 40.320 67.200 40.250 C 50.773 40.212,36.757 40.325,36.053 40.501 M100.480 64.000 L 108.578 72.107 74.342 72.107 L 40.107 72.107 40.107 64.000 L 40.107 55.893 66.244 55.893 L 92.382 55.893 100.480 64.000 M155.627 137.012 C 158.398 138.353,159.787 140.686,159.787 144.000 C 159.787 147.314,158.398 149.647,155.627 150.988 C 153.785 151.880,153.376 151.893,128.000 151.893 C 102.624 151.893,102.215 151.880,100.373 150.988 C 97.602 149.647,96.213 147.314,96.213 144.000 C 96.213 140.711,97.590 138.383,100.338 137.022 C 102.166 136.117,102.468 136.107,127.972 136.107 C 153.376 136.107,153.785 136.120,155.627 137.012 " stroke="none" fill-rule="evenodd"></path></svg>