<svg fill="currentColor" viewBox="0 0 256 256" xmlns="http://www.w3.org/2000/svg"><path d="M34.521 49.014 C 30.123 50.748,27.383 53.382,25.254 57.926 L 24.107 60.373 23.993 130.560 C 23.916 177.800,24.024 201.444,24.321 202.880 C 25.369 207.929,28.713 212.281,33.264 214.518 L 35.627 215.680 78.675 215.795 L 121.724 215.909 123.610 214.996 C 126.399 213.646,127.787 211.322,127.787 208.000 C 127.787 204.686,126.398 202.353,123.627 201.012 C 121.762 200.109,121.662 200.107,80.932 200.107 L 40.107 200.107 40.107 132.053 L 40.107 64.000 66.702 64.000 L 93.296 64.000 107.555 74.719 C 115.397 80.614,122.869 85.942,124.160 86.559 L 126.507 87.680 171.200 87.794 L 215.893 87.909 215.903 104.648 C 215.911 120.009,215.977 121.527,216.700 123.093 C 217.653 125.159,219.004 126.459,221.112 127.340 C 225.329 129.102,230.369 126.613,231.697 122.114 C 232.012 121.046,232.119 114.721,232.027 102.613 C 231.892 84.837,231.882 84.673,230.865 82.144 C 229.561 78.901,226.314 75.427,222.933 73.659 L 220.373 72.320 175.605 72.204 L 130.836 72.088 116.606 61.432 C 108.780 55.571,101.374 50.247,100.148 49.601 L 97.920 48.427 67.200 48.334 C 38.433 48.248,36.355 48.291,34.521 49.014 M181.657 120.481 C 177.768 121.916,178.142 121.296,170.678 138.667 C 167.805 145.355,165.330 150.956,165.180 151.113 C 165.030 151.271,158.283 151.897,150.187 152.503 C 142.091 153.110,134.755 153.802,133.886 154.041 C 130.678 154.923,128.019 158.398,128.019 161.707 C 128.019 165.145,128.910 166.127,141.392 176.429 C 147.872 181.778,153.176 186.365,153.178 186.624 C 153.181 186.882,151.624 193.484,149.719 201.295 C 145.692 217.802,145.670 218.210,148.622 221.279 C 150.620 223.356,153.286 224.314,155.770 223.848 C 156.593 223.694,163.299 220.022,170.674 215.689 C 182.799 208.565,184.164 207.865,184.947 208.371 C 185.424 208.678,191.474 212.257,198.393 216.324 C 208.667 222.363,211.333 223.752,212.942 223.907 C 216.775 224.275,220.334 221.712,221.391 217.821 C 221.891 215.982,221.484 213.990,216.697 194.826 C 215.532 190.162,214.634 186.302,214.703 186.249 C 217.384 184.152,235.794 168.829,236.940 167.740 C 238.835 165.939,239.365 165.069,239.833 162.997 C 240.631 159.457,237.887 154.981,234.369 154.085 C 233.477 153.857,226.027 153.154,217.813 152.521 C 209.600 151.888,202.850 151.344,202.813 151.312 C 202.776 151.280,200.150 145.210,196.977 137.824 C 193.804 130.438,190.706 123.767,190.094 123.000 C 188.057 120.447,184.570 119.406,181.657 120.481 " stroke="none" fill-rule="evenodd"></path></svg>