<svg fill="currentColor" viewBox="0 0 256 256" xmlns="http://www.w3.org/2000/svg"><path d="M34.521 49.014 C 30.123 50.748,27.383 53.382,25.254 57.926 L 24.107 60.373 24.107 131.840 L 24.107 203.307 25.224 205.957 C 27.063 210.321,30.434 213.551,34.721 215.057 C 37.053 215.877,38.826 215.893,128.000 215.893 C 217.174 215.893,218.947 215.877,221.279 215.057 C 225.566 213.551,228.937 210.321,230.776 205.957 L 231.893 203.307 231.893 144.000 L 231.893 84.693 230.867 82.144 C 229.561 78.901,226.312 75.426,222.933 73.659 L 220.373 72.320 175.605 72.204 L 130.836 72.088 116.606 61.432 C 108.780 55.571,101.374 50.247,100.148 49.601 L 97.920 48.427 67.200 48.334 C 38.433 48.248,36.355 48.291,34.521 49.014 M103.825 71.898 C 109.612 76.241,114.347 79.887,114.347 80.000 C 114.347 80.113,109.612 83.759,103.825 88.102 L 93.303 96.000 66.705 96.000 L 40.107 96.000 40.107 80.000 L 40.107 64.000 66.705 64.000 L 93.303 64.000 103.825 71.898 M132.321 121.396 C 133.172 121.946,134.324 123.129,134.881 124.025 C 135.852 125.586,135.899 126.035,136.036 134.933 L 136.179 144.213 145.120 144.213 C 153.051 144.213,154.239 144.305,155.644 145.021 C 156.514 145.466,157.555 146.193,157.957 146.637 C 158.999 147.789,160.000 150.365,160.000 151.893 C 160.000 154.968,157.238 158.807,154.472 159.575 C 153.641 159.806,149.184 159.996,144.570 159.998 L 136.180 160.000 136.033 169.067 C 135.874 178.912,135.749 179.489,133.265 181.840 C 130.311 184.634,125.689 184.634,122.735 181.840 C 120.251 179.489,120.126 178.912,119.967 169.067 L 119.820 160.000 111.430 159.998 C 106.816 159.996,102.359 159.806,101.528 159.575 C 98.762 158.807,96.000 154.968,96.000 151.893 C 96.000 150.365,97.001 147.789,98.043 146.637 C 98.445 146.193,99.486 145.466,100.356 145.021 C 101.761 144.305,102.949 144.213,110.880 144.213 L 119.821 144.213 119.964 134.933 C 120.100 126.097,120.154 125.577,121.097 124.061 C 123.582 120.064,128.464 118.904,132.321 121.396 " stroke="none" fill-rule="evenodd"></path></svg>