<svg fill="currentColor" viewBox="0 0 256 256" xmlns="http://www.w3.org/2000/svg"><path d="M44.587 32.709 C 42.677 33.716,41.574 34.853,40.804 36.610 C 40.424 37.477,38.270 49.227,36.018 62.720 C 31.414 90.298,31.350 91.220,33.458 99.530 C 37.858 116.877,51.007 130.005,68.513 134.531 L 72.107 135.460 72.107 180.555 C 72.107 211.380,72.250 226.031,72.560 226.852 C 73.562 229.504,77.234 232.088,80.000 232.088 C 82.766 232.088,86.438 229.504,87.440 226.852 C 87.750 226.031,87.893 211.380,87.893 180.555 L 87.893 135.460 91.487 134.531 C 108.993 130.005,122.142 116.877,126.542 99.530 C 128.651 91.218,128.587 90.299,123.978 62.720 C 121.724 49.227,119.664 37.651,119.401 36.996 C 117.084 31.231,109.352 30.244,105.551 35.227 C 103.584 37.805,103.685 39.036,107.914 64.306 C 110.044 77.028,111.787 87.540,111.787 87.666 C 111.787 87.791,106.411 87.893,99.840 87.893 L 87.893 87.893 87.893 63.068 C 87.893 38.642,87.879 38.213,86.988 36.373 C 85.647 33.602,83.314 32.213,80.000 32.213 C 76.686 32.213,74.353 33.602,73.012 36.373 C 72.121 38.213,72.107 38.642,72.107 63.068 L 72.107 87.893 60.160 87.893 C 53.589 87.893,48.213 87.791,48.213 87.666 C 48.213 87.540,49.956 77.028,52.086 64.306 C 56.315 39.036,56.416 37.805,54.449 35.227 C 52.194 32.271,47.629 31.105,44.587 32.709 M201.600 34.277 C 174.169 48.086,155.791 80.338,147.636 128.978 C 145.637 140.904,144.317 154.367,144.133 164.693 C 144.032 170.390,144.215 171.128,146.292 173.371 C 148.831 176.114,147.512 175.988,175.040 176.123 L 200.107 176.246 200.107 200.948 C 200.107 217.365,200.259 226.054,200.560 226.852 C 201.562 229.504,205.234 232.088,208.000 232.088 C 210.766 232.088,214.438 229.504,215.440 226.852 C 215.755 226.017,215.893 197.116,215.893 131.947 L 215.893 38.243 214.988 36.373 C 213.811 33.941,211.540 32.442,208.580 32.144 C 206.445 31.929,205.981 32.071,201.600 34.277 " stroke="none" fill-rule="evenodd"></path></svg>