<svg fill="currentColor" viewBox="0 0 256 256" xmlns="http://www.w3.org/2000/svg"><path d="M44.265 32.461 C 39.776 33.526,35.661 36.951,33.540 41.387 L 32.213 44.160 32.213 128.000 L 32.213 211.840 33.407 214.400 C 34.974 217.760,38.261 221.060,41.555 222.583 L 44.160 223.787 128.000 223.787 L 211.840 223.787 214.445 222.583 C 217.739 221.060,221.026 217.760,222.593 214.400 L 223.787 211.840 223.787 128.000 L 223.787 44.160 222.583 41.555 C 221.060 38.261,217.760 34.974,214.400 33.407 L 211.840 32.213 128.853 32.147 C 81.512 32.109,45.179 32.244,44.265 32.461 M179.413 56.816 C 182.284 58.404,183.893 60.983,183.893 64.000 C 183.893 66.142,183.262 67.762,181.840 69.265 C 179.431 71.810,179.095 71.875,167.040 72.107 L 155.947 72.320 153.266 73.558 C 149.887 75.118,146.349 78.803,145.149 82.012 C 144.464 83.844,137.813 117.714,137.813 119.371 C 137.813 119.709,142.452 119.884,153.920 119.976 L 170.027 120.107 171.882 121.169 C 175.807 123.416,177.018 128.451,174.564 132.321 C 172.282 135.919,172.539 135.876,152.298 136.013 L 134.570 136.133 132.092 149.453 C 127.817 172.428,126.768 177.405,125.632 180.104 C 121.848 189.094,114.018 196.051,104.522 198.861 C 101.702 199.695,100.079 199.827,90.480 199.999 C 78.483 200.214,77.316 200.055,74.809 197.854 C 71.414 194.873,71.126 189.942,74.160 186.735 C 76.548 184.212,76.921 184.140,88.960 183.873 C 102.374 183.576,102.926 183.435,107.132 179.235 C 109.175 177.196,110.184 175.784,110.819 174.080 C 111.529 172.177,118.187 138.324,118.187 136.620 C 118.187 136.270,113.732 136.102,102.080 136.015 C 83.666 135.876,83.694 135.881,81.436 132.321 C 78.988 128.461,80.151 123.530,84.049 121.238 L 85.973 120.107 103.700 119.979 L 121.428 119.851 125.160 99.933 C 127.213 88.978,129.346 78.713,129.899 77.122 C 133.001 68.203,141.647 60.017,150.746 57.388 C 154.717 56.240,158.316 55.967,168.533 56.040 C 176.587 56.097,178.339 56.222,179.413 56.816 " stroke="none" fill-rule="evenodd"></path></svg>