<svg fill="currentColor" viewBox="0 0 256 256" xmlns="http://www.w3.org/2000/svg"><path d="M36.053 40.505 C 30.344 41.916,25.583 47.035,24.322 53.120 C 24.024 54.557,23.916 79.407,23.993 129.280 L 24.107 203.307 25.224 205.957 C 27.063 210.321,30.434 213.551,34.721 215.057 C 37.053 215.877,38.826 215.893,128.000 215.893 C 217.174 215.893,218.947 215.877,221.279 215.057 C 225.566 213.551,228.937 210.321,230.776 205.957 L 231.893 203.307 231.893 128.000 L 231.893 52.693 230.867 50.144 C 229.561 46.901,226.312 43.426,222.933 41.659 L 220.373 40.320 128.853 40.255 C 78.517 40.219,36.757 40.331,36.053 40.505 M211.066 80.668 C 212.706 81.290,214.104 82.664,215.128 84.661 C 216.986 88.284,215.256 93.286,211.520 95.095 L 209.651 96.000 128.000 96.000 L 46.349 96.000 44.480 95.095 C 40.744 93.286,39.014 88.284,40.872 84.661 C 41.863 82.728,43.276 81.300,44.800 80.693 C 46.339 80.079,209.448 80.055,211.066 80.668 M179.413 120.815 C 185.620 124.251,185.381 132.337,178.987 135.298 C 177.357 136.052,175.068 136.088,128.000 136.088 C 80.932 136.088,78.643 136.052,77.013 135.298 C 71.458 132.726,70.350 126.061,74.824 122.133 C 75.685 121.377,76.913 120.643,77.554 120.502 C 78.196 120.361,78.912 120.179,79.147 120.098 C 79.381 120.018,101.749 119.987,128.853 120.029 C 173.889 120.100,178.244 120.168,179.413 120.815 M147.520 160.905 C 152.591 163.360,153.351 170.488,148.938 174.202 C 146.819 175.985,144.439 176.213,128.000 176.213 C 111.561 176.213,109.181 175.985,107.062 174.202 C 102.664 170.501,103.402 163.412,108.445 160.916 C 110.245 160.025,110.757 160.001,127.972 160.000 C 145.115 160.000,145.707 160.027,147.520 160.905 " stroke="none" fill-rule="evenodd"></path></svg>