<svg fill="currentColor" viewBox="0 0 256 256" xmlns="http://www.w3.org/2000/svg"><path d="M77.077 24.329 C 72.631 25.101,71.280 26.195,56.612 40.894 C 40.304 57.237,40.320 57.214,40.320 64.009 C 40.320 70.051,41.364 71.914,49.037 79.556 L 55.017 85.512 48.915 91.716 C 44.325 96.383,42.504 98.554,41.567 100.480 L 40.320 103.040 40.320 161.707 L 40.320 220.373 41.482 222.736 C 43.719 227.287,48.071 230.632,53.120 231.678 C 54.557 231.976,79.407 232.084,129.280 232.007 L 203.307 231.893 205.957 230.776 C 210.321 228.937,213.551 225.566,215.057 221.279 C 215.877 218.947,215.893 217.174,215.893 128.000 C 215.893 38.826,215.877 37.053,215.057 34.721 C 213.550 30.430,210.072 26.880,205.569 25.034 C 203.310 24.108,203.253 24.106,163.413 23.981 C 135.846 23.894,122.678 24.000,120.794 24.324 C 116.329 25.091,114.267 26.449,107.614 33.002 L 101.521 39.003 95.454 33.003 C 92.117 29.703,88.715 26.615,87.893 26.140 C 84.908 24.414,80.670 23.705,77.077 24.329 M78.293 62.293 L 66.352 74.241 61.232 69.121 L 56.112 64.001 68.053 52.053 L 79.995 40.106 85.115 45.226 L 90.235 50.346 78.293 62.293 M179.413 56.815 C 185.620 60.251,185.381 68.337,178.987 71.298 C 177.399 72.033,175.804 72.089,156.040 72.097 C 133.164 72.107,133.066 72.099,130.616 69.846 C 129.242 68.583,128.019 65.829,128.019 64.000 C 128.019 60.872,130.768 57.090,133.473 56.496 C 134.100 56.358,134.805 56.177,135.040 56.093 C 135.275 56.010,145.067 55.979,156.800 56.024 C 175.783 56.098,178.274 56.185,179.413 56.815 M83.413 112.885 C 84.117 113.252,94.437 120.858,106.347 129.787 L 128.000 146.023 149.653 129.787 C 161.563 120.858,171.883 113.252,172.587 112.885 C 174.293 111.996,177.779 112.034,179.596 112.961 C 183.400 114.900,184.948 119.578,183.071 123.456 C 182.249 125.155,179.938 127.020,161.901 140.550 C 150.765 148.903,141.661 155.880,141.671 156.055 C 141.681 156.230,150.173 162.709,160.543 170.453 C 170.912 178.197,180.149 185.205,181.070 186.027 C 185.644 190.108,184.611 196.694,178.987 199.298 C 176.995 200.220,175.614 200.299,173.625 199.606 C 172.835 199.331,162.247 191.651,150.095 182.540 L 128.000 165.975 105.905 182.540 C 93.753 191.651,83.165 199.331,82.375 199.606 C 80.386 200.299,79.005 200.220,77.013 199.298 C 72.850 197.370,70.996 192.918,72.681 188.893 C 73.510 186.915,74.630 186.008,95.457 170.453 C 105.827 162.709,114.319 156.230,114.329 156.055 C 114.339 155.880,105.235 148.903,94.099 140.550 C 76.062 127.020,73.751 125.155,72.929 123.456 C 71.052 119.578,72.600 114.900,76.404 112.961 C 78.221 112.034,81.707 111.996,83.413 112.885 " stroke="none" fill-rule="evenodd"></path></svg>