<svg fill="currentColor" viewBox="0 0 256 256" xmlns="http://www.w3.org/2000/svg"><path d="M113.707 48.913 C 73.888 54.564,40.752 79.950,24.954 116.907 C 22.677 122.233,20.053 130.326,20.053 132.022 C 20.053 132.968,20.424 133.930,21.082 134.696 L 22.111 135.893 36.336 136.107 C 50.321 136.316,50.587 136.337,52.164 137.317 C 54.320 138.658,55.896 141.414,55.884 143.824 C 55.874 145.908,54.752 148.725,53.485 149.850 C 51.303 151.788,50.326 151.893,34.553 151.893 C 18.456 151.893,17.775 151.978,16.550 154.138 C 15.842 155.387,15.507 181.674,16.148 185.787 C 17.070 191.715,20.252 196.046,25.514 198.539 L 28.373 199.893 58.125 199.893 L 87.877 199.893 89.120 198.613 C 89.803 197.909,106.245 175.445,125.657 148.693 C 145.070 121.941,161.541 99.432,162.261 98.672 C 164.985 95.798,169.133 95.313,172.428 97.484 C 175.418 99.453,176.678 104.334,175.024 107.536 C 174.604 108.349,160.387 128.082,143.429 151.388 C 126.472 174.694,112.415 194.243,112.191 194.831 C 111.618 196.340,112.100 197.802,113.582 199.049 L 114.857 200.122 171.242 200.008 L 227.627 199.893 230.486 198.539 C 235.620 196.107,238.883 191.772,239.802 186.164 C 240.364 182.733,240.328 157.229,239.758 155.178 C 239.455 154.088,238.861 153.283,237.947 152.726 C 236.668 151.946,235.680 151.896,221.440 151.886 C 207.620 151.876,206.141 151.805,204.553 151.084 C 198.748 148.448,198.703 139.808,204.480 137.012 C 206.262 136.149,206.969 136.107,219.635 136.107 C 233.942 136.107,234.682 136.006,235.765 133.911 C 236.583 132.330,236.549 131.904,235.259 127.635 C 226.347 98.138,205.274 73.285,177.707 59.760 C 166.844 54.431,158.330 51.652,146.846 49.686 C 139.311 48.397,138.998 48.396,137.517 49.669 L 136.320 50.698 136.107 66.416 C 135.874 83.572,135.908 83.339,133.265 85.840 C 131.762 87.262,130.142 87.893,128.000 87.893 C 125.858 87.893,124.238 87.262,122.735 85.840 C 120.093 83.339,120.126 83.567,119.893 66.464 C 119.688 51.360,119.648 50.764,118.801 49.917 C 117.882 48.999,115.880 48.605,113.707 48.913 " stroke="none" fill-rule="evenodd"></path></svg>