<svg fill="currentColor" viewBox="0 0 256 256" xmlns="http://www.w3.org/2000/svg"><path d="M123.520 8.679 C 122.581 8.989,121.141 9.583,120.320 9.998 C 118.351 10.993,51.488 77.757,50.093 80.120 C 48.529 82.770,47.710 87.146,48.206 90.195 C 49.113 95.769,52.392 100.116,57.514 102.534 C 60.025 103.719,60.816 103.884,64.000 103.884 C 67.209 103.884,67.971 103.722,70.613 102.483 C 73.454 101.150,75.249 99.432,107.395 67.287 C 144.023 30.662,142.738 32.106,143.804 26.342 C 144.345 23.413,143.483 18.720,141.910 16.036 C 140.443 13.532,137.333 10.790,134.475 9.481 C 131.584 8.156,126.275 7.767,123.520 8.679 M147.593 49.472 C 146.556 50.165,133.093 63.365,117.675 78.806 C 88.706 107.820,87.912 108.705,87.912 112.000 C 87.912 114.560,89.467 116.747,96.136 123.566 L 102.768 130.347 64.898 168.320 C 29.168 204.147,26.960 206.448,25.832 209.028 C 19.869 222.678,33.310 236.137,46.952 230.176 C 49.559 229.037,51.748 226.936,87.688 191.075 L 125.669 153.178 132.061 159.587 C 138.636 166.179,141.348 168.116,143.977 168.097 C 147.322 168.073,148.142 167.338,177.407 138.114 C 192.965 122.578,206.091 109.231,206.578 108.454 C 207.979 106.216,208.279 104.197,207.575 101.760 C 206.997 99.758,205.418 98.089,181.880 74.601 C 168.086 60.837,156.186 49.269,155.435 48.894 C 154.684 48.520,153.036 48.213,151.774 48.213 C 149.944 48.213,149.098 48.468,147.593 49.472 M226.521 112.996 C 225.443 113.431,223.715 114.378,222.681 115.100 C 221.646 115.823,205.904 131.357,187.697 149.620 C 156.560 180.855,154.522 182.991,153.364 185.600 C 152.325 187.941,152.131 188.939,152.124 192.000 C 152.117 195.194,152.277 195.968,153.466 198.486 C 156.618 205.163,163.379 208.847,170.415 207.722 C 175.760 206.868,174.771 207.753,211.499 170.947 C 250.256 132.108,247.680 135.167,247.680 128.000 C 247.680 124.502,247.524 123.615,246.545 121.525 C 245.023 118.279,242.486 115.622,239.254 113.890 C 236.849 112.601,236.188 112.448,232.533 112.333 C 229.356 112.233,228.056 112.376,226.521 112.996 " stroke="none" fill-rule="evenodd"></path></svg>