<svg viewBox="0 0 256 256" xmlns="http://www.w3.org/2000/svg"><path d="M123.679 17.436 C 120.765 19.284,120.135 20.930,119.967 27.131 L 119.827 32.288 114.787 32.995 C 107.674 33.994,99.105 36.248,92.785 38.783 C 89.809 39.977,87.221 40.858,87.032 40.742 C 86.844 40.626,85.763 38.879,84.630 36.860 C 82.278 32.670,80.563 30.962,78.018 30.277 C 73.673 29.107,69.517 31.623,68.294 36.164 C 67.644 38.579,68.171 40.414,70.841 45.037 C 72.006 47.056,72.960 48.861,72.960 49.049 C 72.960 49.236,71.554 50.448,69.836 51.741 C 63.840 56.254,55.882 64.222,51.520 70.080 C 50.341 71.664,49.217 72.960,49.023 72.960 C 48.828 72.960,46.767 71.893,44.442 70.589 C 40.907 68.607,39.863 68.216,38.071 68.202 C 32.084 68.156,28.248 73.836,30.669 79.164 C 31.630 81.281,33.168 82.607,37.315 84.897 C 39.074 85.867,40.608 86.816,40.725 87.004 C 40.841 87.193,40.160 89.246,39.212 91.567 C 35.967 99.507,33.421 109.332,32.631 116.963 L 32.338 119.793 27.134 119.967 C 22.465 120.122,21.733 120.255,20.027 121.255 C 16.126 123.541,14.951 128.298,17.337 132.141 C 19.234 135.195,20.923 135.865,27.154 136.034 L 32.334 136.174 32.629 139.020 C 33.421 146.669,35.964 156.487,39.212 164.433 C 40.160 166.754,40.842 168.806,40.727 168.993 C 40.611 169.179,38.836 170.294,36.781 171.470 C 32.592 173.867,31.483 174.877,30.527 177.165 C 29.151 180.460,30.259 184.216,33.245 186.379 C 36.637 188.836,39.115 188.579,45.037 185.159 C 47.056 183.994,48.858 183.040,49.042 183.040 C 49.226 183.040,50.341 184.336,51.520 185.920 C 55.878 191.773,64.227 200.122,70.080 204.480 C 71.664 205.659,72.960 206.774,72.960 206.958 C 72.960 207.142,72.006 208.944,70.841 210.963 C 68.174 215.581,67.645 217.419,68.290 219.840 C 68.948 222.315,70.446 224.166,72.656 225.236 C 74.924 226.334,76.894 226.363,79.164 225.331 C 81.281 224.370,82.607 222.832,84.897 218.685 C 85.867 216.926,86.816 215.392,87.004 215.275 C 87.193 215.159,89.246 215.840,91.567 216.788 C 99.513 220.036,109.331 222.579,116.980 223.371 L 119.826 223.666 119.966 228.846 C 120.135 235.077,120.805 236.766,123.859 238.663 C 127.736 241.071,132.925 239.707,135.001 235.733 C 135.732 234.335,135.919 233.090,136.034 228.846 L 136.174 223.666 139.020 223.371 C 146.673 222.579,156.430 220.046,164.426 216.777 C 166.743 215.830,168.796 215.152,168.988 215.271 C 169.181 215.390,170.133 216.926,171.103 218.685 C 173.393 222.832,174.719 224.370,176.836 225.331 C 179.106 226.363,181.076 226.334,183.344 225.236 C 185.554 224.166,187.052 222.315,187.710 219.840 C 188.355 217.419,187.826 215.581,185.159 210.963 C 183.994 208.944,183.040 207.139,183.040 206.951 C 183.040 206.764,184.528 205.502,186.347 204.147 C 190.607 200.975,200.975 190.607,204.147 186.347 C 205.502 184.528,206.764 183.040,206.951 183.040 C 207.139 183.040,208.944 183.994,210.963 185.159 C 212.981 186.325,215.428 187.493,216.401 187.755 C 221.039 189.004,226.119 184.809,226.131 179.720 C 226.134 178.370,224.997 175.782,223.878 174.591 C 223.365 174.044,221.256 172.622,219.194 171.432 C 217.131 170.241,215.358 169.129,215.253 168.960 C 215.149 168.791,215.840 166.754,216.788 164.433 C 220.036 156.487,222.579 146.669,223.371 139.020 L 223.666 136.174 228.846 136.034 C 235.077 135.865,236.766 135.195,238.663 132.141 C 241.064 128.275,239.829 123.409,235.882 121.186 C 234.264 120.275,233.364 120.119,228.844 119.967 L 223.662 119.793 223.369 116.963 C 222.579 109.328,220.044 99.564,216.777 91.574 C 215.830 89.257,215.152 87.204,215.271 87.012 C 215.390 86.819,216.926 85.867,218.685 84.897 C 222.832 82.607,224.370 81.281,225.331 79.164 C 227.752 73.836,223.916 68.156,217.929 68.202 C 216.137 68.216,215.093 68.607,211.558 70.589 C 209.233 71.893,207.171 72.960,206.975 72.960 C 206.779 72.960,205.731 71.760,204.646 70.293 C 200.335 64.469,191.510 55.654,185.707 51.376 C 184.240 50.294,183.040 49.252,183.040 49.058 C 183.040 48.865,183.994 47.056,185.159 45.037 C 187.829 40.414,188.356 38.579,187.706 36.164 C 186.483 31.623,182.327 29.107,177.982 30.277 C 175.437 30.962,173.722 32.670,171.370 36.860 C 170.237 38.879,169.156 40.626,168.968 40.742 C 168.779 40.858,166.191 39.977,163.215 38.783 C 156.895 36.248,148.326 33.994,141.213 32.995 L 136.173 32.288 136.033 27.131 C 135.865 20.930,135.235 19.284,132.321 17.436 C 129.609 15.716,126.391 15.716,123.679 17.436 M136.464 72.778 C 154.227 75.415,169.971 86.875,178.038 103.040 C 179.891 106.753,181.923 112.465,182.592 115.840 C 182.871 117.248,183.194 118.736,183.311 119.147 C 183.512 119.852,182.110 119.892,158.002 119.876 L 132.480 119.859 119.946 98.084 C 112.960 85.946,107.578 76.153,107.786 75.956 C 108.428 75.349,114.835 73.510,118.187 72.971 C 119.947 72.688,121.675 72.400,122.027 72.331 C 124.037 71.937,132.583 72.202,136.464 72.778 M106.077 106.027 C 112.837 117.760,118.369 127.653,118.369 128.010 C 118.369 128.603,94.269 170.791,93.413 171.696 C 93.198 171.924,91.217 170.241,88.644 167.643 C 80.570 159.492,75.559 150.255,73.103 138.994 C 72.021 134.034,72.021 121.966,73.103 117.006 C 75.566 105.714,80.602 96.442,88.655 88.372 C 91.114 85.908,93.232 84.110,93.429 84.318 C 93.625 84.525,99.316 94.293,106.077 106.027 M183.311 136.853 C 183.194 137.264,182.871 138.752,182.592 140.160 C 181.923 143.536,179.891 149.247,178.038 152.960 C 174.218 160.612,167.159 168.893,160.427 173.619 C 146.256 183.569,127.835 186.552,111.714 181.509 C 109.759 180.898,107.993 180.239,107.789 180.046 C 107.584 179.852,113.026 169.948,119.949 157.918 L 132.480 136.142 158.002 136.124 C 182.110 136.108,183.512 136.148,183.311 136.853 " stroke="none" fill-rule="evenodd" fill="black"></path></svg>