<svg fill="currentColor" viewBox="0 0 256 256" xmlns="http://www.w3.org/2000/svg"><path d="M52.926 24.356 C 48.252 25.281,43.642 28.869,41.482 33.264 L 40.320 35.627 40.209 127.253 C 40.101 217.437,40.112 218.917,40.939 221.268 C 42.449 225.566,45.675 228.935,50.043 230.776 L 52.693 231.893 128.000 231.893 L 203.307 231.893 205.957 230.776 C 210.321 228.937,213.551 225.566,215.057 221.279 C 215.877 218.947,215.893 217.174,215.893 128.000 C 215.893 38.826,215.877 37.053,215.057 34.721 C 213.550 30.430,210.072 26.880,205.569 25.034 L 203.307 24.107 129.067 24.043 C 87.649 24.008,53.986 24.146,52.926 24.356 M138.238 57.013 C 150.273 59.099,162.400 66.077,170.404 75.520 C 179.795 86.600,184.270 99.388,183.768 113.707 C 183.377 124.884,180.503 133.955,174.443 143.147 C 171.597 147.463,165.483 153.848,161.101 157.078 C 154.909 161.643,145.994 165.594,139.008 166.871 L 136.150 167.393 136.022 184.710 L 135.893 202.027 134.831 203.882 C 132.161 208.546,126.018 209.282,122.399 205.371 C 120.066 202.851,120.116 203.280,119.978 184.747 L 119.849 167.467 115.649 166.548 C 94.414 161.901,77.967 145.102,73.106 123.093 C 72.081 118.454,71.886 108.577,72.717 103.467 C 75.651 85.438,86.399 70.501,102.271 62.392 C 113.799 56.503,125.341 54.777,138.238 57.013 M121.455 72.526 C 108.989 74.788,97.878 82.943,92.377 93.867 C 83.105 112.280,89.067 134.220,106.419 145.542 C 116.969 152.425,129.937 153.790,142.216 149.309 C 150.897 146.141,159.507 138.385,163.740 129.920 C 173.622 110.158,165.650 86.309,145.827 76.329 C 140.272 73.532,135.932 72.476,129.280 72.302 C 126.112 72.219,122.591 72.319,121.455 72.526 " stroke="none" fill-rule="evenodd"></path></svg>