<svg fill="currentColor" viewBox="0 0 256 256" xmlns="http://www.w3.org/2000/svg"><path d="M52.926 24.356 C 48.252 25.281,43.642 28.869,41.482 33.264 L 40.320 35.627 40.209 127.253 C 40.101 217.437,40.112 218.917,40.939 221.268 C 42.449 225.566,45.675 228.935,50.043 230.776 L 52.693 231.893 128.000 231.893 L 203.307 231.893 205.957 230.776 C 210.321 228.937,213.551 225.566,215.057 221.279 C 215.877 218.947,215.893 217.174,215.893 128.000 C 215.893 38.826,215.877 37.053,215.057 34.721 C 213.550 30.430,210.072 26.880,205.569 25.034 L 203.307 24.107 129.067 24.043 C 87.649 24.008,53.986 24.146,52.926 24.356 M137.387 48.874 C 157.323 52.105,174.607 66.884,181.071 86.229 C 183.143 92.430,183.677 96.097,183.671 104.107 C 183.666 112.350,183.105 115.941,180.808 122.453 C 174.292 140.924,158.179 155.048,139.307 158.832 L 136.320 159.431 136.204 167.822 L 136.089 176.213 149.180 176.213 C 162.232 176.213,162.277 176.216,164.020 177.238 C 168.395 179.802,169.152 186.307,165.475 189.740 C 163.199 191.865,162.196 192.000,148.744 192.000 L 136.180 192.000 136.033 201.067 C 135.874 210.912,135.749 211.489,133.265 213.840 C 131.762 215.262,130.142 215.893,128.000 215.893 C 125.858 215.893,124.238 215.262,122.735 213.840 C 120.251 211.489,120.126 210.912,119.967 201.067 L 119.820 192.000 107.256 192.000 C 93.804 192.000,92.801 191.865,90.525 189.740 C 86.848 186.307,87.605 179.802,91.980 177.238 C 93.723 176.216,93.768 176.213,106.820 176.213 L 119.911 176.213 119.796 167.822 L 119.680 159.431 116.693 158.832 C 104.599 156.407,92.510 149.117,84.902 139.659 C 78.853 132.140,75.126 124.402,73.123 115.200 C 72.017 110.117,72.003 98.139,73.099 93.013 C 77.345 73.139,91.301 57.312,110.139 51.009 C 112.616 50.180,116.256 49.231,118.228 48.901 C 123.127 48.080,132.408 48.067,137.387 48.874 M123.093 64.273 C 119.328 64.869,114.365 66.296,111.576 67.585 C 98.927 73.429,90.255 85.055,88.355 98.715 C 87.730 103.206,87.774 105.869,88.543 110.279 C 90.070 119.034,93.646 126.069,99.621 132.073 C 107.369 139.857,117.096 143.916,128.000 143.916 C 143.497 143.916,157.036 135.429,163.844 121.446 C 166.869 115.232,167.850 110.848,167.818 103.680 C 167.790 97.236,167.055 93.674,164.572 87.930 C 159.836 76.974,149.356 68.101,137.813 65.274 C 134.266 64.406,125.864 63.834,123.093 64.273 " stroke="none" fill-rule="evenodd"></path></svg>