<svg fill="currentColor" viewBox="0 0 256 256" xmlns="http://www.w3.org/2000/svg"><path d="M121.173 24.332 C 105.448 25.391,88.987 30.912,75.733 39.571 C 51.232 55.579,35.358 81.723,32.442 110.872 C 31.826 117.033,31.836 217.109,32.453 218.746 C 33.067 220.375,35.326 222.693,37.000 223.411 C 38.775 224.173,41.031 224.160,42.903 223.378 C 43.722 223.036,49.980 218.188,56.811 212.605 C 63.641 207.021,69.276 202.453,69.333 202.453 C 69.391 202.453,75.026 207.021,81.856 212.605 C 88.686 218.188,94.996 223.057,95.878 223.425 C 97.706 224.189,101.082 223.976,102.568 223.003 C 103.070 222.674,108.903 217.963,115.531 212.535 C 122.159 207.108,127.770 202.667,128.000 202.667 C 128.230 202.667,133.841 207.108,140.469 212.535 C 147.097 217.963,152.930 222.674,153.432 223.003 C 154.918 223.976,158.294 224.189,160.122 223.425 C 161.004 223.057,167.314 218.188,174.144 212.605 C 180.974 207.021,186.609 202.453,186.667 202.453 C 186.724 202.453,192.359 207.021,199.189 212.605 C 206.020 218.188,212.278 223.036,213.097 223.378 C 214.969 224.160,217.225 224.173,219.000 223.411 C 220.674 222.693,222.933 220.375,223.547 218.746 C 224.164 217.109,224.174 117.033,223.558 110.872 C 221.384 89.140,212.326 69.486,197.224 53.725 C 189.161 45.311,181.003 39.342,170.221 33.971 C 155.196 26.484,138.354 23.175,121.173 24.332 M105.368 105.445 C 109.608 107.564,111.699 111.039,111.750 116.053 C 111.842 125.045,102.223 130.781,94.292 126.465 C 88.690 123.416,86.513 116.555,89.325 110.808 C 91.444 106.476,95.112 104.205,100.092 104.140 C 102.193 104.113,103.203 104.363,105.368 105.445 M160.088 104.770 C 164.659 106.328,167.869 110.989,167.838 116.024 C 167.810 120.642,165.651 124.319,161.708 126.465 C 153.777 130.781,144.158 125.045,144.250 116.053 C 144.266 114.528,144.504 112.669,144.779 111.921 C 147.022 105.838,153.854 102.646,160.088 104.770 " stroke="none" fill-rule="evenodd"></path></svg>