<svg fill="currentColor" viewBox="0 0 256 256" xmlns="http://www.w3.org/2000/svg"><path d="M89.292 16.832 C 74.071 20.289,63.287 34.644,64.114 50.347 C 64.493 57.539,67.067 63.559,72.222 69.317 L 74.684 72.067 55.155 72.193 L 35.627 72.320 33.067 73.662 C 28.496 76.057,25.816 79.411,24.531 84.343 C 23.579 87.999,23.598 120.288,24.555 123.959 C 26.163 130.135,31.019 134.567,37.496 135.772 L 40.087 136.254 40.204 170.207 L 40.320 204.160 41.455 206.581 C 43.044 209.971,45.666 212.649,49.005 214.293 L 51.821 215.680 84.650 215.797 L 117.478 215.914 118.686 214.757 L 119.893 213.600 119.893 166.747 L 119.893 119.893 128.000 119.893 L 136.107 119.893 136.107 166.747 L 136.107 213.600 137.314 214.757 L 138.522 215.914 171.341 215.797 L 204.160 215.680 206.581 214.545 C 209.971 212.956,212.649 210.334,214.293 206.995 L 215.680 204.179 215.796 170.216 L 215.913 136.254 218.504 135.772 C 225.031 134.558,229.867 130.108,231.473 123.839 C 232.049 121.589,232.130 118.506,232.020 102.947 C 231.892 84.807,231.885 84.678,230.866 82.144 C 229.561 78.901,226.313 75.427,222.933 73.659 L 220.373 72.320 200.845 72.193 L 181.316 72.067 183.778 69.317 C 190.618 61.678,193.316 52.224,191.386 42.651 C 189.947 35.508,187.443 30.867,182.160 25.550 C 179.033 22.403,177.864 21.556,174.053 19.672 C 168.160 16.759,164.808 16.069,157.867 16.341 C 152.291 16.559,150.044 17.108,145.691 19.313 C 139.789 22.304,134.612 27.801,130.469 35.476 C 129.229 37.775,128.117 39.656,128.000 39.656 C 127.883 39.656,126.771 37.775,125.531 35.476 C 120.407 25.984,114.395 20.466,105.823 17.388 C 102.698 16.266,93.191 15.946,89.292 16.832 M101.973 32.999 C 107.328 35.283,111.994 41.948,115.417 52.198 C 116.778 56.275,118.650 64.695,119.203 69.227 C 119.446 71.222,119.432 71.253,118.253 71.253 C 117.595 71.253,114.862 70.864,112.181 70.387 C 95.883 67.492,83.771 61.069,81.063 53.883 C 79.657 50.156,79.974 45.061,81.849 41.254 C 83.962 36.960,87.623 33.996,92.587 32.559 C 94.926 31.881,99.901 32.114,101.973 32.999 M162.898 32.443 C 167.792 33.572,171.984 36.852,174.146 41.242 C 175.265 43.516,175.551 44.678,175.703 47.564 C 176.036 53.915,174.017 57.591,167.993 61.599 C 163.753 64.420,158.797 66.603,152.747 68.315 C 148.332 69.563,139.582 71.253,137.531 71.253 C 136.524 71.253,136.492 71.171,136.758 69.227 C 138.458 56.790,142.191 45.916,147.158 38.931 C 151.164 33.296,156.702 31.014,162.898 32.443 M119.893 103.893 L 119.893 119.893 80.000 119.893 L 40.107 119.893 40.107 103.893 L 40.107 87.893 80.000 87.893 L 119.893 87.893 119.893 103.893 M215.893 103.893 L 215.893 119.893 176.000 119.893 L 136.107 119.893 136.107 103.893 L 136.107 87.893 176.000 87.893 L 215.893 87.893 215.893 103.893 " stroke="none" fill-rule="evenodd"></path></svg>