<svg fill="currentColor" viewBox="0 0 256 256" xmlns="http://www.w3.org/2000/svg"><path d="M66.778 32.427 C 56.562 34.275,47.981 40.643,43.497 49.707 C 38.002 60.815,39.225 73.646,46.724 83.559 C 50.218 88.178,54.876 91.617,60.715 93.888 L 63.787 95.083 63.896 128.128 L 64.005 161.172 62.631 161.447 C 60.164 161.941,54.460 165.008,51.597 167.382 C 44.371 173.371,40.107 182.508,40.107 192.000 C 40.107 206.549,49.718 219.015,64.000 222.989 C 68.274 224.179,76.453 224.075,80.640 222.778 C 97.540 217.545,107.185 200.861,102.996 184.107 C 102.644 182.699,101.464 179.723,100.374 177.493 C 98.700 174.068,97.794 172.843,94.530 169.583 C 90.576 165.635,86.336 162.956,82.027 161.681 L 80.213 161.145 80.213 128.000 L 80.213 94.855 82.027 94.319 C 85.491 93.294,90.429 90.380,93.469 87.565 C 98.188 83.196,101.365 77.941,103.087 71.655 C 104.216 67.534,104.133 60.069,102.910 55.766 C 99.754 44.660,91.503 36.355,80.567 33.274 C 77.008 32.272,70.013 31.842,66.778 32.427 M140.813 40.782 C 138.863 41.628,137.895 42.542,136.915 44.463 C 136.148 45.965,136.107 47.371,136.107 71.849 C 136.107 89.042,136.258 98.052,136.560 98.852 C 137.562 101.504,141.234 104.088,144.000 104.088 C 146.766 104.088,150.438 101.504,151.440 98.852 C 151.729 98.087,151.896 92.130,151.900 82.426 L 151.906 67.200 168.007 83.413 C 181.874 97.377,184.397 100.114,186.189 103.141 C 188.670 107.331,190.924 113.717,191.548 118.324 C 191.812 120.271,192.000 129.895,192.000 141.418 L 192.000 161.173 190.629 161.448 C 189.875 161.598,187.715 162.472,185.829 163.390 C 170.238 170.975,163.697 190.034,171.252 205.867 C 175.181 214.101,182.942 220.507,192.000 222.992 C 195.768 224.026,203.960 224.045,207.787 223.029 C 212.340 221.820,217.929 218.820,221.181 215.841 C 228.461 209.170,231.863 201.566,231.848 192.000 C 231.837 184.965,230.189 179.626,226.229 173.795 C 222.746 168.665,216.147 163.665,210.453 161.842 L 208.213 161.124 208.213 142.290 C 208.213 131.730,208.008 121.407,207.745 118.794 C 206.680 108.193,202.931 98.433,196.778 90.240 C 195.721 88.832,187.737 80.528,179.036 71.787 L 163.215 55.893 178.433 55.893 C 188.148 55.893,194.085 55.729,194.852 55.440 C 197.504 54.438,200.088 50.766,200.088 48.000 C 200.088 45.234,197.504 41.562,194.852 40.560 C 194.050 40.257,185.118 40.112,167.972 40.123 C 146.073 40.138,142.075 40.235,140.813 40.782 M79.254 177.890 C 82.486 179.622,85.023 182.279,86.545 185.525 C 87.524 187.615,87.680 188.502,87.680 192.000 C 87.680 195.498,87.524 196.385,86.545 198.475 C 82.642 206.800,73.426 210.175,65.059 206.345 C 58.875 203.514,55.101 196.164,56.335 189.357 C 57.398 183.496,60.877 179.273,66.521 176.996 C 68.056 176.376,69.356 176.233,72.533 176.333 C 76.188 176.448,76.849 176.601,79.254 177.890 " stroke="none" fill-rule="evenodd"></path></svg>