<svg fill="currentColor" viewBox="0 0 256 256" xmlns="http://www.w3.org/2000/svg"><path d="M73.926 24.309 C 73.166 24.489,71.894 25.133,71.099 25.740 C 68.313 27.865,63.822 38.295,62.067 46.720 C 60.513 54.175,60.795 64.490,62.766 72.261 L 63.616 75.616 61.936 79.088 C 57.851 87.529,56.353 94.139,56.023 105.180 C 55.670 116.963,56.520 123.107,59.718 131.897 C 64.778 145.804,77.253 158.548,91.012 163.863 C 94.776 165.317,101.699 167.251,103.147 167.252 C 103.675 167.253,104.107 167.377,104.107 167.529 C 104.107 167.681,103.417 168.844,102.574 170.114 C 100.430 173.344,98.370 177.960,97.281 181.973 C 96.568 184.602,96.302 187.078,96.124 192.747 L 95.893 200.107 83.040 200.099 C 68.891 200.091,66.287 199.788,61.691 197.613 C 56.236 195.032,51.832 190.220,49.672 184.483 C 48.842 182.277,48.465 180.177,48.150 176.002 C 47.920 172.950,47.363 168.865,46.912 166.923 C 42.941 149.840,28.070 137.269,10.604 136.232 C 6.911 136.013,6.285 136.086,4.496 136.952 C 0.563 138.856,-1.049 143.484,0.853 147.414 C 2.298 150.399,4.170 151.422,9.462 152.121 C 16.762 153.085,20.580 154.856,24.961 159.309 C 29.683 164.109,31.967 169.804,31.998 176.853 C 32.027 183.457,34.653 191.924,38.485 197.771 C 43.803 205.884,51.774 211.745,61.469 214.671 C 64.454 215.572,65.559 215.637,80.320 215.789 L 96.000 215.950 96.009 224.775 C 96.018 232.470,96.121 233.825,96.816 235.356 C 97.834 237.597,99.954 239.210,102.638 239.786 C 104.053 240.089,115.527 240.200,137.389 240.120 C 167.156 240.011,170.143 239.936,171.350 239.275 C 173.057 238.340,175.257 235.828,175.674 234.339 C 175.853 233.698,175.997 222.805,175.993 210.133 C 175.986 187.728,175.960 186.990,175.035 183.336 C 173.787 178.402,171.944 174.045,169.587 170.456 C 168.535 168.855,167.723 167.512,167.784 167.472 C 167.844 167.433,169.237 167.164,170.880 166.875 C 177.920 165.634,186.970 161.636,193.137 157.041 C 194.976 155.671,198.214 152.752,200.334 150.555 C 208.417 142.177,213.262 132.517,215.284 120.747 C 216.295 114.862,215.934 97.384,214.693 92.160 C 213.594 87.534,211.967 82.996,209.940 78.904 L 208.340 75.674 209.315 71.808 C 212.689 58.424,210.855 43.587,204.191 30.355 C 202.502 27.001,200.419 24.979,197.976 24.321 C 195.798 23.734,187.536 24.403,182.526 25.571 C 171.322 28.183,160.577 34.302,152.681 42.567 C 150.885 44.447,149.087 46.486,148.685 47.099 L 147.955 48.213 136.098 48.213 L 124.241 48.213 121.391 44.836 C 111.542 33.165,96.907 25.723,81.067 24.332 C 75.613 23.853,75.843 23.853,73.926 24.309 " stroke="none" fill-rule="evenodd"></path></svg>