<svg fill="currentColor" viewBox="0 0 256 256" xmlns="http://www.w3.org/2000/svg"><path d="M53.898 32.614 C 50.578 33.652,48.198 35.620,46.594 38.652 C 46.049 39.683,26.367 114.670,25.047 120.747 C 23.787 126.545,23.817 136.722,25.113 142.820 C 27.566 154.370,32.579 163.588,40.952 171.948 C 45.044 176.034,48.768 178.779,83.200 203.093 C 103.968 217.758,121.920 230.237,123.092 230.825 C 126.062 232.313,129.940 232.312,132.908 230.823 C 134.080 230.235,152.032 217.756,172.800 203.092 C 207.244 178.772,210.954 176.037,215.048 171.949 C 217.517 169.484,220.537 166.001,221.759 164.210 C 226.213 157.684,229.546 149.682,231.108 141.768 C 232.179 136.338,232.098 126.128,230.941 120.747 C 229.682 114.888,209.966 39.713,209.410 38.652 C 206.755 33.581,200.776 31.001,195.341 32.581 C 192.729 33.340,189.425 35.940,188.295 38.124 C 187.916 38.857,183.621 50.307,178.749 63.568 L 169.892 87.680 128.002 87.680 L 86.112 87.680 77.410 64.000 C 72.624 50.976,68.382 39.586,67.982 38.689 C 66.938 36.346,63.508 33.421,60.894 32.644 C 58.296 31.873,56.297 31.864,53.898 32.614 " stroke="none" fill-rule="evenodd"></path></svg>