<svg fill="currentColor" viewBox="0 0 256 256" xmlns="http://www.w3.org/2000/svg"><path d="M53.898 32.614 C 50.578 33.652,48.198 35.620,46.594 38.652 C 46.047 39.687,26.360 114.697,25.048 120.747 C 23.772 126.633,23.806 136.754,25.124 142.915 C 26.089 147.425,28.308 153.918,30.089 157.440 C 33.263 163.718,40.317 172.325,45.631 176.405 C 50.285 179.979,121.414 230.080,123.091 230.965 C 125.451 232.212,130.024 232.218,132.693 230.978 C 134.578 230.103,205.475 180.223,210.628 176.147 C 216.166 171.767,222.730 163.732,225.911 157.440 C 227.692 153.918,229.911 147.425,230.876 142.915 C 232.194 136.754,232.228 126.633,230.952 120.747 C 229.653 114.761,209.956 39.695,209.410 38.652 C 206.751 33.572,200.776 31.001,195.320 32.587 C 192.502 33.406,189.109 36.241,188.017 38.689 C 187.617 39.586,183.373 50.976,178.587 64.000 L 169.885 87.680 127.997 87.680 L 86.108 87.680 77.251 63.568 C 72.379 50.307,68.084 38.857,67.705 38.124 C 66.627 36.041,63.280 33.353,60.874 32.638 C 58.296 31.872,56.292 31.866,53.898 32.614 M77.227 149.908 C 96.821 163.737,113.108 175.287,113.420 175.575 C 113.878 175.997,112.077 177.450,104.007 183.168 C 98.518 187.058,93.839 190.300,93.610 190.373 C 93.381 190.447,84.752 184.565,74.436 177.303 C 53.509 162.572,49.865 159.445,45.918 152.832 C 43.613 148.971,41.237 142.504,40.556 138.240 C 39.731 133.077,40.111 123.852,41.123 124.472 C 41.385 124.633,57.632 136.079,77.227 149.908 M215.866 131.413 C 215.924 142.526,211.933 152.344,204.160 160.212 C 201.184 163.224,197.535 166.058,187.947 172.802 C 181.141 177.588,172.654 183.568,169.086 186.091 L 162.599 190.678 152.305 183.395 C 146.644 179.389,142.171 175.954,142.366 175.761 C 142.561 175.568,159.040 163.878,178.987 149.782 L 215.253 124.155 215.549 125.757 C 215.711 126.639,215.854 129.184,215.866 131.413 M138.273 193.079 C 143.769 196.957,148.306 200.269,148.354 200.439 C 148.401 200.608,143.842 203.978,138.221 207.927 L 128.001 215.107 117.777 207.927 C 112.153 203.978,107.593 200.608,107.643 200.439 C 107.750 200.075,127.593 186.027,128.000 186.027 C 128.153 186.027,132.776 189.200,138.273 193.079 " stroke="none" fill-rule="evenodd"></path></svg>