<svg fill="currentColor" viewBox="0 0 256 256" xmlns="http://www.w3.org/2000/svg"><path d="M29.979 56.306 C 28.160 56.741,25.783 58.588,24.853 60.289 C 24.196 61.490,24.090 63.265,23.971 75.093 C 23.881 83.973,23.994 89.070,24.302 90.114 C 24.933 92.250,26.696 94.250,28.782 95.198 C 30.439 95.951,34.325 95.981,128.000 95.981 C 221.675 95.981,225.561 95.951,227.218 95.198 C 229.304 94.250,231.067 92.250,231.698 90.114 C 232.006 89.070,232.119 83.973,232.029 75.093 C 231.875 59.855,231.885 59.901,228.316 57.393 L 226.487 56.107 128.923 56.041 C 75.263 56.005,30.739 56.125,29.979 56.306 M27.679 113.436 C 24.765 115.284,24.135 116.930,23.967 123.137 C 23.883 126.213,24.029 129.053,24.328 130.161 C 24.958 132.503,27.395 135.001,29.663 135.631 C 32.072 136.300,223.928 136.300,226.337 135.631 C 228.605 135.001,231.042 132.503,231.672 130.161 C 231.971 129.053,232.117 126.213,232.033 123.137 C 231.865 116.930,231.235 115.284,228.321 113.436 L 226.393 112.213 128.000 112.213 L 29.607 112.213 27.679 113.436 M29.979 152.303 C 27.048 153.011,24.705 155.592,24.109 158.773 C 23.437 162.351,26.134 166.651,29.663 167.631 C 30.848 167.960,43.725 168.100,72.320 168.095 C 111.281 168.088,113.363 168.049,114.987 167.298 C 118.138 165.839,119.893 163.227,119.893 160.000 C 119.893 157.858,119.262 156.238,117.840 154.735 C 115.179 151.923,118.365 152.114,72.747 152.039 C 49.984 152.001,30.739 152.120,29.979 152.303 M143.147 152.098 C 142.912 152.179,142.196 152.361,141.554 152.502 C 140.913 152.643,139.685 153.377,138.824 154.133 C 134.350 158.061,135.458 164.726,141.013 167.298 C 142.637 168.049,144.719 168.088,183.680 168.095 C 212.275 168.100,225.152 167.960,226.337 167.631 C 228.597 167.003,231.042 164.502,231.668 162.176 C 232.620 158.643,231.345 155.374,228.208 153.297 L 226.409 152.107 184.991 152.028 C 162.211 151.985,143.381 152.016,143.147 152.098 M29.979 184.299 C 27.042 185.017,24.705 187.594,24.109 190.773 C 23.428 194.403,26.149 198.679,29.757 199.651 C 30.991 199.983,38.055 200.093,52.782 200.012 C 73.385 199.897,74.078 199.866,75.733 199.001 C 76.770 198.460,77.920 197.337,78.663 196.141 C 81.055 192.289,79.876 187.545,75.951 185.238 L 74.027 184.107 52.693 184.034 C 40.960 183.995,30.739 184.114,29.979 184.299 M103.040 184.095 C 102.805 184.178,102.100 184.358,101.473 184.496 C 98.768 185.090,96.019 188.872,96.019 192.000 C 96.019 193.829,97.242 196.583,98.616 197.846 C 101.100 200.130,100.804 200.107,128.093 200.097 C 151.772 200.089,153.496 200.038,155.093 199.300 C 157.159 198.347,158.459 196.996,159.340 194.888 C 160.893 191.170,159.267 186.880,155.520 184.813 C 154.374 184.181,151.579 184.098,128.853 184.025 C 114.891 183.981,103.275 184.012,103.040 184.095 M182.339 184.291 C 176.910 185.623,174.440 191.476,177.337 196.141 C 178.080 197.337,179.230 198.460,180.267 199.001 C 181.922 199.866,182.615 199.897,203.218 200.012 C 217.945 200.093,225.009 199.983,226.243 199.651 C 228.587 199.019,231.027 196.557,231.668 194.176 C 232.620 190.644,231.346 187.374,228.208 185.297 L 226.410 184.107 205.045 184.034 C 193.294 183.995,183.077 184.110,182.339 184.291 " stroke="none" fill-rule="evenodd"></path></svg>