<svg fill="currentColor" viewBox="0 0 256 256" xmlns="http://www.w3.org/2000/svg"><path d="M122.586 17.897 C 106.232 26.813,88.999 43.969,81.560 58.742 C 80.830 60.192,80.060 61.484,79.849 61.615 C 79.638 61.745,78.050 61.368,76.319 60.777 C 68.215 58.009,59.182 56.388,50.954 56.226 C 46.866 56.145,45.607 56.266,44.543 56.841 C 42.656 57.861,40.619 60.333,40.320 61.964 C 40.180 62.732,40.129 83.904,40.207 109.013 C 40.363 158.918,40.222 155.914,42.910 166.262 C 50.605 195.877,74.020 219.935,103.451 228.463 C 108.813 230.017,115.654 231.315,116.965 231.027 C 117.588 230.890,118.454 230.385,118.889 229.905 C 119.637 229.078,119.692 227.539,119.893 201.449 C 120.084 176.840,120.183 173.729,120.813 172.587 C 123.446 167.813,129.530 166.627,133.265 170.160 C 136.017 172.765,135.872 171.168,136.107 201.449 C 136.308 227.539,136.363 229.078,137.111 229.905 C 137.546 230.385,138.416 230.891,139.045 231.029 C 140.783 231.411,148.862 229.708,155.307 227.601 C 187.945 216.931,211.186 188.501,215.446 154.038 C 216.068 149.009,216.062 62.794,215.440 61.148 C 214.875 59.653,213.098 57.745,211.413 56.825 C 210.395 56.269,209.094 56.146,205.046 56.226 C 196.810 56.389,187.786 58.009,179.659 60.785 C 177.916 61.380,176.440 61.867,176.379 61.867 C 176.318 61.867,175.272 60.091,174.055 57.920 C 166.239 43.982,154.211 31.347,139.520 21.641 C 130.171 15.465,127.949 14.974,122.586 17.897 M131.284 35.353 C 141.877 42.650,150.049 50.600,156.127 59.520 C 159.518 64.496,162.012 69.231,161.358 69.450 C 160.475 69.744,154.186 74.403,150.724 77.328 C 142.119 84.599,133.986 95.123,128.217 106.453 C 128.072 106.738,127.928 106.738,127.783 106.453 C 122.040 95.174,113.843 84.566,105.276 77.328 C 101.814 74.403,95.525 69.744,94.642 69.450 C 93.988 69.231,96.482 64.496,99.873 59.520 C 105.909 50.662,114.152 42.628,124.556 35.463 C 126.299 34.262,127.849 33.280,128.000 33.280 C 128.151 33.280,129.629 34.213,131.284 35.353 M60.698 73.190 C 82.966 77.085,102.204 91.569,112.434 112.141 C 117.230 121.786,119.359 130.388,119.764 141.760 C 119.904 145.691,119.925 148.907,119.812 148.907 C 119.698 148.907,118.380 147.323,116.884 145.387 C 103.527 128.105,82.150 115.914,59.947 112.917 L 56.107 112.398 55.996 92.466 C 55.908 76.662,55.996 72.534,56.422 72.535 C 56.718 72.535,58.642 72.830,60.698 73.190 M200.004 92.452 L 199.893 112.370 194.987 113.086 C 178.284 115.524,162.740 122.783,149.532 134.313 C 146.250 137.178,140.633 143.279,137.050 147.869 L 136.074 149.120 136.282 141.867 C 136.610 130.470,138.706 121.914,143.566 112.141 C 152.620 93.934,168.771 80.396,188.025 74.873 C 191.739 73.808,197.257 72.670,199.151 72.579 L 200.115 72.533 200.004 92.452 " stroke="none" fill-rule="evenodd"></path></svg>