<svg fill="currentColor" viewBox="0 0 256 256" xmlns="http://www.w3.org/2000/svg"><path d="M121.813 24.168 C 99.477 25.337,78.962 31.781,62.720 42.729 C 48.115 52.575,38.638 64.599,33.682 79.573 C 32.497 83.152,32.265 84.495,32.241 87.902 C 32.215 91.658,32.319 92.179,33.610 94.802 C 35.341 98.317,38.712 101.521,42.135 102.903 L 44.587 103.893 128.000 103.893 L 211.413 103.893 213.865 102.903 C 217.288 101.521,220.659 98.317,222.390 94.802 C 223.681 92.179,223.785 91.658,223.759 87.902 C 223.735 84.507,223.500 83.139,222.328 79.573 C 217.435 64.694,207.731 52.412,193.173 42.674 C 178.843 33.089,161.912 27.086,143.360 25.012 C 137.197 24.323,126.699 23.912,121.813 24.168 M22.339 120.298 C 16.922 121.599,14.440 127.476,17.337 132.141 C 18.080 133.337,19.230 134.460,20.267 135.001 L 21.973 135.893 128.000 135.893 L 234.027 135.893 235.733 135.001 C 241.141 132.175,241.226 124.228,235.882 121.169 L 234.027 120.107 128.853 120.042 C 71.008 120.006,23.077 120.121,22.339 120.298 M66.560 152.209 C 65.374 152.428,24.244 167.308,21.547 168.494 C 15.218 171.277,14.952 179.749,21.097 182.834 C 22.258 183.417,23.747 183.893,24.405 183.893 C 25.064 183.893,28.801 182.741,32.710 181.333 C 36.619 179.925,39.858 178.773,39.909 178.773 C 39.960 178.773,40.100 181.605,40.221 185.067 C 40.384 189.743,40.678 192.175,41.363 194.531 C 45.691 209.403,57.196 220.054,72.320 223.192 C 75.946 223.944,79.043 223.989,128.000 223.989 C 176.957 223.989,180.054 223.944,183.680 223.192 C 196.488 220.535,206.953 212.335,212.297 200.770 C 215.033 194.847,215.552 192.222,215.843 182.836 L 216.107 174.313 226.281 170.610 C 238.134 166.297,239.454 165.398,240.401 160.996 C 241.322 156.720,237.142 151.931,232.465 151.903 C 231.488 151.897,223.020 154.766,209.824 159.573 C 198.230 163.797,188.450 167.253,188.089 167.253 C 187.729 167.253,179.102 163.877,168.917 159.751 C 154.106 153.749,149.973 152.238,148.267 152.196 C 146.434 152.151,143.452 153.216,127.089 159.761 L 108.045 167.379 89.329 159.905 C 70.976 152.577,68.714 151.812,66.560 152.209 " stroke="none" fill-rule="evenodd"></path></svg>