<svg fill="currentColor" viewBox="0 0 256 256" xmlns="http://www.w3.org/2000/svg"><path d="M106.240 16.509 C 90.892 18.145,75.709 23.586,63.104 31.966 C 56.142 36.595,52.504 39.759,42.747 49.669 C 31.423 61.171,30.698 62.500,33.108 67.336 C 34.997 71.126,39.318 72.737,43.214 71.105 C 43.971 70.787,49.273 65.851,55.040 60.096 C 65.455 49.701,69.396 46.426,75.869 42.790 L 78.411 41.363 101.503 64.726 L 124.595 88.089 75.583 137.165 C 37.478 175.319,26.363 186.682,25.640 188.226 C 24.135 191.440,23.639 195.010,24.273 198.079 C 25.312 203.111,26.152 204.193,38.980 217.020 C 52.049 230.089,53.036 230.839,58.375 231.755 C 60.880 232.184,61.750 232.153,64.222 231.543 C 65.819 231.149,68.007 230.257,69.083 229.561 C 70.159 228.865,92.827 206.501,119.456 179.865 L 167.871 131.434 184.768 148.266 C 203.058 166.488,203.343 166.717,209.004 167.770 C 211.953 168.318,215.300 167.808,218.431 166.333 C 219.842 165.668,224.840 160.975,236.716 149.162 C 255.897 130.084,255.766 130.262,255.779 123.298 C 255.793 116.031,258.389 119.085,216.011 76.511 C 195.648 56.053,177.642 38.275,175.999 37.003 C 161.656 25.908,145.544 19.106,128.298 16.867 C 123.703 16.270,110.491 16.056,106.240 16.509 M123.368 32.430 C 139.417 33.993,153.864 39.878,166.390 49.954 C 168.646 51.768,180.915 63.767,193.655 76.617 L 216.818 99.981 202.501 114.297 L 188.185 128.614 180.599 121.113 C 176.427 116.987,172.399 113.297,171.648 112.912 C 170.097 112.118,166.616 111.992,164.828 112.665 C 164.167 112.914,158.297 118.432,151.782 124.926 L 139.938 136.735 129.604 126.402 L 119.271 116.069 131.267 104.008 C 142.585 92.629,143.287 91.831,143.690 89.905 C 144.131 87.791,143.889 85.868,142.950 84.043 C 142.651 83.462,131.657 72.211,118.518 59.040 C 105.380 45.869,94.794 34.993,94.995 34.871 C 95.196 34.750,97.376 34.247,99.840 33.753 C 108.129 32.094,115.603 31.674,123.368 32.430 M225.707 137.600 L 211.418 151.894 205.444 145.921 L 199.471 139.947 213.760 125.653 L 228.049 111.359 234.022 117.333 L 239.996 123.306 225.707 137.600 " stroke="none" fill-rule="evenodd"></path></svg>