<svg fill="currentColor" viewBox="0 0 256 256" xmlns="http://www.w3.org/2000/svg"><path d="M196.267 17.055 C 195.445 17.498,187.158 25.505,177.849 34.850 C 159.395 53.376,159.558 53.169,160.184 57.338 C 160.385 58.678,160.991 59.933,162.109 61.327 C 163.007 62.445,170.916 70.492,179.684 79.209 C 193.073 92.520,195.900 95.133,197.333 95.527 C 199.751 96.191,201.338 96.100,203.356 95.184 C 207.452 93.324,209.106 88.183,206.941 84.043 C 206.637 83.462,202.152 78.715,196.975 73.493 L 187.562 64.000 214.606 64.000 C 241.293 64.000,241.675 63.988,243.520 63.095 C 246.373 61.714,247.680 59.439,247.680 55.857 C 247.680 53.292,247.540 52.811,246.370 51.346 C 243.733 48.047,245.417 48.215,214.933 48.214 C 199.973 48.214,187.733 48.078,187.733 47.913 C 187.733 47.748,192.127 43.188,197.496 37.780 C 206.696 28.514,207.284 27.826,207.698 25.856 C 207.940 24.706,208.074 23.554,207.998 23.296 C 207.921 23.038,207.743 22.302,207.603 21.661 C 207.291 20.236,205.099 17.670,203.478 16.832 C 201.796 15.962,198.083 16.077,196.267 17.055 M91.520 40.679 C 87.570 41.986,84.007 44.765,82.091 48.034 C 79.754 52.022,79.802 50.577,79.794 116.817 C 79.787 175.959,79.760 178.006,78.979 179.537 C 78.044 181.368,77.163 182.218,75.129 183.249 C 73.348 184.153,70.359 183.924,68.821 182.767 C 68.240 182.330,62.741 173.263,56.600 162.617 C 50.459 151.972,44.709 142.426,43.821 141.406 C 42.778 140.207,41.050 138.979,38.939 137.935 C 35.885 136.426,35.418 136.320,31.809 136.320 C 28.518 136.320,27.588 136.488,25.525 137.455 C 22.610 138.822,19.638 141.471,18.127 144.050 C 15.908 147.836,15.457 153.479,17.045 157.609 C 17.964 160.002,48.773 219.538,49.824 220.953 C 50.409 221.741,51.678 222.745,52.644 223.184 C 54.336 223.952,56.942 223.982,123.854 223.991 C 199.326 224.001,194.904 224.136,197.477 221.740 C 199.597 219.765,202.756 212.362,204.795 204.587 C 207.766 193.257,208.195 186.796,208.197 153.387 C 208.199 125.697,208.069 123.807,205.913 120.165 C 204.441 117.679,201.576 115.036,198.827 113.628 C 196.693 112.536,196.073 112.427,192.000 112.427 C 187.717 112.427,187.403 112.490,184.852 113.873 C 180.128 116.435,177.082 120.758,176.198 126.156 C 175.975 127.522,175.790 130.692,175.789 133.199 C 175.786 138.209,175.446 139.561,173.733 141.370 C 170.779 144.489,166.531 144.833,163.093 142.232 C 160.244 140.076,160.237 140.034,159.993 123.520 C 159.781 109.195,159.732 108.487,158.789 106.135 C 157.418 102.715,154.219 99.345,150.696 97.610 C 148.124 96.344,147.497 96.214,144.009 96.215 C 140.593 96.217,139.848 96.366,137.387 97.536 C 133.863 99.211,131.212 101.861,129.534 105.387 L 128.213 108.160 128.000 119.253 C 127.766 131.427,127.674 131.882,125.009 134.125 C 121.286 137.258,115.743 136.294,113.276 132.085 L 112.213 130.272 112.211 93.403 C 112.209 71.326,112.040 55.506,111.790 53.973 C 110.882 48.426,107.380 43.728,102.475 41.481 C 99.584 40.156,94.275 39.767,91.520 40.679 " stroke="none" fill-rule="evenodd"></path></svg>