<svg fill="currentColor" viewBox="0 0 256 256" xmlns="http://www.w3.org/2000/svg"><path d="M119.183 16.845 C 104.782 19.458,91.392 29.596,85.028 42.705 C 82.198 48.533,80.853 53.559,79.993 61.526 L 79.730 63.959 61.092 64.086 L 42.453 64.213 39.584 65.573 C 35.075 67.709,31.458 72.122,30.559 76.587 C 30.417 77.291,27.033 105.413,23.040 139.081 C 15.083 206.158,15.376 202.409,17.716 207.200 C 19.065 209.962,22.353 213.058,25.507 214.537 L 27.947 215.680 128.000 215.680 L 228.053 215.680 230.493 214.537 C 233.672 213.047,236.952 209.943,238.248 207.201 C 239.464 204.626,240.253 200.759,239.972 198.756 C 239.862 197.973,236.612 170.549,232.750 137.813 C 228.887 105.077,225.415 77.099,225.033 75.640 C 223.844 71.094,220.779 67.602,216.020 65.372 L 213.547 64.213 194.903 64.086 L 176.259 63.959 176.020 61.953 C 174.898 52.570,173.882 48.698,170.972 42.705 C 164.562 29.503,151.108 19.383,136.584 16.840 C 132.248 16.080,123.382 16.083,119.183 16.845 M136.067 33.033 C 142.252 34.728,148.832 39.037,152.849 44.022 C 156.752 48.867,160.000 57.380,160.000 62.767 L 160.000 64.000 127.941 64.000 L 95.882 64.000 96.176 61.120 C 96.612 56.849,97.192 54.812,99.181 50.560 C 103.630 41.050,112.393 34.292,122.699 32.423 C 125.548 31.906,133.235 32.257,136.067 33.033 M91.644 81.021 C 95.604 83.043,96.002 84.422,95.991 96.093 C 95.980 106.781,95.692 108.116,92.945 110.212 C 91.559 111.269,88.307 112.302,87.307 112.002 C 87.043 111.923,86.302 111.743,85.661 111.603 C 84.236 111.291,81.670 109.099,80.832 107.478 C 79.943 105.760,79.929 86.262,80.815 84.565 C 81.469 83.314,83.334 81.460,84.693 80.710 C 86.073 79.949,89.877 80.119,91.644 81.021 M171.214 80.801 C 172.874 81.511,174.715 83.407,175.333 85.041 C 175.605 85.762,175.787 90.143,175.787 96.000 C 175.787 101.857,175.605 106.238,175.333 106.959 C 174.826 108.300,173.030 110.340,171.743 111.037 C 167.889 113.124,162.631 111.353,160.816 107.356 C 160.113 105.808,160.019 104.465,160.019 96.000 C 160.019 84.275,160.367 83.097,164.480 80.924 C 166.072 80.083,169.394 80.022,171.214 80.801 " stroke="none" fill-rule="evenodd"></path></svg>