<svg fill="currentColor" viewBox="0 0 256 256" xmlns="http://www.w3.org/2000/svg"><path d="M158.933 24.340 C 147.181 26.158,137.134 33.396,132.016 43.733 C 129.500 48.814,128.449 52.637,128.144 57.813 C 127.550 67.886,130.976 77.316,137.929 84.749 C 141.212 88.259,146.342 91.733,148.240 91.733 C 149.679 91.733,151.866 90.162,151.923 89.087 C 151.939 88.783,152.024 86.177,152.112 83.296 C 152.200 80.416,152.578 76.427,152.952 74.432 C 155.866 58.883,166.187 45.001,180.053 37.981 C 181.813 37.090,183.633 35.941,184.097 35.427 C 185.190 34.216,185.222 31.526,184.158 30.350 C 182.946 29.011,176.790 26.137,173.131 25.203 C 169.200 24.198,162.486 23.790,158.933 24.340 M196.057 48.922 C 189.763 50.270,183.090 54.005,178.328 58.845 C 167.467 69.882,164.959 86.768,172.131 100.570 C 180.561 116.791,199.735 124.045,217.004 117.546 C 225.368 114.397,233.035 107.146,236.816 98.807 C 242.411 86.467,240.381 71.443,231.726 61.138 C 226.774 55.241,219.664 50.787,212.480 49.081 C 208.083 48.036,200.531 47.963,196.057 48.922 M82.109 113.050 C 74.266 115.107,72.630 116.320,57.692 131.162 L 44.770 144.000 28.241 144.213 L 11.712 144.427 8.865 145.829 C 5.565 147.455,2.982 150.118,1.328 153.600 L 0.213 155.947 0.089 178.959 C -0.031 201.110,-0.003 202.076,0.835 204.772 C 1.935 208.310,4.055 211.194,6.991 213.143 C 11.382 216.059,7.741 215.893,67.485 215.893 L 121.609 215.893 153.954 207.805 L 186.300 199.716 206.537 191.103 C 217.667 186.366,227.733 181.878,228.907 181.129 C 236.258 176.438,240.898 166.654,239.787 158.190 C 238.971 151.977,237.254 148.202,233.344 144.022 C 228.669 139.024,223.557 136.628,216.747 136.242 C 212.731 136.014,212.482 136.060,190.133 141.197 C 177.725 144.049,167.521 146.326,167.457 146.258 C 167.393 146.189,167.530 144.981,167.762 143.573 C 168.630 138.298,167.193 131.238,164.158 125.867 C 162.071 122.174,156.980 117.388,152.911 115.293 C 146.833 112.163,147.594 112.224,114.560 112.243 C 87.314 112.259,84.896 112.319,82.109 113.050 M143.621 128.630 C 146.207 129.398,148.940 131.660,150.510 134.329 C 151.539 136.080,151.680 136.757,151.676 139.947 C 151.674 142.649,151.471 143.954,150.883 145.067 C 149.784 147.143,147.307 149.659,145.280 150.756 C 143.633 151.648,142.981 151.687,126.720 151.893 C 112.077 152.079,109.699 152.200,108.587 152.815 C 102.380 156.251,102.619 164.337,109.013 167.298 C 110.583 168.024,112.081 168.089,127.639 168.097 L 144.558 168.107 179.052 160.147 C 199.721 155.377,214.406 152.190,215.691 152.193 C 218.103 152.200,219.831 152.953,221.524 154.735 C 224.753 158.135,224.748 163.064,221.512 166.428 C 220.161 167.832,217.313 169.173,200.747 176.211 L 181.547 184.367 150.084 192.237 L 118.622 200.107 87.258 200.107 L 55.893 200.107 55.893 177.804 L 55.893 155.501 68.373 143.075 C 80.791 130.713,82.492 129.308,86.073 128.464 C 86.957 128.256,99.789 128.066,114.589 128.043 C 137.175 128.007,141.840 128.101,143.621 128.630 " stroke="none" fill-rule="evenodd"></path></svg>