<svg fill="currentColor" viewBox="0 0 256 256" xmlns="http://www.w3.org/2000/svg"><path d="M98.099 17.189 C 93.772 19.013,91.392 21.364,89.254 25.926 L 88.107 28.373 87.893 91.520 C 87.731 139.450,87.557 154.881,87.169 155.557 C 86.888 156.046,85.891 157.140,84.955 157.986 C 82.222 160.455,78.823 160.608,76.483 158.369 C 75.827 157.741,70.398 148.687,64.418 138.249 C 52.582 117.588,51.432 115.992,46.720 113.682 C 44.406 112.547,43.751 112.427,39.893 112.427 C 36.161 112.427,35.322 112.569,33.196 113.566 C 26.783 116.572,22.829 124.277,24.308 130.886 C 25.377 135.665,39.988 165.603,48.536 180.529 C 60.560 201.527,69.488 213.409,79.063 221.156 C 102.159 239.842,133.388 245.049,160.853 234.792 C 190.546 223.704,211.475 196.836,215.446 164.705 C 215.719 162.498,215.893 149.439,215.893 131.187 C 215.893 101.654,215.882 101.252,214.969 98.536 C 213.712 94.796,209.639 90.618,205.867 89.200 C 202.952 88.104,198.407 87.876,195.560 88.682 C 192.771 89.472,188.869 92.326,187.156 94.828 C 184.650 98.489,184.237 100.151,183.944 107.765 C 183.692 114.319,183.628 114.702,182.506 116.397 C 179.778 120.517,173.406 121.071,170.150 117.470 C 168.250 115.370,168.107 114.179,168.107 100.552 C 168.107 93.419,167.922 86.611,167.697 85.423 C 166.733 80.340,163.435 75.998,158.808 73.720 C 156.197 72.434,155.632 72.320,151.893 72.320 C 148.162 72.320,147.587 72.436,145.005 73.707 C 141.666 75.351,139.044 78.028,137.455 81.419 C 136.339 83.799,136.316 84.026,136.107 94.933 C 135.903 105.531,135.849 106.103,134.911 107.741 C 131.763 113.231,124.212 113.332,121.173 107.925 L 120.107 106.027 119.893 66.987 L 119.680 27.947 118.501 25.547 C 116.830 22.145,114.406 19.579,111.284 17.906 C 108.853 16.603,108.187 16.447,104.533 16.323 C 101.043 16.204,100.149 16.324,98.099 17.189 " stroke="none" fill-rule="evenodd"></path></svg>