<svg fill="currentColor" viewBox="0 0 256 256" xmlns="http://www.w3.org/2000/svg"><path d="M172.445 0.891 C 171.389 1.428,170.109 2.567,169.458 3.549 L 168.320 5.268 168.192 15.468 C 168.069 25.205,168.105 25.754,168.990 27.582 C 170.355 30.401,172.665 31.787,176.000 31.787 C 179.314 31.787,181.647 30.398,182.988 27.627 C 183.830 25.889,183.893 25.071,183.893 16.000 C 183.893 6.929,183.830 6.111,182.988 4.373 C 181.140 0.554,176.272 -1.053,172.445 0.891 M212.693 13.700 C 210.703 14.854,209.185 16.831,204.915 23.834 C 200.066 31.789,199.445 33.610,200.498 36.800 C 201.583 40.087,205.901 42.724,209.140 42.076 C 212.582 41.388,213.713 40.188,218.840 31.788 C 222.823 25.261,223.742 23.446,223.901 21.784 C 224.157 19.123,222.926 16.313,220.791 14.684 C 219.465 13.673,218.700 13.439,216.367 13.333 C 214.761 13.260,213.179 13.418,212.693 13.700 M120.960 24.340 C 115.153 25.143,110.122 27.760,105.867 32.191 C 104.254 33.871,102.980 34.869,102.683 34.687 C 102.410 34.521,101.418 33.799,100.479 33.085 C 98.139 31.303,94.025 29.519,90.567 28.787 C 78.902 26.315,66.831 32.424,61.838 43.326 C 60.520 46.205,59.303 51.485,59.314 54.275 C 59.321 56.013,60.208 60.883,60.780 62.323 C 60.988 62.849,60.560 63.105,58.789 63.513 C 52.116 65.051,45.055 70.688,42.097 76.838 C 39.887 81.434,39.125 85.116,39.367 90.027 C 39.618 95.085,40.634 98.154,43.976 103.944 C 45.368 106.355,46.507 108.434,46.507 108.564 C 46.507 108.694,46.143 108.800,45.698 108.800 C 45.254 108.800,43.667 109.178,42.172 109.640 C 34.820 111.910,28.135 118.338,25.588 125.585 C 23.521 131.465,23.515 137.318,25.570 143.163 C 26.324 145.308,59.724 203.728,64.346 210.987 C 76.280 229.727,95.790 242.745,118.093 246.847 C 126.546 248.401,139.645 248.106,148.693 246.156 C 175.995 240.273,198.637 220.039,207.497 193.607 C 208.444 190.780,209.099 189.741,212.067 186.354 C 222.200 174.789,228.791 160.581,231.318 144.853 C 232.027 140.445,232.028 126.655,231.320 122.240 C 230.585 117.661,228.649 110.285,226.970 105.669 C 225.014 100.290,222.898 96.304,211.418 76.373 C 201.954 59.943,200.984 58.430,197.960 55.379 C 194.348 51.735,189.713 49.112,185.250 48.185 C 181.709 47.450,174.497 47.901,171.189 49.064 C 167.838 50.243,162.859 53.472,160.713 55.859 C 159.815 56.858,159.025 57.611,158.958 57.531 C 158.891 57.452,155.978 52.407,152.485 46.321 C 145.581 34.293,143.250 31.261,138.515 28.154 C 133.795 25.057,126.788 23.535,120.960 24.340 M233.930 50.774 C 225.060 53.656,224.086 54.094,222.594 55.867 C 218.350 60.911,221.878 68.720,228.434 68.791 C 229.474 68.803,233.769 67.656,238.997 65.971 C 247.136 63.348,247.920 63.007,249.292 61.489 C 252.849 57.551,252.248 52.163,247.947 49.436 C 245.048 47.597,243.151 47.778,233.930 50.774 M109.485 76.351 C 110.915 77.171,112.110 78.306,112.963 79.654 C 113.678 80.783,121.694 94.571,130.776 110.293 C 139.858 126.016,147.752 139.566,148.317 140.405 C 150.470 143.598,154.963 144.815,158.450 143.150 C 161.911 141.497,163.779 136.941,162.417 133.474 C 162.046 132.528,159.101 127.214,155.874 121.664 C 150.038 111.628,150.005 111.557,149.840 108.548 C 149.707 106.134,149.846 105.184,150.527 103.849 C 152.900 99.197,157.583 97.171,162.686 98.588 C 165.835 99.462,167.428 101.700,178.092 120.229 C 183.668 129.917,188.969 139.421,189.872 141.349 C 195.934 154.290,197.332 169.402,193.771 183.494 C 187.559 208.070,168.023 226.292,142.720 231.113 C 136.818 232.237,126.158 232.142,120.009 230.911 C 102.798 227.463,88.088 217.769,78.774 203.733 C 77.528 201.856,68.366 186.208,58.414 168.960 L 40.320 137.600 40.320 134.330 C 40.320 131.379,40.446 130.881,41.612 129.222 C 43.696 126.257,46.030 124.871,49.289 124.663 C 51.626 124.514,52.408 124.660,54.333 125.602 C 55.586 126.215,56.913 127.053,57.281 127.465 C 57.650 127.877,62.599 136.277,68.280 146.133 C 73.961 155.989,79.278 164.754,80.096 165.610 C 85.162 170.916,93.967 166.786,93.354 159.392 C 93.183 157.328,91.588 154.393,75.225 126.031 C 65.358 108.927,56.843 94.069,56.303 93.013 C 55.065 90.591,54.963 86.670,56.081 84.480 C 57.974 80.774,61.118 78.785,65.067 78.794 C 68.070 78.802,70.132 79.584,71.956 81.409 C 72.681 82.133,80.734 95.637,89.853 111.418 C 98.972 127.199,106.910 140.677,107.492 141.370 C 108.797 142.920,111.504 144.195,113.493 144.195 C 118.282 144.195,122.425 139.047,121.224 134.587 C 120.972 133.653,115.550 123.869,109.173 112.844 C 94.132 86.838,94.720 87.973,94.720 84.924 C 94.720 81.276,96.370 78.307,99.413 76.480 C 101.395 75.290,102.118 75.094,104.514 75.097 C 106.817 75.101,107.689 75.320,109.485 76.351 " stroke="none" fill-rule="evenodd"></path></svg>