<svg fill="currentColor" viewBox="0 0 256 256" xmlns="http://www.w3.org/2000/svg"><path d="M118.754 32.435 C 98.070 34.445,78.579 42.381,62.492 55.343 C 57.124 59.668,49.299 67.752,45.150 73.261 C 34.390 87.544,27.654 103.821,24.878 122.240 C 24.183 126.855,24.107 130.747,24.107 161.707 L 24.107 196.053 25.131 199.180 C 27.693 207.001,34.239 213.192,42.088 215.217 C 45.800 216.175,66.047 216.196,69.777 215.246 C 78.294 213.077,85.119 206.223,87.264 197.685 C 87.832 195.425,87.909 191.587,87.803 170.805 L 87.680 146.560 86.505 143.626 C 84.090 137.592,79.795 133.014,74.027 130.324 C 69.582 128.252,67.334 128.000,53.255 128.000 L 40.533 128.000 40.533 126.976 C 40.533 125.037,42.225 116.061,43.334 112.113 C 49.468 90.284,64.231 71.352,84.126 59.804 C 93.960 54.096,104.959 50.360,116.422 48.834 C 121.788 48.120,133.573 48.029,138.678 48.662 C 173.399 52.970,202.320 77.276,212.267 110.507 C 213.539 114.757,214.916 121.406,215.292 125.120 L 215.585 128.000 202.804 128.000 C 188.663 128.000,186.421 128.250,181.973 130.324 C 176.205 133.014,171.910 137.592,169.495 143.626 L 168.320 146.560 168.197 170.805 C 168.091 191.587,168.168 195.425,168.736 197.685 C 170.881 206.223,177.706 213.077,186.223 215.246 C 189.953 216.196,210.200 216.175,213.912 215.217 C 221.761 213.192,228.307 207.001,230.869 199.180 L 231.893 196.053 231.893 161.493 C 231.893 130.418,231.816 126.417,231.127 121.813 C 226.293 89.537,208.419 62.770,180.777 46.413 C 169.205 39.565,156.316 35.083,142.293 33.032 C 136.995 32.258,123.980 31.927,118.754 32.435 " stroke="none" fill-rule="evenodd"></path></svg>