<svg fill="currentColor" viewBox="0 0 256 256" xmlns="http://www.w3.org/2000/svg"><path d="M67.413 40.303 C 67.061 40.387,65.333 40.687,63.573 40.969 C 50.996 42.982,37.987 50.567,29.467 60.856 C 21.845 70.060,17.457 80.653,16.200 92.887 C 14.751 106.987,19.481 122.669,28.618 134.054 C 32.236 138.562,123.300 230.720,124.735 231.325 C 126.457 232.051,129.541 232.052,131.260 231.327 C 132.692 230.723,223.770 138.555,227.378 134.058 C 235.548 123.880,239.931 111.291,239.888 98.133 C 239.865 91.284,239.020 85.959,236.987 79.855 C 230.066 59.073,212.600 44.286,190.725 40.688 C 187.703 40.191,184.978 40.080,180.053 40.255 C 170.342 40.600,164.485 42.068,155.947 46.300 C 149.809 49.342,145.667 52.507,136.210 61.383 C 131.926 65.403,128.223 68.693,127.981 68.693 C 127.740 68.693,124.334 65.669,120.411 61.973 C 109.601 51.785,106.647 49.495,100.053 46.191 C 91.631 41.971,85.642 40.536,75.520 40.314 C 71.413 40.224,67.765 40.219,67.413 40.303 " stroke="none" fill-rule="evenodd"></path></svg>