<svg fill="currentColor" viewBox="0 0 256 256" xmlns="http://www.w3.org/2000/svg"><path d="M72.533 32.288 C 61.345 33.420,50.693 37.402,41.706 43.814 C 37.273 46.976,30.770 53.473,27.670 57.835 C 19.074 69.933,15.041 84.556,16.237 99.283 C 16.953 108.105,18.987 116.669,20.852 118.720 L 21.920 119.893 44.876 119.893 L 67.832 119.893 75.057 109.068 C 82.695 97.624,83.668 96.569,87.002 96.122 C 89.036 95.849,91.338 96.575,93.076 98.039 C 93.803 98.650,100.150 107.776,107.181 118.318 C 114.212 128.861,120.116 137.320,120.302 137.116 C 120.487 136.913,122.761 133.555,125.356 129.655 C 127.950 125.755,130.591 122.155,131.225 121.656 C 133.323 120.007,135.148 119.832,148.841 119.972 C 161.415 120.101,161.989 120.143,163.697 121.057 C 168.054 123.387,169.232 128.951,166.208 132.917 C 164.017 135.789,163.591 135.878,151.253 136.030 L 140.160 136.166 133.414 146.318 C 129.703 151.902,126.055 157.061,125.307 157.784 C 122.824 160.183,118.780 160.583,115.744 158.732 C 114.763 158.133,110.683 152.357,101.506 138.573 C 94.432 127.947,88.496 119.092,88.315 118.895 C 88.134 118.697,85.613 122.043,82.713 126.330 C 78.401 132.703,77.129 134.285,75.733 135.009 C 74.087 135.862,73.319 135.897,53.973 136.000 C 38.948 136.081,33.663 136.241,32.894 136.640 C 32.330 136.934,31.604 137.805,31.281 138.577 C 30.760 139.823,30.785 140.181,31.501 141.777 C 31.944 142.765,33.986 145.917,36.037 148.783 C 50.732 169.305,73.322 190.097,101.444 208.983 C 109.769 214.574,120.896 221.379,124.315 222.971 C 128.383 224.865,129.710 224.458,140.335 218.063 C 175.415 196.951,204.741 171.128,221.539 146.560 C 240.790 118.404,245.092 90.568,233.804 67.200 C 220.770 40.218,191.083 26.654,161.430 34.133 C 149.614 37.113,140.441 42.466,132.080 51.260 L 128.000 55.550 123.920 51.260 C 115.555 42.462,106.365 37.101,94.570 34.138 C 87.463 32.353,78.953 31.638,72.533 32.288 " stroke="none" fill-rule="evenodd"></path></svg>