<svg fill="currentColor" viewBox="0 0 256 256" xmlns="http://www.w3.org/2000/svg"><path d="M60.800 40.699 C 58.267 41.806,50.822 50.669,44.990 59.520 C 32.951 77.791,26.045 97.815,24.303 119.503 C 24.028 122.926,23.871 127.482,23.955 129.627 C 24.095 133.222,24.199 133.621,25.289 134.710 L 26.470 135.891 34.889 136.180 C 43.445 136.474,48.847 137.116,56.221 138.713 C 75.991 142.996,94.717 153.112,109.820 167.666 C 120.746 178.194,128.096 189.076,136.268 206.818 C 137.749 210.032,140.701 212.934,144.120 214.537 L 146.560 215.680 194.133 215.811 C 227.933 215.904,242.347 215.804,243.918 215.467 C 246.848 214.837,250.904 212.162,252.778 209.623 C 255.103 206.470,256.000 203.048,256.000 197.326 C 256.000 194.673,255.730 191.093,255.401 189.371 C 253.382 178.817,246.272 170.048,236.404 165.939 C 234.696 165.228,223.089 162.415,206.720 158.745 L 179.840 152.719 124.373 97.045 C 84.020 56.541,68.474 41.200,67.320 40.739 C 65.381 39.966,62.519 39.948,60.800 40.699 M26.619 152.311 C 26.123 152.512,25.307 153.197,24.806 153.835 C 23.899 154.988,23.893 155.144,23.893 178.101 C 23.893 202.612,23.976 203.787,25.986 207.693 C 27.184 210.022,30.563 213.191,33.264 214.518 L 35.627 215.680 55.902 215.680 L 76.178 215.680 78.995 214.293 C 82.334 212.649,84.956 209.972,86.545 206.581 L 87.680 204.160 87.806 187.581 C 87.914 173.336,87.840 170.862,87.284 170.014 C 85.794 167.740,71.692 160.190,63.843 157.463 C 55.608 154.602,47.585 152.979,38.413 152.317 C 31.515 151.820,27.841 151.818,26.619 152.311 " stroke="none" fill-rule="evenodd"></path></svg>