<svg fill="currentColor" viewBox="0 0 256 256" xmlns="http://www.w3.org/2000/svg"><path d="M82.308 32.804 C 79.331 33.763,76.442 35.725,74.536 38.082 C 72.306 40.839,17.464 123.272,16.797 124.869 C 16.476 125.637,16.213 127.057,16.213 128.023 C 16.213 130.035,38.486 212.163,39.786 214.946 C 41.168 217.904,44.113 220.832,47.272 222.387 L 50.115 223.787 66.977 223.787 L 83.840 223.787 86.445 222.583 C 89.739 221.060,93.026 217.760,94.593 214.400 C 95.777 211.861,95.788 211.758,95.922 201.920 L 96.057 192.000 128.000 192.000 L 159.943 192.000 160.078 201.920 C 160.212 211.758,160.223 211.861,161.407 214.400 C 162.974 217.760,166.261 221.060,169.555 222.583 L 172.160 223.787 189.013 223.787 L 205.867 223.787 208.288 222.652 C 211.161 221.305,214.267 218.556,215.722 216.073 C 217.142 213.650,239.828 130.704,239.833 127.920 C 239.835 126.820,239.513 125.295,239.119 124.533 C 238.724 123.770,225.592 103.934,209.935 80.453 C 191.373 52.615,180.831 37.186,179.639 36.111 C 178.632 35.204,176.730 33.956,175.411 33.338 L 173.013 32.213 128.853 32.125 C 87.351 32.041,84.550 32.082,82.308 32.804 M170.820 50.553 C 171.674 51.840,172.367 53.040,172.359 53.220 C 172.340 53.637,128.709 78.507,127.997 78.507 C 127.604 78.507,84.650 54.263,83.677 53.492 C 83.587 53.421,84.259 52.206,85.170 50.792 L 86.827 48.221 128.046 48.217 L 169.266 48.213 170.820 50.553 M65.408 182.400 C 67.672 187.252,72.817 191.185,77.760 191.841 L 79.787 192.110 79.787 200.162 L 79.787 208.213 66.999 208.213 L 54.211 208.213 53.570 205.973 C 51.722 199.517,32.853 130.014,32.853 129.666 C 32.853 129.440,39.813 118.757,48.320 105.924 L 63.787 82.593 64.000 131.216 L 64.213 179.840 65.408 182.400 M207.939 106.376 C 216.303 119.005,223.147 129.504,223.147 129.707 C 223.147 130.027,204.146 199.978,202.430 205.973 L 201.789 208.213 189.001 208.213 L 176.213 208.213 176.213 200.162 L 176.213 192.110 178.240 191.841 C 183.183 191.185,188.328 187.252,190.592 182.400 L 191.787 179.840 191.900 131.228 C 191.963 104.492,192.176 82.796,192.373 83.015 C 192.570 83.234,199.575 93.747,207.939 106.376 M116.646 88.468 C 117.498 89.118,118.577 90.399,119.044 91.314 C 119.860 92.914,119.893 93.856,119.893 115.413 C 119.893 136.838,119.856 137.921,119.059 139.483 C 117.917 141.722,115.909 143.305,113.780 143.645 C 112.801 143.802,111.904 143.914,111.787 143.896 C 111.669 143.877,110.868 143.749,110.006 143.611 C 108.075 143.302,106.046 141.649,104.941 139.483 C 104.144 137.921,104.107 136.838,104.107 115.413 C 104.107 94.241,104.152 92.890,104.915 91.396 C 106.529 88.232,108.829 86.940,112.482 87.142 C 114.544 87.257,115.426 87.537,116.646 88.468 M148.646 88.468 C 149.498 89.118,150.577 90.399,151.044 91.314 C 151.853 92.900,151.893 93.850,151.893 111.315 C 151.893 123.233,151.734 130.072,151.440 130.852 C 150.438 133.504,146.766 136.088,144.000 136.088 C 141.234 136.088,137.562 133.504,136.560 130.852 C 136.266 130.072,136.107 123.233,136.107 111.315 C 136.107 94.165,136.159 92.877,136.915 91.396 C 138.529 88.232,140.829 86.940,144.482 87.142 C 146.544 87.257,147.426 87.537,148.646 88.468 " stroke="none" fill-rule="evenodd"></path></svg>