<svg fill="currentColor" viewBox="0 0 256 256" xmlns="http://www.w3.org/2000/svg"><path d="M52.367 32.461 C 48.579 33.361,44.727 36.042,42.711 39.184 C 38.922 45.089,39.284 52.500,43.624 57.892 C 44.623 59.133,61.328 75.335,80.747 93.896 C 100.165 112.458,116.053 127.805,116.053 128.000 C 116.053 128.195,100.165 143.542,80.747 162.104 C 61.328 180.665,44.623 196.867,43.624 198.108 C 36.618 206.811,40.594 219.879,51.258 223.198 C 53.740 223.970,56.603 224.000,127.993 224.000 C 201.021 224.000,202.191 223.987,204.862 223.145 C 215.478 219.796,219.379 206.799,212.376 198.111 C 211.377 196.872,194.672 180.671,175.253 162.109 C 155.835 143.547,139.947 128.199,139.947 128.003 C 139.947 127.806,155.835 112.458,175.253 93.896 C 194.672 75.335,211.377 59.133,212.376 57.892 C 216.819 52.372,217.056 44.644,212.962 38.694 C 211.415 36.445,209.428 34.882,206.180 33.360 L 203.733 32.213 128.853 32.147 C 86.065 32.108,53.285 32.243,52.367 32.461 M198.817 49.218 C 198.236 49.770,182.045 65.252,162.838 83.622 L 127.917 117.023 123.372 112.546 C 120.047 109.272,63.872 55.517,56.972 49.007 C 56.151 48.233,57.907 48.213,128.002 48.213 L 199.874 48.213 198.817 49.218 M143.172 153.600 L 158.030 167.893 143.015 168.005 C 134.757 168.067,121.244 168.067,112.987 168.005 L 97.975 167.893 112.881 153.517 C 121.079 145.610,127.905 139.178,128.050 139.224 C 128.194 139.269,134.999 145.739,143.172 153.600 " stroke="none" fill-rule="evenodd"></path></svg>