<svg fill="currentColor" viewBox="0 0 256 256" xmlns="http://www.w3.org/2000/svg"><path d="M52.367 32.461 C 48.579 33.361,44.727 36.042,42.711 39.184 C 38.922 45.089,39.284 52.500,43.624 57.892 C 44.623 59.133,61.328 75.335,80.747 93.896 C 100.165 112.458,116.053 127.806,116.053 128.002 C 116.053 128.199,100.165 143.540,80.747 162.094 C 61.328 180.647,44.535 196.984,43.429 198.398 C 41.107 201.365,40.107 204.257,40.107 208.000 C 40.107 215.057,44.491 221.079,51.138 223.154 C 53.799 223.984,55.251 224.000,128.007 224.000 C 199.397 224.000,202.260 223.970,204.742 223.198 C 215.405 219.879,219.383 206.804,212.376 198.111 C 211.377 196.872,194.672 180.671,175.253 162.109 C 155.835 143.547,139.947 128.199,139.947 128.002 C 139.947 127.805,155.835 112.460,175.253 93.901 C 194.672 75.342,211.377 59.140,212.376 57.897 C 216.717 52.493,217.078 45.089,213.289 39.184 C 211.693 36.697,209.555 34.941,206.223 33.380 L 203.733 32.213 128.853 32.147 C 86.065 32.108,53.285 32.243,52.367 32.461 " stroke="none" fill-rule="evenodd"></path></svg>