<svg fill="currentColor" viewBox="0 0 256 256" xmlns="http://www.w3.org/2000/svg"><path d="M36.053 40.505 C 30.344 41.916,25.583 47.035,24.322 53.120 C 24.024 54.557,23.916 79.407,23.993 129.280 L 24.107 203.307 25.224 205.957 C 27.063 210.321,30.434 213.551,34.721 215.057 C 37.053 215.877,38.826 215.893,128.000 215.893 C 217.174 215.893,218.947 215.877,221.279 215.057 C 225.566 213.551,228.937 210.321,230.776 205.957 L 231.893 203.307 231.893 128.000 L 231.893 52.693 230.867 50.144 C 229.561 46.901,226.312 43.426,222.933 41.659 L 220.373 40.320 128.853 40.255 C 78.517 40.219,36.757 40.331,36.053 40.505 M160.721 88.975 C 162.745 89.808,165.803 92.819,166.877 95.036 C 168.263 97.900,168.194 102.298,166.718 105.173 C 162.993 112.430,154.034 114.181,147.954 108.843 C 143.176 104.647,142.876 96.458,147.331 91.803 C 148.897 90.166,151.440 88.737,153.600 88.282 C 155.448 87.892,158.909 88.229,160.721 88.975 M132.267 160.213 L 172.158 200.107 106.132 200.107 L 40.107 200.107 40.107 185.921 L 40.107 171.736 65.812 146.028 C 79.950 131.889,91.710 120.320,91.946 120.320 C 92.182 120.320,110.326 138.272,132.267 160.213 M197.438 162.665 L 215.893 181.116 215.893 190.611 L 215.893 200.107 205.335 200.107 L 194.777 200.107 176.749 182.083 L 158.721 164.059 168.637 154.136 C 174.091 148.679,178.650 144.213,178.768 144.213 C 178.886 144.213,187.288 152.517,197.438 162.665 " stroke="none" fill-rule="evenodd"></path></svg>