<svg fill="currentColor" viewBox="0 0 256 256" xmlns="http://www.w3.org/2000/svg"><path d="M36.053 40.505 C 30.344 41.916,25.583 47.035,24.322 53.120 C 24.024 54.557,23.916 79.407,23.993 129.280 L 24.107 203.307 25.224 205.957 C 27.063 210.321,30.434 213.551,34.721 215.057 C 37.053 215.877,38.826 215.893,128.000 215.893 C 217.174 215.893,218.947 215.877,221.279 215.057 C 225.566 213.551,228.937 210.321,230.776 205.957 L 231.893 203.307 231.893 128.000 L 231.893 52.693 230.867 50.144 C 229.561 46.901,226.312 43.426,222.933 41.659 L 220.373 40.320 128.853 40.255 C 78.517 40.219,36.757 40.331,36.053 40.505 M87.040 88.799 C 92.413 89.634,98.747 92.272,103.335 95.586 C 104.201 96.212,117.688 108.129,133.306 122.069 C 154.204 140.720,162.455 147.827,164.551 148.980 C 173.480 153.891,184.550 152.527,192.056 145.591 C 195.347 142.549,197.201 139.695,198.676 135.393 C 203.870 120.252,192.173 104.119,176.000 104.119 C 169.651 104.119,164.017 106.429,158.840 111.153 C 157.181 112.668,155.311 114.102,154.684 114.340 C 151.713 115.470,147.711 114.239,145.674 111.569 C 144.714 110.310,144.425 109.423,144.292 107.322 C 144.084 104.061,144.724 102.667,147.780 99.724 C 161.036 86.959,181.062 84.750,196.635 94.334 C 204.995 99.479,211.153 107.561,213.998 117.120 C 214.908 120.177,215.182 122.134,215.345 126.720 C 215.678 136.128,213.828 142.867,208.845 150.400 C 202.404 160.136,192.282 166.269,180.205 167.753 C 170.214 168.981,158.260 165.373,150.603 158.818 C 149.307 157.708,136.748 146.528,122.695 133.973 C 108.642 121.419,96.266 110.407,95.192 109.502 C 89.895 105.041,82.030 103.121,75.008 104.575 C 69.422 105.731,63.020 110.170,59.884 115.060 C 56.061 121.025,55.071 128.867,57.319 135.393 C 58.812 139.726,60.658 142.554,64.028 145.668 C 68.435 149.741,73.904 151.879,79.938 151.888 C 86.344 151.898,91.768 149.681,97.229 144.820 C 98.961 143.278,100.845 141.839,101.417 141.622 C 104.292 140.529,108.320 141.802,110.332 144.440 C 111.331 145.749,111.580 146.551,111.703 148.860 C 111.840 151.416,111.734 151.860,110.571 153.600 C 108.466 156.748,102.717 161.352,97.920 163.731 C 94.280 165.537,90.611 166.720,86.353 167.463 C 81.711 168.272,78.312 168.277,73.763 167.480 C 58.011 164.722,46.257 154.262,41.527 138.793 C 40.479 135.367,40.379 134.427,40.379 128.000 C 40.379 121.574,40.479 120.633,41.526 117.210 C 43.782 109.831,47.217 104.258,52.788 98.938 C 61.976 90.162,73.627 86.714,87.040 88.799 " stroke="none" fill-rule="evenodd"></path></svg>