<svg fill="currentColor" viewBox="0 0 256 256" xmlns="http://www.w3.org/2000/svg"><path d="M120.960 24.326 C 100.935 25.586,81.587 32.844,64.891 45.360 C 59.554 49.360,49.234 59.686,45.276 64.986 C 34.512 79.399,27.973 94.882,25.095 112.768 C 23.886 120.283,23.787 134.307,24.890 141.867 C 27.542 160.046,34.293 176.318,45.279 191.014 C 49.299 196.392,59.608 206.701,64.986 210.721 C 79.686 221.710,96.000 228.476,114.133 231.105 C 117.683 231.620,121.936 231.847,128.000 231.847 C 144.598 231.847,158.874 228.583,173.440 221.458 C 184.661 215.968,192.320 210.472,201.396 201.396 C 210.475 192.317,215.974 184.654,221.456 173.440 C 235.707 144.287,235.458 110.173,220.780 81.026 C 214.698 68.950,203.517 55.194,193.067 46.931 C 172.349 30.550,147.221 22.673,120.960 24.326 M128.088 72.770 C 132.659 74.328,135.869 78.989,135.838 84.024 C 135.810 88.642,133.651 92.319,129.708 94.465 C 121.777 98.781,112.158 93.045,112.250 84.053 C 112.266 82.528,112.504 80.669,112.779 79.921 C 115.022 73.838,121.854 70.646,128.088 72.770 M126.910 113.672 C 131.576 115.963,134.693 120.084,135.642 125.216 C 135.935 126.802,136.107 135.177,136.107 147.918 C 136.107 167.954,136.113 168.107,136.977 168.107 C 138.446 168.107,141.114 169.723,142.375 171.376 C 143.433 172.763,143.573 173.308,143.573 176.034 C 143.573 178.834,143.453 179.269,142.283 180.715 C 140.180 183.314,138.559 183.980,134.827 183.779 C 127.609 183.392,121.712 178.080,120.326 170.715 C 120.072 169.367,119.893 160.100,119.893 148.297 L 119.893 128.177 118.064 127.688 C 114.407 126.710,112.213 123.786,112.213 119.889 C 112.213 117.434,112.868 115.920,114.629 114.297 C 116.682 112.405,117.371 112.189,120.960 112.311 C 123.717 112.404,124.861 112.666,126.910 113.672 " stroke="none" fill-rule="evenodd"></path></svg>