<svg fill="currentColor" viewBox="0 0 256 256" xmlns="http://www.w3.org/2000/svg"><path d="M74.667 24.314 C 59.443 25.838,45.137 33.662,36.114 45.400 C 31.382 51.557,29.517 54.962,27.140 61.792 C 23.935 70.999,24.107 67.256,24.107 128.000 C 24.107 178.484,24.161 182.668,24.866 186.129 C 25.764 190.536,28.132 197.524,29.946 201.116 C 35.205 211.535,44.462 220.797,54.856 226.039 C 58.313 227.783,64.288 229.873,68.907 230.954 C 72.680 231.837,73.651 231.855,124.800 232.008 C 160.406 232.114,178.294 232.016,181.414 231.697 C 207.877 228.996,228.629 208.459,231.660 181.973 C 232.271 176.639,232.263 79.450,231.652 73.968 C 229.809 57.443,220.816 42.714,206.918 33.463 C 200.692 29.317,194.707 26.810,186.880 25.068 C 182.887 24.180,182.049 24.165,130.347 24.080 C 101.483 24.033,76.427 24.138,74.667 24.314 M192.721 56.975 C 194.745 57.808,197.803 60.819,198.877 63.036 C 200.263 65.900,200.194 70.298,198.718 73.173 C 194.993 80.430,186.034 82.181,179.954 76.843 C 175.176 72.647,174.876 64.458,179.331 59.803 C 180.897 58.166,183.440 56.737,185.600 56.282 C 187.448 55.892,190.909 56.229,192.721 56.975 M136.584 80.840 C 156.334 84.298,172.483 100.892,175.380 120.704 C 176.094 125.591,175.676 135.326,174.572 139.520 C 170.630 154.490,159.936 166.874,146.198 172.375 C 122.672 181.795,96.617 172.039,85.234 149.547 C 81.675 142.516,80.213 136.241,80.213 128.000 C 80.213 119.528,81.722 113.264,85.543 105.864 C 92.238 92.902,104.985 83.421,119.183 80.845 C 123.382 80.083,132.248 80.080,136.584 80.840 M122.699 96.423 C 115.497 97.729,108.336 101.869,103.498 107.524 C 95.861 116.452,93.932 129.071,98.492 140.277 C 101.558 147.811,108.189 154.442,115.723 157.508 C 127.881 162.456,141.348 159.769,150.559 150.559 C 162.541 138.577,163.146 119.596,151.952 106.880 C 148.234 102.656,141.615 98.553,136.067 97.033 C 133.235 96.257,125.548 95.906,122.699 96.423 " stroke="none" fill-rule="evenodd"></path></svg>