<svg fill="currentColor" viewBox="0 0 256 256" xmlns="http://www.w3.org/2000/svg"><path d="M36.907 32.809 C 34.738 33.813,32.954 35.708,32.418 37.576 C 32.154 38.498,32.000 61.508,32.000 100.171 C 32.000 154.387,32.075 161.486,32.660 162.888 C 33.541 164.996,34.841 166.347,36.907 167.300 C 38.503 168.037,40.210 168.089,63.253 168.097 L 87.893 168.107 87.893 192.654 C 87.893 213.845,87.984 217.417,88.554 218.781 C 89.435 220.890,90.735 222.240,92.800 223.194 C 94.434 223.948,97.117 223.982,155.733 223.988 C 194.519 223.993,217.513 223.842,218.468 223.576 C 220.357 223.052,223.025 220.366,223.579 218.432 C 223.847 217.499,224.000 194.713,224.000 155.829 C 224.000 89.442,224.126 93.081,221.740 90.525 C 219.405 88.025,220.449 88.117,193.173 87.984 L 168.107 87.861 168.097 63.237 C 168.089 40.210,168.037 38.503,167.300 36.907 C 166.347 34.841,164.996 33.541,162.888 32.660 C 161.486 32.075,154.381 32.001,99.960 32.009 C 41.158 32.018,38.543 32.052,36.907 32.809 M151.893 68.039 L 151.893 87.865 122.703 87.986 L 93.513 88.107 91.684 89.393 C 90.677 90.100,89.461 91.348,88.980 92.166 C 88.126 93.620,88.104 94.305,87.989 122.773 L 87.871 151.893 68.042 151.893 L 48.213 151.893 48.213 100.053 L 48.213 48.213 100.053 48.213 L 151.893 48.213 151.893 68.039 M207.787 156.160 L 207.787 208.213 155.947 208.213 L 104.107 208.213 104.107 188.160 L 104.107 168.107 132.373 168.104 C 151.681 168.103,161.178 167.953,162.337 167.631 C 164.512 167.027,167.027 164.512,167.631 162.337 C 167.953 161.178,168.103 151.681,168.104 132.373 L 168.107 104.107 187.947 104.107 L 207.787 104.107 207.787 156.160 " stroke="none" fill-rule="evenodd"></path></svg>