<svg fill="currentColor" viewBox="0 0 256 256" xmlns="http://www.w3.org/2000/svg"><path d="M61.979 24.299 C 60.155 24.745,57.781 26.592,56.853 28.289 C 56.149 29.575,56.100 35.241,55.996 127.088 C 55.917 197.174,56.018 225.013,56.357 226.272 C 57.963 232.235,66.085 233.917,70.119 229.122 C 71.658 227.293,72.102 225.316,72.104 220.267 L 72.107 215.893 128.000 215.893 L 183.893 215.893 183.896 220.267 C 183.899 225.701,184.411 227.605,186.409 229.603 C 190.724 233.918,198.099 232.004,199.672 226.161 C 199.972 225.048,200.079 193.228,200.004 127.088 C 199.893 29.760,199.892 29.652,199.020 28.166 C 198.539 27.348,197.345 26.116,196.367 25.428 C 194.873 24.378,194.172 24.178,192.000 24.178 C 189.828 24.178,189.127 24.378,187.633 25.428 C 184.650 27.525,184.129 28.863,183.956 34.880 L 183.806 40.107 128.000 40.107 L 72.194 40.107 72.044 34.880 C 71.919 30.560,71.742 29.395,71.020 28.166 C 69.268 25.184,65.303 23.488,61.979 24.299 M179.413 72.909 C 181.443 73.841,182.353 74.793,183.237 76.909 C 184.072 78.907,184.072 81.093,183.237 83.091 C 182.353 85.207,181.443 86.159,179.413 87.091 C 177.789 87.837,175.322 87.875,128.093 87.884 C 74.899 87.894,76.902 87.970,74.515 85.850 C 72.355 83.932,71.549 79.815,72.763 76.909 C 73.647 74.793,74.557 73.841,76.587 72.909 C 78.212 72.163,80.669 72.125,128.000 72.125 C 175.331 72.125,177.788 72.163,179.413 72.909 M179.413 120.815 C 185.620 124.251,185.381 132.337,178.987 135.298 C 177.357 136.052,175.068 136.088,128.000 136.088 C 80.932 136.088,78.643 136.052,77.013 135.298 C 71.458 132.726,70.350 126.061,74.824 122.133 C 75.685 121.377,76.913 120.643,77.554 120.502 C 78.196 120.361,78.912 120.179,79.147 120.098 C 79.381 120.018,101.749 119.987,128.853 120.029 C 173.889 120.100,178.244 120.168,179.413 120.815 M179.413 168.909 C 181.443 169.841,182.353 170.793,183.237 172.909 C 184.072 174.907,184.072 177.093,183.237 179.091 C 182.353 181.207,181.443 182.159,179.413 183.091 C 177.789 183.837,175.322 183.875,128.093 183.884 C 74.899 183.894,76.902 183.970,74.515 181.850 C 72.355 179.932,71.549 175.815,72.763 172.909 C 73.647 170.793,74.557 169.841,76.587 168.909 C 78.212 168.163,80.669 168.125,128.000 168.125 C 175.331 168.125,177.788 168.163,179.413 168.909 " stroke="none" fill-rule="evenodd"></path></svg>