<svg fill="currentColor" viewBox="0 0 256 256" xmlns="http://www.w3.org/2000/svg"><path d="M49.736 48.867 C 43.624 50.544,37.312 55.645,34.676 61.036 C 31.903 66.709,32.013 64.317,32.006 118.720 L 32.000 168.107 27.076 168.107 C 21.577 168.107,19.811 168.670,17.791 171.070 C 16.016 173.180,15.655 176.159,15.901 186.667 C 16.139 196.847,16.423 198.435,18.881 203.307 C 20.783 207.078,25.438 211.545,29.440 213.441 C 31.200 214.275,33.657 215.168,34.901 215.425 C 38.097 216.087,217.903 216.087,221.099 215.425 C 229.331 213.721,236.453 207.002,239.145 198.400 C 239.709 196.599,239.931 193.872,240.099 186.667 C 240.345 176.159,239.984 173.180,238.209 171.070 C 236.189 168.670,234.423 168.107,228.924 168.107 L 224.000 168.107 223.994 118.720 C 223.988 76.739,223.893 68.934,223.359 66.669 C 221.338 58.098,214.555 51.103,206.077 48.847 C 202.704 47.950,53.009 47.969,49.736 48.867 M147.413 72.909 C 149.443 73.841,150.353 74.793,151.237 76.909 C 152.072 78.907,152.072 81.093,151.237 83.091 C 150.353 85.207,149.443 86.159,147.413 87.091 C 145.846 87.811,144.269 87.875,128.093 87.884 C 109.469 87.894,108.739 87.825,106.515 85.850 C 104.355 83.932,103.549 79.815,104.763 76.909 C 105.647 74.793,106.557 73.841,108.587 72.909 C 110.156 72.189,111.722 72.125,128.000 72.125 C 144.278 72.125,145.844 72.189,147.413 72.909 M223.991 188.693 C 223.980 193.907,223.382 196.010,221.384 197.846 C 218.760 200.258,225.031 200.107,128.000 200.107 C 30.969 200.107,37.240 200.258,34.616 197.846 C 32.618 196.010,32.020 193.907,32.009 188.693 L 32.000 183.893 128.000 183.893 L 224.000 183.893 223.991 188.693 " stroke="none" fill-rule="evenodd"></path></svg>