<svg fill="currentColor" viewBox="0 0 256 256" xmlns="http://www.w3.org/2000/svg"><path d="M181.782 32.429 C 137.741 35.055,101.817 46.987,76.376 67.440 C 58.943 81.455,46.939 99.881,42.290 119.764 C 38.509 135.932,39.614 154.476,45.353 171.175 C 46.932 175.770,47.312 176.490,48.527 177.193 C 49.487 177.748,50.299 177.904,51.197 177.707 C 52.183 177.491,62.595 167.163,95.430 133.832 C 119.048 109.856,139.148 89.767,140.095 89.188 C 144.877 86.268,151.330 89.635,151.799 95.297 C 151.935 96.938,151.771 98.049,151.221 99.208 C 150.732 100.238,130.642 120.926,96.026 156.043 C 62.107 190.455,41.323 211.851,40.865 212.830 C 38.585 217.697,41.910 223.380,47.343 223.902 C 50.788 224.233,52.220 223.215,61.794 213.625 L 70.468 204.937 75.234 207.004 C 102.117 218.665,129.719 218.880,153.786 207.616 C 164.303 202.693,175.877 193.987,184.191 184.747 C 206.283 160.189,219.056 126.201,223.236 80.853 C 224.001 72.557,223.968 41.059,223.192 38.400 C 222.448 35.852,220.031 33.564,217.378 32.896 C 214.797 32.246,190.254 31.924,181.782 32.429 " stroke="none" fill-rule="evenodd"></path></svg>