<svg fill="currentColor" viewBox="0 0 256 256" xmlns="http://www.w3.org/2000/svg"><path d="M156.800 8.714 C 156.096 9.029,155.091 9.698,154.567 10.201 C 150.855 13.757,41.446 131.374,40.871 132.426 C 39.984 134.050,39.898 137.352,40.694 139.214 C 42.007 142.281,42.366 142.445,73.233 154.032 C 101.030 164.466,102.607 165.114,102.500 166.050 C 102.437 166.595,99.106 183.459,95.096 203.526 C 86.979 244.154,87.248 241.890,90.145 245.189 C 92.421 247.782,95.999 248.629,99.107 247.311 C 100.895 246.553,99.968 247.530,161.281 181.843 C 190.262 150.796,214.405 124.606,214.933 123.643 C 216.654 120.506,216.025 116.712,213.361 114.159 C 212.453 113.290,204.728 110.212,182.767 101.968 C 154.972 91.534,153.393 90.886,153.500 89.950 C 153.562 89.405,156.897 72.544,160.911 52.480 C 167.623 18.936,168.171 15.852,167.727 14.163 C 167.461 13.153,166.826 11.760,166.314 11.069 C 164.411 8.495,159.823 7.359,156.800 8.714 " stroke="none" fill-rule="evenodd"></path></svg>