<svg fill="currentColor" viewBox="0 0 256 256" xmlns="http://www.w3.org/2000/svg"><path d="M156.800 8.752 C 154.934 9.756,155.079 9.606,130.625 35.747 C 118.269 48.955,107.728 60.553,107.200 61.521 C 106.130 63.482,105.954 66.451,106.793 68.386 C 107.075 69.038,123.819 87.740,144.000 109.945 C 184.126 154.096,182.254 152.257,186.571 151.746 C 187.890 151.589,189.227 151.080,190.135 150.387 C 192.671 148.453,214.368 125.014,215.135 123.379 C 216.028 121.480,216.101 118.644,215.306 116.786 C 213.993 113.719,213.634 113.555,182.767 101.968 C 154.972 91.534,153.393 90.886,153.500 89.950 C 153.562 89.405,156.884 72.595,160.881 52.594 C 166.037 26.792,168.069 15.806,167.876 14.777 C 167.500 12.774,166.331 10.983,164.475 9.567 C 162.509 8.068,158.803 7.674,156.800 8.752 M44.587 32.806 C 42.612 33.718,41.209 35.120,40.562 36.828 C 39.963 38.408,40.014 41.724,40.659 43.210 C 40.942 43.861,50.101 54.194,61.013 66.172 C 71.925 78.150,80.853 88.192,80.853 88.488 C 80.853 88.784,72.021 98.491,61.227 110.060 C 50.432 121.629,41.272 131.695,40.871 132.428 C 39.984 134.050,39.898 137.352,40.694 139.214 C 42.007 142.281,42.366 142.445,73.233 154.032 C 101.030 164.466,102.607 165.114,102.500 166.050 C 102.437 166.595,99.106 183.459,95.096 203.526 C 86.979 244.154,87.248 241.890,90.145 245.189 C 93.030 248.476,97.984 248.866,101.077 246.052 C 101.640 245.539,115.540 230.720,131.965 213.120 C 148.390 195.520,162.248 180.678,162.760 180.137 L 163.691 179.155 183.470 200.922 C 198.973 217.984,203.602 222.831,204.886 223.345 C 208.399 224.750,212.198 223.725,214.458 220.762 C 215.913 218.855,216.328 215.175,215.346 212.893 C 214.354 210.590,53.738 34.141,51.558 32.960 C 49.401 31.792,46.904 31.737,44.587 32.806 " stroke="none" fill-rule="evenodd"></path></svg>