<svg fill="currentColor" viewBox="0 0 256 256" xmlns="http://www.w3.org/2000/svg"><path d="M119.806 8.747 C 105.308 11.186,91.939 21.029,85.335 34.128 C 83.297 38.169,81.941 41.948,80.968 46.293 C 80.225 49.617,80.082 52.154,79.904 65.160 L 79.698 80.187 61.706 80.307 L 43.714 80.427 40.866 81.829 C 37.565 83.455,34.982 86.117,33.328 89.600 L 32.213 91.947 32.213 151.893 L 32.213 211.840 33.407 214.400 C 34.974 217.760,38.261 221.060,41.555 222.583 L 44.160 223.787 128.000 223.787 L 211.840 223.787 214.445 222.583 C 217.739 221.060,221.026 217.760,222.593 214.400 L 223.787 211.840 223.787 151.893 L 223.787 91.947 222.672 89.600 C 221.018 86.117,218.435 83.455,215.134 81.829 L 212.286 80.427 194.298 80.307 L 176.309 80.187 176.095 65.160 C 175.911 52.213,175.763 49.602,175.027 46.293 C 171.282 29.465,159.670 16.301,143.627 10.696 C 136.559 8.227,127.369 7.475,119.806 8.747 M135.565 24.993 C 144.157 26.903,152.255 33.343,156.333 41.510 C 159.627 48.105,159.699 48.594,159.895 65.387 L 160.068 80.213 128.004 80.213 L 95.941 80.213 96.104 65.387 C 96.289 48.593,96.357 48.138,99.667 41.510 C 100.915 39.010,102.564 36.560,104.200 34.775 C 112.397 25.828,123.602 22.334,135.565 24.993 M187.644 113.021 C 188.514 113.466,189.555 114.193,189.957 114.637 C 190.999 115.789,192.000 118.365,192.000 119.893 C 192.000 122.968,189.238 126.807,186.472 127.575 C 184.409 128.148,71.591 128.148,69.528 127.575 C 66.718 126.795,63.988 122.949,64.009 119.800 C 64.021 118.135,65.263 115.264,66.393 114.293 C 68.915 112.127,65.280 112.249,127.910 112.230 C 184.148 112.214,186.113 112.240,187.644 113.021 M187.644 145.021 C 188.514 145.466,189.555 146.193,189.957 146.637 C 190.999 147.789,192.000 150.365,192.000 151.893 C 192.000 154.968,189.238 158.807,186.472 159.575 C 184.409 160.148,71.591 160.148,69.528 159.575 C 66.718 158.795,63.988 154.949,64.009 151.800 C 64.021 150.135,65.263 147.264,66.393 146.293 C 68.915 144.127,65.280 144.249,127.910 144.230 C 184.148 144.214,186.113 144.240,187.644 145.021 M187.644 177.021 C 188.514 177.466,189.555 178.193,189.957 178.637 C 190.999 179.789,192.000 182.365,192.000 183.893 C 192.000 186.968,189.238 190.807,186.472 191.575 C 184.409 192.148,71.591 192.148,69.528 191.575 C 66.718 190.795,63.988 186.949,64.009 183.800 C 64.021 182.135,65.263 179.264,66.393 178.293 C 68.915 176.127,65.280 176.249,127.910 176.230 C 184.148 176.214,186.113 176.240,187.644 177.021 " stroke="none" fill-rule="evenodd"></path></svg>