<svg fill="currentColor" viewBox="0 0 256 256" xmlns="http://www.w3.org/2000/svg"><path d="M119.680 8.758 C 104.741 11.529,91.897 21.089,85.180 34.439 C 84.327 36.133,83.133 38.998,82.526 40.807 C 80.355 47.276,80.150 49.179,79.914 65.160 L 79.691 80.187 61.702 80.307 L 43.714 80.427 40.866 81.829 C 37.565 83.455,34.982 86.117,33.328 89.600 L 32.213 91.947 32.213 151.893 L 32.213 211.840 33.407 214.400 C 34.974 217.760,38.261 221.060,41.555 222.583 L 44.160 223.787 128.000 223.787 L 211.840 223.787 214.445 222.583 C 217.739 221.060,221.026 217.760,222.593 214.400 L 223.787 211.840 223.787 151.893 L 223.787 91.947 222.672 89.600 C 221.018 86.117,218.435 83.454,215.133 81.829 L 212.285 80.427 154.113 80.315 L 95.941 80.204 96.104 65.382 C 96.289 48.594,96.357 48.138,99.667 41.510 C 103.775 33.283,111.672 27.032,120.649 24.902 C 124.783 23.921,132.022 24.026,136.223 25.127 C 141.351 26.471,146.677 29.441,150.630 33.160 C 155.437 37.682,158.309 42.606,160.201 49.571 C 161.617 54.781,166.596 57.239,171.356 55.077 C 173.472 54.116,175.176 52.003,175.692 49.698 C 176.192 47.468,175.328 43.208,173.413 38.456 C 167.610 24.067,155.458 13.529,140.072 9.545 C 134.710 8.157,124.953 7.780,119.680 8.758 " stroke="none" fill-rule="evenodd"></path></svg>