<svg fill="currentColor" viewBox="0 0 256 256" xmlns="http://www.w3.org/2000/svg"><path d="M137.600 24.307 C 120.059 25.635,103.244 32.219,89.660 43.077 C 87.398 44.886,76.907 55.085,66.347 65.742 C 16.500 116.048,18.882 113.580,17.723 116.112 C 16.157 119.532,15.644 122.770,16.196 125.760 C 17.116 130.756,17.618 131.365,35.502 149.173 C 51.218 164.822,52.427 165.927,54.827 166.831 C 59.929 168.753,66.235 167.834,70.348 164.569 C 71.297 163.816,85.148 149.760,101.128 133.333 C 117.108 116.907,131.268 102.430,132.593 101.163 C 133.948 99.868,136.226 98.282,137.795 97.541 C 140.256 96.379,141.016 96.226,144.213 96.249 C 150.636 96.296,155.323 99.074,158.326 104.613 C 159.726 107.194,159.787 107.494,159.787 111.796 C 159.787 119.789,162.102 117.053,124.881 153.037 C 107.236 170.095,92.080 184.996,91.199 186.150 C 87.500 190.998,87.272 198.665,90.672 203.916 C 92.054 206.051,123.174 236.901,125.091 238.037 C 127.507 239.468,132.048 240.274,134.995 239.794 C 139.820 239.009,141.455 237.883,150.294 229.266 C 188.740 191.781,208.789 172.003,210.773 169.604 C 220.882 157.379,227.244 144.076,230.363 128.640 C 234.428 108.527,230.776 86.102,220.518 68.180 C 210.399 50.502,193.820 36.500,174.507 29.321 C 163.856 25.363,149.467 23.407,137.600 24.307 M89.494 122.108 C 89.435 122.272,82.955 129.024,75.093 137.112 L 60.800 151.819 46.413 137.471 L 32.026 123.124 46.626 108.361 L 61.227 93.598 75.414 107.704 C 83.217 115.462,89.553 121.944,89.494 122.108 M148.696 180.506 L 162.773 194.612 147.840 209.279 L 132.907 223.945 118.564 209.633 L 104.222 195.320 111.098 188.629 C 127.482 172.683,134.048 166.400,134.323 166.400 C 134.486 166.400,140.953 172.748,148.696 180.506 " stroke="none" fill-rule="evenodd"></path></svg>