<svg fill="currentColor" viewBox="0 0 256 256" xmlns="http://www.w3.org/2000/svg"><path d="M20.644 32.816 C 16.514 34.692,14.887 39.732,17.047 43.957 C 17.344 44.538,40.606 68.055,68.740 96.217 L 119.893 147.422 119.893 177.817 L 119.893 208.213 102.805 208.213 C 88.719 208.213,85.508 208.322,84.522 208.832 C 82.901 209.670,80.709 212.236,80.397 213.661 C 80.257 214.302,80.077 215.043,79.998 215.307 C 79.698 216.307,80.731 219.559,81.788 220.945 C 82.393 221.737,83.678 222.745,84.644 223.184 C 86.321 223.945,88.281 223.981,128.000 223.981 C 167.719 223.981,169.679 223.945,171.356 223.184 C 175.353 221.369,177.124 216.111,175.037 212.257 C 174.340 210.970,172.300 209.174,170.959 208.667 C 170.184 208.374,163.783 208.213,152.932 208.213 L 136.107 208.213 136.107 177.817 L 136.107 147.422 187.260 96.217 C 215.394 68.055,238.656 44.538,238.953 43.957 C 241.113 39.732,239.486 34.692,235.356 32.816 C 233.656 32.044,230.226 32.019,128.000 32.019 C 25.774 32.019,22.344 32.044,20.644 32.816 M204.373 56.107 L 196.489 64.000 128.000 64.000 L 59.511 64.000 51.627 56.107 L 43.742 48.213 128.000 48.213 L 212.258 48.213 204.373 56.107 " stroke="none" fill-rule="evenodd"></path></svg>