<svg fill="currentColor" viewBox="0 0 256 256" xmlns="http://www.w3.org/2000/svg"><path d="M44.260 32.437 C 39.847 33.551,35.387 37.289,33.440 41.505 L 32.213 44.160 32.081 76.800 C 31.923 115.986,32.275 122.958,35.224 138.955 C 43.657 184.712,69.530 222.159,101.334 234.641 C 111.762 238.734,118.935 239.989,130.133 239.681 C 140.787 239.388,148.953 237.458,158.620 232.948 C 188.769 218.881,212.720 182.662,220.776 138.955 C 223.728 122.944,224.080 115.974,223.920 76.800 L 223.787 44.160 222.560 41.505 C 221.056 38.248,217.723 34.967,214.294 33.370 C 212.180 32.385,211.308 32.231,208.000 32.257 C 204.418 32.285,203.725 32.449,197.687 34.697 C 185.203 39.344,168.502 43.642,155.307 45.604 C 145.095 47.122,139.103 47.549,128.000 47.549 C 116.897 47.549,110.905 47.122,100.693 45.604 C 87.644 43.664,71.136 39.431,58.313 34.737 C 51.444 32.223,47.601 31.594,44.260 32.437 M146.417 112.400 C 147.043 112.531,148.579 113.519,149.831 114.595 C 153.966 118.151,158.690 119.893,164.200 119.893 C 167.993 119.893,173.246 118.297,175.771 116.376 C 181.473 112.039,181.310 112.116,184.367 112.289 C 187.751 112.480,189.923 113.867,191.184 116.644 C 192.709 120.003,192.064 122.862,189.064 126.026 C 185.277 130.020,178.857 133.456,172.101 135.104 C 167.686 136.182,159.917 136.094,155.178 134.914 C 147.087 132.899,139.182 128.019,136.924 123.644 C 135.943 121.744,135.845 118.224,136.725 116.522 C 137.513 114.999,140.103 112.713,141.341 112.449 C 143.911 111.902,144.033 111.901,146.417 112.400 M76.488 113.600 C 77.541 114.363,79.225 115.612,80.229 116.376 C 81.234 117.141,83.571 118.245,85.423 118.830 C 92.673 121.120,100.463 119.595,105.869 114.827 C 108.281 112.699,109.487 112.213,112.348 112.215 C 114.960 112.217,116.689 113.132,118.457 115.450 C 119.520 116.844,119.680 117.425,119.680 119.891 C 119.680 122.275,119.492 123.014,118.503 124.508 C 115.146 129.580,105.779 134.338,96.470 135.699 C 86.358 137.178,73.940 133.206,67.011 126.277 C 64.048 123.314,63.284 120.000,64.802 116.693 C 66.194 113.663,68.567 112.220,72.167 112.216 C 74.207 112.214,74.865 112.424,76.488 113.600 M139.520 169.354 C 143.506 170.336,152.881 174.779,156.300 177.307 C 160.904 180.711,161.159 186.409,156.876 190.169 C 153.814 192.858,150.942 192.617,145.197 189.188 C 140.239 186.229,136.366 184.835,131.608 184.294 C 124.280 183.461,117.898 184.955,110.876 189.145 C 106.496 191.758,104.194 192.376,101.793 191.584 C 98.373 190.455,96.305 187.634,96.305 184.096 C 96.305 179.663,98.141 177.703,106.240 173.492 C 114.605 169.143,119.458 168.049,129.280 168.295 C 134.090 168.416,136.882 168.705,139.520 169.354 " stroke="none" fill-rule="evenodd"></path></svg>