<svg fill="currentColor" viewBox="0 0 256 256" xmlns="http://www.w3.org/2000/svg"><path d="M37.171 24.374 C 30.879 25.419,25.685 30.525,24.305 37.022 C 24.024 38.344,23.916 67.361,23.992 121.173 L 24.107 203.307 25.103 205.775 C 26.411 209.017,29.919 212.791,33.140 214.421 C 35.400 215.565,36.015 215.680,39.893 215.680 C 45.184 215.680,47.096 214.881,52.693 210.333 C 64.380 200.835,75.279 193.826,89.173 186.871 C 106.580 178.157,123.429 172.570,142.370 169.232 L 143.727 168.993 143.875 186.363 C 144.018 203.224,144.051 203.804,144.986 206.145 C 146.735 210.521,148.375 212.137,156.634 217.620 C 164.654 222.944,167.011 224.000,170.880 224.000 C 177.001 224.000,183.410 219.901,185.615 214.576 C 185.942 213.789,188.910 202.963,192.211 190.519 L 198.215 167.893 200.761 167.331 C 209.187 165.468,215.556 162.615,221.653 157.971 C 233.241 149.146,240.238 135.110,240.316 120.533 C 240.348 114.598,239.738 110.495,238.054 105.321 C 233.467 91.230,222.767 80.068,209.046 75.061 C 201.765 72.403,202.202 72.440,173.653 72.107 C 147.969 71.808,147.287 71.778,141.427 70.703 C 126.461 67.958,111.277 63.250,96.996 56.929 C 80.984 49.842,66.878 41.126,51.659 28.916 C 46.538 24.808,42.392 23.508,37.171 24.374 M199.570 88.895 C 210.889 91.844,220.093 100.995,223.025 112.213 C 224.023 116.035,224.002 124.250,222.984 128.000 C 220.062 138.761,212.086 147.050,201.173 150.665 C 198.259 151.631,197.724 151.658,179.093 151.798 L 160.000 151.942 160.000 119.879 L 160.000 87.817 178.453 88.008 C 193.666 88.167,197.374 88.322,199.570 88.895 M181.333 168.545 C 181.333 169.133,171.131 207.465,170.917 207.678 C 170.825 207.770,168.336 206.248,165.386 204.296 L 160.021 200.747 160.011 184.427 L 160.000 168.107 170.667 168.107 C 177.679 168.107,181.333 168.257,181.333 168.545 " stroke="none" fill-rule="evenodd"></path></svg>