<svg fill="currentColor" viewBox="0 0 256 256" xmlns="http://www.w3.org/2000/svg"><path d="M120.960 24.326 C 100.935 25.586,81.587 32.844,64.891 45.360 C 59.554 49.360,49.234 59.686,45.276 64.986 C 34.512 79.399,27.973 94.882,25.095 112.768 C 23.886 120.283,23.787 134.307,24.890 141.867 C 27.542 160.046,34.293 176.318,45.279 191.014 C 49.299 196.392,59.608 206.701,64.986 210.721 C 79.686 221.710,96.000 228.476,114.133 231.105 C 117.683 231.620,121.936 231.847,128.000 231.847 C 144.598 231.847,158.874 228.583,173.440 221.458 C 184.661 215.968,192.320 210.472,201.396 201.396 C 210.475 192.317,215.974 184.654,221.456 173.440 C 235.707 144.287,235.458 110.173,220.780 81.026 C 214.698 68.950,203.517 55.194,193.067 46.931 C 172.349 30.550,147.221 22.673,120.960 24.326 M96.271 72.736 C 107.375 75.355,117.361 85.144,129.577 105.387 C 131.206 108.085,136.155 116.725,140.576 124.587 C 153.282 147.181,158.758 155.457,165.296 161.947 C 170.703 167.314,174.713 168.863,179.774 167.539 C 185.426 166.060,188.575 162.109,190.745 153.775 C 191.872 149.448,192.274 140.795,191.623 134.867 C 189.760 117.892,182.760 100.742,174.434 92.752 C 167.785 86.372,162.723 86.540,155.210 93.388 C 153.434 95.007,151.266 96.567,150.393 96.856 C 146.749 98.058,142.493 96.297,140.852 92.907 C 138.947 88.973,140.008 85.637,144.457 81.560 C 151.997 74.651,159.079 71.708,166.951 72.213 C 174.030 72.668,179.748 75.560,186.063 81.880 C 195.757 91.583,202.834 106.741,206.306 125.241 C 207.688 132.600,208.196 144.781,207.390 151.187 C 205.354 167.364,197.606 178.648,185.938 182.432 C 181.285 183.941,174.320 184.325,170.232 183.299 C 162.141 181.268,154.326 175.113,146.333 164.480 C 140.835 157.166,137.395 151.482,123.091 126.080 C 113.255 108.613,107.519 100.155,101.371 94.053 C 95.589 88.314,90.844 86.786,86.195 89.166 C 81.562 91.538,76.042 98.437,72.150 106.723 C 65.063 121.810,62.141 141.756,65.252 153.813 C 67.750 163.494,72.166 167.832,79.573 167.877 C 85.582 167.915,91.674 162.653,100.477 149.824 C 102.304 147.161,104.380 144.628,105.091 144.196 C 110.795 140.727,118.225 145.780,117.111 152.372 C 116.395 156.612,104.958 171.282,98.037 176.838 C 91.311 182.236,85.953 184.123,78.301 183.786 C 62.301 183.082,51.802 172.020,48.841 152.747 C 48.123 148.073,48.027 138.064,48.646 132.480 C 50.859 112.540,58.743 93.420,69.278 82.447 C 77.492 73.891,86.866 70.519,96.271 72.736 " stroke="none" fill-rule="evenodd"></path></svg>