<svg fill="currentColor" viewBox="0 0 256 256" xmlns="http://www.w3.org/2000/svg"><path d="M69.091 24.320 C 65.035 25.015,60.839 27.856,58.512 31.483 C 56.166 35.138,55.893 37.196,55.893 51.255 L 55.893 63.931 45.963 64.072 L 36.032 64.213 33.196 65.610 C 29.683 67.341,26.478 70.714,25.097 74.135 L 24.107 76.587 24.107 128.000 L 24.107 179.413 25.097 181.865 C 26.478 185.286,29.683 188.659,33.196 190.390 L 36.031 191.787 45.936 191.921 L 55.840 192.056 55.993 205.788 C 56.163 221.120,56.231 221.535,59.220 225.493 C 60.106 226.667,61.880 228.343,63.162 229.218 C 67.679 232.302,63.182 232.133,136.996 232.007 L 203.307 231.893 205.957 230.776 C 210.321 228.937,213.551 225.566,215.057 221.279 C 215.877 218.947,215.893 217.174,215.893 128.000 C 215.893 38.826,215.877 37.053,215.057 34.721 C 213.550 30.430,210.072 26.880,205.569 25.034 L 203.307 24.107 137.173 24.046 C 100.800 24.013,70.163 24.136,69.091 24.320 M128.000 52.053 L 128.000 64.000 100.053 64.000 L 72.107 64.000 72.107 52.053 L 72.107 40.107 100.053 40.107 L 128.000 40.107 128.000 52.053 M200.107 64.000 L 200.107 87.893 180.094 87.893 L 160.082 87.893 159.930 82.027 C 159.792 76.676,159.674 75.935,158.588 73.600 C 156.326 68.737,151.306 64.895,146.313 64.209 L 144.213 63.920 144.213 52.013 L 144.213 40.107 172.160 40.107 L 200.107 40.107 200.107 64.000 M75.123 96.702 C 76.559 97.276,78.227 99.018,84.318 106.302 C 88.411 111.196,91.897 115.189,92.066 115.176 C 92.235 115.163,95.614 111.232,99.576 106.441 C 107.751 96.552,108.859 95.686,112.743 96.146 C 113.961 96.290,115.602 96.862,116.496 97.453 C 119.558 99.480,120.767 104.157,119.075 107.430 C 118.624 108.301,114.685 113.285,110.321 118.507 L 102.386 128.000 110.321 137.493 C 114.685 142.715,118.624 147.699,119.075 148.570 C 121.559 153.374,118.162 159.373,112.657 159.902 C 108.831 160.270,107.675 159.356,99.576 149.559 C 95.614 144.768,92.235 140.837,92.066 140.824 C 91.897 140.811,88.411 144.804,84.318 149.698 C 78.227 156.982,76.559 158.724,75.123 159.298 C 70.836 161.014,66.786 159.363,64.809 155.093 C 63.848 153.018,63.791 151.085,64.632 149.073 C 64.980 148.241,68.933 143.158,73.416 137.778 L 81.569 127.995 74.356 119.356 C 70.390 114.604,66.542 109.886,65.806 108.870 C 63.290 105.397,63.639 101.133,66.672 98.264 C 69.060 96.006,72.018 95.459,75.123 96.702 M200.107 128.000 L 200.107 151.893 180.053 151.893 L 160.000 151.893 160.000 128.000 L 160.000 104.107 180.053 104.107 L 200.107 104.107 200.107 128.000 M200.107 192.000 L 200.107 215.893 172.160 215.893 L 144.213 215.893 144.213 204.002 L 144.213 192.110 146.240 191.841 C 151.185 191.185,156.334 187.248,158.588 182.400 C 159.674 180.065,159.792 179.324,159.930 173.973 L 160.082 168.107 180.094 168.107 L 200.107 168.107 200.107 192.000 M128.000 203.947 L 128.000 215.893 100.053 215.893 L 72.107 215.893 72.107 203.947 L 72.107 192.000 100.053 192.000 L 128.000 192.000 128.000 203.947 " stroke="none" fill-rule="evenodd"></path></svg>