<svg fill="currentColor" viewBox="0 0 256 256" xmlns="http://www.w3.org/2000/svg"><path d="M119.183 16.845 C 114.776 17.645,110.872 19.014,106.169 21.409 C 92.553 28.343,83.400 40.831,80.582 56.320 C 79.731 60.997,79.731 131.003,80.582 135.680 C 84.880 159.301,104.506 175.953,128.000 175.912 C 151.602 175.870,171.118 159.311,175.418 135.680 C 176.269 131.003,176.269 60.997,175.418 56.320 C 171.722 36.005,156.260 20.285,136.584 16.840 C 132.248 16.080,123.382 16.083,119.183 16.845 M54.339 120.301 C 51.168 121.055,48.921 123.377,48.175 126.670 C 47.697 128.781,48.472 138.324,49.545 143.549 C 52.809 159.435,60.338 173.370,71.742 184.629 C 78.931 191.727,84.966 195.999,93.653 200.139 C 101.056 203.667,111.653 206.797,118.400 207.450 L 119.680 207.573 119.893 220.800 C 120.139 236.006,120.228 236.407,123.859 238.663 C 127.736 241.071,132.925 239.707,135.001 235.733 C 135.835 234.139,135.907 233.158,136.107 220.800 L 136.320 207.573 137.600 207.450 C 144.347 206.797,154.944 203.667,162.347 200.139 C 170.935 196.046,177.050 191.736,184.052 184.841 C 198.144 170.963,206.259 153.349,207.784 133.333 C 208.345 125.981,207.455 123.196,203.908 121.203 C 200.574 119.329,196.385 120.028,194.007 122.854 C 192.528 124.612,192.120 126.192,191.798 131.399 C 191.242 140.385,189.405 147.710,185.844 155.144 C 176.895 173.824,161.083 186.261,140.519 190.796 C 134.434 192.138,121.566 192.138,115.481 190.796 C 94.899 186.257,79.113 173.840,70.156 155.144 C 66.599 147.719,64.684 140.068,64.173 131.237 C 63.881 126.200,63.466 124.605,61.993 122.854 C 60.150 120.664,57.098 119.646,54.339 120.301 " stroke="none" fill-rule="evenodd"></path></svg>