<svg fill="currentColor" viewBox="0 0 256 256" xmlns="http://www.w3.org/2000/svg"><path d="M44.265 32.461 C 39.776 33.526,35.661 36.951,33.540 41.387 L 32.213 44.160 32.213 128.000 L 32.213 211.840 33.407 214.400 C 34.974 217.760,38.261 221.060,41.555 222.583 L 44.160 223.787 128.000 223.787 L 211.840 223.787 214.445 222.583 C 217.739 221.060,221.026 217.760,222.593 214.400 L 223.787 211.840 223.787 128.000 L 223.787 44.160 222.583 41.555 C 221.060 38.261,217.760 34.974,214.400 33.407 L 211.840 32.213 128.853 32.147 C 81.512 32.109,45.179 32.244,44.265 32.461 M171.951 121.238 C 174.498 122.735,175.787 125.035,175.787 128.081 C 175.787 131.022,174.119 133.862,171.684 135.071 C 170.081 135.866,168.645 135.893,128.000 135.893 C 87.355 135.893,85.919 135.866,84.316 135.071 C 83.318 134.576,82.172 133.481,81.436 132.321 C 78.457 127.623,80.908 121.611,86.339 120.295 C 87.077 120.116,106.208 120.001,128.853 120.038 L 170.027 120.107 171.951 121.238 " stroke="none" fill-rule="evenodd"></path></svg>