<svg fill="currentColor" viewBox="0 0 256 256" xmlns="http://www.w3.org/2000/svg"><path d="M44.265 32.461 C 39.776 33.526,35.661 36.951,33.540 41.387 L 32.213 44.160 32.213 128.000 L 32.213 211.840 33.407 214.400 C 34.974 217.760,38.261 221.060,41.555 222.583 L 44.160 223.787 128.000 223.787 L 211.840 223.787 214.445 222.583 C 217.739 221.060,221.026 217.760,222.593 214.400 L 223.787 211.840 223.787 128.000 L 223.787 44.160 222.583 41.555 C 221.060 38.261,217.760 34.974,214.400 33.407 L 211.840 32.213 128.853 32.147 C 81.512 32.109,45.179 32.244,44.265 32.461 M187.520 120.813 C 190.143 122.260,192.009 125.299,191.991 128.093 C 191.979 129.847,190.726 132.613,189.384 133.846 C 186.793 136.228,190.090 136.107,128.000 136.107 C 65.910 136.107,69.207 136.228,66.616 133.846 C 65.242 132.583,64.019 129.829,64.019 128.000 C 64.019 124.872,66.768 121.090,69.473 120.496 C 70.100 120.358,70.805 120.180,71.040 120.099 C 71.275 120.019,97.291 119.987,128.853 120.030 C 181.363 120.100,186.349 120.167,187.520 120.813 " stroke="none" fill-rule="evenodd"></path></svg>