<svg fill="currentColor" viewBox="0 0 256 256" xmlns="http://www.w3.org/2000/svg"><path d="M120.960 24.326 C 100.935 25.586,81.587 32.844,64.891 45.360 C 59.554 49.360,49.234 59.686,45.276 64.986 C 34.512 79.399,27.973 94.882,25.095 112.768 C 23.886 120.283,23.787 134.307,24.890 141.867 C 27.542 160.046,34.293 176.318,45.279 191.014 C 49.299 196.392,59.608 206.701,64.986 210.721 C 79.686 221.710,96.000 228.476,114.133 231.105 C 117.683 231.620,121.936 231.847,128.000 231.847 C 144.598 231.847,158.874 228.583,173.440 221.458 C 184.661 215.968,192.320 210.472,201.396 201.396 C 210.475 192.317,215.974 184.654,221.456 173.440 C 235.707 144.287,235.458 110.173,220.780 81.026 C 214.698 68.950,203.517 55.194,193.067 46.931 C 172.349 30.550,147.221 22.673,120.960 24.326 M171.951 121.238 C 174.498 122.735,175.787 125.035,175.787 128.081 C 175.787 131.022,174.119 133.862,171.684 135.071 C 170.081 135.866,168.645 135.893,128.000 135.893 C 87.355 135.893,85.919 135.866,84.316 135.071 C 83.318 134.576,82.172 133.481,81.436 132.321 C 78.457 127.623,80.908 121.611,86.339 120.295 C 87.077 120.116,106.208 120.001,128.853 120.038 L 170.027 120.107 171.951 121.238 " stroke="none" fill-rule="evenodd"></path></svg>