<svg fill="currentColor" viewBox="0 0 256 256" xmlns="http://www.w3.org/2000/svg"><path d="M42.084 40.781 C 33.527 42.861,26.396 50.339,24.518 59.202 C 23.594 63.561,23.610 176.287,24.535 180.693 C 26.520 190.146,33.854 197.480,43.307 199.465 C 47.800 200.408,208.200 200.408,212.693 199.465 C 219.855 197.961,226.192 193.150,229.268 186.880 C 232.269 180.765,232.137 184.050,232.009 118.492 L 231.893 59.520 230.761 56.421 C 228.695 50.768,225.195 46.507,220.066 43.401 C 214.502 40.031,223.122 40.329,128.853 40.246 C 57.165 40.183,44.213 40.263,42.084 40.781 M114.613 84.500 C 116.243 85.120,159.927 112.916,161.439 114.295 C 163.039 115.755,163.840 117.694,163.840 120.110 C 163.840 122.163,162.764 124.757,161.432 125.916 C 159.768 127.363,115.848 155.052,114.389 155.574 C 112.486 156.254,111.983 156.269,109.962 155.708 C 107.956 155.151,105.445 152.991,104.683 151.167 C 104.218 150.053,104.107 144.070,104.107 120.107 C 104.107 88.469,104.088 88.784,106.150 86.462 C 107.918 84.470,112.029 83.518,114.613 84.500 M93.979 216.302 C 91.046 217.012,88.705 219.593,88.109 222.773 C 87.437 226.351,90.134 230.651,93.663 231.631 C 96.039 232.290,159.961 232.290,162.337 231.631 C 164.597 231.003,167.042 228.502,167.668 226.176 C 168.620 222.643,167.345 219.374,164.208 217.297 L 162.410 216.107 128.885 216.037 C 110.446 215.999,94.739 216.119,93.979 216.302 " stroke="none" fill-rule="evenodd"></path></svg>