<svg fill="currentColor" viewBox="0 0 256 256" xmlns="http://www.w3.org/2000/svg"><path d="M102.400 21.587 C 96.887 23.464,86.492 28.441,81.084 31.794 C 57.902 46.165,41.094 69.425,34.843 95.787 C 33.110 103.096,32.420 108.387,32.142 116.480 C 31.540 134.069,35.004 150.089,42.891 166.187 C 56.295 193.547,81.442 213.658,111.447 221.013 C 120.583 223.252,125.140 223.761,136.107 223.768 C 147.086 223.774,151.065 223.321,160.804 220.956 C 194.509 212.771,222.081 187.811,234.032 154.667 C 235.652 150.173,235.996 148.738,235.840 147.106 C 235.616 144.765,234.309 142.648,232.255 141.301 C 229.898 139.757,227.795 139.728,222.279 141.163 C 201.784 146.497,180.457 144.348,161.468 135.034 C 134.435 121.775,116.388 96.303,112.660 66.145 C 111.492 56.693,112.447 43.181,114.961 33.595 C 116.196 28.887,116.307 27.034,115.477 25.046 C 114.380 22.421,110.702 20.053,107.733 20.060 C 107.264 20.061,104.864 20.748,102.400 21.587 " stroke="none" fill-rule="evenodd"></path></svg>