<svg fill="currentColor" viewBox="0 0 256 256" xmlns="http://www.w3.org/2000/svg"><path d="M100.693 17.075 C 77.783 21.131,58.468 37.918,51.231 60.065 C 49.561 65.175,48.743 69.279,48.223 75.153 C 47.650 81.628,47.650 174.372,48.223 180.847 C 49.629 196.737,55.747 209.962,66.844 221.106 C 77.861 232.168,91.248 238.369,107.153 239.777 C 113.429 240.333,142.571 240.333,148.847 239.777 C 164.752 238.369,178.139 232.168,189.156 221.106 C 200.253 209.962,206.371 196.737,207.777 180.847 C 208.350 174.372,208.350 81.628,207.777 75.153 C 206.982 66.171,205.036 59.184,201.166 51.413 C 193.333 35.685,178.543 23.347,161.802 18.574 C 154.079 16.372,151.748 16.214,127.573 16.250 C 107.727 16.279,104.663 16.373,100.693 17.075 M132.321 57.396 C 133.172 57.946,134.324 59.129,134.881 60.025 L 135.893 61.653 135.893 87.467 C 135.893 101.664,135.747 113.804,135.567 114.446 C 135.116 116.059,132.770 118.625,131.114 119.317 C 129.350 120.054,126.650 120.054,124.886 119.317 C 123.230 118.625,120.884 116.059,120.433 114.446 C 120.253 113.804,120.107 101.664,120.107 87.467 L 120.107 61.653 121.097 60.061 C 123.582 56.064,128.464 54.904,132.321 57.396 " stroke="none" fill-rule="evenodd"></path></svg>