<svg fill="currentColor" viewBox="0 0 256 256" xmlns="http://www.w3.org/2000/svg"><path d="M124.782 32.802 C 122.678 33.758,120.928 35.757,120.339 37.880 C 120.046 38.933,119.897 57.738,119.896 93.788 L 119.893 148.110 117.433 146.177 C 112.222 142.083,104.969 138.695,97.935 137.069 C 95.776 136.570,92.896 136.378,87.680 136.386 C 81.224 136.396,79.966 136.520,76.229 137.517 C 58.776 142.172,46.012 155.095,41.274 172.909 C 40.471 175.930,40.341 177.512,40.359 184.107 C 40.378 191.090,40.485 192.174,41.538 196.053 C 42.964 201.310,46.528 208.716,49.545 212.693 C 67.677 236.596,102.252 238.618,122.809 216.977 C 127.835 211.685,131.522 205.417,133.736 198.402 C 136.155 190.733,136.101 192.531,136.104 118.674 C 136.106 63.273,136.209 50.721,136.658 50.894 C 139.826 52.109,207.539 72.104,208.464 72.097 C 210.279 72.084,212.987 70.721,214.300 69.161 C 217.478 65.384,216.385 59.376,212.124 57.213 C 209.843 56.055,129.377 31.998,127.822 32.009 C 127.098 32.015,125.731 32.371,124.782 32.802 " stroke="none" fill-rule="evenodd"></path></svg>