<svg fill="currentColor" viewBox="0 0 256 256" xmlns="http://www.w3.org/2000/svg"><path d="M178.150 32.445 C 172.551 33.326,166.740 35.569,161.969 38.690 C 159.898 40.046,154.485 45.092,144.929 54.578 C 137.226 62.224,130.733 68.827,130.501 69.251 C 130.268 69.675,129.339 72.939,128.438 76.505 C 123.538 95.880,109.543 120.583,86.509 150.516 C 72.689 168.476,55.301 188.555,37.266 207.382 C 32.444 212.415,31.674 213.937,32.193 217.399 C 32.439 219.039,32.877 219.798,34.540 221.460 C 36.202 223.123,36.961 223.561,38.601 223.807 C 42.346 224.369,43.238 223.809,52.395 215.162 C 79.590 189.478,106.437 167.588,129.707 152.122 C 139.880 145.361,144.894 142.376,153.813 137.771 C 163.547 132.745,171.615 129.534,179.465 127.560 C 183.047 126.660,186.325 125.734,186.749 125.504 C 187.173 125.273,193.952 118.588,201.813 110.649 C 213.956 98.385,216.420 95.685,218.189 92.699 C 220.597 88.634,222.897 82.251,223.611 77.653 C 224.258 73.486,223.863 66.439,222.739 62.080 C 219.131 48.097,207.573 36.658,193.629 33.272 C 189.519 32.274,181.840 31.864,178.150 32.445 M186.781 64.660 C 189.831 65.935,191.981 69.014,191.981 72.107 C 191.981 75.015,190.620 76.785,181.275 86.028 C 171.398 95.797,170.600 96.341,166.901 95.834 C 164.242 95.469,162.323 94.060,161.059 91.543 C 159.840 89.114,159.725 87.251,160.656 85.000 C 161.542 82.855,178.370 65.907,180.693 64.818 C 182.782 63.840,184.698 63.790,186.781 64.660 " stroke="none" fill-rule="evenodd"></path></svg>