<svg fill="currentColor" viewBox="0 0 256 256" xmlns="http://www.w3.org/2000/svg"><path d="M36.053 40.505 C 32.312 41.430,27.686 45.015,25.988 48.307 C 23.801 52.546,23.893 48.708,23.896 135.663 C 23.897 190.778,24.041 217.047,24.346 218.145 C 25.340 221.724,29.293 224.355,32.957 223.875 C 34.109 223.724,40.117 220.975,49.387 216.358 L 64.000 209.080 78.750 216.433 C 92.803 223.439,93.617 223.787,96.000 223.787 C 98.383 223.787,99.197 223.439,113.250 216.433 L 128.000 209.080 142.750 216.433 C 156.803 223.439,157.617 223.787,160.000 223.787 C 162.383 223.787,163.197 223.439,177.250 216.433 L 192.000 209.080 206.613 216.358 C 215.883 220.975,221.891 223.724,223.043 223.875 C 226.739 224.360,230.690 221.701,231.667 218.073 C 231.977 216.922,232.083 190.944,232.005 134.548 L 231.893 52.693 230.867 50.144 C 229.561 46.901,226.312 43.426,222.933 41.659 L 220.373 40.320 128.853 40.255 C 78.517 40.219,36.757 40.331,36.053 40.505 M115.413 88.815 C 117.105 89.752,118.877 91.658,119.440 93.148 C 119.746 93.959,119.893 105.274,119.893 128.041 C 119.893 155.374,119.785 161.994,119.317 163.114 C 118.561 164.922,116.049 167.095,114.034 167.685 C 112.921 168.010,104.625 168.114,87.040 168.024 C 62.346 167.897,61.613 167.869,60.166 167.020 C 59.348 166.539,58.100 165.322,57.393 164.316 L 56.107 162.486 56.107 128.070 L 56.107 93.653 57.097 92.061 C 58.257 90.195,60.144 88.751,62.022 88.292 C 62.758 88.112,74.784 87.997,88.747 88.036 C 111.522 88.099,114.265 88.180,115.413 88.815 M72.107 128.000 L 72.107 151.893 88.107 151.893 L 104.107 151.893 104.107 128.000 L 104.107 104.107 88.107 104.107 L 72.107 104.107 72.107 128.000 M194.852 104.560 C 197.758 105.658,199.802 108.730,199.802 112.000 C 199.802 115.270,197.758 118.342,194.852 119.440 C 194.052 119.742,185.105 119.893,168.065 119.893 C 140.850 119.893,140.813 119.891,138.515 117.850 C 136.355 115.932,135.549 111.815,136.763 108.909 C 137.647 106.793,138.557 105.841,140.587 104.909 C 142.182 104.177,143.969 104.125,167.972 104.116 C 185.101 104.110,194.051 104.258,194.852 104.560 M194.852 136.560 C 197.758 137.658,199.802 140.730,199.802 144.000 C 199.802 147.270,197.758 150.342,194.852 151.440 C 194.052 151.742,185.105 151.893,168.065 151.893 C 140.850 151.893,140.813 151.891,138.515 149.850 C 136.355 147.932,135.549 143.815,136.763 140.909 C 137.647 138.793,138.557 137.841,140.587 136.909 C 142.182 136.177,143.969 136.125,167.972 136.116 C 185.101 136.110,194.051 136.258,194.852 136.560 " stroke="none" fill-rule="evenodd"></path></svg>