<svg fill="currentColor" viewBox="0 0 256 256" xmlns="http://www.w3.org/2000/svg"><path d="M191.229 24.351 C 182.687 25.460,174.138 30.156,168.476 36.850 C 165.608 40.241,162.196 46.792,161.002 51.200 C 159.944 55.108,159.952 64.841,161.018 68.692 C 164.656 81.842,174.181 91.366,187.308 94.978 C 191.217 96.054,200.479 96.064,204.587 94.997 C 208.975 93.858,215.666 90.457,218.989 87.676 C 228.688 79.562,233.626 66.387,231.511 54.269 C 230.169 46.577,226.730 39.886,221.422 34.638 C 215.382 28.667,208.623 25.401,200.118 24.343 C 196.102 23.844,195.130 23.844,191.229 24.351 M42.880 40.876 C 37.990 42.574,34.362 46.307,32.846 51.200 C 31.996 53.943,31.988 54.824,32.100 132.907 L 32.213 211.840 33.407 214.400 C 34.974 217.760,38.261 221.060,41.555 222.583 L 44.160 223.787 123.093 223.900 C 201.176 224.012,202.057 224.004,204.800 223.154 C 208.310 222.066,211.198 219.940,213.143 217.009 C 216.027 212.666,215.893 215.029,215.893 168.493 C 215.893 139.754,215.749 125.967,215.440 125.148 C 214.869 123.637,213.077 121.724,211.423 120.861 C 209.891 120.061,206.222 119.993,204.779 120.738 C 203.472 121.413,201.472 123.247,200.817 124.373 C 200.452 124.999,200.263 136.251,200.107 166.613 L 199.893 208.000 124.053 208.108 L 48.213 208.216 48.213 132.055 L 48.213 55.893 88.932 55.893 C 116.665 55.893,130.034 55.749,130.852 55.440 C 133.504 54.438,136.088 50.766,136.088 48.000 C 136.088 45.234,133.504 41.562,130.852 40.560 C 130.032 40.251,116.228 40.111,87.332 40.121 C 48.275 40.133,44.849 40.192,42.880 40.876 " stroke="none" fill-rule="evenodd"></path></svg>