<svg fill="currentColor" viewBox="0 0 256 256" xmlns="http://www.w3.org/2000/svg"><path d="M120.960 24.326 C 100.935 25.586,81.587 32.844,64.891 45.360 C 59.554 49.360,49.234 59.686,45.276 64.986 C 34.512 79.399,27.973 94.882,25.095 112.768 C 23.886 120.283,23.787 134.307,24.890 141.867 C 27.542 160.046,34.293 176.318,45.279 191.014 C 49.299 196.392,59.608 206.701,64.986 210.721 C 79.686 221.710,96.000 228.476,114.133 231.105 C 117.683 231.620,121.936 231.847,128.000 231.847 C 144.598 231.847,158.874 228.583,173.440 221.458 C 184.661 215.968,192.320 210.472,201.396 201.396 C 210.475 192.317,215.974 184.654,221.456 173.440 C 235.707 144.287,235.458 110.173,220.780 81.026 C 214.698 68.950,203.517 55.194,193.067 46.931 C 172.349 30.550,147.221 22.673,120.960 24.326 M138.027 73.162 C 155.252 77.792,166.644 91.915,170.733 113.707 C 172.098 120.981,172.099 134.799,170.735 142.250 C 166.776 163.882,155.211 178.244,138.027 182.869 C 133.852 183.992,122.225 184.023,118.187 182.921 C 113.162 181.550,109.575 179.963,105.819 177.451 C 92.942 168.838,85.055 152.047,84.195 131.413 C 82.877 99.807,97.922 76.199,121.813 72.384 C 124.517 71.953,135.484 72.479,138.027 73.162 M124.120 88.326 C 109.509 90.610,100.116 106.135,100.116 128.000 C 100.116 145.591,106.513 159.912,116.724 165.179 C 120.822 167.293,123.295 167.887,128.000 167.887 C 132.705 167.887,135.178 167.293,139.276 165.179 C 149.448 159.932,155.885 145.522,155.885 128.000 C 155.885 110.772,149.495 96.213,139.637 90.983 C 135.070 88.560,129.130 87.543,124.120 88.326 " stroke="none" fill-rule="evenodd"></path></svg>