<svg fill="currentColor" viewBox="0 0 256 256" xmlns="http://www.w3.org/2000/svg"><path d="M52.926 24.356 C 48.252 25.281,43.642 28.869,41.482 33.264 L 40.320 35.627 40.209 127.253 C 40.101 217.437,40.112 218.917,40.939 221.268 C 42.449 225.566,45.675 228.935,50.043 230.776 L 52.693 231.893 128.000 231.893 L 203.307 231.893 205.957 230.776 C 210.321 228.937,213.551 225.566,215.057 221.279 C 215.877 218.947,215.893 217.174,215.893 128.000 C 215.893 38.826,215.877 37.053,215.057 34.721 C 213.550 30.430,210.072 26.880,205.569 25.034 L 203.307 24.107 129.067 24.043 C 87.649 24.008,53.986 24.146,52.926 24.356 M134.821 65.439 C 137.741 67.371,139.002 71.591,137.636 74.860 C 137.143 76.040,124.412 98.393,121.587 103.040 L 120.809 104.320 127.924 104.325 C 134.315 104.330,135.453 104.446,139.093 105.464 C 147.559 107.832,153.850 111.599,159.826 117.879 C 167.260 125.691,171.195 134.764,171.805 145.493 C 173.286 171.564,151.786 193.286,125.899 191.874 C 115.072 191.283,105.764 187.327,97.906 179.977 C 83.935 166.908,80.097 145.635,88.643 128.640 C 90.605 124.739,123.638 67.420,124.469 66.475 C 124.820 66.076,125.902 65.344,126.873 64.848 C 129.187 63.668,132.519 63.915,134.821 65.439 M124.229 120.341 C 118.012 121.173,113.023 123.701,108.344 128.390 C 106.568 130.170,104.499 132.714,103.747 134.043 C 95.696 148.269,101.192 165.983,115.840 173.022 C 120.241 175.138,123.449 175.895,128.000 175.895 C 132.551 175.895,135.759 175.138,140.160 173.022 C 154.793 165.991,160.287 148.288,152.259 134.043 C 150.176 130.348,144.646 125.114,140.800 123.198 C 135.628 120.621,129.735 119.605,124.229 120.341 " stroke="none" fill-rule="evenodd"></path></svg>