<svg fill="currentColor" viewBox="0 0 256 256" xmlns="http://www.w3.org/2000/svg"><path d="M120.960 24.326 C 100.935 25.586,81.587 32.844,64.891 45.360 C 59.554 49.360,49.234 59.686,45.276 64.986 C 34.512 79.399,27.973 94.882,25.095 112.768 C 23.886 120.283,23.787 134.307,24.890 141.867 C 27.542 160.046,34.293 176.318,45.279 191.014 C 49.299 196.392,59.608 206.701,64.986 210.721 C 79.686 221.710,96.000 228.476,114.133 231.105 C 117.683 231.620,121.936 231.847,128.000 231.847 C 144.598 231.847,158.874 228.583,173.440 221.458 C 184.661 215.968,192.320 210.472,201.396 201.396 C 210.475 192.317,215.974 184.654,221.456 173.440 C 235.707 144.287,235.458 110.173,220.780 81.026 C 214.698 68.950,203.517 55.194,193.067 46.931 C 172.349 30.550,147.221 22.673,120.960 24.326 M122.781 64.660 C 123.650 65.024,124.822 65.744,125.384 66.260 C 126.685 67.457,127.979 70.243,127.991 71.876 C 127.997 72.769,109.706 128.807,107.200 135.573 C 107.044 135.993,110.092 136.107,121.554 136.107 L 136.107 136.107 136.116 123.200 C 136.124 111.592,136.204 110.122,136.909 108.587 C 137.841 106.557,138.793 105.647,140.909 104.763 C 142.907 103.928,145.093 103.928,147.091 104.763 C 149.207 105.647,150.159 106.557,151.091 108.587 C 151.796 110.122,151.876 111.592,151.884 123.200 L 151.893 136.107 156.772 136.107 C 162.100 136.107,163.435 136.430,165.265 138.160 C 167.050 139.849,167.802 141.581,167.802 144.000 C 167.802 146.419,167.050 148.151,165.265 149.840 C 163.435 151.570,162.100 151.893,156.772 151.893 L 151.893 151.893 151.893 164.707 C 151.893 178.167,151.750 179.346,149.850 181.485 C 148.755 182.718,145.925 183.875,144.000 183.875 C 142.075 183.875,139.245 182.718,138.150 181.485 C 136.250 179.346,136.107 178.167,136.107 164.707 L 136.107 151.893 115.186 151.893 C 98.581 151.893,93.981 151.774,92.886 151.317 C 90.360 150.261,87.906 146.566,87.896 143.801 C 87.894 143.457,93.485 126.369,100.320 105.828 C 108.558 81.068,113.107 67.997,113.817 67.047 C 115.823 64.361,119.636 63.346,122.781 64.660 " stroke="none" fill-rule="evenodd"></path></svg>