<svg fill="currentColor" viewBox="0 0 256 256" xmlns="http://www.w3.org/2000/svg"><path d="M44.265 32.461 C 39.776 33.526,35.661 36.951,33.540 41.387 L 32.213 44.160 32.213 128.000 L 32.213 211.840 33.407 214.400 C 34.974 217.760,38.261 221.060,41.555 222.583 L 44.160 223.787 128.000 223.787 L 211.840 223.787 214.445 222.583 C 217.739 221.060,221.026 217.760,222.593 214.400 L 223.787 211.840 223.787 128.000 L 223.787 44.160 222.583 41.555 C 221.060 38.261,217.760 34.974,214.400 33.407 L 211.840 32.213 128.853 32.147 C 81.512 32.109,45.179 32.244,44.265 32.461 M155.627 73.012 C 158.398 74.353,159.787 76.686,159.787 80.000 C 159.787 83.314,158.398 85.647,155.627 86.988 C 153.815 87.865,153.218 87.893,136.251 87.893 L 118.746 87.893 116.693 100.271 C 115.563 107.079,114.733 112.742,114.848 112.856 C 114.962 112.971,116.192 112.852,117.581 112.592 C 121.541 111.852,130.575 112.342,134.187 113.493 C 149.055 118.234,158.867 130.618,159.837 145.865 C 160.470 155.820,156.989 165.367,150.069 172.652 C 144.813 178.185,138.344 181.792,131.018 183.274 C 125.734 184.343,117.952 183.970,113.067 182.414 C 105.951 180.147,98.828 175.333,96.816 171.430 C 95.382 168.648,95.909 164.879,98.078 162.408 C 99.252 161.071,101.839 160.000,103.898 160.000 C 106.213 160.000,107.894 160.791,110.507 163.109 C 114.739 166.864,121.220 168.709,126.827 167.753 C 140.429 165.435,147.851 151.414,141.884 139.307 C 135.918 127.199,120.895 124.347,110.063 133.265 C 105.835 136.745,101.777 136.864,98.515 133.602 C 95.398 130.485,95.346 131.518,100.031 103.355 C 102.324 89.571,104.474 77.628,104.809 76.816 C 105.642 74.798,106.576 73.833,108.587 72.909 C 110.171 72.182,111.852 72.125,132.025 72.116 C 153.309 72.107,153.796 72.125,155.627 73.012 " stroke="none" fill-rule="evenodd"></path></svg>