<svg fill="currentColor" viewBox="0 0 256 256" xmlns="http://www.w3.org/2000/svg"><path d="M120.960 24.326 C 100.935 25.586,81.587 32.844,64.891 45.360 C 59.554 49.360,49.234 59.686,45.276 64.986 C 34.512 79.399,27.973 94.882,25.095 112.768 C 23.886 120.283,23.787 134.307,24.890 141.867 C 27.542 160.046,34.293 176.318,45.279 191.014 C 49.299 196.392,59.608 206.701,64.986 210.721 C 79.686 221.710,96.000 228.476,114.133 231.105 C 117.683 231.620,121.936 231.847,128.000 231.847 C 144.598 231.847,158.874 228.583,173.440 221.458 C 184.661 215.968,192.320 210.472,201.396 201.396 C 210.475 192.317,215.974 184.654,221.456 173.440 C 235.707 144.287,235.458 110.173,220.780 81.026 C 214.698 68.950,203.517 55.194,193.067 46.931 C 172.349 30.550,147.221 22.673,120.960 24.326 M137.173 73.168 C 141.154 74.254,147.232 77.384,150.680 80.124 C 156.038 84.382,160.598 91.307,162.587 98.210 C 163.171 100.235,163.568 103.133,163.717 106.453 C 163.979 112.292,163.363 116.179,161.367 121.273 C 160.353 123.862,130.422 174.797,126.677 180.308 C 124.549 183.439,121.613 184.584,118.040 183.676 C 114.171 182.694,112.025 179.680,112.296 175.613 C 112.463 173.106,112.773 172.506,121.022 158.720 L 129.574 144.427 126.760 144.099 C 115.896 142.834,109.099 139.806,102.599 133.334 C 95.271 126.039,91.717 116.592,92.282 105.911 C 92.578 100.319,93.330 97.367,95.731 92.373 C 100.669 82.106,110.586 74.537,121.701 72.554 C 124.947 71.975,134.136 72.340,137.173 73.168 M124.800 88.366 C 123.392 88.568,120.896 89.397,119.253 90.208 C 106.803 96.353,104.215 112.394,114.084 122.241 C 121.052 129.194,132.045 129.852,140.085 123.797 C 149.558 116.665,150.606 102.576,142.292 94.137 C 137.771 89.548,131.340 87.426,124.800 88.366 " stroke="none" fill-rule="evenodd"></path></svg>