<svg fill="currentColor" viewBox="0 0 256 256" xmlns="http://www.w3.org/2000/svg"><path d="M52.926 24.356 C 48.252 25.281,43.642 28.869,41.482 33.264 L 40.320 35.627 40.209 127.253 C 40.101 217.437,40.112 218.917,40.939 221.268 C 42.449 225.566,45.675 228.935,50.043 230.776 L 52.693 231.893 128.000 231.893 L 203.307 231.893 205.957 230.776 C 210.321 228.937,213.551 225.566,215.057 221.279 C 215.877 218.947,215.893 217.174,215.893 128.000 C 215.893 38.826,215.877 37.053,215.057 34.721 C 213.550 30.430,210.072 26.880,205.569 25.034 L 203.307 24.107 129.067 24.043 C 87.649 24.008,53.986 24.146,52.926 24.356 M162.888 64.660 C 164.786 65.453,166.253 66.761,167.125 68.438 C 168.714 71.494,169.156 70.094,147.413 130.997 C 128.459 184.093,126.819 188.480,125.401 189.902 C 120.480 194.836,112.176 191.370,112.088 184.345 C 112.069 182.825,116.010 171.349,130.120 131.840 C 140.052 104.032,148.263 81.047,148.369 80.762 C 148.517 80.359,142.468 80.216,121.320 80.122 L 94.080 80.000 92.225 78.938 C 87.637 76.311,86.759 69.777,90.523 66.263 C 92.981 63.967,91.861 64.035,127.907 64.017 C 157.114 64.002,161.506 64.083,162.888 64.660 " stroke="none" fill-rule="evenodd"></path></svg>