<svg fill="currentColor" viewBox="0 0 256 256" xmlns="http://www.w3.org/2000/svg"><path d="M44.265 32.461 C 39.776 33.526,35.661 36.951,33.540 41.387 L 32.213 44.160 32.213 128.000 L 32.213 211.840 33.407 214.400 C 34.974 217.760,38.261 221.060,41.555 222.583 L 44.160 223.787 128.000 223.787 L 211.840 223.787 214.445 222.583 C 217.739 221.060,221.026 217.760,222.593 214.400 L 223.787 211.840 223.787 128.000 L 223.787 44.160 222.583 41.555 C 221.060 38.261,217.760 34.974,214.400 33.407 L 211.840 32.213 128.853 32.147 C 81.512 32.109,45.179 32.244,44.265 32.461 M137.173 73.168 C 141.154 74.254,147.232 77.384,150.680 80.124 C 156.038 84.382,160.598 91.307,162.587 98.210 C 163.171 100.235,163.568 103.133,163.717 106.453 C 163.979 112.292,163.363 116.179,161.367 121.273 C 160.353 123.862,130.422 174.797,126.677 180.308 C 124.549 183.439,121.613 184.584,118.040 183.676 C 114.171 182.694,112.025 179.680,112.296 175.613 C 112.463 173.106,112.773 172.506,121.022 158.720 L 129.574 144.427 126.760 144.099 C 115.896 142.834,109.099 139.806,102.599 133.334 C 95.271 126.039,91.717 116.592,92.282 105.911 C 92.578 100.319,93.330 97.367,95.731 92.373 C 100.669 82.106,110.586 74.537,121.701 72.554 C 124.947 71.975,134.136 72.340,137.173 73.168 M124.800 88.366 C 123.392 88.568,120.896 89.397,119.253 90.208 C 106.803 96.353,104.215 112.394,114.084 122.241 C 121.052 129.194,132.045 129.852,140.085 123.797 C 149.558 116.665,150.606 102.576,142.292 94.137 C 137.771 89.548,131.340 87.426,124.800 88.366 " stroke="none" fill-rule="evenodd"></path></svg>