<svg fill="currentColor" viewBox="0 0 256 256" xmlns="http://www.w3.org/2000/svg"><path d="M120.960 24.326 C 100.935 25.586,81.587 32.844,64.891 45.360 C 59.554 49.360,49.234 59.686,45.276 64.986 C 34.512 79.399,27.973 94.882,25.095 112.768 C 23.886 120.283,23.787 134.307,24.890 141.867 C 27.542 160.046,34.293 176.318,45.279 191.014 C 49.299 196.392,59.608 206.701,64.986 210.721 C 79.686 221.710,96.000 228.476,114.133 231.105 C 117.683 231.620,121.936 231.847,128.000 231.847 C 144.598 231.847,158.874 228.583,173.440 221.458 C 184.661 215.968,192.320 210.472,201.396 201.396 C 210.475 192.317,215.974 184.654,221.456 173.440 C 235.707 144.287,235.458 110.173,220.780 81.026 C 214.698 68.950,203.517 55.194,193.067 46.931 C 172.349 30.550,147.221 22.673,120.960 24.326 M139.512 72.956 C 140.428 73.423,141.716 74.512,142.375 75.376 C 143.427 76.756,143.573 77.315,143.573 79.967 L 143.573 82.987 134.933 97.348 C 130.181 105.246,126.293 111.822,126.293 111.961 C 126.293 112.100,127.645 112.213,129.298 112.213 C 143.738 112.213,157.180 122.321,162.210 136.960 C 163.545 140.845,163.603 141.287,163.615 147.627 C 163.625 153.250,163.482 154.738,162.663 157.564 C 159.389 168.860,151.110 177.883,140.484 181.737 C 135.588 183.513,131.843 184.047,126.018 183.799 C 121.834 183.620,120.260 183.348,116.907 182.223 C 107.267 178.989,99.941 172.519,95.610 163.413 C 92.862 157.637,92.372 155.237,92.385 147.627 C 92.404 136.886,91.399 139.008,115.517 98.788 C 129.709 75.119,130.428 74.013,132.227 73.081 C 134.567 71.869,137.290 71.822,139.512 72.956 M122.845 128.782 C 117.287 130.233,112.618 134.061,110.095 139.236 C 104.837 150.023,110.112 162.771,121.555 166.931 C 124.889 168.143,131.111 168.143,134.445 166.931 C 141.504 164.365,146.439 158.478,147.701 151.119 C 149.426 141.063,142.702 131.026,132.656 128.658 C 129.147 127.830,126.356 127.866,122.845 128.782 " stroke="none" fill-rule="evenodd"></path></svg>