<svg fill="currentColor" viewBox="0 0 256 256" xmlns="http://www.w3.org/2000/svg"><path d="M123.733 16.589 C 123.147 16.782,121.611 17.474,120.320 18.127 C 115.164 20.734,32.096 66.327,30.474 67.440 C 28.336 68.906,26.756 70.933,25.254 74.140 L 24.107 76.587 24.107 128.000 L 24.107 179.413 25.087 181.547 C 26.557 184.748,28.077 186.747,30.254 188.341 C 32.951 190.318,120.687 238.308,123.100 239.127 C 125.593 239.973,130.407 239.973,132.900 239.127 C 135.313 238.308,223.049 190.318,225.746 188.341 C 227.923 186.747,229.443 184.748,230.913 181.547 L 231.893 179.413 231.893 128.000 L 231.893 76.587 230.703 74.045 C 229.149 70.726,227.801 69.001,225.553 67.455 C 223.851 66.284,141.431 21.054,135.253 17.900 C 132.818 16.657,132.012 16.470,128.640 16.362 C 126.528 16.294,124.320 16.397,123.733 16.589 M138.115 89.402 C 142.093 90.408,147.462 92.845,151.014 95.259 C 153.520 96.962,159.038 102.480,160.741 104.986 C 163.161 108.547,165.593 113.909,166.688 118.098 C 168.237 124.025,168.237 131.975,166.688 137.902 C 165.598 142.072,163.180 147.412,160.751 151.014 C 158.543 154.289,152.314 160.054,148.563 162.295 C 143.947 165.053,137.840 167.109,132.356 167.752 C 124.013 168.731,114.853 166.725,107.437 162.295 C 103.686 160.054,97.457 154.289,95.249 151.014 C 92.820 147.412,90.402 142.072,89.312 137.902 C 87.762 131.974,87.763 124.025,89.313 118.096 C 94.176 99.493,111.042 87.136,130.133 88.186 C 132.363 88.309,135.955 88.856,138.115 89.402 " stroke="none" fill-rule="evenodd"></path></svg>