<svg fill="currentColor" viewBox="0 0 256 256" xmlns="http://www.w3.org/2000/svg"><path d="M113.280 8.768 C 112.576 9.129,102.642 18.774,91.204 30.200 L 70.408 50.976 57.711 38.335 C 50.727 31.382,44.341 25.348,43.520 24.927 C 41.688 23.986,38.213 23.952,36.469 24.859 C 33.935 26.177,32.000 29.269,32.000 32.000 C 32.000 34.907,33.162 36.331,46.202 49.406 L 59.093 62.332 35.775 85.537 C 13.233 107.967,12.399 108.855,10.742 112.165 C 8.541 116.562,7.947 119.483,8.216 124.585 C 8.484 129.660,9.859 133.516,12.781 137.387 C 13.932 138.912,34.615 159.864,58.744 183.947 C 101.222 226.344,102.715 227.782,105.813 229.286 C 113.876 233.198,122.562 232.816,129.737 228.235 C 133.829 225.623,230.021 129.406,231.226 126.720 C 232.366 124.180,232.325 122.630,231.051 120.084 C 229.622 117.228,122.232 9.771,119.800 8.764 C 117.776 7.925,114.920 7.927,113.280 8.768 M90.682 71.269 L 110.754 91.338 112.684 90.484 C 116.164 88.945,119.541 88.279,123.947 88.265 C 129.237 88.248,131.402 88.751,136.485 91.178 C 143.030 94.301,147.869 99.813,150.524 107.164 C 151.536 109.966,151.654 110.895,151.654 116.053 C 151.654 121.211,151.536 122.140,150.524 124.943 C 148.894 129.456,146.972 132.474,143.551 135.892 C 133.669 145.767,118.205 146.705,106.858 138.116 C 96.851 130.542,93.122 115.211,98.648 104.363 L 99.496 102.699 79.298 82.498 L 59.101 62.298 64.638 56.749 C 67.683 53.697,70.272 51.200,70.392 51.200 C 70.512 51.200,79.643 60.231,90.682 71.269 M120.193 104.722 C 116.123 106.174,113.104 109.524,112.241 113.548 C 111.134 118.713,113.829 124.216,118.744 126.823 C 120.158 127.573,121.249 127.773,123.947 127.779 C 126.983 127.786,127.619 127.640,129.707 126.463 C 135.257 123.332,137.437 116.929,134.897 111.215 C 133.692 108.503,132.062 106.844,129.195 105.411 C 126.260 103.945,123.059 103.700,120.193 104.722 M224.774 160.763 C 221.107 162.684,214.339 169.712,209.554 176.566 C 206.546 180.875,202.960 188.282,201.567 193.067 C 200.050 198.276,199.694 205.463,200.723 210.089 C 203.956 224.620,218.678 234.386,232.981 231.488 C 248.932 228.256,258.477 213.753,255.395 197.429 C 253.366 186.678,247.923 176.871,238.646 167.249 C 235.944 164.447,233.083 161.751,232.288 161.260 C 230.180 159.957,226.745 159.730,224.774 160.763 " stroke="none" fill-rule="evenodd"></path></svg>