<svg fill="currentColor" viewBox="0 0 256 256" xmlns="http://www.w3.org/2000/svg"><path d="M66.560 24.487 C 61.690 25.569,57.570 28.818,55.595 33.132 C 54.640 35.219,53.345 41.599,53.336 44.260 C 53.335 44.784,53.894 45.840,54.578 46.607 L 55.823 48.000 128.000 48.000 L 200.177 48.000 201.422 46.607 C 202.106 45.840,202.665 44.784,202.664 44.260 C 202.655 41.599,201.360 35.219,200.405 33.132 C 198.357 28.659,193.923 25.303,188.811 24.358 C 185.029 23.659,69.738 23.780,66.560 24.487 M52.480 64.552 C 51.893 64.849,51.190 65.566,50.918 66.146 C 50.645 66.726,49.941 71.036,49.353 75.725 C 47.870 87.553,48.041 87.893,55.461 87.893 C 60.945 87.893,64.912 87.008,69.760 84.703 C 74.196 82.594,77.826 79.773,80.771 76.150 C 82.965 73.450,85.793 68.270,86.530 65.600 L 86.971 64.000 70.259 64.006 C 57.644 64.011,53.285 64.145,52.480 64.552 M102.807 66.453 C 100.660 76.842,93.751 87.580,84.948 94.209 C 76.046 100.913,65.828 104.098,53.207 104.104 C 48.006 104.107,47.699 104.155,46.718 105.137 C 46.152 105.703,45.589 106.615,45.469 107.163 C 45.348 107.711,42.248 132.256,38.579 161.707 C 33.589 201.773,31.974 215.881,32.166 217.748 C 32.733 223.264,36.929 228.801,42.135 230.903 C 44.574 231.888,44.699 231.894,66.987 232.031 C 83.188 232.130,90.036 232.027,91.733 231.660 C 96.747 230.573,100.910 227.379,102.985 223.026 C 103.576 221.787,109.303 200.427,115.907 174.827 C 122.430 149.541,127.871 128.853,127.998 128.853 C 128.125 128.853,133.568 149.541,140.093 174.827 C 146.656 200.257,152.431 221.795,153.017 223.026 C 155.087 227.377,159.252 230.573,164.267 231.660 C 165.964 232.027,172.812 232.130,189.013 232.031 C 211.301 231.894,211.426 231.888,213.865 230.903 C 219.198 228.750,223.339 223.219,223.826 217.600 C 224.010 215.478,222.508 202.354,217.430 161.707 C 213.779 132.491,210.590 107.874,210.344 107.002 C 209.615 104.427,208.768 104.107,202.678 104.104 C 188.054 104.097,176.300 99.652,166.681 90.489 C 160.325 84.436,154.905 74.778,153.191 66.453 L 152.686 64.000 144.415 64.000 L 136.144 64.000 136.019 85.013 C 135.884 107.596,135.961 106.822,133.601 109.371 C 129.982 113.282,123.839 112.546,121.169 107.882 L 120.107 106.027 119.981 85.013 L 119.856 64.000 111.585 64.000 L 103.314 64.000 102.807 66.453 M169.470 65.600 C 170.849 70.597,175.412 77.248,179.977 80.914 C 183.075 83.403,189.210 86.336,193.151 87.211 C 196.648 87.988,204.423 88.125,205.718 87.432 C 206.191 87.179,206.835 86.359,207.147 85.611 C 207.639 84.434,207.571 83.095,206.647 75.725 C 206.059 71.036,205.355 66.726,205.082 66.146 C 204.105 64.067,203.615 64.013,185.741 64.006 L 169.029 64.000 169.470 65.600 " stroke="none" fill-rule="evenodd"></path></svg>