<svg fill="currentColor" viewBox="0 0 256 256" xmlns="http://www.w3.org/2000/svg"><path d="M120.960 24.326 C 100.935 25.586,81.587 32.844,64.891 45.360 C 59.554 49.360,49.234 59.686,45.276 64.986 C 34.512 79.399,27.973 94.882,25.095 112.768 C 23.886 120.283,23.787 134.307,24.890 141.867 C 27.542 160.046,34.293 176.318,45.279 191.014 C 49.299 196.392,59.608 206.701,64.986 210.721 C 79.686 221.710,96.000 228.476,114.133 231.105 C 117.683 231.620,121.936 231.847,128.000 231.847 C 144.598 231.847,158.874 228.583,173.440 221.458 C 184.661 215.968,192.320 210.472,201.396 201.396 C 210.475 192.317,215.974 184.654,221.456 173.440 C 235.707 144.287,235.458 110.173,220.780 81.026 C 214.698 68.950,203.517 55.194,193.067 46.931 C 172.349 30.550,147.221 22.673,120.960 24.326 M166.400 57.032 C 174.486 59.253,181.352 66.287,183.236 74.280 C 184.595 80.042,183.804 86.138,181.005 91.476 C 179.610 94.136,177.038 96.932,159.968 114.347 C 149.272 125.259,133.473 141.387,124.859 150.187 C 115.659 159.585,108.472 166.583,107.438 167.147 C 104.666 168.660,100.778 168.193,98.424 166.064 C 96.156 164.013,95.330 159.620,96.678 156.779 C 97.052 155.993,112.952 139.439,132.014 119.994 C 167.739 83.548,168.107 83.139,168.107 79.862 C 168.107 77.982,166.160 74.570,164.412 73.387 C 163.120 72.512,162.322 72.320,159.979 72.320 C 157.602 72.320,156.878 72.499,155.672 73.387 C 154.426 74.304,100.788 128.849,88.528 141.667 C 82.218 148.264,80.178 152.743,80.178 160.000 C 80.178 170.740,86.799 179.662,97.169 182.895 C 100.317 183.877,101.225 183.979,105.083 183.790 C 110.098 183.543,113.604 182.445,117.340 179.948 C 118.706 179.035,130.409 167.436,145.470 152.068 C 171.996 124.999,172.884 124.191,176.120 124.169 C 178.871 124.151,182.015 126.054,183.294 128.512 C 184.251 130.351,184.062 134.335,182.931 136.155 C 181.685 138.161,131.517 189.319,128.363 191.800 C 121.294 197.360,112.768 200.234,103.467 200.191 C 85.634 200.110,70.143 188.246,65.192 170.880 C 64.357 167.951,64.218 166.468,64.216 160.427 C 64.213 152.233,64.720 149.749,67.693 143.378 C 71.014 136.262,68.193 139.308,124.452 82.085 C 143.237 62.978,145.781 60.543,148.363 59.203 C 152.001 57.315,153.998 56.671,157.227 56.343 C 160.535 56.008,163.472 56.228,166.400 57.032 " stroke="none" fill-rule="evenodd"></path></svg>