<svg fill="currentColor" viewBox="0 0 256 256" xmlns="http://www.w3.org/2000/svg"><path d="M86.468 40.776 C 77.507 42.170,68.823 45.430,61.647 50.093 C 46.710 59.801,36.965 73.967,33.203 91.440 C 31.828 97.824,31.836 110.097,33.218 116.480 C 36.083 129.706,41.475 139.630,50.971 149.148 C 60.405 158.603,70.461 164.016,83.989 166.921 C 87.809 167.741,89.839 167.818,112.107 167.987 L 136.107 168.169 136.107 189.062 C 136.107 208.721,136.154 210.047,136.915 211.537 C 137.913 213.492,138.882 214.390,140.909 215.237 C 143.815 216.451,147.932 215.645,149.850 213.485 C 152.001 211.062,151.893 215.329,151.893 132.707 L 151.893 55.893 163.840 55.893 L 175.787 55.893 175.787 131.606 C 175.787 185.383,175.924 207.957,176.259 209.522 C 176.827 212.167,178.969 214.757,181.198 215.492 C 184.962 216.735,189.441 214.937,191.095 211.520 L 192.000 209.651 192.000 132.772 L 192.000 55.893 200.760 55.893 C 211.690 55.893,213.259 55.403,215.091 51.413 C 216.474 48.402,215.736 44.149,213.485 42.150 C 211.079 40.014,213.939 40.104,149.880 40.148 C 101.543 40.181,89.525 40.301,86.468 40.776 " stroke="none" fill-rule="evenodd"></path></svg>