<svg fill="currentColor" viewBox="0 0 256 256" xmlns="http://www.w3.org/2000/svg"><path d="M59.520 40.703 C 55.596 41.945,52.105 44.675,50.128 48.048 C 47.718 52.160,47.802 49.146,47.794 131.868 C 47.789 184.917,47.928 208.826,48.250 210.588 C 49.213 215.845,52.692 220.341,57.600 222.672 L 59.947 223.787 71.893 223.787 L 83.840 223.787 86.445 222.583 C 89.739 221.060,93.026 217.760,94.593 214.400 L 95.787 211.840 95.900 132.907 C 96.012 54.824,96.004 53.943,95.154 51.200 C 93.612 46.223,89.588 42.198,84.677 40.720 C 81.961 39.903,62.094 39.890,59.520 40.703 M167.680 40.541 C 158.736 41.784,148.992 45.298,141.909 49.833 C 113.836 67.809,103.992 103.785,119.099 133.195 C 125.302 145.269,135.011 154.936,147.026 161.000 C 152.200 163.611,154.692 164.550,160.272 165.988 C 189.005 173.397,219.270 159.731,232.901 133.195 C 239.433 120.478,241.579 105.024,238.722 91.280 C 233.515 66.232,214.197 46.867,188.915 41.354 C 184.379 40.365,172.282 39.902,167.680 40.541 " stroke="none" fill-rule="evenodd"></path></svg>