<svg fill="currentColor" viewBox="0 0 256 256" xmlns="http://www.w3.org/2000/svg"><path d="M74.194 17.215 C 69.921 18.978,67.146 21.634,65.198 25.827 C 64.218 27.937,64.213 28.038,64.088 48.947 L 63.962 69.948 48.777 96.941 C 40.425 111.788,33.233 124.976,32.796 126.248 C 31.383 130.354,32.034 135.663,34.389 139.245 C 36.320 142.183,112.223 240.779,113.349 241.813 C 114.825 243.169,117.445 243.128,118.846 241.726 L 119.893 240.679 119.888 197.673 L 119.882 154.667 117.221 153.407 C 113.315 151.559,108.524 146.661,106.557 142.507 C 103.142 135.291,103.272 127.669,106.929 120.709 C 113.302 108.582,129.272 104.369,140.751 111.788 C 147.772 116.326,151.869 123.735,151.887 131.926 C 151.896 135.845,151.228 138.734,149.443 142.507 C 147.476 146.661,142.685 151.559,138.779 153.407 L 136.118 154.667 136.112 197.468 C 136.108 227.322,136.246 240.530,136.568 241.131 C 136.821 241.605,137.685 242.267,138.488 242.602 C 139.730 243.121,140.152 243.125,141.333 242.628 C 142.421 242.171,151.128 231.125,181.760 191.338 C 203.232 163.448,221.255 139.881,221.810 138.965 C 224.006 135.345,224.535 130.632,223.217 126.438 C 222.779 125.044,215.742 112.059,207.236 96.947 L 192.038 69.948 191.912 48.947 L 191.787 27.947 190.672 25.600 C 189.018 22.117,186.435 19.454,183.133 17.829 L 180.285 16.427 128.436 16.327 L 76.587 16.228 74.194 17.215 M175.787 48.000 L 175.787 64.000 128.000 64.000 L 80.213 64.000 80.213 48.000 L 80.213 32.000 128.000 32.000 L 175.787 32.000 175.787 48.000 " stroke="none" fill-rule="evenodd"></path></svg>