<svg fill="currentColor" viewBox="0 0 256 256" xmlns="http://www.w3.org/2000/svg"><path d="M168.128 24.338 C 163.374 25.323,165.175 23.615,98.052 90.809 C 41.199 147.721,34.150 154.922,33.237 157.013 L 32.213 159.360 32.213 185.600 L 32.213 211.840 33.407 214.400 C 34.974 217.760,38.261 221.060,41.555 222.583 L 44.160 223.787 70.409 223.787 L 96.658 223.787 99.422 222.417 C 101.946 221.167,107.746 215.483,166.033 157.137 C 227.612 95.496,229.914 93.136,230.852 90.667 C 232.197 87.128,232.197 82.258,230.852 78.720 C 229.927 76.290,228.611 74.893,204.859 51.141 C 181.464 27.746,179.685 26.065,177.445 25.249 C 174.527 24.185,170.679 23.809,168.128 24.338 M203.947 96.638 L 192.000 108.585 169.708 86.294 L 147.417 64.002 159.360 52.054 L 171.302 40.105 193.598 62.398 L 215.894 84.691 203.947 96.638 " stroke="none" fill-rule="evenodd"></path></svg>