<svg fill="currentColor" viewBox="0 0 256 256" xmlns="http://www.w3.org/2000/svg"><path d="M168.384 24.329 C 163.482 25.180,165.802 22.987,98.052 90.809 C 41.199 147.721,34.150 154.922,33.237 157.013 L 32.213 159.360 32.213 185.600 L 32.213 211.840 33.407 214.400 C 34.974 217.760,38.261 221.060,41.555 222.583 L 44.160 223.787 130.499 223.897 C 187.930 223.971,217.377 223.863,218.447 223.575 C 220.834 222.932,223.426 219.942,223.809 217.389 C 224.351 213.775,222.806 210.634,219.710 209.055 C 218.096 208.231,216.977 208.213,166.844 208.213 C 138.674 208.213,115.627 208.071,115.627 207.897 C 115.627 207.723,141.333 181.851,172.753 150.404 C 227.783 95.324,229.914 93.133,230.852 90.667 C 232.199 87.124,232.198 82.256,230.849 78.720 C 229.924 76.296,228.575 74.860,205.496 51.717 C 192.089 38.273,180.352 26.827,179.413 26.281 C 176.200 24.412,172.090 23.685,168.384 24.329 M203.947 96.638 L 192.000 108.585 169.708 86.294 L 147.417 64.002 159.360 52.054 L 171.302 40.105 193.598 62.398 L 215.894 84.691 203.947 96.638 " stroke="none" fill-rule="evenodd"></path></svg>