<svg fill="currentColor" viewBox="0 0 256 256" xmlns="http://www.w3.org/2000/svg"><path d="M168.128 24.338 C 163.374 25.323,165.175 23.615,98.052 90.809 C 41.199 147.721,34.150 154.922,33.237 157.013 L 32.213 159.360 32.213 185.600 L 32.213 211.840 33.407 214.400 C 34.974 217.760,38.261 221.060,41.555 222.583 L 44.160 223.787 70.409 223.787 L 96.658 223.787 99.422 222.417 C 101.946 221.167,107.746 215.483,166.033 157.137 C 227.612 95.496,229.914 93.136,230.852 90.667 C 232.197 87.128,232.197 82.258,230.852 78.720 C 229.927 76.290,228.611 74.893,204.859 51.141 C 181.464 27.746,179.685 26.065,177.445 25.249 C 174.527 24.185,170.679 23.809,168.128 24.338 M150.082 78.189 L 158.290 86.405 113.169 131.524 L 68.048 176.643 59.733 168.320 L 51.418 159.997 96.428 114.985 C 121.184 90.229,141.537 69.973,141.657 69.973 C 141.777 69.973,145.568 73.670,150.082 78.189 M141.121 159.465 L 96.004 204.582 87.680 196.267 L 79.357 187.952 124.477 142.829 L 169.598 97.707 177.918 106.028 L 186.238 114.348 141.121 159.465 M76.373 207.891 C 76.373 208.068,70.037 208.213,62.293 208.213 L 48.213 208.213 48.213 193.816 L 48.213 179.418 62.293 193.493 C 70.037 201.235,76.373 207.714,76.373 207.891 " stroke="none" fill-rule="evenodd"></path></svg>