<svg fill="currentColor" viewBox="0 0 256 256" xmlns="http://www.w3.org/2000/svg"><path d="M124.160 24.323 C 111.455 25.847,101.193 34.620,97.213 47.360 C 95.918 51.505,95.817 59.672,97.007 64.000 C 99.412 72.752,105.682 80.537,113.506 84.486 C 118.385 86.949,121.701 87.680,128.000 87.680 C 132.845 87.680,134.268 87.521,136.960 86.681 C 147.870 83.274,155.995 74.910,158.993 64.000 C 160.183 59.672,160.082 51.505,158.787 47.360 C 153.968 31.933,139.723 22.457,124.160 24.323 M58.595 80.979 C 51.533 83.497,47.030 91.077,48.227 98.432 C 50.324 111.315,66.026 116.430,75.228 107.228 C 83.007 99.449,80.795 86.461,70.865 81.602 C 67.750 80.079,61.947 79.784,58.595 80.979 M175.787 88.365 C 160.916 90.042,147.944 95.256,130.516 106.562 C 118.650 114.260,111.458 118.074,101.760 121.814 C 86.578 127.667,71.581 129.477,61.653 126.654 C 59.776 126.120,57.058 125.676,55.612 125.668 C 53.311 125.655,52.781 125.816,51.346 126.958 C 49.444 128.472,47.787 131.444,47.787 133.340 C 47.787 135.277,49.685 138.731,51.379 139.876 C 56.420 143.286,71.505 144.828,83.431 143.154 C 98.147 141.088,115.351 134.627,130.500 125.476 C 132.864 124.048,134.862 122.880,134.940 122.880 C 135.403 122.880,133.572 136.738,132.217 143.498 C 128.486 162.110,121.541 178.095,111.423 191.360 C 108.516 195.172,100.550 203.211,96.427 206.495 C 88.104 213.123,77.842 218.733,67.200 222.474 C 60.070 224.981,58.468 225.811,57.216 227.645 C 55.999 229.429,55.584 232.651,56.294 234.802 C 56.952 236.796,59.655 239.191,61.940 239.806 C 63.438 240.210,64.224 240.172,66.282 239.600 C 71.720 238.088,79.893 234.872,86.400 231.683 C 113.181 218.560,132.015 196.657,142.537 166.400 C 143.639 163.232,144.655 160.640,144.796 160.640 C 145.342 160.640,166.400 178.439,166.400 178.901 C 166.400 179.170,163.115 189.260,159.101 201.323 C 152.840 220.135,151.840 223.498,152.073 224.953 C 152.467 227.418,153.404 228.972,155.338 230.374 C 158.620 232.751,162.758 232.444,165.572 229.612 C 167.015 228.161,167.699 226.321,175.507 202.880 C 181.189 185.825,183.893 177.116,183.893 175.876 C 183.893 172.274,183.291 171.653,165.555 156.956 L 148.890 143.147 149.090 141.227 C 149.199 140.171,149.674 136.331,150.145 132.693 C 150.615 129.056,151.114 123.776,151.252 120.960 C 151.391 118.144,151.601 115.041,151.719 114.064 L 151.934 112.288 155.951 110.527 C 166.761 105.786,176.584 103.753,186.405 104.224 C 196.379 104.703,203.126 106.911,212.463 112.753 C 214.534 114.048,217.664 113.997,220.095 112.628 C 222.588 111.223,224.000 108.778,224.000 105.866 C 224.000 101.591,221.936 99.308,214.484 95.344 C 203.389 89.442,189.095 86.864,175.787 88.365 " stroke="none" fill-rule="evenodd"></path></svg>