<svg fill="currentColor" viewBox="0 0 256 256" xmlns="http://www.w3.org/2000/svg"><path d="M78.293 24.561 C 70.114 26.079,61.556 29.771,54.963 34.624 C 45.870 41.317,38.530 51.325,34.984 61.867 C 31.624 71.855,31.149 84.671,33.530 101.120 C 36.775 123.541,46.305 146.639,59.902 165.041 C 80.968 193.551,110.985 213.082,145.493 220.734 C 156.012 223.066,168.054 224.235,177.707 223.860 C 189.307 223.410,198.056 220.608,207.546 214.302 C 212.572 210.963,218.908 204.786,222.172 200.044 C 228.462 190.904,232.925 177.400,231.806 170.895 C 230.913 165.704,228.012 161.538,223.710 159.266 C 222.344 158.545,210.379 153.087,197.120 147.137 L 173.013 136.320 168.747 136.325 C 164.843 136.330,164.273 136.439,162.042 137.605 C 160.642 138.337,154.326 143.388,147.204 149.470 L 134.804 160.061 131.935 158.468 C 118.772 151.159,104.166 136.692,97.831 124.691 L 96.087 121.387 106.715 108.800 C 113.367 100.923,117.766 95.335,118.472 93.867 C 119.795 91.118,120.270 86.425,119.525 83.466 C 119.147 81.968,101.566 42.195,97.299 33.188 C 95.755 29.928,93.303 27.493,89.892 25.836 C 86.145 24.014,83.062 23.675,78.293 24.561 M156.800 40.714 C 154.988 41.526,153.629 42.939,152.707 44.969 C 150.664 49.469,151.606 51.068,163.106 62.614 L 172.562 72.107 162.691 82.027 C 154.140 90.620,152.754 92.196,152.327 93.808 C 150.715 99.898,156.102 105.285,162.192 103.673 C 163.804 103.246,165.380 101.860,173.973 93.309 L 183.893 83.438 193.386 92.894 C 205.168 104.629,206.638 105.456,211.436 103.047 C 214.051 101.735,215.528 99.647,215.793 96.890 C 216.169 92.983,215.704 92.318,205.175 81.691 L 195.436 71.863 204.841 62.491 C 210.014 57.337,214.616 52.408,215.069 51.537 C 216.572 48.650,215.827 44.282,213.470 42.150 C 212.234 41.032,209.700 40.106,207.907 40.116 C 204.864 40.134,203.178 41.425,193.505 51.148 L 184.130 60.570 174.491 50.990 C 168.425 44.960,164.275 41.168,163.293 40.758 C 161.389 39.962,158.520 39.943,156.800 40.714 " stroke="none" fill-rule="evenodd"></path></svg>