<svg fill="currentColor" viewBox="0 0 256 256" xmlns="http://www.w3.org/2000/svg"><path d="M44.537 32.816 C 41.931 34.000,40.407 36.239,40.193 39.202 C 40.080 40.768,40.244 42.152,40.655 43.107 C 41.006 43.921,47.667 51.585,55.458 60.139 L 69.624 75.692 63.666 78.536 C 50.440 84.850,38.485 92.968,28.160 102.649 C 20.826 109.525,17.143 114.137,13.885 120.522 C 9.958 128.218,8.107 135.972,8.107 144.727 C 8.107 153.230,9.818 160.437,13.697 168.262 C 17.349 175.632,21.356 180.441,25.568 182.511 C 27.697 183.557,28.395 183.677,32.213 183.653 L 36.480 183.626 61.758 174.594 C 75.661 169.627,87.957 165.096,89.082 164.526 C 91.671 163.214,94.496 160.167,95.836 157.239 C 96.509 155.769,97.952 149.569,99.926 139.670 C 101.604 131.257,103.137 124.265,103.332 124.132 C 103.528 124.000,105.430 123.442,107.559 122.893 L 111.430 121.895 113.068 123.561 C 113.969 124.477,134.486 147.019,158.661 173.653 C 191.453 209.782,203.078 222.324,204.438 223.040 C 207.824 224.823,212.088 223.869,214.425 220.805 C 215.913 218.854,216.338 215.199,215.346 212.893 C 214.354 210.590,53.738 34.141,51.558 32.960 C 49.395 31.788,46.912 31.738,44.537 32.816 M119.680 64.250 C 119.211 64.365,118.398 64.551,117.874 64.663 C 116.501 64.955,113.889 67.384,113.216 68.993 C 112.354 71.057,112.491 74.204,113.517 75.887 C 113.998 76.675,135.138 100.141,160.495 128.033 L 206.598 178.747 209.859 179.994 C 218.853 183.434,221.022 184.003,224.409 183.804 C 230.379 183.454,234.386 180.805,238.793 174.293 C 249.391 158.631,250.855 138.299,242.588 121.582 C 239.789 115.923,236.631 111.573,231.494 106.306 C 209.555 83.809,178.915 69.144,145.280 65.043 C 139.936 64.391,121.432 63.818,119.680 64.250 " stroke="none" fill-rule="evenodd"></path></svg>