<svg fill="currentColor" viewBox="0 0 256 256" xmlns="http://www.w3.org/2000/svg"><path d="M78.293 24.561 C 70.114 26.079,61.556 29.771,54.963 34.624 C 45.870 41.317,38.530 51.325,34.984 61.867 C 31.624 71.855,31.149 84.671,33.530 101.120 C 36.775 123.541,46.305 146.639,59.902 165.041 C 80.968 193.551,110.985 213.082,145.493 220.734 C 160.320 224.021,178.483 224.901,187.733 222.781 C 198.948 220.209,208.146 215.174,215.893 207.363 C 224.177 199.012,229.412 188.975,231.535 177.372 C 232.651 171.273,231.487 166.591,227.819 162.424 C 225.658 159.969,224.540 159.413,196.693 146.933 L 173.013 136.320 168.960 136.320 C 162.853 136.320,161.965 136.857,147.204 149.472 L 134.810 160.064 131.938 158.470 C 118.772 151.158,104.166 136.694,97.831 124.691 L 96.087 121.387 106.715 108.800 C 113.367 100.923,117.766 95.335,118.472 93.867 C 119.795 91.118,120.270 86.425,119.525 83.466 C 119.147 81.968,101.566 42.195,97.299 33.188 C 95.755 29.928,93.303 27.493,89.892 25.836 C 86.145 24.014,83.062 23.675,78.293 24.561 M156.782 32.776 C 152.095 34.977,150.630 40.629,153.648 44.868 C 154.761 46.430,155.934 47.022,161.579 48.872 C 183.453 56.037,199.963 72.547,207.128 94.421 C 207.957 96.949,208.921 99.572,209.271 100.249 C 210.097 101.847,211.890 103.101,214.232 103.718 C 219.418 105.085,224.594 100.341,223.849 94.904 C 223.053 89.096,217.227 75.685,212.277 68.267 C 201.495 52.106,185.459 39.827,167.343 33.862 C 161.544 31.952,159.076 31.699,156.782 32.776 M148.644 64.816 C 144.585 66.659,142.862 71.827,144.984 75.792 C 145.951 77.599,148.399 79.252,151.503 80.195 C 158.321 82.266,164.804 86.413,168.826 91.277 C 171.497 94.507,174.513 100.256,175.795 104.560 C 176.679 107.530,178.401 110.049,180.208 111.016 C 185.394 113.792,191.955 109.907,191.991 104.041 C 192.003 101.918,189.362 94.453,187.017 89.987 C 180.916 78.363,170.732 69.840,157.759 65.499 C 152.678 63.799,151.138 63.684,148.644 64.816 " stroke="none" fill-rule="evenodd"></path></svg>