<svg fill="currentColor" viewBox="0 0 256 256" xmlns="http://www.w3.org/2000/svg"><path d="M78.293 24.561 C 70.114 26.079,61.556 29.771,54.963 34.624 C 45.870 41.317,38.530 51.325,34.984 61.867 C 31.624 71.855,31.149 84.671,33.530 101.120 C 36.775 123.541,46.305 146.639,59.902 165.041 C 80.968 193.551,110.985 213.082,145.493 220.734 C 156.012 223.066,168.054 224.235,177.707 223.860 C 189.307 223.410,198.056 220.608,207.546 214.302 C 212.572 210.963,218.908 204.786,222.172 200.044 C 228.462 190.904,232.925 177.400,231.806 170.895 C 230.913 165.704,228.012 161.538,223.710 159.266 C 222.344 158.545,210.379 153.087,197.120 147.137 L 173.013 136.320 168.747 136.325 C 164.844 136.330,164.271 136.439,162.037 137.605 C 160.632 138.338,154.315 143.377,147.178 149.459 L 134.762 160.037 131.914 158.464 C 118.710 151.170,103.374 135.806,97.314 123.802 L 96.086 121.367 106.712 108.790 C 113.323 100.967,117.768 95.326,118.473 93.867 C 119.966 90.779,120.322 85.916,119.287 82.753 C 118.685 80.911,100.833 40.664,97.438 33.494 C 95.748 29.924,93.400 27.541,89.892 25.836 C 86.145 24.014,83.062 23.675,78.293 24.561 " stroke="none" fill-rule="evenodd"></path></svg>