<svg fill="currentColor" viewBox="0 0 256 256" xmlns="http://www.w3.org/2000/svg"><path d="M78.293 24.561 C 70.114 26.079,61.556 29.771,54.963 34.624 C 45.870 41.317,38.530 51.325,34.984 61.867 C 31.624 71.855,31.149 84.671,33.530 101.120 C 36.775 123.541,46.305 146.639,59.902 165.041 C 80.968 193.551,110.985 213.082,145.493 220.734 C 156.012 223.066,168.054 224.235,177.707 223.860 C 189.307 223.410,198.056 220.608,207.546 214.302 C 212.572 210.963,218.908 204.786,222.172 200.044 C 228.462 190.904,232.925 177.400,231.806 170.895 C 230.913 165.704,228.012 161.538,223.710 159.266 C 222.344 158.545,210.379 153.087,197.120 147.137 L 173.013 136.320 168.747 136.325 C 164.843 136.330,164.273 136.439,162.042 137.605 C 160.642 138.337,154.326 143.388,147.204 149.470 L 134.804 160.061 131.935 158.468 C 118.772 151.159,104.166 136.692,97.831 124.691 L 96.087 121.387 106.715 108.800 C 113.367 100.923,117.766 95.335,118.472 93.867 C 119.795 91.118,120.270 86.425,119.525 83.466 C 119.147 81.968,101.566 42.195,97.299 33.188 C 95.755 29.928,93.303 27.493,89.892 25.836 C 86.145 24.014,83.062 23.675,78.293 24.561 M164.338 41.022 C 161.590 42.383,160.213 44.711,160.213 48.000 C 160.213 51.314,161.602 53.647,164.373 54.988 C 166.134 55.841,166.900 55.893,177.515 55.893 L 188.786 55.893 170.800 73.920 C 154.779 89.977,152.760 92.150,152.324 93.808 C 150.721 99.903,156.097 105.279,162.192 103.676 C 163.850 103.240,166.023 101.221,182.080 85.200 L 200.107 67.214 200.107 78.485 C 200.107 89.100,200.159 89.866,201.012 91.627 C 202.353 94.398,204.686 95.787,208.000 95.787 C 211.314 95.787,213.647 94.398,214.988 91.627 C 215.874 89.797,215.893 89.297,215.893 68.118 C 215.893 49.610,215.798 46.252,215.237 44.909 C 214.353 42.793,213.443 41.841,211.413 40.909 C 209.829 40.182,208.147 40.125,187.947 40.116 C 166.549 40.107,166.156 40.123,164.338 41.022 " stroke="none" fill-rule="evenodd"></path></svg>