<svg fill="currentColor" viewBox="0 0 256 256" xmlns="http://www.w3.org/2000/svg"><path d="M44.265 32.461 C 39.776 33.526,35.661 36.951,33.540 41.387 L 32.213 44.160 32.213 128.000 L 32.213 211.840 33.407 214.400 C 34.974 217.760,38.261 221.060,41.555 222.583 L 44.160 223.787 128.000 223.787 L 211.840 223.787 214.445 222.583 C 217.739 221.060,221.026 217.760,222.593 214.400 L 223.787 211.840 223.787 128.000 L 223.787 44.160 222.583 41.555 C 221.060 38.261,217.760 34.974,214.400 33.407 L 211.840 32.213 128.853 32.147 C 81.512 32.109,45.179 32.244,44.265 32.461 M195.930 81.169 C 200.360 83.658,201.174 90.285,197.475 93.740 C 195.121 95.937,194.542 96.000,176.643 96.000 L 159.979 96.000 160.096 127.680 L 160.213 159.360 161.537 161.707 C 163.161 164.585,165.691 166.597,168.840 167.512 C 171.762 168.362,174.298 168.086,177.376 166.583 C 181.353 164.641,183.440 161.282,184.094 155.773 C 184.517 152.205,185.821 150.292,188.885 148.743 C 192.361 146.987,197.157 148.756,199.160 152.533 C 200.038 154.190,199.970 159.395,199.023 163.063 C 197.132 170.384,191.550 177.380,184.895 180.766 C 176.181 185.201,165.820 184.902,157.548 179.977 C 152.363 176.890,147.428 170.694,145.375 164.693 C 144.431 161.934,144.426 161.755,144.307 128.960 L 144.188 96.000 127.987 96.000 L 111.787 96.000 111.787 137.073 C 111.787 176.264,111.750 178.214,110.995 179.623 C 110.560 180.434,109.486 181.679,108.609 182.389 C 107.187 183.540,106.703 183.680,104.143 183.680 C 100.561 183.680,98.286 182.373,96.905 179.520 C 96.002 177.655,96.000 177.557,96.000 136.772 L 96.000 95.894 89.707 96.106 C 82.409 96.351,79.308 97.139,75.276 99.773 C 68.571 104.154,64.903 110.320,64.066 118.619 C 63.865 120.616,63.393 122.844,63.018 123.569 C 60.052 129.306,51.951 129.388,49.055 123.710 C 47.406 120.478,48.190 112.140,50.770 105.479 C 55.591 93.029,66.586 83.707,79.787 80.876 C 82.073 80.386,92.361 80.275,138.395 80.247 L 194.230 80.213 195.930 81.169 " stroke="none" fill-rule="evenodd"></path></svg>