<svg fill="currentColor" viewBox="0 0 256 256" xmlns="http://www.w3.org/2000/svg"><path d="M118.400 24.341 C 90.170 25.602,62.112 33.015,36.907 45.872 C 28.539 50.141,23.028 53.387,20.921 55.291 C 18.830 57.180,16.826 61.016,16.244 64.240 C 15.717 67.164,16.122 70.172,17.443 73.159 C 18.269 75.027,110.013 225.618,114.175 231.939 C 117.784 237.419,122.091 239.905,128.000 239.919 C 133.517 239.931,138.365 237.369,141.322 232.878 C 144.221 228.476,238.328 74.008,238.880 72.747 C 241.253 67.318,239.504 59.289,235.079 55.291 C 232.881 53.305,227.315 50.056,218.229 45.455 C 187.809 30.052,153.411 22.776,118.400 24.341 M140.160 72.555 C 159.371 74.206,176.589 78.849,193.280 86.882 C 200.293 90.256,206.930 93.893,206.932 94.362 C 206.933 94.601,184.932 130.883,184.492 131.368 C 184.409 131.460,183.343 131.121,182.123 130.614 C 173.461 127.014,161.546 127.300,151.936 131.338 C 137.658 137.337,128.000 152.100,128.000 167.925 C 128.000 178.465,131.946 188.160,139.333 195.765 L 142.929 199.467 139.026 205.867 C 136.879 209.387,133.578 214.811,131.689 217.920 C 129.801 221.029,128.145 223.573,128.010 223.573 C 127.874 223.573,120.754 212.104,112.186 198.086 L 96.608 172.599 100.217 170.459 C 110.000 164.660,116.975 154.777,119.336 143.368 C 120.337 138.532,119.917 129.813,118.447 124.890 C 114.235 110.785,103.184 100.347,88.928 97.006 C 84.033 95.859,74.857 95.965,70.187 97.223 C 66.504 98.215,60.826 100.766,57.916 102.736 C 56.921 103.410,55.883 104.091,55.610 104.250 C 55.296 104.432,54.005 102.737,52.090 99.628 C 50.427 96.928,49.067 94.575,49.068 94.399 C 49.072 93.405,66.288 84.856,74.539 81.751 C 87.205 76.984,101.368 73.790,115.200 72.579 C 121.119 72.061,134.259 72.048,140.160 72.555 " stroke="none" fill-rule="evenodd"></path></svg>