<svg fill="currentColor" viewBox="0 0 256 256" xmlns="http://www.w3.org/2000/svg"><path d="M180.053 17.108 C 179.232 17.598,170.782 25.757,161.275 35.238 L 143.990 52.476 130.982 39.437 C 118.249 26.675,115.950 24.693,113.209 24.122 C 110.202 23.496,105.940 25.877,104.683 28.886 C 103.994 30.536,103.937 33.196,104.555 34.852 C 104.802 35.513,106.766 37.830,108.921 40.001 L 112.838 43.948 84.428 72.427 C 53.868 103.063,53.730 103.220,50.835 110.546 C 47.004 120.244,47.142 131.331,51.212 140.895 C 53.608 146.526,56.559 150.268,66.106 159.783 C 71.049 164.709,75.093 168.931,75.093 169.165 C 75.093 169.399,63.780 180.921,49.952 194.769 C 27.348 217.406,24.762 220.134,24.323 221.808 C 22.723 227.905,28.095 233.277,34.192 231.677 C 35.866 231.238,38.594 228.652,61.231 206.048 C 75.079 192.220,86.616 180.907,86.869 180.907 C 87.121 180.907,91.151 184.808,95.824 189.577 C 100.497 194.346,105.560 199.160,107.075 200.274 C 118.277 208.516,133.220 210.250,146.300 204.826 C 153.069 202.020,154.588 200.665,184.080 171.145 L 211.786 143.411 215.731 147.183 C 220.062 151.323,221.620 152.108,224.890 151.793 C 227.647 151.528,229.735 150.051,231.047 147.436 C 233.575 142.400,233.051 141.582,216.941 125.435 L 203.527 111.989 220.387 95.141 C 229.660 85.875,237.740 77.586,238.342 76.721 C 238.944 75.857,239.596 74.445,239.790 73.585 C 240.248 71.556,239.382 68.166,238.031 66.700 C 236.696 65.250,233.975 64.019,232.107 64.019 C 228.698 64.019,227.490 65.034,209.383 83.111 L 191.994 100.472 173.765 82.244 L 155.537 64.016 173.299 46.194 C 191.944 27.487,191.990 27.431,191.998 23.773 C 192.000 22.351,190.969 19.756,189.957 18.637 C 187.751 16.197,182.847 15.440,180.053 17.108 " stroke="none" fill-rule="evenodd"></path></svg>