<svg fill="currentColor" viewBox="0 0 256 256" xmlns="http://www.w3.org/2000/svg"><path d="M228.480 16.914 C 227.776 17.280,220.636 24.123,212.614 32.120 L 198.028 46.660 194.037 42.844 C 185.753 34.925,179.732 32.270,170.027 32.255 C 162.851 32.244,157.743 33.766,151.893 37.659 C 150.837 38.362,144.176 44.709,137.090 51.763 L 124.206 64.589 120.603 61.129 C 116.331 57.028,114.883 56.198,112.000 56.198 C 105.573 56.198,101.872 63.326,105.551 68.618 C 106.151 69.481,124.840 88.357,147.081 110.564 C 190.772 154.189,188.571 152.208,192.890 151.793 C 195.647 151.528,197.735 150.051,199.047 147.436 C 201.049 143.449,200.118 140.750,194.901 135.405 L 191.412 131.830 204.854 118.288 C 217.262 105.788,218.430 104.484,220.039 101.333 C 223.684 94.194,224.797 87.178,223.388 80.223 C 221.936 73.061,219.365 68.421,213.408 62.214 L 209.349 57.985 224.308 42.966 C 238.665 28.552,239.285 27.862,239.702 25.856 C 239.942 24.706,240.074 23.554,239.998 23.296 C 239.921 23.038,239.743 22.302,239.603 21.661 C 239.291 20.236,237.099 17.670,235.478 16.832 C 233.917 16.024,230.102 16.069,228.480 16.914 M60.800 104.714 C 58.988 105.526,57.629 106.939,56.707 108.969 C 55.026 112.671,56.076 115.449,61.099 120.595 L 64.588 124.170 51.146 137.712 C 38.738 150.212,37.570 151.516,35.961 154.667 C 32.321 161.796,31.203 168.824,32.607 175.752 C 34.091 183.072,36.636 187.641,42.756 193.967 L 46.667 198.010 31.696 213.032 C 17.311 227.465,16.708 228.135,16.294 230.144 C 16.057 231.294,15.926 232.446,16.002 232.704 C 16.079 232.962,16.257 233.698,16.397 234.339 C 16.681 235.638,18.836 238.282,20.208 239.016 C 21.830 239.884,23.835 240.122,25.905 239.692 C 27.848 239.288,28.674 238.542,42.966 224.308 L 57.985 209.349 62.214 213.408 C 68.421 219.365,73.061 221.936,80.224 223.388 C 82.815 223.913,84.880 224.046,87.665 223.867 C 92.729 223.542,95.773 222.711,100.693 220.311 C 104.727 218.344,104.811 218.270,118.288 204.873 L 131.830 191.412 135.405 194.901 C 140.750 200.118,143.449 201.049,147.436 199.047 C 150.051 197.735,151.528 195.647,151.793 192.890 C 152.169 188.983,151.704 188.318,141.175 177.691 L 131.436 167.863 140.841 158.491 C 146.014 153.337,150.616 148.408,151.069 147.537 C 152.572 144.650,151.827 140.282,149.470 138.150 C 148.262 137.057,145.716 136.107,144.000 136.107 C 140.953 136.107,139.547 137.179,129.703 147.002 L 120.100 156.587 109.756 146.237 L 99.413 135.886 108.829 126.503 C 114.008 121.342,118.616 116.408,119.069 115.537 C 120.572 112.650,119.827 108.282,117.470 106.150 C 116.234 105.032,113.700 104.106,111.907 104.116 C 108.864 104.134,107.178 105.425,97.505 115.148 L 88.130 124.570 78.491 114.990 C 72.425 108.960,68.275 105.168,67.293 104.758 C 65.389 103.962,62.520 103.943,60.800 104.714 " stroke="none" fill-rule="evenodd"></path></svg>