<svg fill="currentColor" viewBox="0 0 256 256" xmlns="http://www.w3.org/2000/svg"><path d="M44.265 32.461 C 39.776 33.526,35.661 36.951,33.540 41.387 L 32.213 44.160 32.213 128.000 L 32.213 211.840 33.407 214.400 C 34.974 217.760,38.261 221.060,41.555 222.583 L 44.160 223.787 128.000 223.787 L 211.840 223.787 214.445 222.583 C 217.739 221.060,221.026 217.760,222.593 214.400 L 223.787 211.840 223.787 128.000 L 223.787 44.160 222.583 41.555 C 221.060 38.261,217.760 34.974,214.400 33.407 L 211.840 32.213 128.853 32.147 C 81.512 32.109,45.179 32.244,44.265 32.461 M131.930 81.169 C 132.936 81.734,134.092 82.910,134.762 84.049 L 135.893 85.973 136.022 102.911 L 136.152 119.848 153.089 119.978 L 170.027 120.107 171.882 121.169 C 175.807 123.416,177.018 128.451,174.564 132.321 C 172.293 135.901,172.439 135.876,153.089 136.014 L 136.152 136.135 136.022 153.081 L 135.893 170.027 134.762 171.951 C 131.676 177.200,124.324 177.200,121.238 171.951 L 120.107 170.027 119.978 153.081 L 119.848 136.135 102.911 136.014 C 83.561 135.876,83.707 135.901,81.436 132.321 C 78.988 128.461,80.151 123.530,84.049 121.238 L 85.973 120.107 102.911 119.978 L 119.848 119.848 119.978 102.911 L 120.107 85.973 121.164 84.126 C 123.301 80.394,128.171 79.056,131.930 81.169 " stroke="none" fill-rule="evenodd"></path></svg>