<svg fill="currentColor" viewBox="0 0 256 256" xmlns="http://www.w3.org/2000/svg"><path d="M120.960 24.326 C 100.935 25.586,81.587 32.844,64.891 45.360 C 59.554 49.360,49.234 59.686,45.276 64.986 C 34.512 79.399,27.973 94.882,25.095 112.768 C 23.886 120.283,23.787 134.307,24.890 141.867 C 27.542 160.046,34.293 176.318,45.279 191.014 C 49.299 196.392,59.608 206.701,64.986 210.721 C 79.686 221.710,96.000 228.476,114.133 231.105 C 117.683 231.620,121.936 231.847,128.000 231.847 C 144.598 231.847,158.874 228.583,173.440 221.458 C 184.661 215.968,192.320 210.472,201.396 201.396 C 210.475 192.317,215.974 184.654,221.456 173.440 C 235.707 144.287,235.458 110.173,220.780 81.026 C 214.698 68.950,203.517 55.194,193.067 46.931 C 172.349 30.550,147.221 22.673,120.960 24.326 M119.793 52.574 L 119.680 64.616 116.346 65.172 C 108.881 66.416,99.225 70.360,92.607 74.866 C 90.700 76.164,89.002 77.227,88.833 77.227 C 88.664 77.227,84.730 73.428,80.092 68.785 L 71.658 60.344 74.549 58.178 C 85.803 49.745,97.508 44.444,110.569 41.866 C 115.230 40.946,116.803 40.701,118.727 40.597 L 119.907 40.533 119.793 52.574 M142.080 41.187 C 156.285 43.466,169.331 49.096,181.451 58.178 L 184.342 60.344 175.908 68.785 C 171.270 73.428,167.344 77.227,167.185 77.227 C 167.025 77.227,165.391 76.194,163.554 74.932 C 155.936 69.701,148.990 66.992,137.067 64.603 L 136.107 64.410 136.107 52.472 L 136.107 40.533 137.067 40.535 C 137.595 40.536,139.851 40.829,142.080 41.187 M77.011 89.349 C 70.137 99.110,66.504 107.626,64.664 118.293 L 64.388 119.893 52.461 119.893 L 40.533 119.893 40.535 118.933 C 40.539 116.933,41.886 109.682,43.116 105.049 C 45.984 94.241,50.935 84.214,58.179 74.548 L 60.346 71.655 68.891 80.200 C 75.507 86.816,77.340 88.882,77.011 89.349 M200.479 78.293 C 207.749 88.850,212.808 101.426,214.813 113.920 C 215.171 116.149,215.464 118.405,215.465 118.933 L 215.467 119.893 203.528 119.893 L 191.590 119.893 191.392 118.933 C 190.097 112.641,189.585 110.593,188.488 107.307 C 186.547 101.490,183.550 95.825,178.990 89.350 C 178.662 88.886,180.502 86.810,187.086 80.221 L 195.605 71.693 196.573 72.860 C 197.106 73.502,198.864 75.947,200.479 78.293 M64.608 137.067 C 66.526 146.381,67.474 149.415,70.374 155.520 C 71.489 157.867,73.487 161.400,74.814 163.372 C 76.141 165.344,77.227 167.074,77.227 167.216 C 77.227 167.358,73.428 171.270,68.785 175.908 L 60.344 184.342 58.178 181.451 C 49.146 169.398,43.469 156.240,41.189 142.080 C 40.830 139.851,40.536 137.595,40.535 137.067 L 40.533 136.107 52.472 136.107 L 64.410 136.107 64.608 137.067 M215.465 137.067 C 215.457 141.521,212.528 153.404,209.700 160.451 C 206.587 168.212,201.119 177.662,196.573 183.140 L 195.605 184.307 187.086 175.779 C 180.502 169.190,178.662 167.114,178.990 166.650 C 183.550 160.175,186.547 154.510,188.488 148.693 C 189.585 145.407,190.097 143.359,191.392 137.067 L 191.590 136.107 203.528 136.107 L 215.467 136.107 215.465 137.067 M92.344 181.063 C 96.895 184.090,102.579 186.911,107.307 188.488 C 110.593 189.585,112.641 190.097,118.933 191.392 L 119.893 191.590 119.893 203.587 L 119.893 215.585 117.013 215.295 C 115.429 215.136,111.925 214.514,109.227 213.914 C 96.747 211.139,85.484 205.998,75.395 198.471 L 71.643 195.672 80.084 187.222 C 84.727 182.575,88.610 178.773,88.714 178.773 C 88.817 178.773,90.451 179.804,92.344 181.063 M175.908 187.215 L 184.342 195.656 181.451 197.837 C 170.898 205.797,159.489 211.087,146.773 213.914 C 144.075 214.514,140.571 215.136,138.987 215.295 L 136.107 215.585 136.107 203.587 L 136.107 191.590 137.067 191.392 C 143.359 190.097,145.407 189.585,148.693 188.488 C 150.805 187.784,154.252 186.344,156.352 185.290 C 160.161 183.377,165.753 179.902,166.210 179.163 C 166.342 178.949,166.681 178.773,166.963 178.773 C 167.244 178.773,171.270 182.572,175.908 187.215 " stroke="none" fill-rule="evenodd"></path></svg>