<svg fill="currentColor" viewBox="0 0 256 256" xmlns="http://www.w3.org/2000/svg"><path d="M112.651 16.856 C 111.132 17.199,108.348 18.223,106.464 19.132 C 96.117 24.127,89.779 32.900,88.256 44.335 C 87.628 49.052,88.216 53.895,90.045 59.078 C 90.739 61.044,91.307 62.742,91.307 62.853 C 91.307 63.257,58.031 93.013,57.578 93.013 C 57.322 93.013,56.289 92.531,55.284 91.942 C 48.775 88.127,38.761 87.093,30.787 89.411 C 23.023 91.668,15.151 98.193,11.525 105.377 C 6.656 115.023,6.779 125.528,11.878 135.467 C 14.202 139.997,20.394 146.017,25.173 148.395 C 36.021 153.790,47.856 153.105,57.857 146.504 C 59.055 145.713,60.166 145.067,60.325 145.067 C 60.564 145.067,128.726 194.855,129.843 195.845 C 130.035 196.015,129.747 197.572,129.203 199.304 C 127.772 203.859,127.777 212.149,129.213 216.747 C 131.744 224.849,137.349 231.975,144.213 235.818 C 157.896 243.479,175.315 240.111,184.985 227.935 C 187.273 225.054,189.959 219.700,190.919 216.107 C 194.202 203.815,189.233 189.698,179.041 182.363 L 177.815 181.481 191.433 142.900 L 205.051 104.320 209.026 104.013 C 221.661 103.037,231.408 96.654,236.574 85.973 C 239.017 80.921,239.834 77.403,239.821 71.990 C 239.798 62.895,236.383 54.927,229.873 48.781 C 219.237 38.740,203.297 37.262,190.733 45.151 C 187.720 47.042,183.408 51.192,181.718 53.825 C 180.980 54.975,180.079 55.881,179.689 55.865 C 179.303 55.850,172.939 54.170,165.547 52.132 L 152.107 48.427 151.781 44.829 C 151.405 40.681,149.667 35.253,147.569 31.675 C 145.635 28.376,139.519 22.339,136.107 20.360 C 131.309 17.577,127.342 16.533,120.960 16.373 C 117.180 16.278,114.534 16.432,112.651 16.856 M162.624 67.923 L 175.702 71.467 176.194 75.299 C 177.304 83.956,181.277 91.471,187.317 96.339 C 188.687 97.443,189.823 98.539,189.842 98.773 C 189.861 99.008,183.778 116.526,176.325 137.703 L 162.773 176.206 159.495 176.210 C 153.397 176.217,147.005 178.225,141.899 181.738 C 140.858 182.454,139.889 183.040,139.747 183.040 C 139.518 183.040,71.234 133.122,70.214 132.209 C 69.969 131.990,70.099 130.947,70.551 129.514 C 72.571 123.106,72.443 115.959,70.196 109.591 C 69.588 107.865,68.985 106.144,68.857 105.766 C 68.690 105.271,73.318 100.851,85.473 89.898 L 102.321 74.717 105.027 76.184 C 114.669 81.408,126.834 81.138,136.365 75.487 C 139.516 73.619,144.622 68.822,146.387 66.070 C 147.479 64.368,147.939 63.980,148.652 64.157 C 149.144 64.280,155.432 65.975,162.624 67.923 " stroke="none" fill-rule="evenodd"></path></svg>