<svg fill="currentColor" viewBox="0 0 256 256" xmlns="http://www.w3.org/2000/svg"><path d="M204.800 24.343 C 154.858 27.371,123.251 55.505,128.672 92.105 C 129.280 96.212,131.802 104.655,133.667 108.831 L 134.348 110.355 127.222 117.471 L 120.097 124.588 114.008 118.488 L 107.919 112.388 108.970 109.596 C 113.178 98.415,112.845 86.544,108.055 77.013 C 105.146 71.224,99.336 64.661,93.418 60.476 C 86.996 55.935,76.405 51.689,67.157 49.948 C 59.972 48.595,55.517 48.220,46.720 48.226 C 37.579 48.233,36.035 48.601,34.009 51.260 C 32.153 53.697,31.854 55.944,32.127 65.424 C 32.572 80.893,35.147 92.249,40.644 102.987 C 51.403 124.004,71.834 132.752,92.721 125.287 L 96.764 123.842 100.975 128.161 C 103.292 130.536,105.945 133.299,106.872 134.299 L 108.558 136.118 104.527 140.166 L 100.497 144.213 77.107 144.213 C 57.517 144.213,53.523 144.314,52.522 144.832 C 50.901 145.670,48.709 148.236,48.397 149.661 C 48.257 150.302,48.077 151.043,47.998 151.307 C 47.698 152.307,48.731 155.559,49.788 156.945 C 51.663 159.402,53.595 159.980,59.982 159.991 L 65.564 160.000 72.061 189.333 C 75.634 205.467,78.852 219.627,79.213 220.800 C 80.571 225.222,83.627 228.594,88.229 230.751 L 90.667 231.893 128.000 231.893 L 165.333 231.893 168.108 230.578 C 171.473 228.984,174.516 226.044,175.916 223.035 C 176.581 221.607,179.388 209.829,183.695 190.400 L 190.434 160.000 196.017 159.991 C 202.405 159.980,204.337 159.402,206.212 156.945 C 209.428 152.728,207.775 146.487,202.959 144.667 C 202.142 144.359,189.272 144.213,162.746 144.213 C 141.289 144.213,123.733 144.068,123.733 143.890 C 123.733 143.713,128.685 138.618,134.737 132.570 L 145.741 121.572 148.497 122.818 C 157.558 126.912,168.695 128.729,177.745 127.590 C 202.672 124.453,221.804 103.519,228.843 71.680 C 231.224 60.910,232.369 48.293,231.955 37.380 C 231.657 29.520,231.093 27.772,228.211 25.775 C 226.662 24.702,225.972 24.541,221.719 24.263 C 216.022 23.892,211.932 23.911,204.800 24.343 " stroke="none" fill-rule="evenodd"></path></svg>