<svg fill="currentColor" viewBox="0 0 256 256" xmlns="http://www.w3.org/2000/svg"><path d="M120.960 24.328 C 100.957 25.578,81.589 32.843,64.891 45.360 C 59.554 49.360,49.234 59.686,45.276 64.986 C 34.512 79.399,27.973 94.882,25.095 112.768 C 23.886 120.283,23.787 134.307,24.890 141.867 C 27.542 160.046,34.293 176.318,45.279 191.014 C 49.299 196.392,59.608 206.701,64.986 210.721 C 79.686 221.710,96.000 228.476,114.133 231.105 C 117.683 231.620,121.936 231.847,128.000 231.847 C 144.598 231.847,158.874 228.583,173.440 221.458 C 184.661 215.968,192.320 210.472,201.396 201.396 C 210.475 192.317,215.974 184.654,221.456 173.440 C 238.687 138.191,234.570 96.618,210.721 65.026 C 194.281 43.250,168.897 28.545,141.653 25.015 C 135.283 24.190,127.371 23.927,120.960 24.328 M132.321 57.396 C 133.172 57.946,134.324 59.129,134.881 60.025 L 135.893 61.653 135.893 96.070 L 135.893 130.486 134.607 132.316 C 132.832 134.843,130.910 135.879,128.000 135.879 C 125.090 135.879,123.168 134.843,121.393 132.316 L 120.107 130.486 120.107 96.070 L 120.107 61.653 121.097 60.061 C 123.582 56.064,128.464 54.904,132.321 57.396 M91.729 60.952 C 94.272 62.315,95.707 64.510,95.913 67.347 C 96.184 71.097,95.200 72.647,90.144 76.437 C 77.122 86.197,68.790 99.242,65.184 115.516 C 63.845 121.555,63.859 134.420,65.210 140.550 C 70.931 166.502,89.706 185.208,115.627 190.782 C 122.092 192.173,133.908 192.173,140.373 190.782 C 146.700 189.422,151.763 187.616,157.464 184.685 C 183.892 171.101,197.420 140.646,189.847 111.784 C 186.108 97.530,177.969 85.542,165.854 76.442 C 161.155 72.912,160.000 71.238,160.000 67.957 C 160.000 65.464,161.038 63.396,163.145 61.691 C 164.373 60.696,165.235 60.389,167.187 60.247 C 170.260 60.025,171.538 60.627,177.063 64.896 C 192.241 76.627,202.664 93.639,206.576 113.067 C 207.441 117.360,207.565 119.227,207.569 128.000 C 207.573 136.817,207.454 138.619,206.581 142.933 C 199.282 179.011,170.230 204.844,133.653 207.781 C 114.121 209.349,93.212 202.761,77.653 190.137 C 63.159 178.376,53.232 161.780,49.419 142.933 C 48.548 138.624,48.427 136.805,48.427 128.000 C 48.427 119.195,48.548 117.376,49.419 113.067 C 52.658 97.059,60.310 82.618,71.464 71.464 C 75.162 67.765,81.128 62.940,84.110 61.236 C 86.417 59.916,89.579 59.799,91.729 60.952 " stroke="none" fill-rule="evenodd"></path></svg>