<svg fill="currentColor" viewBox="0 0 256 256" xmlns="http://www.w3.org/2000/svg"><path d="M123.679 17.436 C 120.401 19.515,120.128 20.519,119.977 31.030 L 119.846 40.087 77.737 40.203 L 35.627 40.320 33.067 41.662 C 28.376 44.120,25.372 48.055,24.321 53.120 C 24.024 54.552,23.916 75.652,23.992 117.333 L 24.107 179.413 25.097 181.865 C 26.479 185.287,29.683 188.659,33.197 190.390 L 36.034 191.787 57.684 191.908 L 79.334 192.030 68.038 206.163 C 56.182 220.997,55.554 222.007,56.112 225.312 C 56.462 227.381,58.438 230.144,60.258 231.110 C 62.090 232.081,65.909 232.082,67.740 231.110 C 68.652 230.626,74.433 223.751,84.491 211.186 L 99.850 192.000 128.000 192.000 L 156.150 192.000 171.509 211.186 C 181.567 223.751,187.348 230.626,188.260 231.110 C 190.483 232.290,194.063 232.122,196.149 230.742 C 199.199 228.723,200.601 225.288,199.717 222.002 C 199.386 220.775,196.086 216.329,187.962 206.163 L 176.666 192.030 198.316 191.908 L 219.966 191.787 222.803 190.390 C 226.317 188.659,229.521 185.287,230.903 181.865 L 231.893 179.413 231.893 116.053 L 231.893 52.693 230.867 50.144 C 229.561 46.901,226.312 43.426,222.933 41.659 L 220.373 40.320 178.263 40.203 L 136.154 40.087 136.023 31.030 C 135.910 23.109,135.790 21.765,135.071 20.316 C 133.104 16.353,127.586 14.958,123.679 17.436 M163.930 81.169 C 164.936 81.734,166.092 82.910,166.762 84.049 L 167.893 85.973 167.893 115.627 C 167.893 131.936,167.747 145.804,167.567 146.446 C 167.116 148.059,164.770 150.625,163.114 151.317 C 161.350 152.054,158.650 152.054,156.886 151.317 C 155.230 150.625,152.884 148.059,152.433 146.446 C 152.253 145.804,152.107 131.936,152.107 115.627 L 152.107 85.973 153.164 84.126 C 155.301 80.394,160.171 79.056,163.930 81.169 M131.218 96.802 C 133.155 97.682,135.093 99.760,135.573 101.473 C 135.995 102.975,135.989 144.938,135.567 146.446 C 135.116 148.059,132.770 150.625,131.114 151.317 C 129.350 152.054,126.650 152.054,124.886 151.317 C 123.230 150.625,120.884 148.059,120.433 146.446 C 120.011 144.938,120.005 102.975,120.427 101.473 C 121.211 98.678,124.903 96.019,128.000 96.019 C 128.821 96.019,130.269 96.371,131.218 96.802 M99.930 113.169 C 100.936 113.734,102.092 114.910,102.762 116.049 L 103.893 117.973 103.893 131.627 C 103.893 139.136,103.747 145.804,103.567 146.446 C 103.116 148.059,100.770 150.625,99.114 151.317 C 97.350 152.054,94.650 152.054,92.886 151.317 C 91.230 150.625,88.884 148.059,88.433 146.446 C 88.253 145.804,88.107 139.136,88.107 131.627 L 88.107 117.973 89.164 116.126 C 91.301 112.394,96.171 111.056,99.930 113.169 " stroke="none" fill-rule="evenodd"></path></svg>