<svg fill="currentColor" viewBox="0 0 256 256" xmlns="http://www.w3.org/2000/svg"><path d="M60.800 32.806 C 58.735 33.760,57.435 35.110,56.554 37.219 C 55.996 38.554,55.893 41.387,55.893 55.453 L 55.893 72.107 47.002 72.107 C 36.958 72.107,33.675 72.662,28.879 75.175 C 25.393 77.002,20.142 82.223,18.607 85.389 C 15.908 90.958,16.051 88.416,15.896 133.722 C 15.795 163.118,15.893 175.736,16.233 177.374 C 16.780 180.009,18.620 182.415,20.780 183.317 C 21.859 183.768,25.825 183.893,39.026 183.893 L 55.893 183.893 55.893 200.547 C 55.893 214.613,55.996 217.446,56.554 218.781 C 57.435 220.890,58.735 222.240,60.800 223.194 C 62.435 223.948,65.236 223.982,127.907 223.991 C 185.986 223.999,193.484 223.926,194.888 223.340 C 196.996 222.459,198.347 221.159,199.300 219.093 C 200.023 217.527,200.089 216.009,200.097 200.654 L 200.107 183.921 217.561 183.800 L 235.015 183.680 236.654 182.373 C 237.556 181.654,238.677 180.310,239.147 179.386 C 239.983 177.740,240.000 176.862,240.000 135.467 C 240.000 89.473,240.086 91.215,237.537 85.760 C 235.889 82.232,230.885 77.147,227.121 75.175 C 222.325 72.662,219.042 72.107,208.998 72.107 L 200.107 72.107 200.097 55.360 C 200.089 39.991,200.023 38.473,199.300 36.907 C 198.347 34.841,196.996 33.541,194.888 32.660 C 193.484 32.074,185.986 32.001,127.907 32.009 C 65.236 32.018,62.435 32.052,60.800 32.806 M183.893 60.160 L 183.893 72.107 128.000 72.107 L 72.107 72.107 72.107 60.160 L 72.107 48.213 128.000 48.213 L 183.893 48.213 183.893 60.160 M192.088 104.770 C 196.659 106.328,199.869 110.989,199.838 116.024 C 199.810 120.642,197.651 124.319,193.708 126.465 C 185.777 130.781,176.158 125.045,176.250 116.053 C 176.266 114.528,176.504 112.669,176.779 111.921 C 179.022 105.838,185.854 102.646,192.088 104.770 M183.893 184.107 L 183.893 208.213 128.000 208.213 L 72.107 208.213 72.107 184.107 L 72.107 160.000 128.000 160.000 L 183.893 160.000 183.893 184.107 " stroke="none" fill-rule="evenodd"></path></svg>