<svg fill="currentColor" viewBox="0 0 256 256" xmlns="http://www.w3.org/2000/svg"><path d="M36.053 40.505 C 30.344 41.916,25.583 47.035,24.322 53.120 C 24.024 54.557,23.916 79.407,23.993 129.280 L 24.107 203.307 25.224 205.957 C 27.063 210.321,30.434 213.551,34.721 215.057 C 37.053 215.877,38.826 215.893,128.000 215.893 C 217.174 215.893,218.947 215.877,221.279 215.057 C 225.566 213.551,228.937 210.321,230.776 205.957 L 231.893 203.307 231.893 128.000 L 231.893 52.693 230.867 50.144 C 229.561 46.901,226.312 43.426,222.933 41.659 L 220.373 40.320 128.853 40.255 C 78.517 40.219,36.757 40.331,36.053 40.505 M107.356 64.816 C 108.322 65.255,109.589 66.259,110.170 67.047 C 110.752 67.835,120.593 90.368,132.039 117.120 C 143.485 143.872,152.895 165.812,152.950 165.876 C 153.005 165.940,158.496 156.436,165.151 144.756 C 171.943 132.836,177.865 122.925,178.650 122.164 C 180.825 120.056,182.958 119.807,197.454 119.967 C 211.380 120.120,211.621 120.163,213.886 122.854 C 217.211 126.806,216.165 132.339,211.581 135.040 C 210.266 135.815,209.141 135.913,199.294 136.107 L 188.456 136.320 173.257 162.950 C 156.686 191.984,157.074 191.431,152.965 191.894 C 150.549 192.166,147.604 191.110,146.231 189.478 C 145.685 188.829,135.767 166.235,124.192 139.269 C 112.616 112.303,103.100 90.186,103.045 90.121 C 102.989 90.055,97.380 99.751,90.580 111.667 C 79.673 130.782,78.003 133.484,76.406 134.613 L 74.595 135.893 61.084 136.029 C 46.293 136.178,45.324 136.062,42.809 133.854 C 39.414 130.873,39.126 125.942,42.160 122.735 C 44.560 120.199,44.932 120.126,56.701 119.894 L 67.535 119.680 82.405 93.653 C 90.584 79.339,97.798 67.072,98.437 66.394 C 100.729 63.960,104.141 63.356,107.356 64.816 " stroke="none" fill-rule="evenodd"></path></svg>