<svg fill="currentColor" viewBox="0 0 256 256" xmlns="http://www.w3.org/2000/svg"><path d="M157.827 16.996 C 156.750 17.431,155.005 18.380,153.951 19.105 C 150.771 21.293,110.068 62.684,109.173 64.640 C 108.276 66.600,108.197 67.827,108.821 70.076 C 109.446 72.326,178.687 148.654,181.396 150.080 C 183.616 151.248,186.074 151.298,188.373 150.224 C 189.528 149.684,197.691 141.793,213.631 125.806 C 239.077 100.287,238.765 100.653,239.804 95.035 C 240.347 92.099,239.479 87.392,237.908 84.753 C 237.330 83.782,222.396 68.557,204.722 50.920 C 178.566 24.820,172.150 18.633,170.240 17.666 C 167.121 16.088,160.907 15.753,157.827 16.996 M44.587 32.783 C 42.603 33.726,41.205 35.131,40.562 36.828 C 39.927 38.502,39.994 41.581,40.700 43.214 C 41.027 43.969,47.147 51.013,54.300 58.867 L 67.305 73.147 63.839 74.145 C 55.697 76.488,47.608 80.454,41.138 85.275 C 36.840 88.478,34.777 90.740,33.348 93.815 C 32.410 95.833,32.232 96.823,32.223 100.053 C 32.215 103.397,32.375 104.252,33.464 106.667 C 34.624 109.240,36.523 111.255,59.804 134.621 L 84.894 159.803 63.325 181.341 C 51.462 193.188,41.385 203.592,40.931 204.463 C 39.432 207.341,40.181 211.767,42.515 213.815 C 44.992 215.990,48.763 216.514,51.537 215.069 C 52.408 214.615,62.814 204.537,74.662 192.672 L 96.203 171.100 121.168 195.991 C 134.899 209.681,146.805 221.278,147.627 221.763 C 151.970 224.327,157.769 224.622,162.456 222.519 C 167.149 220.413,172.041 214.151,177.552 203.194 L 180.399 197.535 191.640 209.922 C 199.636 218.735,203.381 222.553,204.615 223.155 C 209.123 225.351,214.465 222.942,215.678 218.166 C 216.227 216.007,215.887 213.399,214.853 211.840 C 213.518 209.824,54.012 34.655,52.488 33.530 C 50.291 31.908,47.067 31.603,44.587 32.783 " stroke="none" fill-rule="evenodd"></path></svg>