<svg fill="currentColor" viewBox="0 0 256 256" xmlns="http://www.w3.org/2000/svg"><path d="M158.071 16.958 C 156.893 17.378,155.261 18.167,154.444 18.710 C 153.628 19.253,140.750 32.006,125.826 47.051 L 98.693 74.405 94.466 73.461 C 76.871 69.533,59.494 72.925,43.899 83.333 C 38.260 87.096,35.250 90.027,33.616 93.345 C 32.344 95.929,32.213 96.555,32.213 100.044 C 32.213 103.386,32.378 104.259,33.464 106.667 C 34.624 109.240,36.523 111.255,59.804 134.621 L 84.894 159.803 63.325 181.341 C 51.462 193.188,41.385 203.592,40.931 204.463 C 39.432 207.341,40.181 211.767,42.515 213.815 C 44.992 215.990,48.763 216.514,51.537 215.069 C 52.408 214.615,62.814 204.537,74.662 192.672 L 96.203 171.100 121.168 195.991 C 134.899 209.681,146.805 221.278,147.627 221.763 C 153.872 225.450,162.076 224.360,167.160 219.170 C 171.472 214.766,178.396 202.969,181.102 195.413 C 183.494 188.737,184.383 184.098,184.619 177.067 C 184.855 170.031,184.322 165.370,182.690 160.213 L 181.881 157.653 209.533 129.920 C 239.443 99.922,238.754 100.716,239.804 95.035 C 240.349 92.087,239.500 87.513,237.907 84.813 C 237.314 83.809,222.375 68.557,204.708 50.920 C 178.518 24.775,172.153 18.635,170.240 17.669 C 167.151 16.109,161.390 15.772,158.071 16.958 " stroke="none" fill-rule="evenodd"></path></svg>