<svg fill="currentColor" viewBox="0 0 256 256" xmlns="http://www.w3.org/2000/svg"><path d="M44.265 32.461 C 39.776 33.526,35.661 36.951,33.540 41.387 L 32.213 44.160 32.213 128.000 L 32.213 211.840 33.407 214.400 C 34.974 217.760,38.261 221.060,41.555 222.583 L 44.160 223.787 128.000 223.787 L 211.840 223.787 214.445 222.583 C 217.739 221.060,221.026 217.760,222.593 214.400 L 223.787 211.840 223.787 128.000 L 223.787 44.160 222.583 41.555 C 221.060 38.261,217.760 34.974,214.400 33.407 L 211.840 32.213 128.853 32.147 C 81.512 32.109,45.179 32.244,44.265 32.461 M58.230 88.369 C 62.009 89.418,61.897 89.192,75.266 122.667 C 82.015 139.563,87.675 153.531,87.844 153.708 C 88.013 153.885,93.680 140.205,100.438 123.309 C 107.195 106.413,113.136 91.981,113.642 91.238 C 114.147 90.495,115.328 89.487,116.267 88.997 C 117.963 88.112,118.219 88.107,160.000 88.107 L 202.027 88.107 203.882 89.169 C 204.962 89.787,206.165 90.961,206.762 91.980 C 207.767 93.694,207.787 93.929,207.787 103.937 C 207.787 115.409,207.677 115.906,204.609 118.389 C 203.187 119.540,202.703 119.680,200.143 119.680 C 197.741 119.680,196.988 119.492,195.541 118.535 C 192.770 116.702,192.000 114.600,192.000 108.876 L 192.000 104.101 158.635 104.211 L 125.270 104.320 110.255 141.867 C 101.997 162.517,94.836 180.033,94.343 180.790 C 91.853 184.609,85.516 184.956,82.225 181.454 C 81.365 180.538,76.517 168.889,64.625 139.162 C 46.747 94.469,47.196 95.827,49.072 92.149 C 50.005 90.320,51.182 89.384,53.657 88.500 C 55.637 87.794,56.109 87.780,58.230 88.369 " stroke="none" fill-rule="evenodd"></path></svg>