<svg fill="currentColor" viewBox="0 0 256 256" xmlns="http://www.w3.org/2000/svg"><path d="M104.735 56.347 C 61.178 59.132,23.358 90.094,11.743 132.477 C 8.838 143.075,8.422 146.673,8.213 163.030 C 8.033 177.129,8.063 177.869,8.874 179.457 C 9.912 181.492,10.863 182.382,12.909 183.237 C 14.986 184.105,17.319 184.053,19.413 183.091 C 23.392 181.264,23.892 179.678,23.900 168.867 C 23.915 147.307,26.263 135.131,33.055 121.387 C 41.904 103.478,55.573 89.857,73.553 81.030 C 97.854 69.100,126.620 69.121,150.834 81.087 C 158.429 84.840,164.576 89.068,172.019 95.659 C 175.083 98.372,176.339 98.987,178.815 98.987 C 181.146 98.987,183.019 98.115,184.627 96.284 C 186.548 94.096,187.179 91.764,186.518 89.293 C 185.852 86.802,185.142 85.931,180.336 81.714 C 163.168 66.645,141.573 57.810,118.279 56.324 C 114.591 56.089,111.189 55.924,110.720 55.957 C 110.251 55.991,107.557 56.166,104.735 56.347 M106.667 88.372 C 89.178 89.551,72.855 97.223,60.347 110.140 C 52.421 118.327,47.389 126.535,43.936 136.912 C 40.751 146.481,40.441 148.750,40.223 164.100 C 40.038 177.136,40.069 177.880,40.875 179.460 C 41.912 181.492,42.864 182.383,44.909 183.237 C 49.151 185.010,54.116 182.836,55.411 178.640 C 55.642 177.892,55.921 172.000,56.031 165.547 C 56.250 152.706,56.722 148.879,58.886 142.422 C 65.275 123.352,81.092 109.374,101.120 105.099 C 105.684 104.125,117.730 104.018,122.240 104.912 C 129.529 106.355,136.701 109.347,143.745 113.883 C 145.952 115.303,148.369 116.581,149.117 116.721 C 152.340 117.326,156.856 114.637,157.892 111.495 C 158.558 109.477,158.186 106.022,157.149 104.608 C 154.710 101.281,143.658 94.875,135.440 92.026 C 130.082 90.169,123.717 88.832,118.778 88.526 C 116.693 88.397,114.219 88.235,113.280 88.166 C 112.341 88.097,109.365 88.189,106.667 88.372 M191.288 112.819 C 176.335 115.660,163.183 125.722,156.770 139.226 L 155.269 142.387 151.341 142.433 C 143.065 142.530,136.174 145.460,130.093 151.467 C 127.912 153.622,125.714 156.305,124.676 158.080 C 116.720 171.685,119.182 188.881,130.589 199.393 C 135.945 204.329,141.925 207.022,149.318 207.826 C 151.979 208.116,162.852 208.211,179.666 208.091 C 207.903 207.891,208.016 207.883,215.193 205.474 C 229.316 200.733,240.610 189.516,245.356 175.516 C 251.121 158.512,247.081 139.972,234.812 127.131 C 230.375 122.486,226.838 119.877,221.227 117.110 C 214.044 113.568,209.932 112.592,201.387 112.398 C 196.599 112.289,193.368 112.424,191.288 112.819 M107.733 120.325 C 92.692 121.918,79.758 131.928,74.629 145.945 C 72.432 151.949,72.107 154.648,72.107 166.881 C 72.107 176.905,72.183 178.104,72.915 179.537 C 73.913 181.492,74.882 182.390,76.909 183.237 C 80.677 184.812,85.070 183.329,86.973 179.841 C 87.547 178.789,87.722 176.542,87.953 167.253 C 88.253 155.179,88.522 153.397,90.685 149.121 C 95.535 139.536,105.907 134.612,117.130 136.566 C 120.634 137.177,122.835 136.579,124.980 134.433 C 128.172 131.241,128.187 126.480,125.013 123.307 C 123.273 121.566,121.553 120.968,116.491 120.341 C 112.568 119.855,112.181 119.855,107.733 120.325 " stroke="none" fill-rule="evenodd"></path></svg>