<svg fill="currentColor" viewBox="0 0 256 256" xmlns="http://www.w3.org/2000/svg"><path d="M36.053 40.505 C 32.312 41.430,27.686 45.015,25.988 48.307 C 23.805 52.539,23.893 49.001,23.903 132.036 C 23.912 206.312,23.942 209.346,24.702 210.987 C 26.198 214.217,28.766 215.893,32.220 215.893 C 33.789 215.893,36.506 214.688,49.045 208.431 L 64.000 200.969 78.955 208.431 C 92.213 215.047,94.146 215.893,96.000 215.893 C 97.854 215.893,99.787 215.047,113.045 208.431 L 128.000 200.969 142.955 208.431 C 156.213 215.047,158.146 215.893,160.000 215.893 C 161.854 215.893,163.787 215.047,177.045 208.431 L 192.000 200.969 206.955 208.431 C 222.970 216.423,223.794 216.704,227.114 215.317 C 228.924 214.560,231.097 212.047,231.681 210.034 C 232.012 208.891,232.110 185.924,232.020 130.560 L 231.893 52.693 230.867 50.144 C 229.561 46.901,226.312 43.426,222.933 41.659 L 220.373 40.320 128.853 40.255 C 78.517 40.219,36.757 40.331,36.053 40.505 M179.520 96.905 C 186.221 100.149,184.846 110.170,177.485 111.749 C 174.454 112.399,81.546 112.399,78.515 111.749 C 71.172 110.174,69.782 100.214,76.445 96.916 L 78.293 96.001 127.972 96.000 L 177.651 96.000 179.520 96.905 M179.520 128.905 C 186.221 132.149,184.846 142.170,177.485 143.749 C 174.454 144.399,81.546 144.399,78.515 143.749 C 71.172 142.174,69.782 132.214,76.445 128.916 L 78.293 128.001 127.972 128.000 L 177.651 128.000 179.520 128.905 " stroke="none" fill-rule="evenodd"></path></svg>