<svg fill="currentColor" viewBox="0 0 256 256" xmlns="http://www.w3.org/2000/svg"><path d="M178.254 8.741 C 172.065 10.313,167.193 13.940,163.163 19.975 C 163.114 20.049,157.342 19.218,150.337 18.129 C 135.799 15.870,133.636 15.819,131.191 17.685 C 130.319 18.350,129.263 19.683,128.845 20.647 C 128.296 21.911,121.173 62.351,121.173 64.201 C 121.173 64.325,119.973 64.427,118.507 64.427 C 117.040 64.427,113.248 64.727,110.080 65.093 C 94.411 66.904,79.047 71.166,66.185 77.271 L 60.903 79.778 58.931 78.341 C 53.490 74.374,47.497 72.490,40.320 72.490 C 34.595 72.490,30.398 73.476,25.691 75.927 C 17.449 80.218,11.705 87.375,9.326 96.317 C 8.175 100.647,8.092 107.399,9.140 111.573 C 10.282 116.125,13.216 121.841,15.963 124.868 L 18.349 127.497 17.505 131.055 C 12.454 152.347,20.245 175.027,38.522 192.237 C 56.032 208.724,80.361 219.213,109.867 222.997 C 118.276 224.075,137.724 224.075,146.133 222.997 C 175.639 219.213,199.968 208.724,217.478 192.237 C 235.756 175.026,243.549 152.337,238.494 131.047 L 237.647 127.481 239.890 125.034 C 244.815 119.664,247.419 113.237,247.783 105.556 C 247.952 101.977,247.827 99.995,247.271 97.449 C 246.328 93.131,243.455 87.106,240.788 83.850 C 230.349 71.107,211.500 68.364,198.050 77.630 L 194.999 79.731 189.766 77.248 C 180.097 72.658,168.746 69.020,157.227 66.819 C 151.666 65.756,141.401 64.428,138.739 64.427 C 137.416 64.427,137.335 64.347,137.560 63.253 C 137.693 62.608,138.869 55.655,140.173 47.803 C 141.477 39.951,142.626 33.445,142.725 33.346 C 142.886 33.185,150.449 34.258,157.687 35.469 L 160.281 35.902 160.839 38.111 C 162.131 43.234,165.585 48.259,169.956 51.379 C 174.043 54.295,177.677 55.539,182.827 55.782 C 190.220 56.132,195.501 54.099,200.794 48.866 C 205.685 44.030,207.948 38.588,207.896 31.787 C 207.818 21.712,201.635 12.999,192.076 9.494 C 188.459 8.168,181.912 7.811,178.254 8.741 M187.733 24.976 C 190.093 26.176,192.009 29.379,191.991 32.093 C 191.961 36.479,187.336 40.639,183.229 39.972 C 178.981 39.283,176.213 36.170,176.213 32.081 C 176.213 26.068,182.390 22.259,187.733 24.976 M94.910 113.672 C 104.820 118.538,106.968 131.561,99.151 139.378 C 95.477 143.052,90.000 144.664,84.844 143.589 C 79.733 142.523,75.724 139.315,73.455 134.475 C 72.476 132.385,72.320 131.498,72.320 128.000 C 72.320 124.512,72.477 123.612,73.444 121.549 C 75.366 117.451,78.715 114.423,83.134 112.788 C 84.121 112.423,86.103 112.251,88.533 112.319 C 91.781 112.410,92.765 112.619,94.910 113.672 M175.254 113.890 C 178.486 115.622,181.023 118.279,182.545 121.525 C 183.524 123.615,183.680 124.502,183.680 128.000 C 183.680 131.498,183.524 132.385,182.545 134.475 C 178.642 142.800,169.426 146.175,161.059 142.345 C 154.875 139.514,151.101 132.164,152.335 125.357 C 153.398 119.496,156.877 115.273,162.521 112.996 C 164.056 112.376,165.356 112.233,168.533 112.333 C 172.188 112.448,172.849 112.601,175.254 113.890 M101.928 169.975 C 109.701 173.520,115.971 175.188,123.627 175.748 C 134.150 176.519,143.689 174.710,154.072 169.975 C 159.957 167.292,162.952 167.504,165.855 170.811 C 168.839 174.209,168.600 178.675,165.265 181.844 C 162.688 184.293,151.572 188.645,143.707 190.286 C 129.964 193.153,117.131 192.392,103.722 187.915 C 98.083 186.033,92.297 183.328,90.735 181.844 C 87.400 178.676,87.161 174.209,90.143 170.812 C 93.056 167.495,96.026 167.284,101.928 169.975 " stroke="none" fill-rule="evenodd"></path></svg>