<svg fill="currentColor" viewBox="0 0 256 256" xmlns="http://www.w3.org/2000/svg"><path d="M196.907 32.809 C 194.920 33.729,193.099 35.547,192.454 37.254 C 192.187 37.960,192.000 42.051,192.000 47.174 L 192.000 55.893 144.062 55.893 C 114.645 55.893,93.998 56.065,90.622 56.338 C 80.381 57.165,72.876 59.251,63.787 63.800 C 40.613 75.396,25.880 97.790,24.075 124.160 C 23.756 128.824,24.224 131.153,25.875 133.116 C 28.706 136.480,33.776 136.935,37.116 134.125 C 39.260 132.321,39.765 130.839,40.157 125.199 C 41.184 110.461,46.504 98.532,56.518 88.518 C 64.149 80.886,72.883 76.048,84.053 73.264 C 87.632 72.373,88.373 72.359,139.840 72.221 L 192.000 72.081 192.000 80.854 C 192.000 90.767,192.157 91.478,194.888 93.942 C 196.145 95.076,197.180 95.594,198.623 95.810 C 202.746 96.429,202.942 96.284,217.311 81.989 C 224.544 74.794,230.719 68.420,231.034 67.825 C 231.969 66.061,232.209 63.832,231.680 61.828 C 231.242 60.167,229.652 58.406,218.098 46.780 C 209.545 38.174,204.422 33.338,203.307 32.816 C 201.145 31.806,199.078 31.803,196.907 32.809 M221.979 120.299 C 220.138 120.749,217.762 122.609,216.901 124.275 C 216.453 125.140,216.075 127.455,215.848 130.723 C 214.830 145.383,209.517 157.405,199.690 167.286 C 191.859 175.162,183.804 179.628,171.520 182.906 C 168.974 183.585,164.460 183.657,116.373 183.783 L 64.000 183.919 63.998 175.480 C 63.996 170.838,63.806 166.359,63.575 165.528 C 62.795 162.718,58.949 159.988,55.800 160.009 C 52.860 160.029,51.204 161.395,37.902 174.780 C 26.348 186.406,24.758 188.167,24.320 189.828 C 23.791 191.832,24.031 194.061,24.966 195.825 C 25.281 196.420,31.456 202.794,38.689 209.989 C 53.065 224.291,53.252 224.429,57.389 223.809 C 59.899 223.432,62.916 220.844,63.564 218.512 C 63.801 217.658,63.996 213.168,63.998 208.533 L 64.000 200.107 113.387 200.099 C 142.700 200.095,164.421 199.921,166.827 199.672 C 179.369 198.372,191.545 193.804,201.813 186.545 C 204.043 184.969,208.075 181.472,210.773 178.773 C 223.007 166.539,230.071 151.464,231.723 134.063 C 232.268 128.325,232.052 125.851,230.831 123.843 C 229.166 121.105,225.194 119.515,221.979 120.299 " stroke="none" fill-rule="evenodd"></path></svg>