<svg fill="currentColor" viewBox="0 0 256 256" xmlns="http://www.w3.org/2000/svg"><path d="M120.960 24.326 C 100.935 25.586,81.587 32.844,64.891 45.360 C 59.554 49.360,49.234 59.686,45.276 64.986 C 34.512 79.399,27.973 94.882,25.095 112.768 C 23.886 120.283,23.787 134.307,24.890 141.867 C 27.542 160.046,34.293 176.318,45.279 191.014 C 49.299 196.392,59.608 206.701,64.986 210.721 C 79.686 221.710,96.000 228.476,114.133 231.105 C 117.683 231.620,121.936 231.847,128.000 231.847 C 144.598 231.847,158.874 228.583,173.440 221.458 C 184.661 215.968,192.320 210.472,201.396 201.396 C 210.475 192.317,215.974 184.654,221.456 173.440 C 235.707 144.287,235.458 110.173,220.780 81.026 C 214.698 68.950,203.517 55.194,193.067 46.931 C 172.349 30.550,147.221 22.673,120.960 24.326 M116.646 93.588 C 117.498 94.238,118.577 95.519,119.044 96.434 C 119.842 97.998,119.893 98.964,119.894 112.303 L 119.894 126.507 120.768 124.740 C 121.249 123.768,121.969 122.684,122.368 122.331 C 123.607 121.235,163.425 93.456,164.713 92.790 C 166.137 92.053,169.244 91.966,170.959 92.614 C 172.430 93.170,174.377 94.965,175.185 96.512 C 175.686 97.472,175.787 102.681,175.787 127.738 C 175.787 147.949,175.638 158.205,175.333 159.012 C 174.715 160.647,172.874 162.542,171.214 163.253 C 169.364 164.044,166.230 163.994,164.593 163.148 C 163.038 162.344,123.983 135.108,122.575 133.846 C 122.055 133.380,121.239 132.210,120.762 131.246 L 119.894 129.493 119.894 143.697 C 119.893 157.036,119.842 158.002,119.044 159.566 C 117.739 162.123,115.582 163.546,112.705 163.746 C 111.379 163.839,109.813 163.728,109.227 163.500 C 108.080 163.054,68.302 135.357,66.610 133.826 C 65.278 132.621,64.021 129.850,64.009 128.093 C 63.999 126.490,64.971 123.930,66.043 122.740 C 66.820 121.878,106.736 93.815,108.705 92.747 C 110.620 91.709,114.756 92.147,116.646 93.588 " stroke="none" fill-rule="evenodd"></path></svg>