<svg fill="currentColor" viewBox="0 0 256 256" xmlns="http://www.w3.org/2000/svg"><path d="M123.014 8.874 C 118.722 10.406,112.917 15.124,103.676 24.591 C 90.292 38.303,80.905 52.208,73.903 68.693 C 69.074 80.063,65.576 93.484,64.513 104.721 L 64.213 107.886 49.893 125.090 C 42.016 134.552,35.127 142.935,34.582 143.719 C 33.267 145.615,32.000 149.791,32.000 152.232 C 32.000 155.127,44.637 211.757,45.920 214.613 C 47.328 217.747,50.678 221.081,53.929 222.583 C 56.176 223.621,57.061 223.787,60.373 223.787 C 63.634 223.787,64.576 223.616,66.619 222.659 C 67.942 222.038,75.403 216.710,83.199 210.819 L 97.374 200.107 128.001 200.107 L 158.628 200.107 172.821 210.827 C 180.627 216.724,188.087 222.052,189.400 222.667 C 191.422 223.616,192.374 223.787,195.627 223.787 C 198.939 223.787,199.824 223.621,202.071 222.583 C 205.322 221.081,208.672 217.747,210.080 214.613 C 211.363 211.757,224.000 155.127,224.000 152.232 C 224.000 149.794,222.734 145.618,221.420 143.719 C 220.877 142.935,213.988 134.559,206.111 125.106 L 191.789 107.919 191.262 103.133 C 190.084 92.435,186.580 79.210,182.192 68.907 C 175.053 52.139,165.855 38.494,152.320 24.590 C 144.857 16.923,138.548 11.541,134.893 9.723 C 131.403 7.987,126.484 7.635,123.014 8.874 M133.420 89.425 C 137.047 91.175,139.451 94.751,139.828 98.956 C 140.092 101.894,139.493 104.211,137.814 106.745 C 136.197 109.187,133.838 110.767,130.553 111.609 C 128.259 112.196,127.741 112.196,125.447 111.609 C 122.311 110.805,119.900 109.258,118.392 107.082 C 115.349 102.691,115.268 97.898,118.159 93.340 C 121.306 88.377,127.798 86.712,133.420 89.425 M65.704 138.027 C 68.183 152.813,73.644 168.822,81.464 184.225 L 84.340 189.889 72.434 198.879 C 65.885 203.824,60.471 207.803,60.401 207.721 C 60.104 207.371,48.144 152.742,48.278 152.345 C 48.425 151.913,64.578 132.331,64.707 132.429 C 64.744 132.457,65.193 134.976,65.704 138.027 M207.658 152.214 C 207.841 152.658,195.978 207.274,195.601 207.719 C 195.402 207.954,171.947 190.168,171.947 189.781 C 171.947 189.587,173.267 186.791,174.881 183.568 C 183.178 166.992,188.740 149.900,190.918 134.284 L 191.202 132.248 199.320 141.964 C 203.785 147.308,207.537 151.920,207.658 152.214 M111.147 216.092 C 110.912 216.176,110.196 216.361,109.554 216.502 C 108.913 216.643,107.685 217.377,106.824 218.133 C 102.350 222.061,103.458 228.726,109.013 231.298 C 110.586 232.026,112.079 232.088,128.000 232.088 C 143.921 232.088,145.414 232.026,146.987 231.298 C 150.138 229.839,151.893 227.227,151.893 224.000 C 151.893 221.858,151.262 220.238,149.840 218.735 C 147.302 216.053,147.778 216.115,128.853 216.022 C 119.349 215.976,111.381 216.007,111.147 216.092 " stroke="none" fill-rule="evenodd"></path></svg>