<svg fill="currentColor" viewBox="0 0 256 256" xmlns="http://www.w3.org/2000/svg"><path d="M44.265 32.461 C 39.776 33.526,35.661 36.951,33.540 41.387 L 32.213 44.160 32.213 128.000 L 32.213 211.840 33.407 214.400 C 34.974 217.760,38.261 221.060,41.555 222.583 L 44.160 223.787 128.000 223.787 L 211.840 223.787 214.445 222.583 C 217.739 221.060,221.026 217.760,222.593 214.400 L 223.787 211.840 223.787 128.000 L 223.787 44.160 222.583 41.555 C 221.060 38.261,217.760 34.974,214.400 33.407 L 211.840 32.213 128.853 32.147 C 81.512 32.109,45.179 32.244,44.265 32.461 M88.960 65.309 C 114.606 68.988,137.546 80.389,156.110 98.681 C 176.919 119.187,189.033 145.173,191.554 174.720 C 192.429 184.970,192.005 187.422,188.885 190.161 C 186.257 192.469,181.901 192.509,179.033 190.253 C 176.805 188.501,176.311 186.765,175.818 178.956 C 174.837 163.410,171.840 151.816,165.343 138.436 C 160.351 128.155,154.217 119.514,146.015 111.206 C 127.217 92.167,103.918 81.731,76.891 80.243 C 69.612 79.842,69.179 79.751,67.047 78.173 C 62.374 74.714,63.385 67.427,68.907 64.774 C 70.435 64.039,71.260 63.980,76.800 64.203 C 80.203 64.340,85.675 64.838,88.960 65.309 M85.120 97.070 C 94.431 98.460,103.697 101.460,112.249 105.852 C 128.392 114.145,142.056 127.877,150.316 144.110 C 156.022 155.325,159.042 166.686,159.839 179.933 C 160.182 185.638,159.611 187.682,157.022 190.022 C 154.307 192.475,149.984 192.575,147.033 190.253 C 144.937 188.605,144.352 186.727,143.838 179.995 C 143.575 176.561,142.975 171.877,142.504 169.587 C 137.382 144.695,119.193 124.079,95.147 115.912 C 89.083 113.852,83.021 112.687,76.027 112.238 C 69.607 111.826,69.133 111.717,67.047 110.173 C 62.374 106.714,63.385 99.427,68.907 96.774 C 70.402 96.056,71.248 95.984,75.733 96.193 C 78.549 96.325,82.773 96.719,85.120 97.070 M82.738 129.085 C 91.944 130.832,102.082 135.835,108.878 141.987 C 120.440 152.452,126.692 165.197,127.814 180.586 C 128.179 185.603,127.547 187.740,125.022 190.022 C 122.307 192.475,117.984 192.575,115.033 190.253 C 113.156 188.777,112.342 186.611,112.003 182.187 C 111.194 171.645,107.251 162.806,100.223 155.777 C 93.242 148.797,85.083 145.081,74.880 144.235 C 69.583 143.795,69.049 143.655,67.047 142.173 C 62.374 138.714,63.386 131.422,68.907 128.776 C 70.378 128.071,71.221 127.992,75.023 128.208 C 77.448 128.346,80.920 128.740,82.738 129.085 M81.280 169.283 C 83.285 170.322,85.768 172.827,86.883 174.933 C 87.471 176.046,87.674 177.351,87.676 180.053 C 87.680 183.243,87.539 183.920,86.510 185.671 C 81.569 194.075,70.145 194.070,65.568 185.662 C 62.079 179.251,65.106 171.261,71.999 168.689 C 74.259 167.846,79.106 168.156,81.280 169.283 " stroke="none" fill-rule="evenodd"></path></svg>