<svg fill="currentColor" viewBox="0 0 256 256" xmlns="http://www.w3.org/2000/svg"><path d="M36.907 32.809 C 34.738 33.813,32.954 35.708,32.418 37.576 C 32.170 38.441,32.000 47.699,32.000 60.342 C 32.000 81.184,32.020 81.691,32.905 83.520 C 34.286 86.373,36.561 87.680,40.143 87.680 C 42.705 87.680,43.190 87.539,44.654 86.373 C 48.002 83.702,47.984 83.818,48.129 64.983 L 48.259 48.259 64.983 48.129 C 83.818 47.984,83.702 48.002,86.373 44.654 C 87.539 43.190,87.680 42.705,87.680 40.143 C 87.680 36.561,86.373 34.286,83.520 32.905 C 81.690 32.019,81.198 32.000,60.132 32.009 C 40.097 32.018,38.496 32.073,36.907 32.809 M172.445 32.916 C 169.050 34.596,167.272 39.060,168.508 42.802 C 169.243 45.031,171.833 47.173,174.478 47.741 C 175.862 48.037,182.468 48.213,192.234 48.213 L 207.787 48.213 207.787 63.766 C 207.787 73.532,207.963 80.138,208.259 81.522 C 208.827 84.167,210.969 86.757,213.198 87.492 C 216.962 88.735,221.441 86.937,223.095 83.520 C 223.980 81.691,224.000 81.187,223.998 60.345 C 223.996 47.680,223.825 38.427,223.575 37.528 C 223.344 36.696,222.529 35.410,221.764 34.669 C 218.962 31.958,219.375 32.000,195.747 32.000 C 174.672 32.001,174.261 32.017,172.445 32.916 M82.901 72.897 C 78.617 74.385,75.379 77.317,73.430 81.474 L 72.320 83.840 72.320 128.000 L 72.320 172.160 73.455 174.581 C 75.044 177.972,77.666 180.649,81.005 182.293 L 83.822 183.680 128.000 183.680 L 172.178 183.680 174.995 182.293 C 178.334 180.649,180.956 177.972,182.545 174.581 L 183.680 172.160 183.680 127.991 L 183.680 83.822 182.278 80.973 C 180.652 77.670,177.987 75.085,174.507 73.434 L 172.160 72.320 128.640 72.223 C 87.633 72.132,84.992 72.171,82.901 72.897 M36.338 169.022 C 35.257 169.558,34.018 170.650,33.352 171.657 L 32.213 173.377 32.085 194.528 C 32.014 206.162,32.077 216.516,32.224 217.539 C 32.564 219.893,35.221 222.935,37.488 223.564 C 38.437 223.828,47.313 223.996,60.345 223.998 C 81.187 224.000,81.691 223.980,83.520 223.095 C 86.373 221.714,87.680 219.439,87.680 215.857 C 87.680 213.292,87.540 212.811,86.370 211.346 C 83.823 208.160,84.196 208.215,65.173 208.214 L 48.213 208.213 48.213 192.448 C 48.213 182.688,48.036 175.857,47.749 174.515 C 46.624 169.270,41.156 166.637,36.338 169.022 M212.425 168.938 C 210.192 170.153,208.783 172.036,208.251 174.515 C 207.964 175.857,207.787 182.688,207.787 192.448 L 207.787 208.213 190.920 208.213 C 172.273 208.213,172.310 208.209,169.934 210.914 C 166.667 214.636,167.979 220.916,172.480 223.095 C 174.309 223.980,174.813 224.000,195.655 223.998 C 208.282 223.996,217.574 223.825,218.468 223.576 C 220.357 223.052,223.025 220.366,223.579 218.432 C 223.831 217.557,224.000 208.379,224.000 195.658 C 224.000 174.816,223.980 174.309,223.095 172.480 C 221.275 168.720,216.027 166.979,212.425 168.938 " stroke="none" fill-rule="evenodd"></path></svg>