<svg fill="currentColor" viewBox="0 0 256 256" xmlns="http://www.w3.org/2000/svg"><path d="M44.265 32.461 C 39.776 33.526,35.661 36.951,33.540 41.387 L 32.213 44.160 32.213 128.000 L 32.213 211.840 33.407 214.400 C 34.974 217.760,38.261 221.060,41.555 222.583 L 44.160 223.787 128.000 223.787 L 211.840 223.787 214.445 222.583 C 217.739 221.060,221.026 217.760,222.593 214.400 L 223.787 211.840 223.787 128.000 L 223.787 44.160 222.583 41.555 C 221.060 38.261,217.760 34.974,214.400 33.407 L 211.840 32.213 128.853 32.147 C 81.512 32.109,45.179 32.244,44.265 32.461 M124.654 65.294 C 132.148 66.821,138.232 69.277,144.222 73.192 C 148.319 75.871,155.852 83.350,158.604 87.473 C 164.391 96.143,168.092 106.396,169.378 117.318 C 169.639 119.538,169.892 121.384,169.940 121.420 C 169.988 121.456,172.344 122.661,175.175 124.097 C 181.029 127.066,190.157 132.941,195.200 136.987 C 201.157 141.765,206.820 147.516,207.613 149.591 C 209.476 154.470,205.664 160.000,200.436 160.000 C 197.421 160.000,196.097 159.252,191.386 154.889 C 186.175 150.063,179.563 145.093,173.716 141.606 C 169.170 138.896,168.558 138.816,168.540 140.936 C 168.529 142.247,166.497 149.828,165.315 152.968 C 163.584 157.568,159.783 164.713,156.876 168.833 C 149.869 178.764,139.168 186.471,127.787 189.784 C 121.785 191.531,119.806 191.781,112.213 191.751 C 105.537 191.725,104.301 191.603,100.535 190.593 C 86.563 186.845,76.918 177.281,73.072 163.362 C 71.900 159.120,72.017 148.927,73.289 144.516 C 76.414 133.672,84.403 124.447,95.505 118.860 C 99.247 116.977,106.084 114.652,110.507 113.758 C 121.902 111.456,137.578 111.706,148.864 114.369 C 150.835 114.834,152.551 115.111,152.678 114.985 C 153.052 114.611,151.553 108.944,150.159 105.464 C 148.189 100.544,145.190 95.802,141.679 92.055 C 136.733 86.778,131.037 83.364,123.947 81.428 C 121.042 80.635,119.358 80.491,112.640 80.461 C 105.541 80.430,104.382 80.530,101.120 81.450 C 88.285 85.070,74.507 94.504,64.026 106.849 C 60.664 110.810,58.824 111.951,55.863 111.913 C 53.479 111.882,51.750 111.032,49.990 109.027 C 48.372 107.185,48.052 106.054,48.301 103.051 C 48.531 100.282,50.017 98.143,56.153 91.751 C 70.896 76.390,88.596 66.478,104.894 64.455 C 109.839 63.841,119.549 64.253,124.654 65.294 M121.813 128.239 C 121.109 128.335,118.901 128.632,116.907 128.899 C 111.725 129.594,106.669 131.155,102.213 133.435 C 93.645 137.820,87.876 146.198,87.900 154.223 C 87.921 161.352,92.213 168.970,98.181 172.467 C 107.912 178.170,123.009 176.819,134.175 169.247 C 139.673 165.519,145.402 158.465,148.660 151.413 C 151.391 145.504,154.397 133.270,153.355 132.308 C 152.769 131.767,145.018 129.832,140.373 129.068 C 136.453 128.422,124.423 127.885,121.813 128.239 " stroke="none" fill-rule="evenodd"></path></svg>