<svg fill="currentColor" viewBox="0 0 256 256" xmlns="http://www.w3.org/2000/svg"><path d="M121.588 17.014 C 116.003 18.802,111.508 21.950,102.613 30.302 C 96.127 36.393,92.633 38.978,89.891 39.717 C 87.267 40.423,81.108 40.935,75.082 40.948 C 65.742 40.969,59.963 42.025,54.657 44.681 C 50.377 46.823,46.675 50.509,44.644 54.651 C 41.970 60.101,41.415 63.234,40.753 76.587 C 40.427 83.157,39.951 89.239,39.696 90.102 C 38.924 92.705,36.203 96.329,30.302 102.613 C 23.859 109.475,21.089 112.987,19.028 116.907 C 15.093 124.391,15.093 131.609,19.028 139.093 C 21.089 143.013,23.859 146.525,30.302 153.387 C 36.236 159.706,38.947 163.325,39.674 165.898 C 40.215 167.814,40.449 170.824,40.957 182.400 C 41.400 192.517,42.109 196.181,44.609 201.279 C 46.645 205.430,50.570 209.355,54.721 211.391 C 59.819 213.891,63.483 214.600,73.600 215.043 C 85.176 215.551,88.186 215.785,90.102 216.326 C 92.675 217.053,96.294 219.764,102.613 225.698 C 105.899 228.783,109.835 232.254,111.360 233.411 C 120.962 240.693,129.845 241.834,139.093 236.972 C 143.013 234.911,146.525 232.141,153.387 225.698 C 159.706 219.764,163.325 217.053,165.898 216.326 C 167.814 215.785,170.824 215.551,182.400 215.043 C 192.517 214.600,196.181 213.891,201.279 211.391 C 205.430 209.355,209.355 205.430,211.391 201.279 C 213.891 196.181,214.600 192.517,215.043 182.400 C 215.551 170.824,215.785 167.814,216.326 165.898 C 217.053 163.325,219.764 159.706,225.698 153.387 C 228.783 150.101,232.254 146.165,233.411 144.640 C 240.693 135.038,241.834 126.155,236.972 116.907 C 234.911 112.987,232.141 109.475,225.698 102.613 C 219.764 96.294,217.053 92.675,216.326 90.102 C 215.785 88.186,215.551 85.176,215.043 73.600 C 214.600 63.483,213.891 59.819,211.391 54.721 C 209.366 50.591,205.570 46.797,201.351 44.685 C 196.037 42.025,190.263 40.969,180.918 40.948 C 174.892 40.935,168.733 40.423,166.109 39.717 C 163.367 38.978,159.873 36.393,153.387 30.302 C 144.377 21.842,139.605 18.541,134.003 16.894 C 130.863 15.972,124.658 16.031,121.588 17.014 " stroke="none" fill-rule="evenodd"></path></svg>