<svg fill="currentColor" viewBox="0 0 256 256" xmlns="http://www.w3.org/2000/svg"><path d="M121.588 17.014 C 116.003 18.802,111.508 21.950,102.613 30.302 C 96.127 36.393,92.633 38.978,89.891 39.717 C 87.267 40.423,81.108 40.935,75.082 40.948 C 65.752 40.969,59.962 42.025,54.674 44.672 C 49.530 47.247,45.568 51.693,43.436 57.282 C 41.866 61.401,41.374 64.993,40.764 76.800 C 40.430 83.253,39.949 89.239,39.694 90.102 C 38.932 92.681,36.160 96.400,30.658 102.226 C 27.797 105.255,24.326 109.151,22.944 110.885 C 15.393 120.359,14.094 129.709,19.028 139.093 C 21.089 143.013,23.859 146.525,30.302 153.387 C 36.236 159.706,38.947 163.325,39.674 165.898 C 40.215 167.814,40.449 170.824,40.957 182.400 C 41.400 192.517,42.109 196.181,44.609 201.279 C 46.645 205.430,50.570 209.355,54.721 211.391 C 59.819 213.891,63.483 214.600,73.600 215.043 C 85.176 215.551,88.186 215.785,90.102 216.326 C 92.639 217.043,96.286 219.752,102.192 225.308 C 105.240 228.174,109.151 231.656,110.885 233.044 C 120.323 240.603,129.703 241.909,139.093 236.972 C 143.013 234.911,146.525 232.141,153.387 225.698 C 159.706 219.764,163.325 217.053,165.898 216.326 C 167.814 215.785,170.824 215.551,182.400 215.043 C 192.517 214.600,196.181 213.891,201.279 211.391 C 205.430 209.355,209.355 205.430,211.391 201.279 C 213.891 196.181,214.600 192.517,215.043 182.400 C 215.551 170.824,215.785 167.814,216.326 165.898 C 217.053 163.325,219.764 159.706,225.698 153.387 C 228.783 150.101,232.254 146.165,233.411 144.640 C 240.693 135.038,241.834 126.155,236.972 116.907 C 234.911 112.987,232.141 109.475,225.698 102.613 C 219.764 96.294,217.053 92.675,216.326 90.102 C 215.785 88.186,215.551 85.176,215.043 73.600 C 214.600 63.483,213.891 59.819,211.391 54.721 C 209.366 50.591,205.570 46.797,201.351 44.685 C 196.037 42.025,190.263 40.969,180.918 40.948 C 174.892 40.935,168.733 40.423,166.109 39.717 C 163.367 38.978,159.873 36.393,153.387 30.302 C 144.377 21.842,139.605 18.541,134.003 16.894 C 130.863 15.972,124.658 16.031,121.588 17.014 M138.729 73.317 C 152.717 77.026,163.531 87.182,166.905 99.779 C 168.102 104.248,168.090 111.548,166.878 116.160 C 163.601 128.624,152.830 138.969,139.540 142.418 C 136.188 143.287,136.195 143.280,135.498 146.446 C 135.153 148.009,132.817 150.605,131.114 151.317 C 128.286 152.498,124.918 151.905,122.735 149.840 C 120.345 147.578,120.107 146.681,120.107 139.947 C 120.107 133.133,120.400 132.072,122.854 130.007 C 124.504 128.619,126.147 128.136,130.260 127.829 C 141.895 126.961,151.247 118.875,151.807 109.199 C 152.115 103.884,150.446 99.458,146.688 95.617 C 137.007 85.722,119.225 85.621,109.496 95.406 C 105.708 99.216,104.556 102.134,104.113 109.042 C 103.760 114.534,103.320 115.895,101.265 117.840 C 99.762 119.262,98.142 119.893,96.000 119.893 C 92.984 119.893,90.405 118.285,88.815 115.413 C 87.750 113.489,87.917 104.175,89.095 99.779 C 92.720 86.246,104.897 75.595,120.039 72.710 C 124.466 71.867,134.486 72.192,138.729 73.317 M133.388 169.301 C 137.067 171.187,139.947 175.814,139.947 179.839 C 139.947 186.452,134.496 192.000,128.000 192.000 C 121.504 192.000,116.053 186.452,116.053 179.839 C 116.053 174.949,119.712 170.077,124.584 168.480 C 126.486 167.856,131.478 168.322,133.388 169.301 " stroke="none" fill-rule="evenodd"></path></svg>