<svg fill="currentColor" viewBox="0 0 256 256" xmlns="http://www.w3.org/2000/svg"><path d="M150.535 24.354 C 127.512 26.792,108.745 44.342,104.767 67.151 C 103.931 71.948,103.920 79.882,104.743 84.604 C 108.502 106.161,124.951 122.915,146.560 127.195 C 148.303 127.540,152.211 127.787,155.947 127.787 C 159.683 127.787,163.590 127.540,165.333 127.195 C 195.136 121.292,213.831 91.984,206.295 62.980 C 203.912 53.808,199.575 46.293,192.694 39.413 C 183.851 30.570,173.341 25.584,160.915 24.337 C 156.043 23.848,155.303 23.849,150.535 24.354 M61.979 56.299 C 60.336 56.701,57.811 58.542,57.111 59.850 C 56.472 61.044,16.752 180.107,16.216 182.434 C 15.435 185.830,17.398 189.710,20.644 191.184 C 22.321 191.945,24.281 191.981,64.000 191.981 C 103.719 191.981,105.679 191.945,107.356 191.184 C 110.602 189.710,112.565 185.830,111.784 182.434 C 111.050 179.246,71.305 60.516,70.623 59.475 C 69.027 57.039,65.005 55.561,61.979 56.299 M132.480 144.922 C 130.468 145.983,129.355 147.186,128.638 149.078 C 128.057 150.611,127.990 154.521,128.094 180.725 L 128.213 210.623 129.359 212.353 C 130.048 213.395,131.247 214.443,132.373 214.988 C 134.243 215.893,134.244 215.893,179.988 215.893 C 217.444 215.893,225.984 215.789,227.114 215.317 C 228.923 214.561,231.096 212.048,231.682 210.034 C 232.007 208.918,232.111 199.484,232.022 179.200 C 231.876 145.975,232.078 147.819,228.321 145.436 L 226.393 144.213 180.076 144.230 C 138.690 144.246,133.624 144.319,132.480 144.922 " stroke="none" fill-rule="evenodd"></path></svg>