<svg fill="currentColor" viewBox="0 0 256 256" xmlns="http://www.w3.org/2000/svg"><path d="M42.880 40.876 C 37.973 42.580,34.365 46.304,32.829 51.248 C 31.967 54.022,31.955 54.700,32.120 90.928 C 32.265 122.655,32.389 128.500,33.012 132.907 C 35.145 148.005,38.778 160.238,44.795 172.587 C 55.396 194.344,72.296 212.232,95.604 226.365 C 104.372 231.682,119.374 238.426,125.080 239.616 C 128.885 240.409,131.821 239.825,139.347 236.776 C 153.203 231.163,165.856 223.759,177.280 214.580 C 200.166 196.190,215.580 171.151,221.220 143.203 C 223.685 130.989,223.698 130.728,223.880 90.928 C 224.045 54.700,224.033 54.022,223.171 51.248 C 222.066 47.691,219.950 44.809,217.009 42.857 C 212.557 39.901,219.229 40.105,127.826 40.121 C 50.319 40.134,44.877 40.182,42.880 40.876 M132.321 89.396 C 133.172 89.946,134.324 91.129,134.881 92.025 C 135.880 93.632,135.895 93.822,136.028 106.746 L 136.162 119.838 149.254 119.972 C 162.178 120.105,162.368 120.120,163.975 121.119 C 166.560 122.726,167.822 124.996,167.822 128.036 C 167.822 130.169,167.617 130.880,166.572 132.367 C 164.110 135.869,164.075 135.876,149.254 136.023 L 136.162 136.152 136.028 149.320 L 135.893 162.488 134.607 164.317 C 132.831 166.843,130.909 167.879,128.000 167.879 C 125.091 167.879,123.169 166.843,121.393 164.317 L 120.107 162.488 119.972 149.320 L 119.838 136.152 106.746 136.023 C 91.925 135.876,91.890 135.869,89.428 132.367 C 88.388 130.887,88.178 130.165,88.178 128.073 C 88.178 125.025,89.299 122.947,91.860 121.251 L 93.589 120.107 106.714 119.972 L 119.838 119.838 119.972 106.746 C 120.104 93.907,120.126 93.622,121.097 92.061 C 123.582 88.064,128.464 86.904,132.321 89.396 " stroke="none" fill-rule="evenodd"></path></svg>