<svg fill="currentColor" viewBox="0 0 256 256" xmlns="http://www.w3.org/2000/svg"><path d="M42.880 40.876 C 38.021 42.563,34.386 46.285,32.855 51.138 C 32.029 53.757,32.000 55.010,32.000 87.832 C 32.001 121.262,32.158 126.251,33.515 135.893 C 35.508 150.055,40.676 165.617,47.403 177.714 C 58.313 197.332,74.247 213.415,95.605 226.366 C 104.648 231.850,119.208 238.391,125.105 239.621 C 128.847 240.401,131.764 239.831,139.163 236.874 C 152.716 231.457,165.803 223.802,177.291 214.571 C 200.165 196.191,215.581 171.145,221.220 143.203 C 223.685 130.989,223.698 130.728,223.880 90.928 C 224.045 54.700,224.033 54.022,223.171 51.248 C 222.066 47.691,219.950 44.809,217.009 42.857 C 212.557 39.901,219.229 40.105,127.826 40.121 C 50.319 40.134,44.877 40.182,42.880 40.876 " stroke="none" fill-rule="evenodd"></path></svg>