<svg fill="currentColor" viewBox="0 0 256 256" xmlns="http://www.w3.org/2000/svg"><path d="M159.174 16.949 C 158.012 17.359,156.349 18.541,154.867 20.009 C 152.484 22.369,152.353 22.633,144.845 40.213 C 138.511 55.046,137.098 58.027,136.401 58.027 C 133.779 58.027,99.735 61.088,98.133 61.468 C 88.651 63.716,84.842 75.796,91.435 82.711 C 92.186 83.499,99.088 89.512,106.773 96.073 C 114.459 102.635,120.747 108.093,120.747 108.201 C 120.747 108.309,118.808 116.600,116.439 126.625 C 112.602 142.860,112.151 145.180,112.318 147.840 C 112.622 152.694,115.283 156.579,119.793 158.752 C 122.228 159.926,127.340 160.144,129.707 159.176 C 130.528 158.839,138.480 154.247,147.378 148.971 C 156.276 143.695,163.768 139.378,164.027 139.378 C 164.287 139.378,171.882 143.762,180.906 149.120 C 189.931 154.478,198.182 159.133,199.244 159.463 C 201.749 160.245,205.821 159.900,208.398 158.689 C 212.801 156.619,215.893 151.805,215.893 147.020 C 215.893 145.623,214.239 137.712,211.627 126.612 C 209.280 116.643,207.360 108.378,207.360 108.246 C 207.360 108.113,213.858 102.450,221.800 95.662 C 229.742 88.873,236.746 82.655,237.365 81.843 C 239.666 78.826,240.512 73.931,239.378 70.185 C 238.197 66.282,234.627 62.786,230.692 61.678 C 229.475 61.335,220.032 60.355,209.707 59.499 C 199.381 58.644,190.819 57.818,190.680 57.665 C 190.540 57.512,187.399 50.283,183.700 41.600 C 180.001 32.917,176.501 24.853,175.924 23.680 C 174.469 20.724,172.601 18.881,169.600 17.442 C 167.495 16.432,166.509 16.220,164.053 16.247 C 162.411 16.266,160.215 16.581,159.174 16.949 M76.800 112.684 C 76.213 112.913,62.528 126.293,46.387 142.417 C 18.766 170.010,17.004 171.860,16.410 173.883 C 15.853 175.780,15.853 176.281,16.411 178.161 C 17.808 182.866,22.634 185.133,27.214 183.236 C 29.387 182.336,85.850 125.960,87.050 123.492 C 89.038 119.403,87.334 114.518,83.320 112.801 C 81.751 112.130,78.375 112.069,76.800 112.684 M92.587 168.760 C 91.015 169.462,35.412 224.660,33.485 227.430 C 30.357 231.928,32.648 238.230,37.906 239.594 C 40.461 240.257,42.513 239.880,44.721 238.343 C 45.586 237.741,58.908 224.620,74.327 209.184 C 103.330 180.149,104.073 179.321,104.097 175.977 C 104.111 174.025,102.209 170.603,100.447 169.411 C 98.502 168.095,94.769 167.786,92.587 168.760 M164.480 168.954 C 162.022 170.172,105.645 226.660,104.764 228.786 C 102.825 233.466,105.217 238.350,110.062 239.607 C 111.882 240.079,112.546 240.072,114.231 239.565 C 116.054 239.017,118.904 236.295,145.597 209.614 C 173.228 181.997,174.996 180.140,175.590 178.117 C 176.148 176.219,176.147 175.719,175.587 173.833 C 174.176 169.083,168.897 166.763,164.480 168.954 " stroke="none" fill-rule="evenodd"></path></svg>