<svg fill="currentColor" viewBox="0 0 256 256" xmlns="http://www.w3.org/2000/svg"><path d="M108.587 16.818 C 106.997 17.528,105.160 19.454,104.560 21.041 C 104.311 21.702,104.107 23.276,104.107 24.540 C 104.107 34.662,111.071 43.680,121.600 47.194 C 123.800 47.928,126.805 47.991,169.813 48.202 L 215.680 48.427 217.406 49.351 C 226.110 54.011,226.026 66.394,217.260 70.698 L 214.827 71.893 150.400 72.136 C 79.477 72.404,84.590 72.207,74.222 75.073 C 52.855 80.980,34.173 96.553,24.291 116.693 C 9.145 147.565,15.188 184.180,39.437 208.463 C 52.730 221.775,69.622 229.731,88.685 231.660 C 91.322 231.926,105.260 232.103,123.245 232.097 C 151.637 232.088,153.486 232.042,155.093 231.300 C 157.159 230.347,158.459 228.996,159.340 226.888 C 160.893 223.170,159.267 218.880,155.520 216.813 C 154.400 216.195,152.087 216.090,137.067 215.978 L 119.893 215.849 119.893 207.988 L 119.893 200.126 144.960 200.010 C 169.443 199.896,170.066 199.873,171.733 199.001 C 172.770 198.460,173.920 197.337,174.663 196.141 C 177.055 192.289,175.876 187.545,171.951 185.238 L 170.027 184.107 139.307 183.893 L 108.587 183.680 106.579 182.691 C 102.510 180.687,100.201 176.766,100.217 171.888 C 100.232 167.034,102.713 163.127,107.055 161.119 C 108.946 160.244,109.769 160.205,130.987 159.962 C 144.903 159.802,153.977 159.525,155.733 159.206 C 174.601 155.782,188.735 148.447,201.183 135.620 C 210.038 126.496,215.496 117.734,219.516 106.190 C 221.291 101.093,223.060 93.308,223.426 88.989 L 223.702 85.718 226.722 83.764 C 237.831 76.578,242.471 63.797,238.547 51.193 C 235.656 41.911,226.495 34.037,216.747 32.456 C 214.933 32.162,198.867 32.005,170.333 32.003 C 123.044 32.000,125.047 32.095,122.525 29.740 C 121.042 28.355,120.467 27.006,119.958 23.716 C 119.440 20.373,118.043 18.208,115.596 16.961 C 113.863 16.077,110.405 16.006,108.587 16.818 M207.139 90.133 C 206.272 96.592,202.969 105.876,199.324 112.101 C 193.132 122.675,182.198 132.761,171.496 137.771 C 160.402 142.965,151.642 144.354,131.413 144.127 L 120.107 144.000 119.997 115.947 L 119.887 87.893 163.664 87.893 L 207.440 87.893 207.139 90.133 M144.637 104.480 C 141.217 105.601,138.013 108.625,136.756 111.917 C 135.769 114.500,136.025 118.935,137.305 121.441 C 138.489 123.760,141.640 126.490,144.100 127.328 C 151.896 129.984,160.000 124.128,160.000 115.839 C 160.000 111.843,157.507 107.742,153.732 105.530 C 152.235 104.653,151.120 104.369,148.755 104.264 C 147.078 104.190,145.225 104.287,144.637 104.480 M64.846 137.792 C 76.169 142.943,85.815 147.503,86.282 147.926 C 89.120 150.492,89.561 155.647,87.196 158.607 C 85.522 160.702,83.483 161.705,80.898 161.706 C 79.087 161.707,76.105 160.478,58.498 152.481 C 47.327 147.407,37.675 142.894,37.050 142.451 C 34.421 140.592,33.384 135.827,34.945 132.783 C 36.527 129.699,38.505 128.498,42.076 128.454 C 44.037 128.429,46.351 129.378,64.846 137.792 M83.372 180.220 C 86.548 182.081,87.943 186.509,86.451 189.987 C 85.611 191.944,83.984 193.332,75.166 199.614 C 66.704 205.641,65.210 206.279,61.882 205.282 C 56.133 203.559,54.337 195.980,58.721 191.936 C 61.101 189.740,75.565 179.638,76.920 179.226 C 78.930 178.614,81.239 178.970,83.372 180.220 " stroke="none" fill-rule="evenodd"></path></svg>