<svg fill="currentColor" viewBox="0 0 256 256" xmlns="http://www.w3.org/2000/svg"><path d="M52.926 24.355 C 48.250 25.282,43.642 28.869,41.482 33.264 L 40.320 35.627 40.209 127.253 C 40.101 217.437,40.112 218.917,40.939 221.268 C 42.449 225.566,45.675 228.935,50.043 230.776 L 52.693 231.893 128.000 231.893 L 203.307 231.893 205.957 230.776 C 210.321 228.937,213.551 225.566,215.057 221.279 C 215.874 218.957,215.893 217.345,215.893 152.572 C 215.893 107.470,215.751 85.858,215.447 85.041 C 214.935 83.662,157.471 25.922,155.520 24.826 C 154.342 24.164,150.285 24.102,104.533 24.042 C 77.187 24.007,53.972 24.148,52.926 24.355 M174.399 65.812 L 200.107 91.517 200.107 153.705 L 200.107 215.893 128.000 215.893 L 55.893 215.893 55.893 128.000 L 55.893 40.107 102.292 40.107 L 148.691 40.107 174.399 65.812 M76.587 112.818 C 74.997 113.528,73.160 115.454,72.560 117.041 C 72.252 117.857,72.107 130.356,72.107 155.988 C 72.107 197.540,71.966 195.357,74.809 197.854 C 77.266 200.011,78.462 200.176,90.551 200.028 L 101.529 199.893 102.711 198.711 L 103.893 197.528 104.107 173.537 C 104.344 146.793,104.198 148.049,107.357 145.639 C 108.573 144.712,109.460 144.429,111.518 144.314 C 114.658 144.138,116.433 144.923,118.370 147.346 L 119.680 148.985 119.893 173.256 L 120.107 197.528 121.290 198.711 C 122.461 199.881,122.529 199.893,128.000 199.893 C 133.471 199.893,133.539 199.881,134.710 198.711 L 135.893 197.528 136.107 173.537 C 136.344 146.793,136.198 148.049,139.357 145.639 C 140.573 144.712,141.460 144.429,143.518 144.314 C 146.658 144.138,148.433 144.923,150.370 147.346 L 151.680 148.985 151.893 173.256 L 152.107 197.528 153.289 198.711 L 154.471 199.893 165.653 200.021 C 175.110 200.129,177.112 200.042,178.630 199.462 C 180.840 198.619,183.332 195.945,183.673 194.052 C 183.813 193.275,183.872 175.618,183.804 154.813 L 183.680 116.986 182.370 115.346 C 179.657 111.952,184.205 112.213,128.000 112.231 C 87.063 112.244,77.632 112.352,76.587 112.818 " stroke="none" fill-rule="evenodd"></path></svg>