<svg fill="currentColor" viewBox="0 0 256 256" xmlns="http://www.w3.org/2000/svg"><path d="M52.644 32.816 C 50.472 33.802,48.827 35.896,48.248 38.409 C 47.965 39.636,47.804 52.648,47.797 74.787 C 47.787 107.232,47.743 109.267,47.040 109.490 C 46.629 109.620,44.853 110.428,43.093 111.286 C 38.398 113.574,33.570 118.458,31.210 123.307 C 28.658 128.548,28.037 131.452,28.249 137.141 C 28.446 142.432,29.534 146.231,32.076 150.509 C 34.894 155.249,40.900 160.314,45.740 162.033 L 47.787 162.760 47.787 189.092 C 47.787 206.564,47.944 216.158,48.254 217.604 C 49.156 221.810,53.056 224.458,57.389 223.809 C 59.899 223.432,62.916 220.844,63.564 218.512 C 63.834 217.542,63.996 206.795,63.998 189.860 L 64.000 162.760 66.221 161.972 C 71.321 160.160,77.353 155.029,80.218 150.064 C 83.221 144.860,84.637 137.252,83.654 131.597 C 82.052 122.385,76.494 114.975,68.216 111.015 L 64.032 109.013 64.014 74.027 C 64.002 52.435,63.834 38.461,63.575 37.528 C 62.795 34.718,58.949 31.988,55.800 32.009 C 55.030 32.015,53.610 32.378,52.644 32.816 M124.800 32.806 C 122.735 33.760,121.435 35.110,120.554 37.219 C 120.014 38.510,119.893 40.860,119.893 50.048 L 119.893 61.297 118.413 61.751 C 116.016 62.487,111.646 65.106,109.309 67.207 C 103.383 72.535,100.129 79.857,100.117 87.893 C 100.100 99.006,106.008 108.334,116.146 113.201 L 119.865 114.987 119.879 166.094 C 119.892 211.236,119.970 217.385,120.554 218.781 C 123.408 225.612,132.592 225.612,135.446 218.781 C 136.030 217.385,136.108 211.236,136.121 166.094 L 136.135 114.987 139.854 113.199 C 149.893 108.373,155.839 99.075,155.901 88.107 C 155.929 83.257,155.287 80.596,152.876 75.558 C 150.329 70.237,146.118 65.918,140.873 63.249 C 138.919 62.254,137.047 61.440,136.713 61.440 C 136.204 61.440,136.105 59.606,136.097 50.027 C 136.089 39.844,136.003 38.429,135.300 36.907 C 133.370 32.725,128.823 30.949,124.800 32.806 M196.907 32.809 C 194.738 33.813,192.954 35.708,192.418 37.576 C 192.156 38.490,191.993 58.051,191.981 90.024 L 191.961 141.013 187.718 143.076 C 179.282 147.175,173.779 154.617,172.337 163.875 C 171.432 169.682,172.798 176.893,175.782 182.064 C 178.647 187.029,184.679 192.160,189.779 193.972 L 192.000 194.760 192.002 205.860 C 192.004 212.019,192.197 217.651,192.436 218.512 C 193.084 220.844,196.101 223.432,198.611 223.809 C 202.944 224.458,206.844 221.810,207.746 217.604 C 208.012 216.364,208.213 210.969,208.213 205.092 L 208.213 194.760 210.260 194.033 C 215.100 192.314,221.106 187.249,223.924 182.509 C 226.466 178.231,227.554 174.432,227.751 169.141 C 227.963 163.452,227.342 160.548,224.790 155.307 C 222.430 150.458,217.602 145.574,212.907 143.286 C 211.147 142.428,209.371 141.620,208.960 141.490 C 208.255 141.266,208.213 138.470,208.203 90.787 C 208.196 57.647,208.041 39.664,207.752 38.409 C 206.585 33.344,201.463 30.699,196.907 32.809 " stroke="none" fill-rule="evenodd"></path></svg>