<svg fill="currentColor" viewBox="0 0 256 256" xmlns="http://www.w3.org/2000/svg"><path d="M120.960 24.326 C 100.935 25.586,81.587 32.844,64.891 45.360 C 59.554 49.360,49.234 59.686,45.276 64.986 C 34.512 79.399,27.973 94.882,25.095 112.768 C 23.886 120.283,23.787 134.307,24.890 141.867 C 27.542 160.046,34.293 176.318,45.279 191.014 C 49.299 196.392,59.608 206.701,64.986 210.721 C 79.686 221.710,96.000 228.476,114.133 231.105 C 117.683 231.620,121.936 231.847,128.000 231.847 C 144.598 231.847,158.874 228.583,173.440 221.458 C 184.661 215.968,192.320 210.472,201.396 201.396 C 210.475 192.317,215.974 184.654,221.456 173.440 C 234.480 146.798,235.469 116.189,224.197 88.662 C 216.422 69.676,202.839 53.088,185.584 41.508 C 166.871 28.950,144.021 22.874,120.960 24.326 M75.719 89.051 C 76.431 89.412,79.515 92.177,82.573 95.194 L 88.132 100.680 93.666 95.111 C 96.710 92.047,99.771 89.239,100.469 88.870 C 102.520 87.786,105.748 87.951,107.971 89.253 C 110.497 90.733,111.787 93.042,111.787 96.081 C 111.787 99.176,110.627 100.897,104.374 107.080 L 99.426 111.974 104.912 117.533 C 107.930 120.591,110.711 123.708,111.093 124.459 C 111.477 125.215,111.787 126.843,111.787 128.109 C 111.787 132.188,109.007 135.285,104.721 135.980 C 101.905 136.437,100.034 135.246,93.884 129.084 L 88.142 123.330 82.151 129.207 C 76.136 135.107,74.625 136.107,71.723 136.107 C 70.422 136.107,67.825 134.957,66.616 133.846 C 65.242 132.583,64.019 129.829,64.019 128.000 C 64.019 125.359,65.453 123.255,70.995 117.766 C 73.953 114.837,76.373 112.242,76.373 112.000 C 76.373 111.758,73.953 109.163,70.995 106.234 C 65.453 100.745,64.019 98.641,64.019 96.000 C 64.019 92.872,66.768 89.090,69.473 88.496 C 70.100 88.358,70.805 88.175,71.040 88.089 C 71.762 87.826,74.355 88.358,75.719 89.051 M155.733 88.981 C 156.320 89.289,159.290 92.047,162.334 95.111 L 167.868 100.680 173.427 95.194 C 176.485 92.177,179.659 89.360,180.480 88.934 C 182.310 87.985,185.780 87.948,187.531 88.859 C 190.105 90.198,192.009 93.286,191.991 96.093 C 191.974 98.647,190.488 100.804,185.005 106.234 C 182.047 109.163,179.627 111.758,179.627 112.000 C 179.627 112.242,182.047 114.837,185.005 117.766 C 190.488 123.196,191.974 125.353,191.991 127.907 C 192.002 129.627,190.995 132.125,189.740 133.490 C 188.618 134.711,185.788 136.084,184.370 136.097 C 181.393 136.125,179.913 135.155,173.849 129.207 L 167.858 123.330 162.116 129.084 C 155.966 135.246,154.095 136.437,151.279 135.980 C 146.993 135.285,144.213 132.188,144.213 128.109 C 144.213 126.843,144.523 125.215,144.907 124.459 C 145.289 123.708,148.070 120.591,151.088 117.533 L 156.574 111.974 151.626 107.080 C 145.373 100.897,144.213 99.176,144.213 96.081 C 144.213 90.049,150.449 86.206,155.733 88.981 M133.388 169.301 C 137.067 171.187,139.947 175.814,139.947 179.839 C 139.947 186.452,134.496 192.000,128.000 192.000 C 121.504 192.000,116.053 186.452,116.053 179.839 C 116.053 174.949,119.712 170.077,124.584 168.480 C 126.486 167.856,131.478 168.322,133.388 169.301 " stroke="none" fill-rule="evenodd"></path></svg>