<svg fill="currentColor" viewBox="0 0 256 256" xmlns="http://www.w3.org/2000/svg"><path d="M120.960 24.326 C 100.935 25.586,81.587 32.844,64.891 45.360 C 59.554 49.360,49.234 59.686,45.276 64.986 C 34.512 79.399,27.973 94.882,25.095 112.768 C 23.886 120.283,23.787 134.307,24.890 141.867 C 27.542 160.046,34.293 176.318,45.279 191.014 C 49.299 196.392,59.608 206.701,64.986 210.721 C 79.686 221.710,96.000 228.476,114.133 231.105 C 117.683 231.620,121.936 231.847,128.000 231.847 C 144.598 231.847,158.874 228.583,173.440 221.458 C 184.661 215.968,192.320 210.472,201.396 201.396 C 210.475 192.317,215.974 184.654,221.456 173.440 C 235.707 144.287,235.458 110.173,220.780 81.026 C 214.698 68.950,203.517 55.194,193.067 46.931 C 172.349 30.550,147.221 22.673,120.960 24.326 M97.762 97.564 C 103.309 100.584,105.474 107.470,102.675 113.192 C 100.455 117.729,96.238 120.153,91.161 119.810 C 86.807 119.516,83.137 117.084,81.284 113.266 C 80.014 110.649,79.904 106.050,81.048 103.390 C 83.832 96.919,91.601 94.211,97.762 97.564 M167.655 96.672 C 170.564 97.536,173.650 100.365,174.930 103.341 C 176.096 106.051,175.998 110.625,174.716 113.266 C 170.724 121.492,158.909 122.190,154.025 114.489 C 150.376 108.735,152.074 101.262,157.808 97.840 C 161.056 95.902,163.917 95.562,167.655 96.672 M137.084 144.850 C 144.516 146.146,151.266 148.888,157.863 153.292 C 162.157 156.157,169.456 163.596,172.491 168.198 C 175.420 172.640,175.787 173.523,175.787 176.141 C 175.787 181.933,169.769 185.600,164.473 183.037 C 162.859 182.255,162.049 181.401,160.076 178.399 C 154.236 169.513,146.549 163.658,137.495 161.202 C 134.845 160.482,132.956 160.304,128.000 160.304 C 123.044 160.304,121.155 160.482,118.505 161.202 C 109.409 163.670,101.893 169.414,95.787 178.564 C 92.988 182.758,90.835 184.329,87.910 184.311 C 84.627 184.290,81.274 181.774,80.202 178.527 C 79.476 176.326,79.991 173.855,81.797 170.880 C 90.246 156.959,103.467 147.612,118.580 144.875 C 122.993 144.076,132.573 144.063,137.084 144.850 " stroke="none" fill-rule="evenodd"></path></svg>