<svg fill="currentColor" viewBox="0 0 256 256" xmlns="http://www.w3.org/2000/svg"><path d="M120.960 24.326 C 100.935 25.586,81.587 32.844,64.891 45.360 C 59.554 49.360,49.234 59.686,45.276 64.986 C 34.512 79.399,27.973 94.882,25.095 112.768 C 23.886 120.283,23.787 134.307,24.890 141.867 C 27.542 160.046,34.293 176.318,45.279 191.014 C 49.299 196.392,59.608 206.701,64.986 210.721 C 79.686 221.710,96.000 228.476,114.133 231.105 C 117.683 231.620,121.936 231.847,128.000 231.847 C 144.598 231.847,158.874 228.583,173.440 221.458 C 184.661 215.968,192.320 210.472,201.396 201.396 C 210.475 192.317,215.974 184.654,221.456 173.440 C 235.707 144.287,235.458 110.173,220.780 81.026 C 214.698 68.950,203.517 55.194,193.067 46.931 C 172.349 30.550,147.221 22.673,120.960 24.326 M115.840 57.083 C 116.544 57.439,119.568 60.134,122.560 63.072 L 128.000 68.412 133.440 63.072 C 136.432 60.134,139.548 57.386,140.363 56.965 C 142.198 56.017,145.707 55.965,147.423 56.861 C 151.307 58.888,152.920 63.277,151.250 67.274 C 150.868 68.189,147.666 71.785,143.357 76.139 L 136.107 83.464 136.107 98.692 C 136.107 107.067,136.179 113.920,136.268 113.920 C 136.357 113.920,142.342 110.508,149.567 106.338 L 162.703 98.757 165.551 88.098 C 167.117 82.236,168.698 76.864,169.062 76.159 C 171.410 71.627,178.418 70.734,181.850 74.530 C 182.934 75.728,183.893 78.279,183.893 79.961 C 183.893 80.775,182.848 85.336,181.570 90.095 C 180.292 94.855,179.307 98.809,179.381 98.883 C 179.455 98.957,183.222 100.351,187.752 101.980 C 197.474 105.477,198.956 106.555,199.868 110.791 C 200.512 113.783,198.128 118.057,195.114 119.317 C 192.564 120.382,190.630 120.003,180.815 116.510 C 175.585 114.649,171.091 113.065,170.828 112.990 C 170.355 112.855,144.256 127.588,144.239 128.000 C 144.222 128.410,170.297 143.145,170.799 143.010 C 171.078 142.935,175.585 141.351,180.815 139.490 C 192.325 135.394,194.183 135.244,197.265 138.160 C 200.663 141.376,200.811 146.008,197.624 149.388 C 196.239 150.857,195.076 151.404,187.784 154.018 C 183.236 155.648,179.455 157.043,179.381 157.117 C 179.307 157.191,180.292 161.145,181.570 165.905 C 184.066 175.201,184.251 176.665,183.237 179.091 C 182.390 181.118,181.492 182.087,179.537 183.085 C 175.835 184.975,170.936 183.457,169.062 179.841 C 168.698 179.136,167.121 173.778,165.560 167.934 L 162.720 157.308 149.520 149.690 L 136.320 142.071 136.208 157.290 L 136.096 172.508 143.500 180.014 C 151.524 188.150,152.155 189.129,151.793 192.890 C 151.528 195.647,150.051 197.735,147.436 199.047 C 143.083 201.233,140.821 200.248,133.457 192.962 L 128.000 187.562 122.543 192.962 C 115.179 200.248,112.917 201.233,108.564 199.047 C 105.949 197.735,104.472 195.647,104.207 192.890 C 103.845 189.129,104.476 188.150,112.500 180.014 L 119.904 172.508 119.792 157.290 L 119.680 142.071 106.482 149.688 L 93.284 157.306 90.425 167.965 C 88.852 173.828,87.275 179.187,86.920 179.873 C 85.067 183.456,80.149 184.967,76.463 183.085 C 74.508 182.087,73.610 181.118,72.763 179.091 C 71.749 176.665,71.934 175.201,74.430 165.905 C 75.708 161.145,76.693 157.191,76.619 157.117 C 76.545 157.043,72.778 155.649,68.248 154.020 C 58.526 150.523,57.044 149.445,56.132 145.209 C 55.488 142.217,57.872 137.943,60.886 136.683 C 63.436 135.618,65.370 135.997,75.185 139.490 C 80.415 141.351,84.922 142.935,85.201 143.010 C 85.703 143.145,111.778 128.410,111.761 128.000 C 111.744 127.588,85.645 112.855,85.172 112.990 C 84.909 113.065,80.415 114.649,75.185 116.510 C 65.370 120.003,63.436 120.382,60.886 119.317 C 57.872 118.057,55.488 113.783,56.132 110.791 C 57.044 106.555,58.526 105.477,68.248 101.980 C 72.778 100.351,76.545 98.957,76.619 98.883 C 76.693 98.809,75.708 94.855,74.430 90.095 C 73.152 85.336,72.107 80.775,72.107 79.961 C 72.107 78.279,73.066 75.728,74.150 74.530 C 77.569 70.749,84.593 71.627,86.920 76.127 C 87.275 76.813,88.856 82.186,90.433 88.067 L 93.301 98.759 106.436 106.340 C 113.659 110.509,119.643 113.920,119.732 113.920 C 119.821 113.920,119.893 107.067,119.893 98.692 L 119.893 83.464 112.643 76.139 C 108.334 71.785,105.132 68.189,104.750 67.274 C 103.952 65.364,103.924 62.703,104.683 60.886 C 105.395 59.183,107.991 56.847,109.554 56.502 C 110.196 56.361,110.912 56.182,111.147 56.104 C 111.883 55.860,114.506 56.407,115.840 57.083 " stroke="none" fill-rule="evenodd"></path></svg>