<svg fill="currentColor" viewBox="0 0 256 256" xmlns="http://www.w3.org/2000/svg"><path d="M149.547 24.546 C 148.608 24.884,147.826 25.163,147.810 25.167 C 147.793 25.170,131.864 37.551,112.412 52.680 L 77.045 80.187 52.282 80.307 L 27.520 80.427 25.159 81.586 C 20.392 83.927,17.010 88.570,16.178 93.912 C 15.913 95.613,15.799 109.239,15.876 129.924 C 15.999 162.970,16.006 163.216,16.928 165.463 C 18.720 169.835,22.172 173.286,26.537 175.069 C 28.744 175.971,29.406 175.999,53.333 176.210 L 77.867 176.427 112.576 203.461 C 131.666 218.329,147.794 230.760,148.416 231.085 C 152.390 233.160,157.299 231.399,159.198 227.218 C 159.951 225.561,159.981 221.675,159.981 128.000 C 159.981 34.325,159.951 30.439,159.198 28.782 C 158.242 26.678,156.243 24.928,154.120 24.339 C 152.095 23.776,151.623 23.798,149.547 24.546 M218.240 72.711 C 216.650 73.421,214.813 75.347,214.214 76.934 C 213.589 78.587,213.649 81.912,214.326 83.200 C 214.635 83.787,216.217 85.924,217.843 87.950 C 227.153 99.547,231.792 112.867,231.792 128.000 C 231.792 143.121,227.161 156.428,217.859 168.037 C 216.241 170.056,214.657 172.332,214.339 173.094 C 213.102 176.055,213.865 179.251,216.376 181.627 C 220.350 185.388,224.982 184.573,229.333 179.346 C 245.928 159.410,251.837 132.955,245.329 107.718 C 243.864 102.035,241.288 95.395,238.634 90.460 C 234.591 82.941,228.083 74.378,225.287 72.895 C 223.536 71.967,220.109 71.877,218.240 72.711 M72.107 128.000 L 72.107 160.000 52.053 160.000 L 32.000 160.000 32.000 128.000 L 32.000 96.000 52.053 96.000 L 72.107 96.000 72.107 128.000 M189.013 99.667 C 186.699 100.669,185.205 102.372,184.495 104.817 C 183.638 107.764,184.136 109.563,186.815 113.192 C 193.629 122.422,193.629 133.578,186.815 142.808 C 184.136 146.437,183.638 148.236,184.495 151.183 C 185.218 153.670,186.720 155.354,189.106 156.351 C 192.653 157.832,195.564 156.954,198.630 153.476 C 210.866 139.598,210.911 116.454,198.731 102.638 C 195.618 99.108,192.503 98.155,189.013 99.667 " stroke="none" fill-rule="evenodd"></path></svg>