<svg fill="currentColor" viewBox="0 0 256 256" xmlns="http://www.w3.org/2000/svg"><path d="M120.960 24.326 C 100.935 25.586,81.587 32.844,64.891 45.360 C 59.554 49.360,49.234 59.686,45.276 64.986 C 34.512 79.399,27.973 94.882,25.095 112.768 C 23.886 120.283,23.787 134.307,24.890 141.867 C 27.542 160.046,34.293 176.318,45.279 191.014 C 49.299 196.392,59.608 206.701,64.986 210.721 C 79.686 221.710,96.000 228.476,114.133 231.105 C 117.683 231.620,121.936 231.847,128.000 231.847 C 144.598 231.847,158.874 228.583,173.440 221.458 C 184.661 215.968,192.320 210.472,201.396 201.396 C 210.475 192.317,215.974 184.654,221.456 173.440 C 235.707 144.287,235.458 110.173,220.780 81.026 C 214.698 68.950,203.517 55.194,193.067 46.931 C 172.349 30.550,147.221 22.673,120.960 24.326 M131.114 40.683 C 132.770 41.375,135.116 43.941,135.567 45.554 C 135.747 46.196,135.893 52.864,135.893 60.373 L 135.893 74.027 134.762 75.951 C 131.676 81.200,124.324 81.200,121.238 75.951 L 120.107 74.027 120.107 60.373 C 120.107 52.864,120.253 46.196,120.433 45.554 C 120.871 43.990,123.203 41.394,124.792 40.701 C 126.475 39.968,129.382 39.959,131.114 40.683 M75.004 64.397 C 77.315 65.600,94.962 83.470,95.771 85.426 C 97.401 89.369,95.574 93.749,91.520 95.620 C 89.427 96.586,87.513 96.634,85.426 95.771 C 83.425 94.944,65.586 77.289,64.351 74.914 C 63.067 72.443,63.399 68.825,65.104 66.718 C 67.612 63.620,71.678 62.666,75.004 64.397 M189.317 65.116 C 190.206 65.826,191.269 67.066,191.679 67.870 C 192.668 69.810,192.635 73.018,191.606 75.004 C 191.155 75.874,186.499 80.842,181.260 86.043 C 173.064 94.178,171.475 95.568,169.884 95.989 C 167.697 96.568,165.958 96.275,163.622 94.933 C 160.258 93.001,158.952 88.166,160.824 84.570 C 161.779 82.735,179.216 65.278,181.120 64.250 C 182.010 63.770,183.208 63.600,185.051 63.692 C 187.248 63.802,187.978 64.046,189.317 65.116 M75.882 121.169 C 79.807 123.416,81.018 128.451,78.564 132.321 C 76.362 135.793,75.975 135.874,60.800 136.026 C 46.315 136.172,45.311 136.051,42.809 133.854 C 39.139 130.631,39.145 125.363,42.824 122.133 C 43.685 121.377,44.913 120.643,45.554 120.502 C 46.196 120.361,46.912 120.175,47.147 120.089 C 47.381 120.003,53.525 119.972,60.800 120.020 L 74.027 120.107 75.882 121.169 M211.413 120.815 C 216.614 123.694,217.485 130.083,213.191 133.854 C 210.689 136.051,209.685 136.172,195.200 136.026 C 180.025 135.874,179.638 135.793,177.436 132.321 C 174.457 127.623,176.895 121.641,182.339 120.287 C 183.077 120.103,189.632 119.988,196.907 120.030 C 208.339 120.096,210.307 120.203,211.413 120.815 M92.658 161.192 C 95.780 163.122,96.974 167.976,95.176 171.430 C 94.162 173.380,76.681 190.803,74.795 191.745 C 73.228 192.527,70.158 192.637,68.401 191.973 C 66.767 191.355,64.871 189.514,64.161 187.854 C 63.328 185.908,63.431 182.856,64.390 180.996 C 64.840 180.126,69.496 175.161,74.737 169.964 C 83.456 161.318,84.430 160.481,86.187 160.129 C 88.556 159.653,90.751 160.014,92.658 161.192 M170.240 160.233 C 171.449 160.472,173.547 162.326,181.263 169.971 C 186.504 175.164,191.160 180.126,191.610 180.996 C 193.634 184.918,191.612 190.451,187.599 191.972 C 185.738 192.677,182.742 192.511,180.996 191.606 C 179.297 190.726,161.301 172.824,160.444 171.162 C 159.548 169.424,159.771 165.844,160.904 163.798 C 162.257 161.355,165.887 159.341,168.107 159.803 C 168.459 159.876,169.419 160.070,170.240 160.233 M131.930 177.169 C 132.936 177.734,134.092 178.910,134.762 180.049 L 135.893 181.973 135.893 195.627 C 135.893 203.136,135.747 209.804,135.567 210.446 C 135.116 212.059,132.770 214.625,131.114 215.317 C 129.350 216.054,126.650 216.054,124.886 215.317 C 123.230 214.625,120.884 212.059,120.433 210.446 C 120.253 209.804,120.107 203.136,120.107 195.627 L 120.107 181.973 121.164 180.126 C 123.301 176.394,128.171 175.056,131.930 177.169 " stroke="none" fill-rule="evenodd"></path></svg>