<svg fill="currentColor" viewBox="0 0 256 256" xmlns="http://www.w3.org/2000/svg"><path d="M76.546 44.794 C 45.257 63.035,27.028 73.905,26.159 74.840 C 23.158 78.070,23.402 82.720,26.735 85.820 C 27.656 86.675,108.991 134.410,122.572 142.066 C 125.692 143.824,127.749 144.304,129.810 143.754 C 131.209 143.381,226.325 88.223,228.839 86.326 C 230.343 85.192,231.191 83.871,231.744 81.805 C 232.397 79.362,231.668 76.533,229.928 74.753 C 228.977 73.780,166.002 36.704,135.062 18.901 C 130.838 16.471,130.160 16.213,127.982 16.213 L 125.573 16.213 76.546 44.794 M221.867 120.300 C 221.280 120.483,200.013 132.755,174.606 147.570 C 149.199 162.385,128.226 174.507,128.000 174.507 C 127.774 174.507,106.801 162.383,81.394 147.566 C 31.836 118.664,33.440 119.497,29.731 120.721 C 26.966 121.634,24.331 125.502,24.322 128.663 C 24.317 130.509,26.391 133.731,28.470 135.110 C 31.550 137.152,122.838 190.310,124.800 191.204 C 126.770 192.101,128.576 192.201,130.529 191.520 C 132.318 190.897,228.162 135.016,229.496 133.819 C 231.692 131.848,232.682 127.871,231.653 125.148 C 230.268 121.482,225.555 119.147,221.867 120.300 M30.569 168.596 C 24.686 169.917,22.446 177.204,26.586 181.551 C 27.400 182.407,46.441 193.756,74.027 209.828 C 99.371 224.594,121.216 237.301,122.572 238.066 C 125.692 239.824,127.749 240.304,129.810 239.754 C 131.176 239.390,225.940 184.451,229.174 182.148 C 230.660 181.090,232.107 178.089,232.107 176.065 C 232.107 171.275,228.386 167.831,223.607 168.197 C 221.353 168.370,218.747 169.826,174.614 195.562 L 128.001 222.745 82.454 196.197 C 57.403 181.595,36.427 169.421,35.840 169.142 C 34.227 168.375,32.395 168.185,30.569 168.596 " stroke="none" fill-rule="evenodd"></path></svg>