<svg fill="currentColor" viewBox="0 0 256 256" xmlns="http://www.w3.org/2000/svg"><path d="M123.018 16.803 C 120.391 17.660,118.487 18.966,116.180 21.489 C 114.261 23.589,113.322 25.652,102.255 52.084 C 95.728 67.672,90.208 80.611,89.990 80.836 C 89.771 81.061,75.857 82.437,59.069 83.894 C 26.351 86.733,26.168 86.761,22.457 89.454 C 15.398 94.576,13.879 105.411,19.298 111.986 C 20.065 112.917,30.581 122.303,42.667 132.842 C 54.752 143.382,65.077 152.422,65.612 152.931 L 66.584 153.856 59.933 182.635 C 56.275 198.463,53.092 212.421,52.859 213.653 C 51.710 219.743,55.529 227.196,61.288 230.107 C 65.743 232.357,70.057 232.534,74.667 230.654 C 75.957 230.127,88.053 222.974,101.547 214.759 C 115.040 206.543,126.521 199.586,127.059 199.298 C 127.960 198.818,130.116 200.035,153.842 214.419 C 168.033 223.023,180.553 230.407,181.663 230.829 C 187.140 232.910,192.760 232.016,197.440 228.317 C 199.248 226.889,201.597 223.478,202.470 221.013 C 203.866 217.074,203.575 215.296,196.494 184.524 C 192.823 168.572,189.721 155.120,189.601 154.632 C 189.420 153.893,193.265 150.354,212.431 133.617 C 225.108 122.547,235.947 112.867,236.518 112.105 C 240.422 106.897,240.981 100.762,238.086 94.881 C 236.520 91.699,234.185 89.502,230.573 87.812 C 227.872 86.548,227.821 86.542,197.137 83.894 C 180.234 82.436,166.237 81.059,166.032 80.835 C 165.827 80.610,160.306 67.667,153.763 52.072 C 142.228 24.579,141.798 23.643,139.596 21.262 C 136.323 17.722,133.589 16.491,128.664 16.341 C 126.245 16.267,124.133 16.440,123.018 16.803 M139.946 60.587 C 146.100 75.253,151.511 87.992,151.970 88.894 C 153.252 91.412,156.336 94.221,159.386 95.648 L 162.144 96.939 192.630 99.583 C 209.397 101.037,223.215 102.327,223.337 102.448 C 223.458 102.569,213.477 111.463,201.157 122.212 C 188.836 132.961,177.998 142.616,177.072 143.668 C 176.146 144.720,174.973 146.665,174.464 147.991 C 172.668 152.675,172.831 153.730,180.394 186.237 C 184.160 202.427,187.202 215.713,187.154 215.762 C 187.106 215.810,175.840 209.029,162.120 200.693 C 148.399 192.357,136.242 185.058,135.104 184.473 C 133.966 183.888,131.902 183.209,130.517 182.966 L 128.000 182.522 128.027 107.368 C 128.042 66.033,128.212 32.597,128.406 33.067 C 128.599 33.536,133.792 45.920,139.946 60.587 " stroke="none" fill-rule="evenodd"></path></svg>