<svg fill="currentColor" viewBox="0 0 256 256" xmlns="http://www.w3.org/2000/svg"><path d="M45.077 24.324 C 40.242 25.175,35.580 28.870,33.357 33.614 L 32.213 36.053 32.213 62.080 C 32.213 87.496,32.236 88.208,33.173 92.436 C 35.359 102.308,39.174 110.754,44.887 118.377 C 54.312 130.952,68.464 139.804,83.945 142.808 L 87.890 143.573 87.894 165.120 C 87.899 188.547,88.115 191.590,90.265 198.402 C 95.787 215.905,110.848 228.712,129.151 231.471 C 134.266 232.242,159.866 232.356,165.760 231.634 C 188.724 228.820,207.024 209.247,207.870 186.597 L 208.000 183.113 211.413 181.807 C 216.041 180.035,219.414 177.729,223.251 173.713 C 226.826 169.971,229.801 164.630,231.126 159.573 C 232.001 156.235,232.107 147.923,231.311 145.067 C 229.397 138.194,226.155 132.623,221.742 128.627 C 204.259 112.794,177.110 119.906,169.574 142.293 C 168.024 146.899,167.670 153.702,168.729 158.551 C 169.644 162.737,172.515 168.824,175.086 172.023 C 178.747 176.582,184.956 180.870,190.075 182.377 L 191.787 182.881 191.714 186.075 C 191.424 198.761,182.306 210.325,169.173 214.662 C 166.293 215.613,165.586 215.654,149.370 215.798 C 130.108 215.969,128.773 215.817,122.240 212.706 C 115.411 209.453,110.675 204.715,107.301 197.760 C 104.199 191.366,104.107 190.429,104.107 165.400 L 104.107 143.457 106.133 143.171 C 109.370 142.715,115.932 140.846,119.961 139.234 C 130.946 134.837,141.924 125.797,148.842 115.451 C 153.801 108.035,156.771 100.963,158.801 91.733 C 159.770 87.329,159.787 86.821,159.787 61.653 L 159.787 36.053 158.643 33.614 C 156.268 28.546,151.707 25.126,146.175 24.265 C 144.601 24.020,139.326 23.884,134.451 23.963 L 125.589 24.107 123.791 25.297 C 120.654 27.374,119.380 30.644,120.332 34.176 C 120.958 36.502,123.403 39.003,125.663 39.631 C 126.629 39.899,130.898 40.103,135.573 40.104 L 143.787 40.107 143.787 62.246 C 143.787 85.777,143.673 87.430,141.585 94.208 C 138.029 105.754,129.036 116.581,118.187 122.378 C 105.506 129.154,90.412 129.767,76.962 124.051 C 65.883 119.344,56.357 109.565,51.604 98.021 C 48.386 90.206,48.213 88.411,48.213 62.760 L 48.213 40.107 56.427 40.104 C 61.102 40.103,65.371 39.899,66.337 39.631 C 68.597 39.003,71.042 36.502,71.668 34.176 C 72.620 30.644,71.346 27.374,68.209 25.297 L 66.411 24.107 56.779 24.033 C 51.481 23.993,46.215 24.124,45.077 24.324 M203.214 144.801 C 206.078 146.026,207.787 148.773,207.787 152.151 C 207.787 160.643,196.337 162.893,192.796 155.097 C 190.441 149.913,194.073 144.278,199.800 144.230 C 200.923 144.221,202.459 144.478,203.214 144.801 " stroke="none" fill-rule="evenodd"></path></svg>