<svg fill="currentColor" viewBox="0 0 256 256" xmlns="http://www.w3.org/2000/svg"><path d="M106.774 0.647 C 102.337 1.611,98.723 3.662,95.146 7.246 C 91.989 10.409,90.616 12.619,88.914 17.280 C 88.230 19.152,88.116 21.174,87.984 33.792 L 87.833 48.171 73.677 48.299 L 59.520 48.427 57.159 49.586 C 52.478 51.885,49.053 56.511,48.207 61.675 C 47.601 65.378,47.642 207.267,48.250 210.588 C 49.215 215.852,52.708 220.362,57.600 222.660 C 59.875 223.729,60.248 223.767,69.867 223.915 L 79.787 224.069 79.787 231.693 C 79.787 235.887,79.999 240.310,80.259 241.522 C 80.827 244.167,82.969 246.757,85.198 247.492 C 88.962 248.735,93.441 246.937,95.095 243.520 C 95.928 241.800,96.000 240.947,96.000 232.825 L 96.000 224.000 128.000 224.000 L 160.000 224.000 160.000 232.825 C 160.000 240.947,160.072 241.800,160.905 243.520 C 162.286 246.373,164.561 247.680,168.143 247.680 C 170.705 247.680,171.190 247.539,172.654 246.373 C 175.703 243.941,175.981 242.865,176.143 232.887 L 176.287 224.068 186.170 223.915 C 195.750 223.767,196.125 223.728,198.400 222.660 C 203.292 220.362,206.785 215.852,207.750 210.588 C 208.358 207.267,208.399 65.378,207.793 61.675 C 206.947 56.511,203.522 51.885,198.841 49.586 L 196.480 48.427 182.323 48.299 L 168.167 48.171 168.016 33.792 L 167.865 19.413 166.652 16.213 C 163.565 8.068,157.082 2.335,149.029 0.628 C 144.981 -0.229,110.738 -0.214,106.774 0.647 M147.066 16.668 C 148.684 17.282,150.102 18.659,151.082 20.570 C 151.827 22.024,151.893 23.214,151.893 35.183 L 151.893 48.213 128.000 48.213 L 104.107 48.213 104.107 35.183 C 104.107 23.214,104.173 22.024,104.918 20.570 C 105.866 18.722,107.298 17.292,108.800 16.693 C 110.305 16.093,145.488 16.071,147.066 16.668 M92.496 73.490 C 93.503 74.156,94.557 75.368,95.095 76.480 L 96.000 78.349 95.991 135.921 C 95.982 190.854,95.945 193.572,95.198 195.218 C 92.561 201.024,84.812 201.645,81.436 196.321 L 80.213 194.393 80.213 136.223 C 80.213 87.898,80.312 77.820,80.798 76.680 C 82.622 72.399,88.448 70.810,92.496 73.490 M131.114 72.683 C 132.770 73.375,135.116 75.941,135.567 77.554 C 135.747 78.196,135.893 104.767,135.893 136.603 L 135.893 194.487 134.607 196.316 C 132.832 198.843,130.910 199.879,128.000 199.879 C 125.090 199.879,123.168 198.843,121.393 196.316 L 120.107 194.487 120.107 136.603 C 120.107 104.767,120.253 78.196,120.433 77.554 C 120.871 75.990,123.203 73.394,124.792 72.701 C 126.475 71.968,129.382 71.959,131.114 72.683 M171.512 72.956 C 172.428 73.423,173.716 74.512,174.375 75.376 L 175.573 76.947 175.684 135.602 L 175.796 194.256 174.742 196.054 C 172.171 200.442,166.641 201.312,162.794 197.934 C 159.787 195.294,159.966 199.456,160.096 135.222 L 160.213 77.378 161.352 75.657 C 163.503 72.407,168.061 71.195,171.512 72.956 " stroke="none" fill-rule="evenodd"></path></svg>