<svg fill="currentColor" viewBox="0 0 256 256" xmlns="http://www.w3.org/2000/svg"><path d="M124.792 8.701 C 123.054 9.459,120.890 12.002,120.313 13.966 C 119.999 15.035,119.885 20.001,119.974 28.800 C 120.127 44.016,120.209 44.396,123.859 46.663 C 127.736 49.071,132.925 47.707,135.001 43.733 C 135.841 42.127,135.901 41.247,136.026 28.800 C 136.115 20.001,136.001 15.035,135.687 13.966 C 135.094 11.949,132.920 9.438,131.114 8.683 C 129.382 7.959,126.475 7.968,124.792 8.701 M44.813 40.782 C 42.863 41.628,41.895 42.542,40.915 44.463 C 39.875 46.500,39.880 49.517,40.927 51.537 C 41.378 52.408,45.842 57.183,50.847 62.149 C 58.676 69.918,60.207 71.248,61.808 71.672 C 67.897 73.286,73.286 67.897,71.672 61.808 C 71.248 60.208,69.912 58.668,62.149 50.832 C 56.448 45.077,52.491 41.424,51.413 40.922 C 49.360 39.964,46.824 39.910,44.813 40.782 M204.587 40.922 C 203.509 41.424,199.552 45.077,193.851 50.832 C 186.088 58.668,184.752 60.208,184.328 61.808 C 182.714 67.897,188.103 73.286,194.192 71.672 C 195.793 71.248,197.324 69.918,205.153 62.149 C 210.158 57.183,214.622 52.408,215.073 51.537 C 216.571 48.646,215.825 44.279,213.470 42.150 C 211.210 40.106,207.450 39.586,204.587 40.922 M119.467 64.645 C 109.472 66.017,100.761 69.324,92.373 74.929 C 78.380 84.280,69.005 98.275,65.184 115.516 C 63.846 121.552,63.846 134.448,65.184 140.484 C 70.947 166.489,89.524 185.071,115.481 190.796 C 121.566 192.138,134.434 192.138,140.519 190.796 C 166.457 185.075,185.119 166.411,190.790 140.519 C 192.038 134.819,192.157 122.434,191.020 116.693 C 189.152 107.271,184.799 97.162,179.627 90.240 C 165.495 71.325,142.392 61.496,119.467 64.645 M15.147 120.089 C 14.912 120.175,14.196 120.361,13.554 120.502 C 11.991 120.847,9.395 123.183,8.683 124.886 C 7.375 128.017,8.220 131.581,10.809 133.854 C 13.311 136.051,14.315 136.172,28.800 136.026 C 44.016 135.873,44.396 135.791,46.663 132.141 C 49.061 128.279,47.832 123.430,43.882 121.169 L 42.027 120.107 28.800 120.020 C 21.525 119.972,15.381 120.003,15.147 120.089 M214.339 120.287 C 208.903 121.638,206.440 127.476,209.337 132.141 C 211.604 135.791,211.984 135.873,227.200 136.026 C 241.685 136.172,242.689 136.051,245.191 133.854 C 248.586 130.873,248.874 125.942,245.840 122.735 C 243.360 120.114,243.357 120.114,228.907 120.030 C 221.632 119.988,215.077 120.103,214.339 120.287 M62.933 184.093 C 62.699 184.177,61.931 184.372,61.227 184.527 C 59.659 184.871,42.187 202.030,40.927 204.463 C 39.433 207.346,40.184 211.770,42.515 213.815 C 44.989 215.987,48.759 216.513,51.537 215.073 C 52.408 214.622,57.182 210.158,62.147 205.153 C 69.521 197.719,71.258 195.741,71.638 194.347 C 72.212 192.237,72.214 191.764,71.661 189.773 C 71.145 187.915,69.485 185.808,67.896 184.995 C 66.714 184.390,63.658 183.835,62.933 184.093 M189.919 184.312 C 185.731 185.327,183.175 189.844,184.328 194.192 C 184.752 195.793,186.082 197.324,193.851 205.153 C 198.817 210.158,203.592 214.622,204.463 215.073 C 207.241 216.513,211.011 215.987,213.485 213.815 C 215.722 211.852,216.565 207.383,215.211 204.672 C 214.421 203.089,197.429 185.818,195.840 184.982 C 194.360 184.204,191.636 183.895,189.919 184.312 M123.679 209.436 C 120.207 211.638,120.126 212.025,119.974 227.200 C 119.828 241.685,119.949 242.689,122.146 245.191 C 125.363 248.854,130.637 248.854,133.854 245.191 C 136.051 242.689,136.172 241.685,136.026 227.200 C 135.874 212.025,135.793 211.638,132.321 209.436 C 130.789 208.465,129.901 208.213,128.000 208.213 C 126.099 208.213,125.211 208.465,123.679 209.436 " stroke="none" fill-rule="evenodd"></path></svg>