<svg fill="currentColor" viewBox="0 0 256 256" xmlns="http://www.w3.org/2000/svg"><path d="M60.520 16.808 C 56.232 18.340,52.718 21.475,50.962 25.335 C 50.201 27.008,46.943 44.767,37.058 101.120 L 24.148 174.720 24.175 180.693 C 24.199 185.783,24.373 187.295,25.351 190.918 C 27.384 198.452,30.812 204.691,35.917 210.147 C 42.533 217.220,52.088 222.196,61.663 223.555 C 64.123 223.904,86.535 224.003,142.516 223.912 L 219.965 223.787 222.802 222.390 C 226.317 220.659,229.521 217.288,230.903 213.865 L 231.893 211.413 232.015 183.478 C 232.096 164.840,231.985 154.835,231.681 153.419 C 231.030 150.383,211.783 97.834,210.573 95.787 C 207.402 90.425,200.819 87.373,194.560 88.362 C 193.269 88.566,176.863 94.298,158.102 101.100 C 139.341 107.902,123.940 113.416,123.878 113.354 C 123.816 113.291,126.571 97.217,130.001 77.634 C 135.931 43.774,136.215 41.896,135.784 39.361 C 135.223 36.065,134.009 33.498,131.850 31.046 C 130.245 29.223,126.337 26.819,124.160 26.316 C 123.573 26.180,110.661 23.852,95.465 21.141 C 67.277 16.113,63.705 15.670,60.520 16.808 M206.266 129.532 C 211.386 143.516,215.598 155.240,215.627 155.586 C 215.666 156.044,201.268 161.443,162.348 175.566 C 133.015 186.210,108.981 194.883,108.938 194.840 C 108.895 194.797,109.245 193.420,109.716 191.781 C 110.187 190.141,112.814 175.951,115.553 160.247 L 120.533 131.694 158.293 117.949 C 179.061 110.389,196.257 104.182,196.506 104.155 C 196.755 104.129,201.147 115.548,206.266 129.532 M75.444 165.959 C 81.207 169.048,84.513 175.207,83.843 181.606 C 83.278 186.998,79.594 192.217,74.751 194.487 C 72.624 195.484,71.786 195.627,68.047 195.627 C 64.079 195.627,63.570 195.527,60.923 194.224 C 57.645 192.612,55.209 190.097,53.444 186.505 C 52.408 184.394,52.267 183.620,52.271 180.053 C 52.275 176.577,52.435 175.658,53.395 173.602 C 54.672 170.869,57.099 168.007,59.338 166.594 C 62.265 164.746,64.363 164.251,68.693 164.387 C 72.358 164.502,73.005 164.652,75.444 165.959 M215.893 190.720 L 215.893 208.213 168.036 208.213 C 141.714 208.213,120.307 208.084,120.466 207.925 C 120.736 207.656,214.880 173.345,215.573 173.264 C 215.749 173.244,215.893 181.099,215.893 190.720 " stroke="none" fill-rule="evenodd"></path></svg>