<svg fill="currentColor" viewBox="0 0 256 256" xmlns="http://www.w3.org/2000/svg"><path d="M86.339 24.301 C 84.141 24.824,82.167 26.296,81.050 28.246 L 80.000 30.080 79.885 85.333 C 79.804 124.342,79.909 141.253,80.241 142.852 C 81.714 149.950,90.611 151.612,94.758 145.564 C 95.626 144.299,95.810 143.445,95.935 140.086 L 96.082 136.107 128.041 136.107 L 160.000 136.107 160.000 140.387 C 160.000 146.811,161.552 149.632,165.748 150.831 C 169.436 151.886,173.054 150.424,174.950 147.114 L 176.000 145.280 176.000 87.680 L 176.000 30.080 174.938 28.225 C 172.310 23.635,165.777 22.759,162.260 26.525 C 160.502 28.408,160.000 30.381,160.000 35.400 L 160.000 40.107 128.000 40.107 L 96.000 40.107 96.000 35.400 C 96.000 30.381,95.498 28.408,93.740 26.525 C 91.938 24.596,88.919 23.689,86.339 24.301 M155.093 64.806 C 162.209 68.091,161.214 77.996,153.591 79.752 C 151.002 80.349,104.998 80.349,102.409 79.752 C 94.786 77.996,93.791 68.091,100.907 64.806 C 102.505 64.069,104.219 64.019,128.000 64.019 C 151.781 64.019,153.495 64.069,155.093 64.806 M155.093 96.806 C 162.209 100.091,161.214 109.996,153.591 111.752 C 151.002 112.349,104.998 112.349,102.409 111.752 C 94.786 109.996,93.791 100.091,100.907 96.806 C 102.505 96.069,104.219 96.019,128.000 96.019 C 151.781 96.019,153.495 96.069,155.093 96.806 M28.782 160.770 C 25.235 162.447,23.320 166.198,24.245 169.658 C 25.450 174.161,27.763 175.653,34.418 176.219 C 41.654 176.835,43.577 177.560,51.521 182.668 C 58.478 187.141,62.728 189.165,68.053 190.543 C 73.903 192.055,81.826 192.395,87.833 191.391 C 95.458 190.116,99.862 188.248,108.669 182.554 C 116.870 177.252,120.004 176.226,128.000 176.226 C 135.997 176.226,139.131 177.252,147.331 182.555 C 158.309 189.653,165.432 192.000,176.000 192.000 C 186.568 192.000,193.691 189.653,204.669 182.555 C 212.341 177.593,214.372 176.833,221.582 176.219 C 228.237 175.653,230.550 174.161,231.755 169.658 C 232.723 166.036,230.515 162.046,226.742 160.605 C 225.181 160.009,224.075 159.929,220.698 160.166 C 210.866 160.857,204.520 163.267,194.133 170.252 C 187.869 174.464,183.251 175.904,176.000 175.904 C 168.238 175.904,164.573 174.654,155.969 169.070 C 145.188 162.074,139.412 160.251,128.000 160.242 C 116.262 160.233,109.821 162.392,98.133 170.252 C 91.869 174.464,87.251 175.904,80.000 175.904 C 72.238 175.904,68.712 174.705,60.113 169.143 C 50.255 162.767,44.381 160.688,34.787 160.181 C 31.150 159.989,30.248 160.078,28.782 160.770 M28.800 200.711 C 26.287 201.833,23.893 205.389,23.893 208.000 C 23.893 210.745,26.681 214.652,29.196 215.429 C 29.917 215.652,32.139 215.960,34.133 216.113 C 40.923 216.633,44.230 217.874,51.413 222.597 C 57.021 226.284,60.346 228.034,64.427 229.450 C 69.858 231.334,73.373 231.883,80.000 231.883 C 91.056 231.883,98.050 229.621,108.378 222.707 C 116.250 217.436,119.981 216.198,128.000 216.198 C 136.027 216.198,139.344 217.292,147.413 222.597 C 153.021 226.284,156.346 228.034,160.427 229.450 C 165.858 231.334,169.373 231.883,176.000 231.883 C 187.105 231.883,193.741 229.727,204.587 222.597 C 211.770 217.874,215.077 216.633,221.867 216.113 C 223.861 215.960,226.083 215.652,226.804 215.429 C 229.365 214.637,232.120 210.723,232.097 207.907 C 232.076 205.213,229.457 201.545,226.852 200.560 C 223.999 199.482,214.547 200.437,208.853 202.379 C 204.790 203.764,202.074 205.183,196.053 209.066 C 193.237 210.882,190.102 212.789,189.085 213.303 C 182.231 216.775,169.769 216.775,162.915 213.303 C 161.898 212.789,158.763 210.882,155.947 209.066 C 149.926 205.183,147.210 203.764,143.147 202.379 C 134.572 199.455,122.499 199.345,113.724 202.112 C 109.289 203.510,106.340 205.010,100.053 209.065 C 97.237 210.881,94.102 212.789,93.085 213.303 C 86.231 216.775,73.769 216.775,66.915 213.303 C 65.898 212.789,62.763 210.882,59.947 209.066 C 53.926 205.183,51.210 203.764,47.147 202.379 C 41.167 200.340,31.584 199.469,28.800 200.711 " stroke="none" fill-rule="evenodd"></path></svg>