<svg fill="currentColor" viewBox="0 0 256 256" xmlns="http://www.w3.org/2000/svg"><path d="M179.831 17.250 C 176.512 19.240,175.130 23.911,176.846 27.339 C 177.248 28.143,181.878 33.121,187.135 38.403 L 196.692 48.006 182.404 62.289 L 168.116 76.573 150.511 59.002 C 138.599 47.113,132.394 41.217,131.320 40.769 C 129.131 39.855,126.479 39.941,124.298 40.997 C 122.123 42.049,120.967 43.536,120.256 46.195 C 119.390 49.433,120.192 51.175,124.635 55.707 C 126.721 57.833,128.427 59.749,128.427 59.964 C 128.427 60.179,122.859 65.934,116.053 72.754 C 102.823 86.012,102.859 85.964,104.292 88.661 C 104.629 89.295,111.553 96.437,119.680 104.533 C 127.807 112.629,134.731 119.772,135.068 120.405 C 135.852 121.882,135.858 125.995,135.078 127.488 C 134.270 129.035,132.324 130.830,130.852 131.386 C 129.090 132.052,126.022 131.940,124.459 131.152 C 123.708 130.774,116.173 123.574,107.714 115.152 C 92.637 100.141,92.302 99.840,90.630 99.840 C 88.996 99.840,88.648 100.119,82.223 106.590 C 75.218 113.644,74.923 114.119,76.132 116.395 C 76.469 117.028,83.400 124.171,91.536 132.267 C 101.254 141.937,106.602 147.572,107.128 148.693 C 109.977 154.770,104.061 161.505,97.558 159.588 C 96.068 159.149,93.346 156.639,80.427 143.795 C 71.979 135.396,64.623 128.298,64.082 128.021 C 62.064 126.988,61.000 127.773,51.518 137.297 C 41.474 147.384,40.874 148.239,40.105 153.552 C 39.881 155.104,39.693 167.313,39.688 180.683 L 39.680 204.993 28.204 216.523 C 17.379 227.399,16.703 228.169,16.305 230.095 C 15.547 233.766,17.003 237.168,20.071 238.892 C 22.211 240.095,25.241 240.204,27.339 239.154 C 28.143 238.752,33.888 233.358,40.107 227.168 L 51.413 215.912 78.080 215.796 L 104.747 215.680 107.093 214.655 C 109.170 213.747,114.394 208.684,152.538 170.601 C 176.242 146.936,195.851 127.573,196.113 127.573 C 196.374 127.573,197.864 128.998,199.422 130.739 C 202.443 134.114,205.636 136.114,207.977 136.097 C 210.781 136.077,214.436 133.508,215.440 130.852 C 216.018 129.321,216.021 126.693,215.447 125.148 C 215.201 124.487,206.945 115.882,197.100 106.025 L 179.200 88.102 193.603 73.704 L 208.006 59.305 217.390 68.722 C 222.551 73.901,227.486 78.510,228.356 78.963 C 230.100 79.870,233.091 80.038,234.959 79.334 C 238.372 78.047,240.488 73.947,239.706 70.136 C 239.291 68.112,238.571 67.343,214.253 42.957 C 200.439 29.104,188.517 17.491,187.644 17.037 C 185.363 15.851,182.013 15.942,179.831 17.250 " stroke="none" fill-rule="evenodd"></path></svg>