<svg fill="currentColor" viewBox="0 0 256 256" xmlns="http://www.w3.org/2000/svg"><path d="M76.587 16.818 C 72.781 18.517,71.078 23.151,72.765 27.214 C 73.213 28.292,79.050 34.434,90.987 46.388 L 108.550 63.977 72.292 64.095 L 36.035 64.213 33.197 65.610 C 29.683 67.341,26.479 70.712,25.097 74.135 L 24.107 76.587 24.107 139.947 L 24.107 203.307 25.224 205.957 C 27.063 210.321,30.434 213.551,34.721 215.057 C 37.053 215.877,38.826 215.893,128.000 215.893 C 217.174 215.893,218.947 215.877,221.279 215.057 C 225.566 213.551,228.937 210.321,230.776 205.957 L 231.893 203.307 231.893 139.947 L 231.893 76.587 230.903 74.135 C 229.521 70.712,226.317 67.341,222.803 65.610 L 219.965 64.213 183.708 64.095 L 147.450 63.977 165.013 46.388 C 176.950 34.434,182.787 28.292,183.235 27.214 C 184.966 23.043,183.039 18.169,179.066 16.667 C 177.532 16.088,174.483 16.084,172.934 16.660 C 172.273 16.905,161.902 26.927,149.867 38.951 L 128.000 60.797 106.133 38.951 C 94.098 26.927,83.727 16.905,83.066 16.660 C 81.418 16.047,78.133 16.128,76.587 16.818 " stroke="none" fill-rule="evenodd"></path></svg>