<svg fill="currentColor" viewBox="0 0 256 256" xmlns="http://www.w3.org/2000/svg"><path d="M68.418 48.892 C 67.680 49.258,66.679 49.979,66.195 50.494 C 64.748 52.035,0.376 197.005,0.122 199.296 C -0.300 203.097,2.267 206.672,6.187 207.742 C 8.606 208.403,247.394 208.403,249.813 207.742 C 253.452 206.748,255.982 203.528,255.980 199.893 C 255.980 198.557,248.867 182.203,223.243 124.619 C 192.694 55.967,190.397 50.963,188.867 49.739 L 187.228 48.427 128.494 48.327 C 76.054 48.239,69.616 48.299,68.418 48.892 M64.000 143.147 L 64.000 192.000 42.194 192.000 C 24.923 192.000,20.432 191.889,20.597 191.467 C 21.304 189.660,63.782 94.293,63.880 94.293 C 63.946 94.293,64.000 116.277,64.000 143.147 M101.975 143.147 C 113.756 169.664,123.482 191.504,123.589 191.680 C 123.696 191.856,113.980 192.000,101.999 192.000 L 80.213 192.000 80.213 143.289 C 80.213 116.498,80.290 94.658,80.384 94.756 C 80.478 94.853,90.194 116.629,101.975 143.147 " stroke="none" fill-rule="evenodd"></path></svg>