<svg fill="currentColor" viewBox="0 0 256 256" xmlns="http://www.w3.org/2000/svg"><path d="M36.053 40.505 C 30.344 41.916,25.583 47.035,24.322 53.120 C 24.024 54.557,23.916 79.407,23.993 129.280 L 24.107 203.307 25.224 205.957 C 27.063 210.321,30.434 213.551,34.721 215.057 C 37.053 215.877,38.826 215.893,128.000 215.893 C 217.174 215.893,218.947 215.877,221.279 215.057 C 225.566 213.551,228.937 210.321,230.776 205.957 L 231.893 203.307 231.893 128.000 L 231.893 52.693 230.867 50.144 C 229.561 46.901,226.312 43.426,222.933 41.659 L 220.373 40.320 128.853 40.255 C 78.517 40.219,36.757 40.331,36.053 40.505 M76.407 81.471 C 79.513 83.543,118.467 122.845,119.232 124.680 C 120.075 126.703,120.075 129.297,119.232 131.320 C 118.780 132.403,112.178 139.311,98.432 153.080 C 87.356 164.176,77.586 173.745,76.721 174.345 C 75.857 174.946,74.445 175.596,73.585 175.790 C 71.556 176.248,68.166 175.382,66.700 174.031 C 65.250 172.696,64.019 169.975,64.019 168.107 C 64.019 164.698,65.034 163.490,83.108 145.387 L 100.466 128.000 83.108 110.613 C 70.098 97.583,65.533 92.746,64.884 91.307 C 62.378 85.746,65.962 80.275,72.140 80.230 C 74.082 80.216,74.868 80.445,76.407 81.471 M194.888 160.660 C 198.122 162.012,199.802 164.496,199.802 167.930 C 199.802 170.877,198.373 173.382,195.845 174.869 L 193.920 176.000 160.000 176.000 L 126.080 176.000 124.225 174.938 C 119.637 172.311,118.759 165.777,122.523 162.263 C 124.981 159.967,123.861 160.035,159.907 160.017 C 189.114 160.002,193.506 160.083,194.888 160.660 " stroke="none" fill-rule="evenodd"></path></svg>