<svg fill="currentColor" viewBox="0 0 256 256" xmlns="http://www.w3.org/2000/svg"><path d="M36.053 40.505 C 30.344 41.916,25.583 47.035,24.322 53.120 C 24.024 54.557,23.916 79.407,23.993 129.280 L 24.107 203.307 25.224 205.957 C 27.063 210.321,30.434 213.551,34.721 215.057 C 37.053 215.877,38.826 215.893,128.000 215.893 C 217.174 215.893,218.947 215.877,221.279 215.057 C 225.566 213.551,228.937 210.321,230.776 205.957 L 231.893 203.307 231.893 128.000 L 231.893 52.693 230.867 50.144 C 229.561 46.901,226.312 43.426,222.933 41.659 L 220.373 40.320 128.853 40.255 C 78.517 40.219,36.757 40.331,36.053 40.505 M96.408 65.430 C 97.348 66.052,98.482 67.281,98.929 68.160 C 99.376 69.040,109.584 92.992,121.614 121.387 C 140.697 166.429,143.508 173.340,143.660 175.573 C 143.867 178.639,143.083 180.428,140.698 182.334 C 137.403 184.966,131.766 184.059,129.515 180.535 C 128.971 179.683,125.961 172.889,122.827 165.437 L 117.128 151.887 91.960 151.997 L 66.792 152.107 60.917 165.973 C 57.686 173.600,54.688 180.320,54.255 180.907 C 52.987 182.623,50.389 183.878,48.090 183.886 C 43.263 183.903,39.669 179.943,40.208 175.203 C 40.322 174.196,49.998 150.757,62.764 120.560 C 86.500 64.416,86.010 65.453,89.283 64.454 C 91.541 63.765,94.505 64.171,96.408 65.430 M82.875 114.062 C 77.891 125.849,73.813 135.631,73.813 135.800 C 73.813 135.969,81.973 136.107,91.947 136.107 C 103.855 136.107,110.080 135.959,110.080 135.676 C 110.080 135.295,92.916 94.428,92.216 93.142 C 92.062 92.860,87.859 102.274,82.875 114.062 M193.634 105.368 C 199.206 106.960,205.484 110.673,208.789 114.332 C 211.050 116.834,213.200 120.321,214.534 123.649 L 215.680 126.507 215.814 151.680 C 215.953 177.845,215.896 178.850,214.147 181.074 C 211.269 184.732,204.743 184.748,201.878 181.105 L 201.008 180.000 197.028 181.490 C 191.575 183.533,188.179 184.054,182.225 183.763 C 176.276 183.473,173.451 182.756,168.120 180.185 C 164.656 178.514,163.532 177.683,160.226 174.345 C 154.389 168.451,152.165 163.286,152.199 155.702 C 152.230 148.748,154.771 142.987,160.189 137.587 C 162.846 134.939,164.520 133.701,167.563 132.132 C 173.353 129.148,176.906 128.308,183.893 128.269 C 189.999 128.235,192.574 128.698,197.627 130.739 L 200.157 131.761 199.877 130.414 C 198.842 125.444,193.577 121.330,186.930 120.299 C 182.328 119.585,179.033 120.234,173.955 122.856 C 169.186 125.318,167.364 125.556,164.373 124.108 C 161.589 122.760,160.213 120.437,160.213 117.081 C 160.213 114.812,160.402 114.154,161.493 112.608 C 163.696 109.489,171.338 105.685,177.712 104.534 C 181.266 103.892,190.083 104.354,193.634 105.368 M177.920 144.991 C 173.648 146.405,170.036 149.381,168.693 152.595 C 165.999 159.044,171.926 166.250,181.187 167.784 C 187.981 168.910,195.611 165.802,198.608 160.688 C 201.797 155.246,199.107 149.094,192.096 145.795 C 189.529 144.587,188.755 144.433,184.747 144.329 C 181.317 144.241,179.717 144.396,177.920 144.991 " stroke="none" fill-rule="evenodd"></path></svg>