<svg fill="currentColor" viewBox="0 0 256 256" xmlns="http://www.w3.org/2000/svg"><path d="M39.040 56.097 C 38.805 56.179,38.100 56.358,37.473 56.496 C 35.816 56.860,33.703 58.799,32.802 60.782 C 31.658 63.300,31.668 72.827,32.816 75.356 C 33.834 77.597,35.954 79.211,38.636 79.785 C 40.055 80.089,52.702 80.199,77.227 80.119 C 112.739 80.003,113.751 79.977,115.386 79.147 C 116.310 78.677,117.654 77.556,118.373 76.655 C 119.666 75.035,119.682 74.956,119.821 69.225 C 119.993 62.171,119.793 60.988,118.102 59.062 C 115.318 55.891,118.376 56.116,76.800 56.028 C 56.267 55.984,39.275 56.016,39.040 56.097 M143.147 56.097 C 142.912 56.179,142.196 56.361,141.554 56.502 C 139.991 56.847,137.395 59.183,136.683 60.886 C 136.295 61.815,136.107 64.158,136.107 68.053 C 136.107 71.949,136.295 74.292,136.683 75.220 C 137.561 77.322,139.980 79.205,142.494 79.744 C 145.428 80.373,214.863 80.381,217.591 79.752 C 220.104 79.173,222.198 77.528,223.184 75.356 C 223.827 73.939,223.983 72.548,223.991 68.146 C 224.001 62.333,223.568 60.483,221.740 58.525 C 219.354 55.970,221.702 56.114,180.907 56.028 C 160.373 55.984,143.381 56.016,143.147 56.097 M36.903 96.796 C 34.477 97.898,32.545 100.252,32.205 102.522 C 32.051 103.547,31.990 106.690,32.069 109.506 C 32.202 114.222,32.304 114.763,33.359 116.355 C 34.047 117.394,35.249 118.444,36.373 118.988 C 38.236 119.890,38.387 119.893,75.975 119.884 C 111.783 119.875,113.795 119.834,115.447 119.084 C 119.162 117.397,120.018 115.045,119.822 107.060 C 119.688 101.608,119.613 101.165,118.535 99.538 C 117.846 98.499,116.644 97.449,115.520 96.905 C 113.658 96.004,113.502 96.000,76.132 96.009 C 40.764 96.018,38.515 96.063,36.903 96.796 M140.445 96.916 C 139.365 97.450,138.124 98.545,137.458 99.549 C 136.375 101.184,136.313 101.569,136.183 107.552 C 136.062 113.122,136.142 114.023,136.885 115.478 C 137.912 117.492,138.868 118.384,140.909 119.237 C 142.282 119.811,147.212 119.893,180.118 119.893 C 217.602 119.893,217.765 119.890,219.627 118.988 C 220.751 118.444,221.953 117.394,222.641 116.355 C 223.696 114.763,223.798 114.222,223.931 109.506 C 224.122 102.718,223.832 101.018,222.161 99.115 C 219.274 95.827,221.907 96.020,179.840 96.010 C 142.302 96.001,142.293 96.001,140.445 96.916 M36.338 137.022 C 35.258 137.557,34.017 138.651,33.352 139.655 C 32.305 141.235,32.202 141.786,32.069 146.494 C 31.867 153.676,32.132 155.006,34.214 157.265 C 35.245 158.383,36.560 159.306,37.488 159.564 C 38.479 159.839,52.537 159.996,76.345 159.998 C 113.491 160.000,113.659 159.996,115.520 159.095 C 116.644 158.551,117.846 157.501,118.535 156.462 C 119.613 154.835,119.688 154.392,119.822 148.940 C 120.018 140.955,119.162 138.603,115.447 136.916 C 113.795 136.166,111.782 136.125,75.947 136.116 C 38.191 136.107,38.186 136.107,36.338 137.022 M140.813 136.782 C 138.849 137.634,137.895 138.542,136.885 140.522 C 136.142 141.977,136.062 142.878,136.183 148.448 C 136.314 154.441,136.373 154.813,137.465 156.461 C 138.154 157.501,139.356 158.551,140.480 159.095 C 142.341 159.996,142.509 160.000,179.655 159.998 C 203.463 159.996,217.521 159.839,218.512 159.564 C 219.440 159.306,220.755 158.383,221.786 157.265 C 223.868 155.006,224.133 153.676,223.931 146.494 C 223.798 141.778,223.696 141.237,222.641 139.645 C 221.953 138.606,220.751 137.556,219.627 137.012 C 217.764 136.110,217.620 136.107,180.025 136.123 C 147.394 136.138,142.093 136.227,140.813 136.782 M36.480 176.924 C 32.766 178.886,32.019 180.733,32.019 187.947 C 32.019 193.964,32.535 195.933,34.616 197.846 C 37.160 200.185,35.728 200.107,76.040 200.097 C 117.774 200.087,115.168 200.280,118.063 196.983 C 119.795 195.010,119.993 193.857,119.821 186.775 C 119.681 181.041,119.667 180.966,118.370 179.345 C 115.684 175.988,118.749 176.213,75.947 176.231 C 41.935 176.246,37.620 176.321,36.480 176.924 M140.587 176.818 C 138.997 177.528,137.160 179.454,136.560 181.041 C 136.311 181.702,136.107 184.809,136.107 187.947 C 136.107 191.084,136.311 194.192,136.560 194.852 C 137.206 196.560,139.027 198.378,141.013 199.298 C 142.633 200.048,144.614 200.088,180.053 200.088 C 215.449 200.088,217.475 200.047,219.093 199.300 C 222.996 197.499,224.000 195.175,224.000 187.947 C 224.000 180.854,223.194 178.833,219.644 177.021 C 218.125 176.246,216.523 176.214,179.964 176.230 C 149.084 176.244,141.624 176.355,140.587 176.818 " stroke="none" fill-rule="evenodd"></path></svg>