<svg fill="currentColor" viewBox="0 0 256 256" xmlns="http://www.w3.org/2000/svg"><path d="M39.040 56.100 C 38.805 56.180,38.100 56.358,37.473 56.496 C 35.816 56.860,33.703 58.799,32.802 60.782 C 31.658 63.300,31.668 72.827,32.816 75.356 C 33.802 77.528,35.896 79.173,38.409 79.752 C 41.065 80.364,214.935 80.364,217.591 79.752 C 220.104 79.173,222.198 77.528,223.184 75.356 C 223.827 73.939,223.983 72.548,223.991 68.146 C 224.003 61.080,223.098 58.787,219.520 56.813 C 218.342 56.163,211.142 56.101,128.853 56.031 C 79.691 55.990,39.275 56.021,39.040 56.100 M84.644 96.816 C 81.177 98.391,79.816 101.480,79.797 107.819 C 79.778 114.340,81.305 117.865,84.780 119.317 C 85.918 119.793,97.660 119.893,151.958 119.893 L 217.757 119.893 219.627 118.988 C 220.751 118.444,221.953 117.394,222.641 116.355 C 223.696 114.763,223.798 114.222,223.931 109.506 C 224.010 106.690,223.949 103.547,223.795 102.522 C 223.455 100.252,221.523 97.898,219.097 96.796 C 217.466 96.055,214.331 96.019,151.893 96.019 C 88.839 96.019,86.335 96.048,84.644 96.816 M36.338 137.022 C 35.258 137.557,34.017 138.651,33.352 139.655 C 32.305 141.235,32.202 141.786,32.069 146.494 C 31.867 153.676,32.132 155.006,34.214 157.265 C 35.245 158.383,36.560 159.306,37.488 159.564 C 39.633 160.160,216.367 160.160,218.512 159.564 C 219.440 159.306,220.755 158.383,221.786 157.265 C 223.868 155.006,224.133 153.676,223.931 146.494 C 223.798 141.778,223.696 141.237,222.641 139.645 C 221.953 138.606,220.751 137.556,219.627 137.012 L 217.757 136.107 127.972 136.107 L 38.187 136.107 36.338 137.022 M84.248 177.008 C 82.579 178.026,80.728 180.230,80.320 181.686 C 80.144 182.313,80.000 185.338,80.000 188.408 C 80.000 193.866,80.028 194.034,81.280 196.049 C 82.076 197.330,83.205 198.447,84.267 199.001 C 85.973 199.893,85.980 199.893,151.253 200.019 C 196.764 200.107,217.012 200.007,218.114 199.688 C 220.243 199.072,222.248 197.309,223.198 195.218 C 223.825 193.837,223.983 192.406,223.991 188.040 C 224.003 180.847,223.212 178.843,219.644 177.021 C 218.110 176.239,215.980 176.213,151.804 176.215 C 88.020 176.216,85.498 176.246,84.248 177.008 " stroke="none" fill-rule="evenodd"></path></svg>