<svg fill="currentColor" viewBox="0 0 256 256" xmlns="http://www.w3.org/2000/svg"><path d="M44.265 32.461 C 39.776 33.526,35.661 36.951,33.540 41.387 L 32.213 44.160 32.213 128.000 L 32.213 211.840 33.407 214.400 C 34.974 217.760,38.261 221.060,41.555 222.583 L 44.160 223.787 128.000 223.787 L 211.840 223.787 214.445 222.583 C 217.739 221.060,221.026 217.760,222.593 214.400 L 223.787 211.840 223.787 128.000 L 223.787 44.160 222.583 41.555 C 221.060 38.261,217.760 34.974,214.400 33.407 L 211.840 32.213 128.853 32.147 C 81.512 32.109,45.179 32.244,44.265 32.461 M66.852 72.560 C 68.342 73.123,70.248 74.895,71.185 76.587 C 71.806 77.708,71.909 79.993,72.022 95.044 L 72.151 112.222 92.076 112.111 L 112.000 112.000 112.213 94.507 C 112.436 76.221,112.439 76.196,114.414 74.397 C 118.485 70.688,124.793 71.725,127.095 76.480 C 127.998 78.346,128.000 78.421,127.991 119.921 C 127.982 159.331,127.941 161.583,127.198 163.218 C 124.561 169.024,116.812 169.645,113.436 164.321 L 112.213 162.393 112.213 145.196 L 112.213 128.000 92.182 128.000 L 72.151 128.000 72.022 145.244 L 71.893 162.488 70.607 164.317 C 68.831 166.843,66.909 167.879,64.000 167.879 C 61.090 167.879,59.168 166.843,57.393 164.316 L 56.107 162.487 56.107 120.603 C 56.107 97.567,56.253 78.196,56.433 77.554 C 56.871 75.990,59.203 73.394,60.792 72.701 C 62.366 72.015,65.233 71.949,66.852 72.560 M178.446 88.718 C 188.676 91.334,196.373 98.918,199.045 109.013 C 199.936 112.384,199.927 119.456,199.026 122.933 C 198.649 124.389,197.743 126.805,197.013 128.302 C 196.284 129.798,189.471 139.319,181.874 149.458 L 168.062 167.893 181.418 168.107 C 190.439 168.251,195.050 168.481,195.627 168.817 C 196.753 169.472,198.587 171.472,199.262 172.779 C 200.007 174.222,199.939 177.891,199.139 179.423 C 198.276 181.077,196.363 182.869,194.852 183.440 C 193.195 184.066,150.698 184.066,149.041 183.440 C 147.407 182.822,145.511 180.981,144.801 179.320 C 144.120 177.730,144.031 174.615,144.622 173.062 C 144.846 172.471,153.414 160.812,163.663 147.152 C 173.911 133.492,182.688 121.435,183.167 120.358 C 184.979 116.287,183.976 110.927,180.778 107.589 C 177.236 103.891,171.413 102.832,166.994 105.083 C 164.094 106.560,161.105 109.936,160.198 112.759 C 158.664 117.534,156.003 119.893,152.151 119.893 C 147.479 119.893,144.213 116.683,144.213 112.091 C 144.213 104.677,151.134 94.872,159.147 90.935 C 165.356 87.883,172.138 87.104,178.446 88.718 " stroke="none" fill-rule="evenodd"></path></svg>