<svg fill="currentColor" viewBox="0 0 256 256" xmlns="http://www.w3.org/2000/svg"><path d="M44.265 32.461 C 39.776 33.526,35.661 36.951,33.540 41.387 L 32.213 44.160 32.213 128.000 L 32.213 211.840 33.407 214.400 C 34.974 217.760,38.261 221.060,41.555 222.583 L 44.160 223.787 128.000 223.787 L 211.840 223.787 214.445 222.583 C 217.739 221.060,221.026 217.760,222.593 214.400 L 223.787 211.840 223.787 128.000 L 223.787 44.160 222.583 41.555 C 221.060 38.261,217.760 34.974,214.400 33.407 L 211.840 32.213 128.853 32.147 C 81.512 32.109,45.179 32.244,44.265 32.461 M66.852 72.560 C 68.342 73.123,70.248 74.895,71.185 76.587 C 71.806 77.708,71.909 79.993,72.022 95.044 L 72.151 112.222 92.076 112.111 L 112.000 112.000 112.213 94.507 C 112.436 76.221,112.439 76.196,114.414 74.397 C 118.485 70.688,124.793 71.725,127.095 76.480 C 127.998 78.346,128.000 78.421,127.991 119.921 C 127.982 159.331,127.941 161.583,127.198 163.218 C 124.561 169.024,116.812 169.645,113.436 164.321 L 112.213 162.393 112.213 145.196 L 112.213 128.000 92.182 128.000 L 72.151 128.000 72.022 145.244 L 71.893 162.488 70.607 164.317 C 68.831 166.843,66.909 167.879,64.000 167.879 C 61.090 167.879,59.168 166.843,57.393 164.316 L 56.107 162.487 56.107 120.603 C 56.107 97.567,56.253 78.196,56.433 77.554 C 56.871 75.990,59.203 73.394,60.792 72.701 C 62.366 72.015,65.233 71.949,66.852 72.560 M195.975 89.119 C 198.560 90.726,199.822 92.996,199.822 96.036 C 199.822 98.169,199.617 98.880,198.572 100.367 C 196.092 103.896,196.188 103.876,180.373 104.022 C 172.688 104.092,166.400 104.225,166.400 104.317 C 166.400 104.487,163.614 117.544,163.177 119.423 C 162.941 120.436,162.965 120.444,165.465 120.183 C 166.854 120.037,169.630 120.105,171.634 120.333 C 193.658 122.835,206.455 146.593,196.465 166.430 C 189.846 179.573,174.628 186.561,160.401 182.989 C 153.783 181.328,146.812 177.075,145.052 173.624 C 142.590 168.799,145.774 162.736,151.035 162.230 C 153.864 161.958,154.733 162.235,157.934 164.427 C 162.658 167.662,166.622 168.568,171.298 167.484 C 176.345 166.314,180.340 163.071,182.556 158.345 C 183.527 156.272,183.678 155.396,183.668 151.893 C 183.658 148.417,183.495 147.492,182.521 145.392 C 181.070 142.265,177.735 138.930,174.607 137.478 C 169.727 135.213,163.168 135.794,158.877 138.871 C 155.468 141.317,154.347 141.807,152.107 141.832 C 147.667 141.882,144.213 138.564,144.213 134.249 C 144.213 131.100,152.215 93.533,153.244 91.848 C 154.260 90.185,156.204 88.738,158.022 88.289 C 158.758 88.107,167.232 87.992,176.853 88.033 L 194.347 88.107 195.975 89.119 " stroke="none" fill-rule="evenodd"></path></svg>