<svg fill="currentColor" viewBox="0 0 256 256" xmlns="http://www.w3.org/2000/svg"><path d="M39.040 56.100 C 38.805 56.180,38.100 56.358,37.473 56.496 C 35.816 56.860,33.703 58.799,32.802 60.782 C 31.658 63.300,31.668 72.827,32.816 75.356 C 33.802 77.528,35.896 79.173,38.409 79.752 C 41.065 80.364,214.935 80.364,217.591 79.752 C 220.104 79.173,222.198 77.528,223.184 75.356 C 223.827 73.939,223.983 72.548,223.991 68.146 C 224.003 61.080,223.098 58.787,219.520 56.813 C 218.342 56.163,211.142 56.101,128.853 56.031 C 79.691 55.990,39.275 56.021,39.040 56.100 M36.903 96.796 C 34.477 97.898,32.545 100.252,32.205 102.522 C 32.051 103.547,31.990 106.690,32.069 109.506 C 32.202 114.222,32.304 114.763,33.359 116.355 C 34.049 117.397,35.249 118.444,36.381 118.992 L 38.259 119.901 104.637 119.791 L 171.014 119.680 172.654 118.373 C 175.162 116.372,175.902 114.468,176.126 109.439 C 176.451 102.133,175.081 98.508,171.356 96.816 C 169.665 96.048,167.161 96.019,104.107 96.019 C 41.669 96.019,38.534 96.055,36.903 96.796 M36.338 137.022 C 35.258 137.557,34.017 138.651,33.352 139.655 C 32.305 141.235,32.202 141.786,32.069 146.494 C 31.867 153.676,32.132 155.006,34.214 157.265 C 35.245 158.383,36.560 159.306,37.488 159.564 C 39.633 160.160,216.367 160.160,218.512 159.564 C 219.440 159.306,220.755 158.383,221.786 157.265 C 223.868 155.006,224.133 153.676,223.931 146.494 C 223.798 141.778,223.696 141.237,222.641 139.645 C 221.953 138.606,220.751 137.556,219.627 137.012 L 217.757 136.107 127.972 136.107 L 38.187 136.107 36.338 137.022 M36.480 176.924 C 32.766 178.886,32.019 180.733,32.019 187.947 C 32.019 192.417,32.171 193.828,32.802 195.218 C 33.752 197.309,35.757 199.072,37.886 199.688 C 38.988 200.007,59.236 200.107,104.747 200.019 C 170.020 199.893,170.027 199.893,171.733 199.001 C 172.795 198.446,173.923 197.331,174.720 196.048 C 175.984 194.013,176.000 193.912,176.000 187.980 C 176.000 183.181,175.858 181.716,175.291 180.693 C 174.355 179.002,172.448 177.230,170.959 176.667 C 170.128 176.353,149.392 176.219,103.759 176.230 C 44.362 176.246,37.632 176.315,36.480 176.924 " stroke="none" fill-rule="evenodd"></path></svg>