<svg fill="currentColor" viewBox="0 0 256 256" xmlns="http://www.w3.org/2000/svg"><path d="M121.387 8.719 C 109.467 11.509,100.550 19.945,97.004 31.787 C 96.287 34.182,96.228 37.948,96.088 90.240 L 95.938 146.133 93.161 148.267 C 82.752 156.265,75.111 169.293,72.698 183.158 C 71.677 189.021,72.078 199.255,73.558 205.140 C 76.294 216.016,81.506 224.982,89.521 232.596 C 100.114 242.660,113.278 247.893,128.000 247.893 C 142.722 247.893,155.886 242.660,166.479 232.596 C 174.512 224.964,179.548 216.275,182.465 205.013 C 183.594 200.651,183.680 199.748,183.677 192.213 C 183.673 183.538,183.435 181.853,181.237 174.933 C 177.944 164.568,171.050 154.576,162.839 148.267 L 160.062 146.133 159.912 90.240 C 159.772 37.948,159.713 34.182,158.996 31.787 C 155.756 20.965,147.671 12.663,137.173 9.377 C 133.331 8.175,125.168 7.834,121.387 8.719 M130.784 24.358 C 135.916 25.307,140.037 28.424,142.328 33.090 L 143.573 35.627 143.691 57.920 L 143.809 80.213 128.000 80.213 L 112.191 80.213 112.309 57.920 L 112.427 35.627 113.672 33.090 C 115.888 28.578,119.699 25.573,124.587 24.487 C 127.621 23.812,127.809 23.808,130.784 24.358 " stroke="none" fill-rule="evenodd"></path></svg>