<svg fill="currentColor" viewBox="0 0 256 256" xmlns="http://www.w3.org/2000/svg"><path d="M114.133 8.567 C 102.585 10.518,92.826 19.511,89.084 31.650 L 88.121 34.773 87.900 90.506 L 87.680 146.239 85.333 148.068 C 79.134 152.902,72.639 161.077,69.359 168.177 C 65.991 175.466,64.429 182.070,64.127 190.293 C 63.331 211.976,75.485 232.325,95.078 242.112 C 110.429 249.780,128.803 249.869,144.427 242.352 C 155.111 237.211,164.770 227.672,170.139 216.960 C 176.539 204.192,177.678 188.683,173.234 174.810 C 171.706 170.042,168.504 163.610,165.693 159.667 C 163.047 155.956,157.782 150.489,154.509 148.053 L 151.928 146.133 151.910 91.178 C 151.891 29.504,152.081 33.344,148.703 26.240 C 145.457 19.415,140.717 14.676,133.760 11.301 C 127.821 8.420,120.796 7.441,114.133 8.567 M126.559 25.586 C 130.261 27.284,132.421 29.410,134.296 33.202 L 135.893 36.434 135.893 58.217 L 135.893 80.000 119.982 80.112 L 104.071 80.224 104.195 57.925 L 104.320 35.627 105.662 33.067 C 109.812 25.147,118.680 21.973,126.559 25.586 M212.425 40.938 C 210.192 42.153,208.783 44.036,208.251 46.515 C 207.991 47.729,207.787 53.082,207.787 58.688 C 207.787 64.191,207.625 68.693,207.428 68.693 C 207.231 68.693,202.643 67.253,197.232 65.493 C 186.292 61.935,184.389 61.664,181.559 63.267 C 176.922 65.893,176.257 72.060,180.199 75.881 C 181.381 77.027,183.369 77.827,192.328 80.759 L 203.043 84.267 196.680 92.993 C 193.180 97.792,190.120 102.285,189.878 102.976 C 187.208 110.636,196.344 117.109,202.352 111.814 C 203.112 111.144,206.421 106.841,209.707 102.251 C 212.992 97.661,215.789 93.897,215.921 93.886 C 216.054 93.875,219.075 97.884,222.635 102.793 C 226.195 107.703,229.704 112.144,230.433 112.663 C 231.913 113.718,234.685 114.172,236.996 113.738 C 238.852 113.390,241.412 111.232,242.197 109.354 C 242.980 107.479,242.923 104.353,242.074 102.712 C 241.689 101.968,238.605 97.543,235.219 92.878 C 231.833 88.212,229.137 84.321,229.228 84.230 C 229.319 84.139,234.121 82.523,239.899 80.639 C 246.758 78.402,250.839 76.847,251.657 76.158 C 255.103 73.260,255.218 67.456,251.893 64.347 C 248.775 61.433,246.871 61.574,234.329 65.652 L 224.000 69.010 224.000 57.680 C 224.000 47.006,223.948 46.241,223.095 44.480 C 221.275 40.720,216.027 38.979,212.425 40.938 " stroke="none" fill-rule="evenodd"></path></svg>