<svg fill="currentColor" viewBox="0 0 256 256" xmlns="http://www.w3.org/2000/svg"><path d="M116.693 16.710 C 114.174 18.100,112.891 20.443,94.249 57.707 L 75.092 96.000 52.783 96.000 C 34.009 96.000,30.070 96.105,27.934 96.661 C 21.828 98.252,17.429 103.060,16.252 109.429 C 15.935 111.141,15.789 126.046,15.794 156.132 C 15.802 204.061,15.798 203.977,18.128 207.952 C 19.638 210.530,22.610 213.178,25.525 214.545 L 27.947 215.680 117.760 215.796 L 207.573 215.913 211.007 214.850 C 215.227 213.543,218.812 211.272,221.761 208.039 C 224.181 205.386,226.608 200.751,227.367 197.333 C 228.364 192.846,239.867 99.114,239.855 95.573 C 239.819 84.770,231.656 74.760,221.099 72.575 C 219.586 72.262,209.118 72.107,189.460 72.107 L 160.082 72.107 159.899 60.693 C 159.725 49.779,159.666 49.112,158.558 45.440 C 157.116 40.659,155.486 37.114,153.127 33.631 C 145.879 22.929,133.434 16.180,121.029 16.226 C 119.114 16.233,117.163 16.451,116.693 16.710 M72.107 156.160 L 72.107 200.107 52.053 200.107 L 32.000 200.107 32.000 156.160 L 32.000 112.213 52.053 112.213 L 72.107 112.213 72.107 156.160 " stroke="none" fill-rule="evenodd"></path></svg>