<svg fill="currentColor" viewBox="0 0 256 256" xmlns="http://www.w3.org/2000/svg"><path d="M40.960 52.726 C 39.069 53.536,1.985 90.448,0.825 92.676 C -0.226 94.693,-0.227 97.302,0.821 99.324 C 1.273 100.194,10.345 109.570,20.981 120.157 C 41.260 140.344,40.789 139.947,44.440 139.947 C 47.349 139.947,48.682 138.793,67.525 119.985 L 86.196 101.346 103.471 118.618 L 120.747 135.889 103.055 153.598 C 90.972 165.693,85.156 171.810,84.708 172.893 C 83.838 175.001,83.895 177.328,84.869 179.413 C 85.405 180.560,91.945 187.365,104.806 200.156 C 122.738 217.989,124.075 219.222,125.973 219.682 C 127.500 220.051,128.500 220.051,130.027 219.682 C 131.925 219.222,133.262 217.989,151.194 200.156 C 164.055 187.365,170.595 180.560,171.131 179.413 C 172.105 177.328,172.162 175.001,171.292 172.893 C 170.844 171.810,165.028 165.693,152.945 153.598 L 135.253 135.889 152.529 118.618 L 169.804 101.346 188.475 119.985 C 207.318 138.793,208.651 139.947,211.560 139.947 C 215.210 139.947,214.741 140.342,235.034 120.157 C 248.044 107.217,254.648 100.347,255.184 99.200 C 256.197 97.031,256.196 94.965,255.181 92.800 C 254.058 90.406,217.132 53.611,214.947 52.708 C 212.887 51.858,210.649 51.877,208.704 52.763 C 207.742 53.201,200.013 60.575,188.475 72.063 L 169.804 90.654 151.142 72.035 C 140.878 61.794,131.866 53.109,131.115 52.734 C 129.368 51.863,126.632 51.863,124.885 52.734 C 124.134 53.109,115.122 61.794,104.858 72.035 L 86.196 90.654 67.525 72.063 C 55.987 60.575,48.258 53.201,47.296 52.763 C 45.383 51.892,42.942 51.878,40.960 52.726 " stroke="none" fill-rule="evenodd"></path></svg>