<svg fill="currentColor" viewBox="0 0 256 256" xmlns="http://www.w3.org/2000/svg"><path d="M73.600 56.363 C 43.972 58.794,18.352 80.256,10.496 109.227 C 7.276 121.103,7.276 134.897,10.496 146.773 C 16.787 169.970,34.441 188.673,57.262 196.319 C 61.825 197.848,67.524 199.052,73.050 199.655 C 78.727 200.274,177.273 200.274,182.950 199.655 C 195.297 198.308,205.790 194.563,215.666 187.981 C 231.786 177.235,242.457 161.406,246.705 141.937 C 247.526 138.175,247.651 136.326,247.651 128.000 C 247.651 119.674,247.526 117.825,246.705 114.063 C 242.480 94.703,231.927 78.973,215.950 68.220 C 205.632 61.277,194.349 57.376,181.581 56.339 C 175.054 55.809,80.094 55.830,73.600 56.363 M180.693 88.364 C 196.815 90.332,209.590 101.225,214.458 117.154 C 215.523 120.641,215.621 121.550,215.621 128.000 C 215.621 134.450,215.523 135.359,214.458 138.846 C 209.521 155.003,196.651 165.816,180.037 167.765 C 176.880 168.135,174.883 168.132,171.795 167.753 C 155.228 165.717,142.461 154.942,137.542 138.846 C 136.477 135.359,136.379 134.450,136.379 128.000 C 136.379 121.550,136.477 120.641,137.542 117.154 C 141.659 103.681,151.277 93.857,164.267 89.857 C 170.118 88.055,174.729 87.636,180.693 88.364 " stroke="none" fill-rule="evenodd"></path></svg>