<svg fill="currentColor" viewBox="0 0 256 256" xmlns="http://www.w3.org/2000/svg"><path d="M73.600 56.363 C 43.972 58.794,18.352 80.256,10.496 109.227 C 7.276 121.103,7.276 134.897,10.496 146.773 C 16.787 169.970,34.441 188.673,57.262 196.319 C 61.825 197.848,67.524 199.052,73.050 199.655 C 78.727 200.274,177.273 200.274,182.950 199.655 C 195.297 198.308,205.790 194.563,215.666 187.981 C 231.786 177.235,242.457 161.406,246.705 141.937 C 247.526 138.175,247.651 136.326,247.651 128.000 C 247.651 119.674,247.526 117.825,246.705 114.063 C 242.480 94.703,231.927 78.973,215.950 68.220 C 205.632 61.277,194.349 57.376,181.581 56.339 C 175.054 55.809,80.094 55.830,73.600 56.363 M84.693 88.364 C 100.815 90.332,113.590 101.225,118.458 117.154 C 119.523 120.641,119.621 121.550,119.621 128.000 C 119.621 134.450,119.523 135.359,118.458 138.846 C 113.521 155.003,100.651 165.816,84.037 167.765 C 80.880 168.135,78.883 168.132,75.795 167.753 C 59.228 165.717,46.461 154.942,41.542 138.846 C 40.477 135.359,40.379 134.450,40.379 128.000 C 40.379 121.550,40.477 120.641,41.542 117.154 C 45.659 103.681,55.277 93.857,68.267 89.857 C 74.118 88.055,78.729 87.636,84.693 88.364 " stroke="none" fill-rule="evenodd"></path></svg>