<svg fill="currentColor" viewBox="0 0 256 256" xmlns="http://www.w3.org/2000/svg"><path d="M98.678 32.645 C 90.593 34.402,83.331 41.274,80.873 49.493 C 80.449 50.911,80.070 54.247,79.914 57.920 L 79.656 64.000 55.064 64.000 C 34.230 64.000,30.085 64.101,27.934 64.661 C 21.828 66.252,17.429 71.060,16.252 77.429 C 15.977 78.916,15.787 85.671,15.787 93.959 C 15.787 105.298,15.906 108.259,16.411 109.469 C 17.563 112.225,17.450 112.213,42.013 112.213 L 64.000 112.213 64.000 103.344 C 64.000 94.992,64.056 94.363,64.960 92.576 C 66.354 89.819,68.960 88.134,71.802 88.150 C 74.663 88.166,77.250 89.490,78.570 91.613 C 79.523 93.146,79.584 93.694,79.787 102.613 L 80.000 112.000 128.000 112.000 L 176.000 112.000 176.213 102.613 C 176.449 92.227,176.608 91.582,179.391 89.676 C 183.881 86.598,189.265 88.147,191.340 93.112 C 191.863 94.365,192.000 96.511,192.000 103.453 L 192.000 112.213 213.987 112.213 C 238.550 112.213,238.437 112.225,239.589 109.469 C 240.094 108.259,240.213 105.298,240.213 93.959 C 240.213 85.671,240.023 78.916,239.748 77.429 C 238.571 71.060,234.172 66.252,228.066 64.661 C 225.915 64.101,221.770 64.000,200.936 64.000 L 176.344 64.000 176.086 57.920 C 175.930 54.247,175.551 50.911,175.127 49.493 C 172.639 41.171,165.387 34.377,157.123 32.626 C 153.037 31.760,102.674 31.776,98.678 32.645 M155.644 49.021 C 159.097 50.784,160.000 52.914,160.000 59.293 L 160.000 64.000 128.000 64.000 L 96.000 64.000 96.009 59.200 C 96.022 52.806,96.884 50.824,100.480 48.924 C 101.607 48.328,104.886 48.245,127.910 48.230 C 152.748 48.214,154.140 48.254,155.644 49.021 M17.393 129.245 L 16.000 130.490 16.000 162.845 C 16.000 195.086,16.003 195.208,16.928 197.463 C 18.719 201.833,22.167 205.281,26.537 207.072 L 28.800 208.000 128.000 208.000 L 227.200 208.000 229.463 207.072 C 233.833 205.281,237.281 201.833,239.072 197.463 C 239.997 195.208,240.000 195.086,240.000 162.845 L 240.000 130.490 238.607 129.245 L 237.213 128.000 214.607 128.000 L 192.000 128.000 192.000 136.663 C 192.000 145.036,191.965 145.396,190.941 147.436 C 189.222 150.860,185.904 152.445,181.991 151.712 C 180.134 151.363,177.575 149.206,176.790 147.327 C 176.368 146.317,176.213 143.545,176.213 136.974 L 176.213 128.000 128.000 128.000 L 79.787 128.000 79.787 136.981 C 79.787 146.358,79.631 147.295,77.709 149.485 C 74.310 153.358,67.203 152.267,64.905 147.520 C 64.072 145.800,64.000 144.947,64.000 136.825 L 64.000 128.000 41.393 128.000 L 18.787 128.000 17.393 129.245 " stroke="none" fill-rule="evenodd"></path></svg>