<svg fill="currentColor" viewBox="0 0 256 256" xmlns="http://www.w3.org/2000/svg"><path d="M119.183 16.845 C 104.782 19.458,91.392 29.596,85.028 42.705 C 82.197 48.534,80.854 53.557,79.992 61.531 L 79.729 63.969 54.051 64.091 L 28.373 64.213 25.514 65.568 C 19.862 68.246,16.580 73.003,16.295 78.933 C 16.115 82.682,29.845 199.878,30.978 204.261 C 32.338 209.526,37.265 214.370,42.375 215.466 C 43.968 215.808,68.292 215.904,129.280 215.810 L 213.973 215.680 216.421 214.533 C 220.698 212.528,224.190 208.330,225.267 203.897 C 225.516 202.868,228.987 174.482,232.978 140.816 C 239.566 85.253,240.191 79.387,239.748 77.242 C 238.443 70.922,234.085 66.229,228.066 64.661 C 225.915 64.101,221.766 64.000,200.897 64.000 L 176.266 64.000 176.023 61.973 C 174.893 52.550,173.884 48.702,170.972 42.705 C 164.562 29.503,151.108 19.383,136.584 16.840 C 132.248 16.080,123.382 16.083,119.183 16.845 M136.067 33.033 C 142.252 34.728,148.832 39.037,152.849 44.022 C 156.752 48.867,160.000 57.380,160.000 62.767 L 160.000 64.000 127.941 64.000 L 95.882 64.000 96.176 61.120 C 96.612 56.849,97.192 54.812,99.181 50.560 C 103.630 41.050,112.393 34.292,122.699 32.423 C 125.548 31.906,133.235 32.257,136.067 33.033 " stroke="none" fill-rule="evenodd"></path></svg>