<svg fill="currentColor" viewBox="0 0 256 256" xmlns="http://www.w3.org/2000/svg"><path d="M119.183 16.845 C 104.782 19.458,91.392 29.596,85.028 42.705 C 82.197 48.534,80.854 53.557,79.992 61.531 L 79.729 63.969 54.051 64.091 L 28.373 64.213 25.514 65.568 C 19.862 68.246,16.580 73.003,16.295 78.933 C 16.115 82.682,29.845 199.878,30.978 204.261 C 32.338 209.526,37.265 214.370,42.375 215.466 C 43.968 215.808,68.292 215.904,129.280 215.810 L 213.973 215.680 216.421 214.533 C 220.698 212.528,224.190 208.330,225.267 203.897 C 225.516 202.868,228.987 174.482,232.978 140.816 C 239.566 85.253,240.191 79.387,239.748 77.242 C 238.443 70.922,234.085 66.229,228.066 64.661 C 225.915 64.101,221.766 64.000,200.897 64.000 L 176.266 64.000 176.023 61.973 C 174.893 52.550,173.884 48.702,170.972 42.705 C 164.562 29.503,151.108 19.383,136.584 16.840 C 132.248 16.080,123.382 16.083,119.183 16.845 M136.067 33.033 C 142.252 34.728,148.832 39.037,152.849 44.022 C 156.752 48.867,160.000 57.380,160.000 62.767 L 160.000 64.000 127.941 64.000 L 95.882 64.000 96.176 61.120 C 96.612 56.849,97.192 54.812,99.181 50.560 C 103.630 41.050,112.393 34.292,122.699 32.423 C 125.548 31.906,133.235 32.257,136.067 33.033 M91.644 81.021 C 95.604 83.043,96.002 84.422,95.991 96.093 C 95.980 106.781,95.692 108.116,92.945 110.212 C 91.559 111.269,88.307 112.302,87.307 112.002 C 87.043 111.923,86.302 111.743,85.661 111.603 C 84.236 111.291,81.670 109.099,80.832 107.478 C 79.943 105.760,79.929 86.262,80.815 84.565 C 81.469 83.314,83.334 81.460,84.693 80.710 C 86.073 79.949,89.877 80.119,91.644 81.021 M171.214 80.801 C 172.874 81.511,174.715 83.407,175.333 85.041 C 175.605 85.762,175.787 90.143,175.787 96.000 C 175.787 101.857,175.605 106.238,175.333 106.959 C 174.826 108.300,173.030 110.340,171.743 111.037 C 167.889 113.124,162.631 111.353,160.816 107.356 C 160.113 105.808,160.019 104.465,160.019 96.000 C 160.019 84.275,160.367 83.097,164.480 80.924 C 166.072 80.083,169.394 80.022,171.214 80.801 " stroke="none" fill-rule="evenodd"></path></svg>