<svg fill="currentColor" viewBox="0 0 256 256" xmlns="http://www.w3.org/2000/svg"><path d="M68.130 24.337 C 55.885 25.790,45.622 34.249,41.491 46.293 L 40.320 49.707 40.200 118.613 C 40.065 196.039,39.850 190.529,43.294 197.760 C 46.557 204.611,51.395 209.448,58.240 212.703 C 63.470 215.190,66.947 215.893,74.004 215.893 C 77.185 215.893,79.787 215.988,79.787 216.105 C 79.787 216.221,76.341 220.918,72.129 226.542 C 66.796 233.664,64.384 237.233,64.184 238.301 C 63.162 243.746,67.270 248.259,72.827 247.798 C 74.175 247.686,75.607 247.260,76.284 246.770 C 76.920 246.309,82.528 239.174,88.747 230.913 L 100.053 215.894 128.000 215.894 L 155.947 215.894 167.253 230.913 C 173.472 239.174,179.080 246.309,179.716 246.770 C 180.393 247.260,181.825 247.686,183.173 247.798 C 188.730 248.259,192.838 243.746,191.816 238.301 C 191.616 237.233,189.204 233.664,183.871 226.542 C 179.659 220.918,176.213 216.221,176.213 216.105 C 176.213 215.988,178.815 215.893,181.996 215.893 C 189.053 215.893,192.530 215.190,197.760 212.703 C 204.605 209.448,209.443 204.611,212.706 197.760 C 216.150 190.529,215.935 196.039,215.800 118.613 L 215.680 49.707 214.509 46.293 C 210.916 35.817,202.741 28.063,192.122 25.060 L 188.800 24.121 129.920 24.056 C 97.536 24.020,69.730 24.147,68.130 24.337 M119.893 100.053 L 119.893 119.893 87.893 119.893 L 55.893 119.893 55.893 100.053 L 55.893 80.213 87.893 80.213 L 119.893 80.213 119.893 100.053 M200.107 100.053 L 200.107 119.893 168.107 119.893 L 136.107 119.893 136.107 100.053 L 136.107 80.213 168.107 80.213 L 200.107 80.213 200.107 100.053 M89.022 161.203 C 91.647 162.542,93.139 163.964,94.451 166.374 C 96.850 170.780,96.268 176.041,92.970 179.788 C 90.641 182.433,88.379 183.544,84.799 183.801 C 81.200 184.060,78.677 183.181,76.042 180.753 C 73.097 178.037,72.331 176.224,72.325 171.947 C 72.321 168.756,72.461 168.081,73.490 166.329 C 75.002 163.757,77.760 161.414,80.200 160.630 C 82.762 159.806,86.798 160.068,89.022 161.203 M175.621 160.630 C 178.207 161.398,180.940 163.660,182.510 166.329 C 183.539 168.081,183.679 168.756,183.675 171.947 C 183.669 176.224,182.903 178.037,179.958 180.753 C 177.323 183.181,174.800 184.060,171.201 183.801 C 167.623 183.544,165.359 182.434,163.037 179.796 C 157.367 173.354,160.104 163.577,168.406 160.615 C 170.546 159.852,173.018 159.857,175.621 160.630 " stroke="none" fill-rule="evenodd"></path></svg>