<svg fill="currentColor" viewBox="0 0 256 256" xmlns="http://www.w3.org/2000/svg"><path d="M44.265 32.461 C 39.776 33.526,35.661 36.951,33.540 41.387 L 32.213 44.160 32.213 128.000 L 32.213 211.840 33.407 214.400 C 34.974 217.760,38.261 221.060,41.555 222.583 L 44.160 223.787 128.000 223.787 L 211.840 223.787 214.445 222.583 C 217.739 221.060,221.026 217.760,222.593 214.400 L 223.787 211.840 223.787 128.000 L 223.787 44.160 222.583 41.555 C 221.060 38.261,217.760 34.974,214.400 33.407 L 211.840 32.213 128.853 32.147 C 81.512 32.109,45.179 32.244,44.265 32.461 M107.214 48.801 C 108.874 49.511,110.715 51.407,111.333 53.041 C 111.582 53.702,111.787 56.438,111.787 59.121 L 111.787 64.000 132.587 64.009 C 151.896 64.018,153.509 64.075,155.093 64.806 C 158.018 66.156,160.011 69.165,159.991 72.200 C 159.971 75.130,157.659 78.339,154.667 79.591 C 154.197 79.787,149.695 80.055,144.662 80.187 L 135.511 80.427 134.959 84.255 C 133.056 97.457,127.471 110.296,118.773 121.463 L 116.055 124.952 118.507 126.429 C 121.961 128.509,126.626 130.798,129.990 132.064 C 132.888 133.155,139.523 134.979,139.732 134.742 C 139.794 134.671,143.024 128.277,146.911 120.533 C 152.931 108.537,154.197 106.306,155.469 105.456 C 157.167 104.322,159.663 103.868,161.902 104.288 C 165.356 104.937,165.065 104.425,187.132 148.557 C 206.388 187.068,207.787 190.014,207.787 192.068 C 207.787 197.313,203.023 201.040,198.036 199.697 C 194.830 198.834,193.853 197.497,188.380 186.494 L 183.268 176.213 160.000 176.213 L 136.732 176.213 131.620 186.494 C 126.147 197.497,125.170 198.834,121.964 199.697 C 116.976 201.040,112.213 197.313,112.213 192.067 C 112.213 190.044,113.038 188.214,122.264 169.765 C 127.792 158.711,132.256 149.629,132.184 149.583 C 132.112 149.537,129.749 148.756,126.933 147.847 C 120.898 145.900,113.559 142.325,108.047 138.648 L 104.094 136.011 100.524 138.412 C 88.190 146.703,71.942 151.893,58.320 151.893 C 53.793 151.893,52.419 151.527,50.614 149.840 C 47.605 147.026,47.335 141.656,50.055 138.732 C 51.808 136.847,53.701 136.242,58.763 135.946 C 64.629 135.603,69.281 134.770,74.880 133.058 C 80.813 131.244,88.566 127.506,92.098 124.757 C 92.182 124.692,91.368 123.557,90.291 122.234 C 85.105 115.868,80.208 107.197,80.223 104.406 C 80.245 100.200,83.223 96.850,87.236 96.517 C 91.697 96.147,93.316 97.309,96.789 103.376 C 98.642 106.614,101.091 110.243,103.460 113.260 C 104.096 114.070,104.149 114.052,105.379 112.620 C 109.384 107.959,114.046 99.629,116.428 92.880 C 117.471 89.925,119.467 81.780,119.467 80.479 C 119.467 80.347,104.731 80.185,86.720 80.119 C 51.403 79.991,53.227 80.112,50.629 77.708 C 48.866 76.077,48.213 74.564,48.213 72.111 C 48.213 69.832,49.212 67.331,50.637 66.043 C 52.851 64.041,53.341 64.000,75.293 64.000 L 96.000 64.000 96.009 59.200 C 96.022 52.806,96.884 50.824,100.480 48.924 C 102.072 48.083,105.394 48.022,107.214 48.801 M152.424 144.855 C 148.377 152.952,145.067 159.672,145.067 159.788 C 145.067 159.905,151.787 160.000,160.000 160.000 C 168.213 160.000,174.933 159.905,174.933 159.788 C 174.933 159.365,160.213 130.133,160.000 130.133 C 159.880 130.133,156.470 136.758,152.424 144.855 " stroke="none" fill-rule="evenodd"></path></svg>