<svg fill="currentColor" viewBox="0 0 256 256" xmlns="http://www.w3.org/2000/svg"><path d="M116.449 16.841 C 91.787 20.853,70.246 36.693,59.803 58.497 C 57.981 62.301,57.652 62.728,55.893 63.579 C 48.069 67.363,39.194 74.336,33.362 81.280 C 14.469 103.780,10.690 134.074,23.570 159.787 C 31.324 175.265,45.095 188.177,60.587 194.494 C 70.174 198.404,77.547 199.849,87.893 199.847 C 98.247 199.844,105.883 198.389,114.773 194.722 C 116.768 193.899,118.731 193.121,119.135 192.993 C 119.822 192.775,119.877 194.109,119.988 213.677 L 120.107 234.594 121.387 236.406 C 124.817 241.260,131.780 241.024,134.762 235.951 L 135.893 234.027 136.016 213.394 C 136.130 194.139,136.187 192.777,136.869 192.994 C 137.271 193.122,139.232 193.899,141.227 194.722 C 150.117 198.389,157.753 199.844,168.107 199.847 C 183.635 199.850,196.608 195.691,209.691 186.515 C 213.613 183.765,220.986 176.806,223.969 173.040 C 244.820 146.715,245.353 111.348,225.304 84.578 C 219.083 76.272,209.032 67.896,200.107 63.579 C 198.348 62.728,198.019 62.301,196.197 58.497 C 186.335 37.907,166.394 22.488,143.147 17.476 C 137.598 16.280,122.159 15.913,116.449 16.841 M131.930 81.169 C 132.936 81.734,134.092 82.910,134.762 84.049 L 135.893 85.973 136.026 100.373 C 136.099 108.293,136.239 114.773,136.338 114.773 C 136.438 114.773,145.018 110.528,155.406 105.340 L 174.293 95.906 176.580 96.140 C 179.541 96.444,181.812 97.944,182.988 100.373 C 184.643 103.792,183.822 107.806,180.991 110.133 C 180.313 110.691,169.936 116.041,157.932 122.023 L 136.107 132.900 136.107 162.663 C 136.107 179.033,136.005 192.427,135.880 192.427 C 135.653 192.427,130.762 189.695,128.950 188.556 C 128.089 188.015,127.827 188.038,126.604 188.768 C 125.846 189.219,124.027 190.240,122.560 191.036 L 119.893 192.484 119.893 174.749 L 119.893 157.015 98.166 146.149 C 86.045 140.088,75.735 134.667,74.849 133.889 C 71.145 130.636,71.128 125.379,74.811 122.145 C 76.620 120.556,79.291 119.718,81.209 120.136 C 81.952 120.298,90.953 124.626,101.211 129.755 L 119.863 139.080 119.985 112.527 L 120.107 85.973 121.164 84.126 C 123.301 80.394,128.171 79.056,131.930 81.169 " stroke="none" fill-rule="evenodd"></path></svg>