<svg fill="currentColor" viewBox="0 0 256 256" xmlns="http://www.w3.org/2000/svg"><path d="M164.481 48.886 C 162.557 49.889,161.667 50.810,160.802 52.693 C 159.840 54.790,159.788 57.121,160.659 59.205 C 161.095 60.248,165.941 65.420,174.946 74.453 L 188.573 88.122 162.345 114.348 L 136.117 140.574 118.512 123.003 C 106.599 111.113,100.394 105.217,99.320 104.769 C 97.301 103.926,94.706 103.924,92.680 104.765 C 91.568 105.226,80.263 116.244,54.922 141.565 C 35.027 161.443,18.258 178.414,17.656 179.279 C 17.055 180.143,16.404 181.555,16.210 182.415 C 15.752 184.444,16.618 187.834,17.969 189.300 C 19.242 190.683,21.996 191.979,23.680 191.988 C 27.558 192.009,26.284 193.157,62.183 157.308 L 95.993 123.545 113.810 141.303 C 128.862 156.305,131.892 159.133,133.333 159.528 C 135.758 160.192,137.348 160.099,139.307 159.181 C 140.467 158.636,150.429 148.950,170.443 128.906 L 199.872 99.432 213.750 113.243 C 228.318 127.743,228.652 128.008,232.320 127.988 C 235.649 127.970,238.878 125.203,239.773 121.600 C 240.109 120.246,240.213 109.995,240.125 86.827 C 240.012 57.156,239.931 53.849,239.291 52.693 C 238.355 51.002,236.448 49.230,234.959 48.667 C 234.147 48.360,222.749 48.214,199.759 48.216 C 169.761 48.218,165.609 48.297,164.481 48.886 " stroke="none" fill-rule="evenodd"></path></svg>