<svg fill="currentColor" viewBox="0 0 256 256" xmlns="http://www.w3.org/2000/svg"><path d="M124.139 24.326 C 118.745 25.166,113.454 28.072,109.711 32.252 C 108.006 34.156,96.744 53.369,63.720 110.720 C 39.666 152.491,19.424 187.769,18.735 189.117 C 16.969 192.576,16.168 195.930,16.146 199.957 C 16.091 210.359,22.843 219.435,33.280 222.988 C 35.545 223.759,38.848 223.787,128.000 223.787 L 220.373 223.787 223.228 222.800 C 233.172 219.364,239.907 210.111,239.854 199.957 C 239.829 195.437,238.941 192.242,236.394 187.520 C 235.255 185.408,215.028 150.176,191.445 109.227 C 144.840 28.304,146.540 31.040,140.751 27.615 C 135.875 24.731,129.564 23.482,124.139 24.326 " stroke="none" fill-rule="evenodd"></path></svg>