<svg fill="currentColor" viewBox="0 0 256 256" xmlns="http://www.w3.org/2000/svg"><path d="M73.600 48.899 C 65.006 50.432,55.062 54.739,48.213 59.893 C 18.498 82.256,15.754 125.219,42.388 151.120 C 44.001 152.689,46.452 154.797,47.834 155.803 C 49.216 156.809,50.342 157.733,50.337 157.856 C 50.331 157.979,48.286 158.934,45.793 159.978 C 31.118 166.123,17.113 177.249,6.796 190.958 C 3.072 195.906,1.954 198.363,2.295 200.852 C 2.655 203.476,4.260 205.831,6.507 207.032 L 8.320 208.000 82.133 208.127 C 122.731 208.198,156.933 208.138,158.140 207.996 C 163.396 207.375,166.814 202.609,165.392 197.883 C 163.970 193.160,153.047 180.435,144.213 173.213 C 138.153 168.258,126.568 161.488,119.787 158.939 C 118.672 158.520,117.760 158.058,117.760 157.911 C 117.760 157.764,119.087 156.632,120.709 155.396 C 124.819 152.261,130.863 145.817,133.660 141.587 C 145.995 122.933,147.344 100.532,137.338 80.517 C 134.846 75.532,131.214 70.627,126.507 65.888 C 117.292 56.611,106.258 50.884,93.666 48.842 C 88.810 48.054,78.165 48.084,73.600 48.899 M162.931 48.839 C 157.716 49.695,154.458 50.591,149.415 52.557 C 144.311 54.546,142.995 55.531,142.671 57.600 C 142.482 58.808,142.694 59.460,143.782 61.013 C 150.245 70.245,153.194 75.718,155.873 83.453 C 163.286 104.854,160.486 129.010,148.338 148.469 C 147.243 150.223,146.347 152.165,146.347 152.785 C 146.347 154.240,147.519 155.701,150.299 157.711 C 158.002 163.279,167.569 172.825,173.766 181.125 C 180.286 189.859,181.882 193.984,181.687 201.600 C 181.571 206.158,181.990 207.020,184.709 207.814 C 185.733 208.113,196.421 208.218,216.960 208.131 C 246.245 208.006,247.757 207.962,249.330 207.181 C 252.838 205.440,254.647 200.963,253.272 197.422 C 252.338 195.017,248.090 189.174,243.529 184.020 C 234.792 174.147,221.998 164.916,210.207 159.978 C 207.714 158.934,205.669 157.979,205.663 157.856 C 205.658 157.733,206.813 156.788,208.230 155.757 C 211.712 153.221,218.629 145.948,221.140 142.183 C 225.700 135.346,228.892 127.828,230.606 119.893 C 231.657 115.027,231.913 104.361,231.099 99.408 C 228.916 86.134,223.408 75.328,214.002 65.861 C 205.541 57.346,195.669 51.947,184.092 49.505 C 178.483 48.321,168.084 47.994,162.931 48.839 " stroke="none" fill-rule="evenodd"></path></svg>