<svg fill="currentColor" viewBox="0 0 256 256" xmlns="http://www.w3.org/2000/svg"><path d="M36.053 40.505 C 30.344 41.916,25.583 47.035,24.322 53.120 C 24.024 54.557,23.916 79.407,23.993 129.280 L 24.107 203.307 25.224 205.957 C 27.063 210.321,30.434 213.551,34.721 215.057 C 37.053 215.877,38.826 215.893,128.000 215.893 C 217.174 215.893,218.947 215.877,221.279 215.057 C 225.566 213.551,228.937 210.321,230.776 205.957 L 231.893 203.307 231.893 128.000 L 231.893 52.693 230.867 50.144 C 229.561 46.901,226.312 43.426,222.933 41.659 L 220.373 40.320 128.853 40.255 C 78.517 40.219,36.757 40.331,36.053 40.505 M215.893 128.000 L 215.893 200.107 208.680 200.107 L 201.467 200.107 199.338 195.885 C 193.660 184.623,184.280 173.758,174.248 166.823 C 170.012 163.895,169.256 163.940,164.662 167.403 C 157.613 172.716,150.094 176.341,142.080 178.291 C 124.343 182.607,106.401 178.757,91.338 167.403 C 86.744 163.940,85.988 163.895,81.752 166.823 C 71.720 173.758,62.340 184.623,56.662 195.885 L 54.533 200.107 47.320 200.107 L 40.107 200.107 40.107 128.000 L 40.107 55.893 128.000 55.893 L 215.893 55.893 215.893 128.000 M122.240 76.434 C 117.709 77.010,113.269 78.344,108.977 80.421 C 87.722 90.707,78.439 115.405,87.574 137.364 C 90.426 144.218,96.937 152.106,103.227 156.326 C 107.046 158.888,111.470 160.955,116.267 162.416 C 119.861 163.512,120.612 163.587,128.000 163.587 C 135.361 163.587,136.152 163.509,139.733 162.427 C 155.104 157.787,166.338 146.425,170.480 131.331 C 171.846 126.351,172.316 118.479,171.537 113.617 C 167.698 89.656,146.143 73.398,122.240 76.434 " stroke="none" fill-rule="evenodd"></path></svg>