<svg fill="currentColor" viewBox="0 0 256 256" xmlns="http://www.w3.org/2000/svg"><path d="M121.074 24.339 C 99.230 26.616,79.318 38.694,67.578 56.785 C 59.134 69.798,54.865 86.695,56.243 101.653 C 58.311 124.111,69.343 142.971,87.845 155.678 L 90.998 157.843 89.765 158.293 C 66.007 166.965,47.478 180.576,33.025 199.974 C 28.783 205.667,24.843 212.102,24.272 214.271 C 23.348 217.778,25.283 221.609,28.782 223.198 C 30.439 223.951,34.325 223.981,128.000 223.981 C 221.675 223.981,225.561 223.951,227.218 223.198 C 230.717 221.609,232.652 217.778,231.728 214.271 C 231.157 212.101,227.298 205.801,223.012 200.041 C 208.530 180.579,190.037 166.981,166.235 158.293 L 165.002 157.843 168.155 155.678 C 179.189 148.099,187.303 138.693,192.855 127.044 C 202.708 106.367,202.388 83.620,191.956 63.106 C 181.906 43.346,162.388 28.900,140.735 25.199 C 134.817 24.187,126.163 23.808,121.074 24.339 " stroke="none" fill-rule="evenodd"></path></svg>