<svg fill="currentColor" viewBox="0 0 256 256" xmlns="http://www.w3.org/2000/svg"><path d="M101.547 32.284 C 90.620 33.362,79.295 37.501,69.529 43.984 C 63.825 47.771,55.697 55.987,51.690 62.016 C 46.523 69.790,42.977 78.388,41.105 87.680 C 40.022 93.057,40.014 106.548,41.090 112.000 C 44.593 129.743,53.994 144.664,68.172 154.986 C 70.115 156.400,71.651 157.607,71.586 157.669 C 71.520 157.730,69.163 158.687,66.347 159.797 C 54.070 164.633,43.042 171.236,32.851 179.853 C 27.964 183.984,18.089 194.263,17.050 196.298 C 16.076 198.209,15.962 201.238,16.790 203.220 C 17.482 204.877,20.047 207.222,21.661 207.674 C 22.302 207.853,61.323 208.000,108.373 208.000 L 193.920 208.000 195.697 207.050 C 198.948 205.311,200.653 201.508,199.717 198.084 C 198.391 193.231,183.571 179.034,171.733 171.277 C 163.679 165.998,153.283 160.763,146.362 158.500 L 144.030 157.737 145.075 157.055 C 151.635 152.774,159.993 144.561,164.221 138.240 C 170.867 128.304,174.744 117.331,175.837 105.359 C 176.885 93.895,174.420 80.932,169.142 70.148 C 157.658 46.680,133.380 31.675,107.531 32.068 C 105.061 32.106,102.368 32.203,101.547 32.284 M220.800 104.711 C 219.117 105.463,217.379 107.350,216.556 109.320 C 216.032 110.575,215.893 112.691,215.893 119.453 L 215.893 128.000 207.253 128.009 C 199.820 128.017,198.374 128.127,196.903 128.796 C 191.592 131.208,190.418 137.748,194.582 141.719 C 196.793 143.828,198.903 144.213,208.234 144.213 L 215.893 144.213 215.896 152.427 C 215.897 157.102,216.101 161.371,216.369 162.337 C 216.999 164.607,219.497 167.042,221.843 167.674 C 226.116 168.824,230.505 166.389,231.661 162.227 C 231.904 161.354,232.103 156.944,232.104 152.427 L 232.107 144.213 239.766 144.213 C 249.097 144.213,251.207 143.828,253.418 141.719 C 257.582 137.748,256.408 131.208,251.097 128.796 C 249.626 128.127,248.180 128.017,240.747 128.009 L 232.107 128.000 232.097 119.360 C 232.087 109.835,231.806 108.520,229.280 106.160 C 227.072 104.098,223.531 103.493,220.800 104.711 " stroke="none" fill-rule="evenodd"></path></svg>