<svg fill="currentColor" viewBox="0 0 256 256" xmlns="http://www.w3.org/2000/svg"><path d="M28.587 56.487 C 21.988 57.954,17.321 62.984,16.198 69.836 C 15.654 73.162,15.654 182.838,16.198 186.164 C 17.117 191.772,20.380 196.107,25.514 198.539 L 28.373 199.893 103.893 199.893 L 179.413 199.893 181.865 198.903 C 185.288 197.521,188.659 194.317,190.390 190.802 L 191.787 187.965 191.787 128.009 L 191.787 68.053 190.643 65.614 C 188.330 60.678,183.762 57.169,178.536 56.314 C 174.534 55.658,31.571 55.823,28.587 56.487 M243.840 73.284 C 240.075 75.422,209.738 95.847,208.853 96.839 C 208.017 97.777,208.000 98.400,208.000 128.010 L 208.000 158.225 208.989 159.278 C 209.533 159.857,217.864 165.584,227.501 172.005 L 245.024 183.680 247.877 183.680 C 251.438 183.680,253.717 182.367,255.095 179.520 L 256.000 177.651 256.000 128.000 L 256.000 78.349 255.095 76.480 C 253.119 72.398,247.974 70.937,243.840 73.284 " stroke="none" fill-rule="evenodd"></path></svg>