<svg fill="currentColor" viewBox="0 0 256 256" xmlns="http://www.w3.org/2000/svg"><path d="M36.053 40.505 C 30.344 41.916,25.585 47.033,24.321 53.120 C 24.024 54.550,23.915 74.377,23.992 113.280 L 24.107 171.307 25.224 173.957 C 27.063 178.321,30.434 181.551,34.721 183.057 C 37.053 183.877,38.826 183.893,128.000 183.893 C 217.174 183.893,218.947 183.877,221.279 183.057 C 225.566 181.551,228.937 178.321,230.776 173.957 L 231.893 171.307 231.893 112.000 L 231.893 52.693 230.867 50.144 C 229.561 46.901,226.312 43.426,222.933 41.659 L 220.373 40.320 128.853 40.255 C 78.517 40.219,36.757 40.331,36.053 40.505 M114.987 76.745 C 116.834 77.589,160.127 105.026,161.432 106.180 C 164.841 109.193,164.486 115.521,160.751 118.330 C 157.269 120.948,115.606 147.141,114.168 147.615 C 110.743 148.746,106.586 146.932,104.975 143.604 C 104.127 141.853,104.107 141.110,104.107 112.000 C 104.107 82.823,104.125 82.151,104.981 80.383 C 106.780 76.668,111.255 75.040,114.987 76.745 M28.800 200.711 C 26.241 201.854,23.882 205.410,23.903 208.093 C 23.924 210.787,26.543 214.455,29.148 215.440 C 30.838 216.078,225.162 216.078,226.852 215.440 C 229.504 214.438,232.088 210.766,232.088 208.000 C 232.088 205.234,229.504 201.562,226.852 200.560 C 226.016 200.244,195.957 200.112,127.866 200.123 C 47.117 200.137,29.857 200.240,28.800 200.711 " stroke="none" fill-rule="evenodd"></path></svg>