<svg fill="currentColor" viewBox="0 0 256 256" xmlns="http://www.w3.org/2000/svg"><path d="M50.195 40.783 C 46.371 41.708,41.937 44.247,38.964 47.213 C 36.043 50.127,33.289 55.216,32.465 59.221 C 31.803 62.441,31.812 193.622,32.475 196.779 C 33.132 199.910,35.368 204.589,37.463 207.220 C 39.686 210.011,43.843 212.991,47.626 214.505 L 50.560 215.680 134.716 215.792 C 217.518 215.902,218.910 215.890,221.265 215.063 C 225.566 213.551,228.935 210.326,230.776 205.957 L 231.893 203.307 231.893 144.000 L 231.893 84.693 230.867 82.144 C 229.561 78.901,226.312 75.426,222.933 73.659 L 220.373 72.320 137.173 72.107 C 56.096 71.899,53.931 71.872,52.316 71.071 C 46.940 68.403,46.823 60.200,52.118 57.169 L 53.973 56.107 124.373 55.893 C 176.806 55.734,194.991 55.553,195.627 55.183 C 197.975 53.817,200.116 50.331,200.097 47.907 C 200.076 45.213,197.457 41.545,194.852 40.560 C 194.020 40.246,172.014 40.118,123.172 40.142 C 63.899 40.172,52.296 40.274,50.195 40.783 M185.022 129.203 C 187.647 130.542,189.139 131.964,190.451 134.374 C 192.850 138.780,192.268 144.041,188.970 147.788 C 186.641 150.433,184.379 151.544,180.799 151.801 C 177.200 152.060,174.677 151.181,172.042 148.753 C 169.097 146.037,168.331 144.224,168.325 139.947 C 168.321 136.756,168.461 136.081,169.490 134.329 C 171.002 131.757,173.760 129.414,176.200 128.630 C 178.762 127.806,182.798 128.068,185.022 129.203 " stroke="none" fill-rule="evenodd"></path></svg>