<svg fill="currentColor" viewBox="0 0 256 256" xmlns="http://www.w3.org/2000/svg"><path d="M120.960 24.326 C 100.935 25.586,81.587 32.844,64.891 45.360 C 59.554 49.360,49.234 59.686,45.276 64.986 C 34.512 79.399,27.973 94.882,25.095 112.768 C 23.886 120.283,23.787 134.307,24.890 141.867 C 27.542 160.046,34.293 176.318,45.279 191.014 C 49.299 196.392,59.608 206.701,64.986 210.721 C 79.686 221.710,96.000 228.476,114.133 231.105 C 117.683 231.620,121.936 231.847,128.000 231.847 C 144.598 231.847,158.874 228.583,173.440 221.458 C 184.661 215.968,192.320 210.472,201.396 201.396 C 210.475 192.317,215.974 184.654,221.456 173.440 C 235.707 144.287,235.458 110.173,220.780 81.026 C 214.698 68.950,203.517 55.194,193.067 46.931 C 172.349 30.550,147.221 22.673,120.960 24.326 M131.114 72.683 C 132.770 73.375,135.116 75.941,135.567 77.554 C 135.747 78.196,135.893 92.064,135.893 108.373 L 135.893 138.027 134.762 139.951 C 131.676 145.200,124.324 145.200,121.238 139.951 L 120.107 138.027 120.107 108.373 C 120.107 92.064,120.253 78.196,120.433 77.554 C 120.871 75.990,123.203 73.394,124.792 72.701 C 126.475 71.968,129.382 71.959,131.114 72.683 M133.400 161.419 C 140.376 164.954,142.071 173.932,136.876 179.834 C 134.216 182.856,132.333 183.670,128.000 183.670 C 123.667 183.670,121.784 182.856,119.124 179.834 C 114.844 174.972,115.047 168.192,119.609 163.654 C 123.421 159.860,128.652 159.013,133.400 161.419 " stroke="none" fill-rule="evenodd"></path></svg>