<svg fill="currentColor" viewBox="0 0 256 256" xmlns="http://www.w3.org/2000/svg"><path d="M96.777 17.230 C 92.405 19.028,89.327 22.170,87.741 26.453 C 87.350 27.509,85.689 35.861,84.049 45.013 C 82.410 54.165,80.971 62.076,80.852 62.592 C 80.732 63.109,79.532 64.420,78.184 65.506 C 69.304 72.664,61.499 82.259,56.597 92.043 C 50.870 103.473,48.145 115.066,48.145 128.000 C 48.145 150.136,56.455 169.742,72.382 185.183 C 74.929 187.653,77.850 190.343,78.872 191.161 L 80.730 192.649 83.880 210.138 C 85.612 219.757,87.349 228.491,87.740 229.547 C 89.347 233.883,92.636 237.174,97.215 239.025 L 99.627 240.000 128.000 240.000 L 156.373 240.000 158.785 239.025 C 163.366 237.173,166.661 233.875,168.256 229.547 C 168.645 228.491,170.383 219.756,172.119 210.135 L 175.276 192.644 177.131 191.159 C 180.644 188.346,188.254 180.687,190.921 177.280 C 199.532 166.277,204.996 153.530,207.195 139.307 C 208.063 133.700,208.063 122.300,207.195 116.693 C 204.996 102.471,199.533 89.726,190.921 78.720 C 188.270 75.332,181.316 68.340,177.342 65.066 L 175.271 63.360 172.117 45.867 C 170.382 36.245,168.645 27.509,168.256 26.453 C 166.680 22.177,163.597 19.029,159.223 17.230 L 156.800 16.234 128.000 16.234 L 99.200 16.234 96.777 17.230 M155.218 42.587 C 156.254 48.292,157.027 53.035,156.936 53.126 C 156.845 53.217,154.684 52.629,152.132 51.819 C 143.214 48.989,139.242 48.431,128.000 48.431 C 116.758 48.431,112.786 48.989,103.868 51.819 C 101.316 52.629,99.153 53.216,99.061 53.123 C 98.907 52.970,102.236 33.773,102.632 32.530 C 102.767 32.105,108.068 32.016,128.068 32.103 L 153.334 32.213 155.218 42.587 M131.930 81.169 C 132.936 81.734,134.092 82.910,134.762 84.049 L 135.893 85.973 136.022 102.911 L 136.152 119.848 153.089 119.978 L 170.027 120.107 171.882 121.169 C 175.807 123.416,177.018 128.451,174.564 132.321 C 172.221 136.015,173.132 135.893,147.840 135.893 C 126.249 135.893,125.613 135.870,124.166 135.020 C 123.348 134.539,122.100 133.322,121.393 132.316 L 120.107 130.486 120.107 108.230 L 120.107 85.973 121.164 84.126 C 123.301 80.394,128.171 79.056,131.930 81.169 M102.888 203.895 C 110.982 206.631,118.935 207.899,128.000 207.899 C 137.062 207.899,145.019 206.631,153.106 203.897 C 155.101 203.223,156.816 202.754,156.918 202.855 C 157.019 202.957,156.254 207.708,155.218 213.413 L 153.334 223.787 128.002 223.787 L 102.669 223.787 100.836 213.760 C 99.049 203.987,98.844 202.667,99.120 202.667 C 99.193 202.667,100.889 203.219,102.888 203.895 " stroke="none" fill-rule="evenodd"></path></svg>