<svg fill="currentColor" viewBox="0 0 256 256" xmlns="http://www.w3.org/2000/svg"><path d="M36.053 40.505 C 30.344 41.916,25.583 47.035,24.322 53.120 C 24.024 54.557,23.916 79.407,23.993 129.280 L 24.107 203.307 25.224 205.957 C 27.063 210.321,30.434 213.551,34.721 215.057 C 37.053 215.877,38.826 215.893,128.000 215.893 C 217.174 215.893,218.947 215.877,221.279 215.057 C 225.566 213.551,228.937 210.321,230.776 205.957 L 231.893 203.307 231.893 128.000 L 231.893 52.693 230.867 50.144 C 229.561 46.901,226.312 43.426,222.933 41.659 L 220.373 40.320 128.853 40.255 C 78.517 40.219,36.757 40.331,36.053 40.505 M110.080 73.176 C 116.373 74.301,121.530 76.125,130.560 80.423 C 143.875 86.759,147.480 87.674,159.147 87.677 C 167.194 87.680,167.649 87.633,173.013 86.254 C 176.064 85.470,181.189 83.790,184.401 82.521 C 190.926 79.943,193.094 79.666,195.821 81.057 C 198.803 82.578,200.483 86.238,199.732 89.580 C 198.907 93.254,197.174 94.695,190.293 97.427 C 176.901 102.746,164.601 104.813,152.816 103.726 C 142.273 102.754,136.570 101.003,123.213 94.642 C 113.958 90.234,109.755 89.001,101.631 88.311 C 91.012 87.410,80.944 89.381,68.053 94.886 C 65.021 96.182,63.126 96.263,60.782 95.198 C 56.109 93.075,54.652 87.341,57.698 83.062 C 59.989 79.845,76.369 74.140,87.893 72.544 C 92.120 71.959,105.384 72.337,110.080 73.176 M107.733 112.845 C 116.082 114.050,120.215 115.433,131.413 120.768 C 142.934 126.256,147.136 127.439,156.617 127.862 C 165.447 128.256,174.206 126.629,183.562 122.858 C 190.889 119.904,191.122 119.837,193.127 120.138 C 197.113 120.736,199.864 124.112,199.821 128.352 C 199.771 133.178,196.627 135.473,184.604 139.462 C 173.222 143.237,163.929 144.556,154.019 143.802 C 143.138 142.974,137.101 141.224,124.587 135.270 C 113.124 129.816,108.885 128.626,99.200 128.145 C 90.673 127.721,80.943 129.619,71.467 133.554 C 65.541 136.015,64.202 136.311,61.867 135.682 C 57.979 134.635,55.212 129.897,56.263 126.090 C 57.001 123.415,58.636 121.755,62.197 120.062 C 68.493 117.070,80.948 113.439,88.107 112.508 C 91.469 112.070,103.840 112.283,107.733 112.845 M102.613 152.326 C 113.343 153.204,118.821 154.791,130.633 160.440 C 143.687 166.683,147.931 167.791,158.933 167.825 C 165.375 167.845,166.742 167.718,171.150 166.687 C 176.697 165.390,181.446 163.846,186.963 161.546 C 191.054 159.841,192.531 159.676,194.888 160.660 C 200.270 162.909,201.649 169.594,197.559 173.614 C 195.003 176.126,184.254 180.170,174.040 182.461 C 169.083 183.573,168.124 183.648,158.933 183.644 C 150.428 183.640,148.543 183.514,144.790 182.701 C 138.506 181.338,132.883 179.258,123.836 174.952 C 115.102 170.795,110.624 169.300,104.747 168.580 C 93.801 167.238,83.068 168.785,72.237 173.264 C 64.395 176.507,63.515 176.625,60.089 174.891 C 55.856 172.749,54.761 166.692,57.926 162.931 C 61.053 159.215,78.993 153.349,90.298 152.348 C 95.767 151.863,96.930 151.861,102.613 152.326 " stroke="none" fill-rule="evenodd"></path></svg>