<svg fill="currentColor" viewBox="0 0 256 256" xmlns="http://www.w3.org/2000/svg"><path d="M121.223 24.354 C 87.926 26.908,58.736 51.547,50.589 83.975 C 45.895 102.661,47.700 121.336,55.855 138.453 C 64.355 156.294,79.711 170.782,97.920 178.138 C 102.940 180.167,111.000 182.372,115.947 183.072 L 119.893 183.630 119.893 191.868 L 119.893 200.107 75.121 200.107 C 44.525 200.107,29.969 200.250,29.148 200.560 C 26.496 201.562,23.912 205.234,23.912 208.000 C 23.912 210.766,26.496 214.438,29.148 215.440 C 30.838 216.078,225.162 216.078,226.852 215.440 C 229.504 214.438,232.088 210.766,232.088 208.000 C 232.088 205.234,229.504 201.562,226.852 200.560 C 226.031 200.250,211.475 200.107,180.879 200.107 L 136.107 200.107 136.107 191.868 L 136.107 183.630 140.053 183.072 C 145.000 182.372,153.060 180.167,158.080 178.138 C 176.327 170.766,191.876 156.043,200.300 138.162 C 209.732 118.139,210.485 95.169,202.382 74.667 C 191.078 46.066,164.702 26.679,133.898 24.329 C 127.715 23.857,127.706 23.857,121.223 24.354 M138.229 57.175 C 153.124 60.244,166.423 71.327,172.193 85.481 C 175.096 92.601,175.510 94.890,175.523 103.893 C 175.534 111.341,175.443 112.337,174.410 116.141 C 170.899 129.070,162.153 140.146,150.590 146.307 C 138.968 152.499,125.040 153.614,112.484 149.356 C 97.498 144.276,85.808 131.706,81.593 116.141 C 80.577 112.389,80.470 111.258,80.452 104.107 C 80.434 97.134,80.550 95.765,81.441 92.373 C 86.628 72.638,102.778 58.580,122.849 56.331 C 127.019 55.864,133.622 56.226,138.229 57.175 M121.387 72.719 C 109.363 75.533,100.237 84.248,97.007 96.000 C 95.817 100.328,95.918 108.495,97.213 112.640 C 99.031 118.458,101.325 122.265,105.583 126.530 C 108.843 129.794,110.068 130.700,113.493 132.374 C 119.156 135.143,122.075 135.840,128.000 135.840 C 133.925 135.840,136.844 135.143,142.507 132.374 C 145.932 130.700,147.157 129.794,150.417 126.530 C 154.675 122.265,156.969 118.458,158.787 112.640 C 160.082 108.495,160.183 100.328,158.993 96.000 C 156.043 85.264,147.780 76.697,137.173 73.377 C 133.331 72.175,125.168 71.834,121.387 72.719 " stroke="none" fill-rule="evenodd"></path></svg>