<svg fill="currentColor" viewBox="0 0 256 256" xmlns="http://www.w3.org/2000/svg"><path d="M118.400 25.161 C 109.019 27.196,101.642 31.134,94.736 37.791 C 88.378 43.920,83.921 51.470,81.601 60.042 C 80.575 63.830,80.470 64.939,80.453 72.107 C 80.436 79.442,80.518 80.298,81.608 84.211 C 82.826 88.588,85.003 93.624,87.567 97.999 L 89.061 100.548 69.314 134.764 C 58.453 153.583,49.262 169.874,48.890 170.966 C 47.531 174.955,48.247 180.612,50.585 184.346 C 52.092 186.754,55.713 189.736,58.367 190.755 C 65.178 193.370,73.675 190.586,77.530 184.478 C 80.179 180.280,114.077 121.326,114.887 119.508 C 116.382 116.154,115.996 115.145,107.785 100.931 C 98.943 85.625,98.398 84.569,97.322 80.689 C 94.313 69.829,97.291 58.086,105.107 49.988 C 114.047 40.725,127.818 37.734,139.747 42.464 C 147.284 45.452,153.229 50.995,157.125 58.667 C 158.410 61.197,159.658 62.442,161.805 63.340 C 166.227 65.187,171.048 62.602,172.357 57.682 C 173.026 55.170,172.184 52.419,169.293 47.663 C 162.416 36.353,152.577 29.041,139.520 25.535 C 134.669 24.232,123.583 24.036,118.400 25.161 M123.429 56.939 C 119.056 58.306,115.505 61.446,113.581 65.647 C 112.108 68.865,111.805 73.643,112.870 76.854 C 113.513 78.791,146.966 137.415,149.427 140.916 C 149.884 141.567,151.058 142.527,152.036 143.050 C 153.791 143.988,154.097 144.003,176.000 144.235 C 200.966 144.499,199.617 144.335,206.720 147.969 C 212.143 150.743,217.464 156.062,220.249 161.493 C 223.037 166.930,223.736 169.828,223.745 176.000 C 223.751 180.025,223.550 181.832,222.804 184.452 C 219.072 197.559,208.548 206.308,194.722 207.798 C 192.404 208.048,189.895 208.446,189.148 208.683 C 186.741 209.447,183.898 213.466,183.898 216.107 C 183.898 217.369,184.920 219.874,185.919 221.061 C 188.254 223.836,191.828 224.540,198.532 223.544 C 218.036 220.647,233.534 206.831,238.486 187.924 C 240.499 180.236,240.497 172.062,238.478 164.156 C 234.025 146.713,219.396 132.994,201.006 129.014 C 198.849 128.547,194.562 128.223,188.232 128.049 L 178.705 127.787 160.609 96.440 C 150.656 79.199,141.889 64.179,141.127 63.063 C 137.385 57.580,129.789 54.951,123.429 56.939 M28.105 145.069 C 26.304 146.021,24.050 149.002,21.495 153.813 C 17.885 160.611,16.164 167.590,16.130 175.573 C 16.051 194.286,26.163 210.709,42.785 218.864 C 59.407 227.019,78.289 225.221,93.092 214.074 C 98.773 209.796,102.820 204.851,107.918 195.957 L 110.175 192.020 153.114 191.903 L 196.053 191.787 198.400 190.672 C 205.078 187.500,208.993 180.307,207.756 173.483 C 206.792 168.169,203.697 164.178,198.591 161.664 L 195.645 160.213 154.676 160.092 C 109.765 159.959,111.563 159.865,109.134 162.461 C 108.534 163.102,104.145 170.392,99.382 178.660 C 94.619 186.928,89.895 194.747,88.884 196.034 C 84.928 201.075,78.343 205.284,71.793 206.959 C 67.721 208.000,60.745 208.070,56.774 207.109 C 53.059 206.209,46.880 203.181,43.855 200.776 C 39.083 196.983,34.676 190.117,33.017 183.893 C 32.003 180.088,32.008 171.877,33.026 168.131 C 33.979 164.624,35.668 160.925,37.856 157.557 C 38.805 156.096,39.708 154.227,39.862 153.403 C 40.197 151.619,39.492 148.734,38.320 147.088 C 36.369 144.348,31.348 143.356,28.105 145.069 " stroke="none" fill-rule="evenodd"></path></svg>