<svg fill="currentColor" viewBox="0 0 256 256" xmlns="http://www.w3.org/2000/svg"><path d="M117.760 32.250 C 116.704 32.339,113.440 32.616,110.507 32.864 C 81.862 35.289,52.920 45.048,27.947 60.703 C 21.264 64.892,13.864 70.277,12.088 72.242 C 7.487 77.336,6.809 85.667,10.548 91.185 C 12.535 94.118,116.340 219.113,117.847 220.387 C 118.620 221.041,120.309 222.069,121.600 222.672 C 123.578 223.595,124.551 223.766,127.787 223.761 C 132.625 223.754,135.641 222.656,138.652 219.807 C 139.811 218.711,164.312 189.397,193.098 154.667 C 228.848 111.536,245.793 90.776,246.559 89.173 C 247.526 87.148,247.680 86.270,247.680 82.767 C 247.680 79.042,247.565 78.473,246.280 75.861 C 245.410 74.091,244.106 72.320,242.832 71.174 C 237.218 66.129,222.162 56.691,210.987 51.212 C 191.156 41.489,170.444 35.521,147.989 33.062 C 142.249 32.433,122.008 31.889,117.760 32.250 M147.627 49.043 C 173.070 52.233,196.158 60.095,216.846 72.614 C 222.777 76.203,231.680 82.290,231.680 82.755 C 231.680 83.205,170.636 156.587,170.262 156.587 C 170.063 156.587,168.585 155.785,166.977 154.805 C 160.077 150.602,151.127 147.164,142.668 145.468 C 136.717 144.275,125.122 143.874,118.672 144.638 C 107.904 145.915,95.935 150.235,86.725 156.170 C 85.866 156.724,85.686 156.700,84.940 155.940 C 83.516 154.488,24.320 83.022,24.320 82.755 C 24.320 82.286,33.235 76.187,39.146 72.612 C 60.117 59.931,85.614 51.346,109.013 49.088 C 111.595 48.839,114.379 48.559,115.200 48.466 C 118.129 48.135,144.065 48.596,147.627 49.043 " stroke="none" fill-rule="evenodd"></path></svg>