<svg fill="currentColor" viewBox="0 0 256 256" xmlns="http://www.w3.org/2000/svg"><path d="M117.760 32.281 C 90.442 34.156,67.763 40.057,45.013 51.212 C 33.838 56.691,18.782 66.129,13.168 71.174 C 7.669 76.116,6.482 85.186,10.548 91.185 C 13.381 95.365,117.019 219.742,118.701 220.981 C 124.631 225.349,133.524 224.734,138.859 219.588 C 140.114 218.377,153.779 202.123,169.225 183.467 C 184.672 164.811,201.011 145.076,205.535 139.612 C 215.776 127.244,215.716 127.476,209.785 123.133 C 208.890 122.477,206.638 120.520,204.781 118.783 C 199.927 114.244,200.193 114.187,192.363 121.437 C 182.679 130.403,168.550 130.195,159.266 120.949 C 154.089 115.794,152.037 110.359,152.425 102.829 C 152.779 95.955,154.838 91.625,160.747 85.329 C 165.524 80.239,165.530 79.763,160.887 74.915 C 154.368 68.108,152.265 63.520,152.265 56.107 C 152.265 49.664,154.308 44.271,158.513 39.617 C 160.242 37.703,160.376 36.602,159.040 35.271 C 158.224 34.458,157.150 34.202,151.893 33.569 C 140.647 32.214,126.509 31.680,117.760 32.281 M172.588 48.886 C 170.664 49.889,169.774 50.810,168.909 52.693 C 167.990 54.695,167.915 56.202,168.617 58.617 C 169.034 60.055,170.889 62.156,178.845 70.202 L 188.564 80.031 179.604 88.975 C 174.677 93.895,170.141 98.643,169.526 99.528 C 165.364 105.506,171.213 113.662,178.170 111.582 C 180.043 111.022,181.314 109.906,190.072 101.135 L 199.878 91.315 209.486 100.862 C 214.770 106.113,219.751 110.741,220.554 111.147 C 222.431 112.096,225.577 112.090,227.589 111.136 C 230.815 109.605,232.648 105.516,231.696 101.973 C 231.244 100.292,229.967 98.834,221.403 90.228 C 216.026 84.824,211.627 80.222,211.627 80.000 C 211.627 79.778,216.026 75.176,221.403 69.772 C 229.967 61.166,231.244 59.708,231.696 58.027 C 232.637 54.523,230.970 50.663,227.821 49.057 C 225.791 48.021,222.348 47.949,220.459 48.902 C 219.708 49.281,214.770 53.887,209.486 59.138 L 199.878 68.685 190.286 59.046 C 185.010 53.745,180.076 49.138,179.320 48.810 C 177.501 48.019,174.178 48.056,172.588 48.886 " stroke="none" fill-rule="evenodd"></path></svg>