<svg fill="currentColor" viewBox="0 0 256 256" xmlns="http://www.w3.org/2000/svg"><path d="M153.813 24.344 C 138.565 25.522,122.957 32.406,111.243 43.122 C 94.724 58.231,85.839 81.634,88.338 103.449 C 89.008 109.299,89.896 113.175,91.993 119.409 C 93.048 122.545,93.853 125.153,93.782 125.205 C 92.420 126.190,33.137 177.602,32.299 178.525 C 30.227 180.806,27.472 185.278,26.269 188.314 C 20.003 204.120,27.289 222.082,42.825 229.126 C 47.364 231.184,50.511 231.840,55.893 231.848 C 64.304 231.862,70.960 229.341,77.332 223.730 C 78.381 222.806,128.819 164.782,130.836 162.179 C 130.907 162.087,132.554 162.598,134.496 163.313 C 144.556 167.021,153.166 168.427,162.987 167.965 C 181.830 167.078,199.013 159.289,211.881 145.801 C 217.483 139.929,220.909 135.022,224.456 127.787 C 231.820 112.771,233.833 96.809,230.374 80.866 C 229.458 76.643,228.248 74.690,225.703 73.325 C 223.770 72.289,220.574 72.301,218.543 73.353 C 217.672 73.804,207.802 82.636,196.608 92.980 C 185.414 103.324,175.964 111.787,175.608 111.787 C 174.059 111.787,150.354 106.525,149.927 106.086 C 149.510 105.657,144.197 81.703,144.209 80.306 C 144.211 80.004,152.709 70.546,163.093 59.286 C 173.477 48.027,182.321 38.194,182.746 37.434 C 183.320 36.408,183.480 35.381,183.369 33.438 C 183.194 30.370,181.842 28.219,179.282 26.936 C 177.120 25.851,171.474 24.789,165.342 24.312 C 159.715 23.874,159.912 23.873,153.813 24.344 " stroke="none" fill-rule="evenodd"></path></svg>