<svg fill="currentColor" viewBox="0 0 256 256" xmlns="http://www.w3.org/2000/svg"><path d="M120.960 24.326 C 100.935 25.586,81.587 32.844,64.891 45.360 C 59.554 49.360,49.234 59.686,45.276 64.986 C 34.512 79.399,27.973 94.882,25.095 112.768 C 23.886 120.283,23.787 134.307,24.890 141.867 C 27.542 160.046,34.293 176.318,45.279 191.014 C 49.299 196.392,59.608 206.701,64.986 210.721 C 79.686 221.710,96.000 228.476,114.133 231.105 C 117.683 231.620,121.936 231.847,128.000 231.847 C 144.598 231.847,158.874 228.583,173.440 221.458 C 184.661 215.968,192.320 210.472,201.396 201.396 C 210.475 192.317,215.974 184.654,221.456 173.440 C 235.707 144.287,235.458 110.173,220.780 81.026 C 214.698 68.950,203.517 55.194,193.067 46.931 C 172.349 30.550,147.221 22.673,120.960 24.326 M99.627 88.841 C 100.096 89.073,106.671 95.432,114.237 102.973 L 127.994 116.682 141.970 102.742 C 151.672 93.066,156.338 88.700,157.227 88.466 C 159.168 87.956,162.282 88.154,163.668 88.875 C 165.085 89.612,166.471 91.039,167.271 92.585 C 167.980 93.955,167.982 98.039,167.275 99.415 C 166.973 100.001,160.561 106.672,153.026 114.240 L 139.324 128.000 153.026 141.760 C 160.561 149.328,166.973 155.999,167.275 156.585 C 167.576 157.170,167.822 158.745,167.822 160.083 C 167.822 165.423,163.034 169.052,157.808 167.675 C 156.166 167.242,154.300 165.542,141.973 153.254 L 128.000 139.324 114.027 153.251 C 102.297 164.943,99.779 167.253,98.347 167.640 C 96.235 168.211,95.762 168.214,93.773 167.661 C 91.850 167.127,89.806 165.475,88.900 163.724 C 88.157 162.287,87.950 159.191,88.466 157.227 C 88.700 156.338,93.065 151.673,102.739 141.973 L 116.676 128.000 102.739 114.027 C 93.065 104.327,88.700 99.662,88.466 98.773 C 87.950 96.809,88.157 93.713,88.900 92.276 C 89.750 90.632,91.891 88.820,93.366 88.496 C 93.993 88.358,94.699 88.177,94.933 88.093 C 95.569 87.867,98.649 88.358,99.627 88.841 " stroke="none" fill-rule="evenodd"></path></svg>