<svg fill="currentColor" viewBox="0 0 256 256" xmlns="http://www.w3.org/2000/svg"><path d="M120.960 24.326 C 100.935 25.586,81.587 32.844,64.891 45.360 C 59.554 49.360,49.234 59.686,45.276 64.986 C 34.512 79.399,27.973 94.882,25.095 112.768 C 23.886 120.283,23.787 134.307,24.890 141.867 C 27.542 160.046,34.293 176.318,45.279 191.014 C 49.299 196.392,59.608 206.701,64.986 210.721 C 79.686 221.710,96.000 228.476,114.133 231.105 C 117.683 231.620,121.936 231.847,128.000 231.847 C 144.598 231.847,158.874 228.583,173.440 221.458 C 184.661 215.968,192.320 210.472,201.396 201.396 C 210.475 192.317,215.974 184.654,221.456 173.440 C 235.707 144.287,235.458 110.173,220.780 81.026 C 214.698 68.950,203.517 55.194,193.067 46.931 C 172.349 30.550,147.221 22.673,120.960 24.326 M136.680 40.986 C 153.353 44.367,166.697 57.160,170.700 73.600 C 175.481 93.239,166.073 113.778,148.053 123.041 C 141.434 126.444,137.485 127.429,128.213 127.990 C 120.599 128.451,115.935 129.217,111.446 130.744 C 95.420 136.195,82.902 149.208,78.120 165.388 C 76.955 169.331,75.952 176.040,75.949 179.916 C 75.944 185.974,77.437 193.494,79.807 199.356 L 80.970 202.231 79.707 201.489 C 76.342 199.511,70.559 194.765,66.093 190.315 C 42.400 166.713,34.141 132.153,44.600 100.371 C 55.287 67.892,84.069 44.508,118.187 40.585 C 124.365 39.875,132.020 40.041,136.680 40.986 M123.372 68.920 C 117.400 71.514,114.395 78.875,116.998 84.537 C 118.476 87.752,119.984 89.373,122.763 90.733 C 127.368 92.986,133.706 91.856,136.747 88.241 C 139.047 85.508,139.718 83.652,139.726 80.000 C 139.732 77.011,139.577 76.304,138.475 74.315 C 137.126 71.881,134.977 69.922,132.531 68.901 C 130.586 68.088,125.263 68.099,123.372 68.920 M132.531 164.901 C 134.977 165.922,137.126 167.881,138.475 170.315 C 139.577 172.304,139.732 173.011,139.726 176.000 C 139.720 178.679,139.518 179.791,138.786 181.170 C 136.410 185.647,132.789 187.909,128.000 187.909 C 123.211 187.909,119.590 185.647,117.214 181.170 C 116.482 179.791,116.280 178.679,116.274 176.000 C 116.268 173.011,116.423 172.304,117.525 170.315 C 118.848 167.927,120.982 165.958,123.372 164.920 C 125.263 164.099,130.586 164.088,132.531 164.901 " stroke="none" fill-rule="evenodd"></path></svg>