<svg fill="currentColor" viewBox="0 0 256 256" xmlns="http://www.w3.org/2000/svg"><path d="M112.427 40.393 C 83.519 41.801,59.411 45.459,42.027 51.075 C 26.828 55.985,22.683 61.301,19.476 80.000 C 16.990 94.502,16.099 107.160,16.099 128.000 C 16.099 148.840,16.990 161.498,19.476 176.000 C 21.521 187.924,23.484 192.865,27.962 197.356 C 31.225 200.630,33.918 202.157,40.298 204.352 C 72.689 215.496,129.269 219.036,176.427 212.869 C 195.742 210.344,216.070 205.294,223.132 201.269 C 226.280 199.474,230.316 195.335,231.974 192.202 C 235.331 185.860,238.031 170.823,239.403 150.827 C 240.043 141.505,240.039 114.068,239.397 104.960 C 238.050 85.861,235.363 70.432,232.349 64.484 C 229.669 59.196,225.186 55.357,218.664 52.767 C 199.250 45.055,161.833 39.949,126.507 40.190 C 120.171 40.233,113.835 40.324,112.427 40.393 M137.912 108.420 C 151.351 117.363,162.678 125.091,163.084 125.593 C 163.489 126.096,163.821 127.179,163.821 128.000 C 163.821 128.821,163.489 129.903,163.084 130.405 C 162.678 130.906,151.356 138.634,137.923 147.578 C 111.358 165.266,111.885 164.985,109.357 162.810 L 108.160 161.781 108.160 128.000 L 108.160 94.219 109.357 93.190 C 111.874 91.025,111.354 90.747,137.912 108.420 " stroke="none" fill-rule="evenodd"></path></svg>