<svg viewBox="0 0 24 24" xmlns="http://www.w3.org/2000/svg"><path d="M8.459 3.064 C 8.233 3.144,8.022 3.329,7.923 3.533 C 7.858 3.667,7.120 6.825,7.120 6.968 C 7.120 6.986,9.316 7.000,12.000 7.000 C 14.684 7.000,16.880 6.991,16.880 6.980 C 16.880 6.894,16.146 3.685,16.103 3.581 C 16.019 3.379,15.757 3.140,15.539 3.066 C 15.365 3.007,15.002 3.000,11.983 3.003 C 9.171 3.006,8.594 3.016,8.459 3.064 M6.217 11.000 L 5.773 13.000 11.999 13.000 L 18.225 13.000 17.781 11.010 L 17.337 9.020 11.998 9.010 L 6.660 9.000 6.217 11.000 M4.901 16.950 C 4.662 18.023,4.459 18.922,4.449 18.950 C 4.436 18.987,4.252 19.000,3.716 19.000 L 3.000 19.000 3.000 20.000 L 3.000 21.000 12.000 21.000 L 21.000 21.000 21.000 20.000 L 21.000 19.000 20.282 19.000 L 19.563 19.000 19.524 18.850 C 19.503 18.768,19.301 17.867,19.076 16.850 L 18.667 15.000 12.000 15.000 L 5.334 15.000 4.901 16.950 " stroke="none" fill-rule="evenodd" fill="black"></path></svg>