<svg viewBox="0 0 24 24" xmlns="http://www.w3.org/2000/svg"><path d="M5.900 4.047 C 5.419 4.139,4.871 4.531,4.614 4.966 C 4.544 5.084,3.928 6.488,3.244 8.087 L 2.000 10.994 2.000 16.067 C 2.000 19.438,2.014 21.190,2.042 21.289 C 2.104 21.512,2.316 21.763,2.539 21.878 C 2.726 21.974,2.779 21.981,3.431 21.993 C 4.256 22.008,4.436 21.966,4.700 21.702 C 4.949 21.454,5.000 21.260,5.000 20.573 L 5.000 20.000 11.997 20.000 L 18.993 20.000 19.007 20.650 C 19.020 21.277,19.024 21.307,19.131 21.489 C 19.377 21.908,19.623 22.000,20.498 22.000 C 21.266 22.000,21.447 21.955,21.701 21.701 C 22.021 21.381,22.000 21.774,22.000 16.069 L 22.000 10.992 20.737 8.046 C 20.043 6.426,19.420 5.015,19.353 4.910 C 19.082 4.486,18.558 4.134,18.063 4.043 C 17.757 3.987,6.194 3.991,5.900 4.047 M18.723 8.440 C 19.294 9.771,19.771 10.892,19.783 10.930 C 19.804 10.997,19.416 11.000,12.003 11.000 C 7.711 11.000,4.200 10.990,4.200 10.977 C 4.200 10.964,4.653 9.898,5.206 8.607 C 5.759 7.316,6.236 6.201,6.267 6.130 L 6.321 6.000 12.003 6.010 L 17.686 6.020 18.723 8.440 M20.000 15.500 L 20.000 18.000 12.000 18.000 L 4.000 18.000 4.000 15.500 L 4.000 13.000 12.000 13.000 L 20.000 13.000 20.000 15.500 M6.150 14.041 C 5.722 14.149,5.343 14.465,5.144 14.880 C 5.034 15.111,5.020 15.180,5.020 15.500 C 5.020 15.811,5.035 15.894,5.133 16.104 C 5.276 16.413,5.585 16.721,5.900 16.868 C 6.107 16.965,6.190 16.980,6.500 16.980 C 6.811 16.980,6.894 16.965,7.104 16.867 C 7.413 16.724,7.721 16.415,7.868 16.100 C 7.965 15.893,7.980 15.810,7.980 15.500 C 7.980 15.189,7.965 15.106,7.867 14.896 C 7.725 14.589,7.414 14.278,7.110 14.139 C 6.852 14.022,6.407 13.976,6.150 14.041 M17.150 14.041 C 16.722 14.149,16.343 14.465,16.144 14.880 C 16.034 15.111,16.020 15.180,16.020 15.500 C 16.020 15.811,16.035 15.894,16.133 16.104 C 16.276 16.413,16.585 16.721,16.900 16.868 C 17.107 16.965,17.190 16.980,17.500 16.980 C 17.811 16.980,17.894 16.965,18.104 16.867 C 18.413 16.724,18.721 16.415,18.868 16.100 C 18.965 15.893,18.980 15.810,18.980 15.500 C 18.980 15.189,18.965 15.106,18.867 14.896 C 18.725 14.589,18.414 14.278,18.110 14.139 C 17.852 14.022,17.407 13.976,17.150 14.041 " stroke="none" fill-rule="evenodd" fill="black"></path></svg>