<svg viewBox="0 0 24 24" xmlns="http://www.w3.org/2000/svg"><path d="M5.905 4.063 C 5.439 4.176,5.011 4.477,4.724 4.894 C 4.637 5.021,4.169 6.218,3.297 8.542 L 2.000 12.000 2.000 16.570 C 2.000 19.595,2.014 21.190,2.042 21.289 C 2.104 21.512,2.316 21.763,2.539 21.878 C 2.726 21.974,2.779 21.981,3.431 21.993 C 4.256 22.008,4.436 21.966,4.700 21.702 C 4.949 21.454,5.000 21.260,5.000 20.573 L 5.000 20.000 11.997 20.000 L 18.993 20.000 19.007 20.650 C 19.020 21.277,19.024 21.307,19.131 21.489 C 19.377 21.908,19.623 22.000,20.498 22.000 C 21.266 22.000,21.447 21.955,21.701 21.701 C 22.019 21.383,22.000 21.714,22.000 16.573 L 22.000 12.000 20.703 8.542 C 19.858 6.289,19.362 5.020,19.280 4.900 C 18.987 4.475,18.557 4.175,18.076 4.062 C 17.703 3.974,6.269 3.975,5.905 4.063 M18.731 8.971 C 19.341 10.604,19.841 11.954,19.841 11.970 C 19.840 12.009,4.160 12.009,4.159 11.970 C 4.159 11.954,4.659 10.604,5.269 8.971 L 6.380 6.001 12.000 6.001 L 17.620 6.001 18.731 8.971 M7.110 14.139 C 7.415 14.278,7.725 14.589,7.866 14.896 C 7.962 15.105,7.978 15.191,7.978 15.500 C 7.979 15.810,7.963 15.893,7.867 16.100 C 7.722 16.415,7.413 16.724,7.104 16.867 C 6.894 16.965,6.811 16.980,6.500 16.980 C 6.190 16.980,6.107 16.965,5.900 16.868 C 5.584 16.721,5.275 16.413,5.134 16.104 C 5.038 15.895,5.022 15.809,5.022 15.500 C 5.021 15.190,5.037 15.107,5.133 14.900 C 5.324 14.489,5.727 14.148,6.150 14.041 C 6.407 13.976,6.852 14.022,7.110 14.139 M18.110 14.139 C 18.415 14.278,18.725 14.589,18.866 14.896 C 18.962 15.105,18.978 15.191,18.978 15.500 C 18.979 15.810,18.963 15.893,18.867 16.100 C 18.722 16.415,18.413 16.724,18.104 16.867 C 17.894 16.965,17.811 16.980,17.500 16.980 C 17.190 16.980,17.107 16.965,16.900 16.868 C 16.584 16.721,16.275 16.413,16.134 16.104 C 16.038 15.895,16.022 15.809,16.022 15.500 C 16.021 15.190,16.037 15.107,16.133 14.900 C 16.324 14.489,16.727 14.148,17.150 14.041 C 17.407 13.976,17.852 14.022,18.110 14.139 " stroke="none" fill-rule="evenodd" fill="black"></path></svg>