<svg viewBox="0 0 24 24" xmlns="http://www.w3.org/2000/svg"><path d="M5.864 3.000 C 5.126 3.753,5.020 3.941,5.021 4.500 C 5.021 4.819,5.035 4.890,5.144 5.120 C 5.301 5.450,5.549 5.699,5.880 5.856 C 6.111 5.966,6.180 5.980,6.500 5.980 C 6.810 5.980,6.893 5.965,7.100 5.868 C 7.416 5.720,7.725 5.413,7.866 5.104 C 7.961 4.896,7.978 4.807,7.979 4.500 C 7.981 3.944,7.878 3.762,7.138 3.004 C 6.814 2.672,6.527 2.400,6.501 2.400 C 6.474 2.400,6.188 2.670,5.864 3.000 M11.373 3.010 C 10.974 3.413,10.735 3.689,10.668 3.822 C 10.292 4.572,10.602 5.484,11.356 5.849 C 11.593 5.965,11.656 5.978,11.980 5.977 C 12.423 5.977,12.686 5.883,12.988 5.619 C 13.353 5.300,13.562 4.718,13.476 4.260 C 13.399 3.846,13.270 3.656,12.630 3.011 C 12.296 2.675,12.013 2.400,12.000 2.400 C 11.987 2.400,11.705 2.675,11.373 3.010 M16.864 3.000 C 16.126 3.753,16.020 3.941,16.021 4.500 C 16.021 4.819,16.035 4.890,16.144 5.120 C 16.301 5.450,16.549 5.699,16.880 5.856 C 17.111 5.966,17.180 5.980,17.500 5.980 C 17.810 5.980,17.893 5.965,18.100 5.868 C 18.416 5.720,18.725 5.413,18.866 5.104 C 18.961 4.896,18.978 4.807,18.979 4.500 C 18.981 3.944,18.878 3.762,18.138 3.004 C 17.814 2.672,17.527 2.400,17.501 2.400 C 17.474 2.400,17.188 2.670,16.864 3.000 M5.720 7.044 C 5.621 7.063,5.405 7.145,5.240 7.226 C 4.715 7.485,4.642 7.584,3.250 9.906 L 2.000 11.992 2.000 17.066 C 2.000 20.438,2.014 22.190,2.042 22.289 C 2.104 22.512,2.316 22.763,2.539 22.878 C 2.726 22.974,2.779 22.981,3.431 22.993 C 4.256 23.008,4.436 22.966,4.700 22.702 C 4.949 22.454,5.000 22.260,5.000 21.573 L 5.000 21.000 11.997 21.000 L 18.993 21.000 19.007 21.650 C 19.020 22.279,19.024 22.306,19.133 22.492 C 19.263 22.713,19.502 22.901,19.732 22.963 C 19.828 22.989,20.175 23.001,20.596 22.993 C 21.282 22.980,21.305 22.977,21.489 22.869 C 21.702 22.744,21.864 22.551,21.943 22.330 C 21.987 22.208,21.997 21.237,21.998 17.086 L 22.000 11.992 20.750 9.906 C 19.358 7.583,19.285 7.484,18.760 7.227 C 18.595 7.146,18.363 7.062,18.245 7.040 C 17.974 6.990,5.979 6.993,5.720 7.044 M18.754 10.477 C 19.241 11.289,19.640 11.964,19.640 11.977 C 19.640 11.990,16.202 12.000,12.000 12.000 C 7.798 12.000,4.360 11.990,4.360 11.977 C 4.360 11.964,4.759 11.289,5.246 10.477 L 6.131 9.000 12.000 9.000 L 17.869 9.000 18.754 10.477 M20.000 16.500 L 20.000 19.000 12.000 19.000 L 4.000 19.000 4.000 16.500 L 4.000 14.000 12.000 14.000 L 20.000 14.000 20.000 16.500 M6.150 15.041 C 5.722 15.149,5.343 15.465,5.144 15.880 C 5.034 16.111,5.020 16.180,5.020 16.500 C 5.020 16.811,5.035 16.894,5.133 17.104 C 5.276 17.413,5.585 17.721,5.900 17.868 C 6.107 17.965,6.190 17.980,6.500 17.980 C 6.811 17.980,6.894 17.965,7.104 17.867 C 7.413 17.724,7.721 17.415,7.868 17.100 C 7.965 16.893,7.980 16.810,7.980 16.500 C 7.980 16.189,7.965 16.106,7.867 15.896 C 7.725 15.589,7.414 15.278,7.110 15.139 C 6.852 15.022,6.407 14.976,6.150 15.041 M17.150 15.041 C 16.722 15.149,16.343 15.465,16.144 15.880 C 16.034 16.111,16.020 16.180,16.020 16.500 C 16.020 16.811,16.035 16.894,16.133 17.104 C 16.276 17.413,16.585 17.721,16.900 17.868 C 17.107 17.965,17.190 17.980,17.500 17.980 C 17.811 17.980,17.894 17.965,18.104 17.867 C 18.413 17.724,18.721 17.415,18.868 17.100 C 18.965 16.893,18.980 16.810,18.980 16.500 C 18.980 16.189,18.965 16.106,18.867 15.896 C 18.725 15.589,18.414 15.278,18.110 15.139 C 17.852 15.022,17.407 14.976,17.150 15.041 " stroke="none" fill-rule="evenodd" fill="black"></path></svg>