<svg viewBox="0 0 24 24" xmlns="http://www.w3.org/2000/svg"><path d="M11.120 2.039 C 8.641 2.287,6.414 3.362,4.761 5.107 C 1.806 8.228,1.158 12.819,3.137 16.623 C 3.620 17.552,4.164 18.288,4.938 19.061 C 5.930 20.051,7.038 20.789,8.272 21.278 C 11.634 22.610,15.313 22.080,18.200 19.845 C 18.637 19.507,19.507 18.637,19.845 18.200 C 21.256 16.378,22.000 14.236,22.000 12.000 C 22.000 7.432,18.842 3.387,14.430 2.303 C 13.446 2.062,12.028 1.948,11.120 2.039 M12.740 4.041 C 15.525 4.302,17.953 5.983,19.182 8.500 C 20.655 11.514,20.091 15.104,17.765 17.530 C 16.248 19.111,14.175 19.999,12.000 19.999 C 8.235 19.999,4.948 17.331,4.177 13.648 C 3.426 10.057,5.201 6.431,8.501 4.817 C 9.822 4.170,11.277 3.904,12.740 4.041 M12.960 9.515 L 10.500 10.502 9.508 12.976 C 8.962 14.336,8.524 15.457,8.533 15.467 C 8.543 15.476,9.664 15.038,11.025 14.492 L 13.500 13.500 14.488 11.040 C 15.032 9.687,15.477 8.566,15.478 8.550 C 15.479 8.534,15.467 8.522,15.450 8.524 C 15.433 8.526,14.313 8.972,12.960 9.515 " stroke="none" fill-rule="evenodd" fill="black"></path></svg>