<svg viewBox="0 0 24 24" xmlns="http://www.w3.org/2000/svg"><path d="M12.120 2.039 C 9.641 2.287,7.414 3.362,5.761 5.107 C 2.806 8.228,2.158 12.819,4.137 16.623 C 4.620 17.552,5.164 18.288,5.938 19.061 C 6.930 20.051,8.038 20.789,9.272 21.278 C 12.634 22.610,16.313 22.080,19.200 19.845 C 19.637 19.507,20.507 18.637,20.845 18.200 C 22.256 16.378,23.000 14.236,23.000 12.000 C 23.000 7.432,19.842 3.387,15.430 2.303 C 14.446 2.062,13.028 1.948,12.120 2.039 M16.902 8.250 C 16.604 9.036,13.553 16.860,13.525 16.910 C 13.486 16.979,13.535 17.099,12.640 14.700 C 12.303 13.798,12.008 13.040,11.984 13.016 C 11.960 12.992,11.085 12.653,10.040 12.262 C 8.995 11.872,8.115 11.539,8.084 11.522 C 8.048 11.501,8.228 11.413,8.604 11.266 C 9.606 10.874,16.980 8.004,16.988 8.002 C 16.993 8.001,16.954 8.113,16.902 8.250 " stroke="none" fill-rule="evenodd" fill="black"></path></svg>