<svg viewBox="0 0 24 24" xmlns="http://www.w3.org/2000/svg"><path d="M11.120 2.042 C 6.668 2.449,3.033 5.728,2.185 10.103 C 1.479 13.748,2.853 17.476,5.760 19.807 C 8.316 21.856,11.751 22.522,14.877 21.574 C 19.860 20.064,22.850 15.016,21.780 9.918 C 21.631 9.212,21.291 8.216,21.000 7.641 L 20.873 7.388 20.123 8.137 L 19.373 8.886 19.506 9.240 C 19.894 10.272,20.067 11.578,19.963 12.680 C 19.773 14.684,18.951 16.397,17.515 17.781 C 16.882 18.391,16.274 18.813,15.471 19.200 C 13.270 20.264,10.730 20.264,8.529 19.200 C 7.706 18.803,7.114 18.389,6.446 17.741 C 5.734 17.052,5.255 16.393,4.817 15.500 C 3.300 12.410,3.952 8.679,6.426 6.278 C 7.108 5.617,7.655 5.232,8.500 4.817 C 10.435 3.867,12.772 3.747,14.760 4.494 L 15.114 4.627 15.863 3.877 L 16.612 3.127 16.405 3.022 C 14.895 2.258,12.872 1.882,11.120 2.042 M14.460 8.120 L 10.580 12.000 11.290 12.710 L 12.000 13.420 15.890 9.530 L 19.780 5.640 19.080 4.940 C 18.696 4.555,18.372 4.240,18.360 4.240 C 18.349 4.240,16.594 5.986,14.460 8.120 " stroke="none" fill-rule="evenodd" fill="black"></path></svg>