<svg viewBox="0 0 24 24" xmlns="http://www.w3.org/2000/svg"><path d="M4.664 3.063 C 4.436 3.146,4.257 3.297,4.131 3.511 L 4.020 3.700 4.020 8.660 L 4.020 13.620 4.131 14.017 C 4.552 15.526,5.707 16.608,7.226 16.917 C 7.618 16.997,7.753 17.000,11.000 17.000 C 14.247 17.000,14.382 16.997,14.774 16.917 C 16.291 16.608,17.463 15.509,17.870 14.012 L 17.977 13.620 17.991 11.810 L 18.004 10.000 19.100 10.000 C 19.746 10.000,20.283 9.982,20.408 9.956 C 21.158 9.799,21.799 9.158,21.956 8.408 C 22.016 8.119,22.016 4.881,21.956 4.592 C 21.797 3.830,21.138 3.181,20.383 3.043 C 20.217 3.013,17.825 3.001,12.483 3.003 C 5.937 3.005,4.797 3.014,4.664 3.063 M20.000 6.500 L 20.000 8.000 19.000 8.000 L 18.000 8.000 18.000 6.500 L 18.000 5.000 19.000 5.000 L 20.000 5.000 20.000 6.500 M2.000 20.000 L 2.000 21.000 11.000 21.000 L 20.000 21.000 20.000 20.000 L 20.000 19.000 11.000 19.000 L 2.000 19.000 2.000 20.000 " stroke="none" fill-rule="evenodd" fill="black"></path></svg>