<svg viewBox="0 0 24 24" xmlns="http://www.w3.org/2000/svg"><path d="M12.000 2.000 L 12.000 3.000 13.500 3.000 L 15.000 3.000 15.000 7.573 C 15.000 12.714,15.019 12.383,14.701 12.701 C 14.421 12.982,14.316 13.000,13.000 13.000 C 11.684 13.000,11.579 12.982,11.299 12.701 C 10.991 12.394,11.000 12.486,11.000 9.500 C 11.000 6.513,11.009 6.607,10.700 6.298 C 10.384 5.982,10.607 5.997,6.437 6.009 L 2.738 6.020 2.539 6.122 C 2.316 6.237,2.104 6.488,2.042 6.711 C 1.982 6.926,1.984 17.121,2.044 17.408 C 2.144 17.889,2.501 18.414,2.898 18.665 C 3.061 18.768,3.077 18.795,3.158 19.098 C 3.434 20.136,4.214 21.070,5.228 21.576 C 7.010 22.465,9.197 21.885,10.316 20.225 C 10.546 19.885,10.645 19.684,10.782 19.280 L 10.870 19.020 12.997 19.020 L 15.124 19.020 15.215 19.282 C 15.881 21.186,17.841 22.305,19.801 21.899 C 21.311 21.586,22.504 20.424,22.889 18.892 C 23.008 18.416,23.010 17.530,22.892 17.080 C 22.849 16.915,22.180 15.041,21.407 12.915 C 20.633 10.789,20.000 9.039,20.000 9.025 C 20.000 9.011,20.450 9.000,21.000 9.000 L 22.000 9.000 22.000 6.000 L 22.000 3.000 19.500 3.000 L 17.000 3.000 17.000 2.427 C 17.000 1.741,16.948 1.546,16.701 1.299 C 16.400 0.998,16.419 1.000,14.073 1.000 L 12.000 1.000 12.000 2.000 M20.000 6.000 L 20.000 7.000 18.500 7.000 L 17.000 7.000 17.000 6.000 L 17.000 5.000 18.500 5.000 L 20.000 5.000 20.000 6.000 M9.000 9.000 L 9.000 10.000 6.500 10.000 L 4.000 10.000 4.000 9.000 L 4.000 8.000 6.500 8.000 L 9.000 8.000 9.000 9.000 M7.383 16.043 C 8.185 16.190,8.839 16.872,8.967 17.695 C 9.153 18.894,8.209 20.000,7.000 20.000 C 6.032 20.000,5.183 19.268,5.033 18.305 C 4.933 17.663,5.132 17.061,5.596 16.596 C 6.085 16.108,6.698 15.918,7.383 16.043 M19.383 16.043 C 20.185 16.190,20.839 16.872,20.967 17.695 C 21.067 18.337,20.868 18.939,20.404 19.404 C 19.341 20.466,17.580 20.039,17.096 18.600 C 17.045 18.447,17.022 18.264,17.022 18.000 C 17.022 17.736,17.045 17.553,17.096 17.400 C 17.425 16.422,18.374 15.859,19.383 16.043 " stroke="none" fill-rule="evenodd" fill="black"></path></svg>