<svg viewBox="0 0 24 24" xmlns="http://www.w3.org/2000/svg"><path d="M11.120 2.039 C 8.641 2.287,6.414 3.362,4.761 5.107 C 1.806 8.228,1.158 12.819,3.137 16.623 C 3.620 17.552,4.164 18.288,4.938 19.061 C 5.930 20.051,7.038 20.789,8.272 21.278 C 11.634 22.610,15.313 22.080,18.200 19.845 C 18.637 19.507,19.507 18.637,19.845 18.200 C 21.256 16.378,22.000 14.236,22.000 12.000 C 22.000 7.432,18.842 3.387,14.430 2.303 C 13.446 2.062,12.028 1.948,11.120 2.039 M12.960 3.898 C 13.213 3.929,13.591 3.992,13.800 4.039 C 14.303 4.152,15.280 4.481,15.280 4.538 C 15.280 4.547,15.105 4.675,14.890 4.824 C 14.351 5.197,13.826 5.617,13.667 5.803 C 13.593 5.889,13.484 6.083,13.425 6.234 C 13.283 6.596,13.122 6.844,12.937 6.985 L 12.786 7.100 11.963 7.103 C 11.035 7.106,10.808 7.148,10.549 7.362 C 10.274 7.590,10.160 7.943,10.160 8.564 C 10.160 9.167,10.322 9.758,10.580 10.097 C 10.724 10.286,10.726 10.591,10.586 10.868 C 10.407 11.221,10.387 11.222,10.087 10.879 C 9.653 10.383,9.248 10.010,9.028 9.902 C 8.913 9.847,8.509 9.729,8.128 9.642 C 7.111 9.407,6.883 9.284,6.805 8.925 C 6.783 8.823,6.756 8.452,6.744 8.100 C 6.716 7.244,6.605 6.857,6.285 6.510 L 6.123 6.335 6.372 6.094 C 7.391 5.106,8.814 4.343,10.214 4.034 C 11.062 3.846,12.104 3.795,12.960 3.898 M15.280 12.167 C 15.505 12.251,15.690 12.429,15.961 12.822 C 16.363 13.404,16.521 13.537,17.241 13.902 C 17.935 14.253,18.148 14.430,18.255 14.743 C 18.399 15.161,18.378 16.524,18.218 17.141 C 18.165 17.349,18.119 17.419,17.868 17.674 C 17.219 18.338,16.417 18.924,15.631 19.310 C 14.999 19.621,15.060 19.655,15.057 18.990 C 15.051 17.745,14.766 17.257,12.711 14.981 C 12.461 14.704,12.349 14.547,12.316 14.427 C 12.235 14.125,12.370 13.102,12.525 12.852 C 12.702 12.565,13.173 12.366,14.060 12.203 C 14.743 12.078,15.018 12.070,15.280 12.167 " stroke="none" fill-rule="evenodd" fill="black"></path></svg>