<svg viewBox="0 0 24 24" xmlns="http://www.w3.org/2000/svg"><path d="M11.120 2.039 C 8.641 2.287,6.414 3.362,4.761 5.107 C 1.806 8.228,1.158 12.819,3.137 16.623 C 3.620 17.552,4.164 18.288,4.938 19.061 C 5.930 20.051,7.038 20.789,8.272 21.278 C 11.634 22.610,15.313 22.080,18.200 19.845 C 18.637 19.507,19.507 18.637,19.845 18.200 C 21.256 16.378,22.000 14.236,22.000 12.000 C 22.000 7.432,18.842 3.387,14.430 2.303 C 13.446 2.062,12.028 1.948,11.120 2.039 M15.527 4.823 C 17.903 6.017,19.504 8.207,19.907 10.814 C 19.992 11.362,20.001 12.534,19.925 13.080 C 19.807 13.929,19.509 14.870,19.113 15.648 C 18.918 16.030,18.398 16.852,18.321 16.900 C 18.295 16.916,18.291 16.836,18.310 16.672 C 18.327 16.533,18.340 16.096,18.340 15.700 C 18.340 14.545,18.264 14.420,17.242 13.902 C 16.538 13.546,16.374 13.411,16.026 12.903 C 15.575 12.243,15.362 12.103,14.820 12.110 C 14.192 12.118,13.112 12.384,12.765 12.616 C 12.514 12.784,12.419 12.993,12.337 13.560 C 12.267 14.048,12.277 14.402,12.366 14.571 C 12.396 14.628,12.658 14.933,12.948 15.249 C 13.926 16.313,14.561 17.131,14.782 17.614 C 15.000 18.089,15.160 19.136,15.047 19.347 C 15.016 19.404,14.871 19.473,14.571 19.573 C 13.174 20.037,11.781 20.124,10.387 19.835 C 6.964 19.126,4.401 16.285,4.041 12.800 C 3.854 10.997,4.334 9.080,5.354 7.555 C 5.674 7.076,6.158 6.500,6.240 6.500 C 6.322 6.500,6.507 6.784,6.605 7.060 C 6.671 7.248,6.700 7.479,6.739 8.120 C 6.766 8.571,6.806 8.985,6.830 9.040 C 6.941 9.306,7.206 9.429,8.128 9.642 C 8.509 9.729,8.913 9.847,9.028 9.902 C 9.247 10.010,9.652 10.382,10.088 10.880 C 10.348 11.176,10.352 11.179,10.433 11.106 C 10.564 10.988,10.690 10.678,10.695 10.460 C 10.699 10.291,10.677 10.226,10.551 10.040 C 10.269 9.623,10.130 8.996,10.173 8.339 C 10.205 7.855,10.312 7.567,10.531 7.379 C 10.802 7.148,11.017 7.106,11.963 7.103 L 12.786 7.100 12.937 6.985 C 13.118 6.847,13.273 6.612,13.424 6.248 C 13.571 5.891,13.673 5.760,14.029 5.467 C 14.278 5.262,15.114 4.647,15.151 4.642 C 15.157 4.641,15.326 4.722,15.527 4.823 " stroke="none" fill-rule="evenodd" fill="black"></path></svg>