<svg viewBox="0 0 24 24" xmlns="http://www.w3.org/2000/svg"><path d="M3.000 4.000 L 3.000 5.001 7.000 9.445 L 11.000 13.889 11.000 16.444 L 11.000 19.000 8.500 19.000 L 6.000 19.000 6.000 20.000 L 6.000 21.000 12.000 21.000 L 18.000 21.000 18.000 20.000 L 18.000 19.000 15.500 19.000 L 13.000 19.000 13.000 16.444 L 13.000 13.889 17.000 9.445 L 21.000 5.001 21.000 4.000 L 21.000 3.000 12.000 3.000 L 3.000 3.000 3.000 4.000 M18.232 5.073 C 18.204 5.113,17.804 5.563,17.344 6.073 L 16.508 7.000 12.000 7.000 L 7.492 7.000 6.656 6.073 C 6.196 5.563,5.796 5.113,5.768 5.073 C 5.717 5.002,5.930 5.000,12.000 5.000 C 18.070 5.000,18.283 5.002,18.232 5.073 M14.635 9.069 C 14.488 9.255,12.021 11.980,12.000 11.980 C 11.979 11.980,9.512 9.255,9.365 9.069 C 9.313 9.004,9.454 9.000,12.000 9.000 C 14.546 9.000,14.687 9.004,14.635 9.069 " stroke="none" fill-rule="evenodd" fill="black"></path></svg>