<svg viewBox="0 0 24 24" xmlns="http://www.w3.org/2000/svg"><path d="M17.000 3.497 L 17.000 4.995 15.230 5.010 C 13.265 5.028,13.304 5.023,12.704 5.312 C 12.008 5.646,11.459 6.236,11.202 6.925 C 10.999 7.469,11.001 7.402,11.001 11.923 C 11.000 16.672,11.018 16.384,10.701 16.701 C 10.420 16.982,10.316 17.000,8.992 17.000 L 7.839 17.000 7.742 16.780 C 7.376 15.953,6.590 15.303,5.680 15.075 C 5.354 14.993,4.563 15.006,4.240 15.098 C 3.728 15.243,3.249 15.522,2.885 15.885 C 1.545 17.224,1.761 19.418,3.339 20.493 C 4.852 21.522,6.998 20.902,7.742 19.220 L 7.839 19.000 9.061 19.000 C 10.397 19.000,10.645 18.972,11.150 18.767 C 11.850 18.482,12.482 17.850,12.767 17.150 C 13.005 16.565,13.000 16.673,13.000 12.069 C 13.000 7.329,12.982 7.616,13.299 7.299 C 13.591 7.006,13.638 7.000,15.427 7.000 L 17.000 7.000 17.000 8.500 L 17.000 10.000 19.480 8.016 C 20.844 6.925,21.960 6.018,21.960 6.000 C 21.960 5.982,20.844 5.075,19.480 3.984 L 17.000 2.000 17.000 3.497 M5.340 17.066 C 5.709 17.192,6.000 17.604,6.000 18.000 C 6.000 18.527,5.527 19.000,5.000 19.000 C 4.758 19.000,4.479 18.881,4.299 18.701 C 3.907 18.309,3.908 17.690,4.300 17.298 C 4.577 17.020,4.957 16.936,5.340 17.066 " stroke="none" fill-rule="evenodd" fill="black"></path></svg>