<svg viewBox="0 0 24 24" xmlns="http://www.w3.org/2000/svg"><path d="M8.664 3.063 C 8.436 3.146,8.257 3.297,8.131 3.511 L 8.020 3.700 8.008 4.849 L 7.996 5.998 5.867 6.009 L 3.738 6.020 3.539 6.122 C 3.316 6.237,3.104 6.488,3.042 6.711 C 3.014 6.811,3.000 8.872,3.000 12.930 L 3.000 19.000 2.000 19.000 L 1.000 19.000 1.000 20.000 L 1.000 21.000 12.000 21.000 L 23.000 21.000 23.000 20.000 L 23.000 19.000 22.000 19.000 L 21.000 19.000 21.000 12.927 C 21.000 6.106,21.023 6.621,20.701 6.299 C 20.400 5.998,20.419 6.000,18.073 6.000 L 16.000 6.000 16.000 4.927 C 16.000 3.692,15.979 3.577,15.701 3.299 C 15.389 2.987,15.547 3.000,11.983 3.003 C 9.342 3.005,8.794 3.015,8.664 3.063 M14.000 5.500 L 14.000 6.000 12.000 6.000 L 10.000 6.000 10.000 5.500 L 10.000 5.000 12.000 5.000 L 14.000 5.000 14.000 5.500 M8.000 13.500 L 8.000 19.000 6.500 19.000 L 5.000 19.000 5.000 13.500 L 5.000 8.000 6.500 8.000 L 8.000 8.000 8.000 13.500 M14.000 13.500 L 14.000 19.000 12.000 19.000 L 10.000 19.000 10.000 13.500 L 10.000 8.000 12.000 8.000 L 14.000 8.000 14.000 13.500 M19.000 13.500 L 19.000 19.000 17.500 19.000 L 16.000 19.000 16.000 13.500 L 16.000 8.000 17.500 8.000 L 19.000 8.000 19.000 13.500 " stroke="none" fill-rule="evenodd" fill="black"></path></svg>