<svg viewBox="0 0 24 24" xmlns="http://www.w3.org/2000/svg"><path d="M1.470 2.470 L 0.760 3.181 2.380 4.800 L 3.999 6.419 4.009 12.359 L 4.020 18.300 4.131 18.489 C 4.192 18.592,4.301 18.723,4.374 18.778 C 4.684 19.014,4.161 19.000,12.425 19.000 L 20.000 19.000 20.000 18.000 L 20.000 17.000 13.000 17.000 L 6.000 17.000 6.000 11.290 L 6.000 5.580 4.090 3.670 L 2.179 1.760 1.470 2.470 M11.664 3.063 C 11.436 3.146,11.257 3.297,11.131 3.511 L 11.020 3.700 11.008 4.850 L 10.995 6.000 9.425 6.000 C 7.638 6.000,7.591 6.007,7.299 6.299 C 6.982 6.616,7.000 6.337,7.000 11.000 C 7.000 15.663,6.982 15.384,7.299 15.701 C 7.621 16.023,7.097 16.000,14.000 16.000 C 20.903 16.000,20.379 16.023,20.701 15.701 C 21.018 15.384,21.000 15.663,21.000 11.000 C 21.000 6.375,21.014 6.614,20.723 6.323 C 20.415 6.015,20.455 6.021,18.630 6.008 L 17.000 5.997 17.000 4.925 C 17.000 3.692,16.979 3.577,16.701 3.299 C 16.398 2.996,16.430 3.000,13.983 3.003 C 12.210 3.005,11.792 3.016,11.664 3.063 M15.000 5.500 L 15.000 6.000 14.000 6.000 L 13.000 6.000 13.000 5.500 L 13.000 5.000 14.000 5.000 L 15.000 5.000 15.000 5.500 M11.000 11.000 L 11.000 14.000 10.500 14.000 L 10.000 14.000 10.000 11.000 L 10.000 8.000 10.500 8.000 L 11.000 8.000 11.000 11.000 M18.000 11.000 L 18.000 14.000 17.500 14.000 L 17.000 14.000 17.000 11.000 L 17.000 8.000 17.500 8.000 L 18.000 8.000 18.000 11.000 M5.150 20.041 C 4.722 20.149,4.343 20.465,4.144 20.880 C 4.034 21.111,4.020 21.180,4.020 21.500 C 4.020 21.811,4.035 21.894,4.133 22.104 C 4.276 22.413,4.585 22.721,4.900 22.868 C 5.107 22.965,5.190 22.980,5.500 22.980 C 5.811 22.980,5.894 22.965,6.104 22.867 C 6.413 22.724,6.721 22.415,6.868 22.100 C 6.965 21.893,6.980 21.810,6.980 21.500 C 6.980 21.189,6.965 21.106,6.867 20.896 C 6.725 20.589,6.414 20.278,6.110 20.139 C 5.852 20.022,5.407 19.976,5.150 20.041 M18.150 20.041 C 17.722 20.149,17.343 20.465,17.144 20.880 C 17.034 21.111,17.020 21.180,17.020 21.500 C 17.020 21.811,17.035 21.894,17.133 22.104 C 17.276 22.413,17.585 22.721,17.900 22.868 C 18.107 22.965,18.190 22.980,18.500 22.980 C 18.811 22.980,18.894 22.965,19.104 22.867 C 19.413 22.724,19.721 22.415,19.868 22.100 C 19.965 21.893,19.980 21.810,19.980 21.500 C 19.980 21.189,19.965 21.106,19.867 20.896 C 19.725 20.589,19.414 20.278,19.110 20.139 C 18.852 20.022,18.407 19.976,18.150 20.041 " stroke="none" fill-rule="evenodd" fill="black"></path></svg>