<svg viewBox="0 0 24 24" xmlns="http://www.w3.org/2000/svg"><path d="M11.320 2.025 C 9.052 2.233,7.105 3.154,5.551 4.754 C 4.203 6.142,3.395 7.788,3.094 9.760 C 2.950 10.705,3.010 12.024,3.244 13.040 C 3.847 15.661,5.703 17.971,8.128 19.118 C 8.933 19.499,9.838 19.779,10.627 19.893 L 10.980 19.944 10.990 21.972 L 11.001 24.000 12.000 24.000 L 12.999 24.000 13.010 21.972 L 13.020 19.944 13.368 19.894 C 14.558 19.722,15.955 19.183,16.972 18.504 C 19.084 17.093,20.470 14.939,20.901 12.399 C 20.991 11.866,21.023 10.675,20.961 10.114 C 20.812 8.751,20.411 7.530,19.750 6.420 C 18.831 4.879,17.554 3.705,15.940 2.918 C 15.074 2.496,14.265 2.244,13.320 2.101 C 12.909 2.039,11.676 1.992,11.320 2.025 M12.686 4.042 C 14.238 4.199,15.639 4.834,16.793 5.902 C 17.782 6.817,18.558 8.192,18.841 9.529 C 19.093 10.723,19.019 12.072,18.639 13.211 C 18.054 14.963,16.783 16.427,15.125 17.258 C 11.887 18.881,7.938 17.752,6.039 14.660 C 4.538 12.217,4.688 9.083,6.416 6.787 C 7.877 4.846,10.272 3.797,12.686 4.042 " stroke="none" fill-rule="evenodd" fill="black"></path></svg>