<svg viewBox="0 0 24 24" xmlns="http://www.w3.org/2000/svg"><path d="M5.500 3.500 L 2.020 4.994 2.010 13.161 C 1.999 22.366,1.970 21.538,2.309 21.688 C 2.459 21.755,2.503 21.759,2.632 21.716 C 2.713 21.690,4.180 21.068,5.892 20.335 L 9.003 19.002 12.003 20.502 L 15.003 22.002 18.491 20.507 L 21.980 19.012 21.990 10.842 C 22.001 1.864,22.018 2.499,21.763 2.348 C 21.700 2.311,21.581 2.280,21.501 2.280 C 21.396 2.280,20.430 2.676,18.178 3.641 L 15.003 5.002 12.002 3.501 C 10.351 2.675,8.996 2.001,8.990 2.003 C 8.985 2.004,7.414 2.678,5.500 3.500 M7.999 10.930 L 7.998 17.260 6.035 18.100 C 4.955 18.562,4.055 18.946,4.035 18.953 C 4.015 18.961,4.004 16.322,4.010 12.641 L 4.020 6.314 6.000 5.461 C 7.089 4.992,7.985 4.606,7.990 4.604 C 7.995 4.602,8.000 7.449,7.999 10.930 M12.020 5.750 L 14.000 6.740 14.000 12.990 C 14.000 16.427,13.991 19.240,13.980 19.240 C 13.969 19.240,13.069 18.795,11.980 18.250 L 10.000 17.260 10.000 11.010 C 10.000 7.573,10.009 4.760,10.020 4.760 C 10.031 4.760,10.931 5.205,12.020 5.750 M19.970 17.684 C 19.954 17.699,19.067 18.085,18.000 18.541 C 16.933 18.996,16.047 19.377,16.030 19.387 C 16.014 19.397,16.000 16.555,16.001 13.072 L 16.001 6.740 17.991 5.892 L 19.980 5.044 19.990 11.350 C 19.996 14.818,19.987 17.668,19.970 17.684 " stroke="none" fill-rule="evenodd" fill="black"></path></svg>