<svg viewBox="0 0 24 24" xmlns="http://www.w3.org/2000/svg"><path d="M6.000 11.998 L 6.000 21.000 7.000 21.000 L 8.000 21.000 8.000 18.002 L 8.000 15.004 10.890 14.991 C 13.702 14.978,13.791 14.975,14.174 14.889 C 16.618 14.339,18.351 12.606,18.887 10.174 C 19.013 9.603,19.013 8.397,18.887 7.826 C 18.342 5.356,16.551 3.599,14.060 3.092 C 13.781 3.035,13.249 3.025,9.870 3.011 L 6.000 2.996 6.000 11.998 M13.958 5.114 C 14.642 5.294,15.335 5.689,15.823 6.177 C 16.321 6.675,16.716 7.376,16.887 8.062 C 17.013 8.571,17.013 9.429,16.887 9.938 C 16.531 11.368,15.441 12.478,14.005 12.873 L 13.620 12.979 10.810 12.991 L 8.000 13.003 8.000 9.000 L 8.000 4.996 10.810 5.010 C 13.566 5.024,13.627 5.026,13.958 5.114 " stroke="none" fill-rule="evenodd" fill="black"></path></svg>