<svg viewBox="0 0 24 24" xmlns="http://www.w3.org/2000/svg"><path d="M6.834 1.046 C 5.312 1.220,3.812 2.132,2.966 3.398 C 2.639 3.886,2.467 4.231,2.300 4.734 C 2.108 5.314,2.035 5.707,2.011 6.300 C 1.964 7.475,2.293 8.610,2.973 9.620 C 3.169 9.912,3.623 10.389,5.358 12.131 L 7.500 14.283 9.642 12.131 C 11.899 9.865,12.056 9.686,12.417 8.966 C 12.596 8.610,12.809 7.980,12.907 7.520 C 13.008 7.044,13.008 5.956,12.907 5.480 C 12.811 5.026,12.597 4.391,12.426 4.051 C 12.063 3.331,11.419 2.563,10.783 2.092 C 9.655 1.256,8.249 0.883,6.834 1.046 M8.086 4.599 C 8.928 4.859,9.480 5.612,9.480 6.500 C 9.480 7.962,7.985 8.921,6.667 8.306 C 5.215 7.628,5.116 5.589,6.497 4.780 C 6.948 4.516,7.583 4.443,8.086 4.599 M15.980 10.028 C 14.738 10.141,13.517 10.719,12.620 11.619 C 11.829 12.412,11.332 13.340,11.099 14.460 C 10.995 14.956,10.978 15.736,11.057 16.275 C 11.134 16.794,11.360 17.522,11.580 17.961 C 11.945 18.687,12.098 18.862,14.358 21.131 L 16.500 23.283 18.642 21.131 C 20.899 18.865,21.056 18.686,21.417 17.966 C 21.596 17.610,21.809 16.980,21.907 16.520 C 22.008 16.044,22.008 14.956,21.907 14.480 C 21.811 14.026,21.597 13.391,21.426 13.051 C 21.064 12.333,20.409 11.551,19.783 11.090 C 18.693 10.288,17.325 9.906,15.980 10.028 M17.086 13.599 C 17.928 13.859,18.480 14.612,18.480 15.500 C 18.480 16.962,16.985 17.921,15.667 17.306 C 14.215 16.628,14.116 14.589,15.497 13.780 C 15.948 13.516,16.583 13.443,17.086 13.599 " stroke="none" fill-rule="evenodd" fill="black"></path></svg>