<svg viewBox="0 0 24 24" xmlns="http://www.w3.org/2000/svg"><path d="M13.110 2.390 C 12.741 2.759,12.440 3.078,12.440 3.100 C 12.440 3.121,12.593 3.292,12.780 3.480 L 13.119 3.821 11.005 5.935 L 8.890 8.050 7.115 8.405 L 5.340 8.760 4.630 9.470 L 3.920 10.180 6.040 12.300 L 8.160 14.420 5.690 16.890 L 3.220 19.360 3.930 20.070 L 4.640 20.780 7.110 18.310 L 9.580 15.840 11.700 17.960 L 13.820 20.080 14.530 19.370 L 15.240 18.660 15.595 16.885 L 15.950 15.110 18.065 12.995 L 20.179 10.881 20.540 11.240 L 20.901 11.600 21.610 10.890 L 22.320 10.180 18.090 5.950 C 15.763 3.623,13.842 1.720,13.819 1.720 C 13.797 1.720,13.478 2.022,13.110 2.390 " stroke="none" fill-rule="evenodd" fill="black"></path></svg>