<svg viewBox="0 0 24 24" xmlns="http://www.w3.org/2000/svg"><path d="M18.057 3.765 C 16.808 3.854,15.418 4.589,14.336 5.732 C 12.947 7.200,12.329 9.114,12.787 10.535 L 12.850 10.730 8.185 15.395 L 3.520 20.060 4.230 20.770 L 4.940 21.480 8.470 17.950 L 12.000 14.420 15.530 17.950 L 19.060 21.480 19.770 20.770 L 20.480 20.060 16.950 16.530 L 13.420 13.000 13.845 12.575 L 14.270 12.150 14.465 12.213 C 15.391 12.511,16.513 12.365,17.660 11.796 C 19.414 10.927,20.801 9.197,21.183 7.400 C 21.285 6.920,21.278 6.165,21.167 5.752 C 20.947 4.933,20.484 4.367,19.751 4.019 C 19.277 3.794,18.756 3.716,18.057 3.765 M3.920 4.150 C 3.605 4.551,3.305 5.156,3.173 5.660 C 3.083 6.003,3.068 6.142,3.068 6.640 C 3.068 7.135,3.083 7.276,3.170 7.605 C 3.293 8.064,3.485 8.495,3.746 8.890 C 3.885 9.100,4.514 9.760,6.018 11.271 L 8.098 13.362 9.519 11.941 L 10.940 10.520 7.600 7.180 C 5.763 5.343,4.239 3.840,4.212 3.840 C 4.186 3.840,4.054 3.979,3.920 4.150 " stroke="none" fill-rule="evenodd" fill="black"></path></svg>