<svg viewBox="0 0 24 24" xmlns="http://www.w3.org/2000/svg"><path d="M20.200 2.060 C 19.263 2.189,18.446 2.499,17.660 3.025 C 16.356 3.896,15.492 5.179,15.111 6.809 C 15.026 7.174,15.024 7.244,15.011 11.090 L 14.997 15.000 16.998 15.000 L 19.000 15.000 19.000 18.500 L 19.000 22.000 20.000 22.000 L 21.000 22.000 21.000 12.000 L 21.000 2.000 20.790 2.004 C 20.674 2.006,20.409 2.032,20.200 2.060 M3.010 6.370 L 3.023 9.740 3.131 10.152 C 3.400 11.173,3.861 11.961,4.592 12.648 C 4.959 12.993,5.357 13.271,5.776 13.476 C 6.123 13.645,6.790 13.880,6.924 13.880 C 6.998 13.880,7.000 13.971,7.000 17.940 L 7.000 22.000 8.000 22.000 L 9.000 22.000 9.000 17.940 C 9.000 13.971,9.002 13.880,9.076 13.880 C 9.118 13.880,9.318 13.826,9.521 13.760 C 11.202 13.210,12.406 11.913,12.869 10.152 L 12.977 9.740 12.990 6.370 L 13.003 3.000 12.002 3.000 L 11.000 3.000 11.000 6.500 L 11.000 10.000 10.000 10.000 L 9.000 10.000 9.000 6.500 L 9.000 3.000 8.000 3.000 L 7.000 3.000 7.000 6.500 L 7.000 10.000 6.000 10.000 L 5.000 10.000 5.000 6.500 L 5.000 3.000 3.998 3.000 L 2.997 3.000 3.010 6.370 M19.000 8.780 L 19.000 13.000 17.998 13.000 L 16.996 13.000 17.009 10.190 L 17.022 7.380 17.129 6.989 C 17.299 6.365,17.640 5.749,18.081 5.266 C 18.284 5.044,18.888 4.560,18.962 4.560 C 18.986 4.560,19.000 6.178,19.000 8.780 " stroke="none" fill-rule="evenodd" fill="black"></path></svg>