<svg viewBox="0 0 24 24" xmlns="http://www.w3.org/2000/svg"><path d="M5.911 4.062 C 5.455 4.173,5.075 4.428,4.781 4.821 C 4.624 5.031,4.469 5.416,3.491 8.029 L 2.380 10.999 1.380 10.999 C 0.459 11.000,0.370 11.007,0.252 11.078 C 0.025 11.217,-0.009 11.340,0.007 11.955 C 0.024 12.576,0.072 12.715,0.355 12.970 C 0.528 13.127,0.618 13.159,1.450 13.363 L 2.000 13.497 2.000 17.319 C 2.000 19.828,2.015 21.191,2.042 21.289 C 2.104 21.512,2.316 21.763,2.539 21.878 C 2.726 21.974,2.779 21.981,3.431 21.993 C 4.256 22.008,4.436 21.966,4.700 21.702 C 4.949 21.454,5.000 21.260,5.000 20.573 L 5.000 20.000 11.997 20.000 L 18.993 20.000 19.007 20.650 C 19.020 21.277,19.024 21.307,19.131 21.489 C 19.377 21.908,19.623 22.000,20.498 22.000 C 21.266 22.000,21.447 21.955,21.701 21.701 C 22.016 21.386,22.000 21.625,22.000 17.321 L 22.000 13.497 22.550 13.363 C 23.382 13.159,23.472 13.127,23.645 12.970 C 23.928 12.715,23.976 12.576,23.993 11.955 C 24.009 11.340,23.975 11.217,23.748 11.078 C 23.630 11.007,23.541 11.000,22.620 10.999 L 21.620 10.999 20.509 8.029 C 19.555 5.481,19.374 5.028,19.229 4.835 C 18.920 4.423,18.544 4.172,18.071 4.060 C 17.707 3.975,6.265 3.976,5.911 4.062 M18.797 8.410 C 19.419 10.276,19.600 10.865,19.599 11.020 C 19.598 11.376,19.387 11.717,19.060 11.894 L 18.900 11.980 12.000 11.980 L 5.100 11.980 4.940 11.894 C 4.615 11.718,4.402 11.376,4.401 11.025 C 4.400 10.878,4.590 10.254,5.181 8.465 C 5.611 7.164,5.970 6.078,5.980 6.050 C 5.994 6.010,7.233 6.000,11.995 6.000 L 17.993 6.000 18.797 8.410 M5.439 15.125 C 6.725 15.337,7.721 15.895,8.358 16.758 C 8.715 17.244,8.793 17.503,8.659 17.761 C 8.536 18.000,8.534 18.000,6.609 18.000 C 4.617 18.000,4.595 17.997,4.299 17.701 C 4.021 17.423,4.000 17.309,4.000 16.067 L 4.000 14.989 4.470 15.016 C 4.729 15.031,5.164 15.080,5.439 15.125 M20.000 16.073 C 20.000 17.308,19.979 17.423,19.701 17.701 C 19.405 17.997,19.383 18.000,17.391 18.000 C 15.466 18.000,15.464 18.000,15.341 17.761 C 15.207 17.503,15.285 17.244,15.642 16.758 C 16.454 15.656,17.883 15.047,19.750 15.006 L 20.000 15.000 20.000 16.073 " stroke="none" fill-rule="evenodd" fill="black"></path></svg>