<svg viewBox="0 0 24 24" xmlns="http://www.w3.org/2000/svg"><path d="M11.540 2.034 C 10.434 2.568,9.538 3.216,8.577 4.177 C 7.176 5.579,6.253 7.094,5.625 9.020 C 4.959 11.067,4.822 13.399,5.244 15.515 C 5.313 15.861,5.318 15.939,5.274 15.981 C 5.244 16.008,4.779 16.422,4.240 16.900 C 3.701 17.377,3.236 17.813,3.206 17.869 C 3.139 17.996,3.137 18.201,3.201 18.325 C 3.228 18.377,3.797 19.332,4.465 20.446 C 5.176 21.632,5.731 22.516,5.803 22.576 C 5.896 22.654,5.971 22.680,6.106 22.680 C 6.284 22.680,6.291 22.675,7.033 21.963 C 7.444 21.569,8.014 21.010,8.300 20.720 C 8.586 20.431,8.892 20.155,8.980 20.107 L 9.140 20.020 12.000 20.020 L 14.860 20.020 15.040 20.115 C 15.153 20.175,15.679 20.666,16.463 21.445 C 17.704 22.679,17.705 22.680,17.876 22.680 C 17.971 22.680,18.099 22.650,18.162 22.613 C 18.244 22.564,18.619 21.972,19.513 20.483 C 20.193 19.348,20.772 18.377,20.799 18.325 C 20.863 18.200,20.861 17.995,20.794 17.869 C 20.764 17.813,20.299 17.377,19.760 16.900 C 19.221 16.422,18.756 16.008,18.726 15.981 C 18.682 15.939,18.687 15.861,18.756 15.515 C 19.052 14.032,19.075 12.366,18.820 10.857 C 18.541 9.208,17.949 7.618,17.118 6.287 C 16.168 4.765,14.745 3.350,13.300 2.489 C 12.816 2.201,12.094 1.841,12.000 1.841 C 11.967 1.841,11.760 1.928,11.540 2.034 M12.383 9.043 C 13.168 9.187,13.823 9.855,13.962 10.655 C 14.172 11.864,13.222 13.000,12.000 13.000 C 11.032 13.000,10.183 12.268,10.033 11.305 C 9.933 10.663,10.132 10.061,10.596 9.596 C 11.085 9.108,11.698 8.918,12.383 9.043 " stroke="none" fill-rule="evenodd" fill="black"></path></svg>