<svg viewBox="0 0 24 24" xmlns="http://www.w3.org/2000/svg"><path d="M12.879 1.611 C 12.341 1.795,11.929 2.162,11.694 2.667 C 10.917 4.337,12.663 6.083,14.333 5.306 C 15.757 4.644,15.898 2.682,14.583 1.832 C 14.091 1.514,13.419 1.427,12.879 1.611 M11.612 6.042 C 11.519 6.060,10.219 6.520,8.722 7.065 L 6.000 8.054 6.000 10.527 L 6.000 13.000 7.000 13.000 L 8.000 13.000 8.000 11.228 L 8.000 9.456 8.905 9.126 C 9.403 8.945,9.814 8.802,9.818 8.808 C 9.828 8.822,8.392 16.973,8.377 16.993 C 8.371 17.001,7.267 16.814,5.923 16.577 C 4.579 16.341,3.472 16.155,3.463 16.164 C 3.436 16.190,3.109 18.083,3.128 18.101 C 3.176 18.150,9.976 19.319,9.998 19.283 C 10.012 19.260,10.228 18.310,10.478 17.171 C 10.728 16.032,10.940 15.086,10.949 15.069 C 10.958 15.052,11.423 15.483,11.983 16.026 L 13.000 17.014 13.000 20.007 L 13.000 23.000 14.000 23.000 L 15.000 23.000 14.999 19.330 L 14.998 15.660 14.019 14.720 C 13.420 14.144,13.041 13.751,13.040 13.704 C 13.040 13.638,13.529 10.801,13.580 10.573 C 13.597 10.498,13.662 10.548,14.070 10.953 C 14.978 11.855,16.042 12.462,17.274 12.783 C 17.691 12.891,18.448 13.000,18.782 13.000 L 19.000 13.000 19.000 12.006 L 19.000 11.012 18.630 10.986 C 17.678 10.919,16.650 10.517,15.894 9.915 C 15.523 9.620,15.030 9.075,14.880 8.794 C 14.808 8.659,14.662 8.305,14.556 8.008 C 14.325 7.363,14.182 7.114,13.854 6.786 C 13.250 6.182,12.374 5.891,11.612 6.042 " stroke="none" fill-rule="evenodd" fill="black"></path></svg>