<svg viewBox="0 0 24 24" xmlns="http://www.w3.org/2000/svg"><path d="M11.120 2.039 C 9.316 2.220,7.707 2.807,6.280 3.806 C 3.483 5.764,1.889 8.960,2.013 12.360 C 2.089 14.441,2.768 16.350,4.033 18.040 C 4.641 18.851,6.026 20.158,6.142 20.030 C 6.167 20.002,6.400 19.614,6.659 19.167 L 7.131 18.354 6.975 18.229 C 6.650 17.967,6.057 17.365,5.760 16.994 C 5.067 16.132,4.550 15.108,4.277 14.060 C 4.070 13.267,4.025 12.893,4.026 12.000 C 4.026 11.106,4.073 10.722,4.277 9.940 C 4.988 7.210,7.205 4.990,9.927 4.281 C 10.726 4.072,11.103 4.026,12.000 4.026 C 12.897 4.026,13.274 4.072,14.073 4.281 C 16.794 4.989,19.012 7.211,19.723 9.940 C 19.927 10.725,19.974 11.106,19.974 12.000 C 19.974 12.894,19.927 13.275,19.723 14.060 C 19.444 15.129,18.887 16.213,18.166 17.091 C 17.923 17.387,17.303 18.005,17.025 18.229 L 16.869 18.354 17.341 19.167 C 17.600 19.614,17.833 20.002,17.858 20.030 C 17.974 20.158,19.359 18.851,19.967 18.040 C 20.409 17.448,20.713 16.949,21.023 16.300 C 21.942 14.376,22.222 12.192,21.815 10.103 C 21.073 6.292,18.165 3.221,14.430 2.303 C 13.446 2.062,12.028 1.948,11.120 2.039 M11.200 6.060 C 9.728 6.263,8.382 6.995,7.449 8.100 C 6.764 8.912,6.348 9.761,6.111 10.830 C 5.986 11.395,5.986 12.605,6.111 13.170 C 6.397 14.459,7.098 15.698,7.955 16.429 L 8.154 16.599 8.657 15.737 C 8.934 15.263,9.160 14.865,9.160 14.854 C 9.160 14.842,9.082 14.740,8.986 14.626 C 8.582 14.145,8.267 13.536,8.116 12.940 C 7.985 12.421,7.984 11.571,8.115 11.060 C 8.295 10.358,8.675 9.685,9.177 9.179 C 9.669 8.682,10.373 8.285,11.062 8.113 C 11.571 7.987,12.429 7.987,12.938 8.113 C 13.348 8.215,13.914 8.472,14.285 8.723 C 14.611 8.945,15.055 9.389,15.277 9.715 C 16.317 11.247,16.212 13.201,15.014 14.626 C 14.918 14.740,14.840 14.842,14.840 14.854 C 14.840 14.865,15.066 15.263,15.343 15.737 L 15.847 16.599 16.054 16.420 C 16.669 15.889,17.294 14.962,17.618 14.101 C 18.015 13.046,18.103 11.823,17.860 10.742 C 17.720 10.122,17.605 9.804,17.314 9.238 C 16.166 7.003,13.693 5.718,11.200 6.060 M10.981 13.170 C 10.961 13.311,10.000 21.951,10.000 21.988 C 10.000 21.995,10.900 22.000,12.000 22.000 C 13.100 22.000,14.000 21.995,14.000 21.988 C 14.000 21.951,13.039 13.311,13.019 13.170 L 12.995 13.000 12.000 13.000 L 11.005 13.000 10.981 13.170 " stroke="none" fill-rule="evenodd" fill="black"></path></svg>