<svg viewBox="0 0 24 24" xmlns="http://www.w3.org/2000/svg"><path d="M6.433 3.043 C 5.857 3.128,5.224 3.378,4.731 3.712 C 3.965 4.232,3.410 5.016,3.130 5.968 L 3.021 6.340 3.009 12.240 C 2.999 16.526,3.008 18.206,3.041 18.380 C 3.170 19.059,3.671 19.639,4.346 19.891 C 4.559 19.970,4.678 19.980,5.679 19.999 L 6.777 20.020 5.889 20.759 L 5.000 21.499 5.000 21.749 L 5.000 22.000 12.000 22.000 L 19.000 22.000 19.000 21.749 L 19.000 21.499 18.111 20.759 L 17.223 20.020 18.321 19.999 C 19.322 19.980,19.441 19.970,19.654 19.891 C 20.329 19.639,20.830 19.059,20.959 18.380 C 20.991 18.206,21.001 16.524,20.992 12.260 L 20.980 6.380 20.874 5.995 C 20.611 5.045,20.044 4.239,19.269 3.712 C 18.928 3.481,18.353 3.218,17.958 3.113 L 17.620 3.022 12.140 3.015 C 9.126 3.012,6.558 3.024,6.433 3.043 M11.000 8.000 L 11.000 11.000 8.000 11.000 L 5.000 11.000 5.000 8.927 C 5.000 7.611,5.016 6.768,5.043 6.617 C 5.180 5.868,5.847 5.187,6.580 5.047 C 6.690 5.026,7.730 5.007,8.890 5.004 L 11.000 5.000 11.000 8.000 M17.383 5.043 C 18.151 5.184,18.816 5.849,18.957 6.617 C 18.984 6.768,19.000 7.611,19.000 8.927 L 19.000 11.000 16.000 11.000 L 13.000 11.000 13.000 8.000 L 13.000 5.000 15.073 5.000 C 16.389 5.000,17.232 5.016,17.383 5.043 M19.000 15.500 L 19.000 18.000 12.000 18.000 L 5.000 18.000 5.000 15.500 L 5.000 13.000 12.000 13.000 L 19.000 13.000 19.000 15.500 M7.150 14.041 C 6.722 14.149,6.343 14.465,6.144 14.880 C 6.034 15.111,6.020 15.180,6.020 15.500 C 6.020 15.811,6.035 15.894,6.133 16.104 C 6.276 16.413,6.585 16.721,6.900 16.868 C 7.107 16.965,7.190 16.980,7.500 16.980 C 7.811 16.980,7.894 16.965,8.104 16.867 C 8.413 16.724,8.721 16.415,8.868 16.100 C 8.965 15.893,8.980 15.810,8.980 15.500 C 8.980 15.189,8.965 15.106,8.867 14.896 C 8.725 14.589,8.414 14.278,8.110 14.139 C 7.852 14.022,7.407 13.976,7.150 14.041 M16.150 14.041 C 15.722 14.149,15.343 14.465,15.144 14.880 C 15.034 15.111,15.020 15.180,15.020 15.500 C 15.020 15.811,15.035 15.894,15.133 16.104 C 15.276 16.413,15.585 16.721,15.900 16.868 C 16.107 16.965,16.190 16.980,16.500 16.980 C 16.811 16.980,16.894 16.965,17.104 16.867 C 17.413 16.724,17.721 16.415,17.868 16.100 C 17.965 15.893,17.980 15.810,17.980 15.500 C 17.980 15.189,17.965 15.106,17.867 14.896 C 17.725 14.589,17.414 14.278,17.110 14.139 C 16.852 14.022,16.407 13.976,16.150 14.041 " stroke="none" fill-rule="evenodd" fill="black"></path></svg>