<svg viewBox="0 0 24 24" xmlns="http://www.w3.org/2000/svg"><path d="M8.664 2.063 C 8.436 2.146,8.257 2.297,8.131 2.511 L 8.020 2.700 8.008 3.850 L 7.995 5.000 6.425 5.000 C 5.470 5.000,4.762 5.017,4.617 5.043 C 3.862 5.181,3.203 5.830,3.044 6.592 C 2.982 6.891,2.982 20.109,3.044 20.408 C 3.201 21.158,3.842 21.799,4.592 21.956 C 4.709 21.980,5.073 22.000,5.402 22.000 L 6.000 22.000 6.000 22.500 L 6.000 23.000 7.000 23.000 L 8.000 23.000 8.000 22.500 L 8.000 22.000 12.000 22.000 L 16.000 22.000 16.000 22.500 L 16.000 23.000 17.000 23.000 L 18.000 23.000 18.000 22.500 L 18.000 22.000 18.598 22.000 C 18.927 22.000,19.291 21.980,19.408 21.956 C 20.158 21.799,20.799 21.158,20.956 20.408 C 21.018 20.109,21.018 6.891,20.956 6.592 C 20.797 5.830,20.138 5.181,19.383 5.043 C 19.238 5.017,18.529 5.000,17.573 5.000 L 16.000 5.000 16.000 3.927 C 16.000 2.692,15.979 2.577,15.701 2.299 C 15.389 1.987,15.547 2.000,11.983 2.003 C 9.342 2.005,8.794 2.015,8.664 2.063 M14.000 4.500 L 14.000 5.000 12.000 5.000 L 10.000 5.000 10.000 4.500 L 10.000 4.000 12.000 4.000 L 14.000 4.000 14.000 4.500 M10.000 13.500 L 10.000 18.000 9.000 18.000 L 8.000 18.000 8.000 13.500 L 8.000 9.000 9.000 9.000 L 10.000 9.000 10.000 13.500 M16.000 13.500 L 16.000 18.000 15.000 18.000 L 14.000 18.000 14.000 13.500 L 14.000 9.000 15.000 9.000 L 16.000 9.000 16.000 13.500 " stroke="none" fill-rule="evenodd" fill="black"></path></svg>