<svg viewBox="0 0 24 24" xmlns="http://www.w3.org/2000/svg"><path d="M12.000 2.000 L 12.000 3.000 13.500 3.000 L 15.000 3.000 15.000 7.553 C 15.000 12.682,15.017 12.385,14.705 12.697 C 14.420 12.982,14.319 13.000,13.000 13.000 C 11.684 13.000,11.579 12.982,11.299 12.701 C 10.982 12.384,11.000 12.663,11.000 8.000 C 11.000 3.335,11.018 3.616,10.700 3.298 C 10.384 2.982,10.607 2.997,6.437 3.009 L 2.738 3.020 2.539 3.122 C 2.316 3.237,2.104 3.488,2.042 3.711 C 1.982 3.927,1.984 17.120,2.044 17.408 C 2.145 17.889,2.501 18.414,2.899 18.666 C 3.058 18.767,3.081 18.801,3.140 19.036 C 3.406 20.096,4.202 21.064,5.228 21.576 C 7.010 22.465,9.197 21.885,10.316 20.225 C 10.546 19.885,10.645 19.684,10.782 19.280 L 10.870 19.020 13.000 19.020 L 15.130 19.020 15.218 19.281 C 15.521 20.181,16.204 21.002,17.045 21.475 C 17.324 21.633,17.842 21.824,18.216 21.907 C 18.592 21.991,19.407 21.991,19.781 21.908 C 21.342 21.558,22.505 20.430,22.888 18.892 C 23.006 18.419,23.014 17.605,22.905 17.142 C 22.864 16.967,22.201 15.095,21.430 12.982 C 20.660 10.869,20.021 9.109,20.010 9.070 C 19.992 9.005,20.058 9.000,20.995 9.000 L 22.000 9.000 22.000 6.000 L 22.000 3.000 19.500 3.000 L 17.000 3.000 17.000 2.427 C 17.000 1.741,16.948 1.546,16.701 1.299 C 16.400 0.998,16.419 1.000,14.073 1.000 L 12.000 1.000 12.000 2.000 M9.000 5.500 L 9.000 6.000 6.500 6.000 L 4.000 6.000 4.000 5.500 L 4.000 5.000 6.500 5.000 L 9.000 5.000 9.000 5.500 M20.000 6.000 L 20.000 7.000 18.500 7.000 L 17.000 7.000 17.000 6.000 L 17.000 5.000 18.500 5.000 L 20.000 5.000 20.000 6.000 M9.000 9.500 L 9.000 11.000 6.500 11.000 L 4.000 11.000 4.000 9.500 L 4.000 8.000 6.500 8.000 L 9.000 8.000 9.000 9.500 M18.749 11.460 C 19.239 12.802,19.648 13.927,19.659 13.961 C 19.677 14.014,19.596 14.022,19.050 14.022 C 18.522 14.022,18.362 14.037,18.060 14.115 C 16.714 14.461,15.652 15.430,15.224 16.701 L 15.130 16.980 13.002 16.980 L 10.874 16.980 10.794 16.740 C 10.303 15.276,9.012 14.225,7.471 14.036 C 6.320 13.895,5.119 14.292,4.243 15.104 L 4.000 15.329 4.000 14.164 L 4.000 13.000 6.581 13.000 L 9.161 13.000 9.257 13.217 C 9.642 14.087,10.464 14.741,11.419 14.938 C 11.848 15.027,14.152 15.027,14.581 14.938 C 15.780 14.691,16.691 13.780,16.938 12.581 C 16.988 12.341,17.000 11.963,17.000 10.640 L 17.000 8.997 17.430 9.009 L 17.859 9.020 18.749 11.460 M7.383 16.043 C 8.185 16.190,8.839 16.872,8.967 17.695 C 9.153 18.894,8.209 20.000,7.000 20.000 C 6.032 20.000,5.183 19.268,5.033 18.305 C 4.933 17.663,5.132 17.061,5.596 16.596 C 6.085 16.108,6.698 15.918,7.383 16.043 M19.383 16.043 C 20.168 16.187,20.823 16.855,20.962 17.655 C 21.172 18.864,20.222 20.000,19.000 20.000 C 18.032 20.000,17.183 19.268,17.033 18.305 C 16.933 17.663,17.132 17.061,17.596 16.596 C 18.085 16.108,18.698 15.918,19.383 16.043 " stroke="none" fill-rule="evenodd" fill="black"></path></svg>