<svg viewBox="0 0 24 24" xmlns="http://www.w3.org/2000/svg"><path d="M9.000 4.000 L 9.000 5.000 7.587 5.000 C 6.745 5.000,6.079 5.018,5.937 5.043 C 5.421 5.138,4.880 5.515,4.614 5.966 C 4.544 6.084,3.928 7.488,3.244 9.087 L 2.000 11.994 2.000 16.567 C 2.000 19.594,2.014 21.190,2.042 21.289 C 2.104 21.512,2.316 21.763,2.539 21.878 C 2.726 21.974,2.779 21.981,3.431 21.993 C 4.256 22.008,4.436 21.966,4.700 21.702 C 4.949 21.454,5.000 21.260,5.000 20.573 L 5.000 20.000 11.997 20.000 L 18.993 20.000 19.007 20.650 C 19.020 21.277,19.024 21.307,19.131 21.489 C 19.377 21.908,19.623 22.000,20.498 22.000 C 21.266 22.000,21.447 21.955,21.701 21.701 C 22.019 21.383,22.000 21.714,22.000 16.570 L 22.000 11.994 20.756 9.087 C 20.072 7.488,19.456 6.084,19.386 5.966 C 19.120 5.515,18.579 5.138,18.063 5.043 C 17.921 5.018,17.255 5.000,16.413 5.000 L 15.000 5.000 15.000 4.000 L 15.000 3.000 12.000 3.000 L 9.000 3.000 9.000 4.000 M18.723 9.440 C 19.294 10.771,19.771 11.892,19.783 11.930 C 19.804 11.997,19.416 12.000,12.003 12.000 C 7.711 12.000,4.200 11.990,4.200 11.977 C 4.200 11.964,4.653 10.898,5.206 9.607 C 5.759 8.316,6.236 7.201,6.267 7.130 L 6.321 7.000 12.003 7.010 L 17.686 7.020 18.723 9.440 M7.110 14.139 C 7.415 14.278,7.725 14.589,7.866 14.896 C 7.962 15.105,7.978 15.191,7.978 15.500 C 7.979 15.810,7.963 15.893,7.867 16.100 C 7.722 16.415,7.413 16.724,7.104 16.867 C 6.894 16.965,6.811 16.980,6.500 16.980 C 6.190 16.980,6.107 16.965,5.900 16.868 C 5.584 16.721,5.275 16.413,5.134 16.104 C 5.038 15.895,5.022 15.809,5.022 15.500 C 5.021 15.190,5.037 15.107,5.133 14.900 C 5.324 14.489,5.727 14.148,6.150 14.041 C 6.407 13.976,6.852 14.022,7.110 14.139 M18.110 14.139 C 18.415 14.278,18.725 14.589,18.866 14.896 C 18.962 15.105,18.978 15.191,18.978 15.500 C 18.979 15.810,18.963 15.893,18.867 16.100 C 18.722 16.415,18.413 16.724,18.104 16.867 C 17.894 16.965,17.811 16.980,17.500 16.980 C 17.190 16.980,17.107 16.965,16.900 16.868 C 16.584 16.721,16.275 16.413,16.134 16.104 C 16.038 15.895,16.022 15.809,16.022 15.500 C 16.021 15.190,16.037 15.107,16.133 14.900 C 16.324 14.489,16.727 14.148,17.150 14.041 C 17.407 13.976,17.852 14.022,18.110 14.139 " stroke="none" fill-rule="evenodd" fill="black"></path></svg>