<svg viewBox="0 0 24 24" xmlns="http://www.w3.org/2000/svg"><path d="M17.791 1.062 C 16.879 1.204,16.006 1.647,15.344 2.305 C 13.562 4.075,13.553 6.905,15.324 8.676 C 17.086 10.438,19.914 10.438,21.676 8.676 C 23.850 6.502,23.248 2.845,20.489 1.464 C 19.711 1.074,18.691 0.922,17.791 1.062 M9.000 4.000 L 9.000 5.000 7.547 5.000 C 6.677 5.000,6.000 5.017,5.857 5.043 C 5.478 5.113,5.134 5.299,4.834 5.598 C 4.571 5.861,4.558 5.885,3.284 8.431 L 2.000 11.000 2.000 16.070 C 2.000 19.439,2.014 21.190,2.042 21.289 C 2.104 21.512,2.316 21.763,2.539 21.878 C 2.726 21.974,2.779 21.981,3.431 21.993 C 4.256 22.008,4.436 21.966,4.700 21.702 C 4.949 21.454,5.000 21.260,5.000 20.573 L 5.000 20.000 11.997 20.000 L 18.993 20.000 19.007 20.650 C 19.020 21.277,19.024 21.307,19.131 21.489 C 19.377 21.908,19.623 22.000,20.498 22.000 C 21.266 22.000,21.447 21.955,21.701 21.701 C 22.021 21.381,22.000 21.774,22.000 16.073 L 22.000 11.000 13.120 11.000 L 4.240 11.000 5.240 9.000 L 6.240 7.000 9.120 7.000 L 12.000 7.000 12.000 5.000 L 12.000 3.000 10.500 3.000 L 9.000 3.000 9.000 4.000 M19.330 3.579 C 19.694 3.643,20.255 3.827,20.580 3.989 C 20.856 4.127,21.381 4.483,21.612 4.689 L 21.804 4.860 21.332 5.329 L 20.860 5.798 20.584 5.577 C 20.250 5.308,19.791 5.071,19.371 4.951 C 18.920 4.822,18.077 4.823,17.620 4.954 C 17.212 5.070,16.681 5.350,16.381 5.606 L 16.147 5.806 15.672 5.333 L 15.196 4.860 15.388 4.689 C 15.998 4.145,16.857 3.724,17.652 3.579 C 18.050 3.507,18.916 3.507,19.330 3.579 M18.839 6.203 C 19.150 6.253,19.522 6.423,19.740 6.615 L 19.900 6.755 19.200 7.458 L 18.501 8.160 17.802 7.462 L 17.103 6.763 17.201 6.659 C 17.326 6.526,17.645 6.347,17.900 6.267 C 18.244 6.159,18.472 6.143,18.839 6.203 M20.000 15.500 L 20.000 18.000 12.000 18.000 L 4.000 18.000 4.000 15.500 L 4.000 13.000 12.000 13.000 L 20.000 13.000 20.000 15.500 M6.150 14.041 C 5.722 14.149,5.343 14.465,5.144 14.880 C 5.034 15.111,5.020 15.180,5.020 15.500 C 5.020 15.811,5.035 15.894,5.133 16.104 C 5.276 16.413,5.585 16.721,5.900 16.868 C 6.107 16.965,6.190 16.980,6.500 16.980 C 6.811 16.980,6.894 16.965,7.104 16.867 C 7.413 16.724,7.721 16.415,7.868 16.100 C 7.965 15.893,7.980 15.810,7.980 15.500 C 7.980 15.189,7.965 15.106,7.867 14.896 C 7.725 14.589,7.414 14.278,7.110 14.139 C 6.852 14.022,6.407 13.976,6.150 14.041 M17.150 14.041 C 16.722 14.149,16.343 14.465,16.144 14.880 C 16.034 15.111,16.020 15.180,16.020 15.500 C 16.020 15.811,16.035 15.894,16.133 16.104 C 16.276 16.413,16.585 16.721,16.900 16.868 C 17.107 16.965,17.190 16.980,17.500 16.980 C 17.811 16.980,17.894 16.965,18.104 16.867 C 18.413 16.724,18.721 16.415,18.868 16.100 C 18.965 15.893,18.980 15.810,18.980 15.500 C 18.980 15.189,18.965 15.106,18.867 14.896 C 18.725 14.589,18.414 14.278,18.110 14.139 C 17.852 14.022,17.407 13.976,17.150 14.041 " stroke="none" fill-rule="evenodd" fill="black"></path></svg>