<svg viewBox="0 0 24 24" xmlns="http://www.w3.org/2000/svg"><path d="M3.664 3.063 C 3.436 3.146,3.257 3.297,3.131 3.511 L 3.020 3.700 3.020 12.000 L 3.020 20.300 3.131 20.489 C 3.192 20.592,3.301 20.723,3.374 20.778 C 3.684 21.015,3.106 21.000,11.998 21.000 C 21.144 21.000,20.376 21.026,20.701 20.701 C 21.026 20.376,21.000 21.144,21.000 12.000 C 21.000 2.856,21.026 3.624,20.701 3.299 C 20.376 2.973,21.147 3.000,11.983 3.003 C 5.003 3.005,3.797 3.014,3.664 3.063 M15.920 9.346 C 16.807 9.542,17.564 10.254,17.868 11.180 C 17.959 11.457,17.973 11.568,17.973 12.000 C 17.973 12.433,17.959 12.543,17.868 12.820 C 17.721 13.265,17.508 13.611,17.179 13.939 C 16.724 14.392,16.224 14.635,15.560 14.725 C 14.325 14.891,13.073 14.092,12.653 12.870 C 12.551 12.571,12.540 12.488,12.540 12.000 C 12.540 11.538,12.554 11.420,12.635 11.180 C 12.786 10.731,12.987 10.406,13.317 10.077 C 14.018 9.375,14.915 9.123,15.920 9.346 M9.458 9.359 C 10.315 9.579,11.063 10.280,11.347 11.131 C 11.445 11.425,11.457 11.518,11.457 12.000 C 11.457 12.481,11.445 12.576,11.348 12.865 C 11.082 13.662,10.424 14.323,9.621 14.600 C 8.238 15.076,6.679 14.326,6.177 12.943 C 5.895 12.167,5.979 11.305,6.406 10.586 C 6.762 9.986,7.409 9.509,8.100 9.337 C 8.423 9.256,9.098 9.267,9.458 9.359 " stroke="none" fill-rule="evenodd" fill="black"></path></svg>