<svg viewBox="0 0 24 24" xmlns="http://www.w3.org/2000/svg"><path d="M4.773 3.060 C 4.001 3.228,3.375 3.791,3.112 4.552 L 3.020 4.820 3.020 12.000 L 3.020 19.180 3.112 19.448 C 3.344 20.116,3.884 20.656,4.552 20.888 L 4.820 20.980 12.000 20.980 L 19.180 20.980 19.448 20.888 C 20.116 20.656,20.656 20.116,20.888 19.448 L 20.980 19.180 20.980 12.000 L 20.980 4.820 20.888 4.552 C 20.657 3.884,20.107 3.335,19.443 3.109 L 19.180 3.020 12.100 3.013 C 6.279 3.007,4.976 3.015,4.773 3.060 M10.231 5.463 C 10.455 5.574,10.593 5.716,10.732 5.975 L 10.820 6.140 10.820 11.520 L 10.820 16.900 10.728 17.087 C 10.599 17.348,10.333 17.581,10.077 17.657 C 9.772 17.748,6.398 17.751,6.096 17.661 C 5.837 17.584,5.593 17.372,5.464 17.112 L 5.360 16.904 5.361 11.522 C 5.362 6.359,5.365 6.133,5.436 5.976 C 5.477 5.886,5.579 5.744,5.661 5.661 C 5.969 5.354,5.902 5.362,8.082 5.361 L 10.024 5.360 10.231 5.463 M18.027 5.437 C 18.118 5.479,18.266 5.588,18.354 5.679 C 18.658 5.992,18.644 5.800,18.631 9.345 L 18.620 12.509 18.487 12.705 C 18.413 12.812,18.287 12.947,18.207 13.004 C 17.906 13.218,17.885 13.220,15.880 13.220 C 14.077 13.220,14.015 13.217,13.840 13.136 C 13.572 13.012,13.417 12.862,13.292 12.608 L 13.180 12.380 13.180 9.260 L 13.180 6.140 13.268 5.975 C 13.407 5.716,13.545 5.574,13.769 5.463 L 13.976 5.360 15.918 5.361 C 17.737 5.362,17.871 5.367,18.027 5.437 " stroke="none" fill-rule="evenodd" fill="black"></path></svg>