<svg viewBox="0 0 24 24" xmlns="http://www.w3.org/2000/svg"><path d="M7.829 4.558 C 5.568 5.367,3.711 6.035,3.703 6.044 C 3.675 6.073,4.951 17.007,4.986 17.038 C 5.005 17.054,6.590 17.936,8.510 18.997 L 12.000 20.927 15.490 18.997 C 17.410 17.936,18.995 17.054,19.014 17.038 C 19.049 17.007,20.325 6.073,20.297 6.044 C 20.270 6.016,12.022 3.080,11.980 3.084 C 11.958 3.086,10.090 3.749,7.829 4.558 M14.575 10.827 C 15.981 13.987,17.139 16.605,17.150 16.646 C 17.168 16.716,17.124 16.720,16.227 16.720 C 15.566 16.720,15.276 16.706,15.257 16.674 C 15.241 16.649,14.998 16.060,14.717 15.364 L 14.205 14.100 12.000 14.100 L 9.795 14.100 9.283 15.364 C 9.002 16.060,8.759 16.649,8.743 16.674 C 8.724 16.706,8.434 16.720,7.773 16.720 C 6.873 16.720,6.832 16.717,6.850 16.645 C 6.882 16.525,11.978 5.082,12.000 5.082 C 12.011 5.082,13.170 7.668,14.575 10.827 M11.235 10.670 L 10.492 12.460 11.246 12.471 C 11.661 12.477,12.339 12.477,12.754 12.471 L 13.508 12.460 12.765 10.670 C 12.357 9.685,12.012 8.880,12.000 8.880 C 11.988 8.880,11.643 9.685,11.235 10.670 " stroke="none" fill-rule="evenodd" fill="black"></path></svg>