<svg viewBox="0 0 24 24" xmlns="http://www.w3.org/2000/svg"><path d="M2.000 8.134 C 2.000 8.151,3.994 15.714,4.025 15.814 C 4.046 15.882,4.085 15.887,4.437 15.873 C 4.778 15.860,4.859 15.841,5.091 15.727 C 5.453 15.549,5.641 15.326,5.800 14.888 C 5.869 14.696,6.166 13.574,6.459 12.394 C 6.753 11.214,7.013 10.211,7.038 10.164 C 7.068 10.107,7.122 10.080,7.203 10.080 C 7.304 10.080,7.334 10.104,7.383 10.220 C 7.415 10.297,7.657 11.238,7.921 12.310 C 8.580 14.986,8.664 15.237,8.985 15.519 C 9.254 15.755,9.530 15.855,9.968 15.873 L 10.355 15.889 10.416 15.675 C 10.509 15.347,12.400 8.169,12.400 8.143 C 12.400 8.104,12.014 8.118,11.792 8.165 C 11.315 8.266,10.984 8.511,10.807 8.892 C 10.740 9.037,10.468 10.005,10.156 11.210 C 9.861 12.348,9.610 13.280,9.599 13.280 C 9.587 13.280,9.381 12.528,9.142 11.610 C 8.902 10.692,8.672 9.832,8.629 9.700 C 8.357 8.852,8.000 8.528,7.296 8.489 C 6.749 8.458,6.335 8.632,6.086 8.997 C 5.874 9.308,5.750 9.694,5.277 11.520 C 5.029 12.477,4.816 13.273,4.803 13.288 C 4.790 13.304,4.539 12.377,4.246 11.228 C 3.909 9.908,3.669 9.049,3.594 8.892 C 3.365 8.408,2.861 8.124,2.230 8.121 C 2.103 8.120,2.000 8.126,2.000 8.134 M13.733 8.162 C 13.383 8.231,13.128 8.442,13.023 8.749 C 12.957 8.941,12.859 9.712,12.896 9.749 C 12.907 9.760,12.970 9.730,13.036 9.683 C 13.102 9.636,13.288 9.537,13.448 9.463 C 14.060 9.181,14.230 8.971,14.276 8.433 L 14.303 8.120 14.101 8.124 C 13.991 8.127,13.825 8.144,13.733 8.162 M14.983 8.156 C 14.970 8.176,15.538 9.050,16.244 10.099 L 17.528 12.006 17.298 12.353 C 17.171 12.544,16.601 13.392,16.030 14.237 C 15.459 15.082,14.982 15.800,14.970 15.832 C 14.932 15.930,15.869 15.875,16.200 15.759 C 16.576 15.627,16.887 15.293,17.596 14.260 C 18.392 13.100,18.349 13.153,18.471 13.168 C 18.557 13.178,18.679 13.331,19.164 14.034 C 20.123 15.427,20.363 15.668,20.941 15.819 C 21.159 15.875,21.960 15.908,21.960 15.860 C 21.960 15.849,21.387 14.979,20.686 13.928 L 19.411 12.017 20.702 10.091 C 21.411 9.032,21.982 8.155,21.969 8.143 C 21.929 8.102,21.210 8.119,20.992 8.165 C 20.399 8.291,20.179 8.522,18.986 10.268 C 18.607 10.822,18.491 10.932,18.383 10.842 C 18.354 10.818,18.108 10.479,17.837 10.089 C 16.751 8.527,16.515 8.290,15.928 8.165 C 15.675 8.111,15.014 8.105,14.983 8.156 M14.122 9.567 C 14.024 9.654,13.763 9.812,13.542 9.918 C 13.105 10.127,12.979 10.234,12.919 10.443 C 12.895 10.526,12.880 11.626,12.880 13.230 L 12.880 15.880 13.173 15.880 C 13.728 15.880,14.087 15.661,14.222 15.240 C 14.285 15.042,14.294 14.757,14.310 12.360 C 14.319 10.897,14.321 9.634,14.314 9.554 L 14.300 9.408 14.122 9.567 " stroke="none" fill-rule="evenodd" fill="black"></path></svg>