<svg viewBox="0 0 24 24" xmlns="http://www.w3.org/2000/svg"><path d="M17.320 3.105 C 16.131 3.255,14.800 3.642,13.620 4.179 C 13.357 4.299,13.302 4.308,12.740 4.332 C 11.498 4.383,10.540 4.603,9.469 5.082 C 7.779 5.837,6.403 7.183,5.543 8.924 C 5.314 9.388,4.960 10.341,4.960 10.496 C 4.960 10.531,5.084 10.420,5.238 10.245 C 6.281 9.062,7.662 7.897,8.660 7.360 L 8.980 7.187 8.340 7.824 C 7.287 8.871,6.496 9.838,5.659 11.100 C 3.563 14.262,2.538 17.573,3.102 19.360 C 3.330 20.080,3.896 20.596,4.703 20.819 C 5.027 20.909,5.792 20.942,6.205 20.883 C 6.984 20.773,8.019 20.425,8.941 19.963 L 9.400 19.733 9.831 19.905 C 10.744 20.271,11.745 20.447,12.920 20.449 C 14.008 20.451,14.763 20.335,15.714 20.018 C 17.573 19.400,19.049 18.194,20.019 16.503 C 20.230 16.135,20.552 15.461,20.617 15.250 L 20.645 15.160 18.445 15.160 L 16.244 15.160 16.093 15.390 C 15.523 16.260,14.410 16.863,13.227 16.944 C 12.224 17.013,11.177 16.587,10.433 15.809 C 9.856 15.204,9.541 14.512,9.463 13.670 L 9.438 13.400 15.211 13.400 L 20.985 13.400 21.031 12.869 C 21.133 11.670,20.910 10.360,20.377 9.035 L 20.158 8.491 20.235 8.311 C 20.371 7.994,20.592 7.269,20.685 6.838 C 20.814 6.235,20.816 5.349,20.689 4.908 C 20.423 3.983,19.868 3.431,18.966 3.194 C 18.664 3.115,17.669 3.061,17.320 3.105 M19.280 4.195 C 20.003 4.426,20.352 4.937,20.390 5.820 C 20.417 6.454,20.266 7.169,19.960 7.853 L 19.874 8.045 19.673 7.753 C 18.898 6.626,17.810 5.711,16.465 5.057 L 15.870 4.768 16.064 4.682 C 16.648 4.424,17.368 4.200,17.875 4.120 C 18.249 4.061,18.983 4.100,19.280 4.195 M14.038 8.003 C 14.429 8.101,14.991 8.386,15.319 8.652 C 15.945 9.160,16.445 10.041,16.537 10.800 C 16.552 10.921,16.574 11.070,16.585 11.130 L 16.606 11.240 13.063 11.240 L 9.520 11.240 9.520 11.123 C 9.520 10.920,9.636 10.442,9.753 10.164 C 10.254 8.972,11.441 8.086,12.760 7.919 C 13.112 7.874,13.671 7.911,14.038 8.003 M5.379 15.380 C 5.484 15.668,5.855 16.402,6.081 16.765 C 6.683 17.736,7.521 18.596,8.448 19.195 C 8.640 19.319,8.797 19.431,8.798 19.444 C 8.801 19.489,7.914 19.884,7.506 20.020 C 6.869 20.232,6.498 20.293,5.984 20.270 C 5.434 20.246,5.163 20.150,4.856 19.870 C 4.138 19.213,4.092 17.901,4.731 16.280 C 4.995 15.608,5.238 15.101,5.275 15.143 C 5.292 15.163,5.339 15.270,5.379 15.380 " stroke="none" fill-rule="evenodd" fill="black"></path></svg>