<svg viewBox="0 0 24 24" xmlns="http://www.w3.org/2000/svg"><path d="M3.484 4.983 C 2.778 5.173,2.187 5.791,2.042 6.489 C 2.012 6.637,2.002 8.528,2.009 12.840 L 2.020 18.980 2.124 19.200 C 2.256 19.481,2.519 19.744,2.800 19.876 L 3.020 19.980 4.790 19.992 L 6.560 20.003 6.560 16.162 C 6.560 14.049,6.569 12.320,6.580 12.320 C 6.591 12.320,7.815 13.231,9.300 14.345 L 12.000 16.370 14.700 14.345 C 16.185 13.231,17.409 12.320,17.420 12.320 C 17.431 12.320,17.440 14.049,17.440 16.162 L 17.440 20.003 19.210 19.992 L 20.980 19.980 21.200 19.876 C 21.481 19.744,21.744 19.481,21.876 19.200 L 21.980 18.980 21.991 12.860 C 21.998 8.562,21.988 6.677,21.958 6.529 C 21.843 5.973,21.385 5.400,20.859 5.154 C 20.327 4.905,19.651 4.905,19.148 5.154 C 19.012 5.222,18.585 5.524,18.200 5.825 C 17.063 6.716,12.065 10.417,12.000 10.417 C 11.939 10.416,7.092 6.796,5.806 5.791 C 5.424 5.493,5.027 5.202,4.923 5.146 C 4.522 4.927,3.937 4.861,3.484 4.983 " stroke="none" fill-rule="evenodd" fill="black"></path></svg>