<svg viewBox="0 0 24 24" xmlns="http://www.w3.org/2000/svg"><path d="M11.240 3.060 C 8.209 3.431,5.725 5.769,5.078 8.860 C 4.888 9.768,4.874 10.834,5.041 11.619 C 5.333 12.994,6.065 14.598,7.140 16.220 C 8.826 18.764,11.125 20.980,12.078 20.980 C 12.544 20.980,13.189 20.536,14.222 19.502 C 16.777 16.946,18.736 13.530,19.042 11.098 C 19.134 10.371,19.053 9.331,18.842 8.520 C 18.367 6.691,17.278 5.143,15.747 4.121 C 14.424 3.237,12.840 2.864,11.240 3.060 M13.120 5.877 C 15.111 6.398,16.493 8.431,16.278 10.523 C 16.224 11.043,16.112 11.430,15.879 11.900 C 15.277 13.114,14.156 13.973,12.846 14.224 C 12.506 14.289,11.730 14.297,11.373 14.239 C 9.636 13.957,8.214 12.717,7.798 11.120 C 7.676 10.650,7.649 9.908,7.737 9.400 C 7.849 8.747,8.066 8.196,8.421 7.661 L 8.580 7.421 8.606 7.635 C 8.731 8.652,9.707 9.317,10.699 9.059 C 11.315 8.898,11.781 8.435,11.946 7.820 C 12.128 7.137,11.800 6.350,11.186 5.999 L 10.990 5.888 11.205 5.846 C 11.323 5.822,11.465 5.795,11.520 5.785 C 11.575 5.775,11.881 5.771,12.200 5.777 C 12.644 5.786,12.860 5.809,13.120 5.877 " stroke="none" fill-rule="evenodd" fill="black"></path></svg>