<svg viewBox="0 0 24 24" xmlns="http://www.w3.org/2000/svg"><path d="M8.360 4.426 C 7.588 4.601,6.744 4.862,6.040 5.141 C 5.032 5.540,5.084 5.505,4.769 5.991 C 3.275 8.298,2.376 10.829,2.055 13.632 C 1.980 14.286,1.956 16.106,2.014 16.767 L 2.047 17.154 2.493 17.467 C 3.745 18.347,5.392 19.177,6.770 19.623 C 7.114 19.735,7.120 19.735,7.181 19.658 C 7.319 19.483,7.920 18.561,8.071 18.293 L 8.232 18.006 8.006 17.917 C 7.531 17.729,6.560 17.224,6.560 17.165 C 6.560 17.150,6.650 17.070,6.760 16.988 L 6.960 16.838 7.116 16.918 C 7.609 17.169,8.689 17.537,9.400 17.695 C 11.215 18.098,12.785 18.098,14.600 17.695 C 15.312 17.537,16.391 17.169,16.887 16.916 L 17.045 16.836 17.243 16.986 C 17.352 17.069,17.435 17.154,17.429 17.174 C 17.410 17.229,16.725 17.594,16.220 17.817 C 15.978 17.925,15.776 18.015,15.772 18.018 C 15.750 18.032,16.353 19.063,16.583 19.405 L 16.844 19.793 17.232 19.661 C 18.804 19.125,20.189 18.425,21.466 17.519 L 21.913 17.203 21.946 16.852 C 22.007 16.222,21.982 14.282,21.905 13.640 C 21.563 10.787,20.690 8.338,19.193 6.033 L 18.915 5.606 18.328 5.348 C 17.340 4.912,15.743 4.411,14.990 4.299 L 14.799 4.271 14.535 4.819 L 14.272 5.367 14.146 5.345 C 13.604 5.247,13.140 5.221,12.000 5.221 C 10.860 5.221,10.396 5.247,9.854 5.345 L 9.728 5.367 9.467 4.824 C 9.221 4.313,9.199 4.280,9.093 4.283 C 9.031 4.284,8.701 4.349,8.360 4.426 M9.194 10.923 C 9.808 11.134,10.281 11.668,10.424 12.312 C 10.509 12.694,10.482 13.204,10.361 13.529 C 10.024 14.429,9.116 14.962,8.298 14.741 C 7.631 14.560,7.051 13.930,6.921 13.244 C 6.741 12.295,7.168 11.387,7.977 11.001 C 8.399 10.800,8.766 10.776,9.194 10.923 M15.782 10.902 C 16.041 10.973,16.412 11.215,16.633 11.456 C 17.142 12.012,17.272 12.984,16.934 13.706 C 16.643 14.328,15.947 14.800,15.319 14.800 C 14.537 14.800,13.718 14.076,13.561 13.244 C 13.381 12.295,13.808 11.387,14.617 11.001 C 15.022 10.808,15.338 10.781,15.782 10.902 " stroke="none" fill-rule="evenodd" fill="black"></path></svg>