<svg viewBox="0 0 24 24" xmlns="http://www.w3.org/2000/svg"><path d="M7.833 3.037 C 7.709 3.077,7.545 3.148,7.468 3.195 C 7.284 3.309,7.026 3.593,6.922 3.795 C 6.710 4.212,6.718 3.843,6.730 12.368 C 6.742 21.047,6.722 20.408,6.991 20.722 C 7.190 20.954,7.397 21.047,7.718 21.049 C 8.057 21.052,8.279 20.954,8.524 20.695 C 8.626 20.588,9.721 19.325,10.958 17.890 C 12.312 16.318,13.241 15.272,13.293 15.260 C 13.341 15.249,14.154 15.235,15.101 15.230 L 16.822 15.220 17.092 15.087 C 17.298 14.985,17.400 14.903,17.525 14.738 C 17.821 14.346,17.752 14.651,19.245 7.180 C 19.659 5.110,19.693 4.904,19.696 4.460 C 19.702 3.754,19.557 3.422,19.138 3.176 C 18.756 2.953,18.974 2.961,13.300 2.963 C 8.355 2.964,8.047 2.968,7.833 3.037 M17.132 4.946 C 17.311 4.976,17.504 5.142,17.544 5.302 C 17.570 5.406,17.202 7.516,17.119 7.741 C 17.065 7.885,16.837 8.071,16.659 8.116 C 16.544 8.145,15.809 8.160,14.512 8.160 C 12.570 8.160,12.538 8.162,12.400 8.246 C 12.132 8.409,12.047 8.609,12.045 9.080 C 12.043 9.598,12.148 9.821,12.460 9.965 C 12.607 10.032,12.757 10.038,14.341 10.039 C 15.927 10.040,16.072 10.046,16.201 10.113 C 16.366 10.199,16.532 10.489,16.503 10.640 C 16.073 12.871,16.070 12.885,15.970 13.004 C 15.771 13.241,15.778 13.240,14.172 13.241 C 13.362 13.241,12.632 13.258,12.548 13.277 C 12.464 13.297,12.338 13.352,12.268 13.401 C 12.198 13.449,11.386 14.396,10.464 15.504 C 9.543 16.613,8.773 17.520,8.754 17.520 C 8.735 17.520,8.720 14.827,8.721 11.490 C 8.722 5.696,8.725 5.454,8.796 5.296 C 8.876 5.120,9.040 4.979,9.201 4.949 C 9.354 4.921,16.960 4.917,17.132 4.946 " stroke="none" fill-rule="evenodd" fill="black"></path></svg>