<svg viewBox="0 0 24 24" xmlns="http://www.w3.org/2000/svg"><path d="M11.260 2.024 C 10.156 2.135,9.567 2.251,8.763 2.516 C 7.326 2.990,6.073 3.765,4.978 4.859 C 4.377 5.460,4.043 5.865,3.593 6.540 C 2.810 7.716,2.126 9.513,2.002 10.718 C 1.948 11.242,1.948 12.770,2.001 13.333 C 2.111 14.491,2.721 16.170,3.454 17.331 C 3.993 18.184,4.885 19.191,5.656 19.818 C 6.965 20.880,8.495 21.592,10.228 21.942 C 10.671 22.032,10.814 22.042,11.684 22.042 C 13.201 22.041,13.949 21.935,15.080 21.562 C 16.632 21.049,17.966 20.230,19.122 19.080 C 20.632 17.577,21.569 15.697,21.905 13.500 C 21.995 12.907,22.009 11.338,21.928 10.780 C 21.600 8.502,20.729 6.661,19.253 5.120 C 17.674 3.472,15.700 2.454,13.432 2.118 C 12.925 2.043,11.628 1.986,11.260 2.024 M12.960 3.883 C 13.861 3.966,14.679 4.205,15.620 4.661 C 17.244 5.448,18.529 6.752,19.362 8.460 C 19.828 9.415,20.040 10.164,20.119 11.140 C 20.229 12.480,20.109 13.724,19.777 14.686 C 19.093 16.671,17.635 18.344,15.745 19.315 C 15.009 19.693,14.126 19.986,13.260 20.140 C 12.758 20.229,11.718 20.261,11.180 20.203 C 8.073 19.868,5.399 17.799,4.261 14.849 C 3.692 13.373,3.590 11.618,3.984 10.063 C 4.261 8.970,4.888 7.741,5.633 6.829 C 6.987 5.171,8.967 4.073,10.940 3.885 C 11.465 3.835,12.431 3.834,12.960 3.883 M8.500 9.024 C 7.725 9.160,6.982 9.728,6.624 10.456 C 6.361 10.991,6.300 11.292,6.300 12.060 C 6.300 12.651,6.312 12.782,6.392 13.058 C 6.547 13.593,6.771 13.974,7.159 14.361 C 7.693 14.895,8.083 15.045,9.083 15.102 C 10.013 15.155,10.602 14.930,11.321 14.250 C 11.654 13.935,11.812 13.718,11.776 13.623 C 11.760 13.583,10.897 13.072,10.756 13.020 C 10.712 13.003,10.606 13.085,10.416 13.282 C 10.264 13.439,10.059 13.616,9.960 13.674 C 9.799 13.769,9.740 13.780,9.400 13.780 C 9.086 13.779,8.988 13.764,8.834 13.688 C 8.541 13.544,8.302 13.260,8.201 12.935 C 7.975 12.204,8.096 11.058,8.441 10.665 C 8.752 10.311,9.350 10.178,9.770 10.370 C 9.893 10.427,10.113 10.588,10.277 10.742 L 10.565 11.015 11.084 10.758 C 11.716 10.445,11.821 10.368,11.782 10.247 C 11.740 10.113,11.219 9.619,10.888 9.397 C 10.728 9.290,10.482 9.167,10.343 9.124 C 9.805 8.958,9.093 8.919,8.500 9.024 M14.380 9.006 C 13.633 9.144,12.906 9.648,12.525 10.292 C 12.353 10.583,12.176 11.097,12.117 11.480 C 12.058 11.854,12.092 12.608,12.183 12.960 C 12.395 13.783,12.940 14.507,13.596 14.838 C 14.020 15.052,14.964 15.169,15.580 15.083 C 15.949 15.032,16.446 14.815,16.800 14.549 C 17.107 14.319,17.466 13.972,17.568 13.807 L 17.654 13.668 17.549 13.584 C 17.490 13.538,17.228 13.387,16.966 13.249 L 16.489 12.999 16.214 13.283 C 15.869 13.642,15.634 13.767,15.260 13.790 C 14.742 13.823,14.303 13.560,14.068 13.078 C 13.823 12.577,13.836 11.431,14.091 10.922 C 14.233 10.637,14.461 10.431,14.711 10.362 C 14.793 10.339,15.022 10.320,15.220 10.320 C 15.647 10.321,15.690 10.343,16.077 10.756 L 16.340 11.038 16.906 10.749 C 17.217 10.590,17.514 10.431,17.565 10.396 L 17.659 10.331 17.541 10.162 C 17.313 9.832,16.631 9.302,16.253 9.161 C 15.778 8.983,14.897 8.910,14.380 9.006 " stroke="none" fill-rule="evenodd" fill="black"></path></svg>