<svg viewBox="0 0 24 24" xmlns="http://www.w3.org/2000/svg"><path d="M11.067 4.867 C 11.052 4.881,11.040 5.287,11.040 5.768 L 11.040 6.642 11.143 6.681 C 11.199 6.702,11.627 6.720,12.094 6.720 C 12.797 6.720,12.957 6.709,13.031 6.658 C 13.118 6.597,13.120 6.578,13.120 5.766 C 13.120 5.174,13.106 4.922,13.072 4.888 C 13.020 4.836,11.118 4.816,11.067 4.867 M6.183 7.143 C 6.130 7.196,6.120 7.334,6.120 8.025 C 6.120 8.514,6.137 8.877,6.161 8.923 C 6.201 8.996,6.254 9.000,7.133 9.000 C 7.804 9.000,8.077 8.987,8.112 8.952 C 8.146 8.918,8.160 8.657,8.160 8.033 C 8.160 7.214,8.155 7.160,8.083 7.121 C 8.036 7.096,7.655 7.080,7.125 7.080 C 6.379 7.080,6.236 7.090,6.183 7.143 M8.670 7.123 C 8.607 7.160,8.600 7.247,8.600 8.014 C 8.600 8.622,8.614 8.878,8.648 8.912 C 8.716 8.980,10.564 8.980,10.632 8.912 C 10.666 8.878,10.680 8.626,10.680 8.035 C 10.680 7.334,10.670 7.196,10.617 7.143 C 10.564 7.089,10.420 7.080,9.647 7.081 C 9.106 7.082,8.712 7.099,8.670 7.123 M11.048 7.128 C 10.980 7.196,10.980 8.884,11.048 8.952 C 11.116 9.020,13.044 9.020,13.112 8.952 C 13.146 8.918,13.160 8.662,13.160 8.055 C 13.160 7.336,13.150 7.196,13.097 7.143 C 13.043 7.089,12.893 7.080,12.065 7.080 C 11.365 7.080,11.083 7.093,11.048 7.128 M17.469 7.810 C 17.266 8.118,17.104 8.455,16.977 8.840 C 16.874 9.149,16.863 9.233,16.862 9.760 C 16.860 10.384,16.920 10.663,17.146 11.077 C 17.220 11.214,17.231 11.261,17.191 11.286 C 17.127 11.327,16.605 11.498,16.340 11.565 C 16.184 11.604,14.611 11.620,9.260 11.638 L 2.380 11.660 2.255 11.749 C 2.020 11.917,1.985 12.059,2.014 12.738 C 2.082 14.366,2.564 15.989,3.268 16.969 C 3.559 17.372,4.226 18.012,4.564 18.211 C 5.168 18.566,6.352 18.945,7.360 19.106 C 7.987 19.206,9.829 19.205,10.680 19.104 C 12.003 18.947,13.058 18.634,14.213 18.055 C 16.078 17.121,17.728 15.198,18.724 12.800 L 18.915 12.340 19.367 12.313 C 20.048 12.273,20.548 12.094,21.069 11.702 C 21.482 11.391,21.758 11.036,21.923 10.602 L 21.998 10.405 21.877 10.304 C 21.711 10.164,21.311 9.980,21.000 9.899 C 20.732 9.830,19.954 9.810,19.540 9.862 L 19.339 9.887 19.268 9.610 C 19.073 8.852,18.530 8.126,17.868 7.737 C 17.740 7.661,17.629 7.600,17.622 7.600 C 17.614 7.600,17.545 7.695,17.469 7.810 M3.728 9.408 C 3.694 9.442,3.680 9.694,3.680 10.285 C 3.680 10.986,3.690 11.124,3.743 11.177 C 3.796 11.231,3.944 11.240,4.735 11.240 C 5.404 11.240,5.677 11.227,5.712 11.192 C 5.746 11.158,5.760 10.898,5.760 10.276 C 5.760 9.522,5.752 9.405,5.697 9.384 C 5.570 9.336,3.779 9.357,3.728 9.408 M6.168 9.408 C 6.134 9.442,6.120 9.698,6.120 10.307 C 6.120 11.107,6.125 11.160,6.197 11.199 C 6.244 11.224,6.626 11.240,7.160 11.240 C 7.694 11.240,8.076 11.224,8.123 11.199 C 8.195 11.160,8.200 11.107,8.200 10.307 C 8.200 9.698,8.186 9.442,8.152 9.408 C 8.084 9.340,6.236 9.340,6.168 9.408 M8.648 9.408 C 8.614 9.442,8.600 9.698,8.600 10.307 C 8.600 11.107,8.605 11.160,8.677 11.199 C 8.724 11.224,9.111 11.240,9.655 11.240 C 10.419 11.240,10.564 11.231,10.617 11.177 C 10.670 11.124,10.680 10.986,10.680 10.285 C 10.680 9.694,10.666 9.442,10.632 9.408 C 10.564 9.340,8.716 9.340,8.648 9.408 M11.027 9.387 C 11.012 9.401,11.000 9.806,11.000 10.285 C 11.000 11.106,11.005 11.160,11.077 11.199 C 11.124 11.224,11.523 11.240,12.095 11.240 C 12.896 11.240,13.044 11.231,13.097 11.177 C 13.150 11.124,13.160 10.986,13.160 10.285 C 13.160 9.694,13.146 9.442,13.112 9.408 C 13.060 9.356,11.078 9.336,11.027 9.387 M13.522 9.437 C 13.497 9.483,13.480 9.827,13.480 10.288 C 13.480 10.924,13.491 11.078,13.542 11.151 C 13.604 11.239,13.619 11.240,14.537 11.240 C 15.281 11.240,15.479 11.229,15.516 11.185 C 15.548 11.146,15.558 10.867,15.551 10.255 L 15.540 9.380 14.552 9.369 C 13.607 9.359,13.562 9.362,13.522 9.437 " stroke="none" fill-rule="evenodd" fill="black"></path></svg>