<svg viewBox="0 0 24 24" xmlns="http://www.w3.org/2000/svg"><path d="M8.260 2.044 C 7.115 2.214,6.066 3.056,5.662 4.130 C 5.417 4.782,5.376 5.599,5.558 6.233 C 5.825 7.165,6.496 7.952,7.373 8.363 C 7.639 8.487,8.176 8.638,8.376 8.644 C 8.444 8.646,8.330 8.683,8.122 8.726 C 6.505 9.061,5.400 10.390,5.400 12.000 C 5.400 13.640,6.554 14.996,8.207 15.298 C 8.372 15.328,8.446 15.353,8.376 15.356 C 7.916 15.372,7.078 15.728,6.633 16.096 C 5.772 16.809,5.299 17.968,5.438 19.024 C 5.491 19.428,5.669 19.997,5.828 20.274 C 6.540 21.511,7.941 22.195,9.246 21.943 C 10.326 21.735,11.209 21.062,11.664 20.100 C 11.996 19.396,11.974 19.682,11.992 15.820 C 12.007 12.662,12.013 12.403,12.067 12.659 C 12.339 13.944,13.299 14.936,14.564 15.239 C 14.966 15.335,15.611 15.346,16.003 15.263 C 17.297 14.989,18.327 13.958,18.603 12.660 C 18.668 12.351,18.668 11.649,18.603 11.340 C 18.484 10.781,18.161 10.156,17.773 9.734 C 17.284 9.203,16.569 8.827,15.833 8.714 L 15.507 8.664 15.814 8.612 C 16.825 8.442,17.735 7.764,18.203 6.834 C 18.425 6.393,18.522 6.015,18.548 5.498 C 18.617 4.133,17.900 2.934,16.662 2.341 C 15.957 2.003,16.241 2.024,12.140 2.016 C 10.138 2.011,8.392 2.024,8.260 2.044 M14.620 8.746 C 13.581 8.965,12.623 9.777,12.242 10.761 C 12.179 10.926,12.099 11.187,12.066 11.341 C 12.009 11.608,12.006 11.557,12.003 10.150 L 12.000 8.680 13.450 8.683 C 14.834 8.686,14.887 8.689,14.620 8.746 " stroke="none" fill-rule="evenodd" fill="black"></path></svg>