<svg viewBox="0 0 24 24" xmlns="http://www.w3.org/2000/svg"><path d="M11.340 3.064 C 10.417 3.157,9.561 3.359,8.932 3.633 C 6.919 4.507,5.840 6.184,5.840 8.440 C 5.840 10.559,6.722 11.937,8.768 13.018 C 9.282 13.289,9.816 13.518,10.740 13.861 C 12.649 14.570,13.237 15.017,13.239 15.763 C 13.241 16.269,12.955 16.628,12.408 16.805 C 12.041 16.923,11.221 16.951,10.649 16.864 C 9.352 16.667,7.725 16.134,6.606 15.538 C 6.420 15.439,6.265 15.363,6.260 15.369 C 6.250 15.383,5.597 19.451,5.599 19.489 C 5.601 19.532,6.098 19.776,6.593 19.978 C 7.712 20.433,9.087 20.775,10.400 20.926 C 11.081 21.004,12.662 20.993,13.258 20.905 C 13.844 20.819,14.672 20.610,15.100 20.440 C 16.620 19.837,17.656 18.769,18.116 17.332 C 18.311 16.721,18.363 16.396,18.387 15.620 C 18.421 14.571,18.321 13.943,18.001 13.196 C 17.791 12.704,17.520 12.315,17.082 11.879 C 16.328 11.127,15.334 10.574,13.500 9.887 C 11.741 9.229,11.154 8.852,11.000 8.282 C 10.859 7.757,11.203 7.300,11.846 7.159 C 12.137 7.095,13.165 7.128,13.660 7.217 C 14.648 7.395,15.907 7.808,16.725 8.223 C 16.837 8.279,16.934 8.320,16.941 8.312 C 16.956 8.297,17.600 4.338,17.600 4.259 C 17.600 4.199,17.321 4.064,16.784 3.862 C 15.881 3.524,14.828 3.269,13.800 3.139 C 13.326 3.080,11.683 3.029,11.340 3.064 " stroke="none" fill-rule="evenodd" fill="black"></path></svg>