<svg viewBox="0 0 24 24" xmlns="http://www.w3.org/2000/svg"><path d="M11.460 2.116 C 11.114 2.243,3.800 6.506,3.608 6.693 C 3.388 6.906,3.206 7.275,3.159 7.603 C 3.110 7.941,3.110 16.099,3.159 16.437 C 3.209 16.787,3.398 17.155,3.636 17.367 C 3.833 17.543,5.688 18.622,6.160 18.834 C 6.678 19.068,6.979 19.137,7.480 19.136 C 8.572 19.133,9.216 18.716,9.554 17.791 L 9.660 17.500 9.671 12.964 C 9.681 8.764,9.677 8.423,9.615 8.354 C 9.556 8.289,9.483 8.280,9.000 8.280 C 8.522 8.280,8.444 8.289,8.387 8.352 C 8.327 8.418,8.320 8.810,8.311 12.762 L 8.300 17.100 8.212 17.264 C 7.947 17.760,7.374 17.917,6.754 17.664 C 6.509 17.565,4.593 16.467,4.498 16.372 C 4.448 16.322,4.440 15.712,4.440 12.005 C 4.440 8.617,4.451 7.682,4.490 7.632 C 4.555 7.551,11.907 3.320,11.984 3.320 C 12.061 3.320,19.405 7.550,19.470 7.632 C 19.543 7.725,19.543 16.276,19.470 16.368 C 19.390 16.468,12.080 20.680,11.986 20.680 C 11.939 20.680,11.461 20.419,10.925 20.100 C 10.388 19.781,9.924 19.520,9.893 19.520 C 9.862 19.520,9.707 19.590,9.548 19.677 C 9.390 19.763,9.121 19.882,8.951 19.941 C 8.576 20.073,8.529 20.118,8.650 20.228 C 8.804 20.367,11.225 21.788,11.469 21.882 C 11.771 21.999,12.246 22.005,12.560 21.896 C 12.879 21.785,20.130 17.578,20.365 17.367 C 20.601 17.156,20.788 16.792,20.843 16.438 C 20.868 16.274,20.879 14.597,20.871 11.840 L 20.860 7.500 20.760 7.241 C 20.552 6.703,20.648 6.767,16.480 4.355 C 14.423 3.164,12.646 2.156,12.531 2.115 C 12.252 2.015,11.735 2.016,11.460 2.116 M13.008 8.103 C 12.548 8.177,12.035 8.346,11.731 8.525 C 11.414 8.710,11.004 9.131,10.870 9.407 C 10.571 10.024,10.570 10.820,10.867 11.365 C 11.271 12.107,12.122 12.445,14.140 12.661 C 15.042 12.758,15.687 12.895,16.034 13.065 C 16.285 13.188,16.338 13.232,16.403 13.374 C 16.533 13.660,16.475 14.062,16.263 14.339 C 16.128 14.517,15.742 14.704,15.340 14.787 C 14.885 14.881,13.546 14.878,13.100 14.783 C 12.283 14.607,11.887 14.224,11.779 13.507 C 11.761 13.386,11.724 13.304,11.678 13.279 C 11.581 13.227,10.575 13.229,10.477 13.281 C 10.412 13.317,10.400 13.367,10.400 13.613 C 10.400 14.623,11.029 15.459,12.077 15.841 C 12.640 16.047,13.104 16.123,13.946 16.148 C 15.515 16.195,16.538 15.922,17.218 15.277 C 17.798 14.726,18.044 13.915,17.875 13.112 C 17.660 12.086,16.911 11.675,14.680 11.360 C 13.050 11.130,12.510 11.007,12.283 10.816 C 12.064 10.632,12.032 10.252,12.207 9.908 C 12.295 9.733,12.566 9.545,12.851 9.461 C 13.358 9.310,14.416 9.291,15.051 9.421 C 15.370 9.486,15.763 9.685,15.904 9.852 C 16.035 10.008,16.180 10.296,16.240 10.521 C 16.323 10.832,16.340 10.840,16.946 10.840 C 17.434 10.840,17.487 10.833,17.563 10.757 C 17.635 10.685,17.643 10.644,17.621 10.467 C 17.459 9.182,16.749 8.449,15.380 8.152 C 14.885 8.045,13.541 8.017,13.008 8.103 " stroke="none" fill-rule="evenodd" fill="black"></path></svg>