<svg viewBox="0 0 24 24" xmlns="http://www.w3.org/2000/svg"><path d="M3.664 3.063 C 3.436 3.146,3.257 3.297,3.131 3.511 L 3.020 3.700 3.020 12.000 L 3.020 20.300 3.131 20.489 C 3.192 20.592,3.301 20.723,3.374 20.778 C 3.684 21.015,3.106 21.000,11.998 21.000 C 21.144 21.000,20.376 21.026,20.701 20.701 C 21.026 20.376,21.000 21.144,21.000 12.000 C 21.000 2.856,21.026 3.624,20.701 3.299 C 20.376 2.973,21.147 3.000,11.983 3.003 C 5.003 3.005,3.797 3.014,3.664 3.063 M13.160 6.020 C 15.521 6.485,17.377 8.288,17.884 10.610 C 18.114 11.663,18.045 12.845,17.693 13.856 C 16.991 15.872,15.340 17.316,13.200 17.785 C 12.930 17.845,12.692 17.860,12.040 17.860 C 11.388 17.860,11.150 17.845,10.880 17.785 C 10.416 17.684,9.895 17.510,9.499 17.324 L 9.168 17.169 7.596 17.583 C 6.731 17.810,6.019 17.992,6.015 17.988 C 6.010 17.983,6.196 17.288,6.427 16.443 L 6.848 14.907 6.646 14.483 C 5.365 11.802,6.241 8.589,8.700 6.942 C 9.470 6.426,10.357 6.089,11.280 5.961 C 11.666 5.907,12.763 5.942,13.160 6.020 M11.451 6.961 C 10.803 7.043,10.114 7.274,9.570 7.592 C 8.005 8.505,7.080 10.096,7.075 11.880 C 7.073 12.842,7.315 13.708,7.826 14.567 L 7.938 14.754 7.692 15.647 C 7.557 16.138,7.454 16.547,7.462 16.555 C 7.470 16.563,7.892 16.461,8.400 16.328 L 9.322 16.085 9.597 16.244 C 9.934 16.438,10.596 16.691,11.000 16.779 C 11.463 16.880,12.339 16.901,12.818 16.823 C 13.874 16.649,14.769 16.189,15.543 15.420 C 16.520 14.449,17.014 13.258,17.010 11.880 C 17.004 9.504,15.312 7.461,12.985 7.019 C 12.578 6.942,11.827 6.914,11.451 6.961 M10.457 9.250 C 10.541 9.378,11.040 10.587,11.040 10.662 C 11.040 10.759,10.946 10.918,10.727 11.192 C 10.483 11.496,10.485 11.507,10.859 12.005 C 11.305 12.599,11.835 13.027,12.462 13.300 C 12.844 13.465,12.828 13.472,13.212 12.997 C 13.404 12.758,13.513 12.656,13.585 12.647 C 13.652 12.639,13.926 12.751,14.365 12.965 C 15.105 13.326,15.113 13.334,15.063 13.652 C 15.010 13.991,14.942 14.140,14.761 14.320 C 14.431 14.648,13.895 14.835,13.442 14.781 C 12.869 14.712,11.805 14.256,11.237 13.836 C 10.260 13.114,9.265 11.819,9.056 11.000 C 8.905 10.404,9.087 9.749,9.517 9.346 L 9.717 9.160 10.057 9.160 C 10.367 9.160,10.404 9.168,10.457 9.250 " stroke="none" fill-rule="evenodd" fill="black"></path></svg>