<svg viewBox="0 0 24 24" xmlns="http://www.w3.org/2000/svg"><path d="M3.003 11.990 C 3.006 18.609,3.015 19.920,3.059 19.820 C 3.203 19.493,9.640 4.078,9.640 4.060 C 9.640 4.049,8.146 4.040,6.320 4.040 L 3.000 4.040 3.003 11.990 M14.376 4.105 C 14.454 4.306,20.972 19.903,20.985 19.917 C 20.993 19.926,21.000 16.357,21.000 11.987 L 21.000 4.040 17.676 4.040 C 14.634 4.040,14.354 4.045,14.376 4.105 M10.534 13.360 L 9.090 16.760 10.642 16.760 L 12.194 16.760 12.827 18.360 L 13.460 19.960 14.852 19.960 C 15.618 19.960,16.237 19.947,16.228 19.930 C 16.219 19.913,15.270 17.663,14.120 14.930 C 12.969 12.197,12.016 9.960,12.003 9.960 C 11.989 9.960,11.328 11.490,10.534 13.360 " stroke="none" fill-rule="evenodd" fill="black"></path></svg>