<svg viewBox="0 0 24 24" xmlns="http://www.w3.org/2000/svg"><path d="M11.480 2.025 C 9.465 2.281,7.833 3.552,7.147 5.402 C 6.913 6.032,6.826 6.525,6.827 7.220 C 6.829 8.482,7.256 9.606,8.085 10.536 C 9.132 11.711,10.466 12.326,11.980 12.332 C 12.806 12.335,13.631 12.148,14.320 11.800 C 14.720 11.598,15.277 11.200,15.597 10.886 C 17.218 9.297,17.616 6.906,16.600 4.860 C 16.319 4.295,16.064 3.939,15.622 3.498 C 14.914 2.791,13.970 2.289,12.990 2.099 C 12.663 2.036,11.749 1.991,11.480 2.025 M12.545 5.096 C 13.063 5.233,13.590 5.665,13.835 6.151 C 14.158 6.791,14.164 7.580,13.850 8.233 C 13.706 8.535,13.287 8.955,12.993 9.093 C 12.507 9.321,11.940 9.382,11.458 9.259 C 10.689 9.061,10.100 8.454,9.939 7.690 C 9.732 6.715,10.182 5.713,11.025 5.270 C 11.182 5.188,11.380 5.104,11.465 5.084 C 11.704 5.028,12.317 5.035,12.545 5.096 M7.239 12.579 C 6.974 12.664,6.639 12.914,6.490 13.136 C 6.297 13.423,6.227 13.706,6.248 14.116 C 6.277 14.697,6.483 15.017,7.033 15.333 C 7.806 15.778,8.689 16.176,9.531 16.460 C 9.747 16.532,9.924 16.604,9.925 16.620 C 9.926 16.635,9.264 17.278,8.454 18.048 C 7.643 18.818,6.922 19.530,6.852 19.629 C 6.672 19.882,6.582 20.170,6.581 20.500 C 6.579 21.143,6.961 21.651,7.620 21.884 C 7.922 21.990,8.347 21.973,8.700 21.840 C 8.927 21.755,9.025 21.664,10.464 20.206 L 11.988 18.662 13.574 20.221 C 14.658 21.288,15.218 21.810,15.346 21.875 C 15.854 22.133,16.583 21.958,17.022 21.472 C 17.467 20.980,17.516 20.215,17.139 19.645 C 17.084 19.563,16.373 18.851,15.557 18.063 C 14.742 17.274,14.089 16.616,14.107 16.600 C 14.125 16.583,14.320 16.511,14.540 16.439 C 15.694 16.063,16.959 15.445,17.352 15.066 C 17.446 14.975,17.572 14.801,17.632 14.680 C 17.729 14.483,17.740 14.416,17.740 14.040 C 17.740 13.652,17.731 13.600,17.615 13.360 C 17.373 12.858,16.951 12.563,16.424 12.529 C 16.042 12.504,15.794 12.579,15.243 12.884 C 14.712 13.177,14.243 13.366,13.660 13.519 C 13.024 13.687,12.659 13.732,11.960 13.730 C 10.907 13.726,9.938 13.495,9.033 13.034 C 8.806 12.918,8.500 12.763,8.354 12.688 C 8.129 12.572,8.038 12.549,7.754 12.536 C 7.531 12.526,7.360 12.540,7.239 12.579 " stroke="none" fill-rule="evenodd" fill="black"></path></svg>