<svg viewBox="0 0 24 24" xmlns="http://www.w3.org/2000/svg"><path d="M11.380 2.000 C 7.823 2.219,4.640 4.342,3.045 7.560 C 2.577 8.503,2.259 9.519,2.093 10.600 C 1.992 11.250,1.994 12.714,2.095 13.380 C 2.285 14.631,2.723 15.907,3.314 16.934 C 3.816 17.805,4.436 18.593,5.108 19.216 L 5.349 19.439 5.272 19.282 C 5.118 18.971,5.198 18.521,5.446 18.295 C 5.722 18.044,6.147 17.994,6.459 18.177 C 6.678 18.306,6.845 18.574,6.871 18.840 C 6.930 19.459,6.304 19.931,5.729 19.700 L 5.580 19.641 5.740 19.782 C 6.044 20.050,7.062 20.702,7.560 20.949 C 8.492 21.410,9.586 21.752,10.627 21.907 C 11.290 22.006,12.761 22.006,13.400 21.907 C 16.468 21.434,19.067 19.694,20.632 17.066 C 21.291 15.959,21.717 14.748,21.924 13.392 C 22.030 12.704,22.071 11.182,22.004 10.455 C 21.839 8.675,21.365 6.607,20.496 3.881 C 20.370 3.485,20.256 3.161,20.243 3.162 C 20.230 3.163,20.109 3.392,19.973 3.672 C 19.836 3.951,19.605 4.365,19.459 4.590 L 19.192 5.001 18.886 4.714 C 16.836 2.796,14.161 1.829,11.380 2.000 M20.335 4.750 C 21.705 8.953,21.962 12.369,21.085 14.745 C 20.772 15.595,20.294 16.356,19.704 16.942 C 18.697 17.944,17.382 18.478,15.360 18.708 C 14.830 18.768,14.480 18.776,12.940 18.760 C 9.908 18.730,8.769 18.738,8.385 18.793 C 8.190 18.821,8.023 18.836,8.014 18.827 C 7.984 18.797,8.889 18.491,10.280 18.059 C 11.738 17.607,12.021 17.513,12.490 17.325 C 12.819 17.193,13.478 16.873,13.792 16.693 C 14.115 16.508,14.885 15.977,15.240 15.694 C 15.718 15.314,16.848 14.178,17.234 13.689 C 18.158 12.519,18.842 11.205,19.161 9.991 C 19.225 9.745,19.272 9.538,19.264 9.531 C 19.257 9.523,19.209 9.621,19.159 9.749 C 18.888 10.435,18.307 11.403,17.736 12.120 C 17.360 12.592,16.347 13.593,15.820 14.015 C 15.304 14.427,14.425 15.017,13.860 15.331 C 12.597 16.033,10.917 16.575,7.983 17.227 L 6.787 17.494 6.565 17.377 C 6.259 17.215,5.793 16.764,5.582 16.424 C 5.177 15.773,5.021 15.167,5.021 14.240 C 5.021 13.576,5.078 13.203,5.263 12.648 C 5.749 11.194,6.922 9.987,8.418 9.403 C 8.951 9.194,9.321 9.094,9.900 9.000 C 10.356 8.927,10.684 8.898,12.260 8.799 C 12.634 8.775,13.147 8.729,13.400 8.697 C 14.989 8.492,16.534 7.836,17.973 6.753 C 18.524 6.338,19.334 5.489,19.702 4.940 C 19.879 4.676,20.047 4.401,20.077 4.330 C 20.106 4.259,20.136 4.200,20.143 4.200 C 20.150 4.200,20.236 4.447,20.335 4.750 " stroke="none" fill-rule="evenodd" fill="black"></path></svg>