<svg viewBox="0 0 24 24" xmlns="http://www.w3.org/2000/svg"><path d="M11.400 3.025 C 9.540 3.195,7.878 3.840,6.420 4.955 C 6.058 5.233,5.226 6.056,4.921 6.440 C 3.851 7.785,3.226 9.306,3.042 11.008 C 3.015 11.257,3.000 13.122,3.000 16.200 L 3.000 21.003 7.970 20.990 C 12.867 20.977,12.947 20.976,13.420 20.890 C 14.428 20.708,15.106 20.489,15.940 20.079 C 18.743 18.701,20.647 15.957,20.959 12.846 C 21.157 10.867,20.641 8.794,19.530 7.100 C 18.612 5.701,17.393 4.625,15.906 3.900 C 15.047 3.482,14.334 3.257,13.360 3.099 C 12.988 3.039,11.756 2.992,11.400 3.025 M12.940 6.481 C 15.238 6.808,17.066 8.503,17.581 10.784 C 17.678 11.213,17.701 12.255,17.624 12.753 C 17.460 13.830,16.916 14.909,16.141 15.701 C 15.503 16.353,14.774 16.810,13.914 17.098 C 12.768 17.482,11.477 17.475,10.372 17.079 C 10.178 17.010,9.982 16.944,9.936 16.933 C 9.890 16.922,9.067 17.089,8.107 17.304 C 7.147 17.519,6.351 17.685,6.339 17.672 C 6.327 17.660,6.536 16.951,6.804 16.098 C 7.221 14.771,7.286 14.530,7.249 14.443 C 6.857 13.510,6.791 13.299,6.701 12.698 C 6.442 10.983,7.004 9.306,8.256 8.058 C 9.163 7.155,10.121 6.682,11.480 6.467 C 11.690 6.433,12.672 6.443,12.940 6.481 " stroke="none" fill-rule="evenodd" fill="black"></path></svg>