<svg viewBox="0 0 24 24" xmlns="http://www.w3.org/2000/svg"><path d="M13.599 2.910 C 13.290 3.331,12.965 3.961,12.870 4.326 C 12.493 5.764,12.972 7.301,14.166 8.485 C 14.872 9.187,15.866 9.722,16.760 9.884 C 17.217 9.967,18.265 9.957,18.660 9.866 C 19.468 9.679,20.159 9.270,20.669 8.675 C 20.832 8.485,21.280 7.836,21.280 7.790 C 21.280 7.780,21.144 7.904,20.979 8.065 C 20.749 8.288,20.590 8.401,20.309 8.539 C 19.794 8.791,19.558 8.845,18.873 8.869 C 16.986 8.935,15.305 8.082,14.291 6.543 C 14.026 6.140,13.779 5.597,13.652 5.138 C 13.555 4.787,13.542 4.669,13.542 4.140 C 13.541 3.500,13.593 3.202,13.783 2.770 C 13.834 2.655,13.871 2.560,13.866 2.560 C 13.861 2.560,13.741 2.718,13.599 2.910 M9.195 4.237 C 8.901 4.653,8.565 5.178,8.450 5.403 C 8.079 6.127,7.890 6.857,7.852 7.720 C 7.713 10.833,9.995 13.922,13.259 15.039 C 13.981 15.286,14.394 15.339,15.600 15.339 C 16.711 15.338,16.960 15.308,17.771 15.081 C 18.553 14.861,19.190 14.546,19.838 14.057 C 20.574 13.503,21.293 12.631,21.676 11.828 C 21.910 11.338,21.920 11.263,21.719 11.520 C 20.892 12.575,19.600 13.314,18.100 13.590 C 17.651 13.672,16.406 13.682,15.940 13.606 C 12.992 13.128,10.502 11.140,9.504 8.469 C 8.912 6.884,8.957 5.077,9.621 3.759 C 9.698 3.605,9.754 3.480,9.746 3.480 C 9.738 3.480,9.490 3.821,9.195 4.237 M3.994 6.109 C 3.254 7.048,3.116 7.249,2.843 7.794 C 2.213 9.050,1.965 10.554,2.140 12.058 C 2.545 15.518,4.753 18.615,8.080 20.390 C 9.190 20.983,10.281 21.324,11.580 21.486 C 12.173 21.560,13.754 21.550,14.331 21.468 C 16.432 21.172,18.059 20.398,19.474 19.022 C 19.992 18.519,20.324 18.121,20.726 17.524 C 20.989 17.133,21.423 16.330,21.390 16.297 C 21.382 16.288,21.270 16.409,21.142 16.564 C 21.015 16.719,20.746 16.990,20.545 17.167 C 18.948 18.568,16.770 19.245,14.272 19.116 C 13.105 19.055,12.093 18.852,11.086 18.475 C 7.736 17.222,5.058 14.376,4.204 11.160 C 3.805 9.658,3.776 8.116,4.123 6.771 C 4.240 6.315,4.443 5.748,4.597 5.446 C 4.644 5.355,4.674 5.280,4.665 5.280 C 4.656 5.280,4.354 5.653,3.994 6.109 " stroke="none" fill-rule="evenodd" fill="black"></path></svg>