<svg viewBox="0 0 24 24" xmlns="http://www.w3.org/2000/svg"><path d="M14.165 3.481 C 13.734 3.800,13.526 3.978,13.545 4.011 C 13.624 4.147,18.292 10.400,18.314 10.400 C 18.368 10.399,19.580 9.480,19.580 9.440 C 19.580 9.399,19.143 8.808,16.237 4.911 L 14.813 3.002 14.165 3.481 M11.346 6.168 C 10.868 6.743,10.844 6.781,10.910 6.844 C 10.948 6.880,12.334 8.037,13.989 9.414 L 16.998 11.919 17.506 11.313 L 18.014 10.708 17.897 10.607 C 17.833 10.552,16.484 9.427,14.900 8.107 C 13.316 6.788,11.982 5.674,11.937 5.633 C 11.853 5.559,11.851 5.561,11.346 6.168 M9.130 9.627 C 8.949 10.017,8.814 10.350,8.831 10.367 C 8.870 10.406,15.962 13.718,16.034 13.730 C 16.068 13.736,16.210 13.476,16.422 13.020 L 16.757 12.300 16.568 12.215 C 16.465 12.169,14.850 11.415,12.980 10.541 C 11.110 9.666,9.553 8.943,9.520 8.934 C 9.476 8.922,9.372 9.106,9.130 9.627 M8.093 12.712 C 8.079 12.768,8.002 13.116,7.921 13.485 L 7.775 14.156 7.957 14.198 C 8.494 14.322,15.616 15.797,15.628 15.786 C 15.655 15.758,15.973 14.279,15.955 14.261 C 15.940 14.247,11.127 13.232,8.469 12.683 L 8.119 12.610 8.093 12.712 M4.360 17.800 L 4.360 21.000 11.600 21.000 L 18.840 21.000 18.840 17.800 L 18.840 14.600 18.040 14.600 L 17.240 14.600 17.240 17.000 L 17.240 19.400 11.620 19.400 L 6.000 19.400 6.000 17.000 L 6.000 14.600 5.180 14.600 L 4.360 14.600 4.360 17.800 M7.560 17.000 L 7.560 17.800 11.600 17.800 L 15.640 17.800 15.640 17.000 L 15.640 16.200 11.600 16.200 L 7.560 16.200 7.560 17.000 " stroke="none" fill-rule="evenodd" fill="black"></path></svg>