<svg viewBox="0 0 24 24" xmlns="http://www.w3.org/2000/svg"><path d="M3.000 12.020 L 3.000 20.680 4.580 20.680 L 6.160 20.680 6.160 12.020 L 6.160 3.360 4.580 3.360 L 3.000 3.360 3.000 12.020 M13.480 3.416 C 11.051 3.845,9.113 5.485,8.362 7.748 C 7.896 9.152,7.894 10.534,8.355 11.912 C 9.129 14.221,11.160 15.903,13.614 16.264 C 14.188 16.349,15.201 16.321,15.766 16.205 C 18.359 15.674,20.326 13.705,20.885 11.080 C 21.007 10.507,21.017 9.301,20.906 8.700 C 20.422 6.096,18.528 4.117,15.920 3.493 C 15.554 3.405,15.390 3.390,14.640 3.378 C 14.045 3.368,13.687 3.380,13.480 3.416 " stroke="none" fill-rule="evenodd" fill="black"></path></svg>