<svg viewBox="0 0 24 24" xmlns="http://www.w3.org/2000/svg"><path d="M4.860 3.059 C 3.989 3.250,3.301 3.914,3.080 4.779 C 3.001 5.087,3.000 5.219,3.000 12.000 C 3.000 18.748,3.002 18.914,3.079 19.216 C 3.122 19.386,3.217 19.636,3.289 19.773 C 3.472 20.119,3.947 20.585,4.283 20.747 C 4.844 21.018,4.310 21.000,11.967 21.000 C 18.097 21.000,18.931 20.993,19.142 20.938 C 19.851 20.754,20.421 20.278,20.720 19.620 C 20.952 19.110,20.940 19.531,20.940 11.960 L 20.940 4.980 20.831 4.660 C 20.552 3.843,19.875 3.231,19.060 3.060 C 18.820 3.010,17.810 3.002,11.940 3.004 C 6.446 3.006,5.053 3.017,4.860 3.059 M13.347 5.683 C 13.507 5.743,13.678 5.914,13.764 6.100 C 13.858 6.303,13.875 7.069,13.786 7.103 C 13.756 7.115,13.545 7.084,13.316 7.035 C 12.711 6.905,11.680 6.904,11.064 7.033 C 10.824 7.083,10.617 7.125,10.604 7.127 C 10.479 7.141,10.474 7.116,10.487 6.627 C 10.499 6.171,10.508 6.122,10.607 5.973 C 10.669 5.879,10.785 5.776,10.887 5.726 C 11.051 5.644,11.116 5.640,12.147 5.640 C 12.819 5.640,13.278 5.656,13.347 5.683 M8.340 7.369 C 8.455 7.426,8.880 7.848,8.880 7.905 C 8.880 7.931,8.785 8.029,8.670 8.123 C 8.340 8.392,8.013 8.715,7.754 9.030 C 7.622 9.190,7.492 9.320,7.464 9.320 C 7.378 9.320,6.926 8.820,6.900 8.696 C 6.886 8.632,6.869 8.547,6.861 8.507 C 6.853 8.467,6.870 8.344,6.898 8.233 C 6.941 8.068,7.004 7.977,7.245 7.733 C 7.559 7.415,7.630 7.363,7.820 7.316 C 7.956 7.283,8.220 7.309,8.340 7.369 M12.861 7.603 C 13.819 7.736,14.666 8.112,15.434 8.745 C 16.300 9.459,16.896 10.456,17.146 11.608 C 17.237 12.028,17.248 13.160,17.165 13.580 C 16.969 14.565,16.466 15.520,15.777 16.214 C 15.084 16.912,14.349 17.329,13.360 17.589 C 12.842 17.725,11.913 17.759,11.360 17.663 C 9.617 17.359,8.182 16.224,7.502 14.611 C 7.048 13.533,6.990 12.242,7.344 11.113 C 7.914 9.297,9.507 7.912,11.360 7.621 C 11.783 7.555,12.457 7.546,12.861 7.603 M11.600 9.108 C 10.884 9.228,10.170 9.600,9.646 10.125 C 8.254 11.522,8.260 13.782,9.659 15.181 C 10.979 16.501,13.085 16.576,14.509 15.353 C 15.434 14.559,15.909 13.263,15.705 12.092 C 15.561 11.270,15.261 10.690,14.683 10.120 C 14.150 9.594,13.579 9.278,12.912 9.143 C 12.627 9.085,11.858 9.064,11.600 9.108 M12.900 9.783 C 13.032 9.815,13.310 9.923,13.517 10.025 C 13.823 10.175,13.956 10.272,14.221 10.535 C 14.608 10.920,14.801 11.218,14.716 11.298 C 14.627 11.381,12.337 12.560,12.265 12.560 C 12.206 12.560,12.200 12.425,12.200 11.147 C 12.200 10.369,12.212 9.721,12.227 9.706 C 12.261 9.672,12.586 9.709,12.900 9.783 " stroke="none" fill-rule="evenodd" fill="black"></path></svg>