<svg viewBox="0 0 24 24" xmlns="http://www.w3.org/2000/svg"><path d="M7.363 5.881 C 5.976 6.074,4.658 6.750,3.712 7.753 C 1.358 10.249,1.462 14.127,3.945 16.476 C 4.847 17.330,5.943 17.876,7.180 18.087 C 7.846 18.201,8.897 18.174,9.520 18.028 C 10.193 17.869,10.854 17.605,11.367 17.291 L 11.595 17.152 11.213 16.787 C 10.157 15.778,9.471 14.443,9.235 12.940 C 9.170 12.527,9.170 11.471,9.235 11.060 C 9.440 9.770,9.932 8.686,10.765 7.693 C 10.916 7.513,11.165 7.253,11.318 7.116 L 11.598 6.866 11.463 6.774 C 11.002 6.461,10.112 6.100,9.448 5.957 C 9.008 5.863,7.809 5.819,7.363 5.881 M14.968 5.884 C 14.159 5.993,13.168 6.357,12.531 6.780 L 12.402 6.866 12.682 7.116 C 14.460 8.708,15.227 11.313,14.615 13.678 C 14.319 14.819,13.724 15.842,12.841 16.729 L 12.413 17.159 12.677 17.318 C 13.211 17.639,13.917 17.909,14.640 18.066 C 15.164 18.180,16.590 18.170,17.134 18.049 C 19.345 17.556,21.074 16.010,21.754 13.920 C 21.986 13.207,22.053 12.777,22.053 12.000 C 22.053 11.224,21.986 10.796,21.755 10.080 C 21.084 8.005,19.313 6.423,17.140 5.959 C 16.677 5.860,15.461 5.818,14.968 5.884 M11.464 7.650 C 10.556 8.558,10.005 9.588,9.752 10.851 C 9.635 11.435,9.626 12.498,9.733 13.080 C 9.883 13.891,10.256 14.793,10.734 15.500 C 10.978 15.861,11.903 16.840,12.000 16.840 C 12.097 16.840,13.022 15.861,13.266 15.500 C 13.744 14.794,14.079 13.991,14.248 13.149 C 14.376 12.509,14.376 11.491,14.248 10.851 C 13.995 9.588,13.444 8.558,12.536 7.650 C 12.266 7.380,12.025 7.160,12.000 7.160 C 11.975 7.160,11.734 7.380,11.464 7.650 " stroke="none" fill-rule="evenodd" fill="black"></path></svg>