<svg viewBox="0 0 24 24" xmlns="http://www.w3.org/2000/svg"><path d="M3.165 5.883 C 2.733 5.968,2.352 6.264,2.151 6.671 L 2.020 6.938 2.020 12.000 L 2.020 17.062 2.152 17.329 C 2.309 17.649,2.598 17.920,2.920 18.051 L 3.140 18.140 12.000 18.140 L 20.860 18.140 21.095 18.045 C 21.412 17.917,21.757 17.572,21.885 17.255 L 21.980 17.020 21.980 12.000 L 21.980 6.980 21.886 6.748 C 21.712 6.316,21.281 5.971,20.803 5.881 C 20.537 5.830,3.422 5.833,3.165 5.883 M7.760 9.920 C 8.289 10.580,8.727 11.120,8.733 11.120 C 8.740 11.120,9.176 10.580,9.703 9.920 L 10.660 8.721 11.610 8.720 L 12.560 8.720 12.560 12.000 L 12.560 15.280 11.620 15.280 L 10.680 15.280 10.680 13.417 C 10.680 12.309,10.665 11.559,10.643 11.567 C 10.623 11.574,10.196 12.094,9.693 12.722 C 9.191 13.351,8.765 13.870,8.746 13.876 C 8.727 13.882,8.316 13.395,7.833 12.793 C 7.350 12.192,6.920 11.665,6.878 11.621 C 6.801 11.543,6.800 11.561,6.800 13.411 L 6.800 15.280 5.840 15.280 L 4.880 15.280 4.880 12.000 L 4.880 8.720 5.839 8.720 L 6.799 8.720 7.760 9.920 M17.760 10.359 L 17.760 11.999 18.715 12.009 L 19.669 12.020 18.236 13.691 L 16.803 15.362 15.361 13.681 L 13.919 12.000 14.879 12.000 L 15.840 12.000 15.840 10.360 L 15.840 8.720 16.800 8.720 L 17.760 8.720 17.760 10.359 " stroke="none" fill-rule="evenodd" fill="black"></path></svg>