<svg viewBox="0 0 24 24" xmlns="http://www.w3.org/2000/svg"><path d="M15.260 3.635 C 15.194 3.676,15.102 3.752,15.056 3.805 C 14.966 3.907,11.537 9.475,11.544 9.508 C 11.553 9.546,15.813 16.461,15.860 16.513 C 15.898 16.554,16.519 15.572,18.934 11.647 C 20.598 8.943,21.960 6.710,21.960 6.685 C 21.960 6.660,20.574 5.947,18.880 5.100 C 15.998 3.659,15.787 3.560,15.590 3.560 C 15.455 3.560,15.337 3.587,15.260 3.635 M2.137 3.763 L 2.020 3.885 2.020 10.513 L 2.020 17.140 2.107 17.303 C 2.155 17.392,2.268 17.532,2.357 17.613 C 2.536 17.774,7.653 20.357,7.956 20.439 C 8.272 20.524,8.555 20.342,8.638 20.000 C 8.670 19.872,8.679 17.914,8.671 13.240 L 8.660 6.660 5.649 5.150 C 2.941 3.791,2.620 3.640,2.447 3.640 C 2.285 3.640,2.237 3.659,2.137 3.763 M9.600 11.431 L 9.600 14.640 11.770 15.725 C 14.823 17.253,15.341 17.499,15.271 17.389 C 15.239 17.340,13.975 15.284,12.461 12.820 C 10.947 10.356,9.684 8.314,9.654 8.281 C 9.609 8.232,9.600 8.738,9.600 11.431 M19.143 13.126 C 17.582 15.664,16.280 17.780,16.249 17.828 C 16.194 17.916,16.225 17.933,18.678 19.158 C 21.050 20.344,21.172 20.400,21.386 20.400 C 21.680 20.400,21.852 20.296,21.938 20.068 C 21.995 19.917,22.001 19.327,21.991 14.206 L 21.980 8.512 19.143 13.126 " stroke="none" fill-rule="evenodd" fill="black"></path></svg>