<svg viewBox="0 0 24 24" xmlns="http://www.w3.org/2000/svg"><path d="M4.155 4.092 C 3.652 4.264,3.215 4.707,3.076 5.187 C 3.030 5.345,3.020 5.956,3.020 8.600 C 3.020 12.188,3.020 12.191,3.303 13.274 C 4.129 16.441,6.650 18.932,9.853 19.745 C 11.043 20.047,12.493 20.089,13.700 19.856 C 15.535 19.503,17.232 18.572,18.519 17.213 C 19.610 16.060,20.351 14.711,20.739 13.174 C 20.973 12.245,20.971 12.289,20.988 8.749 C 21.006 5.189,21.006 5.201,20.782 4.821 C 20.632 4.567,20.324 4.287,20.041 4.148 L 19.782 4.020 12.101 4.011 L 4.420 4.002 4.155 4.092 M8.309 8.654 C 8.494 8.750,8.721 8.960,10.470 10.650 L 12.034 12.160 13.820 10.470 C 14.803 9.541,15.682 8.735,15.773 8.680 C 15.916 8.594,15.988 8.580,16.280 8.580 C 16.665 8.580,16.882 8.660,17.118 8.890 C 17.349 9.113,17.458 9.406,17.459 9.800 C 17.461 10.405,17.563 10.284,14.955 12.739 C 13.266 14.328,12.623 14.910,12.486 14.971 C 12.356 15.028,12.216 15.053,12.018 15.053 C 11.497 15.053,11.552 15.097,9.055 12.711 C 6.944 10.694,6.809 10.556,6.700 10.315 C 6.608 10.113,6.584 10.002,6.583 9.780 C 6.581 9.218,6.868 8.825,7.434 8.613 C 7.628 8.541,8.138 8.564,8.309 8.654 " stroke="none" fill-rule="evenodd" fill="black"></path></svg>