<svg viewBox="0 0 24 24" xmlns="http://www.w3.org/2000/svg"><path d="M3.000 12.000 L 3.000 21.000 12.000 21.000 L 21.000 21.000 21.000 12.000 L 21.000 3.000 12.000 3.000 L 3.000 3.000 3.000 12.000 M17.660 11.297 C 17.836 11.357,18.043 11.444,18.120 11.491 C 18.336 11.622,18.752 12.035,18.925 12.288 L 19.081 12.517 18.990 12.565 C 18.941 12.591,18.654 12.772,18.353 12.966 C 18.052 13.161,17.791 13.319,17.773 13.319 C 17.755 13.318,17.689 13.237,17.627 13.138 C 17.429 12.826,17.080 12.640,16.693 12.640 C 16.219 12.640,15.876 12.930,15.870 13.336 C 15.863 13.822,16.086 14.029,17.093 14.474 C 18.403 15.051,18.881 15.380,19.245 15.954 C 19.437 16.257,19.510 16.561,19.517 17.080 C 19.525 17.811,19.373 18.253,18.959 18.694 C 18.438 19.249,17.697 19.524,16.718 19.523 C 15.697 19.522,14.830 19.199,14.250 18.603 C 14.019 18.365,13.753 18.012,13.699 17.873 C 13.686 17.837,13.904 17.689,14.364 17.423 C 14.937 17.093,15.056 17.038,15.085 17.090 C 15.184 17.268,15.497 17.602,15.686 17.732 C 15.996 17.945,16.298 18.040,16.666 18.040 C 17.419 18.040,17.853 17.733,17.853 17.200 C 17.853 16.720,17.607 16.510,16.500 16.040 C 15.577 15.648,15.144 15.386,14.791 15.005 C 14.395 14.577,14.200 14.054,14.200 13.420 C 14.200 12.438,14.680 11.735,15.627 11.329 C 15.934 11.198,16.199 11.163,16.800 11.176 C 17.264 11.186,17.385 11.203,17.660 11.297 M12.799 14.194 C 12.798 15.799,12.780 17.267,12.759 17.464 C 12.646 18.499,12.148 19.162,11.240 19.485 C 11.007 19.568,10.910 19.578,10.300 19.577 C 9.668 19.577,9.597 19.569,9.300 19.469 C 8.903 19.335,8.642 19.186,8.362 18.935 C 8.157 18.750,7.760 18.203,7.760 18.104 C 7.760 18.069,8.928 17.314,9.083 17.248 C 9.098 17.242,9.159 17.319,9.218 17.420 C 9.485 17.875,9.796 18.080,10.220 18.079 C 10.630 18.078,10.936 17.873,11.043 17.529 C 11.099 17.349,11.119 16.248,11.120 13.390 L 11.120 11.280 11.960 11.280 L 12.801 11.280 12.799 14.194 " stroke="none" fill-rule="evenodd" fill="black"></path></svg>