<svg viewBox="0 0 24 24" xmlns="http://www.w3.org/2000/svg"><path d="M10.860 3.270 C 10.713 4.614,10.180 5.804,9.332 6.684 C 8.766 7.271,8.094 7.692,7.300 7.956 L 6.940 8.076 6.930 9.518 L 6.919 10.960 8.137 10.960 L 9.354 10.960 9.372 13.990 C 9.390 17.276,9.390 17.273,9.624 18.040 C 10.063 19.480,11.015 20.381,12.499 20.764 C 13.140 20.929,13.567 20.958,15.370 20.959 L 17.080 20.960 17.080 19.204 L 17.080 17.448 16.030 17.431 C 14.836 17.411,14.632 17.372,14.260 17.089 C 14.011 16.900,13.780 16.469,13.721 16.080 C 13.697 15.928,13.680 14.809,13.680 13.390 L 13.680 10.961 15.310 10.950 L 16.940 10.940 16.940 9.280 L 16.940 7.620 15.310 7.610 L 13.680 7.599 13.680 5.320 L 13.680 3.040 12.283 3.040 L 10.886 3.040 10.860 3.270 " stroke="none" fill-rule="evenodd" fill="black"></path></svg>