<svg viewBox="0 0 24 24" xmlns="http://www.w3.org/2000/svg"><path d="M11.107 2.042 C 9.541 2.206,8.208 2.636,6.937 3.388 C 5.064 4.497,3.611 6.155,2.784 8.127 C 2.308 9.264,2.062 10.386,2.014 11.640 C 1.896 14.714,3.228 17.703,5.600 19.688 C 7.086 20.931,8.882 21.704,10.840 21.943 C 11.502 22.024,12.926 22.003,13.520 21.904 C 17.296 21.271,20.319 18.715,21.494 15.160 C 21.857 14.060,22.003 13.145,22.002 11.980 C 21.997 7.001,18.389 2.857,13.400 2.102 C 12.892 2.025,11.594 1.991,11.107 2.042 M10.476 7.617 C 11.109 7.793,11.886 8.212,12.211 8.551 L 12.319 8.663 11.682 9.271 C 11.333 9.606,11.038 9.880,11.029 9.880 C 11.019 9.880,10.941 9.824,10.856 9.756 C 10.129 9.176,8.989 9.077,8.100 9.517 C 7.149 9.987,6.560 10.944,6.560 12.020 C 6.560 13.230,7.324 14.290,8.468 14.665 C 8.781 14.767,8.876 14.780,9.320 14.779 C 9.878 14.778,10.220 14.699,10.651 14.470 C 11.120 14.221,11.570 13.649,11.734 13.090 L 11.796 12.880 10.538 12.880 L 9.280 12.880 9.280 12.040 L 9.280 11.200 11.415 11.200 L 13.550 11.200 13.595 11.502 C 13.731 12.413,13.561 13.481,13.150 14.300 C 12.936 14.726,12.796 14.926,12.482 15.255 C 11.695 16.078,10.762 16.485,9.518 16.547 C 8.247 16.609,7.078 16.175,6.167 15.302 C 5.320 14.491,4.859 13.539,4.762 12.402 C 4.586 10.339,5.808 8.427,7.746 7.735 C 8.340 7.523,8.639 7.480,9.420 7.497 C 10.002 7.510,10.154 7.527,10.476 7.617 M17.920 10.200 L 17.920 11.120 18.820 11.120 L 19.720 11.120 19.720 11.800 L 19.720 12.480 18.820 12.480 L 17.920 12.480 17.920 13.380 L 17.920 14.280 17.240 14.280 L 16.560 14.280 16.560 13.380 L 16.560 12.480 15.660 12.480 L 14.760 12.480 14.760 11.800 L 14.760 11.120 15.660 11.120 L 16.560 11.120 16.560 10.200 L 16.560 9.280 17.240 9.280 L 17.920 9.280 17.920 10.200 " stroke="none" fill-rule="evenodd" fill="black"></path></svg>