<svg viewBox="0 0 24 24" xmlns="http://www.w3.org/2000/svg"><path d="M10.780 5.903 C 8.161 6.258,5.927 7.617,4.340 9.820 C 4.273 9.914,4.398 9.811,4.642 9.571 C 5.270 8.956,5.880 8.512,6.680 8.086 C 8.576 7.078,10.901 6.804,13.020 7.339 C 14.974 7.832,16.758 9.002,18.020 10.619 C 18.167 10.806,18.305 10.960,18.328 10.960 C 18.395 10.960,19.800 10.076,19.800 10.033 C 19.800 9.976,19.523 9.598,19.159 9.157 C 17.681 7.367,15.415 6.150,13.060 5.882 C 12.563 5.825,11.263 5.837,10.780 5.903 M10.980 8.739 C 9.779 8.928,8.616 9.482,7.695 10.304 C 7.420 10.549,6.957 11.072,6.758 11.360 C 6.665 11.495,6.670 11.493,6.921 11.295 C 8.042 10.409,9.240 9.953,10.600 9.892 C 12.643 9.800,14.573 10.719,15.890 12.408 C 15.934 12.466,16.016 12.424,16.620 12.034 C 16.994 11.793,17.326 11.581,17.357 11.563 C 17.440 11.514,16.990 10.952,16.477 10.465 C 15.544 9.578,14.343 8.972,13.090 8.758 C 12.555 8.667,11.502 8.657,10.980 8.739 M2.009 11.086 L 2.020 11.938 6.993 15.049 C 9.727 16.760,11.983 18.160,12.005 18.160 C 12.049 18.160,21.868 12.023,21.951 11.944 C 21.989 11.907,21.999 11.697,21.991 11.072 L 21.980 10.248 16.994 13.359 L 12.007 16.469 7.034 13.371 C 4.298 11.667,2.046 10.264,2.029 10.254 C 2.012 10.243,2.003 10.618,2.009 11.086 M11.261 11.624 C 10.845 11.717,10.419 11.894,10.064 12.122 C 9.751 12.323,9.303 12.720,9.155 12.927 C 9.081 13.030,9.089 13.029,9.349 12.880 C 9.700 12.679,10.021 12.575,10.474 12.514 C 11.123 12.428,11.863 12.590,12.450 12.946 C 12.721 13.111,13.255 13.600,13.406 13.821 C 13.461 13.903,13.523 13.952,13.555 13.939 C 13.585 13.928,13.905 13.736,14.265 13.513 L 14.921 13.107 14.854 13.004 C 14.470 12.410,13.678 11.859,12.920 11.660 C 12.548 11.563,11.627 11.542,11.261 11.624 " stroke="none" fill-rule="evenodd" fill="black"></path></svg>