<svg viewBox="0 0 24 24" xmlns="http://www.w3.org/2000/svg"><path d="M11.080 2.042 C 8.058 2.332,5.355 3.948,3.668 6.473 C 3.057 7.387,2.522 8.619,2.267 9.700 C 2.069 10.541,2.022 10.986,2.022 12.000 C 2.022 12.946,2.042 13.161,2.206 14.000 C 2.706 16.551,4.302 18.893,6.545 20.361 C 6.940 20.620,8.049 21.198,8.270 21.260 C 8.356 21.284,8.358 21.279,8.330 21.093 C 8.313 20.987,8.300 20.432,8.300 19.860 C 8.300 18.655,8.220 19.116,9.019 15.741 L 9.554 13.480 9.473 13.250 C 9.264 12.656,9.214 11.749,9.359 11.183 C 9.533 10.502,9.931 9.958,10.433 9.710 C 10.677 9.591,10.730 9.580,11.079 9.580 C 11.425 9.581,11.480 9.592,11.673 9.699 C 12.084 9.925,12.282 10.284,12.310 10.857 C 12.333 11.324,12.251 11.727,11.883 12.947 C 11.497 14.228,11.470 14.342,11.470 14.660 C 11.470 15.214,11.763 15.678,12.272 15.929 C 12.526 16.054,12.559 16.060,12.999 16.060 C 13.378 16.060,13.512 16.043,13.755 15.963 C 14.448 15.736,15.131 15.088,15.551 14.259 C 15.698 13.968,15.915 13.289,16.001 12.851 C 16.120 12.247,16.149 11.303,16.065 10.793 C 15.896 9.767,15.386 8.887,14.633 8.319 C 13.754 7.657,12.740 7.388,11.492 7.486 C 10.439 7.569,9.498 7.973,8.764 8.658 C 8.247 9.141,7.773 9.955,7.572 10.707 C 7.480 11.050,7.466 11.181,7.464 11.740 C 7.461 12.290,7.474 12.428,7.553 12.719 C 7.681 13.189,7.863 13.610,8.067 13.908 C 8.178 14.070,8.240 14.205,8.240 14.283 C 8.240 14.395,8.052 15.207,7.956 15.506 C 7.898 15.688,7.818 15.700,7.541 15.564 C 7.053 15.323,6.559 14.777,6.206 14.087 C 5.791 13.273,5.632 12.618,5.632 11.720 C 5.632 10.647,5.835 9.814,6.322 8.885 C 6.604 8.348,6.915 7.936,7.377 7.488 C 8.591 6.309,10.206 5.718,12.208 5.721 C 14.951 5.724,17.205 7.216,18.055 9.590 C 18.398 10.549,18.452 11.925,18.194 13.119 C 17.770 15.076,16.556 16.678,15.006 17.323 C 14.203 17.658,13.198 17.770,12.502 17.603 C 11.866 17.451,11.227 17.067,11.000 16.700 C 10.951 16.621,10.905 16.561,10.899 16.568 C 10.892 16.575,10.730 17.174,10.539 17.900 C 10.348 18.626,10.140 19.350,10.077 19.509 C 9.932 19.873,9.466 20.803,9.222 21.215 C 9.120 21.388,9.041 21.534,9.048 21.541 C 9.093 21.583,10.146 21.814,10.613 21.884 C 11.337 21.993,12.501 22.001,13.240 21.903 C 16.599 21.457,19.488 19.390,20.959 16.380 C 21.880 14.496,22.185 12.393,21.837 10.327 C 21.123 6.080,17.740 2.759,13.472 2.117 C 12.856 2.024,11.655 1.986,11.080 2.042 " stroke="none" fill-rule="evenodd" fill="black"></path></svg>