<svg viewBox="0 0 24 24" xmlns="http://www.w3.org/2000/svg"><path d="M15.596 3.007 C 14.980 3.064,14.413 3.342,13.941 3.817 C 13.732 4.027,13.215 4.745,11.940 6.597 L 10.220 9.093 10.197 7.117 C 10.180 5.683,10.160 5.096,10.123 4.980 C 9.950 4.435,9.439 3.797,8.885 3.434 C 8.436 3.139,8.058 3.032,7.400 3.010 C 6.739 2.989,6.394 3.052,5.940 3.277 C 5.033 3.725,4.470 4.659,4.360 5.896 C 4.308 6.480,4.308 17.421,4.360 18.040 C 4.518 19.932,5.608 21.020,7.340 21.014 C 7.862 21.012,8.214 20.936,8.639 20.733 C 8.878 20.619,9.014 20.515,9.301 20.225 C 9.727 19.794,9.913 19.470,10.070 18.890 C 10.175 18.501,10.175 18.495,10.197 16.548 L 10.220 14.596 12.495 17.439 C 13.747 19.003,14.854 20.354,14.955 20.441 C 15.629 21.018,16.746 21.189,17.689 20.860 C 18.603 20.540,19.360 19.690,19.584 18.729 C 19.667 18.377,19.666 17.695,19.582 17.380 C 19.445 16.861,19.299 16.653,17.361 14.200 C 16.327 12.891,15.489 11.798,15.499 11.770 C 15.509 11.743,16.195 10.735,17.024 9.530 C 17.853 8.326,18.590 7.214,18.663 7.060 C 19.018 6.310,19.000 5.445,18.612 4.641 C 18.454 4.313,18.377 4.209,18.045 3.877 C 17.724 3.557,17.599 3.463,17.292 3.310 C 16.753 3.041,16.231 2.947,15.596 3.007 " stroke="none" fill-rule="evenodd" fill="black"></path></svg>