<svg viewBox="0 0 24 24" xmlns="http://www.w3.org/2000/svg"><path d="M7.660 7.294 C 7.460 7.321,6.339 7.337,4.670 7.338 L 2.000 7.340 2.000 7.527 C 2.000 7.738,1.969 7.718,2.453 7.822 C 2.646 7.864,2.807 7.925,2.873 7.981 L 2.980 8.073 2.980 10.888 C 2.980 13.478,2.975 13.712,2.912 13.808 C 2.840 13.917,2.649 13.994,2.230 14.084 L 2.000 14.133 2.000 14.316 L 2.000 14.500 5.080 14.500 C 7.130 14.501,8.160 14.487,8.160 14.460 C 8.161 14.397,8.359 12.718,8.387 12.548 L 8.411 12.395 8.217 12.408 L 8.023 12.420 7.800 12.908 C 7.498 13.570,7.374 13.739,7.089 13.873 C 6.863 13.979,6.849 13.980,5.853 13.993 C 4.695 14.009,4.473 13.981,4.296 13.796 L 4.180 13.675 4.168 12.392 L 4.157 11.110 4.948 11.128 C 5.860 11.149,5.941 11.172,6.073 11.449 C 6.118 11.543,6.176 11.732,6.202 11.870 L 6.250 12.120 6.465 12.120 L 6.680 12.120 6.680 11.266 C 6.680 10.797,6.692 10.221,6.706 9.986 L 6.732 9.560 6.510 9.560 L 6.287 9.560 6.195 9.944 C 6.144 10.155,6.072 10.377,6.035 10.438 C 5.940 10.596,5.708 10.641,4.871 10.669 L 4.160 10.692 4.160 9.266 L 4.160 7.840 5.462 7.840 C 6.896 7.840,6.906 7.841,7.095 8.090 C 7.214 8.248,7.282 8.420,7.423 8.930 L 7.531 9.320 7.723 9.320 L 7.915 9.320 7.936 9.150 C 7.959 8.956,8.010 7.237,7.992 7.245 C 7.985 7.248,7.836 7.270,7.660 7.294 M10.017 8.390 C 9.896 8.945,9.689 9.352,9.396 9.616 C 9.196 9.796,8.844 9.960,8.658 9.960 C 8.567 9.960,8.560 9.974,8.560 10.160 L 8.560 10.360 8.977 10.360 L 9.394 10.360 9.409 12.030 C 9.427 13.961,9.426 13.951,9.782 14.307 C 9.954 14.479,10.039 14.530,10.280 14.603 C 10.920 14.797,11.727 14.561,12.058 14.082 L 12.173 13.918 12.059 13.799 L 11.945 13.680 11.842 13.778 C 11.649 13.963,11.328 14.064,10.993 14.046 C 10.844 14.038,10.644 13.857,10.544 13.641 C 10.464 13.469,10.459 13.385,10.447 11.884 L 10.434 10.308 10.767 10.333 C 10.950 10.347,11.282 10.370,11.504 10.385 L 11.907 10.411 11.934 10.160 C 11.984 9.680,12.003 9.710,11.670 9.736 C 11.511 9.748,11.178 9.769,10.930 9.782 L 10.480 9.807 10.480 9.043 L 10.480 8.280 10.261 8.280 C 10.054 8.280,10.040 8.286,10.017 8.390 M13.920 9.657 C 13.465 9.784,13.117 10.058,12.953 10.420 C 12.814 10.729,12.822 11.222,12.972 11.528 C 13.036 11.659,13.168 11.832,13.281 11.933 C 13.466 12.099,13.604 12.176,14.480 12.593 C 14.667 12.682,14.890 12.813,14.975 12.885 C 15.330 13.181,15.384 13.702,15.091 14.009 C 14.768 14.347,13.945 14.299,13.630 13.924 C 13.574 13.858,13.451 13.615,13.355 13.383 L 13.180 12.961 13.000 12.960 L 12.820 12.960 12.820 13.657 L 12.820 14.354 13.111 14.441 C 14.496 14.852,15.666 14.586,16.068 13.769 C 16.167 13.567,16.180 13.497,16.177 13.180 C 16.171 12.457,15.864 12.121,14.758 11.622 C 14.481 11.497,14.166 11.329,14.058 11.247 C 13.572 10.883,13.569 10.318,14.053 10.083 C 14.371 9.930,14.984 9.984,15.207 10.186 C 15.245 10.221,15.333 10.418,15.401 10.624 C 15.470 10.830,15.542 11.009,15.561 11.020 C 15.580 11.032,15.666 11.030,15.752 11.017 L 15.908 10.992 15.934 10.566 C 15.948 10.332,15.970 10.065,15.984 9.974 C 16.006 9.834,15.997 9.801,15.929 9.765 C 15.656 9.619,14.315 9.547,13.920 9.657 M18.340 9.728 C 18.054 9.748,17.536 9.755,17.188 9.743 L 16.556 9.722 16.568 9.910 C 16.579 10.090,16.587 10.101,16.744 10.159 C 16.990 10.250,17.038 10.305,17.232 10.720 C 17.439 11.161,18.168 12.908,18.619 14.046 L 18.932 14.832 18.749 15.107 C 18.364 15.686,17.832 16.074,17.372 16.112 C 16.940 16.148,16.874 16.080,16.758 15.477 C 16.714 15.250,16.670 15.057,16.661 15.047 C 16.651 15.038,16.559 15.046,16.456 15.065 L 16.267 15.100 16.175 15.640 C 16.124 15.937,16.070 16.247,16.056 16.330 C 16.030 16.480,16.030 16.480,16.245 16.578 C 16.695 16.782,17.296 16.806,17.783 16.639 C 18.384 16.433,18.912 15.901,19.411 15.000 C 19.490 14.857,19.944 13.831,20.419 12.721 C 20.895 11.610,21.324 10.629,21.373 10.541 C 21.435 10.426,21.525 10.345,21.685 10.260 C 22.018 10.082,22.046 10.051,22.032 9.869 L 22.020 9.712 21.028 9.706 L 20.036 9.700 20.048 9.877 C 20.059 10.035,20.073 10.058,20.180 10.090 C 20.660 10.233,20.743 10.357,20.610 10.737 C 20.389 11.369,19.490 13.480,19.441 13.480 C 19.378 13.480,18.320 10.604,18.320 10.433 C 18.320 10.286,18.470 10.171,18.740 10.112 L 18.980 10.059 18.992 9.869 C 19.003 9.707,18.994 9.681,18.932 9.686 C 18.892 9.689,18.626 9.708,18.340 9.728 " stroke="none" fill-rule="evenodd" fill="black"></path></svg>