<svg viewBox="0 0 24 24" xmlns="http://www.w3.org/2000/svg"><path d="M4.327 3.043 C 3.703 3.166,3.175 3.688,3.044 4.312 C 3.013 4.463,3.000 6.685,3.000 12.014 C 3.000 20.202,2.987 19.724,3.228 20.168 C 3.434 20.546,3.868 20.861,4.312 20.955 C 4.611 21.018,19.385 21.019,19.688 20.956 C 20.310 20.826,20.823 20.312,20.955 19.688 C 20.987 19.535,21.000 17.380,21.000 11.986 C 21.000 3.798,21.013 4.276,20.772 3.832 C 20.559 3.441,20.115 3.130,19.642 3.040 C 19.378 2.990,4.581 2.993,4.327 3.043 M9.364 6.566 C 10.095 6.816,10.346 7.716,9.842 8.288 C 9.626 8.534,9.345 8.654,8.980 8.656 C 8.644 8.658,8.457 8.574,8.213 8.310 C 7.700 7.753,7.931 6.839,8.653 6.573 C 8.820 6.511,9.193 6.508,9.364 6.566 M15.939 9.621 C 16.599 9.793,17.068 10.302,17.240 11.036 C 17.303 11.302,17.304 12.013,17.242 12.350 C 17.217 12.488,17.063 13.075,16.900 13.655 C 16.547 14.914,16.497 15.166,16.557 15.390 C 16.610 15.586,16.672 15.641,16.868 15.667 C 17.148 15.704,17.428 15.417,17.660 14.856 C 17.723 14.704,17.787 14.565,17.802 14.547 C 17.817 14.529,17.977 14.572,18.158 14.642 L 18.487 14.769 18.462 14.902 C 18.431 15.068,18.230 15.560,18.114 15.755 C 17.671 16.497,17.120 16.843,16.380 16.845 C 15.463 16.847,14.896 16.419,14.757 15.620 C 14.682 15.187,14.736 14.857,15.102 13.523 C 15.454 12.236,15.495 11.979,15.398 11.629 C 15.345 11.441,15.155 11.219,14.960 11.120 C 14.488 10.879,13.806 11.058,13.443 11.517 C 13.170 11.861,13.061 12.196,12.520 14.364 C 12.232 15.517,11.978 16.527,11.957 16.610 L 11.917 16.760 11.018 16.760 C 10.524 16.760,10.120 16.750,10.120 16.738 C 10.120 16.726,10.184 16.463,10.262 16.153 C 10.340 15.843,10.398 15.584,10.391 15.577 C 10.384 15.570,10.280 15.691,10.159 15.846 C 9.585 16.583,8.765 16.954,7.962 16.840 C 6.981 16.701,6.525 16.006,6.676 14.877 C 6.710 14.616,7.428 11.568,7.544 11.190 C 7.564 11.125,7.518 11.120,6.949 11.120 C 6.611 11.120,6.324 11.111,6.313 11.099 C 6.301 11.088,6.376 10.768,6.478 10.389 L 6.665 9.700 8.192 9.690 C 9.316 9.682,9.720 9.691,9.720 9.725 C 9.720 9.750,9.432 10.912,9.079 12.307 C 8.298 15.400,8.290 15.466,8.702 15.623 C 9.091 15.772,9.711 15.539,10.177 15.070 C 10.639 14.605,10.664 14.543,11.099 12.800 C 11.310 11.953,11.493 11.228,11.504 11.190 C 11.524 11.125,11.476 11.120,10.883 11.120 C 10.529 11.120,10.240 11.108,10.240 11.093 C 10.240 11.079,10.324 10.764,10.427 10.393 L 10.613 9.720 12.007 9.720 L 13.402 9.720 13.380 9.810 C 13.288 10.199,13.080 11.166,13.080 11.204 C 13.080 11.231,13.149 11.145,13.234 11.014 C 13.319 10.883,13.501 10.655,13.639 10.508 C 14.370 9.726,15.165 9.420,15.939 9.621 " stroke="none" fill-rule="evenodd" fill="black"></path></svg>