<svg viewBox="0 0 24 24" xmlns="http://www.w3.org/2000/svg"><path d="M4.378 2.056 C 3.745 2.210,3.222 2.720,3.062 3.338 C 3.007 3.550,3.000 4.540,3.000 12.000 C 3.000 21.300,2.982 20.666,3.252 21.113 C 3.401 21.361,3.665 21.621,3.921 21.771 C 4.334 22.013,3.877 22.000,11.998 22.000 C 19.986 21.999,19.586 22.009,20.030 21.796 C 20.274 21.679,20.679 21.274,20.796 21.030 C 21.010 20.584,20.999 21.068,20.999 12.000 C 20.999 2.948,21.009 3.412,20.799 2.979 C 20.591 2.548,20.064 2.148,19.568 2.044 C 19.249 1.978,4.655 1.989,4.378 2.056 M19.471 3.062 C 19.661 3.141,19.788 3.261,19.887 3.455 C 19.966 3.608,19.967 3.731,19.990 11.962 L 20.013 20.313 19.902 20.539 C 19.827 20.693,19.740 20.798,19.629 20.872 L 19.466 20.980 12.103 20.992 C 6.950 21.000,4.696 20.991,4.592 20.961 C 4.392 20.903,4.204 20.738,4.115 20.542 C 4.045 20.386,4.042 20.044,4.041 12.009 C 4.040 4.542,4.047 3.621,4.102 3.489 C 4.184 3.292,4.306 3.165,4.500 3.076 C 4.654 3.005,4.949 3.002,11.991 3.001 C 18.519 3.000,19.339 3.007,19.471 3.062 M7.480 9.321 L 7.480 13.641 7.610 13.585 C 7.681 13.554,8.001 13.408,8.320 13.261 C 9.343 12.789,10.085 12.522,10.940 12.318 C 11.740 12.128,13.043 11.972,13.440 12.020 C 13.864 12.071,14.182 12.273,14.324 12.580 C 14.394 12.731,14.398 12.909,14.399 15.890 L 14.400 19.040 15.422 19.040 L 16.443 19.040 16.430 15.710 C 16.417 12.669,16.410 12.359,16.345 12.140 C 16.057 11.161,15.277 10.419,14.212 10.110 C 13.937 10.031,13.817 10.021,13.200 10.025 C 12.156 10.033,11.097 10.197,10.082 10.508 C 9.828 10.586,9.588 10.659,9.550 10.669 C 9.484 10.688,9.480 10.535,9.480 7.845 L 9.480 5.000 8.480 5.000 L 7.480 5.000 7.480 9.321 M14.468 5.030 C 14.458 5.046,14.438 5.132,14.423 5.220 C 14.365 5.555,14.156 6.209,13.974 6.623 C 13.783 7.059,13.376 7.768,13.158 8.042 C 13.093 8.124,13.040 8.202,13.040 8.216 C 13.040 8.229,13.482 8.240,14.023 8.240 L 15.005 8.240 15.113 8.115 C 15.721 7.404,16.203 6.415,16.377 5.519 C 16.413 5.333,16.452 5.140,16.462 5.090 L 16.482 5.000 15.483 5.000 C 14.934 5.000,14.477 5.014,14.468 5.030 M7.520 17.000 L 7.520 19.008 7.790 18.769 C 9.410 17.331,9.740 17.031,9.740 17.000 C 9.740 16.969,9.410 16.669,7.790 15.231 L 7.520 14.992 7.520 17.000 " stroke="none" fill-rule="evenodd" fill="black"></path></svg>