<svg viewBox="0 0 24 24" xmlns="http://www.w3.org/2000/svg"><path d="M20.900 3.637 C 20.603 3.718,2.869 10.583,2.620 10.714 C 1.758 11.165,1.803 11.709,2.729 12.017 C 3.441 12.253,7.186 13.414,7.240 13.415 C 7.273 13.416,9.649 11.934,12.520 10.122 C 15.391 8.311,17.809 6.792,17.894 6.748 C 18.108 6.637,18.406 6.611,18.478 6.698 C 18.525 6.754,18.522 6.779,18.454 6.872 C 18.410 6.931,16.488 8.684,14.182 10.767 C 11.876 12.849,9.955 14.587,9.914 14.628 C 9.846 14.696,9.825 14.908,9.701 16.782 C 9.626 17.925,9.553 18.973,9.541 19.110 L 9.518 19.360 9.666 19.360 C 9.960 19.360,10.131 19.226,11.394 17.999 C 12.069 17.345,12.635 16.805,12.654 16.799 C 12.673 16.794,13.720 17.552,14.982 18.485 C 17.324 20.216,17.516 20.340,17.922 20.388 C 18.331 20.436,18.716 20.120,18.863 19.614 C 18.897 19.500,19.617 16.143,20.465 12.153 C 21.935 5.233,22.005 4.884,21.991 4.553 C 21.978 4.253,21.960 4.181,21.856 4.013 C 21.665 3.703,21.252 3.541,20.900 3.637 " stroke="none" fill-rule="evenodd" fill="black"></path></svg>