<svg viewBox="0 0 24 24" xmlns="http://www.w3.org/2000/svg"><path d="M4.938 3.102 C 5.923 4.599,7.384 7.050,9.682 11.065 L 10.990 13.350 10.917 17.164 C 10.877 19.262,10.849 20.982,10.854 20.987 C 10.859 20.992,11.087 20.969,11.362 20.936 C 11.861 20.875,12.397 20.885,12.878 20.963 C 12.997 20.982,13.103 20.991,13.112 20.982 C 13.121 20.973,13.096 19.249,13.057 17.153 L 12.986 13.340 14.019 11.540 C 16.417 7.361,18.638 3.642,19.045 3.125 C 19.087 3.072,19.116 3.023,19.111 3.018 C 19.105 3.012,18.974 3.032,18.820 3.062 C 18.184 3.184,17.353 3.166,16.820 3.019 C 16.752 3.001,16.698 3.072,16.462 3.489 C 15.986 4.332,13.250 8.884,12.122 10.711 L 11.992 10.922 10.951 9.211 C 9.522 6.863,8.084 4.464,7.660 3.720 C 7.466 3.379,7.288 3.080,7.264 3.055 C 7.231 3.021,7.111 3.029,6.800 3.083 C 6.569 3.124,6.236 3.158,6.060 3.158 C 5.756 3.160,5.095 3.074,4.935 3.013 C 4.863 2.985,4.863 2.989,4.938 3.102 " stroke="none" fill-rule="evenodd" fill="black"></path></svg>