<svg viewBox="0 0 24 24" xmlns="http://www.w3.org/2000/svg"><path d="M11.623 3.046 C 10.340 3.159,8.995 3.623,7.978 4.302 C 6.126 5.541,5.172 7.167,5.092 9.223 C 5.066 9.903,5.121 10.346,5.321 11.055 C 5.559 11.903,5.787 12.336,6.240 12.801 C 6.565 13.134,6.994 13.385,7.311 13.428 C 7.453 13.447,7.488 13.435,7.576 13.340 C 7.756 13.146,7.999 12.313,7.936 12.103 C 7.923 12.058,7.788 11.804,7.638 11.540 C 7.170 10.721,7.035 10.123,7.114 9.231 C 7.217 8.078,7.615 7.160,8.364 6.347 C 9.047 5.605,9.959 5.098,11.011 4.874 C 11.598 4.749,12.682 4.749,13.269 4.874 C 14.617 5.161,15.566 5.862,16.063 6.937 C 16.295 7.440,16.364 7.783,16.388 8.544 C 16.430 9.869,16.168 11.245,15.680 12.260 C 15.274 13.105,14.819 13.655,14.300 13.926 C 13.431 14.381,12.574 14.319,11.980 13.757 C 11.656 13.450,11.546 13.197,11.527 12.715 C 11.506 12.206,11.600 11.770,11.981 10.599 C 12.359 9.441,12.453 8.991,12.431 8.459 C 12.417 8.130,12.394 8.014,12.305 7.819 C 12.183 7.551,11.933 7.271,11.715 7.158 C 11.359 6.975,10.734 6.987,10.326 7.186 C 9.886 7.400,9.440 7.968,9.215 8.601 C 9.128 8.849,9.106 8.991,9.090 9.430 C 9.067 10.060,9.120 10.481,9.286 10.984 L 9.406 11.349 9.058 12.704 C 7.932 17.081,7.790 18.049,7.977 20.080 C 8.077 21.169,8.123 21.203,8.602 20.543 C 9.018 19.971,9.214 19.659,9.528 19.066 C 9.985 18.205,10.091 17.889,10.559 16.000 C 10.715 15.373,10.851 14.835,10.862 14.805 C 10.875 14.768,10.919 14.802,10.994 14.905 C 11.334 15.372,11.901 15.727,12.596 15.907 C 12.947 15.998,13.034 16.005,13.600 15.987 C 14.091 15.972,14.301 15.947,14.609 15.867 C 15.559 15.618,16.153 15.281,16.841 14.600 C 17.385 14.062,17.721 13.582,18.075 12.837 C 18.609 11.715,18.863 10.620,18.907 9.260 C 18.952 7.853,18.684 6.848,17.976 5.776 C 17.644 5.273,16.856 4.490,16.337 4.147 C 14.997 3.262,13.402 2.889,11.623 3.046 " stroke="none" fill-rule="evenodd" fill="black"></path></svg>