<svg viewBox="0 0 24 24" xmlns="http://www.w3.org/2000/svg"><path d="M7.671 3.062 C 7.611 3.095,7.544 3.156,7.521 3.198 C 7.494 3.249,7.480 4.467,7.480 6.793 L 7.480 10.312 7.619 10.434 C 7.774 10.570,8.006 10.647,8.263 10.647 C 8.494 10.647,8.563 10.601,8.813 10.289 C 9.126 9.897,9.738 9.288,10.060 9.047 C 10.214 8.932,10.538 8.741,10.780 8.622 C 11.449 8.294,11.950 8.166,12.700 8.132 C 14.095 8.068,15.311 8.541,16.305 9.535 C 17.067 10.296,17.505 11.157,17.662 12.200 C 18.098 15.088,15.855 17.680,12.921 17.680 C 12.142 17.680,11.496 17.531,10.808 17.193 L 10.475 17.029 10.489 14.765 C 10.502 12.716,10.511 12.479,10.576 12.280 C 10.837 11.481,11.387 10.897,12.150 10.607 C 12.384 10.519,12.484 10.505,12.900 10.504 C 13.334 10.503,13.413 10.514,13.722 10.624 C 14.335 10.841,14.802 11.238,15.090 11.787 C 15.275 12.139,15.359 12.486,15.359 12.908 C 15.360 13.348,15.304 13.595,15.111 14.000 C 14.983 14.268,14.884 14.404,14.644 14.644 C 14.026 15.261,13.265 15.477,12.358 15.295 C 12.120 15.247,12.010 15.241,11.942 15.272 C 11.737 15.365,11.565 15.980,11.691 16.172 C 11.787 16.318,12.138 16.404,12.743 16.429 C 13.146 16.445,13.344 16.434,13.603 16.382 C 15.286 16.041,16.480 14.596,16.480 12.900 C 16.480 11.274,15.364 9.863,13.768 9.472 C 13.266 9.349,12.560 9.358,12.037 9.493 C 10.711 9.836,9.683 10.904,9.441 12.192 C 9.419 12.312,9.400 13.208,9.399 14.262 C 9.398 15.284,9.390 16.120,9.381 16.120 C 9.372 16.120,9.285 16.017,9.188 15.890 C 8.954 15.586,8.628 15.014,8.493 14.669 C 8.362 14.335,8.269 14.261,8.030 14.296 C 7.774 14.335,7.447 14.500,7.394 14.618 C 7.301 14.821,7.744 15.750,8.259 16.434 C 9.177 17.652,10.519 18.459,12.031 18.703 C 12.468 18.773,13.343 18.781,13.764 18.719 C 16.203 18.357,18.124 16.563,18.685 14.124 C 18.788 13.679,18.829 12.637,18.763 12.147 C 18.503 10.197,17.313 8.536,15.540 7.650 C 15.070 7.415,14.680 7.279,14.113 7.153 C 13.757 7.073,13.592 7.061,12.920 7.062 C 12.268 7.063,12.073 7.078,11.732 7.152 C 10.693 7.378,9.732 7.874,8.839 8.646 L 8.520 8.921 8.520 6.521 L 8.520 4.120 12.578 4.120 C 15.526 4.120,16.664 4.108,16.736 4.074 C 16.865 4.016,16.920 3.852,16.920 3.532 C 16.920 3.264,16.850 3.068,16.738 3.025 C 16.703 3.011,14.672 3.001,12.227 3.002 C 8.380 3.003,7.765 3.011,7.671 3.062 M12.260 4.964 C 11.454 5.034,10.308 5.314,9.960 5.526 C 9.835 5.602,9.830 5.613,9.852 5.798 C 9.881 6.042,10.023 6.347,10.145 6.427 C 10.233 6.484,10.271 6.478,10.682 6.345 C 12.518 5.747,14.384 5.857,16.066 6.662 C 16.481 6.861,17.104 7.269,17.586 7.657 C 17.766 7.802,17.951 7.920,17.998 7.920 C 18.098 7.920,18.460 7.594,18.547 7.427 C 18.639 7.248,18.584 7.143,18.252 6.859 C 16.628 5.474,14.423 4.776,12.260 4.964 M11.779 11.890 C 11.493 12.166,11.500 12.203,11.918 12.618 L 12.278 12.977 11.919 13.343 C 11.485 13.786,11.470 13.848,11.741 14.107 C 12.018 14.373,12.092 14.356,12.526 13.932 L 12.882 13.584 13.232 13.932 C 13.655 14.353,13.722 14.369,13.985 14.105 C 14.244 13.846,14.230 13.789,13.802 13.346 L 13.443 12.975 13.802 12.618 C 13.999 12.422,14.160 12.234,14.160 12.201 C 14.160 12.095,14.006 11.882,13.870 11.800 C 13.647 11.664,13.579 11.690,13.205 12.058 L 12.861 12.396 12.516 12.058 C 12.102 11.653,12.040 11.639,11.779 11.890 M5.395 13.719 C 5.167 13.759,5.058 13.816,4.982 13.932 C 4.930 14.011,4.932 14.066,5.005 14.421 C 5.469 16.703,6.924 18.706,8.960 19.870 C 10.351 20.665,12.027 21.049,13.562 20.924 C 15.474 20.768,17.213 20.009,18.545 18.748 C 18.919 18.395,18.948 18.313,18.790 18.078 C 18.669 17.898,18.377 17.680,18.258 17.680 C 18.194 17.680,18.055 17.777,17.851 17.964 C 16.818 18.906,15.665 19.494,14.313 19.768 C 13.924 19.847,13.739 19.860,13.000 19.860 C 12.011 19.860,11.580 19.794,10.746 19.515 C 9.630 19.142,8.685 18.537,7.840 17.654 C 7.341 17.132,6.980 16.618,6.663 15.980 C 6.377 15.402,6.223 14.964,6.061 14.270 C 6.002 14.014,5.932 13.787,5.907 13.766 C 5.833 13.705,5.597 13.684,5.395 13.719 " stroke="none" fill-rule="evenodd" fill="black"></path></svg>