<svg viewBox="0 0 24 24" xmlns="http://www.w3.org/2000/svg"><path d="M14.960 4.065 C 13.816 4.283,12.849 4.916,12.238 5.846 C 11.734 6.614,11.497 7.575,11.598 8.443 C 11.624 8.666,11.655 8.873,11.667 8.904 C 11.696 8.978,11.518 8.977,10.893 8.900 C 9.996 8.789,9.115 8.575,8.253 8.260 C 7.263 7.897,5.943 7.146,5.080 6.455 C 4.715 6.163,3.798 5.268,3.528 4.941 L 3.363 4.742 3.204 5.081 C 2.476 6.636,2.825 8.499,4.066 9.680 C 4.217 9.823,4.402 9.987,4.477 10.043 L 4.615 10.146 4.316 10.114 C 3.956 10.076,3.414 9.924,3.053 9.760 L 2.788 9.640 2.814 9.990 C 2.888 10.989,3.331 11.907,4.075 12.606 C 4.521 13.025,4.958 13.290,5.522 13.483 C 5.765 13.565,5.949 13.642,5.932 13.652 C 5.822 13.719,5.217 13.769,4.745 13.751 L 4.212 13.731 4.287 13.929 C 4.637 14.850,5.483 15.745,6.378 16.141 C 6.727 16.295,7.263 16.440,7.590 16.467 C 7.751 16.481,7.890 16.504,7.900 16.520 C 7.947 16.596,6.870 17.260,6.271 17.524 C 5.127 18.028,3.756 18.284,2.570 18.217 C 2.301 18.202,2.080 18.199,2.080 18.211 C 2.080 18.223,2.220 18.313,2.390 18.411 C 4.391 19.564,6.572 20.087,8.829 19.958 C 11.111 19.828,13.039 19.184,14.760 17.977 C 17.062 16.363,18.735 13.803,19.374 10.920 C 19.545 10.145,19.604 9.655,19.628 8.800 L 19.651 7.980 19.891 7.800 C 20.365 7.444,21.183 6.584,21.555 6.049 L 21.646 5.919 21.433 6.006 C 20.889 6.228,19.668 6.542,19.468 6.512 C 19.406 6.503,19.438 6.467,19.610 6.348 C 19.937 6.123,20.375 5.670,20.620 5.302 C 20.818 5.004,21.106 4.413,21.071 4.377 C 21.062 4.369,20.841 4.469,20.578 4.598 C 20.055 4.857,19.354 5.111,18.869 5.219 L 18.558 5.288 18.383 5.127 C 17.903 4.685,17.252 4.318,16.660 4.157 C 16.407 4.088,16.205 4.068,15.700 4.058 C 15.348 4.052,15.015 4.055,14.960 4.065 " stroke="none" fill-rule="evenodd" fill="black"></path></svg>