<svg viewBox="0 0 24 24" xmlns="http://www.w3.org/2000/svg"><path d="M3.664 3.063 C 3.436 3.146,3.257 3.297,3.131 3.511 L 3.020 3.700 3.020 12.000 L 3.020 20.300 3.131 20.489 C 3.192 20.592,3.301 20.723,3.374 20.778 C 3.684 21.015,3.106 21.000,11.998 21.000 C 21.144 21.000,20.376 21.026,20.701 20.701 C 21.026 20.376,21.000 21.144,21.000 12.000 C 21.000 2.856,21.026 3.624,20.701 3.299 C 20.376 2.973,21.147 3.000,11.983 3.003 C 5.003 3.005,3.797 3.014,3.664 3.063 M10.566 9.360 C 11.132 10.603,11.734 11.923,11.904 12.292 C 12.073 12.662,12.225 12.950,12.242 12.932 C 12.263 12.909,14.043 8.509,14.589 7.130 C 14.604 7.091,14.981 7.080,16.284 7.080 L 17.960 7.080 17.960 7.170 C 17.960 7.233,17.800 7.414,17.419 7.780 L 16.878 8.300 16.879 11.857 L 16.880 15.413 17.400 15.939 C 17.809 16.352,17.920 16.487,17.920 16.572 L 17.920 16.680 15.560 16.680 L 13.200 16.680 13.200 16.572 C 13.200 16.486,13.314 16.348,13.740 15.919 L 14.280 15.374 14.280 12.579 C 14.280 11.015,14.265 9.801,14.246 9.822 C 14.227 9.843,13.611 11.386,12.878 13.250 L 11.545 16.640 11.363 16.640 L 11.180 16.640 9.622 13.237 C 8.764 11.365,8.049 9.825,8.032 9.815 C 7.979 9.782,7.993 14.487,8.045 14.638 C 8.070 14.709,8.403 15.148,8.785 15.613 C 9.231 16.156,9.480 16.491,9.480 16.550 L 9.480 16.640 7.680 16.640 L 5.880 16.640 5.880 16.527 C 5.880 16.440,6.035 16.226,6.556 15.594 C 7.009 15.044,7.248 14.721,7.279 14.617 C 7.312 14.504,7.321 13.679,7.312 11.658 C 7.300 8.966,7.297 8.852,7.223 8.738 C 7.180 8.673,6.887 8.312,6.573 7.935 C 6.231 7.525,6.000 7.215,6.000 7.164 L 6.000 7.079 7.768 7.090 L 9.535 7.100 10.566 9.360 " stroke="none" fill-rule="evenodd" fill="black"></path></svg>