<svg viewBox="0 0 24 24" xmlns="http://www.w3.org/2000/svg"><path d="M3.000 12.000 L 3.000 21.000 12.000 21.000 L 21.000 21.000 21.000 12.000 L 21.000 3.000 12.000 3.000 L 3.000 3.000 3.000 12.000 M18.520 12.080 L 18.520 18.600 17.180 18.600 L 15.840 18.600 15.840 18.077 L 15.840 17.555 15.610 17.751 C 15.136 18.157,14.739 18.369,14.153 18.529 C 13.859 18.609,13.730 18.620,13.060 18.618 C 12.221 18.616,11.941 18.568,11.346 18.320 C 10.140 17.818,9.123 16.702,8.705 15.420 C 8.381 14.427,8.401 13.131,8.755 12.165 C 9.279 10.736,10.550 9.557,11.981 9.173 C 12.339 9.077,12.452 9.066,13.080 9.064 C 13.863 9.061,14.113 9.105,14.627 9.341 C 15.004 9.513,15.208 9.657,15.511 9.963 L 15.760 10.216 15.760 8.168 C 15.760 7.042,15.764 6.119,15.770 6.118 C 15.775 6.118,16.365 5.993,17.080 5.842 C 17.795 5.691,18.412 5.566,18.450 5.564 C 18.516 5.560,18.520 5.896,18.520 12.080 M13.127 11.522 C 12.476 11.638,11.816 12.122,11.508 12.710 C 11.318 13.072,11.235 13.416,11.237 13.834 C 11.239 14.492,11.464 15.025,11.925 15.459 C 12.393 15.901,12.966 16.120,13.649 16.120 C 14.274 16.120,14.809 15.881,15.248 15.405 C 15.517 15.114,15.661 14.848,15.761 14.457 C 15.911 13.869,15.832 13.199,15.551 12.667 C 15.294 12.183,14.748 11.744,14.201 11.583 C 13.925 11.502,13.405 11.473,13.127 11.522 " stroke="none" fill-rule="evenodd" fill="black"></path></svg>