<svg viewBox="0 0 24 24" xmlns="http://www.w3.org/2000/svg"><path d="M5.700 2.835 C 5.365 2.986,5.328 3.064,4.785 4.729 C 2.454 11.879,2.031 13.202,2.012 13.404 C 1.986 13.672,2.068 13.956,2.240 14.193 C 2.320 14.304,3.733 15.354,6.954 17.695 C 9.484 19.534,11.620 21.083,11.702 21.139 C 11.893 21.268,12.103 21.271,12.284 21.147 C 13.104 20.588,21.578 14.396,21.688 14.275 C 21.901 14.044,22.013 13.723,21.988 13.420 C 21.975 13.262,21.777 12.595,21.407 11.460 C 21.098 10.514,20.376 8.295,19.803 6.529 C 19.230 4.762,18.735 3.268,18.704 3.209 C 18.623 3.054,18.444 2.894,18.271 2.822 C 17.945 2.686,17.537 2.795,17.315 3.080 C 17.234 3.184,16.948 4.017,16.187 6.360 L 15.168 9.500 12.001 9.500 L 8.833 9.500 7.813 6.360 C 7.054 4.020,6.766 3.184,6.684 3.080 C 6.456 2.786,6.036 2.682,5.700 2.835 M6.942 6.740 C 7.421 8.214,7.820 9.443,7.830 9.470 C 7.845 9.510,7.470 9.520,6.040 9.520 C 4.336 9.520,4.232 9.516,4.249 9.450 C 4.373 8.984,6.027 3.978,6.046 4.013 C 6.060 4.039,6.463 5.266,6.942 6.740 M18.879 6.733 C 19.364 8.225,19.760 9.462,19.760 9.483 C 19.760 9.527,16.213 9.535,16.188 9.490 C 16.178 9.473,16.359 8.884,16.588 8.180 C 16.818 7.476,17.224 6.234,17.489 5.420 C 17.755 4.606,17.978 3.958,17.985 3.980 C 17.992 4.002,18.395 5.241,18.879 6.733 M9.414 14.345 C 10.113 16.492,10.677 18.256,10.669 18.264 C 10.656 18.277,4.666 10.622,4.588 10.493 C 4.562 10.449,4.868 10.440,6.350 10.440 L 8.144 10.440 9.414 14.345 M14.840 10.474 C 14.840 10.493,14.697 10.948,14.523 11.484 C 12.798 16.798,12.029 19.144,12.007 19.167 C 11.987 19.187,9.274 10.911,9.169 10.512 C 9.152 10.443,9.277 10.440,11.995 10.440 C 13.560 10.440,14.840 10.455,14.840 10.474 M19.412 10.495 C 19.344 10.611,13.345 18.278,13.332 18.265 C 13.324 18.258,13.889 16.494,14.588 14.346 L 15.858 10.440 17.651 10.440 C 19.158 10.440,19.439 10.449,19.412 10.495 M6.634 14.664 C 8.204 16.678,9.482 18.331,9.474 18.338 C 9.460 18.351,3.211 13.819,3.050 13.679 C 3.000 13.635,2.960 13.555,2.960 13.496 C 2.960 13.382,3.722 10.999,3.758 11.001 C 3.770 11.002,5.064 12.650,6.634 14.664 M20.652 12.210 C 20.867 12.876,21.043 13.457,21.042 13.503 C 21.041 13.548,20.991 13.631,20.930 13.687 C 20.795 13.813,14.516 18.370,14.502 18.353 C 14.489 18.336,20.214 11.002,20.240 11.001 C 20.251 11.000,20.436 11.545,20.652 12.210 " stroke="none" fill-rule="evenodd" fill="black"></path></svg>