<svg viewBox="0 0 24 24" xmlns="http://www.w3.org/2000/svg"><path d="M8.302 3.044 C 7.462 3.101,6.898 3.251,6.180 3.609 C 4.680 4.358,3.626 5.650,3.178 7.286 C 3.085 7.625,3.072 7.767,3.040 8.800 C 2.990 10.367,2.992 15.092,3.042 15.795 C 3.089 16.455,3.153 16.790,3.325 17.299 C 3.889 18.960,5.439 20.397,7.152 20.845 C 7.643 20.973,8.926 21.007,12.720 20.989 C 16.019 20.974,16.153 20.971,16.511 20.890 C 17.618 20.639,18.443 20.205,19.242 19.453 C 19.996 18.744,20.521 17.880,20.821 16.858 C 20.973 16.337,21.006 15.573,20.992 12.919 L 20.980 10.658 20.848 10.389 C 20.614 9.916,20.514 9.878,19.300 9.804 C 18.604 9.761,18.459 9.726,18.185 9.532 C 17.902 9.332,17.835 9.159,17.794 8.520 C 17.749 7.825,17.705 7.536,17.578 7.097 C 17.345 6.287,16.830 5.471,16.080 4.720 C 15.538 4.179,15.028 3.805,14.420 3.504 C 13.633 3.114,13.468 3.079,12.220 3.038 C 10.933 2.996,8.969 2.999,8.302 3.044 M12.440 7.914 C 12.826 8.114,12.972 8.352,12.973 8.780 C 12.974 8.948,12.949 9.118,12.911 9.204 C 12.830 9.391,12.544 9.665,12.363 9.729 C 12.255 9.767,11.756 9.780,10.340 9.780 C 8.490 9.780,8.457 9.779,8.300 9.694 C 7.990 9.527,7.808 9.252,7.771 8.899 C 7.742 8.611,7.779 8.445,7.923 8.227 C 8.065 8.013,8.244 7.891,8.487 7.842 C 8.582 7.823,9.470 7.810,10.460 7.814 L 12.260 7.820 12.440 7.914 M14.800 14.278 C 15.185 14.298,15.549 14.332,15.608 14.355 C 15.774 14.419,16.044 14.682,16.125 14.860 C 16.227 15.083,16.224 15.470,16.119 15.694 C 15.983 15.983,15.804 16.123,15.492 16.188 C 15.143 16.260,9.165 16.312,8.664 16.247 C 8.275 16.197,8.078 16.073,7.890 15.760 C 7.710 15.460,7.707 15.158,7.883 14.807 C 8.010 14.552,8.148 14.424,8.370 14.353 C 8.442 14.330,8.842 14.298,9.260 14.283 C 10.381 14.240,13.993 14.237,14.800 14.278 " stroke="none" fill-rule="evenodd" fill="black"></path></svg>