<svg viewBox="0 0 24 24" xmlns="http://www.w3.org/2000/svg"><path d="M11.124 4.006 C 8.503 4.280,6.143 5.927,4.963 8.306 C 4.725 8.787,4.421 9.604,4.450 9.690 C 4.459 9.716,4.356 9.817,4.223 9.914 C 4.089 10.011,3.817 10.256,3.617 10.458 C 2.868 11.218,2.346 12.201,2.114 13.290 C 1.989 13.876,1.988 14.889,2.112 15.464 C 2.414 16.866,3.097 17.968,4.230 18.882 C 5.018 19.518,6.108 19.919,7.274 20.003 C 7.650 20.029,9.525 20.039,12.500 20.030 C 17.661 20.015,17.254 20.036,18.160 19.735 C 20.064 19.103,21.518 17.430,21.899 15.433 C 22.188 13.923,21.805 12.282,20.869 11.018 C 20.618 10.678,20.009 10.070,19.731 9.880 C 19.530 9.743,19.522 9.730,19.379 9.300 C 18.715 7.302,17.307 5.703,15.380 4.759 C 14.070 4.117,12.580 3.854,11.124 4.006 M13.020 7.556 C 13.524 7.689,13.931 7.869,14.349 8.145 C 14.562 8.285,14.746 8.400,14.759 8.400 C 14.772 8.400,14.891 8.512,15.025 8.650 C 15.870 9.521,16.235 10.403,16.302 11.730 L 16.328 12.240 16.454 12.241 C 16.523 12.241,16.695 12.268,16.836 12.302 C 17.888 12.550,18.603 13.619,18.445 14.710 C 18.350 15.366,17.887 16.024,17.318 16.310 C 16.788 16.576,17.054 16.564,11.914 16.551 L 7.260 16.540 7.000 16.451 C 6.405 16.248,5.983 15.893,5.704 15.362 C 4.890 13.814,6.197 11.979,7.932 12.232 C 8.550 12.322,9.153 12.719,9.460 13.236 C 9.526 13.347,9.589 13.439,9.600 13.439 C 9.611 13.440,10.183 12.877,10.871 12.189 L 12.122 10.938 11.778 10.569 C 11.098 9.841,10.092 9.224,9.168 8.968 L 8.756 8.854 9.052 8.573 C 9.550 8.100,10.236 7.727,10.911 7.561 C 11.366 7.449,11.405 7.446,12.080 7.459 C 12.552 7.469,12.776 7.492,13.020 7.556 " stroke="none" fill-rule="evenodd" fill="black"></path></svg>