<svg viewBox="0 0 24 24" xmlns="http://www.w3.org/2000/svg"><path d="M11.120 2.039 C 8.336 2.318,5.905 3.624,4.193 5.760 C 1.474 9.155,1.267 13.917,3.682 17.533 C 6.770 22.155,12.946 23.386,17.560 20.299 C 22.155 17.225,23.377 11.041,20.299 6.440 C 18.728 4.092,16.319 2.562,13.493 2.119 C 12.909 2.027,11.660 1.985,11.120 2.039 M12.756 5.097 C 13.093 5.189,13.595 5.447,13.873 5.671 C 14.554 6.219,15.000 7.140,15.000 8.000 C 15.000 9.170,14.225 10.329,13.151 10.766 C 11.642 11.380,9.989 10.734,9.298 9.260 C 9.072 8.779,9.021 8.546,9.021 8.000 C 9.021 7.454,9.072 7.221,9.298 6.740 C 9.716 5.848,10.537 5.215,11.503 5.040 C 11.770 4.991,12.491 5.024,12.756 5.097 M13.480 13.101 C 15.036 13.335,16.543 13.990,17.760 14.961 C 17.947 15.110,18.142 15.278,18.194 15.333 L 18.288 15.434 18.010 15.807 C 16.760 17.486,15.174 18.525,13.280 18.908 C 13.028 18.958,12.738 18.976,12.160 18.976 C 11.582 18.976,11.292 18.958,11.040 18.908 C 9.138 18.524,7.568 17.494,6.307 15.803 L 6.026 15.426 6.243 15.226 C 7.008 14.520,8.201 13.838,9.320 13.467 C 10.023 13.233,10.590 13.118,11.500 13.024 C 11.821 12.991,13.071 13.039,13.480 13.101 " stroke="none" fill-rule="evenodd" fill="black"></path></svg>