<svg viewBox="0 0 24 24" xmlns="http://www.w3.org/2000/svg"><path d="M11.120 2.039 C 10.299 2.121,9.443 2.304,8.751 2.545 C 6.320 3.391,4.311 5.121,3.137 7.377 C 1.679 10.180,1.623 13.483,2.984 16.320 C 4.237 18.931,6.539 20.853,9.360 21.644 L 9.780 21.761 10.900 22.881 L 12.021 24.000 13.157 22.863 C 14.116 21.904,14.315 21.722,14.437 21.700 C 14.793 21.635,15.834 21.250,16.380 20.982 C 18.810 19.789,20.626 17.720,21.476 15.175 C 22.233 12.908,22.164 10.509,21.278 8.272 C 20.116 5.343,17.492 3.056,14.430 2.303 C 13.446 2.062,12.028 1.948,11.120 2.039 M13.218 4.099 C 15.196 4.405,16.984 5.440,18.240 7.006 C 20.146 9.381,20.532 12.673,19.227 15.412 C 19.009 15.872,18.578 16.600,18.526 16.600 C 18.510 16.600,18.356 16.474,18.184 16.321 C 16.830 15.112,15.252 14.371,13.440 14.094 C 12.806 13.997,11.514 13.997,10.880 14.094 C 9.011 14.380,7.459 15.123,6.033 16.412 L 5.606 16.799 5.468 16.609 C 4.767 15.648,4.255 14.351,4.076 13.080 C 3.999 12.537,4.008 11.364,4.093 10.814 C 4.534 7.960,6.408 5.619,9.117 4.540 C 9.590 4.352,10.423 4.141,10.920 4.084 C 11.129 4.060,11.354 4.032,11.420 4.023 C 11.659 3.989,12.829 4.039,13.218 4.099 M11.433 5.040 C 10.843 5.134,10.221 5.380,9.731 5.712 C 8.955 6.240,8.394 7.037,8.130 7.989 C 8.034 8.337,8.022 8.449,8.022 9.000 C 8.022 9.553,8.034 9.663,8.132 10.017 C 8.475 11.256,9.357 12.252,10.520 12.715 C 12.334 13.437,14.462 12.710,15.444 11.033 C 16.503 9.224,15.985 6.878,14.269 5.712 C 13.917 5.473,13.343 5.214,12.958 5.120 C 12.572 5.026,11.783 4.984,11.433 5.040 M12.383 7.043 C 13.185 7.190,13.839 7.872,13.967 8.695 C 14.153 9.894,13.209 11.000,12.000 11.000 C 11.032 11.000,10.183 10.268,10.033 9.305 C 9.933 8.663,10.132 8.061,10.596 7.596 C 11.085 7.108,11.698 6.918,12.383 7.043 M12.846 16.042 C 14.273 16.187,15.570 16.734,16.680 17.661 C 16.845 17.799,17.021 17.956,17.072 18.011 L 17.164 18.110 16.912 18.310 C 16.049 18.994,15.006 19.493,13.821 19.787 L 13.260 19.927 12.630 20.553 L 12.000 21.179 11.370 20.553 L 10.740 19.927 10.179 19.787 C 9.185 19.541,8.347 19.176,7.553 18.645 C 6.994 18.271,6.994 18.272,7.164 18.093 C 7.396 17.849,8.004 17.356,8.346 17.135 C 9.686 16.270,11.279 15.883,12.846 16.042 " stroke="none" fill-rule="evenodd" fill="black"></path></svg>