<svg viewBox="0 0 24 24" xmlns="http://www.w3.org/2000/svg"><path d="M4.580 3.047 C 3.859 3.185,3.199 3.848,3.044 4.592 C 2.982 4.892,2.982 19.108,3.044 19.408 C 3.201 20.158,3.842 20.799,4.592 20.956 C 4.892 21.018,19.108 21.018,19.408 20.956 C 20.158 20.799,20.799 20.158,20.956 19.408 C 21.018 19.108,21.018 4.892,20.956 4.592 C 20.797 3.830,20.138 3.181,19.383 3.043 C 19.076 2.987,4.875 2.991,4.580 3.047 M19.000 12.000 L 19.000 19.000 12.000 19.000 L 5.000 19.000 5.000 12.000 L 5.000 5.000 12.000 5.000 L 19.000 5.000 19.000 12.000 M11.472 6.040 C 10.622 6.175,9.777 6.666,9.263 7.323 C 7.947 9.005,8.401 11.432,10.235 12.519 C 11.307 13.155,12.693 13.155,13.765 12.519 C 15.344 11.584,15.939 9.620,15.142 7.978 C 14.700 7.067,13.866 6.377,12.900 6.122 C 12.534 6.025,11.823 5.985,11.472 6.040 M12.520 8.099 C 12.917 8.239,13.243 8.570,13.402 8.994 C 13.533 9.343,13.503 9.814,13.329 10.169 C 13.175 10.480,12.924 10.722,12.600 10.873 C 12.413 10.961,12.324 10.976,12.000 10.976 C 11.676 10.976,11.587 10.961,11.400 10.873 C 11.076 10.722,10.825 10.480,10.671 10.169 C 10.495 9.811,10.467 9.343,10.600 8.989 C 10.834 8.364,11.429 7.973,12.080 8.018 C 12.223 8.028,12.421 8.064,12.520 8.099 M11.374 14.038 C 9.679 14.234,8.225 14.954,7.040 16.185 C 6.665 16.574,6.198 17.177,6.243 17.214 C 6.438 17.376,7.329 17.886,7.754 18.080 L 7.968 18.178 8.054 18.060 C 8.717 17.148,9.764 16.440,10.864 16.159 C 12.705 15.688,14.754 16.348,15.934 17.792 L 16.167 18.078 16.374 17.974 C 16.756 17.781,17.709 17.199,17.875 17.056 C 17.908 17.028,17.345 16.355,17.013 16.028 C 15.977 15.006,14.710 14.355,13.260 14.101 C 12.836 14.026,11.780 13.991,11.374 14.038 " stroke="none" fill-rule="evenodd" fill="black"></path></svg>