<svg viewBox="0 0 24 24" xmlns="http://www.w3.org/2000/svg"><path d="M9.200 1.058 C 7.841 1.254,6.675 1.841,5.720 2.806 C 4.909 3.627,4.378 4.624,4.111 5.830 C 3.986 6.395,3.986 7.605,4.111 8.170 C 4.383 9.400,4.917 10.389,5.764 11.236 C 6.612 12.084,7.600 12.617,8.826 12.887 C 9.397 13.013,10.603 13.013,11.174 12.887 C 12.400 12.617,13.388 12.084,14.236 11.236 C 15.081 10.391,15.618 9.396,15.887 8.174 C 16.013 7.603,16.013 6.397,15.887 5.826 C 15.555 4.320,14.770 3.084,13.576 2.187 C 13.139 1.858,12.227 1.398,11.741 1.259 C 10.936 1.031,9.935 0.951,9.200 1.058 M19.000 8.000 L 19.000 9.000 21.500 9.000 L 24.000 9.000 24.000 8.000 L 24.000 7.000 21.500 7.000 L 19.000 7.000 19.000 8.000 M17.000 13.000 L 17.000 14.000 20.500 14.000 L 24.000 14.000 24.000 13.000 L 24.000 12.000 20.500 12.000 L 17.000 12.000 17.000 13.000 M9.200 14.044 C 6.467 14.307,4.006 16.031,2.800 18.529 C 2.318 19.525,2.000 20.819,2.000 21.778 L 2.000 22.000 10.000 22.000 L 18.000 22.000 18.000 21.770 C 17.999 21.643,17.981 21.378,17.959 21.180 C 17.645 18.369,15.951 15.982,13.412 14.773 C 12.124 14.159,10.651 13.904,9.200 14.044 M20.000 18.000 L 20.000 19.000 22.000 19.000 L 24.000 19.000 24.000 18.000 L 24.000 17.000 22.000 17.000 L 20.000 17.000 20.000 18.000 " stroke="none" fill-rule="evenodd" fill="black"></path></svg>