<svg viewBox="0 0 24 24" xmlns="http://www.w3.org/2000/svg"><path d="M9.200 1.058 C 7.841 1.254,6.675 1.841,5.720 2.806 C 4.909 3.627,4.378 4.624,4.111 5.830 C 3.986 6.395,3.986 7.605,4.111 8.170 C 4.383 9.400,4.917 10.389,5.764 11.236 C 6.612 12.084,7.600 12.617,8.826 12.887 C 9.397 13.013,10.603 13.013,11.174 12.887 C 12.400 12.617,13.388 12.084,14.236 11.236 C 15.081 10.391,15.618 9.396,15.887 8.174 C 16.013 7.603,16.013 6.397,15.887 5.826 C 15.555 4.320,14.770 3.084,13.576 2.187 C 13.139 1.858,12.227 1.398,11.741 1.259 C 10.936 1.031,9.935 0.951,9.200 1.058 M10.958 3.120 C 11.621 3.282,12.329 3.683,12.823 4.177 C 13.321 4.675,13.716 5.376,13.887 6.062 C 14.013 6.571,14.013 7.429,13.887 7.938 C 13.786 8.341,13.529 8.913,13.288 9.269 C 12.760 10.045,11.963 10.606,11.011 10.870 C 10.663 10.966,10.551 10.978,10.000 10.978 C 9.447 10.978,9.337 10.966,8.983 10.868 C 7.525 10.464,6.430 9.324,6.095 7.860 C 5.994 7.420,5.994 6.580,6.095 6.140 C 6.477 4.471,7.791 3.283,9.540 3.024 C 9.809 2.984,10.630 3.040,10.958 3.120 M19.000 8.000 L 19.000 9.000 21.500 9.000 L 24.000 9.000 24.000 8.000 L 24.000 7.000 21.500 7.000 L 19.000 7.000 19.000 8.000 M17.000 13.000 L 17.000 14.000 20.500 14.000 L 24.000 14.000 24.000 13.000 L 24.000 12.000 20.500 12.000 L 17.000 12.000 17.000 13.000 M9.200 14.044 C 6.467 14.307,4.006 16.031,2.800 18.529 C 2.318 19.525,2.000 20.819,2.000 21.778 L 2.000 22.000 2.994 22.000 L 3.989 22.000 4.016 21.635 C 4.078 20.815,4.255 20.128,4.577 19.455 C 5.439 17.656,7.010 16.455,8.980 16.090 C 9.464 16.000,10.527 16.001,11.020 16.091 C 12.385 16.340,13.634 17.040,14.506 18.045 C 15.385 19.058,15.876 20.252,15.982 21.630 L 16.010 22.000 17.005 22.000 L 18.000 22.000 18.000 21.770 C 17.999 21.643,17.981 21.378,17.959 21.180 C 17.645 18.369,15.951 15.982,13.412 14.773 C 12.124 14.159,10.651 13.904,9.200 14.044 M20.000 18.000 L 20.000 19.000 22.000 19.000 L 24.000 19.000 24.000 18.000 L 24.000 17.000 22.000 17.000 L 20.000 17.000 20.000 18.000 " stroke="none" fill-rule="evenodd" fill="black"></path></svg>