<svg viewBox="0 0 24 24" xmlns="http://www.w3.org/2000/svg"><path d="M11.340 2.024 C 10.026 2.160,9.091 2.415,8.060 2.918 C 5.287 4.272,3.420 6.913,3.059 9.992 C 2.792 12.278,3.471 14.703,4.885 16.509 C 4.992 16.646,5.080 16.767,5.080 16.778 C 5.080 16.788,4.947 16.895,4.786 17.015 C 3.744 17.785,3.103 18.764,3.014 19.723 C 2.990 19.987,2.992 19.996,3.084 20.019 C 3.137 20.031,5.164 20.482,7.590 21.021 L 12.000 22.000 16.410 21.021 C 18.835 20.482,20.863 20.031,20.916 20.019 C 21.008 19.996,21.010 19.987,20.986 19.723 C 20.896 18.761,20.266 17.799,19.210 17.013 C 19.050 16.894,18.920 16.788,18.920 16.778 C 18.920 16.767,19.008 16.646,19.115 16.509 C 19.671 15.799,20.223 14.771,20.516 13.900 C 21.284 11.621,21.131 9.213,20.082 7.058 C 18.784 4.393,16.275 2.555,13.318 2.102 C 12.912 2.040,11.664 1.991,11.340 2.024 M9.720 8.103 C 10.241 8.259,10.673 8.595,10.870 8.996 C 11.025 9.312,11.025 9.688,10.870 10.004 C 10.728 10.293,10.391 10.611,10.067 10.763 C 9.198 11.169,8.088 11.030,7.460 10.436 C 6.866 9.875,6.863 9.128,7.453 8.570 C 7.752 8.287,8.161 8.096,8.620 8.025 C 8.844 7.990,9.499 8.037,9.720 8.103 M15.720 8.103 C 16.241 8.259,16.673 8.595,16.870 8.996 C 17.025 9.312,17.025 9.688,16.870 10.004 C 16.331 11.101,14.419 11.344,13.460 10.436 C 12.866 9.875,12.863 9.128,13.453 8.570 C 13.752 8.287,14.161 8.096,14.620 8.025 C 14.844 7.990,15.499 8.037,15.720 8.103 M12.880 13.100 C 13.547 13.249,14.217 13.684,14.401 14.089 C 14.495 14.298,14.504 14.665,14.419 14.868 C 14.274 15.217,13.890 15.542,13.397 15.735 C 12.877 15.940,12.660 15.977,12.000 15.977 C 11.340 15.977,11.123 15.940,10.603 15.735 C 10.110 15.542,9.726 15.217,9.581 14.868 C 9.496 14.665,9.505 14.298,9.599 14.090 C 9.829 13.584,10.594 13.164,11.540 13.024 C 11.779 12.989,12.587 13.035,12.880 13.100 " stroke="none" fill-rule="evenodd" fill="black"></path></svg>