<svg viewBox="0 0 24 24" xmlns="http://www.w3.org/2000/svg"><path d="M11.340 2.024 C 10.026 2.160,9.091 2.415,8.060 2.918 C 5.287 4.272,3.420 6.913,3.059 9.992 C 2.792 12.278,3.471 14.703,4.885 16.509 C 4.992 16.646,5.080 16.767,5.080 16.778 C 5.080 16.788,4.947 16.895,4.786 17.015 C 3.744 17.785,3.103 18.764,3.014 19.723 C 2.990 19.987,2.992 19.996,3.084 20.019 C 3.137 20.031,5.164 20.482,7.590 21.021 L 12.000 22.000 16.410 21.021 C 18.835 20.482,20.863 20.031,20.916 20.019 C 21.008 19.996,21.010 19.987,20.986 19.723 C 20.896 18.761,20.266 17.799,19.210 17.013 C 19.050 16.894,18.920 16.788,18.920 16.778 C 18.920 16.767,19.008 16.646,19.115 16.509 C 19.671 15.799,20.223 14.771,20.516 13.900 C 21.284 11.621,21.131 9.213,20.082 7.058 C 18.784 4.393,16.275 2.555,13.318 2.102 C 12.912 2.040,11.664 1.991,11.340 2.024 M12.686 4.042 C 14.795 4.256,16.635 5.359,17.819 7.120 C 19.213 9.194,19.375 11.898,18.240 14.161 C 17.910 14.820,17.749 15.041,16.625 16.377 L 15.921 17.214 16.970 17.914 L 18.020 18.614 15.010 19.282 L 12.000 19.951 8.990 19.282 L 5.980 18.614 7.030 17.914 L 8.079 17.214 7.375 16.377 C 6.194 14.972,6.057 14.779,5.679 13.985 C 4.566 11.648,4.851 8.867,6.416 6.787 C 7.877 4.846,10.272 3.797,12.686 4.042 M8.620 8.025 C 7.710 8.166,7.000 8.813,7.000 9.500 C 7.000 10.301,7.931 10.999,9.000 10.999 C 10.069 10.999,11.000 10.301,11.000 9.500 C 11.000 8.913,10.458 8.322,9.720 8.102 C 9.499 8.036,8.843 7.991,8.620 8.025 M14.620 8.025 C 13.710 8.166,13.000 8.813,13.000 9.500 C 13.000 10.301,13.931 10.999,15.000 10.999 C 16.069 10.999,17.000 10.301,17.000 9.500 C 17.000 8.913,16.458 8.322,15.720 8.102 C 15.499 8.036,14.843 7.991,14.620 8.025 M11.540 13.024 C 10.579 13.166,9.823 13.587,9.592 14.109 C 9.318 14.728,9.732 15.394,10.603 15.735 C 11.123 15.940,11.340 15.977,12.000 15.977 C 12.660 15.977,12.877 15.940,13.397 15.735 C 14.498 15.304,14.820 14.402,14.118 13.718 C 13.868 13.475,13.309 13.196,12.880 13.100 C 12.587 13.035,11.779 12.989,11.540 13.024 " stroke="none" fill-rule="evenodd" fill="black"></path></svg>