<svg viewBox="0 0 24 24" xmlns="http://www.w3.org/2000/svg"><path d="M11.120 2.039 C 9.316 2.220,7.707 2.807,6.280 3.806 C 3.031 6.081,1.434 10.017,2.185 13.897 C 2.489 15.466,3.142 16.893,4.153 18.200 C 4.490 18.635,5.362 19.506,5.800 19.845 C 8.281 21.765,11.375 22.441,14.355 21.715 C 15.225 21.503,16.276 21.087,16.997 20.669 L 17.173 20.566 16.981 20.453 C 16.521 20.184,16.048 19.743,15.697 19.258 L 15.613 19.143 15.277 19.297 C 13.166 20.261,10.651 20.226,8.529 19.200 C 7.718 18.809,7.120 18.392,6.464 17.761 C 5.191 16.536,4.402 15.025,4.094 13.220 C 4.000 12.665,4.000 11.335,4.094 10.780 C 4.300 9.572,4.712 8.518,5.350 7.569 C 6.640 5.648,8.606 4.419,10.940 4.073 C 11.450 3.998,12.713 4.010,13.220 4.095 C 15.020 4.397,16.553 5.201,17.783 6.489 C 19.157 7.927,19.900 9.698,19.987 11.746 L 20.012 12.353 20.885 13.225 C 21.364 13.704,21.765 14.088,21.774 14.078 C 21.784 14.068,21.821 13.889,21.856 13.680 C 22.503 9.856,20.902 6.034,17.720 3.806 C 16.452 2.918,15.069 2.366,13.493 2.119 C 12.909 2.027,11.660 1.985,11.120 2.039 M8.150 10.041 C 7.722 10.149,7.343 10.465,7.144 10.880 C 7.034 11.111,7.020 11.180,7.020 11.500 C 7.020 11.811,7.035 11.894,7.133 12.104 C 7.276 12.413,7.585 12.721,7.900 12.868 C 8.107 12.965,8.190 12.980,8.500 12.980 C 8.811 12.980,8.894 12.965,9.104 12.867 C 9.413 12.724,9.721 12.415,9.868 12.100 C 9.965 11.893,9.980 11.810,9.980 11.500 C 9.980 11.189,9.965 11.106,9.867 10.896 C 9.725 10.589,9.414 10.278,9.110 10.139 C 8.852 10.022,8.407 9.976,8.150 10.041 M15.150 10.041 C 14.722 10.149,14.343 10.465,14.144 10.880 C 14.034 11.111,14.020 11.180,14.020 11.500 C 14.020 11.811,14.035 11.894,14.133 12.104 C 14.276 12.413,14.585 12.721,14.900 12.868 C 15.107 12.965,15.190 12.980,15.500 12.980 C 15.811 12.980,15.894 12.965,16.104 12.867 C 16.413 12.724,16.721 12.415,16.868 12.100 C 16.965 11.893,16.980 11.810,16.980 11.500 C 16.980 11.189,16.965 11.106,16.867 10.896 C 16.725 10.589,16.414 10.278,16.110 10.139 C 15.852 10.022,15.407 9.976,15.150 10.041 M18.154 15.030 C 17.272 15.920,17.148 16.095,17.044 16.592 C 16.789 17.817,17.750 19.000,19.000 19.000 C 19.523 19.000,20.018 18.790,20.403 18.404 C 21.023 17.782,21.168 16.929,20.790 16.120 C 20.686 15.898,20.548 15.738,19.846 15.030 C 19.394 14.573,19.013 14.200,19.000 14.200 C 18.987 14.200,18.606 14.573,18.154 15.030 M11.340 15.046 C 10.331 15.174,9.178 15.740,8.500 16.440 L 8.300 16.646 8.425 16.753 C 8.493 16.812,8.705 17.001,8.894 17.174 L 9.239 17.489 9.629 17.364 C 11.113 16.889,12.866 16.890,14.371 17.365 L 14.761 17.489 15.106 17.174 C 15.295 17.001,15.507 16.812,15.575 16.753 L 15.700 16.646 15.500 16.440 C 15.178 16.107,14.695 15.769,14.180 15.517 C 13.288 15.079,12.327 14.920,11.340 15.046 " stroke="none" fill-rule="evenodd" fill="black"></path></svg>