<svg viewBox="0 0 24 24" xmlns="http://www.w3.org/2000/svg"><path d="M11.120 2.039 C 8.641 2.287,6.414 3.362,4.761 5.107 C 1.806 8.228,1.158 12.819,3.137 16.623 C 3.620 17.552,4.164 18.288,4.938 19.061 C 5.715 19.837,6.454 20.383,7.377 20.863 C 9.732 22.088,12.488 22.332,15.000 21.538 C 16.421 21.089,17.767 20.303,18.820 19.306 L 19.140 19.004 18.972 19.002 C 18.470 18.996,17.973 18.780,17.596 18.404 C 16.989 17.796,16.837 16.906,17.206 16.125 C 17.313 15.898,17.450 15.741,18.165 15.020 L 18.998 14.180 19.761 14.940 C 20.541 15.718,20.733 15.954,20.861 16.294 L 20.934 16.489 21.026 16.308 C 21.179 16.007,21.433 15.342,21.576 14.868 C 22.037 13.341,22.121 11.675,21.815 10.103 C 21.073 6.292,18.165 3.221,14.430 2.303 C 13.446 2.062,12.028 1.948,11.120 2.039 M9.110 10.139 C 9.415 10.278,9.725 10.589,9.866 10.896 C 9.962 11.105,9.978 11.191,9.978 11.500 C 9.979 11.810,9.963 11.893,9.867 12.100 C 9.722 12.415,9.413 12.724,9.104 12.867 C 8.894 12.965,8.811 12.980,8.500 12.980 C 8.190 12.980,8.107 12.965,7.900 12.868 C 7.584 12.721,7.275 12.413,7.134 12.104 C 7.038 11.895,7.022 11.809,7.022 11.500 C 7.021 11.190,7.037 11.107,7.133 10.900 C 7.324 10.489,7.727 10.148,8.150 10.041 C 8.407 9.976,8.852 10.022,9.110 10.139 M16.110 10.139 C 16.415 10.278,16.725 10.589,16.866 10.896 C 16.962 11.105,16.978 11.191,16.978 11.500 C 16.979 11.810,16.963 11.893,16.867 12.100 C 16.722 12.415,16.413 12.724,16.104 12.867 C 15.894 12.965,15.811 12.980,15.500 12.980 C 15.190 12.980,15.107 12.965,14.900 12.868 C 14.584 12.721,14.275 12.413,14.134 12.104 C 14.038 11.895,14.022 11.809,14.022 11.500 C 14.021 11.190,14.037 11.107,14.133 10.900 C 14.324 10.489,14.727 10.148,15.150 10.041 C 15.407 9.976,15.852 10.022,16.110 10.139 M12.601 15.042 C 13.662 15.172,14.806 15.723,15.500 16.440 L 15.700 16.646 15.575 16.753 C 15.507 16.812,15.295 17.001,15.106 17.174 L 14.761 17.489 14.371 17.365 C 12.871 16.887,11.140 16.888,9.629 17.365 L 9.239 17.489 8.894 17.174 C 8.705 17.001,8.493 16.811,8.425 16.751 L 8.300 16.641 8.585 16.365 C 9.616 15.366,11.144 14.863,12.601 15.042 " stroke="none" fill-rule="evenodd" fill="black"></path></svg>