<svg viewBox="0 0 24 24" xmlns="http://www.w3.org/2000/svg"><path d="M11.120 2.039 C 8.641 2.287,6.414 3.362,4.761 5.107 C 1.806 8.228,1.158 12.819,3.137 16.623 C 3.620 17.552,4.164 18.288,4.938 19.061 C 5.930 20.051,7.038 20.789,8.272 21.278 C 11.634 22.610,15.313 22.080,18.200 19.845 C 18.637 19.507,19.507 18.637,19.845 18.200 C 21.256 16.378,22.000 14.236,22.000 12.000 C 22.000 7.432,18.842 3.387,14.430 2.303 C 13.446 2.062,12.028 1.948,11.120 2.039 M12.740 4.041 C 15.525 4.302,17.953 5.983,19.182 8.500 C 20.655 11.514,20.091 15.104,17.765 17.530 C 16.248 19.111,14.175 19.999,12.000 19.999 C 8.235 19.999,4.948 17.331,4.177 13.648 C 3.426 10.057,5.201 6.431,8.501 4.817 C 9.822 4.170,11.277 3.904,12.740 4.041 M7.601 8.064 C 7.044 8.214,6.632 8.671,6.523 9.260 C 6.405 9.900,6.776 10.583,7.400 10.873 C 7.587 10.961,7.676 10.976,8.000 10.976 C 8.324 10.976,8.413 10.961,8.600 10.873 C 9.224 10.583,9.595 9.900,9.477 9.260 C 9.366 8.662,8.954 8.211,8.381 8.062 C 8.091 7.986,7.888 7.987,7.601 8.064 M15.601 8.064 C 15.044 8.214,14.632 8.671,14.523 9.260 C 14.405 9.900,14.776 10.583,15.400 10.873 C 15.587 10.961,15.676 10.976,16.000 10.976 C 16.324 10.976,16.413 10.961,16.600 10.873 C 17.224 10.583,17.595 9.900,17.477 9.260 C 17.366 8.662,16.954 8.211,16.381 8.062 C 16.091 7.986,15.888 7.987,15.601 8.064 M7.013 13.353 C 7.137 15.101,8.219 16.715,9.776 17.476 C 10.526 17.842,11.134 17.980,12.000 17.980 C 12.676 17.980,12.973 17.936,13.539 17.753 C 15.470 17.127,16.843 15.374,16.987 13.353 L 17.012 13.000 16.006 13.000 L 15.000 13.000 15.000 13.116 C 15.000 13.399,14.865 13.919,14.704 14.260 C 14.373 14.959,13.823 15.493,13.151 15.766 C 11.642 16.380,9.987 15.733,9.298 14.260 C 9.112 13.861,9.057 13.670,9.017 13.270 L 8.989 13.000 7.988 13.000 L 6.988 13.000 7.013 13.353 " stroke="none" fill-rule="evenodd" fill="black"></path></svg>