<svg viewBox="0 0 24 24" xmlns="http://www.w3.org/2000/svg"><path d="M11.120 2.039 C 8.641 2.287,6.414 3.362,4.761 5.107 C 1.806 8.228,1.158 12.819,3.137 16.623 C 3.620 17.552,4.164 18.288,4.938 19.061 C 5.930 20.051,7.038 20.789,8.272 21.278 C 11.634 22.610,15.313 22.080,18.200 19.845 C 18.637 19.507,19.507 18.637,19.845 18.200 C 21.256 16.378,22.000 14.236,22.000 12.000 C 22.000 7.432,18.842 3.387,14.430 2.303 C 13.446 2.062,12.028 1.948,11.120 2.039 M12.740 4.041 C 15.525 4.302,17.953 5.983,19.182 8.500 C 20.655 11.514,20.091 15.104,17.765 17.530 C 16.248 19.111,14.175 19.999,12.000 19.999 C 8.235 19.999,4.948 17.331,4.177 13.648 C 3.426 10.057,5.201 6.431,8.501 4.817 C 9.822 4.170,11.277 3.904,12.740 4.041 M8.060 7.040 C 7.150 7.205,6.365 7.908,6.106 8.790 L 6.044 9.000 8.500 9.000 L 10.956 9.000 10.894 8.790 C 10.666 8.014,10.014 7.358,9.228 7.113 C 8.944 7.025,8.350 6.988,8.060 7.040 M15.060 7.040 C 14.150 7.205,13.365 7.908,13.106 8.790 L 13.044 9.000 15.500 9.000 L 17.956 9.000 17.894 8.790 C 17.666 8.014,17.014 7.358,16.228 7.113 C 15.944 7.025,15.350 6.988,15.060 7.040 M11.060 11.025 C 9.679 11.115,8.447 11.379,7.467 11.794 L 7.020 11.983 7.024 12.303 C 7.028 12.697,7.096 13.072,7.246 13.535 C 7.739 15.057,8.941 16.260,10.461 16.753 C 11.027 16.936,11.324 16.980,12.000 16.980 C 12.676 16.980,12.973 16.936,13.539 16.753 C 14.802 16.344,15.904 15.395,16.476 14.224 C 16.788 13.586,16.969 12.888,16.976 12.303 L 16.980 11.983 16.535 11.795 C 15.731 11.455,14.810 11.225,13.740 11.098 C 13.238 11.039,11.552 10.993,11.060 11.025 " stroke="none" fill-rule="evenodd" fill="black"></path></svg>