<svg viewBox="0 0 24 24" xmlns="http://www.w3.org/2000/svg"><path d="M11.120 2.039 C 8.641 2.287,6.414 3.362,4.761 5.107 C 1.806 8.228,1.158 12.819,3.137 16.623 C 3.620 17.552,4.164 18.288,4.938 19.061 C 5.930 20.051,7.038 20.789,8.272 21.278 C 11.634 22.610,15.313 22.080,18.200 19.845 C 18.637 19.507,19.507 18.637,19.845 18.200 C 21.256 16.378,22.000 14.236,22.000 12.000 C 22.000 7.432,18.842 3.387,14.430 2.303 C 13.446 2.062,12.028 1.948,11.120 2.039 M9.228 7.113 C 10.011 7.357,10.667 8.017,10.894 8.790 L 10.956 9.000 8.500 9.000 L 6.044 9.000 6.105 8.790 C 6.188 8.506,6.411 8.104,6.626 7.852 C 6.948 7.474,7.550 7.132,8.054 7.041 C 8.350 6.988,8.942 7.024,9.228 7.113 M16.228 7.113 C 17.011 7.357,17.667 8.017,17.894 8.790 L 17.956 9.000 15.500 9.000 L 13.044 9.000 13.105 8.790 C 13.188 8.506,13.411 8.104,13.626 7.852 C 13.948 7.474,14.550 7.132,15.054 7.041 C 15.350 6.988,15.942 7.024,16.228 7.113 M13.740 11.098 C 14.796 11.224,15.656 11.435,16.473 11.770 C 16.745 11.881,16.977 11.998,16.990 12.030 C 17.002 12.063,16.991 12.281,16.966 12.515 C 16.752 14.487,15.410 16.147,13.539 16.753 C 12.973 16.936,12.676 16.980,12.000 16.980 C 11.325 16.980,11.027 16.936,10.465 16.754 C 9.483 16.436,8.613 15.812,7.992 14.981 C 7.681 14.565,7.309 13.802,7.181 13.320 C 7.076 12.924,6.971 12.132,7.010 12.030 C 7.038 11.958,7.888 11.607,8.380 11.464 C 9.091 11.258,10.150 11.084,11.060 11.025 C 11.553 10.993,13.238 11.039,13.740 11.098 " stroke="none" fill-rule="evenodd" fill="black"></path></svg>