<svg viewBox="0 0 24 24" xmlns="http://www.w3.org/2000/svg"><path d="M11.000 4.031 L 11.000 7.061 10.537 7.150 C 9.882 7.276,9.271 7.490,8.600 7.828 C 7.900 8.180,7.405 8.528,6.849 9.058 C 5.602 10.248,4.868 11.642,4.575 13.380 C 4.483 13.925,4.483 15.075,4.575 15.620 C 4.849 17.243,5.501 18.556,6.600 19.694 C 7.241 20.360,7.860 20.815,8.667 21.217 C 11.338 22.545,14.526 22.158,16.826 20.227 C 18.114 19.146,18.985 17.675,19.350 15.961 C 19.449 15.498,19.457 15.387,19.457 14.500 C 19.458 13.607,19.451 13.505,19.351 13.039 C 19.159 12.145,18.778 11.189,18.339 10.500 C 17.234 8.764,15.434 7.530,13.450 7.148 L 13.000 7.061 13.000 4.031 L 13.000 1.000 12.000 1.000 L 11.000 1.000 11.000 4.031 " stroke="none" fill-rule="evenodd" fill="black"></path></svg>