<svg viewBox="0 0 24 24" xmlns="http://www.w3.org/2000/svg"><path d="M11.340 2.024 C 10.026 2.160,9.091 2.415,8.060 2.918 C 5.238 4.296,3.346 7.025,3.040 10.160 C 3.009 10.477,2.999 11.938,3.008 14.860 L 3.020 19.100 3.130 19.452 C 3.340 20.121,3.644 20.611,4.126 21.058 C 5.601 22.423,7.874 22.277,9.183 20.734 L 9.392 20.489 9.518 20.683 C 9.685 20.941,10.061 21.313,10.345 21.502 C 11.323 22.151,12.659 22.158,13.619 21.521 C 13.917 21.323,14.322 20.926,14.484 20.674 L 14.607 20.482 14.758 20.671 C 16.081 22.333,18.563 22.448,20.022 20.915 C 20.437 20.479,20.678 20.062,20.870 19.452 L 20.980 19.100 20.992 14.860 C 21.001 11.938,20.991 10.477,20.960 10.160 C 20.654 7.026,18.765 4.300,15.944 2.923 C 15.066 2.494,14.269 2.244,13.320 2.101 C 12.911 2.039,11.662 1.991,11.340 2.024 M12.383 7.043 C 13.185 7.190,13.839 7.872,13.967 8.695 C 14.153 9.894,13.209 11.000,12.000 11.000 C 11.032 11.000,10.183 10.268,10.033 9.305 C 9.933 8.663,10.132 8.061,10.596 7.596 C 11.085 7.108,11.698 6.918,12.383 7.043 M10.000 13.124 C 10.000 13.308,10.112 13.707,10.228 13.936 C 10.284 14.047,10.437 14.249,10.567 14.384 C 11.200 15.043,12.149 15.189,12.968 14.753 C 13.269 14.592,13.656 14.180,13.806 13.861 C 13.869 13.726,13.942 13.477,13.969 13.308 L 14.018 13.000 15.015 13.000 L 16.011 13.000 15.984 13.310 C 15.887 14.409,15.337 15.454,14.508 16.114 C 13.029 17.290,10.972 17.290,9.492 16.114 C 8.664 15.455,8.113 14.409,8.016 13.310 L 7.989 13.000 8.994 13.000 L 10.000 13.000 10.000 13.124 " stroke="none" fill-rule="evenodd" fill="black"></path></svg>