<svg viewBox="0 0 24 24" xmlns="http://www.w3.org/2000/svg"><path d="M11.340 2.024 C 10.026 2.160,9.091 2.415,8.060 2.918 C 5.238 4.296,3.346 7.025,3.040 10.160 C 3.009 10.477,2.999 11.938,3.008 14.860 L 3.020 19.100 3.130 19.452 C 3.340 20.121,3.644 20.611,4.126 21.058 C 5.601 22.423,7.874 22.277,9.183 20.734 L 9.392 20.489 9.518 20.683 C 9.685 20.941,10.061 21.313,10.345 21.502 C 11.323 22.151,12.659 22.158,13.619 21.521 C 13.917 21.323,14.322 20.926,14.484 20.674 L 14.607 20.482 14.758 20.671 C 16.081 22.333,18.563 22.448,20.022 20.915 C 20.437 20.479,20.678 20.062,20.870 19.452 L 20.980 19.100 20.992 14.860 C 21.001 11.938,20.991 10.477,20.960 10.160 C 20.654 7.026,18.765 4.300,15.944 2.923 C 15.066 2.494,14.269 2.244,13.320 2.101 C 12.911 2.039,11.662 1.991,11.340 2.024 M12.686 4.042 C 14.238 4.199,15.639 4.834,16.793 5.902 C 17.783 6.818,18.563 8.201,18.840 9.530 C 18.993 10.264,19.005 10.678,18.992 14.840 L 18.980 18.860 18.872 19.090 C 18.721 19.413,18.414 19.724,18.109 19.864 C 17.894 19.962,17.811 19.978,17.500 19.978 C 17.020 19.978,16.742 19.857,16.416 19.505 C 15.864 18.910,15.775 18.832,15.500 18.697 C 14.555 18.234,13.500 18.534,12.905 19.436 C 12.707 19.736,12.575 19.850,12.318 19.941 C 12.016 20.047,11.672 19.993,11.396 19.797 C 11.331 19.751,11.189 19.582,11.081 19.421 C 10.858 19.091,10.610 18.862,10.307 18.709 C 9.699 18.401,9.032 18.408,8.432 18.727 C 8.179 18.863,7.988 19.034,7.630 19.449 C 7.456 19.649,7.332 19.748,7.130 19.848 C 6.886 19.968,6.828 19.980,6.501 19.980 C 6.188 19.980,6.107 19.965,5.891 19.865 C 5.586 19.724,5.279 19.412,5.128 19.090 L 5.020 18.860 5.020 14.600 C 5.020 10.041,5.018 10.087,5.226 9.260 C 6.061 5.937,9.265 3.695,12.686 4.042 M11.580 7.047 C 10.859 7.185,10.199 7.848,10.044 8.592 C 9.789 9.816,10.751 11.000,12.000 11.000 C 13.080 11.000,14.000 10.080,14.000 9.000 C 14.000 8.477,13.790 7.983,13.404 7.596 C 12.913 7.106,12.277 6.914,11.580 7.047 M8.014 13.330 C 8.144 14.998,9.330 16.410,10.986 16.869 C 11.337 16.966,11.447 16.978,12.000 16.978 C 12.551 16.978,12.663 16.966,13.011 16.870 C 14.678 16.407,15.855 15.000,15.988 13.310 L 16.012 13.000 15.013 13.000 L 14.014 13.000 13.967 13.305 C 13.817 14.268,12.968 15.000,12.000 15.000 C 11.032 15.000,10.183 14.268,10.033 13.305 L 9.986 13.000 8.987 13.000 L 7.988 13.000 8.014 13.330 " stroke="none" fill-rule="evenodd" fill="black"></path></svg>