<svg viewBox="0 0 24 24" xmlns="http://www.w3.org/2000/svg"><path d="M11.340 2.024 C 10.026 2.160,9.091 2.415,8.060 2.918 C 5.238 4.296,3.346 7.025,3.040 10.160 C 3.009 10.477,2.999 11.938,3.008 14.860 L 3.020 19.100 3.130 19.452 C 3.340 20.121,3.644 20.611,4.126 21.058 C 5.601 22.423,7.874 22.277,9.183 20.734 L 9.392 20.489 9.518 20.683 C 9.685 20.941,10.061 21.313,10.345 21.502 C 11.323 22.151,12.659 22.158,13.619 21.521 C 13.917 21.323,14.322 20.926,14.484 20.674 L 14.607 20.482 14.758 20.671 C 16.081 22.333,18.563 22.448,20.022 20.915 C 20.437 20.479,20.678 20.062,20.870 19.452 L 20.980 19.100 20.992 14.860 C 21.001 11.938,20.991 10.477,20.960 10.160 C 20.654 7.026,18.765 4.300,15.944 2.923 C 15.066 2.494,14.269 2.244,13.320 2.101 C 12.911 2.039,11.662 1.991,11.340 2.024 M12.686 4.042 C 14.238 4.199,15.639 4.834,16.793 5.902 C 17.783 6.818,18.563 8.201,18.840 9.530 C 18.993 10.264,19.005 10.678,18.992 14.840 L 18.980 18.860 18.872 19.090 C 18.721 19.413,18.414 19.724,18.109 19.864 C 17.894 19.962,17.811 19.978,17.500 19.978 C 17.020 19.978,16.742 19.857,16.416 19.505 C 15.864 18.910,15.775 18.832,15.500 18.697 C 14.555 18.234,13.500 18.534,12.905 19.436 C 12.707 19.736,12.575 19.850,12.318 19.941 C 12.016 20.047,11.672 19.993,11.396 19.797 C 11.331 19.751,11.189 19.582,11.081 19.421 C 10.858 19.091,10.610 18.862,10.307 18.709 C 9.699 18.401,9.032 18.408,8.432 18.727 C 8.179 18.863,7.988 19.034,7.630 19.449 C 7.456 19.649,7.332 19.748,7.130 19.848 C 6.886 19.968,6.828 19.980,6.501 19.980 C 6.188 19.980,6.107 19.965,5.891 19.865 C 5.586 19.724,5.279 19.412,5.128 19.090 L 5.020 18.860 5.020 14.600 C 5.020 10.041,5.018 10.087,5.226 9.260 C 6.061 5.937,9.265 3.695,12.686 4.042 M9.150 8.041 C 8.722 8.149,8.343 8.465,8.144 8.880 C 8.034 9.111,8.020 9.180,8.020 9.500 C 8.020 9.811,8.035 9.894,8.133 10.104 C 8.276 10.413,8.585 10.721,8.900 10.868 C 9.107 10.965,9.190 10.980,9.500 10.980 C 9.811 10.980,9.894 10.965,10.104 10.867 C 10.413 10.724,10.721 10.415,10.868 10.100 C 10.965 9.893,10.980 9.810,10.980 9.500 C 10.980 9.189,10.965 9.106,10.867 8.896 C 10.725 8.589,10.414 8.278,10.110 8.139 C 9.852 8.022,9.407 7.976,9.150 8.041 M14.150 8.041 C 13.722 8.149,13.343 8.465,13.144 8.880 C 13.034 9.111,13.020 9.180,13.020 9.500 C 13.020 9.811,13.035 9.894,13.133 10.104 C 13.276 10.413,13.585 10.721,13.900 10.868 C 14.107 10.965,14.190 10.980,14.500 10.980 C 14.811 10.980,14.894 10.965,15.104 10.867 C 15.413 10.724,15.721 10.415,15.868 10.100 C 15.965 9.893,15.980 9.810,15.980 9.500 C 15.980 9.189,15.965 9.106,15.867 8.896 C 15.725 8.589,15.414 8.278,15.110 8.139 C 14.852 8.022,14.407 7.976,14.150 8.041 M11.630 12.041 C 10.947 12.214,10.380 12.826,10.114 13.680 C 9.979 14.113,9.979 14.887,10.114 15.320 C 10.263 15.798,10.466 16.150,10.762 16.444 C 11.843 17.519,13.374 16.968,13.886 15.320 C 14.020 14.888,14.020 14.112,13.886 13.680 C 13.577 12.685,12.898 12.056,12.092 12.018 C 11.920 12.010,11.713 12.020,11.630 12.041 " stroke="none" fill-rule="evenodd" fill="black"></path></svg>