<svg viewBox="0 0 24 24" xmlns="http://www.w3.org/2000/svg"><path d="M11.120 2.039 C 8.641 2.287,6.414 3.362,4.761 5.107 C 1.806 8.228,1.158 12.819,3.137 16.623 C 3.620 17.552,4.164 18.288,4.938 19.061 C 5.930 20.051,7.038 20.789,8.272 21.278 C 11.634 22.610,15.313 22.080,18.200 19.845 C 18.637 19.507,19.507 18.637,19.845 18.200 C 21.256 16.378,22.000 14.236,22.000 12.000 C 22.000 7.432,18.842 3.387,14.430 2.303 C 13.446 2.062,12.028 1.948,11.120 2.039 M12.660 4.042 C 15.712 4.305,18.305 6.231,19.438 9.076 C 19.821 10.035,19.974 10.873,19.974 12.000 C 19.974 12.826,19.931 13.230,19.773 13.886 L 19.709 14.152 19.487 14.010 C 18.962 13.674,18.131 13.353,17.400 13.202 C 16.707 13.060,16.308 13.022,15.500 13.022 C 14.424 13.023,13.688 13.128,12.838 13.405 L 12.456 13.529 12.078 13.405 C 11.619 13.255,11.314 13.184,10.738 13.093 C 10.148 13.000,8.829 13.000,8.245 13.093 C 6.952 13.300,5.830 13.736,4.769 14.446 C 4.609 14.553,4.470 14.640,4.461 14.640 C 4.428 14.640,4.245 13.987,4.163 13.580 C 3.815 11.838,4.068 9.965,4.864 8.391 C 5.806 6.529,7.501 5.076,9.494 4.420 C 10.555 4.071,11.577 3.949,12.660 4.042 M9.051 7.058 C 8.667 7.145,8.258 7.378,7.960 7.678 C 7.515 8.127,7.309 8.629,7.311 9.259 C 7.315 10.497,8.303 11.485,9.541 11.489 C 10.182 11.491,10.676 11.285,11.140 10.820 C 11.608 10.352,11.829 9.771,11.786 9.120 C 11.738 8.379,11.377 7.768,10.743 7.354 C 10.290 7.058,9.588 6.935,9.051 7.058 M14.879 8.611 C 14.341 8.795,13.929 9.162,13.694 9.667 C 12.917 11.337,14.663 13.083,16.333 12.306 C 17.757 11.644,17.898 9.682,16.583 8.832 C 16.091 8.514,15.419 8.427,14.879 8.611 M10.350 15.057 C 10.362 15.069,10.317 15.201,10.249 15.349 C 10.021 15.852,10.026 15.806,10.002 17.846 L 9.980 19.753 9.500 19.595 C 8.618 19.306,7.689 18.800,6.959 18.211 C 6.364 17.731,5.362 16.597,5.414 16.462 C 5.449 16.371,6.268 15.846,6.696 15.641 C 7.351 15.327,8.142 15.102,8.860 15.025 C 9.073 15.002,10.322 15.029,10.350 15.057 M16.661 15.098 C 17.476 15.233,18.355 15.582,18.713 15.914 L 18.886 16.074 18.739 16.307 C 18.330 16.952,17.638 17.728,17.040 18.211 C 15.851 19.172,14.361 19.790,12.832 19.958 C 12.618 19.981,12.343 20.000,12.222 20.000 L 12.000 20.000 12.000 18.154 L 12.000 16.307 12.099 16.137 C 12.388 15.644,13.504 15.181,14.740 15.041 C 15.168 14.993,16.214 15.023,16.661 15.098 " stroke="none" fill-rule="evenodd" fill="black"></path></svg>