<svg viewBox="0 0 24 24" xmlns="http://www.w3.org/2000/svg"><path d="M14.000 4.000 L 14.000 5.000 16.290 5.000 L 18.580 5.000 16.816 6.763 L 15.053 8.527 14.679 8.282 C 13.206 7.314,11.606 6.894,9.926 7.033 C 5.880 7.368,2.856 10.757,3.012 14.780 C 3.087 16.695,3.858 18.459,5.210 19.804 C 6.701 21.288,8.693 22.069,10.780 21.988 C 12.686 21.914,14.440 21.150,15.792 19.805 C 17.276 18.330,18.069 16.312,17.988 14.220 C 17.932 12.791,17.509 11.488,16.719 10.315 L 16.472 9.948 18.236 8.184 L 20.000 6.420 20.000 8.710 L 20.000 11.000 21.000 11.000 L 22.000 11.000 22.000 7.000 L 22.000 3.000 18.000 3.000 L 14.000 3.000 14.000 4.000 " stroke="none" fill-rule="evenodd" fill="black"></path></svg>