<svg viewBox="0 0 24 24" xmlns="http://www.w3.org/2000/svg"><path d="M6.408 2.043 C 5.418 2.172,4.389 2.705,3.703 3.446 C 2.439 4.811,2.146 6.794,2.960 8.466 C 3.560 9.699,4.694 10.591,6.060 10.906 C 6.507 11.009,7.493 11.009,7.940 10.906 C 9.884 10.458,11.275 8.886,11.480 6.902 C 11.531 6.412,11.481 5.853,11.339 5.323 C 10.762 3.170,8.634 1.754,6.408 2.043 M7.807 4.149 C 8.444 4.369,8.952 4.817,9.235 5.411 C 9.424 5.806,9.480 6.054,9.480 6.500 C 9.480 6.946,9.424 7.194,9.235 7.589 C 8.953 8.182,8.421 8.650,7.781 8.870 C 7.504 8.965,7.397 8.980,7.000 8.980 C 6.256 8.980,5.774 8.778,5.236 8.243 C 4.995 8.004,4.897 7.869,4.769 7.600 C 4.575 7.193,4.520 6.949,4.520 6.500 C 4.520 6.054,4.576 5.806,4.765 5.411 C 5.304 4.281,6.614 3.738,7.807 4.149 M16.840 7.061 C 16.005 7.192,15.234 7.604,14.609 8.255 C 14.088 8.798,13.743 9.452,13.573 10.219 C 13.491 10.591,13.491 11.409,13.573 11.781 C 13.938 13.432,15.201 14.655,16.835 14.941 C 17.897 15.127,19.065 14.840,19.913 14.185 C 20.926 13.402,21.492 12.258,21.489 11.000 C 21.487 9.932,21.119 9.014,20.391 8.255 C 19.449 7.274,18.188 6.850,16.840 7.061 M17.956 9.062 C 18.669 9.230,19.278 9.829,19.437 10.520 C 19.490 10.751,19.490 11.249,19.437 11.480 C 19.280 12.161,18.687 12.754,17.978 12.939 C 16.970 13.201,15.881 12.575,15.584 11.563 C 15.547 11.438,15.520 11.199,15.520 11.000 C 15.520 10.422,15.704 9.975,16.103 9.582 C 16.595 9.098,17.287 8.904,17.956 9.062 M6.340 12.046 C 5.849 12.108,5.317 12.273,4.820 12.517 C 3.590 13.120,2.688 14.140,2.263 15.407 C 2.024 16.118,2.029 16.065,2.011 18.630 L 1.995 21.000 2.996 21.000 L 3.996 21.000 4.010 18.730 C 4.027 16.207,4.015 16.320,4.312 15.704 C 4.614 15.075,5.097 14.599,5.740 14.298 C 6.221 14.072,6.454 14.021,7.000 14.021 C 7.546 14.021,7.779 14.072,8.260 14.298 C 8.918 14.606,9.391 15.079,9.704 15.740 C 9.989 16.342,10.000 16.460,10.000 18.884 L 10.000 21.000 11.002 21.000 L 12.005 21.000 11.990 18.630 L 11.975 16.260 11.868 15.848 C 11.669 15.087,11.366 14.463,10.926 13.912 C 9.822 12.527,8.090 11.823,6.340 12.046 M16.791 16.062 C 15.879 16.204,15.006 16.647,14.344 17.305 C 13.462 18.181,13.000 19.303,13.000 20.567 L 13.000 21.000 14.000 21.000 L 15.000 21.000 15.001 20.630 C 15.002 19.853,15.246 19.231,15.741 18.739 C 16.725 17.762,18.282 17.763,19.259 18.741 C 19.756 19.237,19.998 19.855,19.999 20.630 L 20.000 21.000 21.000 21.000 L 22.000 21.000 22.000 20.567 C 22.000 18.808,21.041 17.240,19.489 16.464 C 18.711 16.074,17.691 15.922,16.791 16.062 " stroke="none" fill-rule="evenodd" fill="black"></path></svg>