<svg viewBox="0 0 24 24" xmlns="http://www.w3.org/2000/svg"><path d="M11.120 2.039 C 10.299 2.121,9.443 2.304,8.751 2.545 C 5.024 3.842,2.403 7.177,2.043 11.080 C 1.986 11.693,1.985 17.085,2.042 17.289 C 2.104 17.512,2.316 17.763,2.539 17.878 L 2.738 17.980 4.367 17.991 L 5.997 18.003 6.008 19.651 L 6.020 21.300 6.131 21.489 C 6.192 21.592,6.301 21.723,6.374 21.778 C 6.680 22.011,6.390 22.000,11.998 22.000 C 17.783 22.000,17.381 22.021,17.701 21.701 C 17.994 21.409,18.000 21.362,18.000 19.573 L 18.000 18.000 19.573 18.000 C 21.362 18.000,21.409 17.994,21.701 17.701 C 22.010 17.392,22.000 17.504,22.000 14.343 C 22.000 11.380,21.982 10.965,21.815 10.103 C 21.077 6.296,18.165 3.221,14.430 2.303 C 13.446 2.062,12.028 1.948,11.120 2.039 M12.740 4.041 C 15.525 4.303,17.950 5.981,19.183 8.501 C 19.608 9.370,19.862 10.278,19.960 11.274 C 19.982 11.502,20.000 12.659,20.000 13.844 L 20.000 16.000 18.425 16.000 C 16.721 16.000,16.656 16.007,16.374 16.222 C 16.301 16.277,16.192 16.408,16.131 16.511 L 16.020 16.700 16.008 18.350 L 15.997 20.000 11.998 20.000 L 8.000 20.000 8.000 18.427 C 8.000 16.638,7.994 16.591,7.701 16.299 C 7.409 16.006,7.362 16.000,5.573 16.000 L 4.000 16.000 4.000 13.850 C 4.000 12.668,4.019 11.502,4.041 11.260 C 4.303 8.475,5.981 6.050,8.501 4.817 C 9.822 4.170,11.277 3.904,12.740 4.041 M7.150 11.041 C 6.722 11.149,6.343 11.465,6.144 11.880 C 6.034 12.111,6.020 12.180,6.020 12.500 C 6.020 12.811,6.035 12.894,6.133 13.104 C 6.276 13.413,6.585 13.721,6.900 13.868 C 7.107 13.965,7.190 13.980,7.500 13.980 C 7.811 13.980,7.894 13.965,8.104 13.867 C 8.413 13.724,8.721 13.415,8.868 13.100 C 8.965 12.893,8.980 12.810,8.980 12.500 C 8.980 12.189,8.965 12.106,8.867 11.896 C 8.725 11.589,8.414 11.278,8.110 11.139 C 7.852 11.022,7.407 10.976,7.150 11.041 M16.150 11.041 C 15.722 11.149,15.343 11.465,15.144 11.880 C 15.034 12.111,15.020 12.180,15.020 12.500 C 15.020 12.811,15.035 12.894,15.133 13.104 C 15.276 13.413,15.585 13.721,15.900 13.868 C 16.107 13.965,16.190 13.980,16.500 13.980 C 16.811 13.980,16.894 13.965,17.104 13.867 C 17.413 13.724,17.721 13.415,17.868 13.100 C 17.965 12.893,17.980 12.810,17.980 12.500 C 17.980 12.189,17.965 12.106,17.867 11.896 C 17.725 11.589,17.414 11.278,17.110 11.139 C 16.852 11.022,16.407 10.976,16.150 11.041 " stroke="none" fill-rule="evenodd" fill="black"></path></svg>