<svg viewBox="0 0 24 24" xmlns="http://www.w3.org/2000/svg"><path d="M7.433 3.042 C 6.857 3.129,6.224 3.378,5.731 3.712 C 4.964 4.233,4.405 5.022,4.132 5.968 L 4.025 6.340 4.010 8.170 L 3.995 10.000 2.997 10.000 L 2.000 10.000 2.000 11.000 L 2.000 12.000 12.000 12.000 L 22.000 12.000 22.000 11.000 L 22.000 10.000 21.002 10.000 L 20.004 10.000 19.991 8.190 C 19.977 6.382,19.977 6.380,19.872 5.995 C 19.615 5.050,19.045 4.240,18.269 3.712 C 17.928 3.481,17.352 3.218,16.958 3.113 L 16.620 3.023 12.140 3.016 C 9.676 3.012,7.558 3.024,7.433 3.042 M16.368 5.044 C 17.109 5.198,17.802 5.891,17.956 6.632 C 17.984 6.766,18.000 7.428,18.000 8.422 L 18.000 10.000 12.000 10.000 L 6.000 10.000 6.000 8.422 C 6.000 7.424,6.016 6.766,6.044 6.632 C 6.196 5.902,6.846 5.233,7.574 5.057 C 7.852 4.989,16.047 4.977,16.368 5.044 M6.310 13.060 C 4.431 13.417,3.101 14.934,3.013 16.820 C 2.923 18.728,4.170 20.391,6.060 20.884 C 6.559 21.014,7.419 21.018,7.920 20.891 C 9.621 20.461,10.856 19.022,10.987 17.318 L 11.012 17.000 12.000 17.000 L 12.988 17.000 13.014 17.330 C 13.129 18.811,14.129 20.162,15.520 20.715 C 17.334 21.437,19.462 20.710,20.444 19.033 C 21.503 17.224,20.985 14.878,19.269 13.712 C 18.913 13.471,18.341 13.213,17.938 13.114 C 17.459 12.995,16.610 12.986,16.140 13.094 C 15.530 13.235,14.914 13.541,14.417 13.950 C 14.146 14.173,13.771 14.600,13.627 14.850 L 13.540 14.999 11.997 15.000 L 10.455 15.000 10.370 14.850 C 10.034 14.255,9.296 13.639,8.523 13.307 C 7.908 13.043,6.958 12.937,6.310 13.060 M7.383 15.043 C 8.185 15.190,8.839 15.872,8.967 16.695 C 9.153 17.894,8.209 19.000,7.000 19.000 C 6.032 19.000,5.183 18.268,5.033 17.305 C 4.933 16.663,5.132 16.061,5.596 15.596 C 6.085 15.108,6.698 14.918,7.383 15.043 M17.383 15.043 C 18.185 15.190,18.839 15.872,18.967 16.695 C 19.153 17.894,18.209 19.000,17.000 19.000 C 16.032 19.000,15.183 18.268,15.033 17.305 C 14.933 16.663,15.132 16.061,15.596 15.596 C 16.085 15.108,16.698 14.918,17.383 15.043 " stroke="none" fill-rule="evenodd" fill="black"></path></svg>