<svg viewBox="0 0 24 24" xmlns="http://www.w3.org/2000/svg"><path d="M11.433 2.040 C 10.843 2.134,10.221 2.380,9.731 2.712 C 8.955 3.240,8.394 4.037,8.130 4.989 C 8.034 5.337,8.022 5.449,8.022 6.000 C 8.022 6.553,8.034 6.663,8.132 7.017 C 8.475 8.256,9.357 9.252,10.520 9.715 C 12.334 10.437,14.462 9.710,15.444 8.033 C 16.503 6.224,15.985 3.878,14.269 2.712 C 13.917 2.473,13.343 2.214,12.958 2.120 C 12.572 2.026,11.783 1.984,11.433 2.040 M4.960 8.062 C 4.542 8.151,4.069 8.414,3.741 8.739 C 2.759 9.714,2.759 11.277,3.742 12.264 C 4.710 13.237,6.288 13.236,7.262 12.262 C 8.237 11.287,8.237 9.703,7.262 8.740 C 6.649 8.135,5.795 7.884,4.960 8.062 M17.960 8.062 C 17.542 8.151,17.069 8.414,16.741 8.739 C 15.759 9.714,15.759 11.277,16.742 12.264 C 17.710 13.237,19.288 13.236,20.262 12.262 C 21.237 11.287,21.237 9.703,20.262 8.740 C 19.649 8.135,18.795 7.884,17.960 8.062 M11.340 11.046 C 10.849 11.108,10.317 11.273,9.820 11.517 C 8.590 12.120,7.688 13.140,7.263 14.407 C 7.016 15.143,7.027 14.958,7.011 18.630 L 6.997 22.000 12.000 22.000 L 17.003 22.000 16.990 18.630 L 16.977 15.260 16.869 14.848 C 16.668 14.084,16.365 13.462,15.926 12.912 C 14.822 11.527,13.090 10.823,11.340 11.046 M4.894 14.059 C 4.496 14.131,4.229 14.223,3.887 14.404 C 3.017 14.866,2.433 15.580,2.131 16.548 L 2.022 16.900 2.009 19.450 L 1.996 22.000 3.498 22.000 L 5.000 22.000 5.000 18.838 C 5.000 16.884,5.016 15.529,5.042 15.288 C 5.080 14.944,5.191 14.343,5.263 14.090 C 5.293 13.986,5.297 13.986,4.894 14.059 M18.720 14.025 C 18.720 14.038,18.749 14.159,18.784 14.294 C 18.972 15.011,18.971 15.002,18.988 18.590 L 19.004 22.000 20.504 22.000 L 22.004 22.000 21.991 19.450 L 21.978 16.900 21.869 16.548 C 21.553 15.532,20.908 14.773,19.990 14.339 C 19.613 14.160,18.720 13.940,18.720 14.025 " stroke="none" fill-rule="evenodd" fill="black"></path></svg>