<svg viewBox="0 0 24 24" xmlns="http://www.w3.org/2000/svg"><path d="M11.200 1.058 C 10.483 1.161,9.933 1.332,9.320 1.640 C 7.658 2.475,6.527 3.951,6.111 5.830 C 5.986 6.395,5.986 7.605,6.111 8.170 C 6.651 10.608,8.393 12.350,10.826 12.887 C 11.397 13.013,12.603 13.013,13.174 12.887 C 15.605 12.351,17.351 10.605,17.887 8.174 C 18.013 7.603,18.013 6.397,17.887 5.826 C 17.341 3.351,15.474 1.529,13.041 1.097 C 12.552 1.010,11.660 0.991,11.200 1.058 M12.958 3.120 C 13.621 3.282,14.329 3.683,14.823 4.177 C 15.321 4.675,15.716 5.376,15.887 6.062 C 16.013 6.571,16.013 7.429,15.887 7.938 C 15.531 9.369,14.434 10.486,13.005 10.871 C 12.669 10.962,12.542 10.975,12.000 10.975 C 11.458 10.975,11.331 10.962,10.995 10.871 C 10.054 10.617,9.240 10.046,8.712 9.269 C 8.471 8.913,8.214 8.341,8.113 7.938 C 7.987 7.429,7.987 6.571,8.113 6.062 C 8.215 5.654,8.470 5.088,8.722 4.715 C 9.304 3.853,10.337 3.215,11.433 3.040 C 11.783 2.984,12.572 3.026,12.958 3.120 M17.340 13.046 C 16.849 13.108,16.317 13.273,15.820 13.517 C 14.374 14.226,13.390 15.510,13.075 17.100 C 13.002 17.468,13.002 18.532,13.075 18.900 C 13.436 20.723,14.727 22.191,16.461 22.753 C 17.027 22.936,17.324 22.980,18.000 22.980 C 18.675 22.980,18.973 22.936,19.535 22.754 C 21.057 22.261,22.260 21.059,22.753 19.539 C 22.940 18.961,22.980 18.680,22.978 17.960 C 22.976 17.381,22.963 17.247,22.869 16.869 C 22.678 16.104,22.374 15.473,21.926 14.912 C 20.822 13.527,19.090 12.823,17.340 13.046 M11.200 14.044 C 8.467 14.307,6.006 16.031,4.800 18.529 C 4.318 19.525,4.000 20.819,4.000 21.778 L 4.000 22.000 4.995 22.000 L 5.990 22.000 6.018 21.610 C 6.171 19.459,7.414 17.595,9.340 16.630 C 9.896 16.351,10.333 16.216,11.184 16.057 C 11.250 16.045,11.297 15.962,11.398 15.680 C 11.546 15.267,11.854 14.619,12.051 14.310 C 12.124 14.195,12.198 14.078,12.215 14.050 C 12.250 13.992,11.769 13.989,11.200 14.044 M18.779 15.102 C 18.910 15.138,19.076 15.197,19.148 15.234 L 19.279 15.301 17.286 17.294 L 15.293 19.287 15.211 19.093 C 15.070 18.759,15.021 18.475,15.021 18.000 C 15.021 17.340,15.150 16.898,15.499 16.358 C 15.905 15.729,16.629 15.223,17.320 15.085 C 17.441 15.061,17.576 15.032,17.620 15.022 C 17.777 14.986,18.544 15.039,18.779 15.102 M20.945 17.493 C 21.149 18.662,20.636 19.851,19.642 20.510 C 18.852 21.034,17.732 21.142,16.858 20.777 L 16.707 20.713 18.703 18.716 L 20.700 16.718 20.791 16.922 C 20.840 17.034,20.910 17.291,20.945 17.493 " stroke="none" fill-rule="evenodd" fill="black"></path></svg>