<svg viewBox="0 0 24 24" xmlns="http://www.w3.org/2000/svg"><path d="M11.200 1.058 C 9.841 1.254,8.675 1.841,7.720 2.806 C 6.909 3.627,6.378 4.624,6.111 5.830 C 5.986 6.395,5.986 7.605,6.111 8.170 C 6.383 9.400,6.917 10.389,7.764 11.236 C 8.612 12.084,9.600 12.617,10.826 12.887 C 11.397 13.013,12.603 13.013,13.174 12.887 C 14.400 12.617,15.388 12.084,16.236 11.236 C 17.081 10.391,17.618 9.396,17.887 8.174 C 18.013 7.603,18.013 6.397,17.887 5.826 C 17.555 4.320,16.770 3.084,15.576 2.187 C 15.139 1.858,14.227 1.398,13.741 1.259 C 12.936 1.031,11.935 0.951,11.200 1.058 M11.180 14.041 C 8.726 14.321,6.602 15.629,5.270 17.680 C 4.543 18.800,4.091 20.191,4.014 21.546 L 3.988 22.000 8.994 22.000 L 14.000 22.000 14.000 18.126 L 14.000 14.252 13.690 14.186 C 13.520 14.151,13.263 14.102,13.120 14.079 C 12.759 14.020,11.567 13.997,11.180 14.041 M16.160 15.180 L 15.461 15.880 16.520 16.940 L 17.579 18.000 16.520 19.060 L 15.460 20.120 16.170 20.830 L 16.880 21.540 17.940 20.480 L 19.000 19.421 20.060 20.480 L 21.120 21.540 21.830 20.830 L 22.540 20.120 21.480 19.060 L 20.421 18.000 21.480 16.940 L 22.540 15.880 21.830 15.170 L 21.120 14.460 20.060 15.520 L 19.000 16.579 17.950 15.530 C 17.372 14.952,16.890 14.480,16.879 14.480 C 16.868 14.480,16.544 14.795,16.160 15.180 " stroke="none" fill-rule="evenodd" fill="black"></path></svg>