<svg viewBox="0 0 24 24" xmlns="http://www.w3.org/2000/svg"><path d="M11.420 2.023 C 11.354 2.032,11.129 2.060,10.920 2.084 C 10.423 2.141,9.590 2.352,9.117 2.540 C 8.069 2.958,7.241 3.491,6.446 4.259 C 5.731 4.950,5.225 5.647,4.801 6.526 C 3.482 9.257,3.817 12.468,5.674 14.900 C 5.951 15.262,6.616 15.935,7.010 16.250 C 7.203 16.404,7.360 16.545,7.360 16.564 C 7.360 16.584,6.892 17.669,6.320 18.977 C 5.582 20.664,5.280 21.397,5.280 21.501 C 5.280 21.582,5.311 21.700,5.348 21.763 C 5.497 22.016,5.053 22.000,12.000 22.000 C 18.947 22.000,18.503 22.016,18.652 21.763 C 18.689 21.700,18.720 21.582,18.720 21.501 C 18.720 21.397,18.418 20.664,17.680 18.977 C 17.108 17.669,16.640 16.584,16.640 16.564 C 16.640 16.545,16.797 16.404,16.990 16.250 C 17.384 15.935,18.049 15.262,18.326 14.900 C 19.405 13.487,19.999 11.747,19.999 10.000 C 19.999 8.189,19.356 6.377,18.211 4.960 C 17.898 4.572,17.224 3.921,16.832 3.629 C 15.745 2.817,14.528 2.301,13.218 2.099 C 12.829 2.039,11.659 1.989,11.420 2.023 M12.632 4.042 C 15.259 4.328,17.324 6.214,17.885 8.840 C 18.014 9.444,18.014 10.554,17.885 11.160 C 17.661 12.212,17.243 13.073,16.559 13.894 C 16.194 14.330,15.791 14.671,14.853 15.334 L 14.126 15.847 14.258 16.154 C 14.331 16.322,14.734 17.246,15.155 18.207 C 15.576 19.168,15.920 19.965,15.920 19.977 C 15.920 19.990,14.156 20.000,12.000 20.000 C 9.844 20.000,8.080 19.990,8.080 19.977 C 8.080 19.965,8.424 19.168,8.845 18.207 C 9.266 17.246,9.669 16.322,9.742 16.154 L 9.874 15.847 9.147 15.334 C 7.961 14.495,7.544 14.105,7.019 13.340 C 6.790 13.006,6.443 12.296,6.305 11.880 C 5.958 10.835,5.916 9.662,6.186 8.560 C 6.898 5.658,9.664 3.719,12.632 4.042 M9.081 10.728 C 8.564 10.858,8.138 10.969,8.132 10.974 C 8.127 10.979,8.147 11.064,8.177 11.162 C 8.488 12.195,9.235 13.075,10.220 13.570 C 12.185 14.557,14.602 13.744,15.579 11.768 C 15.704 11.515,15.893 11.000,15.869 10.976 C 15.863 10.970,15.430 10.858,14.907 10.727 C 14.064 10.515,13.952 10.496,13.932 10.554 C 13.633 11.423,12.862 11.999,12.000 11.999 C 11.191 11.999,10.426 11.474,10.137 10.720 C 10.099 10.621,10.057 10.529,10.044 10.516 C 10.031 10.502,9.597 10.598,9.081 10.728 " stroke="none" fill-rule="evenodd" fill="black"></path></svg>