<svg viewBox="0 0 24 24" xmlns="http://www.w3.org/2000/svg"><path d="M11.200 1.058 C 10.483 1.161,9.933 1.332,9.320 1.640 C 7.658 2.475,6.527 3.951,6.111 5.830 C 5.986 6.395,5.986 7.605,6.111 8.170 C 6.651 10.608,8.393 12.350,10.826 12.887 C 11.397 13.013,12.603 13.013,13.174 12.887 C 15.605 12.351,17.351 10.605,17.887 8.174 C 18.013 7.603,18.013 6.397,17.887 5.826 C 17.341 3.351,15.474 1.529,13.041 1.097 C 12.552 1.010,11.660 0.991,11.200 1.058 M12.958 3.120 C 13.621 3.282,14.329 3.683,14.823 4.177 C 15.321 4.675,15.716 5.376,15.887 6.062 C 16.013 6.571,16.013 7.429,15.887 7.938 C 15.531 9.369,14.434 10.486,13.005 10.871 C 12.669 10.962,12.542 10.975,12.000 10.975 C 11.458 10.975,11.331 10.962,10.995 10.871 C 10.054 10.617,9.240 10.046,8.712 9.269 C 8.471 8.913,8.214 8.341,8.113 7.938 C 7.987 7.429,7.987 6.571,8.113 6.062 C 8.215 5.654,8.470 5.088,8.722 4.715 C 9.304 3.853,10.337 3.215,11.433 3.040 C 11.783 2.984,12.572 3.026,12.958 3.120 M8.340 15.046 C 7.849 15.108,7.317 15.273,6.820 15.517 C 5.590 16.120,4.688 17.140,4.263 18.407 C 4.044 19.060,4.032 19.170,4.012 20.630 L 3.993 22.000 4.993 22.000 L 5.993 22.000 6.011 20.730 C 6.030 19.321,6.037 19.276,6.312 18.704 C 6.614 18.075,7.097 17.599,7.740 17.298 C 8.361 17.007,8.156 17.020,12.000 17.020 C 15.844 17.020,15.639 17.007,16.260 17.298 C 16.918 17.606,17.391 18.079,17.704 18.740 C 17.962 19.285,18.000 19.562,18.000 20.884 L 18.000 22.000 19.004 22.000 L 20.007 22.000 19.990 20.630 C 19.973 19.307,19.969 19.246,19.866 18.848 C 19.606 17.837,19.141 17.041,18.409 16.353 C 17.657 15.647,16.632 15.168,15.601 15.042 C 15.183 14.990,8.746 14.994,8.340 15.046 " stroke="none" fill-rule="evenodd" fill="black"></path></svg>