<svg viewBox="0 0 24 24" xmlns="http://www.w3.org/2000/svg"><path d="M11.340 2.046 C 10.849 2.108,10.317 2.273,9.820 2.517 C 8.374 3.226,7.390 4.510,7.075 6.100 C 6.995 6.505,6.995 10.495,7.075 10.900 C 7.436 12.723,8.727 14.191,10.461 14.753 C 11.027 14.936,11.324 14.980,12.000 14.980 C 12.676 14.980,12.973 14.936,13.539 14.753 C 14.326 14.498,15.026 14.056,15.605 13.450 C 16.152 12.878,16.515 12.273,16.754 11.535 C 16.976 10.849,16.980 10.797,16.980 8.460 L 16.980 6.300 16.871 5.869 C 16.675 5.098,16.372 4.471,15.926 3.912 C 14.822 2.527,13.090 1.823,11.340 2.046 M11.200 17.024 C 8.032 17.248,5.283 18.579,3.544 20.730 L 3.390 20.921 4.025 21.225 C 4.374 21.392,4.788 21.588,4.945 21.660 L 5.231 21.791 5.565 21.452 C 7.686 19.303,11.339 18.469,14.713 19.363 C 15.547 19.584,16.399 19.951,17.129 20.403 C 17.599 20.694,17.893 20.929,18.360 21.384 L 18.780 21.793 19.680 21.369 C 20.175 21.135,20.587 20.939,20.595 20.933 C 20.630 20.909,20.117 20.314,19.741 19.945 C 18.197 18.424,16.001 17.416,13.540 17.098 C 13.074 17.038,11.644 16.993,11.200 17.024 " stroke="none" fill-rule="evenodd" fill="black"></path></svg>