<svg viewBox="0 0 24 24" xmlns="http://www.w3.org/2000/svg"><path d="M20.726 1.383 C 20.283 1.703,19.920 1.980,19.920 1.998 C 19.920 2.015,19.967 2.136,20.025 2.265 C 20.615 3.586,21.000 5.455,21.000 7.000 C 21.000 8.545,20.615 10.414,20.025 11.735 C 19.967 11.864,19.920 11.984,19.920 12.001 C 19.920 12.032,21.503 13.200,21.544 13.200 C 21.600 13.200,22.016 12.199,22.267 11.460 C 22.729 10.100,22.947 8.846,22.986 7.320 C 23.036 5.385,22.698 3.526,21.969 1.720 C 21.812 1.331,21.569 0.800,21.548 0.800 C 21.539 0.800,21.169 1.062,20.726 1.383 M8.200 1.058 C 6.841 1.254,5.675 1.841,4.720 2.806 C 3.909 3.627,3.378 4.624,3.111 5.830 C 2.986 6.395,2.986 7.605,3.111 8.170 C 3.383 9.400,3.917 10.389,4.764 11.236 C 5.612 12.084,6.600 12.617,7.826 12.887 C 8.397 13.013,9.603 13.013,10.174 12.887 C 11.400 12.617,12.388 12.084,13.236 11.236 C 14.081 10.391,14.618 9.396,14.887 8.174 C 15.013 7.603,15.013 6.397,14.887 5.826 C 14.555 4.320,13.770 3.084,12.576 2.187 C 12.139 1.858,11.227 1.398,10.741 1.259 C 9.936 1.031,8.935 0.951,8.200 1.058 M17.395 3.802 L 16.569 4.403 16.648 4.651 C 16.791 5.107,16.920 5.814,16.968 6.410 C 17.043 7.345,16.918 8.492,16.647 9.350 L 16.569 9.599 17.372 10.184 C 17.813 10.505,18.195 10.776,18.220 10.786 C 18.276 10.807,18.597 9.871,18.736 9.280 C 18.930 8.454,18.978 8.007,18.978 7.000 C 18.978 5.993,18.930 5.546,18.736 4.720 C 18.631 4.273,18.283 3.199,18.243 3.201 C 18.231 3.201,17.849 3.472,17.395 3.802 M8.200 14.044 C 5.467 14.307,3.006 16.031,1.800 18.529 C 1.318 19.525,1.000 20.819,1.000 21.778 L 1.000 22.000 9.000 22.000 L 17.000 22.000 17.000 21.770 C 16.999 21.643,16.981 21.378,16.959 21.180 C 16.645 18.369,14.951 15.982,12.412 14.773 C 11.124 14.159,9.651 13.904,8.200 14.044 " stroke="none" fill-rule="evenodd" fill="black"></path></svg>