<svg viewBox="0 0 24 24" xmlns="http://www.w3.org/2000/svg"><path d="M11.200 1.058 C 9.841 1.254,8.675 1.841,7.720 2.806 C 6.909 3.627,6.378 4.624,6.111 5.830 C 5.986 6.395,5.986 7.605,6.111 8.170 C 6.383 9.400,6.917 10.389,7.764 11.236 C 8.612 12.084,9.600 12.617,10.826 12.887 C 11.397 13.013,12.603 13.013,13.174 12.887 C 14.400 12.617,15.388 12.084,16.236 11.236 C 17.081 10.391,17.618 9.396,17.887 8.174 C 18.013 7.603,18.013 6.397,17.887 5.826 C 17.555 4.320,16.770 3.084,15.576 2.187 C 15.139 1.858,14.227 1.398,13.741 1.259 C 12.936 1.031,11.935 0.951,11.200 1.058 M12.958 3.120 C 13.621 3.282,14.329 3.683,14.823 4.177 C 15.321 4.675,15.716 5.376,15.887 6.062 C 16.013 6.571,16.013 7.429,15.887 7.938 C 15.786 8.341,15.529 8.913,15.288 9.269 C 14.760 10.045,13.963 10.606,13.011 10.870 C 12.663 10.966,12.551 10.978,12.000 10.978 C 11.447 10.978,11.337 10.966,10.983 10.868 C 9.525 10.464,8.430 9.324,8.095 7.860 C 7.994 7.420,7.994 6.580,8.095 6.140 C 8.477 4.471,9.791 3.283,11.540 3.024 C 11.809 2.984,12.630 3.040,12.958 3.120 M11.200 14.044 C 8.467 14.307,6.006 16.031,4.800 18.529 C 4.318 19.525,4.000 20.819,4.000 21.778 L 4.000 22.000 12.000 22.000 L 20.000 22.000 20.000 21.770 C 19.999 21.643,19.981 21.378,19.959 21.180 C 19.645 18.369,17.951 15.982,15.412 14.773 C 14.124 14.159,12.651 13.904,11.200 14.044 M11.000 18.040 L 11.000 20.000 8.677 20.000 L 6.355 20.000 6.380 19.910 C 6.437 19.707,6.810 18.981,7.016 18.671 C 7.827 17.451,9.066 16.571,10.500 16.198 C 10.742 16.135,10.954 16.083,10.970 16.082 C 10.987 16.081,11.000 16.962,11.000 18.040 M13.533 16.206 C 14.876 16.538,16.193 17.479,16.985 18.671 C 17.190 18.982,17.563 19.708,17.620 19.910 L 17.645 20.000 15.323 20.000 L 13.000 20.000 13.000 18.039 L 13.000 16.078 13.110 16.104 C 13.171 16.117,13.361 16.163,13.533 16.206 " stroke="none" fill-rule="evenodd" fill="black"></path></svg>