<svg viewBox="0 0 24 24" xmlns="http://www.w3.org/2000/svg"><path d="M11.200 1.058 C 9.841 1.254,8.675 1.841,7.720 2.806 C 6.909 3.627,6.378 4.624,6.111 5.830 C 5.986 6.395,5.986 7.605,6.111 8.170 C 6.383 9.400,6.917 10.389,7.764 11.236 C 8.612 12.084,9.600 12.617,10.826 12.887 C 11.397 13.013,12.603 13.013,13.174 12.887 C 14.400 12.617,15.388 12.084,16.236 11.236 C 17.081 10.391,17.618 9.396,17.887 8.174 C 18.013 7.603,18.013 6.397,17.887 5.826 C 17.555 4.320,16.770 3.084,15.576 2.187 C 15.139 1.858,14.227 1.398,13.741 1.259 C 12.936 1.031,11.935 0.951,11.200 1.058 M12.958 3.120 C 13.621 3.282,14.329 3.683,14.823 4.177 C 15.321 4.675,15.716 5.376,15.887 6.062 C 16.013 6.571,16.013 7.429,15.887 7.938 C 15.786 8.341,15.529 8.913,15.288 9.269 C 14.760 10.045,13.963 10.606,13.011 10.870 C 12.663 10.966,12.551 10.978,12.000 10.978 C 11.447 10.978,11.337 10.966,10.983 10.868 C 9.525 10.464,8.430 9.324,8.095 7.860 C 7.994 7.420,7.994 6.580,8.095 6.140 C 8.477 4.471,9.791 3.283,11.540 3.024 C 11.809 2.984,12.630 3.040,12.958 3.120 M11.180 14.042 C 9.620 14.219,8.150 14.828,6.960 15.789 C 6.606 16.075,5.934 16.761,5.674 17.100 C 4.688 18.392,4.105 19.953,4.014 21.546 L 3.988 22.000 4.988 22.000 L 5.989 22.000 6.016 21.635 C 6.078 20.818,6.252 20.141,6.576 19.460 C 7.473 17.572,9.171 16.333,11.239 16.058 C 12.107 15.942,12.899 16.015,13.910 16.304 L 14.000 16.329 14.000 15.290 L 14.000 14.252 13.690 14.186 C 13.520 14.151,13.263 14.102,13.120 14.078 C 12.765 14.020,11.571 13.997,11.180 14.042 M16.160 16.180 L 15.461 16.880 16.520 17.940 L 17.579 19.000 16.520 20.060 L 15.460 21.120 16.170 21.830 L 16.880 22.540 17.940 21.480 L 19.000 20.421 20.060 21.480 L 21.120 22.540 21.830 21.830 L 22.540 21.120 21.480 20.060 L 20.421 19.000 21.480 17.940 L 22.540 16.880 21.830 16.170 L 21.120 15.460 20.060 16.520 L 19.000 17.579 17.950 16.530 C 17.372 15.952,16.890 15.480,16.879 15.480 C 16.868 15.480,16.544 15.795,16.160 16.180 " stroke="none" fill-rule="evenodd" fill="black"></path></svg>