<svg viewBox="0 0 24 24" xmlns="http://www.w3.org/2000/svg"><path d="M11.120 2.039 C 8.641 2.287,6.414 3.362,4.761 5.107 C 1.806 8.228,1.158 12.819,3.137 16.623 C 3.620 17.552,4.164 18.288,4.938 19.061 C 5.930 20.051,7.038 20.789,8.272 21.278 C 11.634 22.610,15.313 22.080,18.200 19.845 C 18.637 19.507,19.507 18.637,19.845 18.200 C 21.256 16.378,22.000 14.236,22.000 12.000 C 22.000 7.432,18.842 3.387,14.430 2.303 C 13.446 2.062,12.028 1.948,11.120 2.039 M9.000 12.142 C 9.000 12.366,9.113 12.855,9.234 13.151 C 9.521 13.857,10.143 14.479,10.849 14.766 C 12.610 15.483,14.554 14.445,14.938 12.581 C 14.972 12.417,15.000 12.220,15.000 12.142 L 15.000 12.000 16.000 12.000 L 17.000 12.000 17.000 12.131 C 17.000 12.203,16.981 12.415,16.958 12.601 C 16.723 14.522,15.375 16.158,13.539 16.753 C 12.973 16.936,12.676 16.980,12.000 16.980 C 11.325 16.980,11.027 16.936,10.465 16.754 C 8.624 16.158,7.277 14.524,7.042 12.601 C 7.019 12.415,7.000 12.203,7.000 12.131 L 7.000 12.000 8.000 12.000 L 9.000 12.000 9.000 12.142 " stroke="none" fill-rule="evenodd" fill="black"></path></svg>