<svg fill="none" stroke="currentColor" stroke-linecap="round" stroke-linejoin="round" stroke-width="2" viewBox="0 0 24 24" xmlns="http://www.w3.org/2000/svg"><path d="M2.499 5.042 C 1.377 5.234,0.461 6.048,0.114 7.160 L 0.020 7.460 0.020 12.000 L 0.020 16.540 0.114 16.840 C 0.419 17.817,1.158 18.563,2.140 18.884 C 2.404 18.970,2.495 18.976,3.764 18.991 C 4.647 19.001,5.163 18.992,5.268 18.963 C 5.498 18.901,5.737 18.713,5.867 18.492 C 5.964 18.327,5.980 18.257,5.980 18.000 C 5.980 17.746,5.963 17.672,5.872 17.516 C 5.761 17.327,5.569 17.156,5.373 17.071 C 5.296 17.038,4.854 17.016,3.980 17.001 L 2.700 16.980 2.516 16.872 C 2.415 16.813,2.284 16.700,2.225 16.623 C 1.990 16.315,2.000 16.515,2.000 12.022 C 2.000 7.357,1.983 7.623,2.303 7.303 C 2.603 7.004,2.631 7.000,4.620 7.000 C 6.548 7.000,6.583 6.996,6.855 6.731 C 7.089 6.505,7.177 6.304,7.177 6.000 C 7.177 5.607,6.988 5.303,6.621 5.106 C 6.463 5.022,6.421 5.020,4.580 5.014 C 3.546 5.011,2.609 5.023,2.499 5.042 M10.668 5.061 C 10.585 5.092,10.462 5.156,10.395 5.204 C 10.259 5.300,6.138 11.450,6.054 11.680 C 5.893 12.126,6.117 12.673,6.550 12.886 L 6.740 12.980 8.930 13.000 L 11.120 13.020 9.599 15.300 C 8.763 16.554,8.061 17.643,8.040 17.720 C 7.917 18.158,8.108 18.632,8.499 18.862 C 8.713 18.987,9.045 19.030,9.264 18.961 C 9.643 18.841,9.610 18.884,11.805 15.592 C 12.952 13.873,13.917 12.386,13.950 12.289 C 14.109 11.823,13.853 11.283,13.373 11.070 C 13.289 11.033,12.699 11.015,11.070 11.000 L 8.880 10.980 10.400 8.700 C 11.237 7.446,11.939 6.357,11.960 6.280 C 12.177 5.509,11.412 4.788,10.668 5.061 M14.695 5.055 C 14.464 5.130,14.255 5.300,14.128 5.516 C 14.037 5.672,14.020 5.746,14.020 6.000 C 14.020 6.256,14.036 6.328,14.131 6.489 C 14.192 6.592,14.304 6.725,14.381 6.783 C 14.644 6.984,14.734 6.996,15.963 6.998 C 17.306 7.000,17.413 7.019,17.697 7.303 C 18.017 7.623,18.000 7.359,18.000 12.001 C 18.000 16.458,18.007 16.319,17.779 16.618 C 17.718 16.698,17.585 16.813,17.484 16.872 L 17.300 16.980 15.420 17.000 C 13.593 17.019,13.536 17.022,13.379 17.106 C 13.012 17.303,12.823 17.607,12.823 18.000 C 12.823 18.304,12.911 18.505,13.145 18.732 C 13.426 19.005,13.440 19.007,15.628 18.991 C 17.542 18.978,17.585 18.975,17.860 18.885 C 18.846 18.559,19.581 17.816,19.886 16.840 L 19.980 16.540 19.980 12.000 L 19.980 7.460 19.886 7.160 C 19.581 6.181,18.825 5.421,17.861 5.124 C 17.551 5.028,17.495 5.025,16.200 5.014 C 15.166 5.005,14.822 5.014,14.695 5.055 M22.695 10.057 C 22.466 10.129,22.256 10.299,22.128 10.516 L 22.020 10.700 22.020 12.003 L 22.020 13.306 22.141 13.503 C 22.543 14.156,23.457 14.156,23.859 13.503 L 23.980 13.306 23.980 12.003 L 23.980 10.700 23.872 10.516 C 23.628 10.101,23.150 9.915,22.695 10.057 " stroke="none" fill-rule="evenodd" fill="black"></path></svg>