<svg fill="none" stroke="currentColor" stroke-linecap="round" stroke-linejoin="round" stroke-width="2" viewBox="0 0 24 24" xmlns="http://www.w3.org/2000/svg"><path d="M5.695 0.057 C 5.466 0.129,5.256 0.299,5.128 0.516 L 5.020 0.700 5.020 2.503 L 5.020 4.306 5.141 4.503 C 5.543 5.156,6.457 5.156,6.859 4.503 L 6.980 4.306 6.980 2.503 L 6.980 0.700 6.872 0.516 C 6.628 0.101,6.150 -0.085,5.695 0.057 M9.695 0.057 C 9.466 0.129,9.256 0.299,9.128 0.516 L 9.020 0.700 9.020 2.503 L 9.020 4.306 9.141 4.503 C 9.543 5.156,10.457 5.156,10.859 4.503 L 10.980 4.306 10.980 2.503 L 10.980 0.700 10.872 0.516 C 10.628 0.101,10.150 -0.085,9.695 0.057 M13.695 0.057 C 13.466 0.129,13.256 0.299,13.128 0.516 L 13.020 0.700 13.020 2.503 L 13.020 4.306 13.141 4.503 C 13.543 5.156,14.457 5.156,14.859 4.503 L 14.980 4.306 14.980 2.503 L 14.980 0.700 14.872 0.516 C 14.628 0.101,14.150 -0.085,13.695 0.057 M1.695 7.057 C 1.466 7.129,1.256 7.299,1.128 7.516 L 1.020 7.700 1.020 12.660 C 1.020 17.305,1.025 17.642,1.093 17.960 C 1.526 19.984,3.016 21.474,5.040 21.907 C 5.358 21.975,5.684 21.980,10.000 21.980 C 14.316 21.980,14.642 21.975,14.960 21.907 C 16.488 21.580,17.748 20.630,18.433 19.288 C 18.760 18.645,18.940 18.015,18.988 17.336 L 19.011 17.011 19.336 16.988 C 20.787 16.885,22.162 16.126,23.034 14.948 C 23.427 14.416,23.756 13.667,23.907 12.960 C 24.008 12.489,24.008 11.511,23.907 11.040 C 23.625 9.721,22.863 8.576,21.800 7.874 C 21.046 7.375,20.396 7.135,19.552 7.043 C 18.936 6.975,1.912 6.989,1.695 7.057 M16.991 13.270 L 16.980 17.540 16.879 17.861 C 16.572 18.832,15.818 19.581,14.840 19.886 L 14.540 19.980 10.000 19.980 L 5.460 19.980 5.160 19.886 C 4.182 19.581,3.428 18.832,3.121 17.861 L 3.020 17.540 3.009 13.270 L 2.998 9.000 10.000 9.000 L 17.002 9.000 16.991 13.270 M19.876 9.134 C 20.801 9.402,21.586 10.190,21.875 11.139 C 21.958 11.412,21.973 11.542,21.973 12.000 C 21.973 12.458,21.958 12.588,21.875 12.861 C 21.522 14.018,20.482 14.877,19.302 14.984 L 19.000 15.011 19.000 12.000 L 19.000 8.990 19.286 9.018 C 19.443 9.033,19.709 9.086,19.876 9.134 " stroke="none" fill-rule="evenodd" fill="black"></path></svg>