<svg fill="none" stroke="currentColor" stroke-linecap="round" stroke-linejoin="round" stroke-width="2" viewBox="0 0 24 24" xmlns="http://www.w3.org/2000/svg"><path d="M0.695 0.057 C 0.466 0.129,0.256 0.299,0.128 0.516 C 0.036 0.672,0.020 0.745,0.021 1.000 C 0.021 1.212,0.043 1.341,0.095 1.440 C 0.135 1.517,0.900 2.313,1.793 3.210 L 3.418 4.840 3.259 4.970 C 2.397 5.675,1.691 6.482,1.149 7.383 C 0.817 7.935,0.503 8.635,0.299 9.280 C 0.009 10.199,0.024 10.061,0.010 11.881 C -0.003 13.427,0.002 13.568,0.076 13.901 C 0.512 15.851,1.578 17.624,3.057 18.859 C 4.498 20.061,6.206 20.781,8.040 20.960 C 8.360 20.991,10.055 21.001,13.620 20.992 C 18.382 20.980,18.764 20.974,19.077 20.907 L 19.413 20.834 20.917 22.333 C 21.743 23.157,22.483 23.865,22.560 23.905 C 22.659 23.957,22.788 23.979,23.000 23.979 C 23.258 23.980,23.327 23.964,23.492 23.867 C 23.968 23.587,24.139 22.967,23.865 22.508 C 23.810 22.416,18.765 17.342,12.653 11.233 C 1.730 0.316,1.536 0.125,1.323 0.063 C 1.066 -0.012,0.919 -0.013,0.695 0.057 M9.320 3.083 C 8.926 3.261,8.707 3.587,8.704 4.000 C 8.702 4.304,8.788 4.498,9.027 4.728 C 9.225 4.918,9.310 4.948,9.937 5.043 C 10.553 5.135,10.858 5.208,11.320 5.370 C 12.320 5.721,13.231 6.312,14.026 7.127 C 14.856 7.977,15.358 8.858,15.739 10.132 C 15.856 10.526,16.016 10.743,16.297 10.892 C 16.447 10.971,16.543 10.980,17.500 11.004 C 18.072 11.019,18.637 11.051,18.755 11.075 C 20.222 11.379,21.400 12.434,21.818 13.820 C 22.083 14.698,22.059 15.465,21.737 16.431 C 21.578 16.909,21.572 17.001,21.681 17.295 C 21.788 17.580,22.034 17.809,22.337 17.904 C 22.532 17.966,22.595 17.969,22.789 17.929 C 23.256 17.831,23.463 17.590,23.695 16.879 C 23.931 16.153,23.979 15.836,23.979 14.980 C 23.979 14.151,23.939 13.880,23.712 13.160 C 23.053 11.076,21.247 9.499,19.060 9.097 C 18.862 9.061,18.424 9.020,18.088 9.006 L 17.475 8.980 17.324 8.596 C 16.167 5.652,13.394 3.503,10.180 3.058 C 9.646 2.984,9.532 2.987,9.320 3.083 M11.220 12.640 L 17.580 19.000 12.991 19.000 C 9.063 19.000,8.339 18.991,7.958 18.938 C 6.009 18.666,4.320 17.649,3.179 16.060 C 2.673 15.355,2.196 14.273,2.025 13.438 C 1.486 10.818,2.454 8.172,4.568 6.484 C 4.707 6.373,4.829 6.282,4.840 6.281 C 4.851 6.281,7.722 9.142,11.220 12.640 " stroke="none" fill-rule="evenodd" fill="black"></path></svg>