<svg fill="none" stroke="currentColor" stroke-linecap="round" stroke-linejoin="round" stroke-width="2" viewBox="0 0 24 24" xmlns="http://www.w3.org/2000/svg"><path d="M7.740 3.042 C 7.674 3.062,7.560 3.110,7.487 3.149 C 7.342 3.226,0.269 11.278,0.111 11.546 C -0.019 11.766,-0.019 12.234,0.111 12.454 C 0.161 12.539,1.814 14.450,3.784 16.702 C 6.814 20.165,7.395 20.810,7.553 20.888 L 7.740 20.980 14.640 20.980 L 21.540 20.980 21.840 20.886 C 22.827 20.578,23.578 19.827,23.886 18.840 L 23.980 18.540 23.980 12.000 L 23.980 5.460 23.886 5.160 C 23.581 4.182,22.832 3.428,21.861 3.121 L 21.540 3.020 14.700 3.013 C 10.723 3.009,7.810 3.021,7.740 3.042 M21.310 5.061 C 21.589 5.144,21.856 5.411,21.939 5.690 C 21.992 5.869,22.000 6.651,22.000 12.001 C 22.000 17.059,21.991 18.139,21.945 18.290 C 21.872 18.533,21.707 18.740,21.484 18.872 L 21.300 18.980 14.878 18.990 L 8.456 19.001 5.419 15.531 C 3.749 13.622,2.383 12.033,2.383 12.000 C 2.383 11.967,3.749 10.378,5.419 8.470 L 8.455 5.000 14.780 5.000 C 20.326 5.000,21.131 5.007,21.310 5.061 M11.670 8.061 C 11.448 8.142,11.250 8.309,11.128 8.516 C 11.036 8.672,11.020 8.745,11.021 9.000 C 11.021 9.213,11.043 9.341,11.095 9.440 C 11.136 9.517,11.711 10.125,12.374 10.790 L 13.578 12.000 12.374 13.210 C 11.711 13.876,11.138 14.481,11.101 14.555 C 10.872 15.009,11.056 15.601,11.508 15.867 C 11.673 15.964,11.742 15.980,12.000 15.979 C 12.213 15.979,12.341 15.957,12.440 15.905 C 12.517 15.864,13.125 15.289,13.790 14.626 L 15.000 13.422 16.210 14.626 C 16.875 15.289,17.481 15.862,17.555 15.899 C 18.009 16.128,18.601 15.944,18.867 15.492 C 18.964 15.327,18.980 15.258,18.979 15.000 C 18.979 14.787,18.957 14.659,18.905 14.560 C 18.864 14.483,18.289 13.876,17.626 13.210 L 16.422 12.000 17.626 10.790 C 18.289 10.125,18.864 9.517,18.905 9.440 C 18.957 9.341,18.979 9.213,18.979 9.000 C 18.980 8.745,18.964 8.672,18.872 8.516 C 18.618 8.084,18.137 7.905,17.657 8.066 C 17.484 8.124,17.312 8.279,16.230 9.354 L 15.000 10.576 13.770 9.354 C 12.688 8.279,12.516 8.124,12.343 8.066 C 12.108 7.987,11.875 7.985,11.670 8.061 " stroke="none" fill-rule="evenodd" fill="black"></path></svg>