<svg fill="none" stroke="currentColor" stroke-linecap="round" stroke-linejoin="round" stroke-width="2" viewBox="0 0 24 24" xmlns="http://www.w3.org/2000/svg"><path d="M11.541 1.042 C 11.004 1.126,10.902 1.175,8.884 2.330 C 8.038 2.813,7.275 3.234,7.186 3.265 C 7.098 3.296,6.934 3.391,6.823 3.475 C 6.711 3.559,5.868 4.057,4.948 4.581 C 3.994 5.125,3.186 5.613,3.066 5.718 C 2.572 6.148,2.322 6.538,2.114 7.200 L 2.020 7.500 2.020 12.000 L 2.020 16.500 2.114 16.800 C 2.350 17.556,2.795 18.150,3.421 18.546 C 3.857 18.822,10.401 22.543,10.700 22.685 C 10.998 22.827,11.356 22.945,11.810 23.051 C 11.950 23.084,12.050 23.084,12.190 23.051 C 12.644 22.945,13.002 22.827,13.300 22.685 C 13.599 22.543,20.143 18.822,20.579 18.546 C 21.058 18.243,21.412 17.849,21.663 17.340 C 22.002 16.650,21.980 17.028,21.980 12.000 C 21.980 7.837,21.975 7.523,21.908 7.280 C 21.726 6.619,21.438 6.157,20.933 5.717 C 20.726 5.537,13.790 1.540,13.239 1.284 C 13.096 1.217,12.873 1.136,12.743 1.102 C 12.439 1.023,11.848 0.994,11.541 1.042 M12.284 3.055 C 12.381 3.085,13.923 3.947,15.711 4.970 L 18.963 6.830 17.734 7.540 C 16.804 8.078,16.491 8.241,16.443 8.213 C 16.408 8.192,14.855 7.296,12.990 6.222 C 11.126 5.148,9.600 4.258,9.600 4.244 C 9.601 4.204,11.551 3.104,11.711 3.053 C 11.914 2.989,12.074 2.990,12.284 3.055 M10.970 7.365 C 12.845 8.446,14.402 9.351,14.430 9.376 C 14.469 9.412,14.209 9.579,13.272 10.121 C 12.608 10.506,12.035 10.820,12.000 10.820 C 11.965 10.820,10.384 9.922,8.487 8.825 L 5.037 6.830 6.288 6.115 C 6.977 5.722,7.544 5.400,7.550 5.400 C 7.555 5.400,9.094 6.284,10.970 7.365 M7.534 10.580 L 10.997 12.580 10.999 16.570 C 10.999 18.765,10.991 20.560,10.980 20.560 C 10.969 20.560,9.490 19.720,7.693 18.693 C 5.401 17.384,4.381 16.780,4.274 16.669 C 3.989 16.375,4.000 16.548,4.000 12.329 C 4.000 10.111,4.015 8.559,4.036 8.567 C 4.056 8.574,5.630 9.480,7.534 10.580 M20.000 12.333 C 20.000 16.548,20.011 16.375,19.726 16.669 C 19.619 16.780,18.599 17.384,16.307 18.693 C 14.510 19.720,13.031 20.560,13.020 20.560 C 13.009 20.560,13.001 18.765,13.001 16.570 L 13.003 12.580 16.471 10.573 C 18.379 9.469,19.953 8.565,19.970 8.563 C 19.987 8.561,20.000 10.258,20.000 12.333 " stroke="none" fill-rule="evenodd" fill="black"></path></svg>