<svg fill="none" stroke="currentColor" stroke-linecap="round" stroke-linejoin="round" stroke-width="2" viewBox="0 0 24 24" xmlns="http://www.w3.org/2000/svg"><path d="M14.660 0.094 C 14.256 0.292,14.067 0.580,14.064 1.000 C 14.062 1.295,14.145 1.490,14.366 1.716 C 14.549 1.902,14.665 1.943,15.327 2.057 C 16.264 2.219,16.966 2.452,17.743 2.859 C 19.231 3.639,20.358 4.767,21.142 6.260 C 21.547 7.031,21.779 7.731,21.945 8.678 C 22.058 9.321,22.122 9.480,22.352 9.688 C 22.613 9.924,22.989 9.998,23.337 9.882 C 23.557 9.808,23.815 9.555,23.920 9.310 C 23.998 9.129,24.007 9.061,23.984 8.787 C 23.952 8.401,23.796 7.625,23.655 7.140 C 22.705 3.890,20.088 1.282,16.839 0.347 C 16.251 0.177,15.614 0.052,15.175 0.019 C 14.894 -0.002,14.839 0.006,14.660 0.094 M3.620 1.042 C 2.674 1.206,1.858 1.810,1.438 2.660 C 1.099 3.346,1.052 3.865,1.222 5.040 C 1.618 7.780,2.497 10.293,3.873 12.620 C 5.516 15.399,7.668 17.698,10.216 19.398 C 12.407 20.861,14.498 21.803,16.860 22.395 C 18.062 22.696,19.429 22.920,20.062 22.920 C 21.148 22.920,22.216 22.233,22.698 21.225 C 22.982 20.631,22.980 20.649,22.980 18.380 C 22.980 16.353,22.979 16.338,22.886 16.040 C 22.586 15.079,21.875 14.338,20.953 14.026 C 20.850 13.991,20.544 13.926,20.273 13.880 C 19.319 13.721,19.020 13.646,18.000 13.311 C 17.425 13.122,17.345 13.106,16.898 13.089 C 16.492 13.074,16.360 13.085,16.058 13.160 C 15.412 13.322,15.073 13.532,14.393 14.191 L 13.924 14.647 13.732 14.517 C 12.774 13.868,12.172 13.374,11.399 12.601 C 10.708 11.910,10.268 11.387,9.720 10.604 L 9.351 10.078 9.808 9.608 C 10.577 8.815,10.812 8.376,10.915 7.540 C 10.973 7.068,10.917 6.712,10.661 5.922 C 10.396 5.107,10.279 4.635,10.143 3.835 C 10.088 3.514,10.013 3.163,9.977 3.055 C 9.721 2.295,9.176 1.671,8.460 1.318 C 7.859 1.022,7.887 1.025,5.740 1.016 C 4.684 1.011,3.730 1.023,3.620 1.042 M7.409 3.042 C 7.613 3.098,7.881 3.311,7.988 3.501 C 8.036 3.587,8.105 3.829,8.141 4.039 C 8.311 5.037,8.478 5.707,8.779 6.598 C 8.945 7.090,8.960 7.367,8.837 7.640 C 8.780 7.765,8.518 8.059,7.982 8.600 C 7.244 9.344,7.205 9.391,7.138 9.620 C 7.013 10.048,7.125 10.330,7.851 11.420 C 9.087 13.277,10.716 14.905,12.580 16.149 C 13.667 16.874,13.952 16.987,14.378 16.863 C 14.604 16.797,14.656 16.754,15.438 15.985 C 16.324 15.113,16.373 15.080,16.787 15.080 C 16.907 15.080,17.147 15.135,17.402 15.221 C 18.279 15.518,18.951 15.687,19.852 15.837 C 20.145 15.886,20.387 15.951,20.490 16.008 C 20.687 16.117,20.900 16.383,20.958 16.591 C 21.010 16.778,21.013 19.955,20.962 20.177 C 20.877 20.540,20.496 20.875,20.126 20.910 C 19.758 20.946,18.243 20.695,17.240 20.433 C 13.130 19.359,9.399 16.874,6.895 13.540 C 5.090 11.138,3.908 8.505,3.365 5.680 C 3.207 4.861,3.100 3.977,3.135 3.793 C 3.167 3.621,3.375 3.299,3.522 3.191 C 3.767 3.011,3.853 3.004,5.600 3.002 C 6.626 3.001,7.317 3.016,7.409 3.042 M14.740 4.049 C 14.263 4.219,13.953 4.767,14.075 5.223 C 14.133 5.438,14.325 5.719,14.489 5.829 C 14.562 5.877,14.800 5.964,15.018 6.020 C 15.782 6.219,16.386 6.558,16.914 7.086 C 17.442 7.614,17.781 8.218,17.980 8.982 C 18.036 9.200,18.123 9.438,18.171 9.511 C 18.281 9.675,18.562 9.867,18.777 9.925 C 19.336 10.075,19.943 9.622,19.990 9.020 C 20.010 8.768,19.864 8.188,19.640 7.631 C 18.940 5.885,17.330 4.507,15.489 4.077 C 15.123 3.992,14.922 3.984,14.740 4.049 " stroke="none" fill-rule="evenodd" fill="black"></path></svg>