<svg fill="none" stroke="currentColor" stroke-linecap="round" stroke-linejoin="round" stroke-width="2" viewBox="0 0 24 24" xmlns="http://www.w3.org/2000/svg"><path d="M4.709 3.963 C 4.451 4.025,4.345 4.102,3.943 4.525 C 2.465 6.080,1.463 8.165,1.112 10.420 C 0.986 11.229,0.986 12.771,1.112 13.580 C 1.294 14.748,1.630 15.819,2.141 16.860 C 2.641 17.881,3.268 18.779,4.000 19.527 C 4.386 19.920,4.440 19.961,4.660 20.024 C 4.861 20.081,4.935 20.085,5.120 20.046 C 5.555 19.955,5.881 19.593,5.912 19.166 C 5.938 18.799,5.875 18.649,5.530 18.260 C 4.741 17.373,4.349 16.811,3.939 15.980 C 3.294 14.672,3.024 13.499,3.024 12.000 C 3.024 10.501,3.294 9.328,3.939 8.020 C 4.349 7.189,4.742 6.626,5.529 5.740 C 5.858 5.370,5.919 5.238,5.920 4.898 C 5.920 4.534,5.642 4.132,5.300 4.001 C 5.154 3.946,4.862 3.927,4.709 3.963 M18.847 3.962 C 18.435 4.045,18.080 4.477,18.080 4.895 C 18.081 5.251,18.142 5.381,18.493 5.769 C 19.230 6.584,19.650 7.188,20.060 8.020 C 20.605 9.125,20.873 10.120,20.968 11.388 C 21.112 13.303,20.595 15.292,19.529 16.920 C 19.236 17.368,19.019 17.642,18.494 18.226 C 18.127 18.634,18.061 18.787,18.088 19.166 C 18.119 19.593,18.445 19.955,18.880 20.046 C 19.064 20.084,19.139 20.081,19.340 20.024 C 19.561 19.961,19.613 19.922,20.002 19.523 C 21.506 17.981,22.531 15.869,22.888 13.580 C 23.014 12.771,23.014 11.229,22.888 10.420 C 22.597 8.552,21.880 6.839,20.780 5.381 C 20.327 4.781,19.683 4.106,19.491 4.029 C 19.279 3.945,19.049 3.921,18.847 3.962 M7.336 6.856 C 7.186 6.926,7.042 7.051,6.795 7.329 C 4.730 9.648,4.423 13.031,6.039 15.660 C 6.391 16.233,6.995 16.944,7.268 17.106 C 7.728 17.378,8.347 17.208,8.627 16.732 C 8.724 16.567,8.740 16.498,8.739 16.240 C 8.738 15.878,8.696 15.789,8.336 15.390 C 7.356 14.306,6.888 12.904,7.038 11.500 C 7.158 10.374,7.567 9.459,8.338 8.598 C 8.688 8.206,8.783 7.990,8.748 7.660 C 8.677 6.966,7.967 6.562,7.336 6.856 M15.935 6.817 C 15.706 6.889,15.496 7.059,15.368 7.276 C 15.276 7.432,15.260 7.505,15.261 7.760 C 15.262 8.122,15.304 8.211,15.664 8.610 C 16.644 9.694,17.112 11.095,16.963 12.500 C 16.843 13.622,16.428 14.546,15.653 15.412 C 15.312 15.794,15.218 16.012,15.252 16.340 C 15.306 16.864,15.717 17.238,16.240 17.239 C 16.596 17.240,16.812 17.113,17.205 16.671 C 18.117 15.647,18.702 14.404,18.926 13.020 C 18.954 12.844,18.977 12.385,18.977 12.000 C 18.977 11.615,18.954 11.156,18.926 10.980 C 18.689 9.512,18.033 8.181,17.049 7.173 C 16.821 6.939,16.729 6.874,16.557 6.823 C 16.306 6.748,16.158 6.747,15.935 6.817 M11.499 9.040 C 10.363 9.246,9.460 10.049,9.114 11.160 C 8.979 11.594,8.979 12.406,9.114 12.840 C 9.421 13.826,10.174 14.579,11.160 14.886 C 11.594 15.021,12.406 15.021,12.840 14.886 C 13.826 14.579,14.579 13.826,14.886 12.840 C 15.021 12.406,15.021 11.594,14.886 11.160 C 14.581 10.179,13.810 9.407,12.861 9.129 C 12.500 9.023,11.832 8.980,11.499 9.040 M12.310 11.061 C 12.688 11.173,13.000 11.598,13.000 12.001 C 13.000 12.331,12.784 12.696,12.484 12.872 C 12.328 12.963,12.254 12.980,12.000 12.980 C 11.746 12.980,11.672 12.963,11.516 12.872 C 10.935 12.530,10.833 11.774,11.304 11.303 C 11.583 11.024,11.916 10.944,12.310 11.061 " stroke="none" fill-rule="evenodd" fill="black"></path></svg>