<svg fill="none" stroke="currentColor" stroke-linecap="round" stroke-linejoin="round" stroke-width="2" viewBox="0 0 24 24" xmlns="http://www.w3.org/2000/svg"><path d="M11.340 2.026 C 10.565 2.089,9.642 2.265,8.980 2.476 C 7.266 3.022,5.643 4.082,4.503 5.400 C 3.184 6.925,2.409 8.610,2.095 10.640 C 1.995 11.283,1.995 12.714,2.094 13.378 C 2.179 13.949,2.389 14.789,2.584 15.340 C 4.242 20.026,9.156 22.802,14.010 21.796 C 17.325 21.109,20.078 18.791,21.305 15.655 C 21.521 15.101,21.534 14.881,21.370 14.557 C 21.057 13.939,20.265 13.821,19.768 14.319 C 19.701 14.386,19.586 14.589,19.513 14.770 C 19.055 15.905,18.526 16.739,17.752 17.543 C 17.057 18.264,16.358 18.772,15.474 19.199 C 13.753 20.030,11.881 20.215,10.000 19.739 C 7.765 19.173,5.849 17.606,4.823 15.504 C 3.770 13.347,3.740 10.899,4.739 8.680 C 5.557 6.864,7.158 5.324,8.988 4.597 C 10.491 3.999,12.029 3.861,13.629 4.182 C 14.799 4.416,15.997 4.971,16.940 5.715 C 17.110 5.849,17.971 6.639,18.853 7.469 L 20.457 8.980 18.599 9.000 C 17.235 9.015,16.710 9.033,16.627 9.070 C 16.428 9.158,16.239 9.328,16.128 9.516 C 16.037 9.672,16.020 9.746,16.020 10.000 C 16.020 10.256,16.036 10.328,16.131 10.489 C 16.256 10.702,16.449 10.864,16.670 10.943 C 16.790 10.986,17.451 10.997,20.020 10.998 L 23.220 10.999 23.420 10.906 C 23.657 10.796,23.845 10.595,23.936 10.354 C 23.996 10.196,24.001 9.874,23.991 6.940 L 23.980 3.700 23.871 3.514 C 23.479 2.848,22.521 2.848,22.129 3.514 L 22.020 3.700 22.000 5.685 L 21.980 7.670 21.319 7.045 C 19.366 5.198,18.544 4.439,18.220 4.181 C 16.638 2.922,14.768 2.194,12.720 2.041 C 12.210 2.002,11.700 1.997,11.340 2.026 " stroke="none" fill-rule="evenodd" fill="black"></path></svg>