<svg fill="none" stroke="currentColor" stroke-linecap="round" stroke-linejoin="round" stroke-width="2" viewBox="0 0 24 24" xmlns="http://www.w3.org/2000/svg"><path d="M11.000 2.062 C 9.343 2.235,7.865 2.761,6.500 3.663 C 5.837 4.101,5.566 4.336,3.720 6.071 L 2.020 7.669 2.000 5.685 L 1.980 3.700 1.871 3.514 C 1.479 2.848,0.521 2.848,0.129 3.514 L 0.020 3.700 0.009 6.940 C -0.001 9.874,0.004 10.196,0.064 10.354 C 0.155 10.595,0.343 10.796,0.580 10.906 L 0.780 10.999 3.980 10.998 C 6.549 10.997,7.210 10.986,7.330 10.943 C 7.551 10.864,7.744 10.702,7.869 10.489 C 7.964 10.328,7.980 10.256,7.980 10.000 C 7.980 9.746,7.963 9.672,7.872 9.516 C 7.761 9.328,7.572 9.158,7.373 9.070 C 7.290 9.033,6.765 9.015,5.404 9.000 L 3.547 8.980 5.153 7.470 C 6.861 5.862,7.266 5.519,7.897 5.143 C 10.255 3.736,13.183 3.632,15.614 4.870 C 16.447 5.294,17.080 5.763,17.742 6.446 C 18.533 7.262,19.044 8.066,19.514 9.233 C 19.732 9.773,20.007 9.981,20.500 9.978 C 20.930 9.976,21.221 9.788,21.397 9.400 C 21.529 9.107,21.508 8.864,21.301 8.335 C 20.404 6.041,18.653 4.138,16.440 3.049 C 15.733 2.702,15.223 2.511,14.540 2.339 C 13.275 2.020,12.200 1.936,11.000 2.062 M16.695 13.057 C 16.051 13.258,15.799 14.040,16.198 14.591 C 16.263 14.681,16.403 14.805,16.508 14.867 L 16.700 14.980 18.577 15.000 L 20.453 15.020 18.808 16.567 C 16.800 18.456,16.444 18.736,15.460 19.204 C 13.240 20.261,10.726 20.259,8.526 19.199 C 7.650 18.777,6.953 18.271,6.258 17.554 C 5.468 16.738,4.955 15.933,4.487 14.770 C 4.414 14.589,4.299 14.386,4.232 14.319 C 3.735 13.821,2.943 13.939,2.630 14.557 C 2.420 14.972,2.499 15.325,3.057 16.460 C 3.825 18.023,5.006 19.358,6.500 20.352 C 6.994 20.681,7.961 21.170,8.520 21.376 C 9.046 21.568,9.997 21.810,10.600 21.905 C 11.249 22.006,12.719 22.008,13.360 21.908 C 15.224 21.618,16.897 20.894,18.260 19.787 C 18.436 19.644,19.345 18.808,20.280 17.929 L 21.980 16.331 22.000 18.319 L 22.020 20.306 22.141 20.503 C 22.543 21.156,23.457 21.156,23.859 20.503 L 23.980 20.306 23.991 17.063 C 24.001 14.126,23.996 13.804,23.936 13.646 C 23.845 13.405,23.657 13.204,23.420 13.094 L 23.220 13.001 20.040 13.003 C 17.557 13.005,16.824 13.017,16.695 13.057 " stroke="none" fill-rule="evenodd" fill="black"></path></svg>