<svg fill="none" stroke="currentColor" stroke-linecap="round" stroke-linejoin="round" stroke-width="2" viewBox="0 0 24 24" xmlns="http://www.w3.org/2000/svg"><path d="M0.670 5.061 C 0.448 5.142,0.250 5.309,0.128 5.516 C 0.036 5.672,0.020 5.745,0.021 6.000 C 0.021 6.212,0.043 6.341,0.095 6.440 C 0.178 6.599,7.693 14.145,7.943 14.320 C 8.235 14.525,8.740 14.540,9.017 14.352 C 9.085 14.306,10.121 13.290,11.320 12.094 L 13.500 9.920 17.040 13.460 L 20.580 17.000 18.736 17.000 C 16.735 17.000,16.663 17.007,16.382 17.221 C 16.302 17.282,16.187 17.415,16.128 17.516 C 16.037 17.672,16.020 17.746,16.020 18.000 C 16.020 18.256,16.036 18.328,16.131 18.489 C 16.256 18.702,16.449 18.864,16.670 18.943 C 16.790 18.986,17.451 18.997,20.020 18.998 L 23.220 18.999 23.420 18.906 C 23.657 18.796,23.845 18.595,23.936 18.354 C 23.996 18.196,24.001 17.874,23.991 14.940 L 23.980 11.700 23.871 11.514 C 23.730 11.275,23.485 11.096,23.214 11.035 C 22.792 10.941,22.352 11.134,22.129 11.514 L 22.020 11.700 22.009 13.638 L 21.997 15.576 18.049 11.630 C 14.980 8.563,14.060 7.665,13.920 7.603 C 13.659 7.486,13.311 7.492,13.058 7.619 C 12.908 7.694,12.330 8.248,10.680 9.899 L 8.501 12.079 5.020 8.605 C 1.841 5.431,1.523 5.125,1.343 5.065 C 1.107 4.987,0.874 4.986,0.670 5.061 " stroke="none" fill-rule="evenodd" fill="black"></path></svg>