<svg fill="none" stroke="currentColor" stroke-linecap="round" stroke-linejoin="round" stroke-width="2" viewBox="0 0 24 24" xmlns="http://www.w3.org/2000/svg"><path d="M7.891 2.044 C 6.010 2.263,4.391 3.587,3.759 5.422 C 3.421 6.405,3.431 7.666,3.786 8.649 C 4.326 10.146,5.459 11.256,6.944 11.742 C 10.179 12.802,13.486 10.404,13.486 7.000 C 13.486 3.996,10.888 1.695,7.891 2.044 M9.271 4.095 C 10.331 4.387,11.204 5.292,11.421 6.323 C 11.499 6.695,11.496 7.332,11.415 7.692 C 11.163 8.812,10.250 9.701,9.111 9.936 C 7.936 10.179,6.755 9.715,6.054 8.734 C 5.684 8.216,5.520 7.683,5.520 7.000 C 5.520 6.186,5.766 5.543,6.299 4.965 C 6.670 4.562,7.322 4.179,7.800 4.084 C 7.921 4.060,8.056 4.032,8.100 4.022 C 8.252 3.987,9.061 4.037,9.271 4.095 M16.695 10.057 C 16.466 10.129,16.256 10.299,16.128 10.516 C 16.037 10.672,16.020 10.746,16.020 11.000 C 16.020 11.256,16.036 11.328,16.131 11.489 C 16.256 11.702,16.449 11.864,16.670 11.943 C 16.891 12.022,23.109 12.022,23.330 11.943 C 23.551 11.864,23.744 11.702,23.869 11.489 C 23.964 11.328,23.980 11.256,23.980 11.000 C 23.980 10.746,23.963 10.672,23.872 10.516 C 23.740 10.293,23.533 10.128,23.290 10.055 C 23.030 9.977,16.945 9.979,16.695 10.057 M4.400 14.044 C 2.761 14.229,1.261 15.290,0.526 16.785 C 0.333 17.177,0.187 17.599,0.093 18.040 C 0.030 18.334,0.020 18.579,0.020 19.843 L 0.020 21.306 0.141 21.503 C 0.543 22.156,1.457 22.156,1.859 21.503 L 1.980 21.307 2.004 19.883 C 2.030 18.292,2.041 18.218,2.320 17.660 C 2.690 16.923,3.393 16.337,4.178 16.112 L 4.500 16.020 8.500 16.020 L 12.500 16.020 12.822 16.112 C 13.785 16.388,14.580 17.173,14.876 18.139 C 14.969 18.446,14.975 18.522,14.997 19.883 L 15.020 21.307 15.141 21.503 C 15.543 22.156,16.457 22.156,16.859 21.503 L 16.980 21.306 16.980 19.843 C 16.980 18.579,16.970 18.334,16.907 18.040 C 16.625 16.721,15.863 15.576,14.800 14.874 C 14.046 14.375,13.396 14.135,12.552 14.043 C 12.085 13.991,4.854 13.993,4.400 14.044 " stroke="none" fill-rule="evenodd" fill="black"></path></svg>