<svg fill="none" stroke="currentColor" stroke-linecap="round" stroke-linejoin="round" stroke-width="2" viewBox="0 0 24 24" xmlns="http://www.w3.org/2000/svg"><path d="M10.647 4.072 C 10.540 4.114,9.553 4.877,8.061 6.070 L 5.650 8.000 3.771 8.000 C 1.732 8.000,1.664 8.006,1.382 8.221 C 1.302 8.282,1.187 8.415,1.128 8.516 L 1.020 8.700 1.009 11.912 C 1.002 14.005,1.012 15.177,1.039 15.276 C 1.099 15.498,1.290 15.739,1.508 15.867 L 1.700 15.980 3.677 15.991 L 5.654 16.003 8.032 17.906 C 9.341 18.953,10.476 19.848,10.555 19.895 C 10.668 19.961,10.765 19.980,11.000 19.980 C 11.257 19.980,11.327 19.964,11.492 19.867 C 11.709 19.739,11.901 19.498,11.961 19.278 C 11.987 19.179,11.997 16.668,11.990 11.914 L 11.980 4.700 11.872 4.516 C 11.619 4.086,11.096 3.896,10.647 4.072 M10.000 12.000 L 10.000 16.921 8.251 15.521 C 7.023 14.538,6.449 14.103,6.324 14.061 C 6.177 14.010,5.874 14.000,4.573 14.000 L 3.000 14.000 3.000 12.002 L 3.000 10.003 4.650 9.992 C 5.945 9.983,6.323 9.968,6.406 9.926 C 6.464 9.896,7.292 9.244,8.246 8.478 C 9.200 7.713,9.985 7.085,9.990 7.083 C 9.995 7.081,10.000 9.294,10.000 12.000 M16.670 8.061 C 16.448 8.142,16.250 8.309,16.128 8.516 C 16.036 8.672,16.020 8.745,16.021 9.000 C 16.021 9.213,16.043 9.341,16.095 9.440 C 16.136 9.517,16.711 10.125,17.374 10.790 L 18.578 12.000 17.374 13.210 C 16.711 13.876,16.138 14.481,16.101 14.555 C 15.872 15.009,16.056 15.601,16.508 15.867 C 16.673 15.964,16.742 15.980,17.000 15.979 C 17.213 15.979,17.341 15.957,17.440 15.905 C 17.517 15.864,18.125 15.289,18.790 14.626 L 20.000 13.422 21.210 14.626 C 21.876 15.289,22.481 15.862,22.555 15.899 C 23.009 16.128,23.601 15.944,23.867 15.492 C 23.964 15.327,23.980 15.258,23.979 15.000 C 23.979 14.787,23.957 14.659,23.905 14.560 C 23.864 14.483,23.289 13.876,22.626 13.210 L 21.422 12.000 22.626 10.790 C 23.289 10.125,23.864 9.517,23.905 9.440 C 23.957 9.341,23.979 9.213,23.979 9.000 C 23.980 8.745,23.964 8.672,23.872 8.516 C 23.618 8.084,23.137 7.905,22.657 8.066 C 22.484 8.124,22.312 8.279,21.230 9.354 L 20.000 10.576 18.770 9.354 C 17.688 8.279,17.516 8.124,17.343 8.066 C 17.108 7.987,16.875 7.985,16.670 8.061 " stroke="none" fill-rule="evenodd" fill="black"></path></svg>