<svg fill="none" stroke="currentColor" stroke-linecap="round" stroke-linejoin="round" stroke-width="2" viewBox="0 0 24 24" xmlns="http://www.w3.org/2000/svg"><path d="M11.200 4.024 C 10.635 4.062,9.942 4.129,9.560 4.183 C 6.475 4.620,3.451 5.975,1.080 7.983 C 0.893 8.141,0.700 8.314,0.652 8.366 C 0.433 8.602,0.366 9.056,0.500 9.390 C 0.592 9.618,0.906 9.897,1.136 9.955 C 1.560 10.062,1.836 9.968,2.320 9.552 C 4.245 7.900,6.709 6.732,9.260 6.261 C 10.267 6.074,10.815 6.028,12.000 6.028 C 13.185 6.028,13.733 6.074,14.740 6.261 C 17.291 6.732,19.755 7.900,21.680 9.552 C 22.164 9.968,22.440 10.062,22.862 9.955 C 23.086 9.899,23.366 9.656,23.481 9.418 C 23.640 9.090,23.580 8.616,23.348 8.366 C 23.300 8.314,23.107 8.141,22.920 7.983 C 20.621 6.036,17.716 4.705,14.714 4.223 C 13.767 4.071,11.991 3.970,11.200 4.024 M11.060 9.046 C 9.745 9.151,8.409 9.494,7.160 10.047 C 6.485 10.346,5.966 10.636,5.300 11.087 C 4.615 11.550,4.221 11.882,4.118 12.083 C 3.930 12.453,3.980 12.875,4.250 13.182 C 4.474 13.437,4.680 13.534,5.000 13.536 C 5.305 13.538,5.449 13.473,5.840 13.160 C 6.899 12.310,8.265 11.643,9.640 11.305 C 10.531 11.085,11.048 11.025,12.040 11.025 C 13.032 11.025,13.549 11.085,14.440 11.305 C 15.815 11.643,17.181 12.310,18.240 13.160 C 18.631 13.473,18.775 13.538,19.080 13.536 C 19.400 13.534,19.606 13.437,19.830 13.182 C 20.100 12.875,20.150 12.453,19.962 12.083 C 19.857 11.877,19.456 11.543,18.740 11.062 C 18.059 10.606,17.585 10.342,16.900 10.039 C 15.064 9.225,13.066 8.886,11.060 9.046 M11.300 14.039 C 10.162 14.161,9.115 14.534,8.172 15.154 C 7.754 15.429,7.622 15.594,7.551 15.931 C 7.511 16.125,7.514 16.188,7.577 16.388 C 7.677 16.706,7.934 16.963,8.252 17.063 C 8.576 17.165,8.833 17.107,9.237 16.843 C 10.507 16.010,12.021 15.790,13.480 16.226 C 13.845 16.335,14.403 16.596,14.686 16.790 C 15.042 17.034,15.205 17.097,15.480 17.098 C 15.692 17.099,15.778 17.078,15.946 16.985 C 16.423 16.722,16.611 16.129,16.367 15.655 C 16.266 15.458,16.132 15.335,15.771 15.105 C 15.012 14.623,14.086 14.261,13.246 14.118 C 12.718 14.027,11.769 13.989,11.300 14.039 M11.695 19.055 C 11.464 19.130,11.255 19.300,11.128 19.516 C 11.037 19.672,11.020 19.746,11.020 20.000 C 11.020 20.257,11.036 20.327,11.133 20.492 C 11.651 21.374,12.998 21.018,12.998 20.000 C 12.998 19.623,12.792 19.281,12.463 19.112 C 12.265 19.010,11.911 18.984,11.695 19.055 " stroke="none" fill-rule="evenodd" fill="black"></path></svg>