<svg fill="none" stroke="currentColor" stroke-linecap="round" stroke-linejoin="round" stroke-width="2" viewBox="0 0 24 24" xmlns="http://www.w3.org/2000/svg"><path d="M0.695 0.057 C 0.466 0.129,0.256 0.299,0.128 0.516 C 0.036 0.672,0.020 0.745,0.021 1.000 C 0.021 1.212,0.043 1.341,0.095 1.440 C 0.135 1.517,1.115 2.529,2.272 3.689 C 3.429 4.848,4.368 5.805,4.358 5.814 C 4.348 5.823,4.226 5.888,4.087 5.957 C 2.744 6.631,0.686 8.152,0.500 8.609 C 0.411 8.825,0.412 9.170,0.500 9.390 C 0.592 9.618,0.906 9.897,1.136 9.955 C 1.545 10.058,1.838 9.966,2.260 9.601 C 3.161 8.822,4.176 8.151,5.294 7.593 L 5.881 7.301 7.041 8.461 C 7.967 9.386,8.187 9.626,8.130 9.647 C 7.029 10.076,6.653 10.250,6.015 10.624 C 5.155 11.129,4.275 11.803,4.129 12.067 C 3.928 12.433,3.975 12.870,4.250 13.182 C 4.474 13.437,4.680 13.534,5.000 13.536 C 5.311 13.538,5.442 13.477,5.895 13.119 C 6.992 12.253,8.350 11.598,9.705 11.280 C 9.828 11.251,9.863 11.282,11.215 12.635 L 12.599 14.020 11.930 14.024 C 10.536 14.033,9.323 14.397,8.172 15.154 C 7.754 15.429,7.622 15.594,7.551 15.931 C 7.511 16.125,7.514 16.188,7.577 16.388 C 7.677 16.706,7.934 16.963,8.252 17.063 C 8.576 17.165,8.833 17.107,9.237 16.843 C 10.507 16.010,12.021 15.790,13.480 16.226 C 13.845 16.335,14.403 16.596,14.686 16.790 C 15.010 17.012,15.210 17.093,15.457 17.104 L 15.694 17.115 19.057 20.473 C 20.907 22.321,22.483 23.865,22.560 23.905 C 22.659 23.957,22.788 23.979,23.000 23.979 C 23.258 23.980,23.327 23.964,23.492 23.867 C 23.968 23.587,24.139 22.967,23.865 22.508 C 23.810 22.416,18.765 17.342,12.653 11.233 C 1.730 0.316,1.536 0.125,1.323 0.063 C 1.066 -0.012,0.919 -0.013,0.695 0.057 M10.854 4.038 C 10.393 4.074,10.149 4.167,9.975 4.373 C 9.552 4.874,9.667 5.577,10.231 5.927 C 10.379 6.019,10.388 6.020,11.780 6.024 C 13.240 6.027,13.653 6.059,14.680 6.244 C 17.201 6.697,19.771 7.912,21.679 9.551 C 22.163 9.967,22.439 10.062,22.862 9.955 C 23.086 9.899,23.366 9.656,23.481 9.418 C 23.640 9.090,23.580 8.616,23.348 8.366 C 23.063 8.058,22.024 7.251,21.316 6.788 C 19.073 5.320,16.597 4.430,13.840 4.101 C 13.222 4.027,11.467 3.990,10.854 4.038 M16.301 10.163 C 15.920 10.353,15.695 10.730,15.731 11.121 C 15.754 11.377,15.861 11.612,16.026 11.767 C 16.089 11.826,16.356 11.994,16.620 12.141 C 17.205 12.466,17.649 12.758,18.088 13.105 C 18.560 13.478,18.687 13.538,19.000 13.536 C 19.320 13.534,19.526 13.437,19.750 13.182 C 20.019 12.876,20.070 12.453,19.882 12.084 C 19.707 11.741,18.460 10.839,17.422 10.305 C 17.019 10.098,16.963 10.080,16.722 10.082 C 16.543 10.083,16.409 10.108,16.301 10.163 M11.695 19.055 C 11.464 19.130,11.255 19.300,11.128 19.516 C 11.037 19.672,11.020 19.746,11.020 20.000 C 11.020 20.257,11.036 20.327,11.133 20.492 C 11.651 21.374,12.998 21.018,12.998 20.000 C 12.998 19.623,12.792 19.281,12.463 19.112 C 12.265 19.010,11.911 18.984,11.695 19.055 " stroke="none" fill-rule="evenodd" fill="black"></path></svg>