<svg fill="none" viewBox="0 0 15 15" xmlns="http://www.w3.org/2000/svg"><path d="M6.962 1.325 L 5.788 2.500 6.962 3.675 L 8.137 4.850 8.494 4.494 L 8.850 4.138 8.281 3.568 L 7.713 2.999 7.863 3.013 C 8.702 3.095,9.270 3.247,9.913 3.563 C 12.260 4.717,13.459 7.307,12.825 9.853 C 12.732 10.230,12.607 10.562,12.412 10.950 C 11.686 12.398,10.367 13.451,8.798 13.834 C 7.951 14.040,7.049 14.040,6.202 13.834 C 5.614 13.691,4.975 13.412,4.472 13.081 C 3.343 12.336,2.496 11.146,2.175 9.853 C 2.063 9.406,2.023 9.084,2.007 8.519 L 1.993 8.000 1.493 8.000 L 0.993 8.000 1.007 8.569 C 1.028 9.376,1.105 9.835,1.340 10.550 C 1.790 11.918,2.686 13.086,3.909 13.902 C 4.770 14.476,5.685 14.812,6.775 14.953 C 7.081 14.993,7.919 14.993,8.225 14.953 C 9.315 14.812,10.230 14.476,11.091 13.902 C 12.680 12.843,13.679 11.232,13.955 9.287 C 13.997 8.987,13.997 8.006,13.954 7.700 C 13.788 6.512,13.378 5.506,12.686 4.585 C 11.865 3.491,10.627 2.637,9.315 2.260 C 8.972 2.161,8.453 2.061,8.162 2.039 C 8.053 2.030,7.908 2.017,7.840 2.009 L 7.718 1.994 8.284 1.428 L 8.850 0.862 8.494 0.506 L 8.137 0.150 6.962 1.325 " fill="currentColor" stroke="none" fill-rule="evenodd"></path></svg>