<svg fill="none" viewBox="0 0 15 15" xmlns="http://www.w3.org/2000/svg"><path d="M0.006 2.456 L 0.014 4.913 0.083 5.149 C 0.309 5.923,0.855 6.535,1.575 6.822 C 2.397 7.149,3.366 7.006,4.051 6.456 C 4.529 6.072,4.826 5.585,4.948 4.984 C 4.998 4.742,5.000 4.650,5.000 3.031 C 5.000 1.422,4.997 1.323,4.951 1.140 C 4.879 0.859,4.767 0.666,4.551 0.448 C 4.413 0.308,4.313 0.234,4.175 0.166 C 3.575 -0.128,2.913 -0.020,2.449 0.448 C 2.233 0.666,2.121 0.859,2.049 1.140 C 2.002 1.324,2.000 1.422,2.000 3.166 L 2.000 5.000 2.499 5.000 L 2.999 5.000 3.006 3.167 L 3.013 1.334 3.080 1.232 C 3.183 1.076,3.305 1.012,3.502 1.012 C 3.638 1.012,3.683 1.024,3.767 1.080 C 3.823 1.116,3.896 1.190,3.928 1.242 L 3.988 1.338 3.994 2.980 C 4.002 4.816,4.001 4.834,3.834 5.175 C 3.719 5.409,3.436 5.701,3.208 5.820 C 3.009 5.925,2.712 6.000,2.500 6.000 C 2.288 6.000,1.991 5.925,1.792 5.820 C 1.564 5.701,1.281 5.409,1.166 5.175 C 0.997 4.830,1.001 4.894,1.000 2.319 L 1.000 0.000 0.499 0.000 L -0.002 0.000 0.006 2.456 M5.993 2.481 C 5.985 4.904,5.983 4.968,5.932 5.195 C 5.773 5.889,5.492 6.421,5.026 6.908 C 4.610 7.342,4.159 7.632,3.624 7.810 C 3.119 7.978,3.086 7.981,1.994 7.993 L 1.000 8.004 1.000 10.835 C 1.000 13.573,1.002 13.673,1.049 13.860 C 1.122 14.143,1.233 14.334,1.449 14.551 C 1.666 14.767,1.857 14.878,2.140 14.951 C 2.329 14.999,2.436 15.000,7.500 15.000 C 12.564 15.000,12.671 14.999,12.860 14.951 C 13.143 14.878,13.334 14.767,13.551 14.551 C 13.767 14.334,13.878 14.143,13.951 13.860 C 13.999 13.670,14.000 13.560,14.000 7.500 C 14.000 1.440,13.999 1.330,13.951 1.140 C 13.879 0.859,13.767 0.666,13.551 0.448 C 13.413 0.308,13.313 0.234,13.175 0.166 C 12.822 -0.007,12.998 0.001,9.320 0.000 L 6.002 0.000 5.993 2.481 M11.000 4.500 L 11.000 5.000 9.000 5.000 L 7.000 5.000 7.000 4.500 L 7.000 4.000 9.000 4.000 L 11.000 4.000 11.000 4.500 M11.000 7.500 L 11.000 8.000 9.000 8.000 L 7.000 8.000 7.000 7.500 L 7.000 7.000 9.000 7.000 L 11.000 7.000 11.000 7.500 M11.000 10.500 L 11.000 11.000 7.500 11.000 L 4.000 11.000 4.000 10.500 L 4.000 10.000 7.500 10.000 L 11.000 10.000 11.000 10.500 " fill="currentColor" stroke="none" fill-rule="evenodd"></path></svg>