<svg fill="none" viewBox="0 0 15 15" xmlns="http://www.w3.org/2000/svg"><path d="M4.641 2.624 L 3.220 4.998 1.866 5.005 L 0.513 5.013 0.379 5.087 C 0.204 5.184,0.083 5.328,0.033 5.498 C -0.001 5.617,-0.005 5.749,0.007 6.449 C 0.022 7.316,0.060 7.842,0.164 8.625 C 0.428 10.613,1.016 12.577,1.896 14.403 C 2.016 14.652,2.072 14.740,2.163 14.820 C 2.385 15.015,1.925 15.000,7.500 15.000 C 13.074 15.000,12.615 15.015,12.837 14.820 C 12.929 14.740,12.985 14.651,13.116 14.378 C 14.032 12.477,14.633 10.402,14.873 8.311 C 14.957 7.584,14.976 7.282,14.992 6.438 C 15.005 5.745,15.002 5.619,14.967 5.499 C 14.917 5.328,14.797 5.184,14.621 5.087 L 14.488 5.013 13.134 5.005 L 11.780 4.998 10.362 2.630 C 9.583 1.328,8.941 0.259,8.937 0.254 C 8.929 0.246,8.136 0.712,8.092 0.750 C 8.081 0.760,8.637 1.706,9.326 2.852 C 10.016 3.998,10.586 4.950,10.593 4.968 C 10.603 4.994,10.020 5.000,7.503 5.000 C 5.796 5.000,4.400 4.993,4.400 4.985 C 4.400 4.977,4.964 4.029,5.654 2.879 C 6.343 1.729,6.911 0.780,6.916 0.772 C 6.923 0.759,6.098 0.250,6.070 0.250 C 6.066 0.250,5.422 1.318,4.641 2.624 " fill="currentColor" stroke="none" fill-rule="evenodd"></path></svg>