<svg fill="none" viewBox="0 0 15 15" xmlns="http://www.w3.org/2000/svg"><path d="M4.071 0.028 C 3.647 0.077,3.165 0.236,2.787 0.453 C 2.465 0.638,2.240 0.814,1.970 1.096 C 1.597 1.484,1.353 1.887,1.188 2.383 C 1.008 2.925,1.017 2.800,1.007 5.006 L 0.998 7.000 0.499 7.000 L 0.000 7.000 0.000 7.500 L 0.000 8.000 0.498 8.000 L 0.996 8.000 1.007 8.994 C 1.019 10.084,1.023 10.119,1.188 10.617 C 1.356 11.122,1.600 11.521,1.990 11.925 C 2.279 12.224,2.537 12.419,2.878 12.599 C 3.133 12.733,3.536 12.877,3.813 12.932 L 3.988 12.967 3.994 13.983 L 4.001 15.000 4.500 15.000 L 5.000 15.000 5.000 14.000 L 5.000 13.000 7.500 13.000 L 10.000 13.000 10.000 14.000 L 10.000 15.000 10.500 15.000 L 10.999 15.000 11.006 13.983 L 11.013 12.967 11.188 12.932 C 11.464 12.877,11.867 12.733,12.122 12.599 C 12.463 12.419,12.721 12.224,13.010 11.925 C 13.400 11.521,13.644 11.122,13.812 10.617 C 13.977 10.119,13.981 10.084,13.993 8.994 L 14.004 8.000 14.502 8.000 L 15.000 8.000 15.000 7.500 L 15.000 7.000 8.499 7.000 L 1.998 7.000 2.006 5.056 C 2.015 3.138,2.016 3.110,2.071 2.901 C 2.184 2.474,2.431 2.040,2.736 1.736 C 3.041 1.430,3.477 1.182,3.901 1.072 C 4.096 1.021,4.186 1.016,5.056 1.007 L 6.000 0.996 6.000 1.498 L 6.000 2.000 6.500 2.000 L 7.000 2.000 7.000 1.000 L 7.000 0.000 5.631 0.003 C 4.878 0.005,4.176 0.016,4.071 0.028 M5.000 3.500 L 5.000 4.000 6.500 4.000 L 8.000 4.000 8.000 3.500 L 8.000 3.000 6.500 3.000 L 5.000 3.000 5.000 3.500 " fill="currentColor" stroke="none" fill-rule="evenodd"></path></svg>