<svg fill="none" viewBox="0 0 15 15" xmlns="http://www.w3.org/2000/svg"><path d="M1.175 2.039 C 0.902 2.098,0.663 2.233,0.449 2.448 C 0.233 2.666,0.121 2.859,0.049 3.140 C 0.001 3.328,0.000 3.432,0.000 7.500 C 0.000 11.568,0.001 11.672,0.049 11.860 C 0.122 12.143,0.233 12.334,0.449 12.551 C 0.666 12.767,0.857 12.878,1.140 12.951 C 1.329 12.999,1.436 13.000,6.500 13.000 C 11.564 13.000,11.671 12.999,11.860 12.951 C 12.143 12.878,12.334 12.767,12.551 12.551 C 12.767 12.334,12.878 12.143,12.951 11.860 C 12.999 11.672,13.000 11.568,13.000 7.500 C 13.000 3.432,12.999 3.328,12.951 3.140 C 12.879 2.859,12.767 2.666,12.551 2.448 C 12.334 2.229,12.096 2.097,11.813 2.038 C 11.556 1.984,1.425 1.985,1.175 2.039 M3.000 7.500 L 3.000 11.000 2.500 11.000 L 2.000 11.000 2.000 7.500 L 2.000 4.000 2.500 4.000 L 3.000 4.000 3.000 7.500 M5.000 7.500 L 5.000 11.000 4.500 11.000 L 4.000 11.000 4.000 7.500 L 4.000 4.000 4.500 4.000 L 5.000 4.000 5.000 7.500 M14.000 7.500 L 14.000 10.000 14.500 10.000 L 15.000 10.000 15.000 7.500 L 15.000 5.000 14.500 5.000 L 14.000 5.000 14.000 7.500 " fill="currentColor" stroke="none" fill-rule="evenodd"></path></svg>