<svg fill="none" viewBox="0 0 15 15" xmlns="http://www.w3.org/2000/svg"><path d="M0.000 3.000 L 0.000 6.000 0.500 6.000 L 1.000 6.000 1.000 3.500 L 1.000 1.000 7.500 1.000 L 14.000 1.000 14.000 3.500 L 14.000 6.000 14.500 6.000 L 15.000 6.000 15.000 3.000 L 15.000 0.000 7.500 0.000 L 0.000 0.000 0.000 3.000 M2.000 5.500 L 2.000 6.000 4.000 6.000 L 6.000 6.000 6.000 5.500 L 6.000 5.000 4.000 5.000 L 2.000 5.000 2.000 5.500 M9.000 5.500 L 9.000 6.000 11.000 6.000 L 13.000 6.000 13.000 5.500 L 13.000 5.000 11.000 5.000 L 9.000 5.000 9.000 5.500 M0.000 11.000 L 0.000 15.000 0.500 15.000 L 1.000 15.000 1.000 13.000 L 1.000 11.000 7.500 11.000 L 14.000 11.000 14.000 13.000 L 14.000 15.000 14.500 15.000 L 15.000 15.000 15.000 11.000 L 15.000 7.000 7.500 7.000 L 0.000 7.000 0.000 11.000 " fill="currentColor" stroke="none" fill-rule="evenodd"></path></svg>