<svg fill="none" viewBox="0 0 15 15" xmlns="http://www.w3.org/2000/svg"><path d="M3.394 1.036 C 3.242 1.090,3.124 1.196,3.059 1.338 L 3.000 1.468 3.006 7.530 L 3.013 13.591 3.088 13.714 C 3.135 13.790,3.210 13.865,3.286 13.912 L 3.409 13.988 6.673 13.988 L 9.938 13.988 10.197 13.929 C 10.921 13.767,11.436 13.488,11.954 12.975 C 12.479 12.455,12.794 11.869,12.942 11.132 C 13.010 10.799,13.003 10.147,12.928 9.801 C 12.773 9.080,12.440 8.484,11.908 7.974 C 11.618 7.696,11.363 7.519,10.996 7.342 L 10.729 7.214 10.997 6.938 C 11.398 6.523,11.642 6.128,11.812 5.617 C 11.955 5.187,11.986 4.989,11.987 4.500 C 11.988 4.009,11.958 3.821,11.810 3.375 C 11.389 2.111,10.254 1.191,8.912 1.028 C 8.558 0.984,3.517 0.992,3.394 1.036 M9.099 2.071 C 9.527 2.184,9.960 2.431,10.264 2.736 C 10.575 3.047,10.823 3.485,10.929 3.914 C 11.008 4.232,11.008 4.768,10.929 5.086 C 10.707 5.980,10.027 6.673,9.128 6.921 L 8.888 6.987 6.444 6.994 L 4.000 7.001 4.000 4.500 L 4.000 1.998 6.444 2.006 C 8.884 2.014,8.888 2.015,9.099 2.071 M10.099 8.070 C 10.528 8.185,10.960 8.431,11.264 8.736 C 11.575 9.047,11.823 9.485,11.929 9.914 C 12.008 10.232,12.008 10.768,11.929 11.086 C 11.707 11.980,11.027 12.673,10.128 12.921 L 9.888 12.987 6.944 12.994 L 4.000 13.001 4.000 10.500 L 4.000 7.998 6.944 8.006 L 9.888 8.014 10.099 8.070 " fill="currentColor" stroke="none" fill-rule="evenodd"></path></svg>