<svg fill="none" viewBox="0 0 15 15" xmlns="http://www.w3.org/2000/svg"><path d="M3.145 0.027 C 2.788 0.079,2.391 0.236,2.082 0.445 C 1.603 0.770,1.255 1.261,1.082 1.855 L 1.014 2.087 1.006 4.544 L 0.998 7.000 0.499 7.000 L 0.000 7.000 0.000 7.500 L 0.000 8.000 0.499 8.000 L 0.998 8.000 1.006 10.456 L 1.014 12.913 1.083 13.149 C 1.357 14.090,2.073 14.756,3.016 14.948 C 3.244 14.995,3.359 15.000,4.135 15.000 L 5.000 15.000 5.000 14.500 L 5.000 14.000 4.166 14.000 C 3.234 14.000,3.102 13.983,2.792 13.820 C 2.564 13.701,2.281 13.409,2.166 13.175 C 1.990 12.815,2.001 13.191,2.001 7.500 C 2.001 1.809,1.990 2.185,2.166 1.825 C 2.293 1.567,2.567 1.293,2.825 1.166 C 3.132 1.016,3.255 1.001,4.181 1.000 L 5.000 1.000 5.000 0.500 L 5.000 0.000 4.144 0.003 C 3.673 0.005,3.224 0.015,3.145 0.027 M10.000 0.498 L 10.000 1.000 10.819 1.000 C 11.745 1.001,11.868 1.016,12.175 1.166 C 12.433 1.293,12.707 1.567,12.834 1.825 C 13.010 2.185,12.999 1.809,12.999 7.500 C 12.999 13.191,13.010 12.815,12.834 13.175 C 12.719 13.409,12.436 13.701,12.208 13.820 C 11.898 13.983,11.766 14.000,10.834 14.000 L 10.000 14.000 10.000 14.502 L 10.000 15.003 10.944 14.994 C 11.873 14.985,11.891 14.984,12.132 14.919 C 13.067 14.665,13.755 13.932,13.948 12.984 C 13.998 12.737,14.000 12.657,14.000 10.365 L 14.000 8.000 14.500 8.000 L 15.000 8.000 15.000 7.500 L 15.000 7.000 14.501 7.000 L 14.001 7.000 13.994 4.556 L 13.987 2.113 13.921 1.872 C 13.714 1.123,13.248 0.571,12.539 0.235 C 12.109 0.032,12.019 0.019,10.944 0.007 L 10.000 -0.004 10.000 0.498 " fill="currentColor" stroke="none" fill-rule="evenodd"></path></svg>