<svg fill="none" viewBox="0 0 15 15" xmlns="http://www.w3.org/2000/svg"><path d="M4.244 2.319 L 1.001 4.213 1.000 7.500 L 1.000 10.788 4.250 12.685 L 7.500 14.582 10.750 12.685 L 14.000 10.788 14.000 7.500 L 13.999 4.213 10.751 2.319 C 8.965 1.277,7.500 0.425,7.496 0.426 C 7.491 0.426,6.028 1.278,4.244 2.319 M6.995 4.074 C 7.300 4.136,7.533 4.220,7.931 4.410 L 8.225 4.550 8.001 4.999 L 7.776 5.448 7.446 5.288 C 7.086 5.112,6.821 5.037,6.473 5.010 C 5.726 4.952,4.938 5.315,4.476 5.928 C 4.299 6.162,4.179 6.403,4.084 6.713 C 4.017 6.930,4.015 6.957,4.015 7.500 C 4.015 8.042,4.017 8.071,4.084 8.287 C 4.320 9.061,4.860 9.630,5.588 9.872 C 5.887 9.971,6.177 10.011,6.473 9.992 C 6.807 9.971,7.059 9.898,7.444 9.712 L 7.776 9.552 8.001 10.002 L 8.227 10.453 7.895 10.612 C 7.284 10.904,6.775 11.018,6.200 10.992 C 5.324 10.953,4.541 10.600,3.941 9.974 C 3.478 9.492,3.192 8.943,3.057 8.280 C 3.022 8.109,3.013 7.940,3.014 7.488 C 3.015 6.988,3.022 6.878,3.071 6.655 C 3.217 5.982,3.528 5.421,4.023 4.942 C 4.571 4.412,5.200 4.117,6.000 4.016 C 6.197 3.991,6.745 4.023,6.995 4.074 M10.000 5.500 L 10.000 6.000 10.500 6.000 L 11.000 6.000 11.000 5.500 L 11.000 5.000 11.500 5.000 L 12.000 5.000 12.000 5.500 L 12.000 6.000 12.500 6.000 L 13.000 6.000 13.000 6.500 L 13.000 7.000 12.500 7.000 L 12.000 7.000 12.000 7.500 L 12.000 8.000 12.500 8.000 L 13.000 8.000 13.000 8.500 L 13.000 9.000 12.500 9.000 L 12.000 9.000 12.000 9.500 L 12.000 10.000 11.500 10.000 L 11.000 10.000 11.000 9.500 L 11.000 9.000 10.500 9.000 L 10.000 9.000 10.000 9.500 L 10.000 10.000 9.500 10.000 L 9.000 10.000 9.000 9.500 L 9.000 9.000 8.500 9.000 L 8.000 9.000 8.000 8.500 L 8.000 8.000 8.500 8.000 L 9.000 8.000 9.000 7.500 L 9.000 7.000 8.500 7.000 L 8.000 7.000 8.000 6.500 L 8.000 6.000 8.500 6.000 L 9.000 6.000 9.000 5.500 L 9.000 5.000 9.500 5.000 L 10.000 5.000 10.000 5.500 M10.000 7.500 L 10.000 8.000 10.500 8.000 L 11.000 8.000 11.000 7.500 L 11.000 7.000 10.500 7.000 L 10.000 7.000 10.000 7.500 " fill="currentColor" stroke="none" fill-rule="evenodd"></path></svg>