<svg fill="none" viewBox="0 0 15 15" xmlns="http://www.w3.org/2000/svg"><path d="M4.244 2.319 L 1.001 4.213 1.000 7.500 L 1.000 10.788 4.250 12.685 L 7.500 14.582 10.750 12.685 L 14.000 10.788 14.000 7.500 L 13.999 4.213 10.751 2.319 C 8.965 1.277,7.500 0.425,7.496 0.426 C 7.491 0.426,6.028 1.278,4.244 2.319 M8.412 4.076 C 9.064 4.213,9.630 4.497,10.141 4.944 L 10.355 5.132 9.998 5.489 L 9.641 5.847 9.494 5.711 C 9.187 5.427,8.762 5.196,8.338 5.084 C 8.111 5.024,8.043 5.017,7.613 5.015 C 7.055 5.013,6.844 5.053,6.461 5.235 C 5.751 5.571,5.289 6.118,5.081 6.868 C 5.021 7.085,5.014 7.155,5.014 7.500 C 5.014 7.846,5.021 7.914,5.082 8.136 C 5.297 8.910,5.848 9.533,6.575 9.822 C 6.678 9.863,6.881 9.921,7.025 9.951 C 7.389 10.026,7.970 10.011,8.326 9.918 C 8.780 9.799,9.171 9.588,9.496 9.288 L 9.654 9.141 10.008 9.497 L 10.363 9.854 10.188 10.014 C 9.695 10.467,9.137 10.758,8.463 10.915 C 8.183 10.980,8.124 10.985,7.613 10.986 C 6.999 10.988,6.844 10.966,6.376 10.810 C 5.841 10.632,5.389 10.341,4.974 9.908 C 4.504 9.417,4.216 8.869,4.071 8.192 C 3.993 7.828,3.993 7.172,4.071 6.808 C 4.215 6.132,4.504 5.583,4.972 5.094 C 5.454 4.592,5.988 4.277,6.646 4.110 C 6.992 4.022,7.213 4.002,7.713 4.013 C 8.043 4.020,8.229 4.037,8.412 4.076 " fill="currentColor" stroke="none" fill-rule="evenodd"></path></svg>