<svg fill="none" viewBox="0 0 15 15" xmlns="http://www.w3.org/2000/svg"><path d="M4.000 0.500 L 4.000 1.000 2.500 1.000 L 1.000 1.000 1.000 7.334 C 1.000 13.559,1.001 13.670,1.049 13.860 C 1.122 14.143,1.233 14.334,1.449 14.551 C 1.666 14.767,1.857 14.878,2.140 14.951 C 2.329 14.999,2.436 15.000,7.500 15.000 C 12.564 15.000,12.671 14.999,12.860 14.951 C 13.143 14.878,13.334 14.767,13.551 14.551 C 13.767 14.334,13.878 14.143,13.951 13.860 C 13.999 13.670,14.000 13.559,14.000 7.334 L 14.000 1.000 12.500 1.000 L 11.000 1.000 11.000 0.500 L 11.000 0.000 7.500 0.000 L 4.000 0.000 4.000 0.500 M9.995 1.833 L 9.988 2.666 9.920 2.768 C 9.884 2.823,9.810 2.896,9.758 2.928 L 9.663 2.988 7.500 2.988 L 5.338 2.988 5.242 2.928 C 5.190 2.896,5.116 2.823,5.080 2.768 L 5.013 2.666 5.005 1.833 L 4.997 1.000 7.500 1.000 L 10.003 1.000 9.995 1.833 M10.504 6.503 L 10.878 6.832 10.805 6.910 C 10.752 6.966,7.100 11.142,7.032 11.224 C 7.027 11.230,6.486 10.699,5.830 10.043 L 4.638 8.850 4.994 8.494 L 5.350 8.138 6.161 8.948 C 6.798 9.585,6.979 9.753,7.005 9.731 C 7.023 9.715,7.729 8.910,8.575 7.940 C 9.421 6.971,10.116 6.177,10.121 6.177 C 10.126 6.176,10.298 6.323,10.504 6.503 " fill="currentColor" stroke="none" fill-rule="evenodd"></path></svg>