<svg fill="none" viewBox="0 0 15 15" xmlns="http://www.w3.org/2000/svg"><path d="M9.175 0.039 C 8.902 0.098,8.663 0.233,8.449 0.448 C 8.233 0.666,8.121 0.859,8.049 1.140 C 8.005 1.313,8.000 1.418,8.000 2.166 L 8.000 3.000 4.681 3.000 C 1.002 3.001,1.178 2.993,0.825 3.166 C 0.687 3.234,0.587 3.308,0.449 3.448 C 0.233 3.666,0.121 3.859,0.049 4.140 C 0.001 4.327,0.000 4.428,0.000 7.500 C 0.000 10.572,0.001 10.673,0.049 10.860 C 0.122 11.143,0.233 11.334,0.449 11.551 C 0.666 11.767,0.857 11.878,1.140 11.951 C 1.325 11.998,1.424 12.000,3.666 12.000 L 6.000 12.000 6.000 13.000 L 6.000 14.000 5.000 14.000 L 4.000 14.000 4.000 14.500 L 4.000 15.000 8.834 15.000 C 13.565 15.000,13.671 14.999,13.860 14.951 C 14.143 14.878,14.334 14.767,14.551 14.551 C 14.767 14.334,14.878 14.143,14.951 13.860 C 14.999 13.670,15.000 13.560,15.000 7.500 C 15.000 1.440,14.999 1.330,14.951 1.140 C 14.879 0.859,14.767 0.666,14.551 0.448 C 14.334 0.229,14.096 0.097,13.813 0.038 C 13.560 -0.015,9.422 -0.014,9.175 0.039 M13.768 1.080 C 13.823 1.116,13.896 1.190,13.928 1.242 L 13.988 1.338 13.994 3.169 L 14.001 5.000 11.501 5.000 L 9.000 5.000 9.000 3.219 C 9.000 2.042,9.009 1.405,9.027 1.342 C 9.059 1.226,9.219 1.061,9.330 1.028 C 9.380 1.013,10.241 1.006,11.539 1.008 L 13.666 1.012 13.768 1.080 M13.994 9.833 L 13.988 13.666 13.920 13.768 C 13.884 13.823,13.810 13.896,13.758 13.928 L 13.663 13.988 11.498 13.988 L 9.334 13.988 9.233 13.920 C 9.177 13.884,9.104 13.810,9.072 13.758 L 9.013 13.663 9.006 9.831 L 8.999 6.000 11.500 6.000 L 14.001 6.000 13.994 9.833 M10.000 11.500 L 10.000 12.000 11.500 12.000 L 13.000 12.000 13.000 11.500 L 13.000 11.000 11.500 11.000 L 10.000 11.000 10.000 11.500 M8.000 12.831 C 8.001 13.470,8.009 13.697,8.037 13.813 C 8.057 13.895,8.074 13.971,8.074 13.981 C 8.075 13.992,7.833 14.000,7.538 14.000 L 7.000 14.000 7.000 13.000 L 7.000 12.000 7.500 12.000 L 8.000 12.000 8.000 12.831 " fill="currentColor" stroke="none" fill-rule="evenodd"></path></svg>