<svg fill="none" viewBox="0 0 15 15" xmlns="http://www.w3.org/2000/svg"><path d="M7.000 0.498 L 7.000 0.995 6.019 1.007 C 5.134 1.017,5.014 1.024,4.795 1.072 C 4.122 1.221,3.579 1.508,3.092 1.974 C 2.550 2.494,2.219 3.094,2.058 3.850 C 1.994 4.148,1.994 4.852,2.058 5.150 C 2.207 5.852,2.500 6.414,2.972 6.906 C 3.391 7.342,3.841 7.632,4.376 7.810 C 4.929 7.993,4.749 7.982,7.450 8.000 C 9.865 8.015,9.889 8.016,10.099 8.071 C 10.526 8.183,10.959 8.431,11.264 8.736 C 11.575 9.047,11.823 9.485,11.929 9.914 C 12.008 10.232,12.008 10.768,11.929 11.086 C 11.707 11.980,11.027 12.672,10.128 12.921 L 9.888 12.988 7.500 12.988 L 5.113 12.988 4.872 12.921 C 3.830 12.633,3.104 11.765,3.010 10.694 L 2.993 10.500 2.493 10.500 L 1.992 10.500 2.008 10.734 C 2.100 12.131,3.057 13.372,4.383 13.812 C 4.881 13.977,4.916 13.981,6.006 13.993 L 7.000 14.004 7.000 14.502 L 7.000 15.000 7.500 15.000 L 8.000 15.000 8.000 14.502 L 8.000 14.004 8.994 13.993 C 10.084 13.981,10.119 13.977,10.617 13.812 C 11.114 13.647,11.516 13.403,11.906 13.028 C 12.451 12.505,12.781 11.907,12.942 11.150 C 13.006 10.852,13.006 10.148,12.942 9.850 C 12.781 9.094,12.450 8.494,11.908 7.974 C 11.421 7.508,10.887 7.226,10.195 7.069 C 9.970 7.018,9.885 7.016,7.538 7.001 L 5.113 6.986 4.872 6.920 C 4.281 6.759,3.775 6.403,3.445 5.918 C 3.294 5.696,3.133 5.338,3.071 5.086 C 2.992 4.768,2.992 4.232,3.071 3.914 C 3.177 3.485,3.425 3.047,3.736 2.736 C 4.046 2.426,4.481 2.180,4.914 2.069 L 5.138 2.013 7.500 2.013 L 9.863 2.013 10.086 2.069 C 10.343 2.135,10.697 2.295,10.928 2.451 C 11.515 2.847,11.924 3.562,11.990 4.306 L 12.007 4.500 12.507 4.500 L 13.008 4.500 12.992 4.266 C 12.950 3.620,12.696 2.932,12.312 2.420 C 12.116 2.159,11.720 1.777,11.474 1.613 C 11.086 1.352,10.667 1.175,10.195 1.070 C 9.988 1.024,9.853 1.017,8.981 1.007 L 8.000 0.995 8.000 0.498 L 8.000 0.000 7.500 0.000 L 7.000 0.000 7.000 0.498 " fill="currentColor" stroke="none" fill-rule="evenodd"></path></svg>