<svg fill="none" viewBox="0 0 15 15" xmlns="http://www.w3.org/2000/svg"><path d="M7.000 0.016 C 4.798 0.180,2.835 1.244,1.508 2.994 C 0.749 3.994,0.277 5.135,0.068 6.475 C -0.008 6.965,-0.008 8.035,0.068 8.525 C 0.389 10.583,1.383 12.271,2.996 13.494 C 3.991 14.249,5.139 14.724,6.475 14.932 C 6.965 15.008,8.035 15.008,8.525 14.932 C 10.348 14.648,11.897 13.826,13.060 12.527 C 14.090 11.375,14.686 10.102,14.932 8.525 C 15.008 8.035,15.008 6.965,14.932 6.475 C 14.724 5.139,14.249 3.991,13.494 2.996 C 12.254 1.361,10.481 0.333,8.438 0.062 C 8.145 0.023,7.275 -0.005,7.000 0.016 M6.863 5.150 L 7.212 5.500 6.212 6.500 L 5.213 7.500 6.213 8.500 L 7.212 9.500 6.856 9.856 L 6.500 10.212 5.144 8.856 L 3.788 7.500 5.137 6.150 C 5.880 5.408,6.493 4.800,6.500 4.800 C 6.507 4.800,6.670 4.958,6.863 5.150 M9.863 5.150 L 10.212 5.500 9.212 6.500 L 8.213 7.500 9.213 8.500 L 10.212 9.500 9.856 9.856 L 9.500 10.212 8.144 8.856 L 6.788 7.500 8.137 6.150 C 8.880 5.408,9.493 4.800,9.500 4.800 C 9.507 4.800,9.670 4.958,9.863 5.150 " fill="currentColor" stroke="none" fill-rule="evenodd"></path></svg>