<svg fill="none" viewBox="0 0 15 15" xmlns="http://www.w3.org/2000/svg"><path d="M6.994 5.173 L 6.988 9.346 5.800 8.248 C 5.147 7.645,4.601 7.153,4.587 7.157 C 4.547 7.166,3.920 7.847,3.929 7.872 C 3.934 7.883,4.742 8.636,5.725 9.545 L 7.513 11.196 9.187 9.523 L 10.862 7.850 10.506 7.494 L 10.150 7.138 9.075 8.213 L 8.000 9.287 8.000 5.144 L 8.000 1.000 7.500 1.000 L 7.000 1.000 6.994 5.173 M1.000 10.500 L 1.000 14.000 7.500 14.000 L 14.000 14.000 14.000 10.500 L 14.000 7.000 13.500 7.000 L 13.000 7.000 13.000 10.000 L 13.000 13.000 7.500 13.000 L 2.000 13.000 2.000 10.000 L 2.000 7.000 1.500 7.000 L 1.000 7.000 1.000 10.500 " fill="currentColor" stroke="none" fill-rule="evenodd"></path></svg>