<svg fill="none" viewBox="0 0 15 15" xmlns="http://www.w3.org/2000/svg"><path d="M1.000 3.000 L 1.000 5.000 1.500 5.000 L 2.000 5.000 2.000 3.856 L 2.000 2.713 3.569 4.281 L 5.138 5.850 5.494 5.494 L 5.850 5.138 4.281 3.569 L 2.713 2.000 3.856 2.000 L 5.000 2.000 5.000 1.500 L 5.000 1.000 3.000 1.000 L 1.000 1.000 1.000 3.000 M10.000 1.500 L 10.000 2.000 11.144 2.000 L 12.287 2.000 10.719 3.569 L 9.150 5.138 9.506 5.494 L 9.862 5.850 11.431 4.281 L 13.000 2.713 13.000 3.856 L 13.000 5.000 13.500 5.000 L 14.000 5.000 14.000 3.000 L 14.000 1.000 12.000 1.000 L 10.000 1.000 10.000 1.500 M3.569 10.719 L 2.000 12.287 2.000 11.144 L 2.000 10.000 1.500 10.000 L 1.000 10.000 1.000 12.000 L 1.000 14.000 3.000 14.000 L 5.000 14.000 5.000 13.500 L 5.000 13.000 3.856 13.000 L 2.713 13.000 4.287 11.425 L 5.862 9.850 5.513 9.500 C 5.320 9.308,5.157 9.150,5.150 9.150 C 5.143 9.150,4.432 9.856,3.569 10.719 M9.487 9.500 L 9.138 9.850 10.713 11.425 L 12.287 13.000 11.144 13.000 L 10.000 13.000 10.000 13.500 L 10.000 14.000 12.000 14.000 L 14.000 14.000 14.000 12.000 L 14.000 10.000 13.500 10.000 L 13.000 10.000 13.000 11.144 L 13.000 12.287 11.431 10.719 C 10.568 9.856,9.857 9.150,9.850 9.150 C 9.843 9.150,9.680 9.308,9.487 9.500 " fill="currentColor" stroke="none" fill-rule="evenodd"></path></svg>