<svg fill="none" viewBox="0 0 15 15" xmlns="http://www.w3.org/2000/svg"><path d="M3.371 0.016 C 3.343 0.024,3.324 0.066,3.314 0.145 C 3.306 0.210,3.052 2.400,2.750 5.013 C 2.448 7.625,2.194 9.808,2.185 9.863 C 2.176 9.925,2.179 9.953,2.193 9.938 C 2.206 9.924,3.052 8.182,4.074 6.066 L 5.932 2.219 4.872 1.160 C 4.275 0.563,3.774 0.082,3.725 0.058 C 3.636 0.016,3.447 -0.007,3.371 0.016 M7.285 2.058 C 7.135 2.130,7.112 2.160,6.880 2.588 C 6.735 2.852,4.469 7.515,3.921 8.675 L 3.773 8.988 3.984 8.775 C 5.202 7.549,8.925 3.765,8.925 3.753 C 8.925 3.744,8.680 3.372,8.381 2.926 C 7.789 2.042,7.776 2.028,7.528 2.007 C 7.443 2.000,7.379 2.013,7.285 2.058 M11.306 3.050 C 11.242 3.078,10.850 3.408,10.343 3.860 C 9.539 4.575,9.276 4.835,5.963 8.190 C 4.024 10.152,2.401 11.801,2.356 11.852 L 2.274 11.947 4.806 13.467 L 7.338 14.988 7.488 14.988 C 7.627 14.988,7.821 14.914,10.199 13.963 C 13.020 12.834,12.905 12.889,12.974 12.641 C 13.004 12.533,12.968 12.177,12.501 7.971 C 12.223 5.467,11.983 3.383,11.969 3.340 C 11.924 3.208,11.855 3.132,11.720 3.065 C 11.566 2.988,11.451 2.984,11.306 3.050 " fill="currentColor" stroke="none" fill-rule="evenodd"></path></svg>