<svg fill="none" viewBox="0 0 15 15" xmlns="http://www.w3.org/2000/svg"><path d="M2.283 0.061 C 2.058 0.166,1.957 0.395,2.024 0.650 C 2.051 0.753,2.231 0.939,4.170 2.881 L 6.286 4.999 4.307 5.006 L 2.329 5.013 2.223 5.088 C 2.164 5.129,2.090 5.212,2.058 5.273 L 2.000 5.383 2.000 7.473 C 2.000 8.887,2.009 9.595,2.027 9.663 C 2.051 9.749,2.399 10.108,4.621 12.332 C 6.360 14.073,7.220 14.917,7.289 14.951 C 7.505 15.056,7.768 14.982,7.913 14.777 L 7.988 14.671 7.994 12.836 L 8.001 11.001 10.334 10.994 L 12.666 10.988 12.768 10.920 C 12.958 10.794,13.036 10.580,12.976 10.350 C 12.949 10.247,12.769 10.061,10.830 8.119 L 8.714 6.001 10.688 5.994 L 12.663 5.988 12.758 5.928 C 12.810 5.896,12.884 5.823,12.920 5.767 L 12.988 5.666 12.988 3.000 L 12.988 0.334 12.920 0.233 C 12.884 0.177,12.810 0.104,12.758 0.072 L 12.663 0.013 7.538 0.006 L 2.413 0.000 2.283 0.061 " fill="currentColor" stroke="none" fill-rule="evenodd"></path></svg>