<svg fill="none" viewBox="0 0 15 15" xmlns="http://www.w3.org/2000/svg"><path d="M4.145 0.025 C 3.777 0.084,3.388 0.237,3.082 0.445 C 2.597 0.774,2.248 1.271,2.081 1.868 C 2.016 2.100,2.013 2.140,2.014 2.638 C 2.015 3.135,2.019 3.174,2.083 3.382 C 2.120 3.503,2.192 3.683,2.244 3.782 C 2.295 3.881,2.341 3.971,2.346 3.981 C 2.350 3.992,2.131 4.000,1.858 4.000 C 1.283 4.001,1.104 4.030,0.825 4.166 C 0.591 4.281,0.299 4.564,0.180 4.792 C 0.024 5.089,0.000 5.252,0.000 6.000 C 0.000 6.582,0.006 6.691,0.049 6.860 C 0.122 7.143,0.233 7.334,0.449 7.551 C 0.666 7.767,0.857 7.878,1.140 7.951 C 1.327 7.998,1.427 8.000,4.166 8.000 L 7.000 8.000 7.000 6.000 L 7.000 4.000 7.500 4.000 L 8.000 4.000 8.000 6.000 L 8.000 8.000 10.834 8.000 C 13.573 8.000,13.673 7.998,13.860 7.951 C 14.143 7.878,14.334 7.767,14.551 7.551 C 14.767 7.334,14.878 7.143,14.951 6.860 C 14.994 6.691,15.000 6.582,15.000 6.000 C 15.000 5.252,14.976 5.089,14.820 4.792 C 14.701 4.564,14.409 4.281,14.175 4.166 C 13.896 4.030,13.717 4.001,13.142 4.000 C 12.869 4.000,12.650 3.992,12.654 3.981 C 12.659 3.971,12.705 3.881,12.756 3.782 C 12.808 3.683,12.880 3.503,12.917 3.382 C 12.981 3.173,12.985 3.136,12.985 2.638 C 12.986 2.148,12.981 2.096,12.920 1.872 C 12.717 1.126,12.249 0.571,11.539 0.235 C 11.179 0.065,10.938 0.015,10.475 0.015 C 9.751 0.016,9.142 0.203,8.525 0.612 C 8.292 0.767,7.773 1.281,7.624 1.505 C 7.563 1.598,7.507 1.673,7.500 1.673 C 7.493 1.673,7.441 1.604,7.384 1.520 C 6.888 0.789,6.080 0.255,5.192 0.073 C 4.905 0.014,4.368 -0.010,4.145 0.025 M5.099 1.075 C 5.512 1.176,5.955 1.427,6.264 1.736 C 6.478 1.949,6.620 2.155,6.765 2.461 C 6.930 2.809,6.977 3.033,6.993 3.556 L 7.007 4.000 5.555 4.000 C 4.591 4.000,4.058 3.991,3.970 3.972 C 3.508 3.876,3.124 3.492,3.028 3.030 C 2.989 2.844,2.994 2.395,3.038 2.188 C 3.154 1.632,3.617 1.164,4.175 1.037 C 4.388 0.989,4.816 1.007,5.099 1.075 M10.813 1.038 C 11.375 1.156,11.844 1.625,11.962 2.188 C 12.006 2.395,12.011 2.844,11.972 3.030 C 11.876 3.492,11.492 3.876,11.030 3.972 C 10.942 3.991,10.409 4.000,9.445 4.000 L 7.993 4.000 8.007 3.556 C 8.023 3.033,8.070 2.809,8.235 2.461 C 8.380 2.155,8.522 1.949,8.736 1.736 C 9.287 1.185,10.143 0.897,10.813 1.038 M1.006 10.956 L 1.014 12.913 1.083 13.149 C 1.356 14.089,2.073 14.756,3.016 14.948 C 3.260 14.998,3.348 15.000,5.135 15.000 L 7.000 15.000 7.000 12.000 L 7.000 9.000 3.999 9.000 L 0.998 9.000 1.006 10.956 M8.000 12.001 L 8.000 15.002 9.944 14.994 L 11.888 14.987 12.132 14.920 C 13.070 14.662,13.755 13.932,13.948 12.984 C 13.998 12.740,14.000 12.652,14.000 10.865 L 14.000 9.000 11.000 9.000 L 8.000 9.000 8.000 12.001 " fill="currentColor" stroke="none" fill-rule="evenodd"></path></svg>