<svg fill="none" viewBox="0 0 15 15" xmlns="http://www.w3.org/2000/svg"><path d="M2.071 0.036 C 0.475 0.318,-0.433 2.014,0.212 3.506 C 0.514 4.205,1.137 4.730,1.894 4.925 L 2.000 4.952 2.000 7.500 L 2.000 10.048 1.894 10.074 C 1.715 10.118,1.397 10.253,1.216 10.360 C 0.761 10.632,0.397 11.051,0.192 11.540 C 0.007 11.979,-0.046 12.513,0.048 12.970 C 0.256 13.974,0.970 14.709,1.963 14.941 C 2.106 14.974,2.259 14.987,2.500 14.987 C 2.741 14.987,2.894 14.974,3.038 14.941 C 3.863 14.748,4.516 14.191,4.823 13.418 C 5.104 12.709,5.039 11.882,4.649 11.226 C 4.440 10.874,4.138 10.573,3.782 10.360 C 3.607 10.255,3.293 10.122,3.106 10.075 L 3.000 10.048 3.000 9.525 L 3.000 9.001 6.494 8.993 C 10.385 8.984,10.054 8.999,10.624 8.810 C 11.640 8.472,12.473 7.637,12.812 6.617 C 12.953 6.192,12.978 6.034,12.993 5.469 L 13.006 4.950 13.109 4.924 C 13.431 4.844,13.788 4.666,14.067 4.445 C 14.774 3.888,15.133 2.908,14.952 2.030 C 14.781 1.203,14.305 0.598,13.540 0.236 C 13.187 0.068,12.936 0.015,12.500 0.015 C 12.064 0.015,11.813 0.068,11.461 0.235 C 11.148 0.383,10.947 0.523,10.725 0.748 C 10.374 1.102,10.154 1.517,10.049 2.025 C 9.929 2.603,10.043 3.255,10.355 3.780 C 10.685 4.336,11.266 4.768,11.897 4.926 L 12.006 4.954 11.993 5.421 C 11.977 5.968,11.933 6.184,11.765 6.539 C 11.429 7.248,10.877 7.714,10.128 7.921 L 9.888 7.988 6.444 7.994 L 3.000 8.001 3.000 6.476 L 3.000 4.952 3.106 4.925 C 4.056 4.687,4.795 3.894,4.963 2.932 C 5.186 1.653,4.385 0.409,3.130 0.084 C 2.829 0.006,2.359 -0.015,2.071 0.036 " fill="currentColor" stroke="none" fill-rule="evenodd"></path></svg>