<svg fill="none" viewBox="0 0 15 15" xmlns="http://www.w3.org/2000/svg"><path d="M7.213 0.441 C 7.020 0.489,6.830 0.568,6.695 0.655 C 6.604 0.713,6.318 0.974,6.018 1.271 L 5.499 1.786 6.177 2.465 L 6.855 3.143 7.029 3.083 C 7.860 2.794,8.780 3.325,8.965 4.200 C 9.016 4.440,8.998 4.734,8.919 4.971 L 8.860 5.148 9.361 5.645 L 9.863 6.143 10.034 6.083 C 10.850 5.794,11.782 6.328,11.962 7.188 C 12.069 7.696,11.924 8.181,11.552 8.552 C 10.943 9.160,10.004 9.147,9.412 8.521 C 9.036 8.123,8.908 7.545,9.081 7.029 L 9.140 6.852 8.639 6.355 C 8.154 5.874,8.135 5.858,8.069 5.884 L 8.000 5.910 8.001 7.499 L 8.003 9.088 8.183 9.173 C 8.432 9.291,8.708 9.567,8.834 9.825 C 9.128 10.425,9.021 11.081,8.553 11.549 C 8.334 11.768,8.144 11.878,7.860 11.951 C 7.615 12.013,7.385 12.013,7.140 11.951 C 6.859 11.879,6.666 11.767,6.448 11.551 C 5.980 11.087,5.872 10.425,6.166 9.825 C 6.292 9.567,6.568 9.291,6.817 9.173 L 6.997 9.088 6.997 7.500 L 6.997 5.913 6.817 5.827 C 6.568 5.709,6.292 5.433,6.166 5.175 C 5.987 4.809,5.957 4.400,6.081 4.029 L 6.140 3.853 5.464 3.176 L 4.787 2.500 2.771 4.519 C 1.318 5.973,0.726 6.582,0.652 6.698 C 0.335 7.195,0.343 7.839,0.674 8.330 C 0.848 8.588,6.465 14.200,6.698 14.348 C 7.181 14.656,7.819 14.656,8.302 14.348 C 8.535 14.200,14.152 8.588,14.326 8.330 C 14.666 7.825,14.666 7.175,14.326 6.670 C 14.167 6.434,8.509 0.778,8.304 0.650 C 8.059 0.497,7.871 0.444,7.550 0.435 C 7.392 0.431,7.240 0.434,7.213 0.441 " fill="currentColor" stroke="none" fill-rule="evenodd"></path></svg>