<svg fill="none" viewBox="0 0 15 15" xmlns="http://www.w3.org/2000/svg"><path d="M3.000 2.500 L 3.000 5.000 7.500 5.000 L 12.000 5.000 12.000 2.500 L 12.000 0.000 7.500 0.000 L 3.000 0.000 3.000 2.500 M6.000 2.500 L 6.000 3.000 5.500 3.000 L 5.000 3.000 5.000 2.500 L 5.000 2.000 5.500 2.000 L 6.000 2.000 6.000 2.500 M10.000 2.500 L 10.000 3.000 9.500 3.000 L 9.000 3.000 9.000 2.500 L 9.000 2.000 9.500 2.000 L 10.000 2.000 10.000 2.500 M2.000 7.906 L 2.000 9.813 3.000 10.313 L 4.000 10.812 4.000 11.906 L 4.000 13.000 4.500 13.000 L 5.000 13.000 5.000 14.000 L 5.000 15.000 5.500 15.000 L 6.000 15.000 6.000 14.000 L 6.000 13.000 7.500 13.000 L 9.000 13.000 9.000 14.000 L 9.000 15.000 9.500 15.000 L 10.000 15.000 10.000 14.000 L 10.000 13.000 10.500 13.000 L 11.000 13.000 11.000 11.906 L 11.000 10.812 12.000 10.313 L 13.000 9.813 13.000 7.906 L 13.000 6.000 7.500 6.000 L 2.000 6.000 2.000 7.906 " fill="currentColor" stroke="none" fill-rule="evenodd"></path></svg>