<svg fill="none" viewBox="0 0 15 15" xmlns="http://www.w3.org/2000/svg"><path d="M7.000 0.016 C 4.798 0.180,2.835 1.244,1.508 2.994 C 0.750 3.993,0.283 5.120,0.067 6.475 C 0.015 6.800,0.013 6.886,0.013 8.850 L 0.013 10.888 0.082 11.136 C 0.345 12.079,1.067 12.755,2.016 12.948 C 2.660 13.079,3.149 12.953,3.551 12.551 C 3.767 12.334,3.878 12.143,3.951 11.860 C 3.998 11.675,4.000 11.576,4.000 9.500 C 4.000 7.424,3.998 7.325,3.951 7.140 C 3.879 6.859,3.767 6.666,3.551 6.448 C 3.228 6.122,2.849 5.981,2.371 6.009 C 2.005 6.030,1.719 6.107,1.384 6.274 L 1.095 6.419 1.112 6.303 C 1.142 6.100,1.294 5.539,1.388 5.284 C 1.628 4.633,2.068 3.872,2.521 3.327 C 3.817 1.767,5.904 0.872,7.906 1.021 C 8.130 1.037,8.410 1.067,8.530 1.086 C 10.602 1.427,12.389 2.741,13.311 4.603 C 13.586 5.158,13.819 5.844,13.888 6.303 L 13.905 6.419 13.616 6.274 C 13.281 6.107,12.995 6.030,12.629 6.009 C 12.151 5.981,11.772 6.122,11.449 6.448 C 11.233 6.666,11.121 6.859,11.049 7.140 C 11.002 7.325,11.000 7.424,11.000 9.500 C 11.000 11.576,11.002 11.675,11.049 11.860 C 11.077 11.966,11.135 12.123,11.180 12.208 C 11.286 12.411,11.589 12.714,11.793 12.821 L 11.949 12.902 11.901 13.029 C 11.822 13.237,11.697 13.421,11.525 13.584 C 11.328 13.769,11.120 13.884,10.860 13.951 C 10.680 13.997,10.580 14.000,9.334 14.000 L 8.000 14.000 8.000 14.501 L 8.000 15.003 9.456 14.994 C 10.876 14.985,10.917 14.983,11.100 14.929 C 11.513 14.806,11.794 14.664,12.083 14.430 C 12.297 14.256,12.422 14.116,12.589 13.862 C 12.748 13.619,12.823 13.455,12.901 13.174 L 12.961 12.961 13.174 12.901 C 13.455 12.823,13.619 12.748,13.862 12.589 C 14.408 12.230,14.737 11.768,14.931 11.088 L 14.988 10.888 14.988 8.888 C 14.988 6.762,14.986 6.722,14.860 6.072 C 14.442 3.904,13.083 2.033,11.134 0.942 C 10.318 0.486,9.418 0.192,8.438 0.062 C 8.145 0.023,7.275 -0.005,7.000 0.016 " fill="currentColor" stroke="none" fill-rule="evenodd"></path></svg>