<svg fill="none" viewBox="0 0 15 15" xmlns="http://www.w3.org/2000/svg"><path d="M6.927 0.026 C 5.636 0.151,4.446 0.630,3.425 1.436 C 3.169 1.638,2.597 2.216,2.396 2.475 C 1.602 3.500,1.155 4.626,1.026 5.921 C 1.012 6.064,0.999 6.833,0.999 7.634 L 0.997 9.088 0.817 9.173 C 0.551 9.299,0.281 9.576,0.152 9.854 C 0.099 9.968,0.043 10.122,0.028 10.195 C 0.009 10.284,0.000 10.875,0.000 11.997 C 0.000 13.578,0.003 13.677,0.049 13.860 C 0.122 14.143,0.233 14.334,0.449 14.551 C 0.666 14.767,0.857 14.878,1.140 14.951 C 1.309 14.994,1.418 15.000,2.000 15.000 C 2.582 15.000,2.691 14.994,2.860 14.951 C 3.143 14.878,3.334 14.767,3.551 14.551 C 3.767 14.334,3.878 14.143,3.951 13.860 C 3.997 13.677,4.000 13.578,4.000 12.000 C 4.000 10.422,3.997 10.323,3.951 10.140 C 3.879 9.859,3.767 9.666,3.551 9.448 C 3.224 9.118,2.901 9.001,2.319 9.000 L 2.000 9.000 2.000 7.644 C 2.000 6.896,2.012 6.158,2.026 6.000 C 2.201 4.092,3.364 2.407,5.090 1.561 C 7.189 0.532,9.727 0.957,11.385 2.615 C 12.292 3.522,12.857 4.726,12.974 6.000 C 12.988 6.158,13.000 6.896,13.000 7.644 L 13.000 9.000 12.681 9.000 C 12.099 9.001,11.776 9.118,11.449 9.448 C 11.233 9.666,11.121 9.859,11.049 10.140 C 11.003 10.323,11.000 10.422,11.000 12.000 C 11.000 13.578,11.003 13.677,11.049 13.860 C 11.122 14.143,11.233 14.334,11.449 14.551 C 11.666 14.767,11.857 14.878,12.140 14.951 C 12.309 14.994,12.418 15.000,13.000 15.000 C 13.748 15.000,13.911 14.976,14.208 14.820 C 14.431 14.703,14.718 14.409,14.832 14.181 C 15.003 13.836,15.003 13.840,14.995 11.913 L 14.988 10.188 14.922 10.019 C 14.772 9.635,14.503 9.327,14.180 9.172 L 14.006 9.088 13.994 7.475 C 13.985 6.138,13.976 5.818,13.942 5.605 C 13.749 4.396,13.327 3.409,12.603 2.475 C 12.402 2.215,11.830 1.637,11.575 1.436 C 11.058 1.027,10.315 0.609,9.716 0.388 C 9.374 0.262,8.870 0.137,8.459 0.075 C 8.059 0.016,7.290 -0.009,6.927 0.026 " fill="currentColor" stroke="none" fill-rule="evenodd"></path></svg>