<svg fill="none" viewBox="0 0 15 15" xmlns="http://www.w3.org/2000/svg"><path d="M7.000 2.000 L 7.000 4.000 4.181 4.000 C 1.054 4.001,1.175 3.995,0.825 4.166 C 0.566 4.293,0.292 4.567,0.167 4.825 C -0.011 5.191,0.000 4.912,0.000 8.989 C 0.000 12.570,0.001 12.672,0.049 12.860 C 0.122 13.143,0.233 13.334,0.449 13.551 C 0.666 13.767,0.857 13.878,1.140 13.951 C 1.330 13.999,1.440 14.000,7.500 14.000 C 13.560 14.000,13.670 13.999,13.860 13.951 C 14.143 13.878,14.334 13.767,14.551 13.551 C 14.767 13.334,14.878 13.143,14.951 12.860 C 14.999 12.672,15.000 12.570,15.000 9.000 C 15.000 5.430,14.999 5.328,14.951 5.140 C 14.879 4.859,14.767 4.666,14.551 4.448 C 14.413 4.308,14.313 4.234,14.175 4.166 C 13.825 3.995,13.946 4.001,10.819 4.000 L 8.000 4.000 8.000 2.000 L 8.000 0.000 7.500 0.000 L 7.000 0.000 7.000 2.000 M5.000 6.500 L 5.000 7.000 4.500 7.000 L 4.000 7.000 4.000 6.500 L 4.000 6.000 4.500 6.000 L 5.000 6.000 5.000 6.500 M8.000 6.500 L 8.000 7.000 7.500 7.000 L 7.000 7.000 7.000 6.500 L 7.000 6.000 7.500 6.000 L 8.000 6.000 8.000 6.500 M11.000 6.500 L 11.000 7.000 10.500 7.000 L 10.000 7.000 10.000 6.500 L 10.000 6.000 10.500 6.000 L 11.000 6.000 11.000 6.500 M5.000 8.500 L 5.000 9.000 4.500 9.000 L 4.000 9.000 4.000 8.500 L 4.000 8.000 4.500 8.000 L 5.000 8.000 5.000 8.500 M8.000 8.500 L 8.000 9.000 7.500 9.000 L 7.000 9.000 7.000 8.500 L 7.000 8.000 7.500 8.000 L 8.000 8.000 8.000 8.500 M11.000 8.500 L 11.000 9.000 10.500 9.000 L 10.000 9.000 10.000 8.500 L 10.000 8.000 10.500 8.000 L 11.000 8.000 11.000 8.500 M11.000 11.500 L 11.000 12.000 7.500 12.000 L 4.000 12.000 4.000 11.500 L 4.000 11.000 7.500 11.000 L 11.000 11.000 11.000 11.500 " fill="currentColor" stroke="none" fill-rule="evenodd"></path></svg>