<svg fill="none" viewBox="0 0 15 15" xmlns="http://www.w3.org/2000/svg"><path d="M4.000 2.000 L 4.000 4.000 3.500 4.000 L 3.000 4.000 3.000 5.812 L 3.000 7.625 4.094 9.812 L 5.187 12.000 5.594 12.000 L 6.000 12.000 6.000 13.500 L 6.000 15.000 6.500 15.000 L 7.000 15.000 7.000 13.500 L 7.000 12.000 7.500 12.000 L 8.000 12.000 8.000 13.500 L 8.000 15.000 8.500 15.000 L 9.000 15.000 9.000 13.500 L 9.000 12.000 9.406 12.000 L 9.813 12.000 10.906 9.812 L 12.000 7.625 12.000 5.812 L 12.000 4.000 11.500 4.000 L 11.000 4.000 11.000 2.000 L 11.000 0.000 10.000 0.000 L 9.000 0.000 9.000 1.500 L 9.000 3.000 7.500 3.000 L 6.000 3.000 6.000 1.500 L 6.000 0.000 5.000 0.000 L 4.000 0.000 4.000 2.000 M7.000 1.000 L 7.000 2.000 7.500 2.000 L 8.000 2.000 8.000 1.000 L 8.000 0.000 7.500 0.000 L 7.000 0.000 7.000 1.000 M9.000 5.319 C 8.999 6.792,8.994 6.848,8.834 7.175 C 8.719 7.409,8.436 7.701,8.208 7.820 C 8.009 7.925,7.712 8.000,7.500 8.000 C 7.288 8.000,6.991 7.925,6.792 7.820 C 6.564 7.701,6.281 7.409,6.166 7.175 C 6.006 6.848,6.001 6.792,6.000 5.319 L 6.000 4.000 7.500 4.000 L 9.000 4.000 9.000 5.319 M7.000 5.809 C 7.000 6.607,7.001 6.619,7.058 6.727 C 7.090 6.788,7.164 6.871,7.223 6.913 C 7.315 6.978,7.351 6.988,7.496 6.988 C 7.695 6.988,7.816 6.925,7.920 6.768 L 7.988 6.666 7.995 5.833 L 8.003 5.000 7.501 5.000 L 7.000 5.000 7.000 5.809 M9.000 9.500 L 9.000 10.000 7.500 10.000 L 6.000 10.000 6.000 9.500 L 6.000 9.000 7.500 9.000 L 9.000 9.000 9.000 9.500 " fill="currentColor" stroke="none" fill-rule="evenodd"></path></svg>