<svg fill="none" viewBox="0 0 15 15" xmlns="http://www.w3.org/2000/svg"><path d="M5.175 0.039 C 4.902 0.098,4.663 0.233,4.449 0.448 C 4.233 0.666,4.121 0.859,4.049 1.140 C 4.003 1.320,4.000 1.420,4.000 2.666 L 4.000 4.000 2.681 4.000 C 1.208 4.001,1.152 4.006,0.825 4.166 C 0.687 4.234,0.587 4.308,0.449 4.448 C 0.233 4.666,0.121 4.859,0.049 5.140 C 0.001 5.328,0.000 5.432,0.000 9.500 C 0.000 13.568,0.001 13.672,0.049 13.860 C 0.122 14.143,0.233 14.334,0.449 14.551 C 0.666 14.767,0.857 14.878,1.140 14.951 C 1.328 14.999,1.432 15.000,5.500 15.000 C 9.568 15.000,9.672 14.999,9.860 14.951 C 10.143 14.878,10.334 14.767,10.551 14.551 C 10.767 14.334,10.878 14.143,10.951 13.860 C 10.997 13.680,11.000 13.580,11.000 12.334 L 11.000 11.000 12.334 11.000 C 13.580 11.000,13.680 10.997,13.860 10.951 C 14.143 10.878,14.334 10.767,14.551 10.551 C 14.767 10.334,14.878 10.143,14.951 9.860 C 14.999 9.672,15.000 9.568,15.000 5.500 C 15.000 1.432,14.999 1.328,14.951 1.140 C 14.879 0.859,14.767 0.666,14.551 0.448 C 14.334 0.229,14.096 0.097,13.813 0.038 C 13.557 -0.016,5.424 -0.015,5.175 0.039 M13.758 1.072 C 13.810 1.104,13.884 1.177,13.920 1.233 L 13.988 1.334 13.988 5.498 L 13.988 9.663 13.928 9.758 C 13.896 9.810,13.823 9.884,13.768 9.920 L 13.666 9.988 12.333 9.995 L 11.000 10.002 11.000 7.667 C 11.000 5.425,10.998 5.325,10.951 5.140 C 10.879 4.859,10.767 4.666,10.551 4.448 C 10.413 4.308,10.313 4.234,10.175 4.166 C 9.830 3.997,9.894 4.001,7.319 4.000 L 5.000 4.000 5.000 2.719 C 5.000 1.894,5.010 1.404,5.027 1.342 C 5.059 1.226,5.219 1.060,5.330 1.028 C 5.381 1.013,6.980 1.006,9.537 1.008 L 13.663 1.012 13.758 1.072 M4.000 7.334 C 4.000 9.576,4.002 9.675,4.049 9.860 C 4.122 10.143,4.233 10.334,4.449 10.551 C 4.666 10.767,4.857 10.878,5.140 10.951 C 5.325 10.998,5.425 11.000,7.667 11.000 L 10.002 11.000 9.995 12.331 L 9.988 13.663 9.928 13.758 C 9.896 13.810,9.823 13.884,9.767 13.920 L 9.666 13.988 5.500 13.988 L 1.334 13.988 1.233 13.920 C 1.177 13.884,1.104 13.810,1.072 13.758 L 1.012 13.663 1.006 9.554 C 1.001 6.708,1.008 5.415,1.026 5.346 C 1.058 5.226,1.216 5.061,1.330 5.028 C 1.377 5.015,1.973 5.004,2.706 5.002 L 4.000 5.000 4.000 7.334 " fill="currentColor" stroke="none" fill-rule="evenodd"></path></svg>