<svg fill="none" viewBox="0 0 15 15" xmlns="http://www.w3.org/2000/svg"><path d="M5.175 0.039 C 4.902 0.098,4.663 0.233,4.449 0.448 C 4.233 0.666,4.121 0.859,4.049 1.140 C 4.002 1.324,4.000 1.422,4.000 3.166 L 4.000 5.000 7.500 5.000 L 11.000 5.000 11.000 3.166 C 11.000 1.422,10.998 1.324,10.951 1.140 C 10.879 0.859,10.767 0.666,10.551 0.448 C 10.334 0.229,10.096 0.097,9.813 0.038 C 9.560 -0.015,5.422 -0.014,5.175 0.039 M9.000 2.500 L 9.000 3.000 7.500 3.000 L 6.000 3.000 6.000 2.500 L 6.000 2.000 7.500 2.000 L 9.000 2.000 9.000 2.500 M3.000 8.834 C 3.000 11.573,3.002 11.673,3.049 11.860 C 3.122 12.143,3.233 12.334,3.449 12.551 C 3.783 12.884,4.096 13.000,4.666 13.000 L 5.000 13.000 5.000 14.000 L 5.000 15.000 5.500 15.000 L 6.000 15.000 6.000 14.000 L 6.000 13.000 7.500 13.000 L 9.000 13.000 9.000 14.000 L 9.000 15.000 9.500 15.000 L 10.000 15.000 10.000 14.000 L 10.000 13.000 10.334 13.000 C 10.904 13.000,11.217 12.884,11.551 12.551 C 11.767 12.334,11.878 12.143,11.951 11.860 C 11.998 11.673,12.000 11.573,12.000 8.834 L 12.000 6.000 7.500 6.000 L 3.000 6.000 3.000 8.834 " fill="currentColor" stroke="none" fill-rule="evenodd"></path></svg>