<svg fill="none" viewBox="0 0 15 15" xmlns="http://www.w3.org/2000/svg"><path d="M3.000 1.500 L 3.000 3.000 7.500 3.000 L 12.000 3.000 12.000 1.500 L 12.000 0.000 7.500 0.000 L 3.000 0.000 3.000 1.500 M1.000 7.000 L 1.000 10.000 2.500 10.000 L 4.000 10.000 4.000 11.000 L 4.000 12.000 4.500 12.000 L 5.000 12.000 5.000 13.500 L 5.000 15.000 5.500 15.000 L 6.000 15.000 6.000 13.500 L 6.000 12.000 7.500 12.000 L 9.000 12.000 9.000 13.500 L 9.000 15.000 9.500 15.000 L 10.000 15.000 10.000 13.500 L 10.000 12.000 10.500 12.000 L 11.000 12.000 11.000 11.000 L 11.000 10.000 12.500 10.000 L 14.000 10.000 14.000 7.000 L 14.000 4.000 7.500 4.000 L 1.000 4.000 1.000 7.000 " fill="currentColor" stroke="none" fill-rule="evenodd"></path></svg>