<svg fill="none" viewBox="0 0 15 15" xmlns="http://www.w3.org/2000/svg"><path d="M1.175 2.039 C 0.636 2.155,0.179 2.606,0.038 3.162 C 0.005 3.292,-0.000 3.839,0.000 7.489 C 0.000 11.568,0.001 11.672,0.049 11.860 C 0.122 12.143,0.233 12.334,0.449 12.551 C 0.666 12.767,0.857 12.878,1.140 12.951 C 1.330 12.999,1.440 13.000,7.500 13.000 C 13.560 13.000,13.670 12.999,13.860 12.951 C 14.143 12.878,14.334 12.767,14.551 12.551 C 14.767 12.334,14.878 12.143,14.951 11.860 C 14.999 11.672,15.000 11.568,15.000 7.500 C 15.000 3.432,14.999 3.328,14.951 3.140 C 14.879 2.859,14.767 2.666,14.551 2.448 C 14.334 2.229,14.096 2.097,13.813 2.038 C 13.556 1.984,1.425 1.985,1.175 2.039 M2.756 5.077 C 2.801 5.107,3.212 5.505,3.669 5.960 L 4.500 6.787 5.344 5.948 C 5.808 5.486,6.221 5.087,6.263 5.061 C 6.317 5.027,6.384 5.013,6.504 5.013 C 6.649 5.013,6.684 5.022,6.777 5.088 C 6.835 5.129,6.907 5.208,6.935 5.263 C 6.987 5.362,6.988 5.385,6.994 7.681 L 7.001 10.000 6.500 10.000 L 6.000 10.000 6.000 8.356 L 6.000 6.713 5.250 7.463 L 4.500 8.212 3.750 7.463 L 3.000 6.713 3.000 8.356 L 3.000 10.000 2.500 10.000 L 2.000 10.000 2.000 7.722 C 2.000 5.995,2.007 5.419,2.031 5.341 C 2.067 5.218,2.217 5.061,2.330 5.027 C 2.455 4.989,2.662 5.013,2.756 5.077 M11.000 6.644 L 11.000 8.287 11.576 7.712 L 12.152 7.138 12.505 7.496 L 12.857 7.855 11.847 8.866 C 11.292 9.422,10.798 9.902,10.750 9.932 C 10.627 10.010,10.373 10.010,10.250 9.932 C 10.202 9.902,9.707 9.421,9.150 8.864 L 8.138 7.850 8.494 7.494 L 8.850 7.138 9.425 7.712 L 10.000 8.287 10.000 6.644 L 10.000 5.000 10.500 5.000 L 11.000 5.000 11.000 6.644 " fill="currentColor" stroke="none" fill-rule="evenodd"></path></svg>