<svg fill="none" viewBox="0 0 15 15" xmlns="http://www.w3.org/2000/svg"><path d="M1.175 0.039 C 0.902 0.098,0.663 0.233,0.449 0.448 C 0.233 0.666,0.121 0.859,0.049 1.140 C 0.001 1.329,0.000 1.434,0.000 6.000 C 0.000 10.583,0.001 10.671,0.050 10.862 C 0.177 11.358,0.524 11.732,1.024 11.911 L 1.238 11.988 2.119 11.995 L 3.000 12.003 3.000 13.290 C 3.000 14.693,2.999 14.679,3.145 14.833 C 3.225 14.917,3.307 14.962,3.421 14.984 C 3.627 15.023,3.627 15.023,5.687 13.477 L 7.638 12.013 10.700 12.000 L 13.763 11.988 13.963 11.919 C 14.459 11.750,14.823 11.361,14.951 10.860 C 14.999 10.671,15.000 10.566,15.000 6.000 C 15.000 1.434,14.999 1.329,14.951 1.140 C 14.879 0.859,14.767 0.666,14.551 0.448 C 14.334 0.229,14.096 0.097,13.813 0.038 C 13.556 -0.016,1.425 -0.015,1.175 0.039 M11.000 4.500 L 11.000 5.000 7.500 5.000 L 4.000 5.000 4.000 4.500 L 4.000 4.000 7.500 4.000 L 11.000 4.000 11.000 4.500 M9.000 7.500 L 9.000 8.000 6.500 8.000 L 4.000 8.000 4.000 7.500 L 4.000 7.000 6.500 7.000 L 9.000 7.000 9.000 7.500 " fill="currentColor" stroke="none" fill-rule="evenodd"></path></svg>