<svg fill="none" viewBox="0 0 15 15" xmlns="http://www.w3.org/2000/svg"><path d="M7.265 1.526 C 7.102 1.567,6.877 1.703,6.764 1.829 C 6.402 2.231,6.417 2.820,6.799 3.201 C 7.101 3.503,7.533 3.581,7.915 3.403 C 8.136 3.299,8.283 3.154,8.394 2.929 C 8.482 2.750,8.488 2.727,8.488 2.500 C 8.488 2.273,8.482 2.250,8.394 2.071 C 8.225 1.729,7.925 1.529,7.556 1.511 C 7.450 1.506,7.319 1.513,7.265 1.526 M7.265 6.526 C 7.102 6.567,6.877 6.703,6.764 6.829 C 6.402 7.231,6.417 7.820,6.799 8.201 C 7.101 8.503,7.533 8.581,7.915 8.403 C 8.136 8.299,8.283 8.154,8.394 7.929 C 8.482 7.750,8.488 7.727,8.488 7.500 C 8.488 7.273,8.482 7.250,8.394 7.071 C 8.225 6.729,7.925 6.529,7.556 6.511 C 7.450 6.506,7.319 6.513,7.265 6.526 M7.265 11.526 C 7.102 11.567,6.877 11.703,6.764 11.829 C 6.402 12.231,6.417 12.820,6.799 13.201 C 7.101 13.503,7.533 13.581,7.915 13.403 C 8.136 13.299,8.283 13.154,8.394 12.929 C 8.482 12.750,8.488 12.727,8.488 12.500 C 8.488 12.273,8.482 12.250,8.394 12.071 C 8.225 11.729,7.925 11.529,7.556 11.511 C 7.450 11.506,7.319 11.513,7.265 11.526 " fill="currentColor" stroke="none" fill-rule="evenodd"></path></svg>