<svg fill="none" viewBox="0 0 15 15" xmlns="http://www.w3.org/2000/svg"><path d="M2.175 0.039 C 1.902 0.098,1.663 0.233,1.449 0.448 C 1.233 0.666,1.121 0.859,1.049 1.140 C 1.001 1.330,1.000 1.440,1.000 7.500 C 1.000 13.560,1.001 13.670,1.049 13.860 C 1.122 14.143,1.233 14.334,1.449 14.551 C 1.666 14.767,1.857 14.878,2.140 14.951 C 2.329 14.999,2.436 15.000,7.500 15.000 C 12.564 15.000,12.671 14.999,12.860 14.951 C 13.143 14.878,13.334 14.767,13.551 14.551 C 13.767 14.334,13.878 14.143,13.951 13.860 C 13.999 13.671,14.000 13.564,14.000 8.477 L 14.000 3.287 12.356 1.644 L 10.712 0.000 6.525 0.002 C 3.034 0.004,2.310 0.010,2.175 0.039 M2.756 6.077 C 2.801 6.107,2.987 6.280,3.169 6.460 L 3.500 6.787 3.844 6.448 C 4.033 6.261,4.221 6.087,4.263 6.061 C 4.317 6.027,4.384 6.013,4.504 6.013 C 4.649 6.013,4.684 6.022,4.777 6.088 C 4.835 6.129,4.907 6.208,4.935 6.263 C 4.987 6.362,4.988 6.385,4.994 8.681 L 5.001 11.000 4.500 11.000 L 4.000 11.000 4.000 9.357 L 4.000 7.713 3.750 7.963 L 3.500 8.212 3.250 7.963 L 3.000 7.713 3.000 9.357 L 3.000 11.000 2.500 11.000 L 2.000 11.000 2.000 8.722 C 2.000 6.995,2.007 6.419,2.031 6.341 C 2.067 6.218,2.217 6.061,2.330 6.027 C 2.455 5.989,2.662 6.013,2.756 6.077 M7.813 6.038 C 8.375 6.156,8.844 6.625,8.962 7.188 C 9.069 7.697,8.923 8.183,8.552 8.551 C 8.216 8.885,7.903 9.000,7.334 9.000 L 7.000 9.000 7.000 10.000 L 7.000 11.000 6.500 11.000 L 6.000 11.000 6.000 8.500 L 6.000 6.000 6.819 6.000 C 7.442 6.001,7.679 6.010,7.813 6.038 M12.715 6.060 C 12.861 6.128,12.935 6.218,12.979 6.384 C 13.036 6.597,13.001 6.665,12.451 7.398 L 11.955 8.060 12.159 8.159 C 12.409 8.280,12.696 8.555,12.820 8.792 C 13.132 9.387,13.026 10.081,12.552 10.551 C 12.334 10.767,12.141 10.879,11.860 10.951 C 11.687 10.995,11.582 11.000,10.834 11.000 L 10.000 11.000 10.000 10.501 L 10.000 10.003 10.831 9.995 C 11.656 9.988,11.663 9.987,11.758 9.928 C 11.810 9.896,11.884 9.823,11.920 9.767 C 11.976 9.683,11.988 9.638,11.988 9.502 C 11.988 9.305,11.924 9.183,11.768 9.080 C 11.671 9.016,11.649 9.013,11.252 9.000 C 10.875 8.988,10.829 8.982,10.744 8.929 C 10.626 8.856,10.560 8.764,10.521 8.616 C 10.464 8.404,10.501 8.332,11.027 7.631 L 11.500 7.000 10.750 7.000 L 10.000 7.000 10.000 6.500 L 10.000 6.000 11.294 6.000 L 12.588 6.000 12.715 6.060 M7.000 7.500 L 7.000 8.005 7.333 7.996 C 7.645 7.988,7.673 7.983,7.768 7.920 C 7.924 7.817,7.988 7.695,7.988 7.498 C 7.988 7.362,7.976 7.317,7.920 7.233 C 7.884 7.177,7.810 7.104,7.758 7.072 C 7.672 7.019,7.628 7.012,7.331 7.004 L 7.000 6.995 7.000 7.500 " fill="currentColor" stroke="none" fill-rule="evenodd"></path></svg>