<svg fill="none" viewBox="0 0 15 15" xmlns="http://www.w3.org/2000/svg"><path d="M3.071 0.028 C 2.646 0.078,2.148 0.244,1.763 0.466 C 1.031 0.886,0.444 1.599,0.181 2.388 C 0.001 2.924,0.013 2.652,0.013 6.488 C 0.013 10.340,0.000 10.053,0.190 10.624 C 0.528 11.640,1.362 12.473,2.383 12.812 C 2.923 12.992,2.862 12.988,4.863 12.988 L 6.663 12.988 6.758 12.928 C 6.810 12.896,6.884 12.823,6.920 12.767 L 6.988 12.666 6.988 6.502 L 6.988 0.338 6.928 0.242 C 6.896 0.190,6.823 0.116,6.768 0.080 L 6.666 0.013 4.964 0.009 C 4.028 0.007,3.176 0.016,3.071 0.028 M8.342 2.025 C 8.228 2.060,8.109 2.166,8.053 2.282 L 8.000 2.391 8.000 8.504 L 8.000 14.617 8.058 14.727 C 8.090 14.788,8.164 14.871,8.223 14.913 L 8.329 14.988 10.133 14.988 C 12.139 14.988,12.077 14.992,12.617 14.812 C 13.114 14.647,13.516 14.403,13.906 14.028 C 14.342 13.609,14.632 13.160,14.810 12.624 C 15.000 12.053,14.988 12.338,14.988 8.500 C 14.988 4.662,15.000 4.947,14.810 4.376 C 14.632 3.841,14.341 3.389,13.908 2.974 C 13.421 2.508,12.887 2.226,12.195 2.069 C 11.972 2.018,11.889 2.016,10.188 2.009 C 9.211 2.006,8.381 2.013,8.342 2.025 M3.813 3.038 C 4.375 3.156,4.844 3.625,4.962 4.188 C 5.069 4.697,4.923 5.183,4.552 5.551 C 4.334 5.767,4.141 5.879,3.860 5.951 C 3.507 6.041,3.124 5.994,2.792 5.820 C 2.564 5.701,2.281 5.409,2.166 5.175 C 1.872 4.575,1.980 3.916,2.448 3.448 C 2.819 3.076,3.303 2.931,3.813 3.038 M3.342 4.024 C 3.149 4.086,3.000 4.295,3.000 4.504 C 3.000 4.655,3.089 4.818,3.223 4.913 C 3.316 4.978,3.351 4.988,3.498 4.988 C 3.639 4.988,3.683 4.977,3.767 4.920 C 3.924 4.817,3.988 4.695,3.988 4.500 C 3.988 4.308,3.924 4.183,3.775 4.084 C 3.670 4.015,3.460 3.986,3.342 4.024 M11.813 9.038 C 12.375 9.156,12.844 9.625,12.962 10.188 C 13.069 10.697,12.923 11.183,12.552 11.551 C 12.334 11.767,12.141 11.879,11.860 11.951 C 11.507 12.041,11.124 11.994,10.792 11.820 C 10.564 11.701,10.281 11.409,10.166 11.175 C 9.872 10.575,9.980 9.916,10.448 9.448 C 10.819 9.076,11.303 8.931,11.813 9.038 M11.342 10.024 C 11.149 10.086,11.000 10.295,11.000 10.504 C 11.000 10.655,11.089 10.818,11.223 10.913 C 11.316 10.978,11.351 10.988,11.498 10.988 C 11.639 10.988,11.683 10.977,11.767 10.920 C 11.924 10.817,11.988 10.695,11.988 10.500 C 11.988 10.308,11.924 10.183,11.775 10.084 C 11.670 10.015,11.460 9.986,11.342 10.024 " fill="currentColor" stroke="none" fill-rule="evenodd"></path></svg>