<svg fill="none" viewBox="0 0 15 15" xmlns="http://www.w3.org/2000/svg"><path d="M4.244 2.319 L 1.001 4.213 1.000 7.500 L 1.000 10.788 1.503 11.081 L 2.005 11.374 3.034 10.960 C 3.600 10.732,4.130 10.510,4.213 10.467 C 4.410 10.364,4.715 10.059,4.820 9.858 C 4.865 9.773,4.923 9.616,4.951 9.510 C 4.998 9.324,5.000 9.224,5.000 6.659 L 5.000 4.000 5.501 4.000 L 6.002 4.000 5.994 6.769 L 5.986 9.537 5.930 9.749 C 5.784 10.296,5.448 10.806,5.018 11.133 C 4.767 11.324,4.613 11.399,3.808 11.725 C 3.222 11.961,3.110 12.014,3.145 12.038 C 3.168 12.054,4.158 12.633,5.344 13.324 L 7.500 14.581 10.750 12.685 L 14.000 10.790 14.000 7.501 L 13.999 4.213 10.753 2.319 C 8.968 1.277,7.503 0.425,7.498 0.426 C 7.492 0.426,6.028 1.278,4.244 2.319 M10.638 4.060 C 11.143 4.205,11.576 4.560,11.798 5.013 C 11.924 5.267,11.972 5.451,11.992 5.756 L 12.008 6.000 11.507 6.000 L 11.006 6.000 10.995 5.806 C 10.974 5.474,10.820 5.237,10.531 5.095 L 10.363 5.013 9.562 5.013 L 8.760 5.013 8.569 5.107 C 8.065 5.356,7.864 5.928,8.102 6.438 C 8.176 6.595,8.401 6.823,8.555 6.894 C 8.753 6.987,8.864 6.999,9.525 7.000 C 10.212 7.002,10.413 7.024,10.706 7.132 C 11.552 7.442,12.094 8.335,11.981 9.231 C 11.879 10.038,11.365 10.654,10.575 10.916 L 10.363 10.987 9.500 10.987 L 8.638 10.987 8.425 10.916 C 7.662 10.662,7.147 10.067,7.026 9.300 C 7.012 9.211,7.000 9.107,7.000 9.069 L 7.000 9.000 7.495 9.000 L 7.990 9.000 8.017 9.156 C 8.055 9.379,8.139 9.542,8.299 9.701 C 8.571 9.974,8.714 10.006,9.582 9.996 L 10.240 9.988 10.429 9.894 C 10.657 9.782,10.798 9.637,10.908 9.404 C 10.980 9.253,10.988 9.215,10.988 9.000 C 10.988 8.785,10.980 8.747,10.908 8.596 C 10.798 8.363,10.657 8.218,10.429 8.106 L 10.240 8.013 9.439 7.998 C 8.652 7.984,8.634 7.982,8.425 7.914 C 7.794 7.710,7.314 7.249,7.114 6.654 C 6.720 5.489,7.432 4.267,8.638 4.036 C 8.913 3.984,10.435 4.002,10.638 4.060 " fill="currentColor" stroke="none" fill-rule="evenodd"></path></svg>