<svg fill="none" viewBox="0 0 15 15" xmlns="http://www.w3.org/2000/svg"><path d="M2.175 0.039 C 1.902 0.098,1.663 0.233,1.449 0.448 C 1.233 0.666,1.121 0.859,1.049 1.140 C 1.001 1.330,1.000 1.440,1.000 7.500 C 1.000 13.560,1.001 13.670,1.049 13.860 C 1.122 14.143,1.233 14.334,1.449 14.551 C 1.666 14.767,1.857 14.878,2.140 14.951 C 2.329 14.999,2.436 15.000,7.500 15.000 C 12.564 15.000,12.671 14.999,12.860 14.951 C 13.143 14.878,13.334 14.767,13.551 14.551 C 13.767 14.334,13.878 14.143,13.951 13.860 C 13.999 13.671,14.000 13.564,14.000 8.477 L 14.000 3.287 12.356 1.644 L 10.712 0.000 6.525 0.002 C 3.034 0.004,2.310 0.010,2.175 0.039 M11.102 9.046 C 11.726 9.209,12.122 9.871,11.962 10.484 C 11.880 10.799,11.822 10.879,11.252 11.456 L 10.716 12.000 11.358 12.000 L 12.000 12.000 12.000 12.501 L 12.000 13.002 10.669 12.995 L 9.338 12.988 9.242 12.928 C 9.050 12.809,8.965 12.582,9.026 12.356 C 9.055 12.247,9.139 12.156,10.029 11.261 C 10.875 10.410,11.000 10.275,11.000 10.210 C 11.000 10.122,10.926 10.032,10.836 10.010 C 10.801 10.001,10.674 9.999,10.554 10.004 C 10.381 10.013,10.315 10.027,10.242 10.073 C 10.126 10.144,10.029 10.283,10.009 10.406 L 9.994 10.500 9.497 10.500 L 9.000 10.500 9.000 10.431 C 9.001 10.393,9.017 10.284,9.038 10.188 C 9.154 9.631,9.623 9.158,10.175 9.039 C 10.408 8.989,10.898 8.992,11.102 9.046 " fill="currentColor" stroke="none" fill-rule="evenodd"></path></svg>