<svg fill="none" viewBox="0 0 15 15" xmlns="http://www.w3.org/2000/svg"><path d="M3.338 0.030 C 3.225 0.071,3.134 0.141,3.078 0.232 C 3.047 0.283,2.461 2.581,1.512 6.376 C -0.154 13.035,-0.053 12.578,0.093 12.785 C 0.131 12.839,0.212 12.910,0.273 12.942 L 0.383 13.000 2.116 13.000 C 3.070 13.000,3.850 13.006,3.850 13.013 C 3.850 13.020,3.770 13.344,3.673 13.732 C 3.528 14.310,3.498 14.460,3.510 14.562 C 3.528 14.722,3.628 14.865,3.774 14.942 L 3.885 15.001 6.028 14.994 L 8.171 14.988 8.277 14.913 C 8.335 14.871,8.404 14.797,8.430 14.747 C 8.463 14.684,9.375 11.557,9.375 11.509 C 9.375 11.507,9.766 11.499,10.244 11.493 C 11.167 11.480,11.287 11.467,11.738 11.337 C 12.984 10.976,13.999 10.092,14.500 8.931 C 15.085 7.575,14.787 6.050,13.735 5.013 C 13.404 4.687,12.920 4.373,12.538 4.236 C 12.469 4.212,12.405 4.185,12.395 4.177 C 12.386 4.169,12.366 4.029,12.351 3.865 C 12.187 2.083,10.962 0.608,9.264 0.148 C 8.768 0.014,8.857 0.018,6.038 0.010 C 4.195 0.005,3.390 0.011,3.338 0.030 M8.537 1.026 C 9.762 1.165,10.820 2.036,11.209 3.228 C 11.268 3.408,11.350 3.825,11.350 3.942 L 11.350 3.999 8.856 4.006 C 6.468 4.012,6.358 4.015,6.267 4.060 C 6.057 4.164,6.124 3.937,5.073 8.135 L 4.109 11.988 2.630 11.994 C 1.816 11.997,1.150 11.995,1.150 11.988 C 1.150 11.971,3.873 1.072,3.887 1.031 C 3.902 0.991,8.187 0.986,8.537 1.026 M12.406 5.276 C 13.195 5.677,13.718 6.467,13.788 7.364 C 13.857 8.248,13.370 9.217,12.544 9.839 C 12.275 10.042,11.851 10.262,11.563 10.348 C 11.127 10.478,11.095 10.481,9.950 10.497 C 8.952 10.511,8.855 10.516,8.767 10.560 C 8.579 10.653,8.574 10.668,8.108 12.295 C 7.870 13.130,7.663 13.855,7.649 13.906 L 7.623 14.000 6.137 14.000 C 5.319 14.000,4.650 13.992,4.651 13.981 C 4.651 13.971,4.930 12.849,5.271 11.488 L 5.891 9.013 6.877 8.997 C 8.053 8.979,8.223 8.957,8.912 8.733 C 10.192 8.318,11.287 7.362,11.888 6.138 C 12.037 5.835,12.225 5.333,12.225 5.241 C 12.225 5.186,12.233 5.188,12.406 5.276 " fill="currentColor" stroke="none" fill-rule="evenodd"></path></svg>