<svg fill="none" viewBox="0 0 15 15" xmlns="http://www.w3.org/2000/svg"><path d="M2.000 0.406 C 2.000 0.969,2.043 1.336,2.164 1.827 C 2.404 2.797,2.910 3.684,3.631 4.399 L 3.870 4.636 2.888 6.599 L 1.906 8.563 4.447 11.611 L 6.988 14.660 6.994 11.830 L 7.000 9.000 7.500 9.000 L 8.000 9.000 8.006 11.830 L 8.013 14.660 10.553 11.611 L 13.094 8.563 12.112 6.599 L 11.130 4.636 11.368 4.399 C 11.987 3.785,12.442 3.056,12.710 2.250 C 12.911 1.647,13.000 1.075,13.000 0.385 L 13.000 0.000 7.500 0.000 L 2.000 0.000 2.000 0.406 " fill="currentColor" stroke="none" fill-rule="evenodd"></path></svg>