<svg fill="none" viewBox="0 0 15 15" xmlns="http://www.w3.org/2000/svg"><path d="M6.000 4.500 L 6.000 9.000 10.504 9.000 L 15.007 9.000 14.992 8.369 C 14.978 7.736,14.944 7.390,14.848 6.900 C 14.389 4.537,12.961 2.483,10.913 1.237 C 9.554 0.411,8.050 0.001,6.381 0.000 L 6.000 0.000 6.000 4.500 M4.688 2.259 C 3.690 2.553,2.747 3.097,2.015 3.799 C 1.085 4.691,0.420 5.876,0.149 7.125 C -0.040 7.995,-0.044 8.926,0.138 9.817 C 0.275 10.486,0.608 11.327,0.963 11.900 C 1.484 12.741,2.259 13.516,3.100 14.037 C 3.641 14.372,4.435 14.695,5.063 14.836 C 5.587 14.953,5.898 14.986,6.500 14.986 C 7.236 14.987,7.697 14.922,8.353 14.725 C 10.074 14.208,11.495 13.022,12.300 11.429 C 12.513 11.009,12.650 10.642,12.816 10.044 C 12.828 10.002,12.630 10.000,8.914 10.000 L 5.000 10.000 5.000 6.088 C 5.000 3.936,4.992 2.176,4.981 2.176 C 4.971 2.177,4.839 2.214,4.688 2.259 " fill="currentColor" stroke="none" fill-rule="evenodd"></path></svg>