<svg fill="none" viewBox="0 0 15 15" xmlns="http://www.w3.org/2000/svg"><path d="M11.025 0.028 C 9.773 0.168,8.633 0.817,7.894 1.811 C 7.352 2.540,7.049 3.392,7.008 4.307 L 6.992 4.652 6.784 4.429 C 6.400 4.017,5.970 3.703,5.442 3.449 C 4.947 3.210,4.515 3.089,3.945 3.026 C 3.796 3.010,2.982 3.000,1.850 3.000 L -0.003 3.000 0.007 5.031 C 0.018 7.228,0.013 7.133,0.161 7.690 C 0.565 9.207,1.823 10.451,3.356 10.850 C 3.879 10.986,4.088 11.000,5.614 11.000 L 7.000 11.000 7.000 13.000 L 7.000 15.000 7.500 15.000 L 8.000 15.000 8.000 11.500 L 8.000 8.000 9.385 8.000 C 10.936 8.000,11.149 7.985,11.685 7.837 C 13.438 7.355,14.727 5.875,14.960 4.077 C 14.994 3.820,15.000 3.463,15.000 1.885 L 15.000 0.000 13.106 0.003 C 12.065 0.005,11.128 0.016,11.025 0.028 M11.513 3.500 L 11.862 3.850 10.362 5.350 L 8.863 6.850 8.506 6.494 L 8.150 6.138 9.644 4.644 C 10.465 3.822,11.143 3.150,11.150 3.150 C 11.157 3.150,11.320 3.308,11.513 3.500 M5.356 7.644 L 6.850 9.138 6.494 9.494 L 6.137 9.850 4.638 8.350 L 3.138 6.850 3.487 6.500 C 3.680 6.308,3.843 6.150,3.850 6.150 C 3.857 6.150,4.535 6.822,5.356 7.644 " fill="currentColor" stroke="none" fill-rule="evenodd"></path></svg>