<svg fill="none" viewBox="0 0 15 15" xmlns="http://www.w3.org/2000/svg"><path d="M7.338 1.030 C 7.214 1.073,7.108 1.167,7.053 1.282 C 7.001 1.389,7.000 1.412,7.000 3.203 L 7.000 5.014 6.671 5.046 C 5.662 5.142,4.616 5.451,3.725 5.916 L 3.463 6.054 3.259 5.917 C 2.870 5.656,2.411 5.533,1.925 5.558 C 1.590 5.575,1.425 5.619,1.101 5.779 C 0.875 5.890,0.809 5.938,0.611 6.135 C 0.293 6.451,0.126 6.757,0.040 7.180 C -0.058 7.654,0.037 8.187,0.292 8.608 C 0.408 8.798,0.683 9.090,0.863 9.214 L 1.000 9.308 1.000 9.513 C 1.000 9.917,1.130 10.436,1.330 10.835 C 2.252 12.670,4.843 13.999,7.500 13.999 C 9.630 13.999,11.771 13.140,12.999 11.792 C 13.283 11.480,13.504 11.165,13.670 10.835 C 13.870 10.436,14.000 9.917,14.000 9.513 L 14.000 9.308 14.137 9.214 C 14.317 9.090,14.592 8.798,14.708 8.608 C 15.108 7.949,15.090 7.093,14.662 6.449 C 14.520 6.236,14.229 5.959,14.009 5.829 C 13.334 5.430,12.415 5.465,11.741 5.917 L 11.538 6.054 11.275 5.916 C 10.384 5.451,9.338 5.142,8.329 5.046 L 8.000 5.014 8.000 3.582 C 8.000 2.794,8.006 2.150,8.013 2.150 C 8.020 2.150,8.707 2.320,9.540 2.529 C 10.681 2.814,11.057 2.917,11.067 2.947 C 11.074 2.969,11.120 3.072,11.169 3.175 C 11.278 3.404,11.565 3.707,11.774 3.812 C 12.249 4.053,12.723 4.059,13.181 3.832 C 13.409 3.718,13.703 3.431,13.820 3.208 C 13.994 2.876,14.041 2.493,13.951 2.140 C 13.879 1.859,13.767 1.666,13.551 1.448 C 13.152 1.045,12.590 0.906,12.047 1.074 C 11.718 1.176,11.389 1.438,11.214 1.737 L 11.122 1.893 9.342 1.447 C 8.363 1.202,7.529 1.002,7.488 1.003 C 7.446 1.003,7.379 1.016,7.338 1.030 M12.784 2.092 C 12.922 2.190,12.988 2.326,12.987 2.513 C 12.986 2.783,12.811 2.968,12.533 2.992 C 12.412 3.002,12.369 2.994,12.275 2.944 C 11.974 2.783,11.912 2.388,12.150 2.150 C 12.268 2.032,12.367 1.998,12.549 2.012 C 12.646 2.019,12.713 2.042,12.784 2.092 M6.000 8.500 L 6.000 9.000 5.500 9.000 L 5.000 9.000 5.000 8.500 L 5.000 8.000 5.500 8.000 L 6.000 8.000 6.000 8.500 M10.000 8.500 L 10.000 9.000 9.500 9.000 L 9.000 9.000 9.000 8.500 L 9.000 8.000 9.500 8.000 L 10.000 8.000 10.000 8.500 M5.661 10.710 C 6.268 10.917,6.791 11.000,7.500 11.000 C 8.209 11.000,8.732 10.917,9.339 10.710 C 9.558 10.635,9.754 10.568,9.775 10.561 C 9.803 10.551,9.856 10.654,9.994 10.985 C 10.093 11.225,10.175 11.432,10.175 11.446 C 10.175 11.478,9.731 11.650,9.397 11.747 C 8.753 11.934,8.333 11.987,7.500 11.987 C 6.667 11.987,6.247 11.934,5.603 11.747 C 5.256 11.646,4.825 11.478,4.825 11.443 C 4.825 11.428,4.907 11.220,5.006 10.982 C 5.143 10.654,5.197 10.552,5.225 10.561 C 5.246 10.568,5.442 10.635,5.661 10.710 " fill="currentColor" stroke="none" fill-rule="evenodd"></path></svg>