<svg fill="none" viewBox="0 0 15 15" xmlns="http://www.w3.org/2000/svg"><path d="M7.000 0.016 C 4.798 0.180,2.835 1.244,1.508 2.994 C 0.749 3.994,0.277 5.135,0.068 6.475 C -0.008 6.965,-0.008 8.035,0.068 8.525 C 0.389 10.583,1.383 12.271,2.996 13.494 C 3.991 14.249,5.139 14.724,6.475 14.932 C 6.965 15.008,8.035 15.008,8.525 14.932 C 10.348 14.648,11.897 13.826,13.060 12.527 C 14.090 11.375,14.686 10.102,14.932 8.525 C 15.008 8.035,15.008 6.965,14.932 6.475 C 14.724 5.139,14.249 3.991,13.494 2.996 C 12.254 1.361,10.481 0.333,8.438 0.062 C 8.145 0.023,7.275 -0.005,7.000 0.016 M6.715 5.060 C 6.834 5.115,6.910 5.192,6.965 5.313 C 6.977 5.340,6.993 5.713,7.000 6.140 L 7.013 6.918 8.672 5.969 C 10.547 4.898,10.466 4.934,10.725 5.067 C 10.840 5.126,10.874 5.160,10.931 5.273 L 11.000 5.409 11.000 7.498 L 11.000 9.588 10.939 9.717 C 10.851 9.906,10.719 9.988,10.502 9.987 L 10.338 9.987 8.669 9.033 L 7.000 8.078 7.000 8.833 C 7.000 9.578,6.999 9.589,6.939 9.717 C 6.851 9.906,6.719 9.988,6.502 9.987 L 6.338 9.987 4.550 8.965 C 3.567 8.403,2.730 7.921,2.691 7.893 C 2.603 7.831,2.500 7.619,2.500 7.500 C 2.500 7.406,2.594 7.182,2.653 7.133 C 2.714 7.083,6.267 5.057,6.342 5.030 C 6.458 4.987,6.580 4.997,6.715 5.060 " fill="currentColor" stroke="none" fill-rule="evenodd"></path></svg>