<svg fill="none" viewBox="0 0 15 15" xmlns="http://www.w3.org/2000/svg"><path d="M5.489 1.151 C 4.244 1.413,2.654 2.504,1.700 3.751 C 1.529 3.974,1.270 4.370,1.141 4.606 L 1.048 4.774 1.499 4.999 L 1.949 5.225 2.003 5.119 C 2.209 4.715,2.566 4.236,2.975 3.815 C 3.549 3.224,4.142 2.789,4.838 2.448 C 5.292 2.226,5.596 2.127,5.891 2.107 L 6.094 2.093 6.082 2.165 C 6.062 2.281,5.870 2.671,5.702 2.939 C 5.401 3.417,5.015 3.918,4.038 5.100 C 2.644 6.785,2.132 7.501,1.765 8.275 C 1.531 8.771,1.425 9.189,1.425 9.619 C 1.425 9.937,1.470 10.139,1.601 10.413 C 1.900 11.038,2.624 11.498,3.678 11.735 C 4.263 11.866,5.110 11.913,5.754 11.849 C 6.069 11.818,6.691 11.717,6.962 11.652 C 7.072 11.625,7.164 11.606,7.167 11.609 C 7.169 11.611,7.193 11.720,7.220 11.850 C 7.398 12.717,7.894 13.289,8.660 13.511 C 9.640 13.795,10.999 13.505,12.907 12.603 L 13.226 12.452 13.001 12.003 L 12.776 11.553 12.394 11.736 C 11.745 12.046,11.008 12.327,10.484 12.463 C 10.073 12.569,9.802 12.609,9.463 12.610 C 8.989 12.612,8.723 12.522,8.495 12.284 C 8.332 12.112,8.191 11.744,8.172 11.438 L 8.164 11.317 8.638 11.127 C 10.006 10.578,11.190 9.824,12.000 8.985 C 12.722 8.236,13.031 7.572,12.991 6.850 C 12.960 6.269,12.788 5.856,12.442 5.533 C 12.141 5.252,11.793 5.125,11.327 5.125 C 10.572 5.126,9.816 5.483,9.084 6.182 C 8.101 7.122,7.458 8.532,7.211 10.292 C 7.191 10.439,7.171 10.562,7.168 10.564 C 7.152 10.577,6.858 10.653,6.638 10.700 C 6.112 10.812,5.768 10.853,5.237 10.867 C 4.653 10.883,4.355 10.859,3.900 10.759 C 3.147 10.593,2.650 10.307,2.488 9.947 C 2.424 9.803,2.420 9.775,2.431 9.552 C 2.446 9.254,2.537 8.970,2.754 8.543 C 3.074 7.917,3.644 7.141,4.900 5.625 C 5.755 4.592,6.080 4.174,6.425 3.656 C 6.718 3.218,6.937 2.799,7.029 2.500 C 7.110 2.241,7.109 1.898,7.029 1.695 C 6.921 1.423,6.678 1.221,6.362 1.138 C 6.162 1.086,5.768 1.092,5.489 1.151 M11.578 6.153 C 11.802 6.228,11.930 6.425,11.980 6.769 C 12.019 7.038,11.985 7.239,11.855 7.509 C 11.487 8.272,10.438 9.154,9.100 9.825 C 8.737 10.007,8.273 10.206,8.255 10.188 C 8.221 10.154,8.415 9.333,8.562 8.888 C 8.683 8.522,8.977 7.922,9.186 7.613 C 9.675 6.893,10.282 6.391,10.913 6.185 C 11.109 6.120,11.433 6.105,11.578 6.153 " fill="currentColor" stroke="none" fill-rule="evenodd"></path></svg>