<svg fill="none" viewBox="0 0 15 15" xmlns="http://www.w3.org/2000/svg"><path d="M7.342 0.030 C 7.304 0.044,5.672 0.969,3.717 2.086 C 0.502 3.924,0.155 4.127,0.088 4.223 L 0.013 4.329 0.005 4.933 C -0.004 5.552,0.024 6.076,0.090 6.563 C 0.359 8.546,1.194 10.388,2.503 11.888 C 2.743 12.163,3.290 12.707,3.563 12.942 C 4.519 13.766,5.702 14.430,6.989 14.865 C 7.456 15.024,7.544 15.024,8.011 14.865 C 9.303 14.428,10.465 13.775,11.438 12.941 C 11.707 12.710,12.255 12.165,12.497 11.888 C 13.710 10.499,14.537 8.769,14.847 6.975 C 14.960 6.320,14.985 5.995,14.986 5.146 L 14.988 4.330 14.913 4.223 C 14.845 4.127,14.503 3.926,11.284 2.087 C 9.330 0.971,7.694 0.044,7.649 0.029 C 7.551 -0.006,7.438 -0.005,7.342 0.030 M11.002 5.002 C 11.209 5.168,11.374 5.314,11.370 5.326 C 11.359 5.359,7.090 10.697,7.074 10.699 C 7.051 10.701,3.700 7.901,3.700 7.880 C 3.700 7.864,4.215 7.230,4.301 7.140 C 4.313 7.128,4.885 7.587,5.616 8.197 C 6.328 8.790,6.917 9.275,6.925 9.275 C 6.933 9.275,7.764 8.246,8.770 6.988 C 9.777 5.729,10.606 4.700,10.614 4.700 C 10.621 4.700,10.796 4.836,11.002 5.002 " fill="currentColor" stroke="none" fill-rule="evenodd"></path></svg>