<svg fill="none" viewBox="0 0 15 15" xmlns="http://www.w3.org/2000/svg"><path d="M7.342 0.030 C 7.304 0.044,5.672 0.969,3.717 2.086 C 0.497 3.926,0.155 4.127,0.088 4.223 L 0.013 4.330 0.014 5.159 C 0.014 5.793,0.025 6.073,0.059 6.350 C 0.287 8.219,0.956 9.885,2.072 11.363 C 2.338 11.714,2.533 11.937,2.910 12.321 C 4.073 13.506,5.379 14.320,6.989 14.865 C 7.456 15.024,7.544 15.024,8.011 14.865 C 9.130 14.486,10.087 13.983,10.997 13.293 C 11.682 12.775,12.398 12.058,12.925 11.363 C 13.889 10.092,14.527 8.657,14.825 7.089 C 14.955 6.405,15.007 5.751,14.996 4.933 L 14.988 4.329 14.913 4.223 C 14.845 4.127,14.499 3.924,11.284 2.087 C 9.330 0.971,7.694 0.044,7.649 0.029 C 7.551 -0.006,7.438 -0.005,7.342 0.030 " fill="currentColor" stroke="none" fill-rule="evenodd"></path></svg>