<svg fill="none" viewBox="0 0 15 15" xmlns="http://www.w3.org/2000/svg"><path d="M6.950 0.029 C 6.354 0.085,5.650 0.287,5.090 0.561 C 3.516 1.332,2.410 2.791,2.088 4.519 C 2.029 4.837,2.000 5.205,2.000 5.650 L 2.000 6.069 1.916 6.085 C 1.768 6.113,1.393 6.313,1.198 6.468 C 0.671 6.888,0.370 7.621,0.453 8.285 C 0.485 8.539,0.674 9.287,0.760 9.500 C 1.019 10.136,1.555 10.637,2.221 10.866 L 2.463 10.949 2.688 11.393 C 2.947 11.905,3.077 12.105,3.647 12.863 C 4.100 13.466,4.442 13.831,4.808 14.104 C 5.735 14.794,6.936 15.112,8.053 14.964 C 9.103 14.824,10.062 14.340,10.762 13.596 C 10.961 13.384,11.653 12.480,11.927 12.075 C 12.015 11.944,12.189 11.637,12.312 11.393 L 12.538 10.948 12.763 10.872 C 13.419 10.653,13.958 10.157,14.227 9.524 C 14.321 9.304,14.513 8.561,14.547 8.285 C 14.630 7.621,14.329 6.888,13.802 6.468 C 13.607 6.313,13.232 6.113,13.084 6.085 L 13.000 6.069 13.000 5.650 C 13.000 4.654,12.836 3.906,12.439 3.088 C 11.438 1.028,9.256 -0.188,6.950 0.029 M9.845 4.070 C 9.959 4.100,10.133 4.159,10.232 4.201 C 10.605 4.360,10.755 4.477,11.394 5.109 L 12.000 5.709 12.000 5.855 L 12.000 6.000 10.500 6.000 L 9.000 6.000 9.000 6.500 L 9.000 7.000 10.503 7.000 L 12.005 7.000 11.993 8.031 C 11.981 9.146,11.963 9.331,11.812 9.911 C 11.760 10.112,11.570 10.664,11.544 10.689 C 11.540 10.693,11.341 10.813,11.100 10.957 C 10.600 11.255,10.469 11.324,10.089 11.486 L 9.816 11.603 9.264 11.051 L 8.712 10.500 7.500 10.500 L 6.288 10.500 5.736 11.051 L 5.184 11.603 4.911 11.486 C 4.531 11.324,4.400 11.255,3.900 10.957 C 3.659 10.813,3.460 10.693,3.456 10.689 C 3.430 10.664,3.240 10.112,3.188 9.911 C 3.037 9.331,3.019 9.146,3.007 8.031 L 2.995 7.000 4.497 7.000 L 6.000 7.000 6.000 6.500 L 6.000 6.000 4.500 6.000 L 3.000 6.000 3.000 5.855 L 3.000 5.710 3.594 5.121 C 4.208 4.511,4.377 4.376,4.718 4.223 C 4.911 4.136,5.174 4.059,5.390 4.027 C 5.471 4.015,6.460 4.007,7.588 4.010 C 9.612 4.015,9.640 4.016,9.845 4.070 M2.059 9.398 C 2.082 9.541,2.096 9.663,2.090 9.668 C 2.085 9.673,2.023 9.612,1.952 9.532 C 1.767 9.326,1.667 9.102,1.548 8.625 C 1.459 8.265,1.447 8.185,1.455 8.000 C 1.470 7.669,1.613 7.400,1.874 7.211 L 1.988 7.128 2.003 8.133 C 2.015 8.869,2.030 9.207,2.059 9.398 M13.300 7.366 C 13.447 7.534,13.534 7.758,13.545 8.000 C 13.553 8.185,13.541 8.265,13.452 8.625 C 13.392 8.864,13.313 9.112,13.263 9.213 C 13.178 9.388,12.902 9.721,12.902 9.650 C 12.902 9.629,12.919 9.511,12.941 9.388 C 12.970 9.220,12.983 8.902,12.992 8.144 L 13.005 7.126 13.111 7.199 C 13.170 7.239,13.254 7.314,13.300 7.366 M5.000 8.500 L 5.000 9.000 5.500 9.000 L 6.000 9.000 6.000 8.500 L 6.000 8.000 5.500 8.000 L 5.000 8.000 5.000 8.500 M9.000 8.500 L 9.000 9.000 9.500 9.000 L 10.000 9.000 10.000 8.500 L 10.000 8.000 9.500 8.000 L 9.000 8.000 9.000 8.500 M8.485 11.697 C 8.647 11.861,8.673 11.897,8.634 11.908 C 8.265 12.015,6.718 12.015,6.366 11.909 C 6.327 11.897,6.352 11.862,6.515 11.697 L 6.711 11.500 7.500 11.500 L 8.289 11.500 8.485 11.697 " fill="currentColor" stroke="none" fill-rule="evenodd"></path></svg>