<svg fill="none" viewBox="0 0 15 15" xmlns="http://www.w3.org/2000/svg"><path d="M3.325 0.029 C 3.256 0.048,2.904 0.387,1.694 1.595 L 0.150 3.137 0.506 3.493 L 0.862 3.850 1.931 2.781 L 3.000 1.713 3.000 8.356 L 3.000 15.000 3.500 15.000 L 4.000 15.000 4.000 8.356 L 4.000 1.713 5.069 2.781 L 6.138 3.850 6.494 3.493 L 6.850 3.137 5.306 1.596 C 3.983 0.275,3.748 0.051,3.663 0.027 C 3.544 -0.005,3.444 -0.004,3.325 0.029 M9.000 3.500 L 9.000 4.000 12.000 4.000 L 15.000 4.000 15.000 3.500 L 15.000 3.000 12.000 3.000 L 9.000 3.000 9.000 3.500 M9.000 7.500 L 9.000 8.000 11.000 8.000 L 13.000 8.000 13.000 7.500 L 13.000 7.000 11.000 7.000 L 9.000 7.000 9.000 7.500 M9.000 11.500 L 9.000 12.000 10.000 12.000 L 11.000 12.000 11.000 11.500 L 11.000 11.000 10.000 11.000 L 9.000 11.000 9.000 11.500 " fill="currentColor" stroke="none" fill-rule="evenodd"></path></svg>