<svg fill="none" viewBox="0 0 15 15" xmlns="http://www.w3.org/2000/svg"><path d="M1.175 0.039 C 0.902 0.098,0.663 0.233,0.449 0.448 C 0.233 0.666,0.121 0.859,0.049 1.140 C 0.001 1.330,-0.000 1.440,-0.000 7.500 C -0.000 13.560,0.001 13.670,0.049 13.860 C 0.122 14.143,0.233 14.334,0.449 14.551 C 0.666 14.767,0.857 14.878,1.140 14.951 C 1.330 14.999,1.440 15.000,7.500 15.000 C 13.560 15.000,13.670 14.999,13.860 14.951 C 14.143 14.878,14.334 14.767,14.551 14.551 C 14.767 14.334,14.878 14.143,14.951 13.860 C 14.999 13.670,15.000 13.560,15.000 7.500 C 15.000 1.440,14.999 1.330,14.951 1.140 C 14.879 0.859,14.767 0.666,14.551 0.448 C 14.334 0.229,14.096 0.097,13.813 0.038 C 13.556 -0.016,1.425 -0.015,1.175 0.039 " fill="currentColor" stroke="none" fill-rule="evenodd"></path></svg>