<svg fill="none" viewBox="0 0 15 15" xmlns="http://www.w3.org/2000/svg"><path d="M7.025 0.016 C 6.154 0.098,5.661 0.199,5.004 0.430 C 3.620 0.916,2.401 1.811,1.503 3.000 C 0.181 4.751,-0.298 6.995,0.188 9.162 C 0.572 10.875,1.567 12.410,2.996 13.494 C 3.991 14.249,5.139 14.724,6.475 14.932 C 6.965 15.008,8.035 15.008,8.525 14.932 C 10.348 14.648,11.897 13.826,13.060 12.527 C 14.090 11.375,14.686 10.102,14.932 8.525 C 15.010 8.025,15.008 6.967,14.929 6.450 C 14.596 4.283,13.437 2.446,11.659 1.268 C 10.553 0.535,9.402 0.134,8.092 0.026 C 7.797 0.002,7.232 -0.003,7.025 0.016 M7.719 3.562 C 7.811 3.605,7.867 3.651,7.906 3.718 C 7.937 3.770,8.174 4.262,8.432 4.812 C 8.690 5.362,8.911 5.821,8.923 5.833 C 8.935 5.845,9.440 5.931,10.045 6.024 C 11.311 6.220,11.316 6.221,11.433 6.450 C 11.523 6.625,11.516 6.773,11.410 6.937 C 11.370 6.998,10.988 7.406,10.560 7.843 L 9.782 8.638 9.967 9.750 C 10.178 11.023,10.185 11.136,10.060 11.292 C 9.966 11.411,9.796 11.500,9.663 11.500 C 9.531 11.499,9.472 11.470,8.406 10.879 L 7.500 10.376 6.594 10.879 C 5.528 11.470,5.468 11.500,5.338 11.499 C 5.151 11.499,4.939 11.357,4.877 11.192 C 4.829 11.065,4.849 10.875,5.035 9.751 L 5.218 8.639 4.401 7.800 C 3.733 7.115,3.575 6.940,3.538 6.843 C 3.456 6.627,3.533 6.387,3.725 6.260 C 3.807 6.205,3.952 6.177,4.931 6.027 C 5.544 5.933,6.055 5.850,6.068 5.842 C 6.080 5.834,6.308 5.363,6.574 4.795 C 6.840 4.227,7.081 3.730,7.108 3.691 C 7.168 3.604,7.381 3.500,7.500 3.500 C 7.548 3.500,7.647 3.528,7.719 3.562 " fill="currentColor" stroke="none" fill-rule="evenodd"></path></svg>