<svg fill="none" viewBox="0 0 15 15" xmlns="http://www.w3.org/2000/svg"><path d="M7.000 1.000 L 7.000 2.000 7.500 2.000 L 8.000 2.000 8.000 1.000 L 8.000 0.000 7.500 0.000 L 7.000 0.000 7.000 1.000 M1.137 1.150 L 0.788 1.500 1.644 2.356 L 2.500 3.212 2.856 2.856 L 3.212 2.500 2.363 1.650 C 1.895 1.183,1.507 0.800,1.500 0.800 C 1.493 0.800,1.330 0.958,1.137 1.150 M12.637 1.650 L 11.788 2.500 12.144 2.856 L 12.500 3.212 13.356 2.356 L 14.212 1.500 13.863 1.150 C 13.670 0.958,13.507 0.800,13.500 0.800 C 13.493 0.800,13.105 1.183,12.637 1.650 M6.955 4.029 C 6.686 4.063,6.328 4.160,6.081 4.266 C 4.979 4.737,4.254 5.618,3.983 6.813 C 3.918 7.097,3.918 7.873,3.983 8.175 C 4.290 9.610,5.375 10.671,6.813 10.941 C 7.160 11.006,7.840 11.006,8.188 10.941 C 9.627 10.671,10.706 9.615,11.018 8.171 C 11.082 7.874,11.081 7.096,11.017 6.813 C 10.784 5.786,10.196 4.967,9.341 4.476 C 8.920 4.235,8.473 4.084,8.013 4.028 C 7.750 3.996,7.217 3.996,6.955 4.029 M0.000 7.500 L 0.000 8.000 1.000 8.000 L 2.000 8.000 2.000 7.500 L 2.000 7.000 1.000 7.000 L 0.000 7.000 0.000 7.500 M13.000 7.500 L 13.000 8.000 14.000 8.000 L 15.000 8.000 15.000 7.500 L 15.000 7.000 14.000 7.000 L 13.000 7.000 13.000 7.500 M1.644 12.644 L 0.800 13.488 1.150 13.837 L 1.500 14.187 2.350 13.337 L 3.200 12.488 2.856 12.144 C 2.668 11.955,2.507 11.800,2.500 11.800 C 2.493 11.800,2.108 12.180,1.644 12.644 M12.145 12.144 L 11.803 12.488 12.649 13.340 L 13.495 14.193 13.847 13.840 L 14.200 13.487 13.356 12.644 C 12.892 12.180,12.507 11.800,12.500 11.800 C 12.493 11.800,12.333 11.955,12.145 12.144 M7.000 14.000 L 7.000 15.000 7.500 15.000 L 8.000 15.000 8.000 14.000 L 8.000 13.000 7.500 13.000 L 7.000 13.000 7.000 14.000 " fill="currentColor" stroke="none" fill-rule="evenodd"></path></svg>