<svg fill="none" viewBox="0 0 15 15" xmlns="http://www.w3.org/2000/svg"><path d="M9.363 0.100 C 8.909 0.165,8.430 0.317,8.055 0.514 C 7.790 0.654,3.456 3.361,3.245 3.519 C 1.968 4.475,1.381 6.138,1.774 7.687 C 1.813 7.838,1.884 8.062,1.933 8.183 L 2.023 8.404 1.862 8.636 C 1.565 9.064,1.334 9.601,1.224 10.121 C 1.156 10.437,1.132 11.056,1.174 11.391 C 1.353 12.823,2.258 14.027,3.581 14.595 C 4.633 15.046,5.809 15.021,6.865 14.527 C 7.096 14.418,11.506 11.673,11.800 11.455 C 12.351 11.045,12.843 10.402,13.096 9.761 C 13.506 8.723,13.491 7.728,13.049 6.637 C 13.020 6.566,13.026 6.552,13.171 6.350 C 13.754 5.541,14.009 4.411,13.836 3.416 C 13.548 1.766,12.333 0.501,10.695 0.146 C 10.433 0.089,9.629 0.062,9.363 0.100 M10.633 1.159 C 11.770 1.457,12.623 2.370,12.840 3.523 C 12.894 3.805,12.893 4.320,12.839 4.607 C 12.787 4.885,12.674 5.209,12.546 5.450 C 12.491 5.553,12.441 5.642,12.436 5.647 C 12.431 5.652,12.369 5.593,12.299 5.516 C 12.030 5.222,11.572 4.886,11.163 4.681 C 10.901 4.551,10.649 4.460,10.321 4.378 L 10.054 4.312 10.412 4.089 L 10.770 3.866 10.646 3.669 C 10.578 3.560,10.460 3.371,10.384 3.248 C 10.307 3.125,10.240 3.025,10.235 3.025 C 10.217 3.025,5.214 6.154,5.184 6.184 C 5.162 6.205,5.220 6.316,5.414 6.625 C 5.557 6.852,5.682 7.034,5.693 7.030 C 5.704 7.027,6.208 6.716,6.813 6.339 C 7.418 5.963,7.994 5.614,8.093 5.565 C 8.745 5.240,9.598 5.182,10.313 5.413 C 11.361 5.752,12.134 6.639,12.339 7.738 C 12.401 8.075,12.379 8.677,12.292 9.008 C 12.109 9.699,11.668 10.335,11.105 10.720 C 10.590 11.071,6.640 13.519,6.413 13.628 C 5.782 13.929,5.061 13.995,4.381 13.813 C 2.900 13.416,1.955 11.979,2.187 10.475 C 2.245 10.096,2.351 9.777,2.517 9.479 L 2.605 9.321 2.846 9.557 C 3.389 10.088,3.984 10.420,4.711 10.599 L 4.985 10.667 4.849 10.753 C 4.774 10.801,4.614 10.900,4.493 10.974 C 4.372 11.047,4.277 11.115,4.280 11.124 C 4.306 11.184,4.791 11.948,4.804 11.949 C 4.830 11.951,9.862 8.801,9.870 8.778 C 9.874 8.766,9.763 8.574,9.623 8.352 C 9.435 8.052,9.359 7.951,9.331 7.962 C 9.310 7.970,8.813 8.276,8.228 8.642 C 7.642 9.009,7.050 9.362,6.913 9.428 C 5.947 9.889,4.801 9.782,3.900 9.148 C 3.523 8.882,3.117 8.392,2.928 7.974 C 2.761 7.603,2.650 7.111,2.650 6.738 C 2.650 5.848,3.054 4.970,3.715 4.425 C 3.956 4.227,8.269 1.525,8.612 1.358 C 9.065 1.138,9.383 1.073,9.963 1.085 C 10.320 1.093,10.426 1.104,10.633 1.159 " fill="currentColor" stroke="none" fill-rule="evenodd"></path></svg>