<svg fill="none" viewBox="0 0 15 15" xmlns="http://www.w3.org/2000/svg"><path d="M1.175 1.039 C 0.636 1.155,0.179 1.606,0.038 2.162 C 0.005 2.292,-0.000 2.945,0.000 7.489 C 0.000 12.564,0.001 12.671,0.049 12.860 C 0.122 13.143,0.233 13.334,0.449 13.551 C 0.666 13.767,0.857 13.878,1.140 13.951 C 1.330 13.999,1.440 14.000,7.500 14.000 C 13.560 14.000,13.670 13.999,13.860 13.951 C 14.143 13.878,14.334 13.767,14.551 13.551 C 14.767 13.334,14.878 13.143,14.951 12.860 C 14.999 12.671,15.000 12.564,15.000 7.500 C 15.000 2.436,14.999 2.329,14.951 2.140 C 14.879 1.859,14.767 1.666,14.551 1.448 C 14.334 1.229,14.096 1.097,13.813 1.038 C 13.556 0.984,1.425 0.985,1.175 1.039 M5.538 5.825 L 7.212 7.500 5.531 9.181 L 3.850 10.862 3.494 10.506 L 3.138 10.150 4.463 8.825 L 5.787 7.500 4.463 6.175 L 3.138 4.850 3.487 4.500 C 3.680 4.308,3.843 4.150,3.850 4.150 C 3.857 4.150,4.616 4.904,5.538 5.825 M12.000 10.500 L 12.000 11.000 10.000 11.000 L 8.000 11.000 8.000 10.500 L 8.000 10.000 10.000 10.000 L 12.000 10.000 12.000 10.500 " fill="currentColor" stroke="none" fill-rule="evenodd"></path></svg>