<svg fill="none" viewBox="0 0 15 15" xmlns="http://www.w3.org/2000/svg"><path d="M8.488 0.500 L 8.138 0.850 8.419 1.131 L 8.700 1.413 5.221 3.588 C 3.308 4.784,1.704 5.785,1.658 5.812 L 1.574 5.861 1.212 5.499 L 0.850 5.138 0.494 5.494 L 0.138 5.850 2.213 7.925 L 4.287 10.000 2.213 12.075 L 0.138 14.150 0.494 14.506 L 0.850 14.862 2.925 12.787 L 5.000 10.713 7.069 12.781 L 9.138 14.850 9.494 14.494 L 9.850 14.137 9.499 13.787 C 9.307 13.595,9.152 13.425,9.156 13.410 C 9.159 13.395,10.158 11.790,11.375 9.843 L 13.588 6.302 13.863 6.576 L 14.138 6.850 14.494 6.494 L 14.850 6.137 11.856 3.144 C 10.210 1.497,8.857 0.150,8.850 0.150 C 8.843 0.150,8.680 0.307,8.488 0.500 " fill="currentColor" stroke="none" fill-rule="evenodd"></path></svg>