<svg fill="none" viewBox="0 0 15 15" xmlns="http://www.w3.org/2000/svg"><path d="M5.100 0.014 C 5.066 0.020,4.953 0.037,4.850 0.052 C 4.052 0.167,3.228 0.641,2.711 1.283 C 2.191 1.929,1.925 2.679,1.925 3.500 C 1.925 5.172,3.070 6.570,4.733 6.930 C 4.949 6.977,5.065 6.985,5.500 6.985 C 5.935 6.985,6.051 6.977,6.267 6.930 C 7.930 6.570,9.075 5.171,9.075 3.500 C 9.075 1.802,7.893 0.382,6.213 0.059 C 6.022 0.023,5.235 -0.009,5.100 0.014 M11.145 4.025 C 10.777 4.084,10.388 4.237,10.082 4.445 C 9.597 4.775,9.246 5.273,9.081 5.868 C 9.021 6.085,9.014 6.155,9.014 6.500 C 9.014 6.846,9.021 6.914,9.082 7.136 C 9.297 7.910,9.848 8.533,10.575 8.822 C 11.709 9.273,13.039 8.819,13.652 7.771 C 14.314 6.640,13.991 5.174,12.918 4.445 C 12.698 4.296,12.339 4.134,12.099 4.075 C 11.857 4.016,11.365 3.990,11.145 4.025 M3.100 9.017 C 3.052 9.022,2.901 9.049,2.765 9.078 C 1.584 9.323,0.588 10.204,0.195 11.350 C 0.015 11.875,0.017 11.855,0.007 13.506 L -0.003 15.000 5.500 15.000 L 11.003 15.000 10.993 13.506 C 10.984 12.089,10.981 12.001,10.931 11.788 C 10.602 10.396,9.645 9.420,8.275 9.080 L 8.013 9.015 5.600 9.011 C 4.273 9.009,3.148 9.011,3.100 9.017 M12.000 12.497 L 12.000 15.000 13.501 15.000 L 15.002 15.000 14.994 13.556 L 14.986 12.113 14.920 11.872 C 14.716 11.125,14.249 10.571,13.539 10.235 C 13.191 10.070,12.967 10.023,12.444 10.007 L 12.000 9.993 12.000 12.497 " fill="currentColor" stroke="none" fill-rule="evenodd"></path></svg>