<svg fill="none" viewBox="0 0 15 15" xmlns="http://www.w3.org/2000/svg"><path d="M1.175 1.039 C 0.636 1.155,0.179 1.606,0.038 2.162 C 0.005 2.292,-0.000 2.945,0.000 7.489 C 0.000 12.564,0.001 12.671,0.049 12.860 C 0.122 13.143,0.233 13.334,0.449 13.551 C 0.666 13.767,0.857 13.878,1.140 13.951 C 1.330 13.999,1.440 14.000,7.500 14.000 C 13.560 14.000,13.670 13.999,13.860 13.951 C 14.143 13.878,14.334 13.767,14.551 13.551 C 14.767 13.334,14.878 13.143,14.951 12.860 C 14.999 12.672,15.000 12.568,15.000 8.500 C 15.000 4.432,14.999 4.328,14.951 4.140 C 14.879 3.859,14.767 3.666,14.551 3.448 C 14.413 3.308,14.313 3.234,14.175 3.166 C 13.848 3.006,13.792 3.001,12.319 3.000 L 11.000 3.000 11.000 2.666 C 11.000 2.097,10.885 1.784,10.551 1.448 C 10.334 1.229,10.096 1.097,9.813 1.038 C 9.557 0.984,1.424 0.985,1.175 1.039 M12.000 9.500 L 12.000 10.000 10.500 10.000 L 9.000 10.000 9.000 9.500 L 9.000 9.000 10.500 9.000 L 12.000 9.000 12.000 9.500 " fill="currentColor" stroke="none" fill-rule="evenodd"></path></svg>