<svg fill="none" viewBox="0 0 15 15" xmlns="http://www.w3.org/2000/svg"><path d="M0.663 0.465 C 0.511 0.498,0.306 0.543,0.206 0.565 C 0.075 0.594,0.025 0.616,0.025 0.644 C 0.025 0.676,0.891 4.740,0.942 4.944 L 0.955 5.000 0.478 5.000 L 0.000 5.000 0.000 5.500 L 0.000 6.000 0.583 6.000 L 1.166 6.000 1.483 7.481 C 1.658 8.296,1.800 8.971,1.800 8.981 C 1.800 8.992,1.395 9.000,0.900 9.000 L 0.000 9.000 0.000 9.500 L 0.000 10.000 1.010 10.000 L 2.020 10.000 2.034 10.056 C 2.041 10.087,2.268 11.142,2.537 12.400 C 3.078 14.927,3.048 14.823,3.273 14.942 C 3.491 15.057,3.767 14.989,3.904 14.786 C 3.950 14.717,4.188 13.976,4.689 12.344 L 5.408 10.000 7.500 10.000 L 9.592 10.000 10.311 12.344 C 10.812 13.976,11.050 14.717,11.096 14.786 C 11.233 14.989,11.509 15.057,11.727 14.942 C 11.952 14.823,11.922 14.927,12.463 12.400 C 12.732 11.142,12.959 10.087,12.966 10.056 L 12.980 10.000 13.990 10.000 L 15.000 10.000 15.000 9.500 L 15.000 9.000 14.100 9.000 C 13.605 9.000,13.200 8.992,13.200 8.981 C 13.200 8.971,13.342 8.296,13.517 7.481 L 13.834 6.000 14.417 6.000 L 15.000 6.000 15.000 5.500 L 15.000 5.000 14.522 5.000 C 14.069 5.000,14.045 4.998,14.056 4.954 C 14.115 4.729,14.982 0.624,14.973 0.614 C 14.957 0.598,14.022 0.394,14.013 0.404 C 14.009 0.409,13.801 1.369,13.551 2.538 C 13.301 3.706,13.080 4.738,13.059 4.831 L 13.021 5.000 11.062 5.000 L 9.102 5.000 9.003 4.681 C 8.948 4.506,8.694 3.684,8.439 2.854 C 8.184 2.025,7.957 1.307,7.934 1.259 C 7.793 0.961,7.315 0.920,7.110 1.189 C 7.066 1.247,6.905 1.735,6.560 2.854 C 6.293 3.725,6.034 4.564,5.986 4.719 L 5.898 5.000 3.939 5.000 L 1.980 5.000 1.966 4.944 C 1.959 4.913,1.749 3.937,1.501 2.775 C 1.253 1.613,1.036 0.603,1.021 0.531 C 1.005 0.459,0.980 0.401,0.965 0.402 C 0.950 0.403,0.814 0.432,0.663 0.465 M7.774 4.094 C 7.917 4.558,8.038 4.952,8.044 4.969 C 8.053 4.993,7.934 5.000,7.500 5.000 C 7.066 5.000,6.947 4.993,6.956 4.969 C 6.962 4.952,7.083 4.558,7.226 4.094 C 7.368 3.630,7.491 3.250,7.500 3.250 C 7.509 3.250,7.632 3.630,7.774 4.094 M5.171 7.369 C 4.939 8.122,4.731 8.797,4.710 8.869 L 4.671 9.000 3.753 9.000 L 2.834 9.000 2.517 7.519 C 2.342 6.704,2.200 6.029,2.200 6.019 C 2.200 6.008,2.963 6.000,3.896 6.000 L 5.593 6.000 5.171 7.369 M8.810 7.457 C 9.056 8.257,9.263 8.932,9.269 8.956 C 9.280 8.998,9.184 9.000,7.500 9.000 C 5.816 9.000,5.720 8.998,5.731 8.956 C 5.737 8.932,5.944 8.257,6.190 7.456 L 6.638 6.000 7.500 6.000 L 8.363 6.001 8.810 7.457 M12.800 6.019 C 12.800 6.029,12.658 6.704,12.483 7.519 L 12.166 9.000 11.247 9.000 L 10.329 9.000 10.290 8.869 C 10.269 8.797,10.061 8.122,9.829 7.369 L 9.407 6.000 11.104 6.000 C 12.037 6.000,12.800 6.008,12.800 6.019 M4.344 10.044 C 4.280 10.284,3.588 12.502,3.583 12.485 C 3.579 12.473,3.462 11.934,3.324 11.288 C 3.186 10.641,3.066 10.087,3.059 10.056 L 3.045 10.000 3.700 10.000 C 4.312 10.000,4.355 10.003,4.344 10.044 M11.941 10.056 C 11.934 10.087,11.814 10.641,11.676 11.288 C 11.538 11.934,11.421 12.473,11.417 12.485 C 11.411 12.506,10.650 10.061,10.650 10.019 C 10.650 10.008,10.944 10.000,11.303 10.000 L 11.955 10.000 11.941 10.056 " fill="currentColor" stroke="none" fill-rule="evenodd"></path></svg>