<svg viewBox="0 0 24 24" xmlns="http://www.w3.org/2000/svg"><path d="M11.687 2.057 C 11.493 2.120,10.851 2.594,10.171 3.175 C 8.099 4.947,6.460 6.885,5.378 8.840 C 4.665 10.128,4.178 11.615,4.037 12.940 C 3.979 13.478,4.011 14.573,4.102 15.160 C 4.515 17.847,6.016 20.001,8.260 21.130 C 9.695 21.851,11.353 22.133,13.020 21.940 C 15.991 21.594,18.361 19.763,19.422 16.996 C 19.602 16.527,19.814 15.711,19.898 15.160 C 19.989 14.573,20.021 13.478,19.963 12.940 C 19.666 10.157,18.077 7.305,15.261 4.500 C 14.288 3.531,12.862 2.322,12.452 2.118 C 12.235 2.011,11.909 1.985,11.687 2.057 M12.000 12.140 L 12.000 20.000 11.782 20.000 C 11.441 20.000,10.697 19.891,10.286 19.780 C 8.153 19.206,6.628 17.544,6.160 15.283 C 5.673 12.932,6.358 10.596,8.284 8.040 C 8.951 7.155,9.789 6.233,10.660 5.427 C 11.160 4.964,11.951 4.280,11.987 4.280 C 11.994 4.280,12.000 7.817,12.000 12.140 " stroke="none" fill-rule="evenodd" fill="black"></path></svg>