<svg viewBox="0 0 24 24" xmlns="http://www.w3.org/2000/svg"><path d="M7.700 5.056 C 7.612 5.083,7.497 5.132,7.444 5.163 C 7.331 5.231,2.198 11.374,2.093 11.567 C 1.994 11.751,1.994 12.249,2.093 12.433 C 2.133 12.506,3.331 13.964,4.755 15.673 C 6.794 18.118,7.383 18.801,7.523 18.880 L 7.700 18.980 13.920 18.992 C 18.425 19.000,20.206 18.991,20.380 18.958 C 21.142 18.815,21.797 18.171,21.956 17.408 C 22.018 17.110,22.018 6.890,21.956 6.592 C 21.797 5.830,21.138 5.181,20.383 5.043 C 20.016 4.976,7.914 4.988,7.700 5.056 " stroke="none" fill-rule="evenodd" fill="black"></path></svg>