<svg viewBox="0 0 24 24" xmlns="http://www.w3.org/2000/svg"><path d="M6.485 2.061 C 5.128 2.358,3.828 3.461,3.292 4.770 C 3.019 5.439,3.026 5.376,3.010 7.270 L 2.995 9.000 2.498 9.000 L 2.000 9.000 2.000 10.500 L 2.000 12.000 2.500 12.000 L 3.000 12.000 3.000 15.112 C 3.000 18.453,2.999 18.443,3.206 18.872 C 3.328 19.125,3.577 19.424,3.799 19.583 L 3.994 19.723 4.007 20.512 C 4.020 21.290,4.021 21.302,4.131 21.489 C 4.377 21.908,4.623 22.000,5.498 22.000 C 6.266 22.000,6.447 21.955,6.701 21.701 C 6.948 21.454,7.000 21.259,7.000 20.573 L 7.000 20.000 11.997 20.000 L 16.993 20.000 17.007 20.650 C 17.020 21.277,17.024 21.307,17.131 21.489 C 17.377 21.908,17.623 22.000,18.498 22.000 C 19.266 22.000,19.447 21.955,19.701 21.701 C 19.959 21.443,20.000 21.271,20.000 20.443 L 20.000 19.740 20.220 19.570 C 20.497 19.356,20.765 18.995,20.886 18.671 L 20.979 18.420 20.991 15.210 L 21.002 12.000 21.501 12.000 L 22.000 12.000 22.000 10.500 L 22.000 9.000 21.500 9.000 L 21.000 9.000 21.000 7.383 C 21.000 5.686,20.986 5.511,20.807 5.000 C 20.330 3.639,19.120 2.521,17.660 2.091 C 17.437 2.026,17.053 2.020,12.080 2.013 C 7.637 2.007,6.697 2.015,6.485 2.061 M15.000 5.000 L 15.000 6.000 12.000 6.000 L 9.000 6.000 9.000 5.000 L 9.000 4.000 12.000 4.000 L 15.000 4.000 15.000 5.000 M11.000 10.500 L 11.000 13.000 8.000 13.000 L 5.000 13.000 5.000 10.500 L 5.000 8.000 8.000 8.000 L 11.000 8.000 11.000 10.500 M19.000 10.500 L 19.000 13.000 16.000 13.000 L 13.000 13.000 13.000 10.500 L 13.000 8.000 16.000 8.000 L 19.000 8.000 19.000 10.500 M7.132 15.151 C 7.450 15.301,7.700 15.552,7.856 15.880 C 7.966 16.111,7.980 16.180,7.980 16.500 C 7.980 16.821,7.966 16.888,7.855 17.120 C 7.696 17.452,7.449 17.698,7.120 17.856 C 6.889 17.966,6.820 17.980,6.500 17.980 C 6.190 17.980,6.107 17.965,5.900 17.868 C 5.584 17.721,5.275 17.413,5.134 17.104 C 5.038 16.895,5.022 16.808,5.021 16.500 C 5.020 16.178,5.034 16.112,5.145 15.880 C 5.346 15.462,5.720 15.149,6.150 15.041 C 6.420 14.973,6.857 15.021,7.132 15.151 M18.132 15.151 C 18.450 15.301,18.700 15.552,18.856 15.880 C 18.966 16.111,18.980 16.180,18.980 16.500 C 18.980 16.821,18.966 16.888,18.855 17.120 C 18.696 17.452,18.449 17.698,18.120 17.856 C 17.889 17.966,17.820 17.980,17.500 17.980 C 17.190 17.980,17.107 17.965,16.900 17.868 C 16.584 17.721,16.275 17.413,16.134 17.104 C 16.038 16.895,16.022 16.808,16.021 16.500 C 16.020 16.178,16.034 16.112,16.145 15.880 C 16.346 15.462,16.720 15.149,17.150 15.041 C 17.420 14.973,17.857 15.021,18.132 15.151 " stroke="none" fill-rule="evenodd" fill="black"></path></svg>