<svg viewBox="0 0 24 24" xmlns="http://www.w3.org/2000/svg"><path d="M3.580 2.047 C 2.858 2.185,2.199 2.848,2.044 3.592 C 2.013 3.743,2.000 6.417,2.000 12.912 L 2.000 22.020 4.010 20.010 L 6.020 18.000 13.108 18.000 C 18.128 18.000,20.258 17.987,20.408 17.956 C 21.158 17.799,21.799 17.158,21.956 16.408 C 22.018 16.109,22.018 3.891,21.956 3.592 C 21.817 2.927,21.322 2.365,20.647 2.107 L 20.420 2.020 12.100 2.014 C 6.933 2.011,3.704 2.023,3.580 2.047 M10.370 7.190 L 12.000 8.820 13.640 7.180 L 15.280 5.540 15.990 6.250 L 16.700 6.960 15.060 8.600 L 13.420 10.240 15.050 11.870 C 15.947 12.767,16.680 13.518,16.680 13.540 C 16.680 13.561,16.370 13.890,15.990 14.270 L 15.301 14.960 13.650 13.310 L 12.000 11.660 10.350 13.310 L 8.699 14.960 8.010 14.270 C 7.630 13.890,7.320 13.561,7.320 13.540 C 7.320 13.518,8.053 12.767,8.950 11.870 L 10.580 10.240 8.940 8.600 L 7.301 6.960 8.000 6.260 C 8.384 5.875,8.708 5.560,8.719 5.560 C 8.731 5.560,9.473 6.293,10.370 7.190 " stroke="none" fill-rule="evenodd" fill="black"></path></svg>