<svg viewBox="0 0 24 24" xmlns="http://www.w3.org/2000/svg"><path d="M11.360 2.043 C 9.000 2.267,6.850 3.276,5.183 4.943 C 3.596 6.530,2.641 8.487,2.313 10.820 C 2.248 11.284,2.248 12.716,2.313 13.180 C 2.619 15.360,3.465 17.194,4.877 18.739 C 6.860 20.909,9.658 22.089,12.580 21.987 C 13.648 21.950,14.547 21.782,15.559 21.433 C 16.089 21.249,17.082 20.775,17.520 20.496 C 19.935 18.959,21.547 16.604,22.077 13.840 C 22.300 12.673,22.300 11.327,22.077 10.160 C 21.369 6.469,18.707 3.514,15.106 2.423 C 13.957 2.074,12.541 1.931,11.360 2.043 M13.240 8.500 L 13.240 11.000 15.620 11.000 L 18.000 11.000 18.000 12.000 L 18.000 13.000 14.620 13.000 L 11.240 13.000 11.240 9.500 L 11.240 6.000 12.240 6.000 L 13.240 6.000 13.240 8.500 " stroke="none" fill-rule="evenodd" fill="black"></path></svg>