<svg viewBox="0 0 24 24" xmlns="http://www.w3.org/2000/svg"><path d="M3.580 4.047 C 2.859 4.185,2.199 4.848,2.044 5.592 C 2.013 5.742,2.000 7.754,2.000 12.455 C 2.000 19.926,1.978 19.380,2.295 19.697 C 2.624 20.026,1.908 20.000,10.500 20.000 C 19.078 20.000,18.378 20.025,18.697 19.704 C 18.843 19.557,19.023 19.160,20.420 15.900 C 21.978 12.264,21.980 12.260,21.980 11.980 C 21.980 11.746,21.962 11.669,21.869 11.511 C 21.744 11.298,21.551 11.136,21.330 11.057 C 21.232 11.022,20.977 11.003,20.590 11.002 L 20.000 11.000 20.000 9.402 C 20.000 8.390,19.984 7.726,19.956 7.592 C 19.817 6.927,19.321 6.364,18.647 6.107 C 18.421 6.021,18.400 6.020,14.880 6.009 L 11.340 5.998 10.063 4.999 L 8.787 4.000 6.283 4.004 C 4.887 4.007,3.692 4.026,3.580 4.047 M18.000 9.500 L 18.000 11.000 11.927 11.000 C 5.111 11.000,5.620 10.977,5.303 11.296 C 5.164 11.435,5.060 11.649,4.604 12.720 C 4.309 13.413,4.053 14.007,4.035 14.040 C 4.017 14.073,4.002 12.728,4.001 11.050 L 4.000 8.000 11.000 8.000 L 18.000 8.000 18.000 9.500 " stroke="none" fill-rule="evenodd" fill="black"></path></svg>