<svg viewBox="0 0 24 24" xmlns="http://www.w3.org/2000/svg"><path d="M3.580 6.047 C 2.859 6.185,2.199 6.848,2.044 7.592 C 1.982 7.889,1.982 16.111,2.044 16.408 C 2.201 17.158,2.842 17.799,3.592 17.956 C 3.892 18.018,18.108 18.018,18.408 17.956 C 19.158 17.799,19.799 17.158,19.956 16.408 C 19.982 16.283,20.000 15.745,20.000 15.098 L 20.000 14.000 21.000 14.000 L 22.000 14.000 22.000 12.000 L 22.000 10.000 21.000 10.000 L 20.000 10.000 20.000 8.902 C 20.000 8.255,19.982 7.717,19.956 7.592 C 19.797 6.830,19.138 6.181,18.383 6.043 C 18.076 5.987,3.875 5.991,3.580 6.047 M17.000 12.000 L 17.000 15.000 11.000 15.000 L 5.000 15.000 5.000 12.000 L 5.000 9.000 11.000 9.000 L 17.000 9.000 17.000 12.000 " stroke="none" fill-rule="evenodd" fill="black"></path></svg>