<svg viewBox="0 0 24 24" xmlns="http://www.w3.org/2000/svg"><path d="M9.396 2.037 C 9.178 2.080,8.890 2.266,8.777 2.438 C 8.721 2.522,8.438 3.002,8.148 3.505 L 7.620 4.420 6.360 4.440 L 5.100 4.460 4.907 4.574 C 4.679 4.707,4.503 4.962,4.442 5.246 C 4.418 5.358,4.400 5.917,4.400 6.539 L 4.400 7.634 3.590 8.101 C 2.320 8.835,2.315 8.838,2.174 9.072 C 2.025 9.322,1.979 9.573,2.041 9.808 C 2.066 9.903,2.348 10.435,2.667 10.991 L 3.248 12.001 2.678 12.985 C 2.068 14.041,1.982 14.240,2.017 14.514 C 2.046 14.737,2.223 15.064,2.379 15.180 C 2.446 15.229,2.928 15.517,3.450 15.819 L 4.400 16.368 4.400 17.462 C 4.400 18.098,4.418 18.641,4.443 18.759 C 4.510 19.071,4.697 19.316,4.977 19.459 L 5.214 19.580 6.425 19.593 L 7.636 19.606 8.124 20.453 C 8.825 21.670,8.845 21.698,9.085 21.835 C 9.346 21.984,9.600 22.022,9.845 21.947 C 9.947 21.916,10.474 21.634,11.015 21.321 L 12.000 20.752 12.985 21.321 C 14.203 22.026,14.312 22.064,14.719 21.933 C 15.052 21.825,15.201 21.638,15.813 20.568 L 16.367 19.600 17.461 19.600 C 18.098 19.600,18.641 19.582,18.759 19.557 C 19.071 19.490,19.316 19.303,19.459 19.023 L 19.580 18.786 19.593 17.576 L 19.606 16.365 20.553 15.818 C 21.074 15.517,21.559 15.227,21.631 15.173 C 21.780 15.061,21.947 14.758,21.983 14.532 C 21.996 14.446,21.986 14.296,21.961 14.198 C 21.935 14.100,21.652 13.565,21.333 13.009 L 20.752 11.999 21.322 11.015 C 21.859 10.086,22.000 9.787,22.000 9.578 C 22.000 9.409,21.867 9.078,21.744 8.940 C 21.669 8.855,21.228 8.574,20.620 8.223 L 19.620 7.645 19.600 6.433 C 19.582 5.403,19.569 5.197,19.511 5.068 C 19.399 4.820,19.286 4.687,19.087 4.570 L 18.900 4.460 17.640 4.440 L 16.380 4.420 15.852 3.505 C 15.562 3.002,15.279 2.522,15.223 2.438 C 15.105 2.258,14.822 2.081,14.586 2.037 C 14.262 1.977,14.079 2.050,13.045 2.649 C 12.505 2.961,12.036 3.217,12.002 3.217 C 11.968 3.217,11.499 2.962,10.960 2.651 C 10.406 2.331,9.902 2.067,9.800 2.043 C 9.601 1.998,9.600 1.998,9.396 2.037 " stroke="none" fill-rule="evenodd" fill="black"></path></svg>