<svg viewBox="0 0 24 24" xmlns="http://www.w3.org/2000/svg"><path d="M6.280 2.027 C 5.562 2.150,4.919 2.703,4.707 3.380 C 4.673 3.490,4.283 5.218,3.840 7.220 C 3.397 9.222,3.026 10.892,3.015 10.930 C 2.996 10.997,3.442 11.000,11.998 11.000 L 21.002 11.000 20.980 10.910 C 20.968 10.861,20.590 9.160,20.139 7.131 C 19.689 5.103,19.290 3.366,19.253 3.271 C 19.041 2.731,18.619 2.329,18.014 2.095 C 17.828 2.023,17.597 2.020,12.100 2.015 C 8.954 2.012,6.335 2.018,6.280 2.027 M3.580 13.047 C 2.859 13.185,2.199 13.848,2.044 14.592 C 1.983 14.884,1.983 19.116,2.044 19.408 C 2.201 20.158,2.842 20.799,3.592 20.956 C 3.892 21.018,20.108 21.018,20.408 20.956 C 21.158 20.799,21.799 20.158,21.956 19.408 C 22.017 19.116,22.017 14.884,21.956 14.592 C 21.797 13.830,21.138 13.181,20.383 13.043 C 20.075 12.987,3.875 12.991,3.580 13.047 M16.000 17.000 L 16.000 18.000 15.000 18.000 L 14.000 18.000 14.000 17.000 L 14.000 16.000 15.000 16.000 L 16.000 16.000 16.000 17.000 M20.000 17.000 L 20.000 18.000 19.000 18.000 L 18.000 18.000 18.000 17.000 L 18.000 16.000 19.000 16.000 L 20.000 16.000 20.000 17.000 " stroke="none" fill-rule="evenodd" fill="black"></path></svg>