<svg viewBox="0 0 24 24" xmlns="http://www.w3.org/2000/svg"><path d="M10.320 2.044 C 9.128 2.177,7.917 2.716,7.045 3.501 C 6.029 4.416,5.408 5.484,5.113 6.826 C 5.036 7.177,5.025 7.371,5.010 8.610 L 4.993 10.000 7.996 10.000 L 11.000 10.000 11.000 6.000 L 11.000 2.000 10.810 2.005 C 10.705 2.008,10.485 2.025,10.320 2.044 M13.000 6.000 L 13.000 10.000 16.004 10.000 L 19.007 10.000 18.990 8.610 C 18.972 7.086,18.945 6.864,18.682 6.079 C 18.036 4.153,16.353 2.622,14.380 2.167 C 14.034 2.088,13.375 2.000,13.122 2.000 L 13.000 2.000 13.000 6.000 M5.009 14.390 C 5.023 16.680,5.027 16.796,5.112 17.174 C 5.244 17.764,5.418 18.247,5.684 18.759 C 6.516 20.364,7.984 21.473,9.826 21.889 C 10.201 21.974,10.306 21.978,12.000 21.978 C 13.694 21.978,13.799 21.974,14.174 21.889 C 14.767 21.755,15.248 21.581,15.759 21.316 C 17.364 20.484,18.477 19.011,18.888 17.174 C 18.973 16.796,18.977 16.680,18.991 14.390 L 19.005 12.000 12.000 12.000 L 4.995 12.000 5.009 14.390 " stroke="none" fill-rule="evenodd" fill="black"></path></svg>