<svg viewBox="0 0 24 24" xmlns="http://www.w3.org/2000/svg"><path d="M5.513 2.041 C 4.551 2.205,3.693 2.802,3.328 3.562 C 2.991 4.262,3.020 3.471,3.020 12.000 C 3.020 19.189,3.024 19.593,3.092 19.840 C 3.398 20.938,4.234 21.695,5.408 21.937 C 5.683 21.993,6.539 22.000,13.358 22.000 L 21.000 22.000 21.000 21.000 L 21.000 20.001 13.330 19.990 L 5.660 19.980 5.494 19.891 C 5.176 19.721,5.000 19.404,5.000 19.000 C 5.000 18.596,5.176 18.279,5.494 18.109 L 5.660 18.020 13.330 18.009 L 21.000 17.999 21.000 10.901 C 21.000 5.874,20.987 3.742,20.956 3.592 C 20.817 2.927,20.322 2.365,19.647 2.107 L 19.420 2.020 12.560 2.014 C 8.787 2.011,5.616 2.023,5.513 2.041 M10.623 7.043 C 10.964 7.104,11.457 7.358,11.751 7.622 L 12.001 7.847 12.234 7.632 C 13.147 6.787,14.476 6.800,15.345 7.663 C 16.081 8.394,16.204 9.493,15.643 10.340 C 15.543 10.492,14.844 11.209,13.741 12.292 L 11.997 14.004 10.275 12.312 C 9.329 11.381,8.494 10.539,8.422 10.440 C 7.931 9.770,7.866 8.917,8.249 8.184 C 8.426 7.846,8.868 7.415,9.210 7.247 C 9.665 7.024,10.139 6.956,10.623 7.043 " stroke="none" fill-rule="evenodd" fill="black"></path></svg>