<svg viewBox="0 0 24 24" xmlns="http://www.w3.org/2000/svg"><path d="M5.990 4.990 C 5.423 5.557,4.960 6.038,4.960 6.060 C 4.960 6.082,6.544 7.684,8.480 9.620 L 12.000 13.140 15.520 9.620 C 17.456 7.684,19.040 6.082,19.040 6.060 C 19.040 6.008,16.992 3.960,16.940 3.960 C 16.918 3.960,15.798 5.062,14.450 6.410 L 12.000 8.860 9.550 6.410 C 8.202 5.062,7.082 3.960,7.060 3.960 C 7.037 3.960,6.556 4.424,5.990 4.990 M5.990 11.990 C 5.423 12.557,4.960 13.038,4.960 13.060 C 4.960 13.082,6.544 14.684,8.480 16.620 L 12.000 20.140 15.520 16.620 C 17.456 14.684,19.040 13.082,19.040 13.060 C 19.040 13.008,16.992 10.960,16.940 10.960 C 16.918 10.960,15.798 12.062,14.450 13.410 L 12.000 15.860 9.550 13.410 C 8.202 12.062,7.082 10.960,7.060 10.960 C 7.037 10.960,6.556 11.424,5.990 11.990 " stroke="none" fill-rule="evenodd" fill="black"></path></svg>