<svg viewBox="0 0 24 24" xmlns="http://www.w3.org/2000/svg"><path d="M3.580 3.047 C 2.858 3.185,2.199 3.848,2.044 4.592 C 1.982 4.892,1.982 19.108,2.044 19.408 C 2.201 20.158,2.842 20.799,3.592 20.956 C 3.892 21.018,20.108 21.018,20.408 20.956 C 21.158 20.799,21.799 20.158,21.956 19.408 C 22.018 19.108,22.018 4.892,21.956 4.592 C 21.817 3.927,21.322 3.365,20.647 3.107 L 20.420 3.020 12.100 3.014 C 6.933 3.011,3.704 3.023,3.580 3.047 M20.000 8.500 L 20.000 12.000 17.926 12.000 L 15.853 12.000 15.802 12.170 C 15.631 12.749,15.299 13.305,14.845 13.774 C 14.462 14.169,14.151 14.393,13.674 14.617 C 13.086 14.893,12.692 14.978,12.000 14.978 C 11.308 14.978,10.914 14.893,10.326 14.617 C 9.830 14.384,9.526 14.161,9.118 13.731 C 8.721 13.312,8.424 12.834,8.259 12.346 L 8.141 12.000 6.071 12.000 L 4.000 12.000 4.000 8.500 L 4.000 5.000 12.000 5.000 L 20.000 5.000 20.000 8.500 " stroke="none" fill-rule="evenodd" fill="black"></path></svg>