<svg viewBox="0 0 24 24" xmlns="http://www.w3.org/2000/svg"><path d="M4.580 3.047 C 3.859 3.185,3.199 3.848,3.044 4.592 C 2.982 4.892,2.982 19.108,3.044 19.408 C 3.201 20.158,3.842 20.799,4.592 20.956 C 4.892 21.018,19.108 21.018,19.408 20.956 C 20.158 20.799,20.799 20.158,20.956 19.408 C 21.018 19.108,21.018 4.892,20.956 4.592 C 20.797 3.830,20.138 3.181,19.383 3.043 C 19.076 2.987,4.875 2.991,4.580 3.047 M10.610 9.190 L 12.000 10.580 13.400 9.180 L 14.800 7.780 15.510 8.490 L 16.220 9.200 14.820 10.600 L 13.420 12.000 14.810 13.390 L 16.200 14.780 15.490 15.490 L 14.780 16.200 13.390 14.810 L 12.000 13.420 10.610 14.810 L 9.220 16.200 8.510 15.490 L 7.800 14.780 9.190 13.390 L 10.580 12.000 9.180 10.600 L 7.781 9.200 8.480 8.500 C 8.864 8.115,9.188 7.800,9.199 7.800 C 9.210 7.800,9.845 8.425,10.610 9.190 " stroke="none" fill-rule="evenodd" fill="black"></path></svg>