<svg viewBox="0 0 24 24" xmlns="http://www.w3.org/2000/svg"><path d="M7.970 3.010 L 7.280 3.700 8.430 4.850 L 9.579 6.000 6.674 8.910 C 3.860 11.728,3.764 11.829,3.626 12.120 C 3.343 12.717,3.343 13.282,3.626 13.880 C 3.764 14.171,3.857 14.269,6.794 17.206 C 9.731 20.143,9.829 20.236,10.120 20.374 C 10.718 20.657,11.283 20.657,11.880 20.374 C 12.172 20.235,12.276 20.136,15.800 16.616 L 19.420 13.001 14.080 7.660 C 11.143 4.723,8.722 2.320,8.700 2.320 C 8.678 2.320,8.349 2.630,7.970 3.010 M13.800 10.220 L 16.580 13.000 11.000 13.000 L 5.420 13.000 8.200 10.220 C 9.729 8.691,10.989 7.440,11.000 7.440 C 11.011 7.440,12.271 8.691,13.800 10.220 M19.596 14.442 C 18.798 15.381,18.251 16.302,18.075 17.000 C 17.977 17.388,17.986 17.875,18.100 18.300 C 18.380 19.352,19.274 20.072,20.194 19.986 C 20.944 19.916,21.655 19.214,21.900 18.300 C 22.001 17.927,22.020 17.351,21.944 17.027 C 21.764 16.265,21.203 15.328,20.339 14.350 C 20.169 14.158,20.017 14.000,20.001 14.000 C 19.985 14.000,19.802 14.199,19.596 14.442 " stroke="none" fill-rule="evenodd" fill="black"></path></svg>