<svg viewBox="0 0 24 24" xmlns="http://www.w3.org/2000/svg"><path d="M10.580 2.047 C 9.859 2.185,9.199 2.848,9.044 3.592 C 9.014 3.736,9.000 4.795,9.000 6.902 L 9.000 10.000 6.927 10.000 C 5.611 10.000,4.768 10.016,4.617 10.043 C 3.849 10.184,3.188 10.845,3.041 11.620 C 3.009 11.793,3.000 13.186,3.008 16.580 L 3.020 21.300 3.131 21.489 C 3.192 21.592,3.301 21.723,3.374 21.778 C 3.684 22.015,3.106 22.000,11.998 22.000 C 21.144 22.000,20.376 22.026,20.701 21.701 C 21.027 21.375,21.000 22.207,21.000 12.475 C 21.000 6.299,20.987 3.743,20.956 3.592 C 20.797 2.830,20.138 2.181,19.383 2.043 C 19.079 1.988,10.873 1.991,10.580 2.047 M14.000 7.000 L 14.000 8.000 13.000 8.000 L 12.000 8.000 12.000 7.000 L 12.000 6.000 13.000 6.000 L 14.000 6.000 14.000 7.000 M18.000 7.000 L 18.000 8.000 17.000 8.000 L 16.000 8.000 16.000 7.000 L 16.000 6.000 17.000 6.000 L 18.000 6.000 18.000 7.000 M18.000 11.000 L 18.000 12.000 17.000 12.000 L 16.000 12.000 16.000 11.000 L 16.000 10.000 17.000 10.000 L 18.000 10.000 18.000 11.000 M11.000 16.000 L 11.000 20.000 8.000 20.000 L 5.000 20.000 5.000 16.000 L 5.000 12.000 8.000 12.000 L 11.000 12.000 11.000 16.000 M7.000 15.000 L 7.000 16.000 8.000 16.000 L 9.000 16.000 9.000 15.000 L 9.000 14.000 8.000 14.000 L 7.000 14.000 7.000 15.000 M18.000 15.000 L 18.000 16.000 17.000 16.000 L 16.000 16.000 16.000 15.000 L 16.000 14.000 17.000 14.000 L 18.000 14.000 18.000 15.000 " stroke="none" fill-rule="evenodd" fill="black"></path></svg>