<svg viewBox="0 0 24 24" xmlns="http://www.w3.org/2000/svg"><path d="M11.000 2.045 C 8.713 2.227,6.532 3.063,4.900 4.381 C 4.449 4.746,3.733 5.480,3.420 5.899 C 2.758 6.786,2.326 7.747,2.112 8.810 C 2.035 9.189,2.021 9.383,2.023 10.040 C 2.025 10.930,2.086 11.303,2.361 12.132 C 2.988 14.014,4.521 15.682,6.587 16.731 L 7.000 16.940 7.000 19.470 L 7.000 22.000 9.650 20.011 L 12.300 18.022 12.880 17.972 C 15.755 17.721,18.117 16.691,19.848 14.934 C 20.973 13.792,21.612 12.602,21.907 11.100 C 22.016 10.543,22.007 9.402,21.887 8.807 C 21.610 7.425,20.976 6.239,19.941 5.164 C 18.807 3.988,17.388 3.119,15.723 2.582 C 14.249 2.107,12.587 1.918,11.000 2.045 M10.110 8.139 C 10.415 8.278,10.725 8.589,10.866 8.896 C 10.962 9.105,10.978 9.191,10.978 9.500 C 10.979 9.810,10.963 9.893,10.867 10.100 C 10.722 10.415,10.413 10.724,10.104 10.867 C 9.894 10.965,9.811 10.980,9.500 10.980 C 9.190 10.980,9.107 10.965,8.900 10.868 C 8.584 10.721,8.275 10.413,8.134 10.104 C 8.038 9.895,8.022 9.809,8.022 9.500 C 8.021 9.190,8.037 9.107,8.133 8.900 C 8.324 8.489,8.727 8.148,9.150 8.041 C 9.407 7.976,9.852 8.022,10.110 8.139 M15.110 8.139 C 15.415 8.278,15.725 8.589,15.866 8.896 C 15.962 9.105,15.978 9.191,15.978 9.500 C 15.979 9.810,15.963 9.893,15.867 10.100 C 15.722 10.415,15.413 10.724,15.104 10.867 C 14.894 10.965,14.811 10.980,14.500 10.980 C 14.190 10.980,14.107 10.965,13.900 10.868 C 13.584 10.721,13.275 10.413,13.134 10.104 C 13.038 9.895,13.022 9.809,13.022 9.500 C 13.021 9.190,13.037 9.107,13.133 8.900 C 13.324 8.489,13.727 8.148,14.150 8.041 C 14.407 7.976,14.852 8.022,15.110 8.139 " stroke="none" fill-rule="evenodd" fill="black"></path></svg>