<svg viewBox="0 0 24 24" xmlns="http://www.w3.org/2000/svg"><path d="M11.573 2.615 C 11.389 2.703,11.041 3.079,8.393 6.056 C 6.758 7.895,5.380 9.476,5.331 9.570 C 5.230 9.763,5.212 10.077,5.286 10.326 C 5.347 10.526,5.565 10.779,5.774 10.891 L 5.940 10.980 12.000 10.980 L 18.060 10.980 18.226 10.891 C 18.686 10.645,18.896 10.044,18.679 9.590 C 18.554 9.327,12.661 2.725,12.460 2.623 C 12.210 2.496,11.830 2.492,11.573 2.615 M5.960 13.037 C 5.650 13.132,5.369 13.397,5.286 13.674 C 5.215 13.912,5.229 14.219,5.321 14.410 C 5.368 14.510,6.633 15.963,8.391 17.938 C 10.794 20.638,11.415 21.314,11.560 21.387 C 11.809 21.512,12.191 21.512,12.440 21.387 C 12.585 21.314,13.206 20.638,15.609 17.938 C 17.367 15.963,18.632 14.510,18.679 14.410 C 18.771 14.219,18.785 13.912,18.714 13.674 C 18.653 13.474,18.435 13.221,18.226 13.109 L 18.060 13.020 12.060 13.013 C 8.760 13.009,6.015 13.020,5.960 13.037 " stroke="none" fill-rule="evenodd" fill="black"></path></svg>