<svg viewBox="0 0 24 24" xmlns="http://www.w3.org/2000/svg"><path d="M10.664 2.062 C 10.458 2.139,10.267 2.288,10.167 2.449 C 10.094 2.567,8.200 7.877,8.200 7.964 C 8.200 7.985,9.750 8.000,12.004 8.000 L 15.809 8.000 15.786 7.910 C 15.773 7.861,15.342 6.626,14.826 5.167 C 13.812 2.296,13.817 2.305,13.457 2.120 C 13.263 2.020,13.259 2.020,12.041 2.012 C 11.056 2.006,10.790 2.015,10.664 2.062 M7.465 10.032 C 7.434 10.082,6.080 13.929,6.080 13.967 C 6.080 13.985,8.744 14.000,12.000 14.000 C 16.711 14.000,17.919 13.990,17.917 13.950 C 17.916 13.922,17.605 13.027,17.227 11.960 L 16.539 10.020 12.012 10.010 C 9.522 10.004,7.476 10.014,7.465 10.032 M5.330 16.070 C 5.315 16.108,5.077 16.779,4.801 17.560 L 4.299 18.980 3.150 18.991 L 2.000 19.001 2.000 20.001 L 2.000 21.000 12.000 21.000 L 22.000 21.000 22.000 20.001 L 22.000 19.001 20.850 18.991 L 19.701 18.980 19.179 17.500 L 18.656 16.020 12.007 16.010 C 5.702 16.000,5.356 16.003,5.330 16.070 " stroke="none" fill-rule="evenodd" fill="black"></path></svg>