<svg viewBox="0 0 24 24" xmlns="http://www.w3.org/2000/svg"><path d="M2.664 3.063 C 2.436 3.146,2.257 3.297,2.131 3.511 L 2.020 3.700 2.009 10.980 C 1.997 18.965,1.985 18.541,2.233 19.149 C 2.514 19.839,3.161 20.486,3.850 20.767 C 4.453 21.012,4.024 21.000,12.008 20.999 C 19.850 20.999,19.516 21.007,20.075 20.798 C 20.789 20.531,21.478 19.859,21.767 19.150 C 22.000 18.578,22.000 18.570,22.000 15.142 L 22.000 12.000 21.000 12.000 L 20.000 12.000 20.000 15.073 C 20.000 18.536,20.012 18.390,19.701 18.701 C 19.310 19.092,18.690 19.092,18.299 18.701 C 17.975 18.377,18.000 19.023,18.000 11.000 C 18.000 2.977,18.025 3.623,17.701 3.299 C 17.377 2.975,18.026 3.000,9.983 3.003 C 3.871 3.005,2.797 3.014,2.664 3.063 M14.000 8.000 L 14.000 9.000 10.000 9.000 L 6.000 9.000 6.000 8.000 L 6.000 7.000 10.000 7.000 L 14.000 7.000 14.000 8.000 M14.000 12.000 L 14.000 13.000 10.000 13.000 L 6.000 13.000 6.000 12.000 L 6.000 11.000 10.000 11.000 L 14.000 11.000 14.000 12.000 M14.000 16.000 L 14.000 17.000 12.500 17.000 L 11.000 17.000 11.000 16.000 L 11.000 15.000 12.500 15.000 L 14.000 15.000 14.000 16.000 " stroke="none" fill-rule="evenodd" fill="black"></path></svg>