<svg viewBox="0 0 24 24" xmlns="http://www.w3.org/2000/svg"><path d="M11.120 2.039 C 8.020 2.349,5.361 3.939,3.659 6.500 C 1.048 10.428,1.568 15.667,4.900 19.022 C 5.878 20.007,6.984 20.750,8.220 21.254 C 11.958 22.779,16.203 21.920,19.062 19.062 C 23.445 14.678,22.834 7.442,17.778 3.853 C 16.479 2.930,15.094 2.370,13.493 2.119 C 12.909 2.027,11.660 1.985,11.120 2.039 M16.010 8.990 C 16.378 9.358,16.680 9.677,16.680 9.700 C 16.680 9.722,15.177 11.243,13.340 13.080 L 10.000 16.420 8.160 14.580 C 7.148 13.568,6.320 12.722,6.320 12.701 C 6.320 12.648,7.647 11.320,7.699 11.320 C 7.721 11.320,8.248 11.828,8.870 12.450 L 10.000 13.580 12.630 10.950 C 14.076 9.503,15.278 8.320,15.300 8.320 C 15.321 8.320,15.641 8.621,16.010 8.990 " stroke="none" fill-rule="evenodd" fill="black"></path></svg>