<svg viewBox="0 0 24 24" xmlns="http://www.w3.org/2000/svg"><path d="M11.000 2.025 C 6.875 2.270,3.861 3.670,3.144 5.673 L 3.020 6.020 3.020 12.000 L 3.020 17.980 3.144 18.327 C 3.926 20.510,7.518 22.000,12.000 22.000 C 13.623 22.000,15.131 21.808,16.526 21.424 C 18.792 20.800,20.376 19.667,20.856 18.327 L 20.980 17.980 20.980 12.000 L 20.980 6.020 20.856 5.673 C 20.197 3.833,17.565 2.477,13.920 2.099 C 13.355 2.041,11.520 1.994,11.000 2.025 M13.120 4.041 C 14.887 4.165,16.319 4.494,17.473 5.042 C 18.220 5.396,18.743 5.819,18.921 6.209 C 19.025 6.438,19.020 6.564,18.897 6.807 C 18.522 7.546,17.099 8.280,15.278 8.674 C 13.444 9.070,11.039 9.102,9.120 8.756 C 7.098 8.391,5.439 7.584,5.079 6.791 C 4.932 6.466,5.013 6.191,5.366 5.817 C 6.520 4.597,9.923 3.818,13.120 4.041 " stroke="none" fill-rule="evenodd" fill="black"></path></svg>