<svg viewBox="0 0 24 24" xmlns="http://www.w3.org/2000/svg"><path d="M3.664 3.063 C 3.436 3.146,3.257 3.297,3.131 3.511 L 3.020 3.700 3.008 5.235 C 2.995 6.926,3.005 7.024,3.224 7.485 C 3.360 7.771,3.486 7.901,7.182 11.600 L 11.000 15.421 11.000 18.720 L 11.000 22.019 12.000 21.020 L 13.000 20.021 13.000 17.721 L 13.000 15.421 16.816 11.600 C 20.200 8.213,20.646 7.752,20.757 7.530 C 20.990 7.062,21.000 6.968,21.000 5.339 C 21.000 3.647,20.991 3.589,20.701 3.299 C 20.376 2.973,21.147 3.000,11.983 3.003 C 5.003 3.005,3.797 3.014,3.664 3.063 " stroke="none" fill-rule="evenodd" fill="black"></path></svg>