<svg viewBox="0 0 24 24" xmlns="http://www.w3.org/2000/svg"><path d="M7.580 5.080 C 6.668 5.183,5.804 5.648,5.261 6.329 C 5.012 6.641,4.724 7.210,4.626 7.580 C 4.310 8.780,4.606 10.077,5.389 10.922 C 6.081 11.670,6.946 12.040,8.000 12.040 C 8.762 12.040,9.382 11.858,9.983 11.459 C 11.458 10.479,11.935 8.456,11.074 6.842 C 10.421 5.619,9.027 4.916,7.580 5.080 M14.970 9.010 L 14.280 9.700 15.430 10.850 L 16.579 12.000 15.440 13.140 L 14.300 14.280 15.010 14.990 L 15.720 15.700 16.860 14.560 L 18.000 13.421 19.140 14.560 L 20.280 15.700 20.990 14.990 L 21.700 14.280 20.560 13.140 L 19.421 12.000 20.570 10.850 L 21.720 9.699 21.030 9.010 C 20.650 8.630,20.321 8.320,20.300 8.320 C 20.278 8.320,19.752 8.828,19.130 9.450 L 18.000 10.579 16.870 9.450 C 16.248 8.828,15.722 8.320,15.700 8.320 C 15.678 8.320,15.349 8.630,14.970 9.010 M6.340 13.046 C 4.610 13.266,3.055 14.467,2.376 16.107 C 2.105 16.760,2.034 17.158,2.011 18.130 L 1.990 19.000 8.000 19.000 L 14.010 19.000 13.989 18.130 C 13.966 17.158,13.895 16.760,13.624 16.107 C 12.934 14.441,11.385 13.260,9.601 13.042 C 9.196 12.992,6.738 12.995,6.340 13.046 " stroke="none" fill-rule="evenodd" fill="black"></path></svg>