<svg viewBox="0 0 24 24" xmlns="http://www.w3.org/2000/svg"><path d="M3.580 4.047 C 2.858 4.185,2.199 4.848,2.044 5.592 C 1.982 5.891,1.982 18.109,2.044 18.408 C 2.201 19.158,2.842 19.799,3.592 19.956 C 3.892 20.018,20.108 20.018,20.408 19.956 C 21.158 19.799,21.799 19.158,21.956 18.408 C 22.018 18.109,22.018 5.891,21.956 5.592 C 21.817 4.927,21.322 4.365,20.647 4.107 L 20.420 4.020 12.100 4.014 C 6.933 4.011,3.704 4.023,3.580 4.047 M9.165 8.058 C 10.195 8.276,10.851 9.247,10.686 10.310 C 10.537 11.279,9.830 11.921,8.840 11.987 C 7.667 12.066,6.732 11.201,6.722 10.028 C 6.711 8.689,7.842 7.777,9.165 8.058 M19.000 10.000 L 19.000 11.000 16.500 11.000 L 14.000 11.000 14.000 10.000 L 14.000 9.000 16.500 9.000 L 19.000 9.000 19.000 10.000 M9.819 12.896 C 10.561 13.089,11.289 13.513,11.760 14.027 C 12.206 14.514,12.393 14.948,12.429 15.586 L 12.452 16.000 8.726 16.000 L 5.000 16.000 5.000 15.668 C 5.000 15.486,5.028 15.231,5.061 15.102 C 5.342 14.025,6.528 13.085,7.940 12.822 C 8.437 12.729,9.310 12.764,9.819 12.896 M19.000 14.000 L 19.000 15.000 17.000 15.000 L 15.000 15.000 15.000 14.000 L 15.000 13.000 17.000 13.000 L 19.000 13.000 19.000 14.000 " stroke="none" fill-rule="evenodd" fill="black"></path></svg>