<svg viewBox="0 0 24 24" xmlns="http://www.w3.org/2000/svg"><path d="M11.120 2.039 C 8.020 2.349,5.361 3.939,3.659 6.500 C 1.048 10.428,1.568 15.667,4.900 19.022 C 5.878 20.007,6.984 20.750,8.220 21.254 C 11.958 22.779,16.203 21.920,19.062 19.062 C 23.445 14.678,22.834 7.442,17.778 3.853 C 16.479 2.930,15.094 2.370,13.493 2.119 C 12.909 2.027,11.660 1.985,11.120 2.039 M12.545 6.043 C 13.405 6.163,14.236 6.589,14.829 7.214 C 15.152 7.555,15.347 7.841,15.561 8.288 C 15.826 8.843,15.893 9.163,15.897 9.880 C 15.900 10.424,15.889 10.537,15.806 10.799 C 15.554 11.601,15.102 12.178,14.016 13.082 C 13.259 13.713,13.003 14.042,13.001 14.390 L 13.000 14.520 12.000 14.520 L 11.000 14.520 11.001 14.350 C 11.002 14.100,11.103 13.656,11.227 13.360 C 11.503 12.702,11.826 12.304,12.625 11.639 C 13.684 10.758,13.920 10.443,13.920 9.912 C 13.920 8.799,12.821 7.884,11.710 8.073 C 10.977 8.198,10.369 8.719,10.156 9.404 C 10.114 9.538,10.080 9.709,10.080 9.784 L 10.080 9.920 9.074 9.920 L 8.068 9.920 8.092 9.590 C 8.155 8.727,8.540 7.880,9.171 7.214 C 10.030 6.309,11.296 5.869,12.545 6.043 M13.000 17.000 L 13.000 18.000 12.000 18.000 L 11.000 18.000 11.000 17.000 L 11.000 16.000 12.000 16.000 L 13.000 16.000 13.000 17.000 " stroke="none" fill-rule="evenodd" fill="black"></path></svg>