<svg viewBox="0 0 24 24" xmlns="http://www.w3.org/2000/svg"><path d="M11.080 2.039 C 7.569 2.390,4.577 4.452,3.040 7.580 C 2.387 8.910,2.069 10.168,2.014 11.640 C 1.910 14.403,2.946 17.055,4.900 19.022 C 5.878 20.007,6.984 20.750,8.220 21.254 C 11.958 22.779,16.203 21.920,19.062 19.062 C 22.730 15.393,22.993 9.589,19.671 5.610 C 19.346 5.221,18.636 4.527,18.234 4.205 C 17.101 3.300,15.674 2.602,14.284 2.276 C 13.368 2.060,11.932 1.954,11.080 2.039 M13.000 10.000 L 13.000 13.000 12.000 13.000 L 11.000 13.000 11.000 10.000 L 11.000 7.000 12.000 7.000 L 13.000 7.000 13.000 10.000 M13.000 16.000 L 13.000 17.000 12.000 17.000 L 11.000 17.000 11.000 16.000 L 11.000 15.000 12.000 15.000 L 13.000 15.000 13.000 16.000 " stroke="none" fill-rule="evenodd" fill="black"></path></svg>