<svg viewBox="0 0 24 24" xmlns="http://www.w3.org/2000/svg"><path d="M11.524 2.146 C 11.317 2.248,11.181 2.425,6.699 8.402 C 3.569 12.575,2.072 14.602,2.043 14.706 C 1.958 15.014,2.017 15.342,2.204 15.606 C 2.307 15.750,11.451 21.859,11.690 21.944 C 11.899 22.017,12.104 22.015,12.323 21.937 C 12.420 21.902,14.579 20.485,17.120 18.787 C 21.329 15.975,21.750 15.684,21.852 15.516 C 21.985 15.297,22.030 14.978,21.962 14.727 C 21.927 14.596,20.804 13.073,17.302 8.403 C 12.819 2.425,12.683 2.248,12.476 2.146 C 12.180 1.998,11.820 1.998,11.524 2.146 M19.470 14.628 L 19.566 14.756 15.783 17.278 L 12.000 19.800 12.000 12.233 L 12.000 4.667 15.687 9.583 C 17.714 12.288,19.417 14.558,19.470 14.628 " stroke="none" fill-rule="evenodd" fill="black"></path></svg>