<svg viewBox="0 0 24 24" xmlns="http://www.w3.org/2000/svg"><path d="M3.580 2.047 C 2.858 2.185,2.199 2.848,2.044 3.592 C 2.013 3.743,2.000 6.417,2.000 12.912 L 2.000 22.020 4.010 20.010 L 6.020 18.000 13.108 18.000 C 18.128 18.000,20.258 17.987,20.408 17.956 C 21.158 17.799,21.799 17.158,21.956 16.408 C 22.018 16.109,22.018 3.891,21.956 3.592 C 21.817 2.927,21.322 2.365,20.647 2.107 L 20.420 2.020 12.100 2.014 C 6.933 2.011,3.704 2.023,3.580 2.047 M9.383 8.043 C 10.185 8.190,10.839 8.872,10.967 9.695 C 11.153 10.894,10.209 12.000,9.000 12.000 C 8.032 12.000,7.183 11.268,7.033 10.305 C 6.933 9.663,7.132 9.061,7.596 8.596 C 8.085 8.108,8.698 7.918,9.383 8.043 M15.383 8.043 C 16.185 8.190,16.839 8.872,16.967 9.695 C 17.153 10.894,16.209 12.000,15.000 12.000 C 14.032 12.000,13.183 11.268,13.033 10.305 C 12.933 9.663,13.132 9.061,13.596 8.596 C 14.085 8.108,14.698 7.918,15.383 8.043 " stroke="none" fill-rule="evenodd" fill="black"></path></svg>