<svg viewBox="0 0 24 24" xmlns="http://www.w3.org/2000/svg"><path d="M7.580 2.047 C 7.116 2.136,6.589 2.500,6.322 2.917 C 6.166 3.160,6.049 3.486,6.015 3.776 L 5.989 3.999 12.205 4.009 L 18.420 4.020 18.644 4.106 C 19.243 4.335,19.665 4.756,19.893 5.353 L 19.980 5.580 19.991 9.795 L 20.002 14.011 20.224 13.985 C 21.069 13.885,21.783 13.235,21.956 12.408 C 22.018 12.111,22.018 3.889,21.956 3.592 C 21.817 2.927,21.322 2.365,20.647 2.107 L 20.420 2.020 14.100 2.014 C 10.198 2.010,7.704 2.023,7.580 2.047 M3.580 6.047 C 2.858 6.186,2.199 6.848,2.044 7.592 C 1.982 7.889,1.982 16.111,2.044 16.408 C 2.201 17.158,2.842 17.799,3.592 17.956 C 3.717 17.982,4.255 18.000,4.902 18.000 L 6.000 18.000 6.000 20.040 L 6.000 22.080 8.550 20.040 L 11.100 18.000 13.648 18.000 C 15.354 18.000,16.266 17.985,16.408 17.956 C 17.158 17.799,17.799 17.158,17.956 16.408 C 18.018 16.111,18.018 7.889,17.956 7.592 C 17.817 6.927,17.322 6.365,16.647 6.107 L 16.420 6.020 10.100 6.014 C 6.198 6.010,3.704 6.023,3.580 6.047 " stroke="none" fill-rule="evenodd" fill="black"></path></svg>