<svg viewBox="0 0 24 24" xmlns="http://www.w3.org/2000/svg"><path d="M14.000 1.992 L 14.000 2.984 14.299 3.027 C 14.882 3.111,15.526 3.534,15.732 3.969 C 15.911 4.346,15.753 4.832,15.312 5.268 L 15.060 5.517 14.680 5.216 C 13.855 4.563,12.568 3.763,11.638 3.325 C 10.078 2.591,8.584 2.462,7.656 2.981 C 7.326 3.165,7.035 3.442,6.859 3.740 C 6.675 4.050,5.101 8.800,5.136 8.939 C 5.180 9.112,5.685 10.219,5.949 10.720 C 7.771 14.177,10.309 16.738,13.420 18.261 C 14.046 18.568,14.890 18.920,14.998 18.920 C 15.113 18.920,20.078 17.248,20.215 17.163 C 20.434 17.028,20.890 16.519,21.031 16.252 C 21.437 15.485,21.427 14.423,21.001 13.188 C 20.685 12.272,20.217 11.353,19.580 10.399 C 19.411 10.147,19.264 9.927,19.255 9.911 C 19.225 9.864,19.990 9.500,20.440 9.347 C 21.098 9.123,21.572 9.039,22.330 9.012 L 23.000 8.988 23.000 7.994 L 23.000 7.000 22.482 7.000 C 21.026 7.000,19.562 7.402,18.229 8.167 L 17.997 8.300 17.690 7.960 C 17.521 7.773,17.210 7.443,16.999 7.226 L 16.614 6.832 16.917 6.523 C 17.344 6.087,17.579 5.666,17.747 5.035 C 17.850 4.647,17.839 3.949,17.724 3.533 C 17.458 2.577,16.519 1.631,15.446 1.240 C 15.099 1.113,14.508 1.000,14.190 1.000 L 14.000 1.000 14.000 1.992 M9.601 4.697 C 10.485 4.884,11.795 5.544,12.980 6.400 L 13.333 6.655 13.177 6.721 C 12.980 6.804,12.440 6.947,12.190 6.982 L 12.000 7.009 12.000 8.009 L 12.000 9.009 12.270 8.982 C 13.016 8.906,13.873 8.650,14.564 8.296 L 15.002 8.072 15.331 8.371 C 15.668 8.677,16.662 9.742,16.657 9.792 C 16.656 9.807,16.571 9.995,16.468 10.209 C 16.103 10.967,15.946 11.712,15.966 12.585 C 15.974 12.898,15.990 13.163,16.002 13.175 C 16.014 13.187,16.464 13.111,17.002 13.007 L 17.980 12.817 17.967 12.358 C 17.960 12.106,17.970 11.856,17.991 11.802 C 18.025 11.711,18.047 11.738,18.293 12.150 C 18.961 13.276,19.319 14.231,19.320 14.888 C 19.320 15.249,19.273 15.340,19.053 15.402 C 18.185 15.645,16.075 14.686,14.187 13.189 C 13.218 12.421,11.811 11.050,11.062 10.145 C 10.057 8.929,9.195 7.568,8.783 6.544 C 8.446 5.708,8.420 4.806,8.728 4.682 C 8.866 4.627,9.306 4.634,9.601 4.697 M3.227 14.532 C 2.593 16.450,2.055 18.137,2.033 18.280 C 1.947 18.827,2.083 19.650,2.345 20.172 C 2.981 21.439,4.389 22.175,5.760 21.958 C 5.984 21.923,12.760 19.698,12.760 19.660 C 12.760 19.652,12.558 19.535,12.311 19.399 C 11.193 18.783,10.151 18.063,9.140 17.205 C 8.618 16.763,7.468 15.607,7.045 15.100 C 6.072 13.933,5.179 12.578,4.575 11.350 C 4.491 11.180,4.413 11.041,4.401 11.042 C 4.390 11.042,3.861 12.613,3.227 14.532 " stroke="none" fill-rule="evenodd" fill="black"></path></svg>