<svg viewBox="0 0 24 24" xmlns="http://www.w3.org/2000/svg"><path d="M7.970 3.010 L 7.280 3.700 8.430 4.850 L 9.579 6.000 6.717 6.000 C 4.834 6.000,3.773 6.015,3.617 6.043 C 2.862 6.181,2.203 6.830,2.044 7.592 C 1.982 7.891,1.982 19.109,2.044 19.408 C 2.201 20.158,2.842 20.799,3.592 20.956 C 3.892 21.018,20.108 21.018,20.408 20.956 C 21.158 20.799,21.799 20.158,21.956 19.408 C 22.018 19.109,22.018 7.891,21.956 7.592 C 21.817 6.927,21.320 6.363,20.647 6.107 C 20.424 6.022,20.370 6.021,17.430 6.001 L 14.439 5.980 15.580 4.840 L 16.720 3.701 16.030 3.010 C 15.651 2.631,15.323 2.320,15.301 2.320 C 15.278 2.320,14.527 3.053,13.630 3.950 L 12.000 5.580 10.370 3.950 C 9.473 3.053,8.722 2.320,8.700 2.320 C 8.678 2.320,8.349 2.630,7.970 3.010 " stroke="none" fill-rule="evenodd" fill="black"></path></svg>