<svg viewBox="0 0 24 24" xmlns="http://www.w3.org/2000/svg"><path d="M5.000 2.695 C 5.000 4.206,5.339 5.120,6.299 6.199 C 6.611 6.550,6.855 7.015,6.940 7.420 C 6.977 7.598,6.999 7.936,6.999 8.350 L 7.000 9.000 8.000 9.000 L 9.000 9.000 9.000 8.285 C 9.000 6.741,8.662 5.821,7.703 4.758 C 7.388 4.409,7.146 3.949,7.060 3.540 C 7.023 3.364,7.001 3.026,7.001 2.630 L 7.000 2.000 6.000 2.000 L 5.000 2.000 5.000 2.695 M9.010 2.850 C 9.028 3.592,9.043 3.748,9.131 4.080 C 9.336 4.850,9.675 5.472,10.233 6.100 C 10.571 6.481,10.771 6.806,10.887 7.160 C 10.957 7.377,10.974 7.550,10.990 8.210 L 11.009 9.000 12.005 9.000 L 13.000 9.000 13.000 8.285 C 13.000 6.741,12.662 5.821,11.703 4.758 C 11.388 4.409,11.146 3.949,11.060 3.540 C 11.023 3.364,11.001 3.026,11.001 2.630 L 11.000 2.000 9.995 2.000 L 8.990 2.000 9.010 2.850 M13.010 2.850 C 13.028 3.592,13.043 3.748,13.131 4.080 C 13.336 4.850,13.675 5.472,14.233 6.100 C 14.571 6.481,14.771 6.806,14.887 7.160 C 14.957 7.377,14.974 7.550,14.990 8.210 L 15.009 9.000 16.005 9.000 L 17.000 9.000 17.000 8.285 C 17.000 6.741,16.662 5.821,15.703 4.758 C 15.388 4.409,15.146 3.949,15.060 3.540 C 15.023 3.364,15.001 3.026,15.001 2.630 L 15.000 2.000 13.995 2.000 L 12.990 2.000 13.010 2.850 M2.664 10.063 C 2.437 10.146,2.257 10.297,2.133 10.508 C 1.997 10.741,1.969 11.137,2.037 11.870 C 2.221 13.841,2.968 15.703,4.199 17.260 C 4.792 18.010,5.794 18.903,6.647 19.441 L 6.994 19.660 7.007 20.480 C 7.020 21.293,7.021 21.301,7.131 21.489 C 7.192 21.592,7.301 21.723,7.374 21.778 C 7.677 22.009,7.484 22.000,11.998 22.000 C 16.663 22.000,16.384 22.018,16.701 21.701 C 16.962 21.441,17.000 21.275,17.001 20.403 L 17.002 19.660 17.351 19.441 C 19.931 17.822,21.654 15.017,21.957 11.943 C 22.054 10.959,21.997 10.595,21.701 10.299 C 21.375 9.972,22.267 10.000,11.983 10.003 C 4.135 10.005,2.798 10.014,2.664 10.063 " stroke="none" fill-rule="evenodd" fill="black"></path></svg>