<svg viewBox="0 0 24 24" xmlns="http://www.w3.org/2000/svg"><path d="M5.960 4.062 C 5.542 4.151,5.069 4.414,4.741 4.739 C 3.759 5.714,3.759 7.277,4.742 8.264 C 5.710 9.237,7.288 9.236,8.262 8.262 C 9.237 7.287,9.237 5.703,8.262 4.740 C 7.649 4.135,6.795 3.884,5.960 4.062 M11.518 11.029 C 10.168 13.224,8.998 15.124,8.919 15.250 L 8.774 15.481 7.902 14.259 C 7.422 13.587,7.012 13.043,6.991 13.050 C 6.970 13.057,5.841 14.619,4.482 16.521 L 2.011 19.980 7.006 19.990 C 9.753 19.996,14.248 19.996,16.995 19.990 L 21.991 19.980 18.015 13.520 C 15.829 9.967,14.025 7.055,14.007 7.049 C 13.988 7.043,12.869 8.834,11.518 11.029 " stroke="none" fill-rule="evenodd" fill="black"></path></svg>