<svg viewBox="0 0 24 24" xmlns="http://www.w3.org/2000/svg"><path d="M4.580 2.047 C 3.859 2.185,3.199 2.848,3.044 3.592 C 3.014 3.738,3.000 4.984,3.001 7.612 C 3.001 11.751,2.998 11.681,3.225 12.130 C 3.367 12.410,3.753 12.804,4.032 12.953 C 4.158 13.019,4.368 13.103,4.500 13.138 C 4.632 13.173,6.297 13.372,8.200 13.581 C 10.103 13.790,11.737 13.972,11.830 13.985 L 12.000 14.009 12.000 17.103 C 12.000 19.206,12.014 20.264,12.044 20.408 C 12.201 21.158,12.842 21.799,13.592 21.956 C 14.565 22.159,15.530 21.612,15.892 20.654 L 15.980 20.420 16.000 14.214 L 16.020 8.008 17.560 8.626 C 18.407 8.965,19.208 9.269,19.340 9.301 C 19.978 9.455,20.629 9.272,21.137 8.797 C 21.419 8.533,21.577 8.263,21.740 7.765 C 21.907 7.256,21.837 6.922,21.493 6.593 C 21.409 6.513,20.171 5.474,18.743 4.285 C 16.787 2.657,16.101 2.107,15.966 2.061 C 15.807 2.007,15.129 2.001,10.283 2.004 C 6.988 2.007,4.700 2.024,4.580 2.047 " stroke="none" fill-rule="evenodd" fill="black"></path></svg>