<svg viewBox="0 0 24 24" xmlns="http://www.w3.org/2000/svg"><path d="M11.640 2.070 C 11.508 2.116,11.342 2.249,11.017 2.567 L 10.573 3.000 8.214 3.000 C 5.579 3.000,5.610 2.997,5.323 3.275 C 5.152 3.440,2.149 8.421,2.057 8.692 C 2.007 8.837,2.000 9.617,2.009 14.081 L 2.020 19.300 2.131 19.489 C 2.260 19.709,2.437 19.854,2.678 19.939 C 2.830 19.993,3.916 20.000,11.998 20.000 C 22.265 20.000,21.375 20.027,21.701 19.701 C 22.021 19.381,22.000 19.783,22.000 13.999 C 22.000 10.238,21.988 8.815,21.954 8.716 C 21.929 8.641,21.199 7.397,20.333 5.951 C 19.228 4.107,18.718 3.292,18.626 3.222 C 18.334 2.999,18.349 3.000,15.788 3.000 L 13.427 3.000 12.983 2.567 C 12.635 2.226,12.498 2.120,12.343 2.067 C 12.102 1.985,11.878 1.986,11.640 2.070 M14.800 7.220 L 17.580 10.000 18.790 10.000 L 20.000 10.000 20.000 14.000 L 20.000 18.000 17.000 18.000 L 14.000 18.000 14.000 16.000 L 14.000 14.000 12.000 14.000 L 10.000 14.000 10.000 16.000 L 10.000 18.000 7.000 18.000 L 4.000 18.000 4.000 14.000 L 4.000 10.000 5.210 10.000 L 6.420 10.000 9.200 7.220 C 10.729 5.691,11.989 4.440,12.000 4.440 C 12.011 4.440,13.271 5.691,14.800 7.220 M11.371 7.862 C 9.791 8.287,9.268 10.236,10.426 11.387 C 10.700 11.659,11.107 11.880,11.472 11.956 C 12.930 12.258,14.258 10.930,13.956 9.472 C 13.718 8.320,12.495 7.559,11.371 7.862 M6.000 13.500 L 6.000 15.000 7.000 15.000 L 8.000 15.000 8.000 13.500 L 8.000 12.000 7.000 12.000 L 6.000 12.000 6.000 13.500 M16.000 13.500 L 16.000 15.000 17.000 15.000 L 18.000 15.000 18.000 13.500 L 18.000 12.000 17.000 12.000 L 16.000 12.000 16.000 13.500 " stroke="none" fill-rule="evenodd" fill="black"></path></svg>