<svg viewBox="0 0 24 24" xmlns="http://www.w3.org/2000/svg"><path d="M9.200 2.045 C 8.026 2.163,6.860 2.555,5.847 3.173 C 2.315 5.328,1.001 9.807,2.816 13.500 C 4.222 16.358,7.125 18.103,10.280 17.987 C 11.823 17.931,13.244 17.460,14.520 16.584 L 14.900 16.323 17.100 18.522 L 19.300 20.720 20.010 20.010 L 20.720 19.300 18.522 17.100 L 16.323 14.900 16.584 14.520 C 17.835 12.699,18.277 10.493,17.822 8.337 C 17.372 6.207,16.030 4.319,14.153 3.173 C 12.676 2.272,10.919 1.872,9.200 2.045 " stroke="none" fill-rule="evenodd" fill="black"></path></svg>