<svg viewBox="0 0 24 24" xmlns="http://www.w3.org/2000/svg"><path d="M11.120 2.039 C 8.020 2.349,5.361 3.939,3.659 6.500 C 1.048 10.428,1.568 15.667,4.900 19.022 C 5.878 20.007,6.984 20.750,8.220 21.254 C 11.958 22.779,16.203 21.920,19.062 19.062 C 23.445 14.678,22.834 7.442,17.778 3.853 C 16.479 2.930,15.094 2.370,13.493 2.119 C 12.909 2.027,11.660 1.985,11.120 2.039 M16.999 7.010 C 16.989 7.097,15.002 14.971,14.987 14.987 C 14.963 15.010,7.027 17.001,7.013 16.987 C 6.999 16.973,8.990 9.037,9.013 9.013 C 9.031 8.995,16.868 7.016,16.970 7.004 C 16.986 7.002,16.999 7.005,16.999 7.010 M11.580 10.047 C 10.707 10.214,10.000 11.087,10.000 12.000 C 10.000 12.920,10.690 13.768,11.592 13.956 C 12.816 14.211,14.000 13.249,14.000 12.000 C 14.000 11.477,13.790 10.983,13.404 10.596 C 12.913 10.106,12.277 9.914,11.580 10.047 " stroke="none" fill-rule="evenodd" fill="black"></path></svg>