<svg viewBox="0 0 24 24" xmlns="http://www.w3.org/2000/svg"><path d="M4.580 3.047 C 3.858 3.186,3.199 3.848,3.044 4.592 C 2.982 4.892,2.982 19.108,3.044 19.408 C 3.201 20.158,3.842 20.799,4.592 20.956 C 4.892 21.018,19.108 21.018,19.408 20.956 C 20.158 20.799,20.799 20.158,20.956 19.408 C 21.018 19.108,21.018 4.892,20.956 4.592 C 20.817 3.927,20.322 3.365,19.647 3.107 L 19.420 3.020 12.100 3.014 C 7.566 3.011,4.704 3.023,4.580 3.047 M16.000 9.000 C 16.484 9.242,16.880 9.449,16.880 9.460 C 16.880 9.484,14.479 14.292,14.454 14.319 C 14.444 14.329,13.546 13.893,12.458 13.349 C 11.370 12.805,10.471 12.360,10.460 12.360 C 10.449 12.360,10.096 13.048,9.676 13.890 C 9.255 14.732,8.906 15.426,8.900 15.432 C 8.884 15.449,7.120 14.564,7.120 14.540 C 7.120 14.516,9.521 9.708,9.546 9.681 C 9.556 9.671,10.455 10.108,11.544 10.652 C 12.633 11.197,13.537 11.634,13.552 11.624 C 13.567 11.614,13.922 10.921,14.340 10.083 C 14.757 9.245,15.104 8.560,15.110 8.560 C 15.116 8.560,15.517 8.758,16.000 9.000 " stroke="none" fill-rule="evenodd" fill="black"></path></svg>