<svg viewBox="0 0 24 24" xmlns="http://www.w3.org/2000/svg"><path d="M2.667 4.065 C 2.172 4.217,1.882 4.816,2.061 5.321 C 2.095 5.418,3.132 6.908,4.445 8.746 L 6.768 12.000 4.439 15.262 C 3.134 17.089,2.084 18.597,2.051 18.692 C 1.924 19.055,2.070 19.547,2.374 19.778 C 2.683 20.014,2.248 20.000,9.500 20.000 C 16.677 20.000,16.304 20.011,16.604 19.797 C 16.776 19.675,21.890 12.500,21.951 12.295 C 22.013 12.087,22.013 11.913,21.951 11.705 C 21.888 11.495,16.775 4.324,16.598 4.199 C 16.308 3.992,16.596 4.000,9.484 4.003 C 3.747 4.005,2.834 4.014,2.667 4.065 " stroke="none" fill-rule="evenodd" fill="black"></path></svg>