<svg viewBox="0 0 24 24" xmlns="http://www.w3.org/2000/svg"><path d="M11.700 2.056 C 11.474 2.127,2.312 8.242,2.204 8.394 C 1.990 8.695,2.000 8.401,2.000 14.523 C 2.000 18.510,2.013 20.259,2.044 20.408 C 2.201 21.158,2.842 21.799,3.592 21.956 C 3.743 21.987,6.171 22.000,12.000 22.000 C 17.829 22.000,20.257 21.987,20.408 21.956 C 21.158 21.799,21.799 21.158,21.956 20.408 C 21.987 20.259,22.000 18.510,22.000 14.523 C 22.000 8.401,22.010 8.695,21.796 8.394 C 21.678 8.229,12.521 2.125,12.284 2.053 C 12.069 1.989,11.911 1.989,11.700 2.056 M8.020 12.459 L 12.000 14.599 15.980 12.459 C 18.169 11.283,19.969 10.320,19.980 10.320 C 19.991 10.320,20.000 10.856,20.000 11.511 L 20.000 12.703 16.000 14.853 L 12.000 17.003 8.000 14.853 L 4.000 12.703 4.000 11.511 C 4.000 10.856,4.009 10.320,4.020 10.320 C 4.031 10.320,5.831 11.283,8.020 12.459 " stroke="none" fill-rule="evenodd" fill="black"></path></svg>