<svg viewBox="0 0 24 24" xmlns="http://www.w3.org/2000/svg"><path d="M10.880 2.066 C 10.825 2.074,10.645 2.099,10.480 2.123 C 8.784 2.364,7.032 3.134,5.682 4.232 C 5.304 4.538,4.632 5.206,4.303 5.600 C 1.731 8.684,1.270 13.081,3.147 16.640 C 3.762 17.808,4.732 18.989,5.720 19.776 C 9.761 22.992,15.435 22.688,19.062 19.062 C 20.721 17.402,21.744 15.233,21.957 12.920 C 22.059 11.820,21.993 11.421,21.660 11.128 C 21.374 10.876,21.075 10.826,20.540 10.939 C 19.486 11.163,18.312 10.719,17.635 9.842 C 17.214 9.297,17.000 8.668,17.000 7.972 C 16.999 7.431,16.846 7.164,16.408 6.943 C 16.243 6.859,15.910 6.857,15.540 6.938 C 14.268 7.215,12.906 6.523,12.321 5.303 C 12.215 5.081,12.107 4.811,12.082 4.702 C 11.996 4.340,11.986 3.883,12.055 3.517 C 12.146 3.034,12.139 2.853,12.016 2.608 C 11.807 2.188,11.393 1.990,10.880 2.066 M9.110 6.139 C 9.415 6.278,9.725 6.589,9.866 6.896 C 9.962 7.105,9.978 7.191,9.978 7.500 C 9.979 7.810,9.963 7.893,9.867 8.100 C 9.722 8.415,9.413 8.724,9.104 8.867 C 8.894 8.965,8.811 8.980,8.500 8.980 C 8.190 8.980,8.107 8.965,7.900 8.868 C 7.584 8.721,7.275 8.413,7.134 8.104 C 7.038 7.895,7.022 7.809,7.022 7.500 C 7.021 7.190,7.037 7.107,7.133 6.900 C 7.324 6.489,7.727 6.148,8.150 6.041 C 8.407 5.976,8.852 6.022,9.110 6.139 M14.110 10.139 C 14.415 10.278,14.725 10.589,14.866 10.896 C 14.962 11.105,14.978 11.191,14.978 11.500 C 14.979 11.810,14.963 11.893,14.867 12.100 C 14.722 12.415,14.413 12.724,14.104 12.867 C 13.894 12.965,13.811 12.980,13.500 12.980 C 13.190 12.980,13.107 12.965,12.900 12.868 C 12.584 12.721,12.275 12.413,12.134 12.104 C 12.038 11.895,12.022 11.809,12.022 11.500 C 12.021 11.190,12.037 11.107,12.133 10.900 C 12.324 10.489,12.727 10.148,13.150 10.041 C 13.407 9.976,13.852 10.022,14.110 10.139 M7.110 11.139 C 7.415 11.278,7.725 11.589,7.866 11.896 C 7.962 12.105,7.978 12.191,7.978 12.500 C 7.979 12.810,7.963 12.893,7.867 13.100 C 7.722 13.415,7.413 13.724,7.104 13.867 C 6.894 13.965,6.811 13.980,6.500 13.980 C 6.190 13.980,6.107 13.965,5.900 13.868 C 5.584 13.721,5.275 13.413,5.134 13.104 C 5.038 12.895,5.022 12.809,5.022 12.500 C 5.021 12.190,5.037 12.107,5.133 11.900 C 5.324 11.489,5.727 11.148,6.150 11.041 C 6.407 10.976,6.852 11.022,7.110 11.139 M10.110 15.139 C 10.415 15.278,10.725 15.589,10.866 15.896 C 10.962 16.105,10.978 16.191,10.978 16.500 C 10.979 16.810,10.963 16.893,10.867 17.100 C 10.722 17.415,10.413 17.724,10.104 17.867 C 9.894 17.965,9.811 17.980,9.500 17.980 C 9.190 17.980,9.107 17.965,8.900 17.868 C 8.584 17.721,8.275 17.413,8.134 17.104 C 8.038 16.895,8.022 16.809,8.022 16.500 C 8.021 16.190,8.037 16.107,8.133 15.900 C 8.324 15.489,8.727 15.148,9.150 15.041 C 9.407 14.976,9.852 15.022,10.110 15.139 M16.110 15.139 C 16.415 15.278,16.725 15.589,16.866 15.896 C 16.962 16.105,16.978 16.191,16.978 16.500 C 16.979 16.810,16.963 16.893,16.867 17.100 C 16.722 17.415,16.413 17.724,16.104 17.867 C 15.894 17.965,15.811 17.980,15.500 17.980 C 15.190 17.980,15.107 17.965,14.900 17.868 C 14.584 17.721,14.275 17.413,14.134 17.104 C 14.038 16.895,14.022 16.809,14.022 16.500 C 14.021 16.190,14.037 16.107,14.133 15.900 C 14.324 15.489,14.727 15.148,15.150 15.041 C 15.407 14.976,15.852 15.022,16.110 15.139 " stroke="none" fill-rule="evenodd" fill="black"></path></svg>