<svg viewBox="0 0 24 24" xmlns="http://www.w3.org/2000/svg"><path d="M6.580 2.047 C 5.858 2.186,5.199 2.848,5.044 3.592 C 5.013 3.743,5.000 6.414,5.000 12.902 L 5.000 22.000 8.480 19.680 C 10.394 18.404,11.978 17.360,12.000 17.360 C 12.022 17.360,13.606 18.404,15.520 19.680 L 19.000 22.000 19.000 12.902 C 19.000 6.414,18.987 3.743,18.956 3.592 C 18.817 2.927,18.322 2.365,17.647 2.107 L 17.420 2.020 12.100 2.014 C 8.831 2.010,6.703 2.023,6.580 2.047 M10.400 6.062 C 10.777 6.150,11.259 6.403,11.655 6.720 L 12.000 6.997 12.345 6.720 C 12.957 6.229,13.623 5.970,14.160 6.013 C 15.296 6.104,16.137 7.200,15.964 8.364 C 15.933 8.572,15.870 8.760,15.750 8.995 C 15.595 9.301,15.425 9.498,13.800 11.262 C 12.821 12.325,12.011 13.194,12.000 13.194 C 11.989 13.194,11.179 12.324,10.200 11.260 C 8.787 9.725,8.389 9.269,8.269 9.047 C 7.630 7.868,8.247 6.407,9.530 6.062 C 9.806 5.987,10.081 5.987,10.400 6.062 " stroke="none" fill-rule="evenodd" fill="black"></path></svg>