<svg viewBox="0 0 24 24" xmlns="http://www.w3.org/2000/svg"><path d="M5.580 2.047 C 4.859 2.185,4.199 2.848,4.044 3.592 C 3.982 3.892,3.982 20.108,4.044 20.408 C 4.201 21.158,4.842 21.799,5.592 21.956 C 5.891 22.018,18.109 22.018,18.408 21.956 C 19.158 21.799,19.799 21.158,19.956 20.408 C 19.987 20.259,20.000 18.393,20.000 14.088 L 20.000 7.980 17.010 4.990 L 14.020 2.000 9.900 2.004 C 7.480 2.007,5.698 2.025,5.580 2.047 M15.520 6.500 L 18.020 9.000 15.510 9.000 L 13.000 9.000 13.000 6.500 C 13.000 5.125,13.005 4.000,13.010 4.000 C 13.016 4.000,14.145 5.125,15.520 6.500 M19.960 15.000 C 19.960 15.018,18.844 15.925,17.480 17.016 L 15.000 19.000 15.000 17.500 L 15.000 16.000 11.500 16.000 L 8.000 16.000 8.000 15.000 L 8.000 14.000 11.500 14.000 L 15.000 14.000 15.000 12.500 L 15.000 11.000 17.480 12.984 C 18.844 14.075,19.960 14.982,19.960 15.000 " stroke="none" fill-rule="evenodd" fill="black"></path></svg>