<svg viewBox="0 0 24 24" xmlns="http://www.w3.org/2000/svg"><path d="M2.970 3.010 L 2.280 3.700 11.280 12.700 L 20.280 21.700 20.990 20.990 L 21.700 20.280 20.810 19.390 L 19.920 18.499 19.960 18.360 C 20.024 18.137,20.014 10.586,19.950 10.611 C 18.739 11.075,17.543 11.118,16.406 10.737 C 15.461 10.420,14.598 9.792,13.992 8.981 C 13.683 8.567,13.309 7.802,13.183 7.326 C 12.919 6.332,12.955 5.310,13.285 4.373 C 13.348 4.193,13.400 4.036,13.400 4.023 C 13.400 3.983,5.832 3.999,5.660 4.040 L 5.500 4.077 4.620 3.199 C 4.135 2.715,3.721 2.320,3.699 2.320 C 3.677 2.320,3.349 2.631,2.970 3.010 M17.503 3.040 C 16.828 3.162,16.156 3.550,15.703 4.080 C 14.987 4.917,14.806 6.100,15.234 7.151 C 15.521 7.857,16.143 8.479,16.849 8.766 C 17.989 9.230,19.251 8.978,20.115 8.115 C 21.238 6.992,21.295 5.212,20.246 4.020 C 19.897 3.624,19.276 3.239,18.756 3.097 C 18.491 3.024,17.770 2.991,17.503 3.040 M4.000 13.168 C 4.000 16.684,4.013 18.260,4.044 18.408 C 4.203 19.171,4.858 19.815,5.620 19.958 C 5.792 19.991,7.272 20.000,10.850 19.992 L 15.840 19.980 9.920 14.060 L 4.000 8.140 4.000 13.168 " stroke="none" fill-rule="evenodd" fill="black"></path></svg>