<svg viewBox="0 0 24 24" xmlns="http://www.w3.org/2000/svg"><path d="M11.580 2.047 C 11.081 2.142,10.546 2.534,10.270 3.006 L 10.121 3.260 9.717 3.397 C 7.536 4.135,5.807 6.006,5.221 8.261 C 5.018 9.040,5.000 9.358,5.000 12.072 L 5.000 14.581 4.117 15.460 C 3.632 15.944,3.186 16.421,3.127 16.520 C 3.020 16.699,3.020 16.703,3.020 17.500 L 3.020 18.300 3.131 18.489 C 3.192 18.592,3.301 18.723,3.374 18.778 C 3.684 19.015,3.106 19.000,11.998 19.000 C 21.144 19.000,20.376 19.026,20.701 18.701 C 20.955 18.447,21.000 18.266,21.000 17.500 C 21.000 16.547,21.054 16.647,19.934 15.518 L 19.000 14.576 18.999 12.058 C 18.998 9.343,18.983 9.076,18.783 8.282 C 18.329 6.487,17.152 4.928,15.532 3.975 C 15.109 3.725,14.608 3.498,14.171 3.358 C 13.886 3.266,13.879 3.261,13.732 3.008 C 13.294 2.259,12.448 1.882,11.580 2.047 M3.831 2.771 C 3.294 3.353,2.815 3.954,2.469 4.480 C 2.151 4.964,1.700 5.865,1.527 6.361 C 1.165 7.403,1.001 8.609,1.000 10.250 L 1.000 11.000 1.550 11.000 C 1.853 11.000,2.303 10.988,2.550 10.974 L 3.000 10.948 3.000 10.344 C 3.000 9.005,3.124 7.928,3.362 7.176 C 3.682 6.168,4.326 5.159,5.319 4.110 L 5.688 3.719 5.019 3.020 C 4.651 2.635,4.327 2.320,4.298 2.320 C 4.270 2.320,4.060 2.523,3.831 2.771 M18.981 3.020 L 18.312 3.719 18.681 4.110 C 19.927 5.426,20.606 6.654,20.838 8.007 C 20.932 8.558,21.000 9.554,21.000 10.396 L 21.000 11.012 21.570 10.986 C 21.883 10.972,22.334 10.960,22.570 10.960 L 23.000 10.960 23.000 10.210 C 22.999 6.929,22.296 5.080,20.168 2.770 C 19.940 2.522,19.730 2.320,19.702 2.320 C 19.673 2.320,19.349 2.635,18.981 3.020 M9.222 20.090 C 9.300 20.346,9.563 20.759,9.831 21.044 C 10.837 22.113,12.373 22.304,13.622 21.516 C 14.086 21.223,14.643 20.536,14.778 20.090 L 14.805 20.000 12.000 20.000 L 9.195 20.000 9.222 20.090 " stroke="none" fill-rule="evenodd" fill="black"></path></svg>