<svg viewBox="0 0 24 24" xmlns="http://www.w3.org/2000/svg"><path d="M14.720 7.862 L 9.180 13.403 9.068 13.272 C 8.895 13.068,8.453 12.140,8.340 11.742 L 8.238 11.385 8.409 11.209 C 8.503 11.112,9.078 10.557,9.686 9.974 C 10.623 9.078,10.806 8.884,10.882 8.708 C 11.010 8.409,11.002 8.134,10.856 7.861 C 10.783 7.726,10.028 6.847,8.841 5.517 C 7.183 3.658,6.917 3.376,6.741 3.295 C 6.503 3.183,6.159 3.169,5.929 3.261 C 5.695 3.355,3.404 5.342,3.302 5.540 C 3.135 5.866,3.179 7.261,3.400 8.580 C 3.827 11.135,4.873 13.508,6.457 15.520 L 6.723 15.857 4.512 18.068 L 2.300 20.280 3.010 20.990 L 3.720 21.700 12.720 12.700 L 21.720 3.700 21.030 3.010 C 20.651 2.631,20.323 2.320,20.300 2.320 C 20.278 2.320,17.767 4.814,14.720 7.862 M15.485 13.310 C 15.334 13.391,14.992 13.723,14.177 14.580 C 13.570 15.218,13.014 15.800,12.942 15.874 L 12.811 16.007 12.566 15.939 L 12.321 15.870 11.771 16.392 C 11.023 17.102,9.659 18.473,9.682 18.493 C 9.692 18.502,9.925 18.645,10.200 18.810 C 12.222 20.022,14.594 20.773,17.000 20.962 C 17.319 20.987,17.778 21.002,18.020 20.994 C 18.692 20.973,18.646 21.008,19.825 19.631 C 20.377 18.987,20.859 18.399,20.897 18.325 C 21.062 18.006,21.003 17.511,20.770 17.258 C 20.426 16.886,16.567 13.404,16.393 13.310 C 16.234 13.223,16.138 13.200,15.940 13.200 C 15.743 13.200,15.646 13.223,15.485 13.310 " stroke="none" fill-rule="evenodd" fill="black"></path></svg>