<svg viewBox="0 0 24 24" xmlns="http://www.w3.org/2000/svg"><path d="M5.503 2.040 C 4.828 2.162,4.156 2.550,3.703 3.080 C 2.861 4.065,2.772 5.561,3.491 6.644 C 4.240 7.773,5.653 8.267,6.919 7.842 L 7.296 7.716 8.429 8.849 L 9.562 9.982 9.443 10.201 C 9.139 10.763,8.973 11.542,9.012 12.217 C 9.061 13.043,9.326 13.723,9.905 14.513 C 9.974 14.606,9.973 14.607,8.694 15.886 L 7.414 17.166 7.157 17.095 C 6.774 16.989,6.140 16.996,5.780 17.109 C 4.508 17.510,3.756 18.831,4.079 20.096 C 4.415 21.409,5.702 22.216,7.020 21.940 C 8.209 21.691,9.064 20.569,8.986 19.360 C 8.974 19.173,8.935 18.923,8.899 18.804 L 8.833 18.587 10.247 17.172 C 11.384 16.033,11.676 15.762,11.740 15.780 C 12.272 15.933,12.475 15.970,12.880 15.988 C 14.239 16.048,15.583 15.346,16.343 14.181 C 16.625 13.747,16.812 13.288,16.922 12.755 C 17.072 12.034,16.987 11.203,16.694 10.507 C 16.628 10.349,16.605 10.244,16.627 10.200 C 16.645 10.163,17.116 9.620,17.673 8.994 L 18.687 7.856 18.953 7.926 C 19.747 8.133,20.645 7.873,21.259 7.259 C 22.227 6.292,22.240 4.727,21.287 3.770 C 20.767 3.247,20.226 3.021,19.500 3.021 C 18.774 3.021,18.233 3.247,17.713 3.770 C 17.082 4.404,16.844 5.402,17.121 6.247 L 17.209 6.513 16.243 7.597 C 15.712 8.192,15.271 8.680,15.264 8.680 C 15.257 8.680,15.082 8.592,14.876 8.484 C 13.979 8.015,13.041 7.891,12.100 8.118 C 11.780 8.195,11.268 8.394,11.089 8.511 C 10.995 8.573,10.982 8.562,9.855 7.435 L 8.716 6.296 8.842 5.919 C 9.178 4.917,8.953 3.824,8.246 3.020 C 7.897 2.624,7.276 2.239,6.756 2.097 C 6.491 2.024,5.770 1.991,5.503 2.040 M13.644 10.114 C 14.239 10.320,14.697 10.788,14.904 11.400 C 15.015 11.727,15.004 12.340,14.881 12.660 C 14.341 14.066,12.638 14.451,11.599 13.404 C 10.988 12.788,10.836 11.904,11.207 11.125 C 11.451 10.611,12.029 10.157,12.580 10.044 C 12.859 9.987,13.378 10.021,13.644 10.114 " stroke="none" fill-rule="evenodd" fill="black"></path></svg>