<svg viewBox="0 0 24 24" xmlns="http://www.w3.org/2000/svg"><path d="M7.000 3.000 L 7.000 4.000 5.927 4.000 C 5.330 4.000,4.750 4.019,4.617 4.043 C 3.862 4.181,3.203 4.830,3.044 5.592 C 2.982 5.892,2.982 20.108,3.044 20.408 C 3.201 21.158,3.842 21.799,4.592 21.956 C 4.892 22.018,19.108 22.018,19.408 21.956 C 19.776 21.879,20.117 21.690,20.404 21.404 C 20.690 21.117,20.879 20.776,20.956 20.408 C 21.018 20.108,21.018 5.892,20.956 5.592 C 20.817 4.926,20.316 4.358,19.647 4.109 C 19.439 4.032,19.321 4.023,18.210 4.009 L 17.000 3.994 17.000 2.997 L 17.000 2.000 16.000 2.000 L 15.000 2.000 15.000 3.000 L 15.000 4.000 12.000 4.000 L 9.000 4.000 9.000 3.000 L 9.000 2.000 8.000 2.000 L 7.000 2.000 7.000 3.000 M19.000 8.000 L 19.000 9.000 12.000 9.000 L 5.000 9.000 5.000 8.000 L 5.000 7.000 12.000 7.000 L 19.000 7.000 19.000 8.000 M16.010 11.990 C 16.378 12.358,16.680 12.677,16.680 12.700 C 16.680 12.722,15.402 14.018,13.840 15.580 L 11.000 18.420 9.160 16.580 C 8.148 15.568,7.320 14.722,7.320 14.701 C 7.320 14.648,8.647 13.320,8.699 13.320 C 8.721 13.320,9.248 13.828,9.870 14.450 L 11.000 15.580 13.130 13.450 C 14.301 12.278,15.278 11.320,15.300 11.320 C 15.321 11.320,15.641 11.621,16.010 11.990 " stroke="none" fill-rule="evenodd" fill="black"></path></svg>