<svg viewBox="0 0 24 24" xmlns="http://www.w3.org/2000/svg"><path d="M5.791 5.062 C 3.619 5.400,1.999 7.302,2.000 9.513 C 2.001 12.036,4.155 14.108,6.653 13.987 L 7.126 13.964 7.097 14.092 C 7.047 14.324,6.765 14.914,6.512 15.320 C 6.244 15.749,5.665 16.381,5.195 16.755 C 4.785 17.082,4.037 17.503,3.400 17.765 C 3.081 17.896,2.808 18.016,2.792 18.032 C 2.766 18.058,3.209 19.902,3.251 19.944 C 3.261 19.955,3.601 19.883,4.006 19.785 C 7.890 18.845,10.348 16.111,10.938 12.076 C 11.043 11.352,11.086 10.358,11.040 9.655 C 10.993 8.913,10.966 8.743,10.823 8.264 C 10.166 6.061,8.044 4.711,5.791 5.062 M16.791 5.062 C 14.619 5.400,12.999 7.302,13.000 9.513 C 13.001 12.036,15.155 14.108,17.653 13.987 L 18.126 13.964 18.097 14.092 C 18.047 14.324,17.765 14.914,17.512 15.320 C 17.244 15.749,16.665 16.381,16.195 16.755 C 15.788 17.080,15.042 17.500,14.400 17.766 C 14.081 17.898,13.807 18.019,13.792 18.033 C 13.765 18.059,14.210 19.903,14.253 19.946 C 14.265 19.958,14.613 19.884,15.027 19.782 C 18.513 18.924,20.831 16.659,21.700 13.260 C 21.983 12.157,22.110 10.802,22.038 9.660 C 21.991 8.910,21.965 8.741,21.823 8.264 C 21.166 6.061,19.044 4.711,16.791 5.062 " stroke="none" fill-rule="evenodd" fill="black"></path></svg>