<svg viewBox="0 0 24 24" xmlns="http://www.w3.org/2000/svg"><path d="M11.760 2.027 C 11.727 2.039,9.518 2.841,6.850 3.810 L 2.000 5.571 2.000 6.630 C 2.000 7.619,2.005 7.688,2.070 7.671 C 2.108 7.660,4.350 6.848,7.050 5.866 C 9.751 4.884,11.988 4.080,12.023 4.080 C 12.057 4.080,14.316 4.826,17.043 5.739 L 22.001 7.397 21.991 6.332 L 21.980 5.266 17.080 3.633 C 12.209 2.010,11.994 1.945,11.760 2.027 M6.862 7.063 C 5.834 7.267,5.011 7.975,4.624 8.989 C 4.550 9.182,4.205 10.196,3.858 11.243 L 3.225 13.146 2.988 13.283 C 2.531 13.547,2.153 14.072,2.044 14.592 C 1.983 14.885,1.984 18.122,2.045 18.407 C 2.143 18.863,2.398 19.270,2.771 19.565 L 2.980 19.730 3.000 20.515 C 3.020 21.284,3.022 21.304,3.131 21.489 C 3.377 21.908,3.623 22.000,4.498 22.000 C 5.266 22.000,5.447 21.955,5.701 21.701 C 5.948 21.454,6.000 21.259,6.000 20.573 L 6.000 20.000 11.997 20.000 L 17.993 20.000 18.007 20.650 C 18.020 21.277,18.024 21.307,18.131 21.489 C 18.377 21.908,18.623 22.000,19.498 22.000 C 20.266 22.000,20.447 21.955,20.701 21.701 C 20.959 21.443,21.000 21.271,21.000 20.443 L 21.000 19.740 21.220 19.570 C 21.498 19.355,21.765 18.994,21.885 18.671 C 21.976 18.425,21.978 18.386,21.991 16.640 C 22.001 15.410,21.991 14.786,21.959 14.620 C 21.856 14.084,21.481 13.554,21.012 13.283 L 20.775 13.146 20.142 11.243 C 19.795 10.196,19.450 9.182,19.376 8.989 C 18.984 7.961,18.159 7.260,17.110 7.060 C 16.656 6.974,7.296 6.976,6.862 7.063 M16.844 9.047 C 17.056 9.120,17.265 9.273,17.370 9.433 C 17.424 9.514,17.716 10.327,18.019 11.240 C 18.323 12.153,18.580 12.922,18.590 12.950 C 18.605 12.990,17.270 13.000,12.002 13.000 L 5.395 13.000 5.423 12.910 C 5.438 12.861,5.692 12.089,5.986 11.195 C 6.609 9.303,6.647 9.231,7.114 9.059 C 7.314 8.986,16.632 8.974,16.844 9.047 M6.132 15.151 C 6.450 15.301,6.700 15.552,6.856 15.880 C 6.966 16.111,6.980 16.180,6.980 16.500 C 6.980 16.821,6.966 16.888,6.855 17.120 C 6.696 17.452,6.449 17.698,6.120 17.856 C 5.889 17.966,5.820 17.980,5.500 17.980 C 5.190 17.980,5.107 17.965,4.900 17.868 C 4.584 17.721,4.275 17.413,4.134 17.104 C 4.038 16.895,4.022 16.808,4.021 16.500 C 4.020 16.178,4.034 16.112,4.145 15.880 C 4.346 15.462,4.720 15.149,5.150 15.041 C 5.420 14.973,5.857 15.021,6.132 15.151 M19.132 15.151 C 19.450 15.301,19.700 15.552,19.856 15.880 C 19.966 16.111,19.980 16.180,19.980 16.500 C 19.980 16.821,19.966 16.888,19.855 17.120 C 19.696 17.452,19.449 17.698,19.120 17.856 C 18.889 17.966,18.820 17.980,18.500 17.980 C 18.190 17.980,18.107 17.965,17.900 17.868 C 17.584 17.721,17.275 17.413,17.134 17.104 C 17.038 16.895,17.022 16.808,17.021 16.500 C 17.020 16.178,17.034 16.112,17.145 15.880 C 17.346 15.462,17.720 15.149,18.150 15.041 C 18.420 14.973,18.857 15.021,19.132 15.151 " stroke="none" fill-rule="evenodd" fill="black"></path></svg>