<svg viewBox="0 0 24 24" xmlns="http://www.w3.org/2000/svg"><path d="M8.580 2.046 C 7.857 2.187,7.199 2.849,7.044 3.592 C 7.018 3.717,7.000 4.255,7.000 4.902 L 7.000 6.000 5.427 6.000 C 4.471 6.000,3.762 6.017,3.617 6.043 C 2.862 6.181,2.203 6.830,2.044 7.592 C 2.016 7.726,2.000 8.390,2.000 9.402 L 2.000 11.000 12.000 11.000 L 22.000 11.000 22.000 9.402 C 22.000 8.390,21.984 7.726,21.956 7.592 C 21.817 6.926,21.318 6.361,20.647 6.108 C 20.431 6.027,20.340 6.022,18.710 6.009 L 17.000 5.995 17.000 4.900 C 17.000 4.254,16.982 3.717,16.956 3.592 C 16.817 2.927,16.321 2.364,15.647 2.107 C 15.421 2.021,15.399 2.020,12.100 2.014 C 10.095 2.010,8.701 2.023,8.580 2.046 M15.000 5.000 L 15.000 6.000 12.000 6.000 L 9.000 6.000 9.000 5.000 L 9.000 4.000 12.000 4.000 L 15.000 4.000 15.000 5.000 M2.000 15.598 C 2.000 18.070,2.014 19.262,2.044 19.408 C 2.201 20.158,2.842 20.799,3.592 20.956 C 3.892 21.018,20.108 21.018,20.408 20.956 C 21.158 20.799,21.799 20.158,21.956 19.408 C 21.986 19.262,22.000 18.070,22.000 15.598 L 22.000 12.000 18.000 12.000 L 14.000 12.000 14.000 13.000 L 14.000 14.000 12.000 14.000 L 10.000 14.000 10.000 13.000 L 10.000 12.000 6.000 12.000 L 2.000 12.000 2.000 15.598 " stroke="none" fill-rule="evenodd" fill="black"></path></svg>