<svg viewBox="0 0 24 24" xmlns="http://www.w3.org/2000/svg"><path d="M15.580 2.143 C 13.955 2.394,12.495 3.401,11.675 4.834 C 11.445 5.236,11.229 5.783,11.094 6.307 C 10.990 6.711,10.982 6.794,10.981 7.560 C 10.980 8.333,10.987 8.405,11.094 8.816 L 11.207 9.252 7.389 13.076 C 4.136 16.333,3.560 16.927,3.505 17.080 C 3.431 17.282,3.080 19.667,3.080 19.964 C 3.080 20.428,3.395 20.803,3.880 20.917 C 4.033 20.953,4.264 20.930,5.398 20.766 L 6.736 20.572 6.871 20.416 C 7.074 20.182,7.706 18.834,7.974 18.069 C 7.995 18.007,8.028 18.022,8.220 18.178 C 8.543 18.441,8.659 18.492,8.888 18.470 C 9.026 18.457,9.127 18.416,9.232 18.332 C 9.510 18.107,9.582 17.934,9.792 16.970 C 9.899 16.480,9.996 16.070,10.008 16.059 C 10.020 16.047,10.179 16.103,10.362 16.183 C 10.545 16.264,10.760 16.338,10.839 16.349 C 11.015 16.373,11.217 16.293,11.411 16.122 C 11.678 15.888,11.716 15.784,11.862 14.890 C 11.937 14.434,11.998 14.049,11.999 14.035 C 12.000 14.022,12.167 14.055,12.370 14.109 C 12.825 14.231,13.130 14.242,13.320 14.144 C 13.397 14.104,13.750 13.784,14.105 13.432 L 14.750 12.791 14.965 12.853 C 15.581 13.030,16.350 13.101,16.954 13.037 C 18.269 12.898,19.405 12.360,20.323 11.443 C 21.387 10.378,21.935 9.046,21.929 7.540 C 21.919 5.159,20.406 3.083,18.140 2.341 C 17.393 2.096,16.387 2.019,15.580 2.143 M17.112 4.745 C 18.133 4.959,19.019 5.846,19.284 6.920 C 19.373 7.282,19.348 7.998,19.232 8.385 C 19.125 8.744,18.874 9.209,18.647 9.469 L 18.499 9.639 16.439 7.577 L 14.380 5.515 14.579 5.337 C 14.814 5.128,15.283 4.875,15.616 4.779 C 16.077 4.646,16.580 4.634,17.112 4.745 " stroke="none" fill-rule="evenodd" fill="black"></path></svg>