<svg viewBox="0 0 24 24" xmlns="http://www.w3.org/2000/svg"><path d="M14.660 2.056 C 14.478 2.135,2.519 9.117,2.368 9.232 C 2.295 9.287,2.187 9.415,2.128 9.516 L 2.020 9.700 2.020 15.000 L 2.020 20.300 2.131 20.489 C 2.260 20.709,2.437 20.854,2.678 20.939 C 2.830 20.993,3.916 21.000,11.998 21.000 C 22.267 21.000,21.375 21.028,21.702 20.700 C 22.025 20.377,22.004 20.825,21.990 14.616 C 21.976 8.523,21.992 8.923,21.717 7.884 C 21.206 5.958,19.991 4.302,18.269 3.182 C 17.109 2.428,15.184 1.827,14.660 2.056 M16.173 4.357 C 17.555 4.906,18.659 5.909,19.331 7.228 C 19.453 7.466,19.605 7.813,19.671 8.000 C 19.796 8.357,19.942 8.952,19.911 8.982 C 19.901 8.992,16.933 8.996,13.315 8.990 L 6.737 8.980 10.952 6.514 L 15.168 4.048 15.515 4.141 C 15.706 4.192,16.002 4.289,16.173 4.357 M12.110 12.139 C 12.415 12.278,12.725 12.589,12.866 12.896 C 12.962 13.105,12.978 13.191,12.978 13.500 C 12.979 13.810,12.963 13.893,12.867 14.100 C 12.722 14.415,12.413 14.724,12.104 14.867 C 11.894 14.965,11.811 14.980,11.500 14.980 C 11.190 14.980,11.107 14.965,10.900 14.868 C 10.584 14.721,10.275 14.413,10.134 14.104 C 10.038 13.895,10.022 13.809,10.022 13.500 C 10.021 13.190,10.037 13.107,10.133 12.900 C 10.324 12.489,10.727 12.148,11.150 12.041 C 11.407 11.976,11.852 12.022,12.110 12.139 M17.383 14.043 C 18.185 14.190,18.839 14.872,18.967 15.695 C 19.153 16.894,18.209 18.000,17.000 18.000 C 16.032 18.000,15.183 17.268,15.033 16.305 C 14.933 15.663,15.132 15.061,15.596 14.596 C 16.085 14.108,16.698 13.918,17.383 14.043 M7.110 15.139 C 7.415 15.278,7.725 15.589,7.866 15.896 C 7.962 16.105,7.978 16.191,7.978 16.500 C 7.979 16.810,7.963 16.893,7.867 17.100 C 7.722 17.415,7.413 17.724,7.104 17.867 C 6.894 17.965,6.811 17.980,6.500 17.980 C 6.190 17.980,6.107 17.965,5.900 17.868 C 5.584 17.721,5.275 17.413,5.134 17.104 C 5.038 16.895,5.022 16.809,5.022 16.500 C 5.021 16.190,5.037 16.107,5.133 15.900 C 5.324 15.489,5.727 15.148,6.150 15.041 C 6.407 14.976,6.852 15.022,7.110 15.139 " stroke="none" fill-rule="evenodd" fill="black"></path></svg>