<svg viewBox="0 0 24 24" xmlns="http://www.w3.org/2000/svg"><path d="M16.813 2.444 C 16.721 2.461,16.586 2.505,16.513 2.542 C 16.440 2.578,15.530 3.457,14.492 4.494 C 12.540 6.444,12.490 6.501,12.419 6.887 C 12.402 6.980,12.417 7.118,12.459 7.267 C 12.525 7.497,12.549 7.523,14.493 9.470 C 16.604 11.585,16.598 11.580,17.000 11.580 C 17.402 11.580,17.396 11.585,19.507 9.470 C 21.451 7.523,21.475 7.497,21.541 7.267 C 21.615 7.007,21.600 6.846,21.475 6.560 C 21.360 6.297,17.699 2.638,17.440 2.527 C 17.212 2.429,17.025 2.405,16.813 2.444 M3.664 3.063 C 3.436 3.146,3.257 3.297,3.131 3.511 L 3.020 3.700 3.020 7.000 L 3.020 10.300 3.131 10.489 C 3.192 10.592,3.301 10.723,3.374 10.778 C 3.672 11.006,3.578 11.000,6.998 11.000 C 10.545 11.000,10.390 11.013,10.701 10.701 C 11.013 10.390,11.000 10.544,11.000 7.000 C 11.000 3.456,11.013 3.610,10.701 3.299 C 10.389 2.987,10.547 3.000,6.983 3.003 C 4.342 3.005,3.794 3.015,3.664 3.063 M3.664 13.063 C 3.436 13.146,3.257 13.297,3.131 13.511 L 3.020 13.700 3.020 17.000 L 3.020 20.300 3.131 20.489 C 3.192 20.592,3.301 20.723,3.374 20.778 C 3.672 21.006,3.578 21.000,6.998 21.000 C 10.545 21.000,10.390 21.013,10.701 20.701 C 11.013 20.390,11.000 20.544,11.000 17.000 C 11.000 13.456,11.013 13.610,10.701 13.299 C 10.389 12.987,10.547 13.000,6.983 13.003 C 4.342 13.005,3.794 13.015,3.664 13.063 M13.664 13.063 C 13.436 13.146,13.257 13.297,13.131 13.511 L 13.020 13.700 13.020 17.000 L 13.020 20.300 13.131 20.489 C 13.192 20.592,13.301 20.723,13.374 20.778 C 13.672 21.006,13.578 21.000,16.998 21.000 C 20.545 21.000,20.390 21.013,20.701 20.701 C 21.013 20.390,21.000 20.544,21.000 17.000 C 21.000 13.456,21.013 13.610,20.701 13.299 C 20.389 12.987,20.547 13.000,16.983 13.003 C 14.342 13.005,13.794 13.015,13.664 13.063 " stroke="none" fill-rule="evenodd" fill="black"></path></svg>