<svg viewBox="0 0 24 24" xmlns="http://www.w3.org/2000/svg"><path d="M11.186 2.045 C 7.801 2.304,4.704 4.354,3.142 7.370 C 1.682 10.188,1.626 13.480,2.989 16.326 C 3.487 17.366,4.094 18.218,4.938 19.062 C 6.760 20.884,9.064 21.886,11.660 21.986 C 14.336 22.088,16.988 21.070,18.955 19.184 C 19.390 18.767,19.954 18.084,20.327 17.522 C 22.550 14.174,22.549 9.808,20.325 6.478 C 18.284 3.423,14.862 1.762,11.186 2.045 M15.520 12.010 L 15.520 15.540 14.110 14.130 L 12.700 12.720 10.940 14.480 L 9.181 16.240 8.470 15.530 L 7.760 14.821 9.524 13.056 L 11.289 11.291 9.899 9.886 L 8.510 8.480 12.015 8.480 L 15.520 8.480 15.520 12.010 " stroke="none" fill-rule="evenodd" fill="black"></path></svg>