<svg viewBox="0 0 24 24" xmlns="http://www.w3.org/2000/svg"><path d="M9.580 2.047 C 8.859 2.185,8.199 2.848,8.044 3.592 C 8.015 3.731,8.000 4.525,8.000 5.902 L 8.000 8.000 5.927 8.000 C 4.611 8.000,3.768 8.016,3.617 8.043 C 2.862 8.181,2.203 8.830,2.044 9.592 C 1.983 9.884,1.983 14.116,2.044 14.408 C 2.201 15.158,2.842 15.799,3.592 15.956 C 3.731 15.985,4.525 16.000,5.902 16.000 L 8.000 16.000 8.000 18.098 C 8.000 19.475,8.015 20.269,8.044 20.408 C 8.201 21.158,8.842 21.799,9.592 21.956 C 9.884 22.017,14.116 22.017,14.408 21.956 C 15.158 21.799,15.799 21.158,15.956 20.408 C 15.985 20.269,16.000 19.475,16.000 18.098 L 16.000 16.000 18.098 16.000 C 19.475 16.000,20.269 15.985,20.408 15.956 C 21.158 15.799,21.799 15.158,21.956 14.408 C 22.017 14.116,22.017 9.884,21.956 9.592 C 21.797 8.830,21.138 8.181,20.383 8.043 C 20.232 8.016,19.389 8.000,18.073 8.000 L 16.000 8.000 16.000 5.902 C 16.000 4.525,15.985 3.731,15.956 3.592 C 15.797 2.830,15.138 2.181,14.383 2.043 C 14.085 1.989,9.868 1.992,9.580 2.047 M13.014 5.520 L 14.000 7.000 12.000 7.000 L 10.000 7.000 10.986 5.520 C 11.529 4.706,11.985 4.040,12.000 4.040 C 12.015 4.040,12.471 4.706,13.014 5.520 M7.000 12.000 L 7.000 14.000 5.519 13.013 C 4.705 12.470,4.043 12.011,4.049 11.993 C 4.057 11.968,6.943 10.015,6.990 10.003 C 6.995 10.001,7.000 10.900,7.000 12.000 M12.383 10.043 C 13.185 10.190,13.839 10.872,13.967 11.695 C 14.153 12.894,13.209 14.000,12.000 14.000 C 11.032 14.000,10.183 13.268,10.033 12.305 C 9.933 11.663,10.132 11.061,10.596 10.596 C 11.085 10.108,11.698 9.918,12.383 10.043 M19.960 12.000 C 19.960 12.015,19.294 12.471,18.480 13.014 L 17.000 14.000 17.000 12.000 L 17.000 10.000 18.480 10.986 C 19.294 11.529,19.960 11.985,19.960 12.000 M13.014 18.480 C 12.471 19.294,12.015 19.960,12.000 19.960 C 11.985 19.960,11.529 19.294,10.986 18.480 L 10.000 17.000 12.000 17.000 L 14.000 17.000 13.014 18.480 " stroke="none" fill-rule="evenodd" fill="black"></path></svg>