<svg viewBox="0 0 24 24" xmlns="http://www.w3.org/2000/svg"><path d="M11.000 3.498 L 11.000 4.997 7.730 5.010 C 4.058 5.025,4.331 5.003,3.655 5.338 C 3.034 5.645,2.487 6.227,2.233 6.850 C 2.018 7.380,2.000 7.569,2.000 9.350 L 2.000 10.984 2.470 11.031 C 3.381 11.123,4.035 11.393,4.841 12.010 C 6.019 12.911,6.174 12.981,7.020 12.979 C 7.817 12.978,8.000 12.894,9.140 12.016 C 10.175 11.219,11.232 10.906,12.470 11.031 C 13.379 11.123,14.017 11.386,14.833 12.006 C 16.027 12.913,16.176 12.980,17.000 12.980 C 17.807 12.980,18.002 12.893,19.147 12.019 C 19.970 11.390,20.617 11.122,21.527 11.031 L 22.000 10.984 22.000 9.350 C 22.000 7.569,21.982 7.380,21.767 6.850 C 21.505 6.207,20.961 5.638,20.303 5.319 C 19.634 4.995,19.697 5.000,16.116 5.000 L 13.000 5.000 13.000 3.500 L 13.000 2.000 12.000 2.000 L 11.000 2.000 11.000 3.498 M2.000 15.598 C 2.000 17.340,2.015 18.266,2.044 18.408 C 2.201 19.158,2.842 19.799,3.592 19.956 C 3.892 20.018,20.108 20.018,20.408 19.956 C 21.158 19.799,21.799 19.158,21.956 18.408 C 21.985 18.266,22.000 17.339,22.000 15.593 L 22.000 12.990 21.710 13.018 C 21.165 13.071,20.850 13.217,20.220 13.709 C 19.312 14.419,18.843 14.680,18.140 14.867 C 17.780 14.963,17.669 14.973,17.020 14.975 C 16.404 14.977,16.249 14.965,15.946 14.889 C 15.183 14.697,14.757 14.471,13.897 13.800 C 13.049 13.139,12.577 12.962,11.800 13.012 C 11.157 13.053,10.890 13.187,9.841 13.990 C 9.271 14.426,8.714 14.713,8.139 14.867 C 7.779 14.963,7.669 14.973,7.020 14.975 C 6.404 14.977,6.249 14.965,5.946 14.889 C 5.182 14.697,4.761 14.473,3.900 13.801 C 3.163 13.227,2.659 13.002,2.110 13.000 L 2.000 13.000 2.000 15.598 " stroke="none" fill-rule="evenodd" fill="black"></path></svg>