<svg viewBox="0 0 24 24" xmlns="http://www.w3.org/2000/svg"><path d="M11.120 2.039 C 8.020 2.349,5.361 3.939,3.659 6.500 C 1.048 10.428,1.568 15.667,4.900 19.022 C 5.878 20.007,6.984 20.750,8.220 21.254 C 11.958 22.779,16.203 21.920,19.062 19.062 C 23.445 14.678,22.834 7.442,17.778 3.853 C 16.479 2.930,15.094 2.370,13.493 2.119 C 12.909 2.027,11.660 1.985,11.120 2.039 M9.644 6.421 C 9.840 6.883,10.010 7.290,10.022 7.326 C 10.038 7.377,9.955 7.439,9.665 7.591 C 8.139 8.394,7.135 9.931,7.013 11.647 L 6.988 12.000 5.994 12.000 L 5.000 12.000 5.000 11.864 C 5.000 11.790,5.019 11.542,5.042 11.314 C 5.252 9.239,6.304 7.456,8.040 6.231 C 8.324 6.030,9.200 5.555,9.254 5.572 C 9.272 5.578,9.448 5.960,9.644 6.421 M12.498 10.061 C 13.046 10.204,13.553 10.623,13.797 11.134 C 14.515 12.639,13.154 14.323,11.529 13.940 C 11.170 13.855,10.898 13.704,10.616 13.433 C 9.492 12.354,9.973 10.476,11.480 10.057 C 11.733 9.987,12.220 9.989,12.498 10.061 " stroke="none" fill-rule="evenodd" fill="black"></path></svg>