<svg viewBox="0 0 24 24" xmlns="http://www.w3.org/2000/svg"><path d="M9.280 2.060 C 8.642 2.204,8.072 2.631,7.811 3.162 C 7.669 3.452,7.561 3.854,7.561 4.101 L 7.560 4.261 7.122 4.246 C 6.577 4.228,6.198 4.305,5.769 4.522 C 5.206 4.806,4.795 5.215,4.516 5.768 C 4.073 6.645,4.151 7.723,4.720 8.586 L 4.803 8.713 4.601 8.756 C 3.421 9.009,2.457 9.932,2.118 11.132 C 1.875 11.990,2.037 13.046,2.528 13.800 C 2.697 14.060,3.144 14.538,3.391 14.722 L 3.522 14.820 3.384 15.140 C 2.954 16.135,3.056 17.403,3.638 18.292 C 3.932 18.742,4.398 19.153,4.889 19.395 C 5.317 19.607,5.846 19.759,6.160 19.760 C 6.469 19.762,6.491 19.779,6.592 20.093 C 6.722 20.497,6.969 20.894,7.283 21.199 C 7.612 21.520,7.893 21.692,8.350 21.853 C 8.668 21.966,8.745 21.977,9.200 21.978 C 9.647 21.980,9.738 21.968,10.055 21.864 C 10.575 21.693,10.862 21.445,10.960 21.078 C 10.987 20.980,10.997 17.843,10.990 11.834 L 10.980 2.740 10.892 2.576 C 10.789 2.383,10.561 2.173,10.367 2.092 C 10.163 2.007,9.590 1.990,9.280 2.060 M13.805 2.043 C 13.520 2.099,13.256 2.302,13.106 2.580 L 13.020 2.740 13.020 11.920 L 13.020 21.100 13.109 21.266 C 13.360 21.736,14.143 22.041,14.962 21.988 C 16.073 21.916,17.071 21.143,17.408 20.093 C 17.509 19.779,17.531 19.762,17.840 19.760 C 18.154 19.759,18.683 19.607,19.111 19.395 C 20.230 18.843,20.877 17.759,20.879 16.435 C 20.880 15.949,20.762 15.399,20.579 15.038 L 20.470 14.823 20.605 14.724 C 20.850 14.543,21.300 14.064,21.472 13.800 C 22.449 12.299,22.021 10.248,20.522 9.245 C 20.186 9.021,19.676 8.803,19.348 8.743 L 19.195 8.715 19.279 8.588 C 19.849 7.722,19.927 6.646,19.484 5.768 C 19.205 5.215,18.794 4.806,18.231 4.522 C 17.802 4.305,17.423 4.228,16.878 4.246 L 16.440 4.261 16.439 4.101 C 16.438 3.633,16.170 3.014,15.810 2.648 C 15.328 2.157,14.499 1.907,13.805 2.043 " stroke="none" fill-rule="evenodd" fill="black"></path></svg>