<svg viewBox="0 0 24 24" xmlns="http://www.w3.org/2000/svg"><path d="M11.140 2.046 C 9.476 2.190,7.851 2.758,6.478 3.675 C 2.791 6.138,1.182 10.573,2.420 14.860 C 3.457 18.448,6.601 21.226,10.340 21.857 C 13.918 22.461,17.560 21.064,19.824 18.217 C 22.529 14.816,22.721 10.076,20.302 6.440 C 18.297 3.427,14.761 1.731,11.140 2.046 M14.470 10.950 L 12.700 12.720 14.120 14.140 L 15.540 15.560 12.010 15.560 L 8.480 15.560 8.480 12.010 L 8.480 8.460 9.890 9.870 L 11.300 11.280 13.060 9.520 L 14.819 7.760 15.530 8.470 L 16.240 9.179 14.470 10.950 " stroke="none" fill-rule="evenodd" fill="black"></path></svg>