<svg viewBox="0 0 24 24" xmlns="http://www.w3.org/2000/svg"><path d="M4.664 3.063 C 4.436 3.146,4.257 3.297,4.131 3.511 L 4.020 3.700 4.008 5.350 L 3.997 7.000 6.498 7.000 L 9.000 7.000 9.000 5.427 C 9.000 3.638,8.994 3.591,8.701 3.299 C 8.406 3.004,8.373 3.000,6.483 3.003 C 5.145 3.005,4.789 3.017,4.664 3.063 M15.664 3.063 C 15.436 3.146,15.257 3.297,15.131 3.511 L 15.020 3.700 15.008 5.350 L 14.997 7.000 17.498 7.000 L 20.000 7.000 20.000 5.427 C 20.000 3.638,19.994 3.591,19.701 3.299 C 19.406 3.004,19.373 3.000,17.483 3.003 C 16.145 3.005,15.789 3.017,15.664 3.063 M4.000 11.730 C 4.001 13.293,4.018 14.614,4.041 14.820 C 4.352 17.608,6.031 19.994,8.529 21.200 C 10.731 22.264,13.270 22.264,15.474 21.199 C 17.967 19.995,19.648 17.605,19.959 14.820 C 19.982 14.614,19.999 13.293,20.000 11.730 L 20.000 9.000 17.500 9.000 L 15.000 9.000 15.000 11.616 C 15.000 14.594,14.996 14.643,14.704 15.260 C 14.373 15.959,13.823 16.493,13.151 16.766 C 11.660 17.373,10.006 16.740,9.312 15.296 C 9.010 14.669,9.026 14.852,9.010 11.770 L 8.996 9.000 6.498 9.000 L 4.000 9.000 4.000 11.730 " stroke="none" fill-rule="evenodd" fill="black"></path></svg>