<svg viewBox="0 0 24 24" xmlns="http://www.w3.org/2000/svg"><path d="M8.420 3.044 C 6.982 3.252,5.732 4.327,5.236 5.784 C 5.022 6.415,5.000 6.655,5.000 8.403 L 5.000 9.996 3.869 10.008 C 2.745 10.020,2.736 10.021,2.539 10.122 C 2.309 10.241,2.101 10.492,2.038 10.728 C 2.007 10.841,1.998 11.354,2.010 12.337 C 2.024 13.632,2.035 13.820,2.113 14.174 C 2.385 15.407,2.890 16.332,3.779 17.223 C 4.403 17.849,5.096 18.311,5.810 18.580 L 6.000 18.651 6.000 20.325 L 6.000 22.000 7.000 22.000 L 8.000 22.000 8.000 20.500 L 8.000 19.000 12.000 19.000 L 16.000 19.000 16.000 20.500 L 16.000 22.000 17.000 22.000 L 18.000 22.000 18.000 20.325 L 18.000 18.651 18.190 18.580 C 18.904 18.311,19.597 17.849,20.221 17.223 C 21.111 16.331,21.629 15.380,21.889 14.164 C 21.960 13.829,21.973 13.594,21.989 12.331 C 22.010 10.666,22.000 10.598,21.702 10.300 C 21.377 9.975,22.017 10.000,14.070 10.000 L 6.995 10.000 7.008 8.330 L 7.021 6.660 7.124 6.395 C 7.344 5.825,7.639 5.476,8.104 5.231 C 9.329 4.588,10.806 5.387,10.984 6.790 L 11.010 7.000 12.005 7.000 L 13.000 7.000 13.000 6.816 C 13.000 6.715,12.963 6.452,12.918 6.231 C 12.578 4.562,11.272 3.314,9.600 3.058 C 9.185 2.995,8.793 2.991,8.420 3.044 " stroke="none" fill-rule="evenodd" fill="black"></path></svg>