<svg viewBox="0 0 24 24" xmlns="http://www.w3.org/2000/svg"><path d="M11.120 2.039 C 8.020 2.349,5.361 3.939,3.659 6.500 C 1.048 10.428,1.568 15.667,4.900 19.022 C 6.350 20.482,8.116 21.430,10.103 21.815 C 14.424 22.652,18.792 20.550,20.853 16.640 C 23.181 12.225,21.866 6.754,17.778 3.853 C 16.479 2.930,15.094 2.370,13.493 2.119 C 12.909 2.027,11.660 1.985,11.120 2.039 M10.000 12.000 L 10.000 16.000 9.000 16.000 L 8.000 16.000 8.000 12.000 L 8.000 8.000 9.000 8.000 L 10.000 8.000 10.000 12.000 M16.000 12.000 L 16.000 16.000 13.019 14.013 C 11.380 12.920,10.043 12.011,10.049 11.993 C 10.057 11.968,15.942 8.016,15.990 8.003 C 15.995 8.001,16.000 9.800,16.000 12.000 " stroke="none" fill-rule="evenodd" fill="black"></path></svg>