<svg viewBox="0 0 24 24" xmlns="http://www.w3.org/2000/svg"><path d="M11.280 2.026 C 8.791 2.198,6.710 2.974,5.410 4.216 C 4.934 4.671,4.685 5.000,4.440 5.500 C 4.070 6.257,4.100 5.678,4.100 12.000 C 4.100 18.319,4.070 17.740,4.439 18.500 C 4.681 19.000,4.923 19.319,5.412 19.786 C 6.374 20.705,7.773 21.378,9.466 21.736 C 10.229 21.897,10.796 21.960,11.700 21.987 C 14.522 22.069,17.069 21.288,18.678 19.848 C 19.289 19.301,19.782 18.520,19.971 17.800 L 20.060 17.460 20.060 12.000 L 20.060 6.540 19.970 6.200 C 19.781 5.489,19.421 4.894,18.821 4.300 C 17.537 3.030,15.460 2.222,13.020 2.042 C 12.503 2.004,11.713 1.997,11.280 2.026 M12.980 4.042 C 14.933 4.208,16.590 4.847,17.469 5.775 C 18.078 6.417,18.198 6.965,17.881 7.664 C 17.591 8.303,16.619 9.026,15.476 9.453 C 14.553 9.798,13.653 9.956,12.434 9.988 C 10.639 10.035,9.191 9.756,7.909 9.117 C 6.733 8.530,6.037 7.683,6.087 6.897 C 6.132 6.193,6.840 5.419,7.940 4.870 C 9.270 4.206,11.193 3.890,12.980 4.042 M11.560 5.320 C 9.284 5.538,8.297 7.110,9.805 8.117 C 11.139 9.008,13.643 8.866,14.668 7.841 C 14.950 7.559,15.056 7.328,15.056 7.000 C 15.056 6.565,14.821 6.212,14.309 5.877 C 13.644 5.444,12.562 5.224,11.560 5.320 " stroke="none" fill-rule="evenodd" fill="black"></path></svg>