<svg viewBox="0 0 24 24" xmlns="http://www.w3.org/2000/svg"><path d="M3.664 3.063 C 3.436 3.146,3.257 3.297,3.131 3.511 L 3.020 3.700 3.020 12.000 L 3.020 20.300 3.131 20.489 C 3.192 20.592,3.301 20.723,3.374 20.778 C 3.684 21.015,3.106 21.000,11.998 21.000 C 21.144 21.000,20.376 21.026,20.701 20.701 C 21.026 20.376,21.000 21.144,21.000 12.000 C 21.000 2.856,21.026 3.624,20.701 3.299 C 20.376 2.973,21.147 3.000,11.983 3.003 C 5.003 3.005,3.797 3.014,3.664 3.063 M10.427 8.183 C 10.899 8.287,11.352 8.553,11.808 8.992 L 11.996 9.173 12.275 8.910 C 12.925 8.297,13.701 8.028,14.543 8.123 C 15.193 8.196,15.672 8.432,16.163 8.919 C 16.451 9.205,16.537 9.322,16.692 9.640 C 17.097 10.470,17.098 11.244,16.694 12.080 L 16.511 12.460 14.246 14.730 L 11.981 17.001 10.027 15.050 C 7.895 12.923,7.544 12.548,7.341 12.183 C 7.101 11.749,7.020 11.409,7.022 10.840 C 7.024 10.401,7.037 10.301,7.135 10.020 C 7.267 9.639,7.405 9.391,7.640 9.108 C 8.337 8.275,9.342 7.942,10.427 8.183 " stroke="none" fill-rule="evenodd" fill="black"></path></svg>