<svg viewBox="0 0 24 24" xmlns="http://www.w3.org/2000/svg"><path d="M2.000 4.000 L 2.000 5.000 3.170 5.001 L 4.340 5.002 6.740 10.771 C 8.949 16.081,9.153 16.553,9.304 16.705 C 9.616 17.019,9.337 17.002,14.063 16.991 L 18.262 16.980 18.457 16.880 C 18.564 16.825,18.704 16.714,18.769 16.635 C 18.920 16.448,21.951 8.404,21.987 8.095 C 22.038 7.646,21.739 7.188,21.310 7.061 C 21.131 7.007,20.257 7.000,14.221 7.000 L 7.336 7.000 6.744 5.570 C 6.418 4.784,6.089 4.044,6.013 3.927 C 5.728 3.486,5.296 3.179,4.796 3.062 C 4.596 3.014,4.261 3.001,3.270 3.001 L 2.000 3.000 2.000 4.000 M15.000 10.000 L 15.000 11.000 16.000 11.000 L 17.000 11.000 17.000 12.000 L 17.000 13.000 16.000 13.000 L 15.000 13.000 15.000 14.000 L 15.000 15.000 14.000 15.000 L 13.000 15.000 13.000 14.000 L 13.000 13.000 12.000 13.000 L 11.000 13.000 11.000 12.000 L 11.000 11.000 12.000 11.000 L 13.000 11.000 13.000 10.000 L 13.000 9.000 14.000 9.000 L 15.000 9.000 15.000 10.000 M10.150 18.041 C 9.722 18.149,9.343 18.465,9.144 18.880 C 9.034 19.111,9.020 19.180,9.020 19.500 C 9.020 19.811,9.035 19.894,9.133 20.104 C 9.276 20.413,9.585 20.721,9.900 20.868 C 10.107 20.965,10.190 20.980,10.500 20.980 C 10.811 20.980,10.894 20.965,11.104 20.867 C 11.413 20.724,11.721 20.415,11.868 20.100 C 11.965 19.893,11.980 19.810,11.980 19.500 C 11.980 19.189,11.965 19.106,11.867 18.896 C 11.725 18.589,11.414 18.278,11.110 18.139 C 10.852 18.022,10.407 17.976,10.150 18.041 M17.150 18.041 C 16.722 18.149,16.343 18.465,16.144 18.880 C 16.034 19.111,16.020 19.180,16.020 19.500 C 16.020 19.811,16.035 19.894,16.133 20.104 C 16.276 20.413,16.585 20.721,16.900 20.868 C 17.107 20.965,17.190 20.980,17.500 20.980 C 17.811 20.980,17.894 20.965,18.104 20.867 C 18.413 20.724,18.721 20.415,18.868 20.100 C 18.965 19.893,18.980 19.810,18.980 19.500 C 18.980 19.189,18.965 19.106,18.867 18.896 C 18.725 18.589,18.414 18.278,18.110 18.139 C 17.852 18.022,17.407 17.976,17.150 18.041 " stroke="none" fill-rule="evenodd" fill="black"></path></svg>