<svg viewBox="0 0 24 24" xmlns="http://www.w3.org/2000/svg"><path d="M20.549 3.042 C 20.031 3.129,19.403 3.416,18.861 3.814 C 18.685 3.944,18.238 4.349,17.869 4.714 L 17.199 5.378 16.589 4.773 C 16.254 4.440,15.917 4.135,15.840 4.095 C 15.628 3.984,15.192 3.995,14.960 4.117 C 14.858 4.170,14.491 4.496,14.112 4.871 L 13.444 5.531 13.034 5.400 C 9.643 4.318,5.868 5.532,3.708 8.400 C 2.056 10.593,1.570 13.452,2.405 16.067 C 2.830 17.399,3.506 18.506,4.500 19.500 C 6.107 21.107,8.249 21.999,10.500 21.999 C 13.057 21.999,15.535 20.805,17.131 18.804 C 18.830 16.674,19.416 13.829,18.688 11.253 L 18.573 10.846 19.288 10.133 C 20.088 9.334,20.201 9.170,20.199 8.802 C 20.198 8.425,20.107 8.290,19.329 7.510 L 18.621 6.800 19.220 6.197 C 19.833 5.581,20.131 5.337,20.520 5.135 C 20.730 5.027,20.769 5.021,21.370 5.007 L 22.000 4.993 22.000 3.996 L 22.000 3.000 21.370 3.005 C 21.023 3.007,20.654 3.024,20.549 3.042 M10.480 8.995 L 10.480 9.990 10.195 10.018 C 8.491 10.186,7.155 11.524,7.015 13.202 L 6.988 13.520 5.989 13.520 L 4.989 13.520 5.016 13.150 C 5.070 12.426,5.282 11.631,5.581 11.038 C 6.092 10.023,7.023 9.092,8.041 8.580 C 8.668 8.264,9.593 8.028,10.290 8.006 L 10.480 8.000 10.480 8.995 " stroke="none" fill-rule="evenodd" fill="black"></path></svg>