<svg viewBox="0 0 24 24" xmlns="http://www.w3.org/2000/svg"><path d="M11.500 2.057 C 10.709 2.239,10.094 2.720,9.765 3.411 C 9.582 3.795,9.518 4.044,9.508 4.413 C 9.504 4.560,9.494 4.680,9.486 4.680 C 9.479 4.680,9.421 4.644,9.359 4.599 C 9.297 4.555,9.123 4.470,8.973 4.411 C 8.723 4.312,8.652 4.303,8.140 4.301 C 7.470 4.300,7.209 4.371,6.740 4.685 C 5.577 5.463,5.272 6.984,6.046 8.142 C 6.261 8.462,6.555 8.744,6.828 8.888 C 6.922 8.939,7.000 8.989,7.000 9.000 C 7.000 9.011,6.922 9.061,6.828 9.112 C 6.046 9.526,5.508 10.615,5.636 11.527 C 5.779 12.551,6.438 13.332,7.420 13.641 C 7.995 13.822,8.763 13.741,9.300 13.442 L 9.501 13.330 9.508 13.592 C 9.518 13.958,9.583 14.206,9.770 14.600 C 9.898 14.869,9.995 15.003,10.236 15.243 C 10.774 15.778,11.256 15.980,12.000 15.980 C 12.397 15.980,12.504 15.965,12.781 15.870 C 13.770 15.531,14.464 14.607,14.492 13.592 L 14.499 13.330 14.700 13.442 C 15.062 13.644,15.414 13.729,15.880 13.729 C 16.579 13.729,17.155 13.492,17.642 13.003 C 18.495 12.148,18.623 10.859,17.954 9.858 C 17.739 9.538,17.445 9.256,17.172 9.112 C 17.078 9.061,17.000 9.011,17.000 9.000 C 17.000 8.989,17.086 8.935,17.190 8.880 C 17.294 8.825,17.508 8.653,17.664 8.498 C 18.167 7.998,18.431 7.305,18.387 6.600 C 18.322 5.563,17.662 4.719,16.644 4.372 C 16.389 4.285,16.269 4.268,15.900 4.268 C 15.527 4.268,15.411 4.284,15.140 4.376 C 14.964 4.436,14.753 4.529,14.671 4.582 C 14.589 4.636,14.517 4.680,14.511 4.680 C 14.505 4.680,14.496 4.560,14.492 4.413 C 14.482 4.044,14.418 3.795,14.235 3.411 C 13.846 2.593,13.028 2.057,12.106 2.017 C 11.879 2.007,11.649 2.022,11.500 2.057 M12.756 6.097 C 13.093 6.189,13.595 6.447,13.873 6.671 C 14.554 7.219,15.000 8.140,15.000 9.000 C 15.000 10.170,14.225 11.329,13.151 11.766 C 11.642 12.380,9.989 11.734,9.298 10.260 C 9.072 9.779,9.021 9.546,9.021 9.000 C 9.021 8.454,9.072 8.221,9.298 7.740 C 9.716 6.848,10.537 6.215,11.503 6.040 C 11.770 5.991,12.491 6.024,12.756 6.097 M2.000 13.046 C 2.001 13.276,2.206 14.252,2.368 14.800 C 3.148 17.441,5.039 19.671,7.540 20.901 C 8.701 21.472,9.684 21.742,11.250 21.919 L 12.000 22.004 12.750 21.919 C 13.581 21.825,13.955 21.762,14.520 21.619 C 16.260 21.179,17.834 20.283,19.121 19.000 C 20.440 17.685,21.380 15.993,21.798 14.180 C 21.891 13.779,22.014 13.040,21.991 13.018 C 21.964 12.991,20.656 13.153,20.187 13.242 C 18.223 13.613,16.357 14.610,14.903 16.063 C 13.778 17.189,12.961 18.511,12.453 20.030 C 12.275 20.562,12.042 21.524,12.041 21.730 C 12.040 21.791,12.022 21.840,12.000 21.840 C 11.978 21.840,11.960 21.791,11.959 21.730 C 11.958 21.524,11.725 20.562,11.547 20.030 C 10.820 17.859,9.374 15.979,7.472 14.731 C 6.093 13.827,4.608 13.302,2.860 13.102 C 2.552 13.066,2.232 13.028,2.150 13.015 C 2.040 12.999,2.000 13.007,2.000 13.046 " stroke="none" fill-rule="evenodd" fill="black"></path></svg>