<svg viewBox="0 0 24 24" xmlns="http://www.w3.org/2000/svg"><path d="M7.580 2.047 C 6.859 2.185,6.199 2.848,6.044 3.592 C 5.982 3.891,5.982 16.109,6.044 16.408 C 6.201 17.158,6.842 17.799,7.592 17.956 C 7.891 18.018,20.109 18.018,20.408 17.956 C 21.158 17.799,21.799 17.158,21.956 16.408 C 22.018 16.109,22.018 3.891,21.956 3.592 C 21.797 2.830,21.138 2.181,20.383 2.043 C 20.077 1.987,7.875 1.991,7.580 2.047 M14.592 4.581 C 15.482 4.790,16.210 5.519,16.420 6.410 C 16.547 6.948,16.475 7.605,16.237 8.095 C 15.810 8.969,14.981 9.485,14.000 9.485 C 13.019 9.485,12.190 8.969,11.763 8.095 C 11.437 7.424,11.436 6.566,11.763 5.908 C 12.095 5.238,12.693 4.752,13.392 4.582 C 13.697 4.508,14.281 4.507,14.592 4.581 M2.000 14.098 C 2.000 18.395,2.013 20.259,2.044 20.408 C 2.201 21.158,2.842 21.799,3.592 21.956 C 3.741 21.987,5.605 22.000,9.902 22.000 L 16.000 22.000 16.000 21.000 L 16.000 20.000 10.000 20.000 L 4.000 20.000 4.000 14.000 L 4.000 8.000 3.000 8.000 L 2.000 8.000 2.000 14.098 M15.053 11.099 C 15.814 11.234,16.716 11.603,17.311 12.025 C 17.459 12.130,17.713 12.342,17.874 12.498 C 18.589 13.183,18.935 13.852,18.988 14.650 L 19.012 15.000 14.000 15.000 L 8.988 15.000 9.012 14.650 C 9.065 13.852,9.411 13.183,10.126 12.498 C 10.976 11.682,12.137 11.170,13.460 11.025 C 13.758 10.993,14.698 11.036,15.053 11.099 " stroke="none" fill-rule="evenodd" fill="black"></path></svg>