<svg viewBox="0 0 24 24" xmlns="http://www.w3.org/2000/svg"><path d="M7.540 5.026 C 6.687 5.161,6.042 5.474,5.495 6.019 C 4.850 6.661,4.509 7.519,4.509 8.500 C 4.509 10.141,5.503 11.460,7.062 11.886 C 7.521 12.012,8.479 12.012,8.938 11.886 C 10.497 11.460,11.491 10.141,11.491 8.500 C 11.491 6.846,10.464 5.500,8.909 5.117 C 8.587 5.038,7.796 4.985,7.540 5.026 M14.000 8.000 L 14.000 9.000 18.000 9.000 L 22.000 9.000 22.000 8.000 L 22.000 7.000 18.000 7.000 L 14.000 7.000 14.000 8.000 M15.000 12.000 L 15.000 13.000 18.500 13.000 L 22.000 13.000 22.000 12.000 L 22.000 11.000 18.500 11.000 L 15.000 11.000 15.000 12.000 M6.340 13.046 C 4.610 13.266,3.055 14.467,2.376 16.107 C 2.105 16.760,2.034 17.158,2.011 18.130 L 1.990 19.000 8.000 19.000 L 14.010 19.000 13.989 18.130 C 13.966 17.158,13.895 16.760,13.624 16.107 C 12.934 14.441,11.385 13.260,9.601 13.042 C 9.196 12.992,6.738 12.995,6.340 13.046 M16.000 16.000 L 16.000 17.000 19.000 17.000 L 22.000 17.000 22.000 16.000 L 22.000 15.000 19.000 15.000 L 16.000 15.000 16.000 16.000 " stroke="none" fill-rule="evenodd" fill="black"></path></svg>