<svg viewBox="0 0 24 24" xmlns="http://www.w3.org/2000/svg"><path d="M9.160 4.028 C 7.899 4.101,6.578 4.416,5.662 4.862 C 3.770 5.782,2.604 7.287,2.130 9.417 L 2.023 9.900 2.010 14.511 C 2.001 17.670,2.011 19.171,2.040 19.279 C 2.102 19.509,2.312 19.761,2.539 19.878 L 2.738 19.980 5.939 19.992 C 8.204 20.000,9.210 19.991,9.380 19.959 C 10.143 19.814,10.797 19.171,10.956 18.408 C 10.986 18.262,11.000 17.051,11.000 14.525 C 11.000 10.393,11.016 10.613,10.701 10.299 C 10.408 10.006,10.367 10.000,8.530 10.000 L 6.915 10.000 6.941 9.810 C 7.086 8.763,7.608 8.041,8.590 7.531 C 9.096 7.267,9.585 7.107,10.367 6.949 L 11.000 6.821 11.000 5.410 L 11.000 4.000 10.190 4.007 C 9.745 4.011,9.281 4.021,9.160 4.028 M20.160 4.028 C 18.899 4.101,17.578 4.416,16.662 4.862 C 14.770 5.782,13.604 7.287,13.130 9.417 L 13.023 9.900 13.010 14.511 C 13.001 17.670,13.011 19.171,13.040 19.279 C 13.102 19.509,13.312 19.761,13.539 19.878 L 13.738 19.980 16.939 19.992 C 19.204 20.000,20.210 19.991,20.380 19.959 C 21.143 19.814,21.797 19.171,21.956 18.408 C 21.986 18.262,22.000 17.051,22.000 14.525 C 22.000 10.393,22.016 10.613,21.701 10.299 C 21.408 10.006,21.367 10.000,19.530 10.000 L 17.915 10.000 17.941 9.810 C 18.086 8.763,18.608 8.041,19.590 7.531 C 20.096 7.267,20.585 7.107,21.367 6.949 L 22.000 6.821 22.000 5.410 L 22.000 4.000 21.190 4.007 C 20.744 4.011,20.281 4.021,20.160 4.028 " stroke="none" fill-rule="evenodd" fill="black"></path></svg>