<svg viewBox="0 0 24 24" xmlns="http://www.w3.org/2000/svg"><path d="M14.139 1.999 C 10.343 2.401,6.545 4.834,4.180 8.380 C 2.002 11.644,1.403 15.282,2.583 18.070 C 2.725 18.403,2.750 18.440,2.845 18.440 C 3.149 18.440,6.342 17.947,6.726 17.841 C 8.354 17.390,9.704 16.296,10.477 14.799 C 10.947 13.890,11.119 13.151,11.199 11.700 C 11.258 10.610,11.413 9.915,11.793 9.035 C 12.172 8.155,12.618 7.480,13.276 6.792 C 14.103 5.927,14.959 5.352,16.059 4.922 C 16.691 4.676,17.195 4.567,18.774 4.339 C 19.584 4.222,20.255 4.118,20.265 4.108 C 20.275 4.098,20.116 3.934,19.913 3.742 C 18.982 2.866,17.780 2.296,16.360 2.059 C 15.916 1.985,14.609 1.950,14.139 1.999 M19.360 5.861 C 18.403 6.001,17.442 6.161,17.225 6.217 C 16.762 6.337,16.138 6.595,15.731 6.833 C 14.796 7.380,13.863 8.364,13.392 9.295 C 12.972 10.127,12.723 11.173,12.721 12.108 C 12.720 12.576,12.624 13.311,12.501 13.800 C 11.788 16.634,9.577 18.795,6.755 19.413 C 6.505 19.468,5.751 19.590,5.080 19.683 C 4.409 19.776,3.842 19.868,3.821 19.887 C 3.797 19.909,3.889 20.022,4.061 20.183 C 4.896 20.962,6.024 21.534,7.240 21.793 C 8.468 22.056,9.938 22.008,11.390 21.660 C 13.924 21.052,16.596 19.388,18.518 17.220 C 19.753 15.827,20.646 14.384,21.256 12.792 C 21.769 11.454,22.000 10.259,21.999 8.960 C 21.998 7.781,21.835 6.948,21.402 5.910 C 21.295 5.655,21.257 5.601,21.186 5.604 C 21.139 5.606,20.317 5.722,19.360 5.861 " stroke="none" fill-rule="evenodd" fill="black"></path></svg>