<svg viewBox="0 0 24 24" xmlns="http://www.w3.org/2000/svg"><path d="M11.120 2.039 C 8.020 2.349,5.361 3.939,3.659 6.500 C 1.048 10.428,1.568 15.667,4.900 19.022 C 5.878 20.007,6.984 20.750,8.220 21.254 C 11.958 22.779,16.203 21.920,19.062 19.062 C 23.445 14.678,22.834 7.442,17.778 3.853 C 16.479 2.930,15.094 2.370,13.493 2.119 C 12.909 2.027,11.660 1.985,11.120 2.039 M10.000 7.993 L 10.000 8.985 9.654 9.032 C 8.830 9.142,8.292 9.631,8.079 10.463 C 8.036 10.634,8.000 10.824,8.000 10.886 L 8.000 11.000 6.995 11.000 L 5.990 11.000 6.018 10.710 C 6.159 9.258,6.927 8.042,8.082 7.442 C 8.562 7.192,9.241 7.020,9.810 7.005 L 10.000 7.000 10.000 7.993 M14.596 7.041 C 14.759 7.062,15.011 7.108,15.156 7.143 C 15.541 7.235,16.255 7.596,16.567 7.855 C 17.354 8.508,17.885 9.572,17.984 10.690 L 18.011 11.000 17.006 11.000 L 16.000 11.000 15.999 10.890 C 15.998 10.678,15.883 10.238,15.763 9.987 C 15.618 9.682,15.320 9.374,15.031 9.227 C 14.811 9.116,14.357 9.002,14.130 9.001 L 14.000 9.000 14.000 8.000 L 14.000 7.000 14.150 7.001 C 14.232 7.002,14.433 7.020,14.596 7.041 M12.507 13.043 C 13.620 13.196,14.571 13.911,14.887 14.832 C 15.016 15.209,15.016 15.791,14.887 16.168 C 14.442 17.466,12.851 18.245,11.297 17.924 C 10.235 17.705,9.414 17.044,9.113 16.168 C 8.984 15.791,8.984 15.209,9.113 14.832 C 9.537 13.597,10.984 12.834,12.507 13.043 " stroke="none" fill-rule="evenodd" fill="black"></path></svg>