<svg viewBox="0 0 24 24" xmlns="http://www.w3.org/2000/svg"><path d="M11.220 2.041 C 9.833 2.163,8.361 2.598,7.203 3.229 C 6.770 3.464,6.029 3.962,5.620 4.292 C 5.167 4.658,4.355 5.506,3.986 6.000 C 2.622 7.824,1.939 10.011,2.013 12.320 C 2.046 13.335,2.167 14.041,2.501 15.159 C 2.704 15.838,2.668 16.321,2.362 17.001 C 2.085 17.615,2.023 17.898,2.022 18.540 C 2.021 19.185,2.079 19.466,2.320 19.987 C 2.510 20.396,2.669 20.631,2.978 20.955 C 3.712 21.726,4.764 22.123,5.754 22.003 C 6.191 21.950,6.546 21.846,7.007 21.635 C 7.378 21.466,7.788 21.361,8.080 21.362 C 8.298 21.362,8.598 21.426,9.177 21.598 C 10.793 22.076,12.542 22.124,14.268 21.737 C 17.960 20.909,20.826 18.065,21.722 14.340 C 21.929 13.480,21.978 13.029,21.978 12.020 C 21.978 10.781,21.904 10.321,21.437 8.640 C 21.294 8.126,21.350 7.640,21.623 7.033 C 21.862 6.500,21.959 6.136,21.987 5.652 C 22.081 4.082,21.099 2.644,19.580 2.130 C 19.281 2.029,19.216 2.022,18.580 2.023 C 17.943 2.024,17.879 2.031,17.560 2.137 C 17.373 2.199,17.121 2.299,17.000 2.359 C 16.583 2.567,16.370 2.618,15.920 2.619 C 15.556 2.619,15.446 2.602,15.100 2.491 C 13.913 2.111,12.408 1.936,11.220 2.041 M12.000 5.992 L 12.000 6.984 11.530 7.031 C 11.272 7.058,10.889 7.125,10.680 7.180 C 10.198 7.309,9.434 7.682,9.019 7.992 C 7.851 8.865,7.115 10.205,7.013 11.647 L 6.988 12.000 5.994 12.000 L 5.000 12.000 5.000 11.864 C 5.000 11.600,5.085 10.895,5.161 10.530 C 5.464 9.068,6.333 7.615,7.472 6.667 C 8.709 5.637,10.250 5.044,11.790 5.005 L 12.000 5.000 12.000 5.992 " stroke="none" fill-rule="evenodd" fill="black"></path></svg>