<svg viewBox="0 0 24 24" xmlns="http://www.w3.org/2000/svg"><path d="M3.766 3.814 L 2.273 5.307 2.986 5.994 C 3.378 6.371,3.708 6.680,3.720 6.680 C 3.731 6.680,4.406 6.014,5.220 5.200 L 6.699 3.720 6.000 3.020 C 5.616 2.635,5.292 2.320,5.280 2.320 C 5.269 2.320,4.588 2.992,3.766 3.814 M17.970 3.010 L 17.280 3.701 18.790 5.208 L 20.300 6.716 20.997 5.995 L 21.693 5.274 20.217 3.797 C 19.405 2.985,18.722 2.320,18.700 2.320 C 18.677 2.320,18.349 2.631,17.970 3.010 M11.340 4.025 C 10.077 4.157,9.049 4.451,8.026 4.970 C 7.122 5.429,6.378 5.974,5.640 6.717 C 2.110 10.273,2.127 15.768,5.679 19.321 C 8.972 22.613,13.942 22.897,17.576 20.002 C 19.234 18.680,20.420 16.738,20.836 14.660 C 21.816 9.768,18.306 4.874,13.260 4.098 C 12.868 4.038,11.655 3.991,11.340 4.025 M13.000 11.000 L 13.000 14.000 12.000 14.000 L 11.000 14.000 11.000 11.000 L 11.000 8.000 12.000 8.000 L 13.000 8.000 13.000 11.000 M13.000 17.000 L 13.000 18.000 12.000 18.000 L 11.000 18.000 11.000 17.000 L 11.000 16.000 12.000 16.000 L 13.000 16.000 13.000 17.000 " stroke="none" fill-rule="evenodd" fill="black"></path></svg>