<svg viewBox="0 0 24 24" xmlns="http://www.w3.org/2000/svg"><path d="M11.120 2.039 C 8.020 2.349,5.361 3.939,3.659 6.500 C 1.048 10.428,1.568 15.667,4.900 19.022 C 5.878 20.007,6.984 20.750,8.220 21.254 C 11.958 22.779,16.203 21.920,19.062 19.062 C 23.445 14.678,22.834 7.442,17.778 3.853 C 16.479 2.930,15.094 2.370,13.493 2.119 C 12.909 2.027,11.660 1.985,11.120 2.039 M14.000 12.000 L 14.000 17.000 11.018 14.515 C 9.378 13.149,8.043 12.011,8.051 11.988 C 8.061 11.956,13.947 7.016,13.990 7.003 C 13.995 7.001,14.000 9.250,14.000 12.000 " stroke="none" fill-rule="evenodd" fill="black"></path></svg>