<svg viewBox="0 0 24 24" xmlns="http://www.w3.org/2000/svg"><path d="M4.503 2.042 C 3.534 2.205,2.600 2.948,2.233 3.850 C 2.016 4.384,2.000 4.560,2.000 6.453 C 2.000 8.371,2.019 8.587,2.244 9.225 C 2.406 9.684,2.521 9.910,2.785 10.289 L 3.000 10.597 3.000 15.369 C 3.000 18.532,3.014 20.190,3.042 20.289 C 3.104 20.512,3.316 20.763,3.539 20.878 L 3.738 20.980 7.937 20.991 C 12.667 21.002,12.382 21.020,12.700 20.702 C 13.008 20.394,13.000 20.478,13.000 17.573 L 13.000 15.000 15.000 15.000 L 17.000 15.000 17.000 17.570 C 17.000 19.217,17.015 20.194,17.042 20.289 C 17.104 20.512,17.316 20.763,17.539 20.878 C 17.737 20.980,17.740 20.980,18.933 20.992 C 20.313 21.005,20.413 20.989,20.700 20.702 C 21.020 20.382,21.000 20.741,21.000 15.362 L 21.000 10.578 21.180 10.339 C 21.551 9.845,21.872 9.056,21.957 8.427 C 21.982 8.247,22.000 7.396,22.000 6.415 C 22.000 4.563,21.984 4.383,21.767 3.850 C 21.505 3.207,20.961 2.638,20.303 2.319 C 19.596 1.977,20.195 1.999,11.966 2.005 C 7.970 2.007,4.611 2.024,4.503 2.042 M7.992 6.210 L 7.980 8.420 7.884 8.660 C 7.554 9.489,6.830 10.000,5.986 10.000 C 5.085 10.000,4.265 9.276,4.060 8.300 C 4.014 8.081,4.001 7.674,4.001 6.437 C 4.000 4.636,4.006 4.592,4.300 4.298 C 4.588 4.010,4.613 4.007,6.412 4.003 L 8.004 4.000 7.992 6.210 M13.992 6.210 L 13.980 8.420 13.884 8.660 C 13.556 9.483,12.829 10.000,12.000 10.000 C 11.071 10.000,10.208 9.286,10.043 8.383 C 10.016 8.232,10.000 7.384,10.000 6.073 L 10.000 4.000 12.002 4.000 L 14.004 4.000 13.992 6.210 M19.340 4.066 C 19.593 4.153,19.847 4.407,19.934 4.660 C 19.991 4.828,20.000 5.067,19.999 6.437 C 19.999 8.215,19.981 8.377,19.735 8.876 C 19.331 9.698,18.460 10.137,17.592 9.956 C 16.834 9.798,16.180 9.133,16.043 8.383 C 16.016 8.232,16.000 7.384,16.000 6.073 L 16.000 4.000 17.573 4.000 C 18.932 4.000,19.172 4.009,19.340 4.066 M10.000 14.500 L 10.000 16.000 8.000 16.000 L 6.000 16.000 6.000 14.500 L 6.000 13.000 8.000 13.000 L 10.000 13.000 10.000 14.500 " stroke="none" fill-rule="evenodd" fill="black"></path></svg>