<svg viewBox="0 0 24 24" xmlns="http://www.w3.org/2000/svg"><path d="M17.503 3.040 C 16.828 3.162,16.156 3.550,15.703 4.080 C 14.987 4.917,14.806 6.100,15.234 7.151 C 15.521 7.857,16.143 8.479,16.849 8.766 C 17.989 9.230,19.251 8.978,20.115 8.115 C 21.238 6.992,21.295 5.212,20.246 4.020 C 19.897 3.624,19.276 3.239,18.756 3.097 C 18.491 3.024,17.770 2.991,17.503 3.040 M5.580 4.047 C 4.859 4.185,4.199 4.848,4.044 5.592 C 3.982 5.891,3.982 18.109,4.044 18.408 C 4.201 19.158,4.842 19.799,5.592 19.956 C 5.891 20.018,18.109 20.018,18.408 19.956 C 19.158 19.799,19.799 19.158,19.956 18.408 C 20.024 18.083,20.018 10.585,19.950 10.611 C 18.739 11.075,17.543 11.118,16.406 10.737 C 15.461 10.420,14.598 9.792,13.992 8.981 C 13.683 8.567,13.309 7.802,13.183 7.326 C 12.919 6.332,12.955 5.310,13.285 4.373 C 13.348 4.193,13.400 4.036,13.400 4.023 C 13.400 3.983,5.794 4.006,5.580 4.047 " stroke="none" fill-rule="evenodd" fill="black"></path></svg>