<svg viewBox="0 0 24 24" xmlns="http://www.w3.org/2000/svg"><path d="M9.640 2.068 C 9.489 2.120,9.231 2.358,8.019 3.565 L 6.578 5.000 5.216 5.000 C 4.411 5.000,3.758 5.018,3.617 5.043 C 2.862 5.181,2.203 5.830,2.044 6.592 C 1.982 6.891,1.982 18.109,2.044 18.408 C 2.201 19.158,2.842 19.799,3.592 19.956 C 3.892 20.018,20.108 20.018,20.408 19.956 C 21.158 19.799,21.799 19.158,21.956 18.408 C 22.018 18.109,22.018 6.891,21.956 6.592 C 21.817 5.926,21.317 5.360,20.647 5.109 C 20.433 5.029,20.332 5.023,18.920 5.010 L 17.420 4.996 15.980 3.563 C 14.700 2.290,14.518 2.124,14.343 2.065 C 14.170 2.008,13.884 2.000,11.983 2.003 C 10.140 2.006,9.793 2.015,9.640 2.068 M12.561 7.042 C 13.329 7.136,14.113 7.432,14.784 7.881 C 15.189 8.152,15.848 8.811,16.119 9.216 C 17.277 10.946,17.278 13.050,16.120 14.784 C 15.858 15.175,15.157 15.876,14.771 16.132 C 13.042 17.278,10.985 17.286,9.260 16.154 C 8.858 15.890,8.154 15.194,7.891 14.800 C 7.484 14.190,7.192 13.487,7.076 12.840 C 7.007 12.454,7.007 11.546,7.076 11.160 C 7.192 10.512,7.485 9.808,7.892 9.200 C 8.150 8.815,8.815 8.150,9.200 7.892 C 9.821 7.476,10.554 7.174,11.160 7.085 C 11.325 7.060,11.505 7.034,11.560 7.026 C 11.773 6.994,12.237 7.002,12.561 7.042 M11.420 9.066 C 9.591 9.456,8.530 11.387,9.213 13.079 C 9.378 13.485,9.564 13.763,9.901 14.099 C 10.909 15.108,12.312 15.283,13.550 14.554 C 13.844 14.382,14.382 13.844,14.554 13.550 C 15.051 12.706,15.133 11.779,14.787 10.921 C 14.242 9.571,12.793 8.773,11.420 9.066 " stroke="none" fill-rule="evenodd" fill="black"></path></svg>