<svg viewBox="0 0 24 24" xmlns="http://www.w3.org/2000/svg"><path d="M7.868 2.061 C 6.560 2.308,5.531 3.244,5.133 4.548 C 5.036 4.867,5.026 4.963,5.023 5.560 C 5.020 6.169,5.078 6.660,5.185 6.940 C 5.206 6.993,5.016 7.000,3.604 7.000 L 2.000 7.000 2.000 9.000 L 2.000 11.000 6.500 11.000 L 11.000 11.000 11.000 10.000 L 11.000 9.000 12.000 9.000 L 13.000 9.000 13.000 10.000 L 13.000 11.000 17.500 11.000 L 22.000 11.000 22.000 9.000 L 22.000 7.000 20.400 7.000 C 19.520 7.000,18.800 6.992,18.800 6.983 C 18.800 6.974,18.840 6.807,18.888 6.613 C 18.963 6.317,18.977 6.151,18.976 5.580 C 18.975 4.957,18.966 4.870,18.867 4.548 C 18.459 3.216,17.423 2.292,16.074 2.056 C 14.780 1.830,13.719 2.388,12.794 3.780 C 12.663 3.978,12.456 4.338,12.334 4.580 C 12.213 4.822,12.107 5.026,12.100 5.033 C 12.093 5.041,11.995 4.868,11.883 4.650 C 11.633 4.164,11.283 3.631,10.973 3.265 C 10.514 2.723,9.806 2.252,9.220 2.098 C 8.875 2.007,8.244 1.990,7.868 2.061 M8.960 4.144 C 9.333 4.347,9.765 4.893,10.131 5.622 C 10.310 5.979,10.680 6.880,10.680 6.959 C 10.680 6.986,10.189 7.000,9.188 7.000 C 7.721 7.000,7.694 6.999,7.519 6.910 C 7.268 6.783,7.131 6.543,7.053 6.095 C 6.928 5.379,7.049 4.861,7.432 4.467 C 7.872 4.014,8.485 3.885,8.960 4.144 M16.114 4.141 C 16.415 4.278,16.727 4.591,16.861 4.890 C 17.001 5.201,17.031 5.616,16.947 6.095 C 16.869 6.543,16.732 6.783,16.481 6.910 C 16.307 6.998,16.275 7.000,14.912 7.000 L 13.521 7.000 13.678 6.561 C 14.144 5.254,14.729 4.311,15.220 4.074 C 15.433 3.971,15.802 3.999,16.114 4.141 M4.000 16.098 C 4.000 18.935,4.014 20.261,4.044 20.408 C 4.201 21.158,4.842 21.799,5.592 21.956 C 5.734 21.985,6.660 22.000,8.402 22.000 L 11.000 22.000 11.000 17.000 L 11.000 12.000 7.500 12.000 L 4.000 12.000 4.000 16.098 M13.000 17.000 L 13.000 22.000 15.598 22.000 C 17.340 22.000,18.266 21.985,18.408 21.956 C 19.158 21.799,19.799 21.158,19.956 20.408 C 19.986 20.261,20.000 18.935,20.000 16.098 L 20.000 12.000 16.500 12.000 L 13.000 12.000 13.000 17.000 " stroke="none" fill-rule="evenodd" fill="black"></path></svg>