<svg viewBox="0 0 24 24" xmlns="http://www.w3.org/2000/svg"><path d="M5.000 12.000 L 5.000 21.000 7.000 21.000 L 9.000 21.000 9.000 18.502 L 9.000 16.005 11.670 15.989 C 14.195 15.974,14.361 15.969,14.726 15.890 C 15.829 15.651,16.809 15.186,17.620 14.518 C 18.793 13.551,19.553 12.277,19.885 10.720 C 20.007 10.148,20.017 8.979,19.905 8.380 C 19.367 5.494,17.052 3.346,14.150 3.040 C 13.934 3.018,11.957 3.001,9.390 3.001 L 5.000 3.000 5.000 12.000 M14.240 7.109 C 15.027 7.377,15.646 8.003,15.891 8.780 C 16.016 9.175,16.016 9.825,15.891 10.220 C 15.687 10.866,15.210 11.433,14.630 11.719 C 14.068 11.996,14.035 11.999,11.370 11.999 L 9.000 12.000 9.000 9.498 L 9.000 6.997 11.490 7.009 C 13.937 7.021,13.984 7.023,14.240 7.109 " stroke="none" fill-rule="evenodd" fill="black"></path></svg>