<svg viewBox="0 0 24 24" xmlns="http://www.w3.org/2000/svg"><path d="M3.580 3.047 C 2.858 3.185,2.199 3.848,2.044 4.592 C 1.982 4.890,1.982 15.110,2.044 15.408 C 2.201 16.158,2.842 16.799,3.592 16.956 C 3.738 16.986,4.930 17.000,7.402 17.000 L 11.000 17.000 11.000 18.500 L 11.000 20.000 9.500 20.000 L 8.000 20.000 8.000 21.000 L 8.000 22.000 12.000 22.000 L 16.000 22.000 16.000 21.000 L 16.000 20.000 14.500 20.000 L 13.000 20.000 13.000 18.500 L 13.000 17.000 16.598 17.000 C 19.070 17.000,20.262 16.986,20.408 16.956 C 21.158 16.799,21.799 16.158,21.956 15.408 C 22.018 15.110,22.018 4.890,21.956 4.592 C 21.817 3.927,21.322 3.365,20.647 3.107 L 20.420 3.020 12.100 3.014 C 6.933 3.011,3.704 3.023,3.580 3.047 M14.960 10.004 C 14.960 10.017,13.885 10.673,12.570 11.461 C 11.255 12.249,10.139 12.920,10.090 12.951 L 10.000 13.009 10.000 10.007 L 10.000 7.004 12.480 8.492 C 13.844 9.310,14.960 9.991,14.960 10.004 " stroke="none" fill-rule="evenodd" fill="black"></path></svg>