<svg viewBox="0 0 24 24" xmlns="http://www.w3.org/2000/svg"><path d="M13.988 4.018 L 13.443 4.835 13.692 5.013 C 14.007 5.239,14.495 5.745,14.718 6.075 C 14.929 6.388,15.171 6.899,15.260 7.220 C 15.348 7.538,15.386 8.479,15.323 8.810 C 15.215 9.381,14.988 9.909,14.658 10.360 C 14.553 10.503,14.161 10.931,13.786 11.310 C 13.412 11.690,13.115 12.000,13.128 12.000 C 13.218 12.000,15.117 12.590,15.394 12.704 C 16.705 13.244,17.680 14.153,18.322 15.436 C 18.654 16.099,18.905 16.972,18.982 17.730 L 19.009 18.000 20.011 18.000 L 21.012 18.000 20.987 17.630 C 20.892 16.212,20.324 14.657,19.452 13.427 C 19.324 13.247,18.968 12.848,18.660 12.539 C 18.077 11.955,17.628 11.609,17.010 11.268 C 16.819 11.162,16.654 11.068,16.645 11.058 C 16.635 11.048,16.701 10.883,16.793 10.690 C 17.257 9.709,17.449 8.711,17.361 7.735 C 17.232 6.311,16.670 5.108,15.661 4.098 C 15.256 3.693,14.657 3.200,14.569 3.200 C 14.549 3.200,14.288 3.568,13.988 4.018 M8.943 4.042 C 8.063 4.180,7.342 4.539,6.706 5.156 C 5.540 6.285,5.189 7.978,5.803 9.514 C 6.131 10.335,6.809 11.088,7.612 11.521 C 8.979 12.258,10.693 12.125,11.913 11.185 C 13.386 10.051,13.892 8.114,13.163 6.400 C 12.684 5.276,11.562 4.356,10.350 4.097 C 9.993 4.020,9.261 3.992,8.943 4.042 M7.320 13.044 C 4.752 13.330,2.672 15.241,2.115 17.826 C 2.048 18.136,2.026 18.409,2.010 19.110 L 1.990 20.000 9.500 20.000 L 17.010 20.000 16.990 19.110 C 16.974 18.409,16.952 18.136,16.885 17.826 C 16.656 16.762,16.173 15.794,15.501 15.047 C 14.452 13.883,13.149 13.207,11.632 13.042 C 11.177 12.993,7.766 12.994,7.320 13.044 " stroke="none" fill-rule="evenodd" fill="black"></path></svg>