<svg viewBox="0 0 24 24" xmlns="http://www.w3.org/2000/svg"><path d="M11.120 2.041 C 6.685 2.503,3.049 5.807,2.184 10.160 C 1.564 13.285,2.550 16.513,4.859 18.915 C 6.719 20.850,9.382 22.000,12.000 22.000 C 14.263 22.000,16.587 21.136,18.380 19.627 C 20.646 17.720,22.000 14.868,22.000 12.000 C 22.000 9.143,20.642 6.273,18.400 4.391 C 16.931 3.158,15.223 2.382,13.360 2.101 C 12.858 2.025,11.595 1.991,11.120 2.041 M12.857 7.118 C 13.853 7.376,14.670 8.218,14.906 9.226 C 15.002 9.636,15.002 10.387,14.906 10.780 C 14.657 11.798,13.882 12.594,12.852 12.888 C 12.405 13.016,11.595 13.016,11.148 12.888 C 10.145 12.601,9.391 11.852,9.116 10.867 C 8.986 10.404,8.984 9.599,9.112 9.148 C 9.332 8.375,9.773 7.804,10.464 7.400 C 10.778 7.217,11.007 7.134,11.414 7.056 C 11.793 6.984,12.449 7.012,12.857 7.118 M13.980 14.674 C 14.717 14.838,15.382 15.142,15.973 15.585 C 16.320 15.845,16.772 16.300,16.974 16.592 L 17.089 16.757 17.004 16.863 C 16.722 17.222,15.762 17.938,15.147 18.247 C 12.584 19.535,9.493 19.131,7.368 17.228 C 6.891 16.802,6.886 16.793,7.026 16.591 C 7.488 15.924,8.387 15.236,9.216 14.916 C 10.019 14.606,10.426 14.561,12.260 14.580 C 13.439 14.592,13.668 14.605,13.980 14.674 " stroke="none" fill-rule="evenodd" fill="black"></path></svg>