<svg viewBox="0 0 24 24" xmlns="http://www.w3.org/2000/svg"><path d="M4.000 6.278 L 4.000 9.556 3.770 9.708 C 3.079 10.166,2.488 10.934,2.218 11.725 C 2.013 12.327,2.000 12.514,2.000 14.915 C 2.000 16.324,2.016 17.195,2.042 17.289 C 2.104 17.512,2.316 17.763,2.539 17.878 C 2.723 17.973,2.783 17.981,3.369 17.993 L 4.000 18.006 4.000 20.003 L 4.000 22.000 5.000 22.000 L 6.000 22.000 6.000 20.000 L 6.000 18.000 12.000 18.000 L 18.000 18.000 18.000 20.000 L 18.000 22.000 19.000 22.000 L 20.000 22.000 20.000 20.000 L 20.000 18.000 20.573 18.000 C 21.259 18.000,21.454 17.948,21.701 17.701 C 22.004 17.398,22.000 17.437,22.000 14.918 C 22.000 12.514,21.987 12.327,21.782 11.725 C 21.512 10.934,20.921 10.166,20.230 9.708 L 20.000 9.556 20.000 6.278 L 20.000 3.000 19.000 3.000 L 18.000 3.000 18.000 4.000 L 18.000 5.000 12.000 5.000 L 6.000 5.000 6.000 4.000 L 6.000 3.000 5.000 3.000 L 4.000 3.000 4.000 6.278 M11.000 8.000 L 11.000 9.000 8.500 9.000 L 6.000 9.000 6.000 8.000 L 6.000 7.000 8.500 7.000 L 11.000 7.000 11.000 8.000 M18.000 8.000 L 18.000 9.000 15.500 9.000 L 13.000 9.000 13.000 8.000 L 13.000 7.000 15.500 7.000 L 18.000 7.000 18.000 8.000 " stroke="none" fill-rule="evenodd" fill="black"></path></svg>