<svg viewBox="0 0 24 24" xmlns="http://www.w3.org/2000/svg"><path d="M5.580 2.047 C 4.859 2.185,4.199 2.848,4.044 3.592 C 3.982 3.892,3.982 20.108,4.044 20.408 C 4.201 21.158,4.842 21.799,5.592 21.956 C 5.891 22.018,18.109 22.018,18.408 21.956 C 19.158 21.799,19.799 21.158,19.956 20.408 C 19.987 20.259,20.000 18.393,20.000 14.088 L 20.000 7.980 17.010 4.990 L 14.020 2.000 9.900 2.004 C 7.480 2.007,5.698 2.025,5.580 2.047 M15.520 6.500 L 18.020 9.000 15.510 9.000 L 13.000 9.000 13.000 6.500 C 13.000 5.125,13.005 4.000,13.010 4.000 C 13.016 4.000,14.145 5.125,15.520 6.500 M9.875 14.042 C 10.016 14.065,10.190 14.108,10.262 14.138 L 10.394 14.193 10.306 14.514 C 10.258 14.690,10.208 14.845,10.195 14.858 C 10.182 14.871,10.048 14.852,9.896 14.817 C 9.164 14.645,8.526 14.897,8.272 15.456 C 8.194 15.630,8.180 15.724,8.181 16.100 C 8.182 16.461,8.197 16.572,8.266 16.720 C 8.376 16.956,8.610 17.191,8.837 17.293 C 9.082 17.403,9.653 17.431,9.969 17.348 C 10.230 17.280,10.204 17.252,10.283 17.668 C 10.309 17.805,10.320 17.943,10.308 17.975 C 10.246 18.135,9.186 18.217,8.687 18.099 C 7.581 17.838,6.998 16.818,7.258 15.594 C 7.493 14.483,8.589 13.833,9.875 14.042 M13.120 14.102 C 13.241 14.138,13.353 14.180,13.369 14.195 C 13.420 14.243,13.219 14.901,13.156 14.894 C 13.125 14.891,12.984 14.857,12.843 14.820 C 12.503 14.730,12.085 14.750,11.932 14.865 C 11.871 14.911,11.804 15.006,11.784 15.076 C 11.716 15.313,11.841 15.413,12.684 15.794 C 13.068 15.967,13.323 16.174,13.452 16.417 C 13.578 16.654,13.576 17.190,13.449 17.429 C 13.172 17.950,12.640 18.185,11.820 18.149 C 11.394 18.130,10.877 18.012,10.820 17.921 C 10.800 17.888,10.945 17.242,10.980 17.207 C 10.987 17.200,11.143 17.242,11.326 17.300 C 11.837 17.462,12.319 17.442,12.529 17.252 C 12.632 17.158,12.658 16.951,12.585 16.809 C 12.511 16.666,12.361 16.570,11.980 16.420 C 11.413 16.198,11.113 15.978,10.949 15.662 C 10.833 15.440,10.832 15.010,10.947 14.760 C 11.106 14.413,11.515 14.118,11.946 14.039 C 12.217 13.990,12.857 14.024,13.120 14.102 M16.360 14.102 C 16.481 14.138,16.593 14.180,16.609 14.195 C 16.660 14.243,16.459 14.901,16.396 14.894 C 16.365 14.891,16.224 14.857,16.083 14.820 C 15.743 14.730,15.325 14.750,15.172 14.865 C 15.111 14.911,15.044 15.006,15.024 15.076 C 14.956 15.313,15.081 15.413,15.924 15.794 C 16.308 15.967,16.563 16.174,16.692 16.417 C 16.762 16.547,16.779 16.649,16.780 16.920 C 16.780 17.222,16.767 17.284,16.662 17.473 C 16.391 17.962,15.864 18.184,15.060 18.149 C 14.634 18.130,14.117 18.012,14.060 17.921 C 14.040 17.888,14.185 17.242,14.220 17.207 C 14.227 17.200,14.383 17.242,14.566 17.300 C 15.077 17.462,15.559 17.442,15.769 17.252 C 15.872 17.158,15.898 16.951,15.825 16.809 C 15.751 16.666,15.601 16.570,15.220 16.420 C 14.653 16.198,14.353 15.978,14.189 15.662 C 14.073 15.440,14.072 15.010,14.187 14.760 C 14.346 14.413,14.755 14.118,15.186 14.039 C 15.457 13.990,16.097 14.024,16.360 14.102 " stroke="none" fill-rule="evenodd" fill="black"></path></svg>