<svg viewBox="0 0 24 24" xmlns="http://www.w3.org/2000/svg"><path d="M11.320 3.025 C 11.221 3.034,10.942 3.069,10.700 3.103 C 7.800 3.509,5.215 5.399,3.918 8.060 C 2.079 11.837,3.068 16.291,6.347 18.998 C 6.781 19.356,7.483 19.801,8.060 20.082 C 9.976 21.018,12.136 21.243,14.205 20.722 C 15.144 20.486,16.160 20.036,16.953 19.505 C 19.103 18.067,20.507 15.864,20.909 13.300 C 21.005 12.690,21.005 11.310,20.909 10.700 C 20.445 7.744,18.614 5.234,15.980 3.941 C 15.090 3.505,14.266 3.244,13.320 3.101 C 12.909 3.039,11.677 2.992,11.320 3.025 M11.500 11.000 L 15.000 11.000 15.000 12.000 L 15.000 13.000 11.500 13.000 L 8.000 13.000 8.000 14.500 L 8.000 16.000 5.518 14.015 C 4.154 12.923,3.043 12.011,3.050 11.989 C 3.058 11.967,4.170 11.064,5.522 9.982 L 7.980 8.015 7.990 9.508 L 8.001 11.000 11.500 11.000 " stroke="none" fill-rule="evenodd" fill="black"></path></svg>