<svg viewBox="0 0 24 24" xmlns="http://www.w3.org/2000/svg"><path d="M5.580 2.047 C 4.859 2.185,4.199 2.848,4.044 3.592 C 3.982 3.892,3.982 20.108,4.044 20.408 C 4.201 21.158,4.842 21.799,5.592 21.956 C 5.891 22.018,18.109 22.018,18.408 21.956 C 19.158 21.799,19.799 21.158,19.956 20.408 C 19.987 20.259,20.000 18.393,20.000 14.088 L 20.000 7.980 17.010 4.990 L 14.020 2.000 9.900 2.004 C 7.480 2.007,5.698 2.025,5.580 2.047 M15.520 6.500 L 18.020 9.000 15.510 9.000 L 13.000 9.000 13.000 6.500 C 13.000 5.125,13.005 4.000,13.010 4.000 C 13.016 4.000,14.145 5.125,15.520 6.500 M15.446 13.313 C 16.295 13.539,16.877 14.110,17.036 14.872 C 17.097 15.168,17.090 15.847,17.021 16.171 C 16.885 16.816,16.467 17.365,15.905 17.640 C 15.311 17.931,14.747 18.021,13.740 17.989 C 13.366 17.976,13.028 17.954,12.990 17.939 C 12.924 17.913,12.920 17.764,12.920 15.599 L 12.920 13.287 13.230 13.261 C 13.400 13.247,13.576 13.229,13.620 13.221 C 13.664 13.213,14.024 13.212,14.420 13.219 C 14.986 13.229,15.205 13.249,15.446 13.313 M8.640 13.262 C 8.640 13.274,8.768 13.728,8.925 14.272 C 9.082 14.815,9.270 15.527,9.343 15.855 C 9.417 16.182,9.485 16.458,9.495 16.468 C 9.504 16.478,9.525 16.426,9.541 16.353 C 9.633 15.933,9.957 14.789,10.188 14.070 L 10.454 13.240 11.144 13.240 L 11.834 13.240 11.857 13.490 C 11.869 13.627,11.925 14.604,11.979 15.660 C 12.034 16.716,12.087 17.666,12.097 17.770 L 12.116 17.960 11.602 17.960 L 11.088 17.960 11.065 17.690 C 11.052 17.542,11.022 16.772,10.998 15.980 C 10.975 15.188,10.952 14.459,10.948 14.360 C 10.941 14.202,10.921 14.249,10.789 14.741 C 10.706 15.050,10.506 15.725,10.343 16.241 C 10.181 16.757,10.000 17.338,9.942 17.530 L 9.835 17.880 9.420 17.880 C 9.060 17.880,9.003 17.871,8.984 17.810 C 8.837 17.335,8.293 15.263,8.192 14.793 L 8.060 14.180 8.033 14.740 C 8.018 15.048,7.986 15.741,7.962 16.280 C 7.938 16.819,7.907 17.418,7.894 17.610 L 7.870 17.960 7.395 17.960 L 6.920 17.960 6.920 17.810 C 6.920 17.727,6.983 16.681,7.060 15.483 C 7.137 14.286,7.200 13.292,7.200 13.273 C 7.200 13.255,7.524 13.240,7.920 13.240 C 8.316 13.240,8.640 13.250,8.640 13.262 M14.000 15.600 L 14.000 17.169 14.430 17.151 C 14.973 17.129,15.256 17.028,15.519 16.764 C 15.849 16.433,15.981 16.017,15.952 15.403 C 15.922 14.785,15.730 14.445,15.272 14.197 C 15.029 14.066,15.001 14.060,14.510 14.046 L 14.000 14.032 14.000 15.600 " stroke="none" fill-rule="evenodd" fill="black"></path></svg>