<svg viewBox="0 0 24 24" xmlns="http://www.w3.org/2000/svg"><path d="M2.000 10.010 L 2.000 16.620 5.500 18.370 L 9.000 20.120 12.000 18.620 L 15.000 17.120 18.480 18.860 C 20.394 19.817,21.969 20.600,21.980 20.600 C 21.991 20.600,22.000 17.625,22.000 13.990 L 22.000 7.380 18.500 5.630 L 15.000 3.880 12.000 5.380 L 9.000 6.880 5.520 5.140 C 3.606 4.183,2.031 3.400,2.020 3.400 C 2.009 3.400,2.000 6.375,2.000 10.010 M15.000 10.500 L 15.000 15.000 12.000 16.500 L 9.000 18.000 9.000 13.500 L 9.000 9.000 11.990 7.502 C 13.635 6.678,14.985 6.003,14.990 6.002 C 14.995 6.001,15.000 8.025,15.000 10.500 " stroke="none" fill-rule="evenodd" fill="black"></path></svg>