<svg viewBox="0 0 24 24" xmlns="http://www.w3.org/2000/svg"><path d="M11.580 2.047 C 10.859 2.185,10.199 2.848,10.044 3.592 C 10.015 3.731,10.000 4.539,10.000 5.955 L 10.000 8.107 6.000 11.263 L 2.001 14.420 2.000 15.310 C 2.000 15.800,2.006 16.200,2.013 16.200 C 2.020 16.200,3.617 15.641,5.563 14.957 C 7.508 14.274,9.303 13.644,9.550 13.559 L 10.000 13.403 10.000 15.701 L 10.000 17.999 8.500 19.000 L 7.000 20.001 7.000 21.000 L 7.000 21.999 7.190 21.924 C 7.295 21.882,8.420 21.433,9.690 20.924 L 12.000 20.000 14.310 20.924 C 15.581 21.433,16.706 21.882,16.810 21.924 L 17.000 21.999 17.000 21.000 L 17.000 20.001 15.500 19.000 L 14.000 17.999 14.000 15.655 C 14.000 13.439,14.004 13.313,14.070 13.339 C 14.247 13.407,21.974 16.200,21.987 16.200 C 21.995 16.200,21.997 15.773,21.991 15.251 L 21.980 14.301 18.000 11.159 L 14.020 8.017 14.000 5.798 C 13.980 3.632,13.978 3.574,13.892 3.346 C 13.528 2.383,12.588 1.855,11.580 2.047 " stroke="none" fill-rule="evenodd" fill="black"></path></svg>