<svg viewBox="0 0 24 24" xmlns="http://www.w3.org/2000/svg"><path d="M11.120 2.039 C 8.019 2.349,5.361 3.938,3.659 6.500 C 1.037 10.446,1.571 15.696,4.938 19.062 C 8.853 22.977,15.146 22.977,19.062 19.062 C 23.445 14.678,22.834 7.442,17.778 3.853 C 16.479 2.930,15.094 2.370,13.493 2.119 C 12.909 2.027,11.660 1.985,11.120 2.039 M14.517 11.020 L 17.000 14.000 12.000 14.000 L 7.000 14.000 9.483 11.020 C 10.849 9.381,11.982 8.040,12.000 8.040 C 12.018 8.040,13.151 9.381,14.517 11.020 " stroke="none" fill-rule="evenodd" fill="black"></path></svg>