<svg viewBox="0 0 24 24" xmlns="http://www.w3.org/2000/svg"><path d="M10.000 3.000 L 10.000 4.000 8.604 4.000 C 7.527 4.000,7.136 4.014,6.890 4.060 C 5.841 4.260,5.016 4.961,4.624 5.989 C 4.550 6.182,4.205 7.196,3.858 8.243 L 3.225 10.146 2.988 10.283 C 2.531 10.547,2.153 11.072,2.044 11.592 C 1.982 11.890,1.983 17.116,2.045 17.408 C 2.144 17.869,2.424 18.307,2.801 18.588 L 3.000 18.737 3.000 19.939 C 3.000 20.643,3.018 21.202,3.042 21.289 C 3.104 21.512,3.316 21.763,3.539 21.878 C 3.726 21.974,3.779 21.981,4.431 21.993 C 5.256 22.008,5.436 21.966,5.700 21.702 C 5.979 21.423,6.000 21.309,6.000 20.073 L 6.000 19.000 12.000 19.000 L 18.000 19.000 18.000 20.070 C 18.000 20.684,18.018 21.204,18.042 21.289 C 18.104 21.512,18.316 21.763,18.539 21.878 C 18.726 21.974,18.779 21.981,19.431 21.993 C 20.256 22.008,20.436 21.966,20.700 21.702 C 20.984 21.418,21.000 21.323,21.000 19.943 L 21.000 18.740 21.220 18.570 C 21.498 18.356,21.765 17.995,21.885 17.671 L 21.979 17.420 21.992 14.640 C 22.001 12.674,21.991 11.790,21.959 11.620 C 21.857 11.085,21.481 10.554,21.012 10.283 L 20.775 10.146 20.142 8.243 C 19.795 7.196,19.450 6.182,19.376 5.989 C 18.984 4.961,18.159 4.260,17.110 4.060 C 16.864 4.014,16.473 4.000,15.396 4.000 L 14.000 4.000 14.000 3.000 L 14.000 2.000 12.000 2.000 L 10.000 2.000 10.000 3.000 M16.876 6.058 C 17.090 6.134,17.296 6.293,17.392 6.455 C 17.434 6.526,17.716 7.331,18.020 8.242 C 18.323 9.154,18.580 9.922,18.590 9.950 C 18.605 9.990,17.270 10.000,12.002 10.000 L 5.395 10.000 5.423 9.910 C 5.438 9.861,5.692 9.089,5.986 8.195 C 6.609 6.303,6.647 6.231,7.114 6.059 C 7.341 5.976,16.638 5.975,16.876 6.058 M6.132 13.151 C 6.450 13.301,6.700 13.552,6.856 13.880 C 6.966 14.111,6.980 14.180,6.980 14.500 C 6.980 14.821,6.966 14.888,6.855 15.120 C 6.696 15.452,6.449 15.698,6.120 15.856 C 5.889 15.966,5.820 15.980,5.500 15.980 C 5.190 15.980,5.107 15.965,4.900 15.868 C 4.584 15.721,4.275 15.413,4.134 15.104 C 4.038 14.895,4.022 14.808,4.021 14.500 C 4.020 14.178,4.034 14.112,4.145 13.880 C 4.346 13.462,4.720 13.149,5.150 13.041 C 5.420 12.973,5.857 13.021,6.132 13.151 M19.132 13.151 C 19.450 13.301,19.700 13.552,19.856 13.880 C 19.966 14.111,19.980 14.180,19.980 14.500 C 19.980 14.821,19.966 14.888,19.855 15.120 C 19.696 15.452,19.449 15.698,19.120 15.856 C 18.889 15.966,18.820 15.980,18.500 15.980 C 18.190 15.980,18.107 15.965,17.900 15.868 C 17.584 15.721,17.275 15.413,17.134 15.104 C 17.038 14.895,17.022 14.808,17.021 14.500 C 17.020 14.178,17.034 14.112,17.145 13.880 C 17.346 13.462,17.720 13.149,18.150 13.041 C 18.420 12.973,18.857 13.021,19.132 13.151 " stroke="none" fill-rule="evenodd" fill="black"></path></svg>