<svg viewBox="0 0 24 24" xmlns="http://www.w3.org/2000/svg"><path d="M3.580 4.047 C 2.858 4.185,2.199 4.848,2.044 5.592 C 1.982 5.891,1.982 18.109,2.044 18.408 C 2.201 19.158,2.842 19.799,3.592 19.956 C 3.892 20.018,20.108 20.018,20.408 19.956 C 21.158 19.799,21.799 19.158,21.956 18.408 C 22.018 18.109,22.018 5.891,21.956 5.592 C 21.817 4.927,21.322 4.365,20.647 4.107 L 20.420 4.020 12.100 4.014 C 6.933 4.011,3.704 4.023,3.580 4.047 M8.748 8.078 C 8.991 8.226,9.000 8.279,9.000 9.500 C 9.000 10.721,8.991 10.774,8.748 10.922 C 8.627 10.996,8.536 11.000,7.008 11.000 C 5.228 11.000,5.232 11.001,5.078 10.748 C 5.006 10.629,5.000 10.540,5.000 9.508 C 5.000 8.278,5.009 8.226,5.252 8.078 C 5.373 8.004,5.464 8.000,7.000 8.000 C 8.536 8.000,8.627 8.004,8.748 8.078 M11.000 15.000 L 11.000 16.000 8.000 16.000 L 5.000 16.000 5.000 15.000 L 5.000 14.000 8.000 14.000 L 11.000 14.000 11.000 15.000 M19.000 15.000 L 19.000 16.000 16.000 16.000 L 13.000 16.000 13.000 15.000 L 13.000 14.000 16.000 14.000 L 19.000 14.000 19.000 15.000 " stroke="none" fill-rule="evenodd" fill="black"></path></svg>