<svg viewBox="0 0 24 24" xmlns="http://www.w3.org/2000/svg"><path d="M12.426 2.344 C 12.445 2.518,12.460 3.083,12.460 3.600 C 12.460 4.624,12.420 4.961,12.196 5.834 C 11.934 6.855,11.392 7.985,10.750 8.853 L 10.547 9.127 11.274 9.853 L 12.000 10.580 15.161 7.420 L 18.322 4.260 18.211 4.168 C 17.970 3.967,17.358 3.557,16.947 3.321 C 15.706 2.609,14.187 2.146,12.786 2.054 L 12.392 2.027 12.426 2.344 M9.797 2.261 C 8.420 2.567,7.128 3.165,5.966 4.033 L 5.673 4.252 7.386 5.966 C 8.329 6.909,9.109 7.680,9.120 7.680 C 9.172 7.679,9.595 6.977,9.804 6.544 C 10.428 5.249,10.634 3.925,10.434 2.490 C 10.380 2.104,10.427 2.121,9.797 2.261 M4.071 5.906 C 3.222 7.010,2.577 8.395,2.256 9.800 C 2.114 10.427,2.092 10.380,2.550 10.445 C 3.091 10.521,4.119 10.510,4.618 10.422 C 5.650 10.240,6.559 9.880,7.423 9.312 C 7.564 9.219,7.680 9.133,7.680 9.121 C 7.680 9.109,6.909 8.328,5.966 7.386 L 4.251 5.672 4.071 5.906 M16.580 8.839 L 13.420 12.000 14.147 12.726 L 14.873 13.453 15.147 13.250 C 16.994 11.883,19.316 11.292,21.710 11.580 L 21.960 11.610 21.960 11.387 C 21.960 10.559,21.632 9.148,21.194 8.089 C 20.900 7.378,20.267 6.305,19.850 5.809 L 19.740 5.679 16.580 8.839 M9.000 10.644 C 8.730 10.864,8.009 11.314,7.580 11.530 C 5.902 12.373,4.093 12.672,2.224 12.414 L 2.027 12.387 2.053 12.804 C 2.125 13.988,2.487 15.293,3.070 16.475 C 3.315 16.974,3.892 17.891,4.148 18.191 L 4.260 18.321 7.420 15.161 L 10.579 12.000 9.860 11.280 C 9.465 10.884,9.132 10.560,9.120 10.561 C 9.109 10.561,9.055 10.599,9.000 10.644 M8.828 16.592 L 5.676 19.745 5.908 19.927 C 7.212 20.949,8.966 21.672,10.692 21.898 C 10.952 21.932,11.262 21.960,11.382 21.960 C 11.632 21.960,11.625 21.980,11.559 21.500 C 11.508 21.120,11.509 19.810,11.561 19.418 C 11.775 17.807,12.342 16.374,13.250 15.147 L 13.453 14.873 12.737 14.157 C 12.343 13.763,12.012 13.440,12.000 13.440 C 11.989 13.440,10.561 14.859,8.828 16.592 M19.900 13.521 C 19.072 13.589,18.257 13.811,17.494 14.178 C 17.087 14.373,16.321 14.832,16.320 14.880 C 16.320 14.891,17.091 15.671,18.032 16.612 L 19.745 18.324 19.927 18.092 C 20.424 17.459,20.945 16.543,21.254 15.760 C 21.582 14.928,21.901 13.724,21.816 13.641 C 21.719 13.546,20.513 13.471,19.900 13.521 M14.645 16.646 C 14.371 17.060,13.997 17.835,13.846 18.301 C 13.501 19.360,13.411 20.396,13.566 21.510 C 13.620 21.899,13.582 21.885,14.200 21.744 C 15.605 21.423,16.990 20.778,18.094 19.929 L 18.328 19.749 16.614 18.034 C 15.672 17.091,14.891 16.320,14.880 16.320 C 14.869 16.321,14.763 16.467,14.645 16.646 " stroke="none" fill-rule="evenodd" fill="black"></path></svg>