<svg viewBox="0 0 24 24" xmlns="http://www.w3.org/2000/svg"><path d="M6.580 2.047 C 5.846 2.187,5.184 2.864,5.042 3.620 C 5.009 3.795,5.000 6.330,5.008 12.924 L 5.020 21.989 8.510 19.571 L 12.000 17.153 15.490 19.571 L 18.980 21.989 18.992 12.924 C 19.000 6.330,18.991 3.795,18.958 3.620 C 18.813 2.846,18.152 2.184,17.383 2.043 C 17.077 1.988,6.874 1.991,6.580 2.047 M16.000 10.000 L 16.000 11.000 12.000 11.000 L 8.000 11.000 8.000 10.000 L 8.000 9.000 12.000 9.000 L 16.000 9.000 16.000 10.000 " stroke="none" fill-rule="evenodd" fill="black"></path></svg>