<svg viewBox="0 0 24 24" xmlns="http://www.w3.org/2000/svg"><path d="M9.580 2.047 C 8.859 2.185,8.199 2.848,8.044 3.592 C 8.018 3.717,8.000 4.255,8.000 4.902 L 8.000 6.000 12.073 6.000 C 14.825 6.000,16.222 6.014,16.383 6.043 C 17.151 6.184,17.816 6.849,17.957 7.617 C 17.986 7.778,18.000 9.175,18.000 11.927 L 18.000 16.000 19.098 16.000 C 19.745 16.000,20.283 15.982,20.408 15.956 C 21.158 15.799,21.799 15.158,21.956 14.408 C 22.018 14.110,22.018 3.890,21.956 3.592 C 21.797 2.830,21.138 2.181,20.383 2.043 C 20.077 1.988,9.874 1.991,9.580 2.047 M3.580 8.047 C 2.858 8.186,2.199 8.848,2.044 9.592 C 1.982 9.890,1.982 20.110,2.044 20.408 C 2.201 21.158,2.842 21.799,3.592 21.956 C 3.890 22.018,14.110 22.018,14.408 21.956 C 15.158 21.799,15.799 21.158,15.956 20.408 C 16.018 20.110,16.018 9.890,15.956 9.592 C 15.817 8.927,15.322 8.365,14.647 8.107 L 14.420 8.020 9.100 8.014 C 5.831 8.010,3.703 8.023,3.580 8.047 " stroke="none" fill-rule="evenodd" fill="black"></path></svg>