<svg viewBox="0 0 24 24" xmlns="http://www.w3.org/2000/svg"><path d="M8.012 2.710 C 7.951 2.818,7.117 4.277,6.160 5.953 L 4.420 8.999 3.657 9.000 C 2.739 9.000,2.558 9.039,2.303 9.295 C 2.120 9.478,2.000 9.756,2.000 9.998 C 2.000 10.204,4.858 20.654,4.987 20.920 C 5.126 21.206,5.555 21.635,5.840 21.772 C 6.338 22.011,6.036 22.000,12.000 22.000 C 17.964 22.000,17.662 22.011,18.160 21.772 C 18.445 21.635,18.874 21.206,19.013 20.920 C 19.074 20.794,19.738 18.438,20.562 15.420 C 21.866 10.649,22.003 10.118,21.986 9.910 C 21.955 9.520,21.700 9.189,21.330 9.057 C 21.225 9.019,20.942 9.003,20.380 9.001 L 19.580 8.999 17.765 5.820 C 16.767 4.072,15.928 2.612,15.902 2.576 C 15.860 2.519,15.756 2.568,14.990 3.005 L 14.126 3.500 14.198 3.620 C 14.238 3.686,14.947 4.923,15.773 6.370 L 17.275 9.000 12.000 9.000 L 6.725 9.000 8.227 6.370 C 9.053 4.923,9.762 3.686,9.802 3.620 L 9.875 3.499 9.035 3.020 C 8.573 2.756,8.180 2.534,8.160 2.527 C 8.141 2.521,8.074 2.603,8.012 2.710 M10.000 15.500 L 10.000 18.000 9.000 18.000 L 8.000 18.000 8.000 15.500 L 8.000 13.000 9.000 13.000 L 10.000 13.000 10.000 15.500 M16.000 15.500 L 16.000 18.000 15.000 18.000 L 14.000 18.000 14.000 15.500 L 14.000 13.000 15.000 13.000 L 16.000 13.000 16.000 15.500 " stroke="none" fill-rule="evenodd" fill="black"></path></svg>