<svg viewBox="0 0 24 24" xmlns="http://www.w3.org/2000/svg"><path d="M14.380 5.719 L 8.020 7.993 8.020 11.502 L 8.020 15.011 8.370 15.132 C 8.562 15.199,8.720 15.269,8.720 15.287 C 8.720 15.305,8.466 15.829,8.155 16.450 C 7.844 17.072,7.555 17.679,7.513 17.800 C 7.195 18.722,7.644 19.773,8.539 20.199 C 8.716 20.283,9.796 20.663,10.940 21.043 C 12.850 21.678,13.048 21.736,13.364 21.752 C 13.993 21.784,14.479 21.603,14.902 21.179 C 15.138 20.943,15.197 20.842,15.862 19.514 C 16.251 18.736,16.576 18.093,16.583 18.085 C 16.590 18.077,17.542 18.408,18.697 18.820 C 20.457 19.449,20.833 19.570,21.012 19.569 C 21.410 19.565,21.726 19.356,21.905 18.980 L 21.999 18.780 21.999 11.500 L 21.999 4.220 21.906 4.020 C 21.804 3.802,21.581 3.582,21.374 3.495 C 21.302 3.465,21.129 3.441,20.991 3.442 C 20.763 3.445,20.151 3.655,14.380 5.719 M3.580 8.047 C 2.859 8.185,2.199 8.848,2.044 9.592 C 1.984 9.881,1.984 13.119,2.044 13.408 C 2.201 14.158,2.842 14.799,3.592 14.956 C 3.717 14.982,4.255 15.000,4.902 15.000 L 6.000 15.000 6.000 11.500 L 6.000 8.000 4.890 8.004 C 4.279 8.007,3.690 8.026,3.580 8.047 M12.674 16.667 C 13.766 17.056,14.666 17.378,14.672 17.383 C 14.683 17.390,13.530 19.720,13.498 19.754 C 13.485 19.769,9.475 18.443,9.441 18.413 C 9.418 18.392,10.631 15.960,10.664 15.960 C 10.677 15.960,11.582 16.278,12.674 16.667 " stroke="none" fill-rule="evenodd" fill="black"></path></svg>