<svg viewBox="0 0 24 24" xmlns="http://www.w3.org/2000/svg"><path d="M4.580 2.047 C 3.859 2.185,3.199 2.848,3.044 3.592 C 2.982 3.891,2.982 17.109,3.044 17.408 C 3.201 18.158,3.842 18.799,4.592 18.956 C 4.731 18.985,5.527 19.000,6.912 19.000 L 9.020 19.000 10.520 20.500 L 12.020 22.000 13.520 20.500 L 15.020 19.000 17.108 19.000 C 18.478 19.000,19.269 18.985,19.408 18.956 C 20.158 18.799,20.799 18.158,20.956 17.408 C 21.018 17.109,21.018 3.891,20.956 3.592 C 20.797 2.830,20.138 2.181,19.383 2.043 C 19.076 1.987,4.875 1.991,4.580 2.047 M12.857 5.118 C 13.853 5.376,14.670 6.218,14.906 7.226 C 15.002 7.636,15.002 8.387,14.906 8.780 C 14.657 9.798,13.882 10.594,12.852 10.888 C 12.405 11.016,11.595 11.016,11.148 10.888 C 10.145 10.601,9.391 9.852,9.116 8.867 C 8.986 8.404,8.984 7.599,9.112 7.148 C 9.332 6.375,9.773 5.804,10.464 5.400 C 10.778 5.217,11.007 5.134,11.414 5.056 C 11.793 4.984,12.449 5.012,12.857 5.118 M13.100 13.101 C 14.437 13.339,15.698 14.105,16.363 15.085 C 16.526 15.324,16.800 15.872,16.800 15.957 C 16.800 15.987,15.370 16.000,12.000 16.000 C 8.630 16.000,7.200 15.987,7.200 15.957 C 7.200 15.872,7.474 15.324,7.637 15.085 C 8.401 13.959,9.747 13.230,11.440 13.024 C 11.717 12.990,12.747 13.038,13.100 13.101 " stroke="none" fill-rule="evenodd" fill="black"></path></svg>