<svg viewBox="0 0 24 24" xmlns="http://www.w3.org/2000/svg"><path d="M11.300 2.023 C 10.269 2.126,9.636 2.254,8.820 2.526 C 7.353 3.014,6.059 3.818,4.939 4.939 C 3.382 6.495,2.440 8.369,2.093 10.600 C 1.993 11.244,1.993 12.753,2.093 13.400 C 2.436 15.620,3.385 17.508,4.939 19.061 C 6.492 20.615,8.385 21.566,10.600 21.907 C 11.244 22.006,12.756 22.006,13.400 21.907 C 15.615 21.566,17.508 20.615,19.061 19.061 C 20.617 17.506,21.564 15.622,21.908 13.400 C 22.007 12.759,22.006 11.249,21.907 10.600 C 21.744 9.539,21.444 8.574,20.980 7.620 C 20.520 6.676,19.972 5.882,19.259 5.128 C 17.712 3.493,15.688 2.447,13.400 2.101 C 12.998 2.041,11.635 1.990,11.300 2.023 M12.000 8.000 L 12.000 12.000 16.000 12.000 L 20.000 12.000 20.000 12.150 C 20.000 12.441,19.917 13.174,19.836 13.592 C 19.608 14.771,19.029 16.008,18.239 17.000 C 17.933 17.384,17.260 18.051,16.900 18.326 C 13.983 20.553,10.010 20.553,7.100 18.325 C 6.747 18.055,6.190 17.510,5.847 17.100 C 3.848 14.711,3.440 11.302,4.816 8.500 C 5.469 7.172,6.424 6.091,7.660 5.282 C 8.813 4.527,10.392 4.034,11.750 4.005 L 12.000 4.000 12.000 8.000 " stroke="none" fill-rule="evenodd" fill="black"></path></svg>