<svg viewBox="0 0 24 24" xmlns="http://www.w3.org/2000/svg"><path d="M2.000 3.000 L 2.000 4.000 12.000 4.000 L 22.000 4.000 22.000 3.000 L 22.000 2.000 12.000 2.000 L 2.000 2.000 2.000 3.000 M5.664 6.063 C 5.436 6.146,5.257 6.297,5.131 6.511 L 5.020 6.700 5.010 13.914 C 5.002 18.806,5.013 21.178,5.041 21.282 C 5.102 21.509,5.313 21.761,5.539 21.878 L 5.738 21.980 7.936 21.991 C 10.429 22.003,10.395 22.007,10.700 21.702 C 11.025 21.377,11.000 22.025,11.000 14.000 C 11.000 5.977,11.025 6.623,10.701 6.299 C 10.398 5.996,10.430 6.000,7.983 6.003 C 6.210 6.005,5.792 6.016,5.664 6.063 M13.664 6.063 C 13.436 6.146,13.257 6.297,13.131 6.511 L 13.020 6.700 13.009 11.914 C 13.002 15.436,13.012 17.177,13.041 17.282 C 13.102 17.509,13.313 17.761,13.539 17.878 L 13.738 17.980 15.936 17.991 C 18.429 18.003,18.395 18.007,18.700 17.702 C 19.021 17.381,19.000 17.784,19.000 12.000 C 19.000 6.217,19.021 6.619,18.701 6.299 C 18.398 5.996,18.430 6.000,15.983 6.003 C 14.210 6.005,13.792 6.016,13.664 6.063 " stroke="none" fill-rule="evenodd" fill="black"></path></svg>