<svg viewBox="0 0 24 24" xmlns="http://www.w3.org/2000/svg"><path d="M4.580 2.047 C 3.858 2.186,3.199 2.848,3.044 3.592 C 2.982 3.891,2.982 16.109,3.044 16.408 C 3.201 17.158,3.842 17.799,4.592 17.956 C 4.729 17.984,5.457 18.000,6.652 18.000 L 8.501 18.000 10.233 19.980 C 11.185 21.069,11.981 21.960,12.000 21.960 C 12.019 21.960,12.815 21.069,13.767 19.980 L 15.499 18.000 17.348 18.000 C 18.543 18.000,19.271 17.984,19.408 17.956 C 20.158 17.799,20.799 17.158,20.956 16.408 C 21.018 16.109,21.018 3.891,20.956 3.592 C 20.817 2.927,20.322 2.365,19.647 2.107 L 19.420 2.020 12.100 2.014 C 7.566 2.011,4.704 2.023,4.580 2.047 M9.383 8.043 C 10.185 8.190,10.839 8.872,10.967 9.695 C 11.153 10.894,10.209 12.000,9.000 12.000 C 8.032 12.000,7.183 11.268,7.033 10.305 C 6.933 9.663,7.132 9.061,7.596 8.596 C 8.085 8.108,8.698 7.918,9.383 8.043 M15.383 8.043 C 16.185 8.190,16.839 8.872,16.967 9.695 C 17.153 10.894,16.209 12.000,15.000 12.000 C 14.032 12.000,13.183 11.268,13.033 10.305 C 12.933 9.663,13.132 9.061,13.596 8.596 C 14.085 8.108,14.698 7.918,15.383 8.043 " stroke="none" fill-rule="evenodd" fill="black"></path></svg>