<svg viewBox="0 0 24 24" xmlns="http://www.w3.org/2000/svg"><path d="M8.580 2.047 C 7.814 2.193,7.158 2.891,7.030 3.698 L 6.982 4.000 5.918 4.000 C 5.327 4.000,4.749 4.019,4.617 4.043 C 3.862 4.181,3.203 4.830,3.044 5.592 C 2.982 5.891,2.982 18.109,3.044 18.408 C 3.201 19.158,3.842 19.799,4.592 19.956 C 4.731 19.985,5.525 20.000,6.902 20.000 L 9.000 20.000 9.000 15.427 C 9.000 12.316,9.014 10.779,9.043 10.617 C 9.184 9.849,9.849 9.184,10.617 9.043 C 10.780 9.014,12.457 9.000,15.927 9.000 L 21.000 9.000 21.000 7.402 C 21.000 6.390,20.984 5.726,20.956 5.592 C 20.797 4.830,20.138 4.181,19.383 4.043 C 19.251 4.019,18.673 4.000,18.082 4.000 L 17.018 4.000 16.970 3.698 C 16.839 2.872,16.184 2.190,15.383 2.043 C 15.081 1.988,8.871 1.992,8.580 2.047 M12.580 11.047 C 11.859 11.185,11.199 11.848,11.044 12.592 C 11.014 12.738,11.000 13.956,11.000 16.500 C 11.000 19.044,11.014 20.262,11.044 20.408 C 11.201 21.158,11.842 21.799,12.592 21.956 C 12.888 22.018,20.112 22.018,20.408 21.956 C 21.158 21.799,21.799 21.158,21.956 20.408 C 22.018 20.112,22.018 12.888,21.956 12.592 C 21.797 11.830,21.138 11.181,20.383 11.043 C 20.080 10.988,12.872 10.991,12.580 11.047 " stroke="none" fill-rule="evenodd" fill="black"></path></svg>