<svg viewBox="0 0 24 24" xmlns="http://www.w3.org/2000/svg"><path d="M13.000 4.000 L 13.000 5.000 15.000 5.000 L 17.000 5.000 17.000 4.000 L 17.000 3.000 15.000 3.000 L 13.000 3.000 13.000 4.000 M19.424 6.156 L 18.590 6.991 18.125 6.758 C 17.547 6.467,16.847 6.231,16.220 6.115 C 15.654 6.009,14.513 5.989,13.980 6.075 C 10.513 6.632,8.002 9.541,8.002 13.000 C 8.002 17.194,11.748 20.493,15.886 19.942 C 20.120 19.378,22.862 15.256,21.741 11.142 C 21.489 10.213,20.989 9.260,20.380 8.542 L 20.150 8.271 20.935 7.485 L 21.720 6.699 21.030 6.010 C 20.650 5.630,20.321 5.320,20.299 5.320 C 20.277 5.320,19.884 5.696,19.424 6.156 M3.000 9.000 L 3.000 10.000 5.000 10.000 L 7.000 10.000 7.000 9.000 L 7.000 8.000 5.000 8.000 L 3.000 8.000 3.000 9.000 M16.000 11.480 L 16.000 14.000 15.000 14.000 L 14.000 14.000 14.000 11.480 L 14.000 8.960 15.000 8.960 L 16.000 8.960 16.000 11.480 M2.000 13.000 L 2.000 14.000 4.000 14.000 L 6.000 14.000 6.000 13.000 L 6.000 12.000 4.000 12.000 L 2.000 12.000 2.000 13.000 M3.000 17.000 L 3.000 18.000 5.000 18.000 L 7.000 18.000 7.000 17.000 L 7.000 16.000 5.000 16.000 L 3.000 16.000 3.000 17.000 " stroke="none" fill-rule="evenodd" fill="black"></path></svg>