<svg viewBox="0 0 24 24" xmlns="http://www.w3.org/2000/svg"><path d="M8.406 2.046 C 8.210 2.102,7.994 2.258,7.882 2.423 C 7.828 2.503,7.486 3.352,7.121 4.311 L 6.457 6.055 6.138 6.215 C 5.759 6.405,5.394 6.754,5.231 7.081 C 4.992 7.563,5.000 7.390,5.000 11.986 C 5.000 14.905,5.014 16.261,5.044 16.408 C 5.166 16.992,5.583 17.517,6.140 17.788 L 6.455 17.941 7.120 19.687 C 7.485 20.647,7.828 21.497,7.882 21.577 C 7.991 21.737,8.189 21.882,8.396 21.953 C 8.590 22.020,14.410 22.020,14.604 21.953 C 14.811 21.882,15.009 21.737,15.118 21.577 C 15.172 21.497,15.515 20.647,15.880 19.687 L 16.545 17.941 16.860 17.788 C 17.234 17.606,17.603 17.253,17.769 16.919 C 17.977 16.499,18.000 16.321,18.000 15.112 L 18.000 14.000 18.500 14.000 L 19.000 14.000 19.000 12.000 L 19.000 10.000 18.500 10.000 L 18.000 10.000 18.000 8.902 C 18.000 8.255,17.982 7.717,17.956 7.592 C 17.835 7.011,17.427 6.498,16.862 6.215 L 16.543 6.055 15.879 4.311 C 15.514 3.352,15.172 2.503,15.118 2.423 C 15.001 2.251,14.791 2.103,14.576 2.044 C 14.374 1.988,8.601 1.990,8.406 2.046 M16.000 12.000 L 16.000 16.000 11.500 16.000 L 7.000 16.000 7.000 12.000 L 7.000 8.000 11.500 8.000 L 16.000 8.000 16.000 12.000 " stroke="none" fill-rule="evenodd" fill="black"></path></svg>