<svg viewBox="0 0 24 24" xmlns="http://www.w3.org/2000/svg"><path d="M11.000 2.045 C 8.713 2.227,6.532 3.063,4.900 4.381 C 4.449 4.746,3.733 5.480,3.420 5.899 C 2.758 6.786,2.326 7.747,2.112 8.810 C 2.035 9.189,2.021 9.383,2.023 10.040 C 2.025 10.930,2.086 11.303,2.361 12.132 C 2.988 14.014,4.521 15.682,6.587 16.731 L 7.000 16.940 7.000 19.470 L 7.000 22.000 9.650 20.011 L 12.300 18.022 12.880 17.972 C 14.028 17.872,14.983 17.676,15.940 17.346 C 17.463 16.820,18.684 16.080,19.735 15.048 C 20.903 13.900,21.592 12.667,21.887 11.193 C 22.018 10.543,22.018 9.457,21.887 8.807 C 21.610 7.425,20.976 6.239,19.941 5.164 C 18.807 3.988,17.388 3.119,15.723 2.582 C 14.249 2.107,12.587 1.918,11.000 2.045 M13.000 7.500 L 13.000 10.000 12.000 10.000 L 11.000 10.000 11.000 7.500 L 11.000 5.000 12.000 5.000 L 13.000 5.000 13.000 7.500 M13.000 13.000 L 13.000 14.000 12.000 14.000 L 11.000 14.000 11.000 13.000 L 11.000 12.000 12.000 12.000 L 13.000 12.000 13.000 13.000 " stroke="none" fill-rule="evenodd" fill="black"></path></svg>