<svg viewBox="0 0 24 24" xmlns="http://www.w3.org/2000/svg"><path d="M5.580 2.047 C 4.859 2.185,4.199 2.848,4.044 3.592 C 3.982 3.892,3.982 20.108,4.044 20.408 C 4.201 21.158,4.842 21.799,5.592 21.956 C 5.891 22.018,18.109 22.018,18.408 21.956 C 19.158 21.799,19.799 21.158,19.956 20.408 C 19.987 20.259,20.000 18.393,20.000 14.088 L 20.000 7.980 17.010 4.990 L 14.020 2.000 9.900 2.004 C 7.480 2.007,5.698 2.025,5.580 2.047 M15.520 6.500 L 18.020 9.000 15.510 9.000 L 13.000 9.000 13.000 6.500 C 13.000 5.125,13.005 4.000,13.010 4.000 C 13.016 4.000,14.145 5.125,15.520 6.500 M16.410 13.945 C 16.558 13.979,16.689 14.022,16.701 14.041 C 16.720 14.072,16.574 14.719,16.541 14.752 C 16.534 14.759,16.423 14.733,16.294 14.694 C 16.136 14.646,15.925 14.623,15.640 14.623 C 15.262 14.623,15.195 14.634,14.970 14.737 C 14.703 14.859,14.469 15.081,14.378 15.299 C 14.282 15.529,14.241 15.901,14.284 16.164 C 14.389 16.815,14.812 17.193,15.480 17.231 C 15.645 17.240,15.830 17.228,15.891 17.204 L 16.003 17.161 15.991 16.750 L 15.980 16.340 15.670 16.328 L 15.360 16.317 15.360 15.978 L 15.360 15.640 16.100 15.640 L 16.840 15.640 16.840 16.699 L 16.840 17.758 16.630 17.817 C 16.215 17.935,15.873 17.970,15.345 17.949 C 14.590 17.920,14.212 17.772,13.817 17.354 C 13.471 16.986,13.321 16.572,13.320 15.978 C 13.320 15.340,13.512 14.853,13.917 14.466 C 14.494 13.916,15.420 13.722,16.410 13.945 M9.239 15.290 C 9.239 16.826,9.211 17.098,9.021 17.422 C 8.894 17.639,8.677 17.819,8.442 17.902 C 8.189 17.991,7.670 18.020,7.385 17.961 L 7.150 17.912 7.176 17.655 C 7.225 17.175,7.230 17.163,7.374 17.204 C 7.589 17.266,7.889 17.246,8.028 17.162 C 8.304 16.993,8.299 17.026,8.312 15.372 L 8.324 13.880 8.782 13.880 L 9.240 13.880 9.239 15.290 M12.123 13.993 C 12.411 14.106,12.635 14.300,12.760 14.545 C 12.848 14.716,12.860 14.791,12.860 15.160 C 12.860 15.550,12.852 15.595,12.742 15.793 C 12.599 16.051,12.457 16.177,12.139 16.326 C 11.875 16.450,11.332 16.543,11.075 16.508 L 10.920 16.488 10.920 17.204 L 10.920 17.920 10.460 17.920 L 10.000 17.920 10.000 15.941 L 10.000 13.962 10.090 13.942 C 10.303 13.895,10.460 13.888,11.160 13.897 C 11.812 13.905,11.927 13.917,12.123 13.993 M10.947 14.587 C 10.932 14.601,10.920 14.883,10.920 15.212 L 10.920 15.810 11.234 15.792 C 11.721 15.764,11.956 15.584,11.988 15.213 C 12.023 14.805,11.742 14.560,11.238 14.560 C 11.093 14.560,10.961 14.572,10.947 14.587 " stroke="none" fill-rule="evenodd" fill="black"></path></svg>