<svg viewBox="0 0 24 24" xmlns="http://www.w3.org/2000/svg"><path d="M3.667 3.065 C 3.177 3.215,2.882 3.817,3.056 4.309 C 3.087 4.397,4.887 7.131,7.056 10.384 L 11.000 16.300 11.000 18.150 L 11.000 20.000 9.500 20.000 L 8.000 20.000 8.000 21.000 L 8.000 22.000 12.000 22.000 L 16.000 22.000 16.000 21.000 L 16.000 20.000 14.500 20.000 L 13.000 20.000 13.000 18.150 L 13.000 16.300 16.944 10.384 C 19.113 7.131,20.913 4.397,20.944 4.309 C 21.066 3.962,20.970 3.568,20.697 3.295 C 20.378 2.975,21.099 3.000,11.983 3.003 C 4.921 3.005,3.835 3.013,3.667 3.065 M18.054 5.116 C 18.013 5.179,17.566 5.854,17.060 6.615 L 16.140 7.998 12.000 7.998 L 7.860 7.998 6.940 6.615 C 6.434 5.854,5.987 5.179,5.946 5.116 L 5.872 5.000 12.000 5.000 L 18.128 5.000 18.054 5.116 " stroke="none" fill-rule="evenodd" fill="black"></path></svg>