<svg viewBox="0 0 24 24" xmlns="http://www.w3.org/2000/svg"><path d="M9.301 2.123 C 9.091 2.227,8.904 2.413,8.825 2.593 C 8.735 2.801,3.559 19.217,3.533 19.377 C 3.494 19.613,3.626 19.957,3.834 20.166 C 4.043 20.374,4.387 20.506,4.623 20.467 C 4.786 20.441,21.201 15.264,21.411 15.172 C 21.590 15.095,21.824 14.848,21.907 14.649 C 22.051 14.305,21.902 12.972,21.581 11.740 C 20.988 9.464,19.868 7.508,18.202 5.837 C 16.107 3.737,13.486 2.456,10.561 2.101 C 9.870 2.017,9.500 2.023,9.301 2.123 M16.383 10.043 C 17.185 10.190,17.839 10.872,17.967 11.695 C 18.153 12.894,17.209 14.000,16.000 14.000 C 15.032 14.000,14.183 13.268,14.033 12.305 C 13.933 11.663,14.132 11.061,14.596 10.596 C 15.085 10.108,15.698 9.918,16.383 10.043 M10.383 12.043 C 11.185 12.190,11.839 12.872,11.967 13.695 C 12.153 14.894,11.209 16.000,10.000 16.000 C 9.032 16.000,8.183 15.268,8.033 14.305 C 7.933 13.663,8.132 13.061,8.596 12.596 C 9.085 12.108,9.698 11.918,10.383 12.043 " stroke="none" fill-rule="evenodd" fill="black"></path></svg>