<svg viewBox="0 0 24 24" xmlns="http://www.w3.org/2000/svg"><path d="M8.664 2.063 C 8.436 2.146,8.257 2.297,8.131 2.511 L 8.020 2.700 8.008 3.889 L 7.996 5.079 7.709 5.264 C 6.429 6.092,5.396 7.263,4.764 8.603 C 3.453 11.383,3.856 14.637,5.812 17.060 C 6.321 17.690,7.227 18.478,7.859 18.840 C 7.999 18.919,8.070 18.982,8.042 18.999 C 8.008 19.020,7.999 19.340,8.008 20.184 L 8.020 21.340 8.131 21.529 C 8.256 21.742,8.449 21.904,8.670 21.983 C 8.891 22.062,15.109 22.062,15.330 21.983 C 15.551 21.904,15.744 21.742,15.869 21.529 L 15.980 21.340 15.992 20.170 C 16.004 19.087,15.999 19.000,15.936 19.000 C 15.898 19.000,16.010 18.914,16.184 18.810 C 16.628 18.542,17.100 18.175,17.546 17.748 C 19.621 15.764,20.458 12.806,19.739 9.993 C 19.249 8.076,18.008 6.375,16.285 5.260 L 16.000 5.076 16.000 3.965 C 16.000 2.688,15.980 2.578,15.701 2.299 C 15.389 1.987,15.547 2.000,11.983 2.003 C 9.342 2.005,8.794 2.015,8.664 2.063 M12.632 6.042 C 13.983 6.188,15.180 6.752,16.164 7.709 C 17.481 8.989,18.133 10.733,17.966 12.524 C 17.826 14.012,17.221 15.270,16.141 16.313 C 15.293 17.133,14.347 17.632,13.160 17.885 C 12.811 17.960,12.616 17.975,12.000 17.975 C 11.178 17.975,10.752 17.909,10.060 17.673 C 8.704 17.211,7.505 16.210,6.777 14.933 C 6.192 13.907,5.924 12.657,6.034 11.476 C 6.173 10.000,6.775 8.740,7.836 7.709 C 9.131 6.450,10.856 5.850,12.632 6.042 M11.000 10.500 L 11.000 13.000 13.500 13.000 L 16.000 13.000 16.000 12.000 L 16.000 11.000 14.500 11.000 L 13.000 11.000 13.000 9.500 L 13.000 8.000 12.000 8.000 L 11.000 8.000 11.000 10.500 " stroke="none" fill-rule="evenodd" fill="black"></path></svg>