<svg viewBox="0 0 24 24" xmlns="http://www.w3.org/2000/svg"><path d="M8.652 2.430 C 8.458 2.667,8.094 3.117,7.842 3.431 L 7.383 4.000 5.192 4.000 L 3.000 4.000 3.000 5.000 L 3.000 6.000 12.000 6.000 L 21.000 6.000 21.000 5.000 L 21.000 4.000 18.809 4.000 L 16.619 4.000 15.818 3.010 L 15.017 2.020 12.010 2.010 L 9.003 1.999 8.652 2.430 M5.000 13.598 C 5.000 18.260,5.013 20.258,5.044 20.408 C 5.201 21.158,5.842 21.799,6.592 21.956 C 6.890 22.018,17.110 22.018,17.408 21.956 C 18.158 21.799,18.799 21.158,18.956 20.408 C 18.987 20.258,19.000 18.260,19.000 13.598 L 19.000 7.000 12.000 7.000 L 5.000 7.000 5.000 13.598 " stroke="none" fill-rule="evenodd" fill="black"></path></svg>