<svg viewBox="0 0 24 24" xmlns="http://www.w3.org/2000/svg"><path d="M3.580 6.047 C 2.859 6.185,2.199 6.848,2.044 7.592 C 1.982 7.889,1.982 16.111,2.044 16.408 C 2.201 17.158,2.842 17.799,3.592 17.956 C 3.892 18.018,18.108 18.018,18.408 17.956 C 19.158 17.799,19.799 17.158,19.956 16.408 C 19.982 16.283,20.000 15.745,20.000 15.098 L 20.000 14.000 21.000 14.000 L 22.000 14.000 22.000 12.000 L 22.000 10.000 21.000 10.000 L 20.000 10.000 20.000 8.902 C 20.000 8.255,19.982 7.717,19.956 7.592 C 19.797 6.830,19.138 6.181,18.383 6.043 C 18.076 5.987,3.875 5.991,3.580 6.047 M12.955 7.179 C 12.698 8.110,12.012 10.866,12.033 10.886 C 12.048 10.900,12.924 11.149,13.980 11.441 C 15.036 11.732,15.914 11.983,15.932 11.999 C 15.950 12.015,14.412 13.137,12.514 14.493 C 10.617 15.848,9.058 16.951,9.050 16.944 C 9.043 16.936,9.470 16.089,10.000 15.060 C 10.530 14.032,10.967 13.172,10.972 13.150 C 10.976 13.127,10.098 12.863,9.020 12.563 C 7.942 12.263,7.062 12.000,7.063 11.981 C 7.067 11.942,12.921 7.045,12.967 7.042 C 12.982 7.041,12.976 7.102,12.955 7.179 " stroke="none" fill-rule="evenodd" fill="black"></path></svg>