<svg viewBox="0 0 24 24" xmlns="http://www.w3.org/2000/svg"><path d="M12.150 2.041 C 11.722 2.149,11.343 2.465,11.144 2.880 L 11.020 3.140 11.009 7.070 L 10.998 11.000 10.500 11.000 L 10.002 11.000 9.991 8.070 L 9.980 5.140 9.867 4.896 C 9.724 4.587,9.415 4.278,9.100 4.133 C 8.894 4.037,8.809 4.021,8.500 4.021 C 8.179 4.020,8.112 4.034,7.880 4.145 C 7.548 4.304,7.302 4.551,7.144 4.880 L 7.020 5.140 7.000 10.708 L 6.980 16.276 5.860 14.454 C 5.244 13.452,4.663 12.552,4.569 12.454 C 4.470 12.351,4.284 12.221,4.129 12.147 C 3.888 12.033,3.822 12.020,3.500 12.020 C 3.115 12.020,2.913 12.084,2.589 12.308 C 2.255 12.539,2.000 13.055,2.000 13.500 C 2.000 13.926,2.075 14.064,3.897 17.000 C 4.859 18.551,5.721 19.919,5.813 20.039 C 6.523 20.972,7.593 21.640,8.800 21.905 C 9.120 21.976,9.389 21.980,13.380 21.980 C 17.980 21.980,17.815 21.987,18.535 21.754 C 20.057 21.261,21.260 20.059,21.753 18.539 C 21.991 17.804,21.980 18.119,21.980 11.880 L 21.980 6.140 21.867 5.896 C 21.724 5.587,21.415 5.278,21.100 5.133 C 20.894 5.037,20.809 5.021,20.500 5.021 C 20.179 5.020,20.112 5.034,19.880 5.145 C 19.548 5.304,19.302 5.551,19.144 5.880 L 19.020 6.140 19.009 8.570 L 18.998 11.000 18.500 11.000 L 18.002 11.000 17.991 7.570 L 17.980 4.140 17.868 3.900 C 17.721 3.584,17.413 3.275,17.104 3.134 C 16.895 3.038,16.808 3.022,16.500 3.021 C 16.178 3.020,16.112 3.034,15.880 3.145 C 15.548 3.304,15.302 3.551,15.144 3.880 L 15.020 4.140 15.009 7.570 L 14.998 11.000 14.500 11.000 L 14.002 11.000 13.991 7.070 L 13.980 3.140 13.867 2.896 C 13.725 2.589,13.414 2.278,13.110 2.139 C 12.852 2.022,12.407 1.976,12.150 2.041 " stroke="none" fill-rule="evenodd" fill="black"></path></svg>