<svg viewBox="0 0 24 24" xmlns="http://www.w3.org/2000/svg"><path d="M11.120 2.039 C 8.020 2.349,5.361 3.939,3.659 6.500 C 1.048 10.428,1.568 15.667,4.900 19.022 C 5.878 20.007,6.984 20.750,8.220 21.254 C 11.958 22.779,16.203 21.920,19.062 19.062 C 23.445 14.678,22.834 7.442,17.778 3.853 C 16.479 2.930,15.094 2.370,13.493 2.119 C 12.909 2.027,11.660 1.985,11.120 2.039 M15.348 8.043 C 16.221 8.140,16.859 8.390,17.900 9.041 C 18.577 9.464,18.808 9.580,19.296 9.740 L 19.700 9.872 19.748 10.037 C 19.774 10.128,19.833 10.421,19.878 10.687 C 20.300 13.172,19.529 15.676,17.773 17.521 C 14.634 20.819,9.366 20.819,6.227 17.521 C 4.057 15.240,3.429 12.042,4.567 9.070 C 4.632 8.900,4.704 8.760,4.725 8.760 C 4.747 8.760,5.029 8.920,5.352 9.115 C 6.243 9.653,6.688 9.825,7.490 9.944 C 7.833 9.994,8.088 10.005,8.560 9.987 C 9.697 9.943,10.321 9.736,11.460 9.024 C 11.768 8.832,12.200 8.585,12.421 8.477 C 13.230 8.079,14.279 7.924,15.348 8.043 M8.150 11.041 C 7.722 11.149,7.343 11.465,7.144 11.880 C 7.034 12.111,7.020 12.180,7.020 12.500 C 7.020 12.811,7.035 12.894,7.133 13.104 C 7.276 13.413,7.585 13.721,7.900 13.868 C 8.107 13.965,8.190 13.980,8.500 13.980 C 8.811 13.980,8.894 13.965,9.104 13.867 C 9.413 13.724,9.721 13.415,9.868 13.100 C 9.965 12.893,9.980 12.810,9.980 12.500 C 9.980 12.189,9.965 12.106,9.867 11.896 C 9.725 11.589,9.414 11.278,9.110 11.139 C 8.852 11.022,8.407 10.976,8.150 11.041 M15.150 11.041 C 14.722 11.149,14.343 11.465,14.144 11.880 C 14.034 12.111,14.020 12.180,14.020 12.500 C 14.020 12.811,14.035 12.894,14.133 13.104 C 14.276 13.413,14.585 13.721,14.900 13.868 C 15.107 13.965,15.190 13.980,15.500 13.980 C 15.811 13.980,15.894 13.965,16.104 13.867 C 16.413 13.724,16.721 13.415,16.868 13.100 C 16.965 12.893,16.980 12.810,16.980 12.500 C 16.980 12.189,16.965 12.106,16.867 11.896 C 16.725 11.589,16.414 11.278,16.110 11.139 C 15.852 11.022,15.407 10.976,15.150 11.041 " stroke="none" fill-rule="evenodd" fill="black"></path></svg>