<svg viewBox="0 0 24 24" xmlns="http://www.w3.org/2000/svg"><path d="M11.643 2.069 C 11.255 2.206,11.254 2.209,9.882 5.251 C 8.871 7.495,8.608 8.046,8.542 8.059 C 8.497 8.067,7.177 8.175,5.609 8.297 C 3.751 8.442,2.712 8.539,2.626 8.575 C 2.275 8.721,2.001 9.128,2.001 9.500 C 2.001 9.919,2.004 9.923,4.355 12.217 C 5.874 13.699,6.516 14.351,6.501 14.396 C 6.490 14.431,6.146 15.909,5.737 17.680 C 4.919 21.215,4.930 21.145,5.138 21.501 C 5.376 21.907,5.877 22.096,6.310 21.944 C 6.398 21.913,7.714 21.058,9.235 20.043 L 12.000 18.200 14.765 20.043 C 16.286 21.058,17.602 21.913,17.690 21.944 C 18.308 22.161,19.000 21.664,19.000 21.003 C 19.000 20.924,18.580 19.390,18.067 17.593 L 17.133 14.327 19.195 12.474 C 21.737 10.188,21.787 10.142,21.892 9.942 C 22.012 9.715,22.012 9.284,21.891 9.056 C 21.791 8.866,21.563 8.654,21.375 8.575 C 21.290 8.540,20.240 8.442,18.392 8.298 C 16.823 8.175,15.503 8.068,15.458 8.059 C 15.392 8.046,15.129 7.495,14.118 5.252 C 13.035 2.849,12.837 2.439,12.697 2.297 C 12.425 2.022,12.023 1.935,11.643 2.069 " stroke="none" fill-rule="evenodd" fill="black"></path></svg>