<svg viewBox="0 0 24 24" xmlns="http://www.w3.org/2000/svg"><path d="M18.560 2.842 C 17.936 2.926,17.107 3.288,16.440 3.766 C 16.139 3.983,16.089 4.006,16.000 3.969 C 15.945 3.946,15.711 3.844,15.480 3.741 C 14.938 3.501,14.290 3.305,13.606 3.175 C 12.859 3.034,11.662 2.999,10.892 3.097 C 9.308 3.299,7.857 3.891,6.551 4.869 C 6.090 5.214,5.289 5.992,4.946 6.428 C 3.636 8.095,2.925 10.260,3.014 12.320 C 3.051 13.178,3.173 13.862,3.446 14.746 L 3.571 15.153 3.432 15.326 C 3.043 15.810,2.623 16.594,2.423 17.211 C 1.946 18.684,2.233 19.940,3.191 20.573 C 3.732 20.931,4.327 21.067,5.172 21.027 C 7.668 20.908,11.390 18.884,15.140 15.605 C 15.844 14.989,17.586 13.232,18.178 12.540 C 19.883 10.546,20.998 8.777,21.498 7.274 C 21.747 6.523,21.817 6.152,21.817 5.580 C 21.815 4.654,21.540 4.037,20.888 3.497 C 20.264 2.979,19.381 2.731,18.560 2.842 M19.413 4.905 C 19.730 5.065,19.840 5.253,19.840 5.630 C 19.840 6.040,19.564 7.030,19.460 6.994 C 19.439 6.986,19.287 6.800,19.124 6.580 C 18.960 6.360,18.613 5.962,18.351 5.695 L 17.876 5.210 18.048 5.110 C 18.205 5.019,18.581 4.872,18.780 4.824 C 18.916 4.791,19.280 4.838,19.413 4.905 M20.595 11.742 C 19.737 12.932,18.888 13.914,17.621 15.183 C 16.542 16.264,15.925 16.821,14.860 17.676 C 13.435 18.820,11.933 19.825,10.568 20.549 L 10.116 20.789 10.348 20.832 C 10.985 20.952,11.279 20.977,12.020 20.977 C 13.425 20.977,14.592 20.714,15.833 20.118 C 18.531 18.823,20.348 16.434,20.857 13.513 C 20.943 13.019,21.000 12.043,20.968 11.622 L 20.940 11.265 20.595 11.742 M4.742 17.270 C 4.912 17.532,5.328 18.012,5.743 18.425 L 6.190 18.870 5.785 18.964 C 5.260 19.086,4.608 19.097,4.407 18.987 C 4.152 18.848,4.117 18.609,4.266 18.021 C 4.333 17.759,4.593 17.160,4.641 17.160 C 4.657 17.160,4.703 17.210,4.742 17.270 " stroke="none" fill-rule="evenodd" fill="black"></path></svg>