<svg viewBox="0 0 24 24" xmlns="http://www.w3.org/2000/svg"><path d="M4.580 3.047 C 3.858 3.186,3.199 3.848,3.044 4.592 C 2.982 4.892,2.982 19.108,3.044 19.408 C 3.201 20.158,3.842 20.799,4.592 20.956 C 4.892 21.018,19.108 21.018,19.408 20.956 C 20.158 20.799,20.799 20.158,20.956 19.408 C 21.018 19.108,21.018 4.892,20.956 4.592 C 20.817 3.927,20.322 3.365,19.647 3.107 L 19.420 3.020 12.100 3.014 C 7.566 3.011,4.704 3.023,4.580 3.047 M16.020 9.015 C 16.416 9.344,16.747 9.619,16.755 9.625 C 16.763 9.631,15.486 11.177,13.917 13.060 L 11.064 16.484 9.192 14.612 C 8.162 13.583,7.320 12.722,7.320 12.701 C 7.320 12.648,8.647 11.320,8.699 11.320 C 8.721 11.320,9.235 11.814,9.840 12.418 L 10.940 13.516 13.080 10.943 C 14.257 9.528,15.238 8.381,15.260 8.393 C 15.282 8.406,15.624 8.685,16.020 9.015 " stroke="none" fill-rule="evenodd" fill="black"></path></svg>