<svg viewBox="0 0 24 24" xmlns="http://www.w3.org/2000/svg"><path d="M11.540 2.236 C 11.386 2.301,9.523 3.128,7.400 4.073 C 3.256 5.917,3.276 5.907,3.104 6.278 C 3.028 6.443,3.021 6.520,3.030 7.120 C 3.036 7.483,3.068 8.068,3.101 8.420 C 3.655 14.283,6.445 18.860,11.083 21.518 C 11.704 21.874,11.933 21.948,12.223 21.883 C 12.565 21.806,13.777 21.071,14.658 20.405 C 15.862 19.496,17.063 18.258,17.932 17.030 C 19.531 14.769,20.583 11.950,20.959 8.918 C 21.071 8.015,21.133 6.777,21.079 6.533 C 21.019 6.267,20.864 6.017,20.688 5.902 C 20.607 5.849,18.686 4.982,16.420 3.975 C 11.755 1.902,12.068 2.013,11.540 2.236 M13.000 9.260 L 13.000 10.760 14.500 10.760 L 16.000 10.760 16.000 11.760 L 16.000 12.760 14.500 12.760 L 13.000 12.760 13.000 14.260 L 13.000 15.760 12.000 15.760 L 11.000 15.760 11.000 14.260 L 11.000 12.760 9.500 12.760 L 8.000 12.760 8.000 11.760 L 8.000 10.760 9.500 10.760 L 11.000 10.760 11.000 9.260 L 11.000 7.760 12.000 7.760 L 13.000 7.760 13.000 9.260 " stroke="none" fill-rule="evenodd" fill="black"></path></svg>