<svg viewBox="0 0 24 24" xmlns="http://www.w3.org/2000/svg"><path d="M5.664 4.063 C 5.436 4.146,5.257 4.297,5.131 4.511 L 5.020 4.700 5.009 7.850 L 4.998 11.000 3.499 11.000 L 2.000 11.000 2.000 12.000 L 2.000 13.000 3.500 13.000 L 5.000 13.000 5.000 16.070 C 5.000 18.061,5.015 19.192,5.042 19.289 C 5.104 19.512,5.316 19.763,5.539 19.878 L 5.738 19.980 7.936 19.991 C 10.429 20.003,10.395 20.007,10.700 19.702 C 11.012 19.390,11.000 19.537,11.000 16.073 L 11.000 13.000 11.999 13.000 L 12.997 13.000 13.009 15.150 L 13.020 17.300 13.131 17.489 C 13.192 17.592,13.301 17.723,13.374 17.778 C 13.664 18.000,13.670 18.000,15.998 18.000 C 18.428 18.000,18.399 18.003,18.701 17.701 C 19.002 17.400,19.000 17.419,19.000 15.073 L 19.000 13.000 20.500 13.000 L 22.000 13.000 22.000 12.000 L 22.000 11.000 20.500 11.000 L 19.000 11.000 19.000 8.927 C 19.000 6.581,19.002 6.600,18.701 6.299 C 18.399 5.997,18.428 6.000,15.998 6.000 C 13.670 6.000,13.664 6.000,13.374 6.222 C 13.301 6.277,13.192 6.408,13.131 6.511 L 13.020 6.700 13.009 8.850 L 12.997 11.000 11.999 11.000 L 11.000 11.000 11.000 7.927 C 11.000 4.464,11.012 4.610,10.701 4.299 C 10.398 3.996,10.430 4.000,7.983 4.003 C 6.210 4.005,5.792 4.016,5.664 4.063 " stroke="none" fill-rule="evenodd" fill="black"></path></svg>