<svg viewBox="0 0 24 24" xmlns="http://www.w3.org/2000/svg"><path d="M11.676 2.055 C 11.597 2.083,9.482 3.238,6.976 4.621 C 3.740 6.407,2.378 7.179,2.274 7.285 C 1.892 7.677,1.935 8.386,2.360 8.722 C 2.478 8.815,11.032 13.611,11.557 13.879 C 11.834 14.020,12.144 14.031,12.407 13.911 C 12.761 13.749,21.488 8.882,21.640 8.762 C 22.065 8.426,22.108 7.716,21.726 7.325 C 21.623 7.220,20.230 6.428,17.000 4.640 C 14.481 3.245,12.357 2.081,12.280 2.054 C 12.100 1.989,11.858 1.990,11.676 2.055 M3.002 11.993 C 2.738 12.469,2.535 12.871,2.551 12.886 C 2.621 12.952,11.556 17.896,11.695 17.945 C 11.892 18.015,12.108 18.015,12.305 17.945 C 12.444 17.896,21.379 12.952,21.449 12.886 C 21.465 12.871,21.262 12.469,20.998 11.993 L 20.518 11.128 16.277 13.484 C 13.945 14.780,12.020 15.840,12.000 15.840 C 11.980 15.840,10.055 14.780,7.723 13.484 L 3.482 11.128 3.002 11.993 M3.002 15.993 C 2.738 16.469,2.535 16.871,2.551 16.886 C 2.621 16.952,11.556 21.896,11.695 21.945 C 11.780 21.975,11.918 22.000,12.000 22.000 C 12.082 22.000,12.220 21.975,12.305 21.945 C 12.444 21.896,21.379 16.952,21.449 16.886 C 21.465 16.871,21.262 16.469,20.998 15.993 L 20.518 15.128 16.277 17.484 C 13.945 18.780,12.020 19.840,12.000 19.840 C 11.980 19.840,10.055 18.780,7.723 17.484 L 3.482 15.128 3.002 15.993 " stroke="none" fill-rule="evenodd" fill="black"></path></svg>