<svg viewBox="0 0 24 24" xmlns="http://www.w3.org/2000/svg"><path d="M15.000 2.640 C 13.694 2.731,12.343 2.978,11.242 3.326 C 7.190 4.610,4.300 7.633,3.163 11.778 C 2.737 13.334,2.576 14.735,2.612 16.580 C 2.635 17.745,2.689 18.356,2.863 19.395 C 3.029 20.392,3.142 20.654,3.491 20.856 C 3.752 21.007,4.798 21.203,6.000 21.327 C 6.665 21.396,8.870 21.396,9.500 21.328 C 12.970 20.953,15.630 19.777,17.703 17.703 C 19.728 15.679,20.888 13.131,21.302 9.800 C 21.389 9.098,21.422 7.288,21.363 6.476 C 21.262 5.096,21.037 3.787,20.848 3.481 C 20.708 3.254,20.483 3.098,20.186 3.022 C 19.792 2.921,18.774 2.764,18.100 2.699 C 17.323 2.624,15.683 2.593,15.000 2.640 M12.620 8.200 L 13.499 9.080 14.390 8.190 L 15.280 7.300 15.990 8.010 L 16.700 8.720 15.810 9.610 L 14.920 10.501 15.800 11.380 C 16.284 11.864,16.680 12.277,16.680 12.299 C 16.680 12.321,16.370 12.650,15.990 13.030 L 15.301 13.720 14.400 12.820 L 13.499 11.920 12.710 12.710 L 11.920 13.501 12.800 14.380 C 13.284 14.864,13.680 15.278,13.680 15.300 C 13.680 15.323,13.369 15.651,12.990 16.030 L 12.299 16.720 11.400 15.820 L 10.501 14.920 9.600 15.820 L 8.699 16.720 8.010 16.030 C 7.630 15.650,7.320 15.321,7.320 15.299 C 7.320 15.277,7.716 14.864,8.200 14.380 L 9.080 13.501 8.190 12.610 L 7.300 11.720 8.010 11.010 L 8.720 10.300 9.610 11.190 L 10.500 12.080 11.290 11.290 L 12.080 10.500 11.190 9.610 L 10.301 8.720 11.000 8.020 C 11.385 7.635,11.708 7.320,11.720 7.320 C 11.731 7.320,12.136 7.716,12.620 8.200 " stroke="none" fill-rule="evenodd" fill="black"></path></svg>