<svg viewBox="0 0 24 24" xmlns="http://www.w3.org/2000/svg"><path d="M16.660 2.481 C 15.813 2.557,15.001 2.717,14.322 2.944 C 13.838 3.106,13.010 3.535,12.620 3.827 C 12.388 4.000,11.523 4.829,10.193 6.153 L 8.125 8.210 7.713 8.156 C 7.191 8.089,5.937 8.089,5.440 8.157 C 4.132 8.336,2.962 8.834,2.228 9.523 L 1.996 9.740 8.131 15.873 L 14.266 22.006 14.488 21.733 C 14.830 21.311,14.976 21.090,15.172 20.700 C 15.801 19.447,16.033 17.875,15.834 16.207 L 15.789 15.833 17.848 13.767 C 18.980 12.630,19.989 11.592,20.089 11.459 C 20.860 10.438,21.328 9.086,21.483 7.427 C 21.551 6.701,21.509 5.036,21.404 4.260 C 21.312 3.579,21.178 2.882,21.131 2.835 C 21.086 2.790,20.075 2.613,19.440 2.539 C 18.795 2.464,17.219 2.431,16.660 2.481 M16.195 6.324 C 16.495 6.392,16.845 6.597,17.099 6.855 C 17.497 7.258,17.681 7.704,17.679 8.258 C 17.678 8.613,17.627 8.836,17.477 9.140 C 16.980 10.149,15.773 10.533,14.741 10.010 C 14.328 9.801,13.891 9.246,13.762 8.767 C 13.685 8.481,13.705 7.923,13.802 7.634 C 13.907 7.320,14.005 7.156,14.239 6.905 C 14.751 6.354,15.432 6.152,16.195 6.324 M4.779 16.135 C 3.874 16.748,3.287 18.082,3.062 20.040 C 3.028 20.337,3.000 20.674,3.000 20.790 L 3.000 21.000 3.138 21.000 C 3.421 21.000,4.236 20.874,4.698 20.758 C 5.786 20.486,7.034 19.848,7.794 19.176 L 8.007 18.988 6.514 17.494 C 5.692 16.672,5.011 16.000,5.000 16.000 C 4.988 16.000,4.889 16.061,4.779 16.135 " stroke="none" fill-rule="evenodd" fill="black"></path></svg>