<svg viewBox="0 0 24 24" xmlns="http://www.w3.org/2000/svg"><path d="M11.713 2.077 C 11.523 2.138,11.289 2.288,11.205 2.402 C 11.160 2.463,9.074 6.380,6.571 11.107 L 2.020 19.700 2.020 20.000 C 2.020 20.256,2.036 20.328,2.131 20.489 C 2.260 20.709,2.437 20.854,2.678 20.939 C 2.830 20.993,3.916 21.000,11.998 21.000 C 22.265 21.000,21.375 21.027,21.701 20.701 C 21.969 20.433,22.066 20.035,21.945 19.695 C 21.880 19.512,12.959 2.647,12.815 2.435 C 12.620 2.149,12.057 1.965,11.713 2.077 M13.000 11.500 L 13.000 14.000 12.000 14.000 L 11.000 14.000 11.000 11.500 L 11.000 9.000 12.000 9.000 L 13.000 9.000 13.000 11.500 M13.000 17.000 L 13.000 18.000 12.000 18.000 L 11.000 18.000 11.000 17.000 L 11.000 16.000 12.000 16.000 L 13.000 16.000 13.000 17.000 " stroke="none" fill-rule="evenodd" fill="black"></path></svg>