<svg viewBox="0 0 24 24" xmlns="http://www.w3.org/2000/svg"><path d="M5.580 2.047 C 4.859 2.185,4.199 2.848,4.044 3.592 C 3.982 3.892,3.982 20.108,4.044 20.408 C 4.201 21.158,4.842 21.799,5.592 21.956 C 5.891 22.018,18.109 22.018,18.408 21.956 C 19.158 21.799,19.799 21.158,19.956 20.408 C 19.987 20.259,20.000 18.393,20.000 14.088 L 20.000 7.980 17.010 4.990 L 14.020 2.000 9.900 2.004 C 7.480 2.007,5.698 2.025,5.580 2.047 M15.520 6.500 L 18.020 9.000 15.510 9.000 L 13.000 9.000 13.000 6.500 C 13.000 5.125,13.005 4.000,13.010 4.000 C 13.016 4.000,14.145 5.125,15.520 6.500 M14.592 13.221 C 15.031 13.321,15.026 13.312,14.899 13.782 C 14.840 14.001,14.786 14.185,14.780 14.192 C 14.774 14.199,14.658 14.166,14.521 14.121 C 14.200 14.012,13.705 13.973,13.497 14.039 C 13.253 14.117,13.120 14.264,13.120 14.454 C 13.120 14.698,13.315 14.857,13.901 15.091 C 14.672 15.398,15.010 15.686,15.145 16.151 C 15.329 16.785,15.020 17.470,14.416 17.762 C 13.854 18.034,13.032 18.065,12.320 17.842 C 12.177 17.797,12.039 17.746,12.012 17.729 C 11.977 17.706,11.991 17.594,12.068 17.279 C 12.125 17.049,12.175 16.856,12.178 16.852 C 12.181 16.847,12.339 16.897,12.529 16.963 C 13.310 17.232,14.011 17.123,14.100 16.719 C 14.170 16.400,13.964 16.195,13.320 15.943 C 12.639 15.676,12.359 15.465,12.161 15.070 C 12.062 14.871,12.040 14.778,12.040 14.554 C 12.040 13.827,12.532 13.312,13.372 13.161 C 13.645 13.112,14.242 13.141,14.592 13.221 M11.240 14.898 C 11.240 15.993,11.224 16.671,11.195 16.808 C 11.042 17.539,10.552 17.942,9.759 17.990 C 9.430 18.009,8.860 17.945,8.822 17.883 C 8.803 17.852,8.902 17.085,8.929 17.058 C 8.938 17.049,9.053 17.062,9.185 17.087 C 9.718 17.186,10.062 17.002,10.155 16.568 C 10.184 16.430,10.200 15.804,10.200 14.778 L 10.200 13.200 10.720 13.200 L 11.240 13.200 11.240 14.898 " stroke="none" fill-rule="evenodd" fill="black"></path></svg>