<svg viewBox="0 0 24 24" xmlns="http://www.w3.org/2000/svg"><path d="M5.580 2.047 C 4.859 2.185,4.199 2.848,4.044 3.592 C 3.982 3.892,3.982 20.108,4.044 20.408 C 4.201 21.158,4.842 21.799,5.592 21.956 C 5.891 22.018,18.109 22.018,18.408 21.956 C 19.158 21.799,19.799 21.158,19.956 20.408 C 19.987 20.259,20.000 18.393,20.000 14.088 L 20.000 7.980 17.010 4.990 L 14.020 2.000 9.900 2.004 C 7.480 2.007,5.698 2.025,5.580 2.047 M15.520 6.500 L 18.020 9.000 15.510 9.000 L 13.000 9.000 13.000 6.500 C 13.000 5.125,13.005 4.000,13.010 4.000 C 13.016 4.000,14.145 5.125,15.520 6.500 M8.187 13.923 C 8.738 13.998,9.111 14.238,9.295 14.636 C 9.421 14.908,9.413 15.463,9.280 15.738 C 9.029 16.255,8.510 16.520,7.752 16.520 L 7.400 16.520 7.400 17.240 L 7.400 17.960 6.960 17.960 L 6.520 17.960 6.520 15.963 L 6.520 13.966 6.770 13.943 C 6.907 13.930,7.074 13.914,7.140 13.906 C 7.408 13.875,7.892 13.882,8.187 13.923 M17.073 13.972 C 17.190 14.004,17.302 14.046,17.321 14.065 C 17.348 14.092,17.223 14.732,17.180 14.790 C 17.176 14.796,17.093 14.771,16.996 14.734 C 16.868 14.685,16.683 14.666,16.320 14.664 C 15.860 14.660,15.802 14.668,15.597 14.764 C 15.134 14.982,14.909 15.367,14.909 15.940 C 14.909 16.319,15.010 16.623,15.215 16.864 C 15.505 17.202,16.084 17.352,16.570 17.214 C 16.631 17.197,16.640 17.141,16.640 16.777 L 16.640 16.360 16.320 16.360 L 16.000 16.360 16.000 16.000 L 16.000 15.640 16.740 15.640 L 17.480 15.640 17.480 16.714 L 17.480 17.788 17.090 17.884 C 16.581 18.009,15.716 18.020,15.340 17.906 C 14.641 17.694,14.192 17.245,14.014 16.580 C 13.942 16.309,13.946 15.672,14.021 15.381 C 14.210 14.658,14.823 14.106,15.620 13.940 C 15.959 13.870,16.758 13.887,17.073 13.972 M11.548 14.791 C 11.816 15.269,12.133 15.867,12.251 16.120 C 12.369 16.373,12.488 16.625,12.514 16.680 C 12.555 16.765,12.559 16.741,12.541 16.520 C 12.530 16.377,12.509 15.733,12.494 15.090 L 12.467 13.920 12.894 13.920 L 13.320 13.920 13.320 15.940 L 13.320 17.960 12.847 17.960 L 12.374 17.960 11.845 17.002 C 11.554 16.475,11.199 15.804,11.056 15.512 L 10.795 14.980 10.820 16.470 L 10.846 17.960 10.423 17.960 L 10.000 17.960 10.000 15.940 L 10.000 13.920 10.530 13.921 L 11.060 13.922 11.548 14.791 M7.400 15.199 L 7.400 15.798 7.503 15.824 C 7.656 15.863,7.989 15.813,8.155 15.728 C 8.368 15.618,8.480 15.431,8.480 15.184 C 8.480 14.770,8.259 14.600,7.724 14.600 L 7.400 14.600 7.400 15.199 " stroke="none" fill-rule="evenodd" fill="black"></path></svg>