<svg viewBox="0 0 24 24" xmlns="http://www.w3.org/2000/svg"><path d="M7.580 2.047 C 6.858 2.186,6.199 2.848,6.044 3.592 C 5.982 3.892,5.982 20.108,6.044 20.408 C 6.201 21.158,6.842 21.799,7.592 21.956 C 7.890 22.018,18.110 22.018,18.408 21.956 C 19.158 21.799,19.799 21.158,19.956 20.408 C 20.018 20.108,20.018 3.892,19.956 3.592 C 19.817 2.927,19.322 2.365,18.647 2.107 L 18.420 2.020 13.100 2.014 C 9.831 2.010,7.703 2.023,7.580 2.047 M13.340 17.066 C 13.709 17.192,14.000 17.604,14.000 18.000 C 14.000 18.527,13.527 19.000,13.000 19.000 C 12.758 19.000,12.479 18.881,12.299 18.701 C 11.907 18.309,11.908 17.690,12.300 17.298 C 12.577 17.020,12.957 16.936,13.340 17.066 " stroke="none" fill-rule="evenodd" fill="black"></path></svg>