<svg viewBox="0 0 24 24" xmlns="http://www.w3.org/2000/svg"><path d="M3.580 2.047 C 2.858 2.185,2.199 2.848,2.044 3.592 C 2.013 3.743,2.000 6.417,2.000 12.912 L 2.000 22.020 4.010 20.010 L 6.020 18.000 13.108 18.000 C 18.128 18.000,20.258 17.987,20.408 17.956 C 21.158 17.799,21.799 17.158,21.956 16.408 C 22.018 16.109,22.018 3.891,21.956 3.592 C 21.817 2.927,21.322 2.365,20.647 2.107 L 20.420 2.020 12.100 2.014 C 6.933 2.011,3.704 2.023,3.580 2.047 M13.000 7.000 L 13.000 9.000 15.000 9.000 L 17.000 9.000 17.000 10.000 L 17.000 11.000 15.000 11.000 L 13.000 11.000 13.000 13.000 L 13.000 15.000 12.000 15.000 L 11.000 15.000 11.000 13.000 L 11.000 11.000 9.000 11.000 L 7.000 11.000 7.000 10.000 L 7.000 9.000 9.000 9.000 L 11.000 9.000 11.000 7.000 L 11.000 5.000 12.000 5.000 L 13.000 5.000 13.000 7.000 " stroke="none" fill-rule="evenodd" fill="black"></path></svg>