<svg viewBox="0 0 24 24" xmlns="http://www.w3.org/2000/svg"><path d="M17.740 2.445 C 17.406 2.484,17.083 2.614,16.811 2.818 C 16.684 2.913,16.225 3.349,15.790 3.786 L 15.000 4.581 17.211 6.791 L 19.422 9.002 20.305 8.111 C 20.791 7.621,21.236 7.138,21.294 7.037 C 21.499 6.682,21.571 6.411,21.571 6.000 C 21.571 5.589,21.499 5.318,21.294 4.963 C 21.154 4.721,19.405 2.958,19.105 2.757 C 18.723 2.501,18.226 2.387,17.740 2.445 M8.871 10.710 C 5.351 14.231,4.146 15.460,4.097 15.579 C 4.038 15.723,2.988 20.961,3.013 20.987 C 3.047 21.020,8.313 19.951,8.455 19.882 C 8.568 19.827,10.085 18.337,13.310 15.111 L 18.000 10.420 15.790 8.210 L 13.580 6.000 8.871 10.710 " stroke="none" fill-rule="evenodd" fill="black"></path></svg>