<svg viewBox="0 0 24 24" xmlns="http://www.w3.org/2000/svg"><path d="M3.580 4.047 C 2.859 4.185,2.199 4.848,2.044 5.592 C 1.982 5.891,1.982 18.109,2.044 18.408 C 2.201 19.158,2.842 19.799,3.592 19.956 C 3.892 20.018,20.108 20.018,20.408 19.956 C 21.158 19.799,21.799 19.158,21.956 18.408 C 22.018 18.109,22.018 5.891,21.956 5.592 C 21.797 4.830,21.138 4.181,20.383 4.043 C 20.075 3.987,3.875 3.991,3.580 4.047 M8.000 12.000 L 8.000 17.000 6.500 17.000 L 5.000 17.000 5.000 12.000 L 5.000 7.000 6.500 7.000 L 8.000 7.000 8.000 12.000 M10.000 12.000 L 10.000 17.000 9.500 17.000 L 9.000 17.000 9.000 12.000 L 9.000 7.000 9.500 7.000 L 10.000 7.000 10.000 12.000 M12.000 12.000 L 12.000 17.000 11.500 17.000 L 11.000 17.000 11.000 12.000 L 11.000 7.000 11.500 7.000 L 12.000 7.000 12.000 12.000 M16.000 12.000 L 16.000 17.000 14.500 17.000 L 13.000 17.000 13.000 12.000 L 13.000 7.000 14.500 7.000 L 16.000 7.000 16.000 12.000 M19.000 12.000 L 19.000 17.000 18.000 17.000 L 17.000 17.000 17.000 12.000 L 17.000 7.000 18.000 7.000 L 19.000 7.000 19.000 12.000 " stroke="none" fill-rule="evenodd" fill="black"></path></svg>