<svg viewBox="0 0 24 24" xmlns="http://www.w3.org/2000/svg"><path d="M4.970 3.010 L 4.280 3.701 5.680 5.100 C 6.450 5.870,7.080 6.512,7.080 6.526 C 7.080 6.541,7.017 6.649,6.939 6.767 L 6.799 6.980 9.399 6.990 C 10.830 6.996,13.169 6.996,14.597 6.990 L 17.195 6.980 17.052 6.746 L 16.909 6.512 18.314 5.106 L 19.720 3.699 19.030 3.010 C 18.650 2.630,18.321 2.320,18.300 2.320 C 18.278 2.320,17.628 2.953,16.854 3.726 L 15.447 5.132 15.154 4.943 C 14.546 4.552,13.863 4.274,13.120 4.116 C 12.518 3.988,11.482 3.988,10.880 4.116 C 10.126 4.276,9.484 4.535,8.883 4.920 L 8.553 5.132 7.146 3.726 C 6.373 2.953,5.721 2.320,5.699 2.320 C 5.677 2.320,5.349 2.631,4.970 3.010 M2.000 10.000 L 2.000 11.000 3.153 11.000 L 4.307 11.000 4.269 11.250 C 4.221 11.573,4.210 13.061,4.253 13.590 L 4.286 14.000 3.143 14.000 L 2.000 14.000 2.000 15.000 L 2.000 16.000 3.370 16.000 L 4.740 16.000 4.897 16.430 C 4.984 16.667,5.179 17.110,5.331 17.415 L 5.609 17.971 4.454 19.126 L 3.300 20.280 4.010 20.990 L 4.720 21.700 5.770 20.652 L 6.820 19.604 7.241 20.012 C 7.923 20.672,8.712 21.187,9.549 21.518 C 9.943 21.674,10.537 21.845,10.850 21.892 L 11.000 21.915 11.000 18.957 L 11.000 16.000 12.000 16.000 L 13.000 16.000 13.000 18.957 L 13.000 21.915 13.150 21.892 C 13.463 21.845,14.057 21.674,14.451 21.518 C 15.286 21.188,16.066 20.679,16.757 20.013 L 17.180 19.605 18.230 20.652 L 19.280 21.700 19.990 20.990 L 20.700 20.280 19.547 19.127 L 18.394 17.973 18.694 17.357 C 18.860 17.018,19.052 16.573,19.122 16.370 L 19.250 16.000 20.625 16.000 L 22.000 16.000 22.000 15.000 L 22.000 14.000 20.847 14.000 L 19.693 14.000 19.733 13.750 C 19.785 13.426,19.785 11.574,19.733 11.250 L 19.693 11.000 20.847 11.000 L 22.000 11.000 22.000 10.000 L 22.000 9.000 12.000 9.000 L 2.000 9.000 2.000 10.000 " stroke="none" fill-rule="evenodd" fill="black"></path></svg>