<svg viewBox="0 0 24 24" xmlns="http://www.w3.org/2000/svg"><path d="M11.970 4.970 L 2.000 7.692 2.000 8.729 C 2.000 9.698,2.005 9.764,2.070 9.744 C 2.190 9.706,10.966 7.320,10.984 7.320 C 10.993 7.320,11.000 7.923,11.000 8.660 L 11.000 10.000 8.927 10.000 C 7.611 10.000,6.768 10.016,6.617 10.043 C 5.862 10.181,5.203 10.830,5.044 11.592 C 4.982 11.889,4.982 20.111,5.044 20.408 C 5.201 21.158,5.842 21.799,6.592 21.956 C 6.890 22.018,17.110 22.018,17.408 21.956 C 18.158 21.799,18.799 21.158,18.956 20.408 C 19.018 20.111,19.018 11.889,18.956 11.592 C 18.797 10.830,18.138 10.181,17.383 10.043 C 17.232 10.016,16.389 10.000,15.073 10.000 L 13.000 10.000 13.000 8.383 C 13.000 6.877,13.005 6.764,13.070 6.744 C 13.190 6.706,21.966 4.320,21.984 4.320 C 21.993 4.320,22.000 3.852,22.000 3.280 C 22.000 2.708,21.987 2.242,21.970 2.244 C 21.953 2.246,17.454 3.473,11.970 4.970 M11.000 13.500 L 11.000 15.000 9.000 15.000 L 7.000 15.000 7.000 13.500 L 7.000 12.000 9.000 12.000 L 11.000 12.000 11.000 13.500 M17.000 13.500 L 17.000 15.000 15.000 15.000 L 13.000 15.000 13.000 13.500 L 13.000 12.000 15.000 12.000 L 17.000 12.000 17.000 13.500 " stroke="none" fill-rule="evenodd" fill="black"></path></svg>