<svg viewBox="0 0 24 24" xmlns="http://www.w3.org/2000/svg"><path d="M2.000 3.000 L 2.000 4.000 12.000 4.000 L 22.000 4.000 22.000 3.000 L 22.000 2.000 12.000 2.000 L 2.000 2.000 2.000 3.000 M3.000 13.000 L 3.000 20.000 2.500 20.000 L 2.000 20.000 2.000 21.000 L 2.000 22.000 4.998 22.000 L 7.997 22.000 8.011 18.210 C 8.024 14.816,8.033 14.391,8.094 14.140 C 8.450 12.670,9.193 11.733,10.360 11.283 C 10.887 11.079,11.225 11.027,12.000 11.027 C 12.775 11.027,13.113 11.079,13.640 11.283 C 14.245 11.516,14.756 11.900,15.144 12.411 C 15.375 12.717,15.687 13.358,15.799 13.760 C 15.994 14.459,16.000 14.583,16.000 18.410 L 16.000 22.000 19.000 22.000 L 22.000 22.000 22.000 21.000 L 22.000 20.000 21.500 20.000 L 21.000 20.000 21.000 13.000 L 21.000 6.000 12.000 6.000 L 3.000 6.000 3.000 13.000 " stroke="none" fill-rule="evenodd" fill="black"></path></svg>