<svg viewBox="0 0 24 24" xmlns="http://www.w3.org/2000/svg"><path d="M2.664 5.063 C 2.436 5.146,2.257 5.297,2.131 5.511 L 2.020 5.700 2.009 7.850 L 1.997 10.000 2.531 10.000 C 3.163 10.000,3.447 10.046,3.796 10.205 C 4.314 10.439,4.722 10.873,4.902 11.380 C 5.013 11.691,5.002 12.347,4.881 12.660 C 4.679 13.181,4.321 13.581,3.866 13.796 C 3.514 13.961,3.275 14.000,2.597 14.000 L 1.997 14.000 2.009 16.150 L 2.020 18.300 2.131 18.489 C 2.260 18.709,2.437 18.854,2.678 18.939 C 2.830 18.993,3.916 19.000,11.998 19.000 C 22.265 19.000,21.375 19.027,21.701 18.701 C 22.002 18.400,22.000 18.419,22.000 16.073 L 22.000 14.000 21.402 14.000 C 21.073 14.000,20.709 13.980,20.592 13.956 C 19.910 13.814,19.328 13.286,19.096 12.600 C 18.996 12.306,18.997 11.665,19.098 11.380 C 19.205 11.077,19.494 10.669,19.730 10.490 C 20.223 10.113,20.614 10.002,21.450 10.001 L 22.000 10.000 22.000 7.927 C 22.000 5.581,22.002 5.600,21.701 5.299 C 21.375 4.972,22.267 5.000,11.983 5.003 C 4.135 5.005,2.798 5.014,2.664 5.063 M12.799 12.601 L 9.799 16.601 9.000 16.000 L 8.201 15.399 11.201 11.399 L 14.201 7.399 15.000 8.000 L 15.799 8.601 12.799 12.601 M9.340 9.066 C 9.709 9.192,10.000 9.604,10.000 10.000 C 10.000 10.527,9.527 11.000,9.000 11.000 C 8.758 11.000,8.479 10.881,8.299 10.701 C 7.907 10.309,7.908 9.690,8.300 9.298 C 8.577 9.020,8.957 8.936,9.340 9.066 M15.340 13.066 C 15.709 13.192,16.000 13.604,16.000 14.000 C 16.000 14.527,15.527 15.000,15.000 15.000 C 14.758 15.000,14.479 14.881,14.299 14.701 C 13.907 14.309,13.908 13.690,14.300 13.298 C 14.577 13.020,14.957 12.936,15.340 13.066 " stroke="none" fill-rule="evenodd" fill="black"></path></svg>