<svg viewBox="0 0 24 24" xmlns="http://www.w3.org/2000/svg"><path d="M17.832 3.176 L 16.724 4.304 18.222 5.802 L 19.720 7.299 20.563 6.460 C 21.026 5.998,21.533 5.479,21.690 5.307 L 21.974 4.994 20.497 3.517 C 19.685 2.705,19.002 2.042,18.980 2.044 C 18.958 2.046,18.441 2.555,17.832 3.176 M4.580 3.047 C 3.859 3.185,3.199 3.848,3.044 4.592 C 2.982 4.892,2.982 19.108,3.044 19.408 C 3.201 20.158,3.842 20.799,4.592 20.956 C 4.892 21.018,19.108 21.018,19.408 20.956 C 20.158 20.799,20.799 20.158,20.956 19.408 C 20.987 19.261,21.000 17.846,21.000 14.768 L 21.000 10.341 20.000 11.340 L 19.000 12.339 19.000 15.670 L 19.000 19.000 12.000 19.000 L 5.000 19.000 5.000 12.000 L 5.000 5.000 8.430 5.000 L 11.861 5.000 12.860 4.000 L 13.859 3.000 9.320 3.004 C 6.634 3.007,4.698 3.024,4.580 3.047 M11.623 9.368 L 8.000 13.017 8.000 14.508 L 8.000 16.000 9.510 15.999 L 11.020 15.999 14.647 12.346 L 18.274 8.693 16.787 7.207 C 15.969 6.389,15.288 5.720,15.273 5.720 C 15.259 5.720,13.616 7.362,11.623 9.368 " stroke="none" fill-rule="evenodd" fill="black"></path></svg>