<svg viewBox="0 0 24 24" xmlns="http://www.w3.org/2000/svg"><path d="M4.580 3.047 C 3.858 3.186,3.199 3.848,3.044 4.592 C 2.982 4.892,2.982 19.108,3.044 19.408 C 3.201 20.158,3.842 20.799,4.592 20.956 C 4.892 21.018,19.108 21.018,19.408 20.956 C 20.158 20.799,20.799 20.158,20.956 19.408 C 21.018 19.108,21.018 4.892,20.956 4.592 C 20.817 3.927,20.322 3.365,19.647 3.107 L 19.420 3.020 12.100 3.014 C 7.566 3.011,4.704 3.023,4.580 3.047 M12.647 10.652 C 12.912 10.782,13.250 11.125,13.372 11.390 C 13.445 11.547,13.460 11.652,13.460 12.000 C 13.460 12.376,13.449 12.443,13.351 12.641 C 13.061 13.232,12.403 13.581,11.772 13.479 C 11.300 13.402,10.862 13.076,10.651 12.646 C 10.514 12.364,10.480 11.879,10.575 11.552 C 10.695 11.140,11.077 10.740,11.493 10.592 C 11.809 10.479,12.352 10.507,12.647 10.652 " stroke="none" fill-rule="evenodd" fill="black"></path></svg>