<svg viewBox="0 0 24 24" xmlns="http://www.w3.org/2000/svg"><path d="M11.000 3.031 L 11.000 4.062 10.510 4.155 C 7.671 4.694,5.322 6.752,4.421 9.489 C 4.261 9.978,4.080 10.737,4.080 10.924 C 4.080 10.998,4.257 11.000,12.000 11.000 C 19.888 11.000,19.920 11.000,19.920 10.920 C 19.920 10.741,19.717 9.900,19.562 9.437 C 18.659 6.737,16.307 4.690,13.490 4.155 L 13.000 4.062 13.000 3.031 L 13.000 2.000 12.000 2.000 L 11.000 2.000 11.000 3.031 M2.000 13.000 L 2.000 14.000 12.000 14.000 L 22.000 14.000 22.000 13.000 L 22.000 12.000 12.000 12.000 L 2.000 12.000 2.000 13.000 M4.292 15.270 C 3.690 16.069,3.255 17.032,3.059 18.000 C 2.928 18.648,3.052 19.099,3.476 19.524 C 3.805 19.853,4.082 19.975,4.500 19.975 C 4.918 19.975,5.195 19.853,5.524 19.524 C 6.073 18.975,6.123 18.433,5.735 17.240 C 5.506 16.536,5.010 15.614,4.589 15.110 L 4.496 14.999 4.292 15.270 M19.292 15.270 C 18.524 16.289,17.955 17.777,18.009 18.622 C 18.043 19.153,18.380 19.643,18.871 19.872 C 19.072 19.967,19.149 19.980,19.500 19.980 C 19.851 19.980,19.928 19.967,20.129 19.872 C 20.620 19.643,20.957 19.153,20.991 18.622 C 21.047 17.752,20.361 16.034,19.589 15.110 L 19.496 14.999 19.292 15.270 M9.292 17.270 C 8.690 18.069,8.255 19.032,8.059 20.000 C 7.928 20.648,8.052 21.099,8.476 21.524 C 8.805 21.853,9.082 21.975,9.500 21.975 C 9.918 21.975,10.195 21.853,10.524 21.524 C 11.073 20.975,11.123 20.433,10.735 19.240 C 10.506 18.536,10.010 17.614,9.589 17.110 L 9.496 16.999 9.292 17.270 M14.292 17.270 C 13.690 18.069,13.255 19.032,13.059 20.000 C 12.928 20.648,13.052 21.099,13.476 21.524 C 13.805 21.853,14.082 21.975,14.500 21.975 C 14.918 21.975,15.195 21.853,15.524 21.524 C 16.073 20.975,16.123 20.433,15.735 19.240 C 15.506 18.536,15.010 17.614,14.589 17.110 L 14.496 16.999 14.292 17.270 " stroke="none" fill-rule="evenodd" fill="black"></path></svg>