<svg viewBox="0 0 24 24" xmlns="http://www.w3.org/2000/svg"><path d="M8.664 2.063 C 8.436 2.146,8.257 2.297,8.131 2.511 L 8.020 2.700 8.009 6.350 L 7.998 10.000 5.946 10.000 C 3.603 10.000,3.597 10.001,3.302 10.296 C 3.001 10.597,2.921 11.058,3.105 11.426 C 3.147 11.511,5.019 13.875,7.264 16.680 C 10.623 20.877,11.377 21.798,11.523 21.880 C 11.668 21.962,11.754 21.980,12.000 21.980 C 12.246 21.980,12.332 21.962,12.477 21.880 C 12.623 21.798,13.377 20.877,16.736 16.680 C 18.981 13.875,20.853 11.511,20.895 11.426 C 21.079 11.058,20.999 10.597,20.698 10.296 C 20.403 10.001,20.397 10.000,18.053 10.000 L 16.000 10.000 16.000 6.427 C 16.000 2.405,16.015 2.613,15.701 2.299 C 15.389 1.987,15.547 2.000,11.983 2.003 C 9.342 2.005,8.794 2.015,8.664 2.063 " stroke="none" fill-rule="evenodd" fill="black"></path></svg>