<svg viewBox="0 0 24 24" xmlns="http://www.w3.org/2000/svg"><path d="M8.000 2.999 L 8.000 4.000 14.000 4.000 L 20.000 4.000 20.000 10.000 L 20.000 16.000 21.000 16.000 L 22.000 16.000 22.000 9.902 C 22.000 5.605,21.987 3.741,21.956 3.592 C 21.817 2.927,21.322 2.365,20.647 2.107 L 20.420 2.020 14.210 2.009 L 8.000 1.999 8.000 2.999 M3.580 6.047 C 2.859 6.185,2.199 6.848,2.044 7.592 C 1.982 7.891,1.982 20.109,2.044 20.408 C 2.201 21.158,2.842 21.799,3.592 21.956 C 3.891 22.018,16.109 22.018,16.408 21.956 C 17.158 21.799,17.799 21.158,17.956 20.408 C 18.018 20.109,18.018 7.891,17.956 7.592 C 17.797 6.830,17.138 6.181,16.383 6.043 C 16.077 5.987,3.875 5.991,3.580 6.047 M11.000 11.500 L 11.000 13.000 12.500 13.000 L 14.000 13.000 14.000 14.000 L 14.000 15.000 12.500 15.000 L 11.000 15.000 11.000 16.500 L 11.000 18.000 10.000 18.000 L 9.000 18.000 9.000 16.500 L 9.000 15.000 7.500 15.000 L 6.000 15.000 6.000 14.000 L 6.000 13.000 7.500 13.000 L 9.000 13.000 9.000 11.500 L 9.000 10.000 10.000 10.000 L 11.000 10.000 11.000 11.500 " stroke="none" fill-rule="evenodd" fill="black"></path></svg>