<svg viewBox="0 0 24 24" xmlns="http://www.w3.org/2000/svg"><path d="M5.670 2.057 C 5.451 2.135,5.256 2.298,5.137 2.502 C 5.041 2.666,4.993 2.952,4.552 6.010 L 4.071 9.340 4.066 10.160 C 4.060 11.047,4.093 11.340,4.278 12.060 C 4.977 14.771,7.172 16.962,9.931 17.701 C 10.134 17.755,10.408 17.818,10.540 17.841 C 10.672 17.864,10.830 17.892,10.890 17.904 L 11.000 17.926 11.000 18.963 L 11.000 20.000 10.000 20.000 L 9.000 20.000 9.000 21.000 L 9.000 22.000 12.000 22.000 L 15.000 22.000 15.000 21.000 L 15.000 20.000 14.000 20.000 L 13.000 20.000 13.000 18.963 L 13.000 17.926 13.110 17.904 C 13.171 17.892,13.328 17.864,13.460 17.841 C 13.592 17.818,13.866 17.755,14.069 17.701 C 16.829 16.961,19.023 14.772,19.722 12.060 C 19.907 11.340,19.940 11.047,19.934 10.160 L 19.929 9.340 19.448 6.010 C 19.007 2.952,18.959 2.666,18.863 2.502 C 18.744 2.298,18.549 2.135,18.330 2.057 C 18.108 1.978,5.892 1.978,5.670 2.057 M17.139 4.090 C 17.169 4.228,17.680 7.851,17.680 7.930 C 17.680 7.996,17.383 8.000,12.000 8.000 C 6.617 8.000,6.320 7.996,6.320 7.930 C 6.320 7.851,6.831 4.228,6.861 4.090 L 6.882 4.000 12.000 4.000 L 17.118 4.000 17.139 4.090 " stroke="none" fill-rule="evenodd" fill="black"></path></svg>