<svg viewBox="0 0 24 24" xmlns="http://www.w3.org/2000/svg"><path d="M11.740 2.396 C 11.674 2.438,11.053 3.041,10.360 3.736 L 9.100 5.000 7.240 5.000 C 5.466 5.000,5.374 5.004,5.252 5.078 C 4.996 5.234,5.000 5.204,5.000 7.248 L 5.000 9.100 3.670 10.430 L 2.340 11.760 2.340 12.000 L 2.340 12.240 3.670 13.570 L 5.000 14.900 5.000 16.760 C 5.000 18.534,5.004 18.626,5.078 18.748 C 5.234 19.004,5.204 19.000,7.248 19.000 L 9.100 19.000 10.430 20.330 L 11.760 21.660 12.000 21.660 L 12.240 21.660 13.570 20.330 L 14.900 19.000 16.752 19.000 C 18.796 19.000,18.766 19.004,18.922 18.748 C 18.996 18.626,19.000 18.534,19.000 16.760 L 19.000 14.900 20.283 13.620 C 20.988 12.916,21.593 12.288,21.627 12.223 C 21.668 12.146,21.682 12.046,21.669 11.928 C 21.649 11.754,21.611 11.712,20.324 10.424 L 19.000 9.100 19.000 7.248 C 19.000 5.204,19.004 5.234,18.748 5.078 C 18.626 5.004,18.534 5.000,16.760 5.000 L 14.900 5.000 13.620 3.717 C 12.916 3.012,12.291 2.409,12.232 2.377 C 12.083 2.298,11.883 2.306,11.740 2.396 M12.958 8.120 C 13.621 8.282,14.329 8.683,14.823 9.177 C 15.321 9.675,15.716 10.376,15.887 11.062 C 16.013 11.571,16.013 12.429,15.887 12.938 C 15.531 14.369,14.434 15.486,13.005 15.871 C 12.669 15.962,12.542 15.975,12.000 15.975 C 11.458 15.975,11.331 15.962,10.995 15.871 C 10.054 15.617,9.240 15.046,8.712 14.269 C 8.471 13.913,8.214 13.341,8.113 12.938 C 7.987 12.429,7.987 11.571,8.113 11.062 C 8.215 10.654,8.470 10.088,8.722 9.715 C 9.304 8.853,10.337 8.215,11.433 8.040 C 11.783 7.984,12.572 8.026,12.958 8.120 " stroke="none" fill-rule="evenodd" fill="black"></path></svg>