<svg viewBox="0 0 24 24" xmlns="http://www.w3.org/2000/svg"><path d="M5.711 3.291 C 5.604 3.341,5.017 3.813,4.363 4.374 C 2.985 5.555,3.027 5.497,3.006 6.220 C 2.982 7.046,3.112 8.252,3.339 9.300 C 4.145 13.026,6.138 16.096,9.160 18.269 C 11.445 19.912,14.691 20.968,17.480 20.977 C 18.215 20.980,18.271 20.975,18.446 20.888 C 18.598 20.813,18.818 20.581,19.626 19.637 C 20.173 19.000,20.656 18.411,20.699 18.329 C 20.747 18.239,20.784 18.077,20.793 17.918 C 20.821 17.432,20.881 17.501,18.513 15.344 C 17.219 14.166,16.320 13.377,16.195 13.310 C 16.035 13.224,15.938 13.200,15.745 13.201 C 15.299 13.202,15.370 13.142,13.126 15.445 L 12.634 15.950 12.476 15.915 C 11.937 15.793,11.118 15.408,10.588 15.027 C 9.384 14.160,8.433 12.861,8.127 11.667 L 8.050 11.366 9.351 10.094 C 10.248 9.217,10.675 8.771,10.725 8.661 C 10.829 8.431,10.823 8.069,10.709 7.833 C 10.650 7.709,9.965 6.925,8.684 5.518 C 7.004 3.673,6.720 3.378,6.544 3.296 C 6.276 3.171,5.968 3.169,5.711 3.291 " stroke="none" fill-rule="evenodd" fill="black"></path></svg>