<svg viewBox="0 0 24 24" xmlns="http://www.w3.org/2000/svg"><path d="M10.836 4.239 L 7.732 6.312 5.736 4.316 C 4.638 3.218,3.722 2.320,3.700 2.320 C 3.677 2.320,3.349 2.631,2.970 3.010 L 2.280 3.700 11.280 12.700 L 20.280 21.700 20.990 20.990 L 21.700 20.280 20.694 19.270 L 19.688 18.260 19.902 18.005 C 20.440 17.363,21.107 16.180,21.416 15.320 C 21.612 14.773,21.815 13.976,21.905 13.400 C 22.006 12.756,22.006 11.246,21.906 10.608 C 21.534 8.244,20.404 6.187,18.652 4.683 C 17.935 4.068,16.937 3.418,16.230 3.106 L 16.000 3.004 16.000 4.000 L 16.000 4.996 16.290 5.183 C 17.832 6.178,19.002 7.697,19.582 9.460 C 20.267 11.540,20.088 13.754,19.075 15.725 C 18.884 16.097,18.497 16.713,18.376 16.839 C 18.326 16.891,18.239 16.819,17.684 16.264 L 17.050 15.631 17.242 15.224 C 17.598 14.468,17.852 13.583,17.958 12.721 C 18.184 10.890,17.455 8.561,16.242 7.240 L 16.003 6.980 16.002 10.780 L 16.000 14.579 15.000 13.580 L 14.000 12.581 14.000 7.370 C 14.000 4.505,13.987 2.161,13.970 2.163 C 13.954 2.164,12.543 3.098,10.836 4.239 M2.855 7.378 C 2.471 7.636,2.186 8.053,2.061 8.538 C 2.009 8.743,2.000 9.234,2.000 11.986 C 2.000 14.175,2.014 15.263,2.044 15.408 C 2.201 16.158,2.842 16.799,3.592 16.956 C 3.724 16.983,4.349 17.000,5.252 17.000 L 6.700 17.000 10.330 19.420 C 12.326 20.751,13.969 21.840,13.980 21.840 C 13.991 21.840,14.000 21.007,14.000 19.990 L 14.000 18.140 8.550 12.690 C 5.552 9.692,3.091 7.240,3.079 7.240 C 3.068 7.240,2.967 7.302,2.855 7.378 " stroke="none" fill-rule="evenodd" fill="black"></path></svg>