<svg viewBox="0 0 24 24" xmlns="http://www.w3.org/2000/svg"><path d="M4.580 3.047 C 3.859 3.185,3.199 3.848,3.044 4.592 C 2.982 4.892,2.982 19.108,3.044 19.408 C 3.201 20.158,3.842 20.799,4.592 20.956 C 4.892 21.018,19.108 21.018,19.408 20.956 C 20.158 20.799,20.799 20.158,20.956 19.408 C 21.018 19.108,21.018 4.892,20.956 4.592 C 20.797 3.830,20.138 3.181,19.383 3.043 C 19.076 2.987,4.875 2.991,4.580 3.047 M16.519 14.530 L 18.997 18.000 11.998 18.000 L 4.999 18.000 6.504 15.995 L 8.009 13.989 9.191 15.171 L 10.373 16.353 12.174 13.696 C 13.165 12.234,13.990 11.043,14.007 11.049 C 14.025 11.055,15.155 12.622,16.519 14.530 " stroke="none" fill-rule="evenodd" fill="black"></path></svg>