<svg viewBox="0 0 24 24" xmlns="http://www.w3.org/2000/svg"><path d="M4.580 3.047 C 3.859 3.185,3.199 3.848,3.044 4.592 C 2.982 4.892,2.982 19.108,3.044 19.408 C 3.201 20.158,3.842 20.799,4.592 20.956 C 4.892 21.018,19.108 21.018,19.408 20.956 C 20.158 20.799,20.799 20.158,20.956 19.408 C 20.987 19.259,21.000 17.528,21.000 13.588 L 21.000 7.980 18.510 5.490 L 16.020 3.000 10.400 3.004 C 7.031 3.007,4.700 3.024,4.580 3.047 M11.000 6.000 L 11.000 7.000 12.000 7.000 L 13.000 7.000 13.000 6.000 L 13.000 5.000 14.000 5.000 L 15.000 5.000 15.000 7.000 L 15.000 9.000 11.000 9.000 L 7.000 9.000 7.000 7.000 L 7.000 5.000 9.000 5.000 L 11.000 5.000 11.000 6.000 M17.000 16.000 L 17.000 19.000 12.000 19.000 L 7.000 19.000 7.000 16.000 L 7.000 13.000 12.000 13.000 L 17.000 13.000 17.000 16.000 " stroke="none" fill-rule="evenodd" fill="black"></path></svg>