<svg viewBox="0 0 24 24" xmlns="http://www.w3.org/2000/svg"><path d="M7.580 2.046 C 6.858 2.186,6.199 2.848,6.044 3.592 C 6.018 3.717,6.000 4.255,6.000 4.902 L 6.000 6.000 4.927 6.000 C 4.330 6.000,3.750 6.019,3.617 6.043 C 2.862 6.181,2.203 6.830,2.044 7.592 C 1.982 7.891,1.982 20.109,2.044 20.408 C 2.201 21.158,2.842 21.799,3.592 21.956 C 3.892 22.018,20.108 22.018,20.408 21.956 C 21.158 21.799,21.799 21.158,21.956 20.408 C 22.018 20.109,22.018 7.891,21.956 7.592 C 21.817 6.926,21.316 6.358,20.647 6.109 C 20.439 6.032,20.321 6.023,19.210 6.009 L 18.000 5.994 18.000 4.899 C 18.000 4.254,17.982 3.717,17.956 3.592 C 17.817 2.927,17.322 2.365,16.647 2.107 L 16.420 2.020 12.100 2.014 C 9.464 2.010,7.702 2.023,7.580 2.046 M16.000 5.000 L 16.000 6.000 12.000 6.000 L 8.000 6.000 8.000 5.000 L 8.000 4.000 12.000 4.000 L 16.000 4.000 16.000 5.000 M20.000 10.000 L 20.000 12.000 12.000 12.000 L 4.000 12.000 4.000 10.000 L 4.000 8.000 12.000 8.000 L 20.000 8.000 20.000 10.000 M14.000 10.000 L 14.000 11.000 15.000 11.000 L 16.000 11.000 16.000 10.000 L 16.000 9.000 15.000 9.000 L 14.000 9.000 14.000 10.000 M17.000 10.000 L 17.000 11.000 18.000 11.000 L 19.000 11.000 19.000 10.000 L 19.000 9.000 18.000 9.000 L 17.000 9.000 17.000 10.000 M6.340 14.066 C 6.709 14.192,7.000 14.604,7.000 15.000 C 7.000 15.527,6.527 16.000,6.000 16.000 C 5.758 16.000,5.479 15.881,5.299 15.701 C 4.907 15.309,4.908 14.690,5.300 14.298 C 5.577 14.020,5.957 13.936,6.340 14.066 M9.340 14.066 C 9.709 14.192,10.000 14.604,10.000 15.000 C 10.000 15.527,9.527 16.000,9.000 16.000 C 8.758 16.000,8.479 15.881,8.299 15.701 C 7.907 15.309,7.908 14.690,8.300 14.298 C 8.577 14.020,8.957 13.936,9.340 14.066 M12.340 14.066 C 12.709 14.192,13.000 14.604,13.000 15.000 C 13.000 15.527,12.527 16.000,12.000 16.000 C 11.758 16.000,11.479 15.881,11.299 15.701 C 10.907 15.309,10.908 14.690,11.300 14.298 C 11.577 14.020,11.957 13.936,12.340 14.066 M15.340 14.066 C 15.709 14.192,16.000 14.604,16.000 15.000 C 16.000 15.527,15.527 16.000,15.000 16.000 C 14.758 16.000,14.479 15.881,14.299 15.701 C 13.907 15.309,13.908 14.690,14.300 14.298 C 14.577 14.020,14.957 13.936,15.340 14.066 M18.340 14.066 C 18.709 14.192,19.000 14.604,19.000 15.000 C 19.000 15.527,18.527 16.000,18.000 16.000 C 17.758 16.000,17.479 15.881,17.299 15.701 C 16.907 15.309,16.908 14.690,17.300 14.298 C 17.577 14.020,17.957 13.936,18.340 14.066 M6.340 17.066 C 6.709 17.192,7.000 17.604,7.000 18.000 C 7.000 18.527,6.527 19.000,6.000 19.000 C 5.758 19.000,5.479 18.881,5.299 18.701 C 4.907 18.309,4.908 17.690,5.300 17.298 C 5.577 17.020,5.957 16.936,6.340 17.066 M9.340 17.066 C 9.709 17.192,10.000 17.604,10.000 18.000 C 10.000 18.527,9.527 19.000,9.000 19.000 C 8.758 19.000,8.479 18.881,8.299 18.701 C 7.907 18.309,7.908 17.690,8.300 17.298 C 8.577 17.020,8.957 16.936,9.340 17.066 M12.340 17.066 C 12.709 17.192,13.000 17.604,13.000 18.000 C 13.000 18.527,12.527 19.000,12.000 19.000 C 11.758 19.000,11.479 18.881,11.299 18.701 C 10.907 18.309,10.908 17.690,11.300 17.298 C 11.577 17.020,11.957 16.936,12.340 17.066 M15.340 17.066 C 15.709 17.192,16.000 17.604,16.000 18.000 C 16.000 18.527,15.527 19.000,15.000 19.000 C 14.758 19.000,14.479 18.881,14.299 18.701 C 13.907 18.309,13.908 17.690,14.300 17.298 C 14.577 17.020,14.957 16.936,15.340 17.066 M18.340 17.066 C 18.709 17.192,19.000 17.604,19.000 18.000 C 19.000 18.527,18.527 19.000,18.000 19.000 C 17.758 19.000,17.479 18.881,17.299 18.701 C 16.907 18.309,16.908 17.690,17.300 17.298 C 17.577 17.020,17.957 16.936,18.340 17.066 " stroke="none" fill-rule="evenodd" fill="black"></path></svg>