<svg viewBox="0 0 24 24" xmlns="http://www.w3.org/2000/svg"><path d="M11.640 2.173 C 11.432 2.253,3.770 5.674,3.560 5.781 C 3.204 5.962,3.019 6.244,2.975 6.670 C 2.914 7.256,3.100 9.232,3.325 10.400 C 3.999 13.900,5.544 16.863,7.885 19.141 C 8.935 20.162,10.189 21.084,11.357 21.691 C 11.731 21.885,11.745 21.889,12.025 21.871 C 12.290 21.854,12.346 21.833,12.786 21.582 C 14.162 20.797,15.241 19.964,16.342 18.836 C 17.782 17.360,18.908 15.607,19.691 13.620 C 20.455 11.681,20.883 9.687,21.004 7.496 C 21.045 6.742,21.043 6.632,20.983 6.426 C 20.904 6.152,20.703 5.913,20.443 5.782 C 20.342 5.731,18.460 4.892,16.260 3.918 C 12.647 2.317,12.237 2.144,12.020 2.132 C 11.883 2.125,11.720 2.142,11.640 2.173 M10.870 9.450 L 12.000 10.579 13.130 9.450 C 13.752 8.828,14.278 8.320,14.300 8.320 C 14.352 8.320,15.680 9.647,15.680 9.699 C 15.680 9.721,15.172 10.248,14.550 10.870 L 13.421 12.000 14.560 13.140 L 15.700 14.280 14.990 14.990 L 14.280 15.700 13.140 14.560 L 12.000 13.421 10.860 14.560 L 9.720 15.700 9.010 14.990 L 8.300 14.280 9.440 13.140 L 10.579 12.000 9.450 10.870 C 8.828 10.248,8.320 9.722,8.320 9.700 C 8.320 9.648,9.647 8.320,9.699 8.320 C 9.721 8.320,10.248 8.828,10.870 9.450 " stroke="none" fill-rule="evenodd" fill="black"></path></svg>