<svg viewBox="0 0 24 24" xmlns="http://www.w3.org/2000/svg"><path d="M19.140 3.237 C 18.744 3.369,14.856 4.648,10.500 6.079 C 4.811 7.947,2.535 8.711,2.421 8.791 C 1.927 9.137,1.865 9.879,2.296 10.293 C 2.433 10.425,3.088 10.739,6.272 12.199 L 10.085 13.947 11.834 17.759 C 13.675 21.771,13.677 21.774,14.008 21.931 C 14.443 22.138,14.988 21.991,15.257 21.596 C 15.359 21.446,20.992 4.353,21.028 4.085 C 21.078 3.717,20.823 3.275,20.463 3.104 C 20.142 2.952,19.931 2.973,19.140 3.237 " stroke="none" fill-rule="evenodd" fill="black"></path></svg>