<svg viewBox="0 0 24 24" xmlns="http://www.w3.org/2000/svg"><path d="M7.320 2.044 C 6.128 2.177,4.917 2.716,4.045 3.501 C 3.023 4.422,2.403 5.494,2.109 6.848 L 2.020 7.260 2.020 14.280 L 2.020 21.300 2.133 21.492 C 2.265 21.716,2.487 21.889,2.728 21.956 C 2.858 21.992,4.588 22.000,9.840 21.991 L 16.780 21.980 17.174 21.890 C 17.770 21.754,18.250 21.581,18.759 21.316 C 20.391 20.470,21.505 18.972,21.908 17.080 C 21.975 16.763,21.980 16.422,21.980 12.000 L 21.980 7.260 21.891 6.848 C 21.655 5.761,21.178 4.799,20.501 4.047 C 19.452 2.883,18.149 2.207,16.632 2.042 C 16.165 1.992,7.776 1.993,7.320 2.044 M13.000 9.000 L 13.000 11.000 15.000 11.000 L 17.000 11.000 17.000 12.000 L 17.000 13.000 15.000 13.000 L 13.000 13.000 13.000 15.000 L 13.000 17.000 12.000 17.000 L 11.000 17.000 11.000 15.000 L 11.000 13.000 9.000 13.000 L 7.000 13.000 7.000 12.000 L 7.000 11.000 9.000 11.000 L 11.000 11.000 11.000 9.000 L 11.000 7.000 12.000 7.000 L 13.000 7.000 13.000 9.000 " stroke="none" fill-rule="evenodd" fill="black"></path></svg>