<svg viewBox="0 0 24 24" xmlns="http://www.w3.org/2000/svg"><path d="M5.580 2.047 C 4.859 2.185,4.199 2.848,4.044 3.592 C 3.982 3.892,3.982 20.108,4.044 20.408 C 4.201 21.158,4.842 21.799,5.592 21.956 C 5.891 22.018,18.109 22.018,18.408 21.956 C 19.158 21.799,19.799 21.158,19.956 20.408 C 19.987 20.259,20.000 18.393,20.000 14.088 L 20.000 7.980 17.010 4.990 L 14.020 2.000 9.900 2.004 C 7.480 2.007,5.698 2.025,5.580 2.047 M15.520 6.500 L 18.020 9.000 15.510 9.000 L 13.000 9.000 13.000 6.500 C 13.000 5.125,13.005 4.000,13.010 4.000 C 13.016 4.000,14.145 5.125,15.520 6.500 M8.986 14.097 C 9.336 14.205,9.560 14.386,9.713 14.680 C 9.843 14.931,9.847 14.953,9.832 15.320 C 9.819 15.648,9.801 15.729,9.701 15.913 C 9.454 16.363,8.946 16.600,8.224 16.600 L 7.880 16.600 7.880 17.320 L 7.880 18.040 7.440 18.040 L 7.000 18.040 7.000 16.063 L 7.000 14.086 7.210 14.063 C 7.325 14.051,7.474 14.033,7.540 14.024 C 7.815 13.985,8.785 14.034,8.986 14.097 M12.573 14.098 C 13.484 14.343,13.962 14.984,13.959 15.957 C 13.957 16.798,13.569 17.471,12.910 17.780 C 12.488 17.977,12.086 18.050,11.400 18.052 C 11.081 18.053,10.735 18.041,10.630 18.025 L 10.440 17.995 10.440 16.040 L 10.440 14.086 10.650 14.063 C 10.765 14.051,10.914 14.033,10.980 14.023 C 11.248 13.985,12.346 14.037,12.573 14.098 M17.000 14.400 L 17.000 14.760 16.240 14.760 L 15.480 14.760 15.480 15.220 L 15.480 15.680 16.180 15.680 L 16.880 15.680 16.880 16.060 L 16.880 16.440 16.181 16.440 L 15.482 16.440 15.471 17.230 L 15.460 18.020 15.010 18.031 L 14.560 18.043 14.560 16.041 L 14.560 14.040 15.780 14.040 L 17.000 14.040 17.000 14.400 M7.949 14.708 C 7.884 14.725,7.879 14.779,7.889 15.313 L 7.900 15.900 8.202 15.898 C 8.551 15.896,8.723 15.820,8.873 15.598 C 8.951 15.483,8.964 15.422,8.951 15.230 C 8.932 14.959,8.810 14.800,8.563 14.726 C 8.413 14.681,8.089 14.671,7.949 14.708 M11.490 14.708 L 11.360 14.725 11.360 16.043 L 11.360 17.360 11.636 17.360 C 12.515 17.360,13.000 16.861,13.000 15.957 C 13.000 15.188,12.612 14.763,11.860 14.708 C 11.728 14.698,11.562 14.698,11.490 14.708 " stroke="none" fill-rule="evenodd" fill="black"></path></svg>