<svg viewBox="0 0 24 24" xmlns="http://www.w3.org/2000/svg"><path d="M11.820 2.039 C 11.732 2.052,11.583 2.107,11.488 2.161 C 11.366 2.231,9.977 3.749,6.723 7.367 C 1.838 12.799,2.000 12.605,2.000 13.000 C 2.000 13.396,2.291 13.808,2.660 13.934 C 2.822 13.989,3.033 14.000,3.927 14.000 L 5.000 14.000 5.000 17.570 C 5.000 19.906,5.015 21.192,5.042 21.289 C 5.104 21.512,5.316 21.763,5.539 21.878 L 5.738 21.980 7.435 21.991 C 9.371 22.004,9.402 22.000,9.700 21.702 C 10.002 21.400,10.000 21.420,10.000 19.073 L 10.000 17.000 12.000 17.000 L 14.000 17.000 14.000 19.070 C 14.000 20.373,14.016 21.195,14.042 21.289 C 14.104 21.512,14.316 21.763,14.539 21.878 L 14.738 21.980 16.435 21.991 C 18.371 22.004,18.402 22.000,18.700 21.702 C 19.015 21.387,19.000 21.596,19.000 17.573 L 19.000 14.000 20.075 14.000 C 21.236 14.000,21.358 13.983,21.626 13.778 C 21.699 13.723,21.808 13.592,21.869 13.489 C 21.962 13.331,21.980 13.254,21.980 13.020 C 21.980 12.866,21.954 12.679,21.923 12.605 C 21.892 12.530,19.799 10.172,17.273 7.365 C 13.673 3.364,12.639 2.237,12.490 2.155 C 12.282 2.039,12.068 2.002,11.820 2.039 " stroke="none" fill-rule="evenodd" fill="black"></path></svg>