<svg viewBox="0 0 24 24" xmlns="http://www.w3.org/2000/svg"><path d="M11.120 2.039 C 10.299 2.121,9.443 2.304,8.751 2.545 C 5.354 3.728,2.869 6.588,2.185 10.103 C 1.783 12.167,2.056 14.361,2.949 16.248 L 3.173 16.722 2.589 19.350 C 2.268 20.796,2.009 21.982,2.013 21.987 C 2.018 21.991,3.204 21.732,4.650 21.411 L 7.278 20.827 7.752 21.051 C 9.639 21.944,11.833 22.217,13.897 21.815 C 15.471 21.509,16.890 20.859,18.200 19.845 C 18.637 19.507,19.507 18.637,19.845 18.200 C 21.256 16.378,22.000 14.236,22.000 12.000 C 22.000 7.432,18.842 3.387,14.430 2.303 C 13.446 2.062,12.028 1.948,11.120 2.039 M12.740 4.041 C 15.525 4.302,17.953 5.983,19.182 8.500 C 20.655 11.514,20.091 15.104,17.765 17.530 C 15.849 19.527,13.091 20.387,10.380 19.833 C 9.711 19.697,9.029 19.450,8.270 19.070 L 7.559 18.715 6.113 19.037 C 5.317 19.214,4.660 19.354,4.653 19.347 C 4.646 19.340,4.786 18.682,4.963 17.884 L 5.286 16.435 4.924 15.707 C 4.724 15.307,4.497 14.786,4.418 14.548 C 3.482 11.716,4.171 8.630,6.217 6.489 C 7.919 4.708,10.304 3.813,12.740 4.041 M7.013 12.353 C 7.137 14.101,8.219 15.715,9.776 16.476 C 10.526 16.842,11.134 16.980,12.000 16.980 C 12.676 16.980,12.973 16.936,13.539 16.753 C 15.470 16.127,16.843 14.374,16.987 12.353 L 17.012 12.000 16.006 12.000 L 15.000 12.000 15.000 12.116 C 15.000 12.399,14.865 12.919,14.704 13.260 C 14.373 13.959,13.823 14.493,13.151 14.766 C 11.642 15.380,9.987 14.733,9.298 13.260 C 9.112 12.861,9.057 12.670,9.017 12.270 L 8.989 12.000 7.988 12.000 L 6.988 12.000 7.013 12.353 " stroke="none" fill-rule="evenodd" fill="black"></path></svg>