<svg viewBox="0 0 24 24" xmlns="http://www.w3.org/2000/svg"><path d="M2.110 2.110 L 1.400 2.821 1.754 3.174 L 2.108 3.527 2.054 3.684 C 2.009 3.815,2.002 5.401,2.010 13.163 L 2.020 22.485 4.237 20.742 L 6.454 19.000 12.017 19.000 L 17.580 19.000 19.380 20.800 L 21.181 22.600 21.890 21.890 L 22.600 21.180 12.710 11.290 L 2.820 1.400 2.110 2.110 M8.220 4.000 L 9.219 5.000 14.610 5.000 L 20.000 5.000 20.000 10.390 L 20.000 15.781 21.000 16.780 L 22.000 17.779 22.000 10.817 C 22.000 2.999,22.025 3.623,21.701 3.299 C 21.377 2.975,22.001 3.000,14.183 3.000 L 7.221 3.000 8.220 4.000 M10.661 16.990 L 5.761 17.000 4.897 17.680 C 4.422 18.054,4.026 18.360,4.017 18.360 C 4.008 18.360,4.000 15.449,4.000 11.890 L 4.000 5.420 9.780 11.200 L 15.560 16.980 10.661 16.990 " stroke="none" fill-rule="evenodd" fill="black"></path></svg>