<svg viewBox="0 0 24 24" xmlns="http://www.w3.org/2000/svg"><path d="M9.200 3.044 C 6.467 3.307,4.006 5.031,2.800 7.529 C 1.810 9.578,1.736 11.937,2.596 14.090 C 3.703 16.866,6.484 19.213,11.141 21.302 C 11.848 21.618,13.911 22.480,13.964 22.480 C 13.985 22.480,14.000 21.756,14.000 20.740 L 14.000 19.000 14.230 19.000 C 14.839 18.999,15.775 18.832,16.500 18.595 C 19.759 17.529,21.999 14.435,21.999 11.000 C 21.999 7.917,20.217 5.108,17.412 3.773 C 16.587 3.379,15.670 3.129,14.740 3.041 C 14.225 2.993,9.707 2.995,9.200 3.044 M15.060 5.092 C 15.895 5.260,16.667 5.574,17.325 6.014 C 18.693 6.929,19.607 8.332,19.909 9.980 C 19.999 10.468,19.999 11.532,19.909 12.020 C 19.805 12.587,19.653 13.064,19.423 13.545 C 18.584 15.296,17.100 16.463,15.174 16.887 C 14.823 16.964,14.629 16.975,13.391 16.990 L 12.001 17.007 11.991 18.243 L 11.980 19.478 11.160 19.087 C 8.287 17.717,6.386 16.360,5.287 14.897 C 4.075 13.283,3.698 11.213,4.261 9.259 C 4.543 8.279,5.248 7.186,6.045 6.494 C 6.952 5.707,8.008 5.227,9.200 5.059 C 9.791 4.976,14.617 5.003,15.060 5.092 " stroke="none" fill-rule="evenodd" fill="black"></path></svg>