<svg viewBox="0 0 24 24" xmlns="http://www.w3.org/2000/svg"><path d="M2.664 3.063 C 2.436 3.146,2.257 3.297,2.131 3.511 L 2.020 3.700 2.010 13.093 C 2.002 20.401,2.010 22.479,2.047 22.455 C 2.074 22.439,3.076 21.655,4.275 20.713 L 6.454 19.000 13.800 19.000 C 22.047 19.000,21.377 19.025,21.701 18.701 C 22.025 18.377,22.000 19.023,22.000 11.000 C 22.000 2.977,22.025 3.623,21.701 3.299 C 21.375 2.972,22.267 3.000,11.983 3.003 C 4.135 3.005,2.798 3.014,2.664 3.063 M13.000 6.561 C 13.000 7.061,13.008 7.125,13.070 7.143 C 13.596 7.301,14.180 7.615,14.599 7.966 L 14.869 8.191 15.125 8.044 C 15.265 7.963,15.482 7.838,15.606 7.768 L 15.832 7.639 16.316 8.478 C 16.582 8.939,16.800 9.332,16.800 9.351 C 16.800 9.370,16.587 9.508,16.327 9.658 L 15.853 9.930 15.914 10.175 C 15.997 10.509,15.997 11.492,15.914 11.826 L 15.852 12.073 16.326 12.345 C 16.587 12.495,16.800 12.633,16.800 12.651 C 16.800 12.669,16.582 13.061,16.316 13.523 L 15.831 14.362 15.566 14.214 C 15.419 14.132,15.202 14.008,15.083 13.938 L 14.866 13.811 14.588 14.045 C 14.163 14.401,13.645 14.678,13.070 14.856 C 13.008 14.875,13.000 14.939,13.000 15.439 L 13.000 16.000 12.000 16.000 L 11.000 16.000 11.000 15.439 C 11.000 14.939,10.992 14.875,10.930 14.856 C 10.355 14.678,9.837 14.401,9.412 14.045 L 9.134 13.811 8.917 13.938 C 8.798 14.008,8.581 14.132,8.434 14.214 L 8.169 14.362 7.684 13.523 C 7.418 13.061,7.200 12.669,7.200 12.651 C 7.200 12.633,7.413 12.495,7.674 12.345 L 8.148 12.073 8.086 11.826 C 8.003 11.491,8.003 10.509,8.086 10.174 L 8.147 9.928 7.674 9.660 C 7.413 9.512,7.200 9.375,7.200 9.354 C 7.200 9.333,7.418 8.939,7.684 8.478 L 8.168 7.639 8.394 7.768 C 8.518 7.838,8.735 7.963,8.875 8.044 L 9.131 8.191 9.401 7.966 C 9.820 7.615,10.404 7.301,10.930 7.143 C 10.992 7.125,11.000 7.061,11.000 6.561 L 11.000 6.000 12.000 6.000 L 13.000 6.000 13.000 6.561 M11.580 9.047 C 10.707 9.214,10.000 10.087,10.000 11.000 C 10.000 11.920,10.690 12.768,11.592 12.956 C 12.816 13.211,14.000 12.249,14.000 11.000 C 14.000 10.477,13.790 9.983,13.404 9.596 C 12.913 9.106,12.277 8.914,11.580 9.047 " stroke="none" fill-rule="evenodd" fill="black"></path></svg>