<svg viewBox="0 0 24 24" xmlns="http://www.w3.org/2000/svg"><path d="M2.664 3.063 C 2.436 3.146,2.257 3.297,2.131 3.511 L 2.020 3.700 2.010 13.093 C 2.002 20.401,2.010 22.479,2.047 22.455 C 2.074 22.439,3.076 21.655,4.275 20.713 L 6.454 19.000 9.227 19.000 L 12.000 19.000 12.000 18.000 L 12.000 17.000 8.881 17.000 L 5.762 17.000 4.898 17.680 C 4.422 18.054,4.026 18.360,4.017 18.360 C 4.008 18.360,4.000 15.354,4.000 11.680 L 4.000 5.000 12.000 5.000 L 20.000 5.000 20.000 8.500 L 20.000 12.000 21.000 12.000 L 22.000 12.000 22.000 7.927 C 22.000 3.346,22.017 3.615,21.701 3.299 C 21.375 2.972,22.267 3.000,11.983 3.003 C 4.135 3.005,2.798 3.014,2.664 3.063 M16.991 13.565 L 16.980 14.130 16.720 14.218 C 16.229 14.385,15.771 14.649,15.357 15.003 L 15.134 15.193 14.877 15.045 C 14.736 14.963,14.518 14.838,14.394 14.767 L 14.167 14.638 13.698 15.447 C 13.440 15.892,13.221 16.286,13.211 16.322 C 13.198 16.372,13.305 16.452,13.640 16.640 C 13.886 16.778,14.095 16.913,14.106 16.941 C 14.116 16.968,14.097 17.139,14.062 17.320 C 14.028 17.501,14.000 17.807,14.000 18.000 C 14.000 18.193,14.028 18.499,14.062 18.680 C 14.097 18.861,14.116 19.032,14.105 19.060 C 14.095 19.088,13.887 19.225,13.643 19.364 C 13.399 19.503,13.200 19.633,13.200 19.653 C 13.200 19.689,14.102 21.271,14.156 21.330 C 14.171 21.346,14.397 21.236,14.658 21.085 L 15.133 20.810 15.412 21.044 C 15.837 21.401,16.355 21.678,16.930 21.856 C 16.992 21.875,17.000 21.939,17.000 22.439 L 17.000 23.000 18.000 23.000 L 19.000 23.000 19.000 22.439 C 19.000 21.939,19.008 21.875,19.070 21.856 C 19.644 21.679,20.163 21.401,20.587 21.046 L 20.864 20.813 21.341 21.086 C 21.603 21.235,21.830 21.345,21.845 21.329 C 21.898 21.271,22.800 19.689,22.800 19.653 C 22.800 19.633,22.601 19.503,22.357 19.364 C 22.113 19.225,21.906 19.089,21.896 19.063 C 21.885 19.036,21.905 18.856,21.939 18.662 C 21.972 18.468,22.000 18.170,22.000 18.000 C 22.000 17.830,21.972 17.532,21.939 17.338 C 21.905 17.144,21.885 16.965,21.894 16.940 C 21.904 16.915,22.112 16.780,22.356 16.641 C 22.600 16.501,22.800 16.369,22.800 16.348 C 22.800 16.312,21.900 14.731,21.846 14.672 C 21.832 14.657,21.605 14.768,21.343 14.918 L 20.866 15.192 20.597 14.966 C 20.179 14.615,19.598 14.301,19.070 14.143 C 19.008 14.125,19.000 14.061,19.000 13.561 L 19.000 13.000 18.001 13.000 L 17.002 13.000 16.991 13.565 M18.383 16.043 C 19.185 16.190,19.839 16.872,19.967 17.695 C 20.153 18.894,19.209 20.000,18.000 20.000 C 17.032 20.000,16.183 19.268,16.033 18.305 C 15.933 17.663,16.132 17.061,16.596 16.596 C 17.085 16.108,17.698 15.918,18.383 16.043 " stroke="none" fill-rule="evenodd" fill="black"></path></svg>