<svg viewBox="0 0 24 24" xmlns="http://www.w3.org/2000/svg"><path d="M2.664 3.063 C 2.436 3.146,2.257 3.297,2.131 3.511 L 2.020 3.700 2.010 13.093 C 2.002 20.401,2.010 22.479,2.047 22.455 C 2.074 22.439,3.076 21.655,4.275 20.713 L 6.454 19.000 13.800 19.000 C 22.047 19.000,21.377 19.025,21.701 18.701 C 22.025 18.377,22.000 19.023,22.000 11.000 C 22.000 2.977,22.025 3.623,21.701 3.299 C 21.375 2.972,22.267 3.000,11.983 3.003 C 4.135 3.005,2.798 3.014,2.664 3.063 M10.746 7.768 L 10.952 8.096 10.658 8.291 C 10.211 8.588,9.843 8.999,9.625 9.446 C 9.442 9.820,9.320 10.280,9.320 10.593 L 9.320 10.749 9.720 10.769 C 10.078 10.786,10.150 10.803,10.413 10.933 C 10.777 11.113,11.076 11.417,11.252 11.790 C 11.372 12.043,11.380 12.088,11.380 12.500 C 11.380 12.912,11.372 12.957,11.253 13.209 C 10.945 13.858,10.358 14.240,9.665 14.240 C 8.874 14.240,8.209 13.777,7.799 12.940 C 7.602 12.537,7.520 12.129,7.520 11.545 C 7.520 10.756,7.710 10.085,8.123 9.415 C 8.386 8.989,9.125 8.227,9.541 7.952 C 9.902 7.714,10.403 7.441,10.480 7.441 C 10.513 7.440,10.633 7.588,10.746 7.768 M15.746 7.768 L 15.952 8.096 15.658 8.291 C 15.211 8.588,14.843 8.999,14.625 9.446 C 14.442 9.820,14.320 10.280,14.320 10.593 L 14.320 10.749 14.720 10.769 C 15.078 10.786,15.150 10.803,15.413 10.933 C 15.777 11.113,16.076 11.417,16.252 11.790 C 16.372 12.043,16.380 12.088,16.380 12.500 C 16.380 12.912,16.372 12.957,16.253 13.209 C 15.945 13.858,15.358 14.240,14.665 14.240 C 13.874 14.240,13.209 13.777,12.799 12.940 C 12.602 12.537,12.520 12.129,12.520 11.545 C 12.520 10.756,12.710 10.085,13.123 9.415 C 13.386 8.989,14.125 8.227,14.541 7.952 C 14.902 7.714,15.403 7.441,15.480 7.441 C 15.513 7.440,15.633 7.588,15.746 7.768 " stroke="none" fill-rule="evenodd" fill="black"></path></svg>