<svg viewBox="0 0 24 24" xmlns="http://www.w3.org/2000/svg"><path d="M11.120 2.039 C 9.316 2.220,7.707 2.807,6.280 3.806 C 3.483 5.764,1.889 8.960,2.013 12.360 C 2.051 13.404,2.224 14.324,2.566 15.315 C 2.751 15.849,3.224 16.841,3.504 17.280 C 3.786 17.724,4.316 18.419,4.633 18.760 L 4.911 19.060 3.465 20.520 L 2.020 21.980 7.180 21.992 C 10.694 22.000,12.506 21.990,12.860 21.960 C 14.792 21.796,16.610 21.076,18.200 19.845 C 18.637 19.507,19.507 18.637,19.845 18.200 C 21.256 16.378,22.000 14.236,22.000 12.000 C 22.000 7.432,18.842 3.387,14.430 2.303 C 13.446 2.062,12.028 1.948,11.120 2.039 M12.740 4.041 C 15.525 4.302,17.953 5.983,19.182 8.500 C 20.655 11.514,20.091 15.104,17.765 17.530 C 16.446 18.905,14.736 19.745,12.820 19.959 C 12.613 19.982,11.263 19.999,9.641 20.000 L 6.821 20.000 7.291 19.530 L 7.760 19.059 6.956 18.260 C 5.709 17.020,5.309 16.504,4.817 15.500 C 3.349 12.506,3.909 8.904,6.217 6.489 C 7.919 4.708,10.304 3.813,12.740 4.041 M11.000 12.000 L 11.000 18.000 12.000 18.000 L 13.000 18.000 13.000 12.000 L 13.000 6.000 12.000 6.000 L 11.000 6.000 11.000 12.000 M7.000 12.000 L 7.000 15.000 8.000 15.000 L 9.000 15.000 9.000 12.000 L 9.000 9.000 8.000 9.000 L 7.000 9.000 7.000 12.000 M15.000 12.000 L 15.000 15.000 16.000 15.000 L 17.000 15.000 17.000 12.000 L 17.000 9.000 16.000 9.000 L 15.000 9.000 15.000 12.000 " stroke="none" fill-rule="evenodd" fill="black"></path></svg>