<svg viewBox="0 0 24 24" xmlns="http://www.w3.org/2000/svg"><path d="M9.200 3.044 C 6.467 3.307,4.006 5.031,2.800 7.529 C 1.810 9.578,1.736 11.937,2.596 14.090 C 3.703 16.866,6.484 19.213,11.141 21.302 C 11.848 21.618,13.911 22.480,13.964 22.480 C 13.985 22.480,14.000 21.756,14.000 20.740 L 14.000 19.000 14.230 19.000 C 14.839 18.999,15.775 18.832,16.500 18.595 C 19.759 17.529,21.999 14.435,21.999 11.000 C 21.999 7.917,20.217 5.108,17.412 3.773 C 16.587 3.379,15.670 3.129,14.740 3.041 C 14.225 2.993,9.707 2.995,9.200 3.044 " stroke="none" fill-rule="evenodd" fill="black"></path></svg>