<svg viewBox="0 0 24 24" xmlns="http://www.w3.org/2000/svg"><path d="M11.120 2.039 C 9.316 2.220,7.707 2.807,6.280 3.806 C 3.483 5.764,1.889 8.960,2.013 12.360 C 2.051 13.404,2.224 14.324,2.566 15.315 C 2.751 15.849,3.224 16.841,3.504 17.280 C 3.786 17.724,4.316 18.419,4.633 18.760 L 4.911 19.060 3.465 20.520 L 2.020 21.980 7.180 21.992 C 10.694 22.000,12.506 21.990,12.860 21.960 C 14.792 21.796,16.610 21.076,18.200 19.845 C 18.637 19.507,19.507 18.637,19.845 18.200 C 21.256 16.378,22.000 14.236,22.000 12.000 C 22.000 7.432,18.842 3.387,14.430 2.303 C 13.446 2.062,12.028 1.948,11.120 2.039 M15.984 13.310 C 15.924 13.994,15.671 14.704,15.288 15.269 C 14.760 16.046,13.946 16.617,13.005 16.871 C 12.669 16.962,12.542 16.975,12.000 16.975 C 11.458 16.975,11.331 16.962,10.995 16.871 C 9.338 16.424,8.167 15.025,8.016 13.310 L 7.989 13.000 12.000 13.000 L 16.011 13.000 15.984 13.310 " stroke="none" fill-rule="evenodd" fill="black"></path></svg>