<svg viewBox="0 0 24 24" xmlns="http://www.w3.org/2000/svg"><path d="M2.664 3.063 C 2.436 3.146,2.257 3.297,2.131 3.511 L 2.020 3.700 2.010 13.093 C 2.002 20.401,2.010 22.479,2.047 22.455 C 2.074 22.439,3.076 21.655,4.275 20.713 L 6.454 19.000 13.800 19.000 C 22.047 19.000,21.377 19.025,21.701 18.701 C 22.025 18.377,22.000 19.023,22.000 11.000 C 22.000 2.977,22.025 3.623,21.701 3.299 C 21.375 2.972,22.267 3.000,11.983 3.003 C 4.135 3.005,2.798 3.014,2.664 3.063 M13.000 9.500 L 13.000 12.000 12.000 12.000 L 11.000 12.000 11.000 9.500 L 11.000 7.000 12.000 7.000 L 13.000 7.000 13.000 9.500 M13.000 14.000 L 13.000 15.000 12.000 15.000 L 11.000 15.000 11.000 14.000 L 11.000 13.000 12.000 13.000 L 13.000 13.000 13.000 14.000 " stroke="none" fill-rule="evenodd" fill="black"></path></svg>