<svg viewBox="0 0 24 24" xmlns="http://www.w3.org/2000/svg"><path d="M8.360 2.025 C 6.375 2.206,4.597 3.052,3.239 4.464 C 2.608 5.120,2.191 5.718,1.800 6.529 C 0.736 8.730,0.736 11.270,1.800 13.471 C 2.064 14.019,2.337 14.455,2.779 15.036 C 3.371 15.814,3.684 16.446,3.889 17.280 C 3.968 17.599,3.974 17.754,3.989 19.810 L 4.005 22.000 8.503 22.000 L 13.000 22.000 13.000 20.500 L 13.000 19.000 14.098 19.000 C 14.745 19.000,15.283 18.982,15.408 18.956 C 16.073 18.817,16.641 18.319,16.892 17.654 C 16.976 17.430,16.981 17.349,17.000 15.742 L 17.020 14.063 18.002 13.642 C 18.542 13.410,19.031 13.189,19.089 13.151 C 19.213 13.070,19.298 12.839,19.261 12.688 C 19.246 12.629,18.720 11.771,18.091 10.782 L 16.949 8.984 16.856 8.502 C 16.378 6.038,14.798 3.962,12.537 2.829 C 11.840 2.480,11.024 2.223,10.220 2.099 C 9.823 2.038,8.705 1.993,8.360 2.025 M20.294 6.466 L 19.488 7.007 19.691 7.334 C 20.290 8.297,20.723 9.503,20.907 10.720 C 21.003 11.356,21.003 12.650,20.906 13.280 C 20.719 14.505,20.321 15.620,19.712 16.627 L 19.491 16.994 20.305 17.537 C 20.753 17.836,21.133 18.080,21.150 18.080 C 21.187 18.079,21.660 17.283,21.853 16.897 C 23.346 13.903,23.376 10.335,21.934 7.280 C 21.678 6.738,21.199 5.919,21.141 5.923 C 21.118 5.924,20.737 6.169,20.294 6.466 " stroke="none" fill-rule="evenodd" fill="black"></path></svg>