<svg fill="currentColor" viewBox="0 0 256 256" xmlns="http://www.w3.org/2000/svg">
  <path d="M156 40a12 12 0 0 1-12 12h-32a12 12 0 0 1 0-24h32a12 12 0 0 1 12 12Zm-12 164h-32a12 12 0 0 0 0 24h32a12 12 0 0 0 0-24Zm64-176h-24a12 12 0 0 0 0 24h20v20a12 12 0 0 0 24 0V48a20 20 0 0 0-20-20Zm8 72a12 12 0 0 0-12 12v32a12 12 0 0 0 24 0v-32a12 12 0 0 0-12-12Zm0 72a12 12 0 0 0-12 12v20h-20a12 12 0 0 0 0 24h24a20 20 0 0 0 20-20v-24a12 12 0 0 0-12-12ZM40 156a12 12 0 0 0 12-12v-32a12 12 0 0 0-24 0v32a12 12 0 0 0 12 12Zm32 48H52v-20a12 12 0 0 0-24 0v24a20 20 0 0 0 20 20h24a12 12 0 0 0 0-24Zm0-176H48a20 20 0 0 0-20 20v24a12 12 0 0 0 24 0V52h20a12 12 0 0 0 0-24Z"/>
</svg>
