<svg viewBox="0 0 24 24" xmlns="http://www.w3.org/2000/svg"><path d="M3.000 8.000 L 3.000 13.000 6.142 13.000 C 8.801 13.000,9.329 12.991,9.579 12.939 C 11.440 12.554,12.485 10.597,11.763 8.846 C 11.648 8.568,11.467 8.268,11.307 8.090 L 11.226 8.000 11.307 7.910 C 11.467 7.732,11.648 7.432,11.763 7.154 C 12.232 6.015,11.969 4.720,11.096 3.870 C 10.800 3.582,10.633 3.469,10.222 3.276 C 9.640 3.004,9.587 3.000,6.095 3.000 L 3.000 3.000 3.000 8.000 M14.000 3.997 L 14.000 5.000 15.573 5.000 C 16.529 5.000,17.238 5.017,17.383 5.043 C 17.959 5.149,18.541 5.594,18.790 6.120 C 18.972 6.505,19.000 6.743,19.000 7.927 L 19.000 9.000 20.003 9.000 L 21.006 9.000 20.991 7.690 C 20.976 6.429,20.971 6.366,20.871 5.995 C 20.549 4.805,19.798 3.914,18.663 3.376 C 17.951 3.039,17.869 3.029,15.810 3.010 L 14.000 2.994 14.000 3.997 M9.340 5.066 C 9.709 5.192,10.000 5.604,10.000 6.000 C 10.000 6.242,9.881 6.521,9.701 6.701 C 9.400 7.002,9.419 7.000,7.073 7.000 L 5.000 7.000 5.000 6.000 L 5.000 5.000 7.073 5.000 C 8.897 5.000,9.169 5.008,9.340 5.066 M9.340 9.066 C 9.709 9.192,10.000 9.604,10.000 10.000 C 10.000 10.242,9.881 10.521,9.701 10.701 C 9.400 11.002,9.419 11.000,7.073 11.000 L 5.000 11.000 5.000 10.000 L 5.000 9.000 7.073 9.000 C 8.897 9.000,9.169 9.008,9.340 9.066 M15.964 10.089 C 15.944 10.139,14.989 12.529,13.840 15.400 C 12.691 18.271,11.718 20.706,11.676 20.810 L 11.601 21.000 12.676 21.000 L 13.752 21.000 14.348 19.510 L 14.944 18.020 16.996 18.020 L 19.048 18.020 19.640 19.500 L 20.232 20.980 21.316 20.991 L 22.400 21.001 22.340 20.851 C 22.307 20.768,21.319 18.297,20.144 15.360 L 18.008 10.020 17.003 10.009 L 15.999 9.999 15.964 10.089 M17.628 14.450 L 18.236 15.980 17.012 15.991 C 16.339 15.996,15.782 15.995,15.775 15.988 C 15.757 15.970,16.975 12.921,17.000 12.921 C 17.011 12.921,17.294 13.609,17.628 14.450 M3.010 16.330 C 3.027 17.630,3.029 17.669,3.135 18.038 C 3.562 19.534,4.717 20.610,6.226 20.917 C 6.599 20.993,6.772 21.000,8.316 21.000 L 10.000 21.000 10.000 20.000 L 10.000 19.000 8.390 19.000 C 6.650 18.999,6.571 18.991,6.125 18.776 C 5.812 18.624,5.364 18.165,5.209 17.836 C 5.022 17.440,5.000 17.252,5.000 16.078 L 5.000 15.000 3.997 15.000 L 2.993 15.000 3.010 16.330 " stroke="none" fill-rule="evenodd" fill="black"></path></svg>