<svg viewBox="0 0 24 24" xmlns="http://www.w3.org/2000/svg"><path d="M18.224 2.329 C 18.190 2.734,18.016 3.269,17.793 3.654 C 17.577 4.026,17.030 4.574,16.651 4.797 C 16.278 5.018,15.707 5.202,15.310 5.230 L 15.000 5.251 15.000 6.000 L 15.000 6.748 15.329 6.776 C 15.734 6.810,16.269 6.984,16.654 7.207 C 17.029 7.424,17.576 7.971,17.793 8.346 C 18.016 8.731,18.190 9.266,18.224 9.671 L 18.252 10.000 19.000 10.000 L 19.748 10.000 19.776 9.671 C 19.810 9.263,19.988 8.715,20.209 8.340 C 20.422 7.977,20.977 7.422,21.340 7.209 C 21.715 6.988,22.263 6.810,22.671 6.776 L 23.000 6.748 23.000 6.000 L 23.000 5.251 22.690 5.230 C 22.293 5.202,21.722 5.018,21.349 4.797 C 20.976 4.578,20.424 4.026,20.209 3.660 C 19.988 3.285,19.810 2.737,19.776 2.329 L 19.748 2.000 19.000 2.000 L 18.252 2.000 18.224 2.329 M5.433 3.043 C 4.861 3.127,4.225 3.377,3.731 3.712 C 2.956 4.239,2.396 5.034,2.129 5.989 L 2.020 6.380 2.020 12.000 L 2.020 17.620 2.131 18.017 C 2.552 19.526,3.707 20.608,5.226 20.917 C 5.627 20.999,5.720 21.000,12.000 21.000 C 18.280 21.000,18.373 20.999,18.774 20.917 C 20.291 20.608,21.460 19.512,21.871 18.012 L 21.979 17.620 21.991 14.810 L 22.003 12.000 21.002 12.000 L 20.000 12.000 20.000 14.573 C 20.000 16.248,19.985 17.228,19.957 17.383 C 19.819 18.138,19.170 18.797,18.408 18.956 C 18.109 19.018,5.891 19.018,5.592 18.956 C 4.830 18.797,4.181 18.138,4.043 17.383 C 3.983 17.051,3.983 6.949,4.043 6.617 C 4.184 5.849,4.849 5.184,5.617 5.043 C 5.776 5.014,7.034 5.000,9.427 5.000 L 13.000 5.000 13.000 4.000 L 13.000 3.000 9.330 3.005 C 7.311 3.008,5.558 3.025,5.433 3.043 " stroke="none" fill-rule="evenodd" fill="black"></path></svg>