<svg viewBox="0 0 24 24" xmlns="http://www.w3.org/2000/svg"><path d="M3.000 5.000 L 3.000 6.000 12.000 6.000 L 21.000 6.000 21.000 5.000 L 21.000 4.000 12.000 4.000 L 3.000 4.000 3.000 5.000 M7.000 10.000 L 7.000 11.000 14.000 11.000 L 21.000 11.000 21.000 10.000 L 21.000 9.000 14.000 9.000 L 7.000 9.000 7.000 10.000 M3.000 15.000 L 3.000 16.000 12.000 16.000 L 21.000 16.000 21.000 15.000 L 21.000 14.000 12.000 14.000 L 3.000 14.000 3.000 15.000 M7.000 20.000 L 7.000 21.000 14.000 21.000 L 21.000 21.000 21.000 20.000 L 21.000 19.000 14.000 19.000 L 7.000 19.000 7.000 20.000 " stroke="none" fill-rule="evenodd" fill="black"></path></svg>