<svg viewBox="0 0 24 24" xmlns="http://www.w3.org/2000/svg"><path d="M3.664 5.063 C 3.436 5.146,3.257 5.297,3.131 5.511 L 3.020 5.700 3.020 9.000 L 3.020 12.300 3.131 12.489 C 3.192 12.592,3.301 12.723,3.374 12.778 C 3.677 13.009,3.491 13.000,7.927 13.000 L 12.004 13.000 11.906 13.130 C 11.595 13.542,11.295 14.214,11.131 14.869 C 11.034 15.256,11.023 15.372,11.023 16.000 C 11.023 16.628,11.034 16.744,11.131 17.131 C 11.324 17.901,11.629 18.533,12.076 19.088 C 12.819 20.012,13.705 20.577,14.869 20.869 C 15.256 20.966,15.372 20.977,16.000 20.977 C 16.628 20.977,16.744 20.966,17.131 20.869 C 19.096 20.376,20.483 18.940,20.907 16.960 C 20.962 16.706,20.980 16.453,20.978 15.960 C 20.976 15.381,20.963 15.247,20.869 14.869 C 20.706 14.216,20.406 13.542,20.094 13.130 C 20.004 13.011,20.002 13.000,20.071 13.000 C 20.246 13.000,20.543 12.859,20.701 12.701 C 21.013 12.390,21.000 12.544,21.000 9.000 C 21.000 5.456,21.013 5.610,20.701 5.299 C 20.376 4.973,21.147 5.000,11.983 5.003 C 5.003 5.005,3.797 5.014,3.664 5.063 M19.000 9.000 L 19.000 11.000 12.000 11.000 L 5.000 11.000 5.000 9.000 L 5.000 7.000 12.000 7.000 L 19.000 7.000 19.000 9.000 M19.000 16.000 L 19.000 17.000 16.000 17.000 L 13.000 17.000 13.000 16.000 L 13.000 15.000 16.000 15.000 L 19.000 15.000 19.000 16.000 " stroke="none" fill-rule="evenodd" fill="black"></path></svg>