<svg viewBox="0 0 24 24" xmlns="http://www.w3.org/2000/svg"><path d="M5.940 5.577 C 5.586 5.658,5.176 5.822,4.864 6.007 C 4.530 6.205,4.008 6.695,3.792 7.012 C 2.863 8.378,2.988 10.159,4.096 11.348 C 5.140 12.469,6.817 12.821,8.250 12.221 C 8.335 12.185,8.327 12.241,8.151 12.940 C 7.654 14.901,6.405 16.453,4.370 17.635 L 4.081 17.803 4.175 17.952 C 4.226 18.033,4.424 18.340,4.615 18.632 C 5.015 19.247,4.919 19.220,5.560 18.899 C 6.644 18.354,7.521 17.722,8.385 16.862 C 10.043 15.212,10.909 13.342,10.988 11.240 C 11.052 9.521,10.656 8.191,9.741 7.052 C 9.146 6.312,8.461 5.857,7.580 5.617 C 7.250 5.527,6.262 5.503,5.940 5.577 M15.940 5.580 C 14.629 5.874,13.628 6.836,13.275 8.140 C 13.206 8.394,13.188 8.571,13.188 9.000 C 13.188 9.429,13.206 9.606,13.275 9.860 C 13.678 11.349,14.940 12.375,16.525 12.502 C 16.962 12.537,17.532 12.466,17.960 12.322 C 18.147 12.259,18.305 12.213,18.312 12.219 C 18.329 12.236,18.205 12.774,18.090 13.180 C 17.577 14.993,16.314 16.506,14.370 17.635 L 14.081 17.803 14.175 17.952 C 14.226 18.033,14.424 18.340,14.615 18.632 C 15.015 19.247,14.919 19.220,15.560 18.899 C 16.644 18.354,17.521 17.722,18.385 16.862 C 20.043 15.212,20.909 13.342,20.988 11.240 C 21.059 9.352,20.578 7.934,19.454 6.720 C 18.928 6.152,18.155 5.729,17.366 5.577 C 17.003 5.506,16.260 5.508,15.940 5.580 " stroke="none" fill-rule="evenodd" fill="black"></path></svg>