<svg viewBox="0 0 24 24" xmlns="http://www.w3.org/2000/svg"><path d="M16.360 3.380 L 14.740 5.000 11.870 5.000 L 9.000 5.000 9.000 4.000 L 9.000 3.000 6.000 3.000 L 3.000 3.000 3.000 6.000 L 3.000 9.000 6.000 9.000 L 9.000 9.000 9.000 8.000 L 9.000 7.000 11.870 7.000 L 14.741 7.000 15.870 8.130 L 17.000 9.261 17.000 12.130 L 17.000 15.000 16.000 15.000 L 15.000 15.000 15.000 16.000 L 15.000 17.001 12.176 16.990 L 9.352 16.980 9.258 16.730 C 8.887 15.744,7.954 14.908,6.899 14.618 C 6.764 14.581,6.431 14.543,6.131 14.531 C 5.679 14.513,5.547 14.522,5.225 14.597 C 3.896 14.904,2.864 15.953,2.578 17.286 C 2.497 17.663,2.497 18.337,2.578 18.714 C 2.954 20.468,4.591 21.659,6.373 21.476 C 7.616 21.349,8.795 20.458,9.242 19.308 L 9.354 19.020 12.177 19.010 L 15.000 18.999 15.000 20.000 L 15.000 21.000 18.000 21.000 L 21.000 21.000 21.000 18.000 L 21.000 15.000 20.000 15.000 L 19.000 15.000 19.000 12.130 L 19.000 9.260 20.630 7.630 L 22.260 6.000 20.140 3.880 C 18.974 2.714,18.011 1.760,18.000 1.760 C 17.989 1.760,17.251 2.489,16.360 3.380 M18.720 5.300 L 19.419 6.000 18.710 6.710 L 18.000 7.420 17.290 6.710 L 16.581 6.000 17.280 5.300 C 17.664 4.915,17.989 4.600,18.000 4.600 C 18.011 4.600,18.336 4.915,18.720 5.300 M7.000 6.000 L 7.000 7.000 6.000 7.000 L 5.000 7.000 5.000 6.000 L 5.000 5.000 6.000 5.000 L 7.000 5.000 7.000 6.000 M6.647 16.652 C 6.912 16.782,7.250 17.125,7.372 17.390 C 7.445 17.547,7.460 17.652,7.460 18.000 C 7.460 18.376,7.449 18.443,7.351 18.641 C 7.061 19.232,6.403 19.581,5.772 19.479 C 5.300 19.402,4.862 19.076,4.651 18.646 C 4.514 18.364,4.480 17.879,4.575 17.552 C 4.695 17.140,5.077 16.740,5.493 16.592 C 5.809 16.479,6.352 16.507,6.647 16.652 M19.000 18.000 L 19.000 19.000 18.000 19.000 L 17.000 19.000 17.000 18.000 L 17.000 17.000 18.000 17.000 L 19.000 17.000 19.000 18.000 " stroke="none" fill-rule="evenodd" fill="black"></path></svg>