<svg viewBox="0 0 24 24" xmlns="http://www.w3.org/2000/svg"><path d="M10.964 3.089 C 10.944 3.139,9.269 7.329,7.240 12.400 C 5.211 17.471,3.518 21.706,3.476 21.810 L 3.401 22.000 4.477 22.000 L 5.552 22.000 6.748 19.010 L 7.944 16.020 12.000 16.020 L 16.056 16.020 17.252 19.010 L 18.448 22.000 19.524 22.000 L 20.599 22.000 20.540 21.850 C 20.507 21.768,18.799 17.497,16.744 12.360 L 13.008 3.020 12.003 3.009 L 10.999 2.999 10.964 3.089 M13.620 9.924 C 14.500 12.125,15.226 13.943,15.233 13.963 C 15.241 13.985,13.959 14.000,12.000 14.000 C 10.041 14.000,8.759 13.985,8.767 13.963 C 8.896 13.607,11.986 5.921,12.000 5.921 C 12.011 5.921,12.740 7.722,13.620 9.924 " stroke="none" fill-rule="evenodd" fill="black"></path></svg>