<svg viewBox="0 0 24 24" xmlns="http://www.w3.org/2000/svg"><path d="M2.000 5.000 L 2.000 6.000 5.000 6.000 L 8.000 6.000 8.000 13.500 L 8.000 21.000 9.000 21.000 L 10.000 21.000 10.000 13.500 L 10.000 6.000 13.000 6.000 L 16.000 6.000 16.000 5.000 L 16.000 4.000 9.000 4.000 L 2.000 4.000 2.000 5.000 M13.000 13.000 L 13.000 14.000 14.500 14.000 L 16.000 14.000 16.000 17.500 L 16.000 21.000 17.000 21.000 L 18.000 21.000 18.000 17.500 L 18.000 14.000 19.500 14.000 L 21.000 14.000 21.000 13.000 L 21.000 12.000 17.000 12.000 L 13.000 12.000 13.000 13.000 " stroke="none" fill-rule="evenodd" fill="black"></path></svg>