<svg viewBox="0 0 24 24" xmlns="http://www.w3.org/2000/svg"><path d="M5.009 5.008 L 5.020 6.017 8.820 8.986 C 10.910 10.619,12.620 11.976,12.620 12.001 C 12.620 12.027,10.910 13.384,8.820 15.017 L 5.020 17.986 5.009 18.993 L 4.999 20.000 11.999 20.000 L 19.000 20.000 19.000 19.000 L 19.000 18.000 13.645 17.990 L 8.290 17.980 12.125 15.006 C 14.234 13.370,15.960 12.018,15.960 12.001 C 15.960 11.983,14.233 10.631,12.123 8.995 L 8.286 6.020 13.643 6.010 L 19.000 6.000 19.000 5.000 L 19.000 4.000 11.999 4.000 L 4.999 4.000 5.009 5.008 " stroke="none" fill-rule="evenodd" fill="black"></path></svg>