<svg viewBox="0 0 24 24" xmlns="http://www.w3.org/2000/svg"><path d="M2.000 12.000 L 2.000 20.000 3.000 20.000 L 4.000 20.000 4.000 16.500 L 4.000 13.000 7.500 13.000 L 11.000 13.000 11.000 16.500 L 11.000 20.000 12.000 20.000 L 13.000 20.000 13.000 12.000 L 13.000 4.000 12.000 4.000 L 11.000 4.000 11.000 7.500 L 11.000 11.000 7.500 11.000 L 4.000 11.000 4.000 7.500 L 4.000 4.000 3.000 4.000 L 2.000 4.000 2.000 12.000 M18.240 8.335 L 17.020 8.664 17.009 9.692 C 17.001 10.501,17.009 10.720,17.049 10.719 C 17.077 10.718,17.523 10.603,18.040 10.464 L 18.980 10.210 18.990 15.105 L 19.000 20.000 20.000 20.000 L 21.000 20.000 21.000 14.000 L 21.000 8.000 20.230 8.003 L 19.460 8.006 18.240 8.335 " stroke="none" fill-rule="evenodd" fill="black"></path></svg>