<svg viewBox="0 0 24 24" xmlns="http://www.w3.org/2000/svg"><path d="M2.000 12.000 L 2.000 20.000 3.000 20.000 L 4.000 20.000 4.000 16.500 L 4.000 13.000 7.500 13.000 L 11.000 13.000 11.000 16.500 L 11.000 20.000 12.000 20.000 L 13.000 20.000 13.000 12.000 L 13.000 4.000 12.000 4.000 L 11.000 4.000 11.000 7.500 L 11.000 11.000 7.500 11.000 L 4.000 11.000 4.000 7.500 L 4.000 4.000 3.000 4.000 L 2.000 4.000 2.000 12.000 M17.940 8.042 C 17.167 8.162,16.417 8.543,15.858 9.099 C 15.219 9.735,14.831 10.562,14.772 11.410 L 14.748 11.760 15.748 11.760 L 16.749 11.760 16.771 11.550 C 16.837 10.920,17.275 10.353,17.880 10.115 C 18.213 9.983,18.774 9.986,19.112 10.120 C 19.580 10.305,19.946 10.665,20.129 11.120 C 20.201 11.298,20.218 11.420,20.219 11.762 C 20.221 12.464,20.324 12.320,17.462 15.612 L 15.000 18.443 15.000 19.222 L 15.000 20.000 18.500 20.000 L 22.000 20.000 22.000 19.000 L 22.000 18.001 20.026 17.990 L 18.052 17.980 19.690 16.100 C 20.591 15.066,21.410 14.112,21.509 13.980 C 21.748 13.661,21.975 13.202,22.107 12.771 C 22.204 12.455,22.215 12.357,22.217 11.780 C 22.220 11.086,22.178 10.850,21.958 10.307 C 21.729 9.746,21.296 9.176,20.820 8.811 C 20.459 8.534,19.827 8.221,19.420 8.118 C 19.050 8.024,18.301 7.985,17.940 8.042 " stroke="none" fill-rule="evenodd" fill="black"></path></svg>