<svg viewBox="0 0 24 24" xmlns="http://www.w3.org/2000/svg"><path d="M2.000 12.000 L 2.000 20.000 3.000 20.000 L 4.000 20.000 4.000 16.500 L 4.000 13.000 7.500 13.000 L 11.000 13.000 11.000 16.500 L 11.000 20.000 12.000 20.000 L 13.000 20.000 13.000 12.000 L 13.000 4.000 12.000 4.000 L 11.000 4.000 11.000 7.500 L 11.000 11.000 7.500 11.000 L 4.000 11.000 4.000 7.500 L 4.000 4.000 3.000 4.000 L 2.000 4.000 2.000 12.000 M17.379 11.669 C 16.213 13.686,15.085 15.643,14.870 16.017 L 14.480 16.697 14.480 17.349 L 14.480 18.000 17.240 18.000 L 20.000 18.000 20.000 19.000 L 20.000 20.000 21.000 20.000 L 22.000 20.000 22.000 19.000 L 22.000 18.000 22.760 18.000 L 23.520 18.000 23.520 17.000 L 23.520 16.000 22.760 16.000 L 22.000 16.000 22.000 12.000 L 22.000 8.000 20.749 8.000 L 19.497 8.000 17.379 11.669 M19.986 15.987 C 19.979 15.995,19.349 15.996,18.588 15.991 L 17.204 15.980 18.592 13.575 L 19.980 11.170 19.990 13.571 C 19.996 14.892,19.994 15.979,19.986 15.987 " stroke="none" fill-rule="evenodd" fill="black"></path></svg>