<svg viewBox="0 0 24 24" xmlns="http://www.w3.org/2000/svg"><path d="M11.340 1.046 C 10.849 1.108,10.317 1.273,9.820 1.517 C 8.374 2.226,7.390 3.510,7.075 5.100 C 7.002 5.468,7.002 6.532,7.075 6.900 C 7.482 8.953,9.047 10.518,11.100 10.925 C 11.468 10.998,12.532 10.998,12.900 10.925 C 14.723 10.564,16.191 9.273,16.753 7.539 C 16.940 6.961,16.980 6.680,16.978 5.960 C 16.976 5.381,16.963 5.247,16.869 4.869 C 16.678 4.104,16.374 3.473,15.926 2.912 C 14.822 1.527,13.090 0.823,11.340 1.046 M13.000 4.000 L 13.000 5.000 14.000 5.000 L 15.000 5.000 15.000 6.000 L 15.000 7.000 14.000 7.000 L 13.000 7.000 13.000 8.000 L 13.000 9.000 12.000 9.000 L 11.000 9.000 11.000 8.000 L 11.000 7.000 10.000 7.000 L 9.000 7.000 9.000 6.000 L 9.000 5.000 10.000 5.000 L 11.000 5.000 11.000 4.000 L 11.000 3.000 12.000 3.000 L 13.000 3.000 13.000 4.000 M3.664 13.063 C 3.436 13.146,3.257 13.297,3.131 13.511 L 3.020 13.700 3.020 17.000 L 3.020 20.300 3.131 20.489 C 3.192 20.592,3.301 20.723,3.374 20.778 C 3.684 21.015,3.106 21.000,11.998 21.000 C 21.144 21.000,20.376 21.026,20.701 20.701 C 21.013 20.390,21.000 20.544,21.000 17.000 C 21.000 13.456,21.013 13.610,20.701 13.299 C 20.376 12.973,21.147 13.000,11.983 13.003 C 5.003 13.005,3.797 13.014,3.664 13.063 M19.000 17.000 L 19.000 19.000 12.000 19.000 L 5.000 19.000 5.000 17.000 L 5.000 15.000 12.000 15.000 L 19.000 15.000 19.000 17.000 " stroke="none" fill-rule="evenodd" fill="black"></path></svg>