<svg viewBox="0 0 24 24" xmlns="http://www.w3.org/2000/svg"><path d="M5.840 3.061 C 5.005 3.192,4.234 3.604,3.609 4.255 C 3.088 4.798,2.743 5.452,2.573 6.219 C 2.491 6.591,2.491 7.409,2.573 7.781 C 2.938 9.432,4.201 10.655,5.835 10.941 C 6.897 11.127,8.065 10.840,8.913 10.185 C 9.926 9.402,10.492 8.258,10.489 7.000 C 10.487 5.932,10.119 5.014,9.391 4.255 C 8.449 3.274,7.188 2.850,5.840 3.061 M13.000 5.000 L 13.000 6.000 17.000 6.000 L 21.000 6.000 21.000 5.000 L 21.000 4.000 17.000 4.000 L 13.000 4.000 13.000 5.000 M6.956 5.062 C 7.669 5.230,8.278 5.829,8.437 6.520 C 8.490 6.751,8.490 7.249,8.437 7.480 C 8.280 8.161,7.687 8.754,6.978 8.939 C 5.970 9.201,4.881 8.575,4.584 7.563 C 4.547 7.438,4.520 7.199,4.520 7.000 C 4.520 6.422,4.704 5.975,5.103 5.582 C 5.595 5.098,6.287 4.904,6.956 5.062 M6.240 6.035 C 6.042 6.100,5.892 6.197,5.752 6.352 C 5.307 6.845,5.480 7.617,6.100 7.906 C 6.489 8.087,6.943 7.986,7.245 7.652 C 7.580 7.280,7.581 6.721,7.248 6.352 C 7.170 6.265,7.034 6.158,6.946 6.113 C 6.771 6.024,6.399 5.983,6.240 6.035 M13.000 12.000 L 13.000 13.000 17.000 13.000 L 21.000 13.000 21.000 12.000 L 21.000 11.000 17.000 11.000 L 13.000 11.000 13.000 12.000 M5.840 13.061 C 5.005 13.192,4.234 13.604,3.609 14.255 C 3.088 14.798,2.743 15.452,2.573 16.219 C 2.491 16.591,2.491 17.409,2.573 17.781 C 2.938 19.432,4.201 20.655,5.835 20.941 C 6.897 21.127,8.065 20.840,8.913 20.185 C 9.926 19.402,10.492 18.258,10.489 17.000 C 10.487 15.932,10.119 15.014,9.391 14.255 C 8.449 13.274,7.188 12.850,5.840 13.061 M6.956 15.062 C 7.669 15.230,8.278 15.829,8.437 16.520 C 8.490 16.751,8.490 17.249,8.437 17.480 C 8.280 18.161,7.687 18.754,6.978 18.939 C 5.970 19.201,4.881 18.575,4.584 17.563 C 4.547 17.438,4.520 17.199,4.520 17.000 C 4.520 16.422,4.704 15.975,5.103 15.582 C 5.595 15.098,6.287 14.904,6.956 15.062 M13.000 19.000 L 13.000 20.000 17.000 20.000 L 21.000 20.000 21.000 19.000 L 21.000 18.000 17.000 18.000 L 13.000 18.000 13.000 19.000 " stroke="none" fill-rule="evenodd" fill="black"></path></svg>