<svg viewBox="0 0 24 24" xmlns="http://www.w3.org/2000/svg"><path d="M3.000 7.000 L 3.000 10.000 6.000 10.000 L 9.000 10.000 9.000 7.000 L 9.000 4.000 6.000 4.000 L 3.000 4.000 3.000 7.000 M11.000 5.000 L 11.000 6.000 16.000 6.000 L 21.000 6.000 21.000 5.000 L 21.000 4.000 16.000 4.000 L 11.000 4.000 11.000 5.000 M7.000 7.000 L 7.000 8.000 6.000 8.000 L 5.000 8.000 5.000 7.000 L 5.000 6.000 6.000 6.000 L 7.000 6.000 7.000 7.000 M11.000 9.000 L 11.000 10.000 14.000 10.000 L 17.000 10.000 17.000 9.000 L 17.000 8.000 14.000 8.000 L 11.000 8.000 11.000 9.000 M3.000 17.000 L 3.000 20.000 6.000 20.000 L 9.000 20.000 9.000 17.000 L 9.000 14.000 6.000 14.000 L 3.000 14.000 3.000 17.000 M11.000 15.000 L 11.000 16.000 16.000 16.000 L 21.000 16.000 21.000 15.000 L 21.000 14.000 16.000 14.000 L 11.000 14.000 11.000 15.000 M7.000 17.000 L 7.000 18.000 6.000 18.000 L 5.000 18.000 5.000 17.000 L 5.000 16.000 6.000 16.000 L 7.000 16.000 7.000 17.000 M11.000 19.000 L 11.000 20.000 14.000 20.000 L 17.000 20.000 17.000 19.000 L 17.000 18.000 14.000 18.000 L 11.000 18.000 11.000 19.000 " stroke="none" fill-rule="evenodd" fill="black"></path></svg>