<svg viewBox="0 0 24 24" xmlns="http://www.w3.org/2000/svg"><path d="M3.000 3.500 L 3.000 4.000 3.500 4.000 L 4.000 4.000 4.000 5.000 L 4.000 6.000 3.500 6.000 L 3.000 6.000 3.000 6.500 L 3.000 7.000 4.500 7.000 L 6.000 7.000 6.000 6.500 L 6.000 6.000 5.500 6.000 L 5.000 6.000 5.000 4.500 L 5.000 3.000 4.000 3.000 L 3.000 3.000 3.000 3.500 M8.000 5.000 L 8.000 6.000 14.500 6.000 L 21.000 6.000 21.000 5.000 L 21.000 4.000 14.500 4.000 L 8.000 4.000 8.000 5.000 M3.000 10.500 L 3.000 11.000 4.000 11.000 L 5.000 11.000 5.000 11.260 L 5.000 11.520 4.000 11.520 L 3.000 11.520 3.000 12.760 L 3.000 14.000 4.500 14.000 L 6.000 14.000 6.000 13.500 L 6.000 13.000 5.000 13.000 L 4.000 13.000 4.000 12.760 L 4.000 12.520 5.000 12.520 L 6.000 12.520 6.000 11.260 L 6.000 10.000 4.500 10.000 L 3.000 10.000 3.000 10.500 M8.000 12.000 L 8.000 13.000 14.500 13.000 L 21.000 13.000 21.000 12.000 L 21.000 11.000 14.500 11.000 L 8.000 11.000 8.000 12.000 M3.000 17.500 L 3.000 18.000 4.000 18.000 L 5.000 18.000 5.000 18.260 L 5.000 18.520 4.000 18.520 L 3.000 18.520 3.000 19.020 L 3.000 19.520 4.000 19.520 L 5.000 19.520 5.000 19.760 L 5.000 20.000 4.000 20.000 L 3.000 20.000 3.000 20.500 L 3.000 21.000 4.500 21.000 L 6.000 21.000 6.000 19.000 L 6.000 17.000 4.500 17.000 L 3.000 17.000 3.000 17.500 M8.000 19.000 L 8.000 20.000 14.500 20.000 L 21.000 20.000 21.000 19.000 L 21.000 18.000 14.500 18.000 L 8.000 18.000 8.000 19.000 " stroke="none" fill-rule="evenodd" fill="black"></path></svg>