<svg viewBox="0 0 24 24" xmlns="http://www.w3.org/2000/svg"><path d="M3.000 7.500 L 3.000 11.000 6.500 11.000 L 10.000 11.000 10.000 7.500 L 10.000 4.000 6.500 4.000 L 3.000 4.000 3.000 7.500 M13.000 5.000 L 13.000 6.000 17.000 6.000 L 21.000 6.000 21.000 5.000 L 21.000 4.000 17.000 4.000 L 13.000 4.000 13.000 5.000 M8.000 7.500 L 8.000 9.000 6.500 9.000 L 5.000 9.000 5.000 7.500 L 5.000 6.000 6.500 6.000 L 8.000 6.000 8.000 7.500 M13.000 12.000 L 13.000 13.000 17.000 13.000 L 21.000 13.000 21.000 12.000 L 21.000 11.000 17.000 11.000 L 13.000 11.000 13.000 12.000 M7.650 16.450 L 6.000 18.100 5.100 17.200 L 4.200 16.300 3.500 17.000 L 2.800 17.700 4.400 19.300 L 6.000 20.900 8.350 18.550 L 10.700 16.200 10.000 15.500 L 9.300 14.800 7.650 16.450 M13.000 19.000 L 13.000 20.000 17.000 20.000 L 21.000 20.000 21.000 19.000 L 21.000 18.000 17.000 18.000 L 13.000 18.000 13.000 19.000 " stroke="none" fill-rule="evenodd" fill="black"></path></svg>