<svg viewBox="0 0 24 24" xmlns="http://www.w3.org/2000/svg"><path d="M3.664 3.063 C 3.436 3.146,3.257 3.297,3.131 3.511 L 3.020 3.700 3.020 12.000 L 3.020 20.300 3.131 20.489 C 3.192 20.592,3.301 20.723,3.374 20.778 C 3.684 21.015,3.106 21.000,11.998 21.000 C 21.144 21.000,20.376 21.026,20.701 20.701 C 21.026 20.376,21.000 21.144,21.000 12.000 C 21.000 2.856,21.026 3.624,20.701 3.299 C 20.376 2.973,21.147 3.000,11.983 3.003 C 5.003 3.005,3.797 3.014,3.664 3.063 M11.000 5.999 L 11.000 6.999 10.020 7.009 L 9.040 7.020 10.530 8.510 L 12.020 10.000 13.520 8.500 L 15.020 7.000 14.010 7.000 L 13.000 7.000 13.000 6.000 L 13.000 5.000 16.000 5.000 L 19.000 5.000 19.000 8.000 L 19.000 11.000 18.000 11.000 L 17.000 11.000 17.000 12.000 L 17.000 13.000 18.000 13.000 L 19.000 13.000 19.000 16.000 L 19.000 19.000 16.000 19.000 L 13.000 19.000 13.000 18.000 L 13.000 17.000 14.010 17.000 L 15.020 17.000 13.520 15.500 L 12.020 14.000 10.530 15.490 L 9.040 16.980 10.020 16.991 L 11.000 17.001 11.000 18.001 L 11.000 19.000 8.000 19.000 L 5.000 19.000 5.000 16.000 L 5.000 13.000 6.000 13.000 L 7.000 13.000 7.000 12.000 L 7.000 11.000 6.000 11.000 L 5.000 11.000 5.000 8.000 L 5.000 5.000 8.000 5.000 L 11.000 5.000 11.000 5.999 M9.000 12.000 L 9.000 13.000 10.000 13.000 L 11.000 13.000 11.000 12.000 L 11.000 11.000 10.000 11.000 L 9.000 11.000 9.000 12.000 M13.000 12.000 L 13.000 13.000 14.000 13.000 L 15.000 13.000 15.000 12.000 L 15.000 11.000 14.000 11.000 L 13.000 11.000 13.000 12.000 " stroke="none" fill-rule="evenodd" fill="black"></path></svg>