<svg viewBox="0 0 24 24" xmlns="http://www.w3.org/2000/svg"><path d="M9.452 7.410 C 7.735 10.386,6.257 12.966,6.168 13.143 C 4.828 15.817,5.564 19.139,7.920 21.050 C 9.616 22.425,11.917 22.852,14.005 22.177 C 15.925 21.556,17.468 20.045,18.134 18.133 C 18.811 16.187,18.540 14.104,17.384 12.360 C 17.009 11.793,16.214 10.996,15.660 10.629 C 14.942 10.155,14.137 9.813,13.304 9.630 C 12.951 9.553,12.786 9.542,12.000 9.543 C 11.336 9.544,11.021 9.562,10.800 9.609 C 10.635 9.643,10.494 9.666,10.486 9.659 C 10.479 9.652,11.458 7.939,12.662 5.853 C 13.866 3.767,14.858 2.046,14.868 2.030 C 14.877 2.014,14.365 2.000,13.729 2.000 L 12.574 2.000 9.452 7.410 M12.805 11.579 C 14.614 11.895,16.105 13.386,16.421 15.195 C 16.542 15.883,16.478 16.802,16.267 17.420 C 15.636 19.268,13.940 20.488,12.000 20.492 C 10.070 20.495,8.364 19.267,7.733 17.420 C 7.446 16.580,7.447 15.418,7.735 14.573 C 7.950 13.944,8.361 13.281,8.821 12.821 C 9.438 12.204,10.332 11.732,11.173 11.579 C 11.567 11.508,12.398 11.508,12.805 11.579 " stroke="none" fill-rule="evenodd" fill="black"></path></svg>