<svg viewBox="0 0 24 24" xmlns="http://www.w3.org/2000/svg"><path d="M6.480 3.000 L 6.480 4.000 10.659 4.010 L 14.838 4.020 11.958 7.452 L 9.077 10.884 9.380 11.416 C 9.809 12.170,9.738 12.112,10.043 11.959 C 11.021 11.464,12.369 11.374,13.420 11.733 C 14.938 12.252,16.013 13.456,16.407 15.080 C 16.442 15.224,16.459 15.549,16.458 16.020 C 16.455 16.667,16.444 16.779,16.350 17.128 C 15.949 18.614,14.857 19.772,13.400 20.255 C 12.835 20.443,12.428 20.496,11.784 20.468 C 10.596 20.415,9.577 19.952,8.755 19.091 C 8.279 18.592,7.872 17.905,7.702 17.315 L 7.637 17.090 6.679 17.330 C 5.876 17.531,5.720 17.582,5.720 17.641 C 5.720 17.760,5.997 18.519,6.172 18.880 C 6.701 19.969,7.689 21.020,8.752 21.627 C 10.423 22.579,12.329 22.758,14.136 22.133 C 15.724 21.584,17.053 20.415,17.813 18.898 C 19.403 15.724,18.120 11.827,14.958 10.224 C 14.402 9.942,13.768 9.721,13.220 9.619 C 13.022 9.582,12.854 9.546,12.846 9.539 C 12.838 9.531,13.995 8.139,15.416 6.444 L 18.000 3.363 18.000 2.682 L 18.000 2.000 12.240 2.000 L 6.480 2.000 6.480 3.000 " stroke="none" fill-rule="evenodd" fill="black"></path></svg>