<svg viewBox="0 0 24 24" xmlns="http://www.w3.org/2000/svg"><path d="M9.000 9.191 L 4.020 16.860 4.008 17.430 L 3.996 18.000 8.998 18.000 L 14.000 18.000 14.000 20.000 L 14.000 22.000 15.000 22.000 L 16.000 22.000 16.000 20.000 L 16.000 18.000 17.500 18.000 L 19.000 18.000 19.000 17.000 L 19.000 16.000 17.500 16.000 L 16.000 16.000 16.000 8.760 L 16.000 1.520 14.990 1.521 L 13.980 1.522 9.000 9.191 M14.000 10.600 L 14.000 16.000 10.500 16.000 C 8.575 16.000,7.000 15.990,7.000 15.977 C 7.000 15.952,13.973 5.201,13.990 5.201 C 13.995 5.200,14.000 7.630,14.000 10.600 " stroke="none" fill-rule="evenodd" fill="black"></path></svg>