<svg viewBox="0 0 24 24" xmlns="http://www.w3.org/2000/svg"><path d="M11.060 1.583 C 10.092 1.753,9.141 2.210,8.373 2.874 C 6.743 4.283,6.100 6.626,6.775 8.689 C 7.086 9.637,7.677 10.539,8.376 11.132 L 8.639 11.355 8.290 11.583 C 6.820 12.541,5.860 13.956,5.579 15.580 C 5.481 16.151,5.489 16.976,5.598 17.532 C 5.960 19.365,7.155 20.896,8.900 21.759 C 10.072 22.339,11.272 22.578,12.510 22.478 C 13.484 22.399,14.218 22.195,15.100 21.759 C 16.845 20.896,18.040 19.365,18.402 17.532 C 18.511 16.976,18.519 16.151,18.421 15.580 C 18.141 13.961,17.174 12.536,15.710 11.583 L 15.361 11.355 15.624 11.132 C 16.323 10.539,16.914 9.637,17.225 8.689 C 17.900 6.627,17.256 4.282,15.627 2.874 C 14.851 2.202,13.895 1.746,12.923 1.583 C 12.458 1.505,11.506 1.505,11.060 1.583 M12.721 3.580 C 13.389 3.721,13.951 4.031,14.460 4.540 C 15.156 5.236,15.480 6.017,15.480 7.000 C 15.480 7.970,15.157 8.758,14.480 9.441 C 13.763 10.166,13.000 10.487,12.000 10.487 C 11.000 10.487,10.237 10.166,9.520 9.441 C 9.030 8.947,8.718 8.375,8.580 7.721 C 8.503 7.354,8.503 6.646,8.580 6.278 C 8.858 4.959,9.936 3.871,11.249 3.583 C 11.594 3.507,12.368 3.506,12.721 3.580 M12.852 12.580 C 13.811 12.747,14.627 13.154,15.294 13.797 C 15.666 14.155,15.890 14.459,16.115 14.909 C 16.398 15.474,16.460 15.761,16.460 16.500 C 16.460 17.239,16.398 17.526,16.115 18.091 C 15.885 18.551,15.664 18.849,15.275 19.220 C 14.401 20.055,13.291 20.489,12.020 20.492 C 11.403 20.494,11.047 20.439,10.480 20.256 C 9.747 20.020,9.262 19.734,8.725 19.220 C 8.336 18.849,8.115 18.551,7.885 18.091 C 7.602 17.526,7.540 17.239,7.540 16.500 C 7.540 15.761,7.602 15.474,7.885 14.909 C 8.110 14.459,8.334 14.155,8.706 13.797 C 9.361 13.165,10.182 12.751,11.117 12.582 C 11.531 12.507,12.429 12.506,12.852 12.580 " stroke="none" fill-rule="evenodd" fill="black"></path></svg>