<svg viewBox="0 0 24 24" xmlns="http://www.w3.org/2000/svg"><path d="M9.200 4.060 C 8.263 4.189,7.446 4.499,6.660 5.025 C 5.348 5.901,4.469 7.213,4.111 8.830 C 4.039 9.156,4.024 9.347,4.024 10.000 C 4.024 10.859,4.077 11.201,4.319 11.925 C 5.081 14.198,7.203 15.829,9.605 15.986 L 10.000 16.012 10.000 18.506 L 10.000 21.000 11.000 21.000 L 12.000 21.000 12.000 13.500 L 12.000 6.000 13.500 6.000 L 15.000 6.000 15.000 13.500 L 15.000 21.000 16.000 21.000 L 17.000 21.000 17.000 13.500 L 17.000 6.000 18.500 6.000 L 20.000 6.000 20.000 5.000 L 20.000 4.000 14.790 4.004 C 10.745 4.007,9.495 4.020,9.200 4.060 M10.000 10.006 L 10.000 14.012 9.690 13.988 C 8.503 13.895,7.374 13.243,6.712 12.269 C 6.471 11.913,6.214 11.341,6.113 10.938 C 5.987 10.429,5.987 9.571,6.113 9.062 C 6.284 8.376,6.679 7.675,7.177 7.177 C 7.872 6.482,8.891 6.032,9.830 6.005 L 10.000 6.000 10.000 10.006 " stroke="none" fill-rule="evenodd" fill="black"></path></svg>