<svg viewBox="0 0 24 24" xmlns="http://www.w3.org/2000/svg"><path d="M3.664 3.063 C 3.436 3.146,3.257 3.297,3.131 3.511 L 3.020 3.700 3.009 7.413 C 3.002 9.908,3.012 11.176,3.040 11.281 C 3.102 11.509,3.313 11.761,3.539 11.878 C 3.736 11.979,3.745 11.980,4.868 11.992 L 5.998 12.004 6.009 14.652 L 6.020 17.300 6.131 17.489 C 6.192 17.592,6.301 17.723,6.374 17.778 C 6.668 18.003,6.631 18.000,9.423 18.000 L 11.995 18.000 12.008 19.150 L 12.020 20.300 12.131 20.489 C 12.192 20.592,12.301 20.723,12.374 20.778 C 12.675 21.008,12.531 21.000,16.498 21.000 C 20.604 21.000,20.387 21.015,20.701 20.701 C 21.015 20.387,21.000 20.604,21.000 16.500 C 21.000 12.396,21.015 12.613,20.701 12.299 C 20.423 12.021,20.308 12.000,19.073 12.000 L 18.000 12.000 18.000 9.427 C 18.000 6.523,18.008 6.606,17.701 6.299 C 17.394 5.992,17.477 6.000,14.573 6.000 L 12.000 6.000 12.000 4.927 C 12.000 3.692,11.979 3.577,11.701 3.299 C 11.386 2.984,11.606 3.000,7.483 3.003 C 4.408 3.005,3.795 3.015,3.664 3.063 M16.000 10.000 L 16.000 12.000 14.425 12.000 C 12.721 12.000,12.656 12.007,12.374 12.222 C 12.301 12.277,12.192 12.408,12.131 12.511 L 12.020 12.700 12.008 14.350 L 11.997 16.000 9.998 16.000 L 8.000 16.000 8.000 14.000 L 8.000 12.000 9.573 12.000 C 11.362 12.000,11.409 11.994,11.701 11.701 C 11.994 11.409,12.000 11.362,12.000 9.573 L 12.000 8.000 14.000 8.000 L 16.000 8.000 16.000 10.000 " stroke="none" fill-rule="evenodd" fill="black"></path></svg>