<svg viewBox="0 0 24 24" xmlns="http://www.w3.org/2000/svg"><path d="M10.940 5.577 C 10.586 5.658,10.176 5.822,9.864 6.007 C 9.530 6.205,9.008 6.695,8.792 7.012 C 7.863 8.378,7.988 10.159,9.096 11.348 C 10.070 12.394,11.598 12.779,12.960 12.322 C 13.147 12.259,13.305 12.213,13.312 12.219 C 13.329 12.236,13.205 12.774,13.090 13.180 C 12.577 14.993,11.314 16.506,9.370 17.635 L 9.081 17.803 9.175 17.952 C 9.226 18.033,9.424 18.340,9.615 18.632 C 10.015 19.247,9.919 19.220,10.560 18.899 C 11.644 18.354,12.521 17.722,13.385 16.862 C 15.043 15.212,15.909 13.342,15.988 11.240 C 16.052 9.521,15.656 8.191,14.741 7.052 C 14.146 6.312,13.461 5.857,12.580 5.617 C 12.250 5.527,11.262 5.503,10.940 5.577 " stroke="none" fill-rule="evenodd" fill="black"></path></svg>