<svg viewBox="0 0 24 24" xmlns="http://www.w3.org/2000/svg"><path d="M3.000 5.000 L 3.000 7.000 4.000 7.000 L 5.000 7.000 5.000 5.000 L 5.000 3.000 4.000 3.000 L 3.000 3.000 3.000 5.000 M14.148 3.170 C 14.116 3.264,12.654 7.282,10.899 12.100 C 9.145 16.918,7.700 20.892,7.690 20.930 C 7.672 20.995,7.741 21.000,8.732 21.000 L 9.792 21.000 9.851 20.830 C 9.884 20.737,11.346 16.718,13.101 11.900 C 14.855 7.082,16.300 3.109,16.310 3.070 C 16.328 3.005,16.259 3.000,15.268 3.000 L 14.208 3.000 14.148 3.170 M19.000 5.000 L 19.000 7.000 20.000 7.000 L 21.000 7.000 21.000 5.000 L 21.000 3.000 20.000 3.000 L 19.000 3.000 19.000 5.000 " stroke="none" fill-rule="evenodd" fill="black"></path></svg>