<svg viewBox="0 0 24 24" xmlns="http://www.w3.org/2000/svg"><path d="M3.000 5.000 L 3.000 6.000 6.000 6.000 L 9.000 6.000 9.000 12.500 L 9.000 19.000 10.000 19.000 L 11.000 19.000 11.000 12.500 L 11.000 6.000 14.000 6.000 L 17.000 6.000 17.000 5.000 L 17.000 4.000 10.000 4.000 L 3.000 4.000 3.000 5.000 M18.480 14.073 C 17.800 14.250,17.241 14.815,17.063 15.506 C 16.991 15.785,16.981 16.191,17.041 16.405 L 17.081 16.551 17.644 16.385 L 18.206 16.220 18.216 15.980 C 18.229 15.649,18.370 15.429,18.652 15.297 C 18.957 15.156,19.217 15.179,19.495 15.372 C 19.636 15.471,19.799 15.810,19.800 16.005 C 19.800 16.313,19.646 16.494,18.290 17.780 L 17.000 19.003 17.000 19.502 L 17.000 20.000 19.000 20.000 L 21.000 20.000 21.000 19.501 L 21.000 19.001 19.882 18.991 L 18.764 18.980 19.646 18.143 C 20.131 17.683,20.590 17.214,20.664 17.101 C 21.190 16.310,21.082 15.275,20.404 14.596 C 19.884 14.076,19.189 13.887,18.480 14.073 " stroke="none" fill-rule="evenodd" fill="black"></path></svg>