<svg viewBox="0 0 24 24" xmlns="http://www.w3.org/2000/svg"><path d="M3.369 4.448 C 8.827 11.038,9.199 11.495,9.146 11.557 C 9.117 11.592,7.755 13.240,6.121 15.220 C 4.486 17.200,3.112 18.860,3.067 18.910 L 2.986 19.000 4.288 19.000 L 5.590 19.000 7.965 16.131 C 9.271 14.553,10.376 13.219,10.421 13.167 L 10.503 13.072 12.957 16.036 L 15.410 19.000 16.710 19.000 L 18.010 19.000 17.832 18.790 C 17.735 18.675,16.362 17.014,14.781 15.100 C 13.200 13.186,11.883 11.592,11.854 11.557 C 11.801 11.495,12.256 10.935,17.632 4.447 L 18.003 3.999 16.695 4.009 L 15.386 4.020 12.971 6.940 C 11.643 8.546,10.542 9.874,10.525 9.891 C 10.509 9.907,9.393 8.589,8.046 6.961 L 5.596 4.000 4.297 4.000 L 2.998 4.000 3.369 4.448 M20.480 14.073 C 19.800 14.250,19.241 14.815,19.063 15.506 C 18.991 15.785,18.981 16.191,19.041 16.405 L 19.081 16.551 19.645 16.385 L 20.208 16.220 20.214 16.000 C 20.223 15.676,20.374 15.438,20.661 15.298 C 20.834 15.213,20.920 15.194,21.058 15.210 C 21.632 15.274,21.962 15.878,21.695 16.376 C 21.654 16.453,21.031 17.076,20.310 17.760 L 19.000 19.003 19.000 19.501 L 19.000 20.000 21.000 20.000 L 23.000 20.000 23.000 19.501 L 23.000 19.001 21.882 18.991 L 20.764 18.980 21.646 18.143 C 22.131 17.683,22.590 17.214,22.664 17.101 C 23.190 16.310,23.082 15.275,22.404 14.596 C 21.884 14.076,21.189 13.887,20.480 14.073 " stroke="none" fill-rule="evenodd" fill="black"></path></svg>