<svg viewBox="0 0 24 24" xmlns="http://www.w3.org/2000/svg"><path d="M8.433 3.043 C 7.861 3.127,7.225 3.377,6.731 3.712 C 5.955 4.240,5.394 5.037,5.130 5.989 C 5.034 6.337,5.022 6.449,5.022 7.000 C 5.022 7.551,5.034 7.663,5.130 8.011 C 5.593 9.680,6.998 10.855,8.690 10.988 L 9.000 11.012 9.000 13.006 L 9.000 15.000 10.000 15.000 L 11.000 15.000 11.000 10.000 L 11.000 5.000 12.000 5.000 L 13.000 5.000 13.000 10.000 L 13.000 15.000 14.000 15.000 L 15.000 15.000 15.000 10.000 L 15.000 5.000 16.000 5.000 L 17.000 5.000 17.000 4.000 L 17.000 3.000 12.830 3.005 C 10.537 3.008,8.558 3.025,8.433 3.043 M9.000 7.006 L 9.000 9.011 8.777 8.985 C 7.414 8.825,6.615 7.369,7.207 6.125 C 7.502 5.504,8.211 5.032,8.890 5.004 L 9.000 5.000 9.000 7.006 M17.000 15.754 L 17.000 17.000 11.000 17.000 L 5.000 17.000 5.000 18.000 L 5.000 19.000 10.999 19.000 L 16.999 19.000 17.009 20.241 L 17.020 21.482 18.990 19.759 C 20.073 18.811,20.960 18.019,20.960 18.000 C 20.960 17.975,18.098 15.450,17.070 14.568 C 17.004 14.511,17.000 14.571,17.000 15.754 " stroke="none" fill-rule="evenodd" fill="black"></path></svg>