<svg fill="none" viewBox="0 0 15 15" xmlns="http://www.w3.org/2000/svg"><path d="M3.000 4.024 L 3.000 8.048 2.894 8.076 C 1.603 8.411,0.789 9.695,1.052 10.982 C 1.224 11.830,1.796 12.514,2.588 12.821 C 2.698 12.863,2.835 12.910,2.894 12.925 L 3.000 12.952 3.000 13.976 L 3.000 15.000 3.500 15.000 L 4.000 15.000 4.000 13.976 L 4.000 12.952 4.106 12.925 C 4.878 12.729,5.517 12.170,5.815 11.430 C 6.056 10.831,6.056 10.168,5.816 9.573 C 5.516 8.832,4.883 8.277,4.106 8.076 L 4.000 8.048 4.000 4.024 L 4.000 0.000 3.500 0.000 L 3.000 0.000 3.000 4.024 M11.000 1.024 L 11.000 2.048 10.894 2.076 C 9.603 2.411,8.789 3.695,9.052 4.982 C 9.224 5.830,9.796 6.514,10.588 6.821 C 10.697 6.863,10.835 6.910,10.894 6.925 L 11.000 6.952 11.000 10.976 L 11.000 15.000 11.500 15.000 L 12.000 15.000 12.000 10.976 L 12.000 6.952 12.106 6.925 C 12.878 6.729,13.517 6.170,13.815 5.430 C 14.056 4.831,14.056 4.168,13.816 3.573 C 13.516 2.832,12.883 2.277,12.106 2.076 L 12.000 2.048 12.000 1.024 L 12.000 0.000 11.500 0.000 L 11.000 0.000 11.000 1.024 M11.773 3.027 C 12.210 3.100,12.645 3.434,12.845 3.850 C 13.048 4.271,13.048 4.728,12.845 5.150 C 12.713 5.427,12.426 5.720,12.165 5.846 C 11.744 6.049,11.256 6.049,10.835 5.846 C 10.574 5.720,10.287 5.427,10.155 5.150 C 9.872 4.560,9.984 3.910,10.448 3.449 C 10.818 3.081,11.257 2.941,11.773 3.027 M3.773 9.027 C 4.210 9.100,4.645 9.434,4.845 9.850 C 5.048 10.271,5.048 10.728,4.845 11.150 C 4.713 11.427,4.426 11.720,4.165 11.846 C 3.744 12.049,3.256 12.049,2.835 11.846 C 2.574 11.720,2.287 11.427,2.155 11.150 C 1.872 10.560,1.984 9.910,2.448 9.449 C 2.818 9.081,3.257 8.941,3.773 9.027 " stroke="none" fill-rule="evenodd" fill="black"></path></svg>