<svg fill="none" viewBox="0 0 15 15" xmlns="http://www.w3.org/2000/svg"><path d="M3.550 0.365 C 2.815 0.456,2.535 0.527,2.138 0.724 C 1.885 0.850,1.692 0.982,0.919 1.561 L 0.000 2.249 0.000 3.500 L 0.000 4.750 0.918 5.438 C 2.028 6.270,2.283 6.413,2.873 6.537 C 3.126 6.590,3.632 6.650,3.831 6.650 L 4.000 6.650 4.000 10.825 L 4.000 15.000 5.500 15.000 L 7.000 15.000 7.000 9.136 C 7.000 5.065,6.992 3.217,6.973 3.092 C 6.771 1.747,5.820 0.719,4.507 0.424 C 4.293 0.376,3.739 0.342,3.550 0.365 M10.825 0.366 C 10.095 0.459,9.464 0.760,8.948 1.261 C 8.440 1.755,8.137 2.357,8.027 3.092 C 8.008 3.217,8.000 5.065,8.000 9.136 L 8.000 15.000 9.500 15.000 L 11.000 15.000 11.000 10.825 L 11.000 6.650 11.169 6.650 C 11.368 6.650,11.874 6.590,12.127 6.537 C 12.715 6.413,12.977 6.266,14.089 5.433 L 15.000 4.750 15.000 3.500 L 15.000 2.249 14.081 1.561 C 13.308 0.982,13.115 0.850,12.863 0.724 C 12.537 0.563,12.249 0.477,11.825 0.413 C 11.556 0.373,10.981 0.346,10.825 0.366 M4.388 1.423 C 4.974 1.572,5.493 1.992,5.762 2.536 C 5.934 2.883,5.983 3.096,5.983 3.500 C 5.983 3.904,5.934 4.117,5.762 4.464 C 5.353 5.291,4.487 5.740,3.524 5.626 C 2.985 5.562,2.688 5.469,2.386 5.272 C 2.285 5.206,1.932 4.949,1.601 4.701 L 1.000 4.249 1.000 3.500 L 1.000 2.751 1.594 2.305 C 2.313 1.766,2.388 1.714,2.598 1.612 C 2.863 1.484,3.039 1.438,3.513 1.376 C 3.762 1.343,4.155 1.364,4.388 1.423 M11.451 1.375 C 11.942 1.433,12.127 1.479,12.402 1.612 C 12.612 1.714,12.687 1.766,13.406 2.305 L 14.000 2.751 14.000 3.500 L 14.000 4.249 13.399 4.701 C 12.662 5.254,12.482 5.373,12.247 5.460 C 11.908 5.586,11.353 5.667,11.000 5.642 C 10.250 5.588,9.562 5.129,9.236 4.463 C 8.904 3.784,8.934 3.036,9.318 2.376 C 9.453 2.144,9.816 1.789,10.058 1.653 C 10.509 1.398,10.932 1.314,11.451 1.375 M2.000 3.500 L 2.000 4.000 3.000 4.000 L 4.000 4.000 4.000 3.500 L 4.000 3.000 3.000 3.000 L 2.000 3.000 2.000 3.500 M11.000 3.500 L 11.000 4.000 12.000 4.000 L 13.000 4.000 13.000 3.500 L 13.000 3.000 12.000 3.000 L 11.000 3.000 11.000 3.500 M6.000 9.900 L 6.000 14.000 5.500 14.000 L 5.000 14.000 5.000 10.216 L 5.000 6.433 5.202 6.338 C 5.442 6.226,5.719 6.047,5.875 5.905 C 5.937 5.848,5.990 5.802,5.994 5.801 C 5.997 5.800,6.000 7.645,6.000 9.900 M9.463 6.156 C 9.559 6.217,9.719 6.304,9.819 6.350 L 10.000 6.432 10.000 10.216 L 10.000 14.000 9.500 14.000 L 9.000 14.000 9.000 9.898 L 9.000 5.797 9.144 5.921 C 9.223 5.989,9.366 6.095,9.463 6.156 " stroke="none" fill-rule="evenodd" fill="black"></path></svg>