<svg fill="none" viewBox="0 0 15 15" xmlns="http://www.w3.org/2000/svg"><path d="M6.963 0.015 C 5.721 0.110,4.899 0.318,4.046 0.753 C 2.748 1.415,1.807 2.505,1.362 3.862 C 1.012 4.929,0.907 6.418,1.090 7.713 C 1.331 9.415,2.028 10.970,3.214 12.451 C 4.160 13.633,5.217 14.452,6.225 14.785 C 6.716 14.948,6.953 14.985,7.500 14.985 C 8.035 14.985,8.257 14.951,8.747 14.797 C 9.808 14.464,11.015 13.489,12.012 12.163 C 13.612 10.032,14.245 7.673,13.909 5.088 C 13.738 3.765,13.262 2.715,12.450 1.865 C 11.474 0.845,10.186 0.247,8.565 0.061 C 8.249 0.025,7.219 -0.005,6.963 0.015 M8.521 1.062 C 9.844 1.229,10.882 1.701,11.666 2.492 C 12.596 3.430,12.988 4.606,12.985 6.450 C 12.984 6.901,12.971 7.182,12.941 7.410 C 12.735 8.971,12.184 10.275,11.153 11.638 C 10.307 12.755,9.300 13.574,8.436 13.845 C 8.051 13.965,7.916 13.986,7.513 13.987 C 7.103 13.988,6.917 13.960,6.563 13.846 C 5.540 13.516,4.410 12.512,3.455 11.083 C 2.423 9.540,1.948 7.934,2.009 6.188 C 2.069 4.436,2.462 3.359,3.367 2.460 C 4.034 1.798,4.894 1.360,5.942 1.152 C 6.263 1.088,6.473 1.061,7.000 1.015 C 7.236 0.994,8.226 1.025,8.521 1.062 M4.196 6.118 L 3.854 6.463 4.938 7.563 L 6.022 8.662 6.379 8.307 L 6.735 7.952 5.661 6.870 C 5.071 6.275,4.576 5.784,4.563 5.781 C 4.549 5.777,4.384 5.929,4.196 6.118 M9.339 6.867 L 8.265 7.952 8.622 8.307 L 8.979 8.662 10.063 7.563 L 11.148 6.463 10.805 6.119 C 10.617 5.930,10.452 5.777,10.438 5.779 C 10.424 5.781,9.929 6.271,9.339 6.867 M6.068 11.215 C 5.960 11.457,5.876 11.666,5.880 11.678 C 5.884 11.691,6.006 11.755,6.150 11.821 C 6.294 11.887,6.497 11.996,6.600 12.062 C 7.324 12.529,7.619 12.538,8.313 12.116 C 8.491 12.007,8.744 11.869,8.875 11.810 C 9.005 11.751,9.116 11.691,9.120 11.677 C 9.127 11.657,8.765 10.808,8.738 10.780 C 8.719 10.761,8.108 11.071,7.836 11.238 C 7.668 11.341,7.517 11.425,7.500 11.425 C 7.482 11.425,7.411 11.389,7.340 11.346 C 6.847 11.041,6.611 10.915,6.288 10.785 C 6.274 10.780,6.175 10.973,6.068 11.215 " stroke="none" fill-rule="evenodd" fill="black"></path></svg>