<svg fill="none" viewBox="0 0 15 15" xmlns="http://www.w3.org/2000/svg"><path d="M7.162 0.024 C 6.880 0.064,6.688 0.127,6.388 0.275 C 5.674 0.628,5.212 1.232,5.051 2.022 C 4.798 3.260,5.551 4.506,6.781 4.888 L 7.000 4.956 7.000 9.455 L 7.000 13.954 6.856 13.938 C 5.806 13.821,4.939 13.539,4.141 13.054 C 2.476 12.044,1.356 10.360,1.074 8.443 C 1.047 8.261,1.025 8.087,1.025 8.056 L 1.025 8.000 2.013 8.000 L 3.000 8.000 3.000 7.500 L 3.000 7.000 1.496 7.000 L -0.007 7.000 0.007 7.606 C 0.034 8.705,0.215 9.542,0.638 10.520 C 1.008 11.373,1.496 12.076,2.223 12.800 C 2.872 13.447,3.401 13.828,4.188 14.213 C 5.022 14.622,5.719 14.827,6.694 14.949 C 7.123 15.003,8.000 15.022,8.000 14.977 C 8.000 14.964,8.076 14.947,8.169 14.937 C 8.708 14.884,9.355 14.758,9.822 14.614 C 10.619 14.369,11.454 13.925,12.155 13.372 C 12.482 13.114,13.160 12.434,13.398 12.125 C 14.095 11.223,14.543 10.291,14.801 9.213 C 14.927 8.683,14.977 8.268,14.993 7.606 L 15.007 7.000 13.504 7.000 L 12.000 7.000 12.000 7.500 L 12.000 8.000 12.988 8.000 L 13.975 8.000 13.975 8.056 C 13.975 8.180,13.875 8.782,13.812 9.039 C 13.659 9.658,13.336 10.426,13.012 10.937 C 11.976 12.571,10.327 13.645,8.425 13.925 C 8.239 13.952,8.068 13.975,8.044 13.975 C 8.002 13.975,8.000 13.744,8.000 9.465 L 8.000 4.956 8.219 4.888 C 9.452 4.505,10.202 3.260,9.948 2.016 C 9.789 1.233,9.309 0.612,8.591 0.262 C 8.433 0.185,8.221 0.104,8.100 0.076 C 7.858 0.018,7.388 -0.008,7.162 0.024 M7.828 1.036 C 8.248 1.125,8.659 1.454,8.849 1.853 C 8.998 2.166,9.034 2.471,8.962 2.813 C 8.821 3.486,8.189 3.999,7.500 3.999 C 6.811 3.999,6.179 3.486,6.038 2.813 C 5.929 2.297,6.071 1.823,6.444 1.450 C 6.825 1.070,7.307 0.926,7.828 1.036 " stroke="none" fill-rule="evenodd" fill="black"></path></svg>