<svg fill="none" viewBox="0 0 15 15" xmlns="http://www.w3.org/2000/svg"><path d="M6.927 0.026 C 5.636 0.151,4.446 0.630,3.425 1.436 C 3.169 1.638,2.597 2.216,2.396 2.475 C 1.741 3.321,1.298 4.292,1.114 5.288 C 0.998 5.915,1.000 5.819,1.000 10.543 L 1.000 15.000 1.500 15.000 L 2.000 15.000 2.000 10.644 C 2.000 7.801,2.009 6.188,2.026 6.000 C 2.201 4.092,3.364 2.407,5.090 1.561 C 7.189 0.532,9.727 0.957,11.385 2.615 C 12.292 3.522,12.857 4.726,12.974 6.000 C 12.991 6.188,13.000 7.801,13.000 10.644 L 13.000 15.000 13.501 15.000 L 14.001 15.000 13.993 10.431 C 13.986 6.283,13.981 5.839,13.943 5.605 C 13.742 4.380,13.326 3.408,12.603 2.475 C 12.402 2.215,11.830 1.637,11.575 1.436 C 11.058 1.027,10.315 0.609,9.716 0.388 C 9.374 0.262,8.870 0.137,8.459 0.075 C 8.059 0.016,7.290 -0.009,6.927 0.026 M10.000 3.489 L 10.000 3.979 9.931 3.966 C 9.740 3.930,8.796 3.894,8.357 3.907 C 6.391 3.963,4.512 4.934,3.325 6.507 C 2.956 6.996,2.563 7.713,2.404 8.188 C 2.106 9.074,2.145 10.027,2.524 11.175 C 2.845 12.147,3.230 12.820,3.809 13.420 C 4.600 14.238,5.564 14.744,6.713 14.942 C 7.062 15.002,7.938 15.002,8.287 14.942 C 9.044 14.811,9.736 14.539,10.341 14.135 C 10.989 13.701,11.566 13.084,11.940 12.423 C 12.330 11.733,12.711 10.625,12.843 9.796 C 12.899 9.441,12.906 8.490,12.854 8.200 C 12.594 6.732,11.982 5.395,11.141 4.455 L 11.000 4.298 11.000 3.649 L 11.000 3.000 10.500 3.000 L 10.000 3.000 10.000 3.489 M9.660 4.946 L 10.282 4.989 10.380 5.101 C 10.556 5.302,10.817 5.658,10.964 5.900 C 11.105 6.132,11.379 6.681,11.459 6.894 L 11.500 7.000 7.861 7.000 C 4.281 7.000,4.224 6.999,4.249 6.952 C 4.297 6.862,4.794 6.363,5.017 6.180 C 5.828 5.516,6.827 5.079,7.850 4.941 C 8.206 4.892,8.910 4.895,9.660 4.946 M5.900 8.028 C 5.900 8.111,5.719 8.383,5.551 8.551 C 5.334 8.767,5.143 8.878,4.860 8.951 C 4.690 8.994,4.582 9.000,3.955 9.000 L 3.244 9.000 3.261 8.869 C 3.283 8.702,3.401 8.346,3.500 8.151 L 3.576 8.000 4.738 8.000 C 5.573 8.000,5.900 8.008,5.900 8.028 M8.075 8.106 C 8.130 8.317,8.157 8.391,8.265 8.614 C 8.521 9.143,9.016 9.599,9.575 9.822 C 9.950 9.971,10.184 10.000,11.023 10.000 C 11.628 10.000,11.775 10.006,11.775 10.033 C 11.775 10.051,11.737 10.201,11.691 10.366 C 11.512 11.006,11.206 11.729,10.944 12.130 C 10.337 13.062,9.413 13.684,8.275 13.929 C 8.051 13.977,7.938 13.985,7.500 13.985 C 7.062 13.985,6.949 13.977,6.725 13.929 C 5.418 13.648,4.396 12.868,3.819 11.713 C 3.588 11.250,3.378 10.642,3.290 10.181 L 3.256 10.000 3.993 10.000 C 4.814 10.000,5.052 9.970,5.425 9.822 C 5.984 9.599,6.469 9.152,6.731 8.619 C 6.842 8.392,6.870 8.320,6.925 8.106 L 6.952 8.000 7.500 8.000 L 8.048 8.000 8.075 8.106 M11.836 8.219 C 11.858 8.339,11.884 8.564,11.892 8.719 L 11.908 9.000 11.120 9.000 C 10.418 9.000,10.312 8.995,10.140 8.951 C 9.857 8.878,9.666 8.767,9.449 8.551 C 9.281 8.383,9.100 8.111,9.100 8.028 C 9.100 8.008,9.477 8.000,10.447 8.000 L 11.795 8.000 11.836 8.219 M8.989 11.138 C 8.965 11.325,8.826 11.595,8.685 11.724 C 8.623 11.782,8.496 11.865,8.404 11.908 L 8.238 11.988 7.369 11.995 L 6.500 12.003 6.500 12.503 L 6.500 13.004 7.431 12.995 L 8.363 12.985 8.575 12.915 C 9.370 12.654,9.918 11.986,9.990 11.190 L 10.007 11.000 9.506 11.000 L 9.006 11.000 8.989 11.138 " fill="currentColor" stroke="none" fill-rule="evenodd"></path></svg>