<svg fill="none" viewBox="0 0 15 15" xmlns="http://www.w3.org/2000/svg"><path d="M9.450 0.036 C 9.040 0.096,8.626 0.259,8.229 0.518 C 8.037 0.642,7.608 1.075,7.478 1.275 C 7.165 1.756,6.998 2.283,6.991 2.813 C 6.988 3.061,6.994 3.101,7.054 3.228 C 7.145 3.423,7.278 3.561,7.465 3.653 C 7.613 3.726,7.647 3.732,7.964 3.744 C 8.210 3.754,8.310 3.749,8.323 3.728 C 8.333 3.712,8.447 3.671,8.577 3.636 C 8.879 3.556,9.314 3.344,9.568 3.152 C 10.276 2.618,10.709 1.771,10.712 0.913 C 10.712 0.668,10.705 0.622,10.648 0.500 C 10.565 0.325,10.400 0.159,10.229 0.081 C 10.061 0.003,9.785 -0.012,9.450 0.036 M9.675 1.261 C 9.574 1.775,9.159 2.299,8.657 2.548 C 8.492 2.631,8.177 2.725,8.069 2.725 C 7.989 2.725,7.982 2.685,8.028 2.473 C 8.183 1.750,8.840 1.135,9.571 1.028 C 9.711 1.008,9.720 1.029,9.675 1.261 M4.566 3.762 C 3.283 3.973,2.266 4.945,1.792 6.413 C 1.511 7.282,1.428 8.325,1.573 9.156 C 1.938 11.246,3.368 13.890,4.566 14.692 C 4.937 14.939,5.195 15.016,5.575 14.991 C 6.015 14.963,6.476 14.815,6.954 14.549 C 7.290 14.362,7.461 14.316,7.761 14.331 C 8.039 14.345,8.142 14.381,8.498 14.585 C 8.970 14.856,9.314 14.968,9.750 14.992 C 9.969 15.004,10.048 14.998,10.224 14.953 C 10.896 14.783,11.520 14.218,12.237 13.130 C 12.528 12.689,12.921 11.999,13.219 11.407 C 13.461 10.926,13.461 10.926,13.459 10.744 C 13.455 10.411,13.370 10.263,13.010 9.963 C 12.536 9.568,12.263 9.179,12.150 8.739 C 12.032 8.276,12.121 7.792,12.405 7.357 C 12.525 7.173,12.684 7.004,13.154 6.563 C 13.343 6.385,13.372 6.345,13.412 6.213 C 13.544 5.784,13.428 5.514,12.863 4.928 C 12.057 4.093,11.235 3.725,10.175 3.725 C 9.410 3.726,8.749 3.832,8.213 4.042 C 8.089 4.090,7.931 4.145,7.862 4.165 C 7.719 4.205,7.690 4.199,7.233 4.041 C 6.924 3.935,6.512 3.840,6.125 3.788 C 5.706 3.731,4.844 3.717,4.566 3.762 M6.047 4.787 C 6.419 4.841,6.686 4.908,7.108 5.053 C 7.443 5.167,7.502 5.180,7.708 5.182 C 7.978 5.185,8.129 5.152,8.444 5.021 C 8.888 4.836,9.284 4.760,9.925 4.734 C 10.649 4.705,11.092 4.816,11.588 5.150 C 11.851 5.328,12.065 5.515,12.242 5.722 L 12.401 5.909 12.307 5.983 C 12.129 6.125,11.808 6.463,11.652 6.673 C 11.456 6.938,11.271 7.317,11.186 7.625 C 11.105 7.921,11.076 8.445,11.124 8.743 C 11.195 9.183,11.391 9.642,11.663 10.005 C 11.751 10.123,11.958 10.347,12.122 10.504 L 12.420 10.790 12.221 11.164 C 11.315 12.867,10.612 13.779,10.059 13.968 C 9.800 14.056,9.407 13.955,8.922 13.676 C 8.437 13.397,8.103 13.310,7.604 13.332 C 7.191 13.349,6.993 13.409,6.463 13.675 C 5.965 13.924,5.674 14.014,5.431 13.994 C 4.961 13.955,4.110 12.906,3.438 11.538 C 2.983 10.610,2.675 9.704,2.546 8.912 C 2.499 8.624,2.506 7.879,2.560 7.525 C 2.766 6.155,3.422 5.173,4.349 4.845 C 4.629 4.746,4.812 4.725,5.313 4.737 C 5.574 4.743,5.904 4.766,6.047 4.787 " stroke="none" fill-rule="evenodd" fill="black"></path></svg>