<svg fill="none" viewBox="0 0 15 15" xmlns="http://www.w3.org/2000/svg"><path d="M0.000 7.500 L 0.000 15.000 7.500 15.000 L 15.000 15.000 15.000 14.500 L 15.000 14.000 8.000 14.000 L 1.000 14.000 1.000 7.000 L 1.000 0.000 0.500 0.000 L 0.000 0.000 0.000 7.500 M13.992 2.681 C 13.971 3.648,13.902 4.291,13.738 5.069 C 13.443 6.466,12.800 7.707,12.031 8.364 C 11.397 8.906,10.626 9.128,10.109 8.918 C 9.659 8.735,9.269 8.347,8.468 7.288 C 7.486 5.987,7.044 5.538,6.450 5.237 C 5.825 4.921,5.099 4.928,4.432 5.257 C 3.332 5.800,2.518 7.270,2.176 9.335 C 2.063 10.013,2.024 10.461,2.008 11.269 L 1.993 12.000 2.493 12.000 L 2.992 12.000 3.007 11.331 C 3.034 10.162,3.157 9.273,3.416 8.388 C 3.661 7.551,3.986 6.937,4.411 6.510 C 4.677 6.243,4.877 6.122,5.177 6.046 C 5.657 5.925,6.057 6.069,6.553 6.543 C 6.813 6.791,7.053 7.079,7.563 7.753 C 8.112 8.479,8.385 8.810,8.672 9.097 C 9.089 9.515,9.472 9.765,9.925 9.915 C 10.121 9.980,10.167 9.985,10.525 9.985 C 10.845 9.985,10.954 9.974,11.150 9.926 C 11.795 9.768,12.325 9.467,12.847 8.963 C 13.178 8.642,13.364 8.418,13.615 8.037 C 14.139 7.242,14.528 6.234,14.760 5.075 C 14.911 4.318,14.973 3.703,14.992 2.744 L 15.007 2.000 14.508 2.000 L 14.008 2.000 13.992 2.681 " fill="currentColor" stroke="none" fill-rule="evenodd"></path></svg>