<svg fill="none" viewBox="0 0 15 15" xmlns="http://www.w3.org/2000/svg"><path d="M2.006 7.333 L 2.013 14.666 2.080 14.767 C 2.203 14.954,2.421 15.036,2.634 14.976 C 2.720 14.952,3.250 14.540,5.115 13.048 C 6.420 12.004,7.493 11.150,7.500 11.150 C 7.507 11.150,8.576 12.001,9.875 13.040 C 11.174 14.080,12.266 14.942,12.300 14.955 C 12.577 15.063,12.890 14.925,12.969 14.659 C 12.993 14.579,13.000 12.953,13.000 7.278 L 13.000 0.000 7.500 0.000 L 2.000 0.000 2.006 7.333 M12.000 7.228 C 12.000 12.207,11.994 13.451,11.969 13.432 C 11.952 13.418,11.005 12.662,9.866 11.751 C 8.726 10.840,7.748 10.074,7.691 10.048 C 7.560 9.988,7.440 9.988,7.309 10.048 C 7.252 10.074,6.274 10.840,5.134 11.751 C 3.995 12.662,3.048 13.418,3.031 13.432 C 3.006 13.451,3.000 12.207,3.000 7.228 L 3.000 1.000 7.500 1.000 L 12.000 1.000 12.000 7.228 " fill="currentColor" stroke="none" fill-rule="evenodd"></path></svg>