<svg fill="none" viewBox="0 0 15 15" xmlns="http://www.w3.org/2000/svg"><path d="M7.150 0.107 C 6.896 0.213,0.319 3.029,0.306 3.037 C 0.303 3.040,0.344 3.142,0.397 3.265 L 0.493 3.488 0.247 3.495 L 0.000 3.502 0.000 7.532 C 0.000 10.292,0.009 11.593,0.027 11.658 C 0.088 11.880,-0.054 11.812,3.770 13.448 C 5.711 14.279,7.304 14.954,7.308 14.948 C 7.313 14.942,7.355 14.845,7.402 14.732 C 7.449 14.618,7.493 14.526,7.500 14.525 C 7.507 14.525,7.552 14.621,7.600 14.738 C 7.648 14.854,7.695 14.950,7.704 14.950 C 7.726 14.950,14.579 12.014,14.714 11.946 C 14.831 11.888,14.944 11.758,14.977 11.643 C 14.991 11.596,15.000 9.895,15.000 7.532 L 15.000 3.502 14.752 3.495 L 14.504 3.488 14.600 3.263 L 14.695 3.039 11.169 1.528 C 8.631 0.441,7.611 0.014,7.528 0.007 C 7.435 -0.000,7.362 0.019,7.150 0.107 M10.356 2.269 C 11.920 2.939,13.200 3.493,13.200 3.501 C 13.200 3.508,11.917 4.062,10.350 4.733 L 7.500 5.951 4.650 4.733 C 3.082 4.062,1.800 3.508,1.800 3.501 C 1.800 3.487,7.445 1.057,7.487 1.052 C 7.501 1.051,8.792 1.598,10.356 2.269 M4.013 5.548 L 6.988 6.821 6.994 10.273 C 6.997 12.171,6.992 13.725,6.981 13.725 C 6.971 13.725,5.621 13.150,3.981 12.447 L 1.000 11.170 1.000 7.722 C 1.000 5.826,1.008 4.275,1.019 4.275 C 1.029 4.275,2.376 4.848,4.013 5.548 M14.000 7.722 L 14.000 11.170 11.019 12.447 C 9.379 13.150,8.029 13.725,8.019 13.725 C 8.008 13.725,8.000 12.174,8.000 10.278 L 8.000 6.830 10.969 5.555 C 12.602 4.854,13.952 4.279,13.969 4.277 C 13.994 4.275,14.000 4.980,14.000 7.722 " stroke="none" fill-rule="evenodd" fill="black"></path></svg>