<svg fill="none" viewBox="0 0 15 15" xmlns="http://www.w3.org/2000/svg"><path d="M1.175 0.039 C 0.902 0.098,0.663 0.233,0.449 0.448 C 0.233 0.666,0.121 0.859,0.049 1.140 C 0.001 1.330,-0.000 1.440,-0.000 7.500 C -0.000 13.560,0.001 13.670,0.049 13.860 C 0.122 14.143,0.233 14.334,0.449 14.551 C 0.666 14.767,0.857 14.878,1.140 14.951 C 1.327 14.999,1.429 15.000,4.666 15.000 L 8.000 15.000 8.000 14.500 L 8.000 14.001 4.669 13.994 L 1.338 13.988 1.242 13.928 C 1.190 13.896,1.116 13.823,1.080 13.767 L 1.012 13.666 1.012 7.502 L 1.012 1.338 1.072 1.242 C 1.104 1.190,1.177 1.116,1.233 1.080 L 1.334 1.012 7.498 1.012 L 13.663 1.012 13.758 1.072 C 13.810 1.104,13.884 1.177,13.920 1.232 L 13.988 1.334 13.994 3.167 L 14.001 5.000 14.501 5.000 L 15.000 5.000 15.000 3.166 C 15.000 1.422,14.998 1.324,14.951 1.140 C 14.879 0.859,14.767 0.666,14.551 0.448 C 14.334 0.229,14.096 0.097,13.813 0.038 C 13.556 -0.016,1.425 -0.015,1.175 0.039 M3.000 4.500 L 3.000 5.000 5.500 5.000 L 8.000 5.000 8.000 4.500 L 8.000 4.000 5.500 4.000 L 3.000 4.000 3.000 4.500 M11.071 5.027 C 10.823 5.057,10.464 5.149,10.212 5.247 C 9.452 5.540,8.738 6.197,8.364 6.946 C 8.252 7.169,8.119 7.563,8.058 7.850 C 7.994 8.148,7.994 8.852,8.058 9.150 C 8.193 9.784,8.481 10.374,8.860 10.791 L 8.999 10.944 9.006 12.807 L 9.013 14.671 9.088 14.777 C 9.227 14.975,9.506 15.056,9.701 14.955 C 9.749 14.931,10.173 14.621,10.644 14.268 L 11.500 13.624 12.356 14.268 C 12.827 14.621,13.251 14.931,13.299 14.955 C 13.494 15.056,13.773 14.975,13.913 14.777 L 13.988 14.671 13.994 12.807 L 14.001 10.944 14.140 10.791 C 14.519 10.374,14.807 9.784,14.942 9.150 C 15.006 8.852,15.006 8.148,14.942 7.850 C 14.781 7.094,14.450 6.494,13.908 5.974 C 13.411 5.498,12.819 5.192,12.150 5.063 C 11.890 5.014,11.330 4.995,11.071 5.027 M12.099 6.075 C 12.513 6.176,12.956 6.427,13.264 6.736 C 13.575 7.047,13.823 7.485,13.929 7.914 C 14.008 8.232,14.008 8.768,13.929 9.086 C 13.707 9.981,13.021 10.679,12.128 10.919 C 11.918 10.976,11.839 10.984,11.500 10.984 C 11.161 10.984,11.082 10.976,10.872 10.919 C 10.129 10.719,9.571 10.249,9.235 9.539 C 9.068 9.187,9.015 8.936,9.015 8.500 C 9.015 8.209,9.026 8.093,9.071 7.914 C 9.134 7.659,9.294 7.305,9.451 7.072 C 9.815 6.533,10.460 6.134,11.145 6.025 C 11.365 5.990,11.857 6.016,12.099 6.075 M3.000 7.500 L 3.000 8.000 4.500 8.000 L 6.000 8.000 6.000 7.500 L 6.000 7.000 4.500 7.000 L 3.000 7.000 3.000 7.500 M10.363 11.802 C 10.806 11.956,11.001 11.987,11.500 11.987 C 11.999 11.987,12.194 11.956,12.638 11.802 C 12.789 11.750,12.932 11.699,12.956 11.689 C 12.997 11.671,13.000 11.723,13.000 12.585 L 13.000 13.500 12.369 13.027 C 11.892 12.669,11.708 12.545,11.619 12.521 C 11.404 12.464,11.334 12.499,10.631 13.027 L 10.000 13.500 10.000 12.585 C 10.000 11.723,10.003 11.671,10.044 11.689 C 10.068 11.699,10.211 11.750,10.363 11.802 " fill="currentColor" stroke="none" fill-rule="evenodd"></path></svg>