<svg fill="none" viewBox="0 0 15 15" xmlns="http://www.w3.org/2000/svg"><path d="M8.000 1.438 C 8.000 1.459,6.026 13.309,6.013 13.365 C 6.002 13.415,6.025 13.421,6.490 13.498 C 6.759 13.543,6.983 13.575,6.988 13.570 C 6.994 13.564,7.443 10.889,7.987 7.624 C 8.530 4.359,8.980 1.664,8.987 1.635 C 8.998 1.585,8.975 1.579,8.518 1.503 C 8.007 1.419,8.000 1.418,8.000 1.438 M2.637 5.650 L 0.788 7.500 2.644 9.356 L 4.500 11.212 4.856 10.856 L 5.212 10.500 3.712 9.000 L 2.213 7.500 3.712 6.000 L 5.212 4.500 4.863 4.150 C 4.670 3.958,4.507 3.800,4.500 3.800 C 4.493 3.800,3.655 4.633,2.637 5.650 M10.137 4.150 L 9.788 4.500 11.288 6.000 L 12.787 7.500 11.288 9.000 L 9.788 10.500 10.144 10.856 L 10.500 11.212 12.356 9.356 L 14.212 7.500 12.363 5.650 C 11.345 4.633,10.507 3.800,10.500 3.800 C 10.493 3.800,10.330 3.958,10.137 4.150 " fill="currentColor" stroke="none" fill-rule="evenodd"></path></svg>