<svg fill="none" viewBox="0 0 15 15" xmlns="http://www.w3.org/2000/svg"><path d="M7.000 2.000 L 7.000 4.000 7.500 4.000 L 8.000 4.000 8.000 2.000 L 8.000 0.000 7.500 0.000 L 7.000 0.000 7.000 2.000 M4.000 3.000 L 4.000 4.000 4.500 4.000 L 5.000 4.000 5.000 3.000 L 5.000 2.000 4.500 2.000 L 4.000 2.000 4.000 3.000 M1.169 5.038 C 0.907 5.090,0.669 5.228,0.438 5.461 C 0.212 5.688,0.094 5.897,0.036 6.173 C -0.017 6.424,-0.016 11.642,0.037 11.994 C 0.155 12.775,0.501 13.453,1.054 13.990 C 1.617 14.537,2.253 14.853,3.013 14.963 C 3.382 15.016,8.618 15.016,8.988 14.963 C 9.767 14.850,10.455 14.498,11.003 13.934 C 11.683 13.231,11.998 12.421,12.000 11.369 L 12.000 11.000 12.831 11.000 C 13.757 10.999,13.876 10.985,14.165 10.846 C 14.405 10.731,14.731 10.405,14.846 10.165 C 14.992 9.862,14.999 9.786,14.999 8.500 C 14.999 7.214,14.992 7.138,14.846 6.835 C 14.719 6.573,14.426 6.287,14.150 6.156 C 14.033 6.100,13.864 6.042,13.773 6.027 C 13.677 6.011,13.260 6.000,12.767 6.000 L 11.926 6.000 11.844 5.831 C 11.719 5.573,11.424 5.286,11.150 5.156 C 11.033 5.100,10.864 5.042,10.773 5.027 C 10.510 4.984,1.392 4.994,1.169 5.038 M10.759 6.079 C 10.811 6.115,10.885 6.189,10.921 6.241 L 10.988 6.338 10.994 8.982 C 11.001 11.826,10.998 11.911,10.873 12.278 C 10.576 13.145,9.872 13.767,8.983 13.948 C 8.736 13.999,8.660 14.000,6.000 14.000 C 3.340 14.000,3.264 13.999,3.017 13.948 C 2.128 13.767,1.424 13.145,1.127 12.278 C 1.002 11.911,0.999 11.826,1.006 8.982 L 1.012 6.338 1.079 6.241 C 1.148 6.142,1.277 6.040,1.363 6.018 C 1.390 6.011,3.494 6.007,6.038 6.009 L 10.663 6.013 10.759 6.079 M13.759 7.079 C 13.811 7.115,13.885 7.189,13.921 7.241 L 13.988 7.338 13.988 8.500 L 13.988 9.663 13.915 9.769 C 13.876 9.827,13.803 9.900,13.753 9.931 C 13.665 9.986,13.643 9.988,12.831 9.995 L 12.000 10.003 12.000 8.500 L 12.000 6.997 12.831 7.005 L 13.663 7.013 13.759 7.079 " stroke="none" fill-rule="evenodd" fill="black"></path></svg>