<svg fill="none" viewBox="0 0 15 15" xmlns="http://www.w3.org/2000/svg"><path d="M0.283 0.059 C 0.099 0.147,0.013 0.282,0.013 0.485 C 0.013 0.632,0.116 0.878,3.034 7.688 C 4.696 11.565,6.082 14.773,6.115 14.816 C 6.236 14.977,6.497 15.044,6.692 14.962 C 6.914 14.869,6.858 15.013,7.913 11.845 C 8.445 10.246,8.894 8.925,8.909 8.909 C 8.925 8.894,10.242 8.446,11.838 7.915 C 13.822 7.254,14.762 6.930,14.816 6.888 C 15.062 6.694,15.049 6.278,14.790 6.103 C 14.734 6.065,11.528 4.680,7.666 3.025 C 2.544 0.831,0.613 0.014,0.528 0.007 C 0.442 0.000,0.379 0.013,0.283 0.059 M7.258 3.940 C 10.423 5.296,13.028 6.414,13.047 6.425 C 13.068 6.436,12.157 6.752,10.735 7.225 C 9.444 7.655,8.344 8.029,8.290 8.056 C 8.078 8.162,8.112 8.078,7.247 10.671 C 6.763 12.124,6.436 13.068,6.425 13.047 C 6.393 12.988,1.475 1.505,1.475 1.490 C 1.475 1.482,1.482 1.475,1.490 1.475 C 1.498 1.475,4.093 2.584,7.258 3.940 " stroke="none" fill-rule="evenodd" fill="black"></path></svg>