<svg fill="none" viewBox="0 0 15 15" xmlns="http://www.w3.org/2000/svg"><path d="M4.150 3.891 C 2.026 5.865,0.288 7.489,0.288 7.500 C 0.288 7.525,7.998 14.688,8.025 14.688 C 8.049 14.688,8.688 14.000,8.688 13.974 C 8.688 13.964,7.129 12.509,5.225 10.741 C 3.321 8.973,1.763 7.514,1.763 7.500 C 1.763 7.486,3.321 6.027,5.225 4.259 C 7.129 2.491,8.688 1.036,8.688 1.026 C 8.688 1.005,8.055 0.315,8.029 0.307 C 8.020 0.305,6.274 1.917,4.150 3.891 M9.650 3.891 C 7.526 5.865,5.788 7.489,5.788 7.500 C 5.788 7.525,13.498 14.688,13.525 14.688 C 13.549 14.688,14.188 14.000,14.188 13.974 C 14.188 13.964,12.629 12.509,10.725 10.741 C 8.821 8.973,7.263 7.514,7.263 7.500 C 7.263 7.486,8.821 6.027,10.725 4.259 C 12.629 2.491,14.188 1.036,14.188 1.026 C 14.188 1.005,13.555 0.315,13.529 0.307 C 13.520 0.305,11.774 1.917,9.650 3.891 " stroke="none" fill-rule="evenodd" fill="black"></path></svg>