<svg fill="none" viewBox="0 0 15 15" xmlns="http://www.w3.org/2000/svg"><path d="M7.025 0.014 C 6.977 0.020,6.814 0.037,6.663 0.052 C 5.409 0.177,4.067 0.704,3.040 1.474 C 1.040 2.975,-0.070 5.268,0.008 7.738 C 0.116 11.113,2.436 13.972,5.728 14.785 C 7.650 15.260,9.773 14.923,11.447 13.877 C 13.130 12.825,14.315 11.190,14.786 9.269 C 14.947 8.612,14.984 8.277,14.984 7.500 C 14.984 6.723,14.947 6.388,14.786 5.731 C 14.043 2.698,11.545 0.467,8.438 0.060 C 8.171 0.025,7.203 -0.006,7.025 0.014 M8.459 1.075 C 8.870 1.137,9.374 1.262,9.716 1.388 C 10.025 1.502,10.703 1.832,10.950 1.990 C 11.185 2.139,11.668 2.500,11.748 2.585 L 11.808 2.649 11.611 2.856 C 11.013 3.486,10.324 4.044,9.638 4.455 C 9.389 4.604,8.583 5.007,8.382 5.084 L 8.277 5.124 8.134 4.868 C 7.577 3.872,6.541 2.349,5.696 1.284 C 5.655 1.232,6.394 1.078,6.935 1.025 C 7.290 0.991,8.062 1.016,8.459 1.075 M4.894 1.894 C 5.567 2.729,6.316 3.795,6.891 4.737 C 7.213 5.263,7.313 5.445,7.294 5.464 C 7.270 5.489,6.699 5.641,6.287 5.734 C 5.252 5.966,4.203 6.112,2.875 6.211 C 2.271 6.256,1.473 6.300,1.266 6.300 L 1.119 6.300 1.137 6.185 C 1.168 5.977,1.325 5.443,1.441 5.150 C 1.504 4.992,1.636 4.705,1.735 4.513 C 2.059 3.883,2.386 3.437,2.912 2.912 C 3.276 2.547,3.527 2.339,3.917 2.079 C 4.128 1.938,4.639 1.651,4.680 1.650 C 4.690 1.650,4.786 1.760,4.894 1.894 M12.645 3.531 C 12.986 3.961,13.405 4.721,13.612 5.284 C 13.823 5.858,13.962 6.585,13.992 7.275 L 14.008 7.657 13.935 7.639 C 12.695 7.322,11.306 7.167,10.206 7.225 C 9.944 7.238,9.653 7.261,9.559 7.274 C 9.465 7.288,9.378 7.299,9.367 7.300 C 9.356 7.300,9.324 7.247,9.295 7.181 C 9.231 7.034,9.017 6.567,8.867 6.247 L 8.755 6.007 8.896 5.950 C 9.136 5.854,9.848 5.491,10.138 5.319 C 10.900 4.863,11.655 4.260,12.250 3.631 C 12.381 3.493,12.495 3.379,12.504 3.378 C 12.513 3.376,12.577 3.445,12.645 3.531 M8.073 6.916 C 8.213 7.213,8.323 7.469,8.317 7.484 C 8.311 7.500,8.212 7.539,8.097 7.571 C 7.286 7.798,6.260 8.305,5.490 8.858 C 4.547 9.535,3.653 10.433,2.856 11.504 L 2.638 11.797 2.579 11.742 C 2.499 11.667,2.135 11.178,1.990 10.950 C 1.832 10.703,1.502 10.025,1.388 9.716 C 1.174 9.135,1.037 8.410,1.009 7.706 L 0.992 7.300 1.202 7.300 C 1.690 7.299,3.124 7.206,3.907 7.123 C 5.312 6.975,6.581 6.737,7.538 6.440 C 7.647 6.406,7.756 6.378,7.778 6.377 C 7.806 6.375,7.893 6.533,8.073 6.916 M11.613 8.252 C 12.206 8.302,13.104 8.456,13.675 8.607 C 13.886 8.662,13.887 8.663,13.879 8.738 C 13.862 8.883,13.702 9.473,13.612 9.716 C 13.498 10.025,13.168 10.703,13.010 10.950 C 12.619 11.565,11.972 12.271,11.425 12.679 C 11.138 12.894,10.954 13.015,10.941 12.997 C 10.937 12.992,10.903 12.802,10.865 12.575 C 10.650 11.293,10.329 10.023,9.903 8.775 C 9.807 8.493,9.732 8.260,9.735 8.256 C 9.739 8.253,9.910 8.240,10.115 8.227 C 10.521 8.203,11.141 8.213,11.613 8.252 M8.779 8.588 C 9.243 9.781,9.702 11.581,9.935 13.120 L 9.993 13.502 9.903 13.540 C 9.536 13.693,8.879 13.870,8.425 13.938 C 8.046 13.994,7.350 14.013,6.955 13.977 C 5.921 13.886,4.951 13.564,4.075 13.024 C 3.811 12.860,3.395 12.552,3.382 12.510 C 3.371 12.476,3.840 11.848,4.178 11.444 C 4.505 11.055,5.182 10.375,5.533 10.086 C 6.377 9.389,7.279 8.885,8.225 8.580 C 8.729 8.418,8.713 8.418,8.779 8.588 " stroke="none" fill-rule="evenodd" fill="black"></path></svg>