<svg fill="none" viewBox="0 0 15 15" xmlns="http://www.w3.org/2000/svg"><path d="M7.025 0.016 C 6.062 0.107,5.488 0.236,4.737 0.531 C 3.056 1.191,1.618 2.499,0.812 4.102 C 0.103 5.511,-0.145 7.058,0.088 8.627 C 0.316 10.162,1.100 11.710,2.200 12.797 C 3.431 14.014,4.909 14.730,6.650 14.954 C 7.040 15.004,8.108 14.996,8.475 14.941 C 9.455 14.793,10.347 14.497,11.138 14.056 C 12.147 13.493,13.051 12.669,13.703 11.719 C 13.905 11.424,13.954 11.307,13.955 11.115 C 13.956 10.847,13.825 10.627,13.575 10.479 C 13.477 10.421,13.435 10.413,13.250 10.413 C 13.047 10.413,13.026 10.418,12.763 10.541 C 12.061 10.869,11.364 11.025,10.604 11.025 C 8.263 11.025,6.295 9.445,6.269 7.545 C 6.265 7.246,6.306 7.078,6.438 6.853 C 6.674 6.451,7.198 6.204,7.671 6.272 C 8.168 6.345,8.584 6.716,8.714 7.203 C 8.756 7.363,8.760 7.624,8.723 7.760 C 8.674 7.935,8.529 8.210,8.411 8.350 C 8.225 8.571,8.163 8.725,8.163 8.963 C 8.163 9.139,8.172 9.184,8.244 9.330 C 8.556 9.963,9.759 10.365,11.200 10.317 C 11.689 10.301,11.960 10.256,12.353 10.126 C 13.679 9.685,14.668 8.556,14.937 7.175 C 14.995 6.880,15.013 6.300,14.977 5.937 C 14.906 5.240,14.732 4.669,14.376 3.963 C 14.003 3.223,13.643 2.718,13.118 2.195 C 12.138 1.219,10.825 0.519,9.375 0.201 C 8.693 0.051,7.581 -0.036,7.025 0.016 M8.070 1.027 C 9.364 1.120,10.496 1.496,11.511 2.169 C 12.498 2.824,13.229 3.721,13.684 4.838 C 13.882 5.324,14.000 5.920,14.000 6.434 C 14.000 7.865,12.969 9.074,11.563 9.291 C 11.066 9.368,10.150 9.299,9.663 9.148 C 9.521 9.105,9.267 8.995,9.229 8.962 C 9.225 8.958,9.266 8.889,9.320 8.809 C 9.456 8.608,9.581 8.353,9.665 8.100 C 9.733 7.898,9.737 7.867,9.736 7.450 C 9.734 6.967,9.691 6.693,9.547 6.263 C 9.293 5.502,8.651 4.707,7.859 4.173 C 6.711 3.398,5.114 3.114,3.662 3.426 C 3.165 3.533,2.453 3.815,2.053 4.064 C 1.992 4.102,1.952 4.117,1.963 4.097 C 2.179 3.727,2.511 3.312,2.911 2.911 C 3.432 2.389,3.879 2.061,4.513 1.735 C 5.642 1.154,6.760 0.932,8.070 1.027 M5.479 4.339 C 6.186 4.438,6.789 4.660,7.332 5.024 C 7.692 5.264,7.691 5.261,7.418 5.268 C 6.320 5.296,4.875 6.402,4.213 7.722 C 4.001 8.146,3.814 8.755,3.737 9.275 C 3.680 9.660,3.698 10.472,3.771 10.825 C 3.984 11.848,4.423 12.684,5.136 13.421 L 5.338 13.629 5.188 13.574 C 4.941 13.484,4.354 13.194,4.100 13.037 C 3.245 12.507,2.476 11.733,1.964 10.889 C 1.460 10.058,1.151 9.158,1.049 8.225 C 1.009 7.861,1.008 7.148,1.047 6.963 C 1.300 5.760,2.351 4.784,3.777 4.428 C 4.286 4.300,4.952 4.266,5.479 4.339 M5.337 8.250 C 5.562 9.405,6.347 10.462,7.514 11.180 C 8.400 11.725,9.495 12.025,10.600 12.025 C 11.184 12.025,11.918 11.922,12.301 11.787 C 12.393 11.755,12.399 11.755,12.378 11.795 C 12.337 11.870,11.796 12.383,11.550 12.579 C 11.013 13.008,10.282 13.413,9.663 13.625 C 7.861 14.242,5.943 13.400,5.074 11.613 C 4.831 11.113,4.728 10.687,4.707 10.097 C 4.680 9.345,4.798 8.797,5.121 8.163 C 5.279 7.851,5.258 7.843,5.337 8.250 " stroke="none" fill-rule="evenodd" fill="black"></path></svg>