<svg fill="none" viewBox="0 0 15 15" xmlns="http://www.w3.org/2000/svg"><path d="M8.088 0.015 C 7.177 0.084,6.440 0.283,5.638 0.677 C 4.956 1.011,4.445 1.376,3.911 1.911 C 3.226 2.596,2.748 3.337,2.413 4.232 C 2.342 4.421,2.175 4.956,2.175 4.994 C 2.175 4.997,1.686 5.000,1.088 5.000 L 0.000 5.000 0.000 5.500 L 0.000 6.000 1.006 6.000 L 2.013 6.000 2.013 7.500 L 2.013 9.000 1.006 9.000 L 0.000 9.000 0.000 9.500 L 0.000 10.000 1.088 10.000 C 1.686 10.000,2.175 10.003,2.175 10.006 C 2.175 10.044,2.342 10.579,2.413 10.768 C 2.748 11.663,3.226 12.405,3.911 13.089 C 4.951 14.129,6.202 14.743,7.713 14.955 C 8.005 14.996,8.995 14.996,9.287 14.955 C 10.798 14.743,12.048 14.130,13.089 13.089 C 13.421 12.758,13.793 12.306,13.759 12.277 C 13.707 12.231,13.016 11.745,12.988 11.734 C 12.970 11.727,12.885 11.813,12.794 11.930 C 11.792 13.211,10.150 14.001,8.488 14.000 C 6.347 13.998,4.383 12.726,3.493 10.763 C 3.384 10.522,3.225 10.087,3.225 10.028 C 3.225 10.007,3.725 10.000,5.113 10.000 L 7.000 10.000 7.000 9.500 L 7.000 9.000 5.016 9.000 L 3.032 9.000 3.016 8.809 C 2.995 8.560,2.995 6.440,3.016 6.191 L 3.032 6.000 5.016 6.000 L 7.000 6.000 7.000 5.500 L 7.000 5.000 5.113 5.000 C 3.725 5.000,3.225 4.993,3.225 4.972 C 3.225 4.913,3.384 4.478,3.493 4.237 C 4.661 1.662,7.561 0.398,10.250 1.293 C 11.236 1.621,12.171 2.274,12.793 3.069 C 12.882 3.182,12.963 3.275,12.974 3.275 C 12.989 3.275,13.734 2.749,13.771 2.713 C 13.793 2.690,13.364 2.185,13.089 1.911 C 12.075 0.896,10.800 0.262,9.374 0.063 C 9.099 0.025,8.332 -0.004,8.088 0.015 " stroke="none" fill-rule="evenodd" fill="black"></path></svg>