<svg fill="none" viewBox="0 0 15 15" xmlns="http://www.w3.org/2000/svg"><path d="M6.868 2.028 C 5.448 2.137,4.086 2.678,2.875 3.614 C 2.521 3.888,1.708 4.694,1.421 5.055 C 0.855 5.770,0.282 6.697,0.072 7.238 C -0.035 7.513,-0.022 7.591,0.198 8.036 C 0.676 9.002,1.275 9.845,2.023 10.609 C 2.658 11.256,3.201 11.678,3.904 12.071 C 6.284 13.401,9.255 13.299,11.537 11.807 C 12.432 11.222,13.282 10.391,13.966 9.432 C 14.337 8.911,14.781 8.141,14.928 7.763 C 15.027 7.506,15.018 7.419,14.854 7.070 C 14.181 5.632,13.014 4.226,11.763 3.347 C 10.338 2.345,8.651 1.891,6.868 2.028 M8.376 3.060 C 10.254 3.316,11.870 4.362,13.151 6.151 C 13.375 6.464,13.690 6.981,13.848 7.297 L 13.951 7.500 13.848 7.703 C 13.445 8.505,12.835 9.344,12.176 10.000 C 11.177 10.996,10.046 11.621,8.787 11.872 C 8.308 11.968,8.095 11.987,7.500 11.987 C 6.905 11.987,6.692 11.968,6.213 11.872 C 4.521 11.534,3.033 10.503,1.849 8.849 C 1.625 8.536,1.310 8.019,1.152 7.703 L 1.049 7.500 1.152 7.297 C 1.818 5.971,2.924 4.719,4.070 3.993 C 4.394 3.788,4.948 3.512,5.288 3.387 C 5.757 3.214,6.376 3.077,6.925 3.025 C 7.239 2.996,8.046 3.015,8.376 3.060 M7.145 5.025 C 6.777 5.084,6.388 5.237,6.082 5.445 C 5.597 5.775,5.246 6.273,5.081 6.868 C 5.021 7.085,5.014 7.155,5.014 7.500 C 5.014 7.846,5.021 7.914,5.082 8.136 C 5.297 8.910,5.848 9.533,6.575 9.822 C 7.709 10.273,9.039 9.819,9.652 8.771 C 10.314 7.640,9.991 6.174,8.918 5.445 C 8.698 5.296,8.339 5.134,8.099 5.075 C 7.857 5.016,7.365 4.990,7.145 5.025 M7.813 6.038 C 8.237 6.127,8.646 6.442,8.834 6.825 C 9.128 7.425,9.020 8.087,8.552 8.551 C 8.334 8.767,8.141 8.879,7.860 8.951 C 7.507 9.041,7.124 8.994,6.792 8.820 C 6.564 8.701,6.281 8.409,6.166 8.175 C 5.872 7.575,5.980 6.916,6.448 6.448 C 6.819 6.076,7.303 5.931,7.813 6.038 " fill="currentColor" stroke="none" fill-rule="evenodd"></path></svg>