<svg fill="none" viewBox="0 0 15 15" xmlns="http://www.w3.org/2000/svg"><path d="M6.925 0.027 C 5.072 0.176,3.307 1.178,2.230 2.693 C 1.514 3.699,1.111 4.826,1.025 6.063 C 0.993 6.518,0.993 8.221,1.025 8.750 C 1.105 10.071,1.301 11.225,1.665 12.513 C 1.742 12.788,1.812 13.038,1.819 13.070 C 1.826 13.102,1.844 13.123,1.859 13.117 C 1.875 13.112,2.093 13.047,2.345 12.974 C 2.639 12.889,2.798 12.831,2.791 12.813 C 2.785 12.797,2.722 12.579,2.652 12.328 C 2.171 10.621,1.999 9.312,2.000 7.353 C 2.001 5.884,2.081 5.279,2.376 4.515 C 2.790 3.444,3.517 2.536,4.461 1.913 C 5.596 1.164,6.902 0.872,8.250 1.066 C 8.967 1.169,9.528 1.370,10.263 1.788 C 10.444 1.891,10.598 1.975,10.606 1.975 C 10.623 1.975,11.100 1.160,11.100 1.132 C 11.099 1.105,10.574 0.807,10.238 0.642 C 9.626 0.342,8.998 0.153,8.323 0.065 C 7.948 0.016,7.285 -0.002,6.925 0.027 M12.332 3.083 L 11.905 3.339 12.093 3.663 C 12.504 4.374,12.710 4.911,12.856 5.651 C 12.910 5.926,12.912 5.981,12.905 7.063 C 12.898 8.268,12.914 8.558,13.014 9.040 C 13.126 9.585,13.309 10.045,13.660 10.671 C 13.772 10.871,13.814 10.925,13.846 10.913 C 13.913 10.887,14.675 10.447,14.675 10.434 C 14.675 10.428,14.606 10.302,14.521 10.155 C 14.244 9.676,14.075 9.252,13.988 8.818 C 13.904 8.397,13.877 7.619,13.926 7.000 C 13.970 6.428,13.890 5.587,13.735 5.000 C 13.544 4.276,13.300 3.720,12.846 2.970 L 12.759 2.827 12.332 3.083 M6.900 3.061 C 6.074 3.209,5.375 3.599,4.851 4.204 C 4.278 4.867,4.014 5.580,3.982 6.556 L 3.967 7.000 4.471 7.000 L 4.975 7.000 4.975 6.794 C 4.976 5.888,5.189 5.290,5.697 4.766 C 6.011 4.443,6.374 4.230,6.840 4.095 C 7.014 4.044,7.090 4.038,7.475 4.039 C 7.877 4.041,7.931 4.047,8.138 4.110 C 8.970 4.363,9.605 5.013,9.839 5.851 C 9.903 6.078,9.906 6.122,9.926 6.988 C 9.937 7.483,9.959 7.989,9.974 8.113 C 10.125 9.367,10.504 10.463,11.142 11.495 C 11.379 11.879,11.802 12.451,11.835 12.432 C 11.940 12.369,12.600 11.867,12.600 11.850 C 12.600 11.838,12.513 11.712,12.408 11.571 C 12.083 11.135,11.881 10.806,11.664 10.363 C 11.358 9.736,11.190 9.238,11.066 8.588 C 10.972 8.092,10.949 7.812,10.925 6.875 C 10.902 5.950,10.891 5.860,10.745 5.400 C 10.468 4.528,9.764 3.731,8.931 3.348 C 8.699 3.241,8.399 3.138,8.175 3.088 C 7.921 3.031,7.157 3.015,6.900 3.061 M6.957 7.394 C 6.967 8.623,6.975 8.841,7.023 9.236 C 7.150 10.284,7.366 11.147,7.738 12.088 C 8.052 12.884,8.337 13.423,8.856 14.205 L 9.182 14.697 9.535 14.455 C 9.729 14.322,9.915 14.193,9.948 14.170 L 10.007 14.128 9.718 13.695 C 9.019 12.649,8.589 11.706,8.288 10.563 C 8.022 9.551,7.952 8.808,7.951 6.956 L 7.950 6.000 7.447 6.000 L 6.945 6.000 6.957 7.394 M4.407 9.010 C 4.157 9.040,3.946 9.070,3.940 9.077 C 3.933 9.084,3.955 9.309,3.989 9.576 C 4.204 11.272,4.609 12.638,5.351 14.169 L 5.597 14.676 6.036 14.457 C 6.277 14.337,6.475 14.225,6.475 14.209 C 6.475 14.193,6.386 14.000,6.276 13.779 C 5.564 12.342,5.186 11.065,4.975 9.388 C 4.948 9.168,4.925 8.979,4.925 8.969 C 4.925 8.946,4.969 8.943,4.407 9.010 " stroke="none" fill-rule="evenodd" fill="black"></path></svg>