<svg fill="none" viewBox="0 0 15 15" xmlns="http://www.w3.org/2000/svg"><path d="M1.169 1.038 C 0.780 1.116,0.332 1.468,0.154 1.835 C -0.008 2.171,0.001 1.830,0.001 7.500 C 0.001 13.168,-0.008 12.828,0.154 13.165 C 0.269 13.405,0.595 13.731,0.835 13.846 C 1.174 14.009,0.734 13.999,7.500 13.999 C 14.266 13.999,13.826 14.009,14.165 13.846 C 14.405 13.731,14.731 13.405,14.846 13.165 C 15.007 12.831,14.999 13.071,14.999 8.500 C 14.999 3.928,15.007 4.169,14.846 3.835 C 14.719 3.573,14.426 3.287,14.150 3.156 C 14.033 3.100,13.864 3.042,13.773 3.027 C 13.660 3.009,12.681 3.000,10.660 3.000 L 7.712 3.000 6.712 2.000 L 5.713 1.000 3.525 1.002 C 1.806 1.004,1.301 1.012,1.169 1.038 M6.287 3.000 L 7.287 3.999 10.475 4.006 L 13.663 4.013 13.759 4.079 C 13.811 4.115,13.885 4.189,13.921 4.241 L 13.988 4.338 13.988 8.500 L 13.988 12.663 13.915 12.769 C 13.876 12.827,13.803 12.900,13.753 12.931 L 13.663 12.988 7.500 12.988 L 1.338 12.988 1.247 12.931 C 1.197 12.900,1.124 12.827,1.085 12.769 L 1.012 12.663 1.012 7.498 L 1.012 2.333 1.081 2.235 C 1.146 2.140,1.258 2.055,1.363 2.021 C 1.390 2.012,2.284 2.004,3.350 2.002 L 5.288 2.000 6.287 3.000 M5.487 6.500 L 5.138 6.850 5.963 7.675 L 6.787 8.500 5.969 9.319 L 5.150 10.138 5.506 10.494 L 5.862 10.850 6.681 10.031 L 7.500 9.213 8.319 10.031 L 9.138 10.850 9.494 10.494 L 9.850 10.138 9.031 9.319 L 8.213 8.500 9.038 7.675 L 9.862 6.850 9.506 6.494 L 9.150 6.138 8.325 6.962 L 7.500 7.787 6.681 6.969 C 6.231 6.518,5.857 6.150,5.850 6.150 C 5.843 6.150,5.680 6.308,5.487 6.500 " stroke="none" fill-rule="evenodd" fill="black"></path></svg>