<svg fill="none" viewBox="0 0 15 15" xmlns="http://www.w3.org/2000/svg"><path d="M3.071 2.028 C 2.645 2.078,2.165 2.237,1.787 2.453 C 1.465 2.638,1.240 2.814,0.970 3.096 C 0.597 3.484,0.353 3.887,0.188 4.383 C 0.004 4.937,0.016 4.723,0.007 7.646 C -0.001 9.913,0.004 10.311,0.036 10.500 C 0.257 11.780,1.236 12.754,2.514 12.964 C 2.828 13.016,3.321 13.000,3.614 12.928 C 4.565 12.694,5.222 12.161,5.689 11.244 L 5.813 11.000 7.501 11.000 L 9.189 11.000 9.297 11.219 C 9.835 12.310,10.767 12.942,11.913 12.991 C 13.414 13.056,14.728 11.977,14.963 10.485 C 14.997 10.270,15.001 9.900,14.994 7.625 C 14.984 4.722,14.996 4.937,14.810 4.376 C 14.632 3.841,14.342 3.390,13.908 2.974 C 13.422 2.509,12.893 2.229,12.195 2.068 L 11.963 2.014 7.613 2.010 C 5.196 2.008,3.177 2.016,3.071 2.028 M12.099 3.070 C 12.529 3.185,12.960 3.432,13.264 3.736 C 13.569 4.040,13.816 4.473,13.929 4.901 C 13.986 5.112,13.986 5.114,13.994 7.613 C 14.004 10.313,14.002 10.354,13.872 10.713 C 13.728 11.110,13.391 11.514,13.022 11.732 C 12.399 12.100,11.585 12.080,10.967 11.683 C 10.599 11.447,10.430 11.236,10.137 10.650 C 9.896 10.167,9.872 10.133,9.715 10.060 L 9.588 10.000 7.500 10.000 L 5.413 10.000 5.285 10.060 C 5.128 10.133,5.104 10.167,4.863 10.650 C 4.646 11.085,4.515 11.283,4.330 11.456 C 3.801 11.950,3.051 12.122,2.375 11.903 C 2.075 11.806,1.867 11.683,1.635 11.467 C 1.306 11.161,1.088 10.747,1.026 10.313 C 1.005 10.170,1.000 9.394,1.006 7.613 C 1.014 5.114,1.014 5.112,1.071 4.901 C 1.137 4.652,1.300 4.296,1.451 4.072 C 1.815 3.533,2.473 3.127,3.145 3.027 C 3.224 3.015,5.223 3.007,7.588 3.010 L 11.888 3.014 12.099 3.070 M4.000 5.500 L 4.000 6.000 3.500 6.000 L 3.000 6.000 3.000 6.500 L 3.000 7.000 3.500 7.000 L 4.000 7.000 4.000 7.500 L 4.000 8.000 4.500 8.000 L 5.000 8.000 5.000 7.500 L 5.000 7.000 5.500 7.000 L 6.000 7.000 6.000 6.500 L 6.000 6.000 5.500 6.000 L 5.000 6.000 5.000 5.500 L 5.000 5.000 4.500 5.000 L 4.000 5.000 4.000 5.500 M11.000 5.500 L 11.000 6.000 11.500 6.000 L 12.000 6.000 12.000 5.500 L 12.000 5.000 11.500 5.000 L 11.000 5.000 11.000 5.500 M9.000 7.500 L 9.000 8.000 9.500 8.000 L 10.000 8.000 10.000 7.500 L 10.000 7.000 9.500 7.000 L 9.000 7.000 9.000 7.500 " fill="currentColor" stroke="none" fill-rule="evenodd"></path></svg>