<svg fill="none" viewBox="0 0 15 15" xmlns="http://www.w3.org/2000/svg"><path d="M6.927 0.026 C 5.636 0.151,4.446 0.630,3.425 1.436 C 3.169 1.638,2.597 2.216,2.396 2.475 C 1.594 3.511,1.142 4.656,1.025 5.950 C 1.005 6.170,0.999 7.321,1.005 9.850 L 1.012 13.438 1.071 13.613 C 1.190 13.966,1.332 14.201,1.565 14.435 C 2.105 14.975,2.876 15.139,3.597 14.867 C 3.860 14.768,4.026 14.661,4.303 14.407 C 4.420 14.300,4.573 14.182,4.642 14.144 C 4.988 13.956,5.512 13.956,5.859 14.144 C 5.928 14.182,6.094 14.314,6.228 14.438 C 6.512 14.701,6.709 14.825,6.988 14.918 C 7.161 14.975,7.229 14.984,7.500 14.984 C 7.771 14.984,7.839 14.975,8.013 14.918 C 8.291 14.825,8.488 14.701,8.772 14.438 C 9.047 14.184,9.195 14.093,9.427 14.039 C 9.891 13.929,10.326 14.050,10.675 14.385 C 10.969 14.667,11.158 14.786,11.504 14.905 C 11.721 14.979,11.761 14.985,12.075 14.985 C 12.426 14.986,12.510 14.971,12.800 14.857 C 13.265 14.674,13.673 14.266,13.857 13.800 C 13.994 13.453,13.988 13.670,13.988 9.650 C 13.988 6.240,13.984 5.888,13.944 5.631 C 13.759 4.420,13.333 3.417,12.603 2.475 C 12.402 2.215,11.830 1.637,11.575 1.436 C 11.058 1.027,10.315 0.609,9.716 0.388 C 9.374 0.262,8.870 0.137,8.459 0.075 C 8.059 0.016,7.290 -0.009,6.927 0.026 M8.000 1.026 C 9.275 1.143,10.477 1.707,11.385 2.615 C 12.304 3.534,12.866 4.744,12.975 6.038 C 12.994 6.259,13.000 7.469,12.995 9.838 L 12.988 13.313 12.922 13.450 C 12.825 13.654,12.674 13.810,12.480 13.905 C 12.329 13.980,12.292 13.988,12.088 13.988 C 11.895 13.988,11.842 13.978,11.718 13.920 C 11.638 13.883,11.509 13.791,11.430 13.717 C 11.070 13.378,10.729 13.176,10.338 13.071 C 10.048 12.993,9.450 12.993,9.162 13.071 C 8.758 13.182,8.470 13.351,8.092 13.698 C 7.834 13.935,7.708 14.000,7.500 14.000 C 7.292 14.000,7.166 13.935,6.908 13.698 C 6.530 13.351,6.242 13.182,5.838 13.071 C 5.550 12.993,4.952 12.993,4.663 13.071 C 4.271 13.176,3.930 13.378,3.570 13.717 C 3.491 13.791,3.362 13.883,3.282 13.920 C 3.158 13.978,3.105 13.988,2.913 13.988 C 2.721 13.988,2.666 13.978,2.546 13.921 C 2.347 13.828,2.190 13.674,2.094 13.479 L 2.013 13.314 2.005 9.838 C 2.000 7.469,2.006 6.259,2.025 6.038 C 2.134 4.743,2.695 3.535,3.615 2.615 C 4.771 1.459,6.375 0.878,8.000 1.026 M5.000 5.500 L 5.000 6.000 5.500 6.000 L 6.000 6.000 6.000 5.500 L 6.000 5.000 5.500 5.000 L 5.000 5.000 5.000 5.500 M9.000 5.500 L 9.000 6.000 9.500 6.000 L 10.000 6.000 10.000 5.500 L 10.000 5.000 9.500 5.000 L 9.000 5.000 9.000 5.500 M4.492 8.006 L 4.098 8.302 4.255 8.492 C 4.842 9.203,5.707 9.713,6.674 9.918 C 6.955 9.978,7.040 9.985,7.500 9.985 C 7.960 9.985,8.045 9.978,8.326 9.918 C 8.933 9.789,9.494 9.546,9.973 9.205 C 10.214 9.034,10.607 8.665,10.796 8.433 L 10.902 8.303 10.509 8.007 L 10.115 7.710 9.814 8.014 C 9.311 8.519,8.817 8.790,8.119 8.942 C 7.831 9.004,7.169 9.004,6.881 8.942 C 6.183 8.790,5.689 8.519,5.186 8.014 L 4.885 7.710 4.492 8.006 " fill="currentColor" stroke="none" fill-rule="evenodd"></path></svg>