<svg fill="none" viewBox="0 0 15 15" xmlns="http://www.w3.org/2000/svg"><path d="M7.000 2.025 L 7.000 4.050 6.941 4.050 C 6.828 4.050,6.406 4.171,6.160 4.274 C 5.723 4.456,5.410 4.665,5.054 5.010 C 3.652 6.371,3.652 8.629,5.054 9.990 C 5.525 10.448,6.001 10.718,6.638 10.889 C 6.761 10.923,6.893 10.950,6.931 10.950 L 7.000 10.950 7.000 12.975 L 7.000 15.000 7.500 15.000 L 8.000 15.000 8.000 12.975 L 8.000 10.950 8.069 10.950 C 8.275 10.950,8.885 10.735,9.213 10.547 C 10.171 9.997,10.806 9.069,10.963 7.988 C 11.189 6.423,10.313 4.889,8.840 4.274 C 8.594 4.171,8.172 4.050,8.059 4.050 L 8.000 4.050 8.000 2.025 L 8.000 0.000 7.500 0.000 L 7.000 0.000 7.000 2.025 M7.878 5.037 C 8.796 5.175,9.569 5.828,9.873 6.722 C 9.936 6.906,10.000 7.300,10.000 7.500 C 10.000 7.701,9.935 8.094,9.873 8.278 C 9.576 9.145,8.872 9.767,7.983 9.948 C 6.602 10.230,5.248 9.278,5.037 7.878 C 4.991 7.576,4.991 7.424,5.037 7.122 C 5.196 6.061,6.047 5.202,7.099 5.038 C 7.385 4.994,7.590 4.993,7.878 5.037 " stroke="none" fill-rule="evenodd" fill="black"></path></svg>