<svg fill="none" viewBox="0 0 15 15" xmlns="http://www.w3.org/2000/svg"><path d="M4.995 1.248 L 4.988 1.498 4.775 1.375 C 4.586 1.266,4.560 1.257,4.539 1.295 C 4.527 1.318,3.513 3.121,2.287 5.300 C 1.062 7.479,0.046 9.301,0.029 9.347 C -0.040 9.548,-0.058 9.508,1.025 11.674 L 2.050 13.726 2.275 13.613 L 2.500 13.499 2.500 13.750 L 2.500 14.000 7.528 14.000 C 11.277 14.000,12.581 13.993,12.654 13.971 C 12.855 13.910,12.868 13.888,13.939 11.748 L 14.950 9.725 14.738 9.619 C 14.621 9.561,14.525 9.508,14.525 9.501 C 14.525 9.493,14.615 9.437,14.725 9.375 C 14.835 9.313,14.925 9.256,14.925 9.248 C 14.925 9.226,10.481 1.327,10.410 1.223 C 10.377 1.174,10.302 1.107,10.243 1.073 L 10.138 1.012 7.570 1.006 L 5.002 0.999 4.995 1.248 M11.669 5.484 C 12.745 7.400,13.625 8.974,13.625 8.983 C 13.625 8.993,12.872 9.000,11.952 9.000 L 10.278 9.000 8.091 5.500 L 5.903 2.000 7.808 2.001 L 9.713 2.002 11.669 5.484 M5.956 3.972 C 6.461 4.781,6.880 5.459,6.887 5.478 C 6.900 5.511,2.597 12.429,2.555 12.444 C 2.545 12.447,2.207 11.789,1.803 10.981 L 1.069 9.511 3.041 6.006 C 4.125 4.078,5.018 2.500,5.025 2.501 C 5.032 2.501,5.451 3.163,5.956 3.972 M8.308 7.738 L 9.097 9.000 7.500 9.000 L 5.903 9.000 6.692 7.738 C 7.126 7.043,7.490 6.475,7.500 6.475 C 7.510 6.475,7.874 7.043,8.308 7.738 M13.675 10.012 C 13.675 10.019,13.340 10.694,12.931 11.512 L 12.188 13.000 7.795 13.000 L 3.403 13.000 4.341 11.500 L 5.278 10.000 9.477 10.000 C 11.786 10.000,13.675 10.006,13.675 10.012 " stroke="none" fill-rule="evenodd" fill="black"></path></svg>