<svg fill="none" viewBox="0 0 15 15" xmlns="http://www.w3.org/2000/svg"><path d="M7.000 0.018 C 6.747 0.033,6.266 0.101,5.950 0.166 C 3.116 0.747,0.824 3.004,0.188 5.838 C 0.044 6.478,0.016 6.756,0.016 7.500 C 0.016 8.244,0.044 8.522,0.188 9.162 C 0.572 10.875,1.567 12.410,2.996 13.494 C 3.991 14.249,5.139 14.724,6.475 14.932 C 6.965 15.008,8.035 15.008,8.525 14.932 C 9.863 14.723,11.008 14.249,12.008 13.491 C 13.610 12.276,14.620 10.562,14.928 8.538 C 14.962 8.318,14.983 8.017,14.993 7.606 L 15.007 7.000 11.504 7.000 L 8.000 7.000 8.000 7.500 L 8.000 8.000 10.988 8.000 L 13.975 8.000 13.975 8.056 C 13.975 8.199,13.867 8.820,13.790 9.126 C 13.678 9.571,13.563 9.876,13.326 10.363 C 13.130 10.764,12.840 11.226,12.564 11.575 C 12.363 11.830,11.785 12.402,11.525 12.603 C 10.030 13.761,8.209 14.218,6.363 13.899 C 5.333 13.721,4.346 13.278,3.475 12.603 C 3.215 12.402,2.637 11.830,2.436 11.575 C 2.027 11.058,1.609 10.315,1.388 9.716 C 1.263 9.376,1.137 8.873,1.072 8.446 C 0.992 7.932,0.992 7.068,1.072 6.554 C 1.183 5.832,1.349 5.304,1.674 4.638 C 2.000 3.970,2.373 3.449,2.911 2.911 C 3.449 2.373,3.970 2.000,4.638 1.674 C 5.119 1.439,5.421 1.325,5.863 1.212 C 6.447 1.062,6.831 1.016,7.500 1.016 C 8.169 1.016,8.553 1.062,9.137 1.212 C 10.159 1.474,11.188 2.044,11.963 2.779 L 12.139 2.946 12.501 2.598 L 12.863 2.250 12.675 2.073 C 11.128 0.617,9.115 -0.112,7.000 0.018 " fill="currentColor" stroke="none" fill-rule="evenodd"></path></svg>