<svg fill="none" viewBox="0 0 15 15" xmlns="http://www.w3.org/2000/svg"><path d="M7.175 0.039 C 6.644 0.153,6.163 0.622,6.048 1.138 C 6.025 1.239,5.998 1.290,5.952 1.322 C 5.917 1.346,5.120 1.813,4.182 2.360 L 2.476 3.353 2.362 3.275 C 1.753 2.855,0.967 2.926,0.449 3.448 C 0.233 3.666,0.121 3.859,0.049 4.140 C -0.041 4.493,0.006 4.876,0.180 5.208 C 0.299 5.436,0.592 5.720,0.817 5.827 L 0.997 5.913 0.997 7.500 L 0.997 9.088 0.817 9.173 C 0.592 9.280,0.299 9.564,0.180 9.792 C 0.075 9.991,-0.000 10.288,-0.000 10.500 C -0.000 10.712,0.075 11.009,0.180 11.208 C 0.286 11.411,0.589 11.714,0.792 11.820 C 1.299 12.086,1.890 12.048,2.368 11.721 L 2.473 11.649 4.240 12.681 L 6.007 13.713 6.060 13.900 C 6.139 14.174,6.238 14.339,6.449 14.551 C 6.666 14.767,6.857 14.878,7.140 14.951 C 7.385 15.013,7.615 15.013,7.860 14.951 C 8.143 14.878,8.334 14.767,8.551 14.551 C 8.762 14.339,8.861 14.174,8.940 13.900 L 8.993 13.713 10.760 12.681 L 12.527 11.649 12.632 11.721 C 12.889 11.897,13.210 12.000,13.500 12.000 C 13.712 12.000,14.009 11.925,14.208 11.820 C 14.411 11.714,14.714 11.411,14.820 11.208 C 14.925 11.009,15.000 10.712,15.000 10.500 C 15.000 10.288,14.925 9.991,14.820 9.792 C 14.701 9.564,14.408 9.280,14.183 9.173 L 14.003 9.088 14.003 7.500 L 14.003 5.913 14.183 5.827 C 14.408 5.720,14.701 5.436,14.820 5.208 C 14.994 4.876,15.041 4.493,14.951 4.140 C 14.879 3.859,14.767 3.666,14.551 3.448 C 14.033 2.926,13.247 2.855,12.638 3.275 L 12.524 3.353 10.818 2.360 C 9.880 1.813,9.083 1.346,9.048 1.322 C 9.002 1.290,8.975 1.239,8.952 1.138 C 8.866 0.753,8.539 0.345,8.175 0.166 C 7.854 0.009,7.515 -0.034,7.175 0.039 M7.775 1.084 C 7.924 1.183,7.988 1.308,7.988 1.500 C 7.988 1.695,7.924 1.817,7.767 1.920 C 7.628 2.013,7.384 2.016,7.242 1.928 C 7.053 1.811,6.964 1.577,7.024 1.355 C 7.058 1.227,7.211 1.063,7.330 1.027 C 7.461 0.987,7.667 1.013,7.775 1.084 M6.273 2.360 C 6.297 2.389,5.898 3.004,4.173 5.592 C 3.002 7.349,2.034 8.798,2.022 8.811 C 2.009 8.825,2.001 8.218,2.001 7.374 L 2.003 5.913 2.183 5.827 C 2.408 5.720,2.701 5.436,2.820 5.208 C 2.944 4.972,3.004 4.706,2.995 4.438 L 2.988 4.214 4.600 3.271 C 5.487 2.752,6.220 2.327,6.228 2.326 C 6.237 2.326,6.257 2.341,6.273 2.360 M10.400 3.270 L 12.013 4.213 12.005 4.438 C 11.996 4.706,12.056 4.972,12.180 5.208 C 12.299 5.436,12.592 5.720,12.817 5.827 L 12.997 5.913 12.999 7.374 C 12.999 8.218,12.991 8.825,12.978 8.811 C 12.966 8.798,11.998 7.349,10.827 5.592 C 9.102 3.004,8.703 2.389,8.727 2.360 C 8.743 2.341,8.763 2.325,8.772 2.326 C 8.780 2.327,9.513 2.751,10.400 3.270 M7.500 2.988 C 7.617 2.988,7.748 2.980,7.790 2.970 L 7.868 2.953 10.083 6.275 L 12.298 9.597 12.211 9.742 C 12.162 9.822,12.117 9.913,12.109 9.944 L 12.095 10.000 7.500 10.000 L 2.905 10.000 2.891 9.944 C 2.883 9.913,2.838 9.822,2.789 9.742 L 2.702 9.597 4.917 6.275 L 7.132 2.953 7.210 2.970 C 7.252 2.980,7.383 2.988,7.500 2.988 M1.775 4.084 C 1.924 4.183,1.988 4.308,1.988 4.500 C 1.988 4.695,1.924 4.817,1.767 4.920 C 1.628 5.013,1.384 5.016,1.242 4.928 C 1.053 4.811,0.964 4.577,1.024 4.355 C 1.058 4.227,1.211 4.063,1.330 4.027 C 1.461 3.987,1.667 4.013,1.775 4.084 M13.775 4.084 C 13.924 4.183,13.988 4.308,13.988 4.500 C 13.988 4.695,13.924 4.817,13.767 4.920 C 13.628 5.013,13.384 5.016,13.242 4.928 C 13.053 4.811,12.964 4.577,13.024 4.355 C 13.058 4.227,13.211 4.063,13.330 4.027 C 13.461 3.987,13.667 4.013,13.775 4.084 M1.775 10.084 C 1.924 10.183,1.988 10.308,1.988 10.500 C 1.988 10.695,1.924 10.817,1.767 10.920 C 1.628 11.013,1.384 11.016,1.242 10.928 C 1.053 10.811,0.964 10.577,1.024 10.355 C 1.058 10.227,1.211 10.063,1.330 10.027 C 1.461 9.987,1.667 10.013,1.775 10.084 M13.775 10.084 C 13.924 10.183,13.988 10.308,13.988 10.500 C 13.988 10.695,13.924 10.817,13.767 10.920 C 13.628 11.013,13.384 11.016,13.242 10.928 C 13.053 10.811,12.964 10.577,13.024 10.355 C 13.058 10.227,13.211 10.063,13.330 10.027 C 13.461 9.987,13.667 10.013,13.775 10.084 M11.611 11.021 C 11.598 11.033,10.956 11.410,10.183 11.860 L 8.779 12.677 8.571 12.467 C 8.412 12.308,8.318 12.235,8.175 12.166 C 7.733 11.950,7.267 11.950,6.825 12.166 C 6.682 12.235,6.588 12.308,6.429 12.467 L 6.221 12.677 4.817 11.860 C 4.044 11.410,3.402 11.033,3.389 11.021 C 3.376 11.009,5.226 11.000,7.500 11.000 C 9.774 11.000,11.624 11.009,11.611 11.021 M7.775 13.084 C 7.924 13.183,7.988 13.308,7.988 13.500 C 7.988 13.695,7.924 13.817,7.767 13.920 C 7.628 14.013,7.384 14.016,7.242 13.928 C 7.053 13.811,6.964 13.577,7.024 13.355 C 7.058 13.227,7.211 13.063,7.330 13.027 C 7.461 12.987,7.667 13.013,7.775 13.084 " fill="currentColor" stroke="none" fill-rule="evenodd"></path></svg>