<svg fill="none" viewBox="0 0 15 15" xmlns="http://www.w3.org/2000/svg"><path d="M0.508 1.121 C 0.277 1.201,0.123 1.357,0.038 1.597 C 0.004 1.694,0.000 2.249,0.000 6.502 L 0.000 11.298 0.054 11.441 C 0.125 11.632,0.293 11.800,0.484 11.871 C 0.673 11.942,0.760 11.939,1.101 11.849 C 3.007 11.346,4.730 11.069,6.313 11.013 C 6.533 11.005,6.777 10.993,6.856 10.986 L 7.000 10.973 7.000 11.986 L 7.000 13.000 4.500 13.000 L 2.000 13.000 2.000 13.500 L 2.000 14.000 7.500 14.000 L 13.000 14.000 13.000 13.500 L 13.000 13.000 10.500 13.000 L 8.000 13.000 8.000 11.986 L 8.000 10.973 8.144 10.986 C 8.223 10.993,8.467 11.005,8.688 11.013 C 10.270 11.069,11.993 11.346,13.899 11.849 C 14.240 11.939,14.327 11.942,14.516 11.871 C 14.707 11.800,14.875 11.632,14.946 11.441 L 15.000 11.298 15.000 6.500 C 15.000 1.757,14.999 1.700,14.950 1.568 C 14.883 1.389,14.753 1.242,14.592 1.163 C 14.356 1.048,14.273 1.052,13.686 1.207 C 11.569 1.765,9.600 2.025,7.500 2.025 C 5.398 2.025,3.395 1.759,1.288 1.201 C 1.026 1.132,0.773 1.075,0.725 1.076 C 0.677 1.076,0.579 1.097,0.508 1.121 M1.975 2.399 C 5.308 3.162,8.711 3.229,12.088 2.597 C 12.521 2.516,13.429 2.312,13.781 2.217 L 14.000 2.158 14.000 6.502 L 14.000 10.846 13.835 10.799 C 13.556 10.719,12.711 10.526,12.250 10.437 C 9.120 9.829,5.880 9.829,2.750 10.437 C 2.289 10.526,1.444 10.719,1.165 10.799 L 1.000 10.846 1.000 6.502 L 1.000 2.158 1.219 2.217 C 1.339 2.249,1.679 2.331,1.975 2.399 " stroke="none" fill-rule="evenodd" fill="black"></path></svg>