<svg fill="none" viewBox="0 0 15 15" xmlns="http://www.w3.org/2000/svg"><path d="M7.025 0.014 C 6.977 0.020,6.814 0.037,6.663 0.052 C 5.409 0.177,4.067 0.704,3.040 1.474 C 1.293 2.785,0.215 4.713,0.027 6.863 C 0.012 7.037,0.000 7.911,0.000 8.946 C 0.000 10.650,0.002 10.741,0.052 10.983 C 0.223 11.824,0.781 12.497,1.570 12.815 C 2.143 13.046,2.726 13.057,3.165 12.846 C 3.405 12.731,3.731 12.405,3.846 12.165 C 4.001 11.843,3.999 11.878,3.999 9.500 C 3.999 7.121,4.001 7.157,3.846 6.835 C 3.719 6.573,3.426 6.287,3.150 6.156 C 2.822 6.000,2.563 5.970,2.121 6.037 C 1.829 6.081,1.589 6.162,1.307 6.312 L 1.094 6.425 1.112 6.306 C 1.142 6.101,1.294 5.540,1.388 5.284 C 1.502 4.975,1.832 4.297,1.990 4.050 C 2.497 3.254,3.254 2.497,4.050 1.990 C 4.297 1.832,4.975 1.502,5.284 1.388 C 5.624 1.263,6.127 1.137,6.554 1.072 C 7.068 0.992,7.932 0.992,8.446 1.072 C 8.873 1.137,9.376 1.263,9.716 1.388 C 10.025 1.502,10.703 1.832,10.950 1.990 C 11.746 2.497,12.503 3.254,13.010 4.050 C 13.168 4.297,13.498 4.975,13.612 5.284 C 13.706 5.540,13.858 6.101,13.888 6.306 L 13.906 6.425 13.693 6.312 C 13.576 6.250,13.400 6.171,13.301 6.136 C 13.104 6.067,12.713 6.000,12.508 6.000 C 12.289 6.000,12.011 6.067,11.818 6.166 C 11.571 6.294,11.268 6.599,11.154 6.835 C 10.999 7.157,11.001 7.121,11.001 9.500 C 11.001 11.878,10.999 11.843,11.154 12.165 C 11.262 12.389,11.596 12.731,11.806 12.832 C 11.885 12.870,11.950 12.909,11.950 12.918 C 11.950 12.927,11.904 13.030,11.847 13.148 C 11.713 13.427,11.427 13.719,11.165 13.846 C 10.858 13.994,10.801 13.999,9.331 14.000 L 8.000 14.000 8.000 14.500 L 8.000 15.000 9.365 15.000 C 10.628 15.000,10.748 14.996,10.973 14.950 C 11.822 14.777,12.494 14.223,12.813 13.434 C 12.858 13.322,12.909 13.169,12.926 13.094 L 12.957 12.957 13.094 12.926 C 13.430 12.850,13.822 12.650,14.115 12.403 C 14.544 12.043,14.834 11.543,14.952 10.965 C 15.002 10.722,15.003 10.652,14.994 8.751 C 14.983 6.555,14.981 6.528,14.786 5.731 C 14.043 2.698,11.545 0.467,8.438 0.060 C 8.171 0.025,7.203 -0.006,7.025 0.014 M2.761 7.082 C 2.812 7.117,2.885 7.189,2.921 7.241 L 2.988 7.338 2.988 9.500 L 2.988 11.663 2.915 11.769 C 2.876 11.827,2.805 11.899,2.758 11.928 C 2.572 12.042,2.167 12.006,1.835 11.846 C 1.573 11.719,1.287 11.426,1.156 11.150 C 1.100 11.033,1.042 10.864,1.027 10.773 C 0.992 10.562,0.991 8.449,1.026 8.225 C 1.109 7.687,1.626 7.149,2.169 7.037 C 2.417 6.985,2.645 7.002,2.761 7.082 M12.773 7.027 C 12.864 7.043,13.032 7.100,13.150 7.156 C 13.565 7.353,13.900 7.790,13.973 8.227 C 14.010 8.449,14.010 10.551,13.973 10.773 C 13.958 10.864,13.900 11.033,13.844 11.150 C 13.713 11.426,13.427 11.719,13.165 11.846 C 12.833 12.006,12.428 12.042,12.242 11.928 C 12.195 11.899,12.124 11.827,12.085 11.769 L 12.013 11.663 12.013 9.500 L 12.013 7.338 12.079 7.241 C 12.148 7.142,12.277 7.040,12.363 7.018 C 12.451 6.996,12.605 6.999,12.773 7.027 " stroke="none" fill-rule="evenodd" fill="black"></path></svg>