<svg fill="none" viewBox="0 0 15 15" xmlns="http://www.w3.org/2000/svg"><path d="M2.175 0.039 C 1.902 0.098,1.663 0.233,1.449 0.448 C 1.233 0.666,1.121 0.859,1.049 1.140 C 1.001 1.330,1.000 1.440,1.000 7.500 C 1.000 13.560,1.001 13.670,1.049 13.860 C 1.122 14.143,1.233 14.334,1.449 14.551 C 1.666 14.767,1.857 14.878,2.140 14.951 C 2.329 14.999,2.436 15.000,7.500 15.000 C 12.564 15.000,12.671 14.999,12.860 14.951 C 13.143 14.878,13.334 14.767,13.551 14.551 C 13.767 14.334,13.878 14.143,13.951 13.860 C 13.999 13.671,14.000 13.564,14.000 8.477 L 14.000 3.287 12.356 1.644 L 10.712 0.000 6.525 0.002 C 3.034 0.004,2.310 0.010,2.175 0.039 M11.644 2.356 L 13.000 3.712 13.000 6.500 L 13.000 9.287 12.250 8.537 L 11.500 7.788 10.021 9.266 L 8.543 10.745 6.569 8.279 C 5.483 6.922,4.569 5.786,4.537 5.753 L 4.480 5.694 3.246 7.338 L 2.013 8.983 2.006 5.213 C 2.002 2.626,2.008 1.413,2.026 1.345 C 2.058 1.226,2.217 1.061,2.330 1.028 C 2.380 1.014,3.949 1.004,6.350 1.002 L 10.287 1.000 11.644 2.356 M10.000 5.500 L 10.000 6.000 10.500 6.000 L 11.000 6.000 11.000 5.500 L 11.000 5.000 10.500 5.000 L 10.000 5.000 10.000 5.500 M6.500 9.798 L 8.463 12.251 8.676 12.032 C 8.793 11.911,9.477 11.228,10.196 10.513 L 11.502 9.214 12.251 9.963 L 13.001 10.713 12.994 12.188 L 12.988 13.663 12.928 13.758 C 12.896 13.810,12.823 13.884,12.767 13.920 L 12.666 13.988 7.502 13.988 L 2.337 13.988 2.242 13.928 C 2.190 13.896,2.116 13.823,2.080 13.768 L 2.013 13.666 2.005 12.168 L 1.998 10.669 3.252 8.997 C 3.942 8.078,4.513 7.330,4.522 7.336 C 4.530 7.341,5.421 8.449,6.500 9.798 " fill="currentColor" stroke="none" fill-rule="evenodd"></path></svg>