<svg fill="none" viewBox="0 0 15 15" xmlns="http://www.w3.org/2000/svg"><path d="M3.000 3.500 L 3.000 4.000 9.000 4.000 L 15.000 4.000 15.000 3.500 L 15.000 3.000 9.000 3.000 L 3.000 3.000 3.000 3.500 M0.487 5.500 L 0.138 5.850 0.963 6.675 L 1.787 7.500 0.969 8.319 L 0.150 9.138 0.507 9.494 L 0.863 9.850 1.904 8.806 C 2.992 7.716,3.000 7.707,3.000 7.500 C 3.000 7.293,2.992 7.284,1.905 6.194 C 1.332 5.620,0.858 5.150,0.850 5.150 C 0.843 5.150,0.680 5.308,0.487 5.500 M7.000 7.500 L 7.000 8.000 11.000 8.000 L 15.000 8.000 15.000 7.500 L 15.000 7.000 11.000 7.000 L 7.000 7.000 7.000 7.500 M3.000 11.500 L 3.000 12.000 9.000 12.000 L 15.000 12.000 15.000 11.500 L 15.000 11.000 9.000 11.000 L 3.000 11.000 3.000 11.500 " fill="currentColor" stroke="none" fill-rule="evenodd"></path></svg>