<svg fill="none" viewBox="0 0 15 15" xmlns="http://www.w3.org/2000/svg"><path d="M7.000 4.500 L 7.000 5.000 7.500 5.000 L 8.000 5.000 8.000 4.500 L 8.000 4.000 7.500 4.000 L 7.000 4.000 7.000 4.500 M6.000 7.500 L 6.000 8.000 6.500 8.000 L 7.000 8.000 7.000 9.000 L 7.000 10.000 6.500 10.000 L 6.000 10.000 6.000 10.500 L 6.000 11.000 7.500 11.000 L 9.000 11.000 9.000 10.500 L 9.000 10.000 8.500 10.000 L 8.000 10.000 8.000 8.500 L 8.000 7.000 7.000 7.000 L 6.000 7.000 6.000 7.500 " fill="currentColor" stroke="none" fill-rule="evenodd"></path></svg>