<svg fill="none" viewBox="0 0 15 15" xmlns="http://www.w3.org/2000/svg"><path d="M7.000 2.000 L 7.000 4.000 4.190 4.000 C 1.060 4.000,1.148 3.996,0.818 4.166 C 0.571 4.294,0.268 4.599,0.154 4.835 C -0.006 5.167,0.001 4.977,0.001 9.000 C 0.001 13.022,-0.006 12.833,0.154 13.165 C 0.269 13.405,0.595 13.731,0.835 13.846 C 1.174 14.009,0.734 13.999,7.500 13.999 C 14.266 13.999,13.826 14.009,14.165 13.846 C 14.405 13.731,14.731 13.405,14.846 13.165 C 15.006 12.833,14.999 13.022,14.999 9.000 C 14.999 4.977,15.006 5.167,14.846 4.835 C 14.719 4.573,14.426 4.287,14.150 4.156 C 14.033 4.100,13.864 4.042,13.773 4.027 C 13.661 4.009,12.720 4.000,10.804 4.000 L 8.000 4.000 8.000 2.000 L 8.000 0.000 7.500 0.000 L 7.000 0.000 7.000 2.000 M13.759 5.079 C 13.811 5.115,13.885 5.189,13.921 5.241 L 13.988 5.338 13.988 9.000 L 13.988 12.663 13.915 12.769 C 13.876 12.827,13.803 12.900,13.753 12.931 L 13.663 12.988 7.500 12.988 L 1.338 12.988 1.247 12.931 C 1.197 12.900,1.124 12.827,1.085 12.769 L 1.012 12.663 1.012 8.998 L 1.012 5.333 1.081 5.235 C 1.146 5.140,1.258 5.055,1.363 5.021 C 1.390 5.012,4.169 5.007,7.538 5.009 L 13.663 5.013 13.759 5.079 M4.000 6.500 L 4.000 7.000 4.500 7.000 L 5.000 7.000 5.000 6.500 L 5.000 6.000 4.500 6.000 L 4.000 6.000 4.000 6.500 M7.000 6.500 L 7.000 7.000 7.500 7.000 L 8.000 7.000 8.000 6.500 L 8.000 6.000 7.500 6.000 L 7.000 6.000 7.000 6.500 M10.000 6.500 L 10.000 7.000 10.500 7.000 L 11.000 7.000 11.000 6.500 L 11.000 6.000 10.500 6.000 L 10.000 6.000 10.000 6.500 M4.000 8.500 L 4.000 9.000 4.500 9.000 L 5.000 9.000 5.000 8.500 L 5.000 8.000 4.500 8.000 L 4.000 8.000 4.000 8.500 M7.000 8.500 L 7.000 9.000 7.500 9.000 L 8.000 9.000 8.000 8.500 L 8.000 8.000 7.500 8.000 L 7.000 8.000 7.000 8.500 M10.000 8.500 L 10.000 9.000 10.500 9.000 L 11.000 9.000 11.000 8.500 L 11.000 8.000 10.500 8.000 L 10.000 8.000 10.000 8.500 M4.000 11.500 L 4.000 12.000 7.500 12.000 L 11.000 12.000 11.000 11.500 L 11.000 11.000 7.500 11.000 L 4.000 11.000 4.000 11.500 " stroke="none" fill-rule="evenodd" fill="black"></path></svg>