<svg fill="none" viewBox="0 0 15 15" xmlns="http://www.w3.org/2000/svg"><path d="M2.169 1.038 C 1.780 1.116,1.332 1.468,1.154 1.835 C 0.993 2.169,1.001 1.928,1.001 6.500 C 1.001 11.071,0.993 10.831,1.154 11.165 C 1.269 11.405,1.595 11.731,1.835 11.846 C 2.172 12.008,1.832 11.999,7.500 11.999 C 13.168 11.999,12.828 12.008,13.165 11.846 C 13.405 11.731,13.731 11.405,13.846 11.165 C 14.007 10.831,13.999 11.071,13.999 6.500 C 13.999 1.928,14.007 2.169,13.846 1.835 C 13.719 1.573,13.426 1.287,13.150 1.156 C 13.033 1.100,12.864 1.042,12.773 1.027 C 12.510 0.984,2.392 0.994,2.169 1.038 M12.759 2.079 C 12.811 2.115,12.885 2.189,12.921 2.241 L 12.988 2.337 12.988 6.500 L 12.988 10.663 12.915 10.769 C 12.876 10.827,12.803 10.900,12.753 10.931 L 12.663 10.988 7.500 10.988 L 2.337 10.988 2.247 10.931 C 2.197 10.900,2.124 10.827,2.085 10.769 L 2.013 10.663 2.013 6.500 L 2.013 2.337 2.079 2.241 C 2.148 2.142,2.277 2.040,2.363 2.018 C 2.390 2.011,4.719 2.007,7.538 2.009 L 12.663 2.013 12.759 2.079 M0.000 13.500 L 0.000 14.000 7.500 14.000 L 15.000 14.000 15.000 13.500 L 15.000 13.000 7.500 13.000 L 0.000 13.000 0.000 13.500 " stroke="none" fill-rule="evenodd" fill="black"></path></svg>