<svg fill="none" viewBox="0 0 15 15" xmlns="http://www.w3.org/2000/svg"><path d="M5.175 0.039 C 4.902 0.098,4.663 0.233,4.449 0.448 C 4.116 0.784,4.000 1.097,4.000 1.663 L 4.000 1.993 3.556 2.007 C 3.033 2.023,2.809 2.070,2.461 2.235 C 1.752 2.571,1.291 3.116,1.081 3.868 L 1.012 4.112 1.012 8.500 L 1.012 12.888 1.082 13.136 C 1.345 14.079,2.067 14.755,3.016 14.948 C 3.267 14.999,3.322 15.000,7.500 15.000 C 11.678 15.000,11.733 14.999,11.984 14.948 C 12.932 14.755,13.661 14.072,13.920 13.132 L 13.988 12.888 13.988 8.500 L 13.988 4.112 13.921 3.872 C 13.714 3.123,13.248 2.571,12.539 2.235 C 12.191 2.070,11.967 2.023,11.444 2.007 L 11.000 1.993 11.000 1.663 C 11.000 1.097,10.884 0.784,10.551 0.448 C 10.334 0.229,10.096 0.097,9.813 0.038 C 9.560 -0.015,5.422 -0.014,5.175 0.039 M9.768 1.080 C 9.823 1.116,9.896 1.190,9.928 1.242 C 9.981 1.328,9.988 1.372,9.996 1.669 L 10.005 2.000 7.502 2.000 L 5.000 2.000 5.000 1.719 C 5.000 1.564,5.012 1.395,5.027 1.342 C 5.059 1.226,5.219 1.061,5.330 1.028 C 5.380 1.013,6.241 1.006,7.539 1.008 L 9.666 1.012 9.768 1.080 M11.813 3.038 C 12.375 3.156,12.844 3.625,12.962 4.188 C 13.018 4.450,13.018 12.550,12.962 12.813 C 12.903 13.096,12.771 13.334,12.552 13.551 C 12.334 13.767,12.141 13.879,11.860 13.951 C 11.672 13.999,11.568 14.000,7.500 14.000 C 3.432 14.000,3.328 13.999,3.140 13.951 C 2.859 13.879,2.666 13.767,2.448 13.551 C 2.229 13.334,2.097 13.096,2.038 12.813 C 1.982 12.550,1.982 4.450,2.038 4.188 C 2.154 3.631,2.623 3.158,3.175 3.039 C 3.424 2.985,11.557 2.984,11.813 3.038 M5.000 7.500 L 5.000 8.000 5.500 8.000 L 6.000 8.000 6.000 7.500 L 6.000 7.000 5.500 7.000 L 5.000 7.000 5.000 7.500 M9.000 7.500 L 9.000 8.000 9.500 8.000 L 10.000 8.000 10.000 7.500 L 10.000 7.000 9.500 7.000 L 9.000 7.000 9.000 7.500 M4.492 10.006 L 4.098 10.302 4.255 10.492 C 4.842 11.203,5.707 11.713,6.674 11.918 C 6.955 11.978,7.040 11.985,7.500 11.985 C 7.960 11.985,8.045 11.978,8.326 11.918 C 8.933 11.789,9.494 11.546,9.973 11.205 C 10.214 11.034,10.607 10.665,10.796 10.433 L 10.902 10.303 10.509 10.007 L 10.115 9.710 9.814 10.014 C 9.311 10.519,8.817 10.790,8.119 10.942 C 7.831 11.004,7.169 11.004,6.881 10.942 C 6.183 10.790,5.689 10.519,5.186 10.014 L 4.885 9.710 4.492 10.006 " fill="currentColor" stroke="none" fill-rule="evenodd"></path></svg>