<svg fill="none" viewBox="0 0 15 15" xmlns="http://www.w3.org/2000/svg"><path d="M1.169 1.038 C 0.780 1.116,0.332 1.468,0.154 1.835 C 0.008 2.138,0.001 2.214,0.001 3.500 C 0.001 4.786,0.008 4.862,0.154 5.165 C 0.269 5.405,0.595 5.731,0.835 5.846 C 1.138 5.992,1.214 5.999,2.500 5.999 C 3.786 5.999,3.862 5.992,4.165 5.846 C 4.405 5.731,4.731 5.405,4.846 5.165 C 4.992 4.862,4.999 4.786,4.999 3.500 C 4.999 2.214,4.992 2.138,4.846 1.835 C 4.719 1.573,4.426 1.287,4.150 1.156 C 4.033 1.100,3.864 1.042,3.773 1.027 C 3.525 0.986,1.387 0.995,1.169 1.038 M3.759 2.079 C 3.811 2.115,3.885 2.189,3.921 2.241 L 3.988 2.337 3.988 3.500 L 3.988 4.663 3.915 4.769 C 3.876 4.827,3.803 4.900,3.753 4.931 C 3.663 4.987,3.662 4.988,2.500 4.988 C 1.338 4.988,1.337 4.987,1.247 4.931 C 1.197 4.900,1.124 4.827,1.085 4.769 L 1.012 4.663 1.012 3.500 L 1.012 2.337 1.079 2.241 C 1.147 2.142,1.277 2.041,1.363 2.018 C 1.390 2.011,1.919 2.007,2.538 2.009 L 3.663 2.013 3.759 2.079 M7.000 3.500 L 7.000 4.000 11.000 4.000 L 15.000 4.000 15.000 3.500 L 15.000 3.000 11.000 3.000 L 7.000 3.000 7.000 3.500 M1.169 9.038 C 0.780 9.116,0.332 9.468,0.154 9.835 C 0.008 10.138,0.001 10.214,0.001 11.500 C 0.001 12.786,0.008 12.862,0.154 13.165 C 0.269 13.405,0.595 13.731,0.835 13.846 C 1.138 13.992,1.214 13.999,2.500 13.999 C 3.786 13.999,3.862 13.992,4.165 13.846 C 4.405 13.731,4.731 13.405,4.846 13.165 C 4.992 12.862,4.999 12.786,4.999 11.500 C 4.999 10.214,4.992 10.138,4.846 9.835 C 4.719 9.573,4.426 9.287,4.150 9.156 C 4.033 9.100,3.864 9.042,3.773 9.027 C 3.525 8.986,1.387 8.995,1.169 9.038 M3.759 10.079 C 3.811 10.115,3.885 10.189,3.921 10.241 L 3.988 10.338 3.988 11.500 L 3.988 12.663 3.915 12.769 C 3.876 12.827,3.803 12.900,3.753 12.931 C 3.663 12.987,3.662 12.988,2.500 12.988 C 1.338 12.988,1.337 12.987,1.247 12.931 C 1.197 12.900,1.124 12.827,1.085 12.769 L 1.012 12.663 1.012 11.500 L 1.012 10.338 1.079 10.241 C 1.147 10.142,1.277 10.041,1.363 10.018 C 1.390 10.011,1.919 10.007,2.538 10.009 L 3.663 10.013 3.759 10.079 M7.000 11.500 L 7.000 12.000 11.000 12.000 L 15.000 12.000 15.000 11.500 L 15.000 11.000 11.000 11.000 L 7.000 11.000 7.000 11.500 " stroke="none" fill-rule="evenodd" fill="black"></path></svg>