<svg fill="none" viewBox="0 0 15 15" xmlns="http://www.w3.org/2000/svg"><path d="M7.145 3.025 C 6.777 3.084,6.388 3.237,6.082 3.445 C 5.601 3.772,5.249 4.270,5.084 4.855 C 5.027 5.059,5.017 5.149,5.006 5.588 L 4.993 6.088 4.815 6.173 C 4.686 6.235,4.586 6.310,4.449 6.448 C 4.233 6.666,4.121 6.859,4.049 7.140 C 4.003 7.323,4.000 7.422,4.000 9.000 C 4.000 10.578,4.003 10.677,4.049 10.860 C 4.122 11.143,4.233 11.334,4.449 11.551 C 4.666 11.767,4.857 11.878,5.140 11.951 C 5.325 11.998,5.424 12.000,7.500 12.000 C 9.576 12.000,9.675 11.998,9.860 11.951 C 10.143 11.878,10.334 11.767,10.551 11.551 C 10.767 11.334,10.878 11.143,10.951 10.860 C 10.997 10.677,11.000 10.578,11.000 9.000 C 11.000 7.422,10.997 7.323,10.951 7.140 C 10.879 6.859,10.767 6.666,10.551 6.448 C 10.414 6.310,10.314 6.235,10.185 6.173 L 10.007 6.088 9.995 5.600 C 9.984 5.181,9.974 5.079,9.919 4.872 C 9.763 4.286,9.404 3.776,8.918 3.445 C 8.698 3.296,8.339 3.134,8.099 3.075 C 7.857 3.016,7.365 2.990,7.145 3.025 M7.813 4.038 C 8.375 4.156,8.844 4.625,8.962 5.188 C 8.983 5.288,8.999 5.499,9.000 5.681 L 9.000 6.000 7.500 6.000 L 6.000 6.000 6.000 5.681 C 6.001 5.099,6.118 4.777,6.448 4.448 C 6.819 4.076,7.303 3.931,7.813 4.038 M9.768 7.080 C 9.823 7.116,9.896 7.190,9.928 7.242 L 9.988 7.338 9.988 9.000 L 9.988 10.663 9.928 10.758 C 9.896 10.810,9.823 10.884,9.767 10.920 L 9.666 10.988 7.502 10.988 L 5.338 10.988 5.242 10.928 C 5.190 10.896,5.116 10.823,5.080 10.768 L 5.013 10.666 5.006 9.057 C 5.001 7.961,5.007 7.416,5.026 7.348 C 5.058 7.226,5.215 7.061,5.330 7.028 C 5.380 7.013,6.241 7.006,7.539 7.008 L 9.666 7.013 9.768 7.080 " fill="currentColor" stroke="none" fill-rule="evenodd"></path></svg>