<svg fill="none" viewBox="0 0 15 15" xmlns="http://www.w3.org/2000/svg"><path d="M1.000 7.500 L 1.000 14.000 4.500 14.000 L 8.000 14.000 8.000 13.500 L 8.000 13.000 5.000 13.000 L 2.000 13.000 2.000 7.500 L 2.000 2.000 5.000 2.000 L 8.000 2.000 8.000 1.500 L 8.000 1.000 4.500 1.000 L 1.000 1.000 1.000 7.500 M10.487 4.500 L 10.138 4.850 11.213 5.925 L 12.287 7.000 8.144 7.000 L 4.000 7.000 4.000 7.500 L 4.000 8.000 8.173 8.006 L 12.346 8.013 11.238 9.213 C 10.629 9.873,10.132 10.413,10.134 10.415 C 10.136 10.416,10.298 10.565,10.495 10.747 C 10.692 10.929,10.862 11.075,10.873 11.070 C 10.884 11.066,11.562 10.338,12.380 9.452 L 13.866 7.841 13.682 7.666 L 13.497 7.491 13.673 7.314 L 13.849 7.137 12.356 5.643 C 11.534 4.822,10.857 4.150,10.850 4.150 C 10.843 4.150,10.680 4.308,10.487 4.500 " stroke="none" fill-rule="evenodd" fill="black"></path></svg>