<svg fill="none" viewBox="0 0 15 15" xmlns="http://www.w3.org/2000/svg"><path d="M6.888 0.024 C 5.863 0.117,4.919 0.378,4.069 0.803 C 3.311 1.183,2.758 1.574,2.166 2.149 C 0.975 3.306,0.293 4.662,0.045 6.363 C -0.005 6.706,0.003 7.738,0.058 8.113 C 0.239 9.338,0.688 10.422,1.413 11.388 C 1.646 11.698,2.052 12.156,2.243 12.325 L 2.370 12.438 2.098 13.438 C 1.948 13.988,1.825 14.464,1.825 14.497 C 1.824 14.788,2.106 15.034,2.394 14.993 C 2.445 14.986,3.002 14.738,3.631 14.443 L 4.774 13.905 5.106 14.012 C 6.724 14.534,8.457 14.516,10.050 13.962 C 11.981 13.290,13.540 11.889,14.370 10.082 C 14.985 8.742,15.157 7.185,14.848 5.760 C 14.616 4.688,14.133 3.667,13.459 2.825 C 13.241 2.553,12.776 2.074,12.488 1.826 C 11.520 0.992,10.213 0.369,8.950 0.139 C 8.333 0.026,7.422 -0.025,6.888 0.024 M8.063 1.027 C 10.113 1.206,11.883 2.235,12.988 3.888 C 14.129 5.596,14.313 7.744,13.478 9.618 C 13.161 10.329,12.712 10.966,12.122 11.539 C 11.101 12.531,9.827 13.139,8.350 13.339 C 7.916 13.398,7.069 13.399,6.650 13.341 C 6.116 13.268,5.535 13.120,5.063 12.939 C 4.748 12.818,4.733 12.822,3.873 13.224 C 3.458 13.418,3.114 13.573,3.110 13.568 C 3.105 13.563,3.174 13.292,3.263 12.966 C 3.352 12.639,3.425 12.322,3.425 12.260 C 3.425 12.100,3.376 12.005,3.223 11.862 C 2.540 11.228,2.247 10.889,1.907 10.339 C 0.429 7.953,0.793 4.931,2.800 2.924 C 4.165 1.558,6.113 0.856,8.063 1.027 M9.827 6.242 C 8.614 7.255,8.488 7.354,8.442 7.326 C 8.415 7.309,7.969 6.977,7.451 6.588 L 6.509 5.881 4.623 7.228 C 3.586 7.969,2.734 8.584,2.731 8.595 C 2.725 8.612,3.208 9.311,3.274 9.383 C 3.285 9.394,3.988 8.907,4.837 8.300 C 5.686 7.694,6.406 7.181,6.438 7.160 C 6.495 7.123,6.525 7.144,7.498 7.873 C 8.049 8.287,8.506 8.625,8.515 8.625 C 8.523 8.625,9.270 8.008,10.175 7.254 L 11.819 5.884 11.509 5.511 C 11.338 5.305,11.191 5.135,11.181 5.132 C 11.171 5.130,10.562 5.629,9.827 6.242 " fill="currentColor" stroke="none" fill-rule="evenodd"></path></svg>