<svg fill="none" viewBox="0 0 15 15" xmlns="http://www.w3.org/2000/svg"><path d="M11.569 2.719 L 10.000 4.287 10.000 3.144 L 10.000 2.000 9.500 2.000 L 9.000 2.000 9.000 3.750 L 9.000 5.500 9.250 5.500 L 9.500 5.500 9.500 5.750 L 9.500 6.000 11.250 6.000 L 13.000 6.000 13.000 5.500 L 13.000 5.000 11.856 5.000 L 10.713 5.000 12.287 3.425 L 13.862 1.850 13.513 1.500 C 13.320 1.308,13.157 1.150,13.150 1.150 C 13.143 1.150,12.432 1.856,11.569 2.719 M2.000 9.500 L 2.000 10.000 3.144 10.000 L 4.287 10.000 2.719 11.569 L 1.150 13.138 1.506 13.494 L 1.862 13.850 3.431 12.281 L 5.000 10.713 5.000 11.856 L 5.000 13.000 5.500 13.000 L 6.000 13.000 6.000 11.250 L 6.000 9.500 5.750 9.500 L 5.500 9.500 5.500 9.250 L 5.500 9.000 3.750 9.000 L 2.000 9.000 2.000 9.500 " stroke="none" fill-rule="evenodd" fill="black"></path></svg>