<svg fill="none" viewBox="0 0 15 15" xmlns="http://www.w3.org/2000/svg"><path d="M7.013 0.015 C 4.854 0.186,3.008 1.146,1.655 2.801 L 1.501 2.990 1.274 3.022 C 0.940 3.070,0.698 3.196,0.438 3.460 C 0.213 3.688,0.094 3.898,0.036 4.173 C 0.007 4.309,0.001 4.886,0.001 7.500 C 0.001 10.974,-0.005 10.835,0.154 11.165 C 0.269 11.405,0.595 11.731,0.835 11.846 C 1.008 11.929,1.270 11.999,1.415 12.000 C 1.483 12.000,1.519 12.032,1.702 12.256 C 2.883 13.703,4.535 14.629,6.475 14.932 C 6.753 14.975,6.927 14.985,7.463 14.985 C 7.856 14.986,8.206 14.973,8.350 14.954 C 10.135 14.713,11.588 14.008,12.800 12.796 C 13.762 11.833,14.422 10.677,14.762 9.363 C 15.423 6.799,14.680 4.085,12.803 2.207 C 11.609 1.014,10.122 0.285,8.426 0.062 C 8.144 0.025,7.257 -0.004,7.013 0.015 M8.277 1.051 C 9.446 1.192,10.627 1.685,11.533 2.409 C 12.751 3.383,13.582 4.747,13.872 6.250 C 13.959 6.704,13.983 6.972,13.983 7.500 C 13.983 8.028,13.959 8.296,13.872 8.750 C 13.475 10.807,12.062 12.584,10.150 13.430 C 8.706 14.069,7.146 14.170,5.636 13.723 C 5.083 13.559,4.463 13.272,3.957 12.946 C 3.661 12.755,3.167 12.360,2.963 12.152 L 2.814 12.000 5.238 12.000 C 7.903 11.999,7.840 12.002,8.165 11.846 C 8.405 11.731,8.731 11.405,8.846 11.165 C 9.005 10.835,8.999 10.974,8.999 7.500 C 8.999 4.025,9.005 4.164,8.846 3.835 C 8.719 3.573,8.426 3.287,8.150 3.156 C 8.033 3.100,7.864 3.042,7.773 3.027 C 7.662 3.009,6.832 3.000,5.211 3.000 L 2.814 3.000 2.951 2.860 C 3.234 2.572,3.776 2.156,4.188 1.913 C 5.056 1.399,6.090 1.080,7.088 1.015 C 7.317 1.001,8.040 1.022,8.277 1.051 M7.759 4.079 C 7.811 4.115,7.885 4.189,7.921 4.241 L 7.988 4.338 7.988 7.500 L 7.988 10.663 7.915 10.769 C 7.876 10.827,7.803 10.900,7.753 10.931 L 7.663 10.988 4.500 10.988 L 1.338 10.988 1.247 10.931 C 1.197 10.900,1.124 10.827,1.085 10.769 L 1.012 10.663 1.012 7.500 L 1.012 4.338 1.079 4.241 C 1.148 4.142,1.277 4.040,1.363 4.018 C 1.390 4.011,2.819 4.007,4.538 4.009 L 7.663 4.013 7.759 4.079 M2.000 7.499 L 2.000 10.000 2.500 10.000 L 3.000 10.000 3.000 9.501 L 3.000 9.003 4.181 8.994 C 5.324 8.985,5.369 8.983,5.549 8.928 C 6.212 8.727,6.740 8.195,6.930 7.536 C 7.012 7.251,7.012 6.749,6.930 6.464 C 6.741 5.807,6.211 5.272,5.550 5.071 C 5.364 5.015,5.348 5.014,3.681 5.006 L 2.000 4.998 2.000 7.499 M5.406 6.092 C 6.123 6.432,6.198 7.398,5.541 7.834 C 5.301 7.993,5.240 8.000,4.057 8.000 L 3.000 8.000 3.000 6.998 L 3.000 5.997 4.119 6.005 L 5.238 6.013 5.406 6.092 " stroke="none" fill-rule="evenodd" fill="black"></path></svg>