<svg fill="none" viewBox="0 0 15 15" xmlns="http://www.w3.org/2000/svg"><path d="M3.175 0.039 C 2.902 0.098,2.663 0.233,2.449 0.448 C 2.233 0.666,2.121 0.859,2.049 1.140 C 2.005 1.313,2.000 1.418,2.000 2.166 L 2.000 3.000 1.681 3.000 C 1.099 3.001,0.776 3.118,0.449 3.448 C 0.233 3.666,0.121 3.859,0.049 4.140 C 0.001 4.327,0.000 4.428,0.000 7.500 C 0.000 10.572,0.001 10.673,0.049 10.860 C 0.122 11.143,0.233 11.334,0.449 11.551 C 0.783 11.884,1.096 12.000,1.666 12.000 L 2.000 12.000 2.000 12.834 C 2.000 13.582,2.005 13.687,2.049 13.860 C 2.122 14.143,2.233 14.334,2.449 14.551 C 2.666 14.767,2.857 14.878,3.140 14.951 C 3.329 14.999,3.436 15.000,8.500 15.000 C 13.564 15.000,13.671 14.999,13.860 14.951 C 14.143 14.878,14.334 14.767,14.551 14.551 C 14.767 14.334,14.878 14.143,14.951 13.860 C 14.999 13.670,15.000 13.560,15.000 7.500 C 15.000 1.440,14.999 1.330,14.951 1.140 C 14.879 0.859,14.767 0.666,14.551 0.448 C 14.334 0.229,14.096 0.097,13.813 0.038 C 13.556 -0.016,3.425 -0.015,3.175 0.039 M13.758 1.072 C 13.810 1.104,13.884 1.177,13.920 1.233 L 13.988 1.334 13.988 7.500 L 13.988 13.666 13.920 13.767 C 13.884 13.823,13.810 13.896,13.758 13.928 L 13.663 13.988 8.500 13.988 L 3.338 13.988 3.242 13.928 C 3.190 13.896,3.116 13.823,3.080 13.768 L 3.013 13.666 3.005 12.833 L 2.997 12.000 5.332 12.000 C 7.575 12.000,7.675 11.998,7.860 11.951 C 8.143 11.878,8.334 11.767,8.551 11.551 C 8.767 11.334,8.878 11.143,8.951 10.860 C 8.999 10.673,9.000 10.572,9.000 7.500 C 9.000 4.428,8.999 4.327,8.951 4.140 C 8.879 3.859,8.767 3.666,8.551 3.448 C 8.413 3.308,8.313 3.234,8.175 3.166 C 7.830 2.997,7.894 3.001,5.319 3.000 L 3.000 3.000 3.000 2.219 C 3.000 1.746,3.011 1.400,3.027 1.342 C 3.059 1.226,3.219 1.060,3.330 1.028 C 3.381 1.013,5.350 1.006,8.537 1.008 L 13.663 1.012 13.758 1.072 M7.758 4.072 C 7.810 4.104,7.884 4.177,7.920 4.233 L 7.988 4.334 7.988 7.500 L 7.988 10.666 7.920 10.767 C 7.884 10.823,7.810 10.896,7.758 10.928 L 7.663 10.988 4.498 10.988 L 1.334 10.988 1.233 10.920 C 1.177 10.884,1.104 10.810,1.072 10.758 L 1.012 10.663 1.006 7.554 C 1.001 5.408,1.008 4.415,1.026 4.347 C 1.058 4.226,1.216 4.061,1.330 4.028 C 1.381 4.013,2.610 4.006,4.538 4.008 L 7.663 4.013 7.758 4.072 M2.502 5.498 C 2.248 5.562,2.037 5.627,2.032 5.641 C 2.027 5.656,2.249 6.572,2.525 7.678 C 3.071 9.864,3.059 9.829,3.263 9.935 C 3.332 9.972,3.408 9.987,3.515 9.987 C 3.755 9.986,3.810 9.936,4.173 9.391 C 4.343 9.135,4.490 8.925,4.500 8.925 C 4.510 8.925,4.657 9.135,4.827 9.391 C 5.190 9.936,5.246 9.988,5.486 9.988 C 5.591 9.988,5.668 9.972,5.738 9.935 C 5.941 9.829,5.929 9.864,6.475 7.678 C 6.751 6.572,6.973 5.656,6.968 5.641 C 6.963 5.627,6.748 5.562,6.490 5.497 C 6.090 5.397,6.019 5.386,6.007 5.418 C 5.999 5.439,5.834 6.091,5.639 6.868 L 5.287 8.279 5.062 7.947 C 4.805 7.567,4.734 7.513,4.500 7.513 C 4.266 7.513,4.195 7.567,3.938 7.947 L 3.713 8.279 3.355 6.846 C 3.158 6.057,2.989 5.406,2.980 5.397 C 2.970 5.389,2.755 5.434,2.502 5.498 " fill="currentColor" stroke="none" fill-rule="evenodd"></path></svg>