<svg fill="none" viewBox="0 0 15 15" xmlns="http://www.w3.org/2000/svg"><path d="M1.326 2.033 C 1.208 2.070,1.058 2.226,1.026 2.346 C 1.008 2.414,1.002 4.007,1.006 7.554 L 1.012 12.663 1.072 12.758 C 1.189 12.947,1.435 13.041,1.641 12.975 C 1.696 12.957,3.277 11.845,5.304 10.398 C 8.076 8.418,8.883 7.831,8.929 7.757 C 9.011 7.625,9.012 7.377,8.930 7.246 C 8.887 7.176,8.021 6.545,5.347 4.633 C 3.407 3.247,1.767 2.087,1.704 2.057 C 1.579 1.996,1.463 1.989,1.326 2.033 M13.000 7.500 L 13.000 13.000 13.500 13.000 L 14.000 13.000 14.000 7.500 L 14.000 2.000 13.500 2.000 L 13.000 2.000 13.000 7.500 M4.909 5.550 C 6.402 6.616,7.621 7.495,7.618 7.505 C 7.614 7.518,4.582 9.690,2.169 11.409 L 2.000 11.529 2.000 7.500 L 2.000 3.471 2.097 3.542 C 2.150 3.581,3.416 4.484,4.909 5.550 " fill="currentColor" stroke="none" fill-rule="evenodd"></path></svg>