<svg fill="none" viewBox="0 0 15 15" xmlns="http://www.w3.org/2000/svg"><path d="M7.000 0.016 C 4.798 0.180,2.835 1.244,1.508 2.994 C 0.749 3.994,0.277 5.135,0.068 6.475 C -0.008 6.965,-0.008 8.035,0.068 8.525 C 0.389 10.583,1.383 12.271,2.996 13.494 C 3.991 14.249,5.139 14.724,6.475 14.932 C 6.965 15.008,8.035 15.008,8.525 14.932 C 10.348 14.648,11.897 13.826,13.060 12.527 C 14.090 11.375,14.686 10.102,14.932 8.525 C 15.008 8.035,15.008 6.965,14.932 6.475 C 14.724 5.139,14.249 3.991,13.494 2.996 C 12.254 1.361,10.481 0.333,8.438 0.062 C 8.145 0.023,7.275 -0.005,7.000 0.016 M8.459 1.075 C 9.158 1.180,9.696 1.349,10.363 1.674 C 11.030 2.000,11.551 2.373,12.089 2.911 C 12.627 3.449,13.000 3.970,13.326 4.638 C 13.563 5.124,13.678 5.429,13.790 5.874 C 13.940 6.470,13.984 6.833,13.984 7.500 C 13.984 7.978,13.974 8.153,13.930 8.438 C 13.863 8.866,13.735 9.381,13.613 9.714 C 13.391 10.315,12.974 11.055,12.565 11.575 C 12.339 11.862,11.744 12.438,11.439 12.668 L 11.165 12.874 11.045 12.706 C 10.978 12.613,9.555 10.643,7.881 8.327 C 4.530 3.690,4.783 4.013,4.500 4.013 C 4.324 4.013,4.187 4.083,4.088 4.223 L 4.013 4.329 4.006 8.165 L 3.999 12.000 4.500 12.000 L 5.000 12.000 5.006 9.033 L 5.013 6.065 7.646 9.712 C 10.054 13.046,10.277 13.362,10.236 13.392 C 10.166 13.443,9.587 13.664,9.338 13.736 C 8.769 13.898,8.300 13.971,7.700 13.992 C 6.172 14.044,4.718 13.566,3.475 12.603 C 3.215 12.402,2.637 11.830,2.436 11.575 C 2.027 11.058,1.609 10.315,1.388 9.716 C 1.263 9.376,1.137 8.873,1.072 8.446 C 0.992 7.932,0.992 7.068,1.072 6.554 C 1.137 6.127,1.263 5.624,1.388 5.284 C 1.609 4.684,2.028 3.940,2.436 3.425 C 2.627 3.184,3.184 2.627,3.425 2.436 C 4.443 1.631,5.635 1.151,6.927 1.026 C 7.290 0.991,8.059 1.016,8.459 1.075 M10.000 7.000 L 10.000 10.000 10.500 10.000 L 11.000 10.000 11.000 7.000 L 11.000 4.000 10.500 4.000 L 10.000 4.000 10.000 7.000 " fill="currentColor" stroke="none" fill-rule="evenodd"></path></svg>