<svg fill="none" viewBox="0 0 15 15" xmlns="http://www.w3.org/2000/svg"><path d="M6.338 2.031 C 6.296 2.045,6.232 2.079,6.194 2.105 C 6.150 2.136,5.057 3.933,3.069 7.245 L 0.013 12.338 0.013 12.500 C 0.013 12.695,0.077 12.817,0.233 12.920 L 0.334 12.988 7.502 12.988 L 14.671 12.988 14.777 12.913 C 14.963 12.782,15.041 12.552,14.970 12.347 C 14.943 12.270,10.008 3.855,9.893 3.691 C 9.834 3.607,9.621 3.501,9.510 3.500 C 9.407 3.500,9.279 3.544,9.188 3.613 C 9.142 3.647,8.987 3.883,8.788 4.222 C 8.610 4.525,8.455 4.765,8.443 4.753 C 8.431 4.741,8.071 4.148,7.642 3.435 L 6.863 2.138 6.727 2.069 C 6.584 1.997,6.466 1.985,6.338 2.031 M7.198 4.635 L 7.879 5.769 6.046 8.885 L 4.213 12.000 2.807 12.000 C 2.033 12.000,1.400 11.993,1.400 11.985 C 1.400 11.957,6.483 3.500,6.500 3.500 C 6.510 3.500,6.824 4.011,7.198 4.635 M11.506 8.395 C 12.603 10.261,13.529 11.835,13.564 11.894 L 13.628 12.000 13.205 12.000 L 12.782 12.000 10.914 8.887 C 9.887 7.174,9.050 5.764,9.054 5.753 C 9.076 5.698,9.489 5.001,9.500 5.001 C 9.507 5.002,10.410 6.529,11.506 8.395 M10.049 9.383 C 10.905 10.811,11.600 11.983,11.594 11.989 C 11.588 11.995,10.188 11.997,8.483 11.994 L 5.382 11.988 6.922 9.370 C 7.769 7.930,8.469 6.760,8.478 6.770 C 8.486 6.780,9.193 7.955,10.049 9.383 " stroke="none" fill-rule="evenodd" fill="black"></path></svg>