<svg fill="none" viewBox="0 0 15 15" xmlns="http://www.w3.org/2000/svg"><path d="M4.145 0.025 C 3.777 0.084,3.388 0.237,3.082 0.445 C 2.603 0.770,2.255 1.261,2.082 1.855 L 2.014 2.087 2.006 4.186 L 1.998 6.285 1.704 6.586 C 1.542 6.752,1.358 6.961,1.295 7.050 C 0.658 7.955,0.678 9.134,1.347 10.015 C 1.547 10.279,4.836 13.557,5.050 13.706 C 5.964 14.343,7.135 14.322,8.015 13.653 C 8.282 13.451,12.556 9.165,12.706 8.950 C 13.324 8.063,13.324 6.937,12.706 6.050 C 12.557 5.836,9.279 2.547,9.015 2.347 C 8.612 2.041,8.191 1.882,7.663 1.837 C 7.482 1.821,7.060 1.853,6.966 1.890 C 6.939 1.900,6.918 1.865,6.887 1.758 C 6.781 1.391,6.499 0.941,6.209 0.676 C 5.908 0.401,5.476 0.167,5.099 0.075 C 4.857 0.016,4.365 -0.010,4.145 0.025 M4.813 1.038 C 5.327 1.146,5.775 1.554,5.928 2.054 C 5.956 2.146,5.975 2.247,5.971 2.279 C 5.965 2.317,5.452 2.846,4.481 3.812 L 3.000 5.286 3.000 3.824 C 3.001 2.194,3.004 2.156,3.166 1.825 C 3.293 1.567,3.567 1.293,3.825 1.166 C 4.146 1.008,4.472 0.966,4.813 1.038 M7.900 2.887 C 7.975 2.907,8.110 2.960,8.200 3.004 C 8.347 3.076,8.537 3.258,10.140 4.861 C 11.862 6.583,11.920 6.643,12.006 6.825 C 12.122 7.069,12.161 7.239,12.161 7.500 C 12.161 7.763,12.121 7.933,12.004 8.175 C 11.930 8.328,11.857 8.421,11.603 8.681 L 11.293 9.000 6.600 9.000 L 1.907 9.000 1.872 8.844 C 1.829 8.650,1.829 8.332,1.873 8.150 C 1.891 8.074,1.945 7.928,1.994 7.825 C 2.081 7.643,2.142 7.578,4.041 5.675 L 6.000 3.713 6.000 5.356 L 6.000 7.000 6.500 7.000 L 7.000 7.000 7.000 4.953 L 7.000 2.907 7.144 2.879 C 7.223 2.864,7.310 2.846,7.338 2.839 C 7.421 2.820,7.754 2.848,7.900 2.887 M11.859 10.606 C 11.023 11.447,10.906 11.579,10.764 11.834 C 10.201 12.843,10.622 14.082,11.713 14.626 C 12.058 14.798,12.288 14.854,12.663 14.857 C 13.293 14.862,13.816 14.638,14.267 14.168 C 14.509 13.916,14.646 13.692,14.752 13.375 C 14.936 12.823,14.853 12.223,14.522 11.705 C 14.449 11.590,14.143 11.264,13.552 10.669 C 13.078 10.191,12.683 9.800,12.675 9.800 C 12.667 9.800,12.300 10.163,11.859 10.606 M8.825 11.458 C 7.421 12.858,7.355 12.920,7.172 13.009 C 6.726 13.225,6.282 13.226,5.830 13.011 C 5.643 12.922,5.593 12.874,4.175 11.460 L 2.713 10.000 6.500 10.000 L 10.288 10.000 8.825 11.458 M13.181 11.719 C 13.610 12.151,13.682 12.234,13.755 12.388 C 13.829 12.545,13.837 12.585,13.837 12.788 C 13.837 12.992,13.830 13.029,13.757 13.176 C 13.563 13.566,13.208 13.816,12.781 13.863 C 12.592 13.884,12.317 13.825,12.126 13.723 C 11.936 13.622,11.693 13.370,11.605 13.183 C 11.545 13.054,11.538 13.008,11.538 12.775 C 11.538 12.390,11.581 12.319,12.185 11.706 C 12.446 11.442,12.666 11.225,12.674 11.225 C 12.683 11.225,12.910 11.447,13.181 11.719 " fill="currentColor" stroke="none" fill-rule="evenodd"></path></svg>