<svg fill="none" viewBox="0 0 15 15" xmlns="http://www.w3.org/2000/svg"><path d="M7.025 0.014 C 6.977 0.020,6.814 0.037,6.663 0.052 C 5.409 0.177,4.067 0.704,3.040 1.474 C 1.040 2.975,-0.070 5.268,0.008 7.738 C 0.116 11.113,2.436 13.972,5.728 14.785 C 7.650 15.260,9.773 14.923,11.447 13.877 C 13.130 12.825,14.315 11.190,14.786 9.269 C 14.947 8.612,14.984 8.277,14.984 7.500 C 14.984 6.723,14.947 6.388,14.786 5.731 C 14.043 2.698,11.545 0.467,8.438 0.060 C 8.171 0.025,7.203 -0.006,7.025 0.014 M8.459 1.075 C 9.159 1.180,9.699 1.350,10.363 1.675 C 11.058 2.015,11.528 2.352,12.088 2.912 C 12.648 3.472,12.985 3.942,13.325 4.638 C 13.560 5.118,13.674 5.419,13.788 5.863 C 13.938 6.447,13.984 6.831,13.984 7.500 C 13.984 8.169,13.938 8.553,13.788 9.137 C 13.674 9.581,13.560 9.882,13.325 10.363 C 12.985 11.057,12.648 11.527,12.088 12.089 C 10.983 13.196,9.606 13.839,8.045 13.977 C 7.642 14.013,6.974 13.995,6.575 13.937 C 6.115 13.870,5.242 13.631,5.078 13.527 C 5.050 13.509,5.189 13.163,5.777 11.791 L 6.511 10.077 6.699 10.260 C 7.157 10.705,7.735 10.960,8.365 10.993 C 8.985 11.025,9.666 10.861,10.213 10.547 C 11.197 9.983,11.840 9.015,11.976 7.894 C 12.016 7.569,11.995 6.610,11.941 6.325 C 11.694 4.996,10.862 3.918,9.661 3.369 C 9.029 3.080,8.560 3.000,7.500 3.000 C 6.440 3.000,5.971 3.080,5.339 3.369 C 4.138 3.918,3.306 4.996,3.058 6.325 C 3.005 6.611,2.983 7.602,3.024 7.910 C 3.082 8.358,3.225 8.797,3.437 9.188 C 3.540 9.377,3.824 9.781,3.877 9.813 C 3.890 9.822,4.061 9.685,4.257 9.509 C 4.452 9.334,4.618 9.186,4.624 9.181 C 4.637 9.172,4.634 9.168,4.485 8.971 C 4.250 8.664,4.107 8.321,4.037 7.902 C 3.982 7.575,3.997 6.702,4.063 6.400 C 4.291 5.353,5.036 4.505,6.025 4.168 C 6.441 4.025,6.565 4.013,7.500 4.013 C 8.435 4.013,8.559 4.025,8.975 4.168 C 9.964 4.505,10.710 5.354,10.937 6.400 C 10.999 6.685,11.016 7.541,10.966 7.865 C 10.830 8.752,10.258 9.477,9.424 9.820 C 9.185 9.918,8.783 10.000,8.541 10.000 C 7.908 10.000,7.354 9.661,7.087 9.111 L 7.001 8.934 7.476 7.826 C 7.738 7.216,7.943 6.708,7.932 6.698 C 7.904 6.670,7.096 6.325,7.060 6.325 C 7.044 6.325,6.386 7.830,5.599 9.669 C 4.811 11.508,4.159 13.022,4.148 13.034 C 4.090 13.100,3.372 12.550,2.912 12.089 C 2.351 11.526,2.014 11.055,1.675 10.363 C 1.349 9.698,1.183 9.169,1.072 8.446 C 0.992 7.932,0.992 7.068,1.072 6.554 C 1.183 5.831,1.349 5.302,1.675 4.638 C 2.011 3.949,2.352 3.473,2.900 2.924 C 3.435 2.388,3.877 2.062,4.513 1.735 C 5.296 1.332,6.050 1.111,6.927 1.026 C 7.290 0.991,8.059 1.016,8.459 1.075 " stroke="none" fill-rule="evenodd" fill="black"></path></svg>