<svg fill="none" viewBox="0 0 15 15" xmlns="http://www.w3.org/2000/svg"><path d="M5.238 0.027 C 4.681 0.084,4.128 0.282,3.663 0.589 C 2.888 1.101,2.353 1.862,2.114 2.793 C 2.001 3.235,2.001 3.220,2.000 7.731 L 2.000 12.000 2.500 12.000 L 3.000 12.000 3.000 10.500 L 3.000 9.000 6.000 9.000 L 9.000 9.000 9.000 9.500 L 9.000 10.000 9.499 10.000 L 9.998 10.000 10.007 6.619 C 10.014 3.509,10.018 3.223,10.058 3.057 C 10.341 1.883,11.243 1.122,12.481 1.011 L 12.675 0.994 12.675 0.495 L 12.675 -0.004 12.456 0.012 C 11.823 0.059,11.269 0.223,10.788 0.506 C 9.650 1.174,9.000 2.335,9.000 3.701 L 9.000 4.000 6.000 4.000 L 3.000 4.000 3.000 3.794 C 3.000 2.974,3.292 2.251,3.829 1.736 C 4.275 1.310,4.750 1.090,5.376 1.020 L 5.650 0.990 5.650 0.495 L 5.650 0.000 5.544 0.003 C 5.485 0.005,5.348 0.016,5.238 0.027 M9.000 6.500 L 9.000 8.000 6.000 8.000 L 3.000 8.000 3.000 6.500 L 3.000 5.000 6.000 5.000 L 9.000 5.000 9.000 6.500 M9.900 11.528 C 9.369 11.574,8.761 11.713,8.314 11.891 C 8.069 11.989,7.403 12.316,7.100 12.487 C 5.881 13.177,5.316 13.387,4.439 13.476 C 4.089 13.512,3.589 13.496,3.338 13.441 C 2.679 13.297,2.066 12.961,1.584 12.479 L 1.375 12.270 1.281 12.352 C 1.230 12.397,1.060 12.547,0.904 12.685 L 0.620 12.937 0.885 13.194 C 1.579 13.866,2.324 14.260,3.238 14.441 C 3.552 14.504,4.420 14.504,4.825 14.442 C 5.684 14.311,6.279 14.084,7.450 13.438 C 8.407 12.910,8.839 12.728,9.411 12.613 C 9.974 12.499,10.545 12.478,11.025 12.554 C 11.761 12.669,12.620 13.074,13.494 13.717 C 13.593 13.790,13.683 13.849,13.694 13.849 C 13.704 13.848,13.846 13.673,14.009 13.460 C 14.287 13.096,14.302 13.070,14.259 13.036 C 13.494 12.455,12.675 11.999,11.975 11.766 C 11.275 11.533,10.655 11.462,9.900 11.528 " stroke="none" fill-rule="evenodd" fill="black"></path></svg>