<svg fill="none" viewBox="0 0 15 15" xmlns="http://www.w3.org/2000/svg"><path d="M4.407 0.813 C 3.749 0.956,3.233 1.451,2.965 2.196 C 2.771 2.737,2.703 3.549,2.786 4.350 C 2.810 4.577,2.831 4.773,2.833 4.785 C 2.836 4.798,2.781 4.831,2.713 4.859 C 1.775 5.240,1.256 5.542,0.786 5.982 C -0.048 6.763,-0.226 7.718,0.299 8.600 C 0.668 9.223,1.478 9.817,2.520 10.229 C 2.695 10.298,2.839 10.356,2.840 10.359 C 2.842 10.361,2.828 10.464,2.810 10.588 C 2.752 10.975,2.738 11.816,2.784 12.163 C 2.886 12.928,3.120 13.473,3.513 13.863 C 4.073 14.418,4.856 14.547,5.756 14.234 C 6.307 14.043,6.765 13.773,7.442 13.242 C 7.498 13.197,7.502 13.197,7.558 13.242 C 8.235 13.773,8.693 14.043,9.244 14.234 C 9.979 14.490,10.604 14.453,11.169 14.121 C 11.378 13.998,11.666 13.697,11.816 13.443 C 11.965 13.191,12.124 12.732,12.191 12.363 C 12.267 11.947,12.247 10.705,12.161 10.398 C 12.152 10.368,12.220 10.331,12.456 10.239 C 13.082 9.994,13.699 9.639,14.107 9.287 C 14.505 8.945,14.829 8.465,14.942 8.050 C 15.010 7.801,15.003 7.320,14.928 7.075 C 14.806 6.678,14.567 6.312,14.214 5.982 C 13.744 5.542,13.225 5.240,12.288 4.859 C 12.219 4.831,12.164 4.798,12.167 4.785 C 12.169 4.773,12.190 4.577,12.214 4.350 C 12.296 3.550,12.229 2.740,12.035 2.196 C 11.786 1.498,11.329 1.033,10.699 0.838 C 10.514 0.780,10.004 0.759,9.756 0.799 C 9.155 0.895,8.344 1.297,7.694 1.823 L 7.500 1.979 7.281 1.805 C 6.641 1.295,5.910 0.926,5.316 0.812 C 5.078 0.767,4.618 0.767,4.407 0.813 M5.388 1.860 C 5.498 1.898,5.689 1.979,5.813 2.041 C 6.041 2.156,6.517 2.461,6.674 2.595 L 6.761 2.668 6.535 2.915 C 6.244 3.233,5.968 3.566,5.694 3.926 L 5.476 4.214 5.232 4.247 C 4.906 4.290,4.342 4.393,4.056 4.462 L 3.824 4.518 3.812 4.465 C 3.786 4.346,3.750 3.879,3.750 3.646 C 3.750 2.694,4.020 2.034,4.489 1.836 C 4.624 1.779,4.663 1.774,4.913 1.783 C 5.128 1.790,5.231 1.807,5.388 1.860 M10.492 1.829 C 10.969 2.007,11.250 2.681,11.250 3.646 C 11.250 3.879,11.214 4.346,11.188 4.465 L 11.176 4.518 10.944 4.462 C 10.658 4.393,10.094 4.290,9.768 4.247 L 9.524 4.214 9.306 3.926 C 9.032 3.566,8.756 3.233,8.465 2.915 L 8.239 2.668 8.326 2.595 C 8.575 2.386,9.076 2.079,9.386 1.946 C 9.799 1.769,10.215 1.725,10.492 1.829 M7.704 3.563 C 7.949 3.832,8.150 4.066,8.150 4.084 C 8.150 4.092,7.858 4.099,7.500 4.099 C 7.143 4.099,6.850 4.092,6.850 4.085 C 6.850 4.047,7.478 3.348,7.504 3.357 C 7.513 3.360,7.603 3.453,7.704 3.563 M8.537 5.126 C 8.786 5.142,8.948 5.163,8.966 5.182 C 9.010 5.229,9.348 5.779,9.530 6.100 C 9.736 6.463,10.061 7.097,10.185 7.378 L 10.280 7.594 10.016 8.136 C 9.728 8.727,9.510 9.121,9.170 9.666 L 8.949 10.020 8.706 10.041 C 8.391 10.069,6.610 10.069,6.295 10.041 L 6.052 10.020 5.830 9.666 C 5.499 9.139,5.277 8.738,4.984 8.136 L 4.720 7.594 4.815 7.378 C 5.041 6.867,5.509 6.003,5.867 5.438 L 6.041 5.163 6.189 5.143 C 6.386 5.117,7.404 5.086,7.813 5.094 C 7.991 5.097,8.318 5.111,8.537 5.126 M4.725 5.365 C 4.725 5.373,4.642 5.528,4.540 5.709 C 4.439 5.889,4.327 6.094,4.293 6.162 L 4.231 6.287 4.155 6.037 C 4.113 5.900,4.062 5.724,4.042 5.647 L 4.006 5.506 4.159 5.465 C 4.489 5.377,4.725 5.336,4.725 5.365 M10.505 5.387 C 10.605 5.408,10.756 5.443,10.841 5.465 L 10.994 5.506 10.958 5.647 C 10.938 5.724,10.887 5.900,10.845 6.037 L 10.769 6.287 10.707 6.162 C 10.673 6.094,10.561 5.889,10.460 5.709 C 10.358 5.528,10.275 5.373,10.275 5.365 C 10.275 5.343,10.302 5.346,10.505 5.387 M3.335 6.738 C 3.451 7.081,3.565 7.413,3.589 7.475 L 3.632 7.588 3.507 7.925 C 3.333 8.392,3.269 8.583,3.151 8.986 C 3.095 9.177,3.044 9.339,3.038 9.346 C 3.014 9.369,2.441 9.114,2.170 8.960 C 1.296 8.461,0.886 7.882,1.037 7.361 C 1.097 7.150,1.218 6.965,1.429 6.757 C 1.779 6.414,2.201 6.151,2.813 5.899 L 3.038 5.806 3.082 5.959 C 3.106 6.043,3.220 6.394,3.335 6.738 M12.625 6.100 C 13.152 6.365,13.643 6.759,13.839 7.078 C 13.954 7.264,14.011 7.486,13.991 7.668 C 13.943 8.098,13.524 8.564,12.830 8.960 C 12.559 9.114,11.986 9.369,11.962 9.346 C 11.956 9.339,11.906 9.183,11.852 8.998 C 11.745 8.632,11.609 8.227,11.462 7.838 L 11.368 7.588 11.410 7.475 C 11.581 7.013,11.785 6.410,11.863 6.134 L 11.956 5.806 12.169 5.892 C 12.287 5.940,12.492 6.033,12.625 6.100 M7.325 6.102 C 6.710 6.156,6.175 6.639,6.036 7.266 C 5.922 7.780,6.086 8.302,6.481 8.678 C 6.760 8.945,7.094 9.075,7.500 9.075 C 7.906 9.075,8.240 8.945,8.519 8.678 C 8.914 8.302,9.078 7.780,8.964 7.266 C 8.795 6.508,8.123 6.031,7.325 6.102 M7.662 7.113 C 7.752 7.132,7.901 7.272,7.953 7.387 C 8.047 7.594,7.982 7.834,7.791 7.986 C 7.703 8.057,7.680 8.063,7.500 8.063 C 7.320 8.063,7.297 8.057,7.209 7.986 C 6.947 7.778,6.936 7.424,7.184 7.206 C 7.318 7.089,7.435 7.066,7.662 7.113 M4.735 9.821 C 4.728 9.831,4.504 9.788,4.221 9.720 L 4.005 9.668 4.066 9.440 C 4.117 9.247,4.161 9.096,4.215 8.927 C 4.221 8.908,4.342 9.099,4.483 9.352 C 4.625 9.605,4.738 9.816,4.735 9.821 M10.886 9.275 C 10.937 9.461,10.983 9.625,10.988 9.641 C 10.993 9.657,10.972 9.676,10.942 9.683 C 10.760 9.726,10.296 9.825,10.278 9.825 C 10.265 9.825,10.369 9.618,10.509 9.365 C 10.648 9.112,10.769 8.912,10.778 8.921 C 10.787 8.930,10.835 9.089,10.886 9.275 M3.964 10.686 C 4.137 10.736,4.803 10.864,5.172 10.917 L 5.481 10.962 5.720 11.275 C 5.976 11.609,6.353 12.060,6.598 12.325 C 6.681 12.414,6.749 12.495,6.749 12.504 C 6.750 12.526,6.362 12.809,6.150 12.942 C 5.470 13.366,4.832 13.507,4.444 13.317 C 4.006 13.102,3.750 12.447,3.750 11.539 C 3.750 11.209,3.802 10.650,3.833 10.650 C 3.838 10.650,3.896 10.666,3.964 10.686 M11.187 10.706 C 11.253 10.999,11.266 11.678,11.212 12.084 C 11.128 12.730,10.906 13.145,10.556 13.317 C 10.168 13.507,9.530 13.366,8.850 12.942 C 8.638 12.809,8.250 12.526,8.251 12.504 C 8.251 12.495,8.319 12.414,8.402 12.325 C 8.647 12.059,9.024 11.609,9.280 11.275 L 9.519 10.962 9.831 10.917 C 10.156 10.870,10.933 10.720,11.063 10.678 C 11.170 10.644,11.173 10.644,11.187 10.706 M8.134 11.106 C 8.103 11.159,7.686 11.632,7.590 11.724 L 7.500 11.810 7.397 11.711 C 7.293 11.611,6.900 11.164,6.866 11.106 C 6.851 11.082,6.984 11.075,7.500 11.075 C 8.016 11.075,8.149 11.082,8.134 11.106 " stroke="none" fill-rule="evenodd" fill="black"></path></svg>