<svg fill="none" viewBox="0 0 15 15" xmlns="http://www.w3.org/2000/svg"><path d="M7.338 1.030 C 7.214 1.073,7.108 1.167,7.053 1.282 C 7.001 1.389,7.000 1.412,7.000 3.204 L 7.000 5.018 6.781 5.035 C 5.763 5.115,4.674 5.427,3.749 5.903 L 3.460 6.052 3.258 5.916 C 2.865 5.654,2.423 5.534,1.924 5.557 C 1.421 5.579,1.000 5.759,0.634 6.107 C 0.033 6.678,-0.156 7.511,0.139 8.295 C 0.265 8.630,0.563 9.007,0.863 9.214 L 1.000 9.308 1.000 9.513 C 1.000 9.917,1.130 10.436,1.330 10.835 C 2.252 12.670,4.843 13.999,7.500 13.999 C 9.630 13.999,11.771 13.140,12.999 11.792 C 13.283 11.480,13.504 11.165,13.670 10.835 C 13.870 10.436,14.000 9.917,14.000 9.513 L 14.000 9.308 14.137 9.214 C 14.319 9.088,14.599 8.791,14.706 8.608 C 15.196 7.771,15.060 6.765,14.366 6.107 C 14.264 6.010,14.104 5.885,14.009 5.829 C 13.333 5.429,12.417 5.464,11.742 5.916 L 11.540 6.052 11.251 5.903 C 10.326 5.427,9.237 5.115,8.219 5.035 L 8.000 5.018 8.000 3.584 C 8.000 2.795,8.006 2.150,8.013 2.150 C 8.020 2.150,8.707 2.320,9.540 2.529 C 10.681 2.814,11.057 2.917,11.067 2.947 C 11.074 2.969,11.120 3.072,11.169 3.175 C 11.280 3.408,11.561 3.699,11.792 3.820 C 11.991 3.925,12.288 4.000,12.500 4.000 C 12.712 4.000,13.009 3.925,13.208 3.820 C 13.411 3.714,13.714 3.411,13.820 3.208 C 13.994 2.876,14.041 2.493,13.951 2.140 C 13.879 1.859,13.767 1.666,13.551 1.448 C 13.088 0.981,12.423 0.872,11.829 1.165 C 11.600 1.277,11.344 1.515,11.217 1.732 L 11.122 1.893 9.342 1.447 C 8.363 1.202,7.529 1.002,7.488 1.003 C 7.446 1.003,7.379 1.016,7.338 1.030 M12.775 2.084 C 12.924 2.183,12.988 2.308,12.988 2.500 C 12.988 2.695,12.924 2.817,12.767 2.920 C 12.628 3.013,12.384 3.016,12.242 2.928 C 12.053 2.811,11.964 2.577,12.024 2.355 C 12.058 2.227,12.211 2.063,12.330 2.027 C 12.461 1.987,12.667 2.013,12.775 2.084 M8.412 6.061 C 10.131 6.285,11.675 7.080,12.495 8.163 C 12.653 8.371,12.880 8.824,12.941 9.050 C 13.000 9.272,13.000 9.730,12.940 9.950 C 12.880 10.173,12.705 10.536,12.546 10.768 C 12.371 11.023,11.923 11.473,11.625 11.692 C 10.730 12.352,9.705 12.753,8.438 12.941 C 7.976 13.010,6.962 13.003,6.475 12.929 C 4.992 12.701,3.723 12.108,2.863 11.240 C 2.549 10.924,2.369 10.676,2.213 10.343 C 2.055 10.009,2.016 9.840,2.016 9.500 C 2.016 9.153,2.056 8.987,2.224 8.638 C 2.500 8.061,2.983 7.552,3.691 7.090 C 4.626 6.480,5.710 6.133,7.050 6.015 C 7.265 5.996,8.139 6.026,8.412 6.061 M2.400 6.597 C 2.570 6.651,2.571 6.660,2.411 6.803 C 1.971 7.194,1.554 7.712,1.360 8.107 C 1.321 8.186,1.279 8.247,1.266 8.243 C 1.253 8.239,1.201 8.165,1.149 8.079 C 0.804 7.508,1.121 6.738,1.769 6.576 C 1.885 6.547,2.282 6.560,2.400 6.597 M13.409 6.645 C 13.951 6.899,14.159 7.571,13.851 8.079 C 13.799 8.165,13.747 8.239,13.734 8.243 C 13.721 8.247,13.679 8.186,13.640 8.107 C 13.445 7.709,13.012 7.172,12.589 6.804 C 12.494 6.722,12.449 6.666,12.464 6.651 C 12.523 6.592,12.768 6.550,13.003 6.559 C 13.209 6.566,13.267 6.578,13.409 6.645 M5.000 8.500 L 5.000 9.000 5.500 9.000 L 6.000 9.000 6.000 8.500 L 6.000 8.000 5.500 8.000 L 5.000 8.000 5.000 8.500 M9.000 8.500 L 9.000 9.000 9.500 9.000 L 10.000 9.000 10.000 8.500 L 10.000 8.000 9.500 8.000 L 9.000 8.000 9.000 8.500 M5.006 10.980 C 4.906 11.218,4.825 11.426,4.825 11.442 C 4.825 11.478,5.251 11.645,5.603 11.747 C 6.247 11.934,6.667 11.987,7.500 11.987 C 8.333 11.987,8.753 11.934,9.397 11.747 C 9.749 11.645,10.175 11.478,10.175 11.442 C 10.175 11.426,10.094 11.218,9.994 10.980 C 9.856 10.653,9.803 10.551,9.775 10.561 C 9.754 10.568,9.558 10.635,9.339 10.710 C 8.732 10.917,8.209 11.000,7.500 11.000 C 6.791 11.000,6.268 10.917,5.661 10.710 C 5.442 10.635,5.246 10.568,5.225 10.561 C 5.197 10.551,5.144 10.653,5.006 10.980 " fill="currentColor" stroke="none" fill-rule="evenodd"></path></svg>