<svg fill="none" viewBox="0 0 15 15" xmlns="http://www.w3.org/2000/svg"><path d="M7.338 2.029 C 7.296 2.045,5.657 3.205,3.694 4.606 C 0.988 6.539,0.113 7.176,0.069 7.246 C -0.011 7.375,-0.009 7.623,0.073 7.758 C 0.119 7.833,0.896 8.399,3.716 10.413 C 6.245 12.219,7.325 12.977,7.387 12.989 C 7.608 13.031,7.847 12.920,7.940 12.734 C 7.985 12.642,7.988 12.544,8.000 10.560 L 8.013 8.482 11.125 10.706 C 12.837 11.930,14.277 12.948,14.325 12.968 C 14.532 13.057,14.827 12.946,14.935 12.738 L 14.988 12.638 14.988 7.488 L 14.988 2.337 14.931 2.247 C 14.900 2.197,14.827 2.125,14.769 2.086 C 14.681 2.027,14.636 2.014,14.513 2.015 C 14.430 2.015,14.334 2.027,14.300 2.043 C 14.266 2.059,12.837 3.073,11.125 4.297 L 8.013 6.521 8.000 4.429 L 7.988 2.337 7.931 2.247 C 7.814 2.058,7.533 1.955,7.338 2.029 M6.994 9.511 L 6.988 11.521 4.188 9.522 C 2.648 8.422,1.385 7.514,1.382 7.505 C 1.379 7.495,2.639 6.586,4.182 5.485 L 6.988 3.482 6.994 5.491 C 6.997 6.596,6.997 8.405,6.994 9.511 M13.994 9.511 L 13.988 11.521 11.188 9.522 C 9.648 8.422,8.385 7.514,8.382 7.505 C 8.379 7.495,9.639 6.586,11.182 5.485 L 13.988 3.482 13.994 5.491 C 13.997 6.596,13.997 8.405,13.994 9.511 " stroke="none" fill-rule="evenodd" fill="black"></path></svg>