<svg fill="none" viewBox="0 0 15 15" xmlns="http://www.w3.org/2000/svg"><path d="M5.927 0.026 C 4.636 0.151,3.446 0.630,2.425 1.436 C 2.169 1.638,1.597 2.216,1.396 2.475 C 0.483 3.655,0.000 5.046,0.000 6.500 C -0.000 7.955,0.481 9.341,1.396 10.525 C 1.608 10.798,2.202 11.392,2.475 11.604 C 3.514 12.407,4.633 12.849,5.950 12.976 C 6.321 13.012,7.019 12.994,7.395 12.939 C 8.558 12.768,9.602 12.322,10.521 11.605 L 10.730 11.442 12.434 13.146 L 14.138 14.850 14.494 14.494 L 14.850 14.138 13.146 12.434 L 11.442 10.730 11.605 10.521 C 12.324 9.599,12.757 8.584,12.942 7.383 C 13.001 7.005,13.001 5.995,12.942 5.617 C 12.757 4.415,12.330 3.413,11.603 2.475 C 11.402 2.215,10.830 1.637,10.575 1.436 C 10.058 1.027,9.315 0.609,8.716 0.388 C 8.374 0.262,7.870 0.137,7.459 0.075 C 7.059 0.016,6.290 -0.009,5.927 0.026 M7.000 1.026 C 8.906 1.200,10.596 2.365,11.436 4.085 C 12.468 6.194,12.045 8.723,10.384 10.387 C 9.352 11.419,7.954 12.000,6.500 12.000 C 4.406 12.000,2.487 10.800,1.561 8.910 C 0.532 6.811,0.957 4.273,2.615 2.615 C 3.771 1.459,5.375 0.878,7.000 1.026 M6.364 3.517 C 6.245 3.551,6.076 3.707,5.096 4.691 C 4.215 5.576,4.050 5.753,4.027 5.838 C 4.009 5.904,4.000 6.391,4.000 7.277 L 4.000 8.617 4.058 8.727 C 4.090 8.788,4.164 8.871,4.223 8.912 L 4.329 8.988 6.498 8.988 L 8.666 8.988 8.767 8.920 C 8.823 8.884,8.896 8.810,8.928 8.758 L 8.988 8.662 8.995 7.306 C 8.999 6.363,8.993 5.917,8.974 5.843 C 8.949 5.751,8.816 5.607,7.904 4.691 C 7.331 4.116,6.819 3.617,6.766 3.583 C 6.669 3.521,6.467 3.487,6.364 3.517 M7.256 5.469 L 8.000 6.212 8.000 7.106 L 8.000 8.000 6.500 8.000 L 5.000 8.000 5.000 7.106 L 5.000 6.213 5.744 5.469 C 6.153 5.060,6.493 4.725,6.500 4.725 C 6.507 4.725,6.847 5.060,7.256 5.469 " fill="currentColor" stroke="none" fill-rule="evenodd"></path></svg>