<svg fill="none" viewBox="0 0 15 15" xmlns="http://www.w3.org/2000/svg"><path d="M1.000 2.000 L 1.000 3.000 0.500 3.000 L 0.000 3.000 0.000 3.500 L 0.000 4.000 0.500 4.000 L 1.000 4.000 1.000 9.500 L 1.000 15.000 1.500 15.000 L 2.000 15.000 2.000 9.500 L 2.000 4.000 4.000 4.000 L 6.000 4.000 6.000 4.999 L 6.000 5.997 5.165 6.005 L 4.329 6.013 4.223 6.088 C 4.164 6.129,4.090 6.212,4.058 6.273 L 4.000 6.383 4.000 9.500 L 4.000 12.617 4.058 12.727 C 4.090 12.788,4.164 12.871,4.223 12.913 L 4.329 12.988 9.498 12.988 L 14.666 12.988 14.767 12.920 C 14.823 12.884,14.896 12.810,14.928 12.758 L 14.988 12.663 14.988 9.500 L 14.988 6.338 14.928 6.242 C 14.896 6.190,14.823 6.116,14.768 6.080 L 14.666 6.013 13.833 6.005 L 13.000 5.997 13.000 4.999 L 13.000 4.000 14.000 4.000 L 15.000 4.000 15.000 3.500 L 15.000 3.000 8.500 3.000 L 2.000 3.000 2.000 2.000 L 2.000 1.000 1.500 1.000 L 1.000 1.000 1.000 2.000 M12.000 5.000 L 12.000 6.000 9.500 6.000 L 7.000 6.000 7.000 5.000 L 7.000 4.000 9.500 4.000 L 12.000 4.000 12.000 5.000 M14.000 9.500 L 14.000 12.000 9.500 12.000 L 5.000 12.000 5.000 9.500 L 5.000 7.000 9.500 7.000 L 14.000 7.000 14.000 9.500 " fill="currentColor" stroke="none" fill-rule="evenodd"></path></svg>