<svg fill="none" viewBox="0 0 15 15" xmlns="http://www.w3.org/2000/svg"><path d="M7.213 3.035 C 6.927 3.082,6.745 3.139,6.484 3.264 C 5.794 3.594,5.280 4.221,5.082 4.972 C 5.030 5.169,5.017 5.292,5.006 5.650 L 4.992 6.088 4.815 6.173 C 4.686 6.235,4.586 6.310,4.449 6.448 C 4.233 6.666,4.121 6.859,4.049 7.140 C 4.003 7.323,4.000 7.422,4.000 9.000 C 4.000 10.578,4.003 10.677,4.049 10.860 C 4.122 11.143,4.233 11.334,4.449 11.551 C 4.666 11.767,4.857 11.878,5.140 11.951 C 5.325 11.998,5.424 12.000,7.500 12.000 C 9.576 12.000,9.675 11.998,9.860 11.951 C 10.143 11.878,10.334 11.767,10.551 11.551 C 10.767 11.334,10.878 11.143,10.951 10.860 C 10.997 10.677,11.000 10.578,11.000 9.000 C 11.000 7.422,10.997 7.323,10.951 7.140 C 10.879 6.859,10.767 6.666,10.551 6.448 C 10.413 6.308,10.313 6.234,10.175 6.166 C 9.837 6.000,9.843 6.001,7.815 6.000 L 5.993 6.000 6.007 5.656 C 6.029 5.112,6.145 4.827,6.486 4.486 C 6.998 3.975,7.696 3.861,8.350 4.182 C 8.527 4.269,8.611 4.334,8.851 4.567 L 9.140 4.848 9.496 4.491 L 9.852 4.135 9.595 3.884 C 9.198 3.499,8.872 3.283,8.475 3.145 C 8.113 3.019,7.585 2.973,7.213 3.035 M9.768 7.080 C 9.823 7.116,9.896 7.190,9.928 7.242 L 9.988 7.338 9.988 9.000 L 9.988 10.663 9.928 10.758 C 9.896 10.810,9.823 10.884,9.767 10.920 L 9.666 10.988 7.502 10.988 L 5.338 10.988 5.242 10.928 C 5.190 10.896,5.116 10.823,5.080 10.768 L 5.013 10.666 5.006 9.057 C 5.001 7.961,5.007 7.416,5.026 7.348 C 5.058 7.226,5.215 7.061,5.330 7.028 C 5.380 7.013,6.241 7.006,7.539 7.008 L 9.666 7.013 9.768 7.080 " fill="currentColor" stroke="none" fill-rule="evenodd"></path></svg>