<svg fill="none" viewBox="0 0 15 15" xmlns="http://www.w3.org/2000/svg"><path d="M1.169 1.038 C 0.780 1.116,0.332 1.468,0.154 1.835 C -0.008 2.171,0.001 1.830,0.001 7.500 C 0.001 13.168,-0.008 12.828,0.154 13.165 C 0.269 13.405,0.595 13.731,0.835 13.846 C 1.174 14.009,0.734 13.999,7.500 13.999 C 14.266 13.999,13.826 14.009,14.165 13.846 C 14.405 13.731,14.731 13.405,14.846 13.165 C 15.007 12.831,14.999 13.071,14.999 8.500 C 14.999 3.928,15.007 4.169,14.846 3.835 C 14.719 3.573,14.426 3.287,14.150 3.156 C 14.033 3.100,13.864 3.042,13.773 3.027 C 13.668 3.010,13.133 3.000,12.304 3.000 L 11.000 3.000 11.000 2.669 C 10.999 2.080,10.897 1.800,10.563 1.459 C 10.400 1.294,10.323 1.238,10.150 1.156 C 10.033 1.100,9.864 1.042,9.773 1.027 C 9.511 0.984,1.392 0.994,1.169 1.038 M9.759 2.079 C 9.811 2.115,9.885 2.189,9.921 2.241 C 9.983 2.331,9.988 2.358,9.996 2.669 L 10.005 3.000 5.500 3.000 L 0.995 3.000 1.004 2.669 C 1.012 2.358,1.017 2.331,1.079 2.241 C 1.148 2.142,1.277 2.040,1.363 2.018 C 1.390 2.011,3.269 2.007,5.538 2.009 L 9.663 2.013 9.759 2.079 M13.759 4.079 C 13.811 4.115,13.885 4.189,13.921 4.241 L 13.988 4.338 13.988 8.500 L 13.988 12.663 13.915 12.769 C 13.876 12.827,13.803 12.900,13.753 12.931 L 13.663 12.988 7.500 12.988 L 1.338 12.988 1.247 12.931 C 1.197 12.900,1.124 12.827,1.085 12.769 L 1.012 12.663 1.006 8.331 L 0.999 4.000 7.331 4.006 L 13.663 4.013 13.759 4.079 M9.000 9.500 L 9.000 10.000 10.500 10.000 L 12.000 10.000 12.000 9.500 L 12.000 9.000 10.500 9.000 L 9.000 9.000 9.000 9.500 " stroke="none" fill-rule="evenodd" fill="black"></path></svg>