<svg fill="none" viewBox="0 0 15 15" xmlns="http://www.w3.org/2000/svg"><path d="M7.063 0.040 C 6.087 0.214,5.338 0.914,5.071 1.901 C 4.988 2.205,4.988 2.766,5.071 3.081 C 5.302 3.965,5.925 4.622,6.781 4.888 L 7.000 4.956 7.000 9.465 C 7.000 13.057,6.994 13.975,6.969 13.975 C 6.880 13.973,6.382 13.897,6.170 13.853 C 3.404 13.274,1.335 10.977,1.037 8.156 L 1.020 8.000 2.010 8.000 L 3.000 8.000 3.000 7.500 L 3.000 7.000 1.500 7.000 L 0.000 7.000 0.000 7.419 C 0.001 9.140,0.503 10.656,1.522 12.016 C 1.787 12.369,2.323 12.935,2.660 13.218 C 3.799 14.174,5.114 14.746,6.620 14.941 C 7.050 14.997,7.950 14.997,8.380 14.941 C 9.877 14.747,11.203 14.173,12.325 13.231 C 12.622 12.982,13.160 12.429,13.377 12.149 C 14.105 11.213,14.574 10.226,14.825 9.100 C 14.934 8.614,14.977 8.229,14.992 7.606 L 15.007 7.000 13.504 7.000 L 12.000 7.000 12.000 7.500 L 12.000 8.000 12.990 8.000 L 13.980 8.000 13.963 8.156 C 13.665 10.976,11.595 13.274,8.830 13.853 C 8.618 13.897,8.120 13.973,8.031 13.975 C 8.006 13.975,8.000 13.057,8.000 9.465 L 8.000 4.956 8.219 4.888 C 8.896 4.678,9.429 4.221,9.738 3.588 C 9.932 3.189,9.986 2.950,9.986 2.500 C 9.985 2.088,9.941 1.860,9.792 1.508 C 9.466 0.735,8.726 0.163,7.888 0.035 C 7.607 -0.008,7.322 -0.006,7.063 0.040 M7.813 1.038 C 8.375 1.156,8.844 1.625,8.962 2.188 C 9.069 2.696,8.925 3.177,8.553 3.549 C 8.334 3.768,8.144 3.878,7.860 3.951 C 7.508 4.041,7.125 3.994,6.792 3.820 C 6.567 3.703,6.281 3.407,6.166 3.173 C 5.872 2.577,5.980 1.915,6.448 1.448 C 6.819 1.076,7.303 0.931,7.813 1.038 " fill="currentColor" stroke="none" fill-rule="evenodd"></path></svg>