<svg fill="none" viewBox="0 0 15 15" xmlns="http://www.w3.org/2000/svg"><path d="M7.325 0.028 C 7.260 0.047,7.083 0.208,6.646 0.646 C 6.157 1.135,6.050 1.255,6.027 1.338 C 6.011 1.399,6.000 1.736,6.000 2.219 L 6.000 3.000 7.500 3.000 L 9.000 3.000 9.000 2.219 C 9.000 1.727,8.990 1.400,8.972 1.338 C 8.950 1.256,8.843 1.135,8.391 0.680 C 8.087 0.373,7.801 0.099,7.757 0.072 C 7.661 0.013,7.449 -0.009,7.325 0.028 M6.000 6.000 L 6.000 8.000 7.500 8.000 L 9.000 8.000 9.000 6.000 L 9.000 4.000 7.500 4.000 L 6.000 4.000 6.000 6.000 M5.000 10.834 C 5.000 12.578,5.002 12.676,5.049 12.860 C 5.122 13.143,5.233 13.334,5.449 13.551 C 5.783 13.884,6.096 14.000,6.666 14.000 L 7.000 14.000 7.000 14.500 L 7.000 15.000 7.500 15.000 L 8.000 15.000 8.000 14.500 L 8.000 14.000 8.334 14.000 C 8.904 14.000,9.217 13.884,9.551 13.551 C 9.767 13.334,9.878 13.143,9.951 12.860 C 9.998 12.676,10.000 12.578,10.000 10.834 L 10.000 9.000 7.500 9.000 L 5.000 9.000 5.000 10.834 " fill="currentColor" stroke="none" fill-rule="evenodd"></path></svg>