<svg fill="none" viewBox="0 0 15 15" xmlns="http://www.w3.org/2000/svg"><path d="M2.175 0.039 C 1.902 0.098,1.663 0.233,1.449 0.448 C 1.233 0.666,1.121 0.859,1.049 1.140 C 1.001 1.330,1.000 1.440,1.000 7.500 C 1.000 13.560,1.001 13.670,1.049 13.860 C 1.122 14.143,1.233 14.334,1.449 14.551 C 1.666 14.767,1.857 14.878,2.140 14.951 C 2.329 14.999,2.436 15.000,7.500 15.000 C 12.564 15.000,12.671 14.999,12.860 14.951 C 13.143 14.878,13.334 14.767,13.551 14.551 C 13.767 14.334,13.878 14.143,13.951 13.860 C 13.999 13.670,14.000 13.560,14.000 7.500 C 14.000 1.440,13.999 1.330,13.951 1.140 C 13.879 0.859,13.767 0.666,13.551 0.448 C 13.334 0.229,13.096 0.097,12.813 0.038 C 12.556 -0.016,2.425 -0.015,2.175 0.039 M5.006 3.456 L 5.015 4.913 5.083 5.149 C 5.307 5.921,5.854 6.535,6.575 6.822 C 7.397 7.149,8.366 7.006,9.051 6.456 C 9.529 6.072,9.826 5.585,9.948 4.984 C 9.997 4.745,10.000 4.646,10.000 3.365 L 10.000 2.000 10.502 2.000 L 11.004 2.000 10.993 3.481 C 10.984 4.873,10.980 4.976,10.931 5.195 C 10.775 5.885,10.492 6.421,10.026 6.908 C 9.506 7.450,8.906 7.781,8.150 7.942 C 7.852 8.006,7.148 8.006,6.850 7.942 C 6.094 7.781,5.494 7.450,4.974 6.908 C 4.509 6.422,4.223 5.883,4.071 5.205 C 4.019 4.974,4.016 4.891,4.007 3.481 L 3.996 2.000 4.497 2.000 L 4.997 2.000 5.006 3.456 " fill="currentColor" stroke="none" fill-rule="evenodd"></path></svg>