<svg fill="none" viewBox="0 0 15 15" xmlns="http://www.w3.org/2000/svg"><path d="M7.071 0.027 C 6.636 0.081,6.162 0.238,5.787 0.453 C 5.465 0.638,5.240 0.814,4.970 1.096 C 4.597 1.484,4.353 1.887,4.188 2.383 C 4.049 2.801,4.022 2.969,4.007 3.506 L 3.994 4.000 4.493 4.000 L 4.993 4.000 5.007 3.556 C 5.023 3.033,5.070 2.809,5.235 2.461 C 5.380 2.155,5.522 1.949,5.736 1.736 C 6.047 1.425,6.485 1.177,6.914 1.071 C 7.232 0.992,7.768 0.992,8.086 1.071 C 8.515 1.177,8.953 1.425,9.264 1.736 C 9.478 1.949,9.620 2.155,9.765 2.461 C 9.930 2.809,9.977 3.033,9.993 3.556 L 10.007 4.000 10.507 4.000 L 11.006 4.000 10.993 3.506 C 10.978 2.967,10.951 2.801,10.810 2.376 C 10.632 1.841,10.342 1.390,9.908 0.974 C 9.411 0.498,8.819 0.192,8.150 0.063 C 7.890 0.014,7.330 -0.005,7.071 0.027 M3.080 5.038 C 2.570 5.149,2.140 5.532,1.975 6.025 C 1.895 6.261,1.118 13.225,1.132 13.575 C 1.157 14.217,1.551 14.720,2.200 14.941 C 2.333 14.986,2.520 14.988,7.500 14.988 C 12.495 14.988,12.667 14.986,12.800 14.940 C 13.283 14.775,13.607 14.476,13.779 14.038 C 13.919 13.679,13.926 13.781,13.490 9.850 C 13.275 7.918,13.083 6.262,13.063 6.170 C 13.002 5.889,12.888 5.687,12.663 5.460 C 12.433 5.228,12.202 5.098,11.913 5.038 C 11.660 4.985,3.324 4.985,3.080 5.038 " fill="currentColor" stroke="none" fill-rule="evenodd"></path></svg>