<svg fill="none" viewBox="0 0 15 15" xmlns="http://www.w3.org/2000/svg"><path d="M1.342 0.025 C 1.229 0.059,1.109 0.166,1.053 0.282 L 1.000 0.391 1.000 7.004 L 1.000 13.617 1.058 13.727 C 1.090 13.788,1.164 13.871,1.223 13.913 L 1.329 13.988 2.165 13.995 L 3.000 14.003 3.000 7.001 L 3.000 0.000 2.206 0.002 C 1.770 0.003,1.381 0.014,1.342 0.025 M4.000 7.499 L 4.000 15.000 4.500 15.000 L 5.000 15.000 5.000 14.501 L 5.000 14.001 8.444 13.994 L 11.888 13.988 12.132 13.920 C 13.073 13.660,13.755 12.932,13.949 11.982 C 14.001 11.727,14.001 11.705,13.994 6.919 L 13.988 2.113 13.921 1.872 C 13.757 1.278,13.403 0.774,12.918 0.445 C 12.705 0.301,12.345 0.136,12.099 0.070 L 11.888 0.014 7.944 0.006 L 4.000 -0.001 4.000 7.499 M11.000 4.500 L 11.000 5.000 9.000 5.000 L 7.000 5.000 7.000 4.500 L 7.000 4.000 9.000 4.000 L 11.000 4.000 11.000 4.500 " fill="currentColor" stroke="none" fill-rule="evenodd"></path></svg>