<svg fill="none" viewBox="0 0 15 15" xmlns="http://www.w3.org/2000/svg"><path d="M4.863 1.017 C 3.883 1.106,2.925 1.661,2.346 2.475 C 2.282 2.564,1.728 3.474,1.115 4.496 L 0.000 6.354 -0.000 9.510 C -0.000 12.572,0.001 12.673,0.049 12.860 C 0.122 13.143,0.233 13.334,0.449 13.551 C 0.666 13.767,0.857 13.878,1.140 13.951 C 1.309 13.994,1.418 14.000,2.000 14.000 C 2.582 14.000,2.691 13.994,2.860 13.951 C 3.143 13.878,3.334 13.767,3.551 13.551 C 3.884 13.217,4.000 12.904,4.000 12.334 L 4.000 12.000 7.500 12.000 L 11.000 12.000 11.000 12.334 C 11.000 12.904,11.116 13.217,11.449 13.551 C 11.666 13.767,11.857 13.878,12.140 13.951 C 12.309 13.994,12.418 14.000,13.000 14.000 C 13.582 14.000,13.691 13.994,13.860 13.951 C 14.143 13.878,14.334 13.767,14.551 13.551 C 14.767 13.334,14.878 13.143,14.951 12.860 C 14.999 12.673,15.000 12.572,15.000 9.509 L 15.000 6.351 13.860 4.457 C 13.234 3.415,12.661 2.484,12.587 2.388 C 12.006 1.626,11.136 1.132,10.192 1.027 C 9.970 1.002,5.126 0.994,4.863 1.017 M12.000 6.500 L 12.000 7.000 7.500 7.000 L 3.000 7.000 3.000 6.500 L 3.000 6.000 7.500 6.000 L 12.000 6.000 12.000 6.500 M5.000 9.500 L 5.000 10.000 3.500 10.000 L 2.000 10.000 2.000 9.500 L 2.000 9.000 3.500 9.000 L 5.000 9.000 5.000 9.500 M13.000 9.500 L 13.000 10.000 11.500 10.000 L 10.000 10.000 10.000 9.500 L 10.000 9.000 11.500 9.000 L 13.000 9.000 13.000 9.500 " fill="currentColor" stroke="none" fill-rule="evenodd"></path></svg>