<svg fill="none" viewBox="0 0 15 15" xmlns="http://www.w3.org/2000/svg"><path d="M1.175 0.039 C 0.636 0.155,0.179 0.606,0.038 1.162 C 0.005 1.293,-0.000 2.052,-0.000 7.489 C -0.000 13.560,0.001 13.670,0.049 13.860 C 0.122 14.143,0.233 14.334,0.449 14.551 C 0.666 14.767,0.857 14.878,1.140 14.951 C 1.327 14.999,1.429 15.000,4.666 15.000 L 8.000 15.000 8.000 13.169 L 8.000 11.338 7.822 11.088 C 7.229 10.250,6.933 9.167,7.020 8.158 C 7.075 7.533,7.195 7.084,7.450 6.555 C 7.787 5.856,8.265 5.285,8.892 4.833 C 9.162 4.639,9.755 4.337,10.075 4.232 C 11.208 3.858,12.445 3.948,13.513 4.481 C 13.842 4.646,14.011 4.757,14.550 5.163 L 15.000 5.501 15.000 3.417 C 15.000 1.423,14.998 1.325,14.951 1.140 C 14.879 0.859,14.767 0.666,14.551 0.448 C 14.334 0.229,14.096 0.097,13.813 0.038 C 13.556 -0.016,1.425 -0.015,1.175 0.039 M8.000 4.500 L 8.000 5.000 5.500 5.000 L 3.000 5.000 3.000 4.500 L 3.000 4.000 5.500 4.000 L 8.000 4.000 8.000 4.500 M11.071 5.027 C 10.636 5.081,10.142 5.247,9.763 5.466 C 9.174 5.807,8.662 6.349,8.364 6.946 C 8.252 7.169,8.119 7.563,8.058 7.850 C 7.994 8.148,7.994 8.852,8.058 9.150 C 8.193 9.784,8.481 10.374,8.860 10.791 L 8.999 10.944 9.006 12.807 L 9.013 14.671 9.088 14.777 C 9.227 14.975,9.506 15.056,9.701 14.955 C 9.749 14.931,10.173 14.621,10.644 14.268 L 11.500 13.624 12.356 14.268 C 12.827 14.621,13.251 14.931,13.299 14.955 C 13.494 15.056,13.773 14.975,13.913 14.777 L 13.988 14.671 13.994 12.807 L 14.001 10.944 14.140 10.791 C 14.519 10.374,14.807 9.784,14.942 9.150 C 15.006 8.852,15.006 8.148,14.942 7.850 C 14.781 7.094,14.450 6.494,13.908 5.974 C 13.411 5.498,12.819 5.192,12.150 5.063 C 11.890 5.014,11.330 4.995,11.071 5.027 M6.000 7.500 L 6.000 8.000 4.500 8.000 L 3.000 8.000 3.000 7.500 L 3.000 7.000 4.500 7.000 L 6.000 7.000 6.000 7.500 M10.313 11.788 C 10.733 11.941,11.008 11.987,11.500 11.987 C 11.867 11.987,11.980 11.977,12.199 11.929 C 12.416 11.880,12.747 11.775,12.956 11.688 C 12.997 11.671,13.000 11.723,13.000 12.585 L 13.000 13.500 12.369 13.027 C 11.892 12.669,11.708 12.545,11.619 12.521 C 11.404 12.464,11.334 12.499,10.631 13.027 L 10.000 13.500 10.000 12.585 C 10.000 11.723,10.003 11.671,10.044 11.688 C 10.068 11.698,10.189 11.743,10.313 11.788 " fill="currentColor" stroke="none" fill-rule="evenodd"></path></svg>