<svg fill="none" viewBox="0 0 15 15" xmlns="http://www.w3.org/2000/svg"><path d="M5.295 0.604 C 5.043 0.628,4.929 0.660,4.688 0.773 C 4.297 0.957,4.001 1.242,3.800 1.628 C 3.654 1.909,3.595 2.154,3.593 2.488 C 3.592 2.808,3.636 3.018,3.760 3.287 C 3.867 3.520,3.952 3.642,4.160 3.867 L 4.327 4.047 2.709 6.130 C 1.818 7.275,1.074 8.245,1.053 8.286 C 0.997 8.399,0.990 8.573,1.037 8.688 C 1.068 8.762,1.736 9.445,3.683 11.394 L 6.287 14.000 4.144 14.000 L 2.000 14.000 2.000 14.500 L 2.000 15.000 7.500 15.000 L 13.000 15.000 13.000 14.500 L 13.000 14.000 10.356 14.000 L 7.712 14.000 4.941 11.228 L 2.169 8.456 3.600 6.616 C 4.388 5.603,5.039 4.775,5.047 4.775 C 5.056 4.775,5.280 4.992,5.544 5.257 L 6.026 5.739 5.949 5.950 C 5.709 6.606,5.623 7.376,5.713 8.061 C 5.835 8.990,6.217 9.831,6.835 10.529 C 7.094 10.822,7.247 10.911,7.487 10.912 C 7.815 10.913,7.584 11.122,10.832 7.878 C 14.079 4.636,13.913 4.818,13.913 4.500 C 13.913 4.262,13.826 4.101,13.580 3.882 C 13.319 3.649,13.126 3.504,12.849 3.336 C 11.711 2.642,10.307 2.492,9.026 2.926 L 8.738 3.024 7.738 2.029 C 7.188 1.481,6.679 0.992,6.608 0.941 C 6.242 0.679,5.773 0.559,5.295 0.604 " fill="currentColor" stroke="none" fill-rule="evenodd"></path></svg>