<svg fill="none" viewBox="0 0 15 15" xmlns="http://www.w3.org/2000/svg"><path d="M0.342 0.024 C 0.152 0.085,-0.000 0.295,0.000 0.497 C 0.000 0.584,0.585 1.968,3.028 7.671 C 4.694 11.557,6.078 14.768,6.104 14.804 C 6.267 15.036,6.640 15.060,6.848 14.852 C 6.940 14.760,6.976 14.659,7.912 11.847 C 8.445 10.247,8.894 8.925,8.909 8.909 C 8.925 8.894,10.246 8.445,11.844 7.913 C 15.013 6.858,14.869 6.915,14.962 6.692 C 15.044 6.497,14.977 6.236,14.816 6.115 C 14.773 6.082,11.566 4.697,7.691 3.036 C 2.348 0.747,0.616 0.015,0.528 0.009 C 0.465 0.005,0.381 0.012,0.342 0.024 " fill="currentColor" stroke="none" fill-rule="evenodd"></path></svg>