<svg fill="none" viewBox="0 0 15 15" xmlns="http://www.w3.org/2000/svg"><path d="M6.000 2.000 L 6.000 3.000 4.000 3.000 L 2.000 3.000 2.000 4.000 L 2.000 5.000 1.000 5.000 L 0.000 5.000 0.000 6.885 C 0.000 8.744,0.011 9.068,0.088 9.481 C 0.409 11.207,1.525 12.679,3.088 13.439 C 3.717 13.744,4.313 13.911,5.013 13.977 C 5.429 14.016,6.637 13.993,7.022 13.939 C 9.430 13.598,11.488 12.236,12.699 10.181 L 12.806 10.000 13.903 10.000 L 15.000 10.000 15.000 9.166 C 15.000 8.418,14.995 8.313,14.951 8.140 C 14.879 7.859,14.767 7.666,14.551 7.448 C 14.224 7.118,13.901 7.001,13.319 7.000 L 13.000 7.000 13.000 6.666 C 13.000 6.097,12.885 5.784,12.551 5.448 C 12.413 5.308,12.313 5.234,12.175 5.166 C 11.848 5.006,11.792 5.001,10.319 5.000 L 9.000 5.000 9.000 3.000 L 9.000 1.000 7.500 1.000 L 6.000 1.000 6.000 2.000 M8.000 2.500 L 8.000 3.000 7.500 3.000 L 7.000 3.000 7.000 2.500 L 7.000 2.000 7.500 2.000 L 8.000 2.000 8.000 2.500 M4.000 4.500 L 4.000 5.000 3.500 5.000 L 3.000 5.000 3.000 4.500 L 3.000 4.000 3.500 4.000 L 4.000 4.000 4.000 4.500 M6.000 4.500 L 6.000 5.000 5.500 5.000 L 5.000 5.000 5.000 4.500 L 5.000 4.000 5.500 4.000 L 6.000 4.000 6.000 4.500 M8.000 4.500 L 8.000 5.000 7.500 5.000 L 7.000 5.000 7.000 4.500 L 7.000 4.000 7.500 4.000 L 8.000 4.000 8.000 4.500 M2.000 6.500 L 2.000 7.000 1.500 7.000 L 1.000 7.000 1.000 6.500 L 1.000 6.000 1.500 6.000 L 2.000 6.000 2.000 6.500 M4.000 6.500 L 4.000 7.000 3.500 7.000 L 3.000 7.000 3.000 6.500 L 3.000 6.000 3.500 6.000 L 4.000 6.000 4.000 6.500 M6.000 6.500 L 6.000 7.000 5.500 7.000 L 5.000 7.000 5.000 6.500 L 5.000 6.000 5.500 6.000 L 6.000 6.000 6.000 6.500 M8.000 6.500 L 8.000 7.000 7.500 7.000 L 7.000 7.000 7.000 6.500 L 7.000 6.000 7.500 6.000 L 8.000 6.000 8.000 6.500 M10.000 6.500 L 10.000 7.000 9.500 7.000 L 9.000 7.000 9.000 6.500 L 9.000 6.000 9.500 6.000 L 10.000 6.000 10.000 6.500 M4.000 9.500 L 4.000 10.000 3.500 10.000 L 3.000 10.000 3.000 9.500 L 3.000 9.000 3.500 9.000 L 4.000 9.000 4.000 9.500 " fill="currentColor" stroke="none" fill-rule="evenodd"></path></svg>