<svg fill="none" viewBox="0 0 15 15" xmlns="http://www.w3.org/2000/svg"><path d="M4.175 0.039 C 3.902 0.098,3.663 0.233,3.449 0.448 C 3.115 0.784,3.000 1.097,3.000 1.666 L 3.000 2.000 2.681 2.000 C 2.099 2.001,1.776 2.118,1.449 2.448 C 1.233 2.666,1.121 2.859,1.049 3.140 C 1.001 3.329,1.000 3.436,1.000 8.500 C 1.000 13.564,1.001 13.671,1.049 13.860 C 1.122 14.143,1.233 14.334,1.449 14.551 C 1.666 14.767,1.857 14.878,2.140 14.951 C 2.328 14.999,2.432 15.000,6.500 15.000 C 10.568 15.000,10.672 14.999,10.860 14.951 C 11.143 14.878,11.334 14.767,11.551 14.551 C 11.884 14.217,12.000 13.904,12.000 13.334 L 12.000 13.000 12.334 13.000 C 12.904 13.000,13.217 12.884,13.551 12.551 C 13.767 12.334,13.878 12.143,13.951 11.860 C 13.999 11.671,14.000 11.566,14.000 6.950 L 14.000 2.233 12.325 1.117 L 10.650 0.000 7.494 0.002 C 4.887 0.004,4.309 0.010,4.175 0.039 M3.000 7.334 C 3.000 11.567,3.001 11.671,3.049 11.860 C 3.122 12.143,3.233 12.334,3.449 12.551 C 3.666 12.767,3.857 12.878,4.140 12.951 C 4.327 12.999,4.429 13.000,7.669 13.000 L 11.005 13.000 10.996 13.331 C 10.988 13.628,10.981 13.672,10.928 13.758 C 10.896 13.810,10.823 13.884,10.767 13.920 L 10.666 13.988 6.500 13.988 L 2.334 13.988 2.233 13.920 C 2.177 13.884,2.104 13.810,2.072 13.758 L 2.013 13.663 2.006 8.554 C 2.002 5.007,2.008 3.414,2.026 3.346 C 2.058 3.226,2.216 3.061,2.330 3.028 C 2.376 3.015,2.545 3.003,2.706 3.002 L 3.000 3.000 3.000 7.334 " fill="currentColor" stroke="none" fill-rule="evenodd"></path></svg>