<svg fill="none" viewBox="0 0 15 15" xmlns="http://www.w3.org/2000/svg"><path d="M5.137 6.150 L 3.788 7.500 5.144 8.856 L 6.500 10.212 6.856 9.856 L 7.212 9.500 6.213 8.500 L 5.213 7.500 6.212 6.500 L 7.212 5.500 6.863 5.150 C 6.670 4.958,6.507 4.800,6.500 4.800 C 6.493 4.800,5.880 5.408,5.137 6.150 M8.137 6.150 L 6.788 7.500 8.144 8.856 L 9.500 10.212 9.856 9.856 L 10.212 9.500 9.213 8.500 L 8.213 7.500 9.212 6.500 L 10.212 5.500 9.863 5.150 C 9.670 4.958,9.507 4.800,9.500 4.800 C 9.493 4.800,8.880 5.408,8.137 6.150 " fill="currentColor" stroke="none" fill-rule="evenodd"></path></svg>