<svg fill="none" viewBox="0 0 15 15" xmlns="http://www.w3.org/2000/svg"><path d="M1.137 0.654 C 0.959 0.848,0.813 1.015,0.813 1.026 C 0.813 1.036,2.371 2.491,4.275 4.260 C 6.179 6.029,7.738 7.487,7.738 7.501 C 7.738 7.514,6.179 8.972,4.275 10.741 C 2.371 12.510,0.813 13.965,0.813 13.975 C 0.813 14.000,1.451 14.688,1.475 14.688 C 1.502 14.688,9.213 7.525,9.213 7.500 C 9.213 7.481,1.514 0.320,1.479 0.306 C 1.470 0.303,1.316 0.459,1.137 0.654 M6.638 0.654 C 6.459 0.848,6.313 1.015,6.313 1.026 C 6.313 1.036,7.871 2.491,9.775 4.260 C 11.679 6.029,13.238 7.487,13.238 7.501 C 13.238 7.514,11.679 8.972,9.775 10.741 C 7.871 12.510,6.313 13.965,6.313 13.975 C 6.313 14.000,6.951 14.688,6.975 14.688 C 7.002 14.688,14.713 7.525,14.713 7.500 C 14.713 7.481,7.014 0.320,6.979 0.306 C 6.970 0.303,6.816 0.459,6.638 0.654 " fill="currentColor" stroke="none" fill-rule="evenodd"></path></svg>