<svg fill="none" viewBox="0 0 15 15" xmlns="http://www.w3.org/2000/svg"><path d="M6.875 0.028 C 6.323 0.077,5.758 0.187,5.275 0.340 L 4.998 0.427 5.055 0.498 C 5.087 0.537,5.288 0.787,5.503 1.053 C 6.559 2.364,7.457 3.665,8.135 4.868 L 8.279 5.123 8.383 5.084 C 8.645 4.985,9.520 4.532,9.820 4.340 C 10.769 3.732,11.320 3.225,12.392 1.977 L 12.471 1.884 12.354 1.784 C 10.870 0.512,8.823 -0.144,6.875 0.028 M3.775 0.991 C 2.181 1.919,0.996 3.349,0.415 5.047 C 0.295 5.397,0.142 5.978,0.113 6.194 L 0.095 6.325 0.379 6.325 C 0.720 6.324,1.754 6.284,2.325 6.249 C 4.176 6.136,5.700 5.912,6.938 5.573 C 7.144 5.517,7.315 5.468,7.319 5.464 C 7.330 5.454,7.022 4.932,6.732 4.469 C 6.359 3.872,5.916 3.233,5.412 2.563 C 4.955 1.955,4.080 0.870,4.038 0.859 C 4.024 0.855,3.906 0.915,3.775 0.991 M12.983 2.821 C 12.876 2.942,12.690 3.153,12.571 3.289 C 11.642 4.357,10.375 5.294,9.088 5.865 C 8.909 5.945,8.759 6.012,8.755 6.015 C 8.750 6.017,8.810 6.146,8.887 6.300 C 8.965 6.454,9.095 6.733,9.178 6.921 C 9.261 7.109,9.337 7.270,9.346 7.280 C 9.355 7.290,9.436 7.287,9.525 7.275 C 9.614 7.262,9.913 7.238,10.190 7.222 C 10.962 7.176,11.931 7.242,12.825 7.402 C 13.566 7.535,14.533 7.783,14.800 7.909 C 14.876 7.945,14.953 7.975,14.972 7.975 C 15.001 7.975,15.004 7.877,14.992 7.381 C 14.984 7.055,14.961 6.669,14.940 6.525 C 14.738 5.108,14.181 3.820,13.317 2.769 L 13.179 2.601 12.983 2.821 M7.538 6.440 C 5.897 6.949,3.573 7.247,0.690 7.316 L -0.008 7.333 0.008 7.773 C 0.064 9.316,0.583 10.778,1.513 12.013 C 1.710 12.274,2.036 12.653,2.078 12.670 C 2.089 12.675,2.133 12.608,2.177 12.521 C 2.278 12.321,2.540 11.930,2.860 11.501 C 4.148 9.772,5.575 8.587,7.202 7.893 C 7.460 7.783,8.040 7.578,8.242 7.526 L 8.347 7.499 8.260 7.306 C 8.009 6.751,7.814 6.375,7.777 6.377 C 7.755 6.378,7.647 6.406,7.538 6.440 M10.275 8.214 C 10.227 8.220,10.084 8.231,9.957 8.240 L 9.727 8.254 9.840 8.571 C 10.138 9.411,10.459 10.560,10.660 11.500 C 10.831 12.301,11.050 13.688,11.050 13.967 C 11.050 14.040,11.056 14.100,11.063 14.100 C 11.105 14.100,11.707 13.715,11.955 13.531 C 13.332 12.503,14.287 11.106,14.739 9.455 C 14.866 8.993,14.883 9.046,14.563 8.899 C 14.018 8.650,12.759 8.362,11.771 8.263 C 11.396 8.225,10.449 8.194,10.275 8.214 M8.588 8.468 C 8.560 8.474,8.397 8.525,8.225 8.580 C 7.180 8.917,6.235 9.465,5.325 10.263 C 4.640 10.864,3.841 11.792,3.257 12.663 C 3.104 12.893,2.875 13.323,2.875 13.381 C 2.876 13.420,3.326 13.742,3.663 13.944 C 4.623 14.519,5.701 14.866,6.875 14.977 C 7.256 15.013,8.069 14.993,8.472 14.938 C 8.963 14.870,9.631 14.711,9.981 14.577 L 10.050 14.551 10.050 14.203 C 10.050 13.409,9.681 11.460,9.258 10.025 C 9.151 9.660,8.834 8.709,8.761 8.531 C 8.728 8.451,8.701 8.441,8.588 8.468 " fill="currentColor" stroke="none" fill-rule="evenodd"></path></svg>