<svg fill="none" viewBox="0 0 15 15" xmlns="http://www.w3.org/2000/svg"><path d="M7.025 0.016 C 6.154 0.098,5.661 0.199,5.004 0.430 C 3.620 0.916,2.401 1.811,1.503 3.000 C 0.181 4.751,-0.298 6.995,0.188 9.162 C 0.572 10.875,1.567 12.410,2.996 13.494 C 3.991 14.249,5.139 14.724,6.475 14.932 C 6.965 15.008,8.035 15.008,8.525 14.932 C 10.348 14.648,11.897 13.826,13.060 12.527 C 14.090 11.375,14.686 10.102,14.932 8.525 C 15.010 8.025,15.008 6.967,14.929 6.450 C 14.596 4.283,13.437 2.446,11.659 1.268 C 10.553 0.535,9.402 0.134,8.092 0.026 C 7.797 0.002,7.232 -0.003,7.025 0.016 M8.766 4.083 C 8.879 4.157,10.840 6.122,10.928 6.250 C 10.976 6.320,10.987 6.370,10.987 6.500 C 10.987 6.642,10.977 6.677,10.908 6.775 C 10.864 6.837,9.902 7.813,8.770 8.945 L 6.711 11.002 5.522 10.995 L 4.334 10.988 4.232 10.920 C 4.177 10.884,4.104 10.810,4.072 10.758 L 4.013 10.663 4.005 9.476 L 3.998 8.289 6.068 6.218 C 7.206 5.078,8.177 4.120,8.226 4.088 C 8.344 4.012,8.388 4.001,8.541 4.012 C 8.623 4.018,8.704 4.043,8.766 4.083 " fill="currentColor" stroke="none" fill-rule="evenodd"></path></svg>