<svg fill="none" viewBox="0 0 15 15" xmlns="http://www.w3.org/2000/svg"><path d="M7.231 0.176 C 7.159 0.189,7.035 0.226,6.956 0.258 C 6.817 0.315,0.991 3.631,0.687 3.826 C 0.605 3.880,0.494 3.967,0.441 4.022 L 0.344 4.121 0.416 4.158 C 0.455 4.178,2.061 5.034,3.984 6.060 C 5.907 7.086,7.490 7.925,7.500 7.925 C 7.510 7.925,9.093 7.086,11.016 6.060 C 12.939 5.034,14.545 4.178,14.584 4.158 L 14.656 4.121 14.572 4.033 C 14.525 3.985,14.426 3.903,14.350 3.852 C 14.030 3.635,8.134 0.289,7.974 0.234 C 7.779 0.166,7.436 0.139,7.231 0.176 M0.000 9.370 C 0.000 13.567,0.001 13.671,0.049 13.860 C 0.122 14.143,0.233 14.334,0.449 14.551 C 0.666 14.767,0.857 14.878,1.140 14.951 C 1.330 14.999,1.440 15.000,7.500 15.000 C 13.560 15.000,13.670 14.999,13.860 14.951 C 14.142 14.879,14.334 14.767,14.552 14.551 C 14.687 14.417,14.768 14.310,14.832 14.181 C 15.012 13.818,15.002 14.122,14.994 9.356 L 14.988 5.075 11.263 7.063 C 8.970 8.287,7.518 9.048,7.486 9.042 C 7.458 9.038,5.799 8.161,3.799 7.095 C 1.799 6.029,0.126 5.138,0.081 5.115 L -0.000 5.074 0.000 9.370 " fill="currentColor" stroke="none" fill-rule="evenodd"></path></svg>