<svg fill="none" viewBox="0 0 15 15" xmlns="http://www.w3.org/2000/svg"><path d="M3.285 1.060 C 3.215 1.093,3.135 1.151,3.107 1.191 C 3.079 1.230,2.368 2.638,1.528 4.319 C 0.121 7.135,-0.000 7.386,-0.000 7.500 C -0.000 7.615,0.122 7.868,1.556 10.731 C 3.060 13.733,3.116 13.840,3.221 13.913 L 3.329 13.988 7.500 13.988 L 11.671 13.988 11.779 13.913 C 11.884 13.840,11.941 13.732,13.436 10.750 L 14.985 7.663 14.985 7.500 L 14.985 7.338 13.465 4.300 C 12.628 2.629,11.921 1.230,11.893 1.191 C 11.865 1.151,11.785 1.093,11.715 1.060 L 11.588 1.000 7.500 1.000 L 3.413 1.000 3.285 1.060 M9.250 4.567 L 11.000 5.733 11.000 7.500 L 11.000 9.267 9.250 10.433 L 7.500 11.600 5.750 10.433 L 4.000 9.267 4.000 7.500 L 4.000 5.733 5.744 4.568 C 6.703 3.928,7.490 3.403,7.494 3.402 C 7.497 3.401,8.288 3.925,9.250 4.567 M6.244 5.433 L 5.001 6.263 5.001 7.500 L 5.001 8.738 6.251 9.569 L 7.500 10.400 8.749 9.569 L 9.999 8.738 9.999 7.500 L 9.999 6.263 8.759 5.438 C 8.078 4.984,7.513 4.610,7.504 4.608 C 7.495 4.606,6.928 4.977,6.244 5.433 " fill="currentColor" stroke="none" fill-rule="evenodd"></path></svg>