<svg fill="none" viewBox="0 0 15 15" xmlns="http://www.w3.org/2000/svg"><path d="M2.175 0.039 C 1.902 0.098,1.663 0.233,1.449 0.448 C 1.233 0.666,1.121 0.859,1.049 1.140 C 1.001 1.330,1.000 1.440,1.000 7.500 C 1.000 13.560,1.001 13.670,1.049 13.860 C 1.122 14.143,1.233 14.334,1.449 14.551 C 1.666 14.767,1.857 14.878,2.140 14.951 C 2.329 14.999,2.436 15.000,7.500 15.000 C 12.564 15.000,12.671 14.999,12.860 14.951 C 13.143 14.878,13.334 14.767,13.551 14.551 C 13.767 14.334,13.878 14.143,13.951 13.860 C 13.999 13.671,14.000 13.564,14.000 8.477 L 14.000 3.287 12.356 1.644 L 10.712 0.000 6.525 0.002 C 3.034 0.004,2.310 0.010,2.175 0.039 M6.681 5.969 L 7.500 6.787 8.325 5.962 L 9.150 5.138 9.506 5.494 L 9.862 5.850 9.038 6.675 L 8.213 7.500 9.031 8.319 L 9.850 9.138 9.494 9.494 L 9.138 9.850 8.319 9.031 L 7.500 8.213 6.681 9.031 L 5.862 9.850 5.506 9.494 L 5.150 9.138 5.969 8.319 L 6.787 7.500 5.963 6.675 L 5.138 5.850 5.487 5.500 C 5.680 5.308,5.843 5.150,5.850 5.150 C 5.857 5.150,6.231 5.518,6.681 5.969 " fill="currentColor" stroke="none" fill-rule="evenodd"></path></svg>