<svg fill="none" viewBox="0 0 15 15" xmlns="http://www.w3.org/2000/svg"><path d="M2.175 0.039 C 1.902 0.098,1.663 0.233,1.449 0.448 C 1.233 0.666,1.121 0.859,1.049 1.140 C 1.001 1.330,1.000 1.440,1.000 7.500 C 1.000 13.560,1.001 13.670,1.049 13.860 C 1.122 14.143,1.233 14.334,1.449 14.551 C 1.666 14.767,1.857 14.878,2.140 14.951 C 2.329 14.999,2.436 15.000,7.500 15.000 C 12.564 15.000,12.671 14.999,12.860 14.951 C 13.143 14.878,13.334 14.767,13.551 14.551 C 13.767 14.334,13.878 14.143,13.951 13.860 C 13.999 13.671,14.000 13.564,14.000 8.477 L 14.000 3.287 12.356 1.644 L 10.712 0.000 6.525 0.002 C 3.034 0.004,2.310 0.010,2.175 0.039 M8.150 4.063 C 8.607 4.151,9.069 4.342,9.475 4.612 C 9.716 4.772,10.228 5.284,10.388 5.525 C 10.659 5.933,10.847 6.388,10.941 6.863 C 11.002 7.173,11.002 7.827,10.941 8.137 C 10.804 8.827,10.504 9.408,10.026 9.908 C 9.506 10.450,8.906 10.781,8.150 10.942 C 7.852 11.006,7.148 11.006,6.850 10.942 C 6.094 10.781,5.494 10.450,4.974 9.908 C 4.504 9.417,4.216 8.869,4.071 8.192 C 3.993 7.828,3.993 7.172,4.071 6.808 C 4.215 6.132,4.504 5.583,4.972 5.094 C 5.240 4.815,5.465 4.638,5.787 4.453 C 6.162 4.238,6.636 4.081,7.071 4.027 C 7.330 3.995,7.890 4.014,8.150 4.063 M7.145 5.025 C 6.777 5.084,6.388 5.237,6.082 5.445 C 5.600 5.773,5.245 6.277,5.082 6.866 C 5.022 7.083,5.014 7.158,5.013 7.488 C 5.013 7.775,5.024 7.906,5.060 8.050 C 5.119 8.284,5.230 8.571,5.330 8.747 L 5.407 8.881 7.140 7.148 C 8.665 5.623,8.867 5.412,8.829 5.385 C 8.694 5.290,8.341 5.138,8.130 5.084 C 7.858 5.015,7.388 4.987,7.145 5.025 M7.853 7.859 L 6.119 9.593 6.253 9.669 C 6.453 9.783,6.676 9.870,6.920 9.931 C 7.214 10.004,7.746 10.009,8.037 9.941 C 8.962 9.725,9.664 9.051,9.918 8.136 C 9.979 7.914,9.986 7.846,9.986 7.500 C 9.986 7.155,9.979 7.085,9.919 6.868 C 9.856 6.642,9.698 6.272,9.620 6.169 C 9.591 6.129,9.417 6.295,7.853 7.859 " fill="currentColor" stroke="none" fill-rule="evenodd"></path></svg>