<svg fill="none" viewBox="0 0 15 15" xmlns="http://www.w3.org/2000/svg"><path d="M0.326 2.033 C 0.208 2.070,0.058 2.226,0.026 2.346 C 0.008 2.414,0.002 4.007,0.006 7.554 L 0.013 12.663 0.072 12.758 C 0.189 12.946,0.420 13.036,0.631 12.977 C 0.705 12.956,1.687 12.268,3.863 10.714 L 6.988 8.482 7.000 10.572 L 7.013 12.663 7.072 12.758 C 7.189 12.947,7.435 13.041,7.641 12.975 C 7.696 12.957,9.277 11.845,11.304 10.398 C 14.076 8.418,14.883 7.831,14.929 7.757 C 15.011 7.625,15.012 7.377,14.930 7.246 C 14.887 7.176,14.021 6.545,11.347 4.633 C 9.407 3.247,7.767 2.087,7.704 2.055 C 7.490 1.950,7.230 2.021,7.088 2.223 L 7.013 2.329 7.000 4.425 L 6.988 6.521 3.876 4.299 C 2.164 3.076,0.721 2.059,0.669 2.038 C 0.561 1.995,0.451 1.993,0.326 2.033 " fill="currentColor" stroke="none" fill-rule="evenodd"></path></svg>