<svg fill="none" viewBox="0 0 15 15" xmlns="http://www.w3.org/2000/svg"><path d="M7.025 0.016 C 6.154 0.098,5.661 0.199,5.004 0.430 C 3.620 0.916,2.401 1.811,1.503 3.000 C 0.181 4.751,-0.298 6.995,0.188 9.162 C 0.572 10.875,1.567 12.410,2.996 13.494 C 3.991 14.249,5.139 14.724,6.475 14.932 C 6.965 15.008,8.035 15.008,8.525 14.932 C 10.348 14.648,11.897 13.826,13.060 12.527 C 14.090 11.375,14.686 10.102,14.932 8.525 C 15.010 8.025,15.008 6.967,14.929 6.450 C 14.596 4.283,13.437 2.446,11.659 1.268 C 10.553 0.535,9.402 0.134,8.092 0.026 C 7.797 0.002,7.232 -0.003,7.025 0.016 M6.328 5.969 L 7.988 6.918 8.000 6.140 C 8.011 5.443,8.017 5.353,8.060 5.267 C 8.154 5.077,8.403 4.964,8.607 5.018 C 8.697 5.042,12.243 7.047,12.347 7.133 C 12.406 7.182,12.500 7.406,12.500 7.500 C 12.500 7.619,12.397 7.831,12.309 7.893 C 12.270 7.921,11.433 8.403,10.450 8.965 L 8.662 9.987 8.496 9.987 C 8.351 9.987,8.316 9.978,8.223 9.913 C 8.018 9.768,8.013 9.745,8.005 8.859 L 7.998 8.080 6.330 9.033 L 4.663 9.987 4.496 9.987 C 4.351 9.987,4.316 9.978,4.223 9.913 C 4.165 9.871,4.093 9.793,4.065 9.738 C 4.013 9.639,4.012 9.611,4.005 7.550 C 4.000 6.019,4.005 5.436,4.027 5.363 C 4.070 5.212,4.144 5.126,4.285 5.058 C 4.538 4.938,4.469 4.907,6.328 5.969 " fill="currentColor" stroke="none" fill-rule="evenodd"></path></svg>