<svg fill="none" viewBox="0 0 15 15" xmlns="http://www.w3.org/2000/svg"><path d="M1.175 2.039 C 0.636 2.155,0.179 2.606,0.038 3.162 C 0.005 3.292,-0.000 3.839,0.000 7.489 C 0.000 11.568,0.001 11.672,0.049 11.860 C 0.122 12.143,0.233 12.334,0.449 12.551 C 0.666 12.767,0.857 12.878,1.140 12.951 C 1.330 12.999,1.440 13.000,7.500 13.000 C 13.560 13.000,13.670 12.999,13.860 12.951 C 14.143 12.878,14.334 12.767,14.551 12.551 C 14.767 12.334,14.878 12.143,14.951 11.860 C 14.999 11.672,15.000 11.568,15.000 7.500 C 15.000 3.432,14.999 3.328,14.951 3.140 C 14.879 2.859,14.767 2.666,14.551 2.448 C 14.334 2.229,14.096 2.097,13.813 2.038 C 13.556 1.984,1.425 1.985,1.175 2.039 M10.000 5.500 L 10.000 6.000 9.000 6.000 L 8.000 6.000 8.000 5.500 L 8.000 5.000 9.000 5.000 L 10.000 5.000 10.000 5.500 M5.000 6.500 L 5.000 7.000 5.500 7.000 L 6.000 7.000 6.000 7.500 L 6.000 8.000 5.500 8.000 L 5.000 8.000 5.000 8.500 L 5.000 9.000 4.500 9.000 L 4.000 9.000 4.000 8.500 L 4.000 8.000 3.500 8.000 L 3.000 8.000 3.000 7.500 L 3.000 7.000 3.500 7.000 L 4.000 7.000 4.000 6.500 L 4.000 6.000 4.500 6.000 L 5.000 6.000 5.000 6.500 M12.000 9.500 L 12.000 10.000 11.000 10.000 L 10.000 10.000 10.000 9.500 L 10.000 9.000 11.000 9.000 L 12.000 9.000 12.000 9.500 " fill="currentColor" stroke="none" fill-rule="evenodd"></path></svg>