<svg fill="none" viewBox="0 0 15 15" xmlns="http://www.w3.org/2000/svg"><path d="M6.927 0.028 C 5.664 0.140,4.446 0.629,3.425 1.436 C 3.169 1.638,2.597 2.216,2.396 2.475 C 1.594 3.511,1.142 4.656,1.025 5.950 C 1.005 6.170,0.999 7.321,1.005 9.850 L 1.012 13.438 1.095 13.675 C 1.451 14.695,2.496 15.228,3.503 14.902 C 3.787 14.811,4.021 14.665,4.315 14.397 C 4.426 14.295,4.574 14.182,4.642 14.144 C 4.987 13.956,5.512 13.956,5.859 14.144 C 5.928 14.182,6.094 14.314,6.228 14.438 C 6.512 14.701,6.709 14.825,6.988 14.918 C 7.161 14.975,7.229 14.984,7.500 14.984 C 7.771 14.984,7.839 14.975,8.013 14.918 C 8.291 14.825,8.488 14.701,8.772 14.438 C 8.906 14.314,9.072 14.182,9.141 14.144 C 9.488 13.956,10.012 13.956,10.359 14.144 C 10.428 14.182,10.575 14.296,10.686 14.398 C 10.973 14.662,11.211 14.810,11.497 14.902 C 12.503 15.228,13.550 14.695,13.905 13.675 L 13.988 13.438 13.995 9.838 C 14.004 5.697,14.004 5.714,13.787 4.859 C 13.671 4.406,13.558 4.109,13.313 3.613 C 12.797 2.570,12.074 1.746,11.105 1.099 C 9.869 0.274,8.400 -0.103,6.927 0.028 M6.000 5.500 L 6.000 6.000 5.500 6.000 L 5.000 6.000 5.000 5.500 L 5.000 5.000 5.500 5.000 L 6.000 5.000 6.000 5.500 M10.000 5.500 L 10.000 6.000 9.500 6.000 L 9.000 6.000 9.000 5.500 L 9.000 5.000 9.500 5.000 L 10.000 5.000 10.000 5.500 M5.688 8.447 C 6.048 8.683,6.443 8.846,6.881 8.942 C 7.169 9.004,7.831 9.004,8.119 8.942 C 8.817 8.790,9.311 8.519,9.814 8.014 L 10.115 7.710 10.509 8.007 L 10.902 8.303 10.796 8.433 C 10.607 8.665,10.214 9.034,9.973 9.205 C 9.494 9.546,8.933 9.789,8.326 9.918 C 8.045 9.978,7.960 9.985,7.500 9.985 C 7.040 9.985,6.955 9.978,6.674 9.918 C 6.067 9.789,5.506 9.546,5.027 9.205 C 4.786 9.034,4.393 8.665,4.204 8.433 L 4.098 8.303 4.491 8.007 L 4.885 7.710 5.186 8.014 C 5.367 8.196,5.567 8.369,5.688 8.447 " fill="currentColor" stroke="none" fill-rule="evenodd"></path></svg>