<svg fill="none" viewBox="0 0 15 15" xmlns="http://www.w3.org/2000/svg"><path d="M2.071 0.036 C 0.475 0.318,-0.433 2.014,0.212 3.506 C 0.514 4.204,1.137 4.730,1.893 4.924 L 1.998 4.951 2.007 7.469 C 2.016 10.266,2.004 10.064,2.190 10.624 C 2.528 11.640,3.363 12.473,4.383 12.812 C 4.891 12.981,4.900 12.982,6.148 12.993 L 7.283 13.004 6.717 13.571 L 6.150 14.138 6.506 14.494 L 6.863 14.850 8.038 13.675 L 9.212 12.500 8.031 11.319 L 6.850 10.138 6.494 10.494 L 6.138 10.850 6.713 11.426 L 7.288 12.002 6.200 11.994 C 5.117 11.986,5.111 11.985,4.872 11.920 C 4.282 11.759,3.775 11.403,3.445 10.918 C 3.301 10.705,3.136 10.345,3.071 10.099 C 3.015 9.888,3.014 9.885,3.006 7.420 L 2.998 4.952 3.105 4.926 C 4.056 4.687,4.795 3.894,4.963 2.932 C 5.186 1.653,4.385 0.409,3.130 0.084 C 2.829 0.006,2.359 -0.015,2.071 0.036 M6.963 1.325 L 5.788 2.500 6.962 3.675 L 8.137 4.850 8.494 4.494 L 8.850 4.138 8.281 3.568 L 7.713 2.997 8.800 3.007 C 9.822 3.016,9.900 3.020,10.099 3.072 C 10.524 3.182,10.959 3.430,11.264 3.736 C 11.569 4.040,11.816 4.473,11.929 4.901 C 11.985 5.112,11.986 5.115,11.994 7.580 L 12.002 10.048 11.895 10.075 C 11.437 10.191,10.952 10.482,10.653 10.820 C 10.244 11.280,10.036 11.791,10.009 12.400 C 9.997 12.660,10.004 12.756,10.048 12.970 C 10.256 13.974,10.970 14.709,11.963 14.941 C 12.106 14.974,12.259 14.987,12.500 14.987 C 12.876 14.987,13.108 14.946,13.423 14.821 C 14.404 14.432,15.035 13.465,14.993 12.413 C 14.959 11.549,14.515 10.797,13.784 10.360 C 13.604 10.253,13.285 10.118,13.107 10.075 L 13.002 10.049 12.993 7.531 C 12.984 4.734,12.996 4.936,12.810 4.376 C 12.632 3.841,12.342 3.390,11.908 2.974 C 11.420 2.508,10.881 2.223,10.195 2.070 C 9.984 2.023,9.859 2.017,8.840 2.007 L 7.717 1.996 8.290 1.423 L 8.862 0.850 8.513 0.500 C 8.320 0.308,8.157 0.150,8.150 0.150 C 8.143 0.150,7.609 0.679,6.963 1.325 " fill="currentColor" stroke="none" fill-rule="evenodd"></path></svg>