<svg fill="none" viewBox="0 0 15 15" xmlns="http://www.w3.org/2000/svg"><path d="M7.025 0.016 C 6.154 0.098,5.661 0.199,5.004 0.430 C 3.620 0.916,2.401 1.811,1.503 3.000 C 0.181 4.751,-0.298 6.995,0.188 9.162 C 0.572 10.875,1.567 12.410,2.996 13.494 C 3.991 14.249,5.139 14.724,6.475 14.932 C 6.965 15.008,8.035 15.008,8.525 14.932 C 10.348 14.648,11.897 13.826,13.060 12.527 C 14.090 11.375,14.686 10.102,14.932 8.525 C 15.010 8.025,15.008 6.967,14.929 6.450 C 14.596 4.283,13.437 2.446,11.659 1.268 C 10.553 0.535,9.402 0.134,8.092 0.026 C 7.797 0.002,7.232 -0.003,7.025 0.016 M6.762 1.193 L 7.000 1.311 7.000 1.499 L 6.999 1.688 6.582 1.900 C 6.220 2.084,6.154 2.127,6.089 2.221 C 6.022 2.315,6.013 2.350,6.013 2.497 C 6.012 2.774,6.020 2.781,6.987 3.425 L 7.832 3.988 8.247 3.988 C 8.641 3.988,8.667 3.984,8.758 3.928 C 8.810 3.896,8.884 3.823,8.920 3.768 C 8.983 3.673,8.988 3.645,8.996 3.333 L 9.005 3.000 9.252 3.000 L 9.500 3.000 9.500 3.281 C 9.500 3.679,9.515 3.716,9.777 3.987 L 10.000 4.217 10.000 4.502 L 10.000 4.786 9.895 4.893 L 9.790 5.000 9.458 5.000 L 9.126 5.000 8.137 4.506 C 6.903 3.891,7.054 3.913,6.384 4.250 L 5.913 4.487 5.138 4.500 C 4.439 4.511,4.353 4.517,4.266 4.560 C 4.074 4.656,4.055 4.703,3.766 5.861 C 3.620 6.446,3.500 6.956,3.500 6.994 C 3.501 7.204,3.518 7.225,4.371 8.083 L 5.188 8.903 5.594 9.108 L 6.000 9.313 6.000 9.938 C 6.000 10.307,6.011 10.602,6.027 10.660 C 6.046 10.728,6.119 10.824,6.277 10.987 L 6.500 11.217 6.500 11.671 L 6.500 12.124 6.806 12.731 C 7.084 13.280,7.123 13.345,7.221 13.412 L 7.329 13.488 7.971 13.495 C 8.602 13.503,8.614 13.502,8.725 13.444 C 8.827 13.391,8.890 13.309,9.383 12.574 C 9.858 11.868,9.966 11.688,10.215 11.192 L 10.500 10.621 10.500 10.144 L 10.500 9.667 11.226 8.699 C 11.625 8.166,11.963 7.693,11.976 7.647 C 12.018 7.500,12.003 7.392,11.913 7.204 C 11.864 7.103,11.825 7.016,11.825 7.010 C 11.825 7.005,12.003 7.000,12.221 7.000 C 12.587 7.000,12.625 6.996,12.727 6.942 C 12.788 6.910,12.871 6.836,12.913 6.777 C 12.985 6.674,12.988 6.662,12.996 6.335 L 13.004 6.000 13.413 6.000 C 13.780 6.000,13.823 6.004,13.835 6.044 C 13.843 6.068,13.871 6.219,13.899 6.379 C 14.179 8.025,13.827 9.708,12.916 11.075 C 11.974 12.489,10.541 13.473,8.900 13.835 C 7.985 14.036,7.014 14.036,6.100 13.835 C 4.063 13.386,2.350 11.967,1.529 10.050 C 0.286 7.147,1.311 3.781,3.965 2.050 C 4.465 1.724,5.170 1.401,5.713 1.249 C 5.902 1.196,6.427 1.080,6.493 1.077 C 6.510 1.076,6.631 1.128,6.762 1.193 " fill="currentColor" stroke="none" fill-rule="evenodd"></path></svg>