<svg fill="none" viewBox="0 0 15 15" xmlns="http://www.w3.org/2000/svg"><path d="M6.876 0.027 C 5.077 0.187,3.441 0.952,2.174 2.226 C 1.035 3.370,0.330 4.793,0.068 6.475 C -0.008 6.965,-0.008 8.035,0.068 8.525 C 0.389 10.583,1.383 12.271,2.996 13.494 C 3.991 14.249,5.139 14.724,6.475 14.932 C 6.965 15.008,8.035 15.008,8.525 14.932 C 9.863 14.723,11.008 14.249,12.008 13.491 C 13.610 12.276,14.620 10.562,14.928 8.538 C 14.962 8.318,14.983 8.017,14.993 7.606 L 15.007 7.000 11.504 7.000 L 8.000 7.000 8.000 7.500 L 8.000 8.000 10.988 8.000 C 13.816 8.000,13.975 8.002,13.975 8.044 C 13.974 8.068,13.958 8.206,13.939 8.350 C 13.836 9.117,13.626 9.785,13.273 10.470 C 12.123 12.702,9.791 14.077,7.300 13.992 C 6.296 13.957,5.442 13.738,4.550 13.286 C 3.554 12.781,2.722 12.040,2.095 11.100 C 1.281 9.878,0.897 8.390,1.026 6.950 C 1.203 4.963,2.250 3.192,3.895 2.098 C 5.521 1.017,7.468 0.725,9.366 1.276 C 10.280 1.542,11.254 2.106,11.963 2.779 L 12.139 2.946 12.501 2.598 L 12.863 2.250 12.688 2.086 C 11.490 0.960,10.039 0.269,8.438 0.061 C 8.071 0.014,7.231 -0.005,6.876 0.027 " fill="currentColor" stroke="none" fill-rule="evenodd"></path></svg>