<svg fill="none" viewBox="0 0 15 15" xmlns="http://www.w3.org/2000/svg"><path d="M1.342 0.025 C 1.229 0.059,1.109 0.166,1.053 0.282 C 1.005 0.381,1.000 0.433,1.002 0.839 L 1.003 1.288 3.965 3.950 C 5.593 5.414,6.980 6.660,7.048 6.719 L 7.170 6.825 8.366 5.748 C 9.024 5.156,9.563 4.661,9.563 4.649 C 9.563 4.625,1.925 0.160,1.713 0.059 C 1.584 -0.001,1.466 -0.012,1.342 0.025 M1.000 7.500 L 1.000 12.380 1.244 12.159 C 1.378 12.037,2.593 10.943,3.944 9.728 C 5.295 8.512,6.400 7.510,6.400 7.500 C 6.400 7.490,5.295 6.488,3.944 5.272 C 2.593 4.057,1.378 2.963,1.244 2.841 L 1.000 2.620 1.000 7.500 M9.213 6.328 C 8.511 6.961,7.938 7.488,7.938 7.500 C 7.938 7.512,8.514 8.040,9.219 8.675 L 10.501 9.829 12.166 8.858 C 13.277 8.210,13.850 7.862,13.889 7.812 C 13.921 7.771,13.961 7.683,13.979 7.618 C 14.017 7.476,13.982 7.308,13.889 7.188 C 13.850 7.138,13.270 6.787,12.167 6.144 C 11.252 5.611,10.500 5.176,10.495 5.177 C 10.491 5.177,9.914 5.696,9.213 6.328 M4.083 10.944 L 1.003 13.713 1.002 14.165 C 1.000 14.592,1.003 14.623,1.058 14.727 C 1.090 14.788,1.164 14.871,1.223 14.913 C 1.315 14.978,1.351 14.988,1.496 14.988 L 1.663 14.988 5.620 12.678 C 7.796 11.407,9.574 10.359,9.570 10.348 C 9.564 10.332,7.177 8.174,7.166 8.175 C 7.164 8.175,5.777 9.421,4.083 10.944 " fill="currentColor" stroke="none" fill-rule="evenodd"></path></svg>