<svg fill="none" viewBox="0 0 15 15" xmlns="http://www.w3.org/2000/svg"><path d="M4.863 1.017 C 4.765 1.038,4.616 1.164,4.556 1.275 C 4.506 1.369,4.498 1.412,4.508 1.533 C 4.520 1.674,4.567 1.752,6.490 4.829 C 7.573 6.562,8.471 7.985,8.486 7.990 C 8.501 7.996,9.798 7.997,11.368 7.994 L 14.224 7.988 12.305 4.575 C 10.542 1.442,10.377 1.157,10.278 1.088 L 10.171 1.012 7.542 1.009 C 6.096 1.008,4.890 1.011,4.863 1.017 M3.756 2.691 C 3.702 2.785,2.838 4.319,1.836 6.100 C 0.134 9.127,0.015 9.346,0.005 9.475 L -0.005 9.613 1.054 11.725 C 2.069 13.751,2.117 13.841,2.221 13.912 C 2.315 13.977,2.351 13.987,2.497 13.987 C 2.808 13.988,2.626 14.244,4.889 10.623 C 6.746 7.651,6.905 7.389,6.875 7.340 C 6.112 6.114,3.887 2.556,3.874 2.541 C 3.863 2.530,3.811 2.597,3.756 2.691 M5.513 11.478 C 4.646 12.841,3.934 13.966,3.929 13.978 C 3.924 13.991,5.753 13.998,8.296 13.994 L 12.671 13.988 12.779 13.913 C 12.883 13.841,12.931 13.751,13.936 11.750 L 14.985 9.663 14.986 9.496 C 14.987 9.350,14.978 9.316,14.913 9.223 C 14.871 9.165,14.793 9.093,14.738 9.065 C 14.638 9.013,14.637 9.012,10.863 9.007 L 7.088 9.001 5.513 11.478 " fill="currentColor" stroke="none" fill-rule="evenodd"></path></svg>