<svg fill="none" viewBox="0 0 15 15" xmlns="http://www.w3.org/2000/svg"><path d="M3.592 1.026 C 3.129 1.080,2.651 1.222,2.240 1.427 C 1.061 2.018,0.270 3.094,0.049 4.413 C 0.002 4.691,-0.004 4.799,0.008 5.163 C 0.023 5.636,0.067 5.883,0.213 6.320 C 0.376 6.808,0.623 7.245,0.964 7.650 C 1.051 7.753,2.498 9.212,4.179 10.892 C 7.414 14.122,7.283 14.000,7.500 14.000 C 7.717 14.000,7.589 14.120,10.783 10.929 C 12.445 9.270,13.894 7.806,14.004 7.675 C 14.444 7.153,14.720 6.581,14.880 5.863 C 14.928 5.648,14.936 5.538,14.936 5.088 C 14.936 4.635,14.928 4.526,14.879 4.300 C 14.518 2.633,13.280 1.421,11.618 1.108 C 11.294 1.047,10.525 1.047,10.213 1.109 C 9.552 1.239,8.994 1.483,8.481 1.867 C 8.375 1.947,8.110 2.186,7.893 2.398 L 7.498 2.784 7.118 2.409 C 6.550 1.850,6.316 1.671,5.828 1.426 C 5.148 1.085,4.335 0.940,3.592 1.026 " fill="currentColor" stroke="none" fill-rule="evenodd"></path></svg>