<svg fill="none" viewBox="0 0 15 15" xmlns="http://www.w3.org/2000/svg"><path d="M7.325 0.029 C 7.255 0.048,6.599 0.692,4.119 3.170 L 1.000 6.287 1.000 9.977 C 1.000 13.570,1.001 13.672,1.049 13.860 C 1.122 14.143,1.233 14.334,1.449 14.551 C 1.666 14.767,1.857 14.878,2.140 14.951 C 2.329 14.999,2.436 15.000,7.500 15.000 C 12.564 15.000,12.671 14.999,12.860 14.951 C 13.143 14.878,13.334 14.767,13.551 14.551 C 13.767 14.334,13.878 14.143,13.951 13.860 C 13.999 13.672,14.000 13.570,14.000 9.977 L 14.000 6.287 10.881 3.171 C 8.175 0.466,7.749 0.051,7.663 0.027 C 7.544 -0.005,7.444 -0.004,7.325 0.029 " fill="currentColor" stroke="none" fill-rule="evenodd"></path></svg>