<svg fill="none" viewBox="0 0 15 15" xmlns="http://www.w3.org/2000/svg"><path d="M1.000 0.500 L 1.000 1.000 1.999 1.000 L 2.998 1.000 3.006 3.031 L 3.014 5.063 3.072 5.273 C 3.229 5.838,3.405 6.108,4.025 6.737 C 4.283 6.998,4.512 7.249,4.534 7.293 C 4.586 7.395,4.587 7.605,4.535 7.707 C 4.513 7.751,4.233 8.052,3.914 8.375 C 3.594 8.698,3.299 9.014,3.256 9.076 C 3.158 9.222,3.059 9.466,3.026 9.644 C 3.009 9.734,3.000 10.547,3.000 11.892 L 3.000 14.000 2.000 14.000 L 1.000 14.000 1.000 14.500 L 1.000 15.000 7.500 15.000 L 14.000 15.000 14.000 14.500 L 14.000 14.000 13.000 14.000 L 12.000 14.000 12.000 11.891 C 12.000 10.585,11.990 9.731,11.975 9.647 C 11.901 9.249,11.776 9.071,11.087 8.375 C 10.767 8.052,10.487 7.751,10.465 7.707 C 10.414 7.605,10.414 7.395,10.465 7.293 C 10.487 7.249,10.767 6.948,11.087 6.625 C 11.776 5.929,11.901 5.751,11.975 5.353 C 11.990 5.269,12.000 4.415,12.000 3.109 L 12.000 1.000 13.000 1.000 L 14.000 1.000 14.000 0.500 L 14.000 0.000 7.500 0.000 L 1.000 0.000 1.000 0.500 M11.000 3.088 C 11.000 5.369,11.006 5.275,10.856 5.431 L 10.791 5.500 7.521 5.500 L 4.252 5.500 4.190 5.394 C 4.157 5.335,4.103 5.214,4.071 5.125 L 4.013 4.963 4.005 2.981 L 3.998 1.000 7.499 1.000 L 11.000 1.000 11.000 3.088 " fill="currentColor" stroke="none" fill-rule="evenodd"></path></svg>