<svg fill="none" viewBox="0 0 15 15" xmlns="http://www.w3.org/2000/svg"><path d="M0.326 0.033 C 0.204 0.072,0.058 0.226,0.023 0.355 C -0.002 0.447,0.065 1.322,0.497 6.514 C 0.775 9.842,1.013 12.607,1.027 12.659 C 1.042 12.711,1.096 12.796,1.148 12.848 C 1.240 12.940,1.346 12.978,4.328 13.972 C 6.025 14.537,7.452 15.000,7.500 15.000 C 7.548 15.000,8.975 14.537,10.672 13.972 C 13.654 12.978,13.760 12.940,13.852 12.848 C 13.904 12.796,13.958 12.711,13.973 12.659 C 13.987 12.607,14.225 9.842,14.503 6.514 C 14.935 1.322,15.002 0.447,14.977 0.355 C 14.940 0.219,14.795 0.071,14.659 0.031 C 14.519 -0.011,0.458 -0.009,0.326 0.033 M11.000 3.500 L 11.000 4.000 8.000 4.000 L 5.000 4.000 5.000 5.000 L 5.000 6.000 8.000 6.000 L 11.000 6.000 11.000 7.931 L 11.000 9.863 9.250 10.446 L 7.500 11.029 5.750 10.446 L 4.000 9.863 4.000 8.931 L 4.000 8.000 4.500 8.000 L 5.000 8.000 5.000 8.569 L 5.000 9.138 6.250 9.554 L 7.500 9.971 8.750 9.554 L 10.000 9.138 10.000 8.069 L 10.000 7.000 7.000 7.000 L 4.000 7.000 4.000 5.000 L 4.000 3.000 7.500 3.000 L 11.000 3.000 11.000 3.500 " fill="currentColor" stroke="none" fill-rule="evenodd"></path></svg>