<svg fill="none" viewBox="0 0 15 15" xmlns="http://www.w3.org/2000/svg"><path d="M3.071 0.027 C 2.825 0.057,2.466 0.149,2.212 0.247 C 1.452 0.540,0.738 1.197,0.364 1.946 C 0.262 2.150,0.127 2.539,0.059 2.825 C 0.017 3.001,0.014 3.316,0.007 8.006 L -0.001 13.000 0.500 13.000 L 1.000 13.000 1.000 14.000 L 1.000 15.000 1.500 15.000 L 2.000 15.000 2.000 14.000 L 2.000 13.000 2.500 13.000 L 3.000 13.000 3.000 10.002 L 3.000 7.005 3.681 6.994 C 4.344 6.984,4.368 6.982,4.575 6.915 C 5.237 6.699,5.694 6.243,5.917 5.575 L 5.987 5.363 5.995 3.434 C 6.003 1.290,6.004 1.304,5.838 0.956 C 5.635 0.527,5.270 0.213,4.800 0.061 C 4.684 0.024,4.553 0.016,3.963 0.011 C 3.578 0.007,3.176 0.015,3.071 0.027 M10.353 0.027 C 9.944 0.099,9.490 0.404,9.266 0.757 C 9.159 0.924,9.062 1.171,9.027 1.361 C 9.009 1.459,9.000 2.137,9.000 3.361 C 9.001 4.885,9.007 5.243,9.037 5.384 C 9.194 6.125,9.695 6.677,10.425 6.915 C 10.632 6.982,10.656 6.984,11.319 6.994 L 12.000 7.005 12.000 10.002 L 12.000 13.000 12.500 13.000 L 13.000 13.000 13.000 14.000 L 13.000 15.000 13.500 15.000 L 14.000 15.000 14.000 14.000 L 14.000 13.000 14.500 13.000 L 15.001 13.000 14.993 8.006 C 14.986 3.316,14.983 3.001,14.941 2.825 C 14.757 2.050,14.442 1.485,13.908 0.974 C 13.420 0.507,12.875 0.220,12.195 0.071 C 11.997 0.027,11.852 0.019,11.225 0.011 C 10.819 0.007,10.427 0.014,10.353 0.027 " fill="currentColor" stroke="none" fill-rule="evenodd"></path></svg>