<svg fill="none" viewBox="0 0 15 15" xmlns="http://www.w3.org/2000/svg"><path d="M4.025 0.028 C 3.489 0.088,3.026 0.222,2.538 0.459 C 1.200 1.108,0.315 2.303,0.046 3.825 C -0.003 4.100,-0.003 10.900,0.046 11.175 C 0.107 11.520,0.222 11.922,0.345 12.221 C 0.958 13.706,2.329 14.753,3.933 14.962 C 4.382 15.020,10.625 15.019,11.077 14.960 C 13.099 14.698,14.698 13.099,14.960 11.077 C 15.019 10.625,15.020 4.382,14.962 3.933 C 14.764 2.415,13.837 1.126,12.463 0.459 C 11.958 0.214,11.517 0.089,10.945 0.026 C 10.651 -0.006,4.310 -0.004,4.025 0.028 M12.000 3.500 L 12.000 4.000 11.500 4.000 L 11.000 4.000 11.000 3.500 L 11.000 3.000 11.500 3.000 L 12.000 3.000 12.000 3.500 M8.150 4.063 C 8.607 4.151,9.069 4.342,9.475 4.612 C 9.716 4.772,10.228 5.284,10.388 5.525 C 10.659 5.933,10.847 6.388,10.941 6.863 C 11.002 7.173,11.002 7.827,10.941 8.137 C 10.804 8.827,10.504 9.408,10.026 9.908 C 9.506 10.450,8.906 10.781,8.150 10.942 C 7.852 11.006,7.148 11.006,6.850 10.942 C 6.094 10.781,5.494 10.450,4.974 9.908 C 4.504 9.417,4.216 8.869,4.071 8.192 C 3.993 7.828,3.993 7.172,4.071 6.808 C 4.215 6.132,4.504 5.583,4.972 5.094 C 5.240 4.815,5.465 4.638,5.787 4.453 C 6.162 4.238,6.636 4.081,7.071 4.027 C 7.330 3.995,7.890 4.014,8.150 4.063 M7.145 5.025 C 6.777 5.084,6.388 5.237,6.082 5.445 C 5.597 5.775,5.246 6.273,5.081 6.868 C 5.021 7.085,5.014 7.155,5.014 7.500 C 5.014 7.846,5.021 7.914,5.082 8.136 C 5.297 8.910,5.848 9.533,6.575 9.822 C 7.709 10.273,9.039 9.819,9.652 8.771 C 10.314 7.640,9.991 6.174,8.918 5.445 C 8.698 5.296,8.339 5.134,8.099 5.075 C 7.857 5.016,7.365 4.990,7.145 5.025 " fill="currentColor" stroke="none" fill-rule="evenodd"></path></svg>