<svg fill="none" viewBox="0 0 15 15" xmlns="http://www.w3.org/2000/svg"><path d="M2.145 0.027 C 1.787 0.080,1.390 0.236,1.082 0.445 C 0.597 0.774,0.248 1.271,0.081 1.868 L 0.013 2.113 0.013 7.500 L 0.013 12.888 0.082 13.136 C 0.345 14.079,1.067 14.755,2.016 14.948 C 2.268 15.000,2.311 15.000,7.500 15.000 C 12.689 15.000,12.732 15.000,12.984 14.948 C 13.932 14.755,14.661 14.072,14.920 13.132 L 14.988 12.888 14.988 7.500 L 14.988 2.113 14.921 1.872 C 14.757 1.278,14.403 0.774,13.918 0.445 C 13.706 0.301,13.346 0.136,13.099 0.070 L 12.888 0.013 7.588 0.010 C 4.672 0.007,2.224 0.015,2.145 0.027 M4.604 2.356 C 4.655 2.387,4.718 2.441,4.745 2.475 C 4.772 2.509,5.408 3.767,6.159 5.269 C 6.911 6.771,7.534 8.000,7.544 8.000 C 7.570 8.000,10.554 7.004,10.567 6.992 C 10.572 6.986,10.397 6.697,10.177 6.350 C 9.748 5.673,9.714 5.594,9.773 5.397 C 9.809 5.278,9.922 5.144,10.032 5.092 C 10.159 5.032,11.711 4.650,11.829 4.650 C 12.066 4.650,12.098 4.682,12.792 5.606 C 13.143 6.074,13.446 6.494,13.465 6.540 C 13.537 6.712,13.491 6.917,13.344 7.068 C 13.279 7.136,13.176 7.179,12.696 7.339 C 12.382 7.444,12.125 7.534,12.125 7.541 C 12.125 7.547,12.420 8.015,12.780 8.580 C 13.140 9.146,13.451 9.655,13.471 9.711 C 13.496 9.780,13.502 9.850,13.490 9.929 C 13.453 10.176,13.504 10.140,11.306 11.459 C 10.035 12.221,9.242 12.682,9.171 12.700 C 9.087 12.722,9.031 12.722,8.954 12.701 C 8.734 12.642,8.732 12.638,7.848 10.871 L 7.026 9.227 5.358 9.788 C 4.095 10.213,3.660 10.350,3.569 10.350 C 3.390 10.350,3.214 10.247,3.136 10.096 C 3.117 10.060,2.740 8.586,2.299 6.821 C 1.435 3.369,1.461 3.497,1.577 3.310 C 1.605 3.264,1.662 3.202,1.703 3.173 C 1.743 3.144,2.325 2.937,2.995 2.712 C 4.341 2.261,4.420 2.243,4.604 2.356 M3.345 3.646 C 2.951 3.779,2.622 3.894,2.613 3.903 C 2.596 3.920,3.897 9.151,3.926 9.184 C 3.941 9.200,6.468 8.383,6.556 8.333 C 6.581 8.319,4.119 3.400,4.088 3.402 C 4.074 3.403,3.740 3.513,3.345 3.646 M11.342 5.775 C 11.193 5.813,11.067 5.850,11.061 5.856 C 11.055 5.861,11.165 6.047,11.305 6.267 L 11.559 6.668 11.861 6.568 C 12.027 6.513,12.166 6.465,12.171 6.461 C 12.179 6.455,11.626 5.697,11.617 5.702 C 11.614 5.704,11.491 5.736,11.342 5.775 M9.537 8.393 C 8.699 8.676,8.007 8.912,8.001 8.917 C 7.988 8.929,9.252 11.472,9.279 11.490 C 9.312 11.511,12.301 9.697,12.284 9.667 C 12.274 9.651,12.015 9.241,11.706 8.756 C 11.329 8.164,11.132 7.875,11.104 7.876 C 11.081 7.877,10.376 8.109,9.537 8.393 " fill="currentColor" stroke="none" fill-rule="evenodd"></path></svg>