<svg fill="none" viewBox="0 0 15 15" xmlns="http://www.w3.org/2000/svg"><path d="M7.038 0.037 C 5.928 0.214,5.015 0.969,4.652 2.009 C 4.608 2.136,4.484 2.679,4.363 3.272 C 4.136 4.393,4.037 4.776,3.858 5.225 C 3.631 5.795,3.467 6.088,2.925 6.900 C 2.480 7.565,2.317 7.844,2.191 8.151 C 2.097 8.380,1.970 8.800,1.925 9.027 L 1.898 9.167 1.699 9.210 C 1.407 9.272,1.173 9.402,0.949 9.625 C 0.716 9.857,0.676 9.932,0.330 10.800 C 0.036 11.538,-0.000 11.660,0.000 11.922 C 0.000 12.292,0.154 12.674,0.413 12.944 C 0.650 13.192,2.540 14.738,2.713 14.824 C 3.100 15.020,3.547 15.049,3.942 14.905 C 4.167 14.822,4.215 14.792,4.763 14.388 L 5.138 14.111 5.413 14.167 C 5.814 14.250,6.281 14.274,7.500 14.274 C 8.718 14.274,9.185 14.250,9.588 14.168 L 9.863 14.111 10.239 14.390 C 10.447 14.543,10.677 14.709,10.752 14.759 C 11.077 14.974,11.537 15.051,11.925 14.953 C 12.042 14.924,12.205 14.866,12.288 14.824 C 12.456 14.740,14.346 13.194,14.579 12.951 C 14.658 12.869,14.752 12.751,14.788 12.688 C 14.957 12.401,15.033 11.987,14.977 11.666 C 14.947 11.494,14.463 10.244,14.317 9.963 C 14.207 9.750,13.910 9.462,13.681 9.345 C 13.581 9.294,13.410 9.233,13.301 9.210 L 13.102 9.167 13.075 9.027 C 13.030 8.798,12.903 8.379,12.809 8.151 C 12.676 7.828,12.561 7.634,12.065 6.889 C 11.438 5.949,11.154 5.378,10.937 4.625 C 10.888 4.453,10.753 3.846,10.637 3.275 C 10.521 2.704,10.399 2.155,10.364 2.054 C 9.940 0.811,8.779 -0.012,7.467 0.002 C 7.341 0.004,7.147 0.019,7.038 0.037 M6.975 3.463 C 6.975 3.853,6.972 3.875,6.927 3.875 C 6.848 3.875,6.453 4.023,6.219 4.140 C 6.099 4.201,5.995 4.250,5.988 4.250 C 5.981 4.250,5.975 3.980,5.975 3.650 L 5.975 3.050 6.475 3.050 L 6.975 3.050 6.975 3.463 M9.050 3.661 L 9.050 4.272 8.744 4.125 C 8.440 3.979,8.159 3.875,8.071 3.875 C 8.028 3.875,8.025 3.846,8.025 3.463 L 8.025 3.050 8.537 3.050 L 9.050 3.050 9.050 3.661 M7.983 4.910 C 8.089 4.946,8.291 5.033,8.431 5.103 L 8.686 5.231 8.544 5.364 C 8.161 5.720,7.624 5.856,7.115 5.726 C 6.863 5.661,6.660 5.551,6.468 5.374 L 6.313 5.232 6.545 5.115 C 7.016 4.878,7.226 4.821,7.564 4.836 C 7.719 4.842,7.850 4.866,7.983 4.910 M6.083 6.374 C 6.274 6.503,6.606 6.648,6.870 6.718 C 7.081 6.774,7.162 6.783,7.500 6.783 C 7.838 6.783,7.919 6.774,8.130 6.718 C 8.532 6.611,8.873 6.434,9.179 6.171 L 9.321 6.050 9.984 7.357 C 10.349 8.076,10.677 8.754,10.714 8.863 C 10.751 8.973,10.795 9.152,10.813 9.262 L 10.845 9.461 10.691 9.615 C 10.607 9.699,10.502 9.828,10.458 9.903 C 10.414 9.977,10.201 10.448,9.985 10.950 C 9.768 11.452,9.573 11.876,9.552 11.893 C 9.482 11.947,9.114 12.093,8.898 12.152 C 8.698 12.206,8.638 12.209,7.641 12.219 C 6.948 12.226,6.522 12.219,6.382 12.201 C 6.128 12.167,5.827 12.076,5.588 11.962 L 5.413 11.878 5.013 10.946 C 4.792 10.434,4.572 9.952,4.523 9.876 C 4.474 9.800,4.371 9.676,4.295 9.600 L 4.155 9.463 4.179 9.287 C 4.224 8.957,4.342 8.685,5.015 7.358 L 5.679 6.050 5.821 6.171 C 5.899 6.238,6.017 6.329,6.083 6.374 M3.489 10.262 C 3.548 10.297,3.618 10.361,3.646 10.406 C 3.674 10.451,3.918 10.999,4.190 11.625 C 4.851 13.148,4.853 13.045,4.158 13.565 C 3.940 13.728,3.713 13.887,3.652 13.918 C 3.516 13.988,3.350 13.991,3.213 13.927 C 3.105 13.877,1.357 12.445,1.183 12.265 C 1.066 12.144,1.012 11.992,1.035 11.849 C 1.058 11.705,1.587 10.429,1.653 10.359 C 1.796 10.206,1.818 10.202,2.635 10.201 L 3.383 10.200 3.489 10.262 M13.195 10.248 C 13.246 10.274,13.314 10.324,13.347 10.359 C 13.413 10.429,13.942 11.705,13.965 11.849 C 13.988 11.992,13.934 12.144,13.817 12.265 C 13.642 12.446,11.894 13.877,11.788 13.927 C 11.650 13.991,11.484 13.988,11.348 13.918 C 11.147 13.815,10.451 13.275,10.380 13.168 C 10.324 13.084,10.313 13.039,10.314 12.914 C 10.316 12.774,10.354 12.676,10.810 11.625 C 11.081 10.999,11.330 10.447,11.362 10.397 C 11.394 10.348,11.470 10.283,11.529 10.254 C 11.632 10.203,11.671 10.200,12.370 10.200 C 13.040 10.200,13.110 10.204,13.195 10.248 " fill="currentColor" stroke="none" fill-rule="evenodd"></path></svg>