<svg fill="none" viewBox="0 0 15 15" xmlns="http://www.w3.org/2000/svg"><path d="M0.000 1.500 L 0.000 2.000 7.500 2.000 L 15.000 2.000 15.000 1.500 L 15.000 1.000 7.500 1.000 L 0.000 1.000 0.000 1.500 M0.000 5.500 L 0.000 6.000 7.500 6.000 L 15.000 6.000 15.000 5.500 L 15.000 5.000 7.500 5.000 L 0.000 5.000 0.000 5.500 M0.000 9.500 L 0.000 10.000 7.500 10.000 L 15.000 10.000 15.000 9.500 L 15.000 9.000 7.500 9.000 L 0.000 9.000 0.000 9.500 M0.000 13.500 L 0.000 14.000 7.500 14.000 L 15.000 14.000 15.000 13.500 L 15.000 13.000 7.500 13.000 L 0.000 13.000 0.000 13.500 " fill="currentColor" stroke="none" fill-rule="evenodd"></path></svg>