<svg fill="none" viewBox="0 0 15 15" xmlns="http://www.w3.org/2000/svg"><path d="M1.175 0.039 C 0.902 0.098,0.663 0.233,0.449 0.448 C 0.233 0.666,0.121 0.859,0.049 1.140 C 0.001 1.329,0.000 1.434,0.000 6.000 C 0.000 10.566,0.001 10.671,0.049 10.860 C 0.177 11.361,0.541 11.750,1.038 11.919 L 1.238 11.988 3.238 11.995 L 5.238 12.003 6.113 13.318 C 7.058 14.740,7.139 14.854,7.256 14.925 C 7.428 15.029,7.656 15.009,7.809 14.875 C 7.855 14.834,8.313 14.172,8.828 13.402 L 9.763 12.004 11.763 11.996 L 13.763 11.988 13.963 11.919 C 14.459 11.750,14.823 11.361,14.951 10.860 C 14.999 10.671,15.000 10.566,15.000 6.000 C 15.000 1.434,14.999 1.329,14.951 1.140 C 14.879 0.859,14.767 0.666,14.551 0.448 C 14.334 0.229,14.096 0.097,13.813 0.038 C 13.556 -0.016,1.425 -0.015,1.175 0.039 " fill="currentColor" stroke="none" fill-rule="evenodd"></path></svg>