<svg fill="none" viewBox="0 0 15 15" xmlns="http://www.w3.org/2000/svg"><path d="M1.175 0.039 C 0.902 0.098,0.663 0.233,0.449 0.448 C 0.233 0.666,0.121 0.859,0.049 1.140 C 0.001 1.329,0.000 1.434,0.000 6.000 C 0.000 10.566,0.001 10.671,0.049 10.860 C 0.177 11.361,0.541 11.750,1.038 11.919 L 1.238 11.988 3.238 11.995 L 5.238 12.003 6.138 13.354 C 6.633 14.097,7.075 14.750,7.121 14.803 C 7.317 15.032,7.607 15.057,7.820 14.863 C 7.871 14.817,8.329 14.154,8.838 13.391 L 9.763 12.003 11.763 11.995 L 13.763 11.988 13.963 11.919 C 14.459 11.750,14.823 11.361,14.951 10.860 C 14.999 10.671,15.000 10.566,15.000 6.000 C 15.000 1.434,14.999 1.329,14.951 1.140 C 14.879 0.859,14.767 0.666,14.551 0.448 C 14.334 0.229,14.096 0.097,13.813 0.038 C 13.556 -0.016,1.425 -0.015,1.175 0.039 M6.681 4.969 L 7.500 5.787 8.325 4.962 L 9.150 4.138 9.506 4.494 L 9.862 4.850 9.038 5.675 L 8.213 6.500 9.031 7.319 L 9.850 8.138 9.494 8.494 L 9.138 8.850 8.319 8.031 L 7.500 7.213 6.681 8.031 L 5.862 8.850 5.506 8.494 L 5.150 8.138 5.969 7.319 L 6.787 6.500 5.963 5.675 L 5.138 4.850 5.487 4.500 C 5.680 4.308,5.843 4.150,5.850 4.150 C 5.857 4.150,6.231 4.518,6.681 4.969 " fill="currentColor" stroke="none" fill-rule="evenodd"></path></svg>