<svg fill="none" viewBox="0 0 15 15" xmlns="http://www.w3.org/2000/svg"><path d="M1.175 0.039 C 0.902 0.098,0.663 0.233,0.449 0.448 C 0.233 0.666,0.121 0.859,0.049 1.140 C 0.001 1.329,0.000 1.434,0.000 6.000 C 0.000 10.566,0.001 10.671,0.049 10.860 C 0.177 11.361,0.541 11.750,1.038 11.919 L 1.238 11.988 3.238 11.995 L 5.238 12.003 6.138 13.354 C 6.633 14.097,7.075 14.750,7.121 14.803 C 7.317 15.032,7.607 15.057,7.820 14.863 C 7.871 14.817,8.329 14.154,8.838 13.391 L 9.763 12.003 11.763 11.995 L 13.763 11.988 13.963 11.919 C 14.459 11.750,14.823 11.361,14.951 10.860 C 14.999 10.671,15.000 10.566,15.000 6.000 C 15.000 1.434,14.999 1.329,14.951 1.140 C 14.879 0.859,14.767 0.666,14.551 0.448 C 14.334 0.229,14.096 0.097,13.813 0.038 C 13.556 -0.016,1.425 -0.015,1.175 0.039 M10.504 4.003 L 10.878 4.332 10.805 4.410 C 10.752 4.466,7.100 8.642,7.032 8.724 C 7.027 8.730,6.486 8.199,5.830 7.543 L 4.638 6.350 4.994 5.994 L 5.350 5.638 6.156 6.444 C 6.600 6.887,6.969 7.250,6.977 7.250 C 6.985 7.250,7.693 6.446,8.552 5.464 C 9.410 4.481,10.116 3.677,10.121 3.676 C 10.126 3.675,10.298 3.823,10.504 4.003 " fill="currentColor" stroke="none" fill-rule="evenodd"></path></svg>