<svg fill="none" viewBox="0 0 15 15" xmlns="http://www.w3.org/2000/svg"><path d="M7.325 0.029 C 7.257 0.048,6.921 0.370,5.781 1.508 C 4.980 2.307,4.325 2.968,4.325 2.976 C 4.325 3.008,7.001 4.059,7.024 4.036 C 7.058 4.002,8.825 1.148,8.825 1.127 C 8.825 1.118,8.586 0.873,8.294 0.583 C 7.861 0.153,7.744 0.050,7.663 0.028 C 7.544 -0.005,7.444 -0.004,7.325 0.029 M8.899 2.917 C 8.535 3.505,8.174 4.089,8.097 4.214 L 7.956 4.443 8.934 4.834 C 9.472 5.049,9.927 5.225,9.944 5.225 C 9.961 5.225,9.975 5.217,9.975 5.206 C 9.975 5.196,10.082 4.636,10.212 3.963 L 10.448 2.738 10.004 2.293 L 9.561 1.848 8.899 2.917 M11.291 3.640 C 11.257 3.756,11.019 5.053,11.031 5.064 C 11.045 5.078,12.224 4.545,12.225 4.525 C 12.225 4.518,12.018 4.305,11.765 4.053 C 11.394 3.682,11.303 3.602,11.291 3.640 M2.978 4.309 L 2.423 4.864 3.563 6.307 C 4.190 7.101,4.710 7.750,4.720 7.750 C 4.734 7.750,6.338 5.177,6.443 4.986 C 6.474 4.930,6.457 4.923,5.118 4.387 C 4.373 4.089,3.711 3.824,3.648 3.799 L 3.533 3.754 2.978 4.309 M12.305 5.597 C 11.794 5.832,11.633 5.917,11.667 5.931 C 11.969 6.062,14.891 7.217,14.899 7.209 C 14.905 7.203,14.478 6.767,13.949 6.240 L 12.988 5.282 12.305 5.597 M6.804 6.303 C 6.471 6.841,6.201 7.284,6.205 7.287 C 6.218 7.297,9.050 5.991,9.050 5.975 C 9.050 5.958,7.479 5.325,7.436 5.325 C 7.422 5.325,7.137 5.765,6.804 6.303 M0.900 6.388 C 0.454 6.833,0.097 7.205,0.106 7.214 C 0.121 7.230,3.581 7.977,3.592 7.967 C 3.595 7.963,1.750 5.617,1.715 5.582 C 1.713 5.579,1.346 5.942,0.900 6.388 M10.456 7.969 C 10.314 8.708,10.199 9.330,10.199 9.351 C 10.200 9.382,10.464 9.446,11.486 9.665 L 12.772 9.940 13.662 9.050 L 14.552 8.160 12.657 7.402 C 11.615 6.986,10.751 6.640,10.738 6.635 C 10.723 6.629,10.607 7.179,10.456 7.969 M7.988 7.576 C 7.094 7.987,6.285 8.358,6.191 8.400 C 6.096 8.443,6.024 8.482,6.030 8.489 C 6.055 8.514,9.187 9.173,9.202 9.156 C 9.217 9.139,9.650 6.913,9.650 6.853 C 9.650 6.837,9.642 6.826,9.631 6.827 C 9.621 6.828,8.881 7.165,7.988 7.576 M1.163 8.873 L 1.664 9.376 2.245 9.109 C 2.564 8.963,2.823 8.840,2.819 8.836 C 2.815 8.833,2.357 8.732,1.800 8.613 C 1.243 8.494,0.759 8.390,0.725 8.383 C 0.681 8.373,0.809 8.517,1.163 8.873 M4.248 10.430 C 3.940 10.928,3.684 11.347,3.681 11.361 C 3.677 11.376,4.476 12.188,5.456 13.167 C 7.084 14.792,7.247 14.949,7.350 14.976 C 7.496 15.014,7.664 14.990,7.774 14.913 C 7.823 14.879,7.933 14.781,8.018 14.694 L 8.174 14.537 8.237 14.228 L 8.300 13.920 7.881 13.389 C 7.651 13.097,6.872 12.109,6.150 11.193 C 5.428 10.277,4.831 9.527,4.823 9.526 C 4.815 9.526,4.556 9.932,4.248 10.430 M6.167 9.607 C 6.192 9.639,6.734 10.325,7.372 11.133 C 8.009 11.941,8.536 12.597,8.542 12.591 C 8.553 12.581,9.023 10.166,9.016 10.160 C 9.008 10.153,6.172 9.550,6.148 9.550 C 6.133 9.550,6.142 9.576,6.167 9.607 M3.008 9.859 C 2.703 9.999,2.447 10.119,2.440 10.127 C 2.433 10.134,2.542 10.255,2.683 10.396 L 2.940 10.652 3.259 10.135 C 3.434 9.851,3.574 9.616,3.570 9.612 C 3.566 9.609,3.313 9.720,3.008 9.859 M9.988 10.406 C 9.972 10.457,9.450 13.194,9.450 13.230 C 9.450 13.248,10.006 12.706,10.687 12.026 C 11.367 11.346,11.921 10.787,11.918 10.785 C 11.912 10.779,10.033 10.375,10.012 10.375 C 10.004 10.375,9.994 10.389,9.988 10.406 " fill="currentColor" stroke="none" fill-rule="evenodd"></path></svg>