<svg fill="none" viewBox="0 0 15 15" xmlns="http://www.w3.org/2000/svg"><path d="M6.888 0.026 C 4.726 0.218,2.802 1.280,1.505 2.996 C 0.166 4.768,-0.319 7.116,0.211 9.263 C 0.735 11.390,2.103 13.138,4.038 14.153 C 4.749 14.526,5.597 14.801,6.425 14.927 C 6.861 14.993,7.647 15.017,8.100 14.977 C 8.728 14.923,9.286 14.807,9.875 14.610 C 10.285 14.472,10.815 14.243,10.807 14.206 C 10.804 14.192,9.499 12.356,7.907 10.127 L 5.013 6.075 5.006 9.037 L 5.000 12.000 4.500 12.000 L 4.000 12.000 4.000 8.222 C 4.000 5.311,4.007 4.420,4.031 4.341 C 4.094 4.131,4.347 3.973,4.565 4.008 C 4.796 4.046,4.618 3.809,8.256 8.902 C 10.137 11.534,11.686 13.691,11.700 13.696 C 11.714 13.700,11.851 13.609,12.006 13.492 C 13.725 12.195,14.777 10.291,14.977 8.115 C 15.017 7.686,14.993 6.886,14.929 6.462 C 14.674 4.792,13.954 3.351,12.800 2.200 C 11.642 1.044,10.195 0.322,8.538 0.072 C 8.161 0.015,7.283 -0.010,6.888 0.026 M11.000 7.000 L 11.000 10.000 10.500 10.000 L 10.000 10.000 10.000 7.000 L 10.000 4.000 10.500 4.000 L 11.000 4.000 11.000 7.000 " fill="currentColor" stroke="none" fill-rule="evenodd"></path></svg>