<svg fill="none" viewBox="0 0 15 15" xmlns="http://www.w3.org/2000/svg"><path d="M6.650 2.078 C 5.457 2.172,4.306 2.436,3.235 2.863 C 2.990 2.961,2.829 3.009,2.688 3.027 C 1.503 3.176,0.495 4.015,0.140 5.147 C -0.006 5.609,-0.001 5.486,0.006 9.189 L 0.013 12.588 0.081 12.788 C 0.176 13.067,0.308 13.280,0.514 13.486 C 0.721 13.693,0.935 13.826,1.213 13.918 C 1.388 13.976,1.452 13.984,1.738 13.984 C 2.022 13.984,2.087 13.976,2.263 13.918 C 2.480 13.846,2.691 13.729,2.857 13.588 C 3.078 13.401,3.198 13.221,3.506 12.609 L 3.811 12.006 3.924 12.055 C 4.330 12.229,4.953 12.265,5.412 12.140 C 6.435 11.862,7.156 10.982,7.217 9.936 C 7.238 9.586,7.202 9.380,6.990 8.640 L 6.807 8.000 7.500 8.000 L 8.193 8.000 8.020 8.605 C 7.803 9.371,7.765 9.582,7.784 9.925 C 7.818 10.557,8.076 11.109,8.545 11.553 C 8.875 11.865,9.184 12.034,9.645 12.154 C 10.066 12.264,10.690 12.221,11.076 12.055 L 11.189 12.006 11.494 12.609 C 11.826 13.267,11.950 13.445,12.209 13.640 C 12.400 13.784,12.538 13.854,12.776 13.929 C 12.932 13.978,13.013 13.987,13.275 13.986 C 13.543 13.984,13.616 13.974,13.788 13.918 C 14.064 13.826,14.279 13.693,14.486 13.486 C 14.692 13.280,14.824 13.067,14.919 12.788 L 14.988 12.588 14.988 9.138 C 14.988 6.297,14.981 5.657,14.953 5.513 C 14.869 5.090,14.672 4.629,14.427 4.282 C 13.952 3.609,13.149 3.132,12.313 3.027 C 12.171 3.009,12.010 2.961,11.765 2.863 C 10.671 2.427,9.544 2.171,8.301 2.076 C 7.916 2.046,7.036 2.047,6.650 2.078 M8.245 3.076 C 8.856 3.120,9.714 3.261,10.195 3.396 L 10.352 3.440 10.170 3.564 C 9.823 3.800,9.456 4.209,9.241 4.601 C 9.105 4.848,9.042 5.036,8.751 6.050 L 8.482 6.988 7.500 6.988 L 6.518 6.988 6.250 6.050 C 6.102 5.534,5.945 5.021,5.902 4.909 C 5.701 4.389,5.295 3.882,4.819 3.556 L 4.648 3.440 4.805 3.395 C 5.057 3.324,5.785 3.183,6.125 3.138 C 6.790 3.052,7.583 3.029,8.245 3.076 M2.002 10.178 L 2.984 11.406 2.668 12.038 C 2.495 12.386,2.316 12.712,2.272 12.762 C 2.099 12.959,1.788 13.044,1.521 12.966 C 1.349 12.916,1.172 12.766,1.080 12.591 L 1.012 12.463 1.006 10.706 C 1.002 9.740,1.004 8.950,1.009 8.950 C 1.015 8.950,1.462 9.502,2.002 10.178 M13.995 11.038 L 13.988 12.463 13.929 12.575 C 13.747 12.922,13.365 13.081,13.023 12.952 C 12.756 12.852,12.709 12.790,12.345 12.063 L 12.015 11.406 13.001 10.173 L 13.988 8.940 13.995 9.276 C 13.999 9.461,13.999 10.254,13.995 11.038 " fill="currentColor" stroke="none" fill-rule="evenodd"></path></svg>