<svg fill="none" viewBox="0 0 15 15" xmlns="http://www.w3.org/2000/svg"><path d="M2.175 0.039 C 1.902 0.098,1.663 0.233,1.449 0.448 C 1.233 0.666,1.121 0.859,1.049 1.140 C 1.001 1.327,1.000 1.429,1.000 4.666 L 1.000 8.000 7.500 8.000 L 14.000 8.000 14.000 5.644 L 14.000 3.287 12.356 1.644 L 10.712 0.000 6.525 0.002 C 3.034 0.004,2.310 0.010,2.175 0.039 M0.000 9.500 L 0.000 10.000 1.500 10.000 L 3.000 10.000 3.000 9.500 L 3.000 9.000 1.500 9.000 L 0.000 9.000 0.000 9.500 M4.000 9.500 L 4.000 10.000 5.500 10.000 L 7.000 10.000 7.000 9.500 L 7.000 9.000 5.500 9.000 L 4.000 9.000 4.000 9.500 M8.000 9.500 L 8.000 10.000 9.500 10.000 L 11.000 10.000 11.000 9.500 L 11.000 9.000 9.500 9.000 L 8.000 9.000 8.000 9.500 M12.000 9.500 L 12.000 10.000 13.500 10.000 L 15.000 10.000 15.000 9.500 L 15.000 9.000 13.500 9.000 L 12.000 9.000 12.000 9.500 M1.000 12.334 C 1.000 13.580,1.003 13.680,1.049 13.860 C 1.122 14.143,1.233 14.334,1.449 14.551 C 1.666 14.767,1.857 14.878,2.140 14.951 C 2.329 14.999,2.436 15.000,7.500 15.000 C 12.564 15.000,12.671 14.999,12.860 14.951 C 13.143 14.878,13.334 14.767,13.551 14.551 C 13.767 14.334,13.878 14.143,13.951 13.860 C 13.997 13.680,14.000 13.580,14.000 12.334 L 14.000 11.000 7.500 11.000 L 1.000 11.000 1.000 12.334 " fill="currentColor" stroke="none" fill-rule="evenodd"></path></svg>