<svg fill="none" viewBox="0 0 15 15" xmlns="http://www.w3.org/2000/svg"><path d="M6.025 1.028 C 5.489 1.088,5.026 1.222,4.538 1.459 C 3.217 2.100,2.339 3.269,2.057 4.763 C 1.998 5.077,1.998 5.923,2.057 6.238 C 2.272 7.378,2.825 8.316,3.689 9.009 C 4.518 9.672,5.484 10.000,6.614 10.000 L 7.000 10.000 7.000 12.000 L 7.000 14.000 7.500 14.000 L 8.000 14.000 8.000 8.000 L 8.000 2.000 9.000 2.000 L 10.000 2.000 10.000 8.000 L 10.000 14.000 10.500 14.000 L 11.000 14.000 11.000 8.000 L 11.000 2.000 12.000 2.000 L 13.000 2.000 13.000 1.500 L 13.000 1.000 9.606 1.003 C 7.740 1.005,6.128 1.016,6.025 1.028 M7.000 5.503 L 7.000 9.006 6.506 8.993 C 5.967 8.978,5.801 8.951,5.376 8.810 C 4.841 8.632,4.390 8.342,3.974 7.908 C 3.504 7.417,3.216 6.869,3.071 6.192 C 2.993 5.828,2.993 5.172,3.071 4.808 C 3.215 4.132,3.504 3.583,3.972 3.094 C 4.454 2.592,4.988 2.277,5.646 2.110 C 5.952 2.032,6.182 2.007,6.631 2.003 L 7.000 2.000 7.000 5.503 " fill="currentColor" stroke="none" fill-rule="evenodd"></path></svg>