<svg fill="none" viewBox="0 0 15 15" xmlns="http://www.w3.org/2000/svg"><path d="M3.650 0.554 C 3.423 0.664,3.233 0.758,3.228 0.764 C 3.213 0.779,3.934 2.299,3.957 2.299 C 3.974 2.300,4.827 1.905,4.844 1.889 C 4.863 1.871,4.127 0.362,4.097 0.358 C 4.078 0.356,3.877 0.444,3.650 0.554 M1.238 1.654 C 1.004 1.764,0.802 1.864,0.790 1.876 C 0.776 1.889,0.911 2.203,1.125 2.655 C 1.321 3.072,1.485 3.416,1.489 3.421 C 1.504 3.439,2.387 3.005,2.383 2.983 C 2.379 2.963,1.677 1.468,1.667 1.459 C 1.664 1.457,1.471 1.545,1.238 1.654 M6.161 1.646 C 5.955 1.737,5.761 1.824,5.731 1.838 C 5.678 1.862,5.685 1.882,6.022 2.657 C 6.212 3.093,6.373 3.457,6.381 3.464 C 6.394 3.478,7.249 3.112,7.277 3.081 C 7.302 3.053,6.611 1.488,6.572 1.483 C 6.553 1.481,6.368 1.554,6.161 1.646 M4.338 3.628 C 3.604 3.705,2.967 4.185,2.681 4.878 C 2.574 5.138,2.199 6.941,2.200 7.196 C 2.200 7.560,2.348 7.916,2.616 8.200 C 3.083 8.694,3.785 8.812,4.413 8.502 C 4.652 8.384,4.780 8.266,5.107 7.862 C 5.240 7.696,5.386 7.539,5.431 7.512 C 5.504 7.468,5.576 7.461,6.125 7.447 C 6.664 7.434,6.758 7.425,6.913 7.376 C 7.172 7.293,7.363 7.182,7.529 7.019 C 8.015 6.541,8.124 5.943,7.834 5.350 C 7.766 5.211,7.690 5.110,7.540 4.960 L 7.338 4.757 6.357 4.266 C 5.331 3.752,5.118 3.663,4.850 3.638 C 4.761 3.630,4.654 3.619,4.612 3.615 C 4.571 3.610,4.448 3.616,4.338 3.628 M0.525 4.199 C 0.274 4.318,0.113 4.409,0.113 4.431 C 0.113 4.477,0.807 5.950,0.829 5.950 C 0.838 5.950,1.043 5.855,1.284 5.740 L 1.722 5.529 1.364 4.771 C 1.167 4.354,0.990 4.010,0.971 4.007 C 0.953 4.005,0.752 4.091,0.525 4.199 M10.529 6.845 C 10.336 7.253,10.174 7.603,10.170 7.622 C 10.162 7.661,11.026 8.084,11.055 8.055 C 11.075 8.034,11.775 6.561,11.775 6.539 C 11.775 6.525,11.180 6.231,10.959 6.136 L 10.881 6.102 10.529 6.845 M8.066 8.008 C 7.879 8.437,7.723 8.802,7.720 8.819 C 7.710 8.864,8.607 9.256,8.629 9.217 C 8.658 9.165,9.296 7.689,9.304 7.654 C 9.310 7.632,9.171 7.559,8.900 7.440 C 8.673 7.341,8.469 7.253,8.446 7.244 C 8.412 7.231,8.346 7.364,8.066 8.008 M12.967 7.993 L 12.601 8.763 13.044 8.978 C 13.288 9.097,13.495 9.187,13.505 9.178 C 13.528 9.157,14.225 7.687,14.225 7.659 C 14.225 7.642,13.530 7.298,13.371 7.237 C 13.342 7.226,13.249 7.399,12.967 7.993 M10.213 9.376 C 10.007 9.408,9.790 9.485,9.613 9.587 C 9.530 9.635,9.058 9.878,8.563 10.128 C 7.669 10.579,7.661 10.584,7.472 10.772 C 7.175 11.070,7.038 11.405,7.041 11.825 C 7.044 12.205,7.195 12.568,7.463 12.835 C 7.633 13.005,7.824 13.117,8.088 13.201 C 8.242 13.251,8.328 13.258,8.838 13.267 C 9.268 13.275,9.439 13.287,9.518 13.315 C 9.605 13.347,9.667 13.408,9.880 13.670 C 10.222 14.093,10.347 14.209,10.587 14.327 C 11.478 14.766,12.520 14.314,12.760 13.384 C 12.836 13.089,12.817 12.908,12.600 11.869 C 12.490 11.343,12.381 10.856,12.359 10.788 C 12.238 10.417,11.951 9.999,11.672 9.789 C 11.484 9.646,11.121 9.466,10.918 9.414 C 10.727 9.365,10.398 9.348,10.213 9.376 M13.656 10.495 C 13.462 10.904,13.300 11.254,13.295 11.270 C 13.286 11.305,14.152 11.728,14.180 11.703 C 14.201 11.684,14.865 10.297,14.888 10.223 C 14.902 10.179,14.851 10.148,14.463 9.962 C 14.221 9.845,14.019 9.750,14.015 9.750 C 14.011 9.750,13.850 10.085,13.656 10.495 " fill="currentColor" stroke="none" fill-rule="evenodd"></path></svg>