<svg fill="none" viewBox="0 0 15 15" xmlns="http://www.w3.org/2000/svg"><path d="M7.025 0.016 C 6.154 0.098,5.661 0.199,5.004 0.430 C 3.620 0.916,2.401 1.811,1.503 3.000 C 0.181 4.751,-0.298 6.995,0.188 9.162 C 0.572 10.875,1.567 12.410,2.996 13.494 C 3.991 14.249,5.139 14.724,6.475 14.932 C 6.965 15.008,8.035 15.008,8.525 14.932 C 10.348 14.648,11.897 13.826,13.060 12.527 C 14.090 11.375,14.686 10.102,14.932 8.525 C 15.010 8.025,15.008 6.967,14.929 6.450 C 14.596 4.283,13.437 2.446,11.659 1.268 C 10.553 0.535,9.402 0.134,8.092 0.026 C 7.797 0.002,7.232 -0.003,7.025 0.016 M8.503 6.069 C 10.593 7.263,10.488 7.187,10.488 7.500 C 10.488 7.815,10.593 7.739,8.500 8.935 C 6.778 9.920,6.656 9.986,6.526 9.995 C 6.350 10.006,6.195 9.930,6.088 9.777 L 6.013 9.671 6.005 7.567 C 5.999 6.020,6.005 5.436,6.027 5.363 C 6.070 5.212,6.144 5.126,6.285 5.058 C 6.539 4.937,6.450 4.896,8.503 6.069 " fill="currentColor" stroke="none" fill-rule="evenodd"></path></svg>