<svg fill="none" viewBox="0 0 15 15" xmlns="http://www.w3.org/2000/svg"><path d="M4.000 2.000 L 4.000 4.000 3.000 4.000 L 2.000 4.000 2.000 6.000 L 2.000 8.000 2.498 8.000 L 2.996 8.000 3.006 8.956 C 3.016 9.907,3.017 9.914,3.084 10.149 C 3.305 10.918,3.854 11.535,4.575 11.822 C 4.881 11.944,5.216 12.000,5.635 12.000 L 6.000 12.000 6.000 13.500 L 6.000 15.000 6.500 15.000 L 7.000 15.000 7.000 13.500 L 7.000 12.000 7.500 12.000 L 8.000 12.000 8.000 13.500 L 8.000 15.000 8.500 15.000 L 9.000 15.000 9.000 13.503 L 9.000 12.006 9.444 11.994 C 9.817 11.984,9.927 11.972,10.132 11.917 C 11.062 11.671,11.755 10.933,11.948 9.984 C 11.995 9.756,12.000 9.641,12.000 8.865 L 12.000 8.000 12.500 8.000 L 13.000 8.000 13.000 6.000 L 13.000 4.000 12.000 4.000 L 11.000 4.000 11.000 2.000 L 11.000 0.000 10.500 0.000 L 10.000 0.000 10.000 2.000 L 10.000 4.000 7.500 4.000 L 5.000 4.000 5.000 2.000 L 5.000 0.000 4.500 0.000 L 4.000 0.000 4.000 2.000 " fill="currentColor" stroke="none" fill-rule="evenodd"></path></svg>