<svg fill="none" viewBox="0 0 15 15" xmlns="http://www.w3.org/2000/svg"><path d="M2.175 0.039 C 1.902 0.098,1.663 0.233,1.449 0.448 C 1.233 0.666,1.121 0.859,1.049 1.140 C 1.001 1.330,1.000 1.440,1.000 7.500 C 1.000 13.560,1.001 13.670,1.049 13.860 C 1.122 14.143,1.233 14.334,1.449 14.551 C 1.666 14.767,1.857 14.878,2.140 14.951 C 2.329 14.999,2.436 15.000,7.500 15.000 C 12.564 15.000,12.671 14.999,12.860 14.951 C 13.143 14.878,13.334 14.767,13.551 14.551 C 13.767 14.334,13.878 14.143,13.951 13.860 C 13.999 13.671,14.000 13.564,14.000 8.477 L 14.000 3.287 12.356 1.644 L 10.712 0.000 6.525 0.002 C 3.034 0.004,2.310 0.010,2.175 0.039 M3.813 6.038 C 4.375 6.156,4.844 6.625,4.962 7.188 C 5.069 7.697,4.923 8.183,4.552 8.551 C 4.216 8.885,3.903 9.000,3.334 9.000 L 3.000 9.000 3.000 10.000 L 3.000 11.000 2.500 11.000 L 2.000 11.000 2.000 8.500 L 2.000 6.000 2.819 6.000 C 3.442 6.001,3.679 6.010,3.813 6.038 M7.813 6.038 C 8.375 6.156,8.844 6.625,8.962 7.188 C 9.069 7.697,8.923 8.183,8.552 8.551 C 8.216 8.885,7.903 9.000,7.334 9.000 L 7.000 9.000 7.000 10.000 L 7.000 11.000 6.500 11.000 L 6.000 11.000 6.000 8.500 L 6.000 6.000 6.819 6.000 C 7.442 6.001,7.679 6.010,7.813 6.038 M13.000 6.500 L 13.000 7.000 12.500 7.000 L 12.000 7.000 12.000 9.000 L 12.000 11.000 11.500 11.000 L 11.000 11.000 11.000 9.000 L 11.000 7.000 10.500 7.000 L 10.000 7.000 10.000 6.500 L 10.000 6.000 11.500 6.000 L 13.000 6.000 13.000 6.500 M3.000 7.500 L 3.000 8.005 3.333 7.996 C 3.645 7.988,3.673 7.983,3.768 7.920 C 3.924 7.817,3.988 7.695,3.988 7.498 C 3.988 7.362,3.976 7.317,3.920 7.233 C 3.884 7.177,3.810 7.104,3.758 7.072 C 3.672 7.019,3.628 7.012,3.331 7.004 L 3.000 6.995 3.000 7.500 M7.000 7.500 L 7.000 8.005 7.333 7.996 C 7.645 7.988,7.673 7.983,7.768 7.920 C 7.924 7.817,7.988 7.695,7.988 7.498 C 7.988 7.362,7.976 7.317,7.920 7.233 C 7.884 7.177,7.810 7.104,7.758 7.072 C 7.672 7.019,7.628 7.012,7.331 7.004 L 7.000 6.995 7.000 7.500 " fill="currentColor" stroke="none" fill-rule="evenodd"></path></svg>