<svg fill="none" viewBox="0 0 15 15" xmlns="http://www.w3.org/2000/svg"><path d="M4.175 0.039 C 3.902 0.098,3.663 0.233,3.449 0.448 C 3.233 0.666,3.121 0.859,3.049 1.140 C 3.002 1.324,3.000 1.422,3.000 3.166 L 3.000 5.000 7.500 5.000 L 12.000 5.000 12.000 3.166 C 12.000 1.422,11.998 1.324,11.951 1.140 C 11.879 0.859,11.767 0.666,11.551 0.448 C 11.334 0.229,11.096 0.097,10.813 0.038 C 10.558 -0.016,4.423 -0.015,4.175 0.039 M1.175 6.039 C 0.902 6.098,0.663 6.233,0.449 6.448 C 0.233 6.666,0.121 6.859,0.049 7.140 C 0.002 7.325,0.000 7.424,0.000 9.500 C 0.000 11.576,0.002 11.675,0.049 11.860 C 0.122 12.143,0.233 12.334,0.449 12.551 C 0.783 12.884,1.096 13.000,1.666 13.000 L 2.000 13.000 2.000 11.000 L 2.000 9.000 7.500 9.000 L 13.000 9.000 13.000 11.000 L 13.000 13.000 13.334 13.000 C 13.904 13.000,14.217 12.884,14.551 12.551 C 14.767 12.334,14.878 12.143,14.951 11.860 C 14.998 11.675,15.000 11.576,15.000 9.500 C 15.000 7.424,14.998 7.325,14.951 7.140 C 14.879 6.859,14.767 6.666,14.551 6.448 C 14.334 6.229,14.096 6.097,13.813 6.038 C 13.556 5.984,1.425 5.985,1.175 6.039 M3.000 12.500 L 3.000 15.000 7.500 15.000 L 12.000 15.000 12.000 12.500 L 12.000 10.000 7.500 10.000 L 3.000 10.000 3.000 12.500 " fill="currentColor" stroke="none" fill-rule="evenodd"></path></svg>