<svg fill="none" viewBox="0 0 15 15" xmlns="http://www.w3.org/2000/svg"><path d="M5.175 0.039 C 4.902 0.098,4.663 0.233,4.449 0.448 C 4.233 0.666,4.121 0.859,4.049 1.140 C 4.005 1.313,4.000 1.418,4.000 2.166 L 4.000 3.000 5.000 3.000 L 6.000 3.000 6.000 2.500 L 6.000 2.000 6.500 2.000 L 7.000 2.000 7.000 2.500 L 7.000 3.000 7.500 3.000 L 8.000 3.000 8.000 3.500 L 8.000 4.000 4.681 4.000 C 1.002 4.001,1.178 3.993,0.825 4.166 C 0.566 4.293,0.292 4.567,0.167 4.825 C -0.009 5.186,-0.000 5.020,-0.000 7.989 C -0.000 10.574,0.002 10.674,0.049 10.860 C 0.122 11.143,0.233 11.334,0.449 11.551 C 0.666 11.767,0.857 11.878,1.140 11.951 C 1.313 11.995,1.418 12.000,2.166 12.000 L 3.000 12.000 3.000 10.181 C 3.001 8.679,3.007 8.332,3.038 8.188 C 3.145 7.678,3.537 7.243,4.050 7.068 L 4.213 7.013 7.438 7.000 L 10.663 6.988 10.758 6.928 C 10.810 6.896,10.884 6.823,10.920 6.768 L 10.988 6.666 10.995 4.014 C 11.001 1.659,10.997 1.342,10.962 1.181 C 10.837 0.617,10.373 0.155,9.813 0.038 C 9.560 -0.015,5.422 -0.014,5.175 0.039 M12.000 4.819 C 11.999 6.321,11.993 6.668,11.962 6.813 C 11.855 7.322,11.463 7.757,10.950 7.932 L 10.788 7.988 7.558 8.000 L 4.329 8.013 4.223 8.088 C 4.164 8.129,4.090 8.212,4.058 8.273 L 4.000 8.383 4.000 11.025 C 4.000 13.574,4.002 13.674,4.049 13.860 C 4.122 14.143,4.233 14.334,4.449 14.551 C 4.666 14.767,4.857 14.878,5.140 14.951 C 5.325 14.998,5.424 15.000,7.500 15.000 C 9.576 15.000,9.675 14.998,9.860 14.951 C 10.143 14.878,10.334 14.767,10.551 14.551 C 10.767 14.334,10.878 14.143,10.951 13.860 C 10.995 13.687,11.000 13.582,11.000 12.834 L 11.000 12.000 10.000 12.000 L 9.000 12.000 9.000 12.500 L 9.000 13.000 8.500 13.000 L 8.000 13.000 8.000 12.500 L 8.000 12.000 7.500 12.000 L 7.000 12.000 7.000 11.500 L 7.000 11.000 10.334 11.000 C 13.571 11.000,13.673 10.999,13.860 10.951 C 14.143 10.878,14.334 10.767,14.551 10.551 C 14.767 10.334,14.878 10.143,14.951 9.860 C 14.998 9.674,15.000 9.574,15.000 7.000 C 15.000 4.426,14.998 4.326,14.951 4.140 C 14.879 3.859,14.767 3.666,14.551 3.448 C 14.413 3.308,14.313 3.234,14.175 3.166 C 13.868 3.016,13.745 3.001,12.819 3.000 L 12.000 3.000 12.000 4.819 " fill="currentColor" stroke="none" fill-rule="evenodd"></path></svg>