<svg fill="none" viewBox="0 0 15 15" xmlns="http://www.w3.org/2000/svg"><path d="M12.188 0.015 C 11.158 0.170,10.354 0.873,10.087 1.851 C 10.009 2.137,9.982 2.550,10.022 2.835 C 10.081 3.245,10.309 3.776,10.546 4.053 C 10.621 4.140,10.626 4.157,10.596 4.199 C 10.578 4.224,10.045 4.865,9.413 5.623 L 8.263 7.000 6.607 7.000 L 4.952 7.000 4.925 6.894 C 4.699 5.990,3.974 5.281,3.050 5.058 C 2.909 5.024,2.769 5.014,2.488 5.015 C 2.165 5.017,2.078 5.026,1.864 5.083 C 0.814 5.363,0.068 6.276,0.008 7.352 C -0.059 8.542,0.727 9.608,1.894 9.913 C 2.740 10.134,3.671 9.865,4.288 9.222 C 4.601 8.896,4.759 8.632,4.888 8.218 L 4.956 8.000 6.600 8.000 L 8.245 8.000 9.321 9.507 C 9.913 10.336,10.404 11.032,10.413 11.054 C 10.421 11.077,10.396 11.145,10.352 11.213 C 10.165 11.508,10.030 11.956,10.008 12.352 C 9.941 13.542,10.723 14.608,11.888 14.916 C 12.103 14.973,12.188 14.982,12.500 14.982 C 12.809 14.982,12.898 14.973,13.103 14.918 C 14.284 14.605,15.063 13.545,14.991 12.352 C 14.952 11.708,14.713 11.183,14.251 10.725 C 13.978 10.455,13.720 10.288,13.378 10.160 C 12.709 9.908,11.905 9.963,11.307 10.301 L 11.170 10.378 11.129 10.320 C 11.107 10.289,10.652 9.652,10.119 8.905 C 9.586 8.158,9.150 7.537,9.150 7.523 C 9.150 7.510,9.658 6.889,10.279 6.143 C 10.900 5.398,11.412 4.783,11.416 4.777 C 11.421 4.771,11.530 4.803,11.658 4.847 C 12.076 4.991,12.435 5.029,12.841 4.973 C 13.706 4.853,14.486 4.249,14.811 3.449 C 14.944 3.120,14.986 2.890,14.986 2.488 C 14.986 2.157,14.978 2.084,14.919 1.868 C 14.615 0.771,13.695 0.043,12.575 0.013 C 12.403 0.008,12.229 0.009,12.188 0.015 " fill="currentColor" stroke="none" fill-rule="evenodd"></path></svg>