<svg fill="none" viewBox="0 0 15 15" xmlns="http://www.w3.org/2000/svg"><path d="M1.175 3.039 C 0.636 3.155,0.179 3.606,0.038 4.162 C 0.005 4.291,-0.000 4.732,-0.000 7.489 C -0.000 10.572,0.001 10.673,0.049 10.860 C 0.122 11.143,0.233 11.334,0.449 11.551 C 0.666 11.767,0.857 11.878,1.140 11.951 C 1.330 11.999,1.440 12.000,7.500 12.000 C 13.560 12.000,13.670 11.999,13.860 11.951 C 14.143 11.878,14.334 11.767,14.551 11.551 C 14.767 11.334,14.878 11.143,14.951 10.860 C 14.999 10.673,15.000 10.572,15.000 7.500 C 15.000 4.428,14.999 4.327,14.951 4.140 C 14.879 3.859,14.767 3.666,14.551 3.448 C 14.334 3.229,14.096 3.097,13.813 3.038 C 13.556 2.984,1.425 2.985,1.175 3.039 M10.000 6.500 L 10.000 7.000 9.500 7.000 L 9.000 7.000 9.000 6.500 L 9.000 6.000 9.500 6.000 L 10.000 6.000 10.000 6.500 M12.000 6.500 L 12.000 7.000 11.500 7.000 L 11.000 7.000 11.000 6.500 L 11.000 6.000 11.500 6.000 L 12.000 6.000 12.000 6.500 M4.000 7.500 L 4.000 8.000 4.500 8.000 L 5.000 8.000 5.000 8.500 L 5.000 9.000 4.500 9.000 L 4.000 9.000 4.000 9.500 L 4.000 10.000 3.500 10.000 L 3.000 10.000 3.000 9.500 L 3.000 9.000 2.500 9.000 L 2.000 9.000 2.000 8.500 L 2.000 8.000 2.500 8.000 L 3.000 8.000 3.000 7.500 L 3.000 7.000 3.500 7.000 L 4.000 7.000 4.000 7.500 M10.000 8.500 L 10.000 9.000 9.500 9.000 L 9.000 9.000 9.000 8.500 L 9.000 8.000 9.500 8.000 L 10.000 8.000 10.000 8.500 M12.000 8.500 L 12.000 9.000 11.500 9.000 L 11.000 9.000 11.000 8.500 L 11.000 8.000 11.500 8.000 L 12.000 8.000 12.000 8.500 " fill="currentColor" stroke="none" fill-rule="evenodd"></path></svg>