<svg fill="none" viewBox="0 0 15 15" xmlns="http://www.w3.org/2000/svg"><path d="M8.350 1.023 C 8.316 1.034,7.179 1.709,5.825 2.522 L 3.363 4.000 2.363 4.000 C 1.239 4.001,1.141 4.011,0.825 4.166 C 0.687 4.234,0.587 4.308,0.449 4.448 C 0.233 4.666,0.121 4.859,0.049 5.140 C 0.002 5.325,0.000 5.424,0.000 7.500 C 0.000 9.576,0.002 9.675,0.049 9.860 C 0.122 10.143,0.233 10.334,0.449 10.551 C 0.666 10.767,0.857 10.878,1.140 10.951 C 1.317 10.996,1.419 11.000,2.348 11.000 L 3.362 11.000 5.846 12.490 C 8.213 13.910,8.336 13.981,8.471 13.992 C 8.650 14.008,8.803 13.933,8.912 13.777 L 8.988 13.671 8.988 7.500 L 8.988 1.329 8.912 1.223 C 8.871 1.165,8.794 1.094,8.741 1.067 C 8.634 1.012,8.446 0.990,8.350 1.023 M13.138 4.149 L 12.789 4.499 13.017 4.731 C 13.269 4.989,13.427 5.217,13.589 5.558 C 14.140 6.725,14.135 8.304,13.574 9.463 C 13.405 9.812,13.274 10.001,13.015 10.270 L 12.790 10.503 13.147 10.858 L 13.503 11.213 13.741 10.965 C 14.006 10.688,14.144 10.505,14.328 10.185 C 14.941 9.120,15.151 7.661,14.885 6.325 C 14.761 5.703,14.494 5.036,14.178 4.559 C 14.046 4.360,13.548 3.800,13.503 3.800 C 13.494 3.800,13.330 3.957,13.138 4.149 " fill="currentColor" stroke="none" fill-rule="evenodd"></path></svg>