<svg fill="none" viewBox="0 0 15 15" xmlns="http://www.w3.org/2000/svg"><path d="M6.399 1.026 C 5.976 1.084,5.481 1.287,5.135 1.544 C 4.374 2.112,3.963 2.979,4.008 3.924 C 4.055 4.910,4.566 5.818,5.375 6.354 C 5.594 6.499,5.866 6.643,5.884 6.624 C 5.901 6.605,6.277 5.718,6.269 5.714 C 6.266 5.712,6.229 5.696,6.188 5.678 C 5.933 5.568,5.559 5.247,5.382 4.985 C 5.124 4.605,5.020 4.276,5.016 3.825 C 5.012 3.464,5.040 3.325,5.174 3.038 C 5.356 2.647,5.607 2.389,5.988 2.198 C 6.338 2.023,6.370 2.019,7.274 2.007 C 7.815 1.999,8.151 2.005,8.284 2.025 C 9.186 2.157,9.865 2.854,9.981 3.766 L 10.010 4.000 10.505 4.000 L 11.000 4.000 11.000 3.881 C 11.000 3.688,10.928 3.305,10.848 3.066 C 10.549 2.172,9.841 1.457,8.965 1.163 C 8.558 1.026,8.502 1.020,7.500 1.012 C 6.984 1.007,6.489 1.014,6.399 1.026 M2.000 7.500 L 2.000 8.000 5.699 8.000 L 9.397 8.000 9.548 8.088 C 10.109 8.417,10.592 9.007,10.840 9.666 C 11.171 10.545,10.954 11.552,10.286 12.236 C 9.909 12.623,9.440 12.869,8.903 12.963 C 8.597 13.017,6.859 13.016,6.526 12.961 C 5.158 12.740,4.123 11.611,4.011 10.219 L 3.993 10.000 3.493 10.000 L 2.992 10.000 3.009 10.244 C 3.119 11.903,4.214 13.308,5.788 13.807 C 6.327 13.979,6.423 13.988,7.750 13.988 C 8.816 13.988,8.959 13.983,9.150 13.941 C 9.888 13.779,10.453 13.475,10.964 12.964 C 11.475 12.453,11.783 11.881,11.940 11.150 C 12.005 10.849,12.005 10.171,11.941 9.875 C 11.805 9.251,11.527 8.670,11.120 8.156 L 10.996 8.000 11.998 8.000 L 13.000 8.000 13.000 7.500 L 13.000 7.000 7.500 7.000 L 2.000 7.000 2.000 7.500 " fill="currentColor" stroke="none" fill-rule="evenodd"></path></svg>