<svg fill="none" viewBox="0 0 15 15" xmlns="http://www.w3.org/2000/svg"><path d="M7.000 0.016 C 4.798 0.180,2.835 1.244,1.508 2.994 C 0.749 3.994,0.277 5.135,0.068 6.475 C -0.008 6.965,-0.008 8.035,0.068 8.525 C 0.389 10.583,1.383 12.271,2.996 13.494 C 3.991 14.249,5.139 14.724,6.475 14.932 C 6.965 15.008,8.035 15.008,8.525 14.932 C 10.348 14.648,11.897 13.826,13.060 12.527 C 14.090 11.375,14.686 10.102,14.932 8.525 C 15.008 8.035,15.008 6.965,14.932 6.475 C 14.724 5.139,14.249 3.991,13.494 2.996 C 12.254 1.361,10.481 0.333,8.438 0.062 C 8.145 0.023,7.275 -0.005,7.000 0.016 M7.945 3.026 C 8.510 3.088,8.955 3.214,9.449 3.452 C 10.382 3.902,11.085 4.602,11.540 5.534 C 12.321 7.136,12.086 9.020,10.934 10.404 C 9.976 11.554,8.429 12.156,6.933 11.962 C 4.878 11.695,3.277 10.077,3.037 8.027 C 2.990 7.630,2.990 7.370,3.037 6.973 C 3.299 4.727,5.185 3.033,7.457 3.003 C 7.592 3.001,7.811 3.012,7.945 3.026 M7.071 4.027 C 6.823 4.057,6.464 4.149,6.212 4.247 C 5.452 4.540,4.738 5.197,4.364 5.946 C 4.252 6.169,4.119 6.563,4.058 6.850 C 3.994 7.148,3.994 7.852,4.058 8.150 C 4.207 8.852,4.500 9.414,4.972 9.906 C 5.495 10.451,6.093 10.781,6.850 10.942 C 7.148 11.006,7.852 11.006,8.150 10.942 C 8.907 10.781,9.505 10.451,10.028 9.906 C 10.500 9.414,10.793 8.852,10.942 8.150 C 11.006 7.852,11.006 7.148,10.942 6.850 C 10.781 6.094,10.450 5.494,9.908 4.974 C 9.411 4.498,8.819 4.192,8.150 4.063 C 7.890 4.014,7.330 3.995,7.071 4.027 M7.813 6.038 C 8.237 6.127,8.646 6.442,8.834 6.825 C 9.128 7.425,9.020 8.087,8.552 8.551 C 8.334 8.767,8.141 8.879,7.860 8.951 C 7.507 9.041,7.124 8.994,6.792 8.820 C 6.564 8.701,6.281 8.409,6.166 8.175 C 5.872 7.575,5.980 6.916,6.448 6.448 C 6.819 6.076,7.303 5.931,7.813 6.038 M7.342 7.024 C 7.149 7.086,7.000 7.295,7.000 7.504 C 7.000 7.655,7.089 7.818,7.223 7.913 C 7.316 7.978,7.351 7.988,7.498 7.988 C 7.639 7.988,7.683 7.977,7.767 7.920 C 7.924 7.817,7.988 7.695,7.988 7.500 C 7.988 7.308,7.924 7.183,7.775 7.084 C 7.670 7.015,7.460 6.986,7.342 7.024 " fill="currentColor" stroke="none" fill-rule="evenodd"></path></svg>