<svg fill="none" viewBox="0 0 15 15" xmlns="http://www.w3.org/2000/svg"><path d="M14.350 1.023 C 13.550 1.293,0.245 6.068,0.197 6.102 C 0.071 6.192,0.013 6.319,0.013 6.504 C 0.013 6.648,0.022 6.685,0.088 6.779 C 0.159 6.883,0.247 6.930,2.269 7.944 C 4.497 9.061,4.450 9.041,4.653 8.971 C 4.699 8.954,5.474 8.450,6.375 7.850 C 7.276 7.250,8.029 6.749,8.050 6.737 C 8.071 6.725,8.052 6.759,8.009 6.813 C 7.966 6.868,7.507 7.441,6.990 8.088 C 6.304 8.945,6.042 9.289,6.022 9.362 C 5.987 9.490,6.010 9.658,6.078 9.768 C 6.120 9.835,6.831 10.320,9.198 11.898 C 10.884 13.022,12.307 13.957,12.360 13.974 C 12.559 14.040,12.797 13.954,12.916 13.775 C 12.972 13.689,13.072 13.115,13.991 7.609 C 14.740 3.121,15.000 1.508,14.989 1.425 C 14.971 1.283,14.866 1.132,14.741 1.067 C 14.634 1.012,14.446 0.990,14.350 1.023 " fill="currentColor" stroke="none" fill-rule="evenodd"></path></svg>