<svg fill="none" viewBox="0 0 15 15" xmlns="http://www.w3.org/2000/svg"><path d="M7.025 0.016 C 6.154 0.098,5.661 0.199,5.004 0.430 C 3.620 0.916,2.401 1.811,1.503 3.000 C 0.181 4.751,-0.298 6.995,0.188 9.162 C 0.572 10.875,1.567 12.410,2.996 13.494 C 3.991 14.249,5.139 14.724,6.475 14.932 C 6.965 15.008,8.035 15.008,8.525 14.932 C 10.348 14.648,11.897 13.826,13.060 12.527 C 14.090 11.375,14.686 10.102,14.932 8.525 C 15.010 8.025,15.008 6.967,14.929 6.450 C 14.596 4.283,13.437 2.446,11.659 1.268 C 10.553 0.535,9.402 0.134,8.092 0.026 C 7.797 0.002,7.232 -0.003,7.025 0.016 M11.002 5.002 C 11.209 5.168,11.374 5.314,11.370 5.326 C 11.359 5.359,7.090 10.697,7.074 10.699 C 7.051 10.701,3.700 7.901,3.700 7.880 C 3.700 7.864,4.215 7.230,4.301 7.140 C 4.313 7.128,4.885 7.587,5.616 8.197 C 6.328 8.790,6.917 9.275,6.925 9.275 C 6.933 9.275,7.764 8.246,8.770 6.988 C 9.777 5.729,10.606 4.700,10.614 4.700 C 10.621 4.700,10.796 4.836,11.002 5.002 " fill="currentColor" stroke="none" fill-rule="evenodd"></path></svg>