<svg fill="none" viewBox="0 0 15 15" xmlns="http://www.w3.org/2000/svg"><path d="M8.993 5.719 C 8.984 12.011,8.997 11.489,8.837 11.965 C 8.319 13.509,6.606 14.364,5.066 13.848 C 4.040 13.505,3.306 12.681,3.058 11.596 C 3.001 11.344,3.001 10.661,3.059 10.404 C 3.196 9.797,3.460 9.310,3.885 8.885 C 4.407 8.364,5.041 8.072,5.781 8.012 L 6.000 7.994 6.000 7.493 L 6.000 6.993 5.769 7.010 C 4.286 7.117,3.024 7.961,2.400 9.263 C 2.035 10.026,1.915 10.894,2.063 11.713 C 2.325 13.159,3.383 14.361,4.788 14.807 C 5.228 14.947,5.499 14.988,6.000 14.988 C 6.501 14.988,6.772 14.947,7.213 14.807 C 8.606 14.365,9.605 13.245,9.930 11.761 C 9.985 11.514,9.985 11.497,9.999 7.764 L 10.013 4.015 10.141 4.176 C 10.299 4.373,10.705 4.770,10.925 4.942 C 11.715 5.559,12.713 5.934,13.716 5.991 L 14.000 6.008 14.000 5.508 L 14.000 5.008 13.750 4.991 C 12.102 4.883,10.696 3.785,10.193 2.212 C 10.045 1.751,10.020 1.549,10.006 0.731 L 9.995 -0.000 9.498 -0.000 L 9.001 0.000 8.993 5.719 " fill="currentColor" stroke="none" fill-rule="evenodd"></path></svg>