<svg fill="none" viewBox="0 0 15 15" xmlns="http://www.w3.org/2000/svg"><path d="M7.071 0.027 C 6.636 0.081,6.162 0.238,5.787 0.453 C 5.465 0.638,5.240 0.814,4.970 1.096 C 4.597 1.484,4.353 1.887,4.188 2.383 C 4.013 2.910,4.017 2.859,4.007 4.506 L 3.997 6.000 3.180 6.000 C 2.256 6.001,2.131 6.016,1.825 6.166 C 1.687 6.234,1.587 6.308,1.449 6.448 C 1.233 6.666,1.121 6.859,1.049 7.140 C 1.001 7.327,1.000 7.428,1.000 10.500 C 1.000 13.572,1.001 13.673,1.049 13.860 C 1.122 14.143,1.233 14.334,1.449 14.551 C 1.666 14.767,1.857 14.878,2.140 14.951 C 2.329 14.999,2.436 15.000,7.500 15.000 C 12.564 15.000,12.671 14.999,12.860 14.951 C 13.143 14.878,13.334 14.767,13.551 14.551 C 13.767 14.334,13.878 14.143,13.951 13.860 C 13.999 13.673,14.000 13.572,14.000 10.500 C 14.000 7.428,13.999 7.327,13.951 7.140 C 13.879 6.859,13.767 6.666,13.551 6.448 C 13.413 6.308,13.313 6.234,13.175 6.166 C 12.820 5.992,13.051 6.001,8.817 6.000 L 4.997 6.000 5.006 4.556 C 5.015 3.161,5.018 3.105,5.071 2.901 C 5.183 2.475,5.431 2.041,5.736 1.736 C 6.047 1.425,6.485 1.177,6.914 1.071 C 7.232 0.992,7.768 0.992,8.086 1.071 C 8.515 1.177,8.953 1.425,9.264 1.736 C 9.478 1.949,9.620 2.155,9.765 2.461 C 9.930 2.809,9.977 3.033,9.993 3.556 L 10.007 4.000 10.507 4.000 L 11.006 4.000 10.993 3.506 C 10.978 2.967,10.951 2.801,10.810 2.376 C 10.632 1.841,10.342 1.390,9.908 0.974 C 9.411 0.498,8.819 0.192,8.150 0.063 C 7.890 0.014,7.330 -0.005,7.071 0.027 " fill="currentColor" stroke="none" fill-rule="evenodd"></path></svg>