<svg fill="none" viewBox="0 0 15 15" xmlns="http://www.w3.org/2000/svg"><path d="M5.100 0.014 C 5.066 0.020,4.953 0.037,4.850 0.052 C 4.052 0.167,3.228 0.641,2.711 1.283 C 2.191 1.929,1.925 2.679,1.925 3.500 C 1.925 5.172,3.070 6.570,4.733 6.930 C 4.949 6.977,5.065 6.985,5.500 6.985 C 5.935 6.985,6.051 6.977,6.267 6.930 C 7.930 6.570,9.075 5.171,9.075 3.500 C 9.075 1.802,7.893 0.382,6.213 0.059 C 6.022 0.023,5.235 -0.009,5.100 0.014 M10.000 7.500 L 10.000 8.000 12.500 8.000 L 15.000 8.000 15.000 7.500 L 15.000 7.000 12.500 7.000 L 10.000 7.000 10.000 7.500 M3.100 9.017 C 3.052 9.022,2.901 9.049,2.765 9.078 C 1.584 9.323,0.588 10.204,0.195 11.350 C 0.015 11.875,0.017 11.855,0.007 13.506 L -0.003 15.000 5.500 15.000 L 11.003 15.000 10.993 13.506 C 10.984 12.089,10.981 12.001,10.931 11.788 C 10.602 10.396,9.645 9.420,8.275 9.080 L 8.013 9.015 5.600 9.011 C 4.273 9.009,3.148 9.011,3.100 9.017 " fill="currentColor" stroke="none" fill-rule="evenodd"></path></svg>