<svg fill="none" viewBox="0 0 15 15" xmlns="http://www.w3.org/2000/svg"><path d="M7.100 0.014 C 7.066 0.020,6.953 0.037,6.850 0.052 C 6.052 0.167,5.228 0.641,4.711 1.283 C 4.191 1.929,3.925 2.679,3.925 3.500 C 3.925 5.172,5.070 6.570,6.733 6.930 C 6.949 6.977,7.065 6.985,7.500 6.985 C 7.935 6.985,8.051 6.977,8.267 6.930 C 9.930 6.570,11.075 5.171,11.075 3.500 C 11.075 1.802,9.893 0.382,8.213 0.059 C 8.022 0.023,7.235 -0.009,7.100 0.014 M5.100 9.017 C 5.052 9.022,4.901 9.049,4.765 9.078 C 3.584 9.323,2.588 10.204,2.195 11.350 C 2.015 11.875,2.017 11.855,2.007 13.506 L 1.997 15.000 7.500 15.000 L 13.003 15.000 12.993 13.506 C 12.984 12.089,12.981 12.001,12.931 11.788 C 12.602 10.396,11.645 9.420,10.275 9.080 L 10.013 9.015 7.600 9.011 C 6.273 9.009,5.148 9.011,5.100 9.017 " fill="currentColor" stroke="none" fill-rule="evenodd"></path></svg>