<svg fill="none" viewBox="0 0 15 15" xmlns="http://www.w3.org/2000/svg"><path d="M7.025 0.016 C 6.154 0.098,5.661 0.199,5.004 0.430 C 3.620 0.916,2.401 1.811,1.503 3.000 C 0.181 4.751,-0.298 6.995,0.188 9.162 C 0.572 10.875,1.567 12.410,2.996 13.494 C 3.991 14.249,5.139 14.724,6.475 14.932 C 6.965 15.008,8.035 15.008,8.525 14.932 C 10.348 14.648,11.897 13.826,13.060 12.527 C 14.090 11.375,14.686 10.102,14.932 8.525 C 15.010 8.025,15.008 6.967,14.929 6.450 C 14.596 4.283,13.437 2.446,11.659 1.268 C 10.553 0.535,9.402 0.134,8.092 0.026 C 7.797 0.002,7.232 -0.003,7.025 0.016 M6.181 5.469 L 7.500 6.787 8.825 5.463 L 10.150 4.138 10.506 4.494 L 10.862 4.850 9.537 6.175 L 8.213 7.500 9.535 8.823 L 10.858 10.145 10.505 10.504 L 10.152 10.863 8.826 9.538 L 7.500 8.213 6.175 9.537 L 4.850 10.862 4.494 10.506 L 4.138 10.150 5.463 8.825 L 6.787 7.500 5.463 6.175 L 4.138 4.850 4.487 4.500 C 4.680 4.308,4.843 4.150,4.850 4.150 C 4.857 4.150,5.456 4.743,6.181 5.469 " fill="currentColor" stroke="none" fill-rule="evenodd"></path></svg>