<svg viewBox="0 0 24 24" xmlns="http://www.w3.org/2000/svg"><path d="M17.653 2.242 C 17.561 2.260,17.435 2.302,17.373 2.335 C 17.311 2.368,16.918 2.738,16.500 3.157 L 15.741 3.920 17.860 6.040 L 19.979 8.160 20.731 7.410 C 21.213 6.928,21.512 6.597,21.567 6.484 C 21.686 6.240,21.704 5.975,21.620 5.714 C 21.555 5.515,21.442 5.391,20.030 3.973 C 19.023 2.963,18.447 2.414,18.325 2.348 C 18.107 2.233,17.884 2.197,17.653 2.242 M8.650 11.010 L 3.000 16.660 3.000 18.770 L 3.000 20.880 5.130 20.880 L 7.260 20.880 12.200 15.940 L 17.139 11.001 17.490 11.350 L 17.841 11.699 14.660 14.880 L 11.480 18.061 12.190 18.770 L 12.901 19.480 16.526 15.850 C 20.437 11.934,20.255 12.136,20.255 11.700 C 20.255 11.267,20.378 11.407,17.246 8.270 C 15.648 6.670,14.332 5.360,14.321 5.360 C 14.309 5.360,11.757 7.903,8.650 11.010 M11.070 14.230 L 6.420 18.880 5.710 18.880 L 5.000 18.880 5.000 18.170 L 5.000 17.460 9.650 12.810 L 14.300 8.160 15.010 8.870 L 15.720 9.580 11.070 14.230 " stroke="none" fill-rule="evenodd" fill="black"></path></svg>