<svg viewBox="0 0 24 24" xmlns="http://www.w3.org/2000/svg"><path d="M9.470 1.470 L 8.760 2.180 9.670 3.090 L 10.579 4.000 9.159 4.000 C 8.377 4.000,7.585 4.019,7.399 4.042 C 6.850 4.109,6.337 4.263,5.820 4.517 C 4.590 5.120,3.688 6.140,3.263 7.407 C 3.024 8.118,3.029 8.065,3.011 10.630 L 2.995 13.000 3.996 13.000 L 4.996 13.000 5.010 10.730 C 5.027 8.207,5.015 8.320,5.312 7.704 C 5.607 7.090,6.090 6.607,6.704 6.312 C 7.294 6.028,7.289 6.028,9.020 6.011 L 10.580 5.996 9.670 6.908 L 8.760 7.821 9.470 8.530 L 10.181 9.240 12.300 7.120 L 14.420 5.000 12.300 2.880 L 10.180 0.760 9.470 1.470 M9.664 10.063 C 9.436 10.146,9.257 10.297,9.131 10.511 L 9.020 10.700 9.020 16.000 L 9.020 21.300 9.131 21.489 C 9.192 21.592,9.301 21.723,9.374 21.778 C 9.680 22.011,9.390 22.000,14.998 22.000 C 20.783 22.000,20.381 22.021,20.701 21.701 C 21.021 21.381,21.000 21.783,21.000 16.000 C 21.000 10.217,21.021 10.619,20.701 10.299 C 20.381 9.979,20.786 10.000,14.983 10.003 C 10.607 10.005,9.796 10.014,9.664 10.063 M19.000 16.000 L 19.000 20.000 15.000 20.000 L 11.000 20.000 11.000 16.000 L 11.000 12.000 15.000 12.000 L 19.000 12.000 19.000 16.000 " stroke="none" fill-rule="evenodd" fill="black"></path></svg>