<svg viewBox="0 0 24 24" xmlns="http://www.w3.org/2000/svg"><path d="M11.000 3.998 L 11.000 4.996 13.270 5.010 C 15.793 5.027,15.680 5.015,16.296 5.312 C 16.924 5.614,17.398 6.095,17.704 6.740 C 17.972 7.307,18.000 7.534,18.000 9.174 L 18.000 10.579 17.090 9.670 L 16.179 8.760 15.470 9.470 L 14.760 10.181 16.880 12.300 L 19.000 14.420 21.120 12.300 L 23.240 10.181 22.530 9.470 L 21.821 8.760 20.914 9.666 L 20.006 10.573 19.990 8.917 C 19.974 7.278,19.972 7.256,19.867 6.848 C 19.605 5.835,19.140 5.040,18.409 4.353 C 17.657 3.647,16.632 3.168,15.601 3.042 C 15.405 3.018,14.361 3.000,13.131 3.000 L 11.000 3.000 11.000 3.998 M2.664 9.063 C 2.436 9.146,2.257 9.297,2.131 9.511 L 2.020 9.700 2.020 15.000 L 2.020 20.300 2.131 20.489 C 2.192 20.592,2.301 20.723,2.374 20.778 C 2.680 21.011,2.390 21.000,7.998 21.000 C 13.783 21.000,13.381 21.021,13.701 20.701 C 14.021 20.381,14.000 20.783,14.000 15.000 C 14.000 9.217,14.021 9.619,13.701 9.299 C 13.381 8.979,13.786 9.000,7.983 9.003 C 3.607 9.005,2.796 9.014,2.664 9.063 M12.000 15.000 L 12.000 19.000 8.000 19.000 L 4.000 19.000 4.000 15.000 L 4.000 11.000 8.000 11.000 L 12.000 11.000 12.000 15.000 " stroke="none" fill-rule="evenodd" fill="black"></path></svg>