<svg viewBox="0 0 24 24" xmlns="http://www.w3.org/2000/svg"><path d="M10.000 2.500 L 10.000 4.000 8.869 4.000 C 8.247 4.000,7.585 4.019,7.399 4.042 C 6.850 4.109,6.337 4.263,5.820 4.517 C 4.590 5.120,3.688 6.140,3.263 7.407 C 3.024 8.118,3.029 8.065,3.011 10.630 L 2.995 13.000 3.996 13.000 L 4.996 13.000 5.010 10.730 C 5.027 8.207,5.015 8.320,5.312 7.704 C 5.681 6.935,6.388 6.346,7.244 6.092 C 7.416 6.041,7.721 6.024,8.730 6.011 L 10.000 5.993 10.000 7.497 L 10.000 9.000 12.480 7.016 C 13.844 5.925,14.960 5.018,14.960 5.000 C 14.960 4.982,13.844 4.075,12.480 2.984 L 10.000 1.000 10.000 2.500 M9.664 10.063 C 9.436 10.146,9.257 10.297,9.131 10.511 L 9.020 10.700 9.020 16.000 L 9.020 21.300 9.131 21.489 C 9.192 21.592,9.301 21.723,9.374 21.778 C 9.680 22.011,9.390 22.000,14.998 22.000 C 20.783 22.000,20.381 22.021,20.701 21.701 C 21.021 21.381,21.000 21.783,21.000 16.000 C 21.000 10.217,21.021 10.619,20.701 10.299 C 20.381 9.979,20.786 10.000,14.983 10.003 C 10.607 10.005,9.796 10.014,9.664 10.063 " stroke="none" fill-rule="evenodd" fill="black"></path></svg>