<svg viewBox="0 0 24 24" xmlns="http://www.w3.org/2000/svg"><path d="M3.600 3.203 C 3.378 3.304,3.219 3.451,3.106 3.660 L 3.020 3.820 3.009 8.255 C 2.999 12.478,3.002 12.689,3.069 12.671 C 3.108 12.661,4.868 12.350,6.980 11.979 C 9.092 11.608,10.825 11.302,10.831 11.298 C 10.841 11.291,9.468 3.426,9.419 3.210 L 9.398 3.120 6.589 3.121 C 3.850 3.122,3.776 3.124,3.600 3.203 M11.454 3.250 C 11.467 3.321,12.171 7.322,13.019 12.140 C 13.867 16.958,14.571 20.949,14.584 21.010 L 14.606 21.120 17.336 21.120 C 20.489 21.120,20.363 21.132,20.702 20.785 C 20.840 20.644,20.920 20.520,20.954 20.399 C 20.992 20.260,21.000 18.396,20.991 12.020 L 20.980 3.820 20.894 3.660 C 20.781 3.451,20.622 3.304,20.400 3.203 C 20.222 3.123,20.160 3.122,15.826 3.121 L 11.431 3.120 11.454 3.250 M7.020 13.997 L 3.020 14.706 3.009 17.463 C 3.000 19.543,3.009 20.264,3.046 20.399 C 3.080 20.520,3.160 20.644,3.298 20.785 C 3.646 21.142,3.316 21.120,8.247 21.120 C 11.686 21.120,12.560 21.110,12.560 21.070 C 12.560 21.042,12.254 19.286,11.880 17.167 C 11.506 15.048,11.200 13.307,11.200 13.297 C 11.200 13.260,10.886 13.312,7.020 13.997 " stroke="none" fill-rule="evenodd" fill="black"></path></svg>