<svg viewBox="0 0 24 24" xmlns="http://www.w3.org/2000/svg"><path d="M3.600 3.203 C 3.378 3.304,3.219 3.451,3.106 3.660 L 3.020 3.820 3.009 12.020 C 3.000 18.396,3.008 20.260,3.046 20.399 C 3.080 20.520,3.160 20.644,3.298 20.785 C 3.655 21.151,2.847 21.120,12.000 21.120 C 21.153 21.120,20.345 21.151,20.702 20.785 C 20.840 20.644,20.920 20.520,20.954 20.399 C 20.992 20.260,21.000 18.396,20.991 12.020 L 20.980 3.820 20.894 3.660 C 20.781 3.451,20.622 3.304,20.400 3.203 C 20.221 3.122,20.184 3.122,12.000 3.122 C 3.816 3.122,3.779 3.122,3.600 3.203 M9.760 5.150 C 9.760 5.167,10.003 6.556,10.299 8.237 C 10.596 9.919,10.835 11.297,10.829 11.300 C 10.824 11.303,9.560 11.527,8.020 11.796 C 6.480 12.066,5.170 12.296,5.110 12.308 L 5.000 12.329 5.000 8.725 L 5.000 5.120 7.380 5.120 C 8.689 5.120,9.760 5.134,9.760 5.150 M19.000 12.120 L 19.000 19.120 16.620 19.120 C 15.082 19.120,14.240 19.106,14.240 19.081 C 14.240 19.059,13.691 15.928,13.020 12.123 C 12.349 8.317,11.800 5.185,11.800 5.162 C 11.800 5.133,12.909 5.120,15.400 5.120 L 19.000 5.120 19.000 12.120 M11.200 13.318 C 11.200 13.338,11.425 14.630,11.700 16.187 C 11.975 17.745,12.200 19.042,12.200 19.070 C 12.200 19.110,11.471 19.120,8.600 19.120 L 5.000 19.120 5.000 16.740 C 5.000 15.431,5.005 14.359,5.010 14.358 C 5.016 14.358,6.370 14.116,8.020 13.823 C 9.670 13.529,11.060 13.287,11.110 13.284 C 11.160 13.282,11.200 13.297,11.200 13.318 " stroke="none" fill-rule="evenodd" fill="black"></path></svg>