<svg viewBox="0 0 24 24" xmlns="http://www.w3.org/2000/svg"><path d="M8.597 3.670 C 6.738 5.535,5.100 7.210,4.958 7.393 C 4.521 7.957,4.246 8.395,3.938 9.020 C 2.695 11.539,2.688 14.415,3.918 16.940 C 5.079 19.323,7.240 21.080,9.796 21.719 C 10.632 21.928,11.058 21.978,12.000 21.978 C 12.942 21.978,13.368 21.928,14.204 21.719 C 17.158 20.980,19.576 18.735,20.534 15.840 C 21.495 12.938,20.950 9.854,19.042 7.393 C 18.819 7.105,12.062 0.280,12.000 0.280 C 11.987 0.280,10.456 1.805,8.597 3.670 M14.723 5.830 C 17.634 8.751,17.724 8.853,18.177 9.723 C 18.973 11.250,19.188 12.879,18.815 14.560 C 18.257 17.072,16.307 19.090,13.791 19.758 C 11.867 20.269,9.819 19.937,8.162 18.847 C 5.748 17.258,4.568 14.382,5.161 11.530 C 5.278 10.964,5.454 10.475,5.760 9.860 C 6.254 8.869,6.290 8.828,9.277 5.830 C 10.762 4.340,11.987 3.120,12.000 3.120 C 12.013 3.120,13.238 4.340,14.723 5.830 M7.014 13.370 C 7.100 14.587,7.665 15.768,8.573 16.627 C 10.502 18.450,13.498 18.450,15.427 16.627 C 16.335 15.768,16.900 14.587,16.986 13.370 L 17.012 13.000 12.000 13.000 L 6.988 13.000 7.014 13.370 " stroke="none" fill-rule="evenodd" fill="black"></path></svg>