<svg viewBox="0 0 24 24" xmlns="http://www.w3.org/2000/svg"><path d="M11.280 2.023 C 11.203 2.032,10.969 2.059,10.760 2.083 C 8.610 2.329,6.525 3.351,4.938 4.938 C 4.086 5.790,3.486 6.635,2.977 7.700 C 2.058 9.624,1.778 11.808,2.185 13.897 C 2.959 17.872,6.067 21.005,10.020 21.796 C 10.762 21.944,11.131 21.978,12.000 21.978 C 12.869 21.978,13.238 21.944,13.980 21.796 C 17.908 21.010,21.010 17.905,21.799 13.968 C 22.234 11.798,21.952 9.610,20.980 7.620 C 20.465 6.564,19.900 5.775,19.062 4.939 C 17.499 3.379,15.585 2.421,13.380 2.096 C 12.994 2.039,11.567 1.990,11.280 2.023 M12.766 4.041 C 14.260 4.189,15.700 4.758,16.900 5.674 C 17.239 5.933,17.925 6.606,18.211 6.960 C 19.719 8.826,20.311 11.287,19.822 13.648 C 19.216 16.569,16.940 18.973,14.073 19.719 C 13.264 19.930,12.896 19.976,12.000 19.976 C 11.124 19.976,10.758 19.932,9.982 19.735 C 7.090 19.003,4.788 16.588,4.178 13.648 C 3.689 11.287,4.281 8.826,5.789 6.960 C 6.075 6.606,6.761 5.933,7.100 5.674 C 8.726 4.432,10.770 3.843,12.766 4.041 M15.301 7.189 C 15.127 8.526,14.898 9.324,14.388 10.358 C 13.689 11.777,12.564 13.034,11.200 13.918 C 10.129 14.612,8.698 15.125,7.401 15.279 C 7.193 15.303,7.020 15.327,7.016 15.332 C 6.990 15.361,7.495 15.963,7.790 16.255 C 9.587 18.030,12.260 18.488,14.556 17.415 C 15.718 16.873,16.780 15.834,17.367 14.667 C 17.574 14.255,17.818 13.520,17.908 13.040 C 18.014 12.472,18.003 11.397,17.886 10.850 C 17.553 9.292,16.749 8.039,15.493 7.119 L 15.325 6.997 15.301 7.189 " stroke="none" fill-rule="evenodd" fill="black"></path></svg>