<svg viewBox="0 0 24 24" xmlns="http://www.w3.org/2000/svg"><path d="M11.280 2.023 C 11.203 2.032,10.969 2.059,10.760 2.083 C 8.610 2.329,6.525 3.351,4.938 4.938 C 4.086 5.790,3.486 6.635,2.977 7.700 C 2.058 9.624,1.778 11.808,2.185 13.897 C 2.959 17.872,6.067 21.005,10.020 21.796 C 10.762 21.944,11.131 21.978,12.000 21.978 C 12.869 21.978,13.238 21.944,13.980 21.796 C 17.908 21.010,21.010 17.905,21.799 13.968 C 22.234 11.798,21.952 9.610,20.980 7.620 C 20.465 6.564,19.900 5.775,19.062 4.939 C 17.499 3.379,15.585 2.421,13.380 2.096 C 12.994 2.039,11.567 1.990,11.280 2.023 M12.000 12.006 L 12.000 20.012 11.570 19.986 C 8.606 19.805,6.044 18.081,4.773 15.412 C 3.899 13.579,3.770 11.407,4.419 9.452 C 4.693 8.626,5.224 7.659,5.789 6.960 C 6.075 6.606,6.761 5.933,7.100 5.674 C 8.436 4.654,10.149 4.039,11.750 4.005 L 12.000 4.000 12.000 12.006 " stroke="none" fill-rule="evenodd" fill="black"></path></svg>