<svg viewBox="0 0 24 24" xmlns="http://www.w3.org/2000/svg"><path d="M8.575 3.690 C 5.024 7.249,4.854 7.435,4.309 8.320 C 3.844 9.076,3.395 10.202,3.203 11.092 C 2.335 15.121,4.327 19.243,8.020 21.062 C 9.325 21.705,10.509 21.978,12.000 21.978 C 12.909 21.978,13.413 21.919,14.204 21.720 C 17.395 20.917,19.909 18.402,20.721 15.201 C 20.889 14.542,20.959 14.038,20.987 13.300 C 21.068 11.185,20.393 9.135,19.042 7.393 C 18.819 7.105,12.062 0.280,12.000 0.280 C 11.987 0.280,10.446 1.814,8.575 3.690 M14.723 5.830 C 17.710 8.828,17.746 8.869,18.240 9.860 C 18.547 10.476,18.722 10.965,18.839 11.530 C 18.915 11.895,19.000 12.600,19.000 12.864 L 19.000 13.000 12.000 13.000 L 5.000 13.000 5.000 12.838 C 5.000 12.570,5.080 11.923,5.162 11.523 C 5.277 10.966,5.495 10.363,5.785 9.800 C 6.273 8.852,6.326 8.792,9.277 5.830 C 10.762 4.340,11.987 3.120,12.000 3.120 C 12.013 3.120,13.238 4.340,14.723 5.830 " stroke="none" fill-rule="evenodd" fill="black"></path></svg>