<svg viewBox="0 0 24 24" xmlns="http://www.w3.org/2000/svg"><path d="M5.000 3.500 L 5.000 5.000 3.500 5.000 L 2.000 5.000 2.000 6.000 L 2.000 7.000 3.500 7.000 L 5.000 7.000 5.000 12.570 C 5.000 16.284,5.014 18.190,5.042 18.289 C 5.104 18.512,5.316 18.763,5.539 18.878 L 5.738 18.980 10.369 18.990 L 15.000 19.001 15.000 18.000 L 15.000 17.000 11.000 17.000 L 7.000 17.000 7.000 9.500 L 7.000 2.000 6.000 2.000 L 5.000 2.000 5.000 3.500 M18.860 3.720 L 17.580 5.000 13.290 5.000 L 9.000 5.000 9.000 6.000 L 9.000 7.000 13.000 7.000 L 17.000 7.000 17.000 14.500 L 17.000 22.000 18.000 22.000 L 19.000 22.000 19.000 20.500 L 19.000 19.000 20.500 19.000 L 22.000 19.000 22.000 18.000 L 22.000 17.000 20.500 17.000 L 19.000 17.000 19.000 11.710 L 19.000 6.420 20.280 5.140 L 21.560 3.859 20.850 3.150 L 20.139 2.440 18.860 3.720 M9.000 12.000 L 9.000 15.000 12.000 15.000 L 15.000 15.000 15.000 12.000 L 15.000 9.000 12.000 9.000 L 9.000 9.000 9.000 12.000 " stroke="none" fill-rule="evenodd" fill="black"></path></svg>