<svg viewBox="0 0 24 24" xmlns="http://www.w3.org/2000/svg"><path d="M5.000 3.500 L 5.000 5.000 3.500 5.000 L 2.000 5.000 2.000 6.000 L 2.000 7.000 3.499 7.000 L 4.999 7.000 5.009 12.650 L 5.020 18.300 5.131 18.489 C 5.192 18.592,5.301 18.723,5.374 18.778 C 5.681 19.012,5.350 19.000,11.425 19.000 L 17.000 19.000 17.000 20.500 L 17.000 22.000 18.000 22.000 L 19.000 22.000 19.000 20.500 L 19.000 19.000 20.500 19.000 L 22.000 19.000 22.000 18.000 L 22.000 17.000 20.500 17.000 L 19.000 17.000 19.000 11.427 C 19.000 5.166,19.022 5.620,18.701 5.299 C 18.380 4.978,18.834 5.000,12.573 5.000 L 7.000 5.000 7.000 3.500 L 7.000 2.000 6.000 2.000 L 5.000 2.000 5.000 3.500 " stroke="none" fill-rule="evenodd" fill="black"></path></svg>