<svg viewBox="0 0 24 24" xmlns="http://www.w3.org/2000/svg"><path d="M11.280 2.026 C 10.300 2.120,9.629 2.256,8.820 2.526 C 7.344 3.017,6.061 3.814,4.938 4.938 C 4.086 5.790,3.486 6.635,2.977 7.700 C 2.058 9.624,1.778 11.808,2.185 13.897 C 2.959 17.872,6.067 21.005,10.020 21.796 C 10.762 21.944,11.131 21.978,12.000 21.978 C 12.869 21.978,13.238 21.944,13.980 21.796 C 16.485 21.295,18.715 19.832,20.194 17.720 C 21.980 15.169,22.471 11.919,21.518 8.940 C 21.315 8.304,20.924 7.402,20.849 7.398 C 20.833 7.397,20.494 7.734,20.095 8.147 L 19.370 8.897 19.448 9.079 C 19.594 9.418,19.792 10.139,19.884 10.660 C 20.002 11.332,20.013 12.592,19.906 13.220 C 19.677 14.567,19.189 15.724,18.408 16.773 C 16.398 19.475,12.875 20.633,9.677 19.645 C 8.410 19.253,7.391 18.653,6.445 17.741 C 3.835 15.225,3.253 11.259,5.030 8.089 C 5.376 7.471,5.730 6.996,6.240 6.466 C 6.952 5.727,7.631 5.233,8.529 4.800 C 10.438 3.879,12.530 3.750,14.574 4.428 L 15.128 4.612 15.870 3.870 L 16.612 3.127 16.369 3.004 C 15.421 2.526,14.111 2.162,12.903 2.043 C 12.501 2.003,11.614 1.994,11.280 2.026 M15.870 6.710 L 11.280 11.300 11.280 12.010 L 11.280 12.720 11.990 12.720 L 12.700 12.720 17.300 8.120 L 21.900 3.520 21.200 2.820 C 20.816 2.435,20.492 2.120,20.480 2.120 C 20.469 2.120,18.394 4.186,15.870 6.710 " stroke="none" fill-rule="evenodd" fill="black"></path></svg>