<svg viewBox="0 0 24 24" xmlns="http://www.w3.org/2000/svg"><path d="M14.820 1.979 C 14.732 2.012,14.651 2.039,14.640 2.039 C 14.630 2.040,12.006 4.654,8.810 7.850 L 3.000 13.660 3.000 15.770 L 3.000 17.880 5.130 17.880 L 7.260 17.880 13.028 12.110 C 17.546 7.591,18.814 6.301,18.877 6.160 C 18.923 6.058,18.959 5.893,18.959 5.780 C 18.960 5.336,19.004 5.391,17.307 3.687 C 16.400 2.777,15.674 2.080,15.583 2.033 C 15.377 1.926,15.027 1.901,14.820 1.979 M15.870 5.050 L 16.560 5.740 11.490 10.810 L 6.420 15.880 5.710 15.880 L 5.000 15.880 5.000 15.170 L 5.000 14.460 10.050 9.410 C 12.827 6.633,15.118 4.360,15.140 4.360 C 15.161 4.360,15.490 4.670,15.870 5.050 M3.000 20.880 L 3.000 21.880 12.000 21.880 L 21.000 21.880 21.000 20.880 L 21.000 19.880 12.000 19.880 L 3.000 19.880 3.000 20.880 " stroke="none" fill-rule="evenodd" fill="black"></path></svg>