<svg viewBox="0 0 24 24" xmlns="http://www.w3.org/2000/svg"><path d="M12.560 2.235 C 12.505 2.253,12.406 2.296,12.340 2.331 C 12.274 2.366,9.769 4.848,6.774 7.847 C 0.934 13.695,1.234 13.374,1.228 13.795 C 1.223 14.212,1.076 14.047,4.674 17.650 L 8.019 21.000 14.510 21.000 L 21.000 21.000 21.000 20.000 L 21.000 19.000 17.490 19.000 L 13.981 19.000 17.744 15.230 C 21.014 11.954,21.513 11.438,21.554 11.295 C 21.618 11.068,21.612 10.850,21.535 10.617 C 21.476 10.436,21.137 10.087,17.445 6.396 C 14.632 3.584,13.372 2.350,13.260 2.299 C 13.084 2.218,12.716 2.184,12.560 2.235 M16.010 7.790 C 17.742 9.522,19.160 10.958,19.160 10.980 C 19.160 11.002,18.534 11.646,17.770 12.410 L 16.380 13.800 13.201 10.621 L 10.022 7.442 10.160 7.291 C 10.518 6.899,12.784 4.640,12.820 4.640 C 12.842 4.640,14.277 6.057,16.010 7.790 M11.770 12.030 C 13.502 13.762,14.920 15.198,14.920 15.220 C 14.920 15.242,14.079 16.101,13.050 17.130 L 11.180 19.000 10.000 19.000 L 8.820 19.000 6.230 16.410 L 3.640 13.820 6.110 11.350 C 7.468 9.992,8.589 8.880,8.600 8.880 C 8.611 8.880,10.037 10.297,11.770 12.030 " stroke="none" fill-rule="evenodd" fill="black"></path></svg>