<svg viewBox="0 0 24 24" xmlns="http://www.w3.org/2000/svg"><path d="M11.120 2.039 C 8.641 2.287,6.414 3.362,4.761 5.107 C 1.806 8.228,1.158 12.819,3.137 16.623 C 3.620 17.552,4.164 18.288,4.938 19.061 C 5.930 20.051,7.038 20.789,8.272 21.278 C 11.634 22.610,15.313 22.080,18.200 19.845 C 18.637 19.507,19.507 18.637,19.845 18.200 C 21.256 16.378,22.000 14.236,22.000 12.000 C 22.000 7.432,18.842 3.387,14.430 2.303 C 13.446 2.062,12.028 1.948,11.120 2.039 M12.740 4.041 C 15.525 4.302,17.953 5.983,19.182 8.500 C 20.655 11.514,20.091 15.104,17.765 17.530 C 16.248 19.111,14.175 19.999,12.000 19.999 C 8.235 19.999,4.948 17.331,4.177 13.648 C 3.426 10.057,5.201 6.431,8.501 4.817 C 9.822 4.170,11.277 3.904,12.740 4.041 M11.200 6.058 C 10.483 6.161,9.933 6.332,9.320 6.640 C 7.658 7.475,6.527 8.951,6.111 10.830 C 5.986 11.395,5.986 12.605,6.111 13.170 C 6.651 15.608,8.393 17.350,10.826 17.887 C 11.397 18.013,12.603 18.013,13.174 17.887 C 15.605 17.351,17.351 15.605,17.887 13.174 C 18.013 12.603,18.013 11.397,17.887 10.826 C 17.341 8.351,15.474 6.529,13.041 6.097 C 12.552 6.010,11.660 5.991,11.200 6.058 M12.958 8.120 C 13.621 8.282,14.329 8.683,14.823 9.177 C 15.321 9.675,15.716 10.376,15.887 11.062 C 16.013 11.571,16.013 12.429,15.887 12.938 C 15.531 14.369,14.434 15.486,13.005 15.871 C 12.669 15.962,12.542 15.975,12.000 15.975 C 11.458 15.975,11.331 15.962,10.995 15.871 C 10.054 15.617,9.240 15.046,8.712 14.269 C 8.471 13.913,8.214 13.341,8.113 12.938 C 7.987 12.429,7.987 11.571,8.113 11.062 C 8.215 10.654,8.470 10.088,8.722 9.715 C 9.304 8.853,10.337 8.215,11.433 8.040 C 11.783 7.984,12.572 8.026,12.958 8.120 M11.580 10.047 C 10.707 10.214,10.000 11.087,10.000 12.000 C 10.000 12.920,10.690 13.768,11.592 13.956 C 12.816 14.211,14.000 13.249,14.000 12.000 C 14.000 11.477,13.790 10.983,13.404 10.596 C 12.913 10.106,12.277 9.914,11.580 10.047 " stroke="none" fill-rule="evenodd" fill="black"></path></svg>