<svg viewBox="0 0 24 24" xmlns="http://www.w3.org/2000/svg"><path d="M3.664 3.063 C 3.436 3.146,3.257 3.297,3.131 3.511 L 3.020 3.700 3.020 12.000 L 3.020 20.300 3.131 20.489 C 3.192 20.592,3.301 20.723,3.374 20.778 C 3.684 21.015,3.106 21.000,11.998 21.000 C 21.144 21.000,20.376 21.026,20.701 20.701 C 21.026 20.376,21.000 21.144,21.000 12.000 C 21.000 2.856,21.026 3.624,20.701 3.299 C 20.376 2.973,21.147 3.000,11.983 3.003 C 5.003 3.005,3.797 3.014,3.664 3.063 M8.000 6.500 L 8.000 8.000 6.500 8.000 L 5.000 8.000 5.000 6.500 L 5.000 5.000 6.500 5.000 L 8.000 5.000 8.000 6.500 M14.000 6.500 L 14.000 8.000 12.000 8.000 L 10.000 8.000 10.000 6.500 L 10.000 5.000 12.000 5.000 L 14.000 5.000 14.000 6.500 M19.000 6.500 L 19.000 8.000 17.500 8.000 L 16.000 8.000 16.000 6.500 L 16.000 5.000 17.500 5.000 L 19.000 5.000 19.000 6.500 M8.000 12.000 L 8.000 14.000 6.500 14.000 L 5.000 14.000 5.000 12.000 L 5.000 10.000 6.500 10.000 L 8.000 10.000 8.000 12.000 M14.000 12.000 L 14.000 14.000 12.000 14.000 L 10.000 14.000 10.000 12.000 L 10.000 10.000 12.000 10.000 L 14.000 10.000 14.000 12.000 M19.000 12.000 L 19.000 14.000 17.500 14.000 L 16.000 14.000 16.000 12.000 L 16.000 10.000 17.500 10.000 L 19.000 10.000 19.000 12.000 M8.000 17.500 L 8.000 19.000 6.500 19.000 L 5.000 19.000 5.000 17.500 L 5.000 16.000 6.500 16.000 L 8.000 16.000 8.000 17.500 M14.000 17.500 L 14.000 19.000 12.000 19.000 L 10.000 19.000 10.000 17.500 L 10.000 16.000 12.000 16.000 L 14.000 16.000 14.000 17.500 M19.000 17.500 L 19.000 19.000 17.500 19.000 L 16.000 19.000 16.000 17.500 L 16.000 16.000 17.500 16.000 L 19.000 16.000 19.000 17.500 " stroke="none" fill-rule="evenodd" fill="black"></path></svg>