<svg viewBox="0 0 24 24" xmlns="http://www.w3.org/2000/svg"><path d="M5.720 3.623 C 4.191 4.515,2.879 5.302,2.805 5.372 C 2.731 5.443,2.632 5.581,2.585 5.680 C 2.506 5.847,2.499 5.937,2.487 6.930 L 2.474 8.000 5.737 8.000 L 9.000 8.000 9.000 15.070 C 9.000 19.817,9.014 22.189,9.042 22.289 C 9.104 22.512,9.316 22.763,9.539 22.878 L 9.738 22.980 11.936 22.991 C 14.429 23.003,14.395 23.007,14.700 22.702 C 15.028 22.374,15.000 23.379,15.000 12.073 L 15.000 2.000 11.750 2.000 L 8.500 2.001 5.720 3.623 M17.000 5.000 L 17.000 8.000 18.573 8.000 C 20.362 8.000,20.409 7.994,20.701 7.701 C 21.003 7.399,21.000 7.427,21.000 5.000 C 21.000 2.573,21.003 2.601,20.701 2.299 C 20.409 2.006,20.362 2.000,18.573 2.000 L 17.000 2.000 17.000 5.000 " stroke="none" fill-rule="evenodd" fill="black"></path></svg>