<svg viewBox="0 0 24 24" xmlns="http://www.w3.org/2000/svg"><path d="M3.664 3.063 C 3.436 3.146,3.257 3.297,3.131 3.511 L 3.020 3.700 3.020 12.000 L 3.020 20.300 3.131 20.489 C 3.192 20.592,3.301 20.723,3.374 20.778 C 3.684 21.015,3.106 21.000,11.998 21.000 C 21.144 21.000,20.376 21.026,20.701 20.701 C 21.026 20.376,21.000 21.144,21.000 12.000 C 21.000 2.856,21.026 3.624,20.701 3.299 C 20.376 2.973,21.147 3.000,11.983 3.003 C 5.003 3.005,3.797 3.014,3.664 3.063 M15.084 12.000 C 16.225 14.739,17.159 16.985,17.160 16.991 C 17.160 16.996,16.661 16.996,16.051 16.991 L 14.943 16.980 14.541 15.991 L 14.140 15.001 12.000 15.011 L 9.861 15.020 9.458 16.000 L 9.056 16.980 7.943 16.991 C 7.058 16.999,6.835 16.991,6.852 16.951 C 6.863 16.923,7.785 14.713,8.900 12.040 C 10.015 9.367,10.943 7.139,10.963 7.089 L 10.999 6.999 12.003 7.009 L 13.008 7.020 15.084 12.000 M11.338 11.410 L 10.695 12.980 11.348 12.991 C 11.706 12.997,12.294 12.997,12.653 12.991 L 13.305 12.980 12.663 11.410 C 12.309 10.547,12.011 9.841,12.000 9.841 C 11.989 9.841,11.691 10.547,11.338 11.410 " stroke="none" fill-rule="evenodd" fill="black"></path></svg>