<svg viewBox="0 0 24 24" xmlns="http://www.w3.org/2000/svg"><path d="M3.664 3.063 C 3.436 3.146,3.257 3.297,3.131 3.511 L 3.020 3.700 3.009 7.350 L 2.998 11.000 6.999 11.000 L 11.000 11.000 11.000 7.000 L 11.000 3.000 7.410 3.003 C 4.399 3.005,3.795 3.015,3.664 3.063 M13.000 12.000 L 13.000 21.000 16.573 21.000 C 20.595 21.000,20.387 21.015,20.701 20.701 C 21.026 20.376,21.000 21.144,21.000 12.000 C 21.000 2.856,21.026 3.624,20.701 3.299 C 20.387 2.985,20.595 3.000,16.573 3.000 L 13.000 3.000 13.000 12.000 M3.009 16.650 L 3.020 20.300 3.131 20.489 C 3.192 20.592,3.301 20.723,3.374 20.778 C 3.675 21.008,3.538 21.000,7.425 21.000 L 11.000 21.000 11.000 17.000 L 11.000 13.000 6.999 13.000 L 2.998 13.000 3.009 16.650 " stroke="none" fill-rule="evenodd" fill="black"></path></svg>