<svg viewBox="0 0 24 24" xmlns="http://www.w3.org/2000/svg"><path d="M3.664 3.063 C 3.436 3.146,3.257 3.297,3.131 3.511 L 3.020 3.700 3.010 11.914 C 3.003 17.490,3.013 20.178,3.041 20.283 C 3.102 20.509,3.313 20.761,3.539 20.878 L 3.738 20.980 7.369 20.991 L 11.000 21.001 11.000 12.001 L 11.000 3.000 7.410 3.003 C 4.399 3.005,3.795 3.015,3.664 3.063 M13.000 7.000 L 13.000 11.000 17.000 11.000 L 21.000 11.000 21.000 7.427 C 21.000 3.405,21.015 3.613,20.701 3.299 C 20.387 2.985,20.595 3.000,16.573 3.000 L 13.000 3.000 13.000 7.000 M13.000 17.000 L 13.000 21.000 16.573 21.000 C 20.595 21.000,20.387 21.015,20.701 20.701 C 21.015 20.387,21.000 20.595,21.000 16.573 L 21.000 13.000 17.000 13.000 L 13.000 13.000 13.000 17.000 " stroke="none" fill-rule="evenodd" fill="black"></path></svg>