<svg viewBox="0 0 24 24" xmlns="http://www.w3.org/2000/svg"><path d="M2.664 3.063 C 2.436 3.146,2.257 3.297,2.131 3.511 L 2.020 3.700 2.009 8.850 L 1.999 14.000 6.499 14.000 L 11.000 14.000 11.000 8.500 L 11.000 3.000 6.910 3.003 C 3.465 3.005,2.795 3.015,2.664 3.063 M13.000 5.500 L 13.000 8.000 17.500 8.000 L 22.000 8.000 22.000 5.927 C 22.000 3.581,22.002 3.600,21.701 3.299 C 21.385 2.983,21.654 3.000,17.073 3.000 L 13.000 3.000 13.000 5.500 M13.000 15.500 L 13.000 21.000 17.073 21.000 C 21.654 21.000,21.385 21.017,21.701 20.701 C 22.021 20.381,22.000 20.774,22.000 15.073 L 22.000 10.000 17.500 10.000 L 13.000 10.000 13.000 15.500 M2.009 18.150 L 2.020 20.300 2.131 20.489 C 2.192 20.592,2.301 20.723,2.374 20.778 C 2.677 21.009,2.491 21.000,6.925 21.000 L 11.000 21.000 11.000 18.500 L 11.000 16.000 6.499 16.000 L 1.997 16.000 2.009 18.150 " stroke="none" fill-rule="evenodd" fill="black"></path></svg>