<svg viewBox="0 0 24 24" xmlns="http://www.w3.org/2000/svg"><path d="M3.664 3.063 C 3.436 3.146,3.257 3.297,3.131 3.511 L 3.020 3.700 3.009 5.850 L 2.997 8.000 11.999 8.000 L 21.000 8.000 21.000 5.927 C 21.000 3.581,21.002 3.600,20.701 3.299 C 20.376 2.973,21.147 3.000,11.983 3.003 C 5.003 3.005,3.797 3.014,3.664 3.063 M3.000 15.070 C 3.000 18.439,3.014 20.190,3.042 20.289 C 3.104 20.512,3.316 20.763,3.539 20.878 L 3.738 20.980 5.869 20.991 L 8.000 21.002 8.000 15.501 L 8.000 10.000 5.500 10.000 L 3.000 10.000 3.000 15.070 M10.000 15.500 L 10.000 21.000 15.073 21.000 C 20.774 21.000,20.381 21.021,20.701 20.701 C 21.021 20.381,21.000 20.774,21.000 15.073 L 21.000 10.000 15.500 10.000 L 10.000 10.000 10.000 15.500 " stroke="none" fill-rule="evenodd" fill="black"></path></svg>