<svg viewBox="0 0 24 24" xmlns="http://www.w3.org/2000/svg"><path d="M12.600 3.801 C 11.313 4.503,10.206 5.088,10.140 5.101 C 10.066 5.116,9.030 4.940,7.435 4.642 C 6.013 4.377,4.789 4.160,4.715 4.160 C 4.434 4.160,4.160 4.441,4.160 4.728 C 4.160 4.810,4.377 6.042,4.643 7.465 C 4.926 8.986,5.115 10.095,5.100 10.154 C 5.086 10.208,4.498 11.312,3.793 12.607 L 2.510 14.960 2.528 15.180 C 2.548 15.415,2.640 15.556,2.845 15.662 C 2.903 15.693,4.119 15.870,5.583 16.061 C 7.126 16.263,8.261 16.430,8.326 16.463 C 8.387 16.494,9.244 17.371,10.232 18.410 C 11.220 19.450,12.065 20.333,12.111 20.374 C 12.320 20.558,12.729 20.517,12.911 20.292 C 12.962 20.231,13.508 19.118,14.125 17.820 C 14.785 16.432,15.290 15.416,15.353 15.353 C 15.416 15.290,16.432 14.785,17.820 14.125 C 19.118 13.508,20.231 12.962,20.292 12.911 C 20.447 12.785,20.534 12.519,20.482 12.327 C 20.435 12.153,20.247 11.964,18.050 9.884 C 17.208 9.087,16.493 8.385,16.462 8.324 C 16.429 8.259,16.263 7.125,16.060 5.577 C 15.805 3.622,15.697 2.909,15.646 2.820 C 15.537 2.634,15.338 2.520,15.124 2.522 C 14.959 2.523,14.694 2.657,12.600 3.801 M16.720 16.740 L 16.021 17.440 18.140 19.560 L 20.259 21.680 20.970 20.970 L 21.680 20.261 19.570 18.150 C 18.410 16.990,17.451 16.040,17.440 16.040 C 17.428 16.040,17.104 16.355,16.720 16.740 " stroke="none" fill-rule="evenodd" fill="black"></path></svg>