<svg viewBox="0 0 24 24" xmlns="http://www.w3.org/2000/svg"><path d="M11.280 2.023 C 11.203 2.032,10.969 2.059,10.760 2.083 C 8.610 2.329,6.525 3.351,4.938 4.938 C 4.086 5.790,3.486 6.635,2.977 7.700 C 2.058 9.624,1.778 11.808,2.185 13.897 C 2.959 17.872,6.067 21.005,10.020 21.796 C 10.762 21.944,11.131 21.978,12.000 21.978 C 12.869 21.978,13.238 21.944,13.980 21.796 C 17.908 21.010,21.010 17.905,21.799 13.968 C 22.234 11.798,21.952 9.610,20.980 7.620 C 20.465 6.564,19.900 5.775,19.062 4.939 C 17.499 3.379,15.585 2.421,13.380 2.096 C 12.994 2.039,11.567 1.990,11.280 2.023 M12.766 4.041 C 13.730 4.137,14.643 4.396,15.500 4.816 C 16.397 5.257,17.045 5.728,17.743 6.446 C 18.900 7.637,19.614 9.066,19.906 10.780 C 20.000 11.334,20.000 12.665,19.906 13.220 C 19.595 15.048,18.794 16.563,17.474 17.818 C 17.252 18.029,17.064 18.197,17.057 18.191 C 17.051 18.184,16.730 16.920,16.345 15.382 C 15.573 12.298,15.600 12.374,15.222 12.141 C 15.035 12.026,15.003 12.019,14.513 12.006 L 14.000 11.992 14.000 11.246 L 14.000 10.501 13.475 8.660 C 13.186 7.648,12.917 6.755,12.877 6.676 C 12.791 6.506,12.558 6.292,12.374 6.215 C 12.302 6.185,12.131 6.160,11.994 6.160 C 11.682 6.160,11.457 6.263,11.246 6.502 C 11.098 6.671,11.071 6.753,10.546 8.589 L 10.000 10.501 10.000 11.246 L 10.000 11.992 9.487 12.006 C 8.997 12.019,8.965 12.026,8.778 12.141 C 8.400 12.374,8.427 12.298,7.655 15.382 C 7.270 16.920,6.949 18.184,6.943 18.191 C 6.917 18.217,6.106 17.415,5.862 17.122 C 3.740 14.578,3.409 10.982,5.030 8.089 C 5.371 7.480,5.727 6.999,6.216 6.491 C 6.938 5.739,7.581 5.268,8.500 4.816 C 9.820 4.168,11.310 3.897,12.766 4.041 M14.600 16.641 C 15.165 18.904,15.251 19.288,15.200 19.321 C 15.056 19.412,14.458 19.617,13.964 19.744 C 12.663 20.079,11.337 20.079,10.036 19.744 C 9.542 19.617,8.944 19.412,8.800 19.321 C 8.749 19.288,8.835 18.904,9.400 16.641 L 10.059 14.000 12.000 14.000 L 13.941 14.000 14.600 16.641 " stroke="none" fill-rule="evenodd" fill="black"></path></svg>