<svg viewBox="0 0 24 24" xmlns="http://www.w3.org/2000/svg"><path d="M14.820 2.197 C 14.710 2.249,13.425 3.510,10.694 6.246 L 6.728 10.220 6.386 11.256 L 6.045 12.292 5.266 13.076 C 4.422 13.926,4.356 14.022,4.355 14.407 C 4.353 14.855,4.320 14.817,6.752 17.248 C 8.452 18.948,9.023 19.495,9.160 19.557 C 9.401 19.666,9.760 19.665,10.000 19.557 C 10.125 19.500,10.420 19.238,10.960 18.702 L 11.740 17.929 12.781 17.585 L 13.821 17.240 17.806 13.250 C 22.110 8.941,21.897 9.176,21.893 8.739 C 21.889 8.303,21.957 8.380,18.788 5.212 C 16.532 2.956,15.819 2.265,15.680 2.203 C 15.443 2.096,15.041 2.093,14.820 2.197 M14.900 10.520 L 11.720 13.700 11.010 12.990 L 10.300 12.280 13.480 9.100 L 16.660 5.920 17.370 6.630 L 18.080 7.340 14.900 10.520 M2.865 18.315 C 2.098 19.082,1.486 19.719,1.505 19.729 C 1.524 19.740,2.474 20.060,3.615 20.440 L 5.690 21.130 6.395 20.425 L 7.100 19.720 5.700 18.320 C 4.930 17.550,4.291 16.920,4.280 16.920 C 4.269 16.920,3.632 17.548,2.865 18.315 " stroke="none" fill-rule="evenodd" fill="black"></path></svg>