<svg viewBox="0 0 24 24" xmlns="http://www.w3.org/2000/svg"><path d="M16.043 1.950 C 15.800 2.074,15.770 2.155,15.647 3.007 L 15.534 3.795 18.357 6.617 C 20.595 8.855,21.201 9.440,21.280 9.440 C 21.335 9.439,21.704 9.386,22.100 9.322 C 22.814 9.205,22.821 9.203,22.950 9.063 C 23.059 8.945,23.080 8.890,23.080 8.731 L 23.080 8.541 19.810 5.267 C 17.910 3.364,16.486 1.968,16.411 1.936 C 16.246 1.864,16.209 1.866,16.043 1.950 M10.800 5.589 C 9.139 5.776,7.769 5.946,7.756 5.968 C 7.742 5.989,7.709 6.109,7.682 6.233 C 7.395 7.554,6.764 10.014,6.393 11.260 C 5.439 14.465,4.315 16.735,2.710 18.699 C 2.584 18.853,2.480 18.989,2.480 19.001 C 2.480 19.012,2.714 19.255,3.000 19.540 L 3.521 20.059 6.439 17.140 L 9.358 14.220 9.322 13.973 C 9.177 12.958,9.874 11.965,10.877 11.756 C 11.185 11.692,11.728 11.731,12.000 11.836 C 12.731 12.119,13.224 12.789,13.270 13.560 C 13.308 14.200,13.127 14.680,12.683 15.121 C 12.237 15.563,11.627 15.776,11.061 15.687 L 10.780 15.643 7.860 18.561 L 4.940 21.480 5.467 22.006 L 5.993 22.533 6.447 22.171 C 7.402 21.408,8.341 20.810,9.476 20.242 C 11.522 19.218,13.742 18.500,17.957 17.501 C 18.559 17.359,19.057 17.237,19.064 17.230 C 19.070 17.223,19.234 15.791,19.428 14.048 L 19.779 10.879 16.960 8.060 L 14.140 5.240 13.980 5.245 C 13.892 5.247,12.461 5.402,10.800 5.589 " stroke="none" fill-rule="evenodd" fill="black"></path></svg>