<svg viewBox="0 0 24 24" xmlns="http://www.w3.org/2000/svg"><path d="M16.720 3.123 C 16.591 3.182,16.231 3.513,15.420 4.322 L 14.300 5.439 16.420 7.559 L 18.540 9.680 19.674 8.550 C 20.405 7.822,20.835 7.363,20.883 7.260 C 20.995 7.023,20.985 6.666,20.861 6.418 C 20.720 6.136,17.819 3.239,17.560 3.123 C 17.320 3.014,16.960 3.015,16.720 3.123 M7.930 11.810 L 3.000 16.740 3.000 18.870 L 3.000 21.000 5.110 21.000 L 7.220 21.000 12.180 16.040 L 17.140 11.080 15.040 8.980 C 13.885 7.825,12.922 6.880,12.900 6.880 C 12.878 6.880,10.641 9.099,7.930 11.810 " stroke="none" fill-rule="evenodd" fill="black"></path></svg>