<svg viewBox="0 0 24 24" xmlns="http://www.w3.org/2000/svg"><path d="M5.329 2.057 C 4.272 2.259,3.425 2.777,2.801 3.605 C 1.729 5.028,1.740 6.967,2.828 8.418 C 3.965 9.932,6.073 10.428,7.763 9.578 L 8.026 9.446 9.303 10.723 L 10.580 12.000 9.302 13.278 L 8.024 14.557 7.901 14.481 C 7.710 14.363,7.210 14.173,6.880 14.093 C 6.439 13.986,5.457 13.997,5.029 14.113 C 3.484 14.532,2.401 15.681,2.077 17.248 C 2.007 17.586,1.996 17.746,2.013 18.140 C 2.041 18.758,2.149 19.183,2.420 19.740 C 3.029 20.991,4.199 21.815,5.589 21.970 C 7.318 22.163,9.048 21.125,9.696 19.505 C 9.923 18.939,9.973 18.668,9.975 18.000 C 9.977 17.445,9.966 17.339,9.868 16.984 C 9.808 16.767,9.690 16.449,9.606 16.278 L 9.453 15.967 15.508 9.913 L 21.563 3.860 21.424 3.737 C 20.833 3.220,19.872 3.131,19.162 3.527 C 18.993 3.622,18.110 4.479,15.470 7.115 L 12.000 10.578 11.697 10.279 C 11.530 10.115,10.962 9.535,10.434 8.992 L 9.474 8.004 9.594 7.752 C 10.065 6.760,10.122 5.685,9.759 4.643 C 9.327 3.406,8.255 2.445,6.940 2.115 C 6.520 2.010,5.726 1.982,5.329 2.057 M6.408 4.044 C 6.776 4.121,7.117 4.310,7.404 4.596 C 8.508 5.700,7.987 7.547,6.462 7.939 C 5.675 8.141,4.803 7.798,4.349 7.109 C 3.814 6.296,3.914 5.278,4.596 4.597 C 5.090 4.105,5.743 3.906,6.408 4.044 M2.000 12.000 L 2.000 13.000 3.000 13.000 L 4.000 13.000 4.000 12.000 L 4.000 11.000 3.000 11.000 L 2.000 11.000 2.000 12.000 M6.000 12.000 L 6.000 13.000 7.000 13.000 L 8.000 13.000 8.000 12.000 L 8.000 11.000 7.000 11.000 L 6.000 11.000 6.000 12.000 M16.000 12.000 L 16.000 13.000 17.000 13.000 L 18.000 13.000 18.000 12.000 L 18.000 11.000 17.000 11.000 L 16.000 11.000 16.000 12.000 M20.000 12.000 L 20.000 13.000 21.000 13.000 L 22.000 13.000 22.000 12.000 L 22.000 11.000 21.000 11.000 L 20.000 11.000 20.000 12.000 M14.089 14.131 L 13.399 14.822 16.190 17.603 C 19.193 20.596,19.096 20.512,19.665 20.660 C 20.240 20.810,20.885 20.672,21.382 20.293 L 21.569 20.149 18.215 16.795 C 16.370 14.950,14.842 13.440,14.820 13.440 C 14.797 13.440,14.469 13.751,14.089 14.131 M6.408 16.044 C 6.776 16.121,7.117 16.310,7.404 16.596 C 8.508 17.700,7.987 19.547,6.462 19.939 C 5.675 20.141,4.803 19.798,4.349 19.109 C 3.814 18.296,3.914 17.278,4.596 16.597 C 5.090 16.105,5.743 15.906,6.408 16.044 " stroke="none" fill-rule="evenodd" fill="black"></path></svg>