<svg viewBox="0 0 24 24" xmlns="http://www.w3.org/2000/svg"><path d="M4.453 3.252 C 3.817 3.909,3.639 4.269,3.641 4.897 C 3.642 5.281,3.683 5.478,3.826 5.789 C 3.920 5.992,4.287 6.375,6.906 9.000 L 9.880 11.981 8.710 13.143 L 7.540 14.305 7.271 14.213 C 6.120 13.818,4.818 13.994,3.760 14.687 C 3.413 14.914,2.903 15.430,2.661 15.800 C 1.455 17.641,1.974 20.140,3.813 21.339 C 5.274 22.291,7.140 22.194,8.515 21.095 C 9.809 20.059,10.324 18.268,9.779 16.702 L 9.681 16.420 10.840 15.260 L 12.000 14.100 13.159 15.260 L 14.318 16.420 14.203 16.760 C 13.908 17.637,13.944 18.606,14.304 19.505 C 14.984 21.207,16.853 22.255,18.645 21.941 C 20.125 21.682,21.310 20.669,21.781 19.260 C 22.098 18.310,22.061 17.344,21.671 16.420 C 20.870 14.525,18.686 13.553,16.716 14.213 L 16.444 14.305 15.282 13.142 L 14.120 11.980 17.059 9.041 C 20.160 5.940,20.145 5.957,20.296 5.443 C 20.392 5.115,20.379 4.599,20.266 4.280 C 20.132 3.902,19.998 3.712,19.515 3.220 L 19.083 2.780 15.541 6.320 L 12.000 9.860 8.470 6.330 C 6.528 4.388,4.929 2.800,4.915 2.800 C 4.902 2.800,4.694 3.003,4.453 3.252 M6.408 16.044 C 6.776 16.121,7.117 16.310,7.404 16.596 C 8.508 17.700,7.987 19.547,6.462 19.939 C 5.675 20.141,4.803 19.798,4.349 19.109 C 3.814 18.296,3.914 17.278,4.596 16.597 C 5.090 16.105,5.743 15.906,6.408 16.044 M18.408 16.044 C 18.776 16.121,19.117 16.310,19.404 16.596 C 20.508 17.700,19.987 19.547,18.462 19.939 C 17.675 20.141,16.803 19.798,16.349 19.109 C 15.814 18.296,15.914 17.278,16.596 16.597 C 17.090 16.105,17.743 15.906,18.408 16.044 " stroke="none" fill-rule="evenodd" fill="black"></path></svg>