<svg viewBox="0 0 24 24" xmlns="http://www.w3.org/2000/svg"><path d="M3.664 3.063 C 3.436 3.146,3.257 3.297,3.131 3.511 L 3.020 3.700 3.009 8.350 L 2.999 13.000 3.999 13.000 L 5.000 13.000 5.000 9.000 L 5.000 5.000 12.000 5.000 L 19.000 5.000 19.000 9.000 L 19.000 13.000 20.000 13.000 L 21.000 13.000 21.000 8.427 C 21.000 3.286,21.019 3.617,20.701 3.299 C 20.376 2.973,21.147 3.000,11.983 3.003 C 5.003 3.005,3.797 3.014,3.664 3.063 M7.513 7.712 C 7.086 8.158,6.940 8.577,7.041 9.065 C 7.139 9.542,7.184 9.596,8.933 11.350 L 10.579 13.000 9.805 13.775 L 9.030 14.550 8.665 14.379 C 8.089 14.108,7.690 14.023,7.000 14.023 C 6.525 14.023,6.355 14.040,6.060 14.115 C 5.078 14.367,4.197 14.988,3.667 15.804 C 2.830 17.091,2.785 18.666,3.547 20.004 C 4.112 20.995,5.077 21.683,6.235 21.919 C 7.804 22.239,9.453 21.546,10.331 20.199 C 10.602 19.783,10.728 19.505,10.870 19.004 C 10.968 18.659,10.979 18.556,10.978 18.000 C 10.977 17.482,10.962 17.327,10.887 17.060 C 10.776 16.662,10.656 16.352,10.527 16.126 L 10.428 15.953 11.204 15.176 L 11.979 14.400 12.768 15.188 L 13.557 15.976 13.481 16.098 C 13.102 16.713,12.909 17.873,13.057 18.651 C 13.366 20.284,14.466 21.467,16.065 21.885 C 16.573 22.018,17.426 22.018,17.932 21.886 C 19.150 21.567,20.050 20.838,20.581 19.742 C 20.852 19.181,20.959 18.757,20.987 18.140 C 21.004 17.748,20.993 17.586,20.925 17.256 C 20.840 16.848,20.646 16.313,20.477 16.020 C 19.915 15.048,18.969 14.352,17.860 14.095 C 17.421 13.994,16.581 13.994,16.140 14.095 C 15.813 14.170,15.315 14.358,15.100 14.487 L 14.980 14.559 14.190 13.770 L 13.400 12.981 15.078 11.300 C 17.005 9.370,16.935 9.463,16.938 8.820 C 16.940 8.464,16.928 8.394,16.828 8.180 C 16.757 8.028,16.619 7.841,16.449 7.670 L 16.181 7.399 14.091 9.489 L 12.000 11.580 9.908 9.488 L 7.815 7.395 7.513 7.712 M7.383 16.043 C 8.185 16.190,8.839 16.872,8.967 17.695 C 9.153 18.894,8.209 20.000,7.000 20.000 C 6.032 20.000,5.183 19.268,5.033 18.305 C 4.933 17.663,5.132 17.061,5.596 16.596 C 6.085 16.108,6.698 15.918,7.383 16.043 M17.383 16.043 C 18.185 16.190,18.839 16.872,18.967 17.695 C 19.153 18.894,18.209 20.000,17.000 20.000 C 16.032 20.000,15.183 19.268,15.033 18.305 C 14.933 17.663,15.132 17.061,15.596 16.596 C 16.085 16.108,16.698 15.918,17.383 16.043 " stroke="none" fill-rule="evenodd" fill="black"></path></svg>