<svg viewBox="0 0 24 24" xmlns="http://www.w3.org/2000/svg"><path d="M17.080 3.483 C 16.946 3.543,16.528 3.934,15.430 5.031 L 13.960 6.499 13.080 5.620 L 12.200 4.740 11.490 5.450 L 10.780 6.160 14.310 9.690 L 17.840 13.220 18.550 12.510 L 19.260 11.800 18.380 10.920 L 17.501 10.040 18.969 8.570 C 20.565 6.971,20.606 6.920,20.606 6.500 C 20.606 6.092,20.540 6.004,19.288 4.749 C 18.012 3.470,17.919 3.399,17.502 3.401 C 17.347 3.401,17.195 3.431,17.080 3.483 M6.870 12.870 L 3.000 16.740 3.000 18.870 L 3.000 21.000 5.110 21.000 L 7.220 21.000 11.120 17.100 L 15.020 13.200 12.920 11.100 C 11.765 9.945,10.802 9.000,10.780 9.000 C 10.758 9.000,8.998 10.742,6.870 12.870 " stroke="none" fill-rule="evenodd" fill="black"></path></svg>