<svg viewBox="0 0 24 24" xmlns="http://www.w3.org/2000/svg"><path d="M2.664 3.063 C 2.436 3.146,2.257 3.297,2.131 3.511 L 2.020 3.700 2.009 5.850 L 1.997 8.000 11.999 8.000 L 22.000 8.000 22.000 5.927 C 22.000 3.581,22.002 3.600,21.701 3.299 C 21.375 2.972,22.267 3.000,11.983 3.003 C 4.135 3.005,2.798 3.014,2.664 3.063 M2.000 15.070 C 2.000 18.439,2.014 20.190,2.042 20.289 C 2.104 20.512,2.316 20.763,2.539 20.878 L 2.738 20.980 4.869 20.991 L 7.000 21.002 7.000 15.501 L 7.000 10.000 4.500 10.000 L 2.000 10.000 2.000 15.070 M9.000 15.500 L 9.000 21.000 12.000 21.000 L 15.000 21.000 15.000 15.500 L 15.000 10.000 12.000 10.000 L 9.000 10.000 9.000 15.500 M17.000 15.500 L 17.000 21.000 19.073 21.000 C 21.419 21.000,21.400 21.002,21.701 20.701 C 22.021 20.381,22.000 20.774,22.000 15.073 L 22.000 10.000 19.500 10.000 L 17.000 10.000 17.000 15.500 " stroke="none" fill-rule="evenodd" fill="black"></path></svg>