<svg viewBox="0 0 24 24" xmlns="http://www.w3.org/2000/svg"><path d="M2.664 3.063 C 2.436 3.146,2.257 3.297,2.131 3.511 L 2.020 3.700 2.020 12.000 L 2.020 20.300 2.131 20.489 C 2.260 20.709,2.437 20.854,2.678 20.939 C 2.830 20.993,3.916 21.000,11.998 21.000 C 22.265 21.000,21.375 21.027,21.701 20.701 C 22.026 20.376,22.000 21.144,22.000 12.000 C 22.000 2.856,22.026 3.624,21.701 3.299 C 21.375 2.972,22.267 3.000,11.983 3.003 C 4.135 3.005,2.798 3.014,2.664 3.063 M20.000 12.000 L 20.000 19.000 12.000 19.000 L 4.000 19.000 4.000 12.000 L 4.000 5.000 12.000 5.000 L 20.000 5.000 20.000 12.000 M7.364 8.089 C 7.344 8.139,6.659 9.854,5.840 11.900 C 5.021 13.946,4.318 15.706,4.276 15.810 L 4.201 16.000 5.276 16.000 L 6.351 16.000 6.548 15.510 L 6.745 15.020 8.397 15.020 L 10.049 15.020 10.240 15.500 L 10.431 15.980 11.516 15.991 L 12.600 16.001 12.540 15.851 C 12.507 15.768,11.789 13.972,10.944 11.860 L 9.408 8.020 8.403 8.009 L 7.399 7.999 7.364 8.089 M17.000 8.995 L 17.000 9.991 16.230 10.011 C 15.373 10.034,15.217 10.065,14.704 10.312 C 13.260 11.006,12.627 12.660,13.234 14.151 C 13.521 14.857,14.143 15.479,14.849 15.766 C 15.380 15.983,15.567 16.000,17.358 16.000 L 19.000 16.000 19.000 12.000 L 19.000 8.000 18.000 8.000 L 17.000 8.000 17.000 8.995 M8.833 11.980 L 9.232 12.980 8.410 12.991 C 7.958 12.997,7.582 12.996,7.575 12.988 C 7.568 12.981,7.746 12.514,7.971 11.950 C 8.196 11.386,8.392 10.937,8.407 10.952 C 8.422 10.968,8.613 11.430,8.833 11.980 M17.000 13.000 L 17.000 14.000 16.427 14.000 C 15.741 14.000,15.546 13.948,15.299 13.701 C 14.907 13.309,14.908 12.690,15.300 12.298 C 15.546 12.052,15.715 12.007,16.410 12.003 L 17.000 12.000 17.000 13.000 " stroke="none" fill-rule="evenodd" fill="black"></path></svg>