<svg viewBox="0 0 24 24" xmlns="http://www.w3.org/2000/svg"><path d="M2.643 3.069 C 2.546 3.103,2.392 3.206,2.300 3.298 C 1.988 3.610,2.000 3.463,2.000 6.927 L 2.000 10.000 2.499 10.000 L 2.999 10.000 3.009 15.150 L 3.020 20.300 3.131 20.489 C 3.256 20.702,3.449 20.864,3.670 20.943 C 3.893 21.022,20.107 21.022,20.330 20.943 C 20.551 20.864,20.744 20.702,20.869 20.489 L 20.980 20.300 20.991 15.150 L 21.001 10.000 21.502 10.000 L 22.002 10.000 21.991 6.850 L 21.980 3.700 21.869 3.511 C 21.744 3.298,21.551 3.136,21.330 3.057 C 21.206 3.013,19.571 3.004,12.000 3.005 C 3.790 3.006,2.801 3.013,2.643 3.069 M20.000 6.500 L 20.000 8.000 12.000 8.000 L 4.000 8.000 4.000 6.500 L 4.000 5.000 12.000 5.000 L 20.000 5.000 20.000 6.500 M19.000 14.500 L 19.000 19.000 12.000 19.000 L 5.000 19.000 5.000 14.500 L 5.000 10.000 12.000 10.000 L 19.000 10.000 19.000 14.500 M9.000 13.000 L 9.000 14.000 12.000 14.000 L 15.000 14.000 15.000 13.000 L 15.000 12.000 12.000 12.000 L 9.000 12.000 9.000 13.000 " stroke="none" fill-rule="evenodd" fill="black"></path></svg>