<svg viewBox="0 0 24 24" xmlns="http://www.w3.org/2000/svg"><path d="M3.664 2.063 C 3.436 2.146,3.257 2.297,3.131 2.511 L 3.020 2.700 3.020 12.000 L 3.020 21.300 3.131 21.489 C 3.256 21.702,3.449 21.864,3.670 21.943 C 3.793 21.987,5.268 21.997,11.983 21.998 C 21.146 22.000,20.376 22.026,20.701 21.701 C 21.027 21.375,21.000 22.264,21.000 12.000 C 21.000 1.736,21.027 2.625,20.701 2.299 C 20.376 1.973,21.147 2.000,11.983 2.003 C 5.003 2.005,3.797 2.014,3.664 2.063 M10.756 6.097 C 11.093 6.189,11.595 6.447,11.873 6.671 C 12.219 6.949,12.501 7.312,12.704 7.740 C 12.990 8.345,13.000 8.452,13.000 10.957 C 13.000 13.432,13.004 13.398,12.701 13.701 C 12.310 14.092,11.690 14.092,11.299 13.701 C 10.997 13.399,11.000 13.427,11.000 11.000 C 11.000 8.571,11.003 8.601,10.700 8.298 C 10.390 7.988,9.932 7.920,9.531 8.126 C 9.315 8.238,9.103 8.491,9.042 8.711 C 9.016 8.805,9.000 9.672,9.000 11.072 C 9.000 13.484,9.009 13.598,9.234 14.151 C 9.521 14.857,10.143 15.479,10.849 15.766 C 12.610 16.483,14.554 15.445,14.938 13.581 C 14.990 13.331,15.000 12.864,15.000 10.642 L 15.000 8.000 16.000 8.000 L 17.000 8.000 17.000 10.631 C 17.000 12.207,16.983 13.398,16.958 13.601 C 16.723 15.522,15.375 17.158,13.539 17.753 C 12.973 17.936,12.676 17.980,12.000 17.980 C 11.325 17.980,11.027 17.936,10.465 17.754 C 9.483 17.436,8.613 16.812,7.992 15.981 C 7.683 15.567,7.309 14.802,7.183 14.326 C 7.010 13.674,6.994 13.345,7.010 10.820 C 7.026 8.197,7.014 8.322,7.312 7.704 C 7.727 6.841,8.555 6.212,9.503 6.040 C 9.770 5.991,10.491 6.024,10.756 6.097 " stroke="none" fill-rule="evenodd" fill="black"></path></svg>