<svg viewBox="0 0 24 24" xmlns="http://www.w3.org/2000/svg"><path d="M11.400 1.023 C 10.461 1.131,9.757 1.291,9.118 1.542 C 8.082 1.950,7.255 2.481,6.447 3.259 C 5.737 3.942,5.226 4.645,4.801 5.526 C 3.736 7.732,3.736 10.268,4.801 12.474 C 5.240 13.384,5.743 14.067,6.520 14.812 L 7.000 15.272 7.000 18.740 C 7.000 21.867,7.006 22.221,7.065 22.346 C 7.154 22.533,7.327 22.619,7.586 22.605 C 7.633 22.602,8.645 22.016,9.836 21.302 L 12.000 20.004 14.164 21.302 C 15.355 22.016,16.367 22.602,16.414 22.605 C 16.673 22.619,16.846 22.533,16.935 22.346 C 16.994 22.221,17.000 21.867,17.000 18.740 L 17.000 15.272 17.480 14.812 C 18.257 14.067,18.760 13.384,19.199 12.474 C 20.542 9.693,20.172 6.429,18.237 3.997 C 17.908 3.584,17.252 2.945,16.831 2.629 C 15.770 1.832,14.555 1.315,13.240 1.100 C 12.872 1.040,11.685 0.990,11.400 1.023 M13.041 3.097 C 14.371 3.333,15.638 4.046,16.506 5.045 C 17.229 5.879,17.707 6.879,17.909 7.980 C 17.999 8.468,17.999 9.532,17.909 10.020 C 17.805 10.587,17.653 11.064,17.423 11.545 C 16.584 13.296,15.102 14.462,13.174 14.887 C 12.603 15.013,11.397 15.013,10.826 14.887 C 8.341 14.339,6.548 12.496,6.090 10.020 C 6.000 9.531,6.000 8.469,6.090 7.980 C 6.394 6.335,7.309 4.928,8.660 4.025 C 9.725 3.313,10.873 2.981,12.140 3.019 C 12.448 3.029,12.853 3.063,13.041 3.097 M9.504 16.596 C 9.766 16.682,10.160 16.789,10.380 16.833 C 11.772 17.118,13.145 17.038,14.496 16.596 C 14.758 16.510,14.978 16.440,14.986 16.440 C 14.994 16.440,15.000 17.115,15.000 17.940 C 15.000 18.765,14.990 19.440,14.977 19.440 C 14.964 19.440,14.289 19.041,13.477 18.554 L 12.000 17.669 10.523 18.554 C 9.711 19.041,9.036 19.440,9.023 19.440 C 9.010 19.440,9.000 18.765,9.000 17.940 C 9.000 17.115,9.006 16.440,9.014 16.440 C 9.022 16.440,9.242 16.510,9.504 16.596 " stroke="none" fill-rule="evenodd" fill="black"></path></svg>