<svg viewBox="0 0 24 24" xmlns="http://www.w3.org/2000/svg"><path d="M13.960 2.025 C 12.613 2.196,11.519 2.718,10.619 3.618 C 9.837 4.400,9.327 5.352,9.096 6.460 C 8.991 6.965,8.991 8.035,9.096 8.540 C 9.327 9.648,9.837 10.600,10.619 11.381 C 11.229 11.992,11.900 12.413,12.703 12.691 C 13.365 12.921,13.730 12.979,14.500 12.979 C 15.270 12.979,15.635 12.921,16.297 12.691 C 17.100 12.413,17.771 11.992,18.381 11.381 C 19.163 10.600,19.673 9.648,19.904 8.540 C 20.009 8.035,20.009 6.965,19.904 6.460 C 19.673 5.352,19.163 4.400,18.381 3.618 C 17.592 2.828,16.624 2.315,15.517 2.100 C 15.186 2.036,14.236 1.990,13.960 2.025 M15.092 4.060 C 15.847 4.191,16.404 4.484,16.960 5.040 C 17.516 5.596,17.809 6.153,17.940 6.908 C 18.128 7.982,17.804 9.074,17.064 9.868 C 16.605 10.361,16.114 10.665,15.452 10.867 C 15.137 10.962,15.037 10.974,14.500 10.974 C 13.963 10.974,13.863 10.962,13.548 10.867 C 12.886 10.665,12.395 10.361,11.936 9.868 C 10.890 8.746,10.711 7.106,11.484 5.732 C 11.724 5.307,12.307 4.724,12.732 4.484 C 13.489 4.058,14.274 3.917,15.092 4.060 M5.433 12.040 C 4.843 12.134,4.221 12.380,3.731 12.712 C 2.955 13.240,2.394 14.037,2.130 14.989 C 2.034 15.337,2.022 15.449,2.022 16.000 C 2.022 16.553,2.034 16.663,2.132 17.017 C 2.475 18.256,3.357 19.252,4.520 19.715 C 6.334 20.437,8.462 19.710,9.444 18.033 C 10.503 16.224,9.985 13.878,8.269 12.712 C 7.917 12.473,7.343 12.214,6.958 12.120 C 6.572 12.026,5.783 11.984,5.433 12.040 M6.383 14.043 C 7.185 14.190,7.839 14.872,7.967 15.695 C 8.153 16.894,7.209 18.000,6.000 18.000 C 5.032 18.000,4.183 17.268,4.033 16.305 C 3.933 15.663,4.132 15.061,4.596 14.596 C 5.085 14.108,5.698 13.918,6.383 14.043 M15.503 16.040 C 14.828 16.162,14.156 16.550,13.703 17.080 C 12.987 17.917,12.806 19.100,13.234 20.151 C 13.521 20.857,14.143 21.479,14.849 21.766 C 15.989 22.230,17.251 21.978,18.115 21.115 C 19.238 19.992,19.295 18.212,18.246 17.020 C 17.897 16.624,17.276 16.239,16.756 16.097 C 16.491 16.024,15.770 15.991,15.503 16.040 M16.340 18.066 C 16.709 18.192,17.000 18.604,17.000 19.000 C 17.000 19.527,16.527 20.000,16.000 20.000 C 15.758 20.000,15.479 19.881,15.299 19.701 C 14.907 19.309,14.908 18.690,15.300 18.298 C 15.577 18.020,15.957 17.936,16.340 18.066 " stroke="none" fill-rule="evenodd" fill="black"></path></svg>