<svg viewBox="0 0 24 24" xmlns="http://www.w3.org/2000/svg"><path d="M3.664 2.063 C 3.436 2.146,3.257 2.297,3.131 2.511 L 3.020 2.700 3.020 12.000 L 3.020 21.300 3.131 21.489 C 3.192 21.592,3.301 21.723,3.374 21.778 C 3.684 22.015,3.106 22.000,11.998 22.000 C 21.144 22.000,20.376 22.026,20.701 21.701 C 21.027 21.375,21.000 22.264,21.000 12.000 C 21.000 1.736,21.027 2.625,20.701 2.299 C 20.376 1.973,21.147 2.000,11.983 2.003 C 5.003 2.005,3.797 2.014,3.664 2.063 M17.000 8.000 L 17.000 10.000 12.000 10.000 L 7.000 10.000 7.000 8.000 L 7.000 6.000 12.000 6.000 L 17.000 6.000 17.000 8.000 M9.000 13.000 L 9.000 14.000 8.000 14.000 L 7.000 14.000 7.000 13.000 L 7.000 12.000 8.000 12.000 L 9.000 12.000 9.000 13.000 M13.000 13.000 L 13.000 14.000 12.000 14.000 L 11.000 14.000 11.000 13.000 L 11.000 12.000 12.000 12.000 L 13.000 12.000 13.000 13.000 M17.000 15.000 L 17.000 18.000 16.000 18.000 L 15.000 18.000 15.000 15.000 L 15.000 12.000 16.000 12.000 L 17.000 12.000 17.000 15.000 M9.000 17.000 L 9.000 18.000 8.000 18.000 L 7.000 18.000 7.000 17.000 L 7.000 16.000 8.000 16.000 L 9.000 16.000 9.000 17.000 M13.000 17.000 L 13.000 18.000 12.000 18.000 L 11.000 18.000 11.000 17.000 L 11.000 16.000 12.000 16.000 L 13.000 16.000 13.000 17.000 " stroke="none" fill-rule="evenodd" fill="black"></path></svg>