<svg viewBox="0 0 24 24" xmlns="http://www.w3.org/2000/svg"><path d="M7.000 1.999 L 7.000 2.998 4.869 3.009 L 2.738 3.020 2.539 3.122 C 2.313 3.239,2.102 3.491,2.041 3.717 C 2.013 3.822,2.003 6.510,2.010 12.086 L 2.020 20.300 2.131 20.489 C 2.260 20.709,2.437 20.854,2.678 20.939 C 2.830 20.993,3.916 21.000,11.998 21.000 C 22.265 21.000,21.375 21.027,21.701 20.701 C 22.026 20.376,22.000 21.144,22.000 12.000 C 22.000 2.856,22.026 3.624,21.701 3.299 C 21.400 2.998,21.419 3.000,19.073 3.000 L 17.000 3.000 17.000 2.000 L 17.000 1.000 16.000 1.000 L 15.000 1.000 15.000 2.000 L 15.000 3.000 12.000 3.000 L 9.000 3.000 9.000 2.000 L 9.000 1.000 8.000 1.000 L 7.000 1.000 7.000 1.999 M7.000 6.000 L 7.000 7.000 8.000 7.000 L 9.000 7.000 9.000 6.000 L 9.000 5.000 12.000 5.000 L 15.000 5.000 15.000 6.000 L 15.000 7.000 16.000 7.000 L 17.000 7.000 17.000 6.000 L 17.000 5.000 18.500 5.000 L 20.000 5.000 20.000 7.000 L 20.000 9.000 12.000 9.000 L 4.000 9.000 4.000 7.000 L 4.000 5.000 5.500 5.000 L 7.000 5.000 7.000 6.000 M20.000 15.000 L 20.000 19.000 12.000 19.000 L 4.000 19.000 4.000 15.000 L 4.000 11.000 12.000 11.000 L 20.000 11.000 20.000 15.000 M6.000 15.000 L 6.000 16.000 7.000 16.000 L 8.000 16.000 8.000 15.000 L 8.000 14.000 7.000 14.000 L 6.000 14.000 6.000 15.000 M10.000 15.000 L 10.000 16.000 14.000 16.000 L 18.000 16.000 18.000 15.000 L 18.000 14.000 14.000 14.000 L 10.000 14.000 10.000 15.000 " stroke="none" fill-rule="evenodd" fill="black"></path></svg>