<svg viewBox="0 0 24 24" xmlns="http://www.w3.org/2000/svg"><path d="M11.187 2.042 C 10.150 2.163,9.058 2.559,8.186 3.131 C 6.254 4.399,5.101 6.433,5.012 8.729 L 4.988 9.358 4.844 9.404 C 4.765 9.429,4.507 9.548,4.271 9.668 C 2.568 10.533,1.403 12.128,1.075 14.045 C 0.969 14.669,0.987 15.594,1.118 16.208 C 1.569 18.321,3.097 20.032,5.126 20.696 C 6.050 20.999,5.591 20.980,12.000 20.980 L 17.740 20.980 18.152 20.891 C 20.595 20.361,22.351 18.612,22.887 16.174 C 23.015 15.592,23.014 14.435,22.886 13.840 C 22.482 11.967,21.330 10.468,19.660 9.642 C 19.098 9.364,18.713 9.232,18.149 9.124 C 16.320 8.772,14.527 9.247,13.076 10.466 C 12.418 11.020,11.797 11.870,11.479 12.650 C 11.427 12.777,11.375 12.880,11.363 12.880 C 11.328 12.879,9.555 12.209,9.535 12.188 C 9.478 12.132,9.977 11.125,10.320 10.604 C 11.390 8.978,13.074 7.763,14.927 7.281 C 15.749 7.066,16.098 7.025,17.040 7.029 C 17.708 7.032,17.994 7.051,18.320 7.111 C 18.551 7.154,18.746 7.184,18.753 7.178 C 18.788 7.149,18.450 6.250,18.265 5.878 C 17.204 3.759,15.181 2.338,12.801 2.042 C 12.418 1.995,11.597 1.995,11.187 2.042 " stroke="none" fill-rule="evenodd" fill="black"></path></svg>