<svg viewBox="0 0 24 24" xmlns="http://www.w3.org/2000/svg"><path d="M11.120 2.039 C 8.336 2.318,5.905 3.624,4.193 5.760 C 1.474 9.155,1.267 13.917,3.682 17.533 C 6.770 22.155,12.946 23.386,17.560 20.299 C 22.155 17.225,23.377 11.041,20.299 6.440 C 18.728 4.092,16.319 2.562,13.493 2.119 C 12.909 2.027,11.660 1.985,11.120 2.039 M13.020 7.117 C 16.165 7.783,17.894 11.232,16.524 14.104 C 15.841 15.533,14.677 16.482,13.131 16.869 C 12.752 16.964,12.620 16.977,12.040 16.978 C 11.135 16.980,10.519 16.843,9.785 16.477 C 8.992 16.081,8.211 15.385,7.807 14.715 L 7.720 14.570 8.548 14.075 C 9.004 13.803,9.388 13.580,9.402 13.580 C 9.417 13.580,9.528 13.704,9.649 13.855 C 10.054 14.360,10.623 14.736,11.240 14.906 C 11.612 15.008,12.407 15.006,12.760 14.902 C 13.331 14.734,13.701 14.517,14.113 14.110 C 14.442 13.785,14.683 13.393,14.846 12.920 C 14.967 12.568,14.977 12.501,14.978 12.020 C 14.979 11.469,14.930 11.218,14.731 10.766 C 14.410 10.034,13.732 9.433,12.909 9.152 C 12.575 9.038,12.492 9.025,12.040 9.023 C 11.344 9.019,10.895 9.147,10.361 9.501 C 10.030 9.720,9.856 9.879,9.619 10.180 C 9.515 10.312,9.424 10.426,9.417 10.434 C 9.411 10.442,9.025 10.220,8.561 9.941 L 7.716 9.433 7.797 9.307 C 8.260 8.574,8.976 7.932,9.780 7.529 C 10.264 7.287,10.891 7.105,11.520 7.025 C 11.800 6.989,12.669 7.043,13.020 7.117 " stroke="none" fill-rule="evenodd" fill="black"></path></svg>