<svg viewBox="0 0 24 24" xmlns="http://www.w3.org/2000/svg"><path d="M11.080 2.043 C 9.778 2.172,8.483 2.556,7.360 3.146 C 6.941 3.365,6.058 3.937,5.809 4.149 L 5.679 4.260 7.569 6.144 L 9.460 8.029 10.230 8.010 L 11.000 7.990 11.000 6.995 L 11.000 6.000 12.000 6.000 L 13.000 6.000 13.000 7.000 L 13.000 8.000 14.240 8.000 L 15.480 8.000 15.480 8.999 L 15.480 9.998 12.637 10.009 L 9.794 10.020 9.657 10.169 C 9.543 10.294,9.520 10.349,9.520 10.500 C 9.520 10.650,9.543 10.706,9.657 10.831 L 9.794 10.980 12.127 11.003 C 14.083 11.021,14.493 11.035,14.665 11.088 C 15.349 11.296,15.944 11.795,16.231 12.400 C 16.425 12.807,16.480 13.052,16.480 13.500 C 16.480 13.908,16.426 14.182,16.280 14.505 L 16.170 14.750 17.959 16.539 L 19.749 18.328 19.931 18.092 C 21.442 16.128,22.186 13.554,21.957 11.080 C 21.569 6.872,18.510 3.305,14.430 2.303 C 13.429 2.058,12.028 1.949,11.080 2.043 M3.971 6.044 C 1.899 8.851,1.432 12.473,2.722 15.728 C 3.213 16.964,3.951 18.075,4.938 19.061 C 5.715 19.837,6.454 20.383,7.377 20.863 C 10.786 22.636,14.858 22.315,17.956 20.029 L 18.332 19.752 16.436 17.862 L 14.540 15.973 13.770 15.991 L 13.000 16.009 13.000 17.004 L 13.000 18.000 12.000 18.000 L 11.000 18.000 11.000 17.000 L 11.000 16.000 9.760 16.000 L 8.520 16.000 8.520 15.000 L 8.520 14.000 11.304 14.000 C 14.465 14.000,14.304 14.016,14.449 13.689 C 14.524 13.520,14.524 13.503,14.462 13.339 C 14.334 13.004,14.481 13.023,11.840 12.999 L 9.500 12.978 9.207 12.872 C 8.785 12.719,8.510 12.540,8.201 12.215 C 7.744 11.735,7.520 11.171,7.520 10.500 C 7.520 10.110,7.588 9.782,7.737 9.455 L 7.831 9.250 6.040 7.460 L 4.248 5.669 3.971 6.044 " stroke="none" fill-rule="evenodd" fill="black"></path></svg>