<svg viewBox="0 0 24 24" xmlns="http://www.w3.org/2000/svg"><path d="M11.120 2.039 C 8.336 2.318,5.905 3.624,4.193 5.760 C 1.474 9.155,1.267 13.917,3.682 17.533 C 6.770 22.155,12.946 23.386,17.560 20.299 C 22.155 17.225,23.377 11.041,20.299 6.440 C 18.728 4.092,16.319 2.562,13.493 2.119 C 12.909 2.027,11.660 1.985,11.120 2.039 M12.862 6.095 C 14.864 6.526,16.441 8.347,16.885 10.740 C 17.013 11.426,17.013 12.574,16.885 13.260 C 16.536 15.143,15.451 16.736,14.004 17.492 C 11.703 18.693,9.055 17.693,7.747 15.129 C 6.756 13.186,6.757 10.812,7.749 8.868 C 8.557 7.284,9.849 6.290,11.427 6.041 C 11.742 5.991,12.516 6.020,12.862 6.095 M11.495 8.060 C 11.023 8.162,10.568 8.437,10.158 8.866 C 9.826 9.212,9.676 9.432,9.459 9.893 C 8.846 11.190,8.850 12.808,9.470 14.131 C 9.571 14.347,9.667 14.509,9.685 14.491 C 9.702 14.474,10.272 13.497,10.951 12.320 C 11.630 11.143,12.422 9.770,12.711 9.270 L 13.236 8.359 12.993 8.236 C 12.552 8.014,12.004 7.949,11.495 8.060 M14.112 9.840 C 13.990 10.049,13.211 11.399,12.381 12.840 C 11.550 14.281,10.846 15.500,10.815 15.549 C 10.765 15.630,10.768 15.644,10.858 15.702 C 11.234 15.949,11.998 16.060,12.500 15.942 C 13.118 15.797,13.750 15.345,14.183 14.737 C 15.120 13.425,15.261 11.396,14.522 9.852 L 14.335 9.460 14.112 9.840 " stroke="none" fill-rule="evenodd" fill="black"></path></svg>