<svg viewBox="0 0 24 24" xmlns="http://www.w3.org/2000/svg"><path d="M11.280 2.024 C 9.393 2.194,7.742 2.782,6.280 3.806 C 3.996 5.405,2.534 7.778,2.093 10.600 C 1.992 11.247,1.992 12.753,2.093 13.400 C 2.338 14.967,2.878 16.360,3.720 17.595 C 5.330 19.956,7.731 21.461,10.600 21.906 C 11.246 22.006,12.754 22.006,13.400 21.906 C 17.874 21.212,21.212 17.874,21.906 13.400 C 22.006 12.754,22.006 11.246,21.906 10.600 C 21.458 7.713,19.938 5.300,17.560 3.701 C 16.295 2.851,14.963 2.339,13.400 2.102 C 12.995 2.040,11.649 1.991,11.280 2.024 M12.740 4.041 C 15.754 4.324,18.329 6.266,19.455 9.106 C 19.639 9.568,19.820 10.253,19.908 10.820 C 20.001 11.418,20.001 12.582,19.908 13.180 C 19.646 14.861,18.929 16.315,17.765 17.530 C 17.081 18.243,16.346 18.778,15.471 19.200 C 12.680 20.548,9.387 20.167,6.975 18.216 C 3.345 15.279,2.995 9.861,6.217 6.489 C 7.919 4.708,10.304 3.813,12.740 4.041 M11.338 6.058 C 9.619 6.325,8.061 7.744,7.404 9.641 L 7.287 9.980 6.644 9.991 L 6.001 10.002 7.237 11.484 C 7.916 12.299,8.485 12.966,8.500 12.966 C 8.515 12.966,9.084 12.299,9.764 11.483 L 11.001 10.000 10.200 10.000 L 9.399 10.000 9.504 9.790 C 9.985 8.832,10.822 8.152,11.670 8.031 C 12.903 7.854,14.072 8.692,14.666 10.177 C 14.888 10.732,14.974 11.243,14.974 12.000 C 14.974 12.997,14.807 13.667,14.358 14.463 C 14.099 14.924,13.485 15.532,13.080 15.730 C 12.350 16.087,11.646 16.087,10.925 15.731 C 10.407 15.475,9.828 14.856,9.504 14.210 L 9.399 14.000 8.342 14.000 L 7.285 14.000 7.397 14.330 C 7.869 15.727,8.898 16.953,10.100 17.551 C 11.180 18.087,12.484 18.138,13.591 17.687 C 14.997 17.113,16.121 15.825,16.652 14.180 C 16.912 13.373,16.979 12.929,16.979 12.000 C 16.979 11.071,16.912 10.627,16.652 9.820 C 15.824 7.252,13.633 5.701,11.338 6.058 " stroke="none" fill-rule="evenodd" fill="black"></path></svg>