<svg viewBox="0 0 24 24" xmlns="http://www.w3.org/2000/svg"><path d="M11.420 1.023 C 11.354 1.032,11.129 1.060,10.920 1.084 C 10.428 1.141,9.601 1.350,9.120 1.541 C 8.077 1.953,7.255 2.481,6.447 3.259 C 5.289 4.372,4.508 5.779,4.176 7.347 C 4.123 7.596,4.080 7.845,4.080 7.900 L 4.080 8.000 3.467 8.000 C 3.130 8.000,2.748 8.020,2.617 8.043 C 1.862 8.181,1.203 8.830,1.044 9.592 C 0.983 9.884,0.983 14.116,1.044 14.408 C 1.201 15.158,1.842 15.799,2.592 15.956 C 2.726 15.984,3.389 16.000,4.400 16.000 L 5.997 16.000 6.011 12.130 C 6.027 7.920,6.018 8.102,6.260 7.260 C 6.390 6.810,6.721 6.114,7.014 5.675 C 7.929 4.307,9.326 3.397,10.980 3.090 C 11.464 3.000,12.527 3.001,13.020 3.091 C 13.586 3.194,14.063 3.346,14.545 3.577 C 16.344 4.439,17.535 5.997,17.912 7.980 C 17.973 8.303,17.980 8.715,17.980 12.000 C 17.980 15.285,17.973 15.697,17.912 16.020 C 17.697 17.149,17.219 18.142,16.491 18.968 C 15.450 20.149,13.959 20.884,12.395 20.986 L 12.000 21.012 12.000 22.006 L 12.000 23.000 12.222 23.000 C 12.343 23.000,12.618 22.981,12.832 22.958 C 14.361 22.790,15.851 22.172,17.040 21.211 C 17.394 20.925,18.067 20.239,18.326 19.900 C 18.849 19.214,19.319 18.333,19.582 17.543 C 19.729 17.104,19.920 16.286,19.920 16.100 L 19.920 16.000 20.558 16.000 C 20.909 16.000,21.291 15.980,21.408 15.956 C 22.158 15.799,22.799 15.158,22.956 14.408 C 23.017 14.116,23.017 9.884,22.956 9.592 C 22.797 8.830,22.138 8.181,21.383 8.043 C 21.252 8.020,20.870 8.000,20.533 8.000 L 19.920 8.000 19.920 7.900 C 19.920 7.714,19.729 6.896,19.582 6.457 C 19.299 5.605,18.786 4.673,18.211 3.959 C 17.902 3.577,17.230 2.929,16.831 2.629 C 15.758 1.823,14.525 1.301,13.218 1.099 C 12.829 1.039,11.659 0.989,11.420 1.023 M4.000 12.000 L 4.000 14.000 3.500 14.000 L 3.000 14.000 3.000 12.000 L 3.000 10.000 3.500 10.000 L 4.000 10.000 4.000 12.000 M21.000 12.000 L 21.000 14.000 20.500 14.000 L 20.000 14.000 20.000 12.000 L 20.000 10.000 20.500 10.000 L 21.000 10.000 21.000 12.000 M8.744 14.210 C 8.712 14.260,8.478 14.633,8.224 15.040 C 7.799 15.719,7.767 15.784,7.831 15.833 C 7.869 15.862,8.146 16.009,8.447 16.158 C 10.355 17.106,12.471 17.258,14.504 16.594 C 14.949 16.449,15.984 15.976,16.169 15.833 C 16.232 15.784,16.196 15.713,15.740 14.983 C 15.466 14.544,15.225 14.169,15.204 14.148 C 15.180 14.124,15.005 14.192,14.733 14.331 C 14.198 14.603,13.874 14.720,13.258 14.864 C 12.821 14.967,12.714 14.976,12.000 14.976 C 11.286 14.976,11.179 14.967,10.742 14.864 C 10.129 14.721,9.802 14.603,9.277 14.335 C 9.044 14.217,8.842 14.120,8.828 14.120 C 8.813 14.120,8.776 14.160,8.744 14.210 " stroke="none" fill-rule="evenodd" fill="black"></path></svg>