<svg viewBox="0 0 24 24" xmlns="http://www.w3.org/2000/svg"><path d="M10.700 2.086 C 9.491 2.241,8.148 2.690,7.091 3.294 C 4.659 4.682,2.941 6.952,2.285 9.645 C 1.869 11.351,1.918 13.200,2.422 14.865 C 2.918 16.500,3.730 17.854,4.938 19.061 C 5.715 19.837,6.454 20.383,7.377 20.863 C 10.786 22.636,14.858 22.315,17.956 20.029 L 18.331 19.752 17.262 18.682 L 16.193 17.613 15.868 17.830 C 15.144 18.315,14.194 18.702,13.280 18.886 C 12.889 18.965,12.698 18.979,12.000 18.979 C 11.303 18.979,11.111 18.965,10.722 18.887 C 9.817 18.705,8.910 18.339,8.171 17.858 C 5.492 16.115,4.337 12.733,5.387 9.704 C 5.569 9.177,5.974 8.397,6.311 7.920 C 6.655 7.435,7.431 6.657,7.920 6.310 C 8.680 5.770,9.743 5.310,10.630 5.140 L 11.000 5.068 11.000 3.554 C 11.000 2.721,10.995 2.042,10.990 2.045 C 10.985 2.048,10.854 2.066,10.700 2.086 M13.000 3.561 L 13.000 5.067 13.332 5.133 C 14.718 5.405,15.941 6.057,16.942 7.058 C 17.943 8.059,18.595 9.282,18.867 10.668 L 18.933 11.000 20.448 11.000 L 21.964 11.000 21.943 10.870 C 21.932 10.798,21.902 10.605,21.878 10.440 C 21.633 8.817,20.916 7.176,19.859 5.820 C 18.289 3.806,15.786 2.384,13.290 2.089 L 13.000 2.054 13.000 3.561 M18.900 13.170 C 18.759 14.058,18.348 15.088,17.821 15.875 L 17.610 16.190 18.679 17.259 L 19.749 18.328 19.928 18.094 C 21.008 16.685,21.686 15.025,21.938 13.170 L 21.961 13.000 20.444 13.000 L 18.927 13.000 18.900 13.170 " stroke="none" fill-rule="evenodd" fill="black"></path></svg>