<svg viewBox="0 0 24 24" xmlns="http://www.w3.org/2000/svg"><path d="M3.000 12.499 L 3.000 22.000 4.000 22.000 L 5.000 22.000 5.000 19.000 L 5.000 16.000 8.500 16.000 L 12.000 16.000 12.384 16.770 C 12.781 17.567,12.909 17.747,13.180 17.894 C 13.340 17.980,13.341 17.980,16.737 17.991 C 20.571 18.003,20.385 18.017,20.700 17.702 C 21.022 17.380,21.000 17.844,21.000 11.500 C 21.000 5.157,21.022 5.620,20.701 5.299 C 20.390 4.988,20.536 5.000,17.073 5.000 L 14.000 5.000 13.616 4.230 C 13.219 3.433,13.091 3.253,12.820 3.106 L 12.660 3.020 7.830 3.009 L 3.000 2.999 3.000 12.499 M12.260 6.000 L 12.760 7.000 15.880 7.000 L 19.000 7.000 19.000 11.500 L 19.000 16.000 16.620 16.000 L 14.240 16.000 13.740 15.000 L 13.240 14.000 9.120 14.000 L 5.000 14.000 5.000 9.500 L 5.000 5.000 8.380 5.000 L 11.760 5.000 12.260 6.000 " stroke="none" fill-rule="evenodd" fill="black"></path></svg>