<svg viewBox="0 0 24 24" xmlns="http://www.w3.org/2000/svg"><path d="M1.000 3.000 L 1.000 4.000 2.000 4.000 L 3.000 4.000 3.000 11.430 C 3.000 18.629,3.003 18.864,3.075 18.983 C 3.117 19.051,3.220 19.139,3.305 19.180 C 3.390 19.220,5.382 20.103,7.730 21.143 L 12.000 23.032 16.290 21.134 C 18.650 20.090,20.643 19.204,20.720 19.165 C 20.797 19.126,20.891 19.033,20.930 18.957 C 20.996 18.828,21.000 18.386,21.000 11.410 L 21.000 4.000 22.000 4.000 L 23.000 4.000 23.000 3.000 L 23.000 2.000 12.000 2.000 L 1.000 2.000 1.000 3.000 M16.000 9.000 L 16.000 10.000 12.000 10.000 L 8.000 10.000 8.000 9.000 L 8.000 8.000 12.000 8.000 L 16.000 8.000 16.000 9.000 M16.000 13.000 L 16.000 14.000 12.000 14.000 L 8.000 14.000 8.000 13.000 L 8.000 12.000 12.000 12.000 L 16.000 12.000 16.000 13.000 " stroke="none" fill-rule="evenodd" fill="black"></path></svg>