<svg viewBox="0 0 24 24" xmlns="http://www.w3.org/2000/svg"><path d="M14.300 2.200 C 12.842 2.310,11.451 2.877,10.314 3.825 C 9.862 4.202,9.098 5.014,8.791 5.444 C 8.238 6.218,7.818 7.184,7.610 8.158 C 7.514 8.610,7.503 8.743,7.502 9.500 C 7.501 10.607,7.611 11.195,8.004 12.180 C 8.396 13.164,8.802 13.723,9.996 14.931 L 10.937 15.882 11.636 15.184 L 12.335 14.485 11.518 13.652 C 11.068 13.194,10.613 12.703,10.507 12.562 C 9.780 11.592,9.435 10.485,9.492 9.300 C 9.557 7.963,10.009 6.964,11.019 5.925 C 11.788 5.135,12.381 4.738,13.200 4.464 C 15.852 3.577,18.683 4.988,19.558 7.632 C 20.108 9.293,19.710 11.210,18.548 12.503 L 18.365 12.706 19.076 13.416 L 19.788 14.127 19.997 13.893 C 21.302 12.437,21.968 10.504,21.805 8.646 C 21.656 6.952,21.019 5.527,19.884 4.348 C 18.409 2.814,16.399 2.041,14.300 2.200 M12.363 8.817 L 11.667 9.513 12.514 10.387 C 12.979 10.867,13.433 11.358,13.522 11.477 C 14.844 13.244,14.844 15.694,13.522 17.467 C 13.240 17.845,12.480 18.593,12.114 18.853 C 11.290 19.438,10.261 19.759,9.215 19.760 C 6.484 19.761,4.242 17.513,4.240 14.773 C 4.239 13.600,4.645 12.467,5.381 11.590 L 5.631 11.291 4.921 10.581 L 4.211 9.871 3.902 10.224 C 3.073 11.172,2.503 12.364,2.273 13.631 C 2.161 14.248,2.152 15.355,2.254 15.920 C 2.526 17.430,3.112 18.604,4.111 19.645 C 5.349 20.935,6.840 21.647,8.636 21.807 C 10.392 21.963,12.269 21.357,13.686 20.175 C 14.138 19.798,14.902 18.986,15.209 18.556 C 15.769 17.772,16.209 16.747,16.401 15.778 C 16.524 15.155,16.552 14.171,16.463 13.560 C 16.267 12.218,15.755 11.036,14.937 10.040 C 14.820 9.897,14.350 9.406,13.892 8.950 L 13.059 8.120 12.363 8.817 " stroke="none" fill-rule="evenodd" fill="black"></path></svg>