<svg viewBox="0 0 24 24" xmlns="http://www.w3.org/2000/svg"><path d="M2.664 3.063 C 2.436 3.146,2.257 3.297,2.131 3.511 L 2.020 3.700 2.010 11.914 C 2.003 17.490,2.013 20.178,2.041 20.283 C 2.102 20.509,2.313 20.761,2.539 20.878 L 2.738 20.980 8.369 20.990 L 14.000 21.001 14.000 20.000 L 14.000 19.000 9.000 19.000 L 4.000 19.000 4.000 13.115 C 4.000 7.590,4.004 7.234,4.068 7.285 C 4.105 7.315,5.916 8.910,8.093 10.830 C 10.269 12.750,12.061 14.320,12.075 14.319 C 12.089 14.318,13.873 12.729,16.040 10.787 L 19.980 7.256 19.990 10.128 L 20.001 13.000 21.000 13.000 L 22.000 13.000 22.000 8.427 C 22.000 3.286,22.019 3.617,21.701 3.299 C 21.375 2.972,22.267 3.000,11.983 3.003 C 4.135 3.005,2.798 3.014,2.664 3.063 M19.360 5.128 C 17.666 6.654,12.102 11.624,12.077 11.633 C 12.052 11.642,6.380 6.674,4.542 5.034 C 4.521 5.015,7.878 5.001,12.002 5.001 L 19.500 5.002 19.360 5.128 M19.000 16.500 L 19.000 18.000 17.500 18.000 L 16.000 18.000 16.000 19.000 L 16.000 20.000 17.500 20.000 L 19.000 20.000 19.000 21.500 L 19.000 23.000 20.000 23.000 L 21.000 23.000 21.000 21.500 L 21.000 20.000 22.500 20.000 L 24.000 20.000 24.000 19.000 L 24.000 18.000 22.500 18.000 L 21.000 18.000 21.000 16.500 L 21.000 15.000 20.000 15.000 L 19.000 15.000 19.000 16.500 " stroke="none" fill-rule="evenodd" fill="black"></path></svg>