<svg viewBox="0 0 24 24" xmlns="http://www.w3.org/2000/svg"><path d="M2.664 3.063 C 2.436 3.146,2.257 3.297,2.131 3.511 L 2.020 3.700 2.010 11.914 C 2.003 17.490,2.013 20.178,2.041 20.283 C 2.102 20.509,2.313 20.761,2.539 20.878 L 2.738 20.980 8.529 20.990 C 11.714 20.996,14.320 20.996,14.320 20.990 C 14.320 20.985,14.267 20.770,14.202 20.514 C 13.672 18.418,14.252 16.277,15.761 14.763 C 16.615 13.906,17.730 13.321,18.940 13.095 C 19.235 13.040,19.519 13.020,20.020 13.022 C 20.722 13.023,21.120 13.076,21.684 13.242 C 21.830 13.285,21.960 13.320,21.974 13.320 C 21.988 13.320,22.000 11.190,22.000 8.587 C 22.000 3.267,22.020 3.618,21.701 3.299 C 21.375 2.972,22.267 3.000,11.983 3.003 C 4.135 3.005,2.798 3.014,2.664 3.063 M8.881 8.985 C 10.565 10.412,11.970 11.602,12.004 11.629 C 12.067 11.679,12.046 11.697,18.123 6.437 L 18.346 6.244 18.983 6.982 C 19.333 7.388,19.620 7.735,19.620 7.753 C 19.620 7.772,17.921 9.256,15.846 11.053 L 12.071 14.319 11.706 14.006 C 11.451 13.788,4.552 7.933,4.366 7.777 C 4.358 7.771,4.644 7.421,5.001 7.000 L 5.650 6.235 5.735 6.312 C 5.782 6.355,7.197 7.557,8.881 8.985 M17.160 16.180 L 16.461 16.880 17.520 17.940 L 18.579 19.000 17.520 20.060 L 16.460 21.120 17.170 21.830 L 17.880 22.540 18.940 21.480 L 20.000 20.421 21.060 21.480 L 22.120 22.540 22.830 21.830 L 23.540 21.120 22.480 20.060 L 21.421 19.000 22.480 17.940 L 23.540 16.880 22.830 16.170 L 22.120 15.460 21.060 16.520 L 20.000 17.579 18.950 16.530 C 18.372 15.952,17.890 15.480,17.879 15.480 C 17.868 15.480,17.544 15.795,17.160 16.180 " stroke="none" fill-rule="evenodd" fill="black"></path></svg>