<svg viewBox="0 0 24 24" xmlns="http://www.w3.org/2000/svg"><path d="M2.664 3.063 C 2.436 3.146,2.257 3.297,2.131 3.511 L 2.020 3.700 2.010 11.914 C 2.003 17.490,2.013 20.178,2.041 20.283 C 2.102 20.509,2.313 20.761,2.539 20.878 L 2.738 20.980 8.369 20.990 L 14.000 21.001 14.000 20.000 L 14.000 19.000 9.000 19.000 L 4.000 19.000 4.000 13.115 C 4.000 7.590,4.004 7.234,4.068 7.285 C 4.105 7.315,5.916 8.910,8.093 10.830 C 10.269 12.750,12.061 14.320,12.075 14.319 C 12.089 14.318,13.873 12.729,16.040 10.787 L 19.980 7.256 19.990 10.128 L 20.001 13.000 21.000 13.000 L 22.000 13.000 22.000 8.427 C 22.000 3.286,22.019 3.617,21.701 3.299 C 21.375 2.972,22.267 3.000,11.983 3.003 C 4.135 3.005,2.798 3.014,2.664 3.063 M19.360 5.128 C 17.666 6.654,12.102 11.624,12.077 11.633 C 12.052 11.642,6.380 6.674,4.542 5.034 C 4.521 5.015,7.878 5.001,12.002 5.001 L 19.500 5.002 19.360 5.128 M19.000 15.578 L 19.000 16.157 18.710 16.302 C 18.550 16.382,18.335 16.508,18.231 16.583 L 18.042 16.719 17.562 16.439 C 17.298 16.286,17.067 16.160,17.050 16.160 C 17.027 16.160,16.202 17.555,16.053 17.847 C 16.045 17.862,16.260 18.000,16.530 18.154 L 17.020 18.435 17.017 19.004 L 17.014 19.574 16.537 19.848 C 16.273 20.000,16.066 20.144,16.073 20.171 C 16.099 20.271,17.019 21.840,17.052 21.840 C 17.071 21.840,17.301 21.715,17.564 21.562 L 18.043 21.285 18.298 21.463 C 18.438 21.561,18.654 21.686,18.777 21.740 L 19.000 21.839 19.000 22.419 L 19.000 23.000 20.000 23.000 L 21.000 23.000 21.000 22.419 L 21.000 21.839 21.223 21.740 C 21.346 21.686,21.562 21.561,21.702 21.463 L 21.957 21.285 22.436 21.562 C 22.699 21.715,22.929 21.840,22.948 21.840 C 22.981 21.840,23.901 20.271,23.927 20.171 C 23.934 20.144,23.727 20.000,23.463 19.848 L 22.986 19.574 22.983 19.004 L 22.980 18.435 23.470 18.154 C 23.740 18.000,23.955 17.862,23.947 17.847 C 23.798 17.555,22.973 16.160,22.950 16.160 C 22.933 16.160,22.702 16.286,22.438 16.439 L 21.958 16.719 21.769 16.583 C 21.665 16.508,21.449 16.382,21.290 16.302 L 21.000 16.157 21.000 15.578 L 21.000 15.000 20.000 15.000 L 19.000 15.000 19.000 15.578 M20.340 18.066 C 20.709 18.192,21.000 18.604,21.000 19.000 C 21.000 19.527,20.527 20.000,20.000 20.000 C 19.758 20.000,19.479 19.881,19.299 19.701 C 18.907 19.309,18.908 18.690,19.300 18.298 C 19.577 18.020,19.957 17.936,20.340 18.066 " stroke="none" fill-rule="evenodd" fill="black"></path></svg>