<svg viewBox="0 0 24 24" xmlns="http://www.w3.org/2000/svg"><path d="M2.664 3.063 C 2.436 3.146,2.257 3.297,2.131 3.511 L 2.020 3.700 2.010 11.914 C 2.003 17.490,2.013 20.178,2.041 20.283 C 2.102 20.509,2.313 20.761,2.539 20.878 L 2.738 20.980 8.213 20.990 L 13.689 21.001 13.666 20.910 C 13.526 20.353,13.477 19.273,13.563 18.655 C 13.752 17.298,14.469 15.950,15.480 15.051 C 16.263 14.355,17.156 13.889,18.159 13.653 C 18.747 13.514,19.845 13.479,20.443 13.578 C 20.868 13.650,21.423 13.804,21.790 13.953 L 22.000 14.039 22.000 8.947 C 22.000 3.224,22.021 3.619,21.701 3.299 C 21.375 2.972,22.267 3.000,11.983 3.003 C 4.135 3.005,2.798 3.014,2.664 3.063 M8.881 8.985 C 10.565 10.412,11.970 11.602,12.004 11.629 C 12.067 11.679,12.046 11.697,18.123 6.437 L 18.346 6.244 18.983 6.982 C 19.333 7.388,19.620 7.735,19.620 7.753 C 19.620 7.772,17.921 9.256,15.846 11.053 L 12.071 14.319 11.706 14.006 C 11.451 13.788,4.552 7.933,4.366 7.777 C 4.358 7.771,4.644 7.421,5.001 7.000 L 5.650 6.235 5.735 6.312 C 5.782 6.355,7.197 7.557,8.881 8.985 M18.831 16.350 C 18.477 17.070,18.184 17.665,18.180 17.671 C 18.175 17.677,17.552 17.772,16.796 17.881 C 16.039 17.990,15.375 18.090,15.320 18.103 C 15.223 18.126,15.226 18.131,15.420 18.311 C 15.530 18.413,16.011 18.879,16.488 19.347 L 17.356 20.199 17.106 21.661 C 16.901 22.862,16.867 23.118,16.918 23.099 C 16.952 23.086,17.543 22.780,18.231 22.418 C 18.920 22.056,19.491 21.760,19.500 21.760 C 19.509 21.760,20.080 22.056,20.769 22.418 C 21.457 22.780,22.048 23.086,22.082 23.099 C 22.133 23.118,22.099 22.862,21.894 21.661 L 21.644 20.199 22.492 19.368 C 22.958 18.910,23.439 18.444,23.559 18.331 C 23.772 18.133,23.776 18.125,23.679 18.103 C 23.625 18.091,22.961 17.991,22.205 17.882 C 21.449 17.773,20.825 17.678,20.820 17.672 C 20.815 17.665,20.521 17.070,20.168 16.350 C 19.815 15.630,19.515 15.040,19.500 15.040 C 19.486 15.040,19.185 15.630,18.831 16.350 " stroke="none" fill-rule="evenodd" fill="black"></path></svg>