<svg viewBox="0 0 24 24" xmlns="http://www.w3.org/2000/svg"><path d="M2.664 3.063 C 2.436 3.146,2.257 3.297,2.131 3.511 L 2.020 3.700 2.010 11.914 C 2.003 17.490,2.013 20.178,2.041 20.283 C 2.102 20.509,2.313 20.761,2.539 20.878 L 2.738 20.980 8.369 20.990 L 14.000 21.001 14.000 20.000 L 14.000 19.000 9.000 19.000 L 4.000 19.000 4.000 13.115 C 4.000 7.590,4.004 7.234,4.068 7.285 C 4.105 7.315,5.916 8.910,8.093 10.830 C 10.269 12.750,12.061 14.320,12.075 14.319 C 12.089 14.318,13.873 12.729,16.040 10.787 L 19.980 7.256 19.990 10.128 L 20.001 13.000 21.000 13.000 L 22.000 13.000 22.000 8.427 C 22.000 3.286,22.019 3.617,21.701 3.299 C 21.375 2.972,22.267 3.000,11.983 3.003 C 4.135 3.005,2.798 3.014,2.664 3.063 M19.360 5.128 C 17.666 6.654,12.102 11.624,12.077 11.633 C 12.052 11.642,6.380 6.674,4.542 5.034 C 4.521 5.015,7.878 5.001,12.002 5.001 L 19.500 5.002 19.360 5.128 M18.831 16.350 C 18.477 17.070,18.184 17.665,18.180 17.671 C 18.175 17.677,17.552 17.772,16.796 17.881 C 16.039 17.990,15.375 18.090,15.320 18.103 C 15.223 18.126,15.226 18.131,15.420 18.311 C 15.530 18.413,16.011 18.879,16.488 19.347 L 17.356 20.199 17.106 21.661 C 16.901 22.862,16.867 23.118,16.918 23.099 C 16.952 23.086,17.543 22.780,18.231 22.418 C 18.920 22.056,19.491 21.760,19.500 21.760 C 19.509 21.760,20.080 22.056,20.769 22.418 C 21.457 22.780,22.048 23.086,22.082 23.099 C 22.133 23.118,22.099 22.862,21.894 21.661 L 21.644 20.199 22.492 19.368 C 22.958 18.910,23.439 18.444,23.559 18.331 C 23.772 18.133,23.776 18.125,23.679 18.103 C 23.625 18.091,22.961 17.991,22.205 17.882 C 21.449 17.773,20.825 17.678,20.820 17.672 C 20.815 17.665,20.521 17.070,20.168 16.350 C 19.815 15.630,19.515 15.040,19.500 15.040 C 19.486 15.040,19.185 15.630,18.831 16.350 " stroke="none" fill-rule="evenodd" fill="black"></path></svg>