<svg viewBox="0 0 24 24" xmlns="http://www.w3.org/2000/svg"><path d="M2.664 3.063 C 2.436 3.146,2.257 3.297,2.131 3.511 L 2.020 3.700 2.020 12.000 L 2.020 20.300 2.131 20.489 C 2.192 20.592,2.301 20.723,2.374 20.778 C 2.682 21.013,2.303 21.000,8.925 21.000 L 15.000 21.000 15.000 20.000 L 15.000 19.000 9.500 19.000 L 4.000 19.000 4.000 13.115 C 4.000 7.590,4.004 7.234,4.068 7.285 C 4.105 7.315,5.916 8.910,8.093 10.830 C 10.269 12.750,12.061 14.320,12.075 14.319 C 12.089 14.318,13.873 12.729,16.040 10.787 L 19.980 7.256 19.990 10.628 L 20.000 14.000 21.000 14.000 L 22.000 14.000 22.000 8.927 C 22.000 3.226,22.021 3.619,21.701 3.299 C 21.375 2.972,22.267 3.000,11.983 3.003 C 4.135 3.005,2.798 3.014,2.664 3.063 M19.360 5.128 C 17.666 6.654,12.102 11.624,12.077 11.633 C 12.052 11.642,6.380 6.674,4.542 5.034 C 4.521 5.015,7.878 5.001,12.002 5.001 L 19.500 5.002 19.360 5.128 M17.160 16.180 L 16.461 16.880 17.520 17.940 L 18.579 19.000 17.520 20.060 L 16.460 21.120 17.170 21.830 L 17.880 22.540 18.940 21.480 L 20.000 20.421 21.060 21.480 L 22.120 22.540 22.830 21.830 L 23.540 21.120 22.480 20.060 L 21.421 19.000 22.480 17.940 L 23.540 16.880 22.830 16.170 L 22.120 15.460 21.060 16.520 L 20.000 17.579 18.950 16.530 C 18.372 15.952,17.890 15.480,17.879 15.480 C 17.868 15.480,17.544 15.795,17.160 16.180 " stroke="none" fill-rule="evenodd" fill="black"></path></svg>