<svg viewBox="0 0 24 24" xmlns="http://www.w3.org/2000/svg"><path d="M18.857 3.125 C 18.667 3.327,18.130 3.750,17.721 4.019 C 16.280 4.968,14.204 5.807,11.770 6.425 L 11.000 6.620 11.000 12.005 L 11.000 17.390 11.390 17.480 C 12.891 17.825,14.827 18.482,16.093 19.076 C 17.180 19.586,18.371 20.361,18.857 20.876 L 18.975 21.000 19.560 21.000 C 20.260 21.000,20.453 20.950,20.701 20.701 C 21.012 20.390,21.000 20.539,21.000 17.042 L 21.000 13.939 21.196 13.869 C 21.483 13.767,21.865 13.497,22.050 13.264 C 22.266 12.992,22.394 12.705,22.470 12.319 C 22.527 12.029,22.527 11.971,22.470 11.681 C 22.394 11.295,22.266 11.008,22.050 10.736 C 21.865 10.503,21.483 10.233,21.196 10.131 L 21.000 10.061 21.000 6.958 C 21.000 3.461,21.012 3.610,20.701 3.299 C 20.453 3.050,20.260 3.000,19.560 3.000 L 18.975 3.000 18.857 3.125 M4.580 7.047 C 3.859 7.185,3.199 7.848,3.044 8.592 C 2.983 8.887,2.983 15.113,3.044 15.408 C 3.201 16.158,3.842 16.799,4.592 16.956 C 4.709 16.980,5.073 17.000,5.402 17.000 C 5.731 17.000,6.000 17.005,6.000 17.011 C 6.000 17.030,6.957 21.815,6.980 21.910 L 7.002 22.000 8.001 22.000 L 9.000 22.000 9.000 14.500 L 9.000 7.000 6.890 7.004 C 5.730 7.007,4.690 7.026,4.580 7.047 " stroke="none" fill-rule="evenodd" fill="black"></path></svg>