<svg viewBox="0 0 24 24" xmlns="http://www.w3.org/2000/svg"><path d="M13.000 5.775 L 13.000 11.000 18.220 11.000 L 23.440 11.000 23.440 10.875 C 23.440 10.612,23.312 9.874,23.156 9.240 C 22.722 7.474,21.903 5.888,20.709 4.499 C 19.258 2.811,17.223 1.513,15.120 0.935 C 14.567 0.783,13.737 0.621,13.290 0.578 L 13.000 0.550 13.000 5.775 M10.700 2.091 C 9.567 2.216,8.154 2.687,7.091 3.294 C 4.659 4.682,2.941 6.952,2.285 9.645 C 1.869 11.351,1.918 13.200,2.422 14.865 C 2.918 16.500,3.730 17.854,4.938 19.061 C 5.715 19.837,6.454 20.383,7.377 20.863 C 10.871 22.681,15.065 22.291,18.180 19.859 C 20.115 18.348,21.524 15.949,21.878 13.560 C 21.903 13.395,21.932 13.202,21.943 13.130 L 21.964 13.000 16.482 13.000 L 11.000 13.000 10.990 7.530 L 10.980 2.060 10.700 2.091 " stroke="none" fill-rule="evenodd" fill="black"></path></svg>