<svg viewBox="0 0 24 24" xmlns="http://www.w3.org/2000/svg"><path d="M6.664 2.063 C 6.436 2.146,6.257 2.297,6.131 2.511 L 6.020 2.700 6.008 4.350 L 5.997 6.000 11.998 6.000 L 18.000 6.000 18.000 4.427 C 18.000 2.638,17.994 2.591,17.701 2.299 C 17.381 1.979,17.786 2.000,11.983 2.003 C 7.607 2.005,6.796 2.014,6.664 2.063 M2.664 8.063 C 2.436 8.146,2.257 8.297,2.131 8.511 L 2.020 8.700 2.009 13.914 C 2.002 17.436,2.012 19.177,2.041 19.282 C 2.102 19.509,2.313 19.761,2.539 19.878 C 2.736 19.979,2.745 19.980,3.869 19.992 L 5.000 20.004 5.000 17.502 L 5.000 15.000 12.000 15.000 L 19.000 15.000 19.000 17.500 L 19.000 20.000 20.073 20.000 C 21.308 20.000,21.423 19.979,21.701 19.701 C 22.021 19.381,22.000 19.783,22.000 14.000 C 22.000 8.217,22.021 8.619,21.701 8.299 C 21.375 7.972,22.267 8.000,11.983 8.003 C 4.135 8.005,2.798 8.014,2.664 8.063 M8.000 11.000 L 8.000 12.000 6.500 12.000 L 5.000 12.000 5.000 11.000 L 5.000 10.000 6.500 10.000 L 8.000 10.000 8.000 11.000 M7.000 19.500 L 7.000 22.000 12.000 22.000 L 17.000 22.000 17.000 19.500 L 17.000 17.000 12.000 17.000 L 7.000 17.000 7.000 19.500 " stroke="none" fill-rule="evenodd" fill="black"></path></svg>