<svg viewBox="0 0 24 24" xmlns="http://www.w3.org/2000/svg"><path d="M2.664 3.063 C 2.436 3.146,2.257 3.297,2.131 3.511 L 2.020 3.700 2.009 6.850 L 1.998 10.000 6.553 10.000 L 11.108 10.000 11.192 9.710 C 11.314 9.292,11.630 8.670,11.912 8.296 C 12.525 7.484,13.403 6.902,14.420 6.635 C 14.734 6.553,14.871 6.541,15.500 6.541 C 16.129 6.541,16.266 6.553,16.580 6.635 C 17.597 6.902,18.475 7.484,19.088 8.296 C 19.370 8.670,19.686 9.292,19.808 9.710 L 19.892 10.000 20.946 10.000 L 22.000 10.000 22.000 6.927 C 22.000 3.464,22.012 3.610,21.701 3.299 C 21.375 2.972,22.267 3.000,11.983 3.003 C 4.135 3.005,2.798 3.014,2.664 3.063 M14.889 8.578 C 14.242 8.735,13.566 9.280,13.268 9.885 C 13.065 10.299,12.986 10.684,13.013 11.140 C 13.053 11.797,13.273 12.277,13.757 12.764 C 14.237 13.247,14.824 13.492,15.500 13.492 C 15.916 13.492,16.181 13.429,16.589 13.235 C 17.182 12.953,17.650 12.421,17.870 11.781 C 17.965 11.504,17.980 11.397,17.980 11.000 C 17.980 10.603,17.965 10.496,17.870 10.219 C 17.650 9.579,17.182 9.047,16.589 8.765 C 16.408 8.678,16.165 8.588,16.048 8.564 C 15.769 8.506,15.154 8.514,14.889 8.578 M2.009 16.150 L 2.020 20.300 2.131 20.489 C 2.260 20.709,2.437 20.854,2.678 20.939 C 2.830 20.993,3.916 21.000,11.998 21.000 C 22.265 21.000,21.375 21.027,21.701 20.701 C 22.017 20.385,22.000 20.654,22.000 16.073 L 22.000 12.000 20.946 12.000 L 19.892 12.000 19.808 12.290 C 19.762 12.450,19.635 12.760,19.528 12.980 C 18.288 15.511,15.044 16.283,12.787 14.584 C 12.057 14.034,11.442 13.151,11.192 12.290 L 11.108 12.000 6.553 12.000 L 1.999 12.000 2.009 16.150 " stroke="none" fill-rule="evenodd" fill="black"></path></svg>