<svg viewBox="0 0 24 24" xmlns="http://www.w3.org/2000/svg"><path d="M4.960 6.025 C 3.613 6.196,2.519 6.717,1.618 7.618 C 0.524 8.713,-0.050 10.170,0.013 11.700 C 0.071 13.128,0.616 14.379,1.619 15.381 C 2.399 16.162,3.349 16.671,4.460 16.904 C 4.805 16.977,5.113 16.980,12.000 16.980 C 18.780 16.980,19.199 16.976,19.520 16.908 C 20.666 16.663,21.595 16.167,22.381 15.381 C 23.168 14.595,23.664 13.664,23.907 12.520 C 24.009 12.042,24.008 10.955,23.905 10.480 C 23.653 9.315,23.167 8.402,22.382 7.620 C 21.585 6.827,20.624 6.318,19.499 6.095 C 19.007 5.997,17.995 5.997,17.505 6.094 C 16.366 6.320,15.413 6.824,14.619 7.618 C 13.832 8.405,13.336 9.336,13.093 10.480 C 12.990 10.962,12.992 12.042,13.096 12.540 C 13.256 13.307,13.536 13.966,13.978 14.619 L 14.237 15.000 12.000 15.000 L 9.763 15.000 10.022 14.619 C 10.351 14.133,10.530 13.775,10.700 13.266 C 10.929 12.576,10.979 12.260,10.979 11.500 C 10.979 10.740,10.929 10.424,10.700 9.734 C 10.081 7.873,8.479 6.482,6.517 6.100 C 6.186 6.036,5.236 5.990,4.960 6.025 M6.110 10.139 C 6.415 10.278,6.725 10.589,6.866 10.896 C 6.962 11.105,6.978 11.191,6.978 11.500 C 6.979 11.810,6.963 11.893,6.867 12.100 C 6.722 12.415,6.413 12.724,6.104 12.867 C 5.894 12.965,5.811 12.980,5.500 12.980 C 5.190 12.980,5.107 12.965,4.900 12.868 C 4.584 12.721,4.275 12.413,4.134 12.104 C 4.038 11.895,4.022 11.809,4.022 11.500 C 4.021 11.190,4.037 11.107,4.133 10.900 C 4.324 10.489,4.727 10.148,5.150 10.041 C 5.407 9.976,5.852 10.022,6.110 10.139 M19.110 10.139 C 19.415 10.278,19.725 10.589,19.866 10.896 C 19.962 11.105,19.978 11.191,19.978 11.500 C 19.979 11.810,19.963 11.893,19.867 12.100 C 19.722 12.415,19.413 12.724,19.104 12.867 C 18.894 12.965,18.811 12.980,18.500 12.980 C 18.190 12.980,18.107 12.965,17.900 12.868 C 17.584 12.721,17.275 12.413,17.134 12.104 C 17.038 11.895,17.022 11.809,17.022 11.500 C 17.021 11.190,17.037 11.107,17.133 10.900 C 17.324 10.489,17.727 10.148,18.150 10.041 C 18.407 9.976,18.852 10.022,19.110 10.139 " stroke="none" fill-rule="evenodd" fill="black"></path></svg>