<svg viewBox="0 0 24 24" xmlns="http://www.w3.org/2000/svg"><path d="M4.960 6.025 C 3.613 6.196,2.519 6.717,1.618 7.618 C 0.524 8.713,-0.050 10.170,0.013 11.700 C 0.071 13.128,0.616 14.379,1.619 15.381 C 2.399 16.162,3.349 16.671,4.460 16.904 C 4.805 16.977,5.113 16.980,12.000 16.980 C 18.780 16.980,19.199 16.976,19.520 16.908 C 20.666 16.663,21.595 16.167,22.381 15.381 C 23.168 14.595,23.664 13.664,23.907 12.520 C 24.009 12.042,24.008 10.955,23.905 10.480 C 23.653 9.315,23.167 8.402,22.382 7.620 C 21.585 6.827,20.624 6.318,19.499 6.095 C 19.007 5.997,17.995 5.997,17.505 6.094 C 16.366 6.320,15.413 6.824,14.619 7.618 C 13.832 8.405,13.336 9.336,13.093 10.480 C 12.990 10.962,12.992 12.042,13.096 12.540 C 13.256 13.307,13.536 13.966,13.978 14.619 L 14.237 15.000 12.000 15.000 L 9.763 15.000 10.022 14.619 C 10.351 14.133,10.530 13.775,10.700 13.266 C 10.929 12.576,10.979 12.260,10.979 11.500 C 10.979 10.740,10.929 10.424,10.700 9.734 C 10.081 7.873,8.479 6.482,6.517 6.100 C 6.186 6.036,5.236 5.990,4.960 6.025 M6.092 8.060 C 6.847 8.191,7.404 8.484,7.960 9.040 C 8.516 9.596,8.809 10.153,8.940 10.908 C 9.128 11.982,8.804 13.074,8.064 13.868 C 7.605 14.361,7.114 14.665,6.452 14.867 C 6.137 14.962,6.037 14.974,5.500 14.974 C 4.963 14.974,4.863 14.962,4.548 14.867 C 3.886 14.665,3.395 14.361,2.936 13.868 C 1.890 12.746,1.711 11.106,2.484 9.732 C 2.724 9.307,3.307 8.724,3.732 8.484 C 4.489 8.058,5.274 7.917,6.092 8.060 M19.092 8.060 C 19.847 8.191,20.404 8.484,20.960 9.040 C 21.516 9.596,21.809 10.153,21.940 10.908 C 22.128 11.982,21.804 13.074,21.064 13.868 C 20.605 14.361,20.114 14.665,19.452 14.867 C 19.137 14.962,19.037 14.974,18.500 14.974 C 17.963 14.974,17.863 14.962,17.548 14.867 C 16.886 14.665,16.395 14.361,15.936 13.868 C 15.196 13.074,14.872 11.982,15.060 10.908 C 15.191 10.153,15.484 9.596,16.040 9.040 C 16.874 8.206,17.950 7.861,19.092 8.060 " stroke="none" fill-rule="evenodd" fill="black"></path></svg>