<svg viewBox="0 0 24 24" xmlns="http://www.w3.org/2000/svg"><path d="M3.169 1.497 L 3.020 1.634 3.010 11.940 C 3.001 21.204,3.006 22.260,3.062 22.378 C 3.144 22.551,3.339 22.654,3.542 22.634 C 3.660 22.623,6.062 21.319,12.960 17.526 C 18.053 14.725,22.260 12.396,22.309 12.350 C 22.441 12.228,22.496 12.029,22.442 11.866 C 22.418 11.792,22.358 11.695,22.309 11.651 C 22.260 11.606,18.042 9.272,12.935 6.465 C 2.637 0.803,3.467 1.225,3.169 1.497 M11.933 8.197 C 15.710 10.274,18.800 11.986,18.800 12.002 C 18.800 12.027,5.063 19.600,5.018 19.600 C 5.008 19.600,5.000 18.115,5.000 16.300 L 5.000 13.000 7.500 13.000 L 10.000 13.000 10.000 12.000 L 10.000 11.000 7.500 11.000 L 5.000 11.000 5.000 7.697 C 5.000 5.880,5.015 4.399,5.033 4.407 C 5.051 4.414,8.156 6.120,11.933 8.197 " stroke="none" fill-rule="evenodd" fill="black"></path></svg>