<svg viewBox="0 0 24 24" xmlns="http://www.w3.org/2000/svg"><path d="M7.100 2.601 C 4.830 2.857,2.901 4.204,1.918 6.220 C 1.409 7.265,1.173 8.487,1.275 9.560 C 1.410 10.982,1.907 12.196,2.783 13.240 C 2.921 13.405,4.795 15.296,6.947 17.443 C 10.739 21.225,10.869 21.350,11.140 21.471 C 11.739 21.740,12.288 21.735,12.880 21.457 C 13.169 21.321,13.261 21.234,15.420 19.078 L 17.660 16.841 15.543 14.723 L 13.425 12.605 13.203 12.796 C 12.523 13.378,11.692 13.718,10.796 13.781 C 10.067 13.832,9.178 13.611,8.503 13.211 C 8.099 12.972,7.480 12.370,7.218 11.962 C 6.338 10.594,6.366 8.887,7.291 7.500 C 7.385 7.359,8.218 6.490,9.310 5.395 L 11.169 3.529 10.834 3.347 C 10.232 3.021,9.498 2.768,8.833 2.661 C 8.372 2.586,7.499 2.556,7.100 2.601 M15.580 2.603 C 15.426 2.621,15.190 2.656,15.056 2.681 L 14.812 2.727 11.870 5.673 C 8.761 8.788,8.812 8.730,8.659 9.257 C 8.566 9.579,8.593 10.171,8.716 10.489 C 8.908 10.984,9.376 11.452,9.871 11.644 C 10.189 11.767,10.781 11.794,11.103 11.701 C 11.529 11.577,11.712 11.452,12.297 10.883 C 12.949 10.249,13.078 10.176,13.492 10.209 C 13.630 10.220,13.806 10.261,13.882 10.299 C 13.958 10.338,15.159 11.505,16.550 12.894 L 19.080 15.418 19.504 14.999 C 20.547 13.966,21.408 13.030,21.645 12.670 C 22.937 10.706,23.099 8.312,22.081 6.216 C 21.316 4.641,19.916 3.427,18.240 2.886 C 17.380 2.609,16.419 2.506,15.580 2.603 " stroke="none" fill-rule="evenodd" fill="black"></path></svg>