<svg viewBox="0 0 24 24" xmlns="http://www.w3.org/2000/svg"><path d="M2.000 4.000 L 2.000 5.000 12.000 5.000 L 22.000 5.000 22.000 4.000 L 22.000 3.000 12.000 3.000 L 2.000 3.000 2.000 4.000 M2.000 13.070 C 2.000 17.817,2.014 20.189,2.042 20.289 C 2.104 20.512,2.316 20.763,2.539 20.878 L 2.738 20.980 6.869 20.991 L 11.000 21.001 11.000 22.001 L 11.000 23.000 12.000 23.000 L 13.000 23.000 13.000 22.000 L 13.000 21.000 17.073 21.000 C 21.654 21.000,21.385 21.017,21.701 20.701 C 22.025 20.377,22.000 21.014,22.000 13.073 L 22.000 6.000 12.000 6.000 L 2.000 6.000 2.000 13.070 M8.000 11.500 L 8.000 13.000 9.500 13.000 L 11.000 13.000 11.000 13.116 C 11.000 13.399,10.865 13.919,10.704 14.260 C 10.373 14.959,9.823 15.493,9.151 15.766 C 7.642 16.380,5.989 15.734,5.298 14.260 C 5.205 14.062,5.105 13.801,5.075 13.680 C 5.005 13.397,5.005 12.603,5.075 12.320 C 5.158 11.981,5.445 11.407,5.670 11.127 C 6.197 10.473,7.059 10.030,7.850 10.005 L 8.000 10.000 8.000 11.500 M19.000 11.000 L 19.000 12.000 16.000 12.000 L 13.000 12.000 13.000 11.000 L 13.000 10.000 16.000 10.000 L 19.000 10.000 19.000 11.000 M19.000 15.000 L 19.000 16.000 16.000 16.000 L 13.000 16.000 13.000 15.000 L 13.000 14.000 16.000 14.000 L 19.000 14.000 19.000 15.000 " stroke="none" fill-rule="evenodd" fill="black"></path></svg>