<svg viewBox="0 0 24 24" xmlns="http://www.w3.org/2000/svg"><path d="M2.000 4.000 L 2.000 5.000 12.000 5.000 L 22.000 5.000 22.000 4.000 L 22.000 3.000 12.000 3.000 L 2.000 3.000 2.000 4.000 M2.000 13.070 C 2.000 17.817,2.014 20.189,2.042 20.289 C 2.104 20.512,2.316 20.763,2.539 20.878 L 2.738 20.980 6.869 20.991 L 11.000 21.001 11.000 22.001 L 11.000 23.000 12.000 23.000 L 13.000 23.000 13.000 22.000 L 13.000 21.000 17.073 21.000 C 21.654 21.000,21.385 21.017,21.701 20.701 C 22.025 20.377,22.000 21.014,22.000 13.073 L 22.000 6.000 12.000 6.000 L 2.000 6.000 2.000 13.070 M20.000 13.500 L 20.000 19.000 12.000 19.000 L 4.000 19.000 4.000 13.500 L 4.000 8.000 12.000 8.000 L 20.000 8.000 20.000 13.500 M8.503 10.042 C 7.844 10.153,7.158 10.548,6.703 11.080 C 5.987 11.917,5.806 13.100,6.234 14.151 C 6.521 14.857,7.143 15.479,7.849 15.766 C 9.610 16.483,11.554 15.445,11.938 13.581 C 11.972 13.417,12.000 13.220,12.000 13.142 L 12.000 13.000 10.500 13.000 L 9.000 13.000 9.000 11.500 L 9.000 10.000 8.850 10.005 C 8.768 10.007,8.611 10.024,8.503 10.042 M13.000 11.000 L 13.000 12.000 15.500 12.000 L 18.000 12.000 18.000 11.000 L 18.000 10.000 15.500 10.000 L 13.000 10.000 13.000 11.000 M13.000 15.000 L 13.000 16.000 15.500 16.000 L 18.000 16.000 18.000 15.000 L 18.000 14.000 15.500 14.000 L 13.000 14.000 13.000 15.000 " stroke="none" fill-rule="evenodd" fill="black"></path></svg>