<svg viewBox="0 0 24 24" xmlns="http://www.w3.org/2000/svg"><path d="M2.664 3.063 C 2.436 3.146,2.257 3.297,2.131 3.511 L 2.020 3.700 2.010 10.414 C 2.002 14.963,2.012 17.178,2.041 17.282 C 2.102 17.509,2.313 17.761,2.539 17.878 L 2.738 17.980 6.869 17.991 L 11.000 18.001 11.000 19.001 L 11.000 20.000 9.000 20.000 L 7.000 20.000 7.000 21.000 L 7.000 22.000 12.000 22.000 L 17.000 22.000 17.000 21.000 L 17.000 20.000 15.000 20.000 L 13.000 20.000 13.000 19.000 L 13.000 18.000 17.073 18.000 C 21.654 18.000,21.385 18.017,21.701 17.701 C 22.024 17.378,22.000 17.963,22.000 10.500 C 22.000 3.037,22.024 3.622,21.701 3.299 C 21.375 2.972,22.267 3.000,11.983 3.003 C 4.135 3.005,2.798 3.014,2.664 3.063 M20.000 10.500 L 20.000 16.000 12.000 16.000 L 4.000 16.000 4.000 10.500 L 4.000 5.000 12.000 5.000 L 20.000 5.000 20.000 10.500 M10.000 10.497 C 10.000 12.138,10.008 13.480,10.017 13.480 C 10.031 13.480,14.963 10.528,14.988 10.505 C 14.997 10.497,10.095 7.550,10.035 7.527 C 10.015 7.519,10.000 8.818,10.000 10.497 " stroke="none" fill-rule="evenodd" fill="black"></path></svg>