<svg viewBox="0 0 24 24" xmlns="http://www.w3.org/2000/svg"><path d="M2.000 3.000 L 2.000 4.000 2.500 4.000 L 3.000 4.000 3.000 10.070 C 3.000 14.128,3.014 16.189,3.042 16.289 C 3.104 16.512,3.316 16.763,3.539 16.878 L 3.738 16.980 7.369 16.991 L 11.000 17.001 11.000 18.501 L 11.000 20.000 8.500 20.000 L 6.000 20.000 6.000 21.000 L 6.000 22.000 12.000 22.000 L 18.000 22.000 18.000 21.000 L 18.000 20.000 15.500 20.000 L 13.000 20.000 13.000 18.500 L 13.000 17.000 16.573 17.000 C 20.595 17.000,20.387 17.015,20.701 16.701 C 21.023 16.379,21.000 16.894,21.000 10.073 L 21.000 4.000 21.500 4.000 L 22.000 4.000 22.000 3.000 L 22.000 2.000 12.000 2.000 L 2.000 2.000 2.000 3.000 M12.722 7.906 C 13.943 8.761,14.948 9.475,14.953 9.493 C 14.959 9.511,13.959 10.228,12.732 11.087 C 11.504 11.946,10.388 12.729,10.250 12.826 L 10.000 13.004 10.000 9.500 L 10.000 5.996 10.250 6.174 C 10.388 6.271,11.500 7.051,12.722 7.906 " stroke="none" fill-rule="evenodd" fill="black"></path></svg>