<svg fill="currentColor" viewBox="0 0 256 256" xmlns="http://www.w3.org/2000/svg"><path d="M100.575 11.151 C 97.192 13.674,97.398 18.858,100.973 21.203 C 102.002 21.879,103.368 21.990,112.087 22.108 L 122.027 22.243 122.027 40.127 L 122.027 58.011 79.253 58.125 L 36.480 58.240 34.467 59.170 C 31.623 60.484,28.436 63.618,27.261 66.255 C 26.499 67.966,26.266 69.268,26.255 71.893 L 26.240 75.307 39.542 111.787 C 46.858 131.851,53.154 149.000,53.533 149.895 C 54.502 152.185,57.395 155.180,59.930 156.518 L 62.080 157.653 80.107 157.777 L 98.133 157.902 98.133 191.860 C 98.133 225.163,98.150 225.846,98.993 227.211 C 101.379 231.071,107.213 230.687,109.333 226.530 C 110.024 225.174,110.079 222.612,110.079 191.467 L 110.080 157.867 128.000 157.867 L 145.920 157.867 145.921 191.467 C 145.921 222.612,145.976 225.174,146.667 226.530 C 148.787 230.687,154.621 231.071,157.007 227.211 C 157.850 225.846,157.867 225.163,157.867 191.860 L 157.867 157.902 175.893 157.777 L 193.920 157.653 196.070 156.518 C 198.585 155.191,201.599 152.080,202.540 149.841 C 202.903 148.975,209.165 131.947,216.453 112.000 L 229.706 75.733 229.729 72.107 C 229.747 69.264,229.553 68.049,228.834 66.485 C 227.536 63.663,224.738 60.803,221.927 59.422 L 219.520 58.240 176.747 58.125 L 133.973 58.011 133.973 40.127 L 133.973 22.243 143.913 22.108 C 152.632 21.990,153.998 21.879,155.027 21.203 C 158.636 18.836,158.806 13.585,155.354 11.127 C 154.125 10.252,153.766 10.240,127.934 10.254 C 102.133 10.267,101.743 10.280,100.575 11.151 M89.772 107.414 C 93.504 128.006,96.644 145.093,96.751 145.387 C 96.904 145.807,93.610 145.920,81.178 145.920 C 66.689 145.920,65.361 145.860,64.778 145.173 C 64.152 144.437,37.972 72.792,37.973 71.817 C 37.973 71.541,38.275 71.013,38.644 70.644 C 39.236 70.052,41.867 69.973,61.150 69.974 L 82.987 69.975 89.772 107.414 M160.748 70.507 C 160.640 70.800,157.508 87.888,153.787 108.480 L 147.023 145.920 127.998 145.920 L 108.974 145.920 102.208 108.480 C 98.487 87.888,95.355 70.800,95.249 70.507 C 95.095 70.083,101.826 69.973,128.000 69.973 C 154.176 69.973,160.904 70.083,160.748 70.507 M217.356 70.644 C 217.725 71.013,218.022 71.541,218.017 71.817 C 218.000 72.725,191.726 144.582,191.164 145.259 C 190.687 145.834,188.562 145.920,174.835 145.920 C 162.392 145.920,159.096 145.807,159.249 145.387 C 159.356 145.093,162.496 128.006,166.228 107.414 L 173.013 69.975 194.850 69.974 C 214.133 69.973,216.764 70.052,217.356 70.644 " stroke="none" fill-rule="evenodd"></path></svg>