<svg fill="currentColor" viewBox="0 0 256 256" xmlns="http://www.w3.org/2000/svg"><path d="M85.053 50.364 C 79.550 51.453,75.334 55.966,74.227 61.953 C 73.653 65.060,73.693 65.215,79.561 82.766 C 82.266 90.859,84.480 97.627,84.480 97.806 C 84.480 97.986,78.671 98.133,71.570 98.133 L 58.661 98.133 47.357 86.798 C 41.140 80.564,35.535 75.188,34.901 74.852 C 34.045 74.397,32.070 74.240,27.221 74.240 C 20.931 74.241,20.600 74.285,18.124 75.456 C 14.882 76.990,11.863 80.247,10.835 83.319 C 9.338 87.792,9.506 88.589,17.696 115.840 C 21.857 129.685,25.909 142.423,26.701 144.145 C 30.114 151.572,36.667 158.279,44.160 162.017 C 47.448 163.657,51.534 164.976,55.040 165.529 C 56.871 165.818,88.969 165.968,149.547 165.969 C 236.035 165.972,241.365 165.929,242.759 165.226 C 243.572 164.816,244.628 163.808,245.105 162.987 C 245.936 161.558,245.972 160.831,245.947 146.133 C 245.921 130.949,245.908 130.726,244.806 126.642 C 240.880 112.100,229.701 101.598,215.109 98.745 C 212.556 98.246,205.943 98.133,179.268 98.133 L 146.557 98.133 122.879 74.447 C 104.331 55.893,98.876 50.670,97.707 50.342 C 95.941 49.848,87.588 49.863,85.053 50.364 M116.688 85.316 C 132.899 101.511,140.651 108.968,141.746 109.422 C 143.130 109.996,147.661 110.080,177.198 110.080 C 209.527 110.080,211.213 110.118,214.359 110.923 C 216.172 111.386,218.842 112.388,220.294 113.149 C 223.975 115.077,228.944 120.136,230.942 123.991 C 233.482 128.887,233.800 131.027,233.807 143.253 L 233.813 154.027 145.988 154.027 C 60.550 154.027,58.075 154.004,54.936 153.201 C 47.269 151.241,41.270 146.462,37.766 139.526 C 36.718 137.451,22.187 89.436,22.187 88.047 C 22.187 86.571,23.065 86.187,26.435 86.187 L 29.659 86.187 40.963 97.536 C 47.180 103.779,52.884 109.155,53.640 109.483 C 54.750 109.966,58.732 110.080,74.453 110.080 C 95.648 110.080,95.903 110.053,97.607 107.661 C 99.511 104.986,99.488 104.876,92.602 84.272 C 89.073 73.715,86.187 64.556,86.187 63.920 C 86.187 62.358,87.153 61.895,90.448 61.880 L 93.216 61.867 116.688 85.316 M70.171 210.374 C 65.571 211.711,64.708 218.523,68.821 221.031 C 70.162 221.848,71.542 221.863,144.000 221.863 C 216.458 221.863,217.838 221.848,219.179 221.031 C 223.400 218.457,222.413 211.677,217.624 210.346 C 215.694 209.810,72.017 209.837,70.171 210.374 " stroke="none" fill-rule="evenodd"></path></svg>