<svg fill="currentColor" viewBox="0 0 256 256" xmlns="http://www.w3.org/2000/svg"><path d="M120.533 18.346 C 104.711 19.677,89.446 24.963,76.219 33.690 C 56.904 46.435,42.393 66.812,36.936 88.851 C 34.644 98.108,34.356 100.668,34.376 111.573 C 34.392 120.977,34.487 122.267,35.538 127.360 C 39.135 144.794,46.104 161.440,57.338 179.430 C 64.893 191.527,72.802 201.589,82.764 211.775 C 101.145 230.570,118.051 239.566,131.584 237.756 C 140.407 236.575,150.884 231.312,161.568 222.694 C 166.219 218.942,178.709 206.362,183.282 200.824 C 202.105 178.025,215.448 151.660,220.462 127.360 C 221.513 122.265,221.607 120.980,221.623 111.573 C 221.641 100.653,221.282 97.501,219.027 88.747 C 212.306 62.662,194.698 40.685,170.677 28.398 C 155.416 20.591,137.214 16.943,120.533 18.346 M139.947 30.991 C 162.913 34.299,183.385 47.288,196.344 66.773 C 199.736 71.874,204.018 80.650,205.815 86.187 C 213.597 110.161,210.156 133.450,194.536 162.535 C 178.573 192.257,153.560 218.387,135.040 224.686 C 130.285 226.303,125.705 226.302,120.960 224.682 C 98.914 217.155,68.620 182.191,54.381 147.840 C 46.293 128.328,44.307 112.227,47.855 94.933 C 51.221 78.532,60.789 62.005,73.321 50.949 C 91.868 34.586,115.584 27.482,139.947 30.991 M75.419 98.779 C 73.027 99.658,70.078 101.837,68.693 103.748 C 66.548 106.710,65.990 109.162,66.245 114.520 C 67.015 130.702,78.578 144.638,94.642 148.747 C 100.061 150.133,105.536 150.292,108.800 149.158 C 112.060 148.025,116.025 144.060,117.158 140.800 C 118.292 137.536,118.133 132.061,116.747 126.642 C 113.076 112.288,101.724 101.603,87.109 98.745 C 83.223 97.986,77.535 98.002,75.419 98.779 M168.533 98.756 C 160.964 100.335,154.984 103.598,149.342 109.227 C 142.020 116.533,138.313 124.976,138.104 134.827 C 137.995 139.981,138.917 142.406,142.255 145.745 C 145.640 149.129,148.000 150.007,153.387 149.889 C 162.454 149.688,171.385 145.902,178.289 139.331 C 185.321 132.638,189.335 123.885,189.745 114.347 C 190.007 108.264,189.208 105.663,186.101 102.482 C 182.978 99.283,180.682 98.363,175.573 98.262 C 173.227 98.215,170.059 98.438,168.533 98.756 M86.359 110.923 C 91.175 112.155,94.452 114.050,98.152 117.746 C 101.790 121.378,104.129 125.387,105.157 129.751 C 105.924 133.003,106.013 137.213,105.324 137.639 C 104.543 138.121,100.291 137.843,97.537 137.129 C 96.145 136.769,93.742 135.863,92.196 135.117 C 88.543 133.353,83.078 128.001,81.143 124.294 C 78.710 119.631,77.272 111.912,78.592 110.592 C 79.353 109.831,82.637 109.971,86.359 110.923 M177.408 110.592 C 178.728 111.912,177.290 119.631,174.857 124.294 C 172.922 128.001,167.457 133.353,163.804 135.117 C 162.258 135.863,159.855 136.769,158.463 137.129 C 155.709 137.843,151.457 138.121,150.676 137.639 C 149.987 137.213,150.076 133.003,150.843 129.751 C 152.347 123.368,157.917 116.182,163.713 113.145 C 168.388 110.696,176.078 109.262,177.408 110.592 M109.426 178.772 C 107.302 179.824,106.098 181.771,106.098 184.153 C 106.098 186.269,107.029 187.873,108.930 189.032 C 110.223 189.821,111.200 189.863,128.000 189.863 C 144.800 189.863,145.777 189.821,147.070 189.032 C 148.971 187.873,149.902 186.269,149.902 184.153 C 149.902 181.755,148.683 179.801,146.541 178.764 C 144.894 177.967,143.865 177.920,127.972 177.920 C 112.017 177.921,111.058 177.965,109.426 178.772 " stroke="none" fill-rule="evenodd"></path></svg>