<svg fill="currentColor" viewBox="0 0 256 256" xmlns="http://www.w3.org/2000/svg"><path d="M222.141 50.345 C 221.470 50.554,220.539 51.071,220.070 51.494 C 217.916 53.444,218.027 49.309,218.027 128.129 L 218.027 201.687 218.995 203.137 C 221.645 207.103,227.084 206.837,229.226 202.636 C 229.928 201.260,229.972 196.822,229.972 128.000 C 229.972 59.178,229.928 54.740,229.226 53.364 C 227.897 50.756,224.912 49.485,222.141 50.345 M28.557 82.501 C 24.202 83.681,21.235 86.213,19.238 90.453 L 18.133 92.800 18.133 128.000 L 18.133 163.200 19.243 165.566 C 20.827 168.943,22.701 170.873,25.947 172.471 L 28.782 173.867 107.084 173.980 C 184.455 174.092,185.420 174.083,188.218 173.236 C 191.795 172.152,194.872 169.507,196.565 166.060 L 197.760 163.627 197.760 128.000 C 197.760 92.389,197.760 92.372,196.838 90.378 C 195.462 87.401,192.810 84.774,189.759 83.364 L 187.093 82.133 108.800 82.053 C 47.658 81.990,30.079 82.088,28.557 82.501 M185.078 94.531 L 186.027 95.195 186.027 127.884 C 186.027 157.703,185.965 160.641,185.321 161.353 C 184.641 162.103,181.684 162.133,108.094 162.133 C 32.142 162.133,31.567 162.127,30.720 161.280 C 29.882 160.442,29.867 159.858,29.867 128.000 C 29.867 96.142,29.882 95.558,30.720 94.720 C 31.567 93.873,32.142 93.867,107.852 93.867 C 176.199 93.867,184.229 93.936,185.078 94.531 " stroke="none" fill-rule="evenodd"></path></svg>