<svg fill="currentColor" viewBox="0 0 256 256" xmlns="http://www.w3.org/2000/svg"><path d="M36.821 34.969 C 32.794 37.424,33.400 43.597,37.853 45.495 C 39.903 46.369,216.097 46.369,218.147 45.495 C 220.358 44.553,221.537 42.962,221.762 40.618 C 222.006 38.080,221.126 36.157,219.179 34.969 C 217.836 34.150,216.327 34.137,128.000 34.137 C 39.673 34.137,38.164 34.150,36.821 34.969 M60.160 66.532 C 56.441 67.668,52.742 70.942,51.055 74.592 L 50.133 76.587 50.019 146.987 C 49.906 216.469,49.916 217.424,50.763 220.218 C 51.848 223.796,54.494 226.873,57.940 228.565 L 60.373 229.760 83.148 229.881 C 108.646 230.017,108.569 230.024,112.427 227.088 C 115.217 224.963,117.134 221.731,117.755 218.101 C 118.110 216.025,118.205 196.527,118.107 146.124 L 117.973 76.995 116.571 74.147 C 114.888 70.727,112.217 68.222,108.953 67.001 C 106.724 66.167,105.763 66.135,83.931 66.170 C 71.443 66.190,60.747 66.353,60.160 66.532 M146.902 67.023 C 143.722 68.256,140.764 71.085,139.268 74.325 L 138.027 77.013 138.027 128.000 L 138.027 178.987 139.268 181.675 C 140.797 184.986,143.753 187.767,147.060 189.004 C 149.381 189.872,150.009 189.891,172.746 189.774 L 196.053 189.653 198.204 188.518 C 200.820 187.137,203.702 184.098,204.945 181.408 L 205.867 179.413 205.867 128.000 L 205.867 76.587 204.945 74.592 C 203.702 71.902,200.820 68.863,198.204 67.482 L 196.053 66.347 172.587 66.255 C 149.961 66.167,149.041 66.194,146.902 67.023 M105.301 78.592 C 106.046 79.337,106.046 216.770,105.301 217.515 C 104.917 217.899,99.599 218.027,83.992 218.027 L 63.195 218.027 62.531 217.078 C 61.936 216.230,61.867 208.951,61.867 147.776 C 61.867 86.204,61.933 79.354,62.537 78.750 C 63.128 78.159,65.667 78.080,83.998 78.080 C 99.600 78.080,104.917 78.208,105.301 78.592 M193.280 78.498 C 193.843 78.853,193.920 84.822,193.920 128.000 C 193.920 171.178,193.843 177.147,193.280 177.502 C 192.272 178.140,151.340 178.049,150.699 177.408 C 149.955 176.665,149.955 79.335,150.699 78.592 C 151.340 77.951,192.272 77.860,193.280 78.498 " stroke="none" fill-rule="evenodd"></path></svg>