<svg fill="currentColor" viewBox="0 0 256 256" xmlns="http://www.w3.org/2000/svg"><path d="M124.668 43.104 C 122.072 44.687,122.027 45.051,122.027 64.400 L 122.027 81.894 83.307 82.014 C 44.649 82.133,44.583 82.135,42.592 83.055 C 39.902 84.298,36.863 87.180,35.482 89.796 L 34.347 91.947 34.347 128.000 L 34.347 164.053 35.482 166.204 C 36.863 168.820,39.902 171.702,42.592 172.945 C 44.584 173.865,44.647 173.867,83.307 173.984 L 122.027 174.102 122.027 191.691 C 122.028 207.587,122.100 209.422,122.774 210.759 C 124.842 214.858,131.158 214.858,133.226 210.759 C 133.900 209.422,133.972 207.587,133.973 191.691 L 133.973 174.102 172.693 173.984 C 211.353 173.867,211.416 173.865,213.408 172.945 C 216.098 171.702,219.137 168.820,220.518 166.204 L 221.653 164.053 221.653 128.000 L 221.653 91.947 220.518 89.796 C 219.137 87.180,216.098 84.298,213.408 83.055 C 211.417 82.135,211.351 82.133,172.693 82.014 L 133.973 81.894 133.973 64.400 C 133.973 45.051,133.928 44.687,131.332 43.104 C 129.475 41.972,126.525 41.972,124.668 43.104 M209.250 94.537 C 209.847 95.135,209.920 98.758,209.920 128.000 C 209.920 157.242,209.847 160.865,209.250 161.463 C 208.645 162.068,200.685 162.133,128.000 162.133 C 55.315 162.133,47.355 162.068,46.750 161.463 C 46.153 160.865,46.080 157.242,46.080 128.000 C 46.080 98.758,46.153 95.135,46.750 94.537 C 47.355 93.932,55.315 93.867,128.000 93.867 C 200.685 93.867,208.645 93.932,209.250 94.537 " stroke="none" fill-rule="evenodd"></path></svg>