<svg fill="currentColor" viewBox="0 0 256 256" xmlns="http://www.w3.org/2000/svg"><path d="M212.863 35.102 C 212.066 35.635,211.078 36.739,210.667 37.555 C 209.964 38.955,209.921 44.153,209.921 127.907 C 209.920 202.237,210.016 216.999,210.505 218.147 C 211.447 220.358,213.038 221.537,215.382 221.762 C 217.920 222.006,219.843 221.126,221.031 219.179 C 221.850 217.836,221.863 216.327,221.863 128.000 C 221.863 39.673,221.850 38.164,221.031 36.821 C 219.372 34.100,215.563 33.298,212.863 35.102 M76.939 50.360 C 73.253 51.100,69.430 54.106,67.482 57.796 L 66.347 59.947 66.226 83.254 C 66.109 105.991,66.128 106.619,66.996 108.940 C 68.233 112.247,71.014 115.203,74.325 116.732 L 77.013 117.973 128.009 117.973 L 179.005 117.973 181.853 116.571 C 185.285 114.882,187.779 112.215,189.013 108.917 C 189.870 106.626,189.891 105.918,189.774 83.254 L 189.653 59.947 188.518 57.796 C 187.137 55.180,184.098 52.298,181.408 51.055 L 179.413 50.133 129.067 50.068 C 101.376 50.033,77.919 50.164,76.939 50.360 M177.250 62.537 C 177.841 63.128,177.920 65.672,177.920 84.060 L 177.920 104.912 176.972 105.576 C 176.127 106.167,170.774 106.240,128.000 106.240 C 85.226 106.240,79.873 106.167,79.028 105.576 L 78.080 104.912 78.080 84.060 C 78.080 65.672,78.159 63.128,78.750 62.537 C 79.352 61.935,84.406 61.867,128.000 61.867 C 171.594 61.867,176.648 61.935,177.250 62.537 M35.286 138.855 C 32.742 139.763,30.422 141.491,28.799 143.686 C 25.985 147.495,25.984 147.504,26.119 172.852 L 26.240 195.627 27.435 198.060 C 29.127 201.506,32.204 204.152,35.782 205.237 C 38.576 206.084,39.531 206.094,109.013 205.981 L 179.413 205.867 181.408 204.945 C 184.098 203.702,187.137 200.820,188.518 198.204 L 189.653 196.053 189.774 172.746 C 189.891 150.082,189.870 149.374,189.013 147.083 C 187.821 143.898,185.293 141.140,182.106 139.547 L 179.490 138.240 108.199 138.259 C 49.348 138.274,36.624 138.378,35.286 138.855 M177.408 150.699 C 177.792 151.083,177.920 156.400,177.920 172.002 C 177.920 190.333,177.841 192.872,177.250 193.463 C 176.646 194.067,169.781 194.133,108.056 194.133 C 44.894 194.133,39.473 194.078,38.754 193.427 C 38.018 192.762,37.973 191.531,37.973 171.966 C 37.973 156.392,38.101 151.083,38.485 150.699 C 39.230 149.954,176.663 149.954,177.408 150.699 " stroke="none" fill-rule="evenodd"></path></svg>