<svg fill="currentColor" viewBox="0 0 256 256" xmlns="http://www.w3.org/2000/svg"><path d="M77.682 46.436 C 42.810 60.983,28.519 67.138,27.673 67.972 C 27.021 68.614,26.361 69.819,26.205 70.651 C 26.019 71.642,28.672 92.886,33.916 132.401 C 40.488 181.918,42.073 192.982,42.822 194.560 L 43.733 196.480 85.232 217.280 C 112.161 230.778,127.176 238.080,128.000 238.080 C 128.824 238.080,143.839 230.778,170.768 217.280 L 212.267 196.480 213.180 194.560 C 213.933 192.977,215.495 182.052,222.076 132.346 C 227.080 94.548,229.957 71.511,229.786 70.603 C 229.637 69.805,228.973 68.618,228.312 67.963 C 226.730 66.397,130.000 26.017,127.902 26.047 C 127.063 26.059,107.048 34.185,77.682 46.436 M172.746 57.136 L 217.173 75.658 217.144 76.976 C 217.128 77.700,213.816 102.965,209.784 133.120 L 202.453 187.947 165.227 206.615 L 128.000 225.284 90.773 206.615 L 53.547 187.947 46.207 133.120 C 42.170 102.965,38.858 77.701,38.847 76.977 L 38.827 75.660 83.307 57.078 C 107.771 46.857,127.906 38.522,128.053 38.554 C 128.199 38.587,148.311 46.948,172.746 57.136 M125.602 82.533 C 124.869 82.852,123.795 83.756,123.214 84.543 C 121.849 86.393,82.836 156.706,82.263 158.349 C 80.359 163.812,87.838 168.394,91.978 164.301 C 92.665 163.622,95.819 158.350,98.987 152.586 L 104.747 142.106 128.000 142.105 L 151.253 142.104 155.733 150.271 C 162.997 163.513,163.618 164.491,165.266 165.273 C 166.078 165.658,167.405 165.973,168.215 165.973 C 171.314 165.973,174.311 162.600,173.938 159.531 C 173.817 158.533,166.619 145.152,153.394 121.344 C 142.198 101.186,132.720 84.331,132.332 83.888 C 131.471 82.904,129.226 81.914,127.907 81.937 C 127.372 81.946,126.334 82.214,125.602 82.533 M136.213 115.146 C 140.613 123.087,144.213 129.708,144.213 129.859 C 144.213 130.010,136.917 130.133,128.000 130.133 C 119.083 130.133,111.787 130.010,111.787 129.859 C 111.787 129.429,127.761 100.708,128.000 100.708 C 128.117 100.708,131.813 107.205,136.213 115.146 " stroke="none" fill-rule="evenodd"></path></svg>