<svg fill="currentColor" viewBox="0 0 256 256" xmlns="http://www.w3.org/2000/svg"><path d="M122.027 26.923 C 102.115 28.092,83.341 35.089,66.881 47.475 C 36.524 70.319,21.491 108.759,28.182 146.429 C 35.352 186.801,66.144 219.006,106.240 228.069 C 120.509 231.294,136.771 231.294,151.040 228.069 C 170.567 223.655,187.667 214.006,201.820 199.413 C 246.447 153.401,237.898 78.167,184.058 43.099 C 165.777 31.192,144.375 25.611,122.027 26.923 M133.410 64.981 C 138.619 79.566,142.822 91.561,142.748 91.634 C 142.592 91.790,55.338 75.919,55.082 75.688 C 54.693 75.337,60.241 68.628,64.213 64.646 C 77.259 51.568,93.909 42.763,111.811 39.476 C 115.522 38.795,123.349 38.027,123.728 38.308 C 123.843 38.392,128.200 50.395,133.410 64.981 M145.139 39.713 C 164.194 43.199,182.933 53.909,195.413 68.446 C 199.636 73.364,203.606 78.948,203.352 79.610 C 203.060 80.371,167.250 122.455,166.903 122.445 C 166.744 122.441,159.870 103.521,151.629 80.401 L 136.644 38.364 138.615 38.622 C 139.700 38.764,142.635 39.255,145.139 39.713 M78.068 92.192 C 92.258 94.781,103.903 96.937,103.946 96.983 C 103.989 97.029,91.542 111.755,76.286 129.707 C 61.031 147.659,48.001 163.005,47.332 163.809 L 46.115 165.272 45.198 163.169 C 39.829 150.855,37.265 135.153,38.374 121.387 C 39.243 110.604,42.121 99.360,46.236 90.672 L 48.116 86.705 50.191 87.095 C 51.333 87.309,63.877 89.602,78.068 92.192 M210.835 92.907 C 216.174 105.147,218.746 120.957,217.618 134.613 C 216.714 145.559,213.872 156.654,209.735 165.387 C 208.017 169.015,207.731 169.390,206.847 169.179 C 206.308 169.050,193.796 166.750,179.044 164.067 C 164.291 161.384,152.158 159.127,152.082 159.051 C 151.951 158.920,209.567 90.915,209.828 90.891 C 209.896 90.885,210.348 91.792,210.835 92.907 M132.907 102.198 C 140.181 103.498,146.498 104.710,146.944 104.891 C 148.144 105.380,157.996 133.063,157.293 133.973 C 157.022 134.325,152.596 139.571,147.459 145.631 C 139.748 154.726,137.960 156.613,137.219 156.446 C 136.724 156.334,130.176 155.136,122.667 153.783 C 115.157 152.430,108.796 151.115,108.530 150.862 C 108.264 150.608,105.927 144.448,103.337 137.173 C 100.748 129.899,98.507 123.637,98.358 123.260 C 98.167 122.775,100.988 119.164,107.945 110.990 C 116.300 101.173,117.946 99.440,118.741 99.622 C 119.258 99.739,125.632 100.899,132.907 102.198 M104.352 175.688 C 112.499 198.514,119.059 217.296,118.930 217.426 C 118.800 217.555,116.265 217.251,113.295 216.749 C 95.320 213.714,79.676 205.997,66.297 193.567 C 60.947 188.596,52.198 177.564,52.657 176.367 C 53.140 175.108,88.875 133.505,89.193 133.832 C 89.383 134.027,96.204 152.862,104.352 175.688 M157.867 172.398 C 181.451 176.682,200.824 180.249,200.918 180.326 C 201.310 180.648,195.756 187.369,191.918 191.217 C 180.005 203.162,165.997 211.137,149.650 215.281 C 145.092 216.437,138.692 217.461,134.671 217.678 L 132.169 217.813 122.628 191.147 C 117.381 176.480,113.083 164.411,113.077 164.327 C 113.071 164.243,113.499 164.272,114.027 164.393 C 114.555 164.513,134.283 168.115,157.867 172.398 " stroke="none" fill-rule="evenodd"></path></svg>