<svg fill="currentColor" viewBox="0 0 256 256" xmlns="http://www.w3.org/2000/svg"><path d="M35.286 42.853 C 32.739 43.765,30.421 45.492,28.799 47.686 C 25.816 51.724,26.005 45.960,26.129 128.872 L 26.240 203.733 27.202 205.686 C 28.766 208.858,30.933 211.041,34.036 212.569 L 36.889 213.973 128.000 213.973 L 219.111 213.973 221.964 212.569 C 225.066 211.042,227.185 208.908,228.776 205.711 L 229.760 203.733 229.760 128.000 L 229.760 52.267 228.776 50.289 C 227.336 47.394,225.251 45.155,222.660 43.720 L 220.373 42.453 128.640 42.363 C 52.229 42.288,36.636 42.370,35.286 42.853 M217.549 54.765 C 217.902 55.190,218.000 74.718,217.921 128.246 L 217.813 201.148 216.747 201.688 C 215.179 202.481,40.821 202.481,39.253 201.688 L 38.187 201.148 38.079 128.246 C 38.000 74.718,38.098 55.190,38.451 54.765 C 39.168 53.901,216.832 53.901,217.549 54.765 M63.542 75.084 C 57.760 78.140,56.265 85.538,60.443 90.419 C 64.529 95.193,72.049 95.029,75.828 90.083 C 79.862 84.806,77.900 77.371,71.800 74.815 C 69.779 73.968,65.382 74.111,63.542 75.084 M102.826 75.627 C 94.297 80.748,98.063 93.867,108.063 93.867 C 114.600 93.867,119.403 87.576,117.592 81.387 C 116.247 76.792,112.786 74.240,107.900 74.240 C 105.539 74.240,104.798 74.443,102.826 75.627 " stroke="none" fill-rule="evenodd"></path></svg>