<svg fill="currentColor" viewBox="0 0 256 256" xmlns="http://www.w3.org/2000/svg"><path d="M52.863 35.093 C 51.634 35.908,50.104 38.646,42.795 53.120 L 34.177 70.187 34.155 140.464 L 34.133 210.741 35.052 213.197 C 36.292 216.512,39.488 219.708,42.803 220.948 L 45.259 221.867 128.000 221.867 L 210.741 221.867 213.138 220.970 C 216.379 219.757,219.757 216.379,220.970 213.138 L 221.867 210.741 221.845 140.464 L 221.823 70.187 213.205 53.120 C 205.896 38.646,204.366 35.908,203.137 35.093 L 201.687 34.133 128.000 34.133 L 54.313 34.133 52.863 35.093 M201.172 55.890 C 203.871 61.285,206.080 65.797,206.080 65.916 C 206.080 66.036,170.944 66.133,128.000 66.133 C 85.056 66.133,49.920 66.036,49.920 65.916 C 49.920 65.797,52.129 61.285,54.828 55.890 L 59.737 46.080 128.000 46.080 L 196.263 46.080 201.172 55.890 M209.920 143.488 C 209.920 193.792,209.802 209.014,209.408 209.408 C 208.663 210.153,47.337 210.153,46.592 209.408 C 46.198 209.014,46.080 193.792,46.080 143.488 L 46.080 78.080 128.000 78.080 L 209.920 78.080 209.920 143.488 M124.800 98.981 C 121.881 100.902,122.027 98.958,122.027 136.097 L 122.027 169.594 110.827 158.442 C 104.667 152.308,99.207 147.078,98.695 146.818 C 98.182 146.559,96.893 146.347,95.830 146.347 C 92.117 146.347,89.372 150.126,90.442 153.761 C 90.877 155.238,93.506 158.080,106.814 171.461 C 115.533 180.229,123.415 187.957,124.331 188.635 C 126.648 190.351,129.352 190.351,131.669 188.635 C 132.585 187.957,140.566 180.133,149.406 171.248 C 163.242 157.341,165.519 154.875,165.767 153.527 C 166.383 150.183,164.648 147.139,161.669 146.336 C 158.285 145.425,157.804 145.776,145.398 158.176 L 133.973 169.594 133.973 136.168 C 133.973 99.140,134.095 100.776,131.211 98.993 C 129.396 97.871,126.495 97.866,124.800 98.981 " stroke="none" fill-rule="evenodd"></path></svg>