<svg fill="currentColor" viewBox="0 0 256 256" xmlns="http://www.w3.org/2000/svg"><path d="M72.533 34.774 C 65.055 36.285,58.997 39.585,53.342 45.227 C 49.079 49.481,46.677 53.040,44.659 58.093 C 42.523 63.441,42.134 66.332,41.857 78.876 L 41.600 90.552 38.400 91.359 C 21.789 95.550,10.114 110.673,10.114 128.000 C 10.114 146.187,22.503 161.336,40.619 165.300 L 41.772 165.552 41.911 184.216 C 42.075 206.041,41.974 205.452,46.260 209.745 C 50.923 214.415,42.381 213.973,128.000 213.973 C 213.619 213.973,205.077 214.415,209.740 209.745 C 214.026 205.452,213.925 206.041,214.089 184.216 L 214.228 165.552 215.381 165.299 C 222.720 163.682,229.419 160.039,234.623 154.836 C 251.298 138.161,248.965 110.796,229.692 97.007 C 226.375 94.634,221.418 92.332,217.463 91.329 L 214.400 90.552 214.137 78.663 C 213.895 67.754,213.783 66.433,212.782 62.642 C 208.960 48.177,197.710 37.600,183.109 34.745 C 178.686 33.881,76.824 33.907,72.533 34.774 M182.359 46.923 C 184.172 47.386,186.842 48.388,188.294 49.149 C 191.977 51.078,196.943 56.136,198.945 59.995 C 201.542 65.003,201.844 67.143,201.714 79.613 L 201.600 90.551 198.400 91.345 C 193.908 92.460,187.280 95.904,183.496 99.090 C 175.765 105.601,171.196 114.579,170.140 125.333 L 169.669 130.133 128.000 130.133 L 86.331 130.133 85.860 125.333 C 84.804 114.579,80.235 105.601,72.504 99.090 C 68.720 95.904,62.092 92.460,57.600 91.345 L 54.400 90.551 54.286 79.613 C 54.156 67.143,54.458 65.003,57.055 59.995 C 59.058 56.132,64.023 51.078,67.713 49.145 C 69.168 48.382,71.760 47.391,73.473 46.943 C 76.453 46.162,78.785 46.126,127.825 46.103 C 177.496 46.081,179.164 46.106,182.359 46.923 M56.421 103.570 C 64.225 106.260,69.768 111.854,72.805 120.107 C 73.522 122.054,73.610 124.310,73.809 145.920 C 74.017 168.548,74.064 169.662,74.871 170.996 C 75.719 172.399,78.515 174.080,80.000 174.080 C 81.485 174.080,84.281 172.399,85.129 170.996 C 85.916 169.695,85.982 168.666,86.102 155.840 L 86.230 142.080 128.000 142.080 L 169.770 142.080 169.898 155.840 C 170.018 168.666,170.084 169.695,170.871 170.996 C 171.719 172.399,174.515 174.080,176.000 174.080 C 177.485 174.080,180.281 172.399,181.129 170.996 C 181.936 169.662,181.983 168.548,182.191 145.920 C 182.432 119.774,182.284 121.214,185.319 115.413 C 187.315 111.599,192.304 106.803,196.283 104.875 C 202.879 101.678,209.687 101.248,216.505 103.598 C 223.130 105.882,228.259 110.437,231.251 116.693 C 233.199 120.768,233.813 123.477,233.813 128.000 C 233.813 135.164,231.393 141.091,226.421 146.100 C 221.583 150.975,216.683 153.240,209.394 153.972 C 205.040 154.409,203.773 155.086,202.640 157.580 C 201.883 159.249,201.831 160.674,201.823 180.384 L 201.813 201.408 200.719 201.824 C 199.237 202.387,56.778 202.393,55.296 201.830 L 54.217 201.419 54.095 179.963 C 53.984 160.377,53.907 158.386,53.218 157.124 C 52.071 155.026,50.728 154.386,46.606 153.972 C 39.317 153.240,34.417 150.975,29.579 146.100 C 24.607 141.091,22.187 135.164,22.187 128.000 C 22.187 123.477,22.801 120.768,24.749 116.693 C 30.408 104.861,43.922 99.261,56.421 103.570 " stroke="none" fill-rule="evenodd"></path></svg>