<svg fill="currentColor" viewBox="0 0 256 256" xmlns="http://www.w3.org/2000/svg"><path d="M124.800 11.048 C 124.096 11.490,116.100 19.313,107.031 28.433 C 91.657 43.892,90.522 45.136,90.248 46.823 C 89.505 51.381,94.663 55.329,98.695 53.288 C 99.207 53.029,104.667 47.798,110.827 41.665 L 122.027 30.513 122.028 64.003 C 122.030 96.669,122.051 97.528,122.878 98.884 C 125.332 102.909,130.668 102.909,133.122 98.884 C 133.949 97.528,133.970 96.669,133.972 64.003 L 133.973 30.513 145.173 41.665 C 151.333 47.798,156.793 53.029,157.305 53.288 C 161.337 55.329,166.495 51.381,165.752 46.823 C 165.478 45.135,164.338 43.889,148.756 28.235 C 139.569 19.007,131.535 11.183,130.901 10.848 C 129.277 9.991,126.328 10.087,124.800 11.048 M37.205 122.813 C 33.061 125.023,33.117 131.304,37.298 133.288 C 38.610 133.911,46.915 133.973,128.000 133.973 C 209.085 133.973,217.390 133.911,218.702 133.288 C 220.607 132.384,221.867 130.285,221.867 128.015 C 221.867 125.726,220.881 124.056,218.860 122.920 L 217.270 122.027 127.942 122.045 C 43.521 122.061,38.536 122.104,37.205 122.813 M125.116 154.878 C 124.351 155.344,123.344 156.351,122.878 157.116 C 122.051 158.472,122.030 159.331,122.028 191.997 L 122.027 225.487 110.827 214.335 C 104.667 208.202,99.207 202.971,98.695 202.712 C 94.664 200.672,89.509 204.617,90.245 209.177 C 90.519 210.870,91.646 212.096,107.669 228.127 C 121.731 242.198,125.087 245.344,126.400 245.693 C 129.865 246.613,129.820 246.649,148.331 228.127 C 164.354 212.096,165.481 210.870,165.755 209.177 C 166.491 204.617,161.336 200.672,157.305 202.712 C 156.793 202.971,151.333 208.202,145.173 214.335 L 133.973 225.487 133.972 191.997 C 133.970 159.331,133.949 158.472,133.122 157.116 C 132.027 155.319,129.886 154.030,128.000 154.030 C 127.179 154.030,125.881 154.411,125.116 154.878 " stroke="none" fill-rule="evenodd"></path></svg>