<svg fill="currentColor" viewBox="0 0 256 256" xmlns="http://www.w3.org/2000/svg"><path d="M212.863 35.102 C 212.066 35.635,211.078 36.739,210.667 37.555 C 209.964 38.955,209.921 44.153,209.921 127.907 C 209.920 202.237,210.016 216.999,210.505 218.147 C 211.447 220.358,213.038 221.537,215.382 221.762 C 217.920 222.006,219.843 221.126,221.031 219.179 C 221.850 217.836,221.863 216.327,221.863 128.000 C 221.863 39.673,221.850 38.164,221.031 36.821 C 219.372 34.100,215.563 33.298,212.863 35.102 M108.927 51.183 C 106.559 52.627,105.495 56.182,106.711 58.588 C 106.970 59.101,121.226 73.584,138.390 90.773 L 169.598 122.027 100.052 122.028 C 31.409 122.030,30.489 122.041,29.116 122.878 C 25.091 125.332,25.091 130.668,29.116 133.122 C 30.489 133.959,31.409 133.970,100.052 133.972 L 169.598 133.973 138.390 165.227 C 121.226 182.416,106.970 196.899,106.711 197.412 C 105.984 198.851,106.155 201.455,107.076 202.966 C 108.567 205.412,112.327 206.495,114.857 205.208 C 116.077 204.587,186.927 133.963,188.630 131.669 C 190.078 129.721,190.319 126.741,189.170 125.002 C 188.166 123.482,117.872 53.063,115.883 51.584 C 113.840 50.065,111.027 49.903,108.927 51.183 " stroke="none" fill-rule="evenodd"></path></svg>