<svg fill="currentColor" viewBox="0 0 256 256" xmlns="http://www.w3.org/2000/svg"><path d="M115.310 34.779 C 97.478 37.039,79.915 44.095,65.903 54.626 C 58.613 60.106,57.147 62.527,58.824 66.320 C 59.541 67.940,60.060 68.459,61.680 69.176 C 64.553 70.447,65.843 70.040,70.255 66.475 C 80.422 58.260,92.922 51.989,105.326 48.881 C 113.481 46.837,118.203 46.299,127.787 46.319 C 137.375 46.340,141.173 46.812,148.693 48.917 C 167.958 54.309,186.543 67.526,202.410 87.118 C 203.490 88.451,204.373 89.651,204.373 89.785 C 204.373 89.918,195.918 90.027,185.583 90.027 C 167.944 90.027,166.696 90.076,165.210 90.839 C 161.059 92.970,161.113 99.302,165.298 101.288 C 166.574 101.893,169.689 101.973,192.000 101.973 C 219.982 101.973,219.257 102.042,221.007 99.211 C 221.844 97.856,221.867 97.142,221.867 72.142 C 221.867 44.051,221.947 44.973,219.354 43.127 C 217.818 42.034,214.614 41.939,212.924 42.938 C 212.274 43.322,211.380 44.234,210.938 44.964 C 210.201 46.181,210.115 47.579,209.920 61.548 L 209.707 76.802 205.013 71.594 C 187.242 51.874,165.219 39.042,142.507 35.174 C 136.817 34.205,121.584 33.984,115.310 34.779 M37.205 154.813 C 36.431 155.226,35.424 156.130,34.968 156.822 C 34.170 158.033,34.139 159.046,34.138 183.893 C 34.137 208.730,34.168 209.758,34.968 211.070 C 36.127 212.971,37.731 213.902,39.847 213.902 C 42.245 213.902,44.199 212.683,45.236 210.541 C 46.028 208.906,46.080 207.872,46.080 193.898 L 46.080 178.999 48.700 181.979 C 50.141 183.619,53.671 187.282,56.545 190.121 C 74.382 207.738,94.984 218.424,116.589 221.265 C 123.723 222.204,137.614 221.898,144.853 220.644 C 161.142 217.821,176.780 211.285,189.101 202.149 C 193.414 198.951,196.578 196.020,197.371 194.488 C 199.221 190.910,196.170 186.033,192.079 186.028 C 190.240 186.026,189.447 186.471,185.600 189.659 C 173.151 199.977,156.253 207.116,139.121 209.293 C 131.448 210.269,120.372 209.994,113.749 208.665 C 96.181 205.138,79.305 195.618,64.389 180.820 C 60.085 176.551,52.083 167.439,51.698 166.368 C 51.612 166.130,59.033 165.973,70.407 165.973 C 91.304 165.973,91.299 165.974,93.007 163.211 C 94.060 161.506,94.130 158.657,93.158 157.013 C 92.769 156.353,91.735 155.412,90.860 154.920 C 89.295 154.041,88.877 154.027,63.942 154.045 C 40.606 154.061,38.503 154.121,37.205 154.813 " stroke="none" fill-rule="evenodd"></path></svg>