<svg fill="currentColor" viewBox="0 0 256 256" xmlns="http://www.w3.org/2000/svg"><path d="M148.863 35.102 C 144.897 37.752,145.163 43.191,149.364 45.333 C 150.708 46.018,152.887 46.079,176.210 46.079 L 201.593 46.080 166.104 81.600 C 127.493 120.246,129.350 118.148,130.546 121.772 C 131.466 124.558,134.803 126.379,137.704 125.675 C 138.505 125.481,150.201 114.078,174.400 89.899 L 209.920 54.407 209.920 79.697 C 209.920 107.115,209.900 106.862,212.258 108.717 C 214.710 110.646,218.110 110.309,220.410 107.909 L 221.653 106.611 221.767 72.499 C 221.894 34.786,222.026 36.705,219.179 34.969 C 217.855 34.162,216.784 34.136,184.063 34.135 L 150.313 34.133 148.863 35.102 M43.419 66.779 C 39.485 68.224,36.414 71.234,34.955 75.073 C 34.157 77.175,34.133 79.119,34.133 143.989 L 34.133 210.741 35.052 213.197 C 36.292 216.512,39.488 219.708,42.803 220.948 L 45.259 221.867 112.000 221.867 L 178.741 221.867 181.138 220.970 C 184.379 219.757,187.757 216.379,188.970 213.138 C 189.857 210.768,189.867 210.317,189.865 172.464 C 189.864 135.253,189.840 134.149,189.031 132.821 C 186.673 128.954,180.769 129.372,178.667 133.555 C 177.974 134.935,177.921 137.662,177.921 171.968 C 177.920 200.120,177.798 209.018,177.408 209.408 C 176.664 210.152,47.336 210.152,46.592 209.408 C 45.848 208.664,45.848 79.336,46.592 78.592 C 46.982 78.202,55.858 78.080,83.939 78.080 C 123.743 78.080,122.370 78.157,124.541 75.802 C 125.894 74.335,126.243 71.085,125.253 69.172 C 124.864 68.419,123.931 67.427,123.179 66.969 C 121.850 66.159,120.774 66.137,83.413 66.165 C 51.974 66.188,44.724 66.300,43.419 66.779 " stroke="none" fill-rule="evenodd"></path></svg>