<svg fill="currentColor" viewBox="0 0 256 256" xmlns="http://www.w3.org/2000/svg"><path d="M43.419 34.778 C 39.481 36.228,36.414 39.235,34.955 43.073 C 34.154 45.181,34.133 47.323,34.133 127.989 L 34.133 210.741 35.052 213.197 C 36.292 216.512,39.488 219.708,42.803 220.948 L 45.259 221.867 128.000 221.867 L 210.741 221.867 213.138 220.970 C 216.379 219.757,219.757 216.379,220.970 213.138 L 221.867 210.741 221.867 128.000 C 221.867 45.292,221.866 45.258,220.981 42.891 C 219.902 40.008,216.957 36.857,213.973 35.393 L 211.840 34.347 128.427 34.268 C 58.514 34.203,44.755 34.285,43.419 34.778 M209.408 46.592 C 210.153 47.337,210.153 208.663,209.408 209.408 C 208.663 210.153,47.337 210.153,46.592 209.408 C 45.847 208.663,45.847 47.337,46.592 46.592 C 47.337 45.847,208.663 45.847,209.408 46.592 M126.080 82.373 C 125.215 82.626,119.236 88.326,107.657 99.934 C 92.804 114.823,90.475 117.330,90.228 118.692 C 89.438 123.039,93.307 126.602,97.780 125.646 C 98.892 125.408,101.679 122.877,110.613 113.995 L 122.027 102.649 122.027 136.168 L 122.027 169.687 122.995 171.137 C 125.645 175.103,131.084 174.837,133.226 170.636 C 133.917 169.281,133.972 166.735,133.973 135.911 L 133.973 102.649 145.387 114.001 C 157.823 126.370,158.626 126.954,161.795 125.908 C 163.711 125.276,165.561 123.323,165.943 121.528 C 166.632 118.301,166.510 118.152,148.340 99.940 C 129.568 81.124,129.776 81.288,126.080 82.373 " stroke="none" fill-rule="evenodd"></path></svg>