<svg fill="currentColor" viewBox="0 0 256 256" xmlns="http://www.w3.org/2000/svg"><path d="M77.426 50.762 C 75.300 51.827,74.098 53.774,74.098 56.153 C 74.098 58.269,75.029 59.873,76.930 61.032 C 78.258 61.842,79.442 61.864,122.880 61.869 C 148.352 61.872,169.485 62.053,172.174 62.291 C 184.482 63.380,194.087 67.849,202.902 76.587 C 213.175 86.770,217.786 97.740,217.786 112.000 C 217.786 126.132,213.200 137.146,203.120 147.226 C 197.014 153.332,192.214 156.416,184.679 159.073 C 176.136 162.085,181.677 161.865,110.507 162.016 L 46.293 162.152 65.555 142.836 C 76.150 132.212,85.030 123.101,85.289 122.588 C 86.016 121.149,85.845 118.545,84.924 117.034 C 83.142 114.111,79.017 113.430,76.117 115.581 C 75.202 116.259,63.667 127.635,50.485 140.861 C 29.611 161.802,26.479 165.109,26.230 166.473 C 25.579 170.040,24.845 169.185,51.561 195.990 C 66.841 211.322,77.148 221.344,78.027 221.725 C 82.321 223.587,86.986 219.366,85.970 214.540 C 85.730 213.401,81.824 209.262,66.206 193.600 L 46.741 174.080 108.895 174.080 C 161.675 174.080,171.786 173.984,175.929 173.440 C 199.375 170.367,219.281 154.024,226.762 131.705 C 229.146 124.593,229.721 120.766,229.721 112.000 C 229.721 105.258,229.566 103.198,228.801 99.762 C 226.165 87.928,221.112 78.164,213.316 69.841 C 204.155 60.061,192.457 53.654,178.773 50.923 C 175.522 50.274,170.183 50.184,127.147 50.050 C 79.685 49.902,79.127 49.910,77.426 50.762 " stroke="none" fill-rule="evenodd"></path></svg>