<svg fill="currentColor" viewBox="0 0 256 256" xmlns="http://www.w3.org/2000/svg"><path d="M120.747 26.275 C 119.925 26.371,117.429 26.657,115.200 26.911 C 97.087 28.974,78.488 36.924,63.688 48.928 C 59.118 52.635,51.837 59.914,48.399 64.213 C 33.997 82.223,26.027 104.946,26.027 128.000 C 26.027 160.313,41.247 190.513,67.313 209.917 C 80.785 219.946,95.439 226.020,113.280 228.971 C 119.895 230.065,136.063 230.069,142.720 228.978 C 167.013 224.997,187.139 214.259,203.399 196.604 C 216.819 182.033,225.565 163.607,228.975 142.720 C 230.058 136.090,230.063 120.352,228.985 113.526 C 224.265 83.633,208.329 58.913,183.040 42.254 C 177.765 38.779,167.473 33.766,161.280 31.655 C 155.481 29.679,148.709 28.035,142.507 27.099 C 138.223 26.452,123.882 25.910,120.747 26.275 M135.893 38.406 C 157.181 40.367,176.604 49.439,191.583 64.417 C 214.095 86.930,223.023 119.642,215.057 150.423 C 206.452 183.673,179.597 209.228,146.031 216.109 C 109.820 223.532,73.053 208.220,52.793 177.280 C 38.454 155.382,34.420 129.001,41.473 103.253 C 45.847 87.286,56.674 70.443,69.499 59.655 C 88.315 43.828,112.102 36.215,135.893 38.406 M93.116 90.878 C 92.351 91.344,91.344 92.351,90.878 93.116 C 90.057 94.462,90.030 95.313,90.029 119.893 C 90.028 148.176,89.943 147.327,92.939 149.057 C 95.847 150.736,99.768 149.649,101.226 146.759 C 101.900 145.423,101.972 143.592,101.973 127.788 L 101.973 110.296 129.600 137.880 C 144.883 153.140,157.702 165.606,158.291 165.781 C 162.396 167.000,165.968 164.216,165.972 159.794 L 165.973 157.669 138.138 129.821 L 110.302 101.973 127.791 101.973 C 143.592 101.972,145.423 101.900,146.759 101.226 C 150.858 99.158,150.858 92.842,146.759 90.774 C 145.400 90.089,143.215 90.028,119.893 90.029 C 95.313 90.030,94.462 90.057,93.116 90.878 " stroke="none" fill-rule="evenodd"></path></svg>