<svg fill="currentColor" viewBox="0 0 256 256" xmlns="http://www.w3.org/2000/svg"><path d="M43.419 34.778 C 39.481 36.228,36.414 39.235,34.955 43.073 C 34.154 45.181,34.133 47.323,34.133 127.989 L 34.133 210.741 35.052 213.197 C 36.292 216.512,39.488 219.708,42.803 220.948 L 45.259 221.867 128.000 221.867 L 210.741 221.867 213.138 220.970 C 216.379 219.757,219.757 216.379,220.970 213.138 L 221.867 210.741 221.867 128.000 C 221.867 45.292,221.866 45.258,220.981 42.891 C 219.902 40.008,216.957 36.857,213.973 35.393 L 211.840 34.347 128.427 34.268 C 58.514 34.203,44.755 34.285,43.419 34.778 M209.408 46.592 C 210.153 47.337,210.153 208.663,209.408 209.408 C 208.663 210.153,47.337 210.153,46.592 209.408 C 45.847 208.663,45.847 47.337,46.592 46.592 C 47.337 45.847,208.663 45.847,209.408 46.592 M118.229 90.467 C 117.072 90.731,113.347 94.230,99.774 107.799 C 87.872 119.699,82.629 125.224,82.302 126.214 C 81.188 129.590,81.035 129.397,99.337 147.763 C 108.648 157.108,116.785 165.028,117.419 165.363 C 118.052 165.699,119.438 165.973,120.497 165.973 C 124.212 165.973,127.015 162.050,125.867 158.455 C 125.457 157.169,122.808 154.255,113.987 145.387 L 102.634 133.973 135.904 133.973 C 166.735 133.972,169.281 133.917,170.636 133.226 C 172.836 132.104,173.867 130.437,173.867 128.000 C 173.867 125.563,172.836 123.896,170.636 122.774 C 169.281 122.083,166.735 122.028,135.911 122.027 L 102.649 122.027 114.007 110.613 C 123.748 100.826,125.408 98.972,125.663 97.603 C 126.527 92.962,122.832 89.415,118.229 90.467 " stroke="none" fill-rule="evenodd"></path></svg>