<svg fill="currentColor" viewBox="0 0 256 256" xmlns="http://www.w3.org/2000/svg"><path d="M126.141 18.345 C 125.470 18.554,124.539 19.071,124.070 19.494 C 122.005 21.363,122.027 21.089,122.027 45.948 L 122.027 69.326 90.475 100.903 C 72.890 118.502,58.725 133.012,58.475 133.681 C 58.176 134.483,58.027 145.980,58.027 168.238 L 58.027 201.594 46.827 190.442 C 40.667 184.308,35.207 179.078,34.695 178.818 C 34.182 178.559,32.893 178.347,31.830 178.347 C 28.106 178.347,25.302 182.269,26.455 185.865 C 26.873 187.171,30.323 190.879,42.826 203.461 C 51.538 212.229,59.415 219.957,60.331 220.635 C 62.648 222.351,65.352 222.351,67.669 220.635 C 68.585 219.957,76.467 212.229,85.186 203.461 C 98.494 190.080,101.123 187.238,101.558 185.761 C 102.239 183.447,101.578 181.397,99.586 179.648 C 98.400 178.607,97.717 178.347,96.170 178.347 C 95.107 178.347,93.818 178.559,93.305 178.818 C 92.793 179.078,87.333 184.308,81.173 190.442 L 69.973 201.594 69.973 170.022 L 69.973 138.451 98.987 109.440 L 128.000 80.429 157.013 109.440 L 186.027 138.451 186.027 170.022 L 186.027 201.594 174.827 190.442 C 168.667 184.308,163.207 179.078,162.695 178.818 C 162.182 178.559,160.893 178.347,159.830 178.347 C 156.106 178.347,153.302 182.269,154.455 185.865 C 154.873 187.171,158.323 190.879,170.826 203.461 C 179.538 212.229,187.415 219.957,188.331 220.635 C 190.648 222.351,193.352 222.351,195.669 220.635 C 196.585 219.957,204.467 212.229,213.186 203.461 C 226.494 190.080,229.123 187.238,229.558 185.761 C 230.239 183.447,229.578 181.397,227.586 179.648 C 226.400 178.607,225.717 178.347,224.170 178.347 C 223.107 178.347,221.818 178.559,221.305 178.818 C 220.793 179.078,215.333 184.308,209.173 190.442 L 197.973 201.594 197.973 168.238 C 197.973 145.980,197.824 134.483,197.525 133.681 C 197.275 133.012,183.110 118.502,165.525 100.903 L 133.973 69.326 133.973 46.076 C 133.972 24.785,133.909 22.703,133.226 21.364 C 131.897 18.756,128.912 17.485,126.141 18.345 " stroke="none" fill-rule="evenodd"></path></svg>