<svg fill="currentColor" viewBox="0 0 256 256" xmlns="http://www.w3.org/2000/svg"><path d="M30.141 50.345 C 28.616 50.819,27.411 51.893,26.561 53.538 C 26.018 54.588,25.949 55.858,26.169 60.792 C 27.302 86.183,38.136 110.429,56.417 128.488 C 72.675 144.549,93.080 154.395,116.037 157.257 C 119.993 157.750,129.406 157.867,165.315 157.867 L 209.703 157.867 190.443 177.173 C 179.850 187.792,170.970 196.899,170.711 197.412 C 169.984 198.851,170.155 201.455,171.076 202.966 C 172.718 205.658,176.604 206.546,179.320 204.848 C 180.075 204.377,191.671 192.989,205.089 179.542 C 226.351 158.233,229.521 154.892,229.770 153.527 C 230.421 149.958,231.158 150.816,204.444 124.053 C 186.594 106.171,179.015 98.851,178.003 98.517 C 174.956 97.511,170.976 99.678,170.419 102.646 C 169.715 106.397,169.221 105.792,189.995 126.613 L 209.259 145.920 165.749 145.916 C 139.435 145.914,120.722 145.743,118.400 145.484 C 79.466 141.133,47.471 111.983,39.928 73.991 C 38.836 68.487,37.975 60.989,37.973 56.960 C 37.971 52.179,34.278 49.060,30.141 50.345 " stroke="none" fill-rule="evenodd"></path></svg>