<svg fill="currentColor" viewBox="0 0 256 256" xmlns="http://www.w3.org/2000/svg"><path d="M120.747 26.275 C 119.925 26.371,117.429 26.657,115.200 26.911 C 97.087 28.974,78.488 36.924,63.688 48.928 C 59.118 52.635,51.837 59.914,48.399 64.213 C 33.997 82.223,26.027 104.946,26.027 128.000 C 26.027 160.313,41.247 190.513,67.313 209.917 C 80.785 219.946,95.439 226.020,113.280 228.971 C 119.895 230.065,136.063 230.069,142.720 228.978 C 167.013 224.997,187.139 214.259,203.399 196.604 C 216.819 182.033,225.565 163.607,228.975 142.720 C 230.058 136.090,230.063 120.352,228.985 113.526 C 224.265 83.633,208.329 58.913,183.040 42.254 C 177.765 38.779,167.473 33.766,161.280 31.655 C 155.481 29.679,148.709 28.035,142.507 27.099 C 138.223 26.452,123.882 25.910,120.747 26.275 M135.893 38.406 C 157.181 40.367,176.604 49.439,191.583 64.417 C 214.095 86.930,223.023 119.642,215.057 150.423 C 206.452 183.673,179.597 209.228,146.031 216.109 C 109.820 223.532,73.053 208.220,52.793 177.280 C 38.454 155.382,34.420 129.001,41.473 103.253 C 45.847 87.286,56.674 70.443,69.499 59.655 C 88.315 43.828,112.102 36.215,135.893 38.406 M126.080 82.373 C 125.215 82.626,119.236 88.326,107.657 99.934 C 92.804 114.823,90.475 117.330,90.228 118.692 C 89.438 123.039,93.307 126.602,97.780 125.646 C 98.892 125.408,101.679 122.877,110.613 113.995 L 122.027 102.649 122.027 136.168 L 122.027 169.687 122.995 171.137 C 125.645 175.103,131.084 174.837,133.226 170.636 C 133.917 169.281,133.972 166.735,133.973 135.911 L 133.973 102.649 145.387 114.001 C 157.823 126.370,158.626 126.954,161.795 125.908 C 163.711 125.276,165.561 123.323,165.943 121.528 C 166.632 118.301,166.510 118.152,148.340 99.940 C 129.568 81.124,129.776 81.288,126.080 82.373 " stroke="none" fill-rule="evenodd"></path></svg>