<svg fill="currentColor" viewBox="0 0 256 256" xmlns="http://www.w3.org/2000/svg"><path d="M43.419 34.778 C 39.481 36.228,36.414 39.235,34.955 43.073 C 34.154 45.181,34.133 47.323,34.133 127.989 L 34.133 210.741 35.052 213.197 C 36.292 216.512,39.488 219.708,42.803 220.948 L 45.259 221.867 128.000 221.867 L 210.741 221.867 213.138 220.970 C 216.379 219.757,219.757 216.379,220.970 213.138 L 221.867 210.741 221.867 128.000 C 221.867 45.292,221.866 45.258,220.981 42.891 C 219.902 40.008,216.957 36.857,213.973 35.393 L 211.840 34.347 128.427 34.268 C 58.514 34.203,44.755 34.285,43.419 34.778 M209.408 46.592 C 210.153 47.337,210.153 208.663,209.408 209.408 C 208.663 210.153,47.337 210.153,46.592 209.408 C 45.847 208.663,45.847 47.337,46.592 46.592 C 47.337 45.847,208.663 45.847,209.408 46.592 M157.653 90.516 C 157.184 90.770,144.464 103.292,129.387 118.341 L 101.973 145.704 101.973 128.305 C 101.973 109.060,101.927 108.686,99.332 107.104 C 97.475 105.972,94.525 105.972,92.668 107.104 C 89.987 108.739,90.027 108.301,90.028 136.200 C 90.030 160.686,90.057 161.538,90.878 162.884 C 91.344 163.649,92.351 164.656,93.116 165.122 C 94.462 165.943,95.313 165.970,119.893 165.971 C 148.176 165.972,147.327 166.057,149.057 163.061 C 150.736 160.153,149.649 156.232,146.759 154.774 C 145.423 154.100,143.592 154.028,127.788 154.027 L 110.296 154.027 137.664 126.613 C 152.716 111.536,165.243 98.781,165.502 98.268 C 167.722 93.876,161.956 88.181,157.653 90.516 " stroke="none" fill-rule="evenodd"></path></svg>