<svg fill="currentColor" viewBox="0 0 256 256" xmlns="http://www.w3.org/2000/svg"><path d="M124.800 34.981 C 124.096 35.445,123.184 36.448,122.773 37.212 C 122.069 38.521,122.027 43.667,122.027 127.929 C 122.027 209.079,122.089 217.390,122.712 218.702 C 124.702 222.895,131.298 222.895,133.288 218.702 C 133.911 217.390,133.973 209.085,133.973 128.000 C 133.973 29.031,134.205 36.844,131.211 34.993 C 129.396 33.871,126.495 33.866,124.800 34.981 M45.891 90.681 C 44.580 91.134,40.584 94.877,27.819 107.605 C 9.941 125.431,9.397 126.105,10.252 129.382 C 10.670 130.986,12.749 133.221,27.870 148.331 C 43.903 164.353,45.131 165.481,46.823 165.755 C 51.383 166.491,55.328 161.336,53.288 157.305 C 53.029 156.793,47.798 151.333,41.665 145.173 L 30.513 133.973 64.003 133.972 C 96.669 133.970,97.528 133.949,98.884 133.122 C 102.909 130.668,102.909 125.332,98.884 122.878 C 97.528 122.051,96.669 122.030,64.003 122.028 L 30.513 122.027 41.665 110.827 C 47.798 104.667,53.029 99.207,53.288 98.695 C 54.016 97.257,53.845 94.652,52.925 93.143 C 51.385 90.618,48.744 89.693,45.891 90.681 M206.596 90.457 C 203.214 91.233,201.150 95.609,202.712 98.695 C 202.971 99.207,208.202 104.667,214.335 110.827 L 225.487 122.027 191.997 122.028 C 159.331 122.030,158.472 122.051,157.116 122.878 C 153.091 125.332,153.091 130.668,157.116 133.122 C 158.472 133.949,159.331 133.970,191.997 133.972 L 225.487 133.973 214.097 145.387 C 207.833 151.664,202.506 157.340,202.260 158.001 C 200.789 161.955,203.557 165.973,207.752 165.973 C 208.733 165.973,210.054 165.699,210.688 165.363 C 211.322 165.028,219.360 157.204,228.550 147.977 C 246.601 129.854,246.611 129.841,245.689 126.400 C 245.339 125.094,242.224 121.751,228.763 108.237 C 219.690 99.127,211.787 91.426,211.200 91.123 C 209.616 90.306,208.168 90.097,206.596 90.457 " stroke="none" fill-rule="evenodd"></path></svg>