<svg fill="currentColor" viewBox="0 0 256 256" xmlns="http://www.w3.org/2000/svg"><path d="M156.543 75.214 C 152.477 77.945,153.699 84.373,158.540 85.717 C 159.669 86.031,169.505 86.183,188.799 86.184 L 217.385 86.187 168.749 134.825 L 120.112 183.463 73.816 137.204 C 33.331 96.751,27.304 90.888,25.800 90.494 C 21.283 89.312,17.306 93.217,18.456 97.707 C 18.766 98.918,28.082 108.452,67.766 148.170 C 120.032 200.481,117.827 198.443,121.452 197.787 C 122.932 197.519,128.146 192.440,174.613 146.002 L 226.133 94.515 226.135 124.164 C 226.136 152.818,226.164 153.859,226.969 155.179 C 229.424 159.206,235.597 158.600,237.495 154.147 C 237.975 153.020,238.080 146.198,238.080 115.988 C 238.080 80.206,238.057 79.155,237.236 77.459 C 235.563 74.004,238.596 74.240,195.944 74.240 L 157.993 74.240 156.543 75.214 " stroke="none" fill-rule="evenodd"></path></svg>