<svg fill="currentColor" viewBox="0 0 256 256" xmlns="http://www.w3.org/2000/svg"><path d="M76.117 51.581 C 75.202 52.259,63.667 63.635,50.485 76.861 C 29.611 97.802,26.479 101.109,26.230 102.473 C 25.579 106.040,24.845 105.185,51.561 131.990 C 66.841 147.322,77.148 157.344,78.027 157.725 C 82.321 159.587,86.984 155.368,85.971 150.540 C 85.731 149.395,81.297 144.734,63.107 126.501 L 40.541 103.883 62.538 81.915 C 74.637 69.832,84.811 59.428,85.148 58.795 C 85.948 57.289,85.927 54.893,85.099 53.293 C 83.508 50.215,79.093 49.374,76.117 51.581 M124.800 51.159 C 124.096 51.604,112.528 62.979,99.094 76.438 C 80.324 95.242,74.570 101.248,74.247 102.377 C 73.232 105.914,72.621 105.197,99.765 132.345 C 121.640 154.223,124.998 157.419,126.367 157.666 C 130.870 158.480,134.556 155.009,133.773 150.692 C 133.525 149.325,130.947 146.575,114.003 129.600 L 94.519 110.080 113.716 110.080 C 138.567 110.080,144.581 110.735,156.587 114.748 C 176.601 121.437,194.032 135.432,204.982 153.600 C 212.620 166.273,216.627 179.091,217.653 194.133 C 218.211 202.306,218.213 202.315,219.534 203.885 C 221.614 206.357,225.302 206.657,227.799 204.556 C 229.771 202.896,230.136 201.141,229.824 194.793 C 228.600 169.805,217.944 145.879,200.086 128.021 C 187.123 115.058,171.009 105.840,153.448 101.342 C 142.612 98.567,141.133 98.442,116.738 98.245 L 94.596 98.066 113.819 78.793 C 130.103 62.467,133.121 59.251,133.559 57.761 C 134.239 55.447,133.577 53.396,131.586 51.648 C 130.381 50.590,129.727 50.347,128.092 50.348 C 126.854 50.349,125.588 50.661,124.800 51.159 " stroke="none" fill-rule="evenodd"></path></svg>