<svg fill="currentColor" viewBox="0 0 256 256" xmlns="http://www.w3.org/2000/svg"><path d="M76.185 43.555 C 75.345 44.293,74.497 45.557,74.253 46.435 C 73.966 47.469,73.817 72.673,73.816 120.744 L 73.813 193.487 62.613 182.335 C 56.453 176.202,50.994 170.971,50.481 170.712 C 48.060 169.486,44.386 170.737,42.993 173.260 C 42.411 174.315,42.238 175.296,42.369 176.793 L 42.550 178.866 59.782 196.109 C 78.210 214.548,78.350 214.662,81.515 213.754 C 83.697 213.128,117.179 179.619,117.760 177.480 C 118.341 175.342,117.617 173.138,115.815 171.555 C 114.518 170.417,113.992 170.240,111.896 170.240 L 109.476 170.240 97.831 181.856 L 86.187 193.473 86.184 120.736 C 86.183 72.671,86.034 47.469,85.747 46.435 C 85.503 45.557,84.655 44.293,83.815 43.555 C 82.535 42.431,81.980 42.240,80.000 42.240 C 78.020 42.240,77.465 42.431,76.185 43.555 M156.007 59.680 L 138.552 77.120 138.370 79.200 C 138.017 83.224,140.773 85.983,144.792 85.631 L 146.864 85.450 158.334 73.986 L 169.804 62.522 169.915 136.190 C 170.027 209.842,170.027 209.858,170.906 211.036 C 173.840 214.965,178.160 214.965,181.094 211.036 C 181.973 209.858,181.973 209.842,182.085 136.190 L 182.196 62.522 193.666 73.986 L 205.136 85.450 207.208 85.631 C 211.227 85.983,213.983 83.224,213.630 79.200 L 213.448 77.120 195.993 59.680 L 178.538 42.240 176.000 42.240 L 173.462 42.240 156.007 59.680 " stroke="none" fill-rule="evenodd"></path></svg>