<svg fill="currentColor" viewBox="0 0 256 256" xmlns="http://www.w3.org/2000/svg"><path d="M120.747 26.275 C 119.925 26.371,117.429 26.657,115.200 26.911 C 97.087 28.974,78.488 36.924,63.688 48.928 C 59.118 52.635,51.837 59.914,48.399 64.213 C 33.997 82.223,26.027 104.946,26.027 128.000 C 26.027 160.313,41.247 190.513,67.313 209.917 C 80.785 219.946,95.439 226.020,113.280 228.971 C 119.895 230.065,136.063 230.069,142.720 228.978 C 167.013 224.997,187.139 214.259,203.399 196.604 C 216.819 182.033,225.565 163.607,228.975 142.720 C 230.058 136.090,230.063 120.352,228.985 113.526 C 224.265 83.633,208.329 58.913,183.040 42.254 C 177.765 38.779,167.473 33.766,161.280 31.655 C 155.481 29.679,148.709 28.035,142.507 27.099 C 138.223 26.452,123.882 25.910,120.747 26.275 M135.893 38.406 C 157.181 40.367,176.604 49.439,191.583 64.417 C 214.095 86.930,223.023 119.642,215.057 150.423 C 206.452 183.673,179.597 209.228,146.031 216.109 C 109.820 223.532,73.053 208.220,52.793 177.280 C 38.454 155.382,34.420 129.001,41.473 103.253 C 45.847 87.286,56.674 70.443,69.499 59.655 C 88.315 43.828,112.102 36.215,135.893 38.406 M94.683 90.425 C 92.672 91.052,91.387 92.190,90.672 93.979 C 89.186 97.692,87.828 96.088,118.104 126.400 L 145.698 154.027 128.209 154.027 C 108.146 154.028,108.502 153.970,106.747 157.508 C 105.900 159.215,105.823 159.729,106.203 161.135 C 106.446 162.036,106.963 163.226,107.352 163.778 C 108.888 165.965,109.002 165.973,136.200 165.972 C 160.686 165.970,161.538 165.943,162.884 165.122 C 163.649 164.656,164.656 163.649,165.122 162.884 C 165.943 161.538,165.970 160.686,165.972 136.200 C 165.973 108.301,166.013 108.739,163.332 107.104 C 161.475 105.972,158.525 105.972,156.668 107.104 C 154.073 108.686,154.027 109.060,154.027 128.302 L 154.027 145.698 126.392 118.076 C 111.193 102.883,98.473 90.451,98.126 90.448 C 97.778 90.444,97.109 90.360,96.640 90.261 C 96.171 90.162,95.290 90.235,94.683 90.425 " stroke="none" fill-rule="evenodd"></path></svg>