<svg fill="currentColor" viewBox="0 0 256 256" xmlns="http://www.w3.org/2000/svg"><path d="M222.009 50.375 C 220.506 50.825,218.547 52.900,218.279 54.326 C 218.183 54.836,217.901 58.229,217.653 61.867 C 216.627 76.907,212.622 89.720,204.983 102.400 C 190.523 126.403,165.568 142.359,137.600 145.484 C 135.278 145.743,116.565 145.914,90.251 145.916 L 46.741 145.920 66.005 126.613 C 86.779 105.792,86.285 106.397,85.581 102.646 C 85.024 99.678,81.044 97.511,77.997 98.517 C 76.985 98.851,69.395 106.178,51.545 124.053 C 29.685 145.942,26.475 149.319,26.228 150.687 C 25.583 154.251,24.871 153.422,51.337 179.943 C 65.262 193.897,76.775 205.096,77.595 205.485 C 81.961 207.557,86.859 203.716,85.986 198.906 C 85.738 197.538,83.138 194.766,66.003 177.600 L 46.306 157.867 90.689 157.867 C 137.852 157.867,139.255 157.816,149.120 155.761 C 194.076 146.394,227.965 106.507,229.801 60.800 C 230.012 55.540,229.947 54.652,229.260 53.364 C 227.840 50.700,224.930 49.501,222.009 50.375 " stroke="none" fill-rule="evenodd"></path></svg>