<svg fill="currentColor" viewBox="0 0 256 256" xmlns="http://www.w3.org/2000/svg"><path d="M76.117 51.581 C 75.202 52.259,63.667 63.635,50.485 76.861 C 29.611 97.802,26.479 101.109,26.230 102.473 C 25.579 106.040,24.845 105.185,51.561 131.990 C 66.841 147.322,77.148 157.344,78.027 157.725 C 82.321 159.587,86.986 155.366,85.970 150.540 C 85.730 149.401,81.824 145.262,66.206 129.600 L 46.741 110.080 89.827 110.080 C 135.737 110.080,138.480 110.182,147.705 112.227 C 171.221 117.439,192.415 132.748,204.982 153.600 C 212.620 166.273,216.627 179.091,217.653 194.133 C 218.211 202.306,218.213 202.315,219.534 203.885 C 221.614 206.357,225.302 206.657,227.799 204.556 C 229.771 202.896,230.136 201.141,229.824 194.793 C 228.600 169.805,217.944 145.879,200.086 128.021 C 187.123 115.058,171.009 105.840,153.448 101.342 C 141.492 98.280,143.927 98.404,92.606 98.243 L 46.333 98.097 65.575 78.809 C 76.158 68.200,85.030 59.101,85.289 58.588 C 86.016 57.149,85.845 54.545,84.924 53.034 C 83.142 50.111,79.017 49.430,76.117 51.581 " stroke="none" fill-rule="evenodd"></path></svg>