<svg fill="currentColor" viewBox="0 0 256 256" xmlns="http://www.w3.org/2000/svg"><path d="M138.027 26.278 C 121.560 28.642,110.799 33.788,100.240 44.347 C 91.252 53.335,86.132 62.790,83.080 76.040 C 82.173 79.977,82.167 80.371,82.031 144.620 L 81.894 209.241 62.813 190.190 C 52.319 179.712,43.193 170.937,42.532 170.690 C 39.650 169.610,36.602 170.676,34.984 173.329 C 33.986 174.967,33.906 176.571,34.730 178.467 C 35.072 179.256,45.918 190.401,60.223 204.665 C 81.947 226.325,85.320 229.525,86.687 229.772 C 90.248 230.417,89.452 231.097,115.542 205.077 C 128.989 191.666,140.377 180.075,140.848 179.320 C 142.546 176.604,141.658 172.718,138.966 171.076 C 137.455 170.155,134.851 169.984,133.412 170.711 C 132.899 170.970,123.792 179.850,113.173 190.443 L 93.867 209.703 93.870 149.118 C 93.872 113.219,94.044 86.615,94.291 83.826 C 95.316 72.243,99.714 62.345,107.520 54.054 C 113.661 47.531,120.422 43.144,128.273 40.588 C 133.717 38.816,137.703 38.214,144.000 38.214 C 158.260 38.214,169.230 42.825,179.413 53.098 C 188.151 61.913,192.620 71.518,193.709 83.826 C 193.947 86.515,194.128 107.648,194.131 133.120 C 194.136 176.558,194.158 177.742,194.968 179.070 C 196.127 180.971,197.731 181.902,199.847 181.902 C 202.256 181.902,204.200 180.681,205.253 178.506 C 206.104 176.747,206.113 176.157,205.969 128.363 C 205.826 80.822,205.808 79.933,204.916 76.040 C 201.885 62.823,196.751 53.338,187.760 44.347 C 178.718 35.305,168.402 29.723,156.175 27.257 C 152.264 26.468,140.952 25.858,138.027 26.278 " stroke="none" fill-rule="evenodd"></path></svg>