<svg fill="currentColor" viewBox="0 0 256 256" xmlns="http://www.w3.org/2000/svg"><path d="M120.747 26.275 C 119.925 26.371,117.429 26.657,115.200 26.911 C 97.087 28.974,78.488 36.924,63.688 48.928 C 59.118 52.635,51.837 59.914,48.399 64.213 C 33.997 82.223,26.027 104.946,26.027 128.000 C 26.027 160.313,41.247 190.513,67.313 209.917 C 80.785 219.946,95.439 226.020,113.280 228.971 C 119.895 230.065,136.063 230.069,142.720 228.978 C 167.013 224.997,187.139 214.259,203.399 196.604 C 216.819 182.033,225.565 163.607,228.975 142.720 C 230.058 136.090,230.063 120.352,228.985 113.526 C 224.265 83.633,208.329 58.913,183.040 42.254 C 177.765 38.779,167.473 33.766,161.280 31.655 C 155.481 29.679,148.709 28.035,142.507 27.099 C 138.223 26.452,123.882 25.910,120.747 26.275 M135.893 38.406 C 157.181 40.367,176.604 49.439,191.583 64.417 C 214.095 86.930,223.023 119.642,215.057 150.423 C 206.452 183.673,179.597 209.228,146.031 216.109 C 109.820 223.532,73.053 208.220,52.793 177.280 C 38.454 155.382,34.420 129.001,41.473 103.253 C 45.847 87.286,56.674 70.443,69.499 59.655 C 88.315 43.828,112.102 36.215,135.893 38.406 M118.229 90.467 C 117.072 90.731,113.347 94.230,99.774 107.799 C 87.872 119.699,82.629 125.224,82.302 126.214 C 81.188 129.590,81.035 129.397,99.337 147.763 C 108.648 157.108,116.785 165.028,117.419 165.363 C 118.052 165.699,119.438 165.973,120.497 165.973 C 124.212 165.973,127.015 162.050,125.867 158.455 C 125.457 157.169,122.808 154.255,113.987 145.387 L 102.634 133.973 135.904 133.973 C 166.735 133.972,169.281 133.917,170.636 133.226 C 172.836 132.104,173.867 130.437,173.867 128.000 C 173.867 125.563,172.836 123.896,170.636 122.774 C 169.281 122.083,166.735 122.028,135.911 122.027 L 102.649 122.027 114.007 110.613 C 123.748 100.826,125.408 98.972,125.663 97.603 C 126.527 92.962,122.832 89.415,118.229 90.467 " stroke="none" fill-rule="evenodd"></path></svg>