<svg fill="currentColor" viewBox="0 0 256 256" xmlns="http://www.w3.org/2000/svg"><path d="M20.787 74.998 C 20.134 75.402,19.222 76.514,18.760 77.468 C 17.944 79.152,17.920 80.270,17.920 115.988 C 17.920 155.739,17.843 154.370,20.198 156.541 C 21.665 157.894,24.915 158.243,26.828 157.253 C 27.581 156.864,28.573 155.931,29.031 155.179 C 29.836 153.859,29.864 152.818,29.865 124.164 L 29.867 94.515 81.387 146.002 C 127.854 192.440,133.068 197.519,134.548 197.787 C 138.173 198.443,135.968 200.481,188.234 148.170 C 227.918 108.452,237.234 98.918,237.544 97.707 C 238.695 93.213,234.684 89.290,230.173 90.497 C 228.711 90.888,222.165 97.260,182.184 137.207 L 135.888 183.463 87.251 134.825 L 38.615 86.187 67.201 86.184 C 86.495 86.183,96.331 86.031,97.460 85.717 C 102.301 84.373,103.523 77.945,99.457 75.214 L 98.007 74.240 59.990 74.251 C 24.763 74.262,21.886 74.317,20.787 74.998 " stroke="none" fill-rule="evenodd"></path></svg>