<svg fill="currentColor" viewBox="0 0 256 256" xmlns="http://www.w3.org/2000/svg"><path d="M36.821 34.969 C 32.794 37.424,33.400 43.597,37.853 45.495 C 39.903 46.369,216.097 46.369,218.147 45.495 C 220.358 44.553,221.537 42.962,221.762 40.618 C 222.006 38.080,221.126 36.157,219.179 34.969 C 217.836 34.150,216.327 34.137,128.000 34.137 C 39.673 34.137,38.164 34.150,36.821 34.969 M125.227 66.795 C 123.698 67.579,52.396 138.700,51.155 140.680 C 49.454 143.393,50.340 147.281,53.034 148.924 C 54.545 149.845,57.149 150.016,58.588 149.289 C 59.101 149.030,73.584 134.774,90.773 117.610 L 122.027 86.402 122.028 155.948 C 122.030 224.591,122.041 225.511,122.878 226.884 C 125.332 230.909,130.668 230.909,133.122 226.884 C 133.959 225.511,133.970 224.591,133.972 155.951 L 133.973 86.408 165.653 118.044 C 199.148 151.492,198.224 150.668,201.418 149.966 C 203.340 149.544,205.577 147.403,205.901 145.674 C 206.626 141.809,208.641 144.063,168.831 104.215 C 148.611 83.975,131.459 67.127,130.716 66.775 C 128.986 65.954,126.852 65.961,125.227 66.795 " stroke="none" fill-rule="evenodd"></path></svg>