<svg fill="currentColor" viewBox="0 0 256 256" xmlns="http://www.w3.org/2000/svg"><path d="M124.668 11.104 C 121.937 12.769,122.027 11.507,122.027 48.303 L 122.027 81.701 110.610 70.290 C 98.828 58.514,97.776 57.696,95.183 58.304 C 93.057 58.803,91.406 60.143,90.678 61.962 C 89.224 65.596,88.830 65.083,107.443 83.763 C 116.755 93.108,124.892 101.028,125.525 101.363 C 126.996 102.142,129.004 102.142,130.475 101.363 C 131.108 101.028,139.245 93.108,148.557 83.763 C 167.170 65.083,166.776 65.596,165.322 61.962 C 164.594 60.143,162.943 58.803,160.817 58.304 C 158.224 57.696,157.172 58.514,145.390 70.290 L 133.973 81.701 133.973 48.303 C 133.973 11.507,134.063 12.769,131.332 11.104 C 129.475 9.972,126.525 9.972,124.668 11.104 M37.205 122.813 C 33.061 125.023,33.117 131.304,37.298 133.288 C 38.610 133.911,46.915 133.973,128.000 133.973 C 209.085 133.973,217.390 133.911,218.702 133.288 C 220.607 132.384,221.867 130.285,221.867 128.015 C 221.867 125.726,220.881 124.056,218.860 122.920 L 217.270 122.027 127.942 122.045 C 43.521 122.061,38.536 122.104,37.205 122.813 M125.227 154.836 C 124.523 155.280,116.424 163.199,107.230 172.435 C 88.620 191.129,89.119 190.464,90.824 194.320 C 91.541 195.940,92.060 196.459,93.680 197.176 C 97.430 198.834,97.390 198.861,110.400 185.898 L 122.027 174.314 122.027 207.797 C 122.028 245.109,121.886 243.294,124.939 245.057 C 127.847 246.736,131.768 245.649,133.226 242.759 C 133.917 241.388,133.972 238.825,133.973 207.797 L 133.973 174.314 145.600 185.898 C 158.610 198.861,158.570 198.834,162.320 197.176 C 163.940 196.459,164.459 195.940,165.176 194.320 C 166.883 190.460,167.403 191.150,148.557 172.237 C 139.245 162.892,131.108 154.972,130.475 154.637 C 128.885 153.795,126.751 153.876,125.227 154.836 " stroke="none" fill-rule="evenodd"></path></svg>