<svg fill="currentColor" viewBox="0 0 256 256" xmlns="http://www.w3.org/2000/svg"><path d="M124.800 34.981 C 124.096 35.445,123.184 36.448,122.773 37.212 C 122.069 38.521,122.027 43.667,122.027 127.929 C 122.027 209.079,122.089 217.390,122.712 218.702 C 124.702 222.895,131.298 222.895,133.288 218.702 C 133.911 217.390,133.973 209.085,133.973 128.000 C 133.973 29.031,134.205 36.844,131.211 34.993 C 129.396 33.871,126.495 33.866,124.800 34.981 M62.683 90.425 C 60.672 91.052,59.387 92.190,58.672 93.979 C 57.267 97.488,57.338 97.590,70.102 110.400 L 81.686 122.027 48.203 122.027 C 10.145 122.028,12.586 121.801,10.747 125.508 C 9.900 127.215,9.823 127.729,10.203 129.135 C 10.446 130.036,10.963 131.226,11.352 131.778 C 12.918 134.007,12.354 133.973,48.303 133.973 L 81.701 133.973 70.049 145.631 C 57.380 158.306,57.139 158.640,58.270 161.933 C 58.975 163.981,60.022 165.027,62.080 165.734 C 65.388 166.871,65.339 166.910,83.761 148.554 C 93.104 139.244,101.024 131.108,101.361 130.475 C 102.142 129.005,102.143 126.998,101.363 125.525 C 100.512 123.918,66.892 90.455,66.121 90.448 C 65.776 90.444,65.109 90.360,64.640 90.261 C 64.171 90.162,63.290 90.235,62.683 90.425 M190.094 90.473 C 188.700 90.894,155.710 123.509,154.639 125.525 C 153.858 126.995,153.857 129.003,154.637 130.475 C 154.972 131.108,162.892 139.245,172.237 148.557 C 191.150 167.403,190.460 166.883,194.320 165.176 C 195.940 164.459,196.459 163.940,197.176 162.320 C 198.834 158.570,198.861 158.610,185.898 145.600 L 174.314 133.973 207.797 133.973 C 238.825 133.972,241.388 133.917,242.759 133.226 C 246.858 131.158,246.858 124.842,242.759 122.774 C 241.388 122.083,238.825 122.028,207.797 122.027 L 174.314 122.027 185.898 110.400 C 198.672 97.580,198.734 97.491,197.322 93.962 C 196.219 91.206,192.928 89.618,190.094 90.473 " stroke="none" fill-rule="evenodd"></path></svg>