<svg fill="currentColor" viewBox="0 0 256 256" xmlns="http://www.w3.org/2000/svg"><path d="M124.677 50.833 C 123.906 51.326,122.994 52.274,122.651 52.937 C 121.821 54.543,121.858 57.582,122.724 58.892 C 123.108 59.472,131.972 68.523,142.422 79.006 L 161.422 98.066 139.271 98.245 C 114.866 98.442,113.388 98.567,102.552 101.342 C 59.423 112.388,28.150 150.819,26.169 195.208 C 25.944 200.257,26.010 201.398,26.596 202.530 C 28.622 206.449,33.711 207.159,36.449 203.906 C 37.680 202.442,37.764 201.997,38.371 193.630 C 38.897 186.392,40.430 178.304,42.439 172.178 C 51.252 145.296,72.729 123.640,99.392 114.750 C 111.446 110.732,117.431 110.080,142.289 110.080 L 161.490 110.080 142.004 129.600 C 121.278 150.363,121.361 150.263,122.070 153.593 C 122.470 155.473,124.873 157.722,126.885 158.099 C 127.991 158.307,128.891 158.144,130.226 157.496 C 131.500 156.879,139.507 149.142,156.658 131.958 C 183.328 105.239,182.764 105.902,181.753 102.377 C 181.429 101.247,175.594 95.164,156.479 76.027 C 142.810 62.342,131.108 50.869,130.475 50.532 C 128.824 49.655,126.313 49.785,124.677 50.833 M172.927 51.183 C 170.450 52.693,169.487 56.226,170.852 58.795 C 171.189 59.428,181.363 69.832,193.462 81.915 L 215.459 103.883 193.095 126.288 C 173.432 145.987,170.695 148.887,170.438 150.293 C 169.974 152.829,170.523 154.666,172.181 156.121 C 173.954 157.678,175.240 158.061,177.389 157.671 C 178.797 157.417,181.957 154.417,204.065 132.345 C 230.837 105.616,230.430 106.086,229.784 102.548 C 229.517 101.086,226.871 98.285,205.515 76.861 C 192.333 63.635,180.798 52.259,179.883 51.581 C 177.839 50.065,175.024 49.904,172.927 51.183 " stroke="none" fill-rule="evenodd"></path></svg>