<svg fill="currentColor" viewBox="0 0 256 256" xmlns="http://www.w3.org/2000/svg"><path d="M36.821 34.969 C 32.794 37.424,33.400 43.597,37.853 45.495 C 39.903 46.369,216.097 46.369,218.147 45.495 C 220.358 44.553,221.537 42.962,221.762 40.618 C 222.006 38.080,221.126 36.157,219.179 34.969 C 217.836 34.150,216.327 34.137,128.000 34.137 C 39.673 34.137,38.164 34.150,36.821 34.969 M76.927 83.183 C 74.559 84.627,73.495 88.182,74.711 90.588 C 74.970 91.101,98.249 114.608,126.443 142.827 L 177.705 194.133 135.943 194.133 C 94.817 194.133,94.160 194.146,92.789 194.993 C 88.915 197.388,89.288 203.243,93.449 205.333 C 94.836 206.030,98.137 206.079,144.000 206.079 C 189.871 206.079,193.162 206.030,194.530 205.333 C 195.334 204.922,196.390 204.045,196.876 203.382 C 197.757 202.182,197.760 201.987,197.872 152.471 C 197.973 107.404,197.919 102.629,197.293 101.309 C 195.298 97.105,188.705 97.099,186.712 101.298 C 186.097 102.593,186.027 107.000,186.027 144.064 L 186.027 185.385 135.147 134.563 C 107.163 106.611,83.792 83.427,83.212 83.044 C 81.759 82.084,78.616 82.153,76.927 83.183 " stroke="none" fill-rule="evenodd"></path></svg>