<svg fill="currentColor" viewBox="0 0 256 256" xmlns="http://www.w3.org/2000/svg"><path d="M61.116 26.878 C 60.351 27.344,59.344 28.351,58.878 29.116 C 58.040 30.489,58.030 31.417,58.029 103.893 C 58.028 172.913,58.072 177.368,58.774 178.759 C 59.184 179.572,60.192 180.628,61.013 181.105 C 62.495 181.967,63.018 181.974,127.988 182.085 L 193.470 182.197 173.991 201.712 C 152.334 223.409,153.101 222.424,154.824 226.320 C 155.541 227.940,156.060 228.459,157.680 229.176 C 161.628 230.922,159.996 232.263,188.063 204.238 C 215.110 177.232,214.683 177.726,213.753 174.484 C 213.429 173.354,207.594 167.270,188.479 148.133 C 174.810 134.448,163.108 122.976,162.475 122.639 C 159.075 120.832,154.433 123.190,154.022 126.933 C 153.677 130.075,153.101 129.399,173.653 149.969 C 184.448 160.773,193.280 169.753,193.280 169.926 C 193.280 170.099,165.536 170.240,131.627 170.240 L 69.973 170.240 69.972 100.373 C 69.970 31.410,69.959 30.489,69.122 29.116 C 67.349 26.207,63.829 25.223,61.116 26.878 " stroke="none" fill-rule="evenodd"></path></svg>