<svg fill="currentColor" viewBox="0 0 256 256" xmlns="http://www.w3.org/2000/svg"><path d="M190.507 26.509 C 166.858 28.767,144.775 39.152,128.061 55.877 C 111.608 72.339,101.641 92.791,98.743 116.037 C 98.250 119.993,98.133 129.406,98.133 165.315 L 98.133 209.703 78.827 190.443 C 68.208 179.850,59.101 170.970,58.588 170.711 C 57.149 169.984,54.545 170.155,53.034 171.076 C 50.342 172.718,49.454 176.604,51.152 179.320 C 51.623 180.075,63.011 191.671,76.458 205.089 C 97.767 226.351,101.108 229.521,102.473 229.770 C 106.039 230.421,105.201 231.139,131.777 204.653 C 146.093 190.385,156.927 179.257,157.270 178.467 C 158.094 176.571,158.014 174.967,157.016 173.329 C 155.398 170.676,152.350 169.610,149.468 170.690 C 148.807 170.937,139.675 179.718,129.173 190.203 L 110.080 209.267 110.080 166.178 C 110.080 120.262,110.182 117.520,112.227 108.295 C 118.262 81.067,137.565 57.457,163.200 45.950 C 172.869 41.610,182.681 39.166,193.630 38.371 C 201.997 37.764,202.442 37.680,203.906 36.449 C 207.205 33.673,206.376 28.278,202.395 26.615 C 200.840 25.965,196.597 25.927,190.507 26.509 " stroke="none" fill-rule="evenodd"></path></svg>