<svg fill="currentColor" viewBox="0 0 256 256" xmlns="http://www.w3.org/2000/svg"><path d="M22.400 50.212 C 20.699 50.654,18.804 52.494,18.293 54.198 C 17.631 56.407,18.282 58.676,20.071 60.391 L 21.387 61.653 27.760 61.791 L 34.133 61.928 34.133 96.031 L 34.133 130.133 28.223 130.133 C 22.789 130.133,22.196 130.211,20.863 131.102 C 16.897 133.752,17.163 139.191,21.364 141.333 C 22.662 141.994,24.293 142.079,35.812 142.079 C 47.880 142.080,48.921 142.020,50.541 141.236 C 52.683 140.199,53.902 138.245,53.902 135.847 C 53.902 132.613,51.299 130.138,47.893 130.135 L 46.080 130.133 46.080 103.593 L 46.080 77.054 60.729 100.500 C 71.431 117.630,75.759 124.205,76.792 124.907 C 78.674 126.184,81.326 126.184,83.208 124.907 C 84.241 124.205,88.569 117.630,99.271 100.500 L 113.920 77.054 113.920 103.593 L 113.920 130.133 112.107 130.135 C 108.701 130.138,106.098 132.613,106.098 135.847 C 106.098 138.245,107.317 140.199,109.459 141.236 C 111.079 142.020,112.120 142.080,124.188 142.079 C 135.707 142.079,137.338 141.994,138.636 141.333 C 142.837 139.191,143.103 133.752,139.137 131.102 C 137.804 130.211,137.211 130.133,131.777 130.133 L 125.867 130.133 125.867 96.031 L 125.867 61.928 132.240 61.791 L 138.613 61.653 139.929 60.391 C 142.751 57.685,142.623 53.589,139.646 51.318 L 138.093 50.133 128.033 50.133 C 118.435 50.133,117.915 50.175,116.693 51.047 C 115.861 51.641,109.242 61.836,97.764 80.203 C 88.057 95.736,79.960 108.285,79.771 108.089 C 79.581 107.894,71.637 95.253,62.117 80.000 C 51.358 62.763,44.296 51.863,43.457 51.200 C 42.117 50.141,42.042 50.133,32.680 50.062 C 27.496 50.022,22.869 50.090,22.400 50.212 M164.821 98.969 C 160.794 101.424,161.400 107.597,165.853 109.495 C 166.980 109.975,173.802 110.080,204.012 110.080 C 239.794 110.080,240.845 110.057,242.541 109.236 C 244.683 108.199,245.902 106.245,245.902 103.847 C 245.902 101.731,244.971 100.127,243.070 98.968 C 241.746 98.160,240.623 98.137,203.947 98.137 C 167.247 98.137,166.148 98.160,164.821 98.969 M164.821 130.969 C 160.794 133.424,161.400 139.597,165.853 141.495 C 166.980 141.975,173.802 142.080,204.012 142.080 C 239.794 142.080,240.845 142.057,242.541 141.236 C 244.683 140.199,245.902 138.245,245.902 135.847 C 245.902 133.731,244.971 132.127,243.070 130.968 C 241.746 130.160,240.623 130.137,203.947 130.137 C 167.247 130.137,166.148 130.160,164.821 130.969 M68.821 162.969 C 64.794 165.424,65.400 171.597,69.853 173.495 C 71.001 173.984,85.141 174.080,156.012 174.080 C 239.622 174.080,240.821 174.068,242.541 173.236 C 244.683 172.199,245.902 170.245,245.902 167.847 C 245.902 165.731,244.971 164.127,243.070 162.968 C 241.731 162.151,240.200 162.137,155.947 162.137 C 71.640 162.137,70.164 162.151,68.821 162.969 M68.821 194.969 C 64.794 197.424,65.400 203.597,69.853 205.495 C 71.001 205.984,85.141 206.080,156.012 206.080 C 239.622 206.080,240.821 206.068,242.541 205.236 C 244.683 204.199,245.902 202.245,245.902 199.847 C 245.902 197.731,244.971 196.127,243.070 194.968 C 241.731 194.151,240.200 194.137,155.947 194.137 C 71.640 194.137,70.164 194.151,68.821 194.969 " stroke="none" fill-rule="evenodd"></path></svg>