<svg fill="currentColor" viewBox="0 0 256 256" xmlns="http://www.w3.org/2000/svg"><path d="M124.883 34.928 C 122.052 36.795,122.262 33.661,122.027 77.546 L 121.813 117.333 85.903 95.786 C 51.139 74.928,49.923 74.240,47.837 74.240 C 46.038 74.240,45.436 74.457,44.181 75.559 C 41.381 78.017,41.334 81.952,44.076 84.338 C 44.839 85.003,61.340 95.051,80.745 106.667 C 100.149 118.283,116.032 127.883,116.039 128.001 C 116.047 128.120,99.942 137.882,80.250 149.695 C 60.558 161.508,44.050 171.596,43.565 172.112 C 42.167 173.600,41.689 175.447,42.206 177.366 C 43.006 180.339,46.239 182.475,49.079 181.907 C 49.746 181.773,66.384 172.009,86.053 160.207 L 121.813 138.751 122.027 178.495 C 122.222 214.960,122.300 218.324,122.963 219.261 C 125.436 222.754,130.564 222.754,133.037 219.261 C 133.700 218.324,133.778 214.960,133.973 178.495 L 134.187 138.751 169.947 160.207 C 189.616 172.009,206.254 181.773,206.921 181.907 C 209.709 182.465,212.992 180.344,213.761 177.490 C 214.260 175.635,213.739 173.501,212.453 172.132 C 211.958 171.605,195.442 161.508,175.750 149.695 C 156.058 137.882,139.953 128.120,139.961 128.001 C 139.968 127.883,155.851 118.283,175.255 106.667 C 194.660 95.051,211.163 85.001,211.929 84.334 C 214.665 81.952,214.614 78.013,211.815 75.555 C 210.565 74.457,209.961 74.240,208.163 74.240 C 206.077 74.240,204.861 74.928,170.097 95.786 L 134.187 117.333 133.973 77.546 C 133.778 41.042,133.700 37.676,133.037 36.739 C 131.841 35.049,130.077 34.139,128.000 34.139 C 126.848 34.139,125.601 34.455,124.883 34.928 " stroke="none" fill-rule="evenodd"></path></svg>