<svg fill="currentColor" viewBox="0 0 256 256" xmlns="http://www.w3.org/2000/svg"><path d="M54.400 34.802 C 52.757 35.125,49.853 36.161,47.945 37.103 C 41.781 40.148,38.080 44.388,35.657 51.181 C 34.403 54.697,34.357 55.084,34.352 62.080 C 34.346 69.751,34.739 72.479,36.947 80.097 C 39.332 88.330,44.785 100.415,50.628 110.423 C 52.520 113.664,58.604 123.029,61.651 127.392 C 61.933 127.795,61.933 128.205,61.651 128.608 C 47.067 149.490,38.629 166.829,35.104 183.156 C 34.542 185.760,34.349 188.541,34.357 193.920 C 34.367 200.731,34.440 201.378,35.548 204.540 C 38.400 212.679,43.146 217.476,51.181 220.343 C 54.697 221.597,55.084 221.643,62.080 221.648 C 69.751 221.654,72.479 221.261,80.097 219.053 C 88.209 216.702,100.557 211.127,110.507 205.321 C 113.681 203.469,123.057 197.377,127.392 194.349 C 127.795 194.067,128.205 194.067,128.608 194.349 C 149.233 208.753,167.331 217.578,183.040 220.889 C 185.726 221.455,188.548 221.651,193.920 221.643 C 200.731 221.633,201.378 221.560,204.540 220.452 C 212.679 217.600,217.476 212.854,220.343 204.819 C 221.597 201.303,221.643 200.916,221.648 193.920 C 221.654 186.249,221.261 183.521,219.053 175.903 C 216.702 167.791,211.127 155.443,205.321 145.493 C 203.469 142.319,197.377 132.943,194.349 128.608 C 194.067 128.205,194.067 127.795,194.349 127.392 C 208.850 106.628,217.392 89.078,220.896 72.844 C 221.458 70.240,221.651 67.459,221.643 62.080 C 221.633 55.269,221.560 54.622,220.452 51.460 C 218.336 45.422,215.308 41.419,210.655 38.507 C 205.664 35.384,200.819 34.133,193.712 34.133 C 178.021 34.133,156.135 42.922,133.726 58.222 C 130.789 60.226,128.213 61.867,128.000 61.867 C 127.787 61.867,125.211 60.226,122.274 58.222 C 108.279 48.667,92.468 40.659,80.640 37.134 C 71.200 34.321,61.305 33.442,54.400 34.802 M73.173 47.526 C 83.819 50.147,95.922 55.705,109.532 64.221 C 115.485 67.947,118.101 69.814,117.743 70.083 C 115.840 71.514,109.012 77.305,104.541 81.280 C 94.200 90.475,82.104 103.046,72.771 114.298 L 69.809 117.869 68.908 116.739 C 68.413 116.117,66.349 112.954,64.323 109.709 C 51.739 89.553,45.579 72.897,46.170 60.623 C 46.552 52.676,49.692 48.444,56.533 46.651 C 59.761 45.805,67.925 46.234,73.173 47.526 M202.027 47.513 C 205.120 48.933,206.690 50.354,208.000 52.921 C 213.636 63.964,206.526 87.091,189.518 113.032 L 186.324 117.903 185.002 116.411 C 184.275 115.590,181.641 112.534,179.148 109.619 C 169.627 98.487,156.724 85.585,146.161 76.635 C 143.360 74.262,140.399 71.724,139.581 70.996 L 138.092 69.672 141.259 67.547 C 154.320 58.785,168.923 51.468,179.413 48.432 C 185.680 46.619,189.251 46.098,194.560 46.223 C 198.867 46.325,199.780 46.482,202.027 47.513 M131.153 79.657 C 146.538 91.979,164.027 109.472,176.378 124.890 L 178.842 127.967 175.293 132.357 C 162.861 147.732,147.064 163.542,132.160 175.522 L 128.000 178.866 123.840 175.522 C 108.979 163.576,92.424 147.021,80.477 132.159 L 77.132 127.998 79.609 124.906 C 88.145 114.250,100.173 101.403,109.813 92.645 C 115.417 87.553,127.563 77.227,127.949 77.227 C 128.042 77.227,129.484 78.320,131.153 79.657 M123.255 119.379 C 116.392 122.965,116.362 132.790,123.203 136.637 C 129.097 139.953,136.589 136.404,137.812 129.716 C 138.903 123.748,134.171 118.187,128.000 118.187 C 126.133 118.187,124.985 118.475,123.255 119.379 M76.958 146.511 C 86.302 157.449,99.115 170.252,110.054 179.580 C 112.974 182.070,115.944 184.614,116.654 185.233 L 117.947 186.360 112.413 189.978 C 96.979 200.070,81.803 206.941,69.782 209.278 C 65.125 210.184,57.624 209.983,54.530 208.870 C 51.596 207.814,48.995 205.318,47.536 202.158 C 46.337 199.560,46.295 199.252,46.332 193.280 C 46.365 187.830,46.524 186.509,47.663 182.187 C 50.671 170.772,57.272 157.016,66.482 142.968 L 69.676 138.097 70.998 139.589 C 71.725 140.410,74.407 143.525,76.958 146.511 M190.932 145.093 C 203.897 165.557,210.430 182.931,209.831 195.357 C 209.498 202.285,207.227 206.106,202.027 208.485 C 198.395 210.147,191.959 210.383,185.600 209.086 C 177.179 207.370,166.095 203.043,156.451 197.707 C 151.581 195.013,140.997 188.476,139.252 187.085 L 138.114 186.177 143.291 181.818 C 157.166 170.136,170.817 156.490,182.116 143.009 L 186.195 138.142 186.962 139.088 C 187.383 139.609,189.170 142.311,190.932 145.093 " stroke="none" fill-rule="evenodd"></path></svg>