<svg fill="currentColor" viewBox="0 0 256 256" xmlns="http://www.w3.org/2000/svg"><path d="M122.240 18.401 C 100.118 21.164,83.455 39.223,82.049 61.959 L 81.793 66.105 58.923 66.226 L 36.053 66.347 33.828 67.520 C 30.869 69.080,28.719 71.300,27.358 74.203 L 26.240 76.587 26.240 140.160 L 26.240 203.733 27.202 205.686 C 28.766 208.858,30.933 211.041,34.036 212.569 L 36.889 213.973 128.000 213.973 L 219.111 213.973 221.964 212.569 C 225.066 211.042,227.185 208.908,228.776 205.711 L 229.760 203.733 229.760 140.160 L 229.760 76.587 228.642 74.203 C 227.281 71.300,225.131 69.080,222.172 67.520 L 219.947 66.347 197.077 66.226 L 174.207 66.105 173.951 61.959 C 172.270 34.776,148.880 15.073,122.240 18.401 M136.533 31.213 C 150.889 34.830,160.637 46.812,161.906 62.400 L 162.210 66.133 128.000 66.133 L 93.790 66.133 94.094 62.400 C 94.671 55.308,96.738 49.377,100.435 44.205 C 108.557 32.841,122.737 27.738,136.533 31.213 M81.921 87.573 C 81.921 95.768,82.023 97.267,82.667 98.530 C 84.787 102.687,90.621 103.071,93.007 99.211 C 93.804 97.921,93.867 97.100,93.867 87.950 L 93.867 78.080 128.000 78.080 L 162.133 78.080 162.133 87.950 C 162.133 97.100,162.196 97.921,162.993 99.211 C 165.379 103.071,171.213 102.687,173.333 98.530 C 173.977 97.267,174.079 95.768,174.079 87.573 L 174.080 78.080 195.612 78.080 C 216.487 78.080,217.157 78.105,217.586 78.908 C 217.888 79.472,217.995 99.082,217.921 140.442 L 217.813 201.148 216.747 201.688 C 215.179 202.481,40.821 202.481,39.253 201.688 L 38.187 201.148 38.079 140.442 C 38.005 99.082,38.112 79.472,38.414 78.908 C 38.843 78.105,39.513 78.080,60.388 78.080 L 81.920 78.080 81.921 87.573 " stroke="none" fill-rule="evenodd"></path></svg>