<svg fill="currentColor" viewBox="0 0 256 256" xmlns="http://www.w3.org/2000/svg"><path d="M120.662 18.392 C 90.887 20.683,63.202 39.892,50.317 67.200 C 38.093 93.109,39.446 122.600,54.221 152.284 C 66.205 176.362,85.580 194.976,106.027 202.056 C 107.904 202.706,109.502 203.284,109.578 203.339 C 109.654 203.395,107.093 209.554,103.887 217.027 C 98.553 229.461,98.075 230.786,98.248 232.654 C 98.462 234.961,99.650 236.557,101.853 237.495 C 103.876 238.357,152.124 238.357,154.147 237.495 C 156.350 236.557,157.538 234.961,157.752 232.654 C 157.925 230.786,157.447 229.461,152.113 217.027 C 148.907 209.554,146.346 203.395,146.422 203.339 C 146.498 203.284,148.096 202.709,149.973 202.063 C 170.251 195.078,189.399 176.717,201.623 152.533 C 212.304 131.403,216.216 109.162,212.730 89.387 C 205.870 50.471,173.757 21.353,134.400 18.360 C 128.066 17.878,127.307 17.880,120.662 18.392 M137.813 30.775 C 142.668 31.315,150.061 33.157,154.585 34.954 C 178.453 44.435,195.238 64.321,200.532 89.387 C 201.700 94.918,202.135 106.708,201.421 113.525 C 199.500 131.885,191.840 150.115,179.818 164.940 C 168.250 179.204,152.743 189.505,137.653 192.950 C 132.658 194.090,123.784 194.171,119.040 193.119 C 105.340 190.081,93.012 182.761,81.493 170.827 C 66.367 155.155,56.804 134.795,54.579 113.525 C 53.865 106.708,54.300 94.918,55.468 89.387 C 60.352 66.261,75.062 47.425,96.134 37.313 C 109.222 31.033,122.041 29.022,137.813 30.775 M133.760 50.522 C 129.601 52.371,128.831 58.448,132.454 60.822 C 133.017 61.191,135.365 61.971,137.672 62.557 C 152.981 66.440,165.030 78.077,168.984 92.800 C 171.036 100.437,172.063 101.760,175.943 101.760 C 178.776 101.760,180.296 100.791,181.408 98.276 C 182.232 96.414,182.236 96.263,181.531 93.086 C 176.799 71.773,160.013 54.996,138.959 50.536 C 135.480 49.799,135.388 49.799,133.760 50.522 M138.579 215.893 L 142.864 225.920 135.432 226.037 C 131.344 226.101,124.656 226.101,120.568 226.037 L 113.136 225.920 117.421 215.893 L 121.706 205.867 128.000 205.867 L 134.294 205.867 138.579 215.893 " stroke="none" fill-rule="evenodd"></path></svg>