<svg fill="currentColor" viewBox="0 0 256 256" xmlns="http://www.w3.org/2000/svg"><path d="M120.747 26.275 C 119.925 26.371,117.429 26.657,115.200 26.911 C 97.087 28.974,78.488 36.924,63.688 48.928 C 59.118 52.635,51.837 59.914,48.399 64.213 C 33.997 82.223,26.027 104.946,26.027 128.000 C 26.027 160.313,41.247 190.513,67.313 209.917 C 80.785 219.946,95.439 226.020,113.280 228.971 C 119.895 230.065,136.063 230.069,142.720 228.978 C 167.013 224.997,187.139 214.259,203.399 196.604 C 216.819 182.033,225.565 163.607,228.975 142.720 C 230.058 136.090,230.063 120.352,228.985 113.526 C 224.265 83.633,208.329 58.913,183.040 42.254 C 177.765 38.779,167.473 33.766,161.280 31.655 C 155.481 29.679,148.709 28.035,142.507 27.099 C 138.223 26.452,123.882 25.910,120.747 26.275 M141.086 39.019 C 156.356 41.312,169.687 46.890,182.065 56.165 C 184.358 57.883,186.297 59.477,186.373 59.707 C 186.450 59.937,185.541 61.293,184.354 62.721 C 181.951 65.608,181.547 66.666,181.886 69.193 C 182.309 72.342,185.639 74.648,188.885 74.039 C 189.998 73.830,191.088 73.044,192.936 71.117 L 195.465 68.480 196.934 70.187 C 206.173 80.924,213.530 96.304,216.277 110.624 C 221.340 137.025,214.824 163.378,198.024 184.447 L 195.370 187.774 193.684 185.727 C 191.715 183.338,189.809 182.187,187.819 182.187 C 184.181 182.187,181.280 185.682,181.951 189.256 C 182.109 190.101,183.122 191.800,184.340 193.263 C 185.502 194.660,186.453 195.967,186.453 196.169 C 186.453 196.693,179.661 201.752,175.147 204.591 C 161.752 213.014,144.164 218.027,128.000 218.027 C 111.836 218.027,94.248 213.014,80.853 204.591 C 76.339 201.752,69.547 196.693,69.547 196.169 C 69.547 195.967,70.498 194.660,71.660 193.263 C 72.878 191.800,73.891 190.101,74.049 189.256 C 74.720 185.682,71.819 182.187,68.181 182.187 C 66.196 182.187,64.286 183.337,62.331 185.709 L 60.660 187.738 57.991 184.429 C 50.102 174.647,44.218 162.953,40.975 150.613 C 38.941 142.875,38.235 136.973,38.243 127.787 C 38.250 118.708,38.919 113.237,40.987 105.351 C 44.209 93.065,50.108 81.346,57.992 71.570 L 60.662 68.260 62.559 70.564 C 63.602 71.832,65.015 73.100,65.699 73.384 C 69.852 75.104,74.234 72.351,74.238 68.020 C 74.240 66.174,72.735 63.433,70.637 61.463 C 70.037 60.899,69.556 60.231,69.567 59.979 C 69.623 58.691,80.179 51.514,87.435 47.831 C 97.983 42.475,108.941 39.398,121.600 38.236 C 125.210 37.905,136.756 38.369,141.086 39.019 M81.280 90.525 C 79.596 91.456,78.490 92.771,78.066 94.346 C 77.698 95.713,77.849 96.655,79.094 100.774 C 79.897 103.428,80.962 107.491,81.461 109.802 C 81.960 112.113,82.654 114.558,83.005 115.235 C 84.268 117.678,88.687 118.736,91.080 117.168 C 92.683 116.117,93.863 113.966,93.865 112.089 C 93.868 108.804,90.292 94.772,88.916 92.673 C 87.435 90.413,83.489 89.303,81.280 90.525 M169.090 90.861 C 168.340 91.318,167.437 92.134,167.084 92.673 C 165.708 94.772,162.132 108.804,162.135 112.089 C 162.137 113.966,163.317 116.117,164.920 117.168 C 166.344 118.101,169.197 118.107,170.979 117.182 C 172.791 116.241,173.519 114.733,174.574 109.735 C 175.054 107.461,176.104 103.428,176.906 100.774 C 178.151 96.655,178.302 95.713,177.934 94.346 C 176.935 90.633,172.396 88.845,169.090 90.861 M84.612 139.126 C 83.044 140.131,82.248 141.988,81.247 146.981 C 80.871 148.855,79.905 152.563,79.099 155.221 C 77.420 160.760,77.533 162.321,79.770 164.464 C 82.253 166.843,86.999 166.252,88.916 163.327 C 90.268 161.263,93.867 147.212,93.867 143.997 C 93.867 139.396,88.555 136.601,84.612 139.126 M164.821 139.076 C 163.150 140.095,162.133 141.956,162.133 143.997 C 162.133 147.212,165.732 161.263,167.084 163.327 C 169.825 167.511,176.640 166.460,177.934 161.654 C 178.302 160.286,178.151 159.346,176.901 155.221 C 176.095 152.563,175.129 148.855,174.753 146.981 C 173.735 141.907,172.956 140.113,171.334 139.110 C 169.516 137.987,166.632 137.972,164.821 139.076 " stroke="none" fill-rule="evenodd"></path></svg>