<svg fill="currentColor" viewBox="0 0 256 256" xmlns="http://www.w3.org/2000/svg"><path d="M26.724 58.704 C 19.430 60.469,13.268 66.280,10.982 73.549 L 10.027 76.587 10.027 128.000 L 10.027 179.413 10.982 182.451 C 12.730 188.008,16.812 192.907,21.794 195.428 C 27.167 198.146,20.782 197.974,115.902 197.967 C 191.591 197.962,202.796 197.880,205.187 197.316 C 212.727 195.539,218.910 189.538,221.186 181.789 C 221.793 179.724,221.867 173.868,221.867 128.000 C 221.867 71.218,222.030 74.773,219.178 69.386 C 216.444 64.223,210.336 59.702,204.459 58.492 C 202.866 58.164,176.642 58.037,115.712 58.062 C 42.554 58.092,28.841 58.191,26.724 58.704 M205.036 71.478 C 206.330 72.278,207.615 73.563,208.415 74.858 L 209.707 76.946 209.707 128.000 L 209.707 179.054 208.415 181.142 C 207.615 182.437,206.330 183.722,205.036 184.522 L 202.947 185.813 116.602 185.924 L 30.257 186.035 28.123 185.117 C 25.680 184.066,23.232 181.459,22.585 179.219 C 22.294 178.213,22.190 160.760,22.274 127.077 L 22.400 76.447 23.680 74.637 C 24.384 73.641,25.451 72.463,26.051 72.018 C 28.901 69.906,24.453 70.000,116.727 70.097 L 202.947 70.187 205.036 71.478 M245.364 90.774 C 244.559 91.184,243.503 92.062,243.017 92.724 C 242.143 93.915,242.132 94.304,242.023 127.498 C 241.920 158.816,241.963 161.165,242.663 162.530 C 244.795 166.688,250.621 167.071,253.007 163.211 C 253.850 161.846,253.867 161.163,253.867 128.015 C 253.867 90.279,254.065 92.721,250.860 90.920 C 248.923 89.831,247.297 89.788,245.364 90.774 M114.779 94.192 C 114.195 94.295,113.184 94.759,112.532 95.223 C 110.172 96.904,110.080 97.470,110.080 110.272 L 110.080 122.027 98.453 122.027 C 85.665 122.028,84.897 122.162,83.017 124.725 C 81.812 126.368,81.812 129.632,83.017 131.275 C 84.897 133.838,85.665 133.972,98.453 133.973 L 110.080 133.973 110.080 145.857 C 110.080 157.501,110.099 157.770,111.049 159.190 C 113.027 162.153,116.687 162.833,119.577 160.775 C 121.869 159.143,122.027 158.159,122.027 145.507 L 122.027 133.973 133.653 133.973 C 143.873 133.972,145.459 133.882,146.759 133.226 C 150.858 131.158,150.858 124.842,146.759 122.774 C 145.459 122.118,143.873 122.028,133.653 122.027 L 122.027 122.027 122.026 110.400 C 122.025 100.180,121.935 98.594,121.279 97.295 C 120.175 95.105,117.322 93.743,114.779 94.192 " stroke="none" fill-rule="evenodd"></path></svg>