<svg fill="currentColor" viewBox="0 0 256 256" xmlns="http://www.w3.org/2000/svg"><path d="M92.800 2.981 C 88.919 5.536,89.276 11.236,93.449 13.333 C 94.824 14.024,97.370 14.079,128.000 14.079 C 158.639 14.079,161.174 14.024,162.530 13.333 C 166.687 11.213,167.071 5.379,163.211 2.993 C 161.846 2.150,161.165 2.133,127.950 2.136 C 94.946 2.139,94.047 2.160,92.800 2.981 M74.288 34.808 C 68.782 36.288,63.315 40.599,60.686 45.532 C 57.869 50.816,58.040 44.730,58.033 140.177 C 58.026 235.095,57.859 228.844,60.537 234.136 C 63.094 239.189,67.962 243.261,73.549 245.018 L 76.587 245.973 128.000 245.973 L 179.413 245.973 182.451 245.018 C 188.008 243.270,192.907 239.188,195.428 234.206 C 198.146 228.833,197.974 235.218,197.967 140.098 C 197.962 64.409,197.880 53.204,197.316 50.813 C 195.512 43.158,189.245 36.797,181.529 34.787 C 177.863 33.832,77.844 33.851,74.288 34.808 M181.142 47.585 C 182.437 48.385,183.722 49.670,184.522 50.964 L 185.813 53.053 185.813 139.913 L 185.813 226.773 184.878 228.520 C 183.709 230.706,181.475 232.694,179.343 233.448 C 176.918 234.305,79.082 234.305,76.657 233.448 C 74.525 232.694,72.291 230.706,71.122 228.520 L 70.187 226.773 70.076 140.861 C 70.003 84.196,70.111 54.405,70.395 53.353 C 71.080 50.809,73.066 48.450,75.575 47.199 L 77.841 46.070 128.448 46.182 L 179.054 46.293 181.142 47.585 M92.543 75.214 C 88.477 77.945,89.699 84.373,94.540 85.717 C 96.872 86.365,159.128 86.365,161.460 85.717 C 166.301 84.373,167.523 77.945,163.457 75.214 L 162.007 74.240 128.000 74.240 L 93.993 74.240 92.543 75.214 M94.141 114.354 C 89.448 115.780,88.605 122.421,92.789 125.007 C 94.154 125.850,94.837 125.867,128.000 125.867 C 161.163 125.867,161.846 125.850,163.211 125.007 C 166.811 122.781,166.755 117.277,163.106 114.886 C 162.037 114.185,159.680 114.128,128.659 114.058 C 110.345 114.017,94.811 114.150,94.141 114.354 M93.116 154.878 C 89.091 157.332,89.091 162.668,93.116 165.122 C 94.472 165.949,95.330 165.970,128.000 165.970 C 160.670 165.970,161.528 165.949,162.884 165.122 C 166.909 162.668,166.909 157.332,162.884 154.878 C 161.528 154.051,160.670 154.030,128.000 154.030 C 95.330 154.030,94.472 154.051,93.116 154.878 M92.800 194.981 C 88.919 197.536,89.276 203.236,93.449 205.333 C 94.824 206.024,97.370 206.079,128.000 206.079 C 158.639 206.079,161.174 206.024,162.530 205.333 C 166.687 203.213,167.071 197.379,163.211 194.993 C 161.846 194.150,161.165 194.133,127.950 194.136 C 94.946 194.139,94.047 194.160,92.800 194.981 " stroke="none" fill-rule="evenodd"></path></svg>