<svg fill="currentColor" viewBox="0 0 256 256" xmlns="http://www.w3.org/2000/svg"><path d="M12.181 43.559 C 11.298 44.334,10.498 45.547,10.242 46.501 C 9.949 47.588,9.841 74.802,9.916 128.991 L 10.027 209.858 10.906 211.036 C 13.840 214.965,18.159 214.965,21.094 211.036 C 21.944 209.897,21.977 209.271,22.098 191.969 L 22.222 174.080 128.000 174.080 L 233.778 174.080 233.902 191.969 C 234.023 209.271,234.056 209.897,234.906 211.036 C 237.841 214.965,242.160 214.965,245.094 211.036 C 245.968 209.864,245.974 209.582,246.101 160.929 C 246.187 127.797,246.079 110.698,245.767 107.967 C 244.739 98.990,241.356 92.022,234.880 85.547 C 230.406 81.073,226.918 78.703,221.801 76.659 C 215.380 74.095,221.616 74.240,117.519 74.240 L 22.187 74.240 22.184 61.120 C 22.183 53.529,21.999 47.340,21.747 46.435 C 21.503 45.557,20.655 44.293,19.815 43.555 C 18.535 42.431,17.980 42.240,16.000 42.240 C 14.019 42.240,13.465 42.431,12.181 43.559 M98.133 124.160 L 98.133 162.133 60.160 162.133 L 22.187 162.133 22.187 124.160 L 22.187 86.187 60.160 86.187 L 98.133 86.187 98.133 124.160 M214.078 86.827 C 221.426 88.560,227.902 93.736,231.211 100.523 C 233.788 105.809,233.800 105.970,233.807 135.360 L 233.813 162.133 171.947 162.133 L 110.080 162.133 110.080 124.160 L 110.080 86.187 160.747 86.193 C 203.855 86.198,211.811 86.293,214.078 86.827 " stroke="none" fill-rule="evenodd"></path></svg>