<svg fill="currentColor" viewBox="0 0 256 256" xmlns="http://www.w3.org/2000/svg"><path d="M119.680 26.498 C 102.684 28.282,86.599 35.791,74.079 47.785 C 58.249 62.949,49.920 82.958,49.920 105.818 C 49.920 122.465,47.271 142.740,43.115 157.896 C 41.032 165.494,39.896 168.587,36.779 175.147 C 34.375 180.206,34.347 180.312,34.355 184.107 C 34.362 187.419,34.517 188.240,35.486 190.080 C 37.001 192.959,39.410 195.301,42.240 196.645 L 44.587 197.760 128.000 197.760 L 211.413 197.760 213.826 196.629 C 216.674 195.294,219.295 192.734,220.667 189.949 C 221.476 188.306,221.653 187.257,221.653 184.107 C 221.653 180.288,221.639 180.235,219.029 174.720 C 216.314 168.985,213.758 161.641,211.898 154.240 C 208.440 140.478,206.080 120.947,206.080 106.097 C 206.080 89.206,201.630 73.845,193.002 60.955 C 176.738 36.656,148.652 23.458,119.680 26.498 M139.520 39.065 C 148.566 40.624,158.858 44.998,166.717 50.623 C 174.862 56.453,183.156 66.406,187.485 75.546 C 192.252 85.609,194.093 95.121,194.125 109.867 C 194.177 132.976,200.031 162.891,207.600 178.719 C 208.876 181.388,209.920 183.822,209.920 184.129 C 209.920 184.435,209.618 184.987,209.250 185.356 C 208.645 185.961,200.662 186.027,127.747 186.027 L 46.915 186.027 46.431 184.965 C 46.008 184.036,46.244 183.276,48.327 178.873 C 52.696 169.637,56.457 156.456,58.863 141.945 C 60.699 130.875,61.418 123.092,61.887 109.227 C 62.434 93.049,63.478 87.102,67.353 78.115 C 76.787 56.232,96.724 41.411,120.747 38.421 C 125.065 37.884,134.555 38.209,139.520 39.065 M109.227 90.774 C 107.313 91.730,105.671 94.781,106.069 96.640 C 106.493 98.623,107.429 100.187,108.682 101.009 C 109.679 101.663,111.297 101.787,121.259 101.973 L 132.692 102.187 119.359 122.190 C 106.715 141.160,106.029 142.291,106.068 144.081 C 106.113 146.111,106.980 147.612,108.964 149.094 C 110.097 149.940,110.752 149.978,126.431 150.106 C 135.390 150.179,143.544 150.118,144.551 149.970 C 149.808 149.201,151.751 143.011,147.819 139.559 L 146.317 138.240 134.812 138.240 C 128.484 138.240,123.307 138.145,123.307 138.030 C 123.307 137.914,129.237 128.918,136.486 118.037 C 143.735 107.157,149.800 97.645,149.963 96.898 C 150.394 94.937,148.736 91.755,146.773 90.774 C 145.425 90.101,143.597 90.028,128.000 90.028 C 112.403 90.028,110.575 90.101,109.227 90.774 M93.116 218.878 C 89.091 221.332,89.091 226.668,93.116 229.122 C 94.472 229.949,95.330 229.970,128.000 229.970 C 160.670 229.970,161.528 229.949,162.884 229.122 C 166.909 226.668,166.909 221.332,162.884 218.878 C 161.528 218.051,160.670 218.030,128.000 218.030 C 95.330 218.030,94.472 218.051,93.116 218.878 " stroke="none" fill-rule="evenodd"></path></svg>