<svg fill="currentColor" viewBox="0 0 256 256" xmlns="http://www.w3.org/2000/svg"><path d="M119.467 26.472 C 110.341 27.597,101.684 30.160,93.533 34.151 C 88.114 36.804,86.998 37.811,86.385 40.602 C 86.008 42.317,87.529 45.444,89.251 46.494 C 91.514 47.874,93.380 47.612,98.076 45.256 C 103.548 42.509,109.795 40.359,115.743 39.175 C 119.603 38.406,121.983 38.221,128.000 38.221 C 138.999 38.221,146.614 39.900,156.160 44.430 C 161.492 46.960,163.757 48.345,168.360 51.893 C 181.446 61.980,190.216 76.640,193.055 93.170 C 193.425 95.326,193.884 102.206,194.121 109.170 C 194.676 125.425,195.762 135.722,198.220 148.053 C 200.633 160.159,204.862 173.818,206.841 175.903 C 210.179 179.418,216.070 177.599,216.941 172.786 C 217.142 171.674,216.777 170.043,215.468 166.213 C 209.671 149.241,206.110 126.511,206.087 106.330 C 206.071 92.604,203.546 81.211,197.982 69.760 C 186.953 47.059,165.823 31.384,140.373 27.026 C 135.904 26.261,123.788 25.940,119.467 26.472 M45.832 34.973 C 44.563 35.487,42.788 37.732,42.456 39.242 C 41.894 41.801,42.935 43.358,51.575 52.872 C 56.179 57.942,60.210 62.423,60.531 62.830 C 61.044 63.479,60.770 64.261,58.291 69.225 C 52.603 80.613,49.932 92.228,49.924 105.607 C 49.908 130.935,44.804 158.169,36.971 174.720 C 34.361 180.235,34.347 180.288,34.347 184.107 C 34.347 187.257,34.524 188.306,35.333 189.949 C 36.705 192.734,39.326 195.294,42.174 196.629 L 44.587 197.760 67.515 197.881 L 90.444 198.002 90.708 199.161 C 92.645 207.657,96.346 214.242,102.230 219.664 C 109.663 226.512,117.982 229.718,128.213 229.678 C 134.720 229.652,138.565 228.798,144.111 226.147 C 150.476 223.104,155.329 219.029,159.121 213.544 C 162.228 209.049,163.953 205.027,165.295 199.147 L 165.563 197.973 174.501 197.973 L 183.438 197.973 193.761 209.304 C 199.438 215.536,204.619 220.912,205.274 221.251 C 210.000 223.695,215.210 219.000,213.555 213.787 C 213.196 212.654,53.453 36.847,51.578 35.520 C 50.165 34.521,47.563 34.273,45.832 34.973 M122.244 130.560 L 172.450 185.813 110.438 185.930 C 76.332 185.994,47.998 185.944,47.473 185.817 C 45.711 185.392,45.895 183.957,48.379 178.764 C 52.675 169.779,56.440 156.558,58.863 141.945 C 60.699 130.875,61.418 123.092,61.887 109.227 C 62.443 92.756,63.701 85.987,67.909 76.801 L 69.692 72.908 70.865 74.107 C 71.510 74.767,94.631 100.171,122.244 130.560 M152.983 199.147 C 152.455 201.338,150.317 205.431,148.359 208.000 C 144.808 212.658,139.241 216.128,133.296 217.387 C 121.554 219.875,109.622 213.865,104.495 202.880 C 103.837 201.472,103.172 199.792,103.017 199.147 L 102.734 197.973 128.000 197.973 L 153.266 197.973 152.983 199.147 " stroke="none" fill-rule="evenodd"></path></svg>