<svg fill="currentColor" viewBox="0 0 256 256" xmlns="http://www.w3.org/2000/svg"><path d="M119.680 26.498 C 102.684 28.282,86.599 35.791,74.079 47.785 C 58.249 62.949,49.920 82.958,49.920 105.818 C 49.920 130.856,44.776 158.227,36.971 174.720 C 34.361 180.235,34.347 180.288,34.347 184.107 C 34.347 187.257,34.524 188.306,35.333 189.949 C 36.705 192.734,39.326 195.294,42.174 196.629 L 44.587 197.760 67.515 197.881 L 90.444 198.002 90.695 199.161 C 93.947 214.216,104.722 225.278,119.743 228.979 C 124.095 230.052,132.715 229.935,137.173 228.744 C 140.953 227.733,146.591 225.180,149.575 223.128 C 157.387 217.753,163.132 208.997,165.300 199.161 L 165.556 198.002 188.485 197.881 L 211.413 197.760 213.760 196.645 C 216.590 195.301,218.999 192.959,220.514 190.080 C 221.483 188.240,221.638 187.419,221.645 184.107 C 221.653 180.312,221.625 180.206,219.221 175.147 C 216.104 168.587,214.968 165.494,212.885 157.896 C 208.744 142.793,206.080 122.516,206.080 106.097 C 206.080 89.206,201.630 73.845,193.002 60.955 C 176.738 36.656,148.652 23.458,119.680 26.498 M139.520 39.065 C 148.566 40.624,158.858 44.998,166.717 50.623 C 174.242 56.009,182.599 65.736,186.703 73.885 C 189.976 80.386,192.311 87.734,193.252 94.499 C 193.510 96.351,193.907 103.350,194.136 110.053 C 194.365 116.756,194.936 125.585,195.406 129.674 C 197.657 149.277,202.060 166.958,207.622 178.729 C 208.886 181.403,209.920 183.838,209.920 184.139 C 209.920 184.440,209.618 184.987,209.250 185.356 C 208.645 185.961,200.685 186.027,128.000 186.027 C 55.315 186.027,47.355 185.961,46.750 185.356 C 46.382 184.987,46.080 184.435,46.080 184.129 C 46.080 183.822,47.124 181.388,48.400 178.719 C 52.675 169.779,56.445 156.529,58.863 141.945 C 60.699 130.875,61.418 123.092,61.887 109.227 C 62.434 93.049,63.478 87.102,67.353 78.115 C 76.787 56.232,96.724 41.411,120.747 38.421 C 125.065 37.884,134.555 38.209,139.520 39.065 M152.983 199.147 C 152.455 201.338,150.317 205.431,148.359 208.000 C 144.808 212.658,139.241 216.128,133.296 217.387 C 121.554 219.875,109.622 213.865,104.495 202.880 C 103.837 201.472,103.172 199.792,103.017 199.147 L 102.734 197.973 128.000 197.973 L 153.266 197.973 152.983 199.147 " stroke="none" fill-rule="evenodd"></path></svg>