<svg fill="currentColor" viewBox="0 0 256 256" xmlns="http://www.w3.org/2000/svg"><path d="M123.472 50.318 C 117.174 51.322,111.901 54.068,107.050 58.872 C 102.961 62.922,100.868 66.283,99.407 71.147 L 98.477 74.240 56.080 74.240 L 13.683 74.240 12.181 75.559 C 8.576 78.724,9.875 84.480,14.482 85.760 C 15.421 86.021,28.521 86.183,48.823 86.184 L 81.645 86.187 76.556 89.519 C 62.388 98.794,50.904 111.810,43.545 126.933 C 41.068 132.024,38.128 139.890,37.152 144.038 L 36.641 146.209 33.787 146.734 C 32.218 147.023,29.397 147.985,27.520 148.872 C 21.100 151.903,16.653 156.105,13.465 162.153 C 5.793 176.701,11.646 195.221,26.241 202.583 C 30.919 204.943,34.673 205.839,39.893 205.841 C 45.480 205.845,48.568 205.115,53.760 202.565 C 58.459 200.258,63.878 195.010,66.213 190.507 C 68.915 185.296,69.760 181.840,69.760 176.000 C 69.760 170.178,68.906 166.667,66.260 161.609 C 63.408 156.160,57.320 150.728,51.319 148.278 C 48.421 147.095,48.447 147.369,50.631 141.050 C 52.338 136.112,56.236 128.113,59.128 123.616 C 66.006 112.920,77.005 102.630,88.239 96.383 C 91.956 94.317,99.851 90.687,100.019 90.967 C 100.060 91.037,100.754 92.437,101.559 94.080 C 103.775 98.596,109.542 104.240,114.347 106.593 C 119.410 109.072,122.624 109.836,128.000 109.836 C 133.376 109.836,136.590 109.072,141.653 106.593 C 146.458 104.240,152.225 98.596,154.441 94.080 C 155.246 92.437,155.931 91.046,155.961 90.987 C 155.991 90.929,157.244 91.380,158.746 91.990 C 173.667 98.053,187.754 109.664,196.551 123.148 C 199.653 127.905,203.582 135.880,205.369 141.050 C 207.544 147.343,207.563 147.102,204.795 148.232 C 196.351 151.679,190.059 158.649,187.239 167.680 C 185.811 172.253,185.811 179.747,187.239 184.320 C 188.940 189.767,190.964 193.121,194.975 197.139 C 197.877 200.047,199.347 201.144,202.240 202.565 C 207.543 205.169,210.507 205.856,216.320 205.825 C 220.671 205.803,221.675 205.647,225.190 204.449 C 233.224 201.711,239.133 196.651,242.815 189.357 C 248.944 177.217,245.847 162.091,235.424 153.249 C 232.098 150.428,225.991 147.409,222.238 146.730 L 219.410 146.218 218.517 142.883 C 212.824 121.612,198.458 101.993,179.444 89.524 L 174.355 86.187 207.177 86.184 C 227.479 86.183,240.579 86.021,241.518 85.760 C 246.125 84.480,247.424 78.724,243.819 75.559 L 242.317 74.240 199.920 74.240 L 157.523 74.240 156.593 71.147 C 155.132 66.283,153.039 62.922,148.950 58.872 C 144.956 54.917,141.474 52.801,136.405 51.249 C 133.135 50.248,126.783 49.791,123.472 50.318 M133.659 63.006 C 136.578 63.925,140.328 66.582,142.223 69.075 C 146.518 74.727,147.057 82.976,143.525 89.004 C 139.881 95.223,132.024 99.032,125.389 97.798 C 118.089 96.441,112.495 91.442,110.742 84.710 C 108.535 76.234,112.341 67.791,120.088 63.977 C 124.374 61.867,128.990 61.537,133.659 63.006 M45.013 158.802 C 53.135 160.812,59.160 170.181,57.724 178.567 C 56.370 186.473,50.512 192.398,42.695 193.770 C 35.159 195.093,27.189 190.803,23.769 183.584 C 22.486 180.875,22.400 180.398,22.400 176.000 C 22.400 171.607,22.487 171.123,23.762 168.431 C 27.551 160.432,36.047 156.583,45.013 158.802 M219.920 158.521 C 224.601 159.267,229.926 163.551,232.238 168.431 C 233.513 171.123,233.600 171.607,233.600 176.000 C 233.600 180.398,233.514 180.875,232.231 183.584 C 229.671 188.987,224.867 192.627,218.825 193.741 C 209.541 195.451,200.126 188.697,198.349 179.052 C 196.576 169.429,203.509 159.745,213.179 158.337 C 215.659 157.976,216.676 158.004,219.920 158.521 " stroke="none" fill-rule="evenodd"></path></svg>