<svg fill="currentColor" viewBox="0 0 256 256" xmlns="http://www.w3.org/2000/svg"><path d="M45.227 58.774 C 43.313 59.730,41.671 62.781,42.069 64.640 C 42.493 66.623,43.429 68.187,44.682 69.009 C 45.694 69.673,47.383 69.785,59.236 69.973 L 72.645 70.187 80.073 82.897 L 87.500 95.607 86.530 96.977 C 85.431 98.528,70.360 119.162,70.135 119.423 C 70.055 119.516,68.472 118.899,66.618 118.052 C 54.232 112.390,39.547 112.697,27.189 118.877 C 14.530 125.207,5.389 137.042,2.509 150.827 C 1.593 155.215,1.412 162.950,2.122 167.394 C 3.126 173.680,5.819 180.526,9.341 185.745 C 20.675 202.541,41.285 210.106,60.524 204.531 C 76.432 199.921,88.319 187.549,92.652 171.093 C 93.883 166.418,94.184 157.092,93.262 152.203 C 91.547 143.113,87.667 135.268,81.775 128.975 L 79.692 126.751 86.863 116.920 C 90.807 111.514,94.156 107.235,94.306 107.412 C 94.455 107.589,101.456 119.541,109.863 133.973 C 118.271 148.405,125.796 161.233,126.586 162.480 C 128.694 165.805,131.520 166.773,134.706 165.261 C 136.683 164.322,137.810 162.410,137.812 159.987 C 137.813 158.214,136.480 155.768,121.764 130.547 C 112.936 115.418,105.620 102.800,105.505 102.507 C 105.338 102.083,111.656 101.973,136.234 101.973 L 167.173 101.973 173.400 112.629 C 176.825 118.490,179.627 123.363,179.627 123.459 C 179.627 123.554,177.996 125.223,176.003 127.169 C 169.819 133.205,165.872 139.899,163.529 148.322 C 162.457 152.177,162.358 153.165,162.358 160.000 C 162.358 166.832,162.458 167.829,163.534 171.733 C 171.017 198.888,200.326 213.207,226.020 202.261 C 232.035 199.698,236.388 196.639,241.311 191.514 C 249.571 182.916,253.867 172.213,253.867 160.232 C 253.867 147.071,249.209 136.042,239.860 127.064 C 235.525 122.901,232.684 120.944,227.222 118.356 C 217.438 113.721,205.409 112.787,195.309 115.878 C 193.372 116.471,191.403 117.051,190.933 117.169 C 190.195 117.353,188.222 114.193,176.331 93.784 L 162.582 70.187 177.759 70.075 C 187.017 70.006,193.560 70.131,194.536 70.394 C 198.580 71.483,201.209 74.640,201.840 79.167 C 202.463 83.641,204.531 85.902,208.000 85.902 C 210.109 85.902,211.566 85.082,213.094 83.036 C 213.786 82.108,213.961 81.279,213.916 79.141 C 213.756 71.542,209.206 64.342,202.200 60.602 C 197.573 58.132,196.506 58.040,172.330 58.033 L 150.313 58.027 148.863 58.995 C 146.935 60.283,145.821 62.489,146.070 64.527 C 146.198 65.582,148.582 70.093,153.132 77.888 C 156.909 84.360,160.000 89.740,160.000 89.844 C 160.000 89.947,146.053 89.983,129.007 89.923 L 98.015 89.813 89.622 75.430 C 85.006 67.519,80.857 60.635,80.402 60.133 C 78.526 58.060,78.236 58.027,61.995 58.027 C 48.307 58.028,46.565 58.106,45.227 58.774 M55.680 126.968 C 57.323 127.310,59.597 128.020,60.735 128.544 L 62.803 129.498 53.113 142.722 C 47.784 149.996,43.053 156.760,42.600 157.755 C 41.697 159.742,41.952 161.786,43.352 163.778 C 44.161 164.930,46.384 165.973,48.028 165.973 C 50.827 165.973,51.791 164.969,60.670 152.801 C 65.400 146.318,70.011 140.005,70.915 138.774 L 72.560 136.534 73.753 137.920 C 76.963 141.651,79.537 146.534,80.907 151.491 C 81.963 155.312,81.965 164.661,80.912 168.533 C 77.301 181.802,66.796 191.230,53.016 193.568 C 36.364 196.393,19.733 185.418,15.078 168.533 C 14.022 164.700,14.031 155.359,15.096 151.491 C 17.208 143.818,22.280 136.459,28.320 132.303 C 36.492 126.681,45.692 124.887,55.680 126.968 M212.791 126.506 C 214.253 126.646,216.645 127.153,218.106 127.633 C 229.434 131.352,237.745 140.048,240.907 151.491 C 241.966 155.325,241.966 164.675,240.907 168.509 C 237.259 181.711,226.884 191.156,213.456 193.497 C 208.866 194.298,207.118 194.295,202.439 193.479 C 195.451 192.260,189.949 189.451,184.667 184.405 C 172.991 173.250,170.796 155.621,179.376 141.918 C 181.349 138.768,185.998 133.866,186.304 134.613 C 186.400 134.848,190.286 141.564,194.941 149.537 C 199.864 157.970,203.888 164.395,204.560 164.897 C 206.085 166.036,209.685 166.078,211.365 164.977 C 212.022 164.547,212.948 163.318,213.422 162.247 C 214.144 160.614,214.208 160.049,213.819 158.763 C 213.564 157.918,210.834 152.907,207.754 147.627 C 204.674 142.347,200.837 135.774,199.229 133.020 L 196.305 128.013 198.731 127.307 C 201.354 126.545,206.788 125.908,208.853 126.121 C 209.557 126.193,211.329 126.367,212.791 126.506 " stroke="none" fill-rule="evenodd"></path></svg>