<svg fill="currentColor" viewBox="0 0 256 256" xmlns="http://www.w3.org/2000/svg"><path d="M83.541 42.315 C 77.516 42.879,71.560 45.560,67.124 49.707 L 64.842 51.840 43.456 100.480 C 31.694 127.232,21.508 150.656,20.821 152.533 C 12.865 174.271,22.649 198.868,43.307 209.066 C 55.360 215.016,67.851 215.680,80.263 211.032 C 95.987 205.143,107.259 190.884,109.622 173.895 C 109.920 171.753,110.080 157.213,110.080 132.236 L 110.080 93.867 128.000 93.867 L 145.920 93.867 145.920 132.236 C 145.920 157.213,146.080 171.753,146.378 173.895 C 148.741 190.884,160.013 205.143,175.737 211.032 C 188.149 215.680,200.640 215.016,212.693 209.066 C 233.352 198.868,243.138 174.264,235.178 152.533 C 234.491 150.656,224.296 127.234,212.522 100.485 C 196.220 63.445,190.790 51.510,189.745 50.426 C 186.491 47.049,179.976 43.625,174.906 42.627 C 171.470 41.951,162.958 42.333,160.213 43.286 C 156.549 44.559,152.908 46.514,150.364 48.576 C 145.840 52.241,146.151 50.893,146.011 67.444 L 145.888 81.920 128.000 81.920 L 110.112 81.920 109.989 67.444 C 109.849 50.889,110.162 52.243,105.623 48.565 C 99.540 43.636,92.057 41.518,83.541 42.315 M94.933 55.935 L 97.920 57.450 98.029 97.256 L 98.138 137.062 95.367 134.470 C 82.699 122.620,63.539 118.804,47.817 125.001 C 45.925 125.747,45.593 125.785,45.806 125.230 C 47.335 121.247,74.962 58.897,75.448 58.333 C 76.397 57.232,78.582 55.960,81.162 55.004 C 82.958 54.339,84.277 54.196,87.680 54.295 C 91.598 54.409,92.191 54.543,94.933 55.935 M176.649 55.781 C 178.179 56.519,179.831 57.567,180.319 58.108 C 180.961 58.821,208.154 119.914,210.184 125.206 C 210.388 125.736,209.914 125.666,207.725 124.846 C 202.492 122.886,198.626 122.249,192.000 122.256 C 188.597 122.260,184.662 122.510,183.253 122.812 C 174.519 124.686,166.540 128.806,160.533 134.547 L 157.867 137.095 157.867 97.390 L 157.867 57.684 159.467 56.729 C 162.901 54.678,165.060 54.162,169.600 54.304 C 173.357 54.422,174.199 54.598,176.649 55.781 M68.845 134.413 C 76.393 135.504,82.378 138.604,88.173 144.423 C 91.595 147.859,92.344 148.897,94.217 152.786 C 97.043 158.656,97.813 161.957,97.791 168.107 C 97.770 174.004,96.794 178.213,94.279 183.253 C 88.508 194.823,77.055 201.861,64.000 201.861 C 50.946 201.861,39.573 194.874,33.710 183.253 C 31.208 178.294,30.229 174.051,30.215 168.107 C 30.200 161.869,30.981 158.494,33.759 152.786 C 35.641 148.921,36.427 147.837,39.827 144.423 C 44.228 140.003,47.973 137.587,53.036 135.900 C 58.480 134.086,63.387 133.624,68.845 134.413 M196.845 134.413 C 204.393 135.504,210.378 138.604,216.173 144.423 C 219.595 147.859,220.344 148.897,222.217 152.786 C 225.043 158.656,225.813 161.957,225.791 168.107 C 225.770 174.004,224.794 178.213,222.279 183.253 C 216.508 194.823,205.055 201.861,192.000 201.861 C 178.946 201.861,167.573 194.874,161.710 183.253 C 159.208 178.294,158.229 174.051,158.215 168.107 C 158.200 161.869,158.981 158.494,161.759 152.786 C 163.641 148.921,164.427 147.837,167.827 144.423 C 172.228 140.003,175.973 137.587,181.036 135.900 C 186.480 134.086,191.387 133.624,196.845 134.413 " stroke="none" fill-rule="evenodd"></path></svg>