<svg fill="currentColor" viewBox="0 0 256 256" xmlns="http://www.w3.org/2000/svg"><path d="M116.907 26.957 C 113.720 29.105,113.921 25.980,113.921 73.280 C 113.920 96.571,113.822 115.627,113.703 115.627 C 113.584 115.627,101.572 106.689,87.011 95.765 C 72.450 84.841,59.923 75.530,59.175 75.073 C 57.492 74.047,54.531 73.988,52.906 74.948 C 51.561 75.743,49.920 78.370,49.920 79.729 C 49.920 80.221,50.223 81.380,50.593 82.306 C 51.193 83.805,54.444 86.372,80.460 105.888 C 96.516 117.932,109.653 127.908,109.653 128.055 C 109.653 128.203,96.504 138.184,80.433 150.235 C 54.900 169.381,51.132 172.349,50.567 173.761 C 49.678 175.981,49.750 176.915,50.970 178.997 C 52.325 181.309,55.051 182.491,57.444 181.805 C 58.169 181.597,71.075 172.190,86.125 160.900 C 101.174 149.610,113.584 140.373,113.703 140.373 C 113.822 140.373,113.920 159.429,113.921 182.720 C 113.921 230.020,113.720 226.895,116.907 229.043 C 118.101 229.848,118.803 230.012,120.412 229.862 C 122.308 229.686,124.328 228.247,155.488 204.876 C 177.708 188.210,188.768 179.660,189.210 178.806 C 190.092 177.099,190.036 174.577,189.081 173.010 C 188.619 172.252,176.410 162.828,159.234 149.970 C 143.249 138.004,130.170 128.117,130.170 128.000 C 130.170 127.883,143.249 117.996,159.234 106.030 C 176.410 93.172,188.619 83.748,189.081 82.990 C 190.036 81.423,190.092 78.901,189.210 77.194 C 188.768 76.340,177.708 67.790,155.488 51.124 C 124.328 27.753,122.308 26.314,120.412 26.138 C 118.803 25.988,118.101 26.152,116.907 26.957 M150.044 62.081 C 163.029 71.821,173.645 79.933,173.635 80.108 C 173.622 80.348,141.598 104.512,127.506 114.917 L 125.867 116.127 125.867 80.250 C 125.867 60.518,125.995 44.373,126.151 44.373 C 126.307 44.373,137.059 52.342,150.044 62.081 M47.041 119.479 C 41.799 122.485,40.431 129.269,44.097 134.075 C 49.775 141.521,61.848 137.389,61.848 128.000 C 61.848 120.343,53.705 115.657,47.041 119.479 M191.763 118.991 C 188.529 120.460,186.027 124.390,186.027 128.000 C 186.027 131.708,188.746 135.821,192.078 137.155 C 198.871 139.873,205.835 135.238,205.835 128.000 C 205.835 123.737,203.635 120.369,199.800 118.762 C 197.837 117.939,193.827 118.054,191.763 118.991 M150.044 158.081 C 163.029 167.821,173.645 175.933,173.635 176.108 C 173.622 176.348,141.598 200.512,127.506 210.917 L 125.867 212.127 125.867 176.250 C 125.867 156.518,125.995 140.373,126.151 140.373 C 126.307 140.373,137.059 148.342,150.044 158.081 " stroke="none" fill-rule="evenodd"></path></svg>