<svg fill="currentColor" viewBox="0 0 256 256" xmlns="http://www.w3.org/2000/svg"><path d="M68.267 34.529 C 64.321 35.745,61.075 38.541,59.358 42.203 L 58.240 44.587 58.240 135.566 L 58.240 226.546 59.787 228.093 C 61.713 230.019,64.327 230.488,66.596 229.315 C 67.398 228.900,81.541 220.130,98.027 209.826 L 128.000 191.091 157.973 209.826 C 174.459 220.130,188.602 228.900,189.404 229.315 C 192.361 230.844,196.215 229.360,197.521 226.190 C 197.850 225.392,197.951 198.941,197.872 134.827 L 197.760 44.587 196.642 42.203 C 195.281 39.300,193.131 37.080,190.172 35.520 L 187.947 34.347 128.640 34.274 C 96.021 34.234,68.853 34.349,68.267 34.529 M185.585 46.905 C 186.063 47.799,186.245 212.907,185.768 212.907 C 185.625 212.907,173.001 205.083,157.714 195.520 C 131.810 179.316,129.789 178.133,128.000 178.133 C 126.211 178.133,124.190 179.316,98.286 195.520 C 82.999 205.083,70.375 212.907,70.232 212.907 C 69.755 212.907,69.937 47.799,70.415 46.905 C 70.848 46.096,71.941 46.080,128.000 46.080 C 184.059 46.080,185.152 46.096,185.585 46.905 " stroke="none" fill-rule="evenodd"></path></svg>