<svg fill="currentColor" viewBox="0 0 256 256" xmlns="http://www.w3.org/2000/svg"><path d="M85.364 26.770 C 83.162 27.899,82.133 29.564,82.133 32.000 C 82.133 34.437,83.164 36.104,85.364 37.226 C 86.733 37.924,90.211 37.972,139.816 37.973 L 192.805 37.973 193.469 38.922 C 194.064 39.771,194.133 47.867,194.133 116.845 C 194.133 193.275,194.139 193.829,194.993 195.211 C 197.379 199.071,203.213 198.687,205.333 194.530 C 206.035 193.153,206.079 188.517,206.079 115.778 C 206.080 39.562,206.068 38.451,205.222 35.713 C 204.134 32.191,201.467 29.108,198.060 27.435 L 195.627 26.240 141.227 26.130 C 90.028 26.026,86.741 26.063,85.364 26.770 M59.872 58.637 C 55.526 60.006,52.100 63.430,50.771 67.734 C 49.934 70.445,49.920 71.760,49.921 147.778 C 49.921 220.509,49.965 225.154,50.667 226.551 C 51.820 228.846,53.971 230.089,56.398 229.863 C 58.239 229.692,60.485 228.185,85.069 210.625 C 99.739 200.147,111.858 191.573,112.000 191.573 C 112.142 191.573,124.261 200.147,138.931 210.625 C 163.515 228.185,165.761 229.692,167.602 229.863 C 170.029 230.089,172.180 228.846,173.333 226.551 C 174.035 225.154,174.079 220.509,174.079 147.778 C 174.080 71.562,174.068 70.451,173.222 67.713 C 172.134 64.191,169.467 61.108,166.060 59.435 L 163.627 58.240 112.640 58.158 C 71.497 58.091,61.309 58.183,59.872 58.637 M161.469 70.922 C 162.064 71.771,162.133 79.214,162.133 141.962 C 162.133 180.512,162.009 212.053,161.857 212.053 C 161.705 212.053,151.193 204.630,138.497 195.557 C 125.801 186.483,114.670 178.765,113.762 178.405 C 112.284 177.819,111.926 177.818,110.349 178.396 C 109.380 178.752,98.199 186.470,85.503 195.548 C 72.807 204.626,62.295 212.053,62.143 212.053 C 61.991 212.053,61.867 180.512,61.867 141.962 C 61.867 79.214,61.936 71.771,62.531 70.922 L 63.195 69.973 112.000 69.973 L 160.805 69.973 161.469 70.922 " stroke="none" fill-rule="evenodd"></path></svg>