<svg fill="currentColor" viewBox="0 0 256 256" xmlns="http://www.w3.org/2000/svg"><path d="M156.210 31.357 C 142.743 34.280,130.935 37.056,129.970 37.525 C 125.575 39.659,122.460 44.213,122.114 49.010 C 121.972 50.968,125.075 66.316,138.856 131.840 C 149.823 183.985,156.094 212.938,156.690 214.176 C 158.800 218.560,163.229 221.441,168.320 221.741 C 170.926 221.894,174.442 221.239,195.929 216.594 C 222.592 210.831,223.522 210.545,226.369 207.218 C 227.151 206.304,228.211 204.666,228.724 203.578 C 230.772 199.235,231.545 203.575,213.142 116.118 C 202.911 67.497,195.884 35.017,195.352 33.884 C 194.149 31.325,191.395 28.666,188.627 27.392 C 184.206 25.356,183.385 25.457,156.210 31.357 M50.902 35.030 C 47.728 36.251,44.766 39.081,43.268 42.325 L 42.027 45.013 42.027 128.000 L 42.027 210.987 43.268 213.675 C 44.791 216.974,47.751 219.766,51.023 220.990 C 53.294 221.840,54.178 221.867,80.000 221.867 C 105.736 221.867,106.713 221.837,108.953 220.999 C 112.217 219.778,114.888 217.273,116.571 213.853 L 117.973 211.005 117.973 128.000 L 117.973 44.995 116.571 42.147 C 114.888 38.727,112.217 36.222,108.953 35.001 C 106.710 34.162,105.765 34.134,79.877 34.156 C 54.181 34.177,53.032 34.212,50.902 35.030 M184.046 38.614 C 184.398 38.966,184.911 40.358,185.185 41.707 C 185.459 43.056,186.315 47.184,187.088 50.880 C 187.861 54.576,188.429 57.600,188.351 57.600 C 188.274 57.600,176.939 60.004,163.164 62.943 C 149.388 65.882,138.029 68.198,137.922 68.091 C 137.814 67.983,136.876 63.899,135.836 59.014 C 133.738 49.157,133.761 48.454,136.194 47.993 C 136.967 47.847,147.584 45.555,159.787 42.899 C 171.989 40.243,182.296 38.048,182.690 38.022 C 183.083 37.995,183.694 38.261,184.046 38.614 M105.301 46.592 C 105.669 46.960,105.813 49.787,105.813 56.619 L 105.813 66.133 80.000 66.133 L 54.187 66.133 54.187 56.619 C 54.187 49.787,54.331 46.960,54.699 46.592 C 55.438 45.853,104.562 45.853,105.301 46.592 M193.028 78.968 C 194.145 84.385,194.995 88.879,194.916 88.954 C 194.684 89.178,144.569 99.915,144.459 99.764 C 144.123 99.305,140.407 80.464,140.612 80.259 C 140.786 80.085,185.325 70.233,190.752 69.168 C 190.887 69.142,191.911 73.552,193.028 78.968 M105.813 128.000 L 105.813 177.920 80.000 177.920 L 54.187 177.920 54.187 128.000 L 54.187 78.080 80.000 78.080 L 105.813 78.080 105.813 128.000 M204.816 134.972 C 208.598 153.003,211.629 167.818,211.553 167.894 C 211.340 168.102,161.179 178.816,161.056 178.679 C 160.997 178.614,157.794 163.531,153.939 145.162 C 146.988 112.047,146.937 111.762,147.869 111.528 C 148.385 111.398,159.726 108.937,173.071 106.059 C 194.316 101.476,197.371 100.910,197.636 101.506 C 197.803 101.880,201.034 116.940,204.816 134.972 M216.139 188.833 C 217.177 193.705,218.027 197.942,218.027 198.249 C 218.027 198.556,217.595 199.081,217.067 199.416 C 216.120 200.015,170.882 209.929,169.119 209.923 C 168.620 209.921,168.017 209.680,167.779 209.387 C 167.440 208.968,164.044 193.808,163.704 191.195 C 163.646 190.748,169.784 189.276,188.800 185.175 C 202.645 182.190,214.036 179.799,214.113 179.862 C 214.189 179.925,215.101 183.962,216.139 188.833 M105.813 199.381 C 105.813 206.213,105.669 209.040,105.301 209.408 C 104.562 210.147,55.438 210.147,54.699 209.408 C 54.331 209.040,54.187 206.213,54.187 199.381 L 54.187 189.867 80.000 189.867 L 105.813 189.867 105.813 199.381 " stroke="none" fill-rule="evenodd"></path></svg>