<svg fill="currentColor" viewBox="0 0 256 256" xmlns="http://www.w3.org/2000/svg"><path d="M66.773 26.487 C 56.843 28.164,47.954 35.406,44.223 44.858 C 41.915 50.704,42.027 45.926,42.027 138.880 C 42.027 225.202,42.030 225.498,42.895 226.987 C 43.372 227.808,44.428 228.816,45.241 229.226 C 46.632 229.928,51.087 229.972,120.107 229.971 C 192.583 229.970,193.511 229.960,194.884 229.122 C 198.909 226.668,198.909 221.332,194.884 218.878 C 193.511 218.041,192.590 218.030,123.785 218.028 L 54.077 218.027 54.274 214.626 C 54.437 211.804,54.738 210.685,56.042 208.046 C 57.712 204.667,60.626 201.610,63.645 200.070 C 67.913 197.893,64.990 197.973,139.716 197.973 C 205.095 197.972,209.369 197.927,210.759 197.226 C 211.572 196.816,212.628 195.808,213.105 194.987 C 213.970 193.499,213.973 193.174,213.973 112.000 C 213.973 30.826,213.970 30.501,213.105 29.013 C 212.628 28.192,211.572 27.184,210.759 26.774 C 209.368 26.072,205.123 26.031,139.093 26.077 C 100.491 26.104,67.947 26.289,66.773 26.487 M105.823 83.307 C 105.832 126.874,105.864 128.709,106.640 130.420 C 107.085 131.399,107.924 132.512,108.506 132.893 C 109.947 133.837,112.323 134.167,113.850 133.635 C 114.546 133.392,121.247 128.590,128.742 122.964 C 136.236 117.337,142.767 112.485,143.255 112.180 C 144.070 111.671,145.300 112.496,158.520 122.413 C 166.429 128.345,173.465 133.396,174.157 133.637 C 175.678 134.168,178.055 133.836,179.494 132.893 C 180.076 132.512,180.915 131.399,181.360 130.420 C 182.136 128.709,182.168 126.874,182.177 83.307 L 182.187 37.973 192.000 37.973 L 201.813 37.973 201.813 111.991 L 201.813 186.009 134.080 186.124 L 66.347 186.240 62.933 187.406 C 61.056 188.047,58.406 189.247,57.045 190.073 C 55.684 190.898,54.482 191.573,54.374 191.573 C 54.265 191.573,54.227 160.027,54.288 121.471 L 54.400 51.369 56.007 48.118 C 57.716 44.660,60.600 41.623,63.658 40.063 C 67.405 38.152,68.822 38.031,87.787 38.001 L 105.813 37.973 105.823 83.307 M169.813 76.825 C 169.813 107.794,169.705 115.612,169.280 115.356 C 168.987 115.179,164.188 111.614,158.617 107.433 C 146.503 98.343,146.178 98.137,144.000 98.137 C 141.822 98.137,141.497 98.343,129.383 107.433 C 123.812 111.614,119.013 115.179,118.720 115.356 C 118.295 115.612,118.187 107.794,118.187 76.825 L 118.187 37.973 144.000 37.973 L 169.813 37.973 169.813 76.825 " stroke="none" fill-rule="evenodd"></path></svg>