<svg fill="currentColor" viewBox="0 0 256 256" xmlns="http://www.w3.org/2000/svg"><path d="M51.840 34.543 C 49.914 35.345,47.416 39.041,43.609 46.720 C 37.308 59.430,34.139 73.135,34.135 87.691 C 34.133 95.727,34.529 99.782,36.029 107.093 C 44.057 146.215,76.537 176.194,116.349 181.231 L 122.027 181.950 122.027 199.988 L 122.027 218.027 104.427 218.027 C 88.514 218.028,86.686 218.100,85.364 218.774 C 83.164 219.896,82.133 221.563,82.133 224.000 C 82.133 226.437,83.164 228.104,85.364 229.226 C 86.727 229.921,89.644 229.972,128.000 229.972 C 166.356 229.972,169.273 229.921,170.636 229.226 C 172.836 228.104,173.867 226.437,173.867 224.000 C 173.867 221.563,172.836 219.896,170.636 218.774 C 169.314 218.100,167.486 218.028,151.573 218.027 L 133.973 218.027 133.973 199.988 L 133.973 181.950 139.651 181.231 C 178.042 176.374,209.650 148.369,219.149 110.795 C 223.532 93.455,222.637 73.722,216.702 56.899 C 213.725 48.462,208.527 38.515,205.640 35.733 L 203.980 34.133 128.337 34.160 C 86.733 34.175,52.309 34.347,51.840 34.543 M201.442 51.929 C 205.643 60.298,208.356 69.450,209.416 78.827 L 209.766 81.920 128.004 81.920 L 46.243 81.920 46.592 78.663 C 47.119 73.741,48.485 67.509,50.157 62.399 C 51.522 58.228,55.445 49.414,56.994 47.039 L 57.621 46.077 128.117 46.185 L 198.613 46.293 201.442 51.929 M209.377 96.960 C 208.801 104.408,205.758 115.259,202.106 122.889 C 198.018 131.430,193.409 138.036,186.673 145.012 C 169.877 162.406,146.919 171.277,122.659 169.748 C 102.066 168.450,83.444 159.723,68.904 144.557 C 61.933 137.285,57.103 130.134,53.111 121.173 C 49.772 113.678,47.163 103.943,46.623 96.960 L 46.383 93.867 128.000 93.867 L 209.617 93.867 209.377 96.960 " stroke="none" fill-rule="evenodd"></path></svg>