<svg fill="currentColor" viewBox="0 0 256 256" xmlns="http://www.w3.org/2000/svg"><path d="M46.198 43.994 C 43.607 44.743,35.461 54.071,29.419 63.209 C 13.170 87.781,6.652 118.349,11.532 147.089 C 13.672 159.697,18.204 173.162,23.774 183.467 C 30.373 195.676,42.423 210.880,46.458 212.089 C 50.652 213.346,54.988 209.082,53.784 204.885 C 53.569 204.136,51.554 201.458,49.305 198.935 C 35.494 183.437,27.152 166.132,23.393 145.184 C 22.529 140.370,22.415 138.363,22.415 128.000 C 22.415 117.637,22.529 115.630,23.393 110.816 C 27.152 89.868,35.494 72.563,49.305 57.065 C 51.554 54.542,53.569 51.864,53.784 51.115 C 54.622 48.195,52.618 44.807,49.547 43.955 C 48.696 43.718,47.904 43.541,47.787 43.561 C 47.669 43.581,46.955 43.776,46.198 43.994 M206.249 43.977 C 203.371 44.821,201.407 48.297,202.216 51.115 C 202.431 51.864,204.446 54.542,206.695 57.065 C 220.506 72.563,228.848 89.868,232.607 110.816 C 233.471 115.630,233.585 117.637,233.585 128.000 C 233.585 138.363,233.471 140.370,232.607 145.184 C 228.848 166.132,220.506 183.437,206.695 198.935 C 204.446 201.458,202.431 204.136,202.216 204.885 C 201.728 206.586,202.323 208.964,203.573 210.305 C 204.581 211.387,206.872 212.480,208.133 212.480 C 209.711 212.480,212.429 210.501,215.457 207.147 C 232.212 188.583,242.331 166.064,245.367 140.587 C 246.026 135.054,246.029 120.867,245.373 115.413 C 242.281 89.744,232.026 67.009,215.252 48.640 C 211.082 44.073,209.216 43.106,206.249 43.977 M72.004 74.571 C 68.928 75.989,61.834 85.723,57.784 94.085 C 47.381 115.559,47.381 140.441,57.784 161.915 C 61.460 169.503,68.245 179.089,71.352 181.084 C 72.952 182.112,75.924 182.152,77.427 181.168 C 79.792 179.618,80.958 175.842,79.761 173.606 C 79.513 173.142,77.925 170.991,76.233 168.827 C 66.755 156.701,62.150 143.335,62.166 128.000 C 62.183 112.350,67.006 98.631,76.747 86.517 C 78.393 84.470,79.928 82.118,80.156 81.291 C 80.937 78.460,79.446 75.620,76.540 74.406 C 74.715 73.644,73.957 73.671,72.004 74.571 M179.366 74.425 C 176.535 75.657,175.075 78.504,175.844 81.291 C 176.072 82.118,177.607 84.470,179.253 86.517 C 189.000 98.638,193.828 112.378,193.828 128.000 C 193.828 143.396,189.245 156.701,179.767 168.827 C 176.083 173.539,175.787 174.058,175.787 175.801 C 175.787 179.151,178.427 181.762,181.810 181.757 C 184.084 181.754,185.287 180.999,187.926 177.920 C 195.522 169.058,201.961 155.720,204.331 143.939 C 207.166 129.846,206.400 116.622,201.976 103.315 C 198.197 91.949,188.676 76.728,183.996 74.571 C 182.081 73.689,181.125 73.659,179.366 74.425 M121.319 90.629 C 113.399 92.142,107.627 95.113,101.819 100.667 C 96.738 105.526,93.567 110.711,91.443 117.633 C 90.403 121.023,90.291 122.027,90.291 128.000 C 90.291 133.973,90.403 134.977,91.443 138.367 C 93.567 145.289,96.738 150.474,101.819 155.333 C 106.684 159.984,111.071 162.543,117.633 164.557 C 121.023 165.597,122.027 165.709,128.000 165.709 C 133.973 165.709,134.977 165.597,138.367 164.557 C 144.929 162.543,149.316 159.984,154.181 155.333 C 159.262 150.474,162.433 145.289,164.557 138.367 C 165.597 134.977,165.709 133.973,165.709 128.000 C 165.709 122.027,165.597 121.023,164.557 117.633 C 162.433 110.711,159.262 105.526,154.181 100.667 C 149.162 95.868,144.011 92.954,137.600 91.285 C 133.200 90.141,125.499 89.830,121.319 90.629 M135.680 103.212 C 143.720 105.741,150.278 112.351,152.865 120.533 C 154.084 124.388,154.151 131.209,153.007 135.022 C 150.193 144.406,142.690 151.397,133.296 153.387 C 119.393 156.332,105.577 147.286,102.613 133.296 C 99.693 119.512,108.603 105.766,122.509 102.602 C 126.072 101.792,132.044 102.068,135.680 103.212 " stroke="none" fill-rule="evenodd"></path></svg>