<svg fill="currentColor" viewBox="0 0 256 256" xmlns="http://www.w3.org/2000/svg"><path d="M124.229 3.365 C 118.750 7.000,111.070 14.849,106.710 21.270 C 102.872 26.921,99.642 34.780,98.528 41.176 C 97.704 45.908,98.206 53.310,99.640 57.558 C 102.685 66.585,111.062 74.578,119.833 76.826 L 122.027 77.388 122.027 83.695 L 122.027 90.001 82.667 90.122 L 43.307 90.243 40.781 91.203 C 33.589 93.938,27.984 100.308,26.498 107.434 C 25.897 110.317,25.871 137.412,26.465 141.227 C 27.334 146.801,30.134 153.710,33.138 157.694 L 34.133 159.014 34.133 181.251 C 34.133 203.399,34.137 203.500,35.134 206.639 C 37.369 213.676,42.326 218.623,49.403 220.876 L 52.513 221.867 128.000 221.867 L 203.487 221.867 206.597 220.876 C 213.652 218.629,218.394 213.928,220.783 206.812 L 221.867 203.583 221.867 181.298 L 221.867 159.014 222.856 157.694 C 225.824 153.733,228.660 146.757,229.497 141.357 C 230.130 137.282,230.133 110.462,229.502 107.434 C 228.016 100.308,222.411 93.938,215.219 91.203 L 212.693 90.243 173.333 90.122 L 133.973 90.001 133.973 83.695 L 133.973 77.388 136.167 76.826 C 142.362 75.238,149.324 70.057,153.171 64.171 C 159.535 54.435,159.434 40.660,152.902 27.587 C 149.377 20.529,143.699 13.302,137.411 7.867 C 131.927 3.128,130.300 2.137,128.000 2.137 C 126.598 2.137,125.581 2.468,124.229 3.365 M132.420 19.740 C 136.908 24.288,140.093 28.726,142.502 33.786 C 146.593 42.378,146.978 51.112,143.525 57.004 C 139.881 63.223,132.024 67.032,125.389 65.798 C 117.983 64.421,112.469 59.424,110.682 52.469 C 109.858 49.266,110.048 44.053,111.138 39.893 C 112.053 36.400,114.730 30.905,117.434 26.965 C 119.795 23.525,127.110 15.787,128.000 15.787 C 128.286 15.787,130.275 17.566,132.420 19.740 M211.322 102.648 C 214.110 103.598,216.590 106.208,217.421 109.067 C 217.982 110.998,218.062 113.636,217.930 125.760 C 217.782 139.367,217.720 140.325,216.799 143.147 C 213.946 151.894,207.189 158.568,198.613 161.109 C 194.778 162.245,188.782 162.165,184.747 160.922 C 174.353 157.723,167.081 148.758,166.161 138.011 C 166.001 136.142,165.585 133.992,165.237 133.233 C 163.356 129.139,156.644 129.139,154.763 133.233 C 154.415 133.992,153.999 136.142,153.839 138.011 C 152.940 148.518,145.913 157.409,135.893 160.720 C 128.818 163.058,120.080 161.912,113.994 157.849 C 111.046 155.880,107.198 151.885,105.564 149.097 C 103.815 146.113,102.477 141.762,102.160 138.027 C 102.001 136.149,101.585 133.992,101.237 133.233 C 99.356 129.139,92.644 129.139,90.763 133.233 C 90.415 133.992,89.999 136.142,89.839 138.011 C 88.676 151.596,77.467 161.954,64.000 161.887 C 53.799 161.837,45.109 156.177,40.572 146.630 C 38.318 141.887,37.973 138.887,37.973 124.041 C 37.973 108.855,38.127 107.893,41.017 105.004 C 44.220 101.801,37.160 102.044,127.817 102.007 C 201.094 101.977,209.542 102.042,211.322 102.648 M97.819 159.069 C 103.514 166.536,112.272 171.764,121.901 173.443 C 128.439 174.584,134.522 173.975,141.378 171.494 C 147.613 169.238,154.077 164.348,158.828 158.293 L 160.000 156.800 161.173 158.293 C 167.882 166.832,175.497 171.508,185.894 173.473 C 192.518 174.725,200.563 173.683,207.080 170.728 L 209.920 169.440 209.916 185.733 C 209.912 201.958,209.907 202.036,208.904 204.190 C 207.750 206.670,205.482 208.727,203.126 209.433 C 200.701 210.160,55.193 210.126,52.743 209.398 C 50.434 208.713,47.287 205.566,46.602 203.257 C 46.231 202.010,46.080 196.859,46.080 185.471 L 46.080 169.440 48.920 170.728 C 54.144 173.096,57.588 173.786,64.213 173.791 C 69.494 173.794,70.632 173.660,74.027 172.634 C 82.511 170.071,89.457 165.378,94.147 159.040 C 94.971 157.925,95.782 157.013,95.949 157.013 C 96.115 157.013,96.957 157.938,97.819 159.069 " stroke="none" fill-rule="evenodd"></path></svg>