<svg fill="currentColor" viewBox="0 0 256 256" xmlns="http://www.w3.org/2000/svg"><path d="M77.426 18.772 C 74.535 20.203,74.049 21.502,73.879 28.251 L 73.732 34.102 58.946 34.224 C 44.223 34.346,44.151 34.351,42.027 35.395 C 38.943 36.911,36.143 39.887,35.048 42.815 L 34.133 45.259 34.133 128.000 L 34.133 210.741 35.052 213.197 C 36.292 216.512,39.488 219.708,42.803 220.948 L 45.259 221.867 128.000 221.867 L 210.741 221.867 213.138 220.970 C 216.379 219.757,219.757 216.379,220.970 213.138 L 221.867 210.741 221.867 128.000 C 221.867 45.292,221.866 45.258,220.981 42.891 C 219.902 40.008,216.957 36.857,213.973 35.393 C 211.850 34.352,211.768 34.346,197.054 34.224 L 182.268 34.102 182.121 28.251 C 181.950 21.485,181.456 20.175,178.541 18.764 C 176.361 17.709,175.639 17.709,173.459 18.764 C 170.542 20.176,170.050 21.484,169.879 28.267 L 169.732 34.133 128.000 34.133 L 86.268 34.133 86.121 28.267 C 85.950 21.484,85.458 20.176,82.541 18.764 C 80.356 17.706,79.577 17.708,77.426 18.772 M73.879 51.967 C 73.999 56.750,74.171 58.073,74.797 59.027 C 77.235 62.745,82.765 62.745,85.203 59.027 C 85.829 58.073,86.001 56.750,86.121 51.967 L 86.268 46.080 128.000 46.080 L 169.732 46.080 169.879 51.967 C 169.999 56.750,170.171 58.073,170.797 59.027 C 173.235 62.745,178.765 62.745,181.203 59.027 C 181.829 58.073,182.001 56.750,182.121 51.967 L 182.268 46.080 195.582 46.080 C 205.368 46.080,209.032 46.216,209.408 46.592 C 209.789 46.973,209.920 51.541,209.920 64.512 L 209.920 81.920 128.000 81.920 L 46.080 81.920 46.080 64.512 C 46.080 51.541,46.211 46.973,46.592 46.592 C 46.968 46.216,50.632 46.080,60.418 46.080 L 73.732 46.080 73.879 51.967 M209.920 151.381 C 209.920 195.546,209.801 209.015,209.408 209.408 C 208.663 210.153,47.337 210.153,46.592 209.408 C 46.199 209.015,46.080 195.546,46.080 151.381 L 46.080 93.867 128.000 93.867 L 209.920 93.867 209.920 151.381 M100.073 123.346 C 99.230 124.087,98.353 125.391,98.075 126.319 C 97.132 129.468,97.926 130.576,109.218 141.859 L 119.459 152.092 109.042 162.553 C 100.123 171.510,98.583 173.243,98.332 174.611 C 97.939 176.758,98.320 178.044,99.879 179.819 C 101.337 181.479,103.179 182.028,105.707 181.556 C 107.073 181.301,108.818 179.753,117.650 170.971 L 127.993 160.685 138.571 171.186 C 149.844 182.377,150.293 182.700,153.592 181.975 C 155.345 181.590,157.668 179.233,158.018 177.484 C 158.635 174.396,158.052 173.606,147.000 162.567 L 136.541 152.121 146.940 141.660 C 158.274 130.259,158.859 129.438,157.913 126.278 C 157.647 125.391,156.753 124.072,155.927 123.346 C 154.720 122.287,154.043 122.027,152.490 122.027 C 151.427 122.027,150.138 122.239,149.625 122.498 C 149.113 122.758,144.037 127.604,138.347 133.269 L 128.000 143.567 117.653 133.269 C 111.963 127.604,106.887 122.758,106.375 122.498 C 105.862 122.239,104.573 122.027,103.510 122.027 C 101.957 122.027,101.280 122.287,100.073 123.346 " stroke="none" fill-rule="evenodd"></path></svg>