<svg fill="currentColor" viewBox="0 0 256 256" xmlns="http://www.w3.org/2000/svg"><path d="M64.640 42.767 C 63.936 43.020,62.665 43.664,61.816 44.197 C 58.133 46.510,57.701 47.344,42.602 81.320 L 28.210 113.707 21.252 113.920 C 13.562 114.156,12.359 114.518,10.867 117.044 C 9.894 118.691,9.877 121.623,10.832 123.080 C 12.391 125.460,13.743 125.863,20.154 125.865 L 26.015 125.867 26.127 168.640 L 26.240 211.413 27.371 213.826 C 28.706 216.674,31.266 219.295,34.051 220.667 C 36.035 221.645,36.196 221.653,52.053 221.653 L 68.053 221.653 70.204 220.518 C 72.820 219.137,75.702 216.098,76.945 213.408 C 77.798 211.561,77.877 210.615,78.006 200.640 L 78.145 189.867 128.000 189.867 L 177.855 189.867 177.994 200.640 C 178.123 210.615,178.202 211.561,179.055 213.408 C 180.298 216.098,183.180 219.137,185.796 220.518 L 187.947 221.653 203.947 221.653 C 219.804 221.653,219.965 221.645,221.949 220.667 C 224.734 219.295,227.294 216.674,228.629 213.826 L 229.760 211.413 229.873 168.640 L 229.985 125.867 235.846 125.865 C 242.257 125.863,243.609 125.460,245.168 123.080 C 246.123 121.623,246.106 118.691,245.133 117.044 C 243.641 114.518,242.438 114.156,234.748 113.920 L 227.790 113.707 213.384 81.289 C 197.390 45.299,197.686 45.839,192.658 43.460 L 190.080 42.241 128.000 42.274 C 84.765 42.297,65.531 42.447,64.640 42.767 M201.434 84.049 C 208.682 100.355,214.613 113.747,214.613 113.809 C 214.613 113.870,175.617 113.920,127.954 113.920 C 58.794 113.920,41.340 113.812,41.515 113.387 C 41.636 113.093,47.249 100.469,53.988 85.333 C 60.727 70.197,66.594 56.997,67.026 55.999 L 67.811 54.184 128.032 54.292 L 188.254 54.400 201.434 84.049 M218.027 151.893 L 218.027 177.920 128.000 177.920 L 37.973 177.920 37.973 151.893 L 37.973 125.867 128.000 125.867 L 218.027 125.867 218.027 151.893 M62.141 146.359 C 57.450 147.764,56.605 154.421,60.789 157.007 C 62.078 157.803,62.898 157.867,71.944 157.865 C 80.868 157.864,81.824 157.792,83.070 157.032 C 84.971 155.873,85.902 154.269,85.902 152.153 C 85.902 149.755,84.683 147.801,82.541 146.764 C 80.969 146.003,79.939 145.924,72.079 145.957 C 67.283 145.977,62.811 146.158,62.141 146.359 M173.426 146.757 C 171.299 147.829,170.098 149.776,170.098 152.153 C 170.098 154.269,171.029 155.873,172.930 157.032 C 174.176 157.792,175.132 157.864,184.056 157.865 C 193.102 157.867,193.922 157.803,195.211 157.007 C 198.811 154.782,198.755 149.279,195.108 146.886 C 194.115 146.235,192.689 146.117,184.554 146.011 C 175.807 145.898,175.026 145.950,173.426 146.757 M66.049 199.483 C 65.942 207.468,65.811 209.167,65.280 209.503 C 64.914 209.734,59.112 209.910,51.748 209.913 C 39.436 209.920,38.837 209.883,38.415 209.095 C 38.150 208.599,37.973 204.595,37.973 199.068 L 37.973 189.867 52.076 189.867 L 66.179 189.867 66.049 199.483 M218.027 199.068 C 218.027 204.595,217.850 208.599,217.585 209.095 C 217.163 209.883,216.557 209.920,203.947 209.920 C 191.336 209.920,190.730 209.883,190.308 209.095 C 190.043 208.599,189.867 204.595,189.867 199.068 L 189.867 189.867 203.947 189.867 L 218.027 189.867 218.027 199.068 " stroke="none" fill-rule="evenodd"></path></svg>