<svg fill="currentColor" viewBox="0 0 256 256" xmlns="http://www.w3.org/2000/svg"><path d="M118.187 26.514 C 96.793 28.471,75.199 38.053,59.396 52.602 C 41.609 68.978,31.034 88.798,27.022 113.280 C 25.936 119.910,25.936 136.090,27.022 142.720 C 30.763 165.549,39.891 183.742,55.573 199.624 C 67.809 212.017,81.669 220.420,98.293 225.524 C 132.558 236.044,170.452 227.500,196.588 203.362 C 210.698 190.331,220.027 175.612,225.524 157.707 C 236.053 123.414,227.538 85.699,203.309 59.310 C 181.478 35.531,150.419 23.564,118.187 26.514 M135.893 38.406 C 167.603 41.326,194.653 59.923,208.645 88.422 C 228.544 128.954,215.303 177.923,177.659 203.020 C 157.929 216.174,133.495 220.891,109.867 216.107 C 81.770 210.419,57.745 191.169,45.963 164.907 C 38.397 148.041,36.191 128.839,39.738 110.720 C 47.073 73.253,77.492 44.288,114.987 39.068 C 123.287 37.913,128.678 37.742,135.893 38.406 M86.384 90.481 C 84.659 90.982,82.751 93.035,82.377 94.792 C 81.697 97.978,81.988 98.346,97.204 113.600 L 111.569 128.000 97.204 142.400 C 81.988 157.654,81.697 158.022,82.377 161.208 C 82.770 163.053,84.676 165.017,86.648 165.607 C 89.877 166.575,90.234 166.293,107.461 149.174 C 116.229 140.462,123.957 132.585,124.635 131.669 C 126.351 129.352,126.351 126.648,124.635 124.331 C 123.957 123.415,116.229 115.533,107.461 106.814 C 94.046 93.473,91.250 90.888,89.813 90.496 C 88.875 90.241,88.011 90.048,87.893 90.068 C 87.776 90.087,87.097 90.273,86.384 90.481 M142.596 90.457 C 139.214 91.233,137.150 95.609,138.711 98.695 C 138.971 99.207,145.546 106.011,153.322 113.813 L 167.462 128.000 153.322 142.187 C 145.546 149.989,138.971 156.793,138.711 157.305 C 136.672 161.336,140.617 166.491,145.177 165.755 C 146.870 165.481,148.096 164.354,164.127 148.331 C 178.198 134.269,181.344 130.913,181.693 129.600 C 182.607 126.159,182.580 126.125,164.763 108.237 C 155.690 99.127,147.787 91.426,147.200 91.123 C 145.616 90.306,144.168 90.097,142.596 90.457 " stroke="none" fill-rule="evenodd"></path></svg>