<svg fill="currentColor" viewBox="0 0 256 256" xmlns="http://www.w3.org/2000/svg"><path d="M46.596 90.457 C 43.083 91.263,41.132 95.662,42.852 98.901 C 43.188 99.535,61.764 118.326,84.132 140.659 C 118.126 174.602,125.063 181.335,126.400 181.692 C 130.009 182.653,127.940 184.520,171.868 140.659 C 194.236 118.326,212.812 99.535,213.148 98.901 C 214.901 95.600,212.925 91.275,209.290 90.456 C 205.720 89.650,207.412 88.126,166.292 129.205 L 127.998 167.463 89.919 129.429 C 68.975 108.510,51.456 91.210,50.987 90.983 C 49.564 90.297,48.074 90.118,46.596 90.457 " stroke="none" fill-rule="evenodd"></path></svg>