<svg fill="currentColor" viewBox="0 0 256 256" xmlns="http://www.w3.org/2000/svg"><path d="M45.253 43.020 C 43.185 44.129,42.143 46.215,42.369 48.794 L 42.551 50.869 83.462 91.809 C 105.963 114.325,124.892 133.024,125.525 133.361 C 126.996 134.143,129.004 134.143,130.475 133.361 C 131.108 133.024,150.037 114.325,172.538 91.809 L 213.449 50.869 213.631 48.794 C 213.762 47.296,213.589 46.315,213.007 45.260 C 211.615 42.737,207.941 41.487,205.519 42.711 C 205.006 42.970,187.355 60.393,166.293 81.430 L 128.000 119.678 89.707 81.430 C 68.645 60.393,50.994 42.970,50.481 42.711 C 49.094 42.010,46.893 42.140,45.253 43.020 M44.587 122.875 C 42.097 124.513,41.215 127.505,42.410 130.254 C 42.759 131.056,60.011 148.598,83.904 172.446 C 118.085 206.563,125.063 213.335,126.400 213.692 C 130.014 214.655,127.901 216.566,172.234 172.234 C 206.582 137.885,213.337 130.939,213.693 129.600 C 214.865 125.188,211.016 121.286,206.433 122.240 C 205.275 122.481,197.913 129.628,166.504 160.998 L 127.995 199.460 89.704 161.214 C 68.644 140.179,50.994 122.757,50.481 122.498 C 48.993 121.745,46.013 121.936,44.587 122.875 " stroke="none" fill-rule="evenodd"></path></svg>