<svg fill="currentColor" viewBox="0 0 256 256" xmlns="http://www.w3.org/2000/svg"><path d="M92.970 43.206 C 90.933 44.562,89.875 46.880,90.243 49.177 C 90.519 50.893,92.519 52.975,128.995 89.493 L 167.456 128.000 128.995 166.507 C 92.519 203.025,90.519 205.107,90.243 206.823 C 89.488 211.531,94.732 215.362,98.901 213.148 C 99.535 212.812,118.326 194.236,140.659 171.868 C 174.602 137.874,181.335 130.937,181.692 129.600 C 182.653 125.991,184.520 128.060,140.659 84.132 C 118.326 61.764,99.535 43.188,98.901 42.852 C 97.178 41.937,94.648 42.088,92.970 43.206 " stroke="none" fill-rule="evenodd"></path></svg>