<svg fill="currentColor" viewBox="0 0 256 256" xmlns="http://www.w3.org/2000/svg"><path d="M117.333 42.712 C 116.168 43.169,37.380 121.625,35.370 124.331 C 33.648 126.648,33.647 129.350,35.368 131.669 C 36.047 132.585,54.719 151.410,76.861 173.504 C 119.753 216.303,117.934 214.649,121.426 213.994 C 123.304 213.642,125.676 211.285,126.025 209.424 C 126.644 206.123,127.630 207.205,86.933 166.507 L 48.428 128.000 86.701 89.707 C 108.258 68.139,125.169 50.889,125.421 50.212 C 127.214 45.384,122.254 40.784,117.333 42.712 M196.907 43.051 C 196.203 43.496,177.351 62.167,155.014 84.543 C 110.939 128.695,113.137 126.254,114.303 129.787 C 114.639 130.807,126.307 142.728,156.052 172.442 C 199.743 216.088,198.198 214.674,201.418 213.966 C 203.340 213.544,205.577 211.403,205.901 209.674 C 206.627 205.804,208.793 208.214,167.122 166.506 L 128.649 127.998 166.678 89.919 C 187.595 68.975,204.933 51.398,205.208 50.857 C 205.935 49.428,205.858 46.861,205.042 45.282 C 203.585 42.464,199.577 41.365,196.907 43.051 " stroke="none" fill-rule="evenodd"></path></svg>