<svg fill="currentColor" viewBox="0 0 256 256" xmlns="http://www.w3.org/2000/svg"><path d="M118.187 26.514 C 96.793 28.471,75.199 38.053,59.396 52.602 C 41.609 68.978,31.034 88.798,27.022 113.280 C 25.936 119.910,25.936 136.090,27.022 142.720 C 30.763 165.549,39.891 183.742,55.573 199.624 C 67.809 212.017,81.669 220.420,98.293 225.524 C 132.558 236.044,170.452 227.500,196.588 203.362 C 210.698 190.331,220.027 175.612,225.524 157.707 C 236.053 123.414,227.538 85.699,203.309 59.310 C 181.478 35.531,150.419 23.564,118.187 26.514 M135.893 38.406 C 167.603 41.326,194.653 59.923,208.645 88.422 C 228.544 128.954,215.303 177.923,177.659 203.020 C 157.929 216.174,133.495 220.891,109.867 216.107 C 81.770 210.419,57.745 191.169,45.963 164.907 C 38.397 148.041,36.191 128.839,39.738 110.720 C 47.073 73.253,77.492 44.288,114.987 39.068 C 123.287 37.913,128.678 37.742,135.893 38.406 M124.800 75.048 C 124.096 75.490,116.100 83.313,107.031 92.433 C 91.657 107.892,90.522 109.136,90.248 110.823 C 89.505 115.381,94.662 119.328,98.695 117.289 C 99.207 117.029,106.009 110.456,113.810 102.681 L 127.994 88.544 142.610 103.121 C 158.178 118.647,158.297 118.740,161.567 117.994 C 165.126 117.181,167.119 112.620,165.361 109.312 C 164.623 107.922,132.021 75.382,130.695 74.711 C 129.243 73.977,126.230 74.149,124.800 75.048 M125.199 130.798 C 124.480 131.153,116.488 138.876,107.438 147.961 C 89.658 165.811,89.421 166.109,90.393 169.352 C 90.983 171.324,92.947 173.230,94.792 173.623 C 97.978 174.303,98.346 174.012,113.600 158.796 L 128.000 144.431 142.400 158.784 C 150.320 166.678,157.219 173.349,157.732 173.609 C 159.059 174.280,161.534 174.191,163.027 173.419 C 166.105 171.828,166.946 167.413,164.739 164.437 C 162.606 161.562,131.687 131.057,130.426 130.584 C 128.750 129.956,126.740 130.038,125.199 130.798 " stroke="none" fill-rule="evenodd"></path></svg>