<svg fill="currentColor" viewBox="0 0 256 256" xmlns="http://www.w3.org/2000/svg"><path d="M35.286 42.853 C 32.737 43.766,30.420 45.493,28.802 47.686 C 25.836 51.707,26.027 46.453,26.027 124.024 L 26.027 194.133 20.160 194.135 C 15.098 194.136,14.106 194.251,12.930 194.968 C 11.029 196.127,10.098 197.731,10.098 199.847 C 10.098 202.245,11.317 204.199,13.459 205.236 C 15.183 206.070,16.478 206.080,128.000 206.080 C 239.522 206.080,240.817 206.070,242.541 205.236 C 244.683 204.199,245.902 202.245,245.902 199.847 C 245.902 197.731,244.971 196.127,243.070 194.968 C 241.894 194.251,240.902 194.136,235.845 194.135 L 229.983 194.133 229.872 123.200 L 229.760 52.267 228.776 50.289 C 227.336 47.394,225.251 45.155,222.660 43.720 L 220.373 42.453 128.640 42.363 C 52.229 42.288,36.636 42.370,35.286 42.853 M217.515 54.699 C 217.909 55.093,218.027 71.215,218.027 124.672 L 218.027 194.133 208.000 194.133 L 197.973 194.133 197.973 180.438 C 197.973 165.226,197.881 164.644,195.211 162.993 C 193.843 162.148,193.173 162.133,156.066 162.133 L 118.313 162.133 116.863 163.102 C 113.997 165.016,113.921 165.466,113.921 180.587 L 113.920 194.133 91.947 194.133 L 69.973 194.133 69.973 140.160 L 69.973 86.187 128.000 86.187 L 186.027 86.187 186.027 111.937 L 186.027 137.687 186.995 139.137 C 189.645 143.103,195.084 142.837,197.226 138.636 C 197.915 137.286,197.972 134.933,197.973 108.040 C 197.973 75.926,198.040 76.755,195.332 75.104 C 193.932 74.250,193.367 74.243,128.000 74.243 C 62.633 74.243,62.068 74.250,60.668 75.104 C 57.867 76.812,58.027 73.097,58.027 136.520 L 58.027 194.133 48.000 194.133 L 37.973 194.133 37.973 124.672 C 37.973 71.215,38.091 55.093,38.485 54.699 C 39.231 53.953,216.769 53.953,217.515 54.699 M186.027 184.107 L 186.027 194.133 155.947 194.133 L 125.867 194.133 125.867 184.107 L 125.867 174.080 155.947 174.080 L 186.027 174.080 186.027 184.107 " stroke="none" fill-rule="evenodd"></path></svg>