<svg fill="currentColor" viewBox="0 0 256 256" xmlns="http://www.w3.org/2000/svg"><path d="M125.143 26.826 C 124.393 27.303,123.433 28.221,123.010 28.867 C 122.283 29.977,122.228 32.685,122.027 77.587 L 121.813 125.132 82.533 148.006 C 60.929 160.587,42.727 171.226,42.086 171.650 C 40.502 172.695,39.257 174.851,39.255 176.550 C 39.253 178.288,40.354 180.496,43.557 185.173 C 60.645 210.131,86.731 225.888,116.749 229.385 C 121.155 229.898,124.737 230.013,130.773 229.836 C 144.189 229.443,153.083 227.591,166.976 222.298 C 174.089 219.588,184.911 213.113,192.423 207.073 C 204.165 197.633,214.859 183.703,221.031 169.811 C 224.653 161.660,227.426 152.206,228.976 142.720 C 230.068 136.038,230.072 119.866,228.984 113.280 C 225.229 90.550,216.022 72.224,200.402 56.391 C 191.978 47.852,183.850 42.003,173.013 36.682 C 159.516 30.055,146.970 26.841,132.102 26.200 C 126.973 25.979,126.393 26.032,125.143 26.826 M90.453 33.206 C 77.009 38.727,65.856 46.055,56.089 55.787 C 40.118 71.700,30.215 91.578,26.809 114.560 C 25.936 120.451,26.068 136.844,27.036 142.720 C 27.901 147.973,28.761 149.767,30.898 150.781 C 33.629 152.077,34.749 151.747,42.259 147.439 C 88.002 121.196,100.075 114.050,101.008 112.666 L 101.987 111.214 101.873 73.107 L 101.760 35.001 100.201 33.442 C 97.860 31.101,95.707 31.048,90.453 33.206 M145.920 39.934 C 163.135 43.384,179.298 52.102,191.828 64.696 C 195.321 68.207,200.958 75.050,202.385 77.512 C 202.575 77.840,190.950 84.842,168.560 97.886 C 149.798 108.817,134.340 117.760,134.210 117.760 C 134.080 117.760,133.973 99.878,133.973 78.021 L 133.973 38.282 137.280 38.574 C 139.099 38.734,142.987 39.346,145.920 39.934 M90.024 76.267 L 90.021 106.027 64.317 120.850 L 38.613 135.674 38.272 133.650 C 37.754 130.578,38.298 119.448,39.247 113.700 C 43.858 85.762,61.014 61.704,85.547 48.774 C 87.893 47.537,89.861 46.521,89.920 46.516 C 89.979 46.511,90.025 59.899,90.024 76.267 M210.240 91.627 C 225.215 125.122,217.663 165.615,191.598 191.585 C 173.961 209.157,149.617 218.808,125.227 217.897 C 97.598 216.866,72.704 203.906,55.993 181.856 C 54.699 180.148,53.715 178.688,53.807 178.612 C 53.898 178.535,78.165 164.396,107.733 147.193 C 137.301 129.989,171.957 109.807,184.747 102.345 C 197.536 94.882,208.214 88.770,208.476 88.761 C 208.738 88.753,209.532 90.043,210.240 91.627 " stroke="none" fill-rule="evenodd"></path></svg>