<svg fill="currentColor" viewBox="0 0 256 256" xmlns="http://www.w3.org/2000/svg"><path d="M28.668 43.104 C 25.837 44.830,26.027 38.734,26.027 128.093 C 26.028 204.537,26.072 209.366,26.774 210.759 C 27.184 211.572,28.192 212.628,29.013 213.105 C 30.501 213.970,30.842 213.974,127.087 214.084 C 195.756 214.162,224.167 214.060,225.395 213.729 C 230.287 212.412,231.552 205.965,227.457 203.214 L 226.007 202.240 131.990 202.240 L 37.973 202.240 37.973 140.268 L 37.973 78.296 65.387 105.664 C 80.464 120.716,93.219 133.243,93.732 133.502 C 94.927 134.106,97.074 134.106,98.268 133.502 C 98.781 133.243,105.680 126.571,113.601 118.677 L 128.001 104.324 156.587 132.907 C 172.310 148.628,185.173 161.635,185.173 161.812 C 185.173 161.989,179.100 162.133,171.677 162.133 C 158.890 162.133,158.108 162.179,156.789 162.993 C 152.929 165.379,153.313 171.213,157.470 173.333 C 158.805 174.013,160.788 174.079,180.053 174.079 C 203.340 174.079,202.976 174.118,204.983 171.382 C 205.846 170.207,205.869 169.663,205.979 148.556 C 206.082 128.608,206.033 126.820,205.339 125.470 C 203.213 121.336,197.358 120.964,194.979 124.812 C 194.182 126.101,194.133 126.964,194.133 139.677 C 194.133 147.100,193.989 153.173,193.812 153.173 C 193.636 153.173,179.572 139.241,162.559 122.213 C 145.546 105.184,131.108 90.976,130.475 90.639 C 129.100 89.908,127.020 89.847,125.732 90.498 C 125.219 90.757,118.320 97.429,110.399 105.323 L 95.999 119.676 66.986 90.666 L 37.973 61.656 37.973 54.281 C 37.973 45.951,37.632 44.506,35.332 43.104 C 33.475 41.972,30.525 41.972,28.668 43.104 " stroke="none" fill-rule="evenodd"></path></svg>