<svg fill="currentColor" viewBox="0 0 256 256" xmlns="http://www.w3.org/2000/svg"><path d="M131.978 26.612 C 127.882 27.959,124.394 31.251,122.938 35.144 C 122.049 37.518,122.027 38.143,122.027 60.373 C 122.027 82.604,122.049 83.228,122.938 85.603 C 123.967 88.353,126.473 91.308,129.042 92.798 C 129.994 93.351,132.768 94.291,135.205 94.888 C 140.346 96.148,144.129 97.815,147.795 100.435 C 157.660 107.486,162.793 118.962,161.657 131.426 C 160.617 142.832,153.465 153.228,143.065 158.450 C 141.846 159.062,139.158 160.070,137.091 160.691 C 132.073 162.196,124.850 162.281,119.680 160.895 C 102.689 156.341,92.573 141.362,94.294 123.304 C 94.810 117.880,96.347 113.186,98.957 109.057 C 101.338 105.290,102.183 102.378,101.897 98.929 C 101.502 94.172,100.725 93.171,84.707 76.800 C 76.555 68.469,69.101 61.120,68.141 60.468 C 64.190 57.784,58.933 57.378,54.532 59.417 C 51.739 60.711,50.021 62.377,46.203 67.488 C 36.193 80.892,29.712 96.437,27.017 113.509 C 25.942 120.324,25.946 136.002,27.026 142.918 C 32.225 176.218,52.913 204.670,82.556 219.288 C 92.373 224.129,102.216 227.274,112.640 228.899 C 118.810 229.861,130.878 230.200,137.173 229.588 C 161.910 227.183,184.571 216.163,201.722 198.199 C 228.249 170.415,236.851 130.660,224.200 94.315 C 212.383 60.365,183.170 34.788,148.168 27.746 C 140.490 26.202,134.502 25.782,131.978 26.612 M145.851 39.516 C 179.939 46.233,207.537 73.292,215.643 107.947 C 217.273 114.913,217.788 119.873,217.772 128.427 C 217.744 142.737,214.778 155.416,208.546 167.859 C 204.108 176.720,199.689 182.939,192.640 190.245 C 181.577 201.710,169.588 209.155,154.453 213.958 C 149.559 215.512,141.786 217.112,137.493 217.449 L 133.973 217.726 133.973 195.709 L 133.973 173.692 135.573 173.425 C 139.116 172.833,145.918 170.481,149.452 168.628 C 156.126 165.126,162.582 159.214,166.660 152.870 C 172.093 144.418,174.864 132.920,173.752 123.444 C 171.440 103.737,157.987 88.234,139.043 83.445 C 136.993 82.927,135.014 82.252,134.645 81.946 C 134.051 81.453,133.973 78.966,133.973 60.352 C 133.973 41.588,134.048 39.240,134.660 38.628 C 135.502 37.785,138.122 37.993,145.851 39.516 M75.066 84.105 C 82.708 91.877,89.229 98.667,89.557 99.193 C 90.105 100.073,89.977 100.456,87.974 103.942 C 85.495 108.253,82.966 115.416,82.531 119.360 L 82.236 122.027 60.259 122.027 L 38.282 122.027 38.574 118.720 C 39.755 105.320,45.246 90.205,53.287 78.219 C 57.152 72.459,59.297 69.973,60.404 69.973 C 60.850 69.973,67.015 75.915,75.066 84.105 M83.158 137.920 C 85.529 148.129,90.754 156.741,98.532 163.261 C 104.112 167.938,109.906 170.804,117.651 172.721 L 122.027 173.804 122.027 195.765 L 122.027 217.726 118.507 217.449 C 113.758 217.076,106.224 215.459,100.267 213.535 C 73.470 204.879,52.060 183.898,43.023 157.440 C 40.672 150.558,38.400 139.677,38.400 135.305 L 38.400 133.973 60.321 133.973 L 82.241 133.973 83.158 137.920 " stroke="none" fill-rule="evenodd"></path></svg>