<svg fill="currentColor" viewBox="0 0 256 256" xmlns="http://www.w3.org/2000/svg"><path d="M66.178 34.809 C 64.912 35.149,62.896 35.949,61.698 36.587 C 58.577 38.247,53.725 43.210,52.342 46.155 C 49.802 51.565,49.933 46.901,49.926 131.918 L 49.920 209.863 39.980 209.998 C 28.988 210.148,28.563 210.246,26.861 213.037 C 25.268 215.649,26.173 219.390,28.789 221.007 C 30.172 221.861,30.712 221.867,112.000 221.867 C 193.288 221.867,193.828 221.861,195.211 221.007 C 198.811 218.782,198.755 213.279,195.108 210.886 C 194.111 210.232,192.652 210.116,184.020 209.998 L 174.080 209.863 174.080 164.025 L 174.080 118.187 184.271 118.187 L 194.463 118.187 196.745 119.379 C 198.405 120.246,199.377 121.137,200.313 122.651 L 201.600 124.731 201.830 148.232 C 202.052 170.977,202.090 171.824,202.997 174.537 C 206.112 183.858,214.336 189.857,224.000 189.857 C 233.659 189.857,241.839 183.895,245.019 174.537 L 245.972 171.733 246.094 129.067 C 246.177 100.112,246.069 85.440,245.757 83.413 C 245.473 81.567,244.664 79.124,243.637 77.013 C 242.076 73.803,241.281 72.907,230.304 61.973 L 218.631 50.347 216.601 50.347 C 213.325 50.347,211.198 51.826,210.466 54.613 C 209.633 57.784,209.969 58.248,221.374 69.711 C 228.989 77.364,232.314 81.004,232.930 82.361 C 233.780 84.234,233.795 85.005,233.804 127.267 C 233.814 174.709,233.974 171.876,231.125 174.879 C 227.392 178.813,221.143 178.972,217.244 175.232 C 214.267 172.376,214.425 173.793,214.165 147.627 C 213.938 124.712,213.900 123.867,213.008 121.475 C 211.446 117.284,209.863 114.818,207.045 112.182 C 204.122 109.448,201.645 108.008,198.003 106.928 C 196.138 106.374,193.574 106.240,184.883 106.240 L 174.080 106.240 174.074 80.107 C 174.067 51.733,174.029 51.206,171.658 46.155 C 170.278 43.215,165.424 38.248,162.315 36.593 C 157.544 34.055,159.116 34.131,111.804 34.161 C 75.352 34.185,68.115 34.288,66.178 34.809 M157.215 47.573 C 158.644 48.464,159.673 49.568,160.595 51.200 L 161.920 53.547 162.033 131.733 L 162.147 209.920 112.007 209.920 L 61.867 209.920 61.867 133.393 C 61.867 91.303,61.990 55.970,62.140 54.874 C 62.574 51.702,64.650 48.681,67.367 47.266 L 69.667 46.068 112.414 46.181 L 155.161 46.293 157.215 47.573 M110.249 82.377 C 109.520 82.591,108.431 83.259,107.828 83.861 C 106.491 85.199,90.027 126.041,90.027 128.022 C 90.027 129.621,90.860 131.285,92.367 132.693 L 93.507 133.760 106.312 133.885 C 116.104 133.980,119.069 134.131,118.913 134.525 C 118.801 134.808,116.025 141.760,112.744 149.973 C 105.163 168.952,105.550 167.720,106.442 170.056 C 107.550 172.958,110.225 174.468,113.252 173.900 C 116.286 173.331,116.619 172.693,125.573 150.293 C 130.472 138.038,133.973 128.701,133.972 127.893 C 133.970 126.104,132.644 123.951,130.884 122.878 C 129.582 122.084,128.714 122.030,117.227 122.028 C 110.480 122.027,104.960 121.974,104.960 121.910 C 104.960 121.846,107.858 114.598,111.400 105.804 C 118.279 88.723,118.691 87.210,117.058 85.023 C 115.250 82.602,112.769 81.638,110.249 82.377 " stroke="none" fill-rule="evenodd"></path></svg>