<svg fill="currentColor" viewBox="0 0 256 256" xmlns="http://www.w3.org/2000/svg"><path d="M124.800 26.284 C 114.897 27.306,109.049 28.511,100.907 31.209 C 80.261 38.051,62.527 51.688,50.120 70.263 C 44.241 79.064,38.535 92.540,36.323 102.844 C 34.161 112.913,34.133 113.691,34.133 163.813 C 34.133 217.838,33.807 213.472,38.168 217.832 C 42.528 222.192,38.171 221.867,92.119 221.867 C 130.161 221.867,139.827 221.752,143.803 221.256 C 183.267 216.326,215.875 188.267,226.394 150.187 C 228.588 142.243,229.560 135.677,229.836 126.933 C 231.400 77.260,195.779 34.670,146.347 27.111 C 142.022 26.450,128.299 25.923,124.800 26.284 M139.733 38.415 C 173.771 41.615,202.211 64.010,213.383 96.410 C 221.924 121.179,218.251 149.576,203.690 171.355 C 198.907 178.510,191.964 186.149,185.580 191.283 C 173.681 200.851,157.629 207.500,141.665 209.473 C 136.211 210.147,47.270 210.086,46.592 209.408 C 45.919 208.735,45.854 121.547,46.522 115.290 C 48.275 98.858,54.741 82.974,64.796 70.400 C 67.853 66.577,74.239 60.160,78.080 57.051 C 95.250 43.157,117.767 36.350,139.733 38.415 " stroke="none" fill-rule="evenodd"></path></svg>