<svg fill="currentColor" viewBox="0 0 256 256" xmlns="http://www.w3.org/2000/svg"><path d="M87.939 26.514 C 69.553 28.436,52.352 36.879,39.669 50.207 C 28.867 61.558,22.298 74.477,19.099 90.656 C 18.194 95.237,18.166 96.354,18.023 133.257 C 17.854 177.089,17.628 174.296,21.684 178.319 C 23.031 179.654,24.865 180.993,25.813 181.334 C 27.223 181.840,32.802 181.970,57.831 182.080 L 88.142 182.214 89.334 184.951 C 93.294 194.039,101.499 204.684,110.028 211.796 C 120.143 220.231,132.945 226.241,146.244 228.797 C 151.217 229.753,151.536 229.760,190.293 229.760 L 229.333 229.760 231.680 228.436 C 232.971 227.708,234.646 226.308,235.402 225.324 C 238.147 221.757,238.080 222.783,238.080 184.074 C 238.080 162.687,237.905 147.273,237.632 144.579 C 234.492 113.581,213.627 87.513,184.268 77.908 C 179.751 76.430,171.685 74.667,169.442 74.667 C 168.382 74.667,168.117 74.340,166.857 71.473 C 166.085 69.716,164.437 66.558,163.194 64.454 C 147.720 38.268,118.144 23.357,87.939 26.514 M107.520 39.065 C 116.566 40.624,126.858 44.998,134.717 50.623 C 139.890 54.326,147.149 61.857,150.732 67.240 C 157.268 77.057,160.787 87.311,161.664 99.093 C 164.118 132.047,142.181 161.384,109.726 168.549 C 103.159 169.998,94.369 170.291,61.440 170.156 L 30.080 170.027 30.080 133.973 C 30.080 100.778,30.143 97.565,30.870 93.445 C 36.106 63.785,58.875 42.139,88.747 38.421 C 93.065 37.884,102.555 38.209,107.520 39.065 M184.729 90.861 C 193.387 94.464,199.951 98.843,206.502 105.387 C 213.833 112.710,219.303 121.501,222.479 131.061 C 225.894 141.344,226.112 144.583,226.124 185.300 L 226.133 218.066 188.907 217.915 C 152.128 217.766,151.629 217.752,147.413 216.804 C 134.058 213.800,123.587 208.314,114.501 199.564 C 109.569 194.813,106.445 190.927,103.286 185.614 L 101.138 182.000 106.284 181.260 C 126.535 178.345,144.373 168.323,156.653 152.960 C 170.469 135.677,176.650 112.619,173.000 91.985 C 172.045 86.588,171.682 86.924,176.960 88.322 C 179.483 88.990,182.979 90.132,184.729 90.861 " stroke="none" fill-rule="evenodd"></path></svg>