<svg fill="currentColor" viewBox="0 0 256 256" xmlns="http://www.w3.org/2000/svg"><path d="M37.012 50.381 C 32.768 51.388,28.964 54.481,27.152 58.401 L 26.240 60.373 26.240 144.000 L 26.240 227.627 27.138 229.568 C 30.465 236.759,38.795 239.933,45.761 236.664 C 47.301 235.942,53.262 231.001,64.842 220.847 L 81.683 206.080 149.597 206.080 C 216.421 206.080,217.555 206.066,220.287 205.222 C 223.809 204.134,226.892 201.467,228.565 198.060 L 229.760 195.627 229.760 128.000 L 229.760 60.373 228.838 58.378 C 227.462 55.401,224.810 52.774,221.759 51.364 L 219.093 50.133 128.853 50.067 C 77.306 50.029,37.927 50.164,37.012 50.381 M217.078 62.531 L 218.027 63.195 218.027 127.884 C 218.027 187.479,217.971 192.634,217.321 193.353 C 216.642 194.103,213.937 194.133,148.217 194.133 C 80.018 194.133,79.812 194.136,77.450 195.020 C 75.463 195.763,72.418 198.245,58.554 210.418 C 49.464 218.399,41.595 225.222,41.067 225.581 C 40.202 226.167,40.001 226.162,39.040 225.533 L 37.973 224.834 37.973 144.014 L 37.973 63.195 38.922 62.531 C 39.772 61.935,48.926 61.867,128.000 61.867 C 207.074 61.867,216.228 61.935,217.078 62.531 M92.543 107.214 C 88.477 109.945,89.699 116.373,94.540 117.717 C 96.872 118.365,159.128 118.365,161.460 117.717 C 166.301 116.373,167.523 109.945,163.457 107.214 L 162.007 106.240 128.000 106.240 L 93.993 106.240 92.543 107.214 M92.543 139.214 C 88.477 141.945,89.699 148.373,94.540 149.717 C 96.872 150.365,159.128 150.365,161.460 149.717 C 166.301 148.373,167.523 141.945,163.457 139.214 L 162.007 138.240 128.000 138.240 L 93.993 138.240 92.543 139.214 " stroke="none" fill-rule="evenodd"></path></svg>