<svg fill="currentColor" viewBox="0 0 256 256" xmlns="http://www.w3.org/2000/svg"><path d="M124.668 11.104 C 122.262 12.571,122.027 13.766,122.027 24.520 L 122.027 34.133 112.107 34.135 C 103.020 34.136,102.072 34.207,100.821 34.969 C 96.794 37.424,97.400 43.597,101.853 45.495 C 102.877 45.931,105.615 46.080,112.626 46.080 L 122.027 46.080 122.027 57.296 L 122.027 68.512 94.895 84.015 C 73.368 96.315,67.596 99.793,66.950 100.852 C 66.204 102.075,66.136 103.120,66.135 113.364 L 66.133 124.541 47.043 135.998 C 32.603 144.665,27.717 147.804,26.989 148.885 L 26.027 150.313 26.027 183.785 C 26.027 220.865,25.905 219.224,28.789 221.007 C 30.160 221.854,30.815 221.867,71.944 221.865 C 112.586 221.864,113.743 221.841,115.070 221.032 C 118.119 219.173,117.950 220.789,118.187 191.379 C 118.395 165.579,118.423 164.863,119.291 163.200 C 120.479 160.925,123.203 158.904,125.848 158.337 C 130.135 157.418,134.775 159.496,136.709 163.200 C 137.577 164.863,137.605 165.579,137.813 191.379 C 138.050 220.789,137.881 219.173,140.930 221.032 C 142.257 221.841,143.414 221.864,184.056 221.865 C 225.185 221.867,225.840 221.854,227.211 221.007 C 230.095 219.224,229.973 220.865,229.973 183.785 L 229.973 150.313 229.011 148.885 C 228.283 147.804,223.397 144.665,208.957 135.998 L 189.867 124.541 189.865 113.364 C 189.864 103.120,189.796 102.075,189.050 100.852 C 188.404 99.793,182.632 96.315,161.105 84.015 L 133.973 68.512 133.973 57.296 L 133.973 46.080 143.374 46.080 C 153.512 46.080,154.618 45.889,156.541 43.802 C 157.894 42.335,158.243 39.085,157.253 37.172 C 156.864 36.419,155.931 35.427,155.179 34.969 C 153.928 34.207,152.980 34.136,143.893 34.135 L 133.973 34.133 133.973 24.520 C 133.973 13.766,133.738 12.571,131.332 11.104 C 129.475 9.972,126.525 9.972,124.668 11.104 M152.960 93.162 L 177.707 107.340 177.815 158.630 L 177.923 209.920 164.082 209.920 L 150.240 209.920 150.102 186.987 C 149.965 164.311,149.952 164.022,148.981 161.280 C 145.709 152.043,137.730 146.254,128.213 146.211 C 123.484 146.190,119.901 147.155,116.466 149.376 C 111.908 152.322,108.843 156.185,107.021 161.280 C 106.037 164.032,106.029 164.230,105.898 186.987 L 105.766 209.920 91.921 209.920 L 78.077 209.920 78.185 158.630 L 78.293 107.340 103.040 93.162 C 116.651 85.364,127.883 78.984,128.000 78.984 C 128.117 78.984,139.349 85.364,152.960 93.162 M66.133 174.293 L 66.133 209.920 52.053 209.920 L 37.973 209.920 37.973 182.672 L 37.973 155.425 51.947 147.047 C 59.632 142.440,65.968 138.669,66.027 138.668 C 66.085 138.667,66.133 154.699,66.133 174.293 M204.267 147.198 L 218.027 155.428 218.027 182.674 L 218.027 209.920 203.947 209.920 L 189.867 209.920 189.867 174.268 C 189.867 154.660,190.011 138.695,190.187 138.792 C 190.363 138.888,196.699 142.671,204.267 147.198 " stroke="none" fill-rule="evenodd"></path></svg>