<svg fill="currentColor" viewBox="0 0 256 256" xmlns="http://www.w3.org/2000/svg"><path d="M120.747 26.275 C 119.925 26.371,117.429 26.657,115.200 26.911 C 97.087 28.974,78.488 36.924,63.688 48.928 C 59.118 52.635,51.837 59.914,48.399 64.213 C 33.997 82.223,26.027 104.946,26.027 128.000 C 26.027 160.313,41.247 190.513,67.313 209.917 C 80.785 219.946,95.439 226.020,113.280 228.971 C 119.895 230.065,136.063 230.069,142.720 228.978 C 167.013 224.997,187.139 214.259,203.399 196.604 C 216.819 182.033,225.565 163.607,228.975 142.720 C 230.058 136.090,230.063 120.352,228.985 113.526 C 224.265 83.633,208.329 58.913,183.040 42.254 C 177.765 38.779,167.473 33.766,161.280 31.655 C 155.481 29.679,148.709 28.035,142.507 27.099 C 138.223 26.452,123.882 25.910,120.747 26.275 M122.027 128.132 L 122.027 217.864 118.720 217.524 C 110.604 216.688,99.614 213.791,91.998 210.480 C 80.399 205.437,68.630 196.760,60.276 187.093 C 48.851 173.873,41.603 158.120,38.975 140.800 C 37.965 134.142,37.965 121.858,38.975 115.200 C 44.911 76.074,74.577 45.834,113.493 39.239 C 115.957 38.821,118.885 38.462,120.000 38.440 L 122.027 38.400 122.027 128.132 M141.013 39.041 C 144.934 39.616,148.290 40.315,152.427 41.419 L 154.027 41.846 154.027 127.986 L 154.027 214.126 151.573 214.840 C 148.166 215.831,141.685 217.052,137.493 217.491 L 133.973 217.861 133.973 128.130 L 133.973 38.400 135.360 38.408 C 136.123 38.412,138.667 38.697,141.013 39.041 M177.961 53.267 C 180.402 54.905,183.216 56.949,184.213 57.809 L 186.027 59.373 186.018 128.140 L 186.009 196.907 182.498 199.530 C 177.452 203.300,167.346 209.493,166.241 209.493 C 166.094 209.493,165.973 172.819,165.973 127.996 L 165.973 46.498 169.747 48.394 C 171.823 49.436,175.519 51.629,177.961 53.267 M202.698 78.024 C 208.209 86.171,212.952 96.925,215.424 106.880 C 218.621 119.755,218.621 136.245,215.424 149.120 C 213.843 155.487,211.577 161.653,208.629 167.612 C 206.074 172.776,201.570 180.078,198.849 183.467 L 197.992 184.533 197.992 128.000 L 197.992 71.467 198.849 72.533 C 199.320 73.120,201.052 75.591,202.698 78.024 " stroke="none" fill-rule="evenodd"></path></svg>