<svg fill="currentColor" viewBox="0 0 256 256" xmlns="http://www.w3.org/2000/svg"><path d="M120.320 26.283 C 113.204 27.139,111.028 27.458,107.307 28.194 C 101.901 29.263,100.981 29.640,99.411 31.427 C 96.268 35.008,98.995 40.975,103.765 40.954 C 104.540 40.950,106.325 40.676,107.733 40.344 C 119.844 37.488,136.965 37.488,148.115 40.343 C 152.809 41.545,155.316 40.934,157.024 38.170 C 158.903 35.130,157.431 30.787,154.083 29.495 C 152.571 28.912,147.492 27.864,142.293 27.063 C 138.205 26.433,123.435 25.909,120.320 26.283 M56.076 56.000 C 50.945 59.899,41.400 72.958,36.730 82.470 C 32.255 91.582,29.125 100.802,29.617 103.424 C 30.252 106.808,33.781 108.997,37.031 108.024 C 39.409 107.311,40.735 105.624,41.954 101.760 C 43.664 96.341,45.047 92.931,47.594 87.852 C 51.535 79.994,55.480 74.240,61.606 67.413 C 63.493 65.310,65.034 63.165,65.275 62.307 C 65.871 60.179,65.143 57.943,63.339 56.359 C 62.067 55.242,61.493 55.040,59.588 55.040 C 57.915 55.040,57.016 55.286,56.076 56.000 M193.493 55.888 C 190.871 57.614,189.957 61.289,191.528 63.787 C 191.971 64.491,193.475 66.337,194.871 67.889 C 202.970 76.898,209.137 87.469,213.137 99.200 C 215.360 105.717,216.369 107.245,218.969 108.024 C 222.219 108.997,225.748 106.808,226.383 103.425 C 226.925 100.535,221.728 86.499,217.093 78.336 C 212.106 69.552,203.458 58.336,199.708 55.789 C 198.209 54.771,195.116 54.820,193.493 55.888 M32.640 148.421 C 29.085 150.617,28.791 152.477,30.947 159.147 C 35.610 173.570,42.379 185.283,52.640 196.682 C 55.868 200.267,56.939 200.954,59.307 200.956 C 62.714 200.958,65.280 198.400,65.280 195.001 C 65.280 193.188,64.768 192.309,61.668 188.800 C 52.929 178.907,46.947 168.764,42.920 157.013 C 41.834 153.845,40.721 150.815,40.447 150.279 C 39.200 147.847,35.135 146.880,32.640 148.421 M218.240 148.209 C 216.202 149.146,215.201 150.587,214.047 154.240 C 209.832 167.585,203.638 178.370,194.016 189.120 C 192.109 191.250,190.935 192.965,190.715 193.941 C 190.016 197.043,191.863 200.074,195.031 201.024 C 197.596 201.792,199.814 200.722,202.912 197.224 C 213.775 184.956,220.062 174.283,224.803 160.063 C 226.728 154.289,226.846 153.403,225.968 151.303 C 224.812 148.535,220.920 146.977,218.240 148.209 M101.172 215.770 C 99.214 216.734,98.137 218.632,98.135 221.119 C 98.134 222.836,98.361 223.396,99.629 224.800 C 100.968 226.282,101.540 226.551,105.069 227.355 C 115.306 229.687,127.480 230.535,137.173 229.590 C 142.406 229.079,152.064 227.326,154.083 226.520 C 156.251 225.654,157.566 223.796,157.748 221.343 C 157.950 218.607,156.990 216.811,154.759 215.753 C 152.800 214.823,152.192 214.846,146.129 216.084 C 139.574 217.423,133.937 218.027,128.000 218.027 C 122.063 218.027,116.426 217.423,109.871 216.084 C 103.859 214.857,103.082 214.829,101.172 215.770 " stroke="none" fill-rule="evenodd"></path></svg>