<svg fill="currentColor" viewBox="0 0 256 256" xmlns="http://www.w3.org/2000/svg"><path d="M122.240 18.401 C 112.718 19.590,103.102 24.234,95.973 31.086 L 92.802 34.133 73.084 34.133 C 54.238 34.133,53.262 34.172,51.023 35.010 C 47.751 36.234,44.791 39.026,43.268 42.325 L 42.027 45.013 42.027 132.062 L 42.027 219.111 43.431 221.964 C 44.959 225.067,47.142 227.235,50.314 228.798 L 52.267 229.760 127.128 229.871 C 210.303 229.995,204.339 230.199,208.427 227.088 C 211.218 224.963,213.134 221.731,213.754 218.101 C 214.110 216.016,214.205 192.450,214.107 130.124 L 213.973 44.995 212.571 42.147 C 210.888 38.727,208.217 36.222,204.953 35.001 C 202.745 34.175,201.698 34.133,182.916 34.133 L 163.198 34.133 160.027 31.086 C 149.883 21.337,136.013 16.681,122.240 18.401 M136.533 31.213 C 150.889 34.830,160.637 46.812,161.906 62.400 L 162.210 66.133 128.000 66.133 L 93.790 66.133 94.094 62.400 C 94.671 55.308,96.738 49.377,100.435 44.205 C 108.557 32.841,122.737 27.738,136.533 31.213 M85.333 46.432 C 85.333 46.625,84.883 48.113,84.332 49.739 C 82.560 54.967,82.133 58.202,82.133 66.421 C 82.133 75.105,82.336 75.789,85.364 77.333 C 86.727 78.028,89.644 78.079,128.000 78.079 C 166.356 78.079,169.273 78.028,170.636 77.333 C 173.664 75.789,173.867 75.105,173.867 66.421 C 173.867 58.202,173.440 54.967,171.668 49.739 C 171.117 48.113,170.667 46.625,170.667 46.432 C 170.667 45.836,200.703 45.993,201.301 46.592 C 202.046 47.337,202.046 216.770,201.301 217.515 C 200.557 218.259,55.443 218.259,54.699 217.515 C 53.954 216.770,53.954 47.337,54.699 46.592 C 55.297 45.993,85.333 45.836,85.333 46.432 M94.141 114.354 C 89.448 115.780,88.605 122.421,92.789 125.007 C 94.154 125.850,94.837 125.867,128.000 125.867 C 161.163 125.867,161.846 125.850,163.211 125.007 C 166.811 122.781,166.755 117.277,163.106 114.886 C 162.037 114.185,159.680 114.128,128.659 114.058 C 110.345 114.017,94.811 114.150,94.141 114.354 M94.141 146.354 C 89.448 147.780,88.605 154.421,92.789 157.007 C 94.154 157.850,94.837 157.867,128.000 157.867 C 161.163 157.867,161.846 157.850,163.211 157.007 C 166.811 154.781,166.755 149.277,163.106 146.886 C 162.037 146.185,159.680 146.128,128.659 146.058 C 110.345 146.017,94.811 146.150,94.141 146.354 " stroke="none" fill-rule="evenodd"></path></svg>