<svg fill="currentColor" viewBox="0 0 256 256" xmlns="http://www.w3.org/2000/svg"><path d="M117.547 34.575 C 100.489 36.484,83.325 43.573,69.423 54.451 C 65.361 57.630,54.220 68.900,46.507 77.634 C 43.104 81.487,39.798 85.227,39.159 85.946 L 37.998 87.253 37.984 74.880 C 37.971 63.298,37.916 62.418,37.122 61.116 C 34.668 57.091,29.332 57.091,26.878 61.116 C 26.061 62.455,26.030 63.306,26.028 84.097 L 26.027 105.687 26.995 107.137 C 28.999 110.136,28.510 110.079,52.053 110.079 C 71.318 110.079,73.302 110.013,74.636 109.333 C 78.837 107.191,79.103 101.752,75.137 99.102 C 73.701 98.142,73.551 98.133,59.208 98.133 L 44.728 98.133 46.099 96.402 C 52.970 87.727,70.865 68.748,76.355 64.315 C 106.403 40.045,149.630 40.019,179.471 64.251 C 208.049 87.458,217.772 126.745,203.251 160.333 C 191.673 187.112,167.307 205.466,138.230 209.310 C 130.566 210.323,119.477 209.949,112.213 208.432 C 97.705 205.404,85.213 199.306,74.240 189.896 C 69.879 186.156,69.137 185.798,66.492 186.152 C 63.874 186.504,61.440 189.214,61.440 191.779 C 61.440 194.014,62.630 195.689,66.715 199.203 C 80.522 211.081,97.817 218.777,116.223 221.235 C 123.674 222.230,137.175 221.941,144.000 220.640 C 160.421 217.510,174.168 211.307,186.667 201.387 C 202.283 188.992,213.864 171.142,218.898 151.703 C 221.345 142.256,221.633 139.761,221.633 128.000 C 221.633 116.239,221.345 113.744,218.898 104.297 C 212.130 78.166,194.434 56.299,170.240 44.169 C 161.330 39.702,153.741 37.177,143.787 35.366 C 138.211 34.352,123.501 33.908,117.547 34.575 M124.668 75.104 C 121.950 76.761,121.995 76.234,122.124 104.749 L 122.240 130.546 123.733 131.994 C 124.555 132.791,134.443 138.956,145.707 145.695 L 166.187 157.948 168.436 157.765 C 170.174 157.623,170.972 157.307,171.946 156.374 C 174.247 154.170,174.625 150.835,172.838 148.511 C 172.400 147.941,163.525 142.363,153.114 136.114 L 134.187 124.754 133.973 101.310 C 133.807 83.047,133.636 77.650,133.199 76.884 C 131.749 74.341,127.406 73.435,124.668 75.104 " stroke="none" fill-rule="evenodd"></path></svg>