<svg fill="currentColor" viewBox="0 0 256 256" xmlns="http://www.w3.org/2000/svg"><path d="M147.918 42.899 C 138.948 44.121,130.270 46.861,121.600 51.209 C 105.771 59.147,93.327 71.046,84.680 86.514 L 82.230 90.894 80.049 90.567 C 75.608 89.901,64.502 90.279,59.866 91.252 C 23.052 98.985,1.497 136.223,13.300 171.698 C 14.930 176.596,18.115 183.010,21.010 187.222 C 24.185 191.841,31.305 199.067,35.945 202.379 C 45.039 208.870,55.612 212.724,67.200 213.772 C 73.324 214.326,95.412 214.286,97.460 213.717 C 102.301 212.373,103.523 205.945,99.457 203.214 C 98.030 202.256,97.809 202.240,85.590 202.236 C 71.134 202.232,64.886 201.774,59.399 200.317 C 41.358 195.528,28.016 181.917,23.367 163.558 C 22.538 160.285,22.415 158.715,22.434 151.680 C 22.454 144.230,22.550 143.228,23.616 139.307 C 25.090 133.882,28.674 126.509,31.949 122.163 C 40.377 110.978,52.401 104.103,66.560 102.371 C 70.257 101.919,76.989 102.021,77.505 102.536 C 77.622 102.653,77.226 104.735,76.625 107.161 C 75.042 113.554,74.246 119.130,74.129 124.647 C 74.045 128.615,74.164 129.744,74.782 130.876 C 76.931 134.809,82.834 134.910,85.062 131.052 C 85.691 129.963,85.964 128.345,86.216 124.226 C 86.799 114.680,88.487 107.225,91.883 99.200 C 101.439 76.618,121.522 60.306,145.758 55.440 C 152.289 54.129,163.583 53.830,170.156 54.795 C 201.881 59.451,226.251 82.546,232.620 113.991 C 233.461 118.144,233.600 120.121,233.600 128.000 C 233.600 135.879,233.461 137.856,232.620 142.009 C 230.594 152.014,226.979 160.723,221.324 169.228 C 218.517 173.450,218.240 174.060,218.240 176.019 C 218.240 178.759,219.232 180.306,221.684 181.391 C 223.262 182.089,223.837 182.149,225.268 181.763 C 227.589 181.138,228.621 180.112,231.882 175.188 C 247.729 151.258,250.357 121.039,238.943 94.013 C 234.935 84.523,229.422 76.326,221.662 68.323 C 214.082 60.503,206.962 55.368,197.035 50.559 C 188.316 46.335,180.118 43.930,170.199 42.687 C 165.373 42.082,153.055 42.199,147.918 42.899 M149.547 122.641 C 148.843 122.961,140.745 130.778,131.553 140.011 C 113.841 157.802,113.690 157.989,114.377 161.208 C 114.770 163.053,116.676 165.017,118.648 165.607 C 121.763 166.541,122.569 165.953,134.720 153.882 L 145.920 142.756 145.920 175.777 C 145.920 207.807,145.945 208.850,146.764 210.541 C 147.801 212.683,149.755 213.902,152.153 213.902 C 154.269 213.902,155.873 212.971,157.032 211.070 C 157.838 209.749,157.864 208.657,157.865 176.010 L 157.867 142.314 169.493 153.887 C 181.973 166.308,182.189 166.465,185.533 165.565 C 188.542 164.754,190.279 161.725,189.661 158.367 C 189.412 157.018,187.135 154.551,173.299 140.643 C 164.459 131.756,156.373 123.932,155.330 123.256 C 153.259 121.914,151.549 121.732,149.547 122.641 " stroke="none" fill-rule="evenodd"></path></svg>