<svg fill="currentColor" viewBox="0 0 256 256" xmlns="http://www.w3.org/2000/svg"><path d="M150.187 18.203 C 133.583 19.827,119.786 25.605,107.375 36.131 C 99.320 42.963,91.679 53.471,87.657 63.245 C 86.396 66.310,86.079 66.759,85.236 66.666 C 79.670 66.050,72.246 66.087,68.275 66.751 C 48.495 70.059,33.027 84.103,27.953 103.361 C 23.288 121.067,28.506 139.308,41.909 152.152 C 49.646 159.566,59.154 164.132,69.760 165.528 C 72.579 165.899,85.743 165.993,119.253 165.882 C 160.647 165.744,165.255 165.660,168.645 164.983 C 184.603 161.795,197.290 155.135,208.212 144.212 C 217.440 134.984,223.529 124.666,227.162 112.101 C 229.268 104.814,229.732 101.125,229.723 91.733 C 229.715 83.906,229.595 82.424,228.578 77.628 C 222.324 48.143,200.475 25.968,171.488 19.688 C 164.888 18.258,155.975 17.636,150.187 18.203 M168.747 31.489 C 180.388 34.016,191.536 40.112,199.883 48.513 C 226.877 75.683,222.998 120.173,191.677 142.630 C 185.155 147.306,177.154 150.766,168.015 152.863 C 164.129 153.754,163.184 153.774,118.829 153.916 C 87.949 154.014,72.665 153.914,70.642 153.600 C 63.413 152.479,55.708 148.844,50.533 144.114 C 41.773 136.108,37.070 123.731,38.368 112.095 C 40.296 94.801,53.322 81.128,70.400 78.472 C 73.437 78.000,82.116 78.134,82.643 78.661 C 82.777 78.795,82.653 81.020,82.368 83.605 C 81.773 88.995,82.054 90.458,84.054 92.374 C 85.752 94.001,89.157 94.327,91.179 93.056 C 93.099 91.850,93.784 90.253,94.287 85.815 C 95.496 75.146,98.831 66.009,104.689 57.316 C 113.828 43.758,128.694 34.114,145.067 31.125 C 150.996 30.043,162.932 30.226,168.747 31.489 M69.205 186.813 C 65.061 189.023,65.117 195.304,69.298 197.288 C 70.574 197.893,73.689 197.973,96.000 197.973 C 123.982 197.973,123.257 198.042,125.007 195.211 C 126.060 193.506,126.130 190.657,125.158 189.013 C 124.769 188.353,123.735 187.412,122.860 186.920 C 121.295 186.041,120.877 186.027,95.942 186.045 C 72.606 186.061,70.503 186.121,69.205 186.813 M157.116 186.878 C 153.091 189.332,153.091 194.668,157.116 197.122 C 158.425 197.921,159.288 197.970,171.882 197.972 C 186.742 197.974,187.361 197.874,189.007 195.211 C 190.060 193.506,190.130 190.657,189.158 189.013 C 188.769 188.353,187.735 187.412,186.860 186.920 C 185.340 186.066,184.682 186.027,171.889 186.028 C 159.288 186.030,158.425 186.079,157.116 186.878 M101.205 218.813 C 97.061 221.023,97.117 227.304,101.298 229.288 C 102.581 229.897,106.023 229.973,132.118 229.972 C 160.677 229.970,161.532 229.947,162.884 229.122 C 166.909 226.668,166.909 221.332,162.884 218.878 C 161.531 218.053,160.694 218.030,132.053 218.046 C 104.791 218.061,102.509 218.118,101.205 218.813 " stroke="none" fill-rule="evenodd"></path></svg>