<svg fill="currentColor" viewBox="0 0 256 256" xmlns="http://www.w3.org/2000/svg"><path d="M150.187 18.203 C 133.583 19.827,119.786 25.605,107.375 36.131 C 99.320 42.963,91.679 53.471,87.657 63.245 C 86.396 66.310,86.079 66.759,85.236 66.666 C 79.670 66.050,72.246 66.087,68.275 66.751 C 48.495 70.059,33.027 84.103,27.953 103.361 C 23.288 121.067,28.506 139.308,41.909 152.152 C 49.646 159.566,59.154 164.132,69.760 165.528 C 72.579 165.899,85.743 165.993,119.253 165.882 C 160.647 165.744,165.255 165.660,168.645 164.983 C 184.603 161.795,197.290 155.135,208.212 144.212 C 217.440 134.984,223.529 124.666,227.162 112.101 C 229.268 104.814,229.732 101.125,229.723 91.733 C 229.715 83.906,229.595 82.424,228.578 77.628 C 222.324 48.143,200.475 25.968,171.488 19.688 C 164.888 18.258,155.975 17.636,150.187 18.203 M168.747 31.489 C 180.388 34.016,191.536 40.112,199.883 48.513 C 226.877 75.683,222.998 120.173,191.677 142.630 C 185.155 147.306,177.154 150.766,168.015 152.863 C 164.129 153.754,163.184 153.774,118.829 153.916 C 87.949 154.014,72.665 153.914,70.642 153.600 C 63.413 152.479,55.708 148.844,50.533 144.114 C 41.773 136.108,37.070 123.731,38.368 112.095 C 40.296 94.801,53.322 81.128,70.400 78.472 C 73.437 78.000,82.116 78.134,82.643 78.661 C 82.777 78.795,82.653 81.020,82.368 83.605 C 81.773 88.995,82.054 90.458,84.054 92.374 C 85.752 94.001,89.157 94.327,91.179 93.056 C 93.099 91.850,93.784 90.253,94.287 85.815 C 95.496 75.146,98.831 66.009,104.689 57.316 C 113.828 43.758,128.694 34.114,145.067 31.125 C 150.996 30.043,162.932 30.226,168.747 31.489 M71.893 187.044 C 67.980 188.894,66.124 191.832,66.145 196.146 C 66.190 205.280,77.482 209.387,83.549 202.477 C 87.178 198.344,86.654 192.159,82.365 188.488 C 79.300 185.865,75.496 185.340,71.893 187.044 M160.746 186.609 C 154.909 188.787,152.387 195.164,155.219 200.584 C 157.376 204.714,161.666 206.702,166.220 205.683 C 168.275 205.223,169.053 204.763,170.908 202.908 C 172.763 201.053,173.223 200.275,173.683 198.220 C 174.641 193.939,172.804 189.625,169.097 187.453 C 166.830 186.124,163.065 185.744,160.746 186.609 M111.457 203.143 C 107.562 205.071,105.341 209.644,106.228 213.913 C 107.813 221.551,117.190 224.525,122.825 219.178 C 127.532 214.713,126.707 206.949,121.174 203.627 C 119.195 202.439,118.465 202.240,116.072 202.240 C 114.089 202.241,112.752 202.502,111.457 203.143 M63.671 227.036 C 57.787 229.949,56.186 237.656,60.479 242.408 C 63.342 245.576,66.841 246.662,70.634 245.559 C 77.506 243.561,80.137 235.825,75.922 230.008 C 73.339 226.442,67.657 225.063,63.671 227.036 M151.599 227.173 C 143.404 230.988,144.558 242.998,153.366 245.559 C 162.678 248.266,169.882 236.970,163.557 229.581 C 160.582 226.106,155.911 225.165,151.599 227.173 " stroke="none" fill-rule="evenodd"></path></svg>