<svg fill="currentColor" viewBox="0 0 256 256" xmlns="http://www.w3.org/2000/svg"><path d="M149.035 18.375 C 121.833 21.008,98.202 38.354,87.664 63.425 C 86.058 67.244,85.999 67.320,84.931 66.898 C 84.331 66.660,81.228 66.365,78.035 66.242 C 63.454 65.680,50.970 70.554,40.709 80.815 C 21.070 100.455,21.077 131.626,40.726 151.274 C 46.411 156.960,52.723 160.908,60.101 163.393 C 66.841 165.664,66.891 165.668,92.862 165.935 L 117.244 166.187 107.649 182.187 L 98.053 198.187 98.235 200.430 C 98.366 202.037,98.710 202.990,99.449 203.792 C 101.497 206.012,102.050 206.080,118.173 206.080 C 126.394 206.080,133.120 206.158,133.120 206.254 C 133.120 206.349,128.912 213.448,123.770 222.029 C 118.627 230.610,114.292 238.211,114.136 238.922 C 113.506 241.789,115.343 244.751,118.372 245.751 C 120.316 246.392,122.784 245.725,124.227 244.167 C 125.467 242.827,148.600 204.359,149.590 201.989 C 150.671 199.403,149.642 196.536,147.070 194.968 C 145.785 194.184,144.818 194.136,130.240 194.135 C 121.733 194.134,114.773 194.051,114.773 193.950 C 114.773 193.850,118.528 187.514,123.117 179.870 L 131.461 165.973 146.264 165.965 C 165.230 165.954,170.310 165.322,180.770 161.670 C 222.266 147.181,241.976 98.541,222.288 59.213 C 208.475 31.622,179.435 15.432,149.035 18.375 M168.017 31.128 C 199.239 37.491,220.761 66.300,217.659 97.578 C 216.160 112.683,210.353 125.000,199.685 135.699 C 190.716 144.694,181.261 149.819,168.014 152.865 C 164.126 153.759,163.219 153.778,118.827 153.917 C 88.022 154.013,72.656 153.912,70.640 153.599 C 47.090 149.951,32.652 126.431,40.139 103.914 C 42.044 98.184,44.755 93.911,49.493 89.173 C 57.936 80.731,68.984 76.917,80.864 78.345 L 83.008 78.603 82.436 83.135 C 81.745 88.594,81.968 90.053,83.795 92.047 C 85.004 93.366,85.504 93.595,87.503 93.743 C 89.290 93.875,90.123 93.720,91.179 93.056 C 93.133 91.829,93.794 90.228,94.314 85.472 C 97.524 56.070,120.367 33.359,149.973 30.134 C 153.730 29.725,163.873 30.284,168.017 31.128 " stroke="none" fill-rule="evenodd"></path></svg>