<svg fill="currentColor" viewBox="0 0 256 256" xmlns="http://www.w3.org/2000/svg"><path d="M157.637 34.540 C 157.158 34.734,156.307 35.370,155.745 35.955 C 155.016 36.711,145.419 62.577,122.361 125.922 C 87.595 221.435,89.155 216.764,91.142 219.433 C 93.548 222.666,98.643 222.688,100.875 219.475 C 101.880 218.028,165.974 41.212,165.974 39.887 C 165.973 35.937,161.411 33.011,157.637 34.540 M62.191 82.346 C 60.330 82.905,11.265 123.996,10.631 125.526 C 9.953 127.162,9.953 128.838,10.631 130.474 C 11.271 132.019,60.213 172.992,62.279 173.712 C 67.129 175.403,71.743 169.787,69.227 165.255 C 68.798 164.484,59.388 156.342,47.147 146.152 C 35.413 136.384,25.813 128.216,25.813 128.000 C 25.813 127.784,34.837 120.098,45.867 110.920 C 56.896 101.743,66.731 93.460,67.722 92.514 C 69.794 90.537,70.342 88.672,69.588 86.157 C 68.736 83.312,65.141 81.461,62.191 82.346 M189.449 82.667 C 186.391 84.204,185.177 87.869,186.773 90.745 C 187.202 91.516,196.612 99.658,208.853 109.848 C 220.587 119.616,230.187 127.784,230.187 128.000 C 230.187 128.216,220.587 136.384,208.853 146.152 C 196.612 156.342,187.202 164.484,186.773 165.255 C 184.257 169.787,188.871 175.403,193.721 173.712 C 195.787 172.992,244.729 132.019,245.369 130.474 C 246.047 128.838,246.047 127.162,245.369 125.526 C 245.001 124.638,237.127 117.816,219.964 103.516 C 206.284 92.118,194.576 82.596,193.945 82.356 C 192.309 81.734,191.146 81.814,189.449 82.667 " stroke="none" fill-rule="evenodd"></path></svg>