<svg fill="currentColor" viewBox="0 0 256 256" xmlns="http://www.w3.org/2000/svg"><path d="M79.787 42.735 C 52.557 45.281,30.469 53.432,18.773 65.251 C 14.717 69.350,12.378 73.005,10.973 77.440 C 10.043 80.375,10.027 80.833,10.027 104.107 L 10.027 127.787 11.216 131.150 C 14.877 141.504,24.781 150.057,40.334 156.297 C 49.635 160.028,58.002 162.169,72.366 164.495 L 73.693 164.709 73.927 170.355 C 74.307 179.531,76.347 184.238,82.773 190.771 C 105.526 213.903,167.126 221.257,210.968 206.076 C 228.975 199.840,241.233 190.009,245.008 178.773 C 245.908 176.092,245.944 175.271,246.091 154.102 C 246.249 131.325,246.088 128.343,244.473 124.026 C 240.392 113.118,227.871 103.569,209.705 97.511 C 203.912 95.579,194.538 93.302,188.587 92.380 C 186.123 91.999,183.704 91.605,183.211 91.505 C 182.371 91.334,182.300 90.971,182.068 85.661 C 181.663 76.414,179.632 71.723,173.227 65.251 C 161.357 53.256,139.339 45.227,111.360 42.688 C 105.573 42.163,85.586 42.193,79.787 42.735 M116.480 55.228 C 138.898 58.235,156.770 65.169,165.127 74.102 C 168.749 77.974,169.957 80.672,169.741 84.406 C 169.533 87.989,168.313 90.574,165.288 93.842 C 161.455 97.982,155.197 101.925,147.413 105.105 C 138.751 108.645,128.188 111.259,115.789 112.932 C 107.931 113.992,84.069 113.992,76.211 112.932 C 52.912 109.788,35.125 102.928,26.712 93.842 C 23.687 90.574,22.467 87.989,22.259 84.406 C 22.043 80.670,23.251 77.974,26.882 74.092 C 36.286 64.040,57.405 56.674,83.200 54.451 C 88.338 54.008,111.398 54.546,116.480 55.228 M192.213 105.236 C 205.001 107.886,214.565 111.510,222.684 116.782 C 232.489 123.148,235.967 130.381,232.530 137.258 C 224.797 152.734,187.416 164.005,151.336 161.740 C 146.597 161.442,141.856 161.071,140.800 160.915 L 138.880 160.632 142.293 159.637 C 147.385 158.153,155.000 155.077,159.573 152.658 C 170.750 146.745,177.842 139.548,180.766 131.150 C 181.916 127.846,181.940 127.573,182.102 115.689 L 182.266 103.592 184.680 103.883 C 186.007 104.044,189.397 104.652,192.213 105.236 M26.658 109.189 C 33.039 113.555,46.806 119.272,55.573 121.197 L 58.027 121.736 58.027 135.535 C 58.027 143.124,57.869 149.333,57.675 149.333 C 56.903 149.333,49.898 147.103,46.080 145.642 C 34.659 141.270,26.281 135.159,23.422 129.116 L 22.187 126.507 22.187 116.352 C 22.187 108.190,22.294 106.265,22.735 106.539 C 23.036 106.726,24.802 107.919,26.658 109.189 M168.594 129.071 C 165.435 135.822,155.454 142.561,141.858 147.123 C 139.047 148.066,136.120 148.965,135.354 149.121 L 133.961 149.404 134.074 135.656 L 134.187 121.908 139.733 120.321 C 150.568 117.220,159.226 113.412,165.952 108.788 L 169.600 106.279 169.715 116.355 L 169.829 126.432 168.594 129.071 M77.227 125.101 C 86.407 126.233,112.319 125.759,120.640 124.307 L 122.027 124.065 122.027 137.954 C 122.027 145.593,121.883 151.930,121.707 152.037 C 121.531 152.143,118.507 152.579,114.987 153.004 C 105.927 154.098,85.971 154.101,77.013 153.010 C 73.493 152.581,70.469 152.143,70.293 152.037 C 70.117 151.930,69.973 145.593,69.973 137.954 L 69.973 124.065 71.360 124.307 C 72.123 124.440,74.763 124.797,77.227 125.101 M233.735 167.040 L 233.600 175.573 232.350 177.707 C 228.183 184.817,218.904 190.791,204.817 195.435 C 201.294 196.597,198.314 197.547,198.193 197.547 C 198.072 197.547,197.973 191.339,197.973 183.751 L 197.973 169.956 204.053 168.223 C 214.705 165.187,224.068 161.042,230.217 156.640 L 233.600 154.218 233.735 156.363 C 233.809 157.542,233.809 162.347,233.735 167.040 M113.920 167.581 C 117.088 168.531,120.208 169.426,120.853 169.569 L 122.027 169.830 122.027 183.688 C 122.027 191.310,121.928 197.547,121.807 197.547 C 121.686 197.547,118.706 196.597,115.183 195.435 C 101.095 190.791,91.811 184.813,87.651 177.707 C 86.509 175.756,86.390 175.164,86.249 170.781 L 86.095 165.989 96.061 165.851 C 101.542 165.775,106.507 165.744,107.093 165.783 C 107.680 165.821,110.752 166.630,113.920 167.581 M149.307 173.685 C 157.038 174.209,169.716 173.999,176.853 173.230 C 178.965 173.002,181.893 172.690,183.360 172.536 L 186.027 172.255 186.027 186.137 L 186.027 200.019 182.507 200.491 C 174.801 201.525,169.180 201.869,160.000 201.869 C 150.820 201.869,145.199 201.525,137.493 200.491 L 133.973 200.019 133.973 186.062 L 133.973 172.106 137.893 172.642 C 140.049 172.937,145.185 173.406,149.307 173.685 " stroke="none" fill-rule="evenodd"></path></svg>