<svg fill="currentColor" viewBox="0 0 256 256" xmlns="http://www.w3.org/2000/svg"><path d="M68.422 42.877 C 57.255 45.306,47.460 54.213,43.785 65.280 C 41.498 72.167,41.432 79.105,43.586 86.091 C 46.944 96.981,55.679 105.455,67.060 108.861 C 69.936 109.722,71.308 109.811,84.160 109.974 L 98.133 110.151 98.133 127.992 L 98.133 145.833 84.373 146.037 C 69.195 146.262,67.750 146.459,62.077 149.081 C 49.560 154.864,42.141 166.390,42.141 180.053 C 42.141 190.458,46.491 199.692,54.507 206.304 C 64.378 214.446,78.694 216.239,90.338 210.790 C 99.205 206.641,105.941 198.695,108.861 188.940 C 109.722 186.064,109.811 184.692,109.974 171.840 L 110.151 157.867 128.000 157.867 L 145.849 157.867 146.026 171.840 C 146.189 184.692,146.278 186.064,147.139 188.940 C 151.671 204.081,164.586 213.859,180.053 213.859 C 185.908 213.859,190.042 212.900,195.200 210.344 C 211.570 202.234,218.532 182.207,210.757 165.592 C 207.362 158.336,201.490 152.577,193.923 149.081 C 188.250 146.459,186.805 146.262,171.627 146.037 L 157.867 145.833 157.867 127.992 L 157.867 110.151 171.840 109.974 C 184.692 109.811,186.064 109.722,188.940 108.861 C 204.081 104.329,213.859 91.414,213.859 75.947 C 213.859 63.437,207.436 52.481,196.480 46.301 C 191.641 43.571,187.778 42.561,181.312 42.337 C 176.380 42.166,175.003 42.269,171.941 43.044 C 159.878 46.094,150.776 54.907,147.139 67.060 C 146.278 69.936,146.189 71.308,146.026 84.160 L 145.849 98.133 128.000 98.133 L 110.151 98.133 109.974 84.160 C 109.811 71.308,109.722 69.936,108.861 67.060 C 105.254 55.010,96.157 46.134,84.305 43.103 C 80.315 42.083,72.582 41.973,68.422 42.877 M81.692 54.841 C 87.579 56.374,92.828 60.699,95.591 66.295 C 97.783 70.733,98.126 73.606,98.130 87.573 L 98.133 98.133 86.293 98.126 C 72.795 98.117,70.388 97.790,65.703 95.328 C 62.314 93.548,58.491 89.755,56.654 86.351 C 53.361 80.249,53.359 71.700,56.648 65.525 C 58.133 62.739,62.745 58.129,65.538 56.641 C 70.048 54.238,76.582 53.510,81.692 54.841 M185.798 54.841 C 189.525 55.811,192.313 57.475,195.419 60.581 C 199.900 65.061,201.813 69.660,201.813 75.947 C 201.813 84.170,197.402 91.595,190.297 95.328 C 185.612 97.790,183.205 98.117,169.707 98.126 L 157.867 98.133 157.880 87.147 C 157.887 81.104,158.076 74.720,158.300 72.960 C 159.355 64.660,166.016 57.042,174.125 54.862 C 177.180 54.040,182.687 54.030,185.798 54.841 M145.920 128.000 L 145.920 145.920 128.000 145.920 L 110.080 145.920 110.080 128.000 L 110.080 110.080 128.000 110.080 L 145.920 110.080 145.920 128.000 M98.130 168.427 C 98.126 181.901,97.756 185.223,95.803 189.336 C 90.142 201.257,75.167 205.589,64.183 198.483 C 57.761 194.329,54.187 187.739,54.187 180.053 C 54.187 171.511,58.725 164.154,66.315 160.393 C 70.723 158.209,72.508 157.995,86.933 157.923 L 98.133 157.867 98.130 168.427 M182.613 158.285 C 191.369 159.281,198.951 165.831,201.159 174.308 C 204.799 188.282,194.499 201.818,180.183 201.874 C 171.537 201.907,163.892 197.118,160.208 189.359 C 158.232 185.199,157.896 182.237,157.880 168.853 L 157.867 157.867 168.427 157.870 C 174.235 157.872,180.619 158.059,182.613 158.285 " stroke="none" fill-rule="evenodd"></path></svg>