<svg fill="currentColor" viewBox="0 0 256 256" xmlns="http://www.w3.org/2000/svg"><path d="M28.557 50.501 C 24.203 51.680,21.236 54.213,19.238 58.453 L 18.133 60.800 18.133 128.000 L 18.133 195.200 19.243 197.566 C 20.827 200.943,22.701 202.873,25.948 204.471 L 28.782 205.867 127.991 205.867 L 227.200 205.867 229.566 204.757 C 232.943 203.173,234.873 201.299,236.471 198.052 L 237.867 195.218 237.867 128.000 L 237.867 60.782 236.471 57.948 C 234.873 54.701,232.943 52.827,229.566 51.243 L 227.200 50.133 128.853 50.053 C 51.823 49.990,30.084 50.087,28.557 50.501 M225.280 62.720 C 226.097 63.537,226.133 64.142,226.133 76.800 L 226.133 90.027 128.000 90.027 L 29.867 90.027 29.867 76.800 C 29.867 64.142,29.903 63.537,30.720 62.720 C 31.568 61.872,32.142 61.867,128.000 61.867 C 223.858 61.867,224.432 61.872,225.280 62.720 M226.133 147.200 C 226.133 191.858,226.123 192.437,225.280 193.280 C 224.432 194.128,223.858 194.133,128.000 194.133 C 32.142 194.133,31.568 194.128,30.720 193.280 C 29.877 192.437,29.867 191.858,29.867 147.200 L 29.867 101.973 128.000 101.973 L 226.133 101.973 226.133 147.200 M116.863 163.102 C 112.897 165.752,113.163 171.191,117.364 173.333 C 118.622 173.974,120.109 174.079,128.000 174.079 C 135.891 174.079,137.378 173.974,138.636 173.333 C 142.837 171.191,143.103 165.752,139.137 163.102 C 137.736 162.166,137.361 162.133,128.000 162.133 C 118.639 162.133,118.264 162.166,116.863 163.102 M164.821 162.969 C 160.794 165.424,161.400 171.597,165.853 173.495 C 166.939 173.958,170.772 174.080,184.200 174.079 C 199.516 174.079,201.316 174.006,202.636 173.333 C 206.837 171.191,207.103 165.752,203.137 163.102 C 201.688 162.134,201.682 162.133,183.937 162.135 C 167.085 162.136,166.118 162.179,164.821 162.969 " stroke="none" fill-rule="evenodd"></path></svg>