<svg fill="currentColor" viewBox="0 0 256 256" xmlns="http://www.w3.org/2000/svg"><path d="M126.141 18.345 C 125.470 18.554,124.539 19.071,124.070 19.494 C 122.313 21.085,122.027 22.323,122.027 28.333 L 122.027 34.095 120.640 34.309 C 119.877 34.427,118.101 34.641,116.693 34.783 C 107.446 35.718,96.438 39.010,86.827 43.713 C 67.943 52.954,53.285 67.432,44.042 85.973 C 38.723 96.642,35.803 106.767,34.350 119.573 L 34.072 122.027 28.449 122.027 C 22.230 122.028,20.667 122.475,19.017 124.725 C 17.812 126.368,17.812 129.632,19.017 131.275 C 20.667 133.525,22.230 133.972,28.449 133.973 L 34.072 133.973 34.350 136.427 C 36.526 155.610,42.860 171.502,54.120 186.027 C 57.723 190.675,65.324 198.275,69.973 201.880 C 84.469 213.119,100.422 219.478,119.573 221.650 L 122.027 221.928 122.027 227.808 C 122.027 233.210,122.105 233.805,122.995 235.137 C 125.645 239.103,131.084 238.837,133.226 234.636 C 133.824 233.463,133.972 232.060,133.973 227.551 L 133.973 221.928 136.427 221.650 C 155.578 219.478,171.531 213.119,186.027 201.880 C 190.676 198.276,198.276 190.676,201.880 186.027 C 213.119 171.531,219.478 155.578,221.650 136.427 L 221.928 133.973 227.551 133.973 C 232.060 133.972,233.463 133.824,234.636 133.226 C 236.836 132.104,237.867 130.437,237.867 128.000 C 237.867 125.563,236.836 123.896,234.636 122.774 C 233.463 122.176,232.060 122.028,227.551 122.027 L 221.928 122.027 221.650 119.573 C 220.202 106.812,217.273 96.632,212.011 86.082 C 202.716 67.444,188.067 52.954,169.173 43.712 C 159.560 39.009,148.552 35.718,139.307 34.783 C 137.899 34.641,136.123 34.427,135.360 34.309 L 133.973 34.095 133.973 28.461 C 133.972 22.311,133.510 20.629,131.413 19.146 C 130.082 18.204,127.741 17.848,126.141 18.345 M122.027 51.882 C 122.027 58.001,122.510 59.598,124.789 61.007 C 127.698 62.804,131.879 61.671,133.288 58.702 C 133.806 57.610,133.973 55.930,133.973 51.820 L 133.973 46.381 137.195 46.654 C 154.560 48.122,174.518 57.975,187.113 71.298 C 199.524 84.427,207.965 102.462,209.346 118.805 L 209.619 122.027 204.206 122.027 C 199.721 122.027,198.521 122.166,197.210 122.839 C 193.059 124.970,193.113 131.302,197.298 133.288 C 198.390 133.806,200.070 133.973,204.180 133.973 L 209.619 133.973 209.346 137.195 C 208.666 145.241,205.884 154.894,201.817 163.322 C 192.085 183.487,174.992 198.667,154.240 205.576 C 148.783 207.392,142.636 208.830,138.453 209.270 C 137.045 209.417,135.461 209.628,134.933 209.737 C 133.976 209.936,133.973 209.918,133.973 204.339 C 133.973 200.083,133.809 198.396,133.288 197.298 C 131.298 193.105,124.702 193.105,122.712 197.298 C 122.191 198.396,122.027 200.083,122.027 204.339 C 122.027 209.918,122.024 209.936,121.067 209.737 C 120.539 209.628,118.955 209.417,117.547 209.270 C 110.589 208.539,99.894 205.406,92.884 202.045 C 75.888 193.895,62.448 180.447,54.183 163.322 C 50.116 154.894,47.334 145.241,46.654 137.195 L 46.381 133.973 51.820 133.973 C 58.005 133.973,59.595 133.495,61.007 131.211 C 62.060 129.506,62.130 126.657,61.158 125.013 C 59.746 122.622,57.884 122.027,51.826 122.027 L 46.381 122.027 46.654 118.805 C 47.819 105.024,54.532 88.780,63.924 77.013 C 74.499 63.765,89.227 53.915,105.464 49.232 C 110.132 47.886,117.127 46.591,120.000 46.542 L 122.027 46.507 122.027 51.882 M121.319 90.629 C 113.399 92.142,107.627 95.113,101.819 100.667 C 96.738 105.526,93.567 110.711,91.443 117.633 C 90.403 121.023,90.291 122.027,90.291 128.000 C 90.291 133.973,90.403 134.977,91.443 138.367 C 93.567 145.289,96.738 150.474,101.819 155.333 C 106.684 159.984,111.071 162.543,117.633 164.557 C 121.023 165.597,122.027 165.709,128.000 165.709 C 133.973 165.709,134.977 165.597,138.367 164.557 C 144.929 162.543,149.316 159.984,154.181 155.333 C 159.262 150.474,162.433 145.289,164.557 138.367 C 165.597 134.977,165.709 133.973,165.709 128.000 C 165.709 122.027,165.597 121.023,164.557 117.633 C 162.433 110.711,159.262 105.526,154.181 100.667 C 149.162 95.868,144.011 92.954,137.600 91.285 C 133.200 90.141,125.499 89.830,121.319 90.629 M135.680 103.212 C 143.720 105.741,150.278 112.351,152.865 120.533 C 154.084 124.388,154.151 131.209,153.007 135.022 C 150.193 144.406,142.690 151.397,133.296 153.387 C 119.393 156.332,105.577 147.286,102.613 133.296 C 99.693 119.512,108.603 105.766,122.509 102.602 C 126.072 101.792,132.044 102.068,135.680 103.212 " stroke="none" fill-rule="evenodd"></path></svg>