<svg fill="currentColor" viewBox="0 0 256 256" xmlns="http://www.w3.org/2000/svg"><path d="M120.747 26.275 C 119.925 26.371,117.429 26.657,115.200 26.911 C 97.087 28.974,78.488 36.924,63.688 48.928 C 59.118 52.635,51.837 59.914,48.399 64.213 C 33.997 82.223,26.027 104.946,26.027 128.000 C 26.027 160.313,41.247 190.513,67.313 209.917 C 80.785 219.946,95.439 226.020,113.280 228.971 C 119.895 230.065,136.063 230.069,142.720 228.978 C 167.013 224.997,187.139 214.259,203.399 196.604 C 216.819 182.033,225.565 163.607,228.975 142.720 C 230.058 136.090,230.063 120.352,228.985 113.526 C 224.265 83.633,208.329 58.913,183.040 42.254 C 177.765 38.779,167.473 33.766,161.280 31.655 C 155.481 29.679,148.709 28.035,142.507 27.099 C 138.223 26.452,123.882 25.910,120.747 26.275 M122.027 56.044 C 122.027 73.676,122.027 73.688,122.995 75.137 C 125.645 79.103,131.084 78.837,133.226 74.636 C 133.900 73.314,133.972 71.496,133.973 55.787 L 133.973 38.400 135.573 38.400 C 136.453 38.400,139.477 38.781,142.293 39.245 C 180.760 45.596,210.404 75.240,216.755 113.707 C 217.219 116.523,217.600 119.547,217.600 120.427 L 217.600 122.027 200.213 122.027 C 184.504 122.028,182.686 122.100,181.364 122.774 C 179.164 123.896,178.133 125.563,178.133 128.000 C 178.133 130.437,179.164 132.104,181.364 133.226 C 182.686 133.900,184.504 133.972,200.213 133.973 L 217.600 133.973 217.600 135.573 C 217.600 138.000,216.043 146.920,214.846 151.348 C 207.725 177.699,188.534 199.911,163.737 210.503 C 155.387 214.070,145.725 216.644,137.493 217.496 L 133.973 217.861 133.973 200.344 C 133.972 184.510,133.900 182.686,133.226 181.364 C 132.108 179.170,130.501 178.183,128.052 178.183 C 125.640 178.183,124.078 179.042,122.861 181.037 C 122.072 182.330,122.030 183.309,122.028 200.132 L 122.027 217.864 118.720 217.524 C 105.594 216.173,90.438 210.841,79.496 203.725 C 57.767 189.594,43.446 167.736,39.245 142.293 C 38.781 139.477,38.400 136.453,38.400 135.573 L 38.400 133.973 55.787 133.973 C 71.496 133.972,73.314 133.900,74.636 133.226 C 76.836 132.104,77.867 130.437,77.867 128.000 C 77.867 125.563,76.836 123.896,74.636 122.774 C 73.314 122.100,71.496 122.028,55.787 122.027 L 38.400 122.027 38.400 120.427 C 38.400 118.000,39.957 109.080,41.154 104.652 C 49.511 73.724,73.940 49.364,104.882 41.101 C 109.772 39.795,117.155 38.496,120.000 38.440 L 122.027 38.400 122.027 56.044 " stroke="none" fill-rule="evenodd"></path></svg>