<svg fill="currentColor" viewBox="0 0 256 256" xmlns="http://www.w3.org/2000/svg"><path d="M28.668 43.104 C 26.025 44.715,26.027 44.700,26.027 68.082 C 26.027 86.645,26.111 89.436,26.712 90.702 C 28.702 94.895,35.298 94.895,37.288 90.702 C 37.883 89.449,37.973 86.943,37.973 71.740 L 37.973 54.222 55.787 54.098 C 72.658 53.980,73.674 53.929,74.996 53.129 C 76.399 52.281,78.080 49.485,78.080 48.000 C 78.080 46.570,76.420 43.732,75.143 42.977 C 74.004 42.304,71.982 42.240,51.988 42.242 C 30.767 42.243,30.036 42.270,28.668 43.104 M180.787 42.998 C 179.554 43.762,177.920 46.613,177.920 48.000 C 177.920 49.485,179.601 52.281,181.004 53.129 C 182.326 53.929,183.342 53.980,200.213 54.098 L 218.027 54.222 218.027 71.740 C 218.027 86.943,218.117 89.449,218.712 90.702 C 220.702 94.895,227.298 94.895,229.288 90.702 C 229.889 89.436,229.973 86.645,229.973 68.082 C 229.973 44.700,229.975 44.715,227.332 43.104 C 225.963 42.270,225.244 42.243,203.947 42.253 C 183.903 42.262,181.869 42.327,180.787 42.998 M124.800 58.552 C 122.245 59.465,70.995 89.311,69.389 90.821 C 65.954 94.051,66.152 91.779,66.152 128.000 C 66.152 164.073,65.971 161.904,69.250 165.120 C 70.830 166.669,122.402 196.627,124.970 197.487 C 126.910 198.137,129.239 198.100,131.259 197.388 C 134.421 196.272,184.878 166.837,186.759 165.011 C 189.987 161.877,189.867 163.306,189.867 128.000 C 189.867 92.687,189.987 94.114,186.759 91.000 C 184.927 89.234,133.921 59.507,131.030 58.521 C 129.267 57.920,126.530 57.933,124.800 58.552 M150.703 83.334 C 162.603 90.183,172.342 95.883,172.346 96.000 C 172.359 96.374,128.667 121.387,128.000 121.387 C 127.333 121.387,83.641 96.375,83.654 96.000 C 83.671 95.446,127.854 70.416,128.427 70.636 C 128.779 70.770,138.803 76.484,150.703 83.334 M100.489 119.689 L 121.988 132.053 122.007 157.135 L 122.027 182.217 121.067 181.715 C 120.539 181.438,110.651 175.751,99.093 169.076 L 78.080 156.940 78.080 131.981 C 78.080 114.502,78.216 107.068,78.535 107.174 C 78.785 107.257,88.664 112.889,100.489 119.689 M177.920 132.017 L 177.920 156.940 156.907 169.076 C 145.349 175.751,135.461 181.438,134.933 181.715 L 133.973 182.217 133.993 157.135 L 134.013 132.053 155.646 119.589 C 167.545 112.733,177.424 107.117,177.600 107.109 C 177.776 107.100,177.920 118.309,177.920 132.017 M28.800 162.981 C 25.969 164.845,26.027 164.324,26.027 187.940 C 26.028 211.785,25.975 211.340,29.013 213.105 C 30.461 213.947,31.160 213.973,52.053 213.973 C 72.766 213.973,73.654 213.941,74.996 213.129 C 76.399 212.281,78.080 209.485,78.080 208.000 C 78.080 206.570,76.420 203.732,75.143 202.977 C 74.014 202.310,72.187 202.240,55.934 202.240 L 37.973 202.240 37.973 184.491 C 37.973 164.811,37.958 164.691,35.211 162.993 C 33.396 161.871,30.495 161.866,28.800 162.981 M220.800 162.981 C 218.013 164.815,218.027 164.712,218.027 184.420 L 218.027 202.240 200.066 202.240 C 183.813 202.240,181.986 202.310,180.857 202.977 C 179.580 203.732,177.920 206.570,177.920 208.000 C 177.920 209.485,179.601 212.281,181.004 213.129 C 182.346 213.941,183.234 213.973,203.947 213.973 C 224.840 213.973,225.539 213.947,226.987 213.105 C 230.024 211.340,229.972 211.777,229.973 188.011 C 229.973 164.442,230.004 164.720,227.211 162.993 C 225.396 161.871,222.495 161.866,220.800 162.981 " stroke="none" fill-rule="evenodd"></path></svg>