<svg fill="currentColor" viewBox="0 0 256 256" xmlns="http://www.w3.org/2000/svg"><path d="M125.160 18.347 C 122.865 18.824,126.676 16.793,75.947 44.568 C 46.708 60.576,31.239 69.278,30.166 70.320 C 29.275 71.185,28.027 72.949,27.393 74.240 L 26.240 76.587 26.240 128.000 L 26.240 179.413 27.422 181.820 C 28.072 183.144,29.416 184.973,30.409 185.884 C 32.426 187.735,120.290 236.050,123.926 237.307 C 126.662 238.253,129.338 238.253,132.074 237.307 C 135.710 236.050,223.574 187.735,225.591 185.884 C 226.584 184.973,227.928 183.144,228.578 181.820 L 229.760 179.413 229.760 128.000 L 229.760 76.587 228.607 74.240 C 227.973 72.949,226.725 71.185,225.834 70.319 C 224.760 69.276,209.305 60.577,180.053 44.553 C 155.765 31.248,134.933 19.923,133.760 19.386 C 131.284 18.254,127.694 17.820,125.160 18.347 M170.103 52.800 C 193.169 65.413,212.044 75.856,212.047 76.005 C 212.055 76.337,128.613 122.027,128.000 122.027 C 127.387 122.027,43.945 76.337,43.952 76.005 C 43.958 75.755,127.514 29.867,127.965 29.867 C 128.075 29.867,147.038 40.187,170.103 52.800 M97.707 119.385 L 121.813 132.590 121.922 177.702 C 122.023 219.784,121.982 222.794,121.314 222.538 C 119.816 221.963,39.430 177.816,38.720 177.178 C 38.018 176.548,37.973 173.829,37.973 131.594 L 37.973 86.681 55.787 96.431 C 65.584 101.793,84.448 112.123,97.707 119.385 M217.282 177.118 C 216.603 177.770,136.360 221.896,134.683 222.539 C 134.018 222.794,133.977 219.729,134.078 177.693 L 134.187 132.574 176.000 109.664 L 217.813 86.755 217.922 131.577 C 218.024 173.834,217.988 176.440,217.282 177.118 " stroke="none" fill-rule="evenodd"></path></svg>