<svg fill="currentColor" viewBox="0 0 256 256" xmlns="http://www.w3.org/2000/svg"><path d="M121.387 18.186 C 89.965 20.203,65.880 33.122,59.441 51.413 L 58.240 54.827 58.240 128.000 L 58.240 201.173 59.445 204.583 C 65.721 222.344,88.465 235.095,118.400 237.637 C 137.395 239.249,158.053 235.800,172.587 228.588 C 184.952 222.453,193.164 214.231,196.559 204.587 L 197.760 201.173 197.760 128.000 L 197.760 54.827 196.559 51.413 C 190.771 34.971,169.906 22.321,143.140 19.026 C 137.786 18.367,125.789 17.904,121.387 18.186 M139.947 30.778 C 156.858 32.594,171.975 38.750,179.929 47.059 C 183.069 50.339,184.511 52.770,185.419 56.315 C 190.076 74.492,159.864 91.164,124.587 89.885 C 107.704 89.273,93.254 85.301,82.562 78.331 C 68.873 69.408,66.263 57.462,75.794 47.358 C 80.831 42.019,87.916 37.903,97.493 34.751 C 110.387 30.507,124.837 29.155,139.947 30.778 M74.931 87.559 C 81.480 92.309,91.318 96.499,101.760 98.986 C 111.450 101.294,115.660 101.735,128.000 101.735 C 136.761 101.735,140.411 101.563,144.213 100.970 C 155.218 99.255,164.972 96.329,173.013 92.331 C 176.993 90.353,179.391 88.822,185.229 84.535 C 186.007 83.964,186.027 85.356,186.027 140.658 C 186.027 202.623,186.127 200.010,183.583 204.373 C 182.967 205.429,181.323 207.485,179.929 208.941 C 172.307 216.903,158.773 222.656,141.867 225.119 C 134.857 226.140,121.143 226.140,114.133 225.119 C 94.164 222.209,78.216 214.278,72.421 204.373 C 69.873 200.018,69.973 202.635,69.973 140.658 C 69.973 85.356,69.993 83.964,70.771 84.535 C 71.209 84.857,73.081 86.217,74.931 87.559 " stroke="none" fill-rule="evenodd"></path></svg>