<svg fill="currentColor" viewBox="0 0 256 256" xmlns="http://www.w3.org/2000/svg"><path d="M58.724 26.704 C 51.430 28.469,45.268 34.280,42.982 41.549 L 42.027 44.587 42.027 128.000 L 42.027 211.413 42.982 214.451 C 44.730 220.008,48.812 224.907,53.794 227.428 C 59.116 230.121,54.821 229.973,128.000 229.973 C 201.179 229.973,196.884 230.121,202.206 227.428 C 207.188 224.907,211.270 220.008,213.018 214.451 L 213.973 211.413 213.973 128.000 L 213.973 44.587 213.018 41.549 C 210.700 34.179,204.552 28.445,197.080 26.684 C 193.099 25.745,62.605 25.764,58.724 26.704 M196.533 39.128 C 198.523 40.193,200.387 42.223,201.238 44.253 C 202.094 46.296,202.094 209.704,201.238 211.747 C 200.305 213.973,198.371 215.946,196.071 217.017 L 193.920 218.018 128.000 218.018 L 62.080 218.018 59.916 217.011 C 57.477 215.875,55.228 213.425,54.583 211.200 C 54.294 210.205,54.191 182.114,54.275 127.077 L 54.400 44.447 55.680 42.637 C 56.384 41.642,57.451 40.463,58.051 40.018 C 60.883 37.919,57.941 37.999,128.640 38.096 L 194.773 38.187 196.533 39.128 M93.116 58.878 C 89.091 61.332,89.091 66.668,93.116 69.122 C 94.472 69.949,95.330 69.970,128.000 69.970 C 160.670 69.970,161.528 69.949,162.884 69.122 C 166.909 66.668,166.909 61.332,162.884 58.878 C 161.528 58.051,160.670 58.030,128.000 58.030 C 95.330 58.030,94.472 58.051,93.116 58.878 " stroke="none" fill-rule="evenodd"></path></svg>