<svg fill="currentColor" viewBox="0 0 256 256" xmlns="http://www.w3.org/2000/svg"><path d="M124.160 18.600 C 122.869 18.943,120.853 19.881,119.680 20.685 C 118.507 21.489,110.135 29.596,101.077 38.700 C 83.118 56.749,82.625 57.370,82.076 62.627 C 81.744 65.800,82.719 69.401,84.699 72.320 C 85.496 73.493,93.596 81.863,102.700 90.918 C 120.156 108.282,120.693 108.724,125.597 109.752 C 128.384 110.337,131.533 109.846,134.777 108.322 C 137.596 106.998,170.998 73.596,172.322 70.777 C 173.846 67.533,174.337 64.384,173.752 61.597 C 172.724 56.693,172.282 56.156,154.918 38.700 C 145.863 29.596,137.493 21.490,136.320 20.688 C 134.133 19.192,130.112 17.898,127.804 17.948 C 127.090 17.964,125.451 18.257,124.160 18.600 M145.671 46.512 C 160.147 60.952,161.849 62.792,161.849 64.000 C 161.849 65.207,160.132 67.067,145.599 81.599 C 131.067 96.132,129.207 97.849,128.000 97.849 C 126.793 97.849,124.933 96.132,110.401 81.599 C 95.875 67.074,94.151 65.207,94.151 64.001 C 94.151 62.797,95.858 60.943,110.116 46.652 C 118.896 37.851,126.464 30.488,126.933 30.290 C 127.403 30.091,128.171 30.029,128.640 30.152 C 129.109 30.274,136.773 37.637,145.671 46.512 M60.160 82.600 C 58.869 82.943,56.853 83.881,55.680 84.685 C 54.507 85.489,46.137 93.596,37.082 102.700 C 19.718 120.156,19.276 120.693,18.248 125.597 C 17.860 127.445,17.860 128.555,18.248 130.403 C 19.288 135.363,19.626 135.769,37.928 154.077 C 52.727 168.880,55.609 171.571,57.691 172.535 C 62.564 174.791,67.832 174.347,72.320 171.301 C 73.493 170.504,81.863 162.404,90.918 153.300 C 108.282 135.844,108.724 135.307,109.752 130.403 C 110.140 128.555,110.140 127.445,109.752 125.597 C 108.724 120.693,108.282 120.156,90.918 102.700 C 81.863 93.596,73.493 85.490,72.320 84.688 C 70.133 83.192,66.112 81.898,63.804 81.948 C 63.090 81.964,61.451 82.257,60.160 82.600 M188.160 82.600 C 186.869 82.943,184.853 83.881,183.680 84.685 C 182.507 85.489,174.137 93.596,165.082 102.700 C 147.718 120.156,147.276 120.693,146.248 125.597 C 145.663 128.384,146.154 131.533,147.678 134.777 C 149.002 137.596,182.404 170.998,185.223 172.322 C 189.877 174.509,194.123 174.509,198.777 172.322 C 201.596 170.998,234.998 137.596,236.322 134.777 C 237.846 131.533,238.337 128.384,237.752 125.597 C 236.724 120.693,236.282 120.156,218.918 102.700 C 209.863 93.596,201.493 85.490,200.320 84.688 C 198.133 83.192,194.112 81.898,191.804 81.948 C 191.090 81.964,189.451 82.257,188.160 82.600 M81.671 110.512 C 96.147 124.952,97.849 126.792,97.849 128.000 C 97.849 129.207,96.143 131.053,81.671 145.505 C 70.582 156.579,65.112 161.753,64.281 161.953 C 63.136 162.229,62.157 161.335,46.610 145.803 C 31.863 131.071,30.151 129.220,30.151 128.007 C 30.151 126.796,31.831 124.969,46.116 110.652 C 54.896 101.851,62.464 94.488,62.933 94.290 C 63.403 94.091,64.171 94.029,64.640 94.152 C 65.109 94.274,72.773 101.637,81.671 110.512 M209.671 110.512 C 224.173 124.979,225.849 126.791,225.849 128.005 C 225.849 129.220,224.144 131.063,209.390 145.803 C 193.843 161.335,192.864 162.229,191.719 161.953 C 190.888 161.753,185.418 156.579,174.329 145.505 C 159.864 131.060,158.151 129.207,158.151 128.001 C 158.151 126.797,159.858 124.943,174.116 110.652 C 182.896 101.851,190.464 94.488,190.933 94.290 C 191.403 94.091,192.171 94.029,192.640 94.152 C 193.109 94.274,200.773 101.637,209.671 110.512 M124.160 146.600 C 122.869 146.943,120.853 147.881,119.680 148.685 C 118.507 149.489,110.137 157.596,101.082 166.700 C 83.718 184.156,83.276 184.693,82.248 189.597 C 81.663 192.384,82.154 195.533,83.678 198.777 C 85.002 201.596,118.404 234.998,121.223 236.322 C 125.877 238.509,130.123 238.509,134.777 236.322 C 137.596 234.998,170.998 201.596,172.322 198.777 C 173.846 195.533,174.337 192.384,173.752 189.597 C 172.724 184.693,172.282 184.156,154.918 166.700 C 145.863 157.596,137.493 149.490,136.320 148.688 C 134.133 147.192,130.112 145.898,127.804 145.948 C 127.090 145.964,125.451 146.257,124.160 146.600 M145.671 174.512 C 160.173 188.979,161.849 190.791,161.849 192.005 C 161.849 193.220,160.149 195.059,145.446 209.747 C 132.805 222.376,128.804 226.133,128.000 226.133 C 127.196 226.133,123.195 222.376,110.554 209.747 C 95.858 195.066,94.151 193.219,94.151 192.007 C 94.151 190.796,95.831 188.969,110.116 174.652 C 118.896 165.851,126.464 158.488,126.933 158.290 C 127.403 158.091,128.171 158.029,128.640 158.152 C 129.109 158.274,136.773 165.637,145.671 174.512 " stroke="none" fill-rule="evenodd"></path></svg>