<svg fill="currentColor" viewBox="0 0 256 256" xmlns="http://www.w3.org/2000/svg"><path d="M58.880 34.423 C 56.681 34.795,52.186 36.382,49.912 37.590 C 44.266 40.589,40.026 45.027,37.116 50.987 C 33.944 57.481,34.146 52.242,34.146 128.000 C 34.146 203.758,33.944 198.519,37.116 205.013 C 40.253 211.438,44.562 215.747,50.987 218.884 C 57.481 222.056,52.242 221.854,128.000 221.854 C 203.758 221.854,198.519 222.056,205.013 218.884 C 211.438 215.747,215.747 211.438,218.884 205.013 C 222.056 198.519,221.854 203.758,221.854 128.000 C 221.854 52.242,222.056 57.481,218.884 50.987 C 215.172 43.384,209.475 38.413,200.960 35.346 L 198.187 34.347 129.067 34.294 C 91.051 34.266,59.467 34.323,58.880 34.423 M199.741 47.883 C 203.673 49.827,206.459 52.665,208.348 56.651 L 209.707 59.520 209.707 128.022 L 209.707 196.524 208.117 199.741 C 206.173 203.673,203.335 206.459,199.349 208.348 L 196.480 209.707 128.000 209.707 L 59.520 209.707 56.651 208.348 C 52.665 206.459,49.827 203.673,47.883 199.741 L 46.293 196.524 46.293 128.022 L 46.293 59.520 47.652 56.651 C 49.993 51.711,54.729 47.697,59.570 46.551 C 60.547 46.320,88.975 46.187,128.876 46.226 L 196.525 46.293 199.741 47.883 M103.893 98.944 C 95.221 102.968,96.719 115.828,106.087 117.772 C 114.871 119.596,121.364 109.329,116.022 102.064 C 113.423 98.531,107.865 97.101,103.893 98.944 M143.457 139.143 C 139.562 141.071,137.341 145.644,138.228 149.913 C 139.813 157.551,149.190 160.525,154.825 155.178 C 159.532 150.713,158.707 142.949,153.174 139.627 C 151.195 138.439,150.465 138.240,148.072 138.240 C 146.089 138.241,144.752 138.502,143.457 139.143 " stroke="none" fill-rule="evenodd"></path></svg>