<svg fill="currentColor" viewBox="0 0 256 256" xmlns="http://www.w3.org/2000/svg"><path d="M58.880 34.423 C 56.681 34.795,52.186 36.382,49.912 37.590 C 44.266 40.589,40.026 45.027,37.116 50.987 C 33.944 57.481,34.146 52.242,34.146 128.000 C 34.146 203.758,33.944 198.519,37.116 205.013 C 40.253 211.438,44.562 215.747,50.987 218.884 C 57.481 222.056,52.242 221.854,128.000 221.854 C 203.758 221.854,198.519 222.056,205.013 218.884 C 211.438 215.747,215.747 211.438,218.884 205.013 C 222.056 198.519,221.854 203.758,221.854 128.000 C 221.854 52.242,222.056 57.481,218.884 50.987 C 215.172 43.384,209.475 38.413,200.960 35.346 L 198.187 34.347 129.067 34.294 C 91.051 34.266,59.467 34.323,58.880 34.423 M199.741 47.883 C 203.673 49.827,206.459 52.665,208.348 56.651 L 209.707 59.520 209.707 128.022 L 209.707 196.524 208.117 199.741 C 206.173 203.673,203.335 206.459,199.349 208.348 L 196.480 209.707 128.000 209.707 L 59.520 209.707 56.651 208.348 C 52.665 206.459,49.827 203.673,47.883 199.741 L 46.293 196.524 46.293 128.022 L 46.293 59.520 47.652 56.651 C 49.993 51.711,54.729 47.697,59.570 46.551 C 60.547 46.320,88.975 46.187,128.876 46.226 L 196.525 46.293 199.741 47.883 M96.746 90.609 C 90.909 92.787,88.387 99.164,91.219 104.584 C 93.376 108.714,97.666 110.702,102.220 109.683 C 104.275 109.223,105.053 108.763,106.908 106.908 C 108.763 105.053,109.223 104.275,109.683 102.220 C 110.641 97.939,108.804 93.625,105.097 91.453 C 102.830 90.124,99.065 89.744,96.746 90.609 M152.639 90.635 C 150.218 91.500,148.243 93.205,147.223 95.313 C 145.954 97.934,145.727 99.816,146.361 102.460 C 146.790 104.248,147.362 105.178,149.109 106.925 C 150.947 108.762,151.728 109.224,153.780 109.683 C 158.306 110.696,162.617 108.681,164.800 104.533 C 168.253 97.970,163.416 90.064,155.947 90.064 C 155.008 90.064,153.520 90.321,152.639 90.635 M97.010 146.505 C 91.344 148.355,88.496 154.662,90.916 160.000 C 92.086 162.580,93.244 163.760,95.787 164.959 C 101.523 167.664,108.071 164.500,109.714 158.229 C 111.579 151.114,104.082 144.196,97.010 146.505 M152.985 146.557 C 144.487 149.584,143.576 160.894,151.511 164.849 C 154.428 166.302,157.288 166.339,160.213 164.959 C 162.756 163.760,163.914 162.580,165.084 160.000 C 167.544 154.575,164.607 148.246,158.822 146.505 C 156.410 145.779,155.136 145.790,152.985 146.557 " stroke="none" fill-rule="evenodd"></path></svg>