<svg fill="currentColor" viewBox="0 0 256 256" xmlns="http://www.w3.org/2000/svg"><path d="M58.880 34.423 C 56.681 34.795,52.186 36.382,49.912 37.590 C 44.266 40.589,40.026 45.027,37.116 50.987 C 33.944 57.481,34.146 52.242,34.146 128.000 C 34.146 203.758,33.944 198.519,37.116 205.013 C 40.253 211.438,44.562 215.747,50.987 218.884 C 57.481 222.056,52.242 221.854,128.000 221.854 C 203.758 221.854,198.519 222.056,205.013 218.884 C 211.438 215.747,215.747 211.438,218.884 205.013 C 222.056 198.519,221.854 203.758,221.854 128.000 C 221.854 52.242,222.056 57.481,218.884 50.987 C 215.172 43.384,209.475 38.413,200.960 35.346 L 198.187 34.347 129.067 34.294 C 91.051 34.266,59.467 34.323,58.880 34.423 M199.741 47.883 C 203.673 49.827,206.459 52.665,208.348 56.651 L 209.707 59.520 209.707 128.022 L 209.707 196.524 208.117 199.741 C 206.173 203.673,203.335 206.459,199.349 208.348 L 196.480 209.707 128.000 209.707 L 59.520 209.707 56.651 208.348 C 52.665 206.459,49.827 203.673,47.883 199.741 L 46.293 196.524 46.293 128.022 L 46.293 59.520 47.652 56.651 C 49.993 51.711,54.729 47.697,59.570 46.551 C 60.547 46.320,88.975 46.187,128.876 46.226 L 196.525 46.293 199.741 47.883 M123.255 119.379 C 116.392 122.965,116.362 132.790,123.203 136.637 C 129.097 139.953,136.589 136.404,137.812 129.716 C 138.903 123.748,134.171 118.187,128.000 118.187 C 126.133 118.187,124.985 118.475,123.255 119.379 " stroke="none" fill-rule="evenodd"></path></svg>