<svg fill="currentColor" viewBox="0 0 256 256" xmlns="http://www.w3.org/2000/svg"><path d="M44.307 26.621 C 39.848 28.214,36.507 31.426,35.244 35.336 C 34.889 36.434,30.826 57.589,26.215 82.347 C 19.330 119.313,17.879 127.763,18.095 129.617 C 18.630 134.205,21.468 138.241,25.617 140.315 C 30.371 142.690,34.833 142.505,39.422 139.743 L 41.759 138.335 41.935 163.781 C 42.125 191.424,42.139 191.596,44.658 197.903 C 48.976 208.719,57.400 216.476,69.120 220.430 L 72.747 221.653 128.000 221.653 L 183.253 221.653 186.880 220.430 C 200.302 215.902,209.219 206.592,212.812 193.358 L 213.933 189.227 214.087 163.732 L 214.241 138.236 216.052 139.483 C 220.312 142.413,225.406 142.724,230.275 140.349 C 234.352 138.361,236.757 135.148,237.765 130.341 C 238.233 128.112,237.886 126.025,230.019 83.737 C 225.489 59.388,221.503 38.315,221.161 36.907 C 219.532 30.200,213.141 25.502,206.537 26.158 C 205.230 26.288,192.064 29.957,177.280 34.312 L 150.400 42.230 128.000 42.230 L 105.600 42.231 78.116 34.129 C 49.154 25.591,47.944 25.322,44.307 26.621 M70.540 44.380 C 82.548 47.904,92.690 50.928,93.078 51.100 C 93.643 51.352,87.878 59.045,63.745 90.240 C 47.225 111.595,33.338 129.321,32.885 129.632 C 31.617 130.502,30.294 129.608,30.290 127.878 C 30.284 125.818,46.519 39.123,47.026 38.507 C 47.267 38.213,47.744 37.973,48.086 37.973 C 48.427 37.973,58.532 40.856,70.540 44.380 M208.995 38.526 C 209.585 39.238,226.145 127.899,225.838 128.701 C 225.425 129.777,224.027 130.260,223.143 129.632 C 221.922 128.764,162.433 51.611,162.745 51.299 C 163.129 50.916,206.515 38.081,207.628 38.022 C 208.127 37.995,208.742 38.222,208.995 38.526 M175.502 88.196 L 201.813 122.206 201.807 154.863 C 201.800 191.170,201.854 190.394,198.942 196.009 C 196.709 200.317,191.931 205.033,187.733 207.072 C 181.854 209.929,181.953 209.920,156.710 209.920 L 133.973 209.920 133.973 202.138 L 133.973 194.355 141.712 186.608 C 149.359 178.952,149.452 178.837,149.631 176.791 C 149.762 175.296,149.588 174.314,149.007 173.260 C 147.614 170.736,143.938 169.486,141.519 170.713 C 141.006 170.972,137.755 173.994,134.293 177.427 L 128.000 183.669 121.707 177.427 C 118.245 173.994,114.994 170.972,114.481 170.713 C 112.062 169.486,108.386 170.736,106.993 173.260 C 106.412 174.314,106.238 175.296,106.369 176.791 C 106.548 178.837,106.641 178.952,114.288 186.608 L 122.027 194.355 122.027 202.138 L 122.027 209.920 99.290 209.920 C 74.047 209.920,74.146 209.929,68.267 207.072 C 64.069 205.033,59.291 200.317,57.058 196.009 C 54.146 190.394,54.200 191.170,54.193 154.863 L 54.187 122.206 80.498 88.196 L 106.809 54.187 128.000 54.187 L 149.191 54.187 175.502 88.196 M87.599 131.173 C 79.404 134.988,80.558 146.998,89.366 149.559 C 98.678 152.266,105.882 140.970,99.557 133.581 C 96.582 130.106,91.911 129.165,87.599 131.173 M159.671 131.036 C 153.787 133.949,152.186 141.656,156.479 146.408 C 159.342 149.576,162.841 150.662,166.634 149.559 C 173.506 147.561,176.137 139.825,171.922 134.008 C 169.339 130.442,163.657 129.063,159.671 131.036 " stroke="none" fill-rule="evenodd"></path></svg>