<svg fill="currentColor" viewBox="0 0 256 256" xmlns="http://www.w3.org/2000/svg"><path d="M56.107 118.779 C 52.326 120.431,50.165 123.784,50.165 128.000 C 50.165 133.726,54.264 137.874,59.921 137.874 C 66.740 137.874,71.444 131.514,69.478 124.953 C 68.817 122.745,66.368 119.959,64.237 118.991 C 62.193 118.063,57.997 117.953,56.107 118.779 M123.255 119.379 C 116.392 122.965,116.362 132.790,123.203 136.637 C 129.097 139.953,136.589 136.404,137.812 129.716 C 138.903 123.748,134.171 118.187,128.000 118.187 C 126.133 118.187,124.985 118.475,123.255 119.379 M191.763 118.991 C 188.529 120.460,186.027 124.390,186.027 128.000 C 186.027 131.708,188.746 135.821,192.078 137.155 C 198.871 139.873,205.835 135.238,205.835 128.000 C 205.835 123.737,203.635 120.369,199.800 118.762 C 197.837 117.939,193.827 118.054,191.763 118.991 " stroke="none" fill-rule="evenodd"></path></svg>