<svg fill="currentColor" viewBox="0 0 256 256" xmlns="http://www.w3.org/2000/svg"><path d="M125.541 50.317 C 121.984 51.213,118.927 54.502,118.242 58.171 C 117.566 61.788,118.746 65.084,121.586 67.515 C 125.474 70.844,130.693 70.775,134.589 67.345 C 138.492 63.910,139.040 58.060,135.850 53.878 C 133.683 51.038,129.044 49.435,125.541 50.317 M123.255 119.379 C 116.392 122.965,116.362 132.790,123.203 136.637 C 129.097 139.953,136.589 136.404,137.812 129.716 C 138.903 123.748,134.171 118.187,128.000 118.187 C 126.133 118.187,124.985 118.475,123.255 119.379 M124.645 186.611 C 118.142 188.964,116.009 197.226,120.522 202.579 C 124.260 207.012,131.740 207.012,135.478 202.579 C 138.757 198.689,138.696 192.861,135.337 189.279 C 132.752 186.522,128.099 185.361,124.645 186.611 " stroke="none" fill-rule="evenodd"></path></svg>