<svg fill="currentColor" viewBox="0 0 256 256" xmlns="http://www.w3.org/2000/svg"><path d="M123.733 18.370 C 117.206 19.256,111.800 22.072,106.661 27.264 C 103.988 29.964,102.607 31.778,101.431 34.133 C 97.027 42.955,97.025 53.021,101.426 61.867 C 103.564 66.164,109.414 72.097,113.707 74.321 C 118.814 76.967,122.384 77.848,128.000 77.848 C 133.616 77.848,137.186 76.967,142.293 74.321 C 146.586 72.097,152.436 66.164,154.574 61.867 C 158.975 53.021,158.973 42.955,154.569 34.133 C 152.484 29.958,146.993 24.306,142.725 21.944 C 137.216 18.894,129.949 17.526,123.733 18.370 M133.659 31.006 C 136.578 31.925,140.328 34.582,142.223 37.075 C 146.518 42.727,147.057 50.976,143.525 57.004 C 139.881 63.223,132.024 67.032,125.389 65.798 C 118.089 64.441,112.495 59.442,110.742 52.710 C 108.535 44.234,112.341 35.791,120.088 31.977 C 124.374 29.867,128.990 29.537,133.659 31.006 M122.880 98.399 C 120.517 98.850,116.133 100.410,113.912 101.590 C 108.266 104.589,104.026 109.027,101.116 114.987 C 98.962 119.396,98.146 122.974,98.146 128.000 C 98.146 133.026,98.962 136.604,101.116 141.013 C 104.253 147.438,108.562 151.747,114.987 154.884 C 119.396 157.038,122.974 157.854,128.000 157.854 C 133.026 157.854,136.604 157.038,141.013 154.884 C 147.438 151.747,151.747 147.438,154.884 141.013 C 157.038 136.604,157.854 133.026,157.854 128.000 C 157.854 122.974,157.038 119.396,154.884 114.987 C 151.154 107.348,145.224 102.195,136.960 99.410 C 134.871 98.706,132.923 98.441,129.067 98.336 C 126.251 98.259,123.467 98.287,122.880 98.399 M135.851 111.938 C 139.667 113.823,142.480 116.708,144.348 120.651 C 145.607 123.309,145.707 123.849,145.707 128.000 C 145.707 132.151,145.607 132.691,144.348 135.349 C 142.459 139.335,139.673 142.173,135.741 144.117 C 132.639 145.650,132.363 145.707,128.000 145.707 C 123.637 145.707,123.361 145.650,120.259 144.117 C 116.327 142.173,113.541 139.335,111.652 135.349 C 110.393 132.691,110.293 132.151,110.293 128.000 C 110.293 123.849,110.393 123.309,111.652 120.651 C 113.359 117.049,116.190 113.994,119.416 112.275 C 122.821 110.460,124.590 110.087,128.986 110.257 C 132.280 110.385,133.129 110.592,135.851 111.938 M123.733 178.370 C 117.206 179.256,111.800 182.072,106.661 187.264 C 103.988 189.964,102.607 191.778,101.431 194.133 C 97.027 202.955,97.025 213.021,101.426 221.867 C 103.564 226.164,109.414 232.097,113.707 234.321 C 118.814 236.967,122.384 237.848,128.000 237.848 C 133.616 237.848,137.186 236.967,142.293 234.321 C 146.586 232.097,152.436 226.164,154.574 221.867 C 158.975 213.021,158.973 202.955,154.569 194.133 C 152.484 189.958,146.993 184.306,142.725 181.944 C 137.216 178.894,129.949 177.526,123.733 178.370 M133.659 191.006 C 136.578 191.925,140.328 194.582,142.223 197.075 C 146.518 202.727,147.057 210.976,143.525 217.004 C 139.881 223.223,132.024 227.032,125.389 225.798 C 118.089 224.441,112.495 219.442,110.742 212.710 C 108.535 204.234,112.341 195.791,120.088 191.977 C 124.374 189.867,128.990 189.537,133.659 191.006 " stroke="none" fill-rule="evenodd"></path></svg>