<svg fill="currentColor" viewBox="0 0 256 256" xmlns="http://www.w3.org/2000/svg"><path d="M126.141 18.345 C 125.470 18.554,124.539 19.071,124.070 19.494 C 121.943 21.420,122.027 19.426,122.027 68.137 L 122.027 113.703 102.720 94.443 C 92.101 83.850,82.994 74.970,82.481 74.711 C 80.059 73.487,76.386 74.737,74.993 77.260 C 74.411 78.315,74.238 79.296,74.369 80.794 L 74.550 82.868 99.462 107.808 C 113.163 121.525,124.892 133.024,125.525 133.361 C 126.996 134.143,129.004 134.143,130.475 133.361 C 131.108 133.024,142.837 121.525,156.538 107.808 L 181.450 82.868 181.631 80.794 C 181.762 79.296,181.589 78.315,181.007 77.260 C 179.614 74.737,175.941 73.487,173.519 74.711 C 173.006 74.970,163.899 83.850,153.280 94.443 L 133.973 113.703 133.973 68.265 C 133.972 25.849,133.922 22.729,133.226 21.364 C 131.897 18.756,128.912 17.485,126.141 18.345 M27.872 122.641 C 23.497 124.009,20.079 127.445,18.754 131.806 C 17.926 134.534,17.904 135.650,18.017 168.962 L 18.133 203.307 19.277 205.747 C 20.759 208.909,23.693 211.738,26.786 212.987 L 29.227 213.973 128.000 213.973 L 226.773 213.973 229.214 212.987 C 232.307 211.738,235.241 208.909,236.723 205.747 L 237.867 203.307 237.986 168.970 C 238.101 135.547,238.082 134.558,237.242 131.793 C 236.151 128.204,233.509 125.129,230.060 123.435 L 227.627 122.240 205.227 122.124 C 184.492 122.017,182.718 122.065,181.364 122.764 C 179.159 123.903,178.133 125.566,178.133 128.000 C 178.133 130.437,179.164 132.104,181.364 133.226 C 182.698 133.906,184.676 133.972,203.816 133.973 L 224.805 133.973 225.469 134.922 C 226.056 135.760,226.133 139.622,226.133 168.120 C 226.133 195.299,226.038 200.500,225.528 201.198 C 224.931 202.014,223.450 202.027,128.000 202.027 C 32.550 202.027,31.069 202.014,30.472 201.198 C 29.962 200.500,29.867 195.299,29.867 168.120 C 29.867 139.622,29.944 135.760,30.531 134.922 L 31.195 133.973 52.184 133.973 C 71.324 133.972,73.302 133.906,74.636 133.226 C 76.836 132.104,77.867 130.437,77.867 128.000 C 77.867 125.563,76.836 123.896,74.636 122.774 C 73.298 122.091,71.321 122.030,51.413 122.056 C 34.769 122.077,29.234 122.215,27.872 122.641 M186.027 158.273 C 176.822 160.089,175.140 172.624,183.539 176.809 C 190.528 180.292,198.555 174.923,197.858 167.232 C 197.611 164.505,196.880 162.863,195.139 161.122 C 192.786 158.769,189.198 157.647,186.027 158.273 " stroke="none" fill-rule="evenodd"></path></svg>