<svg fill="currentColor" viewBox="0 0 256 256" xmlns="http://www.w3.org/2000/svg"><path d="M124.326 11.360 C 114.424 18.041,95.618 35.204,85.176 47.090 C 62.033 73.429,48.033 100.109,43.530 126.450 C 40.810 142.356,41.751 156.647,46.471 171.149 C 57.800 205.955,91.089 229.973,128.000 229.973 C 168.835 229.973,203.968 201.223,212.265 161.017 C 217.175 137.220,211.307 108.740,195.923 81.707 C 182.933 58.880,160.977 34.049,137.776 15.947 C 130.947 10.618,130.300 10.240,128.000 10.240 C 126.532 10.240,125.536 10.544,124.326 11.360 M133.058 27.552 C 165.430 54.169,189.379 86.934,197.770 116.088 C 198.586 118.922,199.253 121.418,199.253 121.634 C 199.253 121.872,171.089 122.027,128.000 122.027 C 84.911 122.027,56.747 121.872,56.747 121.634 C 56.747 121.418,57.414 118.922,58.230 116.088 C 66.600 87.009,90.250 54.628,122.880 27.571 C 125.579 25.333,127.855 23.494,127.938 23.484 C 128.021 23.475,130.325 25.305,133.058 27.552 M201.542 135.953 C 201.893 138.517,201.892 148.032,201.539 151.404 L 201.265 154.027 127.999 154.027 L 54.732 154.027 54.463 151.787 C 54.113 148.872,54.110 138.495,54.458 135.953 L 54.729 133.973 128.000 133.973 L 201.271 133.973 201.542 135.953 M198.400 166.333 C 198.400 168.096,194.295 177.187,191.142 182.407 L 188.956 186.027 128.000 186.027 L 67.044 186.027 64.858 182.407 C 61.705 177.187,57.600 168.096,57.600 166.333 C 57.600 166.135,89.280 165.973,128.000 165.973 C 166.720 165.973,198.400 166.135,198.400 166.333 M176.473 199.789 C 166.260 208.648,153.873 214.518,140.160 216.998 C 134.230 218.070,121.770 218.070,115.840 216.998 C 101.887 214.475,89.560 208.595,79.147 199.497 L 77.440 198.005 128.000 197.992 L 178.560 197.979 176.473 199.789 " stroke="none" fill-rule="evenodd"></path></svg>