<svg fill="currentColor" viewBox="0 0 256 256" xmlns="http://www.w3.org/2000/svg"><path d="M125.227 18.180 C 118.905 19.028,115.298 20.187,109.227 23.319 C 89.051 33.727,68.563 58.983,55.475 89.580 C 43.826 116.815,39.310 147.283,43.713 168.944 C 48.993 194.919,65.858 216.983,89.517 228.865 C 101.871 235.070,113.731 237.833,128.000 237.833 C 137.098 237.833,142.619 237.122,150.679 234.911 C 180.673 226.682,203.915 202.913,211.413 172.800 C 213.356 164.998,213.878 160.354,213.862 151.040 C 213.835 135.105,211.169 119.749,205.456 102.613 C 191.552 60.911,161.415 24.812,135.680 19.032 C 132.642 18.350,127.242 17.910,125.227 18.180 M134.175 31.015 C 141.521 32.835,152.748 40.604,160.940 49.537 C 162.887 51.660,164.480 53.554,164.480 53.746 C 164.480 53.937,155.198 64.496,143.853 77.210 C 132.508 89.924,122.957 100.841,122.629 101.470 C 121.403 103.819,122.156 106.980,124.353 108.707 C 125.035 109.244,130.192 110.730,138.761 112.857 C 146.101 114.680,152.281 116.328,152.493 116.520 C 152.720 116.725,151.427 124.138,149.360 134.473 C 145.475 153.904,145.475 153.903,148.024 156.345 C 150.533 158.749,155.200 158.187,156.976 155.266 C 157.464 154.463,159.321 146.134,161.962 132.900 C 166.060 112.365,166.154 111.768,165.538 110.001 C 165.144 108.869,164.394 107.843,163.541 107.271 C 162.697 106.704,157.777 105.255,150.642 103.474 L 139.108 100.594 140.701 98.789 C 141.577 97.797,149.013 89.457,157.227 80.257 L 172.160 63.529 173.131 64.724 C 175.359 67.470,181.326 77.507,184.767 84.298 C 199.861 114.089,205.554 147.774,199.434 171.072 C 192.459 197.624,170.494 218.497,143.360 224.359 C 120.891 229.212,97.394 223.124,79.490 207.809 C 71.035 200.576,63.409 189.763,59.149 178.965 C 55.762 170.380,54.187 161.598,54.187 151.293 C 54.187 122.056,64.927 90.136,83.754 63.420 C 96.724 45.014,113.214 31.856,125.227 30.325 C 128.199 29.946,130.613 30.132,134.175 31.015 " stroke="none" fill-rule="evenodd"></path></svg>