<svg fill="currentColor" viewBox="0 0 256 256" xmlns="http://www.w3.org/2000/svg"><path d="M122.596 34.740 C 119.539 35.482,115.850 37.429,113.501 39.541 C 110.562 42.183,29.017 142.940,27.520 145.779 C 26.386 147.929,26.240 148.624,26.240 151.863 C 26.240 154.995,26.410 155.865,27.422 157.927 C 28.801 160.735,31.660 163.532,34.485 164.838 L 36.480 165.760 128.000 165.760 L 219.520 165.760 221.515 164.838 C 224.340 163.532,227.199 160.735,228.578 157.927 C 229.590 155.865,229.760 154.995,229.760 151.863 C 229.760 148.624,229.614 147.929,228.480 145.778 C 226.977 142.928,145.414 42.162,142.459 39.504 C 140.078 37.364,135.912 35.255,132.779 34.603 C 129.875 34.000,125.403 34.060,122.596 34.740 M131.168 46.550 C 132.166 46.827,133.664 47.816,134.879 49.001 C 137.747 51.796,218.027 151.098,218.027 151.850 C 218.027 152.189,217.709 152.817,217.321 153.246 C 216.641 153.998,213.309 154.027,128.074 154.027 C 46.285 154.027,39.474 153.973,38.754 153.321 C 38.324 152.932,37.973 152.302,37.973 151.921 C 37.973 151.204,117.704 52.413,120.917 49.150 C 123.680 46.342,127.203 45.449,131.168 46.550 M28.543 203.214 C 24.477 205.945,25.699 212.373,30.540 213.717 C 32.906 214.374,223.094 214.374,225.460 213.717 C 230.301 212.373,231.523 205.945,227.457 203.214 L 226.007 202.240 128.000 202.240 L 29.993 202.240 28.543 203.214 " stroke="none" fill-rule="evenodd"></path></svg>