<svg fill="currentColor" viewBox="0 0 256 256" xmlns="http://www.w3.org/2000/svg"><path d="M84.863 35.102 C 80.897 37.752,81.163 43.191,85.364 45.333 C 86.665 45.996,88.319 46.079,100.373 46.079 L 113.920 46.080 113.920 56.099 L 113.920 66.119 79.040 66.233 L 44.160 66.347 42.208 67.309 C 39.195 68.793,36.862 71.038,35.546 73.718 L 34.347 76.160 34.133 107.093 L 33.920 138.027 24.000 138.141 L 14.080 138.256 14.080 124.729 C 14.080 112.123,14.023 111.084,13.236 109.459 C 12.771 108.500,11.830 107.383,11.143 106.977 C 9.388 105.941,6.209 106.014,4.646 107.127 C 2.016 109.000,2.133 107.280,2.135 144.085 C 2.136 176.658,2.162 177.749,2.968 179.070 C 4.127 180.971,5.731 181.902,7.847 181.902 C 10.245 181.902,12.199 180.683,13.236 178.541 C 14.022 176.918,14.080 175.878,14.080 163.492 L 14.080 150.187 24.107 150.187 L 34.133 150.187 34.133 162.757 C 34.133 174.490,34.193 175.493,35.035 177.797 C 35.882 180.118,37.137 181.467,55.835 200.165 C 74.533 218.863,75.882 220.118,78.203 220.965 C 80.642 221.856,81.102 221.867,116.053 221.867 C 151.097 221.867,151.458 221.858,153.904 220.958 C 156.211 220.109,157.621 218.807,175.360 201.150 L 194.347 182.251 202.677 182.112 L 211.008 181.973 213.855 180.571 C 217.273 178.887,219.779 176.216,220.999 172.953 C 221.783 170.859,221.867 169.646,221.867 160.411 L 221.867 150.187 231.893 150.187 L 241.920 150.187 241.920 163.492 C 241.920 175.878,241.978 176.918,242.764 178.541 C 243.801 180.683,245.755 181.902,248.153 181.902 C 250.269 181.902,251.873 180.971,253.032 179.070 C 253.838 177.749,253.864 176.658,253.865 144.085 C 253.867 107.280,253.984 109.000,251.354 107.127 C 249.791 106.014,246.612 105.941,244.857 106.977 C 244.170 107.383,243.229 108.500,242.764 109.459 C 241.977 111.084,241.920 112.123,241.920 124.729 L 241.920 138.256 232.000 138.141 L 222.080 138.027 221.867 127.147 C 221.654 116.311,221.649 116.257,220.467 113.852 C 219.165 111.199,216.924 108.940,214.099 107.432 C 212.405 106.527,211.601 106.437,203.423 106.240 L 194.580 106.027 175.690 87.210 C 161.052 72.629,156.320 68.163,154.667 67.370 C 152.576 66.367,152.268 66.344,139.200 66.223 L 125.867 66.099 125.867 56.089 L 125.867 46.080 139.320 46.080 C 153.821 46.080,154.527 45.987,156.541 43.802 C 157.894 42.335,158.243 39.085,157.253 37.172 C 156.864 36.419,155.931 35.427,155.179 34.969 C 153.855 34.162,152.784 34.136,120.063 34.135 L 86.313 34.133 84.863 35.102 M168.314 96.833 C 184.803 113.300,187.406 115.731,189.653 116.770 C 192.123 117.912,192.506 117.959,200.533 118.113 C 205.311 118.205,209.080 118.458,209.387 118.709 C 209.802 119.048,209.920 124.632,209.920 144.000 C 209.920 166.574,209.855 168.909,209.216 169.441 C 208.691 169.878,206.287 170.082,199.723 170.245 C 191.560 170.447,190.797 170.534,189.013 171.465 C 187.742 172.128,180.748 178.792,168.309 191.193 L 149.525 209.920 116.044 209.920 L 82.564 209.920 64.322 191.682 L 46.080 173.444 46.080 126.274 C 46.080 90.155,46.200 78.984,46.592 78.592 C 46.985 78.199,59.054 78.080,98.319 78.080 L 149.534 78.080 168.314 96.833 " stroke="none" fill-rule="evenodd"></path></svg>