<svg fill="currentColor" viewBox="0 0 256 256" xmlns="http://www.w3.org/2000/svg"><path d="M124.800 27.019 C 120.616 29.428,28.260 91.318,27.307 92.352 L 26.240 93.509 26.240 148.621 L 26.240 203.733 27.202 205.686 C 28.766 208.858,30.933 211.041,34.036 212.569 L 36.889 213.973 128.000 213.973 L 219.111 213.973 221.964 212.569 C 225.066 211.042,227.185 208.908,228.776 205.711 L 229.760 203.733 229.760 148.621 L 229.760 93.509 228.693 92.352 C 227.674 91.247,133.436 28.154,130.661 26.719 C 128.806 25.760,126.811 25.862,124.800 27.019 M170.676 67.703 C 194.147 83.350,213.203 96.293,213.022 96.464 C 212.841 96.635,197.160 107.833,178.176 121.348 L 143.658 145.920 128.003 145.920 L 112.347 145.920 77.614 121.163 C 58.510 107.547,42.913 96.293,42.954 96.154 C 43.013 95.954,127.492 39.390,127.894 39.282 C 127.953 39.266,147.205 52.056,170.676 67.703 M69.273 129.920 C 86.063 141.888,99.809 151.808,99.820 151.964 C 99.835 152.182,59.515 180.853,40.853 193.893 L 37.973 195.906 37.973 151.891 C 37.973 125.826,38.131 107.934,38.359 108.018 C 38.571 108.096,52.483 117.952,69.273 129.920 M218.027 151.926 L 218.027 195.906 215.147 193.893 C 195.925 180.459,156.165 152.189,156.180 151.968 C 156.203 151.640,217.215 108.013,217.707 107.973 C 217.883 107.958,218.027 127.738,218.027 151.926 M174.596 179.947 L 205.855 202.027 166.928 202.136 C 145.517 202.195,110.482 202.195,89.072 202.136 L 50.144 202.027 81.286 179.980 L 112.427 157.934 127.882 157.900 L 143.336 157.867 174.596 179.947 " stroke="none" fill-rule="evenodd"></path></svg>