<svg fill="currentColor" viewBox="0 0 256 256" xmlns="http://www.w3.org/2000/svg"><path d="M30.009 50.386 C 28.539 50.814,26.587 52.848,26.228 54.326 C 26.104 54.836,26.056 86.837,26.121 125.440 L 26.240 195.627 27.435 198.060 C 29.108 201.467,32.191 204.134,35.713 205.222 C 38.457 206.070,39.542 206.080,128.000 206.080 C 216.458 206.080,217.543 206.070,220.287 205.222 C 223.809 204.134,226.892 201.467,228.565 198.060 L 229.760 195.627 229.869 125.227 C 229.971 58.821,229.935 54.744,229.229 53.364 C 228.817 52.559,227.938 51.503,227.275 51.017 L 226.071 50.133 128.715 50.063 C 70.391 50.021,30.818 50.151,30.009 50.386 M208.183 62.187 C 208.136 62.673,128.485 135.467,128.000 135.467 C 127.515 135.467,47.864 62.673,47.817 62.187 C 47.800 62.011,83.883 61.867,128.000 61.867 C 172.117 61.867,208.200 62.011,208.183 62.187 M79.778 107.888 C 102.193 128.412,121.514 146.119,122.713 147.237 C 125.605 149.932,127.738 150.542,130.245 149.393 C 131.431 148.849,146.807 135.014,174.933 109.185 L 217.813 69.806 217.921 131.188 C 218.021 187.849,217.975 192.630,217.322 193.351 C 216.640 194.105,213.375 194.133,128.074 194.133 C 46.285 194.133,39.474 194.079,38.754 193.427 C 38.005 192.749,37.973 190.263,37.973 131.322 C 37.973 82.858,38.084 69.991,38.498 70.247 C 38.786 70.425,57.362 87.364,79.778 107.888 " stroke="none" fill-rule="evenodd"></path></svg>