<svg fill="currentColor" viewBox="0 0 256 256" xmlns="http://www.w3.org/2000/svg"><path d="M37.205 90.813 C 33.061 93.023,33.117 99.304,37.298 101.288 C 38.610 101.911,46.915 101.973,128.000 101.973 C 209.085 101.973,217.390 101.911,218.702 101.288 C 220.607 100.384,221.867 98.285,221.867 96.015 C 221.867 93.726,220.881 92.056,218.860 90.920 L 217.270 90.027 127.942 90.045 C 43.521 90.061,38.536 90.104,37.205 90.813 M37.205 154.813 C 33.061 157.023,33.117 163.304,37.298 165.288 C 38.610 165.911,46.915 165.973,128.000 165.973 C 209.085 165.973,217.390 165.911,218.702 165.288 C 220.607 164.384,221.867 162.285,221.867 160.015 C 221.867 157.726,220.881 156.056,218.860 154.920 L 217.270 154.027 127.942 154.045 C 43.521 154.061,38.536 154.104,37.205 154.813 " stroke="none" fill-rule="evenodd"></path></svg>