<svg fill="currentColor" viewBox="0 0 256 256" xmlns="http://www.w3.org/2000/svg"><path d="M181.364 58.774 C 179.164 59.896,178.133 61.563,178.133 64.000 C 178.133 66.437,179.164 68.104,181.364 69.226 C 182.708 69.911,184.876 69.972,208.000 69.972 C 231.124 69.972,233.292 69.911,234.636 69.226 C 236.836 68.104,237.867 66.437,237.867 64.000 C 237.867 61.563,236.836 59.896,234.636 58.774 C 233.292 58.089,231.124 58.028,208.000 58.028 C 184.876 58.028,182.708 58.089,181.364 58.774 M21.364 90.774 C 19.164 91.896,18.133 93.563,18.133 96.000 C 18.133 98.437,19.164 100.104,21.364 101.226 C 22.708 101.911,24.876 101.972,48.000 101.972 C 71.124 101.972,73.292 101.911,74.636 101.226 C 76.836 100.104,77.867 98.437,77.867 96.000 C 77.867 93.563,76.836 91.896,74.636 90.774 C 73.292 90.089,71.124 90.028,48.000 90.028 C 24.876 90.028,22.708 90.089,21.364 90.774 M181.364 90.774 C 179.164 91.896,178.133 93.563,178.133 96.000 C 178.133 98.437,179.164 100.104,181.364 101.226 C 182.708 101.911,184.876 101.972,208.000 101.972 C 231.124 101.972,233.292 101.911,234.636 101.226 C 236.836 100.104,237.867 98.437,237.867 96.000 C 237.867 93.563,236.836 91.896,234.636 90.774 C 233.292 90.089,231.124 90.028,208.000 90.028 C 184.876 90.028,182.708 90.089,181.364 90.774 M21.364 122.774 C 19.164 123.896,18.133 125.563,18.133 128.000 C 18.133 130.437,19.164 132.104,21.364 133.226 C 22.708 133.911,24.876 133.972,48.000 133.972 C 71.124 133.972,73.292 133.911,74.636 133.226 C 76.836 132.104,77.867 130.437,77.867 128.000 C 77.867 125.563,76.836 123.896,74.636 122.774 C 73.292 122.089,71.124 122.028,48.000 122.028 C 24.876 122.028,22.708 122.089,21.364 122.774 M101.205 122.813 C 97.061 125.023,97.117 131.304,101.298 133.288 C 102.574 133.893,105.689 133.973,128.000 133.973 C 155.982 133.973,155.257 134.042,157.007 131.211 C 158.060 129.506,158.130 126.657,157.158 125.013 C 156.769 124.353,155.735 123.412,154.860 122.920 C 153.295 122.041,152.877 122.027,127.942 122.045 C 104.606 122.061,102.503 122.121,101.205 122.813 M181.364 122.774 C 179.164 123.896,178.133 125.563,178.133 128.000 C 178.133 130.437,179.164 132.104,181.364 133.226 C 182.708 133.911,184.876 133.972,208.000 133.972 C 231.124 133.972,233.292 133.911,234.636 133.226 C 236.836 132.104,237.867 130.437,237.867 128.000 C 237.867 125.563,236.836 123.896,234.636 122.774 C 233.292 122.089,231.124 122.028,208.000 122.028 C 184.876 122.028,182.708 122.089,181.364 122.774 M21.364 154.774 C 19.164 155.896,18.133 157.563,18.133 160.000 C 18.133 162.437,19.164 164.104,21.364 165.226 C 22.708 165.911,24.876 165.972,48.000 165.972 C 71.124 165.972,73.292 165.911,74.636 165.226 C 76.836 164.104,77.867 162.437,77.867 160.000 C 77.867 157.563,76.836 155.896,74.636 154.774 C 73.292 154.089,71.124 154.028,48.000 154.028 C 24.876 154.028,22.708 154.089,21.364 154.774 M101.205 154.813 C 97.061 157.023,97.117 163.304,101.298 165.288 C 102.574 165.893,105.689 165.973,128.000 165.973 C 155.982 165.973,155.257 166.042,157.007 163.211 C 158.060 161.506,158.130 158.657,157.158 157.013 C 156.769 156.353,155.735 155.412,154.860 154.920 C 153.295 154.041,152.877 154.027,127.942 154.045 C 104.606 154.061,102.503 154.121,101.205 154.813 M181.364 154.774 C 179.164 155.896,178.133 157.563,178.133 160.000 C 178.133 162.437,179.164 164.104,181.364 165.226 C 182.708 165.911,184.876 165.972,208.000 165.972 C 231.124 165.972,233.292 165.911,234.636 165.226 C 236.836 164.104,237.867 162.437,237.867 160.000 C 237.867 157.563,236.836 155.896,234.636 154.774 C 233.292 154.089,231.124 154.028,208.000 154.028 C 184.876 154.028,182.708 154.089,181.364 154.774 M21.364 186.774 C 19.164 187.896,18.133 189.563,18.133 192.000 C 18.133 194.437,19.164 196.104,21.364 197.226 C 22.708 197.911,24.876 197.972,48.000 197.972 C 71.124 197.972,73.292 197.911,74.636 197.226 C 76.836 196.104,77.867 194.437,77.867 192.000 C 77.867 189.563,76.836 187.896,74.636 186.774 C 73.292 186.089,71.124 186.028,48.000 186.028 C 24.876 186.028,22.708 186.089,21.364 186.774 M101.205 186.813 C 97.061 189.023,97.117 195.304,101.298 197.288 C 102.574 197.893,105.689 197.973,128.000 197.973 C 155.982 197.973,155.257 198.042,157.007 195.211 C 158.060 193.506,158.130 190.657,157.158 189.013 C 156.769 188.353,155.735 187.412,154.860 186.920 C 153.295 186.041,152.877 186.027,127.942 186.045 C 104.606 186.061,102.503 186.121,101.205 186.813 M181.364 186.774 C 179.164 187.896,178.133 189.563,178.133 192.000 C 178.133 194.437,179.164 196.104,181.364 197.226 C 182.708 197.911,184.876 197.972,208.000 197.972 C 231.124 197.972,233.292 197.911,234.636 197.226 C 236.836 196.104,237.867 194.437,237.867 192.000 C 237.867 189.563,236.836 187.896,234.636 186.774 C 233.292 186.089,231.124 186.028,208.000 186.028 C 184.876 186.028,182.708 186.089,181.364 186.774 " stroke="none" fill-rule="evenodd"></path></svg>