<svg fill="currentColor" viewBox="0 0 256 256" xmlns="http://www.w3.org/2000/svg"><path d="M160.901 34.781 C 154.829 36.484,158.036 33.471,91.700 99.807 C 24.968 166.538,28.321 162.956,26.703 169.235 C 25.419 174.213,26.031 179.659,28.447 184.747 C 29.360 186.671,32.562 190.111,46.247 203.872 C 55.424 213.100,63.452 220.924,64.085 221.259 C 65.070 221.778,76.311 221.866,141.525 221.865 C 216.436 221.864,217.838 221.848,219.179 221.031 C 223.400 218.457,222.413 211.677,217.624 210.346 C 216.669 210.081,199.500 209.924,171.313 209.922 L 126.519 209.920 176.460 159.893 C 219.952 116.327,226.549 109.554,227.544 107.447 C 229.988 102.271,230.586 97.006,229.297 92.008 C 227.778 86.116,227.615 85.924,203.756 61.945 C 190.987 49.112,180.501 38.923,179.087 37.974 C 175.203 35.367,172.377 34.472,167.467 34.293 C 164.532 34.185,162.483 34.338,160.901 34.781 M170.880 47.106 C 172.565 47.909,177.559 52.688,194.622 69.822 C 206.507 81.756,216.581 92.192,217.008 93.013 C 218.132 95.175,218.061 99.533,216.866 101.760 C 216.333 102.753,204.249 115.156,187.975 131.412 L 160.000 159.358 132.267 131.627 L 104.533 103.896 132.373 76.045 C 153.614 54.796,160.714 47.943,162.324 47.137 C 165.097 45.748,168.011 45.737,170.880 47.106 M123.839 140.265 L 151.466 167.891 130.455 188.905 L 109.443 209.920 89.375 209.920 L 69.306 209.920 54.131 194.667 C 40.232 180.697,38.909 179.242,38.407 177.381 C 37.783 175.065,38.049 172.178,39.076 170.126 C 39.673 168.934,95.411 112.640,95.994 112.640 C 96.113 112.640,108.643 125.071,123.839 140.265 " stroke="none" fill-rule="evenodd"></path></svg>