<svg fill="currentColor" viewBox="0 0 256 256" xmlns="http://www.w3.org/2000/svg"><path d="M27.189 42.892 C 24.723 43.797,21.870 46.036,20.449 48.181 C 17.902 52.027,17.879 52.294,18.012 76.853 L 18.133 99.200 19.243 101.566 C 20.827 104.943,22.700 106.873,25.947 108.471 L 28.780 109.867 49.144 109.989 L 69.508 110.111 114.829 159.269 C 139.755 186.306,161.000 209.236,162.039 210.226 C 163.078 211.215,165.012 212.463,166.337 212.999 L 168.747 213.973 197.760 213.973 L 226.773 213.973 229.214 212.987 C 232.307 211.738,235.241 208.909,236.723 205.747 L 237.867 203.307 237.867 180.045 L 237.867 156.782 236.471 153.948 C 234.873 150.701,232.943 148.827,229.566 147.243 L 227.200 146.133 206.841 146.007 L 186.482 145.881 140.800 96.301 C 115.675 69.031,94.213 46.002,93.106 45.124 C 89.334 42.135,90.587 42.237,58.057 42.270 C 34.234 42.295,28.501 42.410,27.189 42.892 M196.575 43.151 C 194.089 45.005,194.133 44.556,194.133 67.819 C 194.133 79.564,193.987 89.173,193.808 89.173 C 193.630 89.173,190.414 86.088,186.662 82.318 C 182.910 78.547,179.322 75.187,178.688 74.851 C 174.663 72.717,169.956 76.079,170.369 80.793 L 170.550 82.865 183.728 96.048 C 192.830 105.153,197.343 109.375,198.320 109.697 C 201.637 110.792,201.814 110.659,216.172 96.289 C 228.516 83.935,229.484 82.858,229.755 81.177 C 230.491 76.616,225.334 72.671,221.305 74.712 C 220.793 74.972,217.157 78.378,213.227 82.281 L 206.080 89.377 206.080 68.290 C 206.080 48.150,206.042 47.124,205.236 45.459 C 204.771 44.500,203.830 43.383,203.143 42.977 C 201.386 41.939,198.083 42.026,196.575 43.151 M132.217 104.735 C 174.355 150.406,179.088 155.398,181.267 156.469 L 183.680 157.653 204.301 157.867 C 224.091 158.071,224.947 158.113,225.528 158.908 C 226.428 160.140,226.428 199.967,225.528 201.198 C 224.942 202.000,224.091 202.031,198.968 202.152 C 184.693 202.221,172.430 202.172,171.717 202.043 C 170.655 201.851,162.029 192.718,124.049 151.571 C 98.544 123.940,77.048 100.910,76.279 100.392 C 72.973 98.166,72.610 98.133,51.360 98.133 C 32.142 98.133,31.549 98.109,30.720 97.280 C 29.891 96.451,29.867 95.858,29.867 76.132 C 29.867 62.958,30.022 55.548,30.308 55.012 C 30.738 54.209,31.497 54.187,58.164 54.187 L 85.578 54.187 132.217 104.735 " stroke="none" fill-rule="evenodd"></path></svg>