<svg fill="currentColor" viewBox="0 0 256 256" xmlns="http://www.w3.org/2000/svg"><path d="M35.286 42.853 C 32.737 43.766,30.420 45.493,28.802 47.686 C 25.821 51.726,26.027 45.222,26.027 135.586 C 26.027 226.135,25.801 219.160,28.789 221.007 C 31.639 222.768,32.427 222.505,48.852 214.296 L 64.000 206.726 79.148 214.296 C 91.186 220.312,94.646 221.867,96.000 221.867 C 97.354 221.867,100.814 220.312,112.852 214.296 L 128.000 206.726 143.148 214.296 C 155.186 220.312,158.646 221.867,160.000 221.867 C 161.354 221.867,164.814 220.312,176.852 214.296 L 192.000 206.726 207.148 214.296 C 223.573 222.505,224.361 222.768,227.211 221.007 C 230.214 219.151,229.994 226.282,229.871 134.753 L 229.760 52.267 228.776 50.289 C 227.336 47.394,225.251 45.155,222.660 43.720 L 220.373 42.453 128.640 42.363 C 52.229 42.288,36.636 42.370,35.286 42.853 M217.515 54.699 C 217.909 55.093,218.027 72.543,218.027 130.645 C 218.027 172.134,217.929 206.080,217.810 206.080 C 217.691 206.080,212.221 203.392,205.653 200.107 C 196.265 195.410,193.348 194.133,192.005 194.133 C 190.645 194.133,187.206 195.678,175.148 201.704 L 160.000 209.274 144.852 201.704 C 132.814 195.688,129.354 194.133,128.000 194.133 C 126.646 194.133,123.186 195.688,111.148 201.704 L 96.000 209.274 80.852 201.704 C 68.794 195.678,65.355 194.133,63.995 194.133 C 62.652 194.133,59.735 195.410,50.347 200.107 C 43.779 203.392,38.309 206.080,38.190 206.080 C 38.071 206.080,37.973 172.134,37.973 130.645 C 37.973 72.543,38.091 55.093,38.485 54.699 C 39.231 53.953,216.769 53.953,217.515 54.699 M93.653 90.525 C 93.184 90.784,92.347 91.402,91.792 91.898 C 91.238 92.394,83.414 107.540,74.406 125.556 C 61.622 151.122,58.027 158.662,58.028 159.903 C 58.033 164.225,62.833 167.261,66.590 165.318 C 68.340 164.413,69.734 162.324,72.947 155.796 L 75.707 150.187 95.999 150.187 L 116.291 150.187 119.266 156.232 C 122.463 162.729,123.580 164.372,125.470 165.349 C 129.169 167.262,133.967 164.188,133.972 159.903 C 133.973 158.663,130.396 151.151,117.719 125.770 C 108.779 107.871,101.051 92.776,100.546 92.226 C 98.662 90.176,95.635 89.428,93.653 90.525 M164.821 98.969 C 162.292 100.511,162.133 101.293,162.133 112.192 L 162.133 122.027 152.427 122.027 C 141.075 122.028,140.387 122.203,138.747 125.508 C 137.900 127.215,137.823 127.729,138.203 129.135 C 138.446 130.036,138.963 131.226,139.352 131.778 C 140.723 133.730,142.185 133.973,152.520 133.973 L 162.133 133.973 162.135 143.893 C 162.136 152.980,162.207 153.928,162.969 155.179 C 165.424 159.206,171.597 158.600,173.495 154.147 C 173.931 153.123,174.080 150.385,174.080 143.374 L 174.080 133.973 183.787 133.972 C 192.720 133.970,193.604 133.903,194.884 133.122 C 196.681 132.027,197.970 129.886,197.970 128.000 C 197.970 126.114,196.681 123.973,194.884 122.878 C 193.604 122.097,192.720 122.030,183.787 122.028 L 174.080 122.027 174.079 112.533 C 174.079 104.347,173.976 102.836,173.333 101.555 C 171.752 98.409,167.739 97.190,164.821 98.969 M103.150 123.948 C 106.961 131.576,110.080 137.912,110.080 138.028 C 110.080 138.145,103.744 138.240,96.000 138.240 C 88.256 138.240,81.920 138.145,81.920 138.028 C 81.920 137.605,95.787 110.080,96.000 110.080 C 96.121 110.080,99.338 116.321,103.150 123.948 " stroke="none" fill-rule="evenodd"></path></svg>