<svg fill="currentColor" viewBox="0 0 256 256" xmlns="http://www.w3.org/2000/svg"><path d="M48.305 43.101 C 38.523 45.664,30.759 53.029,27.398 62.933 L 26.240 66.347 26.240 119.253 L 26.240 172.160 27.430 176.000 C 29.855 183.822,33.080 189.305,38.368 194.592 C 43.753 199.978,50.195 203.708,57.600 205.730 C 60.746 206.589,62.160 206.715,68.267 206.685 C 74.606 206.654,75.689 206.536,79.147 205.506 C 96.203 200.422,108.014 186.333,109.873 168.853 L 110.179 165.973 128.042 165.973 L 145.904 165.973 146.102 166.933 C 146.211 167.461,146.425 168.853,146.578 170.027 C 146.983 173.133,148.771 178.515,150.617 182.187 C 156.061 193.011,165.710 200.682,178.123 204.054 C 182.955 205.367,193.227 205.360,198.048 204.041 C 213.649 199.772,224.660 188.694,228.833 173.070 L 229.760 169.600 229.760 117.973 L 229.760 66.347 228.602 62.933 C 225.930 55.058,221.006 49.283,213.675 45.427 C 207.908 42.393,199.308 41.231,196.646 43.127 C 193.264 45.535,193.362 50.836,196.830 53.109 C 197.397 53.481,199.470 53.967,201.437 54.190 C 209.431 55.096,215.420 60.142,217.364 67.610 C 217.935 69.799,218.027 74.621,218.027 102.282 L 218.027 134.411 214.933 131.910 C 209.364 127.407,204.327 124.875,197.639 123.214 C 192.334 121.896,183.520 121.906,178.159 123.236 C 164.026 126.743,152.634 137.312,148.079 151.147 L 147.130 154.027 128.000 154.027 L 108.870 154.027 107.921 151.147 C 103.372 137.331,91.955 126.738,77.841 123.236 C 72.480 121.906,63.666 121.896,58.361 123.214 C 51.673 124.875,46.636 127.407,41.067 131.910 L 37.973 134.411 37.973 102.282 C 37.973 68.034,37.990 67.722,40.070 63.645 C 42.678 58.532,48.235 54.907,54.563 54.190 C 56.530 53.967,58.603 53.481,59.170 53.109 C 62.638 50.836,62.736 45.535,59.354 43.127 C 57.721 41.964,52.689 41.953,48.305 43.101 M75.544 135.035 C 81.433 136.538,87.439 140.363,91.134 144.963 C 93.557 147.982,96.603 154.242,97.283 157.603 C 97.562 158.984,97.786 161.998,97.781 164.301 C 97.748 177.938,88.543 189.641,75.093 193.145 C 71.699 194.029,64.711 194.112,61.471 193.307 C 55.568 191.841,49.810 188.533,46.109 184.484 C 33.580 170.775,36.079 149.404,51.410 139.150 C 58.504 134.406,67.239 132.916,75.544 135.035 M193.280 134.584 C 197.698 135.385,200.884 136.672,204.590 139.150 C 219.918 149.402,222.413 170.501,209.941 184.402 C 206.284 188.478,200.489 191.826,194.529 193.307 C 191.289 194.112,184.301 194.029,180.907 193.145 C 167.457 189.641,158.252 177.938,158.219 164.301 C 158.207 158.951,158.829 155.955,160.863 151.582 C 163.670 145.548,167.299 141.489,172.800 138.233 C 179.042 134.538,186.098 133.281,193.280 134.584 " stroke="none" fill-rule="evenodd"></path></svg>