<svg fill="currentColor" viewBox="0 0 256 256" xmlns="http://www.w3.org/2000/svg"><path d="M172.042 18.358 C 167.861 19.217,164.031 22.298,162.138 26.325 C 161.437 27.818,159.917 37.504,155.150 70.858 C 151.800 94.302,148.947 113.595,148.809 113.733 C 148.672 113.870,139.086 106.885,127.506 98.210 C 114.122 88.182,105.949 82.331,105.068 82.145 C 103.220 81.755,101.110 82.505,99.590 84.091 L 98.347 85.389 98.227 104.561 C 98.162 115.106,97.987 123.733,97.838 123.733 C 97.690 123.733,85.168 114.442,70.011 103.086 C 52.306 89.820,41.958 82.333,41.068 82.145 C 39.220 81.755,37.110 82.505,35.590 84.091 L 34.347 85.389 34.236 147.655 L 34.125 209.920 24.664 209.920 C 16.109 209.920,15.036 210.001,13.459 210.764 C 11.317 211.801,10.098 213.755,10.098 216.153 C 10.098 218.269,11.029 219.873,12.930 221.032 C 14.272 221.851,16.046 221.863,128.000 221.863 C 239.954 221.863,241.728 221.851,243.070 221.032 C 244.971 219.873,245.902 218.269,245.902 216.153 C 245.902 213.755,244.683 211.801,242.541 210.764 C 240.964 210.001,239.891 209.920,231.332 209.920 L 221.867 209.920 221.867 172.460 L 221.867 135.000 214.224 81.554 C 207.352 33.498,206.469 27.879,205.465 25.826 C 204.110 23.056,201.661 20.763,198.451 19.258 C 196.069 18.141,195.980 18.133,184.960 18.058 C 178.859 18.017,173.045 18.151,172.042 18.358 M194.070 30.613 C 194.869 31.288,195.616 36.015,201.808 79.573 C 205.577 106.091,208.768 128.315,208.898 128.960 L 209.134 130.133 189.606 130.133 L 170.078 130.133 165.260 126.478 C 162.610 124.468,160.357 122.686,160.253 122.517 C 160.149 122.349,162.995 101.693,166.578 76.615 C 172.186 37.371,173.203 30.939,173.882 30.443 C 174.486 30.001,176.826 29.867,183.928 29.867 C 192.123 29.867,193.287 29.952,194.070 30.613 M74.319 121.235 C 93.831 135.862,101.913 141.683,102.985 141.884 C 105.121 142.285,107.338 141.409,108.698 139.626 L 109.867 138.094 110.080 119.154 L 110.293 100.213 137.387 120.556 C 152.288 131.744,165.098 141.164,165.853 141.489 C 166.962 141.966,171.334 142.080,188.573 142.080 L 209.920 142.080 209.920 176.000 L 209.920 209.920 128.000 209.920 L 46.080 209.920 46.080 155.068 C 46.080 111.298,46.188 100.282,46.613 100.541 C 46.907 100.720,59.374 110.032,74.319 121.235 M76.181 171.559 C 72.576 174.724,73.875 180.480,78.482 181.760 C 79.346 182.000,86.164 182.179,94.293 182.175 C 107.468 182.168,108.728 182.104,110.391 181.349 C 114.691 179.397,115.176 173.480,111.233 171.076 C 109.942 170.289,108.982 170.243,93.775 170.242 L 77.683 170.240 76.181 171.559 M144.767 171.076 C 140.824 173.480,141.309 179.397,145.609 181.349 C 147.272 182.104,148.535 182.169,161.709 182.177 C 169.804 182.183,176.638 182.005,177.464 181.768 C 182.146 180.426,183.452 174.749,179.815 171.555 L 178.317 170.240 162.225 170.242 C 147.018 170.243,146.058 170.289,144.767 171.076 " stroke="none" fill-rule="evenodd"></path></svg>