<svg fill="currentColor" viewBox="0 0 256 256" xmlns="http://www.w3.org/2000/svg"><path d="M52.863 35.102 C 49.717 37.203,49.921 33.770,49.921 84.587 L 49.920 130.133 40.050 130.133 C 30.900 130.133,30.079 130.196,28.789 130.993 C 26.085 132.664,25.239 136.508,26.995 139.137 C 29.025 142.176,28.072 142.079,55.865 142.079 C 79.837 142.080,80.864 142.047,82.541 141.236 C 84.683 140.199,85.902 138.245,85.902 135.847 C 85.902 133.731,84.971 132.127,83.070 130.968 C 81.822 130.207,80.867 130.136,71.787 130.135 L 61.867 130.133 61.865 84.160 C 61.864 39.316,61.843 38.153,61.031 36.821 C 59.372 34.100,55.563 33.298,52.863 35.102 M124.800 34.981 C 121.965 36.847,122.027 36.288,122.027 60.260 L 122.027 81.920 112.960 81.922 C 107.973 81.924,103.210 82.114,102.376 82.346 C 97.587 83.677,96.600 90.457,100.821 93.031 C 102.136 93.832,103.149 93.863,128.000 93.863 C 152.851 93.863,153.864 93.832,155.179 93.031 C 159.400 90.457,158.413 83.677,153.624 82.346 C 152.790 82.114,148.027 81.924,143.040 81.922 L 133.973 81.920 133.973 60.331 C 133.973 36.408,134.008 36.722,131.211 34.993 C 129.396 33.871,126.495 33.866,124.800 34.981 M196.821 34.969 C 193.934 36.729,194.133 31.893,194.133 100.245 L 194.133 162.133 184.213 162.135 C 175.133 162.136,174.178 162.207,172.930 162.968 C 171.029 164.127,170.098 165.731,170.098 167.847 C 170.098 170.245,171.317 172.199,173.459 173.236 C 175.136 174.047,176.163 174.080,200.135 174.079 C 223.028 174.079,225.186 174.018,226.530 173.333 C 230.687 171.213,231.071 165.379,227.211 162.993 C 225.921 162.196,225.100 162.133,215.950 162.133 L 206.080 162.133 206.079 100.587 C 206.079 42.843,206.033 38.948,205.333 37.555 C 203.752 34.409,199.739 33.190,196.821 34.969 M126.141 114.345 C 125.470 114.554,124.539 115.071,124.070 115.494 C 121.938 117.425,122.027 115.141,122.027 167.914 C 122.027 212.345,122.095 217.402,122.712 218.702 C 124.702 222.895,131.298 222.895,133.288 218.702 C 133.905 217.402,133.973 212.356,133.973 168.042 C 133.972 122.030,133.923 118.731,133.226 117.364 C 131.897 114.756,128.912 113.485,126.141 114.345 M52.863 163.102 C 49.825 165.131,49.921 164.187,49.921 191.907 C 49.920 218.745,49.894 218.417,52.198 220.541 C 53.665 221.894,56.915 222.243,58.828 221.253 C 59.581 220.864,60.573 219.931,61.031 219.179 C 61.832 217.864,61.863 216.851,61.863 192.000 C 61.863 167.149,61.832 166.136,61.031 164.821 C 59.372 162.100,55.563 161.298,52.863 163.102 M196.821 194.969 C 194.296 196.509,194.133 197.303,194.135 208.085 C 194.136 216.981,194.208 217.930,194.969 219.179 C 197.424 223.206,203.597 222.600,205.495 218.147 C 205.928 217.131,206.080 214.468,206.079 207.907 C 206.079 200.317,205.971 198.826,205.333 197.555 C 203.752 194.409,199.739 193.190,196.821 194.969 " stroke="none" fill-rule="evenodd"></path></svg>