<svg fill="currentColor" viewBox="0 0 256 256" xmlns="http://www.w3.org/2000/svg"><path d="M52.667 26.427 C 50.540 26.936,46.971 29.071,45.560 30.678 C 44.838 31.501,43.747 33.239,43.136 34.541 L 42.027 36.907 42.027 75.382 C 42.027 113.576,42.033 113.866,42.906 115.036 C 45.840 118.965,50.160 118.965,53.094 115.036 C 53.964 113.870,53.975 113.475,54.089 76.482 C 54.171 50.063,54.343 38.939,54.675 38.539 C 55.060 38.076,63.344 37.973,100.532 37.973 L 145.920 37.973 145.920 63.374 C 145.920 90.864,145.884 90.407,148.246 92.587 L 149.402 93.653 175.579 93.770 L 201.757 93.886 201.892 103.873 C 202.017 113.178,202.087 113.940,202.906 115.037 C 205.842 118.965,210.159 118.965,213.094 115.037 C 213.929 113.919,213.980 113.213,214.103 101.115 C 214.190 92.571,214.074 87.764,213.749 86.532 C 213.316 84.887,210.318 81.737,185.246 56.592 C 169.835 41.136,156.373 27.936,155.330 27.258 L 153.433 26.027 103.703 26.070 C 76.352 26.094,53.385 26.255,52.667 26.427 M175.787 64.213 L 193.489 81.920 175.678 81.920 L 157.867 81.920 157.867 64.213 C 157.867 54.475,157.916 46.507,157.975 46.507 C 158.035 46.507,166.050 54.475,175.787 64.213 M30.141 146.345 C 29.470 146.554,28.539 147.071,28.070 147.494 C 25.980 149.386,26.027 148.644,26.027 179.925 C 26.028 207.023,26.085 209.394,26.774 210.759 C 28.842 214.858,35.158 214.858,37.226 210.759 C 37.882 209.459,37.972 207.873,37.973 197.653 L 37.973 186.027 48.000 186.027 L 58.027 186.027 58.027 197.653 C 58.028 207.873,58.118 209.459,58.774 210.759 C 60.842 214.858,67.158 214.858,69.226 210.759 C 69.915 209.394,69.972 207.030,69.972 180.053 C 69.972 153.071,69.915 150.714,69.226 149.364 C 68.108 147.170,66.501 146.183,64.052 146.183 C 61.640 146.183,60.078 147.042,58.861 149.037 C 58.090 150.301,58.030 151.257,58.028 162.240 L 58.027 174.080 48.000 174.080 L 37.973 174.080 37.973 162.453 C 37.972 152.227,37.882 150.650,37.226 149.364 C 35.897 146.756,32.912 145.485,30.141 146.345 M86.400 146.226 C 84.720 146.634,82.806 148.486,82.293 150.198 C 81.631 152.407,82.282 154.676,84.071 156.391 L 85.387 157.653 91.760 157.791 L 98.133 157.928 98.135 183.817 C 98.136 208.726,98.168 209.758,98.968 211.070 C 100.127 212.971,101.731 213.902,103.847 213.902 C 106.245 213.902,108.199 212.683,109.236 210.541 C 110.048 208.863,110.080 207.834,110.080 183.332 L 110.080 157.867 115.947 157.865 C 121.013 157.864,122.000 157.750,123.179 157.031 C 127.400 154.457,126.413 147.677,121.624 146.346 C 120.110 145.926,88.087 145.816,86.400 146.226 M141.315 146.770 C 139.881 147.421,139.299 148.017,138.637 149.515 C 137.816 151.371,137.794 152.299,137.909 180.643 C 138.025 209.391,138.041 209.877,138.906 211.036 C 141.840 214.965,146.159 214.965,149.094 211.036 C 149.940 209.903,149.981 209.196,150.187 192.110 L 150.400 174.361 156.977 185.311 C 160.754 191.599,164.018 196.565,164.645 196.975 C 165.245 197.368,166.605 197.771,167.668 197.870 C 171.065 198.186,171.794 197.374,179.200 185.021 L 185.813 173.992 186.027 192.082 C 186.219 208.408,186.313 210.284,186.991 211.317 C 189.347 214.911,195.295 214.586,197.226 210.759 C 197.915 209.394,197.972 207.017,197.973 179.796 L 197.973 150.313 197.005 148.863 C 195.082 145.984,191.253 145.173,188.624 147.088 C 188.017 147.530,183.260 154.962,178.053 163.605 C 172.846 172.247,168.413 179.491,168.201 179.703 C 167.972 179.932,163.889 173.501,158.121 163.825 C 148.911 148.373,148.337 147.521,146.640 146.750 C 144.395 145.731,143.598 145.734,141.315 146.770 M217.813 146.522 C 215.988 147.334,214.602 148.992,214.161 150.892 C 213.593 153.339,213.656 207.172,214.229 209.280 C 214.817 211.444,216.481 213.219,218.429 213.760 C 220.403 214.309,239.543 214.309,241.518 213.760 C 246.125 212.480,247.424 206.724,243.819 203.559 L 242.317 202.240 234.225 202.240 L 226.133 202.240 226.124 176.747 C 226.115 152.419,226.077 151.170,225.285 149.426 C 224.652 148.030,224.023 147.402,222.628 146.768 C 220.485 145.796,219.555 145.748,217.813 146.522 " stroke="none" fill-rule="evenodd"></path></svg>