<svg fill="currentColor" viewBox="0 0 256 256" xmlns="http://www.w3.org/2000/svg"><path d="M52.667 26.427 C 50.540 26.936,46.971 29.071,45.560 30.678 C 44.838 31.501,43.747 33.239,43.136 34.541 L 42.027 36.907 42.027 75.382 C 42.027 113.576,42.033 113.866,42.906 115.036 C 45.840 118.965,50.160 118.965,53.094 115.036 C 53.964 113.870,53.975 113.475,54.089 76.482 C 54.171 50.063,54.343 38.939,54.675 38.539 C 55.060 38.076,63.344 37.973,100.532 37.973 L 145.920 37.973 145.920 63.374 C 145.920 90.864,145.884 90.407,148.246 92.587 L 149.402 93.653 175.579 93.770 L 201.757 93.886 201.892 103.873 C 202.017 113.178,202.087 113.940,202.906 115.037 C 205.842 118.965,210.159 118.965,213.094 115.037 C 213.929 113.919,213.980 113.213,214.103 101.115 C 214.190 92.572,214.074 87.764,213.749 86.532 C 213.316 84.886,210.288 81.709,184.819 56.182 C 168.986 40.313,155.671 27.307,154.790 26.849 C 153.252 26.050,151.799 26.028,103.590 26.070 C 76.301 26.094,53.385 26.255,52.667 26.427 M175.787 64.213 L 193.489 81.920 175.678 81.920 L 157.867 81.920 157.867 64.213 C 157.867 54.475,157.916 46.507,157.975 46.507 C 158.035 46.507,166.050 54.475,175.787 64.213 M57.242 146.349 C 51.463 147.163,46.947 149.249,43.514 152.690 C 38.230 157.986,36.519 166.317,39.445 172.502 C 41.613 177.085,46.780 180.591,55.467 183.373 C 57.696 184.087,61.440 185.287,63.787 186.039 C 71.850 188.624,73.813 190.141,73.813 193.785 C 73.813 197.526,71.714 200.004,67.508 201.226 C 64.558 202.084,55.106 201.824,50.837 200.767 C 45.919 199.550,42.676 201.456,42.359 205.751 C 42.162 208.413,43.140 210.334,45.246 211.423 C 49.803 213.780,63.830 214.652,70.107 212.968 C 79.055 210.569,84.571 204.697,85.756 196.310 C 86.773 189.110,84.250 183.515,78.161 179.467 C 74.775 177.216,70.374 175.432,60.778 172.420 C 51.229 169.422,49.352 167.961,50.339 164.295 C 51.003 161.828,52.605 160.178,55.378 159.106 C 58.603 157.859,66.179 157.769,72.166 158.907 C 76.177 159.670,76.318 159.670,77.920 158.885 C 82.302 156.737,82.713 150.442,78.609 148.320 C 75.438 146.680,63.020 145.534,57.242 146.349 M100.823 146.755 C 98.907 147.923,97.986 149.518,98.021 151.607 C 98.040 152.795,101.473 162.959,108.347 182.187 C 117.623 208.130,118.788 211.122,120.088 212.348 C 122.050 214.197,124.043 214.526,126.395 213.387 C 127.405 212.898,128.549 211.962,128.936 211.306 C 130.417 208.800,149.760 153.786,149.758 152.086 C 149.755 148.883,147.085 146.345,143.722 146.348 C 142.066 146.350,139.841 147.582,138.943 148.993 C 138.600 149.532,135.208 158.709,131.406 169.387 C 127.604 180.064,124.357 189.049,124.192 189.353 C 124.021 189.666,120.777 181.149,116.717 169.727 C 112.771 158.628,109.269 149.106,108.935 148.566 C 108.015 147.083,105.802 145.923,103.893 145.923 C 102.953 145.923,101.575 146.296,100.823 146.755 M188.373 146.347 C 178.711 147.801,170.367 154.179,165.770 163.627 C 163.057 169.202,162.349 172.601,162.349 180.053 C 162.349 185.678,162.495 187.172,163.326 190.044 C 166.378 200.594,173.731 209.011,182.760 212.288 C 192.472 215.814,203.461 213.466,210.995 206.258 C 214.094 203.293,214.276 202.424,214.110 191.417 C 213.987 183.333,213.886 182.256,213.129 181.004 C 211.735 178.698,209.516 177.920,204.345 177.922 C 201.897 177.924,199.210 178.114,198.376 178.346 C 196.040 178.995,194.477 180.896,194.238 183.376 C 193.876 187.145,196.288 189.862,200.000 189.865 L 201.813 189.867 201.813 194.102 C 201.813 198.149,201.764 198.377,200.711 199.205 C 198.788 200.718,194.993 201.885,192.000 201.885 C 179.913 201.885,171.316 187.583,174.924 173.476 C 176.054 169.059,177.611 166.278,180.689 163.179 C 186.128 157.704,192.774 156.669,199.649 160.227 C 202.878 161.898,204.759 162.079,206.907 160.927 C 210.212 159.155,210.893 154.445,208.240 151.707 C 206.345 149.752,200.827 147.257,196.819 146.543 C 193.190 145.896,191.618 145.859,188.373 146.347 " stroke="none" fill-rule="evenodd"></path></svg>