<svg fill="currentColor" viewBox="0 0 256 256" xmlns="http://www.w3.org/2000/svg"><path d="M52.667 26.427 C 50.540 26.936,46.971 29.071,45.560 30.678 C 44.838 31.501,43.747 33.239,43.136 34.541 L 42.027 36.907 42.027 75.382 C 42.027 113.576,42.033 113.866,42.906 115.036 C 45.840 118.965,50.160 118.965,53.094 115.036 C 53.964 113.870,53.975 113.475,54.089 76.482 C 54.171 50.063,54.343 38.939,54.675 38.539 C 55.060 38.076,63.344 37.973,100.532 37.973 L 145.920 37.973 145.920 63.374 C 145.920 90.864,145.884 90.407,148.246 92.587 L 149.402 93.653 175.579 93.770 L 201.757 93.886 201.892 103.873 C 202.017 113.178,202.087 113.940,202.906 115.037 C 205.842 118.965,210.159 118.965,213.094 115.037 C 213.929 113.919,213.980 113.213,214.103 101.115 C 214.190 92.571,214.074 87.764,213.749 86.532 C 213.316 84.887,210.318 81.737,185.246 56.592 C 169.835 41.136,156.373 27.936,155.330 27.258 L 153.433 26.027 103.703 26.070 C 76.352 26.094,53.385 26.255,52.667 26.427 M175.787 64.213 L 193.489 81.920 175.678 81.920 L 157.867 81.920 157.867 64.213 C 157.867 54.475,157.916 46.507,157.975 46.507 C 158.035 46.507,166.050 54.475,175.787 64.213 M60.373 146.331 C 50.612 147.873,42.359 154.188,37.772 163.627 C 33.397 172.628,32.923 184.531,36.575 193.685 C 39.640 201.365,45.297 207.783,51.840 211.002 C 61.492 215.750,72.211 214.646,80.996 207.999 C 84.800 205.120,85.929 203.293,85.656 200.456 C 85.477 198.595,85.199 198.015,83.916 196.840 C 81.078 194.239,78.461 194.404,75.002 197.401 C 67.840 203.609,58.980 203.371,52.548 196.797 C 46.964 191.090,44.758 181.944,46.924 173.476 C 48.054 169.059,49.611 166.278,52.689 163.179 C 59.237 156.588,67.700 156.423,75.103 162.742 C 77.624 164.894,79.430 165.445,81.608 164.726 C 85.030 163.597,86.791 159.392,85.162 156.242 C 83.549 153.121,76.217 148.362,71.003 147.052 C 67.712 146.225,63.050 145.909,60.373 146.331 M121.626 146.355 C 110.867 147.860,104.141 153.491,102.382 162.466 C 100.511 172.016,105.681 178.814,117.973 182.966 C 119.381 183.442,123.125 184.631,126.293 185.609 C 135.668 188.502,137.813 190.030,137.813 193.813 C 137.813 197.704,135.607 200.162,131.019 201.384 C 128.413 202.077,121.228 201.976,117.120 201.188 C 112.627 200.326,111.003 200.364,109.354 201.369 C 105.242 203.877,106.076 210.561,110.684 212.025 C 117.015 214.036,128.399 214.493,134.107 212.966 C 143.050 210.574,148.571 204.698,149.756 196.310 C 150.767 189.152,148.210 183.481,142.166 179.477 C 138.512 177.056,135.669 175.879,127.537 173.418 C 120.032 171.147,115.804 169.248,114.636 167.623 C 113.989 166.724,113.891 166.129,114.143 164.638 C 114.587 162.010,116.817 159.871,120.112 158.913 C 123.437 157.947,130.354 157.967,136.191 158.961 C 140.532 159.701,140.683 159.699,142.321 158.900 C 144.524 157.824,146.111 154.838,145.685 152.568 C 145.342 150.740,144.151 149.117,142.539 148.283 C 139.596 146.761,127.014 145.601,121.626 146.355 M164.823 146.755 C 162.907 147.923,161.986 149.518,162.021 151.607 C 162.065 154.301,182.311 210.602,183.798 212.167 C 186.061 214.548,189.845 214.525,192.153 212.116 C 193.060 211.170,195.647 204.407,203.619 182.140 C 210.150 163.900,213.906 152.821,213.893 151.841 C 213.864 149.682,212.593 147.758,210.541 146.764 C 208.348 145.702,207.642 145.707,205.387 146.799 C 204.064 147.439,203.343 148.163,202.728 149.466 C 202.265 150.449,198.871 159.701,195.187 170.027 C 191.502 180.352,188.356 189.045,188.194 189.344 C 188.033 189.643,184.669 180.811,180.720 169.717 C 176.770 158.623,173.266 149.106,172.933 148.566 C 172.017 147.084,169.803 145.923,167.893 145.923 C 166.953 145.923,165.575 146.296,164.823 146.755 " stroke="none" fill-rule="evenodd"></path></svg>