<svg fill="currentColor" viewBox="0 0 256 256" xmlns="http://www.w3.org/2000/svg"><path d="M52.667 26.427 C 50.540 26.936,46.971 29.071,45.560 30.678 C 44.838 31.501,43.747 33.239,43.136 34.541 L 42.027 36.907 42.027 75.382 C 42.027 113.576,42.033 113.866,42.906 115.036 C 45.840 118.965,50.160 118.965,53.094 115.036 C 53.964 113.870,53.975 113.475,54.089 76.482 C 54.171 50.063,54.343 38.939,54.675 38.539 C 55.060 38.076,63.344 37.973,100.532 37.973 L 145.920 37.973 145.920 63.374 C 145.920 90.864,145.884 90.407,148.246 92.587 L 149.402 93.653 175.579 93.770 L 201.757 93.886 201.892 103.873 C 202.017 113.178,202.087 113.940,202.906 115.037 C 205.842 118.965,210.159 118.965,213.094 115.037 C 213.929 113.919,213.980 113.213,214.103 101.115 C 214.190 92.571,214.074 87.764,213.749 86.532 C 213.316 84.887,210.318 81.737,185.246 56.592 C 169.835 41.136,156.373 27.936,155.330 27.258 L 153.433 26.027 103.703 26.070 C 76.352 26.094,53.385 26.255,52.667 26.427 M175.787 64.213 L 193.489 81.920 175.678 81.920 L 157.867 81.920 157.867 64.213 C 157.867 54.475,157.916 46.507,157.975 46.507 C 158.035 46.507,166.050 54.475,175.787 64.213 M42.453 146.209 C 40.910 146.638,39.167 148.156,38.565 149.596 C 38.080 150.757,37.973 156.262,37.973 180.082 C 37.973 211.578,37.938 211.080,40.269 212.719 C 42.181 214.063,44.233 214.289,46.287 213.380 C 49.453 211.980,49.917 210.761,49.918 203.840 L 49.920 197.973 56.465 197.973 C 66.638 197.973,71.944 196.216,77.532 190.995 C 83.070 185.820,85.818 179.676,85.859 172.373 C 85.873 169.817,85.610 167.295,85.145 165.547 C 82.819 156.801,75.983 149.807,66.987 146.969 C 65.078 146.366,62.651 146.205,53.973 146.101 C 48.107 146.030,42.923 146.079,42.453 146.209 M105.400 146.688 C 104.587 147.134,103.531 148.022,103.054 148.661 C 102.205 149.798,102.184 150.434,102.062 178.911 C 101.993 194.910,102.048 208.610,102.182 209.356 C 102.522 211.236,104.466 213.167,106.595 213.741 C 108.125 214.153,108.655 214.102,110.262 213.391 C 113.826 211.815,113.679 212.736,113.920 190.545 L 114.133 170.918 128.924 191.627 C 137.059 203.016,144.183 212.642,144.755 213.017 C 146.632 214.246,148.508 214.320,150.582 213.245 C 154.220 211.360,154.027 213.220,154.027 180.153 C 154.027 156.272,153.920 150.757,153.435 149.596 C 151.685 145.408,145.573 144.931,143.046 148.787 C 142.363 149.829,142.274 151.746,142.080 169.517 L 141.867 189.100 127.147 168.508 C 119.051 157.183,111.947 147.569,111.360 147.143 C 109.681 145.927,107.140 145.732,105.400 146.688 M196.053 146.363 C 183.945 148.210,173.803 158.529,170.834 172.022 C 169.831 176.580,169.928 184.480,171.039 188.690 C 172.142 192.873,173.598 196.482,175.422 199.558 C 177.354 202.816,182.677 208.066,186.047 210.038 C 196.686 216.263,209.670 214.848,218.590 206.492 L 221.653 203.623 221.653 192.506 L 221.653 181.389 220.398 180.079 C 218.743 178.352,217.014 177.925,211.655 177.922 C 208.087 177.920,206.856 178.088,205.459 178.764 C 203.317 179.801,202.098 181.755,202.098 184.153 C 202.098 187.387,204.701 189.862,208.107 189.865 L 209.920 189.867 209.920 194.127 L 209.920 198.388 208.320 199.444 C 205.074 201.586,200.208 202.465,196.480 201.581 C 191.885 200.492,187.028 196.178,184.574 191.004 C 182.771 187.205,182.187 184.457,182.187 179.774 C 182.187 173.282,184.306 167.714,188.417 163.404 C 193.789 157.772,200.793 156.624,207.766 160.232 C 210.858 161.832,212.695 162.059,214.597 161.075 C 218.427 159.095,219.053 153.978,215.801 151.241 C 211.311 147.463,202.735 145.344,196.053 146.363 M64.958 158.929 C 67.585 159.867,71.000 162.962,72.444 165.714 C 73.449 167.629,73.588 168.384,73.594 171.947 C 73.599 175.328,73.437 176.332,72.614 178.002 C 71.242 180.788,68.621 183.347,65.773 184.682 C 63.540 185.729,62.857 185.824,56.640 185.957 L 49.920 186.102 49.920 171.927 L 49.920 157.752 56.427 157.980 C 60.965 158.138,63.546 158.425,64.958 158.929 " stroke="none" fill-rule="evenodd"></path></svg>