<svg fill="currentColor" viewBox="0 0 256 256" xmlns="http://www.w3.org/2000/svg"><path d="M52.667 26.427 C 50.540 26.936,46.971 29.071,45.560 30.678 C 44.838 31.501,43.747 33.239,43.136 34.541 L 42.027 36.907 42.027 75.382 C 42.027 113.576,42.033 113.866,42.906 115.036 C 45.840 118.965,50.160 118.965,53.094 115.036 C 53.964 113.870,53.975 113.475,54.089 76.482 C 54.171 50.063,54.343 38.939,54.675 38.539 C 55.060 38.076,63.344 37.973,100.532 37.973 L 145.920 37.973 145.920 63.374 C 145.920 90.864,145.884 90.407,148.246 92.587 L 149.402 93.653 175.608 93.770 L 201.813 93.886 201.813 155.444 C 201.813 202.754,201.695 217.121,201.301 217.515 C 200.936 217.880,198.224 218.027,191.808 218.027 C 181.927 218.028,180.825 218.261,179.017 220.725 C 177.812 222.368,177.812 225.632,179.017 227.275 C 180.845 229.767,181.864 229.972,192.456 229.973 C 203.417 229.973,205.004 229.686,208.427 227.085 C 211.027 225.108,213.044 221.867,213.698 218.612 C 214.371 215.262,214.392 88.885,213.721 86.400 C 213.325 84.936,209.270 80.692,185.243 56.592 C 169.834 41.136,156.373 27.936,155.330 27.258 L 153.433 26.027 103.703 26.070 C 76.352 26.094,53.385 26.255,52.667 26.427 M175.787 64.213 L 193.489 81.920 175.678 81.920 L 157.867 81.920 157.867 64.213 C 157.867 54.475,157.916 46.507,157.975 46.507 C 158.035 46.507,166.050 54.475,175.787 64.213 M45.426 146.772 C 44.480 147.241,43.328 148.249,42.866 149.012 C 42.053 150.357,42.027 151.319,42.027 180.129 C 42.027 209.489,42.038 209.872,42.906 211.036 C 45.840 214.965,50.158 214.965,53.094 211.037 C 53.862 210.007,53.992 209.115,54.120 203.957 L 54.267 198.055 61.800 197.878 C 65.943 197.781,69.637 197.562,70.009 197.392 C 70.542 197.148,71.478 198.459,74.447 203.608 C 79.302 212.027,79.807 212.681,82.126 213.567 C 83.948 214.262,84.158 214.262,85.968 213.571 C 88.572 212.577,89.818 210.765,89.798 208.000 C 89.785 206.100,89.384 205.191,86.127 199.680 C 84.117 196.277,82.245 193.061,81.967 192.533 C 81.515 191.672,81.693 191.296,83.676 188.914 C 92.541 178.261,91.943 163.426,82.255 153.687 C 78.144 149.554,73.433 147.208,67.530 146.355 C 65.940 146.125,60.704 145.933,55.893 145.929 C 48.002 145.921,46.978 146.004,45.426 146.772 M125.016 146.390 C 114.332 148.032,107.659 154.083,106.206 163.447 C 105.868 165.622,105.882 167.025,106.258 168.846 C 107.821 176.423,113.042 180.285,127.787 184.771 C 135.613 187.153,139.121 188.697,140.800 190.500 C 141.683 191.448,141.857 192.039,141.812 193.928 C 141.671 199.825,137.459 202.095,127.388 201.702 C 124.322 201.582,120.551 201.178,119.009 200.804 C 116.024 200.079,114.382 200.280,112.339 201.618 C 111.157 202.393,110.080 204.635,110.080 206.322 C 110.080 207.901,111.300 210.288,112.513 211.083 C 114.048 212.088,119.497 213.273,124.942 213.786 C 140.262 215.228,150.912 209.335,153.436 198.018 C 154.926 191.336,153.238 185.494,148.630 181.387 C 144.741 177.921,141.142 176.317,127.917 172.155 C 124.062 170.941,120.981 169.699,119.917 168.928 C 118.305 167.760,118.187 167.533,118.187 165.607 C 118.187 158.963,126.742 156.408,140.310 159.001 C 143.148 159.544,144.206 159.583,145.505 159.193 C 148.362 158.338,150.300 154.958,149.580 152.089 C 149.430 151.489,148.689 150.328,147.933 149.510 C 146.721 148.196,146.084 147.923,142.507 147.188 C 137.686 146.196,128.889 145.795,125.016 146.390 M69.627 159.244 C 72.673 160.639,75.301 163.266,76.722 166.337 C 77.608 168.252,77.838 169.408,77.846 171.967 C 77.854 174.755,77.668 175.569,76.456 178.029 C 74.932 181.126,72.784 183.254,69.605 184.818 C 67.855 185.678,66.851 185.809,60.907 185.946 L 54.187 186.102 54.187 171.927 L 54.187 157.752 60.711 157.951 C 66.569 158.129,67.479 158.261,69.627 159.244 " stroke="none" fill-rule="evenodd"></path></svg>