<svg fill="currentColor" viewBox="0 0 256 256" xmlns="http://www.w3.org/2000/svg"><path d="M52.667 26.427 C 50.540 26.936,46.971 29.071,45.560 30.678 C 44.838 31.501,43.747 33.239,43.136 34.541 L 42.027 36.907 42.027 83.200 C 42.027 128.978,42.036 129.510,42.895 130.987 C 45.173 134.907,51.049 134.844,53.218 130.876 C 53.925 129.581,53.981 126.613,54.088 84.301 C 54.169 52.103,54.337 38.946,54.673 38.541 C 55.060 38.075,63.271 37.973,100.532 37.973 L 145.920 37.973 145.920 63.374 C 145.920 90.864,145.884 90.407,148.246 92.587 L 149.402 93.653 175.608 93.770 L 201.813 93.886 201.813 155.444 C 201.813 202.754,201.695 217.121,201.301 217.515 C 200.925 217.891,197.323 218.027,187.755 218.027 C 172.686 218.028,172.450 218.076,170.747 221.508 C 169.900 223.215,169.823 223.729,170.203 225.135 C 170.813 227.394,171.805 228.678,173.482 229.378 C 175.613 230.269,201.210 230.237,204.189 229.340 C 208.780 227.958,212.712 223.523,213.698 218.612 C 214.371 215.262,214.392 88.885,213.721 86.400 C 213.325 84.936,209.270 80.692,185.243 56.592 C 169.834 41.136,156.373 27.936,155.330 27.258 L 153.433 26.027 103.703 26.070 C 76.352 26.094,53.385 26.255,52.667 26.427 M175.787 64.213 L 193.489 81.920 175.678 81.920 L 157.867 81.920 157.867 64.213 C 157.867 54.475,157.916 46.507,157.975 46.507 C 158.035 46.507,166.050 54.475,175.787 64.213 M100.480 130.606 C 96.593 131.166,90.683 132.971,86.842 134.771 C 81.417 137.314,77.357 140.208,72.726 144.836 C 68.127 149.431,64.828 154.080,62.647 159.040 L 61.286 162.133 58.785 162.133 C 50.507 162.133,41.460 166.227,35.294 172.763 C 31.783 176.485,29.444 180.419,27.664 185.600 C 26.354 189.411,26.270 190.011,26.259 195.627 C 26.245 202.373,26.802 205.126,29.216 210.237 C 32.845 217.923,38.061 223.149,45.691 226.748 C 52.239 229.837,50.850 229.718,82.347 229.886 C 112.681 230.047,115.288 229.921,122.024 227.976 C 134.731 224.307,146.128 214.956,152.255 203.170 C 160.776 186.781,159.615 167.034,149.232 151.744 C 146.945 148.376,141.356 142.571,137.827 139.897 C 134.415 137.312,126.884 133.458,122.990 132.303 C 116.228 130.298,107.294 129.624,100.480 130.606 M113.920 142.524 C 128.428 144.813,140.100 155.184,144.488 169.687 C 145.498 173.026,145.624 174.145,145.630 179.840 C 145.635 185.023,145.467 186.856,144.746 189.480 C 140.734 204.082,129.037 214.850,114.420 217.399 C 109.092 218.328,59.070 218.310,55.115 217.378 C 50.878 216.379,47.858 214.696,44.693 211.572 C 39.934 206.873,37.597 200.742,38.125 194.347 C 38.965 184.180,46.548 175.971,56.641 174.304 C 58.198 174.047,58.418 174.101,58.194 174.686 C 57.722 175.917,58.473 178.339,59.793 179.843 C 63.340 183.883,69.439 181.828,70.199 176.338 C 71.189 169.179,73.049 163.978,76.407 158.977 C 84.679 146.656,99.344 140.224,113.920 142.524 " stroke="none" fill-rule="evenodd"></path></svg>