<svg fill="currentColor" viewBox="0 0 256 256" xmlns="http://www.w3.org/2000/svg"><path d="M52.667 26.427 C 50.540 26.936,46.971 29.071,45.560 30.678 C 44.838 31.501,43.747 33.239,43.136 34.541 L 42.027 36.907 42.027 87.253 C 42.027 136.660,42.042 137.626,42.871 138.996 C 43.719 140.399,46.515 142.080,48.000 142.080 C 49.485 142.080,52.281 140.399,53.129 138.996 C 53.955 137.630,53.976 136.559,54.087 88.355 C 54.168 53.161,54.335 38.948,54.673 38.542 C 55.060 38.075,63.242 37.973,100.532 37.973 L 145.920 37.973 145.920 63.374 C 145.920 90.864,145.884 90.407,148.246 92.587 L 149.402 93.653 175.608 93.770 L 201.813 93.886 201.813 155.444 C 201.813 202.754,201.695 217.121,201.301 217.515 C 200.960 217.856,199.076 218.027,195.648 218.028 C 191.271 218.030,190.300 218.156,189.116 218.878 C 185.091 221.332,185.091 226.668,189.116 229.122 C 190.323 229.858,191.272 229.970,196.296 229.972 C 200.189 229.973,202.774 229.766,204.189 229.340 C 208.780 227.958,212.712 223.523,213.698 218.612 C 214.371 215.262,214.392 88.885,213.721 86.400 C 213.325 84.936,209.270 80.692,185.243 56.592 C 169.834 41.136,156.373 27.936,155.330 27.258 L 153.433 26.027 103.703 26.070 C 76.352 26.094,53.385 26.255,52.667 26.427 M175.787 64.213 L 193.489 81.920 175.678 81.920 L 157.867 81.920 157.867 64.213 C 157.867 54.475,157.916 46.507,157.975 46.507 C 158.035 46.507,166.050 54.475,175.787 64.213 M101.974 146.380 C 101.387 146.625,100.496 147.210,99.995 147.682 C 99.493 148.153,94.038 156.110,87.874 165.363 C 81.709 174.616,76.552 182.177,76.413 182.165 C 76.274 182.153,73.566 178.079,70.396 173.112 C 66.504 167.016,64.162 163.765,63.186 163.107 C 61.392 161.898,58.743 161.830,56.913 162.945 C 55.948 163.534,50.560 171.573,37.133 192.456 C 26.983 208.242,18.487 221.706,18.254 222.376 C 17.707 223.945,18.132 226.172,19.249 227.592 C 21.248 230.133,16.650 229.973,87.914 229.973 C 147.038 229.973,153.395 229.908,154.702 229.288 C 156.667 228.356,157.867 226.293,157.867 223.848 C 157.867 221.954,156.903 220.432,133.180 184.841 C 119.603 164.470,108.000 147.480,107.397 147.085 C 105.981 146.158,103.333 145.813,101.974 146.380 M122.453 190.507 L 140.803 218.027 87.898 218.027 L 34.992 218.027 36.840 215.147 C 47.108 199.142,58.335 181.702,59.098 180.573 L 60.044 179.173 65.969 188.430 C 69.841 194.479,72.337 197.957,73.173 198.468 C 74.785 199.453,77.775 199.482,79.391 198.527 C 80.195 198.052,84.627 191.787,92.217 180.394 C 98.596 170.820,103.880 162.987,103.959 162.987 C 104.038 162.987,112.361 175.371,122.453 190.507 " stroke="none" fill-rule="evenodd"></path></svg>