<svg fill="currentColor" viewBox="0 0 256 256" xmlns="http://www.w3.org/2000/svg"><path d="M35.286 42.853 C 32.739 43.765,30.421 45.492,28.799 47.686 C 25.816 51.724,26.005 45.960,26.129 128.872 L 26.240 203.733 27.202 205.686 C 28.766 208.858,30.933 211.041,34.036 212.569 L 36.889 213.973 128.000 213.973 L 219.111 213.973 221.964 212.569 C 225.066 211.042,227.185 208.908,228.776 205.711 L 229.760 203.733 229.760 128.000 L 229.760 52.267 228.776 50.289 C 227.336 47.394,225.251 45.155,222.660 43.720 L 220.373 42.453 128.640 42.363 C 52.229 42.288,36.636 42.370,35.286 42.853 M73.813 64.213 L 73.813 74.240 55.893 74.240 L 37.973 74.240 37.973 64.725 C 37.973 57.894,38.118 55.066,38.485 54.699 C 38.867 54.317,43.435 54.187,56.405 54.187 L 73.813 54.187 73.813 64.213 M122.027 64.213 L 122.027 74.240 104.107 74.240 L 86.187 74.240 86.187 64.213 L 86.187 54.187 104.107 54.187 L 122.027 54.187 122.027 64.213 M169.813 64.213 L 169.813 74.240 151.893 74.240 L 133.973 74.240 133.973 64.213 L 133.973 54.187 151.893 54.187 L 169.813 54.187 169.813 64.213 M217.515 54.699 C 217.882 55.066,218.027 57.894,218.027 64.725 L 218.027 74.240 200.107 74.240 L 182.187 74.240 182.187 64.213 L 182.187 54.187 199.595 54.187 C 212.565 54.187,217.133 54.317,217.515 54.699 M122.027 128.213 L 122.027 170.240 80.000 170.240 L 37.973 170.240 37.973 128.213 L 37.973 86.187 80.000 86.187 L 122.027 86.187 122.027 128.213 M218.027 128.213 L 218.027 170.240 176.000 170.240 L 133.973 170.240 133.973 128.213 L 133.973 86.187 176.000 86.187 L 218.027 86.187 218.027 128.213 M73.813 192.213 L 73.813 202.240 57.067 202.234 C 44.427 202.229,40.058 202.095,39.253 201.688 L 38.187 201.149 38.072 191.668 L 37.957 182.187 55.885 182.187 L 73.813 182.187 73.813 192.213 M122.027 192.213 L 122.027 202.240 104.107 202.240 L 86.187 202.240 86.187 192.213 L 86.187 182.187 104.107 182.187 L 122.027 182.187 122.027 192.213 M169.813 192.213 L 169.813 202.240 151.893 202.240 L 133.973 202.240 133.973 192.213 L 133.973 182.187 151.893 182.187 L 169.813 182.187 169.813 192.213 M217.928 191.668 L 217.813 201.149 216.747 201.688 C 215.942 202.095,211.573 202.229,198.933 202.234 L 182.187 202.240 182.187 192.213 L 182.187 182.187 200.115 182.187 L 218.043 182.187 217.928 191.668 " stroke="none" fill-rule="evenodd"></path></svg>