<svg fill="currentColor" viewBox="0 0 256 256" xmlns="http://www.w3.org/2000/svg"><path d="M118.613 26.459 C 105.589 27.816,94.890 30.855,83.413 36.457 C 72.957 41.560,65.363 46.920,56.805 55.236 C 44.690 67.009,36.164 80.719,30.981 96.761 C 27.723 106.847,26.594 113.781,26.022 127.222 C 25.474 140.092,24.653 145.500,21.775 155.186 C 20.284 160.207,20.233 160.843,21.165 162.809 C 22.567 165.762,26.817 166.919,29.733 165.141 C 31.498 164.065,31.765 163.517,33.775 156.855 C 36.337 148.364,37.510 140.603,37.973 129.067 C 38.568 114.244,39.978 106.302,43.807 96.213 C 51.769 75.235,67.526 57.787,87.680 47.630 C 115.995 33.360,150.211 35.178,176.627 52.355 C 197.424 65.879,211.478 86.575,216.269 110.734 C 219.154 125.281,218.154 151.073,213.716 176.640 C 212.260 185.024,212.348 186.203,214.594 188.355 C 217.197 190.848,222.126 190.092,223.750 186.951 C 224.550 185.404,226.691 173.228,227.813 163.840 C 229.379 150.744,229.730 144.890,229.745 131.627 C 229.757 120.888,229.615 117.483,228.988 113.526 C 224.247 83.603,208.329 58.913,183.040 42.254 C 177.765 38.779,167.473 33.766,161.280 31.655 C 155.481 29.679,148.709 28.035,142.507 27.099 C 137.154 26.291,123.685 25.930,118.613 26.459 M120.448 58.445 C 114.254 59.151,111.858 64.887,116.072 68.924 L 117.389 70.187 126.215 70.228 C 138.008 70.284,144.272 71.575,152.960 75.741 C 172.569 85.143,184.709 103.624,185.875 125.852 C 186.163 131.333,185.483 145.658,184.519 154.402 C 183.691 161.921,184.196 163.741,187.599 165.493 C 189.914 166.686,193.530 165.557,194.997 163.184 C 196.634 160.535,198.245 139.886,197.841 126.720 C 197.495 115.435,195.503 106.992,190.944 97.492 C 184.499 84.065,172.282 71.816,158.711 65.176 C 147.083 59.487,133.019 57.013,120.448 58.445 M84.457 73.355 C 81.447 75.376,75.260 81.762,71.628 86.598 C 67.683 91.849,63.425 100.140,61.431 106.453 C 59.155 113.656,58.486 118.012,58.027 128.593 C 57.542 139.764,57.109 143.912,55.623 151.616 C 53.798 161.082,51.489 168.302,47.157 178.092 C 44.692 183.662,44.335 185.597,45.396 187.649 C 47.143 191.027,51.759 191.909,54.471 189.382 C 57.741 186.334,64.388 168.542,67.159 155.421 C 68.806 147.619,69.541 141.095,69.960 130.557 C 70.381 119.959,71.176 114.920,73.438 108.506 C 76.703 99.250,81.005 92.855,89.458 84.693 L 93.876 80.427 93.870 78.293 C 93.854 73.056,88.827 70.419,84.457 73.355 M121.319 90.629 C 113.399 92.142,107.627 95.113,101.819 100.667 C 94.768 107.410,90.663 116.144,90.177 125.440 C 89.990 129.020,90.068 129.656,90.845 130.884 C 93.364 134.862,98.670 134.912,101.061 130.980 C 101.554 130.171,101.944 128.452,102.104 126.390 C 102.949 115.482,110.134 106.417,120.533 103.137 C 124.719 101.817,131.281 101.817,135.467 103.137 C 143.643 105.716,150.259 112.279,152.788 120.320 C 153.981 124.111,154.215 129.263,153.643 139.093 C 152.009 167.179,146.407 190.952,135.626 215.545 C 134.013 219.225,132.693 222.735,132.693 223.345 C 132.693 226.644,135.410 229.333,138.742 229.333 C 142.484 229.333,143.619 227.797,148.488 216.147 C 159.676 189.376,165.684 160.225,165.734 132.480 C 165.753 121.544,165.737 121.334,164.580 117.633 C 162.396 110.652,159.243 105.507,154.181 100.667 C 149.162 95.868,144.011 92.954,137.600 91.285 C 133.200 90.141,125.499 89.830,121.319 90.629 M125.116 122.878 C 122.501 124.472,122.183 125.524,121.856 133.664 C 120.675 163.008,113.487 190.373,100.611 214.547 C 98.236 219.007,98.049 219.555,98.236 221.505 C 98.739 226.735,105.181 228.822,108.532 224.840 C 109.954 223.150,116.688 209.391,119.384 202.667 C 128.364 180.273,133.171 157.603,133.816 134.613 C 134.031 126.932,133.997 126.434,133.159 125.116 C 132.008 123.307,129.873 122.030,128.000 122.030 C 127.179 122.030,125.881 122.411,125.116 122.878 M90.097 154.724 C 89.314 155.123,88.377 155.900,88.016 156.452 C 87.654 157.004,86.440 161.052,85.318 165.447 C 82.030 178.324,78.979 186.365,72.675 198.763 C 68.595 206.786,68.194 208.149,69.293 210.261 C 70.554 212.685,71.965 213.547,74.673 213.547 C 76.866 213.547,77.334 213.391,78.510 212.267 C 81.024 209.865,87.565 196.600,91.660 185.600 C 93.976 179.378,96.658 170.350,98.141 163.782 L 99.069 159.670 98.215 157.738 C 97.744 156.675,96.859 155.477,96.247 155.076 C 94.629 154.016,91.804 153.854,90.097 154.724 M181.037 186.861 C 179.073 188.058,178.585 189.024,176.892 195.066 C 176.057 198.043,174.774 202.351,174.042 204.639 C 172.378 209.832,172.500 211.526,174.696 213.721 C 176.117 215.142,176.415 215.253,178.813 215.253 C 181.247 215.253,181.483 215.161,182.837 213.685 C 183.947 212.473,184.665 210.871,185.992 206.645 C 188.858 197.518,189.978 192.842,189.733 191.020 C 189.205 187.080,184.426 184.794,181.037 186.861 " stroke="none" fill-rule="evenodd"></path></svg>