<svg fill="currentColor" viewBox="0 0 256 256" xmlns="http://www.w3.org/2000/svg"><path d="M120.747 26.275 C 119.925 26.371,117.429 26.657,115.200 26.911 C 107.574 27.780,94.942 30.996,92.262 32.752 C 88.885 34.965,89.446 41.058,93.191 42.835 C 95.000 43.693,96.244 43.698,98.613 42.857 C 101.834 41.714,110.107 39.735,114.773 38.992 C 121.124 37.980,134.739 37.974,141.013 38.980 C 160.671 42.131,177.781 50.743,191.461 64.372 C 206.655 79.510,215.756 99.262,217.632 121.173 C 218.915 136.154,216.494 163.922,211.998 185.789 C 210.516 192.998,210.624 194.294,212.888 196.462 C 215.467 198.933,220.421 198.200,222.013 195.112 C 223.237 192.737,226.610 174.306,228.008 162.347 C 229.337 150.984,229.723 144.089,229.742 131.413 C 229.756 120.867,229.614 117.476,228.988 113.526 C 224.247 83.603,208.329 58.913,183.040 42.254 C 177.765 38.779,167.473 33.766,161.280 31.655 C 155.481 29.679,148.709 28.035,142.507 27.099 C 138.223 26.452,123.882 25.910,120.747 26.275 M61.079 51.358 C 59.508 52.230,52.303 59.558,48.860 63.787 C 39.156 75.704,31.780 91.026,28.409 106.268 C 27.008 112.601,26.027 121.022,26.026 126.717 C 26.025 139.293,24.004 149.895,19.321 161.891 C 16.811 168.320,16.696 169.538,18.396 171.699 C 20.307 174.128,23.793 174.788,26.381 173.210 C 28.042 172.198,30.132 168.003,32.558 160.809 C 36.096 150.316,37.418 142.543,37.966 129.015 C 38.673 111.522,41.030 101.306,47.308 88.518 C 52.036 78.886,57.299 71.524,64.925 63.872 C 70.093 58.685,70.683 57.051,68.713 53.370 C 67.518 51.138,63.423 50.059,61.079 51.358 M117.547 75.085 C 100.993 78.418,86.232 89.865,79.345 104.711 C 75.464 113.076,74.376 118.373,73.819 131.627 C 72.854 154.586,68.580 171.343,58.614 191.247 C 55.831 196.805,55.554 197.874,56.348 199.972 C 57.825 203.870,62.516 205.073,65.722 202.375 C 68.005 200.454,74.155 187.429,77.791 176.815 C 83.000 161.608,85.259 148.715,86.159 129.067 C 86.623 118.954,87.328 115.723,90.442 109.440 C 94.555 101.142,101.142 94.555,109.440 90.442 C 116.129 87.127,119.158 86.464,127.787 86.429 C 134.077 86.404,135.521 86.530,138.667 87.381 C 145.767 89.301,152.108 92.998,158.266 98.806 C 161.004 101.389,161.514 101.694,163.399 101.876 C 166.955 102.217,169.813 99.608,169.813 96.021 C 169.813 93.964,168.928 92.657,164.945 88.833 C 157.309 81.502,147.840 76.721,137.407 74.929 C 131.965 73.994,122.599 74.068,117.547 75.085 M125.143 122.861 C 122.459 124.498,122.300 125.096,121.741 135.687 C 121.027 149.221,119.513 160.306,116.877 171.307 C 116.427 173.184,116.058 175.412,116.056 176.257 C 116.052 178.454,117.589 180.506,119.984 181.498 C 121.899 182.291,122.047 182.295,123.915 181.581 C 126.750 180.499,127.439 179.208,129.069 171.937 C 131.935 159.146,133.434 147.389,133.801 134.827 C 134.032 126.915,134.001 126.438,133.159 125.116 C 131.308 122.206,127.825 121.226,125.143 122.861 M173.227 122.750 C 170.390 124.213,169.981 125.783,169.679 136.384 C 168.980 160.882,164.378 184.778,155.897 207.941 C 154.596 211.493,153.146 215.452,152.674 216.738 C 151.965 218.673,151.897 219.342,152.280 220.620 C 153.834 225.809,160.514 226.748,163.164 222.150 C 164.337 220.115,167.634 211.332,170.157 203.520 C 177.405 181.076,181.559 156.414,181.870 133.973 C 181.959 127.506,181.872 126.322,181.218 125.124 C 179.710 122.364,176.071 121.283,173.227 122.750 M107.208 203.084 C 105.272 204.264,98.133 218.409,98.133 221.065 C 98.133 225.381,102.336 228.109,106.360 226.406 C 108.393 225.545,108.902 224.803,112.860 216.934 C 116.717 209.265,117.114 207.690,115.819 205.187 C 114.374 202.392,110.067 201.341,107.208 203.084 " stroke="none" fill-rule="evenodd"></path></svg>