<svg fill="currentColor" viewBox="0 0 256 256" xmlns="http://www.w3.org/2000/svg"><path d="M135.857 18.526 C 135.133 18.842,134.171 19.570,133.718 20.146 C 133.265 20.722,127.636 35.616,121.208 53.246 L 109.522 85.298 96.251 72.367 C 88.953 65.255,82.368 59.119,81.618 58.731 C 79.802 57.792,77.745 57.844,76.059 58.872 C 73.717 60.300,65.236 72.430,59.498 82.560 C 44.575 108.903,38.832 137.403,43.711 160.911 C 52.090 201.289,87.100 229.973,128.000 229.973 C 177.783 229.973,217.170 187.655,213.778 137.813 C 211.761 108.183,198.379 79.401,172.587 49.216 C 163.760 38.887,144.004 19.977,140.494 18.498 C 138.789 17.780,137.553 17.788,135.857 18.526 M147.616 40.427 C 174.055 65.703,192.041 93.501,198.614 119.246 C 201.125 129.086,201.603 133.071,201.577 144.000 C 201.558 152.517,201.428 154.405,200.593 158.293 C 196.655 176.639,186.745 192.367,172.323 203.156 C 144.645 223.863,106.889 222.771,80.364 200.497 C 67.773 189.924,59.045 175.167,55.401 158.293 C 54.546 154.337,54.434 152.617,54.434 143.573 C 54.436 132.449,54.805 129.252,57.171 119.923 C 60.666 106.146,66.636 93.087,76.066 78.597 C 77.942 75.714,79.655 73.414,79.871 73.486 C 80.087 73.558,86.603 79.757,94.350 87.262 C 102.098 94.766,109.045 101.166,109.787 101.483 C 112.411 102.603,115.850 101.442,117.107 99.012 C 117.564 98.128,135.285 49.877,140.582 35.093 C 140.687 34.800,140.932 34.560,141.126 34.560 C 141.320 34.560,144.241 37.200,147.616 40.427 " stroke="none" fill-rule="evenodd"></path></svg>