<svg fill="currentColor" viewBox="0 0 256 256" xmlns="http://www.w3.org/2000/svg"><path d="M167.680 26.323 C 123.129 28.951,89.232 49.461,71.704 84.397 C 64.120 99.514,59.613 116.122,57.326 137.387 C 56.523 144.844,56.286 167.077,56.887 178.391 L 57.241 185.049 52.834 184.452 C 45.729 183.490,36.303 181.854,26.141 179.819 C 20.923 178.775,16.104 177.920,15.430 177.920 C 13.723 177.920,11.453 179.552,10.523 181.449 C 8.873 184.814,10.738 188.518,14.650 189.647 C 19.817 191.137,43.497 195.387,54.590 196.815 L 58.619 197.333 59.568 204.373 C 61.546 219.039,65.690 240.813,66.918 242.987 C 67.329 243.714,68.525 244.707,69.689 245.286 C 71.548 246.210,71.900 246.256,73.496 245.778 C 75.625 245.140,77.533 243.206,77.886 241.329 C 78.050 240.455,77.435 236.346,76.215 230.160 C 73.786 217.839,70.635 198.815,70.984 198.575 C 71.015 198.553,72.864 198.718,75.093 198.940 C 81.389 199.566,109.386 199.547,115.840 198.911 C 138.496 196.680,155.467 192.251,171.042 184.504 C 181.536 179.285,188.835 174.165,196.853 166.400 C 210.939 152.756,220.285 136.189,225.494 115.627 C 230.797 94.697,231.407 69.060,227.169 45.227 C 224.888 32.395,221.503 30.036,201.813 27.554 C 191.221 26.219,177.706 25.732,167.680 26.323 M196.286 39.024 C 205.271 39.975,213.016 41.367,213.818 42.176 C 214.597 42.962,216.363 53.048,217.227 61.653 C 217.891 68.256,217.892 86.694,217.230 93.013 C 216.079 103.996,213.626 115.186,210.526 123.588 C 208.479 129.137,204.077 138.046,201.284 142.293 L 199.040 145.707 196.693 145.840 C 190.643 146.184,176.530 143.387,168.107 140.174 C 139.574 129.293,118.042 104.077,111.987 74.453 C 110.841 68.843,109.763 58.614,110.199 57.479 C 110.907 55.634,123.850 48.658,132.382 45.522 C 142.503 41.802,155.008 39.268,167.467 38.414 C 174.519 37.930,188.803 38.233,196.286 39.024 M151.599 67.173 C 143.404 70.988,144.558 82.998,153.366 85.559 C 162.678 88.266,169.882 76.970,163.557 69.581 C 160.582 66.106,155.911 65.165,151.599 67.173 M99.837 74.939 C 103.955 97.587,116.510 119.065,134.400 134.069 C 149.175 146.459,167.340 154.454,186.969 157.205 L 188.978 157.487 186.215 159.992 C 170.044 174.646,147.220 183.593,118.187 186.660 C 105.932 187.954,83.364 187.925,71.836 186.599 L 69.645 186.347 69.412 184.160 C 69.284 182.958,68.938 176.855,68.643 170.600 C 67.591 148.307,69.636 127.293,74.511 110.293 C 79.069 94.399,85.903 81.349,95.360 70.479 L 98.347 67.046 98.659 68.616 C 98.832 69.480,99.361 72.325,99.837 74.939 " stroke="none" fill-rule="evenodd"></path></svg>