<svg fill="currentColor" viewBox="0 0 256 256" xmlns="http://www.w3.org/2000/svg"><path d="M85.364 26.774 C 83.164 27.896,82.133 29.563,82.133 32.000 C 82.133 34.437,83.164 36.104,85.364 37.226 C 86.538 37.825,87.941 37.972,92.480 37.973 L 98.133 37.973 98.133 67.593 L 98.133 97.212 66.922 149.193 C 49.756 177.782,35.356 202.087,34.922 203.205 C 32.290 209.981,36.036 218.416,42.803 220.948 L 45.259 221.867 128.000 221.867 L 210.741 221.867 213.209 220.943 C 216.462 219.726,219.740 216.426,220.975 213.124 C 222.111 210.088,222.154 205.975,221.078 203.205 C 220.644 202.087,206.244 177.782,189.078 149.193 L 157.867 97.212 157.867 67.593 L 157.867 37.973 163.520 37.973 C 168.059 37.972,169.462 37.825,170.636 37.226 C 172.836 36.104,173.867 34.437,173.867 32.000 C 173.867 29.563,172.836 27.896,170.636 26.774 C 169.273 26.079,166.356 26.028,128.000 26.028 C 89.644 26.028,86.727 26.079,85.364 26.774 M145.929 69.013 C 145.938 98.272,145.984 100.151,146.726 101.760 C 147.159 102.699,156.276 118.059,166.987 135.893 L 186.460 168.320 184.217 168.841 C 177.038 170.509,166.088 170.274,157.013 168.258 C 147.832 166.217,143.344 164.569,129.920 158.308 C 112.958 150.397,102.718 147.381,89.429 146.380 C 86.167 146.134,83.424 145.860,83.334 145.770 C 83.244 145.680,88.867 136.125,95.829 124.536 C 102.792 112.948,108.842 102.699,109.275 101.760 C 110.016 100.152,110.062 98.260,110.071 69.013 L 110.080 37.973 128.000 37.973 L 145.920 37.973 145.929 69.013 M92.587 158.771 C 97.665 159.343,106.418 161.533,112.000 163.627 C 114.347 164.507,120.491 167.196,125.653 169.602 C 136.232 174.531,142.289 176.862,149.376 178.730 C 163.760 182.520,175.714 182.980,188.094 180.219 C 190.756 179.625,192.982 179.201,193.040 179.276 C 194.286 180.889,209.920 207.640,209.920 208.158 C 209.920 208.564,209.690 209.126,209.408 209.408 C 208.663 210.153,47.337 210.153,46.592 209.408 C 46.310 209.126,46.080 208.564,46.080 208.158 C 46.080 207.517,74.118 160.063,75.161 158.939 C 76.009 158.025,85.189 157.936,92.587 158.771 " stroke="none" fill-rule="evenodd"></path></svg>