<svg fill="currentColor" viewBox="0 0 256 256" xmlns="http://www.w3.org/2000/svg"><path d="M87.467 34.530 C 86.880 34.710,85.632 35.258,84.693 35.747 C 82.234 37.028,36.645 82.838,35.346 85.333 L 34.347 87.253 34.234 148.982 L 34.122 210.711 35.047 213.182 C 36.293 216.512,39.482 219.705,42.803 220.948 L 45.259 221.867 128.000 221.867 L 210.741 221.867 213.138 220.970 C 216.379 219.757,219.757 216.379,220.970 213.138 L 221.867 210.741 221.867 128.000 C 221.867 45.292,221.866 45.258,220.981 42.891 C 219.902 40.008,216.957 36.857,213.973 35.393 L 211.840 34.347 150.187 34.274 C 116.277 34.235,88.053 34.350,87.467 34.530 M169.813 63.521 C 169.813 77.506,169.701 81.055,169.246 81.433 C 168.844 81.767,156.677 81.937,127.293 82.018 L 85.907 82.133 84.354 83.318 C 81.376 85.589,81.249 89.686,84.072 92.391 L 85.389 93.653 127.996 93.766 C 170.028 93.877,170.634 93.867,172.937 93.005 C 176.215 91.779,178.885 89.278,180.571 85.854 L 181.973 83.007 182.101 64.543 L 182.229 46.080 195.562 46.080 C 205.364 46.080,209.032 46.216,209.408 46.592 C 210.153 47.337,210.153 208.663,209.408 209.408 C 208.663 210.153,47.337 210.153,46.592 209.408 C 46.199 209.015,46.080 195.144,46.080 149.573 L 46.080 90.249 68.165 68.165 L 90.249 46.080 130.031 46.080 L 169.813 46.080 169.813 63.521 M122.906 114.356 C 108.832 116.319,96.712 126.275,92.127 139.638 C 85.015 160.367,96.728 182.589,117.973 188.674 C 120.872 189.504,122.384 189.651,128.000 189.651 C 133.616 189.651,135.128 189.504,138.027 188.674 C 152.505 184.527,163.177 172.511,165.573 157.659 C 166.260 153.401,165.854 146.237,164.689 142.080 C 160.918 128.619,149.999 118.142,136.471 115.007 C 132.937 114.187,126.372 113.873,122.906 114.356 M136.339 127.537 C 148.570 131.649,156.058 144.558,153.436 157.013 C 152.591 161.032,149.969 166.368,147.420 169.259 C 144.792 172.240,139.963 175.396,136.085 176.666 C 131.532 178.157,124.468 178.157,119.915 176.666 C 116.037 175.396,111.208 172.240,108.580 169.259 C 104.206 164.297,101.672 156.796,102.152 150.230 C 102.605 144.052,104.798 139.027,109.043 134.442 C 116.099 126.820,126.431 124.207,136.339 127.537 " stroke="none" fill-rule="evenodd"></path></svg>