<svg fill="currentColor" viewBox="0 0 256 256" xmlns="http://www.w3.org/2000/svg"><path d="M37.012 50.375 C 32.750 51.402,28.963 54.485,27.152 58.401 L 26.240 60.373 26.240 132.053 L 26.240 203.733 27.202 205.686 C 28.765 208.858,30.933 211.041,34.036 212.569 L 36.889 213.973 127.991 213.973 C 216.440 213.973,219.161 213.950,221.426 213.161 C 224.602 212.056,227.814 208.834,229.060 205.502 L 229.985 203.030 229.873 143.648 L 229.760 84.267 228.776 82.289 C 227.336 79.394,225.251 77.155,222.660 75.720 L 220.373 74.453 175.147 74.240 L 129.920 74.027 115.245 62.989 C 107.173 56.918,99.685 51.542,98.605 51.042 C 96.666 50.146,96.251 50.132,67.627 50.061 C 51.504 50.021,37.902 50.160,37.012 50.375 M109.103 73.287 C 117.502 79.569,125.141 84.989,126.080 85.332 C 127.528 85.861,134.533 85.975,172.341 86.081 C 203.946 86.170,217.060 86.342,217.461 86.675 C 217.926 87.061,218.027 97.355,218.027 144.251 C 218.027 200.273,218.011 201.365,217.201 201.798 C 215.885 202.503,40.649 202.394,39.253 201.688 L 38.187 201.148 38.073 132.254 L 37.959 63.360 38.867 62.613 C 39.710 61.920,41.692 61.867,66.804 61.867 L 93.833 61.867 109.103 73.287 M100.575 139.151 C 97.192 141.675,97.398 146.860,100.974 149.203 C 102.074 149.924,103.802 149.973,128.000 149.973 C 152.198 149.973,153.926 149.924,155.026 149.203 C 158.635 146.838,158.807 141.585,155.354 139.127 C 154.125 138.252,153.766 138.240,127.934 138.254 C 102.133 138.267,101.743 138.280,100.575 139.151 " stroke="none" fill-rule="evenodd"></path></svg>