<svg fill="currentColor" viewBox="0 0 256 256" xmlns="http://www.w3.org/2000/svg"><path d="M35.286 42.850 C 32.732 43.770,30.418 45.496,28.802 47.686 C 25.830 51.714,26.027 46.007,26.027 128.213 C 26.027 210.962,25.805 204.958,29.003 209.003 C 30.209 210.529,31.499 211.530,33.573 212.551 L 36.462 213.973 75.298 213.973 L 114.133 213.973 115.688 213.007 C 119.410 210.692,119.498 205.354,115.851 203.100 C 114.483 202.255,113.812 202.240,77.042 202.240 C 52.065 202.240,39.350 202.093,38.799 201.798 C 37.989 201.365,37.973 200.268,37.973 143.772 L 37.973 86.187 127.488 86.187 C 196.542 86.187,217.120 86.304,217.515 86.699 C 217.881 87.065,218.027 89.832,218.027 96.449 C 218.027 105.343,218.063 105.741,218.995 107.137 C 221.645 111.104,227.056 110.839,229.241 106.636 C 229.920 105.329,229.988 104.063,229.881 94.720 C 229.766 84.787,229.711 84.168,228.776 82.289 C 227.336 79.394,225.251 77.155,222.660 75.720 L 220.373 74.453 175.574 74.339 L 130.774 74.225 115.840 59.343 C 106.171 49.707,100.230 44.108,98.987 43.457 L 97.067 42.453 66.987 42.360 C 42.432 42.283,36.609 42.373,35.286 42.850 M103.357 63.890 C 108.697 69.227,113.067 73.739,113.067 73.917 C 113.067 74.094,96.171 74.240,75.520 74.240 L 37.973 74.240 37.973 64.725 C 37.973 57.894,38.118 55.066,38.485 54.699 C 38.873 54.311,45.638 54.187,66.322 54.187 L 93.647 54.187 103.357 63.890 M182.400 130.630 C 175.482 131.930,167.833 138.022,164.732 144.701 C 162.627 149.234,162.133 151.660,162.133 157.461 L 162.133 162.133 156.223 162.133 C 150.789 162.133,150.196 162.211,148.863 163.102 C 145.867 165.103,145.921 164.644,145.921 187.919 C 145.920 207.851,145.958 208.876,146.764 210.541 C 147.229 211.500,148.237 212.665,149.004 213.129 C 150.367 213.953,151.293 213.973,187.947 213.973 C 224.929 213.973,225.516 213.960,226.987 213.105 C 230.024 211.340,229.972 211.777,229.973 188.011 C 229.973 164.442,230.004 164.720,227.211 162.993 C 225.996 162.242,225.090 162.133,220.068 162.133 L 214.316 162.133 214.067 156.907 C 213.652 148.190,211.173 142.286,205.764 137.130 C 202.919 134.418,197.884 131.684,194.085 130.788 C 191.082 130.081,185.710 130.008,182.400 130.630 M193.950 143.371 C 196.893 144.791,199.849 147.954,200.928 150.838 C 201.617 152.680,201.813 154.195,201.813 157.669 L 201.813 162.133 187.902 162.133 L 173.990 162.133 174.160 157.120 C 174.310 152.692,174.464 151.847,175.485 149.881 C 177.336 146.315,180.392 143.745,184.320 142.454 C 186.379 141.777,191.696 142.284,193.950 143.371 M218.027 188.163 L 218.027 202.246 188.053 202.136 L 158.080 202.027 157.968 188.053 L 157.855 174.080 187.941 174.080 L 218.027 174.080 218.027 188.163 " stroke="none" fill-rule="evenodd"></path></svg>