<svg fill="currentColor" viewBox="0 0 256 256" xmlns="http://www.w3.org/2000/svg"><path d="M37.012 50.375 C 32.750 51.402,28.963 54.485,27.152 58.401 L 26.240 60.373 26.240 132.053 L 26.240 203.733 27.202 205.686 C 28.766 208.858,30.933 211.041,34.036 212.569 L 36.889 213.973 128.000 213.973 L 219.111 213.973 221.964 212.569 C 225.066 211.042,227.185 208.908,228.776 205.711 L 229.760 203.733 229.760 144.000 L 229.760 84.267 228.776 82.289 C 227.336 79.394,225.251 77.155,222.660 75.720 L 220.373 74.453 175.147 74.240 L 129.920 74.027 115.245 62.989 C 107.173 56.918,99.685 51.542,98.605 51.042 C 96.666 50.146,96.251 50.132,67.627 50.061 C 51.504 50.021,37.902 50.160,37.012 50.375 M105.802 70.825 C 112.379 75.753,117.760 79.881,117.760 80.000 C 117.760 80.119,112.379 84.247,105.802 89.175 L 93.843 98.133 65.908 98.133 L 37.973 98.133 37.973 80.664 L 37.973 63.195 38.922 62.531 C 39.756 61.947,43.122 61.867,66.857 61.867 L 93.843 61.867 105.802 70.825 M217.549 86.766 C 217.901 87.190,218.001 102.549,217.922 144.246 L 217.813 201.148 216.747 201.688 C 215.179 202.481,40.821 202.481,39.253 201.688 L 38.187 201.148 38.078 155.625 L 37.969 110.103 67.305 109.985 L 96.640 109.867 98.987 108.723 C 100.277 108.094,107.669 102.780,115.413 96.913 L 129.493 86.247 173.281 86.217 C 209.657 86.192,217.150 86.285,217.549 86.766 " stroke="none" fill-rule="evenodd"></path></svg>