<svg fill="currentColor" viewBox="0 0 256 256" xmlns="http://www.w3.org/2000/svg"><path d="M67.286 42.855 C 64.740 43.764,62.421 45.491,60.802 47.686 C 58.293 51.086,58.027 52.659,58.027 64.052 L 58.027 74.188 46.827 74.321 L 35.627 74.453 33.340 75.720 C 30.751 77.154,28.613 79.451,27.202 82.314 L 26.240 84.267 26.240 144.000 L 26.240 203.733 27.202 205.686 C 28.765 208.858,30.933 211.041,34.036 212.569 L 36.889 213.973 116.267 213.973 L 195.645 213.973 198.504 212.565 C 201.555 211.064,203.777 208.798,205.105 205.834 C 205.744 204.409,205.877 202.530,205.999 193.205 L 206.143 182.251 216.896 182.112 L 227.648 181.973 230.536 180.551 C 233.688 178.998,236.270 176.244,237.298 173.339 C 237.759 172.038,237.867 162.697,237.867 124.160 L 237.867 76.587 236.945 74.592 C 235.702 71.902,232.820 68.863,230.204 67.482 L 228.053 66.347 190.933 66.133 L 153.813 65.920 138.929 54.740 C 129.333 47.533,123.356 43.326,122.106 42.900 C 120.439 42.332,116.587 42.243,94.537 42.259 C 74.097 42.274,68.579 42.394,67.286 42.855 M132.794 65.136 C 140.829 71.158,148.270 76.486,149.329 76.976 C 151.222 77.852,151.862 77.870,188.231 78.080 C 208.569 78.197,225.369 78.453,225.565 78.649 C 225.760 78.844,225.971 99.228,226.032 123.946 C 226.134 164.491,226.079 168.954,225.469 169.564 C 224.893 170.140,223.408 170.240,215.450 170.240 L 206.107 170.240 205.987 139.413 C 205.868 108.847,205.859 108.570,204.945 106.592 C 203.702 103.902,200.820 100.863,198.204 99.482 L 196.053 98.347 158.933 98.133 L 121.813 97.920 106.929 86.740 C 97.333 79.533,91.356 75.326,90.106 74.900 C 88.595 74.386,86.163 74.240,79.071 74.240 L 69.973 74.240 69.973 64.725 C 69.973 57.894,70.118 55.066,70.485 54.699 C 70.871 54.313,76.809 54.187,94.591 54.187 L 118.184 54.187 132.794 65.136 M100.794 97.136 C 108.829 103.158,116.270 108.486,117.329 108.976 C 119.222 109.852,119.862 109.870,156.231 110.080 C 176.569 110.197,193.369 110.453,193.565 110.649 C 193.760 110.844,193.971 131.228,194.032 155.946 C 194.134 196.491,194.079 200.954,193.469 201.564 C 192.856 202.176,185.573 202.239,116.556 202.234 C 55.949 202.229,40.101 202.117,39.253 201.688 L 38.187 201.148 38.078 144.246 C 37.999 102.549,38.099 87.190,38.451 86.766 C 38.845 86.291,43.184 86.187,62.557 86.187 L 86.184 86.187 100.794 97.136 " stroke="none" fill-rule="evenodd"></path></svg>