<svg fill="currentColor" viewBox="0 0 256 256" xmlns="http://www.w3.org/2000/svg"><path d="M37.012 50.375 C 32.750 51.402,28.963 54.485,27.152 58.401 L 26.240 60.373 26.240 132.053 L 26.240 203.733 27.202 205.686 C 28.766 208.858,30.933 211.041,34.036 212.569 L 36.889 213.973 128.000 213.973 L 219.111 213.973 221.964 212.569 C 225.066 211.042,227.185 208.908,228.776 205.711 L 229.760 203.733 229.760 144.000 L 229.760 84.267 228.776 82.289 C 227.336 79.394,225.251 77.155,222.660 75.720 L 220.373 74.453 175.147 74.240 L 129.920 74.027 115.245 62.989 C 107.173 56.918,99.685 51.542,98.605 51.042 C 96.666 50.146,96.251 50.132,67.627 50.061 C 51.504 50.021,37.902 50.160,37.012 50.375 M105.802 70.825 C 112.379 75.753,117.760 79.881,117.760 80.000 C 117.760 80.119,112.379 84.247,105.802 89.175 L 93.843 98.133 65.908 98.133 L 37.973 98.133 37.973 80.664 L 37.973 63.195 38.922 62.531 C 39.756 61.947,43.122 61.867,66.857 61.867 L 93.843 61.867 105.802 70.825 M217.549 86.766 C 217.901 87.190,218.001 102.549,217.922 144.246 L 217.813 201.148 216.747 201.688 C 215.179 202.481,40.821 202.481,39.253 201.688 L 38.187 201.148 38.078 155.625 L 37.969 110.103 67.305 109.985 L 96.640 109.867 98.987 108.723 C 100.277 108.094,107.669 102.780,115.413 96.913 L 129.493 86.247 173.281 86.217 C 209.657 86.192,217.150 86.285,217.549 86.766 M125.116 122.878 C 124.351 123.344,123.344 124.351,122.878 125.116 C 122.097 126.396,122.030 127.280,122.028 136.213 L 122.027 145.920 112.960 145.922 C 107.973 145.924,103.210 146.114,102.376 146.346 C 97.587 147.677,96.600 154.457,100.821 157.031 C 102.072 157.793,103.020 157.864,112.107 157.865 L 122.027 157.867 122.027 167.573 C 122.028 178.448,122.257 179.508,124.939 181.057 C 127.847 182.736,131.768 181.649,133.226 178.759 C 133.871 177.480,133.972 175.965,133.973 167.573 L 133.973 157.867 143.893 157.865 C 152.980 157.864,153.928 157.793,155.179 157.031 C 159.400 154.457,158.413 147.677,153.624 146.346 C 152.790 146.114,148.027 145.924,143.040 145.922 L 133.973 145.920 133.972 136.213 C 133.970 127.280,133.903 126.396,133.122 125.116 C 132.027 123.319,129.886 122.030,128.000 122.030 C 127.179 122.030,125.881 122.411,125.116 122.878 " stroke="none" fill-rule="evenodd"></path></svg>