<svg fill="currentColor" viewBox="0 0 256 256" xmlns="http://www.w3.org/2000/svg"><path d="M37.012 50.375 C 32.750 51.402,28.963 54.485,27.152 58.401 L 26.240 60.373 26.240 132.053 L 26.240 203.733 27.202 205.686 C 28.765 208.858,30.933 211.041,34.035 212.569 L 36.888 213.973 79.370 213.973 C 119.596 213.973,121.913 213.932,123.026 213.203 C 126.631 210.842,126.807 205.586,123.363 203.133 C 122.136 202.260,121.780 202.252,80.755 202.140 C 46.440 202.046,39.264 201.927,38.679 201.441 C 38.028 200.901,37.973 195.526,37.973 132.025 L 37.973 63.195 38.922 62.531 C 39.756 61.947,43.122 61.867,66.852 61.867 L 93.833 61.867 109.103 73.287 C 117.502 79.569,125.141 84.989,126.080 85.332 C 127.528 85.861,134.533 85.975,172.341 86.081 C 203.946 86.170,217.060 86.342,217.461 86.675 C 217.913 87.051,218.027 90.559,218.027 104.201 C 218.027 118.981,218.118 121.451,218.712 122.702 C 220.711 126.916,227.299 126.893,229.305 122.666 C 229.930 121.349,229.994 119.147,229.884 102.726 C 229.761 84.426,229.752 84.250,228.776 82.289 C 227.336 79.394,225.251 77.155,222.660 75.720 L 220.373 74.453 175.147 74.240 L 129.920 74.027 115.245 62.989 C 107.173 56.918,99.685 51.542,98.605 51.042 C 96.666 50.146,96.251 50.132,67.627 50.061 C 51.504 50.021,37.902 50.160,37.012 50.375 M187.733 146.370 C 181.210 147.255,175.804 150.071,170.656 155.264 C 167.926 158.017,166.622 159.738,165.432 162.158 C 159.783 173.648,161.483 186.978,169.733 195.888 C 171.253 197.530,172.325 199.022,172.115 199.203 C 171.905 199.384,170.484 200.406,168.958 201.473 C 165.279 204.045,160.515 209.118,158.342 212.774 C 157.377 214.399,155.993 217.350,155.268 219.331 C 153.553 224.013,153.696 226.002,155.907 228.213 C 157.337 229.643,157.645 229.760,159.983 229.760 C 162.260 229.760,162.656 229.621,163.947 228.370 C 164.913 227.433,165.688 226.025,166.324 224.053 C 168.791 216.393,175.374 210.032,183.680 207.282 C 186.217 206.442,187.502 206.298,192.213 206.325 C 197.056 206.352,198.157 206.497,200.890 207.468 C 208.943 210.329,215.145 216.409,217.632 223.882 C 218.945 227.828,220.659 229.603,223.386 229.839 C 224.996 229.978,225.821 229.815,226.884 229.148 C 228.649 228.039,229.970 225.888,229.972 224.119 C 229.974 222.169,227.724 216.253,225.658 212.774 C 223.485 209.118,218.721 204.045,215.042 201.473 C 213.516 200.406,212.095 199.384,211.885 199.203 C 211.675 199.022,212.747 197.530,214.267 195.888 C 223.175 186.268,224.412 170.906,217.171 159.829 C 213.274 153.866,206.160 148.665,199.680 147.040 C 196.424 146.224,191.036 145.922,187.733 146.370 M197.659 159.006 C 200.578 159.925,204.328 162.582,206.223 165.075 C 210.518 170.727,211.057 178.976,207.525 185.004 C 203.881 191.223,196.024 195.032,189.389 193.798 C 182.089 192.441,176.495 187.442,174.742 180.710 C 172.535 172.234,176.341 163.791,184.088 159.977 C 188.374 157.867,192.990 157.537,197.659 159.006 " stroke="none" fill-rule="evenodd"></path></svg>