<svg fill="currentColor" viewBox="0 0 256 256" xmlns="http://www.w3.org/2000/svg"><path d="M154.453 26.511 C 109.458 29.847,73.122 49.828,49.815 84.053 C 29.785 113.464,22.212 151.387,27.790 194.347 C 28.912 202.985,29.827 206.547,32.000 210.724 C 35.880 218.181,42.981 224.055,50.821 226.293 C 53.452 227.044,61.795 228.321,69.760 229.193 C 77.721 230.064,100.229 229.939,107.947 228.982 C 144.355 224.463,171.789 211.056,194.498 186.683 C 212.441 167.426,224.092 142.072,228.230 113.280 C 230.702 96.076,230.476 75.799,227.607 57.387 C 226.715 51.663,225.926 49.041,223.938 45.185 C 219.586 36.748,211.773 30.997,202.027 29.060 C 189.299 26.530,168.922 25.438,154.453 26.511 M186.880 39.011 C 201.622 40.628,205.789 41.909,209.995 46.114 C 214.083 50.203,215.279 54.072,216.973 68.705 C 217.574 73.891,218.400 97.280,217.983 97.280 C 217.888 97.280,204.468 83.917,188.159 67.585 L 158.507 37.889 169.600 38.111 C 175.701 38.232,183.477 38.637,186.880 39.011 M179.706 76.267 L 216.263 112.853 215.659 116.267 C 214.728 121.525,212.174 131.411,210.498 136.236 C 195.778 178.623,162.571 206.812,117.120 215.504 L 112.854 216.320 76.296 179.733 L 39.737 143.147 40.316 139.947 C 46.100 107.966,62.079 81.076,85.841 63.331 C 97.867 54.351,112.365 47.282,126.963 43.281 C 130.174 42.401,141.318 39.907,142.934 39.707 C 143.052 39.692,159.599 56.144,179.706 76.267 M157.653 90.641 C 156.949 90.960,152.728 94.888,148.273 99.369 L 140.172 107.517 136.113 103.525 C 130.952 98.450,130.458 98.133,127.707 98.133 C 125.830 98.133,125.235 98.339,124.014 99.412 C 123.153 100.167,122.393 101.344,122.155 102.292 C 121.426 105.190,122.118 106.485,127.064 111.470 L 131.618 116.059 123.847 123.830 L 116.077 131.600 111.468 127.059 C 108.788 124.419,106.362 122.393,105.671 122.220 C 102.334 121.382,99.012 123.194,98.060 126.368 C 97.263 129.031,98.328 130.986,103.247 135.887 L 107.515 140.139 98.771 148.919 L 90.027 157.700 90.028 159.810 C 90.031 163.845,92.611 166.244,96.542 165.866 C 98.637 165.665,98.697 165.615,107.251 157.069 L 115.852 148.475 119.899 152.543 C 124.475 157.141,126.788 158.536,129.115 158.099 C 131.127 157.722,133.530 155.473,133.930 153.593 C 134.528 150.784,133.777 149.423,128.930 144.530 L 124.382 139.941 132.153 132.170 L 139.923 124.400 144.532 128.941 C 147.212 131.581,149.638 133.607,150.329 133.780 C 153.715 134.630,157.040 132.777,157.907 129.557 C 158.646 126.814,157.652 124.993,152.753 120.113 L 148.485 115.861 156.985 107.317 C 162.357 101.917,165.592 98.341,165.776 97.597 C 166.459 94.839,164.893 91.703,162.289 90.615 C 160.542 89.885,159.304 89.892,157.653 90.641 M67.841 188.416 L 97.493 218.111 85.547 217.882 C 71.003 217.604,57.403 216.096,52.449 214.214 C 49.843 213.224,46.508 210.797,44.814 208.658 C 41.626 204.633,40.593 200.820,39.027 187.295 C 38.426 182.109,37.600 158.720,38.017 158.720 C 38.112 158.720,51.532 172.083,67.841 188.416 " stroke="none" fill-rule="evenodd"></path></svg>