<svg fill="currentColor" viewBox="0 0 256 256" xmlns="http://www.w3.org/2000/svg"><path d="M123.970 26.559 C 122.938 26.832,104.526 38.841,76.302 57.651 C 37.007 83.840,30.099 88.595,28.814 90.336 C 25.877 94.318,26.027 91.358,26.027 145.357 L 26.027 194.133 20.160 194.135 C 15.098 194.136,14.106 194.251,12.930 194.968 C 11.029 196.127,10.098 197.731,10.098 199.847 C 10.098 202.245,11.317 204.199,13.459 205.236 C 15.183 206.070,16.478 206.080,128.000 206.080 C 239.522 206.080,240.817 206.070,242.541 205.236 C 244.683 204.199,245.902 202.245,245.902 199.847 C 245.902 197.731,244.971 196.127,243.070 194.968 C 241.894 194.251,240.902 194.136,235.840 194.135 L 229.973 194.133 229.956 145.173 C 229.939 100.093,229.880 96.054,229.209 94.207 C 227.443 89.347,229.182 90.631,179.745 57.683 C 145.553 34.896,133.245 26.905,131.757 26.531 C 129.382 25.933,126.300 25.944,123.970 26.559 M173.229 67.733 L 217.813 97.493 217.922 145.813 L 218.030 194.133 203.948 194.133 L 189.867 194.133 189.867 164.245 C 189.867 131.261,189.981 132.678,187.179 130.969 C 185.842 130.154,184.589 130.137,128.000 130.137 C 71.411 130.137,70.158 130.154,68.821 130.969 C 66.019 132.678,66.133 131.261,66.133 164.245 L 66.133 194.133 52.052 194.133 L 37.970 194.133 38.078 145.813 L 38.187 97.493 82.771 67.733 C 107.293 51.365,127.646 37.973,128.000 37.973 C 128.354 37.973,148.707 51.365,173.229 67.733 M122.027 152.107 L 122.027 162.133 100.053 162.133 L 78.080 162.133 78.080 152.107 L 78.080 142.080 100.053 142.080 L 122.027 142.080 122.027 152.107 M177.920 152.107 L 177.920 162.133 155.947 162.133 L 133.973 162.133 133.973 152.107 L 133.973 142.080 155.947 142.080 L 177.920 142.080 177.920 152.107 M122.027 184.107 L 122.027 194.133 100.053 194.133 L 78.080 194.133 78.080 184.107 L 78.080 174.080 100.053 174.080 L 122.027 174.080 122.027 184.107 M177.920 184.107 L 177.920 194.133 155.947 194.133 L 133.973 194.133 133.973 184.107 L 133.973 174.080 155.947 174.080 L 177.920 174.080 177.920 184.107 " stroke="none" fill-rule="evenodd"></path></svg>