<svg fill="currentColor" viewBox="0 0 256 256" xmlns="http://www.w3.org/2000/svg"><path d="M164.821 34.969 C 160.794 37.424,161.400 43.597,165.853 45.495 C 166.940 45.958,170.805 46.080,184.412 46.080 L 201.599 46.080 184.854 62.825 L 168.109 79.569 157.761 69.245 C 152.070 63.566,146.873 58.719,146.212 58.474 C 142.747 57.184,139.215 58.894,138.227 62.338 C 137.293 65.594,137.575 65.990,148.956 77.451 L 159.559 88.129 150.496 97.184 C 145.511 102.165,141.301 106.240,141.139 106.240 C 140.977 106.240,139.579 105.281,138.031 104.110 C 124.545 93.903,106.139 88.678,89.813 90.423 C 79.687 91.505,73.546 93.282,64.640 97.705 C 42.846 108.529,28.608 129.600,26.368 154.347 C 23.826 182.414,39.505 210.000,65.241 222.741 C 91.497 235.740,123.215 230.790,144.319 210.400 C 154.310 200.748,160.508 190.105,163.860 176.841 C 168.990 156.546,164.409 134.111,151.821 117.876 C 150.687 116.414,149.760 115.072,149.760 114.893 C 149.760 114.714,153.837 110.487,158.819 105.501 L 167.879 96.434 178.339 106.845 C 189.659 118.110,190.321 118.581,193.575 117.683 C 195.541 117.140,197.435 115.161,197.788 113.283 C 198.387 110.086,198.039 109.609,186.947 98.444 L 176.446 87.875 193.183 71.138 L 209.920 54.401 209.920 71.588 C 209.920 90.117,209.959 90.477,212.198 92.541 C 213.665 93.894,216.915 94.243,218.828 93.253 C 219.581 92.864,220.573 91.931,221.031 91.179 C 221.832 89.864,221.864 88.850,221.865 64.085 C 221.867 35.693,221.956 36.663,219.179 34.969 C 217.864 34.168,216.851 34.137,192.000 34.137 C 167.149 34.137,166.136 34.168,164.821 34.969 M106.880 103.040 C 132.750 108.331,151.107 128.694,153.677 154.953 C 155.314 171.683,148.919 189.143,136.745 201.183 C 117.521 220.195,87.540 223.400,64.853 208.867 C 38.973 192.287,30.488 158.408,45.500 131.595 C 51.170 121.467,60.221 112.942,70.613 107.941 C 75.385 105.644,81.899 103.546,86.400 102.854 C 88.043 102.602,89.867 102.313,90.453 102.212 C 92.708 101.824,103.626 102.374,106.880 103.040 " stroke="none" fill-rule="evenodd"></path></svg>