<svg fill="currentColor" viewBox="0 0 256 256" xmlns="http://www.w3.org/2000/svg"><path d="M86.276 18.205 C 84.788 18.518,82.425 21.121,82.112 22.793 C 81.754 24.701,82.495 26.890,83.957 28.243 C 84.596 28.835,92.080 33.485,100.587 38.576 C 109.093 43.668,116.053 47.908,116.053 48.000 C 116.053 48.092,109.093 52.330,100.587 57.418 C 92.080 62.507,84.448 67.320,83.627 68.115 C 82.248 69.450,82.133 69.757,82.133 72.107 C 82.133 74.468,82.246 74.766,83.692 76.212 C 84.954 77.473,85.646 77.808,87.319 77.965 C 89.372 78.158,89.501 78.091,105.173 68.685 C 113.856 63.474,121.202 59.115,121.498 58.998 C 121.926 58.829,122.013 62.794,121.924 78.566 L 121.813 98.347 119.040 98.646 C 109.275 99.699,97.210 104.279,88.644 110.184 C 73.144 120.870,62.997 136.316,59.213 154.984 C 57.823 161.843,57.842 174.733,59.251 181.333 C 62.156 194.935,68.080 206.410,77.084 215.880 C 83.384 222.506,89.254 226.861,97.197 230.802 C 113.719 239.001,133.122 240.234,150.725 234.205 C 171.091 227.229,187.509 210.668,194.320 190.230 C 197.061 182.004,197.702 177.890,197.733 168.320 C 197.756 161.063,197.615 159.072,196.791 155.009 C 193.014 136.379,182.809 120.837,167.356 110.184 C 158.790 104.279,146.725 99.699,136.960 98.646 L 134.187 98.347 134.076 78.566 C 133.987 62.794,134.074 58.829,134.502 58.998 C 134.798 59.115,142.144 63.474,150.827 68.685 C 166.499 78.091,166.628 78.158,168.681 77.965 C 170.354 77.808,171.046 77.473,172.308 76.212 C 173.754 74.766,173.867 74.468,173.867 72.107 C 173.867 69.757,173.752 69.450,172.373 68.115 C 171.552 67.320,163.920 62.507,155.413 57.418 C 146.907 52.330,139.947 48.092,139.947 48.000 C 139.947 47.908,146.907 43.668,155.413 38.576 C 163.920 33.485,171.404 28.835,172.043 28.243 C 175.337 25.195,174.279 20.161,170.002 18.528 C 168.488 17.950,167.759 17.884,166.651 18.223 C 165.873 18.462,156.858 23.686,146.619 29.831 L 128.003 41.004 109.094 29.661 C 90.412 18.455,88.840 17.666,86.276 18.205 M139.307 111.136 C 158.304 115.097,173.721 127.675,181.347 145.436 C 184.610 153.035,185.775 159.085,185.752 168.320 C 185.739 173.656,185.532 176.100,184.807 179.513 C 179.840 202.898,161.695 220.591,138.027 225.127 C 132.767 226.136,123.166 226.116,117.760 225.087 C 105.582 222.767,95.970 217.679,87.199 208.908 C 78.734 200.443,73.546 190.931,71.280 179.726 C 66.822 157.672,75.240 135.236,92.984 121.879 C 100.986 115.856,110.548 111.865,120.164 110.535 C 124.389 109.951,135.258 110.292,139.307 111.136 " stroke="none" fill-rule="evenodd"></path></svg>