<svg fill="currentColor" viewBox="0 0 256 256" xmlns="http://www.w3.org/2000/svg"><path d="M120.320 18.367 C 85.044 22.210,57.185 48.157,51.169 82.773 C 46.213 111.291,57.600 140.283,80.707 157.982 C 91.584 166.313,106.067 172.152,119.147 173.479 L 122.027 173.771 122.027 188.006 L 122.027 202.240 104.066 202.240 C 87.813 202.240,85.986 202.310,84.857 202.977 C 83.580 203.732,81.920 206.570,81.920 208.000 C 81.920 209.485,83.601 212.281,85.004 213.129 C 86.326 213.929,87.342 213.980,104.213 214.098 L 122.027 214.222 122.027 227.751 C 122.028 239.782,122.111 241.444,122.774 242.759 C 124.842 246.858,131.158 246.858,133.226 242.759 C 133.889 241.444,133.972 239.782,133.973 227.751 L 133.973 214.222 151.787 214.098 C 168.658 213.980,169.674 213.929,170.996 213.129 C 172.399 212.281,174.080 209.485,174.080 208.000 C 174.080 206.570,172.420 203.732,171.143 202.977 C 170.014 202.310,168.187 202.240,151.934 202.240 L 133.973 202.240 133.973 188.006 L 133.973 173.771 136.853 173.482 C 141.061 173.059,148.816 171.244,153.763 169.525 C 176.309 161.693,194.225 143.557,201.796 120.904 C 208.410 101.116,207.156 80.619,198.198 62.080 C 187.080 39.070,165.099 22.802,139.947 18.966 C 134.685 18.164,124.920 17.866,120.320 18.367 M137.310 30.762 C 158.996 33.353,179.240 48.701,188.388 69.487 C 194.434 83.224,195.518 99.818,191.330 114.499 C 186.459 131.574,173.907 146.654,157.741 154.853 C 139.249 164.233,118.181 164.389,99.200 155.287 C 81.170 146.642,67.617 129.335,63.522 109.726 C 58.846 87.334,65.891 64.273,82.192 48.617 C 97.208 34.195,115.753 28.187,137.310 30.762 " stroke="none" fill-rule="evenodd"></path></svg>