<svg fill="currentColor" viewBox="0 0 256 256" xmlns="http://www.w3.org/2000/svg"><path d="M95.715 34.917 C 93.173 35.802,90.920 37.406,89.453 39.372 C 87.805 41.583,19.618 153.515,18.960 155.092 C 17.906 157.613,17.748 160.895,18.547 163.664 C 19.488 166.928,46.836 214.914,49.247 217.532 C 50.185 218.550,51.920 219.894,53.103 220.518 L 55.253 221.653 128.000 221.653 L 200.747 221.653 202.897 220.518 C 204.080 219.894,205.815 218.550,206.753 217.532 C 209.013 215.077,236.785 166.482,237.556 163.632 C 238.265 161.010,237.963 157.180,236.854 154.734 C 235.403 151.534,166.810 39.502,165.420 38.062 C 164.674 37.289,163.006 36.137,161.712 35.502 L 159.360 34.347 128.640 34.248 C 100.016 34.157,97.770 34.202,95.715 34.917 M139.016 63.253 C 133.363 72.699,128.523 80.652,128.262 80.927 C 127.907 81.300,125.121 76.951,117.262 63.754 L 106.737 46.080 128.016 46.080 L 149.296 46.080 139.016 63.253 M108.350 72.282 C 115.168 83.642,120.747 93.098,120.746 93.295 C 120.746 93.492,112.625 107.189,102.698 123.733 L 84.650 153.813 59.142 153.923 C 43.036 153.993,33.686 153.883,33.777 153.625 C 33.935 153.175,95.736 51.675,95.870 51.645 C 95.917 51.635,101.533 60.922,108.350 72.282 M193.209 105.921 C 209.205 132.145,222.293 153.697,222.293 153.814 C 222.293 153.931,210.821 154.023,196.800 154.018 L 171.307 154.009 153.813 124.754 C 144.192 108.664,136.056 94.963,135.733 94.307 C 135.160 93.142,135.428 92.647,147.618 72.335 L 160.089 51.555 162.107 54.897 C 163.216 56.736,177.212 79.696,193.209 105.921 M142.806 129.707 L 157.399 154.027 128.000 154.027 L 98.601 154.027 113.194 129.707 C 121.219 116.331,127.882 105.387,128.000 105.387 C 128.118 105.387,134.781 116.331,142.806 129.707 M76.852 166.720 C 75.094 169.962,54.952 203.327,54.710 203.398 C 54.456 203.473,33.818 167.702,33.351 166.377 C 33.263 166.127,41.576 165.973,55.233 165.973 C 76.078 165.973,77.235 166.013,76.852 166.720 M177.532 187.572 C 184.668 199.451,190.571 209.339,190.649 209.545 C 190.730 209.760,163.925 209.920,128.000 209.920 C 92.700 209.920,65.271 209.758,65.351 209.550 C 65.429 209.346,71.328 199.458,78.460 187.576 L 91.427 165.973 127.992 165.973 L 164.557 165.973 177.532 187.572 M222.649 166.377 C 222.293 167.387,201.570 203.493,201.339 203.506 C 201.117 203.518,179.246 167.385,178.844 166.343 C 178.765 166.138,188.506 165.973,200.747 165.973 C 214.417 165.973,222.737 166.127,222.649 166.377 " stroke="none" fill-rule="evenodd"></path></svg>