<svg fill="currentColor" viewBox="0 0 256 256" xmlns="http://www.w3.org/2000/svg"><path d="M65.161 58.743 C -1.663 94.380,2.133 92.136,2.133 96.000 C 2.133 99.369,2.978 100.119,12.480 105.200 C 17.232 107.740,24.000 111.366,27.520 113.256 L 33.920 116.693 34.133 143.360 L 34.347 170.027 35.554 172.486 C 36.399 174.206,38.159 176.342,41.412 179.595 C 57.601 195.784,78.350 206.802,101.327 211.411 C 117.821 214.719,137.921 214.794,153.745 211.607 C 160.847 210.177,171.476 206.996,177.173 204.597 C 177.878 204.300,177.920 205.316,177.920 222.540 C 177.920 239.860,177.963 240.887,178.764 242.541 C 179.801 244.683,181.755 245.902,184.153 245.902 C 186.269 245.902,187.873 244.971,189.032 243.070 C 189.827 241.766,189.864 240.764,189.865 220.071 L 189.867 198.436 191.893 197.278 C 195.027 195.487,201.664 190.873,205.440 187.859 C 211.166 183.289,219.193 175.036,220.501 172.373 L 221.653 170.027 221.867 143.360 L 222.080 116.693 228.480 113.256 C 232.000 111.366,238.768 107.740,243.520 105.200 C 253.022 100.119,253.867 99.369,253.867 96.000 C 253.867 92.135,257.665 94.380,190.833 58.742 C 143.238 33.362,129.150 26.027,127.995 26.028 C 126.842 26.028,112.671 33.407,65.161 58.743 M179.737 66.395 C 208.188 81.557,232.300 94.439,233.317 95.021 L 235.168 96.080 211.588 108.653 L 188.009 121.227 186.058 120.179 C 160.064 106.227,131.240 91.010,129.963 90.566 C 127.846 89.829,126.189 90.197,124.352 91.809 C 121.903 93.960,121.641 97.297,123.715 99.934 C 124.194 100.542,135.070 106.584,149.724 114.383 C 163.577 121.755,174.914 127.883,174.919 128.000 C 174.924 128.117,164.370 133.842,151.465 140.722 L 128.003 153.230 74.414 124.652 C 24.271 97.911,20.889 96.038,21.826 95.517 C 23.474 94.599,127.777 38.878,127.897 38.851 C 127.957 38.838,151.285 51.232,179.737 66.395 M83.683 143.193 C 127.580 166.611,126.338 165.973,128.000 165.973 C 129.597 165.973,130.024 165.759,156.314 151.727 C 168.015 145.483,177.665 140.373,177.758 140.373 C 177.851 140.373,177.877 151.835,177.817 165.843 L 177.707 191.313 173.877 192.966 C 162.099 198.051,148.880 201.026,134.720 201.779 C 101.841 203.527,72.080 192.897,50.474 171.686 L 46.080 167.373 46.080 145.340 C 46.080 133.221,46.153 123.307,46.243 123.307 C 46.333 123.307,63.181 132.256,83.683 143.193 M209.920 145.129 L 209.920 166.952 208.377 168.836 C 206.223 171.463,199.421 177.470,194.347 181.223 L 190.080 184.380 189.970 159.308 C 189.899 143.221,190.011 134.085,190.281 133.815 C 190.753 133.343,209.098 123.399,209.600 123.343 C 209.776 123.323,209.920 133.127,209.920 145.129 " stroke="none" fill-rule="evenodd"></path></svg>