<svg fill="currentColor" viewBox="0 0 256 256" xmlns="http://www.w3.org/2000/svg"><path d="M29.116 58.878 C 27.319 59.973,26.030 62.114,26.030 64.000 C 26.030 65.886,27.319 68.027,29.116 69.122 C 30.493 69.962,31.468 69.970,128.000 69.970 C 224.532 69.970,225.507 69.962,226.884 69.122 C 230.909 66.668,230.909 61.332,226.884 58.878 C 225.507 58.038,224.532 58.030,128.000 58.030 C 31.468 58.030,30.493 58.038,29.116 58.878 M28.800 98.981 C 24.919 101.536,25.276 107.236,29.449 109.333 C 30.831 110.027,33.748 110.079,71.865 110.079 C 111.779 110.080,112.841 110.059,114.541 109.236 C 116.683 108.199,117.902 106.245,117.902 103.847 C 117.902 101.731,116.971 100.127,115.070 98.968 C 113.743 98.159,112.589 98.137,71.893 98.138 C 30.979 98.139,30.052 98.157,28.800 98.981 M140.930 98.968 C 139.029 100.127,138.098 101.731,138.098 103.847 C 138.098 106.245,139.317 108.199,141.459 109.236 C 143.159 110.059,144.221 110.080,184.135 110.079 C 222.261 110.079,225.167 110.028,226.530 109.333 C 230.687 107.213,231.071 101.379,227.211 98.993 C 225.840 98.146,225.185 98.133,184.056 98.135 C 143.414 98.136,142.257 98.159,140.930 98.968 M28.543 139.214 C 25.709 141.118,25.276 145.661,27.697 148.083 C 29.755 150.141,30.843 150.227,53.010 150.096 C 72.652 149.979,73.664 149.934,74.996 149.129 C 76.399 148.281,78.080 145.485,78.080 144.000 C 78.080 142.570,76.420 139.732,75.143 138.977 C 74.004 138.304,71.978 138.240,51.944 138.240 L 29.993 138.240 28.543 139.214 M100.575 139.151 C 97.192 141.675,97.398 146.860,100.974 149.203 C 102.074 149.924,103.802 149.973,128.000 149.973 C 152.198 149.973,153.926 149.924,155.026 149.203 C 158.635 146.838,158.807 141.585,155.354 139.127 C 154.125 138.252,153.766 138.240,127.934 138.254 C 102.133 138.267,101.743 138.280,100.575 139.151 M180.787 138.998 C 179.554 139.762,177.920 142.613,177.920 144.000 C 177.920 145.485,179.601 148.281,181.004 149.129 C 182.336 149.934,183.348 149.979,202.990 150.096 C 225.157 150.227,226.245 150.141,228.303 148.083 C 230.724 145.661,230.291 141.118,227.457 139.214 L 226.007 138.240 203.990 138.251 C 183.907 138.262,181.869 138.327,180.787 138.998 M30.141 178.359 C 25.450 179.764,24.605 186.421,28.789 189.007 C 30.109 189.823,30.888 189.867,43.997 189.865 C 56.948 189.864,57.899 189.811,59.179 189.031 C 63.400 186.457,62.413 179.677,57.624 178.346 C 55.775 177.833,31.861 177.843,30.141 178.359 M86.400 178.226 C 84.720 178.634,82.806 180.486,82.293 182.198 C 81.631 184.408,82.282 186.676,84.071 188.391 L 85.388 189.653 99.547 189.768 C 112.999 189.876,113.775 189.840,115.070 189.041 C 116.975 187.867,117.902 186.266,117.902 184.153 C 117.902 181.755,116.683 179.801,114.541 178.764 C 112.915 177.977,111.937 177.923,100.025 177.969 C 93.001 177.997,86.869 178.112,86.400 178.226 M141.426 178.760 C 139.300 179.828,138.098 181.775,138.098 184.153 C 138.098 186.266,139.025 187.867,140.930 189.041 C 142.225 189.840,143.001 189.876,156.453 189.768 L 170.612 189.653 171.929 188.391 C 174.751 185.686,174.624 181.589,171.647 179.318 L 170.095 178.133 156.621 178.015 C 143.815 177.903,143.061 177.940,141.426 178.760 M198.171 178.363 C 193.566 179.742,192.708 186.523,196.821 189.031 C 198.101 189.811,199.052 189.864,212.003 189.865 C 225.112 189.867,225.891 189.823,227.211 189.007 C 230.811 186.782,230.755 181.278,227.107 178.886 C 226.080 178.212,224.567 178.125,212.713 178.054 C 205.428 178.010,198.883 178.149,198.171 178.363 " stroke="none" fill-rule="evenodd"></path></svg>