<svg fill="currentColor" viewBox="0 0 256 256" xmlns="http://www.w3.org/2000/svg"><path d="M123.937 19.434 C 122.368 20.266,119.134 22.256,116.751 23.855 C 102.055 33.715,89.339 47.502,82.677 60.800 C 81.737 62.677,80.907 64.280,80.833 64.362 C 80.759 64.444,79.192 63.930,77.352 63.221 C 70.265 60.488,60.790 58.610,52.053 58.207 C 45.636 57.911,44.313 58.370,42.773 61.424 L 41.813 63.327 41.813 104.135 C 41.813 128.406,41.992 147.172,42.255 150.445 C 45.861 195.416,83.119 229.973,128.000 229.973 C 168.837 229.973,203.903 201.282,212.269 161.024 C 214.034 152.531,214.247 145.745,214.105 102.613 C 213.976 63.180,213.959 62.482,213.105 61.013 C 211.576 58.382,210.083 57.924,203.947 58.207 C 195.295 58.606,186.292 60.375,178.742 63.158 C 176.816 63.868,175.194 64.396,175.136 64.331 C 175.079 64.266,174.262 62.677,173.321 60.800 C 166.754 47.706,154.234 34.029,139.947 24.340 C 133.884 20.229,129.588 17.920,128.000 17.920 C 127.335 17.920,125.507 18.601,123.937 19.434 M132.191 33.656 C 145.380 42.524,155.662 53.486,162.287 65.742 C 163.376 67.756,164.267 69.525,164.267 69.674 C 164.267 69.822,162.683 70.993,160.747 72.276 C 153.025 77.392,144.606 85.281,139.300 92.373 C 135.931 96.875,132.007 103.444,129.928 108.060 C 129.005 110.110,128.137 111.787,128.000 111.787 C 127.863 111.787,126.995 110.110,126.072 108.060 C 119.842 94.227,108.606 81.185,95.253 72.289 C 93.317 70.999,91.733 69.803,91.733 69.630 C 91.733 68.924,96.830 60.288,99.408 56.625 C 102.728 51.910,112.690 41.767,117.760 37.941 C 122.615 34.278,127.235 31.195,127.910 31.168 C 128.212 31.156,130.139 32.276,132.191 33.656 M63.573 71.753 C 91.510 77.756,113.848 99.846,120.054 127.606 C 121.506 134.105,122.099 140.851,121.943 149.102 L 121.813 155.910 119.893 152.943 C 106.429 132.142,83.383 117.842,58.347 114.754 L 54.187 114.241 54.187 92.266 L 54.187 70.290 56.853 70.586 C 58.320 70.748,61.344 71.274,63.573 71.753 M201.813 92.339 L 201.813 114.279 198.933 114.562 C 184.265 116.007,168.904 122.054,156.555 131.244 C 148.740 137.060,141.252 145.008,136.107 152.947 L 134.187 155.910 134.057 149.102 C 133.901 140.855,134.492 134.119,135.948 127.573 C 142.042 100.164,164.230 77.981,191.573 71.958 C 196.806 70.805,198.230 70.565,200.427 70.464 L 201.813 70.400 201.813 92.339 M60.224 127.125 C 91.596 132.515,115.594 156.615,121.001 188.160 C 121.488 191.003,121.760 196.004,121.911 204.907 L 122.126 217.600 120.530 217.600 C 119.652 217.600,116.595 217.126,113.735 216.547 C 84.128 210.553,62.090 188.598,55.430 158.461 C 54.605 154.732,54.474 152.611,54.302 140.267 C 54.133 128.073,54.189 126.293,54.745 126.293 C 55.095 126.293,57.561 126.668,60.224 127.125 M201.697 140.267 C 201.474 155.562,201.187 157.820,198.331 166.781 C 192.309 185.671,177.626 202.443,159.787 210.806 C 152.730 214.115,140.281 217.600,135.520 217.600 L 133.973 217.600 133.973 207.619 C 133.973 192.924,134.902 185.534,137.873 176.598 C 145.405 153.938,164.301 135.691,187.093 129.069 C 190.794 127.994,198.825 126.399,200.897 126.328 L 201.900 126.293 201.697 140.267 " stroke="none" fill-rule="evenodd"></path></svg>