<svg fill="currentColor" viewBox="0 0 256 256" xmlns="http://www.w3.org/2000/svg"><path d="M89.813 26.625 C 83.850 27.991,78.751 30.859,74.453 35.264 C 71.321 38.476,69.369 41.646,67.707 46.223 C 65.917 51.153,65.619 57.967,66.964 63.159 C 69.493 72.915,76.477 80.691,85.751 84.076 C 89.969 85.615,95.595 86.311,99.410 85.765 C 100.933 85.547,102.308 85.505,102.465 85.671 C 102.621 85.837,104.499 89.909,106.638 94.720 L 110.527 103.467 108.370 105.330 C 98.448 113.901,95.324 128.271,100.756 140.346 L 101.991 143.091 99.956 144.884 C 98.836 145.869,92.544 151.474,85.973 157.338 L 74.027 167.999 72.887 167.195 C 70.613 165.589,65.392 163.390,62.278 162.728 C 57.772 161.768,51.238 162.122,46.720 163.569 C 38.709 166.136,32.327 171.786,28.736 179.491 C 26.544 184.194,25.912 187.539,26.131 193.280 C 26.445 201.529,29.113 207.584,34.966 213.333 C 38.665 216.967,41.690 218.904,46.018 220.409 C 58.134 224.623,71.119 220.907,79.431 210.848 C 86.313 202.520,87.912 189.971,83.393 179.753 C 82.817 178.452,82.347 177.237,82.347 177.053 C 82.347 176.470,109.596 152.320,110.254 152.320 C 110.600 152.320,111.005 152.517,111.153 152.757 C 111.302 152.998,112.775 153.875,114.427 154.707 C 124.232 159.645,136.455 158.761,145.194 152.483 C 146.950 151.221,147.495 151.019,148.106 151.401 C 149.654 152.367,172.592 170.339,172.721 170.686 C 172.795 170.885,172.383 172.359,171.805 173.962 C 168.946 181.888,169.427 189.446,173.304 197.516 C 174.714 200.452,175.746 201.831,178.929 205.036 C 182.173 208.303,183.435 209.251,186.453 210.692 C 191.442 213.074,194.779 213.867,199.893 213.887 C 204.980 213.906,208.331 213.127,213.120 210.812 C 228.307 203.471,234.286 185.219,226.463 170.080 C 223.752 164.834,218.656 159.883,213.313 157.301 C 208.047 154.757,203.475 153.817,198.094 154.170 C 192.210 154.557,185.654 157.003,181.793 160.251 L 180.574 161.277 167.750 151.359 C 158.592 144.275,154.996 141.257,155.170 140.800 C 157.340 135.115,157.588 134.014,157.773 129.256 L 157.966 124.326 165.916 121.677 L 173.867 119.028 174.507 119.988 C 180.697 129.275,190.796 134.449,201.561 133.849 C 209.087 133.429,214.857 130.991,220.181 125.983 C 227.173 119.405,230.417 111.430,229.852 102.213 C 229.036 88.911,219.524 77.715,206.597 74.839 C 201.590 73.725,194.568 74.168,189.902 75.892 C 185.117 77.660,181.513 80.081,177.890 83.960 C 172.878 89.327,170.239 95.963,170.059 103.653 L 169.965 107.680 161.994 110.341 C 154.422 112.869,154.001 112.962,153.589 112.193 C 152.556 110.263,148.616 106.024,146.198 104.242 C 139.921 99.617,134.738 98.009,126.760 98.212 L 121.466 98.347 117.487 89.421 L 113.508 80.495 116.031 78.212 C 122.470 72.385,125.867 64.700,125.867 55.959 C 125.867 42.675,117.462 31.272,104.747 27.303 C 100.937 26.115,93.514 25.777,89.813 26.625 M102.467 39.242 C 111.909 42.800,116.552 54.221,112.274 63.363 C 105.711 77.390,86.295 77.401,79.734 63.382 C 74.975 53.211,81.200 40.720,92.179 38.412 C 94.892 37.842,99.805 38.238,102.467 39.242 M207.908 88.019 C 219.046 93.524,221.337 108.107,212.440 116.866 C 203.648 125.520,189.071 122.772,183.779 111.463 C 182.091 107.857,181.681 102.652,182.784 98.855 C 183.815 95.311,186.636 91.467,189.793 89.307 C 193.507 86.765,195.630 86.176,200.581 86.312 C 204.342 86.416,204.950 86.558,207.908 88.019 M135.851 111.938 C 139.667 113.823,142.480 116.708,144.348 120.651 C 145.607 123.309,145.707 123.849,145.707 128.000 C 145.707 132.151,145.607 132.691,144.348 135.349 C 142.459 139.335,139.673 142.173,135.741 144.117 C 132.639 145.650,132.363 145.707,128.000 145.707 C 123.637 145.707,123.361 145.650,120.259 144.117 C 116.327 142.173,113.541 139.335,111.652 135.349 C 110.393 132.691,110.293 132.151,110.293 128.000 C 110.293 123.849,110.393 123.309,111.652 120.651 C 113.359 117.049,116.190 113.994,119.416 112.275 C 122.821 110.460,124.590 110.087,128.986 110.257 C 132.280 110.385,133.129 110.592,135.851 111.938 M203.606 166.453 C 208.836 167.564,213.558 171.161,215.914 175.828 C 221.937 187.759,213.499 201.793,200.252 201.877 C 194.125 201.916,188.664 199.113,185.305 194.205 C 182.821 190.575,182.043 187.708,182.267 183.013 C 182.423 179.761,182.651 178.861,184.030 176.072 C 187.721 168.603,195.569 164.747,203.606 166.453 M63.331 175.711 C 67.072 177.461,70.355 180.627,72.161 184.225 C 73.546 186.985,73.600 187.279,73.600 192.000 C 73.600 196.563,73.512 197.086,72.347 199.467 C 70.900 202.424,67.663 206.029,65.115 207.522 C 58.214 211.567,49.044 210.384,43.386 204.719 C 33.799 195.119,37.691 179.177,50.672 174.881 C 54.421 173.640,59.637 173.982,63.331 175.711 " stroke="none" fill-rule="evenodd"></path></svg>