<svg fill="currentColor" viewBox="0 0 256 256" xmlns="http://www.w3.org/2000/svg"><path d="M205.329 11.091 C 202.589 12.762,201.502 16.108,202.851 18.718 L 203.462 19.900 172.161 51.199 L 140.860 82.498 136.900 80.658 C 129.968 77.438,123.635 75.550,116.693 74.636 C 111.230 73.917,101.871 74.345,97.280 75.525 C 92.852 76.662,86.578 79.552,83.050 82.079 C 77.668 85.934,72.532 92.260,69.667 98.560 C 67.090 104.228,64.939 105.578,57.431 106.236 C 44.103 107.405,34.219 111.560,25.776 119.544 C 10.293 134.185,5.952 156.693,13.901 181.120 C 15.706 186.667,19.798 195.350,23.181 200.811 C 30.088 211.961,41.405 223.649,52.575 231.168 C 71.285 243.762,93.617 248.795,111.666 244.484 C 120.700 242.326,127.982 238.399,134.503 232.169 C 143.934 223.159,148.819 212.099,149.982 197.121 C 150.467 190.880,151.754 189.093,158.033 185.945 C 163.494 183.208,165.472 181.856,169.114 178.373 C 174.169 173.539,177.565 168.011,179.746 161.067 C 181.472 155.569,181.899 151.804,181.642 144.332 C 181.330 135.264,179.561 128.181,175.337 119.089 L 173.502 115.140 204.773 83.867 L 236.044 52.594 237.315 53.228 C 241.605 55.368,246.743 51.001,245.572 46.210 C 245.249 44.892,212.735 11.934,210.688 10.850 C 209.078 9.998,206.967 10.093,205.329 11.091 M219.948 36.268 L 227.621 43.950 213.864 57.707 L 200.107 71.464 192.322 63.679 L 184.537 55.894 198.186 42.241 C 205.693 34.731,211.934 28.587,212.055 28.587 C 212.176 28.587,215.728 32.043,219.948 36.268 M179.186 92.371 L 166.795 104.747 164.808 102.400 C 162.267 99.400,157.100 94.239,153.813 91.418 L 151.253 89.221 163.623 76.825 L 175.993 64.428 183.785 72.211 L 191.577 79.995 179.186 92.371 M121.205 87.593 C 123.451 88.179,126.784 89.281,128.610 90.042 L 131.930 91.424 120.475 102.885 C 111.948 111.416,108.762 114.347,108.011 114.347 C 106.136 114.347,101.807 115.689,98.650 117.250 C 85.973 123.518,79.382 138.029,83.010 151.680 C 87.595 168.926,106.412 178.432,123.022 171.892 C 132.509 168.156,140.402 158.340,141.522 148.886 C 141.756 146.912,141.977 146.658,153.168 135.472 L 164.576 124.070 165.958 127.390 C 168.445 133.364,169.466 138.191,169.697 145.067 C 169.874 150.331,169.773 151.804,169.022 154.950 C 167.437 161.594,164.149 167.070,159.328 171.094 C 158.172 172.059,154.994 173.993,152.265 175.392 C 146.576 178.308,144.130 180.286,141.684 183.949 C 139.393 187.380,138.373 190.874,137.827 197.160 C 136.914 207.673,134.156 214.634,128.105 221.697 C 124.653 225.725,118.485 229.742,112.690 231.736 C 106.315 233.930,96.480 234.511,88.510 233.165 C 76.767 231.182,63.390 224.899,52.907 216.443 C 48.782 213.117,41.009 205.073,37.860 200.873 C 30.617 191.214,25.813 180.951,23.371 169.924 C 22.024 163.839,22.017 152.407,23.357 147.107 C 27.176 132.003,37.451 122.157,52.693 118.995 C 54.805 118.556,57.589 118.192,58.880 118.185 C 65.270 118.149,71.231 115.721,75.547 111.394 C 77.810 109.125,78.821 107.626,80.819 103.576 C 85.424 94.243,91.991 88.932,101.547 86.814 C 105.942 85.840,116.023 86.239,121.205 87.593 M144.792 99.503 C 149.095 102.837,157.867 112.123,157.867 113.344 C 157.867 113.548,153.770 117.808,148.762 122.811 L 139.658 131.908 137.918 128.994 C 134.906 123.948,130.915 120.094,126.293 117.768 C 125.237 117.237,124.286 116.722,124.180 116.625 C 123.927 116.394,142.172 98.133,142.655 98.133 C 142.858 98.133,143.819 98.750,144.792 99.503 M117.013 126.790 C 118.127 127.033,120.150 127.949,121.507 128.827 C 127.690 132.823,130.667 139.388,129.647 146.773 C 129.130 150.512,127.470 153.758,124.614 156.614 C 121.770 159.458,118.600 161.082,114.560 161.764 C 105.154 163.353,95.660 156.310,94.351 146.773 C 93.529 140.791,95.255 135.517,99.386 131.386 C 104.142 126.630,109.663 125.190,117.013 126.790 M53.441 162.908 C 50.904 164.262,49.689 166.988,50.415 169.698 C 50.768 171.015,53.880 174.355,67.557 188.098 C 76.970 197.557,84.866 205.149,85.640 205.485 C 86.395 205.812,87.521 206.080,88.142 206.080 C 89.707 206.080,92.310 204.531,93.158 203.094 C 94.028 201.622,94.076 198.753,93.257 197.205 C 92.320 195.437,59.683 163.095,58.319 162.584 C 56.621 161.947,55.047 162.052,53.441 162.908 " stroke="none" fill-rule="evenodd"></path></svg>