<svg fill="currentColor" viewBox="0 0 256 256" xmlns="http://www.w3.org/2000/svg"><path d="M101.938 66.757 C 94.188 68.723,88.027 73.744,84.627 80.866 C 82.259 85.826,81.936 88.331,81.927 101.815 L 81.920 113.817 72.640 114.030 C 65.530 114.193,62.811 114.414,61.013 114.976 C 52.150 117.745,45.273 124.710,42.886 133.333 C 41.930 136.788,41.574 148.970,42.185 157.294 C 43.785 179.089,52.435 198.079,67.621 213.134 C 80.529 225.930,97.136 234.268,115.347 237.095 C 121.816 238.099,134.184 238.099,140.653 237.095 C 175.207 231.730,203.020 206.460,211.415 172.800 C 213.902 162.828,213.973 161.684,213.973 131.840 C 213.973 106.436,213.913 104.107,213.190 101.547 C 210.651 92.553,203.757 85.591,194.773 82.951 C 191.276 81.923,184.539 81.916,181.142 82.937 C 179.747 83.356,177.496 84.259,176.141 84.943 C 174.786 85.627,173.607 86.187,173.520 86.187 C 173.433 86.187,173.121 85.371,172.826 84.373 C 172.531 83.376,171.636 81.308,170.837 79.777 C 163.172 65.104,142.995 61.580,130.654 72.760 L 127.975 75.187 125.961 73.320 C 120.937 68.664,115.655 66.500,108.800 66.290 C 105.905 66.201,103.477 66.367,101.938 66.757 M113.798 79.341 C 116.435 80.484,119.555 83.646,120.884 86.521 C 121.776 88.453,121.822 89.209,122.027 105.387 C 122.216 120.324,122.322 122.356,122.963 123.261 C 125.436 126.754,130.564 126.754,133.037 123.261 C 133.678 122.356,133.784 120.324,133.973 105.387 C 134.216 86.202,134.159 86.525,138.012 82.407 C 140.821 79.403,143.489 78.313,148.053 78.302 C 151.166 78.295,152.022 78.461,154.095 79.479 C 156.992 80.902,159.272 83.312,160.796 86.562 L 161.920 88.960 162.133 105.620 C 162.325 120.581,162.423 122.397,163.097 123.425 C 165.424 126.971,171.124 126.550,173.373 122.667 C 173.681 122.133,173.947 118.535,174.080 113.067 C 174.287 104.574,174.328 104.250,175.479 101.905 C 179.489 93.740,190.427 91.557,197.131 97.584 C 198.324 98.657,199.818 100.516,200.450 101.714 L 201.600 103.893 201.599 132.907 C 201.598 161.617,201.588 161.967,200.615 166.400 C 196.409 185.564,186.257 201.191,170.750 212.374 C 166.459 215.469,156.634 220.488,151.680 222.117 C 142.039 225.287,131.551 226.595,122.347 225.775 C 112.026 224.855,104.238 222.652,94.933 218.022 C 74.416 207.812,60.376 189.477,55.403 166.400 C 54.522 162.313,54.436 160.777,54.419 148.907 L 54.400 135.893 55.550 133.714 C 56.999 130.967,60.410 127.873,63.042 126.916 C 64.606 126.348,66.983 126.134,73.493 125.974 L 81.920 125.767 81.920 139.271 C 81.920 153.825,82.013 154.527,84.198 156.541 C 85.656 157.886,88.915 158.243,90.805 157.265 C 93.816 155.708,93.630 157.878,93.867 121.619 L 94.080 88.960 95.053 86.850 C 96.971 82.690,99.545 80.220,103.395 78.844 C 106.307 77.803,110.739 78.015,113.798 79.341 " stroke="none" fill-rule="evenodd"></path></svg>