<svg fill="currentColor" viewBox="0 0 256 256" xmlns="http://www.w3.org/2000/svg"><path d="M172.930 2.968 C 170.114 4.685,170.027 5.077,170.027 16.000 C 170.027 24.776,170.111 25.979,170.797 27.026 C 173.234 30.746,178.766 30.746,181.203 27.026 C 181.889 25.979,181.973 24.776,181.973 16.000 C 181.973 7.224,181.889 6.021,181.203 4.974 C 179.428 2.264,175.605 1.337,172.930 2.968 M212.894 15.893 C 211.337 16.948,202.999 30.178,202.180 32.896 C 201.792 34.182,201.857 34.749,202.578 36.380 C 203.052 37.451,203.978 38.680,204.635 39.111 C 206.188 40.128,209.766 40.159,211.280 39.167 C 212.491 38.373,220.857 25.062,221.722 22.551 C 222.638 19.896,221.331 16.866,218.741 15.637 C 216.687 14.662,214.577 14.755,212.894 15.893 M120.747 26.293 C 114.471 27.510,108.452 31.265,105.193 35.997 L 103.557 38.373 101.236 36.252 C 93.380 29.072,80.814 28.321,71.797 34.494 C 65.513 38.796,61.959 45.268,61.569 53.120 C 61.388 56.770,61.748 58.940,63.341 63.802 C 63.599 64.590,63.360 64.717,60.796 65.156 C 52.116 66.643,44.320 73.888,42.028 82.599 C 41.663 83.986,41.359 86.757,41.352 88.758 C 41.336 93.706,42.691 97.741,46.722 104.747 L 49.913 110.293 47.250 110.597 C 41.804 111.219,35.493 114.501,31.992 118.531 C 29.893 120.949,27.130 126.519,26.492 129.621 C 25.500 134.443,26.147 139.674,28.324 144.427 C 29.714 147.462,64.029 206.847,66.877 211.145 C 71.154 217.601,75.204 222.176,81.067 227.173 C 96.614 240.425,117.181 247.247,137.038 245.738 C 148.439 244.871,156.774 242.562,167.040 237.426 C 178.336 231.775,187.770 223.609,195.682 212.636 C 198.969 208.078,203.864 198.412,205.690 192.874 C 206.888 189.243,207.308 188.530,209.913 185.702 C 227.402 166.722,234.152 138.889,227.401 113.592 C 224.892 104.190,223.796 101.943,209.988 77.876 C 200.733 61.745,199.133 59.204,196.693 56.756 C 191.989 52.036,186.523 49.765,179.840 49.754 C 171.853 49.741,164.577 53.557,159.776 60.275 L 158.932 61.456 152.355 50.035 C 148.738 43.753,144.932 37.406,143.896 35.930 C 139.760 30.036,133.192 26.547,125.653 26.242 C 123.541 26.156,121.333 26.179,120.747 26.293 M130.028 39.421 C 131.142 39.989,132.567 41.000,133.194 41.667 C 134.428 42.978,158.006 83.630,157.706 83.929 C 157.607 84.029,156.242 84.379,154.673 84.707 C 148.953 85.904,143.806 89.124,140.545 93.547 L 138.736 96.000 133.732 87.360 C 124.706 71.773,124.053 70.717,122.069 68.521 C 119.975 66.202,113.955 55.934,113.066 53.164 C 111.964 49.730,113.271 44.599,115.994 41.668 C 117.219 40.349,119.788 38.883,121.813 38.349 C 123.922 37.792,127.838 38.303,130.028 39.421 M90.667 43.416 C 93.332 44.798,95.169 47.073,99.143 53.916 C 101.169 57.404,102.827 60.315,102.827 60.385 C 102.827 60.455,102.011 60.638,101.013 60.792 C 94.316 61.826,88.067 65.783,84.366 71.334 L 83.316 72.907 82.034 71.547 C 80.369 69.782,74.359 59.198,73.757 56.972 C 73.128 54.645,73.542 51.196,74.738 48.802 C 75.936 46.403,78.792 43.803,81.205 42.913 C 83.671 42.004,88.429 42.257,90.667 43.416 M234.453 52.626 C 225.075 55.724,224.659 55.919,223.552 57.734 C 222.011 60.262,222.696 63.765,225.101 65.658 C 227.249 67.347,228.330 67.228,237.469 64.304 C 242.175 62.797,246.526 61.238,247.136 60.838 C 250.426 58.682,250.275 53.207,246.863 50.971 C 244.730 49.574,242.992 49.805,234.453 52.626 M184.973 62.959 C 186.153 63.516,187.631 64.506,188.257 65.159 C 189.750 66.719,208.529 99.132,211.440 105.173 C 219.991 122.924,220.169 143.117,211.931 160.987 C 210.857 163.317,210.085 164.534,209.902 164.187 C 209.739 163.879,209.478 161.995,209.321 160.000 C 208.702 152.129,205.620 141.487,201.659 133.547 C 199.207 128.631,180.557 96.169,178.950 94.020 C 178.399 93.283,177.404 92.131,176.740 91.460 C 174.894 89.596,168.624 78.464,168.091 76.107 C 167.240 72.337,168.231 68.695,170.916 65.723 C 174.636 61.605,179.905 60.569,184.973 62.959 M110.079 74.067 C 111.323 74.744,112.797 75.876,113.355 76.582 C 113.913 77.289,122.476 91.878,132.385 109.002 C 151.622 142.249,151.507 142.080,154.772 142.080 C 158.244 142.080,160.856 139.491,160.850 136.056 C 160.847 134.427,160.028 132.769,154.467 123.138 C 149.943 115.304,148.004 111.539,147.803 110.198 C 147.091 105.447,148.971 101.101,152.930 98.348 C 155.208 96.764,155.625 96.632,158.788 96.488 C 163.012 96.296,165.246 97.063,167.782 99.574 C 170.075 101.846,190.438 137.174,192.806 142.992 C 196.163 151.234,197.547 158.625,197.547 168.308 C 197.547 193.089,183.883 215.423,161.834 226.686 C 136.198 239.780,105.594 234.960,85.326 214.634 C 82.533 211.834,79.290 208.049,77.812 205.867 C 75.571 202.558,41.967 144.765,39.217 139.491 C 37.752 136.681,37.819 132.002,39.366 129.008 C 41.645 124.598,46.209 122.114,51.200 122.567 C 54.121 122.832,56.443 123.970,58.513 126.151 C 59.367 127.050,64.705 135.851,70.376 145.707 C 76.047 155.563,81.200 164.053,81.828 164.574 C 83.220 165.730,84.929 166.144,86.829 165.788 C 89.955 165.201,92.280 161.270,91.250 158.314 C 90.984 157.552,82.701 142.980,72.842 125.931 C 62.983 108.882,54.540 93.973,54.080 92.800 C 52.480 88.718,53.933 82.792,57.209 80.035 C 59.888 77.781,61.840 77.059,65.280 77.048 C 68.003 77.040,68.809 77.219,70.689 78.250 C 71.904 78.917,73.375 79.967,73.959 80.584 C 74.543 81.202,82.410 94.501,91.443 110.140 C 100.475 125.778,108.183 139.057,108.571 139.649 C 109.459 141.004,111.685 142.080,113.601 142.080 C 116.733 142.080,119.698 138.707,119.317 135.579 C 119.184 134.484,114.998 126.862,105.961 111.259 L 92.800 88.533 92.800 84.447 C 92.800 80.644,92.890 80.214,94.092 78.260 C 95.429 76.089,98.473 73.706,100.849 72.973 C 103.327 72.207,107.590 72.713,110.079 74.067 " stroke="none" fill-rule="evenodd"></path></svg>