<svg fill="currentColor" viewBox="0 0 256 256" xmlns="http://www.w3.org/2000/svg"><path d="M104.095 18.349 C 98.644 19.204,94.345 21.369,90.069 25.413 C 86.835 28.473,84.903 31.458,83.277 35.910 L 82.133 39.040 81.920 84.780 L 81.707 130.519 77.444 123.606 C 71.360 113.738,67.571 110.090,60.760 107.542 C 48.794 103.065,34.604 108.639,29.033 120.006 C 28.086 121.939,26.999 124.768,26.617 126.293 C 25.640 130.198,25.978 136.168,27.407 140.241 C 29.275 145.566,51.332 183.754,60.383 197.333 C 77.555 223.099,91.799 233.696,113.711 237.008 C 158.251 243.738,199.785 216.677,211.190 173.497 C 213.809 163.580,213.973 161.320,213.973 135.253 L 213.973 111.573 212.810 108.160 C 207.628 92.963,190.595 85.752,176.495 92.785 C 174.846 93.607,173.463 94.235,173.420 94.180 C 173.377 94.125,172.932 92.830,172.430 91.302 C 169.912 83.632,162.379 76.775,154.409 74.896 C 150.909 74.071,144.654 74.061,141.527 74.875 C 140.185 75.225,137.947 76.086,136.554 76.790 L 134.020 78.069 133.876 58.341 C 133.718 36.638,133.827 37.600,130.866 31.757 C 128.684 27.450,124.176 23.080,119.441 20.680 C 115.433 18.650,108.703 17.627,104.095 18.349 M114.203 31.619 C 117.240 33.064,119.134 35.035,120.704 38.381 L 121.813 40.747 122.027 77.459 C 122.225 111.567,122.293 114.253,122.991 115.317 C 125.179 118.656,130.819 118.657,133.009 115.318 C 133.643 114.353,133.795 112.805,133.983 105.407 C 134.196 97.079,134.263 96.519,135.328 94.227 C 136.649 91.384,139.206 88.761,141.998 87.386 C 143.668 86.563,144.672 86.401,148.053 86.406 C 151.616 86.412,152.371 86.551,154.286 87.556 C 155.484 88.185,157.339 89.671,158.407 90.859 C 161.648 94.464,161.806 95.273,162.095 109.674 C 162.315 120.718,162.440 122.423,163.097 123.425 C 165.422 126.967,171.209 126.539,173.350 122.667 C 173.610 122.197,173.945 119.701,174.096 117.120 C 174.436 111.318,175.405 108.819,178.407 106.012 C 181.466 103.150,183.795 102.224,187.947 102.217 C 190.741 102.212,191.798 102.414,193.773 103.330 C 196.615 104.648,199.238 107.205,200.614 109.998 L 201.600 112.000 201.721 134.827 C 201.822 153.820,201.729 158.442,201.169 162.347 C 197.330 189.126,179.419 211.537,154.149 221.180 C 136.871 227.773,115.283 227.617,100.800 220.794 C 94.811 217.972,91.169 215.328,85.531 209.707 C 75.669 199.876,68.204 188.722,49.314 155.590 C 37.691 135.203,38.184 136.246,38.199 132.104 C 38.219 126.130,40.928 121.915,46.388 119.360 C 48.890 118.189,49.409 118.098,52.612 118.275 C 56.690 118.500,59.437 119.689,61.931 122.310 C 62.788 123.210,67.910 131.052,73.313 139.736 C 78.716 148.420,83.624 155.983,84.221 156.544 C 85.659 157.895,88.913 158.244,90.828 157.253 C 91.581 156.864,92.573 155.931,93.031 155.179 C 93.845 153.843,93.864 152.612,93.865 99.022 C 93.866 60.576,94.009 43.413,94.343 41.492 C 95.306 35.963,100.017 31.216,105.387 30.363 C 108.726 29.832,111.185 30.183,114.203 31.619 " stroke="none" fill-rule="evenodd"></path></svg>