<svg fill="currentColor" viewBox="0 0 256 256" xmlns="http://www.w3.org/2000/svg"><path d="M41.894 43.547 C 38.718 45.134,36.180 47.896,35.001 51.047 C 34.163 53.287,34.133 54.264,34.133 80.000 C 34.133 105.822,34.160 106.706,35.010 108.977 C 36.234 112.249,39.026 115.209,42.325 116.732 L 45.013 117.973 128.009 117.973 L 211.005 117.973 213.853 116.571 C 217.273 114.888,219.778 112.217,220.999 108.953 C 221.837 106.713,221.867 105.736,221.867 80.000 C 221.867 54.264,221.837 53.287,220.999 51.047 C 219.820 47.896,217.282 45.134,214.106 43.547 L 211.490 42.240 128.000 42.240 L 44.510 42.240 41.894 43.547 M209.408 54.699 C 209.795 55.085,209.920 61.302,209.920 80.061 L 209.920 104.912 208.972 105.576 C 208.122 106.171,199.737 106.240,128.000 106.240 C 56.263 106.240,47.878 106.171,47.028 105.576 L 46.080 104.912 46.080 80.061 C 46.080 61.302,46.205 55.085,46.592 54.699 C 47.337 53.954,208.663 53.954,209.408 54.699 M177.491 70.347 C 173.840 71.543,171.448 73.957,170.424 77.479 C 169.333 81.231,170.495 84.878,173.639 87.569 C 176.697 90.186,180.489 90.710,184.124 89.017 C 187.853 87.280,189.867 84.119,189.867 80.000 C 189.867 76.101,187.962 72.894,184.639 71.198 C 182.749 70.234,179.146 69.805,177.491 70.347 M41.894 139.547 C 38.718 141.134,36.180 143.896,35.001 147.047 C 34.163 149.287,34.133 150.264,34.133 176.000 C 34.133 201.822,34.160 202.706,35.010 204.977 C 36.234 208.249,39.026 211.209,42.325 212.732 L 45.013 213.973 128.009 213.973 L 211.005 213.973 213.853 212.571 C 217.273 210.888,219.778 208.217,220.999 204.953 C 221.837 202.713,221.867 201.736,221.867 176.000 C 221.867 150.264,221.837 149.287,220.999 147.047 C 219.820 143.896,217.282 141.134,214.106 139.547 L 211.490 138.240 128.000 138.240 L 44.510 138.240 41.894 139.547 M209.408 150.699 C 209.795 151.085,209.920 157.302,209.920 176.061 L 209.920 200.912 208.972 201.576 C 208.122 202.171,199.737 202.240,128.000 202.240 C 56.263 202.240,47.878 202.171,47.028 201.576 L 46.080 200.912 46.080 176.061 C 46.080 157.302,46.205 151.085,46.592 150.699 C 47.337 149.954,208.663 149.954,209.408 150.699 M177.491 166.347 C 173.840 167.543,171.448 169.957,170.424 173.479 C 169.333 177.231,170.495 180.878,173.639 183.569 C 176.697 186.186,180.489 186.710,184.124 185.017 C 187.853 183.280,189.867 180.119,189.867 176.000 C 189.867 172.101,187.962 168.894,184.639 167.198 C 182.749 166.234,179.146 165.805,177.491 166.347 " stroke="none" fill-rule="evenodd"></path></svg>