<svg fill="currentColor" viewBox="0 0 256 256" xmlns="http://www.w3.org/2000/svg"><path d="M120.747 26.276 C 119.925 26.372,117.429 26.657,115.200 26.911 C 97.087 28.974,78.488 36.924,63.688 48.928 C 59.118 52.635,51.837 59.914,48.399 64.213 C 36.218 79.445,28.382 98.703,26.463 118.125 C 26.209 120.702,26.027 135.913,26.027 154.622 C 26.027 189.561,25.985 188.900,28.483 194.055 C 30.208 197.614,34.568 201.868,38.348 203.680 C 42.869 205.847,45.737 206.184,57.918 205.979 C 67.331 205.822,68.745 205.705,70.913 204.905 C 77.663 202.413,82.591 197.446,84.986 190.720 C 85.973 187.948,85.973 187.935,85.973 164.267 C 85.973 140.932,85.959 140.542,85.018 137.549 C 83.274 132.004,79.416 127.387,74.200 124.602 C 69.858 122.284,67.786 122.040,52.373 122.033 L 38.400 122.027 38.400 120.478 C 38.400 116.231,40.573 105.694,42.788 99.200 C 52.309 71.286,74.492 50.021,102.827 41.645 C 136.795 31.604,174.342 42.977,197.054 70.187 C 208.333 83.698,216.081 102.070,217.433 118.507 L 217.723 122.027 203.688 122.033 C 188.209 122.040,186.145 122.282,181.800 124.602 C 176.584 127.387,172.726 132.004,170.982 137.549 C 170.041 140.542,170.027 140.932,170.027 164.267 C 170.027 187.935,170.027 187.948,171.014 190.720 C 173.423 197.487,178.256 202.362,185.087 204.917 C 187.370 205.770,188.462 205.836,202.834 205.982 L 218.149 206.139 217.885 209.551 C 217.560 213.767,215.767 219.134,213.583 222.423 C 210.352 227.292,204.604 231.395,198.400 233.262 C 196.332 233.885,192.359 233.988,164.937 234.130 C 134.540 234.287,133.792 234.311,132.610 235.152 C 129.193 237.586,129.384 242.851,132.975 245.203 C 134.080 245.928,136.003 245.973,165.528 245.973 C 196.775 245.973,196.923 245.969,200.721 245.002 C 215.630 241.206,226.495 229.729,229.361 214.752 C 230.291 209.893,230.262 124.276,229.328 116.292 C 225.294 81.806,204.220 51.793,173.440 36.699 C 163.311 31.732,153.548 28.661,142.933 27.103 C 138.314 26.426,124.047 25.894,120.747 26.276 M68.533 135.128 C 70.523 136.193,72.387 138.223,73.238 140.253 C 73.696 141.346,73.813 146.201,73.813 164.054 L 73.813 186.482 72.737 188.605 C 71.421 191.203,68.968 193.064,65.995 193.721 C 64.587 194.032,60.462 194.156,54.613 194.064 C 46.659 193.939,45.242 193.814,43.947 193.125 C 41.857 192.011,40.185 190.370,39.108 188.373 C 38.196 186.685,38.185 186.387,38.067 160.299 L 37.948 133.931 52.361 134.059 C 66.280 134.182,66.834 134.219,68.533 135.128 M218.027 164.053 L 218.027 194.133 204.664 194.133 C 189.919 194.133,188.361 193.927,185.546 191.598 C 184.695 190.894,183.586 189.441,183.082 188.368 C 182.175 186.437,182.166 186.181,182.283 163.432 L 182.400 140.446 183.680 138.637 C 184.384 137.641,185.451 136.463,186.051 136.018 C 188.569 134.152,189.828 134.012,204.267 133.992 L 218.027 133.973 218.027 164.053 " stroke="none" fill-rule="evenodd"></path></svg>