<svg fill="currentColor" viewBox="0 0 256 256" xmlns="http://www.w3.org/2000/svg"><path d="M81.845 50.360 C 50.970 53.179,24.331 73.871,14.299 102.827 C 8.726 118.912,8.595 135.920,13.918 152.320 C 15.644 157.635,19.988 166.625,22.983 171.077 C 36.360 190.963,57.230 203.389,81.067 205.661 C 84.143 205.954,94.412 206.080,108.596 205.997 L 131.219 205.867 134.053 204.471 C 137.300 202.873,139.173 200.943,140.757 197.566 L 141.867 195.200 141.867 128.000 L 141.867 60.800 140.757 58.434 C 139.173 55.057,137.300 53.127,134.053 51.529 L 131.220 50.133 108.383 50.078 C 95.823 50.047,83.881 50.174,81.845 50.360 M129.280 62.720 C 130.126 63.566,130.133 64.142,130.133 128.000 L 130.133 192.427 129.251 193.309 C 128.377 194.183,128.166 194.189,104.611 194.028 C 84.021 193.888,80.313 193.764,76.800 193.101 C 49.719 187.990,29.370 168.268,23.359 141.305 C 22.084 135.586,21.989 121.142,23.190 115.627 C 28.988 88.999,48.879 69.001,75.015 63.520 C 81.241 62.215,85.825 61.994,108.053 61.927 C 127.900 61.868,128.449 61.889,129.280 62.720 M164.575 75.151 C 161.192 77.675,161.398 82.860,164.974 85.203 C 166.079 85.928,168.302 85.981,202.434 86.101 C 222.391 86.171,239.544 86.110,240.551 85.965 C 245.805 85.211,247.752 79.012,243.819 75.559 L 242.317 74.240 204.038 74.254 C 165.992 74.267,165.753 74.272,164.575 75.151 M164.575 107.151 C 161.192 109.675,161.398 114.860,164.974 117.203 C 166.079 117.928,168.302 117.981,202.434 118.101 C 222.391 118.171,239.544 118.110,240.551 117.965 C 245.805 117.211,247.752 111.012,243.819 107.559 L 242.317 106.240 204.038 106.254 C 165.992 106.267,165.753 106.272,164.575 107.151 M164.575 139.151 C 161.192 141.675,161.398 146.860,164.974 149.203 C 166.079 149.928,168.302 149.981,202.434 150.101 C 222.391 150.171,239.544 150.110,240.551 149.965 C 245.805 149.211,247.752 143.012,243.819 139.559 L 242.317 138.240 204.038 138.254 C 165.992 138.267,165.753 138.272,164.575 139.151 M164.575 171.151 C 161.192 173.675,161.398 178.860,164.974 181.203 C 166.079 181.928,168.302 181.981,202.434 182.101 C 222.391 182.171,239.544 182.110,240.551 181.965 C 245.805 181.211,247.752 175.012,243.819 171.559 L 242.317 170.240 204.038 170.254 C 165.992 170.267,165.753 170.272,164.575 171.151 " stroke="none" fill-rule="evenodd"></path></svg>