<svg fill="currentColor" viewBox="0 0 256 256" xmlns="http://www.w3.org/2000/svg"><path d="M68.693 42.258 C 42.951 44.732,22.455 64.254,18.541 90.027 C 16.520 103.329,19.842 117.746,27.609 129.385 C 28.733 131.070,31.859 134.759,34.555 137.584 C 47.776 151.438,124.450 228.822,125.488 229.358 C 127.016 230.149,128.997 230.142,130.546 229.341 C 132.547 228.306,223.766 135.550,226.851 131.413 C 231.627 125.009,234.964 117.649,236.819 109.431 C 238.081 103.835,238.216 93.410,237.097 87.816 C 234.794 76.297,229.742 66.744,221.665 58.640 C 213.152 50.096,202.900 44.784,191.211 42.859 C 184.808 41.804,174.624 42.175,168.747 43.677 C 163.500 45.017,160.883 46.015,155.983 48.543 C 150.367 51.441,146.527 54.490,136.957 63.650 C 132.220 68.184,128.200 71.893,128.022 71.893 C 127.844 71.893,123.528 67.912,118.430 63.045 C 108.668 53.727,104.356 50.426,97.992 47.402 C 89.246 43.245,78.340 41.330,68.693 42.258 M82.342 54.851 C 89.082 56.130,94.856 58.709,100.480 62.955 C 102.123 64.195,107.019 68.676,111.360 72.914 L 119.253 80.618 112.992 86.709 C 108.085 91.481,106.638 93.146,106.306 94.400 C 105.404 97.805,105.587 98.042,121.097 113.602 L 135.453 128.003 129.187 134.295 C 125.741 137.755,122.720 141.127,122.474 141.788 C 121.184 145.251,122.894 148.785,126.338 149.773 C 129.532 150.689,130.116 150.295,139.835 140.661 C 146.710 133.848,149.064 131.244,149.587 129.875 C 150.877 126.497,150.726 126.297,134.925 110.432 L 120.614 96.064 127.401 89.506 C 145.290 72.218,153.138 64.777,155.093 63.252 C 162.838 57.212,171.786 54.198,181.973 54.198 C 193.735 54.198,203.766 58.160,212.191 66.135 C 228.177 81.267,230.493 105.599,217.674 123.733 C 215.912 126.226,185.997 156.845,143.473 199.680 L 128.013 215.253 113.379 200.533 C 75.919 162.854,40.928 127.085,38.876 124.373 C 36.099 120.705,32.757 113.944,31.587 109.630 C 29.671 102.557,29.672 93.688,31.591 86.400 C 35.803 70.405,50.089 57.374,66.415 54.634 C 70.024 54.028,78.621 54.145,82.342 54.851 " stroke="none" fill-rule="evenodd"></path></svg>