<svg fill="currentColor" viewBox="0 0 256 256" xmlns="http://www.w3.org/2000/svg"><path d="M125.160 18.347 C 122.865 18.824,126.676 16.793,75.947 44.568 C 46.708 60.576,31.239 69.278,30.166 70.320 C 29.275 71.185,28.027 72.949,27.393 74.240 L 26.240 76.587 26.240 128.000 L 26.240 179.413 27.422 181.820 C 28.072 183.144,29.416 184.973,30.409 185.884 C 32.426 187.735,120.290 236.050,123.926 237.307 C 126.662 238.253,129.338 238.253,132.074 237.307 C 135.710 236.050,223.574 187.735,225.591 185.884 C 226.584 184.973,227.928 183.144,228.578 181.820 L 229.760 179.413 229.760 128.000 L 229.760 76.587 228.607 74.240 C 227.973 72.949,226.725 71.185,225.834 70.320 C 224.762 69.278,209.265 60.557,180.053 44.554 C 155.765 31.249,134.933 19.923,133.760 19.386 C 131.285 18.254,127.694 17.820,125.160 18.347 M172.793 54.259 C 196.850 67.414,216.869 78.560,217.280 79.029 C 217.982 79.830,218.027 82.791,218.027 128.194 C 218.027 173.668,217.983 176.547,217.280 177.177 C 216.676 177.719,137.946 221.022,130.229 225.057 L 128.070 226.186 126.222 225.244 C 120.621 222.386,39.346 177.742,38.720 177.179 C 38.017 176.547,37.973 173.658,37.973 128.000 C 37.973 82.338,38.017 79.454,38.720 78.833 C 40.368 77.379,127.813 29.867,128.416 30.099 C 128.766 30.233,148.735 41.105,172.793 54.259 " stroke="none" fill-rule="evenodd"></path></svg>