<svg fill="currentColor" viewBox="0 0 256 256" xmlns="http://www.w3.org/2000/svg"><path d="M67.978 26.638 C 63.935 27.909,60.400 31.234,58.938 35.144 C 58.055 37.504,58.027 38.198,58.027 57.752 C 58.027 80.059,58.088 80.661,60.708 84.141 C 61.627 85.362,71.340 92.924,89.817 106.803 C 105.068 118.259,117.547 127.797,117.547 128.000 C 117.547 128.203,105.068 137.741,89.817 149.197 C 71.340 163.076,61.627 170.638,60.708 171.859 C 58.088 175.339,58.027 175.941,58.027 198.248 C 58.027 217.801,58.055 218.497,58.939 220.891 C 60.188 224.273,63.727 227.812,67.109 229.061 L 69.579 229.973 128.000 229.973 L 186.421 229.973 188.891 229.061 C 192.292 227.805,195.811 224.275,197.076 220.850 C 197.988 218.382,198.002 217.991,197.882 197.597 C 197.761 176.970,197.754 176.841,196.775 174.678 C 196.234 173.481,194.986 171.718,194.002 170.759 C 193.018 169.800,180.117 159.867,165.333 148.686 C 150.549 137.505,138.453 128.201,138.453 128.011 C 138.453 127.821,150.453 118.605,165.120 107.530 C 179.787 96.456,192.688 86.517,193.790 85.443 C 194.892 84.370,196.236 82.514,196.776 81.319 C 197.754 79.160,197.761 79.022,197.882 58.403 C 198.002 37.977,197.990 37.622,197.073 35.172 C 195.895 32.024,193.077 28.969,189.920 27.419 L 187.520 26.240 128.640 26.159 C 81.045 26.093,69.419 26.185,67.978 26.638 M185.356 38.644 C 185.945 39.233,186.026 41.552,186.020 57.737 C 186.017 67.870,185.873 76.379,185.700 76.646 C 185.108 77.564,128.640 120.051,128.000 120.060 C 127.394 120.069,73.629 80.039,71.147 77.731 L 69.973 76.640 69.973 57.977 C 69.973 41.580,70.055 39.233,70.644 38.644 C 71.247 38.041,77.036 37.973,128.000 37.973 C 178.964 37.973,184.753 38.041,185.356 38.644 M156.162 156.814 L 183.811 177.707 155.939 177.816 C 140.609 177.877,115.371 177.877,99.854 177.816 L 71.641 177.707 99.714 156.695 C 115.154 145.138,127.950 135.737,128.150 135.802 C 128.349 135.868,140.955 145.324,156.162 156.814 M186.027 203.276 C 186.027 214.898,185.937 216.775,185.356 217.356 C 184.753 217.959,178.964 218.027,128.000 218.027 C 77.036 218.027,71.247 217.959,70.644 217.356 C 70.063 216.775,69.973 214.898,69.973 203.276 L 69.973 189.867 128.000 189.867 L 186.027 189.867 186.027 203.276 " stroke="none" fill-rule="evenodd"></path></svg>