<svg fill="currentColor" viewBox="0 0 256 256" xmlns="http://www.w3.org/2000/svg"><path d="M51.342 34.921 C 43.576 37.613,39.890 46.353,43.379 53.804 C 44.584 56.379,46.762 58.548,81.848 92.129 C 102.304 111.706,119.040 127.845,119.040 127.992 C 119.040 128.140,102.304 144.282,81.849 163.863 C 46.778 197.438,44.586 199.622,43.380 202.196 C 42.347 204.400,42.096 205.513,42.074 207.986 C 42.051 210.611,42.246 211.450,43.439 213.874 C 45.112 217.272,47.791 219.781,51.047 220.999 C 53.346 221.859,54.002 221.867,128.000 221.867 C 201.998 221.867,202.654 221.859,204.953 220.999 C 208.189 219.788,210.889 217.270,212.535 213.925 C 214.409 210.119,214.461 206.256,212.692 202.313 C 211.540 199.746,209.694 197.905,174.221 163.946 C 153.727 144.328,136.960 128.151,136.960 127.998 C 136.960 127.845,153.658 111.740,174.066 92.208 C 208.655 59.105,211.264 56.508,212.537 53.922 C 213.692 51.577,213.902 50.673,213.902 48.062 C 213.902 42.684,210.929 37.880,206.148 35.533 L 203.733 34.347 128.640 34.251 C 57.423 34.161,53.433 34.196,51.342 34.921 M201.301 46.592 C 202.688 47.979,201.912 48.902,188.693 61.605 L 175.573 74.213 128.000 74.213 L 80.427 74.213 67.307 61.605 C 54.088 48.902,53.312 47.979,54.699 46.592 C 55.443 45.847,200.557 45.847,201.301 46.592 M145.603 102.827 C 136.046 111.979,128.123 119.467,127.996 119.467 C 127.869 119.467,119.947 111.979,110.391 102.827 L 93.018 86.187 127.999 86.187 L 162.979 86.187 145.603 102.827 M123.124 171.383 C 125.678 174.862,130.671 174.777,133.007 171.214 C 133.675 170.195,133.784 168.501,133.973 156.144 L 134.187 142.222 167.893 174.502 C 189.530 195.223,201.650 207.124,201.739 207.735 C 202.080 210.061,206.844 209.920,128.000 209.920 C 49.148 209.920,53.920 210.062,54.261 207.733 C 54.350 207.118,66.412 195.273,88.107 174.494 L 121.813 142.211 122.027 156.195 C 122.229 169.487,122.284 170.239,123.124 171.383 " stroke="none" fill-rule="evenodd"></path></svg>