<svg fill="currentColor" viewBox="0 0 256 256" xmlns="http://www.w3.org/2000/svg"><path d="M67.978 26.638 C 63.935 27.909,60.400 31.234,58.938 35.144 C 58.055 37.504,58.027 38.198,58.027 57.752 C 58.027 80.059,58.088 80.661,60.708 84.141 C 61.627 85.362,71.340 92.924,89.817 106.803 C 105.068 118.259,117.547 127.797,117.547 128.000 C 117.547 128.203,105.068 137.741,89.817 149.197 C 71.340 163.076,61.627 170.638,60.708 171.859 C 58.088 175.339,58.027 175.941,58.027 198.248 C 58.027 217.801,58.055 218.497,58.939 220.891 C 60.188 224.273,63.727 227.812,67.109 229.061 L 69.579 229.973 128.000 229.973 L 186.421 229.973 188.891 229.061 C 192.292 227.805,195.811 224.275,197.076 220.850 C 197.988 218.382,198.002 217.991,197.882 197.597 C 197.761 176.970,197.754 176.841,196.775 174.678 C 196.234 173.481,194.986 171.718,194.002 170.759 C 193.018 169.800,180.117 159.867,165.333 148.686 C 150.549 137.505,138.453 128.201,138.453 128.011 C 138.453 127.821,150.453 118.605,165.120 107.530 C 179.787 96.456,192.688 86.517,193.790 85.443 C 194.892 84.370,196.236 82.514,196.776 81.319 C 197.754 79.160,197.761 79.022,197.882 58.403 C 198.002 37.977,197.990 37.622,197.073 35.172 C 195.895 32.024,193.077 28.969,189.920 27.419 L 187.520 26.240 128.640 26.159 C 81.045 26.093,69.419 26.185,67.978 26.638 M185.356 38.644 C 185.945 39.233,186.026 41.552,186.020 57.737 C 186.017 67.870,185.864 76.396,185.681 76.684 C 185.497 76.973,183.931 78.269,182.199 79.564 L 179.050 81.920 127.773 81.920 L 76.496 81.920 74.408 80.361 C 73.260 79.504,71.792 78.316,71.147 77.721 L 69.973 76.640 69.973 57.977 C 69.973 41.580,70.055 39.233,70.644 38.644 C 71.247 38.041,77.036 37.973,128.000 37.973 C 178.964 37.973,184.753 38.041,185.356 38.644 M162.350 94.288 C 161.823 95.140,128.619 120.055,128.000 120.063 C 127.400 120.070,93.013 94.529,93.013 94.076 C 93.013 93.961,108.673 93.867,127.812 93.867 C 150.623 93.867,162.521 94.012,162.350 94.288 M123.124 171.383 C 125.855 175.104,131.147 174.713,133.226 170.636 C 133.893 169.329,133.972 167.640,133.973 154.773 C 133.973 146.853,134.074 140.373,134.196 140.373 C 134.543 140.373,185.346 178.840,185.700 179.370 C 185.873 179.629,186.017 188.130,186.020 198.263 C 186.026 214.448,185.945 216.767,185.356 217.356 C 184.753 217.959,178.964 218.027,128.000 218.027 C 77.036 218.027,71.247 217.959,70.644 217.356 C 70.055 216.767,69.973 214.415,69.973 197.964 L 69.973 179.242 71.787 177.742 C 72.784 176.916,84.448 168.110,97.707 158.171 L 121.813 140.102 122.027 155.140 C 122.230 169.500,122.280 170.233,123.124 171.383 " stroke="none" fill-rule="evenodd"></path></svg>