<svg fill="currentColor" viewBox="0 0 256 256" xmlns="http://www.w3.org/2000/svg"><path d="M123.449 26.788 C 122.236 27.223,120.604 28.072,119.822 28.676 C 117.004 30.850,38.154 105.450,36.813 107.210 C 33.978 110.933,34.133 107.764,34.133 161.767 L 34.133 210.741 35.052 213.197 C 36.292 216.512,39.488 219.708,42.803 220.948 L 45.259 221.867 128.000 221.867 L 210.741 221.867 213.138 220.970 C 216.379 219.757,219.757 216.379,220.970 213.138 C 221.862 210.754,221.867 210.484,221.867 161.981 C 221.867 108.218,221.993 110.807,219.198 107.253 C 218.436 106.285,199.518 88.237,177.157 67.147 C 146.327 38.068,135.934 28.508,134.156 27.593 C 131.026 25.981,126.624 25.650,123.449 26.788 M168.586 75.555 C 190.498 96.225,208.763 113.526,209.173 114.002 C 209.875 114.815,209.920 117.721,209.920 161.882 C 209.920 197.880,209.800 209.016,209.408 209.408 C 208.663 210.153,47.337 210.153,46.592 209.408 C 46.200 209.016,46.082 197.855,46.088 161.728 L 46.097 114.560 86.677 76.267 C 108.997 55.205,127.593 37.973,128.002 37.973 C 128.411 37.973,146.674 54.885,168.586 75.555 " stroke="none" fill-rule="evenodd"></path></svg>