<svg fill="currentColor" viewBox="0 0 256 256" xmlns="http://www.w3.org/2000/svg"><path d="M35.286 42.853 C 32.739 43.765,30.421 45.492,28.799 47.686 C 25.816 51.724,26.005 45.960,26.129 128.872 L 26.240 203.733 27.202 205.686 C 28.766 208.858,30.933 211.041,34.036 212.569 L 36.889 213.973 128.000 213.973 L 219.111 213.973 221.964 212.569 C 225.066 211.042,227.185 208.908,228.776 205.711 L 229.760 203.733 229.760 128.000 L 229.760 52.267 228.776 50.289 C 227.336 47.394,225.251 45.155,222.660 43.720 L 220.373 42.453 128.640 42.363 C 52.229 42.288,36.636 42.370,35.286 42.853 M217.549 54.765 C 217.902 55.190,218.000 74.718,217.921 128.246 L 217.813 201.148 216.747 201.688 C 215.179 202.481,40.821 202.481,39.253 201.688 L 38.187 201.148 38.079 128.246 C 38.000 74.718,38.098 55.190,38.451 54.765 C 39.168 53.901,216.832 53.901,217.549 54.765 M90.591 90.466 C 83.595 91.727,76.524 96.070,72.217 101.752 C 68.208 107.041,66.133 113.251,66.133 119.959 C 66.133 127.500,68.905 134.700,73.910 140.162 C 75.331 141.714,76.323 143.122,76.114 143.293 C 75.905 143.463,74.634 144.336,73.291 145.232 C 68.531 148.409,63.602 154.000,61.027 159.147 C 59.393 162.412,58.027 166.561,58.027 168.259 C 58.027 171.388,61.421 174.310,64.603 173.920 C 67.637 173.549,68.632 172.382,71.015 166.400 C 73.945 159.044,81.449 152.766,89.600 150.851 C 93.148 150.017,98.852 150.017,102.400 150.851 C 110.551 152.766,118.055 159.044,120.985 166.400 C 123.368 172.382,124.363 173.549,127.397 173.920 C 130.579 174.310,133.973 171.388,133.973 168.259 C 133.973 166.561,132.607 162.412,130.973 159.147 C 128.398 154.000,123.469 148.409,118.709 145.232 C 117.366 144.336,116.095 143.463,115.886 143.293 C 115.677 143.122,116.669 141.714,118.090 140.162 C 126.193 131.319,128.181 118.299,123.108 107.307 C 118.389 97.084,108.639 90.627,97.319 90.227 C 94.834 90.140,91.806 90.247,90.591 90.466 M102.467 103.242 C 111.909 106.800,116.552 118.221,112.274 127.363 C 105.711 141.390,86.295 141.401,79.734 127.382 C 74.975 117.211,81.200 104.720,92.179 102.412 C 94.892 101.842,99.805 102.238,102.467 103.242 M148.787 106.998 C 147.554 107.762,145.920 110.613,145.920 112.000 C 145.920 113.485,147.601 116.281,149.004 117.129 C 150.336 117.934,151.348 117.979,170.990 118.096 C 193.157 118.227,194.245 118.141,196.303 116.083 C 198.724 113.661,198.291 109.118,195.457 107.214 L 194.007 106.240 171.990 106.251 C 151.907 106.262,149.869 106.327,148.787 106.998 M148.787 138.998 C 147.554 139.762,145.920 142.613,145.920 144.000 C 145.920 145.485,147.601 148.281,149.004 149.129 C 150.336 149.934,151.348 149.979,170.990 150.096 C 193.157 150.227,194.245 150.141,196.303 148.083 C 198.724 145.661,198.291 141.118,195.457 139.214 L 194.007 138.240 171.990 138.251 C 151.907 138.262,149.869 138.327,148.787 138.998 " stroke="none" fill-rule="evenodd"></path></svg>