<svg fill="currentColor" viewBox="0 0 256 256" xmlns="http://www.w3.org/2000/svg"><path d="M43.419 34.778 C 39.481 36.228,36.414 39.235,34.955 43.073 C 34.154 45.181,34.133 47.323,34.133 127.989 L 34.133 210.741 35.052 213.197 C 36.292 216.512,39.488 219.708,42.803 220.948 L 45.259 221.867 128.000 221.867 L 210.741 221.867 213.138 220.970 C 216.379 219.757,219.757 216.379,220.970 213.138 L 221.867 210.741 221.867 128.000 C 221.867 45.292,221.866 45.258,220.981 42.891 C 219.902 40.008,216.957 36.857,213.973 35.393 L 211.840 34.347 128.427 34.268 C 58.514 34.203,44.755 34.285,43.419 34.778 M209.408 46.592 C 209.799 46.983,209.920 56.870,209.920 88.493 L 209.920 129.881 195.307 115.339 C 178.194 98.311,178.250 98.351,171.947 98.350 C 168.526 98.349,167.593 98.505,165.973 99.348 C 164.632 100.046,147.517 116.871,109.224 155.134 L 54.396 209.920 50.750 209.920 C 48.483 209.920,46.910 209.726,46.592 209.408 C 45.847 208.663,45.847 47.337,46.592 46.592 C 47.337 45.847,208.663 45.847,209.408 46.592 M89.600 75.045 C 85.923 76.233,83.869 77.456,80.934 80.202 C 76.454 84.393,74.099 89.835,74.099 96.000 C 74.099 108.118,83.882 117.901,96.000 117.901 C 108.118 117.901,117.901 108.118,117.901 96.000 C 117.901 89.833,115.547 84.393,111.063 80.198 C 106.490 75.921,102.135 74.225,95.816 74.263 C 93.329 74.278,91.108 74.557,89.600 75.045 M101.365 87.697 C 104.406 89.577,105.941 92.664,105.733 96.478 C 105.611 98.699,105.308 99.736,104.309 101.339 C 100.511 107.435,91.483 107.426,87.680 101.322 C 86.548 99.505,86.400 98.889,86.400 96.000 C 86.400 93.111,86.549 92.492,87.687 90.652 C 89.578 87.593,92.655 86.058,96.478 86.267 C 98.698 86.389,99.743 86.694,101.365 87.697 M191.455 128.527 L 209.920 146.973 209.920 177.935 C 209.920 201.447,209.797 209.019,209.408 209.408 C 209.014 209.802,193.010 209.920,139.968 209.919 L 71.040 209.919 120.964 159.999 C 160.231 120.736,171.112 110.080,171.939 110.080 C 172.756 110.080,177.116 114.201,191.455 128.527 " stroke="none" fill-rule="evenodd"></path></svg>