<svg fill="currentColor" viewBox="0 0 256 256" xmlns="http://www.w3.org/2000/svg"><path d="M67.286 42.853 C 64.737 43.766,62.420 45.493,60.802 47.686 C 58.293 51.086,58.027 52.659,58.027 64.052 L 58.027 74.188 46.827 74.321 L 35.627 74.453 33.340 75.720 C 30.751 77.154,28.613 79.451,27.202 82.314 L 26.240 84.267 26.240 144.000 L 26.240 203.733 27.202 205.686 C 28.766 208.858,30.933 211.041,34.036 212.569 L 36.889 213.973 112.000 213.973 L 187.111 213.973 189.964 212.569 C 193.066 211.042,195.185 208.908,196.776 205.711 C 197.712 203.829,197.766 203.212,197.893 192.998 L 198.026 182.262 208.570 182.118 L 219.114 181.973 221.966 180.569 C 225.066 179.042,227.186 176.907,228.776 173.711 L 229.760 171.733 229.760 112.000 L 229.760 52.267 228.776 50.289 C 227.336 47.394,225.251 45.155,222.660 43.720 L 220.373 42.453 144.640 42.363 C 81.687 42.288,68.633 42.371,67.286 42.853 M217.515 54.699 C 217.904 55.088,218.027 63.362,218.027 89.331 L 218.027 123.452 210.240 115.769 C 203.305 108.926,202.173 107.980,199.893 107.126 C 196.515 105.860,191.502 106.011,188.504 107.470 C 187.121 108.143,182.883 111.992,174.818 119.898 L 163.134 131.350 139.914 108.112 C 113.499 81.677,114.064 82.136,107.967 82.154 C 102.079 82.171,101.746 82.418,84.801 99.318 L 69.973 114.106 69.973 84.658 C 69.973 62.323,70.097 55.087,70.485 54.699 C 71.230 53.954,216.770 53.954,217.515 54.699 M166.826 75.627 C 158.297 80.748,162.063 93.867,172.063 93.867 C 178.600 93.867,183.403 87.576,181.592 81.387 C 180.247 76.792,176.786 74.240,171.900 74.240 C 169.539 74.240,168.798 74.443,166.826 75.627 M58.125 128.960 L 58.240 171.733 59.202 173.686 C 60.765 176.858,62.933 179.041,66.035 180.569 L 68.888 181.973 127.466 182.089 L 186.043 182.204 185.928 191.677 L 185.813 201.149 184.747 201.688 C 183.180 202.480,40.819 202.480,39.253 201.688 L 38.187 201.148 38.078 144.246 C 37.999 102.549,38.099 87.190,38.451 86.766 C 38.829 86.310,40.959 86.187,48.471 86.187 L 58.011 86.187 58.125 128.960 M134.175 119.443 C 148.270 133.519,160.327 145.222,160.988 145.470 C 162.653 146.094,164.525 146.032,165.888 145.308 C 166.522 144.971,172.991 138.731,180.264 131.441 C 190.565 121.116,193.724 118.187,194.554 118.187 C 195.380 118.187,198.150 120.714,206.824 129.384 L 218.027 140.581 218.027 154.746 C 218.027 168.901,218.026 168.912,217.078 169.576 C 216.229 170.171,208.621 170.239,144.225 170.234 C 87.115 170.229,72.101 170.116,71.253 169.688 L 70.187 169.148 70.076 150.172 L 69.965 131.196 88.647 112.531 C 98.922 102.266,107.607 93.867,107.946 93.867 C 108.286 93.867,120.089 105.376,134.175 119.443 " stroke="none" fill-rule="evenodd"></path></svg>