<svg fill="currentColor" viewBox="0 0 256 256" xmlns="http://www.w3.org/2000/svg"><path d="M75.419 34.777 C 71.480 36.229,68.414 39.235,66.955 43.073 C 66.225 44.994,66.133 46.402,66.133 55.664 L 66.133 66.093 55.147 66.220 C 44.470 66.343,44.100 66.376,42.027 67.395 C 38.943 68.911,36.143 71.887,35.048 74.815 L 34.133 77.259 34.133 144.000 L 34.133 210.741 35.052 213.197 C 36.292 216.512,39.488 219.708,42.803 220.948 L 45.259 221.867 112.000 221.867 L 178.741 221.867 181.138 220.970 C 184.379 219.757,187.757 216.379,188.970 213.138 C 189.791 210.943,189.867 209.865,189.867 200.304 L 189.867 189.867 200.304 189.867 C 209.865 189.867,210.943 189.791,213.138 188.970 C 216.379 187.757,219.757 184.379,220.970 181.138 L 221.867 178.741 221.867 112.000 C 221.867 45.487,221.864 45.251,220.981 42.891 C 219.902 40.008,216.957 36.857,213.973 35.393 L 211.840 34.347 144.427 34.268 C 88.077 34.202,76.752 34.286,75.419 34.777 M209.408 46.592 C 209.798 46.982,209.920 56.019,209.920 84.661 L 209.920 122.218 198.933 111.288 C 192.090 104.480,187.223 99.980,186.027 99.354 C 184.402 98.504,183.483 98.349,180.053 98.350 C 176.433 98.351,175.749 98.481,173.653 99.565 C 171.761 100.545,163.836 108.241,132.686 139.350 L 94.065 177.920 86.584 177.920 C 81.335 177.920,78.951 177.767,78.592 177.408 C 77.848 176.664,77.848 47.336,78.592 46.592 C 79.336 45.848,208.664 45.848,209.408 46.592 M114.464 66.790 C 104.649 69.433,98.133 77.914,98.133 88.045 C 98.133 94.336,100.067 98.886,104.700 103.501 C 108.198 106.984,111.140 108.553,116.095 109.577 C 130.719 112.601,144.601 98.719,141.577 84.095 C 140.547 79.111,138.986 76.194,135.501 72.739 C 132.157 69.425,129.417 67.772,125.638 66.787 C 122.556 65.985,117.450 65.986,114.464 66.790 M66.133 128.411 L 66.133 178.741 67.052 181.197 C 68.292 184.512,71.488 187.708,74.803 188.948 L 77.259 189.867 127.589 189.867 L 177.920 189.867 177.920 199.381 C 177.920 206.213,177.776 209.040,177.408 209.408 C 176.664 210.152,47.336 210.152,46.592 209.408 C 45.848 208.664,45.848 79.336,46.592 78.592 C 46.960 78.224,49.787 78.080,56.619 78.080 L 66.133 78.080 66.133 128.411 M125.243 79.591 C 130.488 82.858,131.443 90.297,127.205 94.866 C 122.562 99.871,114.242 98.637,111.178 92.489 C 109.189 88.498,109.891 84.222,113.055 81.050 C 115.364 78.735,117.091 78.088,120.595 78.225 C 122.645 78.306,123.658 78.603,125.243 79.591 M195.230 124.480 L 209.908 138.880 209.914 157.888 C 209.918 172.110,209.791 177.025,209.408 177.408 C 209.016 177.800,197.467 177.920,160.021 177.919 L 111.147 177.918 145.072 143.999 C 165.175 123.900,179.314 110.080,179.775 110.080 C 180.221 110.080,186.802 116.212,195.230 124.480 " stroke="none" fill-rule="evenodd"></path></svg>