<svg fill="currentColor" viewBox="0 0 256 256" xmlns="http://www.w3.org/2000/svg"><path d="M44.587 43.470 C 41.732 44.840,39.359 47.107,37.989 49.771 C 37.423 50.871,35.190 60.355,32.088 74.837 L 27.098 98.133 20.696 98.135 C 13.692 98.137,12.421 98.496,10.832 100.920 C 9.861 102.402,9.897 105.314,10.906 107.023 C 12.322 109.419,14.420 110.080,20.610 110.080 L 26.016 110.080 26.128 160.747 L 26.240 211.413 27.371 213.826 C 28.706 216.674,31.266 219.295,34.051 220.667 C 36.035 221.645,36.196 221.653,52.053 221.653 L 68.053 221.653 70.204 220.518 C 72.820 219.137,75.702 216.098,76.945 213.408 C 77.823 211.507,77.873 210.727,77.999 196.800 L 78.131 182.187 128.000 182.187 L 177.869 182.187 178.001 196.800 C 178.127 210.727,178.177 211.507,179.055 213.408 C 180.298 216.098,183.180 219.137,185.796 220.518 L 187.947 221.653 203.947 221.653 C 219.804 221.653,219.965 221.645,221.949 220.667 C 224.734 219.295,227.294 216.674,228.629 213.826 L 229.760 211.413 229.872 160.747 L 229.984 110.080 235.390 110.080 C 241.580 110.080,243.678 109.419,245.094 107.023 C 246.103 105.314,246.139 102.402,245.168 100.920 C 243.579 98.495,242.309 98.137,235.302 98.135 L 228.898 98.133 224.059 75.413 C 221.040 61.235,218.828 51.811,218.175 50.347 C 216.798 47.258,214.558 44.979,211.413 43.470 L 208.853 42.241 128.000 42.241 L 47.147 42.241 44.587 43.470 M206.826 54.538 C 207.281 54.827,216.320 95.738,216.320 97.510 C 216.320 98.055,205.146 98.133,128.000 98.133 C 44.166 98.133,39.681 98.095,39.692 97.387 C 39.719 95.668,48.595 55.395,49.074 54.818 C 49.533 54.265,59.314 54.187,127.946 54.193 C 171.037 54.197,206.533 54.352,206.826 54.538 M218.027 140.160 L 218.027 170.240 184.124 170.240 L 150.222 170.240 150.097 152.194 C 149.984 135.643,149.910 134.050,149.203 132.974 C 146.765 129.254,141.235 129.254,138.797 132.974 C 138.090 134.050,138.016 135.643,137.903 152.194 L 137.778 170.240 128.000 170.240 L 118.222 170.240 118.097 152.194 C 117.984 135.643,117.910 134.050,117.203 132.974 C 114.765 129.254,109.235 129.254,106.797 132.974 C 106.090 134.050,106.016 135.643,105.903 152.194 L 105.778 170.240 71.876 170.240 L 37.973 170.240 37.973 140.160 L 37.973 110.080 128.000 110.080 L 218.027 110.080 218.027 140.160 M63.671 131.036 C 57.787 133.949,56.186 141.656,60.479 146.408 C 63.342 149.576,66.841 150.662,70.634 149.559 C 77.506 147.561,80.137 139.825,75.922 134.008 C 73.339 130.442,67.657 129.063,63.671 131.036 M183.599 131.173 C 175.404 134.988,176.558 146.998,185.366 149.559 C 194.678 152.266,201.882 140.970,195.557 133.581 C 192.582 130.106,187.911 129.165,183.599 131.173 M66.044 195.643 C 65.939 207.046,65.822 209.160,65.280 209.503 C 64.914 209.734,59.117 209.910,51.748 209.913 C 39.436 209.920,38.837 209.883,38.415 209.095 C 38.138 208.577,37.973 203.402,37.973 195.228 L 37.973 182.187 52.071 182.187 L 66.168 182.187 66.044 195.643 M218.027 195.228 C 218.027 203.402,217.862 208.577,217.585 209.095 C 217.163 209.883,216.557 209.920,203.947 209.920 C 191.336 209.920,190.730 209.883,190.308 209.095 C 190.032 208.577,189.867 203.402,189.867 195.228 L 189.867 182.187 203.947 182.187 L 218.027 182.187 218.027 195.228 " stroke="none" fill-rule="evenodd"></path></svg>