<svg fill="currentColor" viewBox="0 0 256 256" xmlns="http://www.w3.org/2000/svg"><path d="M153.387 18.362 C 140.862 19.408,127.674 23.995,117.020 31.012 C 91.215 48.005,77.918 78.787,83.189 109.329 C 83.645 111.971,84.509 115.762,85.109 117.752 L 86.201 121.370 56.585 151.032 C 40.296 167.346,26.757 181.113,26.498 181.625 C 26.173 182.268,26.027 189.211,26.028 204.025 C 26.030 224.694,26.061 225.545,26.878 226.884 C 27.344 227.649,28.351 228.656,29.116 229.122 C 30.455 229.938,31.305 229.970,51.840 229.971 C 75.363 229.972,74.973 230.014,76.983 227.277 C 77.807 226.154,77.875 225.404,77.995 216.098 L 78.124 206.124 88.098 205.995 C 97.404 205.875,98.154 205.807,99.277 204.983 C 101.762 203.158,101.972 202.122,101.973 191.680 L 101.973 182.187 111.043 182.187 C 116.031 182.187,120.780 181.995,121.596 181.761 C 122.641 181.462,124.788 179.636,128.847 175.597 L 134.613 169.858 138.880 171.065 C 162.190 177.658,186.961 173.013,206.701 158.347 C 224.670 144.996,235.634 124.958,237.719 101.653 C 239.019 87.134,235.176 70.307,227.537 57.063 C 214.867 35.097,192.003 20.628,166.379 18.360 C 161.009 17.884,159.104 17.885,153.387 18.362 M169.173 30.762 C 182.879 32.490,196.182 39.154,206.535 49.479 C 220.350 63.255,227.026 81.306,225.640 101.133 C 224.008 124.485,209.251 145.860,187.927 155.759 C 178.768 160.011,170.273 161.869,160.000 161.869 C 151.919 161.869,146.245 160.961,138.828 158.479 C 136.418 157.673,133.696 157.013,132.780 157.013 C 130.595 157.013,129.127 158.130,122.460 164.862 L 117.133 170.240 105.606 170.242 C 89.311 170.244,90.027 169.588,90.027 184.520 L 90.027 194.133 80.192 194.133 C 69.293 194.133,68.511 194.292,66.969 196.821 C 66.207 198.072,66.136 199.020,66.135 208.107 L 66.133 218.027 52.053 218.027 L 37.973 218.027 37.973 202.345 L 37.973 186.664 67.243 157.439 C 83.341 141.365,97.069 127.465,97.749 126.549 C 99.366 124.375,99.353 122.556,97.688 117.707 C 89.547 93.996,95.243 68.221,112.608 50.192 C 127.332 34.904,147.388 28.015,169.173 30.762 M175.458 67.231 C 169.390 70.255,168.159 78.155,173.002 82.998 C 177.845 87.841,185.745 86.610,188.769 80.542 C 193.098 71.855,184.145 62.902,175.458 67.231 " stroke="none" fill-rule="evenodd"></path></svg>