<svg fill="currentColor" viewBox="0 0 256 256" xmlns="http://www.w3.org/2000/svg"><path d="M52.053 50.395 C 50.763 50.602,48.147 51.537,46.242 52.472 C 41.095 54.999,37.441 59.098,35.051 65.025 C 34.414 66.606,34.326 71.705,34.133 118.400 L 33.920 170.027 27.733 170.240 C 20.722 170.482,20.099 170.710,18.723 173.547 C 17.891 175.263,17.853 175.927,18.021 185.920 C 18.178 195.331,18.295 196.745,19.095 198.913 C 21.604 205.711,26.506 210.574,33.280 212.986 L 36.053 213.973 128.000 213.973 L 219.947 213.973 222.720 212.986 C 229.446 210.591,234.413 205.663,236.905 198.913 C 237.705 196.745,237.822 195.331,237.979 185.920 C 238.147 175.927,238.109 175.263,237.277 173.547 C 235.901 170.710,235.278 170.482,228.267 170.240 L 222.080 170.027 221.867 118.400 C 221.674 71.705,221.586 66.606,220.949 65.025 C 219.517 61.474,218.388 59.695,215.837 56.967 C 212.701 53.615,207.895 51.036,203.520 50.357 C 200.040 49.817,55.438 49.854,52.053 50.395 M204.800 63.405 C 206.432 64.327,207.536 65.356,208.427 66.785 L 209.707 68.840 209.818 119.540 L 209.930 170.240 128.005 170.240 L 46.080 170.240 46.080 119.942 L 46.080 69.644 47.272 67.362 C 48.591 64.837,51.292 62.820,54.093 62.270 C 54.966 62.098,88.704 61.985,129.067 62.019 L 202.453 62.080 204.800 63.405 M109.426 82.772 C 107.302 83.824,106.098 85.771,106.098 88.153 C 106.098 90.269,107.029 91.873,108.930 93.032 C 110.223 93.821,111.200 93.863,128.000 93.863 C 144.800 93.863,145.777 93.821,147.070 93.032 C 148.971 91.873,149.902 90.269,149.902 88.153 C 149.902 85.755,148.683 83.801,146.541 82.764 C 144.894 81.967,143.865 81.920,127.972 81.920 C 112.017 81.921,111.058 81.965,109.426 82.772 M226.133 187.072 C 226.133 189.759,225.924 192.936,225.667 194.131 C 225.060 196.961,223.032 199.572,220.381 200.937 L 218.263 202.027 128.000 202.027 L 37.737 202.027 35.619 200.937 C 32.968 199.572,30.940 196.961,30.333 194.131 C 30.076 192.936,29.867 189.759,29.867 187.072 L 29.867 182.187 128.000 182.187 L 226.133 182.187 226.133 187.072 " stroke="none" fill-rule="evenodd"></path></svg>