<svg fill="currentColor" viewBox="0 0 256 256" xmlns="http://www.w3.org/2000/svg"><path d="M35.286 42.853 C 32.739 43.765,30.421 45.492,28.799 47.686 C 25.816 51.724,26.005 45.960,26.129 128.872 L 26.240 203.733 27.202 205.686 C 28.766 208.858,30.933 211.041,34.036 212.569 L 36.889 213.973 128.000 213.973 L 219.111 213.973 221.964 212.569 C 225.066 211.042,227.185 208.908,228.776 205.711 L 229.760 203.733 229.760 128.000 L 229.760 52.267 228.776 50.289 C 227.336 47.394,225.251 45.155,222.660 43.720 L 220.373 42.453 128.640 42.363 C 52.229 42.288,36.636 42.370,35.286 42.853 M217.515 54.699 C 217.899 55.083,218.027 60.549,218.027 76.672 L 218.027 98.133 128.000 98.133 L 37.973 98.133 37.973 76.672 C 37.973 60.549,38.101 55.083,38.485 54.699 C 39.231 53.953,216.769 53.953,217.515 54.699 M98.029 156.053 L 97.920 202.027 68.652 202.027 C 44.472 202.027,39.262 201.925,38.679 201.441 C 38.031 200.903,37.973 197.163,37.973 155.468 L 37.973 110.080 68.055 110.080 L 98.137 110.080 98.029 156.053 M217.922 155.614 L 217.813 201.148 216.747 201.688 C 215.904 202.114,204.592 202.229,162.880 202.234 L 110.080 202.240 110.080 156.160 L 110.080 110.080 164.055 110.080 L 218.031 110.080 217.922 155.614 " stroke="none" fill-rule="evenodd"></path></svg>