<svg fill="currentColor" viewBox="0 0 256 256" xmlns="http://www.w3.org/2000/svg"><path d="M123.240 10.853 C 122.383 11.180,121.141 11.800,120.482 12.230 C 119.822 12.661,109.388 21.811,97.295 32.563 C 79.016 48.814,75.184 52.413,74.577 53.896 C 74.050 55.185,73.187 62.544,71.466 80.427 C 70.156 94.037,69.002 105.413,68.902 105.707 C 68.766 106.105,66.891 106.240,61.482 106.240 L 54.243 106.240 54.108 96.320 C 53.955 85.034,53.769 84.327,50.541 82.764 C 48.361 81.709,47.639 81.709,45.459 82.764 C 42.055 84.412,42.027 84.553,42.027 100.129 C 42.027 113.329,42.061 113.903,42.906 115.036 C 45.097 117.970,45.052 117.960,56.974 118.107 L 67.808 118.240 67.605 119.387 C 67.187 121.750,58.027 214.587,58.027 216.463 C 58.027 221.542,62.126 227.220,67.125 229.067 L 69.610 229.985 128.565 229.873 L 187.520 229.760 189.745 228.754 C 192.393 227.557,195.554 224.329,196.769 221.581 C 197.247 220.501,197.729 218.539,197.840 217.222 C 197.998 215.359,189.436 126.653,188.418 119.600 L 188.222 118.239 199.041 118.106 C 210.946 117.960,210.903 117.969,213.094 115.036 C 213.939 113.903,213.973 113.329,213.973 100.129 C 213.973 84.553,213.945 84.412,210.541 82.764 C 208.361 81.709,207.639 81.709,205.459 82.764 C 202.231 84.327,202.045 85.034,201.892 96.320 L 201.757 106.240 194.518 106.240 C 189.109 106.240,187.234 106.105,187.098 105.707 C 186.998 105.413,185.844 94.037,184.534 80.427 C 182.813 62.547,181.950 55.185,181.423 53.895 C 180.816 52.410,176.947 48.780,158.376 32.268 C 144.748 20.153,135.278 12.043,134.056 11.442 C 131.590 10.230,125.716 9.911,123.240 10.853 M144.567 36.053 L 159.935 49.707 143.967 49.818 C 135.185 49.880,120.816 49.880,112.035 49.818 L 96.070 49.707 111.502 35.952 C 124.340 24.510,127.124 22.215,128.066 22.299 C 128.876 22.371,133.580 26.292,144.567 36.053 M170.670 62.613 C 170.671 63.024,171.630 72.864,172.800 84.480 C 173.970 96.096,174.929 105.744,174.930 105.920 C 174.932 106.096,165.717 106.240,154.453 106.240 L 133.973 106.240 133.973 96.533 C 133.972 88.135,133.871 86.629,133.226 85.364 C 132.108 83.170,130.501 82.183,128.052 82.183 C 125.640 82.183,124.078 83.042,122.861 85.037 C 122.100 86.285,122.030 87.240,122.028 96.320 L 122.027 106.240 101.547 106.240 C 90.283 106.240,81.068 106.096,81.070 105.920 C 81.071 105.744,82.030 96.096,83.200 84.480 C 84.370 72.864,85.329 63.024,85.330 62.613 C 85.333 61.907,87.651 61.867,128.000 61.867 C 168.349 61.867,170.667 61.907,170.670 62.613 M176.216 118.507 C 176.218 118.683,177.177 128.331,178.347 139.947 C 179.517 151.563,180.476 161.307,180.477 161.600 C 180.479 162.024,169.701 162.133,128.000 162.133 C 86.299 162.133,75.521 162.024,75.523 161.600 C 75.524 161.307,76.483 151.563,77.653 139.947 C 78.823 128.331,79.782 118.683,79.784 118.507 C 79.785 118.331,101.483 118.187,128.000 118.187 C 154.517 118.187,176.215 118.331,176.216 118.507 M181.760 174.198 C 181.760 174.263,182.719 183.719,183.892 195.211 C 185.064 206.704,186.024 216.237,186.025 216.396 C 186.026 216.555,185.725 216.987,185.356 217.356 C 184.753 217.959,178.964 218.027,128.000 218.027 C 77.036 218.027,71.247 217.959,70.644 217.356 C 70.275 216.987,69.974 216.555,69.975 216.396 C 69.976 216.237,70.936 206.704,72.108 195.211 C 73.281 183.719,74.240 174.263,74.240 174.198 C 74.240 174.133,98.432 174.080,128.000 174.080 C 157.568 174.080,181.760 174.133,181.760 174.198 " stroke="none" fill-rule="evenodd"></path></svg>