<svg fill="currentColor" viewBox="0 0 256 256" xmlns="http://www.w3.org/2000/svg"><path d="M185.245 34.788 C 183.759 35.110,180.975 36.141,179.059 37.078 C 172.543 40.264,168.234 44.569,165.134 50.987 C 162.671 56.086,161.966 59.608,162.250 65.393 C 162.506 70.622,163.383 73.919,165.661 78.217 L 166.978 80.701 123.840 123.840 L 80.701 166.978 78.217 165.661 C 73.545 163.184,69.953 162.347,64.000 162.347 C 59.613 162.347,58.099 162.523,55.467 163.341 C 42.527 167.364,34.133 178.640,34.133 192.000 C 34.133 200.301,37.033 207.296,42.890 213.120 C 48.801 218.998,55.724 221.867,64.000 221.867 C 75.736 221.867,85.779 215.566,90.862 205.013 C 93.008 200.557,93.868 196.876,93.859 192.186 C 93.849 187.117,92.981 183.277,90.849 178.871 L 89.087 175.233 132.170 132.150 L 175.253 89.067 178.704 90.794 C 183.552 93.220,187.505 94.020,193.428 93.771 C 200.984 93.454,207.012 90.967,212.468 85.916 C 225.741 73.627,225.032 52.209,210.976 40.838 C 207.660 38.155,202.367 35.558,198.613 34.773 C 194.925 34.001,188.837 34.008,185.245 34.788 M196.497 46.738 C 205.024 48.945,210.469 56.657,209.795 65.572 C 209.100 74.762,201.348 81.920,192.091 81.920 C 184.825 81.920,178.833 78.062,175.644 71.330 C 174.394 68.693,174.293 68.145,174.293 64.000 C 174.293 59.842,174.392 59.312,175.662 56.630 C 179.455 48.624,188.037 44.549,196.497 46.738 M68.403 174.718 C 71.942 175.640,74.090 176.861,76.618 179.389 C 86.058 188.829,82.301 204.770,69.631 209.038 C 60.952 211.962,51.687 207.863,47.632 199.306 C 46.396 196.696,46.293 196.137,46.293 192.000 C 46.293 187.842,46.392 187.312,47.662 184.630 C 51.437 176.662,60.055 172.543,68.403 174.718 " stroke="none" fill-rule="evenodd"></path></svg>