<svg fill="currentColor" viewBox="0 0 256 256" xmlns="http://www.w3.org/2000/svg"><path d="M158.907 34.798 C 145.746 37.011,136.164 42.806,122.803 56.632 C 118.414 61.173,117.793 62.409,118.366 65.461 C 118.670 67.081,120.938 69.364,122.677 69.801 C 125.493 70.507,126.570 69.808,134.176 62.332 C 141.899 54.742,144.715 52.571,150.312 49.896 C 156.352 47.009,159.561 46.356,167.893 46.323 C 175.930 46.291,178.288 46.715,184.426 49.301 C 194.189 53.414,202.988 62.365,206.902 72.165 C 209.190 77.895,209.670 80.622,209.670 87.893 C 209.670 95.121,209.228 97.663,206.936 103.607 C 204.349 110.315,201.562 113.790,186.908 128.578 C 179.501 136.053,171.917 143.393,170.056 144.888 C 159.222 153.590,144.210 156.340,131.028 152.037 C 126.643 150.606,122.104 148.269,118.924 145.806 C 114.799 142.611,113.829 142.083,112.079 142.082 C 109.238 142.079,106.921 143.816,106.202 146.489 C 105.547 148.919,106.581 151.387,109.150 153.527 C 118.950 161.692,130.997 166.047,143.787 166.047 C 155.045 166.047,165.156 162.925,174.594 156.535 C 177.734 154.409,181.717 150.693,193.725 138.685 C 202.065 130.344,209.698 122.445,210.687 121.131 C 215.373 114.904,218.396 108.588,220.470 100.693 C 221.896 95.262,222.290 84.880,221.288 79.122 C 217.339 56.438,199.534 38.584,177.098 34.810 C 172.255 33.995,163.717 33.990,158.907 34.798 M103.013 90.692 C 92.496 92.460,83.515 97.006,74.667 105.040 C 68.556 110.588,47.572 131.928,45.331 134.873 C 40.683 140.980,37.612 147.383,35.530 155.307 C 34.082 160.820,33.709 171.114,34.742 177.050 C 38.658 199.558,56.442 217.342,78.950 221.258 C 84.886 222.291,95.180 221.918,100.693 220.470 C 106.404 218.970,111.124 217.063,115.218 214.602 C 120.540 211.404,122.867 209.478,130.410 202.027 C 137.794 194.734,138.277 193.968,137.642 190.581 C 137.031 187.325,132.461 185.017,129.572 186.507 C 129.059 186.772,125.568 190.001,121.813 193.683 C 112.236 203.075,108.090 205.790,99.200 208.494 C 95.677 209.565,94.762 209.663,88.107 209.680 C 81.799 209.695,80.415 209.571,77.489 208.728 C 69.505 206.426,63.221 202.726,57.982 197.242 C 54.027 193.102,52.553 190.981,50.122 185.930 C 47.032 179.509,46.367 176.364,46.354 168.107 C 46.343 160.369,46.843 157.686,49.478 151.357 C 52.221 144.767,54.159 142.444,70.570 126.080 C 83.855 112.833,86.492 110.402,89.741 108.408 C 100.697 101.684,113.722 100.174,125.653 104.245 C 130.634 105.944,132.705 107.117,140.100 112.430 C 142.544 114.186,144.902 114.408,147.070 113.085 C 149.807 111.417,150.702 108.596,149.417 105.691 C 147.809 102.054,137.453 95.426,129.019 92.635 C 121.386 90.109,111.068 89.338,103.013 90.692 " stroke="none" fill-rule="evenodd"></path></svg>