<svg fill="currentColor" viewBox="0 0 256 256" xmlns="http://www.w3.org/2000/svg"><path d="M92.668 43.104 C 90.148 44.640,90.027 45.432,90.027 60.297 C 90.027 73.508,90.040 73.707,90.995 75.137 C 93.645 79.103,99.084 78.837,101.226 74.636 C 101.888 73.337,101.972 71.700,101.973 60.040 C 101.973 45.455,101.846 44.637,99.332 43.104 C 97.475 41.972,94.525 41.972,92.668 43.104 M158.253 43.048 C 153.482 44.088,147.992 46.349,143.407 49.160 C 140.517 50.933,138.109 53.051,132.114 59.093 C 122.788 68.493,122.027 69.468,122.027 72.014 C 122.027 76.501,126.638 79.468,130.504 77.469 C 131.154 77.133,134.644 73.751,138.259 69.953 C 145.508 62.338,148.219 60.053,152.591 57.870 C 157.320 55.508,160.950 54.558,166.209 54.303 C 173.428 53.954,179.487 55.411,185.503 58.942 C 188.642 60.785,195.215 67.358,197.058 70.497 C 202.505 79.776,203.330 91.234,199.263 101.097 C 197.092 106.360,194.490 109.658,186.369 117.438 C 180.407 123.149,178.682 125.049,178.354 126.265 C 177.157 130.711,181.525 134.962,185.831 133.541 C 187.878 132.865,201.314 120.170,204.594 115.812 C 213.395 104.118,216.182 89.425,212.226 75.584 C 210.066 68.029,206.598 62.032,201.043 56.247 C 195.237 50.202,188.482 46.120,180.267 43.696 C 176.922 42.708,175.491 42.542,169.173 42.405 C 163.243 42.277,161.251 42.394,158.253 43.048 M45.227 90.774 C 44.227 91.273,43.407 92.178,42.747 93.508 C 41.900 95.215,41.823 95.729,42.203 97.135 C 42.446 98.036,42.963 99.226,43.352 99.778 C 44.788 101.822,45.937 101.973,60.040 101.973 C 74.489 101.972,75.073 101.879,76.983 99.275 C 78.188 97.632,78.188 94.368,76.983 92.725 C 75.071 90.119,74.499 90.028,59.947 90.028 C 48.208 90.028,46.552 90.112,45.227 90.774 M69.076 122.776 C 66.605 124.430,53.504 137.395,51.146 140.518 C 44.469 149.366,40.979 161.780,42.210 172.310 C 42.912 178.311,44.162 182.647,46.721 187.947 C 49.398 193.492,51.986 197.021,56.580 201.387 C 60.526 205.139,63.489 207.177,68.356 209.490 C 83.974 216.912,101.912 215.060,115.812 204.593 C 118.684 202.430,131.655 189.268,133.224 186.924 C 134.241 185.405,134.188 182.421,133.113 180.682 C 131.600 178.234,128.038 177.217,125.525 178.516 C 124.891 178.844,121.226 182.405,117.381 186.430 C 108.013 196.234,104.128 198.905,96.213 200.984 C 91.489 202.224,84.300 202.225,79.573 200.984 C 67.399 197.790,57.904 188.107,54.990 175.913 C 53.729 170.636,54.004 162.614,55.616 157.653 C 57.750 151.086,59.791 148.268,68.900 139.307 C 73.432 134.848,77.352 130.781,77.610 130.268 C 78.781 127.945,77.660 124.334,75.318 122.887 C 73.579 121.812,70.595 121.759,69.076 122.776 M181.364 154.774 C 179.164 155.896,178.133 157.563,178.133 160.000 C 178.133 162.437,179.164 164.104,181.364 165.226 C 182.663 165.889,184.303 165.972,196.053 165.972 C 210.817 165.972,211.438 165.866,213.057 163.061 C 214.736 160.153,213.649 156.232,210.759 154.774 C 209.446 154.112,207.797 154.028,196.053 154.028 C 184.303 154.028,182.663 154.111,181.364 154.774 M158.141 178.345 C 157.470 178.554,156.539 179.071,156.070 179.494 C 154.093 181.284,154.027 181.818,154.027 195.925 C 154.028 207.790,154.111 209.445,154.774 210.759 C 156.842 214.858,163.158 214.858,165.226 210.759 C 165.888 209.446,165.972 207.797,165.972 196.053 C 165.972 184.303,165.889 182.663,165.226 181.364 C 163.897 178.756,160.912 177.485,158.141 178.345 " stroke="none" fill-rule="evenodd"></path></svg>