<svg fill="currentColor" viewBox="0 0 256 256" xmlns="http://www.w3.org/2000/svg"><path d="M37.205 58.813 C 33.061 61.023,33.117 67.304,37.298 69.288 C 38.610 69.911,46.915 69.973,128.000 69.973 C 209.085 69.973,217.390 69.911,218.702 69.288 C 220.607 68.384,221.867 66.285,221.867 64.015 C 221.867 61.726,220.881 60.056,218.860 58.920 L 217.270 58.027 127.942 58.045 C 43.521 58.061,38.536 58.104,37.205 58.813 M37.205 122.813 C 33.061 125.023,33.117 131.304,37.298 133.288 C 38.610 133.911,46.915 133.973,128.000 133.973 C 209.085 133.973,217.390 133.911,218.702 133.288 C 220.607 132.384,221.867 130.285,221.867 128.015 C 221.867 125.726,220.881 124.056,218.860 122.920 L 217.270 122.027 127.942 122.045 C 43.521 122.061,38.536 122.104,37.205 122.813 M204.930 162.968 C 202.139 164.669,202.041 165.094,201.892 176.087 L 201.757 186.027 192.292 186.027 C 184.124 186.028,182.626 186.130,181.364 186.774 C 179.164 187.896,178.133 189.563,178.133 192.000 C 178.133 194.437,179.164 196.104,181.364 197.226 C 182.626 197.870,184.124 197.972,192.292 197.973 L 201.757 197.973 201.892 207.913 C 202.010 216.632,202.121 217.998,202.797 219.027 C 205.236 222.745,210.764 222.745,213.203 219.027 C 213.879 217.998,213.990 216.632,214.108 207.913 L 214.243 197.973 223.708 197.973 C 231.876 197.972,233.374 197.870,234.636 197.226 C 236.836 196.104,237.867 194.437,237.867 192.000 C 237.867 189.563,236.836 187.896,234.636 186.774 C 233.374 186.130,231.876 186.028,223.708 186.027 L 214.243 186.027 214.108 176.087 C 213.990 167.368,213.879 166.002,213.203 164.973 C 212.102 163.294,209.978 162.137,208.000 162.137 C 207.059 162.137,205.681 162.510,204.930 162.968 M37.205 186.813 C 33.061 189.023,33.117 195.304,37.298 197.288 C 38.600 197.906,43.975 197.973,92.011 197.973 C 141.876 197.972,145.374 197.924,146.759 197.226 C 150.858 195.158,150.858 188.842,146.759 186.774 C 145.374 186.075,141.894 186.029,91.947 186.045 C 41.881 186.061,38.527 186.108,37.205 186.813 " stroke="none" fill-rule="evenodd"></path></svg>