<svg fill="currentColor" viewBox="0 0 256 256" xmlns="http://www.w3.org/2000/svg"><path d="M120.960 10.520 C 110.907 12.123,99.564 18.375,93.407 25.708 C 88.300 31.790,85.396 37.385,83.293 45.195 C 82.219 49.181,82.189 49.674,82.021 65.576 L 81.850 81.871 63.218 82.002 C 45.168 82.129,44.524 82.162,42.592 83.055 C 39.902 84.298,36.863 87.180,35.482 89.796 L 34.347 91.947 34.234 151.328 L 34.122 210.710 35.046 213.182 C 36.293 216.512,39.481 219.705,42.803 220.948 L 45.259 221.867 128.000 221.867 L 210.741 221.867 213.138 220.970 C 216.386 219.755,219.757 216.380,220.976 213.123 L 221.878 210.710 221.766 151.328 L 221.653 91.947 220.518 89.796 C 219.137 87.180,216.098 84.298,213.408 83.055 C 211.476 82.162,210.832 82.129,192.782 82.002 L 174.150 81.871 173.979 65.576 C 173.811 49.674,173.781 49.181,172.707 45.195 C 171.205 39.616,169.334 35.281,166.699 31.277 C 161.619 23.557,156.347 18.879,148.267 14.920 C 140.984 11.351,137.915 10.630,129.280 10.457 C 125.408 10.379,121.664 10.408,120.960 10.520 M135.893 23.015 C 140.318 24.081,142.788 25.184,147.047 27.994 C 153.948 32.547,158.623 39.199,160.956 47.787 C 161.735 50.651,161.847 52.610,162.027 66.453 L 162.227 81.920 128.003 81.920 L 93.779 81.920 93.972 66.453 C 94.148 52.314,94.244 50.697,95.083 47.612 C 96.683 41.726,99.210 37.145,103.368 32.596 C 105.646 30.103,111.123 26.273,114.560 24.768 C 120.515 22.162,129.343 21.437,135.893 23.015 M209.250 94.537 C 209.852 95.140,209.920 100.944,209.920 152.052 C 209.920 195.695,209.801 209.015,209.408 209.408 C 208.663 210.153,47.337 210.153,46.592 209.408 C 46.199 209.015,46.080 195.695,46.080 152.052 C 46.080 100.944,46.148 95.140,46.750 94.537 C 47.355 93.932,55.315 93.867,128.000 93.867 C 200.685 93.867,208.645 93.932,209.250 94.537 " stroke="none" fill-rule="evenodd"></path></svg>