<svg fill="currentColor" viewBox="0 0 256 256" xmlns="http://www.w3.org/2000/svg"><path d="M120.662 18.392 C 84.683 21.160,53.538 47.676,44.609 83.139 C 42.188 92.757,41.419 105.316,42.633 115.413 C 45.503 139.277,56.035 163.470,73.747 186.880 C 80.507 195.815,86.364 202.462,95.764 211.870 C 105.338 221.452,110.379 225.963,119.253 232.890 C 125.172 237.509,126.776 238.325,129.091 237.890 C 132.283 237.291,147.327 224.753,159.816 212.282 C 178.419 193.707,190.436 177.595,200.163 158.183 C 213.099 132.367,217.082 105.744,211.391 83.139 C 202.345 47.211,171.399 21.173,134.400 18.360 C 128.066 17.878,127.307 17.880,120.662 18.392 M137.813 30.775 C 164.933 33.791,189.216 53.863,198.139 80.640 C 201.042 89.354,201.559 92.880,201.577 104.107 C 201.595 114.999,201.241 118.075,198.846 127.861 C 195.387 141.997,187.347 158.806,176.943 173.653 C 165.157 190.472,148.339 208.223,131.093 222.044 L 128.000 224.523 124.907 222.044 C 107.661 208.223,90.843 190.472,79.057 173.653 C 68.653 158.806,60.613 141.997,57.154 127.861 C 54.759 118.075,54.405 114.999,54.423 104.107 C 54.437 95.339,54.560 93.517,55.404 89.600 C 60.463 66.102,74.983 47.463,96.134 37.313 C 109.222 31.033,122.041 29.022,137.813 30.775 M121.528 66.542 C 103.394 69.858,90.013 85.696,90.030 103.824 C 90.047 122.548,103.308 138.201,121.901 141.443 C 126.509 142.247,129.491 142.247,134.099 141.443 C 146.720 139.242,157.428 131.067,162.585 119.694 C 166.448 111.174,167.010 100.844,164.078 92.235 C 159.943 80.094,150.358 70.886,138.235 67.410 C 134.672 66.388,125.091 65.890,121.528 66.542 M133.547 78.693 C 150.518 82.350,159.141 101.709,150.532 116.825 C 148.761 119.934,145.085 123.801,141.935 125.868 C 133.728 131.253,122.076 131.245,113.994 125.849 C 111.046 123.880,107.198 119.885,105.564 117.097 C 102.522 111.907,101.341 104.770,102.568 99.002 C 105.636 84.582,119.302 75.622,133.547 78.693 " stroke="none" fill-rule="evenodd"></path></svg>