<svg fill="currentColor" viewBox="0 0 256 256" xmlns="http://www.w3.org/2000/svg"><path d="M43.880 34.728 C 39.456 36.308,36.178 39.467,34.787 43.489 C 33.813 46.306,33.820 110.868,34.796 121.200 C 38.269 157.982,51.447 189.918,72.190 211.828 C 94.385 235.271,122.545 243.456,149.760 234.374 C 184.564 222.760,212.114 182.902,219.748 133.120 C 221.691 120.450,221.867 116.038,221.867 79.794 C 221.867 41.575,222.003 43.475,218.982 39.500 C 216.670 36.457,212.899 34.486,208.896 34.229 C 206.242 34.059,205.348 34.212,202.016 35.410 C 177.968 44.056,157.564 48.399,135.975 49.467 C 110.651 50.720,83.195 46.021,54.187 35.469 C 50.181 34.012,46.604 33.755,43.880 34.728 M53.793 48.030 C 80.384 57.811,111.715 62.883,136.853 61.476 C 158.826 60.246,181.909 55.497,202.207 48.030 C 207.881 45.943,208.613 45.797,209.408 46.592 C 210.063 47.247,210.129 107.364,209.484 116.267 C 207.556 142.890,200.276 166.977,188.287 186.402 C 175.125 207.727,157.482 221.295,137.928 225.130 C 132.874 226.121,123.126 226.121,118.072 225.130 C 98.518 221.295,80.875 207.727,67.713 186.402 C 55.724 166.977,48.444 142.890,46.516 116.267 C 45.871 107.364,45.937 47.247,46.592 46.592 C 47.387 45.797,48.119 45.943,53.793 48.030 M88.533 114.182 C 85.086 114.680,80.728 115.815,78.103 116.897 C 72.134 119.358,66.990 123.540,66.166 126.599 C 65.136 130.425,67.895 133.973,71.900 133.973 C 73.727 133.973,74.769 133.477,76.853 131.614 C 80.676 128.198,86.058 126.248,91.733 126.223 C 97.906 126.196,102.992 127.984,107.086 131.620 C 109.503 133.767,110.634 134.183,113.140 133.847 C 116.204 133.436,118.620 130.061,118.015 127.037 C 117.193 122.927,109.039 117.280,100.930 115.206 C 97.788 114.402,90.930 113.836,88.533 114.182 M159.229 114.350 C 153.276 115.184,146.771 117.900,142.381 121.386 C 138.967 124.097,138.150 125.507,138.359 128.329 C 138.551 130.933,139.970 132.780,142.392 133.579 C 144.570 134.298,146.376 133.747,148.897 131.596 C 153.214 127.911,158.117 126.197,164.267 126.223 C 169.942 126.248,175.324 128.198,179.147 131.614 C 181.231 133.477,182.273 133.973,184.100 133.973 C 188.050 133.973,190.853 130.383,189.840 126.620 C 188.691 122.355,180.355 116.928,172.051 115.040 C 168.221 114.168,162.663 113.870,159.229 114.350 M91.093 162.631 C 89.387 163.575,88.301 164.887,87.855 166.543 C 87.116 169.288,88.149 171.249,92.591 175.531 C 99.094 181.800,106.484 185.964,115.545 188.463 C 119.373 189.519,120.297 189.604,128.000 189.604 C 135.703 189.604,136.627 189.519,140.455 188.463 C 149.516 185.964,156.906 181.800,163.409 175.531 C 167.851 171.249,168.884 169.288,168.145 166.543 C 167.434 163.900,165.110 162.133,162.347 162.133 C 160.185 162.133,159.455 162.603,155.087 166.807 C 147.346 174.258,138.420 177.920,128.000 177.920 C 117.580 177.920,108.654 174.258,100.913 166.807 C 98.797 164.771,96.647 162.887,96.135 162.619 C 94.959 162.006,92.212 162.012,91.093 162.631 " stroke="none" fill-rule="evenodd"></path></svg>