<svg fill="currentColor" viewBox="0 0 256 256" xmlns="http://www.w3.org/2000/svg"><path d="M156.970 43.206 C 154.926 44.567,153.873 46.882,154.252 49.177 C 154.526 50.837,155.420 51.861,165.051 61.555 L 175.551 72.122 165.261 82.461 C 159.601 88.148,154.758 93.219,154.498 93.732 C 152.282 98.110,157.890 103.718,162.268 101.502 C 162.781 101.242,167.852 96.399,173.539 90.739 L 183.878 80.449 194.445 90.949 C 204.139 100.580,205.163 101.474,206.823 101.748 C 211.523 102.524,215.364 97.272,213.148 93.099 C 212.812 92.465,208.012 87.436,202.482 81.923 L 192.426 71.900 202.938 61.382 L 213.450 50.864 213.631 48.792 C 214.044 44.078,209.335 40.716,205.312 42.852 C 204.678 43.188,199.649 47.988,194.137 53.518 L 184.113 63.574 173.870 53.379 C 168.236 47.771,163.207 42.971,162.695 42.712 C 161.146 41.928,158.552 42.152,156.970 43.206 M36.821 66.969 C 32.794 69.424,33.400 75.597,37.853 77.495 C 38.976 77.974,45.218 78.080,72.200 78.079 C 102.749 78.079,105.281 78.024,106.636 77.333 C 110.837 75.191,111.103 69.752,107.137 67.102 L 105.687 66.133 71.937 66.135 C 39.216 66.136,38.145 66.162,36.821 66.969 M70.171 146.361 C 69.458 146.575,68.306 147.344,67.611 148.070 L 66.347 149.388 66.224 163.654 L 66.101 177.920 52.997 177.922 C 45.683 177.924,39.223 178.111,38.376 178.346 C 33.587 179.677,32.600 186.457,36.821 189.031 C 38.102 189.812,39.054 189.864,52.160 189.865 L 66.133 189.867 66.135 203.840 C 66.136 216.946,66.188 217.898,66.969 219.179 C 69.424 223.206,75.597 222.600,77.495 218.147 C 77.949 217.081,78.080 213.768,78.080 203.337 L 78.080 189.899 92.346 189.776 L 106.612 189.653 107.929 188.391 C 110.751 185.686,110.624 181.589,107.647 179.318 L 106.095 178.133 92.087 178.005 L 78.080 177.877 78.080 164.445 C 78.080 149.768,77.963 148.940,75.661 147.300 C 74.149 146.223,71.903 145.839,70.171 146.361 M148.863 163.102 C 144.897 165.752,145.163 171.191,149.364 173.333 C 150.719 174.024,153.251 174.079,183.800 174.079 C 219.420 174.080,218.382 174.144,220.541 171.802 C 221.894 170.335,222.243 167.085,221.253 165.172 C 220.864 164.419,219.931 163.427,219.179 162.969 C 217.855 162.162,216.784 162.136,184.063 162.135 L 150.313 162.133 148.863 163.102 M148.863 195.102 C 144.897 197.752,145.163 203.191,149.364 205.333 C 150.719 206.024,153.251 206.079,183.800 206.079 C 219.420 206.080,218.382 206.144,220.541 203.802 C 221.894 202.335,222.243 199.085,221.253 197.172 C 220.864 196.419,219.931 195.427,219.179 194.969 C 217.855 194.162,216.784 194.136,184.063 194.135 L 150.313 194.133 148.863 195.102 " stroke="none" fill-rule="evenodd"></path></svg>