<svg fill="currentColor" viewBox="0 0 256 256" xmlns="http://www.w3.org/2000/svg"><path d="M44.090 34.920 C 39.971 36.348,36.797 39.401,35.122 43.548 L 34.110 46.054 34.228 74.121 L 34.347 102.187 35.326 104.320 C 35.865 105.493,37.294 107.457,38.501 108.683 C 40.626 110.841,41.796 111.412,74.642 126.330 C 93.312 134.809,108.683 141.848,108.800 141.972 C 108.917 142.095,108.803 142.273,108.545 142.366 C 108.287 142.459,106.507 143.440,104.588 144.547 C 89.428 153.295,80.390 171.090,82.278 188.475 C 82.946 194.617,84.084 198.536,86.835 204.160 C 89.510 209.627,92.233 213.371,96.379 217.282 C 116.384 236.154,148.097 233.549,164.730 211.666 C 167.406 208.147,171.189 200.482,172.330 196.267 C 175.821 183.379,173.652 169.832,166.316 158.696 C 162.097 152.293,155.495 146.351,149.227 143.318 C 148.112 142.778,147.200 142.221,147.200 142.079 C 147.200 141.937,162.401 134.919,180.980 126.484 C 218.405 109.492,217.939 109.750,220.461 104.614 L 221.653 102.187 221.772 74.181 C 221.890 46.292,221.886 46.164,220.959 43.685 C 219.777 40.528,216.596 37.102,213.380 35.522 L 210.987 34.347 128.640 34.252 C 50.481 34.162,46.181 34.196,44.090 34.920 M81.920 81.258 L 81.920 116.436 80.533 115.849 C 72.481 112.440,47.023 100.522,46.613 99.970 C 46.201 99.413,46.080 93.436,46.080 73.518 C 46.080 48.356,46.099 47.768,46.933 46.933 C 47.758 46.108,48.356 46.080,64.853 46.080 L 81.920 46.080 81.920 81.258 M162.029 84.070 L 161.920 122.060 144.960 129.776 L 128.000 137.491 111.040 129.776 L 94.080 122.060 93.971 84.070 L 93.862 46.080 128.000 46.080 L 162.138 46.080 162.029 84.070 M209.067 46.933 C 209.901 47.768,209.920 48.356,209.920 73.518 C 209.920 93.436,209.799 99.413,209.387 99.970 C 208.977 100.522,183.519 112.440,175.467 115.849 L 174.080 116.436 174.080 81.258 L 174.080 46.080 191.147 46.080 C 207.644 46.080,208.242 46.108,209.067 46.933 M135.893 151.015 C 140.318 152.081,142.788 153.184,147.047 155.994 C 156.444 162.194,161.728 172.198,161.783 183.893 C 161.812 190.014,161.045 193.341,158.278 199.090 C 156.637 202.500,155.517 204.133,152.944 206.868 C 143.073 217.361,129.361 220.661,115.950 215.771 C 111.395 214.110,108.464 212.140,104.055 207.776 C 100.379 204.138,99.724 203.245,97.797 199.243 C 94.957 193.344,94.187 190.050,94.209 183.893 C 94.242 174.722,97.099 167.455,103.368 160.596 C 105.646 158.103,111.123 154.273,114.560 152.768 C 120.515 150.162,129.343 149.437,135.893 151.015 " stroke="none" fill-rule="evenodd"></path></svg>