<svg fill="currentColor" viewBox="0 0 256 256" xmlns="http://www.w3.org/2000/svg"><path d="M69.863 50.399 C 62.981 51.285,56.385 54.766,49.853 60.959 C 45.971 64.639,41.405 70.187,38.710 74.497 C 24.609 97.051,15.981 132.653,18.351 158.507 C 19.939 175.832,24.950 188.129,33.858 196.561 C 40.400 202.754,47.978 205.704,57.600 205.804 C 63.960 205.871,66.685 205.254,72.377 202.459 C 83.772 196.864,94.895 184.397,107.902 162.643 C 114.271 151.991,115.748 148.973,115.499 147.120 C 115.019 143.539,111.476 141.130,108.047 142.053 C 105.766 142.667,104.848 143.831,99.952 152.320 C 82.122 183.233,68.616 195.703,55.045 193.784 C 46.366 192.557,40.507 188.251,36.169 179.912 C 25.601 159.597,29.248 119.314,44.386 89.149 C 53.226 71.532,63.479 62.229,74.070 62.213 C 80.277 62.204,85.298 64.883,92.614 72.107 C 103.222 82.582,110.783 94.385,131.408 132.667 C 148.046 163.550,154.836 174.606,164.046 185.813 C 172.410 195.991,180.526 202.080,189.440 204.865 C 193.763 206.216,202.000 206.214,207.147 204.860 C 212.755 203.385,217.999 200.483,222.142 196.561 C 231.050 188.129,236.061 175.832,237.649 158.507 C 240.019 132.653,231.391 97.051,217.290 74.497 C 214.736 70.411,210.187 64.819,206.662 61.431 C 198.391 53.479,191.102 50.197,181.760 50.220 C 176.719 50.232,173.291 51.072,168.320 53.514 C 160.657 57.278,152.834 64.394,145.181 74.561 C 140.835 80.335,140.347 81.623,141.457 84.399 C 142.307 86.523,144.056 87.896,146.296 88.197 C 148.960 88.554,150.565 87.366,154.493 82.133 C 158.736 76.480,167.428 67.745,170.777 65.769 C 175.283 63.110,178.113 62.207,181.930 62.213 C 192.521 62.229,202.774 71.532,211.614 89.149 C 221.614 109.076,226.871 133.812,225.673 155.307 C 224.565 175.195,217.888 188.197,206.607 192.436 C 203.030 193.781,197.491 194.383,194.509 193.751 C 184.462 191.622,173.738 180.983,160.967 160.474 C 155.472 151.650,151.010 143.734,140.378 123.947 C 130.881 106.272,124.784 95.509,119.955 87.893 C 104.589 63.660,91.923 52.366,77.867 50.363 C 74.482 49.880,73.873 49.883,69.863 50.399 " stroke="none" fill-rule="evenodd"></path></svg>