<svg fill="currentColor" viewBox="0 0 256 256" xmlns="http://www.w3.org/2000/svg"><path d="M163.200 18.181 C 152.582 19.209,145.122 21.286,136.413 25.639 C 117.421 35.132,104.032 52.687,99.343 74.240 C 98.494 78.146,98.364 79.994,98.330 88.657 L 98.291 98.595 63.332 146.255 C 44.105 172.468,27.893 194.875,27.307 196.050 C 25.804 199.058,25.791 204.454,27.279 207.573 C 28.758 210.675,45.447 227.406,48.427 228.776 C 51.537 230.204,57.426 230.185,60.160 228.737 C 61.216 228.178,83.552 211.975,109.796 192.731 L 157.512 157.742 167.609 157.658 C 178.799 157.565,181.409 157.171,190.097 154.264 C 210.839 147.323,226.901 131.277,234.107 110.299 C 237.338 100.894,238.510 88.140,237.055 78.232 C 233.332 52.875,216.793 32.134,192.750 22.668 C 189.026 21.202,182.234 19.419,178.133 18.831 C 174.652 18.333,165.672 17.941,163.200 18.181 M178.133 30.984 C 189.384 32.817,200.063 38.395,208.669 46.933 C 213.702 51.926,216.066 55.078,219.243 61.031 C 223.700 69.382,225.788 78.104,225.777 88.320 C 225.766 97.874,224.017 105.388,219.893 113.601 C 217.890 117.589,214.173 123.428,213.290 123.973 C 212.737 124.315,131.760 43.559,131.975 42.881 C 132.049 42.646,133.441 41.525,135.068 40.391 C 147.424 31.779,162.629 28.457,178.133 30.984 M203.649 133.640 C 202.726 134.659,197.124 138.229,193.892 139.856 C 190.417 141.606,183.618 143.941,179.189 144.906 C 174.123 146.009,162.137 146.022,157.013 144.930 C 139.220 141.138,124.769 130.318,116.752 114.783 C 113.934 109.322,112.594 105.644,111.294 99.805 C 109.868 93.395,109.868 82.403,111.295 75.947 C 113.027 68.113,116.800 59.717,121.215 53.868 L 122.987 51.522 163.665 92.198 C 202.034 130.566,204.303 132.917,203.649 133.640 M111.252 128.843 C 114.935 134.012,121.979 141.058,127.157 144.751 C 129.380 146.338,133.836 148.953,137.057 150.562 L 142.914 153.488 99.094 185.622 C 74.993 203.295,54.886 217.827,54.411 217.915 C 53.189 218.142,37.766 202.651,38.067 201.501 C 38.180 201.068,52.724 181.011,70.387 156.931 L 102.500 113.149 105.436 118.975 C 107.050 122.179,109.668 126.620,111.252 128.843 M101.973 146.371 C 100.652 146.916,91.472 155.949,90.637 157.525 C 88.170 162.183,93.801 167.819,98.475 165.369 C 99.108 165.037,101.865 162.493,104.601 159.716 C 110.025 154.210,110.653 153.003,109.661 149.996 C 108.713 147.124,104.715 145.239,101.973 146.371 " stroke="none" fill-rule="evenodd"></path></svg>