<svg fill="currentColor" viewBox="0 0 256 256" xmlns="http://www.w3.org/2000/svg"><path d="M67.978 26.637 C 63.934 27.910,60.400 31.235,58.938 35.144 C 58.074 37.452,58.027 38.323,58.027 51.830 L 58.027 66.081 47.040 66.214 L 36.053 66.347 33.828 67.520 C 30.869 69.080,28.719 71.300,27.358 74.203 L 26.240 76.587 26.240 128.000 L 26.240 179.413 27.371 181.826 C 28.706 184.674,31.266 187.295,34.051 188.667 C 35.962 189.608,36.556 189.659,47.040 189.780 L 58.027 189.907 58.027 204.164 C 58.027 217.674,58.075 218.551,58.939 220.891 C 60.188 224.273,63.727 227.812,67.109 229.061 L 69.579 229.973 135.832 229.973 C 193.183 229.973,202.368 229.888,204.189 229.340 C 208.780 227.958,212.712 223.523,213.698 218.612 C 214.465 214.793,214.377 40.331,213.606 37.057 C 212.539 32.522,210.294 29.701,205.913 27.390 L 203.733 26.240 136.747 26.159 C 82.440 26.092,69.423 26.183,67.978 26.637 M201.301 38.485 C 201.688 38.872,201.813 45.236,201.813 64.512 L 201.813 90.027 179.840 90.027 L 157.867 90.027 157.867 83.643 C 157.867 78.225,157.733 76.900,156.981 74.891 C 155.902 72.008,152.957 68.857,149.973 67.393 L 147.840 66.347 108.907 66.233 L 69.973 66.120 69.973 52.717 C 69.973 41.102,70.063 39.225,70.644 38.644 C 71.247 38.040,77.768 37.973,136.052 37.973 C 185.834 37.973,200.908 38.092,201.301 38.485 M145.408 78.592 C 146.151 79.335,146.151 176.665,145.408 177.408 C 145.015 177.801,132.545 177.920,91.876 177.920 C 39.894 177.920,38.848 177.904,38.415 177.095 C 37.800 175.946,37.800 80.054,38.415 78.905 C 38.848 78.096,39.894 78.080,91.876 78.080 C 132.545 78.080,145.015 78.199,145.408 78.592 M61.040 98.913 C 59.400 99.792,58.027 102.013,58.027 103.786 C 58.027 105.009,69.646 152.080,70.442 154.083 C 71.303 156.250,73.163 157.566,75.617 157.748 C 79.596 158.042,79.862 157.721,86.276 144.884 L 91.917 133.591 97.378 144.340 C 100.381 150.252,103.398 155.649,104.083 156.333 C 105.076 157.326,105.787 157.612,107.597 157.746 C 110.336 157.949,112.145 156.998,113.182 154.813 C 114.180 152.710,125.867 105.696,125.865 103.792 C 125.862 100.265,123.053 97.885,119.316 98.244 C 117.558 98.413,116.932 98.713,115.835 99.910 C 114.613 101.243,114.175 102.661,110.775 116.285 C 108.728 124.488,106.851 131.964,106.604 132.897 L 106.155 134.593 101.398 125.217 C 96.685 115.930,96.621 115.830,94.610 114.833 C 93.097 114.083,92.204 113.897,91.103 114.103 C 88.349 114.620,87.228 116.113,82.506 125.549 C 80.044 130.468,77.957 134.419,77.868 134.330 C 77.779 134.241,75.863 126.802,73.610 117.799 C 71.357 108.796,69.243 101.044,68.913 100.574 C 67.236 98.178,63.772 97.448,61.040 98.913 M201.813 128.000 L 201.813 154.027 179.840 154.027 L 157.867 154.027 157.867 128.000 L 157.867 101.973 179.840 101.973 L 201.813 101.973 201.813 128.000 M201.813 191.488 C 201.813 210.764,201.688 217.128,201.301 217.515 C 200.908 217.908,185.834 218.027,136.052 218.027 C 77.768 218.027,71.247 217.960,70.644 217.356 C 70.063 216.775,69.973 214.898,69.973 203.276 L 69.973 189.867 108.357 189.867 C 146.316 189.867,146.768 189.857,149.138 188.970 C 152.379 187.757,155.757 184.379,156.970 181.138 C 157.734 179.095,157.867 177.800,157.867 172.357 L 157.867 165.973 179.840 165.973 L 201.813 165.973 201.813 191.488 " stroke="none" fill-rule="evenodd"></path></svg>