<svg fill="currentColor" viewBox="0 0 256 256" xmlns="http://www.w3.org/2000/svg"><path d="M128.640 26.273 C 127.936 26.372,125.536 26.658,123.307 26.908 C 105.671 28.888,86.303 37.149,71.689 48.925 C 67.236 52.513,61.665 57.980,57.849 62.507 L 54.972 65.920 45.513 66.133 C 36.211 66.343,36.016 66.366,33.828 67.520 C 30.869 69.080,28.719 71.300,27.358 74.203 L 26.240 76.587 26.240 128.000 L 26.240 179.413 27.371 181.826 C 28.706 184.674,31.266 187.295,34.051 188.667 C 35.911 189.583,36.727 189.669,45.522 189.867 L 54.991 190.080 56.600 192.000 C 65.892 203.086,75.918 211.431,87.496 217.718 C 97.331 223.057,109.356 227.079,120.960 228.909 C 127.751 229.980,139.930 230.204,146.931 229.386 C 191.426 224.191,226.756 192.055,235.879 148.480 C 237.377 141.325,237.838 136.509,237.838 128.000 C 237.838 114.157,235.618 102.479,230.623 90.050 C 217.104 56.412,186.522 32.352,150.586 27.082 C 146.306 26.454,131.286 25.900,128.640 26.273 M130.133 52.267 L 130.133 66.133 100.389 66.133 L 70.645 66.133 72.763 63.983 C 82.832 53.757,98.798 44.748,113.657 40.907 C 118.122 39.753,125.515 38.491,128.107 38.440 L 130.133 38.400 130.133 52.267 M153.907 39.912 C 167.744 42.692,181.570 49.231,192.860 58.336 C 197.146 61.792,204.356 69.310,207.840 73.956 C 215.287 83.884,220.715 95.488,223.565 107.570 C 224.418 111.190,225.684 119.191,225.699 121.067 L 225.707 122.027 191.787 122.027 L 157.867 122.027 157.867 99.643 C 157.867 78.030,157.836 77.177,156.981 74.891 C 155.173 70.060,150.262 66.511,144.960 66.204 L 142.080 66.037 142.080 52.160 L 142.080 38.282 145.387 38.574 C 147.205 38.734,151.039 39.336,153.907 39.912 M145.408 78.592 C 146.151 79.335,146.151 176.665,145.408 177.408 C 145.015 177.801,132.545 177.920,91.876 177.920 C 39.894 177.920,38.848 177.904,38.415 177.095 C 37.800 175.946,37.800 80.054,38.415 78.905 C 38.848 78.096,39.894 78.080,91.876 78.080 C 132.545 78.080,145.015 78.199,145.408 78.592 M76.930 98.968 C 73.866 100.836,74.027 99.233,74.027 128.000 C 74.027 152.198,74.076 153.926,74.797 155.026 C 77.234 158.745,82.764 158.746,85.203 155.027 C 85.828 154.074,86.001 152.753,86.120 148.015 L 86.266 142.177 93.373 141.974 C 99.129 141.809,100.943 141.603,102.913 140.889 C 109.647 138.447,114.689 133.355,116.939 126.720 C 118.210 122.973,118.220 117.395,116.963 113.463 C 114.615 106.122,108.080 100.121,100.779 98.603 C 99.500 98.338,94.124 98.134,88.406 98.135 C 79.135 98.136,78.180 98.206,76.930 98.968 M99.124 110.537 C 101.206 111.116,104.018 113.645,105.017 115.840 C 106.793 119.738,105.488 125.297,102.212 127.796 C 99.880 129.575,97.310 130.133,91.452 130.133 L 86.187 130.133 86.187 120.107 L 86.187 110.080 91.840 110.082 C 94.949 110.084,98.227 110.288,99.124 110.537 M225.699 134.933 C 225.682 137.007,224.364 145.073,223.381 149.120 C 221.204 158.082,217.994 165.976,213.368 173.742 C 201.128 194.289,181.491 209.086,158.530 215.064 C 153.199 216.452,146.594 217.596,143.893 217.598 L 142.080 217.600 142.080 203.733 L 142.080 189.867 144.411 189.867 C 149.708 189.867,155.109 186.113,156.970 181.138 C 157.839 178.814,157.867 178.058,157.867 156.357 L 157.867 133.973 191.787 133.973 L 225.707 133.973 225.699 134.933 M130.133 203.796 L 130.133 217.726 126.613 217.449 C 118.364 216.801,105.744 213.231,97.251 209.144 C 88.732 205.044,80.907 199.673,74.240 193.347 L 70.613 189.906 100.373 189.886 L 130.133 189.867 130.133 203.796 " stroke="none" fill-rule="evenodd"></path></svg>