<svg fill="currentColor" viewBox="0 0 256 256" xmlns="http://www.w3.org/2000/svg"><path d="M40.912 43.254 C 35.429 45.190,31.008 48.980,28.537 53.864 C 25.896 59.084,26.027 55.660,26.027 119.749 C 26.027 160.850,26.167 178.979,26.498 180.566 C 28.180 188.631,35.369 195.820,43.434 197.502 C 46.634 198.169,209.366 198.169,212.566 197.502 C 220.631 195.820,227.820 188.631,229.502 180.566 C 229.833 178.979,229.973 160.871,229.973 119.827 C 229.973 55.654,230.106 59.087,227.428 53.794 C 224.993 48.981,220.541 45.179,215.088 43.254 L 212.267 42.258 128.000 42.258 L 43.733 42.258 40.912 43.254 M211.747 54.762 C 213.777 55.613,215.807 57.477,216.872 59.467 L 217.813 61.227 217.935 118.827 C 218.020 159.490,217.919 176.991,217.589 178.347 C 216.943 181.003,215.244 183.311,212.937 184.667 L 210.987 185.813 128.000 185.813 L 45.013 185.813 43.063 184.667 C 40.868 183.376,39.130 181.093,38.415 178.560 C 38.065 177.320,37.968 161.052,38.060 119.040 L 38.187 61.227 39.128 59.467 C 40.167 57.525,42.191 55.639,44.160 54.779 C 46.087 53.937,209.739 53.920,211.747 54.762 M109.315 82.770 C 107.882 83.420,107.299 84.017,106.638 85.512 C 105.816 87.370,105.796 88.324,105.910 120.637 C 106.020 151.819,106.074 153.923,106.797 155.026 C 108.525 157.663,112.105 158.606,114.901 157.161 C 115.652 156.772,127.133 149.204,140.415 140.342 C 166.248 123.105,165.976 123.323,165.972 119.829 C 165.968 116.832,165.397 116.384,139.879 99.368 C 126.452 90.415,114.837 82.826,114.067 82.505 C 112.226 81.735,111.506 81.776,109.315 82.770 M148.636 120.304 C 148.021 120.868,118.639 140.373,118.405 140.373 C 118.285 140.373,118.187 131.156,118.187 119.890 L 118.187 99.407 133.596 109.686 C 142.071 115.340,148.839 120.118,148.636 120.304 M93.116 218.878 C 89.091 221.332,89.091 226.668,93.116 229.122 C 94.472 229.949,95.330 229.970,128.000 229.970 C 160.670 229.970,161.528 229.949,162.884 229.122 C 166.909 226.668,166.909 221.332,162.884 218.878 C 161.528 218.051,160.670 218.030,128.000 218.030 C 95.330 218.030,94.472 218.051,93.116 218.878 " stroke="none" fill-rule="evenodd"></path></svg>