<svg fill="currentColor" viewBox="0 0 256 256" xmlns="http://www.w3.org/2000/svg"><path d="M40.912 43.254 C 35.429 45.190,31.008 48.980,28.537 53.864 C 25.896 59.084,26.027 55.660,26.027 119.749 C 26.027 160.850,26.167 178.979,26.498 180.566 C 28.180 188.631,35.369 195.820,43.434 197.502 C 46.634 198.169,209.366 198.169,212.566 197.502 C 220.631 195.820,227.820 188.631,229.502 180.566 C 229.833 178.979,229.973 160.871,229.973 119.827 C 229.973 55.654,230.106 59.087,227.428 53.794 C 224.993 48.981,220.541 45.179,215.088 43.254 L 212.267 42.258 128.000 42.258 L 43.733 42.258 40.912 43.254 M211.747 54.762 C 213.777 55.613,215.807 57.477,216.872 59.467 L 217.813 61.227 217.935 118.827 C 218.020 159.490,217.919 176.991,217.589 178.347 C 216.943 181.003,215.244 183.311,212.937 184.667 L 210.987 185.813 128.000 185.813 L 45.013 185.813 43.063 184.667 C 40.868 183.376,39.130 181.093,38.415 178.560 C 38.065 177.320,37.968 161.052,38.060 119.040 L 38.187 61.227 39.128 59.467 C 40.167 57.525,42.191 55.639,44.160 54.779 C 46.087 53.937,209.739 53.920,211.747 54.762 M93.116 218.878 C 89.091 221.332,89.091 226.668,93.116 229.122 C 94.472 229.949,95.330 229.970,128.000 229.970 C 160.670 229.970,161.528 229.949,162.884 229.122 C 166.909 226.668,166.909 221.332,162.884 218.878 C 161.528 218.051,160.670 218.030,128.000 218.030 C 95.330 218.030,94.472 218.051,93.116 218.878 " stroke="none" fill-rule="evenodd"></path></svg>