<svg fill="currentColor" viewBox="0 0 256 256" xmlns="http://www.w3.org/2000/svg"><path d="M121.881 10.687 C 106.218 13.316,94.242 24.982,90.696 41.067 L 90.437 42.240 68.060 42.240 L 45.683 42.240 44.185 43.555 C 40.548 46.749,41.854 52.426,46.536 53.768 C 47.401 54.016,56.629 54.187,69.216 54.187 L 90.437 54.187 90.688 55.360 C 91.382 58.603,93.737 64.583,95.507 67.594 C 96.723 69.664,98.923 72.424,101.180 74.710 L 104.866 78.445 101.180 80.212 C 86.339 87.325,74.471 100.738,69.337 116.202 C 66.235 125.543,66.407 122.843,66.247 164.743 C 66.104 202.226,66.111 202.574,66.994 204.936 C 68.233 208.246,71.013 211.203,74.325 212.732 L 77.013 213.973 87.573 214.113 L 98.133 214.252 98.133 217.138 C 98.133 221.031,99.435 225.861,101.626 230.096 C 103.725 234.155,108.794 239.537,112.653 241.804 C 120.133 246.199,129.729 247.120,137.987 244.235 C 142.429 242.683,145.281 240.834,149.126 237.013 C 154.583 231.591,157.867 224.125,157.867 217.138 L 157.867 214.252 168.437 214.113 L 179.008 213.973 181.855 212.571 C 185.286 210.881,187.779 208.214,189.014 204.913 C 189.887 202.581,189.895 202.108,189.753 164.743 C 189.593 122.843,189.765 125.543,186.663 116.202 C 181.529 100.738,169.661 87.325,154.820 80.212 L 151.134 78.445 154.820 74.710 C 157.077 72.424,159.277 69.664,160.493 67.594 C 162.263 64.583,164.618 58.603,165.312 55.360 L 165.563 54.187 186.781 54.184 C 199.440 54.183,208.612 54.012,209.518 53.760 C 214.125 52.480,215.424 46.724,211.819 43.559 L 210.317 42.240 187.966 42.240 L 165.614 42.240 165.337 40.853 C 162.255 25.428,149.469 13.129,133.973 10.684 C 130.782 10.180,124.891 10.182,121.881 10.687 M133.632 22.652 C 137.189 23.383,142.426 26.115,145.342 28.760 C 148.729 31.832,150.887 35.123,152.489 39.661 C 153.621 42.869,153.776 43.870,153.776 48.000 C 153.776 52.130,153.621 53.131,152.489 56.339 C 150.071 63.190,145.591 68.254,139.307 71.241 C 134.951 73.311,132.531 73.874,128.000 73.874 C 123.430 73.874,121.053 73.312,116.513 71.157 C 109.499 67.827,104.268 61.068,102.653 53.245 C 101.798 49.106,101.798 46.894,102.653 42.755 C 104.634 33.164,112.364 25.064,121.693 22.805 C 124.524 22.119,130.662 22.041,133.632 22.652 M140.517 87.616 C 145.230 88.852,152.147 91.995,156.183 94.735 C 167.345 102.316,175.595 115.615,177.462 129.039 C 177.757 131.157,177.920 144.549,177.920 166.634 L 177.920 200.940 176.915 201.599 C 176.074 202.150,174.450 202.239,166.995 202.142 L 158.080 202.027 157.852 181.973 C 157.598 159.587,157.692 160.345,154.376 153.943 C 150.450 146.361,142.257 140.238,133.927 138.658 C 131.096 138.121,124.904 138.121,122.073 138.658 C 113.743 140.238,105.550 146.361,101.624 153.943 C 98.308 160.345,98.402 159.587,98.148 181.973 L 97.920 202.027 89.005 202.142 C 81.550 202.239,79.926 202.150,79.085 201.599 L 78.080 200.940 78.080 166.634 C 78.080 144.549,78.243 131.157,78.538 129.039 C 80.059 118.102,85.507 107.613,93.724 99.799 C 100.781 93.090,109.465 88.619,118.893 86.842 C 124.282 85.826,135.175 86.216,140.517 87.616 M135.775 151.855 C 139.382 153.646,142.522 156.903,144.341 160.743 L 145.707 163.627 145.707 192.000 L 145.707 220.373 144.341 223.257 C 137.609 237.467,118.391 237.467,111.659 223.257 L 110.293 220.373 110.293 192.000 L 110.293 163.627 111.644 160.777 C 113.880 156.056,117.463 152.735,122.228 150.967 C 123.914 150.341,125.286 150.198,128.640 150.301 C 132.478 150.419,133.195 150.575,135.775 151.855 " stroke="none" fill-rule="evenodd"></path></svg>