<svg fill="currentColor" viewBox="0 0 256 256" xmlns="http://www.w3.org/2000/svg"><path d="M158.293 26.692 C 152.096 28.028,145.777 32.482,142.074 38.125 C 135.817 47.661,137.054 61.049,144.984 69.614 C 151.042 76.157,160.513 79.268,168.960 77.490 C 189.425 73.182,196.943 48.362,182.222 33.704 C 175.782 27.292,167.191 24.774,158.293 26.692 M169.597 39.208 C 172.291 40.400,175.516 43.579,176.692 46.202 C 178.071 49.279,178.114 54.777,176.781 57.675 C 174.769 62.047,170.854 64.959,165.830 65.820 C 160.394 66.751,154.314 63.542,151.556 58.286 C 150.551 56.371,150.412 55.616,150.406 52.053 C 150.401 48.672,150.563 47.668,151.386 45.998 C 153.214 42.288,156.756 39.415,160.740 38.411 C 163.028 37.835,167.378 38.227,169.597 39.208 M83.796 66.713 C 81.945 67.319,78.779 69.334,77.576 70.672 C 77.181 71.111,60.031 99.981,39.465 134.828 L 2.072 198.187 2.245 200.430 C 2.439 202.956,3.549 204.513,5.853 205.495 C 7.906 206.370,248.094 206.370,250.147 205.495 C 252.449 204.514,253.561 202.955,253.758 200.430 L 253.934 198.187 225.998 151.040 C 210.633 125.109,197.382 103.183,196.551 102.314 C 195.720 101.446,194.020 100.199,192.773 99.545 C 190.783 98.500,190.038 98.354,186.667 98.351 C 183.327 98.347,182.512 98.501,180.412 99.533 C 179.083 100.185,177.354 101.433,176.569 102.306 C 175.784 103.179,168.807 114.596,161.064 127.676 C 153.321 140.757,146.871 151.461,146.729 151.463 C 146.587 151.465,135.931 133.564,123.049 111.683 C 107.898 85.948,99.024 71.292,97.920 70.180 C 95.417 67.657,92.593 66.458,88.747 66.284 C 86.826 66.198,84.847 66.369,83.796 66.713 M102.071 99.980 C 109.099 111.907,114.767 121.749,114.666 121.850 C 114.565 121.951,102.461 121.984,87.769 121.923 L 61.056 121.813 73.569 100.586 C 80.452 88.911,86.330 79.061,86.632 78.698 C 86.933 78.334,87.656 78.095,88.237 78.165 C 89.142 78.275,91.124 81.400,102.071 99.980 M212.368 151.680 C 225.863 174.443,236.998 193.308,237.112 193.603 C 237.278 194.031,230.678 194.117,204.368 194.029 L 171.417 193.920 162.502 178.818 L 153.588 163.717 169.024 137.645 C 177.513 123.306,184.754 111.228,185.114 110.806 C 186.941 108.667,186.282 107.678,212.368 151.680 M139.602 163.627 C 149.151 179.819,156.975 193.307,156.989 193.600 C 157.008 194.025,142.918 194.133,87.893 194.133 C 49.877 194.133,18.773 194.008,18.773 193.855 C 18.773 193.703,26.675 180.166,36.334 163.773 L 53.894 133.968 88.067 134.077 L 122.240 134.187 139.602 163.627 " stroke="none" fill-rule="evenodd"></path></svg>