<svg fill="currentColor" viewBox="0 0 256 256" xmlns="http://www.w3.org/2000/svg"><path d="M44.373 34.507 C 40.434 35.803,37.032 38.694,35.395 42.139 C 34.212 44.629,33.796 49.511,34.565 51.888 C 35.879 55.956,100.402 229.418,101.110 230.787 C 101.546 231.630,102.735 233.127,103.751 234.113 C 108.469 238.689,115.584 239.275,121.205 235.551 C 125.324 232.823,124.926 233.875,138.247 190.586 C 146.584 163.496,150.666 150.831,151.149 150.561 C 151.537 150.344,169.000 144.895,189.954 138.454 C 210.909 132.012,228.973 126.317,230.098 125.797 C 232.589 124.644,235.688 121.423,236.919 118.706 C 238.186 115.908,238.195 110.671,236.937 107.894 C 235.814 105.418,233.342 102.656,231.076 101.346 C 230.117 100.792,189.397 85.515,140.587 67.396 C 56.483 36.177,51.673 34.446,48.640 34.305 C 46.880 34.223,44.960 34.314,44.373 34.507 M136.367 78.682 C 184.683 96.612,224.530 111.410,224.918 111.564 C 225.947 111.975,226.161 113.367,225.347 114.355 C 224.827 114.986,214.399 118.363,185.948 127.112 C 163.471 134.023,146.320 139.519,145.021 140.225 C 143.774 140.903,142.069 142.347,141.164 143.492 C 139.304 145.843,140.557 142.042,125.877 189.867 C 120.223 208.288,115.394 223.874,115.146 224.503 C 114.426 226.327,112.232 226.598,111.576 224.944 C 108.805 217.955,46.080 48.319,46.080 47.816 C 46.080 46.905,46.903 46.080,47.812 46.080 C 48.202 46.080,88.052 60.751,136.367 78.682 " stroke="none" fill-rule="evenodd"></path></svg>