<svg fill="currentColor" viewBox="0 0 256 256" xmlns="http://www.w3.org/2000/svg"><path d="M189.440 34.604 C 188.853 34.834,153.860 69.526,111.676 111.697 C 28.753 194.597,33.004 190.106,34.075 193.681 C 34.821 196.169,37.102 197.973,39.503 197.973 C 40.562 197.973,41.948 197.698,42.581 197.361 C 44.395 196.396,197.023 43.464,197.527 42.106 C 199.365 37.156,194.487 32.631,189.440 34.604 M205.440 122.515 C 204.047 123.271,123.312 204.048,122.590 205.407 C 120.057 210.181,124.904 215.633,129.999 213.741 C 131.612 213.142,212.809 132.045,213.589 130.254 C 215.352 126.205,212.581 122.009,208.163 122.040 C 207.135 122.047,205.909 122.261,205.440 122.515 " stroke="none" fill-rule="evenodd"></path></svg>