<svg fill="currentColor" viewBox="0 0 256 256" xmlns="http://www.w3.org/2000/svg"><path d="M43.419 34.778 C 39.481 36.228,36.414 39.235,34.955 43.073 C 34.154 45.181,34.133 47.323,34.133 127.989 L 34.133 210.741 35.052 213.197 C 36.294 216.517,39.488 219.708,42.815 220.952 L 45.283 221.876 102.961 221.765 L 160.640 221.653 162.773 220.634 C 165.896 219.142,219.142 165.896,220.634 162.773 L 221.653 160.640 221.765 102.961 C 221.876 45.393,221.874 45.278,220.985 42.903 C 219.902 40.007,216.963 36.860,213.973 35.393 L 211.840 34.347 128.427 34.268 C 58.514 34.203,44.755 34.285,43.419 34.778 M209.408 46.592 C 209.801 46.985,209.920 59.553,209.920 100.565 L 209.920 154.027 184.213 154.028 C 159.315 154.030,158.463 154.057,157.116 154.878 C 156.351 155.344,155.344 156.351,154.878 157.116 C 154.057 158.463,154.030 159.315,154.028 184.213 L 154.027 209.920 100.565 209.920 C 59.553 209.920,46.985 209.801,46.592 209.408 C 45.847 208.663,45.847 47.337,46.592 46.592 C 47.337 45.847,208.663 45.847,209.408 46.592 M201.387 166.082 C 201.387 166.142,193.419 174.157,183.680 183.893 L 165.973 201.596 165.973 183.785 L 165.973 165.973 183.680 165.973 C 193.419 165.973,201.387 166.022,201.387 166.082 " stroke="none" fill-rule="evenodd"></path></svg>