<svg fill="currentColor" viewBox="0 0 256 256" xmlns="http://www.w3.org/2000/svg"><path d="M189.653 26.636 C 178.885 28.768,169.521 36.093,165.100 45.843 C 162.828 50.854,162.009 55.334,162.248 61.440 C 162.614 70.766,165.452 77.220,172.116 83.884 C 178.780 90.548,185.234 93.386,194.560 93.752 C 198.996 93.926,200.519 93.812,203.609 93.073 C 210.581 91.406,216.034 88.242,220.900 83.040 C 224.257 79.451,226.586 75.493,228.336 70.400 C 229.646 66.589,229.730 65.989,229.741 60.373 C 229.751 56.005,229.554 53.655,229.010 51.627 C 228.012 47.909,224.908 41.732,222.529 38.732 C 218.487 33.634,211.677 29.143,205.215 27.312 C 201.085 26.142,193.756 25.824,189.653 26.636 M200.585 38.587 C 211.897 40.985,219.639 52.327,217.632 63.560 C 215.739 74.151,206.626 81.897,196.036 81.915 C 182.110 81.938,171.696 69.076,174.552 55.381 C 175.781 49.487,180.221 43.603,185.554 40.800 C 190.652 38.121,195.217 37.449,200.585 38.587 M41.894 43.547 C 38.718 45.134,36.180 47.896,35.001 51.047 C 34.140 53.347,34.133 53.980,34.133 132.053 L 34.133 210.741 35.052 213.197 C 36.292 216.512,39.488 219.708,42.803 220.948 L 45.259 221.867 123.947 221.867 C 202.020 221.867,202.653 221.860,204.953 220.999 C 208.217 219.778,210.888 217.273,212.571 213.853 L 213.973 211.005 213.973 168.756 C 213.973 127.045,213.962 126.488,213.105 125.013 C 211.946 123.018,209.792 121.928,207.473 122.164 C 205.060 122.409,203.617 123.429,202.640 125.580 C 201.865 127.287,201.832 129.041,201.823 168.128 C 201.816 199.257,201.692 209.017,201.301 209.408 C 200.557 210.153,47.337 210.153,46.592 209.408 C 45.847 208.663,45.847 55.443,46.592 54.699 C 46.983 54.308,56.640 54.186,87.445 54.184 C 115.215 54.183,128.308 54.037,129.460 53.717 C 134.301 52.373,135.523 45.945,131.457 43.214 L 130.007 42.240 87.258 42.240 L 44.510 42.240 41.894 43.547 " stroke="none" fill-rule="evenodd"></path></svg>