<svg fill="currentColor" viewBox="0 0 256 256" xmlns="http://www.w3.org/2000/svg"><path d="M120.747 26.275 C 119.925 26.371,117.429 26.657,115.200 26.911 C 97.087 28.974,78.488 36.924,63.688 48.928 C 59.118 52.635,51.837 59.914,48.399 64.213 C 33.997 82.223,26.027 104.946,26.027 128.000 C 26.027 160.313,41.247 190.513,67.313 209.917 C 80.785 219.946,95.439 226.020,113.280 228.971 C 119.895 230.065,136.063 230.069,142.720 228.978 C 167.013 224.997,187.139 214.259,203.399 196.604 C 216.819 182.033,225.565 163.607,228.975 142.720 C 230.058 136.090,230.063 120.352,228.985 113.526 C 224.265 83.633,208.329 58.913,183.040 42.254 C 177.765 38.779,167.473 33.766,161.280 31.655 C 155.481 29.679,148.709 28.035,142.507 27.099 C 138.223 26.452,123.882 25.910,120.747 26.275 M135.893 38.406 C 157.181 40.367,176.604 49.439,191.583 64.417 C 214.095 86.930,223.023 119.642,215.057 150.423 C 206.452 183.673,179.597 209.228,146.031 216.109 C 109.820 223.532,73.053 208.220,52.793 177.280 C 38.454 155.382,34.420 129.001,41.473 103.253 C 45.847 87.286,56.674 70.443,69.499 59.655 C 88.315 43.828,112.102 36.215,135.893 38.406 M108.396 75.353 C 107.669 75.965,106.891 76.808,106.667 77.226 C 106.153 78.186,98.133 126.143,98.133 128.256 C 98.133 131.362,100.895 133.976,104.171 133.971 C 105.695 133.969,106.336 133.613,110.457 130.480 C 119.400 123.682,132.710 124.924,140.200 133.255 C 144.857 138.434,146.786 145.400,145.494 152.368 C 144.934 155.387,142.540 160.210,140.389 162.655 C 133.319 170.687,120.120 172.364,111.573 166.316 C 110.635 165.652,108.934 164.439,107.793 163.621 C 105.348 161.867,102.991 161.646,100.821 162.969 C 98.846 164.173,97.993 166.074,98.246 168.707 C 98.441 170.729,98.641 171.046,101.275 173.492 C 107.895 179.643,118.338 182.899,127.787 181.759 C 150.545 179.013,163.897 155.985,155.176 134.521 C 151.839 126.309,144.107 119.136,135.192 115.981 C 128.856 113.739,120.447 113.492,114.223 115.365 C 113.118 115.698,112.210 115.845,112.205 115.692 C 112.200 115.539,113.286 108.845,114.617 100.817 L 117.038 86.220 135.445 86.097 C 152.345 85.983,153.948 85.910,155.026 85.203 C 158.636 82.837,158.806 77.585,155.354 75.127 C 154.131 74.256,153.705 74.240,131.914 74.240 L 109.719 74.240 108.396 75.353 " stroke="none" fill-rule="evenodd"></path></svg>