<svg fill="currentColor" viewBox="0 0 256 256" xmlns="http://www.w3.org/2000/svg"><path d="M120.747 26.275 C 119.925 26.371,117.429 26.657,115.200 26.911 C 97.087 28.974,78.488 36.924,63.688 48.928 C 59.118 52.635,51.837 59.914,48.399 64.213 C 33.997 82.223,26.027 104.946,26.027 128.000 C 26.027 160.313,41.247 190.513,67.313 209.917 C 80.785 219.946,95.439 226.020,113.280 228.971 C 119.895 230.065,136.063 230.069,142.720 228.978 C 167.013 224.997,187.139 214.259,203.399 196.604 C 216.819 182.033,225.565 163.607,228.975 142.720 C 230.058 136.090,230.063 120.352,228.985 113.526 C 224.265 83.633,208.329 58.913,183.040 42.254 C 177.765 38.779,167.473 33.766,161.280 31.655 C 155.481 29.679,148.709 28.035,142.507 27.099 C 138.223 26.452,123.882 25.910,120.747 26.275 M135.893 38.406 C 157.181 40.367,176.604 49.439,191.583 64.417 C 214.095 86.930,223.023 119.642,215.057 150.423 C 206.452 183.673,179.597 209.228,146.031 216.109 C 109.820 223.532,73.053 208.220,52.793 177.280 C 38.454 155.382,34.420 129.001,41.473 103.253 C 45.847 87.286,56.674 70.443,69.499 59.655 C 88.315 43.828,112.102 36.215,135.893 38.406 M121.387 74.913 C 117.506 75.768,112.231 78.341,109.024 80.940 C 104.145 84.895,99.909 91.418,99.508 95.593 C 99.149 99.330,101.611 101.969,105.461 101.972 C 108.096 101.974,109.664 100.645,111.629 96.743 C 116.369 87.331,126.370 83.721,135.587 88.096 C 144.342 92.252,148.219 102.617,144.318 111.437 C 143.866 112.458,133.389 126.778,121.037 143.257 C 108.684 159.737,98.454 173.713,98.303 174.316 C 97.855 176.101,98.418 178.779,99.485 179.937 C 101.578 182.209,101.299 182.187,128.093 182.186 C 150.916 182.185,153.082 182.124,154.445 181.439 C 158.628 179.338,159.046 173.434,155.179 171.076 C 153.880 170.284,152.908 170.243,135.147 170.242 C 123.015 170.241,116.480 170.091,116.480 169.814 C 116.480 169.580,124.862 158.209,135.107 144.546 C 146.042 129.962,154.231 118.641,154.937 117.132 C 159.825 106.686,158.455 94.429,151.418 85.656 C 147.549 80.833,143.036 77.694,137.069 75.677 C 132.848 74.250,125.921 73.912,121.387 74.913 " stroke="none" fill-rule="evenodd"></path></svg>