<svg fill="currentColor" viewBox="0 0 256 256" xmlns="http://www.w3.org/2000/svg"><path d="M43.419 34.778 C 39.481 36.228,36.414 39.235,34.955 43.073 C 34.154 45.181,34.133 47.323,34.133 127.989 L 34.133 210.741 35.052 213.197 C 36.292 216.512,39.488 219.708,42.803 220.948 L 45.259 221.867 128.000 221.867 L 210.741 221.867 213.138 220.970 C 216.379 219.757,219.757 216.379,220.970 213.138 L 221.867 210.741 221.867 128.000 C 221.867 45.292,221.866 45.258,220.981 42.891 C 219.902 40.008,216.957 36.857,213.973 35.393 L 211.840 34.347 128.427 34.268 C 58.514 34.203,44.755 34.285,43.419 34.778 M209.408 46.592 C 210.153 47.337,210.153 208.663,209.408 209.408 C 208.663 210.153,47.337 210.153,46.592 209.408 C 45.847 208.663,45.847 47.337,46.592 46.592 C 47.337 45.847,208.663 45.847,209.408 46.592 M116.895 66.860 C 116.315 67.260,115.606 67.884,115.321 68.247 C 115.036 68.610,109.206 85.677,102.365 106.174 C 89.202 145.617,89.401 144.890,91.107 147.494 C 91.488 148.076,92.601 148.915,93.580 149.360 C 95.249 150.118,96.677 150.169,116.565 150.177 L 137.770 150.187 137.898 164.023 C 138.021 177.225,138.067 177.913,138.906 179.037 C 141.841 182.965,146.159 182.965,149.094 179.037 C 149.933 177.913,149.979 177.225,150.102 164.023 L 150.230 150.187 155.009 150.184 C 160.570 150.182,162.683 149.703,164.308 148.077 C 166.724 145.661,166.288 141.115,163.457 139.214 C 162.121 138.316,161.543 138.240,156.097 138.240 L 150.187 138.240 150.184 125.120 C 150.183 117.529,149.999 111.340,149.747 110.435 C 149.503 109.557,148.655 108.293,147.815 107.555 C 146.535 106.431,145.980 106.240,144.000 106.240 C 142.020 106.240,141.465 106.431,140.185 107.555 C 139.345 108.293,138.497 109.557,138.253 110.435 C 138.001 111.340,137.817 117.529,137.816 125.120 L 137.813 138.240 121.173 138.240 C 108.093 138.240,104.533 138.125,104.533 137.703 C 104.533 137.408,109.344 122.768,115.224 105.170 C 127.319 68.968,127.031 70.213,123.929 67.532 C 122.556 66.345,121.981 66.133,120.131 66.133 C 118.773 66.133,117.552 66.408,116.895 66.860 " stroke="none" fill-rule="evenodd"></path></svg>