<svg fill="currentColor" viewBox="0 0 256 256" xmlns="http://www.w3.org/2000/svg"><path d="M109.867 34.769 C 108.928 35.099,107.791 35.852,107.341 36.443 C 106.126 38.036,66.133 150.316,66.133 152.132 C 66.133 154.152,67.156 156.016,68.821 157.031 C 70.148 157.840,71.249 157.864,108.053 157.865 L 145.920 157.867 145.920 183.332 C 145.920 207.834,145.952 208.863,146.764 210.541 C 147.801 212.683,149.755 213.902,152.153 213.902 C 154.269 213.902,155.873 212.971,157.032 211.070 C 157.832 209.758,157.864 208.726,157.865 183.787 L 157.867 157.867 167.787 157.865 C 176.867 157.864,177.822 157.793,179.070 157.032 C 180.971 155.873,181.902 154.269,181.902 152.153 C 181.902 149.755,180.683 147.801,178.541 146.764 C 176.964 146.001,175.891 145.920,167.332 145.920 L 157.867 145.920 157.867 120.066 C 157.867 91.120,158.035 92.704,154.770 90.870 C 151.803 89.202,148.265 90.338,146.667 93.470 C 145.982 94.815,145.921 96.999,145.921 120.427 L 145.920 145.920 113.280 145.920 C 95.328 145.920,80.640 145.861,80.640 145.789 C 80.640 145.716,89.007 122.244,99.234 93.629 C 116.005 46.704,117.811 41.399,117.642 39.553 C 117.419 37.111,115.846 35.206,113.518 34.560 C 111.690 34.052,111.956 34.037,109.867 34.769 " stroke="none" fill-rule="evenodd"></path></svg>