<svg fill="currentColor" viewBox="0 0 256 256" xmlns="http://www.w3.org/2000/svg"><path d="M120.747 26.275 C 119.925 26.371,117.429 26.657,115.200 26.911 C 97.087 28.974,78.488 36.924,63.688 48.928 C 59.118 52.635,51.837 59.914,48.399 64.213 C 33.997 82.223,26.027 104.946,26.027 128.000 C 26.027 160.313,41.247 190.513,67.313 209.917 C 80.785 219.946,95.439 226.020,113.280 228.971 C 119.895 230.065,136.063 230.069,142.720 228.978 C 167.013 224.997,187.139 214.259,203.399 196.604 C 216.819 182.033,225.565 163.607,228.975 142.720 C 230.058 136.090,230.063 120.352,228.985 113.526 C 224.265 83.633,208.329 58.913,183.040 42.254 C 177.765 38.779,167.473 33.766,161.280 31.655 C 155.481 29.679,148.709 28.035,142.507 27.099 C 138.223 26.452,123.882 25.910,120.747 26.275 M135.893 38.406 C 157.181 40.367,176.604 49.439,191.583 64.417 C 214.095 86.930,223.023 119.642,215.057 150.423 C 206.452 183.673,179.597 209.228,146.031 216.109 C 109.820 223.532,73.053 208.220,52.793 177.280 C 38.454 155.382,34.420 129.001,41.473 103.253 C 45.847 87.286,56.674 70.443,69.499 59.655 C 88.315 43.828,112.102 36.215,135.893 38.406 M116.895 66.860 C 116.315 67.260,115.606 67.884,115.321 68.247 C 115.036 68.610,109.206 85.677,102.365 106.174 C 89.202 145.617,89.401 144.890,91.107 147.494 C 91.488 148.076,92.601 148.915,93.580 149.360 C 95.249 150.118,96.677 150.169,116.565 150.177 L 137.770 150.187 137.898 164.023 C 138.021 177.225,138.067 177.913,138.906 179.037 C 141.841 182.965,146.159 182.965,149.094 179.037 C 149.933 177.913,149.979 177.225,150.102 164.023 L 150.230 150.187 155.009 150.184 C 160.570 150.182,162.683 149.703,164.308 148.077 C 166.724 145.661,166.288 141.115,163.457 139.214 C 162.121 138.316,161.543 138.240,156.097 138.240 L 150.187 138.240 150.184 125.120 C 150.183 117.529,149.999 111.340,149.747 110.435 C 149.503 109.557,148.655 108.293,147.815 107.555 C 146.535 106.431,145.980 106.240,144.000 106.240 C 142.020 106.240,141.465 106.431,140.185 107.555 C 139.345 108.293,138.497 109.557,138.253 110.435 C 138.001 111.340,137.817 117.529,137.816 125.120 L 137.813 138.240 121.173 138.240 C 108.093 138.240,104.533 138.125,104.533 137.703 C 104.533 137.408,109.344 122.768,115.224 105.170 C 127.319 68.968,127.031 70.213,123.929 67.532 C 122.556 66.345,121.981 66.133,120.131 66.133 C 118.773 66.133,117.552 66.408,116.895 66.860 " stroke="none" fill-rule="evenodd"></path></svg>