<svg fill="currentColor" viewBox="0 0 256 256" xmlns="http://www.w3.org/2000/svg"><path d="M120.747 26.275 C 119.925 26.371,117.429 26.657,115.200 26.911 C 97.087 28.974,78.488 36.924,63.688 48.928 C 59.118 52.635,51.837 59.914,48.399 64.213 C 33.997 82.223,26.027 104.946,26.027 128.000 C 26.027 160.313,41.247 190.513,67.313 209.917 C 80.785 219.946,95.439 226.020,113.280 228.971 C 119.895 230.065,136.063 230.069,142.720 228.978 C 167.013 224.997,187.139 214.259,203.399 196.604 C 216.819 182.033,225.565 163.607,228.975 142.720 C 230.058 136.090,230.063 120.352,228.985 113.526 C 224.265 83.633,208.329 58.913,183.040 42.254 C 177.765 38.779,167.473 33.766,161.280 31.655 C 155.481 29.679,148.709 28.035,142.507 27.099 C 138.223 26.452,123.882 25.910,120.747 26.275 M135.893 38.406 C 157.181 40.367,176.604 49.439,191.583 64.417 C 214.095 86.930,223.023 119.642,215.057 150.423 C 206.452 183.673,179.597 209.228,146.031 216.109 C 109.820 223.532,73.053 208.220,52.793 177.280 C 38.454 155.382,34.420 129.001,41.473 103.253 C 45.847 87.286,56.674 70.443,69.499 59.655 C 88.315 43.828,112.102 36.215,135.893 38.406 M119.279 74.944 C 108.209 77.317,98.520 85.382,92.667 97.095 C 86.505 109.426,84.451 127.731,87.501 143.131 C 90.883 160.208,99.623 172.882,111.940 178.573 C 121.740 183.101,134.260 183.101,144.060 178.573 C 161.308 170.604,171.336 148.781,169.743 122.682 C 168.206 97.491,155.165 78.786,136.442 74.919 C 132.286 74.060,123.341 74.074,119.279 74.944 M134.630 86.834 C 148.802 90.444,157.867 106.502,157.867 128.000 C 157.867 149.552,148.909 165.419,134.613 169.190 C 131.289 170.067,124.711 170.067,121.387 169.190 C 107.091 165.419,98.133 149.552,98.133 128.000 C 98.133 106.636,107.141 90.553,121.173 86.860 C 124.317 86.033,131.430 86.019,134.630 86.834 " stroke="none" fill-rule="evenodd"></path></svg>