<svg fill="currentColor" viewBox="0 0 256 256" xmlns="http://www.w3.org/2000/svg"><path d="M120.085 34.729 C 110.431 36.572,102.893 40.454,96.071 47.097 C 88.443 54.526,84.111 62.939,82.536 73.385 C 81.762 78.519,81.766 81.504,82.552 86.721 C 83.629 93.862,86.217 100.285,90.536 106.532 C 92.934 110.002,99.065 116.069,102.129 118.005 C 103.216 118.691,104.100 119.349,104.093 119.467 C 104.087 119.584,102.547 120.527,100.672 121.561 C 93.354 125.600,85.943 133.025,81.397 140.875 C 75.750 150.625,73.168 161.981,74.199 172.539 C 75.545 186.319,81.181 197.938,91.028 207.234 C 101.273 216.906,113.808 221.867,128.000 221.867 C 142.141 221.867,154.763 216.889,164.864 207.327 C 183.376 189.804,187.328 162.845,174.603 140.875 C 170.057 133.025,162.646 125.600,155.328 121.561 C 153.453 120.527,151.913 119.584,151.907 119.467 C 151.900 119.349,152.784 118.691,153.871 118.005 C 156.935 116.069,163.066 110.002,165.464 106.532 C 169.768 100.307,172.361 93.847,173.459 86.613 C 174.238 81.488,174.235 78.503,173.448 73.279 C 171.636 61.259,165.178 50.489,155.328 43.059 C 151.341 40.052,144.727 36.882,139.733 35.584 C 134.477 34.219,124.936 33.803,120.085 34.729 M137.387 47.349 C 143.191 49.012,149.883 53.240,153.501 57.532 C 159.204 64.296,161.790 71.305,161.790 80.000 C 161.790 87.228,160.195 92.692,156.348 98.642 C 152.018 105.340,145.539 110.142,137.372 112.707 C 134.644 113.563,133.299 113.707,128.000 113.707 C 121.170 113.707,118.078 113.033,112.868 110.410 C 103.771 105.829,97.243 97.541,94.877 87.569 C 93.988 83.822,93.991 76.229,94.884 72.431 C 98.076 58.842,108.502 49.128,122.880 46.349 C 125.482 45.845,134.249 46.450,137.387 47.349 M135.680 126.777 C 144.732 128.403,154.364 134.005,160.103 140.982 C 164.579 146.424,167.655 152.793,169.039 159.487 C 170.128 164.757,169.932 173.871,168.628 178.560 C 165.802 188.723,159.492 197.455,150.866 203.139 C 137.132 212.189,118.868 212.189,105.134 203.139 C 96.508 197.455,90.198 188.723,87.372 178.560 C 86.068 173.871,85.872 164.757,86.961 159.487 C 90.179 143.922,101.751 131.715,117.430 127.346 C 122.337 125.979,129.921 125.742,135.680 126.777 " stroke="none" fill-rule="evenodd"></path></svg>