<svg fill="currentColor" viewBox="0 0 256 256" xmlns="http://www.w3.org/2000/svg"><path d="M43.419 34.778 C 39.481 36.228,36.414 39.235,34.955 43.073 C 34.154 45.181,34.133 47.323,34.133 127.989 L 34.133 210.741 35.052 213.197 C 36.292 216.512,39.488 219.708,42.803 220.948 L 45.259 221.867 128.000 221.867 L 210.741 221.867 213.138 220.970 C 216.379 219.757,219.757 216.379,220.970 213.138 L 221.867 210.741 221.867 128.000 C 221.867 45.292,221.866 45.258,220.981 42.891 C 219.902 40.008,216.957 36.857,213.973 35.393 L 211.840 34.347 128.427 34.268 C 58.514 34.203,44.755 34.285,43.419 34.778 M209.408 46.592 C 210.153 47.337,210.153 208.663,209.408 209.408 C 208.663 210.153,47.337 210.153,46.592 209.408 C 45.847 208.663,45.847 47.337,46.592 46.592 C 47.337 45.847,208.663 45.847,209.408 46.592 M120.475 74.851 C 110.894 77.029,102.087 83.909,97.664 92.671 C 95.269 97.416,94.187 102.061,94.157 107.733 C 94.121 114.586,95.525 119.762,99.049 125.772 C 100.956 129.025,107.109 135.180,110.293 137.022 C 116.476 140.597,123.492 142.362,129.777 141.925 L 133.473 141.668 123.919 157.714 C 118.665 166.539,114.239 174.432,114.085 175.255 C 113.408 178.861,117.312 182.630,121.005 181.937 C 121.912 181.767,123.188 181.066,123.964 180.312 C 125.508 178.812,156.855 126.413,158.960 121.813 C 161.160 117.005,161.868 113.544,161.840 107.733 C 161.820 103.459,161.626 101.982,160.670 98.789 C 157.337 87.664,149.404 79.381,138.591 75.737 C 135.508 74.698,134.253 74.521,129.067 74.398 C 125.016 74.302,122.251 74.448,120.475 74.851 M137.123 88.248 C 143.334 91.159,147.857 96.578,149.299 102.839 C 149.961 105.711,149.850 111.325,149.079 113.949 C 147.482 119.388,143.815 124.158,139.018 127.038 C 135.688 129.037,130.301 130.309,126.518 129.989 C 118.357 129.298,111.982 124.928,108.303 117.504 C 106.533 113.932,106.456 113.613,106.305 109.178 C 106.176 105.413,106.309 104.032,107.032 101.652 C 108.756 95.975,113.142 90.830,118.391 88.325 C 122.222 86.496,123.813 86.198,128.887 86.360 C 133.134 86.495,133.621 86.607,137.123 88.248 " stroke="none" fill-rule="evenodd"></path></svg>