<svg fill="currentColor" viewBox="0 0 256 256" xmlns="http://www.w3.org/2000/svg"><path d="M100.794 43.092 C 100.029 43.559,99.114 44.566,98.762 45.330 C 98.410 46.095,94.654 64.000,90.415 85.120 C 81.856 127.765,82.155 125.339,85.140 127.960 C 87.175 129.747,89.994 129.812,92.420 128.129 C 100.239 122.705,102.617 121.455,108.587 119.632 C 112.144 118.546,112.975 118.459,119.893 118.453 C 126.253 118.448,127.852 118.583,130.681 119.370 C 145.030 123.357,156.129 134.245,160.231 148.357 C 162.286 155.427,162.280 164.559,160.217 171.678 C 154.652 190.882,136.166 203.586,116.436 201.765 C 107.463 200.937,100.872 198.218,92.753 191.996 C 90.354 190.157,89.710 189.867,88.025 189.867 C 84.503 189.867,81.920 192.440,81.920 195.948 C 81.920 198.082,83.354 199.903,87.528 203.071 C 97.012 210.269,107.968 213.908,120.107 213.892 C 140.431 213.866,158.536 202.809,167.832 184.747 C 173.162 174.390,175.066 163.592,173.469 152.778 C 170.793 134.666,160.386 120.103,144.259 111.906 C 135.588 107.499,128.430 105.998,117.772 106.354 C 110.725 106.590,105.843 107.548,100.317 109.780 C 98.881 110.360,97.707 110.712,97.707 110.564 C 97.707 110.415,100.230 97.674,103.314 82.251 L 108.922 54.208 139.261 54.091 C 168.623 53.977,169.645 53.946,170.996 53.129 C 172.399 52.281,174.080 49.485,174.080 48.000 C 174.080 46.570,172.420 43.732,171.143 42.977 C 169.989 42.295,167.356 42.240,136.041 42.242 C 102.999 42.243,102.153 42.264,100.794 43.092 " stroke="none" fill-rule="evenodd"></path></svg>