<svg fill="currentColor" viewBox="0 0 256 256" xmlns="http://www.w3.org/2000/svg"><path d="M120.960 42.546 C 114.249 43.480,104.780 47.682,99.129 52.236 C 91.795 58.145,84.900 68.434,85.463 72.630 C 85.910 75.961,88.766 78.305,91.910 77.920 C 94.277 77.630,95.542 76.519,97.493 73.014 C 102.555 63.923,109.154 58.382,118.400 55.462 C 122.973 54.017,130.860 53.807,135.836 54.996 C 157.167 60.096,168.163 83.624,158.342 103.156 C 157.120 105.587,146.039 120.667,119.977 155.367 C 99.822 182.203,83.014 204.774,82.626 205.525 C 81.715 207.288,81.747 208.431,82.770 210.685 C 83.420 212.117,84.018 212.701,85.508 213.360 C 87.369 214.184,88.374 214.201,128.507 214.088 C 168.587 213.976,169.634 213.953,170.996 213.129 C 172.399 212.281,174.080 209.485,174.080 208.000 C 174.080 206.570,172.420 203.732,171.143 202.977 C 169.988 202.295,167.304 202.240,135.081 202.240 C 115.933 202.240,100.272 202.096,100.278 201.920 C 100.284 201.744,115.255 181.652,133.546 157.272 C 157.281 125.636,167.348 111.889,168.706 109.260 C 180.646 86.143,171.571 58.425,148.267 46.832 C 141.602 43.517,135.643 42.209,127.633 42.304 C 124.667 42.339,121.664 42.448,120.960 42.546 " stroke="none" fill-rule="evenodd"></path></svg>