<svg fill="currentColor" viewBox="0 0 256 256" xmlns="http://www.w3.org/2000/svg"><path d="M120.747 26.275 C 119.925 26.371,117.429 26.657,115.200 26.911 C 97.087 28.974,78.488 36.924,63.688 48.928 C 59.118 52.635,51.837 59.914,48.399 64.213 C 33.997 82.223,26.027 104.946,26.027 128.000 C 26.027 160.313,41.247 190.513,67.313 209.917 C 80.785 219.946,95.439 226.020,113.280 228.971 C 119.895 230.065,136.063 230.069,142.720 228.978 C 167.013 224.997,187.139 214.259,203.399 196.604 C 216.819 182.033,225.565 163.607,228.975 142.720 C 230.058 136.090,230.063 120.352,228.985 113.526 C 224.265 83.633,208.329 58.913,183.040 42.254 C 177.765 38.779,167.473 33.766,161.280 31.655 C 155.481 29.679,148.709 28.035,142.507 27.099 C 138.223 26.452,123.882 25.910,120.747 26.275 M135.893 38.406 C 157.181 40.367,176.604 49.439,191.583 64.417 C 214.095 86.930,223.023 119.642,215.057 150.423 C 206.452 183.673,179.597 209.228,146.031 216.109 C 109.820 223.532,73.053 208.220,52.793 177.280 C 38.454 155.382,34.420 129.001,41.473 103.253 C 45.847 87.286,56.674 70.443,69.499 59.655 C 88.315 43.828,112.102 36.215,135.893 38.406 M101.172 78.810 C 98.993 79.883,98.052 81.677,98.252 84.377 C 98.421 86.662,99.367 88.181,101.333 89.319 C 101.929 89.664,107.938 89.878,121.252 90.027 L 140.318 90.240 129.492 105.681 C 123.539 114.174,118.479 121.806,118.248 122.641 C 117.158 126.589,120.430 130.133,125.165 130.133 C 126.156 130.133,128.096 130.427,129.476 130.787 C 139.160 133.309,145.920 142.089,145.920 152.144 C 145.920 165.178,133.915 175.613,121.075 173.742 C 116.871 173.129,112.532 171.109,109.036 168.137 C 106.255 165.773,104.512 165.206,102.285 165.941 C 98.866 167.069,97.102 171.275,98.728 174.420 C 99.541 175.991,104.174 179.816,107.558 181.710 C 125.021 191.482,147.679 183.618,155.298 165.140 C 157.373 160.108,158.008 156.315,157.754 150.450 C 157.512 144.831,156.634 141.287,154.378 136.813 C 150.647 129.414,143.164 122.702,135.807 120.155 L 134.395 119.666 146.131 102.885 C 157.224 87.023,157.867 85.999,157.867 84.204 C 157.867 81.791,156.996 80.109,155.160 78.975 C 153.732 78.092,153.369 78.080,128.163 78.090 C 105.205 78.098,102.467 78.171,101.172 78.810 " stroke="none" fill-rule="evenodd"></path></svg>