<svg fill="currentColor" viewBox="0 0 256 256" xmlns="http://www.w3.org/2000/svg"><path d="M60.970 34.775 C 51.221 36.718,42.064 43.895,37.342 53.295 C 33.370 61.203,33.098 72.322,36.662 81.050 C 39.504 88.011,45.607 94.722,52.026 97.946 C 53.214 98.543,54.187 99.176,54.187 99.353 C 54.187 99.530,53.054 101.872,51.670 104.557 C 29.496 147.568,47.074 200.157,90.667 221.228 C 96.976 224.278,102.070 226.101,108.441 227.591 C 116.099 229.382,119.320 229.729,128.213 229.721 C 137.317 229.712,141.329 229.228,149.528 227.151 C 170.535 221.830,189.496 207.932,201.001 189.423 C 206.029 181.335,210.743 169.715,210.191 166.772 C 209.466 162.906,204.396 160.875,201.030 163.103 C 199.615 164.040,199.214 164.705,197.981 168.171 C 195.793 174.316,191.111 183.184,187.539 187.947 C 182.012 195.316,174.544 202.270,167.225 206.860 C 158.634 212.249,146.265 216.580,137.013 217.440 L 133.973 217.723 133.973 164.314 C 133.973 105.518,134.125 108.807,131.332 107.104 C 128.014 105.081,129.469 104.435,90.240 125.356 L 54.400 144.471 54.274 141.261 C 54.065 135.953,55.613 127.188,58.078 119.724 C 59.521 115.353,64.683 105.405,67.730 101.120 C 71.339 96.047,79.704 87.590,84.480 84.188 C 93.959 77.436,105.110 72.759,115.627 71.124 L 119.253 70.561 152.533 86.160 L 185.813 101.760 190.080 101.724 C 193.700 101.693,194.961 101.479,198.400 100.315 C 210.106 96.353,218.230 87.501,221.073 75.609 C 222.318 70.402,222.040 62.748,220.427 57.813 C 215.912 43.999,202.754 34.127,188.869 34.135 C 185.775 34.137,183.878 35.087,182.798 37.175 C 181.865 38.980,181.928 41.690,182.934 43.037 C 184.543 45.192,185.772 45.747,189.758 46.114 C 197.401 46.820,203.167 50.149,207.012 56.076 C 211.367 62.789,211.629 71.915,207.669 78.933 C 204.688 84.216,198.558 88.534,192.502 89.616 L 189.528 90.148 129.556 62.140 L 69.584 34.133 66.686 34.173 C 65.091 34.195,62.519 34.466,60.970 34.775 M83.873 54.021 C 93.242 58.389,100.982 62.033,101.074 62.118 C 101.167 62.203,100.879 62.400,100.434 62.555 C 86.989 67.238,74.761 75.133,65.170 85.321 L 61.570 89.145 58.475 87.662 C 50.509 83.844,45.509 75.093,46.240 66.246 C 47.005 56.985,53.489 49.135,62.341 46.754 C 63.606 46.414,65.135 46.124,65.740 46.108 C 66.345 46.093,74.505 49.654,83.873 54.021 M122.027 169.872 L 122.027 217.718 119.147 217.424 C 115.320 217.034,109.356 215.717,105.278 214.362 L 101.969 213.262 102.078 172.944 L 102.187 132.627 112.000 127.339 C 117.397 124.431,121.861 122.046,121.920 122.039 C 121.979 122.032,122.027 143.557,122.027 169.872 M166.826 139.627 C 158.297 144.748,162.063 157.867,172.063 157.867 C 178.600 157.867,183.403 151.576,181.592 145.387 C 180.247 140.792,176.786 138.240,171.900 138.240 C 169.539 138.240,168.798 138.443,166.826 139.627 M90.027 173.261 L 90.027 207.430 88.427 206.462 C 75.668 198.742,64.315 184.720,58.755 169.813 C 57.076 165.313,55.353 158.959,55.552 157.999 C 55.622 157.657,63.360 153.274,72.747 148.259 C 82.133 143.243,89.861 139.130,89.920 139.117 C 89.979 139.104,90.027 154.469,90.027 173.261 " stroke="none" fill-rule="evenodd"></path></svg>