<svg fill="currentColor" viewBox="0 0 256 256" xmlns="http://www.w3.org/2000/svg"><path d="M90.772 18.377 C 86.274 19.454,82.225 22.935,80.708 27.031 C 79.430 30.481,65.998 125.208,66.240 129.067 C 66.559 134.165,69.754 138.709,74.592 140.945 L 76.587 141.867 128.000 141.867 L 179.413 141.867 181.408 140.945 C 184.121 139.691,187.154 136.802,188.484 134.204 C 190.596 130.080,190.597 130.087,182.904 76.790 C 177.628 40.236,175.697 27.867,175.034 26.369 C 173.738 23.437,171.072 20.784,167.999 19.364 L 165.333 18.133 128.853 18.064 C 108.481 18.025,91.666 18.163,90.772 18.377 M163.350 30.613 C 164.148 31.288,164.897 36.013,171.078 79.360 C 174.842 105.760,177.921 127.682,177.921 128.076 C 177.920 128.470,177.618 129.094,177.250 129.463 C 176.648 130.065,171.594 130.133,128.000 130.133 C 84.406 130.133,79.352 130.065,78.750 129.463 C 78.382 129.094,78.080 128.470,78.079 128.076 C 78.079 127.682,81.158 105.760,84.922 79.360 C 91.103 36.013,91.852 31.288,92.650 30.613 C 93.476 29.916,95.797 29.867,128.000 29.867 C 160.203 29.867,162.524 29.916,163.350 30.613 M13.227 122.774 C 12.227 123.273,11.407 124.178,10.747 125.508 C 9.900 127.215,9.823 127.729,10.203 129.135 C 10.446 130.036,10.963 131.226,11.352 131.778 C 12.727 133.735,14.174 133.973,24.678 133.973 L 34.450 133.973 34.735 136.118 C 35.115 138.987,37.181 145.217,38.857 148.551 C 41.094 152.999,44.223 157.174,48.140 160.936 C 55.472 167.977,63.177 171.832,73.149 173.450 C 76.197 173.944,81.769 174.077,99.520 174.078 L 122.027 174.080 122.027 188.160 L 122.027 202.240 107.152 202.240 C 98.970 202.240,91.285 202.428,90.073 202.658 C 86.808 203.277,82.504 205.096,79.273 207.223 C 71.274 212.488,65.710 222.905,66.206 231.685 C 66.350 234.238,66.540 234.812,67.604 235.923 C 69.961 238.383,73.420 238.647,75.906 236.556 C 77.368 235.325,77.902 233.834,78.258 229.987 C 78.789 224.247,82.790 218.567,88.225 215.839 L 91.093 214.400 106.560 214.273 L 122.027 214.147 122.027 223.917 C 122.027 233.364,122.059 233.735,122.995 235.137 C 125.645 239.103,131.084 238.837,133.226 234.636 C 133.870 233.373,133.972 231.874,133.973 223.660 L 133.973 214.147 149.440 214.273 L 164.907 214.400 167.775 215.839 C 173.210 218.567,177.211 224.247,177.742 229.987 C 178.098 233.834,178.632 235.325,180.094 236.556 C 182.580 238.647,186.039 238.383,188.396 235.923 C 189.460 234.812,189.650 234.238,189.794 231.685 C 190.290 222.905,184.726 212.488,176.727 207.223 C 173.496 205.096,169.192 203.277,165.927 202.658 C 164.715 202.428,157.030 202.240,148.848 202.240 L 133.973 202.240 133.973 188.160 L 133.973 174.080 156.480 174.078 C 180.411 174.076,183.245 173.891,189.678 171.911 C 201.083 168.400,211.706 159.365,217.143 148.551 C 218.819 145.217,220.885 138.987,221.265 136.118 L 221.550 133.973 231.415 133.973 C 239.958 133.972,241.478 133.872,242.759 133.226 C 246.858 131.158,246.858 124.842,242.759 122.774 C 241.446 122.112,239.797 122.028,228.053 122.028 C 216.303 122.028,214.663 122.111,213.364 122.774 C 210.908 124.026,210.265 125.331,209.885 129.835 C 209.443 135.076,208.543 138.504,206.482 142.794 C 202.146 151.823,194.205 158.316,184.254 160.970 L 180.693 161.920 128.000 161.920 L 75.307 161.920 71.746 160.970 C 62.143 158.409,54.678 152.515,49.984 143.787 C 47.841 139.803,46.571 135.241,46.122 129.914 C 45.734 125.325,45.103 124.032,42.636 122.774 C 41.337 122.111,39.697 122.028,27.947 122.028 C 16.208 122.028,14.552 122.112,13.227 122.774 " stroke="none" fill-rule="evenodd"></path></svg>