<svg fill="currentColor" viewBox="0 0 256 256" xmlns="http://www.w3.org/2000/svg"><path d="M6.171 82.374 C 5.458 82.581,4.306 83.344,3.611 84.069 C 2.406 85.326,2.340 85.591,2.196 89.734 C 1.794 101.355,4.928 118.587,9.816 131.627 C 16.580 149.675,25.338 163.216,39.223 177.094 C 54.644 192.509,71.916 202.779,92.905 209.014 C 111.585 214.563,133.839 215.432,153.507 211.380 C 177.675 206.401,199.040 194.823,216.777 177.094 C 227.888 165.989,236.055 154.552,241.935 141.867 C 249.533 125.473,253.615 108.188,253.642 92.297 L 253.653 85.393 252.398 84.081 C 251.707 83.359,250.459 82.578,249.624 82.346 C 247.686 81.808,8.024 81.835,6.171 82.374 M34.133 94.411 C 34.133 94.711,34.330 96.583,34.571 98.571 C 36.176 111.836,40.888 125.620,47.545 136.531 C 64.768 164.758,95.012 181.760,128.000 181.760 C 163.688 181.760,196.016 161.801,211.966 129.920 C 217.303 119.252,219.980 109.870,221.673 95.893 L 221.919 93.867 231.706 93.867 L 241.493 93.867 241.493 95.920 C 241.493 103.154,238.545 117.218,234.991 126.933 C 223.778 157.590,199.848 182.121,169.489 194.077 C 155.971 199.401,142.604 201.885,127.565 201.868 C 98.103 201.835,70.191 190.509,49.119 170.037 C 38.943 160.152,31.905 150.496,25.788 138.027 C 19.693 125.605,15.811 112.209,14.721 99.840 C 14.586 98.315,14.385 96.347,14.273 95.467 L 14.070 93.867 24.102 93.867 C 31.953 93.867,34.133 93.985,34.133 94.411 M89.893 117.653 L 66.080 141.440 64.388 139.520 C 55.477 129.406,47.841 111.138,46.654 97.089 L 46.381 93.867 80.044 93.867 L 113.706 93.867 89.893 117.653 M209.346 97.089 C 208.647 105.358,205.595 115.811,201.446 124.145 C 198.770 129.521,194.385 136.377,191.614 139.520 L 189.920 141.440 166.107 117.653 L 142.294 93.867 175.956 93.867 L 209.619 93.867 209.346 97.089 M121.849 169.707 C 121.470 170.085,111.817 168.449,107.147 167.216 C 101.584 165.746,96.113 163.673,90.839 161.037 C 86.815 159.026,79.351 154.160,76.441 151.651 L 74.589 150.054 98.201 126.439 L 121.813 102.824 121.923 136.174 C 121.983 154.516,121.949 169.606,121.849 169.707 M179.540 151.620 C 176.852 154.034,169.374 158.932,165.161 161.037 C 157.102 165.066,148.162 167.889,139.465 169.154 C 136.971 169.517,134.715 169.813,134.452 169.813 C 134.102 169.813,133.973 160.759,133.973 136.215 L 133.973 102.616 157.674 126.295 L 181.374 149.973 179.540 151.620 " stroke="none" fill-rule="evenodd"></path></svg>