<svg fill="currentColor" viewBox="0 0 256 256" xmlns="http://www.w3.org/2000/svg"><path d="M218.240 26.308 C 207.917 27.546,199.268 30.358,188.234 36.061 C 173.983 43.428,159.689 54.480,143.560 70.603 C 132.823 81.336,123.925 91.541,111.414 107.469 L 110.282 108.912 106.729 108.013 C 104.774 107.519,101.513 106.893,99.481 106.623 C 94.806 106.001,84.464 106.350,80.250 107.272 C 59.600 111.792,43.385 126.327,36.897 146.134 C 35.137 151.505,34.286 157.128,33.731 167.040 C 32.965 180.717,30.209 189.364,23.348 199.616 C 20.907 203.264,16.114 208.440,13.191 210.586 C 9.465 213.322,8.944 217.496,11.968 220.394 L 13.283 221.653 55.175 221.778 C 101.709 221.916,101.198 221.941,109.899 219.092 C 127.601 213.296,141.495 199.356,147.109 181.760 C 150.486 171.178,150.847 160.829,148.211 150.187 L 147.102 145.708 148.537 144.580 C 178.928 120.715,199.139 100.361,212.666 80.000 C 223.558 63.604,229.211 48.845,229.826 35.200 C 230.016 30.977,229.949 30.367,229.156 29.116 C 227.699 26.818,225.945 26.020,222.507 26.092 C 220.864 26.126,218.944 26.224,218.240 26.308 M217.303 40.000 C 216.758 43.585,214.899 49.889,213.071 54.352 C 208.616 65.230,201.774 75.886,190.699 89.193 C 186.346 94.424,167.695 113.493,166.932 113.493 C 166.717 113.493,165.221 111.717,163.609 109.547 C 159.849 104.486,151.514 96.151,146.453 92.391 C 144.283 90.779,142.507 89.287,142.507 89.077 C 142.507 88.407,160.450 70.726,165.461 66.458 C 184.788 49.998,202.396 40.472,217.253 38.440 C 217.414 38.418,217.437 39.120,217.303 40.000 M137.979 101.013 C 142.480 104.204,151.841 113.583,155.075 118.144 L 157.617 121.729 155.929 123.205 C 155.000 124.016,151.481 126.899,148.110 129.611 C 143.056 133.676,141.913 134.423,141.601 133.865 C 140.400 131.719,135.545 125.656,132.944 123.056 C 130.342 120.453,124.754 116.011,122.219 114.529 C 121.510 114.114,121.773 113.651,125.011 109.622 C 130.858 102.348,134.032 98.560,134.282 98.560 C 134.412 98.560,136.075 99.664,137.979 101.013 M104.024 119.638 C 119.792 124.025,132.018 136.227,136.341 151.893 C 137.990 157.869,138.261 166.987,136.974 173.216 C 133.373 190.654,120.883 203.686,102.906 208.761 C 99.683 209.671,99.031 209.690,65.147 209.820 L 30.667 209.953 32.364 207.697 C 40.941 196.290,46.080 179.782,46.080 163.637 C 46.080 154.023,49.448 144.162,55.455 136.190 C 61.911 127.623,71.742 121.366,82.356 119.069 C 88.245 117.794,98.350 118.060,104.024 119.638 " stroke="none" fill-rule="evenodd"></path></svg>