<svg fill="currentColor" viewBox="0 0 256 256" xmlns="http://www.w3.org/2000/svg"><path d="M211.840 26.640 C 210.667 26.975,166.654 40.313,114.034 56.281 C 53.729 74.581,17.755 85.696,16.719 86.350 C 14.269 87.897,11.663 91.090,10.818 93.581 C 8.879 99.294,10.898 106.022,15.529 109.286 C 16.568 110.019,36.950 119.869,60.820 131.175 L 104.222 151.732 124.012 193.519 C 134.896 216.502,144.271 236.273,144.846 237.453 C 147.407 242.713,152.023 245.840,157.328 245.910 C 159.090 245.934,161.087 245.649,162.458 245.178 C 165.198 244.238,168.977 240.915,170.181 238.386 C 170.653 237.396,184.241 193.099,200.378 139.947 C 228.494 47.341,229.719 43.164,229.739 39.893 C 229.757 37.002,229.579 36.112,228.578 34.073 C 227.187 31.240,224.306 28.436,221.522 27.205 C 219.006 26.092,214.652 25.838,211.840 26.640 M217.376 38.815 C 218.113 39.629,217.210 42.715,188.749 136.584 C 162.323 223.739,159.262 233.548,158.390 233.866 C 157.687 234.122,157.216 234.016,156.682 233.482 C 156.276 233.076,146.944 213.763,135.944 190.565 L 115.944 148.386 140.719 123.580 C 157.435 106.843,165.588 98.391,165.781 97.597 C 166.916 92.930,161.817 88.433,157.732 90.498 C 157.219 90.757,145.732 102.017,132.204 115.520 L 107.607 140.070 65.430 120.096 C 42.233 109.110,23.013 99.938,22.720 99.715 C 21.906 99.095,22.055 96.878,22.933 96.535 C 24.657 95.863,215.313 38.054,215.934 38.016 C 216.308 37.992,216.957 38.352,217.376 38.815 " stroke="none" fill-rule="evenodd"></path></svg>