<svg fill="currentColor" viewBox="0 0 256 256" xmlns="http://www.w3.org/2000/svg"><path d="M83.935 42.892 C 81.661 43.726,78.724 45.932,77.478 47.741 C 75.830 50.133,10.709 195.174,10.184 197.622 C 9.250 201.975,11.020 206.891,14.746 210.296 C 19.154 214.324,11.416 213.973,95.787 213.973 L 170.027 213.973 172.382 213.019 C 173.885 212.410,175.544 211.249,176.968 209.807 C 179.152 207.595,179.882 206.028,212.290 134.015 C 233.733 86.365,245.533 59.662,245.812 58.153 C 246.267 55.692,245.895 52.944,244.729 50.153 C 243.740 47.787,240.663 44.784,237.867 43.456 L 235.307 42.241 160.427 42.270 C 97.710 42.295,85.285 42.396,83.935 42.892 M233.335 54.573 C 233.695 54.801,233.853 55.420,233.740 56.166 C 233.639 56.837,218.974 89.806,201.151 129.430 C 174.549 188.574,168.570 201.542,167.759 201.857 C 166.372 202.395,24.698 202.363,23.281 201.824 C 22.495 201.525,22.187 201.096,22.187 200.302 C 22.187 199.693,36.423 167.577,53.823 128.931 C 71.223 90.286,85.909 57.659,86.458 56.427 L 87.456 54.187 160.101 54.193 C 200.797 54.197,233.006 54.364,233.335 54.573 " stroke="none" fill-rule="evenodd"></path></svg>