<svg fill="currentColor" viewBox="0 0 256 256" xmlns="http://www.w3.org/2000/svg"><path d="M70.171 50.366 C 65.716 51.688,64.705 58.365,68.576 60.903 C 69.649 61.605,72.998 61.668,120.941 61.880 C 168.040 62.088,172.363 62.167,174.681 62.852 C 183.537 65.471,190.795 72.758,193.073 81.319 C 193.881 84.353,193.983 91.115,193.266 94.080 C 191.583 101.039,186.053 108.062,179.899 111.054 C 173.991 113.927,179.130 113.681,119.467 113.952 C 71.281 114.172,65.186 114.274,62.629 114.903 C 52.709 117.342,45.081 121.659,38.583 128.511 C 21.828 146.178,21.828 173.822,38.583 191.489 C 45.775 199.073,54.995 203.897,65.280 205.459 C 68.638 205.969,78.011 206.075,119.893 206.078 L 170.453 206.080 171.664 209.600 C 173.294 214.340,175.377 217.651,178.978 221.227 C 184.429 226.639,190.813 229.442,198.613 229.848 C 207.224 230.297,214.673 227.366,221.039 221.025 C 224.969 217.110,226.937 213.900,228.763 208.427 C 229.613 205.881,229.756 204.620,229.730 199.893 C 229.705 195.090,229.549 193.889,228.572 190.933 C 225.919 182.908,220.430 176.647,212.872 173.025 C 208.270 170.820,204.418 170.100,198.469 170.332 C 190.182 170.655,184.985 172.994,178.765 179.200 C 174.796 183.161,172.560 186.821,171.267 191.472 L 170.527 194.133 120.306 194.133 C 65.090 194.133,65.935 194.169,59.372 191.541 C 50.466 187.975,42.902 179.974,39.888 170.930 C 37.508 163.788,37.508 156.212,39.888 149.070 C 41.587 143.973,43.995 140.237,48.423 135.827 C 51.860 132.404,52.895 131.656,56.786 129.784 C 65.018 125.824,59.621 126.154,120.960 125.867 C 169.777 125.639,175.376 125.543,177.464 124.905 C 184.205 122.844,189.066 120.093,193.800 115.660 C 199.498 110.325,202.848 104.753,204.870 97.251 C 206.109 92.654,206.216 84.162,205.091 79.636 C 201.569 65.455,191.454 55.079,177.280 51.105 L 173.867 50.148 122.667 50.065 C 93.253 50.017,70.915 50.145,70.171 50.366 M207.908 184.019 C 219.046 189.524,221.337 204.107,212.440 212.866 C 203.648 221.520,189.071 218.772,183.779 207.463 C 182.091 203.857,181.681 198.652,182.784 194.855 C 183.815 191.311,186.636 187.467,189.793 185.307 C 193.507 182.765,195.630 182.176,200.581 182.312 C 204.342 182.416,204.950 182.558,207.908 184.019 " stroke="none" fill-rule="evenodd"></path></svg>