<svg fill="currentColor" viewBox="0 0 256 256" xmlns="http://www.w3.org/2000/svg"><path d="M50.902 35.023 C 47.722 36.256,44.764 39.085,43.268 42.325 L 42.027 45.013 42.027 128.000 L 42.027 210.987 43.268 213.675 C 44.797 216.986,47.753 219.767,51.060 221.004 C 53.381 221.872,54.009 221.891,76.746 221.774 L 100.053 221.653 102.204 220.518 C 104.820 219.137,107.702 216.098,108.945 213.408 L 109.867 211.413 109.867 128.000 L 109.867 44.587 108.945 42.592 C 107.702 39.902,104.820 36.863,102.204 35.482 L 100.053 34.347 76.587 34.255 C 53.961 34.167,53.041 34.194,50.902 35.023 M156.160 34.532 C 152.441 35.668,148.742 38.942,147.055 42.592 L 146.133 44.587 146.133 128.000 L 146.133 211.413 147.055 213.408 C 148.298 216.098,151.180 219.137,153.796 220.518 L 155.947 221.653 179.254 221.774 C 201.918 221.891,202.626 221.870,204.917 221.013 C 208.215 219.779,210.882 217.285,212.571 213.853 L 213.973 211.005 213.973 128.000 L 213.973 44.995 212.571 42.147 C 210.888 38.727,208.217 36.222,204.953 35.001 C 202.724 34.167,201.763 34.135,179.931 34.170 C 167.443 34.190,156.747 34.353,156.160 34.532 M97.280 46.498 C 97.845 46.855,97.920 56.377,97.920 128.000 C 97.920 199.623,97.845 209.145,97.280 209.502 C 96.272 210.140,55.340 210.049,54.699 209.408 C 53.954 208.663,53.954 47.337,54.699 46.592 C 55.340 45.951,96.272 45.860,97.280 46.498 M201.301 46.592 C 202.046 47.337,202.046 208.663,201.301 209.408 C 200.917 209.792,195.549 209.920,179.770 209.920 C 159.425 209.920,158.736 209.894,158.308 209.095 C 158.008 208.534,157.867 182.468,157.867 127.845 C 157.867 55.301,157.932 47.355,158.537 46.750 C 159.128 46.159,161.667 46.080,179.998 46.080 C 195.600 46.080,200.917 46.208,201.301 46.592 " stroke="none" fill-rule="evenodd"></path></svg>