<svg fill="currentColor" viewBox="0 0 256 256" xmlns="http://www.w3.org/2000/svg"><path d="M152.207 18.359 C 148.508 19.288,146.911 20.643,131.627 35.821 L 116.267 51.075 86.827 62.057 C 66.657 69.580,56.695 73.503,55.189 74.515 C 52.889 76.061,51.261 78.069,50.158 80.721 C 49.154 83.135,25.922 223.011,26.183 225.066 C 26.430 227.004,28.561 229.305,30.592 229.827 C 31.811 230.140,169.425 207.522,173.923 206.269 C 176.695 205.497,179.777 203.382,181.402 201.138 C 182.212 200.018,186.686 188.671,193.922 169.382 L 205.181 139.368 220.329 124.191 C 237.636 106.852,237.859 106.553,237.864 100.684 C 237.869 94.385,239.769 96.575,199.165 56.066 C 167.691 24.665,162.922 20.070,160.976 19.261 C 158.385 18.184,154.496 17.784,152.207 18.359 M191.037 64.963 C 210.340 84.266,226.133 100.339,226.133 100.682 C 226.133 101.025,220.229 107.217,213.013 114.442 L 199.893 127.580 164.156 91.838 L 128.418 56.097 141.558 42.982 C 148.785 35.768,154.978 29.867,155.320 29.867 C 155.661 29.867,171.734 45.660,191.037 64.963 M155.839 100.159 C 176.197 120.516,192.853 137.340,192.853 137.545 C 192.853 137.751,188.107 150.591,182.306 166.078 C 174.106 187.971,171.566 194.321,170.893 194.611 C 169.793 195.086,50.201 215.010,49.938 214.762 C 49.831 214.661,61.548 202.772,75.978 188.343 L 102.213 162.108 104.760 163.362 C 115.492 168.647,128.876 165.558,136.349 156.072 C 141.793 149.161,143.397 140.062,140.618 131.847 C 139.157 127.530,137.215 124.525,133.760 121.236 C 124.367 112.294,110.550 111.629,100.004 119.611 C 91.419 126.109,87.854 138.270,91.544 148.474 C 92.179 150.231,92.994 152.118,93.354 152.668 C 94.001 153.655,93.677 154.000,67.806 179.874 C 53.394 194.287,41.490 206.080,41.352 206.080 C 41.214 206.080,45.653 178.774,51.215 145.401 C 58.396 102.320,61.504 84.611,61.932 84.341 C 62.831 83.775,117.442 63.241,118.186 63.190 C 118.537 63.166,135.481 79.802,155.839 100.159 M120.343 126.757 C 123.859 127.633,128.323 132.156,129.338 135.870 C 130.961 141.806,128.796 148.130,124.015 151.419 C 118.553 155.177,111.393 154.694,106.563 150.242 C 101.010 145.124,100.634 136.311,105.720 130.518 C 109.076 126.696,114.502 125.301,120.343 126.757 " stroke="none" fill-rule="evenodd"></path></svg>