<svg fill="currentColor" viewBox="0 0 256 256" xmlns="http://www.w3.org/2000/svg"><path d="M166.955 26.795 C 165.734 27.231,164.006 28.096,163.115 28.716 C 162.223 29.337,133.344 58.025,98.939 92.469 C 48.323 143.141,36.190 155.500,35.366 157.227 L 34.347 159.360 34.230 185.025 C 34.115 210.480,34.122 210.710,35.043 213.172 C 36.297 216.525,39.475 219.703,42.828 220.957 C 45.290 221.878,45.520 221.885,70.975 221.770 L 96.640 221.653 98.773 220.633 C 100.486 219.814,109.580 210.952,144.863 175.724 L 188.819 131.835 191.108 141.057 L 193.398 150.279 173.819 169.861 L 154.240 189.443 154.240 191.995 C 154.240 194.348,154.357 194.663,155.753 196.059 C 157.370 197.676,159.471 198.299,161.577 197.786 C 162.392 197.587,169.535 190.744,184.012 176.294 C 200.810 159.525,205.349 154.765,205.724 153.522 C 206.150 152.108,205.820 150.438,202.452 136.956 L 198.706 121.962 213.012 107.594 C 229.681 90.853,229.752 90.756,229.752 84.693 C 229.752 78.368,230.672 79.504,203.586 52.392 C 182.512 31.299,179.556 28.495,177.320 27.477 C 173.991 25.962,170.019 25.700,166.955 26.795 M195.089 60.911 C 209.753 75.575,218.027 84.150,218.027 84.683 C 218.027 85.209,213.205 90.347,205.016 98.546 L 192.006 111.573 168.216 87.784 L 144.427 63.994 157.454 50.984 C 165.653 42.795,170.791 37.973,171.317 37.973 C 171.850 37.973,180.425 46.247,195.089 60.911 M139.734 163.839 L 96.000 207.573 72.214 183.786 L 48.428 160.000 92.160 116.267 L 135.891 72.534 159.679 96.319 L 183.468 120.105 139.734 163.839 M64.158 209.818 C 52.030 209.898,47.081 209.793,46.663 209.446 C 46.188 209.052,46.080 205.796,46.080 191.843 L 46.080 174.724 63.575 192.215 L 81.071 209.707 64.158 209.818 " stroke="none" fill-rule="evenodd"></path></svg>