<svg fill="currentColor" viewBox="0 0 256 256" xmlns="http://www.w3.org/2000/svg"><path d="M166.955 26.795 C 165.734 27.231,164.006 28.096,163.115 28.716 C 162.223 29.337,133.344 58.025,98.939 92.469 C 48.323 143.141,36.190 155.500,35.366 157.227 L 34.347 159.360 34.230 185.025 C 34.115 210.480,34.122 210.710,35.043 213.172 C 36.293 216.513,39.477 219.703,42.803 220.948 L 45.259 221.867 131.536 221.865 C 216.354 221.864,217.836 221.849,219.179 221.031 C 223.400 218.457,222.413 211.677,217.624 210.346 C 216.663 210.079,196.804 209.924,163.417 209.922 L 110.727 209.920 169.030 151.573 C 216.672 103.895,227.554 92.798,228.543 90.880 C 229.607 88.814,229.752 88.074,229.752 84.693 C 229.752 78.368,230.672 79.504,203.586 52.392 C 182.512 31.299,179.556 28.495,177.320 27.477 C 173.991 25.962,170.019 25.700,166.955 26.795 M195.089 60.911 C 209.753 75.575,218.027 84.150,218.027 84.683 C 218.027 85.209,213.205 90.347,205.016 98.546 L 192.006 111.573 168.216 87.784 L 144.427 63.994 157.454 50.984 C 165.653 42.795,170.791 37.973,171.317 37.973 C 171.850 37.973,180.425 46.247,195.089 60.911 M111.787 135.893 L 68.055 179.626 58.242 169.813 L 48.429 160.000 92.160 116.267 L 135.891 72.534 145.705 82.347 L 155.518 92.160 111.787 135.893 M173.762 110.402 L 183.464 120.111 139.733 163.840 L 96.003 207.569 86.401 197.975 C 81.121 192.698,76.800 188.187,76.800 187.951 C 76.800 187.528,163.420 100.693,163.843 100.693 C 163.962 100.693,168.426 105.062,173.762 110.402 M64.158 209.818 C 52.030 209.898,47.081 209.793,46.663 209.446 C 46.188 209.052,46.080 205.796,46.080 191.843 L 46.080 174.724 63.575 192.215 L 81.071 209.707 64.158 209.818 " stroke="none" fill-rule="evenodd"></path></svg>