<svg fill="currentColor" viewBox="0 0 256 256" xmlns="http://www.w3.org/2000/svg"><path d="M123.733 26.279 C 116.111 27.666,109.587 31.372,104.894 36.979 C 100.653 42.047,98.596 47.456,98.253 54.444 C 97.956 60.475,98.761 64.317,101.445 69.680 C 103.020 72.826,104.088 74.274,106.858 77.013 C 110.725 80.838,113.579 82.686,118.013 84.235 C 124.398 86.466,131.602 86.466,137.987 84.235 C 142.421 82.686,145.275 80.838,149.142 77.013 C 151.912 74.274,152.980 72.826,154.555 69.680 C 157.233 64.329,158.042 60.478,157.755 54.444 C 157.395 46.868,154.741 40.606,149.692 35.419 C 143.965 29.535,137.336 26.558,129.280 26.254 C 126.816 26.161,124.320 26.172,123.733 26.279 M134.467 39.242 C 143.909 42.800,148.552 54.221,144.274 63.363 C 137.711 77.390,118.295 77.401,111.734 63.382 C 106.975 53.211,113.200 40.720,124.179 38.412 C 126.892 37.842,131.805 38.238,134.467 39.242 M60.557 82.478 C 54.131 84.294,50.142 89.474,50.136 96.009 C 50.134 98.775,50.326 99.610,51.529 102.052 C 54.020 107.112,58.410 109.861,64.000 109.861 C 69.590 109.861,73.980 107.112,76.471 102.052 C 79.876 95.136,77.133 87.005,70.257 83.635 C 67.138 82.107,63.434 81.665,60.557 82.478 M175.787 90.469 C 161.862 92.177,148.160 97.588,133.120 107.319 C 117.206 117.616,106.883 122.697,93.867 126.639 C 82.492 130.084,68.898 130.905,61.013 128.623 C 59.723 128.250,57.593 127.840,56.281 127.712 C 54.057 127.496,53.791 127.572,52.360 128.828 C 49.478 131.359,49.242 134.973,51.792 137.524 C 53.259 138.990,56.611 140.197,62.293 141.304 C 66.811 142.184,79.864 141.944,85.760 140.873 C 100.661 138.166,117.303 131.452,132.244 122.117 C 134.930 120.439,137.191 119.129,137.269 119.206 C 137.511 119.448,136.534 129.211,135.642 135.467 C 131.876 161.872,122.120 183.646,106.903 199.608 C 96.007 211.038,83.152 219.087,66.906 224.652 C 60.633 226.800,59.625 227.374,58.703 229.316 C 56.972 232.964,59.038 237.164,62.923 237.893 C 65.912 238.454,81.487 232.518,90.627 227.334 C 115.180 213.409,132.057 192.174,141.426 163.413 C 142.534 160.011,143.503 157.163,143.579 157.084 C 143.694 156.965,168.960 177.855,168.960 178.070 C 168.960 178.110,165.600 188.218,161.493 200.533 C 157.387 212.848,154.027 223.464,154.027 224.123 C 154.027 227.881,158.174 230.783,161.822 229.579 C 164.814 228.591,164.931 228.318,173.837 201.513 C 181.858 177.374,182.210 176.177,181.764 174.523 C 181.230 172.539,181.800 173.052,160.546 155.430 L 146.760 144.000 146.962 141.867 C 147.073 140.693,147.545 136.949,148.010 133.547 C 148.475 130.144,149.091 123.746,149.379 119.329 L 149.902 111.298 153.138 109.676 C 173.028 99.704,194.795 99.584,210.735 109.358 C 214.720 111.802,216.934 112.174,219.087 110.763 C 221.729 109.033,222.647 105.178,221.044 102.549 C 218.668 98.652,205.910 92.928,195.419 91.053 C 190.975 90.259,180.132 89.936,175.787 90.469 " stroke="none" fill-rule="evenodd"></path></svg>