<svg fill="currentColor" viewBox="0 0 256 256" xmlns="http://www.w3.org/2000/svg"><path d="M121.745 10.685 C 113.437 12.328,105.284 18.654,101.353 26.505 C 98.766 31.673,97.961 35.573,98.245 41.556 C 98.611 49.257,101.287 55.474,106.515 60.774 C 112.505 66.845,119.789 69.959,128.000 69.959 C 136.167 69.959,143.527 66.812,149.485 60.774 C 154.713 55.474,157.389 49.257,157.755 41.556 C 158.039 35.573,157.234 31.673,154.647 26.505 C 150.633 18.487,142.530 12.289,133.927 10.658 C 131.338 10.167,124.284 10.182,121.745 10.685 M135.775 23.855 C 139.361 25.635,142.530 28.909,144.274 32.637 C 148.566 41.808,143.986 53.029,134.400 56.830 C 132.569 57.556,131.163 57.760,128.000 57.760 C 124.837 57.760,123.431 57.556,121.600 56.830 C 112.031 53.036,107.434 41.807,111.710 32.670 C 113.861 28.073,117.490 24.725,122.228 22.967 C 123.914 22.341,125.286 22.198,128.640 22.301 C 132.478 22.419,133.195 22.575,135.775 23.855 M99.146 75.084 C 95.481 76.045,91.955 77.779,88.604 80.268 C 84.929 82.998,37.802 136.475,35.927 140.043 C 32.215 147.107,33.454 155.129,39.132 160.795 C 43.305 164.958,49.209 166.969,54.429 166.004 C 57.609 165.416,61.713 163.501,63.839 161.613 C 67.150 158.673,84.980 144.571,85.159 144.751 C 85.352 144.943,67.806 211.819,67.021 213.882 C 65.950 216.700,65.675 220.491,66.319 223.578 C 67.160 227.611,68.755 230.388,71.949 233.375 C 75.707 236.890,78.262 237.836,84.053 237.853 C 88.075 237.865,88.792 237.746,91.064 236.682 C 94.398 235.120,97.021 232.923,98.757 230.239 C 99.534 229.037,106.373 217.349,113.955 204.267 C 121.537 191.184,127.856 180.480,127.997 180.480 C 128.137 180.480,134.772 191.733,142.740 205.486 C 150.902 219.574,158.033 231.401,159.073 232.573 C 160.312 233.968,161.975 235.174,164.125 236.237 C 166.920 237.619,167.811 237.844,171.097 238.001 C 175.719 238.222,178.699 237.397,182.382 234.877 C 185.413 232.803,188.244 228.911,189.298 225.369 C 190.196 222.350,190.177 217.630,189.255 214.949 C 188.171 211.798,170.640 144.951,170.844 144.747 C 170.944 144.647,176.414 148.887,182.998 154.169 C 195.971 164.575,197.365 165.403,202.666 165.846 C 217.735 167.107,227.459 149.398,218.322 137.336 C 214.085 131.744,169.321 81.616,167.177 80.063 C 163.895 77.687,160.368 76.006,156.686 75.064 C 153.671 74.293,151.810 74.242,127.825 74.263 C 104.202 74.285,101.948 74.350,99.146 75.084 M155.947 87.381 C 157.120 87.920,158.725 88.784,159.514 89.301 C 161.101 90.340,208.373 143.604,209.321 145.421 C 211.615 149.819,206.930 155.299,202.265 153.673 C 201.563 153.428,192.748 146.602,182.676 138.503 C 172.604 130.405,163.717 123.386,162.928 122.905 C 162.139 122.423,160.821 122.030,160.000 122.030 C 157.087 122.030,154.020 124.991,154.038 127.787 C 154.043 128.491,159.342 149.035,165.815 173.440 C 172.288 197.845,177.668 218.677,177.770 219.733 C 178.215 224.331,173.587 227.361,169.431 225.192 C 167.615 224.244,167.009 223.271,150.018 194.010 C 136.981 171.558,132.151 163.593,131.200 162.973 C 129.520 161.878,126.597 161.876,124.830 162.968 C 123.761 163.629,119.873 170.024,106.219 193.582 C 96.727 209.960,88.429 223.872,87.781 224.497 C 84.132 228.014,77.687 224.805,78.216 219.733 C 78.326 218.677,83.712 197.845,90.185 173.440 C 96.658 149.035,101.957 128.491,101.962 127.787 C 101.980 124.991,98.913 122.030,96.000 122.030 C 95.179 122.030,93.861 122.423,93.072 122.905 C 92.283 123.386,83.396 130.405,73.324 138.503 C 63.252 146.602,54.437 153.428,53.735 153.673 C 49.089 155.292,44.384 149.821,46.664 145.451 C 47.626 143.607,94.936 90.310,96.483 89.327 C 101.519 86.126,100.513 86.220,128.640 86.315 L 153.813 86.400 155.947 87.381 " stroke="none" fill-rule="evenodd"></path></svg>