<svg fill="currentColor" viewBox="0 0 256 256" xmlns="http://www.w3.org/2000/svg"><path d="M121.745 10.685 C 113.437 12.328,105.284 18.654,101.353 26.505 C 98.766 31.673,97.961 35.573,98.245 41.556 C 98.611 49.257,101.287 55.474,106.515 60.774 C 112.505 66.845,119.789 69.959,128.000 69.959 C 136.167 69.959,143.527 66.812,149.485 60.774 C 154.713 55.474,157.389 49.257,157.755 41.556 C 158.039 35.573,157.234 31.673,154.647 26.505 C 150.633 18.487,142.530 12.289,133.927 10.658 C 131.338 10.167,124.284 10.182,121.745 10.685 M135.775 23.855 C 139.361 25.635,142.530 28.909,144.274 32.637 C 148.566 41.808,143.986 53.029,134.400 56.830 C 132.569 57.556,131.163 57.760,128.000 57.760 C 124.837 57.760,123.431 57.556,121.600 56.830 C 112.031 53.036,107.434 41.807,111.710 32.670 C 113.861 28.073,117.490 24.725,122.228 22.967 C 123.914 22.341,125.286 22.198,128.640 22.301 C 132.478 22.419,133.195 22.575,135.775 23.855 M38.522 74.859 C 32.842 76.634,27.828 82.093,26.470 87.982 C 24.686 95.715,28.506 104.153,35.413 107.736 C 36.235 108.162,48.422 113.573,62.496 119.759 C 76.570 125.946,88.241 131.163,88.431 131.354 C 88.731 131.654,69.265 206.684,66.940 214.187 C 63.578 225.040,70.132 235.869,81.211 237.766 C 87.681 238.875,95.062 235.697,98.722 230.227 C 99.522 229.031,106.378 217.349,113.958 204.267 C 121.538 191.184,127.854 180.480,127.993 180.480 C 128.132 180.480,134.767 191.719,142.736 205.456 C 158.454 232.547,159.182 233.589,164.053 235.958 C 178.137 242.807,193.600 229.561,189.044 214.552 C 186.526 206.257,167.234 131.694,167.535 131.421 C 167.732 131.242,180.039 125.766,194.884 119.251 C 223.568 106.664,224.101 106.381,226.969 102.212 C 229.153 99.038,230.099 95.466,229.856 91.307 C 229.493 85.098,226.944 80.400,222.230 77.252 C 217.339 73.986,225.269 74.237,127.816 74.269 C 56.703 74.292,39.983 74.402,38.522 74.859 M215.242 87.033 C 219.120 89.430,218.647 95.450,214.422 97.454 C 213.604 97.843,200.496 103.637,185.294 110.330 C 170.091 117.024,157.212 122.788,156.673 123.140 C 155.296 124.039,154.028 126.274,154.038 127.787 C 154.043 128.491,159.340 149.035,165.809 173.440 C 172.278 197.845,177.670 218.539,177.792 219.427 C 178.413 223.973,173.922 227.236,169.646 225.344 C 168.168 224.691,167.467 223.989,166.321 222.018 C 165.523 220.644,157.587 206.981,148.687 191.657 C 131.219 161.580,131.607 162.133,128.000 162.133 C 124.365 162.133,124.862 161.416,106.219 193.582 C 96.727 209.960,88.429 223.872,87.781 224.497 C 84.133 228.013,77.696 224.809,78.210 219.733 C 78.317 218.677,83.708 197.791,90.189 173.319 C 96.670 148.848,101.973 128.304,101.972 127.666 C 101.970 126.252,100.658 124.009,99.320 123.133 C 98.777 122.777,85.471 116.835,69.753 109.929 C 49.308 100.946,40.791 97.003,39.829 96.076 C 37.250 93.590,37.775 88.844,40.840 86.945 C 41.953 86.255,47.379 86.209,127.950 86.198 C 212.892 86.187,213.888 86.196,215.242 87.033 " stroke="none" fill-rule="evenodd"></path></svg>