<svg fill="currentColor" viewBox="0 0 256 256" xmlns="http://www.w3.org/2000/svg"><path d="M77.135 26.846 C 71.777 28.012,69.491 28.816,64.213 31.390 C 48.678 38.969,37.680 53.796,34.722 71.150 C 33.762 76.780,34.109 91.532,35.401 100.053 C 41.634 141.166,64.105 176.343,98.572 198.944 C 115.638 210.134,134.918 217.411,155.947 220.599 C 164.698 221.926,179.357 222.245,185.026 221.231 C 207.658 217.185,224.851 200.402,229.358 177.956 C 230.680 171.376,229.468 166.690,225.514 163.085 C 223.556 161.300,220.391 159.761,198.157 149.781 L 173.013 138.495 169.600 138.330 C 163.861 138.054,163.335 138.368,148.907 150.647 C 141.984 156.539,135.975 161.545,135.553 161.772 C 134.965 162.089,134.018 161.772,131.499 160.416 C 121.777 155.183,111.834 146.747,103.848 136.955 C 99.774 131.959,93.867 122.652,93.867 121.228 C 93.867 121.008,98.861 114.906,104.966 107.667 C 113.542 97.498,116.257 93.994,116.912 92.251 C 118.001 89.352,118.027 85.192,116.973 82.419 C 116.541 81.280,111.413 69.638,105.578 56.548 C 93.903 30.355,93.556 29.750,88.923 27.483 C 85.827 25.969,82.092 25.767,77.135 26.846 M83.914 38.305 C 84.593 38.737,105.814 86.175,105.810 87.252 C 105.807 87.744,101.090 93.716,94.702 101.313 C 84.159 113.853,83.554 114.667,82.705 117.460 C 81.080 122.813,82.449 127.185,88.678 136.533 C 98.386 151.104,112.509 164.093,126.530 171.348 C 132.611 174.495,136.306 174.786,141.135 172.499 C 141.906 172.134,148.242 166.970,155.215 161.024 C 162.670 154.666,168.254 150.207,168.769 150.199 C 169.849 150.184,217.237 171.371,217.701 172.078 C 218.445 173.208,216.599 180.715,214.417 185.439 C 210.053 194.883,201.383 203.131,191.792 206.962 C 185.495 209.477,181.444 210.045,171.733 209.774 C 143.870 208.997,118.327 199.692,95.580 182.033 C 89.844 177.580,79.215 167.039,74.654 161.280 C 62.912 146.454,54.389 129.302,49.955 111.573 C 46.155 96.383,45.020 78.151,47.326 69.333 C 48.409 65.190,51.433 58.781,53.959 55.277 C 56.362 51.944,61.367 47.082,64.703 44.841 C 68.390 42.363,73.277 40.194,77.821 39.020 C 81.999 37.940,83.131 37.807,83.914 38.305 M205.440 42.729 C 204.971 42.984,195.899 51.857,185.280 62.448 L 165.973 81.703 165.973 68.265 C 165.972 56.314,165.889 54.665,165.226 53.364 C 164.108 51.170,162.501 50.183,160.052 50.183 C 157.640 50.183,156.078 51.042,154.861 53.037 C 154.066 54.340,154.030 55.341,154.030 75.947 C 154.030 96.696,154.061 97.545,154.878 98.884 C 155.344 99.649,156.351 100.656,157.116 101.122 C 158.455 101.938,159.305 101.970,179.840 101.971 C 199.309 101.972,201.301 101.907,202.636 101.226 C 204.836 100.104,205.867 98.437,205.867 96.000 C 205.867 93.563,204.836 91.896,202.636 90.774 C 201.335 90.111,199.686 90.028,187.735 90.027 L 174.297 90.027 193.873 70.447 L 213.450 50.867 213.631 48.793 C 213.857 46.215,212.814 44.128,210.747 43.020 C 209.130 42.153,206.743 42.022,205.440 42.729 " stroke="none" fill-rule="evenodd"></path></svg>