<svg fill="currentColor" viewBox="0 0 256 256" xmlns="http://www.w3.org/2000/svg"><path d="M64.929 58.485 C 52.893 60.047,41.180 66.098,32.659 75.156 C 24.041 84.317,19.060 95.773,18.096 108.652 C 17.837 112.117,17.905 112.767,18.706 114.421 C 20.865 118.880,26.663 119.172,29.079 114.942 C 29.511 114.185,29.965 111.807,30.250 108.799 C 31.260 98.160,34.690 90.517,41.813 83.040 C 45.769 78.886,49.080 76.493,54.269 74.035 C 60.441 71.111,64.046 70.380,73.707 70.097 L 81.920 69.855 81.920 135.421 C 81.920 206.607,81.791 202.776,84.258 204.717 C 86.710 206.646,90.110 206.309,92.410 203.909 L 93.653 202.611 93.764 136.292 L 93.875 69.973 128.004 69.973 L 162.133 69.973 162.133 123.116 C 162.133 170.418,162.209 176.590,162.820 179.277 C 163.707 183.175,165.507 187.514,167.521 190.608 C 169.601 193.801,175.004 199.080,178.054 200.898 C 187.063 206.267,197.349 207.420,206.991 204.140 C 217.550 200.549,225.951 191.550,228.879 180.693 C 229.976 176.630,230.232 171.124,229.399 169.514 C 227.371 165.593,222.285 164.899,219.534 168.168 C 218.353 169.572,218.322 169.683,217.653 174.868 C 216.430 184.348,209.690 191.478,199.967 193.577 C 189.032 195.937,177.679 188.571,174.715 177.193 C 174.169 175.097,174.080 167.386,174.080 122.364 L 174.080 69.973 199.787 69.972 C 224.685 69.970,225.537 69.943,226.884 69.122 C 230.909 66.668,230.909 61.332,226.884 58.878 C 225.509 58.039,224.619 58.030,146.560 58.082 C 103.147 58.111,66.413 58.292,64.929 58.485 " stroke="none" fill-rule="evenodd"></path></svg>