<svg fill="currentColor" viewBox="0 0 256 256" xmlns="http://www.w3.org/2000/svg"><path d="M37.012 50.381 C 32.768 51.388,28.964 54.481,27.152 58.401 L 26.240 60.373 26.240 128.000 L 26.240 195.627 27.435 198.060 C 29.108 201.467,32.191 204.134,35.713 205.222 C 38.457 206.070,39.542 206.080,128.000 206.080 C 216.458 206.080,217.543 206.070,220.287 205.222 C 223.809 204.134,226.892 201.467,228.565 198.060 L 229.760 195.627 229.760 128.000 L 229.760 60.373 228.838 58.378 C 227.462 55.401,224.810 52.774,221.759 51.364 L 219.093 50.133 128.853 50.067 C 77.306 50.029,37.927 50.164,37.012 50.381 M217.078 62.531 L 218.027 63.195 218.027 92.602 L 218.027 122.009 179.307 122.125 L 140.587 122.240 138.174 123.371 C 135.326 124.706,132.705 127.266,131.333 130.051 L 130.347 132.053 130.232 163.093 L 130.117 194.133 84.825 194.133 C 43.280 194.133,39.469 194.075,38.754 193.427 C 38.004 192.749,37.973 190.158,37.973 127.958 L 37.973 63.195 38.922 62.531 C 39.772 61.935,48.926 61.867,128.000 61.867 C 207.074 61.867,216.228 61.935,217.078 62.531 M218.027 163.273 C 218.027 189.938,217.963 192.643,217.321 193.353 C 216.647 194.098,214.909 194.133,179.347 194.133 L 142.080 194.133 142.080 164.501 C 142.080 136.730,142.127 134.842,142.827 134.434 C 143.318 134.148,156.309 133.995,180.800 133.986 L 218.027 133.973 218.027 163.273 " stroke="none" fill-rule="evenodd"></path></svg>