<svg fill="currentColor" viewBox="0 0 256 256" xmlns="http://www.w3.org/2000/svg"><path d="M170.667 26.650 C 163.602 27.813,155.846 30.903,149.653 35.022 C 147.861 36.214,128.804 54.996,91.516 92.318 C 40.356 143.525,35.865 148.133,33.732 151.616 C 28.958 159.408,26.494 167.612,26.151 176.853 C 25.618 191.256,30.476 203.939,40.506 214.330 C 47.442 221.515,54.923 225.829,65.244 228.594 C 68.928 229.581,70.116 229.690,77.227 229.699 C 84.426 229.708,85.485 229.610,89.268 228.589 C 94.923 227.062,100.101 224.889,104.486 222.202 C 107.829 220.155,113.096 215.028,162.908 165.336 C 193.019 135.297,218.519 109.581,219.574 108.189 C 229.671 94.872,232.593 77.429,227.424 61.339 C 221.875 44.067,207.206 30.978,189.013 27.062 C 184.602 26.113,175.212 25.902,170.667 26.650 M186.365 39.503 C 197.958 41.885,208.041 49.827,213.322 60.734 C 216.557 67.415,216.957 69.333,216.938 78.080 C 216.922 85.093,216.848 85.767,215.724 89.173 C 214.052 94.236,211.664 98.658,208.456 102.631 C 206.949 104.499,195.429 116.298,182.857 128.852 L 159.999 151.678 132.160 123.840 L 104.322 96.001 126.081 74.197 C 138.048 62.205,149.524 50.909,151.582 49.094 C 157.234 44.112,163.290 40.948,170.027 39.460 C 173.660 38.657,182.362 38.680,186.365 39.503 M181.547 82.734 C 180.430 83.254,175.462 87.937,167.183 96.271 C 153.671 109.874,153.496 110.106,154.233 113.461 C 154.608 115.167,156.655 117.194,158.524 117.710 C 161.728 118.595,162.252 118.200,175.924 104.602 C 182.922 97.642,188.944 91.387,189.305 90.703 C 190.245 88.922,189.858 85.626,188.541 84.198 C 187.448 83.012,185.257 81.914,184.014 81.929 C 183.596 81.935,182.485 82.297,181.547 82.734 M123.948 132.274 L 151.680 160.015 127.360 184.264 C 112.806 198.775,102.012 209.201,100.480 210.225 C 79.877 224.000,53.254 217.110,42.678 195.266 C 40.281 190.317,39.304 186.883,38.898 181.988 C 38.080 172.131,40.438 163.253,45.983 155.307 C 47.635 152.939,95.310 104.533,95.989 104.533 C 96.114 104.533,108.695 117.017,123.948 132.274 " stroke="none" fill-rule="evenodd"></path></svg>