<svg fill="currentColor" viewBox="0 0 256 256" xmlns="http://www.w3.org/2000/svg"><path d="M121.387 26.300 C 107.906 27.837,99.392 30.253,89.171 35.443 C 68.747 45.812,53.708 63.210,46.503 84.802 C 40.626 102.417,40.501 120.392,46.131 138.118 C 48.033 144.106,52.517 153.876,54.359 156.045 C 57.214 159.408,62.494 158.421,64.260 154.193 C 64.586 153.413,64.853 152.410,64.853 151.965 C 64.853 151.521,63.681 148.778,62.247 145.872 C 59.268 139.830,56.802 132.783,55.395 126.293 C 54.540 122.351,54.424 120.635,54.432 112.000 C 54.441 101.236,54.905 97.951,57.650 89.225 C 59.390 83.689,64.221 74.031,67.599 69.333 C 86.673 42.804,120.263 31.690,150.933 41.761 C 176.318 50.097,194.874 70.962,200.537 97.539 C 201.698 102.986,202.155 115.395,201.419 121.442 C 199.469 137.447,193.309 150.595,182.841 161.096 C 171.795 172.177,158.471 177.923,143.837 177.918 C 129.316 177.913,117.222 172.858,110.041 163.791 L 108.726 162.130 117.296 125.705 C 122.010 105.672,125.866 88.536,125.865 87.627 C 125.862 84.455,123.177 81.918,119.829 81.922 C 118.179 81.923,115.959 83.148,115.033 84.566 C 113.992 86.161,81.822 223.543,82.118 225.130 C 83.077 230.266,90.296 231.686,92.951 227.261 C 93.409 226.498,96.202 215.439,99.431 201.600 C 102.552 188.224,105.217 177.152,105.353 176.996 C 105.489 176.840,107.232 177.948,109.227 179.458 C 115.134 183.932,122.165 186.969,131.040 188.883 C 136.209 189.997,151.009 189.983,156.160 188.858 C 185.048 182.551,206.510 159.622,212.437 128.736 C 218.579 96.729,206.031 63.397,180.531 43.986 C 170.108 36.051,157.084 30.113,144.982 27.778 C 137.400 26.315,126.984 25.662,121.387 26.300 " stroke="none" fill-rule="evenodd"></path></svg>