<svg fill="currentColor" viewBox="0 0 256 256" xmlns="http://www.w3.org/2000/svg"><path d="M37.205 58.813 C 33.061 61.023,33.117 67.304,37.298 69.288 C 38.610 69.911,46.915 69.973,128.000 69.973 C 209.085 69.973,217.390 69.911,218.702 69.288 C 220.607 68.384,221.867 66.285,221.867 64.015 C 221.867 61.726,220.881 60.056,218.860 58.920 L 217.270 58.027 127.942 58.045 C 43.521 58.061,38.536 58.104,37.205 58.813 M196.821 107.076 C 194.026 108.780,194.133 107.501,194.133 139.072 C 194.133 154.806,194.011 167.680,193.861 167.680 C 193.710 167.680,192.702 167.136,191.621 166.471 C 186.478 163.310,180.580 161.886,174.106 162.243 C 161.569 162.934,151.000 171.420,147.142 183.893 C 145.737 188.437,145.737 195.563,147.142 200.107 C 148.875 205.710,150.813 208.895,155.067 213.127 C 159.526 217.563,163.105 219.613,168.933 221.069 C 173.873 222.302,180.451 222.047,185.442 220.427 C 192.504 218.136,199.414 212.144,202.673 205.483 C 206.036 198.612,205.835 201.462,205.978 158.613 C 206.049 137.552,206.268 120.320,206.467 120.320 C 206.665 120.320,214.260 122.540,223.345 125.252 C 235.699 128.941,240.183 130.114,241.136 129.905 C 241.837 129.751,243.065 129.050,243.866 128.347 C 247.077 125.528,246.510 120.759,242.731 118.805 C 240.472 117.636,201.649 106.240,199.934 106.242 C 198.954 106.242,197.586 106.609,196.821 107.076 M37.205 122.813 C 33.061 125.023,33.117 131.304,37.298 133.288 C 38.604 133.908,44.636 133.973,100.118 133.972 C 160.608 133.970,161.513 133.958,162.884 133.122 C 166.909 130.668,166.909 125.332,162.884 122.878 C 161.513 122.042,160.624 122.030,100.053 122.046 C 42.249 122.061,38.530 122.107,37.205 122.813 M182.519 175.277 C 187.244 177.089,191.437 181.548,193.087 186.514 C 194.046 189.401,194.046 194.599,193.087 197.486 C 187.878 213.170,166.223 214.173,159.530 199.041 C 155.268 189.407,160.890 177.601,171.104 174.737 C 174.183 173.873,179.517 174.125,182.519 175.277 M37.205 186.813 C 33.061 189.023,33.117 195.304,37.298 197.288 C 38.590 197.901,42.669 197.973,76.011 197.973 C 110.644 197.972,113.385 197.919,114.759 197.226 C 118.858 195.158,118.858 188.842,114.759 186.774 C 113.384 186.080,110.662 186.029,75.947 186.045 C 41.152 186.061,38.518 186.113,37.205 186.813 " stroke="none" fill-rule="evenodd"></path></svg>