<svg fill="currentColor" viewBox="0 0 256 256" xmlns="http://www.w3.org/2000/svg"><path d="M120.747 26.275 C 119.925 26.371,117.429 26.657,115.200 26.911 C 97.087 28.974,78.488 36.924,63.688 48.928 C 59.118 52.635,51.837 59.914,48.399 64.213 C 33.997 82.223,26.027 104.946,26.027 128.000 C 26.027 160.313,41.247 190.513,67.313 209.917 C 80.785 219.946,95.439 226.020,113.280 228.971 C 119.895 230.065,136.063 230.069,142.720 228.978 C 167.013 224.997,187.139 214.259,203.399 196.604 C 216.819 182.033,225.565 163.607,228.975 142.720 C 230.058 136.090,230.063 120.352,228.985 113.526 C 224.265 83.633,208.329 58.913,183.040 42.254 C 177.765 38.779,167.473 33.766,161.280 31.655 C 155.481 29.679,148.709 28.035,142.507 27.099 C 138.223 26.452,123.882 25.910,120.747 26.275 M135.893 38.406 C 157.181 40.367,176.604 49.439,191.583 64.417 C 214.095 86.930,223.023 119.642,215.057 150.423 C 206.452 183.673,179.597 209.228,146.031 216.109 C 109.820 223.532,73.053 208.220,52.793 177.280 C 38.454 155.382,34.420 129.001,41.473 103.253 C 45.847 87.286,56.674 70.443,69.499 59.655 C 88.315 43.828,112.102 36.215,135.893 38.406 M109.227 90.750 C 108.271 91.243,107.388 92.205,106.773 93.424 L 105.813 95.327 105.813 128.000 L 105.813 160.673 106.773 162.576 C 107.985 164.979,109.971 166.096,112.563 165.832 C 114.138 165.672,117.951 163.282,138.870 149.340 C 152.326 140.372,163.881 132.466,164.548 131.769 C 165.598 130.673,165.760 130.170,165.760 128.000 C 165.760 125.830,165.598 125.327,164.548 124.231 C 163.881 123.534,152.326 115.628,138.870 106.660 C 112.187 88.877,112.517 89.054,109.227 90.750 M134.768 118.400 C 142.532 123.563,148.885 127.883,148.885 128.000 C 148.885 128.168,124.810 144.325,119.419 147.775 L 118.187 148.564 118.187 128.000 L 118.187 107.436 119.419 108.225 C 120.097 108.658,127.004 113.237,134.768 118.400 " stroke="none" fill-rule="evenodd"></path></svg>