<svg fill="currentColor" viewBox="0 0 256 256" xmlns="http://www.w3.org/2000/svg"><path d="M75.654 26.819 C 71.194 28.360,68.510 30.874,66.955 34.966 C 66.153 37.077,66.133 39.320,66.133 127.989 C 66.133 217.924,66.142 218.871,66.990 221.138 C 68.210 224.398,70.358 226.703,73.718 228.355 C 76.231 229.591,76.985 229.759,79.994 229.756 C 82.799 229.752,83.835 229.550,85.760 228.631 C 90.206 226.508,231.890 139.566,233.732 137.830 C 239.216 132.664,239.309 123.614,233.933 118.337 C 231.829 116.272,87.210 27.817,84.267 26.795 C 81.530 25.845,78.448 25.854,75.654 26.819 M153.246 82.510 C 193.062 106.858,225.750 127.070,225.886 127.426 C 226.023 127.782,225.965 128.376,225.758 128.746 C 225.474 129.254,120.891 193.530,85.221 215.120 C 80.711 217.850,80.094 218.109,79.141 217.675 L 78.080 217.192 78.080 128.094 C 78.080 57.388,78.190 38.886,78.613 38.459 C 78.907 38.162,79.531 37.992,80.000 38.081 C 80.469 38.169,113.430 58.163,153.246 82.510 " stroke="none" fill-rule="evenodd"></path></svg>