<svg fill="currentColor" viewBox="0 0 256 256" xmlns="http://www.w3.org/2000/svg"><path d="M230.200 18.371 C 229.346 18.626,220.001 27.681,201.536 46.144 L 174.140 73.537 169.458 69.051 C 166.883 66.583,163.749 63.884,162.495 63.052 C 157.839 59.964,151.428 58.027,145.864 58.027 C 140.168 58.027,132.268 60.682,127.841 64.084 C 126.873 64.829,120.178 71.298,112.965 78.459 L 99.849 91.480 95.215 86.913 C 90.649 82.414,90.551 82.347,88.576 82.347 C 85.325 82.347,83.196 83.833,82.466 86.613 C 81.722 89.444,82.367 90.671,87.087 95.408 L 91.486 99.821 78.043 113.377 C 70.581 120.903,63.880 128.037,62.979 129.414 C 56.412 139.462,56.420 152.486,62.999 162.424 C 63.902 163.787,66.644 166.979,69.094 169.517 L 73.547 174.131 45.889 201.791 L 18.231 229.452 18.049 231.526 C 17.918 233.024,18.091 234.005,18.673 235.060 C 20.066 237.583,23.739 238.833,26.161 237.609 C 26.674 237.350,39.418 224.834,54.481 209.795 L 81.869 182.453 86.483 186.906 C 89.021 189.356,92.213 192.098,93.576 193.001 C 103.514 199.580,116.538 199.588,126.586 193.021 C 127.963 192.120,135.097 185.419,142.623 177.957 L 156.179 164.514 160.592 168.913 C 165.343 173.647,166.519 174.260,169.454 173.531 C 171.364 173.056,173.017 171.379,173.537 169.387 C 174.276 166.553,173.632 165.328,168.913 160.592 L 164.514 156.179 177.957 142.623 C 185.419 135.097,192.120 127.963,193.021 126.586 C 199.588 116.538,199.580 103.514,193.001 93.576 C 192.098 92.213,189.357 89.022,186.908 86.485 L 182.456 81.873 210.026 54.270 C 234.117 30.150,237.632 26.469,237.879 25.104 C 238.393 22.257,236.958 19.697,234.237 18.609 C 232.328 17.845,232.024 17.827,230.200 18.371 M92.800 26.875 C 91.240 27.901,90.027 30.047,90.027 31.780 C 90.027 33.893,98.489 58.730,99.699 60.168 C 101.817 62.686,106.051 62.647,108.442 60.087 C 110.747 57.619,110.658 57.023,105.815 42.456 C 103.396 35.180,101.110 28.811,100.735 28.303 C 99.015 25.970,95.213 25.286,92.800 26.875 M151.891 71.039 C 155.441 72.292,157.670 74.215,170.284 86.913 C 184.063 100.783,184.766 101.712,185.683 107.245 C 186.271 110.794,185.718 114.515,184.081 118.022 C 183.089 120.147,180.836 122.619,169.439 134.090 L 155.969 147.646 132.384 124.064 C 119.413 111.095,108.800 100.283,108.800 100.040 C 108.800 99.796,114.800 93.631,122.133 86.339 C 136.175 72.378,137.379 71.422,142.219 70.392 C 144.601 69.885,149.560 70.217,151.891 71.039 M29.227 90.821 C 27.194 92.076,26.368 93.268,26.142 95.272 C 25.900 97.415,26.686 99.290,28.386 100.627 C 28.989 101.102,35.348 103.445,42.516 105.834 C 56.470 110.485,57.191 110.611,59.704 108.821 C 60.388 108.334,61.265 107.103,61.654 106.085 C 62.561 103.708,61.984 101.227,60.168 99.699 C 58.731 98.490,33.890 90.026,31.787 90.028 C 31.083 90.029,29.931 90.386,29.227 90.821 M123.839 132.159 C 136.687 145.006,147.200 155.714,147.200 155.954 C 147.200 156.768,120.994 182.485,119.040 183.589 C 113.150 186.917,105.716 186.713,100.249 183.075 C 99.203 182.378,92.663 176.086,85.716 169.091 C 71.938 155.217,71.234 154.288,70.317 148.755 C 69.975 146.692,69.975 145.148,70.317 143.085 C 71.240 137.516,71.881 136.677,86.341 122.133 C 93.631 114.800,99.794 108.800,100.037 108.800 C 100.279 108.800,110.990 119.311,123.839 132.159 M198.613 146.233 C 197.239 146.577,195.450 148.025,194.767 149.346 C 193.504 151.787,194.380 155.385,196.589 156.832 C 198.167 157.866,222.665 165.974,224.205 165.972 C 226.981 165.968,229.969 162.918,229.972 160.085 C 229.974 158.336,229.055 156.506,227.600 155.362 C 226.500 154.497,201.224 145.874,200.067 145.969 C 199.737 145.997,199.083 146.115,198.613 146.233 M148.659 194.938 C 147.241 195.803,145.920 198.125,145.920 199.752 C 145.920 200.797,154.045 225.591,154.954 227.321 C 156.257 229.801,160.606 230.771,163.234 229.169 C 164.721 228.262,165.973 225.963,165.973 224.141 C 165.973 222.935,158.054 198.637,157.049 196.759 C 155.730 194.295,151.293 193.332,148.659 194.938 " stroke="none" fill-rule="evenodd"></path></svg>