<svg fill="currentColor" viewBox="0 0 256 256" xmlns="http://www.w3.org/2000/svg"><path d="M69.205 26.789 C 68.431 27.215,67.424 28.130,66.968 28.822 C 66.180 30.018,66.139 30.973,66.136 48.107 L 66.133 66.133 48.157 66.133 C 30.879 66.133,30.127 66.167,28.789 66.993 C 26.085 68.664,25.239 72.508,26.995 75.137 C 28.965 78.086,28.909 78.079,48.533 78.079 L 66.133 78.080 66.135 95.893 C 66.136 112.797,66.179 113.776,66.968 115.070 C 68.127 116.971,69.731 117.902,71.847 117.902 C 74.245 117.902,76.199 116.683,77.236 114.541 C 78.035 112.891,78.080 111.863,78.080 95.439 L 78.080 78.080 95.439 78.080 C 111.863 78.080,112.891 78.035,114.541 77.236 C 116.683 76.199,117.902 74.245,117.902 71.847 C 117.902 69.731,116.971 68.127,115.070 66.968 C 113.776 66.179,112.797 66.136,95.893 66.135 L 78.080 66.133 78.079 48.533 C 78.079 29.226,78.062 29.088,75.462 27.183 C 73.864 26.013,70.950 25.829,69.205 26.789 M124.016 123.666 C 63.137 184.542,50.641 197.231,50.383 198.439 C 49.717 201.566,51.617 204.803,54.546 205.531 C 58.148 206.425,53.512 210.805,131.932 132.414 C 172.038 92.322,205.044 59.174,205.280 58.751 C 205.901 57.634,205.844 54.913,205.170 53.511 C 204.241 51.580,202.037 50.347,199.513 50.347 L 197.339 50.347 124.016 123.666 M141.426 178.768 C 139.301 179.825,138.098 181.772,138.098 184.153 C 138.098 186.269,139.029 187.873,140.930 189.032 C 142.257 189.841,143.414 189.864,184.056 189.865 C 225.185 189.867,225.840 189.854,227.211 189.007 C 230.812 186.781,230.755 181.277,227.106 178.886 C 226.032 178.182,223.283 178.126,184.552 178.022 C 143.842 177.913,143.118 177.926,141.426 178.768 " stroke="none" fill-rule="evenodd"></path></svg>