<svg fill="currentColor" viewBox="0 0 256 256" xmlns="http://www.w3.org/2000/svg"><path d="M43.419 34.778 C 39.481 36.228,36.414 39.235,34.955 43.073 C 34.154 45.181,34.133 47.323,34.133 127.989 L 34.133 210.741 35.052 213.197 C 36.292 216.512,39.488 219.708,42.803 220.948 L 45.259 221.867 128.000 221.867 L 210.741 221.867 213.138 220.970 C 216.379 219.757,219.757 216.379,220.970 213.138 L 221.867 210.741 221.867 128.000 C 221.867 45.292,221.866 45.258,220.981 42.891 C 219.902 40.008,216.957 36.857,213.973 35.393 L 211.840 34.347 128.427 34.268 C 58.514 34.203,44.755 34.285,43.419 34.778 M209.408 46.592 C 210.153 47.337,210.153 208.663,209.408 209.408 C 208.663 210.153,47.337 210.153,46.592 209.408 C 45.847 208.663,45.847 47.337,46.592 46.592 C 47.337 45.847,208.663 45.847,209.408 46.592 M126.141 82.345 C 125.470 82.554,124.539 83.071,124.070 83.494 C 122.044 85.328,122.027 85.504,122.027 104.299 L 122.027 122.027 104.427 122.027 C 88.514 122.028,86.686 122.100,85.364 122.774 C 83.164 123.896,82.133 125.563,82.133 128.000 C 82.133 130.437,83.164 132.104,85.364 133.226 C 86.686 133.900,88.514 133.972,104.427 133.973 L 122.027 133.973 122.027 151.830 C 122.027 169.685,122.027 169.687,122.995 171.137 C 125.645 175.103,131.084 174.837,133.226 170.636 C 133.900 169.314,133.972 167.486,133.973 151.573 L 133.973 133.973 151.573 133.973 C 170.960 133.972,171.009 133.966,172.983 131.275 C 174.188 129.632,174.188 126.368,172.983 124.725 C 171.009 122.034,170.960 122.028,151.573 122.027 L 133.973 122.027 133.973 104.427 C 133.972 88.514,133.900 86.686,133.226 85.364 C 131.897 82.756,128.912 81.485,126.141 82.345 " stroke="none" fill-rule="evenodd"></path></svg>