<svg fill="currentColor" viewBox="0 0 256 256" xmlns="http://www.w3.org/2000/svg"><path d="M124.668 43.104 C 121.906 44.788,122.027 42.724,122.028 88.200 C 122.030 128.652,122.047 129.522,122.878 130.884 C 125.332 134.909,130.668 134.909,133.122 130.884 C 133.953 129.522,133.970 128.652,133.972 88.200 C 133.973 42.724,134.094 44.788,131.332 43.104 C 129.475 41.972,126.525 41.972,124.668 43.104 M74.823 52.341 C 67.055 57.629,57.727 66.395,52.411 73.403 C 40.217 89.478,34.130 107.776,34.135 128.342 C 34.141 149.493,41.223 169.776,54.470 186.577 C 57.586 190.530,65.470 198.414,69.423 201.530 C 86.281 214.822,106.573 221.867,128.000 221.867 C 146.345 221.867,163.956 216.709,178.897 206.960 C 185.214 202.838,188.840 199.889,194.384 194.366 C 202.061 186.718,207.795 178.728,212.467 169.173 C 224.979 143.579,225.071 113.425,212.712 88.130 C 206.036 74.466,194.612 61.501,181.177 52.344 C 178.908 50.797,177.867 50.347,176.562 50.347 C 172.155 50.347,169.347 54.284,170.884 58.309 C 171.444 59.775,172.198 60.595,174.437 62.173 C 192.363 74.804,203.935 91.691,208.143 111.360 C 216.759 151.640,193.341 192.543,154.165 205.642 C 145.130 208.663,137.440 209.920,128.000 209.920 C 85.765 209.920,50.569 177.965,46.464 135.893 C 45.891 130.025,46.175 120.617,47.089 115.200 C 50.719 93.674,62.438 75.648,81.563 62.173 C 83.802 60.595,84.556 59.775,85.116 58.309 C 86.653 54.284,83.845 50.347,79.438 50.347 C 78.133 50.347,77.090 50.797,74.823 52.341 " stroke="none" fill-rule="evenodd"></path></svg>