<svg fill="currentColor" viewBox="0 0 256 256" xmlns="http://www.w3.org/2000/svg"><path d="M159.970 18.478 C 158.897 18.781,157.169 19.535,156.130 20.154 C 155.089 20.774,141.810 33.722,126.575 48.973 L 98.910 76.666 95.192 75.700 C 76.828 70.930,57.657 75.246,40.948 87.913 C 37.479 90.542,35.824 92.588,34.791 95.520 C 33.849 98.193,33.953 102.303,35.037 105.264 C 35.891 107.598,37.351 109.147,61.704 133.555 C 75.873 147.756,87.467 159.562,87.467 159.789 C 87.467 160.017,77.302 170.381,64.879 182.821 C 49.688 198.034,42.198 205.825,42.006 206.616 C 41.278 209.606,43.179 212.941,46.111 213.820 C 49.560 214.853,49.110 215.231,73.595 190.733 L 96.204 168.113 122.235 194.086 C 146.847 218.643,148.401 220.109,150.736 220.963 C 155.979 222.882,161.707 221.769,165.468 218.101 C 170.107 213.575,177.340 200.777,179.985 192.411 C 183.581 181.038,183.755 169.305,180.468 159.751 L 179.608 157.252 190.179 146.573 C 195.993 140.699,208.659 127.925,218.325 118.187 C 238.111 98.252,237.764 98.704,237.829 92.800 C 237.900 86.359,239.688 88.471,203.609 52.391 C 175.822 24.605,171.428 20.377,169.350 19.432 C 166.458 18.117,162.627 17.727,159.970 18.478 M194.687 60.480 C 211.543 77.317,225.528 91.442,225.764 91.869 C 226.074 92.428,226.020 92.903,225.570 93.575 C 225.227 94.088,211.997 107.563,196.170 123.520 C 180.344 139.477,167.171 152.953,166.897 153.465 C 166.095 154.969,166.317 156.893,167.643 159.928 C 170.148 165.664,170.454 167.307,170.443 174.933 C 170.433 181.253,170.313 182.410,169.269 186.240 C 167.052 194.368,158.364 209.920,156.040 209.920 C 155.350 209.920,140.270 195.097,100.548 155.374 C 54.622 109.447,46.026 100.667,46.148 99.806 C 46.464 97.580,57.597 90.871,65.202 88.323 C 75.330 84.930,88.118 85.090,96.569 88.715 C 98.835 89.688,101.515 89.860,102.961 89.128 C 103.474 88.868,117.145 75.428,133.341 59.261 C 149.536 43.094,163.069 29.867,163.414 29.867 C 163.758 29.867,177.831 43.643,194.687 60.480 " stroke="none" fill-rule="evenodd"></path></svg>