<svg fill="currentColor" viewBox="0 0 256 256" xmlns="http://www.w3.org/2000/svg"><path d="M60.800 34.981 C 58.154 36.723,57.272 40.356,58.861 42.963 C 60.373 45.442,61.475 45.844,67.408 46.080 L 72.778 46.293 61.876 108.160 L 50.974 170.027 44.417 170.145 C 38.600 170.249,37.721 170.362,36.630 171.138 C 33.193 173.586,33.373 178.844,36.974 181.203 C 38.083 181.930,40.494 181.980,80.088 182.088 L 122.027 182.203 122.027 211.741 C 122.028 239.014,122.085 241.393,122.774 242.759 C 124.842 246.858,131.158 246.858,133.226 242.759 C 133.915 241.393,133.972 239.014,133.973 211.741 L 133.973 182.203 175.912 182.088 C 215.506 181.980,217.917 181.930,219.026 181.203 C 222.627 178.844,222.807 173.586,219.370 171.138 C 218.279 170.362,217.400 170.249,211.583 170.145 L 205.026 170.027 194.124 108.160 L 183.222 46.293 188.592 46.080 C 192.741 45.915,194.222 45.696,195.108 45.114 C 198.755 42.721,198.811 37.218,195.211 34.993 C 193.831 34.141,193.249 34.133,127.950 34.136 C 63.085 34.139,62.060 34.152,60.800 34.981 M171.246 47.467 C 171.382 48.229,176.207 75.637,181.968 108.373 C 187.729 141.109,192.550 168.421,192.682 169.067 L 192.921 170.240 128.000 170.240 L 63.079 170.240 63.325 169.067 C 63.460 168.421,68.280 141.109,74.037 108.373 C 79.793 75.637,84.615 48.229,84.752 47.467 L 85.002 46.080 128.000 46.080 L 170.998 46.080 171.246 47.467 " stroke="none" fill-rule="evenodd"></path></svg>