<svg fill="currentColor" viewBox="0 0 256 256" xmlns="http://www.w3.org/2000/svg"><path d="M37.205 58.813 C 33.061 61.023,33.117 67.304,37.298 69.288 C 38.610 69.911,46.915 69.973,128.000 69.973 C 209.085 69.973,217.390 69.911,218.702 69.288 C 220.607 68.384,221.867 66.285,221.867 64.015 C 221.867 61.726,220.881 60.056,218.860 58.920 L 217.270 58.027 127.942 58.045 C 43.521 58.061,38.536 58.104,37.205 58.813 M173.319 114.768 C 171.924 115.402,171.295 116.030,170.662 117.426 C 169.859 119.195,169.832 120.554,169.832 160.000 C 169.832 199.142,169.864 200.817,170.644 202.535 C 171.664 204.781,174.281 206.280,176.632 205.965 C 177.725 205.818,187.801 199.755,210.798 185.406 C 228.736 174.213,243.838 164.587,244.358 164.015 C 244.878 163.443,245.528 162.222,245.804 161.303 C 246.251 159.811,246.195 159.411,245.286 157.599 C 244.285 155.604,243.698 155.212,212.267 135.553 C 194.667 124.545,179.499 115.179,178.560 114.739 C 176.410 113.731,175.594 113.736,173.319 114.768 M37.205 122.813 C 33.061 125.023,33.117 131.304,37.298 133.288 C 38.598 133.905,43.644 133.973,87.958 133.973 C 133.970 133.972,137.269 133.923,138.636 133.226 C 140.836 132.104,141.867 130.437,141.867 128.000 C 141.867 125.563,140.836 123.896,138.636 122.774 C 137.268 122.076,133.988 122.029,87.893 122.045 C 41.696 122.061,38.525 122.109,37.205 122.813 M208.131 147.199 C 219.206 154.121,228.219 159.923,228.160 160.094 C 228.083 160.317,196.903 179.969,182.646 188.780 C 182.320 188.981,182.187 180.656,182.187 160.027 L 182.187 130.990 185.091 132.802 C 186.688 133.798,197.056 140.277,208.131 147.199 M37.205 186.813 C 33.061 189.023,33.117 195.304,37.298 197.288 C 38.598 197.905,43.644 197.973,87.958 197.973 C 133.970 197.972,137.269 197.923,138.636 197.226 C 140.836 196.104,141.867 194.437,141.867 192.000 C 141.867 189.563,140.836 187.896,138.636 186.774 C 137.268 186.076,133.988 186.029,87.893 186.045 C 41.696 186.061,38.525 186.109,37.205 186.813 " stroke="none" fill-rule="evenodd"></path></svg>