<svg fill="currentColor" viewBox="0 0 256 256" xmlns="http://www.w3.org/2000/svg"><path d="M122.453 50.178 C 91.728 52.165,65.542 63.784,44.609 84.716 C 25.446 103.879,13.832 128.140,10.611 155.733 C 10.319 158.241,10.075 165.856,10.058 173.028 C 10.029 184.692,10.096 185.949,10.797 187.022 C 13.228 190.745,18.763 190.748,21.203 187.027 C 21.893 185.975,22.001 184.321,22.244 171.113 C 22.430 160.987,22.723 155.105,23.179 152.320 C 26.352 132.932,33.485 116.702,45.586 101.333 C 48.837 97.205,57.926 88.239,62.293 84.853 C 83.275 68.583,107.763 60.902,134.099 62.331 C 177.704 64.696,215.374 93.802,228.844 135.538 C 232.590 147.144,233.427 153.201,233.756 171.113 C 233.999 184.321,234.107 185.975,234.797 187.027 C 237.237 190.748,242.772 190.745,245.203 187.022 C 245.904 185.949,245.971 184.692,245.942 173.028 C 245.912 160.494,245.546 155.094,244.219 147.627 C 235.149 96.580,193.534 57.112,142.338 51.004 C 136.906 50.356,126.428 49.921,122.453 50.178 M120.662 82.392 C 87.766 84.923,58.009 107.882,46.975 139.246 C 43.137 150.154,42.088 157.445,42.053 173.456 C 42.029 184.705,42.098 185.953,42.797 187.023 C 45.229 190.745,50.763 190.747,53.203 187.027 C 53.891 185.978,54.000 184.372,54.224 171.967 C 54.504 156.523,54.904 153.514,57.861 144.640 C 67.338 116.199,92.808 96.421,122.630 94.345 C 156.662 91.975,187.416 112.460,198.139 144.640 C 201.096 153.514,201.496 156.523,201.776 171.967 C 202.000 184.372,202.109 185.978,202.797 187.027 C 205.237 190.747,210.771 190.745,213.203 187.023 C 213.902 185.953,213.971 184.705,213.947 173.456 C 213.918 160.124,213.449 155.296,211.392 147.139 C 202.329 111.197,171.400 85.173,134.400 82.360 C 128.066 81.878,127.307 81.880,120.662 82.392 M123.733 114.171 C 115.572 115.102,109.835 116.776,103.253 120.148 C 88.319 127.799,78.189 141.463,74.815 158.507 C 74.200 161.613,74.052 164.591,74.041 174.097 C 74.028 184.718,74.101 185.960,74.797 187.024 C 77.231 190.745,82.764 190.747,85.203 187.027 C 85.885 185.987,86.002 184.413,86.227 173.247 C 86.448 162.229,86.594 160.222,87.386 157.319 C 89.727 148.740,95.035 140.576,101.676 135.339 C 110.405 128.457,120.975 125.274,131.750 126.285 C 137.359 126.811,140.919 127.816,146.187 130.361 C 155.426 134.824,161.692 141.161,166.041 150.442 C 169.171 157.121,169.488 159.057,169.773 173.247 C 169.998 184.413,170.115 185.987,170.797 187.027 C 173.236 190.747,178.769 190.745,181.203 187.024 C 181.899 185.960,181.972 184.718,181.959 174.097 C 181.948 164.591,181.800 161.613,181.185 158.507 C 177.838 141.598,167.721 127.865,153.019 120.273 C 148.167 117.768,142.918 115.900,138.234 115.011 C 134.834 114.366,126.338 113.874,123.733 114.171 " stroke="none" fill-rule="evenodd"></path></svg>