<svg fill="currentColor" viewBox="0 0 256 256" xmlns="http://www.w3.org/2000/svg"><path d="M197.724 34.740 C 195.196 35.840,193.659 38.996,194.332 41.704 C 194.514 42.437,197.459 45.733,202.150 50.453 L 209.676 58.027 151.024 58.030 C 113.711 58.032,90.983 58.193,88.551 58.472 C 76.835 59.814,66.645 63.555,56.747 70.148 C 50.519 74.296,42.176 82.652,38.040 88.885 C 30.802 99.792,26.695 112.077,26.177 124.373 C 25.980 129.030,26.041 129.619,26.843 130.884 C 28.750 133.889,32.328 134.814,35.030 133.000 C 37.243 131.515,37.857 129.763,38.353 123.520 C 39.056 114.668,41.419 106.778,45.508 99.627 C 54.923 83.160,71.048 72.514,89.729 70.431 C 92.449 70.128,113.366 69.973,151.754 69.973 L 209.676 69.973 202.150 77.547 C 197.459 82.267,194.514 85.563,194.332 86.296 C 193.277 90.540,197.451 94.716,201.704 93.672 C 203.004 93.353,228.307 68.472,229.364 66.475 C 230.143 65.002,230.142 62.995,229.361 61.525 C 228.421 59.756,203.469 35.087,202.106 34.580 C 200.532 33.995,199.335 34.038,197.724 34.740 M220.970 123.000 C 218.757 124.485,218.143 126.237,217.647 132.480 C 216.944 141.332,214.581 149.222,210.492 156.373 C 203.306 168.942,191.936 178.406,178.773 182.774 C 169.018 186.013,174.815 185.759,107.096 185.913 L 46.299 186.052 53.838 178.466 C 58.537 173.737,61.486 170.437,61.668 169.704 C 62.704 165.537,58.939 161.560,54.692 162.336 C 53.345 162.582,51.272 164.462,40.183 175.498 C 33.067 182.579,26.971 188.892,26.636 189.525 C 25.858 190.996,25.858 193.004,26.636 194.475 C 27.693 196.472,52.996 221.353,54.296 221.672 C 58.549 222.716,62.723 218.540,61.668 214.296 C 61.486 213.563,58.545 210.271,53.863 205.559 L 46.349 197.998 107.761 197.862 L 169.173 197.726 173.440 196.759 C 183.222 194.540,191.328 191.131,199.104 185.964 C 205.459 181.742,213.742 173.459,217.964 167.104 C 225.169 156.260,229.307 143.880,229.823 131.627 C 230.020 126.970,229.959 126.381,229.157 125.116 C 227.250 122.111,223.672 121.186,220.970 123.000 " stroke="none" fill-rule="evenodd"></path></svg>