<svg fill="currentColor" viewBox="0 0 256 256" xmlns="http://www.w3.org/2000/svg"><path d="M124.668 11.104 C 122.072 12.687,122.027 13.049,122.027 32.413 L 122.027 49.920 88.640 49.933 C 70.277 49.940,53.909 50.122,52.267 50.338 C 45.176 51.267,40.052 53.831,34.714 59.122 C 31.829 61.982,30.913 63.245,29.300 66.589 C 25.836 73.769,26.026 69.720,26.034 136.195 C 26.042 199.747,25.976 197.750,28.254 203.390 C 30.446 208.816,35.531 214.726,40.568 217.700 C 42.052 218.577,44.811 219.825,46.700 220.474 L 50.133 221.653 128.000 221.653 L 205.867 221.653 209.300 220.474 C 219.676 216.909,227.126 208.560,229.368 197.984 C 229.854 195.691,229.960 184.789,229.966 136.195 C 229.974 69.720,230.164 73.769,226.700 66.589 C 225.087 63.245,224.171 61.982,221.286 59.122 C 215.948 53.831,210.824 51.267,203.733 50.338 C 202.091 50.122,185.723 49.940,167.360 49.933 L 133.973 49.920 133.973 32.413 C 133.973 13.049,133.928 12.687,131.332 11.104 C 129.475 9.972,126.525 9.972,124.668 11.104 M202.440 62.313 C 204.075 62.550,206.428 63.207,207.668 63.775 C 210.479 65.062,214.117 68.458,215.596 71.174 C 218.134 75.838,218.027 72.991,218.027 135.711 C 218.027 172.746,217.873 193.980,217.594 195.462 C 216.566 200.925,212.660 205.895,207.469 208.346 L 204.587 209.707 128.000 209.707 L 51.413 209.707 48.531 208.346 C 43.340 205.895,39.434 200.925,38.406 195.462 C 37.777 192.120,37.815 79.304,38.446 76.288 C 39.921 69.239,46.122 63.367,53.179 62.336 C 56.833 61.802,198.755 61.781,202.440 62.313 M79.458 99.231 C 73.390 102.255,72.159 110.155,77.002 114.998 C 81.845 119.841,89.745 118.610,92.769 112.542 C 97.098 103.855,88.145 94.902,79.458 99.231 M167.893 98.944 C 159.221 102.968,160.719 115.828,170.087 117.772 C 178.871 119.596,185.364 109.329,180.022 102.064 C 177.423 98.531,171.865 97.101,167.893 98.944 M85.333 138.910 C 72.092 142.433,63.791 155.980,66.605 169.472 C 68.142 176.843,73.899 184.110,80.701 187.268 C 82.662 188.179,85.284 189.136,86.528 189.395 C 89.690 190.055,166.310 190.055,169.472 189.395 C 170.716 189.136,173.338 188.179,175.299 187.268 C 180.331 184.932,184.923 180.343,187.277 175.299 C 189.380 170.792,190.022 167.500,189.778 162.473 C 189.276 152.126,182.628 143.173,172.682 139.450 L 170.027 138.456 128.853 138.371 C 93.873 138.298,87.327 138.380,85.333 138.910 M105.813 164.084 L 105.813 177.982 96.960 177.842 C 88.680 177.711,87.976 177.637,86.086 176.700 C 83.414 175.375,80.942 172.921,79.485 170.148 C 78.447 168.171,78.301 167.420,78.297 164.053 C 78.293 159.415,79.263 157.044,82.430 153.951 C 85.808 150.652,87.474 150.235,97.387 150.209 L 105.813 150.187 105.813 164.084 M137.813 164.053 L 137.813 177.920 128.000 177.920 L 118.187 177.920 118.187 164.053 L 118.187 150.187 128.000 150.187 L 137.813 150.187 137.813 164.053 M169.162 151.072 C 172.045 152.151,175.187 155.093,176.647 158.080 C 177.516 159.858,177.690 160.853,177.694 164.053 C 177.698 167.430,177.556 168.166,176.515 170.148 C 175.058 172.921,172.586 175.375,169.914 176.700 C 168.024 177.637,167.320 177.711,159.040 177.842 L 150.187 177.982 150.187 164.084 L 150.187 150.187 158.491 150.187 C 165.852 150.187,167.064 150.287,169.162 151.072 " stroke="none" fill-rule="evenodd"></path></svg>