<svg fill="currentColor" viewBox="0 0 256 256" xmlns="http://www.w3.org/2000/svg"><path d="M193.280 34.587 C 183.056 35.790,172.723 38.761,163.627 43.116 C 154.488 47.490,147.150 52.707,138.738 60.812 L 133.214 66.133 102.463 66.133 C 72.181 66.133,71.674 66.147,69.243 67.039 C 66.932 67.886,65.546 69.167,47.663 86.986 C 26.601 107.971,26.509 108.084,26.136 113.403 C 25.666 120.099,29.972 126.078,36.480 127.767 C 37.888 128.133,47.584 129.599,58.027 131.027 L 77.013 133.622 99.692 156.305 L 122.371 178.987 125.003 198.187 C 126.450 208.747,127.921 218.443,128.271 219.733 C 129.988 226.072,136.004 230.326,142.597 229.864 C 147.916 229.491,148.029 229.399,169.014 208.337 C 186.833 190.454,188.114 189.068,188.961 186.757 C 189.853 184.326,189.867 183.819,189.867 153.537 L 189.867 122.786 195.198 117.251 C 203.824 108.298,209.515 100.099,213.800 90.453 C 219.492 77.640,222.089 64.944,221.798 51.363 C 221.662 44.972,221.586 44.450,220.471 42.180 C 219.092 39.371,216.233 36.574,213.408 35.270 C 211.628 34.448,210.608 34.341,203.947 34.280 C 199.840 34.242,195.040 34.380,193.280 34.587 M209.140 46.786 C 209.814 47.396,209.920 48.192,209.916 52.653 C 209.903 72.033,203.040 90.459,190.591 104.539 C 188.831 106.531,174.027 121.504,157.695 137.812 L 127.999 167.465 108.267 147.733 L 88.535 128.001 119.041 97.468 C 135.819 80.676,151.275 65.524,153.387 63.798 C 162.782 56.119,173.944 50.667,185.607 48.059 C 191.844 46.664,195.953 46.206,202.846 46.136 C 207.431 46.089,208.491 46.199,209.140 46.786 M99.596 99.870 L 77.806 121.660 58.850 119.030 C 47.388 117.440,39.514 116.159,38.933 115.790 C 38.405 115.455,37.973 114.850,37.973 114.445 C 37.973 114.041,45.988 105.694,55.785 95.895 L 73.596 78.080 97.491 78.080 L 121.386 78.080 99.596 99.870 M160.112 200.208 C 150.314 210.008,141.965 218.027,141.558 218.027 C 141.152 218.027,140.552 217.595,140.225 217.067 C 139.879 216.508,138.531 208.165,137.005 197.132 L 134.378 178.158 156.043 156.491 L 177.707 134.823 177.817 158.606 L 177.927 182.389 160.112 200.208 M68.480 154.827 C 58.696 158.421,49.396 166.439,43.399 176.451 C 37.751 185.881,34.131 200.179,34.135 213.035 C 34.137 218.394,34.708 219.980,37.080 221.206 C 38.770 222.080,46.065 222.087,52.671 221.221 C 70.208 218.922,83.615 212.303,92.958 201.332 C 97.598 195.883,101.485 188.448,101.851 184.320 C 102.161 180.824,99.639 178.183,95.991 178.183 C 93.412 178.183,91.186 179.741,90.429 182.075 C 88.852 186.941,84.905 192.917,80.774 196.691 C 72.894 203.894,62.561 208.035,48.359 209.684 L 46.159 209.939 46.354 208.116 C 47.291 199.350,49.030 192.500,51.814 186.614 C 54.386 181.174,56.745 177.827,60.795 173.867 C 64.612 170.134,67.416 168.280,72.176 166.343 C 75.928 164.816,76.560 164.283,77.483 161.868 C 78.151 160.117,78.150 159.880,77.465 158.085 C 76.113 154.545,72.659 153.293,68.480 154.827 " stroke="none" fill-rule="evenodd"></path></svg>