<svg fill="currentColor" viewBox="0 0 256 256" xmlns="http://www.w3.org/2000/svg"><path d="M36.821 34.969 C 34.076 36.643,34.133 36.112,34.135 60.032 C 34.136 80.763,34.173 81.766,34.968 83.070 C 36.127 84.971,37.731 85.902,39.847 85.902 C 42.245 85.902,44.199 84.683,45.236 82.541 C 46.035 80.891,46.080 79.863,46.080 63.439 L 46.080 46.080 63.439 46.080 C 79.863 46.080,80.891 46.035,82.541 45.236 C 84.683 44.199,85.902 42.245,85.902 39.847 C 85.902 37.731,84.971 36.127,83.070 34.968 C 81.766 34.173,80.764 34.137,59.947 34.137 C 39.116 34.137,38.128 34.172,36.821 34.969 M172.930 34.968 C 171.029 36.127,170.098 37.731,170.098 39.847 C 170.098 42.245,171.317 44.199,173.459 45.236 C 175.109 46.035,176.137 46.080,192.561 46.080 L 209.920 46.080 209.920 63.439 C 209.920 79.863,209.965 80.891,210.764 82.541 C 211.801 84.683,213.755 85.902,216.153 85.902 C 218.269 85.902,219.873 84.971,221.032 83.070 C 221.827 81.766,221.864 80.763,221.865 60.032 C 221.867 36.112,221.924 36.643,219.179 34.969 C 217.872 34.172,216.884 34.137,196.053 34.137 C 175.236 34.137,174.234 34.173,172.930 34.968 M82.124 75.456 C 78.917 76.973,75.878 80.237,74.803 83.319 C 74.072 85.416,74.027 88.042,74.027 128.000 C 74.027 177.127,73.691 173.180,78.255 177.745 C 82.820 182.309,78.873 181.973,128.000 181.973 C 177.127 181.973,173.180 182.309,177.745 177.745 C 182.309 173.180,181.973 177.127,181.973 128.000 C 181.973 88.042,181.928 85.416,181.197 83.319 C 180.122 80.237,177.083 76.973,173.876 75.456 L 171.307 74.241 128.000 74.241 L 84.693 74.241 82.124 75.456 M169.709 127.903 L 169.818 169.406 168.721 169.823 C 167.233 170.389,88.769 170.390,87.281 169.824 L 86.187 169.408 86.187 128.082 C 86.187 105.352,86.316 86.627,86.473 86.469 C 86.631 86.311,105.399 86.231,128.180 86.291 L 169.600 86.400 169.709 127.903 M36.575 171.151 C 34.086 173.007,34.133 172.526,34.135 196.139 C 34.136 216.883,34.172 217.872,34.969 219.179 C 36.643 221.924,36.112 221.867,60.032 221.865 C 80.763 221.864,81.766 221.827,83.070 221.032 C 84.971 219.873,85.902 218.269,85.902 216.153 C 85.902 213.755,84.683 211.801,82.541 210.764 C 80.891 209.965,79.863 209.920,63.439 209.920 L 46.080 209.920 46.080 192.561 C 46.080 176.137,46.035 175.109,45.236 173.459 C 44.771 172.500,43.830 171.383,43.143 170.977 C 41.386 169.939,38.083 170.026,36.575 171.151 M212.787 170.998 C 212.134 171.402,211.222 172.514,210.760 173.468 C 209.967 175.106,209.920 176.167,209.920 192.561 L 209.920 209.920 192.561 209.920 C 176.137 209.920,175.109 209.965,173.459 210.764 C 171.317 211.801,170.098 213.755,170.098 216.153 C 170.098 218.269,171.029 219.873,172.930 221.032 C 174.234 221.827,175.237 221.864,195.968 221.865 C 219.888 221.867,219.357 221.924,221.031 219.179 C 221.828 217.872,221.864 216.883,221.865 196.139 C 221.867 172.435,221.919 172.953,219.354 171.127 C 217.789 170.012,214.482 169.947,212.787 170.998 " stroke="none" fill-rule="evenodd"></path></svg>