<svg fill="currentColor" viewBox="0 0 256 256" xmlns="http://www.w3.org/2000/svg"><path d="M43.419 34.778 C 41.025 35.659,38.077 37.838,36.693 39.748 C 34.198 43.192,34.088 44.098,34.224 60.078 L 34.347 74.612 35.590 75.909 C 37.890 78.309,41.290 78.646,43.742 76.717 C 45.857 75.053,46.080 73.811,46.080 63.694 L 46.080 54.401 123.735 132.054 L 201.390 209.707 191.647 209.920 L 181.905 210.133 180.353 211.318 C 177.376 213.590,177.249 217.686,180.071 220.391 L 181.388 221.653 196.023 221.776 C 210.089 221.893,210.752 221.863,213.096 220.986 C 216.381 219.757,219.750 216.399,220.970 213.138 L 221.867 210.741 221.867 128.000 C 221.867 45.292,221.866 45.258,220.981 42.891 C 219.902 40.008,216.957 36.857,213.973 35.393 L 211.840 34.347 128.427 34.268 C 58.514 34.203,44.755 34.285,43.419 34.778 M209.442 46.658 C 209.795 47.083,209.894 67.698,209.814 124.312 L 209.707 201.388 132.054 123.734 L 54.401 46.080 131.682 46.080 C 196.200 46.080,209.041 46.176,209.442 46.658 M36.575 107.151 C 34.124 108.979,34.133 108.901,34.135 128.085 C 34.136 144.799,34.179 145.777,34.968 147.070 C 36.127 148.971,37.731 149.902,39.847 149.902 C 42.245 149.902,44.199 148.683,45.236 146.541 C 46.033 144.894,46.080 143.865,46.080 128.000 C 46.080 112.135,46.033 111.106,45.236 109.459 C 44.771 108.500,43.830 107.383,43.143 106.977 C 41.386 105.939,38.083 106.026,36.575 107.151 M38.171 178.361 C 37.458 178.575,36.306 179.344,35.611 180.070 L 34.347 181.388 34.224 196.023 C 34.106 210.194,34.131 210.736,35.037 213.155 C 36.300 216.533,39.467 219.700,42.845 220.963 C 45.264 221.869,45.806 221.894,59.977 221.776 L 74.612 221.653 75.929 220.391 C 78.751 217.686,78.624 213.589,75.647 211.318 L 74.095 210.133 60.637 210.004 C 51.903 209.920,46.986 209.714,46.629 209.418 C 46.203 209.065,46.080 206.049,46.080 195.987 C 46.080 181.806,45.953 180.933,43.661 179.300 C 42.149 178.223,39.903 177.839,38.171 178.361 M109.426 210.772 C 107.302 211.824,106.098 213.771,106.098 216.153 C 106.098 218.269,107.029 219.873,108.930 221.032 C 110.223 221.821,111.200 221.863,128.000 221.863 C 144.800 221.863,145.777 221.821,147.070 221.032 C 148.971 219.873,149.902 218.269,149.902 216.153 C 149.902 213.755,148.683 211.801,146.541 210.764 C 144.894 209.967,143.865 209.920,127.972 209.920 C 112.017 209.921,111.058 209.965,109.426 210.772 " stroke="none" fill-rule="evenodd"></path></svg>