<svg fill="currentColor" viewBox="0 0 256 256" xmlns="http://www.w3.org/2000/svg"><path d="M43.419 34.779 C 41.027 35.658,38.078 37.837,36.693 39.748 C 34.198 43.192,34.088 44.098,34.224 60.078 L 34.347 74.612 35.590 75.909 C 37.890 78.309,41.290 78.646,43.742 76.717 C 45.956 74.975,46.080 74.091,46.080 60.046 C 46.080 50.549,46.216 46.968,46.592 46.592 C 46.968 46.216,50.570 46.080,60.139 46.079 C 71.705 46.079,73.338 45.995,74.636 45.333 C 78.837 43.191,79.103 37.752,75.137 35.102 C 73.699 34.141,73.569 34.134,59.350 34.163 C 48.316 34.187,44.646 34.328,43.419 34.779 M108.930 34.968 C 107.029 36.127,106.098 37.731,106.098 39.847 C 106.098 42.245,107.317 44.199,109.459 45.236 C 111.106 46.033,112.135 46.080,128.000 46.080 C 143.865 46.080,144.894 46.033,146.541 45.236 C 148.683 44.199,149.902 42.245,149.902 39.847 C 149.902 37.731,148.971 36.127,147.070 34.968 C 145.777 34.179,144.800 34.137,128.000 34.137 C 111.200 34.137,110.223 34.179,108.930 34.968 M180.886 35.086 C 176.897 37.751,177.151 43.184,181.364 45.333 C 182.662 45.995,184.295 46.079,195.861 46.079 C 205.430 46.080,209.032 46.216,209.408 46.592 C 209.784 46.968,209.920 50.549,209.920 60.046 C 209.920 74.091,210.044 74.975,212.258 76.717 C 214.710 78.646,218.110 78.309,220.410 75.909 L 221.653 74.612 221.776 59.977 C 221.893 45.965,221.860 45.240,220.997 42.933 C 219.901 40.006,216.977 36.867,213.973 35.393 C 211.851 34.352,211.765 34.346,197.099 34.225 L 182.359 34.102 180.886 35.086 M36.575 107.151 C 34.124 108.979,34.133 108.901,34.135 128.085 C 34.136 144.799,34.179 145.777,34.968 147.070 C 36.127 148.971,37.731 149.902,39.847 149.902 C 42.245 149.902,44.199 148.683,45.236 146.541 C 46.033 144.894,46.080 143.865,46.080 128.000 C 46.080 112.135,46.033 111.106,45.236 109.459 C 44.771 108.500,43.830 107.383,43.143 106.977 C 41.386 105.939,38.083 106.026,36.575 107.151 M212.787 106.998 C 212.134 107.402,211.222 108.514,210.760 109.468 C 209.968 111.103,209.920 112.164,209.920 128.000 C 209.920 143.865,209.967 144.894,210.764 146.541 C 211.801 148.683,213.755 149.902,216.153 149.902 C 218.269 149.902,219.873 148.971,221.032 147.070 C 221.821 145.777,221.864 144.799,221.865 128.085 C 221.867 108.821,221.879 108.925,219.354 107.127 C 217.789 106.012,214.482 105.947,212.787 106.998 M38.171 178.361 C 37.458 178.575,36.306 179.344,35.611 180.070 L 34.347 181.388 34.224 196.023 C 34.106 210.194,34.131 210.736,35.037 213.155 C 36.300 216.533,39.467 219.700,42.845 220.963 C 45.264 221.869,45.806 221.894,59.977 221.776 L 74.612 221.653 75.929 220.391 C 78.751 217.686,78.624 213.589,75.647 211.318 L 74.095 210.133 60.637 210.004 C 51.903 209.920,46.986 209.714,46.629 209.418 C 46.203 209.065,46.080 206.049,46.080 195.987 C 46.080 181.806,45.953 180.933,43.661 179.300 C 42.149 178.223,39.903 177.839,38.171 178.361 M213.364 186.774 C 212.559 187.184,211.503 188.062,211.017 188.723 C 210.193 189.846,210.125 190.596,210.005 199.895 L 209.877 209.864 199.958 209.998 C 188.990 210.148,188.562 210.247,186.861 213.037 C 185.268 215.649,186.173 219.390,188.789 221.007 C 190.079 221.804,190.900 221.867,200.050 221.867 L 209.920 221.867 209.920 231.332 C 209.920 239.891,210.001 240.964,210.764 242.541 C 211.801 244.683,213.755 245.902,216.153 245.902 C 218.269 245.902,219.873 244.971,221.032 243.070 C 221.793 241.822,221.864 240.867,221.865 231.787 L 221.867 221.867 231.787 221.865 C 240.867 221.864,241.822 221.793,243.070 221.032 C 244.971 219.873,245.902 218.269,245.902 216.153 C 245.902 213.755,244.683 211.801,242.541 210.764 C 240.964 210.001,239.891 209.920,231.332 209.920 L 221.867 209.920 221.867 200.066 C 221.867 189.006,221.763 188.551,218.860 186.920 C 216.923 185.831,215.297 185.788,213.364 186.774 M109.426 210.772 C 107.302 211.824,106.098 213.771,106.098 216.153 C 106.098 218.269,107.029 219.873,108.930 221.032 C 110.223 221.821,111.200 221.863,128.000 221.863 C 144.800 221.863,145.777 221.821,147.070 221.032 C 148.971 219.873,149.902 218.269,149.902 216.153 C 149.902 213.755,148.683 211.801,146.541 210.764 C 144.894 209.967,143.865 209.920,127.972 209.920 C 112.017 209.921,111.058 209.965,109.426 210.772 " stroke="none" fill-rule="evenodd"></path></svg>