<svg fill="currentColor" viewBox="0 0 256 256" xmlns="http://www.w3.org/2000/svg"><path d="M92.160 34.530 C 88.430 35.677,84.742 38.943,83.055 42.592 C 82.155 44.540,82.130 45.091,82.000 66.347 C 81.913 80.557,82.021 88.631,82.310 89.618 C 82.555 90.449,83.347 91.697,84.071 92.391 L 85.388 93.653 99.547 93.768 C 112.999 93.876,113.775 93.840,115.070 93.041 C 116.975 91.867,117.902 90.266,117.902 88.153 C 117.902 85.755,116.683 83.801,114.541 82.764 C 112.964 82.001,111.891 81.920,103.332 81.920 L 93.867 81.920 93.867 64.670 C 93.867 49.558,93.950 47.338,94.537 46.750 C 95.140 46.148,100.944 46.080,152.052 46.080 C 195.695 46.080,209.015 46.199,209.408 46.592 C 209.801 46.985,209.920 60.305,209.920 103.948 C 209.920 155.056,209.852 160.860,209.250 161.463 C 208.662 162.050,206.442 162.133,191.330 162.133 L 174.080 162.133 174.080 152.668 C 174.080 144.109,173.999 143.036,173.236 141.459 C 172.771 140.500,171.830 139.383,171.143 138.977 C 169.388 137.941,166.209 138.014,164.646 139.127 C 162.121 140.925,162.088 141.160,162.223 156.570 L 162.347 170.612 163.609 171.929 C 164.303 172.653,165.551 173.445,166.382 173.690 C 167.369 173.979,175.443 174.087,189.653 174.000 C 210.909 173.870,211.460 173.845,213.408 172.945 C 216.098 171.702,219.137 168.820,220.518 166.204 L 221.653 164.053 221.766 104.672 C 221.878 45.347,221.877 45.288,220.987 42.907 C 219.902 40.007,216.965 36.860,213.973 35.393 L 211.840 34.347 152.533 34.274 C 119.915 34.235,92.747 34.350,92.160 34.530 M44.939 82.366 C 41.262 83.093,37.432 86.102,35.482 89.796 C 34.380 91.883,34.347 92.163,34.347 99.278 L 34.347 106.610 35.590 107.908 C 37.889 110.309,41.289 110.646,43.742 108.717 C 45.610 107.248,46.080 105.515,46.080 100.098 C 46.080 93.689,45.893 93.867,52.617 93.865 C 57.018 93.864,58.022 93.736,59.179 93.031 C 63.400 90.457,62.413 83.677,57.624 82.346 C 55.833 81.849,47.489 81.861,44.939 82.366 M150.400 82.204 C 148.687 82.665,146.802 84.498,146.293 86.198 C 145.631 88.408,146.282 90.676,148.071 92.391 C 149.367 93.633,149.478 93.657,155.101 93.867 C 158.961 94.011,160.993 94.259,161.367 94.633 C 161.741 95.007,161.989 97.039,162.133 100.899 C 162.343 106.522,162.367 106.633,163.609 107.929 C 166.185 110.616,170.276 110.615,172.538 107.926 C 173.972 106.222,174.196 104.751,174.010 98.262 C 173.872 93.477,173.716 92.507,172.750 90.434 C 171.179 87.064,169.304 85.129,166.060 83.532 C 163.312 82.179,163.064 82.138,157.243 82.057 C 153.949 82.011,150.869 82.077,150.400 82.204 M36.575 139.151 C 34.273 140.868,34.133 141.612,34.133 152.142 C 34.133 161.100,34.197 161.923,34.993 163.211 C 37.379 167.071,43.213 166.687,45.333 162.530 C 45.972 161.275,46.079 159.795,46.079 152.135 C 46.080 144.106,45.995 143.026,45.236 141.459 C 44.771 140.500,43.830 139.383,43.143 138.977 C 41.386 137.939,38.083 138.026,36.575 139.151 M36.821 194.969 C 34.476 196.399,34.133 197.621,34.133 204.549 C 34.133 212.246,34.815 214.497,38.159 217.841 C 41.514 221.196,43.745 221.867,51.536 221.865 C 57.009 221.864,57.988 221.757,59.179 221.031 C 63.400 218.457,62.413 211.677,57.624 210.346 C 56.790 210.114,54.081 209.924,51.605 209.922 C 48.676 209.921,46.925 209.741,46.592 209.408 C 46.253 209.069,46.080 207.231,46.079 203.968 C 46.079 200.128,45.914 198.712,45.333 197.555 C 43.752 194.409,39.739 193.190,36.821 194.969 M164.827 194.965 C 162.675 196.278,162.366 197.241,162.133 203.379 C 162.016 206.469,161.761 209.157,161.566 209.352 C 161.371 209.547,158.663 209.806,155.549 209.928 C 150.191 210.137,149.803 210.213,148.343 211.326 C 145.376 213.589,145.254 217.692,148.072 220.391 L 149.390 221.653 156.722 221.653 C 163.837 221.653,164.117 221.620,166.204 220.518 C 168.833 219.130,171.715 216.082,172.927 213.408 C 173.683 211.738,173.854 210.407,173.979 205.227 C 174.107 199.905,174.020 198.832,173.357 197.555 C 171.721 194.402,167.735 193.192,164.827 194.965 M94.141 210.359 C 89.450 211.764,88.605 218.421,92.789 221.007 C 94.078 221.803,94.898 221.867,103.944 221.865 C 112.868 221.864,113.824 221.792,115.070 221.032 C 116.971 219.873,117.902 218.269,117.902 216.153 C 117.902 213.755,116.683 211.801,114.541 210.764 C 112.969 210.003,111.939 209.924,104.079 209.957 C 99.283 209.977,94.811 210.158,94.141 210.359 " stroke="none" fill-rule="evenodd"></path></svg>