<svg fill="currentColor" viewBox="0 0 256 256" xmlns="http://www.w3.org/2000/svg"><path d="M92.160 34.532 C 88.427 35.672,84.710 38.970,83.078 42.592 C 82.350 44.207,82.145 45.673,81.999 50.295 C 81.889 53.753,82.003 56.620,82.286 57.566 C 83.740 62.420,90.441 63.426,93.031 59.179 C 93.736 58.022,93.864 57.018,93.865 52.617 C 93.867 45.882,93.676 46.080,100.190 46.079 C 104.091 46.079,105.491 45.917,106.636 45.333 C 110.837 43.191,111.103 37.752,107.137 35.102 C 105.787 34.200,105.257 34.136,99.457 34.170 C 96.030 34.190,92.747 34.353,92.160 34.532 M140.930 34.968 C 139.029 36.127,138.098 37.731,138.098 39.847 C 138.098 42.245,139.317 44.199,141.459 45.236 C 143.026 45.995,144.106 46.080,152.135 46.079 C 159.795 46.079,161.275 45.972,162.530 45.333 C 166.687 43.213,167.071 37.379,163.211 34.993 C 161.922 34.197,161.102 34.133,152.056 34.135 C 143.132 34.136,142.176 34.208,140.930 34.968 M196.821 34.954 C 192.796 37.454,193.398 43.597,197.853 45.495 C 198.746 45.875,200.917 46.080,204.061 46.080 C 207.253 46.080,209.070 46.254,209.408 46.592 C 209.746 46.930,209.920 48.747,209.920 51.939 C 209.920 57.207,210.353 58.840,212.198 60.541 C 213.665 61.894,216.915 62.243,218.828 61.253 C 221.452 59.897,221.863 58.581,221.865 51.536 C 221.866 46.224,221.730 44.895,220.981 42.891 C 219.902 40.008,216.957 36.857,213.973 35.393 C 212.021 34.436,211.260 34.336,205.013 34.226 C 198.818 34.116,198.060 34.183,196.821 34.954 M44.939 82.362 C 41.255 83.098,37.430 86.105,35.482 89.796 L 34.347 91.947 34.234 151.328 L 34.122 210.710 35.046 213.182 C 36.295 216.519,39.481 219.705,42.818 220.954 L 45.290 221.878 104.672 221.766 L 164.053 221.653 166.204 220.518 C 168.820 219.137,171.702 216.098,172.945 213.408 L 173.867 211.413 173.867 152.098 L 173.867 92.782 172.471 89.948 C 170.873 86.701,168.943 84.827,165.566 83.243 L 163.200 82.133 104.960 82.070 C 72.928 82.035,45.919 82.166,44.939 82.362 M213.364 90.774 C 212.559 91.184,211.503 92.062,211.017 92.723 C 210.197 93.840,210.124 94.605,210.003 103.314 C 209.883 112.032,209.935 112.829,210.741 114.493 C 211.800 116.680,213.739 117.902,216.153 117.902 C 218.269 117.902,219.873 116.971,221.032 115.070 C 221.792 113.824,221.864 112.868,221.865 103.959 C 221.867 93.017,221.759 92.549,218.860 90.920 C 216.923 89.831,215.297 89.788,213.364 90.774 M161.285 94.725 C 162.137 95.577,162.142 95.975,162.031 152.340 C 161.933 202.246,161.843 209.147,161.280 209.502 C 160.259 210.148,47.239 210.055,46.592 209.408 C 46.199 209.015,46.080 195.695,46.080 152.052 C 46.080 100.944,46.148 95.140,46.750 94.537 C 47.353 93.934,53.126 93.867,103.924 93.867 C 159.959 93.867,160.434 93.874,161.285 94.725 M214.400 146.233 C 212.889 146.611,211.119 148.142,210.512 149.596 C 210.124 150.524,209.920 152.698,209.920 155.902 C 209.920 162.311,210.107 162.133,203.383 162.135 C 198.982 162.136,197.978 162.264,196.821 162.969 C 192.574 165.559,193.580 172.260,198.434 173.714 C 199.380 173.997,202.247 174.111,205.705 174.001 C 210.327 173.855,211.793 173.650,213.408 172.922 C 216.079 171.718,219.128 168.837,220.518 166.204 C 221.620 164.117,221.653 163.837,221.653 156.722 L 221.653 149.390 220.398 148.079 C 219.707 147.358,218.459 146.578,217.624 146.346 C 216.021 145.901,215.761 145.892,214.400 146.233 " stroke="none" fill-rule="evenodd"></path></svg>