<svg fill="currentColor" viewBox="0 0 256 256" xmlns="http://www.w3.org/2000/svg"><path d="M147.962 26.688 C 137.394 28.334,127.497 33.640,119.677 41.852 C 114.291 47.510,110.748 53.468,108.410 60.800 C 106.682 66.223,106.071 70.263,106.089 76.160 C 106.138 92.193,113.568 106.775,126.572 116.360 C 132.800 120.951,140.575 124.164,148.562 125.448 C 153.651 126.266,163.086 125.793,168.138 124.467 C 187.017 119.509,200.941 104.910,205.055 85.760 C 206.082 80.978,206.093 70.716,205.075 66.203 C 201.534 50.498,192.232 38.376,178.347 31.371 C 169.160 26.737,158.350 25.071,147.962 26.688 M165.333 39.235 C 169.654 40.324,176.489 43.728,179.943 46.511 C 185.553 51.030,190.952 59.357,192.656 66.120 C 198.183 88.052,184.424 109.566,162.375 113.472 C 158.684 114.125,152.343 114.020,148.569 113.242 C 133.189 110.073,121.357 97.957,118.635 82.588 C 118.003 79.022,118.078 72.322,118.791 68.596 C 121.749 53.136,134.585 40.881,150.400 38.417 C 154.104 37.840,161.383 38.238,165.333 39.235 M61.227 58.821 C 60.523 59.255,59.635 59.975,59.255 60.419 C 58.874 60.863,49.399 88.744,38.199 122.375 C 15.791 189.664,17.073 185.076,19.833 188.088 L 21.268 189.653 64.000 189.653 L 106.732 189.653 108.167 188.088 C 110.927 185.076,112.207 189.652,89.830 122.507 C 78.557 88.682,69.109 60.999,68.630 60.389 C 66.783 58.042,63.585 57.364,61.227 58.821 M79.744 130.240 C 88.284 155.877,95.360 177.093,95.468 177.387 C 95.624 177.810,89.152 177.920,64.000 177.920 C 38.848 177.920,32.376 177.810,32.532 177.387 C 32.640 177.093,39.716 155.877,48.256 130.240 C 56.796 104.603,63.881 83.627,64.000 83.627 C 64.119 83.627,71.204 104.603,79.744 130.240 M134.171 146.370 C 133.458 146.579,132.306 147.344,131.611 148.070 L 130.347 149.389 130.237 179.548 C 130.130 208.854,130.151 209.745,130.963 211.070 C 131.423 211.820,132.328 212.780,132.974 213.203 C 134.088 213.933,136.519 213.973,179.821 213.973 C 224.974 213.973,225.510 213.963,226.987 213.105 C 230.099 211.297,229.972 212.700,229.972 180.053 C 229.972 147.770,230.078 149.073,227.276 147.017 C 226.077 146.137,225.861 146.133,180.769 146.061 C 155.217 146.021,134.902 146.155,134.171 146.370 M218.027 180.053 L 218.027 202.240 180.053 202.240 L 142.080 202.240 142.080 180.053 L 142.080 157.867 180.053 157.867 L 218.027 157.867 218.027 180.053 " stroke="none" fill-rule="evenodd"></path></svg>