<svg fill="currentColor" viewBox="0 0 256 256" xmlns="http://www.w3.org/2000/svg"><path d="M172.927 51.183 C 170.559 52.627,169.495 56.183,170.711 58.588 C 170.970 59.101,179.838 68.197,190.417 78.801 L 209.652 98.082 181.733 98.248 C 152.503 98.421,151.338 98.488,142.507 100.505 C 112.594 107.337,86.310 128.114,73.357 155.166 C 69.592 163.030,66.132 173.089,66.135 176.162 C 66.137 178.422,67.523 180.388,69.835 181.411 C 71.564 182.175,72.021 182.219,73.532 181.767 C 76.001 181.027,77.378 179.334,78.281 175.925 C 80.940 165.893,86.992 153.779,93.804 144.853 C 96.862 140.847,104.342 133.318,108.860 129.698 C 118.066 122.323,129.851 116.311,141.126 113.238 C 151.305 110.464,152.101 110.405,181.973 110.212 L 209.280 110.035 190.006 129.364 C 173.130 146.288,170.696 148.892,170.439 150.293 C 169.974 152.828,170.523 154.666,172.181 156.121 C 173.954 157.678,175.240 158.061,177.389 157.671 C 178.797 157.417,181.957 154.417,204.065 132.345 C 230.837 105.616,230.430 106.086,229.784 102.548 C 229.517 101.086,226.871 98.285,205.515 76.861 C 192.333 63.635,180.798 52.259,179.883 51.581 C 177.839 50.065,175.024 49.904,172.927 51.183 M30.009 82.375 C 28.536 82.816,26.585 84.854,26.228 86.326 C 26.105 86.836,26.057 115.189,26.122 149.333 L 26.240 211.413 27.371 213.826 C 28.706 216.674,31.266 219.295,34.051 220.667 L 36.053 221.653 114.931 221.763 C 193.467 221.873,193.814 221.870,195.205 221.010 C 198.811 218.781,198.757 213.278,195.106 210.886 C 194.021 210.175,189.679 210.127,116.499 210.025 C 44.383 209.925,39.003 209.868,38.507 209.197 C 38.086 208.629,37.973 195.642,37.973 147.652 C 37.972 90.587,37.926 86.736,37.226 85.364 C 35.875 82.714,32.939 81.498,30.009 82.375 " stroke="none" fill-rule="evenodd"></path></svg>