<svg fill="currentColor" viewBox="0 0 256 256" xmlns="http://www.w3.org/2000/svg"><path d="M41.894 43.547 C 38.718 45.134,36.180 47.896,35.001 51.047 C 34.154 53.309,34.133 54.218,34.133 88.475 C 34.133 109.980,34.309 125.391,34.585 128.246 C 36.141 144.281,40.204 158.882,46.795 172.124 C 49.837 178.235,50.727 179.759,54.667 185.600 C 59.638 192.968,63.100 197.122,69.960 203.947 C 83.971 217.886,100.905 228.685,120.533 236.196 C 127.936 239.029,130.686 238.601,144.401 232.480 C 154.724 227.873,166.716 220.508,176.000 213.074 C 181.617 208.576,191.129 199.160,195.133 194.133 C 198.122 190.382,203.805 182.152,205.756 178.752 C 214.251 163.942,219.638 146.567,221.415 128.246 C 221.691 125.391,221.867 109.980,221.867 88.475 C 221.867 54.218,221.846 53.309,220.999 51.047 C 219.820 47.896,217.282 45.134,214.106 43.547 L 211.490 42.240 128.000 42.240 L 44.510 42.240 41.894 43.547 M209.467 54.795 C 209.851 55.257,209.933 64.092,209.810 91.382 C 209.654 126.068,209.614 127.574,208.699 133.333 C 207.095 143.431,204.283 153.649,201.174 160.680 C 200.442 162.335,199.962 162.951,199.583 162.723 C 199.284 162.543,183.685 151.650,164.918 138.516 C 146.151 125.381,130.167 114.442,129.398 114.206 C 128.461 113.918,127.539 113.918,126.602 114.206 C 125.833 114.442,109.849 125.381,91.082 138.516 C 72.315 151.650,56.716 162.543,56.417 162.723 C 55.717 163.143,54.263 159.912,51.831 152.533 C 49.809 146.399,48.607 141.248,47.252 132.907 C 46.397 127.643,46.343 125.526,46.189 91.382 C 46.067 64.092,46.149 55.257,46.533 54.795 C 47.294 53.878,208.706 53.878,209.467 54.795 M161.359 150.660 C 179.502 163.358,194.406 173.801,194.479 173.868 C 194.717 174.086,188.238 183.437,185.520 186.801 C 181.769 191.442,172.883 200.231,168.107 204.025 C 157.284 212.622,144.069 220.188,132.160 224.604 L 128.000 226.147 123.840 224.604 C 99.760 215.674,77.429 198.209,63.919 177.741 L 61.407 173.936 63.450 172.508 C 64.574 171.723,79.413 161.309,96.427 149.365 C 113.440 137.422,127.587 127.632,127.865 127.611 C 128.143 127.590,143.215 137.962,161.359 150.660 " stroke="none" fill-rule="evenodd"></path></svg>