<svg fill="currentColor" viewBox="0 0 256 256" xmlns="http://www.w3.org/2000/svg"><path d="M45.279 34.863 C 43.051 35.960,42.163 37.714,42.351 40.646 L 42.509 43.105 40.703 44.163 C 38.269 45.589,36.028 48.301,34.990 51.075 C 34.158 53.300,34.133 54.363,34.133 88.475 C 34.133 109.980,34.309 125.391,34.585 128.246 C 36.153 144.403,40.154 158.782,46.795 172.124 C 49.837 178.235,50.727 179.759,54.667 185.600 C 59.638 192.968,63.100 197.122,69.960 203.947 C 83.971 217.886,100.905 228.685,120.533 236.196 C 126.485 238.474,129.512 238.474,135.467 236.198 C 153.607 229.265,169.597 219.378,183.564 206.459 C 185.900 204.298,187.938 202.721,188.092 202.956 C 189.227 204.677,204.605 220.982,205.463 221.373 C 210.652 223.737,216.135 217.701,213.069 213.000 C 212.628 212.323,176.109 172.008,131.917 123.410 C 73.909 59.618,51.202 34.922,50.254 34.591 C 48.424 33.954,46.962 34.033,45.279 34.863 M95.274 43.076 C 91.331 45.480,91.816 51.397,96.115 53.349 C 97.865 54.143,99.614 54.168,153.441 54.177 C 201.102 54.185,209.034 54.273,209.469 54.798 C 209.856 55.263,209.934 63.947,209.799 91.171 C 209.650 121.230,209.512 127.658,208.935 131.475 C 207.315 142.185,204.933 151.331,201.634 159.509 C 200.559 162.172,199.680 165.013,199.680 165.823 C 199.680 168.631,201.822 171.243,204.543 171.753 C 206.335 172.089,209.264 170.907,210.323 169.420 C 212.311 166.629,216.772 153.688,218.681 145.177 C 221.637 131.994,221.587 132.882,221.758 91.278 C 221.911 53.815,221.905 53.468,221.022 51.108 C 219.821 47.899,217.301 45.144,214.106 43.547 L 211.490 42.240 154.065 42.242 C 97.863 42.243,96.611 42.261,95.274 43.076 M116.185 123.920 L 179.581 193.653 175.714 197.333 C 163.713 208.754,147.462 218.929,132.160 224.604 L 128.000 226.147 123.840 224.606 C 121.552 223.759,116.947 221.754,113.607 220.151 C 79.413 203.740,55.981 175.371,48.904 141.815 C 46.368 129.793,46.374 129.909,46.196 91.167 C 46.071 64.108,46.154 55.252,46.534 54.793 C 46.878 54.379,47.948 54.187,49.914 54.187 L 52.789 54.187 116.185 123.920 " stroke="none" fill-rule="evenodd"></path></svg>