<svg fill="currentColor" viewBox="0 0 256 256" xmlns="http://www.w3.org/2000/svg"><path d="M41.894 43.547 C 38.718 45.134,36.180 47.896,35.001 51.047 C 34.154 53.310,34.133 54.211,34.138 88.656 C 34.143 125.941,34.285 129.435,36.241 140.180 C 39.867 160.100,48.029 177.988,60.859 194.133 C 65.007 199.353,75.376 209.510,81.076 213.938 C 93.343 223.467,106.155 230.694,120.533 236.196 C 126.487 238.474,129.513 238.474,135.467 236.196 C 155.095 228.685,172.029 217.886,186.040 203.947 C 192.900 197.122,196.362 192.968,201.333 185.600 C 205.211 179.850,206.144 178.262,208.999 172.550 C 215.716 159.112,219.853 144.350,221.415 128.246 C 221.691 125.391,221.867 109.980,221.867 88.475 C 221.867 54.218,221.846 53.309,220.999 51.047 C 219.820 47.896,217.282 45.134,214.106 43.547 L 211.490 42.240 128.000 42.240 L 44.510 42.240 41.894 43.547 M209.408 54.699 C 210.072 55.363,210.134 118.544,209.477 125.867 C 207.713 145.555,201.746 163.232,191.876 178.011 C 187.094 185.173,183.885 189.065,177.515 195.431 C 164.919 208.017,148.731 218.421,132.160 224.580 L 128.000 226.126 123.840 224.580 C 107.269 218.421,91.081 208.017,78.485 195.431 C 72.115 189.065,68.906 185.173,64.124 178.011 C 54.254 163.232,48.287 145.555,46.523 125.867 C 45.866 118.544,45.928 55.363,46.592 54.699 C 47.337 53.954,208.663 53.954,209.408 54.699 M125.143 90.861 C 122.201 92.655,122.263 92.266,122.027 110.552 L 121.813 127.063 106.453 120.906 C 98.005 117.520,90.297 114.545,89.324 114.295 C 87.822 113.910,87.256 113.973,85.574 114.717 C 83.953 115.434,83.434 115.953,82.717 117.574 C 81.603 120.092,81.917 122.012,83.759 123.963 C 84.897 125.168,87.772 126.459,101.333 131.856 C 110.251 135.405,117.709 138.464,117.906 138.655 C 118.104 138.846,113.958 144.740,108.692 151.753 C 103.427 158.766,98.875 164.958,98.577 165.514 C 97.752 167.057,98.230 170.469,99.459 171.802 C 100.593 173.033,102.743 174.080,104.135 174.080 C 106.743 174.080,107.882 172.877,117.839 159.607 C 123.224 152.431,127.796 146.560,128.000 146.560 C 128.204 146.560,132.776 152.431,138.161 159.607 C 148.118 172.877,149.257 174.080,151.865 174.080 C 153.257 174.080,155.407 173.033,156.541 171.802 C 157.770 170.469,158.248 167.057,157.423 165.514 C 157.125 164.958,152.573 158.766,147.308 151.753 C 142.042 144.740,137.896 138.846,138.094 138.655 C 138.291 138.464,145.749 135.398,154.667 131.840 C 165.170 127.649,171.290 124.983,172.043 124.269 C 174.559 121.884,174.612 118.320,172.167 115.876 C 169.317 113.026,169.347 113.019,150.728 120.450 L 134.187 127.051 133.973 110.546 C 133.780 95.573,133.689 93.932,132.990 92.867 C 131.226 90.175,127.732 89.283,125.143 90.861 " stroke="none" fill-rule="evenodd"></path></svg>