<svg fill="currentColor" viewBox="0 0 256 256" xmlns="http://www.w3.org/2000/svg"><path d="M215.464 34.532 C 212.639 35.391,210.374 37.383,196.267 51.415 L 181.120 66.480 117.081 77.403 C 81.859 83.411,52.099 88.646,50.947 89.036 C 47.923 90.062,43.919 94.150,42.874 97.280 C 41.353 101.837,42.112 106.574,44.983 110.446 C 45.791 111.535,68.881 134.820,96.293 162.190 C 143.125 208.949,146.275 212.004,148.480 212.805 C 152.220 214.165,154.088 214.329,157.090 213.564 C 162.266 212.245,166.111 208.599,167.451 203.742 C 167.776 202.564,172.882 173.088,178.798 138.240 L 189.554 74.880 203.910 60.480 L 218.266 46.080 233.520 46.080 C 249.963 46.080,250.501 46.016,252.541 43.802 C 253.894 42.335,254.243 39.085,253.253 37.172 C 252.864 36.419,251.931 35.427,251.179 34.969 C 249.883 34.179,248.960 34.138,233.173 34.172 C 224.021 34.191,216.052 34.353,215.464 34.532 M176.459 80.533 C 176.322 81.179,171.701 108.203,166.190 140.587 C 160.679 172.971,156.020 199.947,155.837 200.533 C 155.600 201.293,155.148 201.641,154.268 201.742 C 153.136 201.872,148.878 197.730,103.609 152.463 C 62.470 111.324,54.187 102.849,54.187 101.893 C 54.187 101.261,54.416 100.602,54.697 100.428 C 55.108 100.174,174.141 79.570,176.141 79.406 C 176.540 79.374,176.634 79.707,176.459 80.533 M47.458 163.231 C 41.390 166.255,40.159 174.155,45.002 178.998 C 49.845 183.841,57.745 182.610,60.769 176.542 C 65.098 167.855,56.145 158.902,47.458 163.231 M15.458 195.231 C 9.390 198.255,8.159 206.155,13.002 210.998 C 17.845 215.841,25.745 214.610,28.769 208.542 C 33.098 199.855,24.145 190.902,15.458 195.231 M79.458 195.231 C 73.390 198.255,72.159 206.155,77.002 210.998 C 81.845 215.841,89.745 214.610,92.769 208.542 C 97.098 199.855,88.145 190.902,79.458 195.231 M47.458 227.231 C 41.390 230.255,40.159 238.155,45.002 242.998 C 49.845 247.841,57.745 246.610,60.769 240.542 C 65.098 231.855,56.145 222.902,47.458 227.231 " stroke="none" fill-rule="evenodd"></path></svg>