<svg fill="currentColor" viewBox="0 0 256 256" xmlns="http://www.w3.org/2000/svg"><path d="M60.543 43.214 C 58.634 44.496,57.671 47.114,58.275 49.378 C 58.584 50.535,67.364 61.810,89.515 89.493 L 120.325 128.000 89.565 166.444 C 72.647 187.588,58.607 205.456,58.365 206.151 C 57.832 207.679,58.163 210.053,59.110 211.498 C 59.492 212.082,60.638 212.928,61.656 213.379 C 63.459 214.176,65.218 214.194,128.500 214.085 C 192.979 213.974,193.505 213.966,194.987 213.105 C 197.875 211.427,197.972 210.873,197.972 196.053 C 197.972 184.303,197.889 182.663,197.226 181.364 C 196.108 179.170,194.501 178.183,192.052 178.183 C 189.640 178.183,188.078 179.042,186.861 181.037 C 186.100 182.285,186.030 183.240,186.028 192.320 L 186.027 202.240 131.413 202.240 C 101.376 202.240,76.800 202.096,76.800 201.920 C 76.800 201.744,89.396 185.856,104.790 166.613 C 120.185 147.371,133.049 131.108,133.377 130.475 C 134.212 128.861,134.117 126.747,133.136 125.138 C 132.677 124.385,119.977 108.353,104.915 89.511 C 89.852 70.669,77.341 55.013,77.112 54.720 C 76.779 54.294,87.691 54.187,131.361 54.187 L 186.027 54.187 186.027 63.937 C 186.027 73.363,186.059 73.735,186.995 75.137 C 189.645 79.103,195.084 78.837,197.226 74.636 C 197.888 73.337,197.972 71.700,197.973 60.040 C 197.973 45.455,197.846 44.637,195.332 43.104 C 193.932 42.250,193.365 42.243,127.956 42.242 L 61.993 42.240 60.543 43.214 " stroke="none" fill-rule="evenodd"></path></svg>