<svg fill="currentColor" viewBox="0 0 256 256" xmlns="http://www.w3.org/2000/svg"><path d="M43.419 34.779 C 39.485 36.224,36.414 39.234,34.955 43.073 C 34.154 45.181,34.133 47.323,34.133 127.989 L 34.133 210.741 35.052 213.197 C 36.296 216.522,39.487 219.707,42.825 220.956 C 45.295 221.880,45.395 221.883,75.957 221.768 L 106.611 221.653 107.928 220.391 C 110.751 217.686,110.624 213.589,107.646 211.318 L 106.094 210.133 76.650 210.015 C 56.096 209.933,47.037 209.756,46.643 209.430 C 45.852 208.773,45.801 47.383,46.592 46.592 C 46.980 46.204,54.126 46.080,76.139 46.079 C 102.938 46.079,105.286 46.021,106.636 45.333 C 110.837 43.191,111.103 37.752,107.137 35.102 L 105.687 34.133 75.350 34.163 C 50.749 34.188,44.712 34.304,43.419 34.779 M172.927 83.183 C 170.559 84.627,169.495 88.183,170.711 90.588 C 170.971 91.101,178.026 98.384,186.389 106.773 L 201.596 122.027 152.194 122.027 C 104.454 122.027,102.739 122.054,101.210 122.839 C 97.059 124.970,97.113 131.302,101.298 133.288 C 102.599 133.905,107.662 133.973,152.163 133.973 L 201.585 133.973 185.943 149.653 C 172.322 163.308,170.263 165.540,170.010 166.931 C 169.619 169.079,170.001 170.365,171.559 172.139 C 173.014 173.797,174.852 174.346,177.387 173.882 C 178.789 173.625,181.487 171.098,199.193 153.461 C 210.307 142.391,219.955 132.585,220.633 131.669 C 222.353 129.349,222.352 126.647,220.630 124.331 C 219.159 122.352,180.738 84.053,179.212 83.044 C 177.759 82.084,174.616 82.153,172.927 83.183 " stroke="none" fill-rule="evenodd"></path></svg>