<svg fill="currentColor" viewBox="0 0 256 256" xmlns="http://www.w3.org/2000/svg"><path d="M69.217 34.658 C 67.606 35.435,10.957 100.441,10.343 102.217 C 9.167 105.618,6.320 102.347,67.651 168.057 C 117.369 221.324,124.839 229.161,126.312 229.603 C 130.133 230.747,126.108 234.737,187.635 168.823 C 218.581 135.671,244.334 107.959,244.865 107.241 C 246.011 105.691,246.182 102.449,245.194 100.993 C 243.668 98.742,188.461 35.958,187.247 35.093 L 185.900 34.133 128.044 34.162 C 87.043 34.183,69.904 34.327,69.217 34.658 M115.556 46.449 C 115.477 46.652,106.773 58.356,96.213 72.458 L 77.013 98.097 53.201 98.115 C 34.258 98.130,29.457 98.024,29.717 97.600 C 29.898 97.307,40.088 85.595,52.362 71.573 L 74.680 46.080 95.189 46.080 C 106.557 46.080,115.634 46.245,115.556 46.449 M203.638 71.573 C 215.912 85.595,226.102 97.307,226.283 97.600 C 226.543 98.024,221.742 98.130,202.799 98.115 L 178.987 98.097 159.787 72.458 C 149.227 58.356,140.523 46.652,140.444 46.449 C 140.366 46.245,149.443 46.080,160.811 46.080 L 181.320 46.080 203.638 71.573 M146.137 74.240 L 163.893 97.920 145.947 98.031 C 136.076 98.093,119.925 98.093,110.055 98.031 L 92.109 97.920 109.946 74.133 C 119.756 61.050,127.917 50.394,128.082 50.453 C 128.246 50.512,136.371 61.216,146.137 74.240 M93.076 152.904 C 102.450 176.340,110.063 195.572,109.993 195.641 C 109.848 195.786,30.581 110.956,30.363 110.423 C 30.284 110.230,40.528 110.122,53.126 110.183 L 76.033 110.293 93.076 152.904 M166.827 110.399 C 166.827 110.956,128.223 207.348,128.000 207.348 C 127.777 207.348,89.173 110.956,89.173 110.399 C 89.173 110.224,106.645 110.080,128.000 110.080 C 149.355 110.080,166.827 110.224,166.827 110.399 M225.636 110.427 C 225.418 110.958,146.151 195.785,146.007 195.641 C 145.937 195.572,153.398 176.724,162.587 153.758 C 171.775 130.791,179.460 111.568,179.663 111.040 L 180.032 110.080 202.905 110.080 C 215.485 110.080,225.714 110.236,225.636 110.427 " stroke="none" fill-rule="evenodd"></path></svg>