<svg fill="currentColor" viewBox="0 0 256 256" xmlns="http://www.w3.org/2000/svg"><path d="M60.160 34.532 C 56.350 35.696,52.967 38.621,51.248 42.240 L 50.133 44.587 50.133 128.000 L 50.133 211.413 51.248 213.760 C 53.542 218.589,57.800 221.451,63.171 221.773 C 65.899 221.937,66.787 221.806,68.931 220.923 C 70.326 220.349,98.972 202.663,132.590 181.620 C 166.208 160.577,193.808 143.360,193.924 143.360 C 194.039 143.360,194.134 160.112,194.135 180.587 C 194.136 216.756,194.160 217.852,194.969 219.179 C 197.424 223.206,203.597 222.600,205.495 218.147 C 205.984 216.999,206.080 202.237,206.079 127.907 C 206.079 44.153,206.036 38.955,205.333 37.555 C 203.752 34.409,199.739 33.190,196.821 34.969 C 193.988 36.697,194.133 34.502,194.133 75.499 C 194.133 95.926,194.024 112.640,193.891 112.640 C 193.758 112.640,165.966 95.320,132.131 74.150 C 98.296 52.981,69.653 35.324,68.480 34.911 C 66.296 34.143,62.065 33.951,60.160 34.532 M129.131 86.439 C 164.614 108.637,193.749 127.069,193.876 127.399 C 194.003 127.730,193.998 128.284,193.865 128.630 C 193.556 129.435,65.471 209.575,64.064 209.844 C 61.743 210.288,61.867 214.915,61.867 127.949 C 61.867 55.311,61.932 47.355,62.537 46.750 C 62.906 46.382,63.524 46.080,63.912 46.080 C 64.299 46.080,93.648 64.242,129.131 86.439 " stroke="none" fill-rule="evenodd"></path></svg>