<svg fill="currentColor" viewBox="0 0 256 256" xmlns="http://www.w3.org/2000/svg"><path d="M98.773 26.487 C 83.065 29.140,71.730 44.952,74.410 60.472 C 75.159 64.810,76.625 68.857,78.539 71.876 C 79.225 72.958,79.787 73.932,79.787 74.041 C 79.787 74.151,73.395 74.240,65.583 74.240 C 49.617 74.240,48.647 74.367,42.880 77.213 C 35.208 80.999,30.097 86.861,27.428 94.933 C 26.447 97.899,26.297 99.074,26.279 103.893 C 26.257 109.950,26.775 112.400,29.060 117.047 C 30.760 120.503,31.711 121.811,34.921 125.108 L 37.714 127.976 34.717 131.082 C 28.508 137.515,25.643 145.071,26.136 153.717 C 26.962 168.230,37.770 179.746,52.450 181.756 C 56.199 182.269,59.233 182.072,63.335 181.047 C 66.189 180.335,70.649 178.409,72.503 177.088 L 73.735 176.211 73.920 190.399 C 74.129 206.453,74.219 207.044,77.472 213.676 C 82.036 222.978,91.548 229.197,102.213 229.852 C 111.030 230.393,118.589 227.502,125.120 221.090 L 128.000 218.263 130.880 221.090 C 137.411 227.502,144.970 230.393,153.787 229.852 C 161.386 229.386,167.675 226.511,173.276 220.944 C 175.919 218.317,176.951 216.890,178.523 213.690 C 181.071 208.501,181.899 205.160,181.888 200.107 C 181.875 194.149,179.963 187.535,177.088 183.497 L 176.211 182.265 190.399 182.080 C 206.453 181.871,207.044 181.781,213.676 178.528 C 220.622 175.120,225.995 168.820,228.568 161.067 C 229.554 158.096,229.703 156.934,229.721 152.107 C 229.743 146.050,229.225 143.600,226.940 138.953 C 225.240 135.497,224.289 134.189,221.079 130.892 L 218.286 128.024 221.283 124.918 C 227.492 118.485,230.357 110.929,229.864 102.283 C 229.127 89.329,220.307 78.560,207.575 75.067 C 204.704 74.279,203.429 74.173,198.853 74.341 C 192.721 74.565,189.365 75.480,185.019 78.109 L 182.400 79.693 182.146 65.553 C 181.858 49.588,181.751 48.894,178.546 42.362 C 169.847 24.627,145.854 20.602,131.363 34.447 L 128.000 37.660 124.637 34.447 C 117.724 27.842,108.165 24.900,98.773 26.487 M107.606 38.453 C 114.543 39.927,120.073 45.457,121.547 52.394 C 121.823 53.694,122.027 58.817,122.027 64.448 L 122.027 74.240 113.387 74.232 C 108.635 74.227,103.403 74.033,101.760 73.800 C 95.688 72.941,90.528 69.203,87.820 63.702 C 86.470 60.961,86.400 60.584,86.400 56.094 C 86.400 51.491,86.441 51.285,88.007 48.118 C 91.722 40.600,99.546 36.742,107.606 38.453 M156.390 38.636 C 161.603 39.993,165.591 43.258,168.007 48.145 L 169.600 51.369 169.600 79.978 L 169.600 108.587 168.241 111.455 C 166.618 114.881,163.776 118.048,160.938 119.593 C 157.083 121.691,154.735 122.027,143.910 122.027 L 133.973 122.027 133.973 88.341 C 133.973 65.008,134.121 53.960,134.453 52.394 C 136.577 42.394,146.624 36.092,156.390 38.636 M111.856 87.993 C 116.742 90.409,120.007 94.398,121.364 99.610 C 121.871 101.556,122.027 104.486,122.027 112.090 L 122.027 122.027 87.983 122.027 C 51.033 122.027,51.122 122.032,47.078 119.662 C 40.825 115.998,37.024 107.977,38.296 101.132 C 39.575 94.255,43.878 89.276,50.554 86.948 C 52.518 86.263,54.983 86.210,80.663 86.301 L 108.632 86.400 111.856 87.993 M207.908 88.019 C 213.153 90.612,216.603 95.214,217.692 101.073 C 218.977 107.980,215.201 115.983,208.922 119.662 C 205.517 121.657,202.892 122.027,192.124 122.027 L 182.187 122.027 182.187 111.437 C 182.187 99.307,182.415 98.018,185.313 93.784 C 187.353 90.802,191.201 87.885,194.468 86.841 C 195.823 86.409,197.820 86.236,200.581 86.312 C 204.342 86.416,204.950 86.558,207.908 88.019 M73.813 144.563 C 73.813 156.693,73.585 157.982,70.687 162.216 C 62.989 173.465,45.904 172.111,39.868 159.773 C 34.898 149.615,40.734 137.332,51.840 134.575 C 53.205 134.237,57.547 134.033,63.893 134.010 L 73.813 133.973 73.813 144.563 M122.027 167.659 C 122.027 190.992,121.879 202.040,121.547 203.606 C 119.552 212.998,110.502 219.295,101.270 217.714 C 95.183 216.671,90.407 213.045,87.759 207.455 L 86.400 204.587 86.400 175.978 L 86.400 147.369 88.007 144.118 C 89.716 140.660,92.600 137.623,95.658 136.063 C 99.083 134.316,101.332 134.031,111.893 134.001 L 122.027 133.973 122.027 167.659 M203.606 134.453 C 208.836 135.564,213.558 139.161,215.914 143.828 C 220.968 153.840,216.036 165.563,205.227 169.230 C 203.034 169.974,201.115 170.027,176.000 170.027 C 149.214 170.027,149.110 170.023,146.347 169.065 C 141.388 167.345,137.159 163.274,135.157 158.293 C 134.287 156.127,134.203 155.102,134.062 144.960 L 133.910 133.973 167.627 133.973 C 190.984 133.973,202.039 134.121,203.606 134.453 M159.703 183.820 C 163.371 185.626,166.375 188.630,168.180 192.298 C 169.528 195.037,169.600 195.419,169.600 199.884 C 169.600 204.285,169.513 204.771,168.241 207.455 C 165.593 213.045,160.817 216.671,154.730 217.714 C 145.498 219.295,136.448 212.998,134.453 203.606 C 134.179 202.313,133.973 197.232,133.973 191.740 L 133.973 182.136 145.398 182.268 L 156.822 182.400 159.703 183.820 " stroke="none" fill-rule="evenodd"></path></svg>