<svg fill="currentColor" viewBox="0 0 256 256" xmlns="http://www.w3.org/2000/svg"><path d="M100.053 50.196 C 92.139 51.468,84.202 56.147,80.070 61.978 C 77.713 65.305,76.488 67.709,75.345 71.253 L 74.451 74.027 56.165 74.138 C 38.455 74.246,37.840 74.277,36.640 75.132 C 33.194 77.585,33.368 82.840,36.974 85.203 C 38.051 85.910,39.649 85.984,56.382 86.097 L 74.616 86.221 75.319 88.639 C 78.146 98.363,86.312 106.269,96.427 109.073 C 100.765 110.276,108.465 110.103,112.711 108.708 C 117.830 107.026,121.414 104.806,125.261 100.934 C 128.942 97.229,131.596 92.763,132.717 88.388 L 133.277 86.203 175.564 86.088 C 215.494 85.980,217.917 85.930,219.026 85.203 C 222.634 82.839,222.806 77.585,219.357 75.129 C 218.122 74.250,217.847 74.243,175.790 74.135 L 133.466 74.027 132.516 71.030 C 130.914 65.976,128.970 62.822,125.021 58.867 C 119.346 53.185,113.244 50.507,105.173 50.157 C 103.061 50.066,100.757 50.083,100.053 50.196 M109.013 62.802 C 117.135 64.812,123.160 74.181,121.724 82.567 C 120.370 90.473,114.512 96.398,106.695 97.770 C 99.159 99.093,91.189 94.803,87.769 87.584 C 86.486 84.875,86.400 84.398,86.400 80.000 C 86.400 75.607,86.487 75.123,87.762 72.431 C 91.551 64.432,100.047 60.583,109.013 62.802 M164.053 146.196 C 156.139 147.468,148.202 152.147,144.070 157.978 C 141.713 161.305,140.488 163.709,139.345 167.253 L 138.451 170.027 88.169 170.135 C 38.053 170.243,37.883 170.246,36.644 171.129 C 33.194 173.585,33.366 178.839,36.974 181.203 C 38.087 181.933,40.792 181.979,88.379 182.087 L 138.610 182.200 139.316 184.629 C 142.146 194.364,150.307 202.267,160.427 205.073 C 164.765 206.276,172.465 206.103,176.711 204.708 C 181.830 203.026,185.414 200.806,189.261 196.934 C 192.937 193.234,195.596 188.764,196.712 184.407 L 197.268 182.240 207.561 182.107 C 216.622 181.989,217.994 181.881,219.027 181.203 C 222.630 178.840,222.806 173.585,219.365 171.135 C 218.212 170.314,217.446 170.248,207.798 170.141 L 197.466 170.027 196.516 167.030 C 194.914 161.977,192.970 158.822,189.021 154.867 C 183.346 149.185,177.244 146.507,169.173 146.157 C 167.061 146.066,164.757 146.083,164.053 146.196 M173.013 158.802 C 181.135 160.812,187.160 170.181,185.724 178.567 C 184.370 186.473,178.512 192.398,170.695 193.770 C 163.159 195.093,155.189 190.803,151.769 183.584 C 150.486 180.875,150.400 180.398,150.400 176.000 C 150.400 171.607,150.487 171.123,151.762 168.431 C 155.551 160.432,164.047 156.583,173.013 158.802 " stroke="none" fill-rule="evenodd"></path></svg>