<svg fill="currentColor" viewBox="0 0 256 256" xmlns="http://www.w3.org/2000/svg"><path d="M120.747 26.275 C 119.925 26.371,117.429 26.657,115.200 26.911 C 97.087 28.974,78.488 36.924,63.688 48.928 C 59.118 52.635,51.837 59.914,48.399 64.213 C 33.997 82.223,26.027 104.946,26.027 128.000 C 26.027 160.313,41.247 190.513,67.313 209.917 C 80.785 219.946,95.439 226.020,113.280 228.971 C 119.895 230.065,136.063 230.069,142.720 228.978 C 167.013 224.997,187.139 214.259,203.399 196.604 C 216.819 182.033,225.565 163.607,228.975 142.720 C 230.058 136.090,230.063 120.352,228.985 113.526 C 224.265 83.633,208.329 58.913,183.040 42.254 C 177.765 38.779,167.473 33.766,161.280 31.655 C 155.481 29.679,148.709 28.035,142.507 27.099 C 138.223 26.452,123.882 25.910,120.747 26.275 M135.893 38.406 C 157.181 40.367,176.604 49.439,191.583 64.417 C 214.095 86.930,223.023 119.642,215.057 150.423 C 206.452 183.673,179.597 209.228,146.031 216.109 C 109.820 223.532,73.053 208.220,52.793 177.280 C 38.454 155.382,34.420 129.001,41.473 103.253 C 45.847 87.286,56.674 70.443,69.499 59.655 C 88.315 43.828,112.102 36.215,135.893 38.406 M87.599 99.173 C 79.404 102.988,80.558 114.998,89.366 117.559 C 98.678 120.266,105.882 108.970,99.557 101.581 C 96.582 98.106,91.911 97.165,87.599 99.173 M159.671 99.036 C 153.787 101.949,152.186 109.656,156.479 114.408 C 159.342 117.576,162.841 118.662,166.634 117.559 C 173.506 115.561,176.137 107.825,171.922 102.008 C 169.339 98.442,163.657 97.063,159.671 99.036 M94.097 146.371 C 92.706 146.786,75.895 163.238,74.851 165.205 C 73.429 167.885,74.598 171.654,77.282 173.042 C 78.869 173.863,81.439 173.934,82.857 173.197 C 83.398 172.916,86.573 169.987,89.914 166.688 L 95.989 160.689 102.299 166.912 C 111.879 176.360,112.102 176.360,121.707 166.899 L 128.000 160.700 134.305 166.918 C 143.879 176.359,144.103 176.359,153.707 166.899 L 160.001 160.699 166.527 167.141 C 173.489 174.013,174.337 174.527,177.674 173.901 C 179.403 173.577,181.544 171.340,181.966 169.418 C 182.613 166.476,182.126 165.792,172.436 156.041 C 159.664 143.189,160.314 143.274,150.409 153.165 L 143.990 159.574 137.595 153.164 C 132.674 148.231,130.831 146.654,129.600 146.320 C 126.506 145.483,125.384 146.169,118.405 153.164 L 112.010 159.574 105.599 153.173 C 98.395 145.979,97.392 145.387,94.097 146.371 " stroke="none" fill-rule="evenodd"></path></svg>