<svg fill="currentColor" viewBox="0 0 256 256" xmlns="http://www.w3.org/2000/svg"><path d="M100.756 18.356 C 99.734 18.569,98.102 19.217,97.129 19.796 C 96.156 20.375,80.168 36.077,61.599 54.691 C 23.791 92.590,26.240 89.715,26.240 96.213 C 26.240 102.636,21.917 97.997,83.512 157.684 C 113.693 186.930,139.074 211.312,139.913 211.866 C 143.541 214.260,142.420 214.215,194.828 214.089 L 243.005 213.973 245.853 212.571 C 249.273 210.888,251.778 208.217,252.999 204.953 C 253.750 202.946,253.867 201.631,253.867 195.166 C 253.867 190.008,253.657 186.680,253.189 184.409 C 250.266 170.222,239.472 158.878,225.493 155.300 C 223.616 154.819,219.392 154.248,216.107 154.030 C 212.480 153.790,208.885 153.283,206.956 152.739 C 196.002 149.652,187.685 141.741,183.740 130.658 L 182.414 126.933 182.167 109.867 C 181.886 90.486,181.870 90.385,178.460 86.592 C 175.759 83.588,173.298 82.456,167.790 81.682 C 161.892 80.854,158.921 80.153,154.417 78.522 C 142.550 74.228,133.312 65.294,129.062 54.002 C 127.567 50.030,126.805 46.570,126.267 41.316 C 125.570 34.506,124.845 33.247,117.397 25.917 C 112.217 20.819,110.783 19.643,109.021 19.048 C 106.299 18.130,103.114 17.863,100.756 18.356 M109.327 34.880 L 113.894 39.467 114.346 43.520 C 117.392 70.792,136.558 89.641,165.118 93.452 C 167.112 93.718,168.984 94.136,169.278 94.380 C 169.678 94.712,169.813 97.231,169.813 104.344 L 169.813 113.863 159.859 113.998 L 149.905 114.133 148.353 115.318 C 145.377 117.590,145.249 121.686,148.071 124.391 L 149.388 125.653 159.811 125.781 L 170.234 125.909 170.487 127.061 C 172.073 134.306,173.953 139.426,176.548 143.573 L 177.883 145.707 167.961 145.920 C 157.007 146.156,156.552 146.264,154.861 149.037 C 153.268 151.649,154.173 155.390,156.789 157.007 C 158.119 157.828,158.884 157.867,174.017 157.867 L 189.854 157.867 191.936 159.148 C 198.586 163.239,205.749 165.374,214.827 165.968 C 218.112 166.183,221.856 166.678,223.147 167.068 C 228.652 168.730,233.483 172.047,236.655 176.345 C 240.654 181.764,241.901 186.206,241.913 195.069 C 241.920 200.627,241.874 200.944,240.972 201.576 C 240.127 202.168,234.969 202.237,193.718 202.210 C 168.251 202.194,147.107 202.050,146.732 201.890 C 146.357 201.731,121.722 178.014,91.987 149.186 C 54.530 112.871,37.965 96.541,38.056 96.019 C 38.128 95.605,52.692 80.648,70.420 62.780 C 95.790 37.210,102.877 30.293,103.707 30.293 C 104.480 30.293,105.981 31.518,109.327 34.880 M28.543 171.214 C 24.477 173.945,25.699 180.373,30.540 181.717 C 32.820 182.350,63.180 182.350,65.460 181.717 C 70.301 180.373,71.523 173.945,67.457 171.214 L 66.007 170.240 48.000 170.240 L 29.993 170.240 28.543 171.214 M44.181 203.559 C 40.576 206.724,41.875 212.480,46.482 213.760 C 48.651 214.363,95.277 214.323,97.460 213.717 C 102.301 212.373,103.523 205.945,99.457 203.214 L 98.007 202.240 71.845 202.240 L 45.683 202.240 44.181 203.559 " stroke="none" fill-rule="evenodd"></path></svg>