<svg fill="currentColor" viewBox="0 0 256 256" xmlns="http://www.w3.org/2000/svg"><path d="M101.724 34.740 C 99.198 35.840,97.662 38.991,98.329 41.704 C 98.517 42.468,102.714 46.990,110.322 54.623 L 122.027 66.367 122.027 91.896 C 122.027 113.491,121.935 117.390,121.435 117.197 C 120.754 116.936,78.447 92.595,77.995 92.205 C 77.831 92.063,75.852 85.035,73.598 76.587 C 69.524 61.323,69.488 61.217,67.833 59.627 C 66.393 58.244,65.896 58.027,64.174 58.027 C 60.674 58.027,58.027 60.442,58.027 63.634 C 58.027 64.670,63.998 88.057,65.055 91.162 C 65.167 91.489,60.637 92.774,51.705 94.948 C 44.270 96.759,37.650 98.513,36.994 98.847 C 35.238 99.742,34.137 101.828,34.135 104.264 C 34.134 106.100,34.321 106.528,35.754 107.961 C 36.736 108.943,37.956 109.689,38.848 109.853 C 39.934 110.052,44.426 109.115,55.992 106.274 L 71.664 102.425 93.642 115.106 C 105.730 122.080,115.621 127.889,115.623 128.013 C 115.625 128.138,105.744 133.949,93.666 140.926 L 71.705 153.611 55.828 149.721 C 38.231 145.410,38.165 145.404,35.645 148.034 C 33.173 150.614,33.909 155.582,36.994 157.152 C 37.650 157.485,44.267 159.249,51.698 161.070 C 60.222 163.160,65.151 164.558,65.052 164.858 C 64.011 168.020,58.027 191.385,58.028 192.284 C 58.029 192.949,58.411 194.119,58.878 194.884 C 60.983 198.337,65.348 198.970,68.073 196.219 C 69.414 194.864,69.763 193.807,73.616 179.413 C 75.877 170.965,77.759 164.028,77.797 163.996 C 78.216 163.652,121.604 138.667,121.783 138.667 C 121.917 138.667,122.027 150.134,122.027 164.150 L 122.027 189.633 110.322 201.377 C 102.714 209.010,98.517 213.532,98.329 214.296 C 97.283 218.547,101.454 222.718,105.704 221.671 C 106.462 221.484,110.633 217.642,117.440 210.862 L 128.000 200.342 138.773 211.072 C 150.877 223.127,151.007 223.212,154.627 221.459 C 156.069 220.761,156.761 220.069,157.459 218.627 C 159.230 214.970,159.247 214.996,145.888 201.590 L 133.973 189.634 133.973 164.150 C 133.973 150.134,134.083 138.667,134.217 138.667 C 134.397 138.667,177.804 163.663,178.202 163.996 C 178.240 164.028,180.098 170.835,182.333 179.123 C 184.567 187.412,186.706 194.669,187.087 195.250 C 189.626 199.125,195.172 198.707,197.374 194.475 C 197.704 193.841,197.973 192.796,197.973 192.153 C 197.973 191.275,191.901 167.665,190.956 164.867 C 190.858 164.578,195.943 163.135,204.306 161.078 C 211.735 159.250,218.350 157.483,219.006 157.150 C 222.091 155.585,222.827 150.614,220.355 148.034 C 217.835 145.404,217.769 145.410,200.175 149.720 L 184.303 153.609 162.338 140.924 C 150.257 133.947,140.375 128.137,140.377 128.012 C 140.379 127.888,150.270 122.080,162.358 115.106 L 184.336 102.425 200.008 106.274 C 211.254 109.036,216.081 110.049,217.101 109.862 C 217.883 109.719,219.208 108.973,220.047 108.205 C 221.366 106.996,221.595 106.496,221.743 104.497 C 221.941 101.824,220.987 99.856,219.006 98.849 C 218.350 98.515,211.737 96.764,204.309 94.958 L 190.805 91.673 191.165 90.317 C 191.363 89.570,192.976 83.553,194.749 76.944 C 196.522 70.336,197.973 64.426,197.973 63.811 C 197.973 58.226,190.316 55.857,187.101 60.447 C 186.779 60.906,184.664 68.182,182.400 76.615 C 180.137 85.047,178.155 92.060,177.996 92.199 C 177.454 92.671,134.531 117.333,134.251 117.333 C 134.098 117.333,133.973 105.866,133.973 91.850 L 133.973 66.367 145.678 54.623 C 153.286 46.990,157.483 42.468,157.671 41.704 C 158.698 37.529,154.937 33.559,150.692 34.337 C 149.356 34.582,147.532 36.206,138.556 45.145 L 127.992 55.665 117.649 45.346 C 111.961 39.671,106.766 34.826,106.106 34.580 C 104.532 33.995,103.335 34.038,101.724 34.740 " stroke="none" fill-rule="evenodd"></path></svg>