<svg fill="currentColor" viewBox="0 0 256 256" xmlns="http://www.w3.org/2000/svg"><path d="M45.227 58.774 C 44.227 59.273,43.407 60.178,42.747 61.508 C 41.900 63.215,41.823 63.729,42.203 65.135 C 42.446 66.036,42.963 67.226,43.352 67.778 C 44.969 70.080,41.431 69.973,116.082 69.973 C 192.763 69.973,187.168 70.185,189.007 67.211 C 190.060 65.506,190.130 62.657,189.158 61.013 C 188.769 60.353,187.735 59.412,186.860 58.920 L 185.270 58.027 115.995 58.027 C 50.897 58.028,46.630 58.073,45.227 58.774 M180.787 106.998 C 180.134 107.402,179.222 108.514,178.760 109.468 C 177.942 111.157,177.920 112.294,177.920 152.340 L 177.920 193.478 162.453 178.049 C 149.097 164.727,146.772 162.582,145.414 162.335 C 140.603 161.459,136.763 166.359,138.837 170.728 C 139.223 171.542,148.655 181.295,160.112 192.726 C 182.392 214.957,182.115 214.728,185.613 213.759 C 187.830 213.146,229.336 171.496,229.760 169.460 C 230.713 164.881,227.173 161.453,222.400 162.334 C 221.009 162.590,218.783 164.640,205.333 178.048 L 189.867 193.467 189.867 151.966 C 189.867 106.511,190.007 109.016,187.354 107.127 C 185.789 106.012,182.482 105.947,180.787 106.998 M45.227 122.774 C 44.227 123.273,43.407 124.178,42.747 125.508 C 41.900 127.215,41.823 127.729,42.203 129.135 C 42.446 130.036,42.963 131.226,43.352 131.778 C 44.928 134.021,44.049 133.973,84.082 133.973 C 125.266 133.973,123.214 134.112,125.007 131.211 C 126.060 129.506,126.130 126.657,125.158 125.013 C 124.769 124.353,123.735 123.412,122.860 122.920 C 121.280 122.032,121.040 122.027,83.995 122.027 C 49.362 122.028,46.614 122.081,45.227 122.774 M45.227 186.774 C 44.227 187.273,43.407 188.178,42.747 189.508 C 41.900 191.215,41.823 191.729,42.203 193.135 C 42.446 194.036,42.963 195.226,43.352 195.778 C 44.904 197.987,44.697 197.973,76.040 197.973 C 102.933 197.972,105.286 197.915,106.636 197.226 C 108.836 196.104,109.867 194.437,109.867 192.000 C 109.867 189.563,108.836 187.896,106.636 186.774 C 105.286 186.085,102.929 186.028,75.947 186.028 C 48.975 186.028,46.605 186.086,45.227 186.774 " stroke="none" fill-rule="evenodd"></path></svg>