<svg fill="currentColor" viewBox="0 0 256 256" xmlns="http://www.w3.org/2000/svg"><path d="M123.450 19.683 C 99.653 32.236,73.233 51.901,57.771 68.570 C 36.994 90.970,27.107 111.160,26.161 133.120 C 25.677 144.369,28.167 154.552,33.606 163.560 C 40.467 174.925,50.433 182.943,62.860 187.097 C 68.712 189.053,73.747 189.867,80.000 189.867 C 86.194 189.867,91.279 189.055,96.960 187.158 C 99.248 186.395,101.120 185.832,101.120 185.907 C 101.120 185.983,98.624 194.360,95.573 204.522 C 92.523 214.684,90.027 223.522,90.027 224.161 C 90.027 225.629,90.902 227.324,92.367 228.693 L 93.508 229.760 127.501 229.869 C 160.828 229.977,161.521 229.962,162.884 229.127 C 164.597 228.077,165.970 225.907,165.972 224.246 C 165.973 223.560,163.477 214.684,160.427 204.522 C 157.376 194.360,154.880 185.975,154.880 185.890 C 154.880 185.804,156.657 186.353,158.828 187.110 C 166.557 189.803,176.851 190.627,185.011 189.207 C 205.185 185.696,221.827 171.073,227.577 151.806 C 229.479 145.431,229.749 143.433,229.750 135.680 C 229.752 127.902,229.392 124.930,227.555 117.547 C 220.513 89.256,195.015 59.553,155.155 33.207 C 143.008 25.179,130.114 17.920,128.000 17.920 C 127.336 17.920,125.288 18.714,123.450 19.683 M133.639 33.988 C 168.995 54.371,196.701 79.918,209.222 103.680 C 215.450 115.500,218.660 128.681,217.833 139.035 C 216.485 155.904,205.410 170.301,189.633 175.697 C 181.886 178.346,172.377 178.634,164.907 176.445 C 159.738 174.931,154.103 172.109,150.002 168.981 C 146.849 166.577,146.463 166.400,144.363 166.400 C 142.453 166.400,141.881 166.601,140.607 167.719 C 137.552 170.402,137.429 169.632,144.854 194.415 C 148.498 206.580,151.586 216.869,151.715 217.280 C 151.938 217.985,150.616 218.027,128.000 218.027 C 105.384 218.027,104.062 217.985,104.285 217.280 C 104.414 216.869,107.487 206.631,111.112 194.529 C 118.500 169.868,118.397 170.501,115.442 167.787 C 114.136 166.587,113.628 166.400,111.672 166.400 C 109.553 166.400,109.173 166.577,105.586 169.237 C 98.152 174.750,90.682 177.427,81.691 177.802 C 75.727 178.051,71.588 177.482,66.367 175.697 C 50.606 170.307,39.514 155.886,38.167 139.035 C 37.833 134.849,38.522 127.207,39.683 122.226 C 42.345 110.809,49.136 97.678,58.216 86.389 C 72.397 68.758,94.402 50.515,119.040 35.964 C 122.208 34.093,125.472 32.164,126.293 31.676 C 127.115 31.189,127.828 30.775,127.879 30.755 C 127.930 30.736,130.522 32.190,133.639 33.988 " stroke="none" fill-rule="evenodd"></path></svg>