<svg fill="currentColor" viewBox="0 0 256 256" xmlns="http://www.w3.org/2000/svg"><path d="M149.813 26.486 C 149.256 26.709,139.435 34.177,127.989 43.080 C 108.521 58.224,107.131 59.393,106.438 61.207 C 105.738 63.042,105.737 63.250,106.429 65.061 C 107.542 67.978,110.212 69.510,113.201 68.950 C 114.171 68.768,119.462 64.915,130.158 56.601 L 145.707 44.517 145.920 76.627 C 146.130 108.225,146.147 108.757,147.013 109.916 C 148.436 111.822,149.903 112.690,151.742 112.715 C 153.939 112.745,155.977 111.681,157.031 109.953 C 157.841 108.624,157.864 107.513,157.865 69.384 C 157.867 30.822,157.853 30.158,157.007 28.789 C 155.573 26.469,152.397 25.452,149.813 26.486 M45.832 34.973 C 44.563 35.487,42.788 37.732,42.456 39.242 C 41.854 41.981,42.668 43.037,60.500 62.659 L 77.810 81.707 53.295 81.920 L 28.780 82.133 25.947 83.529 C 22.700 85.127,20.827 87.057,19.243 90.434 L 18.133 92.800 18.133 128.000 L 18.133 163.200 19.243 165.566 C 20.827 168.943,22.701 170.873,25.947 172.471 L 28.781 173.867 53.432 173.987 L 78.084 174.107 113.629 201.750 C 133.179 216.955,149.514 229.525,149.929 229.684 C 152.141 230.533,155.542 229.456,156.882 227.483 C 157.601 226.423,157.668 224.445,157.867 198.187 L 158.080 170.027 181.422 195.711 C 206.770 223.602,205.436 222.360,209.370 221.721 C 212.496 221.214,214.620 217.713,213.739 214.523 C 213.406 213.316,195.311 193.158,133.126 124.723 C 89.025 76.189,52.329 36.048,51.581 35.520 C 50.165 34.521,47.562 34.273,45.832 34.973 M222.141 82.345 C 221.470 82.554,220.539 83.071,220.070 83.494 C 217.949 85.414,218.027 83.728,218.027 128.129 L 218.027 169.687 218.995 171.137 C 221.645 175.103,227.084 174.837,229.226 170.636 C 229.921 169.273,229.972 166.356,229.972 128.000 C 229.972 89.644,229.921 86.727,229.226 85.364 C 227.897 82.756,224.912 81.485,222.141 82.345 M117.440 125.263 L 145.920 156.626 145.920 184.192 C 145.920 210.406,145.883 211.728,145.173 211.119 C 143.468 209.657,84.813 164.177,83.372 163.199 L 81.801 162.133 56.687 162.133 C 32.142 162.133,31.554 162.114,30.720 161.280 C 29.882 160.442,29.867 159.858,29.867 128.000 C 29.867 96.142,29.882 95.558,30.720 94.720 C 31.557 93.883,32.131 93.867,60.267 93.883 L 88.960 93.900 117.440 125.263 M188.800 98.981 C 185.932 100.869,186.027 99.879,186.027 127.929 C 186.027 150.306,186.107 153.426,186.712 154.702 C 188.702 158.895,195.298 158.895,197.288 154.702 C 197.893 153.426,197.973 150.311,197.973 128.000 C 197.973 100.018,198.042 100.743,195.211 98.993 C 193.396 97.871,190.495 97.866,188.800 98.981 " stroke="none" fill-rule="evenodd"></path></svg>