<svg fill="currentColor" viewBox="0 0 256 256" xmlns="http://www.w3.org/2000/svg"><path d="M150.051 26.326 C 149.624 26.437,133.259 38.983,113.684 54.207 L 78.092 81.887 53.446 82.010 L 28.800 82.133 26.434 83.243 C 23.057 84.827,21.127 86.701,19.529 89.948 L 18.133 92.782 18.133 128.000 L 18.133 163.218 19.529 166.052 C 21.127 169.299,23.057 171.173,26.434 172.757 L 28.800 173.867 53.442 173.987 L 78.084 174.107 113.629 201.750 C 133.179 216.955,149.514 229.525,149.929 229.684 C 152.278 230.586,155.649 229.408,157.007 227.211 C 157.862 225.826,157.867 225.330,157.867 128.000 C 157.867 30.670,157.862 30.174,157.007 28.789 C 155.654 26.601,152.840 25.605,150.051 26.326 M145.815 169.765 L 145.707 211.531 115.963 188.432 L 86.220 165.333 86.228 128.000 L 86.237 90.667 115.972 67.590 L 145.707 44.512 145.815 86.256 C 145.875 109.215,145.875 146.794,145.815 169.765 M219.075 74.615 C 215.545 76.219,214.561 80.363,216.960 83.517 C 217.664 84.443,219.541 86.910,221.131 89.000 C 224.756 93.765,229.514 103.248,231.224 109.113 C 234.701 121.045,234.696 135.055,231.210 146.887 C 228.904 154.710,224.462 163.045,218.963 169.863 C 215.891 173.672,215.322 174.948,215.700 177.182 C 216.052 179.266,218.317 181.616,220.339 181.995 C 223.844 182.653,227.005 179.933,232.764 171.307 C 248.192 148.196,250.253 119.281,238.253 94.293 C 233.779 84.977,226.402 75.137,223.230 74.256 C 221.182 73.687,221.104 73.694,219.075 74.615 M73.813 128.000 L 73.813 162.133 52.693 162.133 C 32.142 162.133,31.550 162.110,30.720 161.280 C 29.882 160.442,29.867 159.858,29.867 128.000 C 29.867 96.142,29.882 95.558,30.720 94.720 C 31.550 93.890,32.142 93.867,52.693 93.867 L 73.813 93.867 73.813 128.000 M189.143 101.955 C 187.528 102.939,186.564 104.300,186.203 106.104 C 185.892 107.662,186.860 109.838,189.681 113.920 C 192.514 118.019,193.792 122.383,193.804 128.000 C 193.818 134.502,192.262 138.941,187.985 144.604 C 186.470 146.611,186.240 147.204,186.240 149.103 C 186.240 151.883,187.220 153.421,189.688 154.513 C 193.513 156.205,196.536 154.231,200.622 147.372 C 208.331 134.433,207.639 118.440,198.828 105.897 C 197.624 104.183,196.027 102.408,195.280 101.952 C 193.539 100.891,190.886 100.892,189.143 101.955 " stroke="none" fill-rule="evenodd"></path></svg>