<svg fill="currentColor" viewBox="0 0 256 256" xmlns="http://www.w3.org/2000/svg"><path d="M127.147 34.397 C 112.876 36.123,103.085 38.816,92.140 44.027 C 60.415 59.130,38.376 90.174,34.583 125.103 C 33.935 131.070,34.030 142.082,34.779 147.925 C 40.749 194.469,80.918 229.937,127.697 229.970 C 150.858 229.986,172.353 221.063,188.812 204.600 C 202.020 191.388,210.052 175.397,213.142 156.160 C 214.196 149.593,214.115 137.826,212.971 131.413 C 210.174 115.728,203.711 102.542,193.280 91.230 C 177.737 74.377,156.474 65.495,133.547 66.279 C 122.860 66.645,114.031 68.829,105.114 73.314 C 85.389 83.235,72.166 100.330,67.378 122.101 C 66.245 127.251,65.795 139.160,66.541 144.259 C 70.355 170.344,88.984 190.535,114.773 196.537 C 120.958 197.977,130.389 198.337,136.319 197.360 C 158.761 193.665,176.490 176.627,180.863 154.553 C 182.066 148.478,182.306 144.483,181.763 139.551 C 179.616 120.038,165.765 104.029,146.987 99.356 C 141.979 98.109,133.437 97.819,128.891 98.740 C 113.101 101.939,101.359 113.877,98.552 129.585 C 98.210 131.498,98.095 134.397,98.241 137.454 C 98.611 145.265,101.259 151.446,106.515 156.774 C 112.422 162.760,119.772 165.946,127.725 165.966 C 139.957 165.997,149.833 156.319,149.938 144.197 C 149.963 141.394,149.787 140.617,148.568 138.140 C 146.150 133.228,141.446 130.131,136.411 130.135 C 132.239 130.138,129.858 132.667,130.244 136.684 C 130.415 138.460,130.710 139.065,131.964 140.214 C 132.840 141.018,134.166 141.726,135.112 141.897 C 137.360 142.302,137.813 142.773,137.813 144.706 C 137.813 148.200,135.365 151.616,131.746 153.173 C 126.152 155.580,117.614 152.409,113.384 146.354 C 107.707 138.229,109.582 125.871,117.727 117.727 C 123.971 111.483,132.203 109.008,141.653 110.534 C 148.660 111.666,154.592 114.818,160.000 120.282 C 165.100 125.435,167.810 130.364,169.245 137.097 C 170.235 141.744,169.811 150.520,168.358 155.427 C 162.658 174.685,145.260 186.981,125.252 185.892 C 107.286 184.914,91.161 174.186,83.128 157.867 C 81.289 154.131,79.724 149.487,78.887 145.280 C 78.006 140.848,78.110 129.575,79.075 125.013 C 80.744 117.127,84.060 109.294,88.469 102.827 C 91.270 98.716,98.716 91.270,102.827 88.469 C 109.283 84.068,117.086 80.761,125.013 79.068 C 130.510 77.894,142.847 78.017,148.907 79.307 C 176.432 85.166,196.846 106.599,201.188 134.199 C 202.174 140.467,201.856 152.254,200.534 158.507 C 192.518 196.393,158.274 221.461,119.832 217.581 C 103.064 215.888,86.630 208.660,73.539 197.218 C 61.033 186.288,51.097 169.150,47.819 152.854 C 40.726 117.590,56.163 80.968,86.570 60.920 C 114.312 42.629,150.516 41.198,181.198 57.181 C 207.528 70.896,226.595 96.376,232.080 125.174 C 233.212 131.121,233.384 132.603,233.772 139.740 C 234.053 144.924,234.250 146.156,234.948 147.091 C 237.840 150.965,242.185 150.940,245.094 147.032 C 245.886 145.968,245.963 145.335,245.864 140.659 C 245.544 125.380,241.615 109.763,234.468 95.360 C 229.088 84.518,223.564 76.618,215.339 68.002 C 198.534 50.401,176.139 38.821,151.893 35.194 C 147.208 34.494,130.736 33.963,127.147 34.397 " stroke="none" fill-rule="evenodd"></path></svg>