<svg fill="currentColor" viewBox="0 0 256 256" xmlns="http://www.w3.org/2000/svg"><path d="M126.080 18.373 C 125.215 18.626,119.236 24.326,107.657 35.934 C 92.804 50.823,90.475 53.330,90.228 54.692 C 89.438 59.039,93.307 62.602,97.780 61.646 C 98.892 61.408,101.679 58.877,110.613 49.995 L 122.027 38.649 122.027 68.391 L 122.027 98.133 84.160 98.135 C 47.379 98.136,46.254 98.160,44.930 98.968 C 43.029 100.127,42.098 101.731,42.098 103.847 C 42.098 106.245,43.317 108.199,45.459 109.236 C 47.178 110.068,48.364 110.080,128.000 110.080 C 207.636 110.080,208.822 110.068,210.541 109.236 C 212.683 108.199,213.902 106.245,213.902 103.847 C 213.902 101.731,212.971 100.127,211.070 98.968 C 209.746 98.160,208.621 98.136,171.840 98.135 L 133.973 98.133 133.973 68.391 L 133.973 38.649 145.387 50.007 C 155.077 59.651,157.037 61.410,158.367 61.657 C 162.855 62.493,166.557 59.011,165.772 54.692 C 165.525 53.330,163.197 50.825,148.343 35.938 C 129.567 17.119,129.779 17.287,126.080 18.373 M45.426 146.772 C 43.302 147.824,42.098 149.771,42.098 152.153 C 42.098 154.269,43.029 155.873,44.930 157.032 C 46.254 157.840,47.379 157.864,84.160 157.865 L 122.027 157.867 122.027 187.616 L 122.027 217.365 111.040 206.437 C 104.997 200.426,99.439 195.199,98.688 194.821 C 94.320 192.621,89.343 196.437,90.228 201.308 C 90.475 202.670,92.802 205.173,107.649 220.053 C 119.723 232.153,125.205 237.365,126.207 237.695 C 129.596 238.814,129.374 238.990,147.946 220.457 C 160.046 208.384,165.258 202.901,165.589 201.900 C 167.201 197.014,161.922 192.499,157.312 194.821 C 156.561 195.199,151.003 200.426,144.960 206.437 L 133.973 217.365 133.973 187.616 L 133.973 157.867 171.840 157.865 C 208.621 157.864,209.746 157.840,211.070 157.032 C 212.971 155.873,213.902 154.269,213.902 152.153 C 213.902 149.755,212.683 147.801,210.541 146.764 C 208.822 145.932,207.636 145.920,127.972 145.920 C 48.058 145.921,47.127 145.930,45.426 146.772 " stroke="none" fill-rule="evenodd"></path></svg>