<svg fill="currentColor" viewBox="0 0 256 256" xmlns="http://www.w3.org/2000/svg"><path d="M50.124 43.456 C 46.917 44.973,43.878 48.237,42.803 51.319 C 42.064 53.441,42.027 57.094,42.027 128.000 C 42.027 213.617,41.585 205.074,46.255 209.745 C 50.926 214.415,42.383 213.973,128.000 213.973 C 213.617 213.973,205.074 214.415,209.745 209.745 C 214.415 205.074,213.973 213.617,213.973 128.000 C 213.973 57.094,213.936 53.441,213.197 51.319 C 212.122 48.237,209.083 44.973,205.876 43.456 L 203.307 42.241 128.000 42.241 L 52.693 42.241 50.124 43.456 M201.709 88.213 L 201.818 122.027 128.003 122.027 L 54.187 122.027 54.187 88.391 C 54.187 69.892,54.315 54.627,54.472 54.470 C 54.629 54.313,87.797 54.233,128.179 54.292 L 201.600 54.400 201.709 88.213 M73.813 168.107 L 73.813 202.240 65.094 202.240 C 60.299 202.240,55.883 202.053,55.281 201.824 L 54.187 201.408 54.187 167.691 L 54.187 133.973 64.000 133.973 L 73.813 133.973 73.813 168.107 M105.813 168.107 L 105.813 202.240 96.000 202.240 L 86.187 202.240 86.187 168.107 L 86.187 133.973 96.000 133.973 L 105.813 133.973 105.813 168.107 M137.813 168.107 L 137.813 202.240 128.000 202.240 L 118.187 202.240 118.187 168.107 L 118.187 133.973 128.000 133.973 L 137.813 133.973 137.813 168.107 M169.813 168.107 L 169.813 202.240 160.000 202.240 L 150.187 202.240 150.187 168.107 L 150.187 133.973 160.000 133.973 L 169.813 133.973 169.813 168.107 M201.813 167.691 L 201.813 201.408 200.719 201.824 C 200.117 202.053,195.701 202.240,190.906 202.240 L 182.187 202.240 182.187 168.107 L 182.187 133.973 192.000 133.973 L 201.813 133.973 201.813 167.691 " stroke="none" fill-rule="evenodd"></path></svg>