<svg fill="currentColor" viewBox="0 0 256 256" xmlns="http://www.w3.org/2000/svg"><path d="M115.523 18.383 C 106.250 19.741,97.566 25.996,93.320 34.375 C 91.045 38.866,90.238 42.464,90.265 48.000 C 90.290 53.004,90.476 53.978,98.479 91.052 C 102.982 111.915,106.667 129.240,106.667 129.551 C 106.667 130.015,101.039 130.138,75.413 130.232 L 44.160 130.347 42.027 131.395 C 38.930 132.917,36.144 135.886,35.037 138.843 C 34.124 141.283,34.114 141.613,34.229 164.631 L 34.347 187.947 35.333 189.949 C 36.705 192.734,39.326 195.294,42.174 196.629 L 44.587 197.760 128.000 197.760 L 211.413 197.760 213.826 196.629 C 216.674 195.294,219.295 192.734,220.667 189.949 L 221.653 187.947 221.771 164.631 C 221.885 141.838,221.868 141.261,220.991 138.919 C 219.902 136.007,216.971 132.863,213.973 131.393 L 211.840 130.347 180.587 130.232 C 154.961 130.138,149.333 130.015,149.333 129.551 C 149.333 129.240,153.003 111.915,157.487 91.052 C 166.595 48.680,166.755 47.650,165.170 41.384 C 161.985 28.786,152.605 20.168,140.116 18.362 C 136.617 17.856,119.017 17.871,115.523 18.383 M138.316 30.262 C 146.343 31.298,152.534 37.527,153.720 45.761 L 154.173 48.900 145.480 89.517 L 136.787 130.133 128.000 130.133 L 119.213 130.133 110.577 89.707 C 105.828 67.472,101.949 48.665,101.958 47.914 C 102.056 39.381,109.046 31.349,117.298 30.285 C 120.720 29.845,134.957 29.829,138.316 30.262 M209.408 142.592 C 210.146 143.330,210.146 184.777,209.408 185.515 C 208.663 186.260,47.337 186.260,46.592 185.515 C 45.854 184.777,45.854 143.330,46.592 142.592 C 47.337 141.847,208.663 141.847,209.408 142.592 M37.205 218.813 C 33.061 221.023,33.117 227.304,37.298 229.288 C 38.610 229.911,46.915 229.973,128.000 229.973 C 209.085 229.973,217.390 229.911,218.702 229.288 C 220.607 228.384,221.867 226.285,221.867 224.015 C 221.867 221.726,220.881 220.056,218.860 218.920 L 217.270 218.027 127.942 218.045 C 43.521 218.061,38.536 218.104,37.205 218.813 " stroke="none" fill-rule="evenodd"></path></svg>