<svg fill="currentColor" viewBox="0 0 256 256" xmlns="http://www.w3.org/2000/svg"><path d="M120.747 26.275 C 119.925 26.371,117.429 26.657,115.200 26.911 C 97.087 28.974,78.488 36.924,63.688 48.928 C 59.118 52.635,51.837 59.914,48.399 64.213 C 33.997 82.223,26.027 104.946,26.027 128.000 C 26.027 160.313,41.247 190.513,67.313 209.917 C 80.785 219.946,95.439 226.020,113.280 228.971 C 119.895 230.065,136.063 230.069,142.720 228.978 C 167.013 224.997,187.139 214.259,203.399 196.604 C 216.819 182.033,225.565 163.607,228.975 142.720 C 230.058 136.090,230.063 120.352,228.985 113.526 C 224.265 83.633,208.329 58.913,183.040 42.254 C 177.765 38.779,167.473 33.766,161.280 31.655 C 155.481 29.679,148.709 28.035,142.507 27.099 C 138.223 26.452,123.882 25.910,120.747 26.275 M135.893 38.406 C 157.181 40.367,176.604 49.439,191.583 64.417 C 206.516 79.351,215.639 98.883,217.594 120.107 C 218.063 125.203,218.174 132.267,217.784 132.267 C 217.651 132.267,215.587 130.673,213.197 128.724 C 188.628 108.688,159.238 98.136,128.000 98.136 C 96.762 98.136,67.372 108.688,42.803 128.724 C 40.413 130.673,38.349 132.267,38.216 132.267 C 38.082 132.267,37.973 130.587,37.974 128.533 C 37.977 98.016,53.062 69.795,78.293 53.101 C 95.526 41.699,115.717 36.548,135.893 38.406 M145.280 111.309 C 171.152 115.247,194.054 126.377,212.184 143.821 C 215.895 147.393,215.915 147.422,215.506 148.907 C 215.280 149.728,214.884 151.210,214.628 152.201 L 214.161 154.002 188.040 154.121 L 161.920 154.240 159.573 155.442 C 156.778 156.874,154.332 159.144,153.319 161.246 C 152.914 162.086,147.934 175.157,142.252 190.293 L 131.921 217.813 127.970 217.813 L 124.020 217.813 113.693 190.178 C 108.013 174.979,102.806 161.638,102.123 160.532 C 101.439 159.427,99.952 157.821,98.817 156.963 C 94.866 153.977,95.403 154.027,67.181 154.027 L 41.874 154.027 41.250 151.787 C 39.928 147.042,39.733 147.647,43.843 143.752 C 64.308 124.358,90.487 112.696,118.827 110.349 C 124.093 109.913,139.871 110.485,145.280 111.309 M123.947 130.935 C 117.110 134.071,116.001 143.385,121.925 147.903 C 128.365 152.815,137.831 148.302,137.903 140.285 C 137.955 134.563,133.644 130.152,128.000 130.152 C 126.628 130.152,124.944 130.477,123.947 130.935 M91.910 166.933 C 92.593 167.985,110.597 215.946,110.387 216.155 C 110.151 216.391,103.534 214.622,98.898 213.084 C 93.320 211.233,83.901 206.623,78.720 203.209 C 66.093 194.886,55.730 183.540,48.806 170.457 L 46.433 165.973 68.860 165.973 L 91.287 165.973 91.910 166.933 M207.603 169.707 C 195.918 192.311,174.339 209.191,149.138 215.442 C 147.270 215.905,145.671 216.213,145.583 216.126 C 145.310 215.852,163.514 167.506,164.187 166.720 C 164.780 166.027,166.418 165.973,187.180 165.973 L 209.534 165.973 207.603 169.707 " stroke="none" fill-rule="evenodd"></path></svg>