<svg fill="currentColor" viewBox="0 0 256 256" xmlns="http://www.w3.org/2000/svg"><path d="M182.400 50.233 C 180.889 50.611,179.119 52.142,178.512 53.596 C 178.034 54.740,177.920 59.155,177.920 76.573 L 177.920 98.133 152.050 98.133 C 126.858 98.133,126.144 98.156,124.789 98.993 C 121.992 100.722,122.027 100.408,122.027 124.331 L 122.027 145.920 96.960 145.922 C 81.766 145.924,71.296 146.091,70.376 146.346 C 69.541 146.578,68.293 147.358,67.602 148.078 L 66.347 149.389 66.229 171.761 L 66.111 194.133 40.202 194.135 C 15.274 194.136,14.242 194.168,12.930 194.968 C 11.029 196.127,10.098 197.731,10.098 199.847 C 10.098 202.245,11.317 204.199,13.459 205.236 C 15.144 206.052,16.178 206.080,44.188 206.079 C 76.203 206.079,74.928 206.184,76.983 203.382 C 77.846 202.206,77.869 201.664,77.984 180.022 L 78.102 157.867 103.961 157.867 C 129.142 157.867,129.856 157.844,131.211 157.007 C 134.008 155.278,133.973 155.592,133.973 131.669 L 133.973 110.080 159.374 110.080 C 186.864 110.080,186.407 110.116,188.587 107.754 L 189.653 106.598 189.771 84.233 L 189.889 61.867 215.798 61.865 C 240.726 61.864,241.758 61.832,243.070 61.032 C 244.971 59.873,245.902 58.269,245.902 56.153 C 245.902 53.755,244.683 51.801,242.541 50.764 C 240.853 49.947,239.876 49.922,212.025 49.969 C 196.201 49.997,182.869 50.115,182.400 50.233 " stroke="none" fill-rule="evenodd"></path></svg>