<svg fill="currentColor" viewBox="0 0 256 256" xmlns="http://www.w3.org/2000/svg"><path d="M67.978 26.638 C 63.914 27.915,60.400 31.236,58.918 35.198 C 58.016 37.608,57.991 38.152,58.113 52.656 L 58.240 67.627 59.435 70.060 C 61.108 73.467,64.191 76.134,67.713 77.222 C 69.863 77.886,71.686 78.080,75.786 78.080 C 81.062 78.080,81.082 78.084,80.855 79.040 C 80.352 81.157,58.027 223.263,58.028 224.338 C 58.030 225.908,59.431 228.090,61.116 229.148 C 63.989 230.952,68.191 229.471,69.509 226.190 C 69.757 225.572,71.693 214.027,73.811 200.533 C 75.928 187.040,77.759 175.568,77.879 175.040 L 78.096 174.080 128.000 174.080 L 177.904 174.080 178.117 175.040 C 178.234 175.568,180.061 187.075,182.177 200.610 C 184.294 214.146,186.198 225.666,186.410 226.210 C 186.621 226.755,187.375 227.750,188.085 228.422 C 191.308 231.475,196.964 229.552,197.769 225.130 C 197.961 224.071,176.181 83.433,175.144 79.040 C 174.918 78.084,174.938 78.080,180.214 78.080 C 184.314 78.080,186.137 77.886,188.287 77.222 C 191.809 76.134,194.892 73.467,196.565 70.060 L 197.760 67.627 197.887 52.656 C 198.010 38.129,197.986 37.612,197.078 35.184 C 195.895 32.023,193.082 28.972,189.920 27.419 L 187.520 26.240 128.640 26.159 C 81.045 26.093,69.419 26.185,67.978 26.638 M185.356 38.644 C 185.936 39.223,186.027 41.031,186.027 51.944 C 186.027 63.096,185.944 64.664,185.321 65.353 C 184.643 66.101,182.308 66.133,128.074 66.133 C 76.062 66.133,71.471 66.077,70.754 65.427 C 70.031 64.773,69.973 63.783,69.973 52.018 C 69.973 41.038,70.064 39.223,70.644 38.644 C 71.247 38.041,77.036 37.973,128.000 37.973 C 178.964 37.973,184.753 38.041,185.356 38.644 M162.987 78.476 C 162.987 79.017,175.736 159.972,176.010 161.173 L 176.230 162.133 128.000 162.133 L 79.770 162.133 79.990 161.173 C 80.264 159.972,93.013 79.017,93.013 78.476 C 93.013 78.236,106.792 78.080,128.000 78.080 C 149.208 78.080,162.987 78.236,162.987 78.476 " stroke="none" fill-rule="evenodd"></path></svg>