<svg fill="currentColor" viewBox="0 0 256 256" xmlns="http://www.w3.org/2000/svg"><path d="M49.496 34.845 C 45.365 36.290,42.354 39.302,40.821 43.520 C 40.437 44.576,36.951 56.575,33.075 70.184 L 26.027 94.927 26.027 105.239 C 26.027 116.338,26.391 119.479,28.324 125.038 C 30.334 130.817,36.060 138.794,40.266 141.676 L 41.789 142.720 41.908 176.853 L 42.027 210.987 43.268 213.675 C 44.791 216.974,47.751 219.766,51.023 220.990 C 53.353 221.862,53.759 221.867,128.000 221.867 C 201.998 221.867,202.654 221.859,204.953 220.999 C 208.216 219.778,210.888 217.273,212.571 213.854 L 213.973 211.006 214.092 176.863 L 214.211 142.720 215.706 141.696 C 219.427 139.146,224.771 132.119,226.881 127.002 C 229.467 120.729,229.681 119.287,229.869 106.791 L 230.044 95.181 222.520 68.817 C 214.310 40.054,214.057 39.393,210.257 36.779 C 206.122 33.934,212.309 34.131,127.878 34.154 C 59.474 34.172,51.211 34.245,49.496 34.845 M203.417 46.613 C 203.791 47.079,215.893 88.885,215.893 89.711 C 215.893 89.885,176.341 90.027,128.000 90.027 C 79.659 90.027,40.107 89.932,40.107 89.817 C 40.107 89.225,52.129 47.590,52.500 46.895 C 52.927 46.097,54.547 46.080,127.963 46.080 C 187.471 46.080,203.077 46.190,203.417 46.613 M89.942 109.333 C 89.774 116.167,89.670 116.954,88.482 120.339 C 86.081 127.179,81.596 132.252,75.307 135.241 C 70.951 137.311,68.531 137.874,64.000 137.874 C 59.430 137.874,57.053 137.312,52.513 135.157 C 49.674 133.809,48.238 132.767,45.676 130.192 C 39.937 124.425,37.973 118.759,37.973 107.965 L 37.973 101.973 64.048 101.973 L 90.123 101.973 89.942 109.333 M153.942 109.333 C 153.774 116.167,153.670 116.954,152.482 120.339 C 150.081 127.179,145.596 132.252,139.307 135.241 C 134.951 137.311,132.531 137.874,128.000 137.874 C 123.430 137.874,121.053 137.312,116.513 135.157 C 113.674 133.809,112.238 132.767,109.676 130.192 C 103.937 124.425,101.973 118.759,101.973 107.965 L 101.973 101.973 128.048 101.973 L 154.123 101.973 153.942 109.333 M217.942 109.333 C 217.774 116.167,217.670 116.954,216.482 120.339 C 214.081 127.179,209.596 132.252,203.307 135.241 C 198.951 137.311,196.531 137.874,192.000 137.874 C 187.430 137.874,185.053 137.312,180.513 135.157 C 177.674 133.809,176.238 132.767,173.676 130.192 C 167.937 124.425,165.973 118.759,165.973 107.965 L 165.973 101.973 192.048 101.973 L 218.123 101.973 217.942 109.333 M96.427 133.037 C 96.427 133.831,101.303 139.204,103.983 141.363 C 111.014 147.027,118.890 149.852,127.787 149.902 C 137.054 149.953,145.113 147.032,152.524 140.937 C 154.913 138.972,158.397 135.142,159.576 133.185 C 159.966 132.536,160.036 132.540,160.454 133.237 C 161.475 134.942,165.138 139.027,167.089 140.639 C 171.750 144.488,175.417 146.513,180.791 148.207 C 187.215 150.232,193.514 150.514,200.427 149.086 L 201.813 148.800 201.813 178.848 C 201.813 201.650,201.690 209.019,201.301 209.408 C 200.557 210.153,55.443 210.153,54.699 209.408 C 54.310 209.019,54.187 201.650,54.187 178.848 L 54.187 148.800 55.573 149.086 C 66.991 151.444,77.880 149.007,87.192 142.009 C 89.877 139.991,95.573 133.906,95.573 133.055 C 95.573 132.856,95.765 132.693,96.000 132.693 C 96.235 132.693,96.427 132.848,96.427 133.037 " stroke="none" fill-rule="evenodd"></path></svg>