<svg fill="currentColor" viewBox="0 0 256 256" xmlns="http://www.w3.org/2000/svg"><path d="M132.821 34.969 C 130.076 36.643,130.133 36.112,130.135 60.032 C 130.136 80.763,130.173 81.766,130.968 83.070 C 132.127 84.971,133.731 85.902,135.847 85.902 C 138.245 85.902,140.199 84.683,141.236 82.541 C 142.020 80.922,142.082 79.853,142.102 67.599 L 142.123 54.400 146.828 59.307 C 153.193 65.944,156.554 70.496,159.590 76.587 C 162.529 82.484,164.116 88.087,164.523 94.002 C 165.707 111.174,155.724 129.769,139.733 140.178 C 135.222 143.115,133.683 143.859,128.801 145.466 C 124.814 146.778,123.540 147.620,122.507 149.625 C 121.320 151.929,122.441 155.556,124.789 157.007 C 126.663 158.165,128.928 158.094,132.965 156.750 C 154.345 149.634,171.938 128.920,175.811 106.304 C 179.110 87.038,172.561 68.720,156.470 52.206 L 150.500 46.080 163.649 46.080 C 175.878 46.080,176.919 46.021,178.541 45.236 C 180.683 44.199,181.902 42.245,181.902 39.847 C 181.902 37.731,180.971 36.127,179.070 34.968 C 177.766 34.173,176.764 34.137,155.947 34.137 C 135.116 34.137,134.128 34.172,132.821 34.969 M37.724 66.740 C 35.196 67.840,33.660 70.995,34.331 73.704 C 34.515 74.445,37.686 77.960,42.911 83.214 C 47.470 87.797,51.200 91.727,51.200 91.947 C 51.200 92.166,47.471 96.096,42.914 100.680 C 35.913 107.721,34.583 109.261,34.334 110.611 C 33.938 112.757,34.320 114.043,35.879 115.819 C 37.336 117.479,39.180 118.029,41.701 117.556 C 43.044 117.304,44.630 115.933,51.733 108.887 L 60.170 100.517 68.805 109.105 C 76.057 116.317,77.692 117.738,79.012 117.982 C 83.256 118.763,87.022 114.787,85.989 110.616 C 85.805 109.872,82.542 106.268,77.108 100.805 L 68.517 92.170 76.887 83.733 C 85.842 74.706,86.232 74.118,85.581 70.646 C 85.242 68.838,82.930 66.708,80.890 66.325 C 78.091 65.800,76.961 66.604,68.268 75.306 L 59.955 83.627 51.631 75.327 C 42.139 65.864,41.145 65.250,37.724 66.740 M61.653 154.636 C 50.885 156.768,41.521 164.093,37.100 173.843 C 34.828 178.854,34.009 183.334,34.248 189.440 C 34.614 198.766,37.452 205.220,44.116 211.884 C 50.780 218.548,57.234 221.386,66.560 221.752 C 70.996 221.926,72.519 221.812,75.609 221.073 C 82.581 219.406,88.034 216.242,92.900 211.040 C 96.257 207.451,98.586 203.493,100.336 198.400 C 101.646 194.589,101.730 193.989,101.741 188.373 C 101.751 184.005,101.554 181.655,101.010 179.627 C 100.012 175.909,96.908 169.732,94.529 166.732 C 90.487 161.634,83.677 157.143,77.215 155.312 C 73.085 154.142,65.756 153.824,61.653 154.636 M174.080 162.612 C 172.376 163.289,170.699 165.152,170.411 166.688 C 169.769 170.113,170.176 170.724,179.118 179.738 L 187.493 188.179 179.021 196.659 C 170.617 205.071,170.548 205.154,170.369 207.209 C 170.017 211.223,172.777 213.983,176.791 213.631 C 178.846 213.452,178.929 213.383,187.337 204.983 L 195.813 196.515 204.493 205.103 C 213.720 214.232,214.382 214.680,217.592 213.975 C 219.345 213.590,221.668 211.233,222.018 209.484 C 222.619 206.477,221.926 205.480,213.129 196.697 C 208.548 192.124,204.800 188.194,204.800 187.964 C 204.800 187.735,208.530 183.797,213.089 179.214 C 218.314 173.960,221.485 170.445,221.669 169.704 C 222.703 165.533,218.936 161.557,214.692 162.338 C 213.373 162.581,211.748 163.993,204.578 171.123 L 196.036 179.618 187.938 171.472 C 178.689 162.169,177.349 161.312,174.080 162.612 M72.585 166.587 C 83.897 168.985,91.639 180.327,89.632 191.560 C 87.739 202.151,78.626 209.897,68.036 209.915 C 54.110 209.938,43.696 197.076,46.552 183.381 C 47.781 177.487,52.221 171.603,57.554 168.800 C 62.652 166.121,67.217 165.449,72.585 166.587 " stroke="none" fill-rule="evenodd"></path></svg>