<svg fill="currentColor" viewBox="0 0 256 256" xmlns="http://www.w3.org/2000/svg"><path d="M77.767 42.381 C 33.573 57.150,28.897 58.799,27.633 60.063 L 26.240 61.456 26.131 103.368 C 26.028 142.624,26.069 145.374,26.771 146.759 C 28.848 150.858,35.158 150.858,37.226 146.759 C 37.919 145.385,37.972 142.687,37.973 108.907 C 37.973 88.901,38.115 72.533,38.288 72.533 C 39.036 72.533,76.373 85.140,76.373 85.393 C 76.373 85.547,75.581 86.978,74.612 88.573 C 70.957 94.588,68.272 102.019,66.918 109.867 C 65.717 116.819,65.987 126.877,67.552 133.553 C 70.306 145.305,75.688 155.061,84.040 163.442 C 88.425 167.843,91.734 170.468,96.559 173.373 L 98.937 174.805 95.229 176.193 C 90.540 177.948,83.019 181.851,78.426 184.913 C 68.647 191.434,59.164 200.801,52.700 210.324 C 50.424 213.679,50.268 214.066,50.445 215.913 C 50.792 219.524,53.475 221.727,57.038 221.326 C 59.381 221.062,59.831 220.649,64.359 214.613 C 75.610 199.617,90.750 189.195,107.733 184.756 C 115.596 182.701,118.182 182.400,128.000 182.400 C 137.818 182.400,140.404 182.701,148.267 184.756 C 165.273 189.201,180.353 199.594,191.684 214.677 C 196.334 220.867,196.626 221.120,199.367 221.323 C 203.130 221.601,205.653 219.196,205.653 215.333 C 205.653 211.551,194.051 197.640,184.533 190.010 C 177.603 184.455,168.698 179.241,160.938 176.197 C 158.989 175.433,157.549 174.673,157.738 174.509 C 157.926 174.345,159.712 173.152,161.707 171.858 C 175.613 162.837,184.957 149.156,188.692 132.345 C 189.949 126.686,190.047 113.825,188.874 108.384 C 187.277 100.973,183.728 92.038,180.192 86.524 C 179.784 85.888,179.538 85.290,179.645 85.196 C 179.752 85.101,190.342 81.528,203.179 77.257 C 216.015 72.985,227.011 69.102,227.614 68.627 C 230.810 66.113,230.634 61.304,227.265 59.096 C 225.656 58.042,129.242 26.022,127.789 26.059 C 127.084 26.078,104.574 33.422,77.767 42.381 M166.291 51.092 C 187.236 58.072,204.373 63.881,204.373 64.000 C 204.373 64.119,187.189 69.944,166.187 76.943 L 128.000 89.669 89.813 76.943 C 68.811 69.944,51.627 64.119,51.627 64.000 C 51.627 63.787,126.951 38.501,127.784 38.434 C 128.017 38.415,145.345 44.111,166.291 51.092 M107.733 95.573 C 118.287 99.093,127.407 101.973,128.000 101.973 C 128.593 101.973,137.702 99.097,148.244 95.581 C 158.786 92.065,167.445 89.233,167.486 89.288 C 170.799 93.624,174.932 101.986,176.182 106.880 C 179.381 119.406,178.206 130.956,172.581 142.293 C 169.902 147.691,167.661 150.820,163.303 155.244 C 149.299 169.462,128.062 173.822,109.227 166.345 C 103.317 163.999,98.240 160.649,93.272 155.819 C 77.712 140.691,73.656 117.168,83.291 97.941 C 84.531 95.466,87.909 89.826,88.539 89.179 C 88.542 89.176,97.179 92.053,107.733 95.573 " stroke="none" fill-rule="evenodd"></path></svg>