<svg fill="currentColor" viewBox="0 0 256 256" xmlns="http://www.w3.org/2000/svg"><path d="M36.821 34.969 C 33.934 36.729,34.133 31.910,34.133 100.088 C 34.133 161.235,34.141 161.832,34.993 163.211 C 36.745 166.046,35.977 165.973,64.384 165.973 L 90.027 165.973 90.027 191.616 C 90.027 220.023,89.954 219.255,92.789 221.007 C 94.168 221.859,94.763 221.867,155.997 221.865 C 216.555 221.864,217.841 221.847,219.179 221.031 C 222.066 219.271,221.867 224.089,221.867 155.927 C 221.867 87.016,222.132 92.759,218.860 90.920 C 217.296 90.041,216.865 90.027,191.622 90.027 L 165.973 90.027 165.973 64.384 C 165.973 35.977,166.046 36.745,163.211 34.993 C 161.832 34.141,161.237 34.133,100.003 34.135 C 39.445 34.136,38.159 34.153,36.821 34.969 M154.027 100.053 L 154.027 154.027 100.053 154.027 L 46.080 154.027 46.080 100.053 L 46.080 46.080 100.053 46.080 L 154.027 46.080 154.027 100.053 M209.920 123.520 C 209.920 135.371,209.871 145.067,209.812 145.067 C 209.752 145.067,200.009 135.371,188.160 123.520 L 166.617 101.973 188.268 101.973 L 209.920 101.973 209.920 123.520 M209.920 181.970 L 209.920 201.597 187.947 179.627 L 165.973 157.656 165.973 138.030 L 165.973 118.403 187.947 140.373 L 209.920 162.344 209.920 181.970 M179.627 187.947 L 201.597 209.920 181.970 209.920 L 162.344 209.920 140.373 187.947 L 118.403 165.973 138.030 165.973 L 157.656 165.973 179.627 187.947 M123.733 188.373 L 145.277 209.920 123.625 209.920 L 101.973 209.920 101.973 188.373 C 101.973 176.523,102.022 166.827,102.082 166.827 C 102.141 166.827,111.884 176.523,123.733 188.373 " stroke="none" fill-rule="evenodd"></path></svg>