<svg fill="currentColor" viewBox="0 0 256 256" xmlns="http://www.w3.org/2000/svg"><path d="M99.437 26.492 C 93.703 27.616,87.202 32.581,84.529 37.877 C 82.518 41.859,81.933 45.019,81.926 51.932 L 81.920 57.998 59.200 58.119 L 36.480 58.240 34.080 59.419 C 30.935 60.963,28.105 64.025,26.937 67.145 L 26.016 69.606 26.128 136.670 L 26.240 203.733 27.202 205.686 C 28.766 208.858,30.933 211.041,34.036 212.569 L 36.889 213.973 128.000 213.973 L 219.111 213.973 221.964 212.569 C 225.066 211.042,227.185 208.908,228.776 205.711 L 229.760 203.733 229.872 136.670 L 229.984 69.606 229.063 67.145 C 227.895 64.025,225.065 60.963,221.920 59.419 L 219.520 58.240 196.800 58.119 L 174.080 57.998 174.073 52.146 C 174.064 45.308,173.417 41.730,171.501 37.936 C 168.713 32.413,162.314 27.610,156.208 26.460 C 153.378 25.926,102.174 25.955,99.437 26.492 M156.373 39.108 C 158.390 40.196,160.036 41.882,161.096 43.947 C 161.699 45.121,161.903 46.786,162.051 51.733 L 162.239 58.027 128.000 58.027 L 93.761 58.027 93.951 51.733 C 94.112 46.367,94.275 45.180,95.055 43.673 C 96.203 41.455,99.006 39.024,101.051 38.471 C 102.016 38.210,112.571 38.075,128.640 38.118 C 154.427 38.186,154.682 38.195,156.373 39.108 M81.920 136.118 L 81.920 202.263 60.652 202.145 C 43.384 202.049,39.251 201.917,38.679 201.441 C 38.028 200.901,37.973 195.801,37.973 136.085 C 37.973 77.771,38.040 71.247,38.644 70.644 C 39.235 70.052,41.820 69.973,60.617 69.973 L 81.920 69.973 81.920 136.118 M162.028 136.000 L 161.920 202.027 128.000 202.027 L 94.080 202.027 93.972 136.000 L 93.864 69.973 128.000 69.973 L 162.136 69.973 162.028 136.000 M217.356 70.644 C 217.960 71.247,218.027 77.771,218.027 136.085 C 218.027 195.801,217.972 200.901,217.321 201.441 C 216.749 201.917,212.616 202.049,195.348 202.145 L 174.080 202.263 174.080 136.118 L 174.080 69.973 195.383 69.973 C 214.180 69.973,216.765 70.052,217.356 70.644 " stroke="none" fill-rule="evenodd"></path></svg>