<svg fill="currentColor" viewBox="0 0 256 256" xmlns="http://www.w3.org/2000/svg"><path d="M53.364 26.774 C 52.559 27.184,51.503 28.062,51.017 28.724 C 50.171 29.877,50.128 30.539,50.009 44.297 L 49.885 58.667 46.483 60.309 C 40.751 63.077,36.649 67.964,34.814 74.211 C 34.203 76.291,34.133 83.750,34.135 147.171 C 34.136 216.482,34.152 217.839,34.969 219.179 C 36.698 222.014,34.446 221.867,76.032 221.865 C 112.622 221.864,113.746 221.840,115.070 221.032 C 118.089 219.191,117.950 220.346,118.187 195.149 L 118.400 172.445 119.696 170.602 C 124.173 164.235,132.516 164.569,136.797 171.287 C 137.550 172.469,137.613 173.958,137.813 195.200 C 138.050 220.341,137.912 219.192,140.930 221.032 C 142.254 221.840,143.377 221.863,180.053 221.863 C 216.753 221.863,217.852 221.840,219.179 221.031 C 222.076 219.264,221.867 225.024,221.867 147.085 C 221.867 83.746,221.797 76.291,221.186 74.211 C 219.348 67.952,215.245 63.071,209.503 60.309 L 206.088 58.667 206.083 44.800 C 206.078 29.658,205.987 29.032,203.510 27.219 C 200.875 25.291,196.670 26.076,194.979 28.812 C 194.180 30.105,194.133 30.967,194.133 44.424 L 194.132 58.667 190.830 60.151 C 186.676 62.019,182.499 65.958,180.533 69.862 C 177.980 74.932,177.933 75.500,177.926 101.689 C 177.923 114.791,177.756 125.447,177.555 125.369 C 177.354 125.291,167.466 119.667,155.582 112.871 L 133.973 100.516 133.973 85.629 C 133.973 72.842,133.877 70.539,133.288 69.298 C 131.298 65.105,124.702 65.105,122.712 69.298 C 122.123 70.539,122.027 72.842,122.027 85.629 L 122.027 100.516 100.418 112.871 C 88.534 119.667,78.646 125.291,78.445 125.369 C 78.244 125.447,78.077 114.887,78.073 101.902 C 78.064 75.899,77.980 74.852,75.497 69.921 C 73.499 65.955,69.352 62.032,65.170 60.151 L 61.868 58.667 61.867 44.439 C 61.867 28.526,61.882 28.619,58.860 26.920 C 56.923 25.831,55.297 25.788,53.364 26.774 M60.426 71.178 C 62.355 72.170,64.005 73.845,65.125 75.947 C 65.855 77.318,65.920 78.606,65.920 91.733 L 65.920 106.027 56.000 106.141 L 46.080 106.256 46.080 92.038 L 46.080 77.821 47.191 75.592 C 49.669 70.618,55.533 68.662,60.426 71.178 M205.168 71.560 C 206.332 72.280,207.647 73.614,208.415 74.857 L 209.707 76.945 209.829 91.600 L 209.952 106.256 200.016 106.141 L 190.080 106.027 190.080 91.733 C 190.080 77.793,190.103 77.396,191.025 75.673 C 192.213 73.451,195.010 71.029,197.051 70.453 C 199.599 69.734,202.955 70.192,205.168 71.560 M152.960 125.162 L 177.707 139.340 177.816 174.630 L 177.925 209.920 164.084 209.920 L 150.242 209.920 150.091 191.040 C 149.945 172.890,149.903 172.050,148.992 169.323 C 146.568 162.058,140.437 156.418,133.080 154.684 C 121.946 152.059,110.653 158.400,107.008 169.323 C 106.097 172.050,106.055 172.890,105.909 191.040 L 105.758 209.920 91.916 209.920 L 78.075 209.920 78.184 174.630 L 78.293 139.340 103.040 125.162 C 116.651 117.364,127.883 110.984,128.000 110.984 C 128.117 110.984,139.349 117.364,152.960 125.162 M66.133 164.053 L 66.133 209.920 56.107 209.920 L 46.080 209.920 46.080 164.053 L 46.080 118.187 56.107 118.187 L 66.133 118.187 66.133 164.053 M209.920 164.053 L 209.920 209.920 199.893 209.920 L 189.867 209.920 189.867 164.053 L 189.867 118.187 199.893 118.187 L 209.920 118.187 209.920 164.053 " stroke="none" fill-rule="evenodd"></path></svg>