<svg fill="currentColor" viewBox="0 0 256 256" xmlns="http://www.w3.org/2000/svg"><path d="M181.120 19.132 C 179.441 20.159,178.943 20.812,178.468 22.613 C 177.627 25.797,177.986 26.299,188.972 37.292 C 194.627 42.950,199.253 47.771,199.253 48.005 C 199.253 48.240,192.246 55.436,183.682 63.998 L 168.111 79.565 149.656 61.139 C 139.505 51.005,130.660 42.511,129.999 42.263 C 128.269 41.615,127.218 41.703,125.245 42.658 C 123.168 43.663,121.981 45.485,121.951 47.717 C 121.918 50.077,122.765 51.364,127.330 55.886 L 131.415 59.931 87.730 103.672 C 46.194 145.263,43.996 147.539,43.036 149.973 L 42.027 152.533 41.909 179.200 L 41.791 205.867 30.010 217.661 L 18.230 229.456 18.049 231.528 C 17.918 233.024,18.091 234.006,18.673 235.060 C 20.066 237.583,23.740 238.834,26.161 237.608 C 26.674 237.349,32.277 231.978,38.613 225.673 L 50.133 214.209 76.800 214.091 L 103.467 213.973 106.027 212.962 C 108.459 212.001,110.759 209.782,152.320 168.288 L 196.053 124.626 200.553 129.034 C 204.397 132.799,205.315 133.487,206.843 133.745 C 211.371 134.510,215.325 129.332,213.289 125.305 C 213.030 124.793,204.630 116.165,194.624 106.133 L 176.431 87.894 192.000 72.320 C 200.563 63.755,207.760 56.747,207.995 56.747 C 208.229 56.747,213.050 61.373,218.708 67.028 C 229.727 78.040,230.160 78.349,233.454 77.531 C 236.384 76.803,238.283 73.566,237.616 70.437 C 237.362 69.242,232.746 64.421,211.979 43.663 L 186.652 18.347 184.526 18.348 C 183.216 18.349,181.909 18.650,181.120 19.132 M163.841 92.374 L 187.518 116.055 144.532 159.041 L 101.547 202.027 77.867 202.144 L 54.187 202.261 54.187 178.254 L 54.187 154.247 63.890 144.537 C 69.227 139.196,73.788 134.827,74.026 134.827 C 74.264 134.827,79.546 139.919,85.763 146.144 C 98.366 158.762,98.710 159.004,102.167 157.683 C 105.413 156.444,106.960 153.158,105.706 150.166 C 105.342 149.297,100.488 144.005,93.858 137.251 L 82.627 125.808 90.266 118.160 L 97.905 110.513 109.219 121.766 C 121.495 133.976,122.274 134.546,125.406 133.607 C 128.542 132.668,130.340 129.341,129.517 125.999 C 129.322 125.207,125.363 120.927,117.844 113.382 L 106.466 101.965 123.098 85.329 C 132.245 76.179,139.827 68.693,139.946 68.693 C 140.065 68.693,150.818 79.350,163.841 92.374 " stroke="none" fill-rule="evenodd"></path></svg>