<svg fill="currentColor" viewBox="0 0 256 256" xmlns="http://www.w3.org/2000/svg"><path d="M120.747 26.275 C 119.925 26.371,117.429 26.659,115.200 26.916 C 81.926 30.747,51.311 52.559,36.501 82.987 C 31.830 92.583,28.821 102.069,27.028 112.853 C 26.049 118.740,25.922 135.898,26.813 141.867 C 30.199 164.545,39.998 184.188,55.882 200.136 C 70.846 215.160,89.707 224.913,111.193 228.737 C 118.393 230.018,132.986 230.331,140.373 229.363 C 174.853 224.842,204.266 204.023,219.274 173.514 C 224.137 163.629,227.180 154.114,228.985 143.147 C 230.089 136.443,230.083 119.494,228.975 112.853 C 227.085 101.532,221.985 85.948,219.152 82.839 C 216.243 79.648,211.726 80.064,209.491 83.729 C 208.217 85.819,208.432 87.302,210.813 92.852 C 217.942 109.466,219.809 128.608,216.047 146.520 C 209.431 178.025,186.732 203.314,155.896 213.536 C 130.436 221.976,101.390 218.077,78.933 203.206 C 73.017 199.289,70.620 197.354,65.410 192.297 C 48.049 175.441,38.400 152.479,38.400 128.017 C 38.400 82.238,72.340 44.148,117.908 38.790 C 120.476 38.488,125.532 38.378,130.921 38.507 C 138.214 38.681,140.722 38.916,145.471 39.871 C 159.564 42.703,173.733 49.292,184.472 58.009 L 187.341 60.337 174.598 73.080 L 161.855 85.823 158.261 83.415 C 152.559 79.596,147.188 77.237,140.160 75.468 C 135.249 74.231,124.463 73.903,119.158 74.829 C 96.479 78.788,79.224 95.822,74.807 118.613 C 73.861 123.491,73.874 132.570,74.833 137.531 C 77.055 149.030,82.195 158.564,90.517 166.624 C 96.615 172.531,102.459 176.225,109.980 178.926 C 121.205 182.958,134.742 182.961,146.020 178.933 C 163.845 172.566,177.160 157.222,180.876 138.766 C 182.048 132.946,182.421 126.913,181.774 124.219 C 181.026 121.101,179.090 119.467,176.142 119.467 C 171.507 119.467,169.813 121.929,169.813 128.667 C 169.813 145.458,158.563 161.472,142.747 167.195 C 137.618 169.051,133.352 169.813,128.096 169.813 C 122.607 169.813,119.741 169.356,114.537 167.651 C 99.983 162.883,89.070 150.013,86.601 134.707 C 85.867 130.156,86.274 121.498,87.428 117.120 C 89.517 109.192,95.253 100.431,101.733 95.269 C 105.747 92.071,112.274 88.730,117.120 87.393 C 120.039 86.588,121.615 86.451,128.000 86.451 C 134.315 86.451,135.973 86.592,138.751 87.363 C 142.631 88.439,147.339 90.550,150.811 92.772 L 153.307 94.368 137.774 109.906 L 122.240 125.444 122.240 127.995 C 122.240 130.358,122.354 130.660,123.787 132.093 C 125.643 133.949,128.346 134.488,130.383 133.409 C 131.067 133.046,153.646 110.705,180.559 83.761 C 233.843 30.417,230.769 33.783,229.560 30.122 C 228.640 27.333,225.297 25.511,222.403 26.222 C 221.634 26.410,216.840 30.884,208.571 39.128 L 195.915 51.746 192.357 48.878 C 178.238 37.492,160.308 29.652,142.507 27.079 C 138.170 26.452,123.784 25.921,120.747 26.275 " stroke="none" fill-rule="evenodd"></path></svg>