<svg fill="currentColor" viewBox="0 0 256 256" xmlns="http://www.w3.org/2000/svg"><path d="M76.903 18.771 C 74.166 20.439,73.188 23.337,74.411 26.147 C 74.748 26.922,83.393 35.885,94.253 46.720 L 113.497 65.920 74.775 66.133 L 36.053 66.347 33.828 67.520 C 30.869 69.080,28.719 71.300,27.358 74.203 L 26.240 76.587 26.240 140.160 L 26.240 203.733 27.202 205.686 C 28.766 208.858,30.933 211.041,34.036 212.569 L 36.889 213.973 128.000 213.973 L 219.111 213.973 221.964 212.569 C 225.066 211.042,227.185 208.908,228.776 205.711 L 229.760 203.733 229.760 140.160 L 229.760 76.587 228.642 74.203 C 227.281 71.300,225.131 69.080,222.172 67.520 L 219.947 66.347 181.225 66.133 L 142.503 65.920 161.519 46.933 C 171.978 36.491,180.811 27.428,181.148 26.795 C 182.548 24.159,181.406 20.348,178.813 19.007 C 177.146 18.145,174.120 18.164,172.788 19.044 C 172.208 19.428,161.895 29.553,149.871 41.545 L 128.008 63.349 105.711 41.087 C 93.447 28.842,82.873 18.621,82.212 18.372 C 80.387 17.685,78.444 17.831,76.903 18.771 M217.586 78.908 C 217.888 79.472,217.995 99.082,217.921 140.442 L 217.813 201.148 216.747 201.688 C 215.179 202.481,40.821 202.481,39.253 201.688 L 38.187 201.148 38.079 140.442 C 38.005 99.082,38.112 79.472,38.414 78.908 C 38.850 78.092,40.202 78.080,128.000 78.080 C 215.798 78.080,217.150 78.092,217.586 78.908 " stroke="none" fill-rule="evenodd"></path></svg>