<svg fill="currentColor" viewBox="0 0 256 256" xmlns="http://www.w3.org/2000/svg"><path d="M126.754 66.265 C 28.871 104.613,24.077 106.541,22.049 108.360 C 17.285 112.632,16.688 119.468,20.629 124.628 C 23.442 128.313,23.629 128.367,54.102 134.350 L 81.707 139.770 81.920 171.538 C 82.117 200.914,82.191 203.435,82.900 205.013 C 84.956 209.592,88.325 212.423,93.120 213.601 C 95.800 214.260,96.200 214.260,98.880 213.604 C 100.532 213.199,102.598 212.309,103.724 211.516 C 104.805 210.755,111.705 203.893,119.059 196.267 C 126.412 188.640,132.572 182.400,132.748 182.400 C 132.923 182.400,142.595 190.752,154.240 200.960 C 165.885 211.168,176.313 219.997,177.413 220.581 C 179.135 221.494,179.977 221.643,183.467 221.648 C 186.901 221.652,187.841 221.495,189.620 220.620 C 192.380 219.261,194.836 216.756,196.073 214.036 C 197.541 210.813,238.231 33.578,237.903 31.841 C 237.293 28.613,234.081 25.996,230.799 26.052 C 229.912 26.067,188.805 41.955,126.754 66.265 M222.720 46.363 C 222.720 47.180,185.447 208.542,185.112 209.173 C 184.895 209.584,184.253 209.920,183.685 209.920 C 182.927 209.920,171.446 200.088,140.287 172.754 C 116.985 152.313,97.956 135.465,98.001 135.314 C 98.105 134.961,221.975 46.125,222.400 46.099 C 222.576 46.089,222.720 46.207,222.720 46.363 M137.860 91.753 L 86.613 128.466 58.669 123.006 C 42.908 119.927,30.768 117.361,30.825 117.120 C 30.922 116.708,187.354 55.170,188.527 55.083 C 188.846 55.059,166.046 71.561,137.860 91.753 M108.983 161.222 C 116.861 168.113,123.307 173.932,123.307 174.153 C 123.307 174.374,117.437 180.640,110.264 188.078 C 96.783 202.054,95.732 202.921,94.421 201.128 C 93.981 200.526,93.867 195.027,93.867 174.390 C 93.867 158.574,94.022 148.465,94.263 148.551 C 94.481 148.629,101.105 154.331,108.983 161.222 " stroke="none" fill-rule="evenodd"></path></svg>