<svg fill="currentColor" viewBox="0 0 256 256" xmlns="http://www.w3.org/2000/svg"><path d="M69.760 50.522 C 69.056 50.835,68.081 51.548,67.593 52.106 C 67.105 52.664,52.157 85.851,34.374 125.855 C 3.452 195.420,2.052 198.680,2.240 200.642 C 2.463 202.961,3.651 204.557,5.853 205.495 C 7.906 206.370,248.094 206.370,250.147 205.495 C 252.347 204.558,253.537 202.960,253.759 200.648 C 253.947 198.694,252.508 195.343,221.645 125.861 C 203.873 85.854,188.925 52.663,188.427 52.105 C 186.385 49.819,189.165 49.919,127.907 49.937 C 81.469 49.950,70.805 50.058,69.760 50.522 M209.303 127.784 C 225.365 163.921,238.507 193.634,238.507 193.813 C 238.507 193.991,216.320 194.088,189.204 194.028 L 139.900 193.920 110.697 128.216 C 94.635 92.079,81.493 62.366,81.493 62.187 C 81.493 62.009,103.680 61.912,130.796 61.972 L 180.100 62.080 209.303 127.784 M66.133 139.520 L 66.133 194.133 41.764 194.133 C 18.756 194.133,17.406 194.092,17.610 193.387 C 17.729 192.976,28.424 168.832,41.377 139.733 C 54.331 110.635,65.099 86.395,65.307 85.867 C 65.515 85.339,65.786 84.907,65.909 84.907 C 66.033 84.907,66.133 109.483,66.133 139.520 M102.833 140.160 C 115.779 169.259,126.471 193.307,126.592 193.600 C 126.766 194.023,121.771 194.133,102.446 194.133 L 78.080 194.133 78.115 139.413 C 78.144 93.291,78.239 84.894,78.722 85.973 C 79.036 86.677,89.886 111.061,102.833 140.160 " stroke="none" fill-rule="evenodd"></path></svg>