<svg fill="currentColor" viewBox="0 0 256 256" xmlns="http://www.w3.org/2000/svg"><path d="M35.286 42.853 C 32.739 43.765,30.421 45.492,28.799 47.686 C 25.816 51.724,26.005 45.960,26.129 128.872 L 26.240 203.733 27.202 205.686 C 28.766 208.858,30.933 211.041,34.036 212.569 L 36.889 213.973 128.000 213.973 L 219.111 213.973 221.964 212.569 C 225.066 211.042,227.185 208.908,228.776 205.711 L 229.760 203.733 229.760 128.000 L 229.760 52.267 228.776 50.289 C 227.336 47.394,225.251 45.155,222.660 43.720 L 220.373 42.453 128.640 42.363 C 52.229 42.288,36.636 42.370,35.286 42.853 M217.549 54.765 C 217.902 55.190,218.000 74.718,217.921 128.246 L 217.813 201.148 216.747 201.688 C 215.179 202.481,40.821 202.481,39.253 201.688 L 38.187 201.148 38.079 128.246 C 38.000 74.718,38.098 55.190,38.451 54.765 C 39.168 53.901,216.832 53.901,217.549 54.765 M78.080 90.335 C 76.445 90.949,75.098 92.333,74.429 94.085 C 73.739 95.890,73.739 96.109,74.424 97.903 C 75.088 99.641,76.659 101.012,92.615 113.771 C 102.221 121.452,110.080 127.855,110.080 128.000 C 110.080 128.145,102.221 134.548,92.615 142.229 C 76.659 154.988,75.088 156.359,74.424 158.097 C 73.739 159.891,73.739 160.110,74.429 161.915 C 75.599 164.979,78.298 166.462,81.445 165.771 C 83.207 165.384,124.110 132.688,125.120 130.859 C 125.531 130.115,125.867 128.829,125.867 128.000 C 125.867 127.171,125.531 125.884,125.120 125.139 C 124.322 123.692,83.954 91.145,82.067 90.428 C 80.923 89.993,79.102 89.951,78.080 90.335 M133.205 154.813 C 129.061 157.023,129.117 163.304,133.298 165.288 C 134.564 165.889,137.362 165.973,156.011 165.973 C 179.707 165.972,179.352 166.013,181.057 163.061 C 182.736 160.153,181.649 156.232,178.759 154.774 C 177.408 154.093,175.430 154.029,155.947 154.045 C 136.423 154.061,134.494 154.126,133.205 154.813 " stroke="none" fill-rule="evenodd"></path></svg>