<svg fill="currentColor" viewBox="0 0 256 256" xmlns="http://www.w3.org/2000/svg"><path d="M37.229 58.728 C 34.242 60.201,33.150 64.572,35.093 67.283 C 35.621 68.020,51.029 81.905,69.333 98.138 C 87.637 114.372,102.613 127.809,102.613 127.999 C 102.613 128.189,87.637 141.618,69.333 157.840 C 51.029 174.063,35.621 187.934,35.093 188.664 C 33.850 190.386,33.805 193.288,34.993 195.211 C 36.496 197.642,40.232 198.701,42.627 197.374 C 43.191 197.061,60.129 182.163,80.266 164.267 C 112.517 135.605,116.963 131.507,117.591 129.864 C 119.076 125.974,120.963 127.901,80.266 91.733 C 60.129 73.837,43.191 58.939,42.627 58.626 C 41.238 57.856,38.909 57.900,37.229 58.728 M117.364 186.774 C 115.164 187.896,114.133 189.563,114.133 192.000 C 114.133 194.437,115.164 196.104,117.364 197.226 C 118.731 197.923,122.030 197.972,168.042 197.973 C 222.577 197.973,219.190 198.150,221.007 195.211 C 222.060 193.506,222.130 190.657,221.158 189.013 C 220.769 188.353,219.735 187.412,218.860 186.920 C 217.272 186.028,217.219 186.027,168.049 186.027 C 122.030 186.028,118.731 186.077,117.364 186.774 " stroke="none" fill-rule="evenodd"></path></svg>