<svg fill="currentColor" viewBox="0 0 256 256" xmlns="http://www.w3.org/2000/svg"><path d="M37.205 58.813 C 33.061 61.023,33.117 67.304,37.298 69.288 C 38.610 69.911,46.915 69.973,128.000 69.973 C 209.085 69.973,217.390 69.911,218.702 69.288 C 220.607 68.384,221.867 66.285,221.867 64.015 C 221.867 61.726,220.881 60.056,218.860 58.920 L 217.270 58.027 127.942 58.045 C 43.521 58.061,38.536 58.104,37.205 58.813 M36.821 98.969 C 32.794 101.424,33.400 107.597,37.853 109.495 C 39.903 110.369,216.097 110.369,218.147 109.495 C 220.358 108.553,221.537 106.962,221.762 104.618 C 222.006 102.080,221.126 100.157,219.179 98.969 C 217.836 98.150,216.327 98.137,128.000 98.137 C 39.673 98.137,38.164 98.150,36.821 98.969 M36.575 139.151 C 33.192 141.675,33.398 146.860,36.974 149.203 C 38.097 149.939,42.116 149.973,128.000 149.973 C 213.884 149.973,217.903 149.939,219.026 149.203 C 222.635 146.838,222.807 141.585,219.354 139.127 L 218.108 138.240 127.934 138.254 L 37.760 138.267 36.575 139.151 M38.171 178.374 C 33.571 179.711,32.708 186.523,36.821 189.031 C 38.164 189.850,39.673 189.863,128.000 189.863 C 216.327 189.863,217.836 189.850,219.179 189.031 C 223.400 186.457,222.413 179.677,217.624 178.346 C 215.690 177.809,40.020 177.836,38.171 178.374 " stroke="none" fill-rule="evenodd"></path></svg>