<svg fill="currentColor" viewBox="0 0 256 256" xmlns="http://www.w3.org/2000/svg"><path d="M37.205 58.813 C 33.061 61.023,33.117 67.304,37.298 69.288 C 38.590 69.901,42.669 69.973,76.011 69.973 C 110.644 69.972,113.385 69.919,114.759 69.226 C 118.858 67.158,118.858 60.842,114.759 58.774 C 113.384 58.080,110.662 58.029,75.947 58.045 C 41.152 58.061,38.518 58.113,37.205 58.813 M141.227 58.774 C 140.227 59.273,139.407 60.178,138.747 61.508 C 137.900 63.215,137.823 63.729,138.203 65.135 C 138.446 66.036,138.963 67.226,139.352 67.778 C 140.928 70.021,140.049 69.973,180.082 69.973 C 221.266 69.973,219.214 70.112,221.007 67.211 C 222.060 65.506,222.130 62.657,221.158 61.013 C 220.769 60.353,219.735 59.412,218.860 58.920 C 217.280 58.032,217.040 58.027,179.995 58.027 C 145.362 58.028,142.614 58.081,141.227 58.774 M36.821 98.969 C 32.794 101.424,33.400 107.597,37.853 109.495 C 38.980 109.975,45.802 110.080,76.012 110.080 C 111.794 110.080,112.845 110.057,114.541 109.236 C 116.683 108.199,117.902 106.245,117.902 103.847 C 117.902 101.731,116.971 100.127,115.070 98.968 C 113.746 98.160,112.623 98.137,75.947 98.137 C 39.247 98.137,38.148 98.160,36.821 98.969 M140.930 98.968 C 139.029 100.127,138.098 101.731,138.098 103.847 C 138.098 106.245,139.317 108.199,141.459 109.236 C 143.155 110.057,144.206 110.080,179.988 110.080 C 219.739 110.080,218.370 110.157,220.541 107.802 C 221.894 106.335,222.243 103.085,221.253 101.172 C 220.864 100.419,219.931 99.427,219.179 98.969 C 217.852 98.160,216.753 98.137,180.053 98.137 C 143.377 98.137,142.254 98.160,140.930 98.968 M36.575 139.151 C 33.192 141.675,33.398 146.860,36.974 149.203 C 38.079 149.928,40.302 149.981,74.434 150.101 C 94.391 150.171,111.544 150.110,112.551 149.965 C 117.805 149.211,119.752 143.012,115.819 139.559 L 114.317 138.240 76.038 138.254 C 37.992 138.267,37.753 138.272,36.575 139.151 M140.181 139.559 C 136.248 143.012,138.195 149.211,143.449 149.965 C 144.456 150.110,161.609 150.171,181.566 150.101 C 215.698 149.981,217.921 149.928,219.026 149.203 C 222.635 146.838,222.806 141.585,219.354 139.127 C 218.115 138.245,217.907 138.240,179.896 138.240 L 141.683 138.240 140.181 139.559 M38.171 178.374 C 33.571 179.711,32.708 186.523,36.821 189.031 C 38.148 189.840,39.247 189.863,75.947 189.863 C 112.623 189.863,113.746 189.840,115.070 189.032 C 116.971 187.873,117.902 186.269,117.902 184.153 C 117.902 181.755,116.683 179.801,114.541 178.764 C 112.843 177.942,111.836 177.921,76.132 177.958 C 55.966 177.980,38.883 178.167,38.171 178.374 M141.426 178.772 C 139.302 179.824,138.098 181.771,138.098 184.153 C 138.098 186.269,139.029 187.873,140.930 189.032 C 142.254 189.840,143.377 189.863,180.053 189.863 C 216.753 189.863,217.852 189.840,219.179 189.031 C 223.400 186.457,222.413 179.677,217.624 178.346 C 216.679 178.084,202.339 177.924,179.627 177.923 C 144.027 177.921,143.105 177.941,141.426 178.772 " stroke="none" fill-rule="evenodd"></path></svg>