<svg fill="currentColor" viewBox="0 0 256 256" xmlns="http://www.w3.org/2000/svg"><path d="M70.171 50.361 C 69.458 50.575,68.306 51.344,67.611 52.070 L 66.347 53.389 66.220 97.201 C 66.131 128.214,66.236 142.008,66.578 144.419 C 70.288 170.520,89.410 190.906,115.678 196.764 C 119.432 197.602,121.309 197.752,128.000 197.752 C 134.691 197.752,136.568 197.602,140.322 196.764 C 166.590 190.906,185.712 170.520,189.422 144.419 C 189.764 142.008,189.869 128.214,189.780 97.201 L 189.653 53.389 188.394 52.074 C 186.179 49.763,182.983 49.466,180.325 51.326 C 177.824 53.075,177.920 51.231,177.918 97.586 C 177.917 132.913,177.810 140.815,177.292 144.010 C 175.332 156.098,168.864 167.233,159.364 174.876 C 153.497 179.595,147.652 182.478,139.556 184.647 C 135.903 185.626,134.671 185.743,128.000 185.743 C 121.329 185.743,120.097 185.626,116.444 184.647 C 114.194 184.044,110.868 182.956,109.051 182.229 C 95.670 176.871,84.968 165.291,80.433 151.263 C 78.098 144.042,78.084 143.713,78.082 97.586 C 78.080 62.255,77.979 54.772,77.488 53.596 C 76.396 50.982,73.038 49.497,70.171 50.361 M61.116 218.878 C 57.091 221.332,57.091 226.668,61.116 229.122 C 62.488 229.959,63.399 229.970,128.000 229.970 C 192.601 229.970,193.512 229.959,194.884 229.122 C 198.909 226.668,198.909 221.332,194.884 218.878 C 193.512 218.041,192.601 218.030,128.000 218.030 C 63.399 218.030,62.488 218.041,61.116 218.878 " stroke="none" fill-rule="evenodd"></path></svg>