<svg fill="currentColor" viewBox="0 0 256 256" xmlns="http://www.w3.org/2000/svg"><path d="M38.171 50.361 C 37.458 50.575,36.306 51.344,35.611 52.070 L 34.347 53.389 34.239 115.548 C 34.134 176.570,34.147 177.732,34.965 179.070 C 36.129 180.972,37.732 181.902,39.847 181.902 C 42.245 181.902,44.199 180.683,45.236 178.541 C 46.050 176.859,46.080 175.827,46.080 149.412 L 46.080 122.027 91.935 122.027 L 137.790 122.027 137.908 149.942 C 138.025 177.378,138.042 177.878,138.906 179.036 C 141.841 182.965,146.160 182.965,149.094 179.036 C 149.973 177.858,149.973 177.809,149.973 116.129 C 149.973 55.382,149.960 54.378,149.129 53.004 C 148.281 51.601,145.485 49.920,144.000 49.920 C 142.515 49.920,139.719 51.601,138.871 53.004 C 138.056 54.351,138.023 55.369,137.908 82.240 L 137.790 110.080 91.935 110.080 L 46.080 110.080 46.080 82.546 C 46.080 60.035,45.972 54.754,45.488 53.596 C 44.396 50.982,41.038 49.497,38.171 50.361 M216.140 107.627 C 214.770 108.938,184.748 158.777,181.584 164.993 C 179.104 169.863,178.167 173.943,178.171 179.840 C 178.176 185.660,178.900 189.126,181.128 193.995 C 185.505 203.563,193.438 210.211,203.733 212.938 C 208.503 214.202,215.666 214.206,220.373 212.948 C 232.485 209.711,241.702 200.495,244.950 188.373 C 246.326 183.239,246.237 176.004,244.735 170.962 C 241.727 160.861,235.342 153.406,226.065 149.160 C 221.178 146.924,217.710 146.207,211.754 146.202 C 208.152 146.198,206.636 146.056,206.833 145.739 C 212.796 136.102,225.721 113.973,225.923 113.053 C 226.322 111.237,225.455 109.042,223.746 107.541 C 222.479 106.429,221.924 106.240,219.926 106.240 C 217.869 106.240,217.413 106.407,216.140 107.627 M217.600 158.778 C 222.680 159.927,228.646 164.645,231.346 169.649 C 234.641 175.754,234.641 184.385,231.346 190.440 C 224.266 203.452,206.527 205.851,196.281 195.182 C 185.533 183.988,189.372 165.754,203.754 159.689 C 207.723 158.015,212.762 157.684,217.600 158.778 " stroke="none" fill-rule="evenodd"></path></svg>