<svg fill="currentColor" viewBox="0 0 256 256" xmlns="http://www.w3.org/2000/svg"><path d="M38.171 50.361 C 37.458 50.575,36.306 51.344,35.611 52.070 L 34.347 53.389 34.239 115.548 C 34.134 176.570,34.147 177.732,34.965 179.070 C 36.129 180.972,37.732 181.902,39.847 181.902 C 42.245 181.902,44.199 180.683,45.236 178.541 C 46.050 176.859,46.080 175.827,46.080 149.412 L 46.080 122.027 91.935 122.027 L 137.790 122.027 137.908 149.942 C 138.025 177.378,138.042 177.878,138.906 179.036 C 141.841 182.965,146.160 182.965,149.094 179.036 C 149.973 177.858,149.973 177.809,149.973 116.129 C 149.973 55.382,149.960 54.378,149.129 53.004 C 148.281 51.601,145.485 49.920,144.000 49.920 C 142.515 49.920,139.719 51.601,138.871 53.004 C 138.056 54.351,138.023 55.369,137.908 82.240 L 137.790 110.080 91.935 110.080 L 46.080 110.080 46.080 82.546 C 46.080 60.035,45.972 54.754,45.488 53.596 C 44.396 50.982,41.038 49.497,38.171 50.361 M208.840 107.041 C 200.228 109.160,193.057 114.906,189.101 122.858 C 187.831 125.412,187.520 126.516,187.520 128.483 C 187.520 130.605,187.685 131.103,188.764 132.229 C 191.045 134.610,194.463 134.966,196.868 133.074 C 197.480 132.592,198.735 130.620,199.656 128.691 C 201.680 124.450,204.390 121.727,208.545 119.759 C 211.232 118.486,211.711 118.400,216.107 118.405 C 220.506 118.410,220.974 118.495,223.578 119.765 C 228.476 122.153,232.059 126.604,233.413 131.983 C 234.158 134.938,233.731 140.104,232.509 142.933 C 231.878 144.395,223.068 156.524,209.146 175.097 C 196.854 191.496,186.600 205.476,186.360 206.164 C 185.832 207.679,186.166 210.057,187.107 211.494 C 187.488 212.076,188.601 212.915,189.580 213.360 C 191.260 214.122,192.732 214.168,215.680 214.175 C 230.413 214.179,240.598 214.016,241.518 213.760 C 246.125 212.480,247.424 206.724,243.819 203.559 L 242.317 202.240 223.300 202.240 C 206.964 202.240,204.315 202.154,204.517 201.628 C 204.646 201.292,212.830 190.249,222.704 177.088 C 232.578 163.927,241.215 152.250,241.897 151.139 C 243.593 148.379,245.312 143.062,245.739 139.261 C 246.775 130.022,243.027 120.243,236.030 113.928 C 232.578 110.812,226.693 107.743,222.507 106.874 C 218.552 106.054,212.554 106.127,208.840 107.041 " stroke="none" fill-rule="evenodd"></path></svg>