<svg fill="currentColor" viewBox="0 0 256 256" xmlns="http://www.w3.org/2000/svg"><path d="M36.907 51.195 C 34.531 52.758,33.587 55.648,34.580 58.319 C 34.825 58.980,43.223 67.727,53.242 77.758 L 71.458 95.995 53.036 114.451 C 40.522 126.987,34.520 133.291,34.321 134.106 C 33.216 138.629,36.864 142.687,41.308 141.879 C 42.678 141.629,45.599 138.873,64.074 120.396 C 81.583 102.886,85.342 98.922,85.693 97.600 C 86.621 94.105,86.901 94.444,64.711 72.184 C 53.408 60.845,43.642 51.293,43.008 50.957 C 41.350 50.079,38.430 50.192,36.907 51.195 M109.227 58.774 C 108.227 59.273,107.407 60.178,106.747 61.508 C 105.900 63.215,105.823 63.729,106.203 65.135 C 106.446 66.036,106.963 67.226,107.352 67.778 C 108.954 70.059,106.745 69.973,164.082 69.973 C 223.010 69.973,219.185 70.159,221.007 67.211 C 222.060 65.506,222.130 62.657,221.158 61.013 C 220.769 60.353,219.735 59.412,218.860 58.920 L 217.270 58.027 163.995 58.027 C 114.130 58.028,110.624 58.076,109.227 58.774 M109.227 122.774 C 108.227 123.273,107.407 124.178,106.747 125.508 C 105.900 127.215,105.823 127.729,106.203 129.135 C 106.446 130.036,106.963 131.226,107.352 131.778 C 108.954 134.059,106.745 133.973,164.082 133.973 C 223.010 133.973,219.185 134.159,221.007 131.211 C 222.060 129.506,222.130 126.657,221.158 125.013 C 220.769 124.353,219.735 123.412,218.860 122.920 L 217.270 122.027 163.995 122.027 C 114.130 122.028,110.624 122.076,109.227 122.774 M37.205 186.813 C 33.061 189.023,33.117 195.304,37.298 197.288 C 38.610 197.911,46.915 197.973,128.000 197.973 C 209.085 197.973,217.390 197.911,218.702 197.288 C 220.607 196.384,221.867 194.285,221.867 192.015 C 221.867 189.726,220.881 188.056,218.860 186.920 L 217.270 186.027 127.942 186.045 C 43.521 186.061,38.536 186.104,37.205 186.813 " stroke="none" fill-rule="evenodd"></path></svg>