<svg fill="currentColor" viewBox="0 0 256 256" xmlns="http://www.w3.org/2000/svg"><path d="M37.205 58.813 C 33.061 61.023,33.117 67.304,37.298 69.288 C 38.610 69.911,46.915 69.973,128.000 69.973 C 209.085 69.973,217.390 69.911,218.702 69.288 C 220.607 68.384,221.867 66.285,221.867 64.015 C 221.867 61.726,220.881 60.056,218.860 58.920 L 217.270 58.027 127.942 58.045 C 43.521 58.061,38.536 58.104,37.205 58.813 M60.800 98.981 C 56.919 101.536,57.276 107.236,61.449 109.333 C 62.843 110.033,66.904 110.079,128.000 110.079 C 189.104 110.079,193.156 110.033,194.530 109.333 C 198.687 107.213,199.071 101.379,195.211 98.993 C 193.831 98.141,193.249 98.133,127.950 98.136 C 63.085 98.139,62.060 98.152,60.800 98.981 M36.575 139.151 C 33.192 141.675,33.398 146.860,36.974 149.203 C 38.097 149.939,42.116 149.973,128.000 149.973 C 213.884 149.973,217.903 149.939,219.026 149.203 C 222.635 146.838,222.807 141.585,219.354 139.127 L 218.108 138.240 127.934 138.254 L 37.760 138.267 36.575 139.151 M62.141 178.356 C 57.449 179.773,56.605 186.421,60.789 189.007 C 62.169 189.859,62.754 189.867,128.000 189.867 C 193.246 189.867,193.831 189.859,195.211 189.007 C 198.812 186.781,198.755 181.277,195.106 178.886 C 194.023 178.176,190.255 178.129,128.659 178.061 C 92.744 178.021,62.811 178.153,62.141 178.356 " stroke="none" fill-rule="evenodd"></path></svg>