<svg fill="currentColor" viewBox="0 0 256 256" xmlns="http://www.w3.org/2000/svg"><path d="M77.210 50.880 L 75.307 51.840 43.438 119.467 C 25.911 156.661,11.159 188.149,10.657 189.440 C 9.866 191.473,9.811 192.010,10.244 193.458 C 11.272 196.896,14.499 198.622,17.961 197.585 C 18.877 197.310,20.018 196.557,20.496 195.910 C 20.974 195.263,25.252 186.487,30.003 176.407 L 38.640 158.080 80.000 158.080 L 121.360 158.080 129.997 176.407 C 134.748 186.487,139.026 195.263,139.504 195.910 C 141.156 198.144,145.398 198.538,147.763 196.678 C 148.355 196.212,149.156 195.002,149.543 193.989 C 150.208 192.248,150.202 192.020,149.434 189.833 C 148.527 187.248,86.714 55.836,85.102 53.064 C 84.385 51.832,83.558 51.094,82.350 50.611 C 80.084 49.704,79.479 49.736,77.210 50.880 M97.909 108.221 L 115.553 145.707 97.915 145.818 C 88.214 145.879,72.216 145.879,62.363 145.818 L 44.448 145.707 62.176 108.041 C 71.926 87.324,79.985 70.456,80.084 70.555 C 80.184 70.655,88.205 87.604,97.909 108.221 M193.707 98.333 C 193.355 98.415,191.627 98.716,189.867 99.001 C 181.181 100.406,171.417 106.136,170.236 110.522 C 169.109 114.707,173.309 118.960,177.407 117.785 C 178.155 117.570,179.873 116.527,181.224 115.466 C 182.575 114.406,184.793 113.047,186.153 112.446 C 192.146 109.798,202.787 109.357,209.108 111.494 C 220.749 115.430,226.613 123.976,226.051 136.187 L 225.920 139.040 223.360 137.298 C 219.891 134.938,214.487 132.432,210.468 131.320 C 207.710 130.558,205.953 130.398,200.107 130.379 C 191.825 130.353,188.309 131.090,181.973 134.182 C 172.187 138.959,165.003 147.568,162.744 157.227 C 161.708 161.656,162.101 169.381,163.577 173.598 C 166.990 183.351,174.405 190.958,184.398 194.960 C 190.189 197.278,192.815 197.732,200.320 197.712 C 206.475 197.696,207.516 197.581,210.895 196.551 C 215.879 195.032,219.618 193.298,222.979 190.949 C 224.502 189.884,225.834 189.013,225.940 189.013 C 226.047 189.013,226.133 190.095,226.133 191.416 C 226.133 194.358,227.201 196.293,229.399 197.336 C 232.340 198.731,235.806 197.506,237.341 194.530 C 238.046 193.161,238.087 190.924,237.971 160.000 C 237.831 122.785,238.033 125.207,234.457 117.916 C 231.206 111.288,225.236 105.660,217.569 101.995 C 211.913 99.290,208.203 98.480,200.747 98.320 C 197.227 98.244,194.059 98.250,193.707 98.333 M209.108 143.494 C 220.517 147.351,227.063 156.585,225.647 166.823 C 225.115 170.670,223.297 174.285,220.269 177.521 C 217.223 180.776,213.535 183.069,208.853 184.618 C 205.953 185.578,204.671 185.751,200.320 185.772 C 194.399 185.801,191.373 185.134,186.499 182.728 C 182.787 180.896,178.313 176.705,176.547 173.408 C 172.196 165.281,173.678 156.402,180.508 149.680 C 183.878 146.363,188.898 143.684,193.568 142.711 C 198.057 141.776,205.070 142.129,209.108 143.494 " stroke="none" fill-rule="evenodd"></path></svg>