<svg fill="currentColor" viewBox="0 0 256 256" xmlns="http://www.w3.org/2000/svg"><path d="M68.126 43.637 C 67.297 44.419,66.504 45.529,66.365 46.103 C 66.225 46.677,66.164 82.123,66.229 124.872 L 66.347 202.598 67.413 203.754 C 69.650 206.178,67.720 206.080,113.160 206.078 C 147.924 206.077,155.751 205.970,158.943 205.452 C 188.814 200.607,206.011 169.498,194.184 141.704 C 191.380 135.116,185.583 127.758,179.666 123.278 C 176.944 121.216,169.790 117.328,167.744 116.797 C 166.802 116.553,166.924 116.352,169.761 113.487 C 185.512 97.579,186.009 72.373,170.902 55.580 C 166.423 50.602,158.817 45.896,151.587 43.630 L 147.840 42.456 108.737 42.335 L 69.634 42.214 68.126 43.637 M147.361 55.027 C 157.886 57.718,166.282 66.114,168.973 76.639 C 170.664 83.250,169.857 91.021,166.852 97.067 C 162.715 105.390,156.019 110.794,147.025 113.067 C 143.796 113.883,142.236 113.920,110.865 113.920 L 78.080 113.920 78.080 84.053 L 78.080 54.187 111.078 54.187 C 142.504 54.187,144.233 54.227,147.361 55.027 M160.000 126.886 C 161.525 127.305,164.772 128.609,167.214 129.784 C 171.105 131.656,172.140 132.404,175.577 135.827 C 180.005 140.237,182.413 143.973,184.112 149.070 C 186.492 156.212,186.492 163.788,184.112 170.930 C 181.098 179.974,173.534 187.975,164.628 191.541 C 158.224 194.105,157.702 194.133,115.997 194.133 L 78.080 194.133 78.080 159.978 L 78.080 125.822 117.653 125.973 C 154.054 126.111,157.449 126.184,160.000 126.886 " stroke="none" fill-rule="evenodd"></path></svg>