<svg fill="currentColor" viewBox="0 0 256 256" xmlns="http://www.w3.org/2000/svg"><path d="M119.893 10.903 C 107.617 13.538,96.836 22.837,92.421 34.598 C 90.005 41.034,90.027 40.530,90.024 89.754 L 90.021 135.040 87.405 137.173 C 79.758 143.410,72.524 154.269,69.168 164.550 C 66.781 171.862,66.347 174.840,66.347 183.893 C 66.347 193.158,66.801 196.182,69.334 203.798 C 79.142 233.283,110.008 250.996,140.577 244.682 C 161.863 240.285,179.830 224.347,186.666 203.798 C 189.199 196.182,189.653 193.158,189.653 183.893 C 189.653 174.840,189.219 171.862,186.832 164.550 C 183.476 154.269,176.242 143.410,168.595 137.173 L 165.979 135.040 165.976 89.744 C 165.973 40.820,166.009 41.671,163.676 34.962 C 159.620 23.300,148.273 13.434,136.018 10.916 C 131.972 10.084,123.739 10.078,119.893 10.903 M133.632 22.652 C 137.189 23.383,142.426 26.115,145.342 28.760 C 148.716 31.820,150.877 35.106,152.508 39.661 L 153.813 43.307 154.027 91.733 C 154.144 118.368,154.405 140.496,154.606 140.907 C 154.807 141.318,156.573 142.905,158.530 144.433 C 165.163 149.612,171.015 157.183,174.085 164.557 C 178.593 175.386,179.144 188.640,175.538 199.484 C 166.805 225.745,138.417 240.077,112.319 231.401 C 89.381 223.775,75.097 200.512,78.696 176.638 C 79.852 168.971,82.906 161.390,87.374 155.093 C 90.526 150.651,92.616 148.444,97.038 144.888 C 99.726 142.725,101.182 141.236,101.501 140.322 C 101.835 139.362,101.973 125.399,101.973 92.505 C 101.973 40.736,101.884 42.454,104.882 36.267 C 107.893 30.054,114.887 24.453,121.693 22.805 C 124.524 22.119,130.662 22.041,133.632 22.652 M126.141 82.345 C 124.777 82.769,123.475 83.827,122.734 85.115 C 122.376 85.737,122.181 95.422,122.027 120.261 L 121.813 154.550 119.467 155.283 C 113.474 157.157,107.758 161.063,104.323 165.633 C 101.935 168.810,100.930 170.709,99.521 174.712 C 98.223 178.398,97.754 185.499,98.541 189.550 C 102.062 207.663,120.946 218.390,138.216 212.087 C 150.246 207.697,157.867 196.756,157.867 183.873 C 157.867 174.736,153.746 166.155,146.720 160.657 C 143.552 158.178,140.293 156.459,136.533 155.283 L 134.187 154.550 133.973 120.242 C 133.775 88.397,133.706 85.853,133.007 84.787 C 131.575 82.601,128.657 81.564,126.141 82.345 M134.467 167.242 C 143.909 170.800,148.552 182.221,144.274 191.363 C 137.711 205.390,118.295 205.401,111.734 191.382 C 106.975 181.211,113.200 168.720,124.179 166.412 C 126.892 165.842,131.805 166.238,134.467 167.242 " stroke="none" fill-rule="evenodd"></path></svg>