<svg fill="currentColor" viewBox="0 0 256 256" xmlns="http://www.w3.org/2000/svg"><path d="M27.189 42.889 C 24.719 43.800,21.868 46.038,20.449 48.181 C 17.786 52.201,17.890 49.936,18.017 100.941 L 18.133 147.413 19.055 149.408 C 20.298 152.098,23.180 155.137,25.796 156.518 L 27.947 157.653 52.062 157.773 L 76.177 157.893 95.582 196.753 C 111.867 229.366,115.222 235.794,116.451 236.740 C 117.798 237.776,118.226 237.864,121.784 237.828 C 126.349 237.782,131.358 236.589,136.010 234.440 C 144.461 230.535,151.884 222.612,155.408 213.733 C 157.495 208.475,157.867 205.387,157.867 193.319 L 157.867 182.228 188.907 182.101 L 219.947 181.973 222.720 180.974 C 230.673 178.108,235.846 172.171,237.544 163.961 L 238.252 160.537 231.943 110.029 C 227.607 75.306,225.371 58.720,224.790 56.960 C 223.000 51.535,218.960 47.039,213.366 44.247 L 209.771 42.453 119.286 42.374 C 42.878 42.307,28.549 42.387,27.189 42.889 M73.813 100.053 L 73.813 145.920 52.282 145.920 C 31.431 145.920,30.736 145.894,30.308 145.095 C 29.694 143.947,29.694 56.159,30.308 55.012 C 30.736 54.213,31.431 54.187,52.282 54.187 L 73.813 54.187 73.813 100.053 M209.058 55.573 C 210.843 56.649,211.632 57.486,212.581 59.307 C 213.763 61.577,214.002 63.251,219.933 110.961 C 226.689 165.300,226.497 162.604,223.851 166.074 C 223.107 167.049,221.546 168.337,220.381 168.937 L 218.264 170.027 183.905 170.240 C 146.396 170.473,148.543 170.314,146.930 172.978 C 146.204 174.176,146.111 175.685,145.881 189.867 C 145.675 202.616,145.504 205.810,144.938 207.479 C 141.784 216.781,133.969 223.842,125.013 225.480 L 123.520 225.753 104.853 188.396 L 86.187 151.039 86.187 102.613 L 86.187 54.187 146.472 54.187 L 206.758 54.187 209.058 55.573 " stroke="none" fill-rule="evenodd"></path></svg>