<svg fill="currentColor" viewBox="0 0 256 256" xmlns="http://www.w3.org/2000/svg"><path d="M28.557 50.501 C 24.203 51.680,21.236 54.213,19.238 58.453 L 18.133 60.800 18.006 75.445 C 17.865 91.626,18.037 93.090,20.514 96.689 C 22.922 100.189,24.305 101.005,31.883 103.399 C 38.488 105.485,43.940 110.000,47.075 115.981 C 49.101 119.845,49.920 123.304,49.920 128.000 C 49.920 135.450,47.572 141.075,42.263 146.347 C 38.569 150.015,35.384 151.867,30.492 153.194 C 24.271 154.881,21.429 157.027,19.243 161.687 L 18.133 164.053 18.133 179.627 L 18.133 195.200 19.243 197.566 C 20.827 200.943,22.701 202.873,25.948 204.471 L 28.782 205.867 127.991 205.867 L 227.200 205.867 229.566 204.757 C 232.942 203.173,234.873 201.300,236.471 198.054 L 237.867 195.221 237.994 180.565 C 238.135 164.358,237.964 162.912,235.473 159.291 C 233.306 156.141,230.757 154.597,224.950 152.914 C 219.983 151.475,217.130 149.787,213.544 146.165 C 210.217 142.806,207.834 138.727,206.756 134.552 C 205.885 131.175,205.885 124.825,206.756 121.448 C 209.060 112.518,216.949 104.795,225.920 102.688 C 230.798 101.543,233.173 100.051,235.498 96.672 C 237.962 93.091,238.135 91.614,237.994 75.435 L 237.867 60.779 236.471 57.946 C 234.873 54.700,232.942 52.827,229.566 51.243 L 227.200 50.133 128.853 50.053 C 51.823 49.990,30.084 50.087,28.557 50.501 M90.027 128.000 L 90.027 194.133 60.800 194.133 C 32.142 194.133,31.557 194.117,30.720 193.280 C 29.905 192.465,29.867 191.858,29.867 179.812 C 29.867 172.190,30.036 166.881,30.295 166.397 C 30.569 165.885,32.066 165.189,34.455 164.464 C 41.586 162.297,48.117 158.222,52.298 153.327 C 58.840 145.671,61.867 137.659,61.867 128.000 C 61.867 118.327,58.842 110.331,52.273 102.643 C 48.244 97.927,40.508 93.134,34.347 91.537 C 29.623 90.313,29.867 91.142,29.867 76.326 C 29.867 64.142,29.905 63.535,30.720 62.720 C 31.557 61.883,32.142 61.867,60.800 61.867 L 90.027 61.867 90.027 128.000 M225.280 62.720 C 226.095 63.535,226.133 64.142,226.133 76.326 C 226.133 91.069,226.348 90.301,221.893 91.481 C 208.431 95.046,197.668 106.542,194.811 120.409 C 193.959 124.541,193.939 131.712,194.767 135.649 C 197.401 148.170,206.238 158.679,218.062 163.350 C 219.842 164.053,222.028 164.765,222.921 164.932 C 226.201 165.548,226.133 165.236,226.133 179.627 C 226.133 191.858,226.095 192.465,225.280 193.280 C 224.435 194.125,223.858 194.133,163.200 194.133 L 101.973 194.133 101.973 128.000 L 101.973 61.867 163.200 61.867 C 223.858 61.867,224.435 61.875,225.280 62.720 " stroke="none" fill-rule="evenodd"></path></svg>