<svg fill="currentColor" viewBox="0 0 256 256" xmlns="http://www.w3.org/2000/svg"><path d="M126.141 18.351 C 125.470 18.556,124.539 19.071,124.070 19.494 C 121.921 21.440,122.027 17.769,122.019 90.112 C 122.011 164.857,122.159 160.814,119.222 166.404 C 112.464 179.264,94.868 181.840,84.514 171.486 C 74.270 161.242,76.594 144.404,89.292 136.860 C 94.254 133.912,93.893 136.168,93.764 108.934 L 93.653 85.389 92.410 84.091 C 90.444 82.040,88.933 81.739,84.809 82.579 C 77.212 84.126,67.691 88.037,60.934 92.385 C 46.621 101.597,35.758 115.489,30.103 131.810 C 20.090 160.716,29.035 193.039,52.480 212.668 C 74.988 231.512,106.759 235.318,132.787 222.288 C 151.999 212.670,166.325 195.159,171.528 174.933 C 173.727 166.387,173.753 166.005,173.951 138.811 L 174.139 113.142 179.763 115.857 C 192.701 122.103,208.240 125.867,221.091 125.867 C 225.087 125.867,226.035 125.733,227.211 125.007 C 230.003 123.281,229.973 123.548,229.973 100.082 C 229.973 76.752,229.969 76.710,227.376 75.133 C 226.489 74.593,224.868 74.215,222.764 74.056 C 208.802 73.000,198.753 68.786,189.724 60.201 C 187.850 58.418,185.181 55.437,183.794 53.575 C 177.982 45.774,174.080 34.434,174.080 25.342 C 174.080 22.364,173.268 20.445,171.462 19.157 L 170.027 18.133 148.693 18.056 C 136.960 18.013,126.811 18.146,126.141 18.351 M162.304 30.827 C 162.407 31.355,162.804 33.515,163.188 35.627 C 167.863 61.371,189.620 81.932,216.000 85.535 L 218.027 85.812 218.027 99.866 C 218.027 107.596,217.941 113.920,217.835 113.920 C 216.445 113.920,206.701 112.406,203.947 111.763 C 194.163 109.476,183.299 104.849,174.981 99.426 C 172.331 97.697,169.652 96.278,168.772 96.135 C 166.714 95.801,164.078 97.007,162.979 98.785 C 162.159 100.113,162.133 100.986,162.124 127.624 C 162.111 162.280,161.792 166.713,158.639 176.000 C 151.574 196.807,134.156 212.079,112.080 216.822 C 105.733 218.185,94.240 218.178,87.893 216.807 C 75.169 214.057,65.380 208.792,56.500 199.922 C 47.855 191.285,42.719 182.319,39.930 170.993 C 35.646 153.598,38.890 135.685,49.111 120.293 C 52.624 115.003,60.746 106.854,65.920 103.430 C 70.152 100.629,74.633 98.317,79.040 96.662 L 81.920 95.581 81.920 111.485 L 81.920 127.389 80.612 128.162 C 78.280 129.540,73.862 133.999,71.889 136.967 C 67.591 143.431,65.933 149.392,66.253 157.227 C 66.505 163.402,67.211 166.213,69.828 171.451 C 73.089 177.982,79.226 183.866,85.915 186.875 C 91.201 189.254,93.160 189.638,100.053 189.642 C 106.191 189.646,106.619 189.589,110.507 188.241 C 116.172 186.278,119.941 183.934,123.951 179.881 C 127.556 176.239,130.242 172.146,131.819 167.893 C 134.029 161.935,133.973 163.830,133.973 94.469 L 133.973 29.867 148.045 29.867 L 162.117 29.867 162.304 30.827 " stroke="none" fill-rule="evenodd"></path></svg>