<svg fill="currentColor" viewBox="0 0 256 256" xmlns="http://www.w3.org/2000/svg"><path d="M67.978 26.638 C 63.935 27.909,60.400 31.234,58.938 35.144 C 58.035 37.556,58.027 37.900,58.027 71.909 L 58.027 106.240 47.959 106.240 C 38.448 106.240,37.823 106.289,36.646 107.127 C 34.580 108.598,34.132 109.980,34.142 114.859 C 34.172 130.629,39.896 148.851,49.396 163.413 C 57.030 175.116,69.164 186.645,80.722 193.178 C 82.906 194.413,84.946 195.584,85.255 195.781 C 85.710 196.070,85.438 198.772,83.829 209.963 C 81.695 224.809,81.665 226.061,83.352 229.745 C 84.807 232.923,86.735 234.890,89.948 236.471 L 92.782 237.867 128.000 237.867 L 163.218 237.867 166.052 236.471 C 169.265 234.890,171.193 232.923,172.648 229.745 C 174.335 226.061,174.305 224.809,172.171 209.963 C 170.562 198.772,170.290 196.070,170.745 195.781 C 171.054 195.584,173.094 194.413,175.278 193.178 C 186.817 186.656,198.889 175.192,206.623 163.413 C 215.888 149.301,221.867 130.180,221.867 114.657 C 221.867 109.996,221.394 108.580,219.354 107.127 C 218.177 106.289,217.552 106.240,208.041 106.240 L 197.973 106.240 197.973 71.909 C 197.973 37.843,197.966 37.560,197.058 35.131 C 195.896 32.025,193.059 28.960,189.920 27.419 L 187.520 26.240 128.640 26.159 C 81.045 26.093,69.419 26.185,67.978 26.638 M185.356 38.644 C 185.954 39.242,186.027 42.925,186.027 72.777 L 186.027 106.240 128.000 106.240 L 69.973 106.240 69.973 72.777 C 69.973 42.925,70.046 39.242,70.644 38.644 C 71.247 38.041,77.036 37.973,128.000 37.973 C 178.964 37.973,184.753 38.041,185.356 38.644 M93.116 58.878 C 89.091 61.332,89.091 66.668,93.116 69.122 C 94.392 69.900,95.279 69.970,103.893 69.971 C 111.983 69.972,113.484 69.869,114.759 69.226 C 118.858 67.158,118.858 60.842,114.759 58.774 C 113.484 58.131,111.983 58.028,103.893 58.029 C 95.279 58.030,94.392 58.100,93.116 58.878 M209.356 121.280 C 207.767 139.990,197.318 160.155,182.400 173.299 C 170.646 183.655,157.274 190.043,141.327 192.920 C 134.215 194.203,121.785 194.203,114.673 192.920 C 93.105 189.029,75.875 178.587,62.588 161.354 C 54.037 150.264,47.764 134.536,46.654 121.409 L 46.381 118.187 128.000 118.187 L 209.619 118.187 209.356 121.280 M102.516 202.425 C 110.112 204.602,120.416 206.080,128.000 206.080 C 135.842 206.080,145.887 204.603,154.079 202.245 C 156.489 201.552,158.518 201.042,158.588 201.112 C 158.658 201.183,159.383 205.929,160.199 211.660 C 161.015 217.391,161.780 222.612,161.899 223.262 C 162.049 224.083,161.857 224.703,161.271 225.289 C 160.444 226.116,159.744 226.133,128.000 226.133 C 96.256 226.133,95.556 226.116,94.729 225.289 C 94.143 224.703,93.951 224.083,94.101 223.262 C 94.322 222.060,97.280 201.422,97.280 201.086 C 97.280 200.985,97.616 201.004,98.027 201.127 C 98.437 201.251,100.458 201.835,102.516 202.425 " stroke="none" fill-rule="evenodd"></path></svg>