<svg fill="currentColor" viewBox="0 0 256 256" xmlns="http://www.w3.org/2000/svg"><path d="M80.911 26.503 C 63.216 28.824,47.328 40.222,39.681 56.078 C 35.210 65.348,34.131 70.832,34.140 84.216 C 34.175 135.025,48.929 189.839,69.753 216.537 C 73.517 221.361,79.649 227.074,82.644 228.544 C 85.889 230.138,90.822 230.263,93.942 228.832 C 97.710 227.102,101.222 222.992,102.118 219.264 C 102.264 218.655,102.676 215.373,103.033 211.971 C 106.046 183.282,114.450 167.081,126.835 166.087 C 134.750 165.452,141.269 170.635,145.975 181.305 C 149.279 188.798,152.017 200.945,153.193 213.333 C 153.490 216.466,154.056 219.626,154.565 220.992 C 155.675 223.969,158.567 227.066,161.654 228.581 C 163.667 229.570,164.603 229.760,167.467 229.760 C 170.314 229.760,171.269 229.569,173.227 228.606 C 183.781 223.415,196.701 203.859,205.445 179.840 C 216.294 150.038,222.405 113.182,221.754 81.470 C 221.582 73.118,221.397 70.868,220.632 67.840 C 215.311 46.773,200.280 32.124,178.773 27.043 C 175.827 26.347,171.938 26.280,129.707 26.203 C 104.392 26.156,82.528 26.291,80.911 26.503 M178.560 39.368 C 193.743 43.529,205.095 55.148,208.877 70.400 C 210.306 76.163,210.085 94.838,208.390 111.573 C 205.266 142.424,197.948 170.075,187.024 192.315 C 180.358 205.886,170.105 218.854,166.857 217.823 C 165.779 217.481,165.703 217.167,164.898 209.707 C 161.879 181.722,153.310 163.457,140.160 156.974 C 132.191 153.046,123.745 153.077,115.654 157.065 C 112.853 158.447,111.288 159.606,108.590 162.300 C 106.684 164.203,104.437 166.816,103.597 168.107 C 97.177 177.968,93.040 191.743,91.102 209.707 C 90.297 217.167,90.221 217.481,89.143 217.823 C 87.028 218.494,81.695 213.101,75.946 204.480 C 63.727 186.154,53.934 157.056,49.308 125.328 C 46.188 103.929,45.187 78.606,47.138 70.416 C 51.143 53.601,64.947 41.001,82.169 38.438 C 83.558 38.232,104.853 38.093,129.493 38.131 L 174.293 38.199 178.560 39.368 M85.510 58.633 C 81.755 60.268,80.887 65.672,83.943 68.393 C 84.416 68.814,90.658 71.502,97.813 74.366 C 104.969 77.230,110.896 79.736,110.985 79.935 C 111.074 80.134,105.214 82.672,97.963 85.574 C 90.712 88.476,84.333 91.270,83.789 91.782 C 80.008 95.333,82.809 101.973,88.088 101.973 C 88.679 101.973,97.901 98.480,108.581 94.211 L 128.000 86.450 147.419 94.211 C 158.099 98.480,167.420 101.973,168.133 101.973 C 173.242 101.973,175.924 95.270,172.211 91.782 C 171.667 91.270,165.288 88.476,158.037 85.574 C 150.786 82.672,144.926 80.134,145.015 79.935 C 145.104 79.736,151.037 77.228,158.199 74.361 C 165.361 71.494,171.667 68.730,172.211 68.218 C 175.924 64.730,173.242 58.027,168.133 58.027 C 167.420 58.027,158.099 61.520,147.419 65.789 L 128.000 73.550 108.581 65.789 C 97.901 61.520,88.637 58.034,87.995 58.043 C 87.352 58.053,86.234 58.318,85.510 58.633 " stroke="none" fill-rule="evenodd"></path></svg>