<svg fill="currentColor" viewBox="0 0 256 256" xmlns="http://www.w3.org/2000/svg"><path d="M120.747 26.275 C 119.925 26.371,117.429 26.657,115.200 26.911 C 97.087 28.974,78.488 36.924,63.688 48.928 C 59.118 52.635,51.837 59.914,48.399 64.213 C 33.997 82.223,26.027 104.946,26.027 128.000 C 26.027 160.313,41.247 190.513,67.313 209.917 C 80.785 219.946,95.439 226.020,113.280 228.971 C 119.895 230.065,136.063 230.069,142.720 228.978 C 167.013 224.997,187.139 214.259,203.399 196.604 C 216.819 182.033,225.565 163.607,228.975 142.720 C 230.058 136.090,230.063 120.352,228.985 113.526 C 224.265 83.633,208.329 58.913,183.040 42.254 C 177.765 38.779,167.473 33.766,161.280 31.655 C 155.481 29.679,148.709 28.035,142.507 27.099 C 138.223 26.452,123.882 25.910,120.747 26.275 M135.893 38.406 C 157.181 40.367,176.604 49.439,191.583 64.417 C 214.095 86.930,223.023 119.642,215.057 150.423 C 206.452 183.673,179.597 209.228,146.031 216.109 C 109.820 223.532,73.053 208.220,52.793 177.280 C 38.454 155.382,34.420 129.001,41.473 103.253 C 45.847 87.286,56.674 70.443,69.499 59.655 C 88.315 43.828,112.102 36.215,135.893 38.406 M102.171 82.374 C 101.458 82.581,100.306 83.344,99.611 84.070 L 98.347 85.389 98.347 128.000 L 98.347 170.611 99.590 171.909 C 101.890 174.309,105.290 174.646,107.742 172.717 C 109.966 170.967,110.080 170.132,110.080 155.534 L 110.080 142.080 122.811 142.080 L 135.541 142.080 145.627 157.210 C 151.174 165.531,156.190 172.653,156.773 173.035 C 160.757 175.645,166.307 172.376,165.871 167.677 C 165.717 166.019,164.504 163.973,157.086 152.855 C 152.353 145.761,148.486 139.811,148.493 139.632 C 148.500 139.453,149.700 138.639,151.159 137.823 C 152.625 137.003,155.362 134.795,157.274 132.889 C 159.982 130.188,161.119 128.655,162.505 125.839 C 167.175 116.347,167.076 106.888,162.208 97.493 C 160.368 93.941,155.039 88.410,151.388 86.263 C 148.183 84.378,143.663 82.845,139.854 82.350 C 135.955 81.844,103.924 81.864,102.171 82.374 M138.440 94.313 C 146.289 95.448,152.210 101.211,153.687 109.152 C 155.403 118.377,148.653 127.894,139.111 129.703 C 137.864 129.940,130.822 130.133,123.462 130.133 L 110.080 130.133 110.080 112.000 L 110.080 93.867 122.773 93.875 C 129.755 93.880,136.805 94.077,138.440 94.313 " stroke="none" fill-rule="evenodd"></path></svg>