<svg fill="currentColor" viewBox="0 0 256 256" xmlns="http://www.w3.org/2000/svg"><path d="M66.773 26.482 C 56.813 28.188,47.953 35.407,44.223 44.858 C 41.930 50.667,42.027 47.352,42.027 120.107 C 42.027 196.474,41.763 190.283,45.327 197.547 C 46.768 200.483,47.841 201.908,50.967 205.033 C 54.092 208.159,55.517 209.232,58.453 210.673 C 63.639 213.218,66.741 213.835,75.868 214.139 L 83.682 214.400 75.511 225.280 C 71.018 231.264,67.069 236.678,66.737 237.312 C 64.817 240.976,67.538 245.806,71.582 245.911 C 74.952 245.999,75.200 245.740,87.327 229.528 L 98.773 214.226 128.000 214.226 L 157.227 214.226 168.673 229.528 C 180.800 245.740,181.048 245.999,184.418 245.911 C 188.462 245.806,191.183 240.976,189.263 237.312 C 188.931 236.678,184.982 231.264,180.489 225.280 L 172.318 214.400 180.132 214.139 C 189.259 213.835,192.361 213.218,197.547 210.673 C 200.483 209.232,201.908 208.159,205.033 205.033 C 208.159 201.908,209.232 200.483,210.673 197.547 C 214.238 190.282,213.973 196.501,213.973 119.893 L 213.973 51.840 212.992 48.451 C 210.038 38.247,202.936 30.770,192.972 27.372 L 189.653 26.240 129.280 26.178 C 96.075 26.144,67.947 26.281,66.773 26.482 M188.390 38.636 C 193.602 39.993,197.591 43.258,200.007 48.145 L 201.600 51.368 201.716 86.698 L 201.832 122.027 128.000 122.027 L 54.168 122.027 54.284 86.698 L 54.400 51.368 56.007 48.118 C 57.716 44.660,60.600 41.623,63.658 40.063 C 67.760 37.971,65.882 38.031,127.804 38.001 C 178.946 37.977,186.150 38.052,188.390 38.636 M201.719 161.396 L 201.600 188.819 200.180 191.702 C 197.472 197.203,192.312 200.941,186.240 201.800 C 182.198 202.372,73.802 202.372,69.760 201.800 C 63.688 200.941,58.528 197.203,55.820 191.702 L 54.400 188.819 54.281 161.396 L 54.163 133.973 128.000 133.973 L 201.837 133.973 201.719 161.396 M79.458 163.231 C 73.390 166.255,72.159 174.155,77.002 178.998 C 81.845 183.841,89.745 182.610,92.769 176.542 C 97.098 167.855,88.145 158.902,79.458 163.231 M167.893 162.944 C 159.221 166.968,160.719 179.828,170.087 181.772 C 178.871 183.596,185.364 173.329,180.022 166.064 C 177.423 162.531,171.865 161.101,167.893 162.944 " stroke="none" fill-rule="evenodd"></path></svg>