<svg fill="currentColor" viewBox="0 0 256 256" xmlns="http://www.w3.org/2000/svg"><path d="M100.480 18.341 C 91.482 19.764,84.048 27.046,82.380 36.069 C 82.127 37.437,81.920 41.113,81.920 44.238 L 81.920 49.920 60.907 49.922 C 48.383 49.924,39.280 50.095,38.376 50.346 C 33.587 51.677,32.600 58.457,36.821 61.031 C 38.000 61.750,38.987 61.864,44.047 61.865 L 49.908 61.867 50.021 136.640 L 50.133 211.413 51.055 213.408 C 52.298 216.098,55.180 219.137,57.796 220.518 L 59.947 221.653 128.000 221.653 L 196.053 221.653 198.204 220.518 C 200.820 219.137,203.702 216.098,204.945 213.408 L 205.867 211.413 205.979 136.640 L 206.092 61.867 211.953 61.865 C 217.013 61.864,218.000 61.750,219.179 61.031 C 223.400 58.457,222.413 51.677,217.624 50.346 C 216.720 50.095,207.617 49.924,195.093 49.922 L 174.080 49.920 174.080 44.238 C 174.080 37.236,173.585 34.379,171.680 30.389 C 169.205 25.206,164.813 21.330,158.899 19.109 C 156.396 18.169,156.136 18.159,129.493 18.082 C 114.709 18.039,101.653 18.155,100.480 18.341 M156.373 31.001 C 158.390 32.089,160.036 33.776,161.096 35.840 C 161.699 37.014,161.903 38.679,162.051 43.627 L 162.239 49.920 128.000 49.920 L 93.761 49.920 93.949 43.627 C 94.097 38.679,94.301 37.014,94.904 35.840 C 96.442 32.845,98.912 30.894,101.973 30.257 C 102.795 30.086,114.987 29.976,129.067 30.013 C 154.418 30.079,154.683 30.089,156.373 31.001 M194.030 135.482 C 193.933 200.374,193.844 209.146,193.280 209.502 C 192.884 209.753,167.878 209.909,127.695 209.913 C 63.919 209.920,62.742 209.905,62.308 209.095 C 62.009 208.535,61.867 184.712,61.867 135.068 L 61.867 61.867 128.004 61.867 L 194.141 61.867 194.030 135.482 M100.821 98.969 C 97.974 100.705,98.106 98.786,98.233 136.499 L 98.347 170.611 99.590 171.909 C 101.890 174.309,105.290 174.646,107.742 172.717 C 110.140 170.831,110.080 171.773,110.079 136.014 C 110.079 105.473,110.024 102.930,109.333 101.555 C 107.752 98.409,103.739 97.190,100.821 98.969 M148.863 99.102 C 145.768 101.169,145.921 99.245,145.921 136.014 C 145.920 171.773,145.860 170.831,148.258 172.717 C 150.710 174.646,154.110 174.309,156.410 171.909 L 157.653 170.611 157.767 136.499 C 157.869 106.224,157.806 102.241,157.213 101.094 C 155.729 98.225,151.638 97.248,148.863 99.102 " stroke="none" fill-rule="evenodd"></path></svg>