<svg fill="currentColor" viewBox="0 0 256 256" xmlns="http://www.w3.org/2000/svg"><path d="M120.806 18.380 C 109.236 19.497,97.562 23.632,87.467 30.190 C 76.683 37.196,68.539 46.291,62.080 58.544 L 59.093 64.209 54.827 66.486 C 48.509 69.857,44.329 73.007,38.591 78.720 C 26.896 90.365,20.167 104.607,18.292 121.687 C 16.556 137.494,21.644 155.729,31.482 168.960 C 42.403 183.647,56.767 192.869,74.810 196.778 C 78.506 197.579,80.470 197.718,88.107 197.718 C 95.764 197.718,97.703 197.580,101.440 196.771 C 107.132 195.538,112.733 193.663,117.710 191.322 C 119.913 190.287,121.785 189.440,121.870 189.440 C 121.956 189.440,122.027 199.396,122.027 211.564 L 122.027 233.687 122.995 235.137 C 125.645 239.103,131.084 238.837,133.226 234.636 C 133.907 233.300,133.972 231.282,133.973 211.307 C 133.973 199.280,134.041 189.440,134.124 189.440 C 134.207 189.440,136.079 190.281,138.284 191.308 C 143.536 193.756,149.242 195.622,155.069 196.798 C 161.814 198.159,174.826 198.148,181.190 196.774 C 203.256 192.013,221.269 178.132,230.848 158.507 C 241.913 135.837,240.038 110.025,225.779 88.701 C 219.522 79.344,210.982 71.714,200.533 66.146 L 196.907 64.213 193.920 58.546 C 190.258 51.598,186.638 46.439,181.861 41.365 C 166.147 24.673,143.594 16.182,120.806 18.380 M138.667 30.993 C 150.424 32.923,161.667 38.599,170.547 47.089 C 176.730 52.999,180.003 57.522,184.292 66.077 C 187.275 72.029,188.514 73.256,195.200 76.886 C 207.637 83.639,216.385 93.269,221.662 106.019 C 232.288 131.688,222.877 161.676,199.467 176.742 C 189.442 183.194,177.629 186.403,165.760 185.900 C 155.217 185.454,146.819 182.858,136.853 176.966 L 133.973 175.263 133.973 153.556 L 133.973 131.849 157.030 120.308 C 181.466 108.076,181.261 108.203,181.988 104.892 C 182.365 103.176,180.844 100.049,179.122 99.000 C 176.297 97.277,175.982 97.394,154.453 108.160 C 143.426 113.675,134.307 118.187,134.188 118.187 C 134.070 118.187,133.973 111.131,133.973 102.507 C 133.972 88.422,133.896 86.678,133.226 85.364 C 132.108 83.170,130.501 82.183,128.052 82.183 C 125.640 82.183,124.078 83.042,122.861 85.037 C 122.060 86.351,122.030 87.398,122.028 114.240 C 122.027 129.552,121.934 142.080,121.820 142.080 C 121.707 142.080,112.540 137.548,101.450 132.010 C 82.738 122.664,81.156 121.954,79.476 122.143 C 77.006 122.421,75.596 123.452,74.597 125.710 C 73.664 127.821,73.783 129.156,75.098 131.318 C 75.807 132.485,79.264 134.351,98.977 144.208 L 122.027 155.735 122.027 165.442 L 122.027 175.149 118.720 177.157 C 109.670 182.655,100.760 185.402,90.453 185.874 C 68.841 186.862,48.628 175.729,37.669 156.800 C 32.587 148.022,30.170 138.759,30.156 128.000 C 30.144 118.541,31.828 111.072,35.808 102.934 C 41.678 90.930,49.876 82.584,62.082 76.183 C 67.374 73.407,68.728 71.974,71.775 65.920 C 75.780 57.964,78.508 54.129,84.238 48.399 C 95.271 37.368,108.001 31.480,123.733 30.130 C 126.920 29.856,134.362 30.287,138.667 30.993 " stroke="none" fill-rule="evenodd"></path></svg>