<svg fill="currentColor" viewBox="0 0 256 256" xmlns="http://www.w3.org/2000/svg"><path d="M124.160 26.284 C 119.780 27.097,114.609 29.930,111.418 33.266 C 109.944 34.807,98.045 55.123,64.753 112.943 C 40.175 155.628,19.669 191.694,19.186 193.089 C 17.301 198.528,17.660 203.822,20.286 209.326 C 22.951 214.910,27.639 218.981,33.575 220.866 L 36.726 221.867 128.048 221.867 L 219.370 221.867 222.598 220.783 C 230.298 218.198,235.422 212.550,237.486 204.373 C 238.343 200.977,238.093 196.723,236.822 193.090 C 236.334 191.694,215.826 155.629,191.248 112.945 C 157.981 55.172,146.055 34.808,144.582 33.268 C 140.356 28.846,135.098 26.462,129.067 26.232 C 126.955 26.152,124.747 26.175,124.160 26.284 M131.335 38.630 C 132.711 39.038,134.159 39.883,135.172 40.870 C 137.367 43.006,225.062 195.296,225.658 198.005 C 226.693 202.712,223.668 207.846,218.923 209.434 C 216.846 210.130,39.154 210.130,37.077 209.434 C 32.339 207.848,29.307 202.712,30.339 198.019 C 30.933 195.315,118.644 42.996,120.834 40.864 C 123.525 38.245,127.320 37.437,131.335 38.630 " stroke="none" fill-rule="evenodd"></path></svg>