<svg fill="currentColor" viewBox="0 0 256 256" xmlns="http://www.w3.org/2000/svg"><path d="M158.787 42.869 C 151.797 44.453,145.411 47.327,140.334 51.171 C 134.417 55.651,128.620 63.009,125.816 69.597 C 123.170 75.816,122.352 80.052,122.131 88.679 L 121.932 96.504 120.379 96.218 C 117.896 95.760,108.556 92.657,103.630 90.653 C 86.437 83.658,65.409 70.228,50.427 56.674 C 43.930 50.795,43.046 50.204,40.744 50.204 C 38.668 50.204,37.180 51.026,35.726 52.973 C 34.496 54.621,34.028 61.931,34.257 75.947 C 34.471 89.063,34.999 94.358,37.154 105.035 C 42.380 130.922,54.181 153.448,71.101 169.832 C 73.414 172.072,76.247 174.692,77.397 175.655 L 79.488 177.405 77.184 180.051 C 69.473 188.908,52.856 200.132,38.524 206.166 C 35.339 207.507,34.137 209.130,34.135 212.096 C 34.130 218.537,47.043 225.996,62.933 228.730 C 73.136 230.486,89.129 230.284,101.547 228.243 C 146.776 220.810,185.575 190.384,203.528 148.267 C 208.546 136.495,212.272 122.149,213.556 109.653 L 213.841 106.880 229.549 91.093 C 242.946 77.630,245.325 75.052,245.716 73.576 C 246.238 71.606,245.803 69.493,244.601 68.164 C 242.792 66.165,242.494 66.134,224.981 66.118 L 208.427 66.103 206.720 63.272 C 204.315 59.284,197.694 52.654,193.221 49.756 C 188.998 47.020,183.992 44.770,179.271 43.485 C 174.930 42.304,162.879 41.942,158.787 42.869 M177.280 55.466 C 186.640 58.449,194.207 64.676,198.309 72.770 C 199.732 75.577,200.992 76.939,202.801 77.625 C 203.536 77.903,208.169 78.080,214.737 78.080 L 225.473 78.080 213.890 89.707 C 200.813 102.834,202.331 100.415,201.375 109.653 C 198.541 137.058,185.416 163.590,164.861 183.467 C 151.612 196.278,137.310 205.131,120.120 211.161 C 97.754 219.007,70.696 220.247,54.456 214.171 L 51.965 213.239 55.956 211.108 C 60.610 208.623,68.359 203.609,72.966 200.102 C 83.342 192.203,93.867 180.166,93.867 176.198 C 93.867 173.559,93.075 172.461,88.978 169.420 C 74.244 158.483,62.728 143.140,55.321 124.579 C 49.567 110.159,46.701 95.483,46.202 77.887 L 45.949 68.947 48.468 70.979 C 68.769 87.361,88.431 98.551,108.587 105.194 C 115.105 107.342,123.211 109.387,127.205 109.891 C 129.404 110.169,131.517 109.235,132.876 107.383 C 133.703 106.257,133.777 105.419,134.020 94.370 C 134.320 80.690,134.722 78.495,138.126 71.957 C 139.756 68.825,140.960 67.246,144.212 63.973 C 147.796 60.367,148.787 59.639,152.747 57.697 C 158.658 54.799,161.715 54.162,168.747 54.359 C 172.983 54.478,174.999 54.739,177.280 55.466 " stroke="none" fill-rule="evenodd"></path></svg>