<svg fill="currentColor" viewBox="0 0 256 256" xmlns="http://www.w3.org/2000/svg"><path d="M126.093 18.371 C 124.699 18.787,75.940 67.160,74.852 69.205 C 73.429 71.884,74.598 75.654,77.282 77.042 C 78.862 77.859,81.430 77.935,82.857 77.206 C 83.398 76.929,92.432 68.136,102.933 57.665 L 122.027 38.626 122.028 84.060 C 122.030 128.643,122.046 129.519,122.878 130.884 C 125.332 134.909,130.668 134.909,133.122 130.884 C 133.954 129.519,133.970 128.643,133.972 84.060 L 133.973 38.626 153.067 57.665 C 163.568 68.136,172.602 76.929,173.143 77.206 C 174.570 77.935,177.138 77.859,178.718 77.042 C 181.402 75.654,182.571 71.884,181.148 69.205 C 180.811 68.572,169.434 56.966,155.867 43.414 C 128.983 16.561,129.814 17.261,126.093 18.371 M27.872 122.641 C 23.497 124.009,20.079 127.445,18.754 131.806 C 17.926 134.534,17.904 135.650,18.017 168.962 L 18.133 203.307 19.277 205.747 C 20.759 208.909,23.693 211.738,26.786 212.987 L 29.227 213.973 128.000 213.973 L 226.773 213.973 229.214 212.987 C 232.307 211.738,235.241 208.909,236.723 205.747 L 237.867 203.307 237.986 168.970 C 238.101 135.547,238.082 134.558,237.242 131.793 C 236.151 128.204,233.509 125.129,230.060 123.435 L 227.627 122.240 201.173 122.126 C 171.005 121.995,172.577 121.820,170.747 125.508 C 169.900 127.215,169.823 127.729,170.203 129.135 C 170.446 130.036,170.963 131.226,171.352 131.778 C 172.887 133.962,173.030 133.973,199.855 133.973 L 224.805 133.973 225.469 134.922 C 226.056 135.760,226.133 139.622,226.133 168.120 C 226.133 195.299,226.038 200.500,225.528 201.198 C 224.931 202.014,223.450 202.027,128.000 202.027 C 32.550 202.027,31.069 202.014,30.472 201.198 C 29.962 200.500,29.867 195.299,29.867 168.120 C 29.867 139.622,29.944 135.760,30.531 134.922 L 31.195 133.973 56.238 133.973 C 79.230 133.972,81.401 133.911,82.759 133.226 C 86.858 131.158,86.858 124.842,82.759 122.774 C 81.398 122.087,79.227 122.030,55.467 122.056 C 35.487 122.077,29.251 122.210,27.872 122.641 M186.027 158.273 C 176.822 160.089,175.140 172.624,183.539 176.809 C 190.528 180.292,198.555 174.923,197.858 167.232 C 197.611 164.505,196.880 162.863,195.139 161.122 C 192.786 158.769,189.198 157.647,186.027 158.273 " stroke="none" fill-rule="evenodd"></path></svg>