<svg fill="currentColor" viewBox="0 0 256 256" xmlns="http://www.w3.org/2000/svg"><path d="M43.419 34.779 C 39.485 36.224,36.414 39.234,34.955 43.073 C 34.196 45.072,34.133 46.474,34.135 61.551 C 34.136 76.761,34.191 77.956,34.938 79.181 C 36.553 81.829,40.535 82.689,43.137 80.951 C 46.036 79.015,46.079 78.742,46.079 62.059 C 46.080 50.997,46.213 46.971,46.592 46.592 C 46.971 46.213,50.997 46.080,62.059 46.079 C 78.742 46.079,79.015 46.036,80.951 43.137 C 82.708 40.508,81.861 36.664,79.158 34.993 C 77.823 34.169,77.092 34.135,61.390 34.163 C 48.626 34.187,44.662 34.323,43.419 34.779 M176.853 34.973 C 172.973 37.552,173.328 43.236,177.502 45.333 C 178.831 46.000,180.555 46.079,193.941 46.079 C 205.003 46.080,209.029 46.213,209.408 46.592 C 209.787 46.971,209.920 50.997,209.921 62.059 C 209.921 78.742,209.964 79.015,212.863 80.951 C 215.465 82.689,219.447 81.829,221.062 79.181 C 221.809 77.956,221.864 76.762,221.865 61.563 C 221.867 46.102,221.821 45.136,220.981 42.891 C 219.902 40.008,216.957 36.857,213.973 35.393 L 211.840 34.347 194.987 34.235 C 178.765 34.127,178.085 34.155,176.853 34.973 M118.919 75.118 C 97.054 80.492,84.711 103.705,92.389 125.013 C 94.398 130.589,98.951 137.310,102.833 140.430 C 103.768 141.181,104.533 141.930,104.533 142.093 C 104.533 142.257,103.621 142.729,102.507 143.143 C 99.577 144.230,94.632 146.966,90.395 149.844 C 83.288 154.672,74.676 163.729,74.057 167.026 C 73.613 169.393,75.059 172.074,77.387 173.201 C 78.386 173.684,79.522 174.080,79.913 174.080 C 81.629 174.080,83.946 172.619,85.760 170.394 C 94.191 160.049,106.010 153.074,118.916 150.823 C 123.595 150.007,132.405 150.007,137.084 150.823 C 149.774 153.036,160.832 159.434,169.511 169.586 C 172.682 173.294,174.351 174.264,176.903 173.881 C 180.280 173.375,182.701 169.681,181.774 166.448 C 180.847 163.217,172.150 154.287,165.605 149.847 C 161.493 147.057,156.556 144.334,153.493 143.164 C 152.379 142.739,151.467 142.257,151.467 142.093 C 151.467 141.930,152.232 141.181,153.167 140.430 C 157.049 137.310,161.602 130.589,163.611 125.013 C 171.323 103.608,158.880 80.370,136.882 75.097 C 132.088 73.947,123.641 73.957,118.919 75.118 M133.632 86.652 C 137.189 87.383,142.426 90.115,145.342 92.760 C 148.729 95.832,150.887 99.123,152.489 103.661 C 153.621 106.869,153.776 107.870,153.776 112.000 C 153.776 116.130,153.621 117.131,152.489 120.339 C 150.071 127.190,145.591 132.254,139.307 135.241 C 134.951 137.311,132.531 137.874,128.000 137.874 C 123.430 137.874,121.053 137.312,116.513 135.157 C 109.499 131.827,104.268 125.068,102.653 117.245 C 101.798 113.106,101.798 110.894,102.653 106.755 C 104.634 97.164,112.364 89.064,121.693 86.805 C 124.524 86.119,130.662 86.041,133.632 86.652 M37.172 174.810 C 36.379 175.200,35.372 176.108,34.933 176.827 C 34.192 178.042,34.136 179.271,34.135 194.437 C 34.133 210.087,34.170 210.840,35.052 213.197 C 36.292 216.512,39.488 219.708,42.803 220.948 C 45.160 221.830,45.913 221.867,61.563 221.865 C 76.762 221.864,77.956 221.809,79.181 221.062 C 81.740 219.501,82.661 215.621,81.085 213.037 C 79.296 210.103,79.569 210.147,62.545 210.006 C 52.404 209.922,46.997 209.723,46.632 209.421 C 46.200 209.061,46.080 205.719,46.079 193.974 C 46.079 180.557,46.001 178.831,45.333 177.502 C 43.795 174.442,40.275 173.281,37.172 174.810 M212.863 175.049 C 209.963 176.986,209.921 177.254,209.921 193.974 C 209.920 205.719,209.800 209.061,209.368 209.421 C 209.003 209.723,203.596 209.922,193.455 210.006 C 176.431 210.147,176.704 210.103,174.915 213.037 C 173.339 215.621,174.260 219.501,176.819 221.062 C 178.044 221.809,179.238 221.864,194.437 221.865 C 213.524 221.867,213.787 221.821,217.804 217.804 C 221.821 213.787,221.867 213.524,221.865 194.437 C 221.864 179.238,221.809 178.044,221.062 176.819 C 219.447 174.171,215.465 173.311,212.863 175.049 " stroke="none" fill-rule="evenodd"></path></svg>