<svg fill="currentColor" viewBox="0 0 256 256" xmlns="http://www.w3.org/2000/svg"><path d="M120.747 26.275 C 119.925 26.371,117.429 26.657,115.200 26.911 C 97.087 28.974,78.488 36.924,63.688 48.928 C 59.118 52.635,51.837 59.914,48.399 64.213 C 33.997 82.223,26.027 104.946,26.027 128.000 C 26.027 160.313,41.247 190.513,67.313 209.917 C 80.785 219.946,95.439 226.020,113.280 228.971 C 119.895 230.065,136.063 230.069,142.720 228.978 C 167.013 224.997,187.139 214.259,203.399 196.604 C 216.819 182.033,225.565 163.607,228.975 142.720 C 230.058 136.090,230.063 120.352,228.985 113.526 C 224.265 83.633,208.329 58.913,183.040 42.254 C 177.765 38.779,167.473 33.766,161.280 31.655 C 155.481 29.679,148.709 28.035,142.507 27.099 C 138.223 26.452,123.882 25.910,120.747 26.275 M141.731 39.004 C 150.862 40.433,158.964 42.996,167.467 47.147 C 212.642 69.203,230.904 123.790,208.120 168.662 C 204.375 176.038,198.201 185.008,194.496 188.455 L 193.491 189.390 190.339 185.149 C 186.449 179.915,178.600 172.256,173.217 168.441 C 167.957 164.714,160.354 160.746,154.307 158.572 C 153.656 158.338,153.958 157.961,156.060 156.381 C 163.097 151.090,168.959 142.745,171.678 134.145 C 173.511 128.346,173.856 125.962,173.804 119.467 C 173.763 114.331,173.573 112.586,172.681 109.195 C 169.100 95.574,160.697 85.004,148.683 79.009 C 141.667 75.508,136.263 74.270,128.000 74.270 C 119.737 74.270,114.333 75.508,107.317 79.009 C 88.892 88.203,78.714 109.216,82.987 129.243 C 85.275 139.964,91.448 149.873,99.787 156.211 C 102.058 157.937,102.376 158.326,101.707 158.567 C 95.671 160.739,88.088 164.688,82.773 168.428 C 77.870 171.878,68.131 181.507,64.876 186.123 C 62.178 189.949,62.614 190.031,58.428 184.921 C 42.472 165.445,35.370 139.619,39.079 114.560 C 43.479 84.835,62.736 59.104,90.168 46.296 C 97.963 42.657,107.865 39.772,115.671 38.865 C 117.876 38.609,120.256 38.319,120.960 38.220 C 123.608 37.849,137.761 38.383,141.731 39.004 M135.893 87.015 C 140.318 88.081,142.788 89.184,147.047 91.994 C 156.444 98.194,161.728 108.198,161.783 119.893 C 161.812 126.014,161.045 129.341,158.278 135.090 C 156.637 138.500,155.517 140.133,152.944 142.868 C 143.073 153.361,129.361 156.661,115.950 151.771 C 111.395 150.110,108.464 148.140,104.055 143.776 C 100.379 140.138,99.724 139.245,97.797 135.243 C 94.957 129.344,94.187 126.050,94.209 119.893 C 94.242 110.722,97.099 103.455,103.368 96.596 C 105.646 94.103,111.123 90.273,114.560 88.768 C 120.515 86.162,129.343 85.437,135.893 87.015 M134.296 166.404 C 150.134 168.073,163.212 174.265,174.329 185.361 C 178.845 189.867,184.320 196.714,184.320 197.855 C 184.320 198.804,174.088 205.625,168.239 208.575 C 161.004 212.223,150.563 215.563,141.814 217.027 C 135.299 218.118,120.701 218.118,114.186 217.027 C 104.548 215.414,94.224 211.978,86.187 207.707 C 82.210 205.595,75.253 201.111,72.769 199.059 C 71.613 198.104,71.557 197.934,72.075 196.966 C 73.530 194.247,78.413 188.375,82.458 184.478 C 96.316 171.130,115.538 164.428,134.296 166.404 " stroke="none" fill-rule="evenodd"></path></svg>