<svg fill="currentColor" viewBox="0 0 256 256" xmlns="http://www.w3.org/2000/svg"><path d="M35.286 42.853 C 32.739 43.765,30.421 45.492,28.799 47.686 C 25.816 51.724,26.005 45.960,26.129 128.872 L 26.240 203.733 27.202 205.686 C 28.766 208.858,30.933 211.041,34.036 212.569 L 36.889 213.973 128.000 213.973 L 219.111 213.973 221.964 212.569 C 225.066 211.042,227.185 208.908,228.776 205.711 L 229.760 203.733 229.760 128.000 L 229.760 52.267 228.776 50.289 C 227.336 47.394,225.251 45.155,222.660 43.720 L 220.373 42.453 128.640 42.363 C 52.229 42.288,36.636 42.370,35.286 42.853 M217.515 54.699 C 217.909 55.093,218.027 71.962,218.027 128.033 C 218.027 195.200,217.972 200.901,217.322 201.441 C 216.792 201.882,214.583 202.059,208.401 202.158 L 200.185 202.290 198.253 198.213 C 189.848 180.470,173.834 165.943,154.742 158.745 L 153.538 158.291 155.596 156.749 C 168.411 147.148,175.623 130.461,173.668 114.933 C 171.667 99.035,162.532 85.920,148.626 78.981 C 141.782 75.565,135.872 74.194,128.000 74.194 C 120.128 74.194,114.218 75.565,107.374 78.981 C 97.893 83.711,89.704 92.351,85.791 101.752 C 83.159 108.074,82.251 112.549,82.196 119.467 C 82.144 125.968,82.487 128.332,84.332 134.187 C 87.012 142.685,93.169 151.328,100.404 156.749 L 102.462 158.291 101.258 158.745 C 82.166 165.943,66.152 180.470,57.747 198.213 L 55.815 202.290 47.599 202.158 C 41.417 202.059,39.208 201.882,38.678 201.441 C 38.028 200.901,37.973 195.200,37.973 128.033 C 37.973 71.962,38.091 55.093,38.485 54.699 C 39.231 53.953,216.769 53.953,217.515 54.699 M135.893 87.015 C 140.318 88.081,142.788 89.184,147.047 91.994 C 156.444 98.194,161.728 108.198,161.783 119.893 C 161.812 126.014,161.045 129.341,158.278 135.090 C 156.637 138.500,155.517 140.133,152.944 142.868 C 143.073 153.361,129.361 156.661,115.950 151.771 C 111.395 150.110,108.464 148.140,104.055 143.776 C 100.379 140.138,99.724 139.245,97.797 135.243 C 94.957 129.344,94.187 126.050,94.209 119.893 C 94.242 110.722,97.099 103.455,103.368 96.596 C 105.646 94.103,111.123 90.273,114.560 88.768 C 120.515 86.162,129.343 85.437,135.893 87.015 M134.737 166.424 C 149.644 168.046,162.872 174.201,173.546 184.482 C 175.987 186.833,179.116 190.258,180.497 192.091 C 183.124 195.577,186.453 200.994,186.453 201.781 C 186.453 202.106,169.421 202.240,128.000 202.240 C 86.579 202.240,69.547 202.106,69.547 201.781 C 69.547 201.529,70.322 199.995,71.269 198.373 C 77.254 188.126,87.579 178.528,98.540 173.024 C 109.622 167.459,122.561 165.099,134.737 166.424 " stroke="none" fill-rule="evenodd"></path></svg>