<svg fill="currentColor" viewBox="0 0 256 256" xmlns="http://www.w3.org/2000/svg"><path d="M90.596 34.740 C 83.421 36.481,77.279 42.357,74.972 49.689 L 74.027 52.693 74.027 128.000 L 74.027 203.307 74.972 206.311 C 77.299 213.706,83.088 219.272,90.509 221.247 C 93.908 222.151,162.092 222.151,165.491 221.247 C 172.912 219.272,178.701 213.706,181.028 206.311 L 181.973 203.307 181.973 128.000 L 181.973 52.693 181.028 49.689 C 178.660 42.162,172.174 36.141,164.779 34.603 C 161.379 33.896,93.560 34.022,90.596 34.740 M163.124 46.537 C 165.206 47.116,168.018 49.645,169.017 51.840 C 169.760 53.470,169.795 56.892,169.804 127.907 C 169.814 210.025,170.025 203.822,167.125 206.879 C 166.374 207.670,164.992 208.674,164.053 209.109 C 162.435 209.860,160.560 209.901,128.000 209.901 C 95.440 209.901,93.565 209.860,91.947 209.109 C 91.008 208.674,89.626 207.670,88.875 206.879 C 85.975 203.822,86.186 210.025,86.196 127.907 C 86.205 56.379,86.236 53.482,86.997 51.840 C 88.018 49.641,90.331 47.454,92.427 46.707 C 93.779 46.225,100.226 46.114,127.787 46.101 C 150.290 46.090,162.035 46.235,163.124 46.537 M45.426 82.772 C 44.480 83.241,43.328 84.249,42.866 85.012 C 42.047 86.367,42.027 87.384,42.027 128.000 C 42.027 168.692,42.045 169.630,42.871 170.996 C 43.719 172.399,46.515 174.080,48.000 174.080 C 49.485 174.080,52.281 172.399,53.129 170.996 C 53.955 169.630,53.973 168.692,53.973 128.000 C 53.973 87.308,53.955 86.370,53.129 85.004 C 52.274 83.590,49.481 81.920,47.972 81.920 C 47.518 81.921,46.372 82.304,45.426 82.772 M205.426 82.772 C 204.480 83.241,203.328 84.249,202.866 85.012 C 202.047 86.367,202.027 87.384,202.027 128.000 C 202.027 168.692,202.045 169.630,202.871 170.996 C 203.719 172.399,206.515 174.080,208.000 174.080 C 209.485 174.080,212.281 172.399,213.129 170.996 C 213.955 169.630,213.973 168.692,213.973 128.000 C 213.973 87.308,213.955 86.370,213.129 85.004 C 212.274 83.590,209.481 81.920,207.972 81.920 C 207.518 81.921,206.372 82.304,205.426 82.772 M12.930 98.968 C 9.866 100.836,10.027 99.233,10.027 128.000 C 10.027 152.198,10.076 153.926,10.797 155.026 C 13.234 158.746,18.766 158.746,21.203 155.026 C 21.924 153.926,21.973 152.198,21.973 128.000 C 21.973 103.802,21.924 102.074,21.203 100.974 C 20.103 99.295,17.979 98.137,16.000 98.137 C 15.059 98.137,13.681 98.510,12.930 98.968 M236.930 98.968 C 233.866 100.836,234.027 99.233,234.027 128.000 C 234.027 152.198,234.076 153.926,234.797 155.026 C 237.234 158.746,242.766 158.746,245.203 155.026 C 245.924 153.926,245.973 152.198,245.973 128.000 C 245.973 103.802,245.924 102.074,245.203 100.974 C 244.103 99.295,241.979 98.137,240.000 98.137 C 239.059 98.137,237.681 98.510,236.930 98.968 " stroke="none" fill-rule="evenodd"></path></svg>