<svg fill="currentColor" viewBox="0 0 256 256" xmlns="http://www.w3.org/2000/svg"><path d="M35.286 42.853 C 32.739 43.765,30.421 45.492,28.799 47.686 C 25.816 51.724,26.005 45.960,26.129 128.872 L 26.240 203.733 27.202 205.686 C 28.766 208.858,30.933 211.041,34.036 212.569 L 36.889 213.973 128.000 213.973 L 219.111 213.973 221.964 212.569 C 225.066 211.042,227.185 208.908,228.776 205.711 L 229.760 203.733 229.760 128.000 L 229.760 52.267 228.776 50.289 C 227.336 47.394,225.251 45.155,222.660 43.720 L 220.373 42.453 128.640 42.363 C 52.229 42.288,36.636 42.370,35.286 42.853 M217.549 54.765 C 217.902 55.190,218.000 74.718,217.921 128.246 L 217.813 201.148 216.747 201.688 C 215.179 202.481,40.821 202.481,39.253 201.688 L 38.187 201.148 38.079 128.246 C 38.000 74.718,38.098 55.190,38.451 54.765 C 39.168 53.901,216.832 53.901,217.549 54.765 M116.735 74.726 C 107.124 75.959,98.891 78.460,90.240 82.775 C 73.839 90.955,63.273 102.918,59.218 117.898 C 57.854 122.936,57.854 133.064,59.218 138.102 C 64.148 156.317,79.592 170.934,101.229 177.865 C 111.418 181.129,123.709 182.595,134.080 181.783 C 165.744 179.306,190.250 162.234,196.782 138.102 C 197.566 135.206,197.726 133.491,197.726 128.000 C 197.726 122.509,197.566 120.794,196.782 117.898 C 193.688 106.466,186.331 96.230,175.750 88.637 C 170.812 85.093,161.301 80.294,155.307 78.322 C 150.429 76.718,144.344 75.387,138.678 74.687 C 134.422 74.161,120.952 74.185,116.735 74.726 M139.081 86.837 C 162.280 90.134,180.439 103.372,185.012 120.320 C 186.031 124.096,186.031 131.904,185.012 135.680 C 179.256 157.013,152.374 171.741,122.773 169.781 C 97.048 168.077,75.987 154.208,70.988 135.680 C 69.969 131.904,69.969 124.096,70.988 120.320 C 75.523 103.511,93.659 90.194,116.560 86.857 C 122.004 86.064,133.569 86.054,139.081 86.837 " stroke="none" fill-rule="evenodd"></path></svg>