<svg fill="currentColor" viewBox="0 0 256 256" xmlns="http://www.w3.org/2000/svg"><path d="M120.747 26.275 C 119.925 26.371,117.429 26.657,115.200 26.911 C 97.087 28.974,78.488 36.924,63.688 48.928 C 59.118 52.635,51.837 59.914,48.399 64.213 C 33.997 82.223,26.027 104.946,26.027 128.000 C 26.027 160.313,41.247 190.513,67.313 209.917 C 80.785 219.946,95.439 226.020,113.280 228.971 C 119.895 230.065,136.063 230.069,142.720 228.978 C 167.013 224.997,187.139 214.259,203.399 196.604 C 216.819 182.033,225.565 163.607,228.975 142.720 C 230.058 136.090,230.063 120.352,228.985 113.526 C 224.265 83.633,208.329 58.913,183.040 42.254 C 177.765 38.779,167.473 33.766,161.280 31.655 C 155.481 29.679,148.709 28.035,142.507 27.099 C 138.223 26.452,123.882 25.910,120.747 26.275 M135.893 38.406 C 157.181 40.367,176.604 49.439,191.583 64.417 C 214.095 86.930,223.023 119.642,215.057 150.423 C 206.452 183.673,179.597 209.228,146.031 216.109 C 109.820 223.532,73.053 208.220,52.793 177.280 C 38.454 155.382,34.420 129.001,41.473 103.253 C 45.847 87.286,56.674 70.443,69.499 59.655 C 88.315 43.828,112.102 36.215,135.893 38.406 M120.181 58.477 C 108.984 59.779,98.433 63.696,88.747 70.148 C 82.519 74.296,74.176 82.652,70.040 88.885 C 62.802 99.792,58.695 112.077,58.177 124.373 C 57.980 129.030,58.041 129.619,58.843 130.884 C 60.750 133.889,64.328 134.814,67.030 133.000 C 69.243 131.515,69.857 129.763,70.353 123.520 C 71.476 109.387,77.182 96.927,87.055 87.055 C 96.927 77.182,109.387 71.476,123.520 70.353 C 129.763 69.857,131.515 69.243,133.000 67.030 C 134.817 64.324,133.876 60.702,130.884 58.878 C 129.366 57.952,125.836 57.820,120.181 58.477 M122.880 98.399 C 120.517 98.850,116.133 100.410,113.912 101.590 C 108.266 104.589,104.026 109.027,101.116 114.987 C 98.962 119.396,98.146 122.974,98.146 128.000 C 98.146 133.026,98.962 136.604,101.116 141.013 C 104.253 147.438,108.562 151.747,114.987 154.884 C 119.396 157.038,122.974 157.854,128.000 157.854 C 133.026 157.854,136.604 157.038,141.013 154.884 C 147.438 151.747,151.747 147.438,154.884 141.013 C 157.038 136.604,157.854 133.026,157.854 128.000 C 157.854 122.974,157.038 119.396,154.884 114.987 C 151.154 107.348,145.224 102.195,136.960 99.410 C 134.871 98.706,132.923 98.441,129.067 98.336 C 126.251 98.259,123.467 98.287,122.880 98.399 M135.851 111.938 C 139.667 113.823,142.480 116.708,144.348 120.651 C 145.607 123.309,145.707 123.849,145.707 128.000 C 145.707 132.151,145.607 132.691,144.348 135.349 C 142.459 139.335,139.673 142.173,135.741 144.117 C 132.639 145.650,132.363 145.707,128.000 145.707 C 123.637 145.707,123.361 145.650,120.259 144.117 C 116.327 142.173,113.541 139.335,111.652 135.349 C 110.393 132.691,110.293 132.151,110.293 128.000 C 110.293 123.849,110.393 123.309,111.652 120.651 C 113.359 117.049,116.190 113.994,119.416 112.275 C 122.821 110.460,124.590 110.087,128.986 110.257 C 132.280 110.385,133.129 110.592,135.851 111.938 M188.970 123.000 C 186.757 124.485,186.143 126.237,185.647 132.480 C 184.944 141.332,182.581 149.222,178.492 156.373 C 168.498 173.852,150.952 184.746,130.951 185.891 C 125.765 186.187,124.309 186.769,122.878 189.116 C 121.226 191.825,122.195 195.303,125.116 197.157 C 126.381 197.959,126.970 198.020,131.627 197.823 C 143.880 197.307,156.260 193.169,167.104 185.964 C 173.459 181.742,181.742 173.459,185.964 167.104 C 193.169 156.260,197.307 143.880,197.823 131.627 C 198.020 126.970,197.959 126.381,197.157 125.116 C 195.250 122.111,191.672 121.186,188.970 123.000 " stroke="none" fill-rule="evenodd"></path></svg>