<svg fill="currentColor" viewBox="0 0 256 256" xmlns="http://www.w3.org/2000/svg"><path d="M46.293 74.921 C 38.432 76.312,29.852 80.113,23.253 85.127 C 4.605 99.297,-2.661 123.828,5.159 146.214 C 10.532 161.596,23.562 174.208,39.432 179.389 C 47.856 182.139,42.209 181.973,127.787 181.973 C 214.486 181.973,208.346 182.179,217.625 178.965 C 226.066 176.041,232.996 171.555,239.186 165.009 C 248.867 154.771,253.867 142.166,253.867 128.000 C 253.867 116.890,250.886 107.045,244.696 97.707 C 241.970 93.594,234.510 86.135,230.400 83.412 C 220.919 77.129,211.375 74.240,200.107 74.240 C 189.466 74.240,180.268 76.800,171.682 82.152 C 158.858 90.144,150.358 102.366,147.133 117.447 C 145.929 123.079,145.844 132.855,146.955 138.027 C 149.416 149.488,154.523 158.873,162.616 166.804 L 166.121 170.240 128.000 170.240 L 89.879 170.240 93.384 166.804 C 101.473 158.877,106.472 149.756,108.867 138.553 C 110.071 132.921,110.156 123.145,109.045 117.973 C 104.227 95.535,87.966 79.316,66.012 75.051 C 60.968 74.071,51.448 74.008,46.293 74.921 M64.729 87.009 C 73.764 88.873,82.329 94.037,88.318 101.230 C 91.382 104.910,95.613 113.183,96.653 117.525 C 98.239 124.152,98.239 131.848,96.653 138.475 C 95.614 142.816,91.382 151.090,88.320 154.768 C 77.128 168.209,58.781 173.313,42.123 167.617 C 28.133 162.833,17.281 150.044,14.705 135.304 C 12.281 121.433,16.771 107.698,26.940 97.873 C 33.291 91.738,39.518 88.618,49.707 86.466 C 52.223 85.934,61.073 86.254,64.729 87.009 M210.560 87.368 C 220.008 90.006,228.678 95.954,234.059 103.490 C 236.545 106.972,239.577 113.381,240.711 117.547 C 242.059 122.501,242.059 133.499,240.711 138.453 C 239.574 142.633,236.538 149.040,234.052 152.510 C 229.276 159.173,221.465 165.022,213.877 167.617 C 194.893 174.108,173.700 166.354,163.906 149.333 C 160.578 143.549,158.919 138.443,158.324 132.152 C 157.240 120.696,160.559 109.879,167.876 101.018 C 173.523 94.181,182.211 88.931,191.070 87.003 C 196.008 85.928,206.077 86.117,210.560 87.368 " stroke="none" fill-rule="evenodd"></path></svg>