<svg fill="currentColor" viewBox="0 0 256 256" xmlns="http://www.w3.org/2000/svg"><path d="M125.504 66.374 C 59.877 80.467,13.127 90.700,12.504 91.108 C 11.919 91.492,11.052 92.682,10.578 93.753 C 9.826 95.454,9.782 95.919,10.230 97.415 C 10.513 98.358,11.273 99.659,11.921 100.307 C 13.662 102.048,15.617 102.242,20.646 101.174 C 23.019 100.670,25.200 100.260,25.493 100.262 C 25.916 100.266,26.027 109.129,26.027 143.147 L 26.027 186.027 20.373 186.027 C 13.515 186.028,12.246 186.487,10.747 189.508 C 9.900 191.215,9.823 191.729,10.203 193.135 C 10.446 194.036,10.963 195.226,11.352 195.778 C 12.989 198.108,5.801 197.973,128.093 197.973 C 235.003 197.972,241.362 197.931,242.759 197.226 C 243.572 196.816,244.606 195.841,245.057 195.061 C 246.736 192.153,245.649 188.232,242.759 186.774 C 241.573 186.176,240.160 186.028,235.627 186.027 L 229.973 186.027 229.973 121.181 L 229.973 56.336 230.933 56.113 C 231.461 55.990,234.173 55.405,236.959 54.812 C 242.534 53.626,242.972 53.457,244.384 51.947 C 246.670 49.502,246.424 45.846,243.819 43.559 C 242.493 42.395,242.031 42.246,239.878 42.288 C 238.433 42.317,191.879 52.121,125.504 66.374 M218.027 122.453 L 218.027 186.027 203.947 186.027 L 189.867 186.027 189.867 156.119 C 189.867 122.731,190.046 124.711,186.860 122.920 L 185.270 122.027 128.032 122.027 C 72.584 122.027,70.743 122.052,69.210 122.839 C 65.960 124.508,66.133 122.629,66.133 156.119 L 66.133 186.027 52.053 186.027 L 37.973 186.027 37.973 141.729 L 37.973 97.432 127.467 78.204 C 176.688 67.629,217.200 58.955,217.493 58.929 C 217.918 58.890,218.027 71.853,218.027 122.453 M177.920 144.000 L 177.920 154.027 128.000 154.027 L 78.080 154.027 78.080 144.000 L 78.080 133.973 128.000 133.973 L 177.920 133.973 177.920 144.000 M177.920 176.000 L 177.920 186.027 128.000 186.027 L 78.080 186.027 78.080 176.000 L 78.080 165.973 128.000 165.973 L 177.920 165.973 177.920 176.000 " stroke="none" fill-rule="evenodd"></path></svg>