<svg fill="currentColor" viewBox="0 0 256 256" xmlns="http://www.w3.org/2000/svg"><path d="M87.680 26.619 C 86.741 26.918,85.301 27.504,84.480 27.919 C 83.659 28.335,70.756 40.896,55.806 55.831 C 31.643 79.972,28.494 83.271,27.433 85.547 L 26.240 88.107 26.240 128.000 L 26.240 167.893 27.433 170.453 C 28.493 172.728,31.658 176.045,55.806 200.194 C 79.955 224.342,83.272 227.507,85.547 228.567 L 88.107 229.760 128.000 229.760 L 167.893 229.760 170.453 228.567 C 172.728 227.507,176.045 224.342,200.194 200.194 C 224.342 176.045,227.507 172.728,228.567 170.453 L 229.760 167.893 229.760 128.000 L 229.760 88.107 228.567 85.547 C 227.507 83.272,224.342 79.955,200.194 55.806 C 176.045 31.658,172.728 28.493,170.453 27.433 L 167.893 26.240 128.640 26.157 C 97.810 26.093,89.020 26.192,87.680 26.619 M191.676 64.324 L 218.027 90.674 218.027 128.000 L 218.027 165.326 191.676 191.676 L 165.326 218.027 128.000 218.027 L 90.674 218.027 64.324 191.676 L 37.973 165.326 37.973 128.000 L 37.973 90.674 64.324 64.324 L 90.674 37.973 128.000 37.973 L 165.326 37.973 191.676 64.324 M124.668 75.104 C 121.959 76.756,122.027 75.901,122.027 108.297 L 122.027 137.687 122.995 139.137 C 125.645 143.103,131.084 142.837,133.226 138.636 C 133.915 137.286,133.972 134.933,133.973 108.040 C 133.973 75.926,134.040 76.755,131.332 75.104 C 130.468 74.577,129.175 74.243,128.000 74.243 C 126.825 74.243,125.532 74.577,124.668 75.104 M123.947 162.935 C 117.110 166.071,116.001 175.385,121.925 179.903 C 128.365 184.815,137.831 180.302,137.903 172.285 C 137.955 166.563,133.644 162.152,128.000 162.152 C 126.628 162.152,124.944 162.477,123.947 162.935 " stroke="none" fill-rule="evenodd"></path></svg>