<svg fill="currentColor" viewBox="0 0 256 256" xmlns="http://www.w3.org/2000/svg"><path d="M20.863 67.102 C 17.792 69.153,17.921 67.706,17.921 100.053 C 17.921 126.833,17.979 129.179,18.667 130.530 C 20.787 134.687,26.621 135.071,29.007 131.211 C 29.844 129.856,29.867 129.142,29.867 103.950 L 29.867 78.080 75.947 78.080 L 122.027 78.080 122.027 131.669 C 122.027 191.070,121.839 187.183,124.797 189.011 C 126.186 189.870,126.601 189.876,180.397 189.765 L 234.598 189.653 235.754 188.587 C 238.135 186.390,238.080 187.163,238.079 155.854 C 238.079 129.163,238.021 126.821,237.333 125.470 C 235.225 121.337,229.358 120.964,226.979 124.812 C 226.160 126.137,226.133 127.000,226.133 152.050 L 226.133 177.920 180.053 177.920 L 133.973 177.920 133.973 124.331 C 133.973 64.945,134.160 68.816,131.211 66.993 C 129.835 66.143,129.215 66.133,76.066 66.133 L 22.313 66.133 20.863 67.102 " stroke="none" fill-rule="evenodd"></path></svg>