<svg fill="currentColor" viewBox="0 0 256 256" xmlns="http://www.w3.org/2000/svg"><path d="M119.467 26.467 C 95.563 29.377,74.924 42.259,62.070 62.293 C 53.009 76.417,48.569 95.167,50.372 111.697 C 54.316 147.848,81.166 175.809,117.095 181.180 L 122.027 181.917 122.027 192.079 L 122.027 202.240 76.010 202.240 L 29.993 202.240 28.543 203.214 C 24.477 205.945,25.699 212.373,30.540 213.717 C 32.906 214.374,223.094 214.374,225.460 213.717 C 230.301 212.373,231.523 205.945,227.457 203.214 L 226.007 202.240 179.990 202.240 L 133.973 202.240 133.973 192.079 L 133.973 181.917 138.905 181.180 C 168.540 176.750,192.484 156.827,201.867 128.792 C 207.352 112.402,207.392 95.642,201.984 79.360 C 195.387 59.499,181.109 43.252,162.019 33.883 C 156.094 30.975,148.183 28.392,141.751 27.267 C 136.033 26.266,124.516 25.853,119.467 26.467 M139.520 39.065 C 148.566 40.624,158.858 44.998,166.717 50.623 C 171.890 54.326,179.149 61.857,182.732 67.240 C 189.268 77.057,192.787 87.311,193.664 99.093 C 196.378 135.533,169.159 167.123,132.783 169.752 C 120.677 170.627,108.858 168.229,98.038 162.702 C 91.668 159.449,86.750 155.850,81.503 150.603 C 76.244 145.344,72.662 140.443,69.363 133.994 C 65.241 125.936,62.996 117.954,62.326 108.977 C 59.674 73.442,84.986 42.872,120.747 38.421 C 125.065 37.884,134.555 38.209,139.520 39.065 M121.528 66.542 C 103.394 69.858,90.013 85.696,90.030 103.824 C 90.047 122.548,103.308 138.201,121.901 141.443 C 126.509 142.247,129.491 142.247,134.099 141.443 C 146.720 139.242,157.428 131.067,162.585 119.694 C 166.448 111.174,167.010 100.844,164.078 92.235 C 159.943 80.094,150.358 70.886,138.235 67.410 C 134.672 66.388,125.091 65.890,121.528 66.542 M133.547 78.693 C 150.518 82.350,159.141 101.709,150.532 116.825 C 148.761 119.934,145.085 123.801,141.935 125.868 C 133.728 131.253,122.076 131.245,113.994 125.849 C 111.046 123.880,107.198 119.885,105.564 117.097 C 102.522 111.907,101.341 104.770,102.568 99.002 C 105.636 84.582,119.302 75.622,133.547 78.693 " stroke="none" fill-rule="evenodd"></path></svg>