<svg fill="currentColor" viewBox="0 0 256 256" xmlns="http://www.w3.org/2000/svg"><path d="M119.467 26.480 C 110.905 27.391,102.450 29.873,93.966 33.967 C 87.615 37.031,86.618 38.031,86.615 41.336 C 86.612 44.652,89.222 47.360,92.420 47.360 C 93.078 47.360,96.025 46.228,98.968 44.843 C 105.492 41.776,109.542 40.406,115.476 39.261 C 141.489 34.241,167.797 45.112,182.609 67.003 C 197.362 88.805,197.768 117.028,183.650 139.307 C 180.688 143.980,180.261 146.142,181.837 148.480 C 183.808 151.404,187.612 152.225,190.256 150.298 C 193.261 148.109,199.001 137.413,202.004 128.408 C 207.375 112.303,207.287 94.601,201.757 78.540 C 199.887 73.107,194.958 63.486,191.687 58.880 C 187.977 53.658,178.451 44.132,173.227 40.419 C 168.410 36.996,157.965 31.721,152.383 29.892 C 142.388 26.618,130.126 25.347,119.467 26.480 M45.832 34.973 C 44.563 35.487,42.788 37.732,42.456 39.242 C 41.894 41.801,42.935 43.358,51.575 52.872 C 56.179 57.942,60.208 62.421,60.527 62.826 C 61.035 63.469,60.757 64.269,58.302 69.221 C 50.245 85.471,48.018 103.364,51.894 120.713 C 53.359 127.272,54.988 131.834,58.229 138.453 C 64.299 150.850,73.008 160.837,84.605 168.698 C 94.811 175.616,106.593 179.924,119.787 181.562 L 122.027 181.840 122.027 192.040 L 122.027 202.240 76.010 202.240 L 29.993 202.240 28.543 203.214 C 24.477 205.945,25.699 212.373,30.540 213.717 C 31.720 214.045,56.699 214.183,115.254 214.184 L 198.295 214.187 201.174 217.403 C 204.402 221.009,205.731 221.867,208.085 221.865 C 210.418 221.863,212.377 220.501,213.411 218.165 C 214.156 216.480,214.213 215.956,213.801 214.582 C 213.428 213.337,195.107 192.931,133.129 124.726 C 89.025 76.191,52.328 36.048,51.580 35.520 C 50.165 34.521,47.562 34.273,45.832 34.973 M121.204 66.591 C 118.594 67.054,116.224 68.627,115.563 70.335 C 114.802 72.301,115.353 75.401,116.715 76.823 C 118.400 78.582,120.334 79.030,123.704 78.443 C 130.009 77.345,137.253 78.940,142.620 82.608 C 146.417 85.202,148.983 88.168,151.070 92.373 C 154.098 98.478,154.687 104.509,152.937 111.478 C 152.264 114.159,152.270 114.323,153.116 116.237 C 153.834 117.860,154.353 118.379,155.974 119.096 C 158.615 120.264,160.525 119.899,162.579 117.831 C 164.909 115.485,165.769 111.626,165.729 103.680 C 165.702 98.227,165.562 97.046,164.547 93.721 C 160.557 80.657,151.004 71.101,138.235 67.400 C 134.574 66.339,125.156 65.892,121.204 66.591 M81.681 85.928 C 88.275 93.201,90.846 96.320,90.652 96.808 C 90.502 97.185,90.280 99.701,90.159 102.400 C 89.289 121.721,102.731 138.133,122.176 141.489 C 124.323 141.859,127.500 142.091,129.236 142.003 L 132.393 141.844 137.130 146.998 C 151.555 162.692,153.329 164.760,152.714 165.160 C 151.769 165.776,144.351 168.016,140.800 168.759 C 136.010 169.760,128.828 170.166,123.222 169.752 C 114.069 169.077,107.414 167.234,98.773 162.981 C 85.892 156.641,76.149 147.096,69.567 134.369 C 65.240 126.001,62.959 117.944,62.331 108.800 C 61.551 97.437,63.462 86.508,67.937 76.738 L 69.693 72.907 71.065 74.320 C 71.820 75.097,76.597 80.321,81.681 85.928 M111.562 118.881 C 116.397 124.192,120.262 128.627,120.151 128.738 C 120.040 128.849,118.449 128.221,116.615 127.342 C 111.988 125.125,106.991 120.151,104.845 115.627 C 103.457 112.703,102.249 109.227,102.620 109.227 C 102.704 109.227,106.728 113.571,111.562 118.881 M174.507 188.007 C 181.195 195.398,186.731 201.624,186.809 201.843 C 186.896 202.085,176.626 202.240,160.462 202.240 L 133.973 202.240 133.973 192.098 L 133.973 181.957 139.887 181.006 C 146.559 179.934,152.622 178.249,157.653 176.069 C 159.531 175.256,161.355 174.586,161.707 174.579 C 162.059 174.573,167.819 180.615,174.507 188.007 " stroke="none" fill-rule="evenodd"></path></svg>