<svg fill="currentColor" viewBox="0 0 256 256" xmlns="http://www.w3.org/2000/svg"><path d="M99.909 18.359 C 90.347 19.670,82.007 25.539,77.465 34.153 C 70.832 46.731,74.218 62.711,85.363 71.432 C 88.620 73.980,90.863 75.171,95.079 76.591 L 97.920 77.548 97.920 84.469 L 97.920 91.390 94.080 92.390 C 68.679 98.998,48.737 120.035,43.335 145.920 C 40.135 161.256,42.400 177.514,49.753 191.979 C 57.927 208.057,72.499 220.600,89.642 226.313 C 97.984 229.093,101.979 229.709,111.787 229.732 C 119.257 229.749,121.239 229.609,125.369 228.776 C 132.323 227.373,138.507 225.248,144.853 222.080 C 152.345 218.339,157.478 214.598,163.860 208.225 C 172.641 199.457,178.310 190.006,181.334 179.096 C 182.379 175.323,182.009 173.482,179.819 171.559 C 178.535 170.431,177.981 170.240,176.000 170.240 C 174.026 170.240,173.464 170.432,172.202 171.541 C 171.002 172.594,170.475 173.629,169.433 176.981 C 163.283 196.768,145.789 212.120,124.027 216.828 C 117.634 218.211,106.554 218.204,100.301 216.812 C 88.584 214.205,79.603 209.311,71.226 200.968 C 61.939 191.720,56.237 180.246,54.577 167.467 C 53.951 162.648,54.311 152.389,55.259 148.053 C 58.983 131.021,70.006 116.561,85.291 108.658 C 88.812 106.838,96.830 103.680,97.931 103.680 C 98.027 103.680,98.160 111.537,98.226 121.139 L 98.347 138.599 99.413 139.754 C 101.652 142.180,99.666 142.080,145.802 142.080 L 188.378 142.080 203.736 172.840 C 214.148 193.694,219.475 203.925,220.279 204.610 C 222.655 206.633,223.290 206.529,237.524 201.794 C 244.752 199.390,251.030 197.173,251.475 196.868 C 253.879 195.219,254.607 191.378,253.007 188.789 C 252.054 187.248,249.882 186.027,248.093 186.027 C 247.453 186.027,242.575 187.467,237.254 189.227 C 231.933 190.987,227.446 192.427,227.284 192.427 C 227.121 192.427,220.287 179.035,212.097 162.667 C 201.708 141.903,196.798 132.520,195.856 131.627 L 194.504 130.347 152.292 130.234 L 110.080 130.121 110.080 116.047 L 110.080 101.973 139.884 101.973 L 169.687 101.973 171.137 101.005 C 175.103 98.355,174.837 92.916,170.636 90.774 C 169.285 90.085,166.913 90.028,139.627 90.027 L 110.080 90.027 110.080 83.712 L 110.080 77.398 113.173 76.477 C 117.602 75.160,121.312 72.832,125.233 68.912 C 129.016 65.130,131.097 61.649,132.761 56.320 C 134.189 51.747,134.189 44.253,132.761 39.680 C 129.507 29.261,121.590 21.588,111.446 19.025 C 108.163 18.195,103.197 17.909,99.909 18.359 M109.013 30.802 C 117.135 32.812,123.160 42.181,121.724 50.567 C 120.370 58.473,114.512 64.398,106.695 65.770 C 99.159 67.093,91.189 62.803,87.769 55.584 C 86.486 52.875,86.400 52.398,86.400 48.000 C 86.400 43.607,86.487 43.123,87.762 40.431 C 91.551 32.432,100.047 28.583,109.013 30.802 " stroke="none" fill-rule="evenodd"></path></svg>