<svg fill="currentColor" viewBox="0 0 256 256" xmlns="http://www.w3.org/2000/svg"><path d="M122.880 146.177 C 116.019 146.771,108.665 148.332,102.736 150.452 C 95.821 152.925,84.989 159.169,83.056 161.797 C 81.913 163.351,81.909 166.464,83.049 167.990 C 84.488 169.918,86.012 170.794,88.002 170.839 C 89.566 170.873,90.410 170.523,93.253 168.661 C 105.363 160.726,118.843 157.223,132.933 158.349 C 143.813 159.218,152.827 162.316,162.465 168.498 C 166.685 171.205,168.447 171.553,170.836 170.150 C 173.972 168.307,174.915 164.478,172.904 161.744 C 171.010 159.167,160.109 152.900,153.264 150.452 C 149.399 149.070,142.824 147.412,138.880 146.825 C 135.492 146.321,125.769 145.927,122.880 146.177 M123.947 194.935 C 117.110 198.071,116.001 207.385,121.925 211.903 C 128.365 216.815,137.831 212.302,137.903 204.285 C 137.955 198.563,133.644 194.152,128.000 194.152 C 126.628 194.152,124.944 194.477,123.947 194.935 " stroke="none" fill-rule="evenodd"></path></svg>