<svg fill="currentColor" viewBox="0 0 256 256" xmlns="http://www.w3.org/2000/svg"><path d="M120.747 26.275 C 119.925 26.371,117.429 26.657,115.200 26.911 C 97.087 28.974,78.488 36.924,63.688 48.928 C 59.118 52.635,51.837 59.914,48.399 64.213 C 33.997 82.223,26.027 104.946,26.027 128.000 C 26.027 160.313,41.247 190.513,67.313 209.917 C 80.785 219.946,95.439 226.020,113.280 228.971 C 119.895 230.065,136.063 230.069,142.720 228.978 C 167.013 224.997,187.139 214.259,203.399 196.604 C 216.819 182.033,225.565 163.607,228.975 142.720 C 230.058 136.090,230.063 120.352,228.985 113.526 C 224.265 83.633,208.329 58.913,183.040 42.254 C 177.765 38.779,167.473 33.766,161.280 31.655 C 155.481 29.679,148.709 28.035,142.507 27.099 C 138.223 26.452,123.882 25.910,120.747 26.275 M135.893 38.406 C 157.181 40.367,176.604 49.439,191.583 64.417 C 214.095 86.930,223.023 119.642,215.057 150.423 C 206.452 183.673,179.597 209.228,146.031 216.109 C 109.820 223.532,73.053 208.220,52.793 177.280 C 38.454 155.382,34.420 129.001,41.473 103.253 C 45.847 87.286,56.674 70.443,69.499 59.655 C 88.315 43.828,112.102 36.215,135.893 38.406 M94.683 90.425 C 92.672 91.052,91.387 92.190,90.672 93.979 C 89.240 97.557,89.061 97.315,105.089 113.387 L 119.663 128.000 105.089 142.613 C 88.836 158.910,89.134 158.499,90.824 162.320 C 91.541 163.940,92.060 164.459,93.680 165.176 C 97.501 166.866,97.090 167.164,113.390 150.908 L 128.006 136.331 142.616 150.897 C 150.652 158.909,157.706 165.607,158.291 165.781 C 162.392 167.000,165.968 164.216,165.972 159.801 L 165.973 157.682 151.155 142.841 L 136.336 128.000 150.911 113.387 C 166.950 97.304,166.761 97.559,165.322 93.962 C 164.594 92.143,162.943 90.803,160.817 90.304 C 158.165 89.683,157.293 90.392,142.405 105.275 L 128.006 119.669 113.375 105.061 C 105.328 97.027,98.463 90.451,98.119 90.448 C 97.775 90.444,97.109 90.360,96.640 90.261 C 96.171 90.162,95.290 90.235,94.683 90.425 " stroke="none" fill-rule="evenodd"></path></svg>