<svg fill="currentColor" viewBox="0 0 256 256" xmlns="http://www.w3.org/2000/svg"><path d="M43.419 34.778 C 39.481 36.228,36.414 39.235,34.955 43.073 C 34.154 45.181,34.133 47.323,34.133 127.989 L 34.133 210.741 35.052 213.197 C 36.292 216.512,39.488 219.708,42.803 220.948 L 45.259 221.867 128.000 221.867 L 210.741 221.867 213.138 220.970 C 216.379 219.757,219.757 216.379,220.970 213.138 L 221.867 210.741 221.867 128.000 C 221.867 45.292,221.866 45.258,220.981 42.891 C 219.902 40.008,216.957 36.857,213.973 35.393 L 211.840 34.347 128.427 34.268 C 58.514 34.203,44.755 34.285,43.419 34.778 M209.408 46.592 C 210.153 47.337,210.153 208.663,209.408 209.408 C 208.663 210.153,47.337 210.153,46.592 209.408 C 45.847 208.663,45.847 47.337,46.592 46.592 C 47.337 45.847,208.663 45.847,209.408 46.592 M94.683 90.425 C 92.672 91.052,91.387 92.190,90.672 93.979 C 89.240 97.557,89.061 97.315,105.089 113.387 L 119.663 128.000 105.089 142.613 C 88.836 158.910,89.134 158.499,90.824 162.320 C 91.541 163.940,92.060 164.459,93.680 165.176 C 97.501 166.866,97.090 167.164,113.390 150.908 L 128.006 136.331 142.616 150.897 C 150.652 158.909,157.706 165.607,158.291 165.781 C 162.392 167.000,165.968 164.216,165.972 159.801 L 165.973 157.682 151.155 142.841 L 136.336 128.000 150.911 113.387 C 166.950 97.304,166.761 97.559,165.322 93.962 C 164.594 92.143,162.943 90.803,160.817 90.304 C 158.165 89.683,157.293 90.392,142.405 105.275 L 128.006 119.669 113.375 105.061 C 105.328 97.027,98.463 90.451,98.119 90.448 C 97.775 90.444,97.109 90.360,96.640 90.261 C 96.171 90.162,95.290 90.235,94.683 90.425 " stroke="none" fill-rule="evenodd"></path></svg>