<svg fill="currentColor" viewBox="0 0 256 256" xmlns="http://www.w3.org/2000/svg"><path d="M109.227 42.529 C 82.275 44.041,59.145 47.666,42.925 52.920 C 33.698 55.909,29.909 58.392,26.392 63.756 C 24.424 66.758,23.450 69.734,21.996 77.193 C 19.209 91.485,18.172 105.263,18.172 128.000 C 18.172 150.737,19.209 164.515,21.996 178.807 C 23.450 186.266,24.424 189.242,26.392 192.244 C 29.832 197.490,33.682 200.070,42.226 202.856 C 61.256 209.062,84.543 212.505,116.160 213.788 C 149.423 215.138,189.127 210.787,212.693 203.209 C 219.965 200.870,222.695 199.533,225.694 196.839 C 230.233 192.762,231.967 189.053,233.966 179.143 C 236.393 167.116,237.599 153.543,237.941 134.400 C 238.394 109.111,236.506 86.244,232.740 71.396 C 230.499 62.563,225.749 57.421,216.845 54.189 C 200.915 48.407,177.183 44.384,148.907 42.670 C 142.615 42.289,115.243 42.192,109.227 42.529 M156.800 55.232 C 179.053 57.117,195.997 60.040,209.100 64.255 C 215.302 66.251,217.036 67.185,218.949 69.563 C 221.032 72.153,223.092 82.138,224.671 97.304 C 225.589 106.118,225.993 138.571,225.320 149.383 C 224.207 167.270,221.724 182.499,219.342 186.044 C 217.723 188.456,215.862 189.575,210.525 191.345 C 196.734 195.918,177.434 199.263,155.093 200.952 C 114.402 204.027,67.786 199.602,42.410 190.255 C 39.366 189.134,36.127 186.046,35.435 183.604 C 34.368 179.844,32.823 171.268,32.028 164.693 C 30.634 153.171,30.199 144.447,30.199 128.000 C 30.199 108.054,31.098 94.852,33.308 82.347 C 35.711 68.750,36.504 67.628,45.926 64.492 C 60.804 59.541,82.415 56.214,111.147 54.450 C 117.703 54.048,149.181 54.587,156.800 55.232 M109.227 90.750 C 108.271 91.243,107.388 92.205,106.773 93.424 L 105.813 95.327 105.813 128.000 L 105.813 160.673 106.773 162.576 C 107.985 164.979,109.971 166.096,112.563 165.832 C 114.138 165.672,117.951 163.282,138.870 149.340 C 152.326 140.372,163.881 132.466,164.548 131.769 C 165.598 130.673,165.760 130.170,165.760 128.000 C 165.760 125.830,165.598 125.327,164.548 124.231 C 163.881 123.534,152.326 115.628,138.870 106.660 C 112.187 88.877,112.517 89.054,109.227 90.750 M134.768 118.400 C 142.532 123.563,148.885 127.883,148.885 128.000 C 148.885 128.168,124.810 144.325,119.419 147.775 L 118.187 148.564 118.187 128.000 L 118.187 107.436 119.419 108.225 C 120.097 108.658,127.004 113.237,134.768 118.400 " stroke="none" fill-rule="evenodd"></path></svg>