<svg fill="none" viewBox="0 0 15 15" xmlns="http://www.w3.org/2000/svg"><path d="M6.000 1.000 L 6.000 2.000 3.000 2.000 L 0.000 2.000 0.000 2.500 L 0.000 3.000 3.000 3.000 L 6.000 3.000 6.000 4.000 L 6.000 5.000 7.500 5.000 L 9.000 5.000 9.000 4.000 L 9.000 3.000 12.000 3.000 L 15.000 3.000 15.000 2.500 L 15.000 2.000 12.000 2.000 L 9.000 2.000 9.000 1.000 L 9.000 0.000 7.500 0.000 L 6.000 0.000 6.000 1.000 M8.000 2.500 L 8.000 4.000 7.500 4.000 L 7.000 4.000 7.000 2.500 L 7.000 1.000 7.500 1.000 L 8.000 1.000 8.000 2.500 M2.000 6.000 L 2.000 7.000 1.000 7.000 L 0.000 7.000 0.000 7.500 L 0.000 8.000 1.000 8.000 L 2.000 8.000 2.000 9.000 L 2.000 10.000 3.500 10.000 L 5.000 10.000 5.000 9.000 L 5.000 8.000 10.000 8.000 L 15.000 8.000 15.000 7.500 L 15.000 7.000 10.000 7.000 L 5.000 7.000 5.000 6.000 L 5.000 5.000 3.500 5.000 L 2.000 5.000 2.000 6.000 M4.000 7.500 L 4.000 9.000 3.500 9.000 L 3.000 9.000 3.000 7.500 L 3.000 6.000 3.500 6.000 L 4.000 6.000 4.000 7.500 M10.000 11.000 L 10.000 12.000 5.000 12.000 L 0.000 12.000 0.000 12.500 L 0.000 13.000 5.000 13.000 L 10.000 13.000 10.000 14.000 L 10.000 15.000 11.500 15.000 L 13.000 15.000 13.000 14.000 L 13.000 13.000 14.000 13.000 L 15.000 13.000 15.000 12.500 L 15.000 12.000 14.000 12.000 L 13.000 12.000 13.000 11.000 L 13.000 10.000 11.500 10.000 L 10.000 10.000 10.000 11.000 M12.000 12.500 L 12.000 14.000 11.500 14.000 L 11.000 14.000 11.000 12.500 L 11.000 11.000 11.500 11.000 L 12.000 11.000 12.000 12.500 " stroke="none" fill-rule="evenodd" fill="black"></path></svg>