<svg fill="none" viewBox="0 0 15 15" xmlns="http://www.w3.org/2000/svg"><path d="M0.363 1.018 C 0.258 1.045,0.104 1.176,0.052 1.283 L -0.000 1.392 0.006 6.527 L 0.013 11.663 0.072 11.758 C 0.104 11.810,0.177 11.884,0.232 11.920 L 0.334 11.988 1.667 11.995 L 3.000 12.002 3.000 11.501 L 3.000 11.000 2.000 11.000 L 1.000 11.000 1.000 6.500 L 1.000 2.000 7.500 2.000 L 14.000 2.000 14.000 6.500 L 14.000 11.000 13.000 11.000 L 12.000 11.000 12.000 11.501 L 12.000 12.002 13.333 11.995 L 14.666 11.988 14.768 11.920 C 14.823 11.884,14.896 11.810,14.928 11.758 L 14.988 11.663 14.988 6.500 L 14.988 1.338 14.931 1.247 C 14.900 1.197,14.827 1.124,14.769 1.085 L 14.663 1.012 7.538 1.009 C 3.619 1.007,0.390 1.011,0.363 1.018 M7.363 9.017 C 7.335 9.025,7.268 9.063,7.213 9.101 C 7.158 9.140,6.200 10.086,5.084 11.204 C 2.886 13.407,2.979 13.303,3.008 13.555 C 3.027 13.711,3.103 13.835,3.233 13.920 L 3.334 13.988 7.500 13.988 L 11.666 13.988 11.767 13.920 C 11.955 13.796,12.035 13.577,11.976 13.350 C 11.949 13.247,11.775 13.066,9.917 11.204 C 8.801 10.086,7.839 9.137,7.780 9.096 C 7.672 9.021,7.479 8.984,7.363 9.017 M8.900 11.613 L 10.287 13.000 7.500 13.000 L 4.713 13.000 6.100 11.613 C 6.863 10.849,7.493 10.225,7.500 10.225 C 7.507 10.225,8.137 10.849,8.900 11.613 " stroke="none" fill-rule="evenodd" fill="black"></path></svg>