<svg fill="none" viewBox="0 0 15 15" xmlns="http://www.w3.org/2000/svg"><path d="M2.506 2.494 C 2.283 2.642,2.101 2.771,2.101 2.781 C 2.100 2.792,2.460 3.340,2.900 4.000 C 3.340 4.660,3.700 5.204,3.700 5.210 C 3.700 5.216,3.596 5.303,3.469 5.402 C 2.955 5.804,2.335 6.497,1.981 7.065 C 1.458 7.904,1.118 8.917,1.026 9.913 C 1.012 10.064,1.000 10.820,1.000 11.594 L 1.000 13.000 7.500 13.000 L 14.000 13.000 14.000 11.594 C 14.000 10.820,13.988 10.064,13.974 9.913 C 13.883 8.921,13.541 7.901,13.021 7.067 C 12.667 6.500,12.042 5.801,11.531 5.402 C 11.404 5.302,11.300 5.216,11.300 5.210 C 11.300 5.204,11.660 4.660,12.100 4.000 C 12.540 3.340,12.900 2.792,12.899 2.781 C 12.899 2.766,12.512 2.501,12.151 2.269 L 12.083 2.225 11.273 3.440 C 10.827 4.109,10.456 4.666,10.448 4.678 C 10.440 4.691,10.328 4.651,10.198 4.591 C 9.659 4.340,9.088 4.170,8.446 4.072 C 7.932 3.992,7.068 3.992,6.554 4.072 C 5.912 4.170,5.341 4.340,4.802 4.591 C 4.673 4.651,4.565 4.697,4.562 4.694 C 4.559 4.690,4.194 4.142,3.750 3.475 C 3.307 2.808,2.937 2.254,2.928 2.244 C 2.919 2.234,2.729 2.347,2.506 2.494 M8.000 5.026 C 9.480 5.162,10.855 5.901,11.789 7.063 C 12.457 7.894,12.876 8.934,12.974 10.000 C 12.988 10.158,13.000 10.673,13.000 11.144 L 13.000 12.000 7.500 12.000 L 2.000 12.000 2.000 11.144 C 2.000 10.673,2.012 10.158,2.026 10.000 C 2.124 8.934,2.543 7.894,3.211 7.063 C 4.366 5.624,6.167 4.859,8.000 5.026 M4.000 9.500 L 4.000 10.000 4.500 10.000 L 5.000 10.000 5.000 9.500 L 5.000 9.000 4.500 9.000 L 4.000 9.000 4.000 9.500 M10.000 9.500 L 10.000 10.000 10.500 10.000 L 11.000 10.000 11.000 9.500 L 11.000 9.000 10.500 9.000 L 10.000 9.000 10.000 9.500 " stroke="none" fill-rule="evenodd" fill="black"></path></svg>