<svg fill="none" viewBox="0 0 15 15" xmlns="http://www.w3.org/2000/svg"><path d="M4.333 2.031 C 4.289 2.045,4.220 2.086,4.179 2.122 C 4.083 2.207,0.103 7.188,0.051 7.287 C 0.001 7.384,0.001 7.616,0.051 7.713 C 0.129 7.864,4.170 12.887,4.254 12.938 C 4.337 12.987,4.388 12.988,8.988 12.994 C 14.164 13.002,13.816 13.013,14.181 12.832 C 14.310 12.768,14.417 12.687,14.551 12.552 C 14.767 12.334,14.879 12.142,14.951 11.860 C 14.999 11.672,15.000 11.568,15.000 7.500 C 15.000 3.432,14.999 3.328,14.951 3.140 C 14.879 2.859,14.767 2.666,14.551 2.448 C 14.413 2.308,14.313 2.234,14.175 2.166 C 13.816 1.991,14.136 2.001,9.025 2.003 C 5.948 2.004,4.386 2.014,4.333 2.031 M13.768 3.080 C 13.823 3.116,13.896 3.190,13.928 3.242 L 13.988 3.338 13.988 7.500 L 13.988 11.663 13.928 11.758 C 13.896 11.810,13.823 11.884,13.768 11.920 L 13.666 11.988 9.202 11.994 L 4.737 12.000 2.950 9.764 C 1.967 8.534,1.163 7.515,1.163 7.500 C 1.163 7.485,1.967 6.466,2.950 5.236 L 4.737 3.000 9.202 3.006 L 13.666 3.013 13.768 3.080 M6.487 5.500 L 6.138 5.850 6.963 6.675 L 7.787 7.500 6.969 8.319 L 6.150 9.138 6.506 9.494 L 6.862 9.850 7.681 9.031 L 8.500 8.213 9.319 9.031 L 10.138 9.850 10.494 9.494 L 10.850 9.138 10.031 8.319 L 9.213 7.500 10.038 6.675 L 10.862 5.850 10.506 5.494 L 10.150 5.138 9.325 5.962 L 8.500 6.787 7.681 5.969 C 7.231 5.518,6.857 5.150,6.850 5.150 C 6.843 5.150,6.680 5.308,6.487 5.500 " fill="currentColor" stroke="none" fill-rule="evenodd"></path></svg>