<svg fill="none" viewBox="0 0 15 15" xmlns="http://www.w3.org/2000/svg"><path d="M7.071 0.027 C 6.636 0.081,6.162 0.238,5.787 0.453 C 5.465 0.638,5.240 0.814,4.970 1.096 C 4.597 1.484,4.353 1.887,4.188 2.383 C 4.049 2.801,4.022 2.969,4.007 3.506 L 3.994 4.000 4.493 4.000 L 4.993 4.000 5.007 3.556 C 5.023 3.033,5.070 2.809,5.235 2.461 C 5.380 2.155,5.522 1.949,5.736 1.736 C 6.047 1.425,6.485 1.177,6.914 1.071 C 7.232 0.992,7.768 0.992,8.086 1.071 C 8.515 1.177,8.953 1.425,9.264 1.736 C 9.478 1.949,9.620 2.155,9.765 2.461 C 9.930 2.809,9.977 3.033,9.993 3.556 L 10.007 4.000 10.507 4.000 L 11.006 4.000 10.993 3.506 C 10.978 2.967,10.951 2.801,10.810 2.376 C 10.632 1.841,10.342 1.390,9.908 0.974 C 9.411 0.498,8.819 0.192,8.150 0.063 C 7.890 0.014,7.330 -0.005,7.071 0.027 M3.075 5.039 C 2.796 5.099,2.563 5.232,2.337 5.460 C 2.116 5.683,2.001 5.883,1.938 6.157 C 1.919 6.242,1.726 7.893,1.511 9.825 C 1.084 13.662,1.084 13.664,1.200 13.993 C 1.355 14.435,1.713 14.775,2.200 14.941 C 2.333 14.986,2.520 14.988,7.500 14.988 C 12.480 14.988,12.667 14.986,12.800 14.941 C 13.449 14.720,13.843 14.217,13.868 13.575 C 13.882 13.225,13.105 6.261,13.025 6.025 C 12.862 5.539,12.416 5.143,11.913 5.038 C 11.657 4.984,3.324 4.985,3.075 5.039 M11.878 6.088 C 12.092 6.239,12.053 5.994,12.486 9.900 C 12.700 11.832,12.875 13.455,12.875 13.507 C 12.875 13.698,12.763 13.872,12.588 13.953 C 12.491 13.997,12.296 13.999,7.500 13.999 C 2.704 13.999,2.509 13.997,2.413 13.953 C 2.237 13.872,2.125 13.698,2.125 13.506 C 2.125 13.346,2.896 6.444,2.925 6.342 C 2.959 6.225,3.119 6.060,3.230 6.028 C 3.281 6.013,4.918 6.006,7.542 6.008 L 11.771 6.013 11.878 6.088 " fill="currentColor" stroke="none" fill-rule="evenodd"></path></svg>