<svg fill="none" viewBox="0 0 15 15" xmlns="http://www.w3.org/2000/svg"><path d="M7.325 0.035 C 7.277 0.053,5.896 0.739,4.256 1.559 L 1.275 3.050 1.500 3.500 L 1.725 3.950 4.613 2.506 L 7.500 1.063 10.387 2.506 L 13.275 3.950 13.500 3.500 L 13.725 3.050 10.693 1.534 C 7.436 -0.094,7.539 -0.048,7.325 0.035 M0.000 5.500 L 0.000 6.000 0.500 6.000 L 1.000 6.000 1.000 10.000 L 1.000 14.000 0.500 14.000 L 0.000 14.000 0.000 14.500 L 0.000 15.000 7.500 15.000 L 15.000 15.000 15.000 14.500 L 15.000 14.000 14.500 14.000 L 14.000 14.000 14.000 10.000 L 14.000 6.000 14.500 6.000 L 15.000 6.000 15.000 5.500 L 15.000 5.000 7.500 5.000 L 0.000 5.000 0.000 5.500 M13.000 10.000 L 13.000 14.000 7.500 14.000 L 2.000 14.000 2.000 10.000 L 2.000 6.000 7.500 6.000 L 13.000 6.000 13.000 10.000 M5.000 10.000 L 5.000 12.000 5.500 12.000 L 6.000 12.000 6.000 10.000 L 6.000 8.000 5.500 8.000 L 5.000 8.000 5.000 10.000 M9.000 10.000 L 9.000 12.000 9.500 12.000 L 10.000 12.000 10.000 10.000 L 10.000 8.000 9.500 8.000 L 9.000 8.000 9.000 10.000 " fill="currentColor" stroke="none" fill-rule="evenodd"></path></svg>