<svg fill="none" viewBox="0 0 15 15" xmlns="http://www.w3.org/2000/svg"><path d="M7.050 3.027 C 6.419 3.098,5.740 3.358,5.207 3.733 C 5.086 3.818,4.858 4.017,4.699 4.175 C 3.980 4.890,3.589 5.797,3.533 6.875 C 3.509 7.342,3.589 7.874,3.756 8.350 C 3.875 8.692,4.083 9.070,4.377 9.480 C 4.701 9.931,4.904 10.323,4.961 10.605 C 4.992 10.758,5.000 10.985,5.000 11.708 C 5.000 12.611,5.000 12.618,5.058 12.727 C 5.090 12.788,5.164 12.871,5.223 12.913 L 5.329 12.988 7.498 12.988 L 9.666 12.988 9.767 12.920 C 9.823 12.884,9.896 12.810,9.928 12.758 C 9.987 12.663,9.988 12.660,10.002 11.650 C 10.014 10.822,10.024 10.612,10.058 10.500 C 10.130 10.254,10.343 9.870,10.627 9.475 C 11.223 8.645,11.461 7.944,11.458 7.025 C 11.456 6.152,11.248 5.452,10.781 4.750 C 10.553 4.407,10.127 3.968,9.793 3.733 C 8.999 3.174,8.011 2.920,7.050 3.027 M7.851 4.026 C 8.659 4.127,9.398 4.557,9.886 5.212 C 10.254 5.705,10.457 6.347,10.459 7.025 C 10.461 7.708,10.276 8.267,9.861 8.825 C 9.482 9.336,9.284 9.680,9.152 10.059 C 9.024 10.425,9.000 10.631,9.000 11.353 L 9.000 12.000 7.502 12.000 L 6.004 12.000 5.994 11.256 C 5.985 10.602,5.977 10.490,5.932 10.324 C 5.800 9.846,5.609 9.475,5.213 8.931 C 5.081 8.748,4.929 8.517,4.876 8.418 C 4.503 7.721,4.435 6.834,4.692 6.038 C 5.120 4.709,6.462 3.854,7.851 4.026 M6.000 14.500 L 6.000 15.000 7.500 15.000 L 9.000 15.000 9.000 14.500 L 9.000 14.000 7.500 14.000 L 6.000 14.000 6.000 14.500 " fill="currentColor" stroke="none" fill-rule="evenodd"></path></svg>