<svg fill="none" viewBox="0 0 15 15" xmlns="http://www.w3.org/2000/svg"><path d="M3.632 0.027 C 2.695 0.138,1.819 0.731,1.376 1.554 C 0.997 2.259,0.903 3.002,1.100 3.751 C 1.379 4.814,2.186 5.621,3.249 5.900 C 3.482 5.961,3.725 6.000,3.881 6.000 L 4.000 6.000 4.000 5.504 L 4.000 5.007 3.819 4.992 C 3.009 4.922,2.297 4.329,2.071 3.538 C 1.989 3.251,1.989 2.749,2.071 2.463 C 2.259 1.804,2.801 1.262,3.463 1.070 L 3.663 1.012 7.500 1.012 L 11.338 1.012 11.538 1.070 C 12.199 1.262,12.741 1.804,12.929 2.463 C 13.011 2.749,13.011 3.251,12.929 3.538 C 12.742 4.192,12.210 4.728,11.549 4.928 C 11.369 4.983,11.324 4.985,10.181 4.994 L 9.000 5.003 9.000 5.501 L 9.000 6.000 10.119 6.000 C 11.251 6.000,11.408 5.990,11.751 5.900 C 13.075 5.552,14.000 4.359,14.000 3.000 C 14.000 1.732,13.173 0.575,11.975 0.168 C 11.495 0.004,11.800 0.015,7.613 0.010 C 5.523 0.008,3.731 0.015,3.632 0.027 M6.169 2.038 C 5.780 2.116,5.332 2.468,5.154 2.835 C 4.998 3.158,5.001 3.103,5.000 5.693 L 5.000 8.048 4.894 8.076 C 3.952 8.320,3.249 9.063,3.049 10.026 C 3.002 10.252,2.997 10.336,3.010 10.650 C 3.026 11.042,3.069 11.346,3.150 11.647 C 3.618 13.365,5.011 14.634,6.766 14.940 C 7.070 14.993,8.109 15.015,8.479 14.977 C 9.423 14.879,10.312 14.527,11.063 13.954 C 11.275 13.792,11.703 13.371,11.882 13.150 C 12.371 12.545,12.742 11.762,12.896 11.013 C 12.984 10.587,13.005 10.257,12.994 9.500 C 12.985 8.812,12.982 8.780,12.917 8.568 C 12.683 7.805,12.150 7.283,11.388 7.070 C 11.192 7.015,11.154 7.014,9.594 7.006 L 8.000 6.998 8.000 5.168 C 7.999 3.153,7.999 3.152,7.846 2.835 C 7.719 2.573,7.426 2.287,7.150 2.156 C 6.830 2.004,6.526 1.967,6.169 2.038 M6.763 3.083 C 6.814 3.117,6.885 3.189,6.921 3.241 L 6.988 3.338 6.994 5.668 L 7.001 7.998 9.057 8.005 L 11.113 8.013 11.256 8.070 C 11.552 8.190,11.813 8.452,11.928 8.743 C 11.979 8.875,11.985 8.938,11.995 9.455 C 12.013 10.485,11.925 11.017,11.631 11.661 C 11.082 12.862,10.004 13.694,8.675 13.941 C 8.390 13.995,7.431 14.016,7.106 13.976 C 5.995 13.842,5.032 13.207,4.466 12.238 C 4.324 11.994,4.168 11.603,4.101 11.321 C 4.023 10.997,3.987 10.515,4.021 10.268 C 4.082 9.827,4.405 9.381,4.819 9.166 L 5.000 9.072 5.000 9.536 L 5.000 10.000 5.500 10.000 L 5.999 10.000 6.006 6.669 L 6.013 3.338 6.079 3.241 C 6.147 3.143,6.275 3.042,6.363 3.017 C 6.469 2.987,6.671 3.021,6.763 3.083 " stroke="none" fill-rule="evenodd" fill="black"></path></svg>