<svg fill="none" viewBox="0 0 15 15" xmlns="http://www.w3.org/2000/svg"><path d="M2.169 0.038 C 1.780 0.116,1.332 0.468,1.154 0.835 C 0.991 1.173,1.001 0.733,1.001 7.500 C 1.001 14.266,0.991 13.826,1.154 14.165 C 1.269 14.405,1.595 14.731,1.835 14.846 C 2.172 15.008,1.832 14.999,7.500 14.999 C 13.168 14.999,12.828 15.008,13.165 14.846 C 13.405 14.731,13.731 14.405,13.846 14.165 C 14.009 13.826,13.999 14.266,13.999 7.500 C 13.999 0.733,14.009 1.173,13.846 0.835 C 13.719 0.573,13.426 0.287,13.150 0.156 C 13.033 0.100,12.864 0.042,12.773 0.027 C 12.510 -0.016,2.392 -0.006,2.169 0.038 M12.759 1.079 C 12.811 1.115,12.885 1.189,12.921 1.241 L 12.988 1.338 12.988 7.500 L 12.988 13.663 12.915 13.769 C 12.876 13.827,12.803 13.900,12.753 13.931 L 12.663 13.988 7.500 13.988 L 2.337 13.988 2.247 13.931 C 2.197 13.900,2.124 13.827,2.085 13.769 L 2.013 13.663 2.013 7.500 L 2.013 1.338 2.079 1.241 C 2.148 1.142,2.277 1.040,2.363 1.018 C 2.390 1.011,4.719 1.007,7.538 1.009 L 12.663 1.012 12.759 1.079 M4.000 4.500 L 4.000 5.000 7.500 5.000 L 11.000 5.000 11.000 4.500 L 11.000 4.000 7.500 4.000 L 4.000 4.000 4.000 4.500 M4.000 8.500 L 4.000 9.000 4.500 9.000 L 5.000 9.000 5.000 8.500 L 5.000 8.000 4.500 8.000 L 4.000 8.000 4.000 8.500 M7.000 8.500 L 7.000 9.000 7.500 9.000 L 8.000 9.000 8.000 8.500 L 8.000 8.000 7.500 8.000 L 7.000 8.000 7.000 8.500 M10.000 8.500 L 10.000 9.000 10.500 9.000 L 11.000 9.000 11.000 8.500 L 11.000 8.000 10.500 8.000 L 10.000 8.000 10.000 8.500 M4.000 11.500 L 4.000 12.000 4.500 12.000 L 5.000 12.000 5.000 11.500 L 5.000 11.000 4.500 11.000 L 4.000 11.000 4.000 11.500 M7.000 11.500 L 7.000 12.000 7.500 12.000 L 8.000 12.000 8.000 11.500 L 8.000 11.000 7.500 11.000 L 7.000 11.000 7.000 11.500 M10.000 11.500 L 10.000 12.000 10.500 12.000 L 11.000 12.000 11.000 11.500 L 11.000 11.000 10.500 11.000 L 10.000 11.000 10.000 11.500 " stroke="none" fill-rule="evenodd" fill="black"></path></svg>