<svg fill="none" viewBox="0 0 15 15" xmlns="http://www.w3.org/2000/svg"><path d="M7.000 0.016 C 4.798 0.180,2.835 1.244,1.508 2.994 C 0.749 3.994,0.277 5.135,0.068 6.475 C -0.008 6.965,-0.008 8.035,0.068 8.525 C 0.389 10.583,1.383 12.271,2.996 13.494 C 3.991 14.249,5.139 14.724,6.475 14.932 C 6.965 15.008,8.035 15.008,8.525 14.932 C 10.348 14.648,11.897 13.826,13.060 12.527 C 14.090 11.375,14.686 10.102,14.932 8.525 C 15.008 8.035,15.008 6.965,14.932 6.475 C 14.724 5.139,14.249 3.991,13.494 2.996 C 12.254 1.361,10.481 0.333,8.438 0.062 C 8.145 0.023,7.275 -0.005,7.000 0.016 M8.459 1.075 C 9.158 1.180,9.696 1.349,10.363 1.674 C 11.030 2.000,11.551 2.373,12.089 2.911 C 12.426 3.247,12.586 3.438,12.834 3.793 L 12.978 3.998 10.008 4.007 C 7.048 4.015,7.037 4.015,6.795 4.070 C 6.108 4.227,5.575 4.511,5.086 4.980 C 4.790 5.265,4.587 5.530,4.410 5.863 L 4.282 6.104 3.627 4.471 L 2.973 2.838 3.118 2.703 C 3.661 2.199,4.403 1.739,5.150 1.441 C 5.661 1.238,6.315 1.085,6.927 1.026 C 7.290 0.991,8.059 1.016,8.459 1.075 M3.138 5.944 C 3.628 7.171,4.038 8.175,4.049 8.175 C 4.059 8.175,4.081 8.240,4.099 8.319 C 4.226 8.889,4.535 9.451,4.972 9.906 C 5.391 10.342,5.840 10.632,6.376 10.810 C 6.826 10.959,7.007 10.988,7.527 10.988 L 7.991 10.988 7.872 11.150 C 7.807 11.239,7.337 11.869,6.829 12.550 C 5.965 13.707,5.901 13.787,5.836 13.780 C 5.726 13.767,5.211 13.591,4.925 13.467 C 4.167 13.140,3.531 12.706,2.923 12.101 C 2.375 11.555,2.003 11.037,1.674 10.363 C 1.349 9.696,1.183 9.168,1.072 8.446 C 0.992 7.932,0.992 7.068,1.072 6.554 C 1.183 5.830,1.350 5.301,1.675 4.638 C 1.848 4.283,2.212 3.678,2.236 3.703 C 2.241 3.708,2.647 4.717,3.138 5.944 M8.099 5.075 C 8.513 5.176,8.956 5.427,9.264 5.736 C 9.575 6.047,9.823 6.485,9.929 6.914 C 10.008 7.232,10.008 7.768,9.929 8.086 C 9.707 8.981,9.021 9.679,8.128 9.919 C 7.918 9.976,7.839 9.984,7.500 9.984 C 7.161 9.984,7.082 9.976,6.872 9.919 C 6.284 9.761,5.775 9.404,5.445 8.918 C 5.294 8.696,5.133 8.338,5.071 8.086 C 4.992 7.768,4.992 7.232,5.071 6.914 C 5.134 6.659,5.294 6.305,5.451 6.072 C 5.815 5.533,6.460 5.134,7.145 5.025 C 7.365 4.990,7.857 5.016,8.099 5.075 M13.606 5.273 C 13.733 5.611,13.862 6.123,13.930 6.563 C 13.974 6.847,13.984 7.022,13.984 7.500 C 13.984 7.978,13.974 8.153,13.930 8.438 C 13.863 8.866,13.735 9.381,13.613 9.714 C 13.391 10.315,12.973 11.057,12.564 11.575 C 12.363 11.830,11.785 12.402,11.525 12.603 C 10.590 13.328,9.566 13.765,8.395 13.939 C 8.090 13.985,7.126 14.017,7.067 13.984 C 7.033 13.965,7.282 13.618,8.557 11.910 C 9.399 10.782,10.161 9.767,10.252 9.655 C 10.623 9.193,10.869 8.619,10.966 7.988 C 11.013 7.682,11.000 7.131,10.939 6.838 C 10.805 6.201,10.511 5.611,10.112 5.180 L 9.945 5.000 11.727 5.006 L 13.509 5.013 13.606 5.273 " fill="currentColor" stroke="none" fill-rule="evenodd"></path></svg>