<svg fill="none" viewBox="0 0 15 15" xmlns="http://www.w3.org/2000/svg"><path d="M4.000 0.500 L 4.000 1.000 2.500 1.000 L 1.000 1.000 1.000 7.331 C 1.001 14.282,0.991 13.826,1.154 14.165 C 1.269 14.405,1.595 14.731,1.835 14.846 C 2.172 15.008,1.832 14.999,7.500 14.999 C 13.168 14.999,12.828 15.008,13.165 14.846 C 13.405 14.731,13.731 14.405,13.846 14.165 C 14.009 13.826,13.999 14.282,14.000 7.331 L 14.000 1.000 12.500 1.000 L 11.000 1.000 11.000 0.500 L 11.000 0.000 7.500 0.000 L 4.000 0.000 4.000 0.500 M9.995 1.831 L 9.988 2.663 9.915 2.769 C 9.876 2.827,9.803 2.900,9.753 2.931 L 9.663 2.988 7.500 2.988 L 5.338 2.988 5.247 2.931 C 5.197 2.900,5.124 2.827,5.085 2.769 L 5.013 2.663 5.005 1.831 L 4.997 1.000 7.500 1.000 L 10.003 1.000 9.995 1.831 M4.000 2.331 C 4.001 2.929,4.102 3.203,4.450 3.550 C 4.688 3.789,4.890 3.904,5.173 3.964 C 5.416 4.016,9.584 4.016,9.827 3.964 C 10.110 3.904,10.312 3.789,10.550 3.550 C 10.898 3.203,10.999 2.929,11.000 2.331 L 11.000 2.000 12.000 2.000 L 13.000 2.000 12.994 7.831 L 12.988 13.663 12.915 13.769 C 12.876 13.827,12.803 13.900,12.753 13.931 L 12.663 13.988 7.500 13.988 L 2.337 13.988 2.247 13.931 C 2.197 13.900,2.124 13.827,2.085 13.769 L 2.013 13.663 2.006 7.831 L 2.000 2.000 3.000 2.000 L 4.000 2.000 4.000 2.331 M7.000 7.000 L 7.000 8.000 6.000 8.000 L 5.000 8.000 5.000 8.500 L 5.000 9.000 6.000 9.000 L 7.000 9.000 7.000 10.000 L 7.000 11.000 7.500 11.000 L 8.000 11.000 8.000 10.000 L 8.000 9.000 9.000 9.000 L 10.000 9.000 10.000 8.500 L 10.000 8.000 9.000 8.000 L 8.000 8.000 8.000 7.000 L 8.000 6.000 7.500 6.000 L 7.000 6.000 7.000 7.000 " stroke="none" fill-rule="evenodd" fill="black"></path></svg>