<svg fill="none" viewBox="0 0 15 15" xmlns="http://www.w3.org/2000/svg"><path d="M4.000 0.500 L 4.000 1.000 2.500 1.000 L 1.000 1.000 1.000 7.331 C 1.001 14.282,0.991 13.826,1.154 14.165 C 1.269 14.405,1.595 14.731,1.835 14.846 C 2.172 15.008,1.832 14.999,7.500 14.999 C 13.168 14.999,12.828 15.008,13.165 14.846 C 13.405 14.731,13.731 14.405,13.846 14.165 C 14.009 13.826,13.999 14.282,14.000 7.331 L 14.000 1.000 12.500 1.000 L 11.000 1.000 11.000 0.500 L 11.000 0.000 7.500 0.000 L 4.000 0.000 4.000 0.500 M9.995 1.831 L 9.988 2.663 9.915 2.769 C 9.876 2.827,9.803 2.900,9.753 2.931 L 9.663 2.988 7.500 2.988 L 5.338 2.988 5.247 2.931 C 5.197 2.900,5.124 2.827,5.085 2.769 L 5.013 2.663 5.005 1.831 L 4.997 1.000 7.500 1.000 L 10.003 1.000 9.995 1.831 M4.000 2.331 C 4.001 2.929,4.102 3.203,4.450 3.550 C 4.688 3.789,4.890 3.904,5.173 3.964 C 5.416 4.016,9.584 4.016,9.827 3.964 C 10.110 3.904,10.312 3.789,10.550 3.550 C 10.898 3.203,10.999 2.929,11.000 2.331 L 11.000 2.000 12.000 2.000 L 13.000 2.000 12.994 7.831 L 12.988 13.663 12.915 13.769 C 12.876 13.827,12.803 13.900,12.753 13.931 L 12.663 13.988 7.500 13.988 L 2.337 13.988 2.247 13.931 C 2.197 13.900,2.124 13.827,2.085 13.769 L 2.013 13.663 2.006 7.831 L 2.000 2.000 3.000 2.000 L 4.000 2.000 4.000 2.331 M5.487 6.500 L 5.138 6.850 5.963 7.675 L 6.787 8.500 5.969 9.319 L 5.150 10.138 5.506 10.494 L 5.862 10.850 6.681 10.031 L 7.500 9.213 8.319 10.031 L 9.138 10.850 9.494 10.494 L 9.850 10.138 9.031 9.319 L 8.213 8.500 9.038 7.675 L 9.862 6.850 9.506 6.494 L 9.150 6.138 8.325 6.962 L 7.500 7.787 6.681 6.969 C 6.231 6.518,5.857 6.150,5.850 6.150 C 5.843 6.150,5.680 6.308,5.487 6.500 " stroke="none" fill-rule="evenodd" fill="black"></path></svg>