<svg fill="none" viewBox="0 0 15 15" xmlns="http://www.w3.org/2000/svg"><path d="M2.175 0.039 C 1.902 0.098,1.663 0.233,1.449 0.448 C 1.233 0.666,1.121 0.859,1.049 1.140 C 1.001 1.330,1.000 1.440,1.000 7.500 C 1.000 13.560,1.001 13.670,1.049 13.860 C 1.122 14.143,1.233 14.334,1.449 14.551 C 1.666 14.767,1.857 14.878,2.140 14.951 C 2.329 14.999,2.436 15.000,7.500 15.000 C 12.564 15.000,12.671 14.999,12.860 14.951 C 13.143 14.878,13.334 14.767,13.551 14.551 C 13.767 14.334,13.878 14.143,13.951 13.860 C 13.999 13.671,14.000 13.564,14.000 8.477 L 14.000 3.287 12.356 1.644 L 10.712 0.000 6.525 0.002 C 3.034 0.004,2.310 0.010,2.175 0.039 M11.644 2.357 L 13.000 3.713 12.994 8.690 L 12.988 13.666 12.920 13.767 C 12.884 13.823,12.810 13.896,12.758 13.928 L 12.663 13.988 7.500 13.988 L 2.337 13.988 2.242 13.928 C 2.190 13.896,2.116 13.823,2.080 13.767 L 2.013 13.666 2.006 7.555 C 2.002 3.307,2.008 1.414,2.026 1.346 C 2.058 1.226,2.217 1.061,2.330 1.028 C 2.380 1.014,3.950 1.004,6.350 1.002 L 10.288 1.000 11.644 2.357 M4.000 4.500 L 4.000 5.000 5.500 5.000 L 7.000 5.000 7.000 4.500 L 7.000 4.000 5.500 4.000 L 4.000 4.000 4.000 4.500 M4.000 7.500 L 4.000 8.000 7.500 8.000 L 11.000 8.000 11.000 7.500 L 11.000 7.000 7.500 7.000 L 4.000 7.000 4.000 7.500 M6.163 9.915 C 5.496 10.063,4.929 10.498,4.637 11.086 C 4.576 11.211,4.525 11.321,4.525 11.331 C 4.525 11.340,4.725 11.412,4.969 11.490 C 5.213 11.568,5.425 11.636,5.441 11.642 C 5.457 11.649,5.506 11.586,5.551 11.503 C 5.849 10.943,6.587 10.713,7.155 11.003 L 7.259 11.056 7.111 11.137 C 6.553 11.445,6.226 11.704,6.105 11.935 C 6.051 12.040,6.039 12.096,6.039 12.250 C 6.038 12.528,6.151 12.695,6.425 12.822 C 6.710 12.954,7.284 12.914,7.765 12.728 C 8.391 12.485,8.747 12.092,8.785 11.600 L 8.796 11.463 9.092 11.466 C 9.564 11.471,9.768 11.548,10.941 12.158 C 11.332 12.361,11.608 12.462,11.844 12.489 L 12.000 12.506 12.000 12.009 L 12.000 11.513 11.819 11.457 C 11.719 11.426,11.435 11.293,11.188 11.160 C 10.463 10.771,10.092 10.616,9.638 10.509 C 9.363 10.445,8.692 10.445,8.438 10.508 C 8.267 10.551,8.263 10.551,8.201 10.501 C 7.862 10.228,7.526 10.043,7.200 9.949 C 6.948 9.876,6.414 9.859,6.163 9.915 " fill="currentColor" stroke="none" fill-rule="evenodd"></path></svg>