<svg fill="none" viewBox="0 0 15 15" xmlns="http://www.w3.org/2000/svg"><path d="M1.200 0.028 C 1.124 0.040,0.967 0.097,0.850 0.154 C 0.573 0.289,0.279 0.576,0.154 0.835 C -0.049 1.255,-0.049 1.744,0.154 2.165 C 0.269 2.405,0.595 2.731,0.835 2.846 C 1.256 3.049,1.744 3.049,2.165 2.846 C 2.403 2.732,2.731 2.405,2.844 2.169 L 2.926 2.000 3.782 2.000 C 4.929 2.000,5.151 2.035,5.650 2.290 C 6.212 2.578,6.664 3.107,6.873 3.722 C 6.998 4.091,7.000 4.132,7.000 7.550 C 7.001 10.944,7.002 10.985,7.123 11.413 C 7.296 12.029,7.607 12.556,8.054 12.990 C 8.510 13.433,8.985 13.708,9.588 13.877 C 9.945 13.978,10.217 13.999,11.168 14.000 L 12.074 14.000 12.156 14.169 C 12.269 14.405,12.597 14.732,12.835 14.846 C 13.256 15.049,13.744 15.049,14.165 14.846 C 14.405 14.731,14.731 14.405,14.846 14.165 C 15.049 13.744,15.049 13.255,14.846 12.835 C 14.720 12.574,14.427 12.287,14.150 12.155 C 13.727 11.952,13.267 11.952,12.850 12.154 C 12.575 12.288,12.279 12.576,12.156 12.831 L 12.074 13.000 11.172 13.000 C 10.359 13.000,10.245 12.995,10.017 12.948 C 9.128 12.767,8.424 12.145,8.127 11.278 C 8.002 10.911,8.000 10.870,8.000 7.450 C 7.999 4.056,7.998 4.015,7.877 3.588 C 7.703 2.969,7.389 2.439,6.934 1.997 C 6.580 1.655,6.235 1.431,5.787 1.252 C 5.258 1.041,4.930 1.000,3.760 1.000 L 2.926 1.000 2.844 0.831 C 2.719 0.573,2.424 0.286,2.150 0.156 C 1.845 0.011,1.552 -0.029,1.200 0.028 M1.763 1.083 C 1.814 1.117,1.884 1.189,1.921 1.241 C 1.976 1.321,1.987 1.365,1.987 1.500 C 1.987 1.637,1.975 1.679,1.915 1.769 C 1.807 1.929,1.696 1.988,1.500 1.988 C 1.304 1.988,1.193 1.929,1.085 1.769 C 1.025 1.679,1.013 1.637,1.013 1.500 C 1.013 1.365,1.024 1.321,1.079 1.241 C 1.147 1.143,1.275 1.042,1.363 1.017 C 1.469 0.987,1.671 1.021,1.763 1.083 M13.763 13.083 C 13.814 13.117,13.884 13.189,13.921 13.241 C 13.976 13.321,13.987 13.365,13.987 13.500 C 13.987 13.637,13.975 13.679,13.915 13.769 C 13.807 13.929,13.696 13.988,13.500 13.988 C 13.304 13.988,13.193 13.929,13.085 13.769 C 13.025 13.679,13.013 13.637,13.013 13.500 C 13.013 13.365,13.024 13.321,13.079 13.241 C 13.147 13.143,13.275 13.042,13.363 13.017 C 13.469 12.987,13.671 13.021,13.763 13.083 " stroke="none" fill-rule="evenodd" fill="black"></path></svg>