<svg fill="none" viewBox="0 0 15 15" xmlns="http://www.w3.org/2000/svg"><path d="M7.025 0.014 C 6.977 0.020,6.814 0.037,6.663 0.052 C 5.409 0.177,4.067 0.704,3.040 1.474 C 1.040 2.975,-0.070 5.268,0.008 7.738 C 0.116 11.113,2.436 13.972,5.728 14.785 C 7.650 15.260,9.773 14.923,11.447 13.877 C 13.130 12.825,14.315 11.190,14.786 9.269 C 14.947 8.612,14.984 8.277,14.984 7.500 C 14.984 6.723,14.947 6.388,14.786 5.731 C 14.043 2.698,11.545 0.467,8.438 0.060 C 8.171 0.025,7.203 -0.006,7.025 0.014 M8.459 1.075 C 9.159 1.180,9.699 1.350,10.363 1.675 C 11.058 2.015,11.528 2.352,12.088 2.912 C 12.648 3.472,12.985 3.942,13.325 4.638 C 13.560 5.118,13.674 5.419,13.788 5.863 C 13.938 6.447,13.984 6.831,13.984 7.500 C 13.984 8.169,13.938 8.553,13.788 9.137 C 13.674 9.581,13.560 9.882,13.325 10.363 C 13.013 11.001,12.674 11.488,12.200 11.980 L 11.927 12.263 11.926 12.163 C 11.922 11.879,11.671 7.587,11.650 7.438 C 11.570 6.888,11.353 6.304,11.058 5.845 C 10.800 5.442,10.385 5.009,9.996 4.735 C 9.729 4.547,9.253 4.306,8.950 4.207 C 8.388 4.022,8.043 3.992,6.656 4.007 C 5.506 4.019,5.442 4.026,5.025 4.168 C 3.827 4.576,3.000 5.732,3.000 7.000 C 3.000 8.361,3.924 9.552,5.249 9.900 C 5.571 9.984,5.742 10.000,6.381 10.000 L 7.000 10.000 7.000 11.991 L 7.000 13.982 6.810 13.965 C 5.927 13.885,4.867 13.519,4.065 13.019 C 3.278 12.529,2.502 11.755,1.990 10.950 C 1.832 10.703,1.502 10.025,1.388 9.716 C 1.263 9.376,1.137 8.873,1.072 8.446 C 0.992 7.932,0.992 7.068,1.072 6.554 C 1.183 5.831,1.349 5.302,1.675 4.638 C 2.011 3.949,2.352 3.473,2.900 2.924 C 3.435 2.388,3.877 2.062,4.513 1.735 C 5.296 1.332,6.050 1.111,6.927 1.026 C 7.290 0.991,8.059 1.016,8.459 1.075 M8.300 5.061 C 9.215 5.273,9.935 5.822,10.349 6.627 C 10.496 6.911,10.589 7.184,10.638 7.475 C 10.658 7.592,10.736 8.803,10.811 10.175 C 10.886 11.543,10.953 12.738,10.960 12.830 L 10.972 12.998 10.830 13.084 C 10.078 13.538,9.026 13.889,8.190 13.965 L 8.000 13.982 8.006 11.948 L 8.013 9.914 8.192 9.848 C 8.684 9.667,9.100 9.316,9.372 8.854 L 9.449 8.725 9.001 8.501 L 8.554 8.277 8.475 8.400 C 8.369 8.565,8.142 8.772,7.974 8.856 C 7.692 8.996,7.613 9.004,6.581 8.994 C 5.689 8.985,5.627 8.981,5.451 8.928 C 4.659 8.689,4.083 7.992,4.010 7.185 L 3.993 7.000 4.497 7.000 L 5.000 7.000 5.000 6.500 L 5.000 6.000 4.637 6.000 L 4.274 6.000 4.310 5.931 C 4.365 5.828,4.570 5.596,4.725 5.463 C 4.979 5.246,5.324 5.086,5.666 5.025 C 5.733 5.013,6.311 5.007,6.950 5.011 C 7.946 5.017,8.139 5.024,8.300 5.061 M6.000 6.500 L 6.000 7.000 6.500 7.000 L 7.000 7.000 7.000 6.500 L 7.000 6.000 6.500 6.000 L 6.000 6.000 6.000 6.500 " stroke="none" fill-rule="evenodd" fill="black"></path></svg>