<svg fill="none" viewBox="0 0 15 15" xmlns="http://www.w3.org/2000/svg"><path d="M5.250 1.017 C 4.433 1.105,3.508 1.403,2.766 1.817 C 2.274 2.092,1.882 2.372,1.797 2.510 C 1.743 2.599,1.395 3.640,1.191 4.325 C 0.520 6.579,0.135 8.589,0.023 10.415 C -0.017 11.074,-0.001 11.384,0.086 11.638 C 0.550 12.984,1.585 13.786,3.099 13.974 C 3.603 14.036,3.673 14.016,4.018 13.707 C 4.574 13.208,5.371 12.400,5.404 12.301 C 5.410 12.281,5.528 12.296,5.788 12.348 C 5.994 12.389,6.298 12.441,6.463 12.464 C 6.872 12.519,7.856 12.540,8.306 12.501 C 8.647 12.472,9.324 12.373,9.493 12.327 C 9.569 12.306,9.577 12.311,9.675 12.437 C 9.807 12.609,10.524 13.310,10.933 13.668 C 11.272 13.965,11.338 14.000,11.563 14.000 C 11.860 14.000,12.431 13.899,12.767 13.787 C 13.815 13.437,14.561 12.686,14.916 11.625 C 14.986 11.418,14.987 11.400,14.985 10.900 C 14.976 8.950,14.424 6.157,13.482 3.288 C 13.191 2.398,13.222 2.446,12.688 2.093 C 12.042 1.666,11.082 1.263,10.350 1.114 C 9.909 1.024,9.411 0.981,9.277 1.021 C 9.158 1.057,9.014 1.175,8.959 1.281 C 8.938 1.322,8.890 1.588,8.853 1.871 L 8.784 2.388 8.711 2.386 C 8.671 2.385,8.478 2.364,8.282 2.339 C 7.716 2.267,6.715 2.302,6.236 2.412 C 6.186 2.423,6.183 2.405,6.139 1.933 C 6.115 1.663,6.085 1.409,6.073 1.368 C 6.005 1.133,5.798 0.998,5.514 1.004 C 5.417 1.006,5.298 1.012,5.250 1.017 M5.172 2.365 C 5.189 2.539,5.199 2.683,5.195 2.687 C 5.191 2.691,5.086 2.730,4.963 2.775 C 4.623 2.899,4.212 3.082,3.717 3.329 C 3.354 3.511,3.274 3.560,3.287 3.594 C 3.326 3.697,3.730 4.425,3.748 4.425 C 3.759 4.425,3.930 4.342,4.128 4.239 C 5.060 3.759,6.008 3.437,6.783 3.338 C 7.213 3.283,7.882 3.288,8.308 3.351 C 9.102 3.468,9.900 3.743,10.858 4.231 C 11.079 4.343,11.262 4.422,11.273 4.410 C 11.306 4.372,11.725 3.599,11.725 3.575 C 11.725 3.523,10.705 3.033,10.163 2.823 C 9.730 2.656,9.757 2.695,9.807 2.313 L 9.839 2.063 9.963 2.067 C 10.122 2.074,10.605 2.198,10.919 2.314 C 11.252 2.437,11.812 2.715,12.105 2.904 L 12.347 3.061 12.472 3.424 C 13.086 5.216,13.612 7.386,13.836 9.050 C 13.931 9.754,14.020 10.958,13.994 11.186 C 13.959 11.485,13.695 11.954,13.387 12.262 C 13.009 12.640,12.526 12.872,11.938 12.958 L 11.688 12.995 11.563 12.888 C 11.246 12.617,10.623 12.017,10.642 12.001 C 10.653 11.991,10.838 11.913,11.053 11.827 C 11.268 11.742,11.572 11.607,11.728 11.528 C 12.038 11.370,12.476 11.107,12.474 11.080 C 12.473 11.070,12.352 10.881,12.205 10.658 L 11.938 10.254 11.738 10.378 C 11.120 10.760,10.153 11.148,9.375 11.326 C 8.703 11.480,8.408 11.511,7.588 11.511 C 6.994 11.511,6.775 11.502,6.538 11.467 C 5.376 11.293,4.172 10.882,3.357 10.379 L 3.151 10.253 3.092 10.333 C 3.042 10.400,2.790 10.758,2.621 11.004 L 2.575 11.070 2.781 11.202 C 3.087 11.397,3.644 11.675,4.032 11.826 C 4.221 11.899,4.375 11.967,4.375 11.977 C 4.375 11.997,3.758 12.596,3.487 12.838 L 3.312 12.995 3.062 12.958 C 2.493 12.875,1.992 12.639,1.636 12.288 C 1.406 12.061,1.321 11.944,1.180 11.661 C 0.991 11.281,0.988 11.266,1.022 10.613 C 1.125 8.599,1.599 6.277,2.438 3.688 C 2.541 3.371,2.633 3.100,2.643 3.084 C 2.686 3.021,3.160 2.736,3.513 2.562 C 3.923 2.360,4.343 2.207,4.750 2.114 C 5.173 2.017,5.136 1.995,5.172 2.365 M4.950 7.000 C 4.409 7.095,3.909 7.518,3.685 8.071 C 3.577 8.340,3.542 8.521,3.544 8.813 C 3.548 9.600,4.013 10.278,4.725 10.537 C 4.978 10.629,5.336 10.650,5.609 10.589 C 6.193 10.459,6.665 10.017,6.880 9.400 C 6.958 9.174,6.962 9.145,6.962 8.800 C 6.962 8.489,6.954 8.411,6.904 8.251 C 6.747 7.752,6.425 7.363,5.990 7.149 C 5.674 6.993,5.299 6.940,4.950 7.000 M9.325 6.999 C 9.068 7.047,8.765 7.195,8.545 7.379 C 8.300 7.584,8.064 7.970,7.970 8.322 C 7.900 8.586,7.900 9.014,7.970 9.278 C 8.147 9.939,8.645 10.441,9.269 10.589 C 9.533 10.652,9.922 10.629,10.175 10.537 C 10.682 10.352,11.065 9.949,11.254 9.400 C 11.332 9.174,11.336 9.145,11.336 8.800 C 11.336 8.458,11.332 8.424,11.258 8.211 C 11.147 7.891,11.023 7.693,10.790 7.462 C 10.465 7.141,10.147 7.002,9.700 6.987 C 9.556 6.982,9.387 6.987,9.325 6.999 M5.538 8.038 C 5.673 8.103,5.826 8.261,5.900 8.412 C 5.953 8.520,5.962 8.573,5.962 8.788 C 5.962 9.021,5.957 9.050,5.880 9.206 C 5.736 9.499,5.494 9.645,5.197 9.618 C 4.817 9.584,4.550 9.246,4.550 8.799 C 4.550 8.421,4.736 8.123,5.044 8.009 C 5.168 7.963,5.411 7.978,5.538 8.038 M9.949 8.064 C 10.094 8.143,10.199 8.262,10.282 8.442 C 10.327 8.540,10.337 8.607,10.337 8.800 C 10.337 9.004,10.328 9.057,10.273 9.175 C 10.137 9.464,9.954 9.599,9.674 9.619 C 9.523 9.630,9.484 9.623,9.364 9.564 C 9.195 9.481,9.043 9.313,8.976 9.134 C 8.905 8.945,8.906 8.652,8.979 8.458 C 9.046 8.279,9.240 8.076,9.401 8.017 C 9.565 7.957,9.786 7.976,9.949 8.064 " fill="currentColor" stroke="none" fill-rule="evenodd"></path></svg>