<svg fill="none" viewBox="0 0 15 15" xmlns="http://www.w3.org/2000/svg"><path d="M3.000 1.500 L 3.000 2.000 7.500 2.000 L 12.000 2.000 12.000 1.500 L 12.000 1.000 7.500 1.000 L 3.000 1.000 3.000 1.500 M3.000 4.500 L 3.000 5.000 6.500 5.000 L 10.000 5.000 10.000 4.500 L 10.000 4.000 6.500 4.000 L 3.000 4.000 3.000 4.500 M0.000 7.500 L 0.000 8.000 7.500 8.000 L 15.000 8.000 15.000 7.500 L 15.000 7.000 7.500 7.000 L 0.000 7.000 0.000 7.500 M3.000 10.500 L 3.000 11.000 7.500 11.000 L 12.000 11.000 12.000 10.500 L 12.000 10.000 7.500 10.000 L 3.000 10.000 3.000 10.500 M3.000 13.500 L 3.000 14.000 6.500 14.000 L 10.000 14.000 10.000 13.500 L 10.000 13.000 6.500 13.000 L 3.000 13.000 3.000 13.500 " stroke="none" fill-rule="evenodd" fill="black"></path></svg>