<svg fill="none" viewBox="0 0 15 15" xmlns="http://www.w3.org/2000/svg"><path d="M5.137 5.150 L 4.788 5.500 5.788 6.500 L 6.787 7.500 5.787 8.500 L 4.788 9.500 5.144 9.856 L 5.500 10.212 6.856 8.856 L 8.212 7.500 6.863 6.150 C 6.120 5.408,5.507 4.800,5.500 4.800 C 5.493 4.800,5.330 4.958,5.137 5.150 M8.137 5.150 L 7.788 5.500 8.788 6.500 L 9.787 7.500 8.787 8.500 L 7.788 9.500 8.144 9.856 L 8.500 10.212 9.856 8.856 L 11.212 7.500 9.863 6.150 C 9.120 5.408,8.507 4.800,8.500 4.800 C 8.493 4.800,8.330 4.958,8.137 5.150 " stroke="none" fill-rule="evenodd" fill="black"></path></svg>