<svg fill="none" viewBox="0 0 15 15" xmlns="http://www.w3.org/2000/svg"><path d="M11.763 0.340 C 11.262 0.411,10.913 0.541,10.550 0.794 C 10.455 0.860,9.790 1.503,8.944 2.347 L 7.500 3.787 7.175 3.462 L 6.850 3.138 6.494 3.494 L 6.138 3.850 6.713 4.425 L 7.287 5.000 3.644 8.644 L 0.000 12.288 -0.000 13.452 L -0.000 14.617 0.058 14.727 C 0.090 14.788,0.164 14.871,0.223 14.913 L 0.329 14.988 1.520 14.995 L 2.711 15.002 6.355 11.357 L 10.000 7.713 10.569 8.281 L 11.138 8.850 11.494 8.494 L 11.850 8.137 11.531 7.819 L 11.213 7.500 12.653 6.056 C 13.497 5.210,14.140 4.545,14.206 4.450 C 14.746 3.675,14.819 2.708,14.400 1.875 C 14.092 1.264,13.444 0.685,12.825 0.470 C 12.533 0.369,12.010 0.305,11.763 0.340 M12.400 1.387 C 12.677 1.461,12.846 1.569,13.139 1.862 C 13.366 2.088,13.431 2.171,13.505 2.325 C 13.621 2.568,13.661 2.738,13.661 3.000 C 13.661 3.261,13.622 3.431,13.506 3.675 C 13.420 3.855,13.359 3.920,11.959 5.325 L 10.501 6.788 9.357 5.644 L 8.213 4.500 9.663 3.053 C 11.165 1.555,11.215 1.510,11.514 1.413 C 11.801 1.320,12.113 1.311,12.400 1.387 M8.650 6.363 L 9.287 7.000 5.787 10.500 L 2.288 14.000 1.644 14.000 L 1.000 14.000 1.000 13.356 L 1.000 12.713 4.494 9.219 C 6.415 7.297,7.993 5.725,8.000 5.725 C 8.007 5.725,8.300 6.012,8.650 6.363 " fill="currentColor" stroke="none" fill-rule="evenodd"></path></svg>