<svg fill="none" viewBox="0 0 15 15" xmlns="http://www.w3.org/2000/svg"><path d="M7.211 0.187 C 7.113 0.204,6.984 0.241,6.923 0.268 C 6.792 0.326,0.909 3.684,0.681 3.830 C 0.367 4.032,0.144 4.345,0.049 4.715 C 0.001 4.904,0.000 5.007,0.000 9.285 C 0.001 14.092,-0.007 13.830,0.154 14.165 C 0.269 14.405,0.595 14.731,0.835 14.846 C 1.174 15.009,0.734 14.999,7.500 14.999 C 14.266 14.999,13.826 15.009,14.165 14.846 C 14.405 14.731,14.731 14.405,14.846 14.165 C 15.007 13.830,14.999 14.092,15.000 9.285 C 15.000 5.007,14.999 4.904,14.951 4.715 C 14.857 4.349,14.630 4.030,14.320 3.831 C 14.093 3.685,8.209 0.327,8.078 0.268 C 7.953 0.213,7.636 0.151,7.488 0.153 C 7.433 0.154,7.308 0.169,7.211 0.187 M7.688 1.197 C 7.822 1.258,13.747 4.645,13.821 4.702 C 13.879 4.748,13.878 4.748,10.690 6.343 L 7.500 7.937 4.310 6.343 C 1.122 4.748,1.121 4.748,1.179 4.702 C 1.253 4.645,7.178 1.258,7.313 1.197 C 7.367 1.172,7.452 1.151,7.500 1.151 C 7.548 1.151,7.633 1.172,7.688 1.197 M4.262 7.444 L 7.500 9.062 10.738 7.444 C 12.518 6.553,13.981 5.825,13.988 5.825 C 13.995 5.825,13.998 7.588,13.994 9.744 L 13.988 13.663 13.915 13.769 C 13.876 13.827,13.803 13.900,13.753 13.931 L 13.663 13.988 7.500 13.988 L 1.338 13.988 1.247 13.931 C 1.197 13.900,1.124 13.827,1.085 13.769 L 1.012 13.663 1.006 9.744 C 1.002 7.588,1.005 5.825,1.012 5.825 C 1.019 5.825,2.482 6.553,4.262 7.444 " stroke="none" fill-rule="evenodd" fill="black"></path></svg>