<svg fill="none" viewBox="0 0 15 15" xmlns="http://www.w3.org/2000/svg"><path d="M2.145 0.027 C 1.788 0.079,1.391 0.236,1.082 0.445 C 0.603 0.771,0.254 1.263,0.082 1.855 L 0.015 2.087 0.006 3.544 L -0.003 5.000 0.499 5.000 L 1.000 5.000 1.000 3.681 C 1.001 2.208,1.006 2.152,1.166 1.825 C 1.293 1.567,1.567 1.293,1.825 1.166 C 2.152 1.006,2.208 1.001,3.681 1.000 L 5.000 1.000 5.000 0.500 L 5.000 0.000 3.644 0.003 C 2.898 0.005,2.224 0.015,2.145 0.027 M10.000 0.499 L 10.000 1.000 11.319 1.000 C 12.792 1.001,12.848 1.006,13.175 1.166 C 13.433 1.293,13.707 1.567,13.834 1.825 C 13.994 2.152,13.999 2.208,14.000 3.681 L 14.000 5.000 14.501 5.000 L 15.002 5.000 14.994 3.556 L 14.986 2.113 14.920 1.872 C 14.716 1.125,14.249 0.571,13.539 0.235 C 13.077 0.016,13.084 0.017,11.444 0.006 L 10.000 -0.003 10.000 0.499 M4.000 5.500 L 4.000 6.000 4.500 6.000 L 5.000 6.000 5.000 5.500 L 5.000 5.000 4.500 5.000 L 4.000 5.000 4.000 5.500 M10.000 5.500 L 10.000 6.000 10.500 6.000 L 11.000 6.000 11.000 5.500 L 11.000 5.000 10.500 5.000 L 10.000 5.000 10.000 5.500 M4.492 9.006 L 4.098 9.302 4.255 9.492 C 4.842 10.203,5.707 10.713,6.674 10.918 C 6.955 10.978,7.040 10.985,7.500 10.985 C 7.960 10.985,8.045 10.978,8.326 10.918 C 8.933 10.789,9.494 10.546,9.973 10.205 C 10.214 10.034,10.607 9.665,10.796 9.433 L 10.902 9.303 10.509 9.007 L 10.115 8.710 9.814 9.014 C 9.311 9.519,8.817 9.790,8.119 9.942 C 7.831 10.004,7.169 10.004,6.881 9.942 C 6.183 9.790,5.689 9.519,5.186 9.014 L 4.885 8.710 4.492 9.006 M0.006 11.456 L 0.015 12.913 0.083 13.149 C 0.355 14.088,1.073 14.756,2.016 14.948 C 2.255 14.997,2.354 15.000,3.635 15.000 L 5.000 15.000 5.000 14.500 L 5.000 14.000 3.666 14.000 C 2.420 14.000,2.320 13.997,2.140 13.951 C 1.859 13.879,1.666 13.767,1.448 13.551 C 1.308 13.413,1.234 13.313,1.166 13.175 C 1.006 12.848,1.001 12.792,1.000 11.319 L 1.000 10.000 0.499 10.000 L -0.003 10.000 0.006 11.456 M14.000 11.319 C 13.999 12.792,13.994 12.848,13.834 13.175 C 13.766 13.313,13.692 13.413,13.552 13.551 C 13.334 13.767,13.141 13.879,12.860 13.951 C 12.680 13.997,12.580 14.000,11.334 14.000 L 10.000 14.000 10.000 14.501 L 10.000 15.002 11.444 14.994 L 12.888 14.986 13.132 14.919 C 14.069 14.663,14.755 13.932,14.948 12.984 C 14.997 12.745,15.000 12.646,15.000 11.365 L 15.000 10.000 14.500 10.000 L 14.000 10.000 14.000 11.319 " fill="currentColor" stroke="none" fill-rule="evenodd"></path></svg>