<svg fill="none" viewBox="0 0 15 15" xmlns="http://www.w3.org/2000/svg"><path d="M0.342 0.025 C 0.229 0.059,0.109 0.166,0.053 0.282 L 0.000 0.391 0.000 7.695 L 0.000 15.000 0.500 15.000 L 1.000 15.000 1.000 12.500 L 1.000 10.000 7.809 10.000 L 14.617 10.000 14.727 9.942 C 14.881 9.861,14.980 9.712,14.994 9.542 C 15.005 9.409,14.988 9.367,14.026 7.203 L 13.047 5.000 14.026 2.797 C 14.988 0.633,15.005 0.591,14.994 0.458 C 14.980 0.288,14.881 0.139,14.727 0.058 L 14.617 0.000 7.515 0.002 C 3.609 0.003,0.381 0.014,0.342 0.025 M13.717 1.031 C 13.710 1.048,13.320 1.928,12.849 2.985 C 12.011 4.869,11.994 4.910,12.008 5.035 C 12.018 5.129,12.243 5.657,12.863 7.050 C 13.326 8.088,13.710 8.952,13.718 8.969 C 13.728 8.994,12.447 9.000,7.365 9.000 L 1.000 9.000 1.000 5.000 L 1.000 1.000 7.365 1.000 C 12.448 1.000,13.728 1.006,13.717 1.031 " fill="currentColor" stroke="none" fill-rule="evenodd"></path></svg>