<svg fill="none" viewBox="0 0 15 15" xmlns="http://www.w3.org/2000/svg"><path d="M3.000 1.500 L 3.000 3.000 1.500 3.000 L 0.000 3.000 0.000 3.500 L 0.000 4.000 1.500 4.000 L 3.000 4.000 3.000 7.500 L 3.000 11.000 1.500 11.000 L 0.000 11.000 0.000 11.500 L 0.000 12.000 1.500 12.000 L 3.000 12.000 3.000 13.500 L 3.000 15.000 3.500 15.000 L 4.000 15.000 4.000 13.500 L 4.000 12.000 7.500 12.000 L 11.000 12.000 11.000 13.500 L 11.000 15.000 11.500 15.000 L 12.000 15.000 12.000 13.500 L 12.000 12.000 13.500 12.000 L 15.000 12.000 15.000 11.500 L 15.000 11.000 13.500 11.000 L 12.000 11.000 12.000 7.500 L 12.000 4.000 13.500 4.000 L 15.000 4.000 15.000 3.500 L 15.000 3.000 13.500 3.000 L 12.000 3.000 12.000 1.500 L 12.000 0.000 11.500 0.000 L 11.000 0.000 11.000 1.500 L 11.000 3.000 7.500 3.000 L 4.000 3.000 4.000 1.500 L 4.000 0.000 3.500 0.000 L 3.000 0.000 3.000 1.500 M11.000 7.500 L 11.000 11.000 7.500 11.000 L 4.000 11.000 4.000 7.500 L 4.000 4.000 7.500 4.000 L 11.000 4.000 11.000 7.500 " stroke="none" fill-rule="evenodd" fill="black"></path></svg>