<svg fill="none" viewBox="0 0 15 15" xmlns="http://www.w3.org/2000/svg"><path d="M4.745 2.027 C 4.302 2.093,4.011 2.226,3.348 2.668 L 2.858 2.994 2.648 3.012 C 2.071 3.062,1.579 3.285,1.152 3.688 C 0.747 4.071,0.511 4.494,0.410 5.020 C 0.374 5.212,0.050 9.617,0.050 9.916 C 0.051 10.373,0.280 10.826,0.649 11.102 C 0.787 11.205,2.925 12.288,3.225 12.407 C 3.839 12.650,5.118 12.892,6.298 12.988 C 6.906 13.038,8.094 13.038,8.702 12.988 C 9.882 12.892,11.161 12.650,11.775 12.407 C 12.103 12.277,14.217 11.203,14.369 11.088 C 14.726 10.819,14.949 10.371,14.950 9.916 C 14.950 9.617,14.626 5.212,14.590 5.020 C 14.489 4.492,14.263 4.085,13.857 3.697 C 13.425 3.286,12.932 3.062,12.350 3.011 L 12.140 2.993 11.651 2.667 C 11.110 2.307,10.816 2.155,10.499 2.071 L 10.288 2.014 7.588 2.010 C 6.103 2.007,4.824 2.015,4.745 2.027 M10.177 3.036 C 10.443 3.083,10.582 3.156,11.250 3.601 L 11.840 3.993 12.139 4.006 C 12.510 4.023,12.706 4.082,12.961 4.252 C 13.269 4.458,13.497 4.771,13.585 5.106 C 13.607 5.190,13.687 6.173,13.789 7.598 C 13.972 10.154,13.970 10.063,13.832 10.227 C 13.783 10.285,13.455 10.461,12.552 10.911 C 11.452 11.459,11.309 11.523,11.037 11.595 C 9.293 12.054,7.196 12.156,5.325 11.872 C 4.886 11.805,4.339 11.694,3.963 11.595 C 3.691 11.523,3.548 11.459,2.448 10.911 C 1.545 10.461,1.217 10.285,1.168 10.227 C 1.030 10.063,1.028 10.154,1.211 7.604 C 1.317 6.109,1.392 5.203,1.416 5.111 C 1.537 4.646,1.911 4.246,2.376 4.084 C 2.523 4.032,2.626 4.015,2.861 4.005 L 3.160 3.993 3.750 3.601 C 4.410 3.161,4.559 3.082,4.812 3.036 C 5.075 2.989,9.909 2.988,10.177 3.036 M3.000 5.500 L 3.000 6.000 2.500 6.000 L 2.000 6.000 2.000 6.500 L 2.000 7.000 2.500 7.000 L 3.000 7.000 3.000 7.500 L 3.000 8.000 3.500 8.000 L 4.000 8.000 4.000 7.500 L 4.000 7.000 4.500 7.000 L 5.000 7.000 5.000 6.500 L 5.000 6.000 4.500 6.000 L 4.000 6.000 4.000 5.500 L 4.000 5.000 3.500 5.000 L 3.000 5.000 3.000 5.500 M12.000 6.500 L 12.000 7.000 12.500 7.000 L 13.000 7.000 13.000 6.500 L 13.000 6.000 12.500 6.000 L 12.000 6.000 12.000 6.500 M11.000 8.500 L 11.000 9.000 11.500 9.000 L 12.000 9.000 12.000 8.500 L 12.000 8.000 11.500 8.000 L 11.000 8.000 11.000 8.500 " stroke="none" fill-rule="evenodd" fill="black"></path></svg>