<svg fill="none" viewBox="0 0 15 15" xmlns="http://www.w3.org/2000/svg"><path d="M2.099 0.038 C 1.082 0.197,0.261 0.990,0.052 2.017 C -0.188 3.191,0.468 4.387,1.588 4.821 C 1.698 4.863,1.835 4.910,1.894 4.925 L 2.000 4.952 2.000 7.345 C 2.001 9.884,2.005 9.996,2.123 10.413 C 2.296 11.029,2.607 11.556,3.054 11.990 C 3.510 12.433,3.985 12.708,4.588 12.877 C 4.954 12.980,5.210 12.999,6.275 13.000 L 7.287 13.000 6.718 13.569 L 6.150 14.138 6.506 14.494 L 6.863 14.850 8.038 13.675 L 9.212 12.500 8.031 11.319 L 6.850 10.138 6.494 10.494 L 6.138 10.850 6.712 11.425 L 7.287 12.000 6.279 12.000 C 5.358 12.000,5.248 11.996,5.017 11.948 C 4.128 11.767,3.424 11.145,3.127 10.278 C 3.005 9.921,3.000 9.804,3.000 7.295 L 3.000 4.952 3.106 4.925 C 3.878 4.729,4.517 4.170,4.815 3.430 C 5.056 2.831,5.056 2.168,4.816 1.573 C 4.483 0.748,3.751 0.168,2.878 0.037 C 2.590 -0.007,2.385 -0.006,2.099 0.038 M7.143 1.144 L 6.149 2.138 6.325 2.312 L 6.500 2.486 6.319 2.668 L 6.138 2.851 7.138 3.850 L 8.137 4.850 8.494 4.494 L 8.850 4.138 8.282 3.569 L 7.713 3.000 8.675 3.000 C 9.941 3.000,10.141 3.030,10.650 3.290 C 11.212 3.578,11.664 4.107,11.873 4.722 C 11.995 5.080,12.000 5.198,12.000 7.705 L 12.000 10.048 11.894 10.076 C 11.263 10.240,10.674 10.677,10.356 11.220 C 9.575 12.552,10.145 14.241,11.570 14.815 C 12.850 15.331,14.296 14.713,14.816 13.427 C 14.928 13.150,15.000 12.786,15.000 12.500 C 15.000 12.080,14.860 11.578,14.638 11.208 C 14.319 10.672,13.731 10.238,13.106 10.076 L 13.000 10.048 13.000 7.655 C 12.999 5.116,12.995 5.004,12.877 4.588 C 12.575 3.513,11.813 2.661,10.787 2.252 C 10.247 2.037,9.938 2.000,8.654 2.000 L 7.713 2.000 8.287 1.425 L 8.862 0.850 8.513 0.500 C 8.320 0.308,8.157 0.150,8.150 0.150 C 8.143 0.150,7.690 0.597,7.143 1.144 M2.811 1.036 C 3.236 1.118,3.649 1.443,3.845 1.850 C 4.048 2.271,4.048 2.728,3.845 3.150 C 3.713 3.427,3.426 3.720,3.165 3.846 C 2.744 4.049,2.256 4.049,1.835 3.846 C 1.573 3.719,1.287 3.427,1.152 3.147 C 0.871 2.562,0.984 1.911,1.448 1.448 C 1.824 1.071,2.278 0.934,2.811 1.036 M12.773 11.027 C 13.210 11.100,13.645 11.434,13.845 11.850 C 14.048 12.271,14.048 12.728,13.845 13.150 C 13.763 13.322,13.705 13.401,13.541 13.563 C 13.237 13.862,12.909 13.999,12.500 13.999 C 12.091 13.999,11.763 13.862,11.459 13.563 C 11.202 13.309,11.069 13.054,11.022 12.720 C 10.951 12.226,11.093 11.801,11.448 11.449 C 11.818 11.081,12.257 10.941,12.773 11.027 " stroke="none" fill-rule="evenodd" fill="black"></path></svg>