<svg fill="none" viewBox="0 0 15 15" xmlns="http://www.w3.org/2000/svg"><path d="M11.512 0.955 C 11.349 1.138,11.200 1.307,11.180 1.331 C 11.146 1.370,11.166 1.397,11.396 1.631 C 11.811 2.052,12.083 2.423,12.351 2.933 C 12.807 3.803,13.000 4.662,12.968 5.685 C 12.941 6.520,12.780 7.168,12.414 7.913 C 11.698 9.366,10.398 10.419,8.829 10.816 C 8.035 11.016,7.161 11.036,6.375 10.871 C 5.512 10.690,4.740 10.328,4.058 9.784 L 3.828 9.601 3.508 9.963 C 3.332 10.162,3.185 10.334,3.182 10.344 C 3.174 10.373,3.659 10.751,3.938 10.933 C 4.902 11.562,6.101 11.942,7.250 11.983 L 7.438 11.990 7.219 11.995 L 7.000 12.000 7.000 13.000 L 7.000 14.000 5.500 14.000 L 4.000 14.000 4.000 14.500 L 4.000 15.000 7.500 15.000 L 11.000 15.000 11.000 14.500 L 11.000 14.000 9.500 14.000 L 8.000 14.000 8.000 13.000 L 8.000 12.000 7.794 11.996 C 7.592 11.993,7.594 11.992,7.875 11.974 C 10.118 11.832,12.110 10.564,13.197 8.588 C 13.569 7.911,13.834 7.083,13.936 6.279 C 13.981 5.922,13.988 5.166,13.949 4.805 C 13.786 3.297,13.117 1.915,12.031 0.842 L 11.808 0.622 11.512 0.955 M7.100 2.029 C 6.011 2.142,5.017 2.804,4.450 3.792 C 3.674 5.146,3.925 6.894,5.054 7.990 C 5.617 8.537,6.253 8.853,7.013 8.963 C 8.262 9.144,9.534 8.612,10.305 7.588 C 11.127 6.495,11.224 4.968,10.547 3.787 C 9.838 2.550,8.524 1.880,7.100 2.029 M7.878 3.037 C 8.796 3.175,9.569 3.828,9.873 4.722 C 9.936 4.906,10.000 5.300,10.000 5.500 C 10.000 5.701,9.935 6.094,9.873 6.278 C 9.576 7.145,8.872 7.767,7.983 7.948 C 6.602 8.230,5.248 7.278,5.037 5.878 C 4.991 5.576,4.991 5.424,5.037 5.122 C 5.196 4.061,6.047 3.202,7.099 3.038 C 7.385 2.994,7.590 2.993,7.878 3.037 " stroke="none" fill-rule="evenodd" fill="black"></path></svg>