<svg fill="none" viewBox="0 0 15 15" xmlns="http://www.w3.org/2000/svg"><path d="M7.145 0.025 C 6.777 0.084,6.388 0.237,6.082 0.445 C 5.597 0.775,5.246 1.273,5.081 1.868 C 5.021 2.085,5.014 2.155,5.014 2.500 C 5.014 2.846,5.021 2.914,5.082 3.136 C 5.297 3.910,5.848 4.533,6.575 4.822 C 7.709 5.273,9.039 4.819,9.652 3.771 C 10.314 2.640,9.991 1.174,8.918 0.445 C 8.698 0.296,8.339 0.134,8.099 0.075 C 7.857 0.016,7.365 -0.010,7.145 0.025 M7.813 1.038 C 8.375 1.156,8.844 1.625,8.962 2.188 C 9.069 2.697,8.923 3.183,8.552 3.551 C 8.334 3.767,8.141 3.879,7.860 3.951 C 7.507 4.041,7.124 3.994,6.792 3.820 C 6.564 3.701,6.281 3.409,6.166 3.175 C 5.872 2.575,5.980 1.916,6.448 1.448 C 6.819 1.076,7.303 0.931,7.813 1.038 M7.071 6.027 C 6.636 6.081,6.162 6.238,5.787 6.453 C 5.465 6.638,5.240 6.814,4.970 7.096 C 4.597 7.484,4.353 7.887,4.188 8.383 C 4.016 8.901,4.018 8.881,4.007 10.313 L 3.997 11.613 4.057 11.725 C 4.090 11.787,4.164 11.871,4.223 11.913 L 4.329 11.988 7.498 11.988 L 10.666 11.988 10.767 11.920 C 10.823 11.884,10.896 11.810,10.928 11.758 L 10.988 11.663 10.988 10.363 C 10.988 8.917,10.987 8.907,10.810 8.376 C 10.632 7.841,10.341 7.389,9.908 6.974 C 9.411 6.498,8.819 6.192,8.150 6.063 C 7.890 6.014,7.330 5.995,7.071 6.027 M8.099 7.075 C 8.513 7.176,8.956 7.427,9.264 7.736 C 9.570 8.041,9.818 8.477,9.928 8.901 C 9.979 9.096,9.984 9.186,9.993 10.056 L 10.004 11.000 7.500 11.000 L 4.996 11.000 5.007 10.056 C 5.016 9.186,5.021 9.096,5.072 8.901 C 5.136 8.654,5.299 8.298,5.451 8.072 C 5.815 7.533,6.460 7.134,7.145 7.025 C 7.365 6.990,7.857 7.016,8.099 7.075 M1.913 9.133 C 1.333 9.433,1.012 9.663,0.649 10.041 C 0.386 10.313,0.208 10.598,0.098 10.919 C 0.019 11.148,0.014 11.183,0.014 11.500 C 0.014 11.817,0.019 11.852,0.098 12.081 C 0.210 12.409,0.382 12.679,0.668 12.977 C 1.030 13.354,1.401 13.616,1.984 13.907 C 4.913 15.365,10.109 15.362,13.023 13.901 C 13.615 13.604,13.989 13.338,14.355 12.954 C 14.622 12.673,14.793 12.401,14.902 12.081 C 14.981 11.852,14.986 11.817,14.986 11.500 C 14.986 11.183,14.981 11.148,14.902 10.919 C 14.856 10.785,14.763 10.585,14.696 10.475 C 14.471 10.111,14.006 9.672,13.534 9.379 C 13.249 9.202,12.722 8.943,12.698 8.967 C 12.687 8.978,12.593 9.184,12.488 9.425 C 12.355 9.732,12.308 9.865,12.330 9.872 C 12.437 9.906,12.952 10.191,13.140 10.320 C 13.548 10.599,13.792 10.861,13.928 11.164 C 14.011 11.348,14.008 11.663,13.921 11.850 C 13.581 12.583,12.448 13.230,10.806 13.628 C 8.761 14.124,6.238 14.124,4.192 13.628 C 2.937 13.323,1.974 12.872,1.438 12.338 C 0.733 11.635,0.887 10.974,1.917 10.277 C 2.055 10.184,2.584 9.899,2.670 9.872 C 2.693 9.865,2.644 9.729,2.507 9.414 C 2.400 9.168,2.301 8.963,2.287 8.959 C 2.274 8.955,2.105 9.033,1.913 9.133 " fill="currentColor" stroke="none" fill-rule="evenodd"></path></svg>