<svg fill="none" viewBox="0 0 15 15" xmlns="http://www.w3.org/2000/svg"><path d="M5.976 1.594 C 5.961 1.687,5.827 2.488,5.679 3.375 L 5.411 4.988 3.705 4.994 L 2.000 5.000 2.000 5.500 L 2.000 6.000 3.621 6.000 L 5.242 6.000 4.992 7.500 L 4.742 9.000 3.371 9.000 L 2.000 9.000 2.000 9.500 L 2.000 10.000 3.289 10.000 L 4.579 10.000 4.565 10.069 C 4.557 10.107,4.432 10.852,4.288 11.725 C 4.143 12.598,4.020 13.336,4.013 13.365 C 4.002 13.415,4.025 13.421,4.490 13.498 C 4.759 13.543,4.983 13.575,4.988 13.570 C 4.994 13.564,5.131 12.762,5.294 11.786 L 5.589 10.013 7.084 10.006 L 8.579 10.000 8.565 10.069 C 8.557 10.106,8.432 10.852,8.288 11.725 C 8.143 12.598,8.020 13.336,8.013 13.365 C 8.002 13.415,8.025 13.421,8.490 13.498 C 8.759 13.543,8.983 13.575,8.988 13.570 C 8.994 13.564,9.131 12.762,9.294 11.786 L 9.589 10.013 11.295 10.006 L 13.000 10.000 13.000 9.500 L 13.000 9.000 11.379 9.000 L 9.758 9.000 10.008 7.500 L 10.258 6.000 11.629 6.000 L 13.000 6.000 13.000 5.500 L 13.000 5.000 11.711 5.000 L 10.421 5.000 10.435 4.931 C 10.443 4.893,10.568 4.148,10.712 3.275 C 10.857 2.402,10.980 1.664,10.987 1.635 C 10.998 1.585,10.975 1.579,10.510 1.502 C 10.241 1.457,10.017 1.425,10.012 1.430 C 10.006 1.436,9.869 2.238,9.706 3.214 L 9.411 4.988 7.916 4.994 L 6.421 5.000 6.435 4.931 C 6.443 4.894,6.568 4.148,6.712 3.275 C 6.857 2.402,6.980 1.664,6.987 1.635 C 6.998 1.585,6.975 1.579,6.518 1.503 C 6.254 1.460,6.030 1.424,6.021 1.425 C 6.012 1.425,5.992 1.501,5.976 1.594 M8.992 7.500 L 8.742 9.000 7.250 9.000 L 5.758 9.000 6.008 7.500 L 6.258 6.000 7.750 6.000 L 9.242 6.000 8.992 7.500 " stroke="none" fill-rule="evenodd" fill="black"></path></svg>