<svg fill="none" viewBox="0 0 15 15" xmlns="http://www.w3.org/2000/svg"><path d="M4.200 0.016 C 2.267 0.154,0.668 1.471,0.151 3.350 C 0.008 3.870,0.013 3.736,0.013 7.500 C 0.013 10.676,0.016 10.983,0.056 11.213 C 0.392 13.149,1.851 14.608,3.788 14.944 C 4.017 14.984,4.324 14.988,7.500 14.988 C 10.676 14.988,10.983 14.984,11.213 14.944 C 13.149 14.608,14.608 13.149,14.944 11.213 C 14.984 10.983,14.988 10.676,14.988 7.500 C 14.988 3.736,14.992 3.870,14.849 3.350 C 14.413 1.766,13.180 0.541,11.625 0.149 C 11.070 0.009,11.259 0.016,7.650 0.012 C 5.814 0.009,4.262 0.011,4.200 0.016 M10.854 1.026 C 12.507 1.193,13.807 2.493,13.974 4.146 C 14.009 4.499,14.009 10.501,13.974 10.854 C 13.813 12.454,12.585 13.731,10.988 13.963 C 10.616 14.017,4.384 14.017,4.013 13.963 C 3.237 13.851,2.549 13.501,2.010 12.946 C 1.430 12.349,1.108 11.663,1.026 10.854 C 0.991 10.501,0.991 4.499,1.026 4.146 C 1.060 3.808,1.127 3.530,1.250 3.217 C 1.715 2.027,2.845 1.160,4.100 1.029 C 4.411 0.996,10.534 0.994,10.854 1.026 M11.000 3.500 L 11.000 4.000 11.500 4.000 L 12.000 4.000 12.000 3.500 L 12.000 3.000 11.500 3.000 L 11.000 3.000 11.000 3.500 M7.100 4.029 C 6.011 4.142,5.017 4.804,4.450 5.792 C 3.674 7.146,3.925 8.894,5.054 9.990 C 5.617 10.537,6.253 10.853,7.013 10.963 C 8.262 11.144,9.534 10.612,10.305 9.588 C 11.127 8.495,11.224 6.968,10.547 5.787 C 9.838 4.550,8.524 3.880,7.100 4.029 M7.878 5.037 C 8.796 5.175,9.569 5.828,9.873 6.722 C 9.936 6.906,10.000 7.300,10.000 7.500 C 10.000 7.701,9.935 8.094,9.873 8.278 C 9.576 9.145,8.872 9.767,7.983 9.948 C 6.602 10.230,5.248 9.278,5.037 7.878 C 4.991 7.576,4.991 7.424,5.037 7.122 C 5.196 6.061,6.047 5.202,7.099 5.038 C 7.385 4.994,7.590 4.993,7.878 5.037 " stroke="none" fill-rule="evenodd" fill="black"></path></svg>