<svg fill="none" viewBox="0 0 15 15" xmlns="http://www.w3.org/2000/svg"><path d="M5.169 0.038 C 4.780 0.116,4.332 0.468,4.154 0.835 C 4.006 1.142,4.001 1.199,4.000 2.669 L 4.000 4.000 2.690 4.000 C 1.212 4.000,1.125 4.008,0.818 4.166 C 0.571 4.294,0.268 4.599,0.154 4.835 C -0.007 5.169,0.001 4.928,0.001 9.500 C 0.001 14.071,-0.007 13.831,0.154 14.165 C 0.269 14.405,0.595 14.731,0.835 14.846 C 1.169 15.007,0.929 14.999,5.500 14.999 C 10.071 14.999,9.831 15.007,10.165 14.846 C 10.405 14.731,10.731 14.405,10.846 14.165 C 10.994 13.857,10.999 13.801,11.000 12.331 L 11.000 11.000 12.331 11.000 C 13.801 10.999,13.857 10.994,14.165 10.846 C 14.405 10.731,14.731 10.405,14.846 10.165 C 15.007 9.831,14.999 10.071,14.999 5.500 C 14.999 0.928,15.007 1.169,14.846 0.835 C 14.719 0.573,14.426 0.287,14.150 0.156 C 14.033 0.100,13.864 0.042,13.773 0.027 C 13.511 -0.016,5.392 -0.006,5.169 0.038 M13.759 1.079 C 13.811 1.115,13.885 1.189,13.921 1.241 L 13.988 1.338 13.988 5.500 L 13.988 9.663 13.915 9.769 C 13.876 9.827,13.803 9.900,13.753 9.931 L 13.663 9.988 9.500 9.988 L 5.338 9.988 5.247 9.931 C 5.197 9.900,5.124 9.827,5.085 9.769 L 5.013 9.663 5.013 5.500 L 5.013 1.338 5.079 1.241 C 5.148 1.142,5.277 1.040,5.363 1.018 C 5.390 1.011,7.269 1.007,9.537 1.009 L 13.663 1.012 13.759 1.079 M4.000 7.331 C 4.001 9.894,3.998 9.841,4.154 10.165 C 4.269 10.405,4.595 10.731,4.835 10.846 C 5.159 11.002,5.106 10.999,7.670 11.000 L 10.002 11.000 9.995 12.331 L 9.988 13.663 9.915 13.769 C 9.876 13.827,9.803 13.900,9.753 13.931 L 9.663 13.988 5.500 13.988 L 1.338 13.988 1.247 13.931 C 1.197 13.900,1.124 13.827,1.085 13.769 L 1.012 13.663 1.012 9.500 L 1.012 5.338 1.079 5.241 C 1.148 5.142,1.277 5.040,1.363 5.018 C 1.390 5.011,1.995 5.004,2.706 5.003 L 4.000 5.000 4.000 7.331 " stroke="none" fill-rule="evenodd" fill="black"></path></svg>