<svg fill="none" viewBox="0 0 15 15" xmlns="http://www.w3.org/2000/svg"><path d="M5.200 0.028 C 5.124 0.040,4.967 0.097,4.850 0.154 C 4.573 0.289,4.279 0.576,4.154 0.835 C 4.001 1.153,4.001 1.149,4.000 3.205 L 4.000 5.072 3.819 5.166 C 3.571 5.294,3.268 5.598,3.154 5.835 C 2.997 6.161,3.001 6.073,3.001 9.000 C 3.001 11.926,2.997 11.838,3.154 12.165 C 3.215 12.292,3.293 12.393,3.450 12.550 C 3.797 12.898,4.071 12.999,4.669 13.000 L 5.000 13.000 5.000 14.000 L 5.000 15.000 5.500 15.000 L 6.000 15.000 6.000 14.000 L 6.000 13.000 7.500 13.000 L 9.000 13.000 9.000 14.000 L 9.000 15.000 9.500 15.000 L 10.000 15.000 10.000 14.000 L 10.000 13.000 10.331 13.000 C 10.929 12.999,11.203 12.898,11.550 12.550 C 11.707 12.393,11.785 12.292,11.846 12.165 C 12.003 11.838,11.999 11.926,11.999 9.000 C 11.999 6.073,12.003 6.161,11.846 5.835 C 11.727 5.589,11.425 5.287,11.183 5.173 L 11.003 5.088 11.001 3.213 C 10.999 1.149,10.999 1.152,10.846 0.835 C 10.719 0.573,10.426 0.287,10.150 0.156 C 10.033 0.100,9.864 0.042,9.773 0.027 C 9.572 -0.006,5.409 -0.006,5.200 0.028 M9.759 1.079 C 9.811 1.115,9.885 1.189,9.921 1.241 L 9.988 1.338 9.994 3.169 L 10.001 5.000 7.500 5.000 L 4.999 5.000 5.006 3.169 L 5.013 1.338 5.079 1.241 C 5.148 1.142,5.277 1.040,5.363 1.018 C 5.390 1.011,6.369 1.007,7.538 1.009 L 9.663 1.012 9.759 1.079 M6.000 2.500 L 6.000 3.000 7.500 3.000 L 9.000 3.000 9.000 2.500 L 9.000 2.000 7.500 2.000 L 6.000 2.000 6.000 2.500 M10.759 6.079 C 10.811 6.115,10.885 6.189,10.921 6.241 L 10.988 6.338 10.988 9.000 L 10.988 11.663 10.915 11.769 C 10.876 11.827,10.803 11.900,10.753 11.931 L 10.663 11.988 7.500 11.988 L 4.338 11.988 4.247 11.931 C 4.197 11.900,4.124 11.827,4.085 11.769 L 4.013 11.663 4.013 9.000 L 4.013 6.338 4.079 6.241 C 4.148 6.142,4.277 6.040,4.363 6.018 C 4.390 6.011,5.819 6.007,7.538 6.009 L 10.663 6.013 10.759 6.079 " stroke="none" fill-rule="evenodd" fill="black"></path></svg>