<svg fill="none" viewBox="0 0 15 15" xmlns="http://www.w3.org/2000/svg"><path d="M7.000 0.509 L 7.000 1.019 6.819 1.036 C 5.429 1.171,4.039 1.818,3.009 2.808 C 2.244 3.543,1.709 4.375,1.353 5.382 C 1.206 5.800,1.025 6.648,1.025 6.922 L 1.025 7.000 0.513 7.000 L 0.000 7.000 0.000 7.500 L 0.000 8.000 0.509 8.000 L 1.018 8.000 1.035 8.169 C 1.152 9.368,1.676 10.633,2.453 11.593 C 2.674 11.866,3.169 12.356,3.450 12.580 C 4.175 13.157,5.057 13.591,5.950 13.810 C 6.304 13.897,6.765 13.975,6.922 13.975 L 7.000 13.975 7.000 14.488 L 7.000 15.000 7.500 15.000 L 8.000 15.000 8.000 14.491 L 8.000 13.982 8.169 13.965 C 9.368 13.848,10.633 13.324,11.593 12.547 C 11.843 12.345,12.345 11.843,12.547 11.593 C 12.974 11.065,13.398 10.309,13.623 9.674 C 13.790 9.205,13.920 8.635,13.965 8.169 L 13.982 8.000 14.491 8.000 L 15.000 8.000 15.000 7.500 L 15.000 7.000 14.491 7.000 L 13.982 7.000 13.965 6.810 C 13.885 5.927,13.519 4.867,13.019 4.065 C 12.667 3.500,12.018 2.775,11.525 2.395 C 10.851 1.876,10.080 1.480,9.315 1.260 C 8.993 1.167,8.472 1.064,8.181 1.036 L 8.000 1.019 8.000 0.509 L 8.000 0.000 7.500 0.000 L 7.000 0.000 7.000 0.509 M7.000 4.513 L 7.000 7.000 4.513 7.000 C 2.691 7.000,2.025 6.992,2.025 6.972 C 2.025 6.880,2.112 6.376,2.163 6.173 C 2.617 4.369,3.965 2.896,5.700 2.305 C 6.114 2.164,6.675 2.039,6.944 2.027 L 7.000 2.025 7.000 4.513 M8.322 2.064 C 9.655 2.260,10.923 2.986,11.776 4.042 C 12.408 4.825,12.849 5.871,12.962 6.856 L 12.979 7.000 10.489 7.000 L 8.000 7.000 8.000 4.513 C 8.000 2.691,8.008 2.025,8.028 2.025 C 8.043 2.025,8.176 2.043,8.322 2.064 M7.000 10.490 L 7.000 12.981 6.856 12.964 C 5.097 12.758,3.523 11.685,2.657 10.100 C 2.352 9.542,2.114 8.789,2.038 8.144 L 2.021 8.000 4.511 8.000 L 7.000 8.000 7.000 10.490 M12.962 8.144 C 12.953 8.223,12.919 8.425,12.885 8.593 C 12.539 10.346,11.292 11.869,9.635 12.564 C 9.172 12.758,8.597 12.913,8.156 12.962 L 8.000 12.980 8.000 10.490 L 8.000 8.000 10.489 8.000 L 12.979 8.000 12.962 8.144 " stroke="none" fill-rule="evenodd" fill="black"></path></svg>