<svg fill="none" viewBox="0 0 15 15" xmlns="http://www.w3.org/2000/svg"><path d="M7.100 0.029 C 5.704 0.174,4.513 1.198,4.123 2.588 C 4.014 2.975,4.001 3.188,4.000 4.631 L 4.000 6.000 3.190 6.000 C 2.258 6.000,2.104 6.019,1.818 6.166 C 1.571 6.294,1.268 6.599,1.154 6.835 C 0.995 7.164,1.001 7.025,1.001 10.500 C 1.001 13.974,0.995 13.835,1.154 14.165 C 1.269 14.405,1.595 14.731,1.835 14.846 C 2.172 15.008,1.832 14.999,7.500 14.999 C 13.168 14.999,12.828 15.008,13.165 14.846 C 13.405 14.731,13.731 14.405,13.846 14.165 C 14.005 13.835,13.999 13.974,13.999 10.500 C 13.999 7.025,14.005 7.164,13.846 6.835 C 13.719 6.573,13.426 6.287,13.150 6.156 C 13.033 6.100,12.864 6.042,12.773 6.027 C 12.678 6.012,12.270 6.000,11.804 6.000 L 11.000 6.000 11.000 4.631 C 10.999 3.188,10.986 2.975,10.877 2.588 C 10.624 1.686,10.038 0.928,9.238 0.467 C 8.601 0.100,7.864 -0.051,7.100 0.029 M7.878 1.037 C 8.660 1.154,9.352 1.651,9.710 2.350 C 9.983 2.884,10.000 3.017,10.000 4.681 L 10.000 6.000 7.500 6.000 L 5.000 6.000 5.000 4.681 C 5.000 3.017,5.017 2.884,5.290 2.350 C 5.642 1.662,6.338 1.157,7.099 1.038 C 7.385 0.994,7.590 0.993,7.878 1.037 M12.759 7.079 C 12.811 7.115,12.885 7.189,12.921 7.241 L 12.988 7.338 12.988 10.500 L 12.988 13.663 12.915 13.769 C 12.876 13.827,12.803 13.900,12.753 13.931 L 12.663 13.988 7.500 13.988 L 2.337 13.988 2.247 13.931 C 2.197 13.900,2.124 13.827,2.085 13.769 L 2.013 13.663 2.013 10.500 L 2.013 7.338 2.079 7.241 C 2.148 7.142,2.277 7.040,2.363 7.018 C 2.390 7.011,4.719 7.007,7.538 7.009 L 12.663 7.013 12.759 7.079 " stroke="none" fill-rule="evenodd" fill="black"></path></svg>