<svg fill="none" viewBox="0 0 15 15" xmlns="http://www.w3.org/2000/svg"><path d="M1.175 2.039 C 0.902 2.098,0.663 2.233,0.449 2.448 C 0.233 2.666,0.121 2.859,0.049 3.140 C 0.001 3.328,0.000 3.432,0.000 7.500 C 0.000 11.568,0.001 11.672,0.049 11.860 C 0.122 12.143,0.233 12.334,0.449 12.551 C 0.666 12.767,0.857 12.878,1.140 12.951 C 1.330 12.999,1.440 13.000,7.500 13.000 C 13.560 13.000,13.670 12.999,13.860 12.951 C 14.143 12.878,14.334 12.767,14.551 12.551 C 14.767 12.334,14.878 12.143,14.951 11.860 C 14.999 11.672,15.000 11.568,15.000 7.500 C 15.000 3.432,14.999 3.328,14.951 3.140 C 14.879 2.859,14.767 2.666,14.551 2.448 C 14.334 2.229,14.096 2.097,13.813 2.038 C 13.556 1.984,1.425 1.985,1.175 2.039 M13.758 3.072 C 13.810 3.104,13.884 3.177,13.920 3.233 L 13.988 3.334 13.988 7.500 L 13.988 11.666 13.920 11.767 C 13.884 11.823,13.810 11.896,13.758 11.928 L 13.663 11.988 7.498 11.988 L 1.334 11.988 1.233 11.920 C 1.177 11.884,1.104 11.810,1.072 11.758 L 1.012 11.663 1.006 7.554 C 1.001 4.708,1.008 3.415,1.026 3.346 C 1.058 3.226,1.216 3.061,1.330 3.028 C 1.382 3.013,3.719 3.006,7.538 3.008 L 13.663 3.013 13.758 3.072 M2.330 5.027 C 2.218 5.061,2.059 5.226,2.027 5.342 C 2.009 5.406,2.000 6.190,2.000 7.719 L 2.000 10.000 2.500 10.000 L 3.000 10.000 3.000 8.356 L 3.000 6.713 3.750 7.463 L 4.500 8.212 5.250 7.463 L 6.000 6.713 6.000 8.356 L 6.000 10.000 6.501 10.000 L 7.001 10.000 6.994 7.669 L 6.988 5.338 6.928 5.242 C 6.896 5.190,6.823 5.116,6.767 5.080 C 6.683 5.024,6.639 5.013,6.502 5.013 C 6.384 5.013,6.316 5.027,6.263 5.061 C 6.221 5.087,5.808 5.486,5.344 5.948 L 4.500 6.787 3.669 5.960 C 3.212 5.505,2.801 5.107,2.756 5.077 C 2.662 5.013,2.455 4.989,2.330 5.027 M10.000 6.644 L 10.000 8.287 9.425 7.712 L 8.850 7.138 8.494 7.494 L 8.138 7.850 9.319 9.031 L 10.500 10.212 11.681 9.031 L 12.862 7.850 12.506 7.494 L 12.150 7.138 11.575 7.712 L 11.000 8.287 11.000 6.644 L 11.000 5.000 10.500 5.000 L 10.000 5.000 10.000 6.644 " fill="currentColor" stroke="none" fill-rule="evenodd"></path></svg>