<svg fill="none" viewBox="0 0 15 15" xmlns="http://www.w3.org/2000/svg"><path d="M4.169 0.038 C 3.780 0.116,3.332 0.468,3.154 0.835 C 2.997 1.159,3.001 1.092,3.000 3.813 L 3.000 6.288 2.000 7.287 L 1.000 8.287 1.000 10.975 C 1.001 13.928,0.997 13.838,1.154 14.165 C 1.269 14.405,1.595 14.731,1.835 14.846 C 2.172 15.008,1.832 14.999,7.500 14.999 C 13.168 14.999,12.828 15.008,13.165 14.846 C 13.405 14.731,13.731 14.405,13.846 14.165 C 14.009 13.826,13.999 14.266,13.999 7.500 C 13.999 0.733,14.009 1.173,13.846 0.835 C 13.719 0.573,13.426 0.287,13.150 0.156 C 13.033 0.100,12.864 0.042,12.773 0.027 C 12.511 -0.016,4.392 -0.006,4.169 0.038 M12.759 1.079 C 12.811 1.115,12.885 1.189,12.921 1.241 L 12.988 1.338 12.988 7.500 L 12.988 13.663 12.915 13.769 C 12.876 13.827,12.803 13.900,12.753 13.931 L 12.663 13.988 7.500 13.988 L 2.337 13.988 2.247 13.931 C 2.197 13.900,2.124 13.827,2.085 13.769 L 2.013 13.663 2.006 11.188 L 1.999 8.714 2.999 7.713 L 3.999 6.713 4.006 4.025 L 4.013 1.338 4.079 1.241 C 4.148 1.142,4.277 1.040,4.363 1.018 C 4.390 1.011,6.269 1.007,8.537 1.009 L 12.663 1.012 12.759 1.079 M6.000 4.500 L 6.000 6.000 6.500 6.000 L 7.000 6.000 7.000 4.500 L 7.000 3.000 6.500 3.000 L 6.000 3.000 6.000 4.500 M8.000 4.500 L 8.000 6.000 8.500 6.000 L 9.000 6.000 9.000 4.500 L 9.000 3.000 8.500 3.000 L 8.000 3.000 8.000 4.500 M10.000 4.500 L 10.000 6.000 10.500 6.000 L 11.000 6.000 11.000 4.500 L 11.000 3.000 10.500 3.000 L 10.000 3.000 10.000 4.500 " stroke="none" fill-rule="evenodd" fill="black"></path></svg>