<svg fill="none" viewBox="0 0 15 15" xmlns="http://www.w3.org/2000/svg"><path d="M3.169 0.038 C 2.780 0.116,2.332 0.468,2.154 0.835 C 1.991 1.173,2.001 0.733,2.001 7.500 C 2.001 14.266,1.991 13.826,2.154 14.165 C 2.269 14.405,2.595 14.731,2.835 14.846 C 3.169 15.007,2.929 14.999,7.500 14.999 C 12.071 14.999,11.831 15.007,12.165 14.846 C 12.405 14.731,12.731 14.405,12.846 14.165 C 13.009 13.826,12.999 14.266,12.999 7.500 C 12.999 0.733,13.009 1.173,12.846 0.835 C 12.719 0.573,12.426 0.287,12.150 0.156 C 12.033 0.100,11.864 0.042,11.773 0.027 C 11.511 -0.016,3.392 -0.006,3.169 0.038 M11.759 1.079 C 11.811 1.115,11.885 1.189,11.921 1.241 L 11.988 1.338 11.988 7.500 L 11.988 13.663 11.915 13.769 C 11.876 13.827,11.803 13.900,11.753 13.931 L 11.663 13.988 7.500 13.988 L 3.338 13.988 3.247 13.931 C 3.197 13.900,3.124 13.827,3.085 13.769 L 3.013 13.663 3.013 7.500 L 3.013 1.338 3.079 1.241 C 3.148 1.142,3.277 1.040,3.363 1.018 C 3.390 1.011,5.269 1.007,7.538 1.009 L 11.663 1.012 11.759 1.079 M6.000 11.500 L 6.000 12.000 7.500 12.000 L 9.000 12.000 9.000 11.500 L 9.000 11.000 7.500 11.000 L 6.000 11.000 6.000 11.500 " stroke="none" fill-rule="evenodd" fill="black"></path></svg>