<svg fill="none" viewBox="0 0 15 15" xmlns="http://www.w3.org/2000/svg"><path d="M7.000 0.016 C 4.798 0.180,2.835 1.244,1.508 2.994 C 0.749 3.994,0.277 5.135,0.068 6.475 C -0.008 6.965,-0.008 8.035,0.068 8.525 C 0.389 10.583,1.383 12.271,2.996 13.494 C 3.991 14.249,5.139 14.724,6.475 14.932 C 6.965 15.008,8.035 15.008,8.525 14.932 C 10.348 14.648,11.897 13.826,13.060 12.527 C 14.090 11.375,14.686 10.102,14.932 8.525 C 15.008 8.035,15.008 6.965,14.932 6.475 C 14.724 5.139,14.249 3.991,13.494 2.996 C 12.254 1.361,10.481 0.333,8.438 0.062 C 8.145 0.023,7.275 -0.005,7.000 0.016 M8.459 1.075 C 9.158 1.180,9.696 1.349,10.363 1.674 C 11.030 2.000,11.551 2.373,12.089 2.911 C 12.627 3.449,13.000 3.970,13.326 4.638 C 13.563 5.124,13.678 5.429,13.790 5.874 C 13.940 6.470,13.984 6.833,13.984 7.500 C 13.984 7.978,13.974 8.153,13.930 8.438 C 13.863 8.866,13.735 9.381,13.613 9.714 C 13.391 10.315,12.973 11.057,12.564 11.575 C 12.363 11.830,11.785 12.402,11.525 12.603 C 10.030 13.761,8.209 14.218,6.363 13.899 C 5.333 13.721,4.346 13.278,3.475 12.603 C 3.215 12.402,2.637 11.830,2.436 11.575 C 2.027 11.058,1.609 10.315,1.388 9.716 C 1.263 9.376,1.137 8.873,1.072 8.446 C 0.992 7.932,0.992 7.068,1.072 6.554 C 1.137 6.127,1.263 5.624,1.388 5.284 C 1.609 4.684,2.028 3.940,2.436 3.425 C 2.627 3.184,3.184 2.627,3.425 2.436 C 4.443 1.631,5.635 1.151,6.927 1.026 C 7.290 0.991,8.059 1.016,8.459 1.075 M4.000 5.500 L 4.000 6.000 4.500 6.000 L 5.000 6.000 5.000 5.500 L 5.000 5.000 4.500 5.000 L 4.000 5.000 4.000 5.500 M10.000 5.500 L 10.000 6.000 10.500 6.000 L 11.000 6.000 11.000 5.500 L 11.000 5.000 10.500 5.000 L 10.000 5.000 10.000 5.500 M4.193 8.603 L 3.799 8.902 4.030 9.207 C 4.729 10.133,5.585 10.687,6.674 10.918 C 6.955 10.978,7.040 10.985,7.500 10.985 C 7.960 10.985,8.045 10.978,8.326 10.918 C 9.175 10.738,9.889 10.358,10.475 9.775 C 10.620 9.631,10.842 9.375,10.970 9.207 L 11.201 8.902 10.802 8.601 L 10.402 8.301 10.176 8.598 C 9.607 9.344,8.979 9.754,8.119 9.942 C 7.831 10.004,7.169 10.004,6.881 9.942 C 6.021 9.754,5.393 9.344,4.824 8.598 C 4.699 8.434,4.595 8.301,4.592 8.302 C 4.590 8.302,4.410 8.438,4.193 8.603 " fill="currentColor" stroke="none" fill-rule="evenodd"></path></svg>