<svg fill="none" viewBox="0 0 15 15" xmlns="http://www.w3.org/2000/svg"><path d="M1.175 0.039 C 0.902 0.098,0.663 0.233,0.449 0.448 C 0.233 0.666,0.121 0.859,0.049 1.140 C 0.001 1.330,-0.000 1.440,-0.000 7.500 C -0.000 13.560,0.001 13.670,0.049 13.860 C 0.122 14.143,0.233 14.334,0.449 14.551 C 0.666 14.768,0.857 14.878,1.141 14.951 C 1.332 15.000,1.425 15.001,5.974 15.000 C 10.522 14.999,10.614 14.998,10.712 14.950 C 10.855 14.881,14.909 10.821,14.961 10.696 C 14.994 10.616,14.999 10.050,15.000 5.970 C 15.001 1.425,15.000 1.332,14.951 1.141 C 14.879 0.859,14.768 0.666,14.551 0.448 C 14.334 0.229,14.096 0.097,13.813 0.038 C 13.556 -0.016,1.425 -0.015,1.175 0.039 M13.758 1.072 C 13.810 1.104,13.884 1.177,13.920 1.232 L 13.988 1.334 13.994 5.666 L 14.001 9.999 12.165 10.006 L 10.329 10.013 10.223 10.088 C 10.164 10.129,10.090 10.212,10.058 10.273 L 10.000 10.383 10.000 12.192 L 10.000 14.001 5.669 13.994 L 1.338 13.988 1.242 13.928 C 1.190 13.896,1.116 13.823,1.080 13.767 L 1.012 13.666 1.006 7.555 C 1.002 3.307,1.008 1.414,1.026 1.346 C 1.058 1.226,1.216 1.061,1.330 1.028 C 1.382 1.013,3.719 1.006,7.538 1.008 L 13.663 1.012 13.758 1.072 M3.000 3.500 L 3.000 4.000 7.500 4.000 L 12.000 4.000 12.000 3.500 L 12.000 3.000 7.500 3.000 L 3.000 3.000 3.000 3.500 M13.275 11.006 C 13.275 11.010,12.763 11.524,12.138 12.150 L 11.000 13.287 11.000 12.144 L 11.000 11.000 12.138 11.000 C 12.763 11.000,13.275 11.003,13.275 11.006 " fill="currentColor" stroke="none" fill-rule="evenodd"></path></svg>