<svg fill="none" viewBox="0 0 15 15" xmlns="http://www.w3.org/2000/svg"><path d="M6.927 0.026 C 5.636 0.151,4.446 0.630,3.425 1.436 C 3.169 1.638,2.597 2.216,2.396 2.475 C 1.483 3.654,1.000 5.046,1.000 6.496 C 1.000 8.414,1.855 10.246,3.325 11.481 C 3.748 11.836,4.538 12.324,4.931 12.473 L 5.000 12.499 5.000 13.249 L 5.000 14.000 2.500 14.000 L 0.000 14.000 0.000 14.500 L 0.000 15.000 3.000 15.000 L 6.000 15.000 6.000 13.512 L 6.000 12.024 5.940 11.931 C 5.844 11.779,5.778 11.734,5.475 11.613 C 2.756 10.522,1.371 7.544,2.287 4.760 C 2.820 3.140,4.140 1.820,5.760 1.287 C 7.752 0.631,9.911 1.141,11.385 2.615 C 13.368 4.598,13.539 7.756,11.783 9.944 C 11.190 10.684,10.418 11.254,9.525 11.613 C 9.222 11.734,9.156 11.779,9.060 11.931 L 9.000 12.024 9.000 13.512 L 9.000 15.000 12.000 15.000 L 15.000 15.000 15.000 14.500 L 15.000 14.000 12.500 14.000 L 10.000 14.000 10.000 13.251 L 10.000 12.503 10.156 12.433 C 11.882 11.668,13.232 10.109,13.747 8.287 C 13.934 7.627,13.988 7.214,13.986 6.475 C 13.983 5.695,13.899 5.154,13.675 4.475 C 13.351 3.491,12.844 2.669,12.101 1.923 C 11.555 1.375,11.037 1.003,10.363 0.674 C 9.696 0.349,9.158 0.180,8.459 0.075 C 8.059 0.016,7.290 -0.009,6.927 0.026 " fill="currentColor" stroke="none" fill-rule="evenodd"></path></svg>