<svg fill="none" viewBox="0 0 15 15" xmlns="http://www.w3.org/2000/svg"><path d="M6.200 1.016 C 5.112 1.089,4.099 1.549,3.324 2.324 C 2.076 3.573,1.675 5.386,2.280 7.050 C 2.723 8.268,3.732 9.277,4.950 9.720 C 5.475 9.911,5.824 9.973,6.494 9.992 L 7.000 10.007 7.000 12.004 L 7.000 14.000 7.500 14.000 L 8.000 14.000 8.000 8.000 L 8.000 2.000 9.000 2.000 L 10.000 2.000 10.000 8.000 L 10.000 14.000 10.500 14.000 L 11.000 14.000 11.000 8.000 L 11.000 2.000 12.000 2.000 L 13.000 2.000 13.000 1.500 L 13.000 1.000 9.656 1.004 C 7.817 1.007,6.262 1.012,6.200 1.016 M7.000 5.500 L 7.000 9.000 6.631 9.000 C 5.740 8.998,5.049 8.779,4.394 8.290 C 4.185 8.134,3.859 7.806,3.695 7.588 C 2.979 6.632,2.809 5.343,3.250 4.216 C 3.598 3.328,4.328 2.598,5.217 2.250 C 5.676 2.070,6.030 2.009,6.656 2.003 L 7.000 2.000 7.000 5.500 " stroke="none" fill-rule="evenodd" fill="black"></path></svg>