<svg fill="none" viewBox="0 0 15 15" xmlns="http://www.w3.org/2000/svg"><path d="M0.000 7.500 L 0.000 15.000 1.500 15.000 L 3.000 15.000 3.000 7.500 L 3.000 0.000 1.500 0.000 L 0.000 0.000 0.000 7.500 M8.950 0.029 C 8.590 0.063,8.125 0.164,7.750 0.290 C 5.033 1.204,3.476 4.044,4.164 6.827 C 4.768 9.268,6.983 11.000,9.500 11.000 C 11.595 11.000,13.525 9.793,14.439 7.913 C 15.189 6.368,15.189 4.632,14.439 3.088 C 13.439 1.029,11.254 -0.188,8.950 0.029 M2.000 7.500 L 2.000 14.000 1.500 14.000 L 1.000 14.000 1.000 7.500 L 1.000 1.000 1.500 1.000 L 2.000 1.000 2.000 7.500 M10.221 1.064 C 11.974 1.347,13.410 2.654,13.853 4.373 C 14.118 5.402,14.001 6.547,13.534 7.481 C 12.944 8.662,11.917 9.504,10.647 9.850 C 9.843 10.068,8.889 10.040,8.094 9.774 C 6.506 9.244,5.326 7.861,5.065 6.224 C 4.834 4.775,5.293 3.356,6.324 2.324 C 7.040 1.608,7.944 1.164,8.946 1.036 C 9.267 0.995,9.873 1.008,10.221 1.064 " stroke="none" fill-rule="evenodd" fill="black"></path></svg>