<svg fill="none" viewBox="0 0 15 15" xmlns="http://www.w3.org/2000/svg"><path d="M4.666 0.024 C 3.906 0.163,3.285 0.723,3.070 1.464 C 3.015 1.654,3.013 1.700,3.013 2.500 C 3.013 3.300,3.015 3.346,3.070 3.536 C 3.263 4.203,3.798 4.738,4.464 4.930 C 4.749 5.012,5.251 5.012,5.536 4.930 C 6.202 4.738,6.737 4.203,6.930 3.536 C 6.985 3.346,6.988 3.300,6.988 2.500 C 6.988 1.700,6.985 1.654,6.930 1.464 C 6.739 0.804,6.197 0.259,5.550 0.075 C 5.339 0.015,4.866 -0.012,4.666 0.024 M9.666 0.024 C 8.906 0.163,8.285 0.723,8.070 1.464 C 8.015 1.654,8.013 1.700,8.013 2.500 C 8.013 3.300,8.015 3.346,8.070 3.536 C 8.263 4.203,8.798 4.738,9.464 4.930 C 9.749 5.012,10.251 5.012,10.536 4.930 C 11.202 4.738,11.737 4.203,11.930 3.536 C 11.985 3.346,11.988 3.300,11.988 2.500 C 11.988 1.700,11.985 1.654,11.930 1.464 C 11.739 0.804,11.197 0.259,10.550 0.075 C 10.339 0.015,9.866 -0.012,9.666 0.024 M5.419 1.100 C 5.623 1.195,5.806 1.379,5.908 1.594 L 5.987 1.763 5.996 2.381 C 6.009 3.256,5.966 3.442,5.689 3.711 C 5.531 3.865,5.373 3.946,5.161 3.983 C 4.723 4.058,4.291 3.825,4.093 3.408 L 4.013 3.238 4.013 2.500 L 4.013 1.763 4.092 1.594 C 4.333 1.085,4.917 0.868,5.419 1.100 M10.419 1.100 C 10.623 1.195,10.806 1.379,10.908 1.594 L 10.987 1.763 10.996 2.381 C 11.009 3.256,10.966 3.442,10.689 3.711 C 10.531 3.865,10.373 3.946,10.161 3.983 C 9.723 4.058,9.291 3.825,9.093 3.408 L 9.013 3.238 9.013 2.500 L 9.013 1.763 9.092 1.594 C 9.333 1.085,9.917 0.868,10.419 1.100 M1.666 5.024 C 0.906 5.163,0.285 5.723,0.070 6.464 C 0.017 6.646,0.013 6.711,0.013 7.250 C 0.013 7.789,0.017 7.854,0.070 8.036 C 0.263 8.703,0.798 9.238,1.464 9.430 C 1.749 9.512,2.251 9.512,2.536 9.430 C 3.202 9.238,3.737 8.703,3.930 8.036 C 3.983 7.854,3.988 7.789,3.988 7.250 C 3.988 6.711,3.983 6.646,3.930 6.464 C 3.739 5.804,3.197 5.259,2.550 5.075 C 2.339 5.015,1.866 4.988,1.666 5.024 M12.666 5.024 C 11.906 5.163,11.285 5.723,11.070 6.464 C 11.017 6.646,11.013 6.711,11.013 7.250 C 11.013 7.789,11.017 7.854,11.070 8.036 C 11.263 8.703,11.798 9.238,12.464 9.430 C 12.749 9.512,13.251 9.512,13.536 9.430 C 14.202 9.238,14.737 8.703,14.930 8.036 C 14.983 7.854,14.988 7.789,14.988 7.250 C 14.988 6.711,14.983 6.646,14.930 6.464 C 14.739 5.804,14.197 5.259,13.550 5.075 C 13.339 5.015,12.866 4.988,12.666 5.024 M2.419 6.100 C 2.623 6.195,2.806 6.380,2.905 6.591 C 2.978 6.747,2.984 6.778,2.995 7.124 C 3.014 7.718,2.945 7.962,2.689 8.211 C 2.531 8.365,2.373 8.446,2.161 8.483 C 1.723 8.558,1.291 8.325,1.093 7.908 L 1.012 7.738 1.012 7.250 L 1.012 6.763 1.092 6.594 C 1.333 6.085,1.917 5.868,2.419 6.100 M13.419 6.100 C 13.623 6.195,13.806 6.380,13.905 6.591 C 13.978 6.747,13.984 6.778,13.995 7.124 C 14.014 7.718,13.945 7.962,13.689 8.211 C 13.531 8.365,13.373 8.446,13.161 8.483 C 12.723 8.558,12.291 8.325,12.093 7.908 L 12.013 7.738 12.013 7.250 L 12.013 6.763 12.092 6.594 C 12.333 6.085,12.917 5.868,13.419 6.100 M7.263 6.801 C 6.611 6.856,6.022 7.131,5.570 7.592 C 5.295 7.871,2.392 11.404,2.271 11.605 C 1.994 12.067,1.892 12.616,1.989 13.126 C 2.103 13.724,2.420 14.229,2.899 14.575 C 3.135 14.745,3.305 14.829,3.590 14.915 C 3.783 14.974,3.858 14.983,4.163 14.985 C 4.592 14.987,4.652 14.971,5.250 14.686 C 5.970 14.343,6.463 14.202,7.144 14.146 C 7.418 14.123,7.582 14.123,7.856 14.146 C 8.539 14.202,9.035 14.344,9.750 14.687 C 10.342 14.970,10.406 14.988,10.838 14.985 C 11.142 14.983,11.217 14.974,11.413 14.915 C 11.830 14.788,12.165 14.577,12.459 14.252 C 12.747 13.935,12.929 13.560,13.014 13.109 C 13.112 12.591,12.977 11.958,12.672 11.513 C 12.521 11.292,9.563 7.719,9.395 7.554 C 8.838 7.009,8.059 6.734,7.263 6.801 M7.925 7.841 C 8.139 7.889,8.416 8.030,8.608 8.189 C 8.829 8.372,11.780 11.959,11.903 12.194 C 12.028 12.431,12.068 12.665,12.029 12.920 C 11.946 13.456,11.550 13.875,11.030 13.976 C 10.765 14.028,10.643 14.000,10.192 13.786 C 9.179 13.305,8.498 13.141,7.500 13.141 C 6.502 13.141,5.821 13.305,4.808 13.786 C 4.357 14.000,4.235 14.028,3.970 13.976 C 3.450 13.875,3.054 13.456,2.971 12.920 C 2.933 12.673,2.972 12.437,3.090 12.204 C 3.150 12.085,3.603 11.516,4.687 10.200 C 5.519 9.189,6.257 8.309,6.326 8.244 C 6.743 7.855,7.324 7.708,7.925 7.841 " stroke="none" fill-rule="evenodd" fill="black"></path></svg>