<svg fill="none" viewBox="0 0 15 15" xmlns="http://www.w3.org/2000/svg"><path d="M6.938 0.016 C 6.896 0.022,6.728 0.044,6.563 0.064 C 3.440 0.454,0.874 2.778,0.188 5.838 C 0.044 6.478,0.016 6.756,0.016 7.500 C 0.016 8.244,0.044 8.522,0.188 9.162 C 0.572 10.875,1.567 12.410,2.996 13.494 C 3.991 14.249,5.139 14.724,6.475 14.932 C 6.965 15.008,8.035 15.008,8.525 14.932 C 10.348 14.648,11.897 13.826,13.060 12.527 C 14.090 11.375,14.686 10.102,14.932 8.525 C 15.008 8.035,15.008 6.965,14.932 6.475 C 14.648 4.657,13.829 3.109,12.538 1.951 C 11.362 0.896,10.046 0.287,8.450 0.061 C 8.175 0.022,7.111 -0.010,6.938 0.016 M7.000 4.294 C 7.000 6.551,7.009 7.593,7.027 7.663 C 7.051 7.749,7.372 8.080,9.392 10.102 L 11.729 12.442 11.521 12.605 C 10.046 13.757,8.207 14.218,6.363 13.899 C 5.333 13.721,4.346 13.278,3.475 12.603 C 3.215 12.402,2.637 11.830,2.436 11.575 C 2.027 11.058,1.609 10.315,1.388 9.716 C 1.263 9.376,1.137 8.873,1.072 8.446 C 0.992 7.932,0.992 7.068,1.072 6.554 C 1.137 6.127,1.263 5.624,1.388 5.284 C 1.609 4.684,2.028 3.940,2.436 3.425 C 2.627 3.184,3.184 2.627,3.425 2.436 C 3.940 2.028,4.684 1.609,5.284 1.388 C 5.727 1.225,6.580 1.037,6.919 1.027 L 7.000 1.025 7.000 4.294 M8.621 1.103 C 9.653 1.273,10.705 1.748,11.575 2.436 C 11.812 2.623,12.372 3.182,12.554 3.413 C 12.736 3.642,13.050 4.101,13.050 4.135 C 13.050 4.157,8.056 6.675,8.012 6.675 C 8.006 6.675,8.000 5.402,8.000 3.847 L 8.000 1.019 8.156 1.035 C 8.242 1.044,8.451 1.075,8.621 1.103 M13.674 5.471 C 13.787 5.817,13.881 6.225,13.941 6.638 C 14.007 7.088,14.001 7.971,13.929 8.438 C 13.863 8.865,13.736 9.381,13.613 9.714 C 13.394 10.308,12.975 11.054,12.577 11.558 L 12.442 11.729 10.396 9.683 L 8.350 7.638 10.931 6.347 L 13.513 5.055 13.546 5.118 C 13.564 5.152,13.622 5.311,13.674 5.471 " fill="currentColor" stroke="none" fill-rule="evenodd"></path></svg>