<svg fill="none" viewBox="0 0 15 15" xmlns="http://www.w3.org/2000/svg"><path d="M4.363 2.018 C 4.258 2.045,4.104 2.176,4.052 2.283 L 4.000 2.392 4.006 7.527 L 4.013 12.663 4.072 12.758 C 4.181 12.934,4.402 13.029,4.612 12.989 C 4.747 12.964,11.848 7.886,11.929 7.757 C 12.011 7.625,12.012 7.377,11.930 7.246 C 11.887 7.176,11.018 6.543,8.306 4.606 C 6.343 3.205,4.699 2.045,4.653 2.029 C 4.566 2.000,4.454 1.995,4.363 2.018 M7.909 5.550 C 9.402 6.616,10.621 7.495,10.618 7.505 C 10.614 7.518,7.582 9.690,5.169 11.409 L 5.000 11.529 5.000 7.500 L 5.000 3.471 5.097 3.542 C 5.150 3.581,6.416 4.484,7.909 5.550 " stroke="none" fill-rule="evenodd" fill="black"></path></svg>