<svg fill="none" viewBox="0 0 15 15" xmlns="http://www.w3.org/2000/svg"><path d="M6.876 0.026 C 5.160 0.180,3.637 0.860,2.363 2.044 C 1.768 2.597,1.165 3.397,0.806 4.114 C 0.340 5.042,0.058 6.115,0.009 7.144 L -0.008 7.500 0.494 7.500 L 0.995 7.500 1.011 7.231 C 1.070 6.240,1.271 5.455,1.674 4.638 C 2.390 3.186,3.596 2.066,5.081 1.472 C 7.445 0.528,10.154 1.050,11.984 2.803 L 12.188 2.998 11.094 2.999 L 10.000 3.000 10.000 3.500 L 10.000 4.000 12.000 4.000 L 14.000 4.000 14.000 2.000 L 14.000 0.000 13.500 0.000 L 13.000 0.000 13.000 1.194 L 13.001 2.388 12.736 2.131 C 11.557 0.991,10.038 0.264,8.416 0.062 C 8.035 0.015,7.220 -0.004,6.876 0.026 M13.989 7.769 C 13.930 8.760,13.729 9.545,13.326 10.363 C 12.701 11.630,11.708 12.641,10.463 13.279 C 8.602 14.231,6.445 14.237,4.565 13.295 C 3.993 13.008,3.331 12.531,2.926 12.115 L 2.815 12.000 3.907 12.000 L 5.000 12.000 5.000 11.500 L 5.000 11.000 3.000 11.000 L 1.000 11.000 1.000 13.000 L 1.000 15.000 1.500 15.000 L 2.000 15.000 2.000 13.799 L 2.000 12.598 2.081 12.691 C 2.126 12.742,2.286 12.896,2.438 13.032 C 3.370 13.875,4.460 14.461,5.650 14.761 C 6.374 14.944,6.739 14.987,7.538 14.986 C 8.071 14.985,8.248 14.975,8.525 14.932 C 9.914 14.715,11.116 14.203,12.131 13.394 C 13.786 12.076,14.783 10.223,14.975 8.113 C 14.989 7.961,15.000 7.762,15.000 7.669 L 15.000 7.500 14.502 7.500 L 14.005 7.500 13.989 7.769 " stroke="none" fill-rule="evenodd" fill="black"></path></svg>