<svg fill="none" viewBox="0 0 15 15" xmlns="http://www.w3.org/2000/svg"><path d="M7.000 0.016 C 4.798 0.180,2.835 1.244,1.508 2.994 C 0.749 3.994,0.277 5.135,0.068 6.475 C -0.008 6.965,-0.008 8.035,0.068 8.525 C 0.389 10.583,1.383 12.271,2.996 13.494 C 3.991 14.249,5.139 14.724,6.475 14.932 C 6.965 15.008,8.035 15.008,8.525 14.932 C 10.348 14.648,11.897 13.826,13.060 12.527 C 14.090 11.375,14.686 10.102,14.932 8.525 C 15.008 8.035,15.008 6.965,14.932 6.475 C 14.724 5.139,14.249 3.991,13.494 2.996 C 12.254 1.361,10.481 0.333,8.438 0.062 C 8.145 0.023,7.275 -0.005,7.000 0.016 M8.459 1.075 C 9.158 1.180,9.696 1.349,10.363 1.674 C 11.030 2.000,11.551 2.373,12.089 2.911 C 12.627 3.449,13.000 3.970,13.326 4.638 C 13.563 5.124,13.678 5.429,13.790 5.874 C 13.940 6.470,13.984 6.833,13.984 7.500 C 13.984 7.978,13.974 8.153,13.930 8.438 C 13.863 8.866,13.735 9.381,13.613 9.714 C 13.391 10.315,12.973 11.057,12.564 11.575 C 12.363 11.830,11.785 12.402,11.525 12.603 C 10.030 13.761,8.209 14.218,6.363 13.899 C 5.333 13.721,4.346 13.278,3.475 12.603 C 3.215 12.402,2.637 11.830,2.436 11.575 C 2.027 11.058,1.609 10.315,1.388 9.716 C 1.263 9.376,1.137 8.873,1.072 8.446 C 0.992 7.932,0.992 7.068,1.072 6.554 C 1.137 6.127,1.263 5.624,1.388 5.284 C 1.609 4.684,2.028 3.940,2.436 3.425 C 2.627 3.184,3.184 2.627,3.425 2.436 C 4.443 1.631,5.635 1.151,6.927 1.026 C 7.290 0.991,8.059 1.016,8.459 1.075 M6.342 5.030 C 6.303 5.044,5.460 5.519,4.467 6.086 C 2.411 7.261,2.513 7.188,2.513 7.500 C 2.513 7.815,2.407 7.739,4.501 8.936 L 6.338 9.987 6.502 9.987 C 6.638 9.987,6.683 9.976,6.767 9.920 C 6.823 9.884,6.896 9.810,6.928 9.758 C 6.987 9.663,6.988 9.654,6.995 8.871 L 7.003 8.080 8.670 9.034 L 10.338 9.987 10.502 9.987 C 10.638 9.987,10.683 9.976,10.767 9.920 C 10.823 9.884,10.896 9.810,10.928 9.758 L 10.988 9.663 10.988 7.498 L 10.988 5.334 10.917 5.228 C 10.868 5.154,10.807 5.103,10.717 5.061 C 10.574 4.994,10.474 4.985,10.350 5.029 C 10.305 5.044,9.536 5.476,8.640 5.988 L 7.013 6.918 7.000 6.126 L 6.988 5.334 6.917 5.227 C 6.799 5.049,6.537 4.959,6.342 5.030 M6.000 7.502 C 6.000 8.202,5.991 8.626,5.976 8.621 C 5.923 8.602,4.026 7.512,4.026 7.500 C 4.027 7.486,5.951 6.381,5.981 6.377 C 5.992 6.376,6.000 6.882,6.000 7.502 M10.000 7.502 C 10.000 8.202,9.991 8.626,9.976 8.621 C 9.923 8.602,8.026 7.512,8.026 7.500 C 8.027 7.486,9.951 6.381,9.981 6.377 C 9.992 6.376,10.000 6.882,10.000 7.502 " fill="currentColor" stroke="none" fill-rule="evenodd"></path></svg>