<svg fill="none" viewBox="0 0 15 15" xmlns="http://www.w3.org/2000/svg"><path d="M7.000 1.011 L 7.000 2.021 6.856 2.038 C 6.550 2.073,6.073 2.182,5.750 2.290 C 4.357 2.759,3.204 3.771,2.561 5.088 C 2.384 5.449,2.201 5.970,2.125 6.327 C 2.002 6.904,2.000 6.969,2.000 10.425 C 2.001 13.981,1.995 13.835,2.154 14.165 C 2.269 14.405,2.595 14.731,2.835 14.846 C 3.169 15.007,2.929 14.999,7.500 14.999 C 12.071 14.999,11.831 15.007,12.165 14.846 C 12.405 14.731,12.731 14.405,12.846 14.165 C 13.005 13.835,12.999 13.981,12.999 10.425 C 13.000 6.854,12.999 6.833,12.836 6.173 C 12.387 4.361,11.026 2.888,9.250 2.290 C 8.927 2.182,8.450 2.073,8.144 2.038 L 8.000 2.021 8.000 1.011 L 8.000 0.000 7.500 0.000 L 7.000 0.000 7.000 1.011 M8.221 3.064 C 9.974 3.347,11.410 4.654,11.853 6.373 C 12.000 6.946,12.002 6.996,11.994 10.488 L 11.988 13.663 11.915 13.769 C 11.876 13.827,11.803 13.900,11.753 13.931 L 11.663 13.988 7.500 13.988 L 3.338 13.988 3.247 13.931 C 3.197 13.900,3.124 13.827,3.085 13.769 L 3.013 13.663 3.006 10.488 C 2.998 6.996,3.000 6.946,3.147 6.373 C 3.605 4.597,5.116 3.270,6.946 3.036 C 7.267 2.995,7.873 3.008,8.221 3.064 M5.200 7.028 C 5.124 7.040,4.967 7.097,4.850 7.154 C 4.573 7.289,4.279 7.576,4.154 7.835 C 3.951 8.255,3.951 8.744,4.154 9.165 C 4.269 9.405,4.595 9.731,4.835 9.846 C 5.256 10.049,5.744 10.049,6.165 9.846 C 6.405 9.731,6.731 9.405,6.846 9.165 C 7.049 8.744,7.049 8.255,6.846 7.835 C 6.719 7.573,6.426 7.287,6.150 7.156 C 5.845 7.011,5.552 6.971,5.200 7.028 M9.200 7.028 C 9.124 7.040,8.967 7.097,8.850 7.154 C 8.573 7.289,8.279 7.576,8.154 7.835 C 7.951 8.255,7.951 8.744,8.154 9.165 C 8.269 9.405,8.595 9.731,8.835 9.846 C 9.256 10.049,9.744 10.049,10.165 9.846 C 10.405 9.731,10.731 9.405,10.846 9.165 C 11.049 8.744,11.049 8.255,10.846 7.835 C 10.719 7.573,10.426 7.287,10.150 7.156 C 9.845 7.011,9.552 6.971,9.200 7.028 M0.000 10.000 L 0.000 12.000 0.500 12.000 L 1.000 12.000 1.000 10.000 L 1.000 8.000 0.500 8.000 L 0.000 8.000 0.000 10.000 M5.763 8.083 C 5.814 8.117,5.884 8.189,5.921 8.241 C 5.976 8.321,5.987 8.365,5.987 8.500 C 5.987 8.637,5.975 8.679,5.915 8.769 C 5.807 8.929,5.696 8.988,5.500 8.988 C 5.304 8.988,5.193 8.929,5.085 8.769 C 5.025 8.679,5.013 8.637,5.013 8.500 C 5.013 8.365,5.024 8.321,5.079 8.241 C 5.147 8.143,5.275 8.042,5.363 8.017 C 5.469 7.987,5.671 8.021,5.763 8.083 M9.763 8.083 C 9.814 8.117,9.884 8.189,9.921 8.241 C 9.976 8.321,9.987 8.365,9.987 8.500 C 9.987 8.637,9.975 8.679,9.915 8.769 C 9.807 8.929,9.696 8.988,9.500 8.988 C 9.304 8.988,9.193 8.929,9.085 8.769 C 9.025 8.679,9.013 8.637,9.013 8.500 C 9.013 8.365,9.024 8.321,9.079 8.241 C 9.147 8.143,9.275 8.042,9.363 8.017 C 9.469 7.987,9.671 8.021,9.763 8.083 M14.000 10.000 L 14.000 12.000 14.500 12.000 L 15.000 12.000 15.000 10.000 L 15.000 8.000 14.500 8.000 L 14.000 8.000 14.000 10.000 M4.000 11.500 L 4.000 12.000 7.500 12.000 L 11.000 12.000 11.000 11.500 L 11.000 11.000 7.500 11.000 L 4.000 11.000 4.000 11.500 " stroke="none" fill-rule="evenodd" fill="black"></path></svg>