<svg fill="none" viewBox="0 0 15 15" xmlns="http://www.w3.org/2000/svg"><path d="M1.200 0.028 C 1.124 0.040,0.967 0.097,0.850 0.154 C 0.573 0.289,0.279 0.576,0.154 0.835 C -0.009 1.173,0.001 0.733,0.001 7.500 C 0.001 14.266,-0.009 13.826,0.154 14.165 C 0.269 14.405,0.595 14.731,0.835 14.846 C 1.174 15.009,0.734 14.999,7.500 14.999 C 14.266 14.999,13.826 15.009,14.165 14.846 C 14.405 14.731,14.731 14.405,14.846 14.165 C 15.010 13.826,15.001 14.105,14.994 9.131 L 14.988 4.612 14.931 4.445 C 14.817 4.110,14.732 4.016,12.833 2.121 C 10.947 0.240,10.882 0.181,10.552 0.068 L 10.388 0.013 5.863 0.009 C 3.325 0.007,1.277 0.015,1.200 0.028 M10.288 1.048 C 10.356 1.080,10.952 1.661,12.167 2.879 C 13.682 4.398,13.950 4.677,13.974 4.763 C 13.995 4.835,14.000 6.057,13.995 9.263 L 13.988 13.663 13.915 13.769 C 13.876 13.827,13.803 13.900,13.753 13.931 C 13.663 13.987,13.662 13.988,12.331 13.995 L 11.000 14.002 11.000 12.670 C 10.999 11.199,10.994 11.142,10.846 10.835 C 10.719 10.573,10.426 10.287,10.150 10.156 C 10.033 10.100,9.864 10.042,9.773 10.027 C 9.663 10.009,8.910 10.000,7.494 10.000 C 5.132 10.000,5.141 9.999,4.818 10.166 C 4.571 10.294,4.268 10.599,4.154 10.835 C 4.006 11.142,4.001 11.199,4.000 12.670 L 4.000 14.002 2.669 13.995 C 1.338 13.988,1.337 13.987,1.247 13.931 C 1.197 13.900,1.124 13.827,1.085 13.769 L 1.012 13.663 1.012 7.500 L 1.012 1.338 1.079 1.241 C 1.148 1.142,1.277 1.040,1.363 1.018 C 1.390 1.011,3.387 1.005,5.800 1.003 C 10.040 1.001,10.191 1.003,10.288 1.048 M9.759 11.079 C 9.811 11.115,9.885 11.189,9.921 11.241 L 9.988 11.338 9.995 12.669 L 10.002 14.000 7.500 14.000 L 4.998 14.000 5.005 12.669 L 5.013 11.338 5.079 11.241 C 5.148 11.142,5.277 11.040,5.363 11.018 C 5.390 11.011,6.369 11.007,7.538 11.009 L 9.663 11.013 9.759 11.079 " stroke="none" fill-rule="evenodd" fill="black"></path></svg>