<svg fill="none" viewBox="0 0 15 15" xmlns="http://www.w3.org/2000/svg"><path d="M14.325 0.033 C 13.914 0.190,0.244 6.070,0.184 6.115 C 0.062 6.206,-0.008 6.374,0.005 6.540 C 0.028 6.816,-0.105 6.724,2.648 8.376 L 5.133 9.867 6.624 12.352 C 8.276 15.105,8.184 14.972,8.460 14.995 C 8.626 15.008,8.794 14.938,8.885 14.816 C 8.918 14.773,10.307 11.557,11.972 7.671 C 14.472 1.837,15.000 0.585,15.000 0.493 C 15.000 0.348,14.911 0.181,14.784 0.092 C 14.664 0.008,14.459 -0.019,14.325 0.033 M8.853 5.434 L 5.419 8.869 3.528 7.734 C 2.488 7.111,1.635 6.592,1.631 6.581 C 1.626 6.566,12.228 2.004,12.275 2.001 C 12.282 2.000,10.742 3.545,8.853 5.434 M12.993 2.744 C 12.987 2.754,11.960 5.150,10.710 8.069 C 9.460 10.987,8.429 13.372,8.419 13.369 C 8.408 13.365,7.889 12.513,7.265 11.475 L 6.131 9.588 9.559 6.156 C 11.445 4.269,12.991 2.725,12.995 2.725 C 12.999 2.725,12.998 2.733,12.993 2.744 " fill="currentColor" stroke="none" fill-rule="evenodd"></path></svg>