<svg fill="none" viewBox="0 0 15 15" xmlns="http://www.w3.org/2000/svg"><path d="M7.000 1.500 L 7.000 2.000 10.000 2.000 L 13.000 2.000 13.000 7.500 L 13.000 13.000 10.000 13.000 L 7.000 13.000 7.000 13.500 L 7.000 14.000 10.500 14.000 L 14.000 14.000 14.000 7.500 L 14.000 1.000 10.500 1.000 L 7.000 1.000 7.000 1.500 M7.487 4.500 L 7.138 4.850 8.213 5.925 L 9.287 7.000 5.144 7.000 L 1.000 7.000 1.000 7.500 L 1.000 8.000 5.173 8.006 L 9.346 8.013 8.238 9.213 C 7.629 9.873,7.132 10.413,7.134 10.415 C 7.136 10.416,7.298 10.565,7.495 10.747 C 7.692 10.929,7.862 11.075,7.873 11.070 C 7.884 11.066,8.562 10.338,9.380 9.452 L 10.866 7.841 10.682 7.666 L 10.497 7.491 10.673 7.314 L 10.849 7.137 9.356 5.643 C 8.534 4.822,7.857 4.150,7.850 4.150 C 7.843 4.150,7.680 4.308,7.487 4.500 " stroke="none" fill-rule="evenodd" fill="black"></path></svg>