<svg fill="none" viewBox="0 0 15 15" xmlns="http://www.w3.org/2000/svg"><path d="M2.200 0.028 C 2.124 0.040,1.967 0.097,1.850 0.154 C 1.573 0.289,1.279 0.576,1.154 0.835 C 0.991 1.173,1.001 0.733,1.001 7.500 C 1.001 14.266,0.991 13.826,1.154 14.165 C 1.269 14.405,1.595 14.731,1.835 14.846 C 2.172 15.008,1.832 14.999,7.500 14.999 C 13.168 14.999,12.828 15.008,13.165 14.846 C 13.405 14.731,13.731 14.405,13.846 14.165 C 14.008 13.829,13.999 14.122,14.000 8.975 L 14.000 4.287 11.856 2.144 L 9.712 0.000 6.025 0.003 C 3.997 0.005,2.276 0.016,2.200 0.028 M11.144 2.857 L 13.001 4.713 12.994 9.188 L 12.988 13.663 12.915 13.769 C 12.876 13.827,12.803 13.900,12.753 13.931 L 12.663 13.988 7.500 13.988 L 2.337 13.988 2.247 13.931 C 2.197 13.900,2.124 13.827,2.085 13.769 L 2.013 13.663 2.013 7.500 L 2.013 1.338 2.079 1.241 C 2.148 1.142,2.277 1.040,2.363 1.018 C 2.390 1.011,3.959 1.004,5.850 1.003 L 9.288 1.000 11.144 2.857 M4.000 5.500 L 4.000 6.000 5.500 6.000 L 7.000 6.000 7.000 9.000 L 7.000 12.000 7.500 12.000 L 8.000 12.000 8.000 8.500 L 8.000 5.000 6.000 5.000 L 4.000 5.000 4.000 5.500 M9.000 5.500 L 9.000 6.000 10.000 6.000 L 11.000 6.000 11.000 5.500 L 11.000 5.000 10.000 5.000 L 9.000 5.000 9.000 5.500 M4.000 8.500 L 4.000 9.000 5.000 9.000 L 6.000 9.000 6.000 8.500 L 6.000 8.000 5.000 8.000 L 4.000 8.000 4.000 8.500 M9.000 8.500 L 9.000 9.000 10.000 9.000 L 11.000 9.000 11.000 8.500 L 11.000 8.000 10.000 8.000 L 9.000 8.000 9.000 8.500 M4.000 11.500 L 4.000 12.000 5.000 12.000 L 6.000 12.000 6.000 11.500 L 6.000 11.000 5.000 11.000 L 4.000 11.000 4.000 11.500 M9.000 11.500 L 9.000 12.000 10.000 12.000 L 11.000 12.000 11.000 11.500 L 11.000 11.000 10.000 11.000 L 9.000 11.000 9.000 11.500 " stroke="none" fill-rule="evenodd" fill="black"></path></svg>