<svg fill="none" viewBox="0 0 15 15" xmlns="http://www.w3.org/2000/svg"><path d="M6.994 0.528 C 5.988 0.625,5.065 1.066,4.403 1.765 C 4.125 2.059,3.944 2.325,3.765 2.703 C 3.452 3.367,3.193 4.346,3.097 5.228 L 3.066 5.518 2.902 5.548 C 2.674 5.590,2.339 5.705,2.107 5.821 C 1.583 6.085,1.257 6.473,1.085 7.038 C 1.025 7.235,1.016 7.306,1.014 7.613 C 1.012 7.990,1.046 8.146,1.192 8.434 C 1.336 8.718,1.614 9.013,1.931 9.218 C 2.024 9.278,2.100 9.333,2.100 9.340 C 2.100 9.406,1.765 9.957,1.486 10.350 C 1.101 10.893,1.037 11.074,1.039 11.625 C 1.041 11.972,1.048 12.035,1.108 12.232 C 1.250 12.696,1.449 12.973,1.749 13.125 C 1.962 13.232,2.156 13.268,2.688 13.300 C 3.876 13.370,3.879 13.371,5.150 13.926 C 6.424 14.483,7.324 14.615,8.350 14.396 C 8.794 14.301,9.293 14.121,10.038 13.787 C 10.885 13.407,11.067 13.366,12.208 13.300 C 12.759 13.268,12.987 13.225,13.214 13.114 C 13.528 12.959,13.709 12.727,13.847 12.305 C 14.010 11.803,13.987 11.237,13.787 10.814 C 13.751 10.737,13.650 10.576,13.563 10.455 C 13.341 10.146,13.100 9.771,12.978 9.547 L 12.874 9.356 13.066 9.236 C 13.928 8.699,14.213 7.817,13.828 6.883 C 13.555 6.220,12.956 5.763,12.098 5.562 L 11.908 5.518 11.877 5.240 C 11.748 4.101,11.377 2.924,10.932 2.252 C 10.737 1.957,10.209 1.433,9.901 1.227 C 9.039 0.654,8.080 0.423,6.994 0.528 M8.128 1.561 C 8.979 1.710,9.777 2.249,10.191 2.956 C 10.569 3.601,10.847 4.719,10.930 5.927 C 10.955 6.291,10.968 6.377,10.999 6.386 C 11.020 6.392,11.195 6.421,11.388 6.451 C 12.105 6.561,12.403 6.673,12.659 6.930 C 12.992 7.264,13.088 7.712,12.899 8.044 C 12.750 8.304,12.436 8.486,11.621 8.782 C 11.584 8.795,11.596 8.843,11.716 9.165 C 11.791 9.368,11.901 9.636,11.961 9.761 C 12.101 10.052,12.432 10.598,12.643 10.887 C 12.917 11.261,12.938 11.313,12.937 11.637 C 12.936 11.872,12.927 11.935,12.874 12.061 C 12.817 12.200,12.805 12.213,12.700 12.243 C 12.638 12.261,12.396 12.287,12.163 12.301 C 11.284 12.353,10.791 12.421,10.438 12.539 C 10.328 12.576,9.996 12.713,9.700 12.844 C 8.476 13.385,7.961 13.524,7.300 13.493 C 6.741 13.467,6.236 13.316,5.248 12.879 C 4.940 12.742,4.588 12.595,4.466 12.553 C 4.098 12.423,3.608 12.351,2.733 12.300 C 2.497 12.286,2.274 12.264,2.238 12.250 C 2.072 12.187,1.967 11.624,2.066 11.332 C 2.088 11.266,2.208 11.068,2.332 10.891 C 2.610 10.496,2.840 10.117,3.002 9.788 C 3.145 9.494,3.402 8.820,3.378 8.796 C 3.370 8.787,3.205 8.716,3.013 8.638 C 2.493 8.428,2.274 8.280,2.131 8.044 C 1.920 7.695,1.989 7.213,2.293 6.909 C 2.533 6.669,2.869 6.550,3.588 6.449 C 3.808 6.419,3.995 6.387,4.004 6.378 C 4.012 6.369,4.033 6.161,4.049 5.914 C 4.138 4.526,4.457 3.344,4.911 2.715 C 5.497 1.903,6.457 1.475,7.602 1.514 C 7.776 1.520,8.012 1.541,8.128 1.561 " stroke="none" fill-rule="evenodd" fill="black"></path></svg>