<svg fill="none" viewBox="0 0 15 15" xmlns="http://www.w3.org/2000/svg"><path d="M7.285 3.560 C 7.215 3.593,7.135 3.651,7.107 3.691 C 7.079 3.730,6.840 4.224,6.576 4.788 C 6.312 5.351,6.087 5.822,6.076 5.834 C 6.064 5.845,5.560 5.931,4.954 6.024 C 4.168 6.145,3.826 6.207,3.758 6.243 C 3.559 6.345,3.461 6.588,3.524 6.822 C 3.550 6.918,3.660 7.040,4.377 7.776 C 4.924 8.337,5.200 8.637,5.200 8.672 C 5.200 8.711,5.000 9.977,4.840 10.948 C 4.824 11.049,4.889 11.248,4.965 11.330 C 5.117 11.491,5.346 11.541,5.538 11.453 C 5.593 11.428,6.057 11.175,6.569 10.892 L 7.500 10.377 8.431 10.892 C 9.510 11.489,9.530 11.499,9.663 11.499 C 9.939 11.499,10.205 11.206,10.161 10.950 C 10.090 10.542,9.800 8.711,9.800 8.672 C 9.800 8.637,10.073 8.340,10.620 7.778 C 11.357 7.023,11.443 6.925,11.473 6.819 C 11.535 6.596,11.460 6.382,11.276 6.260 C 11.195 6.207,11.044 6.178,10.064 6.027 C 9.448 5.932,8.935 5.845,8.924 5.834 C 8.913 5.822,8.687 5.351,8.424 4.788 C 8.160 4.224,7.921 3.730,7.893 3.691 C 7.831 3.603,7.619 3.500,7.500 3.500 C 7.452 3.500,7.355 3.527,7.285 3.560 M7.636 5.469 C 7.704 5.617,7.858 5.940,7.978 6.188 C 8.277 6.803,8.189 6.753,9.250 6.913 C 9.573 6.961,9.863 7.007,9.895 7.014 C 9.946 7.025,9.887 7.094,9.395 7.602 C 9.088 7.919,8.823 8.205,8.806 8.238 C 8.737 8.369,8.746 8.508,8.872 9.274 C 8.941 9.693,8.994 10.040,8.989 10.044 C 8.984 10.049,8.693 9.893,8.341 9.699 C 7.989 9.504,7.655 9.335,7.600 9.322 C 7.541 9.309,7.459 9.309,7.400 9.322 C 7.345 9.335,7.011 9.504,6.659 9.699 C 6.307 9.893,6.016 10.049,6.011 10.044 C 6.006 10.040,6.059 9.693,6.128 9.274 C 6.259 8.478,6.265 8.355,6.181 8.222 C 6.156 8.184,5.891 7.899,5.592 7.589 C 5.111 7.093,5.054 7.025,5.105 7.014 C 5.137 7.007,5.393 6.967,5.675 6.925 C 6.591 6.787,6.609 6.783,6.733 6.673 C 6.830 6.589,6.883 6.492,7.165 5.889 C 7.343 5.510,7.493 5.201,7.500 5.200 C 7.507 5.200,7.568 5.321,7.636 5.469 " stroke="none" fill-rule="evenodd" fill="black"></path></svg>