<svg fill="none" viewBox="0 0 15 15" xmlns="http://www.w3.org/2000/svg"><path d="M1.494 1.502 L 1.100 1.801 3.238 4.650 L 5.375 7.500 3.238 10.350 L 1.100 13.199 1.500 13.500 L 1.899 13.801 3.939 11.082 C 5.060 9.586,5.988 8.363,6.000 8.363 C 6.012 8.363,6.940 9.586,8.061 11.082 L 10.101 13.801 10.500 13.500 L 10.900 13.199 8.762 10.350 L 6.625 7.500 8.762 4.650 L 10.900 1.801 10.500 1.500 L 10.101 1.199 8.061 3.918 C 6.940 5.414,6.012 6.638,6.000 6.638 C 5.988 6.638,5.061 5.414,3.939 3.919 C 2.818 2.423,1.897 1.201,1.894 1.202 C 1.890 1.202,1.710 1.338,1.494 1.502 M13.175 11.039 C 13.086 11.058,12.928 11.115,12.825 11.166 C 12.591 11.281,12.299 11.564,12.180 11.792 C 12.093 11.958,12.000 12.280,12.000 12.416 L 12.000 12.500 12.497 12.500 L 12.994 12.500 13.012 12.406 C 13.036 12.274,13.115 12.158,13.231 12.081 C 13.317 12.024,13.364 12.013,13.565 12.004 C 13.713 11.998,13.827 12.005,13.872 12.024 C 13.947 12.055,14.000 12.140,14.000 12.231 C 14.000 12.268,13.703 12.583,13.027 13.261 C 12.154 14.138,12.052 14.249,12.025 14.350 C 11.963 14.581,12.048 14.808,12.242 14.928 L 12.338 14.988 13.669 14.995 L 15.000 15.002 15.000 14.501 L 15.000 14.000 14.358 14.000 L 13.716 14.000 14.252 13.456 C 14.821 12.879,14.883 12.795,14.962 12.488 C 15.122 11.866,14.731 11.210,14.102 11.046 C 13.898 10.992,13.408 10.989,13.175 11.039 " fill="currentColor" stroke="none" fill-rule="evenodd"></path></svg>