<svg fill="none" viewBox="0 0 15 15" xmlns="http://www.w3.org/2000/svg"><path d="M9.400 0.090 C 9.006 0.162,8.875 0.193,8.650 0.265 C 8.506 0.311,8.269 0.409,8.125 0.482 C 7.864 0.613,3.792 3.142,3.361 3.440 C 2.345 4.144,1.708 5.306,1.657 6.550 C 1.634 7.105,1.736 7.701,1.936 8.193 L 2.022 8.403 1.839 8.675 C 1.541 9.117,1.332 9.613,1.222 10.137 C 1.160 10.430,1.134 11.062,1.171 11.376 C 1.277 12.272,1.687 13.112,2.331 13.751 C 2.871 14.287,3.552 14.658,4.304 14.826 C 5.167 15.019,6.128 14.896,6.925 14.493 C 7.152 14.378,11.082 11.940,11.600 11.593 C 12.405 11.054,12.968 10.283,13.235 9.355 C 13.489 8.469,13.435 7.617,13.062 6.673 L 13.017 6.558 13.119 6.423 C 13.461 5.965,13.700 5.414,13.829 4.782 C 13.902 4.422,13.908 3.758,13.841 3.388 C 13.788 3.099,13.610 2.543,13.497 2.317 C 12.927 1.178,11.926 0.408,10.663 0.136 C 10.469 0.095,9.558 0.062,9.400 0.090 M10.603 1.146 C 11.497 1.384,12.181 1.936,12.586 2.746 C 12.797 3.168,12.885 3.565,12.883 4.088 C 12.880 4.604,12.783 4.998,12.545 5.456 C 12.490 5.563,12.437 5.650,12.428 5.650 C 12.418 5.650,12.369 5.601,12.319 5.541 C 12.269 5.481,12.123 5.343,11.995 5.236 C 11.481 4.805,10.966 4.540,10.324 4.379 L 10.055 4.311 10.412 4.089 L 10.770 3.866 10.646 3.669 C 10.578 3.560,10.460 3.371,10.384 3.248 C 10.307 3.125,10.241 3.025,10.236 3.025 C 10.219 3.025,5.212 6.155,5.184 6.184 C 5.163 6.205,5.221 6.316,5.416 6.629 L 5.677 7.045 6.757 6.370 C 7.351 5.999,7.933 5.647,8.050 5.589 C 9.211 5.006,10.648 5.247,11.533 6.174 C 12.100 6.767,12.378 7.455,12.377 8.263 C 12.376 8.901,12.217 9.427,11.868 9.950 C 11.706 10.191,11.315 10.582,11.075 10.742 C 10.632 11.038,6.645 13.517,6.475 13.603 C 5.943 13.869,5.321 13.972,4.750 13.889 C 4.110 13.796,3.515 13.512,3.079 13.091 C 2.723 12.749,2.398 12.212,2.265 11.747 C 2.048 10.990,2.141 10.154,2.517 9.478 L 2.606 9.319 2.834 9.543 C 3.399 10.097,3.948 10.404,4.717 10.599 L 4.985 10.667 4.849 10.753 C 4.774 10.801,4.614 10.901,4.494 10.976 C 4.374 11.051,4.278 11.119,4.281 11.127 C 4.308 11.188,4.791 11.948,4.804 11.949 C 4.830 11.951,9.862 8.801,9.870 8.778 C 9.874 8.766,9.763 8.574,9.623 8.352 C 9.435 8.052,9.359 7.951,9.331 7.962 C 9.310 7.970,8.818 8.273,8.237 8.636 C 7.656 8.999,7.098 9.338,6.997 9.389 C 6.571 9.604,6.129 9.708,5.650 9.706 C 4.207 9.701,3.020 8.728,2.709 7.295 C 2.649 7.020,2.649 6.451,2.709 6.143 C 2.850 5.418,3.271 4.747,3.850 4.320 C 4.125 4.118,8.350 1.486,8.600 1.361 C 8.835 1.244,9.078 1.164,9.356 1.111 C 9.629 1.059,10.353 1.080,10.603 1.146 " stroke="none" fill-rule="evenodd" fill="black"></path></svg>