<svg fill="none" viewBox="0 0 15 15" xmlns="http://www.w3.org/2000/svg"><path d="M14.350 1.023 C 14.316 1.034,11.132 2.171,7.275 3.549 C 3.065 5.053,0.231 6.078,0.185 6.113 C 0.142 6.146,0.081 6.226,0.050 6.292 C -0.024 6.451,-0.008 6.641,0.092 6.786 C 0.158 6.881,0.298 6.955,2.250 7.933 C 3.629 8.624,4.373 8.984,4.441 8.993 C 4.498 9.000,4.587 8.992,4.640 8.974 C 4.692 8.957,5.472 8.452,6.374 7.851 C 8.202 6.633,8.103 6.697,8.047 6.764 C 7.730 7.144,6.077 9.236,6.043 9.300 C 5.982 9.416,5.998 9.637,6.076 9.764 C 6.121 9.836,6.756 10.271,9.198 11.899 C 10.885 13.023,12.308 13.957,12.360 13.974 C 12.559 14.040,12.797 13.954,12.916 13.775 C 12.972 13.689,13.072 13.115,13.991 7.609 C 14.722 3.224,15.000 1.507,14.990 1.429 C 14.971 1.288,14.862 1.130,14.741 1.067 C 14.634 1.012,14.446 0.990,14.350 1.023 M13.850 2.313 C 13.850 2.357,12.152 12.573,12.137 12.619 C 12.126 12.651,7.250 9.420,7.250 9.381 C 7.250 9.371,8.083 8.322,9.100 7.050 C 10.481 5.325,10.958 4.712,10.978 4.638 C 11.079 4.265,10.747 3.925,10.378 4.024 C 10.307 4.043,9.292 4.705,7.369 5.987 L 4.468 7.921 3.134 7.255 C 2.400 6.888,1.800 6.582,1.800 6.575 C 1.801 6.561,13.770 2.281,13.819 2.277 C 13.836 2.276,13.850 2.292,13.850 2.313 " stroke="none" fill-rule="evenodd" fill="black"></path></svg>