<svg fill="none" viewBox="0 0 15 15" xmlns="http://www.w3.org/2000/svg"><path d="M1.169 1.038 C 0.907 1.090,0.669 1.228,0.438 1.461 C 0.212 1.688,0.094 1.897,0.036 2.173 C -0.016 2.418,-0.016 10.582,0.036 10.827 C 0.096 11.110,0.211 11.312,0.450 11.550 C 0.797 11.898,1.071 11.999,1.669 12.000 L 2.000 12.000 2.000 12.500 L 2.000 13.000 1.500 13.000 L 1.000 13.000 1.000 13.500 L 1.000 14.000 2.500 14.000 L 4.000 14.000 4.000 13.500 L 4.000 13.000 3.500 13.000 L 3.000 13.000 3.000 12.500 L 3.000 12.000 7.500 12.000 L 12.000 12.000 12.000 12.500 L 12.000 13.000 11.500 13.000 L 11.000 13.000 11.000 13.500 L 11.000 14.000 12.500 14.000 L 14.000 14.000 14.000 13.500 L 14.000 13.000 13.500 13.000 L 13.000 13.000 13.000 12.500 L 13.000 12.000 13.331 12.000 C 13.929 11.999,14.203 11.898,14.550 11.550 C 14.707 11.393,14.785 11.292,14.846 11.165 C 15.007 10.831,14.999 11.071,14.999 6.500 C 14.999 1.928,15.007 2.169,14.846 1.835 C 14.719 1.573,14.426 1.287,14.150 1.156 C 14.033 1.100,13.864 1.042,13.773 1.027 C 13.509 0.983,1.392 0.994,1.169 1.038 M13.759 2.079 C 13.811 2.115,13.885 2.189,13.921 2.241 L 13.988 2.337 13.988 6.500 L 13.988 10.663 13.915 10.769 C 13.876 10.827,13.803 10.900,13.753 10.931 L 13.663 10.988 7.500 10.988 L 1.338 10.988 1.247 10.931 C 1.197 10.900,1.124 10.827,1.085 10.769 L 1.012 10.663 1.012 6.498 L 1.012 2.333 1.081 2.235 C 1.146 2.140,1.258 2.055,1.363 2.021 C 1.390 2.012,4.169 2.007,7.538 2.009 L 13.663 2.013 13.759 2.079 " stroke="none" fill-rule="evenodd" fill="black"></path></svg>