<svg fill="none" viewBox="0 0 15 15" xmlns="http://www.w3.org/2000/svg"><path d="M0.000 7.500 L 0.000 15.000 7.500 15.000 L 15.000 15.000 15.000 7.500 L 15.000 0.000 7.500 0.000 L 0.000 0.000 0.000 7.500 M14.000 7.500 L 14.000 14.000 7.500 14.000 L 1.000 14.000 1.000 7.500 L 1.000 1.000 7.500 1.000 L 14.000 1.000 14.000 7.500 M3.000 6.500 L 3.000 7.000 4.000 7.000 L 5.000 7.000 5.000 10.000 L 5.000 13.000 5.500 13.000 L 6.000 13.000 6.000 10.000 L 6.000 7.000 7.000 7.000 L 8.000 7.000 8.000 6.500 L 8.000 6.000 5.500 6.000 L 3.000 6.000 3.000 6.500 M9.666 6.025 C 8.912 6.158,8.283 6.724,8.070 7.464 C 7.988 7.749,7.988 8.251,8.070 8.536 C 8.260 9.196,8.793 9.733,9.451 9.927 C 9.620 9.977,9.713 9.983,10.438 9.998 L 11.238 10.013 11.406 10.093 C 12.123 10.430,12.198 11.398,11.541 11.834 C 11.320 11.981,11.199 12.000,10.500 12.000 C 9.801 12.000,9.680 11.981,9.459 11.834 C 9.219 11.675,9.048 11.406,9.012 11.131 L 8.995 11.000 8.494 11.000 L 7.993 11.000 8.008 11.181 C 8.078 11.992,8.667 12.699,9.464 12.930 C 9.654 12.985,9.700 12.988,10.500 12.988 C 11.300 12.988,11.346 12.985,11.536 12.930 C 12.203 12.737,12.738 12.202,12.930 11.536 C 13.012 11.251,13.012 10.749,12.930 10.464 C 12.740 9.806,12.204 9.266,11.550 9.073 C 11.381 9.024,11.283 9.016,10.563 9.001 C 9.696 8.982,9.683 8.980,9.456 8.831 C 9.293 8.724,9.173 8.581,9.083 8.386 C 9.023 8.256,9.014 8.207,9.015 7.999 C 9.015 7.785,9.023 7.743,9.094 7.593 C 9.195 7.376,9.375 7.196,9.594 7.092 L 9.763 7.013 10.563 7.013 L 11.363 7.013 11.504 7.079 C 11.795 7.215,11.967 7.474,11.993 7.813 L 12.007 8.000 12.504 8.000 L 13.000 8.000 13.000 7.824 C 13.000 7.152,12.595 6.502,11.988 6.198 C 11.632 6.021,11.613 6.018,10.650 6.011 C 10.176 6.007,9.733 6.014,9.666 6.025 " stroke="none" fill-rule="evenodd" fill="black"></path></svg>