<svg fill="none" viewBox="0 0 15 15" xmlns="http://www.w3.org/2000/svg"><path d="M4.000 2.536 L 4.000 5.072 3.819 5.166 C 3.571 5.294,3.268 5.598,3.154 5.835 C 2.999 6.157,3.001 6.121,3.001 8.500 C 3.001 10.878,2.999 10.843,3.154 11.165 C 3.215 11.292,3.293 11.393,3.450 11.550 C 3.797 11.898,4.071 11.999,4.669 12.000 L 5.000 12.000 5.000 13.000 L 5.000 14.000 5.500 14.000 L 6.000 14.000 6.000 14.500 L 6.000 15.000 6.500 15.000 L 7.000 15.000 7.000 14.500 L 7.000 14.000 7.500 14.000 L 8.000 14.000 8.000 14.500 L 8.000 15.000 8.500 15.000 L 9.000 15.000 9.000 14.500 L 9.000 14.000 9.500 14.000 L 10.000 14.000 10.000 13.000 L 10.000 12.000 10.331 12.000 C 10.929 11.999,11.203 11.898,11.550 11.550 C 11.707 11.393,11.785 11.292,11.846 11.165 C 12.001 10.843,11.999 10.878,11.999 8.500 C 11.999 6.121,12.001 6.157,11.846 5.835 C 11.727 5.589,11.425 5.287,11.183 5.173 L 11.003 5.088 11.001 2.544 L 11.000 0.000 7.500 0.000 L 4.000 0.000 4.000 2.536 M10.000 3.000 L 10.000 5.000 7.500 5.000 L 5.000 5.000 5.000 3.000 L 5.000 1.000 7.500 1.000 L 10.000 1.000 10.000 3.000 M6.000 3.000 L 6.000 4.000 6.500 4.000 L 7.000 4.000 7.000 3.000 L 7.000 2.000 6.500 2.000 L 6.000 2.000 6.000 3.000 M8.000 3.000 L 8.000 4.000 8.500 4.000 L 9.000 4.000 9.000 3.000 L 9.000 2.000 8.500 2.000 L 8.000 2.000 8.000 3.000 M10.759 6.079 C 10.811 6.115,10.885 6.189,10.921 6.241 L 10.988 6.338 10.988 8.500 L 10.988 10.663 10.915 10.769 C 10.876 10.827,10.803 10.900,10.753 10.931 L 10.663 10.988 7.500 10.988 L 4.338 10.988 4.247 10.931 C 4.197 10.900,4.124 10.827,4.085 10.769 L 4.013 10.663 4.013 8.500 L 4.013 6.338 4.079 6.241 C 4.148 6.142,4.277 6.040,4.363 6.018 C 4.390 6.011,5.819 6.007,7.538 6.009 L 10.663 6.013 10.759 6.079 M9.000 12.500 L 9.000 13.000 7.500 13.000 L 6.000 13.000 6.000 12.500 L 6.000 12.000 7.500 12.000 L 9.000 12.000 9.000 12.500 " stroke="none" fill-rule="evenodd" fill="black"></path></svg>