<svg fill="none" viewBox="0 0 15 15" xmlns="http://www.w3.org/2000/svg"><path d="M7.071 0.028 C 5.995 0.152,5.011 0.814,4.450 1.792 C 4.095 2.411,3.937 3.202,4.027 3.902 C 4.136 4.740,4.499 5.461,5.099 6.033 C 6.276 7.153,8.079 7.309,9.432 6.409 C 11.263 5.191,11.534 2.616,9.995 1.053 C 9.223 0.270,8.174 -0.098,7.071 0.028 M8.088 1.072 C 9.022 1.304,9.747 2.049,9.941 2.975 C 10.001 3.257,10.001 3.741,9.942 4.017 C 9.826 4.566,9.485 5.111,9.037 5.463 C 8.579 5.824,7.930 6.029,7.365 5.992 C 6.267 5.919,5.361 5.172,5.085 4.112 C 4.974 3.686,4.993 3.116,5.131 2.713 C 5.270 2.304,5.556 1.878,5.867 1.612 C 6.248 1.288,6.616 1.123,7.200 1.015 C 7.344 0.988,7.894 1.024,8.088 1.072 M5.113 9.017 C 4.653 9.079,4.278 9.195,3.905 9.388 C 2.883 9.919,2.208 10.864,2.037 12.005 C 2.008 12.197,2.000 12.544,2.000 13.625 L 2.000 15.000 7.250 15.000 L 12.500 15.000 12.500 14.750 L 12.500 14.500 12.750 14.500 L 13.000 14.500 13.000 13.375 C 13.000 12.514,12.991 12.192,12.963 12.005 C 12.743 10.537,11.685 9.407,10.213 9.067 C 9.994 9.016,9.922 9.015,7.588 9.011 C 6.268 9.008,5.154 9.011,5.113 9.017 M9.928 10.037 C 10.910 10.209,11.674 10.925,11.930 11.913 C 11.977 12.093,11.983 12.204,11.993 13.056 L 12.005 14.000 7.500 14.000 L 2.995 14.000 3.007 13.056 C 3.017 12.204,3.023 12.093,3.070 11.913 C 3.324 10.933,4.086 10.213,5.058 10.037 C 5.338 9.986,9.638 9.986,9.928 10.037 " stroke="none" fill-rule="evenodd" fill="black"></path></svg>