<svg width="16" height="16" fill="currentColor" xmlns="http://www.w3.org/2000/svg"><path d="M7.467 0.017 C 5.118 0.192,3.024 1.327,1.608 3.193 C 0.799 4.260,0.296 5.477,0.073 6.906 C -0.009 7.429,-0.009 8.571,0.073 9.094 C 0.415 11.288,1.476 13.089,3.195 14.393 C 4.257 15.199,5.481 15.705,6.906 15.927 C 7.429 16.009,8.571 16.009,9.094 15.927 C 11.038 15.624,12.690 14.748,13.930 13.362 C 15.030 12.133,15.665 10.775,15.927 9.094 C 16.009 8.571,16.009 7.429,15.927 6.906 C 15.705 5.481,15.199 4.257,14.393 3.195 C 13.070 1.452,11.180 0.355,9.000 0.066 C 8.688 0.025,7.760 -0.005,7.467 0.017 M8.587 3.904 C 9.860 4.153,10.686 5.257,10.895 6.987 C 10.938 7.349,10.946 8.564,10.906 8.920 C 10.817 9.726,10.586 10.428,10.235 10.960 C 10.173 11.055,10.021 11.237,9.900 11.364 C 9.543 11.734,9.193 11.941,8.694 12.074 C 8.472 12.133,8.384 12.142,8.000 12.143 C 7.635 12.144,7.522 12.135,7.333 12.087 C 6.097 11.775,5.330 10.737,5.104 9.070 C 5.039 8.597,5.039 7.425,5.103 6.960 C 5.297 5.548,5.870 4.583,6.787 4.125 C 7.081 3.978,7.304 3.915,7.747 3.855 C 7.891 3.836,8.383 3.864,8.587 3.904 M7.620 5.012 C 7.116 5.173,6.721 5.691,6.532 6.442 C 6.418 6.893,6.373 7.330,6.373 8.000 C 6.373 9.277,6.590 10.107,7.054 10.608 C 7.344 10.921,7.610 11.044,7.998 11.043 C 8.346 11.043,8.583 10.950,8.841 10.714 C 9.216 10.372,9.461 9.795,9.579 8.973 C 9.625 8.653,9.625 7.349,9.579 7.027 C 9.417 5.893,8.989 5.189,8.348 5.002 C 8.154 4.945,7.814 4.950,7.620 5.012 " stroke="none" fill-rule="evenodd"></path></svg>