<svg width="16" height="16" fill="currentColor" xmlns="http://www.w3.org/2000/svg"><path d="M1.669 0.028 C 0.992 0.142,0.371 0.651,0.135 1.283 C -0.006 1.659,0.001 1.324,0.000 7.994 C -0.000 14.784,-0.010 14.361,0.156 14.767 C 0.347 15.238,0.762 15.653,1.233 15.844 C 1.639 16.010,1.217 16.000,8.000 16.000 C 14.782 16.000,14.361 16.010,14.766 15.845 C 15.233 15.654,15.654 15.233,15.845 14.766 C 16.010 14.361,16.000 14.782,16.000 8.000 C 16.000 1.217,16.010 1.639,15.844 1.233 C 15.666 0.795,15.309 0.422,14.864 0.208 C 14.422 -0.005,15.102 0.015,8.080 0.010 C 4.626 0.008,1.741 0.016,1.669 0.028 M8.587 3.904 C 9.726 4.127,10.525 5.056,10.812 6.489 C 10.910 6.980,10.933 7.268,10.933 8.006 C 10.933 8.934,10.869 9.437,10.678 10.022 C 10.498 10.574,10.257 10.991,9.907 11.357 C 9.545 11.737,9.123 11.976,8.600 12.097 C 8.286 12.170,7.643 12.165,7.333 12.087 C 6.099 11.777,5.330 10.737,5.104 9.070 C 5.039 8.597,5.039 7.425,5.103 6.960 C 5.297 5.548,5.870 4.583,6.787 4.125 C 7.081 3.978,7.304 3.915,7.747 3.855 C 7.891 3.836,8.383 3.864,8.587 3.904 M7.620 5.012 C 7.116 5.173,6.721 5.691,6.532 6.442 C 6.418 6.893,6.373 7.330,6.373 8.000 C 6.373 9.277,6.590 10.107,7.054 10.608 C 7.344 10.921,7.610 11.044,7.998 11.043 C 8.346 11.043,8.583 10.950,8.841 10.714 C 9.216 10.372,9.461 9.795,9.579 8.973 C 9.625 8.653,9.625 7.349,9.579 7.027 C 9.417 5.893,8.989 5.189,8.348 5.002 C 8.154 4.945,7.814 4.950,7.620 5.012 " stroke="none" fill-rule="evenodd"></path></svg>