<svg width="16" height="16" fill="currentColor" xmlns="http://www.w3.org/2000/svg"><path d="M7.467 0.017 C 5.118 0.192,3.024 1.327,1.608 3.193 C 0.799 4.260,0.296 5.477,0.073 6.906 C -0.009 7.429,-0.009 8.571,0.073 9.094 C 0.415 11.288,1.476 13.089,3.195 14.393 C 4.257 15.199,5.481 15.705,6.906 15.927 C 7.429 16.009,8.571 16.009,9.094 15.927 C 11.038 15.624,12.690 14.748,13.930 13.362 C 15.030 12.133,15.665 10.775,15.927 9.094 C 16.009 8.571,16.009 7.429,15.927 6.906 C 15.705 5.481,15.199 4.257,14.393 3.195 C 13.070 1.452,11.180 0.355,9.000 0.066 C 8.688 0.025,7.760 -0.005,7.467 0.017 M8.392 3.869 C 9.246 3.964,9.908 4.328,10.285 4.912 C 10.515 5.267,10.613 5.609,10.613 6.053 C 10.613 6.679,10.414 7.180,9.910 7.823 C 9.816 7.942,9.179 8.669,8.495 9.437 C 7.811 10.206,7.256 10.848,7.261 10.864 C 7.268 10.885,7.784 10.895,9.022 10.900 L 10.773 10.907 10.773 11.454 L 10.773 12.000 8.093 12.000 L 5.413 12.000 5.413 11.589 L 5.413 11.178 6.938 9.489 C 8.752 7.478,8.766 7.463,8.959 7.171 C 9.345 6.587,9.400 5.965,9.105 5.493 C 9.016 5.349,8.787 5.150,8.628 5.077 C 7.991 4.786,7.234 4.964,6.869 5.490 C 6.763 5.643,6.670 5.917,6.650 6.134 L 6.632 6.320 6.006 6.320 L 5.379 6.320 5.395 6.060 C 5.439 5.328,5.798 4.699,6.401 4.296 C 6.940 3.935,7.640 3.785,8.392 3.869 " stroke="none" fill-rule="evenodd"></path></svg>