<svg width="16" height="16" fill="currentColor" xmlns="http://www.w3.org/2000/svg"><path d="M1.669 0.028 C 0.992 0.142,0.371 0.651,0.135 1.283 C -0.006 1.659,0.001 1.324,0.000 7.994 C -0.000 14.784,-0.010 14.361,0.156 14.767 C 0.347 15.238,0.762 15.653,1.233 15.844 C 1.639 16.010,1.217 16.000,8.000 16.000 C 14.782 16.000,14.361 16.010,14.766 15.845 C 15.233 15.654,15.654 15.233,15.845 14.766 C 16.010 14.361,16.000 14.782,16.000 8.000 C 16.000 1.217,16.010 1.639,15.844 1.233 C 15.666 0.795,15.309 0.422,14.864 0.208 C 14.422 -0.005,15.102 0.015,8.080 0.010 C 4.626 0.008,1.741 0.016,1.669 0.028 M8.673 3.921 C 9.474 4.084,10.047 4.499,10.349 5.133 C 10.843 6.171,10.286 7.431,9.192 7.747 C 9.105 7.772,9.041 7.804,9.047 7.821 C 9.052 7.837,9.136 7.865,9.232 7.883 C 9.666 7.963,10.126 8.245,10.385 8.590 C 10.535 8.789,10.613 8.937,10.694 9.174 C 10.778 9.421,10.799 9.990,10.734 10.284 C 10.486 11.411,9.341 12.160,7.867 12.160 C 7.083 12.160,6.432 11.965,5.922 11.578 C 5.482 11.243,5.176 10.715,5.129 10.207 L 5.112 10.026 5.720 10.033 L 6.327 10.040 6.358 10.162 C 6.600 11.115,8.317 11.420,9.090 10.647 C 9.691 10.046,9.535 9.015,8.782 8.619 C 8.480 8.460,8.280 8.427,7.622 8.427 L 7.040 8.427 7.040 7.880 L 7.040 7.333 7.576 7.333 C 7.977 7.333,8.153 7.323,8.274 7.291 C 8.774 7.162,9.122 6.790,9.203 6.299 C 9.305 5.682,8.911 5.118,8.267 4.957 C 8.057 4.905,7.623 4.912,7.428 4.971 C 6.952 5.113,6.595 5.469,6.543 5.852 L 6.526 5.973 5.899 5.973 L 5.272 5.973 5.289 5.811 C 5.331 5.416,5.479 5.056,5.730 4.739 C 6.101 4.272,6.745 3.951,7.479 3.868 C 7.792 3.832,8.359 3.857,8.673 3.921 " stroke="none" fill-rule="evenodd"></path></svg>