<svg width="16" height="16" fill="currentColor" xmlns="http://www.w3.org/2000/svg"><path d="M1.669 0.028 C 0.992 0.142,0.371 0.651,0.135 1.283 C -0.006 1.659,0.001 1.324,0.000 7.994 C -0.000 14.784,-0.010 14.361,0.156 14.767 C 0.347 15.238,0.762 15.653,1.233 15.844 C 1.639 16.010,1.217 16.000,8.000 16.000 C 14.782 16.000,14.361 16.010,14.766 15.845 C 15.233 15.654,15.654 15.233,15.845 14.766 C 16.010 14.361,16.000 14.782,16.000 8.000 C 16.000 1.217,16.010 1.639,15.844 1.233 C 15.666 0.795,15.309 0.422,14.864 0.208 C 14.422 -0.005,15.102 0.015,8.080 0.010 C 4.626 0.008,1.741 0.016,1.669 0.028 M14.407 1.085 C 14.584 1.167,14.812 1.392,14.900 1.570 L 14.973 1.720 14.980 7.946 C 14.988 14.846,15.001 14.319,14.811 14.576 C 14.691 14.738,14.526 14.866,14.341 14.942 L 14.200 15.000 8.000 15.000 L 1.800 15.000 1.659 14.942 C 1.381 14.828,1.152 14.596,1.063 14.338 C 1.018 14.207,1.015 13.881,1.015 8.000 C 1.015 2.119,1.018 1.793,1.063 1.662 C 1.154 1.399,1.399 1.154,1.662 1.063 C 1.793 1.017,2.106 1.015,8.040 1.021 L 14.280 1.027 14.407 1.085 M7.547 5.007 C 6.301 7.011,5.709 7.996,5.218 8.885 L 4.987 9.302 4.987 9.878 L 4.987 10.453 6.920 10.453 L 8.853 10.453 8.853 11.227 L 8.853 12.000 9.480 12.000 L 10.107 12.000 10.107 11.227 L 10.107 10.453 10.613 10.453 L 11.120 10.453 11.120 9.893 L 11.120 9.333 10.613 9.333 L 10.107 9.333 10.107 6.667 L 10.107 4.000 9.140 4.000 L 8.173 4.001 7.547 5.007 M8.853 7.200 L 8.853 9.333 7.547 9.333 C 6.376 9.333,6.240 9.329,6.240 9.291 C 6.240 9.127,8.717 5.067,8.817 5.067 C 8.847 5.067,8.853 5.426,8.853 7.200 " stroke="none" fill-rule="evenodd"></path></svg>