<svg width="16" height="16" fill="currentColor" xmlns="http://www.w3.org/2000/svg"><path d="M7.467 0.017 C 5.118 0.192,3.024 1.327,1.608 3.193 C 0.799 4.260,0.296 5.477,0.073 6.906 C -0.009 7.429,-0.009 8.571,0.073 9.094 C 0.415 11.288,1.476 13.089,3.195 14.393 C 4.257 15.199,5.481 15.705,6.906 15.927 C 7.429 16.009,8.571 16.009,9.094 15.927 C 11.038 15.624,12.690 14.748,13.930 13.362 C 15.030 12.133,15.665 10.775,15.927 9.094 C 16.009 8.571,16.009 7.429,15.927 6.906 C 15.705 5.481,15.199 4.257,14.393 3.195 C 13.070 1.452,11.180 0.355,9.000 0.066 C 8.688 0.025,7.760 -0.005,7.467 0.017 M10.480 4.560 L 10.480 5.120 8.681 5.120 L 6.881 5.120 6.868 5.180 C 6.854 5.250,6.693 7.259,6.693 7.367 C 6.693 7.407,6.703 7.440,6.714 7.440 C 6.725 7.440,6.807 7.371,6.896 7.286 C 7.272 6.928,7.838 6.749,8.490 6.781 C 9.009 6.806,9.429 6.933,9.803 7.177 C 10.326 7.519,10.676 8.013,10.833 8.630 C 10.885 8.836,10.892 8.933,10.891 9.373 C 10.890 9.836,10.883 9.903,10.818 10.147 C 10.526 11.236,9.704 11.944,8.527 12.118 C 7.813 12.224,7.113 12.122,6.520 11.826 C 6.359 11.745,6.152 11.619,6.060 11.546 C 5.646 11.214,5.355 10.706,5.293 10.205 L 5.274 10.052 5.894 10.060 L 6.514 10.067 6.547 10.179 C 6.665 10.576,7.087 10.920,7.587 11.026 C 8.518 11.223,9.324 10.749,9.549 9.871 C 9.614 9.618,9.619 9.202,9.560 8.973 C 9.399 8.350,8.891 7.917,8.232 7.842 C 7.578 7.768,6.963 8.046,6.628 8.567 L 6.581 8.640 6.012 8.640 L 5.443 8.640 5.456 8.513 C 5.473 8.347,5.787 4.117,5.787 4.051 C 5.787 4.001,5.845 4.000,8.133 4.000 L 10.480 4.000 10.480 4.560 " stroke="none" fill-rule="evenodd"></path></svg>