<svg width="16" height="16" fill="currentColor" xmlns="http://www.w3.org/2000/svg"><path d="M7.467 0.017 C 5.118 0.192,3.024 1.327,1.608 3.193 C 0.799 4.260,0.296 5.477,0.073 6.906 C -0.009 7.429,-0.009 8.571,0.073 9.094 C 0.415 11.288,1.476 13.089,3.195 14.393 C 4.257 15.199,5.481 15.705,6.906 15.927 C 7.429 16.009,8.571 16.009,9.094 15.927 C 11.038 15.624,12.690 14.748,13.930 13.362 C 15.030 12.133,15.665 10.775,15.927 9.094 C 16.009 8.571,16.009 7.429,15.927 6.906 C 15.705 5.481,15.199 4.257,14.393 3.195 C 13.070 1.452,11.180 0.355,9.000 0.066 C 8.688 0.025,7.760 -0.005,7.467 0.017 M9.045 3.955 C 9.752 4.140,10.300 4.545,10.584 5.092 C 10.689 5.294,10.773 5.561,10.773 5.691 L 10.773 5.760 10.138 5.760 L 9.503 5.760 9.443 5.628 C 9.364 5.452,9.187 5.261,9.002 5.149 C 8.772 5.011,8.543 4.955,8.200 4.952 C 7.950 4.951,7.878 4.960,7.717 5.018 C 6.922 5.301,6.454 6.211,6.383 7.611 C 6.366 7.956,6.368 7.973,6.416 7.972 C 6.450 7.972,6.488 7.928,6.530 7.841 C 6.738 7.414,7.212 7.056,7.773 6.902 C 7.954 6.853,8.056 6.844,8.440 6.844 C 8.961 6.844,9.160 6.884,9.539 7.065 C 10.227 7.394,10.658 7.909,10.857 8.640 C 10.913 8.843,10.919 8.923,10.918 9.400 C 10.917 9.892,10.911 9.954,10.845 10.200 C 10.769 10.484,10.616 10.829,10.478 11.030 C 9.991 11.737,9.104 12.160,8.107 12.160 C 6.911 12.160,5.988 11.595,5.521 10.577 C 5.181 9.838,5.039 8.809,5.118 7.653 C 5.267 5.460,6.113 4.191,7.614 3.908 C 7.769 3.879,7.956 3.871,8.307 3.878 C 8.714 3.886,8.826 3.898,9.045 3.955 M7.745 7.904 C 7.472 7.958,7.191 8.110,6.988 8.313 C 6.688 8.615,6.558 8.954,6.556 9.443 C 6.552 10.417,7.177 11.066,8.120 11.066 C 9.036 11.066,9.605 10.499,9.646 9.547 C 9.661 9.182,9.618 8.942,9.491 8.674 C 9.376 8.433,9.094 8.151,8.848 8.031 C 8.537 7.881,8.112 7.831,7.745 7.904 " stroke="none" fill-rule="evenodd"></path></svg>