<svg width="16" height="16" fill="currentColor" xmlns="http://www.w3.org/2000/svg"><path d="M1.669 0.028 C 0.992 0.142,0.371 0.651,0.135 1.283 C -0.006 1.659,0.001 1.324,0.000 7.994 C -0.000 14.784,-0.010 14.361,0.156 14.767 C 0.347 15.238,0.762 15.653,1.233 15.844 C 1.639 16.010,1.217 16.000,8.000 16.000 C 14.782 16.000,14.361 16.010,14.766 15.845 C 15.233 15.654,15.654 15.233,15.845 14.766 C 16.010 14.361,16.000 14.782,16.000 8.000 C 16.000 1.217,16.010 1.639,15.844 1.233 C 15.666 0.795,15.309 0.422,14.864 0.208 C 14.422 -0.005,15.102 0.015,8.080 0.010 C 4.626 0.008,1.741 0.016,1.669 0.028 M14.407 1.085 C 14.584 1.167,14.812 1.392,14.900 1.570 L 14.973 1.720 14.980 7.946 C 14.988 14.846,15.001 14.319,14.811 14.576 C 14.691 14.738,14.526 14.866,14.341 14.942 L 14.200 15.000 8.000 15.000 L 1.800 15.000 1.659 14.942 C 1.381 14.828,1.152 14.596,1.063 14.338 C 1.018 14.207,1.015 13.881,1.015 8.000 C 1.015 2.119,1.018 1.793,1.063 1.662 C 1.154 1.399,1.399 1.154,1.662 1.063 C 1.793 1.017,2.106 1.015,8.040 1.021 L 14.280 1.027 14.407 1.085 M7.639 3.906 C 7.057 4.011,6.616 4.237,6.217 4.633 C 5.644 5.202,5.289 6.066,5.141 7.253 C 5.088 7.685,5.096 8.896,5.155 9.280 C 5.360 10.606,5.862 11.425,6.733 11.853 C 8.004 12.478,9.696 12.125,10.440 11.080 C 11.092 10.164,11.121 8.771,10.507 7.867 C 10.203 7.420,9.680 7.061,9.101 6.901 C 8.796 6.817,8.082 6.818,7.773 6.902 C 7.216 7.055,6.785 7.377,6.527 7.833 C 6.484 7.910,6.430 7.973,6.407 7.973 C 6.371 7.973,6.368 7.932,6.384 7.647 C 6.435 6.750,6.598 6.152,6.922 5.662 C 7.244 5.178,7.638 4.953,8.173 4.950 C 8.477 4.949,8.662 4.986,8.897 5.096 C 9.124 5.203,9.309 5.377,9.417 5.586 L 9.507 5.760 10.144 5.760 L 10.781 5.760 10.763 5.613 C 10.725 5.288,10.508 4.880,10.223 4.600 C 9.856 4.238,9.363 3.999,8.798 3.908 C 8.496 3.859,7.903 3.858,7.639 3.906 M8.466 7.906 C 8.766 7.963,8.992 8.084,9.215 8.306 C 9.539 8.627,9.675 9.028,9.645 9.573 C 9.595 10.502,9.023 11.065,8.128 11.066 C 7.749 11.067,7.488 10.991,7.196 10.796 C 6.789 10.524,6.560 10.039,6.560 9.456 C 6.561 8.963,6.690 8.619,6.989 8.314 C 7.353 7.943,7.888 7.795,8.466 7.906 " stroke="none" fill-rule="evenodd"></path></svg>