<svg width="16" height="16" fill="currentColor" xmlns="http://www.w3.org/2000/svg"><path d="M7.467 0.017 C 5.118 0.192,3.024 1.327,1.608 3.193 C 0.799 4.260,0.296 5.477,0.073 6.906 C -0.009 7.429,-0.009 8.571,0.073 9.094 C 0.415 11.288,1.476 13.089,3.195 14.393 C 4.257 15.199,5.481 15.705,6.906 15.927 C 7.429 16.009,8.571 16.009,9.094 15.927 C 11.038 15.624,12.690 14.748,13.930 13.362 C 15.030 12.133,15.665 10.775,15.927 9.094 C 16.009 8.571,16.009 7.429,15.927 6.906 C 15.705 5.481,15.199 4.257,14.393 3.195 C 13.070 1.452,11.180 0.355,9.000 0.066 C 8.688 0.025,7.760 -0.005,7.467 0.017 M9.040 1.078 C 11.831 1.511,14.104 3.571,14.781 6.281 C 14.942 6.924,14.973 7.204,14.973 8.000 C 14.973 8.555,14.962 8.775,14.924 9.027 C 14.474 11.939,12.308 14.238,9.437 14.850 C 8.548 15.040,7.452 15.040,6.563 14.850 C 3.952 14.294,1.876 12.308,1.227 9.747 C 1.059 9.083,1.027 8.807,1.027 8.000 C 1.027 7.193,1.059 6.917,1.227 6.253 C 1.847 3.807,3.806 1.848,6.253 1.227 C 6.473 1.171,6.797 1.106,6.973 1.083 C 7.149 1.059,7.329 1.035,7.373 1.029 C 7.574 1.002,8.774 1.037,9.040 1.078 M7.595 3.869 C 6.562 3.978,5.751 4.524,5.467 5.302 C 5.225 5.963,5.357 6.703,5.803 7.197 C 5.977 7.389,6.286 7.602,6.507 7.682 C 6.595 7.714,6.667 7.756,6.667 7.775 C 6.667 7.794,6.599 7.829,6.515 7.854 C 5.979 8.009,5.484 8.405,5.255 8.862 C 4.985 9.402,4.961 10.078,5.192 10.648 C 5.590 11.628,6.764 12.218,8.184 12.151 C 9.542 12.087,10.520 11.479,10.861 10.485 C 10.929 10.286,10.942 10.203,10.953 9.892 C 10.965 9.584,10.958 9.498,10.910 9.305 C 10.803 8.876,10.570 8.508,10.245 8.252 C 10.059 8.106,9.693 7.914,9.487 7.854 C 9.402 7.829,9.333 7.794,9.333 7.775 C 9.333 7.756,9.403 7.715,9.489 7.684 C 9.680 7.614,9.934 7.453,10.107 7.290 C 10.577 6.851,10.770 6.138,10.599 5.479 C 10.313 4.381,9.066 3.713,7.595 3.869 M8.439 4.921 C 9.229 5.127,9.600 5.930,9.241 6.657 C 9.083 6.977,8.766 7.215,8.373 7.309 C 8.124 7.369,7.754 7.352,7.510 7.269 C 6.884 7.057,6.576 6.576,6.645 5.913 C 6.692 5.456,7.061 5.059,7.565 4.920 C 7.747 4.870,8.246 4.871,8.439 4.921 M8.404 8.358 C 8.969 8.466,9.387 8.786,9.575 9.254 C 9.647 9.435,9.673 9.815,9.628 10.033 C 9.527 10.521,9.102 10.933,8.547 11.082 C 8.297 11.149,7.863 11.161,7.597 11.109 C 6.586 10.909,6.072 9.988,6.493 9.130 C 6.786 8.533,7.603 8.203,8.404 8.358 " stroke="none" fill-rule="evenodd"></path></svg>