<svg width="16" height="16" fill="currentColor" xmlns="http://www.w3.org/2000/svg"><path d="M7.467 0.017 C 5.118 0.192,3.024 1.327,1.608 3.193 C 0.799 4.260,0.296 5.477,0.073 6.906 C -0.009 7.429,-0.009 8.571,0.073 9.094 C 0.415 11.288,1.476 13.089,3.195 14.393 C 4.257 15.199,5.481 15.705,6.906 15.927 C 7.429 16.009,8.571 16.009,9.094 15.927 C 11.038 15.624,12.690 14.748,13.930 13.362 C 15.030 12.133,15.665 10.775,15.927 9.094 C 16.009 8.571,16.009 7.429,15.927 6.906 C 15.705 5.481,15.199 4.257,14.393 3.195 C 13.070 1.452,11.180 0.355,9.000 0.066 C 8.688 0.025,7.760 -0.005,7.467 0.017 M8.389 3.869 C 9.103 3.941,9.694 4.199,10.099 4.617 C 10.280 4.804,10.323 4.861,10.436 5.067 C 10.706 5.561,10.725 6.285,10.480 6.779 C 10.274 7.192,9.901 7.534,9.489 7.684 C 9.403 7.715,9.333 7.756,9.333 7.775 C 9.333 7.794,9.396 7.828,9.473 7.850 C 9.829 7.955,10.266 8.225,10.482 8.477 C 10.793 8.836,10.932 9.197,10.953 9.695 C 10.986 10.469,10.692 11.093,10.083 11.545 C 9.035 12.322,7.154 12.368,6.043 11.644 C 5.573 11.338,5.282 10.956,5.116 10.426 C 5.061 10.251,5.053 10.175,5.055 9.800 C 5.056 9.415,5.063 9.353,5.124 9.169 C 5.303 8.635,5.645 8.253,6.177 7.990 C 6.279 7.939,6.431 7.878,6.515 7.854 C 6.599 7.829,6.667 7.794,6.667 7.775 C 6.667 7.756,6.595 7.714,6.507 7.682 C 6.286 7.602,5.977 7.389,5.803 7.197 C 5.505 6.867,5.360 6.467,5.360 5.973 C 5.360 5.280,5.671 4.716,6.274 4.319 C 6.841 3.946,7.582 3.788,8.389 3.869 M7.562 4.921 C 6.928 5.095,6.539 5.665,6.637 6.277 C 6.740 6.913,7.271 7.337,7.973 7.342 C 8.422 7.346,8.757 7.221,9.029 6.949 C 9.703 6.273,9.381 5.166,8.439 4.921 C 8.245 4.870,7.746 4.870,7.562 4.921 M7.560 8.363 C 7.278 8.422,6.972 8.579,6.769 8.769 C 6.489 9.031,6.346 9.361,6.347 9.746 C 6.348 10.104,6.457 10.369,6.717 10.647 C 7.041 10.991,7.537 11.167,8.104 11.139 C 8.437 11.123,8.639 11.074,8.893 10.946 C 9.249 10.768,9.495 10.485,9.603 10.129 C 9.683 9.866,9.666 9.472,9.565 9.230 C 9.424 8.891,9.102 8.584,8.750 8.452 C 8.403 8.321,7.930 8.286,7.560 8.363 " stroke="none" fill-rule="evenodd"></path></svg>