<svg width="16" height="16" fill="currentColor" xmlns="http://www.w3.org/2000/svg"><path d="M1.669 0.028 C 0.992 0.142,0.371 0.651,0.135 1.283 C -0.006 1.659,0.001 1.324,0.000 7.994 C -0.000 14.784,-0.010 14.361,0.156 14.767 C 0.347 15.238,0.762 15.653,1.233 15.844 C 1.639 16.010,1.217 16.000,8.000 16.000 C 14.782 16.000,14.361 16.010,14.766 15.845 C 15.233 15.654,15.654 15.233,15.845 14.766 C 16.010 14.361,16.000 14.782,16.000 8.000 C 16.000 1.217,16.010 1.639,15.844 1.233 C 15.666 0.795,15.309 0.422,14.864 0.208 C 14.422 -0.005,15.102 0.015,8.080 0.010 C 4.626 0.008,1.741 0.016,1.669 0.028 M8.389 3.869 C 9.103 3.941,9.694 4.199,10.099 4.617 C 10.280 4.804,10.323 4.861,10.436 5.067 C 10.706 5.561,10.725 6.285,10.480 6.779 C 10.274 7.192,9.901 7.534,9.489 7.684 C 9.403 7.715,9.333 7.756,9.333 7.775 C 9.333 7.794,9.401 7.829,9.485 7.854 C 9.688 7.913,10.004 8.074,10.202 8.221 C 10.507 8.445,10.751 8.788,10.871 9.159 C 10.964 9.451,10.986 9.920,10.921 10.242 C 10.696 11.359,9.660 12.081,8.184 12.151 C 6.832 12.215,5.711 11.692,5.259 10.786 C 5.090 10.448,5.053 10.270,5.055 9.800 C 5.056 9.415,5.063 9.353,5.124 9.169 C 5.303 8.635,5.645 8.253,6.177 7.990 C 6.279 7.939,6.431 7.878,6.515 7.854 C 6.599 7.829,6.667 7.794,6.667 7.775 C 6.667 7.756,6.595 7.714,6.507 7.682 C 6.286 7.602,5.977 7.389,5.803 7.197 C 5.505 6.867,5.360 6.467,5.360 5.973 C 5.360 5.280,5.671 4.716,6.274 4.319 C 6.841 3.946,7.582 3.788,8.389 3.869 M7.562 4.921 C 6.924 5.096,6.535 5.671,6.639 6.286 C 6.746 6.920,7.272 7.337,7.973 7.342 C 8.422 7.346,8.757 7.221,9.029 6.949 C 9.703 6.273,9.381 5.166,8.439 4.921 C 8.245 4.870,7.746 4.870,7.562 4.921 M7.560 8.363 C 7.278 8.422,6.972 8.579,6.769 8.769 C 6.489 9.031,6.346 9.361,6.347 9.746 C 6.348 10.104,6.457 10.369,6.717 10.647 C 7.041 10.991,7.537 11.167,8.104 11.139 C 8.437 11.123,8.639 11.074,8.893 10.946 C 9.249 10.768,9.495 10.485,9.603 10.129 C 9.683 9.866,9.666 9.472,9.565 9.230 C 9.424 8.891,9.102 8.584,8.750 8.452 C 8.403 8.321,7.930 8.286,7.560 8.363 " stroke="none" fill-rule="evenodd"></path></svg>