<svg width="16" height="16" fill="currentColor" xmlns="http://www.w3.org/2000/svg"><path d="M7.467 0.017 C 5.118 0.192,3.024 1.327,1.608 3.193 C 0.799 4.260,0.296 5.477,0.073 6.906 C -0.009 7.429,-0.009 8.571,0.073 9.094 C 0.415 11.288,1.476 13.089,3.195 14.393 C 4.257 15.199,5.481 15.705,6.906 15.927 C 7.429 16.009,8.571 16.009,9.094 15.927 C 11.038 15.624,12.690 14.748,13.930 13.362 C 15.030 12.133,15.665 10.775,15.927 9.094 C 16.009 8.571,16.009 7.429,15.927 6.906 C 15.705 5.481,15.199 4.257,14.393 3.195 C 13.070 1.452,11.180 0.355,9.000 0.066 C 8.688 0.025,7.760 -0.005,7.467 0.017 M8.640 3.904 C 9.678 4.143,10.365 4.854,10.680 6.013 C 10.906 6.841,10.959 8.117,10.812 9.147 C 10.527 11.140,9.506 12.145,7.773 12.138 C 6.913 12.135,6.272 11.905,5.798 11.429 C 5.508 11.139,5.335 10.814,5.270 10.433 L 5.255 10.347 5.902 10.347 L 6.550 10.347 6.599 10.459 C 6.848 11.023,7.862 11.246,8.564 10.891 C 8.782 10.782,9.112 10.433,9.246 10.173 C 9.468 9.742,9.584 9.265,9.625 8.615 C 9.662 8.032,9.625 7.917,9.489 8.193 C 9.320 8.536,9.024 8.828,8.664 9.005 C 8.151 9.258,7.405 9.296,6.787 9.101 C 6.402 8.980,6.129 8.820,5.844 8.548 C 5.335 8.064,5.066 7.382,5.067 6.577 C 5.067 5.091,5.972 4.072,7.480 3.856 C 7.652 3.831,8.472 3.865,8.640 3.904 M7.472 4.961 C 7.201 5.032,7.029 5.130,6.824 5.333 C 6.630 5.525,6.520 5.714,6.423 6.028 C 6.335 6.315,6.334 6.809,6.423 7.093 C 6.514 7.387,6.626 7.578,6.811 7.755 C 7.100 8.033,7.448 8.165,7.893 8.166 C 8.356 8.167,8.733 8.016,9.011 7.718 C 9.299 7.410,9.424 7.060,9.423 6.560 C 9.422 6.033,9.276 5.647,8.961 5.333 C 8.590 4.965,8.009 4.820,7.472 4.961 " stroke="none" fill-rule="evenodd"></path></svg>