<svg width="16" height="16" fill="currentColor" xmlns="http://www.w3.org/2000/svg"><path d="M1.669 0.028 C 0.992 0.142,0.371 0.651,0.135 1.283 C -0.006 1.659,0.001 1.324,0.000 7.994 C -0.000 14.784,-0.010 14.361,0.156 14.767 C 0.347 15.238,0.762 15.653,1.233 15.844 C 1.639 16.010,1.217 16.000,8.000 16.000 C 14.782 16.000,14.361 16.010,14.766 15.845 C 15.233 15.654,15.654 15.233,15.845 14.766 C 16.010 14.361,16.000 14.782,16.000 8.000 C 16.000 1.217,16.010 1.639,15.844 1.233 C 15.666 0.795,15.309 0.422,14.864 0.208 C 14.422 -0.005,15.102 0.015,8.080 0.010 C 4.626 0.008,1.741 0.016,1.669 0.028 M8.640 3.904 C 9.834 4.179,10.541 5.052,10.799 6.569 C 10.959 7.508,10.915 8.847,10.693 9.747 C 10.298 11.350,9.328 12.144,7.773 12.138 C 6.913 12.135,6.272 11.905,5.798 11.429 C 5.509 11.140,5.324 10.794,5.272 10.447 L 5.257 10.347 5.903 10.347 L 6.550 10.347 6.599 10.459 C 6.848 11.023,7.862 11.246,8.564 10.891 C 8.782 10.782,9.112 10.433,9.246 10.173 C 9.468 9.742,9.584 9.265,9.625 8.615 C 9.662 8.032,9.625 7.917,9.489 8.193 C 9.320 8.536,9.024 8.828,8.664 9.005 C 8.151 9.258,7.405 9.296,6.787 9.101 C 6.402 8.980,6.129 8.820,5.844 8.548 C 5.333 8.063,5.066 7.385,5.067 6.577 C 5.067 5.091,5.972 4.072,7.480 3.856 C 7.652 3.831,8.472 3.865,8.640 3.904 M7.472 4.961 C 7.201 5.032,7.029 5.130,6.824 5.333 C 6.630 5.525,6.520 5.714,6.423 6.028 C 6.335 6.315,6.334 6.809,6.423 7.093 C 6.514 7.387,6.626 7.578,6.811 7.755 C 7.100 8.033,7.448 8.165,7.893 8.166 C 8.356 8.167,8.733 8.016,9.011 7.718 C 9.299 7.410,9.424 7.060,9.423 6.560 C 9.422 6.033,9.276 5.647,8.961 5.333 C 8.590 4.965,8.009 4.820,7.472 4.961 " stroke="none" fill-rule="evenodd"></path></svg>