<svg width="16" height="16" fill="currentColor" xmlns="http://www.w3.org/2000/svg"><path d="M6.306 0.050 C 5.975 0.201,5.901 0.609,6.161 0.857 C 6.284 0.974,6.434 1.013,6.761 1.013 L 6.987 1.013 6.987 1.542 L 6.987 2.070 6.633 2.140 C 5.248 2.416,4.066 3.051,3.052 4.065 C 1.995 5.122,1.345 6.383,1.095 7.858 C 0.804 9.583,1.192 11.397,2.168 12.867 C 2.520 13.398,3.070 14.012,3.504 14.360 C 3.613 14.448,3.704 14.532,3.705 14.547 C 3.706 14.562,3.561 14.718,3.384 14.894 C 3.206 15.070,3.044 15.252,3.024 15.299 C 2.895 15.596,3.103 15.957,3.423 15.993 C 3.640 16.017,3.714 15.971,4.164 15.528 L 4.580 15.116 4.850 15.252 C 5.516 15.586,6.229 15.811,7.030 15.939 C 7.440 16.005,8.560 16.005,8.970 15.939 C 9.771 15.811,10.484 15.586,11.150 15.252 L 11.420 15.116 11.836 15.528 C 12.286 15.971,12.360 16.017,12.577 15.993 C 12.897 15.957,13.105 15.596,12.976 15.299 C 12.956 15.252,12.794 15.070,12.616 14.894 C 12.439 14.718,12.294 14.562,12.295 14.547 C 12.296 14.532,12.387 14.448,12.497 14.360 C 12.606 14.272,12.844 14.049,13.024 13.864 C 14.070 12.789,14.705 11.487,14.936 9.947 C 15.002 9.500,15.016 8.635,14.963 8.227 C 14.791 6.908,14.349 5.804,13.580 4.775 C 13.273 4.365,12.636 3.730,12.221 3.419 C 11.344 2.764,10.418 2.349,9.367 2.140 L 9.013 2.070 9.013 1.542 L 9.013 1.013 9.239 1.013 C 9.566 1.013,9.716 0.974,9.839 0.857 C 10.099 0.609,10.025 0.201,9.694 0.050 C 9.594 0.005,9.478 0.001,8.000 0.001 C 6.522 0.001,6.406 0.005,6.306 0.050 M2.003 1.055 C 1.314 1.204,0.709 1.630,0.363 2.208 C 0.213 2.459,0.069 2.858,0.024 3.147 C -0.016 3.407,0.009 3.848,0.079 4.120 C 0.183 4.523,0.434 4.965,0.725 5.256 L 0.860 5.391 0.972 5.182 C 1.664 3.891,2.789 2.753,4.102 2.016 C 4.368 1.867,4.373 1.862,4.333 1.805 C 4.268 1.712,4.017 1.508,3.807 1.377 C 3.566 1.227,3.276 1.110,3.008 1.055 C 2.755 1.004,2.239 1.003,2.003 1.055 M12.973 1.056 C 12.717 1.113,12.424 1.233,12.193 1.377 C 11.983 1.508,11.732 1.712,11.667 1.805 C 11.627 1.862,11.632 1.867,11.898 2.016 C 13.211 2.753,14.336 3.891,15.028 5.182 L 15.140 5.391 15.280 5.249 C 16.231 4.283,16.232 2.716,15.282 1.758 C 14.961 1.435,14.623 1.232,14.195 1.103 C 13.996 1.044,13.898 1.032,13.560 1.024 C 13.267 1.017,13.110 1.026,12.973 1.056 M8.246 5.073 C 8.309 5.108,8.381 5.182,8.423 5.253 L 8.493 5.373 8.501 7.160 C 8.506 8.143,8.502 8.998,8.493 9.060 C 8.481 9.144,8.277 9.506,7.689 10.486 C 7.256 11.209,6.882 11.823,6.858 11.850 C 6.792 11.925,6.614 11.999,6.499 11.999 C 6.206 12.001,5.962 11.713,6.009 11.422 C 6.019 11.360,6.294 10.876,6.752 10.110 L 7.480 8.897 7.493 7.135 L 7.507 5.373 7.573 5.258 C 7.706 5.025,8.011 4.941,8.246 5.073 " stroke="none" fill-rule="evenodd"></path></svg>