<svg width="16" height="16" fill="currentColor" xmlns="http://www.w3.org/2000/svg"><path d="M7.493 0.015 C 7.442 0.021,7.268 0.039,7.107 0.055 C 4.974 0.269,2.939 1.431,1.603 3.200 C 0.510 4.648,-0.046 6.399,0.009 8.224 C 0.029 8.904,0.086 9.331,0.241 9.947 C 0.990 12.937,3.391 15.226,6.425 15.841 C 6.639 15.884,6.841 15.920,6.875 15.920 L 6.936 15.920 6.927 14.993 C 6.919 14.149,6.914 14.055,6.866 13.939 C 6.751 13.655,6.536 13.448,6.224 13.321 C 5.639 13.082,5.424 12.982,5.166 12.828 C 4.058 12.168,3.224 11.181,2.764 9.987 C 2.344 8.897,2.290 7.521,2.624 6.411 C 3.290 4.192,5.189 2.639,7.497 2.425 C 9.851 2.207,12.132 3.545,13.098 5.709 C 13.432 6.458,13.577 7.142,13.580 7.987 C 13.585 9.594,12.966 11.058,11.651 12.548 C 10.588 13.751,8.917 14.971,7.160 15.826 L 6.947 15.930 7.093 15.950 C 7.402 15.994,8.306 16.008,8.655 15.975 C 10.263 15.825,11.741 15.236,12.987 14.250 C 13.278 14.019,14.018 13.280,14.250 12.987 C 14.714 12.403,15.235 11.483,15.476 10.827 C 15.835 9.849,15.983 9.026,15.982 8.013 C 15.982 6.691,15.734 5.632,15.147 4.440 C 14.746 3.626,14.318 3.034,13.642 2.357 C 13.004 1.718,12.429 1.295,11.668 0.904 C 10.763 0.438,9.977 0.193,8.973 0.065 C 8.666 0.026,7.687 -0.007,7.493 0.015 " stroke="none" fill-rule="evenodd"></path></svg>