<svg width="16" height="16" fill="currentColor" xmlns="http://www.w3.org/2000/svg"><path d="M6.637 1.076 C 6.370 1.186,6.197 1.352,6.075 1.614 L 6.013 1.747 6.013 7.000 L 6.013 12.253 6.083 12.400 C 6.229 12.707,6.510 12.924,6.838 12.984 C 7.050 13.023,8.950 13.023,9.162 12.984 C 9.490 12.924,9.771 12.707,9.917 12.400 L 9.987 12.253 9.987 7.000 L 9.987 1.747 9.917 1.600 C 9.814 1.382,9.652 1.216,9.446 1.114 L 9.268 1.027 8.027 1.020 L 6.787 1.014 6.637 1.076 M1.290 14.051 C 1.039 14.165,0.930 14.492,1.061 14.737 C 1.106 14.819,1.270 14.956,1.354 14.980 C 1.449 15.006,14.551 15.006,14.646 14.980 C 14.730 14.956,14.894 14.819,14.939 14.737 C 15.070 14.492,14.961 14.165,14.710 14.051 C 14.604 14.003,14.389 14.001,8.000 14.001 C 1.611 14.001,1.396 14.003,1.290 14.051 " stroke="none" fill-rule="evenodd"></path></svg>