<svg width="16" height="16" fill="currentColor" xmlns="http://www.w3.org/2000/svg"><path d="M14.280 1.058 C 14.156 1.123,14.103 1.177,14.050 1.293 C 14.003 1.396,14.001 1.652,14.001 8.000 C 14.001 14.389,14.003 14.604,14.051 14.710 C 14.165 14.961,14.492 15.070,14.737 14.939 C 14.819 14.894,14.956 14.730,14.980 14.646 C 15.006 14.551,15.006 1.449,14.980 1.354 C 14.951 1.253,14.805 1.093,14.701 1.049 C 14.586 1.001,14.379 1.005,14.280 1.058 M1.734 6.043 C 1.363 6.142,1.088 6.447,1.016 6.839 C 0.977 7.050,0.977 8.950,1.016 9.162 C 1.076 9.490,1.293 9.771,1.600 9.917 L 1.747 9.987 7.000 9.987 L 12.253 9.987 12.400 9.917 C 12.707 9.771,12.924 9.490,12.984 9.162 C 13.023 8.950,13.023 7.050,12.984 6.839 C 12.931 6.552,12.775 6.315,12.539 6.164 C 12.268 5.990,12.616 6.000,6.988 6.002 C 2.583 6.003,1.860 6.009,1.734 6.043 " stroke="none" fill-rule="evenodd"></path></svg>