<svg width="16" height="16" fill="currentColor" xmlns="http://www.w3.org/2000/svg"><path d="M7.730 1.090 C 7.492 1.241,7.508 1.059,7.500 3.686 L 7.492 5.999 5.126 6.006 L 2.760 6.013 2.587 6.097 C 2.366 6.203,2.201 6.367,2.096 6.587 L 2.013 6.760 2.013 8.000 L 2.013 9.240 2.088 9.400 C 2.186 9.610,2.391 9.816,2.597 9.911 L 2.760 9.987 5.126 9.994 L 7.492 10.001 7.500 12.314 C 7.507 14.601,7.507 14.628,7.562 14.733 C 7.642 14.885,7.824 14.993,8.000 14.993 C 8.176 14.993,8.358 14.885,8.438 14.733 C 8.493 14.628,8.493 14.601,8.500 12.314 L 8.508 10.001 10.874 9.994 L 13.240 9.987 13.403 9.911 C 13.609 9.816,13.814 9.610,13.912 9.400 L 13.987 9.240 13.987 8.000 L 13.987 6.760 13.911 6.597 C 13.816 6.391,13.610 6.186,13.400 6.088 L 13.240 6.013 10.874 6.006 L 8.508 5.999 8.500 3.686 C 8.494 1.464,8.491 1.369,8.442 1.270 C 8.319 1.022,7.974 0.935,7.730 1.090 " stroke="none" fill-rule="evenodd"></path></svg>