<svg width="16" height="16" fill="currentColor" xmlns="http://www.w3.org/2000/svg"><path d="M1.266 1.063 C 1.161 1.127,1.046 1.264,1.020 1.355 C 0.994 1.449,0.994 14.552,1.020 14.646 C 1.044 14.730,1.181 14.894,1.263 14.939 C 1.508 15.070,1.835 14.961,1.949 14.710 C 1.997 14.604,1.999 14.389,1.999 8.006 C 2.000 0.901,2.008 1.315,1.872 1.165 C 1.739 1.017,1.427 0.965,1.266 1.063 M3.734 6.043 C 3.363 6.142,3.088 6.447,3.016 6.839 C 2.977 7.050,2.977 8.950,3.016 9.162 C 3.076 9.490,3.293 9.771,3.600 9.917 L 3.747 9.987 9.000 9.987 L 14.253 9.987 14.400 9.917 C 14.707 9.771,14.924 9.490,14.984 9.162 C 15.023 8.950,15.023 7.050,14.984 6.839 C 14.931 6.552,14.775 6.315,14.539 6.164 C 14.268 5.990,14.616 6.000,8.988 6.002 C 4.583 6.003,3.860 6.009,3.734 6.043 " stroke="none" fill-rule="evenodd"></path></svg>