<svg width="16" height="16" fill="currentColor" xmlns="http://www.w3.org/2000/svg"><path d="M2.160 0.031 C 2.065 0.044,1.870 0.095,1.726 0.144 C 0.874 0.435,0.238 1.165,0.050 2.067 C 0.003 2.297,0.001 2.545,0.001 8.000 C 0.001 13.455,0.003 13.703,0.050 13.933 C 0.152 14.425,0.372 14.849,0.703 15.195 C 1.116 15.627,1.602 15.882,2.187 15.972 C 2.335 15.995,3.873 16.001,8.147 15.995 L 13.907 15.987 14.120 15.926 C 14.430 15.837,14.887 15.602,15.113 15.413 C 15.473 15.114,15.741 14.726,15.898 14.277 C 15.971 14.069,15.983 13.996,15.993 13.680 L 16.005 13.320 15.103 12.949 C 13.093 12.124,11.340 11.372,10.247 10.866 L 9.653 10.592 9.443 10.836 C 8.748 11.642,7.912 12.315,7.084 12.737 C 6.241 13.166,5.453 13.364,4.573 13.367 C 3.952 13.369,3.447 13.277,2.945 13.070 C 1.698 12.556,1.001 11.362,1.216 10.105 C 1.344 9.360,1.795 8.646,2.382 8.257 C 2.737 8.023,3.233 7.820,3.707 7.716 C 4.022 7.647,5.067 7.647,5.533 7.715 C 6.381 7.839,7.301 8.060,8.450 8.415 C 8.807 8.526,9.103 8.612,9.107 8.608 C 9.136 8.575,9.388 8.043,9.516 7.742 C 9.671 7.379,9.922 6.683,9.959 6.513 L 9.978 6.427 6.882 6.427 L 3.787 6.427 3.787 6.107 L 3.787 5.787 5.387 5.787 L 6.987 5.787 6.987 5.213 L 6.987 4.640 5.053 4.640 L 3.120 4.640 3.120 4.333 L 3.120 4.027 5.052 4.027 L 6.985 4.027 6.992 3.144 L 7.000 2.262 7.075 2.198 L 7.150 2.133 7.988 2.133 L 8.827 2.133 8.827 3.080 L 8.827 4.027 10.733 4.027 L 12.640 4.027 12.640 4.333 L 12.640 4.640 10.733 4.640 L 8.827 4.640 8.827 5.213 L 8.827 5.787 10.388 5.787 C 11.863 5.787,11.950 5.789,11.937 5.833 C 11.930 5.859,11.886 6.022,11.841 6.195 C 11.642 6.955,11.340 7.740,10.929 8.566 C 10.768 8.888,10.640 9.156,10.645 9.160 C 10.655 9.170,12.292 9.775,12.747 9.937 C 13.461 10.192,15.784 10.853,15.963 10.853 C 15.994 10.853,16.000 10.201,16.000 6.475 C 16.000 1.659,16.011 1.989,15.839 1.567 C 15.670 1.150,15.308 0.704,14.937 0.454 C 14.703 0.297,14.371 0.146,14.104 0.074 L 13.880 0.014 8.107 0.010 C 4.687 0.008,2.263 0.016,2.160 0.031 M3.827 8.694 C 3.386 8.745,2.861 8.917,2.515 9.125 C 2.311 9.247,2.003 9.581,1.901 9.790 C 1.674 10.253,1.677 10.692,1.910 11.170 C 2.037 11.429,2.356 11.751,2.650 11.918 C 2.911 12.065,3.296 12.197,3.630 12.252 C 3.928 12.302,4.522 12.309,4.790 12.266 C 5.546 12.147,6.301 11.792,7.000 11.230 C 7.454 10.865,8.308 9.951,8.250 9.892 C 8.210 9.853,7.250 9.409,6.867 9.254 C 6.209 8.986,5.617 8.812,5.097 8.732 C 4.774 8.682,4.107 8.662,3.827 8.694 " stroke="none" fill-rule="evenodd"></path></svg>