<svg width="16" height="16" fill="currentColor" xmlns="http://www.w3.org/2000/svg"><path d="M12.827 3.028 C 12.775 3.051,12.700 3.102,12.659 3.141 C 12.618 3.180,12.302 3.730,11.957 4.364 C 11.612 4.997,11.315 5.536,11.296 5.561 C 11.265 5.603,11.241 5.599,10.958 5.500 C 10.415 5.309,9.811 5.165,9.173 5.075 C 8.697 5.008,7.303 5.008,6.827 5.075 C 6.190 5.165,5.585 5.309,5.044 5.499 C 4.863 5.563,4.731 5.595,4.717 5.581 C 4.704 5.568,4.402 5.025,4.046 4.374 C 3.312 3.032,3.315 3.036,3.032 3.020 C 2.837 3.008,2.725 3.058,2.602 3.210 C 2.537 3.291,2.521 3.339,2.513 3.474 L 2.503 3.640 3.157 4.839 C 3.517 5.498,3.809 6.039,3.806 6.040 C 3.803 6.042,3.728 6.084,3.640 6.132 C 3.552 6.181,3.345 6.309,3.181 6.417 C 1.386 7.599,0.237 9.411,0.027 11.392 C 0.012 11.535,-0.000 11.730,-0.000 11.826 L 0.000 12.000 8.004 12.000 L 16.008 12.000 15.991 11.673 C 15.923 10.364,15.399 9.029,14.533 7.957 C 14.286 7.652,13.710 7.083,13.392 6.831 C 13.096 6.597,12.621 6.276,12.354 6.131 C 12.262 6.081,12.190 6.033,12.194 6.025 C 12.197 6.016,12.492 5.473,12.850 4.818 C 13.451 3.715,13.499 3.617,13.499 3.494 C 13.499 3.325,13.426 3.182,13.291 3.086 C 13.159 2.993,12.960 2.968,12.827 3.028 M5.406 8.093 C 5.610 8.185,5.817 8.392,5.911 8.597 C 5.975 8.737,5.985 8.794,5.986 9.000 C 5.986 9.207,5.976 9.262,5.912 9.400 C 5.814 9.610,5.609 9.816,5.403 9.911 C 5.262 9.976,5.207 9.987,5.000 9.987 C 4.793 9.987,4.738 9.976,4.600 9.912 C 4.389 9.814,4.184 9.609,4.089 9.403 C 4.025 9.263,4.015 9.206,4.014 9.000 C 4.014 8.793,4.024 8.738,4.088 8.600 C 4.216 8.326,4.485 8.098,4.767 8.027 C 4.938 7.984,5.235 8.014,5.406 8.093 M11.406 8.093 C 11.610 8.185,11.817 8.392,11.911 8.597 C 11.975 8.737,11.985 8.794,11.986 9.000 C 11.986 9.207,11.976 9.262,11.912 9.400 C 11.814 9.610,11.609 9.816,11.403 9.911 C 11.262 9.976,11.207 9.987,11.000 9.987 C 10.793 9.987,10.738 9.976,10.600 9.912 C 10.389 9.814,10.184 9.609,10.089 9.403 C 10.025 9.263,10.015 9.206,10.014 9.000 C 10.014 8.793,10.024 8.738,10.088 8.600 C 10.216 8.326,10.485 8.098,10.767 8.027 C 10.938 7.984,11.235 8.014,11.406 8.093 " stroke="none" fill-rule="evenodd"></path></svg>