<svg width="16" height="16" fill="currentColor" xmlns="http://www.w3.org/2000/svg"><path d="M12.528 0.041 C 11.919 0.136,11.337 0.432,10.896 0.870 C 9.708 2.050,9.702 3.937,10.883 5.117 C 12.057 6.292,13.943 6.292,15.117 5.117 C 16.567 3.668,16.165 1.230,14.326 0.309 C 13.807 0.049,13.127 -0.052,12.528 0.041 M4.825 1.054 C 4.345 1.129,3.935 1.259,3.507 1.472 C 2.068 2.188,1.138 3.571,1.013 5.182 C 0.999 5.360,0.988 6.629,0.988 8.000 C 0.988 9.371,0.999 10.640,1.013 10.818 C 1.123 12.227,1.839 13.455,3.009 14.243 C 3.647 14.672,4.386 14.925,5.182 14.987 C 5.605 15.020,10.395 15.020,10.818 14.987 C 12.642 14.845,14.188 13.649,14.760 11.938 C 14.984 11.268,15.020 10.867,15.008 9.133 L 15.000 7.880 14.929 7.760 C 14.767 7.484,14.398 7.425,14.164 7.637 C 14.009 7.777,14.015 7.719,13.998 9.413 C 13.983 10.858,13.978 10.991,13.927 11.213 C 13.589 12.698,12.428 13.774,10.951 13.972 C 10.666 14.010,5.334 14.010,5.049 13.972 C 3.551 13.771,2.367 12.653,2.061 11.152 C 2.017 10.938,2.013 10.688,2.013 8.000 C 2.013 4.795,2.007 4.925,2.176 4.408 C 2.507 3.391,3.362 2.527,4.373 2.186 C 4.857 2.023,4.896 2.019,6.587 2.002 C 8.306 1.985,8.231 1.993,8.381 1.815 C 8.575 1.584,8.524 1.251,8.270 1.090 L 8.150 1.013 6.601 1.016 C 5.453 1.018,4.994 1.028,4.825 1.054 " stroke="none" fill-rule="evenodd"></path></svg>