<svg width="16" height="16" fill="currentColor" xmlns="http://www.w3.org/2000/svg"><path d="M7.467 0.017 C 5.118 0.192,3.024 1.327,1.608 3.193 C 0.799 4.260,0.296 5.477,0.073 6.906 C -0.009 7.429,-0.009 8.571,0.073 9.094 C 0.415 11.288,1.476 13.089,3.195 14.393 C 4.257 15.199,5.481 15.705,6.906 15.927 C 7.429 16.009,8.571 16.009,9.094 15.927 C 11.038 15.624,12.690 14.748,13.930 13.362 C 15.030 12.133,15.665 10.775,15.927 9.094 C 16.009 8.571,16.009 7.429,15.927 6.906 C 15.705 5.481,15.199 4.257,14.393 3.195 C 13.070 1.452,11.180 0.355,9.000 0.066 C 8.688 0.025,7.760 -0.005,7.467 0.017 M8.181 4.041 C 8.304 4.092,11.364 7.137,11.442 7.286 C 11.594 7.578,11.388 7.956,11.057 7.993 C 10.813 8.020,10.816 8.022,9.621 6.831 L 8.508 5.723 8.501 8.681 C 8.494 11.376,8.489 11.647,8.449 11.720 C 8.360 11.881,8.170 12.000,8.000 12.000 C 7.830 12.000,7.640 11.881,7.551 11.720 C 7.511 11.647,7.506 11.376,7.499 8.681 L 7.492 5.723 6.379 6.831 C 5.184 8.022,5.187 8.020,4.943 7.993 C 4.612 7.956,4.406 7.578,4.558 7.286 C 4.631 7.146,7.695 4.093,7.813 4.042 C 7.934 3.990,8.057 3.990,8.181 4.041 " stroke="none" fill-rule="evenodd"></path></svg>