<svg width="16" height="16" fill="currentColor" xmlns="http://www.w3.org/2000/svg"><path d="M7.613 2.018 C 6.380 2.117,5.346 2.500,4.409 3.202 C 3.953 3.543,3.374 4.118,3.290 4.312 C 3.159 4.618,3.373 4.975,3.706 5.007 C 3.902 5.026,4.031 4.951,4.264 4.683 C 4.665 4.222,5.182 3.828,5.773 3.536 C 6.588 3.132,7.244 2.992,8.183 3.021 C 8.568 3.033,8.753 3.052,9.002 3.104 C 10.779 3.478,12.205 4.757,12.758 6.475 C 12.811 6.641,12.862 6.830,12.871 6.895 L 12.887 7.013 12.167 7.013 C 11.486 7.013,11.444 7.016,11.379 7.067 C 11.299 7.130,11.267 7.244,11.303 7.335 C 11.340 7.429,13.264 9.735,13.367 9.809 C 13.458 9.874,13.567 9.873,13.649 9.807 C 13.672 9.788,14.144 9.229,14.698 8.564 C 15.649 7.423,15.707 7.348,15.707 7.249 C 15.707 7.173,15.688 7.126,15.641 7.079 L 15.576 7.013 14.750 7.013 L 13.924 7.013 13.894 6.860 C 13.844 6.600,13.690 6.079,13.586 5.813 C 12.824 3.870,11.077 2.446,9.024 2.096 C 8.573 2.019,7.994 1.987,7.613 2.018 M2.400 6.167 C 2.363 6.185,1.874 6.751,1.313 7.423 C 0.379 8.543,0.293 8.654,0.293 8.744 C 0.293 8.873,0.352 8.952,0.474 8.985 C 0.532 9.001,0.890 9.013,1.326 9.013 L 2.079 9.013 2.092 9.073 C 2.236 9.729,2.371 10.132,2.613 10.627 C 2.916 11.246,3.269 11.744,3.747 12.225 C 5.996 14.489,9.619 14.593,12.006 12.462 C 12.279 12.218,12.664 11.794,12.710 11.688 C 12.800 11.477,12.716 11.198,12.525 11.072 C 12.438 11.014,12.387 11.000,12.255 11.000 C 12.047 11.000,11.964 11.052,11.720 11.333 C 11.333 11.777,10.817 12.171,10.253 12.452 C 9.413 12.871,8.585 13.042,7.673 12.983 C 5.855 12.866,4.265 11.781,3.478 10.120 C 3.337 9.822,3.162 9.322,3.131 9.124 L 3.114 9.016 3.835 9.008 C 4.552 9.000,4.556 9.000,4.623 8.937 C 4.703 8.862,4.732 8.754,4.697 8.665 C 4.668 8.591,2.749 6.277,2.659 6.208 C 2.575 6.143,2.477 6.127,2.400 6.167 " stroke="none" fill-rule="evenodd"></path></svg>