<svg width="16" height="16" fill="currentColor" xmlns="http://www.w3.org/2000/svg"><path d="M6.000 1.054 C 5.366 1.184,4.792 1.567,4.430 2.102 C 4.284 2.317,4.182 2.537,4.088 2.840 L 4.013 3.080 4.000 8.180 L 3.987 13.280 2.400 11.691 C 1.327 10.616,0.779 10.085,0.707 10.051 C 0.561 9.983,0.435 9.988,0.279 10.066 C 0.120 10.146,0.025 10.276,0.007 10.440 C -0.022 10.693,-0.084 10.623,2.166 12.871 C 4.190 14.892,4.257 14.956,4.381 14.981 C 4.513 15.008,4.633 14.993,4.747 14.934 C 4.831 14.892,8.804 10.928,8.896 10.795 C 8.934 10.741,8.975 10.653,8.987 10.599 C 9.015 10.472,8.961 10.260,8.877 10.169 C 8.794 10.078,8.623 10.001,8.507 10.001 C 8.287 10.001,8.243 10.040,6.593 11.688 L 5.013 13.266 5.014 8.266 C 5.014 3.966,5.019 3.246,5.053 3.120 C 5.194 2.590,5.652 2.151,6.180 2.039 C 6.332 2.007,7.009 2.001,10.480 2.000 C 14.446 1.999,14.604 1.997,14.710 1.949 C 14.960 1.836,15.070 1.507,14.940 1.266 C 14.896 1.186,14.769 1.073,14.685 1.042 C 14.564 0.996,6.226 1.008,6.000 1.054 " stroke="none" fill-rule="evenodd"></path></svg>