<svg width="16" height="16" fill="currentColor" xmlns="http://www.w3.org/2000/svg"><path d="M1.669 0.028 C 0.992 0.142,0.371 0.651,0.135 1.283 C -0.006 1.659,0.001 1.324,0.000 7.994 C -0.000 14.784,-0.010 14.361,0.156 14.767 C 0.347 15.238,0.762 15.653,1.233 15.844 C 1.639 16.010,1.217 16.000,8.000 16.000 C 14.782 16.000,14.361 16.010,14.766 15.845 C 15.233 15.654,15.654 15.233,15.845 14.766 C 16.010 14.361,16.000 14.782,16.000 8.000 C 16.000 1.217,16.010 1.639,15.844 1.233 C 15.666 0.795,15.309 0.422,14.864 0.208 C 14.422 -0.005,15.102 0.015,8.080 0.010 C 4.626 0.008,1.741 0.016,1.669 0.028 M10.685 5.042 C 10.787 5.080,10.906 5.195,10.950 5.299 C 10.980 5.370,10.987 5.762,10.987 7.494 C 10.987 9.540,10.985 9.605,10.934 9.705 C 10.760 10.045,10.299 10.062,10.079 9.736 L 10.013 9.640 10.000 8.180 L 9.987 6.720 7.933 8.775 C 6.790 9.919,5.836 10.853,5.781 10.882 C 5.657 10.946,5.457 10.949,5.335 10.887 C 5.285 10.861,5.208 10.795,5.164 10.740 C 5.056 10.605,5.035 10.380,5.115 10.225 C 5.148 10.162,5.996 9.294,7.225 8.067 L 9.280 6.013 7.818 6.000 L 6.356 5.987 6.263 5.923 C 5.934 5.698,5.957 5.242,6.307 5.058 C 6.378 5.020,6.626 5.015,8.498 5.014 C 9.928 5.014,10.634 5.022,10.685 5.042 " stroke="none" fill-rule="evenodd"></path></svg>