<svg width="16" height="16" fill="currentColor" xmlns="http://www.w3.org/2000/svg"><path d="M12.306 0.050 C 12.151 0.120,12.034 0.265,12.012 0.415 C 11.974 0.664,12.000 0.702,12.675 1.380 L 13.292 2.001 12.753 2.540 L 12.214 3.079 11.980 2.956 C 11.671 2.792,11.301 2.657,10.959 2.583 C 10.579 2.501,9.786 2.494,9.440 2.570 C 8.988 2.669,8.561 2.850,8.193 3.098 L 8.000 3.228 7.807 3.098 C 7.249 2.722,6.689 2.543,5.987 2.515 C 4.311 2.451,2.795 3.438,2.231 4.961 C 2.061 5.421,2.015 5.701,2.016 6.293 C 2.016 6.755,2.024 6.851,2.088 7.153 C 2.212 7.740,2.438 8.333,2.747 8.890 C 2.979 9.307,3.400 9.927,3.596 10.140 L 3.664 10.214 5.025 8.859 C 6.253 7.636,6.404 7.495,6.561 7.419 C 7.874 6.788,9.218 8.113,8.584 9.413 C 8.475 9.637,8.457 9.657,7.138 10.980 C 5.984 12.136,5.807 12.325,5.841 12.356 C 6.134 12.627,7.913 13.893,8.001 13.893 C 8.049 13.893,8.962 13.269,9.474 12.885 C 11.438 11.416,12.793 9.913,13.485 8.435 C 13.647 8.089,13.848 7.474,13.924 7.093 C 14.004 6.690,14.011 5.928,13.938 5.566 C 13.812 4.935,13.500 4.280,13.131 3.870 C 13.066 3.798,13.013 3.728,13.013 3.716 C 13.013 3.703,13.235 3.471,13.506 3.200 L 14.000 2.708 14.620 3.325 C 15.299 4.000,15.336 4.026,15.586 3.988 C 15.730 3.967,15.906 3.827,15.964 3.688 C 15.993 3.619,16.000 3.286,16.000 2.021 C 16.000 1.066,15.989 0.403,15.973 0.345 C 15.959 0.293,15.908 0.213,15.860 0.167 C 15.683 -0.005,15.736 -0.000,13.994 0.001 C 12.523 0.001,12.406 0.005,12.306 0.050 M7.120 8.273 C 7.007 8.296,6.906 8.391,5.400 9.894 L 3.800 11.491 2.827 11.499 C 1.973 11.506,1.843 11.512,1.773 11.552 C 1.634 11.630,0.086 13.203,0.041 13.312 C -0.038 13.504,-0.004 13.683,0.142 13.837 C 0.293 13.996,0.317 14.000,1.199 14.000 L 2.000 14.000 2.000 14.801 C 2.000 15.683,2.004 15.707,2.163 15.858 C 2.322 16.009,2.511 16.040,2.707 15.949 C 2.776 15.916,3.096 15.614,3.631 15.076 C 4.314 14.389,4.453 14.236,4.477 14.147 C 4.496 14.080,4.506 13.696,4.507 13.120 L 4.507 12.200 6.093 10.613 C 7.516 9.191,7.685 9.013,7.723 8.898 C 7.796 8.677,7.710 8.450,7.510 8.335 C 7.372 8.257,7.272 8.241,7.120 8.273 " stroke="none" fill-rule="evenodd"></path></svg>