<svg width="16" height="16" fill="currentColor" xmlns="http://www.w3.org/2000/svg"><path d="M1.669 0.028 C 0.992 0.142,0.371 0.651,0.135 1.283 C -0.006 1.659,0.001 1.324,0.000 7.994 C -0.000 14.784,-0.010 14.361,0.156 14.767 C 0.347 15.238,0.762 15.653,1.233 15.844 C 1.639 16.010,1.217 16.000,8.000 16.000 C 14.782 16.000,14.361 16.010,14.766 15.845 C 15.233 15.654,15.654 15.233,15.845 14.766 C 16.010 14.361,16.000 14.782,16.000 8.000 C 16.000 1.217,16.010 1.639,15.844 1.233 C 15.666 0.795,15.309 0.422,14.864 0.208 C 14.422 -0.005,15.102 0.015,8.080 0.010 C 4.626 0.008,1.741 0.016,1.669 0.028 M14.407 1.085 C 14.584 1.167,14.812 1.392,14.900 1.570 L 14.973 1.720 14.980 7.946 C 14.988 14.846,15.001 14.319,14.811 14.576 C 14.691 14.738,14.526 14.866,14.341 14.942 L 14.200 15.000 8.000 15.000 L 1.800 15.000 1.659 14.942 C 1.381 14.828,1.152 14.596,1.063 14.338 C 1.018 14.207,1.015 13.881,1.015 8.000 C 1.015 2.119,1.018 1.793,1.063 1.662 C 1.154 1.399,1.399 1.154,1.662 1.063 C 1.793 1.017,2.106 1.015,8.040 1.021 L 14.280 1.027 14.407 1.085 M5.293 5.044 C 5.207 5.092,5.092 5.207,5.044 5.293 C 5.004 5.366,4.999 5.570,4.993 7.399 C 4.987 8.810,4.994 9.467,5.015 9.567 C 5.107 10.012,5.663 10.116,5.922 9.738 L 5.987 9.644 6.000 8.182 L 6.013 6.720 8.080 8.789 C 9.491 10.202,10.180 10.875,10.253 10.909 C 10.509 11.029,10.805 10.907,10.919 10.634 C 10.967 10.517,10.970 10.451,10.931 10.307 C 10.906 10.215,10.614 9.911,8.806 8.101 L 6.709 6.002 8.176 5.994 L 9.644 5.987 9.738 5.922 C 10.062 5.700,10.045 5.239,9.705 5.066 C 9.605 5.015,9.540 5.013,7.474 5.014 C 5.974 5.015,5.331 5.024,5.293 5.044 " stroke="none" fill-rule="evenodd"></path></svg>