<svg width="16" height="16" fill="currentColor" xmlns="http://www.w3.org/2000/svg"><path d="M7.467 0.017 C 5.118 0.192,3.024 1.327,1.608 3.193 C 0.799 4.260,0.296 5.477,0.073 6.906 C -0.009 7.429,-0.009 8.571,0.073 9.094 C 0.415 11.288,1.476 13.089,3.195 14.393 C 4.257 15.199,5.481 15.705,6.906 15.927 C 7.429 16.009,8.571 16.009,9.094 15.927 C 11.038 15.624,12.690 14.748,13.930 13.362 C 15.030 12.133,15.665 10.775,15.927 9.094 C 16.009 8.571,16.009 7.429,15.927 6.906 C 15.705 5.481,15.199 4.257,14.393 3.195 C 13.070 1.452,11.180 0.355,9.000 0.066 C 8.688 0.025,7.760 -0.005,7.467 0.017 M9.040 1.078 C 11.831 1.511,14.104 3.571,14.781 6.281 C 14.942 6.924,14.973 7.204,14.973 8.000 C 14.973 8.555,14.962 8.775,14.924 9.027 C 14.474 11.939,12.308 14.238,9.437 14.850 C 8.548 15.040,7.452 15.040,6.563 14.850 C 3.952 14.294,1.876 12.308,1.227 9.747 C 1.059 9.083,1.027 8.807,1.027 8.000 C 1.027 7.193,1.059 6.917,1.227 6.253 C 1.847 3.807,3.806 1.848,6.253 1.227 C 6.473 1.171,6.797 1.106,6.973 1.083 C 7.149 1.059,7.329 1.035,7.373 1.029 C 7.574 1.002,8.774 1.037,9.040 1.078 M6.253 5.058 C 6.209 5.081,6.151 5.120,6.123 5.143 C 6.051 5.206,5.975 5.384,5.974 5.494 C 5.973 5.623,6.072 5.807,6.196 5.905 L 6.298 5.987 7.768 5.994 L 9.237 6.002 7.141 8.101 C 5.109 10.136,5.044 10.204,5.019 10.328 C 4.973 10.553,5.063 10.771,5.245 10.871 C 5.395 10.954,5.491 10.966,5.639 10.922 C 5.763 10.884,5.912 10.742,7.859 8.794 L 9.947 6.707 9.947 8.133 C 9.948 9.465,9.951 9.567,9.997 9.667 C 10.123 9.938,10.392 10.043,10.654 9.923 C 10.801 9.856,10.897 9.734,10.933 9.567 C 10.955 9.467,10.961 8.843,10.955 7.400 L 10.947 5.373 10.880 5.257 C 10.842 5.190,10.768 5.115,10.705 5.077 L 10.595 5.013 8.464 5.014 C 6.572 5.015,6.324 5.020,6.253 5.058 " stroke="none" fill-rule="evenodd"></path></svg>