<svg width="16" height="16" fill="currentColor" xmlns="http://www.w3.org/2000/svg"><path d="M1.669 0.028 C 0.992 0.142,0.371 0.651,0.135 1.283 C -0.006 1.659,0.001 1.324,0.000 7.994 C -0.000 14.784,-0.010 14.361,0.156 14.767 C 0.347 15.238,0.762 15.653,1.233 15.844 C 1.639 16.010,1.217 16.000,8.000 16.000 C 14.782 16.000,14.361 16.010,14.766 15.845 C 15.233 15.654,15.654 15.233,15.845 14.766 C 16.010 14.361,16.000 14.782,16.000 8.000 C 16.000 1.217,16.010 1.639,15.844 1.233 C 15.666 0.795,15.309 0.422,14.864 0.208 C 14.422 -0.005,15.102 0.015,8.080 0.010 C 4.626 0.008,1.741 0.016,1.669 0.028 M7.727 4.563 C 7.940 4.666,8.048 4.930,7.973 5.164 C 7.947 5.245,7.711 5.496,6.831 6.379 L 5.723 7.492 8.681 7.499 C 11.919 7.507,11.708 7.497,11.859 7.658 C 12.096 7.912,12.014 8.308,11.693 8.456 C 11.592 8.503,11.448 8.506,8.654 8.506 L 5.721 8.507 6.831 9.620 C 8.022 10.816,8.020 10.813,7.993 11.057 C 7.958 11.368,7.613 11.576,7.315 11.465 C 7.203 11.424,4.113 8.332,4.051 8.200 C 3.988 8.065,3.988 7.935,4.051 7.800 C 4.108 7.678,7.159 4.620,7.293 4.550 C 7.407 4.491,7.589 4.497,7.727 4.563 " stroke="none" fill-rule="evenodd"></path></svg>