<svg width="16" height="16" fill="currentColor" xmlns="http://www.w3.org/2000/svg"><path d="M7.467 0.017 C 5.118 0.192,3.024 1.327,1.608 3.193 C 0.799 4.260,0.296 5.477,0.073 6.906 C -0.009 7.429,-0.009 8.571,0.073 9.094 C 0.415 11.288,1.476 13.089,3.195 14.393 C 4.257 15.199,5.481 15.705,6.906 15.927 C 7.429 16.009,8.571 16.009,9.094 15.927 C 11.038 15.624,12.690 14.748,13.930 13.362 C 15.030 12.133,15.665 10.775,15.927 9.094 C 16.009 8.571,16.009 7.429,15.927 6.906 C 15.705 5.481,15.199 4.257,14.393 3.195 C 13.070 1.452,11.180 0.355,9.000 0.066 C 8.688 0.025,7.760 -0.005,7.467 0.017 M9.040 1.078 C 11.831 1.511,14.104 3.571,14.781 6.281 C 14.942 6.924,14.973 7.204,14.973 8.000 C 14.973 8.555,14.962 8.775,14.924 9.027 C 14.474 11.939,12.308 14.238,9.437 14.850 C 8.548 15.040,7.452 15.040,6.563 14.850 C 3.952 14.294,1.876 12.308,1.227 9.747 C 1.059 9.083,1.027 8.807,1.027 8.000 C 1.027 7.193,1.059 6.917,1.227 6.253 C 1.847 3.807,3.806 1.848,6.253 1.227 C 6.473 1.171,6.797 1.106,6.973 1.083 C 7.149 1.059,7.329 1.035,7.373 1.029 C 7.574 1.002,8.774 1.037,9.040 1.078 M10.227 5.057 C 10.183 5.080,9.214 6.030,8.074 7.168 L 6.002 9.238 5.994 7.768 L 5.987 6.298 5.905 6.196 C 5.860 6.139,5.770 6.066,5.705 6.031 C 5.478 5.913,5.180 6.015,5.056 6.253 C 5.001 6.359,5.000 6.382,5.000 8.467 L 5.000 10.573 5.071 10.694 C 5.114 10.768,5.186 10.839,5.257 10.880 L 5.373 10.947 7.467 10.947 C 8.618 10.947,9.592 10.938,9.631 10.927 C 9.882 10.856,10.042 10.508,9.937 10.259 C 9.890 10.145,9.733 10.010,9.607 9.975 C 9.543 9.957,9.001 9.947,8.107 9.947 L 6.707 9.947 8.794 7.859 C 10.742 5.912,10.884 5.763,10.922 5.639 C 11.018 5.320,10.787 5.012,10.455 5.014 C 10.373 5.015,10.271 5.034,10.227 5.057 " stroke="none" fill-rule="evenodd"></path></svg>