<svg width="16" height="16" fill="currentColor" xmlns="http://www.w3.org/2000/svg"><path d="M7.800 2.051 C 7.668 2.113,4.576 5.203,4.535 5.315 C 4.424 5.613,4.632 5.958,4.943 5.993 C 5.187 6.020,5.184 6.022,6.380 4.831 L 7.493 3.721 7.493 6.648 C 7.493 9.230,7.498 9.587,7.535 9.674 C 7.713 10.101,8.287 10.101,8.465 9.674 C 8.502 9.587,8.507 9.230,8.507 6.648 L 8.507 3.721 9.620 4.831 C 10.816 6.022,10.813 6.020,11.057 5.993 C 11.368 5.958,11.576 5.613,11.465 5.315 C 11.424 5.203,8.332 2.113,8.200 2.051 C 8.141 2.024,8.051 2.001,8.000 2.001 C 7.949 2.001,7.859 2.024,7.800 2.051 M1.290 12.051 C 1.039 12.165,0.930 12.492,1.061 12.737 C 1.106 12.819,1.270 12.956,1.354 12.980 C 1.449 13.006,14.551 13.006,14.646 12.980 C 14.730 12.956,14.894 12.819,14.939 12.737 C 15.070 12.492,14.961 12.165,14.710 12.051 C 14.604 12.003,14.389 12.001,8.000 12.001 C 1.611 12.001,1.396 12.003,1.290 12.051 " stroke="none" fill-rule="evenodd"></path></svg>