<svg width="16" height="16" fill="currentColor" xmlns="http://www.w3.org/2000/svg"><path d="M1.179 2.041 C 0.740 2.136,0.338 2.451,0.156 2.840 C -0.011 3.199,-0.002 2.862,0.006 8.069 L 0.013 12.813 0.076 12.979 C 0.242 13.424,0.597 13.774,1.035 13.925 L 1.213 13.987 8.000 13.987 L 14.787 13.987 14.965 13.925 C 15.411 13.771,15.771 13.411,15.925 12.965 L 15.987 12.787 15.987 8.000 L 15.987 3.213 15.925 3.035 C 15.771 2.589,15.405 2.224,14.962 2.073 L 14.787 2.013 8.067 2.009 C 2.458 2.005,1.319 2.010,1.179 2.041 M5.693 4.050 C 6.138 4.256,6.076 4.875,5.599 4.985 C 5.527 5.001,4.993 5.012,4.233 5.013 L 2.987 5.013 2.987 6.321 C 2.987 7.570,2.984 7.633,2.934 7.732 C 2.746 8.101,2.225 8.078,2.050 7.694 C 2.005 7.594,2.001 7.477,2.001 6.006 C 2.000 4.638,2.006 4.412,2.041 4.326 C 2.096 4.194,2.178 4.110,2.307 4.050 C 2.407 4.004,2.514 4.001,4.000 4.001 C 5.486 4.001,5.593 4.004,5.693 4.050 M13.674 8.041 C 13.806 8.096,13.890 8.178,13.950 8.307 C 13.996 8.407,13.999 8.514,13.999 9.994 C 14.000 11.736,14.005 11.683,13.833 11.860 C 13.787 11.908,13.707 11.959,13.655 11.973 C 13.528 12.009,10.472 12.009,10.345 11.973 C 10.173 11.925,10.000 11.686,10.000 11.493 C 10.000 11.398,10.063 11.237,10.128 11.165 C 10.253 11.026,10.237 11.028,11.667 11.013 L 13.000 11.000 13.013 9.667 C 13.025 8.495,13.032 8.324,13.071 8.253 C 13.189 8.037,13.447 7.946,13.674 8.041 " stroke="none" fill-rule="evenodd"></path></svg>