<svg width="16" height="16" fill="currentColor" xmlns="http://www.w3.org/2000/svg"><path d="M1.179 2.041 C 0.740 2.136,0.338 2.451,0.156 2.840 C -0.011 3.199,-0.002 2.862,0.006 8.069 L 0.013 12.813 0.076 12.979 C 0.242 13.424,0.597 13.774,1.035 13.925 L 1.213 13.987 8.000 13.987 L 14.787 13.987 14.965 13.925 C 15.411 13.771,15.771 13.411,15.925 12.965 L 15.987 12.787 15.987 8.000 L 15.987 3.213 15.925 3.035 C 15.771 2.589,15.405 2.224,14.962 2.073 L 14.787 2.013 8.067 2.009 C 2.458 2.005,1.319 2.010,1.179 2.041 M14.685 3.042 C 14.787 3.080,14.906 3.195,14.950 3.299 C 15.004 3.426,15.005 12.572,14.951 12.701 C 14.907 12.805,14.747 12.951,14.646 12.980 C 14.551 13.006,1.449 13.006,1.354 12.980 C 1.262 12.954,1.103 12.815,1.052 12.717 C 0.995 12.606,0.994 3.395,1.051 3.285 C 1.092 3.207,1.208 3.091,1.293 3.044 C 1.368 3.003,14.577 3.001,14.685 3.042 M2.307 4.051 C 2.171 4.113,2.060 4.232,2.026 4.348 C 1.990 4.473,1.991 7.528,2.027 7.657 C 2.068 7.803,2.256 7.965,2.413 7.988 C 2.684 8.029,2.928 7.863,2.984 7.600 C 3.003 7.513,3.013 7.026,3.013 6.239 L 3.013 5.013 4.239 5.013 C 5.026 5.013,5.513 5.003,5.600 4.984 C 5.961 4.907,6.121 4.464,5.885 4.195 C 5.709 3.994,5.777 4.001,4.000 4.001 C 2.512 4.001,2.407 4.004,2.307 4.051 M13.290 8.051 C 13.155 8.113,13.052 8.243,13.015 8.401 C 12.999 8.473,12.988 9.007,12.987 9.767 L 12.987 11.013 11.679 11.013 C 10.430 11.013,10.367 11.016,10.268 11.066 C 10.075 11.165,9.978 11.361,10.012 11.587 C 10.035 11.744,10.197 11.932,10.343 11.973 C 10.472 12.009,13.525 12.009,13.654 11.974 C 13.772 11.941,13.939 11.773,13.974 11.652 C 14.009 11.529,14.009 8.473,13.973 8.345 C 13.925 8.170,13.684 7.999,13.488 8.001 C 13.439 8.001,13.351 8.024,13.290 8.051 " stroke="none" fill-rule="evenodd"></path></svg>