<svg width="16" height="16" fill="currentColor" xmlns="http://www.w3.org/2000/svg"><path d="M7.734 0.043 C 7.405 0.131,7.162 0.370,7.030 0.733 C 7.010 0.788,6.997 1.661,6.987 3.534 L 6.973 6.254 4.680 4.928 C 3.419 4.199,2.331 3.583,2.262 3.560 C 2.102 3.505,1.782 3.505,1.628 3.559 C 1.270 3.686,1.034 3.960,0.960 4.335 C 0.899 4.647,1.015 4.987,1.260 5.217 C 1.363 5.313,2.011 5.700,3.687 6.667 C 4.944 7.392,5.973 7.993,5.973 8.001 C 5.973 8.010,4.956 8.603,3.713 9.320 C 2.470 10.036,1.398 10.662,1.330 10.711 C 1.072 10.896,0.916 11.241,0.940 11.574 C 0.974 12.056,1.375 12.458,1.860 12.498 C 2.007 12.510,2.074 12.501,2.227 12.449 C 2.348 12.407,3.206 11.926,4.666 11.083 C 5.905 10.366,6.934 9.775,6.953 9.767 C 6.980 9.757,6.987 10.257,6.987 12.379 C 6.987 14.154,6.996 15.055,7.016 15.162 C 7.076 15.491,7.295 15.774,7.600 15.916 C 7.725 15.974,7.784 15.984,8.000 15.984 C 8.216 15.984,8.275 15.974,8.400 15.916 C 8.705 15.774,8.924 15.491,8.984 15.162 C 9.004 15.055,9.013 14.154,9.013 12.379 C 9.013 10.257,9.020 9.757,9.047 9.767 C 9.066 9.775,10.095 10.366,11.334 11.083 C 12.797 11.928,13.652 12.407,13.773 12.449 C 14.232 12.606,14.741 12.383,14.966 11.925 C 15.045 11.765,15.053 11.725,15.053 11.507 C 15.053 11.292,15.044 11.248,14.969 11.088 C 14.919 10.984,14.834 10.862,14.764 10.795 C 14.682 10.717,13.891 10.246,12.335 9.349 C 11.065 8.616,10.027 8.010,10.027 8.002 C 10.027 7.993,11.066 7.386,12.337 6.653 C 14.043 5.669,14.679 5.289,14.768 5.200 C 14.835 5.134,14.926 5.002,14.971 4.907 C 15.044 4.753,15.053 4.706,15.053 4.493 C 15.053 4.289,15.043 4.231,14.982 4.101 C 14.881 3.886,14.694 3.696,14.484 3.595 C 14.339 3.526,14.275 3.512,14.108 3.509 C 13.997 3.508,13.852 3.523,13.784 3.542 C 13.717 3.562,12.619 4.180,11.344 4.916 L 9.027 6.254 9.013 3.534 C 9.003 1.661,8.990 0.788,8.970 0.733 C 8.836 0.364,8.594 0.130,8.254 0.041 C 8.061 -0.009,7.926 -0.009,7.734 0.043 " stroke="none" fill-rule="evenodd"></path></svg>