<svg width="16" height="16" fill="currentColor" xmlns="http://www.w3.org/2000/svg"><path d="M7.157 0.435 L 6.328 0.867 5.399 1.007 C 4.889 1.084,4.468 1.150,4.465 1.154 C 4.462 1.157,4.271 1.537,4.041 1.998 L 3.622 2.836 2.956 3.491 L 2.290 4.147 2.444 5.073 L 2.599 6.000 2.444 6.927 L 2.290 7.853 2.956 8.509 L 3.622 9.164 4.041 10.002 C 4.271 10.463,4.462 10.844,4.466 10.848 C 4.470 10.852,4.892 10.919,5.404 10.997 L 6.335 11.139 7.167 11.571 L 8.000 12.003 8.833 11.571 L 9.665 11.139 10.596 10.997 C 11.108 10.919,11.530 10.852,11.534 10.848 C 11.538 10.844,11.729 10.462,11.960 10.001 L 12.379 9.161 13.045 8.507 L 13.710 7.853 13.556 6.927 L 13.401 6.000 13.556 5.073 L 13.710 4.147 13.045 3.493 L 12.379 2.839 11.960 1.999 C 11.729 1.538,11.538 1.157,11.535 1.154 C 11.532 1.150,11.117 1.086,10.612 1.011 L 9.693 0.874 8.846 0.437 C 8.380 0.197,7.996 0.001,7.993 0.002 C 7.989 0.003,7.613 0.198,7.157 0.435 M8.703 1.490 L 9.373 1.834 10.120 1.946 C 10.531 2.008,10.868 2.060,10.870 2.063 C 10.872 2.065,11.026 2.373,11.212 2.747 L 11.549 3.427 12.093 3.960 L 12.637 4.493 12.520 5.187 C 12.455 5.568,12.403 5.934,12.403 6.000 C 12.403 6.066,12.455 6.432,12.520 6.813 L 12.637 7.507 12.093 8.040 L 11.549 8.573 11.212 9.253 C 11.026 9.627,10.872 9.936,10.869 9.939 C 10.867 9.942,10.529 9.995,10.119 10.056 L 9.373 10.168 8.687 10.522 L 8.000 10.877 7.313 10.522 L 6.627 10.168 5.881 10.056 C 5.471 9.995,5.133 9.942,5.131 9.939 C 5.128 9.936,4.974 9.627,4.788 9.253 L 4.451 8.573 3.906 8.040 L 3.362 7.507 3.490 6.753 L 3.618 6.000 3.490 5.247 L 3.362 4.493 3.906 3.960 L 4.450 3.427 4.788 2.747 C 4.974 2.373,5.128 2.065,5.130 2.063 C 5.132 2.060,5.469 2.008,5.880 1.946 L 6.627 1.834 7.293 1.491 C 7.660 1.302,7.977 1.148,7.997 1.147 C 8.017 1.147,8.335 1.301,8.703 1.490 M4.000 13.900 C 4.000 15.573,4.007 16.003,4.033 15.994 C 4.052 15.987,4.952 15.761,6.033 15.491 L 8.000 15.000 9.993 15.498 C 11.089 15.772,11.989 15.993,11.993 15.989 C 11.997 15.985,11.997 15.041,11.993 13.890 L 11.987 11.798 10.984 11.950 L 9.981 12.102 9.011 12.604 C 8.477 12.881,8.022 13.107,8.000 13.107 C 7.978 13.107,7.523 12.881,6.990 12.605 L 6.020 12.102 5.070 11.959 C 4.547 11.880,4.093 11.810,4.060 11.805 L 4.000 11.794 4.000 13.900 " stroke="none" fill-rule="evenodd"></path></svg>