<svg width="16" height="16" fill="currentColor" xmlns="http://www.w3.org/2000/svg"><path d="M6.110 1.066 C 5.788 1.145,5.490 1.313,5.235 1.559 C 5.114 1.677,3.916 3.057,2.574 4.625 C -0.062 7.705,0.040 7.574,0.007 7.924 C -0.008 8.090,0.034 8.306,0.112 8.461 C 0.182 8.601,5.065 14.293,5.295 14.503 C 5.421 14.618,5.556 14.709,5.720 14.787 C 6.198 15.016,5.846 14.998,9.947 15.007 C 12.332 15.013,13.676 15.006,13.845 14.988 C 14.368 14.932,14.748 14.752,15.107 14.389 C 15.345 14.150,15.496 13.893,15.604 13.547 L 15.667 13.347 15.667 8.000 L 15.667 2.653 15.604 2.453 C 15.417 1.854,15.006 1.391,14.455 1.160 C 14.093 1.009,14.255 1.014,10.120 1.016 C 6.529 1.017,6.295 1.020,6.110 1.066 M6.408 5.056 C 6.455 5.080,6.988 5.593,7.593 6.196 L 8.694 7.292 9.820 6.168 C 11.048 4.943,10.990 4.989,11.268 5.020 C 11.572 5.054,11.762 5.404,11.639 5.701 C 11.611 5.768,11.242 6.156,10.499 6.900 L 9.401 8.000 10.499 9.100 C 11.242 9.844,11.611 10.232,11.639 10.299 C 11.719 10.491,11.665 10.735,11.511 10.877 C 11.443 10.940,11.202 11.020,11.139 11.001 C 11.121 10.996,11.071 10.983,11.027 10.974 C 10.967 10.961,10.655 10.666,9.820 9.832 L 8.693 8.708 7.593 9.804 C 6.988 10.407,6.452 10.922,6.402 10.947 C 6.284 11.006,6.088 11.006,5.961 10.945 C 5.756 10.848,5.638 10.573,5.707 10.355 C 5.733 10.275,5.975 10.017,6.863 9.127 L 7.986 8.000 6.863 6.873 C 5.971 5.979,5.733 5.725,5.707 5.644 C 5.640 5.434,5.747 5.171,5.940 5.069 C 6.064 5.003,6.290 4.997,6.408 5.056 " stroke="none" fill-rule="evenodd"></path></svg>