<svg width="16" height="16" fill="currentColor" xmlns="http://www.w3.org/2000/svg"><path d="M7.552 0.031 C 6.431 0.172,5.418 0.880,4.899 1.886 C 4.624 2.418,4.507 2.927,4.507 3.593 L 4.507 4.000 2.747 4.000 L 0.987 4.000 0.987 8.980 C 0.987 12.132,0.997 14.046,1.014 14.193 C 1.110 15.034,1.638 15.668,2.454 15.924 L 2.653 15.987 8.000 15.987 L 13.347 15.987 13.546 15.924 C 14.362 15.668,14.890 15.034,14.986 14.193 C 15.003 14.046,15.013 12.132,15.013 8.980 L 15.013 4.000 13.253 4.000 L 11.493 4.000 11.493 3.593 C 11.493 2.919,11.381 2.431,11.103 1.893 C 10.429 0.589,9.016 -0.152,7.552 0.031 M8.665 1.092 C 9.394 1.304,9.947 1.778,10.270 2.466 C 10.424 2.796,10.479 3.061,10.498 3.567 L 10.515 4.000 8.000 4.000 L 5.485 4.000 5.502 3.567 C 5.521 3.061,5.576 2.796,5.730 2.466 C 6.081 1.719,6.683 1.237,7.496 1.053 C 7.755 0.995,8.405 1.016,8.665 1.092 M6.688 8.041 C 6.752 8.068,6.999 8.294,7.393 8.687 L 8.000 9.293 8.607 8.687 C 9.224 8.071,9.318 7.999,9.499 8.001 C 9.609 8.001,9.782 8.080,9.859 8.164 C 9.935 8.247,10.000 8.404,10.000 8.507 C 10.000 8.683,9.924 8.781,9.313 9.393 L 8.707 10.000 9.313 10.607 C 9.929 11.224,10.000 11.317,10.000 11.501 C 10.000 11.626,9.884 11.842,9.779 11.913 C 9.730 11.946,9.636 11.980,9.569 11.990 C 9.335 12.022,9.292 11.991,8.620 11.324 L 8.000 10.708 7.380 11.324 C 6.708 11.991,6.665 12.022,6.431 11.990 C 6.364 11.980,6.270 11.946,6.221 11.913 C 6.116 11.842,6.000 11.626,6.000 11.501 C 6.000 11.317,6.071 11.224,6.687 10.607 L 7.293 10.000 6.687 9.393 C 6.294 8.999,6.068 8.752,6.041 8.688 C 5.939 8.441,6.053 8.167,6.307 8.050 C 6.437 7.990,6.557 7.987,6.688 8.041 " stroke="none" fill-rule="evenodd"></path></svg>