<svg width="16" height="16" fill="currentColor" xmlns="http://www.w3.org/2000/svg"><path d="M7.552 0.029 C 6.211 0.210,5.110 1.121,4.681 2.404 C 4.555 2.783,4.507 3.107,4.507 3.593 L 4.507 4.000 2.747 4.000 L 0.987 4.000 0.987 8.980 C 0.987 12.132,0.997 14.046,1.014 14.193 C 1.110 15.034,1.638 15.668,2.454 15.924 L 2.653 15.987 8.000 15.987 L 13.347 15.987 13.546 15.924 C 14.362 15.668,14.890 15.034,14.986 14.193 C 15.003 14.046,15.013 12.132,15.013 8.980 L 15.013 4.000 13.253 4.000 L 11.493 4.000 11.493 3.593 C 11.493 3.107,11.445 2.783,11.319 2.404 C 11.137 1.861,10.848 1.398,10.439 0.997 C 9.971 0.537,9.359 0.211,8.718 0.079 C 8.396 0.013,7.846 -0.010,7.552 0.029 M8.665 1.092 C 9.394 1.304,9.947 1.778,10.270 2.466 C 10.424 2.796,10.479 3.061,10.498 3.567 L 10.515 4.000 8.000 4.000 L 5.485 4.000 5.502 3.567 C 5.521 3.061,5.576 2.796,5.730 2.466 C 6.081 1.719,6.683 1.237,7.496 1.053 C 7.755 0.995,8.405 1.016,8.665 1.092 M7.227 7.553 C 7.414 7.597,7.651 7.714,7.832 7.850 L 7.997 7.976 8.165 7.851 C 8.491 7.609,8.791 7.510,9.200 7.511 C 9.510 7.512,9.726 7.564,10.027 7.711 C 10.208 7.800,10.298 7.868,10.481 8.051 C 10.841 8.413,10.985 8.766,10.986 9.288 C 10.987 9.606,10.933 9.881,10.809 10.190 C 10.507 10.944,9.823 11.754,8.847 12.515 C 8.545 12.749,8.075 13.087,8.020 13.108 C 7.978 13.124,7.524 12.809,7.093 12.466 C 6.314 11.845,5.789 11.277,5.426 10.664 C 5.143 10.184,5.013 9.751,5.014 9.288 C 5.015 8.766,5.159 8.414,5.519 8.052 C 5.823 7.747,6.137 7.585,6.548 7.522 C 6.724 7.495,7.043 7.509,7.227 7.553 " stroke="none" fill-rule="evenodd"></path></svg>