<svg width="16" height="16" fill="currentColor" xmlns="http://www.w3.org/2000/svg"><path d="M7.552 0.029 C 6.211 0.210,5.110 1.121,4.681 2.404 C 4.555 2.783,4.507 3.107,4.507 3.593 L 4.507 4.000 2.747 4.000 L 0.987 4.000 0.987 8.980 C 0.987 12.132,0.997 14.046,1.014 14.193 C 1.110 15.034,1.638 15.668,2.454 15.924 L 2.653 15.987 8.000 15.987 L 13.347 15.987 13.546 15.924 C 14.362 15.668,14.890 15.034,14.986 14.193 C 15.003 14.046,15.013 12.132,15.013 8.980 L 15.013 4.000 13.253 4.000 L 11.493 4.000 11.493 3.593 C 11.493 3.107,11.445 2.783,11.319 2.404 C 11.137 1.861,10.848 1.398,10.439 0.997 C 9.971 0.537,9.359 0.211,8.718 0.079 C 8.396 0.013,7.846 -0.010,7.552 0.029 M8.665 1.092 C 9.394 1.304,9.947 1.778,10.270 2.466 C 10.424 2.796,10.479 3.061,10.498 3.567 L 10.515 4.000 8.000 4.000 L 5.485 4.000 5.502 3.567 C 5.521 3.061,5.576 2.796,5.730 2.466 C 6.081 1.719,6.683 1.237,7.496 1.053 C 7.755 0.995,8.405 1.016,8.665 1.092 M14.000 9.554 C 14.000 14.556,14.009 14.269,13.836 14.539 C 13.685 14.775,13.448 14.931,13.161 14.984 C 12.940 15.025,3.060 15.025,2.839 14.984 C 2.552 14.931,2.315 14.775,2.164 14.539 C 1.991 14.269,2.000 14.556,2.000 9.554 L 2.000 5.013 8.000 5.013 L 14.000 5.013 14.000 9.554 " stroke="none" fill-rule="evenodd"></path></svg>