<svg width="16" height="16" fill="currentColor" xmlns="http://www.w3.org/2000/svg"><path d="M7.470 0.030 C 5.711 0.214,4.135 1.365,3.426 2.981 C 3.140 3.634,3.007 4.280,3.007 5.013 C 3.006 7.161,4.052 9.096,5.796 10.178 C 6.248 10.458,6.915 10.741,7.487 10.896 C 7.510 10.903,7.479 10.990,7.387 11.172 C 7.213 11.520,7.213 11.630,7.389 11.721 C 7.495 11.776,7.607 11.751,7.689 11.654 L 7.752 11.579 7.795 11.840 C 7.851 12.182,7.911 12.355,8.147 12.853 C 8.408 13.406,8.413 13.426,8.412 13.787 C 8.411 14.059,8.401 14.121,8.326 14.339 C 8.224 14.635,8.124 14.839,7.916 15.168 C 7.744 15.442,7.722 15.545,7.814 15.661 C 7.884 15.750,8.000 15.775,8.101 15.723 C 8.229 15.656,8.557 15.121,8.732 14.693 C 8.868 14.358,8.916 14.118,8.917 13.773 C 8.918 13.364,8.882 13.232,8.614 12.667 C 8.408 12.233,8.313 11.968,8.281 11.734 L 8.264 11.615 8.325 11.671 C 8.451 11.786,8.618 11.772,8.705 11.638 C 8.771 11.538,8.755 11.456,8.613 11.172 C 8.521 10.990,8.490 10.903,8.513 10.896 C 8.531 10.891,8.721 10.831,8.933 10.762 C 11.013 10.092,12.534 8.307,12.905 6.102 C 13.216 4.255,12.711 2.602,11.474 1.409 C 10.398 0.373,8.953 -0.125,7.470 0.030 M8.800 1.079 C 10.244 1.400,11.367 2.412,11.809 3.790 C 12.029 4.476,12.053 5.269,11.880 6.120 C 11.792 6.553,11.681 6.880,11.481 7.297 C 10.832 8.646,9.712 9.554,8.228 9.933 C 8.021 9.986,7.971 9.984,7.718 9.918 C 6.705 9.654,5.819 9.104,5.187 8.345 C 4.604 7.645,4.233 6.828,4.075 5.893 C 3.999 5.448,3.993 4.667,4.063 4.295 C 4.377 2.616,5.658 1.356,7.360 1.052 C 7.638 1.002,8.528 1.019,8.800 1.079 M7.371 2.068 C 6.391 2.282,5.544 3.008,5.200 3.926 C 5.123 4.134,5.040 4.475,5.040 4.587 C 5.040 4.759,5.203 4.942,5.394 4.985 C 5.564 5.024,5.726 4.970,5.867 4.829 C 5.969 4.727,6.006 4.662,6.066 4.479 C 6.203 4.065,6.391 3.762,6.660 3.521 C 6.898 3.307,7.071 3.215,7.584 3.027 C 7.858 2.927,8.024 2.684,7.990 2.435 C 7.970 2.288,7.926 2.214,7.807 2.125 C 7.693 2.040,7.571 2.024,7.371 2.068 " stroke="none" fill-rule="evenodd"></path></svg>