<svg width="16" height="16" fill="currentColor" xmlns="http://www.w3.org/2000/svg"><path d="M4.680 1.507 L 1.373 3.011 0.872 3.012 C 0.435 3.013,0.359 3.020,0.272 3.064 C 0.150 3.126,0.094 3.187,0.041 3.313 C 0.006 3.396,0.000 3.579,0.000 4.486 C 0.000 5.112,0.011 5.599,0.026 5.652 C 0.061 5.773,0.228 5.941,0.346 5.974 C 0.398 5.988,0.563 6.000,0.713 6.000 L 0.987 6.000 0.987 9.503 L 0.987 13.007 0.880 13.024 C 0.805 13.036,0.740 13.073,0.658 13.154 L 0.541 13.267 0.271 14.353 C 0.122 14.951,-0.000 15.476,-0.000 15.521 C -0.000 15.691,0.157 15.907,0.328 15.972 C 0.434 16.012,15.566 16.012,15.672 15.972 C 15.843 15.907,16.000 15.691,16.000 15.521 C 16.000 15.476,15.878 14.951,15.729 14.353 L 15.459 13.267 15.342 13.154 C 15.260 13.073,15.195 13.036,15.120 13.024 L 15.013 13.007 15.013 9.503 L 15.013 6.000 15.287 6.000 C 15.437 6.000,15.602 5.988,15.654 5.974 C 15.772 5.941,15.939 5.773,15.974 5.652 C 15.989 5.599,16.000 5.112,16.000 4.486 C 16.000 3.579,15.994 3.396,15.959 3.313 C 15.906 3.187,15.850 3.126,15.728 3.064 C 15.641 3.020,15.567 3.013,15.133 3.013 L 14.638 3.013 11.339 1.517 C 9.525 0.694,8.029 0.016,8.014 0.012 C 7.999 0.007,6.499 0.680,4.680 1.507 M10.085 1.989 C 11.219 2.525,12.158 2.975,12.172 2.989 C 12.188 3.004,10.577 3.013,8.000 3.013 C 5.446 3.013,3.813 3.004,3.828 2.989 C 3.862 2.955,7.952 1.017,7.992 1.015 C 8.010 1.014,8.952 1.452,10.085 1.989 M14.987 4.507 L 14.987 5.013 8.000 5.013 L 1.013 5.013 1.013 4.507 L 1.013 4.000 8.000 4.000 L 14.987 4.000 14.987 4.507 M2.987 9.507 L 2.987 13.013 2.493 13.013 L 2.000 13.013 2.000 9.507 L 2.000 6.000 2.493 6.000 L 2.987 6.000 2.987 9.507 M6.500 9.500 L 6.493 13.000 5.247 13.007 L 4.000 13.014 4.000 9.507 L 4.000 6.000 5.253 6.000 L 6.507 6.000 6.500 9.500 M8.500 9.500 L 8.493 13.000 8.000 13.000 L 7.507 13.000 7.500 9.500 L 7.493 6.000 8.000 6.000 L 8.507 6.000 8.500 9.500 M12.000 9.507 L 12.000 13.014 10.753 13.007 L 9.507 13.000 9.500 9.500 L 9.493 6.000 10.747 6.000 L 12.000 6.000 12.000 9.507 M14.000 9.507 L 14.000 13.013 13.507 13.013 L 13.013 13.013 13.013 9.507 L 13.013 6.000 13.507 6.000 L 14.000 6.000 14.000 9.507 M14.730 14.493 C 14.798 14.764,14.853 14.992,14.853 15.000 C 14.853 15.007,11.769 15.013,8.000 15.013 C 4.231 15.013,1.147 15.007,1.147 15.000 C 1.147 14.992,1.202 14.764,1.270 14.493 L 1.393 14.000 8.000 14.000 L 14.607 14.000 14.730 14.493 " stroke="none" fill-rule="evenodd"></path></svg>