<svg width="16" height="16" fill="currentColor" xmlns="http://www.w3.org/2000/svg"><path d="M5.233 1.085 C 5.134 1.150,4.968 1.414,3.673 3.572 L 2.224 5.987 1.292 6.000 C 0.490 6.011,0.349 6.020,0.280 6.058 C 0.162 6.123,0.056 6.245,0.026 6.348 C -0.008 6.467,-0.008 7.533,0.026 7.652 C 0.053 7.744,0.182 7.899,0.280 7.955 C 0.310 7.972,0.507 7.992,0.731 7.999 L 1.128 8.013 2.054 11.253 C 2.564 13.035,2.994 14.526,3.010 14.566 C 3.058 14.688,3.246 14.870,3.394 14.937 L 3.533 15.000 8.000 15.000 L 12.467 15.000 12.606 14.937 C 12.754 14.870,12.942 14.688,12.990 14.566 C 13.006 14.526,13.436 13.035,13.946 11.253 L 14.872 8.013 15.269 7.999 C 15.493 7.992,15.690 7.972,15.720 7.955 C 15.818 7.899,15.947 7.744,15.974 7.652 C 16.008 7.533,16.008 6.467,15.974 6.348 C 15.944 6.245,15.838 6.123,15.720 6.058 C 15.651 6.020,15.510 6.011,14.708 6.000 L 13.776 5.987 12.369 3.640 C 11.595 2.349,10.925 1.248,10.879 1.193 C 10.758 1.046,10.663 1.006,10.466 1.018 C 10.261 1.031,10.126 1.122,10.047 1.301 C 9.937 1.551,9.887 1.452,11.313 3.828 L 12.608 5.987 10.304 5.993 C 9.037 5.997,6.963 5.997,5.696 5.993 L 3.392 5.987 4.674 3.853 C 5.588 2.331,5.964 1.684,5.983 1.595 C 6.051 1.281,5.823 1.013,5.486 1.013 C 5.377 1.013,5.318 1.030,5.233 1.085 M13.785 8.180 C 13.756 8.279,13.371 9.629,12.928 11.180 L 12.122 14.000 8.000 14.000 L 3.878 14.000 3.072 11.180 C 2.629 9.629,2.244 8.279,2.215 8.180 L 2.164 8.000 8.000 8.000 L 13.836 8.000 13.785 8.180 M4.637 9.075 C 4.369 9.188,4.196 9.353,4.075 9.614 C 4.013 9.747,4.013 9.747,4.013 11.000 L 4.013 12.253 4.083 12.400 C 4.282 12.818,4.730 13.062,5.159 12.985 C 5.489 12.925,5.771 12.708,5.917 12.400 L 5.987 12.253 5.987 11.000 L 5.987 9.747 5.917 9.600 C 5.814 9.382,5.652 9.216,5.446 9.114 C 5.291 9.038,5.237 9.026,5.027 9.019 C 4.824 9.013,4.763 9.022,4.637 9.075 M7.662 9.061 C 7.402 9.154,7.172 9.382,7.058 9.659 C 7.001 9.797,7.000 9.829,7.000 11.000 C 7.000 12.171,7.001 12.203,7.058 12.341 C 7.224 12.747,7.579 12.993,8.000 12.993 C 8.421 12.993,8.777 12.746,8.941 12.341 C 8.996 12.206,8.999 12.153,9.008 11.125 C 9.018 9.971,9.004 9.785,8.895 9.562 C 8.808 9.384,8.612 9.190,8.429 9.100 C 8.234 9.005,7.872 8.986,7.662 9.061 M10.637 9.075 C 10.369 9.188,10.196 9.353,10.075 9.614 C 10.013 9.747,10.013 9.747,10.013 11.000 L 10.013 12.253 10.083 12.400 C 10.282 12.818,10.730 13.062,11.159 12.985 C 11.489 12.925,11.771 12.708,11.917 12.400 L 11.987 12.253 11.987 11.000 L 11.987 9.747 11.917 9.600 C 11.814 9.382,11.652 9.216,11.446 9.114 C 11.291 9.038,11.237 9.026,11.027 9.019 C 10.824 9.013,10.763 9.022,10.637 9.075 " stroke="none" fill-rule="evenodd"></path></svg>