<svg width="16" height="16" fill="currentColor" xmlns="http://www.w3.org/2000/svg"><path d="M1.669 4.028 C 0.992 4.143,0.371 4.651,0.135 5.283 C 0.002 5.640,0.001 5.651,0.000 7.994 C -0.000 10.390,-0.000 10.383,0.156 10.767 C 0.347 11.238,0.762 11.653,1.233 11.844 C 1.637 12.009,1.316 12.000,7.000 12.000 C 12.683 12.000,12.364 12.009,12.766 11.845 C 13.368 11.600,13.824 11.043,13.959 10.388 C 14.020 10.091,14.020 5.909,13.959 5.612 C 13.830 4.987,13.438 4.484,12.864 4.208 C 12.423 3.996,12.981 4.015,7.080 4.010 C 4.176 4.008,1.741 4.016,1.669 4.028 M12.430 5.100 C 12.608 5.188,12.833 5.416,12.915 5.593 L 12.973 5.720 12.973 8.000 L 12.973 10.280 12.901 10.428 C 12.757 10.720,12.468 10.934,12.145 10.987 C 11.930 11.022,2.070 11.022,1.855 10.987 C 1.532 10.934,1.243 10.720,1.099 10.428 L 1.027 10.280 1.019 8.056 C 1.011 5.583,1.006 5.672,1.189 5.424 C 1.313 5.257,1.488 5.123,1.662 5.063 C 1.793 5.017,2.065 5.015,7.040 5.021 L 12.280 5.027 12.430 5.100 M2.000 8.000 L 2.000 10.000 4.507 10.000 L 7.013 10.000 7.013 8.000 L 7.013 6.000 4.507 6.000 L 2.000 6.000 2.000 8.000 M14.507 8.004 L 14.507 9.501 14.676 9.485 C 15.027 9.452,15.437 9.230,15.659 8.951 C 15.790 8.787,15.929 8.494,15.970 8.299 C 16.102 7.669,15.780 6.986,15.211 6.687 C 15.018 6.586,14.749 6.508,14.593 6.507 L 14.507 6.507 14.507 8.004 " stroke="none" fill-rule="evenodd"></path></svg>