<svg width="16" height="16" fill="currentColor" xmlns="http://www.w3.org/2000/svg"><path d="M0.000 7.908 L 0.000 12.803 2.633 12.793 C 5.194 12.783,5.275 12.781,5.560 12.725 C 6.456 12.551,7.011 12.304,7.462 11.880 C 7.822 11.542,8.035 11.170,8.166 10.648 C 8.216 10.449,8.225 10.344,8.224 9.960 C 8.223 9.556,8.215 9.478,8.151 9.240 C 8.042 8.828,7.827 8.420,7.582 8.161 C 7.310 7.871,6.972 7.656,6.582 7.523 L 6.449 7.478 6.681 7.335 C 7.111 7.073,7.512 6.624,7.652 6.251 C 7.783 5.901,7.820 5.369,7.746 4.911 C 7.587 3.928,7.045 3.396,5.951 3.146 C 5.765 3.104,5.512 3.057,5.387 3.041 C 5.244 3.024,4.214 3.013,2.581 3.013 L 0.000 3.013 0.000 7.908 M10.453 4.160 L 10.453 4.640 12.440 4.640 L 14.427 4.640 14.427 4.160 L 14.427 3.680 12.440 3.680 L 10.453 3.680 10.453 4.160 M4.920 4.745 C 5.181 4.830,5.277 4.885,5.402 5.018 C 5.557 5.182,5.599 5.260,5.641 5.462 C 5.710 5.786,5.672 6.181,5.549 6.422 C 5.437 6.643,5.184 6.820,4.838 6.923 C 4.700 6.964,4.524 6.971,3.433 6.980 L 2.187 6.990 2.187 5.826 L 2.187 4.662 3.460 4.673 C 4.702 4.683,4.738 4.685,4.920 4.745 M12.160 5.539 C 10.892 5.674,9.903 6.349,9.352 7.455 C 9.031 8.097,8.906 8.800,8.962 9.638 C 9.014 10.422,9.267 11.179,9.645 11.680 C 9.789 11.870,10.212 12.289,10.387 12.414 C 10.940 12.810,11.745 13.040,12.573 13.040 C 13.252 13.040,13.790 12.920,14.338 12.644 C 14.899 12.363,15.324 11.913,15.654 11.253 C 15.766 11.030,15.893 10.717,15.893 10.666 C 15.893 10.650,15.576 10.640,15.033 10.640 L 14.173 10.640 14.097 10.786 C 13.988 10.994,13.692 11.266,13.455 11.374 C 13.147 11.515,12.938 11.557,12.560 11.554 C 12.007 11.549,11.633 11.420,11.346 11.134 C 11.089 10.878,10.900 10.453,10.866 10.059 C 10.858 9.961,10.846 9.847,10.839 9.807 L 10.828 9.733 13.418 9.733 L 16.008 9.733 15.992 9.180 C 15.984 8.876,15.963 8.519,15.946 8.388 C 15.891 7.968,15.648 7.385,15.329 6.907 C 14.823 6.150,14.000 5.652,13.080 5.548 C 12.852 5.522,12.361 5.517,12.160 5.539 M12.844 7.053 C 13.295 7.138,13.629 7.385,13.838 7.786 C 13.943 7.988,14.053 8.338,14.053 8.471 L 14.053 8.533 12.467 8.533 L 10.880 8.533 10.880 8.456 C 10.880 8.315,10.965 7.962,11.034 7.815 C 11.077 7.723,11.170 7.603,11.287 7.490 C 11.699 7.091,12.241 6.938,12.844 7.053 M5.097 8.500 C 5.613 8.643,5.889 8.906,6.014 9.376 C 6.071 9.590,6.071 10.046,6.014 10.253 C 5.897 10.681,5.546 10.995,5.053 11.111 C 4.896 11.149,4.656 11.157,3.527 11.166 L 2.187 11.177 2.187 9.800 L 2.187 8.423 3.540 8.433 C 4.820 8.443,4.904 8.446,5.097 8.500 " stroke="none" fill-rule="evenodd"></path></svg>