<svg width="16" height="16" fill="currentColor" xmlns="http://www.w3.org/2000/svg"><path d="M7.693 0.055 C 7.302 0.182,7.036 0.528,7.004 0.949 L 6.993 1.101 6.756 1.161 C 6.375 1.258,6.197 1.326,5.773 1.536 C 4.469 2.181,3.541 3.322,3.161 4.747 C 3.060 5.127,3.018 5.467,2.988 6.160 C 2.906 8.077,2.511 10.207,1.997 11.501 C 1.759 12.098,1.508 12.519,1.208 12.820 L 1.016 13.013 8.007 13.013 L 14.999 13.013 14.855 12.887 C 14.179 12.296,13.586 10.666,13.242 8.453 C 13.106 7.574,13.069 7.188,12.987 5.760 C 12.942 4.995,12.781 4.385,12.450 3.734 C 11.955 2.760,11.206 2.020,10.227 1.536 C 9.838 1.343,9.483 1.211,9.164 1.139 L 9.008 1.104 8.996 0.950 C 8.964 0.523,8.697 0.179,8.297 0.053 C 8.087 -0.013,7.901 -0.012,7.693 0.055 M8.539 2.029 C 9.139 2.156,9.354 2.223,9.723 2.398 C 10.552 2.793,11.207 3.448,11.602 4.277 C 11.882 4.866,11.965 5.249,12.001 6.119 C 12.079 8.039,12.477 10.264,12.994 11.667 L 13.111 11.987 10.556 11.993 C 9.150 11.997,6.850 11.997,5.444 11.993 L 2.889 11.987 3.006 11.667 C 3.522 10.266,3.924 8.018,3.999 6.120 C 4.034 5.217,4.136 4.782,4.457 4.160 C 4.733 3.625,5.128 3.158,5.613 2.793 C 5.899 2.578,6.438 2.298,6.757 2.199 C 6.966 2.133,7.872 1.929,7.979 1.923 C 8.004 1.921,8.256 1.969,8.539 2.029 M6.000 14.094 C 6.000 14.244,6.075 14.570,6.156 14.767 C 6.347 15.238,6.762 15.653,7.233 15.844 C 8.407 16.322,9.702 15.630,9.959 14.388 C 9.982 14.278,10.000 14.146,10.000 14.094 L 10.000 14.000 8.000 14.000 L 6.000 14.000 6.000 14.094 " stroke="none" fill-rule="evenodd"></path></svg>