<svg width="16" height="16" fill="currentColor" xmlns="http://www.w3.org/2000/svg"><path d="M7.177 0.027 C 5.912 0.133,4.962 0.472,4.188 1.095 C 2.667 2.318,1.947 4.720,2.008 8.360 C 2.034 9.844,2.149 10.843,2.413 11.853 C 2.731 13.070,3.190 13.939,3.879 14.627 C 4.600 15.346,5.518 15.761,6.773 15.936 C 7.173 15.992,8.175 16.014,8.621 15.976 C 10.350 15.831,11.523 15.248,12.370 14.115 C 13.286 12.889,13.742 11.074,13.804 8.413 C 13.842 6.760,13.685 5.206,13.361 4.023 C 12.763 1.846,11.567 0.605,9.652 0.177 C 9.484 0.139,9.197 0.090,9.013 0.066 C 8.620 0.016,7.570 -0.006,7.177 0.027 M11.493 5.267 C 11.493 5.281,10.884 5.902,10.140 6.647 L 8.787 8.000 10.160 9.373 L 11.533 10.747 9.460 12.820 L 7.387 14.893 7.387 12.160 L 7.387 9.427 6.487 10.320 C 5.992 10.812,5.476 11.321,5.340 11.453 L 5.093 11.692 4.693 11.293 C 4.473 11.074,4.293 10.882,4.293 10.867 C 4.293 10.852,4.932 10.201,5.713 9.420 L 7.133 8.000 5.713 6.580 C 4.932 5.799,4.293 5.148,4.293 5.133 C 4.293 5.118,4.473 4.926,4.693 4.707 L 5.094 4.307 6.220 5.434 C 6.840 6.053,7.356 6.560,7.367 6.560 C 7.378 6.560,7.387 5.339,7.387 3.847 L 7.387 1.133 9.440 3.187 C 10.569 4.316,11.493 5.252,11.493 5.267 M8.533 5.247 C 8.533 5.969,8.542 6.560,8.554 6.560 C 8.565 6.560,8.865 6.269,9.220 5.913 L 9.867 5.266 9.200 4.600 L 8.533 3.934 8.533 5.247 M8.533 10.753 L 8.533 12.066 9.200 11.400 L 9.867 10.734 9.220 10.087 C 8.865 9.731,8.565 9.440,8.554 9.440 C 8.542 9.440,8.533 10.031,8.533 10.753 " stroke="none" fill-rule="evenodd"></path></svg>