<svg width="16" height="16" fill="currentColor" xmlns="http://www.w3.org/2000/svg"><path d="M0.306 0.050 C -0.140 0.253,-0.072 0.886,0.407 0.985 C 0.506 1.006,1.171 1.013,2.588 1.007 C 4.447 1.001,4.634 0.996,4.709 0.955 C 4.819 0.894,4.955 0.737,4.975 0.646 C 4.984 0.606,4.995 0.560,5.000 0.543 C 5.019 0.481,4.954 0.278,4.888 0.191 C 4.850 0.141,4.770 0.078,4.710 0.051 C 4.606 0.004,4.494 0.001,2.507 0.001 C 0.539 0.001,0.407 0.004,0.306 0.050 M0.306 2.050 C -0.136 2.251,-0.073 2.883,0.400 2.984 C 0.591 3.025,7.409 3.025,7.600 2.984 C 8.073 2.883,8.136 2.251,7.694 2.050 C 7.592 2.004,7.412 2.001,4.000 2.001 C 0.588 2.001,0.408 2.004,0.306 2.050 M9.290 2.051 C 9.039 2.165,8.930 2.492,9.061 2.737 C 9.106 2.819,9.270 2.956,9.354 2.980 C 9.449 3.006,14.551 3.006,14.646 2.980 C 14.730 2.956,14.894 2.819,14.939 2.737 C 15.070 2.492,14.961 2.165,14.710 2.051 C 14.605 2.003,14.482 2.001,12.000 2.001 C 9.518 2.001,9.395 2.003,9.290 2.051 M0.306 4.050 C -0.136 4.251,-0.073 4.883,0.400 4.984 C 0.587 5.024,3.413 5.024,3.600 4.984 C 3.961 4.907,4.121 4.464,3.885 4.195 C 3.709 3.994,3.777 4.001,2.000 4.001 C 0.522 4.001,0.406 4.005,0.306 4.050 M5.290 4.051 C 5.039 4.165,4.930 4.492,5.061 4.737 C 5.106 4.819,5.270 4.956,5.354 4.980 C 5.449 5.006,10.551 5.006,10.646 4.980 C 10.730 4.956,10.894 4.819,10.939 4.737 C 11.070 4.492,10.961 4.165,10.710 4.051 C 10.605 4.003,10.482 4.001,8.000 4.001 C 5.518 4.001,5.395 4.003,5.290 4.051 M12.306 4.050 C 11.864 4.251,11.927 4.883,12.400 4.984 C 12.587 5.024,15.413 5.024,15.600 4.984 C 15.961 4.907,16.121 4.464,15.885 4.195 C 15.709 3.994,15.777 4.001,14.000 4.001 C 12.522 4.001,12.406 4.005,12.306 4.050 M0.306 6.050 C -0.140 6.252,-0.073 6.886,0.406 6.985 C 0.505 7.006,1.453 7.012,3.587 7.007 C 6.389 7.001,6.633 6.996,6.709 6.955 C 6.819 6.894,6.955 6.737,6.975 6.646 C 6.984 6.606,6.995 6.560,7.000 6.543 C 7.019 6.481,6.954 6.278,6.888 6.191 C 6.850 6.141,6.770 6.078,6.710 6.051 C 6.605 6.003,6.471 6.001,3.507 6.001 C 0.572 6.001,0.408 6.004,0.306 6.050 M8.306 6.050 C 7.864 6.251,7.927 6.883,8.400 6.984 C 8.493 7.004,9.315 7.013,11.000 7.013 C 12.685 7.013,13.507 7.004,13.600 6.984 C 13.961 6.907,14.121 6.464,13.885 6.195 C 13.704 5.988,13.899 6.001,11.000 6.001 C 8.555 6.001,8.407 6.004,8.306 6.050 M0.306 8.050 C -0.136 8.251,-0.073 8.883,0.400 8.984 C 0.493 9.004,1.315 9.013,3.000 9.013 C 4.685 9.013,5.507 9.004,5.600 8.984 C 5.961 8.907,6.121 8.464,5.885 8.195 C 5.704 7.988,5.899 8.001,3.000 8.001 C 0.555 8.001,0.407 8.004,0.306 8.050 M7.290 8.051 C 7.039 8.165,6.930 8.492,7.061 8.737 C 7.106 8.819,7.270 8.956,7.354 8.980 C 7.449 9.006,14.551 9.006,14.646 8.980 C 14.730 8.956,14.894 8.819,14.939 8.737 C 15.070 8.492,14.961 8.165,14.710 8.051 C 14.604 8.003,14.459 8.001,11.000 8.001 C 7.541 8.001,7.396 8.003,7.290 8.051 M0.306 10.050 C -0.140 10.252,-0.073 10.886,0.406 10.985 C 0.505 11.006,1.733 11.012,4.587 11.007 C 8.330 11.001,8.633 10.997,8.709 10.955 C 8.819 10.894,8.955 10.737,8.975 10.646 C 8.984 10.606,8.995 10.560,9.000 10.543 C 9.019 10.481,8.954 10.278,8.888 10.191 C 8.850 10.141,8.770 10.078,8.710 10.051 C 8.604 10.003,8.448 10.001,4.507 10.001 C 0.604 10.001,0.408 10.003,0.306 10.050 M0.306 12.050 C -0.140 12.253,-0.072 12.886,0.407 12.985 C 0.506 13.006,1.171 13.013,2.588 13.007 C 4.447 13.001,4.634 12.996,4.709 12.955 C 4.819 12.894,4.955 12.737,4.975 12.646 C 4.984 12.606,4.995 12.560,5.000 12.543 C 5.019 12.481,4.954 12.278,4.888 12.191 C 4.850 12.141,4.770 12.078,4.710 12.051 C 4.606 12.004,4.494 12.001,2.507 12.001 C 0.539 12.001,0.407 12.004,0.306 12.050 M0.306 14.050 C -0.026 14.201,-0.099 14.609,0.162 14.858 C 0.320 15.008,0.406 15.017,1.591 15.008 C 2.505 15.001,2.636 14.995,2.709 14.955 C 2.819 14.894,2.955 14.737,2.975 14.646 C 2.984 14.606,2.995 14.560,3.000 14.543 C 3.019 14.481,2.954 14.278,2.888 14.191 C 2.745 14.003,2.729 14.001,1.507 14.001 C 0.506 14.001,0.404 14.005,0.306 14.050 " stroke="none" fill-rule="evenodd"></path></svg>