<svg width="16" height="16" fill="currentColor" xmlns="http://www.w3.org/2000/svg"><path d="M3.669 0.028 C 2.991 0.143,2.371 0.651,2.135 1.283 C 1.994 1.661,2.001 1.265,2.000 8.701 C 2.000 14.427,2.006 15.616,2.036 15.688 C 2.086 15.808,2.271 15.967,2.387 15.988 C 2.440 15.998,2.525 16.000,2.575 15.991 C 2.626 15.983,3.860 15.334,5.317 14.548 C 6.775 13.763,7.982 13.120,8.000 13.120 C 8.018 13.120,9.225 13.763,10.683 14.548 C 12.140 15.334,13.374 15.983,13.425 15.991 C 13.475 16.000,13.560 15.998,13.613 15.988 C 13.729 15.967,13.914 15.808,13.964 15.688 C 13.994 15.616,14.000 14.428,14.000 8.706 C 14.000 1.147,14.010 1.641,13.844 1.233 C 13.666 0.795,13.309 0.422,12.864 0.208 C 12.426 -0.003,12.861 0.015,8.080 0.010 C 5.726 0.008,3.741 0.016,3.669 0.028 M12.430 1.100 C 12.608 1.188,12.833 1.416,12.915 1.593 L 12.973 1.720 12.980 8.142 L 12.987 14.565 12.740 14.432 C 12.604 14.360,11.515 13.786,10.320 13.157 C 8.220 12.052,8.142 12.013,8.000 12.013 C 7.858 12.013,7.776 12.054,5.440 13.284 L 3.027 14.554 3.020 8.191 C 3.012 1.140,2.999 1.681,3.189 1.424 C 3.313 1.257,3.488 1.123,3.662 1.062 C 3.793 1.017,4.025 1.015,8.040 1.021 L 12.280 1.027 12.430 1.100 M6.280 5.058 C 6.156 5.123,6.103 5.177,6.050 5.293 C 5.990 5.424,5.987 5.570,6.041 5.699 C 6.066 5.761,6.303 6.020,6.680 6.399 L 7.279 7.001 6.719 7.561 C 6.411 7.868,6.128 8.165,6.089 8.219 C 5.955 8.413,5.986 8.700,6.159 8.866 C 6.301 9.002,6.559 9.032,6.747 8.934 C 6.784 8.915,7.080 8.635,7.407 8.311 L 8.000 7.723 8.593 8.311 C 8.920 8.635,9.216 8.915,9.253 8.934 C 9.434 9.029,9.694 9.003,9.831 8.877 C 9.918 8.797,9.999 8.625,9.999 8.520 C 10.000 8.300,9.967 8.253,9.331 7.613 L 8.721 6.998 9.243 6.479 C 9.530 6.194,9.811 5.903,9.868 5.833 C 10.151 5.482,9.936 5.013,9.493 5.013 C 9.418 5.013,9.319 5.033,9.272 5.057 C 9.225 5.081,8.920 5.365,8.593 5.689 L 8.000 6.277 7.407 5.689 C 7.080 5.365,6.775 5.081,6.728 5.057 C 6.620 5.002,6.385 5.002,6.280 5.058 " stroke="none" fill-rule="evenodd"></path></svg>