<svg width="16" height="16" fill="currentColor" xmlns="http://www.w3.org/2000/svg"><path d="M3.669 0.028 C 2.991 0.143,2.371 0.651,2.135 1.283 C 1.994 1.661,2.001 1.265,2.000 8.701 C 2.000 14.427,2.006 15.616,2.036 15.688 C 2.086 15.808,2.271 15.967,2.387 15.988 C 2.440 15.998,2.526 15.999,2.580 15.991 C 2.635 15.982,3.820 15.352,5.338 14.523 L 8.000 13.072 10.662 14.523 C 12.180 15.352,13.365 15.982,13.420 15.991 C 13.474 15.999,13.560 15.998,13.613 15.988 C 13.729 15.967,13.914 15.808,13.964 15.688 C 13.994 15.616,14.000 14.428,14.000 8.706 C 14.000 1.147,14.010 1.641,13.844 1.233 C 13.666 0.795,13.309 0.422,12.864 0.208 C 12.426 -0.003,12.861 0.015,8.080 0.010 C 5.726 0.008,3.741 0.016,3.669 0.028 M8.180 4.041 C 8.298 4.091,8.389 4.171,8.449 4.280 C 8.487 4.349,8.495 4.478,8.502 5.180 L 8.510 6.000 9.296 6.000 C 10.137 6.000,10.200 6.008,10.342 6.141 C 10.577 6.360,10.525 6.762,10.240 6.929 L 10.120 7.000 9.315 7.008 L 8.510 7.017 8.502 7.822 L 8.493 8.627 8.423 8.747 C 8.230 9.075,7.770 9.075,7.577 8.747 L 7.507 8.627 7.498 7.822 L 7.490 7.017 6.685 7.008 C 5.883 7.000,5.880 7.000,5.764 6.934 C 5.477 6.769,5.422 6.361,5.658 6.141 C 5.800 6.008,5.863 6.000,6.704 6.000 L 7.490 6.000 7.498 5.180 C 7.505 4.478,7.513 4.349,7.551 4.280 C 7.680 4.046,7.948 3.944,8.180 4.041 " stroke="none" fill-rule="evenodd"></path></svg>