<svg width="16" height="16" fill="currentColor" xmlns="http://www.w3.org/2000/svg"><path d="M3.669 0.028 C 2.991 0.143,2.371 0.651,2.135 1.283 C 1.994 1.661,2.001 1.265,2.000 8.701 C 2.000 14.427,2.006 15.616,2.036 15.688 C 2.086 15.808,2.271 15.967,2.387 15.988 C 2.440 15.998,2.526 15.999,2.580 15.991 C 2.635 15.982,3.820 15.352,5.338 14.523 L 8.000 13.072 10.662 14.523 C 12.180 15.352,13.365 15.982,13.420 15.991 C 13.474 15.999,13.560 15.998,13.613 15.988 C 13.729 15.967,13.914 15.808,13.964 15.688 C 13.994 15.616,14.000 14.428,14.000 8.706 C 14.000 1.147,14.010 1.641,13.844 1.233 C 13.666 0.795,13.309 0.422,12.864 0.208 C 12.426 -0.003,12.861 0.015,8.080 0.010 C 5.726 0.008,3.741 0.016,3.669 0.028 M7.310 4.038 C 7.516 4.082,7.727 4.182,7.887 4.312 L 8.000 4.404 8.113 4.312 C 8.348 4.121,8.687 4.001,8.987 4.001 C 9.480 4.001,10.006 4.286,10.268 4.696 C 10.582 5.184,10.569 5.810,10.232 6.473 C 9.898 7.130,9.161 7.890,8.249 8.517 C 8.130 8.599,8.017 8.667,8.000 8.667 C 7.958 8.667,7.601 8.420,7.253 8.150 C 6.872 7.855,6.267 7.244,6.053 6.940 C 5.857 6.660,5.682 6.329,5.604 6.092 C 5.481 5.718,5.478 5.275,5.597 4.962 C 5.850 4.295,6.604 3.889,7.310 4.038 " stroke="none" fill-rule="evenodd"></path></svg>