<svg width="16" height="16" fill="currentColor" xmlns="http://www.w3.org/2000/svg"><path d="M3.669 0.028 C 2.991 0.143,2.371 0.651,2.135 1.283 C 1.994 1.661,2.001 1.265,2.000 8.701 C 2.000 14.427,2.006 15.616,2.036 15.688 C 2.086 15.808,2.271 15.967,2.387 15.988 C 2.440 15.998,2.526 15.999,2.580 15.991 C 2.635 15.982,3.820 15.352,5.338 14.523 L 8.000 13.072 10.662 14.523 C 12.180 15.352,13.365 15.982,13.420 15.991 C 13.474 15.999,13.560 15.998,13.613 15.988 C 13.729 15.967,13.914 15.808,13.964 15.688 C 13.994 15.616,14.000 14.428,14.000 8.706 C 14.000 1.147,14.010 1.641,13.844 1.233 C 13.666 0.795,13.309 0.422,12.864 0.208 C 12.426 -0.003,12.861 0.015,8.080 0.010 C 5.726 0.008,3.741 0.016,3.669 0.028 M10.180 6.041 C 10.383 6.126,10.488 6.281,10.488 6.496 C 10.488 6.680,10.398 6.836,10.240 6.929 L 10.120 7.000 8.000 7.000 L 5.880 7.000 5.764 6.934 C 5.477 6.769,5.422 6.361,5.658 6.141 C 5.811 5.998,5.741 6.002,7.994 6.001 C 9.820 6.000,10.094 6.005,10.180 6.041 " stroke="none" fill-rule="evenodd"></path></svg>