<svg width="16" height="16" fill="currentColor" xmlns="http://www.w3.org/2000/svg"><path d="M13.800 0.050 C 13.671 0.110,13.590 0.194,13.535 0.326 C 13.501 0.408,13.493 0.562,13.493 1.212 L 13.493 1.999 7.127 2.006 L 0.760 2.013 0.587 2.097 C 0.366 2.203,0.201 2.367,0.096 2.587 L 0.013 2.760 0.006 3.887 L -0.002 5.013 8.000 5.013 L 16.002 5.013 15.994 3.887 L 15.987 2.760 15.911 2.597 C 15.816 2.391,15.609 2.185,15.400 2.089 C 15.255 2.022,15.205 2.014,14.873 2.005 L 14.507 1.994 14.506 1.204 C 14.506 0.492,14.501 0.403,14.456 0.307 C 14.336 0.045,14.051 -0.066,13.800 0.050 M2.701 3.050 C 2.880 3.127,2.987 3.298,2.987 3.509 C 2.987 4.040,2.271 4.181,2.050 3.694 C 1.903 3.370,2.130 3.017,2.488 3.014 C 2.558 3.014,2.654 3.030,2.701 3.050 M4.701 3.050 C 4.880 3.127,4.987 3.298,4.987 3.509 C 4.987 4.040,4.271 4.181,4.050 3.694 C 3.903 3.370,4.130 3.017,4.488 3.014 C 4.558 3.014,4.654 3.030,4.701 3.050 M9.728 3.064 C 9.782 3.092,9.847 3.137,9.872 3.165 C 9.937 3.237,10.000 3.398,10.000 3.493 C 10.000 3.686,9.827 3.925,9.655 3.973 C 9.597 3.989,8.942 4.000,8.000 4.000 C 7.058 4.000,6.403 3.989,6.345 3.973 C 6.170 3.925,5.999 3.684,6.001 3.488 C 6.001 3.383,6.079 3.204,6.150 3.143 C 6.303 3.012,6.249 3.016,7.994 3.014 C 9.547 3.013,9.634 3.016,9.728 3.064 M11.728 3.064 C 11.850 3.126,11.906 3.187,11.959 3.313 C 12.013 3.442,12.010 3.562,11.950 3.694 C 11.775 4.078,11.254 4.101,11.066 3.732 C 11.004 3.610,10.996 3.390,11.051 3.285 C 11.092 3.207,11.208 3.091,11.293 3.044 C 11.380 2.997,11.617 3.007,11.728 3.064 M13.728 3.064 C 13.850 3.126,13.906 3.187,13.959 3.313 C 14.013 3.442,14.010 3.562,13.950 3.694 C 13.775 4.078,13.254 4.101,13.066 3.732 C 13.004 3.610,12.996 3.390,13.051 3.285 C 13.092 3.207,13.208 3.091,13.293 3.044 C 13.380 2.997,13.617 3.007,13.728 3.064 M0.006 10.127 L 0.013 14.253 0.083 14.400 C 0.229 14.707,0.510 14.924,0.838 14.984 C 1.062 15.025,14.938 15.025,15.162 14.984 C 15.490 14.924,15.771 14.707,15.917 14.400 L 15.987 14.253 15.994 10.127 L 16.001 6.000 8.000 6.000 L -0.001 6.000 0.006 10.127 M4.845 8.028 C 5.912 8.173,6.790 9.028,6.961 10.091 C 7.007 10.376,6.981 10.919,6.908 11.169 C 6.664 12.016,6.005 12.674,5.169 12.906 C 4.561 13.075,3.940 13.011,3.360 12.720 C 2.177 12.126,1.669 10.638,2.241 9.442 C 2.721 8.439,3.751 7.880,4.845 8.028 M12.114 8.078 C 13.155 8.347,13.915 9.259,13.990 10.330 C 14.059 11.314,13.512 12.282,12.640 12.720 C 12.060 13.011,11.439 13.075,10.831 12.906 C 9.992 12.673,9.337 12.019,9.092 11.169 C 9.019 10.919,8.993 10.376,9.039 10.091 C 9.153 9.380,9.589 8.739,10.214 8.361 C 10.451 8.218,10.858 8.069,11.120 8.029 C 11.375 7.991,11.870 8.015,12.114 8.078 M4.110 9.055 C 3.465 9.229,3.010 9.823,3.007 10.494 C 3.006 10.921,3.143 11.250,3.453 11.560 C 3.765 11.872,4.153 12.019,4.587 11.991 C 5.874 11.907,6.467 10.360,5.560 9.453 C 5.360 9.253,5.135 9.121,4.880 9.053 C 4.695 9.004,4.297 9.005,4.110 9.055 M11.108 9.054 C 10.865 9.121,10.635 9.258,10.440 9.453 C 10.127 9.766,9.981 10.150,10.009 10.587 C 10.093 11.874,11.639 12.467,12.547 11.560 C 12.857 11.250,12.994 10.921,12.993 10.494 C 12.990 9.819,12.530 9.224,11.879 9.054 C 11.688 9.004,11.290 9.004,11.108 9.054 M4.687 10.041 C 4.813 10.094,4.874 10.150,4.936 10.272 C 5.084 10.563,4.916 10.915,4.594 10.988 C 4.390 11.034,4.140 10.906,4.051 10.710 C 3.935 10.454,4.044 10.171,4.307 10.050 C 4.437 9.990,4.557 9.987,4.687 10.041 M11.674 10.041 C 11.806 10.096,11.890 10.178,11.950 10.307 C 12.081 10.590,11.915 10.913,11.603 10.983 C 11.539 10.997,11.473 11.005,11.457 11.000 C 11.440 10.995,11.394 10.984,11.354 10.975 C 11.265 10.956,11.104 10.819,11.052 10.717 C 11.031 10.676,11.013 10.582,11.013 10.507 C 11.013 10.142,11.349 9.906,11.674 10.041 " stroke="none" fill-rule="evenodd"></path></svg>