<svg width="16" height="16" fill="currentColor" xmlns="http://www.w3.org/2000/svg"><path d="M13.800 0.050 C 13.671 0.110,13.590 0.194,13.535 0.326 C 13.501 0.408,13.493 0.562,13.493 1.212 L 13.493 1.999 7.127 2.006 L 0.760 2.013 0.587 2.097 C 0.366 2.203,0.201 2.367,0.096 2.587 L 0.013 2.760 0.013 8.507 L 0.013 14.253 0.083 14.400 C 0.229 14.707,0.510 14.924,0.838 14.984 C 1.062 15.025,14.938 15.025,15.162 14.984 C 15.490 14.924,15.771 14.707,15.917 14.400 L 15.987 14.253 15.987 8.507 L 15.987 2.760 15.911 2.597 C 15.816 2.391,15.609 2.185,15.400 2.089 C 15.255 2.022,15.205 2.014,14.873 2.005 L 14.507 1.994 14.506 1.204 C 14.506 0.492,14.501 0.403,14.456 0.307 C 14.336 0.045,14.051 -0.066,13.800 0.050 M14.987 4.507 L 14.987 6.000 8.000 6.000 L 1.013 6.000 1.013 4.507 L 1.013 3.013 8.000 3.013 L 14.987 3.013 14.987 4.507 M2.306 4.050 C 1.974 4.201,1.901 4.609,2.161 4.858 C 2.257 4.949,2.461 5.025,2.544 5.000 C 2.560 4.995,2.606 4.984,2.646 4.975 C 2.727 4.957,2.893 4.823,2.939 4.737 C 3.070 4.492,2.961 4.165,2.710 4.051 C 2.571 3.988,2.443 3.988,2.306 4.050 M4.306 4.050 C 3.974 4.201,3.901 4.609,4.161 4.858 C 4.257 4.949,4.461 5.025,4.544 5.000 C 4.560 4.995,4.606 4.984,4.646 4.975 C 4.727 4.957,4.893 4.823,4.939 4.737 C 5.070 4.492,4.961 4.165,4.710 4.051 C 4.571 3.988,4.443 3.988,4.306 4.050 M6.306 4.050 C 5.864 4.251,5.927 4.883,6.400 4.984 C 6.587 5.024,9.413 5.024,9.600 4.984 C 9.961 4.907,10.121 4.464,9.885 4.195 C 9.709 3.994,9.777 4.001,8.000 4.001 C 6.522 4.001,6.406 4.005,6.306 4.050 M11.290 4.051 C 11.039 4.165,10.930 4.492,11.061 4.737 C 11.107 4.823,11.273 4.957,11.354 4.975 C 11.394 4.984,11.440 4.995,11.456 5.000 C 11.472 5.005,11.542 4.997,11.611 4.982 C 11.961 4.907,12.117 4.459,11.885 4.195 C 11.724 4.011,11.498 3.956,11.290 4.051 M13.290 4.051 C 13.039 4.165,12.930 4.492,13.061 4.737 C 13.107 4.823,13.273 4.957,13.354 4.975 C 13.394 4.984,13.440 4.995,13.456 5.000 C 13.472 5.005,13.542 4.997,13.611 4.982 C 13.961 4.907,14.117 4.459,13.885 4.195 C 13.724 4.011,13.498 3.956,13.290 4.051 M14.987 10.507 L 14.987 14.000 8.000 14.000 L 1.013 14.000 1.013 10.507 L 1.013 7.013 8.000 7.013 L 14.987 7.013 14.987 10.507 M4.121 8.030 C 3.890 8.063,3.696 8.124,3.444 8.242 C 2.515 8.675,1.952 9.613,2.008 10.635 C 2.065 11.688,2.753 12.566,3.773 12.888 C 5.096 13.305,6.531 12.518,6.906 11.169 C 7.075 10.561,7.011 9.940,6.720 9.360 C 6.248 8.420,5.183 7.875,4.121 8.030 M11.120 8.029 C 10.858 8.069,10.452 8.218,10.208 8.363 C 9.973 8.504,9.584 8.864,9.445 9.070 C 8.761 10.085,8.881 11.409,9.736 12.264 C 10.510 13.037,11.651 13.217,12.640 12.720 C 13.845 12.115,14.344 10.609,13.741 9.400 C 13.417 8.749,12.813 8.258,12.114 8.078 C 11.870 8.015,11.375 7.991,11.120 8.029 M4.880 9.053 C 5.571 9.237,6.055 9.918,5.990 10.616 C 5.945 11.098,5.705 11.496,5.299 11.762 C 4.465 12.307,3.312 11.855,3.053 10.880 C 3.003 10.690,3.003 10.319,3.053 10.125 C 3.184 9.622,3.611 9.190,4.110 9.055 C 4.297 9.005,4.695 9.004,4.880 9.053 M11.879 9.054 C 12.386 9.186,12.814 9.616,12.947 10.125 C 12.997 10.319,12.997 10.690,12.947 10.880 C 12.879 11.135,12.747 11.360,12.547 11.560 C 12.235 11.872,11.847 12.019,11.413 11.991 C 10.334 11.920,9.686 10.797,10.167 9.831 C 10.353 9.458,10.709 9.164,11.108 9.054 C 11.290 9.004,11.688 9.004,11.879 9.054 M4.306 10.050 C 3.974 10.201,3.901 10.609,4.161 10.858 C 4.257 10.949,4.461 11.025,4.544 11.000 C 4.560 10.995,4.606 10.984,4.646 10.975 C 4.727 10.957,4.893 10.823,4.939 10.737 C 5.070 10.492,4.961 10.165,4.710 10.051 C 4.571 9.988,4.443 9.988,4.306 10.050 M11.290 10.051 C 11.039 10.165,10.930 10.492,11.061 10.737 C 11.107 10.823,11.273 10.957,11.354 10.975 C 11.394 10.984,11.440 10.995,11.456 11.000 C 11.472 11.005,11.542 10.997,11.611 10.982 C 11.961 10.907,12.117 10.459,11.885 10.195 C 11.724 10.011,11.498 9.956,11.290 10.051 " stroke="none" fill-rule="evenodd"></path></svg>