<svg width="16" height="16" fill="currentColor" xmlns="http://www.w3.org/2000/svg"><path d="M7.803 0.037 C 7.563 0.127,7.382 0.427,7.426 0.661 C 7.492 1.012,7.744 1.173,8.224 1.173 C 8.890 1.173,9.807 1.359,10.492 1.631 C 12.653 2.492,14.208 4.330,14.692 6.595 C 14.872 7.439,14.872 8.561,14.692 9.405 C 14.283 11.319,13.111 12.936,11.409 13.930 C 10.630 14.385,9.691 14.691,8.733 14.802 C 8.587 14.819,8.257 14.833,8.000 14.833 C 7.743 14.833,7.413 14.819,7.267 14.802 C 5.643 14.614,4.195 13.902,3.079 12.743 C 2.143 11.770,1.508 10.527,1.269 9.200 C 1.093 8.216,1.152 7.083,1.432 6.093 C 1.578 5.577,1.931 4.791,2.215 4.352 L 2.323 4.184 2.385 4.232 C 2.420 4.258,2.577 4.392,2.735 4.530 C 2.892 4.667,3.071 4.802,3.131 4.829 C 3.440 4.969,3.810 4.789,3.902 4.453 C 3.924 4.373,4.017 3.713,4.108 2.987 C 4.292 1.522,4.292 1.531,4.128 1.345 C 4.007 1.207,3.856 1.138,3.680 1.141 C 3.470 1.144,0.972 1.834,0.830 1.928 C 0.700 2.014,0.587 2.230,0.587 2.393 C 0.587 2.526,0.644 2.678,0.728 2.770 C 0.773 2.819,1.138 3.143,1.423 3.389 C 1.436 3.400,1.380 3.509,1.300 3.631 C 0.467 4.897,0.000 6.465,0.000 8.000 C 0.000 10.245,0.975 12.441,2.627 13.919 C 3.868 15.030,5.218 15.663,6.906 15.927 C 7.209 15.975,7.385 15.984,8.000 15.984 C 8.806 15.984,9.167 15.945,9.827 15.787 C 13.034 15.022,15.426 12.418,15.921 9.153 C 15.994 8.672,16.018 7.859,15.975 7.355 C 15.878 6.230,15.534 5.088,15.010 4.145 C 13.636 1.674,11.112 0.119,8.304 0.013 C 7.992 0.002,7.884 0.007,7.803 0.037 M5.493 8.000 L 5.493 11.680 6.067 11.680 L 6.640 11.680 6.640 10.266 L 6.640 8.853 7.431 8.860 L 8.223 8.867 8.967 10.273 L 9.712 11.680 10.363 11.680 C 10.721 11.680,11.013 11.673,11.013 11.665 C 11.013 11.657,10.667 11.018,10.244 10.245 C 9.821 9.472,9.455 8.802,9.430 8.755 L 9.387 8.669 9.607 8.565 C 10.035 8.363,10.374 8.031,10.573 7.616 C 10.842 7.057,10.873 6.276,10.652 5.687 C 10.374 4.950,9.692 4.461,8.787 4.350 C 8.637 4.331,7.969 4.320,7.020 4.320 L 5.493 4.320 5.493 8.000 M8.606 5.322 C 9.130 5.430,9.483 5.767,9.587 6.259 C 9.636 6.490,9.636 6.711,9.586 6.946 C 9.489 7.406,9.244 7.684,8.795 7.844 C 8.634 7.901,8.582 7.905,7.633 7.914 L 6.640 7.923 6.640 6.602 L 6.640 5.280 7.521 5.280 C 8.220 5.280,8.444 5.289,8.606 5.322 " stroke="none" fill-rule="evenodd"></path></svg>