<svg width="16" height="16" fill="currentColor" xmlns="http://www.w3.org/2000/svg"><path d="M1.588 0.044 C 1.138 0.140,0.712 0.404,0.437 0.756 C -0.241 1.621,-0.115 2.821,0.727 3.538 C 0.899 3.685,1.255 3.879,1.407 3.909 L 1.493 3.927 1.493 8.001 L 1.493 12.076 1.407 12.094 C 1.277 12.122,0.884 12.331,0.743 12.448 C -0.040 13.096,-0.225 14.200,0.306 15.053 C 0.445 15.277,0.752 15.580,0.975 15.714 C 1.582 16.079,2.401 16.085,3.009 15.729 C 3.092 15.680,3.274 15.526,3.414 15.387 C 3.623 15.179,3.689 15.093,3.780 14.907 C 3.842 14.782,3.900 14.641,3.909 14.593 L 3.927 14.507 8.000 14.507 L 12.074 14.507 12.090 14.594 C 12.116 14.728,12.300 15.076,12.429 15.233 C 12.981 15.905,13.824 16.159,14.618 15.893 C 14.934 15.787,15.139 15.663,15.382 15.428 C 16.249 14.594,16.190 13.218,15.253 12.445 C 15.115 12.331,14.721 12.121,14.593 12.094 L 14.507 12.076 14.507 8.001 L 14.507 3.927 14.593 3.909 C 14.641 3.900,14.782 3.842,14.907 3.780 C 15.093 3.689,15.179 3.623,15.387 3.414 C 15.665 3.135,15.784 2.955,15.881 2.668 C 15.978 2.383,16.009 2.154,15.991 1.874 C 15.945 1.175,15.518 0.531,14.898 0.227 C 14.558 0.060,14.370 0.016,14.000 0.016 C 13.631 0.016,13.442 0.060,13.107 0.225 C 12.842 0.355,12.613 0.539,12.420 0.779 C 12.288 0.944,12.119 1.266,12.090 1.409 L 12.073 1.493 7.997 1.493 C 4.132 1.493,3.920 1.491,3.919 1.447 C 3.919 1.421,3.885 1.321,3.844 1.224 C 3.468 0.345,2.514 -0.154,1.588 0.044 M2.431 1.101 C 2.608 1.188,2.833 1.417,2.915 1.593 C 2.963 1.698,2.973 1.768,2.973 2.000 C 2.973 2.251,2.966 2.295,2.901 2.428 C 2.707 2.821,2.268 3.054,1.848 2.986 C 1.533 2.935,1.241 2.717,1.101 2.430 C 1.009 2.243,0.986 1.920,1.050 1.701 C 1.130 1.427,1.385 1.160,1.662 1.061 C 1.873 0.986,2.234 1.005,2.431 1.101 M14.431 1.101 C 14.608 1.188,14.833 1.417,14.915 1.593 C 14.963 1.698,14.973 1.768,14.973 2.000 C 14.973 2.251,14.966 2.295,14.901 2.428 C 14.707 2.821,14.268 3.054,13.848 2.986 C 13.533 2.935,13.241 2.717,13.101 2.430 C 13.009 2.243,12.986 1.920,13.050 1.701 C 13.130 1.427,13.385 1.160,13.662 1.061 C 13.873 0.986,14.234 1.005,14.431 1.101 M12.091 2.593 C 12.120 2.742,12.314 3.100,12.452 3.261 C 12.525 3.346,12.654 3.475,12.739 3.548 C 12.900 3.686,13.258 3.880,13.407 3.909 L 13.493 3.927 13.493 8.003 C 13.493 11.374,13.487 12.080,13.458 12.080 C 13.386 12.080,13.076 12.222,12.907 12.332 C 12.701 12.466,12.461 12.703,12.327 12.904 C 12.223 13.061,12.082 13.372,12.081 13.447 C 12.080 13.491,11.868 13.493,8.000 13.493 C 4.132 13.493,3.920 13.491,3.919 13.447 C 3.918 13.372,3.777 13.061,3.673 12.904 C 3.539 12.703,3.299 12.466,3.093 12.332 C 2.915 12.216,2.620 12.080,2.547 12.080 C 2.511 12.080,2.507 11.645,2.507 8.003 L 2.507 3.927 2.593 3.909 C 2.742 3.880,3.100 3.686,3.261 3.548 C 3.346 3.475,3.475 3.346,3.548 3.261 C 3.686 3.100,3.880 2.742,3.909 2.593 L 3.927 2.507 8.000 2.507 L 12.073 2.507 12.091 2.593 M2.431 13.101 C 2.608 13.188,2.833 13.417,2.915 13.593 C 2.963 13.698,2.973 13.768,2.973 14.000 C 2.973 14.251,2.966 14.295,2.901 14.428 C 2.707 14.821,2.268 15.054,1.848 14.986 C 1.533 14.935,1.241 14.717,1.101 14.430 C 1.009 14.243,0.986 13.920,1.050 13.701 C 1.130 13.427,1.385 13.160,1.662 13.061 C 1.873 12.986,2.234 13.005,2.431 13.101 M14.431 13.101 C 14.608 13.188,14.833 13.417,14.915 13.593 C 14.963 13.698,14.973 13.768,14.973 14.000 C 14.973 14.251,14.966 14.295,14.901 14.428 C 14.707 14.821,14.268 15.054,13.848 14.986 C 13.533 14.935,13.241 14.717,13.101 14.430 C 13.009 14.243,12.986 13.920,13.050 13.701 C 13.130 13.427,13.385 13.160,13.662 13.061 C 13.873 12.986,14.234 13.005,14.431 13.101 " stroke="none" fill-rule="evenodd"></path></svg>