<svg width="16" height="16" fill="currentColor" xmlns="http://www.w3.org/2000/svg"><path d="M10.306 0.050 C 9.864 0.251,9.927 0.883,10.400 0.984 C 10.491 1.004,11.152 1.013,12.408 1.013 L 14.280 1.013 10.169 5.127 C 6.796 8.503,6.053 9.258,6.026 9.343 C 5.933 9.640,6.125 9.948,6.431 9.990 C 6.692 10.025,6.429 10.272,10.873 5.831 L 14.987 1.720 14.987 3.592 C 14.987 4.848,14.996 5.509,15.016 5.600 C 15.072 5.863,15.316 6.029,15.587 5.988 C 15.744 5.965,15.932 5.803,15.973 5.657 C 16.009 5.526,16.010 0.476,15.973 0.345 C 15.959 0.293,15.908 0.213,15.860 0.167 C 15.678 -0.009,15.840 -0.000,12.994 0.001 C 10.555 0.001,10.407 0.004,10.306 0.050 M1.108 3.054 C 0.726 3.159,0.332 3.478,0.167 3.815 C -0.012 4.182,-0.002 3.798,0.006 9.579 L 0.013 14.813 0.076 14.979 C 0.239 15.415,0.585 15.761,1.021 15.924 L 1.187 15.987 6.421 15.994 C 10.991 16.000,11.677 15.996,11.827 15.961 C 12.360 15.837,12.786 15.433,12.951 14.893 C 12.998 14.741,13.000 14.555,13.000 11.240 L 13.000 7.747 12.939 7.633 C 12.746 7.271,12.221 7.290,12.050 7.666 C 12.003 7.768,12.001 7.933,12.000 11.187 C 11.999 14.462,11.997 14.604,11.949 14.710 C 11.885 14.850,11.753 14.951,11.585 14.986 C 11.495 15.006,9.866 15.012,6.413 15.007 C 1.775 15.001,1.367 14.996,1.293 14.956 C 1.203 14.906,1.088 14.789,1.043 14.702 C 1.021 14.659,1.013 13.252,1.013 9.507 C 1.013 4.520,1.015 4.368,1.064 4.272 C 1.126 4.150,1.187 4.094,1.313 4.041 C 1.400 4.005,1.814 4.000,4.819 3.999 C 8.067 3.999,8.232 3.997,8.334 3.950 C 8.462 3.892,8.570 3.772,8.614 3.638 C 8.682 3.433,8.570 3.167,8.374 3.067 C 8.270 3.014,8.230 3.013,4.754 3.016 C 1.888 3.018,1.216 3.025,1.108 3.054 " stroke="none" fill-rule="evenodd"></path></svg>