<svg width="16" height="16" fill="currentColor" xmlns="http://www.w3.org/2000/svg"><path d="M1.182 2.040 C 0.668 2.152,0.250 2.527,0.075 3.035 L 0.013 3.213 0.013 8.000 L 0.013 12.787 0.075 12.965 C 0.226 13.403,0.576 13.758,1.021 13.924 L 1.187 13.987 5.420 13.994 C 10.091 14.002,9.813 14.011,10.180 13.834 C 10.405 13.725,10.699 13.439,10.818 13.213 C 10.994 12.878,10.995 12.870,11.007 11.660 C 11.019 10.473,11.009 10.349,10.889 10.192 C 10.809 10.087,10.640 10.001,10.512 10.001 C 10.316 9.999,10.075 10.170,10.027 10.345 C 10.011 10.400,10.000 10.895,10.000 11.520 C 9.999 12.517,9.995 12.608,9.949 12.710 C 9.885 12.850,9.753 12.951,9.585 12.986 C 9.495 13.006,8.171 13.012,5.413 13.007 C 1.707 13.001,1.367 12.996,1.293 12.956 C 1.203 12.906,1.088 12.789,1.043 12.702 C 1.001 12.619,1.001 3.381,1.043 3.298 C 1.087 3.212,1.203 3.094,1.285 3.051 C 1.346 3.019,1.985 3.013,5.493 3.013 C 9.499 3.013,9.632 3.015,9.728 3.064 C 9.850 3.126,9.906 3.187,9.959 3.313 C 9.994 3.396,10.000 3.580,10.000 4.486 C 10.000 5.127,10.011 5.599,10.027 5.657 C 10.043 5.715,10.101 5.797,10.171 5.862 C 10.377 6.051,10.664 6.042,10.858 5.838 C 11.011 5.677,11.019 5.596,11.007 4.338 C 10.997 3.381,10.990 3.221,10.949 3.093 C 10.778 2.561,10.335 2.148,9.820 2.039 C 9.561 1.984,1.435 1.985,1.182 2.040 M12.271 4.564 C 12.060 4.669,11.953 4.931,12.027 5.164 C 12.053 5.245,12.289 5.496,13.169 6.380 L 14.278 7.493 9.826 7.500 L 5.373 7.507 5.257 7.573 C 4.923 7.764,4.929 8.261,5.267 8.438 L 5.373 8.493 9.826 8.500 L 14.278 8.507 13.169 9.620 C 11.978 10.816,11.980 10.813,12.007 11.057 C 12.042 11.368,12.387 11.576,12.685 11.465 C 12.797 11.424,15.887 8.332,15.949 8.200 C 16.010 8.070,16.013 7.950,15.959 7.819 C 15.908 7.696,12.863 4.636,12.714 4.558 C 12.585 4.491,12.415 4.493,12.271 4.564 " stroke="none" fill-rule="evenodd"></path></svg>