<svg width="16" height="16" fill="currentColor" xmlns="http://www.w3.org/2000/svg"><path d="M1.179 2.041 C 0.741 2.136,0.338 2.451,0.156 2.840 C -0.011 3.199,-0.002 2.862,0.006 8.069 L 0.013 12.813 0.076 12.979 C 0.239 13.415,0.585 13.761,1.021 13.924 L 1.187 13.987 5.420 13.994 C 10.091 14.002,9.813 14.011,10.180 13.834 C 10.405 13.725,10.699 13.439,10.818 13.213 C 10.994 12.878,10.995 12.870,11.007 11.660 C 11.019 10.473,11.009 10.349,10.889 10.192 C 10.809 10.087,10.640 10.001,10.512 10.001 C 10.316 9.999,10.075 10.170,10.027 10.345 C 10.011 10.400,10.000 10.895,10.000 11.520 C 9.999 12.517,9.995 12.608,9.949 12.710 C 9.885 12.850,9.753 12.951,9.585 12.986 C 9.495 13.006,8.171 13.012,5.413 13.007 C 1.707 13.001,1.367 12.996,1.293 12.956 C 1.203 12.906,1.088 12.789,1.043 12.702 C 1.001 12.619,1.001 3.381,1.043 3.298 C 1.087 3.212,1.203 3.094,1.285 3.051 C 1.346 3.019,1.985 3.013,5.493 3.013 C 9.499 3.013,9.632 3.015,9.728 3.064 C 9.850 3.126,9.906 3.187,9.959 3.313 C 9.994 3.396,10.000 3.580,10.000 4.486 C 10.000 5.127,10.011 5.599,10.027 5.657 C 10.043 5.715,10.101 5.797,10.171 5.862 C 10.377 6.051,10.664 6.042,10.858 5.838 C 11.011 5.677,11.019 5.596,11.007 4.338 C 10.997 3.381,10.990 3.221,10.949 3.093 C 10.778 2.561,10.335 2.148,9.820 2.039 C 9.558 1.984,1.435 1.985,1.179 2.041 M7.280 4.559 C 7.229 4.587,6.477 5.321,5.609 6.191 C 4.037 7.767,4.031 7.774,4.012 7.903 C 3.972 8.179,3.909 8.105,5.636 9.836 C 6.543 10.746,7.250 11.435,7.299 11.456 C 7.596 11.585,7.957 11.377,7.993 11.057 C 8.020 10.813,8.022 10.816,6.831 9.620 L 5.722 8.507 10.174 8.500 L 14.627 8.493 14.733 8.438 C 15.071 8.261,15.077 7.764,14.743 7.573 L 14.627 7.507 10.174 7.500 L 5.722 7.493 6.831 6.380 C 8.022 5.184,8.020 5.187,7.993 4.943 C 7.956 4.611,7.570 4.403,7.280 4.559 " stroke="none" fill-rule="evenodd"></path></svg>