<svg width="16" height="16" fill="currentColor" xmlns="http://www.w3.org/2000/svg"><path d="M2.110 1.055 C 1.775 1.146,1.437 1.393,1.238 1.693 C 1.189 1.767,1.116 1.923,1.075 2.040 L 1.000 2.253 1.000 7.493 C 1.000 12.504,1.002 12.740,1.049 12.893 C 1.214 13.433,1.640 13.837,2.173 13.961 C 2.321 13.995,2.815 14.000,5.821 13.994 L 9.297 13.987 9.408 13.913 C 9.660 13.746,9.704 13.383,9.498 13.163 C 9.350 13.005,9.551 13.013,5.888 13.013 C 3.670 13.012,2.479 13.003,2.401 12.985 C 2.243 12.948,2.113 12.845,2.051 12.710 C 2.003 12.604,2.001 12.424,2.001 7.507 C 2.001 2.611,2.003 2.409,2.050 2.307 C 2.110 2.178,2.194 2.096,2.326 2.041 C 2.414 2.005,2.980 2.000,7.507 2.000 C 12.019 2.000,12.599 2.005,12.687 2.041 C 12.813 2.094,12.874 2.150,12.936 2.272 C 12.985 2.368,12.987 2.487,12.987 5.731 C 12.987 8.073,12.996 9.132,13.016 9.227 C 13.050 9.385,13.167 9.536,13.299 9.591 C 13.517 9.682,13.785 9.602,13.913 9.408 L 13.987 9.297 13.994 5.821 C 14.001 1.987,14.009 2.183,13.834 1.820 C 13.666 1.472,13.275 1.158,12.880 1.053 C 12.661 0.995,2.327 0.997,2.110 1.055 M5.266 5.063 C 5.161 5.127,5.046 5.264,5.020 5.355 C 4.994 5.449,4.994 10.552,5.020 10.646 C 5.044 10.730,5.181 10.894,5.263 10.939 C 5.508 11.070,5.835 10.961,5.949 10.710 C 5.996 10.606,5.999 10.497,5.999 8.653 L 6.000 6.707 10.127 10.831 C 14.157 14.859,14.256 14.956,14.381 14.981 C 14.510 15.008,14.636 14.993,14.737 14.939 C 14.823 14.893,14.957 14.727,14.975 14.646 C 14.984 14.606,14.995 14.560,15.000 14.544 C 15.005 14.528,14.997 14.456,14.982 14.384 C 14.956 14.255,14.892 14.190,10.831 10.127 L 6.707 6.000 8.653 5.999 C 10.497 5.999,10.606 5.996,10.710 5.949 C 10.960 5.836,11.070 5.507,10.940 5.266 C 10.896 5.186,10.769 5.073,10.685 5.042 C 10.634 5.022,9.773 5.013,7.978 5.013 C 5.462 5.014,5.343 5.016,5.266 5.063 " stroke="none" fill-rule="evenodd"></path></svg>