<svg width="16" height="16" fill="currentColor" xmlns="http://www.w3.org/2000/svg"><path d="M1.293 1.044 C 1.070 1.167,0.970 1.378,1.019 1.619 C 1.044 1.744,1.141 1.843,5.169 5.873 L 9.293 10.000 7.347 10.001 C 5.503 10.001,5.394 10.004,5.290 10.051 C 5.039 10.165,4.930 10.492,5.061 10.737 C 5.106 10.819,5.270 10.956,5.354 10.980 C 5.394 10.991,6.597 11.000,8.027 11.000 C 10.423 11.000,10.633 10.996,10.709 10.955 C 10.816 10.896,10.954 10.739,10.980 10.646 C 11.006 10.551,11.006 5.449,10.980 5.354 C 10.951 5.253,10.805 5.093,10.701 5.049 C 10.519 4.973,10.252 5.027,10.128 5.165 C 9.999 5.308,10.000 5.283,10.000 7.352 L 10.000 9.293 5.900 5.196 C 3.645 2.942,1.762 1.079,1.715 1.056 C 1.617 1.007,1.373 1.001,1.293 1.044 M6.697 2.029 C 6.498 2.108,6.373 2.287,6.373 2.493 C 6.373 2.742,6.527 2.931,6.773 2.984 C 6.868 3.004,7.927 3.013,10.269 3.013 C 13.513 3.013,13.632 3.015,13.728 3.064 C 13.850 3.126,13.906 3.187,13.959 3.313 C 13.995 3.401,14.000 3.981,14.000 8.493 C 14.000 14.103,14.013 13.674,13.833 13.860 C 13.787 13.908,13.707 13.959,13.655 13.973 C 13.594 13.990,11.734 14.000,8.486 14.000 C 3.026 14.000,3.314 14.007,3.165 13.872 C 3.019 13.740,3.028 13.961,3.013 10.213 C 3.000 6.826,2.999 6.758,2.947 6.655 C 2.861 6.487,2.721 6.392,2.537 6.379 C 2.340 6.364,2.191 6.435,2.087 6.592 L 2.013 6.703 2.006 10.179 C 2.000 13.232,2.004 13.677,2.040 13.833 C 2.163 14.361,2.568 14.786,3.107 14.951 C 3.260 14.998,3.496 15.000,8.507 15.000 L 13.747 15.000 13.955 14.926 C 14.439 14.755,14.755 14.439,14.926 13.955 L 15.000 13.747 15.000 8.507 C 15.000 3.496,14.998 3.260,14.951 3.107 C 14.786 2.569,14.342 2.150,13.820 2.039 C 13.669 2.007,13.087 2.001,10.200 2.002 C 8.110 2.003,6.735 2.013,6.697 2.029 " stroke="none" fill-rule="evenodd"></path></svg>