<svg width="16" height="16" fill="currentColor" xmlns="http://www.w3.org/2000/svg"><path d="M7.787 0.051 C 7.632 0.103,0.489 2.968,0.402 3.013 C 0.254 3.089,0.113 3.248,0.054 3.405 C 0.001 3.547,0.000 3.603,0.000 8.000 C 0.000 12.402,0.001 12.453,0.054 12.595 C 0.112 12.751,0.273 12.932,0.411 12.997 C 0.456 13.018,2.146 13.696,4.167 14.504 C 7.591 15.874,7.851 15.973,8.000 15.973 C 8.149 15.973,8.409 15.874,11.832 14.504 C 13.852 13.696,15.541 13.017,15.586 12.995 C 15.729 12.923,15.891 12.743,15.947 12.593 C 15.999 12.454,16.000 12.379,16.000 8.000 C 16.000 3.621,15.999 3.546,15.947 3.407 C 15.891 3.257,15.729 3.077,15.586 3.005 C 15.542 2.983,13.868 2.309,11.866 1.507 C 8.471 0.147,8.214 0.048,8.040 0.038 C 7.937 0.033,7.823 0.038,7.787 0.051 M11.006 2.243 C 11.340 2.376,11.643 2.497,11.680 2.512 C 11.738 2.534,11.340 2.700,8.720 3.748 C 7.055 4.414,5.671 4.968,5.645 4.980 C 5.609 4.996,5.913 5.128,6.778 5.474 C 7.428 5.734,7.978 5.947,8.000 5.947 C 8.022 5.947,9.416 5.396,11.097 4.724 L 14.153 3.501 14.563 3.665 L 14.973 3.830 14.973 4.040 L 14.973 4.251 11.740 5.544 L 8.507 6.837 8.507 10.799 L 8.507 14.760 8.253 14.859 L 8.000 14.959 7.747 14.859 L 7.493 14.760 7.493 10.799 L 7.493 6.837 4.260 5.544 L 1.027 4.251 1.027 4.040 L 1.027 3.830 1.437 3.665 L 1.847 3.501 3.047 3.981 L 4.246 4.461 7.316 3.232 C 9.005 2.556,10.390 2.002,10.393 2.001 C 10.397 2.001,10.673 2.109,11.006 2.243 " stroke="none" fill-rule="evenodd"></path></svg>