<svg width="16" height="16" fill="currentColor" xmlns="http://www.w3.org/2000/svg"><path d="M6.167 2.040 C 5.663 2.150,5.220 2.568,5.051 3.093 C 5.010 3.221,5.003 3.381,4.993 4.338 C 4.981 5.596,4.989 5.677,5.142 5.838 C 5.336 6.042,5.623 6.051,5.829 5.862 C 5.899 5.797,5.957 5.715,5.973 5.657 C 5.989 5.599,6.000 5.127,6.000 4.486 C 6.000 3.580,6.006 3.396,6.041 3.313 C 6.094 3.187,6.150 3.126,6.272 3.064 C 6.368 3.015,6.501 3.013,10.493 3.013 C 13.934 3.013,14.629 3.019,14.701 3.050 C 14.805 3.094,14.920 3.213,14.958 3.315 C 14.978 3.367,14.987 4.808,14.987 8.000 C 14.987 11.192,14.978 12.633,14.958 12.685 C 14.923 12.778,14.812 12.897,14.707 12.956 C 14.633 12.996,14.293 13.001,10.587 13.007 C 7.829 13.012,6.505 13.006,6.415 12.986 C 6.247 12.951,6.115 12.850,6.051 12.710 C 6.005 12.608,6.001 12.517,6.000 11.520 C 6.000 10.895,5.989 10.400,5.973 10.345 C 5.925 10.170,5.684 9.999,5.488 10.001 C 5.360 10.001,5.191 10.087,5.111 10.192 C 4.991 10.349,4.981 10.473,4.993 11.660 C 5.005 12.870,5.006 12.878,5.182 13.213 C 5.301 13.439,5.595 13.725,5.820 13.834 C 6.187 14.011,5.909 14.002,10.580 13.994 L 14.813 13.987 14.979 13.924 C 15.424 13.758,15.774 13.403,15.925 12.965 L 15.987 12.787 15.987 8.000 L 15.987 3.213 15.925 3.035 C 15.771 2.589,15.405 2.224,14.962 2.073 L 14.787 2.013 10.560 2.009 C 7.079 2.005,6.304 2.010,6.167 2.040 M3.293 4.550 C 3.177 4.611,0.112 7.675,0.052 7.792 C -0.014 7.918,-0.014 8.082,0.052 8.208 C 0.119 8.336,3.216 11.429,3.315 11.465 C 3.613 11.576,3.958 11.368,3.993 11.057 C 4.020 10.813,4.022 10.816,2.831 9.620 L 1.722 8.507 6.174 8.500 L 10.627 8.493 10.733 8.438 C 11.071 8.261,11.077 7.764,10.743 7.573 L 10.627 7.507 6.174 7.500 L 1.722 7.493 2.831 6.380 C 4.022 5.184,4.020 5.187,3.993 4.943 C 3.957 4.620,3.573 4.405,3.293 4.550 " stroke="none" fill-rule="evenodd"></path></svg>