<svg width="16" height="16" fill="currentColor" xmlns="http://www.w3.org/2000/svg"><path d="M7.680 0.116 C 7.502 0.155,0.329 3.022,0.207 3.103 C 0.159 3.135,0.093 3.214,0.060 3.280 L -0.001 3.399 0.006 7.906 L 0.013 12.413 0.100 12.590 C 0.192 12.779,0.354 12.949,0.526 13.036 C 0.775 13.163,7.864 15.981,7.965 15.993 C 8.064 16.005,8.466 15.851,11.765 14.532 C 13.793 13.721,15.502 13.025,15.563 12.984 C 15.713 12.882,15.835 12.737,15.917 12.561 L 15.987 12.413 15.994 7.906 L 16.001 3.399 15.940 3.280 C 15.907 3.214,15.841 3.135,15.793 3.103 C 15.653 3.010,8.456 0.141,8.281 0.109 C 8.083 0.073,7.869 0.075,7.680 0.116 M11.113 2.284 C 12.752 2.939,14.102 3.482,14.113 3.492 C 14.135 3.511,8.068 5.947,8.000 5.947 C 7.941 5.947,1.865 3.512,1.882 3.496 C 1.890 3.488,3.237 2.945,4.875 2.289 C 7.448 1.258,7.872 1.096,7.993 1.095 C 8.117 1.093,8.480 1.232,11.113 2.284 M7.493 10.794 C 7.493 14.550,7.491 14.750,7.447 14.735 C 7.421 14.727,5.966 14.147,4.213 13.445 L 1.027 12.171 1.020 8.208 L 1.013 4.245 4.253 5.541 L 7.493 6.837 7.493 10.794 M14.967 12.163 C 14.947 12.182,8.547 14.747,8.520 14.747 C 8.513 14.747,8.507 12.967,8.507 10.792 L 8.507 6.837 11.740 5.544 L 14.973 4.251 14.980 8.197 C 14.984 10.368,14.978 12.152,14.967 12.163 " stroke="none" fill-rule="evenodd"></path></svg>