<svg width="16" height="16" fill="currentColor" xmlns="http://www.w3.org/2000/svg"><path d="M7.798 0.049 C 7.567 0.157,3.983 2.223,3.910 2.289 C 3.755 2.432,3.760 2.353,3.760 4.582 L 3.760 6.633 2.005 7.636 C 1.039 8.187,0.216 8.665,0.175 8.697 C 0.134 8.729,0.078 8.805,0.051 8.865 C 0.004 8.968,0.001 9.090,0.001 11.208 C -0.000 13.624,-0.004 13.547,0.141 13.701 C 0.173 13.736,1.075 14.264,2.145 14.875 L 4.090 15.987 4.252 15.987 L 4.413 15.987 6.197 14.967 C 7.177 14.406,7.989 13.947,7.999 13.947 C 8.010 13.947,8.822 14.406,9.803 14.967 L 11.587 15.987 11.747 15.987 L 11.907 15.987 13.840 14.883 C 14.903 14.275,15.802 13.753,15.837 13.723 C 15.872 13.692,15.923 13.619,15.950 13.560 C 15.996 13.459,15.999 13.335,15.999 11.213 C 15.999 9.090,15.996 8.968,15.949 8.865 C 15.922 8.805,15.871 8.733,15.835 8.705 C 15.799 8.676,14.982 8.203,14.019 7.653 L 12.269 6.653 12.268 4.675 C 12.267 3.340,12.257 2.651,12.237 2.559 C 12.220 2.476,12.177 2.387,12.128 2.332 C 12.074 2.270,11.428 1.886,10.104 1.130 C 7.971 -0.088,8.032 -0.060,7.798 0.049 M9.385 1.867 C 10.118 2.285,10.719 2.633,10.719 2.641 C 10.720 2.648,10.107 3.005,9.359 3.434 L 7.997 4.212 6.639 3.433 C 5.891 3.005,5.280 2.648,5.281 2.640 C 5.283 2.610,7.963 1.096,8.006 1.101 C 8.031 1.104,8.651 1.449,9.385 1.867 M6.133 4.297 L 7.493 5.074 7.493 6.641 L 7.493 8.207 6.127 7.425 L 4.760 6.643 4.753 5.081 C 4.749 4.223,4.752 3.520,4.760 3.520 C 4.767 3.520,5.385 3.870,6.133 4.297 M11.253 5.078 L 11.253 6.636 9.897 7.411 C 9.151 7.838,8.533 8.187,8.523 8.187 C 8.514 8.187,8.507 7.486,8.507 6.630 L 8.507 5.074 9.860 4.299 C 10.604 3.872,11.222 3.523,11.233 3.522 C 11.244 3.521,11.253 4.221,11.253 5.078 M5.632 8.296 L 6.990 9.072 5.635 9.847 C 4.890 10.273,4.267 10.622,4.251 10.622 C 4.200 10.622,1.522 9.081,1.541 9.062 C 1.574 9.029,4.226 7.520,4.250 7.520 C 4.263 7.520,4.885 7.869,5.632 8.296 M13.107 8.282 C 13.840 8.701,14.448 9.052,14.459 9.062 C 14.478 9.081,11.800 10.622,11.749 10.622 C 11.733 10.622,11.110 10.273,10.365 9.847 L 9.010 9.072 10.365 8.297 C 11.110 7.871,11.732 7.521,11.747 7.521 C 11.761 7.520,12.373 7.863,13.107 8.282 M2.541 10.813 L 3.758 11.507 3.759 13.075 L 3.760 14.643 3.605 14.555 C 3.519 14.506,2.901 14.155,2.232 13.773 L 1.015 13.080 1.014 11.512 L 1.013 9.944 1.169 10.032 C 1.254 10.080,1.872 10.432,2.541 10.813 M7.460 13.082 C 7.413 13.125,4.799 14.613,4.770 14.613 C 4.757 14.613,4.747 13.938,4.747 13.060 L 4.747 11.507 6.114 10.727 L 7.480 9.947 7.487 11.499 C 7.492 12.719,7.487 13.058,7.460 13.082 M10.062 10.827 L 11.253 11.507 11.253 13.074 C 11.253 14.560,11.251 14.640,11.207 14.616 C 11.181 14.601,10.566 14.249,9.840 13.834 L 8.520 13.078 8.513 11.510 L 8.506 9.942 8.689 10.045 C 8.790 10.101,9.407 10.453,10.062 10.827 M14.986 11.513 L 14.985 13.080 13.651 13.840 C 12.917 14.258,12.306 14.604,12.292 14.609 C 12.276 14.614,12.267 14.028,12.267 13.058 L 12.267 11.497 13.620 10.723 C 14.364 10.297,14.976 9.948,14.980 9.947 C 14.984 9.947,14.986 10.652,14.986 11.513 " stroke="none" fill-rule="evenodd"></path></svg>