<svg width="16" height="16" fill="currentColor" xmlns="http://www.w3.org/2000/svg"><path d="M0.307 0.051 C 0.171 0.113,0.060 0.232,0.026 0.348 C -0.009 0.471,-0.009 3.529,0.026 3.652 C 0.061 3.773,0.228 3.941,0.346 3.974 C 0.398 3.988,0.791 4.000,1.220 4.000 L 2.000 4.000 2.000 5.000 L 2.000 6.000 1.212 6.000 C 0.344 6.000,0.306 6.006,0.140 6.167 C 0.092 6.213,0.041 6.293,0.027 6.345 C -0.009 6.472,-0.009 9.528,0.026 9.654 C 0.059 9.772,0.227 9.939,0.348 9.974 C 0.399 9.988,0.787 10.000,1.220 10.000 L 2.000 10.000 2.000 11.000 L 2.000 12.000 1.212 12.000 C 0.344 12.000,0.306 12.006,0.140 12.167 C 0.092 12.213,0.041 12.293,0.027 12.345 C -0.009 12.472,-0.009 15.528,0.026 15.654 C 0.059 15.772,0.227 15.939,0.348 15.974 C 0.474 16.010,15.525 16.010,15.654 15.974 C 15.772 15.941,15.939 15.773,15.974 15.652 C 16.009 15.529,16.009 12.473,15.973 12.345 C 15.959 12.293,15.908 12.213,15.860 12.167 C 15.694 12.006,15.656 12.000,14.788 12.000 L 14.000 12.000 14.000 11.000 L 14.000 10.000 14.780 10.000 C 15.209 10.000,15.602 9.988,15.654 9.974 C 15.772 9.941,15.939 9.773,15.974 9.652 C 16.009 9.529,16.009 6.473,15.973 6.345 C 15.959 6.293,15.908 6.213,15.860 6.167 C 15.694 6.006,15.656 6.000,14.788 6.000 L 14.000 6.000 14.000 5.000 L 14.000 4.000 14.780 4.000 C 15.209 4.000,15.602 3.988,15.654 3.974 C 15.772 3.941,15.939 3.773,15.974 3.652 C 16.009 3.529,16.009 0.473,15.973 0.345 C 15.942 0.232,15.810 0.098,15.674 0.041 C 15.585 0.004,14.783 0.000,7.994 0.001 C 0.672 0.001,0.410 0.003,0.307 0.051 M4.500 2.007 L 4.493 3.000 2.753 3.007 L 1.013 3.014 1.013 2.014 L 1.013 1.013 2.760 1.013 L 4.507 1.013 4.500 2.007 M10.500 2.007 L 10.493 3.000 8.000 3.000 L 5.507 3.000 5.500 2.007 L 5.493 1.013 8.000 1.013 L 10.507 1.013 10.500 2.007 M14.987 2.014 L 14.987 3.014 13.247 3.007 L 11.507 3.000 11.500 2.007 L 11.493 1.013 13.240 1.013 L 14.987 1.013 14.987 2.014 M7.493 5.000 L 7.493 6.000 5.253 6.000 L 3.013 6.000 3.013 5.000 L 3.013 4.000 5.253 4.000 L 7.493 4.000 7.493 5.000 M12.987 5.000 L 12.987 6.000 10.747 6.000 L 8.507 6.000 8.507 5.000 L 8.507 4.000 10.747 4.000 L 12.987 4.000 12.987 5.000 M4.500 8.007 L 4.493 9.000 2.753 9.007 L 1.013 9.014 1.013 8.014 L 1.013 7.013 2.760 7.013 L 4.507 7.013 4.500 8.007 M10.500 8.007 L 10.493 9.000 8.000 9.000 L 5.507 9.000 5.500 8.007 L 5.493 7.013 8.000 7.013 L 10.507 7.013 10.500 8.007 M14.987 8.014 L 14.987 9.014 13.247 9.007 L 11.507 9.000 11.500 8.007 L 11.493 7.013 13.240 7.013 L 14.987 7.013 14.987 8.014 M7.493 11.000 L 7.493 12.000 5.253 12.000 L 3.013 12.000 3.013 11.000 L 3.013 10.000 5.253 10.000 L 7.493 10.000 7.493 11.000 M12.987 11.000 L 12.987 12.000 10.747 12.000 L 8.507 12.000 8.507 11.000 L 8.507 10.000 10.747 10.000 L 12.987 10.000 12.987 11.000 M4.500 14.007 L 4.493 15.000 2.753 15.007 L 1.013 15.014 1.013 14.014 L 1.013 13.013 2.760 13.013 L 4.507 13.013 4.500 14.007 M10.500 14.007 L 10.493 15.000 8.000 15.000 L 5.507 15.000 5.500 14.007 L 5.493 13.013 8.000 13.013 L 10.507 13.013 10.500 14.007 M14.987 14.014 L 14.987 15.014 13.247 15.007 L 11.507 15.000 11.500 14.007 L 11.493 13.013 13.240 13.013 L 14.987 13.013 14.987 14.014 " stroke="none" fill-rule="evenodd"></path></svg>