<svg width="16" height="16" fill="currentColor" xmlns="http://www.w3.org/2000/svg"><path d="M7.799 2.050 C 7.579 2.150,7.457 2.387,7.515 2.604 C 7.559 2.769,7.615 2.844,7.751 2.924 C 7.911 3.017,8.089 3.017,8.249 2.924 C 8.385 2.844,8.441 2.769,8.485 2.604 C 8.562 2.316,8.308 2.001,8.000 2.001 C 7.949 2.001,7.858 2.023,7.799 2.050 M3.937 3.638 C 3.745 3.708,3.601 3.909,3.601 4.107 C 3.601 4.329,3.802 4.562,4.025 4.600 C 4.359 4.656,4.679 4.309,4.590 3.987 C 4.556 3.865,4.447 3.718,4.352 3.669 C 4.236 3.610,4.052 3.596,3.937 3.638 M11.667 3.670 C 11.542 3.738,11.490 3.792,11.437 3.907 C 11.296 4.213,11.492 4.569,11.823 4.606 C 12.126 4.641,12.373 4.420,12.373 4.114 C 12.373 3.955,12.310 3.828,12.179 3.723 C 12.095 3.656,12.050 3.641,11.912 3.634 C 11.796 3.628,11.723 3.639,11.667 3.670 M7.467 4.038 C 6.989 4.108,6.622 4.221,6.213 4.427 C 5.105 4.984,4.351 5.968,4.074 7.220 C 3.990 7.597,3.990 8.403,4.074 8.780 C 4.434 10.406,5.595 11.567,7.218 11.925 C 7.598 12.009,8.402 12.009,8.782 11.925 C 10.404 11.567,11.567 10.404,11.925 8.782 C 12.009 8.402,12.009 7.598,11.925 7.218 C 11.561 5.567,10.316 4.353,8.694 4.064 C 8.368 4.007,7.773 3.994,7.467 4.038 M8.537 5.052 C 9.742 5.264,10.736 6.258,10.948 7.463 C 11.028 7.922,10.985 8.535,10.845 8.947 C 10.424 10.179,9.294 10.992,8.000 10.995 C 6.713 10.997,5.576 10.178,5.155 8.947 C 4.964 8.387,4.965 7.612,5.157 7.049 C 5.300 6.630,5.574 6.187,5.881 5.881 C 6.292 5.469,6.888 5.155,7.449 5.053 C 7.711 5.005,8.266 5.005,8.537 5.052 M2.440 7.506 C 2.425 7.511,2.381 7.522,2.342 7.531 C 2.173 7.568,2.001 7.805,2.001 8.000 C 2.001 8.308,2.316 8.562,2.604 8.485 C 2.769 8.441,2.844 8.385,2.924 8.249 C 3.103 7.944,2.917 7.567,2.560 7.512 C 2.509 7.504,2.455 7.502,2.440 7.506 M13.396 7.519 C 13.065 7.598,12.906 7.959,13.076 8.249 C 13.156 8.385,13.231 8.441,13.396 8.485 C 13.613 8.543,13.850 8.421,13.950 8.201 C 14.117 7.833,13.786 7.426,13.396 7.519 M3.988 11.418 C 3.686 11.486,3.522 11.814,3.650 12.093 C 3.735 12.276,3.923 12.401,4.112 12.399 C 4.325 12.398,4.558 12.200,4.598 11.987 C 4.619 11.876,4.575 11.696,4.502 11.593 C 4.402 11.453,4.175 11.376,3.988 11.418 M11.658 11.444 C 11.384 11.579,11.304 11.954,11.497 12.199 C 11.620 12.355,11.895 12.419,12.088 12.337 C 12.191 12.292,12.306 12.174,12.345 12.072 C 12.412 11.895,12.354 11.634,12.222 11.514 C 12.076 11.383,11.841 11.353,11.658 11.444 M7.730 13.090 C 7.397 13.301,7.436 13.785,7.799 13.950 C 8.000 14.041,8.236 13.987,8.379 13.818 C 8.654 13.491,8.428 13.013,8.000 13.013 C 7.881 13.013,7.826 13.029,7.730 13.090 " stroke="none" fill-rule="evenodd"></path></svg>