<svg width="16" height="16" fill="currentColor" xmlns="http://www.w3.org/2000/svg"><path d="M7.730 5.090 C 7.546 5.206,7.455 5.443,7.519 5.638 C 7.586 5.841,7.797 5.999,8.000 5.999 C 8.279 5.999,8.540 5.711,8.498 5.452 C 8.437 5.075,8.045 4.890,7.730 5.090 M3.937 6.652 C 3.805 6.699,3.712 6.786,3.650 6.920 C 3.593 7.044,3.589 7.119,3.630 7.267 C 3.687 7.475,3.968 7.655,4.169 7.612 C 4.393 7.563,4.525 7.444,4.588 7.232 C 4.659 6.997,4.493 6.710,4.247 6.642 C 4.118 6.606,4.063 6.607,3.937 6.652 M11.723 6.651 C 11.591 6.700,11.449 6.837,11.411 6.955 C 11.364 7.096,11.393 7.289,11.479 7.401 C 11.671 7.653,11.974 7.688,12.204 7.486 C 12.323 7.382,12.373 7.268,12.373 7.104 C 12.373 6.779,12.029 6.538,11.723 6.651 M7.360 7.052 C 6.546 7.197,5.838 7.548,5.258 8.095 C 4.494 8.813,4.025 9.847,4.016 10.828 C 4.013 11.149,4.016 11.168,4.085 11.272 C 4.128 11.337,4.203 11.403,4.273 11.437 L 4.390 11.493 8.000 11.493 L 11.610 11.493 11.727 11.437 C 11.797 11.403,11.872 11.337,11.915 11.272 C 11.984 11.167,11.987 11.150,11.983 10.828 C 11.981 10.603,11.961 10.405,11.923 10.223 C 11.592 8.634,10.400 7.434,8.800 7.079 C 8.528 7.019,7.638 7.002,7.360 7.052 M8.373 8.028 C 8.701 8.070,8.983 8.154,9.293 8.304 C 10.168 8.725,10.726 9.444,10.945 10.433 L 10.961 10.507 8.001 10.507 C 6.372 10.507,5.040 10.498,5.040 10.487 C 5.040 10.387,5.201 9.907,5.306 9.692 C 5.867 8.537,7.108 7.864,8.373 8.028 M2.271 10.564 C 2.099 10.649,2.013 10.794,2.013 11.000 C 2.013 11.210,2.100 11.353,2.280 11.440 C 2.669 11.629,3.080 11.292,2.973 10.871 C 2.896 10.568,2.560 10.421,2.271 10.564 M13.293 10.551 C 13.047 10.680,12.952 10.919,13.039 11.183 C 13.079 11.305,13.251 11.459,13.373 11.482 C 13.832 11.568,14.163 11.102,13.912 10.724 C 13.787 10.534,13.486 10.450,13.293 10.551 " stroke="none" fill-rule="evenodd"></path></svg>