<svg width="16" height="16" fill="currentColor" xmlns="http://www.w3.org/2000/svg"><path d="M7.347 0.029 C 4.295 0.279,1.625 2.277,0.533 5.127 L 0.485 5.255 0.771 4.966 C 1.664 4.065,2.866 3.490,4.213 3.317 C 4.676 3.258,5.424 3.265,5.887 3.332 C 8.146 3.663,9.735 5.263,9.972 7.446 C 10.011 7.807,10.006 8.197,9.960 8.393 C 9.880 8.732,9.697 9.086,9.464 9.352 C 9.389 9.438,9.327 9.538,9.318 9.588 C 9.243 9.986,9.887 10.384,10.893 10.563 C 11.334 10.641,12.345 10.663,12.733 10.604 C 13.567 10.476,14.283 10.111,14.876 9.514 C 15.284 9.101,15.597 8.605,15.784 8.072 C 16.088 7.204,16.068 6.109,15.730 5.080 C 15.592 4.663,15.181 3.828,14.921 3.440 C 13.838 1.823,12.121 0.689,10.060 0.227 C 9.206 0.037,8.176 -0.039,7.347 0.029 M4.401 4.297 C 2.613 4.484,0.858 5.579,0.254 6.886 C 0.028 7.376,-0.029 7.773,0.024 8.480 C 0.110 9.610,0.357 10.544,0.822 11.504 C 1.243 12.372,1.735 13.046,2.459 13.749 C 3.632 14.887,5.110 15.625,6.753 15.893 C 7.213 15.968,7.252 15.962,7.007 15.855 C 5.856 15.349,4.889 14.415,4.299 13.238 C 4.037 12.715,3.857 12.134,3.773 11.543 C 3.718 11.153,3.717 10.432,3.772 10.027 C 4.013 8.229,5.124 6.666,6.747 5.842 C 7.266 5.578,7.713 5.473,8.167 5.511 C 8.280 5.520,8.373 5.522,8.373 5.516 C 8.373 5.490,8.001 5.200,7.799 5.068 C 6.878 4.464,5.593 4.173,4.401 4.297 M5.930 7.687 C 5.379 8.268,4.982 9.050,4.796 9.920 C 4.746 10.158,4.736 10.285,4.735 10.760 C 4.734 11.239,4.742 11.363,4.793 11.615 C 4.978 12.524,5.411 13.346,6.047 13.993 C 6.337 14.287,6.565 14.463,7.040 14.760 C 8.074 15.405,8.769 15.637,9.773 15.670 C 10.256 15.686,10.320 15.673,10.939 15.431 C 12.411 14.856,13.661 13.860,14.606 12.511 C 14.767 12.281,14.800 12.216,14.800 12.129 C 14.800 11.916,14.600 11.831,14.373 11.947 C 14.315 11.977,14.138 12.054,13.980 12.118 C 12.846 12.583,11.586 12.714,10.388 12.493 C 7.979 12.048,6.195 10.327,6.029 8.288 C 6.014 8.101,6.012 7.880,6.024 7.773 C 6.036 7.671,6.044 7.584,6.041 7.581 C 6.039 7.577,5.989 7.625,5.930 7.687 " stroke="none" fill-rule="evenodd"></path></svg>