<svg width="16" height="16" fill="currentColor" xmlns="http://www.w3.org/2000/svg"><path d="M15.316 0.039 C 15.067 0.147,13.723 1.107,12.707 1.902 C 10.188 3.874,7.244 6.696,5.999 8.333 C 5.595 8.865,5.153 9.677,4.844 10.455 L 4.689 10.844 4.324 10.832 C 4.010 10.822,3.929 10.828,3.751 10.877 C 3.506 10.944,3.326 11.031,3.104 11.188 C 2.780 11.418,2.542 11.733,1.961 12.701 C 1.429 13.585,1.243 13.799,0.790 14.044 C 0.302 14.308,0.152 14.671,0.374 15.059 C 0.597 15.449,1.315 15.664,2.520 15.699 C 3.238 15.720,3.929 15.651,4.587 15.491 C 4.876 15.421,5.301 15.214,5.507 15.044 C 6.010 14.627,6.351 13.940,6.461 13.124 L 6.494 12.878 6.747 12.776 C 7.697 12.394,8.369 11.896,9.238 10.933 C 11.362 8.581,13.892 4.848,15.428 1.800 C 15.883 0.896,16.000 0.631,16.000 0.498 C 16.000 0.163,15.619 -0.093,15.316 0.039 M13.892 2.564 C 12.511 5.045,10.527 7.917,8.839 9.878 C 8.156 10.670,7.730 11.076,7.249 11.393 C 6.909 11.617,6.282 11.920,6.160 11.920 C 6.137 11.920,5.995 11.796,5.844 11.644 L 5.568 11.367 5.639 11.170 C 6.010 10.140,6.482 9.297,7.091 8.573 C 8.696 6.668,11.252 4.279,13.692 2.403 C 13.941 2.211,14.148 2.060,14.154 2.065 C 14.159 2.070,14.041 2.295,13.892 2.564 M4.521 11.854 C 4.673 11.894,4.698 11.913,5.089 12.301 L 5.497 12.707 5.480 12.891 C 5.453 13.182,5.345 13.566,5.223 13.809 C 5.032 14.189,4.756 14.414,4.356 14.517 C 3.788 14.665,2.956 14.737,2.319 14.694 C 2.092 14.679,1.867 14.659,1.818 14.650 L 1.728 14.633 1.905 14.474 C 2.164 14.240,2.377 13.951,2.771 13.298 C 3.360 12.321,3.533 12.084,3.754 11.955 C 4.006 11.807,4.225 11.778,4.521 11.854 " stroke="none" fill-rule="evenodd"></path></svg>