<svg width="16" height="16" fill="currentColor" xmlns="http://www.w3.org/2000/svg"><path d="M4.324 0.509 C 4.128 0.587,4.002 0.768,4.001 0.972 C 4.000 1.030,4.097 1.395,4.215 1.782 L 4.430 2.487 4.355 2.575 C 3.901 3.109,3.734 3.353,3.509 3.811 C 3.258 4.323,3.064 5.005,3.027 5.507 C 3.018 5.624,3.005 5.783,2.997 5.860 L 2.983 6.000 2.711 6.000 C 2.380 6.000,2.276 5.973,2.167 5.860 C 2.027 5.716,2.000 5.615,2.000 5.236 C 2.000 4.945,1.992 4.880,1.943 4.780 C 1.830 4.545,1.518 4.438,1.288 4.556 C 1.036 4.684,0.970 4.879,0.996 5.419 C 1.008 5.681,1.027 5.805,1.080 5.961 C 1.238 6.432,1.569 6.763,2.041 6.921 C 2.206 6.976,2.318 6.993,2.616 7.006 L 2.987 7.022 2.987 7.511 L 2.987 8.000 2.193 8.001 C 1.305 8.001,1.249 8.011,1.112 8.191 C 1.046 8.278,0.981 8.481,1.000 8.543 C 1.005 8.560,1.016 8.606,1.025 8.646 C 1.045 8.737,1.181 8.894,1.291 8.955 C 1.362 8.994,1.482 9.001,2.180 9.008 L 2.987 9.017 2.987 9.508 L 2.987 10.000 2.673 10.000 C 2.501 10.001,2.279 10.018,2.180 10.039 C 1.658 10.150,1.209 10.574,1.050 11.107 C 1.014 11.230,1.003 11.365,1.001 11.693 C 1.000 12.110,1.002 12.123,1.072 12.243 C 1.237 12.523,1.573 12.585,1.816 12.380 C 1.964 12.256,1.999 12.138,1.999 11.752 C 2.000 11.303,2.050 11.177,2.272 11.064 C 2.352 11.023,2.430 11.013,2.677 11.013 L 2.983 11.013 2.997 11.153 C 3.005 11.230,3.019 11.383,3.028 11.493 C 3.053 11.802,3.141 12.220,3.252 12.559 C 3.801 14.230,5.202 15.500,6.909 15.876 C 7.076 15.912,7.276 15.951,7.353 15.960 L 7.493 15.978 7.493 11.496 L 7.493 7.013 5.253 7.013 L 3.013 7.013 3.013 6.507 L 3.013 6.000 8.000 6.000 L 12.987 6.000 12.987 6.507 L 12.987 7.013 10.747 7.013 L 8.507 7.013 8.507 11.496 L 8.507 15.978 8.647 15.960 C 8.724 15.951,8.924 15.912,9.091 15.876 C 10.390 15.590,11.544 14.769,12.253 13.625 C 12.651 12.983,12.925 12.160,12.974 11.463 C 12.982 11.340,12.995 11.189,13.003 11.127 L 13.017 11.013 13.323 11.013 C 13.570 11.013,13.648 11.023,13.728 11.064 C 13.950 11.177,14.000 11.303,14.001 11.752 C 14.001 12.025,14.011 12.115,14.050 12.201 C 14.150 12.421,14.387 12.543,14.604 12.485 C 14.770 12.440,14.844 12.385,14.928 12.243 C 14.998 12.123,15.000 12.110,14.999 11.693 C 14.997 11.365,14.986 11.230,14.950 11.107 C 14.791 10.574,14.342 10.150,13.820 10.039 C 13.721 10.018,13.499 10.001,13.327 10.000 L 13.013 10.000 13.013 9.508 L 13.013 9.017 13.820 9.008 C 14.518 9.001,14.638 8.994,14.709 8.955 C 14.819 8.894,14.955 8.737,14.975 8.646 C 14.984 8.606,14.995 8.560,15.000 8.543 C 15.019 8.481,14.954 8.278,14.888 8.191 C 14.751 8.011,14.695 8.001,13.807 8.001 L 13.013 8.000 13.013 7.511 L 13.013 7.022 13.384 7.006 C 13.682 6.993,13.794 6.976,13.959 6.921 C 14.431 6.763,14.762 6.432,14.920 5.961 C 14.973 5.805,14.992 5.681,15.004 5.419 C 15.030 4.879,14.964 4.684,14.712 4.556 C 14.482 4.438,14.170 4.545,14.057 4.780 C 14.008 4.880,14.000 4.945,14.000 5.236 C 14.000 5.615,13.973 5.716,13.833 5.860 C 13.724 5.973,13.620 6.000,13.289 6.000 L 13.017 6.000 13.003 5.860 C 12.995 5.783,12.982 5.624,12.973 5.507 C 12.936 5.005,12.742 4.323,12.491 3.811 C 12.266 3.353,12.099 3.108,11.645 2.576 L 11.570 2.488 11.785 1.780 C 11.903 1.391,12.000 1.026,11.999 0.970 C 11.997 0.606,11.600 0.369,11.280 0.540 C 11.214 0.575,11.135 0.640,11.105 0.685 C 11.075 0.729,10.980 0.995,10.894 1.276 C 10.808 1.557,10.726 1.787,10.712 1.787 C 10.698 1.787,10.617 1.744,10.531 1.692 C 10.107 1.434,9.549 1.221,8.987 1.100 C 8.677 1.033,8.608 1.029,8.000 1.029 C 7.392 1.029,7.323 1.033,7.013 1.100 C 6.453 1.220,5.929 1.420,5.470 1.689 C 5.379 1.743,5.295 1.787,5.283 1.787 C 5.272 1.787,5.192 1.557,5.106 1.276 C 5.020 0.995,4.925 0.729,4.895 0.685 C 4.785 0.522,4.505 0.436,4.324 0.509 " stroke="none" fill-rule="evenodd"></path></svg>