<svg width="16" height="16" fill="currentColor" xmlns="http://www.w3.org/2000/svg"><path d="M4.271 0.564 C 4.206 0.596,4.126 0.665,4.088 0.723 C 3.963 0.912,3.971 0.984,4.212 1.773 L 4.430 2.487 4.355 2.575 C 3.901 3.109,3.734 3.353,3.509 3.811 C 3.258 4.323,3.064 5.005,3.027 5.507 C 3.018 5.624,3.005 5.783,2.997 5.860 L 2.983 6.000 2.711 6.000 C 2.380 6.000,2.276 5.973,2.167 5.860 C 2.027 5.716,2.000 5.615,2.000 5.236 C 2.000 4.945,1.992 4.880,1.943 4.780 C 1.830 4.545,1.518 4.438,1.288 4.556 C 1.036 4.684,0.970 4.879,0.996 5.419 C 1.008 5.681,1.027 5.805,1.080 5.961 C 1.238 6.432,1.569 6.763,2.041 6.921 C 2.206 6.976,2.318 6.993,2.616 7.006 L 2.987 7.022 2.987 7.511 L 2.987 8.000 2.193 8.001 C 1.305 8.001,1.249 8.011,1.112 8.191 C 1.046 8.278,0.981 8.481,1.000 8.543 C 1.005 8.560,1.016 8.606,1.025 8.646 C 1.045 8.737,1.181 8.894,1.291 8.955 C 1.362 8.994,1.482 9.001,2.180 9.008 L 2.987 9.017 2.987 9.508 L 2.987 10.000 2.673 10.000 C 2.501 10.001,2.279 10.018,2.180 10.039 C 1.658 10.150,1.209 10.574,1.050 11.107 C 1.014 11.230,1.003 11.365,1.001 11.693 C 1.000 12.110,1.002 12.123,1.072 12.243 C 1.237 12.523,1.573 12.585,1.816 12.380 C 1.964 12.256,1.999 12.138,1.999 11.752 C 2.000 11.303,2.050 11.177,2.272 11.064 C 2.352 11.023,2.430 11.013,2.676 11.013 L 2.980 11.013 2.997 11.097 C 3.006 11.143,3.013 11.249,3.013 11.333 C 3.013 11.418,3.039 11.635,3.069 11.817 C 3.342 13.426,4.343 14.769,5.800 15.481 C 6.358 15.754,6.883 15.908,7.472 15.972 C 9.002 16.138,10.558 15.564,11.621 14.441 C 12.170 13.862,12.556 13.199,12.783 12.451 C 12.887 12.105,12.987 11.561,12.987 11.333 C 12.987 11.249,12.994 11.142,13.003 11.097 L 13.020 11.013 13.324 11.013 C 13.570 11.013,13.648 11.023,13.728 11.064 C 13.950 11.177,14.000 11.303,14.001 11.752 C 14.001 12.025,14.011 12.115,14.050 12.201 C 14.150 12.421,14.387 12.543,14.604 12.485 C 14.770 12.440,14.844 12.385,14.928 12.243 C 14.998 12.123,15.000 12.110,14.999 11.693 C 14.997 11.365,14.986 11.230,14.950 11.107 C 14.791 10.574,14.342 10.150,13.820 10.039 C 13.721 10.018,13.499 10.001,13.327 10.000 L 13.013 10.000 13.013 9.508 L 13.013 9.017 13.820 9.008 C 14.518 9.001,14.638 8.994,14.709 8.955 C 14.819 8.894,14.955 8.737,14.975 8.646 C 14.984 8.606,14.995 8.560,15.000 8.543 C 15.019 8.481,14.954 8.278,14.888 8.191 C 14.751 8.011,14.695 8.001,13.807 8.001 L 13.013 8.000 13.013 7.511 L 13.013 7.022 13.384 7.006 C 13.682 6.993,13.794 6.976,13.959 6.921 C 14.431 6.763,14.762 6.432,14.920 5.961 C 14.973 5.805,14.992 5.681,15.004 5.419 C 15.030 4.879,14.964 4.684,14.712 4.556 C 14.482 4.438,14.170 4.545,14.057 4.780 C 14.008 4.880,14.000 4.945,14.000 5.236 C 14.000 5.615,13.973 5.716,13.833 5.860 C 13.724 5.973,13.620 6.000,13.289 6.000 L 13.017 6.000 13.003 5.860 C 12.995 5.783,12.982 5.624,12.973 5.507 C 12.936 5.005,12.742 4.323,12.491 3.811 C 12.266 3.353,12.099 3.108,11.645 2.576 L 11.570 2.488 11.785 1.780 C 11.903 1.391,12.000 1.035,12.000 0.989 C 12.000 0.891,11.938 0.731,11.872 0.658 C 11.748 0.520,11.481 0.467,11.299 0.543 C 11.189 0.588,11.050 0.746,11.019 0.859 C 10.918 1.222,10.734 1.787,10.717 1.787 C 10.706 1.787,10.621 1.743,10.530 1.689 C 10.071 1.420,9.547 1.220,8.987 1.100 C 8.677 1.033,8.608 1.029,8.000 1.029 C 7.392 1.029,7.323 1.033,7.013 1.100 C 6.453 1.220,5.929 1.420,5.470 1.689 C 5.379 1.743,5.295 1.787,5.283 1.787 C 5.272 1.787,5.192 1.557,5.106 1.275 C 5.005 0.945,4.926 0.737,4.884 0.688 C 4.735 0.510,4.482 0.459,4.271 0.564 M8.773 2.080 C 9.755 2.279,10.609 2.818,11.211 3.619 C 11.311 3.752,11.468 4.016,11.573 4.227 C 11.828 4.742,11.943 5.162,11.988 5.753 L 12.007 6.000 8.000 6.000 L 3.992 6.000 4.011 5.756 C 4.054 5.184,4.172 4.743,4.411 4.253 C 4.625 3.816,4.850 3.500,5.176 3.175 C 5.483 2.870,5.767 2.660,6.140 2.466 C 6.589 2.231,7.040 2.089,7.522 2.028 C 7.835 1.989,8.452 2.014,8.773 2.080 M7.493 10.987 L 7.493 14.960 7.433 14.959 C 7.400 14.959,7.271 14.936,7.147 14.909 C 5.462 14.535,4.218 13.147,4.027 11.427 C 4.012 11.287,4.000 10.312,4.000 9.100 L 4.000 7.013 5.747 7.013 L 7.493 7.013 7.493 10.987 M11.993 9.260 C 11.983 11.440,11.981 11.515,11.925 11.772 C 11.610 13.227,10.639 14.328,9.253 14.799 C 9.060 14.865,8.659 14.959,8.567 14.959 L 8.507 14.960 8.507 10.987 L 8.507 7.013 10.255 7.013 L 12.003 7.013 11.993 9.260 " stroke="none" fill-rule="evenodd"></path></svg>