<svg width="16" height="16" fill="currentColor" xmlns="http://www.w3.org/2000/svg"><path d="M2.767 0.029 C 2.486 0.095,2.229 0.309,2.096 0.587 L 2.013 0.760 2.013 8.000 L 2.013 15.240 2.088 15.400 C 2.186 15.610,2.391 15.816,2.597 15.911 L 2.760 15.987 4.380 15.994 L 6.000 16.002 6.000 14.213 C 6.000 12.659,6.005 12.412,6.041 12.326 C 6.096 12.194,6.178 12.110,6.307 12.050 C 6.403 12.006,6.493 12.001,7.219 12.001 L 8.024 12.000 8.041 11.900 C 8.129 11.358,8.248 10.968,8.453 10.547 C 8.539 10.371,8.662 10.148,8.727 10.052 L 8.845 9.878 8.724 9.939 C 8.610 9.997,8.576 10.000,8.008 10.000 C 7.276 10.000,7.190 9.975,7.064 9.728 C 7.019 9.639,7.013 9.564,7.013 9.000 C 7.013 8.436,7.019 8.361,7.064 8.272 C 7.190 8.025,7.277 8.000,8.000 8.000 C 8.725 8.000,8.810 8.025,8.937 8.275 C 8.985 8.369,8.989 8.426,8.981 9.040 L 8.973 9.704 9.091 9.565 C 9.628 8.934,10.403 8.432,11.220 8.190 C 11.670 8.056,11.963 8.016,12.493 8.016 C 13.059 8.015,13.326 8.055,13.940 8.229 L 14.001 8.246 13.994 4.503 L 13.987 0.760 13.911 0.597 C 13.816 0.391,13.610 0.186,13.400 0.088 L 13.240 0.013 8.053 0.009 C 5.095 0.007,2.824 0.015,2.767 0.029 M5.693 2.050 C 5.822 2.110,5.904 2.194,5.959 2.326 C 6.019 2.470,6.019 3.530,5.959 3.674 C 5.902 3.810,5.768 3.942,5.655 3.973 C 5.532 4.008,4.468 4.008,4.345 3.973 C 4.232 3.942,4.098 3.810,4.041 3.674 C 3.981 3.530,3.981 2.470,4.041 2.326 C 4.096 2.194,4.178 2.110,4.307 2.050 C 4.400 2.007,4.486 2.001,5.000 2.001 C 5.514 2.001,5.600 2.007,5.693 2.050 M8.687 2.041 C 8.813 2.094,8.874 2.150,8.936 2.272 C 8.981 2.361,8.987 2.436,8.987 3.000 C 8.987 3.564,8.981 3.639,8.936 3.728 C 8.810 3.975,8.723 4.000,8.000 4.000 C 7.277 4.000,7.190 3.975,7.064 3.728 C 7.019 3.639,7.013 3.564,7.013 3.000 C 7.013 2.436,7.019 2.361,7.064 2.272 C 7.125 2.152,7.186 2.095,7.307 2.042 C 7.444 1.983,8.545 1.982,8.687 2.041 M11.693 2.050 C 11.822 2.110,11.904 2.194,11.959 2.326 C 12.019 2.470,12.019 3.530,11.959 3.674 C 11.902 3.810,11.768 3.942,11.655 3.973 C 11.532 4.008,10.468 4.008,10.345 3.973 C 10.232 3.942,10.098 3.810,10.041 3.674 C 9.981 3.530,9.981 2.470,10.041 2.326 C 10.096 2.194,10.178 2.110,10.307 2.050 C 10.400 2.007,10.486 2.001,11.000 2.001 C 11.514 2.001,11.600 2.007,11.693 2.050 M5.728 5.064 C 5.975 5.190,6.000 5.276,5.999 6.006 C 5.999 6.674,5.981 6.757,5.809 6.888 C 5.676 6.990,5.531 7.012,5.000 7.012 C 4.469 7.012,4.324 6.990,4.191 6.888 C 4.019 6.757,4.001 6.675,4.001 6.000 C 4.001 5.267,4.023 5.194,4.280 5.058 C 4.346 5.023,4.468 5.015,4.994 5.014 C 5.566 5.013,5.639 5.018,5.728 5.064 M8.685 5.042 C 8.787 5.080,8.906 5.195,8.950 5.299 C 9.002 5.421,9.003 6.577,8.951 6.701 C 8.907 6.805,8.747 6.951,8.646 6.980 C 8.551 7.006,7.449 7.006,7.354 6.980 C 7.262 6.954,7.103 6.815,7.052 6.717 C 6.996 6.610,6.996 5.391,7.051 5.285 C 7.092 5.207,7.208 5.091,7.293 5.044 C 7.365 5.005,8.582 5.003,8.685 5.042 M11.728 5.064 C 11.975 5.190,12.000 5.276,11.999 6.006 C 11.999 6.674,11.981 6.757,11.809 6.888 C 11.676 6.990,11.531 7.012,11.000 7.012 C 10.469 7.012,10.324 6.990,10.191 6.888 C 10.019 6.757,10.001 6.675,10.001 6.000 C 10.001 5.267,10.023 5.194,10.280 5.058 C 10.346 5.023,10.468 5.015,10.994 5.014 C 11.566 5.013,11.639 5.018,11.728 5.064 M5.693 8.050 C 5.822 8.110,5.904 8.194,5.959 8.326 C 6.019 8.470,6.019 9.530,5.959 9.674 C 5.902 9.810,5.768 9.942,5.655 9.973 C 5.532 10.008,4.468 10.008,4.345 9.973 C 4.232 9.942,4.098 9.810,4.041 9.674 C 3.981 9.530,3.981 8.470,4.041 8.326 C 4.096 8.194,4.178 8.110,4.307 8.050 C 4.400 8.007,4.486 8.001,5.000 8.001 C 5.514 8.001,5.600 8.007,5.693 8.050 M11.923 9.028 C 11.654 9.075,11.215 9.218,10.982 9.335 C 8.964 10.348,8.374 12.889,9.747 14.653 C 11.183 16.500,13.988 16.431,15.365 14.515 C 15.649 14.121,15.838 13.695,15.948 13.200 C 16.015 12.900,16.021 12.099,15.958 11.794 C 15.672 10.411,14.635 9.364,13.240 9.051 C 12.972 8.991,12.212 8.978,11.923 9.028 M12.845 10.029 C 13.106 10.064,13.482 10.188,13.700 10.310 C 13.792 10.361,13.867 10.405,13.867 10.408 C 13.867 10.411,13.088 11.192,12.137 12.143 L 10.406 13.873 10.311 13.703 C 10.099 13.323,9.978 12.779,10.010 12.347 C 10.117 10.883,11.403 9.831,12.845 10.029 M14.716 11.355 C 14.892 11.694,14.964 11.979,14.980 12.402 C 15.001 12.984,14.884 13.416,14.578 13.874 C 14.322 14.257,13.984 14.555,13.587 14.747 C 12.876 15.091,12.077 15.080,11.353 14.717 C 11.240 14.659,11.147 14.604,11.147 14.593 C 11.147 14.569,14.566 11.147,14.590 11.147 C 14.600 11.147,14.656 11.240,14.716 11.355 " stroke="none" fill-rule="evenodd"></path></svg>