<svg width="16" height="16" fill="currentColor" xmlns="http://www.w3.org/2000/svg"><path d="M2.767 0.029 C 2.486 0.095,2.229 0.309,2.096 0.587 L 2.013 0.760 2.013 8.000 L 2.013 15.240 2.088 15.400 C 2.186 15.610,2.391 15.816,2.597 15.911 L 2.760 15.987 4.380 15.994 L 6.000 16.002 6.000 14.213 C 6.000 12.659,6.005 12.412,6.041 12.326 C 6.096 12.194,6.178 12.110,6.307 12.050 C 6.403 12.006,6.493 12.001,7.219 12.001 L 8.024 12.000 8.041 11.900 C 8.129 11.358,8.248 10.968,8.453 10.547 C 8.539 10.371,8.662 10.148,8.727 10.052 L 8.845 9.878 8.724 9.939 C 8.610 9.997,8.576 10.000,8.008 10.000 C 7.276 10.000,7.190 9.975,7.064 9.728 C 7.019 9.639,7.013 9.564,7.013 9.000 C 7.013 8.436,7.019 8.361,7.064 8.272 C 7.190 8.025,7.277 8.000,8.000 8.000 C 8.725 8.000,8.810 8.025,8.937 8.275 C 8.985 8.369,8.989 8.426,8.981 9.040 L 8.973 9.704 9.091 9.565 C 9.628 8.934,10.403 8.432,11.220 8.190 C 11.670 8.056,11.963 8.016,12.493 8.016 C 13.059 8.015,13.326 8.055,13.940 8.229 L 14.001 8.246 13.994 4.503 L 13.987 0.760 13.911 0.597 C 13.816 0.391,13.610 0.186,13.400 0.088 L 13.240 0.013 8.053 0.009 C 5.095 0.007,2.824 0.015,2.767 0.029 M5.693 2.050 C 5.822 2.110,5.904 2.194,5.959 2.326 C 6.019 2.470,6.019 3.530,5.959 3.674 C 5.902 3.810,5.768 3.942,5.655 3.973 C 5.532 4.008,4.468 4.008,4.345 3.973 C 4.232 3.942,4.098 3.810,4.041 3.674 C 3.981 3.530,3.981 2.470,4.041 2.326 C 4.096 2.194,4.178 2.110,4.307 2.050 C 4.400 2.007,4.486 2.001,5.000 2.001 C 5.514 2.001,5.600 2.007,5.693 2.050 M8.687 2.041 C 8.813 2.094,8.874 2.150,8.936 2.272 C 8.981 2.361,8.987 2.436,8.987 3.000 C 8.987 3.564,8.981 3.639,8.936 3.728 C 8.810 3.975,8.723 4.000,8.000 4.000 C 7.277 4.000,7.190 3.975,7.064 3.728 C 7.019 3.639,7.013 3.564,7.013 3.000 C 7.013 2.436,7.019 2.361,7.064 2.272 C 7.125 2.152,7.186 2.095,7.307 2.042 C 7.444 1.983,8.545 1.982,8.687 2.041 M11.693 2.050 C 11.822 2.110,11.904 2.194,11.959 2.326 C 12.019 2.470,12.019 3.530,11.959 3.674 C 11.902 3.810,11.768 3.942,11.655 3.973 C 11.532 4.008,10.468 4.008,10.345 3.973 C 10.232 3.942,10.098 3.810,10.041 3.674 C 9.981 3.530,9.981 2.470,10.041 2.326 C 10.096 2.194,10.178 2.110,10.307 2.050 C 10.400 2.007,10.486 2.001,11.000 2.001 C 11.514 2.001,11.600 2.007,11.693 2.050 M5.728 5.064 C 5.975 5.190,6.000 5.276,5.999 6.006 C 5.999 6.674,5.981 6.757,5.809 6.888 C 5.676 6.990,5.531 7.012,5.000 7.012 C 4.469 7.012,4.324 6.990,4.191 6.888 C 4.019 6.757,4.001 6.675,4.001 6.000 C 4.001 5.267,4.023 5.194,4.280 5.058 C 4.346 5.023,4.468 5.015,4.994 5.014 C 5.566 5.013,5.639 5.018,5.728 5.064 M8.685 5.042 C 8.787 5.080,8.906 5.195,8.950 5.299 C 9.002 5.421,9.003 6.577,8.951 6.701 C 8.907 6.805,8.747 6.951,8.646 6.980 C 8.551 7.006,7.449 7.006,7.354 6.980 C 7.262 6.954,7.103 6.815,7.052 6.717 C 6.996 6.610,6.996 5.391,7.051 5.285 C 7.092 5.207,7.208 5.091,7.293 5.044 C 7.365 5.005,8.582 5.003,8.685 5.042 M11.728 5.064 C 11.975 5.190,12.000 5.276,11.999 6.006 C 11.999 6.674,11.981 6.757,11.809 6.888 C 11.676 6.990,11.531 7.012,11.000 7.012 C 10.469 7.012,10.324 6.990,10.191 6.888 C 10.019 6.757,10.001 6.675,10.001 6.000 C 10.001 5.267,10.023 5.194,10.280 5.058 C 10.346 5.023,10.468 5.015,10.994 5.014 C 11.566 5.013,11.639 5.018,11.728 5.064 M5.693 8.050 C 5.822 8.110,5.904 8.194,5.959 8.326 C 6.019 8.470,6.019 9.530,5.959 9.674 C 5.902 9.810,5.768 9.942,5.655 9.973 C 5.532 10.008,4.468 10.008,4.345 9.973 C 4.232 9.942,4.098 9.810,4.041 9.674 C 3.981 9.530,3.981 8.470,4.041 8.326 C 4.096 8.194,4.178 8.110,4.307 8.050 C 4.400 8.007,4.486 8.001,5.000 8.001 C 5.514 8.001,5.600 8.007,5.693 8.050 M12.225 9.064 C 12.068 9.135,11.937 9.302,11.868 9.521 C 11.756 9.877,11.535 10.062,11.224 10.062 C 11.092 10.062,11.033 10.045,10.873 9.961 C 10.537 9.786,10.260 9.805,10.040 10.019 C 9.906 10.148,9.841 10.300,9.841 10.481 C 9.840 10.601,9.861 10.672,9.949 10.852 C 10.052 11.062,10.058 11.087,10.049 11.269 C 10.041 11.433,10.027 11.481,9.959 11.578 C 9.855 11.725,9.746 11.797,9.517 11.869 C 9.184 11.975,9.006 12.197,9.007 12.508 C 9.008 12.692,9.092 12.879,9.222 12.987 C 9.275 13.031,9.413 13.098,9.529 13.136 C 9.886 13.255,10.052 13.457,10.052 13.773 C 10.053 13.904,10.034 13.974,9.947 14.160 C 9.793 14.489,9.806 14.715,9.994 14.934 C 10.210 15.187,10.484 15.228,10.839 15.059 C 11.218 14.878,11.435 14.897,11.667 15.132 C 11.773 15.239,11.812 15.305,11.861 15.457 C 11.937 15.699,12.011 15.806,12.162 15.900 C 12.397 16.045,12.700 16.024,12.906 15.848 C 13.031 15.741,13.075 15.665,13.147 15.432 C 13.248 15.108,13.455 14.948,13.773 14.948 C 13.939 14.948,13.983 14.961,14.160 15.053 C 14.327 15.140,14.386 15.157,14.520 15.158 C 14.882 15.158,15.158 14.882,15.158 14.520 C 15.157 14.386,15.140 14.327,15.053 14.160 C 14.961 13.983,14.948 13.939,14.948 13.773 C 14.948 13.455,15.108 13.248,15.432 13.147 C 15.665 13.075,15.741 13.031,15.848 12.906 C 16.020 12.704,16.044 12.406,15.907 12.171 C 15.820 12.023,15.695 11.938,15.435 11.852 C 15.261 11.794,15.209 11.762,15.111 11.653 C 14.898 11.416,14.883 11.195,15.056 10.840 C 15.143 10.662,15.160 10.600,15.159 10.467 C 15.157 10.208,15.022 10.008,14.773 9.895 C 14.581 9.808,14.430 9.822,14.149 9.952 C 13.954 10.043,13.878 10.064,13.760 10.063 C 13.468 10.060,13.253 9.877,13.138 9.534 C 13.050 9.274,12.972 9.171,12.796 9.083 C 12.623 8.997,12.389 8.989,12.225 9.064 M12.880 11.053 C 13.571 11.237,14.055 11.918,13.990 12.616 C 13.945 13.098,13.705 13.496,13.299 13.762 C 12.465 14.307,11.312 13.855,11.053 12.880 C 11.003 12.690,11.003 12.319,11.053 12.125 C 11.184 11.622,11.611 11.190,12.110 11.055 C 12.297 11.005,12.695 11.004,12.880 11.053 " stroke="none" fill-rule="evenodd"></path></svg>