<svg width="16" height="16" fill="currentColor" xmlns="http://www.w3.org/2000/svg"><path d="M7.467 0.017 C 5.118 0.192,3.024 1.327,1.608 3.193 C 0.799 4.260,0.296 5.477,0.073 6.906 C -0.009 7.429,-0.009 8.571,0.073 9.094 C 0.415 11.288,1.476 13.089,3.195 14.393 C 4.257 15.199,5.481 15.705,6.906 15.927 C 7.429 16.009,8.571 16.009,9.094 15.927 C 11.038 15.624,12.690 14.748,13.930 13.362 C 15.030 12.133,15.665 10.775,15.927 9.094 C 16.009 8.571,16.009 7.429,15.927 6.906 C 15.705 5.481,15.199 4.257,14.393 3.195 C 13.070 1.452,11.180 0.355,9.000 0.066 C 8.688 0.025,7.760 -0.005,7.467 0.017 M9.040 1.078 C 11.831 1.511,14.104 3.571,14.781 6.281 C 14.942 6.924,14.973 7.204,14.973 8.000 C 14.973 8.555,14.962 8.775,14.924 9.027 C 14.474 11.939,12.308 14.238,9.437 14.850 C 8.548 15.040,7.452 15.040,6.563 14.850 C 3.952 14.294,1.876 12.308,1.227 9.747 C 1.059 9.083,1.027 8.807,1.027 8.000 C 1.027 7.193,1.059 6.917,1.227 6.253 C 1.847 3.807,3.806 1.848,6.253 1.227 C 6.473 1.171,6.797 1.106,6.973 1.083 C 7.149 1.059,7.329 1.035,7.373 1.029 C 7.574 1.002,8.774 1.037,9.040 1.078 M7.560 2.016 C 6.684 2.107,6.060 2.276,5.373 2.612 C 3.525 3.514,2.280 5.275,2.040 7.328 C 1.778 9.568,2.826 11.780,4.747 13.040 C 5.286 13.394,6.084 13.726,6.728 13.865 C 9.428 14.446,12.170 13.113,13.389 10.627 C 14.202 8.969,14.202 7.031,13.389 5.373 C 12.793 4.158,11.842 3.207,10.629 2.615 C 10.044 2.329,9.513 2.163,8.880 2.067 C 8.608 2.026,7.775 1.994,7.560 2.016 M8.947 3.092 C 10.969 3.498,12.501 5.033,12.911 7.067 C 12.965 7.336,12.973 7.450,12.973 8.000 C 12.973 8.550,12.965 8.664,12.911 8.933 C 12.593 10.508,11.609 11.794,10.187 12.492 C 8.282 13.427,5.976 13.040,4.468 11.532 C 3.765 10.829,3.291 9.937,3.089 8.933 C 3.035 8.664,3.027 8.550,3.027 8.000 C 3.027 7.450,3.035 7.336,3.089 7.067 C 3.527 4.896,5.250 3.298,7.440 3.030 C 7.491 3.024,7.785 3.022,8.093 3.026 C 8.543 3.032,8.711 3.045,8.947 3.092 M7.467 4.038 C 6.989 4.108,6.622 4.221,6.213 4.427 C 5.105 4.984,4.351 5.968,4.074 7.220 C 3.990 7.597,3.990 8.403,4.074 8.780 C 4.434 10.406,5.595 11.567,7.218 11.925 C 7.598 12.009,8.402 12.009,8.782 11.925 C 10.404 11.567,11.567 10.404,11.925 8.782 C 12.009 8.402,12.009 7.598,11.925 7.218 C 11.561 5.567,10.316 4.353,8.694 4.064 C 8.368 4.007,7.773 3.994,7.467 4.038 M8.537 5.052 C 9.742 5.264,10.736 6.258,10.948 7.463 C 11.028 7.922,10.985 8.535,10.845 8.947 C 10.424 10.179,9.294 10.992,8.000 10.995 C 6.713 10.997,5.576 10.178,5.155 8.947 C 4.964 8.387,4.965 7.612,5.157 7.049 C 5.300 6.630,5.574 6.187,5.881 5.881 C 6.292 5.469,6.888 5.155,7.449 5.053 C 7.711 5.005,8.266 5.005,8.537 5.052 M7.693 6.532 C 7.001 6.682,6.507 7.293,6.507 8.000 C 6.507 8.410,6.653 8.759,6.947 9.053 C 7.539 9.646,8.461 9.646,9.053 9.053 C 9.829 8.277,9.546 6.988,8.514 6.596 C 8.315 6.521,7.896 6.488,7.693 6.532 " stroke="none" fill-rule="evenodd"></path></svg>