<svg width="16" height="16" fill="currentColor" xmlns="http://www.w3.org/2000/svg"><path d="M6.653 0.017 C 5.134 0.065,3.053 0.239,2.681 0.350 C 1.859 0.594,1.251 1.257,1.051 2.127 C 1.021 2.259,1.006 2.529,0.995 3.151 L 0.980 3.996 0.852 4.014 C 0.541 4.056,0.241 4.284,0.096 4.587 L 0.013 4.760 0.013 6.000 L 0.013 7.240 0.088 7.400 C 0.229 7.703,0.551 7.949,0.860 7.990 L 0.987 8.007 0.987 9.751 C 0.987 11.613,1.000 11.868,1.111 12.225 C 1.251 12.668,1.424 12.950,1.764 13.286 L 2.000 13.519 2.000 14.539 C 2.000 15.125,2.011 15.600,2.026 15.654 C 2.059 15.772,2.227 15.939,2.348 15.974 C 2.402 15.989,2.888 16.000,3.520 15.999 C 4.728 15.999,4.745 15.996,4.888 15.809 C 4.996 15.668,5.012 15.532,5.013 14.740 L 5.013 14.000 8.000 14.000 L 10.987 14.000 10.987 14.740 C 10.988 15.532,11.004 15.668,11.112 15.809 C 11.255 15.996,11.272 15.999,12.480 15.999 C 13.112 16.000,13.598 15.989,13.652 15.974 C 13.773 15.939,13.941 15.772,13.974 15.654 C 13.989 15.600,14.000 15.123,14.000 14.533 L 14.000 13.507 14.175 13.350 C 14.622 12.951,14.916 12.370,14.985 11.753 C 15.002 11.595,15.013 10.819,15.013 9.751 L 15.013 8.007 15.140 7.990 C 15.449 7.949,15.771 7.703,15.912 7.400 L 15.987 7.240 15.987 6.000 L 15.987 4.760 15.912 4.600 C 15.771 4.297,15.456 4.056,15.148 4.014 L 15.020 3.996 15.006 3.151 C 14.994 2.360,14.989 2.291,14.926 2.053 C 14.703 1.203,14.120 0.586,13.320 0.351 C 12.983 0.253,11.776 0.137,10.213 0.052 C 9.709 0.025,7.183 -0.000,6.653 0.017 M9.493 2.027 C 10.386 2.058,11.345 2.116,12.103 2.187 C 12.598 2.233,12.656 2.243,12.751 2.306 C 13.091 2.532,13.037 3.042,12.656 3.187 C 12.549 3.228,12.503 3.227,11.931 3.176 C 10.586 3.055,9.601 3.014,8.013 3.014 C 6.415 3.013,5.330 3.060,3.919 3.189 C 3.383 3.238,3.290 3.226,3.148 3.087 C 2.943 2.888,2.935 2.585,3.128 2.378 C 3.237 2.261,3.320 2.240,3.886 2.188 C 5.633 2.025,7.713 1.966,9.493 2.027 M9.493 4.027 C 10.386 4.058,11.345 4.116,12.102 4.187 C 12.718 4.244,12.817 4.278,12.927 4.475 L 12.988 4.582 12.981 6.527 L 12.973 8.471 12.898 8.569 C 12.776 8.729,12.674 8.764,12.198 8.810 C 10.861 8.940,9.622 8.994,8.000 8.994 C 6.378 8.994,5.139 8.940,3.802 8.810 C 3.326 8.764,3.224 8.729,3.102 8.569 L 3.027 8.471 3.019 6.527 L 3.012 4.582 3.073 4.475 C 3.183 4.278,3.282 4.244,3.898 4.187 C 5.634 4.025,7.719 3.966,9.493 4.027 M4.347 10.066 C 4.611 10.159,4.829 10.380,4.935 10.663 C 5.022 10.895,5.002 11.209,4.886 11.446 C 4.784 11.653,4.616 11.815,4.400 11.916 C 4.275 11.974,4.216 11.984,4.000 11.984 C 3.784 11.984,3.725 11.974,3.600 11.916 C 3.384 11.815,3.216 11.653,3.114 11.446 C 2.997 11.207,2.978 10.896,3.067 10.659 C 3.223 10.243,3.620 9.982,4.053 10.012 C 4.149 10.018,4.281 10.043,4.347 10.066 M9.403 10.089 C 9.609 10.184,9.814 10.390,9.912 10.600 C 9.975 10.738,9.986 10.794,9.986 11.000 C 9.986 11.206,9.975 11.262,9.912 11.400 C 9.814 11.610,9.609 11.816,9.403 11.911 L 9.240 11.987 8.000 11.987 L 6.760 11.987 6.600 11.912 C 6.389 11.814,6.184 11.609,6.089 11.403 C 6.025 11.263,6.015 11.206,6.014 11.000 C 6.014 10.793,6.024 10.738,6.088 10.600 C 6.216 10.325,6.488 10.096,6.767 10.028 C 6.822 10.015,7.401 10.006,8.053 10.009 L 9.240 10.013 9.403 10.089 M12.347 10.066 C 12.611 10.159,12.829 10.380,12.935 10.663 C 13.022 10.895,13.002 11.209,12.886 11.446 C 12.784 11.653,12.616 11.815,12.400 11.916 C 12.275 11.974,12.216 11.984,12.000 11.984 C 11.784 11.984,11.725 11.974,11.600 11.916 C 11.384 11.815,11.216 11.653,11.114 11.446 C 10.997 11.207,10.978 10.896,11.067 10.659 C 11.223 10.243,11.620 9.982,12.053 10.012 C 12.149 10.018,12.281 10.043,12.347 10.066 " stroke="none" fill-rule="evenodd"></path></svg>