<svg width="16" height="16" fill="currentColor" xmlns="http://www.w3.org/2000/svg"><path d="M7.467 0.017 C 5.118 0.192,3.024 1.327,1.608 3.193 C 0.799 4.260,0.296 5.477,0.073 6.906 C -0.009 7.429,-0.009 8.571,0.073 9.094 C 0.415 11.288,1.476 13.089,3.195 14.393 C 4.257 15.199,5.481 15.705,6.906 15.927 C 7.429 16.009,8.571 16.009,9.094 15.927 C 11.038 15.624,12.690 14.748,13.930 13.362 C 15.030 12.133,15.665 10.775,15.927 9.094 C 16.009 8.571,16.009 7.429,15.927 6.906 C 15.705 5.481,15.199 4.257,14.393 3.195 C 13.070 1.452,11.180 0.355,9.000 0.066 C 8.688 0.025,7.760 -0.005,7.467 0.017 M8.522 3.869 C 9.055 3.923,9.523 4.077,9.937 4.334 C 10.178 4.485,10.525 4.807,10.682 5.029 C 10.931 5.377,11.118 5.882,11.162 6.327 L 11.180 6.507 10.529 6.507 L 9.879 6.507 9.845 6.330 C 9.679 5.452,8.863 4.897,7.909 5.013 C 6.946 5.130,6.379 5.816,6.241 7.027 C 6.205 7.340,6.206 8.665,6.241 9.012 C 6.334 9.913,6.695 10.537,7.293 10.827 C 7.811 11.077,8.471 11.077,9.009 10.825 C 9.430 10.629,9.764 10.205,9.848 9.762 L 9.879 9.600 10.528 9.600 L 11.178 9.600 11.159 9.780 C 11.116 10.194,10.949 10.635,10.708 10.973 C 10.543 11.204,10.179 11.537,9.928 11.688 C 9.367 12.024,8.689 12.184,7.962 12.152 C 6.309 12.079,5.273 11.177,4.955 9.537 C 4.904 9.272,4.897 9.125,4.887 8.190 C 4.875 7.088,4.890 6.820,4.991 6.348 C 5.212 5.317,5.783 4.553,6.624 4.158 C 7.172 3.901,7.835 3.800,8.522 3.869 " stroke="none" fill-rule="evenodd"></path></svg>