<svg width="16" height="16" fill="currentColor" xmlns="http://www.w3.org/2000/svg"><path d="M3.290 0.051 C 3.069 0.152,2.988 0.341,2.987 0.767 L 2.987 1.013 2.367 1.014 C 1.689 1.014,1.506 1.038,1.220 1.163 C 0.664 1.406,0.281 1.833,0.076 2.440 L 0.013 2.627 0.006 8.400 C -0.002 14.736,-0.011 14.357,0.155 14.766 C 0.347 15.238,0.761 15.652,1.233 15.844 C 1.639 16.010,1.217 16.000,8.000 16.000 C 14.782 16.000,14.361 16.010,14.766 15.845 C 15.234 15.654,15.654 15.233,15.845 14.765 C 16.011 14.358,16.002 14.735,15.994 8.400 L 15.986 2.627 15.924 2.440 C 15.739 1.887,15.372 1.452,14.892 1.217 C 14.529 1.040,14.482 1.032,13.713 1.020 L 13.013 1.009 13.013 0.764 C 13.012 0.341,12.931 0.151,12.710 0.051 C 12.512 -0.039,12.310 0.002,12.140 0.167 C 12.026 0.277,12.000 0.380,12.000 0.727 L 12.000 1.013 8.000 1.013 L 4.000 1.013 4.000 0.727 C 4.000 0.380,3.974 0.277,3.860 0.167 C 3.690 0.002,3.488 -0.039,3.290 0.051 M14.254 2.041 C 14.559 2.119,14.819 2.354,14.931 2.653 C 14.981 2.788,14.987 2.859,14.987 3.401 L 14.987 4.000 8.000 4.000 L 1.013 4.000 1.013 3.401 C 1.013 2.859,1.019 2.788,1.069 2.653 C 1.143 2.456,1.264 2.301,1.441 2.181 C 1.720 1.990,1.225 2.004,7.988 2.002 C 13.377 2.000,14.114 2.005,14.254 2.041 M14.980 9.647 L 14.973 14.280 14.901 14.428 C 14.757 14.720,14.468 14.934,14.145 14.987 C 13.929 15.022,2.071 15.022,1.855 14.987 C 1.532 14.934,1.243 14.720,1.099 14.428 L 1.027 14.280 1.020 9.647 L 1.013 5.013 8.000 5.013 L 14.987 5.013 14.980 9.647 M8.280 7.058 C 8.156 7.123,8.103 7.177,8.050 7.293 C 8.007 7.387,8.001 7.474,8.001 8.000 C 8.001 8.675,8.019 8.757,8.191 8.888 C 8.324 8.990,8.469 9.012,9.000 9.012 C 9.531 9.012,9.676 8.990,9.809 8.888 C 9.981 8.757,9.999 8.674,9.999 8.006 C 10.000 7.276,9.975 7.190,9.728 7.064 C 9.639 7.018,9.566 7.013,8.994 7.014 C 8.468 7.015,8.346 7.023,8.280 7.058 M11.266 7.063 C 11.161 7.127,11.046 7.264,11.020 7.355 C 10.994 7.449,10.994 8.552,11.020 8.646 C 11.046 8.739,11.184 8.896,11.291 8.955 C 11.362 8.994,11.461 9.000,12.000 9.000 C 12.539 9.000,12.638 8.994,12.709 8.955 C 12.816 8.896,12.954 8.739,12.980 8.646 C 13.006 8.551,13.006 7.449,12.980 7.354 C 12.951 7.253,12.805 7.093,12.701 7.049 C 12.637 7.023,12.453 7.013,11.981 7.013 C 11.410 7.014,11.339 7.018,11.266 7.063 M3.290 10.051 C 3.155 10.113,3.052 10.243,3.015 10.401 C 2.980 10.555,2.980 11.445,3.015 11.599 C 3.052 11.757,3.155 11.887,3.290 11.949 C 3.387 11.993,3.471 11.999,4.000 11.999 C 4.675 11.999,4.757 11.981,4.888 11.809 C 4.990 11.676,5.012 11.531,5.012 11.000 C 5.012 10.469,4.990 10.324,4.888 10.191 C 4.757 10.019,4.675 10.001,4.000 10.001 C 3.471 10.001,3.387 10.007,3.290 10.051 M6.307 10.051 C 6.171 10.113,6.060 10.232,6.026 10.348 C 5.992 10.467,5.992 11.532,6.026 11.654 C 6.059 11.772,6.227 11.939,6.348 11.974 C 6.467 12.008,7.531 12.008,7.654 11.974 C 7.772 11.941,7.939 11.773,7.974 11.652 C 8.008 11.533,8.008 10.469,7.973 10.345 C 7.959 10.293,7.908 10.213,7.860 10.167 C 7.701 10.012,7.636 10.000,6.994 10.001 C 6.486 10.001,6.400 10.007,6.307 10.051 " stroke="none" fill-rule="evenodd"></path></svg>