<svg width="16" height="16" fill="currentColor" xmlns="http://www.w3.org/2000/svg"><path d="M3.290 0.051 C 3.069 0.152,2.988 0.341,2.987 0.767 L 2.987 1.013 2.367 1.014 C 1.689 1.014,1.506 1.038,1.220 1.163 C 0.663 1.407,0.273 1.842,0.079 2.440 C 0.023 2.610,0.017 2.689,0.006 3.313 L -0.005 4.000 8.000 4.000 L 16.005 4.000 15.993 3.313 C 15.982 2.696,15.974 2.608,15.921 2.440 C 15.747 1.897,15.373 1.452,14.892 1.217 C 14.529 1.040,14.482 1.032,13.713 1.020 L 13.013 1.009 13.013 0.764 C 13.012 0.341,12.931 0.151,12.710 0.051 C 12.512 -0.039,12.310 0.002,12.140 0.167 C 12.026 0.277,12.000 0.380,12.000 0.727 L 12.000 1.013 8.000 1.013 L 4.000 1.013 4.000 0.727 C 4.000 0.380,3.974 0.277,3.860 0.167 C 3.690 0.002,3.488 -0.039,3.290 0.051 M-0.000 9.601 C -0.000 14.624,-0.008 14.365,0.156 14.767 C 0.347 15.238,0.762 15.653,1.233 15.844 C 1.639 16.010,1.217 16.000,8.000 16.000 C 14.782 16.000,14.361 16.010,14.766 15.845 C 15.233 15.654,15.654 15.233,15.845 14.766 C 16.008 14.366,16.000 14.623,16.000 9.601 L 16.000 5.013 8.000 5.013 L 0.000 5.013 -0.000 9.601 M4.488 7.127 C 4.510 7.189,4.931 8.372,5.424 9.756 C 5.917 11.139,6.320 12.288,6.320 12.309 C 6.320 12.339,6.255 12.347,5.976 12.347 L 5.633 12.347 5.473 11.887 C 5.386 11.634,5.262 11.268,5.198 11.073 L 5.082 10.720 4.092 10.720 L 3.102 10.720 2.828 11.533 L 2.554 12.347 2.210 12.347 C 1.974 12.347,1.867 12.337,1.867 12.317 C 1.867 12.300,2.289 11.100,2.805 9.650 L 3.743 7.013 4.096 7.013 L 4.448 7.013 4.488 7.127 M4.055 7.898 C 4.037 7.947,3.856 8.482,3.653 9.087 L 3.283 10.187 4.082 10.187 C 4.702 10.187,4.880 10.179,4.880 10.153 C 4.880 10.107,4.131 7.858,4.107 7.831 C 4.096 7.819,4.072 7.849,4.055 7.898 M12.480 8.250 C 12.720 8.333,12.945 8.487,13.078 8.659 L 13.187 8.800 13.194 8.520 L 13.202 8.240 13.521 8.240 L 13.840 8.240 13.840 10.367 C 13.839 12.726,13.843 12.675,13.664 13.015 C 13.376 13.563,12.720 13.877,11.960 13.830 C 11.446 13.798,11.081 13.660,10.814 13.397 C 10.647 13.233,10.486 12.937,10.461 12.748 L 10.446 12.640 10.780 12.640 L 11.114 12.640 11.185 12.785 C 11.392 13.209,11.992 13.388,12.560 13.196 C 12.699 13.149,12.765 13.106,12.895 12.975 C 13.031 12.839,13.066 12.784,13.116 12.627 C 13.168 12.462,13.174 12.393,13.168 12.040 C 13.160 11.652,13.159 11.642,13.116 11.720 C 13.056 11.829,12.863 12.018,12.731 12.095 C 12.309 12.345,11.710 12.354,11.229 12.117 C 10.872 11.941,10.568 11.555,10.445 11.120 C 10.326 10.702,10.316 9.818,10.424 9.406 C 10.572 8.839,10.940 8.417,11.426 8.254 C 11.751 8.145,12.175 8.144,12.480 8.250 M7.200 9.637 C 7.200 10.979,7.202 11.042,7.256 11.215 C 7.301 11.360,7.338 11.422,7.452 11.536 C 7.569 11.652,7.625 11.686,7.785 11.735 C 8.058 11.818,8.398 11.801,8.635 11.694 C 8.840 11.601,9.012 11.420,9.099 11.205 C 9.160 11.054,9.160 11.045,9.168 9.647 L 9.175 8.240 9.508 8.240 L 9.840 8.240 9.840 10.294 L 9.840 12.348 9.513 12.341 L 9.187 12.333 9.179 12.057 L 9.171 11.780 9.090 11.904 C 8.882 12.218,8.473 12.399,7.973 12.399 C 7.403 12.399,6.914 12.146,6.699 11.739 C 6.520 11.401,6.525 11.448,6.513 9.767 L 6.502 8.240 6.851 8.240 L 7.200 8.240 7.200 9.637 M11.833 8.774 C 11.544 8.847,11.303 9.045,11.176 9.317 C 11.049 9.589,11.027 9.728,11.028 10.253 C 11.030 10.699,11.035 10.748,11.101 10.948 C 11.251 11.399,11.525 11.644,11.950 11.703 C 12.544 11.786,13.000 11.443,13.134 10.809 C 13.185 10.565,13.185 9.913,13.133 9.667 C 13.052 9.282,12.839 8.982,12.546 8.838 C 12.428 8.781,12.353 8.765,12.166 8.758 C 12.038 8.753,11.888 8.760,11.833 8.774 " stroke="none" fill-rule="evenodd"></path></svg>