<svg width="16" height="16" fill="currentColor" xmlns="http://www.w3.org/2000/svg"><path d="M3.290 0.051 C 3.069 0.152,2.988 0.341,2.987 0.767 L 2.987 1.013 2.367 1.014 C 1.689 1.014,1.506 1.038,1.220 1.163 C 0.664 1.406,0.281 1.833,0.076 2.440 L 0.013 2.627 0.006 8.400 C -0.002 14.736,-0.011 14.357,0.155 14.766 C 0.347 15.238,0.761 15.652,1.233 15.844 C 1.639 16.010,1.217 16.000,8.000 16.000 C 14.782 16.000,14.361 16.010,14.766 15.845 C 15.234 15.654,15.654 15.233,15.845 14.765 C 16.011 14.358,16.002 14.735,15.994 8.400 L 15.986 2.627 15.924 2.440 C 15.739 1.887,15.372 1.452,14.892 1.217 C 14.529 1.040,14.482 1.032,13.713 1.020 L 13.013 1.009 13.013 0.764 C 13.012 0.341,12.931 0.151,12.710 0.051 C 12.512 -0.039,12.310 0.002,12.140 0.167 C 12.026 0.277,12.000 0.380,12.000 0.727 L 12.000 1.013 8.000 1.013 L 4.000 1.013 4.000 0.727 C 4.000 0.380,3.974 0.277,3.860 0.167 C 3.690 0.002,3.488 -0.039,3.290 0.051 M14.254 2.041 C 14.559 2.119,14.819 2.354,14.931 2.653 C 14.981 2.788,14.987 2.859,14.987 3.401 L 14.987 4.000 8.000 4.000 L 1.013 4.000 1.013 3.401 C 1.013 2.859,1.019 2.788,1.069 2.653 C 1.143 2.456,1.264 2.301,1.441 2.181 C 1.720 1.990,1.225 2.004,7.988 2.002 C 13.377 2.000,14.114 2.005,14.254 2.041 M14.987 6.013 L 14.987 7.013 12.172 7.013 C 9.766 7.013,9.346 7.019,9.283 7.052 C 9.185 7.103,9.046 7.262,9.020 7.354 C 8.994 7.449,8.994 8.551,9.020 8.646 C 9.046 8.739,9.184 8.896,9.291 8.955 C 9.367 8.996,9.598 9.001,12.181 9.007 L 14.988 9.015 14.981 11.647 L 14.973 14.280 14.901 14.428 C 14.757 14.720,14.468 14.934,14.145 14.987 C 13.929 15.022,2.071 15.022,1.855 14.987 C 1.532 14.934,1.243 14.720,1.099 14.428 L 1.027 14.280 1.019 13.140 L 1.011 12.000 3.806 11.999 C 6.477 11.999,6.605 11.997,6.710 11.949 C 6.845 11.887,6.948 11.757,6.985 11.599 C 7.020 11.445,7.020 10.555,6.985 10.401 C 6.948 10.243,6.845 10.113,6.710 10.051 C 6.605 10.003,6.477 10.001,3.807 10.001 L 1.013 10.000 1.013 7.507 L 1.013 5.013 8.000 5.013 L 14.987 5.013 14.987 6.013 " stroke="none" fill-rule="evenodd"></path></svg>