<svg width="16" height="16" fill="currentColor" xmlns="http://www.w3.org/2000/svg"><path d="M3.290 0.051 C 3.069 0.152,2.988 0.341,2.987 0.767 L 2.987 1.013 2.367 1.014 C 1.689 1.014,1.506 1.038,1.220 1.163 C 0.663 1.407,0.273 1.842,0.079 2.440 C 0.023 2.610,0.017 2.689,0.006 3.313 L -0.005 4.000 8.000 4.000 L 16.005 4.000 15.993 3.313 C 15.982 2.696,15.974 2.608,15.921 2.440 C 15.747 1.897,15.373 1.452,14.892 1.217 C 14.529 1.040,14.482 1.032,13.713 1.020 L 13.013 1.009 13.013 0.764 C 13.012 0.341,12.931 0.151,12.710 0.051 C 12.512 -0.039,12.310 0.002,12.140 0.167 C 12.026 0.277,12.000 0.380,12.000 0.727 L 12.000 1.013 8.000 1.013 L 4.000 1.013 4.000 0.727 C 4.000 0.380,3.974 0.277,3.860 0.167 C 3.690 0.002,3.488 -0.039,3.290 0.051 M-0.000 9.601 C -0.000 14.624,-0.008 14.365,0.156 14.767 C 0.347 15.238,0.762 15.653,1.233 15.844 C 1.639 16.010,1.217 16.000,8.000 16.000 C 14.782 16.000,14.361 16.010,14.766 15.845 C 15.233 15.654,15.654 15.233,15.845 14.766 C 16.008 14.366,16.000 14.623,16.000 9.601 L 16.000 5.013 8.000 5.013 L 0.000 5.013 -0.000 9.601 M10.685 7.042 C 10.787 7.080,10.906 7.195,10.950 7.299 C 11.002 7.421,11.003 8.577,10.951 8.701 C 10.907 8.805,10.747 8.951,10.646 8.980 C 10.551 9.006,9.449 9.006,9.354 8.980 C 9.262 8.954,9.103 8.815,9.052 8.717 C 8.996 8.610,8.996 7.391,9.051 7.285 C 9.092 7.207,9.208 7.091,9.293 7.044 C 9.365 7.005,10.582 7.003,10.685 7.042 M13.728 7.064 C 13.975 7.190,14.000 7.276,13.999 8.006 C 13.999 8.674,13.981 8.757,13.809 8.888 C 13.676 8.990,13.531 9.012,13.000 9.012 C 12.469 9.012,12.324 8.990,12.191 8.888 C 12.019 8.757,12.001 8.675,12.001 8.000 C 12.001 7.267,12.023 7.194,12.280 7.058 C 12.346 7.023,12.468 7.015,12.994 7.014 C 13.566 7.013,13.639 7.018,13.728 7.064 M3.693 10.050 C 3.822 10.110,3.904 10.194,3.959 10.326 C 4.019 10.470,4.019 11.530,3.959 11.674 C 3.902 11.810,3.768 11.942,3.655 11.973 C 3.532 12.008,2.468 12.008,2.345 11.973 C 2.232 11.942,2.098 11.810,2.041 11.674 C 1.981 11.530,1.981 10.470,2.041 10.326 C 2.096 10.194,2.178 10.110,2.307 10.050 C 2.400 10.007,2.486 10.001,3.000 10.001 C 3.514 10.001,3.600 10.007,3.693 10.050 M6.687 10.041 C 6.813 10.094,6.874 10.150,6.936 10.272 C 6.981 10.361,6.987 10.436,6.987 11.000 C 6.987 11.564,6.981 11.639,6.936 11.728 C 6.810 11.975,6.723 12.000,6.000 12.000 C 5.277 12.000,5.190 11.975,5.064 11.728 C 5.019 11.639,5.013 11.564,5.013 11.000 C 5.013 10.436,5.019 10.361,5.064 10.272 C 5.125 10.152,5.186 10.095,5.307 10.042 C 5.444 9.983,6.545 9.982,6.687 10.041 " stroke="none" fill-rule="evenodd"></path></svg>