<svg width="16" height="16" fill="currentColor" xmlns="http://www.w3.org/2000/svg"><path d="M3.290 0.051 C 3.069 0.152,2.988 0.341,2.987 0.767 L 2.987 1.013 2.367 1.014 C 1.689 1.014,1.506 1.038,1.220 1.163 C 0.664 1.406,0.281 1.833,0.076 2.440 L 0.013 2.627 0.006 8.400 C -0.002 14.736,-0.011 14.357,0.155 14.766 C 0.347 15.238,0.761 15.652,1.233 15.844 C 1.639 16.010,1.217 16.000,8.000 16.000 C 14.782 16.000,14.361 16.010,14.766 15.845 C 15.234 15.654,15.654 15.233,15.845 14.765 C 16.011 14.358,16.002 14.735,15.994 8.400 L 15.986 2.627 15.924 2.440 C 15.739 1.887,15.372 1.452,14.892 1.217 C 14.529 1.040,14.482 1.032,13.713 1.020 L 13.013 1.009 13.013 0.764 C 13.012 0.341,12.931 0.151,12.710 0.051 C 12.512 -0.039,12.310 0.002,12.140 0.167 C 12.026 0.277,12.000 0.380,12.000 0.727 L 12.000 1.013 8.000 1.013 L 4.000 1.013 4.000 0.727 C 4.000 0.380,3.974 0.277,3.860 0.167 C 3.690 0.002,3.488 -0.039,3.290 0.051 M13.764 3.091 C 13.816 3.126,13.887 3.197,13.922 3.249 C 13.985 3.340,13.987 3.359,13.995 3.945 C 14.000 4.320,13.993 4.583,13.975 4.643 C 13.932 4.788,13.746 4.947,13.576 4.984 C 13.389 5.024,2.602 5.025,2.427 4.985 C 2.277 4.950,2.161 4.873,2.078 4.751 C 2.015 4.660,2.013 4.641,2.005 4.055 C 2.000 3.689,2.007 3.416,2.024 3.359 C 2.057 3.249,2.193 3.101,2.307 3.050 C 2.372 3.022,3.408 3.016,8.029 3.021 L 13.671 3.027 13.764 3.091 M10.687 8.041 C 10.884 8.124,10.987 8.285,10.987 8.514 C 10.987 8.628,10.971 8.681,10.908 8.775 C 10.778 8.971,7.815 11.911,7.701 11.959 C 7.575 12.011,7.439 12.011,7.312 11.959 C 7.200 11.913,5.626 10.361,5.554 10.227 C 5.502 10.130,5.498 9.879,5.546 9.787 C 5.596 9.689,5.682 9.601,5.773 9.553 C 5.870 9.503,6.121 9.498,6.213 9.545 C 6.250 9.564,6.553 9.851,6.887 10.183 L 7.493 10.786 8.833 9.448 C 10.223 8.059,10.289 8.002,10.501 8.001 C 10.549 8.000,10.633 8.018,10.687 8.041 " stroke="none" fill-rule="evenodd"></path></svg>