<svg width="16" height="16" fill="currentColor" xmlns="http://www.w3.org/2000/svg"><path d="M3.290 0.051 C 3.069 0.152,2.988 0.341,2.987 0.767 L 2.987 1.013 2.367 1.014 C 1.689 1.014,1.506 1.038,1.220 1.163 C 0.664 1.406,0.281 1.833,0.076 2.440 L 0.013 2.627 0.006 8.400 C -0.002 14.736,-0.011 14.357,0.155 14.766 C 0.347 15.238,0.761 15.652,1.233 15.844 C 1.639 16.010,1.217 16.000,8.000 16.000 C 14.782 16.000,14.361 16.010,14.766 15.845 C 15.234 15.654,15.654 15.233,15.845 14.765 C 16.011 14.358,16.002 14.735,15.994 8.400 L 15.986 2.627 15.924 2.440 C 15.739 1.887,15.372 1.452,14.892 1.217 C 14.529 1.040,14.482 1.032,13.713 1.020 L 13.013 1.009 13.013 0.764 C 13.012 0.341,12.931 0.151,12.710 0.051 C 12.512 -0.039,12.310 0.002,12.140 0.167 C 12.026 0.277,12.000 0.380,12.000 0.727 L 12.000 1.013 8.000 1.013 L 4.000 1.013 4.000 0.727 C 4.000 0.380,3.974 0.277,3.860 0.167 C 3.690 0.002,3.488 -0.039,3.290 0.051 M13.688 3.049 C 13.804 3.098,13.967 3.284,13.987 3.392 C 13.996 3.440,13.999 3.745,13.995 4.069 C 13.987 4.640,13.985 4.660,13.922 4.751 C 13.839 4.873,13.723 4.950,13.573 4.985 C 13.407 5.023,2.593 5.023,2.427 4.985 C 2.277 4.950,2.161 4.873,2.078 4.751 C 2.015 4.660,2.013 4.641,2.005 4.055 C 2.000 3.689,2.007 3.416,2.024 3.359 C 2.057 3.249,2.193 3.100,2.307 3.050 C 2.427 2.998,13.562 2.997,13.688 3.049 M7.227 7.553 C 7.414 7.597,7.651 7.714,7.832 7.850 L 7.997 7.976 8.165 7.851 C 8.491 7.609,8.791 7.510,9.200 7.511 C 9.510 7.512,9.726 7.564,10.027 7.711 C 10.208 7.800,10.298 7.868,10.481 8.051 C 10.841 8.413,10.985 8.766,10.986 9.288 C 10.987 9.606,10.933 9.881,10.809 10.190 C 10.507 10.944,9.823 11.754,8.847 12.515 C 8.545 12.749,8.075 13.087,8.020 13.108 C 7.978 13.124,7.524 12.809,7.093 12.466 C 6.314 11.845,5.789 11.277,5.426 10.664 C 5.143 10.184,5.013 9.751,5.014 9.288 C 5.015 8.766,5.159 8.414,5.519 8.052 C 5.823 7.747,6.137 7.585,6.548 7.522 C 6.724 7.495,7.043 7.509,7.227 7.553 " stroke="none" fill-rule="evenodd"></path></svg>