<svg width="16" height="16" fill="currentColor" xmlns="http://www.w3.org/2000/svg"><path d="M1.554 3.053 C 0.862 3.205,0.301 3.736,0.076 4.454 L 0.013 4.653 0.013 8.000 L 0.013 11.347 0.076 11.546 C 0.332 12.362,0.966 12.890,1.807 12.986 C 2.107 13.021,9.397 13.023,9.693 12.988 C 9.970 12.956,10.289 12.854,10.506 12.727 C 10.738 12.592,11.085 12.246,11.221 12.013 C 11.333 11.823,11.467 11.457,11.467 11.343 C 11.467 11.308,11.479 11.280,11.493 11.280 C 11.508 11.280,12.219 11.590,13.073 11.969 C 13.928 12.348,14.667 12.672,14.717 12.689 C 14.844 12.732,15.138 12.728,15.299 12.680 C 15.596 12.592,15.852 12.335,15.947 12.031 C 15.999 11.865,16.000 11.776,16.000 8.000 C 16.000 4.224,15.999 4.135,15.947 3.969 C 15.809 3.527,15.411 3.258,14.934 3.285 C 14.734 3.297,14.693 3.313,13.128 4.009 C 12.247 4.400,11.513 4.720,11.496 4.720 C 11.480 4.720,11.467 4.692,11.467 4.657 C 11.467 4.542,11.333 4.177,11.221 3.987 C 11.080 3.748,10.759 3.426,10.520 3.286 C 10.417 3.226,10.237 3.143,10.120 3.102 L 9.907 3.027 5.813 3.022 C 2.448 3.018,1.690 3.024,1.554 3.053 M9.899 4.085 C 10.208 4.229,10.427 4.515,10.480 4.841 C 10.515 5.055,10.515 10.945,10.480 11.159 C 10.427 11.485,10.208 11.771,9.899 11.915 L 9.747 11.987 5.747 11.987 L 1.747 11.987 1.600 11.917 C 1.382 11.814,1.216 11.652,1.114 11.446 L 1.027 11.268 1.020 8.036 C 1.013 4.811,1.013 4.803,1.069 4.654 C 1.143 4.456,1.264 4.302,1.441 4.181 C 1.717 3.992,1.450 4.003,5.813 4.008 L 9.747 4.013 9.899 4.085 M14.987 8.011 L 14.987 11.729 13.240 10.951 L 11.494 10.173 11.494 8.008 C 11.493 6.305,11.500 5.839,11.527 5.822 C 11.588 5.782,14.920 4.299,14.953 4.296 C 14.980 4.294,14.987 5.053,14.987 8.011 " stroke="none" fill-rule="evenodd"></path></svg>