<svg width="16" height="16" fill="currentColor" xmlns="http://www.w3.org/2000/svg"><path d="M0.994 1.006 L 0.591 1.293 0.651 1.373 C 0.684 1.417,2.916 4.543,5.612 8.320 C 8.308 12.097,10.534 15.209,10.560 15.235 C 10.604 15.282,10.621 15.273,11.008 14.997 L 11.411 14.709 11.350 14.628 C 11.317 14.583,9.084 11.457,6.388 7.680 C 3.692 3.903,1.466 0.792,1.442 0.766 C 1.400 0.721,1.377 0.733,0.994 1.006 M4.317 3.059 C 4.332 3.085,4.486 3.305,4.660 3.547 L 4.976 3.987 7.361 4.000 L 9.747 4.013 9.899 4.085 C 10.213 4.232,10.430 4.519,10.482 4.856 C 10.499 4.964,10.506 6.170,10.501 8.120 L 10.493 11.213 10.430 11.374 L 10.367 11.536 10.652 11.934 C 10.808 12.154,10.947 12.337,10.960 12.342 C 11.003 12.357,11.251 11.992,11.337 11.787 C 11.383 11.677,11.434 11.518,11.450 11.433 C 11.466 11.349,11.488 11.280,11.499 11.280 C 11.510 11.280,12.219 11.590,13.073 11.969 C 13.928 12.348,14.667 12.672,14.717 12.689 C 14.844 12.732,15.138 12.728,15.299 12.680 C 15.596 12.592,15.852 12.335,15.947 12.031 C 15.999 11.865,16.000 11.776,16.000 8.000 C 16.000 4.224,15.999 4.135,15.947 3.969 C 15.809 3.527,15.411 3.258,14.934 3.285 C 14.734 3.297,14.693 3.313,13.128 4.009 C 12.247 4.400,11.513 4.720,11.496 4.720 C 11.480 4.720,11.467 4.692,11.467 4.657 C 11.467 4.542,11.333 4.177,11.221 3.987 C 11.080 3.748,10.759 3.426,10.520 3.286 C 10.417 3.226,10.237 3.143,10.120 3.102 L 9.907 3.027 7.099 3.019 C 4.418 3.012,4.292 3.014,4.317 3.059 M0.592 3.594 C 0.375 3.813,0.250 4.000,0.142 4.268 C -0.006 4.634,-0.002 4.529,0.006 8.088 L 0.013 11.373 0.076 11.560 C 0.353 12.380,0.973 12.891,1.807 12.986 C 2.094 13.019,7.707 13.023,7.707 12.991 C 7.707 12.978,7.553 12.753,7.365 12.491 L 7.024 12.013 4.385 12.000 L 1.747 11.987 1.600 11.917 C 1.382 11.814,1.216 11.652,1.114 11.446 L 1.027 11.268 1.027 8.000 L 1.027 4.732 1.114 4.556 C 1.161 4.459,1.249 4.335,1.309 4.281 C 1.368 4.228,1.413 4.173,1.408 4.161 C 1.381 4.086,0.860 3.388,0.832 3.387 C 0.812 3.387,0.704 3.480,0.592 3.594 M14.987 8.000 C 14.987 10.039,14.978 11.707,14.967 11.707 C 14.956 11.707,14.170 11.362,13.220 10.940 L 11.494 10.173 11.494 8.008 C 11.493 6.305,11.500 5.839,11.527 5.822 C 11.588 5.782,14.920 4.299,14.953 4.296 C 14.980 4.294,14.987 5.051,14.987 8.000 " stroke="none" fill-rule="evenodd"></path></svg>