<svg width="16" height="16" fill="currentColor" xmlns="http://www.w3.org/2000/svg"><path d="M1.182 2.040 C 0.668 2.152,0.250 2.527,0.075 3.035 L 0.013 3.213 0.013 8.000 L 0.013 12.787 0.075 12.965 C 0.229 13.411,0.589 13.771,1.035 13.925 L 1.213 13.987 8.000 13.987 L 14.787 13.987 14.965 13.925 C 15.411 13.771,15.771 13.411,15.925 12.965 L 15.987 12.787 15.987 8.000 L 15.987 3.213 15.925 3.035 C 15.771 2.589,15.405 2.224,14.962 2.073 L 14.787 2.013 8.067 2.009 C 2.512 2.005,1.318 2.010,1.182 2.040 M14.685 3.042 C 14.787 3.080,14.906 3.195,14.950 3.299 C 15.004 3.426,15.005 12.572,14.951 12.701 C 14.907 12.805,14.747 12.951,14.646 12.980 C 14.551 13.006,1.449 13.006,1.354 12.980 C 1.262 12.954,1.103 12.815,1.052 12.717 C 0.995 12.606,0.994 3.395,1.051 3.285 C 1.092 3.207,1.208 3.091,1.293 3.044 C 1.368 3.003,14.577 3.001,14.685 3.042 M3.266 5.063 C 3.161 5.127,3.046 5.264,3.020 5.355 C 3.009 5.395,3.000 5.697,3.000 6.027 C 3.000 6.541,3.006 6.638,3.045 6.709 C 3.104 6.816,3.261 6.954,3.354 6.980 C 3.449 7.006,12.551 7.006,12.646 6.980 C 12.739 6.954,12.896 6.816,12.955 6.709 C 12.994 6.638,13.000 6.541,13.000 6.027 C 13.000 5.697,12.991 5.394,12.980 5.354 C 12.951 5.253,12.805 5.093,12.701 5.049 C 12.630 5.020,11.813 5.013,7.981 5.013 C 3.514 5.014,3.344 5.015,3.266 5.063 M3.290 8.051 C 3.039 8.165,2.930 8.492,3.061 8.737 C 3.106 8.819,3.270 8.956,3.354 8.980 C 3.449 9.006,12.551 9.006,12.646 8.980 C 12.730 8.956,12.894 8.819,12.939 8.737 C 13.070 8.492,12.961 8.165,12.710 8.051 C 12.604 8.003,12.436 8.001,8.000 8.001 C 3.564 8.001,3.396 8.003,3.290 8.051 M3.290 10.051 C 3.230 10.078,3.150 10.141,3.112 10.191 C 3.046 10.278,2.981 10.481,3.000 10.543 C 3.005 10.560,3.016 10.606,3.025 10.646 C 3.045 10.737,3.181 10.894,3.291 10.955 C 3.367 10.996,3.611 11.001,6.413 11.007 C 8.547 11.012,9.495 11.006,9.594 10.985 C 10.073 10.886,10.140 10.252,9.694 10.050 C 9.592 10.004,9.428 10.001,6.493 10.001 C 3.529 10.001,3.395 10.003,3.290 10.051 " stroke="none" fill-rule="evenodd"></path></svg>