<svg width="16" height="16" fill="currentColor" xmlns="http://www.w3.org/2000/svg"><path d="M1.182 2.040 C 0.668 2.152,0.250 2.527,0.075 3.035 L 0.013 3.213 0.013 8.000 L 0.013 12.787 0.075 12.965 C 0.229 13.411,0.589 13.771,1.035 13.925 L 1.213 13.987 8.000 13.987 L 14.787 13.987 14.965 13.925 C 15.411 13.771,15.771 13.411,15.925 12.965 L 15.987 12.787 15.987 8.000 L 15.987 3.213 15.925 3.035 C 15.771 2.589,15.405 2.224,14.962 2.073 L 14.787 2.013 8.067 2.009 C 2.512 2.005,1.318 2.010,1.182 2.040 M14.701 3.049 C 14.816 3.097,14.954 3.258,14.973 3.366 C 14.981 3.414,14.985 4.811,14.981 6.471 L 14.973 9.488 13.057 8.500 C 11.041 7.460,11.066 7.471,10.840 7.529 C 10.783 7.544,10.223 8.087,8.853 9.455 L 6.947 11.360 5.573 10.444 C 4.536 9.754,4.172 9.525,4.093 9.512 C 3.953 9.490,3.805 9.526,3.699 9.608 C 3.652 9.644,3.031 10.193,2.320 10.826 L 1.027 11.979 1.019 7.689 C 1.015 5.330,1.018 3.374,1.026 3.342 C 1.045 3.265,1.165 3.124,1.266 3.063 C 1.344 3.015,1.566 3.014,7.981 3.013 C 13.493 3.013,14.630 3.019,14.701 3.049 M4.167 4.039 C 3.756 4.132,3.340 4.461,3.166 4.830 C 3.044 5.087,3.010 5.239,3.011 5.518 C 3.013 6.181,3.459 6.757,4.119 6.948 C 4.341 7.012,4.709 7.007,4.933 6.936 C 5.436 6.778,5.819 6.378,5.947 5.878 C 6.043 5.504,6.011 5.198,5.839 4.840 C 5.669 4.485,5.336 4.195,4.962 4.077 C 4.737 4.006,4.386 3.989,4.167 4.039 " stroke="none" fill-rule="evenodd"></path></svg>