<svg width="16" height="16" fill="currentColor" xmlns="http://www.w3.org/2000/svg"><path d="M1.669 0.028 C 0.992 0.142,0.371 0.651,0.135 1.283 C -0.006 1.659,0.001 1.324,0.000 7.994 C -0.000 14.784,-0.010 14.361,0.156 14.767 C 0.347 15.238,0.762 15.653,1.233 15.844 C 1.639 16.010,1.217 16.000,8.000 16.000 C 14.782 16.000,14.361 16.010,14.766 15.845 C 15.233 15.654,15.654 15.233,15.845 14.766 C 16.010 14.361,16.000 14.782,16.000 8.000 C 16.000 1.217,16.010 1.639,15.844 1.233 C 15.666 0.795,15.309 0.422,14.864 0.208 C 14.422 -0.005,15.102 0.015,8.080 0.010 C 4.626 0.008,1.741 0.016,1.669 0.028 M10.270 3.586 C 10.323 3.621,10.395 3.696,10.430 3.752 L 10.493 3.853 10.493 8.004 L 10.493 12.155 10.413 12.270 C 10.301 12.428,10.182 12.492,9.998 12.492 C 9.880 12.492,9.826 12.477,9.744 12.422 C 9.532 12.280,5.133 8.347,5.074 8.247 C 5.032 8.176,5.014 8.104,5.014 8.000 C 5.014 7.896,5.032 7.824,5.074 7.753 C 5.110 7.692,6.024 6.861,7.373 5.663 C 8.605 4.569,9.652 3.643,9.700 3.607 C 9.867 3.479,10.095 3.471,10.270 3.586 " stroke="none" fill-rule="evenodd"></path></svg>