<svg width="16" height="16" fill="currentColor" xmlns="http://www.w3.org/2000/svg"><path d="M1.669 0.028 C 0.992 0.142,0.371 0.651,0.135 1.283 C -0.006 1.659,0.001 1.324,0.000 7.994 C -0.000 14.784,-0.010 14.361,0.156 14.767 C 0.347 15.238,0.762 15.653,1.233 15.844 C 1.639 16.010,1.217 16.000,8.000 16.000 C 14.782 16.000,14.361 16.010,14.766 15.845 C 15.233 15.654,15.654 15.233,15.845 14.766 C 16.010 14.361,16.000 14.782,16.000 8.000 C 16.000 1.217,16.010 1.639,15.844 1.233 C 15.666 0.795,15.309 0.422,14.864 0.208 C 14.422 -0.005,15.102 0.015,8.080 0.010 C 4.626 0.008,1.741 0.016,1.669 0.028 M12.180 6.041 C 12.442 6.151,12.562 6.436,12.454 6.693 C 12.421 6.773,8.502 11.210,8.317 11.378 C 8.147 11.533,7.853 11.533,7.683 11.378 C 7.511 11.222,3.581 6.776,3.554 6.707 C 3.442 6.426,3.539 6.168,3.799 6.050 C 3.902 6.003,4.086 6.001,7.994 6.001 C 11.624 6.000,12.093 6.005,12.180 6.041 " stroke="none" fill-rule="evenodd"></path></svg>