<svg width="16" height="16" fill="currentColor" xmlns="http://www.w3.org/2000/svg"><path d="M5.733 2.237 C 5.444 2.332,5.169 2.582,5.062 2.847 L 5.000 3.000 4.993 7.867 C 4.988 11.086,4.994 12.793,5.012 12.911 C 5.027 13.008,5.064 13.144,5.093 13.212 C 5.165 13.381,5.381 13.602,5.566 13.695 C 5.707 13.767,5.743 13.773,6.000 13.773 C 6.251 13.773,6.295 13.766,6.427 13.700 C 6.530 13.649,7.323 12.971,9.120 11.398 C 12.606 8.345,12.274 8.647,12.378 8.434 C 12.458 8.269,12.466 8.232,12.466 8.000 C 12.467 7.763,12.461 7.734,12.373 7.560 C 12.280 7.374,12.276 7.370,9.429 4.875 C 7.378 3.079,6.536 2.357,6.429 2.304 C 6.305 2.243,6.239 2.229,6.040 2.222 C 5.908 2.218,5.770 2.225,5.733 2.237 M8.740 5.601 C 10.232 6.907,11.453 7.986,11.453 8.000 C 11.453 8.024,6.041 12.773,6.013 12.773 C 6.006 12.773,6.000 10.625,6.000 8.000 C 6.000 5.375,6.006 3.227,6.013 3.227 C 6.021 3.227,7.248 4.295,8.740 5.601 " stroke="none" fill-rule="evenodd"></path></svg>