<svg width="16" height="16" fill="currentColor" xmlns="http://www.w3.org/2000/svg"><path d="M7.647 4.584 C 7.578 4.612,7.474 4.670,7.415 4.713 C 7.356 4.756,6.196 6.062,4.836 7.616 C 3.026 9.684,2.347 10.477,2.301 10.578 C 2.068 11.086,2.286 11.677,2.795 11.916 L 2.947 11.987 7.933 11.994 C 12.850 12.001,12.922 12.000,13.093 11.948 C 13.406 11.852,13.660 11.596,13.750 11.286 C 13.811 11.077,13.790 10.777,13.702 10.586 C 13.651 10.475,13.070 9.793,11.268 7.733 C 9.967 6.245,8.829 4.952,8.741 4.860 C 8.509 4.621,8.348 4.548,8.027 4.540 C 7.829 4.535,7.746 4.544,7.647 4.584 " stroke="none" fill-rule="evenodd"></path></svg>