<svg width="16" height="16" fill="currentColor" xmlns="http://www.w3.org/2000/svg"><path d="M2.904 4.051 C 2.325 4.236,2.047 4.867,2.301 5.421 C 2.348 5.523,3.020 6.309,4.825 8.373 C 6.179 9.921,7.318 11.214,7.356 11.246 C 7.468 11.341,7.681 11.437,7.847 11.468 C 8.162 11.526,8.481 11.409,8.741 11.140 C 8.829 11.048,9.967 9.755,11.268 8.267 C 13.036 6.245,13.653 5.523,13.704 5.413 C 13.764 5.286,13.773 5.231,13.773 5.000 C 13.773 4.781,13.763 4.711,13.714 4.605 C 13.628 4.419,13.503 4.272,13.343 4.170 C 13.060 3.989,13.410 4.000,7.974 4.001 C 3.323 4.003,3.045 4.005,2.904 4.051 " stroke="none" fill-rule="evenodd"></path></svg>