<svg width="16" height="16" fill="currentColor" xmlns="http://www.w3.org/2000/svg"><path d="M0.262 1.067 C -0.017 1.215,-0.084 1.584,0.126 1.817 C 0.179 1.875,0.247 1.937,0.278 1.955 C 0.315 1.976,0.548 1.991,0.972 2.000 L 1.610 2.013 1.804 2.787 C 1.963 3.418,2.136 4.291,2.747 7.547 C 3.159 9.739,3.507 11.578,3.522 11.632 C 3.557 11.764,3.667 11.890,3.799 11.950 C 3.889 11.991,3.983 11.999,4.360 12.003 C 4.679 12.005,4.776 12.012,4.689 12.027 C 3.629 12.206,2.899 13.161,3.016 14.213 C 3.108 15.030,3.647 15.672,4.454 15.924 C 4.741 16.014,5.259 16.014,5.546 15.924 C 6.203 15.719,6.701 15.239,6.896 14.627 C 7.272 13.442,6.536 12.234,5.311 12.027 C 5.243 12.016,6.675 12.006,8.493 12.006 C 10.317 12.006,11.741 12.016,11.669 12.028 C 11.230 12.102,10.772 12.366,10.469 12.720 C 9.991 13.278,9.871 14.067,10.156 14.767 C 10.347 15.238,10.762 15.653,11.233 15.844 C 11.993 16.153,12.834 15.986,13.410 15.410 C 14.159 14.661,14.197 13.475,13.497 12.680 C 13.207 12.351,12.644 12.047,12.275 12.021 C 12.234 12.019,12.417 12.010,12.682 12.001 C 13.149 11.987,13.168 11.984,13.272 11.915 C 13.337 11.872,13.402 11.798,13.435 11.728 C 13.492 11.610,15.023 3.529,15.001 3.460 C 14.996 3.442,14.984 3.394,14.975 3.354 C 14.958 3.274,14.825 3.110,14.736 3.059 C 14.693 3.034,13.333 3.024,8.787 3.013 L 2.893 3.000 2.676 2.141 C 2.532 1.573,2.439 1.254,2.400 1.200 C 2.368 1.156,2.296 1.095,2.239 1.066 C 2.142 1.017,2.081 1.013,1.248 1.015 C 0.423 1.016,0.353 1.019,0.262 1.067 M13.882 4.073 C 13.854 4.214,12.587 10.985,12.587 10.999 C 12.587 11.007,10.748 11.010,8.501 11.007 L 4.416 11.000 3.760 7.500 L 3.103 4.000 8.500 4.000 L 13.898 4.000 13.882 4.073 M6.947 5.506 C 6.932 5.511,6.887 5.523,6.847 5.531 C 6.749 5.553,6.587 5.699,6.543 5.805 C 6.495 5.919,6.497 6.085,6.547 6.206 C 6.573 6.267,6.810 6.527,7.187 6.906 L 7.786 7.508 7.198 8.094 C 6.874 8.416,6.586 8.725,6.558 8.779 C 6.465 8.959,6.511 9.235,6.657 9.363 C 6.812 9.499,7.048 9.532,7.221 9.442 C 7.275 9.414,7.584 9.126,7.906 8.803 L 8.491 8.215 9.106 8.823 C 9.770 9.482,9.811 9.511,10.056 9.487 C 10.228 9.471,10.358 9.378,10.440 9.215 C 10.591 8.915,10.539 8.823,9.806 8.087 L 9.215 7.493 9.832 6.873 C 10.339 6.363,10.454 6.234,10.477 6.147 C 10.513 6.015,10.513 5.985,10.479 5.861 C 10.445 5.740,10.342 5.613,10.230 5.555 C 10.130 5.503,9.880 5.497,9.787 5.545 C 9.750 5.564,9.447 5.850,9.114 6.182 L 8.508 6.785 7.914 6.196 C 7.587 5.872,7.284 5.589,7.240 5.567 C 7.156 5.525,6.992 5.491,6.947 5.506 M5.446 13.114 C 6.160 13.466,6.177 14.500,5.475 14.873 C 4.661 15.306,3.763 14.528,4.067 13.653 C 4.156 13.398,4.357 13.192,4.633 13.077 C 4.764 13.022,4.823 13.013,5.027 13.019 C 5.237 13.026,5.291 13.038,5.446 13.114 M12.431 13.101 C 12.608 13.188,12.833 13.417,12.915 13.593 C 12.963 13.698,12.973 13.768,12.973 14.000 C 12.973 14.251,12.966 14.295,12.901 14.428 C 12.707 14.821,12.268 15.054,11.848 14.986 C 11.533 14.935,11.241 14.717,11.101 14.430 C 11.009 14.243,10.986 13.920,11.050 13.701 C 11.130 13.427,11.385 13.160,11.662 13.061 C 11.873 12.986,12.234 13.005,12.431 13.101 " stroke="none" fill-rule="evenodd"></path></svg>