<svg width="16" height="16" fill="currentColor" xmlns="http://www.w3.org/2000/svg"><path d="M1.669 0.028 C 0.992 0.142,0.371 0.651,0.135 1.283 C -0.006 1.659,0.001 1.324,0.000 7.994 C -0.000 14.784,-0.010 14.361,0.156 14.767 C 0.347 15.238,0.762 15.653,1.233 15.844 C 1.639 16.010,1.217 16.000,8.000 16.000 C 14.782 16.000,14.361 16.010,14.766 15.845 C 15.233 15.654,15.654 15.233,15.845 14.766 C 16.010 14.361,16.000 14.782,16.000 8.000 C 16.000 1.217,16.010 1.639,15.844 1.233 C 15.666 0.795,15.309 0.422,14.864 0.208 C 14.422 -0.005,15.102 0.015,8.080 0.010 C 4.626 0.008,1.741 0.016,1.669 0.028 M5.907 4.938 C 6.453 5.021,6.998 5.323,7.301 5.709 C 7.559 6.039,7.733 6.505,7.733 6.864 L 7.733 7.014 7.169 7.007 L 6.605 7.000 6.571 6.837 C 6.434 6.163,5.817 5.776,5.115 5.923 C 4.553 6.040,4.206 6.518,4.108 7.306 C 4.073 7.590,4.072 8.420,4.107 8.720 C 4.211 9.630,4.662 10.108,5.412 10.106 C 5.653 10.105,5.799 10.074,5.991 9.984 C 6.282 9.846,6.536 9.503,6.577 9.193 L 6.594 9.067 7.167 9.067 L 7.741 9.067 7.725 9.273 C 7.632 10.452,6.447 11.258,5.048 11.096 C 3.910 10.963,3.203 10.316,2.960 9.185 C 2.887 8.849,2.855 7.699,2.904 7.230 C 2.988 6.431,3.301 5.777,3.781 5.400 C 4.320 4.975,5.075 4.811,5.907 4.938 M11.319 4.938 C 11.935 5.033,12.501 5.385,12.814 5.867 C 13.009 6.168,13.099 6.435,13.135 6.820 L 13.154 7.013 12.582 7.013 L 12.011 7.013 11.977 6.847 C 11.850 6.229,11.347 5.852,10.712 5.900 C 10.066 5.949,9.665 6.374,9.531 7.151 C 9.497 7.350,9.491 7.540,9.500 8.133 C 9.510 8.774,9.518 8.893,9.568 9.072 C 9.646 9.359,9.750 9.559,9.911 9.733 C 10.148 9.990,10.430 10.106,10.815 10.106 C 11.409 10.107,11.852 9.768,11.974 9.220 L 12.008 9.067 12.578 9.067 L 13.147 9.067 13.146 9.153 C 13.144 9.314,13.074 9.639,13.003 9.812 C 12.696 10.565,11.931 11.052,10.965 11.110 C 10.324 11.148,9.707 10.985,9.240 10.653 C 8.819 10.355,8.507 9.841,8.367 9.213 C 8.289 8.867,8.267 7.484,8.332 7.036 C 8.555 5.498,9.707 4.689,11.319 4.938 " stroke="none" fill-rule="evenodd"></path></svg>