<svg width="16" height="16" fill="currentColor" xmlns="http://www.w3.org/2000/svg"><path d="M1.669 0.028 C 0.992 0.142,0.371 0.651,0.135 1.283 C -0.004 1.654,0.001 1.489,0.000 5.994 C -0.000 10.586,-0.007 10.367,0.156 10.767 C 0.344 11.230,0.764 11.654,1.213 11.836 C 1.583 11.986,1.528 11.982,3.187 11.998 C 4.728 12.013,4.734 12.014,4.867 12.075 C 5.145 12.203,5.183 12.246,6.243 13.658 C 6.965 14.619,7.316 15.065,7.403 15.131 C 7.548 15.242,7.817 15.333,8.000 15.333 C 8.183 15.333,8.452 15.242,8.597 15.131 C 8.684 15.065,9.035 14.619,9.757 13.658 C 10.817 12.246,10.855 12.203,11.133 12.075 C 11.266 12.014,11.272 12.013,12.813 11.998 C 13.949 11.987,14.388 11.974,14.467 11.950 C 14.758 11.858,14.905 11.792,15.078 11.679 C 15.422 11.453,15.700 11.122,15.845 10.766 C 16.007 10.367,16.000 10.584,16.000 6.000 C 16.000 1.415,16.007 1.633,15.844 1.233 C 15.666 0.795,15.309 0.422,14.864 0.208 C 14.422 -0.005,15.102 0.015,8.080 0.010 C 4.626 0.008,1.741 0.016,1.669 0.028 M6.303 4.101 C 6.612 4.207,6.798 4.324,7.002 4.539 C 7.304 4.859,7.522 5.308,7.615 5.805 C 7.679 6.144,7.656 6.721,7.565 7.067 C 7.407 7.665,7.087 8.224,6.615 8.728 C 6.417 8.938,6.330 8.991,6.176 8.993 C 5.880 8.998,5.659 8.707,5.759 8.444 C 5.772 8.407,5.858 8.296,5.950 8.196 C 6.202 7.918,6.417 7.616,6.534 7.374 C 6.592 7.254,6.640 7.143,6.640 7.126 C 6.640 7.109,6.581 7.123,6.497 7.162 C 5.807 7.478,5.012 7.340,4.493 6.816 C 4.295 6.616,4.122 6.322,4.051 6.067 C 4.003 5.895,4.003 5.438,4.051 5.267 C 4.111 5.050,4.293 4.723,4.445 4.559 C 4.687 4.297,5.065 4.092,5.422 4.028 C 5.677 3.982,6.046 4.012,6.303 4.101 M10.421 4.041 C 10.717 4.099,11.083 4.285,11.278 4.475 C 11.575 4.766,11.807 5.196,11.925 5.672 C 12.014 6.032,12.009 6.631,11.913 7.016 C 11.756 7.647,11.413 8.249,10.916 8.762 C 10.775 8.909,10.708 8.958,10.620 8.980 C 10.336 9.050,10.080 8.864,10.080 8.587 C 10.080 8.443,10.120 8.375,10.360 8.107 C 10.459 7.997,10.600 7.818,10.673 7.709 C 10.810 7.508,11.001 7.126,10.978 7.102 C 10.970 7.095,10.937 7.107,10.902 7.129 C 10.868 7.152,10.745 7.202,10.628 7.241 C 9.952 7.467,9.188 7.254,8.728 6.711 C 8.309 6.217,8.225 5.498,8.522 4.933 C 8.701 4.593,8.947 4.355,9.293 4.187 C 9.658 4.010,10.025 3.962,10.421 4.041 " stroke="none" fill-rule="evenodd"></path></svg>