<svg width="16" height="16" fill="currentColor" xmlns="http://www.w3.org/2000/svg"><path d="M7.133 1.043 C 5.469 1.199,3.860 1.837,2.588 2.847 C 2.225 3.136,1.625 3.748,1.355 4.107 C 0.665 5.022,0.274 5.915,0.076 7.033 C -0.005 7.492,-0.012 8.443,0.063 8.893 C 0.289 10.256,0.850 11.397,1.795 12.416 L 1.971 12.605 1.932 12.897 C 1.832 13.666,1.586 14.591,1.278 15.364 C 1.155 15.674,1.154 15.773,1.274 15.868 C 1.368 15.943,1.519 15.931,2.173 15.801 C 3.401 15.556,4.588 15.192,5.409 14.811 L 5.657 14.695 5.929 14.760 C 6.285 14.846,6.737 14.922,7.133 14.962 C 7.538 15.003,8.453 15.003,8.853 14.961 C 10.649 14.777,12.241 14.128,13.520 13.059 C 16.560 10.519,16.838 6.366,14.157 3.535 C 12.825 2.128,10.900 1.229,8.813 1.040 C 8.470 1.009,7.479 1.011,7.133 1.043 M7.227 5.553 C 7.414 5.597,7.651 5.714,7.832 5.850 L 7.997 5.976 8.165 5.851 C 8.491 5.609,8.791 5.510,9.200 5.511 C 9.510 5.512,9.726 5.564,10.027 5.711 C 10.208 5.800,10.298 5.868,10.481 6.051 C 10.841 6.413,10.985 6.766,10.986 7.288 C 10.987 7.606,10.933 7.881,10.809 8.190 C 10.507 8.944,9.823 9.754,8.847 10.515 C 8.545 10.749,8.075 11.087,8.020 11.108 C 7.978 11.124,7.524 10.809,7.093 10.466 C 6.314 9.845,5.789 9.277,5.426 8.664 C 5.143 8.184,5.013 7.751,5.014 7.288 C 5.015 6.766,5.159 6.414,5.519 6.052 C 5.823 5.747,6.137 5.585,6.548 5.522 C 6.724 5.495,7.043 5.509,7.227 5.553 " stroke="none" fill-rule="evenodd"></path></svg>