<svg width="16" height="16" fill="currentColor" xmlns="http://www.w3.org/2000/svg"><path d="M1.669 0.028 C 0.992 0.142,0.371 0.651,0.135 1.283 C -0.004 1.654,0.001 1.489,0.000 5.994 C -0.000 10.586,-0.007 10.367,0.156 10.767 C 0.344 11.230,0.764 11.654,1.213 11.836 C 1.609 11.997,1.176 11.984,6.734 11.999 L 11.828 12.013 12.014 12.104 C 12.186 12.187,12.314 12.308,13.720 13.707 C 14.556 14.540,15.267 15.234,15.300 15.251 C 15.370 15.287,15.562 15.295,15.655 15.267 C 15.768 15.232,15.898 15.116,15.949 15.003 C 15.997 14.897,15.999 14.683,15.999 8.352 C 16.000 1.182,16.010 1.640,15.844 1.233 C 15.666 0.795,15.309 0.422,14.864 0.208 C 14.422 -0.005,15.102 0.015,8.080 0.010 C 4.626 0.008,1.741 0.016,1.669 0.028 " stroke="none" fill-rule="evenodd"></path></svg>