<svg width="16" height="16" fill="currentColor" xmlns="http://www.w3.org/2000/svg"><path d="M1.669 0.028 C 0.992 0.142,0.371 0.651,0.135 1.283 C -0.004 1.654,0.001 1.489,0.000 5.994 C -0.000 10.586,-0.007 10.367,0.156 10.767 C 0.344 11.230,0.764 11.654,1.213 11.836 C 1.583 11.986,1.528 11.982,3.187 11.998 C 4.728 12.013,4.734 12.014,4.867 12.075 C 5.145 12.203,5.183 12.246,6.243 13.658 C 6.965 14.619,7.316 15.065,7.403 15.131 C 7.548 15.242,7.817 15.333,8.000 15.333 C 8.183 15.333,8.452 15.242,8.597 15.131 C 8.684 15.065,9.035 14.619,9.757 13.658 C 10.817 12.246,10.855 12.203,11.133 12.075 C 11.266 12.014,11.272 12.013,12.813 11.998 C 13.949 11.987,14.388 11.974,14.467 11.950 C 14.758 11.858,14.905 11.792,15.078 11.679 C 15.422 11.453,15.700 11.122,15.845 10.766 C 16.007 10.367,16.000 10.584,16.000 6.000 C 16.000 1.415,16.007 1.633,15.844 1.233 C 15.666 0.795,15.309 0.422,14.864 0.208 C 14.422 -0.005,15.102 0.015,8.080 0.010 C 4.626 0.008,1.741 0.016,1.669 0.028 M12.701 3.050 C 12.805 3.094,12.920 3.213,12.958 3.315 C 13.025 3.492,12.967 3.753,12.835 3.872 C 12.687 4.007,12.934 4.000,8.000 4.000 C 3.066 4.000,3.313 4.007,3.165 3.872 C 3.026 3.747,2.968 3.445,3.051 3.285 C 3.092 3.207,3.208 3.091,3.293 3.044 C 3.332 3.023,4.653 3.015,7.981 3.014 C 11.858 3.013,12.629 3.019,12.701 3.050 M12.743 5.573 C 13.074 5.763,13.066 6.275,12.730 6.442 C 12.629 6.492,12.515 6.493,8.000 6.493 C 3.485 6.493,3.371 6.492,3.270 6.442 C 3.207 6.411,3.136 6.343,3.090 6.270 C 2.904 5.976,3.057 5.600,3.396 5.519 C 3.442 5.507,5.538 5.500,8.053 5.503 L 12.627 5.507 12.743 5.573 M8.687 8.041 C 8.741 8.064,8.807 8.103,8.835 8.128 C 8.973 8.252,9.027 8.519,8.951 8.701 C 8.907 8.805,8.747 8.951,8.646 8.980 C 8.551 9.006,3.449 9.006,3.354 8.980 C 3.262 8.954,3.103 8.815,3.052 8.717 C 2.968 8.555,3.025 8.254,3.165 8.128 C 3.308 7.998,3.224 8.002,5.994 8.001 C 8.270 8.000,8.600 8.005,8.687 8.041 " stroke="none" fill-rule="evenodd"></path></svg>