<svg width="16" height="16" fill="currentColor" xmlns="http://www.w3.org/2000/svg"><path d="M1.669 0.028 C 0.992 0.142,0.371 0.651,0.135 1.283 C -0.006 1.660,0.001 1.294,0.001 8.347 C 0.001 14.684,0.003 14.897,0.051 15.003 C 0.149 15.218,0.385 15.327,0.623 15.266 C 0.743 15.236,0.843 15.142,2.276 13.712 C 3.705 12.285,3.812 12.184,3.987 12.102 L 4.173 12.013 9.267 12.000 C 13.363 11.988,14.381 11.979,14.467 11.951 C 14.776 11.849,14.907 11.791,15.078 11.679 C 15.422 11.453,15.700 11.122,15.845 10.766 C 16.007 10.367,16.000 10.584,16.000 6.000 C 16.000 1.415,16.007 1.633,15.844 1.233 C 15.666 0.795,15.309 0.422,14.864 0.208 C 14.422 -0.005,15.102 0.015,8.080 0.010 C 4.626 0.008,1.741 0.016,1.669 0.028 M14.407 1.085 C 14.584 1.167,14.812 1.392,14.900 1.570 L 14.973 1.720 14.973 6.000 L 14.973 10.280 14.901 10.428 C 14.757 10.720,14.468 10.934,14.145 10.987 C 14.046 11.003,12.132 11.013,9.064 11.013 C 4.229 11.013,4.138 11.014,3.933 11.067 C 3.409 11.201,3.302 11.284,2.073 12.504 L 1.013 13.557 1.014 7.678 C 1.015 2.107,1.018 1.793,1.063 1.662 C 1.154 1.399,1.399 1.154,1.662 1.063 C 1.793 1.017,2.106 1.015,8.040 1.021 L 14.280 1.027 14.407 1.085 M3.662 5.061 C 3.221 5.219,2.939 5.692,3.014 6.152 C 3.145 6.957,4.127 7.277,4.702 6.702 C 5.188 6.216,5.050 5.404,4.429 5.100 C 4.234 5.005,3.872 4.986,3.662 5.061 M7.662 5.061 C 7.221 5.219,6.939 5.692,7.014 6.152 C 7.145 6.957,8.127 7.277,8.702 6.702 C 9.188 6.216,9.050 5.404,8.429 5.100 C 8.234 5.005,7.872 4.986,7.662 5.061 M11.662 5.061 C 11.221 5.219,10.939 5.692,11.014 6.152 C 11.145 6.957,12.127 7.277,12.702 6.702 C 13.188 6.216,13.050 5.404,12.429 5.100 C 12.234 5.005,11.872 4.986,11.662 5.061 " stroke="none" fill-rule="evenodd"></path></svg>