<svg width="16" height="16" fill="currentColor" xmlns="http://www.w3.org/2000/svg"><path d="M1.669 0.028 C 0.992 0.142,0.371 0.651,0.135 1.283 C -0.006 1.660,0.001 1.294,0.001 8.347 C 0.001 14.684,0.003 14.897,0.051 15.003 C 0.149 15.218,0.385 15.327,0.623 15.266 C 0.743 15.236,0.843 15.142,2.276 13.712 C 3.705 12.285,3.812 12.184,3.987 12.102 L 4.173 12.013 9.267 12.000 C 13.363 11.988,14.381 11.979,14.467 11.951 C 14.776 11.849,14.907 11.791,15.078 11.679 C 15.422 11.453,15.700 11.122,15.845 10.766 C 16.007 10.367,16.000 10.584,16.000 6.000 C 16.000 1.415,16.007 1.633,15.844 1.233 C 15.666 0.795,15.309 0.422,14.864 0.208 C 14.422 -0.005,15.102 0.015,8.080 0.010 C 4.626 0.008,1.741 0.016,1.669 0.028 M14.407 1.085 C 14.584 1.167,14.812 1.392,14.900 1.570 L 14.973 1.720 14.973 6.000 L 14.973 10.280 14.901 10.428 C 14.757 10.720,14.468 10.934,14.145 10.987 C 14.046 11.003,12.132 11.013,9.064 11.013 C 4.229 11.013,4.138 11.014,3.933 11.067 C 3.409 11.201,3.302 11.284,2.073 12.504 L 1.013 13.557 1.014 7.678 C 1.015 2.107,1.018 1.793,1.063 1.662 C 1.154 1.399,1.399 1.154,1.662 1.063 C 1.793 1.017,2.106 1.015,8.040 1.021 L 14.280 1.027 14.407 1.085 M3.293 3.044 C 3.218 3.086,3.094 3.204,3.060 3.266 C 2.930 3.507,3.040 3.836,3.290 3.949 C 3.396 3.997,3.564 3.999,8.000 3.999 C 12.436 3.999,12.604 3.997,12.710 3.949 C 12.960 3.836,13.070 3.507,12.940 3.266 C 12.896 3.186,12.769 3.073,12.685 3.042 C 12.577 3.001,3.367 3.004,3.293 3.044 M3.396 5.519 C 3.058 5.600,2.902 5.967,3.084 6.259 C 3.130 6.334,3.202 6.404,3.267 6.438 L 3.373 6.493 8.000 6.493 L 12.627 6.493 12.733 6.438 C 13.071 6.261,13.077 5.764,12.743 5.573 L 12.627 5.507 8.053 5.503 C 5.538 5.500,3.442 5.507,3.396 5.519 M3.290 8.051 C 3.039 8.165,2.930 8.492,3.061 8.737 C 3.106 8.819,3.270 8.956,3.354 8.980 C 3.449 9.006,8.551 9.006,8.646 8.980 C 8.730 8.956,8.894 8.819,8.939 8.737 C 9.070 8.492,8.961 8.165,8.710 8.051 C 8.605 8.003,8.482 8.001,6.000 8.001 C 3.518 8.001,3.395 8.003,3.290 8.051 " stroke="none" fill-rule="evenodd"></path></svg>