<svg width="16" height="16" fill="currentColor" xmlns="http://www.w3.org/2000/svg"><path d="M1.669 0.028 C 0.992 0.142,0.371 0.651,0.135 1.283 C -0.004 1.654,0.001 1.489,0.000 5.994 C -0.000 10.586,-0.007 10.367,0.156 10.767 C 0.344 11.230,0.764 11.654,1.213 11.836 C 1.609 11.997,1.176 11.984,6.734 11.999 L 11.828 12.013 12.014 12.104 C 12.186 12.187,12.314 12.308,13.720 13.707 C 14.556 14.540,15.267 15.234,15.300 15.251 C 15.370 15.287,15.562 15.295,15.655 15.267 C 15.768 15.232,15.898 15.116,15.949 15.003 C 15.997 14.897,15.999 14.683,15.999 8.352 C 16.000 1.182,16.010 1.640,15.844 1.233 C 15.666 0.795,15.309 0.422,14.864 0.208 C 14.422 -0.005,15.102 0.015,8.080 0.010 C 4.626 0.008,1.741 0.016,1.669 0.028 M6.253 4.081 C 6.545 4.171,6.742 4.289,6.963 4.507 C 7.441 4.978,7.675 5.641,7.646 6.440 C 7.615 7.270,7.285 8.003,6.619 8.723 C 6.421 8.936,6.331 8.991,6.176 8.993 C 5.950 8.997,5.771 8.842,5.741 8.617 C 5.724 8.486,5.778 8.380,5.969 8.173 C 6.198 7.925,6.419 7.614,6.534 7.374 C 6.592 7.254,6.640 7.143,6.640 7.126 C 6.640 7.109,6.581 7.123,6.497 7.162 C 5.807 7.478,5.012 7.340,4.493 6.816 C 4.295 6.616,4.122 6.322,4.051 6.067 C 4.003 5.895,4.003 5.438,4.051 5.267 C 4.110 5.052,4.285 4.738,4.440 4.567 C 4.681 4.301,5.060 4.093,5.422 4.027 C 5.634 3.989,6.040 4.016,6.253 4.081 M10.421 4.042 C 11.011 4.164,11.425 4.503,11.722 5.109 C 11.787 5.242,11.872 5.470,11.911 5.615 C 11.972 5.846,11.981 5.934,11.982 6.307 C 11.984 6.682,11.976 6.767,11.913 7.016 C 11.756 7.648,11.413 8.249,10.916 8.762 C 10.775 8.909,10.708 8.958,10.620 8.980 C 10.338 9.049,10.080 8.864,10.080 8.592 C 10.080 8.444,10.101 8.406,10.341 8.133 C 10.450 8.009,10.599 7.819,10.672 7.711 C 10.814 7.502,11.003 7.127,10.979 7.104 C 10.971 7.096,10.937 7.107,10.902 7.129 C 10.768 7.217,10.416 7.312,10.175 7.326 C 9.180 7.385,8.347 6.629,8.347 5.667 C 8.347 5.026,8.698 4.478,9.293 4.186 C 9.654 4.009,10.029 3.961,10.421 4.042 " stroke="none" fill-rule="evenodd"></path></svg>