<svg width="16" height="16" fill="currentColor" xmlns="http://www.w3.org/2000/svg"><path d="M1.669 0.028 C 0.992 0.142,0.371 0.651,0.135 1.283 C -0.004 1.654,0.001 1.489,0.000 5.994 C -0.000 10.586,-0.007 10.367,0.156 10.767 C 0.344 11.230,0.764 11.654,1.213 11.836 C 1.583 11.986,1.528 11.982,3.187 11.998 C 4.728 12.013,4.734 12.014,4.867 12.075 C 5.145 12.203,5.183 12.246,6.243 13.658 C 6.965 14.619,7.316 15.065,7.403 15.131 C 7.548 15.242,7.817 15.333,8.000 15.333 C 8.183 15.333,8.452 15.242,8.597 15.131 C 8.684 15.065,9.035 14.619,9.757 13.658 C 10.817 12.246,10.855 12.203,11.133 12.075 C 11.266 12.014,11.272 12.013,12.813 11.998 C 13.949 11.987,14.388 11.974,14.467 11.950 C 14.758 11.858,14.905 11.792,15.078 11.679 C 15.422 11.453,15.700 11.122,15.845 10.766 C 16.007 10.367,16.000 10.584,16.000 6.000 C 16.000 1.415,16.007 1.633,15.844 1.233 C 15.666 0.795,15.309 0.422,14.864 0.208 C 14.422 -0.005,15.102 0.015,8.080 0.010 C 4.626 0.008,1.741 0.016,1.669 0.028 M7.227 3.553 C 7.414 3.597,7.651 3.714,7.832 3.850 L 7.997 3.976 8.165 3.851 C 8.491 3.609,8.791 3.510,9.200 3.511 C 9.510 3.512,9.726 3.564,10.027 3.711 C 10.208 3.800,10.298 3.868,10.481 4.051 C 10.841 4.413,10.985 4.766,10.986 5.288 C 10.987 5.606,10.933 5.881,10.809 6.190 C 10.507 6.944,9.823 7.754,8.847 8.515 C 8.545 8.749,8.075 9.087,8.020 9.108 C 7.978 9.124,7.524 8.809,7.093 8.466 C 6.314 7.845,5.789 7.277,5.426 6.664 C 5.143 6.184,5.013 5.751,5.014 5.288 C 5.015 4.766,5.159 4.414,5.519 4.052 C 5.823 3.747,6.137 3.585,6.548 3.522 C 6.724 3.495,7.043 3.509,7.227 3.553 " stroke="none" fill-rule="evenodd"></path></svg>