<svg width="16" height="16" fill="currentColor" xmlns="http://www.w3.org/2000/svg"><path d="M7.133 1.043 C 5.469 1.199,3.860 1.837,2.588 2.847 C 2.225 3.136,1.625 3.748,1.355 4.107 C 0.665 5.022,0.274 5.915,0.076 7.033 C -0.005 7.492,-0.012 8.443,0.063 8.893 C 0.289 10.256,0.850 11.397,1.795 12.416 L 1.971 12.605 1.932 12.897 C 1.832 13.666,1.586 14.591,1.278 15.364 C 1.155 15.674,1.154 15.773,1.274 15.868 C 1.368 15.943,1.519 15.931,2.173 15.801 C 3.401 15.556,4.588 15.192,5.409 14.811 L 5.657 14.695 5.929 14.760 C 6.285 14.846,6.737 14.922,7.133 14.962 C 7.538 15.003,8.453 15.003,8.853 14.961 C 10.649 14.777,12.241 14.128,13.520 13.059 C 16.560 10.519,16.838 6.366,14.157 3.535 C 12.825 2.128,10.900 1.229,8.813 1.040 C 8.470 1.009,7.479 1.011,7.133 1.043 " stroke="none" fill-rule="evenodd"></path></svg>