<svg width="16" height="16" fill="currentColor" xmlns="http://www.w3.org/2000/svg"><path d="M1.669 0.028 C 0.992 0.142,0.371 0.651,0.135 1.283 C -0.004 1.654,0.001 1.489,0.000 5.994 C -0.000 10.586,-0.007 10.367,0.156 10.767 C 0.344 11.230,0.764 11.654,1.213 11.836 C 1.609 11.997,1.176 11.984,6.734 11.999 L 11.828 12.013 12.014 12.104 C 12.186 12.187,12.314 12.308,13.720 13.707 C 14.556 14.540,15.267 15.234,15.300 15.251 C 15.370 15.287,15.562 15.295,15.655 15.267 C 15.768 15.232,15.898 15.116,15.949 15.003 C 15.997 14.897,15.999 14.683,15.999 8.352 C 16.000 1.182,16.010 1.640,15.844 1.233 C 15.666 0.795,15.309 0.422,14.864 0.208 C 14.422 -0.005,15.102 0.015,8.080 0.010 C 4.626 0.008,1.741 0.016,1.669 0.028 M14.407 1.085 C 14.584 1.167,14.812 1.392,14.900 1.570 L 14.973 1.720 14.980 7.639 L 14.987 13.557 13.927 12.504 C 12.698 11.284,12.591 11.201,12.067 11.067 C 11.862 11.014,11.771 11.013,6.936 11.013 C 3.868 11.013,1.954 11.003,1.855 10.987 C 1.532 10.934,1.243 10.720,1.099 10.428 L 1.027 10.280 1.020 6.055 C 1.012 1.368,1.001 1.679,1.189 1.424 C 1.313 1.257,1.488 1.123,1.662 1.063 C 1.793 1.017,2.106 1.015,8.040 1.021 L 14.280 1.027 14.407 1.085 M3.293 3.044 C 3.218 3.086,3.094 3.204,3.060 3.266 C 2.930 3.507,3.040 3.836,3.290 3.949 C 3.396 3.997,3.564 3.999,8.000 3.999 C 12.436 3.999,12.604 3.997,12.710 3.949 C 12.960 3.836,13.070 3.507,12.940 3.266 C 12.896 3.186,12.769 3.073,12.685 3.042 C 12.577 3.001,3.367 3.004,3.293 3.044 M3.396 5.519 C 3.058 5.600,2.902 5.967,3.084 6.259 C 3.130 6.334,3.202 6.404,3.267 6.438 L 3.373 6.493 8.000 6.493 L 12.627 6.493 12.733 6.438 C 13.071 6.261,13.077 5.764,12.743 5.573 L 12.627 5.507 8.053 5.503 C 5.538 5.500,3.442 5.507,3.396 5.519 M3.290 8.051 C 3.039 8.165,2.930 8.492,3.061 8.737 C 3.106 8.819,3.270 8.956,3.354 8.980 C 3.449 9.006,8.551 9.006,8.646 8.980 C 8.730 8.956,8.894 8.819,8.939 8.737 C 9.070 8.492,8.961 8.165,8.710 8.051 C 8.605 8.003,8.482 8.001,6.000 8.001 C 3.518 8.001,3.395 8.003,3.290 8.051 " stroke="none" fill-rule="evenodd"></path></svg>