<svg width="16" height="16" fill="currentColor" xmlns="http://www.w3.org/2000/svg"><path d="M1.669 0.028 C 0.992 0.142,0.371 0.651,0.135 1.283 C -0.004 1.654,0.001 1.489,0.000 5.994 C -0.000 10.586,-0.007 10.367,0.156 10.767 C 0.344 11.230,0.764 11.654,1.213 11.836 C 1.609 11.997,1.176 11.984,6.734 11.999 L 11.828 12.013 12.014 12.104 C 12.186 12.187,12.314 12.308,13.720 13.707 C 14.556 14.540,15.267 15.234,15.300 15.251 C 15.370 15.287,15.562 15.295,15.655 15.267 C 15.768 15.232,15.898 15.116,15.949 15.003 C 15.997 14.897,15.999 14.683,15.999 8.352 C 16.000 1.182,16.010 1.640,15.844 1.233 C 15.666 0.795,15.309 0.422,14.864 0.208 C 14.422 -0.005,15.102 0.015,8.080 0.010 C 4.626 0.008,1.741 0.016,1.669 0.028 M7.227 3.553 C 7.414 3.597,7.651 3.714,7.832 3.850 L 7.997 3.976 8.165 3.851 C 8.491 3.609,8.791 3.510,9.200 3.511 C 9.510 3.512,9.726 3.564,10.027 3.711 C 10.208 3.800,10.298 3.868,10.481 4.051 C 10.841 4.413,10.985 4.766,10.986 5.288 C 10.987 5.606,10.933 5.881,10.809 6.190 C 10.507 6.944,9.823 7.754,8.847 8.515 C 8.545 8.749,8.075 9.087,8.020 9.108 C 7.978 9.124,7.524 8.809,7.093 8.466 C 6.314 7.845,5.789 7.277,5.426 6.664 C 5.143 6.184,5.013 5.751,5.014 5.288 C 5.015 4.766,5.159 4.414,5.519 4.052 C 5.823 3.747,6.137 3.585,6.548 3.522 C 6.724 3.495,7.043 3.509,7.227 3.553 " stroke="none" fill-rule="evenodd"></path></svg>