<svg width="16" height="16" fill="currentColor" xmlns="http://www.w3.org/2000/svg"><path d="M7.133 1.043 C 5.469 1.199,3.860 1.837,2.588 2.847 C 2.225 3.136,1.625 3.748,1.355 4.107 C 0.665 5.022,0.274 5.915,0.076 7.033 C -0.005 7.492,-0.012 8.443,0.063 8.893 C 0.289 10.255,0.851 11.398,1.795 12.416 L 1.971 12.605 1.920 12.963 C 1.809 13.755,1.582 14.603,1.276 15.370 C 1.155 15.674,1.154 15.773,1.274 15.868 C 1.368 15.943,1.519 15.931,2.173 15.801 C 3.401 15.556,4.588 15.192,5.409 14.811 L 5.657 14.695 5.929 14.760 C 6.285 14.846,6.737 14.922,7.133 14.962 C 7.538 15.003,8.453 15.003,8.853 14.961 C 10.649 14.777,12.241 14.128,13.520 13.059 C 16.560 10.519,16.838 6.366,14.157 3.535 C 12.825 2.128,10.900 1.229,8.813 1.040 C 8.470 1.009,7.479 1.011,7.133 1.043 M6.303 6.101 C 6.612 6.207,6.798 6.324,7.002 6.539 C 7.304 6.859,7.522 7.308,7.615 7.805 C 7.679 8.144,7.656 8.721,7.565 9.067 C 7.407 9.665,7.087 10.224,6.615 10.728 C 6.417 10.938,6.330 10.991,6.176 10.993 C 5.880 10.998,5.659 10.707,5.759 10.444 C 5.772 10.407,5.858 10.296,5.950 10.196 C 6.202 9.918,6.417 9.616,6.534 9.374 C 6.592 9.254,6.640 9.143,6.640 9.126 C 6.640 9.109,6.581 9.123,6.497 9.162 C 5.807 9.478,5.012 9.340,4.493 8.816 C 4.295 8.616,4.122 8.322,4.051 8.067 C 4.003 7.895,4.003 7.438,4.051 7.267 C 4.111 7.050,4.293 6.723,4.445 6.559 C 4.687 6.297,5.065 6.092,5.422 6.028 C 5.677 5.982,6.046 6.012,6.303 6.101 M10.421 6.041 C 10.717 6.099,11.083 6.285,11.278 6.475 C 11.575 6.766,11.807 7.196,11.925 7.672 C 12.014 8.032,12.009 8.631,11.913 9.016 C 11.756 9.647,11.413 10.249,10.916 10.762 C 10.775 10.909,10.708 10.958,10.620 10.980 C 10.336 11.050,10.080 10.864,10.080 10.587 C 10.080 10.443,10.120 10.375,10.360 10.107 C 10.459 9.997,10.600 9.818,10.673 9.709 C 10.810 9.508,11.001 9.126,10.978 9.102 C 10.970 9.095,10.937 9.107,10.902 9.129 C 10.768 9.217,10.416 9.312,10.175 9.326 C 9.482 9.367,8.841 9.008,8.522 8.400 C 8.170 7.731,8.352 6.895,8.960 6.390 C 9.026 6.335,9.176 6.244,9.293 6.187 C 9.658 6.010,10.025 5.962,10.421 6.041 " stroke="none" fill-rule="evenodd"></path></svg>