<svg width="16" height="16" fill="currentColor" xmlns="http://www.w3.org/2000/svg"><path d="M7.133 1.043 C 5.469 1.199,3.860 1.837,2.588 2.847 C 2.225 3.136,1.625 3.748,1.355 4.107 C 0.665 5.022,0.274 5.915,0.076 7.033 C -0.005 7.492,-0.012 8.443,0.063 8.893 C 0.289 10.255,0.851 11.398,1.795 12.416 L 1.971 12.605 1.920 12.963 C 1.809 13.755,1.582 14.603,1.276 15.370 C 1.155 15.674,1.154 15.773,1.274 15.868 C 1.368 15.943,1.519 15.931,2.173 15.801 C 3.401 15.556,4.588 15.192,5.409 14.811 L 5.657 14.695 5.929 14.760 C 6.285 14.846,6.737 14.922,7.133 14.962 C 7.538 15.003,8.453 15.003,8.853 14.961 C 10.649 14.777,12.241 14.128,13.520 13.059 C 16.560 10.519,16.838 6.366,14.157 3.535 C 12.825 2.128,10.900 1.229,8.813 1.040 C 8.470 1.009,7.479 1.011,7.133 1.043 M4.431 7.101 C 4.608 7.188,4.833 7.417,4.915 7.593 C 4.963 7.698,4.973 7.768,4.973 8.000 C 4.973 8.251,4.966 8.295,4.901 8.428 C 4.707 8.821,4.268 9.054,3.848 8.986 C 3.533 8.935,3.241 8.717,3.101 8.430 C 3.009 8.243,2.986 7.920,3.050 7.701 C 3.130 7.427,3.385 7.160,3.662 7.061 C 3.873 6.986,4.234 7.005,4.431 7.101 M8.431 7.101 C 8.608 7.188,8.833 7.417,8.915 7.593 C 8.963 7.698,8.973 7.768,8.973 8.000 C 8.973 8.251,8.966 8.295,8.901 8.428 C 8.707 8.821,8.268 9.054,7.848 8.986 C 7.533 8.935,7.241 8.717,7.101 8.430 C 7.009 8.243,6.986 7.920,7.050 7.701 C 7.130 7.427,7.385 7.160,7.662 7.061 C 7.873 6.986,8.234 7.005,8.431 7.101 M12.431 7.101 C 12.608 7.188,12.833 7.417,12.915 7.593 C 12.963 7.698,12.973 7.768,12.973 8.000 C 12.973 8.251,12.966 8.295,12.901 8.428 C 12.707 8.821,12.268 9.054,11.848 8.986 C 11.533 8.935,11.241 8.717,11.101 8.430 C 11.009 8.243,10.986 7.920,11.050 7.701 C 11.130 7.427,11.385 7.160,11.662 7.061 C 11.873 6.986,12.234 7.005,12.431 7.101 " stroke="none" fill-rule="evenodd"></path></svg>