<svg width="16" height="16" fill="currentColor" xmlns="http://www.w3.org/2000/svg"><path d="M1.669 0.028 C 0.992 0.142,0.371 0.651,0.135 1.283 C -0.004 1.654,0.001 1.489,0.000 5.994 C -0.000 10.586,-0.007 10.367,0.156 10.767 C 0.344 11.230,0.764 11.654,1.213 11.836 C 1.609 11.997,1.176 11.984,6.734 11.999 L 11.828 12.013 12.014 12.104 C 12.186 12.187,12.314 12.308,13.720 13.707 C 14.556 14.540,15.267 15.234,15.300 15.251 C 15.370 15.287,15.562 15.295,15.655 15.267 C 15.768 15.232,15.898 15.116,15.949 15.003 C 15.997 14.897,15.999 14.683,15.999 8.352 C 16.000 1.182,16.010 1.640,15.844 1.233 C 15.666 0.795,15.309 0.422,14.864 0.208 C 14.422 -0.005,15.102 0.015,8.080 0.010 C 4.626 0.008,1.741 0.016,1.669 0.028 M14.407 1.085 C 14.584 1.167,14.812 1.392,14.900 1.570 L 14.973 1.720 14.980 7.639 L 14.987 13.557 13.927 12.504 C 12.698 11.284,12.591 11.201,12.067 11.067 C 11.862 11.014,11.771 11.013,6.936 11.013 C 3.868 11.013,1.954 11.003,1.855 10.987 C 1.532 10.934,1.243 10.720,1.099 10.428 L 1.027 10.280 1.020 6.055 C 1.012 1.368,1.001 1.679,1.189 1.424 C 1.313 1.257,1.488 1.123,1.662 1.063 C 1.793 1.017,2.106 1.015,8.040 1.021 L 14.280 1.027 14.407 1.085 M3.662 5.061 C 3.221 5.219,2.939 5.692,3.014 6.152 C 3.145 6.957,4.127 7.277,4.702 6.702 C 5.188 6.216,5.050 5.404,4.429 5.100 C 4.234 5.005,3.872 4.986,3.662 5.061 M7.662 5.061 C 7.221 5.219,6.939 5.692,7.014 6.152 C 7.145 6.957,8.127 7.277,8.702 6.702 C 9.188 6.216,9.050 5.404,8.429 5.100 C 8.234 5.005,7.872 4.986,7.662 5.061 M11.662 5.061 C 11.221 5.219,10.939 5.692,11.014 6.152 C 11.145 6.957,12.127 7.277,12.702 6.702 C 13.188 6.216,13.050 5.404,12.429 5.100 C 12.234 5.005,11.872 4.986,11.662 5.061 " stroke="none" fill-rule="evenodd"></path></svg>