<svg width="16" height="16" fill="currentColor" xmlns="http://www.w3.org/2000/svg"><path d="M1.669 0.028 C 0.992 0.142,0.371 0.651,0.135 1.283 C -0.004 1.654,0.001 1.489,0.000 5.994 C -0.000 10.586,-0.007 10.367,0.156 10.767 C 0.344 11.230,0.764 11.654,1.213 11.836 C 1.609 11.997,1.176 11.984,6.734 11.999 L 11.828 12.013 12.014 12.104 C 12.186 12.187,12.314 12.308,13.720 13.707 C 14.556 14.540,15.267 15.234,15.300 15.251 C 15.370 15.287,15.562 15.295,15.655 15.267 C 15.768 15.232,15.898 15.116,15.949 15.003 C 15.997 14.897,15.999 14.683,15.999 8.352 C 16.000 1.182,16.010 1.640,15.844 1.233 C 15.666 0.795,15.309 0.422,14.864 0.208 C 14.422 -0.005,15.102 0.015,8.080 0.010 C 4.626 0.008,1.741 0.016,1.669 0.028 M14.407 1.085 C 14.584 1.167,14.812 1.392,14.900 1.570 L 14.973 1.720 14.980 7.639 L 14.987 13.557 13.927 12.504 C 12.698 11.284,12.591 11.201,12.067 11.067 C 11.862 11.014,11.771 11.013,6.936 11.013 C 3.868 11.013,1.954 11.003,1.855 10.987 C 1.532 10.934,1.243 10.720,1.099 10.428 L 1.027 10.280 1.020 6.055 C 1.012 1.368,1.001 1.679,1.189 1.424 C 1.313 1.257,1.488 1.123,1.662 1.063 C 1.793 1.017,2.106 1.015,8.040 1.021 L 14.280 1.027 14.407 1.085 M6.548 3.522 C 6.138 3.585,5.824 3.747,5.519 4.052 C 5.151 4.421,5.004 4.782,5.007 5.307 C 5.014 6.458,5.977 7.730,7.793 8.987 L 8.000 9.130 8.207 8.987 C 10.025 7.727,10.986 6.458,10.993 5.307 C 10.996 4.781,10.849 4.420,10.480 4.051 C 10.114 3.685,9.705 3.512,9.200 3.511 C 8.791 3.510,8.491 3.609,8.165 3.851 L 7.997 3.976 7.832 3.850 C 7.466 3.573,6.996 3.453,6.548 3.522 " stroke="none" fill-rule="evenodd"></path></svg>