<svg width="16" height="16" fill="currentColor" xmlns="http://www.w3.org/2000/svg"><path d="M1.669 0.028 C 0.992 0.142,0.371 0.651,0.135 1.283 C -0.004 1.654,0.001 1.489,0.000 5.994 C -0.000 10.586,-0.007 10.367,0.156 10.767 C 0.344 11.230,0.764 11.654,1.213 11.836 C 1.609 11.997,1.176 11.984,6.734 11.999 L 11.828 12.013 12.014 12.104 C 12.186 12.187,12.314 12.308,13.720 13.707 C 14.556 14.540,15.267 15.234,15.300 15.251 C 15.370 15.287,15.562 15.295,15.655 15.267 C 15.768 15.232,15.898 15.116,15.949 15.003 C 15.997 14.897,15.999 14.683,15.999 8.352 C 16.000 1.182,16.010 1.640,15.844 1.233 C 15.666 0.795,15.309 0.422,14.864 0.208 C 14.422 -0.005,15.102 0.015,8.080 0.010 C 4.626 0.008,1.741 0.016,1.669 0.028 M4.431 5.101 C 4.608 5.188,4.833 5.417,4.915 5.593 C 4.963 5.698,4.973 5.768,4.973 6.000 C 4.973 6.251,4.966 6.295,4.901 6.428 C 4.707 6.821,4.268 7.054,3.848 6.986 C 3.533 6.935,3.241 6.717,3.101 6.430 C 3.009 6.243,2.986 5.920,3.050 5.701 C 3.130 5.427,3.385 5.160,3.662 5.061 C 3.873 4.986,4.234 5.005,4.431 5.101 M8.431 5.101 C 8.608 5.188,8.833 5.417,8.915 5.593 C 8.963 5.698,8.973 5.768,8.973 6.000 C 8.973 6.251,8.966 6.295,8.901 6.428 C 8.707 6.821,8.268 7.054,7.848 6.986 C 7.533 6.935,7.241 6.717,7.101 6.430 C 7.009 6.243,6.986 5.920,7.050 5.701 C 7.130 5.427,7.385 5.160,7.662 5.061 C 7.873 4.986,8.234 5.005,8.431 5.101 M12.431 5.101 C 12.608 5.188,12.833 5.417,12.915 5.593 C 12.963 5.698,12.973 5.768,12.973 6.000 C 12.973 6.251,12.966 6.295,12.901 6.428 C 12.707 6.821,12.268 7.054,11.848 6.986 C 11.533 6.935,11.241 6.717,11.101 6.430 C 11.009 6.243,10.986 5.920,11.050 5.701 C 11.130 5.427,11.385 5.160,11.662 5.061 C 11.873 4.986,12.234 5.005,12.431 5.101 " stroke="none" fill-rule="evenodd"></path></svg>