<svg width="16" height="16" fill="currentColor" xmlns="http://www.w3.org/2000/svg"><path d="M11.933 3.506 C 11.919 3.511,11.871 3.523,11.827 3.533 C 11.766 3.546,10.934 4.362,8.373 6.921 L 5.000 10.293 3.413 8.705 C 2.541 7.831,1.782 7.093,1.728 7.065 C 1.609 7.003,1.389 6.997,1.283 7.052 C 1.181 7.104,1.044 7.265,1.025 7.354 C 1.016 7.394,1.005 7.440,1.000 7.456 C 0.995 7.472,1.003 7.544,1.018 7.616 C 1.044 7.743,1.089 7.791,2.863 9.569 C 3.873 10.582,4.724 11.413,4.779 11.442 C 4.906 11.508,5.094 11.508,5.221 11.442 C 5.277 11.412,6.857 9.852,8.885 7.822 C 12.596 4.106,12.506 4.201,12.506 4.000 C 12.506 3.842,12.381 3.632,12.243 3.562 C 12.170 3.524,11.979 3.490,11.933 3.506 M15.386 3.518 C 15.350 3.529,15.284 3.558,15.240 3.581 C 15.196 3.604,13.660 5.124,11.827 6.958 L 8.494 10.293 8.227 10.027 L 7.959 9.760 7.606 10.114 L 7.253 10.468 7.727 10.939 C 8.020 11.231,8.239 11.427,8.300 11.452 C 8.414 11.500,8.577 11.505,8.685 11.465 C 8.798 11.424,15.886 4.334,15.949 4.200 C 16.034 4.019,15.999 3.808,15.859 3.658 C 15.747 3.538,15.529 3.473,15.386 3.518 M4.787 7.051 C 4.549 7.157,4.442 7.447,4.548 7.700 C 4.573 7.761,4.769 7.980,5.061 8.273 L 5.532 8.747 5.886 8.394 L 6.240 8.041 5.767 7.564 C 5.506 7.302,5.255 7.071,5.208 7.051 C 5.100 7.004,4.892 7.004,4.787 7.051 " stroke="none" fill-rule="evenodd"></path></svg>