<svg width="16" height="16" fill="currentColor" xmlns="http://www.w3.org/2000/svg"><path d="M11.240 4.809 C 11.196 4.826,11.121 4.864,11.073 4.892 C 11.020 4.924,10.300 5.820,9.234 7.179 L 7.481 9.413 6.387 8.321 C 5.472 7.408,5.269 7.218,5.147 7.162 C 4.656 6.935,4.100 7.286,4.095 7.827 C 4.092 8.161,4.047 8.106,5.610 9.674 C 7.107 11.176,7.141 11.205,7.417 11.243 C 7.581 11.265,7.786 11.214,7.919 11.117 C 8.051 11.022,12.065 6.015,12.157 5.832 C 12.400 5.347,12.038 4.770,11.493 4.776 C 11.398 4.777,11.284 4.791,11.240 4.809 " stroke="none" fill-rule="evenodd"></path></svg>