<svg width="16" height="16" fill="currentColor" xmlns="http://www.w3.org/2000/svg"><path d="M2.787 1.521 C 2.173 1.602,1.664 2.084,1.533 2.707 C 1.474 2.987,1.474 13.013,1.533 13.293 C 1.657 13.884,2.116 14.343,2.707 14.467 C 2.987 14.526,13.013 14.526,13.293 14.467 C 13.741 14.373,14.137 14.072,14.329 13.680 C 14.513 13.306,14.508 13.389,14.501 10.473 C 14.493 7.887,14.493 7.852,14.439 7.760 C 14.409 7.709,14.334 7.632,14.273 7.589 C 14.180 7.524,14.136 7.511,14.000 7.511 C 13.864 7.511,13.820 7.524,13.727 7.589 C 13.666 7.632,13.591 7.709,13.561 7.760 C 13.507 7.852,13.506 7.893,13.493 10.507 C 13.479 13.379,13.487 13.235,13.342 13.366 C 13.193 13.500,13.483 13.493,7.994 13.493 C 3.102 13.492,2.889 13.490,2.787 13.443 C 2.660 13.385,2.603 13.325,2.548 13.193 C 2.511 13.106,2.507 12.525,2.507 7.994 C 2.508 3.102,2.510 2.889,2.557 2.787 C 2.615 2.660,2.675 2.603,2.807 2.548 C 2.894 2.511,3.375 2.507,6.992 2.506 C 10.914 2.506,11.084 2.503,11.187 2.456 C 11.511 2.306,11.599 1.918,11.365 1.671 C 11.196 1.493,11.561 1.507,7.040 1.503 C 4.789 1.501,2.875 1.509,2.787 1.521 M14.787 2.550 C 14.743 2.573,13.198 4.100,11.353 5.943 L 8.000 9.293 6.647 7.941 C 5.712 7.007,5.263 6.576,5.194 6.548 C 4.860 6.410,4.507 6.642,4.507 7.000 C 4.507 7.069,4.529 7.165,4.558 7.221 C 4.587 7.276,5.313 8.021,6.178 8.884 C 7.795 10.497,7.805 10.506,8.000 10.506 C 8.201 10.506,8.106 10.596,11.822 6.885 C 13.852 4.857,15.412 3.277,15.442 3.221 C 15.536 3.041,15.489 2.768,15.342 2.634 C 15.206 2.512,14.939 2.471,14.787 2.550 " stroke="none" fill-rule="evenodd"></path></svg>