<svg width="16" height="16" fill="currentColor" xmlns="http://www.w3.org/2000/svg"><path d="M8.844 1.532 C 8.787 1.553,8.705 1.603,8.661 1.645 C 8.607 1.696,8.083 2.714,7.046 4.787 C 5.574 7.726,5.510 7.859,5.510 8.000 C 5.510 8.141,5.574 8.274,7.046 11.213 C 8.198 13.514,8.604 14.301,8.671 14.364 C 8.988 14.660,9.493 14.440,9.493 14.005 C 9.493 13.877,9.394 13.670,8.027 10.934 L 6.560 8.000 8.027 5.066 C 9.609 1.901,9.552 2.032,9.457 1.805 C 9.410 1.691,9.253 1.556,9.127 1.522 C 9.000 1.486,8.970 1.487,8.844 1.532 " stroke="none" fill-rule="evenodd"></path></svg>