<svg width="16" height="16" fill="currentColor" xmlns="http://www.w3.org/2000/svg"><path d="M3.742 1.081 C 3.546 1.198,3.453 1.434,3.520 1.644 C 3.546 1.727,3.948 2.143,5.623 3.823 C 7.041 5.245,7.727 5.915,7.800 5.949 C 7.935 6.012,8.065 6.012,8.200 5.949 C 8.273 5.915,8.959 5.245,10.377 3.823 C 12.574 1.620,12.533 1.666,12.498 1.452 C 12.455 1.187,12.261 1.013,12.007 1.013 C 11.928 1.013,11.826 1.033,11.779 1.056 C 11.732 1.080,10.862 1.928,9.847 2.942 L 8.000 4.786 6.153 2.942 C 5.138 1.928,4.268 1.080,4.221 1.056 C 4.089 0.990,3.875 1.001,3.742 1.081 M1.396 7.519 C 1.058 7.600,0.902 7.967,1.084 8.259 C 1.130 8.334,1.202 8.404,1.267 8.438 L 1.373 8.493 8.000 8.493 L 14.627 8.493 14.733 8.438 C 15.071 8.261,15.077 7.764,14.743 7.573 L 14.627 7.507 8.053 7.503 C 4.438 7.500,1.442 7.508,1.396 7.519 M7.800 10.051 C 7.727 10.085,7.040 10.756,5.622 12.177 C 3.336 14.469,3.445 14.343,3.516 14.606 C 3.534 14.673,3.573 14.762,3.603 14.804 C 3.724 14.974,4.022 15.044,4.215 14.947 C 4.266 14.922,5.138 14.072,6.153 13.058 L 8.000 11.214 9.847 13.057 C 10.862 14.072,11.734 14.922,11.785 14.947 C 11.921 15.016,12.108 15.006,12.249 14.924 C 12.385 14.844,12.441 14.769,12.485 14.604 C 12.554 14.343,12.661 14.466,10.378 12.177 C 8.960 10.756,8.273 10.085,8.200 10.051 C 8.141 10.024,8.051 10.001,8.000 10.001 C 7.949 10.001,7.859 10.024,7.800 10.051 " stroke="none" fill-rule="evenodd"></path></svg>