<svg width="16" height="16" fill="currentColor" xmlns="http://www.w3.org/2000/svg"><path d="M7.880 1.518 C 7.836 1.528,7.776 1.551,7.747 1.567 C 7.717 1.583,6.311 2.980,4.622 4.672 C 1.816 7.481,1.548 7.757,1.520 7.864 C 1.487 7.990,1.502 8.129,1.561 8.239 C 1.580 8.276,2.980 9.689,4.672 11.378 C 7.467 14.170,7.757 14.452,7.863 14.480 C 8.244 14.580,8.580 14.244,8.480 13.863 C 8.452 13.757,8.187 13.484,5.578 10.873 L 2.707 8.000 5.578 5.127 C 8.562 2.141,8.506 2.200,8.506 2.000 C 8.506 1.842,8.381 1.632,8.243 1.562 C 8.150 1.514,7.978 1.493,7.880 1.518 M11.880 1.518 C 11.836 1.528,11.776 1.551,11.747 1.567 C 11.717 1.583,10.311 2.980,8.622 4.672 C 5.816 7.481,5.548 7.757,5.520 7.864 C 5.487 7.990,5.502 8.129,5.561 8.239 C 5.580 8.276,6.980 9.689,8.672 11.378 C 11.467 14.170,11.757 14.452,11.863 14.480 C 12.244 14.580,12.580 14.244,12.480 13.863 C 12.452 13.757,12.187 13.484,9.578 10.873 L 6.707 8.000 9.578 5.127 C 12.562 2.141,12.506 2.200,12.506 2.000 C 12.506 1.842,12.381 1.632,12.243 1.562 C 12.150 1.514,11.978 1.493,11.880 1.518 " stroke="none" fill-rule="evenodd"></path></svg>