<svg width="16" height="16" fill="currentColor" xmlns="http://www.w3.org/2000/svg"><path d="M1.800 4.545 C 1.634 4.619,1.495 4.827,1.494 5.001 C 1.492 5.213,1.507 5.229,4.659 8.379 C 6.802 10.521,7.722 11.423,7.792 11.452 C 7.919 11.505,8.081 11.505,8.208 11.452 C 8.359 11.389,14.351 5.393,14.441 5.215 C 14.524 5.048,14.524 4.951,14.440 4.785 C 14.358 4.622,14.228 4.529,14.056 4.513 C 13.785 4.487,13.950 4.336,10.860 7.423 L 8.000 10.279 5.153 7.434 C 3.145 5.427,2.277 4.577,2.208 4.548 C 2.087 4.498,1.908 4.496,1.800 4.545 " stroke="none" fill-rule="evenodd"></path></svg>