<svg width="16" height="16" fill="currentColor" xmlns="http://www.w3.org/2000/svg"><path d="M7.732 1.090 C 7.667 1.133,6.699 2.084,5.582 3.204 C 3.835 4.956,3.547 5.255,3.522 5.347 C 3.482 5.495,3.487 5.570,3.544 5.693 C 3.661 5.947,3.934 6.061,4.181 5.959 C 4.250 5.930,4.839 5.359,6.140 4.059 L 8.000 2.200 9.860 4.059 C 11.161 5.359,11.750 5.930,11.819 5.959 C 12.072 6.063,12.355 5.938,12.465 5.674 C 12.515 5.556,12.517 5.495,12.476 5.350 C 12.449 5.255,12.171 4.965,10.416 3.204 C 9.300 2.084,8.333 1.133,8.268 1.090 C 8.101 0.982,7.899 0.982,7.732 1.090 M1.396 7.519 C 1.058 7.600,0.902 7.967,1.084 8.259 C 1.130 8.334,1.202 8.404,1.267 8.438 L 1.373 8.493 8.000 8.493 L 14.627 8.493 14.733 8.438 C 15.071 8.261,15.077 7.764,14.743 7.573 L 14.627 7.507 8.053 7.503 C 4.438 7.500,1.442 7.508,1.396 7.519 M3.800 10.050 C 3.671 10.110,3.590 10.194,3.535 10.326 C 3.485 10.444,3.483 10.505,3.524 10.650 C 3.551 10.745,3.832 11.037,5.611 12.822 C 6.855 14.069,7.708 14.905,7.772 14.938 C 7.833 14.970,7.928 14.993,8.000 14.993 C 8.072 14.993,8.167 14.970,8.228 14.938 C 8.292 14.905,9.145 14.069,10.389 12.822 C 12.168 11.037,12.449 10.745,12.476 10.650 C 12.518 10.501,12.514 10.432,12.456 10.307 C 12.339 10.053,12.066 9.939,11.819 10.041 C 11.750 10.070,11.161 10.641,9.860 11.941 L 8.000 13.800 6.140 11.941 C 4.839 10.641,4.250 10.070,4.181 10.041 C 4.050 9.987,3.931 9.990,3.800 10.050 " stroke="none" fill-rule="evenodd"></path></svg>