<svg width="16" height="16" fill="currentColor" xmlns="http://www.w3.org/2000/svg"><path d="M3.870 1.519 C 3.608 1.583,3.449 1.865,3.520 2.137 C 3.548 2.243,3.813 2.516,6.422 5.127 L 9.293 8.000 6.422 10.873 C 3.813 13.484,3.548 13.757,3.520 13.863 C 3.420 14.244,3.756 14.580,4.137 14.480 C 4.243 14.452,4.533 14.170,7.328 11.378 C 9.020 9.689,10.420 8.276,10.439 8.239 C 10.498 8.129,10.513 7.990,10.480 7.864 C 10.452 7.757,10.184 7.480,7.378 4.672 C 5.689 2.980,4.277 1.581,4.240 1.561 C 4.148 1.513,3.977 1.493,3.870 1.519 M7.870 1.519 C 7.608 1.583,7.449 1.865,7.520 2.137 C 7.548 2.243,7.813 2.516,10.422 5.127 L 13.293 8.000 10.422 10.873 C 7.813 13.484,7.548 13.757,7.520 13.863 C 7.420 14.244,7.756 14.580,8.137 14.480 C 8.243 14.452,8.533 14.170,11.328 11.378 C 13.020 9.689,14.420 8.276,14.439 8.239 C 14.498 8.129,14.513 7.990,14.480 7.864 C 14.452 7.757,14.184 7.480,11.378 4.672 C 9.689 2.980,8.277 1.581,8.240 1.561 C 8.148 1.513,7.977 1.493,7.870 1.519 " stroke="none" fill-rule="evenodd"></path></svg>