<svg width="16" height="16" fill="currentColor" xmlns="http://www.w3.org/2000/svg"><path d="M10.886 1.520 C 10.838 1.531,10.754 1.571,10.699 1.609 C 10.645 1.647,9.247 3.032,7.594 4.686 C 5.472 6.810,4.577 7.722,4.548 7.792 C 4.495 7.919,4.495 8.081,4.548 8.208 C 4.611 8.359,10.607 14.351,10.785 14.441 C 10.952 14.524,11.049 14.524,11.215 14.440 C 11.378 14.358,11.471 14.228,11.487 14.056 C 11.513 13.785,11.664 13.950,8.577 10.860 L 5.721 8.000 8.566 5.153 C 10.573 3.145,11.423 2.277,11.452 2.208 C 11.582 1.895,11.398 1.563,11.067 1.513 C 11.015 1.505,10.934 1.508,10.886 1.520 " stroke="none" fill-rule="evenodd"></path></svg>