<svg width="16" height="16" fill="currentColor" xmlns="http://www.w3.org/2000/svg"><path d="M5.560 0.016 C 5.501 0.022,5.351 0.040,5.227 0.055 C 3.800 0.231,2.418 0.971,1.474 2.067 C 0.367 3.350,-0.153 5.022,0.040 6.672 C 0.250 8.468,1.225 10.042,2.747 11.040 C 3.286 11.394,4.084 11.726,4.728 11.865 C 7.428 12.446,10.170 11.113,11.389 8.627 C 12.202 6.969,12.202 5.032,11.389 3.373 C 10.514 1.588,8.829 0.353,6.875 0.065 C 6.606 0.026,5.771 -0.006,5.560 0.016 M12.720 4.013 C 12.720 4.023,12.749 4.147,12.785 4.289 C 12.821 4.430,12.863 4.625,12.879 4.720 C 12.895 4.815,12.914 4.920,12.921 4.953 L 12.934 5.013 13.775 5.013 C 14.688 5.013,14.722 5.018,14.858 5.163 C 14.898 5.206,14.943 5.274,14.958 5.315 C 14.978 5.367,14.987 6.809,14.987 10.003 C 14.987 13.816,14.980 14.630,14.951 14.701 C 14.907 14.805,14.747 14.951,14.646 14.980 C 14.551 15.006,5.449 15.006,5.354 14.980 C 5.262 14.954,5.103 14.815,5.052 14.717 C 5.021 14.657,5.013 14.482,5.013 13.789 L 5.013 12.936 4.913 12.918 C 4.745 12.889,4.232 12.777,4.134 12.748 C 4.082 12.732,4.031 12.720,4.018 12.720 C 4.006 12.720,4.001 13.191,4.006 13.767 C 4.016 14.778,4.018 14.819,4.077 14.979 C 4.239 15.420,4.597 15.774,5.035 15.925 L 5.213 15.987 10.000 15.987 L 14.787 15.987 14.965 15.925 C 15.411 15.771,15.771 15.411,15.925 14.965 L 15.987 14.787 15.987 10.000 L 15.987 5.213 15.925 5.035 C 15.771 4.589,15.403 4.221,14.962 4.074 C 14.796 4.018,14.733 4.015,13.753 4.006 C 13.185 4.001,12.720 4.004,12.720 4.013 " stroke="none" fill-rule="evenodd"></path></svg>