<svg width="16" height="16" fill="currentColor" xmlns="http://www.w3.org/2000/svg"><path d="M6.307 0.051 C 6.111 0.141,6.001 0.309,5.999 0.520 C 5.999 0.642,5.910 0.811,5.805 0.892 C 5.739 0.941,5.649 0.975,5.514 0.998 C 5.281 1.038,5.234 1.061,5.124 1.186 C 5.012 1.314,5.000 1.370,5.000 1.775 C 5.000 2.117,5.002 2.127,5.080 2.253 C 5.130 2.333,5.200 2.403,5.267 2.438 C 5.373 2.493,5.387 2.493,8.000 2.493 C 10.613 2.493,10.627 2.493,10.733 2.438 C 10.800 2.403,10.870 2.333,10.920 2.253 C 10.999 2.126,11.000 2.119,11.000 1.749 C 11.000 1.446,10.991 1.357,10.955 1.291 C 10.893 1.178,10.740 1.048,10.649 1.031 C 10.607 1.023,10.504 1.002,10.419 0.986 C 10.151 0.934,10.031 0.776,9.986 0.419 C 9.966 0.265,9.853 0.122,9.694 0.050 C 9.594 0.005,9.478 0.001,8.000 0.001 C 6.512 0.001,6.407 0.004,6.307 0.051 M3.108 1.054 C 2.726 1.159,2.332 1.478,2.167 1.815 C 1.987 2.184,1.999 1.693,2.006 8.579 L 2.013 14.813 2.076 14.979 C 2.242 15.424,2.597 15.774,3.035 15.925 L 3.213 15.987 8.000 15.987 L 12.787 15.987 12.965 15.925 C 13.403 15.774,13.758 15.424,13.924 14.979 L 13.987 14.813 13.994 8.579 C 14.001 1.703,14.013 2.191,13.834 1.820 C 13.720 1.584,13.438 1.299,13.200 1.179 C 12.921 1.039,12.784 1.014,12.292 1.014 C 11.852 1.013,11.850 1.014,11.730 1.090 C 11.397 1.301,11.436 1.785,11.799 1.950 C 11.885 1.989,11.975 1.999,12.248 1.999 C 12.697 2.000,12.823 2.050,12.936 2.272 C 12.985 2.369,12.987 2.538,12.987 8.493 C 12.987 13.575,12.981 14.630,12.951 14.701 C 12.907 14.805,12.747 14.951,12.646 14.980 C 12.551 15.006,3.449 15.006,3.354 14.980 C 3.262 14.954,3.103 14.815,3.052 14.717 C 3.019 14.653,3.013 13.813,3.013 8.507 C 3.013 2.539,3.015 2.369,3.064 2.272 C 3.177 2.050,3.303 2.000,3.752 1.999 C 4.025 1.999,4.115 1.989,4.201 1.950 C 4.564 1.785,4.603 1.301,4.270 1.090 L 4.150 1.013 3.695 1.016 C 3.402 1.017,3.193 1.031,3.108 1.054 M6.280 7.058 C 6.156 7.123,6.103 7.177,6.050 7.293 C 5.990 7.424,5.987 7.570,6.041 7.699 C 6.066 7.761,6.303 8.020,6.680 8.399 L 7.279 9.001 6.719 9.561 C 6.411 9.868,6.128 10.165,6.089 10.219 C 5.955 10.413,5.986 10.700,6.159 10.866 C 6.301 11.002,6.559 11.032,6.747 10.934 C 6.784 10.915,7.080 10.635,7.407 10.311 L 8.000 9.723 8.593 10.311 C 8.920 10.635,9.216 10.915,9.253 10.934 C 9.434 11.029,9.694 11.003,9.831 10.877 C 9.918 10.797,9.999 10.625,9.999 10.520 C 10.000 10.300,9.967 10.253,9.331 9.613 L 8.721 8.998 9.243 8.479 C 9.530 8.194,9.811 7.903,9.868 7.833 C 10.151 7.482,9.936 7.013,9.493 7.013 C 9.418 7.013,9.319 7.033,9.272 7.057 C 9.225 7.081,8.920 7.365,8.593 7.689 L 8.000 8.277 7.407 7.689 C 7.080 7.365,6.775 7.081,6.728 7.057 C 6.620 7.002,6.385 7.002,6.280 7.058 " stroke="none" fill-rule="evenodd"></path></svg>