<svg width="16" height="16" fill="currentColor" xmlns="http://www.w3.org/2000/svg"><path d="M6.167 0.040 C 5.657 0.151,5.212 0.576,5.049 1.107 C 5.007 1.245,5.000 1.364,5.000 2.000 C 5.000 2.636,5.007 2.755,5.049 2.893 C 5.214 3.430,5.638 3.835,6.167 3.960 C 6.413 4.018,9.587 4.018,9.833 3.960 C 10.362 3.835,10.786 3.430,10.951 2.893 C 10.993 2.755,11.000 2.636,11.000 2.000 C 11.000 1.364,10.993 1.245,10.951 1.107 C 10.786 0.569,10.342 0.150,9.820 0.039 C 9.565 -0.015,6.417 -0.014,6.167 0.040 M9.728 1.064 C 9.975 1.190,10.000 1.276,9.999 2.006 C 9.999 2.528,9.993 2.613,9.949 2.710 C 9.887 2.845,9.757 2.948,9.599 2.985 C 9.438 3.022,6.562 3.022,6.401 2.985 C 6.243 2.948,6.113 2.845,6.051 2.710 C 6.007 2.613,6.001 2.529,6.001 2.000 C 6.001 1.267,6.023 1.194,6.280 1.058 C 6.350 1.021,6.555 1.015,7.994 1.014 C 9.547 1.013,9.634 1.016,9.728 1.064 M2.768 1.521 C 2.519 1.550,2.313 1.614,2.080 1.735 C 1.571 2.000,1.223 2.435,1.057 3.013 L 1.000 3.213 0.992 8.560 C 0.987 12.104,0.994 13.994,1.012 14.165 C 1.104 15.027,1.626 15.664,2.454 15.924 L 2.653 15.987 8.000 15.987 L 13.347 15.987 13.546 15.924 C 14.374 15.664,14.896 15.027,14.988 14.165 C 15.006 13.994,15.013 12.104,15.008 8.560 L 15.000 3.213 14.942 3.010 C 14.779 2.438,14.426 1.998,13.914 1.732 C 13.561 1.548,13.387 1.516,12.647 1.500 L 12.000 1.486 12.000 1.995 L 12.000 2.503 12.633 2.512 L 13.267 2.520 13.425 2.598 C 13.635 2.701,13.798 2.869,13.902 3.088 L 13.987 3.267 13.994 8.678 C 14.001 14.645,14.011 14.266,13.837 14.538 C 13.685 14.775,13.449 14.931,13.161 14.984 C 12.940 15.025,3.060 15.025,2.839 14.984 C 2.551 14.931,2.315 14.775,2.163 14.538 C 1.989 14.266,1.999 14.645,2.006 8.678 L 2.013 3.267 2.098 3.088 C 2.202 2.869,2.365 2.701,2.575 2.598 L 2.733 2.520 3.367 2.512 L 4.000 2.503 4.000 1.998 L 4.000 1.493 3.473 1.497 C 3.184 1.499,2.866 1.510,2.768 1.521 M6.280 7.058 C 6.156 7.123,6.103 7.177,6.050 7.293 C 5.990 7.424,5.987 7.570,6.041 7.699 C 6.066 7.761,6.303 8.020,6.680 8.399 L 7.279 9.001 6.719 9.561 C 6.411 9.868,6.128 10.165,6.089 10.219 C 5.955 10.413,5.986 10.700,6.159 10.866 C 6.301 11.002,6.559 11.032,6.747 10.934 C 6.784 10.915,7.080 10.635,7.407 10.311 L 8.000 9.723 8.593 10.311 C 8.920 10.635,9.216 10.915,9.253 10.934 C 9.434 11.029,9.694 11.003,9.831 10.877 C 9.918 10.797,9.999 10.625,9.999 10.520 C 10.000 10.300,9.967 10.253,9.331 9.613 L 8.721 8.998 9.243 8.479 C 9.530 8.194,9.811 7.903,9.868 7.833 C 10.151 7.482,9.936 7.013,9.493 7.013 C 9.418 7.013,9.319 7.033,9.272 7.057 C 9.225 7.081,8.920 7.365,8.593 7.689 L 8.000 8.277 7.407 7.689 C 7.080 7.365,6.775 7.081,6.728 7.057 C 6.620 7.002,6.385 7.002,6.280 7.058 " stroke="none" fill-rule="evenodd"></path></svg>