<svg width="16" height="16" fill="currentColor" xmlns="http://www.w3.org/2000/svg"><path d="M6.307 0.051 C 6.111 0.141,6.001 0.309,5.999 0.520 C 5.999 0.642,5.910 0.811,5.805 0.892 C 5.739 0.941,5.649 0.975,5.514 0.998 C 5.281 1.038,5.234 1.061,5.124 1.186 C 5.012 1.314,5.000 1.370,5.000 1.775 C 5.000 2.117,5.002 2.127,5.080 2.253 C 5.130 2.333,5.200 2.403,5.267 2.438 C 5.373 2.493,5.387 2.493,8.000 2.493 C 10.613 2.493,10.627 2.493,10.733 2.438 C 10.800 2.403,10.870 2.333,10.920 2.253 C 10.999 2.126,11.000 2.119,11.000 1.749 C 11.000 1.446,10.991 1.357,10.955 1.291 C 10.893 1.178,10.740 1.048,10.649 1.031 C 10.607 1.023,10.504 1.002,10.419 0.986 C 10.151 0.934,10.031 0.776,9.986 0.419 C 9.966 0.265,9.853 0.122,9.694 0.050 C 9.594 0.005,9.478 0.001,8.000 0.001 C 6.512 0.001,6.407 0.004,6.307 0.051 M3.108 1.054 C 2.726 1.159,2.332 1.478,2.167 1.815 C 1.987 2.184,1.999 1.693,2.006 8.579 L 2.013 14.813 2.076 14.979 C 2.242 15.424,2.597 15.774,3.035 15.925 L 3.213 15.987 8.000 15.987 L 12.787 15.987 12.965 15.925 C 13.403 15.774,13.758 15.424,13.924 14.979 L 13.987 14.813 13.994 8.579 C 14.001 1.703,14.013 2.191,13.834 1.820 C 13.720 1.584,13.438 1.299,13.200 1.179 C 12.925 1.041,12.782 1.014,12.324 1.014 C 11.969 1.013,11.916 1.019,11.930 1.054 C 12.022 1.294,12.020 2.197,11.927 2.455 C 11.759 2.918,11.462 3.231,11.023 3.407 L 10.840 3.480 8.000 3.480 L 5.160 3.480 4.977 3.407 C 4.488 3.211,4.120 2.773,4.029 2.282 C 3.974 1.983,3.997 1.290,4.069 1.060 C 4.082 1.017,4.052 1.014,3.662 1.016 C 3.397 1.017,3.191 1.032,3.108 1.054 " stroke="none" fill-rule="evenodd"></path></svg>