<svg width="16" height="16" fill="currentColor" xmlns="http://www.w3.org/2000/svg"><path d="M6.167 0.040 C 5.657 0.151,5.212 0.576,5.049 1.107 C 5.007 1.245,5.000 1.364,5.000 2.000 C 5.000 2.636,5.007 2.755,5.049 2.893 C 5.214 3.430,5.638 3.835,6.167 3.960 C 6.413 4.018,9.587 4.018,9.833 3.960 C 10.362 3.835,10.786 3.430,10.951 2.893 C 10.993 2.755,11.000 2.636,11.000 2.000 C 11.000 1.364,10.993 1.245,10.951 1.107 C 10.786 0.569,10.342 0.150,9.820 0.039 C 9.565 -0.015,6.417 -0.014,6.167 0.040 M9.728 1.064 C 9.975 1.190,10.000 1.276,9.999 2.006 C 9.999 2.528,9.993 2.613,9.949 2.710 C 9.887 2.845,9.757 2.948,9.599 2.985 C 9.438 3.022,6.562 3.022,6.401 2.985 C 6.243 2.948,6.113 2.845,6.051 2.710 C 6.007 2.613,6.001 2.529,6.001 2.000 C 6.001 1.267,6.023 1.194,6.280 1.058 C 6.350 1.021,6.555 1.015,7.994 1.014 C 9.547 1.013,9.634 1.016,9.728 1.064 M2.768 1.521 C 2.519 1.550,2.313 1.614,2.080 1.735 C 1.571 2.000,1.223 2.435,1.057 3.013 L 1.000 3.213 0.992 8.560 C 0.987 12.104,0.994 13.994,1.012 14.165 C 1.104 15.027,1.626 15.664,2.454 15.924 L 2.653 15.987 8.000 15.987 L 13.347 15.987 13.546 15.924 C 14.374 15.664,14.896 15.027,14.988 14.165 C 15.006 13.994,15.013 12.104,15.008 8.560 L 15.000 3.213 14.942 3.010 C 14.779 2.438,14.426 1.998,13.914 1.732 C 13.561 1.548,13.387 1.516,12.647 1.500 L 12.000 1.486 12.000 2.061 C 12.000 2.739,11.974 2.963,11.855 3.314 C 11.547 4.222,10.745 4.865,9.773 4.984 C 9.450 5.023,6.550 5.023,6.227 4.984 C 5.255 4.865,4.453 4.222,4.145 3.314 C 4.026 2.963,4.000 2.739,4.000 2.065 L 4.000 1.493 3.473 1.497 C 3.184 1.499,2.866 1.510,2.768 1.521 M8.246 7.073 C 8.309 7.108,8.381 7.182,8.423 7.253 L 8.493 7.373 8.502 8.193 L 8.510 9.013 9.326 9.013 C 10.139 9.013,10.142 9.014,10.251 9.077 C 10.525 9.238,10.572 9.644,10.342 9.859 C 10.200 9.992,10.137 10.000,9.296 10.000 L 8.510 10.000 8.502 10.820 C 8.493 11.704,8.490 11.721,8.342 11.859 C 8.260 11.935,8.103 12.000,8.000 12.000 C 7.897 12.000,7.740 11.935,7.658 11.859 C 7.510 11.721,7.507 11.704,7.498 10.820 L 7.490 10.000 6.704 10.000 C 5.863 10.000,5.800 9.992,5.658 9.859 C 5.428 9.644,5.475 9.238,5.749 9.077 C 5.858 9.014,5.861 9.013,6.674 9.013 L 7.490 9.013 7.498 8.193 C 7.507 7.377,7.507 7.373,7.573 7.258 C 7.706 7.025,8.011 6.941,8.246 7.073 " stroke="none" fill-rule="evenodd"></path></svg>