<svg width="16" height="16" fill="currentColor" xmlns="http://www.w3.org/2000/svg"><path d="M6.167 0.040 C 5.657 0.151,5.212 0.576,5.049 1.107 C 5.007 1.245,5.000 1.364,5.000 2.000 C 5.000 2.636,5.007 2.755,5.049 2.893 C 5.214 3.430,5.638 3.835,6.167 3.960 C 6.413 4.018,9.587 4.018,9.833 3.960 C 10.362 3.835,10.786 3.430,10.951 2.893 C 10.993 2.755,11.000 2.636,11.000 2.000 C 11.000 1.364,10.993 1.245,10.951 1.107 C 10.786 0.569,10.342 0.150,9.820 0.039 C 9.565 -0.015,6.417 -0.014,6.167 0.040 M9.728 1.064 C 9.975 1.190,10.000 1.276,9.999 2.006 C 9.999 2.528,9.993 2.613,9.949 2.710 C 9.887 2.845,9.757 2.948,9.599 2.985 C 9.438 3.022,6.562 3.022,6.401 2.985 C 6.243 2.948,6.113 2.845,6.051 2.710 C 6.007 2.613,6.001 2.529,6.001 2.000 C 6.001 1.267,6.023 1.194,6.280 1.058 C 6.350 1.021,6.555 1.015,7.994 1.014 C 9.547 1.013,9.634 1.016,9.728 1.064 M2.768 1.521 C 2.519 1.550,2.313 1.614,2.080 1.735 C 1.571 2.000,1.223 2.435,1.057 3.013 L 1.000 3.213 0.992 8.560 C 0.987 12.104,0.994 13.994,1.012 14.165 C 1.104 15.027,1.626 15.664,2.454 15.924 L 2.653 15.987 8.000 15.987 L 13.347 15.987 13.546 15.924 C 14.374 15.664,14.896 15.027,14.988 14.165 C 15.006 13.994,15.013 12.104,15.008 8.560 L 15.000 3.213 14.942 3.010 C 14.779 2.438,14.426 1.998,13.914 1.732 C 13.561 1.548,13.387 1.516,12.647 1.500 L 12.000 1.486 12.000 1.995 L 12.000 2.503 12.633 2.512 L 13.267 2.520 13.425 2.598 C 13.635 2.701,13.798 2.869,13.902 3.088 L 13.987 3.267 13.994 8.678 C 14.001 14.645,14.011 14.266,13.837 14.538 C 13.685 14.775,13.449 14.931,13.161 14.984 C 12.940 15.025,3.060 15.025,2.839 14.984 C 2.551 14.931,2.315 14.775,2.163 14.538 C 1.989 14.266,1.999 14.645,2.006 8.678 L 2.013 3.267 2.098 3.088 C 2.202 2.869,2.365 2.701,2.575 2.598 L 2.733 2.520 3.367 2.512 L 4.000 2.503 4.000 1.998 L 4.000 1.493 3.473 1.497 C 3.184 1.499,2.866 1.510,2.768 1.521 M7.730 7.090 C 7.513 7.227,7.508 7.252,7.499 8.193 L 7.491 9.013 6.671 9.013 L 5.850 9.013 5.730 9.090 C 5.397 9.301,5.436 9.785,5.799 9.950 C 5.896 9.994,5.988 9.999,6.700 9.999 L 7.493 10.000 7.494 10.793 C 7.494 11.508,7.499 11.597,7.544 11.693 C 7.603 11.822,7.688 11.904,7.820 11.959 C 8.065 12.061,8.339 11.947,8.456 11.693 C 8.501 11.597,8.506 11.508,8.506 10.793 L 8.507 10.000 9.300 9.999 C 10.012 9.999,10.104 9.994,10.201 9.950 C 10.564 9.785,10.603 9.301,10.270 9.090 L 10.150 9.013 9.329 9.013 L 8.509 9.013 8.501 8.193 C 8.492 7.252,8.487 7.227,8.270 7.090 C 8.174 7.029,8.119 7.013,8.000 7.013 C 7.881 7.013,7.826 7.029,7.730 7.090 " stroke="none" fill-rule="evenodd"></path></svg>