<svg width="16" height="16" fill="currentColor" xmlns="http://www.w3.org/2000/svg"><path d="M6.307 0.051 C 6.111 0.141,6.001 0.309,5.999 0.520 C 5.999 0.642,5.910 0.811,5.805 0.892 C 5.739 0.941,5.649 0.975,5.514 0.998 C 5.281 1.038,5.234 1.061,5.124 1.186 C 5.012 1.314,5.000 1.370,5.000 1.775 C 5.000 2.117,5.002 2.127,5.080 2.253 C 5.130 2.333,5.200 2.403,5.267 2.438 C 5.373 2.493,5.387 2.493,8.000 2.493 C 10.613 2.493,10.627 2.493,10.733 2.438 C 10.800 2.403,10.870 2.333,10.920 2.253 C 10.999 2.126,11.000 2.119,11.000 1.749 C 11.000 1.446,10.991 1.357,10.955 1.291 C 10.893 1.178,10.740 1.048,10.649 1.031 C 10.607 1.023,10.504 1.002,10.419 0.986 C 10.151 0.934,10.031 0.776,9.986 0.419 C 9.966 0.265,9.853 0.122,9.694 0.050 C 9.594 0.005,9.478 0.001,8.000 0.001 C 6.512 0.001,6.407 0.004,6.307 0.051 M3.108 1.054 C 2.726 1.159,2.332 1.478,2.167 1.815 C 1.987 2.184,1.999 1.693,2.006 8.579 L 2.013 14.813 2.076 14.979 C 2.242 15.424,2.597 15.774,3.035 15.925 L 3.213 15.987 8.000 15.987 L 12.787 15.987 12.965 15.925 C 13.403 15.774,13.758 15.424,13.924 14.979 L 13.987 14.813 13.994 8.579 C 14.001 1.703,14.013 2.191,13.834 1.820 C 13.720 1.584,13.438 1.299,13.200 1.179 C 12.921 1.039,12.784 1.014,12.292 1.014 C 11.852 1.013,11.850 1.014,11.730 1.090 C 11.397 1.301,11.436 1.785,11.799 1.950 C 11.885 1.989,11.975 1.999,12.248 1.999 C 12.697 2.000,12.823 2.050,12.936 2.272 C 12.985 2.369,12.987 2.538,12.987 8.493 C 12.987 13.575,12.981 14.630,12.951 14.701 C 12.907 14.805,12.747 14.951,12.646 14.980 C 12.551 15.006,3.449 15.006,3.354 14.980 C 3.262 14.954,3.103 14.815,3.052 14.717 C 3.019 14.653,3.013 13.813,3.013 8.507 C 3.013 2.539,3.015 2.369,3.064 2.272 C 3.177 2.050,3.303 2.000,3.752 1.999 C 4.025 1.999,4.115 1.989,4.201 1.950 C 4.564 1.785,4.603 1.301,4.270 1.090 L 4.150 1.013 3.695 1.016 C 3.402 1.017,3.193 1.031,3.108 1.054 M10.767 6.027 C 10.481 6.099,10.228 6.310,10.096 6.587 L 10.013 6.760 10.013 9.507 L 10.013 12.253 10.083 12.400 C 10.282 12.818,10.730 13.062,11.159 12.985 C 11.489 12.925,11.771 12.708,11.917 12.400 L 11.987 12.253 11.987 9.507 L 11.987 6.760 11.911 6.597 C 11.817 6.392,11.609 6.185,11.406 6.093 C 11.235 6.014,10.938 5.984,10.767 6.027 M7.734 8.043 C 7.357 8.144,7.083 8.453,7.013 8.856 C 6.993 8.972,6.986 9.536,6.992 10.613 C 7.000 12.172,7.001 12.203,7.058 12.341 C 7.224 12.747,7.579 12.993,8.000 12.993 C 8.421 12.993,8.776 12.747,8.942 12.341 C 8.999 12.203,9.000 12.172,9.008 10.613 C 9.014 9.536,9.007 8.972,8.987 8.856 C 8.916 8.447,8.642 8.142,8.254 8.041 C 8.061 7.991,7.926 7.991,7.734 8.043 M4.767 10.027 C 4.481 10.099,4.228 10.310,4.096 10.587 L 4.013 10.760 4.013 11.507 L 4.013 12.253 4.083 12.400 C 4.282 12.818,4.730 13.062,5.159 12.985 C 5.489 12.925,5.771 12.708,5.917 12.400 L 5.987 12.253 5.987 11.507 L 5.987 10.760 5.911 10.597 C 5.817 10.392,5.609 10.185,5.406 10.093 C 5.235 10.014,4.938 9.984,4.767 10.027 " stroke="none" fill-rule="evenodd"></path></svg>