<svg width="16" height="16" fill="currentColor" xmlns="http://www.w3.org/2000/svg"><path d="M7.453 0.029 C 5.878 0.201,4.403 1.055,3.554 2.286 C 3.295 2.662,3.104 3.073,3.000 3.478 L 2.940 3.715 2.637 3.813 C 1.994 4.020,1.543 4.294,1.078 4.758 C 0.394 5.443,0.043 6.244,0.008 7.200 C -0.052 8.858,1.059 10.369,2.686 10.841 C 3.222 10.997,3.203 10.995,5.433 11.007 L 7.492 11.017 7.499 12.822 C 7.507 14.594,7.508 14.629,7.562 14.733 C 7.740 15.073,8.260 15.073,8.438 14.733 C 8.492 14.629,8.493 14.594,8.501 12.822 L 8.508 11.017 10.794 11.006 C 12.988 10.996,13.090 10.993,13.333 10.940 C 14.386 10.710,15.212 10.087,15.661 9.187 C 15.908 8.692,15.987 8.339,15.984 7.747 C 15.981 7.248,15.936 7.009,15.763 6.576 C 15.378 5.616,14.488 4.872,13.441 4.636 L 13.174 4.576 13.159 4.481 C 13.028 3.624,12.794 2.983,12.380 2.347 C 11.880 1.581,11.164 0.950,10.333 0.545 C 9.828 0.299,9.354 0.149,8.813 0.066 C 8.478 0.014,7.768 -0.005,7.453 0.029 M8.181 4.041 C 8.304 4.092,11.364 7.137,11.442 7.286 C 11.594 7.578,11.388 7.956,11.057 7.993 C 10.813 8.020,10.816 8.022,9.620 6.831 L 8.507 5.722 8.500 8.361 L 8.493 11.000 8.000 11.000 L 7.507 11.000 7.500 8.361 L 7.493 5.722 6.380 6.831 C 5.184 8.022,5.187 8.020,4.943 7.993 C 4.612 7.956,4.406 7.578,4.558 7.286 C 4.631 7.146,7.695 4.093,7.813 4.042 C 7.934 3.990,8.057 3.990,8.181 4.041 " stroke="none" fill-rule="evenodd"></path></svg>