<svg width="16" height="16" fill="currentColor" xmlns="http://www.w3.org/2000/svg"><path d="M7.773 1.053 C 6.156 1.300,4.737 2.326,4.033 3.757 L 3.907 4.013 3.493 4.015 C 2.526 4.018,1.723 4.352,1.037 5.037 C 0.528 5.547,0.235 6.084,0.076 6.802 C 0.026 7.028,0.015 7.158,0.015 7.493 C 0.016 7.946,0.041 8.118,0.164 8.520 C 0.336 9.084,0.623 9.560,1.040 9.973 C 1.566 10.496,2.170 10.809,2.920 10.950 C 3.175 10.998,3.412 11.000,8.240 11.000 C 13.732 11.000,13.445 11.008,13.930 10.850 C 14.804 10.565,15.515 9.878,15.823 9.020 C 16.164 8.070,16.000 6.986,15.397 6.196 C 14.990 5.662,14.396 5.264,13.769 5.105 C 13.628 5.069,13.491 5.040,13.464 5.040 C 13.429 5.040,13.407 5.008,13.386 4.927 C 13.291 4.561,13.236 4.385,13.142 4.147 C 12.618 2.817,11.489 1.745,10.109 1.268 C 9.593 1.090,9.264 1.037,8.600 1.026 C 8.189 1.019,7.941 1.027,7.773 1.053 M3.799 12.050 C 3.604 12.139,3.571 12.205,3.266 13.124 C 3.045 13.790,2.984 14.002,2.996 14.073 C 3.054 14.434,3.436 14.623,3.743 14.444 C 3.807 14.406,3.877 14.348,3.899 14.314 C 3.943 14.246,4.507 12.569,4.507 12.507 C 4.506 12.250,4.256 12.001,4.000 12.001 C 3.949 12.001,3.858 12.023,3.799 12.050 M6.848 12.025 C 6.730 12.063,6.615 12.158,6.563 12.262 C 6.477 12.433,5.493 15.425,5.493 15.516 C 5.493 15.623,5.557 15.779,5.635 15.862 C 5.728 15.962,5.826 16.000,5.992 16.000 C 6.176 16.000,6.307 15.940,6.392 15.816 C 6.477 15.690,7.493 12.624,7.493 12.493 C 7.491 12.238,7.296 12.027,7.046 12.010 C 6.977 12.006,6.887 12.012,6.848 12.025 M9.799 12.050 C 9.604 12.139,9.571 12.205,9.266 13.124 C 9.045 13.790,8.984 14.002,8.996 14.073 C 9.054 14.434,9.436 14.623,9.743 14.444 C 9.807 14.406,9.877 14.348,9.899 14.314 C 9.943 14.246,10.507 12.569,10.507 12.507 C 10.506 12.250,10.256 12.001,10.000 12.001 C 9.949 12.001,9.858 12.023,9.799 12.050 M12.848 12.025 C 12.730 12.063,12.615 12.158,12.563 12.262 C 12.477 12.433,11.493 15.425,11.493 15.516 C 11.493 15.623,11.557 15.779,11.635 15.862 C 11.728 15.962,11.826 16.000,11.992 16.000 C 12.176 16.000,12.307 15.940,12.392 15.816 C 12.477 15.690,13.493 12.624,13.493 12.493 C 13.491 12.238,13.296 12.027,13.046 12.010 C 12.977 12.006,12.887 12.012,12.848 12.025 " stroke="none" fill-rule="evenodd"></path></svg>