<svg width="16" height="16" fill="currentColor" xmlns="http://www.w3.org/2000/svg"><path d="M1.986 2.000 L 1.640 2.347 7.640 8.347 L 13.640 14.346 13.993 13.993 L 14.347 13.640 8.354 7.647 C 5.057 4.350,2.354 1.653,2.346 1.653 C 2.339 1.653,2.177 1.809,1.986 2.000 M7.459 2.028 C 6.862 2.090,6.214 2.270,5.687 2.521 C 5.383 2.665,4.960 2.904,4.960 2.932 C 4.960 2.941,5.119 3.106,5.313 3.300 L 5.667 3.652 6.000 3.485 C 6.377 3.296,6.711 3.178,7.120 3.090 C 7.364 3.037,7.478 3.029,8.000 3.029 C 8.522 3.028,8.635 3.036,8.871 3.087 C 10.131 3.363,11.170 4.140,11.731 5.227 C 12.042 5.829,12.155 6.289,12.179 7.060 L 12.194 7.547 12.534 7.547 C 12.720 7.547,12.976 7.565,13.102 7.587 C 13.863 7.719,14.474 8.187,14.798 8.884 C 14.935 9.180,14.987 9.425,14.987 9.781 C 14.987 10.566,14.574 11.272,13.874 11.684 L 13.762 11.750 14.130 12.116 L 14.497 12.483 14.709 12.326 C 16.149 11.253,16.422 9.198,15.310 7.808 C 14.831 7.209,14.186 6.804,13.441 6.636 L 13.174 6.576 13.159 6.481 C 13.026 5.608,12.784 4.955,12.358 4.317 C 11.843 3.547,11.158 2.947,10.333 2.545 C 9.828 2.299,9.354 2.149,8.813 2.066 C 8.483 2.015,7.772 1.995,7.459 2.028 M3.044 5.313 C 3.013 5.420,2.978 5.553,2.967 5.610 L 2.946 5.714 2.639 5.812 C 1.994 6.020,1.544 6.293,1.078 6.758 C 0.394 7.443,0.043 8.244,0.008 9.200 C -0.041 10.535,0.656 11.779,1.843 12.477 C 2.221 12.699,2.614 12.843,3.138 12.952 C 3.323 12.990,3.770 12.996,7.167 13.005 C 9.268 13.011,10.987 13.006,10.987 12.994 C 10.987 12.982,10.768 12.754,10.500 12.486 L 10.013 12.000 6.786 12.000 C 3.218 12.000,3.302 12.003,2.815 11.829 C 1.977 11.530,1.364 10.888,1.101 10.034 C 1.034 9.816,1.029 9.766,1.029 9.320 C 1.029 8.872,1.034 8.824,1.103 8.602 C 1.338 7.836,1.870 7.228,2.599 6.891 C 2.865 6.768,3.139 6.698,3.554 6.645 L 3.907 6.600 3.914 6.254 L 3.922 5.909 3.528 5.514 C 3.311 5.298,3.127 5.120,3.118 5.120 C 3.109 5.120,3.076 5.207,3.044 5.313 " stroke="none" fill-rule="evenodd"></path></svg>