<svg width="16" height="16" fill="currentColor" xmlns="http://www.w3.org/2000/svg"><path d="M7.840 4.545 C 6.280 4.770,4.980 5.636,4.179 6.984 C 4.097 7.122,4.004 7.297,3.973 7.373 L 3.917 7.512 3.512 7.513 C 2.765 7.515,2.153 7.700,1.533 8.112 C 1.248 8.301,0.794 8.756,0.605 9.043 C 0.203 9.653,0.016 10.273,0.016 11.000 C 0.016 11.967,0.356 12.787,1.038 13.468 C 1.543 13.971,2.069 14.257,2.813 14.434 L 3.053 14.492 8.067 14.500 C 11.403 14.506,13.160 14.500,13.320 14.482 C 14.014 14.402,14.577 14.135,15.085 13.645 C 15.723 13.029,16.033 12.250,15.992 11.363 C 15.953 10.511,15.579 9.749,14.936 9.211 C 14.565 8.899,14.185 8.709,13.697 8.588 L 13.407 8.516 13.346 8.278 C 13.080 7.241,12.516 6.342,11.707 5.667 C 11.069 5.135,10.225 4.737,9.411 4.586 C 9.018 4.512,8.212 4.491,7.840 4.545 M8.840 5.521 C 9.394 5.574,9.814 5.691,10.273 5.921 C 11.455 6.512,12.266 7.627,12.454 8.920 C 12.517 9.350,12.647 9.472,13.080 9.507 C 13.978 9.580,14.632 10.085,14.911 10.920 C 14.965 11.083,14.973 11.157,14.972 11.507 C 14.972 11.873,14.965 11.924,14.898 12.120 C 14.791 12.426,14.634 12.677,14.402 12.909 C 14.171 13.140,13.921 13.297,13.613 13.405 L 13.400 13.480 8.227 13.480 L 3.053 13.480 2.819 13.407 C 2.247 13.227,1.757 12.874,1.440 12.413 C 1.318 12.235,1.134 11.830,1.076 11.613 C 1.008 11.353,1.006 10.648,1.074 10.403 C 1.280 9.656,1.750 9.077,2.413 8.756 C 2.890 8.526,3.392 8.458,3.960 8.547 C 4.467 8.627,4.569 8.565,4.774 8.060 C 4.924 7.686,5.089 7.389,5.307 7.096 C 5.961 6.217,7.009 5.629,8.112 5.522 C 8.437 5.491,8.517 5.491,8.840 5.521 " stroke="none" fill-rule="evenodd"></path></svg>