<svg width="16" height="16" fill="currentColor" xmlns="http://www.w3.org/2000/svg"><path d="M7.948 2.031 C 7.380 2.090,6.769 2.278,6.213 2.563 C 5.706 2.824,5.409 3.043,4.973 3.479 C 4.544 3.908,4.317 4.214,4.074 4.686 L 3.907 5.013 3.530 5.013 C 2.764 5.014,2.157 5.198,1.520 5.622 C 1.058 5.930,0.569 6.507,0.335 7.020 C 0.229 7.254,0.098 7.665,0.049 7.920 C -0.006 8.209,0.008 8.873,0.076 9.193 C 0.229 9.911,0.565 10.516,1.092 11.021 C 1.490 11.404,1.896 11.647,2.434 11.826 C 2.979 12.007,2.732 12.000,8.260 12.000 C 12.609 12.000,13.277 11.995,13.483 11.959 C 14.262 11.826,14.937 11.415,15.411 10.787 C 15.599 10.537,15.822 10.074,15.911 9.747 C 15.977 9.503,15.983 9.439,15.983 9.000 C 15.983 8.562,15.977 8.497,15.911 8.253 C 15.623 7.190,14.777 6.351,13.744 6.103 C 13.395 6.019,13.397 6.020,13.377 5.894 C 13.343 5.682,13.126 5.078,12.979 4.784 C 12.474 3.778,11.682 2.993,10.680 2.506 C 9.835 2.095,8.894 1.932,7.948 2.031 M3.293 13.044 C 3.218 13.086,3.094 13.204,3.060 13.266 C 2.930 13.507,3.040 13.836,3.290 13.949 C 3.396 13.997,3.564 13.999,8.000 13.999 C 12.436 13.999,12.604 13.997,12.710 13.949 C 12.960 13.836,13.070 13.507,12.940 13.266 C 12.896 13.186,12.769 13.073,12.685 13.042 C 12.577 13.001,3.367 13.004,3.293 13.044 M3.293 15.044 C 3.218 15.086,3.094 15.204,3.060 15.266 C 2.930 15.507,3.040 15.836,3.290 15.949 C 3.396 15.997,3.564 15.999,8.000 15.999 C 12.436 15.999,12.604 15.997,12.710 15.949 C 12.960 15.836,13.070 15.507,12.940 15.266 C 12.896 15.186,12.769 15.073,12.685 15.042 C 12.577 15.001,3.367 15.004,3.293 15.044 " stroke="none" fill-rule="evenodd"></path></svg>