<svg width="16" height="16" fill="currentColor" xmlns="http://www.w3.org/2000/svg"><path d="M7.947 0.030 C 7.391 0.094,6.781 0.274,6.289 0.521 C 5.723 0.804,5.340 1.087,4.893 1.551 C 4.536 1.921,4.295 2.255,4.074 2.686 L 3.907 3.013 3.530 3.013 C 2.764 3.014,2.157 3.198,1.520 3.622 C 1.058 3.930,0.569 4.507,0.335 5.020 C 0.229 5.254,0.098 5.665,0.049 5.920 C -0.006 6.209,0.008 6.873,0.076 7.193 C 0.229 7.911,0.565 8.516,1.092 9.021 C 1.490 9.404,1.896 9.647,2.434 9.826 C 2.979 10.007,2.732 10.000,8.260 10.000 C 12.609 10.000,13.277 9.995,13.483 9.959 C 14.262 9.826,14.937 9.415,15.411 8.787 C 15.599 8.537,15.822 8.074,15.911 7.747 C 15.977 7.503,15.983 7.439,15.983 7.000 C 15.983 6.562,15.977 6.497,15.911 6.253 C 15.623 5.190,14.777 4.351,13.744 4.103 C 13.395 4.019,13.397 4.020,13.377 3.894 C 13.343 3.682,13.126 3.078,12.979 2.784 C 12.201 1.234,10.736 0.217,9.008 0.028 C 8.710 -0.004,8.238 -0.004,7.947 0.030 M9.347 1.091 C 9.714 1.177,9.977 1.272,10.309 1.440 C 10.712 1.645,10.997 1.851,11.320 2.173 C 11.882 2.735,12.275 3.463,12.413 4.200 C 12.438 4.332,12.469 4.501,12.483 4.575 C 12.513 4.735,12.634 4.896,12.767 4.951 C 12.817 4.972,12.980 5.000,13.129 5.013 C 14.213 5.108,14.987 5.936,14.987 7.000 C 14.987 7.773,14.565 8.453,13.880 8.785 C 13.397 9.020,13.920 9.000,8.213 9.000 L 3.160 9.000 2.906 8.930 C 2.419 8.795,2.068 8.594,1.740 8.262 C 1.520 8.039,1.396 7.866,1.249 7.571 C 1.073 7.219,1.030 7.014,1.029 6.507 C 1.028 6.126,1.035 6.038,1.088 5.856 C 1.221 5.395,1.433 5.040,1.773 4.707 C 2.301 4.190,3.064 3.930,3.778 4.024 C 4.215 4.082,4.265 4.086,4.361 4.068 C 4.507 4.041,4.646 3.885,4.733 3.653 C 4.962 3.043,5.290 2.546,5.764 2.093 C 6.335 1.548,7.037 1.200,7.867 1.051 C 8.174 0.996,9.036 1.020,9.347 1.091 M4.262 11.067 C 4.074 11.167,3.979 11.364,4.012 11.587 C 4.035 11.744,4.197 11.932,4.343 11.973 C 4.477 12.010,13.523 12.010,13.657 11.973 C 13.803 11.932,13.965 11.744,13.988 11.587 C 14.022 11.361,13.925 11.165,13.732 11.066 C 13.630 11.014,13.556 11.013,8.994 11.015 C 4.466 11.016,4.358 11.017,4.262 11.067 M1.293 13.044 C 1.218 13.086,1.094 13.204,1.060 13.266 C 0.930 13.507,1.040 13.836,1.290 13.949 C 1.396 13.997,1.564 13.999,6.000 13.999 C 10.436 13.999,10.604 13.997,10.710 13.949 C 10.960 13.836,11.070 13.507,10.940 13.266 C 10.896 13.186,10.769 13.073,10.685 13.042 C 10.577 13.001,1.367 13.004,1.293 13.044 M3.293 15.044 C 3.218 15.086,3.094 15.204,3.060 15.266 C 2.930 15.507,3.040 15.836,3.290 15.949 C 3.396 15.997,3.564 15.999,8.000 15.999 C 12.436 15.999,12.604 15.997,12.710 15.949 C 12.960 15.836,13.070 15.507,12.940 15.266 C 12.896 15.186,12.769 15.073,12.685 15.042 C 12.577 15.001,3.367 15.004,3.293 15.044 " stroke="none" fill-rule="evenodd"></path></svg>