<svg width="16" height="16" fill="currentColor" xmlns="http://www.w3.org/2000/svg"><path d="M10.547 1.082 C 10.444 1.118,10.228 1.212,10.067 1.291 C 8.645 1.990,7.699 3.348,7.521 4.947 C 7.480 5.312,7.498 5.961,7.551 6.013 C 7.559 6.022,7.688 6.047,7.838 6.069 C 7.987 6.091,8.218 6.137,8.351 6.170 L 8.592 6.231 8.574 6.122 C 8.520 5.801,8.508 5.668,8.507 5.413 C 8.506 4.466,8.884 3.549,9.555 2.872 C 9.684 2.741,9.796 2.640,9.803 2.648 C 9.811 2.655,9.798 2.750,9.776 2.858 C 9.363 4.856,10.366 6.941,12.177 7.851 C 12.753 8.140,13.494 8.347,13.957 8.347 C 14.179 8.347,14.133 8.395,13.707 8.612 C 13.236 8.851,12.717 8.981,12.185 8.993 L 11.903 9.000 12.005 9.221 C 12.061 9.342,12.150 9.567,12.203 9.721 C 12.261 9.887,12.314 10.000,12.335 10.000 C 12.355 10.000,12.508 9.982,12.676 9.960 C 13.406 9.864,14.046 9.621,14.673 9.202 C 15.124 8.901,15.673 8.346,15.909 7.954 C 16.054 7.713,16.027 7.486,15.831 7.314 C 15.665 7.168,15.555 7.155,15.213 7.238 C 14.818 7.335,14.630 7.359,14.265 7.359 C 12.822 7.362,11.523 6.487,10.957 5.132 C 10.791 4.735,10.717 4.377,10.701 3.893 C 10.676 3.123,10.835 2.537,11.266 1.800 C 11.366 1.629,11.388 1.465,11.332 1.315 C 11.297 1.223,11.185 1.101,11.088 1.051 C 10.982 0.996,10.759 1.008,10.547 1.082 M6.673 7.015 C 4.983 7.126,3.434 8.257,2.824 9.825 L 2.751 10.012 2.523 10.045 C 1.784 10.151,1.058 10.590,0.589 11.213 C 0.401 11.463,0.178 11.926,0.089 12.253 C 0.023 12.497,0.017 12.561,0.017 13.000 C 0.017 13.441,0.023 13.502,0.090 13.747 C 0.365 14.748,1.104 15.534,2.067 15.849 C 2.547 16.006,2.347 16.000,7.250 16.000 C 11.529 15.999,11.758 15.997,11.987 15.950 C 13.582 15.621,14.445 13.910,13.761 12.435 C 13.377 11.608,12.545 11.057,11.602 11.006 L 11.485 11.000 11.423 10.681 C 11.336 10.234,11.227 9.913,11.013 9.480 C 10.412 8.263,9.263 7.378,7.915 7.093 C 7.779 7.065,7.553 7.034,7.413 7.026 C 7.274 7.018,7.118 7.008,7.067 7.003 C 7.015 6.999,6.838 7.004,6.673 7.015 M7.667 8.067 C 9.006 8.341,10.055 9.333,10.388 10.640 C 10.424 10.779,10.466 11.055,10.481 11.253 C 10.524 11.782,10.522 11.777,10.653 11.907 C 10.784 12.038,10.885 12.069,11.101 12.043 C 11.178 12.034,11.313 12.019,11.402 12.010 C 11.960 11.953,12.579 12.307,12.831 12.827 C 12.948 13.066,12.987 13.239,12.987 13.516 C 12.987 14.159,12.590 14.702,11.955 14.926 L 11.747 15.000 7.413 15.008 C 4.485 15.014,3.000 15.007,2.834 14.988 C 2.528 14.953,2.225 14.858,2.000 14.727 C 1.788 14.604,1.431 14.252,1.311 14.047 C 0.918 13.380,0.918 12.618,1.311 11.954 C 1.437 11.740,1.765 11.415,1.987 11.286 C 2.279 11.114,2.546 11.037,2.920 11.015 C 3.425 10.984,3.516 10.917,3.653 10.478 C 4.057 9.177,5.192 8.217,6.550 8.028 C 6.802 7.993,7.409 8.014,7.667 8.067 " stroke="none" fill-rule="evenodd"></path></svg>