<svg width="16" height="16" fill="currentColor" xmlns="http://www.w3.org/2000/svg"><path d="M7.453 0.029 C 5.878 0.201,4.403 1.055,3.554 2.286 C 3.295 2.662,3.104 3.073,3.000 3.478 L 2.940 3.715 2.637 3.813 C 1.994 4.020,1.543 4.294,1.078 4.758 C 0.394 5.443,0.043 6.244,0.008 7.200 C -0.052 8.858,1.059 10.369,2.686 10.841 C 3.222 10.997,3.203 10.995,5.433 11.007 L 7.493 11.017 7.493 12.648 L 7.493 14.279 6.380 13.169 C 5.184 11.978,5.187 11.980,4.943 12.007 C 4.632 12.042,4.424 12.387,4.535 12.685 C 4.576 12.797,7.668 15.887,7.800 15.949 C 7.935 16.012,8.065 16.012,8.200 15.949 C 8.332 15.887,11.424 12.797,11.465 12.685 C 11.576 12.387,11.368 12.042,11.057 12.007 C 10.813 11.980,10.816 11.978,9.620 13.169 L 8.507 14.279 8.507 12.648 L 8.507 11.017 10.793 11.006 C 12.988 10.996,13.090 10.993,13.333 10.940 C 14.386 10.710,15.212 10.087,15.661 9.187 C 15.908 8.692,15.987 8.339,15.984 7.747 C 15.981 7.248,15.936 7.009,15.763 6.576 C 15.378 5.616,14.488 4.872,13.441 4.636 L 13.174 4.576 13.159 4.481 C 13.028 3.624,12.794 2.983,12.380 2.347 C 11.880 1.581,11.164 0.950,10.333 0.545 C 9.828 0.299,9.354 0.149,8.813 0.066 C 8.478 0.014,7.768 -0.005,7.453 0.029 M8.246 5.073 C 8.309 5.108,8.381 5.182,8.423 5.253 L 8.493 5.373 8.493 8.187 L 8.493 11.000 8.000 11.000 L 7.507 11.000 7.507 8.187 L 7.507 5.373 7.573 5.258 C 7.706 5.025,8.011 4.941,8.246 5.073 " stroke="none" fill-rule="evenodd"></path></svg>