<svg width="16" height="16" fill="currentColor" xmlns="http://www.w3.org/2000/svg"><path d="M7.453 2.029 C 5.878 2.201,4.403 3.055,3.554 4.286 C 3.295 4.662,3.104 5.073,3.000 5.478 L 2.940 5.715 2.637 5.813 C 1.994 6.020,1.543 6.294,1.078 6.758 C 0.394 7.443,0.043 8.244,0.008 9.200 C -0.052 10.859,1.059 12.369,2.687 12.841 C 3.269 13.010,2.917 13.000,8.227 13.000 L 13.053 13.000 13.325 12.940 C 13.880 12.817,14.303 12.630,14.701 12.331 C 15.346 11.847,15.763 11.188,15.950 10.360 C 15.974 10.256,15.986 10.040,15.984 9.747 C 15.981 9.248,15.936 9.009,15.763 8.576 C 15.378 7.616,14.488 6.872,13.441 6.636 L 13.174 6.576 13.159 6.481 C 13.026 5.608,12.784 4.955,12.358 4.317 C 11.843 3.547,11.158 2.947,10.333 2.545 C 9.828 2.299,9.354 2.149,8.813 2.066 C 8.478 2.014,7.768 1.995,7.453 2.029 " stroke="none" fill-rule="evenodd"></path></svg>