<svg width="16" height="16" fill="currentColor" xmlns="http://www.w3.org/2000/svg"><path d="M7.453 0.029 C 5.878 0.201,4.403 1.055,3.554 2.286 C 3.295 2.662,3.104 3.073,3.000 3.478 L 2.940 3.715 2.637 3.813 C 1.994 4.020,1.543 4.294,1.078 4.758 C 0.394 5.443,0.043 6.244,0.008 7.200 C -0.052 8.859,1.059 10.369,2.687 10.841 C 3.206 10.992,3.291 10.998,4.760 10.999 L 6.120 11.000 6.243 10.928 C 6.523 10.763,6.585 10.427,6.380 10.184 C 6.226 10.000,6.236 10.001,4.827 10.000 C 3.411 10.000,3.255 9.986,2.815 9.829 C 1.977 9.530,1.364 8.888,1.101 8.034 C 1.034 7.816,1.029 7.766,1.029 7.320 C 1.029 6.874,1.034 6.824,1.101 6.606 C 1.339 5.834,1.867 5.229,2.599 4.891 C 2.865 4.768,3.139 4.698,3.554 4.645 L 3.907 4.600 3.923 4.187 C 3.942 3.717,3.975 3.589,4.181 3.189 C 4.705 2.172,5.827 1.372,7.129 1.088 C 7.364 1.036,7.480 1.028,8.000 1.028 C 8.520 1.028,8.636 1.036,8.871 1.088 C 10.130 1.362,11.169 2.140,11.731 3.227 C 12.042 3.829,12.155 4.289,12.179 5.060 L 12.194 5.547 12.534 5.547 C 13.098 5.547,13.475 5.637,13.882 5.870 C 14.396 6.163,14.817 6.729,14.944 7.299 C 14.999 7.547,14.999 7.999,14.944 8.248 C 14.792 8.928,14.272 9.537,13.606 9.815 C 13.181 9.992,13.090 9.999,11.413 10.000 C 10.010 10.001,9.899 10.005,9.799 10.050 C 9.579 10.150,9.457 10.387,9.515 10.604 C 9.560 10.770,9.615 10.844,9.757 10.928 L 9.880 11.000 11.467 10.999 C 13.008 10.999,13.061 10.997,13.325 10.939 C 13.877 10.818,14.302 10.630,14.701 10.331 C 15.346 9.847,15.763 9.188,15.950 8.360 C 15.974 8.256,15.986 8.040,15.984 7.747 C 15.981 7.248,15.936 7.009,15.763 6.576 C 15.378 5.616,14.488 4.872,13.441 4.636 L 13.174 4.576 13.159 4.481 C 13.026 3.608,12.784 2.955,12.358 2.317 C 11.843 1.547,11.158 0.947,10.333 0.545 C 9.828 0.299,9.354 0.149,8.813 0.066 C 8.478 0.014,7.768 -0.005,7.453 0.029 M7.800 4.051 C 7.668 4.113,4.576 7.203,4.535 7.315 C 4.424 7.613,4.632 7.958,4.943 7.993 C 5.187 8.020,5.184 8.022,6.380 6.831 L 7.493 5.722 7.500 10.174 L 7.507 14.627 7.562 14.733 C 7.642 14.885,7.824 14.993,8.000 14.993 C 8.176 14.993,8.358 14.885,8.438 14.733 L 8.493 14.627 8.500 10.174 L 8.507 5.722 9.620 6.831 C 10.816 8.022,10.813 8.020,11.057 7.993 C 11.368 7.958,11.576 7.613,11.465 7.315 C 11.424 7.203,8.332 4.113,8.200 4.051 C 8.141 4.024,8.051 4.001,8.000 4.001 C 7.949 4.001,7.859 4.024,7.800 4.051 " stroke="none" fill-rule="evenodd"></path></svg>