<svg width="16" height="16" fill="currentColor" xmlns="http://www.w3.org/2000/svg"><path d="M7.976 2.030 C 7.375 2.093,6.801 2.265,6.241 2.550 C 5.712 2.819,5.417 3.035,4.973 3.479 C 4.544 3.908,4.317 4.214,4.074 4.686 L 3.907 5.013 3.533 5.013 C 2.761 5.014,2.173 5.186,1.570 5.588 C 0.837 6.076,0.317 6.809,0.109 7.647 C 0.081 7.761,0.051 7.886,0.042 7.927 L 0.026 8.000 2.800 8.000 C 5.244 8.000,5.587 8.005,5.674 8.041 C 6.136 8.234,6.085 8.873,5.599 8.985 C 5.522 9.002,4.532 9.012,2.757 9.013 L 0.034 9.013 0.057 9.140 C 0.133 9.545,0.307 9.993,0.523 10.336 C 1.090 11.240,1.989 11.821,3.053 11.972 C 3.172 11.989,5.070 11.999,8.243 11.999 C 12.608 12.000,13.277 11.995,13.483 11.959 C 14.262 11.826,14.937 11.415,15.411 10.787 C 15.599 10.537,15.822 10.074,15.911 9.747 C 15.977 9.503,15.983 9.439,15.983 9.000 C 15.983 8.562,15.977 8.497,15.911 8.253 C 15.623 7.190,14.777 6.351,13.744 6.103 C 13.398 6.020,13.397 6.019,13.378 5.902 C 13.344 5.691,13.163 5.175,13.010 4.854 C 12.519 3.824,11.714 3.012,10.682 2.507 C 9.850 2.101,8.903 1.934,7.976 2.030 M11.674 10.041 C 12.136 10.234,12.085 10.873,11.599 10.985 C 11.434 11.023,2.566 11.023,2.401 10.985 C 1.924 10.875,1.862 10.256,2.307 10.050 C 2.409 10.003,2.598 10.001,6.994 10.001 C 11.069 10.000,11.586 10.005,11.674 10.041 M0.262 13.067 C 0.074 13.167,-0.021 13.364,0.012 13.587 C 0.035 13.744,0.197 13.932,0.343 13.973 C 0.477 14.010,9.523 14.010,9.657 13.973 C 9.803 13.932,9.965 13.744,9.988 13.587 C 10.022 13.361,9.925 13.165,9.732 13.066 C 9.630 13.014,9.556 13.013,4.994 13.015 C 0.466 13.016,0.358 13.017,0.262 13.067 " stroke="none" fill-rule="evenodd"></path></svg>