<svg width="16" height="16" fill="currentColor" xmlns="http://www.w3.org/2000/svg"><path d="M7.947 0.030 C 7.391 0.094,6.781 0.274,6.289 0.521 C 5.723 0.804,5.340 1.087,4.893 1.551 C 4.536 1.921,4.295 2.255,4.074 2.686 L 3.907 3.013 3.530 3.013 C 2.764 3.014,2.157 3.198,1.520 3.622 C 1.058 3.930,0.569 4.507,0.335 5.020 C 0.229 5.254,0.098 5.665,0.049 5.920 C -0.006 6.209,0.008 6.873,0.076 7.193 C 0.229 7.911,0.565 8.516,1.092 9.021 C 1.490 9.404,1.896 9.647,2.434 9.826 C 2.979 10.007,2.732 10.000,8.260 10.000 C 12.609 10.000,13.277 9.995,13.483 9.959 C 14.262 9.826,14.937 9.415,15.411 8.787 C 15.599 8.537,15.822 8.074,15.911 7.747 C 15.977 7.503,15.983 7.439,15.983 7.000 C 15.983 6.562,15.977 6.497,15.911 6.253 C 15.623 5.190,14.777 4.351,13.744 4.103 C 13.395 4.019,13.397 4.020,13.377 3.894 C 13.343 3.682,13.126 3.078,12.979 2.784 C 12.201 1.234,10.736 0.217,9.008 0.028 C 8.710 -0.004,8.238 -0.004,7.947 0.030 M9.347 1.091 C 9.714 1.177,9.977 1.272,10.309 1.440 C 10.712 1.645,10.997 1.851,11.320 2.173 C 11.882 2.735,12.275 3.463,12.413 4.200 C 12.438 4.332,12.469 4.501,12.483 4.575 C 12.513 4.735,12.634 4.896,12.767 4.951 C 12.817 4.972,12.980 5.000,13.129 5.013 C 14.213 5.108,14.987 5.936,14.987 7.000 C 14.987 7.773,14.565 8.453,13.880 8.785 C 13.397 9.020,13.920 9.000,8.213 9.000 L 3.160 9.000 2.906 8.930 C 2.419 8.795,2.068 8.594,1.740 8.262 C 1.520 8.039,1.396 7.866,1.249 7.571 C 1.073 7.219,1.030 7.014,1.029 6.507 C 1.028 6.126,1.035 6.038,1.088 5.856 C 1.221 5.395,1.433 5.040,1.773 4.707 C 2.301 4.190,3.064 3.930,3.778 4.024 C 4.215 4.082,4.265 4.086,4.361 4.068 C 4.507 4.041,4.646 3.885,4.733 3.653 C 4.962 3.043,5.290 2.546,5.764 2.093 C 6.335 1.548,7.037 1.200,7.867 1.051 C 8.174 0.996,9.036 1.020,9.347 1.091 M2.262 11.067 C 2.209 11.096,2.141 11.150,2.111 11.187 C 2.051 11.264,1.493 12.910,1.493 13.010 C 1.493 13.280,1.739 13.521,2.011 13.519 C 2.134 13.519,2.304 13.431,2.380 13.330 C 2.472 13.206,2.996 11.626,2.993 11.477 C 2.991 11.309,2.878 11.136,2.715 11.051 C 2.611 10.997,2.380 11.005,2.262 11.067 M7.293 11.044 C 7.143 11.127,7.066 11.256,6.544 12.301 C 5.976 13.438,5.958 13.485,6.028 13.672 C 6.067 13.773,6.208 13.918,6.312 13.963 C 6.375 13.990,6.530 14.000,6.881 14.000 C 7.328 14.000,7.363 14.003,7.349 14.047 C 7.341 14.072,7.258 14.406,7.163 14.789 C 7.009 15.409,6.993 15.497,7.017 15.602 C 7.099 15.967,7.539 16.123,7.810 15.883 C 7.909 15.796,9.899 13.306,9.954 13.200 C 10.067 12.986,9.955 12.674,9.727 12.563 C 9.622 12.512,9.564 12.507,9.152 12.507 C 8.900 12.507,8.693 12.503,8.693 12.499 C 8.693 12.495,8.760 12.294,8.842 12.052 C 9.036 11.478,9.038 11.360,8.857 11.164 C 8.721 11.017,8.697 11.013,7.995 11.014 C 7.574 11.015,7.328 11.025,7.293 11.044 M11.730 11.090 C 11.648 11.141,11.591 11.204,11.555 11.283 C 11.481 11.441,10.987 12.939,10.987 13.003 C 10.988 13.270,11.232 13.519,11.493 13.519 C 11.620 13.519,11.787 13.439,11.873 13.337 C 11.973 13.218,12.518 11.574,12.498 11.451 C 12.437 11.075,12.044 10.890,11.730 11.090 M4.271 12.564 C 4.207 12.596,4.128 12.663,4.094 12.717 C 4.060 12.770,3.910 13.184,3.760 13.636 C 3.531 14.325,3.489 14.478,3.500 14.577 C 3.547 14.994,4.076 15.159,4.367 14.847 C 4.446 14.763,4.989 13.152,4.990 13.000 C 4.993 12.628,4.611 12.396,4.271 12.564 M13.800 12.544 C 13.616 12.624,13.570 12.718,13.270 13.617 C 13.114 14.085,12.987 14.497,12.987 14.533 C 12.989 14.695,13.156 14.925,13.315 14.985 C 13.418 15.024,13.585 15.021,13.688 14.977 C 13.877 14.898,13.922 14.808,14.224 13.903 C 14.379 13.435,14.506 13.023,14.506 12.987 C 14.505 12.825,14.338 12.595,14.178 12.535 C 14.077 12.497,13.898 12.501,13.800 12.544 " stroke="none" fill-rule="evenodd"></path></svg>