<svg width="16" height="16" fill="currentColor" xmlns="http://www.w3.org/2000/svg"><path d="M7.453 2.029 C 5.878 2.201,4.403 3.055,3.554 4.286 C 3.295 4.662,3.104 5.073,3.000 5.478 L 2.940 5.715 2.637 5.813 C 1.994 6.020,1.543 6.294,1.078 6.758 C 0.394 7.443,0.043 8.244,0.008 9.200 C -0.052 10.859,1.059 12.369,2.687 12.841 C 3.269 13.010,2.920 13.000,8.200 13.000 C 12.785 13.000,13.012 12.998,13.267 12.950 C 14.329 12.750,15.202 12.108,15.661 11.187 C 15.908 10.692,15.987 10.339,15.984 9.747 C 15.981 9.248,15.936 9.009,15.763 8.576 C 15.378 7.616,14.488 6.872,13.441 6.636 L 13.174 6.576 13.159 6.481 C 13.028 5.624,12.794 4.983,12.380 4.347 C 11.880 3.581,11.164 2.950,10.333 2.545 C 9.828 2.299,9.354 2.149,8.813 2.066 C 8.478 2.014,7.768 1.995,7.453 2.029 M10.259 7.578 C 10.419 7.684,10.489 7.814,10.489 8.005 C 10.489 8.135,10.476 8.180,10.411 8.273 C 10.368 8.334,10.291 8.409,10.240 8.439 C 10.148 8.493,10.115 8.493,8.000 8.493 C 5.885 8.493,5.852 8.493,5.760 8.439 C 5.709 8.409,5.632 8.334,5.589 8.273 C 5.399 8.002,5.553 7.597,5.876 7.518 C 5.922 7.507,6.903 7.500,8.055 7.502 L 10.151 7.507 10.259 7.578 " stroke="none" fill-rule="evenodd"></path></svg>