<svg width="16" height="16" fill="currentColor" xmlns="http://www.w3.org/2000/svg"><path d="M7.947 0.030 C 7.391 0.094,6.781 0.274,6.289 0.521 C 5.723 0.804,5.340 1.087,4.893 1.551 C 4.536 1.921,4.295 2.255,4.074 2.686 L 3.907 3.013 3.530 3.013 C 2.764 3.014,2.157 3.198,1.520 3.622 C 1.058 3.930,0.569 4.507,0.335 5.020 C 0.229 5.254,0.098 5.665,0.049 5.920 C -0.006 6.209,0.008 6.873,0.076 7.193 C 0.229 7.911,0.565 8.516,1.092 9.021 C 1.490 9.404,1.896 9.647,2.434 9.826 C 2.979 10.007,2.732 10.000,8.260 10.000 C 12.609 10.000,13.277 9.995,13.483 9.959 C 14.262 9.826,14.937 9.415,15.411 8.787 C 15.599 8.537,15.822 8.074,15.911 7.747 C 15.977 7.503,15.983 7.439,15.983 7.000 C 15.983 6.562,15.977 6.497,15.911 6.253 C 15.623 5.190,14.777 4.351,13.744 4.103 C 13.395 4.019,13.397 4.020,13.377 3.894 C 13.343 3.682,13.126 3.078,12.979 2.784 C 12.201 1.234,10.736 0.217,9.008 0.028 C 8.710 -0.004,8.238 -0.004,7.947 0.030 M7.293 11.044 C 7.143 11.127,7.066 11.256,6.544 12.301 C 5.976 13.438,5.958 13.485,6.028 13.672 C 6.067 13.773,6.208 13.918,6.312 13.963 C 6.375 13.990,6.530 14.000,6.881 14.000 C 7.328 14.000,7.363 14.003,7.349 14.047 C 7.341 14.072,7.258 14.406,7.163 14.789 C 7.009 15.409,6.993 15.497,7.017 15.602 C 7.099 15.967,7.539 16.123,7.810 15.883 C 7.909 15.796,9.899 13.306,9.954 13.200 C 10.067 12.986,9.955 12.674,9.727 12.563 C 9.622 12.512,9.564 12.507,9.152 12.507 C 8.900 12.507,8.693 12.503,8.693 12.499 C 8.693 12.495,8.760 12.294,8.842 12.052 C 9.036 11.478,9.038 11.360,8.857 11.164 C 8.721 11.017,8.697 11.013,7.995 11.014 C 7.574 11.015,7.328 11.025,7.293 11.044 " stroke="none" fill-rule="evenodd"></path></svg>