<svg width="16" height="16" fill="currentColor" xmlns="http://www.w3.org/2000/svg"><path d="M4.271 0.564 C 4.099 0.649,4.013 0.794,4.013 1.000 C 4.013 1.207,4.100 1.353,4.273 1.437 L 4.390 1.493 8.000 1.493 L 11.610 1.493 11.727 1.437 C 11.900 1.353,11.987 1.207,11.987 1.000 C 11.987 0.793,11.900 0.647,11.727 0.563 L 11.610 0.507 7.998 0.507 L 4.387 0.507 4.271 0.564 M2.271 2.564 C 2.099 2.649,2.013 2.794,2.013 3.000 C 2.013 3.207,2.100 3.353,2.273 3.437 L 2.390 3.493 8.000 3.493 L 13.610 3.493 13.727 3.437 C 13.900 3.353,13.987 3.207,13.987 3.000 C 13.987 2.793,13.900 2.647,13.727 2.563 L 13.610 2.507 7.998 2.507 L 2.387 2.507 2.271 2.564 M1.137 4.549 C 0.898 4.607,0.621 4.765,0.435 4.951 C 0.253 5.133,0.081 5.451,0.029 5.701 C 0.009 5.799,-0.000 6.965,0.000 9.504 C 0.000 13.064,0.001 13.170,0.053 13.371 C 0.119 13.632,0.216 13.810,0.395 14.003 C 0.571 14.194,0.756 14.318,1.013 14.417 L 1.213 14.493 8.000 14.493 L 14.787 14.493 14.987 14.417 C 15.244 14.318,15.429 14.194,15.605 14.003 C 15.784 13.810,15.881 13.632,15.947 13.371 C 15.999 13.170,16.000 13.064,16.000 9.504 C 16.000 6.965,15.991 5.799,15.971 5.701 C 15.886 5.289,15.580 4.881,15.211 4.687 C 14.840 4.493,15.415 4.507,7.987 4.509 C 2.306 4.511,1.270 4.517,1.137 4.549 M8.720 7.798 C 9.842 8.499,10.794 9.104,10.836 9.143 C 10.946 9.245,10.987 9.340,10.987 9.493 C 10.987 9.635,10.924 9.793,10.836 9.870 C 10.700 9.990,6.706 12.457,6.606 12.483 C 6.460 12.522,6.299 12.480,6.175 12.371 C 5.989 12.208,5.998 12.357,6.006 9.451 L 6.013 6.836 6.084 6.729 C 6.184 6.578,6.345 6.501,6.533 6.514 C 6.675 6.523,6.755 6.570,8.720 7.798 " stroke="none" fill-rule="evenodd"></path></svg>