<svg width="16" height="16" fill="currentColor" xmlns="http://www.w3.org/2000/svg"><path d="M0.637 1.076 C 0.370 1.186,0.197 1.352,0.075 1.614 L 0.013 1.747 0.013 8.000 L 0.013 14.253 0.083 14.400 C 0.229 14.707,0.510 14.924,0.838 14.984 C 1.062 15.025,14.938 15.025,15.162 14.984 C 15.490 14.924,15.771 14.707,15.917 14.400 L 15.987 14.253 15.987 8.000 L 15.987 1.747 15.917 1.600 C 15.814 1.382,15.652 1.216,15.446 1.114 L 15.268 1.027 8.027 1.021 L 0.787 1.014 0.637 1.076 M7.493 3.507 L 7.493 5.013 4.253 5.013 L 1.013 5.013 1.013 3.507 L 1.013 2.000 4.253 2.000 L 7.493 2.000 7.493 3.507 M14.987 6.000 L 14.987 10.000 11.747 10.000 L 8.507 10.000 8.507 6.000 L 8.507 2.000 11.747 2.000 L 14.987 2.000 14.987 6.000 M7.493 10.000 L 7.493 14.000 4.253 14.000 L 1.013 14.000 1.013 10.000 L 1.013 6.000 4.253 6.000 L 7.493 6.000 7.493 10.000 M14.987 12.507 L 14.987 14.000 11.747 14.000 L 8.507 14.000 8.507 12.507 L 8.507 11.013 11.747 11.013 L 14.987 11.013 14.987 12.507 " stroke="none" fill-rule="evenodd"></path></svg>