<svg width="16" height="16" fill="currentColor" xmlns="http://www.w3.org/2000/svg"><path d="M4.360 2.389 C 3.235 2.694,3.193 2.711,3.090 2.913 C 3.045 3.002,3.036 3.056,3.047 3.186 L 3.060 3.348 2.934 3.435 C 2.812 3.518,2.527 3.795,2.392 3.960 C 2.037 4.396,1.579 5.296,1.260 6.187 C 0.392 8.611,0.139 11.134,0.626 12.497 C 0.744 12.827,0.828 12.966,1.029 13.164 C 1.222 13.355,1.454 13.477,1.740 13.537 C 2.164 13.627,2.742 13.475,3.230 13.145 C 3.462 12.988,3.910 12.548,4.328 12.067 C 4.923 11.383,5.019 11.279,5.280 11.048 C 5.866 10.527,6.481 10.223,7.213 10.091 C 7.586 10.023,8.414 10.023,8.787 10.091 C 9.519 10.223,10.134 10.527,10.720 11.048 C 10.981 11.279,11.077 11.383,11.672 12.067 C 12.084 12.541,12.538 12.987,12.760 13.138 C 13.106 13.372,13.528 13.530,13.890 13.563 C 14.435 13.611,15.021 13.273,15.262 12.770 C 15.800 11.650,15.726 9.537,15.069 7.211 C 14.721 5.981,14.282 4.956,13.778 4.200 C 13.627 3.975,13.227 3.544,13.058 3.426 C 12.990 3.379,12.985 3.366,13.011 3.298 C 13.104 3.056,12.975 2.771,12.728 2.671 C 12.627 2.630,10.666 2.107,10.614 2.107 C 10.429 2.107,10.219 2.253,10.149 2.429 C 10.110 2.526,10.098 2.536,10.033 2.522 C 9.993 2.514,9.738 2.487,9.467 2.462 C 8.869 2.408,7.265 2.400,6.720 2.448 C 6.522 2.466,6.270 2.487,6.160 2.495 L 5.960 2.510 5.907 2.395 C 5.875 2.327,5.810 2.250,5.747 2.207 C 5.551 2.072,5.508 2.078,4.360 2.389 M9.098 3.441 C 10.783 3.555,12.088 3.890,12.583 4.335 C 13.398 5.068,14.277 7.454,14.551 9.680 C 14.618 10.226,14.618 11.353,14.551 11.693 C 14.490 12.007,14.404 12.279,14.335 12.383 C 14.200 12.584,13.916 12.611,13.582 12.455 C 13.247 12.298,13.008 12.083,12.442 11.427 C 11.474 10.305,10.973 9.874,10.213 9.509 C 9.524 9.179,8.870 9.040,8.000 9.040 C 7.130 9.040,6.476 9.179,5.787 9.509 C 5.031 9.872,4.532 10.300,3.569 11.413 C 3.064 11.997,2.744 12.292,2.471 12.428 C 2.094 12.614,1.809 12.599,1.665 12.383 C 1.596 12.279,1.511 12.008,1.448 11.693 C 1.381 11.355,1.382 10.229,1.449 9.680 C 1.654 8.011,2.188 6.258,2.841 5.104 C 3.042 4.749,3.195 4.542,3.387 4.364 C 3.886 3.902,5.170 3.560,6.840 3.443 C 7.311 3.410,8.627 3.409,9.098 3.441 M4.507 6.027 L 4.507 6.533 4.000 6.533 L 3.493 6.533 3.493 7.027 L 3.493 7.520 4.000 7.520 L 4.507 7.520 4.507 8.027 L 4.507 8.533 5.000 8.533 L 5.493 8.533 5.493 8.027 L 5.493 7.520 6.000 7.520 L 6.507 7.520 6.507 7.027 L 6.507 6.533 6.000 6.533 L 5.493 6.533 5.493 6.027 L 5.493 5.520 5.000 5.520 L 4.507 5.520 4.507 6.027 M10.893 5.545 C 10.774 5.573,10.710 5.614,10.618 5.718 C 10.482 5.874,10.470 6.130,10.591 6.309 C 10.663 6.415,10.879 6.534,10.999 6.533 C 11.108 6.532,11.277 6.451,11.365 6.357 C 11.635 6.068,11.464 5.600,11.067 5.540 C 11.015 5.532,10.937 5.534,10.893 5.545 M9.800 6.571 C 9.640 6.643,9.493 6.864,9.493 7.034 C 9.493 7.149,9.614 7.366,9.718 7.436 C 9.823 7.507,9.979 7.535,10.119 7.509 C 10.304 7.474,10.505 7.223,10.505 7.027 C 10.505 6.854,10.344 6.624,10.178 6.562 C 10.076 6.523,9.897 6.528,9.800 6.571 M11.800 6.571 C 11.640 6.643,11.493 6.864,11.493 7.034 C 11.493 7.149,11.614 7.366,11.718 7.436 C 11.823 7.507,11.979 7.535,12.119 7.509 C 12.304 7.474,12.505 7.223,12.505 7.027 C 12.505 6.854,12.344 6.624,12.178 6.562 C 12.076 6.523,11.897 6.528,11.800 6.571 M10.893 7.545 C 10.774 7.573,10.710 7.614,10.618 7.718 C 10.482 7.874,10.470 8.130,10.591 8.309 C 10.663 8.415,10.879 8.534,10.999 8.533 C 11.108 8.532,11.277 8.451,11.365 8.357 C 11.635 8.068,11.464 7.600,11.067 7.540 C 11.015 7.532,10.937 7.534,10.893 7.545 " stroke="none" fill-rule="evenodd"></path></svg>