<svg width="16" height="16" fill="currentColor" xmlns="http://www.w3.org/2000/svg"><path d="M4.778 0.056 C 4.712 0.089,4.632 0.160,4.591 0.222 L 4.520 0.329 4.512 1.161 L 4.505 1.993 4.288 2.012 C 3.345 2.094,2.528 2.703,2.174 3.588 C 2.087 3.804,2.001 4.199,2.000 4.380 L 2.000 4.507 1.195 4.507 C 0.429 4.507,0.384 4.509,0.273 4.563 C 0.100 4.647,0.013 4.793,0.013 5.000 C 0.013 5.207,0.100 5.353,0.273 5.437 C 0.384 5.491,0.429 5.493,1.195 5.493 L 2.000 5.493 2.000 6.000 L 2.000 6.507 1.195 6.507 C 0.429 6.507,0.384 6.509,0.273 6.563 C 0.100 6.647,0.013 6.793,0.013 7.000 C 0.013 7.207,0.100 7.353,0.273 7.437 C 0.384 7.491,0.429 7.493,1.195 7.493 L 2.000 7.493 2.000 8.000 L 2.000 8.507 1.195 8.507 C 0.429 8.507,0.384 8.509,0.273 8.563 C 0.100 8.647,0.013 8.793,0.013 9.000 C 0.013 9.207,0.100 9.353,0.273 9.437 C 0.384 9.491,0.429 9.493,1.195 9.493 L 2.000 9.493 2.000 10.000 L 2.000 10.507 1.195 10.507 C 0.429 10.507,0.384 10.509,0.273 10.563 C 0.100 10.647,0.013 10.793,0.013 11.000 C 0.013 11.207,0.100 11.353,0.273 11.437 C 0.384 11.491,0.429 11.493,1.195 11.493 L 2.000 11.493 2.000 11.620 C 2.001 11.801,2.087 12.196,2.174 12.414 C 2.429 13.051,2.949 13.571,3.586 13.826 C 3.804 13.913,4.199 13.999,4.380 14.000 L 4.507 14.000 4.507 14.805 C 4.507 15.571,4.509 15.616,4.563 15.727 C 4.647 15.900,4.793 15.987,5.000 15.987 C 5.207 15.987,5.353 15.900,5.437 15.727 C 5.491 15.616,5.493 15.571,5.493 14.805 L 5.493 14.000 6.000 14.000 L 6.507 14.000 6.507 14.805 C 6.507 15.571,6.509 15.616,6.563 15.727 C 6.647 15.900,6.793 15.987,7.000 15.987 C 7.207 15.987,7.353 15.900,7.437 15.727 C 7.491 15.616,7.493 15.571,7.493 14.805 L 7.493 14.000 8.000 14.000 L 8.507 14.000 8.507 14.805 C 8.507 15.571,8.509 15.616,8.563 15.727 C 8.647 15.900,8.793 15.987,9.000 15.987 C 9.207 15.987,9.353 15.900,9.437 15.727 C 9.491 15.616,9.493 15.571,9.493 14.805 L 9.493 14.000 10.000 14.000 L 10.507 14.000 10.507 14.805 C 10.507 15.571,10.509 15.616,10.563 15.727 C 10.647 15.900,10.793 15.987,11.000 15.987 C 11.207 15.987,11.353 15.900,11.437 15.727 C 11.491 15.616,11.493 15.571,11.493 14.805 L 11.493 14.000 11.620 14.000 C 11.801 13.999,12.196 13.913,12.414 13.826 C 13.051 13.571,13.571 13.051,13.826 12.414 C 13.913 12.196,13.999 11.801,14.000 11.620 L 14.000 11.493 14.805 11.493 C 15.571 11.493,15.616 11.491,15.727 11.437 C 15.900 11.353,15.987 11.207,15.987 11.000 C 15.987 10.793,15.900 10.647,15.727 10.563 C 15.616 10.509,15.571 10.507,14.805 10.507 L 14.000 10.507 14.000 10.000 L 14.000 9.493 14.805 9.493 C 15.571 9.493,15.616 9.491,15.727 9.437 C 15.900 9.353,15.987 9.207,15.987 9.000 C 15.987 8.793,15.900 8.647,15.727 8.563 C 15.616 8.509,15.571 8.507,14.805 8.507 L 14.000 8.507 14.000 8.000 L 14.000 7.493 14.805 7.493 C 15.571 7.493,15.616 7.491,15.727 7.437 C 15.900 7.353,15.987 7.207,15.987 7.000 C 15.987 6.793,15.900 6.647,15.727 6.563 C 15.616 6.509,15.571 6.507,14.805 6.507 L 14.000 6.507 14.000 6.000 L 14.000 5.493 14.805 5.493 C 15.571 5.493,15.616 5.491,15.727 5.437 C 15.900 5.353,15.987 5.207,15.987 5.000 C 15.987 4.793,15.900 4.647,15.727 4.563 C 15.616 4.509,15.571 4.507,14.805 4.507 L 14.000 4.507 14.000 4.390 C 14.000 4.237,13.933 3.885,13.867 3.694 C 13.548 2.766,12.691 2.098,11.711 2.012 L 11.493 1.993 11.493 1.192 C 11.493 0.429,11.491 0.384,11.437 0.273 C 11.353 0.100,11.207 0.013,11.000 0.013 C 10.793 0.013,10.647 0.100,10.563 0.273 C 10.509 0.384,10.507 0.429,10.507 1.195 L 10.507 2.000 10.000 2.000 L 9.493 2.000 9.493 1.195 C 9.493 0.429,9.491 0.384,9.437 0.273 C 9.353 0.100,9.207 0.013,9.000 0.013 C 8.793 0.013,8.647 0.100,8.563 0.273 C 8.509 0.384,8.507 0.429,8.507 1.195 L 8.507 2.000 8.000 2.000 L 7.493 2.000 7.493 1.195 C 7.493 0.429,7.491 0.384,7.437 0.273 C 7.353 0.100,7.207 0.013,7.000 0.013 C 6.793 0.013,6.647 0.100,6.563 0.273 C 6.509 0.384,6.507 0.429,6.507 1.195 L 6.507 2.000 6.000 2.000 L 5.493 2.000 5.493 1.195 C 5.493 0.429,5.491 0.384,5.437 0.273 C 5.321 0.035,5.017 -0.066,4.778 0.056 M11.879 3.054 C 12.386 3.186,12.814 3.616,12.947 4.125 C 13.008 4.358,13.007 11.645,12.946 11.879 C 12.819 12.365,12.456 12.749,11.955 12.926 L 11.747 13.000 8.000 13.000 L 4.253 13.000 4.045 12.926 C 3.544 12.749,3.181 12.365,3.054 11.879 C 2.993 11.645,2.992 4.358,3.053 4.125 C 3.184 3.622,3.611 3.190,4.110 3.055 C 4.332 2.996,11.650 2.994,11.879 3.054 M6.110 5.055 C 5.775 5.146,5.437 5.393,5.238 5.693 C 5.189 5.767,5.116 5.923,5.075 6.040 L 5.000 6.253 5.000 8.000 L 5.000 9.747 5.074 9.955 C 5.245 10.439,5.561 10.755,6.045 10.926 L 6.253 11.000 8.000 11.000 L 9.747 11.000 9.955 10.926 C 10.439 10.755,10.755 10.439,10.926 9.955 L 11.000 9.747 11.000 8.000 L 11.000 6.253 10.926 6.045 C 10.749 5.544,10.365 5.181,9.879 5.054 C 9.653 4.995,6.329 4.996,6.110 5.055 M9.693 6.050 C 9.822 6.110,9.904 6.194,9.959 6.326 C 10.021 6.475,10.021 9.525,9.959 9.674 C 9.902 9.810,9.768 9.942,9.655 9.973 C 9.528 10.009,6.472 10.009,6.345 9.973 C 6.232 9.942,6.098 9.810,6.041 9.674 C 5.979 9.525,5.979 6.475,6.041 6.326 C 6.096 6.194,6.178 6.110,6.307 6.050 C 6.407 6.004,6.514 6.001,8.000 6.001 C 9.486 6.001,9.593 6.004,9.693 6.050 " stroke="none" fill-rule="evenodd"></path></svg>