<svg width="16" height="16" fill="currentColor" xmlns="http://www.w3.org/2000/svg"><path d="M3.277 0.559 C 3.137 0.635,3.049 0.752,3.016 0.907 C 2.998 0.991,2.987 1.418,2.987 2.028 L 2.987 3.013 1.932 3.013 C 0.767 3.013,0.769 3.013,0.621 3.182 C 0.417 3.415,0.499 3.807,0.780 3.943 C 0.893 3.998,0.931 4.000,1.941 4.000 L 2.986 4.000 2.993 9.313 C 2.999 13.756,3.006 14.638,3.037 14.693 C 3.090 14.791,3.202 14.905,3.293 14.956 C 3.367 14.997,3.793 15.001,8.687 15.007 L 14.000 15.014 14.000 15.507 L 14.000 16.000 14.507 16.000 L 15.013 16.000 15.013 15.507 L 15.013 15.013 15.507 15.013 L 16.000 15.013 16.000 14.507 L 16.000 14.000 10.000 14.000 L 4.000 14.000 4.000 7.448 L 4.000 0.897 3.943 0.780 C 3.830 0.545,3.502 0.436,3.277 0.559 M6.262 3.067 C 6.074 3.167,5.979 3.364,6.012 3.587 C 6.035 3.744,6.197 3.932,6.343 3.973 C 6.406 3.990,7.757 4.000,10.220 4.000 L 14.000 4.000 14.000 7.780 C 14.000 10.243,14.010 11.594,14.027 11.657 C 14.068 11.803,14.256 11.965,14.413 11.988 C 14.687 12.029,14.930 11.862,14.985 11.594 C 15.006 11.495,15.012 10.267,15.007 7.413 C 15.001 3.707,14.996 3.367,14.956 3.293 C 14.897 3.188,14.778 3.077,14.685 3.042 C 14.633 3.022,13.337 3.014,10.485 3.015 C 6.460 3.016,6.358 3.017,6.262 3.067 " stroke="none" fill-rule="evenodd"></path></svg>