<svg width="16" height="16" fill="currentColor" xmlns="http://www.w3.org/2000/svg"><path d="M3.796 0.051 C 3.553 0.162,3.115 0.877,3.024 1.311 C 2.946 1.683,3.086 2.094,3.467 2.613 C 3.776 3.036,3.940 3.290,3.973 3.403 C 4.003 3.503,4.000 3.522,3.923 3.675 C 3.877 3.765,3.769 3.947,3.682 4.078 C 3.508 4.343,3.470 4.475,3.521 4.633 C 3.595 4.861,3.772 4.993,4.003 4.993 C 4.203 4.993,4.329 4.905,4.511 4.640 C 4.693 4.375,4.880 4.021,4.948 3.813 C 5.083 3.406,4.942 2.939,4.507 2.347 C 4.210 1.943,4.054 1.701,4.023 1.597 C 3.986 1.475,4.037 1.354,4.280 0.983 C 4.484 0.671,4.527 0.544,4.483 0.381 C 4.400 0.079,4.077 -0.076,3.796 0.051 M6.851 0.024 C 6.710 0.070,6.627 0.152,6.446 0.426 C 6.222 0.766,6.154 0.896,6.067 1.157 C 5.914 1.614,6.039 2.045,6.512 2.680 C 6.831 3.109,6.964 3.326,6.979 3.438 C 6.995 3.555,6.924 3.710,6.704 4.043 C 6.537 4.297,6.507 4.367,6.507 4.507 C 6.507 4.729,6.646 4.910,6.867 4.975 C 6.986 5.009,7.018 5.009,7.135 4.974 C 7.296 4.927,7.383 4.840,7.586 4.526 C 7.862 4.100,7.998 3.757,7.999 3.484 C 8.001 3.136,7.847 2.804,7.408 2.209 C 7.121 1.819,7.013 1.634,7.013 1.530 C 7.013 1.432,7.143 1.176,7.340 0.883 C 7.451 0.719,7.479 0.655,7.488 0.542 C 7.503 0.362,7.421 0.183,7.281 0.091 C 7.173 0.019,6.965 -0.013,6.851 0.024 M9.796 0.051 C 9.553 0.162,9.115 0.877,9.024 1.311 C 8.946 1.683,9.086 2.094,9.467 2.613 C 9.776 3.036,9.940 3.290,9.973 3.403 C 10.003 3.503,10.000 3.522,9.923 3.675 C 9.877 3.765,9.769 3.947,9.682 4.078 C 9.508 4.343,9.470 4.475,9.521 4.633 C 9.595 4.860,9.772 4.993,10.000 4.993 C 10.197 4.993,10.324 4.910,10.491 4.673 C 10.663 4.431,10.880 4.021,10.948 3.813 C 11.082 3.405,10.942 2.939,10.507 2.347 C 10.210 1.943,10.054 1.701,10.023 1.597 C 9.986 1.475,10.037 1.354,10.280 0.983 C 10.484 0.671,10.527 0.544,10.483 0.381 C 10.400 0.079,10.077 -0.076,9.796 0.051 M0.306 6.050 C 0.153 6.120,0.034 6.266,0.012 6.412 C -0.003 6.514,0.129 7.143,0.840 10.339 C 1.305 12.433,1.718 14.237,1.758 14.349 C 1.868 14.660,2.043 14.942,2.288 15.203 C 2.626 15.562,3.010 15.792,3.493 15.924 L 3.720 15.987 7.000 15.987 L 10.280 15.987 10.507 15.924 C 10.933 15.807,11.304 15.603,11.596 15.323 C 12.039 14.899,12.243 14.502,12.401 13.757 L 12.461 13.473 12.870 13.487 C 13.324 13.502,13.565 13.475,13.907 13.368 C 14.737 13.107,15.424 12.492,15.765 11.702 C 15.957 11.256,15.986 11.096,15.986 10.480 C 15.985 9.959,15.982 9.922,15.911 9.693 C 15.754 9.181,15.438 8.657,15.094 8.338 C 14.766 8.034,14.365 7.792,13.985 7.668 L 13.769 7.597 13.888 7.065 C 14.024 6.451,14.024 6.353,13.885 6.195 C 13.839 6.142,13.752 6.076,13.694 6.050 C 13.591 6.003,13.314 6.001,7.000 6.001 C 0.686 6.001,0.409 6.003,0.306 6.050 M13.898 8.725 C 14.130 8.841,14.210 8.899,14.402 9.092 C 14.599 9.288,14.651 9.360,14.769 9.600 C 14.945 9.961,14.999 10.221,14.979 10.612 C 14.963 10.934,14.896 11.179,14.755 11.440 C 14.403 12.090,13.743 12.488,13.009 12.492 C 12.852 12.493,12.717 12.485,12.707 12.476 C 12.693 12.462,13.132 10.438,13.510 8.767 C 13.535 8.655,13.564 8.587,13.586 8.587 C 13.606 8.587,13.746 8.649,13.898 8.725 " stroke="none" fill-rule="evenodd"></path></svg>