<svg width="16" height="16" fill="currentColor" xmlns="http://www.w3.org/2000/svg"><path d="M9.827 2.016 C 7.357 2.209,5.748 3.516,5.212 5.762 C 5.159 5.988,5.109 6.200,5.103 6.233 C 5.092 6.293,5.091 6.293,4.546 6.293 L 4.000 6.293 4.000 6.760 L 4.000 7.227 4.507 7.227 L 5.013 7.227 5.013 7.867 L 5.013 8.507 4.507 8.507 L 4.000 8.507 4.000 8.960 L 4.000 9.413 4.530 9.413 L 5.060 9.413 5.078 9.553 C 5.119 9.870,5.234 10.370,5.345 10.706 C 5.855 12.256,6.951 13.313,8.507 13.756 C 9.147 13.939,9.542 13.987,10.373 13.985 C 10.936 13.984,11.118 13.973,11.427 13.925 C 11.632 13.893,11.845 13.854,11.900 13.839 L 12.000 13.811 12.000 13.162 L 12.000 12.514 11.847 12.549 C 11.288 12.679,10.116 12.722,9.587 12.631 C 8.744 12.487,8.119 12.174,7.599 11.636 C 7.240 11.264,6.989 10.860,6.801 10.349 C 6.733 10.165,6.617 9.726,6.577 9.500 L 6.561 9.413 8.574 9.413 L 10.587 9.413 10.587 8.960 L 10.587 8.507 8.547 8.507 L 6.507 8.507 6.507 7.867 L 6.507 7.227 8.547 7.227 L 10.587 7.227 10.587 6.760 L 10.587 6.293 8.602 6.293 L 6.618 6.293 6.657 6.127 C 6.770 5.644,7.032 5.067,7.306 4.696 C 7.842 3.973,8.609 3.533,9.613 3.372 C 10.187 3.280,11.506 3.342,11.953 3.482 C 11.997 3.496,12.000 3.454,12.000 2.846 L 12.000 2.194 11.793 2.150 C 11.382 2.063,11.017 2.025,10.493 2.015 C 10.200 2.010,9.900 2.010,9.827 2.016 " stroke="none" fill-rule="evenodd"></path></svg>