<svg width="16" height="16" fill="currentColor" xmlns="http://www.w3.org/2000/svg"><path d="M8.735 2.029 C 7.880 2.110,7.090 2.391,6.531 2.811 C 5.734 3.411,5.332 4.265,5.330 5.361 C 5.329 5.923,5.398 6.381,5.601 7.168 C 5.659 7.392,5.707 7.587,5.707 7.601 C 5.707 7.617,5.374 7.627,4.853 7.627 L 4.000 7.627 4.000 8.107 L 4.000 8.587 4.985 8.587 L 5.969 8.587 6.010 8.767 C 6.280 9.968,6.155 11.017,5.652 11.763 C 5.333 12.238,4.707 12.662,4.177 12.761 L 4.080 12.779 4.080 13.390 L 4.080 14.000 8.040 14.000 L 12.000 14.000 12.000 13.387 L 12.000 12.773 9.253 12.773 L 6.507 12.773 6.507 12.697 C 6.507 12.638,6.531 12.604,6.613 12.547 C 6.789 12.425,7.082 12.097,7.209 11.880 C 7.351 11.638,7.498 11.207,7.563 10.840 C 7.600 10.637,7.611 10.432,7.611 9.987 C 7.612 9.417,7.587 9.172,7.476 8.660 L 7.460 8.587 9.104 8.587 L 10.747 8.587 10.747 8.107 L 10.747 7.627 8.989 7.627 L 7.230 7.627 7.190 7.487 C 7.060 7.033,6.931 6.376,6.881 5.914 C 6.813 5.282,6.862 4.889,7.058 4.481 C 7.345 3.886,7.992 3.473,8.831 3.349 C 9.597 3.235,10.576 3.369,11.366 3.697 C 11.450 3.732,11.525 3.760,11.533 3.760 C 11.540 3.760,11.547 3.468,11.547 3.110 L 11.547 2.460 11.290 2.362 C 10.972 2.240,10.525 2.124,10.159 2.068 C 9.815 2.015,9.090 1.995,8.735 2.029 " stroke="none" fill-rule="evenodd"></path></svg>