<svg width="16" height="16" fill="currentColor" xmlns="http://www.w3.org/2000/svg"><path d="M1.669 0.028 C 0.992 0.142,0.371 0.651,0.135 1.283 C -0.006 1.659,0.001 1.324,0.000 7.994 C -0.000 14.784,-0.010 14.361,0.156 14.767 C 0.347 15.238,0.762 15.653,1.233 15.844 C 1.639 16.010,1.217 16.000,8.000 16.000 C 14.782 16.000,14.361 16.010,14.766 15.845 C 15.233 15.654,15.654 15.233,15.845 14.766 C 16.010 14.361,16.000 14.782,16.000 8.000 C 16.000 1.217,16.010 1.639,15.844 1.233 C 15.666 0.795,15.309 0.422,14.864 0.208 C 14.422 -0.005,15.102 0.015,8.080 0.010 C 4.626 0.008,1.741 0.016,1.669 0.028 M11.720 7.551 C 11.884 7.641,12.001 7.831,11.999 8.006 C 11.999 8.115,11.920 8.288,11.836 8.365 C 11.675 8.514,11.881 8.507,8.000 8.507 C 4.119 8.507,4.325 8.514,4.164 8.365 C 4.078 8.286,4.001 8.114,4.001 8.000 C 4.001 7.805,4.173 7.568,4.342 7.531 C 4.381 7.522,4.425 7.511,4.440 7.506 C 4.455 7.501,6.081 7.499,8.053 7.502 C 11.335 7.506,11.647 7.510,11.720 7.551 " stroke="none" fill-rule="evenodd"></path></svg>