<svg width="16" height="16" fill="currentColor" xmlns="http://www.w3.org/2000/svg"><path d="M6.973 1.044 C 4.685 1.240,2.851 2.044,2.248 3.115 C 2.070 3.432,2.018 3.627,2.015 3.987 C 2.013 4.349,2.060 4.539,2.231 4.853 C 2.828 5.952,4.611 6.742,6.987 6.963 C 7.700 7.029,8.871 6.997,9.640 6.891 C 11.721 6.605,13.284 5.815,13.808 4.785 C 13.940 4.524,13.986 4.321,13.986 4.000 C 13.986 3.750,13.975 3.659,13.925 3.509 C 13.810 3.165,13.644 2.901,13.377 2.633 C 12.520 1.776,10.943 1.206,8.973 1.041 C 8.596 1.009,7.355 1.011,6.973 1.044 M2.005 6.737 C 2.015 7.297,2.018 7.329,2.093 7.544 C 2.509 8.752,4.269 9.664,6.707 9.935 C 7.137 9.983,8.331 10.016,8.595 9.988 L 8.773 9.969 8.899 9.806 C 9.577 8.925,10.507 8.329,11.553 8.106 C 11.965 8.017,12.459 7.985,12.849 8.020 C 13.035 8.037,13.276 8.070,13.385 8.093 L 13.584 8.135 13.644 8.061 C 13.746 7.936,13.890 7.622,13.946 7.401 C 13.991 7.227,14.000 7.105,14.000 6.675 L 14.000 6.158 13.806 6.327 C 12.864 7.149,11.277 7.720,9.333 7.938 C 8.750 8.004,7.250 8.004,6.667 7.938 C 4.722 7.720,3.135 7.148,2.191 6.325 L 1.995 6.154 2.005 6.737 M11.907 9.053 C 11.169 9.189,10.552 9.510,10.026 10.031 C 8.634 11.410,8.668 13.693,10.102 15.045 C 10.737 15.644,11.624 16.000,12.485 16.000 C 14.008 16.001,15.352 15.029,15.824 13.587 C 15.936 13.243,15.975 13.024,15.990 12.627 C 16.015 12.018,15.906 11.512,15.627 10.947 C 15.137 9.950,14.185 9.239,13.095 9.056 C 12.793 9.005,12.174 9.003,11.907 9.053 M2.006 9.750 C 2.017 10.292,2.022 10.347,2.086 10.525 C 2.123 10.631,2.196 10.793,2.248 10.885 C 2.678 11.650,3.769 12.308,5.200 12.666 C 5.988 12.863,6.659 12.954,7.667 13.000 L 8.013 13.016 8.015 12.515 C 8.017 11.978,8.056 11.677,8.176 11.260 C 8.211 11.138,8.240 11.035,8.240 11.030 C 8.240 11.024,8.021 11.012,7.753 11.002 C 6.607 10.960,5.769 10.849,4.920 10.627 C 3.779 10.329,2.924 9.923,2.210 9.342 L 1.995 9.167 2.006 9.750 M12.688 10.041 C 12.800 10.087,14.374 11.639,14.446 11.773 C 14.502 11.878,14.501 12.123,14.445 12.230 C 14.367 12.381,14.165 12.506,14.000 12.506 C 13.836 12.506,13.740 12.441,13.385 12.091 C 13.187 11.894,13.016 11.733,13.005 11.733 C 12.995 11.733,12.987 12.381,12.987 13.172 C 12.987 14.123,12.977 14.635,12.958 14.685 C 12.927 14.769,12.814 14.896,12.734 14.940 C 12.493 15.070,12.164 14.960,12.051 14.710 C 12.004 14.607,12.001 14.509,12.001 13.161 L 12.000 11.723 11.659 12.060 C 11.199 12.516,11.057 12.577,10.785 12.440 C 10.622 12.358,10.529 12.228,10.513 12.056 C 10.489 11.805,10.506 11.781,11.330 10.951 C 12.062 10.213,12.243 10.049,12.360 10.020 C 12.466 9.993,12.590 10.001,12.688 10.041 M2.005 12.737 C 2.015 13.297,2.018 13.329,2.093 13.544 C 2.510 14.757,4.261 15.661,6.729 15.938 C 7.248 15.997,8.585 16.003,9.155 15.950 L 9.550 15.913 9.313 15.670 C 9.040 15.388,8.938 15.264,8.751 14.984 C 8.611 14.775,8.389 14.345,8.308 14.131 L 8.262 14.008 7.645 13.992 C 6.964 13.974,6.461 13.927,5.854 13.825 C 4.324 13.568,2.991 13.023,2.191 12.325 L 1.995 12.154 2.005 12.737 " stroke="none" fill-rule="evenodd"></path></svg>