<svg width="16" height="16" fill="currentColor" xmlns="http://www.w3.org/2000/svg"><path d="M6.973 1.044 C 4.685 1.240,2.851 2.044,2.248 3.115 C 2.070 3.432,2.018 3.627,2.015 3.987 C 2.013 4.349,2.060 4.539,2.231 4.853 C 2.828 5.952,4.611 6.742,6.987 6.963 C 7.700 7.029,8.871 6.997,9.640 6.891 C 11.721 6.605,13.284 5.815,13.808 4.785 C 13.940 4.524,13.986 4.321,13.986 4.000 C 13.986 3.750,13.975 3.659,13.925 3.509 C 13.810 3.165,13.644 2.901,13.377 2.633 C 12.520 1.776,10.943 1.206,8.973 1.041 C 8.596 1.009,7.355 1.011,6.973 1.044 M2.005 6.737 C 2.015 7.297,2.018 7.329,2.093 7.544 C 2.509 8.752,4.269 9.664,6.707 9.935 C 7.136 9.983,8.331 10.017,8.594 9.988 L 8.772 9.969 8.953 9.738 C 9.221 9.394,9.497 9.134,9.978 8.773 C 10.798 8.157,11.261 8.000,12.253 8.001 C 12.739 8.001,13.088 8.029,13.394 8.093 L 13.585 8.133 13.645 8.060 C 13.746 7.936,13.890 7.621,13.946 7.401 C 13.991 7.227,14.000 7.105,14.000 6.675 L 14.000 6.158 13.806 6.327 C 13.009 7.022,11.675 7.568,10.146 7.825 C 9.359 7.957,8.988 7.985,8.000 7.985 C 7.012 7.985,6.641 7.957,5.854 7.825 C 4.325 7.568,2.990 7.022,2.191 6.325 L 1.995 6.154 2.005 6.737 M11.554 9.052 C 10.862 9.209,10.311 9.728,10.079 10.440 C 10.023 10.610,10.017 10.689,10.006 11.309 L 9.995 11.992 9.835 12.021 C 9.407 12.101,9.093 12.413,9.016 12.838 C 8.977 13.050,8.977 14.950,9.016 15.162 C 9.076 15.490,9.293 15.771,9.600 15.917 L 9.747 15.987 12.000 15.987 L 14.253 15.987 14.400 15.917 C 14.707 15.771,14.924 15.490,14.984 15.162 C 15.023 14.950,15.023 13.050,14.984 12.838 C 14.907 12.413,14.593 12.101,14.165 12.021 L 14.005 11.992 13.993 11.309 C 13.982 10.696,13.974 10.608,13.921 10.440 C 13.710 9.779,13.215 9.285,12.559 9.080 C 12.359 9.017,11.777 9.001,11.554 9.052 M2.006 9.750 C 2.017 10.292,2.022 10.347,2.086 10.525 C 2.123 10.631,2.196 10.793,2.248 10.885 C 2.678 11.650,3.769 12.308,5.200 12.666 C 5.985 12.862,6.653 12.953,7.656 13.000 L 7.992 13.015 8.008 12.501 C 8.024 11.962,8.068 11.633,8.176 11.260 C 8.211 11.138,8.240 11.035,8.240 11.030 C 8.240 11.024,8.021 11.012,7.753 11.002 C 6.607 10.960,5.769 10.849,4.920 10.627 C 3.783 10.330,2.922 9.922,2.210 9.342 L 1.995 9.167 2.006 9.750 M12.347 10.066 C 12.609 10.158,12.829 10.380,12.932 10.657 C 12.981 10.787,12.987 10.864,12.987 11.401 L 12.987 12.000 12.000 12.000 L 11.013 12.000 11.013 11.401 C 11.013 10.859,11.019 10.788,11.069 10.653 C 11.223 10.243,11.622 9.982,12.053 10.012 C 12.149 10.018,12.281 10.043,12.347 10.066 M2.005 12.737 C 2.015 13.297,2.018 13.329,2.093 13.544 C 2.373 14.357,3.302 15.073,4.636 15.504 C 5.566 15.805,6.539 15.961,7.674 15.992 L 8.268 16.008 8.188 15.837 C 8.037 15.512,8.020 15.404,8.007 14.677 L 7.995 14.008 7.524 13.992 C 5.309 13.914,3.290 13.283,2.191 12.325 L 1.995 12.154 2.005 12.737 " stroke="none" fill-rule="evenodd"></path></svg>