<svg width="16" height="16" fill="currentColor" xmlns="http://www.w3.org/2000/svg"><path d="M6.973 1.044 C 5.198 1.196,3.694 1.707,2.803 2.462 C 2.465 2.748,2.226 3.084,2.083 3.475 L 2.013 3.667 2.013 8.480 L 2.013 13.293 2.091 13.529 C 2.581 15.026,5.198 16.067,8.279 15.992 C 9.255 15.968,10.024 15.867,10.845 15.654 C 12.489 15.227,13.607 14.451,13.909 13.529 L 13.987 13.293 13.987 8.493 L 13.987 3.693 13.925 3.509 C 13.810 3.165,13.644 2.900,13.377 2.633 C 12.520 1.776,10.943 1.206,8.973 1.041 C 8.596 1.009,7.355 1.011,6.973 1.044 M8.733 2.027 C 10.504 2.144,11.986 2.641,12.679 3.352 C 13.096 3.778,13.093 4.226,12.671 4.658 C 11.839 5.511,9.866 6.044,7.733 5.992 C 6.644 5.965,5.776 5.827,4.920 5.543 C 4.219 5.310,3.683 5.014,3.347 4.675 C 2.910 4.234,2.898 3.792,3.312 3.359 C 4.193 2.437,6.469 1.878,8.733 2.027 M3.493 6.014 C 4.347 6.498,5.578 6.832,6.987 6.963 C 7.700 7.029,8.871 6.997,9.640 6.891 C 10.918 6.715,12.040 6.340,12.793 5.837 L 12.987 5.707 12.987 6.434 L 12.987 7.160 12.910 7.321 C 12.598 7.982,11.367 8.593,9.827 8.851 C 8.666 9.046,7.325 9.046,6.173 8.852 C 4.630 8.591,3.402 7.982,3.090 7.321 L 3.013 7.160 3.013 6.433 L 3.013 5.706 3.127 5.789 C 3.189 5.834,3.354 5.935,3.493 6.014 M3.399 8.956 C 4.927 9.882,7.671 10.241,10.052 9.826 C 11.098 9.644,12.047 9.309,12.720 8.885 L 12.973 8.725 12.980 9.449 L 12.988 10.173 12.908 10.335 C 12.562 11.038,11.224 11.658,9.547 11.894 C 8.468 12.045,7.218 12.030,6.173 11.852 C 5.197 11.686,4.293 11.367,3.726 10.987 C 3.450 10.803,3.195 10.541,3.094 10.340 L 3.013 10.178 3.013 9.446 L 3.013 8.714 3.087 8.763 C 3.127 8.789,3.267 8.877,3.399 8.956 M3.484 12.011 C 4.320 12.489,5.586 12.833,6.987 12.963 C 7.700 13.029,8.871 12.997,9.640 12.891 C 10.932 12.713,12.183 12.287,12.860 11.794 L 12.987 11.702 12.987 12.431 L 12.987 13.160 12.910 13.321 C 12.598 13.982,11.367 14.593,9.827 14.851 C 8.666 15.046,7.325 15.046,6.173 14.852 C 4.630 14.591,3.402 13.982,3.090 13.321 L 3.013 13.160 3.013 12.433 L 3.013 11.707 3.140 11.797 C 3.210 11.846,3.365 11.942,3.484 12.011 " stroke="none" fill-rule="evenodd"></path></svg>