<svg width="16" height="16" fill="currentColor" xmlns="http://www.w3.org/2000/svg"><path d="M6.973 1.044 C 5.198 1.196,3.694 1.707,2.803 2.462 C 2.465 2.748,2.226 3.084,2.083 3.475 L 2.013 3.667 2.013 8.480 L 2.013 13.293 2.091 13.529 C 2.473 14.696,4.142 15.602,6.467 15.905 C 7.270 16.009,8.375 16.025,9.207 15.945 L 9.547 15.912 9.300 15.656 C 9.164 15.515,8.984 15.308,8.901 15.196 L 8.748 14.993 8.034 14.993 C 7.287 14.994,6.793 14.956,6.173 14.852 C 4.630 14.591,3.402 13.982,3.090 13.321 L 3.013 13.160 3.013 12.433 L 3.013 11.707 3.140 11.797 C 3.734 12.218,4.716 12.589,5.787 12.797 C 6.342 12.905,6.899 12.965,7.667 13.000 L 8.013 13.016 8.013 12.512 L 8.013 12.008 7.560 11.991 C 6.592 11.955,5.713 11.806,4.920 11.543 C 3.990 11.234,3.316 10.789,3.093 10.337 L 3.012 10.173 3.020 9.449 L 3.027 8.725 3.280 8.885 C 4.395 9.588,6.143 10.000,8.015 10.000 C 8.773 10.000,8.745 10.007,8.934 9.759 C 9.123 9.511,9.444 9.183,9.674 9.003 C 9.765 8.931,9.836 8.867,9.830 8.861 C 9.824 8.855,9.749 8.862,9.663 8.878 C 8.723 9.045,7.251 9.034,6.173 8.852 C 4.630 8.591,3.402 7.982,3.090 7.321 L 3.013 7.160 3.013 6.433 L 3.013 5.706 3.127 5.789 C 3.581 6.119,4.403 6.466,5.200 6.666 C 6.138 6.900,6.936 6.994,8.000 6.994 C 8.374 6.994,8.830 6.980,9.013 6.963 C 10.601 6.816,11.914 6.424,12.793 5.837 L 12.987 5.707 12.987 6.434 L 12.987 7.160 12.911 7.320 C 12.820 7.510,12.631 7.727,12.423 7.881 L 12.272 7.992 12.649 8.009 C 13.062 8.027,13.335 8.069,13.724 8.172 C 13.864 8.210,13.983 8.240,13.990 8.240 C 13.996 8.240,13.998 7.211,13.994 5.953 L 13.986 3.667 13.924 3.494 C 13.799 3.149,13.636 2.892,13.377 2.633 C 12.520 1.776,10.943 1.206,8.973 1.041 C 8.596 1.009,7.355 1.011,6.973 1.044 M8.733 2.027 C 10.504 2.144,11.986 2.641,12.679 3.352 C 13.096 3.778,13.093 4.226,12.671 4.658 C 11.839 5.511,9.866 6.044,7.733 5.992 C 6.644 5.965,5.776 5.827,4.920 5.543 C 4.219 5.310,3.683 5.014,3.347 4.675 C 2.910 4.234,2.898 3.792,3.312 3.359 C 4.193 2.437,6.469 1.878,8.733 2.027 M11.907 9.053 C 11.169 9.189,10.552 9.510,10.026 10.031 C 8.634 11.410,8.668 13.693,10.102 15.045 C 10.737 15.644,11.624 16.000,12.485 16.000 C 14.008 16.001,15.352 15.029,15.824 13.587 C 15.936 13.243,15.975 13.024,15.990 12.627 C 16.015 12.018,15.906 11.512,15.627 10.947 C 15.137 9.950,14.185 9.239,13.095 9.056 C 12.793 9.005,12.174 9.003,11.907 9.053 M12.687 10.041 C 12.813 10.094,12.874 10.150,12.936 10.272 C 12.984 10.366,12.987 10.451,12.987 11.830 L 12.987 13.289 13.344 12.938 C 13.541 12.744,13.745 12.568,13.797 12.546 C 14.045 12.443,14.320 12.544,14.446 12.786 C 14.502 12.892,14.499 13.112,14.441 13.227 C 14.388 13.330,12.951 14.789,12.795 14.897 C 12.665 14.987,12.537 15.013,12.381 14.981 C 12.260 14.956,12.210 14.912,11.431 14.137 C 10.979 13.688,10.586 13.275,10.558 13.221 C 10.394 12.905,10.633 12.507,10.986 12.507 C 11.177 12.507,11.278 12.573,11.647 12.941 L 12.000 13.293 12.000 11.859 C 12.000 10.625,12.006 10.411,12.041 10.326 C 12.096 10.194,12.178 10.110,12.307 10.050 C 12.437 9.990,12.557 9.987,12.687 10.041 " stroke="none" fill-rule="evenodd"></path></svg>