<svg width="16" height="16" fill="currentColor" xmlns="http://www.w3.org/2000/svg"><path d="M3.669 0.028 C 2.991 0.143,2.371 0.651,2.135 1.283 C 1.994 1.659,2.001 1.324,2.000 7.994 C 2.000 14.784,1.990 14.361,2.156 14.767 C 2.347 15.238,2.762 15.653,3.233 15.844 C 3.633 16.007,3.415 16.000,8.000 16.000 C 12.584 16.000,12.367 16.007,12.766 15.845 C 13.233 15.654,13.654 15.233,13.845 14.766 C 14.010 14.361,14.000 14.782,14.000 8.000 C 14.000 1.217,14.010 1.639,13.844 1.233 C 13.666 0.795,13.309 0.422,12.864 0.208 C 12.426 -0.003,12.861 0.015,8.080 0.010 C 5.726 0.008,3.741 0.016,3.669 0.028 M12.430 1.100 C 12.608 1.188,12.833 1.416,12.915 1.593 L 12.973 1.720 12.980 7.946 C 12.988 14.846,13.001 14.319,12.811 14.576 C 12.691 14.738,12.526 14.866,12.341 14.942 L 12.200 15.000 8.000 15.000 L 3.800 15.000 3.659 14.942 C 3.381 14.828,3.152 14.596,3.063 14.338 C 3.018 14.207,3.015 13.881,3.015 8.000 C 3.015 2.119,3.018 1.793,3.063 1.662 C 3.154 1.399,3.399 1.154,3.662 1.062 C 3.793 1.017,4.025 1.015,8.040 1.021 L 12.280 1.027 12.430 1.100 M4.306 2.050 C 3.974 2.201,3.901 2.609,4.161 2.858 C 4.257 2.949,4.461 3.025,4.544 3.000 C 4.560 2.995,4.606 2.984,4.646 2.975 C 4.727 2.957,4.893 2.823,4.939 2.737 C 5.070 2.492,4.961 2.165,4.710 2.051 C 4.571 1.988,4.443 1.988,4.306 2.050 M11.290 2.051 C 11.039 2.165,10.930 2.492,11.061 2.737 C 11.107 2.823,11.273 2.957,11.354 2.975 C 11.394 2.984,11.440 2.995,11.456 3.000 C 11.472 3.005,11.542 2.997,11.611 2.982 C 11.961 2.907,12.117 2.459,11.885 2.195 C 11.724 2.011,11.498 1.956,11.290 2.051 M7.373 3.051 C 6.514 3.194,5.793 3.566,5.172 4.186 C 4.432 4.923,4.047 5.815,4.009 6.880 C 3.996 7.227,4.003 7.346,4.050 7.624 C 4.192 8.451,4.549 9.172,5.102 9.751 C 5.344 10.005,5.711 10.300,5.960 10.441 C 6.130 10.537,6.127 10.533,6.079 10.560 C 5.939 10.638,5.431 11.021,5.318 11.133 C 4.901 11.547,4.895 12.216,5.305 12.649 C 5.472 12.826,5.650 12.924,5.893 12.975 C 6.099 13.018,6.224 13.008,6.467 12.931 C 6.794 12.826,6.950 12.653,7.653 11.610 C 7.928 11.203,8.070 11.015,8.112 11.004 C 8.146 10.995,8.228 10.987,8.295 10.987 C 8.659 10.986,9.358 10.793,9.796 10.572 C 10.710 10.110,11.440 9.280,11.771 8.324 C 11.944 7.824,11.985 7.573,11.984 7.000 C 11.983 6.581,11.973 6.447,11.925 6.223 C 11.580 4.622,10.399 3.434,8.800 3.079 C 8.529 3.019,7.667 3.002,7.373 3.051 M8.373 4.028 C 9.066 4.117,9.738 4.464,10.205 4.973 C 10.563 5.362,10.826 5.878,10.934 6.400 C 11.011 6.771,10.998 7.383,10.906 7.733 C 10.652 8.705,9.924 9.505,9.001 9.826 C 8.899 9.861,8.811 9.886,8.806 9.882 C 8.801 9.877,8.924 9.680,9.078 9.443 C 9.406 8.940,9.440 8.879,9.440 8.786 C 9.440 8.693,9.306 8.560,9.214 8.560 C 9.119 8.560,9.154 8.539,8.062 9.245 L 7.098 9.868 6.860 9.773 C 6.023 9.438,5.343 8.662,5.100 7.765 C 5.035 7.529,5.029 7.464,5.029 7.000 C 5.029 6.538,5.035 6.471,5.098 6.240 C 5.494 4.785,6.898 3.837,8.373 4.028 M7.734 6.043 C 7.363 6.143,7.088 6.447,7.016 6.840 C 6.937 7.267,7.184 7.722,7.600 7.916 C 7.725 7.974,7.784 7.984,8.000 7.984 C 8.216 7.984,8.275 7.974,8.400 7.916 C 8.816 7.722,9.063 7.267,8.984 6.840 C 8.911 6.441,8.636 6.141,8.254 6.041 C 8.061 5.991,7.926 5.991,7.734 6.043 M4.262 13.067 C 4.072 13.168,3.979 13.364,4.013 13.590 C 4.028 13.696,4.055 13.742,4.156 13.844 C 4.258 13.945,4.304 13.972,4.410 13.987 C 4.822 14.049,5.134 13.625,4.940 13.266 C 4.896 13.186,4.769 13.073,4.685 13.042 C 4.569 12.998,4.371 13.010,4.262 13.067 M11.293 13.044 C 11.072 13.167,10.969 13.380,11.019 13.614 C 11.072 13.864,11.323 14.028,11.590 13.987 C 11.696 13.972,11.742 13.945,11.844 13.844 C 11.945 13.742,11.972 13.696,11.987 13.590 C 12.036 13.264,11.818 13.012,11.488 13.014 C 11.410 13.015,11.323 13.028,11.293 13.044 " stroke="none" fill-rule="evenodd"></path></svg>