<svg width="16" height="16" fill="currentColor" xmlns="http://www.w3.org/2000/svg"><path d="M3.669 0.028 C 2.991 0.143,2.371 0.651,2.135 1.283 C 1.994 1.659,2.001 1.324,2.000 7.994 C 2.000 14.784,1.990 14.361,2.156 14.767 C 2.347 15.238,2.762 15.653,3.233 15.844 C 3.633 16.007,3.415 16.000,8.000 16.000 C 12.584 16.000,12.367 16.007,12.766 15.845 C 13.233 15.654,13.654 15.233,13.845 14.766 C 14.010 14.361,14.000 14.782,14.000 8.000 C 14.000 1.217,14.010 1.639,13.844 1.233 C 13.666 0.795,13.309 0.422,12.864 0.208 C 12.426 -0.003,12.861 0.015,8.080 0.010 C 5.726 0.008,3.741 0.016,3.669 0.028 M12.430 1.100 C 12.608 1.188,12.833 1.416,12.915 1.593 L 12.973 1.720 12.980 7.946 C 12.988 14.846,13.001 14.319,12.811 14.576 C 12.639 14.809,12.388 14.959,12.114 14.994 L 12.002 15.008 11.994 13.884 L 11.987 12.760 11.912 12.600 C 11.814 12.390,11.609 12.184,11.403 12.089 L 11.240 12.013 8.000 12.013 L 4.760 12.013 4.587 12.097 C 4.366 12.203,4.201 12.367,4.096 12.587 L 4.013 12.760 4.006 13.884 L 3.998 15.008 3.886 14.994 C 3.518 14.947,3.180 14.678,3.063 14.338 C 3.018 14.207,3.015 13.881,3.015 8.000 C 3.015 2.119,3.018 1.793,3.063 1.662 C 3.154 1.399,3.399 1.154,3.662 1.062 C 3.793 1.017,4.025 1.015,8.040 1.021 L 12.280 1.027 12.430 1.100 M4.306 2.050 C 3.974 2.201,3.901 2.609,4.161 2.858 C 4.257 2.949,4.461 3.025,4.544 3.000 C 4.560 2.995,4.606 2.984,4.646 2.975 C 4.727 2.957,4.893 2.823,4.939 2.737 C 5.070 2.492,4.961 2.165,4.710 2.051 C 4.571 1.988,4.443 1.988,4.306 2.050 M11.290 2.051 C 11.039 2.165,10.930 2.492,11.061 2.737 C 11.107 2.823,11.273 2.957,11.354 2.975 C 11.394 2.984,11.440 2.995,11.456 3.000 C 11.472 3.005,11.542 2.997,11.611 2.982 C 11.961 2.907,12.117 2.459,11.885 2.195 C 11.724 2.011,11.498 1.956,11.290 2.051 M4.525 4.038 C 4.380 4.090,4.229 4.197,4.147 4.304 C 4.000 4.497,4.000 4.491,4.000 6.510 C 4.000 8.314,4.002 8.376,4.054 8.512 C 4.145 8.749,4.322 8.907,4.573 8.972 C 4.711 9.008,5.141 9.013,8.000 9.013 C 10.859 9.013,11.289 9.008,11.427 8.972 C 11.678 8.907,11.855 8.749,11.946 8.512 C 11.998 8.376,12.000 8.314,12.000 6.511 C 12.000 4.451,12.002 4.479,11.830 4.278 C 11.780 4.219,11.675 4.136,11.596 4.092 L 11.453 4.013 8.040 4.008 C 5.216 4.003,4.609 4.008,4.525 4.038 M10.987 6.507 L 10.987 8.000 8.000 8.000 L 5.013 8.000 5.013 6.507 L 5.013 5.013 8.000 5.013 L 10.987 5.013 10.987 6.507 M4.306 10.050 C 3.974 10.201,3.901 10.609,4.161 10.858 C 4.257 10.949,4.461 11.025,4.544 11.000 C 4.560 10.995,4.606 10.984,4.646 10.975 C 4.727 10.957,4.893 10.823,4.939 10.737 C 5.070 10.492,4.961 10.165,4.710 10.051 C 4.571 9.988,4.443 9.988,4.306 10.050 M11.290 10.051 C 11.039 10.165,10.930 10.492,11.061 10.737 C 11.107 10.823,11.273 10.957,11.354 10.975 C 11.394 10.984,11.440 10.995,11.456 11.000 C 11.472 11.005,11.542 10.997,11.611 10.982 C 11.961 10.907,12.117 10.459,11.885 10.195 C 11.724 10.011,11.498 9.956,11.290 10.051 M5.754 14.007 L 5.747 15.000 5.380 15.007 L 5.013 15.015 5.013 14.014 L 5.013 13.013 5.387 13.013 L 5.761 13.013 5.754 14.007 M7.493 14.014 L 7.493 15.015 7.127 15.007 L 6.760 15.000 6.753 14.007 L 6.746 13.013 7.120 13.013 L 7.493 13.013 7.493 14.014 M9.253 14.013 L 9.253 15.013 8.880 15.013 L 8.507 15.013 8.507 14.013 L 8.507 13.013 8.880 13.013 L 9.253 13.013 9.253 14.013 M10.987 14.013 L 10.987 15.013 10.627 15.013 L 10.267 15.013 10.267 14.013 L 10.267 13.013 10.627 13.013 L 10.987 13.013 10.987 14.013 " stroke="none" fill-rule="evenodd"></path></svg>