<svg width="16" height="16" fill="currentColor" xmlns="http://www.w3.org/2000/svg"><path d="M2.528 0.041 C 1.268 0.238,0.261 1.236,0.043 2.505 C 0.004 2.730,0.000 3.290,0.000 8.000 C 0.000 12.710,0.004 13.270,0.043 13.495 C 0.260 14.758,1.242 15.740,2.505 15.957 C 2.730 15.996,3.290 16.000,8.000 16.000 C 12.710 16.000,13.270 15.996,13.495 15.957 C 14.758 15.740,15.740 14.758,15.957 13.495 C 15.996 13.270,16.000 12.710,16.000 8.000 C 16.000 2.214,16.009 2.522,15.834 2.027 C 15.670 1.563,15.450 1.214,15.104 0.870 C 14.654 0.423,14.080 0.135,13.448 0.040 C 13.075 -0.017,2.890 -0.015,2.528 0.041 M8.510 6.595 C 8.943 6.759,9.235 7.049,9.406 7.486 C 9.470 7.647,9.477 7.702,9.477 8.000 C 9.477 8.298,9.470 8.353,9.406 8.514 C 9.168 9.120,8.632 9.493,8.000 9.493 C 7.368 9.493,6.832 9.120,6.594 8.514 C 6.530 8.353,6.523 8.298,6.523 8.000 C 6.523 7.704,6.531 7.647,6.592 7.490 C 6.790 6.986,7.186 6.642,7.693 6.532 C 7.894 6.489,8.315 6.521,8.510 6.595 " stroke="none" fill-rule="evenodd"></path></svg>