<svg width="16" height="16" fill="currentColor" xmlns="http://www.w3.org/2000/svg"><path d="M2.528 0.041 C 1.268 0.238,0.261 1.236,0.043 2.505 C 0.004 2.730,0.000 3.290,0.000 8.000 C 0.000 12.710,0.004 13.270,0.043 13.495 C 0.260 14.758,1.242 15.740,2.505 15.957 C 2.730 15.996,3.290 16.000,8.000 16.000 C 12.710 16.000,13.270 15.996,13.495 15.957 C 14.758 15.740,15.740 14.758,15.957 13.495 C 15.996 13.270,16.000 12.710,16.000 8.000 C 16.000 2.214,16.009 2.522,15.834 2.027 C 15.670 1.563,15.450 1.214,15.104 0.870 C 14.654 0.423,14.080 0.135,13.448 0.040 C 13.075 -0.017,2.890 -0.015,2.528 0.041 M4.510 2.595 C 4.943 2.759,5.235 3.049,5.406 3.486 C 5.470 3.647,5.477 3.702,5.477 4.000 C 5.477 4.298,5.470 4.353,5.406 4.514 C 5.168 5.120,4.632 5.493,4.000 5.493 C 3.368 5.493,2.832 5.120,2.594 4.514 C 2.530 4.353,2.523 4.298,2.523 4.000 C 2.523 3.704,2.531 3.647,2.592 3.490 C 2.790 2.986,3.186 2.642,3.693 2.532 C 3.894 2.489,4.315 2.521,4.510 2.595 M8.510 6.595 C 8.943 6.759,9.235 7.049,9.406 7.486 C 9.470 7.647,9.477 7.702,9.477 8.000 C 9.477 8.298,9.470 8.353,9.406 8.514 C 9.168 9.120,8.632 9.493,8.000 9.493 C 7.368 9.493,6.832 9.120,6.594 8.514 C 6.530 8.353,6.523 8.298,6.523 8.000 C 6.523 7.704,6.531 7.647,6.592 7.490 C 6.790 6.986,7.186 6.642,7.693 6.532 C 7.894 6.489,8.315 6.521,8.510 6.595 M12.510 10.595 C 12.943 10.759,13.235 11.049,13.406 11.486 C 13.470 11.647,13.477 11.702,13.477 12.000 C 13.477 12.298,13.470 12.353,13.406 12.514 C 13.168 13.120,12.632 13.493,12.000 13.493 C 11.368 13.493,10.832 13.120,10.594 12.514 C 10.530 12.353,10.523 12.298,10.523 12.000 C 10.523 11.704,10.531 11.647,10.592 11.490 C 10.790 10.986,11.186 10.642,11.693 10.532 C 11.894 10.489,12.315 10.521,12.510 10.595 " stroke="none" fill-rule="evenodd"></path></svg>