<svg width="16" height="16" fill="currentColor" xmlns="http://www.w3.org/2000/svg"><path d="M5.240 1.989 C 4.397 2.168,3.597 2.420,2.799 2.757 L 2.438 2.909 2.248 3.208 C 1.088 5.024,0.391 6.864,0.122 8.813 C 0.034 9.456,0.014 9.771,0.014 10.573 C 0.013 11.637,0.038 12.010,0.114 12.081 C 0.285 12.240,1.135 12.783,1.675 13.077 C 2.445 13.497,3.983 14.123,4.118 14.071 C 4.229 14.028,4.998 12.747,4.944 12.694 C 4.931 12.681,4.788 12.615,4.627 12.546 C 4.161 12.348,3.653 12.079,3.653 12.030 C 3.653 12.017,3.719 11.956,3.800 11.893 L 3.947 11.780 4.167 11.875 C 6.688 12.956,9.367 12.954,11.835 11.869 C 11.942 11.822,12.038 11.787,12.049 11.792 C 12.059 11.796,12.124 11.842,12.194 11.893 C 12.278 11.956,12.317 12.004,12.313 12.038 C 12.306 12.099,11.723 12.406,11.300 12.573 C 11.124 12.643,11.040 12.689,11.040 12.718 C 11.040 12.836,11.820 14.079,11.894 14.080 C 11.917 14.080,12.091 14.028,12.281 13.964 C 13.420 13.580,14.463 13.060,15.482 12.369 C 15.977 12.034,15.937 12.090,15.964 11.688 C 15.997 11.188,15.989 9.797,15.951 9.427 C 15.712 7.112,15.024 5.178,13.728 3.173 C 13.648 3.049,13.565 2.933,13.544 2.917 C 13.470 2.858,12.801 2.588,12.336 2.429 C 11.771 2.236,11.229 2.087,10.672 1.972 C 10.277 1.891,10.262 1.890,10.226 1.937 C 10.206 1.964,10.108 2.159,10.008 2.369 L 9.827 2.751 9.693 2.735 C 8.979 2.648,8.705 2.632,8.000 2.632 C 7.296 2.632,6.990 2.650,6.307 2.736 L 6.173 2.752 6.029 2.441 C 5.862 2.080,5.749 1.892,5.701 1.896 C 5.682 1.897,5.475 1.939,5.240 1.989 M5.586 7.015 C 6.136 7.117,6.596 7.583,6.736 8.180 C 6.794 8.427,6.775 8.907,6.697 9.147 C 6.493 9.779,5.942 10.214,5.348 10.213 C 4.992 10.212,4.685 10.075,4.397 9.789 C 4.072 9.465,3.921 9.087,3.920 8.598 C 3.920 8.144,4.065 7.759,4.354 7.449 C 4.702 7.077,5.121 6.929,5.586 7.015 M10.941 7.026 C 11.451 7.134,11.895 7.581,12.041 8.133 C 12.103 8.365,12.104 8.809,12.044 9.040 C 11.966 9.341,11.825 9.591,11.616 9.799 C 11.058 10.352,10.274 10.353,9.720 9.800 C 9.382 9.463,9.242 9.111,9.242 8.600 C 9.242 8.095,9.382 7.738,9.710 7.407 C 10.054 7.059,10.478 6.928,10.941 7.026 " stroke="none" fill-rule="evenodd"></path></svg>