<svg width="16" height="16" fill="currentColor" xmlns="http://www.w3.org/2000/svg"><path d="M7.467 0.017 C 5.118 0.192,3.024 1.327,1.608 3.193 C 0.799 4.260,0.296 5.477,0.073 6.906 C -0.009 7.429,-0.009 8.571,0.073 9.094 C 0.415 11.288,1.476 13.089,3.195 14.393 C 4.257 15.199,5.481 15.705,6.906 15.927 C 7.429 16.009,8.571 16.009,9.094 15.927 C 11.038 15.624,12.690 14.748,13.930 13.362 C 15.030 12.133,15.665 10.775,15.927 9.094 C 16.009 8.571,16.009 7.429,15.927 6.906 C 15.705 5.481,15.199 4.257,14.393 3.195 C 13.070 1.452,11.180 0.355,9.000 0.066 C 8.688 0.025,7.760 -0.005,7.467 0.017 M9.040 1.078 C 11.831 1.511,14.104 3.571,14.781 6.281 C 14.942 6.924,14.973 7.204,14.973 8.000 C 14.973 8.555,14.962 8.775,14.924 9.027 C 14.474 11.939,12.308 14.238,9.437 14.850 C 8.548 15.040,7.452 15.040,6.563 14.850 C 3.952 14.294,1.876 12.308,1.227 9.747 C 1.059 9.083,1.027 8.807,1.027 8.000 C 1.027 7.193,1.059 6.917,1.227 6.253 C 1.847 3.807,3.806 1.848,6.253 1.227 C 6.473 1.171,6.797 1.106,6.973 1.083 C 7.149 1.059,7.329 1.035,7.373 1.029 C 7.574 1.002,8.774 1.037,9.040 1.078 M7.440 3.032 C 7.201 3.057,6.733 3.159,6.467 3.245 C 4.535 3.865,3.170 5.603,3.015 7.640 C 3.000 7.841,2.999 8.029,3.012 8.088 C 3.101 8.479,3.533 8.628,3.827 8.369 C 3.947 8.264,3.993 8.120,4.011 7.798 C 4.042 7.248,4.162 6.768,4.385 6.303 C 4.802 5.433,5.433 4.802,6.303 4.385 C 6.768 4.162,7.248 4.042,7.798 4.011 C 8.120 3.993,8.264 3.947,8.369 3.827 C 8.576 3.592,8.531 3.255,8.270 3.090 C 8.154 3.016,8.138 3.013,7.841 3.018 C 7.672 3.020,7.491 3.026,7.440 3.032 M7.669 6.026 C 7.219 6.108,6.771 6.367,6.469 6.720 C 5.991 7.278,5.871 8.067,6.156 8.767 C 6.347 9.238,6.762 9.653,7.233 9.844 C 7.993 10.153,8.834 9.986,9.410 9.410 C 10.159 8.661,10.197 7.475,9.497 6.680 C 9.265 6.416,8.851 6.160,8.504 6.065 C 8.327 6.016,7.847 5.994,7.669 6.026 M12.440 7.506 C 12.425 7.511,12.381 7.523,12.340 7.531 C 12.231 7.555,12.089 7.695,12.044 7.821 C 12.022 7.883,11.996 8.059,11.987 8.212 C 11.942 8.955,11.723 9.619,11.324 10.217 C 10.626 11.262,9.461 11.929,8.227 11.989 C 7.882 12.006,7.738 12.051,7.631 12.173 C 7.372 12.467,7.521 12.899,7.912 12.988 C 7.971 13.001,8.159 13.000,8.360 12.985 C 10.114 12.852,11.656 11.827,12.450 10.266 C 12.758 9.660,12.937 9.020,12.984 8.353 C 13.011 7.980,12.998 7.867,12.911 7.727 C 12.830 7.596,12.557 7.468,12.440 7.506 " stroke="none" fill-rule="evenodd"></path></svg>