<svg width="16" height="16" fill="currentColor" xmlns="http://www.w3.org/2000/svg"><path d="M1.266 1.063 C 1.161 1.127,1.046 1.264,1.020 1.355 C 0.994 1.449,0.994 14.552,1.020 14.646 C 1.044 14.730,1.181 14.894,1.263 14.939 C 1.508 15.070,1.835 14.961,1.949 14.710 C 1.997 14.604,1.999 14.389,1.999 8.006 C 2.000 0.901,2.008 1.315,1.872 1.165 C 1.739 1.017,1.427 0.965,1.266 1.063 M14.280 1.058 C 14.156 1.123,14.103 1.177,14.050 1.293 C 14.003 1.396,14.001 1.652,14.001 8.000 C 14.001 14.389,14.003 14.604,14.051 14.710 C 14.165 14.961,14.492 15.070,14.737 14.939 C 14.819 14.894,14.956 14.730,14.980 14.646 C 15.006 14.551,15.006 1.449,14.980 1.354 C 14.951 1.253,14.805 1.093,14.701 1.049 C 14.586 1.001,14.379 1.005,14.280 1.058 M6.767 2.028 C 6.485 2.097,6.229 2.310,6.096 2.587 L 6.013 2.760 6.013 8.000 L 6.013 13.240 6.088 13.400 C 6.186 13.610,6.391 13.816,6.597 13.911 L 6.760 13.987 8.000 13.987 L 9.240 13.987 9.403 13.911 C 9.609 13.816,9.814 13.610,9.912 13.400 L 9.987 13.240 9.987 8.000 L 9.987 2.760 9.912 2.600 C 9.814 2.390,9.609 2.184,9.403 2.089 L 9.240 2.013 8.053 2.009 C 7.401 2.006,6.822 2.015,6.767 2.028 " stroke="none" fill-rule="evenodd"></path></svg>