<svg width="16" height="16" fill="currentColor" xmlns="http://www.w3.org/2000/svg"><path d="M6.900 0.505 C 4.982 0.782,3.383 1.015,3.347 1.024 C 3.261 1.046,3.103 1.186,3.045 1.291 C 3.003 1.368,3.000 1.834,2.993 8.193 L 2.986 15.013 2.172 15.013 C 1.513 15.013,1.343 15.021,1.283 15.052 C 1.181 15.104,1.044 15.265,1.025 15.354 C 1.016 15.394,1.005 15.440,1.000 15.457 C 0.981 15.519,1.046 15.722,1.112 15.809 C 1.150 15.859,1.230 15.922,1.290 15.949 C 1.396 15.997,1.611 15.999,8.000 15.999 C 14.389 15.999,14.604 15.997,14.710 15.949 C 14.960 15.836,15.070 15.507,14.940 15.266 C 14.896 15.186,14.769 15.073,14.685 15.042 C 14.638 15.024,14.311 15.013,13.812 15.013 L 13.014 15.013 13.007 8.633 L 13.000 2.253 12.926 2.045 C 12.791 1.662,12.539 1.359,12.211 1.188 C 11.948 1.049,11.775 1.013,11.371 1.013 L 11.019 1.013 11.009 0.700 C 11.002 0.447,10.989 0.366,10.944 0.280 C 10.863 0.124,10.702 0.020,10.528 0.010 C 10.446 0.006,8.910 0.216,6.900 0.505 M11.693 2.050 C 11.822 2.110,11.904 2.194,11.959 2.326 C 11.996 2.414,12.000 3.098,12.000 8.719 L 12.000 15.013 11.507 15.013 L 11.013 15.013 11.013 8.507 L 11.013 2.000 11.300 2.001 C 11.521 2.001,11.611 2.012,11.693 2.050 M8.651 8.052 C 8.757 8.121,8.872 8.299,8.927 8.478 C 8.992 8.687,8.992 9.313,8.928 9.521 C 8.868 9.714,8.743 9.899,8.631 9.959 C 8.288 10.144,7.957 9.560,8.010 8.863 C 8.057 8.250,8.363 7.862,8.651 8.052 " stroke="none" fill-rule="evenodd"></path></svg>