<svg width="16" height="16" fill="currentColor" xmlns="http://www.w3.org/2000/svg"><path d="M3.662 1.062 C 3.404 1.152,3.172 1.381,3.058 1.659 L 3.000 1.800 2.993 8.407 L 2.986 15.013 2.172 15.013 C 1.513 15.013,1.343 15.021,1.283 15.052 C 1.181 15.104,1.044 15.265,1.025 15.354 C 1.016 15.394,1.005 15.440,1.000 15.457 C 0.981 15.519,1.046 15.722,1.112 15.809 C 1.150 15.859,1.230 15.922,1.290 15.949 C 1.396 15.997,1.611 15.999,8.000 15.999 C 14.389 15.999,14.604 15.997,14.710 15.949 C 14.960 15.836,15.070 15.507,14.940 15.266 C 14.896 15.186,14.769 15.073,14.685 15.042 C 14.638 15.024,14.311 15.013,13.812 15.013 L 13.013 15.013 13.013 8.513 C 13.013 4.422,13.003 1.955,12.987 1.855 C 12.934 1.532,12.720 1.243,12.428 1.099 L 12.280 1.027 8.040 1.021 C 4.025 1.015,3.793 1.017,3.662 1.062 M12.000 8.507 L 12.000 15.013 8.000 15.013 L 4.000 15.013 4.000 8.507 L 4.000 2.000 8.000 2.000 L 12.000 2.000 12.000 8.507 M9.734 8.043 C 9.363 8.143,9.088 8.447,9.016 8.840 C 8.937 9.267,9.184 9.722,9.600 9.916 C 9.725 9.974,9.784 9.984,10.000 9.984 C 10.216 9.984,10.275 9.974,10.400 9.916 C 10.816 9.722,11.063 9.267,10.984 8.840 C 10.911 8.441,10.636 8.141,10.254 8.041 C 10.061 7.991,9.926 7.991,9.734 8.043 " stroke="none" fill-rule="evenodd"></path></svg>