<svg width="16" height="16" fill="currentColor" xmlns="http://www.w3.org/2000/svg"><path d="M0.262 1.067 C -0.025 1.219,-0.085 1.587,0.138 1.829 C 0.271 1.973,0.360 2.000,0.713 2.000 L 0.985 2.000 0.993 6.380 C 1.000 10.549,1.003 10.767,1.049 10.907 C 1.229 11.445,1.645 11.837,2.167 11.960 C 2.307 11.993,2.736 11.999,4.913 12.000 L 7.493 12.000 7.493 12.568 L 7.493 13.136 7.393 13.212 C 7.256 13.315,7.127 13.488,7.061 13.659 C 6.992 13.835,6.987 14.146,7.051 14.320 C 7.247 14.856,7.838 15.132,8.360 14.933 C 8.584 14.847,8.848 14.583,8.932 14.360 C 9.087 13.949,8.953 13.472,8.607 13.212 L 8.507 13.136 8.507 12.568 L 8.507 12.000 11.087 12.000 C 13.264 11.999,13.693 11.993,13.833 11.960 C 14.355 11.837,14.771 11.445,14.951 10.907 C 14.997 10.767,15.000 10.549,15.007 6.380 L 15.015 2.000 15.287 2.000 C 15.640 2.000,15.729 1.973,15.862 1.829 C 16.087 1.585,16.024 1.215,15.732 1.066 C 15.630 1.014,15.541 1.013,7.994 1.015 C 0.500 1.016,0.358 1.017,0.262 1.067 M13.999 6.300 C 13.999 10.442,13.997 10.604,13.949 10.710 C 13.887 10.845,13.757 10.948,13.599 10.985 C 13.433 11.023,2.567 11.023,2.401 10.985 C 2.243 10.948,2.113 10.845,2.051 10.710 C 2.003 10.604,2.001 10.442,2.001 6.300 L 2.000 2.000 8.000 2.000 L 14.000 2.000 13.999 6.300 " stroke="none" fill-rule="evenodd"></path></svg>