<svg width="16" height="16" fill="currentColor" xmlns="http://www.w3.org/2000/svg"><path d="M7.282 0.030 C 5.431 0.194,3.644 1.037,2.320 2.371 C 0.341 4.365,-0.447 7.269,0.254 9.987 C 1.048 13.063,3.552 15.359,6.693 15.891 C 7.646 16.052,8.693 16.028,9.661 15.824 C 10.907 15.561,12.151 14.958,13.111 14.153 L 13.302 13.992 13.099 13.847 C 12.987 13.767,12.809 13.630,12.703 13.544 C 12.597 13.457,12.503 13.387,12.494 13.387 C 12.485 13.387,12.382 13.459,12.267 13.546 C 10.917 14.574,9.244 15.089,7.591 14.985 C 5.566 14.857,3.767 13.917,2.503 12.326 C 1.755 11.386,1.279 10.277,1.075 9.000 C 1.038 8.773,1.027 8.544,1.027 7.987 C 1.027 7.198,1.062 6.893,1.227 6.253 C 1.869 3.772,3.805 1.844,6.290 1.214 C 6.907 1.058,7.180 1.028,8.000 1.028 C 8.668 1.028,8.802 1.035,9.104 1.088 C 10.615 1.351,11.903 2.010,12.947 3.053 C 13.839 3.946,14.475 5.065,14.786 6.289 C 14.922 6.827,14.965 7.174,14.979 7.860 C 14.993 8.494,14.994 8.508,15.050 8.518 C 15.322 8.567,15.536 8.631,15.728 8.721 C 15.853 8.779,15.960 8.822,15.966 8.816 C 15.997 8.785,16.004 7.636,15.976 7.333 C 15.792 5.399,14.995 3.687,13.654 2.346 C 11.981 0.673,9.636 -0.179,7.282 0.030 M5.686 5.082 C 5.047 5.401,4.799 6.582,5.201 7.398 C 5.309 7.618,5.481 7.810,5.657 7.907 C 5.780 7.976,5.828 7.987,6.000 7.987 C 6.172 7.987,6.220 7.976,6.343 7.908 C 6.965 7.563,7.193 6.414,6.799 5.607 C 6.693 5.392,6.487 5.168,6.314 5.082 C 6.122 4.986,5.878 4.986,5.686 5.082 M9.826 5.798 C 9.469 5.879,9.081 6.111,8.819 6.400 C 8.622 6.619,8.507 6.839,8.507 6.998 C 8.507 7.497,9.134 7.677,9.421 7.260 C 9.575 7.037,9.683 6.935,9.860 6.848 C 10.012 6.773,10.060 6.763,10.250 6.763 C 10.596 6.763,10.821 6.894,11.067 7.238 C 11.196 7.420,11.278 7.473,11.448 7.487 C 11.647 7.504,11.811 7.429,11.911 7.278 C 11.973 7.184,11.987 7.135,11.987 7.001 C 11.987 6.863,11.973 6.814,11.893 6.680 C 11.766 6.464,11.464 6.166,11.239 6.033 C 10.929 5.850,10.680 5.779,10.307 5.770 C 10.102 5.764,9.929 5.774,9.826 5.798 M8.854 9.107 C 8.348 9.203,7.416 9.472,7.226 9.577 C 7.035 9.684,6.939 9.948,7.012 10.168 C 7.065 10.329,7.310 10.506,7.480 10.507 C 7.495 10.507,7.723 10.442,7.987 10.363 C 8.468 10.218,9.035 10.080,9.146 10.080 C 9.200 10.080,9.195 10.092,9.089 10.220 C 9.025 10.296,8.895 10.444,8.799 10.549 C 8.607 10.757,8.545 10.899,8.573 11.065 C 8.594 11.191,8.632 11.247,8.889 11.537 C 9.004 11.666,9.123 11.807,9.153 11.849 L 9.208 11.926 9.091 11.906 C 8.872 11.870,8.361 11.737,7.969 11.615 C 7.754 11.548,7.528 11.493,7.468 11.493 C 7.206 11.493,6.986 11.716,6.987 11.979 C 6.988 12.122,7.064 12.293,7.160 12.368 C 7.278 12.461,8.165 12.735,8.747 12.857 C 8.886 12.886,9.139 12.917,9.310 12.926 C 9.577 12.939,9.644 12.933,9.805 12.884 C 10.128 12.786,10.325 12.559,10.362 12.240 C 10.393 11.972,10.187 11.515,9.858 11.124 C 9.804 11.060,9.760 11.003,9.760 10.996 C 9.760 10.990,9.844 10.875,9.947 10.742 C 10.169 10.456,10.315 10.167,10.353 9.938 C 10.409 9.609,10.230 9.285,9.912 9.144 C 9.792 9.090,9.724 9.081,9.413 9.076 C 9.191 9.072,8.977 9.084,8.854 9.107 M13.006 9.522 C 12.396 9.614,11.964 10.162,12.008 10.788 C 12.059 11.517,12.651 12.291,13.766 13.090 L 13.999 13.256 14.260 13.070 C 15.553 12.146,16.165 11.180,15.959 10.386 C 15.843 9.937,15.451 9.594,14.968 9.519 C 14.661 9.472,14.383 9.538,14.130 9.720 L 14.001 9.812 13.848 9.705 C 13.614 9.541,13.311 9.475,13.006 9.522 " stroke="none" fill-rule="evenodd"></path></svg>