<svg width="16" height="16" fill="currentColor" xmlns="http://www.w3.org/2000/svg"><path d="M7.467 0.017 C 5.118 0.192,3.024 1.327,1.608 3.193 C 0.799 4.260,0.296 5.477,0.073 6.906 C -0.009 7.429,-0.009 8.571,0.073 9.094 C 0.415 11.288,1.476 13.089,3.195 14.393 C 4.257 15.199,5.481 15.705,6.906 15.927 C 7.429 16.009,8.571 16.009,9.094 15.927 C 11.038 15.624,12.690 14.748,13.930 13.362 C 15.030 12.133,15.665 10.775,15.927 9.094 C 16.009 8.571,16.009 7.429,15.927 6.906 C 15.705 5.481,15.199 4.257,14.393 3.195 C 13.070 1.452,11.180 0.355,9.000 0.066 C 8.688 0.025,7.760 -0.005,7.467 0.017 M9.040 1.078 C 11.831 1.511,14.104 3.571,14.781 6.281 C 14.942 6.924,14.973 7.204,14.973 8.000 C 14.973 8.555,14.962 8.775,14.924 9.027 C 14.474 11.939,12.308 14.238,9.437 14.850 C 8.548 15.040,7.452 15.040,6.563 14.850 C 3.952 14.294,1.876 12.308,1.227 9.747 C 1.059 9.083,1.027 8.807,1.027 8.000 C 1.027 7.193,1.059 6.917,1.227 6.253 C 1.847 3.807,3.806 1.848,6.253 1.227 C 6.473 1.171,6.797 1.106,6.973 1.083 C 7.149 1.059,7.329 1.035,7.373 1.029 C 7.574 1.002,8.774 1.037,9.040 1.078 M5.686 5.082 C 5.047 5.401,4.799 6.582,5.201 7.398 C 5.309 7.618,5.481 7.810,5.657 7.907 C 5.780 7.976,5.828 7.987,6.000 7.987 C 6.172 7.987,6.220 7.976,6.343 7.908 C 6.965 7.563,7.193 6.414,6.799 5.607 C 6.693 5.392,6.487 5.168,6.314 5.082 C 6.122 4.986,5.878 4.986,5.686 5.082 M9.686 5.082 C 9.047 5.401,8.799 6.582,9.201 7.398 C 9.309 7.618,9.481 7.810,9.657 7.907 C 9.780 7.976,9.828 7.987,10.000 7.987 C 10.172 7.987,10.220 7.976,10.343 7.908 C 10.965 7.563,11.193 6.414,10.799 5.607 C 10.693 5.392,10.487 5.168,10.314 5.082 C 10.122 4.986,9.878 4.986,9.686 5.082 M7.760 9.511 C 6.632 9.580,5.628 10.027,4.838 10.813 C 4.541 11.108,4.337 11.363,4.146 11.676 C 4.062 11.813,4.043 11.871,4.042 11.982 C 4.039 12.322,4.343 12.567,4.660 12.482 C 4.816 12.440,4.888 12.371,5.079 12.081 C 5.586 11.313,6.380 10.772,7.293 10.572 C 7.584 10.508,8.202 10.494,8.522 10.543 C 9.482 10.690,10.380 11.259,10.897 12.048 C 11.100 12.358,11.159 12.418,11.312 12.468 C 11.687 12.593,12.052 12.241,11.938 11.863 C 11.864 11.620,11.465 11.089,11.088 10.732 C 10.422 10.102,9.498 9.658,8.627 9.550 C 8.363 9.518,7.955 9.499,7.760 9.511 " stroke="none" fill-rule="evenodd"></path></svg>