<svg width="16" height="16" fill="currentColor" xmlns="http://www.w3.org/2000/svg"><path d="M7.282 0.030 C 4.347 0.290,1.726 2.217,0.615 4.932 C 0.035 6.346,-0.138 7.850,0.109 9.317 C 0.514 11.724,1.989 13.809,4.131 15.002 C 4.926 15.445,5.900 15.774,6.861 15.925 C 7.188 15.977,7.343 15.985,7.987 15.985 C 8.626 15.984,8.789 15.975,9.120 15.924 C 10.635 15.690,11.996 15.086,13.112 14.152 L 13.303 13.991 13.094 13.842 C 12.519 13.431,11.945 12.879,11.621 12.425 C 11.401 12.116,11.200 11.719,11.103 11.400 C 11.036 11.181,11.030 11.121,11.028 10.720 C 11.026 10.219,11.063 10.051,11.256 9.679 C 11.528 9.154,12.077 8.726,12.680 8.570 C 12.964 8.496,13.520 8.501,13.793 8.580 L 14.000 8.640 14.207 8.580 C 14.375 8.532,14.480 8.521,14.773 8.521 C 15.191 8.521,15.383 8.562,15.731 8.723 C 15.854 8.780,15.960 8.822,15.966 8.816 C 15.997 8.785,16.004 7.707,15.975 7.373 C 15.773 5.041,14.639 2.985,12.794 1.601 C 11.231 0.428,9.226 -0.143,7.282 0.030 M6.314 5.082 C 6.720 5.284,6.987 5.845,6.986 6.491 C 6.986 6.864,6.936 7.103,6.802 7.375 C 6.671 7.640,6.529 7.804,6.343 7.908 C 6.220 7.976,6.172 7.987,6.000 7.987 C 5.828 7.987,5.780 7.976,5.657 7.908 C 5.471 7.804,5.329 7.640,5.198 7.375 C 5.064 7.103,5.014 6.864,5.014 6.491 C 5.013 5.845,5.280 5.284,5.686 5.082 C 5.878 4.986,6.122 4.986,6.314 5.082 M10.834 5.847 C 11.255 5.985,11.657 6.299,11.880 6.667 C 11.973 6.818,11.986 6.861,11.986 7.002 C 11.987 7.135,11.973 7.184,11.912 7.277 C 11.824 7.410,11.668 7.492,11.502 7.493 C 11.292 7.494,11.183 7.423,11.022 7.180 C 10.835 6.900,10.587 6.767,10.250 6.764 C 10.059 6.763,10.013 6.773,9.860 6.848 C 9.686 6.934,9.550 7.062,9.408 7.276 C 9.139 7.680,8.507 7.485,8.507 6.998 C 8.507 6.672,8.967 6.153,9.457 5.928 C 9.736 5.800,9.951 5.760,10.307 5.770 C 10.560 5.777,10.670 5.793,10.834 5.847 M9.657 9.138 C 9.834 9.219,9.985 9.366,10.053 9.526 C 10.201 9.870,10.047 10.330,9.606 10.863 L 9.498 10.993 9.620 11.143 C 9.931 11.524,10.107 11.889,10.107 12.153 C 10.107 12.474,9.974 12.690,9.692 12.829 C 9.299 13.023,8.642 12.947,7.405 12.564 C 6.855 12.394,6.747 12.299,6.747 11.987 C 6.747 11.821,6.785 11.728,6.898 11.622 C 7.064 11.464,7.215 11.457,7.631 11.589 C 7.964 11.694,8.666 11.877,8.851 11.907 L 8.969 11.926 8.884 11.819 C 8.837 11.760,8.713 11.617,8.609 11.502 C 8.332 11.198,8.269 11.026,8.358 10.813 C 8.379 10.763,8.506 10.599,8.640 10.448 C 8.775 10.297,8.897 10.151,8.912 10.123 C 8.937 10.076,8.931 10.074,8.809 10.091 C 8.588 10.123,8.165 10.230,7.707 10.373 C 7.229 10.521,7.168 10.525,6.977 10.418 C 6.681 10.252,6.667 9.776,6.954 9.588 C 7.109 9.487,8.067 9.208,8.605 9.108 C 8.737 9.083,8.945 9.071,9.173 9.075 C 9.475 9.080,9.553 9.090,9.657 9.138 M13.006 9.522 C 12.396 9.614,11.964 10.162,12.008 10.788 C 12.059 11.517,12.651 12.291,13.766 13.090 L 13.999 13.256 14.260 13.070 C 15.553 12.146,16.165 11.180,15.959 10.386 C 15.843 9.937,15.451 9.594,14.968 9.519 C 14.661 9.472,14.383 9.538,14.130 9.720 L 14.001 9.812 13.848 9.705 C 13.614 9.541,13.311 9.475,13.006 9.522 " stroke="none" fill-rule="evenodd"></path></svg>