<svg width="16" height="16" fill="currentColor" xmlns="http://www.w3.org/2000/svg"><path d="M7.467 0.017 C 5.118 0.192,3.024 1.327,1.608 3.193 C 0.799 4.260,0.296 5.477,0.073 6.906 C -0.009 7.429,-0.009 8.571,0.073 9.094 C 0.415 11.288,1.476 13.089,3.195 14.393 C 4.257 15.199,5.481 15.705,6.906 15.927 C 7.429 16.009,8.571 16.009,9.094 15.927 C 11.038 15.624,12.690 14.748,13.930 13.362 C 15.030 12.133,15.665 10.775,15.927 9.094 C 16.009 8.571,16.009 7.429,15.927 6.906 C 15.705 5.481,15.199 4.257,14.393 3.195 C 13.070 1.452,11.180 0.355,9.000 0.066 C 8.688 0.025,7.760 -0.005,7.467 0.017 M6.254 4.041 C 6.668 4.149,6.951 4.489,6.985 4.920 C 6.994 5.025,7.012 5.105,7.028 5.102 C 7.712 4.984,8.288 4.984,8.972 5.102 C 8.988 5.105,9.006 5.025,9.015 4.920 C 9.049 4.489,9.332 4.149,9.746 4.041 C 9.980 3.980,12.736 3.980,12.974 4.041 C 13.279 4.119,13.539 4.354,13.651 4.653 C 13.748 4.913,13.730 5.090,13.520 5.920 C 13.282 6.865,13.199 7.045,12.843 7.399 C 12.574 7.666,12.392 7.785,12.108 7.881 C 11.797 7.987,11.608 8.008,11.097 7.993 C 10.707 7.982,10.595 7.970,10.440 7.920 C 9.888 7.743,9.460 7.384,9.218 6.893 C 9.119 6.694,9.013 6.347,9.013 6.223 C 9.013 6.172,8.991 6.155,8.873 6.122 C 8.560 6.035,8.397 6.015,8.013 6.014 C 7.620 6.014,7.395 6.041,7.129 6.120 L 6.995 6.160 6.963 6.351 C 6.841 7.087,6.300 7.687,5.546 7.924 C 5.362 7.982,5.301 7.987,4.773 7.986 C 4.202 7.986,4.199 7.985,3.954 7.902 C 3.620 7.790,3.355 7.619,3.109 7.358 C 2.796 7.025,2.707 6.820,2.476 5.907 C 2.301 5.210,2.289 5.145,2.299 4.933 C 2.308 4.755,2.326 4.677,2.382 4.568 C 2.520 4.299,2.740 4.117,3.014 4.043 C 3.237 3.983,6.025 3.982,6.254 4.041 M4.773 9.572 C 4.840 9.604,4.924 9.701,5.066 9.909 C 5.300 10.251,5.710 10.673,6.001 10.872 C 6.390 11.137,6.845 11.331,7.315 11.433 C 7.621 11.499,8.379 11.499,8.685 11.433 C 9.155 11.331,9.610 11.137,9.999 10.872 C 10.295 10.669,10.703 10.249,10.923 9.920 C 11.026 9.766,11.149 9.614,11.196 9.582 C 11.432 9.423,11.779 9.514,11.912 9.770 C 11.937 9.818,11.955 9.917,11.955 10.003 C 11.956 10.128,11.940 10.178,11.855 10.317 C 11.092 11.573,9.840 12.345,8.340 12.486 C 7.241 12.589,6.041 12.207,5.132 11.466 C 4.767 11.167,4.309 10.626,4.113 10.260 C 3.991 10.031,4.058 9.721,4.255 9.599 C 4.432 9.489,4.589 9.481,4.773 9.572 " stroke="none" fill-rule="evenodd"></path></svg>