<svg width="16" height="16" fill="currentColor" xmlns="http://www.w3.org/2000/svg"><path d="M7.467 0.017 C 5.118 0.192,3.024 1.327,1.608 3.193 C 0.799 4.260,0.296 5.477,0.073 6.906 C -0.009 7.429,-0.009 8.571,0.073 9.094 C 0.415 11.288,1.476 13.089,3.195 14.393 C 4.257 15.199,5.481 15.705,6.906 15.927 C 7.429 16.009,8.571 16.009,9.094 15.927 C 11.038 15.624,12.690 14.748,13.930 13.362 C 15.030 12.133,15.665 10.775,15.927 9.094 C 16.009 8.571,16.009 7.429,15.927 6.906 C 15.705 5.481,15.199 4.257,14.393 3.195 C 13.070 1.452,11.180 0.355,9.000 0.066 C 8.688 0.025,7.760 -0.005,7.467 0.017 M9.040 1.078 C 11.831 1.511,14.104 3.571,14.781 6.281 C 14.942 6.924,14.973 7.204,14.973 8.000 C 14.973 8.555,14.962 8.775,14.924 9.027 C 14.474 11.939,12.308 14.238,9.437 14.850 C 8.548 15.040,7.452 15.040,6.563 14.850 C 3.952 14.294,1.876 12.308,1.227 9.747 C 1.059 9.083,1.027 8.807,1.027 8.000 C 1.027 7.193,1.059 6.917,1.227 6.253 C 1.847 3.807,3.806 1.848,6.253 1.227 C 6.473 1.171,6.797 1.106,6.973 1.083 C 7.149 1.059,7.329 1.035,7.373 1.029 C 7.574 1.002,8.774 1.037,9.040 1.078 M3.014 4.043 C 2.542 4.170,2.216 4.659,2.292 5.125 C 2.327 5.333,2.604 6.433,2.683 6.673 C 2.772 6.945,2.958 7.223,3.204 7.453 C 3.439 7.673,3.631 7.793,3.892 7.881 C 4.203 7.987,4.392 8.008,4.903 7.993 C 5.291 7.982,5.406 7.970,5.560 7.921 C 6.245 7.703,6.745 7.188,6.932 6.507 C 6.962 6.397,6.987 6.275,6.987 6.235 C 6.987 6.169,7.001 6.157,7.127 6.122 C 7.440 6.035,7.603 6.015,7.987 6.014 C 8.382 6.014,8.605 6.041,8.875 6.121 C 8.998 6.157,9.013 6.170,9.013 6.235 C 9.013 6.275,9.038 6.397,9.068 6.507 C 9.258 7.197,9.754 7.704,10.454 7.924 C 10.638 7.982,10.699 7.987,11.227 7.986 C 11.782 7.985,11.807 7.983,12.027 7.910 C 12.602 7.720,13.075 7.284,13.288 6.747 C 13.410 6.437,13.712 5.182,13.711 4.985 C 13.708 4.544,13.401 4.150,12.974 4.041 C 12.736 3.980,9.980 3.980,9.746 4.041 C 9.341 4.147,9.072 4.460,9.007 4.903 L 8.977 5.110 8.789 5.070 C 8.524 5.014,7.476 5.014,7.211 5.070 L 7.023 5.110 6.993 4.903 C 6.928 4.460,6.659 4.147,6.254 4.041 C 6.025 3.982,3.237 3.983,3.014 4.043 M4.360 9.533 C 4.149 9.608,4.001 9.860,4.039 10.078 C 4.072 10.262,4.405 10.746,4.742 11.099 C 5.514 11.908,6.501 12.377,7.660 12.486 C 8.759 12.588,9.961 12.206,10.867 11.466 C 11.336 11.083,11.912 10.352,11.961 10.078 C 12.018 9.758,11.709 9.452,11.384 9.507 C 11.218 9.535,11.118 9.624,10.921 9.921 C 10.703 10.249,10.297 10.668,9.999 10.872 C 9.610 11.137,9.155 11.331,8.685 11.433 C 8.379 11.499,7.621 11.499,7.315 11.433 C 6.845 11.331,6.390 11.137,6.001 10.872 C 5.704 10.669,5.295 10.248,5.088 9.933 C 4.888 9.629,4.843 9.582,4.702 9.532 C 4.572 9.486,4.493 9.486,4.360 9.533 " stroke="none" fill-rule="evenodd"></path></svg>