<svg width="16" height="16" fill="currentColor" xmlns="http://www.w3.org/2000/svg"><path d="M7.467 0.017 C 5.118 0.192,3.024 1.327,1.608 3.193 C 0.799 4.260,0.296 5.477,0.073 6.906 C -0.009 7.429,-0.009 8.571,0.073 9.094 C 0.415 11.288,1.476 13.089,3.195 14.393 C 4.257 15.199,5.481 15.705,6.906 15.927 C 7.429 16.009,8.571 16.009,9.094 15.927 C 11.038 15.624,12.690 14.748,13.930 13.362 C 15.030 12.133,15.665 10.775,15.927 9.094 C 16.009 8.571,16.009 7.429,15.927 6.906 C 15.705 5.481,15.199 4.257,14.393 3.195 C 13.070 1.452,11.180 0.355,9.000 0.066 C 8.688 0.025,7.760 -0.005,7.467 0.017 M5.976 4.027 C 6.306 4.090,6.625 4.312,6.797 4.598 C 6.927 4.814,6.987 5.055,6.987 5.364 C 6.987 5.783,6.887 6.151,6.640 6.645 C 6.382 7.162,5.771 7.997,5.665 7.977 C 5.560 7.958,5.123 7.776,4.787 7.611 C 3.830 7.141,3.235 6.566,3.053 5.936 C 3.019 5.821,3.010 5.712,3.018 5.523 C 3.028 5.301,3.041 5.242,3.116 5.086 C 3.277 4.752,3.607 4.496,3.968 4.425 C 4.181 4.384,4.376 4.404,4.590 4.490 C 4.746 4.554,4.761 4.555,4.784 4.513 C 4.843 4.408,5.048 4.217,5.179 4.146 C 5.425 4.012,5.689 3.973,5.976 4.027 M10.512 4.030 C 10.775 4.085,11.102 4.309,11.216 4.513 C 11.239 4.555,11.254 4.554,11.410 4.490 C 11.624 4.404,11.819 4.384,12.032 4.425 C 12.393 4.496,12.723 4.752,12.884 5.086 C 12.959 5.242,12.972 5.301,12.982 5.523 C 12.990 5.712,12.981 5.821,12.947 5.936 C 12.766 6.564,12.165 7.145,11.213 7.611 C 10.877 7.776,10.440 7.958,10.335 7.977 C 10.298 7.984,10.231 7.923,10.087 7.747 C 9.557 7.100,9.172 6.378,9.052 5.805 C 8.997 5.546,9.002 5.146,9.063 4.927 C 9.241 4.286,9.871 3.895,10.512 4.030 M5.293 10.155 C 6.057 10.311,6.900 10.437,7.480 10.482 C 8.276 10.543,9.266 10.437,10.771 10.129 C 11.224 10.036,11.451 10.001,11.517 10.013 C 11.747 10.054,11.920 10.259,11.920 10.491 C 11.920 10.651,11.895 10.709,11.693 11.009 C 11.073 11.935,10.129 12.595,9.045 12.864 C 8.705 12.948,8.653 12.956,8.278 12.985 C 6.960 13.084,5.637 12.572,4.715 11.606 C 4.364 11.238,4.033 10.751,4.008 10.566 C 3.969 10.274,4.237 9.983,4.520 10.009 C 4.579 10.014,4.927 10.080,5.293 10.155 " stroke="none" fill-rule="evenodd"></path></svg>