<svg width="16" height="16" fill="currentColor" xmlns="http://www.w3.org/2000/svg"><path d="M3.669 0.028 C 2.991 0.143,2.371 0.651,2.135 1.283 C 2.021 1.587,2.001 1.766,2.000 2.467 L 2.000 3.135 1.527 3.385 C 1.266 3.523,0.990 3.676,0.913 3.725 C 0.496 3.987,0.185 4.430,0.054 4.944 C 0.001 5.152,-0.000 5.231,-0.000 9.672 C 0.000 14.617,-0.008 14.366,0.156 14.767 C 0.347 15.238,0.762 15.653,1.233 15.844 C 1.639 16.010,1.217 16.000,8.000 16.000 C 14.782 16.000,14.361 16.010,14.766 15.845 C 15.234 15.654,15.654 15.233,15.845 14.765 C 16.010 14.361,16.002 14.615,15.994 9.600 L 15.987 5.027 15.924 4.840 C 15.789 4.438,15.567 4.106,15.270 3.861 C 15.170 3.779,14.869 3.598,14.549 3.427 L 14.000 3.134 14.000 2.473 C 14.000 1.747,13.976 1.557,13.844 1.233 C 13.666 0.795,13.309 0.422,12.864 0.208 C 12.426 -0.003,12.861 0.015,8.080 0.010 C 5.726 0.008,3.741 0.016,3.669 0.028 M12.430 1.100 C 12.608 1.188,12.833 1.416,12.915 1.593 L 12.973 1.720 12.980 4.573 L 12.987 7.427 11.144 8.533 C 10.129 9.142,9.283 9.644,9.264 9.649 C 9.244 9.653,8.957 9.494,8.625 9.295 C 8.294 9.096,8.013 8.933,8.000 8.933 C 7.987 8.933,7.706 9.096,7.375 9.295 C 7.043 9.494,6.756 9.653,6.736 9.649 C 6.717 9.644,5.871 9.142,4.857 8.533 L 3.013 7.427 3.014 4.613 C 3.015 1.984,3.018 1.791,3.063 1.662 C 3.154 1.399,3.399 1.154,3.662 1.062 C 3.793 1.017,4.025 1.015,8.040 1.021 L 12.280 1.027 12.430 1.100 M1.989 6.793 C 1.982 6.800,1.760 6.675,1.494 6.516 L 1.011 6.227 1.019 5.679 L 1.027 5.132 1.115 4.953 C 1.224 4.732,1.348 4.621,1.709 4.424 L 1.987 4.273 1.994 5.527 C 1.997 6.217,1.995 6.787,1.989 6.793 M14.603 4.610 C 14.745 4.710,14.862 4.868,14.932 5.057 C 14.980 5.184,14.987 5.265,14.987 5.714 L 14.987 6.227 14.509 6.513 C 14.246 6.671,14.024 6.800,14.016 6.800 C 14.007 6.800,14.000 6.230,14.000 5.534 L 14.000 4.267 14.244 4.398 C 14.379 4.470,14.540 4.565,14.603 4.610 M3.402 8.828 C 4.699 9.606,5.760 10.248,5.760 10.253 C 5.760 10.266,1.051 13.093,1.029 13.093 C 1.020 13.093,1.013 11.815,1.013 10.253 C 1.013 8.691,1.020 7.413,1.029 7.413 C 1.038 7.413,2.106 8.050,3.402 8.828 M14.987 10.253 C 14.987 11.815,14.980 13.093,14.971 13.093 C 14.962 13.093,13.892 12.455,12.593 11.676 C 10.276 10.285,10.231 10.257,10.293 10.216 C 10.439 10.118,14.948 7.415,14.967 7.414 C 14.978 7.414,14.987 8.691,14.987 10.253 M11.471 12.164 C 13.383 13.310,14.951 14.252,14.957 14.257 C 14.963 14.262,14.946 14.323,14.919 14.393 C 14.849 14.579,14.566 14.853,14.360 14.936 L 14.200 15.000 8.000 15.000 L 1.800 15.000 1.640 14.936 C 1.431 14.852,1.151 14.579,1.079 14.388 C 1.051 14.314,1.040 14.253,1.055 14.247 C 1.069 14.242,2.634 13.303,4.533 12.161 C 6.433 11.019,7.989 10.083,7.991 10.082 C 7.994 10.081,9.560 11.018,11.471 12.164 " stroke="none" fill-rule="evenodd"></path></svg>