<svg width="16" height="16" fill="currentColor" xmlns="http://www.w3.org/2000/svg"><path d="M1.669 2.028 C 0.992 2.142,0.371 2.651,0.135 3.283 C -0.004 3.654,0.001 3.489,0.000 7.994 C -0.000 12.586,-0.007 12.367,0.156 12.767 C 0.347 13.238,0.762 13.653,1.233 13.844 C 1.639 14.010,1.217 14.000,8.000 14.000 C 14.782 14.000,14.361 14.010,14.766 13.845 C 15.233 13.654,15.654 13.233,15.845 12.766 C 16.007 12.367,16.000 12.584,16.000 8.000 C 16.000 3.415,16.007 3.633,15.844 3.233 C 15.666 2.795,15.309 2.422,14.864 2.208 C 14.422 1.995,15.102 2.015,8.080 2.010 C 4.626 2.008,1.741 2.016,1.669 2.028 M14.407 3.085 C 14.583 3.167,14.812 3.392,14.899 3.570 C 14.959 3.693,14.974 3.762,14.982 3.972 L 14.991 4.227 11.505 6.317 C 8.513 8.111,8.010 8.404,7.958 8.384 C 7.924 8.371,6.348 7.430,4.455 6.293 L 1.013 4.227 1.014 4.013 C 1.015 3.880,1.033 3.748,1.063 3.662 C 1.154 3.399,1.399 3.154,1.662 3.063 C 1.793 3.017,2.106 3.015,8.040 3.021 L 14.280 3.027 14.407 3.085 M3.362 6.804 C 4.637 7.569,5.680 8.202,5.680 8.211 C 5.680 8.222,1.906 10.557,1.115 11.035 L 1.013 11.096 1.013 8.255 C 1.013 6.692,1.020 5.413,1.029 5.413 C 1.037 5.413,2.087 6.039,3.362 6.804 M14.987 8.255 L 14.987 11.096 14.885 11.035 C 13.829 10.397,10.322 8.221,10.327 8.207 C 10.334 8.185,14.934 5.416,14.967 5.414 C 14.978 5.414,14.987 6.692,14.987 8.255 M7.333 9.187 C 7.687 9.399,7.987 9.573,8.000 9.573 C 8.013 9.573,8.314 9.399,8.669 9.185 C 9.024 8.972,9.329 8.803,9.347 8.810 C 9.376 8.821,14.933 12.234,14.957 12.256 C 14.963 12.261,14.946 12.323,14.919 12.393 C 14.849 12.579,14.566 12.853,14.360 12.936 L 14.200 13.000 8.000 13.000 L 1.800 13.000 1.640 12.936 C 1.432 12.852,1.151 12.579,1.080 12.390 C 1.038 12.280,1.036 12.258,1.069 12.239 C 1.090 12.227,2.355 11.448,3.880 10.509 C 5.405 9.569,6.662 8.801,6.672 8.800 C 6.682 8.800,6.979 8.974,7.333 9.187 " stroke="none" fill-rule="evenodd"></path></svg>