<svg width="16" height="16" fill="currentColor" xmlns="http://www.w3.org/2000/svg"><path d="M1.747 2.017 C 1.310 2.107,0.986 2.247,0.743 2.448 C 0.579 2.584,0.381 2.813,0.273 2.993 C 0.189 3.132,0.034 3.537,0.056 3.557 C 0.093 3.592,7.980 8.400,8.000 8.400 C 8.019 8.400,15.906 3.593,15.943 3.558 C 15.967 3.536,15.818 3.148,15.730 3.001 C 15.519 2.650,15.252 2.403,14.893 2.226 C 14.419 1.991,15.127 2.014,8.067 2.010 C 4.620 2.008,1.776 2.011,1.747 2.017 M0.000 8.244 C 0.000 10.358,0.010 11.788,0.024 11.782 C 0.079 11.762,5.787 8.253,5.785 8.241 C 5.785 8.233,4.483 7.433,2.892 6.462 L 0.000 4.698 0.000 8.244 M13.101 6.463 C 11.514 7.433,10.215 8.233,10.215 8.240 C 10.214 8.247,10.284 8.298,10.370 8.352 L 10.527 8.450 10.778 8.346 C 11.984 7.850,13.337 7.896,14.491 8.472 C 15.012 8.733,15.391 9.013,15.775 9.421 L 16.000 9.660 16.000 7.177 C 16.000 5.811,15.997 4.695,15.993 4.696 C 15.990 4.697,14.688 5.492,13.101 6.463 M3.473 10.846 L 0.186 12.860 0.257 12.983 C 0.518 13.435,0.964 13.783,1.480 13.937 C 1.630 13.982,1.857 13.986,4.943 13.993 L 8.247 14.001 8.229 13.941 C 8.084 13.429,8.034 13.145,8.010 12.707 C 7.942 11.445,8.436 10.195,9.364 9.278 L 9.595 9.050 9.431 8.947 C 9.341 8.891,9.255 8.845,9.240 8.845 C 9.225 8.845,8.945 9.009,8.618 9.209 C 8.291 9.409,8.012 9.573,8.000 9.573 C 7.987 9.573,7.739 9.428,7.448 9.250 C 7.158 9.073,6.884 8.906,6.840 8.879 L 6.760 8.831 3.473 10.846 M11.905 9.052 C 11.197 9.181,10.561 9.508,10.058 10.001 C 8.776 11.256,8.644 13.236,9.747 14.653 C 10.971 16.227,13.260 16.453,14.782 15.150 C 15.851 14.234,16.266 12.751,15.824 11.418 C 15.415 10.181,14.361 9.269,13.095 9.056 C 12.794 9.005,12.176 9.003,11.905 9.052 M12.845 10.029 C 13.106 10.064,13.482 10.188,13.700 10.310 C 13.792 10.361,13.867 10.405,13.867 10.408 C 13.867 10.411,13.088 11.192,12.137 12.143 L 10.406 13.873 10.311 13.703 C 9.933 13.026,9.906 12.143,10.241 11.442 C 10.721 10.438,11.751 9.879,12.845 10.029 M14.716 11.355 C 14.892 11.694,14.964 11.979,14.980 12.402 C 15.001 12.984,14.884 13.416,14.578 13.874 C 14.322 14.257,13.984 14.555,13.587 14.747 C 12.876 15.091,12.077 15.080,11.353 14.717 C 11.240 14.659,11.147 14.604,11.147 14.593 C 11.147 14.569,14.566 11.147,14.590 11.147 C 14.600 11.147,14.656 11.240,14.716 11.355 " stroke="none" fill-rule="evenodd"></path></svg>