<svg width="16" height="16" fill="currentColor" xmlns="http://www.w3.org/2000/svg"><path d="M1.747 2.017 C 1.310 2.107,0.986 2.247,0.743 2.448 C 0.579 2.584,0.381 2.813,0.273 2.993 C 0.189 3.132,0.034 3.537,0.056 3.557 C 0.082 3.582,4.225 6.107,4.238 6.106 C 4.247 6.106,4.313 6.001,4.387 5.873 C 4.539 5.608,4.954 5.167,5.202 5.006 C 5.412 4.870,5.707 4.726,5.930 4.650 C 6.524 4.447,7.272 4.462,7.808 4.688 L 8.000 4.768 8.192 4.688 C 8.728 4.462,9.476 4.447,10.070 4.650 C 10.714 4.869,11.300 5.335,11.614 5.876 C 11.687 6.002,11.754 6.106,11.763 6.106 C 11.776 6.107,15.915 3.584,15.943 3.558 C 15.967 3.536,15.818 3.148,15.730 3.001 C 15.519 2.650,15.252 2.403,14.893 2.226 C 14.419 1.991,15.127 2.014,8.067 2.010 C 4.620 2.008,1.776 2.011,1.747 2.017 M-0.000 8.242 C -0.000 10.192,0.006 11.787,0.013 11.787 C 0.027 11.787,4.425 9.097,4.461 9.067 C 4.472 9.057,4.431 8.942,4.371 8.811 C 4.147 8.329,4.043 7.925,4.006 7.401 L 3.987 7.136 1.993 5.917 L -0.000 4.698 -0.000 8.242 M14.000 5.921 L 12.013 7.136 11.994 7.401 C 11.957 7.925,11.853 8.329,11.630 8.811 C 11.569 8.942,11.524 9.053,11.529 9.058 C 11.563 9.092,15.982 11.787,15.990 11.779 C 15.996 11.773,15.997 10.179,15.993 8.237 L 15.987 4.706 14.000 5.921 M6.548 5.522 C 6.138 5.585,5.824 5.747,5.519 6.052 C 5.151 6.421,5.004 6.782,5.007 7.307 C 5.014 8.458,5.977 9.730,7.793 10.987 L 8.000 11.130 8.207 10.987 C 10.025 9.727,10.986 8.458,10.993 7.307 C 10.996 6.781,10.849 6.420,10.480 6.051 C 10.114 5.685,9.705 5.512,9.200 5.511 C 8.791 5.510,8.491 5.609,8.165 5.851 L 7.997 5.976 7.832 5.850 C 7.466 5.573,6.996 5.453,6.548 5.522 M2.606 11.377 L 0.186 12.860 0.257 12.983 C 0.522 13.440,0.959 13.781,1.480 13.937 C 1.632 13.983,1.954 13.986,7.907 13.994 C 14.798 14.002,14.372 14.011,14.774 13.843 C 15.159 13.682,15.531 13.352,15.743 12.984 L 15.814 12.861 13.415 11.390 C 12.095 10.581,11.000 9.913,10.980 9.905 C 10.958 9.897,10.833 10.015,10.659 10.209 C 10.108 10.821,9.398 11.400,8.313 12.120 L 8.000 12.328 7.647 12.094 C 6.597 11.396,5.879 10.808,5.331 10.198 C 5.181 10.030,5.051 9.893,5.042 9.893 C 5.034 9.894,3.937 10.561,2.606 11.377 " stroke="none" fill-rule="evenodd"></path></svg>