<svg width="16" height="16" fill="currentColor" xmlns="http://www.w3.org/2000/svg"><path d="M1.747 2.017 C 1.310 2.107,0.986 2.247,0.743 2.448 C 0.579 2.584,0.381 2.813,0.273 2.993 C 0.189 3.132,0.034 3.537,0.056 3.557 C 0.093 3.592,7.980 8.400,8.000 8.400 C 8.019 8.400,15.906 3.593,15.943 3.558 C 15.967 3.536,15.818 3.148,15.730 3.001 C 15.519 2.650,15.252 2.403,14.893 2.226 C 14.419 1.991,15.127 2.014,8.067 2.010 C 4.620 2.008,1.776 2.011,1.747 2.017 M0.000 8.244 C 0.000 10.358,0.010 11.788,0.024 11.782 C 0.079 11.762,5.787 8.253,5.785 8.241 C 5.785 8.233,4.483 7.433,2.892 6.462 L 0.000 4.698 0.000 8.244 M13.101 6.463 C 11.514 7.433,10.215 8.233,10.215 8.240 C 10.214 8.247,10.284 8.298,10.370 8.352 L 10.527 8.450 10.778 8.346 C 11.984 7.850,13.337 7.896,14.491 8.472 C 15.012 8.733,15.391 9.013,15.775 9.421 L 16.000 9.660 16.000 7.177 C 16.000 5.811,15.997 4.695,15.993 4.696 C 15.990 4.697,14.688 5.492,13.101 6.463 M3.473 10.846 L 0.186 12.860 0.257 12.983 C 0.518 13.435,0.964 13.783,1.480 13.937 C 1.630 13.982,1.857 13.986,4.943 13.993 L 8.247 14.001 8.229 13.941 C 8.084 13.429,8.034 13.145,8.010 12.707 C 7.942 11.445,8.436 10.195,9.364 9.278 L 9.595 9.050 9.431 8.947 C 9.341 8.891,9.255 8.845,9.240 8.845 C 9.225 8.845,8.945 9.009,8.618 9.209 C 8.291 9.409,8.012 9.573,8.000 9.573 C 7.987 9.573,7.739 9.428,7.448 9.250 C 7.158 9.073,6.884 8.906,6.840 8.879 L 6.760 8.831 3.473 10.846 M11.907 9.053 C 11.169 9.189,10.552 9.510,10.026 10.031 C 8.634 11.410,8.668 13.693,10.102 15.045 C 10.737 15.644,11.624 16.000,12.485 16.000 C 14.008 16.001,15.352 15.029,15.824 13.587 C 15.936 13.243,15.975 13.024,15.990 12.627 C 16.015 12.018,15.906 11.512,15.627 10.947 C 15.137 9.950,14.185 9.239,13.095 9.056 C 12.793 9.005,12.174 9.003,11.907 9.053 M11.728 11.065 C 11.782 11.093,11.976 11.267,12.159 11.451 L 12.491 11.785 12.839 11.443 C 13.030 11.255,13.225 11.082,13.272 11.057 C 13.445 10.968,13.743 11.021,13.872 11.165 C 13.939 11.239,14.000 11.399,13.999 11.499 C 13.998 11.669,13.901 11.815,13.553 12.166 L 13.215 12.508 13.566 12.860 C 14.022 13.317,14.074 13.441,13.934 13.721 C 13.855 13.879,13.735 13.967,13.569 13.990 C 13.352 14.019,13.274 13.973,12.874 13.578 L 12.508 13.217 12.138 13.580 C 11.760 13.949,11.682 13.999,11.486 14.000 C 11.397 14.000,11.235 13.936,11.165 13.872 C 11.021 13.743,10.968 13.445,11.057 13.272 C 11.082 13.225,11.255 13.030,11.443 12.839 L 11.785 12.491 11.451 12.159 C 11.267 11.976,11.093 11.782,11.065 11.728 C 11.004 11.610,10.997 11.389,11.051 11.285 C 11.092 11.207,11.208 11.091,11.293 11.044 C 11.380 10.996,11.617 11.007,11.728 11.065 " stroke="none" fill-rule="evenodd"></path></svg>