<svg width="16" height="16" fill="currentColor" xmlns="http://www.w3.org/2000/svg"><path d="M1.669 2.028 C 0.992 2.142,0.371 2.651,0.135 3.283 C -0.004 3.654,0.001 3.489,0.000 7.994 C -0.000 12.585,-0.007 12.367,0.155 12.766 C 0.347 13.236,0.764 13.654,1.233 13.844 C 1.624 14.004,1.544 14.000,4.686 14.000 C 6.539 14.000,7.594 13.990,7.657 13.973 C 7.803 13.932,7.965 13.744,7.988 13.587 C 8.022 13.361,7.925 13.165,7.732 13.066 C 7.631 13.015,7.563 13.013,4.805 13.013 C 3.008 13.013,1.928 13.003,1.837 12.986 C 1.639 12.949,1.448 12.850,1.310 12.715 C 1.186 12.592,1.080 12.428,1.055 12.320 C 1.040 12.256,1.172 12.172,3.848 10.527 C 5.393 9.577,6.664 8.800,6.673 8.800 C 6.683 8.800,6.979 8.974,7.333 9.187 C 7.687 9.399,7.987 9.573,8.000 9.573 C 8.012 9.573,9.574 8.642,11.471 7.504 C 13.368 6.365,14.935 5.428,14.952 5.421 C 14.977 5.411,14.986 5.770,14.992 7.018 C 14.999 8.472,15.004 8.635,15.045 8.709 C 15.106 8.819,15.263 8.955,15.354 8.975 C 15.394 8.984,15.440 8.995,15.457 9.000 C 15.519 9.019,15.722 8.954,15.809 8.888 C 15.859 8.850,15.922 8.770,15.949 8.710 C 15.996 8.605,15.999 8.487,15.999 6.206 C 16.000 3.590,16.002 3.619,15.844 3.233 C 15.666 2.795,15.309 2.422,14.864 2.208 C 14.422 1.995,15.102 2.015,8.080 2.010 C 4.626 2.008,1.741 2.016,1.669 2.028 M14.407 3.085 C 14.583 3.167,14.812 3.392,14.899 3.570 C 14.959 3.693,14.974 3.762,14.982 3.972 L 14.991 4.227 11.505 6.317 C 8.513 8.111,8.010 8.404,7.958 8.384 C 7.924 8.371,6.348 7.430,4.455 6.293 L 1.013 4.227 1.014 4.013 C 1.015 3.880,1.033 3.748,1.063 3.662 C 1.154 3.399,1.399 3.154,1.662 3.063 C 1.793 3.017,2.106 3.015,8.040 3.021 L 14.280 3.027 14.407 3.085 M3.362 6.804 C 4.637 7.569,5.680 8.202,5.680 8.211 C 5.680 8.222,1.906 10.557,1.115 11.035 L 1.013 11.096 1.013 8.255 C 1.013 6.692,1.020 5.413,1.029 5.413 C 1.037 5.413,2.087 6.039,3.362 6.804 M11.804 9.055 C 10.297 9.290,9.274 10.324,9.037 11.853 C 8.995 12.126,8.995 12.960,9.037 13.246 C 9.248 14.683,10.140 15.635,11.545 15.924 C 12.092 16.036,13.083 16.012,13.493 15.875 L 13.640 15.827 13.640 15.467 C 13.640 15.160,13.634 15.108,13.600 15.118 C 13.116 15.251,12.759 15.293,12.293 15.271 C 11.538 15.235,10.947 14.984,10.498 14.506 C 10.338 14.336,10.268 14.233,10.150 13.993 C 9.968 13.624,9.902 13.374,9.861 12.900 C 9.802 12.214,9.897 11.613,10.145 11.107 C 10.391 10.605,10.729 10.262,11.213 10.025 C 11.789 9.743,12.493 9.667,13.178 9.814 C 13.875 9.963,14.453 10.399,14.747 10.996 C 14.953 11.412,14.994 11.604,14.994 12.147 C 14.995 12.665,14.952 12.928,14.825 13.190 C 14.640 13.574,14.301 13.685,14.066 13.439 L 13.987 13.357 13.979 12.158 L 13.972 10.960 13.506 10.960 L 13.040 10.960 13.039 11.247 L 13.037 11.533 12.980 11.413 C 12.837 11.118,12.541 10.938,12.160 10.914 C 11.520 10.873,11.037 11.215,10.867 11.827 C 10.809 12.036,10.783 12.764,10.823 13.063 C 10.922 13.798,11.324 14.212,11.985 14.258 C 12.445 14.291,12.899 14.068,13.031 13.745 C 13.058 13.680,13.093 13.627,13.108 13.627 C 13.123 13.627,13.152 13.670,13.171 13.724 C 13.280 14.024,13.758 14.267,14.239 14.266 C 14.660 14.265,15.001 14.127,15.280 13.843 C 15.678 13.439,15.868 12.794,15.833 11.974 C 15.796 11.133,15.529 10.492,14.987 9.943 C 14.506 9.456,13.861 9.147,13.110 9.042 C 12.828 9.003,12.093 9.010,11.804 9.055 M12.647 11.738 C 12.766 11.797,12.865 11.940,12.908 12.112 C 12.956 12.304,12.930 13.024,12.870 13.160 C 12.762 13.408,12.519 13.528,12.248 13.468 C 11.971 13.406,11.851 13.232,11.805 12.825 C 11.751 12.334,11.842 11.922,12.040 11.772 C 12.196 11.652,12.448 11.638,12.647 11.738 " stroke="none" fill-rule="evenodd"></path></svg>