<svg width="16" height="16" fill="currentColor" xmlns="http://www.w3.org/2000/svg"><path d="M1.669 2.028 C 0.992 2.142,0.371 2.651,0.135 3.283 C -0.004 3.654,0.001 3.489,0.000 7.994 C -0.000 12.585,-0.007 12.367,0.155 12.766 C 0.347 13.236,0.764 13.654,1.233 13.844 C 1.624 14.004,1.544 14.000,4.686 14.000 C 6.539 14.000,7.594 13.990,7.657 13.973 C 7.803 13.932,7.965 13.744,7.988 13.587 C 8.022 13.361,7.925 13.165,7.732 13.066 C 7.631 13.015,7.563 13.013,4.805 13.013 C 3.008 13.013,1.928 13.003,1.837 12.986 C 1.639 12.949,1.448 12.850,1.310 12.715 C 1.186 12.592,1.080 12.428,1.055 12.320 C 1.040 12.256,1.172 12.172,3.848 10.527 C 5.393 9.577,6.664 8.800,6.673 8.800 C 6.683 8.800,6.979 8.974,7.333 9.187 C 7.687 9.399,7.987 9.573,8.000 9.573 C 8.012 9.573,9.574 8.642,11.471 7.504 C 13.368 6.365,14.935 5.428,14.952 5.421 C 14.977 5.411,14.986 5.770,14.992 7.018 C 14.999 8.472,15.004 8.635,15.045 8.709 C 15.106 8.819,15.263 8.955,15.354 8.975 C 15.394 8.984,15.440 8.995,15.457 9.000 C 15.519 9.019,15.722 8.954,15.809 8.888 C 15.859 8.850,15.922 8.770,15.949 8.710 C 15.996 8.605,15.999 8.487,15.999 6.206 C 16.000 3.590,16.002 3.619,15.844 3.233 C 15.666 2.795,15.309 2.422,14.864 2.208 C 14.422 1.995,15.102 2.015,8.080 2.010 C 4.626 2.008,1.741 2.016,1.669 2.028 M14.407 3.085 C 14.583 3.167,14.812 3.392,14.899 3.570 C 14.959 3.693,14.974 3.762,14.982 3.972 L 14.991 4.227 11.505 6.317 C 8.513 8.111,8.010 8.404,7.958 8.384 C 7.924 8.371,6.348 7.430,4.455 6.293 L 1.013 4.227 1.014 4.013 C 1.015 3.880,1.033 3.748,1.063 3.662 C 1.154 3.399,1.399 3.154,1.662 3.063 C 1.793 3.017,2.106 3.015,8.040 3.021 L 14.280 3.027 14.407 3.085 M3.362 6.804 C 4.637 7.569,5.680 8.202,5.680 8.211 C 5.680 8.222,1.906 10.557,1.115 11.035 L 1.013 11.096 1.013 8.255 C 1.013 6.692,1.020 5.413,1.029 5.413 C 1.037 5.413,2.087 6.039,3.362 6.804 M11.907 9.053 C 11.169 9.189,10.552 9.510,10.026 10.031 C 8.634 11.410,8.668 13.693,10.102 15.045 C 10.737 15.644,11.624 16.000,12.485 16.000 C 14.008 16.001,15.352 15.029,15.824 13.587 C 15.936 13.243,15.975 13.024,15.990 12.627 C 16.015 12.018,15.906 11.512,15.627 10.947 C 15.137 9.950,14.185 9.239,13.095 9.056 C 12.793 9.005,12.174 9.003,11.907 9.053 M14.180 12.041 C 14.383 12.126,14.488 12.281,14.488 12.496 C 14.488 12.680,14.398 12.836,14.240 12.929 L 14.120 13.000 12.589 13.008 C 10.950 13.016,10.835 13.009,10.692 12.888 C 10.417 12.656,10.462 12.213,10.778 12.057 C 10.892 12.001,10.911 12.000,12.488 12.000 C 13.866 12.000,14.095 12.006,14.180 12.041 " stroke="none" fill-rule="evenodd"></path></svg>