<svg width="16" height="16" fill="currentColor" xmlns="http://www.w3.org/2000/svg"><path d="M1.747 2.017 C 1.310 2.107,0.986 2.247,0.743 2.448 C 0.579 2.584,0.381 2.813,0.273 2.993 C 0.189 3.132,0.034 3.537,0.056 3.557 C 0.093 3.592,7.980 8.400,8.000 8.400 C 8.019 8.400,15.906 3.593,15.943 3.558 C 15.967 3.536,15.818 3.148,15.730 3.001 C 15.519 2.650,15.252 2.403,14.893 2.226 C 14.419 1.991,15.127 2.014,8.067 2.010 C 4.620 2.008,1.776 2.011,1.747 2.017 M0.000 8.244 C 0.000 10.358,0.010 11.788,0.024 11.782 C 0.079 11.762,5.787 8.253,5.785 8.241 C 5.785 8.233,4.483 7.433,2.892 6.462 L 0.000 4.698 0.000 8.244 M13.101 6.466 C 11.514 7.435,10.215 8.233,10.215 8.241 C 10.213 8.261,15.977 11.792,15.990 11.779 C 15.995 11.773,15.997 10.180,15.993 8.237 L 15.987 4.706 13.101 6.466 M3.473 10.846 L 0.186 12.861 0.257 12.984 C 0.518 13.434,0.963 13.782,1.480 13.937 C 1.632 13.983,1.954 13.986,7.907 13.994 C 14.798 14.002,14.372 14.011,14.774 13.843 C 15.159 13.682,15.531 13.352,15.743 12.984 L 15.814 12.861 12.622 10.904 C 10.866 9.827,9.387 8.920,9.334 8.889 L 9.238 8.830 8.630 9.202 C 8.296 9.406,8.012 9.573,7.999 9.573 C 7.987 9.573,7.739 9.428,7.448 9.250 C 7.158 9.073,6.884 8.906,6.840 8.879 L 6.760 8.831 3.473 10.846 " stroke="none" fill-rule="evenodd"></path></svg>