<svg width="16" height="16" fill="currentColor" xmlns="http://www.w3.org/2000/svg"><path d="M9.081 1.669 C 8.840 1.723,8.617 1.818,8.387 1.966 C 8.241 2.059,7.429 2.856,4.663 5.622 C 2.718 7.568,1.078 9.226,1.019 9.307 C 0.752 9.668,0.629 10.048,0.629 10.507 C 0.630 10.824,0.649 10.925,0.765 11.236 C 0.899 11.594,1.016 11.726,2.498 13.203 C 4.024 14.723,4.053 14.748,4.484 14.892 C 4.821 15.004,5.094 15.018,6.696 15.007 L 8.173 14.997 8.409 14.925 C 8.667 14.845,8.793 14.787,9.013 14.645 C 9.169 14.545,14.449 9.300,14.830 8.868 C 15.359 8.266,15.509 7.567,15.264 6.846 C 15.117 6.415,15.144 6.445,12.910 4.205 C 11.771 3.063,10.768 2.077,10.680 2.014 C 10.323 1.758,10.016 1.654,9.573 1.638 C 9.357 1.631,9.212 1.640,9.081 1.669 M9.652 2.642 C 9.996 2.698,9.957 2.662,12.164 4.874 C 14.497 7.211,14.360 7.048,14.360 7.493 C 14.360 7.951,14.545 7.735,11.825 10.455 L 9.440 12.840 6.800 10.200 L 4.160 7.560 6.540 5.179 C 9.066 2.652,9.023 2.692,9.324 2.641 C 9.395 2.629,9.459 2.618,9.467 2.617 C 9.474 2.615,9.558 2.626,9.652 2.642 M8.608 13.689 C 8.530 13.760,8.389 13.856,8.293 13.902 L 8.120 13.987 6.507 13.987 L 4.893 13.987 4.733 13.923 C 4.584 13.864,4.484 13.771,3.181 12.470 C 1.576 10.868,1.640 10.949,1.640 10.507 C 1.641 10.085,1.632 10.097,2.611 9.113 L 3.453 8.266 6.101 10.913 L 8.749 13.560 8.608 13.689 " stroke="none" fill-rule="evenodd"></path></svg>