<svg width="16" height="16" fill="currentColor" xmlns="http://www.w3.org/2000/svg"><path d="M1.669 0.028 C 0.992 0.142,0.371 0.651,0.135 1.283 C -0.006 1.659,0.001 1.324,0.000 7.994 C -0.000 14.784,-0.010 14.361,0.156 14.767 C 0.347 15.238,0.762 15.653,1.233 15.844 C 1.639 16.010,1.217 16.000,8.000 16.000 C 14.782 16.000,14.361 16.010,14.766 15.845 C 15.233 15.654,15.654 15.233,15.845 14.766 C 16.010 14.361,16.000 14.782,16.000 8.000 C 16.000 1.217,16.010 1.639,15.844 1.233 C 15.666 0.795,15.309 0.422,14.864 0.208 C 14.422 -0.005,15.102 0.015,8.080 0.010 C 4.626 0.008,1.741 0.016,1.669 0.028 M14.407 1.085 C 14.584 1.167,14.812 1.392,14.900 1.570 L 14.973 1.720 14.980 7.946 C 14.988 14.846,15.001 14.319,14.811 14.576 C 14.691 14.738,14.526 14.866,14.341 14.942 L 14.200 15.000 8.000 15.000 L 1.800 15.000 1.659 14.942 C 1.381 14.828,1.152 14.596,1.063 14.338 C 1.018 14.207,1.015 13.881,1.015 8.000 C 1.015 2.119,1.018 1.793,1.063 1.662 C 1.154 1.399,1.399 1.154,1.662 1.063 C 1.793 1.017,2.106 1.015,8.040 1.021 L 14.280 1.027 14.407 1.085 M5.730 3.090 C 5.549 3.204,5.509 3.309,5.498 3.687 L 5.489 4.000 4.957 4.000 C 4.368 4.000,4.297 4.015,4.140 4.167 C 4.092 4.213,4.041 4.293,4.027 4.345 C 4.012 4.398,4.000 4.790,4.000 5.220 L 4.000 6.000 3.212 6.000 C 2.344 6.000,2.306 6.006,2.140 6.167 C 2.092 6.213,2.041 6.293,2.027 6.345 C 1.991 6.474,1.991 13.526,2.026 13.654 C 2.059 13.772,2.227 13.939,2.348 13.974 C 2.407 13.991,4.427 14.000,8.000 14.000 C 11.573 14.000,13.593 13.991,13.652 13.974 C 13.773 13.939,13.941 13.772,13.974 13.654 C 14.009 13.526,14.009 6.474,13.973 6.345 C 13.959 6.293,13.908 6.213,13.860 6.167 C 13.694 6.006,13.656 6.000,12.788 6.000 L 12.000 6.000 12.000 5.220 C 12.000 4.790,11.988 4.398,11.973 4.345 C 11.959 4.293,11.908 4.213,11.860 4.167 C 11.703 4.015,11.632 4.000,11.043 4.000 L 10.511 4.000 10.502 3.687 C 10.491 3.309,10.451 3.204,10.270 3.090 L 10.150 3.013 8.000 3.013 L 5.850 3.013 5.730 3.090 M4.419 11.078 L 4.493 11.142 4.493 11.997 L 4.493 12.852 4.419 12.926 C 4.346 12.999,4.342 13.000,4.000 13.000 C 3.658 13.000,3.654 12.999,3.581 12.926 L 3.507 12.852 3.507 11.997 L 3.507 11.142 3.581 11.078 C 3.652 11.017,3.675 11.013,4.000 11.013 C 4.325 11.013,4.348 11.017,4.419 11.078 M6.419 11.078 L 6.493 11.142 6.493 11.997 L 6.493 12.852 6.419 12.926 C 6.346 12.999,6.342 13.000,6.000 13.000 C 5.658 13.000,5.654 12.999,5.581 12.926 L 5.507 12.852 5.507 11.997 L 5.507 11.142 5.581 11.078 C 5.652 11.017,5.675 11.013,6.000 11.013 C 6.325 11.013,6.348 11.017,6.419 11.078 M8.419 11.078 L 8.493 11.142 8.493 11.997 L 8.493 12.852 8.419 12.926 C 8.346 12.999,8.342 13.000,8.000 13.000 C 7.658 13.000,7.654 12.999,7.581 12.926 L 7.507 12.852 7.507 11.997 L 7.507 11.142 7.581 11.078 C 7.652 11.017,7.675 11.013,8.000 11.013 C 8.325 11.013,8.348 11.017,8.419 11.078 M10.419 11.078 L 10.493 11.142 10.493 11.997 L 10.493 12.852 10.419 12.926 C 10.346 12.999,10.342 13.000,10.000 13.000 C 9.658 13.000,9.654 12.999,9.581 12.926 L 9.507 12.852 9.507 11.997 L 9.507 11.142 9.581 11.078 C 9.652 11.017,9.675 11.013,10.000 11.013 C 10.325 11.013,10.348 11.017,10.419 11.078 M12.419 11.078 L 12.493 11.142 12.493 11.997 L 12.493 12.852 12.419 12.926 C 12.346 12.999,12.342 13.000,12.000 13.000 C 11.658 13.000,11.654 12.999,11.581 12.926 L 11.507 12.852 11.507 11.997 L 11.507 11.142 11.581 11.078 C 11.652 11.017,11.675 11.013,12.000 11.013 C 12.325 11.013,12.348 11.017,12.419 11.078 " stroke="none" fill-rule="evenodd"></path></svg>