<svg width="16" height="16" fill="currentColor" xmlns="http://www.w3.org/2000/svg"><path d="M2.689 0.027 C 1.774 0.184,1.120 0.879,1.014 1.807 C 0.997 1.956,0.987 4.369,0.987 8.527 L 0.987 15.013 0.679 15.013 C 0.425 15.013,0.353 15.023,0.268 15.066 C 0.075 15.165,-0.022 15.361,0.012 15.587 C 0.035 15.744,0.197 15.932,0.343 15.973 C 0.477 16.010,11.523 16.010,11.657 15.973 C 11.803 15.932,11.965 15.744,11.988 15.587 C 12.022 15.361,11.925 15.165,11.732 15.066 C 11.647 15.023,11.575 15.013,11.321 15.013 L 11.013 15.013 11.013 13.013 L 11.013 11.013 11.106 11.013 C 11.329 11.013,11.640 11.190,11.799 11.407 C 11.955 11.620,11.978 11.718,12.000 12.293 C 12.024 12.879,12.058 13.023,12.238 13.299 C 12.770 14.113,13.869 14.237,14.547 13.560 C 14.746 13.361,14.871 13.155,14.951 12.893 C 14.998 12.741,15.000 12.528,15.000 8.307 C 15.000 4.019,14.998 3.877,14.950 3.787 C 14.882 3.662,14.417 3.186,14.268 3.090 C 14.101 2.982,13.899 2.982,13.732 3.090 C 13.583 3.186,13.118 3.662,13.050 3.787 C 13.003 3.875,13.000 3.970,12.992 5.427 C 12.984 7.068,12.995 7.286,13.104 7.587 C 13.191 7.827,13.308 7.997,13.619 8.339 C 13.769 8.504,13.913 8.678,13.939 8.726 C 13.983 8.807,13.987 8.946,13.994 10.701 C 14.001 12.509,13.999 12.594,13.951 12.704 C 13.923 12.767,13.859 12.850,13.809 12.888 C 13.722 12.954,13.519 13.019,13.457 13.000 C 13.440 12.995,13.394 12.984,13.354 12.975 C 13.265 12.956,13.104 12.819,13.052 12.717 C 13.025 12.665,13.013 12.552,13.013 12.341 C 13.013 11.730,12.927 11.333,12.723 10.988 C 12.396 10.437,11.837 10.082,11.189 10.013 L 11.013 9.994 11.013 6.017 C 11.013 3.535,11.003 1.952,10.986 1.807 C 10.890 0.966,10.356 0.325,9.542 0.075 L 9.347 0.014 6.080 0.010 C 4.283 0.008,2.757 0.015,2.689 0.027 M9.347 1.069 C 9.544 1.143,9.699 1.264,9.819 1.441 C 10.014 1.727,10.000 1.177,10.000 8.459 L 10.000 15.013 6.000 15.013 L 2.000 15.013 2.000 8.459 C 2.000 1.177,1.986 1.726,2.181 1.442 C 2.305 1.261,2.427 1.162,2.629 1.079 L 2.787 1.015 5.992 1.014 C 9.177 1.013,9.199 1.014,9.347 1.069 M3.290 2.051 C 3.155 2.113,3.052 2.243,3.015 2.401 C 2.978 2.565,2.978 7.435,3.015 7.599 C 3.052 7.757,3.155 7.887,3.290 7.949 C 3.395 7.997,3.518 7.999,6.000 7.999 C 8.482 7.999,8.605 7.997,8.710 7.949 C 8.845 7.887,8.948 7.757,8.985 7.599 C 9.022 7.435,9.022 2.565,8.985 2.401 C 8.948 2.243,8.845 2.113,8.710 2.051 C 8.605 2.003,8.482 2.001,6.000 2.001 C 3.518 2.001,3.395 2.003,3.290 2.051 M3.493 11.347 L 3.493 13.013 4.560 13.013 L 5.627 13.013 5.627 12.733 L 5.627 12.453 4.880 12.453 L 4.133 12.453 4.133 12.013 L 4.133 11.573 4.840 11.573 L 5.547 11.573 5.547 11.320 L 5.547 11.067 4.840 11.067 L 4.133 11.067 4.133 10.640 L 4.133 10.213 4.880 10.213 L 5.627 10.213 5.627 9.947 L 5.627 9.680 4.560 9.680 L 3.493 9.680 3.493 11.347 M5.842 9.700 C 5.843 9.711,6.092 10.458,6.395 11.360 L 6.947 13.000 7.346 13.000 L 7.745 13.000 8.286 11.360 C 8.583 10.458,8.827 9.711,8.827 9.700 C 8.827 9.689,8.666 9.680,8.469 9.680 L 8.110 9.680 8.070 9.820 C 8.048 9.897,7.884 10.476,7.706 11.107 C 7.528 11.737,7.376 12.259,7.369 12.266 C 7.363 12.273,7.349 12.265,7.339 12.248 C 7.328 12.231,7.159 11.646,6.962 10.948 L 6.604 9.680 6.222 9.680 C 6.012 9.680,5.841 9.689,5.842 9.700 " stroke="none" fill-rule="evenodd"></path></svg>