<svg width="16" height="16" fill="currentColor" xmlns="http://www.w3.org/2000/svg"><path d="M7.715 4.048 C 7.372 4.170,7.142 4.450,7.103 4.793 C 7.087 4.927,7.425 8.417,7.470 8.595 C 7.502 8.717,7.661 8.901,7.779 8.951 C 7.889 8.997,8.111 8.997,8.221 8.951 C 8.339 8.901,8.498 8.717,8.530 8.595 C 8.576 8.414,8.913 4.927,8.897 4.791 C 8.863 4.495,8.655 4.213,8.379 4.086 C 8.179 3.995,7.907 3.979,7.715 4.048 M7.733 10.042 C 6.948 10.250,6.750 11.314,7.407 11.800 C 7.702 12.018,8.102 12.055,8.437 11.895 C 8.830 11.707,9.070 11.244,8.986 10.837 C 8.902 10.429,8.637 10.141,8.254 10.041 C 8.061 9.991,7.926 9.991,7.733 10.042 " stroke="none" fill-rule="evenodd"></path></svg>