<svg width="16" height="16" fill="currentColor" xmlns="http://www.w3.org/2000/svg"><path d="M4.680 0.053 C 4.526 0.129,0.096 4.566,0.041 4.699 C 0.005 4.787,0.000 5.179,0.000 8.004 C 0.000 11.143,0.001 11.212,0.053 11.318 C 0.128 11.473,4.563 15.903,4.699 15.959 C 4.787 15.995,5.179 16.000,8.004 16.000 C 11.143 16.000,11.212 15.999,11.318 15.947 C 11.473 15.872,15.903 11.437,15.959 11.301 C 15.995 11.213,16.000 10.821,16.000 8.000 C 16.000 5.179,15.995 4.787,15.959 4.699 C 15.903 4.563,11.473 0.128,11.318 0.053 C 11.212 0.001,11.143 0.000,7.998 0.000 C 4.849 0.000,4.785 0.001,4.680 0.053 M8.387 4.092 C 8.645 4.219,8.854 4.500,8.893 4.773 C 8.903 4.848,8.839 5.591,8.722 6.759 C 8.537 8.604,8.534 8.625,8.460 8.744 C 8.358 8.910,8.145 9.023,7.967 9.006 C 7.796 8.990,7.604 8.869,7.526 8.728 C 7.470 8.627,7.448 8.446,7.278 6.755 C 7.163 5.616,7.097 4.848,7.107 4.778 C 7.156 4.438,7.428 4.128,7.759 4.035 C 7.938 3.984,8.218 4.010,8.387 4.092 M8.254 10.041 C 8.539 10.115,8.754 10.291,8.900 10.568 C 8.967 10.695,8.973 10.732,8.973 11.000 C 8.973 11.270,8.967 11.305,8.898 11.436 C 8.611 11.982,7.969 12.159,7.457 11.833 C 6.865 11.456,6.866 10.546,7.458 10.166 C 7.699 10.011,7.973 9.968,8.254 10.041 " stroke="none" fill-rule="evenodd"></path></svg>