<svg width="16" height="16" fill="currentColor" xmlns="http://www.w3.org/2000/svg"><path d="M4.680 0.053 C 4.526 0.129,0.096 4.566,0.041 4.699 C 0.005 4.787,0.000 5.179,0.000 8.004 C 0.000 11.143,0.001 11.212,0.053 11.318 C 0.128 11.473,4.563 15.903,4.699 15.959 C 4.787 15.995,5.179 16.000,8.004 16.000 C 11.143 16.000,11.212 15.999,11.318 15.947 C 11.473 15.872,15.903 11.437,15.959 11.301 C 15.995 11.213,16.000 10.821,16.000 8.000 C 16.000 5.179,15.995 4.787,15.959 4.699 C 15.903 4.563,11.473 0.128,11.318 0.053 C 11.212 0.001,11.143 0.000,7.998 0.000 C 4.849 0.000,4.785 0.001,4.680 0.053 M12.953 3.047 L 14.987 5.080 14.987 8.000 L 14.987 10.920 12.940 12.967 L 10.893 15.013 8.000 15.013 L 5.107 15.013 3.060 12.967 L 1.013 10.920 1.013 8.000 L 1.013 5.080 3.047 3.047 L 5.080 1.013 8.000 1.013 L 10.920 1.013 12.953 3.047 M7.730 4.040 C 7.367 4.157,7.091 4.526,7.094 4.892 C 7.095 4.951,7.177 5.811,7.277 6.803 C 7.483 8.846,7.466 8.763,7.718 8.919 C 7.982 9.082,8.328 8.992,8.477 8.722 C 8.536 8.615,8.555 8.469,8.725 6.790 C 8.830 5.754,8.904 4.908,8.897 4.822 C 8.873 4.509,8.667 4.218,8.379 4.086 C 8.194 4.002,7.912 3.982,7.730 4.040 M7.733 10.042 C 6.948 10.250,6.750 11.314,7.407 11.800 C 7.702 12.018,8.102 12.055,8.437 11.895 C 8.830 11.707,9.070 11.244,8.986 10.837 C 8.902 10.429,8.637 10.141,8.254 10.041 C 8.061 9.991,7.926 9.991,7.733 10.042 " stroke="none" fill-rule="evenodd"></path></svg>