<svg width="16" height="16" fill="currentColor" xmlns="http://www.w3.org/2000/svg"><path d="M7.467 0.017 C 5.118 0.192,3.024 1.327,1.608 3.193 C 0.799 4.260,0.296 5.477,0.073 6.906 C -0.009 7.429,-0.009 8.571,0.073 9.094 C 0.415 11.288,1.476 13.089,3.195 14.393 C 4.257 15.199,5.481 15.705,6.906 15.927 C 7.429 16.009,8.571 16.009,9.094 15.927 C 11.038 15.624,12.690 14.748,13.930 13.362 C 15.030 12.133,15.665 10.775,15.927 9.094 C 16.009 8.571,16.009 7.429,15.927 6.906 C 15.705 5.481,15.199 4.257,14.393 3.195 C 13.070 1.452,11.180 0.355,9.000 0.066 C 8.688 0.025,7.760 -0.005,7.467 0.017 M8.358 4.076 C 8.621 4.193,8.852 4.494,8.892 4.773 C 8.903 4.849,8.841 5.577,8.722 6.759 C 8.537 8.604,8.534 8.625,8.460 8.744 C 8.358 8.910,8.145 9.023,7.967 9.006 C 7.796 8.990,7.604 8.869,7.526 8.728 C 7.470 8.627,7.448 8.446,7.278 6.755 C 7.163 5.616,7.097 4.848,7.107 4.778 C 7.156 4.438,7.428 4.128,7.759 4.035 C 7.918 3.989,8.207 4.009,8.358 4.076 M8.254 10.041 C 8.539 10.115,8.754 10.291,8.900 10.568 C 8.967 10.695,8.973 10.732,8.973 11.000 C 8.973 11.270,8.967 11.305,8.898 11.436 C 8.611 11.982,7.969 12.159,7.457 11.833 C 6.865 11.456,6.866 10.546,7.458 10.166 C 7.699 10.011,7.973 9.968,8.254 10.041 " stroke="none" fill-rule="evenodd"></path></svg>