<svg width="16" height="16" fill="currentColor" xmlns="http://www.w3.org/2000/svg"><path d="M7.661 1.051 C 7.493 1.105,7.335 1.207,7.195 1.351 C 7.102 1.447,6.188 2.981,3.599 7.387 C 1.690 10.635,0.103 13.353,0.072 13.427 C -0.009 13.620,-0.007 14.034,0.075 14.243 C 0.206 14.575,0.482 14.841,0.809 14.953 C 0.939 14.997,1.345 15.000,7.880 15.007 C 12.672 15.012,14.871 15.006,15.000 14.986 C 15.724 14.877,16.175 14.146,15.938 13.467 C 15.877 13.290,9.069 1.674,8.894 1.446 C 8.778 1.297,8.634 1.182,8.453 1.097 C 8.332 1.040,8.261 1.027,8.040 1.021 C 7.868 1.017,7.734 1.027,7.661 1.051 M8.330 5.068 C 8.511 5.136,8.687 5.288,8.780 5.460 C 8.926 5.728,8.927 5.691,8.736 7.645 C 8.640 8.625,8.548 9.487,8.533 9.562 C 8.414 10.138,7.586 10.138,7.467 9.562 C 7.416 9.315,7.090 5.885,7.107 5.774 C 7.153 5.475,7.390 5.174,7.663 5.069 C 7.851 4.997,8.138 4.996,8.330 5.068 M8.430 11.101 C 8.621 11.194,8.805 11.378,8.899 11.568 C 8.995 11.764,9.017 12.108,8.947 12.319 C 8.855 12.595,8.592 12.856,8.310 12.950 C 8.119 13.013,7.839 13.007,7.646 12.934 C 7.444 12.858,7.210 12.641,7.105 12.435 C 7.033 12.293,7.027 12.257,7.027 12.000 C 7.027 11.745,7.033 11.707,7.102 11.573 C 7.184 11.413,7.350 11.228,7.489 11.142 C 7.646 11.044,7.786 11.013,8.041 11.021 C 8.240 11.027,8.309 11.041,8.430 11.101 " stroke="none" fill-rule="evenodd"></path></svg>