<svg width="16" height="16" fill="currentColor" xmlns="http://www.w3.org/2000/svg"><path d="M7.440 2.522 C 5.952 2.694,4.788 3.149,3.533 4.049 C 2.259 4.963,0.967 6.386,0.096 7.833 L -0.004 8.000 0.096 8.167 C 0.931 9.554,2.182 10.949,3.411 11.864 C 4.328 12.545,5.312 13.027,6.307 13.281 C 6.967 13.449,7.225 13.480,8.000 13.480 C 8.775 13.480,9.033 13.449,9.693 13.281 C 11.175 12.902,12.559 12.061,13.881 10.736 C 14.651 9.964,15.378 9.040,15.904 8.167 L 16.004 8.000 15.904 7.833 C 15.294 6.820,14.359 5.675,13.507 4.899 C 12.059 3.580,10.569 2.813,8.987 2.572 C 8.721 2.532,7.657 2.497,7.440 2.522 M8.707 4.571 C 10.095 4.878,11.133 5.923,11.433 7.315 C 11.499 7.621,11.499 8.379,11.433 8.685 C 11.178 9.868,10.381 10.820,9.287 11.251 C 8.806 11.441,8.591 11.479,8.000 11.479 C 7.521 11.479,7.457 11.474,7.193 11.407 C 6.349 11.193,5.635 10.710,5.146 10.022 C 4.954 9.753,4.710 9.238,4.630 8.933 C 4.406 8.089,4.482 7.257,4.852 6.493 C 5.214 5.746,5.725 5.230,6.467 4.867 C 6.826 4.690,7.089 4.604,7.453 4.544 C 7.726 4.498,8.448 4.514,8.707 4.571 M7.703 5.520 C 7.321 5.567,6.893 5.730,6.562 5.953 C 6.357 6.091,5.997 6.480,5.857 6.715 C 5.684 7.003,5.556 7.385,5.515 7.728 C 5.454 8.249,5.579 8.820,5.857 9.286 C 6.031 9.580,6.420 9.969,6.714 10.143 C 7.350 10.521,8.110 10.601,8.806 10.363 C 9.185 10.233,9.458 10.060,9.759 9.759 C 10.060 9.458,10.233 9.185,10.363 8.806 C 10.670 7.908,10.451 6.944,9.787 6.266 C 9.532 6.007,9.414 5.920,9.097 5.760 C 8.706 5.563,8.140 5.465,7.703 5.520 " stroke="none" fill-rule="evenodd"></path></svg>