<svg width="16" height="16" fill="currentColor" xmlns="http://www.w3.org/2000/svg"><path d="M1.986 2.000 L 1.640 2.347 7.640 8.347 L 13.640 14.346 13.993 13.993 L 14.347 13.640 8.354 7.647 C 5.057 4.350,2.354 1.653,2.346 1.653 C 2.339 1.653,2.177 1.809,1.986 2.000 M7.480 2.522 C 7.436 2.528,7.286 2.546,7.147 2.562 C 6.621 2.623,5.955 2.789,5.482 2.978 C 5.349 3.032,5.235 3.080,5.228 3.085 C 5.221 3.091,5.388 3.268,5.598 3.478 L 5.980 3.861 6.162 3.799 C 7.064 3.493,8.144 3.425,9.120 3.615 C 11.068 3.993,13.052 5.464,14.612 7.687 L 14.832 8.000 14.612 8.313 C 14.130 8.998,13.441 9.800,12.918 10.285 L 12.653 10.531 13.000 10.879 C 13.190 11.070,13.356 11.227,13.368 11.227 C 13.413 11.227,14.320 10.294,14.613 9.947 C 15.086 9.386,15.582 8.702,15.904 8.167 L 16.004 8.000 15.904 7.833 C 15.294 6.820,14.359 5.675,13.507 4.899 C 12.059 3.580,10.568 2.813,8.987 2.572 C 8.721 2.532,7.664 2.497,7.480 2.522 M7.573 4.523 C 7.279 4.577,7.085 4.619,6.963 4.655 L 6.818 4.698 7.225 5.105 L 7.632 5.512 7.996 5.513 C 8.439 5.515,8.743 5.584,9.110 5.768 C 9.625 6.027,9.978 6.383,10.240 6.905 C 10.416 7.257,10.485 7.566,10.488 8.005 L 10.489 8.370 10.894 8.774 L 11.298 9.177 11.356 8.982 C 11.469 8.600,11.500 8.339,11.485 7.880 C 11.475 7.543,11.457 7.397,11.404 7.187 C 11.227 6.491,10.908 5.939,10.410 5.468 C 9.934 5.017,9.363 4.715,8.720 4.573 C 8.526 4.531,7.724 4.495,7.573 4.523 M2.150 5.233 C 1.897 5.486,1.573 5.831,1.429 6.000 C 0.963 6.547,0.425 7.288,0.096 7.833 L -0.004 8.000 0.096 8.167 C 0.931 9.554,2.182 10.949,3.411 11.864 C 4.328 12.545,5.312 13.027,6.307 13.281 C 6.975 13.451,7.224 13.480,8.013 13.479 C 8.760 13.477,9.064 13.443,9.658 13.292 C 10.080 13.185,10.701 12.975,10.772 12.915 C 10.779 12.909,10.612 12.732,10.402 12.522 L 10.019 12.139 9.870 12.191 C 9.601 12.285,9.134 12.396,8.811 12.444 C 8.378 12.508,7.592 12.507,7.173 12.443 C 5.975 12.257,4.815 11.717,3.708 10.829 C 2.903 10.184,2.054 9.263,1.388 8.313 L 1.168 8.000 1.388 7.687 C 1.859 7.015,2.560 6.199,3.082 5.715 L 3.347 5.469 3.000 5.121 C 2.810 4.930,2.644 4.773,2.632 4.773 C 2.621 4.773,2.404 4.980,2.150 5.233 M4.657 6.964 C 4.531 7.399,4.521 7.470,4.521 8.000 C 4.521 8.478,4.526 8.543,4.593 8.804 C 4.948 10.209,6.032 11.219,7.438 11.454 C 7.652 11.490,7.804 11.497,8.130 11.485 C 8.526 11.471,8.672 11.448,9.037 11.343 L 9.180 11.301 8.771 10.891 L 8.361 10.481 8.146 10.497 C 7.865 10.519,7.520 10.469,7.194 10.361 C 6.410 10.101,5.796 9.435,5.581 8.615 C 5.526 8.406,5.514 8.294,5.512 7.995 L 5.511 7.630 5.105 7.225 L 4.699 6.820 4.657 6.964 " stroke="none" fill-rule="evenodd"></path></svg>