<svg width="16" height="16" fill="currentColor" xmlns="http://www.w3.org/2000/svg"><path d="M7.440 2.522 C 5.952 2.694,4.788 3.149,3.533 4.049 C 2.259 4.963,0.967 6.386,0.096 7.833 L -0.004 8.000 0.096 8.167 C 0.931 9.554,2.182 10.949,3.411 11.864 C 4.328 12.545,5.312 13.027,6.307 13.281 C 6.967 13.449,7.225 13.480,8.000 13.480 C 8.775 13.480,9.033 13.449,9.693 13.281 C 11.175 12.902,12.559 12.061,13.881 10.736 C 14.651 9.964,15.378 9.040,15.904 8.167 L 16.004 8.000 15.904 7.833 C 15.294 6.820,14.359 5.675,13.507 4.899 C 12.059 3.580,10.569 2.813,8.987 2.572 C 8.721 2.532,7.657 2.497,7.440 2.522 M8.428 3.522 C 9.683 3.621,10.892 4.111,12.066 4.994 C 12.948 5.659,13.883 6.647,14.612 7.687 L 14.832 8.000 14.612 8.313 C 14.490 8.486,14.257 8.795,14.093 9.000 C 12.512 10.976,10.721 12.144,8.813 12.444 C 8.407 12.508,7.590 12.507,7.173 12.443 C 5.974 12.257,4.815 11.717,3.708 10.829 C 2.903 10.184,2.054 9.263,1.388 8.314 L 1.168 8.001 1.322 7.780 C 2.100 6.666,3.023 5.681,3.934 4.995 C 5.081 4.130,6.322 3.621,7.520 3.523 C 7.927 3.490,8.030 3.490,8.428 3.522 M7.453 4.544 C 7.089 4.604,6.826 4.690,6.467 4.867 C 5.525 5.329,4.881 6.118,4.605 7.147 C 4.527 7.439,4.523 7.478,4.522 7.987 C 4.520 8.483,4.525 8.540,4.593 8.807 C 4.925 10.117,5.884 11.076,7.193 11.407 C 7.457 11.474,7.521 11.479,8.000 11.479 C 8.455 11.479,8.552 11.471,8.773 11.416 C 10.112 11.085,11.085 10.112,11.416 8.773 C 11.471 8.551,11.479 8.456,11.479 8.000 C 11.479 7.544,11.471 7.449,11.416 7.227 C 11.080 5.866,10.065 4.872,8.707 4.571 C 8.448 4.514,7.726 4.498,7.453 4.544 M8.632 5.588 C 8.881 5.650,9.216 5.803,9.438 5.954 C 9.595 6.060,9.940 6.405,10.046 6.562 C 10.198 6.784,10.350 7.119,10.418 7.381 C 10.515 7.752,10.515 8.248,10.418 8.619 C 10.350 8.879,10.199 9.213,10.047 9.438 C 9.909 9.643,9.520 10.003,9.285 10.143 C 8.997 10.316,8.615 10.444,8.272 10.485 C 7.751 10.546,7.178 10.420,6.715 10.143 C 6.480 10.003,6.091 9.643,5.953 9.438 C 5.801 9.213,5.650 8.879,5.582 8.619 C 5.485 8.248,5.485 7.752,5.582 7.381 C 5.886 6.218,6.940 5.446,8.133 5.512 C 8.273 5.519,8.497 5.553,8.632 5.588 " stroke="none" fill-rule="evenodd"></path></svg>