<svg width="16" height="16" fill="currentColor" xmlns="http://www.w3.org/2000/svg"><path d="M12.189 0.336 C 11.874 0.420,11.849 0.443,10.133 2.152 L 8.492 3.786 8.159 3.451 C 7.787 3.076,7.691 3.013,7.493 3.013 C 7.340 3.013,7.245 3.054,7.143 3.164 C 7.043 3.273,7.009 3.351,7.007 3.477 C 7.003 3.699,7.037 3.744,7.680 4.387 L 8.293 5.000 4.669 8.626 L 1.045 12.253 1.016 12.395 C 0.998 12.480,0.987 12.885,0.987 13.422 L 0.987 14.307 0.544 14.747 C 0.086 15.202,0.002 15.319,0.001 15.501 C -0.001 15.729,0.191 15.955,0.414 15.988 C 0.655 16.024,0.714 15.987,1.228 15.477 L 1.695 15.013 2.580 15.013 C 3.115 15.013,3.520 15.002,3.605 14.984 L 3.747 14.955 7.374 11.331 L 11.000 7.707 11.613 8.320 C 12.256 8.963,12.301 8.997,12.523 8.993 C 12.769 8.990,12.990 8.770,12.993 8.523 C 12.996 8.315,12.951 8.243,12.574 7.867 L 12.214 7.508 13.850 5.867 C 15.623 4.088,15.605 4.110,15.681 3.740 C 15.744 3.441,15.669 3.067,15.498 2.822 C 15.454 2.759,14.922 2.213,14.316 1.609 C 13.389 0.688,13.188 0.500,13.053 0.433 C 12.772 0.293,12.472 0.259,12.189 0.336 M6.793 10.500 L 3.293 14.000 2.647 14.000 L 2.000 14.000 2.000 13.353 L 2.000 12.707 5.500 9.207 L 9.000 5.707 9.647 6.353 L 10.293 7.000 6.793 10.500 " stroke="none" fill-rule="evenodd"></path></svg>