<svg width="16" height="16" fill="currentColor" xmlns="http://www.w3.org/2000/svg"><path d="M7.333 0.029 C 4.545 0.267,2.075 1.955,0.840 4.467 C 0.237 5.692,-0.023 6.880,0.008 8.267 C 0.028 9.131,0.133 9.749,0.403 10.580 C 1.278 13.275,3.563 15.331,6.353 15.932 C 6.525 15.970,6.684 16.000,6.706 16.000 C 6.742 16.000,6.747 15.684,6.747 13.187 L 6.747 10.373 5.733 10.373 L 4.720 10.373 4.720 9.213 L 4.720 8.053 5.731 8.053 L 6.741 8.053 6.755 6.900 C 6.765 5.984,6.777 5.700,6.812 5.520 C 7.109 3.978,8.160 3.147,9.815 3.147 C 10.242 3.147,11.321 3.242,11.500 3.296 C 11.543 3.309,11.547 3.380,11.547 4.292 L 11.547 5.275 10.873 5.286 C 10.261 5.296,10.184 5.302,10.027 5.356 C 9.624 5.496,9.391 5.752,9.294 6.166 C 9.263 6.295,9.254 6.528,9.254 7.193 L 9.253 8.053 10.361 8.053 L 11.469 8.053 11.454 8.140 C 11.428 8.287,11.120 10.327,11.120 10.351 C 11.120 10.363,10.700 10.373,10.187 10.373 L 9.253 10.373 9.253 13.187 C 9.253 14.734,9.256 16.000,9.260 16.000 C 9.303 16.000,9.761 15.901,10.001 15.841 C 12.486 15.211,14.587 13.310,15.491 10.874 C 16.020 9.445,16.138 7.894,15.829 6.401 C 15.520 4.907,14.797 3.541,13.734 2.444 C 12.055 0.710,9.711 -0.174,7.333 0.029 " stroke="none" fill-rule="evenodd"></path></svg>