<svg width="16" height="16" fill="currentColor" xmlns="http://www.w3.org/2000/svg"><path d="M3.669 0.028 C 2.993 0.141,2.371 0.651,2.135 1.283 C 1.994 1.659,2.001 1.324,2.000 7.994 C 2.000 14.784,1.990 14.361,2.156 14.767 C 2.347 15.238,2.762 15.653,3.233 15.844 C 3.633 16.007,3.415 16.000,8.000 16.000 C 12.584 16.000,12.367 16.007,12.766 15.845 C 13.233 15.654,13.654 15.233,13.845 14.766 C 14.008 14.365,14.000 14.649,14.000 9.341 L 14.000 4.493 11.753 2.247 L 9.507 0.000 6.653 0.003 C 5.084 0.005,3.741 0.016,3.669 0.028 M9.494 2.060 C 9.494 3.237,9.506 3.344,9.671 3.680 C 9.803 3.950,10.050 4.197,10.320 4.329 C 10.656 4.494,10.763 4.506,11.940 4.506 L 12.987 4.507 12.986 9.353 C 12.985 13.934,12.982 14.208,12.937 14.338 C 12.848 14.596,12.619 14.828,12.341 14.942 L 12.200 15.000 8.000 15.000 L 3.800 15.000 3.659 14.942 C 3.381 14.828,3.152 14.596,3.063 14.338 C 3.018 14.207,3.015 13.881,3.015 8.000 C 3.015 2.119,3.018 1.793,3.063 1.662 C 3.154 1.399,3.399 1.154,3.662 1.063 C 3.791 1.018,3.985 1.015,6.647 1.014 L 9.493 1.013 9.494 2.060 M5.253 9.708 C 4.409 9.857,3.958 10.708,4.009 12.053 C 4.051 13.181,4.435 13.855,5.139 14.041 C 5.325 14.090,5.702 14.095,5.882 14.051 C 6.402 13.925,6.773 13.496,6.950 12.813 C 7.045 12.448,7.071 11.643,7.001 11.226 C 6.912 10.692,6.749 10.324,6.488 10.062 C 6.188 9.763,5.712 9.626,5.253 9.708 M8.428 10.177 L 7.840 10.567 7.840 10.900 C 7.840 11.185,7.846 11.230,7.880 11.217 C 7.902 11.208,8.158 11.045,8.449 10.854 C 8.740 10.663,8.992 10.507,9.009 10.507 C 9.032 10.507,9.040 10.873,9.040 11.960 L 9.040 13.413 8.440 13.413 L 7.840 13.413 7.840 13.707 L 7.840 14.000 9.347 14.000 L 10.853 14.000 10.853 13.707 L 10.853 13.413 10.293 13.413 L 9.733 13.413 9.733 11.600 L 9.733 9.787 9.375 9.787 L 9.017 9.787 8.428 10.177 M5.815 10.348 C 5.867 10.374,5.949 10.436,5.996 10.485 C 6.091 10.581,6.240 10.869,6.240 10.955 C 6.240 10.995,6.048 11.151,5.502 11.551 C 5.096 11.849,4.746 12.104,4.725 12.117 C 4.690 12.138,4.687 12.093,4.701 11.757 C 4.739 10.846,4.958 10.379,5.387 10.291 C 5.513 10.265,5.700 10.290,5.815 10.348 M6.339 12.073 C 6.330 12.304,6.304 12.577,6.282 12.680 C 6.225 12.936,6.076 13.230,5.946 13.341 C 5.691 13.559,5.307 13.543,5.069 13.305 C 4.985 13.221,4.800 12.880,4.800 12.810 C 4.800 12.782,6.303 11.653,6.340 11.653 C 6.348 11.653,6.347 11.842,6.339 12.073 " stroke="none" fill-rule="evenodd"></path></svg>