<svg width="16" height="16" fill="currentColor" xmlns="http://www.w3.org/2000/svg"><path d="M3.669 0.028 C 2.993 0.141,2.371 0.651,2.135 1.283 C 1.996 1.656,2.001 1.455,2.000 6.407 L 2.000 11.015 2.500 11.007 L 3.000 11.000 3.013 6.360 L 3.027 1.720 3.099 1.572 C 3.192 1.384,3.384 1.192,3.572 1.099 L 3.720 1.027 6.607 1.020 L 9.493 1.012 9.494 2.060 C 9.494 3.237,9.506 3.344,9.671 3.680 C 9.803 3.950,10.050 4.197,10.320 4.329 C 10.656 4.494,10.763 4.506,11.940 4.506 L 12.987 4.507 12.986 9.353 C 12.985 13.934,12.982 14.208,12.937 14.338 C 12.848 14.597,12.617 14.831,12.341 14.940 C 12.216 14.990,12.131 14.998,11.593 15.008 L 10.987 15.019 10.987 15.510 L 10.987 16.000 11.588 16.000 C 12.248 16.000,12.450 15.973,12.766 15.845 C 13.233 15.654,13.654 15.233,13.845 14.766 C 14.008 14.365,14.000 14.649,14.000 9.341 L 14.000 4.493 11.753 2.247 L 9.507 0.000 6.653 0.003 C 5.084 0.005,3.741 0.016,3.669 0.028 M4.547 11.869 C 4.276 11.891,4.141 11.929,3.910 12.045 C 3.683 12.159,3.460 12.376,3.374 12.566 C 3.178 12.998,3.258 13.506,3.568 13.808 C 3.764 13.999,3.971 14.087,4.577 14.235 C 5.352 14.425,5.507 14.526,5.503 14.840 C 5.500 15.064,5.400 15.202,5.160 15.312 C 5.049 15.362,4.982 15.373,4.760 15.372 C 4.531 15.372,4.473 15.362,4.347 15.303 C 4.146 15.210,4.041 15.115,3.983 14.973 L 3.933 14.854 3.553 14.853 C 3.123 14.853,3.145 14.839,3.210 15.080 C 3.317 15.484,3.585 15.751,4.045 15.912 C 4.242 15.982,4.278 15.986,4.720 15.985 C 5.156 15.985,5.201 15.980,5.404 15.912 C 5.805 15.778,6.087 15.533,6.217 15.207 C 6.269 15.078,6.279 15.003,6.279 14.746 C 6.280 14.453,6.276 14.431,6.193 14.262 C 6.021 13.913,5.727 13.745,4.987 13.572 C 4.414 13.439,4.312 13.402,4.185 13.281 C 3.962 13.069,4.046 12.715,4.357 12.554 C 4.509 12.475,4.844 12.458,5.051 12.518 C 5.231 12.570,5.414 12.735,5.465 12.889 L 5.497 12.987 5.871 12.987 L 6.245 12.987 6.226 12.873 C 6.184 12.623,6.073 12.421,5.874 12.235 C 5.563 11.945,5.114 11.821,4.547 11.869 M0.000 12.267 L 0.000 12.587 0.560 12.587 L 1.120 12.587 1.126 14.260 L 1.133 15.933 1.527 15.941 L 1.920 15.948 1.920 14.267 L 1.920 12.587 2.493 12.587 L 3.067 12.587 3.067 12.267 L 3.067 11.947 1.533 11.947 L 0.000 11.947 0.000 12.267 M6.428 12.002 C 6.444 12.033,6.715 12.473,7.030 12.981 C 7.344 13.489,7.596 13.918,7.590 13.933 C 7.584 13.949,7.308 14.403,6.976 14.943 C 6.645 15.482,6.373 15.929,6.373 15.935 C 6.373 15.941,6.565 15.947,6.798 15.947 L 7.223 15.947 7.657 15.226 C 7.996 14.661,8.097 14.513,8.121 14.539 C 8.139 14.558,8.324 14.861,8.534 15.213 C 8.743 15.565,8.933 15.874,8.955 15.900 C 8.990 15.941,9.049 15.947,9.434 15.947 C 9.774 15.947,9.869 15.939,9.859 15.913 C 9.852 15.895,9.574 15.448,9.242 14.920 C 8.909 14.392,8.642 13.942,8.648 13.920 C 8.654 13.898,8.936 13.445,9.275 12.913 L 9.890 11.947 9.442 11.947 L 8.994 11.947 8.594 12.645 C 8.374 13.030,8.182 13.348,8.168 13.353 C 8.153 13.358,7.957 13.043,7.732 12.654 L 7.323 11.947 6.861 11.947 C 6.400 11.947,6.398 11.947,6.428 12.002 " stroke="none" fill-rule="evenodd"></path></svg>