<svg width="16" height="16" fill="currentColor" xmlns="http://www.w3.org/2000/svg"><path d="M3.669 0.028 C 2.992 0.143,2.371 0.651,2.135 1.283 C 1.994 1.659,2.001 1.324,2.000 7.994 C 2.000 14.784,1.990 14.361,2.156 14.767 C 2.347 15.238,2.762 15.653,3.233 15.844 C 3.633 16.007,3.415 16.000,8.000 16.000 C 12.584 16.000,12.367 16.007,12.766 15.845 C 13.234 15.654,13.654 15.233,13.845 14.765 C 14.010 14.361,14.002 14.642,13.994 9.320 L 13.987 4.467 13.899 4.280 C 13.815 4.103,13.709 3.992,11.859 2.143 C 10.031 0.317,9.895 0.188,9.721 0.103 L 9.534 0.013 6.667 0.010 C 5.090 0.007,3.741 0.016,3.669 0.028 M11.007 2.993 C 11.817 3.804,12.480 4.476,12.480 4.487 C 12.480 4.498,12.015 4.507,11.446 4.507 C 10.303 4.507,10.206 4.496,9.968 4.343 C 9.798 4.234,9.689 4.105,9.589 3.895 L 9.507 3.720 9.498 2.620 C 9.493 2.015,9.500 1.520,9.512 1.520 C 9.524 1.520,10.196 2.183,11.007 2.993 M8.178 6.535 C 8.271 6.570,8.391 6.681,8.449 6.787 C 8.487 6.855,8.495 6.983,8.502 7.687 L 8.510 8.507 9.307 8.507 C 9.805 8.507,10.131 8.517,10.178 8.535 C 10.360 8.604,10.488 8.796,10.488 9.000 C 10.488 9.204,10.360 9.396,10.178 9.465 C 10.131 9.483,9.805 9.493,9.307 9.493 L 8.510 9.493 8.502 10.313 C 8.493 11.208,8.492 11.211,8.329 11.365 C 8.144 11.540,7.856 11.540,7.671 11.365 C 7.508 11.211,7.507 11.208,7.498 10.313 L 7.490 9.493 6.693 9.493 C 6.195 9.493,5.869 9.483,5.822 9.465 C 5.640 9.396,5.512 9.204,5.512 9.000 C 5.512 8.796,5.640 8.604,5.822 8.535 C 5.869 8.517,6.195 8.507,6.693 8.507 L 7.490 8.507 7.498 7.687 C 7.505 6.983,7.513 6.855,7.551 6.787 C 7.607 6.685,7.727 6.571,7.813 6.537 C 7.903 6.501,8.086 6.500,8.178 6.535 " stroke="none" fill-rule="evenodd"></path></svg>