<svg width="16" height="16" fill="currentColor" xmlns="http://www.w3.org/2000/svg"><path d="M3.669 0.028 C 2.993 0.141,2.371 0.651,2.135 1.283 C 1.996 1.656,2.001 1.455,2.000 6.407 L 2.000 11.015 2.500 11.007 L 3.000 11.000 3.013 6.360 L 3.027 1.720 3.099 1.572 C 3.192 1.384,3.384 1.192,3.572 1.099 L 3.720 1.027 6.607 1.020 L 9.493 1.012 9.494 2.060 C 9.494 3.237,9.506 3.344,9.671 3.680 C 9.803 3.950,10.050 4.197,10.320 4.329 C 10.656 4.494,10.763 4.506,11.940 4.506 L 12.986 4.507 12.993 7.753 L 13.000 11.000 13.500 11.007 L 14.000 11.015 14.000 7.754 L 14.000 4.493 11.753 2.247 L 9.507 0.000 6.653 0.003 C 5.084 0.005,3.741 0.016,3.669 0.028 M3.274 13.367 L 3.267 14.867 3.194 14.990 C 3.107 15.138,2.983 15.205,2.768 15.221 C 2.496 15.242,2.263 15.070,2.223 14.820 L 2.207 14.720 1.823 14.720 L 1.440 14.720 1.440 14.794 C 1.440 14.835,1.459 14.940,1.481 15.028 C 1.632 15.611,2.072 15.920,2.752 15.920 C 3.184 15.920,3.468 15.815,3.721 15.561 C 3.810 15.473,3.910 15.341,3.944 15.269 C 4.072 14.993,4.079 14.887,4.080 13.327 L 4.080 11.867 3.681 11.867 L 3.282 11.867 3.274 13.367 M5.092 13.727 C 4.751 14.750,4.450 15.644,4.423 15.714 L 4.374 15.841 4.780 15.834 L 5.186 15.827 5.336 15.333 L 5.487 14.840 6.161 14.840 L 6.835 14.840 6.985 15.333 L 7.135 15.827 7.557 15.834 C 7.891 15.840,7.977 15.834,7.967 15.807 C 7.960 15.789,7.662 14.894,7.304 13.820 L 6.654 11.867 6.182 11.867 L 5.711 11.867 5.092 13.727 M7.681 11.873 C 7.681 11.877,7.979 12.768,8.344 13.853 L 9.007 15.827 9.489 15.834 L 9.971 15.841 10.616 13.887 C 10.971 12.813,11.266 11.918,11.273 11.900 C 11.283 11.874,11.187 11.867,10.847 11.867 L 10.409 11.867 10.173 12.700 C 9.616 14.671,9.527 14.973,9.505 14.968 C 9.492 14.966,9.283 14.270,9.039 13.422 L 8.597 11.880 8.139 11.873 C 7.886 11.869,7.680 11.869,7.681 11.873 M12.192 12.259 C 12.119 12.476,11.818 13.371,11.524 14.247 L 10.989 15.841 11.391 15.834 L 11.793 15.827 11.944 15.333 L 12.094 14.840 12.765 14.833 L 13.436 14.826 13.516 15.086 C 13.560 15.229,13.630 15.458,13.671 15.593 L 13.746 15.840 14.166 15.840 C 14.397 15.840,14.586 15.837,14.585 15.833 C 14.585 15.830,14.286 14.939,13.922 13.853 L 13.261 11.880 12.793 11.873 L 12.325 11.865 12.192 12.259 M6.187 12.623 C 6.187 12.629,6.295 12.990,6.427 13.427 C 6.559 13.863,6.667 14.224,6.667 14.230 C 6.667 14.235,6.438 14.240,6.158 14.240 C 5.762 14.240,5.652 14.233,5.661 14.207 C 5.668 14.188,5.780 13.822,5.910 13.393 C 6.040 12.964,6.155 12.613,6.166 12.613 C 6.178 12.613,6.187 12.618,6.187 12.623 M13.023 13.390 C 13.152 13.817,13.264 14.183,13.272 14.203 C 13.283 14.234,13.196 14.240,12.774 14.240 C 12.300 14.240,12.264 14.237,12.277 14.193 C 12.284 14.168,12.393 13.808,12.519 13.394 C 12.644 12.980,12.747 12.635,12.747 12.627 C 12.747 12.620,12.756 12.613,12.767 12.613 C 12.778 12.613,12.893 12.963,13.023 13.390 " stroke="none" fill-rule="evenodd"></path></svg>