<svg width="16" height="16" fill="currentColor" xmlns="http://www.w3.org/2000/svg"><path d="M3.669 0.028 C 2.993 0.141,2.371 0.651,2.135 1.283 C 1.994 1.659,2.001 1.324,2.000 7.994 C 2.000 14.784,1.990 14.361,2.156 14.767 C 2.347 15.238,2.762 15.653,3.233 15.844 C 3.633 16.007,3.415 16.000,8.000 16.000 C 12.584 16.000,12.367 16.007,12.766 15.845 C 13.233 15.654,13.654 15.233,13.845 14.766 C 14.008 14.365,14.000 14.649,14.000 9.341 L 14.000 4.493 11.753 2.247 L 9.507 0.000 6.653 0.003 C 5.084 0.005,3.741 0.016,3.669 0.028 M9.494 2.060 C 9.494 3.237,9.506 3.344,9.671 3.680 C 9.803 3.950,10.050 4.197,10.320 4.329 C 10.656 4.494,10.763 4.506,11.940 4.506 L 12.987 4.507 12.986 9.353 C 12.985 13.934,12.982 14.208,12.937 14.338 C 12.848 14.596,12.619 14.828,12.341 14.942 L 12.200 15.000 8.000 15.000 L 3.800 15.000 3.659 14.942 C 3.381 14.828,3.152 14.596,3.063 14.338 C 3.018 14.207,3.015 13.881,3.015 8.000 C 3.015 2.119,3.018 1.793,3.063 1.662 C 3.154 1.399,3.399 1.154,3.662 1.063 C 3.791 1.018,3.985 1.015,6.647 1.014 L 9.493 1.013 9.494 2.060 M6.787 6.550 C 6.670 6.611,4.619 8.662,4.558 8.779 C 4.495 8.900,4.491 9.092,4.549 9.208 C 4.608 9.326,6.656 11.378,6.779 11.442 C 6.959 11.536,7.235 11.489,7.363 11.343 C 7.499 11.188,7.532 10.952,7.442 10.779 C 7.413 10.725,7.011 10.302,6.548 9.840 L 5.707 9.000 6.557 8.147 C 7.025 7.677,7.427 7.255,7.451 7.208 C 7.535 7.039,7.483 6.759,7.343 6.637 C 7.195 6.507,6.945 6.468,6.787 6.550 M8.787 6.551 C 8.669 6.613,8.614 6.668,8.557 6.779 C 8.492 6.906,8.492 7.095,8.558 7.221 C 8.587 7.275,8.989 7.698,9.452 8.160 L 10.293 9.000 9.443 9.853 C 8.975 10.323,8.573 10.745,8.549 10.792 C 8.468 10.955,8.506 11.194,8.637 11.343 C 8.765 11.489,9.041 11.536,9.221 11.442 C 9.344 11.378,11.392 9.326,11.451 9.208 C 11.509 9.092,11.505 8.900,11.442 8.779 C 11.378 8.656,9.326 6.608,9.208 6.549 C 9.100 6.495,8.891 6.496,8.787 6.551 " stroke="none" fill-rule="evenodd"></path></svg>