<svg width="16" height="16" fill="currentColor" xmlns="http://www.w3.org/2000/svg"><path d="M3.669 0.028 C 2.991 0.143,2.371 0.651,2.135 1.283 C 1.995 1.657,2.001 1.403,2.000 7.039 L 2.000 12.278 3.473 10.810 C 4.284 10.003,4.990 9.316,5.043 9.284 C 5.295 9.134,5.653 9.096,5.909 9.193 C 5.983 9.221,6.447 9.486,6.939 9.782 C 7.432 10.078,7.845 10.319,7.858 10.319 C 7.870 10.318,8.312 9.711,8.840 8.969 C 9.368 8.228,9.847 7.579,9.903 7.527 C 9.960 7.476,10.074 7.402,10.157 7.364 C 10.287 7.302,10.341 7.293,10.573 7.293 C 11.021 7.293,10.953 7.240,12.594 8.876 L 14.001 10.279 13.994 7.373 L 13.987 4.467 13.899 4.280 C 13.815 4.103,13.708 3.991,11.859 2.141 C 10.009 0.292,9.897 0.185,9.720 0.101 L 9.533 0.013 6.667 0.010 C 5.090 0.007,3.741 0.016,3.669 0.028 M11.007 2.993 C 11.817 3.804,12.480 4.476,12.480 4.487 C 12.480 4.498,12.015 4.507,11.446 4.507 C 10.303 4.507,10.206 4.496,9.968 4.343 C 9.798 4.234,9.689 4.105,9.589 3.895 L 9.507 3.720 9.498 2.620 C 9.493 2.015,9.500 1.520,9.512 1.520 C 9.524 1.520,10.196 2.183,11.007 2.993 M6.860 4.052 C 7.101 4.113,7.219 4.171,7.422 4.325 C 8.372 5.047,8.086 6.573,6.933 6.936 C 6.709 7.007,6.341 7.012,6.119 6.948 C 5.722 6.833,5.368 6.550,5.181 6.197 C 4.877 5.626,4.984 4.908,5.440 4.453 C 5.826 4.068,6.347 3.920,6.860 4.052 M9.362 9.952 C 8.699 10.880,8.147 11.643,8.135 11.648 C 8.124 11.652,7.545 11.314,6.850 10.896 L 5.587 10.136 3.793 11.928 L 2.000 13.720 2.000 13.954 C 2.000 14.948,2.654 15.761,3.612 15.959 C 3.786 15.995,4.334 16.000,8.000 16.000 C 12.584 16.000,12.367 16.007,12.766 15.845 C 13.233 15.654,13.654 15.233,13.845 14.766 C 13.991 14.406,14.000 14.301,13.999 12.954 L 13.997 11.720 12.282 9.992 L 10.567 8.264 9.362 9.952 " stroke="none" fill-rule="evenodd"></path></svg>