<svg width="16" height="16" fill="currentColor" xmlns="http://www.w3.org/2000/svg"><path d="M3.669 0.028 C 2.991 0.143,2.371 0.651,2.135 1.283 C 1.994 1.659,2.001 1.324,2.000 7.994 C 2.000 14.784,1.990 14.361,2.156 14.767 C 2.347 15.238,2.762 15.653,3.233 15.844 C 3.633 16.007,3.415 16.000,8.000 16.000 C 12.584 16.000,12.367 16.007,12.766 15.845 C 13.233 15.654,13.654 15.233,13.845 14.766 C 14.010 14.361,14.000 14.782,14.000 8.000 C 14.000 1.217,14.010 1.639,13.844 1.233 C 13.666 0.795,13.309 0.422,12.864 0.208 C 12.426 -0.003,12.861 0.015,8.080 0.010 C 5.726 0.008,3.741 0.016,3.669 0.028 M11.728 5.064 C 11.850 5.126,11.906 5.187,11.959 5.313 C 11.995 5.400,12.000 5.780,12.000 8.493 C 12.000 11.892,12.011 11.677,11.833 11.860 C 11.787 11.908,11.707 11.959,11.655 11.973 C 11.532 12.008,10.468 12.008,10.345 11.973 C 10.293 11.959,10.213 11.908,10.167 11.860 C 9.989 11.677,10.000 11.893,10.001 8.488 C 10.001 5.549,10.004 5.395,10.050 5.293 C 10.103 5.177,10.156 5.123,10.280 5.058 C 10.346 5.023,10.468 5.015,10.994 5.014 C 11.566 5.013,11.639 5.018,11.728 5.064 M8.685 7.042 C 8.787 7.080,8.906 7.195,8.950 7.299 C 8.980 7.370,8.987 7.764,8.987 9.507 C 8.987 11.536,8.984 11.633,8.936 11.728 C 8.810 11.975,8.723 12.000,8.000 12.000 C 7.277 12.000,7.190 11.975,7.064 11.728 C 7.016 11.633,7.013 11.536,7.013 9.493 C 7.013 7.707,7.019 7.346,7.051 7.285 C 7.092 7.207,7.208 7.091,7.293 7.044 C 7.365 7.005,8.582 7.003,8.685 7.042 M5.728 9.064 C 5.850 9.126,5.906 9.187,5.959 9.313 C 6.020 9.460,6.020 11.527,5.959 11.674 C 5.902 11.810,5.768 11.942,5.655 11.973 C 5.532 12.008,4.468 12.008,4.345 11.973 C 4.293 11.959,4.213 11.908,4.167 11.860 C 4.000 11.688,4.000 11.685,4.001 10.488 C 4.001 9.489,4.005 9.391,4.050 9.293 C 4.103 9.177,4.156 9.123,4.280 9.058 C 4.346 9.023,4.468 9.015,4.994 9.014 C 5.566 9.013,5.639 9.018,5.728 9.064 " stroke="none" fill-rule="evenodd"></path></svg>