<svg width="16" height="16" fill="currentColor" xmlns="http://www.w3.org/2000/svg"><path d="M3.669 0.028 C 2.993 0.141,2.371 0.651,2.135 1.283 C 1.994 1.659,2.001 1.324,2.000 7.994 C 2.000 14.784,1.990 14.361,2.156 14.767 C 2.347 15.238,2.762 15.653,3.233 15.844 C 3.633 16.007,3.415 16.000,8.000 16.000 C 12.584 16.000,12.367 16.007,12.766 15.845 C 13.233 15.654,13.654 15.233,13.845 14.766 C 14.008 14.365,14.000 14.649,14.000 9.341 L 14.000 4.493 11.753 2.247 L 9.507 0.000 6.653 0.003 C 5.084 0.005,3.741 0.016,3.669 0.028 M9.494 2.060 C 9.494 3.237,9.506 3.344,9.671 3.680 C 9.803 3.950,10.050 4.197,10.320 4.329 C 10.656 4.494,10.763 4.506,11.940 4.506 L 12.987 4.507 12.986 9.353 C 12.985 13.934,12.982 14.208,12.937 14.338 C 12.848 14.596,12.619 14.828,12.341 14.942 L 12.200 15.000 8.000 15.000 L 3.800 15.000 3.659 14.942 C 3.381 14.828,3.152 14.596,3.063 14.338 C 3.018 14.207,3.015 13.881,3.015 8.000 C 3.015 2.119,3.018 1.793,3.063 1.662 C 3.154 1.399,3.399 1.154,3.662 1.063 C 3.791 1.018,3.985 1.015,6.647 1.014 L 9.493 1.013 9.494 2.060 M5.241 6.568 C 5.032 6.686,4.939 6.937,5.024 7.154 C 5.052 7.226,5.473 7.753,6.200 8.625 C 6.823 9.373,7.333 9.991,7.333 10.000 C 7.333 10.009,6.830 10.620,6.214 11.359 C 5.599 12.097,5.076 12.743,5.051 12.795 C 4.954 13.000,5.054 13.304,5.259 13.427 C 5.393 13.506,5.642 13.500,5.769 13.413 C 5.822 13.377,6.341 12.777,6.921 12.080 C 7.501 11.383,7.984 10.810,7.995 10.807 C 8.005 10.803,8.500 11.383,9.093 12.096 C 9.877 13.037,10.200 13.406,10.272 13.443 C 10.382 13.499,10.569 13.509,10.685 13.465 C 10.811 13.417,10.932 13.278,10.975 13.133 C 11.051 12.871,11.062 12.888,9.800 11.374 C 9.177 10.626,8.667 10.008,8.667 10.000 C 8.667 9.991,9.170 9.380,9.786 8.641 C 10.401 7.903,10.924 7.257,10.949 7.205 C 11.010 7.077,10.989 6.860,10.905 6.734 C 10.811 6.595,10.595 6.495,10.437 6.516 C 10.370 6.525,10.280 6.554,10.237 6.580 C 10.193 6.605,9.675 7.205,9.086 7.913 C 8.496 8.621,8.008 9.200,8.000 9.200 C 7.992 9.200,7.500 8.617,6.907 7.904 C 6.123 6.963,5.800 6.594,5.728 6.557 C 5.589 6.486,5.376 6.491,5.241 6.568 " stroke="none" fill-rule="evenodd"></path></svg>