<svg width="16" height="16" fill="currentColor" xmlns="http://www.w3.org/2000/svg"><path d="M3.669 0.028 C 2.992 0.143,2.371 0.651,2.135 1.283 C 1.994 1.659,2.001 1.324,2.000 7.994 C 2.000 14.784,1.990 14.361,2.156 14.767 C 2.347 15.238,2.762 15.653,3.233 15.844 C 3.633 16.007,3.415 16.000,8.000 16.000 C 12.584 16.000,12.367 16.007,12.766 15.845 C 13.234 15.654,13.654 15.233,13.845 14.765 C 14.010 14.361,14.002 14.642,13.994 9.320 L 13.987 4.467 13.899 4.280 C 13.815 4.103,13.709 3.992,11.859 2.143 C 10.031 0.317,9.895 0.188,9.721 0.103 L 9.534 0.013 6.667 0.010 C 5.090 0.007,3.741 0.016,3.669 0.028 M11.007 2.993 C 11.817 3.804,12.480 4.476,12.480 4.487 C 12.480 4.498,12.015 4.507,11.446 4.507 C 10.303 4.507,10.206 4.496,9.968 4.343 C 9.798 4.234,9.689 4.105,9.589 3.895 L 9.507 3.720 9.498 2.620 C 9.493 2.015,9.500 1.520,9.512 1.520 C 9.524 1.520,10.196 2.183,11.007 2.993 M8.277 5.595 C 8.382 5.668,8.467 5.797,8.492 5.925 L 8.507 5.997 9.647 6.006 C 10.738 6.015,10.794 6.018,10.962 6.074 C 11.403 6.222,11.778 6.596,11.926 7.038 C 11.983 7.206,11.985 7.260,11.994 8.398 C 12.000 9.217,11.993 9.641,11.972 9.768 C 11.882 10.302,11.445 10.785,10.907 10.945 C 10.821 10.971,10.609 10.996,10.397 11.005 L 10.033 11.021 10.257 11.690 C 10.413 12.158,10.480 12.397,10.480 12.487 C 10.480 12.908,10.000 13.132,9.678 12.861 C 9.561 12.763,9.528 12.683,9.237 11.807 L 8.974 11.013 8.743 11.013 L 8.511 11.013 8.502 11.584 L 8.493 12.156 8.413 12.270 C 8.302 12.428,8.182 12.492,8.000 12.492 C 7.818 12.492,7.698 12.428,7.587 12.270 L 7.507 12.156 7.498 11.584 L 7.489 11.013 7.258 11.014 L 7.027 11.014 6.733 11.885 C 6.549 12.434,6.417 12.785,6.377 12.833 C 6.342 12.875,6.265 12.934,6.205 12.964 C 5.983 13.078,5.664 12.975,5.560 12.757 C 5.464 12.554,5.474 12.491,5.728 11.731 L 5.966 11.021 5.603 11.005 C 5.391 10.996,5.179 10.971,5.093 10.945 C 4.555 10.785,4.118 10.302,4.028 9.768 C 4.007 9.641,4.000 9.217,4.006 8.398 C 4.015 7.260,4.017 7.206,4.074 7.038 C 4.222 6.596,4.597 6.222,5.038 6.074 C 5.206 6.018,5.262 6.015,6.353 6.006 L 7.493 5.997 7.508 5.925 C 7.584 5.557,7.977 5.388,8.277 5.595 M5.293 7.044 C 5.207 7.092,5.092 7.207,5.044 7.293 C 5.006 7.363,4.999 7.504,4.992 8.410 C 4.987 9.086,4.994 9.494,5.013 9.582 C 5.049 9.753,5.149 9.885,5.290 9.949 C 5.395 9.997,5.518 9.999,8.000 9.999 C 10.482 9.999,10.605 9.997,10.710 9.949 C 10.851 9.885,10.951 9.753,10.987 9.582 C 11.006 9.494,11.013 9.086,11.008 8.410 C 11.001 7.504,10.994 7.363,10.956 7.293 C 10.897 7.188,10.778 7.077,10.685 7.042 C 10.577 7.001,5.367 7.004,5.293 7.044 " stroke="none" fill-rule="evenodd"></path></svg>