<svg width="16" height="16" fill="currentColor" xmlns="http://www.w3.org/2000/svg"><path d="M3.669 0.028 C 2.993 0.141,2.371 0.651,2.135 1.283 C 1.994 1.659,2.001 1.324,2.000 7.994 C 2.000 14.784,1.990 14.361,2.156 14.767 C 2.347 15.238,2.762 15.653,3.233 15.844 C 3.633 16.007,3.415 16.000,8.000 16.000 C 12.584 16.000,12.367 16.007,12.766 15.845 C 13.233 15.654,13.654 15.233,13.845 14.766 C 14.008 14.365,14.000 14.649,14.000 9.341 L 14.000 4.493 11.753 2.247 L 9.507 0.000 6.653 0.003 C 5.084 0.005,3.741 0.016,3.669 0.028 M9.494 2.060 C 9.494 3.237,9.506 3.344,9.671 3.680 C 9.803 3.950,10.050 4.197,10.320 4.329 C 10.656 4.494,10.763 4.506,11.940 4.506 L 12.987 4.507 12.986 9.353 C 12.985 13.934,12.982 14.208,12.937 14.338 C 12.848 14.596,12.619 14.828,12.341 14.942 L 12.200 15.000 8.000 15.000 L 3.800 15.000 3.659 14.942 C 3.381 14.828,3.152 14.596,3.063 14.338 C 3.018 14.207,3.015 13.881,3.015 8.000 C 3.015 2.119,3.018 1.793,3.063 1.662 C 3.154 1.399,3.399 1.154,3.662 1.063 C 3.791 1.018,3.985 1.015,6.647 1.014 L 9.493 1.013 9.494 2.060 M7.554 5.052 C 6.862 5.209,6.311 5.727,6.078 6.440 C 6.023 6.611,6.016 6.687,6.006 7.347 L 5.994 8.067 5.761 8.179 C 5.344 8.379,5.082 8.710,5.015 9.121 C 4.978 9.348,4.978 11.635,5.015 11.867 C 5.098 12.386,5.503 12.790,6.107 12.953 C 6.264 12.996,6.442 13.000,8.000 13.000 C 9.921 13.000,9.864 13.005,10.267 12.809 C 10.526 12.682,10.770 12.443,10.880 12.208 C 11.005 11.942,11.018 11.751,11.008 10.347 L 10.999 9.080 10.930 8.903 C 10.799 8.562,10.543 8.305,10.179 8.146 L 10.005 8.070 9.993 7.348 C 9.982 6.694,9.975 6.609,9.921 6.440 C 9.709 5.778,9.215 5.285,8.559 5.080 C 8.359 5.017,7.777 5.001,7.554 5.052 M8.347 6.066 C 8.609 6.158,8.829 6.380,8.932 6.657 C 8.981 6.787,8.987 6.864,8.987 7.401 L 8.987 8.000 8.000 8.000 L 7.013 8.000 7.013 7.401 C 7.013 6.859,7.019 6.788,7.069 6.653 C 7.223 6.243,7.622 5.982,8.053 6.012 C 8.149 6.018,8.281 6.043,8.347 6.066 M9.775 9.064 C 9.835 9.091,9.910 9.146,9.942 9.187 C 10.000 9.260,10.000 9.268,10.000 10.504 C 10.000 11.915,10.014 11.825,9.776 11.936 L 9.640 11.999 8.016 12.000 C 6.830 12.000,6.364 11.991,6.286 11.968 C 6.227 11.950,6.139 11.898,6.090 11.851 L 6.000 11.767 6.000 10.514 C 6.000 9.268,6.000 9.260,6.058 9.187 C 6.090 9.146,6.165 9.091,6.225 9.064 C 6.327 9.018,6.435 9.015,8.000 9.015 C 9.565 9.015,9.673 9.018,9.775 9.064 " stroke="none" fill-rule="evenodd"></path></svg>