<svg width="16" height="16" fill="currentColor" xmlns="http://www.w3.org/2000/svg"><path d="M3.669 0.028 C 2.992 0.143,2.371 0.651,2.135 1.283 C 1.994 1.659,2.001 1.324,2.000 7.994 C 2.000 14.784,1.990 14.361,2.156 14.767 C 2.347 15.238,2.762 15.653,3.233 15.844 C 3.633 16.007,3.415 16.000,8.000 16.000 C 12.584 16.000,12.367 16.007,12.766 15.845 C 13.234 15.654,13.654 15.233,13.845 14.765 C 14.010 14.361,14.002 14.642,13.994 9.320 L 13.987 4.467 13.899 4.280 C 13.815 4.103,13.709 3.992,11.859 2.143 C 10.031 0.317,9.895 0.188,9.721 0.103 L 9.534 0.013 6.667 0.010 C 5.090 0.007,3.741 0.016,3.669 0.028 M11.007 2.993 C 11.817 3.804,12.480 4.476,12.480 4.487 C 12.480 4.498,12.015 4.507,11.446 4.507 C 10.303 4.507,10.206 4.496,9.968 4.343 C 9.798 4.234,9.689 4.105,9.589 3.895 L 9.507 3.720 9.498 2.620 C 9.493 2.015,9.500 1.520,9.512 1.520 C 9.524 1.520,10.196 2.183,11.007 2.993 M10.715 7.051 C 10.797 7.094,10.913 7.212,10.957 7.298 C 11.004 7.391,10.993 7.617,10.935 7.728 C 10.907 7.782,10.181 8.527,9.315 9.391 C 7.802 10.900,7.742 10.956,7.619 10.981 C 7.463 11.013,7.335 10.987,7.205 10.897 C 7.049 10.789,5.612 9.330,5.559 9.227 C 5.501 9.112,5.498 8.892,5.554 8.786 C 5.681 8.543,5.955 8.443,6.206 8.547 C 6.267 8.573,6.527 8.810,6.906 9.187 L 7.508 9.786 8.841 8.451 C 9.574 7.717,10.215 7.094,10.267 7.066 C 10.379 7.005,10.612 6.997,10.715 7.051 " stroke="none" fill-rule="evenodd"></path></svg>