<svg width="16" height="16" fill="currentColor" xmlns="http://www.w3.org/2000/svg"><path d="M3.669 0.028 C 2.991 0.143,2.371 0.651,2.135 1.283 C 1.994 1.659,2.001 1.324,2.000 7.994 C 2.000 14.784,1.990 14.361,2.156 14.767 C 2.347 15.238,2.762 15.653,3.233 15.844 C 3.633 16.007,3.415 16.000,8.000 16.000 C 12.584 16.000,12.367 16.007,12.766 15.845 C 13.233 15.654,13.654 15.233,13.845 14.766 C 14.010 14.361,14.000 14.782,14.000 8.000 C 14.000 1.217,14.010 1.639,13.844 1.233 C 13.666 0.795,13.309 0.422,12.864 0.208 C 12.426 -0.003,12.861 0.015,8.080 0.010 C 5.726 0.008,3.741 0.016,3.669 0.028 M8.682 3.668 C 8.819 3.752,8.961 3.950,9.016 4.133 C 9.142 4.556,9.019 5.350,8.662 6.418 L 8.500 6.903 8.713 7.311 C 8.928 7.723,9.099 8.011,9.338 8.367 L 9.468 8.560 9.869 8.560 C 11.013 8.560,11.645 8.784,11.886 9.277 C 11.950 9.406,11.960 9.457,11.958 9.653 C 11.956 9.823,11.941 9.917,11.896 10.027 C 11.602 10.748,11.002 10.914,10.277 10.476 C 10.053 10.341,9.670 9.992,9.387 9.665 L 9.133 9.373 8.987 9.382 C 8.660 9.401,7.296 9.680,7.154 9.757 C 7.137 9.766,7.042 9.906,6.945 10.067 C 5.970 11.676,5.139 12.362,4.537 12.055 C 4.280 11.924,4.086 11.604,4.061 11.268 C 4.014 10.653,4.485 10.102,5.480 9.605 C 5.850 9.421,6.056 9.332,6.373 9.221 C 6.498 9.178,6.614 9.128,6.632 9.111 C 6.690 9.055,7.292 7.836,7.491 7.370 L 7.687 6.913 7.579 6.637 C 7.287 5.883,7.189 5.444,7.190 4.893 C 7.191 4.551,7.200 4.471,7.249 4.335 C 7.364 4.022,7.522 3.829,7.765 3.703 C 7.967 3.600,8.084 3.574,8.322 3.581 C 8.525 3.586,8.566 3.596,8.682 3.668 M8.144 4.346 C 7.982 4.412,7.908 4.628,7.927 4.987 C 7.940 5.234,8.044 5.760,8.080 5.760 C 8.130 5.760,8.320 4.819,8.320 4.573 C 8.319 4.330,8.287 4.288,8.144 4.346 M7.876 8.325 C 7.741 8.608,7.634 8.842,7.636 8.845 C 7.639 8.848,7.689 8.840,7.747 8.827 C 7.806 8.813,8.021 8.772,8.225 8.734 C 8.429 8.696,8.601 8.661,8.606 8.656 C 8.612 8.650,8.514 8.474,8.389 8.263 C 8.264 8.052,8.152 7.864,8.141 7.845 C 8.127 7.822,8.033 7.992,7.876 8.325 M10.297 9.525 C 10.642 9.858,10.974 10.034,11.085 9.943 C 11.153 9.887,11.233 9.683,11.216 9.613 C 11.182 9.480,10.789 9.354,10.307 9.321 L 10.067 9.304 10.297 9.525 M5.667 10.349 C 5.309 10.548,5.254 10.586,5.057 10.772 C 4.822 10.994,4.743 11.193,4.838 11.322 C 4.876 11.373,4.877 11.373,4.976 11.320 C 5.126 11.240,5.462 10.891,5.714 10.553 C 5.939 10.252,5.984 10.187,5.968 10.187 C 5.963 10.187,5.827 10.260,5.667 10.349 " stroke="none" fill-rule="evenodd"></path></svg>