<svg width="16" height="16" fill="currentColor" xmlns="http://www.w3.org/2000/svg"><path d="M3.669 0.028 C 2.993 0.141,2.371 0.651,2.135 1.283 C 1.996 1.656,2.001 1.455,2.000 6.407 L 2.000 11.015 2.500 11.007 L 3.000 11.000 3.013 6.360 L 3.027 1.720 3.099 1.572 C 3.192 1.384,3.384 1.192,3.572 1.099 L 3.720 1.027 6.607 1.020 L 9.493 1.012 9.494 2.060 C 9.494 3.237,9.506 3.344,9.671 3.680 C 9.803 3.950,10.050 4.197,10.320 4.329 C 10.656 4.494,10.763 4.506,11.940 4.506 L 12.986 4.507 12.993 7.753 L 13.000 11.000 13.500 11.007 L 14.000 11.015 14.000 7.754 L 14.000 4.493 11.753 2.247 L 9.507 0.000 6.653 0.003 C 5.084 0.005,3.741 0.016,3.669 0.028 M9.693 11.894 C 9.164 12.003,8.748 12.378,8.576 12.902 C 8.477 13.202,8.454 13.398,8.454 13.933 C 8.454 14.197,8.466 14.491,8.481 14.587 C 8.630 15.528,9.255 16.035,10.213 15.991 C 10.690 15.969,10.990 15.853,11.288 15.574 C 11.488 15.387,11.613 15.169,11.667 14.914 C 11.731 14.615,11.762 14.640,11.321 14.640 L 10.934 14.640 10.919 14.713 C 10.839 15.087,10.533 15.333,10.148 15.333 C 9.829 15.333,9.571 15.187,9.426 14.924 C 9.295 14.687,9.267 14.511,9.267 13.920 C 9.267 13.344,9.289 13.203,9.421 12.951 C 9.575 12.659,9.797 12.533,10.160 12.533 C 10.325 12.533,10.389 12.546,10.501 12.602 C 10.719 12.711,10.860 12.906,10.919 13.180 L 10.934 13.253 11.322 13.253 L 11.710 13.253 11.693 13.127 C 11.666 12.922,11.581 12.662,11.499 12.533 C 11.314 12.244,10.963 11.999,10.601 11.907 C 10.429 11.863,9.881 11.856,9.693 11.894 M0.000 13.920 L 0.000 15.920 0.400 15.920 L 0.800 15.920 0.800 15.067 L 0.800 14.213 1.640 14.213 L 2.480 14.213 2.480 15.067 L 2.480 15.920 2.867 15.920 L 3.253 15.920 3.253 13.920 L 3.253 11.920 2.867 11.920 L 2.480 11.920 2.480 12.733 L 2.480 13.547 1.640 13.547 L 0.800 13.547 0.800 12.733 L 0.800 11.920 0.400 11.920 L 0.000 11.920 0.000 13.920 M3.973 13.920 L 3.973 15.920 5.253 15.920 L 6.533 15.920 6.533 15.600 L 6.533 15.280 5.640 15.280 L 4.747 15.280 4.747 14.747 L 4.747 14.213 5.587 14.213 L 6.427 14.213 6.427 13.907 L 6.427 13.600 5.587 13.600 L 4.747 13.600 4.747 13.093 L 4.747 12.587 5.640 12.587 L 6.533 12.587 6.533 12.253 L 6.533 11.920 5.253 11.920 L 3.973 11.920 3.973 13.920 M7.120 13.920 L 7.120 15.920 7.520 15.920 L 7.920 15.920 7.920 13.920 L 7.920 11.920 7.520 11.920 L 7.120 11.920 7.120 13.920 " stroke="none" fill-rule="evenodd"></path></svg>