<svg width="16" height="16" fill="currentColor" xmlns="http://www.w3.org/2000/svg"><path d="M3.669 0.028 C 2.991 0.143,2.371 0.651,2.135 1.283 C 1.994 1.659,2.001 1.324,2.000 7.994 C 2.000 14.784,1.990 14.361,2.156 14.767 C 2.347 15.238,2.762 15.653,3.233 15.844 C 3.633 16.007,3.415 16.000,8.000 16.000 C 12.584 16.000,12.367 16.007,12.766 15.845 C 13.233 15.654,13.654 15.233,13.845 14.766 C 14.010 14.361,14.000 14.782,14.000 8.000 C 14.000 1.217,14.010 1.639,13.844 1.233 C 13.666 0.795,13.309 0.422,12.864 0.208 C 12.426 -0.003,12.861 0.015,8.080 0.010 C 5.726 0.008,3.741 0.016,3.669 0.028 M11.220 4.057 C 11.639 4.259,11.553 4.886,11.093 4.984 C 10.903 5.025,5.097 5.025,4.907 4.984 C 4.448 4.886,4.361 4.263,4.778 4.057 L 4.893 4.000 7.998 4.000 L 11.103 4.000 11.220 4.057 M11.220 6.057 C 11.639 6.259,11.553 6.886,11.093 6.984 C 10.903 7.025,5.097 7.025,4.907 6.984 C 4.448 6.886,4.361 6.263,4.778 6.057 L 4.893 6.000 7.998 6.000 L 11.103 6.000 11.220 6.057 M11.220 8.057 C 11.639 8.259,11.553 8.886,11.093 8.984 C 10.903 9.025,5.097 9.025,4.907 8.984 C 4.448 8.886,4.361 8.263,4.778 8.057 L 4.893 8.000 7.998 8.000 L 11.103 8.000 11.220 8.057 M8.180 10.041 C 8.383 10.126,8.488 10.281,8.488 10.496 C 8.488 10.680,8.398 10.836,8.240 10.929 L 8.120 11.000 6.589 11.008 C 4.950 11.016,4.835 11.009,4.692 10.888 C 4.417 10.656,4.462 10.213,4.778 10.057 C 4.892 10.001,4.911 10.000,6.488 10.000 C 7.866 10.000,8.095 10.006,8.180 10.041 " stroke="none" fill-rule="evenodd"></path></svg>