<svg width="16" height="16" fill="currentColor" xmlns="http://www.w3.org/2000/svg"><path d="M3.669 0.028 C 2.993 0.141,2.371 0.651,2.135 1.283 C 1.996 1.656,2.001 1.455,2.000 6.407 L 2.000 11.015 2.500 11.007 L 3.000 11.000 3.013 6.360 L 3.027 1.720 3.099 1.572 C 3.192 1.384,3.384 1.192,3.572 1.099 L 3.720 1.027 6.607 1.020 L 9.493 1.012 9.494 2.060 C 9.494 3.237,9.506 3.344,9.671 3.680 C 9.803 3.950,10.050 4.197,10.320 4.329 C 10.656 4.494,10.763 4.506,11.940 4.506 L 12.987 4.507 12.980 9.393 L 12.973 14.280 12.901 14.427 C 12.862 14.508,12.778 14.626,12.715 14.690 C 12.532 14.874,12.406 14.935,12.073 15.000 L 12.000 15.014 12.000 15.507 L 12.000 16.000 12.094 16.000 C 12.244 16.000,12.570 15.925,12.766 15.845 C 13.233 15.654,13.654 15.233,13.845 14.766 C 14.008 14.365,14.000 14.649,14.000 9.341 L 14.000 4.493 11.753 2.247 L 9.507 0.000 6.653 0.003 C 5.084 0.005,3.741 0.016,3.669 0.028 M0.118 12.299 C 0.181 12.538,0.416 13.432,0.642 14.287 L 1.052 15.840 1.417 15.840 L 1.783 15.840 1.823 15.700 C 1.845 15.623,2.009 15.008,2.188 14.333 C 2.366 13.659,2.519 13.096,2.527 13.083 C 2.534 13.070,2.549 13.076,2.560 13.097 C 2.570 13.117,2.740 13.743,2.936 14.487 L 3.293 15.841 3.664 15.834 L 4.035 15.827 4.549 13.880 C 4.833 12.809,5.065 11.918,5.065 11.900 C 5.066 11.875,4.964 11.867,4.640 11.867 C 4.405 11.867,4.213 11.876,4.213 11.887 C 4.212 11.946,3.632 14.723,3.617 14.738 C 3.608 14.748,3.596 14.751,3.591 14.744 C 3.586 14.738,3.427 14.091,3.237 13.307 L 2.891 11.880 2.542 11.873 L 2.192 11.865 2.159 12.006 C 1.978 12.778,1.496 14.726,1.483 14.739 C 1.474 14.748,1.463 14.751,1.458 14.744 C 1.453 14.738,1.318 14.091,1.157 13.307 L 0.864 11.880 0.434 11.873 L 0.004 11.865 0.118 12.299 M5.376 13.833 C 5.015 14.915,4.720 15.809,4.720 15.821 C 4.720 15.832,4.897 15.838,5.113 15.834 L 5.506 15.827 5.656 15.333 L 5.807 14.840 6.481 14.840 L 7.155 14.840 7.305 15.333 L 7.455 15.827 7.877 15.834 C 8.211 15.840,8.297 15.834,8.287 15.807 C 8.280 15.789,7.982 14.894,7.624 13.820 L 6.974 11.867 6.502 11.867 L 6.031 11.867 5.376 13.833 M8.481 13.843 C 8.847 14.930,9.147 15.824,9.147 15.830 C 9.147 15.836,9.364 15.838,9.630 15.834 L 10.114 15.827 10.763 13.867 C 11.120 12.789,11.412 11.898,11.413 11.887 C 11.413 11.876,11.218 11.867,10.980 11.867 L 10.547 11.867 10.107 13.427 C 9.865 14.285,9.658 14.987,9.648 14.987 C 9.625 14.987,9.651 15.073,9.145 13.300 L 8.736 11.867 8.276 11.867 L 7.816 11.867 8.481 13.843 M6.507 12.623 C 6.507 12.629,6.615 12.991,6.747 13.428 C 6.879 13.864,6.983 14.226,6.977 14.231 C 6.972 14.237,6.745 14.238,6.474 14.234 L 5.980 14.227 6.223 13.420 C 6.357 12.976,6.475 12.613,6.487 12.613 C 6.498 12.613,6.507 12.618,6.507 12.623 " stroke="none" fill-rule="evenodd"></path></svg>