<svg width="16" height="16" fill="currentColor" xmlns="http://www.w3.org/2000/svg"><path d="M3.669 0.028 C 2.992 0.143,2.371 0.651,2.135 1.283 C 1.994 1.659,2.001 1.324,2.000 7.994 C 2.000 14.784,1.990 14.361,2.156 14.767 C 2.347 15.238,2.762 15.653,3.233 15.844 C 3.633 16.007,3.415 16.000,8.000 16.000 C 12.584 16.000,12.367 16.007,12.766 15.845 C 13.234 15.654,13.654 15.233,13.845 14.765 C 14.010 14.361,14.002 14.642,13.994 9.320 L 13.987 4.467 13.899 4.280 C 13.815 4.103,13.709 3.992,11.859 2.143 C 10.031 0.317,9.895 0.188,9.721 0.103 L 9.534 0.013 6.667 0.010 C 5.090 0.007,3.741 0.016,3.669 0.028 M11.007 2.993 C 11.817 3.804,12.480 4.476,12.480 4.487 C 12.480 4.498,12.015 4.507,11.446 4.507 C 10.303 4.507,10.206 4.496,9.968 4.343 C 9.798 4.234,9.689 4.105,9.589 3.895 L 9.507 3.720 9.498 2.620 C 9.493 2.015,9.500 1.520,9.512 1.520 C 9.524 1.520,10.196 2.183,11.007 2.993 M8.537 5.052 C 9.742 5.264,10.736 6.258,10.948 7.463 C 11.028 7.922,10.985 8.535,10.845 8.947 C 10.424 10.179,9.294 10.992,8.000 10.995 C 6.713 10.997,5.576 10.178,5.155 8.947 C 4.964 8.387,4.965 7.612,5.157 7.049 C 5.300 6.630,5.574 6.187,5.881 5.881 C 6.292 5.469,6.888 5.155,7.449 5.053 C 7.711 5.005,8.266 5.005,8.537 5.052 M8.760 12.027 C 10.602 12.149,11.986 12.653,12.778 13.490 L 12.992 13.716 12.983 13.998 C 12.974 14.239,12.962 14.302,12.901 14.428 C 12.758 14.720,12.468 14.934,12.145 14.987 C 12.047 15.003,10.461 15.013,8.000 15.013 C 5.539 15.013,3.953 15.003,3.855 14.987 C 3.532 14.934,3.242 14.720,3.099 14.428 C 3.038 14.302,3.026 14.239,3.017 13.998 L 3.008 13.716 3.222 13.490 C 4.001 12.667,5.403 12.149,7.173 12.030 C 7.653 11.998,8.298 11.997,8.760 12.027 " stroke="none" fill-rule="evenodd"></path></svg>