<svg width="16" height="16" fill="currentColor" xmlns="http://www.w3.org/2000/svg"><path d="M3.669 0.028 C 2.991 0.143,2.371 0.651,2.135 1.283 C 1.994 1.659,2.001 1.324,2.000 7.994 C 2.000 14.784,1.990 14.361,2.156 14.767 C 2.347 15.238,2.762 15.653,3.233 15.844 C 3.633 16.007,3.415 16.000,8.000 16.000 C 12.584 16.000,12.367 16.007,12.766 15.845 C 13.233 15.654,13.654 15.233,13.845 14.766 C 14.010 14.361,14.000 14.782,14.000 8.000 C 14.000 1.217,14.010 1.639,13.844 1.233 C 13.666 0.795,13.309 0.422,12.864 0.208 C 12.426 -0.003,12.861 0.015,8.080 0.010 C 5.726 0.008,3.741 0.016,3.669 0.028 M12.430 1.100 C 12.608 1.188,12.833 1.416,12.915 1.593 L 12.973 1.720 12.980 7.222 L 12.987 12.723 12.855 12.565 C 12.489 12.125,11.790 11.701,10.984 11.430 C 10.126 11.142,9.205 11.013,8.000 11.013 C 6.795 11.013,5.874 11.142,5.016 11.430 C 4.211 11.701,3.511 12.125,3.145 12.565 L 3.013 12.723 3.014 7.261 C 3.015 2.090,3.018 1.793,3.063 1.662 C 3.154 1.399,3.399 1.154,3.662 1.062 C 3.793 1.017,4.025 1.015,8.040 1.021 L 12.280 1.027 12.430 1.100 M7.606 4.029 C 6.945 4.114,6.259 4.470,5.802 4.964 C 4.960 5.874,4.764 7.196,5.306 8.310 C 5.707 9.133,6.462 9.728,7.373 9.937 C 7.672 10.006,8.328 10.006,8.627 9.937 C 9.923 9.639,10.850 8.591,10.987 7.268 C 11.020 6.942,10.987 6.569,10.893 6.216 C 10.508 4.780,9.090 3.836,7.606 4.029 " stroke="none" fill-rule="evenodd"></path></svg>