<svg width="16" height="16" fill="currentColor" xmlns="http://www.w3.org/2000/svg"><path d="M3.669 0.028 C 2.993 0.141,2.371 0.651,2.135 1.283 C 1.996 1.656,2.001 1.455,2.000 6.407 L 2.000 11.015 2.500 11.007 L 3.000 11.000 3.013 6.360 L 3.027 1.720 3.099 1.572 C 3.192 1.384,3.384 1.192,3.572 1.099 L 3.720 1.027 6.607 1.020 L 9.493 1.012 9.494 2.060 C 9.494 3.237,9.506 3.344,9.671 3.680 C 9.803 3.950,10.050 4.197,10.320 4.329 C 10.656 4.494,10.763 4.506,11.940 4.506 L 12.987 4.507 12.980 9.393 L 12.973 14.280 12.901 14.427 C 12.862 14.508,12.778 14.626,12.715 14.690 C 12.532 14.874,12.406 14.935,12.073 15.000 L 12.000 15.014 12.000 15.507 L 12.000 16.000 12.094 16.000 C 12.244 16.000,12.570 15.925,12.766 15.845 C 13.233 15.654,13.654 15.233,13.845 14.766 C 14.008 14.365,14.000 14.649,14.000 9.341 L 14.000 4.493 11.753 2.247 L 9.507 0.000 6.653 0.003 C 5.084 0.005,3.741 0.016,3.669 0.028 M0.044 11.900 C 0.054 11.918,0.326 12.358,0.647 12.877 C 0.967 13.395,1.224 13.835,1.217 13.853 C 1.210 13.872,0.934 14.327,0.603 14.865 C 0.218 15.492,0.015 15.847,0.036 15.855 C 0.054 15.862,0.247 15.865,0.464 15.861 L 0.859 15.853 1.290 15.140 C 1.526 14.748,1.726 14.428,1.733 14.428 C 1.741 14.428,1.939 14.749,2.173 15.141 L 2.600 15.853 3.050 15.861 C 3.440 15.867,3.498 15.863,3.484 15.828 C 3.476 15.806,3.204 15.367,2.879 14.852 C 2.555 14.337,2.284 13.900,2.276 13.880 C 2.265 13.851,2.678 13.180,3.404 12.047 L 3.520 11.867 3.071 11.867 L 2.622 11.867 2.222 12.565 C 2.002 12.950,1.810 13.268,1.797 13.272 C 1.783 13.277,1.588 12.962,1.363 12.574 L 0.955 11.867 0.489 11.867 C 0.124 11.867,0.028 11.874,0.044 11.900 M3.760 13.853 L 3.760 15.840 4.120 15.840 L 4.480 15.840 4.480 14.520 C 4.480 13.794,4.490 13.200,4.502 13.200 C 4.513 13.200,4.737 13.686,4.999 14.280 L 5.475 15.360 5.723 15.360 C 5.968 15.360,5.973 15.359,6.010 15.287 C 6.031 15.246,6.242 14.769,6.479 14.227 C 6.716 13.684,6.921 13.229,6.935 13.215 C 6.951 13.199,6.960 13.694,6.960 14.515 L 6.960 15.840 7.320 15.840 L 7.680 15.840 7.680 13.853 L 7.680 11.867 7.279 11.867 L 6.877 11.867 6.816 12.007 C 6.782 12.084,6.529 12.660,6.254 13.287 C 5.978 13.914,5.744 14.427,5.733 14.427 C 5.723 14.427,5.462 13.854,5.154 13.153 L 4.594 11.880 4.177 11.873 L 3.760 11.865 3.760 13.853 M8.400 13.853 L 8.400 15.840 9.640 15.840 L 10.880 15.840 10.880 15.507 L 10.880 15.173 10.040 15.173 L 9.200 15.173 9.200 13.520 L 9.200 11.867 8.800 11.867 L 8.400 11.867 8.400 13.853 " stroke="none" fill-rule="evenodd"></path></svg>