<svg width="16" height="16" fill="currentColor" xmlns="http://www.w3.org/2000/svg"><path d="M3.669 0.028 C 2.993 0.141,2.371 0.651,2.135 1.283 C 1.996 1.656,2.001 1.455,2.000 6.407 L 2.000 11.015 2.500 11.007 L 3.000 11.000 3.013 6.360 L 3.027 1.720 3.099 1.572 C 3.192 1.384,3.384 1.192,3.572 1.099 L 3.720 1.027 6.607 1.020 L 9.493 1.012 9.494 2.060 C 9.494 3.237,9.506 3.344,9.671 3.680 C 9.803 3.950,10.050 4.197,10.320 4.329 C 10.656 4.494,10.763 4.506,11.940 4.506 L 12.987 4.507 12.980 9.393 L 12.973 14.280 12.901 14.427 C 12.862 14.508,12.778 14.626,12.715 14.690 C 12.532 14.874,12.406 14.935,12.073 15.000 L 12.000 15.014 12.000 15.507 L 12.000 16.000 12.094 16.000 C 12.244 16.000,12.570 15.925,12.766 15.845 C 13.233 15.654,13.654 15.233,13.845 14.766 C 14.008 14.365,14.000 14.649,14.000 9.341 L 14.000 4.493 11.753 2.247 L 9.507 0.000 6.653 0.003 C 5.084 0.005,3.741 0.016,3.669 0.028 M0.000 13.853 L 0.000 15.840 0.969 15.840 C 2.051 15.840,2.183 15.824,2.510 15.649 C 2.976 15.401,3.176 14.846,2.985 14.334 C 2.883 14.061,2.583 13.817,2.295 13.770 C 2.140 13.746,2.140 13.718,2.293 13.667 C 2.474 13.607,2.695 13.402,2.776 13.221 C 2.827 13.106,2.838 13.033,2.839 12.827 C 2.840 12.603,2.831 12.556,2.766 12.423 C 2.683 12.254,2.516 12.087,2.343 11.998 C 2.104 11.876,2.017 11.867,0.980 11.867 L 0.000 11.867 0.000 13.853 M3.547 13.853 L 3.547 15.840 3.907 15.840 L 4.267 15.840 4.267 14.515 C 4.267 13.652,4.276 13.198,4.293 13.215 C 4.307 13.230,4.528 13.715,4.783 14.294 L 5.247 15.347 5.507 15.347 L 5.766 15.347 6.236 14.273 C 6.495 13.683,6.716 13.200,6.727 13.200 C 6.738 13.200,6.747 13.794,6.747 14.520 L 6.747 15.840 7.107 15.840 L 7.467 15.840 7.467 13.853 L 7.467 11.867 7.060 11.867 L 6.653 11.867 6.097 13.140 C 5.791 13.840,5.532 14.423,5.521 14.434 C 5.511 14.446,5.247 13.873,4.934 13.161 L 4.366 11.867 3.956 11.867 L 3.547 11.867 3.547 13.853 M8.187 13.853 L 8.187 15.840 8.573 15.840 L 8.960 15.840 8.960 15.173 L 8.960 14.507 9.474 14.507 C 9.849 14.507,10.032 14.496,10.148 14.466 C 10.761 14.308,11.120 13.836,11.120 13.187 C 11.120 12.564,10.791 12.088,10.244 11.919 C 10.089 11.871,9.993 11.867,9.131 11.867 L 8.187 11.867 8.187 13.853 M1.754 12.495 C 1.962 12.582,2.056 12.726,2.057 12.962 C 2.058 13.224,1.936 13.391,1.683 13.470 C 1.630 13.486,1.410 13.506,1.193 13.513 L 0.800 13.526 0.800 12.990 L 0.800 12.453 1.228 12.453 C 1.553 12.453,1.679 12.463,1.754 12.495 M9.890 12.521 C 10.183 12.609,10.343 12.887,10.312 13.256 C 10.294 13.466,10.227 13.612,10.095 13.728 C 9.949 13.857,9.781 13.893,9.342 13.893 L 8.960 13.893 8.960 13.187 L 8.960 12.480 9.355 12.480 C 9.635 12.480,9.791 12.492,9.890 12.521 M1.874 14.122 C 2.107 14.202,2.240 14.401,2.240 14.672 C 2.239 14.940,2.105 15.120,1.843 15.203 C 1.790 15.220,1.534 15.240,1.273 15.246 L 0.800 15.259 0.800 14.669 L 0.800 14.080 1.275 14.080 C 1.637 14.080,1.780 14.090,1.874 14.122 " stroke="none" fill-rule="evenodd"></path></svg>