<svg width="16" height="16" fill="currentColor" xmlns="http://www.w3.org/2000/svg"><path d="M3.669 0.028 C 2.993 0.141,2.371 0.651,2.135 1.283 C 1.994 1.659,2.001 1.324,2.000 7.994 C 2.000 14.784,1.990 14.361,2.156 14.767 C 2.347 15.238,2.762 15.653,3.233 15.844 C 3.633 16.007,3.415 16.000,8.000 16.000 C 12.584 16.000,12.367 16.007,12.766 15.845 C 13.233 15.654,13.654 15.233,13.845 14.766 C 14.008 14.365,14.000 14.649,14.000 9.341 L 14.000 4.493 11.753 2.247 L 9.507 0.000 6.653 0.003 C 5.084 0.005,3.741 0.016,3.669 0.028 M9.494 2.060 C 9.494 3.237,9.506 3.344,9.671 3.680 C 9.803 3.950,10.050 4.197,10.320 4.329 C 10.656 4.494,10.763 4.506,11.940 4.506 L 12.987 4.507 12.986 9.353 C 12.985 13.934,12.982 14.208,12.937 14.338 C 12.848 14.596,12.619 14.828,12.341 14.942 L 12.200 15.000 8.000 15.000 L 3.800 15.000 3.659 14.942 C 3.381 14.828,3.152 14.596,3.063 14.338 C 3.018 14.207,3.015 13.881,3.015 8.000 C 3.015 2.119,3.018 1.793,3.063 1.662 C 3.154 1.399,3.399 1.154,3.662 1.063 C 3.791 1.018,3.985 1.015,6.647 1.014 L 9.493 1.013 9.494 2.060 M7.800 6.051 C 7.729 6.084,7.335 6.461,6.622 7.177 C 5.438 8.367,5.448 8.354,5.515 8.604 C 5.559 8.769,5.615 8.844,5.751 8.924 C 5.892 9.006,6.079 9.016,6.215 8.947 C 6.266 8.921,6.574 8.635,6.900 8.311 L 7.493 7.722 7.494 9.654 C 7.494 11.476,7.497 11.593,7.544 11.693 C 7.730 12.096,8.270 12.096,8.456 11.693 C 8.503 11.593,8.506 11.476,8.506 9.654 L 8.507 7.722 9.100 8.311 C 9.426 8.635,9.734 8.921,9.785 8.947 C 9.921 9.016,10.108 9.006,10.249 8.924 C 10.385 8.844,10.441 8.769,10.485 8.604 C 10.552 8.354,10.562 8.367,9.378 7.177 C 8.281 6.075,8.194 6.001,8.000 6.001 C 7.949 6.001,7.859 6.024,7.800 6.051 " stroke="none" fill-rule="evenodd"></path></svg>