<svg width="16" height="16" fill="currentColor" xmlns="http://www.w3.org/2000/svg"><path d="M3.669 0.028 C 2.993 0.141,2.371 0.651,2.135 1.283 C 1.996 1.656,2.001 1.455,2.000 6.407 L 2.000 11.015 2.500 11.007 L 3.000 11.000 3.013 6.360 L 3.027 1.720 3.099 1.572 C 3.192 1.384,3.384 1.192,3.572 1.099 L 3.720 1.027 6.607 1.020 L 9.493 1.012 9.494 2.060 C 9.494 3.237,9.506 3.344,9.671 3.680 C 9.803 3.950,10.050 4.197,10.320 4.329 C 10.656 4.494,10.763 4.506,11.940 4.506 L 12.987 4.507 12.986 9.353 C 12.985 13.934,12.982 14.208,12.937 14.338 C 12.848 14.597,12.617 14.831,12.341 14.940 C 12.216 14.990,12.131 14.998,11.593 15.008 L 10.987 15.019 10.987 15.510 L 10.987 16.000 11.588 16.000 C 12.248 16.000,12.450 15.973,12.766 15.845 C 13.233 15.654,13.654 15.233,13.845 14.766 C 14.008 14.365,14.000 14.649,14.000 9.341 L 14.000 4.493 11.753 2.247 L 9.507 0.000 6.653 0.003 C 5.084 0.005,3.741 0.016,3.669 0.028 M0.000 12.187 L 0.000 12.507 0.560 12.507 L 1.120 12.507 1.120 14.173 L 1.120 15.840 1.520 15.840 L 1.920 15.840 1.920 14.173 L 1.920 12.507 2.493 12.507 L 3.067 12.507 3.067 12.187 L 3.067 11.867 1.533 11.867 L 0.000 11.867 0.000 12.187 M3.253 13.853 L 3.253 15.840 3.653 15.840 L 4.053 15.840 4.053 13.853 L 4.053 11.867 3.653 11.867 L 3.253 11.867 3.253 13.853 M4.640 13.853 L 4.640 15.840 5.040 15.840 L 5.440 15.840 5.440 15.053 L 5.440 14.267 6.240 14.267 L 7.040 14.267 7.040 13.947 L 7.040 13.627 6.240 13.627 L 5.440 13.627 5.440 13.067 L 5.440 12.507 6.320 12.507 L 7.200 12.507 7.200 12.187 L 7.200 11.867 5.920 11.867 L 4.640 11.867 4.640 13.853 M7.493 13.853 L 7.493 15.840 7.893 15.840 L 8.293 15.840 8.293 15.054 L 8.293 14.267 9.100 14.260 L 9.907 14.253 9.914 13.940 L 9.922 13.627 9.108 13.627 L 8.293 13.627 8.293 13.067 L 8.293 12.507 9.173 12.507 L 10.053 12.507 10.053 12.187 L 10.053 11.867 8.773 11.867 L 7.493 11.867 7.493 13.853 " stroke="none" fill-rule="evenodd"></path></svg>