<svg width="16" height="16" fill="currentColor" xmlns="http://www.w3.org/2000/svg"><path d="M3.669 0.028 C 2.993 0.141,2.371 0.651,2.135 1.283 C 1.994 1.659,2.001 1.324,2.000 7.994 C 2.000 14.784,1.990 14.361,2.156 14.767 C 2.347 15.238,2.762 15.653,3.233 15.844 C 3.633 16.007,3.415 16.000,8.000 16.000 C 12.584 16.000,12.367 16.007,12.766 15.845 C 13.233 15.654,13.654 15.233,13.845 14.766 C 14.008 14.365,14.000 14.649,14.000 9.341 L 14.000 4.493 11.753 2.247 L 9.507 0.000 6.653 0.003 C 5.084 0.005,3.741 0.016,3.669 0.028 M9.494 2.060 C 9.494 3.237,9.506 3.344,9.671 3.680 C 9.803 3.950,10.050 4.197,10.320 4.329 C 10.656 4.494,10.763 4.506,11.940 4.506 L 12.987 4.507 12.987 7.247 L 12.987 9.986 11.927 8.929 C 11.344 8.348,10.828 7.853,10.781 7.829 C 10.734 7.806,10.634 7.787,10.558 7.787 C 10.290 7.787,10.318 7.755,9.112 9.445 C 8.508 10.292,8.005 10.986,7.996 10.986 C 7.986 10.986,7.480 10.688,6.870 10.323 C 6.139 9.884,5.727 9.652,5.658 9.641 C 5.600 9.631,5.500 9.637,5.436 9.654 C 5.333 9.681,5.195 9.809,4.167 10.835 L 3.013 11.986 3.014 6.893 C 3.015 2.075,3.018 1.793,3.063 1.662 C 3.154 1.399,3.399 1.154,3.662 1.063 C 3.791 1.018,3.985 1.015,6.647 1.014 L 9.493 1.013 9.494 2.060 M6.167 4.039 C 5.756 4.132,5.340 4.461,5.166 4.830 C 5.044 5.087,5.010 5.239,5.011 5.518 C 5.013 6.181,5.459 6.757,6.119 6.948 C 6.341 7.012,6.709 7.007,6.933 6.936 C 7.436 6.778,7.819 6.378,7.947 5.878 C 8.043 5.504,8.011 5.198,7.839 4.840 C 7.669 4.485,7.336 4.195,6.962 4.077 C 6.737 4.006,6.386 3.989,6.167 4.039 " stroke="none" fill-rule="evenodd"></path></svg>