<svg width="16" height="16" fill="currentColor" xmlns="http://www.w3.org/2000/svg"><path d="M3.669 0.028 C 2.993 0.141,2.371 0.651,2.135 1.283 C 1.996 1.656,2.001 1.455,2.000 6.407 L 2.000 11.015 2.500 11.007 L 3.000 11.000 3.013 6.360 L 3.027 1.720 3.099 1.572 C 3.192 1.384,3.384 1.192,3.572 1.099 L 3.720 1.027 6.607 1.020 L 9.493 1.012 9.494 2.060 C 9.494 3.237,9.506 3.344,9.671 3.680 C 9.803 3.950,10.050 4.197,10.320 4.329 C 10.656 4.494,10.763 4.506,11.940 4.506 L 12.987 4.507 12.986 9.353 C 12.985 13.934,12.982 14.208,12.937 14.338 C 12.848 14.596,12.619 14.828,12.341 14.942 C 12.202 14.999,12.172 15.000,10.593 15.008 L 8.987 15.016 8.987 15.508 L 8.987 16.000 10.588 16.000 C 12.334 16.000,12.396 15.996,12.766 15.845 C 13.233 15.654,13.654 15.233,13.845 14.766 C 14.008 14.365,14.000 14.649,14.000 9.341 L 14.000 4.493 11.753 2.247 L 9.507 0.000 6.653 0.003 C 5.084 0.005,3.741 0.016,3.669 0.028 M1.487 11.871 C 0.696 11.932,0.172 12.440,0.025 13.288 C 0.005 13.407,-0.002 13.665,0.007 14.035 C 0.017 14.495,0.030 14.638,0.075 14.804 C 0.217 15.331,0.526 15.693,0.987 15.874 C 1.472 16.065,2.112 16.041,2.573 15.815 C 2.771 15.718,3.009 15.484,3.117 15.281 C 3.253 15.027,3.283 14.864,3.299 14.300 L 3.314 13.787 2.509 13.787 L 1.705 13.787 1.712 14.073 L 1.720 14.360 2.130 14.367 L 2.540 14.375 2.528 14.607 C 2.503 15.091,2.233 15.333,1.716 15.333 C 1.241 15.333,0.937 15.060,0.838 14.542 C 0.793 14.305,0.787 13.588,0.828 13.333 C 0.886 12.977,1.073 12.704,1.343 12.586 C 1.512 12.511,1.821 12.505,2.025 12.573 C 2.208 12.634,2.402 12.820,2.458 12.988 L 2.498 13.107 2.891 13.114 L 3.285 13.121 3.267 13.034 C 3.175 12.574,2.919 12.229,2.524 12.033 C 2.231 11.887,1.914 11.837,1.487 11.871 M3.840 13.920 L 3.840 15.920 4.240 15.920 L 4.640 15.920 4.640 13.920 L 4.640 11.920 4.240 11.920 L 3.840 11.920 3.840 13.920 M5.333 13.920 L 5.333 15.920 5.733 15.920 L 6.133 15.920 6.133 15.134 L 6.133 14.347 6.927 14.340 L 7.720 14.333 7.728 14.020 L 7.735 13.707 6.934 13.707 L 6.133 13.707 6.133 13.147 L 6.133 12.587 7.007 12.580 L 7.880 12.573 7.880 12.253 L 7.880 11.933 6.607 11.926 L 5.333 11.919 5.333 13.920 " stroke="none" fill-rule="evenodd"></path></svg>