<svg width="16" height="16" fill="currentColor" xmlns="http://www.w3.org/2000/svg"><path d="M3.669 0.028 C 2.992 0.143,2.371 0.651,2.135 1.283 C 1.994 1.659,2.001 1.324,2.000 7.994 C 2.000 14.784,1.990 14.361,2.156 14.767 C 2.347 15.238,2.762 15.653,3.233 15.844 C 3.633 16.007,3.415 16.000,8.000 16.000 C 12.584 16.000,12.367 16.007,12.766 15.845 C 13.234 15.654,13.654 15.233,13.845 14.765 C 14.010 14.361,14.002 14.642,13.994 9.320 L 13.987 4.467 13.899 4.280 C 13.815 4.103,13.709 3.992,11.859 2.143 C 10.031 0.317,9.895 0.188,9.721 0.103 L 9.534 0.013 6.667 0.010 C 5.090 0.007,3.741 0.016,3.669 0.028 M11.007 2.993 C 11.817 3.804,12.480 4.476,12.480 4.487 C 12.480 4.498,12.015 4.507,11.446 4.507 C 10.303 4.507,10.206 4.496,9.968 4.343 C 9.798 4.234,9.689 4.105,9.589 3.895 L 9.507 3.720 9.498 2.620 C 9.493 2.015,9.500 1.520,9.512 1.520 C 9.524 1.520,10.196 2.183,11.007 2.993 M11.728 7.064 C 11.850 7.126,11.906 7.187,11.959 7.313 C 11.995 7.400,12.000 7.780,12.000 10.493 C 12.000 13.892,12.011 13.677,11.833 13.860 C 11.787 13.908,11.707 13.959,11.655 13.973 C 11.532 14.008,10.468 14.008,10.345 13.973 C 10.293 13.959,10.213 13.908,10.167 13.860 C 9.989 13.677,10.000 13.893,10.001 10.488 C 10.001 7.549,10.004 7.395,10.050 7.293 C 10.103 7.177,10.156 7.123,10.280 7.058 C 10.346 7.023,10.468 7.015,10.994 7.014 C 11.566 7.013,11.639 7.018,11.728 7.064 M8.685 9.042 C 8.787 9.080,8.906 9.195,8.950 9.299 C 8.980 9.370,8.987 9.764,8.987 11.507 C 8.987 13.536,8.984 13.633,8.936 13.728 C 8.810 13.975,8.723 14.000,8.000 14.000 C 7.277 14.000,7.190 13.975,7.064 13.728 C 7.016 13.633,7.013 13.536,7.013 11.493 C 7.013 9.707,7.019 9.346,7.051 9.285 C 7.092 9.207,7.208 9.091,7.293 9.044 C 7.365 9.005,8.582 9.003,8.685 9.042 M5.728 11.064 C 5.850 11.126,5.906 11.187,5.959 11.313 C 6.020 11.460,6.020 13.527,5.959 13.674 C 5.902 13.810,5.768 13.942,5.655 13.973 C 5.532 14.008,4.468 14.008,4.345 13.973 C 4.293 13.959,4.213 13.908,4.167 13.860 C 4.000 13.688,4.000 13.685,4.001 12.488 C 4.001 11.489,4.005 11.391,4.050 11.293 C 4.103 11.177,4.156 11.123,4.280 11.058 C 4.346 11.023,4.468 11.015,4.994 11.014 C 5.566 11.013,5.639 11.018,5.728 11.064 " stroke="none" fill-rule="evenodd"></path></svg>