<svg width="16" height="16" fill="currentColor" xmlns="http://www.w3.org/2000/svg"><path d="M3.669 0.028 C 2.992 0.143,2.371 0.651,2.135 1.283 C 1.994 1.659,2.001 1.324,2.000 7.994 C 2.000 14.784,1.990 14.361,2.156 14.767 C 2.347 15.238,2.762 15.653,3.233 15.844 C 3.633 16.007,3.415 16.000,8.000 16.000 C 12.584 16.000,12.367 16.007,12.766 15.845 C 13.234 15.654,13.654 15.233,13.845 14.765 C 14.010 14.361,14.002 14.642,13.994 9.320 L 13.987 4.467 13.899 4.280 C 13.815 4.103,13.709 3.992,11.859 2.143 C 10.031 0.317,9.895 0.188,9.721 0.103 L 9.534 0.013 6.667 0.010 C 5.090 0.007,3.741 0.016,3.669 0.028 M11.007 2.993 C 11.817 3.804,12.480 4.476,12.480 4.487 C 12.480 4.498,12.015 4.507,11.446 4.507 C 10.303 4.507,10.206 4.496,9.968 4.343 C 9.798 4.234,9.689 4.105,9.589 3.895 L 9.507 3.720 9.498 2.620 C 9.493 2.015,9.500 1.520,9.512 1.520 C 9.524 1.520,10.196 2.183,11.007 2.993 M5.151 6.518 C 5.249 6.539,5.379 6.654,5.437 6.770 C 5.464 6.823,5.717 7.796,6.001 8.932 C 6.363 10.383,6.522 10.982,6.538 10.945 C 6.550 10.917,6.777 10.095,7.042 9.120 C 7.329 8.064,7.549 7.303,7.586 7.240 C 7.776 6.912,8.272 6.940,8.435 7.287 C 8.472 7.364,8.721 8.236,8.990 9.225 L 9.478 11.023 10.002 8.924 C 10.406 7.309,10.543 6.802,10.594 6.724 C 10.703 6.559,10.920 6.480,11.115 6.532 C 11.330 6.590,11.493 6.792,11.493 6.999 C 11.493 7.051,11.151 8.465,10.732 10.140 C 10.165 12.410,9.954 13.211,9.907 13.283 C 9.782 13.474,9.490 13.547,9.280 13.440 C 9.072 13.334,9.079 13.353,8.526 11.324 C 8.244 10.288,8.007 9.441,8.000 9.441 C 7.993 9.440,7.759 10.276,7.482 11.296 C 7.204 12.317,6.957 13.190,6.932 13.236 C 6.908 13.281,6.844 13.354,6.791 13.397 C 6.589 13.560,6.237 13.503,6.093 13.283 C 6.046 13.211,5.835 12.410,5.268 10.140 C 4.849 8.465,4.507 7.045,4.507 6.986 C 4.507 6.927,4.523 6.839,4.543 6.792 C 4.585 6.692,4.748 6.540,4.834 6.521 C 4.994 6.487,5.002 6.487,5.151 6.518 " stroke="none" fill-rule="evenodd"></path></svg>