<svg width="16" height="16" fill="currentColor" xmlns="http://www.w3.org/2000/svg"><path d="M3.669 0.028 C 2.993 0.141,2.371 0.651,2.135 1.283 C 1.994 1.659,2.001 1.324,2.000 7.994 C 2.000 14.784,1.990 14.361,2.156 14.767 C 2.347 15.238,2.762 15.653,3.233 15.844 C 3.633 16.007,3.415 16.000,8.000 16.000 C 12.584 16.000,12.367 16.007,12.766 15.845 C 13.233 15.654,13.654 15.233,13.845 14.766 C 14.008 14.365,14.000 14.649,14.000 9.341 L 14.000 4.493 11.753 2.247 L 9.507 0.000 6.653 0.003 C 5.084 0.005,3.741 0.016,3.669 0.028 M9.494 2.060 C 9.494 3.237,9.506 3.344,9.671 3.680 C 9.803 3.950,10.050 4.197,10.320 4.329 C 10.656 4.494,10.763 4.506,11.940 4.506 L 12.987 4.507 12.986 9.353 C 12.985 13.934,12.982 14.208,12.937 14.338 C 12.848 14.596,12.619 14.828,12.341 14.942 L 12.200 15.000 8.000 15.000 L 3.800 15.000 3.659 14.942 C 3.381 14.828,3.152 14.596,3.063 14.338 C 3.018 14.207,3.015 13.881,3.015 8.000 C 3.015 2.119,3.018 1.793,3.063 1.662 C 3.154 1.399,3.399 1.154,3.662 1.063 C 3.791 1.018,3.985 1.015,6.647 1.014 L 9.493 1.013 9.494 2.060 M7.960 5.621 C 7.552 5.762,7.297 6.059,7.203 6.501 C 7.099 6.993,7.243 7.797,7.592 8.673 L 7.685 8.906 7.559 9.206 C 7.384 9.624,6.943 10.547,6.767 10.866 L 6.621 11.131 6.317 11.241 C 5.026 11.710,4.227 12.322,4.080 12.956 C 3.980 13.385,4.184 13.875,4.537 14.055 C 5.093 14.339,5.807 13.808,6.710 12.439 C 6.826 12.264,6.968 12.039,7.026 11.940 C 7.145 11.736,7.091 11.762,7.693 11.614 C 8.049 11.527,8.671 11.412,8.987 11.375 L 9.134 11.358 9.240 11.498 C 9.396 11.704,9.906 12.211,10.107 12.358 C 10.663 12.768,11.168 12.830,11.541 12.536 C 11.887 12.262,12.060 11.720,11.919 11.347 C 11.716 10.812,11.062 10.560,9.871 10.560 L 9.473 10.560 9.341 10.367 C 9.141 10.074,8.897 9.661,8.688 9.262 L 8.500 8.903 8.663 8.418 C 9.207 6.795,9.198 5.923,8.634 5.642 C 8.464 5.557,8.170 5.548,7.960 5.621 M8.309 6.446 C 8.320 6.522,8.311 6.691,8.284 6.879 C 8.239 7.193,8.120 7.703,8.083 7.741 C 8.055 7.769,7.954 7.316,7.931 7.063 C 7.898 6.684,7.968 6.438,8.134 6.354 C 8.256 6.292,8.288 6.309,8.309 6.446 M8.241 10.020 C 8.304 10.134,8.414 10.320,8.487 10.434 C 8.560 10.549,8.614 10.648,8.608 10.654 C 8.601 10.661,8.435 10.697,8.238 10.734 C 8.041 10.771,7.832 10.812,7.773 10.826 C 7.715 10.841,7.658 10.852,7.646 10.853 C 7.635 10.853,7.684 10.736,7.755 10.593 C 7.826 10.450,7.936 10.216,8.000 10.073 C 8.064 9.930,8.119 9.813,8.122 9.813 C 8.126 9.813,8.179 9.906,8.241 10.020 M10.733 11.375 C 10.979 11.425,11.195 11.532,11.216 11.613 C 11.233 11.683,11.153 11.887,11.085 11.943 C 10.974 12.034,10.642 11.858,10.297 11.525 L 10.067 11.304 10.307 11.321 C 10.439 11.330,10.630 11.354,10.733 11.375 M5.906 12.287 C 5.673 12.655,5.165 13.219,4.976 13.320 C 4.877 13.373,4.876 13.373,4.838 13.322 C 4.710 13.147,4.946 12.792,5.372 12.520 C 5.556 12.402,5.898 12.214,5.930 12.214 C 5.942 12.214,5.932 12.246,5.906 12.287 " stroke="none" fill-rule="evenodd"></path></svg>