<svg width="16" height="16" fill="currentColor" xmlns="http://www.w3.org/2000/svg"><path d="M3.669 0.028 C 2.993 0.141,2.371 0.651,2.135 1.283 C 1.996 1.656,2.001 1.455,2.000 6.407 L 2.000 11.015 2.500 11.007 L 3.000 11.000 3.013 6.360 L 3.027 1.720 3.099 1.572 C 3.192 1.384,3.384 1.192,3.572 1.099 L 3.720 1.027 6.607 1.020 L 9.493 1.012 9.494 2.060 C 9.494 3.237,9.506 3.344,9.671 3.680 C 9.803 3.950,10.050 4.197,10.320 4.329 C 10.656 4.494,10.763 4.506,11.940 4.506 L 12.987 4.507 12.980 9.393 L 12.973 14.280 12.901 14.427 C 12.862 14.508,12.778 14.626,12.715 14.690 C 12.532 14.874,12.406 14.935,12.073 15.000 L 12.000 15.014 12.000 15.507 L 12.000 16.000 12.094 16.000 C 12.244 16.000,12.570 15.925,12.766 15.845 C 13.233 15.654,13.654 15.233,13.845 14.766 C 14.008 14.365,14.000 14.649,14.000 9.341 L 14.000 4.493 11.753 2.247 L 9.507 0.000 6.653 0.003 C 5.084 0.005,3.741 0.016,3.669 0.028 M5.180 11.860 L 4.373 11.867 4.373 13.854 L 4.373 15.840 4.773 15.840 L 5.173 15.840 5.173 15.176 L 5.173 14.512 5.753 14.500 C 6.267 14.490,6.352 14.482,6.498 14.429 C 6.844 14.305,7.134 14.015,7.252 13.676 C 7.333 13.445,7.352 13.084,7.296 12.846 C 7.160 12.267,6.723 11.906,6.107 11.862 C 6.041 11.857,5.624 11.857,5.180 11.860 M0.000 13.853 L 0.000 15.840 0.360 15.840 L 0.720 15.840 0.720 14.516 C 0.720 13.787,0.729 13.200,0.740 13.211 C 0.751 13.222,0.970 13.707,1.227 14.289 L 1.694 15.347 1.948 15.354 L 2.203 15.362 2.244 15.274 C 2.267 15.226,2.481 14.740,2.719 14.193 C 2.958 13.647,3.164 13.200,3.177 13.200 C 3.190 13.200,3.200 13.787,3.200 14.520 L 3.200 15.840 3.560 15.840 L 3.920 15.840 3.920 13.853 L 3.920 11.867 3.510 11.867 L 3.100 11.867 3.028 12.033 C 2.483 13.293,1.961 14.451,1.947 14.435 C 1.937 14.423,1.678 13.840,1.371 13.140 L 0.814 11.867 0.407 11.867 L 0.000 11.867 0.000 13.853 M8.664 12.113 C 8.582 12.249,8.340 12.648,8.127 13.000 C 7.914 13.352,7.636 13.826,7.509 14.053 L 7.279 14.467 7.286 14.787 L 7.293 15.107 8.260 15.114 L 9.227 15.121 9.227 15.480 L 9.227 15.840 9.600 15.840 L 9.973 15.840 9.973 15.480 L 9.973 15.120 10.213 15.120 L 10.453 15.120 10.453 14.800 L 10.453 14.480 10.213 14.480 L 9.973 14.480 9.973 13.173 L 9.973 11.867 9.393 11.867 L 8.813 11.867 8.664 12.113 M9.227 13.467 L 9.227 14.480 8.628 14.480 C 8.299 14.480,8.025 14.471,8.019 14.460 C 7.992 14.412,9.147 12.453,9.202 12.453 C 9.217 12.453,9.227 12.859,9.227 13.467 M6.064 12.509 C 6.231 12.556,6.360 12.657,6.442 12.808 C 6.508 12.929,6.518 12.976,6.519 13.173 C 6.520 13.436,6.459 13.596,6.305 13.731 C 6.162 13.856,5.992 13.893,5.555 13.893 L 5.173 13.893 5.173 13.187 L 5.173 12.480 5.567 12.480 C 5.783 12.480,6.007 12.493,6.064 12.509 " stroke="none" fill-rule="evenodd"></path></svg>