<svg width="16" height="16" fill="currentColor" xmlns="http://www.w3.org/2000/svg"><path d="M3.669 0.028 C 2.993 0.141,2.371 0.651,2.135 1.283 C 1.996 1.656,2.001 1.455,2.000 6.407 L 2.000 11.015 2.500 11.007 L 3.000 11.000 3.013 6.360 L 3.027 1.720 3.099 1.572 C 3.192 1.384,3.384 1.192,3.572 1.099 L 3.720 1.027 6.607 1.020 L 9.493 1.012 9.494 2.060 C 9.494 3.237,9.506 3.344,9.671 3.680 C 9.803 3.950,10.050 4.197,10.320 4.329 C 10.656 4.494,10.763 4.506,11.940 4.506 L 12.987 4.507 12.986 9.353 C 12.985 13.934,12.982 14.208,12.937 14.338 C 12.848 14.596,12.619 14.828,12.341 14.942 C 12.201 15.000,12.186 15.000,10.100 15.008 L 8.000 15.015 8.000 15.508 L 8.000 16.000 10.094 16.000 C 12.380 16.000,12.385 16.000,12.766 15.845 C 13.233 15.654,13.654 15.233,13.845 14.766 C 14.008 14.365,14.000 14.649,14.000 9.341 L 14.000 4.493 11.753 2.247 L 9.507 0.000 6.653 0.003 C 5.084 0.005,3.741 0.016,3.669 0.028 M4.200 11.898 C 3.985 11.938,3.655 12.112,3.495 12.270 C 3.288 12.473,3.192 12.692,3.178 12.993 C 3.162 13.327,3.236 13.549,3.434 13.763 C 3.630 13.975,3.855 14.083,4.347 14.201 C 4.988 14.356,5.065 14.379,5.189 14.457 C 5.409 14.597,5.473 14.820,5.359 15.055 C 5.216 15.351,4.697 15.470,4.264 15.308 C 4.094 15.245,3.949 15.113,3.880 14.959 L 3.832 14.853 3.447 14.853 L 3.062 14.853 3.080 14.940 C 3.168 15.380,3.381 15.660,3.764 15.839 C 4.006 15.953,4.254 15.999,4.621 16.000 C 5.499 16.001,6.066 15.624,6.187 14.960 C 6.250 14.616,6.161 14.280,5.946 14.044 C 5.747 13.826,5.528 13.729,4.880 13.570 C 4.086 13.375,3.962 13.292,3.980 12.970 C 3.997 12.662,4.203 12.504,4.613 12.485 C 4.798 12.477,4.868 12.485,4.992 12.532 C 5.163 12.597,5.345 12.775,5.374 12.908 L 5.391 12.987 5.766 12.987 L 6.141 12.987 6.123 12.861 C 6.064 12.426,5.686 12.048,5.185 11.920 C 4.959 11.862,4.452 11.850,4.200 11.898 M1.834 13.447 L 1.827 14.947 1.761 15.061 C 1.673 15.216,1.556 15.283,1.347 15.300 C 1.208 15.311,1.156 15.303,1.055 15.254 C 0.913 15.186,0.806 15.046,0.783 14.900 L 0.767 14.800 0.383 14.800 L 0.000 14.800 -0.000 14.891 C -0.000 15.024,0.100 15.329,0.191 15.472 C 0.412 15.820,0.792 16.000,1.307 16.000 C 1.569 16.000,1.787 15.958,1.992 15.867 C 2.155 15.795,2.404 15.548,2.489 15.375 C 2.635 15.077,2.639 15.020,2.640 13.420 L 2.640 11.947 2.241 11.947 L 1.842 11.947 1.834 13.447 " stroke="none" fill-rule="evenodd"></path></svg>