<svg width="16" height="16" fill="currentColor" xmlns="http://www.w3.org/2000/svg"><path d="M3.669 0.028 C 2.993 0.141,2.371 0.651,2.135 1.283 C 1.994 1.659,2.001 1.324,2.000 7.994 C 2.000 14.784,1.990 14.361,2.156 14.767 C 2.347 15.238,2.762 15.653,3.233 15.844 C 3.633 16.007,3.415 16.000,8.000 16.000 C 12.584 16.000,12.367 16.007,12.766 15.845 C 13.233 15.654,13.654 15.233,13.845 14.766 C 14.008 14.365,14.000 14.649,14.000 9.341 L 14.000 4.493 11.753 2.247 L 9.507 0.000 6.653 0.003 C 5.084 0.005,3.741 0.016,3.669 0.028 M9.494 2.060 C 9.494 3.237,9.506 3.344,9.671 3.680 C 9.803 3.950,10.050 4.197,10.320 4.329 C 10.656 4.494,10.763 4.506,11.940 4.506 L 12.987 4.507 12.986 9.353 C 12.985 13.934,12.982 14.208,12.937 14.338 C 12.848 14.596,12.619 14.828,12.341 14.942 L 12.200 15.000 8.000 15.000 L 3.800 15.000 3.659 14.942 C 3.381 14.828,3.152 14.596,3.063 14.338 C 3.018 14.207,3.015 13.881,3.015 8.000 C 3.015 2.119,3.018 1.793,3.063 1.662 C 3.154 1.399,3.399 1.154,3.662 1.063 C 3.791 1.018,3.985 1.015,6.647 1.014 L 9.493 1.013 9.494 2.060 M4.262 3.067 C 4.074 3.167,3.979 3.364,4.012 3.587 C 4.035 3.744,4.197 3.932,4.343 3.973 C 4.402 3.989,4.957 4.000,5.772 4.000 C 7.074 4.000,7.106 3.999,7.220 3.943 C 7.398 3.857,7.480 3.715,7.480 3.491 C 7.480 3.331,7.471 3.301,7.398 3.209 C 7.235 3.006,7.301 3.013,5.747 3.015 C 4.429 3.016,4.355 3.018,4.262 3.067 M4.307 6.051 C 4.171 6.113,4.060 6.232,4.026 6.348 C 3.990 6.473,3.991 13.526,4.026 13.654 C 4.059 13.772,4.227 13.939,4.348 13.974 C 4.473 14.010,11.525 14.009,11.654 13.974 C 11.772 13.941,11.939 13.773,11.974 13.652 C 12.010 13.527,12.009 6.475,11.973 6.345 C 11.959 6.293,11.908 6.213,11.860 6.167 C 11.676 5.988,11.945 6.000,7.994 6.001 C 4.566 6.001,4.409 6.003,4.307 6.051 " stroke="none" fill-rule="evenodd"></path></svg>