<svg width="16" height="16" fill="currentColor" xmlns="http://www.w3.org/2000/svg"><path d="M3.669 0.028 C 2.991 0.143,2.371 0.651,2.135 1.283 C 1.994 1.659,2.001 1.324,2.000 7.994 C 2.000 14.784,1.990 14.361,2.156 14.767 C 2.347 15.238,2.762 15.653,3.233 15.844 C 3.633 16.007,3.415 16.000,8.000 16.000 C 12.584 16.000,12.367 16.007,12.766 15.845 C 13.233 15.654,13.654 15.233,13.845 14.766 C 14.010 14.361,14.000 14.782,14.000 8.000 C 14.000 1.217,14.010 1.639,13.844 1.233 C 13.666 0.795,13.309 0.422,12.864 0.208 C 12.426 -0.003,12.861 0.015,8.080 0.010 C 5.726 0.008,3.741 0.016,3.669 0.028 M5.902 8.733 C 6.518 8.894,6.902 9.445,7.013 10.328 C 7.073 10.805,7.030 11.559,6.923 11.916 C 6.728 12.570,6.391 12.928,5.850 13.056 C 5.500 13.138,5.023 13.058,4.752 12.870 C 4.293 12.552,4.056 11.980,4.011 11.080 C 3.947 9.827,4.369 8.938,5.123 8.736 C 5.313 8.684,5.710 8.683,5.902 8.733 M9.733 10.587 L 9.733 12.400 10.293 12.400 L 10.853 12.400 10.853 12.707 L 10.853 13.013 9.360 13.013 L 7.867 13.013 7.867 12.707 L 7.867 12.400 8.453 12.400 L 9.040 12.400 9.040 10.944 C 9.040 9.639,9.036 9.489,8.999 9.503 C 8.976 9.512,8.712 9.681,8.412 9.879 L 7.867 10.238 7.867 9.893 L 7.867 9.548 8.447 9.163 L 9.027 8.778 9.380 8.776 L 9.733 8.773 9.733 10.587 M5.230 9.350 C 4.998 9.466,4.849 9.715,4.757 10.145 C 4.713 10.345,4.672 11.120,4.705 11.120 C 4.716 11.120,5.071 10.866,5.494 10.556 L 6.263 9.993 6.207 9.843 C 6.104 9.564,5.991 9.428,5.787 9.336 C 5.613 9.257,5.406 9.262,5.230 9.350 M5.566 11.208 C 4.701 11.846,4.761 11.767,4.908 12.070 C 5.132 12.534,5.646 12.642,5.990 12.297 C 6.211 12.075,6.317 11.706,6.339 11.087 C 6.347 10.841,6.349 10.641,6.344 10.642 C 6.338 10.643,5.988 10.898,5.566 11.208 " stroke="none" fill-rule="evenodd"></path></svg>