<svg width="16" height="16" fill="currentColor" xmlns="http://www.w3.org/2000/svg"><path d="M3.669 0.028 C 2.993 0.141,2.371 0.651,2.135 1.283 C 1.996 1.656,2.001 1.455,2.000 6.407 L 2.000 11.015 2.500 11.007 L 3.000 11.000 3.013 6.360 L 3.027 1.720 3.099 1.572 C 3.192 1.384,3.384 1.192,3.572 1.099 L 3.720 1.027 6.607 1.020 L 9.493 1.012 9.494 2.060 C 9.494 3.237,9.506 3.344,9.671 3.680 C 9.803 3.950,10.050 4.197,10.320 4.329 C 10.656 4.494,10.763 4.506,11.940 4.506 L 12.986 4.507 12.993 7.753 L 13.000 11.000 13.500 11.007 L 14.000 11.015 14.000 7.754 L 14.000 4.493 11.753 2.247 L 9.507 0.000 6.653 0.003 C 5.084 0.005,3.741 0.016,3.669 0.028 M5.099 11.921 C 4.819 11.994,4.610 12.115,4.428 12.309 C 4.021 12.744,4.035 13.433,4.459 13.829 C 4.638 13.997,4.862 14.094,5.324 14.203 C 6.073 14.381,6.190 14.430,6.313 14.611 C 6.435 14.793,6.363 15.109,6.169 15.237 C 5.940 15.388,5.547 15.423,5.248 15.319 C 5.086 15.263,4.898 15.096,4.843 14.960 L 4.800 14.853 4.417 14.853 L 4.034 14.853 4.058 14.993 C 4.140 15.470,4.528 15.834,5.085 15.957 C 5.517 16.053,6.132 15.994,6.494 15.823 C 6.687 15.731,6.927 15.511,7.021 15.339 C 7.268 14.885,7.204 14.321,6.868 14.003 C 6.638 13.786,6.462 13.714,5.751 13.547 C 5.262 13.432,5.141 13.381,5.017 13.241 C 4.947 13.160,4.933 13.123,4.933 13.011 C 4.933 12.756,5.089 12.574,5.368 12.505 C 5.550 12.460,5.881 12.485,6.015 12.554 C 6.153 12.625,6.309 12.796,6.333 12.904 L 6.351 12.987 6.726 12.987 L 7.101 12.987 7.085 12.855 C 7.033 12.416,6.579 11.988,6.068 11.895 C 5.813 11.849,5.323 11.862,5.099 11.921 M8.751 11.908 C 8.187 12.030,7.753 12.457,7.585 13.053 C 7.528 13.257,7.500 14.295,7.544 14.578 C 7.627 15.119,7.888 15.535,8.298 15.783 C 8.352 15.815,8.484 15.873,8.591 15.911 C 8.851 16.003,9.405 16.029,9.693 15.962 C 10.292 15.821,10.697 15.422,10.871 14.800 C 10.943 14.544,10.943 13.323,10.871 13.067 C 10.697 12.445,10.274 12.029,9.693 11.907 C 9.462 11.858,8.977 11.859,8.751 11.908 M2.800 13.404 C 2.800 14.984,2.798 15.008,2.654 15.161 C 2.502 15.322,2.153 15.354,1.961 15.225 C 1.866 15.160,1.733 14.941,1.733 14.848 C 1.733 14.804,1.702 14.800,1.347 14.800 C 0.901 14.800,0.927 14.778,1.000 15.087 C 1.110 15.553,1.445 15.877,1.918 15.976 C 2.140 16.022,2.618 15.994,2.813 15.924 C 3.153 15.801,3.384 15.575,3.518 15.231 L 3.587 15.053 3.594 13.500 L 3.602 11.947 3.201 11.947 L 2.800 11.947 2.800 13.404 M11.493 13.947 L 11.493 15.948 11.860 15.941 L 12.227 15.933 12.240 14.588 L 12.253 13.242 13.144 14.595 L 14.034 15.948 14.357 15.941 L 14.680 15.933 14.687 13.940 L 14.694 11.947 14.307 11.947 L 13.920 11.947 13.920 13.272 C 13.920 14.100,13.911 14.588,13.895 14.572 C 13.881 14.558,13.487 13.965,13.018 13.253 L 12.166 11.960 11.830 11.953 L 11.493 11.945 11.493 13.947 M9.588 12.599 C 9.781 12.685,9.909 12.808,9.998 12.996 C 10.107 13.226,10.133 13.409,10.133 13.933 C 10.133 14.624,10.066 14.874,9.815 15.118 C 9.650 15.279,9.475 15.344,9.212 15.343 C 8.886 15.341,8.634 15.191,8.483 14.909 C 8.359 14.675,8.321 14.456,8.321 13.960 C 8.320 13.454,8.350 13.242,8.450 13.027 C 8.548 12.816,8.633 12.720,8.799 12.630 C 9.039 12.499,9.336 12.487,9.588 12.599 " stroke="none" fill-rule="evenodd"></path></svg>