<svg width="16" height="16" fill="currentColor" xmlns="http://www.w3.org/2000/svg"><path d="M3.669 0.028 C 2.992 0.143,2.371 0.651,2.135 1.283 C 1.994 1.659,2.001 1.324,2.000 7.994 C 2.000 14.784,1.990 14.361,2.156 14.767 C 2.347 15.238,2.762 15.653,3.233 15.844 C 3.633 16.007,3.415 16.000,8.000 16.000 C 12.584 16.000,12.367 16.007,12.766 15.845 C 13.234 15.654,13.654 15.233,13.845 14.765 C 14.010 14.361,14.002 14.642,13.994 9.320 L 13.987 4.467 13.899 4.280 C 13.815 4.103,13.709 3.992,11.859 2.143 C 10.031 0.317,9.895 0.188,9.721 0.103 L 9.534 0.013 6.667 0.010 C 5.090 0.007,3.741 0.016,3.669 0.028 M11.007 2.993 C 11.817 3.804,12.480 4.476,12.480 4.487 C 12.480 4.498,12.015 4.507,11.446 4.507 C 10.303 4.507,10.206 4.496,9.968 4.343 C 9.798 4.234,9.689 4.105,9.589 3.895 L 9.507 3.720 9.498 2.620 C 9.493 2.015,9.500 1.520,9.512 1.520 C 9.524 1.520,10.196 2.183,11.007 2.993 M6.246 5.073 C 6.309 5.108,6.381 5.182,6.422 5.253 C 6.488 5.365,6.494 5.400,6.503 5.749 L 6.512 6.125 6.836 5.943 C 7.123 5.780,7.174 5.760,7.301 5.760 C 7.469 5.760,7.562 5.803,7.676 5.932 C 7.777 6.048,7.797 6.118,7.781 6.306 C 7.764 6.510,7.680 6.606,7.353 6.797 C 7.203 6.885,7.063 6.967,7.042 6.980 C 7.015 6.997,7.089 7.052,7.316 7.184 C 7.684 7.397,7.764 7.485,7.781 7.694 C 7.797 7.882,7.777 7.952,7.676 8.068 C 7.568 8.191,7.467 8.241,7.324 8.244 C 7.168 8.247,7.129 8.232,6.799 8.041 L 6.512 7.874 6.503 8.250 C 6.494 8.600,6.488 8.635,6.422 8.747 C 6.230 9.075,5.770 9.075,5.578 8.747 C 5.512 8.635,5.506 8.600,5.497 8.249 L 5.488 7.871 5.284 7.992 C 4.927 8.203,4.828 8.245,4.691 8.244 C 4.537 8.243,4.435 8.194,4.324 8.068 C 4.223 7.952,4.203 7.882,4.219 7.694 C 4.236 7.486,4.316 7.397,4.680 7.186 C 4.848 7.088,4.987 7.005,4.987 7.001 C 4.987 6.997,4.876 6.930,4.740 6.853 C 4.406 6.662,4.329 6.601,4.266 6.480 C 4.097 6.147,4.337 5.760,4.713 5.760 C 4.822 5.760,4.889 5.787,5.164 5.943 L 5.488 6.125 5.498 5.749 C 5.507 5.410,5.514 5.362,5.573 5.258 C 5.706 5.025,6.011 4.941,6.246 5.073 M9.693 10.050 C 10.138 10.256,10.076 10.875,9.599 10.985 C 9.435 11.022,4.565 11.022,4.401 10.985 C 3.924 10.875,3.862 10.256,4.307 10.050 C 4.408 10.004,4.541 10.001,7.000 10.001 C 9.459 10.001,9.592 10.004,9.693 10.050 M9.693 12.050 C 10.138 12.256,10.076 12.875,9.599 12.985 C 9.435 13.022,4.565 13.022,4.401 12.985 C 3.924 12.875,3.862 12.256,4.307 12.050 C 4.408 12.004,4.541 12.001,7.000 12.001 C 9.459 12.001,9.592 12.004,9.693 12.050 " stroke="none" fill-rule="evenodd"></path></svg>