<svg width="16" height="16" fill="currentColor" xmlns="http://www.w3.org/2000/svg"><path d="M3.669 0.028 C 2.993 0.141,2.371 0.651,2.135 1.283 C 1.996 1.656,2.001 1.455,2.000 6.407 L 2.000 11.015 2.500 11.007 L 3.000 11.000 3.013 6.360 L 3.027 1.720 3.099 1.572 C 3.192 1.384,3.384 1.192,3.572 1.099 L 3.720 1.027 6.607 1.020 L 9.493 1.012 9.494 2.060 C 9.494 3.237,9.506 3.344,9.671 3.680 C 9.803 3.950,10.050 4.197,10.320 4.329 C 10.656 4.494,10.763 4.506,11.940 4.506 L 12.987 4.507 12.986 9.353 C 12.985 13.934,12.982 14.208,12.937 14.338 C 12.848 14.596,12.619 14.828,12.341 14.942 C 12.201 15.000,12.186 15.000,10.100 15.008 L 8.000 15.015 8.000 15.508 L 8.000 16.000 10.094 16.000 C 12.380 16.000,12.385 16.000,12.766 15.845 C 13.233 15.654,13.654 15.233,13.845 14.766 C 14.008 14.365,14.000 14.649,14.000 9.341 L 14.000 4.493 11.753 2.247 L 9.507 0.000 6.653 0.003 C 5.084 0.005,3.741 0.016,3.669 0.028 M1.346 11.868 C 0.962 11.905,0.647 12.044,0.405 12.285 C 0.026 12.663,-0.012 13.314,0.320 13.733 C 0.486 13.943,0.778 14.087,1.267 14.201 C 1.826 14.330,1.907 14.354,2.058 14.429 C 2.141 14.471,2.233 14.539,2.262 14.580 C 2.379 14.744,2.358 14.991,2.212 15.157 C 2.086 15.301,1.896 15.369,1.613 15.371 C 1.333 15.372,1.200 15.338,1.023 15.220 C 0.933 15.159,0.875 15.093,0.827 14.995 L 0.760 14.856 0.380 14.855 C -0.058 14.853,-0.037 14.836,0.053 15.125 C 0.187 15.558,0.541 15.851,1.068 15.963 C 1.377 16.028,1.945 16.003,2.231 15.910 C 2.616 15.785,2.881 15.562,3.034 15.234 C 3.100 15.093,3.107 15.052,3.107 14.759 C 3.107 14.451,3.103 14.432,3.019 14.261 C 2.851 13.919,2.580 13.757,1.910 13.597 C 1.246 13.438,1.131 13.397,1.013 13.280 C 0.790 13.057,0.871 12.717,1.187 12.553 C 1.335 12.475,1.704 12.457,1.887 12.518 C 2.065 12.577,2.225 12.719,2.282 12.867 L 2.327 12.987 2.697 12.987 C 3.121 12.987,3.103 13.001,3.018 12.729 C 2.905 12.366,2.613 12.081,2.219 11.949 C 2.075 11.900,1.986 11.886,1.653 11.856 C 1.602 11.852,1.464 11.857,1.346 11.868 M3.520 13.947 L 3.520 15.948 3.913 15.941 L 4.307 15.933 4.314 15.073 L 4.321 14.213 5.160 14.213 L 6.000 14.213 6.000 15.080 L 6.000 15.947 6.387 15.947 L 6.773 15.947 6.773 13.947 L 6.773 11.947 6.373 11.947 L 5.973 11.947 5.973 12.760 L 5.973 13.573 5.147 13.573 L 4.320 13.573 4.320 12.760 L 4.320 11.947 3.920 11.947 L 3.520 11.947 3.520 13.947 " stroke="none" fill-rule="evenodd"></path></svg>