<svg width="16" height="16" fill="currentColor" xmlns="http://www.w3.org/2000/svg"><path d="M3.669 0.028 C 2.993 0.141,2.371 0.651,2.135 1.283 C 1.996 1.656,2.001 1.455,2.000 6.407 L 2.000 11.015 2.500 11.007 L 3.000 11.000 3.013 6.360 L 3.027 1.720 3.099 1.572 C 3.192 1.384,3.384 1.192,3.572 1.099 L 3.720 1.027 6.607 1.020 L 9.493 1.012 9.494 2.060 C 9.494 3.237,9.506 3.344,9.671 3.680 C 9.803 3.950,10.050 4.197,10.320 4.329 C 10.656 4.494,10.763 4.506,11.940 4.506 L 12.986 4.507 12.993 7.753 L 13.000 11.000 13.500 11.007 L 14.000 11.015 14.000 7.754 L 14.000 4.493 11.753 2.247 L 9.507 0.000 6.653 0.003 C 5.084 0.005,3.741 0.016,3.669 0.028 M9.225 11.869 C 8.686 11.914,8.241 12.185,8.062 12.575 C 7.803 13.141,8.018 13.762,8.565 14.022 C 8.668 14.072,8.948 14.156,9.244 14.227 C 10.018 14.413,10.187 14.519,10.187 14.824 C 10.187 15.070,10.096 15.201,9.853 15.310 C 9.673 15.391,9.282 15.397,9.068 15.323 C 8.895 15.262,8.682 15.065,8.654 14.938 L 8.636 14.853 8.251 14.853 L 7.867 14.853 7.867 14.921 C 7.867 15.026,7.969 15.304,8.053 15.426 C 8.215 15.662,8.449 15.824,8.773 15.925 C 8.950 15.979,9.026 15.987,9.427 15.986 C 9.854 15.985,9.892 15.981,10.093 15.911 C 10.430 15.793,10.633 15.652,10.788 15.427 C 10.915 15.242,10.987 15.002,10.986 14.764 C 10.986 14.286,10.800 13.993,10.366 13.785 C 10.208 13.710,10.000 13.647,9.627 13.560 C 9.064 13.429,8.917 13.365,8.807 13.202 C 8.705 13.050,8.733 12.834,8.875 12.684 C 8.998 12.554,9.138 12.499,9.379 12.485 C 9.758 12.465,9.992 12.577,10.121 12.840 L 10.193 12.987 10.563 12.987 C 10.767 12.987,10.933 12.981,10.933 12.975 C 10.933 12.892,10.857 12.647,10.794 12.527 C 10.542 12.050,9.962 11.807,9.225 11.869 M1.672 12.193 C 1.756 12.329,2.030 12.772,2.282 13.177 L 2.740 13.914 2.130 14.905 C 1.794 15.450,1.520 15.908,1.520 15.922 C 1.520 15.938,1.681 15.945,1.940 15.941 L 2.360 15.933 2.773 15.248 C 3.001 14.871,3.199 14.550,3.213 14.536 C 3.231 14.518,3.384 14.748,3.671 15.221 L 4.102 15.933 4.544 15.941 C 4.814 15.945,4.987 15.938,4.987 15.922 C 4.987 15.908,4.710 15.458,4.372 14.922 C 3.886 14.149,3.764 13.937,3.783 13.900 C 3.797 13.874,4.071 13.439,4.392 12.933 C 4.713 12.427,4.985 11.998,4.996 11.980 C 5.012 11.954,4.920 11.947,4.568 11.947 L 4.120 11.948 3.709 12.668 C 3.484 13.064,3.292 13.381,3.284 13.373 C 3.276 13.365,3.088 13.044,2.865 12.659 L 2.460 11.960 1.989 11.953 L 1.519 11.945 1.672 12.193 M5.260 13.940 L 5.267 15.933 6.507 15.933 L 7.747 15.933 7.754 15.593 L 7.762 15.253 6.907 15.253 L 6.053 15.253 6.053 13.600 L 6.053 11.947 5.653 11.947 L 5.253 11.947 5.260 13.940 M11.093 11.959 C 11.093 11.966,11.337 12.365,11.635 12.846 C 11.932 13.327,12.203 13.765,12.236 13.819 L 12.297 13.919 11.682 14.917 C 11.343 15.466,11.067 15.923,11.067 15.931 C 11.067 15.940,11.257 15.947,11.489 15.947 L 11.911 15.947 12.347 15.225 C 12.693 14.650,12.788 14.511,12.814 14.539 C 12.832 14.558,13.017 14.861,13.227 15.213 C 13.437 15.565,13.626 15.874,13.648 15.900 C 13.683 15.941,13.742 15.947,14.124 15.947 C 14.364 15.947,14.560 15.940,14.560 15.933 C 14.560 15.925,14.284 15.480,13.946 14.944 C 13.608 14.407,13.329 13.960,13.326 13.949 C 13.323 13.939,13.599 13.490,13.940 12.952 C 14.281 12.414,14.560 11.968,14.560 11.960 C 14.560 11.953,14.363 11.947,14.122 11.947 L 13.684 11.947 13.279 12.655 C 13.057 13.044,12.863 13.359,12.848 13.354 C 12.834 13.349,12.640 13.031,12.418 12.646 L 12.013 11.947 11.553 11.947 C 11.300 11.947,11.093 11.952,11.093 11.959 " stroke="none" fill-rule="evenodd"></path></svg>