<svg width="16" height="16" fill="currentColor" xmlns="http://www.w3.org/2000/svg"><path d="M3.669 0.028 C 2.991 0.143,2.371 0.651,2.135 1.283 C 1.994 1.659,2.001 1.324,2.000 7.994 C 2.000 14.784,1.990 14.361,2.156 14.767 C 2.347 15.238,2.762 15.653,3.233 15.844 C 3.633 16.007,3.415 16.000,8.000 16.000 C 12.584 16.000,12.367 16.007,12.766 15.845 C 13.233 15.654,13.654 15.233,13.845 14.766 C 14.010 14.361,14.000 14.782,14.000 8.000 C 14.000 1.217,14.010 1.639,13.844 1.233 C 13.666 0.795,13.309 0.422,12.864 0.208 C 12.426 -0.003,12.861 0.015,8.080 0.010 C 5.726 0.008,3.741 0.016,3.669 0.028 M12.430 1.100 C 12.608 1.188,12.833 1.416,12.915 1.593 L 12.973 1.720 12.980 7.946 C 12.988 14.846,13.001 14.319,12.811 14.576 C 12.691 14.738,12.526 14.866,12.341 14.942 L 12.200 15.000 8.000 15.000 L 3.800 15.000 3.659 14.942 C 3.381 14.828,3.152 14.596,3.063 14.338 C 3.018 14.207,3.015 13.881,3.015 8.000 C 3.015 2.119,3.018 1.793,3.063 1.662 C 3.154 1.399,3.399 1.154,3.662 1.062 C 3.793 1.017,4.025 1.015,8.040 1.021 L 12.280 1.027 12.430 1.100 M5.874 7.519 C 5.690 7.563,5.544 7.725,5.507 7.923 C 5.465 8.147,5.633 8.416,5.854 8.477 C 6.002 8.518,9.998 8.518,10.146 8.477 C 10.287 8.438,10.440 8.281,10.479 8.136 C 10.539 7.915,10.459 7.711,10.263 7.581 L 10.151 7.507 8.055 7.502 C 6.903 7.500,5.921 7.507,5.874 7.519 " stroke="none" fill-rule="evenodd"></path></svg>