<svg width="16" height="16" fill="currentColor" xmlns="http://www.w3.org/2000/svg"><path d="M3.669 0.028 C 2.991 0.143,2.371 0.651,2.135 1.283 C 1.994 1.659,2.001 1.324,2.000 7.994 C 2.000 14.784,1.990 14.361,2.156 14.767 C 2.347 15.238,2.762 15.653,3.233 15.844 C 3.633 16.007,3.415 16.000,8.000 16.000 C 12.584 16.000,12.367 16.007,12.766 15.845 C 13.233 15.654,13.654 15.233,13.845 14.766 C 14.010 14.361,14.000 14.782,14.000 8.000 C 14.000 1.217,14.010 1.639,13.844 1.233 C 13.666 0.795,13.309 0.422,12.864 0.208 C 12.426 -0.003,12.861 0.015,8.080 0.010 C 5.726 0.008,3.741 0.016,3.669 0.028 M7.227 5.561 C 7.318 5.608,7.431 5.731,7.465 5.822 C 7.505 5.929,7.500 6.092,7.452 6.207 C 7.425 6.272,7.124 6.594,6.567 7.153 L 5.722 8.000 6.577 8.860 C 7.501 9.789,7.511 9.802,7.487 10.056 C 7.471 10.228,7.378 10.358,7.215 10.440 C 6.891 10.603,6.859 10.581,5.621 9.341 C 4.927 8.644,4.576 8.274,4.548 8.207 C 4.495 8.081,4.495 7.919,4.548 7.793 C 4.592 7.687,6.511 5.740,6.699 5.609 C 6.866 5.494,7.060 5.476,7.227 5.561 M9.240 5.567 C 9.333 5.613,11.302 7.565,11.405 7.714 C 11.488 7.834,11.514 8.029,11.466 8.177 C 11.440 8.258,11.213 8.501,10.390 9.327 C 9.141 10.582,9.110 10.604,8.785 10.440 C 8.622 10.358,8.529 10.228,8.513 10.056 C 8.489 9.802,8.499 9.789,9.423 8.860 L 10.278 8.000 9.433 7.153 C 8.876 6.594,8.575 6.272,8.548 6.207 C 8.497 6.085,8.495 5.920,8.543 5.805 C 8.587 5.699,8.749 5.553,8.847 5.531 C 8.887 5.523,8.932 5.511,8.947 5.506 C 8.992 5.491,9.156 5.525,9.240 5.567 " stroke="none" fill-rule="evenodd"></path></svg>