<svg width="16" height="16" fill="currentColor" xmlns="http://www.w3.org/2000/svg"><path d="M3.669 0.028 C 2.993 0.141,2.371 0.651,2.135 1.283 C 1.996 1.656,2.001 1.455,2.000 6.407 L 2.000 11.015 2.500 11.007 L 3.000 11.000 3.013 6.360 L 3.027 1.720 3.099 1.572 C 3.192 1.384,3.384 1.192,3.572 1.099 L 3.720 1.027 6.607 1.020 L 9.493 1.012 9.494 2.060 C 9.494 3.237,9.506 3.344,9.671 3.680 C 9.803 3.950,10.050 4.197,10.320 4.329 C 10.656 4.494,10.763 4.506,11.940 4.506 L 12.987 4.507 12.980 9.393 L 12.973 14.280 12.901 14.427 C 12.862 14.508,12.778 14.626,12.715 14.690 C 12.532 14.874,12.406 14.935,12.073 15.000 L 12.000 15.014 12.000 15.507 L 12.000 16.000 12.094 16.000 C 12.244 16.000,12.570 15.925,12.766 15.845 C 13.233 15.654,13.654 15.233,13.845 14.766 C 14.008 14.365,14.000 14.649,14.000 9.341 L 14.000 4.493 11.753 2.247 L 9.507 0.000 6.653 0.003 C 5.084 0.005,3.741 0.016,3.669 0.028 M1.371 11.870 C 1.093 11.895,0.965 11.930,0.737 12.045 C 0.283 12.274,0.044 12.712,0.106 13.205 C 0.145 13.520,0.292 13.764,0.540 13.926 C 0.740 14.057,0.914 14.118,1.427 14.240 C 1.957 14.367,2.188 14.463,2.266 14.592 C 2.428 14.857,2.309 15.169,1.994 15.309 C 1.878 15.359,1.806 15.371,1.586 15.372 C 1.336 15.373,1.308 15.368,1.138 15.284 C 0.954 15.194,0.817 15.051,0.783 14.915 C 0.768 14.854,0.763 14.853,0.384 14.853 C -0.058 14.853,-0.037 14.836,0.053 15.125 C 0.187 15.558,0.541 15.851,1.068 15.963 C 1.377 16.028,1.945 16.003,2.231 15.910 C 2.618 15.784,2.879 15.566,3.033 15.238 C 3.101 15.093,3.107 15.054,3.107 14.759 C 3.107 14.451,3.103 14.432,3.020 14.262 C 2.845 13.908,2.556 13.745,1.782 13.564 C 1.235 13.436,1.070 13.370,0.976 13.244 C 0.805 13.016,0.900 12.701,1.183 12.554 C 1.336 12.475,1.671 12.458,1.878 12.518 C 2.057 12.570,2.241 12.735,2.292 12.889 L 2.324 12.987 2.695 12.987 C 3.124 12.987,3.108 13.000,3.012 12.717 C 2.942 12.508,2.865 12.389,2.700 12.235 C 2.388 11.944,1.934 11.819,1.371 11.870 M8.160 11.908 C 7.727 12.002,7.326 12.310,7.137 12.695 C 6.993 12.988,6.935 13.255,6.916 13.706 C 6.879 14.592,7.020 15.137,7.386 15.529 C 7.682 15.845,8.090 16.000,8.624 16.000 C 9.173 15.999,9.516 15.876,9.814 15.576 C 10.134 15.252,10.212 14.997,10.213 14.273 L 10.213 13.787 9.427 13.787 L 8.640 13.787 8.640 14.080 L 8.640 14.373 9.057 14.373 L 9.475 14.373 9.459 14.597 C 9.424 15.095,9.153 15.341,8.643 15.340 C 8.240 15.338,7.956 15.144,7.815 14.772 C 7.755 14.613,7.749 14.556,7.739 14.025 C 7.728 13.396,7.748 13.213,7.853 12.998 C 8.002 12.694,8.215 12.556,8.564 12.539 C 8.967 12.518,9.225 12.661,9.370 12.985 L 9.443 13.147 9.819 13.147 L 10.194 13.147 10.178 13.007 C 10.168 12.924,10.117 12.777,10.054 12.650 C 9.867 12.271,9.507 11.998,9.073 11.906 C 8.848 11.858,8.388 11.859,8.160 11.908 M3.255 11.980 C 3.256 11.998,3.554 12.895,3.917 13.973 L 4.579 15.933 5.053 15.933 L 5.528 15.933 6.187 13.939 L 6.847 11.945 6.407 11.953 L 5.967 11.960 5.530 13.505 C 5.290 14.354,5.087 15.055,5.080 15.062 C 5.073 15.070,5.062 15.070,5.055 15.064 C 5.049 15.058,4.851 14.375,4.614 13.546 C 4.378 12.718,4.178 12.019,4.170 11.993 C 4.158 11.951,4.112 11.947,3.705 11.947 C 3.361 11.947,3.254 11.955,3.255 11.980 " stroke="none" fill-rule="evenodd"></path></svg>