<svg width="16" height="16" fill="currentColor" xmlns="http://www.w3.org/2000/svg"><path d="M3.669 0.028 C 2.992 0.143,2.371 0.651,2.135 1.283 C 1.994 1.659,2.001 1.324,2.000 7.994 C 2.000 14.784,1.990 14.361,2.156 14.767 C 2.347 15.238,2.762 15.653,3.233 15.844 C 3.633 16.007,3.415 16.000,8.000 16.000 C 12.584 16.000,12.367 16.007,12.766 15.845 C 13.234 15.654,13.654 15.233,13.845 14.765 C 14.010 14.361,14.002 14.642,13.994 9.320 L 13.987 4.467 13.899 4.280 C 13.815 4.103,13.709 3.992,11.859 2.143 C 10.031 0.317,9.895 0.188,9.721 0.103 L 9.534 0.013 6.667 0.010 C 5.090 0.007,3.741 0.016,3.669 0.028 M11.007 2.993 C 11.817 3.804,12.480 4.476,12.480 4.487 C 12.480 4.498,12.015 4.507,11.446 4.507 C 10.303 4.507,10.206 4.496,9.968 4.343 C 9.798 4.234,9.689 4.105,9.589 3.895 L 9.507 3.720 9.498 2.620 C 9.493 2.015,9.500 1.520,9.512 1.520 C 9.524 1.520,10.196 2.183,11.007 2.993 M11.674 8.041 C 12.136 8.234,12.085 8.873,11.599 8.985 C 11.434 9.023,4.566 9.023,4.401 8.985 C 3.924 8.875,3.862 8.256,4.307 8.050 C 4.409 8.003,4.570 8.001,7.994 8.001 C 11.167 8.000,11.586 8.005,11.674 8.041 M11.674 10.041 C 12.136 10.234,12.085 10.873,11.599 10.985 C 11.434 11.023,4.566 11.023,4.401 10.985 C 3.924 10.875,3.862 10.256,4.307 10.050 C 4.409 10.003,4.570 10.001,7.994 10.001 C 11.167 10.000,11.586 10.005,11.674 10.041 M8.687 12.041 C 8.813 12.094,8.874 12.150,8.936 12.272 C 9.028 12.453,8.996 12.691,8.858 12.836 C 8.694 13.010,8.831 12.999,6.587 13.007 C 5.220 13.012,4.503 13.006,4.415 12.987 C 3.926 12.882,3.854 12.259,4.307 12.050 C 4.407 12.004,4.528 12.001,6.501 12.001 C 8.320 12.000,8.601 12.005,8.687 12.041 " stroke="none" fill-rule="evenodd"></path></svg>