<svg width="16" height="16" fill="currentColor" xmlns="http://www.w3.org/2000/svg"><path d="M3.669 0.028 C 2.993 0.141,2.371 0.651,2.135 1.283 C 1.997 1.651,2.001 1.537,2.000 5.407 L 2.000 9.015 2.500 9.007 L 3.000 9.000 3.013 5.360 L 3.027 1.720 3.099 1.572 C 3.192 1.384,3.384 1.192,3.572 1.099 L 3.720 1.027 6.607 1.020 L 9.493 1.012 9.494 2.060 C 9.494 3.237,9.506 3.344,9.671 3.680 C 9.803 3.950,10.050 4.197,10.320 4.329 C 10.656 4.494,10.763 4.506,11.940 4.506 L 12.986 4.507 12.993 6.753 L 13.000 9.000 13.500 9.007 L 14.000 9.015 14.000 6.754 L 14.000 4.493 11.753 2.247 L 9.507 0.000 6.653 0.003 C 5.084 0.005,3.741 0.016,3.669 0.028 M0.306 10.050 C -0.136 10.251,-0.073 10.883,0.400 10.984 C 0.593 11.026,15.407 11.026,15.600 10.984 C 16.073 10.883,16.136 10.251,15.694 10.050 C 15.591 10.003,15.281 10.001,8.000 10.001 C 0.719 10.001,0.409 10.003,0.306 10.050 M2.000 13.094 C 2.000 14.288,2.012 14.413,2.156 14.767 C 2.347 15.238,2.762 15.653,3.233 15.844 C 3.633 16.007,3.415 16.000,8.000 16.000 C 12.584 16.000,12.367 16.007,12.766 15.845 C 13.233 15.654,13.654 15.233,13.845 14.766 C 13.988 14.413,14.000 14.288,14.000 13.094 L 14.000 12.000 13.494 12.000 L 12.989 12.000 12.981 13.140 L 12.973 14.280 12.901 14.428 C 12.757 14.720,12.468 14.934,12.145 14.987 C 11.931 15.022,4.069 15.022,3.855 14.987 C 3.532 14.934,3.243 14.720,3.099 14.428 L 3.027 14.280 3.019 13.140 L 3.011 12.000 2.506 12.000 L 2.000 12.000 2.000 13.094 " stroke="none" fill-rule="evenodd"></path></svg>