<svg width="16" height="16" fill="currentColor" xmlns="http://www.w3.org/2000/svg"><path d="M3.669 0.028 C 2.992 0.143,2.371 0.651,2.135 1.283 C 1.994 1.659,2.001 1.324,2.000 7.994 C 2.000 14.784,1.990 14.361,2.156 14.767 C 2.347 15.238,2.762 15.653,3.233 15.844 C 3.633 16.007,3.415 16.000,8.000 16.000 C 12.584 16.000,12.367 16.007,12.766 15.845 C 13.234 15.654,13.654 15.233,13.845 14.765 C 14.010 14.361,14.002 14.642,13.994 9.320 L 13.987 4.467 13.899 4.280 C 13.815 4.103,13.709 3.992,11.859 2.143 C 10.031 0.317,9.895 0.188,9.721 0.103 L 9.534 0.013 6.667 0.010 C 5.090 0.007,3.741 0.016,3.669 0.028 M11.007 2.993 C 11.817 3.804,12.480 4.476,12.480 4.487 C 12.480 4.498,12.015 4.507,11.446 4.507 C 10.303 4.507,10.206 4.496,9.968 4.343 C 9.798 4.234,9.689 4.105,9.589 3.895 L 9.507 3.720 9.498 2.620 C 9.493 2.015,9.500 1.520,9.512 1.520 C 9.524 1.520,10.196 2.183,11.007 2.993 M10.943 6.220 C 10.952 6.341,10.967 6.791,10.976 7.220 L 10.994 8.000 10.751 8.000 C 10.520 8.000,10.507 7.997,10.495 7.940 C 10.361 7.329,10.298 7.174,10.126 7.027 C 9.931 6.860,9.557 6.788,8.780 6.767 L 8.507 6.760 8.507 9.414 L 8.507 12.069 8.567 12.188 C 8.641 12.335,8.778 12.410,9.048 12.452 C 9.154 12.468,9.279 12.488,9.327 12.495 L 9.413 12.509 9.413 12.761 L 9.413 13.014 8.007 13.007 L 6.600 13.000 6.592 12.755 L 6.585 12.509 6.672 12.496 C 6.721 12.488,6.846 12.468,6.952 12.452 C 7.196 12.414,7.357 12.333,7.426 12.213 C 7.479 12.122,7.480 12.075,7.487 9.440 L 7.495 6.760 7.234 6.767 C 6.791 6.778,6.324 6.827,6.150 6.881 C 6.053 6.911,5.939 6.971,5.874 7.027 C 5.702 7.174,5.639 7.329,5.505 7.940 C 5.493 7.997,5.480 8.000,5.249 8.000 L 5.006 8.000 5.024 7.220 C 5.033 6.791,5.048 6.341,5.057 6.220 L 5.073 6.000 8.000 6.000 L 10.927 6.000 10.943 6.220 " stroke="none" fill-rule="evenodd"></path></svg>