<svg width="16" height="16" fill="currentColor" xmlns="http://www.w3.org/2000/svg"><path d="M3.669 0.028 C 2.992 0.143,2.371 0.651,2.135 1.283 C 1.994 1.659,2.001 1.324,2.000 7.994 C 2.000 14.784,1.990 14.361,2.156 14.767 C 2.347 15.238,2.762 15.653,3.233 15.844 C 3.633 16.007,3.415 16.000,8.000 16.000 C 12.584 16.000,12.367 16.007,12.766 15.845 C 13.234 15.654,13.654 15.233,13.845 14.765 C 14.010 14.361,14.002 14.642,13.994 9.320 L 13.987 4.467 13.899 4.280 C 13.815 4.103,13.709 3.992,11.859 2.143 C 10.031 0.317,9.895 0.188,9.721 0.103 L 9.534 0.013 6.667 0.010 C 5.090 0.007,3.741 0.016,3.669 0.028 M11.007 2.993 C 11.817 3.804,12.480 4.476,12.480 4.487 C 12.480 4.498,12.015 4.507,11.446 4.507 C 10.303 4.507,10.206 4.496,9.968 4.343 C 9.798 4.234,9.689 4.105,9.589 3.895 L 9.507 3.720 9.498 2.620 C 9.493 2.015,9.500 1.520,9.512 1.520 C 9.524 1.520,10.196 2.183,11.007 2.993 M8.559 5.080 C 9.221 5.287,9.727 5.797,9.922 6.454 C 9.975 6.632,9.983 6.730,9.994 7.360 L 10.006 8.067 10.238 8.178 C 10.604 8.354,10.846 8.623,10.945 8.964 C 10.983 9.095,10.988 9.287,10.981 10.563 L 10.973 12.013 10.887 12.195 C 10.769 12.444,10.531 12.680,10.267 12.809 C 9.864 13.005,9.921 13.000,8.000 13.000 C 6.079 13.000,6.136 13.005,5.733 12.809 C 5.469 12.680,5.231 12.444,5.113 12.195 L 5.027 12.013 5.027 10.493 L 5.027 8.973 5.118 8.790 C 5.251 8.526,5.468 8.319,5.760 8.179 L 5.994 8.067 6.006 7.360 C 6.017 6.734,6.025 6.631,6.077 6.458 C 6.216 5.988,6.500 5.600,6.893 5.341 C 7.096 5.208,7.342 5.100,7.554 5.052 C 7.777 5.001,8.359 5.017,8.559 5.080 M7.734 6.043 C 7.363 6.142,7.088 6.447,7.016 6.839 C 7.000 6.926,6.987 7.222,6.987 7.498 L 6.987 8.000 8.000 8.000 L 9.013 8.000 9.013 7.498 C 9.013 7.222,9.000 6.926,8.984 6.839 C 8.911 6.441,8.636 6.141,8.254 6.041 C 8.061 5.991,7.926 5.991,7.734 6.043 M6.240 9.056 C 6.189 9.078,6.114 9.128,6.073 9.166 L 6.000 9.237 6.000 10.502 L 6.000 11.767 6.090 11.851 C 6.139 11.898,6.227 11.950,6.286 11.968 C 6.364 11.991,6.830 12.000,8.016 12.000 L 9.640 11.999 9.776 11.936 C 10.014 11.825,10.000 11.915,10.000 10.504 C 10.000 9.268,10.000 9.260,9.942 9.187 C 9.910 9.146,9.835 9.091,9.775 9.064 C 9.673 9.017,9.566 9.015,8.000 9.015 C 6.570 9.015,6.320 9.021,6.240 9.056 " stroke="none" fill-rule="evenodd"></path></svg>