<svg width="16" height="16" fill="currentColor" xmlns="http://www.w3.org/2000/svg"><path d="M3.669 0.028 C 2.991 0.143,2.371 0.651,2.135 1.283 C 1.994 1.659,2.001 1.324,2.000 7.994 C 2.000 14.784,1.990 14.361,2.156 14.767 C 2.347 15.238,2.762 15.653,3.233 15.844 C 3.633 16.007,3.415 16.000,8.000 16.000 C 12.584 16.000,12.367 16.007,12.766 15.845 C 13.233 15.654,13.654 15.233,13.845 14.766 C 14.010 14.361,14.000 14.782,14.000 8.000 C 14.000 1.217,14.010 1.639,13.844 1.233 C 13.666 0.795,13.309 0.422,12.864 0.208 C 12.426 -0.003,12.861 0.015,8.080 0.010 C 5.726 0.008,3.741 0.016,3.669 0.028 M8.268 5.090 C 8.428 5.194,10.382 7.162,10.442 7.280 C 10.501 7.395,10.503 7.612,10.446 7.721 C 10.363 7.882,10.170 8.001,9.994 7.999 C 9.818 7.998,9.702 7.908,9.107 7.309 L 8.520 6.720 8.507 8.673 L 8.493 10.627 8.423 10.747 C 8.230 11.075,7.770 11.075,7.577 10.747 L 7.507 10.627 7.493 8.673 L 7.480 6.720 6.893 7.309 C 6.298 7.908,6.182 7.998,6.006 7.999 C 5.830 8.001,5.637 7.882,5.554 7.721 C 5.493 7.604,5.499 7.394,5.567 7.267 C 5.632 7.143,7.618 5.153,7.760 5.069 C 7.904 4.983,8.117 4.992,8.268 5.090 " stroke="none" fill-rule="evenodd"></path></svg>