<svg width="16" height="16" fill="currentColor" xmlns="http://www.w3.org/2000/svg"><path d="M3.669 0.028 C 2.991 0.143,2.371 0.651,2.135 1.283 C 1.994 1.659,2.001 1.324,2.000 7.994 C 2.000 14.784,1.990 14.361,2.156 14.767 C 2.347 15.238,2.762 15.653,3.233 15.844 C 3.633 16.007,3.415 16.000,8.000 16.000 C 12.584 16.000,12.367 16.007,12.766 15.845 C 13.233 15.654,13.654 15.233,13.845 14.766 C 14.010 14.361,14.000 14.782,14.000 8.000 C 14.000 1.217,14.010 1.639,13.844 1.233 C 13.666 0.795,13.309 0.422,12.864 0.208 C 12.426 -0.003,12.861 0.015,8.080 0.010 C 5.726 0.008,3.741 0.016,3.669 0.028 M6.681 5.425 C 6.856 5.498,10.307 7.583,10.391 7.666 C 10.490 7.765,10.544 7.938,10.520 8.082 C 10.481 8.311,10.476 8.315,8.571 9.457 C 7.590 10.045,6.748 10.546,6.701 10.570 C 6.504 10.670,6.213 10.586,6.085 10.392 L 6.013 10.284 6.013 8.000 L 6.013 5.716 6.084 5.609 C 6.212 5.417,6.470 5.337,6.681 5.425 " stroke="none" fill-rule="evenodd"></path></svg>