<svg width="16" height="16" fill="currentColor" xmlns="http://www.w3.org/2000/svg"><path d="M3.669 0.028 C 2.991 0.143,2.371 0.651,2.135 1.283 C 1.994 1.659,2.001 1.324,2.000 7.994 C 2.000 14.784,1.990 14.361,2.156 14.767 C 2.347 15.238,2.762 15.653,3.233 15.844 C 3.633 16.007,3.415 16.000,8.000 16.000 C 12.584 16.000,12.367 16.007,12.766 15.845 C 13.233 15.654,13.654 15.233,13.845 14.766 C 14.010 14.361,14.000 14.782,14.000 8.000 C 14.000 1.217,14.010 1.639,13.844 1.233 C 13.666 0.795,13.309 0.422,12.864 0.208 C 12.426 -0.003,12.861 0.015,8.080 0.010 C 5.726 0.008,3.741 0.016,3.669 0.028 M10.259 7.578 C 10.419 7.684,10.489 7.814,10.489 8.005 C 10.489 8.135,10.476 8.180,10.411 8.273 C 10.368 8.334,10.291 8.409,10.240 8.439 C 10.148 8.493,10.115 8.493,8.000 8.493 C 5.885 8.493,5.852 8.493,5.760 8.439 C 5.709 8.409,5.632 8.334,5.589 8.273 C 5.399 8.002,5.553 7.597,5.876 7.518 C 5.922 7.507,6.903 7.500,8.055 7.502 L 10.151 7.507 10.259 7.578 " stroke="none" fill-rule="evenodd"></path></svg>