<svg width="16" height="16" fill="currentColor" xmlns="http://www.w3.org/2000/svg"><path d="M3.669 0.028 C 2.991 0.143,2.371 0.651,2.135 1.283 C 1.994 1.659,2.001 1.324,2.000 7.994 C 2.000 14.784,1.990 14.361,2.156 14.767 C 2.347 15.238,2.762 15.653,3.233 15.844 C 3.633 16.007,3.415 16.000,8.000 16.000 C 12.584 16.000,12.367 16.007,12.766 15.845 C 13.233 15.654,13.654 15.233,13.845 14.766 C 14.010 14.361,14.000 14.782,14.000 8.000 C 14.000 1.217,14.010 1.639,13.844 1.233 C 13.666 0.795,13.309 0.422,12.864 0.208 C 12.426 -0.003,12.861 0.015,8.080 0.010 C 5.726 0.008,3.741 0.016,3.669 0.028 M9.728 3.064 C 9.782 3.092,9.847 3.137,9.872 3.165 C 9.937 3.237,10.000 3.398,10.000 3.493 C 10.000 3.686,9.827 3.925,9.655 3.973 C 9.526 4.009,4.474 4.009,4.345 3.973 C 4.170 3.925,3.999 3.684,4.001 3.488 C 4.001 3.383,4.079 3.204,4.150 3.143 C 4.306 3.009,4.165 3.016,6.994 3.014 C 9.528 3.013,9.633 3.015,9.728 3.064 M11.728 5.064 C 11.850 5.126,11.906 5.187,11.959 5.313 C 11.995 5.400,12.000 5.880,12.000 9.493 C 12.000 13.997,12.012 13.675,11.833 13.860 C 11.787 13.908,11.707 13.959,11.655 13.973 C 11.526 14.009,4.474 14.009,4.345 13.973 C 4.293 13.959,4.213 13.908,4.167 13.860 C 3.988 13.675,4.000 13.998,4.001 9.488 C 4.001 5.578,4.003 5.395,4.050 5.293 C 4.103 5.177,4.156 5.123,4.280 5.058 C 4.352 5.020,4.730 5.015,7.994 5.014 C 11.509 5.013,11.632 5.015,11.728 5.064 " stroke="none" fill-rule="evenodd"></path></svg>