<svg width="16" height="16" fill="currentColor" xmlns="http://www.w3.org/2000/svg"><path d="M3.669 0.028 C 2.991 0.143,2.371 0.651,2.135 1.283 C 1.994 1.659,2.001 1.324,2.000 7.994 C 2.000 14.784,1.990 14.361,2.156 14.767 C 2.347 15.238,2.762 15.653,3.233 15.844 C 3.633 16.007,3.415 16.000,8.000 16.000 C 12.584 16.000,12.367 16.007,12.766 15.845 C 13.233 15.654,13.654 15.233,13.845 14.766 C 14.010 14.361,14.000 14.782,14.000 8.000 C 14.000 1.217,14.010 1.639,13.844 1.233 C 13.666 0.795,13.309 0.422,12.864 0.208 C 12.426 -0.003,12.861 0.015,8.080 0.010 C 5.726 0.008,3.741 0.016,3.669 0.028 M8.373 4.028 C 9.054 4.116,9.725 4.457,10.187 4.951 C 10.514 5.300,10.774 5.770,10.901 6.237 C 10.965 6.471,10.971 6.537,10.971 7.000 C 10.971 7.463,10.965 7.529,10.901 7.763 C 10.607 8.849,9.735 9.682,8.627 9.937 C 8.328 10.006,7.672 10.006,7.373 9.937 C 6.265 9.682,5.393 8.849,5.100 7.765 C 5.035 7.529,5.029 7.464,5.029 7.000 C 5.029 6.536,5.035 6.471,5.100 6.235 C 5.492 4.786,6.900 3.837,8.373 4.028 M9.042 11.053 C 10.655 11.207,11.870 11.692,12.796 12.548 L 12.990 12.728 12.981 13.504 L 12.973 14.280 12.901 14.428 C 12.757 14.720,12.468 14.934,12.145 14.987 C 11.931 15.022,4.069 15.022,3.855 14.987 C 3.532 14.934,3.243 14.720,3.099 14.428 L 3.027 14.280 3.019 13.504 L 3.010 12.728 3.204 12.548 C 4.119 11.701,5.337 11.211,6.920 11.054 C 7.410 11.005,8.540 11.005,9.042 11.053 " stroke="none" fill-rule="evenodd"></path></svg>