<svg width="16" height="16" fill="currentColor" xmlns="http://www.w3.org/2000/svg"><path d="M3.669 0.028 C 2.993 0.141,2.371 0.651,2.135 1.283 C 1.994 1.659,2.001 1.324,2.000 7.994 C 2.000 14.784,1.990 14.361,2.156 14.767 C 2.347 15.238,2.762 15.653,3.233 15.844 C 3.633 16.007,3.415 16.000,8.000 16.000 C 12.584 16.000,12.367 16.007,12.766 15.845 C 13.233 15.654,13.654 15.233,13.845 14.766 C 14.008 14.365,14.000 14.649,14.000 9.341 L 14.000 4.493 11.753 2.247 L 9.507 0.000 6.653 0.003 C 5.084 0.005,3.741 0.016,3.669 0.028 M9.494 2.060 C 9.494 3.237,9.506 3.344,9.671 3.680 C 9.803 3.950,10.050 4.197,10.320 4.329 C 10.656 4.494,10.763 4.506,11.940 4.506 L 12.987 4.507 12.986 9.353 C 12.985 13.934,12.982 14.208,12.937 14.338 C 12.848 14.596,12.619 14.828,12.341 14.942 L 12.200 15.000 8.000 15.000 L 3.800 15.000 3.659 14.942 C 3.381 14.828,3.152 14.596,3.063 14.338 C 3.018 14.207,3.015 13.881,3.015 8.000 C 3.015 2.119,3.018 1.793,3.063 1.662 C 3.154 1.399,3.399 1.154,3.662 1.063 C 3.791 1.018,3.985 1.015,6.647 1.014 L 9.493 1.013 9.494 2.060 M5.984 4.550 C 5.745 4.635,5.541 4.900,5.504 5.176 C 5.467 5.447,5.631 5.756,5.888 5.900 C 6.319 6.143,6.848 5.911,6.973 5.423 C 7.062 5.077,6.909 4.752,6.581 4.588 C 6.395 4.495,6.177 4.481,5.984 4.550 M8.421 6.720 L 7.468 7.681 6.822 7.250 C 6.466 7.013,6.155 6.813,6.129 6.807 C 6.052 6.786,5.579 7.125,4.728 7.811 L 4.509 7.987 4.508 8.301 C 4.507 8.507,4.519 8.645,4.543 8.701 C 4.599 8.835,4.750 8.951,4.912 8.985 C 5.012 9.006,5.949 9.012,8.080 9.007 C 11.046 9.000,11.109 8.999,11.212 8.947 C 11.269 8.917,11.353 8.847,11.398 8.791 L 11.480 8.688 11.480 7.716 L 11.480 6.743 10.533 6.252 C 9.781 5.862,9.565 5.761,9.480 5.760 C 9.375 5.759,9.362 5.770,8.421 6.720 M4.778 10.057 C 4.566 10.162,4.455 10.441,4.532 10.675 C 4.579 10.817,4.740 10.949,4.911 10.985 C 5.012 11.006,5.937 11.012,8.080 11.007 C 11.046 11.000,11.109 10.999,11.212 10.947 C 11.269 10.917,11.353 10.847,11.398 10.791 C 11.471 10.699,11.480 10.669,11.480 10.509 C 11.480 10.285,11.398 10.143,11.220 10.057 L 11.103 10.000 7.998 10.000 L 4.893 10.000 4.778 10.057 M4.778 12.057 C 4.566 12.162,4.455 12.441,4.532 12.675 C 4.579 12.818,4.740 12.949,4.913 12.985 C 5.014 13.006,5.526 13.013,6.589 13.008 L 8.120 13.000 8.243 12.928 C 8.385 12.844,8.440 12.770,8.485 12.604 C 8.543 12.387,8.421 12.150,8.201 12.050 C 8.100 12.004,7.988 12.001,6.493 12.001 C 4.911 12.000,4.892 12.001,4.778 12.057 " stroke="none" fill-rule="evenodd"></path></svg>