<svg width="16" height="16" fill="currentColor" xmlns="http://www.w3.org/2000/svg"><path d="M3.669 0.028 C 2.991 0.143,2.371 0.651,2.135 1.283 C 1.994 1.659,2.001 1.324,2.000 7.994 C 2.000 14.784,1.990 14.361,2.156 14.767 C 2.347 15.238,2.762 15.653,3.233 15.844 C 3.633 16.007,3.415 16.000,8.000 16.000 C 12.584 16.000,12.367 16.007,12.766 15.845 C 13.233 15.654,13.654 15.233,13.845 14.766 C 14.010 14.361,14.000 14.782,14.000 8.000 C 14.000 1.217,14.010 1.639,13.844 1.233 C 13.666 0.795,13.309 0.422,12.864 0.208 C 12.426 -0.003,12.861 0.015,8.080 0.010 C 5.726 0.008,3.741 0.016,3.669 0.028 M8.180 4.041 C 8.235 4.064,8.308 4.109,8.342 4.141 C 8.470 4.260,8.490 4.337,8.502 4.740 C 8.508 4.949,8.517 5.120,8.522 5.120 C 8.527 5.120,8.635 5.059,8.762 4.984 C 9.111 4.778,9.215 4.738,9.351 4.756 C 9.618 4.793,9.765 4.950,9.782 5.214 C 9.800 5.503,9.721 5.597,9.232 5.867 C 9.112 5.933,9.014 5.993,9.014 6.000 C 9.014 6.007,9.065 6.042,9.127 6.077 C 9.566 6.323,9.661 6.390,9.726 6.501 C 9.783 6.598,9.791 6.640,9.782 6.784 C 9.769 6.988,9.680 7.125,9.510 7.202 C 9.303 7.296,9.200 7.272,8.792 7.037 L 8.520 6.879 8.505 7.260 C 8.490 7.661,8.468 7.742,8.342 7.859 C 8.260 7.935,8.103 8.000,8.000 8.000 C 7.897 8.000,7.740 7.935,7.658 7.859 C 7.533 7.742,7.510 7.661,7.495 7.261 L 7.480 6.883 7.166 7.058 C 6.802 7.262,6.685 7.288,6.501 7.206 C 6.321 7.127,6.231 6.992,6.218 6.784 C 6.209 6.640,6.217 6.598,6.274 6.501 C 6.339 6.390,6.434 6.323,6.873 6.077 C 6.935 6.042,6.986 6.007,6.986 6.000 C 6.986 5.993,6.861 5.917,6.708 5.832 C 6.297 5.603,6.184 5.450,6.221 5.172 C 6.243 5.004,6.336 4.882,6.499 4.807 C 6.702 4.715,6.805 4.736,7.173 4.948 C 7.338 5.043,7.476 5.120,7.480 5.120 C 7.484 5.120,7.492 4.949,7.498 4.740 C 7.506 4.458,7.520 4.339,7.552 4.280 C 7.677 4.047,7.948 3.944,8.180 4.041 M10.685 9.042 C 10.787 9.080,10.906 9.195,10.950 9.299 C 11.027 9.479,10.973 9.747,10.835 9.872 C 10.690 10.004,10.770 10.000,8.000 10.000 C 5.230 10.000,5.310 10.004,5.165 9.872 C 5.026 9.747,4.968 9.445,5.051 9.285 C 5.092 9.207,5.208 9.091,5.293 9.044 C 5.367 9.004,10.577 9.001,10.685 9.042 M10.685 11.042 C 10.787 11.080,10.906 11.195,10.950 11.299 C 11.027 11.479,10.973 11.747,10.835 11.872 C 10.690 12.004,10.770 12.000,8.000 12.000 C 5.230 12.000,5.310 12.004,5.165 11.872 C 5.026 11.747,4.968 11.445,5.051 11.285 C 5.092 11.207,5.208 11.091,5.293 11.044 C 5.367 11.004,10.577 11.001,10.685 11.042 " stroke="none" fill-rule="evenodd"></path></svg>