<svg width="16" height="16" fill="currentColor" xmlns="http://www.w3.org/2000/svg"><path d="M0.767 0.029 C 0.486 0.095,0.229 0.309,0.096 0.587 L 0.013 0.760 0.013 8.000 L 0.013 15.240 0.088 15.400 C 0.186 15.610,0.391 15.816,0.597 15.911 L 0.760 15.987 8.000 15.987 L 15.240 15.987 15.403 15.911 C 15.609 15.816,15.814 15.610,15.912 15.400 L 15.987 15.240 15.987 8.000 L 15.987 0.760 15.911 0.597 C 15.816 0.391,15.610 0.186,15.400 0.088 L 15.240 0.013 8.053 0.009 C 3.935 0.007,0.824 0.015,0.767 0.029 M2.987 2.013 L 2.987 3.013 2.000 3.013 L 1.013 3.013 1.013 2.013 L 1.013 1.013 2.000 1.013 L 2.987 1.013 2.987 2.013 M12.000 4.013 L 12.000 7.013 8.000 7.013 L 4.000 7.013 4.000 4.013 L 4.000 1.013 8.000 1.013 L 12.000 1.013 12.000 4.013 M14.987 2.013 L 14.987 3.013 14.000 3.013 L 13.013 3.013 13.013 2.013 L 13.013 1.013 14.000 1.013 L 14.987 1.013 14.987 2.013 M2.987 5.000 L 2.987 6.000 2.000 6.000 L 1.013 6.000 1.013 5.000 L 1.013 4.000 2.000 4.000 L 2.987 4.000 2.987 5.000 M14.987 5.000 L 14.987 6.000 14.000 6.000 L 13.013 6.000 13.013 5.000 L 13.013 4.000 14.000 4.000 L 14.987 4.000 14.987 5.000 M2.987 8.013 L 2.987 9.013 2.000 9.013 L 1.013 9.013 1.013 8.013 L 1.013 7.013 2.000 7.013 L 2.987 7.013 2.987 8.013 M14.987 8.013 L 14.987 9.013 14.000 9.013 L 13.013 9.013 13.013 8.013 L 13.013 7.013 14.000 7.013 L 14.987 7.013 14.987 8.013 M12.000 12.013 L 12.000 15.013 8.000 15.013 L 4.000 15.013 4.000 12.013 L 4.000 9.013 8.000 9.013 L 12.000 9.013 12.000 12.013 M2.987 11.000 L 2.987 12.000 2.000 12.000 L 1.013 12.000 1.013 11.000 L 1.013 10.000 2.000 10.000 L 2.987 10.000 2.987 11.000 M14.987 11.000 L 14.987 12.000 14.000 12.000 L 13.013 12.000 13.013 11.000 L 13.013 10.000 14.000 10.000 L 14.987 10.000 14.987 11.000 M2.987 14.013 L 2.987 15.013 2.000 15.013 L 1.013 15.013 1.013 14.013 L 1.013 13.013 2.000 13.013 L 2.987 13.013 2.987 14.013 M14.987 14.013 L 14.987 15.013 14.000 15.013 L 13.013 15.013 13.013 14.013 L 13.013 13.013 14.000 13.013 L 14.987 13.013 14.987 14.013 " stroke="none" fill-rule="evenodd"></path></svg>