<svg width="16" height="16" fill="currentColor" xmlns="http://www.w3.org/2000/svg"><path d="M2.306 4.050 C 1.864 4.251,1.927 4.883,2.400 4.984 C 2.592 5.025,13.408 5.025,13.600 4.984 C 14.073 4.883,14.136 4.251,13.694 4.050 C 13.591 4.003,13.347 4.001,8.000 4.001 C 2.653 4.001,2.409 4.003,2.306 4.050 M2.262 7.067 C 2.074 7.167,1.979 7.364,2.012 7.587 C 2.035 7.744,2.197 7.932,2.343 7.973 C 2.476 8.010,9.524 8.010,9.657 7.973 C 9.803 7.932,9.965 7.744,9.988 7.587 C 10.022 7.361,9.925 7.165,9.732 7.066 C 9.631 7.014,9.560 7.013,5.994 7.015 C 2.454 7.016,2.357 7.017,2.262 7.067 M2.306 10.050 C 1.864 10.251,1.927 10.883,2.400 10.984 C 2.489 11.003,3.040 11.013,4.000 11.013 C 4.960 11.013,5.511 11.003,5.600 10.984 C 5.961 10.907,6.121 10.464,5.885 10.195 C 5.709 9.994,5.777 10.001,4.000 10.001 C 2.522 10.001,2.406 10.005,2.306 10.050 " stroke="none" fill-rule="evenodd"></path></svg>