<svg width="16" height="16" fill="currentColor" xmlns="http://www.w3.org/2000/svg"><path d="M1.669 0.028 C 0.992 0.142,0.371 0.651,0.135 1.283 C -0.006 1.659,0.001 1.324,0.000 7.994 C -0.000 14.784,-0.010 14.361,0.156 14.767 C 0.347 15.238,0.762 15.653,1.233 15.844 C 1.639 16.010,1.217 16.000,8.000 16.000 C 14.782 16.000,14.361 16.010,14.766 15.845 C 15.233 15.654,15.654 15.233,15.845 14.766 C 16.010 14.361,16.000 14.782,16.000 8.000 C 16.000 1.217,16.010 1.639,15.844 1.233 C 15.666 0.795,15.309 0.422,14.864 0.208 C 14.422 -0.005,15.102 0.015,8.080 0.010 C 4.626 0.008,1.741 0.016,1.669 0.028 M14.407 1.085 C 14.584 1.167,14.812 1.392,14.900 1.570 L 14.973 1.720 14.980 7.946 C 14.988 14.846,15.001 14.319,14.811 14.576 C 14.691 14.738,14.526 14.866,14.341 14.942 L 14.200 15.000 8.000 15.000 L 1.800 15.000 1.659 14.942 C 1.381 14.828,1.152 14.596,1.063 14.338 C 1.018 14.207,1.015 13.881,1.015 8.000 C 1.015 2.119,1.018 1.793,1.063 1.662 C 1.154 1.399,1.399 1.154,1.662 1.063 C 1.793 1.017,2.106 1.015,8.040 1.021 L 14.280 1.027 14.407 1.085 M2.262 5.067 C 2.074 5.167,1.979 5.364,2.012 5.587 C 2.035 5.744,2.197 5.932,2.343 5.973 C 2.477 6.010,13.523 6.010,13.657 5.973 C 13.803 5.932,13.965 5.744,13.988 5.587 C 14.022 5.361,13.925 5.165,13.732 5.066 C 13.630 5.014,13.551 5.013,7.994 5.015 C 2.477 5.016,2.358 5.017,2.262 5.067 M4.306 8.050 C 3.864 8.251,3.927 8.883,4.400 8.984 C 4.591 9.025,11.409 9.025,11.600 8.984 C 12.073 8.883,12.136 8.251,11.694 8.050 C 11.592 8.004,11.412 8.001,8.000 8.001 C 4.588 8.001,4.408 8.004,4.306 8.050 M6.262 11.067 C 6.074 11.167,5.979 11.364,6.012 11.587 C 6.035 11.744,6.197 11.932,6.343 11.973 C 6.403 11.989,7.031 12.000,8.000 12.000 C 8.969 12.000,9.597 11.989,9.657 11.973 C 9.803 11.932,9.965 11.744,9.988 11.587 C 10.022 11.361,9.925 11.165,9.732 11.066 C 9.633 11.015,9.570 11.013,7.994 11.015 C 6.431 11.016,6.356 11.018,6.262 11.067 " stroke="none" fill-rule="evenodd"></path></svg>