<svg width="16" height="16" fill="currentColor" xmlns="http://www.w3.org/2000/svg"><path d="M7.493 0.523 C 6.872 0.599,6.453 0.686,6.013 0.832 C 5.501 1.002,4.850 1.316,4.715 1.458 C 4.434 1.753,4.628 2.248,5.039 2.287 C 5.161 2.299,5.202 2.285,5.579 2.098 C 6.792 1.499,8.071 1.353,9.387 1.664 C 10.454 1.916,11.536 2.589,12.257 3.448 C 13.037 4.378,13.547 5.688,13.547 6.765 C 13.547 7.158,13.660 7.394,13.885 7.468 C 14.022 7.514,14.221 7.487,14.343 7.406 C 14.556 7.264,14.596 7.047,14.531 6.385 C 14.383 4.874,13.727 3.485,12.654 2.413 C 11.665 1.424,10.425 0.794,9.027 0.572 C 8.770 0.532,7.704 0.497,7.493 0.523 M7.520 2.029 C 6.289 2.168,5.131 2.767,4.325 3.680 C 4.051 3.992,3.853 4.283,3.829 4.410 C 3.804 4.543,3.853 4.703,3.954 4.818 C 4.056 4.934,4.172 4.987,4.324 4.987 C 4.517 4.987,4.636 4.906,4.827 4.647 C 5.044 4.350,5.445 3.952,5.728 3.750 C 6.151 3.449,6.682 3.214,7.213 3.092 C 7.576 3.009,8.250 2.992,8.693 3.054 C 9.068 3.107,9.176 3.095,9.317 2.984 C 9.484 2.853,9.542 2.573,9.443 2.379 C 9.329 2.155,9.176 2.095,8.547 2.027 C 8.266 1.996,7.805 1.997,7.520 2.029 M3.360 2.559 C 3.255 2.614,3.076 2.812,2.832 3.141 C 2.220 3.968,1.804 4.960,1.639 5.987 C 1.576 6.376,1.545 6.947,1.578 7.102 C 1.610 7.251,1.730 7.404,1.859 7.457 C 2.070 7.545,2.349 7.462,2.474 7.274 C 2.537 7.178,2.546 7.134,2.566 6.791 C 2.592 6.352,2.670 5.847,2.763 5.522 C 2.973 4.788,3.352 4.063,3.824 3.496 C 3.917 3.385,4.012 3.255,4.036 3.208 C 4.122 3.040,4.070 2.763,3.929 2.634 C 3.787 2.507,3.524 2.472,3.360 2.559 M10.848 3.120 C 10.592 3.197,10.437 3.520,10.533 3.774 C 10.548 3.812,10.701 3.990,10.873 4.169 C 11.046 4.348,11.263 4.606,11.356 4.742 C 11.572 5.059,11.788 5.512,11.891 5.868 C 12.029 6.344,12.053 6.609,12.053 7.633 C 12.053 8.257,12.063 8.581,12.084 8.643 C 12.132 8.784,12.208 8.876,12.327 8.937 C 12.606 9.079,12.932 8.944,13.035 8.643 C 13.076 8.526,13.078 6.952,13.038 6.545 C 12.943 5.565,12.557 4.616,11.946 3.857 C 11.693 3.544,11.277 3.156,11.157 3.122 C 11.038 3.089,10.951 3.089,10.848 3.120 M7.438 3.561 C 6.988 3.643,6.504 3.840,6.093 4.110 C 5.833 4.281,5.339 4.770,5.170 5.027 C 5.016 5.260,4.847 5.595,4.773 5.815 C 4.724 5.960,4.720 6.000,4.746 6.103 C 4.819 6.393,5.081 6.555,5.355 6.481 C 5.534 6.433,5.618 6.339,5.772 6.012 C 5.943 5.649,6.036 5.510,6.265 5.270 C 6.709 4.806,7.277 4.549,7.933 4.515 C 9.005 4.460,9.955 5.065,10.373 6.069 C 10.469 6.300,10.524 6.555,10.556 6.913 C 10.584 7.228,10.649 7.347,10.840 7.440 C 11.093 7.562,11.380 7.464,11.506 7.212 C 11.605 7.012,11.551 6.453,11.382 5.921 C 10.994 4.703,9.929 3.780,8.657 3.561 C 8.364 3.510,7.718 3.511,7.438 3.561 M7.608 5.052 C 7.218 5.141,6.770 5.420,6.522 5.730 C 6.160 6.183,6.053 6.542,6.053 7.302 C 6.053 7.547,6.040 7.934,6.023 8.164 C 5.993 8.569,5.994 8.584,6.050 8.697 C 6.234 9.067,6.750 9.080,6.934 8.719 C 7.005 8.579,7.038 8.249,7.061 7.425 C 7.081 6.733,7.081 6.732,7.158 6.574 C 7.261 6.365,7.429 6.202,7.648 6.098 C 7.808 6.023,7.852 6.014,8.067 6.014 C 8.270 6.014,8.330 6.025,8.459 6.085 C 8.798 6.243,8.995 6.523,9.051 6.926 C 9.098 7.257,9.164 7.367,9.367 7.452 C 9.497 7.507,9.642 7.503,9.775 7.443 C 9.992 7.344,10.068 7.171,10.045 6.829 C 10.015 6.370,9.815 5.944,9.469 5.598 C 9.234 5.363,8.967 5.196,8.674 5.101 C 8.414 5.016,7.874 4.991,7.608 5.052 M3.413 5.883 C 3.271 5.944,3.176 6.051,3.132 6.199 C 3.106 6.285,3.078 6.592,3.054 7.053 C 3.016 7.769,2.962 8.188,2.854 8.608 C 2.826 8.721,2.537 9.724,2.214 10.836 C 1.891 11.949,1.627 12.873,1.627 12.890 C 1.628 13.054,1.785 13.286,1.939 13.351 C 2.145 13.437,2.431 13.355,2.545 13.177 C 2.611 13.074,3.768 9.125,3.881 8.617 C 3.984 8.152,4.026 7.808,4.059 7.133 C 4.107 6.182,4.107 6.188,4.017 6.059 C 3.882 5.864,3.627 5.790,3.413 5.883 M7.853 6.549 C 7.576 6.701,7.547 6.805,7.546 7.652 C 7.546 8.369,7.521 8.752,7.438 9.320 C 7.317 10.145,7.243 10.407,6.388 13.067 C 6.013 14.233,5.707 15.226,5.707 15.274 C 5.707 15.375,5.768 15.535,5.834 15.609 C 5.959 15.747,6.227 15.800,6.408 15.723 C 6.606 15.638,6.620 15.606,7.041 14.302 C 8.150 10.859,8.179 10.764,8.304 10.180 C 8.479 9.359,8.533 8.836,8.552 7.796 C 8.567 6.917,8.567 6.911,8.507 6.787 C 8.425 6.618,8.282 6.526,8.084 6.514 C 7.981 6.508,7.908 6.520,7.853 6.549 M4.947 7.506 C 4.932 7.511,4.887 7.523,4.847 7.531 C 4.738 7.555,4.595 7.694,4.549 7.821 C 4.527 7.883,4.496 8.047,4.480 8.187 C 4.397 8.932,4.330 9.190,3.543 11.815 C 2.817 14.237,2.842 14.112,3.035 14.326 C 3.089 14.386,3.172 14.451,3.219 14.471 C 3.404 14.548,3.657 14.485,3.789 14.329 C 3.839 14.268,4.008 13.743,4.500 12.105 C 5.193 9.800,5.273 9.512,5.372 8.976 C 5.484 8.370,5.523 8.005,5.491 7.882 C 5.435 7.674,5.287 7.544,5.067 7.510 C 5.015 7.502,4.961 7.500,4.947 7.506 M1.587 8.049 C 1.462 8.108,1.354 8.220,1.312 8.333 C 1.232 8.546,0.504 11.199,0.502 11.283 C 0.499 11.481,0.607 11.655,0.784 11.736 C 1.004 11.836,1.277 11.766,1.400 11.577 C 1.482 11.451,2.274 8.646,2.272 8.486 C 2.270 8.147,1.889 7.905,1.587 8.049 M9.391 8.027 C 9.127 8.139,9.067 8.268,9.038 8.785 C 8.997 9.486,8.911 10.060,8.744 10.747 C 8.679 11.012,8.357 12.027,7.932 13.308 C 7.544 14.475,7.227 15.465,7.227 15.508 C 7.228 15.622,7.313 15.792,7.411 15.874 C 7.627 16.056,7.971 16.017,8.129 15.791 C 8.202 15.688,9.580 11.529,9.703 11.040 C 9.894 10.286,10.012 9.503,10.045 8.783 C 10.060 8.432,10.058 8.399,10.003 8.286 C 9.926 8.128,9.773 8.026,9.591 8.011 C 9.515 8.005,9.425 8.012,9.391 8.027 M10.840 8.204 C 10.609 8.326,10.569 8.437,10.548 9.000 C 10.514 9.920,10.369 10.811,10.118 11.646 C 10.066 11.819,9.767 12.704,9.452 13.613 C 9.053 14.766,8.880 15.302,8.880 15.381 C 8.880 15.503,8.949 15.665,9.030 15.737 C 9.255 15.934,9.616 15.898,9.774 15.663 C 9.825 15.588,10.105 14.800,10.818 12.722 C 11.297 11.327,11.490 10.378,11.543 9.154 C 11.568 8.589,11.548 8.447,11.426 8.320 C 11.386 8.277,11.313 8.224,11.265 8.201 C 11.154 8.148,10.943 8.150,10.840 8.204 M13.846 8.549 C 13.727 8.610,13.609 8.751,13.575 8.873 C 13.560 8.928,13.547 9.075,13.547 9.200 C 13.547 9.325,13.534 9.625,13.520 9.867 C 13.441 11.159,13.269 12.102,12.941 13.049 C 12.771 13.540,12.764 13.659,12.892 13.828 C 13.087 14.083,13.392 14.115,13.626 13.904 C 13.710 13.828,13.749 13.754,13.848 13.484 C 14.258 12.364,14.462 11.218,14.537 9.609 L 14.568 8.937 14.498 8.795 C 14.406 8.609,14.284 8.526,14.084 8.514 C 13.981 8.508,13.906 8.519,13.846 8.549 M12.467 9.506 C 12.452 9.511,12.407 9.523,12.367 9.531 C 12.271 9.552,12.107 9.698,12.065 9.800 C 12.047 9.844,12.024 9.952,12.014 10.040 C 11.917 10.903,11.776 11.594,11.555 12.280 C 11.503 12.441,11.281 13.071,11.061 13.680 C 10.711 14.651,10.664 14.802,10.674 14.913 C 10.712 15.332,11.241 15.513,11.529 15.206 C 11.587 15.144,11.702 14.857,12.017 13.982 C 12.471 12.724,12.619 12.267,12.743 11.747 C 12.911 11.040,13.043 10.097,13.003 9.886 C 12.982 9.776,12.859 9.618,12.748 9.561 C 12.673 9.522,12.510 9.490,12.467 9.506 M5.827 10.157 C 5.640 10.273,5.649 10.248,4.943 12.523 C 4.558 13.761,4.267 14.744,4.267 14.802 C 4.267 15.002,4.377 15.165,4.573 15.256 C 4.708 15.319,4.812 15.319,4.947 15.256 C 5.182 15.147,5.148 15.235,5.886 12.861 C 6.486 10.929,6.563 10.664,6.553 10.540 C 6.541 10.378,6.446 10.238,6.293 10.156 C 6.169 10.090,5.934 10.090,5.827 10.157 " stroke="none" fill-rule="evenodd"></path></svg>