<svg width="16" height="16" fill="currentColor" xmlns="http://www.w3.org/2000/svg"><path d="M2.307 0.051 C 2.171 0.113,2.060 0.232,2.026 0.348 C 1.990 0.476,1.991 15.525,2.027 15.657 C 2.068 15.803,2.256 15.965,2.413 15.988 C 2.684 16.029,2.928 15.863,2.984 15.600 C 3.004 15.506,3.013 14.520,3.013 12.402 L 3.013 9.339 3.273 9.244 C 4.022 8.971,4.944 8.713,5.597 8.594 C 5.917 8.536,6.070 8.523,6.453 8.522 C 7.091 8.520,7.289 8.567,8.344 8.977 C 9.481 9.418,9.896 9.510,10.653 9.486 C 11.280 9.466,11.888 9.355,12.813 9.092 C 13.618 8.863,14.661 8.499,14.805 8.397 C 14.847 8.367,14.908 8.292,14.941 8.231 L 15.000 8.120 15.008 4.333 C 15.014 1.677,15.008 0.506,14.987 0.412 C 14.971 0.335,14.924 0.236,14.879 0.181 C 14.802 0.087,14.796 0.085,14.550 0.066 L 14.299 0.047 13.783 0.234 C 12.256 0.787,11.008 1.052,10.242 0.986 C 9.783 0.946,9.448 0.848,8.587 0.506 C 7.251 -0.026,6.617 -0.102,5.387 0.123 C 4.801 0.230,3.546 0.575,3.048 0.766 C 3.023 0.776,3.013 0.745,3.013 0.650 C 3.011 0.345,2.908 0.141,2.710 0.051 C 2.571 -0.012,2.442 -0.012,2.307 0.051 M7.021 1.053 C 7.332 1.107,7.590 1.191,8.293 1.467 C 9.305 1.863,9.701 1.964,10.347 1.990 C 11.133 2.021,12.161 1.826,13.480 1.395 C 13.729 1.313,13.948 1.240,13.967 1.234 C 13.993 1.223,13.999 1.868,13.993 4.440 L 13.987 7.659 13.653 7.778 C 12.882 8.052,11.912 8.316,11.264 8.429 C 11.019 8.472,10.808 8.489,10.533 8.491 C 9.963 8.493,9.685 8.425,8.720 8.048 C 7.775 7.678,7.397 7.573,6.817 7.519 C 6.257 7.467,5.554 7.553,4.611 7.789 C 4.201 7.891,3.301 8.162,3.051 8.258 C 3.018 8.270,3.014 7.844,3.020 5.051 L 3.027 1.830 3.533 1.660 C 4.447 1.353,5.220 1.152,5.853 1.055 C 6.180 1.005,6.741 1.004,7.021 1.053 " stroke="none" fill-rule="evenodd"></path></svg>