<svg width="16" height="16" fill="currentColor" xmlns="http://www.w3.org/2000/svg"><path d="M7.467 0.038 C 6.830 0.131,6.295 0.334,5.773 0.683 C 4.752 1.366,4.090 2.507,4.010 3.723 L 3.993 3.993 3.753 4.011 C 3.210 4.052,2.751 4.170,2.303 4.385 C 1.134 4.945,0.360 5.929,0.074 7.220 C 0.026 7.437,0.016 7.565,0.016 8.000 C 0.016 8.572,0.051 8.800,0.213 9.283 C 0.720 10.797,2.136 11.886,3.733 11.991 L 3.993 12.008 4.010 12.277 C 4.114 13.864,5.207 15.281,6.715 15.787 C 7.194 15.947,7.428 15.983,8.000 15.983 C 8.572 15.983,8.806 15.947,9.285 15.787 C 10.796 15.280,11.886 13.863,11.991 12.267 L 12.008 12.008 12.267 11.991 C 13.489 11.910,14.635 11.249,15.319 10.227 C 15.606 9.798,15.806 9.322,15.925 8.782 C 16.009 8.402,16.009 7.598,15.925 7.218 C 15.641 5.931,14.865 4.945,13.697 4.385 C 13.248 4.170,12.800 4.054,12.250 4.012 L 12.008 3.994 11.991 3.734 C 11.871 1.910,10.501 0.386,8.694 0.064 C 8.368 0.007,7.773 -0.006,7.467 0.038 M8.537 1.052 C 9.742 1.264,10.736 2.258,10.948 3.463 C 10.988 3.697,11.000 4.178,10.966 4.230 C 10.955 4.246,10.849 4.309,10.731 4.368 C 10.445 4.511,10.030 4.792,9.660 5.091 L 9.359 5.334 9.247 5.277 C 8.916 5.108,8.469 5.013,8.000 5.013 C 7.531 5.013,7.084 5.108,6.753 5.277 L 6.641 5.334 6.340 5.091 C 5.970 4.792,5.555 4.511,5.269 4.368 C 5.151 4.309,5.045 4.246,5.034 4.230 C 5.000 4.178,5.012 3.697,5.052 3.463 C 5.153 2.888,5.461 2.300,5.881 1.881 C 6.292 1.469,6.888 1.155,7.449 1.053 C 7.711 1.005,8.266 1.005,8.537 1.052 M4.288 5.043 C 4.601 5.117,5.179 5.444,5.618 5.792 L 5.819 5.952 5.740 6.036 C 5.417 6.380,5.167 6.890,5.052 7.440 C 4.990 7.736,4.990 8.280,5.052 8.569 C 5.167 9.109,5.421 9.625,5.740 9.964 L 5.819 10.048 5.609 10.215 C 5.177 10.561,4.681 10.846,4.333 10.949 C 4.032 11.039,3.489 10.993,3.040 10.840 C 2.160 10.541,1.460 9.837,1.155 8.947 C 0.964 8.387,0.965 7.612,1.157 7.049 C 1.300 6.630,1.574 6.187,1.881 5.881 C 2.292 5.469,2.888 5.155,3.449 5.053 C 3.690 5.009,4.124 5.004,4.288 5.043 M12.537 5.052 C 13.742 5.264,14.736 6.258,14.948 7.463 C 15.028 7.922,14.985 8.535,14.845 8.947 C 14.540 9.837,13.840 10.541,12.960 10.840 C 12.514 10.992,11.966 11.038,11.667 10.949 C 11.319 10.846,10.824 10.561,10.391 10.215 L 10.181 10.048 10.260 9.964 C 10.580 9.624,10.828 9.117,10.949 8.560 C 11.009 8.280,11.009 7.732,10.948 7.440 C 10.833 6.890,10.583 6.380,10.260 6.036 L 10.181 5.952 10.391 5.785 C 10.806 5.454,11.354 5.141,11.670 5.054 C 11.846 5.005,12.264 5.005,12.537 5.052 M8.431 7.101 C 8.608 7.188,8.833 7.417,8.915 7.593 C 8.963 7.698,8.973 7.768,8.973 8.000 C 8.973 8.251,8.966 8.295,8.901 8.428 C 8.707 8.821,8.268 9.054,7.848 8.986 C 7.533 8.935,7.241 8.717,7.101 8.430 C 7.009 8.243,6.986 7.920,7.050 7.701 C 7.130 7.427,7.385 7.160,7.662 7.061 C 7.873 6.986,8.234 7.005,8.431 7.101 M7.262 10.906 C 7.891 11.066,8.530 11.019,9.154 10.766 L 9.373 10.677 9.667 10.915 C 10.031 11.209,10.447 11.490,10.731 11.632 C 10.849 11.691,10.955 11.754,10.966 11.770 C 11.000 11.822,10.988 12.303,10.948 12.537 C 10.848 13.103,10.550 13.679,10.136 14.101 C 8.966 15.294,7.034 15.294,5.864 14.101 C 5.450 13.679,5.152 13.103,5.052 12.537 C 5.012 12.303,5.000 11.822,5.034 11.770 C 5.045 11.754,5.151 11.691,5.269 11.632 C 5.553 11.490,5.969 11.209,6.332 10.915 L 6.625 10.679 6.843 10.767 C 6.963 10.815,7.152 10.877,7.262 10.906 " stroke="none" fill-rule="evenodd"></path></svg>