<svg width="16" height="16" fill="currentColor" xmlns="http://www.w3.org/2000/svg"><path d="M7.588 0.044 C 7.068 0.156,6.616 0.469,6.318 0.925 C 6.248 1.032,6.187 1.133,6.181 1.150 C 6.175 1.168,6.117 1.147,6.034 1.095 C 5.591 0.823,5.011 0.738,4.493 0.870 C 4.405 0.892,4.237 0.957,4.120 1.014 C 3.449 1.339,3.019 2.014,3.005 2.767 L 3.000 3.013 2.758 3.013 C 1.889 3.013,1.097 3.633,0.868 4.493 C 0.734 4.995,0.825 5.612,1.096 6.040 C 1.170 6.157,1.177 6.213,1.116 6.213 C 1.058 6.213,0.718 6.456,0.578 6.598 C -0.317 7.509,-0.153 8.978,0.923 9.680 C 1.031 9.751,1.133 9.813,1.150 9.819 C 1.168 9.825,1.147 9.880,1.098 9.956 C 0.825 10.388,0.733 11.003,0.868 11.507 C 1.097 12.366,1.875 12.978,2.760 12.995 L 3.000 13.000 3.005 13.240 C 3.016 13.825,3.299 14.400,3.754 14.762 C 3.937 14.906,4.268 15.072,4.507 15.137 C 4.742 15.202,5.254 15.201,5.492 15.136 C 5.692 15.081,5.965 14.962,6.085 14.876 C 6.143 14.835,6.173 14.826,6.180 14.848 C 6.186 14.866,6.249 14.969,6.320 15.077 C 7.124 16.308,8.877 16.307,9.682 15.074 C 9.752 14.967,9.814 14.866,9.820 14.848 C 9.827 14.826,9.857 14.835,9.915 14.876 C 10.035 14.962,10.308 15.081,10.508 15.136 C 10.746 15.201,11.258 15.202,11.493 15.137 C 12.372 14.896,12.978 14.131,12.995 13.240 L 13.000 13.000 13.240 12.995 C 13.825 12.984,14.400 12.701,14.762 12.246 C 14.906 12.063,15.072 11.732,15.137 11.493 C 15.202 11.258,15.201 10.746,15.136 10.508 C 15.081 10.308,14.962 10.035,14.876 9.915 C 14.835 9.857,14.826 9.827,14.848 9.820 C 14.866 9.814,14.967 9.752,15.074 9.682 C 16.158 8.975,16.317 7.493,15.408 6.584 C 15.274 6.450,14.939 6.213,14.884 6.213 C 14.827 6.213,14.825 6.157,14.880 6.080 C 14.962 5.965,15.082 5.689,15.136 5.492 C 15.201 5.254,15.202 4.742,15.137 4.507 C 14.896 3.628,14.117 3.013,13.242 3.013 L 13.000 3.013 12.995 2.767 C 12.972 1.546,11.868 0.629,10.672 0.837 C 10.400 0.885,10.175 0.967,9.966 1.095 C 9.883 1.147,9.825 1.168,9.819 1.150 C 9.789 1.061,9.536 0.712,9.411 0.588 C 9.240 0.418,8.960 0.231,8.751 0.146 C 8.403 0.005,7.954 -0.034,7.588 0.044 M8.431 1.101 C 8.514 1.142,8.640 1.238,8.718 1.320 C 9.049 1.671,9.062 1.939,8.796 3.000 C 8.628 3.674,8.050 5.665,8.012 5.703 C 8.006 5.710,7.995 5.710,7.988 5.704 C 7.972 5.688,7.579 4.383,7.430 3.853 C 7.285 3.335,7.114 2.653,7.053 2.347 C 6.962 1.895,7.036 1.572,7.288 1.312 C 7.514 1.079,7.692 1.011,8.041 1.021 C 8.241 1.027,8.309 1.041,8.431 1.101 M5.343 1.868 C 5.739 2.016,5.874 2.218,6.120 3.028 C 6.289 3.584,6.895 6.021,6.871 6.045 C 6.857 6.059,5.749 5.004,5.158 4.414 C 4.456 3.713,4.165 3.383,4.074 3.183 C 4.026 3.078,4.015 3.005,4.014 2.800 C 4.014 2.582,4.024 2.526,4.084 2.397 C 4.204 2.140,4.417 1.948,4.689 1.850 C 4.843 1.796,5.173 1.804,5.343 1.868 M11.416 1.900 C 11.643 2.011,11.774 2.140,11.880 2.355 C 12.009 2.616,12.029 2.829,11.950 3.090 C 11.872 3.345,11.664 3.595,10.856 4.401 C 10.282 4.973,9.142 6.058,9.129 6.044 C 9.121 6.037,9.412 4.797,9.559 4.213 C 9.791 3.290,10.003 2.585,10.113 2.360 C 10.233 2.118,10.420 1.953,10.680 1.860 C 10.881 1.788,11.224 1.806,11.416 1.900 M3.185 4.079 C 3.381 4.163,3.704 4.447,4.401 5.145 C 4.985 5.731,6.058 6.858,6.044 6.872 C 6.026 6.890,3.882 6.367,3.333 6.211 C 2.766 6.049,2.335 5.892,2.205 5.797 C 1.749 5.466,1.683 4.776,2.064 4.331 C 2.163 4.215,2.408 4.070,2.576 4.028 C 2.733 3.989,3.034 4.014,3.185 4.079 M13.616 4.107 C 14.179 4.381,14.356 5.097,13.986 5.600 C 13.812 5.838,13.587 5.944,12.748 6.186 C 12.151 6.358,9.976 6.892,9.956 6.871 C 9.941 6.857,10.982 5.763,11.586 5.158 C 12.485 4.257,12.675 4.106,13.027 4.017 C 13.159 3.983,13.455 4.028,13.616 4.107 M8.510 6.595 C 8.943 6.759,9.235 7.049,9.406 7.486 C 9.470 7.647,9.477 7.702,9.477 8.000 C 9.477 8.298,9.470 8.353,9.406 8.514 C 9.168 9.120,8.632 9.493,8.000 9.493 C 7.368 9.493,6.832 9.120,6.594 8.514 C 6.530 8.353,6.523 8.298,6.523 8.000 C 6.523 7.704,6.531 7.647,6.592 7.490 C 6.790 6.986,7.186 6.642,7.693 6.532 C 7.894 6.489,8.315 6.521,8.510 6.595 M2.409 7.068 C 3.127 7.214,5.707 7.943,5.707 8.000 C 5.707 8.039,3.852 8.584,2.987 8.798 C 2.290 8.972,2.025 9.015,1.842 8.985 C 1.535 8.935,1.240 8.715,1.101 8.430 C 1.009 8.243,0.986 7.920,1.050 7.701 C 1.130 7.426,1.387 7.158,1.662 7.063 C 1.845 7.000,2.079 7.001,2.409 7.068 M14.432 7.101 C 14.608 7.188,14.833 7.417,14.915 7.593 C 14.963 7.698,14.973 7.768,14.973 8.000 C 14.973 8.251,14.966 8.295,14.901 8.428 C 14.810 8.612,14.617 8.808,14.439 8.895 C 14.232 8.996,14.055 9.016,13.773 8.968 C 13.267 8.883,11.966 8.533,10.680 8.137 C 10.283 8.015,10.259 8.003,10.329 7.976 C 10.569 7.882,12.305 7.378,12.960 7.213 C 13.608 7.049,13.807 7.014,14.055 7.022 C 14.241 7.028,14.313 7.043,14.432 7.101 M5.919 9.273 C 4.839 10.436,3.941 11.341,3.516 11.695 C 3.225 11.937,3.102 11.987,2.787 11.987 C 2.583 11.987,2.524 11.976,2.395 11.916 C 2.192 11.821,2.026 11.662,1.918 11.460 C 1.840 11.314,1.828 11.264,1.819 11.053 C 1.807 10.782,1.858 10.601,2.001 10.403 C 2.201 10.126,2.560 9.986,4.027 9.609 C 4.627 9.454,5.973 9.129,6.037 9.122 C 6.050 9.121,5.997 9.189,5.919 9.273 M10.520 9.254 C 12.093 9.613,13.361 9.968,13.689 10.141 C 13.975 10.292,14.159 10.584,14.181 10.919 C 14.197 11.171,14.153 11.348,14.025 11.545 C 13.830 11.847,13.477 12.022,13.123 11.992 C 12.796 11.965,12.657 11.875,12.042 11.297 C 11.433 10.725,9.893 9.100,9.987 9.128 C 10.016 9.137,10.256 9.194,10.520 9.254 M6.721 10.627 C 6.316 12.358,6.013 13.426,5.841 13.724 C 5.750 13.882,5.586 14.026,5.398 14.113 C 5.289 14.163,5.221 14.173,5.000 14.173 C 4.767 14.173,4.715 14.164,4.587 14.103 C 4.360 13.995,4.228 13.864,4.114 13.633 C 4.020 13.442,4.013 13.414,4.014 13.188 C 4.015 12.997,4.027 12.920,4.074 12.817 C 4.164 12.619,4.454 12.289,5.145 11.599 C 5.714 11.031,6.857 9.942,6.871 9.956 C 6.874 9.959,6.807 10.261,6.721 10.627 M10.318 11.069 C 11.361 12.069,11.851 12.611,11.937 12.859 C 12.013 13.075,12.002 13.386,11.913 13.581 C 11.559 14.353,10.492 14.389,10.114 13.640 C 9.963 13.342,9.585 11.970,9.254 10.520 C 9.194 10.256,9.137 10.016,9.128 9.987 C 9.110 9.925,9.406 10.194,10.318 11.069 M8.155 10.740 C 8.518 11.921,8.883 13.281,8.962 13.743 C 9.031 14.149,8.948 14.456,8.702 14.702 C 8.308 15.096,7.692 15.096,7.298 14.702 C 7.037 14.440,6.965 14.137,7.052 13.667 C 7.146 13.162,7.397 12.227,7.762 11.019 C 7.878 10.634,7.973 10.313,7.973 10.306 C 7.973 10.299,7.983 10.293,7.996 10.293 C 8.008 10.293,8.080 10.494,8.155 10.740 " stroke="none" fill-rule="evenodd"></path></svg>