<svg width="16" height="16" fill="currentColor" xmlns="http://www.w3.org/2000/svg"><path d="M2.063 1.053 C 1.393 1.199,0.833 1.707,0.595 2.387 C 0.521 2.598,0.520 2.607,0.520 3.240 L 0.520 3.880 0.408 4.107 C 0.277 4.374,0.217 4.592,0.197 4.874 C 0.187 5.022,0.277 6.102,0.516 8.724 C 0.845 12.317,0.851 12.372,0.933 12.618 C 1.120 13.177,1.544 13.634,2.080 13.851 C 2.465 14.008,2.155 14.000,8.000 14.000 C 13.845 14.000,13.535 14.008,13.920 13.851 C 14.163 13.753,14.361 13.620,14.568 13.417 C 14.800 13.191,14.962 12.932,15.067 12.618 C 15.149 12.372,15.155 12.317,15.484 8.724 C 15.729 6.037,15.813 5.024,15.802 4.867 C 15.746 4.041,15.229 3.387,14.399 3.090 L 14.227 3.028 11.880 3.013 L 9.533 2.998 9.293 2.924 C 8.844 2.785,8.746 2.716,8.066 2.052 C 7.303 1.308,7.132 1.189,6.653 1.067 C 6.453 1.015,6.361 1.013,4.336 1.015 C 2.683 1.017,2.191 1.025,2.063 1.053 M6.573 2.088 C 6.699 2.147,6.820 2.250,7.154 2.581 L 7.576 3.000 4.674 3.013 C 2.080 3.026,1.760 3.032,1.648 3.071 C 1.528 3.112,1.521 3.112,1.507 3.066 C 1.484 2.995,1.536 2.712,1.596 2.576 C 1.702 2.337,1.974 2.108,2.238 2.036 C 2.331 2.011,2.836 2.004,4.387 2.008 L 6.413 2.013 6.573 2.088 M14.062 4.040 C 14.479 4.149,14.768 4.496,14.793 4.920 C 14.808 5.163,14.173 12.134,14.121 12.309 C 14.038 12.582,13.793 12.834,13.493 12.953 C 13.380 12.997,13.086 13.000,8.000 13.000 L 2.627 13.000 2.473 12.938 C 2.203 12.829,1.940 12.542,1.869 12.280 C 1.822 12.105,1.194 5.130,1.207 4.920 C 1.232 4.501,1.517 4.151,1.921 4.043 C 2.144 3.983,13.833 3.980,14.062 4.040 M8.285 5.532 C 8.037 5.620,8.000 5.716,8.000 6.263 L 8.000 6.688 7.727 6.705 C 6.970 6.754,6.499 6.899,5.982 7.242 C 5.170 7.782,4.588 8.761,4.240 10.169 C 4.144 10.557,3.987 11.436,4.010 11.459 C 4.015 11.464,4.074 11.373,4.141 11.257 C 4.336 10.922,4.638 10.541,4.939 10.251 C 5.702 9.516,6.724 9.096,7.753 9.094 L 8.000 9.093 8.000 9.525 C 8.000 10.000,8.030 10.117,8.178 10.224 C 8.265 10.288,8.477 10.311,8.563 10.266 C 8.598 10.248,9.357 9.782,10.250 9.230 C 11.421 8.506,11.888 8.204,11.924 8.147 C 12.034 7.968,12.019 7.753,11.885 7.614 C 11.785 7.511,8.625 5.554,8.499 5.518 C 8.396 5.488,8.410 5.487,8.285 5.532 " stroke="none" fill-rule="evenodd"></path></svg>