<svg width="16" height="16" fill="currentColor" xmlns="http://www.w3.org/2000/svg"><path d="M2.167 2.040 C 1.662 2.152,1.222 2.566,1.051 3.093 C 1.008 3.225,1.002 3.387,0.993 4.697 L 0.983 6.153 0.925 6.180 C 0.802 6.237,0.582 6.424,0.459 6.577 C 0.262 6.822,0.133 7.170,0.133 7.457 C 0.133 7.657,0.792 12.919,0.841 13.105 C 0.960 13.562,1.201 13.973,1.538 14.295 C 1.883 14.625,2.237 14.819,2.715 14.941 L 2.947 15.000 7.987 15.000 C 12.801 15.000,13.036 14.998,13.240 14.951 C 13.922 14.792,14.505 14.382,14.863 13.808 C 15.006 13.579,15.152 13.196,15.196 12.933 C 15.261 12.551,15.867 7.618,15.867 7.473 C 15.867 6.998,15.566 6.473,15.154 6.227 L 15.021 6.148 15.006 5.694 C 14.995 5.384,14.977 5.193,14.946 5.093 C 14.787 4.571,14.336 4.148,13.820 4.039 C 13.672 4.008,13.219 4.001,11.236 4.000 C 8.877 4.000,8.829 3.999,8.649 3.944 C 8.277 3.831,8.036 3.658,7.533 3.142 C 7.343 2.946,7.079 2.706,6.948 2.607 C 6.644 2.380,6.240 2.179,5.903 2.087 L 5.640 2.015 3.987 2.009 C 2.663 2.004,2.300 2.010,2.167 2.040 M5.641 3.054 C 5.857 3.109,6.139 3.250,6.347 3.408 C 6.442 3.480,6.706 3.724,6.933 3.951 C 7.348 4.365,7.545 4.523,7.867 4.701 C 8.117 4.840,8.488 4.956,8.777 4.986 C 8.920 5.001,10.005 5.013,11.328 5.013 C 13.533 5.013,13.633 5.015,13.728 5.064 C 13.944 5.174,14.000 5.307,14.000 5.706 L 14.000 6.000 8.000 6.000 L 2.000 6.000 2.001 4.700 C 2.001 3.496,2.005 3.392,2.050 3.293 C 2.103 3.177,2.156 3.123,2.280 3.058 C 2.398 2.996,5.398 2.992,5.641 3.054 M14.568 7.043 C 14.655 7.087,14.773 7.203,14.816 7.285 C 14.836 7.325,14.853 7.418,14.853 7.493 C 14.853 7.659,14.224 12.705,14.182 12.877 C 14.124 13.114,13.976 13.363,13.776 13.560 C 13.555 13.779,13.389 13.874,13.104 13.947 C 12.903 13.999,12.793 14.000,8.000 14.000 C 3.207 14.000,3.097 13.999,2.896 13.947 C 2.611 13.874,2.445 13.779,2.224 13.560 C 2.024 13.363,1.876 13.114,1.818 12.877 C 1.776 12.705,1.147 7.659,1.147 7.493 C 1.147 7.418,1.164 7.325,1.184 7.285 C 1.225 7.207,1.342 7.091,1.427 7.044 C 1.503 7.002,14.486 7.001,14.568 7.043 " stroke="none" fill-rule="evenodd"></path></svg>