<svg width="16" height="16" fill="currentColor" xmlns="http://www.w3.org/2000/svg"><path d="M2.063 1.053 C 1.393 1.199,0.833 1.707,0.595 2.387 C 0.521 2.598,0.520 2.607,0.520 3.240 L 0.520 3.880 0.408 4.107 C 0.277 4.374,0.217 4.592,0.197 4.874 C 0.187 5.022,0.277 6.102,0.516 8.724 C 0.845 12.317,0.851 12.372,0.933 12.618 C 1.120 13.177,1.544 13.634,2.080 13.851 C 2.465 14.008,2.155 14.000,8.000 14.000 C 13.845 14.000,13.535 14.008,13.920 13.851 C 14.163 13.753,14.361 13.620,14.568 13.417 C 14.800 13.191,14.962 12.932,15.067 12.618 C 15.149 12.372,15.155 12.317,15.484 8.724 C 15.729 6.037,15.813 5.024,15.802 4.867 C 15.746 4.041,15.229 3.387,14.399 3.090 L 14.227 3.028 11.880 3.013 L 9.533 2.998 9.293 2.924 C 8.844 2.785,8.746 2.716,8.066 2.052 C 7.303 1.308,7.132 1.189,6.653 1.067 C 6.453 1.015,6.361 1.013,4.336 1.015 C 2.683 1.017,2.191 1.025,2.063 1.053 M6.560 2.078 C 6.675 2.129,6.800 2.234,7.141 2.571 L 7.575 3.000 4.674 3.013 C 2.080 3.026,1.760 3.032,1.648 3.071 C 1.528 3.112,1.521 3.112,1.507 3.066 C 1.484 2.995,1.536 2.712,1.596 2.576 C 1.702 2.337,1.974 2.108,2.238 2.036 C 2.331 2.011,2.836 2.004,4.387 2.008 L 6.413 2.013 6.560 2.078 M14.062 4.040 C 14.479 4.149,14.768 4.496,14.793 4.920 C 14.809 5.185,14.172 12.150,14.116 12.315 C 14.093 12.384,14.051 12.478,14.023 12.525 C 13.936 12.667,13.690 12.872,13.527 12.938 L 13.373 13.000 8.000 13.000 L 2.627 13.000 2.473 12.938 C 2.203 12.829,1.940 12.542,1.869 12.280 C 1.822 12.105,1.194 5.130,1.207 4.920 C 1.232 4.501,1.517 4.151,1.921 4.043 C 2.144 3.983,13.833 3.980,14.062 4.040 " stroke="none" fill-rule="evenodd"></path></svg>