<svg width="16" height="16" fill="currentColor" xmlns="http://www.w3.org/2000/svg"><path d="M2.063 1.053 C 1.393 1.199,0.833 1.707,0.595 2.387 C 0.521 2.598,0.520 2.607,0.520 3.240 L 0.520 3.880 0.408 4.107 C 0.277 4.374,0.217 4.592,0.197 4.874 C 0.187 5.022,0.277 6.102,0.516 8.724 C 0.845 12.317,0.851 12.372,0.933 12.618 C 1.120 13.177,1.544 13.634,2.080 13.851 C 2.455 14.004,2.360 14.000,5.826 14.000 L 9.013 14.000 9.013 13.507 L 9.013 13.015 5.820 13.007 L 2.627 13.000 2.473 12.938 C 2.203 12.829,1.940 12.542,1.869 12.280 C 1.822 12.105,1.194 5.130,1.207 4.920 C 1.232 4.494,1.520 4.147,1.936 4.041 C 2.079 4.004,2.754 4.000,8.070 4.006 L 14.043 4.013 14.247 4.114 C 14.575 4.276,14.770 4.557,14.793 4.901 C 14.802 5.047,14.603 7.460,14.545 7.887 L 14.530 8.000 15.036 8.000 L 15.542 8.000 15.558 7.873 C 15.626 7.325,15.816 5.020,15.805 4.867 C 15.756 4.170,15.338 3.539,14.719 3.226 C 14.638 3.185,14.494 3.124,14.399 3.090 L 14.227 3.028 11.880 3.013 L 9.533 2.998 9.293 2.924 C 8.844 2.785,8.746 2.716,8.066 2.052 C 7.303 1.308,7.132 1.189,6.653 1.067 C 6.453 1.015,6.361 1.013,4.336 1.015 C 2.683 1.017,2.191 1.025,2.063 1.053 M6.573 2.088 C 6.699 2.147,6.820 2.250,7.154 2.581 L 7.576 3.000 4.674 3.013 C 2.080 3.026,1.760 3.032,1.648 3.071 C 1.528 3.112,1.521 3.112,1.507 3.066 C 1.484 2.995,1.536 2.712,1.596 2.576 C 1.702 2.337,1.974 2.108,2.238 2.036 C 2.331 2.011,2.836 2.004,4.387 2.008 L 6.413 2.013 6.573 2.088 M11.290 10.051 C 11.034 10.167,10.931 10.489,11.066 10.747 C 11.085 10.784,11.365 11.080,11.689 11.407 L 12.277 12.000 11.689 12.593 C 11.365 12.920,11.085 13.216,11.066 13.253 C 10.931 13.511,11.034 13.833,11.290 13.949 C 11.417 14.006,11.516 14.012,11.666 13.970 C 11.753 13.946,11.886 13.828,12.387 13.331 L 13.002 12.721 13.561 13.281 C 13.868 13.589,14.162 13.871,14.214 13.907 C 14.410 14.043,14.700 14.014,14.866 13.841 C 15.002 13.699,15.032 13.441,14.934 13.253 C 14.915 13.216,14.635 12.920,14.311 12.593 L 13.723 12.000 14.311 11.407 C 14.635 11.080,14.915 10.784,14.934 10.747 C 15.029 10.566,15.003 10.306,14.877 10.169 C 14.794 10.078,14.623 10.001,14.507 10.001 C 14.312 10.001,14.197 10.088,13.587 10.694 L 12.998 11.279 12.426 10.705 C 11.710 9.988,11.586 9.917,11.290 10.051 " stroke="none" fill-rule="evenodd"></path></svg>