<svg width="16" height="16" fill="currentColor" xmlns="http://www.w3.org/2000/svg"><path d="M3.732 3.273 C 3.731 3.416,3.715 3.959,3.696 4.480 C 3.676 5.001,3.669 5.436,3.679 5.448 C 3.690 5.459,3.799 5.465,3.921 5.461 L 4.145 5.453 4.188 5.240 C 4.349 4.444,4.620 4.046,5.139 3.843 C 5.449 3.721,5.959 3.655,6.900 3.614 L 7.254 3.598 7.247 7.712 C 7.240 11.661,7.238 11.830,7.191 11.917 C 7.068 12.142,6.855 12.236,6.293 12.315 L 5.960 12.362 5.960 12.614 L 5.960 12.867 8.000 12.867 L 10.040 12.867 10.040 12.614 L 10.040 12.362 9.707 12.315 C 9.364 12.268,9.088 12.193,8.971 12.116 C 8.934 12.092,8.872 12.017,8.832 11.950 L 8.760 11.827 8.753 7.712 L 8.746 3.598 9.100 3.614 C 10.560 3.678,11.008 3.793,11.384 4.200 C 11.536 4.365,11.691 4.701,11.772 5.043 C 11.807 5.195,11.841 5.350,11.845 5.387 C 11.853 5.452,11.859 5.454,12.102 5.461 L 12.350 5.469 12.334 5.114 C 12.312 4.617,12.267 3.298,12.267 3.143 L 12.267 3.013 8.000 3.013 L 3.733 3.013 3.732 3.273 " stroke="none" fill-rule="evenodd"></path></svg>