<svg width="16" height="16" fill="currentColor" xmlns="http://www.w3.org/2000/svg"><path d="M2.689 0.027 C 1.774 0.184,1.120 0.879,1.014 1.807 C 0.997 1.956,0.987 4.369,0.987 8.527 L 0.987 15.013 0.679 15.013 C 0.425 15.013,0.353 15.023,0.268 15.066 C 0.075 15.165,-0.022 15.361,0.012 15.587 C 0.035 15.744,0.197 15.932,0.343 15.973 C 0.477 16.010,11.523 16.010,11.657 15.973 C 11.803 15.932,11.965 15.744,11.988 15.587 C 12.022 15.361,11.925 15.165,11.732 15.066 C 11.647 15.023,11.575 15.013,11.321 15.013 L 11.013 15.013 11.013 13.013 L 11.013 11.013 11.106 11.013 C 11.329 11.013,11.640 11.190,11.799 11.407 C 11.955 11.620,11.978 11.718,12.000 12.293 C 12.024 12.879,12.058 13.023,12.238 13.299 C 12.512 13.718,12.922 13.959,13.413 13.991 C 14.104 14.036,14.721 13.600,14.950 12.907 C 14.995 12.770,14.999 12.595,15.007 10.380 L 15.016 8.000 15.288 8.000 C 15.438 8.000,15.604 7.988,15.657 7.973 C 15.798 7.934,15.965 7.743,15.986 7.596 C 16.019 7.378,15.985 3.337,15.949 3.122 C 15.758 1.981,15.262 1.358,14.343 1.105 C 14.086 1.035,13.499 0.986,13.350 1.023 C 13.271 1.043,13.106 1.180,13.061 1.263 C 12.930 1.509,13.041 1.840,13.290 1.947 C 13.354 1.974,13.506 2.001,13.655 2.010 C 14.377 2.058,14.714 2.306,14.879 2.912 C 14.936 3.121,14.986 3.500,14.986 3.725 L 14.987 3.863 14.180 3.872 C 13.377 3.880,13.373 3.880,13.257 3.946 C 13.186 3.987,13.114 4.059,13.071 4.133 L 13.000 4.253 12.992 5.852 C 12.987 6.915,12.994 7.496,13.013 7.584 C 13.049 7.753,13.150 7.885,13.290 7.949 C 13.376 7.988,13.465 7.999,13.700 7.999 L 14.000 8.000 13.999 10.300 C 13.999 12.489,13.996 12.605,13.949 12.710 C 13.922 12.770,13.859 12.850,13.809 12.888 C 13.722 12.954,13.519 13.019,13.457 13.000 C 13.440 12.995,13.394 12.984,13.354 12.975 C 13.265 12.956,13.104 12.819,13.052 12.717 C 13.025 12.665,13.013 12.552,13.013 12.341 C 13.013 11.730,12.927 11.333,12.723 10.988 C 12.396 10.437,11.837 10.082,11.189 10.013 L 11.013 9.994 11.013 6.017 C 11.013 3.535,11.003 1.952,10.986 1.807 C 10.890 0.966,10.356 0.325,9.542 0.075 L 9.347 0.014 6.080 0.010 C 4.283 0.008,2.757 0.015,2.689 0.027 M9.347 1.069 C 9.544 1.143,9.699 1.264,9.819 1.441 C 10.014 1.727,10.000 1.177,10.000 8.459 L 10.000 15.013 6.000 15.013 L 2.000 15.013 2.000 8.459 C 2.000 1.177,1.986 1.726,2.181 1.442 C 2.305 1.261,2.427 1.162,2.629 1.079 L 2.787 1.015 5.992 1.014 C 9.177 1.013,9.199 1.014,9.347 1.069 M3.290 2.051 C 3.155 2.113,3.052 2.243,3.015 2.401 C 2.978 2.565,2.978 7.435,3.015 7.599 C 3.052 7.757,3.155 7.887,3.290 7.949 C 3.395 7.997,3.518 7.999,6.000 7.999 C 8.482 7.999,8.605 7.997,8.710 7.949 C 8.845 7.887,8.948 7.757,8.985 7.599 C 9.022 7.435,9.022 2.565,8.985 2.401 C 8.948 2.243,8.845 2.113,8.710 2.051 C 8.605 2.003,8.482 2.001,6.000 2.001 C 3.518 2.001,3.395 2.003,3.290 2.051 M4.000 11.509 L 4.000 14.004 5.140 13.994 C 6.222 13.984,6.291 13.980,6.493 13.923 C 6.870 13.818,7.078 13.697,7.350 13.427 C 7.549 13.229,7.612 13.145,7.702 12.959 C 8.115 12.105,8.096 10.731,7.661 9.947 C 7.605 9.846,7.474 9.683,7.349 9.557 C 7.176 9.383,7.088 9.319,6.901 9.228 C 6.493 9.032,6.345 9.014,5.087 9.014 L 4.000 9.013 4.000 11.509 M6.066 9.854 C 6.289 9.912,6.465 10.016,6.612 10.177 C 6.868 10.457,6.960 10.766,6.979 11.400 C 6.990 11.789,6.984 11.891,6.937 12.120 C 6.865 12.467,6.736 12.730,6.559 12.889 C 6.294 13.127,6.019 13.200,5.384 13.200 L 4.987 13.200 4.987 11.507 L 4.987 9.813 5.448 9.813 C 5.776 9.813,5.954 9.825,6.066 9.854 " stroke="none" fill-rule="evenodd"></path></svg>