<svg width="16" height="16" fill="currentColor" xmlns="http://www.w3.org/2000/svg"><path d="M7.728 0.037 C 7.540 0.088,7.321 0.245,7.215 0.407 C 7.158 0.493,7.096 0.643,7.054 0.800 C 6.923 1.284,6.768 1.504,6.457 1.650 C 6.328 1.710,6.271 1.720,6.053 1.720 C 5.828 1.720,5.784 1.712,5.654 1.645 C 5.572 1.602,5.400 1.465,5.260 1.330 C 4.987 1.066,4.828 0.975,4.584 0.946 C 4.296 0.912,3.960 1.047,3.746 1.284 C 3.519 1.536,3.469 1.851,3.589 2.280 C 3.673 2.585,3.684 2.853,3.617 3.034 C 3.511 3.323,3.279 3.540,2.979 3.631 C 2.762 3.697,2.614 3.689,2.317 3.596 C 2.172 3.551,2.056 3.534,1.880 3.534 C 1.658 3.534,1.628 3.541,1.472 3.625 C 1.130 3.809,0.949 4.109,0.949 4.493 C 0.948 4.794,1.023 4.945,1.329 5.262 C 1.460 5.398,1.600 5.574,1.642 5.654 C 1.710 5.784,1.718 5.828,1.719 6.053 C 1.720 6.273,1.711 6.327,1.650 6.457 C 1.564 6.639,1.422 6.801,1.268 6.891 C 1.205 6.928,1.017 6.995,0.850 7.040 C 0.631 7.099,0.506 7.149,0.402 7.221 C -0.134 7.588,-0.134 8.412,0.402 8.779 C 0.500 8.846,0.629 8.901,0.800 8.947 C 1.283 9.077,1.504 9.232,1.650 9.543 C 1.711 9.673,1.720 9.727,1.719 9.947 C 1.718 10.172,1.710 10.216,1.642 10.346 C 1.600 10.426,1.460 10.602,1.329 10.738 C 1.023 11.055,0.948 11.206,0.949 11.507 C 0.949 11.782,1.023 11.974,1.203 12.172 C 1.476 12.471,1.804 12.544,2.280 12.412 C 2.724 12.289,3.013 12.320,3.286 12.521 C 3.538 12.706,3.705 13.077,3.666 13.369 C 3.656 13.445,3.618 13.614,3.581 13.745 C 3.455 14.188,3.535 14.529,3.828 14.797 C 4.026 14.977,4.218 15.051,4.493 15.051 C 4.794 15.052,4.945 14.977,5.262 14.671 C 5.397 14.540,5.574 14.399,5.654 14.357 C 5.785 14.288,5.826 14.280,6.053 14.280 C 6.271 14.280,6.327 14.290,6.457 14.350 C 6.768 14.496,6.923 14.717,7.053 15.200 C 7.193 15.720,7.525 16.000,8.000 16.000 C 8.475 16.000,8.807 15.720,8.947 15.200 C 9.077 14.717,9.232 14.496,9.543 14.350 C 9.673 14.290,9.729 14.280,9.947 14.280 C 10.174 14.280,10.215 14.288,10.346 14.357 C 10.426 14.399,10.603 14.540,10.738 14.671 C 11.055 14.977,11.206 15.052,11.507 15.051 C 11.782 15.051,11.974 14.977,12.172 14.797 C 12.471 14.524,12.544 14.196,12.412 13.720 C 12.289 13.276,12.320 12.987,12.521 12.714 C 12.706 12.462,13.077 12.295,13.369 12.334 C 13.445 12.344,13.614 12.382,13.745 12.419 C 14.188 12.545,14.529 12.465,14.797 12.172 C 14.977 11.974,15.051 11.782,15.051 11.507 C 15.052 11.206,14.977 11.055,14.671 10.738 C 14.540 10.603,14.399 10.426,14.357 10.346 C 14.288 10.215,14.280 10.174,14.280 9.947 C 14.280 9.729,14.290 9.673,14.350 9.543 C 14.496 9.232,14.717 9.077,15.200 8.947 C 15.371 8.901,15.500 8.846,15.598 8.779 C 16.134 8.412,16.134 7.588,15.598 7.221 C 15.494 7.149,15.369 7.099,15.150 7.040 C 14.983 6.995,14.795 6.928,14.732 6.891 C 14.578 6.801,14.436 6.639,14.350 6.457 C 14.290 6.327,14.280 6.271,14.280 6.053 C 14.280 5.826,14.288 5.785,14.357 5.654 C 14.399 5.574,14.540 5.397,14.671 5.262 C 14.977 4.945,15.052 4.794,15.051 4.493 C 15.051 4.109,14.870 3.809,14.528 3.625 C 14.372 3.541,14.342 3.534,14.120 3.534 C 13.939 3.534,13.831 3.550,13.680 3.599 C 13.064 3.799,12.508 3.520,12.359 2.937 C 12.308 2.739,12.320 2.604,12.419 2.255 C 12.563 1.749,12.430 1.352,12.031 1.096 C 11.858 0.985,11.605 0.923,11.416 0.946 C 11.172 0.975,11.013 1.066,10.740 1.330 C 10.600 1.465,10.428 1.602,10.346 1.645 C 10.216 1.712,10.172 1.720,9.947 1.720 C 9.729 1.720,9.672 1.710,9.543 1.650 C 9.232 1.504,9.077 1.284,8.946 0.800 C 8.858 0.474,8.744 0.298,8.531 0.161 C 8.291 0.006,8.008 -0.038,7.728 0.037 M8.671 3.052 C 10.316 3.271,11.748 4.305,12.481 5.800 C 13.059 6.982,13.150 8.346,12.733 9.595 C 12.262 11.002,11.148 12.156,9.756 12.676 C 9.422 12.801,9.063 12.893,8.703 12.947 C 8.323 13.003,7.627 13.004,7.240 12.947 C 4.144 12.495,2.217 9.398,3.188 6.434 C 3.533 5.381,4.229 4.469,5.164 3.843 C 5.431 3.665,5.891 3.427,6.173 3.321 C 6.423 3.227,6.900 3.103,7.147 3.068 C 7.257 3.053,7.377 3.036,7.413 3.030 C 7.593 3.004,8.417 3.018,8.671 3.052 " stroke="none" fill-rule="evenodd"></path></svg>