<svg width="16" height="16" fill="currentColor" xmlns="http://www.w3.org/2000/svg"><path d="M7.730 0.037 C 7.568 0.080,7.354 0.220,7.253 0.347 C 7.153 0.473,7.109 0.578,7.028 0.880 C 6.916 1.299,6.761 1.507,6.457 1.650 C 6.328 1.710,6.271 1.720,6.053 1.720 C 5.828 1.720,5.784 1.712,5.654 1.645 C 5.572 1.602,5.400 1.465,5.260 1.330 C 4.987 1.066,4.828 0.975,4.584 0.946 C 4.296 0.912,3.960 1.047,3.746 1.284 C 3.523 1.531,3.470 1.849,3.582 2.267 C 3.682 2.640,3.691 2.741,3.642 2.935 C 3.492 3.520,2.937 3.799,2.320 3.599 C 2.169 3.550,2.061 3.534,1.880 3.534 C 1.658 3.534,1.628 3.541,1.472 3.625 C 1.130 3.809,0.949 4.109,0.949 4.493 C 0.948 4.794,1.023 4.945,1.329 5.262 C 1.460 5.398,1.600 5.574,1.642 5.654 C 1.710 5.784,1.718 5.828,1.719 6.053 C 1.720 6.273,1.711 6.327,1.650 6.457 C 1.564 6.639,1.422 6.801,1.268 6.891 C 1.205 6.928,1.017 6.995,0.850 7.040 C 0.631 7.099,0.506 7.149,0.402 7.221 C -0.134 7.588,-0.134 8.412,0.402 8.779 C 0.500 8.846,0.629 8.901,0.800 8.947 C 1.283 9.077,1.504 9.232,1.650 9.543 C 1.711 9.673,1.720 9.727,1.719 9.947 C 1.718 10.172,1.710 10.216,1.642 10.346 C 1.600 10.426,1.460 10.602,1.329 10.738 C 1.023 11.055,0.948 11.206,0.949 11.507 C 0.949 11.782,1.023 11.974,1.203 12.172 C 1.471 12.465,1.812 12.545,2.255 12.419 C 2.386 12.382,2.555 12.344,2.631 12.334 C 2.923 12.295,3.294 12.462,3.479 12.714 C 3.680 12.987,3.711 13.276,3.588 13.720 C 3.456 14.196,3.529 14.524,3.828 14.797 C 4.026 14.977,4.218 15.051,4.493 15.051 C 4.794 15.052,4.945 14.977,5.262 14.671 C 5.397 14.540,5.574 14.399,5.654 14.357 C 5.785 14.288,5.826 14.280,6.053 14.280 C 6.271 14.280,6.327 14.290,6.457 14.350 C 6.768 14.496,6.923 14.717,7.053 15.200 C 7.193 15.720,7.525 16.000,8.000 16.000 C 8.475 16.000,8.807 15.720,8.947 15.200 C 9.077 14.717,9.232 14.496,9.543 14.350 C 9.673 14.290,9.729 14.280,9.947 14.280 C 10.174 14.280,10.215 14.288,10.346 14.357 C 10.426 14.399,10.603 14.540,10.738 14.671 C 11.055 14.977,11.206 15.052,11.507 15.051 C 11.782 15.051,11.974 14.977,12.172 14.797 C 12.465 14.529,12.545 14.188,12.419 13.745 C 12.382 13.614,12.344 13.445,12.334 13.369 C 12.295 13.077,12.462 12.706,12.714 12.521 C 12.987 12.320,13.276 12.289,13.720 12.412 C 14.196 12.544,14.524 12.471,14.797 12.172 C 14.977 11.974,15.051 11.782,15.051 11.507 C 15.052 11.206,14.977 11.055,14.671 10.738 C 14.540 10.603,14.399 10.426,14.357 10.346 C 14.288 10.215,14.280 10.174,14.280 9.947 C 14.280 9.729,14.290 9.673,14.350 9.543 C 14.496 9.232,14.717 9.077,15.200 8.947 C 15.371 8.901,15.500 8.846,15.598 8.779 C 16.134 8.412,16.134 7.588,15.598 7.221 C 15.494 7.149,15.369 7.099,15.150 7.040 C 14.983 6.995,14.795 6.928,14.732 6.891 C 14.578 6.801,14.436 6.639,14.350 6.457 C 14.290 6.327,14.280 6.271,14.280 6.053 C 14.280 5.826,14.288 5.785,14.357 5.654 C 14.399 5.574,14.540 5.397,14.671 5.262 C 14.977 4.945,15.052 4.794,15.051 4.493 C 15.051 4.109,14.870 3.809,14.528 3.625 C 14.372 3.541,14.342 3.534,14.120 3.534 C 13.944 3.534,13.828 3.551,13.683 3.596 C 13.386 3.689,13.238 3.697,13.021 3.631 C 12.800 3.564,12.647 3.458,12.521 3.287 C 12.320 3.013,12.289 2.724,12.412 2.280 C 12.531 1.851,12.481 1.535,12.254 1.284 C 12.040 1.047,11.704 0.912,11.416 0.946 C 11.172 0.975,11.013 1.066,10.740 1.330 C 10.600 1.465,10.428 1.602,10.346 1.645 C 10.216 1.712,10.172 1.720,9.947 1.720 C 9.729 1.720,9.672 1.710,9.543 1.650 C 9.232 1.504,9.077 1.284,8.946 0.800 C 8.858 0.474,8.744 0.298,8.531 0.161 C 8.292 0.006,8.007 -0.038,7.730 0.037 M8.880 3.080 C 10.727 3.413,12.266 4.793,12.789 6.584 C 12.859 6.821,12.960 7.324,12.960 7.432 L 12.960 7.493 10.603 7.493 L 8.247 7.493 6.892 5.687 C 6.147 4.693,5.509 3.842,5.475 3.796 L 5.412 3.713 5.766 3.538 C 6.285 3.282,6.715 3.144,7.227 3.069 C 7.337 3.053,7.457 3.035,7.493 3.029 C 7.660 3.000,8.639 3.036,8.880 3.080 M5.989 6.153 C 6.734 7.147,7.344 7.978,7.344 8.000 C 7.344 8.043,4.646 11.653,4.615 11.653 C 4.587 11.653,4.236 11.290,4.099 11.120 C 3.542 10.427,3.169 9.554,3.053 8.675 C 2.852 7.140,3.350 5.618,4.406 4.540 C 4.510 4.434,4.604 4.347,4.615 4.347 C 4.625 4.347,5.243 5.160,5.989 6.153 M12.960 8.568 C 12.960 8.676,12.859 9.179,12.789 9.416 C 12.494 10.426,11.828 11.382,10.984 12.007 C 9.839 12.853,8.393 13.176,7.006 12.895 C 6.574 12.808,6.200 12.678,5.765 12.463 L 5.411 12.288 5.474 12.204 C 5.509 12.158,6.147 11.307,6.892 10.313 L 8.247 8.507 10.603 8.507 L 12.960 8.507 12.960 8.568 " stroke="none" fill-rule="evenodd"></path></svg>