<svg width="16" height="16" fill="currentColor" xmlns="http://www.w3.org/2000/svg"><path d="M0.307 0.051 C 0.171 0.113,0.060 0.232,0.026 0.348 C -0.010 0.473,-0.009 3.528,0.027 3.657 C 0.068 3.803,0.256 3.965,0.413 3.988 C 0.684 4.029,0.928 3.863,0.984 3.600 C 1.002 3.517,1.013 3.123,1.013 2.592 L 1.013 1.720 1.899 2.606 L 2.785 3.491 2.432 3.850 C 2.238 4.048,2.061 4.251,2.040 4.304 C 1.961 4.491,2.016 4.737,2.169 4.877 C 2.260 4.961,2.472 5.015,2.599 4.987 C 2.741 4.955,2.856 4.865,3.200 4.521 L 3.506 4.213 3.978 4.684 L 4.450 5.156 4.387 5.279 C 4.289 5.473,4.139 5.926,4.075 6.223 C 3.990 6.614,3.990 7.386,4.075 7.777 C 4.241 8.545,4.574 9.190,5.082 9.730 C 5.674 10.358,6.487 10.803,7.287 10.936 L 7.493 10.970 7.493 11.992 L 7.493 13.013 6.672 13.013 L 5.850 13.013 5.730 13.090 C 5.397 13.301,5.436 13.785,5.799 13.950 C 5.896 13.994,5.988 13.999,6.700 13.999 L 7.493 14.000 7.494 14.793 C 7.494 15.508,7.499 15.597,7.544 15.693 C 7.730 16.096,8.270 16.096,8.456 15.693 C 8.501 15.597,8.506 15.508,8.506 14.793 L 8.507 14.000 9.300 13.999 C 10.012 13.999,10.104 13.994,10.201 13.950 C 10.564 13.785,10.603 13.301,10.270 13.090 L 10.150 13.013 9.328 13.013 L 8.507 13.013 8.507 11.992 L 8.507 10.970 8.713 10.936 C 9.200 10.854,9.820 10.597,10.276 10.287 C 10.575 10.083,11.058 9.608,11.259 9.320 C 11.579 8.861,11.804 8.338,11.925 7.777 C 12.003 7.413,12.010 6.642,11.937 6.281 C 11.878 5.983,11.755 5.598,11.640 5.346 L 11.553 5.154 13.269 3.438 L 14.984 1.722 14.992 3.175 C 14.999 4.481,15.005 4.635,15.045 4.709 C 15.106 4.819,15.263 4.955,15.354 4.975 C 15.394 4.984,15.440 4.995,15.457 5.000 C 15.519 5.019,15.722 4.954,15.809 4.888 C 15.859 4.850,15.922 4.770,15.949 4.710 C 15.996 4.606,15.999 4.494,15.999 2.520 C 16.000 1.235,15.990 0.404,15.973 0.345 C 15.959 0.293,15.908 0.213,15.860 0.167 C 15.680 -0.008,15.788 -0.000,13.488 0.001 C 11.506 0.001,11.394 0.004,11.290 0.051 C 11.230 0.078,11.150 0.141,11.112 0.191 C 11.046 0.278,10.981 0.481,11.000 0.543 C 11.005 0.560,11.016 0.606,11.025 0.646 C 11.045 0.737,11.181 0.894,11.291 0.955 C 11.365 0.995,11.519 1.001,12.825 1.008 L 14.278 1.016 12.627 2.666 L 10.977 4.316 10.736 4.089 C 10.204 3.588,9.519 3.234,8.773 3.075 C 8.450 3.006,7.550 3.006,7.227 3.075 C 6.481 3.234,5.796 3.588,5.264 4.089 L 5.022 4.316 4.618 3.911 L 4.213 3.506 4.521 3.200 C 4.980 2.742,5.042 2.629,4.975 2.370 C 4.935 2.214,4.854 2.118,4.707 2.050 C 4.445 1.930,4.282 2.003,3.834 2.447 L 3.492 2.785 2.606 1.899 L 1.720 1.013 2.592 1.013 C 3.123 1.013,3.517 1.002,3.600 0.984 C 3.961 0.907,4.121 0.464,3.885 0.195 C 3.709 -0.006,3.777 0.001,2.000 0.001 C 0.512 0.001,0.407 0.004,0.307 0.051 M8.388 4.028 C 8.732 4.076,8.986 4.154,9.297 4.306 C 10.104 4.700,10.669 5.380,10.900 6.235 C 10.965 6.471,10.971 6.536,10.971 7.000 C 10.971 7.462,10.965 7.529,10.902 7.760 C 10.612 8.825,9.810 9.616,8.721 9.912 C 8.498 9.973,8.412 9.982,8.027 9.984 C 7.521 9.987,7.327 9.953,6.893 9.785 C 6.034 9.451,5.347 8.679,5.101 7.773 C 5.035 7.529,5.029 7.465,5.028 7.000 C 5.027 6.527,5.032 6.476,5.100 6.230 C 5.341 5.367,5.906 4.689,6.707 4.304 C 7.245 4.045,7.824 3.950,8.388 4.028 " stroke="none" fill-rule="evenodd"></path></svg>