<svg width="16" height="16" fill="currentColor" xmlns="http://www.w3.org/2000/svg"><path d="M11.290 0.051 C 11.230 0.078,11.150 0.141,11.112 0.191 C 11.046 0.278,10.981 0.481,11.000 0.543 C 11.005 0.560,11.016 0.606,11.025 0.646 C 11.045 0.737,11.181 0.894,11.291 0.955 C 11.365 0.995,11.525 1.001,12.820 1.013 L 14.267 1.027 12.620 2.674 L 10.972 4.321 10.853 4.198 C 10.330 3.659,9.608 3.264,8.823 3.089 C 8.583 3.035,8.475 3.027,8.000 3.027 C 7.525 3.027,7.417 3.035,7.173 3.089 C 6.602 3.216,6.056 3.467,5.594 3.814 C 3.836 5.134,3.481 7.635,4.803 9.395 C 5.176 9.892,5.733 10.352,6.272 10.608 C 6.551 10.741,7.018 10.891,7.287 10.936 L 7.493 10.970 7.493 11.992 L 7.493 13.013 6.672 13.013 L 5.850 13.013 5.730 13.090 C 5.397 13.301,5.436 13.785,5.799 13.950 C 5.896 13.994,5.988 13.999,6.700 13.999 L 7.493 14.000 7.494 14.793 C 7.494 15.508,7.499 15.597,7.544 15.693 C 7.733 16.104,8.291 16.092,8.465 15.674 C 8.499 15.592,8.507 15.438,8.507 14.788 L 8.507 14.000 9.300 13.999 C 10.012 13.999,10.104 13.994,10.201 13.950 C 10.564 13.785,10.603 13.301,10.270 13.090 L 10.150 13.013 9.328 13.013 L 8.507 13.013 8.507 11.992 L 8.507 10.970 8.713 10.936 C 9.200 10.854,9.820 10.597,10.276 10.287 C 10.575 10.083,11.058 9.608,11.259 9.320 C 11.579 8.861,11.804 8.338,11.925 7.777 C 12.003 7.413,12.010 6.642,11.937 6.281 C 11.878 5.983,11.755 5.598,11.640 5.346 L 11.553 5.154 13.269 3.438 L 14.984 1.722 14.992 3.175 C 14.999 4.481,15.005 4.635,15.045 4.709 C 15.106 4.819,15.263 4.955,15.354 4.975 C 15.394 4.984,15.440 4.995,15.457 5.000 C 15.519 5.019,15.722 4.954,15.809 4.888 C 15.859 4.850,15.922 4.770,15.949 4.710 C 15.996 4.606,15.999 4.494,15.999 2.520 C 16.000 1.235,15.990 0.404,15.973 0.345 C 15.959 0.293,15.908 0.213,15.860 0.167 C 15.680 -0.008,15.788 -0.000,13.488 0.001 C 11.506 0.001,11.394 0.004,11.290 0.051 M8.373 4.028 C 8.701 4.070,8.983 4.154,9.293 4.304 C 10.091 4.687,10.660 5.369,10.900 6.230 C 10.968 6.476,10.973 6.527,10.972 7.000 C 10.971 7.465,10.965 7.529,10.899 7.773 C 10.615 8.821,9.798 9.626,8.725 9.913 C 8.494 9.975,8.418 9.982,8.000 9.982 C 7.575 9.982,7.510 9.976,7.267 9.910 C 6.713 9.758,6.273 9.507,5.891 9.123 C 5.506 8.736,5.246 8.291,5.100 7.770 C 5.032 7.524,5.027 7.473,5.028 7.000 C 5.029 6.538,5.036 6.470,5.100 6.235 C 5.331 5.381,5.899 4.698,6.703 4.307 C 7.236 4.047,7.799 3.953,8.373 4.028 " stroke="none" fill-rule="evenodd"></path></svg>