<svg width="16" height="16" fill="currentColor" xmlns="http://www.w3.org/2000/svg"><path d="M7.467 0.019 C 7.197 0.035,6.683 0.108,6.347 0.177 C 3.324 0.796,0.878 3.204,0.200 6.228 C 0.047 6.910,0.017 7.206,0.017 8.000 C 0.017 8.794,0.047 9.090,0.200 9.772 C 0.610 11.600,1.671 13.237,3.195 14.393 C 4.257 15.199,5.481 15.705,6.906 15.927 C 7.429 16.009,8.571 16.009,9.094 15.927 C 11.038 15.624,12.690 14.748,13.930 13.362 C 15.030 12.133,15.665 10.775,15.927 9.094 C 16.010 8.560,16.009 7.432,15.924 6.880 C 15.532 4.324,14.072 2.222,11.823 0.975 C 10.543 0.265,8.995 -0.075,7.467 0.019 M7.493 2.587 L 7.493 4.080 7.310 4.080 C 7.067 4.080,6.390 4.012,5.960 3.944 C 5.636 3.893,5.251 3.816,5.232 3.800 C 5.218 3.787,5.406 3.346,5.537 3.085 C 5.997 2.170,6.566 1.522,7.183 1.212 C 7.313 1.147,7.436 1.093,7.456 1.093 C 7.488 1.093,7.493 1.325,7.493 2.587 M8.821 1.215 C 9.444 1.533,10.003 2.171,10.463 3.085 C 10.595 3.348,10.782 3.787,10.768 3.800 C 10.757 3.812,10.409 3.882,10.120 3.931 C 9.757 3.993,9.226 4.051,8.847 4.071 L 8.507 4.088 8.507 2.591 C 8.507 1.305,8.512 1.093,8.545 1.093 C 8.566 1.093,8.691 1.148,8.821 1.215 M5.082 1.876 C 4.841 2.237,4.520 2.852,4.359 3.262 C 4.259 3.517,4.254 3.524,4.183 3.510 C 3.992 3.472,3.066 3.084,3.067 3.043 C 3.068 2.982,3.793 2.394,4.186 2.135 C 4.447 1.963,5.223 1.547,5.283 1.547 C 5.293 1.547,5.203 1.695,5.082 1.876 M11.126 1.742 C 11.720 2.042,12.234 2.396,12.753 2.865 C 12.852 2.954,12.933 3.034,12.933 3.043 C 12.934 3.086,11.882 3.520,11.778 3.520 C 11.759 3.520,11.703 3.417,11.653 3.287 C 11.502 2.897,11.157 2.234,10.921 1.881 C 10.798 1.697,10.707 1.547,10.718 1.547 C 10.729 1.547,10.912 1.635,11.126 1.742 M2.776 4.023 C 3.125 4.190,3.853 4.480,3.922 4.480 C 3.938 4.480,3.944 4.501,3.936 4.527 C 3.928 4.552,3.886 4.723,3.843 4.907 C 3.683 5.585,3.560 6.454,3.529 7.127 L 3.512 7.493 2.267 7.493 L 1.022 7.493 1.034 7.340 C 1.055 7.061,1.169 6.445,1.264 6.103 C 1.437 5.477,1.749 4.781,2.095 4.245 C 2.246 4.013,2.369 3.840,2.384 3.840 C 2.388 3.840,2.565 3.923,2.776 4.023 M13.847 4.161 C 14.089 4.519,14.432 5.197,14.582 5.613 C 14.767 6.127,14.895 6.709,14.969 7.380 L 14.982 7.494 13.737 7.487 L 12.493 7.480 12.487 7.347 C 12.449 6.514,12.315 5.552,12.132 4.800 C 12.091 4.632,12.060 4.493,12.062 4.491 C 12.065 4.490,12.211 4.438,12.387 4.375 C 12.735 4.249,13.107 4.089,13.400 3.939 C 13.503 3.886,13.599 3.846,13.613 3.849 C 13.628 3.853,13.733 3.993,13.847 4.161 M5.419 4.863 C 6.006 4.975,7.031 5.093,7.420 5.093 L 7.493 5.093 7.493 6.293 L 7.493 7.493 6.000 7.493 L 4.506 7.493 4.522 7.260 C 4.579 6.390,4.712 5.511,4.883 4.871 C 4.907 4.778,4.918 4.769,4.982 4.780 C 5.021 4.787,5.218 4.824,5.419 4.863 M11.119 4.873 C 11.175 5.071,11.304 5.727,11.357 6.080 C 11.407 6.414,11.444 6.780,11.478 7.287 L 11.493 7.493 10.000 7.493 L 8.507 7.493 8.507 6.297 L 8.507 5.100 8.793 5.082 C 9.443 5.042,10.618 4.885,10.893 4.802 C 11.053 4.754,11.089 4.765,11.119 4.873 M3.513 8.667 C 3.536 9.236,3.626 10.009,3.737 10.587 C 3.787 10.851,3.904 11.371,3.936 11.473 C 3.944 11.499,3.937 11.520,3.920 11.520 C 3.856 11.520,3.093 11.826,2.749 11.990 C 2.484 12.116,2.383 12.153,2.358 12.131 C 2.289 12.074,1.941 11.515,1.775 11.195 C 1.562 10.783,1.384 10.332,1.264 9.897 C 1.169 9.555,1.055 8.939,1.034 8.660 L 1.022 8.506 2.264 8.513 L 3.507 8.520 3.513 8.667 M7.493 9.705 L 7.493 10.902 7.327 10.917 C 7.235 10.925,6.982 10.944,6.764 10.960 C 6.316 10.994,5.835 11.060,5.299 11.163 C 5.096 11.201,4.925 11.227,4.917 11.219 C 4.875 11.177,4.717 10.430,4.642 9.920 C 4.596 9.602,4.569 9.335,4.520 8.687 L 4.506 8.507 6.000 8.507 L 7.493 8.507 7.493 9.705 M11.480 8.713 C 11.434 9.324,11.405 9.601,11.344 10.000 C 11.277 10.441,11.130 11.140,11.093 11.201 C 11.077 11.226,10.971 11.215,10.636 11.150 C 10.163 11.059,9.522 10.974,9.120 10.948 C 8.981 10.939,8.786 10.925,8.687 10.917 L 8.507 10.901 8.507 9.704 L 8.507 8.507 10.001 8.507 L 11.496 8.507 11.480 8.713 M14.969 8.620 C 14.860 9.602,14.668 10.290,14.280 11.080 C 14.103 11.440,13.701 12.101,13.633 12.143 C 13.618 12.152,13.446 12.083,13.250 11.990 C 12.907 11.826,12.144 11.520,12.080 11.520 C 12.063 11.520,12.056 11.499,12.064 11.473 C 12.246 10.886,12.480 9.346,12.480 8.731 C 12.480 8.627,12.488 8.534,12.498 8.524 C 12.508 8.515,13.070 8.507,13.749 8.507 L 14.982 8.507 14.969 8.620 M7.493 13.413 C 7.493 14.675,7.488 14.907,7.456 14.907 C 7.436 14.907,7.313 14.853,7.183 14.788 C 6.566 14.478,5.997 13.830,5.537 12.915 C 5.401 12.643,5.218 12.213,5.233 12.198 C 5.250 12.181,5.975 12.054,6.288 12.013 C 6.675 11.964,7.077 11.928,7.313 11.924 L 7.493 11.920 7.493 13.413 M9.093 11.947 C 9.639 11.994,10.727 12.158,10.767 12.198 C 10.782 12.213,10.599 12.643,10.463 12.915 C 10.003 13.830,9.434 14.478,8.817 14.788 C 8.687 14.853,8.564 14.907,8.544 14.907 C 8.512 14.907,8.507 14.675,8.507 13.413 L 8.507 11.920 8.647 11.920 C 8.724 11.920,8.925 11.932,9.093 11.947 M4.360 12.740 C 4.520 13.148,4.841 13.763,5.082 14.124 C 5.203 14.305,5.292 14.453,5.279 14.453 C 5.267 14.453,5.073 14.360,4.848 14.246 C 4.427 14.032,3.992 13.756,3.668 13.497 C 3.458 13.329,3.084 12.994,3.073 12.962 C 3.059 12.926,3.563 12.705,4.133 12.499 C 4.239 12.460,4.258 12.481,4.360 12.740 M12.059 12.570 C 12.275 12.649,12.627 12.797,12.860 12.907 C 12.900 12.926,12.933 12.949,12.933 12.958 C 12.933 12.978,12.470 13.390,12.277 13.541 C 11.991 13.767,11.545 14.046,11.152 14.246 C 10.927 14.360,10.733 14.453,10.721 14.453 C 10.708 14.453,10.797 14.305,10.918 14.124 C 11.159 13.763,11.480 13.148,11.640 12.740 C 11.696 12.597,11.758 12.480,11.777 12.480 C 11.795 12.480,11.922 12.521,12.059 12.570 " stroke="none" fill-rule="evenodd"></path></svg>