<svg width="16" height="16" fill="currentColor" xmlns="http://www.w3.org/2000/svg"><path d="M7.467 0.017 C 5.119 0.191,3.024 1.328,1.608 3.193 C 0.799 4.260,0.296 5.477,0.073 6.906 C -0.009 7.429,-0.009 8.571,0.073 9.094 C 0.415 11.288,1.476 13.089,3.195 14.393 C 4.497 15.381,6.091 15.939,7.760 15.991 C 10.220 16.068,12.409 15.173,13.839 13.507 C 14.906 12.263,15.503 10.755,15.656 8.920 C 15.708 8.294,15.657 7.117,15.558 6.633 L 15.542 6.560 11.771 6.560 L 8.000 6.560 8.000 8.107 L 8.000 9.653 10.159 9.653 L 12.319 9.653 12.303 9.740 C 12.273 9.905,12.084 10.447,11.991 10.632 C 11.819 10.972,11.571 11.311,11.281 11.600 C 10.601 12.279,9.731 12.673,8.630 12.802 C 8.241 12.848,7.444 12.819,7.107 12.747 C 5.616 12.429,4.385 11.450,3.728 10.059 C 2.997 8.514,3.135 6.724,4.093 5.293 C 4.785 4.259,5.878 3.510,7.041 3.270 C 7.605 3.154,8.400 3.145,8.911 3.250 C 9.623 3.396,10.318 3.730,10.865 4.191 C 10.967 4.277,11.057 4.347,11.065 4.347 C 11.074 4.347,11.590 3.836,12.213 3.212 L 13.347 2.077 13.227 1.970 C 12.390 1.227,11.304 0.618,10.282 0.320 C 9.919 0.215,9.466 0.118,9.092 0.067 C 8.796 0.026,7.768 -0.005,7.467 0.017 " stroke="none" fill-rule="evenodd"></path></svg>