<svg width="16" height="16" fill="currentColor" xmlns="http://www.w3.org/2000/svg"><path d="M0.262 1.067 C -0.025 1.219,-0.085 1.587,0.138 1.829 C 0.271 1.973,0.360 2.000,0.713 2.000 L 0.986 2.000 0.993 8.313 C 1.000 14.196,1.003 14.632,1.045 14.709 C 1.106 14.819,1.263 14.955,1.354 14.975 C 1.394 14.984,1.440 14.995,1.457 15.000 C 1.519 15.019,1.722 14.954,1.809 14.888 C 1.859 14.850,1.922 14.770,1.949 14.710 C 1.995 14.607,1.999 14.512,1.999 13.300 L 2.000 12.000 8.780 12.000 C 13.135 12.000,15.594 11.990,15.654 11.974 C 15.772 11.941,15.939 11.773,15.974 11.652 C 16.010 11.527,16.009 4.475,15.973 4.345 C 15.942 4.232,15.810 4.098,15.674 4.041 C 15.586 4.004,14.859 4.000,8.788 4.000 L 2.000 4.000 2.000 2.706 C 2.000 1.601,1.994 1.397,1.959 1.313 C 1.906 1.187,1.850 1.126,1.728 1.064 C 1.639 1.018,1.566 1.013,0.994 1.015 C 0.420 1.016,0.351 1.021,0.262 1.067 M6.033 5.562 C 6.777 5.717,7.445 6.258,7.776 6.973 C 7.926 7.298,7.983 7.583,7.983 8.000 C 7.983 8.439,7.921 8.724,7.748 9.080 C 7.418 9.758,6.840 10.229,6.091 10.430 C 5.803 10.507,5.276 10.513,4.973 10.443 C 4.059 10.231,3.378 9.597,3.102 8.701 C 3.035 8.484,3.029 8.432,3.029 8.000 C 3.029 7.568,3.035 7.516,3.102 7.299 C 3.321 6.585,3.789 6.047,4.463 5.732 C 4.946 5.507,5.487 5.448,6.033 5.562 M12.033 5.562 C 12.777 5.717,13.445 6.258,13.776 6.973 C 13.926 7.298,13.983 7.583,13.983 8.000 C 13.983 8.439,13.921 8.724,13.748 9.080 C 13.418 9.758,12.840 10.229,12.091 10.430 C 11.803 10.507,11.276 10.513,10.973 10.443 C 10.059 10.231,9.378 9.597,9.102 8.701 C 9.035 8.484,9.029 8.432,9.029 8.000 C 9.029 7.568,9.035 7.516,9.102 7.299 C 9.321 6.585,9.789 6.047,10.463 5.732 C 10.946 5.507,11.487 5.448,12.033 5.562 M5.137 6.549 C 4.723 6.649,4.348 6.953,4.164 7.338 C 3.948 7.790,3.942 8.187,4.145 8.627 C 4.379 9.132,4.845 9.454,5.392 9.487 C 5.856 9.515,6.230 9.376,6.550 9.056 C 6.851 8.755,6.993 8.417,6.993 8.000 C 6.993 7.583,6.851 7.245,6.550 6.944 C 6.342 6.737,6.078 6.590,5.819 6.536 C 5.630 6.497,5.329 6.503,5.137 6.549 M11.137 6.549 C 10.723 6.649,10.348 6.953,10.164 7.338 C 9.948 7.790,9.942 8.187,10.145 8.627 C 10.379 9.132,10.845 9.454,11.392 9.487 C 11.856 9.515,12.230 9.376,12.550 9.056 C 12.851 8.755,12.993 8.417,12.993 8.000 C 12.993 7.583,12.851 7.245,12.550 6.944 C 12.342 6.737,12.078 6.590,11.819 6.536 C 11.630 6.497,11.329 6.503,11.137 6.549 M2.987 12.993 C 2.988 13.261,3.000 13.534,3.015 13.599 C 3.052 13.757,3.155 13.887,3.290 13.949 C 3.393 13.996,3.488 13.999,4.747 13.999 C 6.000 13.999,6.101 13.995,6.200 13.950 C 6.329 13.890,6.410 13.806,6.465 13.674 C 6.498 13.596,6.507 13.463,6.507 13.041 L 6.507 12.507 4.747 12.507 L 2.987 12.507 2.987 12.993 M6.987 12.993 C 6.988 13.261,7.000 13.534,7.015 13.599 C 7.052 13.757,7.155 13.887,7.290 13.949 C 7.394 13.996,7.494 13.999,9.000 13.999 C 10.506 13.999,10.606 13.996,10.710 13.949 C 10.845 13.887,10.948 13.757,10.985 13.599 C 11.000 13.534,11.012 13.261,11.013 12.993 L 11.013 12.507 9.000 12.507 L 6.987 12.507 6.987 12.993 " stroke="none" fill-rule="evenodd"></path></svg>