<svg width="16" height="16" fill="currentColor" xmlns="http://www.w3.org/2000/svg"><path d="M0.000 8.000 L 0.000 16.000 8.000 16.000 L 16.000 16.000 16.000 15.507 L 16.000 15.013 8.507 15.013 L 1.013 15.013 1.013 7.507 L 1.013 0.000 0.507 0.000 L 0.000 0.000 0.000 8.000 M14.266 3.062 C 14.201 3.097,13.607 3.804,12.287 5.416 C 11.249 6.683,10.303 7.838,10.184 7.983 L 9.968 8.246 8.644 6.926 C 7.916 6.200,7.284 5.588,7.240 5.567 C 7.022 5.460,6.826 5.492,6.653 5.662 C 6.521 5.791,2.657 11.101,2.565 11.280 C 2.401 11.597,2.644 11.975,3.014 11.977 C 3.281 11.979,3.190 12.090,5.206 9.317 L 7.053 6.776 8.387 8.105 C 9.450 9.165,9.741 9.440,9.823 9.466 C 9.964 9.512,10.166 9.488,10.273 9.414 C 10.372 9.345,14.866 3.864,14.945 3.715 C 15.004 3.604,15.011 3.403,14.960 3.304 C 14.913 3.213,14.799 3.095,14.715 3.051 C 14.612 2.997,14.378 3.003,14.266 3.062 " stroke="none" fill-rule="evenodd"></path></svg>