<svg width="16" height="16" fill="currentColor" xmlns="http://www.w3.org/2000/svg"><path d="M0.000 8.000 L 0.000 16.000 8.000 16.000 L 16.000 16.000 16.000 15.507 L 16.000 15.013 8.507 15.013 L 1.013 15.013 1.013 7.507 L 1.013 0.000 0.507 0.000 L 0.000 0.000 0.000 8.000 M10.262 3.067 C 9.983 3.215,9.916 3.584,10.126 3.817 C 10.179 3.875,10.247 3.937,10.278 3.955 C 10.318 3.978,10.750 3.990,11.883 4.000 L 13.433 4.013 11.928 5.853 C 11.100 6.865,10.320 7.818,10.195 7.970 L 9.967 8.246 8.644 6.926 C 7.916 6.200,7.284 5.588,7.240 5.567 C 7.022 5.460,6.826 5.492,6.653 5.662 C 6.521 5.791,2.657 11.101,2.565 11.280 C 2.401 11.597,2.644 11.975,3.014 11.977 C 3.281 11.979,3.190 12.090,5.206 9.317 L 7.053 6.776 8.387 8.105 C 9.450 9.165,9.741 9.440,9.823 9.466 C 9.964 9.512,10.166 9.488,10.273 9.414 C 10.321 9.381,11.176 8.355,12.173 7.136 L 13.987 4.918 14.000 6.292 C 14.010 7.289,14.022 7.682,14.045 7.722 C 14.063 7.753,14.125 7.821,14.183 7.874 C 14.462 8.125,14.907 7.970,14.985 7.593 C 15.006 7.494,15.013 6.829,15.007 5.412 C 15.001 3.571,14.996 3.366,14.956 3.293 C 14.897 3.188,14.778 3.077,14.685 3.042 C 14.634 3.022,13.924 3.014,12.485 3.015 C 10.437 3.016,10.356 3.018,10.262 3.067 " stroke="none" fill-rule="evenodd"></path></svg>