<svg width="16" height="16" fill="currentColor" xmlns="http://www.w3.org/2000/svg"><path d="M0.000 8.000 L 0.000 16.000 8.000 16.000 L 16.000 16.000 16.000 15.507 L 16.000 15.013 8.507 15.013 L 1.013 15.013 1.013 7.507 L 1.013 0.000 0.507 0.000 L 0.000 0.000 0.000 8.000 M2.813 3.064 C 2.551 3.185,2.440 3.472,2.559 3.720 C 2.587 3.779,3.520 5.074,4.632 6.600 C 6.306 8.896,6.672 9.383,6.760 9.432 C 6.888 9.504,7.084 9.512,7.208 9.451 C 7.255 9.427,7.894 8.809,8.628 8.076 L 9.963 6.744 11.704 8.872 L 13.445 11.000 11.889 11.013 C 10.480 11.025,10.325 11.031,10.249 11.073 C 10.073 11.169,9.980 11.371,10.012 11.587 C 10.035 11.744,10.197 11.932,10.343 11.973 C 10.405 11.990,11.200 12.000,12.520 11.999 C 14.494 11.999,14.606 11.996,14.710 11.949 C 14.850 11.885,14.951 11.753,14.987 11.585 C 15.006 11.497,15.012 10.780,15.007 9.413 C 14.999 7.169,15.010 7.306,14.836 7.142 C 14.605 6.924,14.211 6.987,14.057 7.267 C 14.019 7.337,14.012 7.511,14.000 8.715 L 13.987 10.083 12.164 7.856 C 11.042 6.484,10.305 5.606,10.247 5.570 C 10.138 5.502,9.896 5.489,9.787 5.545 C 9.750 5.564,9.123 6.175,8.394 6.902 C 7.247 8.046,7.062 8.220,7.031 8.186 C 7.011 8.164,6.193 7.043,5.214 5.693 C 4.234 4.344,3.408 3.211,3.377 3.176 C 3.301 3.092,3.128 3.015,3.013 3.015 C 2.962 3.015,2.872 3.037,2.813 3.064 " stroke="none" fill-rule="evenodd"></path></svg>