<svg width="16" height="16" fill="currentColor" xmlns="http://www.w3.org/2000/svg"><path d="M0.767 0.029 C 0.487 0.095,0.229 0.309,0.096 0.587 L 0.013 0.760 0.013 8.000 L 0.013 15.240 0.088 15.400 C 0.186 15.610,0.391 15.816,0.597 15.911 L 0.760 15.987 3.507 15.987 L 6.253 15.987 6.400 15.917 C 6.707 15.771,6.924 15.490,6.984 15.162 C 7.025 14.938,7.025 1.061,6.984 0.839 C 6.931 0.552,6.775 0.315,6.539 0.164 C 6.277 -0.005,6.360 -0.000,3.481 0.003 C 2.043 0.004,0.822 0.016,0.767 0.029 M9.734 0.042 C 9.356 0.145,9.083 0.453,9.014 0.856 C 8.993 0.974,8.987 1.820,8.992 3.613 C 9.000 6.199,9.000 6.200,9.058 6.341 C 9.170 6.615,9.385 6.830,9.659 6.942 C 9.800 7.000,9.801 7.000,12.387 7.008 C 14.206 7.013,15.025 7.007,15.147 6.986 C 15.486 6.927,15.768 6.713,15.917 6.400 L 15.987 6.253 15.987 3.507 L 15.987 0.760 15.911 0.597 C 15.816 0.391,15.610 0.186,15.400 0.088 L 15.240 0.013 12.560 0.008 C 10.265 0.004,9.859 0.009,9.734 0.042 M6.000 8.013 L 6.000 15.013 3.507 15.013 L 1.013 15.013 1.013 8.013 L 1.013 1.013 3.507 1.013 L 6.000 1.013 6.000 8.013 M14.987 3.507 L 14.987 6.000 12.493 6.000 L 10.000 6.000 10.000 3.507 L 10.000 1.013 12.493 1.013 L 14.987 1.013 14.987 3.507 M9.662 9.062 C 9.403 9.152,9.172 9.381,9.058 9.659 C 9.000 9.800,9.000 9.801,8.992 12.387 C 8.987 14.206,8.993 15.025,9.014 15.147 C 9.073 15.486,9.287 15.768,9.600 15.917 L 9.747 15.987 12.493 15.987 L 15.240 15.987 15.403 15.911 C 15.609 15.816,15.814 15.610,15.912 15.400 L 15.987 15.240 15.987 12.493 L 15.987 9.747 15.917 9.600 C 15.814 9.382,15.652 9.216,15.446 9.114 L 15.268 9.027 12.534 9.021 C 9.966 9.015,9.792 9.018,9.662 9.062 M14.987 12.507 L 14.987 15.013 12.493 15.013 L 10.000 15.013 10.000 12.507 L 10.000 10.000 12.493 10.000 L 14.987 10.000 14.987 12.507 " stroke="none" fill-rule="evenodd"></path></svg>