<svg width="16" height="16" fill="currentColor" xmlns="http://www.w3.org/2000/svg"><path d="M2.110 1.055 C 1.775 1.146,1.437 1.393,1.238 1.693 C 1.189 1.767,1.116 1.923,1.075 2.040 L 1.000 2.253 1.000 4.000 L 1.000 5.747 1.074 5.955 C 1.245 6.439,1.561 6.755,2.045 6.926 L 2.253 7.000 4.000 7.000 L 5.747 7.000 5.955 6.926 C 6.439 6.755,6.755 6.439,6.926 5.955 L 7.000 5.747 7.000 4.000 L 7.000 2.253 6.926 2.045 C 6.749 1.544,6.365 1.181,5.879 1.054 C 5.653 0.995,2.329 0.996,2.110 1.055 M10.110 1.055 C 9.775 1.146,9.437 1.393,9.238 1.693 C 9.189 1.767,9.116 1.923,9.075 2.040 L 9.000 2.253 9.000 4.000 L 9.000 5.747 9.074 5.955 C 9.245 6.439,9.561 6.755,10.045 6.926 L 10.253 7.000 12.000 7.000 L 13.747 7.000 13.955 6.926 C 14.439 6.755,14.755 6.439,14.926 5.955 L 15.000 5.747 15.000 4.000 L 15.000 2.253 14.926 2.045 C 14.749 1.544,14.365 1.181,13.879 1.054 C 13.653 0.995,10.329 0.996,10.110 1.055 M2.110 9.055 C 1.775 9.146,1.437 9.393,1.238 9.693 C 1.189 9.767,1.116 9.923,1.075 10.040 L 1.000 10.253 1.000 12.000 L 1.000 13.747 1.074 13.955 C 1.245 14.439,1.561 14.755,2.045 14.926 L 2.253 15.000 4.000 15.000 L 5.747 15.000 5.955 14.926 C 6.439 14.755,6.755 14.439,6.926 13.955 L 7.000 13.747 7.000 12.000 L 7.000 10.253 6.926 10.045 C 6.749 9.544,6.365 9.181,5.879 9.054 C 5.653 8.995,2.329 8.996,2.110 9.055 M10.110 9.055 C 9.775 9.146,9.437 9.393,9.238 9.693 C 9.189 9.767,9.116 9.923,9.075 10.040 L 9.000 10.253 9.000 12.000 L 9.000 13.747 9.074 13.955 C 9.245 14.439,9.561 14.755,10.045 14.926 L 10.253 15.000 12.000 15.000 L 13.747 15.000 13.955 14.926 C 14.439 14.755,14.755 14.439,14.926 13.955 L 15.000 13.747 15.000 12.000 L 15.000 10.253 14.926 10.045 C 14.749 9.544,14.365 9.181,13.879 9.054 C 13.653 8.995,10.329 8.996,10.110 9.055 " stroke="none" fill-rule="evenodd"></path></svg>