<svg width="16" height="16" fill="currentColor" xmlns="http://www.w3.org/2000/svg"><path d="M1.662 5.061 C 1.221 5.219,0.939 5.692,1.014 6.152 C 1.145 6.957,2.127 7.277,2.702 6.702 C 3.188 6.216,3.050 5.404,2.429 5.100 C 2.234 5.005,1.872 4.986,1.662 5.061 M4.637 5.075 C 4.445 5.155,4.344 5.228,4.229 5.369 C 4.066 5.568,4.017 5.713,4.016 6.000 C 4.016 6.216,4.026 6.275,4.084 6.400 C 4.278 6.816,4.730 7.062,5.159 6.985 C 5.490 6.925,5.773 6.706,5.916 6.400 C 5.974 6.275,5.984 6.216,5.984 6.000 C 5.984 5.784,5.974 5.725,5.916 5.600 C 5.815 5.384,5.653 5.216,5.446 5.114 C 5.291 5.038,5.237 5.026,5.027 5.019 C 4.824 5.013,4.763 5.022,4.637 5.075 M7.662 5.061 C 7.221 5.219,6.939 5.692,7.014 6.152 C 7.145 6.957,8.127 7.277,8.702 6.702 C 9.188 6.216,9.050 5.404,8.429 5.100 C 8.234 5.005,7.872 4.986,7.662 5.061 M10.637 5.075 C 10.445 5.155,10.344 5.228,10.229 5.369 C 10.066 5.568,10.017 5.713,10.016 6.000 C 10.016 6.216,10.026 6.275,10.084 6.400 C 10.278 6.816,10.730 7.062,11.159 6.985 C 11.490 6.925,11.773 6.706,11.916 6.400 C 11.974 6.275,11.984 6.216,11.984 6.000 C 11.984 5.784,11.974 5.725,11.916 5.600 C 11.815 5.384,11.653 5.216,11.446 5.114 C 11.291 5.038,11.237 5.026,11.027 5.019 C 10.824 5.013,10.763 5.022,10.637 5.075 M13.662 5.061 C 13.221 5.219,12.939 5.692,13.014 6.152 C 13.145 6.957,14.127 7.277,14.702 6.702 C 15.188 6.216,15.050 5.404,14.429 5.100 C 14.234 5.005,13.872 4.986,13.662 5.061 M1.734 8.043 C 1.363 8.143,1.088 8.447,1.016 8.840 C 0.937 9.267,1.184 9.722,1.600 9.916 C 1.725 9.974,1.784 9.984,2.000 9.984 C 2.216 9.984,2.275 9.974,2.400 9.916 C 2.816 9.722,3.063 9.267,2.984 8.840 C 2.911 8.441,2.636 8.141,2.254 8.041 C 2.061 7.991,1.926 7.991,1.734 8.043 M4.767 8.027 C 4.481 8.099,4.228 8.310,4.096 8.587 C 4.022 8.741,4.013 8.786,4.013 9.000 C 4.013 9.207,4.024 9.262,4.089 9.403 C 4.184 9.609,4.390 9.814,4.600 9.912 C 4.738 9.976,4.793 9.987,5.000 9.987 C 5.207 9.987,5.262 9.976,5.403 9.911 C 5.609 9.816,5.814 9.610,5.912 9.400 C 5.976 9.262,5.987 9.207,5.987 9.000 C 5.987 8.793,5.976 8.738,5.911 8.597 C 5.817 8.392,5.609 8.185,5.406 8.093 C 5.235 8.014,4.938 7.984,4.767 8.027 M7.734 8.043 C 7.363 8.143,7.088 8.447,7.016 8.840 C 6.937 9.267,7.184 9.722,7.600 9.916 C 7.725 9.974,7.784 9.984,8.000 9.984 C 8.216 9.984,8.275 9.974,8.400 9.916 C 8.816 9.722,9.063 9.267,8.984 8.840 C 8.911 8.441,8.636 8.141,8.254 8.041 C 8.061 7.991,7.926 7.991,7.734 8.043 M10.767 8.027 C 10.481 8.099,10.228 8.310,10.096 8.587 C 10.022 8.741,10.013 8.786,10.013 9.000 C 10.013 9.207,10.024 9.262,10.089 9.403 C 10.184 9.609,10.390 9.814,10.600 9.912 C 10.738 9.976,10.793 9.987,11.000 9.987 C 11.207 9.987,11.262 9.976,11.403 9.911 C 11.609 9.816,11.814 9.610,11.912 9.400 C 11.976 9.262,11.987 9.207,11.987 9.000 C 11.987 8.793,11.976 8.738,11.911 8.597 C 11.817 8.392,11.609 8.185,11.406 8.093 C 11.235 8.014,10.938 7.984,10.767 8.027 M13.734 8.043 C 13.363 8.143,13.088 8.447,13.016 8.840 C 12.937 9.267,13.184 9.722,13.600 9.916 C 13.725 9.974,13.784 9.984,14.000 9.984 C 14.216 9.984,14.275 9.974,14.400 9.916 C 14.816 9.722,15.063 9.267,14.984 8.840 C 14.911 8.441,14.636 8.141,14.254 8.041 C 14.061 7.991,13.926 7.991,13.734 8.043 " stroke="none" fill-rule="evenodd"></path></svg>