<svg width="16" height="16" fill="currentColor" xmlns="http://www.w3.org/2000/svg"><path d="M6.430 0.028 C 6.107 0.086,5.764 0.272,5.512 0.526 C 5.223 0.817,5.068 1.139,5.013 1.560 C 4.999 1.663,4.988 2.949,4.987 4.418 C 4.987 6.939,4.984 7.091,4.940 7.103 C 4.914 7.111,4.611 7.172,4.267 7.241 C 3.772 7.338,3.599 7.384,3.446 7.457 C 3.226 7.562,2.956 7.799,2.826 8.001 C 2.721 8.164,2.626 8.442,2.602 8.653 C 2.578 8.856,2.934 12.104,3.014 12.419 C 3.043 12.533,3.113 12.723,3.170 12.841 C 3.328 13.172,4.842 15.425,5.016 15.588 C 5.182 15.744,5.339 15.842,5.562 15.927 L 5.720 15.987 9.157 15.994 C 12.934 16.002,12.736 16.010,13.080 15.841 C 13.269 15.748,13.444 15.608,13.580 15.443 C 13.672 15.330,15.049 12.944,15.221 12.600 C 15.330 12.382,15.455 12.019,15.504 11.780 C 15.527 11.672,15.613 10.918,15.695 10.105 C 15.863 8.440,15.867 8.271,15.747 7.907 C 15.529 7.250,15.074 6.799,14.413 6.586 C 14.259 6.536,14.142 6.523,13.744 6.510 L 13.261 6.493 13.067 6.258 C 12.840 5.982,12.544 5.722,12.327 5.606 C 12.055 5.462,11.881 5.429,11.360 5.428 L 10.893 5.427 10.826 5.294 C 10.618 4.876,9.986 4.540,9.291 4.476 C 9.121 4.461,8.875 4.452,8.744 4.457 L 8.507 4.467 8.507 3.046 C 8.507 1.449,8.500 1.380,8.322 1.000 C 8.110 0.548,7.720 0.217,7.227 0.069 C 7.048 0.015,6.625 -0.007,6.430 0.028 M7.005 1.049 C 7.182 1.114,7.323 1.241,7.410 1.414 L 7.493 1.582 7.493 4.811 C 7.494 7.085,7.502 8.071,7.523 8.146 C 7.562 8.288,7.719 8.440,7.865 8.480 C 8.132 8.552,8.407 8.399,8.479 8.139 C 8.496 8.077,8.506 7.556,8.507 6.753 L 8.507 5.467 8.901 5.467 C 9.339 5.467,9.503 5.497,9.756 5.625 C 10.008 5.752,10.000 5.704,10.001 6.991 C 10.001 8.003,10.005 8.102,10.050 8.201 C 10.150 8.421,10.387 8.543,10.604 8.485 C 10.770 8.440,10.844 8.385,10.928 8.243 L 11.000 8.120 11.008 7.273 L 11.017 6.427 11.342 6.427 C 11.520 6.427,11.712 6.440,11.767 6.455 C 11.908 6.494,12.111 6.667,12.325 6.931 L 12.507 7.156 12.507 7.886 C 12.507 8.446,12.515 8.635,12.543 8.701 C 12.630 8.904,12.884 9.031,13.105 8.981 C 13.243 8.950,13.311 8.905,13.405 8.783 L 13.480 8.684 13.488 8.089 L 13.496 7.493 13.677 7.493 C 14.198 7.493,14.564 7.693,14.742 8.075 C 14.851 8.310,14.847 8.490,14.694 10.027 C 14.546 11.512,14.517 11.699,14.395 11.995 C 14.294 12.237,12.873 14.732,12.777 14.836 C 12.612 15.013,12.889 15.000,9.253 15.000 C 7.442 15.000,5.928 14.991,5.889 14.980 C 5.850 14.969,5.779 14.928,5.732 14.888 C 5.642 14.812,4.214 12.691,4.095 12.457 C 4.057 12.381,4.008 12.250,3.987 12.166 C 3.933 11.952,3.593 8.865,3.608 8.727 C 3.621 8.604,3.718 8.455,3.834 8.379 C 3.873 8.354,4.148 8.284,4.445 8.223 L 4.987 8.113 4.987 8.535 C 4.987 9.052,5.014 9.198,5.138 9.335 C 5.249 9.457,5.374 9.504,5.549 9.487 C 5.721 9.471,5.871 9.369,5.943 9.220 L 6.000 9.103 6.000 5.383 C 6.000 1.208,5.987 1.487,6.195 1.260 C 6.350 1.092,6.527 1.013,6.747 1.016 C 6.842 1.017,6.958 1.031,7.005 1.049 " stroke="none" fill-rule="evenodd"></path></svg>