<svg width="16" height="16" fill="currentColor" xmlns="http://www.w3.org/2000/svg"><path d="M6.430 0.028 C 6.107 0.086,5.764 0.272,5.512 0.526 C 5.223 0.817,5.068 1.139,5.013 1.560 C 4.999 1.664,4.988 3.191,4.987 5.012 L 4.987 8.277 4.127 7.423 C 3.333 6.634,3.251 6.560,3.067 6.470 C 2.725 6.304,2.413 6.261,2.067 6.333 C 1.540 6.444,1.138 6.798,0.939 7.327 C 0.842 7.582,0.838 8.010,0.930 8.276 C 0.972 8.399,1.401 9.138,2.259 10.569 C 3.514 12.661,3.532 12.692,4.193 14.013 L 4.861 15.347 5.064 15.549 C 5.202 15.687,5.322 15.778,5.440 15.835 C 5.799 16.009,5.597 16.000,9.267 16.000 C 12.924 16.000,12.739 16.008,13.080 15.840 C 13.269 15.748,13.444 15.608,13.580 15.443 C 13.672 15.330,15.049 12.944,15.221 12.600 C 15.330 12.382,15.455 12.019,15.504 11.780 C 15.527 11.672,15.613 10.918,15.695 10.105 C 15.853 8.540,15.862 8.318,15.774 7.987 C 15.600 7.329,15.088 6.801,14.413 6.585 C 14.260 6.536,14.140 6.523,13.744 6.510 L 13.261 6.493 13.067 6.258 C 12.840 5.982,12.544 5.722,12.327 5.606 C 12.055 5.462,11.881 5.429,11.360 5.428 L 10.893 5.427 10.826 5.294 C 10.618 4.876,9.986 4.540,9.291 4.476 C 9.121 4.461,8.875 4.452,8.744 4.457 L 8.507 4.467 8.507 3.046 C 8.507 1.449,8.500 1.380,8.322 1.000 C 8.110 0.548,7.720 0.217,7.227 0.069 C 7.048 0.015,6.625 -0.007,6.430 0.028 M7.005 1.049 C 7.182 1.114,7.323 1.241,7.410 1.414 L 7.493 1.582 7.493 4.811 C 7.494 7.085,7.502 8.071,7.523 8.146 C 7.562 8.288,7.719 8.440,7.865 8.480 C 8.132 8.552,8.407 8.399,8.479 8.139 C 8.496 8.077,8.506 7.556,8.507 6.753 L 8.507 5.467 8.901 5.467 C 9.339 5.467,9.503 5.497,9.756 5.625 C 10.008 5.752,10.000 5.704,10.001 6.991 C 10.001 8.003,10.005 8.102,10.050 8.201 C 10.150 8.421,10.387 8.543,10.604 8.485 C 10.770 8.440,10.844 8.385,10.928 8.243 L 11.000 8.120 11.008 7.273 L 11.017 6.427 11.342 6.427 C 11.520 6.427,11.712 6.440,11.767 6.455 C 11.908 6.494,12.111 6.667,12.325 6.931 L 12.507 7.156 12.507 7.886 C 12.507 8.446,12.515 8.635,12.543 8.701 C 12.630 8.904,12.884 9.031,13.105 8.981 C 13.243 8.950,13.311 8.905,13.405 8.783 L 13.480 8.684 13.488 8.089 L 13.496 7.493 13.677 7.493 C 14.198 7.493,14.564 7.693,14.742 8.075 C 14.851 8.310,14.847 8.490,14.694 10.027 C 14.546 11.512,14.517 11.699,14.395 11.995 C 14.294 12.237,12.873 14.732,12.777 14.836 C 12.612 15.013,12.888 15.000,9.267 15.000 C 5.620 15.000,5.909 15.015,5.747 14.823 C 5.708 14.776,5.390 14.166,5.041 13.468 C 4.417 12.223,4.383 12.162,3.136 10.084 L 1.867 7.968 1.867 7.817 C 1.867 7.636,1.925 7.515,2.064 7.402 C 2.189 7.301,2.444 7.274,2.589 7.346 C 2.639 7.372,3.256 7.966,3.960 8.667 C 5.358 10.060,5.319 10.028,5.587 9.988 C 5.744 9.965,5.932 9.803,5.973 9.657 C 5.990 9.594,6.000 8.188,6.000 5.612 C 6.000 1.182,5.986 1.488,6.195 1.260 C 6.350 1.092,6.527 1.013,6.747 1.016 C 6.842 1.017,6.958 1.031,7.005 1.049 " stroke="none" fill-rule="evenodd"></path></svg>