<svg width="16" height="16" fill="currentColor" xmlns="http://www.w3.org/2000/svg"><path d="M7.606 0.029 C 7.309 0.067,7.007 0.159,6.707 0.304 C 5.748 0.764,5.127 1.651,5.014 2.720 C 5.000 2.859,4.987 3.432,4.987 3.993 L 4.987 5.013 4.059 5.013 C 3.035 5.013,2.955 5.023,2.656 5.180 C 2.565 5.227,2.410 5.348,2.304 5.453 C 2.073 5.681,1.943 5.932,1.882 6.267 C 1.860 6.391,1.613 8.019,1.334 9.884 C 0.813 13.367,0.795 13.519,0.855 13.893 C 0.896 14.149,1.028 14.521,1.152 14.733 C 1.531 15.380,2.112 15.800,2.839 15.950 C 3.069 15.997,3.305 15.999,8.000 15.999 C 12.693 15.999,12.931 15.997,13.160 15.950 C 14.342 15.706,15.172 14.694,15.173 13.496 C 15.173 13.164,14.130 6.226,14.044 5.990 C 13.920 5.647,13.663 5.351,13.343 5.181 C 13.047 5.023,12.966 5.013,11.941 5.013 L 11.013 5.013 11.013 3.993 C 11.013 3.432,11.000 2.859,10.986 2.720 C 10.806 1.013,9.294 -0.191,7.606 0.029 M8.559 1.080 C 9.221 1.287,9.724 1.793,9.923 2.454 C 9.981 2.645,9.984 2.700,9.993 3.833 L 10.003 5.013 10.495 5.013 L 10.987 5.013 10.987 5.812 C 10.987 6.311,10.976 6.638,10.958 6.685 C 10.927 6.769,10.814 6.896,10.734 6.940 C 10.493 7.070,10.164 6.960,10.051 6.710 C 10.006 6.611,10.001 6.524,10.001 5.807 L 10.000 5.013 8.000 5.013 L 6.000 5.013 5.999 5.807 C 5.999 6.695,5.989 6.751,5.809 6.888 C 5.722 6.954,5.519 7.019,5.457 7.000 C 5.440 6.995,5.394 6.984,5.354 6.975 C 5.265 6.956,5.104 6.819,5.052 6.717 C 5.021 6.657,5.013 6.487,5.013 5.828 L 5.013 5.013 5.505 5.013 L 5.997 5.013 6.007 3.833 C 6.016 2.707,6.019 2.644,6.076 2.458 C 6.219 1.985,6.501 1.599,6.893 1.341 C 7.096 1.208,7.342 1.100,7.554 1.052 C 7.777 1.001,8.359 1.017,8.559 1.080 " stroke="none" fill-rule="evenodd"></path></svg>