<svg width="16" height="16" fill="currentColor" xmlns="http://www.w3.org/2000/svg"><path d="M8.171 0.038 C 7.622 0.163,7.138 0.641,7.001 1.191 C 6.980 1.277,6.950 1.509,6.934 1.707 C 6.859 2.646,6.688 3.621,6.521 4.067 C 6.307 4.636,5.865 5.301,5.334 5.850 C 4.734 6.471,4.186 6.828,3.467 7.068 C 2.977 7.231,2.749 7.359,2.492 7.613 C 2.250 7.853,2.107 8.095,2.041 8.376 C 1.982 8.628,1.981 12.809,2.040 13.060 C 2.146 13.511,2.453 13.884,2.900 14.106 C 3.081 14.195,3.240 14.234,3.777 14.319 C 4.427 14.422,4.846 14.584,5.504 14.984 C 6.030 15.304,6.343 15.450,6.747 15.564 C 7.263 15.711,7.327 15.714,9.453 15.727 C 11.515 15.738,11.822 15.727,12.171 15.627 C 12.912 15.415,13.470 14.845,13.639 14.129 C 13.687 13.927,13.692 13.601,13.649 13.418 L 13.619 13.285 13.760 13.065 C 13.937 12.788,14.061 12.521,14.138 12.251 C 14.213 11.984,14.219 11.544,14.151 11.363 C 14.107 11.248,14.108 11.241,14.173 11.078 C 14.314 10.727,14.357 10.475,14.359 10.000 C 14.360 9.516,14.331 9.316,14.210 8.969 L 14.133 8.751 14.238 8.555 C 14.656 7.780,14.484 6.824,13.809 6.169 C 13.441 5.812,13.039 5.654,12.213 5.544 C 11.884 5.500,10.983 5.500,10.565 5.545 C 10.385 5.564,10.231 5.573,10.224 5.566 C 10.216 5.559,10.240 5.398,10.277 5.210 C 10.395 4.602,10.436 4.148,10.436 3.453 C 10.435 2.798,10.412 2.495,10.318 1.933 C 10.234 1.427,10.135 1.042,10.038 0.838 C 9.931 0.611,9.662 0.341,9.431 0.228 C 9.076 0.054,8.488 -0.035,8.171 0.038 M8.809 1.064 C 9.116 1.149,9.146 1.196,9.267 1.773 C 9.395 2.383,9.426 2.716,9.425 3.453 C 9.423 4.364,9.345 4.950,9.117 5.749 C 8.994 6.179,8.990 6.203,9.018 6.326 C 9.052 6.481,9.158 6.609,9.301 6.673 C 9.437 6.733,9.493 6.730,9.957 6.642 C 10.648 6.511,11.569 6.470,12.134 6.545 C 12.480 6.591,12.839 6.681,12.950 6.749 C 13.092 6.836,13.280 7.061,13.368 7.247 C 13.442 7.404,13.452 7.455,13.453 7.653 C 13.454 7.976,13.382 8.117,13.047 8.458 L 12.789 8.721 12.993 8.927 C 13.219 9.155,13.287 9.279,13.335 9.555 C 13.383 9.832,13.355 10.369,13.281 10.600 C 13.228 10.764,13.195 10.812,13.006 11.006 L 12.791 11.227 12.995 11.437 C 13.194 11.641,13.200 11.651,13.199 11.777 C 13.198 12.099,12.964 12.530,12.569 12.935 L 12.295 13.216 12.487 13.408 L 12.679 13.600 12.675 13.760 C 12.665 14.197,12.276 14.603,11.779 14.695 C 11.677 14.713,10.924 14.719,9.513 14.713 C 7.457 14.703,7.394 14.701,7.164 14.645 C 6.829 14.564,6.529 14.428,6.040 14.137 C 5.168 13.619,4.691 13.442,3.800 13.308 C 3.350 13.240,3.223 13.185,3.100 13.003 L 3.013 12.874 3.013 10.729 C 3.013 8.670,3.015 8.581,3.064 8.486 C 3.175 8.272,3.353 8.157,3.800 8.013 C 4.163 7.896,4.664 7.657,4.977 7.450 C 6.094 6.715,7.117 5.432,7.494 4.296 C 7.680 3.735,7.826 2.945,7.908 2.062 C 7.966 1.427,7.985 1.337,8.083 1.218 C 8.252 1.014,8.465 0.968,8.809 1.064 " stroke="none" fill-rule="evenodd"></path></svg>