<svg width="16" height="16" fill="currentColor" xmlns="http://www.w3.org/2000/svg"><path d="M7.391 2.534 C 7.269 2.585,7.172 2.672,7.118 2.777 C 7.077 2.857,6.534 5.361,6.533 5.473 C 6.533 5.484,6.241 5.493,5.884 5.493 C 5.214 5.493,5.125 5.505,4.977 5.608 C 4.819 5.718,4.753 6.023,4.841 6.233 C 4.894 6.361,4.949 6.419,5.080 6.489 C 5.177 6.541,5.236 6.547,5.753 6.555 C 6.318 6.565,6.320 6.565,6.306 6.622 C 6.299 6.654,6.185 7.208,6.053 7.853 C 5.921 8.499,5.808 9.042,5.801 9.060 C 5.791 9.085,5.625 9.093,5.093 9.093 C 4.365 9.093,4.282 9.105,4.151 9.221 C 3.931 9.416,3.965 9.883,4.210 10.046 C 4.358 10.145,4.468 10.160,5.033 10.160 C 5.353 10.160,5.573 10.170,5.573 10.185 C 5.573 10.199,5.458 10.766,5.317 11.445 C 5.176 12.124,5.061 12.736,5.061 12.804 C 5.060 12.975,5.106 13.096,5.207 13.194 C 5.310 13.293,5.408 13.333,5.544 13.333 C 5.765 13.333,5.963 13.204,6.055 13.000 C 6.081 12.941,6.225 12.299,6.373 11.573 C 6.522 10.847,6.649 10.232,6.657 10.207 C 6.669 10.163,6.747 10.160,7.790 10.160 C 8.844 10.160,8.909 10.163,8.897 10.207 C 8.844 10.386,8.373 12.745,8.373 12.829 C 8.373 12.946,8.430 13.103,8.501 13.183 C 8.627 13.325,8.914 13.372,9.107 13.283 C 9.240 13.221,9.317 13.139,9.382 12.986 C 9.410 12.921,9.557 12.258,9.708 11.513 L 9.983 10.160 10.640 10.160 C 11.358 10.160,11.498 10.139,11.633 10.013 C 11.750 9.904,11.798 9.789,11.799 9.613 C 11.800 9.384,11.730 9.260,11.547 9.167 L 11.404 9.093 10.809 9.093 C 10.381 9.093,10.213 9.085,10.213 9.063 C 10.213 9.037,10.667 6.793,10.707 6.622 C 10.720 6.563,10.724 6.563,11.460 6.555 C 12.174 6.547,12.204 6.544,12.327 6.484 C 12.505 6.396,12.597 6.237,12.596 6.016 C 12.596 5.831,12.549 5.720,12.427 5.618 C 12.298 5.509,12.187 5.494,11.538 5.493 C 10.971 5.493,10.931 5.490,10.944 5.447 C 10.959 5.395,11.396 3.275,11.425 3.112 C 11.449 2.974,11.381 2.750,11.288 2.661 C 11.029 2.413,10.598 2.477,10.432 2.787 C 10.408 2.831,10.268 3.455,10.120 4.173 L 9.851 5.480 8.739 5.487 C 8.056 5.491,7.627 5.484,7.627 5.469 C 7.627 5.455,7.736 4.918,7.869 4.275 C 8.132 3.006,8.142 2.908,8.027 2.739 C 7.924 2.590,7.803 2.523,7.617 2.515 C 7.527 2.511,7.425 2.519,7.391 2.534 M9.653 6.541 C 9.653 6.570,9.145 9.077,9.138 9.084 C 9.133 9.090,8.619 9.091,7.997 9.087 L 6.865 9.080 7.083 8.027 C 7.204 7.447,7.322 6.874,7.348 6.753 L 7.393 6.533 8.523 6.533 C 9.145 6.533,9.653 6.537,9.653 6.541 " stroke="none" fill-rule="evenodd"></path></svg>