<svg width="16" height="16" fill="currentColor" xmlns="http://www.w3.org/2000/svg"><path d="M1.669 2.028 C 0.973 2.146,0.351 2.667,0.121 3.326 C 0.009 3.647,-0.006 3.810,0.006 4.619 C 0.016 5.316,0.022 5.388,0.078 5.560 C 0.344 6.372,0.973 6.891,1.807 6.986 C 2.126 7.023,13.874 7.023,14.193 6.986 C 15.027 6.891,15.656 6.372,15.922 5.560 C 15.978 5.387,15.984 5.317,15.994 4.607 C 16.006 3.760,15.987 3.583,15.845 3.234 C 15.666 2.795,15.310 2.422,14.864 2.208 C 14.422 1.995,15.102 2.015,8.080 2.010 C 4.626 2.008,1.741 2.016,1.669 2.028 M2.687 4.041 C 2.813 4.094,2.874 4.150,2.936 4.272 C 3.084 4.563,2.916 4.915,2.594 4.988 C 2.390 5.034,2.140 4.906,2.051 4.710 C 1.935 4.454,2.044 4.171,2.307 4.050 C 2.437 3.990,2.557 3.987,2.687 4.041 M4.687 4.041 C 4.813 4.094,4.874 4.150,4.936 4.272 C 5.084 4.563,4.916 4.915,4.594 4.988 C 4.390 5.034,4.140 4.906,4.051 4.710 C 3.935 4.454,4.044 4.171,4.307 4.050 C 4.437 3.990,4.557 3.987,4.687 4.041 M1.554 9.053 C 0.869 9.203,0.312 9.726,0.078 10.440 C 0.022 10.613,0.016 10.683,0.006 11.393 C -0.006 12.240,0.013 12.417,0.155 12.766 C 0.347 13.238,0.761 13.652,1.233 13.844 C 1.639 14.010,1.217 14.000,8.000 14.000 C 14.782 14.000,14.361 14.010,14.766 13.845 C 15.234 13.654,15.654 13.233,15.845 12.765 C 15.987 12.416,16.006 12.240,15.993 11.393 C 15.982 10.691,15.976 10.611,15.921 10.440 C 15.709 9.779,15.237 9.306,14.559 9.076 C 14.419 9.029,14.161 9.026,8.067 9.022 C 2.806 9.018,1.692 9.023,1.554 9.053 M2.701 11.050 C 2.880 11.127,2.987 11.298,2.987 11.509 C 2.987 12.040,2.271 12.181,2.050 11.694 C 1.903 11.370,2.130 11.017,2.488 11.014 C 2.558 11.014,2.654 11.030,2.701 11.050 M4.701 11.050 C 4.880 11.127,4.987 11.298,4.987 11.509 C 4.987 12.040,4.271 12.181,4.050 11.694 C 3.903 11.370,4.130 11.017,4.488 11.014 C 4.558 11.014,4.654 11.030,4.701 11.050 " stroke="none" fill-rule="evenodd"></path></svg>