<svg width="16" height="16" fill="currentColor" xmlns="http://www.w3.org/2000/svg"><path d="M1.669 2.028 C 0.973 2.146,0.351 2.667,0.121 3.326 C 0.009 3.647,-0.006 3.810,0.006 4.619 C 0.016 5.316,0.022 5.388,0.078 5.560 C 0.344 6.372,0.973 6.891,1.807 6.986 C 1.948 7.002,3.120 7.013,4.767 7.013 L 7.493 7.013 7.493 8.504 L 7.493 9.994 7.341 10.013 C 6.634 10.101,6.090 10.644,6.010 11.339 L 5.993 11.492 3.176 11.499 C 0.095 11.507,0.291 11.497,0.141 11.658 C -0.096 11.912,-0.014 12.308,0.307 12.456 C 0.408 12.503,0.548 12.506,3.203 12.506 L 5.993 12.507 6.010 12.660 C 6.076 13.236,6.479 13.733,7.035 13.925 C 7.206 13.984,7.247 13.987,8.000 13.987 C 8.753 13.987,8.794 13.984,8.965 13.925 C 9.521 13.733,9.924 13.236,9.990 12.660 L 10.007 12.507 12.797 12.506 C 15.452 12.506,15.592 12.503,15.693 12.456 C 15.822 12.397,15.904 12.312,15.959 12.180 C 16.056 11.948,15.954 11.680,15.720 11.551 C 15.647 11.511,15.386 11.506,12.824 11.499 L 10.007 11.492 9.990 11.339 C 9.910 10.644,9.366 10.101,8.659 10.013 L 8.507 9.994 8.507 8.504 L 8.507 7.013 11.233 7.013 C 12.880 7.013,14.052 7.002,14.193 6.986 C 15.027 6.891,15.656 6.372,15.922 5.560 C 15.978 5.387,15.984 5.317,15.994 4.607 C 16.006 3.760,15.987 3.583,15.845 3.234 C 15.666 2.795,15.310 2.422,14.864 2.208 C 14.422 1.995,15.102 2.015,8.080 2.010 C 4.626 2.008,1.741 2.016,1.669 2.028 M2.687 4.041 C 2.813 4.094,2.874 4.150,2.936 4.272 C 3.084 4.563,2.916 4.915,2.594 4.988 C 2.390 5.034,2.140 4.906,2.051 4.710 C 1.935 4.454,2.044 4.171,2.307 4.050 C 2.437 3.990,2.557 3.987,2.687 4.041 M4.687 4.041 C 4.813 4.094,4.874 4.150,4.936 4.272 C 5.084 4.563,4.916 4.915,4.594 4.988 C 4.390 5.034,4.140 4.906,4.051 4.710 C 3.935 4.454,4.044 4.171,4.307 4.050 C 4.437 3.990,4.557 3.987,4.687 4.041 " stroke="none" fill-rule="evenodd"></path></svg>