<svg width="16" height="16" fill="currentColor" xmlns="http://www.w3.org/2000/svg"><path d="M1.669 2.028 C 0.973 2.146,0.351 2.667,0.121 3.326 C 0.009 3.647,-0.006 3.810,0.006 4.619 C 0.016 5.316,0.022 5.388,0.078 5.560 C 0.344 6.372,0.973 6.891,1.807 6.986 C 1.948 7.002,3.120 7.013,4.767 7.013 L 7.493 7.013 7.493 8.504 L 7.493 9.994 7.341 10.013 C 6.634 10.101,6.090 10.644,6.010 11.339 L 5.993 11.492 3.176 11.499 C 0.095 11.507,0.291 11.497,0.141 11.658 C -0.096 11.912,-0.014 12.308,0.307 12.456 C 0.408 12.503,0.548 12.506,3.203 12.506 L 5.993 12.507 6.010 12.660 C 6.076 13.236,6.479 13.733,7.035 13.925 C 7.206 13.984,7.247 13.987,8.000 13.987 C 8.753 13.987,8.794 13.984,8.965 13.925 C 9.521 13.733,9.924 13.236,9.990 12.660 L 10.007 12.507 12.797 12.506 C 15.452 12.506,15.592 12.503,15.693 12.456 C 15.822 12.397,15.904 12.312,15.959 12.180 C 16.056 11.948,15.954 11.680,15.720 11.551 C 15.647 11.511,15.386 11.506,12.824 11.499 L 10.007 11.492 9.990 11.339 C 9.910 10.644,9.366 10.101,8.659 10.013 L 8.507 9.994 8.507 8.504 L 8.507 7.013 11.233 7.013 C 12.880 7.013,14.052 7.002,14.193 6.986 C 15.027 6.891,15.656 6.372,15.922 5.560 C 15.978 5.387,15.984 5.317,15.994 4.607 C 16.006 3.760,15.987 3.583,15.845 3.234 C 15.666 2.795,15.310 2.422,14.864 2.208 C 14.422 1.995,15.102 2.015,8.080 2.010 C 4.626 2.008,1.741 2.016,1.669 2.028 M14.407 3.085 C 14.584 3.167,14.812 3.392,14.900 3.570 L 14.973 3.720 14.973 4.494 L 14.973 5.268 14.886 5.446 C 14.784 5.652,14.618 5.814,14.400 5.917 L 14.253 5.987 8.000 5.987 L 1.747 5.987 1.600 5.917 C 1.382 5.814,1.216 5.652,1.114 5.446 L 1.027 5.268 1.019 4.552 C 1.012 3.970,1.019 3.809,1.052 3.695 C 1.130 3.426,1.389 3.157,1.662 3.063 C 1.793 3.017,2.106 3.015,8.040 3.021 L 14.280 3.027 14.407 3.085 M2.306 4.050 C 1.974 4.201,1.901 4.609,2.161 4.858 C 2.257 4.949,2.461 5.025,2.544 5.000 C 2.560 4.995,2.606 4.984,2.646 4.975 C 2.727 4.957,2.893 4.823,2.939 4.737 C 3.070 4.492,2.961 4.165,2.710 4.051 C 2.571 3.988,2.443 3.988,2.306 4.050 M4.306 4.050 C 3.974 4.201,3.901 4.609,4.161 4.858 C 4.257 4.949,4.461 5.025,4.544 5.000 C 4.560 4.995,4.606 4.984,4.646 4.975 C 4.727 4.957,4.893 4.823,4.939 4.737 C 5.070 4.492,4.961 4.165,4.710 4.051 C 4.571 3.988,4.443 3.988,4.306 4.050 M8.685 11.042 C 8.787 11.080,8.906 11.195,8.950 11.299 C 9.002 11.421,9.003 12.577,8.951 12.701 C 8.907 12.805,8.747 12.951,8.646 12.980 C 8.551 13.006,7.449 13.006,7.354 12.980 C 7.262 12.954,7.103 12.815,7.052 12.717 C 6.996 12.610,6.996 11.391,7.051 11.285 C 7.092 11.207,7.208 11.091,7.293 11.044 C 7.365 11.005,8.582 11.003,8.685 11.042 " stroke="none" fill-rule="evenodd"></path></svg>