<svg width="16" height="16" fill="currentColor" xmlns="http://www.w3.org/2000/svg"><path d="M3.702 3.053 C 3.409 3.133,3.080 3.352,2.912 3.578 C 2.778 3.759,0.272 8.355,0.174 8.602 C 0.012 9.005,-0.005 9.183,0.006 10.333 C 0.016 11.335,0.018 11.380,0.078 11.560 C 0.347 12.375,0.973 12.891,1.807 12.986 C 2.126 13.023,13.874 13.023,14.193 12.986 C 15.027 12.891,15.653 12.375,15.922 11.560 C 15.982 11.380,15.984 11.335,15.994 10.333 C 16.005 9.182,15.988 9.006,15.826 8.600 C 15.729 8.356,13.224 3.762,13.089 3.580 C 12.918 3.350,12.585 3.131,12.282 3.050 C 12.087 2.998,3.891 3.000,3.702 3.053 M12.061 4.028 C 12.116 4.044,12.199 4.095,12.244 4.141 C 12.290 4.188,12.752 5.007,13.271 5.960 C 13.791 6.913,14.255 7.765,14.304 7.853 L 14.392 8.013 8.125 8.006 C 4.541 8.002,1.802 8.009,1.728 8.023 C 1.633 8.040,1.600 8.038,1.609 8.017 C 1.690 7.823,3.695 4.204,3.756 4.141 C 3.802 4.094,3.879 4.044,3.927 4.030 C 4.052 3.994,11.930 3.992,12.061 4.028 M14.407 9.085 C 14.584 9.167,14.812 9.392,14.900 9.570 L 14.973 9.720 14.973 10.494 L 14.973 11.268 14.886 11.446 C 14.784 11.652,14.618 11.814,14.400 11.917 L 14.253 11.987 8.000 11.987 L 1.747 11.987 1.600 11.917 C 1.382 11.814,1.216 11.652,1.114 11.446 L 1.027 11.268 1.019 10.552 C 1.012 9.970,1.019 9.809,1.052 9.695 C 1.130 9.426,1.389 9.157,1.662 9.063 C 1.793 9.017,2.106 9.015,8.040 9.021 L 14.280 9.027 14.407 9.085 M2.306 10.050 C 1.974 10.201,1.901 10.609,2.161 10.858 C 2.257 10.949,2.461 11.025,2.544 11.000 C 2.560 10.995,2.606 10.984,2.646 10.975 C 2.727 10.957,2.893 10.823,2.939 10.737 C 3.070 10.492,2.961 10.165,2.710 10.051 C 2.571 9.988,2.443 9.988,2.306 10.050 M4.306 10.050 C 3.974 10.201,3.901 10.609,4.161 10.858 C 4.257 10.949,4.461 11.025,4.544 11.000 C 4.560 10.995,4.606 10.984,4.646 10.975 C 4.727 10.957,4.893 10.823,4.939 10.737 C 5.070 10.492,4.961 10.165,4.710 10.051 C 4.571 9.988,4.443 9.988,4.306 10.050 " stroke="none" fill-rule="evenodd"></path></svg>