<svg width="16" height="16" fill="currentColor" xmlns="http://www.w3.org/2000/svg"><path d="M7.560 2.016 C 6.684 2.107,6.060 2.276,5.373 2.612 C 3.492 3.530,2.229 5.352,2.027 7.440 C 2.007 7.650,2.000 8.615,2.005 10.493 L 2.013 13.240 2.088 13.400 C 2.186 13.610,2.391 13.816,2.597 13.911 L 2.760 13.987 3.507 13.987 L 4.253 13.987 4.400 13.917 C 4.707 13.771,4.924 13.490,4.984 13.162 C 5.021 12.960,5.024 10.079,4.987 9.855 C 4.934 9.532,4.720 9.243,4.428 9.099 C 4.281 9.027,4.274 9.027,3.644 9.018 L 3.008 9.010 3.020 8.178 C 3.030 7.450,3.039 7.310,3.091 7.053 C 3.506 5.023,5.033 3.499,7.067 3.089 C 7.336 3.035,7.450 3.027,8.000 3.027 C 8.550 3.027,8.664 3.035,8.933 3.089 C 10.967 3.499,12.494 5.023,12.909 7.053 C 12.961 7.310,12.970 7.450,12.980 8.178 L 12.992 9.010 12.356 9.018 C 11.726 9.027,11.719 9.027,11.572 9.099 C 11.280 9.243,11.066 9.532,11.013 9.855 C 10.976 10.079,10.979 12.960,11.016 13.162 C 11.076 13.490,11.293 13.771,11.600 13.917 L 11.747 13.987 12.493 13.987 L 13.240 13.987 13.403 13.911 C 13.609 13.816,13.814 13.610,13.912 13.400 L 13.987 13.240 13.995 10.493 C 14.000 8.615,13.993 7.650,13.973 7.440 C 13.771 5.352,12.510 3.533,10.629 2.615 C 10.044 2.329,9.513 2.163,8.880 2.067 C 8.608 2.026,7.775 1.994,7.560 2.016 " stroke="none" fill-rule="evenodd"></path></svg>