<svg width="16" height="16" fill="currentColor" xmlns="http://www.w3.org/2000/svg"><path d="M7.400 0.019 C 7.312 0.023,7.072 0.046,6.867 0.069 C 4.470 0.335,2.504 1.482,1.303 3.316 C 1.189 3.490,1.039 3.742,0.970 3.876 L 0.844 4.120 0.948 4.040 C 1.507 3.613,2.312 3.239,2.940 3.117 C 3.095 3.087,3.123 3.069,3.333 2.873 C 4.344 1.928,5.640 1.409,7.320 1.277 C 7.794 1.240,8.597 1.260,9.040 1.320 C 10.365 1.500,11.503 2.010,12.445 2.846 L 12.664 3.040 12.952 3.095 C 13.110 3.126,13.372 3.193,13.533 3.244 C 13.921 3.367,14.564 3.688,14.880 3.917 C 15.019 4.018,15.138 4.096,15.143 4.092 C 15.156 4.080,14.928 3.662,14.765 3.400 C 13.656 1.613,11.742 0.429,9.446 0.107 C 8.792 0.015,8.060 -0.016,7.400 0.019 M3.522 4.029 C 1.903 4.220,0.531 5.423,0.132 7.000 C 0.021 7.440,-0.009 7.718,0.008 8.147 C 0.029 8.681,0.138 9.164,0.339 9.609 C 0.887 10.821,1.907 11.637,3.233 11.925 C 3.463 11.975,3.588 11.984,4.013 11.984 C 4.473 11.984,4.550 11.977,4.838 11.909 C 5.544 11.745,6.129 11.450,6.640 11.000 C 6.861 10.806,7.168 10.640,7.440 10.567 C 7.682 10.502,8.318 10.502,8.560 10.567 C 8.832 10.640,9.139 10.806,9.360 11.000 C 9.885 11.461,10.496 11.766,11.220 11.926 C 11.596 12.009,12.401 12.009,12.782 11.925 C 14.404 11.567,15.567 10.404,15.925 8.782 C 16.009 8.402,16.009 7.598,15.925 7.218 C 15.561 5.571,14.372 4.404,12.707 4.061 C 12.514 4.021,12.065 4.016,8.107 4.011 C 5.694 4.009,3.631 4.017,3.522 4.029 " stroke="none" fill-rule="evenodd"></path></svg>