<svg width="16" height="16" fill="currentColor" xmlns="http://www.w3.org/2000/svg"><path d="M4.333 0.027 C 3.097 0.168,1.895 0.788,1.135 1.678 C 0.564 2.347,0.230 3.056,0.062 3.960 C 0.006 4.261,-0.014 4.994,0.025 5.334 C 0.209 6.955,1.004 8.568,2.497 10.344 C 2.844 10.756,4.103 12.013,4.587 12.430 C 5.145 12.911,5.725 13.376,6.320 13.818 C 6.937 14.276,7.291 14.530,7.299 14.522 C 7.303 14.519,6.900 13.502,6.404 12.263 L 5.502 10.009 6.243 8.531 C 6.650 7.718,6.984 7.032,6.985 7.007 C 6.986 6.981,6.657 6.081,6.255 5.007 C 5.852 3.932,5.519 3.040,5.515 3.023 C 5.510 3.007,5.918 2.500,6.420 1.897 C 6.922 1.294,7.333 0.790,7.333 0.776 C 7.333 0.704,6.649 0.356,6.249 0.225 C 6.096 0.175,5.836 0.109,5.672 0.079 C 5.328 0.016,4.660 -0.010,4.333 0.027 M10.656 0.027 C 10.141 0.086,9.634 0.234,9.193 0.454 L 8.920 0.590 7.963 1.790 L 7.006 2.990 7.036 3.088 C 7.053 3.142,7.389 4.045,7.782 5.093 L 8.498 6.999 7.498 8.499 L 6.498 9.999 7.239 12.473 C 7.647 13.833,7.989 14.957,8.001 14.969 C 8.029 15.001,8.989 14.340,9.827 13.711 C 11.504 12.452,12.950 11.074,13.988 9.746 C 14.254 9.405,14.759 8.654,14.957 8.302 C 15.748 6.899,16.106 5.470,15.972 4.246 C 15.906 3.653,15.764 3.170,15.494 2.627 C 14.833 1.298,13.514 0.339,11.973 0.068 C 11.675 0.015,10.955 -0.007,10.656 0.027 M5.437 1.054 C 5.575 1.076,5.702 1.103,5.721 1.114 C 5.744 1.127,5.582 1.340,5.209 1.787 C 4.901 2.156,4.633 2.504,4.592 2.587 C 4.528 2.717,4.520 2.762,4.521 3.000 L 4.523 3.267 5.218 5.107 L 5.912 6.947 5.216 8.341 L 4.520 9.736 4.520 9.995 L 4.520 10.253 4.754 10.837 C 4.883 11.158,4.984 11.425,4.979 11.430 C 4.960 11.449,4.119 10.640,3.783 10.280 C 1.869 8.227,0.949 6.329,1.022 4.587 C 1.048 3.964,1.166 3.513,1.435 3.001 C 1.979 1.969,3.067 1.221,4.286 1.042 C 4.547 1.004,5.168 1.011,5.437 1.054 M12.030 1.102 C 13.593 1.471,14.721 2.657,14.945 4.168 C 15.277 6.401,13.722 9.140,10.613 11.801 C 9.819 12.480,8.594 13.414,8.562 13.364 C 8.552 13.347,8.330 12.622,8.069 11.751 L 7.595 10.169 8.498 8.811 C 9.502 7.304,9.510 7.289,9.486 6.937 C 9.474 6.751,9.414 6.578,8.817 4.991 C 8.456 4.032,8.158 3.231,8.154 3.210 C 8.150 3.189,8.471 2.766,8.867 2.268 L 9.587 1.364 9.773 1.285 C 10.278 1.070,10.607 1.012,11.253 1.025 C 11.662 1.034,11.795 1.047,12.030 1.102 " stroke="none" fill-rule="evenodd"></path></svg>