<svg width="16" height="16" fill="currentColor" xmlns="http://www.w3.org/2000/svg"><path d="M4.333 0.027 C 2.228 0.266,0.539 1.748,0.111 3.734 C -0.061 4.533,-0.026 5.412,0.216 6.319 C 0.889 8.850,3.129 11.523,6.787 14.164 C 7.200 14.462,7.973 14.987,8.000 14.987 C 8.054 14.987,9.152 14.218,9.867 13.679 C 10.927 12.881,11.613 12.284,12.535 11.362 C 13.840 10.056,14.665 8.952,15.252 7.728 C 16.035 6.093,16.201 4.616,15.757 3.241 C 15.655 2.925,15.375 2.360,15.192 2.098 C 14.551 1.183,13.606 0.509,12.533 0.200 C 12.003 0.048,11.757 0.015,11.147 0.016 C 10.658 0.017,10.564 0.024,10.264 0.088 C 9.427 0.264,8.715 0.632,8.140 1.184 L 8.000 1.318 7.860 1.184 C 7.271 0.618,6.503 0.231,5.672 0.079 C 5.328 0.016,4.660 -0.010,4.333 0.027 " stroke="none" fill-rule="evenodd"></path></svg>