<svg width="16" height="16" fill="currentColor" xmlns="http://www.w3.org/2000/svg"><path d="M4.336 0.029 C 2.687 0.203,1.214 1.202,0.506 2.627 C 0.130 3.384,-0.024 4.110,0.008 4.973 C 0.118 7.863,2.463 11.043,6.787 14.164 C 7.200 14.462,7.973 14.987,8.000 14.987 C 8.027 14.987,8.800 14.462,9.213 14.164 C 10.564 13.189,11.481 12.416,12.522 11.375 C 13.389 10.508,13.885 9.927,14.412 9.162 C 15.590 7.454,16.135 5.734,15.972 4.246 C 15.908 3.666,15.765 3.175,15.508 2.653 C 14.842 1.298,13.544 0.351,11.960 0.064 C 11.547 -0.011,10.726 -0.005,10.324 0.075 C 9.472 0.246,8.702 0.636,8.140 1.182 L 8.000 1.318 7.860 1.184 C 7.549 0.886,7.240 0.670,6.826 0.463 C 6.079 0.089,5.207 -0.063,4.336 0.029 M11.979 1.092 C 12.812 1.271,13.594 1.726,14.102 2.329 C 14.574 2.890,14.844 3.474,14.948 4.160 C 14.997 4.484,14.997 5.083,14.947 5.431 C 14.747 6.837,13.906 8.398,12.505 9.960 C 12.129 10.380,11.252 11.243,10.800 11.638 C 10.053 12.292,8.692 13.343,8.073 13.745 L 8.000 13.793 8.000 8.266 L 8.000 2.740 8.447 2.287 C 8.982 1.745,9.209 1.568,9.637 1.359 C 9.964 1.200,10.224 1.115,10.587 1.051 C 10.885 0.998,11.646 1.020,11.979 1.092 " stroke="none" fill-rule="evenodd"></path></svg>