<svg width="16" height="16" fill="currentColor" xmlns="http://www.w3.org/2000/svg"><path d="M7.707 0.050 C 7.536 0.106,1.487 3.703,1.315 3.852 C 1.178 3.969,1.049 4.222,1.013 4.440 C 0.978 4.652,0.978 11.343,1.012 11.555 C 1.049 11.778,1.151 11.980,1.299 12.126 C 1.472 12.296,7.482 15.879,7.715 15.951 C 7.913 16.013,8.087 16.013,8.284 15.951 C 8.517 15.879,14.528 12.295,14.701 12.126 C 14.849 11.980,14.951 11.778,14.988 11.555 C 15.022 11.347,15.022 4.653,14.988 4.445 C 14.951 4.222,14.850 4.020,14.702 3.876 C 14.531 3.710,8.514 0.121,8.284 0.049 C 8.091 -0.012,7.897 -0.011,7.707 0.050 " stroke="none" fill-rule="evenodd"></path></svg>