<svg width="16" height="16" fill="currentColor" xmlns="http://www.w3.org/2000/svg"><path d="M2.262 1.067 C 2.074 1.167,1.979 1.364,2.012 1.587 C 2.035 1.744,2.197 1.932,2.343 1.973 C 2.396 1.988,2.676 2.000,2.963 2.000 L 3.487 2.000 3.501 2.753 C 3.510 3.277,3.527 3.575,3.556 3.729 C 3.673 4.347,3.870 4.873,4.165 5.354 C 4.541 5.969,5.155 6.566,5.740 6.886 C 6.180 7.127,6.301 7.211,6.389 7.340 C 6.497 7.497,6.517 7.633,6.502 8.126 C 6.489 8.535,6.470 8.597,6.298 8.768 C 6.244 8.822,6.077 8.931,5.926 9.010 C 4.800 9.602,3.994 10.597,3.666 11.801 C 3.535 12.282,3.515 12.455,3.501 13.247 L 3.487 14.000 2.950 14.001 C 2.344 14.001,2.269 14.019,2.115 14.195 C 1.879 14.464,2.039 14.907,2.400 14.984 C 2.592 15.025,13.408 15.025,13.600 14.984 C 13.961 14.907,14.121 14.464,13.885 14.195 C 13.731 14.019,13.656 14.001,13.050 14.001 L 12.513 14.000 12.498 13.247 C 12.483 12.456,12.461 12.267,12.337 11.810 C 12.006 10.596,11.203 9.603,10.074 9.010 C 9.923 8.931,9.756 8.822,9.702 8.768 C 9.530 8.597,9.511 8.535,9.498 8.126 C 9.475 7.352,9.509 7.297,10.260 6.886 C 10.946 6.511,11.636 5.785,12.011 5.045 C 12.199 4.674,12.364 4.171,12.445 3.721 C 12.469 3.586,12.489 3.229,12.498 2.753 L 12.513 2.000 13.037 2.000 C 13.324 2.000,13.604 1.988,13.657 1.973 C 13.803 1.932,13.965 1.744,13.988 1.587 C 14.022 1.361,13.925 1.165,13.732 1.066 C 13.630 1.014,13.551 1.013,7.994 1.015 C 2.477 1.016,2.358 1.017,2.262 1.067 M11.493 2.633 C 11.493 3.644,11.382 4.143,11.020 4.762 C 10.684 5.337,10.245 5.753,9.587 6.119 C 9.411 6.217,9.204 6.345,9.128 6.404 C 8.873 6.601,8.673 6.891,8.572 7.208 C 8.511 7.403,8.507 7.454,8.507 7.999 C 8.507 8.516,8.513 8.601,8.563 8.764 C 8.635 8.997,8.686 9.096,8.839 9.299 C 8.995 9.507,9.234 9.698,9.537 9.858 C 10.338 10.280,10.895 10.870,11.220 11.639 C 11.435 12.148,11.493 12.515,11.493 13.367 L 11.493 14.000 8.000 14.000 L 4.507 14.000 4.507 13.367 C 4.507 12.515,4.565 12.148,4.780 11.639 C 5.094 10.894,5.632 10.309,6.372 9.907 C 6.525 9.823,6.705 9.718,6.772 9.672 C 7.074 9.465,7.319 9.137,7.427 8.794 C 7.489 8.597,7.493 8.548,7.493 8.000 C 7.493 7.453,7.489 7.403,7.428 7.208 C 7.327 6.891,7.127 6.601,6.872 6.404 C 6.796 6.345,6.589 6.217,6.413 6.119 C 5.755 5.753,5.316 5.337,4.980 4.762 C 4.618 4.143,4.507 3.644,4.507 2.633 L 4.507 2.000 8.000 2.000 L 11.493 2.000 11.493 2.633 " stroke="none" fill-rule="evenodd"></path></svg>