<svg width="16" height="16" fill="currentColor" xmlns="http://www.w3.org/2000/svg"><path d="M7.787 1.237 C 7.706 1.255,7.586 1.297,7.520 1.331 C 7.355 1.415,0.636 8.125,0.559 8.282 C 0.421 8.567,0.563 8.886,0.868 8.975 C 0.987 9.009,1.018 9.009,1.134 8.975 C 1.256 8.938,1.482 8.718,4.632 5.568 L 8.000 2.200 11.368 5.568 C 14.518 8.718,14.744 8.938,14.866 8.975 C 14.982 9.009,15.013 9.009,15.132 8.975 C 15.428 8.889,15.571 8.587,15.452 8.299 C 15.424 8.231,15.031 7.820,14.212 7.000 L 13.013 5.799 13.013 4.160 C 13.012 3.130,13.002 2.476,12.985 2.401 C 12.948 2.243,12.845 2.113,12.710 2.051 C 12.613 2.007,12.529 2.001,12.000 2.001 C 11.325 2.001,11.243 2.019,11.112 2.191 C 11.006 2.329,10.988 2.469,10.987 3.146 L 10.987 3.772 9.793 2.582 C 8.520 1.313,8.490 1.287,8.174 1.229 C 7.988 1.195,7.976 1.195,7.787 1.237 M4.993 6.300 L 2.000 9.293 2.000 11.480 C 2.001 13.342,2.007 13.692,2.041 13.839 C 2.165 14.363,2.570 14.787,3.107 14.951 C 3.258 14.997,3.426 15.000,6.133 15.000 L 9.000 15.000 9.015 13.800 C 9.031 12.475,9.030 12.486,9.214 12.113 C 9.369 11.799,9.686 11.446,9.927 11.318 C 9.998 11.280,10.000 11.271,10.000 11.059 C 10.000 10.219,10.310 9.453,10.882 8.882 C 11.324 8.439,11.971 8.111,12.540 8.040 C 12.624 8.029,12.693 8.013,12.693 8.004 C 12.693 7.984,8.020 3.307,8.000 3.307 C 7.993 3.307,6.640 4.654,4.993 6.300 M12.507 9.068 C 11.943 9.213,11.466 9.601,11.215 10.120 C 11.031 10.498,11.010 10.615,10.994 11.351 L 10.980 11.996 10.852 12.014 C 10.541 12.056,10.241 12.284,10.096 12.587 L 10.013 12.760 10.013 14.000 L 10.013 15.240 10.088 15.400 C 10.186 15.610,10.391 15.816,10.597 15.911 L 10.760 15.987 13.000 15.987 L 15.240 15.987 15.403 15.911 C 15.609 15.816,15.814 15.610,15.912 15.400 L 15.987 15.240 15.987 14.000 L 15.987 12.760 15.912 12.600 C 15.771 12.297,15.456 12.056,15.148 12.014 L 15.020 11.996 15.006 11.351 C 14.990 10.615,14.969 10.498,14.785 10.120 C 14.532 9.596,14.053 9.210,13.482 9.066 C 13.202 8.996,12.783 8.997,12.507 9.068 M13.406 10.093 C 13.609 10.185,13.817 10.392,13.911 10.597 C 13.986 10.759,13.987 10.765,13.995 11.380 L 14.004 12.000 13.000 12.000 L 11.996 12.000 12.005 11.380 C 12.013 10.765,12.014 10.759,12.088 10.600 C 12.216 10.325,12.485 10.098,12.767 10.027 C 12.938 9.984,13.235 10.014,13.406 10.093 " stroke="none" fill-rule="evenodd"></path></svg>