<svg width="16" height="16" fill="currentColor" xmlns="http://www.w3.org/2000/svg"><path d="M7.787 1.237 C 7.706 1.255,7.586 1.297,7.520 1.331 C 7.355 1.415,0.636 8.125,0.559 8.282 C 0.421 8.567,0.563 8.886,0.868 8.975 C 0.987 9.009,1.018 9.009,1.133 8.975 C 1.245 8.941,1.318 8.881,1.632 8.568 L 2.000 8.201 2.000 10.934 C 2.001 13.944,1.995 13.833,2.167 14.185 C 2.275 14.405,2.565 14.701,2.787 14.818 C 3.148 15.007,3.012 14.997,5.343 15.007 C 6.834 15.013,7.487 15.007,7.590 14.986 C 8.072 14.886,8.142 14.253,7.694 14.050 C 7.593 14.004,7.461 14.001,5.499 14.001 C 3.682 14.000,3.399 13.995,3.313 13.959 C 3.187 13.906,3.126 13.850,3.064 13.728 C 3.015 13.632,3.013 13.516,3.013 10.408 L 3.013 7.187 5.507 4.693 L 8.000 2.200 11.368 5.568 C 14.518 8.718,14.744 8.938,14.866 8.975 C 14.982 9.009,15.013 9.009,15.132 8.975 C 15.428 8.889,15.571 8.587,15.452 8.299 C 15.424 8.231,15.031 7.820,14.212 7.000 L 13.013 5.799 13.013 4.160 C 13.012 3.130,13.002 2.476,12.985 2.401 C 12.948 2.243,12.845 2.113,12.710 2.051 C 12.613 2.007,12.529 2.001,12.000 2.001 C 11.325 2.001,11.243 2.019,11.112 2.191 C 11.006 2.329,10.988 2.469,10.987 3.146 L 10.987 3.772 9.793 2.582 C 8.520 1.313,8.490 1.287,8.174 1.229 C 7.988 1.195,7.976 1.195,7.787 1.237 M11.923 9.028 C 11.654 9.075,11.215 9.218,10.982 9.335 C 8.964 10.348,8.374 12.889,9.747 14.653 C 11.183 16.500,13.988 16.431,15.365 14.515 C 15.649 14.121,15.838 13.695,15.948 13.200 C 16.015 12.900,16.021 12.099,15.958 11.794 C 15.672 10.411,14.635 9.364,13.240 9.051 C 12.972 8.991,12.212 8.978,11.923 9.028 M12.914 10.040 C 13.189 10.088,13.475 10.186,13.700 10.311 C 13.792 10.361,13.867 10.405,13.867 10.408 C 13.867 10.411,13.088 11.192,12.137 12.143 L 10.406 13.873 10.311 13.703 C 10.187 13.480,10.065 13.109,10.025 12.829 C 9.918 12.086,10.193 11.273,10.733 10.733 C 11.302 10.163,12.125 9.902,12.914 10.040 M14.716 11.355 C 14.892 11.694,14.964 11.979,14.980 12.402 C 15.001 12.984,14.884 13.416,14.578 13.874 C 14.322 14.257,13.984 14.555,13.587 14.747 C 12.876 15.091,12.077 15.080,11.353 14.717 C 11.240 14.659,11.147 14.604,11.147 14.593 C 11.147 14.569,14.566 11.147,14.590 11.147 C 14.600 11.147,14.656 11.240,14.716 11.355 " stroke="none" fill-rule="evenodd"></path></svg>