<svg width="16" height="16" fill="currentColor" xmlns="http://www.w3.org/2000/svg"><path d="M7.787 1.237 C 7.706 1.255,7.586 1.297,7.520 1.331 C 7.355 1.415,0.636 8.125,0.559 8.282 C 0.421 8.567,0.563 8.886,0.868 8.975 C 0.987 9.009,1.018 9.009,1.134 8.975 C 1.256 8.938,1.482 8.718,4.632 5.568 L 8.000 2.200 11.368 5.568 C 14.518 8.718,14.744 8.938,14.866 8.975 C 14.982 9.009,15.013 9.009,15.132 8.975 C 15.428 8.889,15.571 8.587,15.452 8.299 C 15.424 8.231,15.031 7.820,14.212 7.000 L 13.013 5.799 13.013 4.160 C 13.012 3.130,13.002 2.476,12.985 2.401 C 12.948 2.243,12.845 2.113,12.710 2.051 C 12.613 2.007,12.529 2.001,12.000 2.001 C 11.325 2.001,11.243 2.019,11.112 2.191 C 11.006 2.329,10.988 2.469,10.987 3.146 L 10.987 3.772 9.793 2.582 C 8.520 1.313,8.490 1.287,8.174 1.229 C 7.988 1.195,7.976 1.195,7.787 1.237 M4.993 6.300 L 2.000 9.293 2.000 11.480 C 2.001 13.888,1.998 13.839,2.167 14.185 C 2.275 14.405,2.565 14.701,2.787 14.818 C 3.155 15.011,2.933 14.998,5.993 15.007 C 7.508 15.012,8.747 15.008,8.747 14.998 C 8.747 14.988,8.704 14.911,8.653 14.826 C 7.720 13.290,7.806 11.294,8.868 9.851 C 9.717 8.697,11.080 8.002,12.493 8.000 L 12.707 8.000 10.360 5.653 C 9.069 4.363,8.007 3.307,8.000 3.307 C 7.993 3.307,6.640 4.654,4.993 6.300 M11.907 9.053 C 11.169 9.189,10.552 9.510,10.026 10.031 C 8.634 11.410,8.668 13.693,10.102 15.045 C 10.737 15.644,11.624 16.000,12.485 16.000 C 14.008 16.001,15.352 15.029,15.824 13.587 C 15.936 13.243,15.975 13.024,15.990 12.627 C 16.015 12.018,15.906 11.512,15.627 10.947 C 15.137 9.950,14.185 9.239,13.095 9.056 C 12.793 9.005,12.174 9.003,11.907 9.053 M12.720 10.560 C 12.777 10.589,12.857 10.657,12.898 10.711 L 12.973 10.809 12.981 11.678 C 12.986 12.156,12.982 12.586,12.973 12.634 C 12.956 12.726,12.830 12.889,12.737 12.939 C 12.489 13.071,12.163 12.960,12.049 12.703 C 12.001 12.596,11.998 12.527,12.006 11.712 L 12.013 10.836 12.084 10.729 C 12.219 10.525,12.504 10.450,12.720 10.560 M12.756 13.583 C 12.987 13.710,13.060 14.034,12.910 14.270 C 12.794 14.454,12.557 14.545,12.362 14.481 C 12.159 14.414,12.001 14.203,12.001 14.000 C 12.001 13.805,12.173 13.568,12.342 13.531 C 12.381 13.522,12.425 13.511,12.440 13.506 C 12.494 13.489,12.656 13.528,12.756 13.583 " stroke="none" fill-rule="evenodd"></path></svg>