<svg width="16" height="16" fill="currentColor" xmlns="http://www.w3.org/2000/svg"><path d="M7.787 1.237 C 7.706 1.255,7.586 1.297,7.520 1.331 C 7.355 1.415,0.636 8.125,0.559 8.282 C 0.421 8.567,0.563 8.886,0.868 8.975 C 0.987 9.009,1.018 9.009,1.133 8.975 C 1.245 8.941,1.318 8.881,1.632 8.568 L 2.000 8.201 2.000 10.934 C 2.001 13.944,1.995 13.833,2.167 14.185 C 2.275 14.405,2.565 14.701,2.787 14.818 C 3.148 15.007,3.012 14.997,5.343 15.007 C 6.834 15.013,7.487 15.007,7.590 14.986 C 8.072 14.886,8.142 14.253,7.694 14.050 C 7.593 14.004,7.461 14.001,5.499 14.001 C 3.682 14.000,3.399 13.995,3.313 13.959 C 3.187 13.906,3.126 13.850,3.064 13.728 C 3.015 13.632,3.013 13.516,3.013 10.408 L 3.013 7.187 5.507 4.693 L 8.000 2.200 11.368 5.568 C 14.518 8.718,14.744 8.938,14.866 8.975 C 14.982 9.009,15.013 9.009,15.132 8.975 C 15.428 8.889,15.571 8.587,15.452 8.299 C 15.424 8.231,15.031 7.820,14.212 7.000 L 13.013 5.799 13.013 4.160 C 13.012 3.130,13.002 2.476,12.985 2.401 C 12.948 2.243,12.845 2.113,12.710 2.051 C 12.613 2.007,12.529 2.001,12.000 2.001 C 11.325 2.001,11.243 2.019,11.112 2.191 C 11.006 2.329,10.988 2.469,10.987 3.146 L 10.987 3.772 9.793 2.582 C 8.520 1.313,8.490 1.287,8.174 1.229 C 7.988 1.195,7.976 1.195,7.787 1.237 M12.507 9.068 C 11.943 9.213,11.466 9.601,11.215 10.120 C 11.031 10.498,11.010 10.615,10.994 11.351 L 10.980 11.996 10.852 12.014 C 10.541 12.056,10.241 12.284,10.096 12.587 L 10.013 12.760 10.013 14.000 L 10.013 15.240 10.088 15.400 C 10.186 15.610,10.391 15.816,10.597 15.911 L 10.760 15.987 13.000 15.987 L 15.240 15.987 15.403 15.911 C 15.609 15.816,15.814 15.610,15.912 15.400 L 15.987 15.240 15.987 14.000 L 15.987 12.760 15.912 12.600 C 15.771 12.297,15.456 12.056,15.148 12.014 L 15.020 11.996 15.006 11.351 C 14.990 10.615,14.969 10.498,14.785 10.120 C 14.532 9.596,14.053 9.210,13.482 9.066 C 13.202 8.996,12.783 8.997,12.507 9.068 M13.406 10.093 C 13.609 10.185,13.817 10.392,13.911 10.597 C 13.986 10.759,13.987 10.765,13.995 11.380 L 14.004 12.000 13.000 12.000 L 11.996 12.000 12.005 11.380 C 12.013 10.765,12.014 10.759,12.088 10.600 C 12.216 10.325,12.485 10.098,12.767 10.027 C 12.938 9.984,13.235 10.014,13.406 10.093 " stroke="none" fill-rule="evenodd"></path></svg>