<svg width="16" height="16" fill="currentColor" xmlns="http://www.w3.org/2000/svg"><path d="M7.787 1.237 C 7.706 1.255,7.586 1.297,7.520 1.331 C 7.355 1.415,0.636 8.125,0.559 8.282 C 0.421 8.567,0.563 8.886,0.868 8.975 C 0.987 9.009,1.018 9.009,1.133 8.975 C 1.245 8.941,1.318 8.881,1.632 8.568 L 2.000 8.201 2.000 10.934 C 2.001 13.944,1.995 13.833,2.167 14.185 C 2.275 14.405,2.565 14.701,2.787 14.818 C 3.148 15.007,3.012 14.997,5.343 15.007 C 6.834 15.013,7.487 15.007,7.590 14.986 C 8.072 14.886,8.142 14.253,7.694 14.050 C 7.593 14.004,7.461 14.001,5.499 14.001 C 3.682 14.000,3.399 13.995,3.313 13.959 C 3.187 13.906,3.126 13.850,3.064 13.728 C 3.015 13.632,3.013 13.516,3.013 10.408 L 3.013 7.187 5.507 4.693 L 8.000 2.200 11.368 5.568 C 14.518 8.718,14.744 8.938,14.866 8.975 C 14.982 9.009,15.013 9.009,15.132 8.975 C 15.428 8.889,15.571 8.587,15.452 8.299 C 15.424 8.231,15.031 7.820,14.212 7.000 L 13.013 5.799 13.013 4.160 C 13.012 3.130,13.002 2.476,12.985 2.401 C 12.948 2.243,12.845 2.113,12.710 2.051 C 12.613 2.007,12.529 2.001,12.000 2.001 C 11.325 2.001,11.243 2.019,11.112 2.191 C 11.006 2.329,10.988 2.469,10.987 3.146 L 10.987 3.772 9.793 2.582 C 8.520 1.313,8.490 1.287,8.174 1.229 C 7.988 1.195,7.976 1.195,7.787 1.237 M12.225 9.064 C 12.068 9.135,11.937 9.302,11.868 9.521 C 11.756 9.877,11.535 10.062,11.224 10.062 C 11.092 10.062,11.033 10.045,10.873 9.961 C 10.537 9.786,10.260 9.805,10.040 10.019 C 9.906 10.148,9.841 10.300,9.841 10.481 C 9.840 10.601,9.861 10.672,9.949 10.852 C 10.052 11.062,10.058 11.087,10.049 11.269 C 10.041 11.433,10.027 11.481,9.959 11.578 C 9.855 11.725,9.746 11.797,9.517 11.869 C 9.184 11.975,9.006 12.197,9.007 12.508 C 9.008 12.692,9.092 12.879,9.222 12.987 C 9.275 13.031,9.413 13.098,9.529 13.136 C 9.886 13.255,10.052 13.457,10.052 13.773 C 10.053 13.904,10.034 13.974,9.947 14.160 C 9.793 14.489,9.806 14.715,9.994 14.934 C 10.210 15.187,10.484 15.228,10.839 15.059 C 11.218 14.878,11.435 14.897,11.667 15.132 C 11.773 15.239,11.812 15.305,11.861 15.457 C 11.937 15.699,12.011 15.806,12.162 15.900 C 12.397 16.045,12.700 16.024,12.906 15.848 C 13.031 15.741,13.075 15.665,13.147 15.432 C 13.248 15.108,13.455 14.948,13.773 14.948 C 13.939 14.948,13.983 14.961,14.160 15.053 C 14.327 15.140,14.386 15.157,14.520 15.158 C 14.882 15.158,15.158 14.882,15.158 14.520 C 15.157 14.386,15.140 14.327,15.053 14.160 C 14.961 13.983,14.948 13.939,14.948 13.773 C 14.948 13.455,15.108 13.248,15.432 13.147 C 15.665 13.075,15.741 13.031,15.848 12.906 C 16.020 12.704,16.044 12.406,15.907 12.171 C 15.820 12.023,15.695 11.938,15.435 11.852 C 15.261 11.794,15.209 11.762,15.111 11.653 C 14.898 11.416,14.883 11.195,15.056 10.840 C 15.143 10.662,15.160 10.600,15.159 10.467 C 15.157 10.208,15.022 10.008,14.773 9.895 C 14.581 9.808,14.430 9.822,14.149 9.952 C 13.954 10.043,13.878 10.064,13.760 10.063 C 13.468 10.060,13.253 9.877,13.138 9.534 C 13.050 9.274,12.972 9.171,12.796 9.083 C 12.623 8.997,12.389 8.989,12.225 9.064 M12.880 11.053 C 13.571 11.237,14.055 11.918,13.990 12.616 C 13.945 13.098,13.705 13.496,13.299 13.762 C 12.465 14.307,11.312 13.855,11.053 12.880 C 11.003 12.690,11.003 12.319,11.053 12.125 C 11.184 11.622,11.611 11.190,12.110 11.055 C 12.297 11.005,12.695 11.004,12.880 11.053 " stroke="none" fill-rule="evenodd"></path></svg>