<svg width="16" height="16" fill="currentColor" xmlns="http://www.w3.org/2000/svg"><path d="M3.669 2.028 C 2.991 2.143,2.371 2.651,2.135 3.283 C 2.008 3.623,2.001 3.717,2.000 5.154 L 2.000 6.508 2.500 6.501 L 3.000 6.493 3.013 5.107 L 3.027 3.720 3.099 3.572 C 3.192 3.384,3.384 3.192,3.572 3.099 L 3.720 3.027 8.000 3.027 L 12.280 3.027 12.430 3.100 C 12.608 3.188,12.833 3.416,12.915 3.593 C 12.972 3.717,12.974 3.750,12.987 5.107 L 13.000 6.493 13.500 6.501 L 14.000 6.508 14.000 5.159 C 14.000 3.689,13.993 3.597,13.844 3.233 C 13.666 2.795,13.309 2.422,12.864 2.208 C 12.426 1.997,12.861 2.015,8.080 2.010 C 5.726 2.008,3.741 2.016,3.669 2.028 M0.440 7.506 C 0.425 7.511,0.381 7.522,0.342 7.531 C 0.173 7.568,0.001 7.805,0.001 8.000 C 0.001 8.114,0.078 8.286,0.164 8.365 C 0.329 8.517,-0.250 8.507,8.006 8.506 C 15.319 8.506,15.590 8.504,15.693 8.456 C 15.822 8.397,15.904 8.312,15.959 8.180 C 16.056 7.948,15.954 7.680,15.720 7.551 C 15.646 7.510,15.057 7.506,8.053 7.502 C 3.881 7.499,0.455 7.501,0.440 7.506 M2.000 10.841 C 2.000 12.311,2.007 12.403,2.156 12.767 C 2.347 13.238,2.762 13.653,3.233 13.844 C 3.633 14.007,3.415 14.000,8.000 14.000 C 12.584 14.000,12.367 14.007,12.766 13.845 C 13.233 13.654,13.654 13.233,13.845 12.766 C 13.993 12.403,14.000 12.311,14.000 10.841 L 14.000 9.492 13.500 9.499 L 13.000 9.507 12.987 10.893 L 12.973 12.280 12.901 12.428 C 12.757 12.720,12.468 12.934,12.145 12.987 C 11.931 13.022,4.069 13.022,3.855 12.987 C 3.532 12.934,3.243 12.720,3.099 12.428 L 3.027 12.280 3.013 10.893 L 3.000 9.507 2.500 9.499 L 2.000 9.492 2.000 10.841 " stroke="none" fill-rule="evenodd"></path></svg>