<svg width="16" height="16" fill="currentColor" xmlns="http://www.w3.org/2000/svg"><path d="M4.121 0.030 C 3.890 0.063,3.696 0.124,3.444 0.242 C 2.515 0.675,1.952 1.613,2.008 2.635 C 2.065 3.688,2.753 4.566,3.773 4.888 C 5.096 5.305,6.531 4.518,6.906 3.169 C 7.075 2.561,7.011 1.940,6.720 1.360 C 6.248 0.420,5.183 -0.125,4.121 0.030 M10.786 6.557 C 10.695 6.598,10.408 6.949,8.817 8.969 C 7.793 10.270,6.946 11.333,6.935 11.333 C 6.924 11.333,6.317 10.710,5.587 9.948 C 4.716 9.039,4.232 8.553,4.179 8.535 C 3.984 8.467,3.779 8.518,3.635 8.670 C 3.589 8.720,2.751 9.714,1.775 10.880 L -0.001 13.000 0.006 14.120 L 0.013 15.240 0.089 15.403 C 0.184 15.609,0.390 15.814,0.600 15.912 L 0.760 15.987 8.000 15.987 L 15.240 15.987 15.392 15.915 C 15.597 15.819,15.718 15.720,15.825 15.560 C 16.007 15.288,16.000 15.389,15.999 12.815 L 15.998 10.493 13.624 8.533 C 12.318 7.455,11.223 6.559,11.191 6.541 C 11.106 6.493,10.909 6.501,10.786 6.557 " stroke="none" fill-rule="evenodd"></path></svg>