<svg width="16" height="16" fill="currentColor" xmlns="http://www.w3.org/2000/svg"><path d="M4.594 3.054 C 4.387 3.110,4.163 3.232,4.001 3.378 C 3.921 3.449,2.996 4.583,1.944 5.898 C 0.217 8.056,0.029 8.300,0.013 8.407 C -0.005 8.526,0.371 11.659,0.430 11.877 C 0.560 12.362,0.939 12.762,1.425 12.927 L 1.640 13.000 8.000 13.000 L 14.360 13.000 14.575 12.927 C 15.059 12.763,15.440 12.360,15.571 11.876 C 15.628 11.663,16.004 8.523,15.986 8.404 C 15.971 8.301,15.770 8.040,14.056 5.898 C 13.004 4.583,12.079 3.449,11.999 3.378 C 11.833 3.228,11.612 3.110,11.395 3.053 C 11.173 2.995,4.809 2.997,4.594 3.054 M11.216 4.051 C 11.354 4.113,11.304 4.054,13.009 6.187 L 14.448 7.987 12.151 8.000 C 10.079 8.012,9.845 8.018,9.773 8.057 C 9.597 8.155,9.494 8.337,9.493 8.552 C 9.491 9.070,9.145 9.605,8.662 9.836 C 8.195 10.059,7.805 10.059,7.338 9.836 C 6.855 9.605,6.509 9.070,6.507 8.552 C 6.506 8.337,6.403 8.155,6.227 8.057 C 6.155 8.018,5.921 8.012,3.849 8.000 L 1.552 7.987 2.991 6.187 C 3.783 5.197,4.485 4.322,4.553 4.243 C 4.779 3.979,4.460 4.001,8.000 4.001 C 10.970 4.001,11.111 4.003,11.216 4.051 M5.558 9.047 C 5.688 9.497,5.819 9.767,6.044 10.052 C 6.568 10.716,7.442 11.084,8.260 10.986 C 8.940 10.905,9.546 10.571,9.956 10.052 C 10.181 9.767,10.312 9.497,10.442 9.047 C 10.450 9.020,10.923 9.013,12.693 9.013 L 14.934 9.013 14.919 9.113 C 14.911 9.168,14.835 9.768,14.750 10.445 C 14.602 11.630,14.593 11.681,14.522 11.784 C 14.480 11.844,14.398 11.915,14.335 11.946 C 14.223 12.000,14.205 12.000,8.000 12.000 L 1.777 12.000 1.660 11.943 C 1.591 11.910,1.515 11.844,1.474 11.782 C 1.409 11.684,1.394 11.595,1.250 10.445 C 1.165 9.768,1.089 9.168,1.081 9.113 L 1.066 9.013 3.307 9.013 C 5.077 9.013,5.550 9.020,5.558 9.047 " stroke="none" fill-rule="evenodd"></path></svg>