<svg width="16" height="16" fill="currentColor" xmlns="http://www.w3.org/2000/svg"><path d="M5.598 1.229 C 5.300 1.262,4.962 1.486,4.827 1.741 C 4.794 1.803,4.555 2.627,4.297 3.572 L 3.827 5.290 3.387 5.375 C 2.550 5.537,1.935 5.720,1.541 5.925 C 0.230 6.605,1.388 7.379,4.301 7.772 C 5.528 7.937,6.372 7.986,8.000 7.986 C 9.628 7.986,10.472 7.937,11.699 7.772 C 13.742 7.497,14.984 7.022,14.991 6.514 C 14.993 6.376,14.935 6.270,14.787 6.139 C 14.456 5.848,13.723 5.590,12.613 5.375 L 12.173 5.290 11.729 3.665 C 11.485 2.771,11.265 1.978,11.241 1.901 C 11.159 1.638,10.909 1.388,10.620 1.280 C 10.412 1.202,10.171 1.208,9.667 1.304 C 8.829 1.462,8.669 1.479,8.000 1.479 C 7.341 1.479,7.166 1.461,6.400 1.316 C 5.923 1.225,5.776 1.210,5.598 1.229 M6.187 5.705 C 7.399 5.783,9.093 5.767,10.340 5.666 C 11.095 5.605,11.090 5.604,11.178 5.703 C 11.286 5.824,11.269 5.980,11.140 6.065 C 11.069 6.111,10.528 6.166,9.640 6.216 C 8.123 6.303,5.075 6.206,4.860 6.065 C 4.795 6.022,4.747 5.926,4.747 5.840 C 4.747 5.771,4.870 5.632,4.941 5.622 C 4.973 5.617,5.162 5.627,5.360 5.644 C 5.558 5.661,5.930 5.689,6.187 5.705 M1.730 9.090 C 1.546 9.206,1.455 9.443,1.519 9.638 C 1.585 9.838,1.796 9.998,1.995 9.999 C 2.067 10.000,2.081 10.009,2.069 10.047 C 2.014 10.229,2.001 10.417,2.001 11.040 C 2.001 11.626,2.009 11.788,2.050 11.987 C 2.379 13.582,4.090 14.445,5.565 13.761 C 6.371 13.387,6.896 12.619,6.994 11.669 L 7.027 11.352 7.134 11.314 C 7.638 11.133,8.362 11.133,8.866 11.314 L 8.973 11.352 9.006 11.669 C 9.043 12.030,9.133 12.347,9.280 12.639 C 9.921 13.915,11.544 14.383,12.776 13.646 C 13.381 13.284,13.806 12.684,13.950 11.987 C 13.991 11.788,13.999 11.626,13.999 11.040 C 13.999 10.417,13.986 10.229,13.931 10.047 C 13.919 10.009,13.933 10.000,14.005 9.999 C 14.204 9.998,14.415 9.838,14.481 9.638 C 14.545 9.443,14.454 9.206,14.270 9.090 L 14.150 9.013 12.214 9.013 C 10.071 9.013,10.128 9.009,9.789 9.188 C 9.586 9.294,9.366 9.498,9.237 9.698 C 9.153 9.827,9.013 10.189,9.013 10.274 C 9.013 10.307,8.981 10.305,8.807 10.263 C 8.294 10.140,7.708 10.140,7.198 10.262 L 6.997 10.310 6.952 10.141 C 6.814 9.613,6.395 9.189,5.879 9.054 C 5.745 9.019,5.437 9.013,3.786 9.013 L 1.850 9.013 1.730 9.090 M5.693 10.050 C 5.822 10.110,5.904 10.194,5.959 10.326 C 6.016 10.462,6.017 11.555,5.961 11.820 C 5.905 12.085,5.753 12.356,5.548 12.560 C 5.248 12.857,4.914 12.994,4.494 12.993 C 3.947 12.991,3.437 12.686,3.188 12.211 C 3.030 11.911,3.013 11.802,3.013 11.047 C 3.013 10.436,3.018 10.362,3.064 10.272 C 3.125 10.152,3.186 10.095,3.307 10.042 C 3.385 10.009,3.579 10.002,4.493 10.002 C 5.501 10.001,5.595 10.005,5.693 10.050 M12.687 10.041 C 12.813 10.094,12.874 10.150,12.936 10.272 C 12.982 10.362,12.987 10.436,12.987 11.047 C 12.987 11.802,12.970 11.911,12.812 12.211 C 12.434 12.931,11.520 13.204,10.787 12.818 C 10.436 12.633,10.123 12.215,10.039 11.820 C 9.983 11.555,9.984 10.462,10.041 10.326 C 10.096 10.194,10.178 10.110,10.307 10.050 C 10.405 10.005,10.501 10.001,11.501 10.001 C 12.420 10.000,12.604 10.006,12.687 10.041 " stroke="none" fill-rule="evenodd"></path></svg>