<svg width="16" height="16" fill="currentColor" xmlns="http://www.w3.org/2000/svg"><path d="M1.669 0.028 C 0.992 0.142,0.371 0.651,0.135 1.283 C -0.006 1.659,0.001 1.324,0.000 7.994 C -0.000 14.784,-0.010 14.361,0.156 14.767 C 0.347 15.238,0.762 15.653,1.233 15.844 C 1.639 16.010,1.217 16.000,8.000 16.000 C 14.782 16.000,14.361 16.010,14.766 15.845 C 15.233 15.654,15.654 15.233,15.845 14.766 C 16.010 14.361,16.000 14.782,16.000 8.000 C 16.000 1.217,16.010 1.639,15.844 1.233 C 15.666 0.795,15.309 0.422,14.864 0.208 C 14.422 -0.005,15.102 0.015,8.080 0.010 C 4.626 0.008,1.741 0.016,1.669 0.028 M14.407 1.085 C 14.584 1.167,14.812 1.392,14.900 1.570 L 14.973 1.720 14.980 7.946 C 14.988 14.846,15.001 14.319,14.811 14.576 C 14.691 14.738,14.526 14.866,14.341 14.942 L 14.200 15.000 8.000 15.000 L 1.800 15.000 1.659 14.942 C 1.381 14.828,1.152 14.596,1.063 14.338 C 1.018 14.207,1.015 13.881,1.015 8.000 C 1.015 2.119,1.018 1.793,1.063 1.662 C 1.154 1.399,1.399 1.154,1.662 1.063 C 1.793 1.017,2.106 1.015,8.040 1.021 L 14.280 1.027 14.407 1.085 M7.787 3.530 C 7.250 3.650,6.915 4.164,7.026 4.697 C 7.092 5.017,7.293 5.267,7.595 5.409 C 7.726 5.470,7.781 5.480,8.000 5.480 C 8.219 5.480,8.274 5.470,8.405 5.409 C 8.707 5.267,8.908 5.017,8.974 4.697 C 9.088 4.150,8.731 3.625,8.174 3.522 C 7.988 3.488,7.976 3.488,7.787 3.530 M7.765 6.733 C 7.160 6.810,6.658 6.880,6.650 6.887 C 6.643 6.895,6.619 6.977,6.597 7.069 C 6.569 7.193,6.566 7.241,6.589 7.255 C 6.606 7.265,6.711 7.288,6.823 7.306 C 7.064 7.344,7.238 7.414,7.278 7.489 C 7.294 7.519,7.307 7.590,7.307 7.647 C 7.307 7.703,7.130 8.571,6.914 9.575 C 6.529 11.367,6.522 11.406,6.521 11.733 C 6.520 12.044,6.525 12.076,6.591 12.200 C 6.679 12.366,6.750 12.434,6.920 12.512 C 7.037 12.566,7.095 12.573,7.387 12.573 C 7.876 12.573,8.271 12.448,8.626 12.180 C 8.820 12.033,8.846 11.989,8.892 11.713 L 8.911 11.603 8.764 11.683 C 8.573 11.786,8.290 11.846,8.147 11.814 C 7.986 11.777,7.920 11.684,7.920 11.496 C 7.920 11.396,8.096 10.512,8.413 9.024 C 8.684 7.749,8.912 6.680,8.920 6.647 C 8.929 6.608,8.923 6.588,8.901 6.590 C 8.882 6.591,8.371 6.656,7.765 6.733 " stroke="none" fill-rule="evenodd"></path></svg>