<svg width="16" height="16" fill="currentColor" xmlns="http://www.w3.org/2000/svg"><path d="M7.467 0.017 C 5.118 0.192,3.024 1.327,1.608 3.193 C 0.799 4.260,0.296 5.477,0.073 6.906 C -0.009 7.429,-0.009 8.571,0.073 9.094 C 0.415 11.288,1.476 13.089,3.195 14.393 C 4.257 15.199,5.481 15.705,6.906 15.927 C 7.429 16.009,8.571 16.009,9.094 15.927 C 11.038 15.624,12.690 14.748,13.930 13.362 C 15.030 12.133,15.665 10.775,15.927 9.094 C 16.009 8.571,16.009 7.429,15.927 6.906 C 15.705 5.481,15.199 4.257,14.393 3.195 C 13.070 1.452,11.180 0.355,9.000 0.066 C 8.688 0.025,7.760 -0.005,7.467 0.017 M9.040 1.078 C 11.831 1.511,14.104 3.571,14.781 6.281 C 14.942 6.924,14.973 7.204,14.973 8.000 C 14.973 8.555,14.962 8.775,14.924 9.027 C 14.474 11.939,12.308 14.238,9.437 14.850 C 8.548 15.040,7.452 15.040,6.563 14.850 C 3.952 14.294,1.876 12.308,1.227 9.747 C 1.059 9.083,1.027 8.807,1.027 8.000 C 1.027 7.193,1.059 6.917,1.227 6.253 C 1.847 3.807,3.806 1.848,6.253 1.227 C 6.473 1.171,6.797 1.106,6.973 1.083 C 7.149 1.059,7.329 1.035,7.373 1.029 C 7.574 1.002,8.774 1.037,9.040 1.078 M7.787 3.530 C 7.250 3.650,6.915 4.164,7.026 4.697 C 7.092 5.017,7.293 5.267,7.595 5.409 C 7.726 5.470,7.781 5.480,8.000 5.480 C 8.219 5.480,8.274 5.470,8.405 5.409 C 8.707 5.267,8.908 5.017,8.974 4.697 C 9.088 4.150,8.731 3.625,8.174 3.522 C 7.988 3.488,7.976 3.488,7.787 3.530 M7.765 6.733 C 7.160 6.810,6.658 6.880,6.650 6.887 C 6.643 6.895,6.619 6.977,6.597 7.069 C 6.569 7.193,6.566 7.241,6.589 7.255 C 6.606 7.265,6.711 7.288,6.823 7.306 C 7.064 7.344,7.238 7.414,7.278 7.489 C 7.294 7.519,7.307 7.590,7.307 7.647 C 7.307 7.703,7.130 8.571,6.914 9.575 C 6.529 11.367,6.522 11.406,6.521 11.733 C 6.520 12.044,6.525 12.076,6.591 12.200 C 6.679 12.366,6.750 12.434,6.920 12.512 C 7.037 12.566,7.095 12.573,7.387 12.573 C 7.876 12.573,8.271 12.448,8.626 12.180 C 8.820 12.033,8.846 11.989,8.892 11.713 L 8.911 11.603 8.764 11.683 C 8.573 11.786,8.290 11.846,8.147 11.814 C 7.986 11.777,7.920 11.684,7.920 11.496 C 7.920 11.396,8.096 10.512,8.413 9.024 C 8.684 7.749,8.912 6.680,8.920 6.647 C 8.929 6.608,8.923 6.588,8.901 6.590 C 8.882 6.591,8.371 6.656,7.765 6.733 " stroke="none" fill-rule="evenodd"></path></svg>