<svg width="16" height="16" fill="currentColor" xmlns="http://www.w3.org/2000/svg"><path d="M2.689 0.027 C 2.089 0.129,1.582 0.474,1.277 0.988 C 1.053 1.366,0.979 1.770,0.992 2.547 L 1.000 3.000 1.500 3.007 L 2.000 3.015 2.000 2.460 C 2.000 1.818,2.027 1.666,2.181 1.441 C 2.301 1.264,2.456 1.143,2.653 1.069 L 2.802 1.013 8.000 1.013 L 13.198 1.013 13.347 1.069 C 13.544 1.143,13.699 1.264,13.819 1.441 C 14.014 1.726,14.000 1.227,14.000 8.000 C 14.000 14.717,14.011 14.266,13.836 14.539 C 13.685 14.775,13.448 14.931,13.161 14.984 C 12.940 15.025,3.060 15.025,2.839 14.984 C 2.552 14.931,2.315 14.775,2.164 14.539 C 2.027 14.327,2.000 14.161,2.000 13.554 L 2.000 13.013 1.493 13.013 L 0.987 13.013 0.987 13.487 C 0.987 13.747,0.999 14.065,1.014 14.193 C 1.110 15.034,1.638 15.668,2.454 15.924 L 2.653 15.987 8.000 15.987 L 13.347 15.987 13.546 15.924 C 14.362 15.668,14.890 15.034,14.986 14.193 C 15.023 13.874,15.023 2.126,14.986 1.807 C 14.890 0.966,14.357 0.326,13.542 0.074 L 13.347 0.014 8.080 0.010 C 5.183 0.008,2.757 0.015,2.689 0.027 M1.290 4.051 C 1.069 4.152,0.988 4.341,0.987 4.767 L 0.987 5.013 0.679 5.013 C 0.425 5.013,0.353 5.023,0.268 5.066 C 0.075 5.165,-0.022 5.361,0.012 5.587 C 0.035 5.744,0.197 5.932,0.343 5.973 C 0.401 5.989,0.873 6.000,1.520 5.999 C 2.728 5.999,2.745 5.996,2.888 5.809 C 3.089 5.545,2.986 5.155,2.685 5.042 C 2.644 5.026,2.473 5.013,2.305 5.013 L 2.000 5.013 2.000 4.727 C 2.000 4.380,1.974 4.277,1.860 4.167 C 1.690 4.002,1.488 3.961,1.290 4.051 M7.800 4.050 C 7.554 4.164,7.493 4.307,7.493 4.772 C 7.493 4.964,7.489 5.120,7.483 5.120 C 7.478 5.120,7.338 5.043,7.173 4.948 C 6.811 4.740,6.706 4.717,6.507 4.802 C 6.185 4.941,6.108 5.358,6.359 5.606 C 6.400 5.646,6.557 5.748,6.709 5.833 C 6.861 5.917,6.986 5.993,6.986 6.000 C 6.986 6.007,6.935 6.042,6.873 6.077 C 6.440 6.320,6.339 6.390,6.280 6.493 C 6.196 6.641,6.180 6.730,6.215 6.861 C 6.257 7.019,6.361 7.144,6.501 7.206 C 6.685 7.288,6.802 7.262,7.166 7.058 L 7.480 6.883 7.493 7.261 C 7.508 7.662,7.529 7.738,7.658 7.859 C 7.740 7.935,7.897 8.000,8.000 8.000 C 8.103 8.000,8.260 7.935,8.342 7.859 C 8.472 7.738,8.492 7.662,8.507 7.260 L 8.520 6.879 8.792 7.037 C 8.942 7.123,9.103 7.207,9.149 7.224 C 9.420 7.318,9.707 7.154,9.785 6.861 C 9.820 6.730,9.804 6.641,9.720 6.493 C 9.661 6.390,9.560 6.320,9.127 6.077 C 9.065 6.042,9.014 6.007,9.014 6.000 C 9.014 5.993,9.112 5.933,9.232 5.867 C 9.650 5.637,9.731 5.562,9.788 5.355 C 9.849 5.131,9.680 4.839,9.453 4.776 C 9.247 4.719,9.172 4.742,8.761 4.985 C 8.635 5.059,8.526 5.120,8.519 5.120 C 8.512 5.120,8.506 4.961,8.506 4.767 C 8.506 4.480,8.496 4.393,8.456 4.307 C 8.336 4.045,8.051 3.934,7.800 4.050 M1.293 7.044 C 1.206 7.093,1.091 7.208,1.046 7.293 C 1.017 7.349,1.000 7.470,0.992 7.687 L 0.980 8.000 0.697 8.001 C 0.369 8.001,0.250 8.041,0.115 8.195 C -0.125 8.468,0.040 8.909,0.410 8.986 C 0.508 9.006,0.892 9.014,1.591 9.008 C 2.505 9.001,2.636 8.995,2.709 8.955 C 2.819 8.894,2.955 8.737,2.975 8.646 C 2.984 8.606,2.995 8.560,3.000 8.543 C 3.019 8.481,2.954 8.278,2.888 8.191 C 2.775 8.043,2.646 8.001,2.300 8.001 L 2.000 8.000 2.000 7.706 C 2.000 7.307,1.944 7.174,1.728 7.064 C 1.617 7.007,1.380 6.997,1.293 7.044 M5.293 9.044 C 5.218 9.086,5.094 9.204,5.060 9.266 C 4.930 9.507,5.040 9.836,5.290 9.949 C 5.395 9.997,5.518 9.999,8.000 9.999 C 10.482 9.999,10.605 9.997,10.710 9.949 C 10.960 9.836,11.070 9.507,10.940 9.266 C 10.896 9.186,10.769 9.073,10.685 9.042 C 10.577 9.001,5.367 9.004,5.293 9.044 M1.290 10.051 C 1.069 10.152,0.988 10.341,0.987 10.767 L 0.987 11.013 0.679 11.013 C 0.425 11.013,0.353 11.023,0.268 11.066 C 0.075 11.165,-0.022 11.361,0.012 11.587 C 0.035 11.744,0.197 11.932,0.343 11.973 C 0.401 11.989,0.873 12.000,1.520 11.999 C 2.728 11.999,2.745 11.996,2.888 11.809 C 3.089 11.545,2.986 11.155,2.685 11.042 C 2.644 11.026,2.473 11.013,2.305 11.013 L 2.000 11.013 2.000 10.727 C 2.000 10.380,1.974 10.277,1.860 10.167 C 1.690 10.002,1.488 9.961,1.290 10.051 M5.293 11.044 C 5.218 11.086,5.094 11.204,5.060 11.266 C 4.930 11.507,5.040 11.836,5.290 11.949 C 5.395 11.997,5.518 11.999,8.000 11.999 C 10.482 11.999,10.605 11.997,10.710 11.949 C 10.960 11.836,11.070 11.507,10.940 11.266 C 10.896 11.186,10.769 11.073,10.685 11.042 C 10.577 11.001,5.367 11.004,5.293 11.044 " stroke="none" fill-rule="evenodd"></path></svg>