<svg width="16" height="16" fill="currentColor" xmlns="http://www.w3.org/2000/svg"><path d="M2.689 0.027 C 2.089 0.129,1.582 0.474,1.277 0.988 C 1.053 1.366,0.979 1.770,0.992 2.547 L 1.000 3.000 1.500 3.007 L 2.000 3.015 2.000 2.460 C 2.000 1.818,2.027 1.666,2.181 1.441 C 2.301 1.264,2.456 1.143,2.653 1.069 C 2.798 1.015,2.846 1.013,4.401 1.013 L 6.000 1.013 6.001 4.553 C 6.001 7.930,6.003 8.098,6.050 8.201 C 6.143 8.405,6.361 8.528,6.569 8.495 C 6.648 8.483,7.012 8.278,7.834 7.783 C 8.469 7.401,9.003 7.094,9.021 7.101 C 9.039 7.108,9.556 7.416,10.170 7.785 C 10.785 8.154,11.337 8.469,11.397 8.484 C 11.611 8.541,11.852 8.417,11.950 8.201 C 11.997 8.098,11.999 7.930,11.999 4.553 L 12.000 1.013 12.599 1.013 C 13.141 1.013,13.212 1.019,13.347 1.069 C 13.544 1.143,13.699 1.264,13.819 1.441 C 14.014 1.726,14.000 1.227,14.000 8.000 C 14.000 14.717,14.011 14.266,13.836 14.539 C 13.685 14.775,13.448 14.931,13.161 14.984 C 12.940 15.025,3.060 15.025,2.839 14.984 C 2.552 14.931,2.315 14.775,2.164 14.539 C 2.027 14.327,2.000 14.161,2.000 13.554 L 2.000 13.013 1.493 13.013 L 0.987 13.013 0.987 13.487 C 0.987 13.747,0.999 14.065,1.014 14.193 C 1.110 15.034,1.638 15.668,2.454 15.924 L 2.653 15.987 8.000 15.987 L 13.347 15.987 13.546 15.924 C 14.362 15.668,14.890 15.034,14.986 14.193 C 15.023 13.874,15.023 2.126,14.986 1.807 C 14.890 0.966,14.357 0.326,13.542 0.074 L 13.347 0.014 8.080 0.010 C 5.183 0.008,2.757 0.015,2.689 0.027 M10.987 4.053 C 10.987 5.725,10.979 7.093,10.970 7.093 C 10.961 7.093,10.550 6.850,10.057 6.553 L 9.160 6.013 8.999 6.013 L 8.838 6.013 7.942 6.553 C 7.450 6.850,7.039 7.093,7.030 7.093 C 7.021 7.093,7.013 5.725,7.013 4.053 L 7.013 1.013 9.000 1.013 L 10.987 1.013 10.987 4.053 M1.290 4.051 C 1.069 4.152,0.988 4.341,0.987 4.767 L 0.987 5.013 0.679 5.013 C 0.425 5.013,0.353 5.023,0.268 5.066 C 0.075 5.165,-0.022 5.361,0.012 5.587 C 0.035 5.744,0.197 5.932,0.343 5.973 C 0.401 5.989,0.873 6.000,1.520 5.999 C 2.728 5.999,2.745 5.996,2.888 5.809 C 3.089 5.545,2.986 5.155,2.685 5.042 C 2.644 5.026,2.473 5.013,2.305 5.013 L 2.000 5.013 2.000 4.727 C 2.000 4.380,1.974 4.277,1.860 4.167 C 1.690 4.002,1.488 3.961,1.290 4.051 M1.293 7.044 C 1.206 7.093,1.091 7.208,1.046 7.293 C 1.017 7.349,1.000 7.470,0.992 7.687 L 0.980 8.000 0.697 8.001 C 0.369 8.001,0.250 8.041,0.115 8.195 C -0.125 8.468,0.040 8.909,0.410 8.986 C 0.508 9.006,0.892 9.014,1.591 9.008 C 2.505 9.001,2.636 8.995,2.709 8.955 C 2.819 8.894,2.955 8.737,2.975 8.646 C 2.984 8.606,2.995 8.560,3.000 8.543 C 3.019 8.481,2.954 8.278,2.888 8.191 C 2.775 8.043,2.646 8.001,2.300 8.001 L 2.000 8.000 2.000 7.706 C 2.000 7.307,1.944 7.174,1.728 7.064 C 1.617 7.007,1.380 6.997,1.293 7.044 M1.290 10.051 C 1.069 10.152,0.988 10.341,0.987 10.767 L 0.987 11.013 0.679 11.013 C 0.425 11.013,0.353 11.023,0.268 11.066 C 0.075 11.165,-0.022 11.361,0.012 11.587 C 0.035 11.744,0.197 11.932,0.343 11.973 C 0.401 11.989,0.873 12.000,1.520 11.999 C 2.728 11.999,2.745 11.996,2.888 11.809 C 3.089 11.545,2.986 11.155,2.685 11.042 C 2.644 11.026,2.473 11.013,2.305 11.013 L 2.000 11.013 2.000 10.727 C 2.000 10.380,1.974 10.277,1.860 10.167 C 1.690 10.002,1.488 9.961,1.290 10.051 " stroke="none" fill-rule="evenodd"></path></svg>