<svg width="16" height="16" fill="currentColor" xmlns="http://www.w3.org/2000/svg"><path d="M2.227 0.019 C 1.886 0.067,1.533 0.222,1.246 0.450 C 0.909 0.718,0.671 1.094,0.560 1.534 C 0.506 1.746,0.506 1.799,0.513 8.067 L 0.520 14.387 0.583 14.573 C 0.816 15.263,1.319 15.747,2.000 15.938 C 2.165 15.984,2.443 15.987,8.000 15.987 C 13.557 15.987,13.835 15.984,14.000 15.938 C 14.688 15.745,15.202 15.245,15.417 14.559 L 15.480 14.360 15.480 8.000 L 15.480 1.640 15.417 1.441 C 15.204 0.761,14.704 0.270,14.013 0.063 C 13.861 0.017,13.560 0.014,8.080 0.011 C 4.905 0.009,2.271 0.013,2.227 0.019 M4.912 2.098 C 5.131 2.202,5.299 2.365,5.402 2.575 L 5.480 2.733 5.480 6.493 L 5.480 10.253 5.409 10.405 C 5.268 10.706,5.018 10.907,4.699 10.974 C 4.454 11.026,3.546 11.026,3.301 10.974 C 2.982 10.907,2.732 10.706,2.591 10.405 L 2.520 10.253 2.520 6.493 L 2.520 2.733 2.598 2.575 C 2.729 2.308,2.988 2.098,3.273 2.028 C 3.328 2.014,3.679 2.006,4.053 2.008 L 4.733 2.013 4.912 2.098 M8.912 2.098 C 9.131 2.202,9.299 2.365,9.402 2.575 L 9.480 2.733 9.480 4.493 L 9.480 6.253 9.409 6.405 C 9.268 6.706,9.018 6.907,8.699 6.974 C 8.454 7.026,7.546 7.026,7.301 6.974 C 6.982 6.907,6.732 6.706,6.591 6.405 L 6.520 6.253 6.520 4.493 L 6.520 2.733 6.598 2.575 C 6.729 2.308,6.988 2.098,7.273 2.028 C 7.328 2.014,7.679 2.006,8.053 2.008 L 8.733 2.013 8.912 2.098 M12.912 2.098 C 13.131 2.202,13.299 2.365,13.402 2.575 L 13.480 2.733 13.488 7.920 C 13.494 11.654,13.488 13.145,13.467 13.245 C 13.427 13.428,13.260 13.681,13.101 13.799 C 12.864 13.974,12.720 14.000,12.000 14.000 C 11.280 14.000,11.136 13.974,10.899 13.799 C 10.740 13.681,10.573 13.428,10.533 13.245 C 10.512 13.145,10.506 11.654,10.512 7.920 L 10.520 2.733 10.598 2.575 C 10.729 2.308,10.988 2.098,11.273 2.028 C 11.328 2.014,11.679 2.006,12.053 2.008 L 12.733 2.013 12.912 2.098 " stroke="none" fill-rule="evenodd"></path></svg>