<svg width="16" height="16" fill="currentColor" xmlns="http://www.w3.org/2000/svg"><path d="M4.280 1.058 C 4.156 1.123,4.103 1.177,4.050 1.293 C 4.003 1.396,4.001 1.667,4.001 8.480 C 4.000 13.168,4.009 15.593,4.027 15.657 C 4.043 15.715,4.101 15.797,4.171 15.862 C 4.377 16.051,4.664 16.042,4.857 15.839 C 4.974 15.716,5.013 15.566,5.013 15.239 L 5.013 15.013 8.000 15.013 L 10.987 15.013 10.987 15.239 C 10.987 15.566,11.026 15.716,11.143 15.839 C 11.336 16.042,11.623 16.051,11.829 15.862 C 11.899 15.797,11.957 15.715,11.973 15.657 C 11.991 15.593,12.000 13.168,12.000 8.486 C 12.000 0.861,12.008 1.315,11.872 1.165 C 11.747 1.026,11.445 0.968,11.285 1.051 C 11.201 1.095,11.088 1.212,11.038 1.307 C 11.018 1.346,10.998 1.502,10.992 1.687 L 10.980 2.000 8.000 2.000 L 5.020 2.000 5.008 1.687 C 4.995 1.349,4.970 1.269,4.836 1.142 C 4.794 1.102,4.726 1.057,4.685 1.042 C 4.576 1.001,4.373 1.009,4.280 1.058 M10.987 4.013 L 10.987 5.013 8.000 5.013 L 5.013 5.013 5.013 4.013 L 5.013 3.013 8.000 3.013 L 10.987 3.013 10.987 4.013 M10.987 7.000 L 10.987 8.000 8.000 8.000 L 5.013 8.000 5.013 7.000 L 5.013 6.000 8.000 6.000 L 10.987 6.000 10.987 7.000 M10.987 10.013 L 10.987 11.013 8.000 11.013 L 5.013 11.013 5.013 10.013 L 5.013 9.013 8.000 9.013 L 10.987 9.013 10.987 10.013 M10.987 13.000 L 10.987 14.000 8.000 14.000 L 5.013 14.000 5.013 13.000 L 5.013 12.000 8.000 12.000 L 10.987 12.000 10.987 13.000 " stroke="none" fill-rule="evenodd"></path></svg>