<svg width="16" height="16" fill="currentColor" xmlns="http://www.w3.org/2000/svg"><path d="M2.167 2.040 C 1.664 2.150,1.227 2.561,1.049 3.093 C 1.003 3.233,1.000 3.451,0.993 7.620 L 0.985 12.000 8.000 12.000 L 15.015 12.000 15.007 7.620 C 15.000 3.451,14.997 3.233,14.951 3.093 C 14.771 2.555,14.335 2.148,13.820 2.039 C 13.559 1.984,2.422 1.985,2.167 2.040 M13.728 3.064 C 13.850 3.126,13.906 3.187,13.959 3.313 C 13.995 3.400,14.000 3.852,14.000 7.212 L 14.000 11.013 8.000 11.013 L 2.000 11.013 2.001 7.207 C 2.001 3.570,2.003 3.395,2.050 3.293 C 2.103 3.177,2.156 3.123,2.280 3.058 C 2.352 3.020,2.904 3.015,7.994 3.014 C 13.472 3.013,13.632 3.015,13.728 3.064 M0.010 12.660 C 0.076 13.236,0.479 13.733,1.035 13.925 L 1.213 13.987 8.000 13.987 L 14.787 13.987 14.965 13.925 C 15.521 13.733,15.924 13.236,15.990 12.660 L 16.007 12.507 8.000 12.507 L -0.007 12.507 0.010 12.660 " stroke="none" fill-rule="evenodd"></path></svg>