<svg width="16" height="16" fill="currentColor" xmlns="http://www.w3.org/2000/svg"><path d="M0.767 0.029 C 0.486 0.095,0.229 0.309,0.096 0.587 L 0.013 0.760 0.013 2.000 L 0.013 3.240 0.089 3.403 C 0.184 3.609,0.390 3.814,0.600 3.912 L 0.760 3.987 3.873 3.994 L 6.987 4.001 6.987 7.886 L 6.987 11.771 6.647 11.435 C 6.460 11.251,6.268 11.081,6.221 11.057 C 6.081 10.985,5.871 11.000,5.732 11.090 C 5.552 11.207,4.597 12.182,4.548 12.299 C 4.500 12.414,4.494 12.577,4.535 12.685 C 4.576 12.797,7.668 15.887,7.800 15.949 C 7.935 16.012,8.065 16.012,8.200 15.949 C 8.332 15.887,11.424 12.797,11.465 12.685 C 11.506 12.577,11.500 12.414,11.452 12.299 C 11.403 12.182,10.448 11.207,10.268 11.090 C 10.129 11.000,9.919 10.985,9.779 11.057 C 9.732 11.081,9.540 11.251,9.353 11.435 L 9.013 11.771 9.013 7.886 L 9.013 4.001 12.127 3.994 L 15.240 3.987 15.400 3.912 C 15.610 3.814,15.816 3.609,15.911 3.403 L 15.987 3.240 15.987 2.000 L 15.987 0.760 15.911 0.597 C 15.816 0.391,15.610 0.186,15.400 0.088 L 15.240 0.013 8.053 0.009 C 3.935 0.007,0.824 0.015,0.767 0.029 M0.637 5.076 C 0.370 5.186,0.197 5.352,0.075 5.614 C 0.013 5.747,0.013 5.747,0.013 7.000 L 0.013 8.253 0.083 8.400 C 0.229 8.707,0.510 8.924,0.838 8.984 C 1.059 9.025,5.412 9.025,5.600 8.984 C 5.961 8.907,6.121 8.464,5.885 8.195 C 5.705 7.989,5.862 8.001,3.300 8.001 L 1.013 8.000 1.013 7.000 L 1.013 6.000 3.287 6.000 C 4.735 6.000,5.595 5.990,5.657 5.973 C 5.803 5.932,5.965 5.744,5.988 5.587 C 6.022 5.361,5.925 5.165,5.732 5.066 C 5.631 5.015,5.565 5.013,3.208 5.014 L 0.787 5.015 0.637 5.076 M10.262 5.067 C 10.073 5.167,9.979 5.364,10.012 5.587 C 10.035 5.744,10.197 5.932,10.343 5.973 C 10.405 5.990,11.265 6.000,12.713 6.000 L 14.987 6.000 14.987 7.000 L 14.987 8.000 12.700 8.001 C 10.138 8.001,10.295 7.989,10.115 8.195 C 9.879 8.464,10.039 8.907,10.400 8.984 C 10.588 9.025,14.941 9.025,15.162 8.984 C 15.490 8.924,15.771 8.707,15.917 8.400 L 15.987 8.253 15.987 7.000 L 15.987 5.747 15.917 5.600 C 15.814 5.382,15.652 5.216,15.446 5.114 L 15.268 5.027 12.814 5.021 C 10.430 5.015,10.357 5.017,10.262 5.067 " stroke="none" fill-rule="evenodd"></path></svg>