<svg width="16" height="16" fill="currentColor" xmlns="http://www.w3.org/2000/svg"><path d="M1.669 0.028 C 0.992 0.142,0.371 0.651,0.135 1.283 C -0.006 1.659,0.001 1.324,0.000 7.994 C -0.000 14.784,-0.010 14.361,0.156 14.767 C 0.347 15.238,0.762 15.653,1.233 15.844 C 1.639 16.010,1.217 16.000,8.000 16.000 C 14.782 16.000,14.361 16.010,14.766 15.845 C 15.233 15.654,15.654 15.233,15.845 14.766 C 16.010 14.361,16.000 14.782,16.000 8.000 C 16.000 1.217,16.010 1.639,15.844 1.233 C 15.666 0.795,15.309 0.422,14.864 0.208 C 14.422 -0.005,15.102 0.015,8.080 0.010 C 4.626 0.008,1.741 0.016,1.669 0.028 M10.987 8.014 L 10.987 15.014 6.393 15.007 L 1.800 15.000 1.659 14.942 C 1.381 14.828,1.152 14.596,1.063 14.338 C 1.018 14.207,1.015 13.881,1.015 8.000 C 1.015 2.119,1.018 1.793,1.063 1.662 C 1.154 1.399,1.399 1.154,1.662 1.063 C 1.792 1.018,2.055 1.015,6.393 1.014 L 10.987 1.013 10.987 8.014 M14.407 1.085 C 14.584 1.167,14.812 1.392,14.900 1.570 L 14.973 1.720 14.980 7.946 C 14.988 14.846,15.001 14.319,14.811 14.576 C 14.691 14.738,14.526 14.867,14.341 14.941 C 14.206 14.997,14.154 14.999,13.100 15.008 L 12.000 15.017 12.000 8.014 L 12.000 1.011 13.140 1.019 C 14.249 1.026,14.283 1.028,14.407 1.085 M3.293 3.044 C 3.218 3.086,3.094 3.204,3.060 3.266 C 2.930 3.507,3.040 3.836,3.290 3.949 C 3.395 3.997,3.518 3.999,6.000 3.999 C 8.482 3.999,8.605 3.997,8.710 3.949 C 8.960 3.836,9.070 3.507,8.940 3.266 C 8.896 3.186,8.769 3.073,8.685 3.042 C 8.577 3.001,3.367 3.004,3.293 3.044 M3.290 6.051 C 3.039 6.165,2.930 6.492,3.061 6.737 C 3.106 6.819,3.270 6.956,3.354 6.980 C 3.449 7.006,8.551 7.006,8.646 6.980 C 8.730 6.956,8.894 6.819,8.939 6.737 C 9.070 6.492,8.961 6.165,8.710 6.051 C 8.605 6.003,8.482 6.001,6.000 6.001 C 3.518 6.001,3.395 6.003,3.290 6.051 M3.293 9.044 C 3.218 9.086,3.094 9.204,3.060 9.266 C 2.930 9.507,3.040 9.836,3.290 9.949 C 3.395 9.997,3.518 9.999,6.000 9.999 C 8.482 9.999,8.605 9.997,8.710 9.949 C 8.960 9.836,9.070 9.507,8.940 9.266 C 8.896 9.186,8.769 9.073,8.685 9.042 C 8.577 9.001,3.367 9.004,3.293 9.044 M3.290 12.051 C 3.039 12.165,2.930 12.492,3.061 12.737 C 3.106 12.819,3.270 12.956,3.354 12.980 C 3.449 13.006,8.551 13.006,8.646 12.980 C 8.730 12.956,8.894 12.819,8.939 12.737 C 9.070 12.492,8.961 12.165,8.710 12.051 C 8.605 12.003,8.482 12.001,6.000 12.001 C 3.518 12.001,3.395 12.003,3.290 12.051 " stroke="none" fill-rule="evenodd"></path></svg>