<svg width="16" height="16" fill="currentColor" xmlns="http://www.w3.org/2000/svg"><path d="M1.554 1.053 C 0.862 1.204,0.301 1.736,0.076 2.454 L 0.013 2.653 0.013 8.000 L 0.013 13.347 0.076 13.546 C 0.332 14.362,0.966 14.890,1.807 14.986 C 2.126 15.023,13.874 15.023,14.193 14.986 C 15.034 14.890,15.668 14.362,15.924 13.546 L 15.987 13.347 15.987 8.000 L 15.987 2.653 15.924 2.453 C 15.714 1.784,15.243 1.308,14.559 1.076 C 14.419 1.029,14.161 1.026,8.067 1.022 C 2.806 1.018,1.692 1.023,1.554 1.053 M7.493 8.001 L 7.493 14.001 4.620 13.994 L 1.747 13.987 1.600 13.917 C 1.382 13.814,1.216 13.652,1.114 13.446 L 1.027 13.268 1.020 8.035 L 1.013 2.803 1.069 2.654 C 1.143 2.456,1.264 2.301,1.441 2.181 C 1.711 1.996,1.574 2.004,4.687 2.002 L 7.493 2.000 7.493 8.001 M14.254 2.041 C 14.559 2.119,14.819 2.354,14.931 2.654 L 14.987 2.803 14.980 8.035 L 14.973 13.268 14.886 13.446 C 14.784 13.652,14.618 13.814,14.400 13.917 L 14.253 13.987 11.380 13.994 L 8.507 14.001 8.507 8.001 L 8.507 2.000 11.301 2.000 C 13.718 2.000,14.117 2.005,14.254 2.041 " stroke="none" fill-rule="evenodd"></path></svg>