<svg width="16" height="16" fill="currentColor" xmlns="http://www.w3.org/2000/svg"><path d="M7.187 0.068 C 5.981 0.232,4.867 0.751,3.953 1.575 L 3.818 1.698 8.062 5.941 L 12.307 10.184 12.487 9.976 C 13.388 8.938,13.880 7.746,13.972 6.385 C 14.092 4.592,13.357 2.777,12.027 1.582 C 11.091 0.742,9.983 0.227,8.765 0.068 C 8.379 0.017,7.561 0.017,7.187 0.068 M1.870 1.519 C 1.608 1.583,1.449 1.864,1.520 2.137 C 1.548 2.243,2.070 2.773,7.649 8.351 C 13.227 13.930,13.757 14.452,13.863 14.480 C 14.244 14.579,14.580 14.244,14.480 13.863 C 14.452 13.757,13.930 13.227,8.378 7.672 C 5.039 4.330,2.277 1.581,2.240 1.561 C 2.148 1.513,1.977 1.493,1.870 1.519 M2.163 4.607 C 2.066 5.020,2.025 5.337,2.008 5.787 C 1.972 6.779,2.176 7.738,2.611 8.627 C 2.912 9.241,3.239 9.702,3.776 10.267 C 3.936 10.435,4.106 10.634,4.154 10.709 C 4.201 10.784,4.426 11.275,4.653 11.801 C 4.913 12.403,5.093 12.785,5.140 12.834 C 5.309 13.012,5.102 13.000,7.987 13.000 C 10.141 13.000,10.615 12.994,10.687 12.963 C 10.734 12.943,10.773 12.919,10.773 12.910 C 10.773 12.887,2.258 4.373,2.236 4.373 C 2.226 4.373,2.193 4.478,2.163 4.607 M5.290 14.051 C 5.039 14.165,4.930 14.492,5.061 14.737 C 5.100 14.809,5.262 14.951,5.325 14.969 C 5.352 14.976,5.403 14.988,5.440 14.996 C 5.493 15.008,5.533 15.064,5.631 15.259 C 5.789 15.576,5.887 15.708,6.043 15.815 C 6.311 16.000,6.313 16.000,8.000 16.000 C 9.687 16.000,9.689 16.000,9.957 15.815 C 10.113 15.708,10.211 15.576,10.369 15.259 C 10.467 15.064,10.507 15.008,10.560 14.996 C 10.597 14.988,10.648 14.976,10.675 14.969 C 10.738 14.951,10.900 14.809,10.939 14.737 C 11.070 14.492,10.961 14.165,10.710 14.051 C 10.605 14.003,10.482 14.001,8.000 14.001 C 5.518 14.001,5.395 14.003,5.290 14.051 " stroke="none" fill-rule="evenodd"></path></svg>