<svg width="16" height="16" fill="currentColor" xmlns="http://www.w3.org/2000/svg"><path d="M10.780 0.058 C 10.645 0.132,2.640 8.623,2.559 8.779 C 2.464 8.959,2.511 9.235,2.657 9.363 C 2.809 9.497,2.755 9.493,4.600 9.493 C 6.229 9.493,6.323 9.496,6.309 9.540 C 5.269 12.897,4.507 15.422,4.507 15.507 C 4.509 15.871,4.908 16.114,5.219 15.942 C 5.354 15.868,13.360 7.376,13.441 7.221 C 13.567 6.983,13.467 6.683,13.221 6.557 C 13.127 6.509,13.037 6.507,11.399 6.507 C 9.771 6.507,9.677 6.504,9.691 6.460 C 10.731 3.103,11.493 0.578,11.493 0.493 C 11.491 0.129,11.093 -0.114,10.780 0.058 " stroke="none" fill-rule="evenodd"></path></svg>