<svg width="16" height="16" fill="currentColor" xmlns="http://www.w3.org/2000/svg"><path d="M5.799 0.050 C 5.674 0.107,5.563 0.228,5.523 0.353 C 5.508 0.401,4.935 2.342,4.251 4.667 C 3.398 7.565,3.007 8.932,3.007 9.016 C 3.007 9.083,3.022 9.167,3.040 9.203 C 3.082 9.283,3.197 9.408,3.267 9.449 C 3.305 9.471,3.809 9.484,5.070 9.493 L 6.821 9.507 5.930 12.400 C 5.440 13.991,5.027 15.342,5.014 15.402 C 4.919 15.814,5.419 16.159,5.767 15.921 C 5.840 15.870,12.761 7.012,12.916 6.770 C 13.078 6.517,12.980 6.174,12.710 6.051 C 12.606 6.004,12.497 6.001,10.650 6.001 L 8.700 6.000 9.603 3.278 C 10.100 1.781,10.507 0.536,10.507 0.511 C 10.506 0.328,10.374 0.129,10.201 0.050 C 10.099 0.004,9.974 0.001,8.000 0.001 C 6.026 0.001,5.901 0.004,5.799 0.050 " stroke="none" fill-rule="evenodd"></path></svg>