<svg width="16" height="16" fill="currentColor" xmlns="http://www.w3.org/2000/svg"><path d="M7.440 0.016 C 6.268 0.117,5.485 0.282,4.640 0.604 C 2.009 1.607,0.264 3.645,0.023 5.995 C -0.012 6.339,0.008 6.984,0.066 7.333 C 0.390 9.292,1.745 10.995,3.796 12.020 C 4.583 12.413,5.443 12.690,6.344 12.842 C 6.987 12.950,7.275 13.066,7.377 13.258 C 7.462 13.418,7.457 13.783,7.363 14.354 C 7.269 14.923,7.264 15.012,7.320 15.120 C 7.384 15.243,7.527 15.274,7.753 15.213 C 8.337 15.056,10.089 13.970,11.693 12.773 C 14.744 10.496,16.000 8.665,16.000 6.493 C 16.000 4.370,14.698 2.365,12.533 1.153 C 11.487 0.568,10.388 0.219,9.107 0.066 C 8.776 0.026,7.694 -0.006,7.440 0.016 M3.451 4.815 C 3.488 4.852,3.493 5.021,3.493 6.269 L 3.493 7.680 4.280 7.680 C 5.252 7.680,5.173 7.641,5.173 8.125 C 5.173 8.402,5.165 8.471,5.129 8.511 C 5.088 8.557,5.014 8.560,3.904 8.560 C 2.867 8.560,2.719 8.555,2.682 8.518 C 2.645 8.481,2.640 8.275,2.640 6.657 C 2.640 5.277,2.648 4.830,2.672 4.805 C 2.694 4.784,2.818 4.773,3.057 4.773 C 3.342 4.773,3.418 4.781,3.451 4.815 M6.485 4.817 C 6.531 4.859,6.533 4.952,6.533 6.657 C 6.533 8.418,6.532 8.454,6.480 8.507 C 6.432 8.554,6.391 8.560,6.093 8.560 C 5.796 8.560,5.754 8.554,5.707 8.507 C 5.654 8.454,5.653 8.418,5.653 6.662 C 5.653 5.033,5.657 4.866,5.697 4.822 C 5.736 4.780,5.786 4.773,6.089 4.773 C 6.374 4.773,6.444 4.781,6.485 4.817 M7.882 4.794 C 7.897 4.805,8.269 5.299,8.708 5.892 L 9.507 6.972 9.514 5.921 C 9.520 4.990,9.526 4.865,9.564 4.822 C 9.603 4.780,9.654 4.773,9.963 4.773 C 10.299 4.773,10.319 4.776,10.358 4.833 C 10.395 4.885,10.400 5.104,10.400 6.673 C 10.400 8.426,10.399 8.454,10.346 8.507 C 10.296 8.557,10.263 8.561,9.940 8.554 L 9.588 8.547 8.774 7.447 L 7.960 6.348 7.953 7.406 C 7.947 8.343,7.941 8.469,7.902 8.512 C 7.864 8.554,7.813 8.560,7.521 8.560 C 7.272 8.560,7.170 8.550,7.132 8.522 C 7.081 8.485,7.080 8.435,7.080 6.673 C 7.080 5.177,7.086 4.854,7.117 4.817 C 7.147 4.780,7.210 4.773,7.503 4.774 C 7.696 4.774,7.866 4.783,7.882 4.794 M13.445 4.817 C 13.487 4.856,13.493 4.906,13.493 5.185 C 13.493 5.668,13.576 5.627,12.612 5.627 L 11.813 5.627 11.813 5.933 L 11.813 6.240 12.605 6.240 C 13.303 6.240,13.401 6.245,13.445 6.284 C 13.487 6.322,13.493 6.372,13.493 6.652 C 13.493 7.135,13.576 7.093,12.612 7.093 L 11.813 7.093 11.813 7.387 L 11.813 7.680 12.600 7.680 C 13.571 7.680,13.493 7.642,13.493 8.120 C 13.493 8.418,13.488 8.459,13.440 8.507 C 13.388 8.558,13.351 8.560,12.213 8.560 C 11.076 8.560,11.038 8.558,10.987 8.507 C 10.934 8.454,10.933 8.418,10.933 6.673 C 10.933 5.104,10.938 4.885,10.975 4.833 L 11.016 4.773 12.206 4.773 C 13.276 4.773,13.401 4.778,13.445 4.817 " stroke="none" fill-rule="evenodd"></path></svg>