<svg width="16" height="16" fill="currentColor" xmlns="http://www.w3.org/2000/svg"><path d="M2.360 2.047 C 2.291 2.089,2.263 2.147,2.160 2.453 C 2.002 2.924,2.011 2.917,1.519 2.929 C 1.169 2.938,1.145 2.942,1.084 3.003 C 1.048 3.039,1.013 3.100,1.006 3.138 C 0.980 3.276,1.037 3.353,1.348 3.599 C 1.724 3.896,1.724 3.894,1.589 4.334 C 1.536 4.507,1.493 4.685,1.493 4.731 C 1.493 4.840,1.558 4.930,1.669 4.976 C 1.787 5.025,1.848 5.000,2.117 4.790 C 2.392 4.576,2.440 4.551,2.543 4.571 C 2.589 4.580,2.735 4.672,2.867 4.776 C 2.999 4.880,3.133 4.975,3.164 4.988 C 3.260 5.025,3.410 4.968,3.468 4.872 C 3.537 4.758,3.534 4.728,3.426 4.387 C 3.330 4.083,3.312 3.910,3.368 3.839 C 3.385 3.816,3.517 3.705,3.659 3.592 C 3.802 3.479,3.939 3.356,3.963 3.319 C 4.023 3.227,3.996 3.072,3.906 2.993 C 3.843 2.938,3.810 2.933,3.525 2.933 C 3.172 2.933,3.033 2.904,2.974 2.819 C 2.951 2.787,2.889 2.622,2.837 2.453 C 2.782 2.274,2.718 2.121,2.683 2.086 C 2.601 2.002,2.461 1.985,2.360 2.047 M5.293 3.044 C 5.218 3.086,5.094 3.204,5.060 3.266 C 4.930 3.507,5.040 3.836,5.290 3.949 C 5.396 3.997,5.564 3.999,10.000 3.999 C 14.436 3.999,14.604 3.997,14.710 3.949 C 14.960 3.836,15.070 3.507,14.940 3.266 C 14.896 3.186,14.769 3.073,14.685 3.042 C 14.577 3.001,5.367 3.004,5.293 3.044 M2.360 6.047 C 2.291 6.089,2.263 6.147,2.160 6.453 C 2.002 6.924,2.011 6.917,1.519 6.929 C 1.169 6.938,1.145 6.942,1.084 7.003 C 1.048 7.039,1.013 7.100,1.006 7.138 C 0.980 7.276,1.037 7.353,1.348 7.599 C 1.724 7.896,1.724 7.894,1.589 8.334 C 1.536 8.507,1.493 8.685,1.493 8.731 C 1.493 8.840,1.558 8.930,1.669 8.976 C 1.787 9.025,1.848 9.000,2.117 8.790 C 2.392 8.576,2.440 8.551,2.543 8.571 C 2.589 8.580,2.735 8.672,2.867 8.776 C 2.999 8.880,3.133 8.975,3.164 8.988 C 3.260 9.025,3.410 8.968,3.468 8.872 C 3.537 8.758,3.534 8.728,3.426 8.387 C 3.330 8.083,3.312 7.910,3.368 7.839 C 3.385 7.816,3.517 7.705,3.659 7.592 C 3.802 7.479,3.939 7.356,3.963 7.319 C 4.023 7.227,3.996 7.072,3.906 6.993 C 3.843 6.938,3.810 6.933,3.525 6.933 C 3.172 6.933,3.033 6.904,2.974 6.819 C 2.951 6.787,2.889 6.622,2.837 6.453 C 2.782 6.274,2.718 6.121,2.683 6.086 C 2.601 6.002,2.461 5.985,2.360 6.047 M5.293 7.044 C 5.218 7.086,5.094 7.204,5.060 7.266 C 4.930 7.507,5.040 7.836,5.290 7.949 C 5.396 7.997,5.564 7.999,10.000 7.999 C 14.436 7.999,14.604 7.997,14.710 7.949 C 14.960 7.836,15.070 7.507,14.940 7.266 C 14.896 7.186,14.769 7.073,14.685 7.042 C 14.577 7.001,5.367 7.004,5.293 7.044 M2.360 10.047 C 2.291 10.089,2.263 10.147,2.160 10.453 C 2.002 10.924,2.011 10.917,1.519 10.929 C 1.169 10.938,1.145 10.942,1.084 11.003 C 1.048 11.039,1.013 11.100,1.006 11.138 C 0.980 11.276,1.037 11.353,1.348 11.599 C 1.724 11.896,1.724 11.894,1.589 12.334 C 1.536 12.507,1.493 12.685,1.493 12.731 C 1.493 12.840,1.558 12.930,1.669 12.976 C 1.787 13.025,1.848 13.000,2.117 12.790 C 2.392 12.576,2.440 12.551,2.543 12.571 C 2.589 12.580,2.735 12.672,2.867 12.776 C 2.999 12.880,3.133 12.975,3.164 12.988 C 3.260 13.025,3.410 12.968,3.468 12.872 C 3.537 12.758,3.534 12.728,3.426 12.387 C 3.330 12.083,3.312 11.910,3.368 11.839 C 3.385 11.816,3.517 11.705,3.659 11.592 C 3.802 11.479,3.939 11.356,3.963 11.319 C 4.023 11.227,3.996 11.072,3.906 10.993 C 3.843 10.938,3.810 10.933,3.525 10.933 C 3.172 10.933,3.033 10.904,2.974 10.819 C 2.951 10.787,2.889 10.622,2.837 10.453 C 2.782 10.274,2.718 10.121,2.683 10.086 C 2.601 10.002,2.461 9.985,2.360 10.047 M5.293 11.044 C 5.218 11.086,5.094 11.204,5.060 11.266 C 4.930 11.507,5.040 11.836,5.290 11.949 C 5.396 11.997,5.564 11.999,10.000 11.999 C 14.436 11.999,14.604 11.997,14.710 11.949 C 14.960 11.836,15.070 11.507,14.940 11.266 C 14.896 11.186,14.769 11.073,14.685 11.042 C 14.577 11.001,5.367 11.004,5.293 11.044 " stroke="none" fill-rule="evenodd"></path></svg>