<svg width="16" height="16" fill="currentColor" xmlns="http://www.w3.org/2000/svg"><path d="M1.720 2.542 C 1.554 2.597,1.444 2.662,1.318 2.778 C 1.162 2.922,1.071 3.085,1.026 3.303 C 0.931 3.758,1.160 4.203,1.595 4.408 C 1.752 4.482,1.801 4.493,2.000 4.493 C 2.199 4.493,2.248 4.482,2.405 4.408 C 3.061 4.099,3.201 3.257,2.677 2.773 C 2.494 2.605,2.297 2.525,2.040 2.515 C 1.913 2.510,1.784 2.521,1.720 2.542 M5.293 3.044 C 5.218 3.086,5.094 3.204,5.060 3.266 C 4.930 3.507,5.040 3.836,5.290 3.949 C 5.396 3.997,5.564 3.999,10.000 3.999 C 14.436 3.999,14.604 3.997,14.710 3.949 C 14.960 3.836,15.070 3.507,14.940 3.266 C 14.896 3.186,14.769 3.073,14.685 3.042 C 14.577 3.001,5.367 3.004,5.293 3.044 M1.720 6.542 C 1.554 6.597,1.444 6.662,1.318 6.778 C 1.162 6.922,1.071 7.085,1.026 7.303 C 0.931 7.758,1.160 8.203,1.595 8.408 C 1.752 8.482,1.801 8.493,2.000 8.493 C 2.199 8.493,2.248 8.482,2.405 8.408 C 3.061 8.099,3.201 7.257,2.677 6.773 C 2.494 6.605,2.297 6.525,2.040 6.515 C 1.913 6.510,1.784 6.521,1.720 6.542 M5.293 7.044 C 5.218 7.086,5.094 7.204,5.060 7.266 C 4.930 7.507,5.040 7.836,5.290 7.949 C 5.396 7.997,5.564 7.999,10.000 7.999 C 14.436 7.999,14.604 7.997,14.710 7.949 C 14.960 7.836,15.070 7.507,14.940 7.266 C 14.896 7.186,14.769 7.073,14.685 7.042 C 14.577 7.001,5.367 7.004,5.293 7.044 M1.720 10.542 C 1.554 10.597,1.444 10.662,1.318 10.778 C 1.162 10.922,1.071 11.085,1.026 11.303 C 0.931 11.758,1.160 12.203,1.595 12.408 C 1.752 12.482,1.801 12.493,2.000 12.493 C 2.199 12.493,2.248 12.482,2.405 12.408 C 3.061 12.099,3.201 11.257,2.677 10.773 C 2.494 10.605,2.297 10.525,2.040 10.515 C 1.913 10.510,1.784 10.521,1.720 10.542 M5.293 11.044 C 5.218 11.086,5.094 11.204,5.060 11.266 C 4.930 11.507,5.040 11.836,5.290 11.949 C 5.396 11.997,5.564 11.999,10.000 11.999 C 14.436 11.999,14.604 11.997,14.710 11.949 C 14.960 11.836,15.070 11.507,14.940 11.266 C 14.896 11.186,14.769 11.073,14.685 11.042 C 14.577 11.001,5.367 11.004,5.293 11.044 " stroke="none" fill-rule="evenodd"></path></svg>