<svg width="16" height="16" fill="currentColor" xmlns="http://www.w3.org/2000/svg"><path d="M0.786 3.050 C 0.673 3.100,0.539 3.261,0.518 3.374 C 0.473 3.614,0.580 3.847,0.780 3.943 L 0.897 4.000 6.000 4.000 L 11.103 4.000 11.220 3.943 C 11.398 3.857,11.480 3.715,11.480 3.491 C 11.480 3.331,11.471 3.301,11.398 3.209 C 11.353 3.153,11.275 3.086,11.225 3.060 C 11.139 3.016,10.836 3.013,6.000 3.014 C 1.818 3.015,0.852 3.022,0.786 3.050 M2.786 7.050 C 2.673 7.100,2.539 7.261,2.518 7.374 C 2.473 7.614,2.580 7.847,2.780 7.943 L 2.897 8.000 8.000 8.000 L 13.103 8.000 13.220 7.943 C 13.398 7.857,13.480 7.715,13.480 7.491 C 13.480 7.331,13.471 7.301,13.398 7.209 C 13.353 7.153,13.275 7.086,13.225 7.060 C 13.139 7.016,12.836 7.013,8.000 7.014 C 3.818 7.015,2.852 7.022,2.786 7.050 M4.786 11.050 C 4.673 11.100,4.539 11.261,4.518 11.374 C 4.473 11.614,4.580 11.847,4.780 11.943 L 4.897 12.000 10.000 12.000 L 15.103 12.000 15.220 11.943 C 15.398 11.857,15.480 11.715,15.480 11.491 C 15.480 11.331,15.471 11.301,15.398 11.209 C 15.353 11.153,15.275 11.086,15.225 11.060 C 15.139 11.016,14.836 11.013,10.000 11.014 C 5.818 11.015,4.852 11.022,4.786 11.050 " stroke="none" fill-rule="evenodd"></path></svg>