<svg width="16" height="16" fill="currentColor" xmlns="http://www.w3.org/2000/svg"><path d="M0.306 0.050 C -0.136 0.251,-0.073 0.883,0.400 0.984 C 0.592 1.025,9.408 1.025,9.600 0.984 C 10.073 0.883,10.136 0.251,9.694 0.050 C 9.591 0.003,9.380 0.001,5.000 0.001 C 0.620 0.001,0.409 0.003,0.306 0.050 M13.290 0.051 C 13.230 0.078,13.150 0.141,13.112 0.191 C 13.046 0.278,12.981 0.481,13.000 0.543 C 13.005 0.560,13.016 0.606,13.025 0.646 C 13.045 0.737,13.181 0.894,13.291 0.955 C 13.364 0.995,13.495 1.001,14.409 1.008 C 15.594 1.017,15.680 1.008,15.838 0.858 C 16.099 0.609,16.026 0.201,15.694 0.050 C 15.596 0.005,15.494 0.001,14.493 0.001 C 13.482 0.001,13.392 0.005,13.290 0.051 M0.306 2.050 C -0.140 2.252,-0.073 2.886,0.406 2.985 C 0.505 3.006,1.733 3.012,4.587 3.007 C 8.330 3.001,8.633 2.997,8.709 2.955 C 8.819 2.894,8.955 2.737,8.975 2.646 C 8.984 2.606,8.995 2.560,9.000 2.543 C 9.019 2.481,8.954 2.278,8.888 2.191 C 8.850 2.141,8.770 2.078,8.710 2.051 C 8.604 2.003,8.448 2.001,4.507 2.001 C 0.604 2.001,0.408 2.003,0.306 2.050 M13.290 2.051 C 13.230 2.078,13.150 2.141,13.112 2.191 C 13.046 2.278,12.981 2.481,13.000 2.543 C 13.005 2.560,13.016 2.606,13.025 2.646 C 13.045 2.737,13.181 2.894,13.291 2.955 C 13.364 2.995,13.495 3.001,14.409 3.008 C 15.594 3.017,15.680 3.008,15.838 2.858 C 16.099 2.609,16.026 2.201,15.694 2.050 C 15.596 2.005,15.494 2.001,14.493 2.001 C 13.482 2.001,13.392 2.005,13.290 2.051 M0.306 4.050 C -0.140 4.252,-0.072 4.886,0.406 4.985 C 0.506 5.006,2.012 5.012,5.587 5.007 C 10.271 5.001,10.633 4.997,10.709 4.955 C 10.819 4.894,10.955 4.737,10.975 4.646 C 10.984 4.606,10.995 4.560,11.000 4.543 C 11.019 4.481,10.954 4.278,10.888 4.191 C 10.850 4.141,10.770 4.078,10.710 4.051 C 10.604 4.003,10.424 4.001,5.507 4.001 C 0.637 4.001,0.409 4.003,0.306 4.050 M13.290 4.051 C 13.230 4.078,13.150 4.141,13.112 4.191 C 13.046 4.278,12.981 4.481,13.000 4.543 C 13.005 4.560,13.016 4.606,13.025 4.646 C 13.045 4.737,13.181 4.894,13.291 4.955 C 13.364 4.995,13.495 5.001,14.409 5.008 C 15.594 5.017,15.680 5.008,15.838 4.858 C 16.099 4.609,16.026 4.201,15.694 4.050 C 15.596 4.005,15.494 4.001,14.493 4.001 C 13.482 4.001,13.392 4.005,13.290 4.051 M0.306 6.050 C -0.136 6.251,-0.073 6.883,0.400 6.984 C 0.591 7.025,7.409 7.025,7.600 6.984 C 8.073 6.883,8.136 6.251,7.694 6.050 C 7.592 6.004,7.412 6.001,4.000 6.001 C 0.588 6.001,0.408 6.004,0.306 6.050 M13.290 6.051 C 13.230 6.078,13.150 6.141,13.112 6.191 C 13.046 6.278,12.981 6.481,13.000 6.543 C 13.005 6.560,13.016 6.606,13.025 6.646 C 13.045 6.737,13.181 6.894,13.291 6.955 C 13.364 6.995,13.495 7.001,14.409 7.008 C 15.594 7.017,15.680 7.008,15.838 6.858 C 16.099 6.609,16.026 6.201,15.694 6.050 C 15.596 6.005,15.494 6.001,14.493 6.001 C 13.482 6.001,13.392 6.005,13.290 6.051 M0.306 8.050 C -0.136 8.251,-0.073 8.883,0.400 8.984 C 0.591 9.025,7.409 9.025,7.600 8.984 C 8.073 8.883,8.136 8.251,7.694 8.050 C 7.592 8.004,7.412 8.001,4.000 8.001 C 0.588 8.001,0.408 8.004,0.306 8.050 M13.290 8.051 C 13.230 8.078,13.150 8.141,13.112 8.191 C 13.046 8.278,12.981 8.481,13.000 8.543 C 13.005 8.560,13.016 8.606,13.025 8.646 C 13.045 8.737,13.181 8.894,13.291 8.955 C 13.364 8.995,13.495 9.001,14.409 9.008 C 15.594 9.017,15.680 9.008,15.838 8.858 C 16.099 8.609,16.026 8.201,15.694 8.050 C 15.596 8.005,15.494 8.001,14.493 8.001 C 13.482 8.001,13.392 8.005,13.290 8.051 M0.306 10.050 C -0.136 10.251,-0.073 10.883,0.400 10.984 C 0.592 11.025,9.408 11.025,9.600 10.984 C 10.073 10.883,10.136 10.251,9.694 10.050 C 9.591 10.003,9.380 10.001,5.000 10.001 C 0.620 10.001,0.409 10.003,0.306 10.050 M13.290 10.051 C 13.230 10.078,13.150 10.141,13.112 10.191 C 13.046 10.278,12.981 10.481,13.000 10.543 C 13.005 10.560,13.016 10.606,13.025 10.646 C 13.045 10.737,13.181 10.894,13.291 10.955 C 13.364 10.995,13.495 11.001,14.409 11.008 C 15.594 11.017,15.680 11.008,15.838 10.858 C 16.099 10.609,16.026 10.201,15.694 10.050 C 15.596 10.005,15.494 10.001,14.493 10.001 C 13.482 10.001,13.392 10.005,13.290 10.051 M0.306 12.050 C -0.136 12.251,-0.073 12.883,0.400 12.984 C 0.493 13.004,1.315 13.013,3.000 13.013 C 4.685 13.013,5.507 13.004,5.600 12.984 C 5.961 12.907,6.121 12.464,5.885 12.195 C 5.704 11.988,5.899 12.001,3.000 12.001 C 0.555 12.001,0.407 12.004,0.306 12.050 M13.290 12.051 C 13.230 12.078,13.150 12.141,13.112 12.191 C 13.046 12.278,12.981 12.481,13.000 12.543 C 13.005 12.560,13.016 12.606,13.025 12.646 C 13.045 12.737,13.181 12.894,13.291 12.955 C 13.364 12.995,13.495 13.001,14.409 13.008 C 15.594 13.017,15.680 13.008,15.838 12.858 C 16.099 12.609,16.026 12.201,15.694 12.050 C 15.596 12.005,15.494 12.001,14.493 12.001 C 13.482 12.001,13.392 12.005,13.290 12.051 M0.306 14.050 C -0.140 14.252,-0.072 14.886,0.406 14.985 C 0.506 15.006,2.012 15.012,5.587 15.007 C 10.271 15.001,10.633 14.997,10.709 14.955 C 10.819 14.894,10.955 14.737,10.975 14.646 C 10.984 14.606,10.995 14.560,11.000 14.543 C 11.019 14.481,10.954 14.278,10.888 14.191 C 10.850 14.141,10.770 14.078,10.710 14.051 C 10.604 14.003,10.424 14.001,5.507 14.001 C 0.637 14.001,0.409 14.003,0.306 14.050 M13.290 14.051 C 13.230 14.078,13.150 14.141,13.112 14.191 C 13.046 14.278,12.981 14.481,13.000 14.543 C 13.005 14.560,13.016 14.606,13.025 14.646 C 13.045 14.737,13.181 14.894,13.291 14.955 C 13.364 14.995,13.495 15.001,14.409 15.008 C 15.594 15.017,15.680 15.008,15.838 14.858 C 16.099 14.609,16.026 14.201,15.694 14.050 C 15.596 14.005,15.494 14.001,14.493 14.001 C 13.482 14.001,13.392 14.005,13.290 14.051 " stroke="none" fill-rule="evenodd"></path></svg>