<svg width="16" height="16" fill="currentColor" xmlns="http://www.w3.org/2000/svg"><path d="M7.606 0.029 C 7.309 0.067,7.007 0.159,6.707 0.304 C 5.748 0.764,5.127 1.651,5.014 2.720 C 4.999 2.865,4.987 3.839,4.987 4.993 L 4.987 7.013 4.858 7.013 C 4.665 7.013,4.334 7.106,4.093 7.227 C 3.708 7.420,3.404 7.730,3.215 8.120 C 2.989 8.585,3.003 8.378,2.993 11.307 C 2.987 12.993,2.993 13.997,3.012 14.165 C 3.105 15.028,3.626 15.664,4.454 15.924 L 4.653 15.987 8.000 15.987 L 11.347 15.987 11.546 15.924 C 12.374 15.664,12.895 15.028,12.988 14.165 C 13.007 13.997,13.013 12.993,13.007 11.307 C 12.997 8.378,13.011 8.585,12.785 8.120 C 12.596 7.730,12.292 7.420,11.907 7.227 C 11.666 7.106,11.335 7.013,11.142 7.013 L 11.013 7.013 11.013 4.993 C 11.013 3.839,11.001 2.865,10.986 2.720 C 10.873 1.651,10.252 0.764,9.293 0.304 C 8.756 0.046,8.187 -0.047,7.606 0.029 M8.559 1.080 C 9.220 1.287,9.721 1.790,9.924 2.454 L 9.985 2.653 9.994 4.833 L 10.002 7.013 8.000 7.013 L 5.998 7.013 6.006 4.833 C 6.015 2.661,6.015 2.653,6.075 2.458 C 6.221 1.982,6.502 1.599,6.893 1.341 C 7.096 1.208,7.342 1.100,7.554 1.052 C 7.777 1.001,8.359 1.017,8.559 1.080 M11.400 8.088 C 11.610 8.186,11.816 8.391,11.911 8.597 L 11.987 8.760 11.994 11.424 C 12.000 13.764,11.996 14.107,11.960 14.249 C 11.861 14.634,11.561 14.910,11.161 14.984 C 10.941 15.025,5.059 15.025,4.839 14.984 C 4.439 14.910,4.139 14.634,4.040 14.249 C 4.004 14.107,4.000 13.764,4.006 11.424 L 4.013 8.760 4.088 8.600 C 4.217 8.324,4.489 8.095,4.767 8.029 C 4.823 8.015,6.254 8.007,8.053 8.009 L 11.240 8.013 11.400 8.088 " stroke="none" fill-rule="evenodd"></path></svg>