<svg width="16" height="16" fill="currentColor" xmlns="http://www.w3.org/2000/svg"><path d="M2.893 0.509 C 1.515 0.786,0.342 1.032,0.288 1.056 C 0.166 1.111,0.095 1.185,0.041 1.313 C 0.004 1.401,-0.000 2.163,-0.000 8.507 C -0.000 14.395,0.006 15.616,0.036 15.688 C 0.093 15.824,0.270 15.967,0.407 15.987 C 0.500 16.001,1.029 15.904,3.008 15.508 L 5.493 15.011 7.994 15.511 L 10.495 16.011 13.100 15.489 C 15.991 14.910,15.839 14.952,15.949 14.710 C 15.997 14.603,15.999 14.377,15.999 7.499 C 16.000 1.591,15.994 0.384,15.964 0.312 C 15.910 0.184,15.771 0.063,15.632 0.024 C 15.512 -0.009,15.419 0.007,13.000 0.491 L 10.493 0.992 8.013 0.496 C 6.649 0.223,5.503 0.001,5.467 0.003 C 5.430 0.004,4.272 0.232,2.893 0.509 M4.987 7.607 L 4.987 14.094 3.073 14.476 C 2.021 14.686,1.127 14.865,1.087 14.872 L 1.013 14.886 1.013 8.396 L 1.013 1.906 2.953 1.516 C 4.020 1.301,4.914 1.124,4.940 1.123 C 4.984 1.120,4.987 1.446,4.987 7.607 M8.027 1.516 L 9.987 1.909 9.993 8.395 C 9.997 11.962,9.991 14.881,9.980 14.881 C 9.969 14.882,9.069 14.705,7.980 14.488 L 6.000 14.094 6.000 7.607 C 6.000 2.434,6.007 1.120,6.033 1.121 C 6.052 1.122,6.949 1.300,8.027 1.516 M14.987 7.607 L 14.987 14.094 13.073 14.476 C 12.021 14.686,11.127 14.865,11.087 14.872 L 11.013 14.886 11.013 8.396 L 11.013 1.906 12.953 1.516 C 14.020 1.301,14.914 1.124,14.940 1.123 C 14.984 1.120,14.987 1.446,14.987 7.607 " stroke="none" fill-rule="evenodd"></path></svg>