<svg width="16" height="16" fill="currentColor" xmlns="http://www.w3.org/2000/svg"><path d="M4.120 3.522 C 3.594 3.563,2.996 3.728,2.529 3.961 C 1.233 4.610,0.362 5.752,0.075 7.178 C -0.013 7.612,-0.012 8.383,0.076 8.825 C 0.363 10.265,1.257 11.424,2.567 12.054 C 4.004 12.745,5.691 12.625,7.016 11.738 C 8.183 10.956,8.916 9.699,9.009 8.320 C 9.119 6.694,8.370 5.169,7.017 4.263 C 6.371 3.831,5.664 3.587,4.862 3.520 C 4.516 3.492,4.505 3.492,4.120 3.522 M11.447 3.799 C 11.182 3.859,10.924 4.011,10.679 4.253 C 10.106 4.816,9.711 5.745,9.527 6.960 C 9.462 7.395,9.462 8.605,9.527 9.040 C 9.630 9.722,9.800 10.309,10.039 10.815 C 10.511 11.813,11.219 12.340,11.921 12.215 C 12.637 12.087,13.261 11.358,13.638 10.208 C 13.884 9.460,13.959 8.944,13.959 8.000 C 13.959 7.459,13.948 7.218,13.911 6.973 C 13.731 5.762,13.337 4.826,12.774 4.267 C 12.360 3.856,11.903 3.695,11.447 3.799 M15.037 4.300 C 14.813 4.524,14.621 5.217,14.506 6.221 C 14.223 8.687,14.610 11.787,15.201 11.787 C 15.519 11.787,15.792 10.945,15.938 9.512 C 16.005 8.861,16.005 7.139,15.938 6.488 C 15.765 4.788,15.410 3.927,15.037 4.300 " stroke="none" fill-rule="evenodd"></path></svg>