<svg width="16" height="16" fill="currentColor" xmlns="http://www.w3.org/2000/svg"><path d="M14.110 1.055 C 13.785 1.143,13.434 1.397,13.238 1.687 C 13.119 1.865,13.037 2.128,13.004 2.439 L 12.973 2.732 12.573 2.939 C 10.852 3.829,8.733 4.445,6.360 4.746 C 5.380 4.870,4.661 4.917,2.853 4.973 C 1.577 5.013,1.521 5.020,1.178 5.175 C 0.650 5.415,0.262 5.866,0.076 6.453 C 0.014 6.653,0.013 6.658,0.013 8.000 C 0.013 9.342,0.014 9.347,0.076 9.547 C 0.318 10.312,0.888 10.825,1.664 10.974 C 1.778 10.995,1.945 11.014,2.036 11.014 L 2.200 11.014 3.013 12.552 C 3.461 13.397,3.892 14.214,3.972 14.368 C 4.156 14.721,4.297 14.879,4.528 14.993 L 4.706 15.080 5.240 15.080 C 5.763 15.080,5.776 15.079,5.926 15.008 C 6.123 14.916,6.331 14.707,6.420 14.513 C 6.540 14.250,6.533 14.126,6.298 12.587 C 6.183 11.831,6.090 11.211,6.091 11.209 C 6.098 11.197,7.017 11.314,7.400 11.376 C 9.372 11.693,11.270 12.319,12.711 13.129 L 12.980 13.279 12.999 13.526 C 13.051 14.216,13.424 14.714,14.044 14.922 C 14.301 15.008,14.649 15.019,14.895 14.948 C 15.421 14.796,15.835 14.363,15.960 13.833 C 16.019 13.582,16.019 2.418,15.960 2.167 C 15.834 1.631,15.410 1.194,14.880 1.053 C 14.695 1.004,14.297 1.005,14.110 1.055 M14.687 2.041 C 14.813 2.094,14.874 2.150,14.936 2.272 C 14.985 2.368,14.987 2.529,14.987 8.000 C 14.987 13.550,14.986 13.630,14.934 13.732 C 14.746 14.101,14.225 14.078,14.050 13.694 C 14.003 13.591,14.001 13.346,14.001 8.006 C 14.000 3.028,14.004 2.414,14.041 2.326 C 14.096 2.194,14.178 2.110,14.307 2.050 C 14.437 1.990,14.557 1.987,14.687 2.041 M12.987 7.998 L 12.987 12.129 12.543 11.917 C 10.513 10.943,8.405 10.400,5.779 10.174 C 5.518 10.152,5.239 10.133,5.159 10.133 L 5.013 10.133 5.013 8.014 L 5.013 5.894 5.073 5.883 C 5.106 5.877,5.361 5.852,5.640 5.828 C 8.118 5.615,10.745 4.943,12.568 4.056 C 12.776 3.954,12.956 3.870,12.967 3.869 C 12.978 3.868,12.987 5.726,12.987 7.998 M4.000 8.007 L 4.000 10.067 3.553 10.050 C 3.308 10.040,2.897 10.031,2.640 10.029 C 2.383 10.028,2.071 10.015,1.947 10.000 C 1.544 9.954,1.256 9.757,1.098 9.418 L 1.027 9.267 1.019 8.036 C 1.012 6.840,1.013 6.802,1.068 6.656 C 1.174 6.372,1.386 6.161,1.672 6.053 C 1.812 6.001,1.900 5.993,2.573 5.975 C 2.984 5.964,3.473 5.953,3.660 5.951 L 4.000 5.947 4.000 8.007 M4.507 11.096 C 4.807 11.112,5.056 11.128,5.059 11.131 C 5.069 11.140,5.493 13.997,5.493 14.054 C 5.493 14.103,5.474 14.107,5.231 14.107 L 4.968 14.107 4.164 12.588 C 3.722 11.752,3.360 11.061,3.360 11.052 C 3.360 11.036,3.436 11.039,4.507 11.096 " stroke="none" fill-rule="evenodd"></path></svg>