<svg width="16" height="16" fill="currentColor" xmlns="http://www.w3.org/2000/svg"><path d="M1.554 1.053 C 0.869 1.203,0.320 1.718,0.076 2.440 L 0.013 2.627 0.006 7.400 C -0.002 12.636,-0.010 12.360,0.155 12.766 C 0.347 13.238,0.761 13.652,1.233 13.844 C 1.613 13.999,1.629 14.000,3.806 14.000 L 5.800 14.000 6.747 14.949 C 7.715 15.921,7.808 15.999,8.000 15.999 C 8.192 15.999,8.285 15.921,9.253 14.949 L 10.200 14.000 12.194 14.000 C 14.371 14.000,14.387 13.999,14.766 13.845 C 15.234 13.654,15.654 13.233,15.845 12.765 C 16.010 12.360,16.002 12.636,15.994 7.400 L 15.986 2.627 15.923 2.440 C 15.700 1.770,15.236 1.306,14.559 1.076 C 14.419 1.029,14.161 1.026,8.067 1.022 C 2.806 1.018,1.692 1.023,1.554 1.053 M14.254 2.041 C 14.559 2.119,14.819 2.354,14.931 2.653 C 14.984 2.795,14.987 2.852,14.987 3.908 L 14.987 5.013 8.000 5.013 L 1.013 5.013 1.013 3.908 C 1.013 2.852,1.016 2.795,1.069 2.653 C 1.143 2.456,1.264 2.301,1.441 2.181 C 1.720 1.990,1.225 2.004,7.988 2.002 C 13.377 2.000,14.114 2.005,14.254 2.041 M2.262 3.067 C 2.074 3.167,1.979 3.364,2.012 3.587 C 2.035 3.744,2.197 3.932,2.343 3.973 C 2.406 3.990,3.526 4.000,5.520 3.999 C 8.471 3.999,8.605 3.997,8.710 3.949 C 8.960 3.836,9.070 3.507,8.940 3.266 C 8.896 3.186,8.769 3.073,8.685 3.042 C 8.633 3.022,7.631 3.014,5.485 3.015 C 2.449 3.016,2.357 3.017,2.262 3.067 M14.987 7.507 L 14.987 9.013 8.000 9.013 L 1.013 9.013 1.013 7.507 L 1.013 6.000 8.000 6.000 L 14.987 6.000 14.987 7.507 M2.262 7.067 C 2.074 7.167,1.979 7.364,2.012 7.587 C 2.035 7.744,2.197 7.932,2.343 7.973 C 2.477 8.010,13.523 8.010,13.657 7.973 C 13.803 7.932,13.965 7.744,13.988 7.587 C 14.022 7.361,13.925 7.165,13.732 7.066 C 13.630 7.014,13.551 7.013,7.994 7.015 C 2.477 7.016,2.358 7.017,2.262 7.067 M14.986 11.100 C 14.985 12.085,14.980 12.214,14.937 12.338 C 14.848 12.596,14.619 12.828,14.341 12.942 C 14.201 12.999,14.181 13.000,12.067 13.013 L 9.933 13.027 9.773 13.104 C 9.640 13.169,9.481 13.313,8.807 13.983 L 8.000 14.785 7.193 13.983 C 6.519 13.313,6.360 13.169,6.227 13.104 L 6.067 13.027 3.933 13.013 C 1.819 13.000,1.799 12.999,1.659 12.942 C 1.381 12.828,1.152 12.596,1.063 12.338 C 1.020 12.214,1.015 12.085,1.014 11.100 L 1.013 10.000 8.000 10.000 L 14.987 10.000 14.986 11.100 M2.262 11.067 C 2.074 11.167,1.979 11.364,2.012 11.587 C 2.035 11.744,2.197 11.932,2.343 11.973 C 2.406 11.990,3.853 12.000,6.520 11.999 C 10.447 11.999,10.604 11.997,10.710 11.949 C 10.960 11.836,11.070 11.507,10.940 11.266 C 10.896 11.186,10.769 11.073,10.685 11.042 C 10.633 11.022,9.337 11.014,6.485 11.015 C 2.460 11.016,2.358 11.017,2.262 11.067 " stroke="none" fill-rule="evenodd"></path></svg>