<svg width="16" height="16" fill="currentColor" xmlns="http://www.w3.org/2000/svg"><path d="M1.182 0.040 C 0.675 0.151,0.262 0.517,0.077 1.021 C 0.017 1.183,0.015 1.212,0.006 2.416 C -0.002 3.466,0.003 3.672,0.039 3.828 C 0.163 4.362,0.566 4.785,1.107 4.951 C 1.260 4.998,1.539 5.000,8.000 5.000 C 14.461 5.000,14.740 4.998,14.893 4.951 C 15.435 4.785,15.837 4.360,15.962 3.822 C 15.996 3.674,16.001 3.451,15.994 2.416 C 15.985 1.212,15.983 1.183,15.923 1.021 C 15.761 0.579,15.397 0.221,14.962 0.073 L 14.787 0.013 8.067 0.009 C 2.512 0.005,1.318 0.010,1.182 0.040 M5.693 2.050 C 6.138 2.256,6.076 2.875,5.599 2.985 C 5.438 3.022,2.562 3.022,2.401 2.985 C 1.924 2.875,1.862 2.256,2.307 2.050 C 2.407 2.004,2.514 2.001,4.000 2.001 C 5.486 2.001,5.593 2.004,5.693 2.050 M13.518 2.039 C 13.603 2.083,13.654 2.197,13.635 2.299 C 13.627 2.338,13.512 2.476,13.358 2.628 C 13.002 2.983,12.998 2.983,12.642 2.628 C 12.488 2.476,12.373 2.338,12.365 2.299 C 12.346 2.200,12.396 2.084,12.476 2.040 C 12.579 1.985,13.411 1.984,13.518 2.039 M1.669 6.028 C 0.973 6.146,0.351 6.667,0.121 7.326 C -0.002 7.677,-0.003 7.703,0.005 10.613 L 0.013 13.373 0.076 13.560 C 0.353 14.380,0.973 14.891,1.807 14.986 C 2.126 15.023,13.874 15.023,14.193 14.986 C 15.027 14.891,15.647 14.380,15.924 13.560 L 15.987 13.373 15.994 10.600 C 16.003 7.561,16.006 7.629,15.845 7.234 C 15.666 6.795,15.310 6.422,14.864 6.208 C 14.422 5.995,15.102 6.015,8.080 6.010 C 4.626 6.008,1.741 6.016,1.669 6.028 M14.407 7.085 C 14.584 7.167,14.812 7.392,14.900 7.570 L 14.973 7.720 14.981 8.860 L 14.989 10.000 8.001 10.000 L 1.013 10.000 1.014 8.900 C 1.015 7.915,1.020 7.786,1.063 7.662 C 1.154 7.399,1.399 7.154,1.662 7.063 C 1.793 7.017,2.106 7.015,8.040 7.021 L 14.280 7.027 14.407 7.085 M2.306 8.050 C 1.864 8.251,1.927 8.883,2.400 8.984 C 2.592 9.025,11.408 9.025,11.600 8.984 C 12.073 8.883,12.136 8.251,11.694 8.050 C 11.591 8.003,11.380 8.001,7.000 8.001 C 2.620 8.001,2.409 8.003,2.306 8.050 M14.981 12.141 L 14.973 13.268 14.886 13.446 C 14.784 13.652,14.618 13.814,14.400 13.917 L 14.253 13.987 8.000 13.987 L 1.747 13.987 1.600 13.917 C 1.382 13.814,1.216 13.652,1.114 13.446 L 1.027 13.268 1.019 12.141 L 1.012 11.013 8.000 11.013 L 14.988 11.013 14.981 12.141 M2.306 12.050 C 1.860 12.252,1.927 12.886,2.406 12.985 C 2.505 13.006,3.453 13.012,5.587 13.007 C 8.389 13.001,8.633 12.996,8.709 12.955 C 8.819 12.894,8.955 12.737,8.975 12.646 C 8.984 12.606,8.995 12.560,9.000 12.543 C 9.019 12.481,8.954 12.278,8.888 12.191 C 8.850 12.141,8.770 12.078,8.710 12.051 C 8.605 12.003,8.471 12.001,5.507 12.001 C 2.572 12.001,2.408 12.004,2.306 12.050 " stroke="none" fill-rule="evenodd"></path></svg>