<svg width="16" height="16" fill="currentColor" xmlns="http://www.w3.org/2000/svg"><path d="M4.058 3.054 C 3.036 3.239,2.043 4.005,1.294 5.187 C 1.096 5.500,0.756 6.197,0.604 6.600 C 0.215 7.640,0.000 8.830,0.000 9.952 C -0.000 12.021,0.909 13.376,2.451 13.601 C 2.764 13.647,3.366 13.621,3.636 13.549 C 3.928 13.472,4.294 13.292,4.547 13.100 C 4.980 12.773,5.553 12.112,6.045 11.373 C 6.320 10.961,6.715 10.293,7.346 9.173 C 7.681 8.579,7.969 8.078,7.986 8.059 C 8.010 8.032,8.150 8.248,8.625 9.046 C 9.471 10.465,9.729 10.886,10.036 11.347 C 11.175 13.058,11.972 13.627,13.227 13.627 C 14.684 13.627,15.614 12.711,15.924 10.970 C 15.978 10.666,15.985 10.539,15.986 9.867 C 15.987 9.094,15.969 8.855,15.864 8.227 C 15.404 5.480,13.825 3.370,11.991 3.050 C 11.659 2.992,11.082 3.012,10.800 3.092 C 10.524 3.170,10.060 3.402,9.774 3.604 C 9.462 3.824,8.856 4.428,8.506 4.867 C 8.355 5.057,8.223 5.213,8.214 5.213 C 8.205 5.213,8.076 5.069,7.928 4.893 C 7.605 4.508,7.106 4.018,6.811 3.794 C 6.080 3.241,5.426 3.010,4.603 3.016 C 4.411 3.017,4.165 3.034,4.058 3.054 M11.716 4.412 C 11.946 4.456,12.241 4.585,12.472 4.742 C 13.295 5.300,13.966 6.531,14.276 8.053 C 14.487 9.087,14.529 10.312,14.374 10.919 C 14.267 11.338,14.036 11.659,13.741 11.804 C 13.614 11.866,13.546 11.880,13.330 11.889 C 13.046 11.900,12.887 11.864,12.667 11.737 C 12.237 11.489,11.598 10.583,10.147 8.160 C 9.826 7.625,9.440 6.997,9.289 6.765 C 9.137 6.533,9.013 6.334,9.013 6.323 C 9.013 6.287,9.385 5.757,9.589 5.502 C 10.318 4.592,10.954 4.266,11.716 4.412 M5.158 4.829 C 5.687 5.006,6.256 5.507,6.896 6.362 C 7.048 6.565,7.173 6.741,7.173 6.753 C 7.173 6.765,6.977 7.078,6.738 7.448 C 6.498 7.817,6.076 8.474,5.800 8.907 C 4.858 10.382,4.455 10.953,4.074 11.350 C 3.673 11.768,3.372 11.909,2.925 11.888 C 2.603 11.873,2.408 11.789,2.204 11.575 C 1.851 11.205,1.709 10.638,1.742 9.733 C 1.821 7.572,2.725 5.533,3.870 4.934 C 4.174 4.775,4.308 4.745,4.667 4.757 C 4.895 4.765,5.020 4.783,5.158 4.829 " stroke="none" fill-rule="evenodd"></path></svg>