<svg width="16" height="16" fill="currentColor" xmlns="http://www.w3.org/2000/svg"><path d="M7.613 0.030 C 6.837 0.127,6.070 0.576,5.598 1.209 C 5.441 1.419,5.217 1.837,5.186 1.973 C 5.173 2.033,5.485 2.353,8.093 4.960 L 11.015 7.880 11.006 5.253 C 10.995 2.377,11.003 2.522,10.834 2.027 C 10.466 0.946,9.479 0.156,8.338 0.029 C 8.048 -0.004,7.882 -0.003,7.613 0.030 M2.000 1.000 L 1.640 1.360 7.640 7.360 L 13.640 13.360 14.000 13.000 L 14.360 12.640 8.360 6.640 L 2.360 0.640 2.000 1.000 M4.987 7.040 C 4.987 8.028,5.011 8.410,5.092 8.729 C 5.504 10.340,7.136 11.315,8.735 10.906 C 8.963 10.848,9.381 10.684,9.432 10.633 C 9.459 10.605,9.036 10.169,7.226 8.360 L 4.987 6.120 4.987 7.040 M3.277 6.560 C 3.007 6.702,2.974 6.845,2.995 7.773 C 3.021 8.903,3.134 9.419,3.534 10.227 C 3.926 11.018,4.477 11.648,5.208 12.144 C 5.802 12.547,6.562 12.844,7.251 12.943 L 7.480 12.976 7.487 13.995 L 7.494 15.013 5.933 15.013 C 4.431 15.013,4.367 15.015,4.268 15.066 C 4.075 15.165,3.978 15.361,4.012 15.587 C 4.035 15.744,4.197 15.932,4.343 15.973 C 4.476 16.010,11.524 16.010,11.657 15.973 C 11.803 15.932,11.965 15.744,11.988 15.587 C 12.022 15.361,11.925 15.165,11.732 15.066 C 11.633 15.015,11.569 15.013,10.068 15.013 L 8.507 15.013 8.507 13.999 C 8.507 13.210,8.514 12.983,8.540 12.976 C 8.558 12.971,8.721 12.941,8.902 12.910 C 9.339 12.834,9.752 12.698,10.173 12.494 C 10.477 12.346,10.815 12.150,10.892 12.077 C 10.909 12.061,10.785 11.919,10.562 11.695 L 10.205 11.338 10.107 11.400 C 9.760 11.619,9.313 11.799,8.838 11.910 C 8.546 11.978,8.477 11.984,8.000 11.983 C 7.567 11.983,7.436 11.973,7.218 11.925 C 5.566 11.561,4.371 10.336,4.062 8.694 C 4.032 8.534,4.015 8.225,4.003 7.651 L 3.987 6.836 3.915 6.728 C 3.782 6.526,3.487 6.449,3.277 6.560 M12.271 6.564 C 12.204 6.597,12.126 6.666,12.084 6.728 L 12.013 6.836 11.996 7.651 C 11.987 8.100,11.966 8.539,11.950 8.627 L 11.921 8.787 12.327 9.194 L 12.733 9.601 12.793 9.413 C 12.888 9.115,12.956 8.736,12.986 8.347 C 13.022 7.874,13.021 7.078,12.984 6.907 C 12.914 6.579,12.572 6.415,12.271 6.564 " stroke="none" fill-rule="evenodd"></path></svg>