<svg width="16" height="16" fill="currentColor" xmlns="http://www.w3.org/2000/svg"><path d="M0.000 3.600 L 0.000 7.200 3.733 7.200 L 7.467 7.200 7.467 3.600 L 7.467 0.000 3.733 0.000 L 0.000 0.000 0.000 3.600 M8.533 3.600 L 8.533 7.200 12.267 7.200 L 16.000 7.200 16.000 3.600 L 16.000 0.000 12.267 0.000 L 8.533 0.000 8.533 3.600 M0.000 12.107 L 0.000 16.000 3.733 16.000 L 7.467 16.000 7.467 12.107 L 7.467 8.213 3.733 8.213 L 0.000 8.213 0.000 12.107 M8.533 12.107 L 8.533 16.000 12.267 16.000 L 16.000 16.000 16.000 12.107 L 16.000 8.213 12.267 8.213 L 8.533 8.213 8.533 12.107 " stroke="none" fill-rule="evenodd"></path></svg>