<svg width="16" height="16" fill="currentColor" xmlns="http://www.w3.org/2000/svg"><path d="M8.240 0.050 C 7.463 0.220,6.791 0.789,6.498 1.524 C 6.420 1.720,6.360 1.961,6.332 2.191 L 6.314 2.342 7.071 2.353 C 7.804 2.363,7.833 2.366,8.022 2.433 C 8.450 2.586,8.786 2.870,8.978 3.240 C 9.142 3.559,9.153 3.612,9.171 4.227 L 9.187 4.787 9.253 4.779 C 9.455 4.754,9.871 4.578,10.107 4.418 C 10.284 4.298,10.576 4.009,10.709 3.825 C 10.868 3.602,11.028 3.257,11.097 2.987 C 11.206 2.559,11.173 2.012,11.011 1.573 C 10.743 0.848,10.107 0.277,9.347 0.078 C 9.037 -0.003,8.537 -0.015,8.240 0.050 M13.578 1.534 C 13.119 1.634,12.663 1.998,12.459 2.427 C 12.325 2.710,12.284 2.885,12.285 3.173 C 12.288 3.826,12.662 4.405,13.258 4.678 C 13.505 4.791,13.676 4.827,13.969 4.827 C 15.042 4.827,15.840 3.801,15.574 2.763 C 15.348 1.878,14.474 1.340,13.578 1.534 M0.379 3.429 C 0.302 3.467,0.204 3.542,0.160 3.595 C -0.010 3.802,-0.001 3.581,0.006 7.495 L 0.013 11.053 0.072 11.163 C 0.140 11.290,0.289 11.428,0.425 11.490 C 0.511 11.529,0.852 11.533,4.093 11.533 L 7.667 11.533 7.793 11.471 C 7.863 11.437,7.961 11.360,8.012 11.301 C 8.198 11.084,8.187 11.330,8.187 7.440 C 8.187 3.583,8.196 3.800,8.026 3.594 C 7.982 3.541,7.884 3.467,7.808 3.429 L 7.670 3.360 4.093 3.360 L 0.517 3.360 0.379 3.429 M5.893 5.587 L 5.893 5.947 5.213 5.947 L 4.533 5.947 4.533 7.800 L 4.533 9.653 4.093 9.653 L 3.653 9.653 3.653 7.800 L 3.653 5.947 2.973 5.947 L 2.293 5.947 2.293 5.587 L 2.293 5.227 4.093 5.227 L 5.893 5.227 5.893 5.587 M9.186 5.606 C 9.179 5.625,9.171 6.894,9.167 8.427 L 9.160 11.213 9.087 11.413 C 8.894 11.943,8.454 12.340,7.904 12.481 C 7.712 12.530,7.604 12.533,6.302 12.533 C 5.535 12.533,4.907 12.540,4.907 12.548 C 4.907 12.582,5.030 12.801,5.153 12.987 C 5.790 13.944,6.698 14.557,7.847 14.805 C 8.236 14.889,8.884 14.889,9.273 14.805 C 10.793 14.477,11.957 13.444,12.438 11.997 C 12.657 11.338,12.672 11.093,12.660 8.333 C 12.653 6.535,12.645 6.129,12.614 6.045 C 12.561 5.901,12.395 5.722,12.246 5.649 L 12.120 5.587 10.660 5.579 C 9.486 5.573,9.197 5.578,9.186 5.606 M13.531 5.633 C 13.540 5.666,13.569 5.765,13.594 5.853 C 13.636 6.000,13.640 6.232,13.640 8.600 C 13.640 10.980,13.636 11.210,13.591 11.476 C 13.533 11.821,13.435 12.208,13.345 12.448 C 13.308 12.544,13.289 12.633,13.301 12.645 C 13.338 12.682,13.877 12.616,14.123 12.545 C 14.955 12.304,15.616 11.660,15.874 10.840 C 16.000 10.438,16.004 10.361,15.995 8.160 L 15.987 6.093 15.904 5.947 C 15.805 5.772,15.631 5.643,15.439 5.602 C 15.357 5.585,14.952 5.573,14.409 5.573 L 13.514 5.573 13.531 5.633 " stroke="none" fill-rule="evenodd"></path></svg>