<svg width="16" height="16" fill="currentColor" xmlns="http://www.w3.org/2000/svg"><path d="M0.280 3.055 C 0.236 3.078,0.177 3.117,0.150 3.142 C 0.081 3.203,0.001 3.383,0.001 3.478 C 0.000 3.556,1.472 11.444,1.522 11.632 C 1.557 11.764,1.667 11.890,1.799 11.950 C 1.896 11.994,1.997 11.999,2.853 12.003 C 3.451 12.005,3.752 12.014,3.669 12.028 C 3.230 12.102,2.772 12.366,2.469 12.720 C 1.991 13.278,1.871 14.067,2.156 14.767 C 2.347 15.238,2.762 15.653,3.233 15.844 C 3.993 16.153,4.834 15.986,5.410 15.410 C 6.159 14.661,6.197 13.475,5.497 12.680 C 5.214 12.358,4.749 12.098,4.331 12.028 C 4.259 12.016,5.910 12.006,8.000 12.006 C 10.090 12.006,11.741 12.016,11.669 12.028 C 11.230 12.102,10.772 12.366,10.469 12.720 C 9.991 13.278,9.871 14.067,10.156 14.767 C 10.347 15.238,10.762 15.653,11.233 15.844 C 11.993 16.153,12.834 15.986,13.410 15.410 C 14.159 14.661,14.197 13.475,13.497 12.680 C 13.214 12.358,12.749 12.098,12.331 12.028 C 12.248 12.014,12.549 12.005,13.147 12.003 C 14.003 11.999,14.104 11.994,14.201 11.950 C 14.333 11.890,14.443 11.764,14.478 11.632 C 14.528 11.444,16.000 3.556,15.999 3.478 C 15.998 3.355,15.908 3.188,15.798 3.104 L 15.697 3.027 8.029 3.020 C 1.112 3.014,0.352 3.018,0.280 3.055 M14.240 7.500 L 13.584 11.000 8.000 11.000 L 2.416 11.000 1.760 7.500 L 1.103 4.000 8.000 4.000 L 14.897 4.000 14.240 7.500 M4.431 13.101 C 4.608 13.188,4.833 13.417,4.915 13.593 C 4.963 13.698,4.973 13.768,4.973 14.000 C 4.973 14.251,4.966 14.295,4.901 14.428 C 4.707 14.821,4.268 15.054,3.848 14.986 C 3.533 14.935,3.241 14.717,3.101 14.430 C 3.009 14.243,2.986 13.920,3.050 13.701 C 3.130 13.427,3.385 13.160,3.662 13.061 C 3.873 12.986,4.234 13.005,4.431 13.101 M12.431 13.101 C 12.608 13.188,12.833 13.417,12.915 13.593 C 12.963 13.698,12.973 13.768,12.973 14.000 C 12.973 14.251,12.966 14.295,12.901 14.428 C 12.707 14.821,12.268 15.054,11.848 14.986 C 11.533 14.935,11.241 14.717,11.101 14.430 C 11.009 14.243,10.986 13.920,11.050 13.701 C 11.130 13.427,11.385 13.160,11.662 13.061 C 11.873 12.986,12.234 13.005,12.431 13.101 " stroke="none" fill-rule="evenodd"></path></svg>