<svg width="16" height="16" fill="currentColor" xmlns="http://www.w3.org/2000/svg"><path d="M6.673 0.040 C 6.396 0.101,6.170 0.229,5.947 0.453 C 5.744 0.656,5.652 0.806,5.556 1.093 C 5.509 1.234,5.507 1.470,5.507 7.000 C 5.507 12.530,5.509 12.766,5.556 12.907 C 5.640 13.157,5.737 13.328,5.891 13.499 C 6.134 13.767,6.329 13.873,6.799 13.991 L 6.891 14.015 6.666 14.191 C 6.358 14.431,5.969 14.682,5.562 14.904 C 5.221 15.089,5.113 15.167,5.060 15.266 C 4.929 15.510,5.038 15.834,5.290 15.949 C 5.395 15.997,5.518 15.999,8.000 15.999 C 10.482 15.999,10.605 15.997,10.710 15.949 C 10.962 15.834,11.071 15.510,10.940 15.266 C 10.887 15.167,10.779 15.089,10.438 14.904 C 10.251 14.801,9.976 14.639,9.829 14.542 C 9.555 14.363,9.110 14.028,9.125 14.013 C 9.130 14.008,9.216 13.985,9.317 13.962 C 9.627 13.890,9.830 13.776,10.053 13.549 C 10.255 13.344,10.348 13.192,10.444 12.907 C 10.491 12.766,10.493 12.530,10.493 6.987 L 10.493 1.213 10.417 1.013 C 10.221 0.502,9.817 0.146,9.314 0.039 C 9.061 -0.014,6.921 -0.013,6.673 0.040 M9.192 1.042 C 9.293 1.080,9.381 1.166,9.443 1.286 C 9.492 1.382,9.493 1.533,9.493 7.000 C 9.493 12.521,9.492 12.617,9.441 12.718 C 9.368 12.861,9.251 12.950,9.093 12.984 C 8.911 13.023,7.089 13.023,6.907 12.984 C 6.749 12.950,6.632 12.861,6.559 12.718 C 6.508 12.617,6.507 12.521,6.507 7.000 C 6.507 1.533,6.508 1.382,6.557 1.286 C 6.617 1.170,6.706 1.081,6.800 1.043 C 6.894 1.006,9.093 1.004,9.192 1.042 M7.799 2.050 C 7.579 2.150,7.457 2.387,7.515 2.604 C 7.559 2.769,7.615 2.844,7.751 2.924 C 7.911 3.017,8.089 3.017,8.249 2.924 C 8.385 2.844,8.441 2.769,8.485 2.604 C 8.562 2.316,8.308 2.001,8.000 2.001 C 7.949 2.001,7.858 2.023,7.799 2.050 M7.799 4.050 C 7.579 4.150,7.457 4.387,7.515 4.604 C 7.559 4.769,7.615 4.844,7.751 4.924 C 7.911 5.017,8.089 5.017,8.249 4.924 C 8.522 4.764,8.583 4.425,8.380 4.184 C 8.236 4.013,8.000 3.959,7.799 4.050 M7.799 6.050 C 7.579 6.150,7.457 6.387,7.515 6.604 C 7.559 6.769,7.615 6.844,7.751 6.924 C 7.834 6.973,7.907 6.993,8.000 6.993 C 8.150 6.993,8.337 6.900,8.409 6.789 C 8.489 6.667,8.520 6.497,8.484 6.377 C 8.394 6.077,8.075 5.925,7.799 6.050 M7.799 8.050 C 7.579 8.150,7.457 8.387,7.515 8.604 C 7.559 8.769,7.615 8.844,7.751 8.924 C 7.834 8.973,7.907 8.993,8.000 8.993 C 8.150 8.993,8.337 8.900,8.409 8.789 C 8.489 8.667,8.520 8.497,8.484 8.377 C 8.421 8.165,8.210 8.001,8.000 8.001 C 7.949 8.001,7.858 8.023,7.799 8.050 " stroke="none" fill-rule="evenodd"></path></svg>