<svg width="16" height="16" fill="currentColor" xmlns="http://www.w3.org/2000/svg"><path d="M6.673 0.040 C 6.396 0.101,6.170 0.229,5.947 0.453 C 5.744 0.656,5.652 0.806,5.556 1.093 C 5.509 1.234,5.507 1.470,5.507 7.000 C 5.507 12.530,5.509 12.766,5.556 12.907 C 5.640 13.157,5.737 13.328,5.891 13.499 C 6.134 13.767,6.329 13.873,6.799 13.991 L 6.891 14.015 6.666 14.191 C 6.358 14.431,5.969 14.682,5.562 14.904 C 5.221 15.089,5.113 15.167,5.060 15.266 C 4.929 15.510,5.038 15.834,5.290 15.949 C 5.395 15.997,5.518 15.999,8.000 15.999 C 10.482 15.999,10.605 15.997,10.710 15.949 C 10.962 15.834,11.071 15.510,10.940 15.266 C 10.887 15.167,10.779 15.089,10.438 14.904 C 10.251 14.801,9.976 14.639,9.829 14.542 C 9.555 14.363,9.110 14.028,9.125 14.013 C 9.130 14.008,9.216 13.985,9.317 13.962 C 9.627 13.890,9.830 13.776,10.053 13.549 C 10.255 13.344,10.348 13.192,10.444 12.907 C 10.491 12.766,10.493 12.530,10.493 6.987 L 10.493 1.213 10.417 1.013 C 10.221 0.502,9.817 0.146,9.314 0.039 C 9.061 -0.014,6.921 -0.013,6.673 0.040 M8.180 2.041 C 8.383 2.126,8.488 2.281,8.488 2.496 C 8.488 2.877,8.089 3.115,7.760 2.930 C 7.478 2.771,7.424 2.359,7.658 2.141 C 7.802 2.007,8.005 1.968,8.180 2.041 M8.180 4.041 C 8.383 4.126,8.488 4.281,8.488 4.496 C 8.488 4.877,8.089 5.115,7.760 4.930 C 7.478 4.771,7.424 4.359,7.658 4.141 C 7.802 4.007,8.005 3.968,8.180 4.041 M8.180 6.041 C 8.383 6.126,8.488 6.281,8.488 6.496 C 8.488 6.877,8.089 7.115,7.760 6.930 C 7.478 6.771,7.424 6.359,7.658 6.141 C 7.802 6.007,8.005 5.968,8.180 6.041 M8.180 8.041 C 8.383 8.126,8.488 8.281,8.488 8.496 C 8.488 8.877,8.089 9.115,7.760 8.930 C 7.478 8.771,7.424 8.359,7.658 8.141 C 7.802 8.007,8.005 7.968,8.180 8.041 " stroke="none" fill-rule="evenodd"></path></svg>