<svg width="16" height="16" fill="currentColor" xmlns="http://www.w3.org/2000/svg"><path d="M13.290 0.051 C 13.230 0.078,13.150 0.141,13.112 0.191 C 13.046 0.278,12.981 0.481,13.000 0.543 C 13.005 0.560,13.016 0.606,13.025 0.646 C 13.045 0.737,13.181 0.894,13.291 0.955 C 13.362 0.994,13.482 1.001,14.180 1.008 L 14.987 1.017 14.987 2.388 L 14.987 3.760 14.679 3.760 C 14.425 3.760,14.353 3.769,14.268 3.813 C 13.929 3.986,13.911 4.447,14.236 4.669 C 14.320 4.727,14.362 4.734,14.658 4.742 L 14.987 4.751 14.987 6.120 L 14.987 7.490 14.180 7.498 L 13.373 7.507 13.253 7.577 C 13.008 7.722,12.934 8.018,13.084 8.259 C 13.225 8.486,13.251 8.492,14.180 8.501 L 14.987 8.509 14.987 9.879 L 14.987 11.249 14.658 11.258 C 14.362 11.266,14.320 11.273,14.236 11.331 C 14.077 11.440,14.013 11.559,14.013 11.747 C 14.013 11.881,14.027 11.931,14.087 12.021 C 14.201 12.194,14.329 12.245,14.686 12.261 L 14.987 12.274 14.987 13.644 L 14.987 15.013 14.172 15.013 C 13.513 15.013,13.343 15.021,13.283 15.052 C 13.181 15.104,13.044 15.265,13.025 15.354 C 13.016 15.394,13.005 15.440,13.000 15.457 C 12.981 15.519,13.046 15.722,13.112 15.809 C 13.255 15.996,13.272 15.999,14.480 15.999 C 15.112 16.000,15.598 15.989,15.652 15.974 C 15.773 15.939,15.941 15.772,15.974 15.654 C 16.010 15.525,16.009 0.475,15.973 0.345 C 15.959 0.293,15.908 0.213,15.860 0.167 C 15.688 0.000,15.685 -0.000,14.488 0.001 C 13.483 0.001,13.392 0.005,13.290 0.051 M6.777 1.059 C 6.678 1.108,6.373 1.436,5.866 2.041 C 3.941 4.338,2.653 6.540,2.201 8.307 C 2.042 8.927,2.016 9.130,2.015 9.747 C 2.015 10.387,2.068 10.765,2.231 11.307 C 2.791 13.161,4.259 14.541,6.057 14.905 C 8.548 15.408,10.996 13.866,11.769 11.307 C 11.932 10.765,11.985 10.387,11.985 9.747 C 11.984 9.130,11.958 8.927,11.799 8.307 C 11.341 6.519,10.018 4.271,8.056 1.947 C 7.584 1.388,7.316 1.104,7.216 1.057 C 7.100 1.001,6.892 1.002,6.777 1.059 M7.192 2.465 C 8.148 3.589,9.083 4.896,9.736 6.020 L 9.864 6.240 7.009 6.240 C 4.310 6.240,4.155 6.237,4.172 6.194 C 4.215 6.081,4.678 5.329,4.996 4.854 C 5.500 4.103,6.067 3.357,6.827 2.446 C 6.907 2.349,6.985 2.270,7.000 2.270 C 7.015 2.270,7.101 2.358,7.192 2.465 M10.454 7.460 C 10.664 7.962,10.817 8.443,10.912 8.899 C 10.964 9.145,10.972 9.269,10.973 9.760 C 10.973 10.262,10.966 10.370,10.911 10.627 C 10.720 11.516,10.339 12.226,9.722 12.841 C 9.132 13.429,8.486 13.778,7.687 13.938 C 7.363 14.004,6.637 14.004,6.313 13.938 C 5.561 13.787,4.906 13.447,4.350 12.918 C 3.706 12.305,3.288 11.548,3.088 10.633 C 3.037 10.397,3.028 10.280,3.028 9.773 C 3.027 9.265,3.035 9.148,3.088 8.899 C 3.184 8.442,3.337 7.961,3.546 7.460 L 3.632 7.253 7.000 7.253 L 10.368 7.253 10.454 7.460 " stroke="none" fill-rule="evenodd"></path></svg>