<svg width="16" height="16" fill="currentColor" xmlns="http://www.w3.org/2000/svg"><path d="M5.254 0.018 C 5.217 0.026,5.055 0.091,4.894 0.163 C 3.584 0.750,2.390 1.728,1.547 2.906 C -0.089 5.192,-0.453 8.134,0.578 10.745 C 1.607 13.350,3.910 15.267,6.696 15.838 C 7.275 15.957,7.584 15.984,8.360 15.985 C 9.158 15.985,9.404 15.962,10.064 15.823 C 11.892 15.438,13.635 14.389,14.779 12.985 C 15.122 12.564,15.043 12.061,14.591 11.794 C 14.429 11.698,14.202 11.687,13.806 11.757 C 13.280 11.850,12.908 11.875,12.307 11.859 C 11.484 11.837,10.943 11.741,10.160 11.478 C 9.080 11.116,8.175 10.552,7.345 9.722 C 6.712 9.088,6.330 8.557,5.946 7.773 C 5.698 7.266,5.581 6.958,5.455 6.477 C 4.996 4.730,5.167 3.003,5.962 1.373 C 6.161 0.963,6.197 0.833,6.159 0.637 C 6.093 0.288,5.812 0.032,5.474 0.013 C 5.389 0.008,5.290 0.010,5.254 0.018 M13.915 0.033 C 13.892 0.052,13.804 0.275,13.719 0.530 C 13.549 1.038,13.440 1.238,13.250 1.392 C 13.087 1.524,12.981 1.572,12.500 1.732 C 12.075 1.873,12.000 1.913,12.000 1.997 C 12.000 2.089,12.074 2.129,12.530 2.281 C 13.350 2.555,13.461 2.672,13.750 3.557 C 13.890 3.984,13.931 4.040,14.060 3.981 C 14.108 3.959,14.147 3.872,14.250 3.557 C 14.539 2.672,14.650 2.555,15.470 2.281 C 15.926 2.129,16.000 2.089,16.000 1.997 C 16.000 1.913,15.925 1.873,15.500 1.732 C 15.019 1.572,14.913 1.524,14.750 1.392 C 14.560 1.238,14.451 1.038,14.281 0.530 C 14.196 0.275,14.108 0.052,14.085 0.033 C 14.032 -0.009,13.968 -0.009,13.915 0.033 M10.859 3.060 C 10.825 3.090,10.732 3.331,10.599 3.733 C 10.341 4.519,10.240 4.722,9.974 4.987 C 9.710 5.251,9.551 5.330,8.740 5.599 C 8.047 5.829,8.000 5.854,8.000 6.003 C 8.000 6.143,8.063 6.177,8.768 6.412 C 9.139 6.536,9.523 6.681,9.621 6.736 C 9.874 6.876,10.147 7.161,10.284 7.427 C 10.344 7.544,10.486 7.922,10.600 8.267 C 10.713 8.611,10.826 8.914,10.850 8.938 C 10.919 9.010,11.017 9.020,11.107 8.965 C 11.179 8.920,11.207 8.854,11.397 8.277 C 11.512 7.927,11.656 7.544,11.716 7.427 C 11.853 7.161,12.126 6.876,12.379 6.736 C 12.477 6.681,12.861 6.536,13.232 6.412 C 13.937 6.177,14.000 6.143,14.000 6.003 C 14.000 5.854,13.953 5.829,13.260 5.599 C 12.449 5.330,12.290 5.251,12.026 4.987 C 11.760 4.722,11.659 4.519,11.401 3.733 C 11.268 3.331,11.175 3.090,11.141 3.060 C 11.112 3.034,11.048 3.013,11.000 3.013 C 10.952 3.013,10.888 3.034,10.859 3.060 " stroke="none" fill-rule="evenodd"></path></svg>