<svg width="16" height="16" fill="currentColor" xmlns="http://www.w3.org/2000/svg"><path d="M2.689 0.027 C 2.089 0.129,1.582 0.474,1.277 0.988 C 1.152 1.199,1.047 1.506,1.025 1.727 C 0.996 2.024,1.024 2.000,0.705 2.000 C 0.389 2.000,0.278 2.033,0.140 2.167 C 0.092 2.213,0.041 2.293,0.027 2.345 C 0.011 2.400,0.000 2.892,0.001 3.520 C 0.001 4.517,0.005 4.608,0.051 4.710 C 0.151 4.929,0.342 5.012,0.753 5.013 L 0.987 5.013 0.987 5.507 L 0.987 6.000 0.706 6.000 C 0.389 6.000,0.278 6.033,0.140 6.167 C 0.092 6.213,0.041 6.293,0.027 6.345 C -0.008 6.468,-0.008 7.532,0.026 7.654 C 0.059 7.772,0.227 7.939,0.348 7.974 C 0.398 7.988,0.563 8.000,0.713 8.000 L 0.987 8.000 0.987 8.507 L 0.987 9.013 0.679 9.013 C 0.430 9.013,0.352 9.023,0.272 9.064 C 0.025 9.190,-0.000 9.276,0.001 10.006 C 0.001 10.528,0.007 10.613,0.051 10.710 C 0.150 10.929,0.342 11.012,0.751 11.013 L 0.982 11.013 0.994 12.153 C 1.007 13.439,1.009 13.455,1.215 13.880 C 1.410 14.282,1.718 14.590,2.120 14.785 C 2.604 15.020,1.990 14.998,8.307 15.007 C 12.025 15.013,13.993 15.006,14.165 14.988 C 15.020 14.897,15.643 14.391,15.924 13.560 L 15.987 13.373 15.994 7.600 C 16.002 1.264,16.011 1.643,15.845 1.234 C 15.666 0.795,15.310 0.422,14.864 0.208 C 14.422 -0.005,15.041 0.015,8.587 0.010 C 5.411 0.008,2.757 0.015,2.689 0.027 M14.407 1.085 C 14.584 1.167,14.812 1.392,14.900 1.570 L 14.973 1.720 14.973 7.494 L 14.973 13.268 14.886 13.446 C 14.784 13.652,14.618 13.814,14.400 13.917 L 14.253 13.987 8.507 13.987 L 2.760 13.987 2.597 13.911 C 2.391 13.816,2.186 13.610,2.088 13.400 L 2.013 13.240 2.006 7.575 C 1.999 1.274,1.986 1.725,2.181 1.442 C 2.305 1.261,2.427 1.162,2.629 1.079 L 2.787 1.014 8.533 1.021 L 14.280 1.027 14.407 1.085 M5.290 2.051 C 5.069 2.151,4.988 2.341,4.987 2.763 L 4.987 3.007 4.854 3.019 C 4.781 3.026,4.644 3.070,4.549 3.117 C 4.261 3.258,4.053 3.548,4.011 3.865 L 3.993 4.000 3.697 4.001 C 3.354 4.001,3.224 4.044,3.112 4.191 C 3.046 4.278,2.981 4.481,3.000 4.543 C 3.005 4.560,3.016 4.606,3.025 4.646 C 3.045 4.738,3.182 4.896,3.291 4.953 C 3.348 4.983,3.467 5.000,3.687 5.008 L 4.000 5.020 4.000 5.510 L 4.000 6.000 3.700 6.001 C 3.354 6.001,3.225 6.043,3.112 6.191 C 3.046 6.278,2.981 6.481,3.000 6.543 C 3.005 6.560,3.016 6.606,3.025 6.646 C 3.045 6.738,3.182 6.896,3.291 6.953 C 3.348 6.983,3.467 7.000,3.684 7.008 L 3.994 7.020 4.011 7.143 C 4.065 7.548,4.453 7.936,4.857 7.990 L 4.980 8.006 4.992 8.316 C 5.000 8.533,5.017 8.652,5.047 8.709 C 5.104 8.818,5.262 8.955,5.354 8.975 C 5.394 8.984,5.440 8.995,5.457 9.000 C 5.519 9.019,5.722 8.954,5.809 8.888 C 5.957 8.775,5.999 8.646,5.999 8.300 L 6.000 8.000 6.490 8.000 L 6.980 8.000 6.992 8.313 C 7.000 8.533,7.017 8.652,7.047 8.709 C 7.104 8.818,7.262 8.955,7.354 8.975 C 7.394 8.984,7.440 8.995,7.457 9.000 C 7.519 9.019,7.722 8.954,7.809 8.888 C 7.956 8.776,7.999 8.646,7.999 8.303 L 8.000 8.007 8.135 7.989 C 8.533 7.936,8.911 7.587,8.973 7.213 C 9.009 7.003,8.994 7.013,9.240 7.013 C 9.566 7.013,9.716 6.974,9.839 6.857 C 10.099 6.609,10.025 6.201,9.694 6.050 C 9.612 6.013,9.519 6.001,9.300 6.001 L 9.013 6.000 9.013 5.507 L 9.013 5.013 9.239 5.013 C 9.566 5.013,9.716 4.974,9.839 4.857 C 10.099 4.609,10.025 4.201,9.694 4.050 C 9.612 4.013,9.519 4.001,9.301 4.001 L 9.014 4.000 9.000 3.927 C 8.935 3.594,8.874 3.468,8.690 3.285 C 8.542 3.140,8.341 3.041,8.150 3.021 L 8.000 3.006 8.000 2.723 C 8.000 2.380,7.974 2.277,7.860 2.167 C 7.690 2.002,7.488 1.961,7.290 2.051 C 7.069 2.152,6.988 2.341,6.987 2.767 L 6.987 3.013 6.493 3.013 L 6.000 3.013 6.000 2.727 C 6.000 2.380,5.974 2.277,5.860 2.167 C 5.690 2.002,5.488 1.961,5.290 2.051 M11.290 2.051 C 11.155 2.113,11.052 2.243,11.015 2.401 C 10.976 2.572,10.976 9.416,11.016 9.600 C 11.072 9.863,11.316 10.029,11.587 9.988 C 11.744 9.965,11.932 9.803,11.973 9.657 C 12.009 9.526,12.010 2.477,11.973 2.345 C 11.925 2.170,11.684 1.999,11.488 2.001 C 11.439 2.001,11.351 2.024,11.290 2.051 M13.290 2.051 C 13.155 2.113,13.052 2.243,13.015 2.401 C 12.976 2.572,12.976 9.416,13.016 9.600 C 13.072 9.863,13.316 10.029,13.587 9.988 C 13.744 9.965,13.932 9.803,13.973 9.657 C 14.009 9.526,14.010 2.477,13.973 2.345 C 13.925 2.170,13.684 1.999,13.488 2.001 C 13.439 2.001,13.351 2.024,13.290 2.051 M8.000 5.507 L 8.000 7.013 6.507 7.013 L 5.013 7.013 5.013 5.507 L 5.013 4.000 6.507 4.000 L 8.000 4.000 8.000 5.507 M3.290 10.051 C 3.230 10.078,3.150 10.141,3.112 10.191 C 3.046 10.278,2.981 10.481,3.000 10.543 C 3.005 10.560,3.016 10.606,3.025 10.646 C 3.045 10.737,3.181 10.894,3.291 10.955 C 3.367 10.996,3.611 11.001,6.413 11.007 C 8.547 11.012,9.495 11.006,9.594 10.985 C 10.073 10.886,10.140 10.252,9.694 10.050 C 9.592 10.004,9.428 10.001,6.493 10.001 C 3.529 10.001,3.395 10.003,3.290 10.051 M11.266 11.063 C 11.161 11.127,11.046 11.264,11.020 11.355 C 10.994 11.449,10.994 12.552,11.020 12.646 C 11.046 12.739,11.184 12.896,11.291 12.955 C 11.364 12.995,11.495 13.001,12.410 13.008 C 13.527 13.017,13.655 13.006,13.808 12.889 C 13.981 12.757,13.999 12.674,13.999 12.006 C 14.000 11.276,13.975 11.190,13.728 11.064 C 13.635 11.017,13.555 11.013,12.488 11.013 C 11.423 11.014,11.341 11.017,11.266 11.063 M3.290 12.051 C 3.230 12.078,3.150 12.141,3.112 12.191 C 3.046 12.278,2.981 12.481,3.000 12.543 C 3.005 12.560,3.016 12.606,3.025 12.646 C 3.045 12.737,3.181 12.894,3.291 12.955 C 3.367 12.996,3.611 13.001,6.413 13.007 C 8.547 13.012,9.495 13.006,9.594 12.985 C 10.073 12.886,10.140 12.252,9.694 12.050 C 9.592 12.004,9.428 12.001,6.493 12.001 C 3.529 12.001,3.395 12.003,3.290 12.051 " stroke="none" fill-rule="evenodd"></path></svg>