<svg width="16" height="16" fill="currentColor" xmlns="http://www.w3.org/2000/svg"><path d="M7.400 0.042 C 5.370 0.290,3.683 1.821,3.161 3.890 C 2.996 4.544,3.000 4.451,3.000 8.000 C 3.000 11.549,2.996 11.456,3.161 12.110 C 3.629 13.967,5.036 15.406,6.813 15.849 C 7.284 15.966,7.457 15.986,8.000 15.986 C 8.543 15.986,8.716 15.966,9.187 15.849 C 10.964 15.406,12.371 13.966,12.839 12.110 C 13.004 11.456,13.000 11.549,13.000 8.000 C 13.000 4.451,13.004 4.544,12.839 3.890 C 12.204 1.370,9.894 -0.263,7.400 0.042 M7.493 3.267 L 7.493 5.493 5.743 5.493 L 3.992 5.493 4.008 5.087 C 4.032 4.461,4.134 3.981,4.346 3.487 C 4.825 2.378,5.747 1.524,6.829 1.188 C 7.055 1.118,7.360 1.046,7.447 1.042 C 7.491 1.040,7.493 1.163,7.493 3.267 M8.986 1.136 C 10.157 1.441,11.147 2.313,11.654 3.487 C 11.866 3.980,11.966 4.455,11.992 5.087 L 12.008 5.493 10.257 5.493 L 8.507 5.493 8.507 3.264 L 8.507 1.035 8.620 1.053 C 8.682 1.063,8.847 1.100,8.986 1.136 M11.992 8.927 C 11.983 11.061,11.977 11.373,11.937 11.573 C 11.717 12.682,11.167 13.581,10.320 14.217 C 8.939 15.254,7.061 15.254,5.680 14.217 C 4.833 13.581,4.283 12.682,4.063 11.573 C 4.023 11.373,4.017 11.061,4.008 8.927 L 3.997 6.507 8.000 6.507 L 12.003 6.507 11.992 8.927 " stroke="none" fill-rule="evenodd"></path></svg>