<svg width="16" height="16" fill="currentColor" xmlns="http://www.w3.org/2000/svg"><path d="M9.760 1.521 C 7.597 1.739,5.774 1.932,5.710 1.950 C 5.437 2.025,5.166 2.285,5.047 2.587 C 5.003 2.700,5.000 2.960,4.993 7.045 L 4.986 11.383 4.758 11.276 C 4.403 11.110,4.081 11.036,3.635 11.020 C 3.047 10.999,2.636 11.081,2.173 11.312 C 1.100 11.846,0.703 12.939,1.246 13.865 C 1.451 14.214,1.889 14.580,2.315 14.759 C 3.206 15.132,4.208 15.067,5.035 14.582 C 5.118 14.533,5.301 14.379,5.440 14.240 C 5.729 13.951,5.862 13.730,5.947 13.399 C 5.999 13.196,6.000 13.093,6.000 8.542 C 6.000 4.376,6.004 3.893,6.041 3.893 C 6.093 3.893,13.796 3.126,13.913 3.109 L 14.000 3.097 14.000 6.242 C 14.000 7.971,13.995 9.387,13.988 9.387 C 13.982 9.387,13.895 9.346,13.795 9.296 C 13.111 8.954,12.154 8.916,11.415 9.201 C 10.908 9.397,10.417 9.804,10.206 10.204 C 9.937 10.715,9.937 11.284,10.206 11.796 C 10.327 12.025,10.733 12.446,10.965 12.582 C 12.108 13.252,13.604 13.100,14.467 12.226 C 14.686 12.003,14.827 11.775,14.927 11.480 L 15.000 11.267 15.007 6.656 C 15.014 2.552,15.010 2.028,14.973 1.884 C 14.894 1.577,14.706 1.343,14.431 1.207 C 14.167 1.078,14.110 1.082,9.760 1.521 " stroke="none" fill-rule="evenodd"></path></svg>