<svg width="16" height="16" fill="currentColor" xmlns="http://www.w3.org/2000/svg"><path d="M13.262 1.547 C 12.047 1.791,11.652 1.880,11.546 1.934 C 11.271 2.073,11.075 2.343,11.014 2.666 C 10.996 2.757,10.987 4.326,10.987 7.095 L 10.987 11.383 10.759 11.276 C 10.393 11.105,10.082 11.036,9.613 11.021 C 9.022 11.002,8.639 11.079,8.173 11.311 C 7.099 11.848,6.703 12.939,7.246 13.865 C 7.451 14.214,7.889 14.580,8.315 14.759 C 9.206 15.132,10.208 15.067,11.035 14.582 C 11.118 14.533,11.301 14.379,11.440 14.240 C 11.729 13.951,11.862 13.730,11.947 13.399 C 11.999 13.196,12.000 13.094,12.000 8.996 C 12.000 6.688,12.003 4.800,12.007 4.800 C 12.020 4.800,15.877 4.028,15.940 4.013 L 16.000 3.999 16.000 3.042 C 16.000 2.180,15.995 2.069,15.950 1.924 C 15.821 1.510,15.434 1.225,15.007 1.228 C 14.905 1.229,14.229 1.352,13.262 1.547 M0.262 3.067 C 0.074 3.167,-0.021 3.364,0.012 3.587 C 0.035 3.744,0.197 3.932,0.343 3.973 C 0.406 3.990,1.770 4.000,4.267 3.999 C 7.922 3.999,8.098 3.997,8.201 3.950 C 8.564 3.785,8.603 3.301,8.270 3.090 L 8.150 3.013 4.255 3.015 C 0.457 3.016,0.358 3.017,0.262 3.067 M0.262 7.067 C 0.074 7.167,-0.021 7.364,0.012 7.587 C 0.035 7.744,0.197 7.932,0.343 7.973 C 0.406 7.990,1.770 8.000,4.267 7.999 C 7.922 7.999,8.098 7.997,8.201 7.950 C 8.564 7.785,8.603 7.301,8.270 7.090 L 8.150 7.013 4.255 7.015 C 0.457 7.016,0.358 7.017,0.262 7.067 M0.262 11.067 C 0.074 11.167,-0.021 11.364,0.012 11.587 C 0.035 11.744,0.197 11.932,0.343 11.973 C 0.404 11.990,1.117 12.000,2.267 11.999 C 3.981 11.999,4.100 11.996,4.201 11.950 C 4.564 11.785,4.603 11.301,4.270 11.090 L 4.150 11.013 2.255 11.015 C 0.434 11.016,0.356 11.018,0.262 11.067 " stroke="none" fill-rule="evenodd"></path></svg>