<svg width="16" height="16" fill="currentColor" xmlns="http://www.w3.org/2000/svg"><path d="M3.669 0.028 C 2.991 0.143,2.371 0.651,2.135 1.283 C 1.994 1.659,2.001 1.324,2.000 7.994 C 2.000 14.784,1.990 14.361,2.156 14.767 C 2.347 15.238,2.762 15.653,3.233 15.844 C 3.633 16.007,3.415 16.000,8.000 16.000 C 12.584 16.000,12.367 16.007,12.766 15.845 C 13.233 15.654,13.654 15.233,13.845 14.766 C 14.010 14.361,14.000 14.782,14.000 8.000 C 14.000 1.217,14.010 1.639,13.844 1.233 C 13.666 0.795,13.309 0.422,12.864 0.208 C 12.426 -0.003,12.861 0.015,8.080 0.010 C 5.726 0.008,3.741 0.016,3.669 0.028 M11.400 2.088 C 11.610 2.186,11.816 2.391,11.911 2.597 L 11.987 2.760 11.987 4.254 L 11.987 5.748 11.899 5.925 C 11.791 6.145,11.580 6.345,11.367 6.431 L 11.213 6.493 8.000 6.493 L 4.787 6.493 4.633 6.431 C 4.420 6.345,4.209 6.145,4.101 5.925 L 4.013 5.748 4.013 4.254 L 4.013 2.760 4.088 2.600 C 4.217 2.324,4.489 2.095,4.767 2.029 C 4.823 2.015,6.254 2.007,8.053 2.009 L 11.240 2.013 11.400 2.088 M8.373 8.028 C 9.054 8.116,9.725 8.457,10.187 8.951 C 10.514 9.300,10.774 9.770,10.901 10.237 C 10.965 10.471,10.971 10.537,10.971 11.000 C 10.971 11.463,10.965 11.529,10.901 11.763 C 10.607 12.849,9.735 13.682,8.627 13.937 C 8.328 14.006,7.672 14.006,7.373 13.937 C 6.265 13.682,5.393 12.849,5.100 11.765 C 5.035 11.529,5.029 11.464,5.029 11.000 C 5.029 10.536,5.035 10.471,5.100 10.235 C 5.492 8.786,6.900 7.837,8.373 8.028 M7.734 10.043 C 7.363 10.143,7.088 10.447,7.016 10.840 C 6.937 11.267,7.184 11.722,7.600 11.916 C 7.725 11.974,7.784 11.984,8.000 11.984 C 8.216 11.984,8.275 11.974,8.400 11.916 C 8.816 11.722,9.063 11.267,8.984 10.840 C 8.911 10.441,8.636 10.141,8.254 10.041 C 8.061 9.991,7.926 9.991,7.734 10.043 " stroke="none" fill-rule="evenodd"></path></svg>