<svg width="16" height="16" fill="currentColor" xmlns="http://www.w3.org/2000/svg"><path d="M3.907 0.028 C 3.499 0.044,3.350 0.062,3.142 0.115 C 1.761 0.474,0.674 1.477,0.231 2.802 C 0.098 3.199,0.056 3.435,0.027 3.941 C -0.005 4.489,-0.006 10.732,0.026 11.800 C 0.048 12.548,0.052 12.583,0.132 12.875 C 0.422 13.926,0.991 14.731,1.846 15.298 C 2.302 15.600,2.973 15.873,3.453 15.952 C 3.739 15.999,7.638 15.999,7.685 15.952 C 7.748 15.889,7.764 13.806,7.753 6.832 C 7.743 0.539,7.739 0.101,7.697 0.059 C 7.655 0.017,7.520 0.013,6.032 0.010 C 5.142 0.009,4.185 0.017,3.907 0.028 M9.490 0.019 L 9.366 0.029 9.347 1.368 C 9.337 2.104,9.333 5.671,9.338 9.293 C 9.345 14.722,9.353 15.891,9.382 15.942 L 9.418 16.005 10.916 15.992 C 12.296 15.981,12.434 15.976,12.671 15.925 C 13.236 15.805,13.740 15.593,14.215 15.276 C 14.501 15.085,15.009 14.596,15.222 14.307 C 15.504 13.922,15.778 13.346,15.895 12.887 C 15.992 12.506,16.004 11.862,15.993 7.560 C 15.983 3.522,15.982 3.478,15.927 3.253 C 15.848 2.933,15.695 2.508,15.568 2.256 C 14.931 0.989,13.659 0.128,12.273 0.026 C 11.956 0.003,9.763 -0.002,9.490 0.019 M6.427 8.013 L 6.427 14.720 5.967 14.719 C 5.714 14.718,5.087 14.707,4.573 14.694 C 3.760 14.674,3.614 14.664,3.437 14.616 C 2.450 14.349,1.714 13.629,1.425 12.648 L 1.355 12.413 1.333 10.133 C 1.321 8.879,1.321 6.887,1.333 5.707 C 1.359 3.250,1.343 3.412,1.614 2.867 C 2.026 2.039,2.866 1.425,3.708 1.337 C 3.832 1.324,4.494 1.312,5.180 1.310 L 6.427 1.307 6.427 8.013 M3.796 3.308 C 3.523 3.343,3.206 3.499,2.975 3.710 C 2.672 3.987,2.528 4.336,2.525 4.800 C 2.523 5.131,2.566 5.298,2.714 5.543 C 2.877 5.814,3.092 6.010,3.378 6.153 C 3.614 6.270,3.638 6.276,3.901 6.288 C 4.230 6.302,4.397 6.271,4.658 6.145 C 5.012 5.975,5.317 5.631,5.445 5.258 C 5.532 5.004,5.531 4.620,5.442 4.361 C 5.350 4.091,5.225 3.897,5.027 3.711 C 4.686 3.392,4.252 3.250,3.796 3.308 M12.888 7.240 C 13.433 7.382,13.898 7.839,14.041 8.375 C 14.090 8.559,14.091 9.036,14.043 9.216 C 13.932 9.634,13.589 10.048,13.197 10.235 C 12.918 10.369,12.707 10.411,12.406 10.393 C 11.993 10.368,11.557 10.159,11.293 9.858 C 11.144 9.690,10.969 9.345,10.933 9.150 C 10.895 8.941,10.901 8.599,10.948 8.403 C 11.073 7.873,11.526 7.405,12.067 7.250 C 12.270 7.191,12.682 7.186,12.888 7.240 " stroke="none" fill-rule="evenodd"></path></svg>