<svg width="16" height="16" fill="currentColor" xmlns="http://www.w3.org/2000/svg"><path d="M10.440 3.031 C 8.969 3.207,7.677 3.995,6.842 5.223 C 6.455 5.793,6.155 6.574,6.051 7.282 L 6.021 7.493 5.014 7.493 L 4.007 7.493 3.990 7.340 C 3.923 6.756,3.505 6.248,2.948 6.072 C 2.772 6.017,2.710 6.013,2.000 6.013 C 1.290 6.013,1.228 6.017,1.052 6.072 C 0.682 6.189,0.337 6.480,0.173 6.813 C 0.007 7.148,-0.006 7.248,0.006 8.076 C 0.016 8.760,0.022 8.825,0.077 8.979 C 0.237 9.419,0.596 9.773,1.035 9.925 C 1.206 9.984,1.247 9.987,2.000 9.987 C 2.753 9.987,2.794 9.984,2.965 9.925 C 3.521 9.733,3.924 9.236,3.990 8.660 L 4.007 8.507 5.014 8.507 L 6.021 8.507 6.051 8.718 C 6.298 10.406,7.403 11.866,8.962 12.564 C 10.243 13.137,11.724 13.141,13.019 12.574 C 14.092 12.104,14.986 11.238,15.495 10.177 C 15.686 9.777,15.789 9.485,15.876 9.091 C 16.509 6.240,14.590 3.464,11.703 3.054 C 11.453 3.018,10.665 3.004,10.440 3.031 M13.720 7.551 C 13.954 7.680,14.056 7.948,13.959 8.180 C 13.904 8.312,13.822 8.397,13.693 8.456 C 13.592 8.503,13.458 8.506,11.006 8.506 C 8.210 8.507,8.323 8.512,8.164 8.365 C 8.078 8.286,8.001 8.114,8.001 8.000 C 8.001 7.805,8.173 7.568,8.342 7.531 C 8.381 7.522,8.425 7.511,8.440 7.506 C 8.455 7.501,9.631 7.499,11.053 7.502 C 13.405 7.506,13.647 7.511,13.720 7.551 " stroke="none" fill-rule="evenodd"></path></svg>