<svg width="16" height="16" fill="currentColor" xmlns="http://www.w3.org/2000/svg"><path d="M4.251 1.062 C 4.062 1.127,3.860 1.283,3.753 1.447 C 3.577 1.718,0.281 7.508,0.222 7.653 C 0.138 7.856,0.138 8.144,0.222 8.347 C 0.255 8.428,1.067 9.868,2.027 11.546 C 3.325 13.818,3.801 14.629,3.887 14.715 C 4.024 14.852,4.229 14.952,4.445 14.988 C 4.653 15.022,11.347 15.022,11.555 14.988 C 11.769 14.953,11.964 14.857,12.108 14.717 C 12.203 14.625,12.600 13.949,13.973 11.547 C 14.933 9.868,15.745 8.428,15.778 8.347 C 15.823 8.239,15.839 8.147,15.839 8.000 C 15.839 7.853,15.823 7.761,15.778 7.653 C 15.745 7.572,14.933 6.132,13.973 4.453 C 12.643 2.126,12.201 1.374,12.114 1.288 C 12.050 1.227,11.930 1.143,11.846 1.102 L 11.693 1.027 8.040 1.021 C 4.611 1.015,4.378 1.018,4.251 1.062 M8.834 5.208 C 9.978 5.510,10.855 6.474,11.041 7.633 C 11.088 7.927,11.061 8.566,10.991 8.832 C 10.659 10.084,9.636 10.964,8.360 11.093 C 7.186 11.213,6.008 10.583,5.453 9.539 C 5.175 9.018,5.106 8.728,5.108 8.093 C 5.110 7.661,5.117 7.587,5.180 7.353 C 5.265 7.038,5.441 6.657,5.624 6.393 C 5.786 6.158,6.114 5.827,6.348 5.661 C 6.679 5.427,7.177 5.222,7.598 5.145 C 7.665 5.133,7.912 5.127,8.147 5.131 C 8.503 5.138,8.617 5.151,8.834 5.208 " stroke="none" fill-rule="evenodd"></path></svg>