<svg width="16" height="16" fill="currentColor" xmlns="http://www.w3.org/2000/svg"><path d="M4.278 2.066 C 4.179 2.115,3.885 2.394,3.102 3.179 C 2.223 4.062,2.054 4.243,2.030 4.333 C 2.011 4.402,2.000 4.813,2.000 5.497 L 2.000 6.554 1.822 6.598 C 1.724 6.623,1.546 6.690,1.426 6.747 C 0.079 7.390,-0.406 9.046,0.380 10.322 C 0.699 10.842,1.306 11.289,1.865 11.418 L 2.000 11.449 2.001 13.025 C 2.001 14.506,2.004 14.607,2.051 14.710 C 2.113 14.845,2.243 14.948,2.401 14.985 C 2.567 15.023,13.433 15.023,13.599 14.985 C 13.757 14.948,13.887 14.845,13.949 14.710 C 13.996 14.607,13.999 14.506,13.999 13.025 L 14.000 11.449 14.135 11.418 C 14.343 11.370,14.649 11.234,14.861 11.095 C 15.379 10.755,15.720 10.290,15.910 9.667 C 15.976 9.448,15.983 9.389,15.983 9.000 C 15.983 8.615,15.976 8.551,15.912 8.343 C 15.782 7.917,15.611 7.606,15.339 7.304 C 15.069 7.003,14.562 6.695,14.178 6.598 L 14.000 6.554 14.000 5.497 C 14.000 4.813,13.989 4.402,13.970 4.333 C 13.946 4.243,13.777 4.062,12.898 3.179 C 12.115 2.394,11.821 2.115,11.722 2.066 L 11.590 2.000 8.000 2.000 L 4.410 2.000 4.278 2.066 M12.140 3.860 L 12.987 4.706 12.987 5.832 C 12.987 6.555,12.997 7.007,13.016 7.095 C 13.051 7.257,13.186 7.423,13.315 7.464 C 13.362 7.478,13.484 7.498,13.587 7.507 C 14.208 7.563,14.676 7.907,14.899 8.470 C 14.965 8.636,14.972 8.685,14.972 9.000 C 14.972 9.315,14.965 9.364,14.899 9.530 C 14.755 9.895,14.483 10.191,14.144 10.351 C 13.965 10.436,13.675 10.505,13.499 10.506 C 13.266 10.507,13.066 10.673,13.016 10.907 C 12.997 10.996,12.987 11.556,12.987 12.521 L 12.987 14.000 8.000 14.000 L 3.013 14.000 3.013 12.521 C 3.013 11.556,3.003 10.996,2.984 10.907 C 2.934 10.673,2.734 10.507,2.501 10.506 C 2.325 10.505,2.035 10.436,1.856 10.351 C 1.517 10.191,1.245 9.895,1.101 9.530 C 1.035 9.364,1.028 9.315,1.028 9.000 C 1.028 8.685,1.035 8.636,1.101 8.470 C 1.232 8.138,1.458 7.875,1.761 7.699 C 1.947 7.590,2.095 7.547,2.409 7.508 C 2.659 7.477,2.711 7.462,2.796 7.394 C 2.849 7.352,2.917 7.269,2.947 7.212 C 2.997 7.112,3.000 7.046,3.008 5.907 L 3.015 4.707 3.861 3.860 L 4.706 3.013 8.000 3.013 L 11.293 3.013 12.140 3.860 M7.654 5.521 C 6.274 5.661,5.115 6.590,4.681 7.902 C 4.561 8.264,4.507 8.607,4.507 9.000 C 4.507 10.154,5.055 11.206,6.007 11.874 C 6.370 12.130,6.777 12.307,7.261 12.420 C 7.519 12.480,7.620 12.489,8.000 12.489 C 8.380 12.489,8.481 12.480,8.739 12.420 C 9.223 12.307,9.630 12.130,9.993 11.874 C 10.945 11.206,11.493 10.154,11.493 9.000 C 11.493 7.488,10.537 6.162,9.099 5.680 C 8.676 5.539,8.103 5.476,7.654 5.521 M8.678 6.599 C 9.862 6.949,10.622 8.075,10.480 9.269 C 10.354 10.329,9.644 11.142,8.593 11.429 C 8.378 11.488,7.860 11.508,7.607 11.467 C 6.110 11.227,5.164 9.698,5.619 8.253 C 5.900 7.361,6.654 6.703,7.591 6.533 C 7.662 6.520,7.882 6.514,8.080 6.519 C 8.372 6.527,8.485 6.542,8.678 6.599 M7.734 8.043 C 7.363 8.143,7.088 8.447,7.016 8.840 C 6.937 9.267,7.184 9.722,7.600 9.916 C 7.725 9.974,7.784 9.984,8.000 9.984 C 8.216 9.984,8.275 9.974,8.400 9.916 C 8.816 9.722,9.063 9.267,8.984 8.840 C 8.911 8.441,8.636 8.141,8.254 8.041 C 8.061 7.991,7.926 7.991,7.734 8.043 " stroke="none" fill-rule="evenodd"></path></svg>