<svg width="16" height="16" fill="currentColor" xmlns="http://www.w3.org/2000/svg"><path d="M4.063 2.545 C 3.706 2.631,3.457 2.826,3.121 3.281 C 2.291 4.405,1.775 5.638,1.570 6.987 C 1.493 7.498,1.486 8.437,1.557 8.918 C 1.764 10.337,2.271 11.569,3.121 12.719 C 3.456 13.173,3.689 13.357,4.057 13.455 C 4.271 13.512,11.729 13.512,11.943 13.455 C 12.311 13.357,12.544 13.173,12.879 12.719 C 13.727 11.570,14.237 10.333,14.443 8.918 C 14.508 8.478,14.508 7.522,14.443 7.082 C 14.237 5.667,13.727 4.430,12.879 3.281 C 12.537 2.816,12.269 2.613,11.899 2.536 C 11.684 2.491,4.249 2.499,4.063 2.545 M11.805 3.563 C 11.987 3.698,12.456 4.400,12.748 4.975 C 13.070 5.607,13.280 6.233,13.406 6.933 C 13.470 7.284,13.476 7.383,13.476 8.000 C 13.476 8.617,13.470 8.716,13.406 9.067 C 13.280 9.767,13.070 10.393,12.748 11.025 C 12.456 11.600,11.987 12.302,11.805 12.437 L 11.729 12.493 8.000 12.493 L 4.271 12.493 4.195 12.437 C 4.013 12.302,3.544 11.600,3.252 11.025 C 2.930 10.393,2.720 9.766,2.594 9.067 C 2.531 8.719,2.524 8.612,2.523 8.013 C 2.522 7.441,2.531 7.297,2.582 7.000 C 2.655 6.572,2.769 6.138,2.910 5.749 C 3.223 4.887,4.012 3.599,4.274 3.523 C 4.326 3.508,5.806 3.500,8.045 3.502 L 11.729 3.507 11.805 3.563 M5.874 5.519 C 5.760 5.547,5.611 5.662,5.553 5.768 C 5.512 5.843,5.506 5.954,5.498 6.693 C 5.493 7.248,5.500 7.567,5.519 7.632 C 5.579 7.835,5.794 7.999,6.000 7.999 C 6.206 7.999,6.421 7.835,6.481 7.632 C 6.500 7.567,6.507 7.248,6.502 6.693 C 6.494 5.903,6.490 5.848,6.439 5.760 C 6.329 5.574,6.081 5.468,5.874 5.519 M9.874 5.519 C 9.760 5.547,9.611 5.662,9.553 5.768 C 9.512 5.843,9.506 5.954,9.498 6.693 C 9.493 7.248,9.500 7.567,9.519 7.632 C 9.579 7.835,9.794 7.999,10.000 7.999 C 10.206 7.999,10.421 7.835,10.481 7.632 C 10.500 7.567,10.507 7.248,10.502 6.693 C 10.494 5.903,10.490 5.848,10.439 5.760 C 10.329 5.574,10.081 5.468,9.874 5.519 M7.662 9.061 C 7.401 9.154,7.169 9.384,7.060 9.659 C 7.008 9.787,7.003 9.854,7.002 10.400 L 7.000 11.000 8.000 11.000 L 9.000 11.000 9.008 10.520 C 9.016 9.973,8.991 9.757,8.895 9.562 C 8.808 9.384,8.612 9.190,8.429 9.100 C 8.234 9.005,7.872 8.986,7.662 9.061 " stroke="none" fill-rule="evenodd"></path></svg>