<svg width="16" height="16" fill="currentColor" xmlns="http://www.w3.org/2000/svg"><path d="M7.467 0.017 C 5.118 0.192,3.024 1.327,1.608 3.193 C 0.799 4.260,0.296 5.477,0.073 6.906 C -0.009 7.429,-0.009 8.571,0.073 9.094 C 0.415 11.288,1.476 13.089,3.195 14.393 C 4.257 15.199,5.481 15.705,6.906 15.927 C 7.429 16.009,8.571 16.009,9.094 15.927 C 11.038 15.624,12.690 14.748,13.930 13.362 C 15.030 12.133,15.665 10.775,15.927 9.094 C 16.009 8.571,16.009 7.429,15.927 6.906 C 15.705 5.481,15.199 4.257,14.393 3.195 C 13.070 1.452,11.180 0.355,9.000 0.066 C 8.688 0.025,7.760 -0.005,7.467 0.017 M9.040 1.078 C 11.831 1.511,14.104 3.571,14.781 6.281 C 14.942 6.924,14.973 7.204,14.973 8.000 C 14.973 8.555,14.962 8.775,14.924 9.027 C 14.474 11.939,12.308 14.238,9.437 14.850 C 8.548 15.040,7.452 15.040,6.563 14.850 C 3.952 14.294,1.876 12.308,1.227 9.747 C 1.059 9.083,1.027 8.807,1.027 8.000 C 1.027 7.193,1.059 6.917,1.227 6.253 C 1.847 3.807,3.806 1.848,6.253 1.227 C 6.473 1.171,6.797 1.106,6.973 1.083 C 7.149 1.059,7.329 1.035,7.373 1.029 C 7.574 1.002,8.774 1.037,9.040 1.078 M5.493 8.000 L 5.493 12.000 6.147 12.000 L 6.800 12.000 6.800 10.587 L 6.800 9.173 7.668 9.173 C 8.145 9.173,8.650 9.161,8.791 9.145 C 9.743 9.039,10.483 8.497,10.801 7.674 C 11.078 6.955,11.065 6.107,10.766 5.416 C 10.427 4.632,9.738 4.139,8.827 4.028 C 8.695 4.011,7.956 4.000,7.047 4.000 L 5.493 4.000 5.493 8.000 M8.717 5.159 C 9.344 5.326,9.679 5.822,9.679 6.587 C 9.679 7.341,9.372 7.812,8.747 8.015 C 8.620 8.056,8.473 8.064,7.687 8.074 L 6.773 8.084 6.773 6.602 L 6.773 5.120 7.673 5.120 C 8.368 5.121,8.606 5.129,8.717 5.159 " stroke="none" fill-rule="evenodd"></path></svg>