<svg width="16" height="16" fill="currentColor" xmlns="http://www.w3.org/2000/svg"><path d="M1.669 0.028 C 0.992 0.142,0.371 0.651,0.135 1.283 C -0.006 1.659,0.001 1.324,0.000 7.994 C -0.000 14.784,-0.010 14.361,0.156 14.767 C 0.347 15.238,0.762 15.653,1.233 15.844 C 1.639 16.010,1.217 16.000,8.000 16.000 C 14.782 16.000,14.361 16.010,14.766 15.845 C 15.233 15.654,15.654 15.233,15.845 14.766 C 16.010 14.361,16.000 14.782,16.000 8.000 C 16.000 1.217,16.010 1.639,15.844 1.233 C 15.666 0.795,15.309 0.422,14.864 0.208 C 14.422 -0.005,15.102 0.015,8.080 0.010 C 4.626 0.008,1.741 0.016,1.669 0.028 M8.827 4.028 C 9.300 4.085,9.721 4.248,10.055 4.501 C 10.519 4.853,10.840 5.404,10.950 6.036 C 11.008 6.370,10.987 7.046,10.910 7.339 C 10.792 7.784,10.578 8.170,10.286 8.461 C 9.901 8.847,9.397 9.077,8.791 9.145 C 8.650 9.161,8.139 9.173,7.654 9.173 L 6.773 9.173 6.773 10.587 L 6.773 12.000 6.133 12.000 L 5.493 12.000 5.493 8.000 L 5.493 4.000 7.047 4.000 C 7.956 4.000,8.695 4.011,8.827 4.028 M6.773 6.602 L 6.773 8.084 7.687 8.074 C 8.473 8.064,8.620 8.056,8.747 8.015 C 8.986 7.937,9.147 7.843,9.291 7.697 C 9.557 7.428,9.680 7.076,9.680 6.587 C 9.680 5.820,9.347 5.327,8.717 5.159 C 8.606 5.129,8.368 5.121,7.673 5.120 L 6.773 5.120 6.773 6.602 " stroke="none" fill-rule="evenodd"></path></svg>