<svg width="16" height="16" fill="currentColor" xmlns="http://www.w3.org/2000/svg"><path d="M7.467 0.017 C 5.118 0.192,3.024 1.327,1.608 3.193 C 0.799 4.260,0.296 5.477,0.073 6.906 C -0.009 7.429,-0.009 8.571,0.073 9.094 C 0.415 11.288,1.476 13.089,3.195 14.393 C 4.258 15.200,5.493 15.710,6.906 15.926 C 7.187 15.969,7.400 15.982,7.867 15.983 C 8.402 15.984,8.489 15.978,8.671 15.927 C 8.942 15.851,9.125 15.755,9.288 15.604 C 9.553 15.358,9.682 15.050,9.734 14.542 C 9.768 14.207,9.754 13.901,9.665 13.067 C 9.539 11.875,9.522 11.517,9.574 11.093 C 9.653 10.455,9.907 9.981,10.263 9.809 C 10.459 9.714,10.762 9.690,11.123 9.742 C 11.435 9.787,11.686 9.852,12.773 10.168 C 13.103 10.264,13.503 10.367,13.661 10.398 C 14.499 10.559,15.044 10.457,15.427 10.068 C 15.680 9.811,15.835 9.458,15.940 8.897 C 16.010 8.525,16.003 7.397,15.927 6.906 C 15.707 5.487,15.199 4.258,14.393 3.195 C 13.070 1.452,11.180 0.355,9.000 0.066 C 8.688 0.025,7.760 -0.005,7.467 0.017 M8.282 2.029 C 8.536 2.074,8.850 2.241,9.045 2.433 C 9.640 3.022,9.645 3.959,9.056 4.550 C 8.755 4.851,8.417 4.993,8.000 4.993 C 7.583 4.993,7.245 4.851,6.944 4.550 C 6.651 4.256,6.506 3.908,6.507 3.499 C 6.508 2.929,6.835 2.406,7.342 2.161 C 7.660 2.008,7.944 1.968,8.282 2.029 M3.879 5.054 C 4.386 5.186,4.814 5.616,4.947 6.125 C 4.997 6.319,4.997 6.690,4.947 6.880 C 4.879 7.135,4.747 7.360,4.547 7.560 C 4.235 7.872,3.847 8.019,3.413 7.991 C 2.334 7.920,1.686 6.797,2.167 5.831 C 2.353 5.458,2.709 5.164,3.108 5.054 C 3.290 5.004,3.688 5.004,3.879 5.054 M12.880 5.053 C 13.571 5.237,14.055 5.918,13.990 6.616 C 13.945 7.098,13.705 7.496,13.299 7.762 C 12.465 8.307,11.312 7.855,11.053 6.880 C 11.003 6.690,11.003 6.319,11.053 6.125 C 11.184 5.622,11.611 5.190,12.110 5.055 C 12.297 5.005,12.695 5.004,12.880 5.053 M5.820 10.039 C 6.348 10.151,6.806 10.590,6.947 11.120 C 6.998 11.311,6.997 11.681,6.946 11.879 C 6.776 12.530,6.181 12.990,5.506 12.993 C 5.086 12.994,4.753 12.857,4.451 12.560 C 3.782 11.900,3.882 10.801,4.661 10.262 C 4.990 10.034,5.414 9.953,5.820 10.039 " stroke="none" fill-rule="evenodd"></path></svg>