<svg width="16" height="16" fill="currentColor" xmlns="http://www.w3.org/2000/svg"><path d="M7.526 0.038 C 7.101 0.119,6.715 0.276,6.360 0.514 C 6.272 0.573,5.995 0.824,5.745 1.071 L 5.291 1.521 4.825 1.503 C 4.294 1.483,3.924 1.516,3.590 1.613 C 2.929 1.805,2.355 2.227,1.978 2.799 C 1.790 3.084,1.675 3.346,1.580 3.705 C 1.518 3.938,1.511 4.019,1.500 4.640 L 1.488 5.320 1.043 5.773 C 0.798 6.023,0.550 6.299,0.493 6.387 C -0.162 7.388,-0.162 8.612,0.493 9.613 C 0.550 9.701,0.798 9.977,1.043 10.227 L 1.488 10.680 1.500 11.360 C 1.511 11.981,1.518 12.062,1.580 12.295 C 1.775 13.031,2.193 13.623,2.799 14.022 C 3.084 14.210,3.346 14.325,3.705 14.420 C 3.938 14.482,4.019 14.489,4.640 14.500 L 5.320 14.512 5.773 14.957 C 6.023 15.202,6.299 15.450,6.387 15.507 C 7.382 16.158,8.608 16.161,9.600 15.516 C 9.695 15.454,9.977 15.203,10.227 14.958 L 10.680 14.512 11.360 14.500 C 11.981 14.489,12.062 14.482,12.295 14.420 C 12.654 14.325,12.916 14.210,13.201 14.022 C 13.807 13.623,14.225 13.031,14.420 12.295 C 14.482 12.062,14.489 11.981,14.500 11.360 L 14.512 10.680 14.958 10.227 C 15.203 9.977,15.454 9.695,15.516 9.600 C 16.157 8.614,16.157 7.386,15.516 6.400 C 15.454 6.305,15.203 6.023,14.958 5.773 L 14.512 5.320 14.500 4.640 C 14.489 4.019,14.482 3.938,14.420 3.705 C 14.325 3.346,14.210 3.084,14.022 2.799 C 13.648 2.232,13.068 1.804,12.418 1.616 C 12.077 1.517,11.710 1.483,11.173 1.503 L 10.705 1.519 10.279 1.092 C 10.045 0.857,9.767 0.605,9.662 0.532 C 9.390 0.344,9.016 0.171,8.707 0.091 C 8.375 0.005,7.828 -0.019,7.526 0.038 M10.180 6.041 C 10.470 6.162,10.579 6.482,10.421 6.748 C 10.316 6.924,7.318 9.907,7.194 9.959 C 7.068 10.011,6.932 10.011,6.806 9.959 C 6.689 9.910,5.210 8.453,5.090 8.268 C 4.935 8.029,5.017 7.695,5.261 7.568 C 5.395 7.499,5.604 7.493,5.721 7.554 C 5.764 7.578,6.064 7.861,6.386 8.185 C 6.709 8.509,6.985 8.773,7.000 8.773 C 7.015 8.773,7.627 8.172,8.360 7.437 C 9.254 6.541,9.728 6.085,9.800 6.051 C 9.931 5.990,10.050 5.987,10.180 6.041 " stroke="none" fill-rule="evenodd"></path></svg>