<svg width="16" height="16" fill="currentColor" xmlns="http://www.w3.org/2000/svg"><path d="M5.874 3.519 C 5.760 3.547,5.611 3.662,5.553 3.768 C 5.510 3.848,5.506 4.107,5.500 7.943 C 5.495 10.872,5.501 12.063,5.522 12.142 C 5.561 12.287,5.716 12.439,5.865 12.480 C 6.134 12.552,6.409 12.398,6.480 12.135 C 6.498 12.065,6.505 10.708,6.500 7.943 C 6.493 3.876,6.493 3.853,6.439 3.760 C 6.329 3.574,6.081 3.468,5.874 3.519 M9.874 3.519 C 9.760 3.547,9.611 3.662,9.553 3.768 C 9.510 3.848,9.506 4.107,9.500 7.943 C 9.495 10.872,9.501 12.063,9.522 12.142 C 9.561 12.287,9.716 12.439,9.865 12.480 C 10.134 12.552,10.409 12.398,10.480 12.135 C 10.498 12.065,10.505 10.708,10.500 7.943 C 10.493 3.876,10.493 3.853,10.439 3.760 C 10.329 3.574,10.081 3.468,9.874 3.519 " stroke="none" fill-rule="evenodd"></path></svg>