<svg width="16" height="16" fill="currentColor" xmlns="http://www.w3.org/2000/svg"><path d="M1.669 2.028 C 0.992 2.142,0.371 2.651,0.135 3.283 C -0.004 3.654,0.001 3.489,0.000 7.994 C -0.000 12.586,-0.007 12.367,0.156 12.767 C 0.347 13.238,0.762 13.653,1.233 13.844 C 1.639 14.010,1.217 14.000,8.000 14.000 C 14.782 14.000,14.361 14.010,14.766 13.845 C 15.233 13.654,15.654 13.233,15.845 12.766 C 16.007 12.367,16.000 12.584,16.000 8.000 C 16.000 3.415,16.007 3.633,15.844 3.233 C 15.666 2.795,15.309 2.422,14.864 2.208 C 14.422 1.995,15.102 2.015,8.080 2.010 C 4.626 2.008,1.741 2.016,1.669 2.028 M14.407 3.085 C 14.584 3.167,14.812 3.392,14.900 3.570 L 14.973 3.720 14.973 8.000 L 14.973 12.280 14.901 12.428 C 14.757 12.720,14.468 12.934,14.145 12.987 C 13.929 13.022,2.071 13.022,1.855 12.987 C 1.532 12.934,1.243 12.720,1.099 12.428 L 1.027 12.280 1.020 8.055 C 1.012 3.368,1.001 3.679,1.189 3.424 C 1.313 3.257,1.488 3.123,1.662 3.063 C 1.793 3.017,2.106 3.015,8.040 3.021 L 14.280 3.027 14.407 3.085 M5.907 5.049 C 5.474 5.193,5.162 5.507,5.050 5.913 C 5.003 6.081,5.000 6.221,5.000 8.013 C 5.000 9.797,5.003 9.945,5.049 10.093 C 5.314 10.963,6.355 11.281,7.056 10.706 C 7.209 10.581,7.375 10.325,7.440 10.115 C 7.491 9.948,7.493 9.869,7.493 8.000 C 7.493 6.131,7.491 6.052,7.440 5.885 C 7.332 5.538,7.087 5.266,6.732 5.102 C 6.596 5.039,6.534 5.027,6.293 5.021 C 6.114 5.017,5.975 5.027,5.907 5.049 M9.400 5.049 C 8.993 5.183,8.681 5.494,8.560 5.885 C 8.509 6.052,8.507 6.131,8.507 7.998 C 8.507 10.108,8.503 10.049,8.659 10.358 C 8.758 10.554,8.979 10.760,9.206 10.867 C 9.919 11.205,10.721 10.849,10.951 10.093 C 10.997 9.945,11.000 9.797,11.000 8.013 C 11.000 6.221,10.997 6.081,10.950 5.913 C 10.853 5.559,10.625 5.296,10.267 5.124 C 10.081 5.034,10.047 5.027,9.787 5.021 C 9.609 5.017,9.468 5.027,9.400 5.049 " stroke="none" fill-rule="evenodd"></path></svg>