<svg width="16" height="16" fill="currentColor" xmlns="http://www.w3.org/2000/svg"><path d="M4.528 0.035 C 4.367 0.087,4.206 0.219,4.128 0.363 C 4.062 0.485,3.973 1.021,3.026 7.015 C 2.385 11.074,2.002 13.573,2.010 13.638 C 2.027 13.775,2.097 13.866,2.241 13.940 C 2.358 14.000,2.358 14.000,3.768 14.000 L 5.178 14.000 5.163 14.073 C 5.085 14.468,4.960 15.391,4.974 15.465 C 5.016 15.690,5.214 15.920,5.411 15.973 C 5.484 15.992,5.977 15.999,6.939 15.994 C 8.357 15.987,8.360 15.987,8.493 15.925 C 8.733 15.815,8.915 15.598,8.985 15.340 C 9.002 15.278,9.128 14.508,9.267 13.630 C 9.405 12.752,9.530 11.983,9.544 11.921 C 9.573 11.788,9.656 11.691,9.771 11.656 C 9.816 11.642,10.129 11.625,10.467 11.617 C 11.292 11.599,11.796 11.519,12.436 11.305 C 13.408 10.981,14.160 10.400,14.726 9.533 C 15.189 8.826,15.453 8.012,15.573 6.920 C 15.698 5.786,15.412 4.834,14.763 4.221 C 14.575 4.043,14.504 3.990,14.213 3.807 L 14.066 3.715 14.084 3.451 C 14.127 2.848,14.025 2.292,13.786 1.813 C 13.363 0.967,12.540 0.404,11.373 0.164 C 10.667 0.018,10.687 0.019,7.547 0.010 C 5.322 0.004,4.603 0.010,4.528 0.035 M14.467 4.654 C 14.651 4.844,14.828 5.139,14.925 5.418 C 15.133 6.016,15.112 6.928,14.867 7.856 C 14.640 8.721,14.292 9.362,13.761 9.895 C 13.206 10.452,12.540 10.794,11.658 10.974 C 11.233 11.060,10.929 11.090,10.276 11.109 C 9.970 11.118,9.677 11.136,9.625 11.149 C 9.387 11.208,9.135 11.461,9.056 11.720 C 9.033 11.793,8.895 12.612,8.749 13.539 C 8.595 14.514,8.465 15.258,8.441 15.305 C 8.350 15.481,8.362 15.479,6.960 15.488 C 6.263 15.493,5.654 15.489,5.607 15.480 C 5.455 15.452,5.398 15.903,6.108 11.507 C 6.343 10.055,6.540 8.852,6.546 8.835 C 6.571 8.763,6.779 8.747,7.681 8.747 C 8.188 8.747,8.764 8.734,8.961 8.719 C 11.645 8.511,13.244 7.205,13.875 4.702 L 13.983 4.272 14.145 4.380 C 14.234 4.440,14.379 4.563,14.467 4.654 " stroke="none" fill-rule="evenodd"></path></svg>