<svg width="16" height="16" fill="currentColor" xmlns="http://www.w3.org/2000/svg"><path d="M6.960 0.069 C 5.224 0.298,3.587 1.106,2.346 2.346 C 1.107 3.586,0.358 5.086,0.072 6.906 C -0.012 7.440,-0.010 8.567,0.076 9.120 C 0.253 10.270,0.640 11.324,1.227 12.257 C 1.383 12.504,1.740 12.992,1.918 13.200 L 1.998 13.293 4.746 10.547 L 7.493 7.800 7.493 3.913 L 7.493 0.027 7.367 0.029 C 7.297 0.031,7.114 0.049,6.960 0.069 M8.507 3.913 L 8.507 7.800 11.254 10.547 L 14.002 13.293 14.082 13.200 C 14.258 12.995,14.616 12.506,14.766 12.267 C 15.359 11.326,15.746 10.273,15.925 9.120 C 16.010 8.570,16.011 7.443,15.927 6.906 C 15.804 6.115,15.585 5.360,15.290 4.704 C 14.262 2.423,12.153 0.714,9.720 0.191 C 9.350 0.111,8.772 0.027,8.598 0.027 L 8.507 0.027 8.507 3.913 M5.093 11.614 L 2.707 14.002 2.800 14.082 C 3.575 14.744,4.538 15.285,5.504 15.598 C 6.107 15.794,6.994 15.973,7.367 15.973 L 7.493 15.973 7.493 12.600 C 7.493 10.745,7.490 9.227,7.487 9.227 C 7.483 9.227,6.406 10.301,5.093 11.614 M8.507 12.593 L 8.507 15.973 8.633 15.973 C 8.703 15.973,8.916 15.950,9.108 15.922 C 10.254 15.753,11.315 15.365,12.266 14.767 C 12.507 14.615,12.997 14.254,13.200 14.079 L 13.292 13.999 10.900 11.606 L 8.507 9.213 8.507 12.593 " stroke="none" fill-rule="evenodd"></path></svg>