<svg width="16" height="16" fill="currentColor" xmlns="http://www.w3.org/2000/svg"><path d="M12.360 0.020 C 12.331 0.027,12.259 0.067,12.200 0.108 C 12.141 0.149,9.837 2.443,7.078 5.205 L 2.064 10.227 1.032 12.814 C 0.464 14.237,0.000 15.437,0.000 15.481 C 0.001 15.768,0.232 16.000,0.519 16.000 C 0.563 16.000,1.763 15.536,3.186 14.968 L 5.773 13.936 10.807 8.908 C 13.576 6.143,15.872 3.835,15.911 3.781 C 15.993 3.662,16.019 3.485,15.974 3.343 C 15.947 3.260,15.636 2.934,14.377 1.671 C 13.316 0.606,12.779 0.085,12.707 0.051 C 12.604 0.003,12.473 -0.009,12.360 0.020 M13.653 2.360 L 14.786 3.493 14.140 4.140 L 13.493 4.787 12.353 3.647 L 11.214 2.507 11.853 1.867 C 12.205 1.515,12.499 1.227,12.507 1.227 C 12.514 1.227,13.030 1.737,13.653 2.360 M11.653 4.360 L 12.787 5.493 9.533 8.747 L 6.280 12.000 6.140 12.000 L 6.000 12.000 6.000 11.706 C 6.000 11.307,5.944 11.174,5.728 11.064 C 5.648 11.023,5.570 11.013,5.321 11.013 L 5.013 11.013 5.013 10.767 C 5.012 10.465,4.978 10.309,4.888 10.191 C 4.775 10.043,4.646 10.001,4.300 10.001 L 4.000 10.000 4.000 9.860 L 4.000 9.720 7.247 6.473 C 9.032 4.688,10.499 3.227,10.507 3.227 C 10.514 3.227,11.030 3.737,11.653 4.360 M3.289 10.952 C 3.349 10.983,3.465 11.000,3.687 11.008 L 4.000 11.020 4.000 11.290 C 4.000 11.628,4.027 11.723,4.155 11.848 C 4.284 11.975,4.377 12.000,4.710 12.000 L 4.980 12.000 4.992 12.313 C 5.005 12.669,5.032 12.743,5.199 12.886 L 5.306 12.978 5.246 13.033 C 5.187 13.088,1.444 14.600,1.422 14.578 C 1.400 14.556,2.912 10.813,2.967 10.754 L 3.022 10.694 3.114 10.801 C 3.164 10.860,3.243 10.928,3.289 10.952 " stroke="none" fill-rule="evenodd"></path></svg>