<svg width="16" height="16" fill="currentColor" xmlns="http://www.w3.org/2000/svg"><path d="M7.776 0.204 C 7.734 0.227,6.007 1.620,3.940 3.301 C -0.086 6.572,0.082 6.425,0.081 6.665 C 0.080 6.812,2.898 15.702,2.979 15.810 C 3.017 15.859,3.097 15.922,3.157 15.949 C 3.263 15.997,3.434 15.999,8.000 15.999 C 12.566 15.999,12.737 15.997,12.843 15.949 C 12.903 15.922,12.984 15.859,13.021 15.810 C 13.103 15.702,15.920 6.812,15.919 6.665 C 15.918 6.426,16.084 6.571,12.061 3.301 C 9.993 1.621,8.264 0.226,8.219 0.203 C 8.114 0.149,7.877 0.149,7.776 0.204 " stroke="none" fill-rule="evenodd"></path></svg>