<svg width="16" height="16" fill="currentColor" xmlns="http://www.w3.org/2000/svg"><path d="M7.773 0.205 C 7.729 0.229,6.003 1.623,3.937 3.302 C -0.085 6.571,0.082 6.425,0.081 6.665 C 0.080 6.812,2.897 15.702,2.979 15.810 C 3.016 15.859,3.097 15.922,3.157 15.949 C 3.263 15.997,3.434 15.999,8.000 15.999 C 12.566 15.999,12.737 15.997,12.843 15.949 C 12.903 15.922,12.983 15.859,13.021 15.810 C 13.102 15.702,15.920 6.811,15.919 6.665 C 15.918 6.425,16.086 6.572,12.063 3.301 C 9.996 1.622,8.268 0.228,8.221 0.204 C 8.113 0.148,7.878 0.149,7.773 0.205 M11.316 3.985 C 13.103 5.438,14.580 6.639,14.599 6.654 C 14.618 6.669,14.659 6.723,14.690 6.774 C 14.808 6.967,14.836 6.863,13.557 10.914 C 12.903 12.985,12.351 14.712,12.331 14.752 C 12.277 14.855,12.138 14.953,11.999 14.985 C 11.923 15.002,11.176 15.012,9.940 15.013 L 8.000 15.013 8.000 8.158 C 8.000 2.682,8.007 1.308,8.033 1.324 C 8.052 1.335,9.529 2.532,11.316 3.985 " stroke="none" fill-rule="evenodd"></path></svg>