<svg width="16" height="16" fill="currentColor" xmlns="http://www.w3.org/2000/svg"><path d="M7.777 0.204 C 7.735 0.226,6.008 1.620,3.940 3.300 C -0.086 6.571,0.082 6.425,0.081 6.665 C 0.080 6.812,2.897 15.702,2.979 15.810 C 3.016 15.859,3.097 15.922,3.157 15.949 C 3.263 15.997,3.434 15.999,8.000 15.999 C 12.566 15.999,12.737 15.997,12.843 15.949 C 12.903 15.922,12.983 15.859,13.021 15.810 C 13.102 15.702,15.920 6.811,15.919 6.665 C 15.918 6.423,16.091 6.574,12.060 3.299 C 9.993 1.620,8.265 0.227,8.219 0.203 C 8.114 0.149,7.878 0.149,7.777 0.204 M8.273 1.520 C 8.342 1.571,14.235 6.349,14.550 6.611 C 14.680 6.718,14.747 6.854,14.747 7.011 C 14.747 7.117,14.481 7.988,13.557 10.914 C 12.903 12.985,12.351 14.712,12.331 14.752 C 12.277 14.855,12.138 14.953,11.999 14.985 C 11.834 15.023,4.166 15.023,4.001 14.985 C 3.862 14.953,3.722 14.855,3.670 14.752 C 3.649 14.712,3.096 12.983,2.440 10.908 C 1.529 8.026,1.249 7.106,1.249 7.006 C 1.250 6.919,1.271 6.842,1.312 6.773 C 1.355 6.701,2.312 5.908,4.547 4.092 C 6.292 2.674,7.756 1.497,7.800 1.477 C 7.922 1.420,8.167 1.442,8.273 1.520 " stroke="none" fill-rule="evenodd"></path></svg>