<svg width="16" height="16" fill="currentColor" xmlns="http://www.w3.org/2000/svg"><path d="M1.554 1.053 C 0.869 1.203,0.320 1.718,0.076 2.440 L 0.013 2.627 0.006 7.400 C -0.002 12.636,-0.010 12.360,0.155 12.766 C 0.347 13.238,0.761 13.652,1.233 13.844 C 1.639 14.010,1.217 14.000,8.000 14.000 C 14.782 14.000,14.361 14.010,14.766 13.845 C 15.234 13.654,15.654 13.233,15.845 12.765 C 16.010 12.360,16.002 12.636,15.994 7.400 L 15.986 2.627 15.923 2.440 C 15.700 1.770,15.236 1.306,14.559 1.076 C 14.419 1.029,14.161 1.026,8.067 1.022 C 2.806 1.018,1.692 1.023,1.554 1.053 M4.000 3.000 L 4.000 4.000 2.507 4.000 L 1.013 4.000 1.013 3.401 C 1.013 2.859,1.019 2.788,1.069 2.653 C 1.143 2.456,1.264 2.301,1.441 2.181 C 1.689 2.011,1.752 2.004,2.940 2.002 L 4.000 2.000 4.000 3.000 M14.254 2.041 C 14.560 2.119,14.819 2.354,14.931 2.654 L 14.987 2.804 14.980 7.542 L 14.973 12.280 14.917 12.400 C 14.886 12.466,14.823 12.566,14.778 12.622 L 14.696 12.724 14.590 12.513 C 14.253 11.843,13.684 11.211,13.053 10.805 C 12.793 10.637,12.275 10.393,11.973 10.296 C 11.323 10.086,10.831 10.017,10.000 10.017 C 9.171 10.017,8.685 10.085,8.027 10.295 C 7.631 10.421,7.018 10.737,6.691 10.984 C 6.066 11.455,5.540 12.142,5.255 12.860 C 5.197 13.004,5.189 13.013,5.104 13.013 L 5.013 13.013 5.013 7.507 L 5.013 2.000 9.554 2.000 C 13.536 2.000,14.115 2.005,14.254 2.041 M9.556 4.091 C 9.047 4.188,8.649 4.395,8.270 4.758 C 7.945 5.071,7.751 5.381,7.618 5.804 C 7.246 6.983,7.800 8.261,8.915 8.799 C 9.304 8.986,9.496 9.027,10.000 9.027 C 10.378 9.027,10.469 9.018,10.648 8.966 C 12.187 8.520,12.940 6.839,12.234 5.427 C 12.067 5.093,11.719 4.696,11.407 4.484 C 11.211 4.351,10.862 4.193,10.627 4.132 C 10.351 4.060,9.824 4.040,9.556 4.091 M4.000 6.013 L 4.000 7.013 2.507 7.013 L 1.013 7.013 1.013 6.013 L 1.013 5.013 2.507 5.013 L 4.000 5.013 4.000 6.013 M4.000 9.000 L 4.000 10.000 2.507 10.000 L 1.013 10.000 1.013 9.000 L 1.013 8.000 2.507 8.000 L 4.000 8.000 4.000 9.000 M4.000 12.013 L 4.000 13.013 3.007 13.013 C 2.460 13.013,1.942 13.001,1.855 12.987 C 1.532 12.934,1.243 12.720,1.099 12.428 C 1.027 12.281,1.027 12.274,1.018 11.647 L 1.010 11.013 2.505 11.013 L 4.000 11.013 4.000 12.013 " stroke="none" fill-rule="evenodd"></path></svg>