<svg width="16" height="16" fill="currentColor" xmlns="http://www.w3.org/2000/svg"><path d="M5.606 2.029 C 4.945 2.114,4.259 2.470,3.802 2.964 C 2.960 3.874,2.764 5.196,3.306 6.310 C 3.707 7.133,4.462 7.728,5.373 7.937 C 5.672 8.006,6.328 8.006,6.627 7.937 C 7.923 7.639,8.850 6.591,8.987 5.268 C 9.020 4.942,8.987 4.569,8.893 4.216 C 8.508 2.780,7.090 1.836,5.606 2.029 M12.280 5.058 C 12.156 5.123,12.103 5.177,12.050 5.293 C 11.990 5.424,11.987 5.570,12.041 5.699 C 12.066 5.761,12.303 6.020,12.680 6.399 L 13.279 7.001 12.719 7.561 C 12.411 7.868,12.128 8.165,12.089 8.219 C 11.955 8.413,11.986 8.700,12.159 8.866 C 12.301 9.002,12.559 9.032,12.747 8.934 C 12.784 8.915,13.080 8.635,13.407 8.311 L 14.000 7.723 14.593 8.311 C 14.920 8.635,15.216 8.915,15.253 8.934 C 15.434 9.029,15.694 9.003,15.831 8.877 C 15.985 8.736,16.039 8.491,15.959 8.301 C 15.934 8.239,15.697 7.980,15.320 7.601 L 14.721 6.999 15.281 6.439 C 15.589 6.132,15.872 5.835,15.911 5.781 C 16.031 5.608,16.022 5.356,15.889 5.188 C 15.763 5.027,15.458 4.962,15.272 5.057 C 15.225 5.081,14.920 5.365,14.593 5.689 L 14.000 6.277 13.407 5.689 C 13.080 5.365,12.775 5.081,12.728 5.057 C 12.620 5.002,12.385 5.002,12.280 5.058 M5.040 9.043 C 2.585 9.254,0.867 10.322,0.198 12.054 C 0.150 12.180,0.084 12.409,0.052 12.562 C -0.106 13.327,0.127 13.801,0.738 13.960 C 0.969 14.020,11.031 14.020,11.262 13.960 C 11.873 13.801,12.106 13.327,11.948 12.562 C 11.780 11.750,11.287 10.949,10.605 10.381 C 9.679 9.610,8.472 9.171,6.920 9.041 C 6.549 9.010,5.410 9.011,5.040 9.043 " stroke="none" fill-rule="evenodd"></path></svg>