<svg width="16" height="16" fill="currentColor" xmlns="http://www.w3.org/2000/svg"><path d="M7.606 2.029 C 6.945 2.114,6.259 2.470,5.802 2.964 C 4.960 3.874,4.764 5.196,5.306 6.310 C 5.707 7.133,6.462 7.728,7.373 7.937 C 7.672 8.006,8.328 8.006,8.627 7.937 C 9.923 7.639,10.850 6.591,10.987 5.268 C 11.020 4.942,10.987 4.569,10.893 4.216 C 10.508 2.780,9.090 1.836,7.606 2.029 M7.040 9.041 C 4.558 9.269,2.868 10.321,2.198 12.054 C 1.991 12.590,1.947 13.142,2.087 13.447 C 2.165 13.617,2.324 13.787,2.478 13.866 C 2.746 14.002,2.696 14.000,5.569 14.000 L 8.246 14.000 8.229 13.940 C 8.082 13.422,8.033 13.141,8.010 12.693 C 7.948 11.456,8.430 10.210,9.314 9.326 C 9.430 9.210,9.520 9.112,9.516 9.108 C 9.439 9.045,7.557 8.993,7.040 9.041 M11.907 9.053 C 11.169 9.189,10.552 9.510,10.026 10.031 C 8.634 11.410,8.668 13.693,10.102 15.045 C 10.737 15.644,11.624 16.000,12.485 16.000 C 14.008 16.001,15.352 15.029,15.824 13.587 C 15.936 13.243,15.975 13.024,15.990 12.627 C 16.015 12.018,15.906 11.512,15.627 10.947 C 15.137 9.950,14.185 9.239,13.095 9.056 C 12.793 9.005,12.174 9.003,11.907 9.053 M12.688 10.041 C 12.800 10.087,14.374 11.639,14.446 11.773 C 14.502 11.878,14.501 12.123,14.445 12.230 C 14.367 12.381,14.165 12.506,14.000 12.506 C 13.836 12.506,13.740 12.441,13.385 12.091 C 13.187 11.894,13.016 11.733,13.005 11.733 C 12.995 11.733,12.987 12.381,12.987 13.172 C 12.987 14.123,12.977 14.635,12.958 14.685 C 12.927 14.769,12.814 14.896,12.734 14.940 C 12.493 15.070,12.164 14.960,12.051 14.710 C 12.004 14.607,12.001 14.509,12.001 13.161 L 12.000 11.723 11.659 12.060 C 11.199 12.516,11.057 12.577,10.785 12.440 C 10.622 12.358,10.529 12.228,10.513 12.056 C 10.489 11.805,10.506 11.781,11.330 10.951 C 12.062 10.213,12.243 10.049,12.360 10.020 C 12.466 9.993,12.590 10.001,12.688 10.041 " stroke="none" fill-rule="evenodd"></path></svg>