<svg width="16" height="16" fill="currentColor" xmlns="http://www.w3.org/2000/svg"><path d="M7.606 2.029 C 6.945 2.114,6.259 2.470,5.802 2.964 C 4.960 3.874,4.764 5.196,5.306 6.310 C 5.707 7.133,6.462 7.728,7.373 7.937 C 7.672 8.006,8.328 8.006,8.627 7.937 C 9.923 7.639,10.850 6.591,10.987 5.268 C 11.020 4.942,10.987 4.569,10.893 4.216 C 10.508 2.780,9.090 1.836,7.606 2.029 M7.040 9.041 C 4.558 9.269,2.868 10.321,2.198 12.054 C 1.991 12.590,1.947 13.142,2.087 13.447 C 2.165 13.617,2.324 13.787,2.478 13.866 C 2.745 14.002,2.706 14.000,5.446 14.000 L 8.000 14.000 8.000 13.163 C 8.000 12.702,8.013 12.201,8.028 12.049 C 8.131 11.023,8.581 10.067,9.304 9.338 C 9.425 9.215,9.520 9.112,9.515 9.108 C 9.439 9.045,7.557 8.994,7.040 9.041 M11.554 9.052 C 10.862 9.209,10.311 9.728,10.079 10.440 C 10.023 10.610,10.017 10.689,10.006 11.309 L 9.995 11.992 9.835 12.021 C 9.407 12.101,9.093 12.413,9.016 12.838 C 8.977 13.050,8.977 14.950,9.016 15.162 C 9.076 15.490,9.293 15.771,9.600 15.917 L 9.747 15.987 12.000 15.987 L 14.253 15.987 14.400 15.917 C 14.707 15.771,14.924 15.490,14.984 15.162 C 15.023 14.950,15.023 13.050,14.984 12.838 C 14.907 12.413,14.593 12.101,14.165 12.021 L 14.005 11.992 13.993 11.309 C 13.982 10.696,13.974 10.608,13.921 10.440 C 13.710 9.779,13.215 9.285,12.559 9.080 C 12.359 9.017,11.777 9.001,11.554 9.052 M12.347 10.066 C 12.609 10.158,12.829 10.380,12.932 10.657 C 12.981 10.787,12.987 10.864,12.987 11.401 L 12.987 12.000 12.000 12.000 L 11.013 12.000 11.013 11.401 C 11.013 10.859,11.019 10.788,11.069 10.653 C 11.223 10.243,11.622 9.982,12.053 10.012 C 12.149 10.018,12.281 10.043,12.347 10.066 " stroke="none" fill-rule="evenodd"></path></svg>