<svg width="16" height="16" fill="currentColor" xmlns="http://www.w3.org/2000/svg"><path d="M7.606 2.029 C 6.945 2.114,6.259 2.470,5.802 2.964 C 4.960 3.874,4.764 5.196,5.306 6.310 C 5.707 7.133,6.462 7.728,7.373 7.937 C 7.672 8.006,8.328 8.006,8.627 7.937 C 9.923 7.639,10.850 6.591,10.987 5.268 C 11.020 4.942,10.987 4.569,10.893 4.216 C 10.508 2.780,9.090 1.836,7.606 2.029 M8.559 3.080 C 9.228 3.289,9.736 3.805,9.924 4.468 C 10.009 4.766,10.009 5.233,9.925 5.528 C 9.609 6.637,8.474 7.246,7.373 6.896 C 6.881 6.739,6.448 6.362,6.204 5.875 C 5.947 5.364,5.947 4.636,6.204 4.125 C 6.299 3.936,6.478 3.689,6.618 3.556 C 6.860 3.326,7.233 3.125,7.554 3.052 C 7.777 3.001,8.359 3.017,8.559 3.080 M7.040 9.041 C 4.560 9.268,2.868 10.321,2.198 12.054 C 1.991 12.590,1.947 13.142,2.087 13.447 C 2.165 13.617,2.324 13.787,2.478 13.866 C 2.746 14.002,2.696 14.000,5.566 14.000 C 7.037 14.000,8.240 13.991,8.240 13.980 C 8.239 13.969,8.209 13.852,8.173 13.720 C 8.114 13.507,8.093 13.405,8.038 13.073 L 8.024 12.987 5.519 12.987 L 3.013 12.987 3.013 12.896 C 3.013 12.761,3.134 12.370,3.244 12.152 C 3.755 11.136,4.780 10.456,6.242 10.163 C 6.788 10.053,7.179 10.020,7.985 10.014 L 8.757 10.008 8.840 9.886 C 8.954 9.718,9.312 9.309,9.426 9.219 C 9.478 9.178,9.520 9.135,9.520 9.123 C 9.520 9.049,7.639 8.986,7.040 9.041 M11.907 9.053 C 11.169 9.189,10.552 9.510,10.026 10.031 C 8.634 11.410,8.668 13.693,10.102 15.045 C 10.737 15.644,11.624 16.000,12.485 16.000 C 14.008 16.001,15.352 15.029,15.824 13.587 C 15.936 13.243,15.975 13.024,15.990 12.627 C 16.015 12.018,15.906 11.512,15.627 10.947 C 15.137 9.950,14.185 9.239,13.095 9.056 C 12.793 9.005,12.174 9.003,11.907 9.053 M14.015 10.828 C 14.066 10.859,14.138 10.938,14.177 11.003 C 14.235 11.103,14.245 11.146,14.235 11.274 C 14.225 11.419,14.188 11.488,13.522 12.600 C 13.135 13.245,12.777 13.818,12.726 13.872 C 12.523 14.085,12.178 14.152,11.904 14.030 C 11.799 13.984,11.659 13.860,11.287 13.485 C 10.875 13.070,10.800 12.983,10.774 12.882 C 10.660 12.455,11.098 12.112,11.494 12.320 C 11.530 12.339,11.694 12.486,11.857 12.646 L 12.154 12.938 12.734 11.969 C 13.053 11.436,13.346 10.965,13.384 10.923 C 13.546 10.744,13.814 10.704,14.015 10.828 " stroke="none" fill-rule="evenodd"></path></svg>