<svg width="16" height="16" fill="currentColor" xmlns="http://www.w3.org/2000/svg"><path d="M1.669 0.028 C 0.992 0.142,0.371 0.651,0.135 1.283 C -0.006 1.659,0.001 1.324,0.000 7.994 C -0.000 14.784,-0.010 14.361,0.156 14.767 C 0.347 15.238,0.762 15.653,1.233 15.844 C 1.639 16.010,1.217 16.000,8.000 16.000 C 14.782 16.000,14.361 16.010,14.766 15.845 C 15.233 15.654,15.654 15.233,15.845 14.766 C 16.010 14.361,16.000 14.782,16.000 8.000 C 16.000 1.217,16.010 1.639,15.844 1.233 C 15.666 0.795,15.309 0.422,14.864 0.208 C 14.422 -0.005,15.102 0.015,8.080 0.010 C 4.626 0.008,1.741 0.016,1.669 0.028 M14.407 1.085 C 14.584 1.167,14.812 1.392,14.900 1.570 L 14.973 1.720 14.980 7.946 C 14.988 14.846,15.001 14.319,14.811 14.576 C 14.638 14.809,14.388 14.959,14.113 14.994 L 14.000 15.008 14.000 14.414 C 14.000 13.761,13.974 13.555,13.843 13.171 C 13.359 11.749,12.099 10.709,10.330 10.268 C 8.812 9.891,6.846 9.921,5.382 10.344 C 3.621 10.853,2.322 12.121,2.040 13.607 C 2.012 13.756,2.000 13.996,2.000 14.414 L 2.000 15.008 1.887 14.994 C 1.518 14.947,1.180 14.679,1.063 14.338 C 1.018 14.207,1.015 13.881,1.015 8.000 C 1.015 2.119,1.018 1.793,1.063 1.662 C 1.154 1.399,1.399 1.154,1.662 1.063 C 1.793 1.017,2.106 1.015,8.040 1.021 L 14.280 1.027 14.407 1.085 M7.449 3.053 C 6.886 3.155,6.292 3.469,5.877 3.885 C 4.713 5.048,4.715 6.953,5.881 8.119 C 6.921 9.159,8.593 9.290,9.763 8.423 C 10.959 7.536,11.334 5.979,10.674 4.643 C 10.276 3.837,9.432 3.209,8.537 3.052 C 8.266 3.005,7.711 3.005,7.449 3.053 " stroke="none" fill-rule="evenodd"></path></svg>