<svg width="16" height="16" fill="currentColor" xmlns="http://www.w3.org/2000/svg"><path d="M7.606 2.029 C 6.945 2.114,6.259 2.470,5.802 2.964 C 4.960 3.874,4.764 5.196,5.306 6.310 C 5.707 7.133,6.462 7.728,7.373 7.937 C 7.672 8.006,8.328 8.006,8.627 7.937 C 9.923 7.639,10.850 6.591,10.987 5.268 C 11.020 4.942,10.987 4.569,10.893 4.216 C 10.508 2.780,9.090 1.836,7.606 2.029 M7.040 9.041 C 4.558 9.269,2.868 10.321,2.198 12.054 C 1.991 12.590,1.947 13.142,2.087 13.447 C 2.165 13.617,2.324 13.787,2.478 13.866 C 2.746 14.002,2.696 14.000,5.569 14.000 L 8.246 14.000 8.229 13.940 C 8.082 13.422,8.033 13.141,8.010 12.693 C 7.948 11.456,8.430 10.210,9.314 9.326 C 9.430 9.210,9.520 9.112,9.516 9.108 C 9.439 9.045,7.557 8.993,7.040 9.041 M11.907 9.053 C 11.169 9.189,10.552 9.510,10.026 10.031 C 8.634 11.410,8.668 13.693,10.102 15.045 C 10.737 15.644,11.624 16.000,12.485 16.000 C 14.008 16.001,15.352 15.029,15.824 13.587 C 15.936 13.243,15.975 13.024,15.990 12.627 C 16.015 12.018,15.906 11.512,15.627 10.947 C 15.137 9.950,14.185 9.239,13.095 9.056 C 12.793 9.005,12.174 9.003,11.907 9.053 M12.720 10.560 C 12.777 10.589,12.857 10.657,12.898 10.711 L 12.973 10.809 12.981 11.405 L 12.990 12.000 13.536 12.000 C 14.118 12.000,14.208 12.016,14.342 12.141 C 14.578 12.361,14.523 12.769,14.236 12.934 C 14.124 12.998,14.100 13.000,13.553 13.009 L 12.987 13.018 12.987 13.584 L 12.987 14.150 12.910 14.270 C 12.699 14.603,12.215 14.564,12.050 14.201 C 12.008 14.108,12.001 14.019,12.001 13.553 L 12.000 13.013 11.521 13.013 C 10.986 13.013,10.809 12.987,10.691 12.888 C 10.416 12.656,10.463 12.210,10.780 12.057 C 10.887 12.005,10.941 12.000,11.447 12.000 L 11.997 12.000 12.005 11.418 C 12.013 10.838,12.014 10.836,12.084 10.728 C 12.219 10.525,12.504 10.450,12.720 10.560 " stroke="none" fill-rule="evenodd"></path></svg>