<svg width="16" height="16" fill="currentColor" xmlns="http://www.w3.org/2000/svg"><path d="M1.669 2.028 C 0.992 2.142,0.371 2.651,0.135 3.283 C -0.004 3.654,0.001 3.489,0.000 7.994 C -0.000 12.586,-0.007 12.367,0.156 12.767 C 0.347 13.238,0.762 13.653,1.233 13.844 C 1.639 14.010,1.217 14.000,8.000 14.000 C 14.782 14.000,14.361 14.010,14.766 13.845 C 15.233 13.654,15.654 13.233,15.845 12.766 C 16.007 12.367,16.000 12.584,16.000 8.000 C 16.000 3.415,16.007 3.633,15.844 3.233 C 15.666 2.795,15.309 2.422,14.864 2.208 C 14.422 1.995,15.102 2.015,8.080 2.010 C 4.626 2.008,1.741 2.016,1.669 2.028 M14.407 3.085 C 14.584 3.167,14.812 3.392,14.900 3.570 L 14.973 3.720 14.980 7.945 C 14.988 12.632,14.999 12.321,14.811 12.576 C 14.690 12.739,14.525 12.867,14.341 12.941 C 14.213 12.992,14.136 12.998,13.504 13.008 L 12.808 13.018 12.746 12.863 C 12.368 11.911,11.620 11.080,10.722 10.616 C 9.884 10.183,9.128 10.017,8.000 10.017 C 7.171 10.017,6.685 10.085,6.027 10.295 C 5.631 10.421,5.018 10.737,4.691 10.984 C 4.065 11.456,3.540 12.141,3.254 12.863 L 3.192 13.018 2.496 13.008 C 1.864 12.998,1.787 12.992,1.659 12.941 C 1.383 12.830,1.152 12.597,1.063 12.338 C 1.018 12.208,1.015 11.962,1.015 8.000 C 1.015 4.038,1.018 3.792,1.063 3.662 C 1.154 3.399,1.399 3.154,1.662 3.063 C 1.793 3.017,2.106 3.015,8.040 3.021 L 14.280 3.027 14.407 3.085 M7.556 4.091 C 7.047 4.188,6.649 4.395,6.270 4.758 C 5.945 5.071,5.751 5.381,5.618 5.804 C 5.246 6.983,5.800 8.261,6.915 8.799 C 7.304 8.986,7.496 9.027,8.000 9.027 C 8.378 9.027,8.469 9.018,8.648 8.966 C 10.187 8.520,10.940 6.839,10.234 5.427 C 10.067 5.093,9.719 4.696,9.407 4.484 C 9.211 4.351,8.862 4.193,8.627 4.132 C 8.351 4.060,7.824 4.040,7.556 4.091 " stroke="none" fill-rule="evenodd"></path></svg>