<svg width="16" height="16" fill="currentColor" xmlns="http://www.w3.org/2000/svg"><path d="M1.669 2.028 C 0.992 2.142,0.371 2.651,0.135 3.283 C -0.004 3.654,0.001 3.489,0.000 7.994 C -0.000 12.586,-0.007 12.367,0.156 12.767 C 0.347 13.238,0.762 13.653,1.233 13.844 C 1.623 14.003,1.560 14.000,4.527 14.000 L 7.243 14.000 7.335 13.782 C 7.385 13.662,7.500 13.441,7.590 13.290 L 7.753 13.015 4.776 13.007 L 1.800 13.000 1.659 12.942 C 1.474 12.866,1.309 12.738,1.189 12.576 C 1.001 12.321,1.012 12.632,1.020 7.945 L 1.027 3.720 1.099 3.572 C 1.192 3.384,1.384 3.192,1.572 3.099 L 1.720 3.027 8.000 3.027 L 14.280 3.027 14.407 3.085 C 14.584 3.167,14.812 3.392,14.900 3.570 L 14.973 3.720 14.987 7.763 L 15.000 11.807 15.227 11.974 C 15.351 12.066,15.557 12.242,15.683 12.365 L 15.913 12.589 15.949 12.475 C 15.978 12.381,15.986 11.587,15.993 8.093 C 16.002 3.414,16.009 3.638,15.845 3.234 C 15.666 2.795,15.310 2.422,14.864 2.208 C 14.422 1.995,15.102 2.015,8.080 2.010 C 4.626 2.008,1.741 2.016,1.669 2.028 M11.760 7.520 C 10.966 7.615,10.325 8.164,10.076 8.960 C 9.995 9.219,9.989 9.729,10.063 10.000 C 10.213 10.547,10.605 11.034,11.094 11.280 C 11.399 11.434,11.606 11.480,12.000 11.480 C 12.303 11.480,12.392 11.470,12.560 11.418 C 13.242 11.205,13.750 10.682,13.937 10.000 C 14.011 9.729,14.005 9.219,13.924 8.960 C 13.623 7.996,12.733 7.404,11.760 7.520 M11.427 12.030 C 10.915 12.079,10.315 12.242,9.916 12.441 C 9.096 12.851,8.457 13.567,8.163 14.406 C 7.916 15.114,7.959 15.587,8.293 15.830 C 8.539 16.008,8.362 16.000,12.000 16.000 C 15.638 16.000,15.461 16.008,15.707 15.830 C 16.041 15.587,16.084 15.114,15.837 14.406 C 15.544 13.571,14.903 12.850,14.093 12.446 C 13.386 12.093,12.393 11.938,11.427 12.030 " stroke="none" fill-rule="evenodd"></path></svg>