<svg width="16" height="16" fill="currentColor" xmlns="http://www.w3.org/2000/svg"><path d="M7.606 2.029 C 6.945 2.114,6.259 2.470,5.802 2.964 C 4.960 3.874,4.764 5.196,5.306 6.310 C 5.707 7.133,6.462 7.728,7.373 7.937 C 7.672 8.006,8.328 8.006,8.627 7.937 C 9.923 7.639,10.850 6.591,10.987 5.268 C 11.020 4.942,10.987 4.569,10.893 4.216 C 10.508 2.780,9.090 1.836,7.606 2.029 M8.559 3.080 C 9.228 3.289,9.736 3.805,9.924 4.468 C 10.009 4.766,10.009 5.233,9.925 5.528 C 9.609 6.637,8.474 7.246,7.373 6.896 C 6.881 6.739,6.448 6.362,6.204 5.875 C 5.947 5.364,5.947 4.636,6.204 4.125 C 6.299 3.936,6.478 3.689,6.618 3.556 C 6.860 3.326,7.233 3.125,7.554 3.052 C 7.777 3.001,8.359 3.017,8.559 3.080 M7.040 9.043 C 4.585 9.254,2.867 10.322,2.198 12.054 C 2.150 12.180,2.084 12.409,2.052 12.562 C 1.894 13.327,2.127 13.801,2.738 13.960 C 2.969 14.020,13.031 14.020,13.262 13.960 C 13.873 13.801,14.106 13.327,13.948 12.562 C 13.780 11.750,13.287 10.949,12.605 10.381 C 11.679 9.610,10.472 9.171,8.920 9.041 C 8.549 9.010,7.410 9.011,7.040 9.043 M9.133 10.065 C 10.955 10.283,12.227 11.027,12.773 12.194 C 12.887 12.437,12.987 12.766,12.987 12.899 L 12.987 12.987 8.000 12.987 L 3.013 12.987 3.013 12.899 C 3.013 12.766,3.112 12.438,3.225 12.197 C 3.686 11.212,4.685 10.509,6.060 10.202 C 6.418 10.122,6.816 10.063,7.240 10.028 C 7.646 9.994,8.715 10.015,9.133 10.065 " stroke="none" fill-rule="evenodd"></path></svg>