<svg width="16" height="16" fill="currentColor" xmlns="http://www.w3.org/2000/svg"><path d="M10.568 1.069 C 10.383 1.141,10.180 1.328,10.091 1.509 C 9.797 2.110,10.243 2.915,11.284 3.659 L 11.498 3.812 11.657 3.704 C 11.892 3.544,12.258 3.232,12.444 3.033 C 12.966 2.473,13.126 1.902,12.886 1.458 C 12.803 1.306,12.689 1.200,12.499 1.100 C 12.374 1.034,12.333 1.027,12.093 1.027 C 11.813 1.027,11.717 1.056,11.579 1.182 C 11.524 1.232,11.512 1.234,11.459 1.200 C 11.238 1.056,11.112 1.013,10.910 1.015 C 10.774 1.016,10.661 1.034,10.568 1.069 M5.606 2.029 C 4.945 2.114,4.259 2.470,3.802 2.964 C 2.960 3.874,2.764 5.196,3.306 6.310 C 3.707 7.133,4.462 7.728,5.373 7.937 C 5.672 8.006,6.328 8.006,6.627 7.937 C 7.923 7.639,8.850 6.591,8.987 5.268 C 9.020 4.942,8.987 4.569,8.893 4.216 C 8.508 2.780,7.090 1.836,5.606 2.029 M14.421 2.032 C 14.281 2.069,14.093 2.243,14.039 2.386 C 13.905 2.736,14.151 3.222,14.668 3.629 C 15.022 3.909,14.976 3.901,15.218 3.719 C 15.976 3.149,16.209 2.526,15.800 2.165 C 15.596 1.986,15.373 1.955,15.145 2.074 L 15.004 2.147 14.858 2.074 C 14.706 1.997,14.594 1.986,14.421 2.032 M12.149 4.549 C 11.874 4.616,11.658 4.740,11.437 4.959 C 11.128 5.266,11.002 5.578,11.007 6.027 C 11.014 6.723,11.463 7.495,12.316 8.276 C 12.581 8.518,13.265 9.048,13.423 9.133 L 13.512 9.181 13.643 9.092 C 14.595 8.445,15.362 7.681,15.703 7.040 C 16.134 6.231,16.088 5.471,15.576 4.961 C 15.033 4.420,14.197 4.352,13.628 4.801 L 13.497 4.905 13.382 4.809 C 13.068 4.545,12.586 4.444,12.149 4.549 M5.040 9.043 C 2.585 9.254,0.867 10.322,0.198 12.054 C 0.150 12.180,0.084 12.409,0.052 12.562 C -0.106 13.327,0.127 13.801,0.738 13.960 C 0.969 14.020,11.031 14.020,11.262 13.960 C 11.873 13.801,12.106 13.327,11.948 12.562 C 11.780 11.750,11.287 10.949,10.605 10.381 C 9.679 9.610,8.472 9.171,6.920 9.041 C 6.549 9.010,5.410 9.011,5.040 9.043 " stroke="none" fill-rule="evenodd"></path></svg>