<svg width="16" height="16" fill="currentColor" xmlns="http://www.w3.org/2000/svg"><path d="M4.689 0.027 C 4.088 0.130,3.582 0.474,3.277 0.988 C 3.136 1.226,3.046 1.513,3.012 1.835 C 2.994 2.001,2.987 3.168,2.992 5.107 L 3.000 8.120 3.072 8.243 C 3.156 8.385,3.230 8.440,3.396 8.485 C 3.613 8.543,3.850 8.421,3.950 8.201 C 3.996 8.099,3.999 7.943,3.999 4.999 C 4.000 1.556,3.992 1.718,4.181 1.441 C 4.301 1.264,4.456 1.143,4.653 1.069 C 4.801 1.014,4.824 1.013,8.000 1.013 C 11.176 1.013,11.199 1.014,11.347 1.069 C 11.544 1.143,11.699 1.264,11.819 1.441 C 12.008 1.718,12.000 1.556,12.001 4.999 C 12.001 7.943,12.004 8.099,12.050 8.201 C 12.150 8.421,12.387 8.543,12.604 8.485 C 12.770 8.440,12.844 8.385,12.928 8.243 L 13.000 8.120 13.008 5.107 C 13.013 3.168,13.006 2.001,12.988 1.835 C 12.896 0.973,12.367 0.329,11.542 0.075 L 11.347 0.014 8.080 0.010 C 6.283 0.008,4.757 0.015,4.689 0.027 M7.290 2.051 C 7.039 2.165,6.930 2.492,7.061 2.737 C 7.106 2.819,7.270 2.956,7.354 2.980 C 7.449 3.006,8.551 3.006,8.646 2.980 C 8.730 2.956,8.894 2.819,8.939 2.737 C 9.070 2.492,8.961 2.165,8.710 2.051 C 8.613 2.007,8.529 2.001,8.000 2.001 C 7.471 2.001,7.387 2.007,7.290 2.051 M1.097 7.145 C 0.647 7.387,0.315 7.668,0.152 7.947 C -0.031 8.261,-0.044 8.649,0.118 8.973 C 0.305 9.347,0.633 9.627,1.213 9.907 C 2.567 10.562,4.679 10.923,7.609 11.002 L 8.272 11.020 7.659 11.637 C 7.085 12.214,7.044 12.261,7.019 12.381 C 6.992 12.510,7.007 12.636,7.061 12.737 C 7.107 12.823,7.273 12.957,7.354 12.975 C 7.394 12.984,7.440 12.995,7.456 13.000 C 7.472 13.005,7.544 12.996,7.616 12.982 C 7.742 12.956,7.785 12.916,8.823 11.884 C 9.540 11.171,9.916 10.778,9.949 10.707 C 10.010 10.576,10.013 10.431,9.959 10.299 C 9.931 10.232,9.580 9.862,8.885 9.166 C 7.808 8.086,7.704 7.999,7.495 8.001 C 7.376 8.001,7.206 8.078,7.123 8.169 C 6.997 8.306,6.971 8.566,7.066 8.747 C 7.085 8.784,7.365 9.080,7.689 9.407 L 8.277 10.000 7.783 10.000 C 5.677 10.000,3.449 9.689,2.120 9.210 C 1.519 8.993,1.013 8.669,1.013 8.501 C 1.013 8.401,1.252 8.194,1.539 8.045 C 1.669 7.978,1.808 7.893,1.849 7.855 C 2.065 7.655,2.040 7.288,1.799 7.104 C 1.717 7.041,1.668 7.027,1.523 7.020 C 1.355 7.012,1.335 7.018,1.097 7.145 M14.280 7.055 C 14.160 7.118,14.104 7.176,14.050 7.293 C 13.960 7.489,14.001 7.716,14.151 7.855 C 14.192 7.893,14.331 7.978,14.461 8.045 C 14.748 8.194,14.987 8.401,14.987 8.501 C 14.987 8.665,14.486 8.990,13.912 9.199 C 13.347 9.405,12.589 9.591,11.789 9.720 C 11.548 9.759,11.320 9.806,11.282 9.826 C 10.970 9.989,10.919 10.401,11.182 10.633 C 11.353 10.782,11.427 10.790,11.937 10.708 C 13.651 10.434,14.931 9.980,15.539 9.430 C 15.809 9.185,16.000 8.804,16.000 8.509 C 16.000 8.341,15.933 8.093,15.847 7.947 C 15.682 7.663,15.284 7.334,14.834 7.110 C 14.617 7.001,14.421 6.982,14.280 7.055 M3.396 11.519 C 3.259 11.551,3.135 11.644,3.066 11.765 L 3.000 11.880 2.992 12.893 C 2.983 13.996,3.003 14.308,3.104 14.625 C 3.299 15.239,3.796 15.717,4.454 15.924 L 4.653 15.987 8.000 15.987 L 11.347 15.987 11.546 15.924 C 12.204 15.717,12.701 15.239,12.896 14.625 C 12.997 14.308,13.017 13.996,13.008 12.893 L 13.000 11.880 12.929 11.760 C 12.762 11.475,12.360 11.423,12.141 11.658 C 12.003 11.806,12.000 11.837,12.000 13.007 C 12.000 13.904,11.993 14.123,11.959 14.254 C 11.859 14.636,11.559 14.911,11.161 14.984 C 10.941 15.025,5.059 15.025,4.839 14.984 C 4.441 14.911,4.141 14.636,4.041 14.254 C 4.007 14.123,4.000 13.904,4.000 13.007 C 4.000 11.837,3.997 11.806,3.859 11.658 C 3.746 11.537,3.557 11.481,3.396 11.519 " stroke="none" fill-rule="evenodd"></path></svg>