<svg width="16" height="16" fill="currentColor" xmlns="http://www.w3.org/2000/svg"><path d="M1.587 2.546 C 0.844 2.713,0.269 3.261,0.062 4.000 C 0.016 4.163,0.013 4.363,0.013 7.507 L 0.013 10.840 0.076 11.040 C 0.189 11.404,0.333 11.642,0.599 11.908 C 0.803 12.112,0.879 12.169,1.093 12.273 C 1.590 12.516,0.872 12.493,8.000 12.493 C 15.128 12.493,14.410 12.516,14.907 12.273 C 15.121 12.169,15.197 12.112,15.401 11.908 C 15.667 11.642,15.811 11.404,15.924 11.040 L 15.987 10.840 15.987 7.507 C 15.987 4.363,15.984 4.163,15.938 4.000 C 15.749 3.326,15.250 2.808,14.573 2.582 L 14.387 2.520 8.067 2.515 C 2.853 2.511,1.719 2.517,1.587 2.546 M13.427 6.599 C 13.635 6.701,13.798 6.869,13.902 7.088 C 13.977 7.247,13.986 7.293,13.987 7.507 C 13.987 7.725,13.978 7.764,13.899 7.925 C 13.721 8.287,13.399 8.489,13.000 8.489 C 12.601 8.489,12.279 8.287,12.101 7.925 C 12.021 7.764,12.013 7.726,12.014 7.507 C 12.014 7.302,12.025 7.244,12.087 7.111 C 12.184 6.902,12.293 6.769,12.454 6.667 C 12.652 6.539,12.781 6.506,13.042 6.515 C 13.230 6.521,13.299 6.536,13.427 6.599 " stroke="none" fill-rule="evenodd"></path></svg>