<svg width="16" height="16" fill="currentColor" xmlns="http://www.w3.org/2000/svg"><path d="M4.689 0.027 C 3.774 0.184,3.120 0.879,3.014 1.807 C 2.977 2.126,2.977 13.874,3.014 14.193 C 3.110 15.034,3.638 15.668,4.454 15.924 L 4.653 15.987 8.000 15.987 L 11.347 15.987 11.546 15.924 C 12.362 15.668,12.890 15.034,12.986 14.193 C 13.023 13.874,13.023 2.126,12.986 1.807 C 12.890 0.966,12.356 0.325,11.542 0.075 L 11.347 0.014 8.080 0.010 C 6.283 0.008,4.757 0.015,4.689 0.027 M11.347 1.069 C 11.544 1.143,11.699 1.264,11.819 1.441 C 12.014 1.726,12.000 1.227,12.000 8.000 C 12.000 14.717,12.011 14.266,11.836 14.539 C 11.685 14.775,11.448 14.931,11.161 14.984 C 10.941 15.025,5.059 15.025,4.839 14.984 C 4.552 14.931,4.315 14.775,4.164 14.539 C 3.989 14.266,4.000 14.717,4.000 8.000 C 4.000 1.227,3.986 1.725,4.181 1.442 C 4.305 1.261,4.427 1.162,4.629 1.079 L 4.787 1.015 7.992 1.014 C 11.177 1.013,11.199 1.014,11.347 1.069 M7.734 12.043 C 7.363 12.143,7.088 12.447,7.016 12.840 C 6.937 13.267,7.184 13.722,7.600 13.916 C 7.725 13.974,7.784 13.984,8.000 13.984 C 8.216 13.984,8.275 13.974,8.400 13.916 C 8.816 13.722,9.063 13.267,8.984 12.840 C 8.911 12.441,8.636 12.141,8.254 12.041 C 8.061 11.991,7.926 11.991,7.734 12.043 " stroke="none" fill-rule="evenodd"></path></svg>