<svg width="16" height="16" fill="currentColor" xmlns="http://www.w3.org/2000/svg"><path d="M5.669 2.028 C 4.990 2.144,4.371 2.651,4.135 3.283 C 3.996 3.654,4.001 3.489,4.000 7.994 C 4.000 11.667,4.005 12.214,4.041 12.388 C 4.207 13.190,4.810 13.793,5.612 13.959 C 5.909 14.020,10.091 14.020,10.388 13.959 C 11.187 13.794,11.794 13.187,11.959 12.388 C 11.995 12.214,12.000 11.666,12.000 8.000 C 12.000 3.415,12.007 3.633,11.844 3.233 C 11.666 2.795,11.309 2.422,10.864 2.208 C 10.439 2.003,10.621 2.016,8.080 2.010 C 6.826 2.008,5.741 2.015,5.669 2.028 M1.174 4.042 C 1.030 4.105,0.964 4.181,0.838 4.432 C 0.484 5.135,0.208 6.014,0.074 6.867 C 0.024 7.188,0.015 7.347,0.016 8.000 C 0.016 8.855,0.053 9.183,0.225 9.880 C 0.413 10.644,0.830 11.684,1.018 11.859 C 1.103 11.938,1.258 12.000,1.373 12.000 C 1.632 12.000,1.867 11.755,1.867 11.484 C 1.867 11.439,1.794 11.250,1.706 11.064 C 1.397 10.412,1.186 9.733,1.076 9.040 C 1.000 8.561,1.006 7.367,1.088 6.893 C 1.211 6.180,1.400 5.583,1.706 4.936 C 1.794 4.750,1.867 4.561,1.867 4.516 C 1.867 4.161,1.491 3.905,1.174 4.042 M14.440 4.051 C 14.252 4.138,14.133 4.317,14.133 4.516 C 14.133 4.560,14.207 4.753,14.297 4.945 C 14.607 5.605,14.788 6.179,14.912 6.893 C 14.965 7.199,14.972 7.330,14.972 8.000 C 14.971 8.664,14.964 8.804,14.912 9.107 C 14.789 9.818,14.608 10.394,14.297 11.055 C 14.207 11.247,14.133 11.440,14.133 11.484 C 14.133 11.755,14.368 12.000,14.627 12.000 C 14.742 12.000,14.897 11.938,14.982 11.859 C 15.170 11.684,15.587 10.644,15.775 9.880 C 15.948 9.181,15.984 8.855,15.984 8.000 C 15.984 7.145,15.948 6.819,15.775 6.120 C 15.587 5.356,15.170 4.316,14.982 4.141 C 14.833 4.002,14.622 3.966,14.440 4.051 M2.787 5.493 C 2.661 5.521,2.542 5.593,2.484 5.675 C 2.412 5.775,2.206 6.399,2.135 6.728 C 1.960 7.547,1.960 8.453,2.135 9.272 C 2.211 9.626,2.416 10.234,2.494 10.336 C 2.606 10.484,2.825 10.557,3.007 10.508 C 3.212 10.453,3.385 10.240,3.386 10.040 C 3.386 9.996,3.338 9.816,3.279 9.640 C 3.220 9.464,3.139 9.170,3.100 8.987 C 3.033 8.676,3.028 8.608,3.028 8.000 C 3.028 7.389,3.033 7.325,3.101 7.006 C 3.141 6.818,3.222 6.524,3.280 6.352 C 3.403 5.992,3.409 5.921,3.327 5.759 C 3.226 5.560,2.995 5.446,2.787 5.493 M13.007 5.547 C 12.789 5.612,12.640 5.802,12.640 6.015 C 12.640 6.073,12.683 6.246,12.735 6.400 C 12.786 6.554,12.861 6.830,12.900 7.013 C 12.967 7.324,12.972 7.392,12.972 8.000 C 12.972 8.608,12.967 8.676,12.900 8.987 C 12.861 9.170,12.786 9.446,12.735 9.600 C 12.683 9.754,12.640 9.927,12.640 9.985 C 12.640 10.304,12.955 10.540,13.266 10.453 C 13.453 10.401,13.551 10.288,13.652 10.009 C 14.091 8.798,14.111 7.389,13.707 6.158 C 13.573 5.749,13.527 5.675,13.354 5.589 C 13.212 5.518,13.134 5.508,13.007 5.547 M8.347 10.066 C 8.611 10.159,8.829 10.380,8.935 10.663 C 9.022 10.895,9.002 11.209,8.886 11.446 C 8.784 11.653,8.616 11.815,8.400 11.916 C 8.275 11.974,8.216 11.984,8.000 11.984 C 7.784 11.984,7.725 11.974,7.600 11.916 C 7.384 11.815,7.216 11.653,7.114 11.446 C 6.997 11.207,6.978 10.896,7.067 10.659 C 7.223 10.243,7.620 9.982,8.053 10.012 C 8.149 10.018,8.281 10.043,8.347 10.066 " stroke="none" fill-rule="evenodd"></path></svg>