<svg width="16" height="16" fill="currentColor" xmlns="http://www.w3.org/2000/svg"><path d="M7.467 0.019 C 7.197 0.035,6.683 0.108,6.347 0.177 C 3.324 0.796,0.878 3.204,0.200 6.228 C 0.047 6.910,0.017 7.206,0.017 8.000 C 0.017 8.794,0.047 9.090,0.200 9.772 C 0.610 11.600,1.671 13.237,3.195 14.393 C 4.257 15.199,5.481 15.705,6.906 15.927 C 7.429 16.009,8.571 16.009,9.094 15.927 C 11.038 15.624,12.690 14.748,13.930 13.362 C 15.030 12.133,15.665 10.775,15.927 9.094 C 16.010 8.560,16.009 7.432,15.924 6.880 C 15.532 4.324,14.072 2.222,11.823 0.975 C 10.543 0.265,8.995 -0.075,7.467 0.019 M7.493 4.407 L 7.493 7.800 5.100 10.194 L 2.706 12.587 2.503 12.327 C 1.519 11.065,1.013 9.597,1.013 8.000 C 1.013 6.127,1.729 4.385,3.041 3.066 C 4.142 1.959,5.606 1.243,7.157 1.055 C 7.320 1.035,7.462 1.018,7.473 1.016 C 7.484 1.015,7.493 2.540,7.493 4.407 M9.120 1.097 C 11.273 1.442,13.141 2.779,14.181 4.720 C 14.594 5.490,14.900 6.515,14.968 7.353 L 14.979 7.493 11.743 7.493 L 8.507 7.493 8.507 4.257 L 8.507 1.021 8.647 1.032 C 8.724 1.039,8.937 1.068,9.120 1.097 M14.972 8.593 C 14.966 8.641,14.948 8.788,14.932 8.919 C 14.715 10.713,13.698 12.467,12.236 13.570 C 11.005 14.500,9.553 14.988,8.013 14.990 C 6.422 14.993,4.958 14.492,3.688 13.510 C 3.552 13.405,3.441 13.308,3.441 13.293 C 3.440 13.279,4.511 12.196,5.820 10.887 L 8.200 8.507 11.592 8.507 L 14.983 8.507 14.972 8.593 " stroke="none" fill-rule="evenodd"></path></svg>