<svg width="16" height="16" fill="currentColor" xmlns="http://www.w3.org/2000/svg"><path d="M9.610 0.787 C 9.525 0.829,9.429 0.910,9.350 1.007 C 9.197 1.193,9.007 1.577,8.949 1.817 C 8.893 2.047,8.869 2.450,8.900 2.658 L 8.924 2.823 7.349 4.395 C 5.820 5.920,5.771 5.966,5.696 5.945 C 5.331 5.840,4.560 5.775,4.117 5.814 C 3.434 5.872,2.953 6.057,2.501 6.435 C 2.285 6.615,2.213 6.860,2.308 7.088 C 2.336 7.156,2.798 7.636,3.788 8.627 L 5.226 10.067 3.599 11.694 C 1.844 13.448,1.755 13.549,1.478 14.093 C 1.310 14.425,1.275 14.577,1.348 14.651 C 1.385 14.688,1.420 14.695,1.505 14.682 C 1.657 14.659,2.005 14.487,2.327 14.278 C 2.574 14.116,2.757 13.943,4.267 12.437 L 5.934 10.774 7.334 12.174 C 8.103 12.944,8.779 13.606,8.835 13.645 C 8.976 13.744,9.183 13.759,9.340 13.683 C 9.545 13.584,9.847 13.167,9.998 12.773 C 10.142 12.401,10.195 12.071,10.197 11.547 C 10.198 11.096,10.183 10.950,10.088 10.445 L 10.044 10.210 11.610 8.643 L 13.177 7.076 13.342 7.100 C 14.001 7.196,14.877 6.887,15.189 6.449 C 15.285 6.314,15.302 6.116,15.231 5.969 C 15.191 5.886,14.452 5.132,12.634 3.316 C 10.438 1.122,10.079 0.774,9.987 0.749 C 9.827 0.706,9.758 0.713,9.610 0.787 M11.959 4.052 C 13.058 5.152,13.948 6.061,13.937 6.072 C 13.895 6.114,13.431 6.112,13.245 6.069 C 13.008 6.014,12.926 6.016,12.806 6.078 C 12.751 6.107,11.887 6.950,10.862 7.978 C 9.474 9.368,9.012 9.847,8.999 9.907 C 8.990 9.951,8.978 10.001,8.972 10.019 C 8.967 10.036,8.993 10.174,9.030 10.325 C 9.142 10.782,9.176 11.009,9.191 11.400 C 9.207 11.780,9.170 12.116,9.087 12.354 L 9.052 12.455 6.299 9.719 C 4.785 8.213,3.547 6.972,3.547 6.961 C 3.547 6.949,3.646 6.912,3.767 6.879 C 4.210 6.758,4.964 6.786,5.583 6.946 C 5.875 7.022,6.017 7.030,6.141 6.976 C 6.191 6.954,7.010 6.154,8.085 5.076 C 10.187 2.969,10.015 3.183,9.937 2.776 C 9.877 2.466,9.881 2.053,9.943 2.053 C 9.953 2.053,10.860 2.953,11.959 4.052 " stroke="none" fill-rule="evenodd"></path></svg>