<svg width="16" height="16" fill="currentColor" xmlns="http://www.w3.org/2000/svg"><path d="M7.333 0.029 C 5.757 0.167,4.327 0.729,3.062 1.707 C 2.669 2.011,2.068 2.601,1.760 2.987 C 1.001 3.938,0.411 5.175,0.172 6.320 C 0.019 7.054,-0.041 8.026,0.024 8.707 C 0.173 10.279,0.783 11.789,1.766 13.020 C 1.886 13.170,2.147 13.456,2.346 13.654 C 2.891 14.198,3.383 14.575,4.044 14.953 C 4.353 15.130,5.005 15.440,5.067 15.440 C 5.084 15.440,5.091 15.419,5.083 15.393 C 5.076 15.368,5.055 15.137,5.038 14.880 C 5.002 14.350,5.019 13.667,5.078 13.347 C 5.099 13.229,5.327 12.244,5.583 11.156 L 6.050 9.179 5.997 9.039 C 5.867 8.698,5.830 8.462,5.831 8.000 C 5.832 7.480,5.875 7.279,6.067 6.887 C 6.229 6.559,6.462 6.318,6.760 6.171 C 6.965 6.070,6.979 6.067,7.252 6.067 C 7.506 6.067,7.550 6.074,7.700 6.144 C 8.063 6.311,8.267 6.686,8.267 7.187 C 8.267 7.523,8.182 7.894,7.879 8.880 C 7.562 9.912,7.526 10.136,7.624 10.450 C 7.691 10.665,7.784 10.820,7.929 10.953 C 8.158 11.165,8.471 11.280,8.812 11.280 C 9.841 11.278,10.722 10.453,11.107 9.131 C 11.286 8.516,11.355 7.639,11.268 7.080 C 11.042 5.620,10.028 4.633,8.527 4.411 C 8.141 4.354,7.489 4.373,7.128 4.451 C 5.542 4.796,4.461 6.046,4.358 7.653 C 4.317 8.298,4.527 9.056,4.897 9.596 C 4.961 9.690,5.013 9.789,5.013 9.818 C 5.013 9.887,4.777 10.823,4.744 10.884 C 4.669 11.025,4.306 10.843,3.943 10.482 C 3.483 10.024,3.156 9.386,2.982 8.609 C 2.927 8.364,2.920 8.266,2.921 7.733 C 2.922 7.187,2.929 7.104,2.994 6.798 C 3.287 5.420,4.086 4.327,5.289 3.658 C 5.994 3.266,6.805 3.045,7.742 2.989 C 9.656 2.874,11.277 3.585,12.287 4.982 C 12.486 5.257,12.796 5.872,12.891 6.179 C 13.055 6.709,13.079 6.892,13.079 7.627 C 13.079 8.218,13.071 8.351,13.019 8.643 C 12.910 9.247,12.763 9.697,12.505 10.214 C 11.870 11.488,10.840 12.292,9.560 12.511 C 9.151 12.581,8.657 12.569,8.333 12.481 C 7.875 12.356,7.449 12.094,7.238 11.808 C 7.149 11.687,7.121 11.663,7.110 11.700 C 7.102 11.726,6.975 12.207,6.827 12.770 C 6.657 13.420,6.516 13.897,6.441 14.079 C 6.297 14.433,6.033 14.957,5.805 15.347 C 5.710 15.508,5.635 15.643,5.638 15.646 C 5.641 15.650,5.806 15.694,6.004 15.745 C 6.694 15.922,7.300 16.000,7.977 16.000 C 9.988 16.000,11.963 15.231,13.400 13.888 C 14.176 13.163,14.702 12.461,15.147 11.560 C 15.734 10.373,15.983 9.309,15.984 8.000 C 15.984 6.706,15.736 5.641,15.161 4.467 C 14.102 2.303,12.121 0.738,9.760 0.201 C 8.997 0.027,8.092 -0.037,7.333 0.029 " stroke="none" fill-rule="evenodd"></path></svg>