<svg width="16" height="16" fill="currentColor" xmlns="http://www.w3.org/2000/svg"><path d="M1.182 2.040 C 0.668 2.152,0.250 2.527,0.075 3.035 L 0.013 3.213 0.013 8.000 L 0.013 12.787 0.075 12.965 C 0.229 13.411,0.589 13.771,1.035 13.925 L 1.213 13.987 8.000 13.987 L 14.787 13.987 14.965 13.925 C 15.411 13.771,15.771 13.411,15.925 12.965 L 15.987 12.787 15.987 8.000 L 15.987 3.213 15.925 3.035 C 15.771 2.589,15.405 2.224,14.962 2.073 L 14.787 2.013 8.067 2.009 C 2.512 2.005,1.318 2.010,1.182 2.040 M13.693 8.050 C 13.822 8.110,13.904 8.194,13.959 8.326 C 14.021 8.475,14.021 11.525,13.959 11.674 C 13.902 11.810,13.768 11.942,13.655 11.973 C 13.526 12.009,8.474 12.009,8.345 11.973 C 8.232 11.942,8.098 11.810,8.041 11.674 C 7.979 11.525,7.979 8.475,8.041 8.326 C 8.096 8.194,8.178 8.110,8.307 8.050 C 8.408 8.004,8.541 8.001,11.000 8.001 C 13.459 8.001,13.592 8.004,13.693 8.050 " stroke="none" fill-rule="evenodd"></path></svg>