<svg width="16" height="16" fill="currentColor" xmlns="http://www.w3.org/2000/svg"><path d="M1.669 2.028 C 0.992 2.142,0.371 2.651,0.135 3.283 C -0.004 3.654,0.001 3.489,0.000 7.994 C -0.000 12.586,-0.007 12.367,0.156 12.767 C 0.347 13.238,0.762 13.653,1.233 13.844 C 1.639 14.010,1.217 14.000,8.000 14.000 C 14.782 14.000,14.361 14.010,14.766 13.845 C 15.233 13.654,15.654 13.233,15.845 12.766 C 16.007 12.367,16.000 12.584,16.000 8.000 C 16.000 3.415,16.007 3.633,15.844 3.233 C 15.666 2.795,15.309 2.422,14.864 2.208 C 14.422 1.995,15.102 2.015,8.080 2.010 C 4.626 2.008,1.741 2.016,1.669 2.028 M6.702 5.044 C 6.734 5.061,7.572 5.655,8.564 6.363 C 9.912 7.326,10.383 7.676,10.428 7.749 C 10.516 7.892,10.513 8.121,10.421 8.261 C 10.370 8.337,9.899 8.687,8.596 9.617 C 7.630 10.307,6.807 10.892,6.767 10.918 C 6.519 11.079,6.173 10.978,6.051 10.710 C 6.003 10.605,6.001 10.482,6.001 8.000 C 6.001 5.533,6.004 5.395,6.050 5.293 C 6.104 5.176,6.160 5.118,6.280 5.055 C 6.374 5.006,6.618 5.000,6.702 5.044 " stroke="none" fill-rule="evenodd"></path></svg>