<svg width="16" height="16" fill="currentColor" xmlns="http://www.w3.org/2000/svg"><path d="M5.973 7.759 L 5.973 13.517 6.513 13.690 C 6.810 13.785,7.383 13.967,7.787 14.095 C 8.190 14.223,8.535 14.333,8.553 14.340 C 8.579 14.349,8.587 13.312,8.593 9.383 L 8.600 4.413 8.676 4.260 C 8.760 4.087,8.847 4.026,9.005 4.027 C 9.151 4.028,9.308 4.109,9.422 4.242 C 9.617 4.470,9.610 4.378,9.626 6.759 L 9.640 8.892 9.825 8.969 C 10.624 9.301,11.361 9.230,11.848 8.774 C 12.157 8.485,12.361 8.078,12.472 7.527 C 12.543 7.177,12.534 6.238,12.457 5.804 C 12.246 4.627,11.717 3.958,10.547 3.386 C 9.968 3.104,9.126 2.815,7.800 2.443 C 7.176 2.268,6.079 2.000,5.987 2.000 C 5.980 2.000,5.973 4.591,5.973 7.759 M3.467 9.678 C 1.150 10.506,1.263 10.462,0.800 10.697 C 0.350 10.926,0.164 11.068,0.070 11.256 C -0.174 11.746,0.263 12.222,1.227 12.517 C 1.927 12.731,2.499 12.847,3.156 12.909 C 3.535 12.944,4.556 12.928,4.867 12.882 C 4.969 12.867,5.146 12.841,5.260 12.824 L 5.467 12.793 5.467 12.114 C 5.467 11.548,5.461 11.437,5.430 11.448 C 4.960 11.629,4.005 11.958,3.860 11.990 C 3.595 12.048,3.066 12.068,2.837 12.029 C 2.624 11.992,2.438 11.911,2.398 11.836 C 2.344 11.736,2.428 11.616,2.620 11.517 C 2.697 11.478,4.651 10.768,5.380 10.514 L 5.493 10.475 5.493 9.732 C 5.493 9.324,5.484 8.985,5.473 8.980 C 5.462 8.974,4.559 9.288,3.467 9.678 M11.280 9.657 C 10.698 9.711,9.872 9.878,9.327 10.053 L 9.067 10.136 9.067 10.908 C 9.067 11.508,9.074 11.680,9.100 11.680 C 9.118 11.680,9.780 11.452,10.570 11.173 C 11.361 10.895,12.105 10.646,12.224 10.620 C 12.524 10.556,13.181 10.556,13.389 10.620 C 13.688 10.712,13.756 10.842,13.589 11.000 C 13.482 11.101,13.622 11.047,11.160 11.925 C 10.089 12.307,9.180 12.631,9.140 12.645 L 9.067 12.672 9.067 13.416 C 9.067 13.891,9.076 14.160,9.093 14.160 C 9.108 14.160,10.407 13.698,11.980 13.134 C 15.033 12.039,15.317 11.924,15.660 11.641 C 16.082 11.292,16.107 10.924,15.733 10.577 C 15.287 10.164,13.953 9.757,12.712 9.655 C 12.318 9.622,11.647 9.623,11.280 9.657 " stroke="none" fill-rule="evenodd"></path></svg>