<svg width="16" height="16" fill="currentColor" xmlns="http://www.w3.org/2000/svg"><path d="M7.467 0.017 C 5.118 0.192,3.024 1.327,1.608 3.193 C 0.799 4.260,0.296 5.477,0.073 6.906 C -0.009 7.429,-0.009 8.571,0.073 9.094 C 0.415 11.288,1.476 13.089,3.195 14.393 C 4.257 15.199,5.481 15.705,6.906 15.927 C 7.429 16.009,8.571 16.009,9.094 15.927 C 11.038 15.624,12.690 14.748,13.930 13.362 C 15.030 12.133,15.665 10.775,15.927 9.094 C 16.009 8.571,16.009 7.429,15.927 6.906 C 15.705 5.481,15.199 4.257,14.393 3.195 C 13.070 1.452,11.180 0.355,9.000 0.066 C 8.688 0.025,7.760 -0.005,7.467 0.017 M9.040 1.078 C 11.831 1.511,14.104 3.571,14.781 6.281 C 14.942 6.924,14.973 7.204,14.973 8.000 C 14.973 8.555,14.962 8.775,14.924 9.027 C 14.474 11.939,12.308 14.238,9.437 14.850 C 8.548 15.040,7.452 15.040,6.563 14.850 C 3.952 14.294,1.876 12.308,1.227 9.747 C 1.059 9.083,1.027 8.807,1.027 8.000 C 1.027 7.193,1.059 6.917,1.227 6.253 C 1.847 3.807,3.806 1.848,6.253 1.227 C 6.473 1.171,6.797 1.106,6.973 1.083 C 7.149 1.059,7.329 1.035,7.373 1.029 C 7.574 1.002,8.774 1.037,9.040 1.078 M7.800 4.050 C 7.671 4.110,7.590 4.194,7.535 4.326 C 7.499 4.411,7.493 4.635,7.493 5.958 L 7.493 7.491 5.927 7.499 C 4.222 7.507,4.287 7.502,4.141 7.658 C 3.899 7.917,3.993 8.326,4.326 8.465 C 4.411 8.501,4.635 8.507,5.959 8.507 L 7.493 8.507 7.493 10.041 C 7.493 11.365,7.499 11.589,7.535 11.674 C 7.713 12.101,8.287 12.101,8.465 11.674 C 8.501 11.589,8.507 11.365,8.507 10.041 L 8.507 8.507 10.047 8.506 C 11.487 8.506,11.594 8.502,11.693 8.456 C 11.822 8.397,11.904 8.312,11.959 8.180 C 12.056 7.948,11.954 7.680,11.720 7.551 C 11.649 7.511,11.472 7.506,10.073 7.499 L 8.507 7.491 8.506 5.952 C 8.506 4.513,8.502 4.406,8.456 4.307 C 8.336 4.045,8.051 3.934,7.800 4.050 " stroke="none" fill-rule="evenodd"></path></svg>