<svg width="16" height="16" fill="currentColor" xmlns="http://www.w3.org/2000/svg"><path d="M2.160 0.024 C 2.084 0.034,2.038 0.054,2.033 0.080 C 2.023 0.138,2.200 1.015,2.222 1.014 C 2.232 1.014,2.402 1.013,2.600 1.013 L 2.960 1.013 2.960 0.507 L 2.960 0.000 2.620 0.004 C 2.433 0.006,2.226 0.015,2.160 0.024 M3.873 0.500 L 3.880 1.000 4.333 1.000 L 4.787 1.000 4.794 0.500 L 4.801 0.000 4.333 0.000 L 3.865 0.000 3.873 0.500 M5.707 0.507 L 5.707 1.015 6.167 1.007 L 6.627 1.000 6.634 0.500 L 6.641 0.000 6.174 0.000 L 5.707 0.000 5.707 0.507 M7.547 0.507 L 7.547 1.013 8.000 1.013 L 8.453 1.013 8.453 0.507 L 8.453 0.000 8.000 0.000 L 7.547 0.000 7.547 0.507 M9.366 0.500 L 9.373 1.000 9.833 1.007 L 10.293 1.015 10.293 0.507 L 10.293 0.000 9.826 0.000 L 9.359 0.000 9.366 0.500 M11.206 0.500 L 11.213 1.000 11.667 1.000 L 12.120 1.000 12.127 0.500 L 12.135 0.000 11.667 0.000 L 11.199 0.000 11.206 0.500 M13.040 0.507 L 13.040 1.013 13.400 1.013 C 13.598 1.013,13.769 1.010,13.780 1.007 C 13.807 0.998,13.985 0.082,13.964 0.061 C 13.930 0.028,13.684 0.003,13.367 0.002 L 13.040 0.000 13.040 0.507 M0.917 0.571 C 0.739 0.714,0.565 0.897,0.469 1.045 L 0.423 1.117 0.824 1.385 C 1.045 1.533,1.235 1.653,1.246 1.652 C 1.257 1.652,1.307 1.601,1.356 1.539 C 1.405 1.477,1.491 1.391,1.548 1.347 C 1.605 1.303,1.651 1.256,1.652 1.244 C 1.653 1.225,1.176 0.508,1.120 0.445 C 1.110 0.433,1.018 0.490,0.917 0.571 M14.614 0.826 C 14.467 1.045,14.347 1.230,14.347 1.235 C 14.347 1.248,14.754 1.653,14.767 1.653 C 14.773 1.653,14.956 1.532,15.175 1.384 C 15.516 1.152,15.569 1.108,15.547 1.067 C 15.472 0.927,15.074 0.532,14.927 0.451 C 14.889 0.430,14.840 0.487,14.614 0.826 M0.037 2.059 C 0.026 2.076,0.012 2.286,0.005 2.525 L -0.007 2.960 0.502 2.960 L 1.011 2.960 1.019 2.585 C 1.026 2.229,1.024 2.210,0.973 2.198 C 0.826 2.164,0.120 2.027,0.091 2.027 C 0.072 2.027,0.048 2.041,0.037 2.059 M15.400 2.121 C 15.165 2.170,14.973 2.211,14.973 2.212 C 14.973 2.213,14.977 2.381,14.981 2.587 L 14.989 2.960 15.495 2.960 L 16.000 2.960 15.998 2.607 C 15.996 2.135,15.979 2.041,15.893 2.035 C 15.857 2.033,15.635 2.071,15.400 2.121 M0.000 4.333 L 0.000 4.801 0.500 4.794 L 1.000 4.787 1.000 4.333 L 1.000 3.880 0.500 3.873 L 0.000 3.865 0.000 4.333 M14.998 3.901 C 14.991 3.920,14.989 4.127,14.993 4.361 L 15.000 4.787 15.500 4.794 L 16.000 4.801 16.000 4.334 L 16.000 3.867 15.506 3.867 C 15.127 3.867,15.009 3.875,14.998 3.901 M7.800 4.050 C 7.671 4.110,7.590 4.194,7.535 4.326 C 7.499 4.411,7.493 4.635,7.493 5.958 L 7.493 7.491 5.927 7.499 C 4.222 7.507,4.287 7.502,4.141 7.658 C 3.899 7.917,3.993 8.326,4.326 8.465 C 4.411 8.501,4.635 8.507,5.959 8.507 L 7.493 8.507 7.493 10.041 C 7.493 11.365,7.499 11.589,7.535 11.674 C 7.713 12.101,8.287 12.101,8.465 11.674 C 8.501 11.589,8.507 11.365,8.507 10.041 L 8.507 8.507 10.047 8.506 C 11.487 8.506,11.594 8.502,11.693 8.456 C 11.822 8.397,11.904 8.312,11.959 8.180 C 12.056 7.948,11.954 7.680,11.720 7.551 C 11.649 7.511,11.472 7.506,10.073 7.499 L 8.507 7.491 8.506 5.952 C 8.506 4.513,8.502 4.406,8.456 4.307 C 8.336 4.045,8.051 3.934,7.800 4.050 M0.000 6.174 L 0.000 6.641 0.500 6.634 L 1.000 6.627 1.007 6.167 L 1.015 5.707 0.507 5.707 L 0.000 5.707 0.000 6.174 M14.993 6.167 L 15.000 6.627 15.500 6.634 L 16.000 6.641 16.000 6.174 L 16.000 5.707 15.493 5.707 L 14.985 5.707 14.993 6.167 M0.000 8.000 L 0.000 8.453 0.507 8.453 L 1.013 8.453 1.013 8.000 L 1.013 7.547 0.507 7.547 L 0.000 7.547 0.000 8.000 M14.987 8.000 L 14.987 8.453 15.493 8.453 L 16.000 8.453 16.000 8.000 L 16.000 7.547 15.493 7.547 L 14.987 7.547 14.987 8.000 M0.000 9.840 L 0.000 10.293 0.507 10.293 L 1.013 10.293 1.013 9.840 L 1.013 9.387 0.507 9.387 L 0.000 9.387 0.000 9.840 M14.987 9.840 L 14.987 10.293 15.493 10.293 L 16.000 10.293 16.000 9.840 L 16.000 9.387 15.493 9.387 L 14.987 9.387 14.987 9.840 M0.000 11.667 L 0.000 12.135 0.500 12.127 L 1.000 12.120 1.000 11.667 L 1.000 11.213 0.500 11.206 L 0.000 11.199 0.000 11.667 M14.998 11.234 C 14.991 11.253,14.989 11.460,14.993 11.694 L 15.000 12.120 15.500 12.127 L 16.000 12.135 16.000 11.667 L 16.000 11.200 15.506 11.200 C 15.127 11.200,15.009 11.208,14.998 11.234 M0.004 13.479 C 0.011 13.767,0.026 13.930,0.046 13.950 C 0.070 13.974,0.180 13.961,0.512 13.896 C 0.751 13.849,0.965 13.805,0.987 13.799 C 1.020 13.789,1.025 13.728,1.019 13.414 L 1.011 13.040 0.502 13.040 L -0.006 13.040 0.004 13.479 M14.987 13.400 C 14.987 13.598,14.986 13.768,14.986 13.778 C 14.985 13.789,15.196 13.838,15.454 13.889 C 15.809 13.958,15.931 13.973,15.954 13.950 C 15.974 13.930,15.989 13.762,15.996 13.479 L 16.006 13.040 15.496 13.040 L 14.987 13.040 14.987 13.400 M0.821 14.620 C 0.504 14.837,0.433 14.896,0.452 14.931 C 0.528 15.069,0.932 15.472,1.073 15.549 C 1.111 15.570,1.160 15.513,1.386 15.174 C 1.533 14.955,1.653 14.765,1.652 14.754 C 1.652 14.743,1.601 14.693,1.539 14.644 C 1.477 14.595,1.391 14.509,1.347 14.452 C 1.303 14.395,1.255 14.350,1.240 14.351 C 1.225 14.352,1.037 14.473,0.821 14.620 M14.640 14.463 C 14.589 14.526,14.502 14.612,14.448 14.655 C 14.394 14.698,14.349 14.743,14.348 14.755 C 14.347 14.767,14.468 14.956,14.615 15.175 C 14.828 15.490,14.893 15.569,14.925 15.551 C 15.060 15.475,15.475 15.061,15.550 14.926 C 15.567 14.896,15.480 14.825,15.165 14.617 C 14.941 14.468,14.753 14.347,14.746 14.348 C 14.739 14.349,14.691 14.401,14.640 14.463 M2.110 15.452 C 2.042 15.807,2.028 15.932,2.051 15.955 C 2.070 15.974,2.240 15.989,2.521 15.996 L 2.960 16.006 2.960 15.510 L 2.960 15.013 2.777 15.013 C 2.677 15.013,2.506 15.006,2.397 14.997 L 2.200 14.981 2.110 15.452 M13.313 15.006 L 13.040 15.015 13.040 15.511 L 13.040 16.006 13.479 15.996 C 13.766 15.989,13.930 15.974,13.950 15.954 C 13.974 15.930,13.959 15.813,13.890 15.461 L 13.798 15.000 13.692 14.998 C 13.634 14.997,13.464 15.001,13.313 15.006 M3.867 15.507 L 3.867 16.000 4.333 16.000 L 4.800 16.000 4.800 15.507 L 4.800 15.013 4.333 15.013 L 3.867 15.013 3.867 15.507 M5.707 15.507 L 5.707 16.000 6.173 16.000 L 6.640 16.000 6.640 15.507 L 6.640 15.013 6.173 15.013 L 5.707 15.013 5.707 15.507 M7.547 15.507 L 7.547 16.000 8.000 16.000 L 8.453 16.000 8.453 15.507 L 8.453 15.013 8.000 15.013 L 7.547 15.013 7.547 15.507 M9.360 15.507 L 9.360 16.000 9.827 16.000 L 10.293 16.000 10.293 15.507 L 10.293 15.013 9.827 15.013 L 9.360 15.013 9.360 15.507 M11.200 15.507 L 11.200 16.000 11.667 16.000 L 12.133 16.000 12.133 15.507 L 12.133 15.013 11.667 15.013 L 11.200 15.013 11.200 15.507 " stroke="none" fill-rule="evenodd"></path></svg>