<svg width="16" height="16" fill="currentColor" xmlns="http://www.w3.org/2000/svg"><path d="M7.467 0.017 C 5.118 0.192,3.024 1.327,1.608 3.193 C 0.799 4.260,0.296 5.477,0.073 6.906 C -0.009 7.429,-0.009 8.571,0.073 9.094 C 0.415 11.288,1.476 13.089,3.195 14.393 C 4.257 15.199,5.481 15.705,6.906 15.927 C 7.429 16.009,8.571 16.009,9.094 15.927 C 11.038 15.624,12.690 14.748,13.930 13.362 C 15.030 12.133,15.665 10.775,15.927 9.094 C 16.009 8.571,16.009 7.429,15.927 6.906 C 15.705 5.481,15.199 4.257,14.393 3.195 C 13.070 1.452,11.180 0.355,9.000 0.066 C 8.688 0.025,7.760 -0.005,7.467 0.017 M8.180 4.041 C 8.298 4.091,8.389 4.171,8.449 4.280 C 8.489 4.351,8.494 4.528,8.501 5.926 L 8.509 7.491 10.074 7.499 C 11.778 7.507,11.713 7.502,11.859 7.658 C 12.096 7.912,12.014 8.308,11.693 8.456 C 11.594 8.502,11.487 8.506,10.048 8.506 L 8.509 8.507 8.501 10.073 C 8.493 11.778,8.498 11.713,8.342 11.859 C 8.260 11.935,8.103 12.000,8.000 12.000 C 7.897 12.000,7.740 11.935,7.658 11.859 C 7.502 11.713,7.507 11.778,7.499 10.073 L 7.491 8.507 5.958 8.507 C 4.305 8.507,4.318 8.508,4.164 8.365 C 4.080 8.288,4.001 8.115,4.001 8.006 C 3.999 7.831,4.116 7.641,4.280 7.551 C 4.351 7.511,4.528 7.506,5.926 7.499 L 7.491 7.491 7.499 5.926 C 7.506 4.528,7.511 4.351,7.551 4.280 C 7.680 4.046,7.948 3.944,8.180 4.041 " stroke="none" fill-rule="evenodd"></path></svg>