<svg width="16" height="16" fill="currentColor" xmlns="http://www.w3.org/2000/svg"><path d="M0.993 0.500 L 1.000 1.000 1.142 1.017 C 1.342 1.042,1.602 1.177,1.731 1.323 C 2.259 1.924,1.945 2.841,1.162 2.984 C 1.075 3.000,1.000 3.013,0.995 3.013 C 0.990 3.013,0.987 3.234,0.987 3.504 L 0.987 3.994 1.130 4.012 C 1.451 4.052,1.768 4.290,1.912 4.600 C 1.975 4.738,1.986 4.794,1.986 5.000 C 1.986 5.206,1.975 5.262,1.912 5.400 C 1.767 5.711,1.444 5.953,1.120 5.992 L 0.986 6.008 0.993 6.504 L 1.000 7.000 1.142 7.017 C 1.342 7.042,1.602 7.177,1.731 7.323 C 2.259 7.924,1.945 8.841,1.162 8.984 C 1.075 9.000,1.000 9.013,0.995 9.013 C 0.990 9.013,0.987 9.234,0.987 9.504 L 0.987 9.994 1.130 10.012 C 1.451 10.052,1.768 10.290,1.912 10.600 C 1.975 10.738,1.986 10.794,1.986 11.000 C 1.986 11.206,1.975 11.262,1.912 11.400 C 1.767 11.711,1.444 11.953,1.120 11.992 L 0.986 12.008 0.993 12.504 L 1.000 13.000 1.142 13.017 C 1.342 13.042,1.602 13.177,1.731 13.323 C 2.259 13.924,1.945 14.841,1.162 14.984 C 1.075 15.000,1.000 15.013,0.995 15.013 C 0.990 15.013,0.987 15.235,0.987 15.507 L 0.987 16.000 1.743 16.000 L 2.499 16.000 2.515 15.865 C 2.551 15.561,2.754 15.276,3.047 15.117 C 3.206 15.031,3.226 15.027,3.493 15.027 C 3.749 15.027,3.787 15.034,3.932 15.105 C 4.224 15.248,4.418 15.505,4.478 15.826 C 4.494 15.912,4.507 15.987,4.507 15.992 C 4.507 15.996,4.729 16.000,5.000 16.000 C 5.271 16.000,5.493 15.996,5.493 15.992 C 5.493 15.987,5.506 15.912,5.522 15.826 C 5.582 15.505,5.776 15.248,6.068 15.105 C 6.213 15.034,6.251 15.027,6.507 15.027 C 6.774 15.027,6.794 15.031,6.953 15.117 C 7.246 15.276,7.449 15.561,7.485 15.865 L 7.501 16.000 8.000 16.000 L 8.499 16.000 8.515 15.865 C 8.551 15.561,8.754 15.276,9.047 15.117 C 9.206 15.031,9.226 15.027,9.493 15.027 C 9.749 15.027,9.787 15.034,9.932 15.105 C 10.224 15.248,10.418 15.505,10.478 15.826 C 10.494 15.912,10.507 15.987,10.507 15.992 C 10.507 15.996,10.729 16.000,11.000 16.000 C 11.271 16.000,11.493 15.996,11.493 15.992 C 11.493 15.987,11.506 15.912,11.522 15.826 C 11.582 15.505,11.776 15.248,12.068 15.105 C 12.213 15.034,12.251 15.027,12.507 15.027 C 12.774 15.027,12.794 15.031,12.953 15.117 C 13.246 15.276,13.449 15.561,13.485 15.865 L 13.501 16.000 14.257 16.000 L 15.013 16.000 15.013 15.507 C 15.013 15.235,15.010 15.013,15.005 15.013 C 15.000 15.013,14.925 15.000,14.838 14.984 C 14.055 14.841,13.741 13.924,14.269 13.323 C 14.398 13.177,14.658 13.042,14.858 13.017 L 15.000 13.000 15.007 12.504 L 15.014 12.008 14.880 11.992 C 14.556 11.953,14.233 11.711,14.088 11.400 C 14.025 11.262,14.014 11.206,14.014 11.000 C 14.014 10.794,14.025 10.738,14.088 10.600 C 14.232 10.290,14.549 10.052,14.870 10.012 L 15.013 9.994 15.013 9.504 C 15.013 9.234,15.010 9.013,15.005 9.013 C 15.000 9.013,14.925 9.000,14.838 8.984 C 14.055 8.841,13.741 7.924,14.269 7.323 C 14.398 7.177,14.658 7.042,14.858 7.017 L 15.000 7.000 15.007 6.504 L 15.014 6.008 14.879 5.991 C 14.558 5.954,14.229 5.708,14.089 5.403 C 14.025 5.263,14.015 5.206,14.014 5.000 C 14.014 4.793,14.024 4.738,14.088 4.600 C 14.232 4.290,14.549 4.052,14.870 4.012 L 15.013 3.994 15.013 3.504 C 15.013 3.234,15.010 3.013,15.005 3.013 C 15.000 3.013,14.925 3.000,14.838 2.984 C 14.055 2.841,13.741 1.924,14.269 1.323 C 14.398 1.177,14.658 1.042,14.858 1.017 L 15.000 1.000 15.007 0.500 L 15.015 -0.000 14.258 -0.000 L 13.501 0.000 13.485 0.135 C 13.452 0.415,13.249 0.719,12.997 0.867 C 12.523 1.145,11.866 0.951,11.617 0.461 C 11.567 0.362,11.493 0.093,11.493 0.008 C 11.493 0.004,11.271 0.000,11.000 0.000 C 10.729 0.000,10.507 0.004,10.507 0.008 C 10.507 0.013,10.494 0.088,10.478 0.174 C 10.328 0.985,9.329 1.279,8.773 0.677 C 8.638 0.530,8.537 0.318,8.515 0.135 L 8.499 0.000 8.000 0.000 L 7.501 0.000 7.485 0.135 C 7.452 0.415,7.249 0.719,6.997 0.867 C 6.523 1.145,5.866 0.951,5.617 0.461 C 5.567 0.362,5.493 0.093,5.493 0.008 C 5.493 0.004,5.271 0.000,5.000 0.000 C 4.729 0.000,4.507 0.004,4.507 0.008 C 4.507 0.013,4.494 0.088,4.478 0.174 C 4.328 0.985,3.329 1.279,2.773 0.677 C 2.638 0.530,2.537 0.318,2.515 0.135 L 2.499 0.000 1.742 0.000 L 0.985 0.000 0.993 0.500 M12.254 2.041 C 12.559 2.119,12.819 2.354,12.931 2.654 L 12.987 2.803 12.980 8.035 L 12.973 13.268 12.886 13.446 C 12.784 13.652,12.618 13.814,12.400 13.917 L 12.253 13.987 8.000 13.987 L 3.747 13.987 3.600 13.917 C 3.382 13.814,3.216 13.652,3.114 13.446 L 3.027 13.268 3.020 8.035 L 3.013 2.803 3.069 2.654 C 3.179 2.359,3.439 2.120,3.733 2.042 C 3.960 1.982,12.021 1.981,12.254 2.041 M4.280 3.058 C 4.156 3.123,4.103 3.177,4.050 3.293 C 4.003 3.396,4.001 3.593,4.001 8.000 C 4.001 12.436,4.003 12.604,4.051 12.710 C 4.113 12.845,4.243 12.948,4.401 12.985 C 4.566 13.023,11.434 13.023,11.599 12.985 C 11.757 12.948,11.887 12.845,11.949 12.710 C 11.997 12.604,11.999 12.435,11.999 8.006 C 12.000 3.931,11.995 3.401,11.959 3.313 C 11.906 3.187,11.850 3.126,11.728 3.064 C 11.632 3.015,11.509 3.013,7.994 3.014 C 4.730 3.015,4.352 3.020,4.280 3.058 " stroke="none" fill-rule="evenodd"></path></svg>