<svg width="16" height="16" fill="currentColor" xmlns="http://www.w3.org/2000/svg"><path d="M1.669 2.028 C 0.992 2.142,0.371 2.651,0.135 3.283 C -0.004 3.654,0.001 3.489,0.000 7.994 C -0.000 12.586,-0.007 12.367,0.156 12.767 C 0.347 13.238,0.762 13.653,1.233 13.844 C 1.639 14.010,1.217 14.000,8.000 14.000 C 14.782 14.000,14.361 14.010,14.766 13.845 C 15.233 13.654,15.654 13.233,15.845 12.766 C 16.007 12.367,16.000 12.584,16.000 8.000 C 16.000 3.415,16.007 3.633,15.844 3.233 C 15.666 2.795,15.309 2.422,14.864 2.208 C 14.422 1.995,15.102 2.015,8.080 2.010 C 4.626 2.008,1.741 2.016,1.669 2.028 M14.407 3.085 C 14.584 3.167,14.812 3.392,14.900 3.570 L 14.973 3.720 14.973 8.000 L 14.973 12.280 14.901 12.428 C 14.757 12.720,14.468 12.934,14.145 12.987 C 13.929 13.022,2.071 13.022,1.855 12.987 C 1.532 12.934,1.243 12.720,1.099 12.428 L 1.027 12.280 1.020 8.055 C 1.012 3.368,1.001 3.679,1.189 3.424 C 1.313 3.257,1.488 3.123,1.662 3.063 C 1.793 3.017,2.106 3.015,8.040 3.021 L 14.280 3.027 14.407 3.085 M7.800 4.050 C 7.671 4.110,7.590 4.194,7.535 4.326 C 7.498 4.414,7.493 4.834,7.493 8.000 C 7.493 11.166,7.498 11.586,7.535 11.674 C 7.713 12.101,8.287 12.101,8.465 11.674 C 8.502 11.586,8.507 11.167,8.506 7.994 C 8.506 4.570,8.503 4.409,8.456 4.307 C 8.336 4.045,8.051 3.934,7.800 4.050 M2.262 5.067 C 2.074 5.167,1.979 5.364,2.012 5.587 C 2.035 5.744,2.197 5.932,2.343 5.973 C 2.404 5.990,3.117 6.000,4.267 5.999 C 5.981 5.999,6.100 5.996,6.201 5.950 C 6.564 5.785,6.603 5.301,6.270 5.090 L 6.150 5.013 4.255 5.015 C 2.434 5.016,2.356 5.018,2.262 5.067 M10.280 5.058 C 10.156 5.123,10.103 5.177,10.050 5.293 C 10.004 5.393,10.001 5.504,10.001 7.000 C 10.001 8.506,10.004 8.606,10.051 8.710 C 10.113 8.845,10.243 8.948,10.401 8.985 C 10.562 9.022,13.438 9.022,13.599 8.985 C 13.757 8.948,13.887 8.845,13.949 8.710 C 13.996 8.607,13.999 8.505,13.999 7.006 C 14.000 5.631,13.994 5.398,13.959 5.313 C 13.906 5.187,13.850 5.126,13.728 5.064 C 13.634 5.016,13.547 5.013,11.994 5.014 C 10.555 5.015,10.350 5.021,10.280 5.058 M12.987 7.000 L 12.987 8.000 12.000 8.000 L 11.013 8.000 11.013 7.000 L 11.013 6.000 12.000 6.000 L 12.987 6.000 12.987 7.000 M2.262 7.067 C 2.074 7.167,1.979 7.364,2.012 7.587 C 2.035 7.744,2.197 7.932,2.343 7.973 C 2.404 7.990,3.117 8.000,4.267 7.999 C 5.981 7.999,6.100 7.996,6.201 7.950 C 6.564 7.785,6.603 7.301,6.270 7.090 L 6.150 7.013 4.255 7.015 C 2.434 7.016,2.356 7.018,2.262 7.067 M2.262 9.067 C 2.074 9.167,1.979 9.364,2.012 9.587 C 2.035 9.744,2.197 9.932,2.343 9.973 C 2.404 9.990,3.117 10.000,4.267 9.999 C 5.981 9.999,6.100 9.996,6.201 9.950 C 6.564 9.785,6.603 9.301,6.270 9.090 L 6.150 9.013 4.255 9.015 C 2.434 9.016,2.356 9.018,2.262 9.067 " stroke="none" fill-rule="evenodd"></path></svg>