<svg width="16" height="16" fill="currentColor" xmlns="http://www.w3.org/2000/svg"><path d="M2.767 0.029 C 2.486 0.095,2.229 0.309,2.096 0.587 L 2.013 0.760 2.013 2.000 L 2.013 3.240 2.088 3.400 C 2.229 3.703,2.551 3.949,2.859 3.990 L 2.986 4.007 2.993 9.383 C 3.000 14.526,3.002 14.766,3.049 14.907 C 3.230 15.446,3.645 15.837,4.167 15.960 C 4.417 16.019,11.583 16.019,11.833 15.960 C 12.355 15.837,12.770 15.446,12.951 14.907 C 12.998 14.766,13.000 14.526,13.007 9.383 L 13.014 4.007 13.141 3.990 C 13.449 3.949,13.771 3.703,13.912 3.400 L 13.987 3.240 13.987 2.000 L 13.987 0.760 13.911 0.597 C 13.816 0.391,13.610 0.186,13.400 0.088 L 13.240 0.013 8.053 0.009 C 5.095 0.007,2.824 0.015,2.767 0.029 M12.987 2.013 L 12.987 3.013 8.000 3.013 L 3.013 3.013 3.013 2.013 L 3.013 1.013 8.000 1.013 L 12.987 1.013 12.987 2.013 M11.999 9.300 C 11.999 14.419,11.997 14.604,11.949 14.710 C 11.887 14.845,11.757 14.948,11.599 14.985 C 11.434 15.023,4.566 15.023,4.401 14.985 C 4.243 14.948,4.113 14.845,4.051 14.710 C 4.003 14.604,4.001 14.419,4.001 9.300 L 4.000 4.000 8.000 4.000 L 12.000 4.000 11.999 9.300 M6.987 7.000 L 6.987 8.000 5.987 8.000 L 4.987 8.000 4.987 9.000 L 4.987 10.000 5.987 10.000 L 6.987 10.000 6.987 11.000 L 6.987 12.000 8.000 12.000 L 9.013 12.000 9.013 11.000 L 9.013 10.000 10.013 10.000 L 11.013 10.000 11.013 9.000 L 11.013 8.000 10.013 8.000 L 9.013 8.000 9.013 7.000 L 9.013 6.000 8.000 6.000 L 6.987 6.000 6.987 7.000 " stroke="none" fill-rule="evenodd"></path></svg>