<svg width="16" height="16" fill="currentColor" xmlns="http://www.w3.org/2000/svg"><path d="M4.507 1.068 C 3.943 1.213,3.466 1.601,3.215 2.120 C 3.008 2.546,3.007 2.559,2.993 3.860 L 2.982 5.013 2.364 5.014 C 1.689 5.014,1.506 5.038,1.220 5.163 C 0.664 5.406,0.279 5.835,0.077 6.440 L 0.014 6.627 0.006 8.399 C -0.003 10.341,-0.001 10.383,0.155 10.766 C 0.347 11.238,0.761 11.652,1.233 11.844 C 1.548 11.973,1.753 12.000,2.395 12.000 L 2.980 12.000 2.994 12.647 C 3.010 13.385,3.031 13.502,3.215 13.880 C 3.410 14.282,3.718 14.590,4.120 14.785 C 4.595 15.016,4.311 15.000,8.000 15.000 C 11.689 15.000,11.405 15.016,11.880 14.785 C 12.282 14.590,12.590 14.282,12.785 13.880 C 12.969 13.502,12.990 13.385,13.006 12.647 L 13.020 12.000 13.605 12.000 C 14.247 12.000,14.452 11.973,14.766 11.845 C 15.234 11.654,15.654 11.233,15.845 10.765 C 16.001 10.383,16.003 10.341,15.993 8.399 C 15.984 6.633,15.984 6.626,15.923 6.440 C 15.742 5.891,15.372 5.452,14.892 5.217 C 14.529 5.040,14.482 5.032,13.716 5.020 L 13.018 5.009 13.006 3.858 C 12.993 2.559,12.992 2.545,12.785 2.120 C 12.532 1.596,12.053 1.210,11.482 1.066 C 11.277 1.015,11.178 1.013,7.989 1.015 C 4.837 1.016,4.699 1.018,4.507 1.068 M11.400 2.088 C 11.610 2.186,11.816 2.391,11.911 2.597 L 11.987 2.760 11.995 3.887 L 12.003 5.013 8.000 5.013 L 3.997 5.013 4.005 3.887 L 4.013 2.760 4.088 2.600 C 4.217 2.324,4.489 2.095,4.767 2.029 C 4.823 2.015,6.254 2.007,8.053 2.009 L 11.240 2.013 11.400 2.088 M14.254 6.041 C 14.559 6.119,14.819 6.354,14.931 6.653 C 14.985 6.798,14.987 6.843,14.986 8.501 C 14.985 10.061,14.981 10.211,14.937 10.338 C 14.848 10.597,14.616 10.831,14.341 10.940 C 14.217 10.990,14.130 10.997,13.607 11.008 L 13.013 11.019 13.013 10.530 C 13.013 9.948,12.982 9.645,12.896 9.373 C 12.699 8.753,12.183 8.264,11.528 8.074 L 11.320 8.013 8.000 8.013 L 4.680 8.013 4.472 8.074 C 3.817 8.264,3.301 8.753,3.104 9.373 C 3.018 9.645,2.987 9.948,2.987 10.530 L 2.987 11.019 2.393 11.008 C 1.870 10.997,1.783 10.990,1.659 10.940 C 1.384 10.831,1.152 10.597,1.063 10.338 C 1.019 10.211,1.015 10.061,1.014 8.501 C 1.013 6.843,1.015 6.798,1.069 6.653 C 1.143 6.456,1.264 6.301,1.441 6.181 C 1.720 5.990,1.225 6.004,7.988 6.002 C 13.377 6.000,14.114 6.005,14.254 6.041 M2.262 7.067 C 2.072 7.168,1.979 7.364,2.013 7.590 C 2.028 7.696,2.055 7.742,2.156 7.844 C 2.258 7.945,2.304 7.972,2.410 7.987 C 2.822 8.049,3.134 7.625,2.940 7.266 C 2.896 7.186,2.769 7.073,2.685 7.042 C 2.569 6.998,2.371 7.010,2.262 7.067 M11.347 9.069 C 11.544 9.143,11.699 9.264,11.819 9.441 C 12.002 9.709,12.003 9.714,11.994 11.578 L 11.987 13.240 11.911 13.403 C 11.816 13.609,11.610 13.814,11.400 13.912 L 11.240 13.987 8.000 13.987 L 4.760 13.987 4.597 13.911 C 4.391 13.816,4.186 13.610,4.088 13.400 L 4.013 13.240 4.006 11.578 C 3.997 9.714,3.998 9.708,4.181 9.442 C 4.305 9.261,4.428 9.162,4.629 9.079 L 4.787 9.015 7.992 9.014 C 11.177 9.013,11.199 9.014,11.347 9.069 " stroke="none" fill-rule="evenodd"></path></svg>