<svg width="16" height="16" fill="currentColor" xmlns="http://www.w3.org/2000/svg"><path d="M7.733 3.511 C 7.494 3.529,7.082 3.606,6.885 3.670 C 6.433 3.818,5.998 4.104,5.744 4.421 C 5.495 4.731,5.304 5.226,5.265 5.661 C 5.248 5.845,5.251 5.859,5.319 5.941 L 5.391 6.027 5.897 6.027 C 6.547 6.027,6.527 6.038,6.627 5.607 C 6.709 5.257,6.923 4.974,7.224 4.818 C 7.459 4.697,7.615 4.662,7.934 4.662 C 8.455 4.662,8.840 4.832,9.051 5.153 C 9.189 5.364,9.234 5.555,9.222 5.879 C 9.213 6.129,9.204 6.168,9.113 6.352 C 8.995 6.591,8.766 6.821,8.280 7.187 C 7.677 7.641,7.360 8.018,7.217 8.453 C 7.125 8.730,7.092 9.015,7.117 9.303 C 7.146 9.643,7.195 9.665,7.879 9.649 L 8.271 9.640 8.349 9.553 C 8.419 9.475,8.427 9.447,8.427 9.284 C 8.427 8.690,8.588 8.443,9.358 7.854 C 10.178 7.228,10.461 6.873,10.614 6.280 C 10.676 6.039,10.689 5.557,10.641 5.307 C 10.446 4.294,9.591 3.631,8.335 3.520 C 8.047 3.494,7.980 3.493,7.733 3.511 M7.540 10.641 C 6.943 10.791,6.644 11.417,6.909 11.964 C 6.987 12.125,7.221 12.331,7.407 12.400 C 7.817 12.555,8.309 12.464,8.590 12.183 C 8.764 12.010,8.839 11.818,8.839 11.546 C 8.840 11.343,8.831 11.300,8.753 11.142 C 8.650 10.933,8.532 10.822,8.298 10.712 C 8.155 10.645,8.088 10.631,7.884 10.624 C 7.750 10.619,7.595 10.627,7.540 10.641 " stroke="none" fill-rule="evenodd"></path></svg>