<svg width="16" height="16" fill="currentColor" xmlns="http://www.w3.org/2000/svg"><path d="M7.467 0.017 C 5.118 0.192,3.024 1.327,1.608 3.193 C 0.799 4.260,0.296 5.477,0.073 6.906 C -0.009 7.429,-0.009 8.571,0.073 9.094 C 0.415 11.288,1.476 13.089,3.195 14.393 C 4.257 15.199,5.481 15.705,6.906 15.927 C 7.429 16.009,8.571 16.009,9.094 15.927 C 11.038 15.624,12.690 14.748,13.930 13.362 C 15.030 12.133,15.665 10.775,15.927 9.094 C 16.009 8.571,16.009 7.429,15.927 6.906 C 15.705 5.481,15.199 4.257,14.393 3.195 C 13.070 1.452,11.180 0.355,9.000 0.066 C 8.688 0.025,7.760 -0.005,7.467 0.017 M8.335 3.520 C 9.581 3.630,10.426 4.279,10.628 5.279 C 10.690 5.587,10.670 6.120,10.586 6.387 C 10.416 6.926,10.138 7.259,9.358 7.854 C 8.588 8.443,8.427 8.687,8.427 9.268 C 8.427 9.449,8.420 9.473,8.349 9.553 L 8.271 9.640 7.879 9.649 C 7.391 9.661,7.267 9.644,7.183 9.554 C 7.124 9.489,7.120 9.467,7.120 9.147 C 7.120 8.307,7.414 7.833,8.385 7.105 C 8.658 6.901,8.944 6.633,9.044 6.487 C 9.331 6.071,9.301 5.420,8.980 5.053 C 8.856 4.913,8.627 4.778,8.406 4.715 C 8.194 4.655,7.738 4.645,7.533 4.695 C 7.317 4.747,7.050 4.900,6.917 5.049 C 6.732 5.254,6.669 5.398,6.575 5.822 C 6.565 5.864,6.527 5.927,6.488 5.962 C 6.420 6.026,6.411 6.027,5.905 6.027 L 5.391 6.027 5.322 5.945 C 5.242 5.849,5.241 5.830,5.292 5.493 C 5.405 4.753,5.804 4.190,6.453 3.855 C 6.876 3.636,7.333 3.527,7.947 3.498 C 7.998 3.496,8.173 3.506,8.335 3.520 M8.298 10.712 C 8.532 10.822,8.650 10.933,8.753 11.142 C 8.831 11.300,8.840 11.343,8.839 11.546 C 8.839 11.818,8.764 12.010,8.590 12.183 C 8.309 12.464,7.817 12.555,7.408 12.401 C 7.218 12.330,7.007 12.143,6.912 11.963 C 6.848 11.840,6.840 11.799,6.840 11.547 C 6.840 11.306,6.849 11.249,6.903 11.140 C 7.020 10.904,7.268 10.709,7.540 10.641 C 7.595 10.627,7.750 10.619,7.884 10.624 C 8.088 10.631,8.155 10.645,8.298 10.712 " stroke="none" fill-rule="evenodd"></path></svg>