<svg width="16" height="16" fill="currentColor" xmlns="http://www.w3.org/2000/svg"><path d="M7.632 0.052 C 7.378 0.121,7.212 0.213,6.978 0.416 C 6.639 0.708,0.332 7.049,0.245 7.184 C -0.058 7.654,-0.074 8.259,0.203 8.745 C 0.291 8.898,7.024 15.646,7.209 15.765 C 7.685 16.073,8.328 16.069,8.816 15.755 C 8.960 15.663,15.409 9.239,15.642 8.957 C 15.876 8.672,16.000 8.342,16.000 8.000 C 16.000 7.769,15.955 7.588,15.835 7.333 L 15.728 7.107 12.351 3.729 C 9.860 1.238,8.928 0.322,8.802 0.242 C 8.459 0.023,8.009 -0.050,7.632 0.052 M8.727 3.576 C 9.700 3.770,10.381 4.336,10.600 5.133 C 10.624 5.221,10.650 5.443,10.658 5.627 C 10.695 6.480,10.414 7.025,9.611 7.655 C 8.919 8.198,8.787 8.310,8.677 8.451 C 8.509 8.664,8.451 8.836,8.429 9.194 C 8.411 9.474,8.405 9.501,8.338 9.568 C 8.267 9.639,8.258 9.640,7.876 9.649 C 7.391 9.661,7.267 9.644,7.183 9.554 C 7.124 9.489,7.120 9.467,7.120 9.147 C 7.120 8.302,7.413 7.833,8.400 7.093 C 9.035 6.617,9.230 6.321,9.235 5.827 C 9.242 5.098,8.755 4.663,7.933 4.662 C 7.626 4.662,7.464 4.696,7.243 4.806 C 6.875 4.990,6.684 5.279,6.573 5.822 C 6.565 5.864,6.527 5.927,6.488 5.962 C 6.420 6.026,6.411 6.027,5.905 6.027 L 5.391 6.027 5.322 5.945 C 5.242 5.849,5.241 5.830,5.292 5.493 C 5.405 4.753,5.800 4.196,6.455 3.855 C 6.818 3.666,7.243 3.551,7.733 3.510 C 7.962 3.491,8.468 3.524,8.727 3.576 M8.298 10.712 C 8.532 10.821,8.650 10.933,8.752 11.140 C 8.829 11.296,8.838 11.340,8.838 11.546 C 8.838 11.745,8.828 11.797,8.762 11.932 C 8.625 12.211,8.373 12.394,8.040 12.456 C 7.553 12.547,7.076 12.323,6.895 11.919 C 6.829 11.772,6.823 11.731,6.831 11.511 C 6.838 11.319,6.854 11.238,6.905 11.135 C 6.987 10.969,7.134 10.821,7.306 10.734 C 7.500 10.635,7.610 10.614,7.884 10.624 C 8.088 10.631,8.155 10.645,8.298 10.712 " stroke="none" fill-rule="evenodd"></path></svg>