<svg width="16" height="16" fill="currentColor" xmlns="http://www.w3.org/2000/svg"><path d="M1.669 0.028 C 0.992 0.142,0.371 0.651,0.135 1.283 C -0.006 1.659,0.001 1.324,0.000 7.994 C -0.000 14.784,-0.010 14.361,0.156 14.767 C 0.347 15.238,0.762 15.653,1.233 15.844 C 1.639 16.010,1.217 16.000,8.000 16.000 C 14.782 16.000,14.361 16.010,14.766 15.845 C 15.233 15.654,15.654 15.233,15.845 14.766 C 16.010 14.361,16.000 14.782,16.000 8.000 C 16.000 1.217,16.010 1.639,15.844 1.233 C 15.666 0.795,15.309 0.422,14.864 0.208 C 14.422 -0.005,15.102 0.015,8.080 0.010 C 4.626 0.008,1.741 0.016,1.669 0.028 M9.323 4.062 C 10.176 4.233,10.795 4.679,11.108 5.347 C 11.243 5.633,11.302 5.860,11.331 6.201 C 11.398 6.993,11.163 7.687,10.662 8.179 C 10.445 8.393,10.320 8.483,10.077 8.603 C 9.969 8.656,9.876 8.703,9.872 8.707 C 9.867 8.711,10.016 9.019,10.202 9.390 C 10.389 9.762,10.754 10.502,11.015 11.033 L 11.489 12.000 10.735 12.000 L 9.982 12.000 9.253 10.467 L 8.525 8.933 7.676 8.933 L 6.827 8.933 6.827 10.467 L 6.827 12.000 6.160 12.000 L 5.493 12.000 5.493 7.998 L 5.493 3.997 7.300 4.008 C 8.832 4.017,9.139 4.025,9.323 4.062 M6.827 6.480 L 6.827 7.871 7.833 7.861 L 8.840 7.851 9.055 7.779 C 9.670 7.574,9.947 7.178,9.947 6.503 C 9.947 5.791,9.625 5.356,8.947 5.152 C 8.841 5.120,8.604 5.109,7.820 5.100 L 6.827 5.089 6.827 6.480 " stroke="none" fill-rule="evenodd"></path></svg>