<svg width="16" height="16" fill="currentColor" xmlns="http://www.w3.org/2000/svg"><path d="M7.520 3.521 C 5.848 3.613,4.189 4.267,2.893 5.346 C 2.636 5.560,2.218 5.967,1.976 6.240 C 0.801 7.566,0.085 9.351,0.010 11.143 C -0.010 11.623,0.010 11.713,0.171 11.861 C 0.377 12.051,0.664 12.042,0.857 11.839 C 0.974 11.717,1.013 11.566,1.013 11.245 C 1.013 11.125,1.031 10.875,1.053 10.690 C 1.293 8.631,2.413 6.816,4.160 5.651 C 4.488 5.433,5.077 5.129,5.473 4.974 C 6.845 4.438,8.423 4.361,9.874 4.759 C 11.659 5.248,13.219 6.483,14.130 8.128 C 14.644 9.054,14.987 10.302,14.987 11.245 C 14.987 11.566,15.026 11.717,15.143 11.839 C 15.336 12.042,15.623 12.051,15.829 11.861 C 15.990 11.713,16.010 11.623,15.990 11.143 C 15.915 9.348,15.201 7.568,14.024 6.240 C 12.353 4.356,10.025 3.382,7.520 3.521 M7.707 5.511 C 5.223 5.632,3.076 7.275,2.292 9.654 C 2.075 10.315,1.939 11.340,2.027 11.657 C 2.043 11.715,2.101 11.797,2.171 11.862 C 2.377 12.051,2.664 12.042,2.857 11.839 C 2.970 11.720,3.013 11.566,3.013 11.280 C 3.013 10.889,3.132 10.269,3.294 9.813 C 3.403 9.507,3.629 9.054,3.814 8.773 C 4.585 7.602,5.764 6.826,7.161 6.571 C 7.537 6.502,8.463 6.502,8.839 6.571 C 11.005 6.966,12.646 8.656,12.945 10.799 C 12.968 10.962,12.987 11.178,12.987 11.280 C 12.987 11.566,13.030 11.720,13.143 11.839 C 13.336 12.042,13.623 12.051,13.829 11.862 C 14.007 11.698,14.032 11.532,13.971 10.918 C 13.756 8.741,12.372 6.852,10.360 5.988 C 9.549 5.640,8.591 5.467,7.707 5.511 M7.645 7.520 C 6.733 7.606,5.907 7.979,5.260 8.597 C 4.630 9.199,4.250 9.882,4.080 10.720 C 4.009 11.069,3.983 11.495,4.024 11.643 C 4.091 11.890,4.391 12.051,4.641 11.976 C 4.896 11.900,4.981 11.747,5.015 11.302 C 5.070 10.575,5.338 9.958,5.823 9.446 C 6.396 8.840,7.168 8.507,8.000 8.507 C 8.832 8.507,9.590 8.833,10.171 9.440 C 10.658 9.951,10.929 10.574,10.986 11.312 C 11.012 11.654,11.053 11.774,11.178 11.880 C 11.371 12.042,11.641 12.035,11.829 11.861 C 11.981 11.722,12.011 11.612,11.992 11.267 C 11.900 9.601,10.729 8.130,9.125 7.665 C 8.680 7.536,8.091 7.479,7.645 7.520 M7.760 9.520 C 6.831 9.632,6.079 10.410,6.009 11.333 C 5.988 11.606,6.026 11.728,6.171 11.861 C 6.359 12.035,6.629 12.042,6.822 11.880 C 6.932 11.787,6.979 11.672,7.011 11.417 C 7.059 11.035,7.262 10.747,7.595 10.591 C 7.726 10.530,7.781 10.520,8.000 10.520 C 8.219 10.520,8.274 10.530,8.405 10.591 C 8.738 10.747,8.941 11.035,8.989 11.417 C 9.004 11.539,9.035 11.678,9.058 11.726 C 9.148 11.915,9.363 12.022,9.587 11.988 C 9.751 11.963,9.933 11.803,9.976 11.643 C 10.016 11.497,9.990 11.179,9.919 10.947 C 9.628 10.000,8.727 9.404,7.760 9.520 " stroke="none" fill-rule="evenodd"></path></svg>