<svg width="16" height="16" fill="currentColor" xmlns="http://www.w3.org/2000/svg"><path d="M12.307 2.051 C 12.171 2.113,12.060 2.232,12.026 2.348 C 11.990 2.473,11.991 13.525,12.026 13.654 C 12.059 13.772,12.227 13.939,12.348 13.974 C 12.402 13.989,12.888 14.000,13.520 13.999 C 14.517 13.999,14.608 13.995,14.710 13.949 C 14.845 13.887,14.948 13.757,14.985 13.599 C 15.023 13.433,15.023 2.567,14.985 2.401 C 14.948 2.243,14.845 2.113,14.710 2.051 C 14.608 2.005,14.518 2.001,13.507 2.001 C 12.499 2.001,12.405 2.005,12.307 2.051 M8.280 5.058 C 8.156 5.123,8.103 5.177,8.050 5.293 C 8.003 5.395,8.001 5.578,8.001 9.480 C 8.000 12.070,8.010 13.594,8.026 13.654 C 8.059 13.772,8.227 13.939,8.348 13.974 C 8.402 13.989,8.888 14.000,9.520 13.999 C 10.517 13.999,10.608 13.995,10.710 13.949 C 10.850 13.885,10.951 13.753,10.986 13.585 C 11.006 13.495,11.012 12.171,11.007 9.413 C 11.001 5.707,10.996 5.367,10.956 5.293 C 10.897 5.188,10.778 5.077,10.685 5.042 C 10.636 5.023,10.218 5.014,9.485 5.014 C 8.511 5.015,8.349 5.021,8.280 5.058 M4.307 8.051 C 4.171 8.113,4.060 8.232,4.026 8.348 C 3.991 8.473,3.991 13.528,4.026 13.652 C 4.061 13.773,4.228 13.941,4.346 13.974 C 4.400 13.989,4.893 14.000,5.520 13.999 C 6.517 13.999,6.608 13.995,6.710 13.949 C 6.845 13.887,6.948 13.757,6.985 13.599 C 7.022 13.435,7.022 8.565,6.985 8.401 C 6.948 8.243,6.845 8.113,6.710 8.051 C 6.608 8.005,6.518 8.001,5.507 8.001 C 4.499 8.001,4.405 8.005,4.307 8.051 M0.280 11.058 C 0.156 11.123,0.103 11.177,0.050 11.293 C 0.005 11.391,0.001 11.489,0.001 12.480 C 0.000 13.112,0.011 13.598,0.026 13.652 C 0.061 13.773,0.228 13.941,0.346 13.974 C 0.400 13.989,0.893 14.000,1.520 13.999 C 2.728 13.999,2.745 13.996,2.889 13.808 C 3.006 13.655,3.017 13.527,3.008 12.410 C 3.001 11.504,2.994 11.363,2.956 11.293 C 2.897 11.188,2.778 11.077,2.685 11.042 C 2.636 11.023,2.218 11.014,1.485 11.014 C 0.511 11.015,0.349 11.021,0.280 11.058 " stroke="none" fill-rule="evenodd"></path></svg>