<svg width="16" height="16" fill="currentColor" xmlns="http://www.w3.org/2000/svg"><path d="M1.800 0.544 C 1.658 0.606,1.548 0.768,1.271 1.327 L 1.000 1.873 0.993 8.443 L 0.986 15.013 0.679 15.013 C 0.425 15.013,0.353 15.023,0.268 15.066 C 0.075 15.165,-0.022 15.361,0.012 15.587 C 0.035 15.744,0.197 15.932,0.343 15.973 C 0.477 16.010,15.523 16.010,15.657 15.973 C 15.803 15.932,15.965 15.744,15.988 15.587 C 16.022 15.361,15.925 15.165,15.732 15.066 C 15.647 15.023,15.575 15.013,15.321 15.013 L 15.014 15.013 15.007 8.443 L 15.000 1.873 14.729 1.327 C 14.449 0.761,14.341 0.604,14.195 0.543 C 14.082 0.495,13.915 0.497,13.797 0.546 C 13.745 0.568,13.544 0.741,13.351 0.931 L 13.000 1.276 12.649 0.931 C 12.286 0.573,12.184 0.507,12.000 0.507 C 11.817 0.507,11.715 0.573,11.351 0.931 L 11.000 1.276 10.649 0.931 C 10.286 0.573,10.184 0.507,10.000 0.507 C 9.816 0.507,9.714 0.573,9.351 0.931 L 9.000 1.276 8.649 0.931 C 8.285 0.573,8.183 0.507,8.000 0.507 C 7.817 0.507,7.715 0.573,7.351 0.931 L 7.000 1.276 6.649 0.931 C 6.286 0.573,6.184 0.507,6.000 0.507 C 5.817 0.507,5.715 0.573,5.351 0.931 L 5.000 1.276 4.649 0.931 C 4.286 0.573,4.184 0.507,4.000 0.507 C 3.817 0.507,3.715 0.573,3.351 0.931 L 3.000 1.276 2.649 0.931 C 2.456 0.741,2.256 0.568,2.203 0.546 C 2.087 0.498,1.908 0.497,1.800 0.544 M4.346 2.065 C 4.941 2.654,5.059 2.653,5.659 2.060 L 6.000 1.723 6.341 2.060 C 6.942 2.655,7.058 2.655,7.659 2.060 L 8.000 1.723 8.341 2.060 C 8.942 2.655,9.058 2.655,9.659 2.060 L 10.000 1.723 10.341 2.060 C 10.942 2.655,11.058 2.655,11.659 2.060 L 12.000 1.723 12.341 2.060 C 12.925 2.638,13.065 2.646,13.589 2.129 L 13.863 1.860 13.931 1.996 L 14.000 2.132 14.000 8.572 L 14.000 15.013 8.000 15.013 L 2.000 15.013 2.000 8.572 L 2.000 2.132 2.068 1.997 L 2.137 1.862 2.414 2.132 C 2.941 2.644,3.087 2.635,3.666 2.054 C 3.842 1.878,3.991 1.733,3.998 1.733 C 4.005 1.733,4.162 1.883,4.346 2.065 M3.290 4.051 C 3.230 4.078,3.150 4.141,3.112 4.191 C 3.046 4.278,2.981 4.481,3.000 4.543 C 3.005 4.560,3.016 4.606,3.025 4.646 C 3.045 4.737,3.181 4.894,3.291 4.955 C 3.367 4.996,3.611 5.001,6.413 5.007 C 8.547 5.012,9.495 5.006,9.594 4.985 C 10.073 4.886,10.140 4.252,9.694 4.050 C 9.592 4.004,9.428 4.001,6.493 4.001 C 3.529 4.001,3.395 4.003,3.290 4.051 M11.290 4.051 C 11.039 4.165,10.930 4.492,11.061 4.737 C 11.106 4.819,11.270 4.956,11.354 4.980 C 11.449 5.006,12.551 5.006,12.646 4.980 C 12.730 4.956,12.894 4.819,12.939 4.737 C 13.070 4.492,12.961 4.165,12.710 4.051 C 12.613 4.007,12.529 4.001,12.000 4.001 C 11.471 4.001,11.387 4.007,11.290 4.051 M3.290 6.051 C 3.230 6.078,3.150 6.141,3.112 6.191 C 3.046 6.278,2.981 6.481,3.000 6.543 C 3.005 6.560,3.016 6.606,3.025 6.646 C 3.045 6.737,3.181 6.894,3.291 6.955 C 3.367 6.996,3.611 7.001,6.413 7.007 C 8.547 7.012,9.495 7.006,9.594 6.985 C 10.073 6.886,10.140 6.252,9.694 6.050 C 9.592 6.004,9.428 6.001,6.493 6.001 C 3.529 6.001,3.395 6.003,3.290 6.051 M11.290 6.051 C 11.039 6.165,10.930 6.492,11.061 6.737 C 11.106 6.819,11.270 6.956,11.354 6.980 C 11.449 7.006,12.551 7.006,12.646 6.980 C 12.730 6.956,12.894 6.819,12.939 6.737 C 13.070 6.492,12.961 6.165,12.710 6.051 C 12.613 6.007,12.529 6.001,12.000 6.001 C 11.471 6.001,11.387 6.007,11.290 6.051 M3.290 8.051 C 3.230 8.078,3.150 8.141,3.112 8.191 C 3.046 8.278,2.981 8.481,3.000 8.543 C 3.005 8.560,3.016 8.606,3.025 8.646 C 3.045 8.737,3.181 8.894,3.291 8.955 C 3.367 8.996,3.611 9.001,6.413 9.007 C 8.547 9.012,9.495 9.006,9.594 8.985 C 10.073 8.886,10.140 8.252,9.694 8.050 C 9.592 8.004,9.428 8.001,6.493 8.001 C 3.529 8.001,3.395 8.003,3.290 8.051 M11.290 8.051 C 11.039 8.165,10.930 8.492,11.061 8.737 C 11.106 8.819,11.270 8.956,11.354 8.980 C 11.449 9.006,12.551 9.006,12.646 8.980 C 12.730 8.956,12.894 8.819,12.939 8.737 C 13.070 8.492,12.961 8.165,12.710 8.051 C 12.613 8.007,12.529 8.001,12.000 8.001 C 11.471 8.001,11.387 8.007,11.290 8.051 M3.290 10.051 C 3.230 10.078,3.150 10.141,3.112 10.191 C 3.046 10.278,2.981 10.481,3.000 10.543 C 3.005 10.560,3.016 10.606,3.025 10.646 C 3.045 10.737,3.181 10.894,3.291 10.955 C 3.367 10.996,3.611 11.001,6.413 11.007 C 8.547 11.012,9.495 11.006,9.594 10.985 C 10.073 10.886,10.140 10.252,9.694 10.050 C 9.592 10.004,9.428 10.001,6.493 10.001 C 3.529 10.001,3.395 10.003,3.290 10.051 M11.290 10.051 C 11.039 10.165,10.930 10.492,11.061 10.737 C 11.106 10.819,11.270 10.956,11.354 10.980 C 11.449 11.006,12.551 11.006,12.646 10.980 C 12.730 10.956,12.894 10.819,12.939 10.737 C 13.070 10.492,12.961 10.165,12.710 10.051 C 12.613 10.007,12.529 10.001,12.000 10.001 C 11.471 10.001,11.387 10.007,11.290 10.051 M3.290 12.051 C 3.230 12.078,3.150 12.141,3.112 12.191 C 3.046 12.278,2.981 12.481,3.000 12.543 C 3.005 12.560,3.016 12.606,3.025 12.646 C 3.045 12.737,3.181 12.894,3.291 12.955 C 3.367 12.996,3.611 13.001,6.413 13.007 C 8.547 13.012,9.495 13.006,9.594 12.985 C 10.073 12.886,10.140 12.252,9.694 12.050 C 9.592 12.004,9.428 12.001,6.493 12.001 C 3.529 12.001,3.395 12.003,3.290 12.051 M11.290 12.051 C 11.039 12.165,10.930 12.492,11.061 12.737 C 11.106 12.819,11.270 12.956,11.354 12.980 C 11.449 13.006,12.551 13.006,12.646 12.980 C 12.730 12.956,12.894 12.819,12.939 12.737 C 13.070 12.492,12.961 12.165,12.710 12.051 C 12.613 12.007,12.529 12.001,12.000 12.001 C 11.471 12.001,11.387 12.007,11.290 12.051 " stroke="none" fill-rule="evenodd"></path></svg>