<svg width="16" height="16" fill="currentColor" xmlns="http://www.w3.org/2000/svg"><path d="M7.440 3.030 C 5.726 3.239,4.263 4.275,3.508 5.813 C 2.312 8.249,3.307 11.215,5.734 12.450 C 6.552 12.866,7.465 13.053,8.353 12.985 C 10.115 12.851,11.655 11.829,12.450 10.266 C 12.865 9.449,13.049 8.553,12.984 7.650 C 12.824 5.394,11.182 3.540,8.947 3.092 C 8.711 3.045,8.543 3.032,8.093 3.026 C 7.785 3.022,7.491 3.024,7.440 3.030 M8.694 4.064 C 9.581 4.222,10.425 4.697,11.004 5.363 C 11.486 5.919,11.805 6.586,11.940 7.320 C 11.999 7.645,11.999 8.355,11.940 8.680 C 11.870 9.058,11.769 9.376,11.615 9.697 C 11.056 10.864,10.068 11.641,8.782 11.925 C 8.402 12.009,7.598 12.009,7.218 11.925 C 5.561 11.559,4.365 10.331,4.060 8.680 C 4.000 8.354,4.000 7.646,4.060 7.320 C 4.263 6.223,4.872 5.285,5.773 4.683 C 6.483 4.209,7.249 3.988,8.093 4.013 C 8.299 4.019,8.569 4.042,8.694 4.064 " stroke="none" fill-rule="evenodd"></path></svg>