<svg width="16" height="16" fill="currentColor" xmlns="http://www.w3.org/2000/svg"><path d="M13.667 0.028 C 11.562 0.247,9.196 1.455,6.755 3.557 L 6.457 3.814 5.155 3.945 C 4.439 4.018,3.783 4.096,3.697 4.119 C 3.611 4.142,3.452 4.198,3.343 4.243 C 2.921 4.419,2.816 4.509,1.417 5.902 C 0.531 6.785,0.085 7.248,0.051 7.320 C -0.083 7.607,0.077 7.941,0.389 8.024 C 0.482 8.049,0.654 8.031,1.521 7.907 C 2.083 7.826,2.613 7.760,2.699 7.760 C 2.992 7.760,3.374 7.863,3.998 8.111 L 4.281 8.223 4.381 8.532 C 4.824 9.900,6.081 11.167,7.427 11.600 C 7.573 11.647,7.710 11.694,7.729 11.703 C 7.786 11.731,8.098 12.539,8.163 12.825 C 8.253 13.228,8.251 13.281,8.089 14.429 C 7.953 15.389,7.940 15.525,7.969 15.622 C 8.033 15.836,8.242 15.998,8.457 15.999 C 8.656 16.001,8.770 15.900,10.123 14.533 C 11.527 13.116,11.581 13.052,11.762 12.600 C 11.890 12.280,11.931 12.016,12.056 10.721 L 12.170 9.535 12.532 9.111 C 14.487 6.821,15.606 4.702,15.939 2.661 C 15.971 2.464,15.984 2.221,15.984 1.800 C 15.984 1.293,15.976 1.176,15.925 0.939 C 15.783 0.287,15.683 0.188,15.040 0.066 C 14.766 0.015,14.003 -0.007,13.667 0.028 M11.947 2.961 C 12.433 3.038,12.826 3.387,12.949 3.849 C 13.004 4.056,12.997 4.459,12.933 4.709 C 12.788 5.279,12.324 5.894,11.798 6.212 C 11.458 6.418,11.004 6.560,10.685 6.560 C 10.497 6.560,10.155 6.471,10.006 6.384 C 9.741 6.229,9.571 6.016,9.464 5.707 C 9.417 5.568,9.405 5.477,9.406 5.253 C 9.408 4.896,9.475 4.640,9.654 4.298 C 9.904 3.820,10.273 3.450,10.747 3.203 C 11.184 2.975,11.558 2.900,11.947 2.961 M3.645 9.020 C 3.196 9.549,2.734 10.619,2.337 12.053 C 2.118 12.842,1.947 13.671,1.947 13.940 L 1.947 14.061 2.117 14.043 C 2.671 13.987,4.460 13.435,5.469 13.009 C 6.090 12.748,6.792 12.358,6.944 12.190 C 6.993 12.136,6.992 12.134,6.907 12.087 C 6.860 12.061,6.663 11.937,6.471 11.812 C 5.433 11.136,4.511 10.155,3.933 9.113 C 3.862 8.985,3.794 8.880,3.784 8.880 C 3.773 8.880,3.711 8.943,3.645 9.020 " stroke="none" fill-rule="evenodd"></path></svg>