<svg width="16" height="16" fill="currentColor" xmlns="http://www.w3.org/2000/svg"><path d="M7.321 1.054 C 6.449 1.195,5.685 1.553,5.025 2.129 C 4.758 2.361,4.684 2.479,4.684 2.667 C 4.684 2.901,4.833 3.087,5.069 3.149 C 5.246 3.196,5.380 3.148,5.580 2.969 C 5.672 2.887,5.808 2.773,5.882 2.716 C 7.203 1.714,9.068 1.780,10.301 2.874 C 10.575 3.116,10.709 3.184,10.883 3.167 C 11.226 3.134,11.426 2.781,11.282 2.463 C 11.180 2.239,10.473 1.699,9.956 1.451 C 9.651 1.304,9.220 1.159,8.884 1.089 C 8.537 1.017,7.667 0.998,7.321 1.054 M2.440 1.986 C 2.425 1.991,2.381 2.003,2.340 2.011 C 2.243 2.033,2.081 2.179,2.036 2.285 C 2.016 2.333,2.000 2.417,2.000 2.473 C 2.000 2.534,2.353 3.632,2.904 5.285 L 3.808 7.997 2.511 8.006 C 1.255 8.014,1.208 8.017,1.038 8.074 C 0.604 8.220,0.240 8.579,0.077 9.021 C 0.017 9.183,0.015 9.212,0.006 10.416 C -0.004 11.781,0.002 11.847,0.167 12.185 C 0.275 12.405,0.565 12.701,0.787 12.818 C 1.040 12.951,1.205 12.988,1.617 13.005 L 1.995 13.021 2.011 13.104 C 2.038 13.237,2.147 13.376,2.273 13.437 C 2.387 13.492,2.423 13.493,3.504 13.493 C 4.740 13.493,4.722 13.496,4.880 13.316 C 4.926 13.264,4.967 13.181,4.977 13.119 L 4.993 13.013 8.000 13.013 L 11.007 13.013 11.023 13.119 C 11.044 13.245,11.174 13.405,11.299 13.457 C 11.366 13.486,11.623 13.493,12.497 13.493 C 13.577 13.493,13.613 13.492,13.727 13.437 C 13.853 13.376,13.962 13.237,13.989 13.104 L 14.005 13.021 14.383 13.005 C 14.795 12.988,14.960 12.951,15.213 12.818 C 15.439 12.699,15.725 12.405,15.834 12.180 C 15.999 11.838,16.004 11.781,15.994 10.416 C 15.985 9.212,15.983 9.183,15.923 9.021 C 15.760 8.579,15.396 8.220,14.962 8.074 C 14.792 8.017,14.745 8.014,13.489 8.006 L 12.192 7.997 13.096 5.285 C 13.630 3.682,14.000 2.533,14.000 2.475 C 14.000 2.203,13.784 1.992,13.506 1.992 C 13.353 1.992,13.278 2.024,13.154 2.141 C 13.076 2.215,12.984 2.474,12.105 5.111 L 11.142 8.000 8.000 8.000 L 4.858 8.000 3.895 5.111 C 3.016 2.474,2.924 2.215,2.846 2.141 C 2.799 2.096,2.736 2.048,2.707 2.033 C 2.645 2.003,2.479 1.974,2.440 1.986 M7.496 3.053 C 7.008 3.163,6.605 3.374,6.285 3.687 C 6.074 3.894,6.039 4.076,6.163 4.324 C 6.223 4.444,6.327 4.521,6.483 4.562 C 6.652 4.607,6.785 4.562,6.997 4.388 C 7.295 4.144,7.666 4.001,8.000 4.001 C 8.329 4.001,8.712 4.147,8.989 4.378 C 9.241 4.587,9.393 4.629,9.594 4.545 C 9.726 4.490,9.810 4.409,9.870 4.280 C 9.967 4.070,9.919 3.887,9.717 3.689 C 9.444 3.423,9.096 3.222,8.701 3.103 C 8.503 3.044,8.404 3.032,8.067 3.024 C 7.784 3.017,7.617 3.026,7.496 3.053 M7.730 5.090 C 7.546 5.206,7.455 5.443,7.519 5.638 C 7.586 5.841,7.797 5.999,8.000 5.999 C 8.279 5.999,8.540 5.711,8.498 5.452 C 8.437 5.075,8.045 4.890,7.730 5.090 M14.685 9.042 C 14.787 9.080,14.906 9.195,14.950 9.299 C 14.979 9.367,14.987 9.614,14.987 10.507 C 14.987 11.555,14.983 11.635,14.936 11.728 C 14.874 11.850,14.813 11.906,14.687 11.959 C 14.599 11.996,13.869 12.000,8.000 12.000 C 2.131 12.000,1.401 11.996,1.313 11.959 C 1.187 11.906,1.126 11.850,1.064 11.728 C 1.017 11.635,1.013 11.555,1.013 10.493 C 1.013 9.567,1.020 9.344,1.051 9.285 C 1.092 9.207,1.208 9.091,1.293 9.044 C 1.368 9.003,14.577 9.001,14.685 9.042 M2.306 10.050 C 1.974 10.201,1.901 10.609,2.161 10.858 C 2.257 10.949,2.461 11.025,2.544 11.000 C 2.560 10.995,2.606 10.984,2.646 10.975 C 2.727 10.957,2.893 10.823,2.939 10.737 C 3.070 10.492,2.961 10.165,2.710 10.051 C 2.571 9.988,2.443 9.988,2.306 10.050 M7.290 10.051 C 7.039 10.165,6.930 10.492,7.061 10.737 C 7.107 10.823,7.273 10.957,7.354 10.975 C 7.394 10.984,7.440 10.995,7.456 11.000 C 7.472 11.005,7.542 10.997,7.611 10.982 C 7.961 10.907,8.117 10.459,7.885 10.195 C 7.724 10.011,7.498 9.956,7.290 10.051 M9.290 10.051 C 9.039 10.165,8.930 10.492,9.061 10.737 C 9.107 10.823,9.273 10.957,9.354 10.975 C 9.394 10.984,9.440 10.995,9.456 11.000 C 9.472 11.005,9.542 10.997,9.611 10.982 C 9.961 10.907,10.117 10.459,9.885 10.195 C 9.724 10.011,9.498 9.956,9.290 10.051 M11.290 10.051 C 11.039 10.165,10.930 10.492,11.061 10.737 C 11.107 10.823,11.273 10.957,11.354 10.975 C 11.394 10.984,11.440 10.995,11.456 11.000 C 11.472 11.005,11.542 10.997,11.611 10.982 C 11.961 10.907,12.117 10.459,11.885 10.195 C 11.724 10.011,11.498 9.956,11.290 10.051 M13.290 10.051 C 13.039 10.165,12.930 10.492,13.061 10.737 C 13.107 10.823,13.273 10.957,13.354 10.975 C 13.394 10.984,13.440 10.995,13.456 11.000 C 13.472 11.005,13.542 10.997,13.611 10.982 C 13.961 10.907,14.117 10.459,13.885 10.195 C 13.724 10.011,13.498 9.956,13.290 10.051 " stroke="none" fill-rule="evenodd"></path></svg>