<svg width="16" height="16" fill="currentColor" xmlns="http://www.w3.org/2000/svg"><path d="M1.669 0.028 C 0.992 0.142,0.371 0.651,0.135 1.283 C -0.006 1.659,0.001 1.324,0.000 7.994 C -0.000 14.784,-0.010 14.361,0.156 14.767 C 0.347 15.238,0.762 15.653,1.233 15.844 C 1.639 16.010,1.217 16.000,8.000 16.000 C 14.782 16.000,14.361 16.010,14.766 15.845 C 15.233 15.654,15.654 15.233,15.845 14.766 C 16.010 14.361,16.000 14.782,16.000 8.000 C 16.000 1.217,16.010 1.639,15.844 1.233 C 15.666 0.795,15.309 0.422,14.864 0.208 C 14.422 -0.005,15.102 0.015,8.080 0.010 C 4.626 0.008,1.741 0.016,1.669 0.028 M4.693 2.573 C 6.534 2.790,8.278 3.524,9.760 4.705 C 10.188 5.046,10.954 5.812,11.295 6.240 C 12.689 7.989,13.469 10.135,13.478 12.240 C 13.480 12.747,13.478 12.764,13.410 12.907 C 13.242 13.262,12.938 13.468,12.551 13.488 C 12.201 13.506,11.920 13.377,11.710 13.103 C 11.550 12.894,11.517 12.760,11.492 12.213 C 11.448 11.269,11.294 10.505,10.977 9.663 C 10.191 7.573,8.506 5.869,6.422 5.055 C 5.577 4.725,4.766 4.558,3.773 4.510 C 3.377 4.490,3.266 4.476,3.134 4.426 C 2.931 4.349,2.716 4.148,2.605 3.933 C 2.528 3.786,2.522 3.752,2.521 3.507 C 2.520 3.285,2.530 3.218,2.581 3.109 C 2.702 2.845,2.913 2.651,3.181 2.554 C 3.304 2.510,3.377 2.506,3.827 2.518 C 4.105 2.525,4.495 2.550,4.693 2.573 M4.192 6.546 C 6.523 6.819,8.469 8.412,9.204 10.647 C 9.393 11.225,9.510 11.985,9.489 12.500 C 9.476 12.804,9.411 12.975,9.229 13.179 C 8.907 13.541,8.294 13.598,7.909 13.303 C 7.618 13.079,7.525 12.859,7.492 12.319 C 7.467 11.893,7.407 11.575,7.283 11.204 C 6.960 10.242,6.212 9.388,5.293 8.933 C 4.747 8.663,4.316 8.550,3.670 8.509 C 3.201 8.479,3.038 8.425,2.831 8.229 C 2.752 8.154,2.650 8.021,2.605 7.933 C 2.528 7.786,2.522 7.752,2.521 7.507 C 2.520 7.207,2.565 7.071,2.731 6.868 C 3.011 6.526,3.360 6.449,4.192 6.546 M4.510 10.595 C 4.943 10.759,5.235 11.049,5.406 11.486 C 5.470 11.647,5.477 11.702,5.477 12.000 C 5.477 12.298,5.470 12.353,5.406 12.514 C 5.168 13.120,4.632 13.493,4.000 13.493 C 3.368 13.493,2.832 13.120,2.594 12.514 C 2.530 12.353,2.523 12.298,2.523 12.000 C 2.523 11.704,2.531 11.647,2.592 11.490 C 2.790 10.986,3.186 10.642,3.693 10.532 C 3.894 10.489,4.315 10.521,4.510 10.595 " stroke="none" fill-rule="evenodd"></path></svg>