<svg width="16" height="16" fill="currentColor" xmlns="http://www.w3.org/2000/svg"><path d="M1.669 0.028 C 0.993 0.141,0.371 0.651,0.135 1.283 C -0.006 1.659,0.001 1.324,0.000 7.994 C -0.000 14.784,-0.010 14.361,0.156 14.767 C 0.347 15.238,0.762 15.653,1.233 15.844 C 1.639 16.010,1.217 16.000,8.000 16.000 C 14.782 16.000,14.361 16.010,14.766 15.845 C 15.233 15.654,15.654 15.233,15.845 14.766 C 16.010 14.361,16.000 14.782,16.000 8.000 C 16.000 1.217,16.010 1.639,15.844 1.233 C 15.662 0.784,15.305 0.416,14.840 0.199 C 14.424 0.003,14.589 0.013,11.747 0.013 C 8.851 0.013,9.056 -0.001,8.587 0.232 C 8.375 0.337,8.293 0.398,8.092 0.599 C 7.888 0.803,7.831 0.879,7.727 1.093 C 7.489 1.580,7.510 1.181,7.494 5.473 L 7.480 9.280 6.147 7.945 C 5.413 7.211,4.769 6.587,4.714 6.558 C 4.422 6.406,4.044 6.612,4.007 6.943 C 3.979 7.194,3.924 7.131,5.863 9.075 C 6.947 10.163,7.709 10.906,7.772 10.938 C 7.908 11.009,8.092 11.009,8.228 10.938 C 8.291 10.906,9.053 10.163,10.137 9.075 C 12.076 7.131,12.021 7.194,11.993 6.943 C 11.957 6.620,11.582 6.408,11.299 6.549 C 11.252 6.573,10.604 7.200,9.860 7.943 L 8.506 9.293 8.513 5.520 L 8.520 1.747 8.591 1.595 C 8.686 1.393,8.844 1.227,9.047 1.117 L 9.213 1.027 11.747 1.027 L 14.280 1.027 14.407 1.085 C 14.584 1.167,14.812 1.392,14.900 1.570 L 14.973 1.720 14.973 8.000 L 14.973 14.280 14.901 14.428 C 14.757 14.720,14.468 14.934,14.145 14.987 C 13.929 15.022,2.071 15.022,1.855 14.987 C 1.532 14.934,1.243 14.720,1.099 14.428 L 1.027 14.280 1.027 8.000 L 1.027 1.720 1.099 1.572 C 1.139 1.491,1.229 1.368,1.298 1.298 C 1.368 1.229,1.491 1.139,1.572 1.099 L 1.720 1.027 3.173 1.013 C 4.475 1.001,4.635 0.995,4.709 0.955 C 4.819 0.894,4.955 0.737,4.975 0.646 C 4.984 0.606,4.995 0.560,5.000 0.543 C 5.019 0.481,4.954 0.278,4.888 0.191 C 4.850 0.141,4.770 0.078,4.710 0.051 C 4.607 0.004,4.514 0.001,3.200 0.004 C 2.430 0.005,1.741 0.016,1.669 0.028 " stroke="none" fill-rule="evenodd"></path></svg>