<svg width="16" height="16" fill="currentColor" xmlns="http://www.w3.org/2000/svg"><path d="M1.669 0.028 C 0.993 0.141,0.371 0.651,0.135 1.283 C -0.006 1.659,0.001 1.324,0.000 7.994 C -0.000 14.784,-0.010 14.361,0.156 14.767 C 0.347 15.238,0.762 15.653,1.233 15.844 C 1.639 16.010,1.217 16.000,8.000 16.000 C 14.782 16.000,14.361 16.010,14.766 15.845 C 15.233 15.654,15.654 15.233,15.845 14.766 C 16.010 14.361,16.000 14.782,16.000 8.000 C 16.000 1.217,16.010 1.639,15.844 1.233 C 15.666 0.795,15.309 0.422,14.864 0.208 C 14.440 0.004,14.613 0.017,12.133 0.007 C 10.579 0.000,9.855 0.006,9.734 0.027 C 9.234 0.113,8.792 0.482,8.593 0.977 L 8.520 1.160 8.513 5.227 L 8.506 9.293 9.860 7.943 C 10.604 7.200,11.252 6.573,11.299 6.549 C 11.582 6.408,11.957 6.620,11.993 6.943 C 12.021 7.194,12.076 7.131,10.137 9.075 C 9.053 10.163,8.291 10.906,8.228 10.938 C 8.092 11.009,7.908 11.009,7.772 10.938 C 7.709 10.906,6.947 10.163,5.863 9.075 C 3.924 7.131,3.979 7.194,4.007 6.943 C 4.043 6.620,4.418 6.408,4.701 6.549 C 4.748 6.573,5.396 7.200,6.140 7.942 L 7.493 9.293 7.494 5.400 C 7.494 1.489,7.501 1.173,7.591 0.840 C 7.645 0.640,7.808 0.283,7.919 0.122 L 8.003 0.000 4.901 0.003 C 3.196 0.005,1.741 0.016,1.669 0.028 " stroke="none" fill-rule="evenodd"></path></svg>