<svg width="16" height="16" fill="currentColor" xmlns="http://www.w3.org/2000/svg"><path d="M5.581 0.040 C 5.489 0.060,5.327 0.121,5.221 0.176 C 5.043 0.267,4.912 0.391,3.638 1.664 C 2.357 2.947,2.243 3.067,2.164 3.234 C 1.988 3.607,1.999 3.195,2.006 9.286 L 2.013 14.813 2.076 14.979 C 2.242 15.424,2.597 15.774,3.035 15.925 L 3.213 15.987 8.000 15.987 L 12.787 15.987 12.965 15.925 C 13.411 15.771,13.771 15.411,13.925 14.965 L 13.987 14.787 13.987 8.000 L 13.987 1.213 13.925 1.035 C 13.771 0.589,13.405 0.224,12.962 0.073 L 12.787 0.013 9.267 0.008 C 6.380 0.005,5.717 0.010,5.581 0.040 M5.820 2.829 C 5.966 2.902,6.096 3.026,6.169 3.160 C 6.225 3.264,6.227 3.295,6.234 4.465 L 6.242 5.664 6.160 5.830 C 6.025 6.105,5.801 6.241,5.483 6.239 C 5.200 6.238,4.974 6.095,4.831 5.827 L 4.760 5.693 4.760 4.505 L 4.760 3.316 4.840 3.161 C 4.934 2.978,5.063 2.865,5.259 2.796 C 5.433 2.734,5.656 2.747,5.820 2.829 M7.820 2.829 C 7.966 2.902,8.096 3.026,8.169 3.160 C 8.225 3.264,8.227 3.295,8.234 4.465 L 8.242 5.664 8.160 5.830 C 8.025 6.105,7.801 6.241,7.483 6.239 C 7.200 6.238,6.974 6.095,6.831 5.827 L 6.760 5.693 6.760 4.505 L 6.760 3.316 6.840 3.161 C 6.934 2.978,7.063 2.865,7.259 2.796 C 7.433 2.734,7.656 2.747,7.820 2.829 M9.820 2.829 C 9.966 2.902,10.096 3.026,10.169 3.160 C 10.225 3.264,10.227 3.295,10.234 4.465 L 10.242 5.664 10.160 5.830 C 10.025 6.105,9.801 6.241,9.483 6.239 C 9.200 6.238,8.974 6.095,8.831 5.827 L 8.760 5.693 8.760 4.505 L 8.760 3.316 8.840 3.161 C 8.934 2.978,9.063 2.865,9.259 2.796 C 9.433 2.734,9.656 2.747,9.820 2.829 M11.820 2.829 C 11.966 2.902,12.096 3.026,12.169 3.160 C 12.225 3.264,12.227 3.295,12.234 4.465 L 12.242 5.664 12.160 5.830 C 12.025 6.105,11.801 6.241,11.483 6.239 C 11.200 6.238,10.974 6.095,10.831 5.827 L 10.760 5.693 10.760 4.505 L 10.760 3.316 10.840 3.161 C 10.934 2.978,11.063 2.865,11.259 2.796 C 11.433 2.734,11.656 2.747,11.820 2.829 " stroke="none" fill-rule="evenodd"></path></svg>