<svg width="16" height="16" fill="currentColor" xmlns="http://www.w3.org/2000/svg"><path d="M8.095 2.922 C 4.078 4.529,0.746 5.866,0.692 5.894 C 0.470 6.007,0.293 6.304,0.293 6.564 C 0.293 6.696,0.381 6.923,0.477 7.038 C 0.524 7.095,1.497 7.729,3.095 8.745 L 5.637 10.361 6.392 11.547 C 6.807 12.199,7.171 12.766,7.200 12.806 C 7.364 13.028,7.764 13.043,7.952 12.835 C 8.025 12.755,8.080 12.598,8.080 12.474 C 8.080 12.334,8.075 12.324,7.256 11.042 L 6.637 10.070 10.364 6.343 C 12.414 4.293,14.095 2.620,14.100 2.625 C 14.105 2.630,13.680 3.706,13.155 5.017 C 12.117 7.608,12.142 7.532,12.263 7.748 C 12.349 7.901,12.480 7.981,12.665 7.995 C 12.843 8.008,13.002 7.942,13.089 7.820 C 13.140 7.748,15.951 0.750,15.988 0.603 C 16.059 0.321,15.797 0.002,15.493 0.001 C 15.431 0.000,12.992 0.963,8.095 2.922 M9.664 5.629 L 5.929 9.365 3.760 7.984 C 2.006 6.868,1.601 6.599,1.642 6.581 C 1.849 6.491,13.352 1.896,13.373 1.895 C 13.388 1.894,11.719 3.574,9.664 5.629 M11.907 9.053 C 11.169 9.189,10.552 9.510,10.026 10.031 C 8.634 11.410,8.668 13.693,10.102 15.045 C 10.737 15.644,11.624 16.000,12.485 16.000 C 14.008 16.001,15.352 15.029,15.824 13.587 C 15.936 13.243,15.975 13.024,15.990 12.627 C 16.015 12.018,15.906 11.512,15.627 10.947 C 15.137 9.950,14.185 9.239,13.095 9.056 C 12.793 9.005,12.174 9.003,11.907 9.053 M14.015 10.828 C 14.066 10.859,14.138 10.938,14.177 11.003 C 14.235 11.103,14.245 11.146,14.235 11.274 C 14.225 11.419,14.188 11.488,13.522 12.600 C 13.135 13.245,12.777 13.818,12.726 13.872 C 12.523 14.085,12.178 14.152,11.904 14.030 C 11.799 13.984,11.659 13.860,11.287 13.485 C 10.875 13.070,10.800 12.983,10.774 12.882 C 10.660 12.455,11.098 12.112,11.494 12.320 C 11.530 12.339,11.694 12.486,11.857 12.646 L 12.154 12.938 12.734 11.969 C 13.053 11.436,13.346 10.965,13.384 10.923 C 13.546 10.744,13.814 10.704,14.015 10.828 " stroke="none" fill-rule="evenodd"></path></svg>