<svg width="16" height="16" fill="currentColor" xmlns="http://www.w3.org/2000/svg"><path d="M8.095 2.922 C 4.078 4.529,0.746 5.866,0.692 5.894 C 0.470 6.007,0.293 6.304,0.293 6.564 C 0.293 6.696,0.381 6.923,0.477 7.038 C 0.524 7.095,1.497 7.729,3.095 8.745 L 5.637 10.361 6.392 11.547 C 6.807 12.199,7.171 12.766,7.200 12.806 C 7.364 13.028,7.764 13.043,7.952 12.835 C 8.025 12.755,8.080 12.598,8.080 12.474 C 8.080 12.334,8.075 12.324,7.256 11.042 L 6.637 10.070 10.364 6.343 C 12.414 4.293,14.095 2.620,14.100 2.625 C 14.105 2.630,13.680 3.706,13.155 5.017 C 12.117 7.608,12.142 7.532,12.263 7.748 C 12.349 7.901,12.480 7.981,12.665 7.995 C 12.843 8.008,13.002 7.942,13.089 7.820 C 13.140 7.748,15.951 0.750,15.988 0.603 C 16.059 0.321,15.797 0.002,15.493 0.001 C 15.431 0.000,12.992 0.963,8.095 2.922 M9.664 5.629 L 5.929 9.365 3.760 7.984 C 2.006 6.868,1.601 6.599,1.642 6.581 C 1.849 6.491,13.352 1.896,13.373 1.895 C 13.388 1.894,11.719 3.574,9.664 5.629 M11.907 9.053 C 11.169 9.189,10.552 9.510,10.026 10.031 C 8.634 11.410,8.668 13.693,10.102 15.045 C 10.737 15.644,11.624 16.000,12.485 16.000 C 14.008 16.001,15.352 15.029,15.824 13.587 C 15.936 13.243,15.975 13.024,15.990 12.627 C 16.015 12.018,15.906 11.512,15.627 10.947 C 15.137 9.950,14.185 9.239,13.095 9.056 C 12.793 9.005,12.174 9.003,11.907 9.053 M14.180 12.041 C 14.383 12.126,14.488 12.281,14.488 12.496 C 14.488 12.680,14.398 12.836,14.240 12.929 L 14.120 13.000 12.589 13.008 C 10.950 13.016,10.835 13.009,10.692 12.888 C 10.417 12.656,10.462 12.213,10.778 12.057 C 10.892 12.001,10.911 12.000,12.488 12.000 C 13.866 12.000,14.095 12.006,14.180 12.041 " stroke="none" fill-rule="evenodd"></path></svg>