<svg width="16" height="16" fill="currentColor" xmlns="http://www.w3.org/2000/svg"><path d="M7.680 0.015 C 7.643 0.021,7.505 0.040,7.373 0.056 C 6.587 0.151,4.973 0.557,3.213 1.103 C 1.997 1.481,1.856 1.541,1.601 1.787 C 1.285 2.092,1.175 2.373,1.094 3.086 C 0.883 4.948,1.031 6.848,1.520 8.535 C 2.006 10.214,2.843 11.791,3.949 13.110 C 4.887 14.229,6.071 15.212,7.080 15.709 C 7.867 16.097,8.188 16.090,9.009 15.664 C 10.076 15.112,11.281 14.076,12.210 12.912 C 14.355 10.225,15.297 6.854,14.920 3.212 C 14.850 2.533,14.793 2.312,14.622 2.054 C 14.407 1.731,14.129 1.534,13.680 1.386 C 11.735 0.750,9.781 0.228,8.733 0.067 C 8.467 0.026,7.806 -0.007,7.680 0.015 M8.386 5.054 C 8.631 5.118,8.849 5.248,9.056 5.453 C 9.375 5.769,9.515 6.143,9.487 6.608 C 9.470 6.886,9.400 7.088,9.235 7.339 C 9.094 7.554,8.930 7.700,8.687 7.828 C 8.588 7.880,8.507 7.930,8.507 7.939 C 8.507 7.948,8.591 8.389,8.693 8.920 C 8.796 9.451,8.880 9.941,8.880 10.010 C 8.880 10.177,8.799 10.329,8.661 10.420 L 8.551 10.493 8.015 10.493 C 7.540 10.493,7.468 10.488,7.376 10.442 C 7.230 10.369,7.120 10.188,7.120 10.019 C 7.120 9.947,7.204 9.453,7.307 8.922 C 7.409 8.390,7.493 7.948,7.493 7.939 C 7.493 7.930,7.412 7.880,7.313 7.828 C 7.070 7.700,6.906 7.554,6.765 7.339 C 6.593 7.077,6.529 6.887,6.514 6.587 C 6.490 6.119,6.620 5.778,6.946 5.453 C 7.146 5.252,7.366 5.119,7.603 5.055 C 7.795 5.004,8.190 5.003,8.386 5.054 " stroke="none" fill-rule="evenodd"></path></svg>