<svg width="16" height="16" fill="currentColor" xmlns="http://www.w3.org/2000/svg"><path d="M7.680 0.015 C 7.643 0.021,7.505 0.040,7.373 0.056 C 6.587 0.151,4.973 0.557,3.213 1.103 C 1.997 1.481,1.856 1.541,1.601 1.787 C 1.285 2.092,1.175 2.373,1.094 3.086 C 0.883 4.948,1.031 6.848,1.520 8.535 C 2.006 10.214,2.843 11.791,3.949 13.110 C 4.887 14.229,6.071 15.212,7.080 15.709 C 7.867 16.097,8.188 16.090,9.009 15.664 C 10.076 15.112,11.281 14.076,12.210 12.912 C 14.355 10.225,15.297 6.854,14.920 3.212 C 14.850 2.533,14.793 2.312,14.622 2.054 C 14.407 1.731,14.129 1.534,13.680 1.386 C 11.735 0.750,9.781 0.228,8.733 0.067 C 8.467 0.026,7.806 -0.007,7.680 0.015 M10.178 6.535 C 10.360 6.604,10.488 6.796,10.488 7.000 C 10.488 7.204,10.360 7.396,10.178 7.465 C 10.128 7.484,9.421 7.493,8.000 7.493 C 6.579 7.493,5.872 7.484,5.822 7.465 C 5.640 7.396,5.512 7.204,5.512 7.000 C 5.512 6.800,5.638 6.606,5.813 6.537 C 5.909 6.499,10.078 6.497,10.178 6.535 " stroke="none" fill-rule="evenodd"></path></svg>