<svg width="16" height="16" fill="currentColor" xmlns="http://www.w3.org/2000/svg"><path d="M7.680 0.015 C 7.643 0.021,7.505 0.040,7.373 0.056 C 6.587 0.151,4.973 0.557,3.213 1.103 C 1.997 1.481,1.856 1.541,1.601 1.787 C 1.285 2.092,1.175 2.373,1.094 3.086 C 0.883 4.948,1.031 6.848,1.520 8.535 C 2.006 10.214,2.843 11.791,3.949 13.110 C 4.887 14.229,6.071 15.212,7.080 15.709 C 7.867 16.097,8.188 16.090,9.009 15.664 C 10.076 15.112,11.281 14.076,12.210 12.912 C 14.355 10.225,15.297 6.854,14.920 3.212 C 14.850 2.533,14.793 2.312,14.622 2.054 C 14.407 1.731,14.129 1.534,13.680 1.386 C 11.735 0.750,9.781 0.228,8.733 0.067 C 8.467 0.026,7.806 -0.007,7.680 0.015 M8.178 4.535 C 8.271 4.570,8.391 4.681,8.449 4.787 C 8.487 4.855,8.495 4.983,8.502 5.687 L 8.510 6.507 9.307 6.507 C 9.805 6.507,10.131 6.517,10.178 6.535 C 10.360 6.604,10.488 6.796,10.488 7.000 C 10.488 7.204,10.360 7.396,10.178 7.465 C 10.131 7.483,9.805 7.493,9.307 7.493 L 8.510 7.493 8.502 8.313 C 8.493 9.208,8.492 9.211,8.329 9.365 C 8.144 9.540,7.856 9.540,7.671 9.365 C 7.508 9.211,7.507 9.208,7.498 8.313 L 7.490 7.493 6.693 7.493 C 6.195 7.493,5.869 7.483,5.822 7.465 C 5.640 7.396,5.512 7.204,5.512 7.000 C 5.512 6.796,5.640 6.604,5.822 6.535 C 5.869 6.517,6.195 6.507,6.693 6.507 L 7.490 6.507 7.498 5.687 C 7.505 4.983,7.513 4.855,7.551 4.787 C 7.607 4.685,7.727 4.571,7.813 4.537 C 7.903 4.501,8.086 4.500,8.178 4.535 " stroke="none" fill-rule="evenodd"></path></svg>