<svg width="16" height="16" fill="currentColor" xmlns="http://www.w3.org/2000/svg"><path d="M7.680 0.015 C 7.643 0.021,7.505 0.040,7.373 0.056 C 6.587 0.151,4.973 0.557,3.213 1.103 C 1.997 1.481,1.856 1.541,1.601 1.787 C 1.285 2.092,1.175 2.373,1.094 3.086 C 0.883 4.948,1.031 6.848,1.520 8.535 C 2.006 10.214,2.843 11.791,3.949 13.110 C 4.887 14.229,6.071 15.212,7.080 15.709 C 7.867 16.097,8.188 16.090,9.009 15.664 C 10.076 15.112,11.281 14.076,12.210 12.912 C 14.355 10.225,15.297 6.854,14.920 3.212 C 14.850 2.533,14.793 2.312,14.622 2.054 C 14.407 1.731,14.129 1.534,13.680 1.386 C 11.735 0.750,9.781 0.228,8.733 0.067 C 8.467 0.026,7.806 -0.007,7.680 0.015 M10.715 5.051 C 10.797 5.094,10.913 5.212,10.957 5.298 C 11.004 5.391,10.993 5.617,10.935 5.728 C 10.907 5.782,10.181 6.527,9.315 7.391 C 7.802 8.900,7.742 8.956,7.619 8.981 C 7.463 9.013,7.335 8.987,7.205 8.897 C 7.049 8.789,5.612 7.330,5.559 7.227 C 5.501 7.112,5.498 6.892,5.554 6.786 C 5.681 6.543,5.955 6.443,6.206 6.547 C 6.267 6.573,6.527 6.810,6.906 7.187 L 7.508 7.786 8.841 6.451 C 9.574 5.717,10.215 5.094,10.267 5.066 C 10.379 5.005,10.612 4.997,10.715 5.051 " stroke="none" fill-rule="evenodd"></path></svg>