<svg width="16" height="16" fill="currentColor" xmlns="http://www.w3.org/2000/svg"><path d="M7.680 0.015 C 7.643 0.021,7.505 0.040,7.373 0.056 C 6.574 0.152,4.931 0.568,3.120 1.133 C 1.978 1.490,1.853 1.543,1.601 1.787 C 1.285 2.092,1.175 2.373,1.094 3.086 C 0.883 4.948,1.031 6.848,1.520 8.535 C 2.006 10.214,2.843 11.791,3.949 13.110 C 4.857 14.193,5.997 15.151,6.987 15.662 C 7.481 15.918,7.690 15.984,8.000 15.984 C 8.310 15.984,8.519 15.918,9.009 15.664 C 10.076 15.112,11.281 14.076,12.210 12.912 C 14.355 10.225,15.297 6.854,14.920 3.212 C 14.850 2.535,14.798 2.333,14.627 2.065 C 14.421 1.743,14.143 1.543,13.698 1.393 C 11.961 0.811,9.784 0.229,8.733 0.067 C 8.467 0.026,7.806 -0.007,7.680 0.015 M8.800 1.160 C 9.749 1.327,11.408 1.773,13.107 2.319 C 13.583 2.472,13.704 2.538,13.770 2.678 C 13.933 3.020,14.000 5.170,13.880 6.200 C 13.581 8.775,12.579 10.991,10.872 12.856 C 10.053 13.751,8.817 14.672,8.140 14.892 C 8.008 14.935,7.992 14.935,7.860 14.892 C 7.572 14.797,7.068 14.515,6.680 14.232 C 5.629 13.463,4.746 12.538,4.015 11.440 C 2.961 9.858,2.351 8.171,2.119 6.200 C 1.999 5.176,2.067 3.021,2.230 2.678 C 2.296 2.538,2.417 2.472,2.893 2.319 C 4.868 1.685,6.696 1.211,7.624 1.092 C 7.895 1.058,8.373 1.086,8.800 1.160 " stroke="none" fill-rule="evenodd"></path></svg>