<svg width="16" height="16" fill="currentColor" xmlns="http://www.w3.org/2000/svg"><path d="M3.373 1.068 C 3.300 1.097,3.184 1.165,3.115 1.220 C 2.966 1.338,0.386 4.342,0.236 4.571 C 0.076 4.815,0.021 5.021,0.007 5.428 C -0.013 5.983,0.078 6.383,0.323 6.819 C 0.483 7.103,0.896 7.517,1.178 7.675 C 1.701 7.970,2.281 8.065,2.840 7.950 C 3.316 7.852,3.681 7.655,4.043 7.302 L 4.260 7.090 4.349 7.203 C 4.477 7.365,4.802 7.614,5.043 7.735 C 5.988 8.210,7.133 8.018,7.836 7.267 L 8.000 7.091 8.164 7.267 C 8.867 8.018,10.012 8.210,10.958 7.735 C 11.193 7.616,11.528 7.359,11.655 7.198 L 11.740 7.090 11.957 7.302 C 12.319 7.655,12.684 7.852,13.160 7.950 C 13.719 8.065,14.300 7.969,14.821 7.675 C 15.088 7.524,15.495 7.126,15.651 6.861 C 15.914 6.417,16.013 6.006,15.993 5.440 C 15.979 5.020,15.926 4.818,15.764 4.571 C 15.614 4.342,13.034 1.338,12.885 1.220 C 12.816 1.165,12.697 1.096,12.619 1.067 C 12.480 1.014,12.417 1.013,7.992 1.015 C 3.610 1.016,3.504 1.017,3.373 1.068 M13.600 3.547 C 14.326 4.396,14.934 5.125,14.952 5.166 C 14.971 5.209,14.985 5.370,14.985 5.551 C 14.987 5.919,14.936 6.119,14.779 6.362 C 14.293 7.113,13.243 7.214,12.639 6.568 C 12.400 6.312,12.307 6.106,12.264 5.733 C 12.231 5.443,12.162 5.299,12.017 5.216 C 11.793 5.087,11.596 5.105,11.412 5.271 C 11.297 5.375,11.273 5.442,11.231 5.774 C 11.195 6.057,11.121 6.243,10.962 6.453 C 10.509 7.049,9.668 7.174,9.072 6.735 C 8.706 6.466,8.563 6.178,8.492 5.569 C 8.424 4.991,7.576 4.991,7.508 5.569 C 7.468 5.910,7.438 6.042,7.361 6.206 C 6.923 7.142,5.663 7.276,5.038 6.453 C 4.879 6.243,4.805 6.057,4.769 5.774 C 4.727 5.442,4.703 5.375,4.588 5.271 C 4.404 5.105,4.207 5.087,3.983 5.216 C 3.838 5.299,3.769 5.443,3.736 5.733 C 3.693 6.106,3.600 6.312,3.361 6.568 C 2.946 7.011,2.288 7.121,1.733 6.840 C 1.446 6.694,1.166 6.355,1.066 6.032 C 1.004 5.832,0.993 5.293,1.048 5.166 C 1.066 5.125,1.674 4.396,2.400 3.547 L 3.720 2.003 8.000 2.003 L 12.280 2.003 13.600 3.547 M1.277 8.559 C 1.137 8.635,1.049 8.752,1.016 8.907 C 0.996 9.000,0.987 9.976,0.987 12.028 L 0.987 15.013 0.679 15.013 C 0.425 15.013,0.353 15.023,0.268 15.066 C 0.075 15.165,-0.022 15.361,0.012 15.587 C 0.035 15.744,0.197 15.932,0.343 15.973 C 0.477 16.010,15.523 16.010,15.657 15.973 C 15.803 15.932,15.965 15.744,15.988 15.587 C 16.022 15.361,15.925 15.165,15.732 15.066 C 15.647 15.023,15.575 15.013,15.321 15.013 L 15.013 15.013 15.013 12.028 C 15.013 9.976,15.004 9.000,14.984 8.907 C 14.886 8.447,14.259 8.361,14.057 8.780 L 14.000 8.897 14.000 11.955 L 14.000 15.013 11.001 15.013 L 8.001 15.013 7.994 12.380 L 7.987 9.747 7.917 9.600 C 7.814 9.382,7.652 9.216,7.446 9.114 L 7.268 9.027 5.494 9.027 L 3.720 9.027 3.572 9.099 C 3.280 9.243,3.066 9.532,3.013 9.855 C 2.997 9.950,2.987 11.018,2.987 12.513 L 2.987 15.013 2.493 15.013 L 2.000 15.013 2.000 11.955 L 2.000 8.897 1.943 8.780 C 1.830 8.545,1.502 8.436,1.277 8.559 M9.662 9.062 C 9.403 9.153,9.172 9.381,9.058 9.659 C 9.001 9.797,9.000 9.828,8.992 11.387 C 8.986 12.479,8.993 13.027,9.014 13.147 C 9.073 13.487,9.287 13.768,9.600 13.917 L 9.747 13.987 11.000 13.987 L 12.253 13.987 12.400 13.917 C 12.707 13.771,12.924 13.490,12.984 13.162 C 13.021 12.960,13.024 10.079,12.987 9.855 C 12.934 9.532,12.720 9.243,12.428 9.099 L 12.280 9.027 11.040 9.020 C 9.904 9.015,9.788 9.018,9.662 9.062 M6.987 12.507 L 6.987 15.013 5.493 15.013 L 4.000 15.013 4.000 12.507 L 4.000 10.000 5.493 10.000 L 6.987 10.000 6.987 12.507 M12.000 11.507 L 12.000 13.013 11.000 13.013 L 10.000 13.013 10.000 11.507 L 10.000 10.000 11.000 10.000 L 12.000 10.000 12.000 11.507 " stroke="none" fill-rule="evenodd"></path></svg>