<svg width="16" height="16" fill="currentColor" xmlns="http://www.w3.org/2000/svg"><path d="M7.632 0.052 C 7.378 0.121,7.212 0.213,6.978 0.416 C 6.639 0.708,0.332 7.049,0.245 7.184 C -0.058 7.654,-0.074 8.259,0.203 8.745 C 0.291 8.898,7.024 15.646,7.209 15.765 C 7.685 16.073,8.328 16.069,8.816 15.755 C 8.960 15.663,15.409 9.239,15.642 8.957 C 15.876 8.672,16.000 8.342,16.000 8.000 C 16.000 7.769,15.955 7.588,15.835 7.333 L 15.728 7.107 12.351 3.729 C 9.860 1.238,8.928 0.322,8.802 0.242 C 8.459 0.023,8.009 -0.050,7.632 0.052 M6.921 4.359 L 6.987 4.424 6.987 5.212 L 6.987 6.000 7.811 6.000 C 8.742 6.000,8.944 6.019,9.314 6.145 C 10.155 6.430,10.777 7.145,10.948 8.022 C 10.979 8.177,10.987 8.510,10.987 9.616 L 10.987 11.013 10.493 11.013 L 10.000 11.013 10.000 9.673 C 9.999 8.197,9.995 8.155,9.834 7.820 C 9.720 7.584,9.438 7.299,9.200 7.179 C 8.888 7.022,8.822 7.014,7.860 7.014 L 6.987 7.013 6.987 7.798 L 6.987 8.582 6.901 8.654 C 6.834 8.710,6.798 8.722,6.728 8.711 C 6.621 8.694,6.764 8.806,5.353 7.630 C 4.123 6.605,4.097 6.579,4.158 6.418 C 4.174 6.376,4.657 5.955,5.418 5.321 C 6.570 4.360,6.657 4.293,6.753 4.293 C 6.827 4.293,6.874 4.312,6.921 4.359 " stroke="none" fill-rule="evenodd"></path></svg>