<svg width="16" height="16" fill="currentColor" xmlns="http://www.w3.org/2000/svg"><path d="M7.632 0.052 C 7.380 0.121,7.213 0.213,6.978 0.415 C 6.607 0.732,0.341 7.046,0.238 7.207 C 0.105 7.412,0.026 7.648,0.008 7.899 C -0.012 8.170,0.032 8.388,0.165 8.667 L 0.273 8.893 2.756 11.382 C 5.901 14.534,7.128 15.736,7.281 15.814 C 7.491 15.921,7.689 15.976,7.920 15.992 C 8.298 16.017,8.643 15.900,8.958 15.641 C 9.240 15.409,15.663 8.960,15.755 8.816 C 16.072 8.323,16.072 7.678,15.755 7.184 C 15.709 7.112,14.164 5.545,12.322 3.702 C 9.853 1.231,8.928 0.322,8.802 0.242 C 8.459 0.023,8.009 -0.050,7.632 0.052 M8.147 1.016 C 8.239 1.040,8.693 1.483,11.582 4.369 C 13.412 6.197,14.926 7.724,14.946 7.761 C 15.005 7.871,15.020 8.010,14.987 8.136 C 14.959 8.243,14.671 8.539,11.631 11.583 C 9.330 13.887,8.274 14.928,8.200 14.962 C 8.141 14.990,8.051 15.012,8.000 15.012 C 7.949 15.012,7.859 14.990,7.800 14.962 C 7.726 14.928,6.670 13.887,4.369 11.583 C 1.329 8.539,1.041 8.243,1.013 8.136 C 0.980 8.010,0.995 7.871,1.054 7.761 C 1.074 7.724,2.582 6.202,4.406 4.379 C 7.799 0.988,7.795 0.992,7.987 0.988 C 8.016 0.987,8.088 1.000,8.147 1.016 M7.027 4.856 C 5.909 5.051,5.489 5.134,5.440 5.170 C 5.290 5.280,5.285 5.257,5.862 6.828 C 6.155 7.627,6.410 8.312,6.428 8.352 C 6.446 8.392,6.502 8.443,6.551 8.467 C 6.636 8.507,6.649 8.507,6.741 8.462 C 6.828 8.419,6.886 8.334,7.234 7.733 C 7.451 7.359,7.637 7.039,7.648 7.021 C 7.662 6.997,7.778 7.054,8.048 7.216 C 8.472 7.470,8.665 7.645,8.798 7.893 C 8.981 8.237,8.971 8.147,8.986 9.640 L 9.000 11.000 9.502 11.007 L 10.003 11.015 9.994 9.621 C 9.983 8.024,9.985 8.036,9.735 7.533 C 9.485 7.029,9.199 6.742,8.568 6.360 C 8.358 6.233,8.187 6.118,8.187 6.104 C 8.187 6.091,8.317 5.855,8.476 5.580 C 8.847 4.938,8.853 4.927,8.853 4.817 C 8.853 4.705,8.730 4.585,8.618 4.589 C 8.579 4.591,7.863 4.711,7.027 4.856 " stroke="none" fill-rule="evenodd"></path></svg>