<svg width="16" height="16" fill="currentColor" xmlns="http://www.w3.org/2000/svg"><path d="M7.632 0.052 C 7.378 0.121,7.212 0.213,6.978 0.416 C 6.639 0.708,0.332 7.049,0.245 7.184 C -0.058 7.654,-0.074 8.259,0.203 8.745 C 0.291 8.898,7.024 15.646,7.209 15.765 C 7.685 16.073,8.328 16.069,8.816 15.755 C 8.960 15.663,15.409 9.239,15.642 8.957 C 15.876 8.672,16.000 8.342,16.000 8.000 C 16.000 7.769,15.955 7.588,15.835 7.333 L 15.728 7.107 12.351 3.729 C 9.860 1.238,8.928 0.322,8.802 0.242 C 8.459 0.023,8.009 -0.050,7.632 0.052 M9.347 3.069 C 9.544 3.143,9.699 3.264,9.819 3.441 C 10.011 3.722,10.000 3.447,10.000 8.000 C 10.000 12.510,10.009 12.271,9.836 12.539 C 9.685 12.775,9.448 12.931,9.161 12.984 C 8.950 13.023,7.050 13.023,6.839 12.984 C 6.552 12.931,6.315 12.775,6.164 12.539 C 5.991 12.271,6.000 12.510,6.000 8.000 C 6.000 3.447,5.989 3.721,6.181 3.442 C 6.305 3.261,6.427 3.162,6.629 3.079 L 6.787 3.015 7.992 3.014 C 9.150 3.013,9.204 3.016,9.347 3.069 M7.734 4.043 C 7.363 4.143,7.088 4.447,7.016 4.840 C 6.937 5.267,7.184 5.722,7.600 5.916 C 7.725 5.974,7.784 5.984,8.000 5.984 C 8.216 5.984,8.275 5.974,8.400 5.916 C 8.816 5.722,9.063 5.267,8.984 4.840 C 8.911 4.441,8.636 4.141,8.254 4.041 C 8.061 3.991,7.926 3.991,7.734 4.043 M7.662 7.061 C 7.221 7.219,6.939 7.692,7.014 8.152 C 7.145 8.957,8.127 9.277,8.702 8.702 C 9.188 8.216,9.050 7.404,8.429 7.100 C 8.234 7.005,7.872 6.986,7.662 7.061 M7.734 10.043 C 7.363 10.143,7.088 10.447,7.016 10.840 C 6.937 11.267,7.184 11.722,7.600 11.916 C 7.725 11.974,7.784 11.984,8.000 11.984 C 8.216 11.984,8.275 11.974,8.400 11.916 C 8.816 11.722,9.063 11.267,8.984 10.840 C 8.911 10.441,8.636 10.141,8.254 10.041 C 8.061 9.991,7.926 9.991,7.734 10.043 " stroke="none" fill-rule="evenodd"></path></svg>