<svg width="16" height="16" fill="currentColor" xmlns="http://www.w3.org/2000/svg"><path d="M7.632 0.052 C 7.380 0.121,7.213 0.213,6.978 0.415 C 6.607 0.732,0.341 7.046,0.238 7.207 C 0.105 7.412,0.026 7.648,0.008 7.899 C -0.012 8.170,0.032 8.388,0.165 8.667 L 0.273 8.893 2.756 11.382 C 5.901 14.534,7.128 15.736,7.281 15.814 C 7.491 15.921,7.689 15.976,7.920 15.992 C 8.298 16.017,8.643 15.900,8.958 15.641 C 9.240 15.409,15.663 8.960,15.755 8.816 C 16.072 8.323,16.072 7.678,15.755 7.184 C 15.709 7.112,14.164 5.545,12.322 3.702 C 9.853 1.231,8.928 0.322,8.802 0.242 C 8.459 0.023,8.009 -0.050,7.632 0.052 M8.147 1.016 C 8.239 1.040,8.693 1.483,11.582 4.369 C 13.412 6.197,14.926 7.724,14.946 7.761 C 15.005 7.871,15.020 8.010,14.987 8.136 C 14.959 8.243,14.671 8.539,11.631 11.583 C 9.330 13.887,8.274 14.928,8.200 14.962 C 8.141 14.990,8.051 15.012,8.000 15.012 C 7.949 15.012,7.859 14.990,7.800 14.962 C 7.726 14.928,6.670 13.887,4.369 11.583 C 1.329 8.539,1.041 8.243,1.013 8.136 C 0.980 8.010,0.995 7.871,1.054 7.761 C 1.074 7.724,2.582 6.202,4.406 4.379 C 7.799 0.988,7.795 0.992,7.987 0.988 C 8.016 0.987,8.088 1.000,8.147 1.016 M5.413 5.327 C 4.534 6.061,4.169 6.382,4.152 6.435 C 4.136 6.484,4.139 6.535,4.160 6.586 C 4.205 6.696,6.580 8.672,6.707 8.705 C 6.785 8.725,6.814 8.720,6.874 8.676 C 7.008 8.576,7.013 8.547,7.013 7.753 L 7.013 7.013 7.873 7.014 C 8.542 7.014,8.766 7.023,8.880 7.053 C 9.410 7.194,9.849 7.652,9.961 8.180 C 9.991 8.322,9.999 8.639,10.000 9.687 L 10.000 11.015 10.500 11.007 L 11.000 11.000 11.008 9.760 C 11.013 8.965,11.005 8.425,10.986 8.255 C 10.874 7.265,10.233 6.457,9.314 6.145 C 8.945 6.020,8.742 6.000,7.825 6.000 L 7.013 6.000 7.013 5.287 C 7.013 4.878,7.001 4.531,6.985 4.474 C 6.952 4.353,6.873 4.293,6.746 4.293 C 6.659 4.293,6.536 4.389,5.413 5.327 " stroke="none" fill-rule="evenodd"></path></svg>