<svg width="16" height="16" fill="currentColor" xmlns="http://www.w3.org/2000/svg"><path d="M7.467 0.017 C 5.118 0.192,3.024 1.327,1.608 3.193 C 0.799 4.260,0.296 5.477,0.073 6.906 C -0.009 7.429,-0.009 8.571,0.073 9.094 C 0.415 11.288,1.476 13.089,3.195 14.393 C 4.257 15.199,5.481 15.705,6.906 15.927 C 7.429 16.009,8.571 16.009,9.094 15.927 C 11.038 15.624,12.690 14.748,13.930 13.362 C 15.030 12.133,15.665 10.775,15.927 9.094 C 16.009 8.571,16.009 7.429,15.927 6.906 C 15.705 5.481,15.199 4.257,14.393 3.195 C 13.070 1.452,11.180 0.355,9.000 0.066 C 8.688 0.025,7.760 -0.005,7.467 0.017 M9.040 1.078 C 11.831 1.511,14.104 3.571,14.781 6.281 C 14.942 6.924,14.973 7.204,14.973 8.000 C 14.973 8.555,14.962 8.775,14.924 9.027 C 14.474 11.939,12.308 14.238,9.437 14.850 C 8.548 15.040,7.452 15.040,6.563 14.850 C 3.952 14.294,1.876 12.308,1.227 9.747 C 1.059 9.083,1.027 8.807,1.027 8.000 C 1.027 7.193,1.059 6.917,1.227 6.253 C 1.847 3.807,3.806 1.848,6.253 1.227 C 6.473 1.171,6.797 1.106,6.973 1.083 C 7.149 1.059,7.329 1.035,7.373 1.029 C 7.574 1.002,8.774 1.037,9.040 1.078 M5.837 4.009 C 5.581 4.104,5.428 4.269,5.349 4.532 C 5.291 4.728,5.291 5.271,5.349 5.466 C 5.459 5.835,5.731 6.033,6.132 6.036 C 6.383 6.037,6.569 5.967,6.723 5.813 C 6.903 5.633,6.960 5.437,6.960 5.000 C 6.960 4.475,6.853 4.229,6.555 4.066 C 6.434 4.000,6.379 3.988,6.173 3.981 C 6.018 3.976,5.899 3.985,5.837 4.009 M9.997 4.010 C 9.771 4.091,9.639 4.219,9.528 4.467 C 9.488 4.555,9.480 4.647,9.480 5.000 C 9.480 5.383,9.486 5.440,9.538 5.553 C 9.634 5.760,9.728 5.860,9.908 5.949 C 10.048 6.018,10.110 6.033,10.272 6.035 C 10.635 6.039,10.890 5.895,11.032 5.606 C 11.102 5.463,11.107 5.427,11.116 5.062 C 11.130 4.456,11.036 4.233,10.696 4.060 C 10.544 3.983,10.501 3.973,10.309 3.975 C 10.190 3.975,10.050 3.991,9.997 4.010 M3.573 5.000 L 3.573 6.004 4.060 5.995 C 4.504 5.987,4.559 5.981,4.688 5.923 C 4.999 5.782,5.152 5.479,5.152 5.000 C 5.152 4.521,4.999 4.217,4.688 4.078 C 4.560 4.021,4.501 4.014,4.060 4.005 L 3.573 3.995 3.573 5.000 M7.653 5.000 L 7.653 6.000 7.826 6.000 L 7.999 6.000 8.006 5.291 L 8.013 4.582 8.470 5.284 L 8.927 5.987 9.077 5.995 L 9.227 6.003 9.227 5.001 L 9.227 4.000 9.067 4.000 L 8.908 4.000 8.900 4.718 L 8.893 5.436 8.428 4.718 L 7.962 4.000 7.808 4.000 L 7.653 4.000 7.653 5.000 M11.120 4.147 L 11.120 4.293 11.400 4.293 L 11.680 4.293 11.680 5.147 L 11.680 6.000 11.853 6.000 L 12.027 6.000 12.027 5.147 L 12.027 4.293 12.320 4.293 L 12.613 4.293 12.613 4.147 L 12.613 4.000 11.867 4.000 L 11.120 4.000 11.120 4.147 M6.378 4.309 C 6.561 4.403,6.621 4.595,6.609 5.053 C 6.599 5.445,6.558 5.566,6.401 5.673 C 6.166 5.833,5.852 5.756,5.722 5.507 C 5.673 5.412,5.667 5.354,5.667 5.000 C 5.667 4.647,5.673 4.588,5.722 4.495 C 5.787 4.371,5.879 4.296,6.003 4.266 C 6.111 4.240,6.280 4.259,6.378 4.309 M10.536 4.308 C 10.579 4.330,10.645 4.395,10.683 4.453 C 10.833 4.679,10.832 5.322,10.682 5.549 C 10.493 5.834,10.076 5.824,9.903 5.529 C 9.828 5.403,9.827 5.392,9.827 5.000 C 9.827 4.625,9.831 4.593,9.892 4.486 C 9.963 4.363,10.047 4.295,10.173 4.264 C 10.276 4.237,10.438 4.257,10.536 4.308 M4.536 4.355 C 4.627 4.403,4.671 4.452,4.731 4.569 C 4.802 4.708,4.809 4.744,4.809 4.998 C 4.809 5.251,4.802 5.289,4.731 5.431 C 4.623 5.647,4.512 5.706,4.173 5.726 L 3.920 5.741 3.920 5.017 L 3.920 4.293 4.169 4.293 C 4.378 4.293,4.437 4.303,4.536 4.355 M3.266 7.063 C 3.161 7.127,3.046 7.264,3.020 7.355 C 3.009 7.395,3.000 7.697,3.000 8.027 C 3.000 8.541,3.006 8.638,3.045 8.709 C 3.104 8.816,3.261 8.954,3.354 8.980 C 3.449 9.006,12.551 9.006,12.646 8.980 C 12.739 8.954,12.896 8.816,12.955 8.709 C 12.994 8.638,13.000 8.541,13.000 8.027 C 13.000 7.697,12.991 7.394,12.980 7.354 C 12.951 7.253,12.805 7.093,12.701 7.049 C 12.630 7.020,11.813 7.013,7.981 7.013 C 3.514 7.014,3.344 7.015,3.266 7.063 M4.160 11.000 L 4.160 12.000 4.787 12.000 L 5.413 12.000 5.413 11.867 L 5.413 11.733 4.960 11.733 L 4.507 11.733 4.507 11.427 L 4.507 11.120 4.933 11.120 L 5.360 11.120 5.360 10.987 L 5.360 10.853 4.933 10.853 L 4.507 10.853 4.507 10.573 L 4.507 10.293 4.960 10.293 L 5.413 10.293 5.413 10.147 L 5.413 10.000 4.787 10.000 L 4.160 10.000 4.160 11.000 M5.653 11.000 L 5.653 12.000 5.826 12.000 L 5.999 12.000 6.006 11.292 L 6.013 10.584 6.469 11.285 L 6.924 11.987 7.075 11.995 L 7.227 12.003 7.227 11.001 L 7.227 10.000 7.067 10.000 L 6.908 10.000 6.900 10.718 L 6.893 11.437 6.427 10.718 L 5.960 10.000 5.807 10.000 L 5.653 10.000 5.653 11.000 M7.339 10.140 L 7.347 10.280 7.633 10.288 L 7.920 10.295 7.920 11.148 L 7.920 12.000 8.093 12.000 L 8.267 12.000 8.267 11.147 L 8.267 10.293 8.560 10.293 L 8.853 10.293 8.853 10.147 L 8.853 10.000 8.092 10.000 L 7.331 10.000 7.339 10.140 M8.960 11.000 L 8.960 12.000 9.587 12.000 L 10.213 12.000 10.213 11.867 L 10.213 11.733 9.760 11.733 L 9.307 11.733 9.307 11.427 L 9.307 11.120 9.733 11.120 L 10.160 11.120 10.160 10.987 L 10.160 10.853 9.733 10.853 L 9.307 10.853 9.307 10.573 L 9.307 10.293 9.760 10.293 L 10.213 10.293 10.213 10.147 L 10.213 10.000 9.587 10.000 L 8.960 10.000 8.960 11.000 M10.480 11.000 L 10.480 12.000 10.640 12.000 L 10.800 12.000 10.800 11.613 L 10.800 11.227 11.002 11.227 L 11.204 11.227 11.388 11.613 L 11.573 12.000 11.759 12.000 L 11.944 12.000 11.745 11.593 C 11.568 11.233,11.550 11.184,11.589 11.160 C 11.860 10.997,11.966 10.733,11.880 10.437 C 11.847 10.323,11.806 10.253,11.731 10.181 C 11.574 10.032,11.430 10.000,10.915 10.000 L 10.480 10.000 10.480 11.000 M11.315 10.295 C 11.444 10.331,11.509 10.396,11.544 10.524 C 11.580 10.654,11.543 10.795,11.452 10.882 C 11.389 10.941,11.357 10.947,11.091 10.956 L 10.800 10.965 10.800 10.616 L 10.800 10.267 11.007 10.267 C 11.120 10.267,11.259 10.280,11.315 10.295 " stroke="none" fill-rule="evenodd"></path></svg>