<svg width="16" height="16" fill="currentColor" xmlns="http://www.w3.org/2000/svg"><path d="M7.240 0.028 C 4.118 0.343,1.458 2.422,0.450 5.333 C 0.106 6.326,-0.019 7.138,0.008 8.209 C 0.027 8.955,0.097 9.444,0.283 10.130 C 0.577 11.208,1.173 12.329,1.918 13.200 L 1.998 13.293 4.306 10.986 L 6.614 8.680 5.401 7.670 C 4.120 6.603,4.097 6.579,4.158 6.418 C 4.174 6.376,4.657 5.955,5.418 5.321 C 6.570 4.360,6.657 4.293,6.753 4.293 C 6.827 4.293,6.874 4.312,6.921 4.359 L 6.987 4.424 6.987 5.210 L 6.987 5.995 7.940 6.007 C 8.669 6.016,8.929 6.028,9.044 6.059 L 9.195 6.098 11.244 4.048 L 13.293 1.998 13.200 1.918 C 12.386 1.222,11.305 0.631,10.303 0.335 C 9.908 0.219,9.462 0.122,9.065 0.066 C 8.704 0.016,7.592 -0.008,7.240 0.028 M12.055 4.652 L 10.124 6.583 10.295 6.765 C 10.645 7.136,10.873 7.584,10.959 8.065 C 10.976 8.162,10.987 8.761,10.987 9.618 L 10.987 11.013 10.493 11.013 L 10.000 11.013 10.000 9.673 C 9.999 8.196,9.995 8.154,9.834 7.821 C 9.782 7.715,9.679 7.572,9.580 7.468 L 9.413 7.294 6.060 10.648 L 2.707 14.002 2.800 14.082 C 3.671 14.826,4.792 15.423,5.870 15.717 C 6.560 15.904,7.046 15.974,7.802 15.992 C 8.852 16.018,9.662 15.895,10.627 15.563 C 12.679 14.859,14.406 13.284,15.295 11.306 C 15.767 10.255,15.999 9.175,16.000 8.023 C 16.000 7.264,15.929 6.694,15.745 5.984 C 15.472 4.927,14.936 3.862,14.239 2.993 C 14.118 2.843,14.012 2.720,14.003 2.720 C 13.994 2.720,13.117 3.589,12.055 4.652 M6.987 7.640 C 6.987 7.985,6.996 8.267,7.007 8.267 C 7.018 8.267,7.309 7.985,7.653 7.640 L 8.280 7.013 7.633 7.013 L 6.987 7.013 6.987 7.640 " stroke="none" fill-rule="evenodd"></path></svg>