<svg width="16" height="16" fill="currentColor" xmlns="http://www.w3.org/2000/svg"><path d="M7.632 0.052 C 7.380 0.121,7.213 0.213,6.978 0.415 C 6.607 0.732,0.341 7.046,0.238 7.207 C 0.105 7.412,0.026 7.648,0.008 7.899 C -0.012 8.170,0.032 8.388,0.165 8.667 L 0.273 8.893 2.756 11.382 C 5.901 14.534,7.128 15.736,7.281 15.814 C 7.491 15.921,7.689 15.976,7.920 15.992 C 8.298 16.017,8.643 15.900,8.958 15.641 C 9.240 15.409,15.663 8.960,15.755 8.816 C 16.072 8.323,16.072 7.678,15.755 7.184 C 15.709 7.112,14.164 5.545,12.322 3.702 C 9.853 1.231,8.928 0.322,8.802 0.242 C 8.459 0.023,8.009 -0.050,7.632 0.052 M8.234 1.051 C 8.274 1.072,8.931 1.715,9.693 2.478 L 11.080 3.867 9.540 5.407 L 8.000 6.947 6.460 5.407 L 4.920 3.867 6.321 2.465 C 7.401 1.386,7.747 1.055,7.828 1.025 C 7.947 0.981,8.123 0.992,8.234 1.051 M5.413 6.467 L 6.947 8.000 5.407 9.540 L 3.867 11.080 2.478 9.693 C 1.715 8.931,1.074 8.276,1.054 8.239 C 0.995 8.129,0.980 7.990,1.013 7.864 C 1.041 7.758,1.183 7.607,2.448 6.340 C 3.221 5.566,3.859 4.933,3.866 4.933 C 3.874 4.933,4.570 5.623,5.413 6.467 M13.552 6.340 C 14.817 7.607,14.959 7.758,14.987 7.864 C 15.020 7.990,15.005 8.129,14.946 8.239 C 14.926 8.276,14.285 8.931,13.522 9.693 L 12.133 11.080 10.593 9.540 L 9.053 8.000 10.587 6.467 C 11.430 5.623,12.126 4.933,12.134 4.933 C 12.141 4.933,12.779 5.566,13.552 6.340 M3.040 7.918 L 3.040 9.253 3.307 9.253 L 3.573 9.253 3.573 8.759 L 3.573 8.265 3.815 8.272 L 4.057 8.280 4.286 8.767 L 4.515 9.253 4.804 9.253 C 4.963 9.253,5.093 9.247,5.093 9.240 C 5.093 9.232,4.979 8.998,4.840 8.720 C 4.701 8.442,4.587 8.205,4.587 8.194 C 4.588 8.182,4.642 8.137,4.708 8.093 C 5.002 7.898,5.124 7.494,5.001 7.122 C 4.937 6.931,4.788 6.773,4.580 6.677 L 4.413 6.600 3.727 6.591 L 3.040 6.583 3.040 7.918 M11.307 7.918 L 11.307 9.253 11.573 9.253 L 11.840 9.253 11.840 8.760 L 11.840 8.267 12.073 8.268 L 12.307 8.268 12.533 8.760 L 12.760 9.253 13.060 9.253 L 13.360 9.253 13.092 8.717 C 12.944 8.422,12.827 8.179,12.832 8.176 C 13.086 8.025,13.204 7.885,13.271 7.657 C 13.389 7.248,13.186 6.814,12.805 6.662 C 12.664 6.606,12.604 6.601,11.980 6.592 L 11.307 6.583 11.307 7.918 M4.320 7.073 C 4.488 7.188,4.552 7.415,4.470 7.608 C 4.386 7.804,4.234 7.866,3.833 7.867 L 3.573 7.867 3.573 7.440 L 3.573 7.013 3.903 7.013 C 4.200 7.013,4.241 7.019,4.320 7.073 M12.554 7.067 C 12.601 7.096,12.664 7.159,12.693 7.206 C 12.765 7.324,12.765 7.556,12.694 7.672 C 12.608 7.815,12.506 7.850,12.153 7.862 L 11.840 7.872 11.840 7.443 L 11.840 7.013 12.153 7.013 C 12.419 7.014,12.480 7.022,12.554 7.067 M9.547 10.600 L 11.080 12.133 9.693 13.523 C 8.762 14.456,8.272 14.929,8.200 14.962 C 8.065 15.026,7.935 15.026,7.800 14.962 C 7.728 14.929,7.238 14.456,6.307 13.523 L 4.920 12.133 6.453 10.600 C 7.297 9.757,7.993 9.067,8.000 9.067 C 8.007 9.067,8.703 9.757,9.547 10.600 " stroke="none" fill-rule="evenodd"></path></svg>