<svg width="16" height="16" fill="currentColor" xmlns="http://www.w3.org/2000/svg"><path d="M0.779 1.064 C 0.474 1.169,0.240 1.392,0.088 1.724 C -0.018 1.954,-0.029 2.266,0.059 2.520 C 0.103 2.650,1.184 4.511,3.596 8.613 C 6.409 13.397,7.096 14.547,7.208 14.661 C 7.685 15.147,8.476 15.097,8.894 14.554 C 9.070 14.325,15.877 2.710,15.938 2.533 C 16.128 1.988,15.869 1.375,15.340 1.115 L 15.161 1.027 8.041 1.021 C 1.202 1.015,0.914 1.017,0.779 1.064 M5.086 5.427 C 5.200 5.654,5.300 5.840,5.310 5.840 C 5.320 5.840,5.422 5.654,5.537 5.427 L 5.747 5.014 5.955 5.014 C 6.069 5.013,6.158 5.022,6.152 5.033 C 6.146 5.044,5.995 5.324,5.817 5.655 L 5.493 6.257 5.493 6.635 L 5.493 7.013 5.307 7.013 L 5.120 7.013 5.120 6.635 L 5.120 6.258 4.890 5.829 C 4.763 5.593,4.612 5.313,4.554 5.207 L 4.449 5.013 4.664 5.013 L 4.880 5.013 5.086 5.427 M6.613 6.013 L 6.613 7.013 6.427 7.013 L 6.240 7.013 6.240 6.013 L 6.240 5.013 6.427 5.013 L 6.613 5.013 6.613 6.013 M8.213 5.173 L 8.213 5.333 7.760 5.333 L 7.307 5.333 7.307 5.587 L 7.307 5.840 7.733 5.840 L 8.160 5.840 8.160 5.987 L 8.160 6.133 7.733 6.133 L 7.307 6.133 7.307 6.400 L 7.307 6.667 7.761 6.667 L 8.216 6.667 8.208 6.833 L 8.200 7.000 7.567 7.007 L 6.933 7.014 6.933 6.014 L 6.933 5.013 7.573 5.013 L 8.213 5.013 8.213 5.173 M8.827 5.840 L 8.827 6.667 9.253 6.667 L 9.680 6.667 9.680 6.840 L 9.680 7.013 9.067 7.013 L 8.453 7.013 8.453 6.013 L 8.453 5.013 8.640 5.013 L 8.827 5.013 8.827 5.840 M10.960 5.082 C 11.121 5.157,11.247 5.288,11.331 5.467 C 11.395 5.603,11.400 5.640,11.400 6.000 C 11.400 6.444,11.370 6.543,11.173 6.757 C 10.993 6.953,10.855 6.992,10.287 7.007 L 9.813 7.020 9.813 6.015 L 9.813 5.009 10.327 5.018 C 10.780 5.026,10.854 5.033,10.960 5.082 M10.187 5.998 L 10.187 6.667 10.414 6.667 C 10.681 6.667,10.792 6.628,10.888 6.503 C 10.985 6.376,11.022 6.198,11.008 5.926 C 10.994 5.657,10.933 5.508,10.794 5.409 C 10.720 5.356,10.668 5.345,10.447 5.338 L 10.187 5.328 10.187 5.998 " stroke="none" fill-rule="evenodd"></path></svg>