<svg width="16" height="16" fill="currentColor" xmlns="http://www.w3.org/2000/svg"><path d="M7.632 0.052 C 7.378 0.121,7.212 0.213,6.978 0.416 C 6.639 0.708,0.332 7.049,0.245 7.184 C -0.058 7.654,-0.074 8.259,0.203 8.745 C 0.291 8.898,7.024 15.646,7.209 15.765 C 7.685 16.073,8.328 16.069,8.816 15.755 C 8.960 15.663,15.409 9.239,15.642 8.957 C 15.876 8.672,16.000 8.342,16.000 8.000 C 16.000 7.769,15.955 7.588,15.835 7.333 L 15.728 7.107 12.351 3.729 C 9.860 1.238,8.928 0.322,8.802 0.242 C 8.459 0.023,8.009 -0.050,7.632 0.052 M8.147 1.016 C 8.239 1.040,8.693 1.483,11.582 4.369 C 13.412 6.197,14.926 7.724,14.946 7.761 C 15.005 7.871,15.020 8.010,14.987 8.136 C 14.959 8.243,14.671 8.539,11.631 11.583 C 9.330 13.887,8.274 14.928,8.200 14.962 C 8.141 14.990,8.051 15.012,8.000 15.012 C 7.949 15.012,7.859 14.990,7.800 14.962 C 7.726 14.928,6.670 13.887,4.369 11.583 C 1.329 8.539,1.041 8.243,1.013 8.136 C 0.980 8.010,0.995 7.871,1.054 7.761 C 1.074 7.724,2.582 6.202,4.406 4.379 C 7.799 0.988,7.795 0.992,7.987 0.988 C 8.016 0.987,8.088 1.000,8.147 1.016 M5.011 5.737 C 4.741 6.032,4.516 6.283,4.512 6.294 C 4.508 6.305,5.123 6.880,5.879 7.573 L 7.253 8.833 7.253 10.417 L 7.253 12.000 8.000 12.000 L 8.747 12.000 8.747 10.417 L 8.747 8.833 10.121 7.573 C 10.877 6.880,11.492 6.305,11.488 6.294 C 11.484 6.283,11.259 6.032,10.989 5.737 C 10.574 5.284,10.492 5.206,10.458 5.234 C 10.436 5.252,9.877 5.762,9.217 6.367 C 8.557 6.972,8.009 7.467,8.000 7.467 C 7.991 7.467,7.443 6.972,6.783 6.367 C 6.123 5.762,5.564 5.252,5.542 5.234 C 5.508 5.206,5.426 5.284,5.011 5.737 " stroke="none" fill-rule="evenodd"></path></svg>