<svg width="16" height="16" fill="currentColor" xmlns="http://www.w3.org/2000/svg"><path d="M7.662 0.474 C 7.402 0.567,7.171 0.795,7.058 1.072 C 7.002 1.210,7.000 1.248,6.992 2.607 L 6.984 4.000 4.444 4.000 C 1.649 4.000,1.722 3.996,1.461 4.164 C 1.225 4.315,1.069 4.552,1.016 4.839 C 0.976 5.056,0.976 8.943,1.016 9.162 C 1.076 9.490,1.293 9.771,1.600 9.917 L 1.747 9.987 4.367 9.994 L 6.987 10.001 6.987 13.001 L 6.987 16.000 8.000 16.000 L 9.013 16.000 9.013 13.000 L 9.013 10.000 10.838 10.000 C 12.562 10.000,12.671 9.997,12.826 9.949 C 12.917 9.921,13.040 9.864,13.101 9.822 C 13.212 9.745,15.222 7.362,15.299 7.214 C 15.322 7.170,15.341 7.074,15.341 7.000 C 15.341 6.926,15.322 6.830,15.299 6.786 C 15.276 6.742,14.797 6.154,14.233 5.479 C 13.467 4.560,13.176 4.230,13.078 4.167 C 12.817 4.000,12.816 4.000,10.823 4.000 L 9.016 4.000 9.008 2.607 C 8.999 1.220,8.999 1.213,8.937 1.059 C 8.856 0.855,8.629 0.611,8.433 0.515 C 8.234 0.418,7.874 0.399,7.662 0.474 M13.360 5.993 C 13.807 6.531,14.173 6.984,14.173 7.000 C 14.173 7.016,13.801 7.475,13.347 8.021 L 12.521 9.013 7.260 9.013 L 2.000 9.013 2.000 7.013 L 2.000 5.013 7.273 5.014 L 12.547 5.015 13.360 5.993 " stroke="none" fill-rule="evenodd"></path></svg>