<svg width="16" height="16" fill="currentColor" xmlns="http://www.w3.org/2000/svg"><path d="M3.182 0.040 C 2.667 0.152,2.250 0.528,2.075 1.035 L 2.013 1.213 2.013 8.000 L 2.013 14.787 2.075 14.965 C 2.229 15.411,2.589 15.771,3.035 15.925 L 3.213 15.987 8.000 15.987 L 12.787 15.987 12.965 15.925 C 13.411 15.771,13.771 15.411,13.925 14.965 L 13.987 14.787 13.987 8.960 C 13.987 3.336,13.985 3.128,13.937 2.987 C 13.808 2.609,13.787 2.584,12.615 1.410 C 11.909 0.703,11.459 0.273,11.377 0.225 C 11.305 0.184,11.167 0.120,11.070 0.082 L 10.893 0.013 7.120 0.009 C 4.032 0.005,3.317 0.010,3.182 0.040 M10.880 3.053 C 11.410 3.194,11.849 3.652,11.961 4.180 C 12.018 4.449,12.018 11.551,11.961 11.820 C 11.850 12.342,11.431 12.786,10.893 12.951 C 10.742 12.997,10.578 13.000,8.000 13.000 C 5.422 13.000,5.258 12.997,5.107 12.951 C 4.569 12.786,4.150 12.342,4.039 11.820 C 3.982 11.551,3.982 4.449,4.039 4.180 C 4.150 3.658,4.587 3.197,5.108 3.054 C 5.312 2.998,10.670 2.997,10.880 3.053 M5.290 4.051 C 5.155 4.113,5.052 4.243,5.015 4.401 C 5.000 4.467,4.988 4.849,4.987 5.260 L 4.987 6.000 6.240 6.000 L 7.493 6.000 7.493 5.000 L 7.493 4.000 6.447 4.001 C 5.482 4.001,5.391 4.005,5.290 4.051 M8.507 5.000 L 8.507 6.000 9.760 6.000 L 11.013 6.000 11.013 5.260 C 11.012 4.468,10.996 4.332,10.888 4.191 C 10.746 4.004,10.724 4.001,9.553 4.001 L 8.507 4.000 8.507 5.000 M4.993 8.007 L 5.000 9.000 8.000 9.000 L 11.000 9.000 11.007 8.007 L 11.014 7.013 8.000 7.013 L 4.986 7.013 4.993 8.007 M4.987 10.740 C 4.988 11.532,5.004 11.668,5.112 11.809 C 5.254 11.996,5.276 11.999,6.447 11.999 L 7.493 12.000 7.493 11.000 L 7.493 10.000 6.240 10.000 L 4.987 10.000 4.987 10.740 M8.507 11.000 L 8.507 12.000 9.553 11.999 C 10.724 11.999,10.746 11.996,10.888 11.809 C 10.996 11.668,11.012 11.532,11.013 10.740 L 11.013 10.000 9.760 10.000 L 8.507 10.000 8.507 11.000 " stroke="none" fill-rule="evenodd"></path></svg>