<svg width="16" height="16" fill="currentColor" xmlns="http://www.w3.org/2000/svg"><path d="M11.280 1.026 C 11.258 1.031,11.146 1.050,11.032 1.069 C 10.741 1.114,10.571 1.219,10.473 1.411 C 10.302 1.750,10.451 2.131,10.808 2.265 C 10.905 2.301,11.100 2.301,11.283 2.265 C 11.505 2.221,12.060 2.228,12.328 2.278 C 12.939 2.393,13.522 2.713,13.953 3.170 C 14.669 3.929,14.931 4.971,14.668 6.018 C 14.596 6.303,14.590 6.358,14.615 6.474 C 14.715 6.942,15.303 7.120,15.636 6.784 C 15.747 6.672,15.800 6.553,15.875 6.240 C 16.119 5.227,16.012 4.284,15.547 3.347 C 14.971 2.185,13.932 1.381,12.634 1.090 C 12.440 1.046,12.271 1.033,11.853 1.026 C 11.560 1.021,11.302 1.021,11.280 1.026 M6.351 2.855 C 5.190 3.006,3.650 3.939,2.302 5.310 C 1.084 6.548,0.375 7.705,0.091 8.920 C 0.024 9.205,0.016 9.290,0.016 9.693 C 0.016 10.078,0.025 10.183,0.077 10.387 C 0.240 11.026,0.557 11.548,1.099 12.068 C 1.970 12.904,3.283 13.504,4.885 13.798 C 6.054 14.013,7.405 14.012,8.587 13.796 C 10.741 13.403,12.541 12.350,13.454 10.949 C 13.923 10.229,14.070 9.432,13.852 8.787 C 13.625 8.116,13.006 7.584,12.067 7.255 C 11.936 7.208,11.807 7.151,11.781 7.128 C 11.711 7.065,11.722 6.945,11.825 6.636 C 12.034 6.012,11.997 5.537,11.713 5.187 C 11.556 4.994,11.325 4.853,11.033 4.770 C 10.841 4.716,10.757 4.708,10.373 4.710 C 10.006 4.711,9.878 4.723,9.600 4.781 C 9.178 4.870,8.863 4.961,8.507 5.098 C 7.987 5.299,7.838 5.320,7.800 5.201 C 7.791 5.172,7.821 5.001,7.866 4.821 C 8.099 3.893,7.920 3.252,7.350 2.973 C 7.070 2.837,6.767 2.801,6.351 2.855 M11.507 3.190 C 11.283 3.225,11.151 3.282,11.058 3.385 C 10.972 3.480,10.907 3.630,10.907 3.733 C 10.907 3.831,10.969 3.982,11.045 4.069 C 11.190 4.234,11.250 4.251,11.667 4.252 C 12.021 4.253,12.048 4.257,12.193 4.328 C 12.486 4.473,12.683 4.734,12.749 5.065 C 12.778 5.213,12.776 5.268,12.734 5.482 C 12.674 5.786,12.702 5.929,12.852 6.079 C 13.019 6.246,13.241 6.281,13.455 6.174 C 13.704 6.050,13.821 5.745,13.819 5.227 C 13.818 4.882,13.752 4.610,13.595 4.293 C 13.502 4.107,13.435 4.019,13.214 3.798 C 12.983 3.566,12.912 3.513,12.693 3.406 C 12.554 3.337,12.362 3.263,12.267 3.240 C 12.087 3.198,11.646 3.169,11.507 3.190 M7.568 6.721 C 8.224 6.793,8.958 6.998,9.471 7.254 C 10.419 7.726,11.041 8.441,11.175 9.212 C 11.222 9.479,11.194 9.993,11.120 10.227 C 10.849 11.090,10.080 11.874,9.000 12.389 C 8.426 12.662,7.724 12.875,7.067 12.974 C 6.668 13.034,5.701 13.057,5.300 13.015 C 3.872 12.868,2.644 12.267,2.031 11.417 C 1.893 11.225,1.735 10.894,1.675 10.670 C 1.597 10.381,1.598 9.882,1.677 9.587 C 1.873 8.852,2.447 8.156,3.293 7.628 C 3.977 7.200,5.016 6.846,5.867 6.749 C 6.006 6.733,6.156 6.716,6.200 6.711 C 6.391 6.688,7.331 6.696,7.568 6.721 M5.856 8.001 C 5.251 8.096,4.659 8.393,4.233 8.815 C 3.726 9.317,3.478 9.954,3.548 10.570 C 3.701 11.909,5.163 12.711,6.661 12.277 C 7.143 12.137,7.524 11.916,7.886 11.565 C 8.251 11.210,8.474 10.812,8.572 10.337 C 8.719 9.626,8.413 8.877,7.798 8.438 C 7.580 8.282,7.232 8.119,6.973 8.052 C 6.728 7.988,6.115 7.960,5.856 8.001 M6.759 9.481 C 6.908 9.552,6.949 9.725,6.853 9.881 C 6.688 10.147,6.259 10.086,6.259 9.796 C 6.259 9.657,6.331 9.551,6.466 9.490 C 6.598 9.430,6.648 9.428,6.759 9.481 M5.733 9.896 C 5.884 9.961,6.035 10.109,6.094 10.250 C 6.118 10.309,6.137 10.427,6.137 10.527 C 6.137 10.986,5.730 11.379,5.224 11.408 C 4.882 11.428,4.611 11.292,4.473 11.030 C 4.386 10.867,4.390 10.568,4.480 10.387 C 4.709 9.928,5.284 9.702,5.733 9.896 " stroke="none" fill-rule="evenodd"></path></svg>