<svg width="16" height="16" fill="currentColor" xmlns="http://www.w3.org/2000/svg"><path d="M0.612 3.529 C 0.446 3.575,0.315 3.660,0.187 3.806 C -0.012 4.032,-0.000 3.756,0.000 8.000 C 0.000 11.328,0.005 11.821,0.041 11.940 C 0.095 12.123,0.298 12.345,0.486 12.429 C 0.688 12.519,0.949 12.517,1.147 12.424 C 1.227 12.386,2.682 11.549,4.379 10.564 C 6.077 9.579,7.471 8.773,7.478 8.773 C 7.486 8.773,7.495 9.472,7.499 10.327 L 7.507 11.880 7.570 12.019 C 7.728 12.369,8.154 12.573,8.520 12.474 C 8.604 12.451,9.832 11.753,11.810 10.605 C 13.547 9.598,14.971 8.773,14.976 8.773 C 14.981 8.773,14.988 9.526,14.992 10.447 L 15.000 12.120 15.072 12.243 C 15.156 12.385,15.230 12.440,15.396 12.485 C 15.613 12.543,15.850 12.421,15.950 12.201 C 15.997 12.098,15.999 11.914,15.999 8.006 C 16.000 3.565,16.008 3.818,15.859 3.658 C 15.639 3.422,15.231 3.477,15.066 3.764 L 15.000 3.880 14.992 5.553 C 14.988 6.474,14.979 7.227,14.973 7.227 C 14.966 7.227,13.577 6.424,11.887 5.444 C 10.196 4.463,8.747 3.627,8.667 3.586 C 8.476 3.489,8.188 3.480,7.995 3.566 C 7.821 3.644,7.644 3.816,7.570 3.981 L 7.507 4.120 7.499 5.676 C 7.493 6.895,7.485 7.229,7.459 7.219 C 7.441 7.212,6.035 6.399,4.334 5.413 C 2.634 4.426,1.194 3.598,1.135 3.572 C 0.985 3.506,0.758 3.488,0.612 3.529 " stroke="none" fill-rule="evenodd"></path></svg>