<svg width="16" height="16" fill="currentColor" xmlns="http://www.w3.org/2000/svg"><path d="M0.440 3.506 C 0.425 3.511,0.381 3.522,0.342 3.531 C 0.239 3.554,0.106 3.675,0.050 3.799 C 0.003 3.902,0.001 4.086,0.001 8.000 C 0.001 11.914,0.003 12.098,0.050 12.201 C 0.150 12.421,0.387 12.543,0.604 12.485 C 0.770 12.440,0.844 12.385,0.928 12.243 L 1.000 12.120 1.008 10.447 C 1.012 9.526,1.020 8.773,1.025 8.773 C 1.030 8.773,2.443 9.591,4.164 10.590 C 6.113 11.722,7.354 12.427,7.453 12.459 C 7.831 12.581,8.264 12.386,8.430 12.019 L 8.493 11.880 8.501 10.327 C 8.505 9.472,8.514 8.773,8.522 8.773 C 8.529 8.773,9.924 9.579,11.621 10.564 C 13.318 11.549,14.773 12.386,14.853 12.424 C 14.969 12.478,15.039 12.493,15.187 12.491 C 15.440 12.489,15.614 12.411,15.787 12.222 C 16.017 11.970,16.000 12.300,16.000 8.000 C 16.000 3.724,16.015 4.031,15.798 3.791 C 15.625 3.598,15.441 3.514,15.191 3.514 C 15.054 3.514,14.959 3.530,14.876 3.566 C 14.811 3.595,13.366 4.426,11.666 5.413 C 9.965 6.399,8.559 7.212,8.541 7.219 C 8.515 7.229,8.507 6.895,8.501 5.676 L 8.493 4.120 8.430 3.979 C 8.253 3.588,7.748 3.399,7.356 3.579 C 7.278 3.615,5.824 4.450,4.126 5.436 C 2.429 6.421,1.034 7.227,1.027 7.227 C 1.021 7.227,1.012 6.474,1.008 5.553 L 1.000 3.880 0.929 3.760 C 0.888 3.689,0.816 3.616,0.756 3.583 C 0.656 3.528,0.494 3.489,0.440 3.506 M7.487 9.678 L 7.480 11.357 4.596 9.685 C 2.952 8.732,1.721 8.003,1.734 7.990 C 1.747 7.977,3.045 7.219,4.618 6.306 L 7.480 4.646 7.487 6.323 C 7.491 7.245,7.491 8.755,7.487 9.678 M14.980 9.677 L 14.973 11.353 12.107 9.690 C 10.530 8.775,9.237 8.017,9.233 8.005 C 9.229 7.994,10.519 7.234,12.100 6.317 L 14.973 4.650 14.980 6.325 C 14.984 7.246,14.984 8.754,14.980 9.677 " stroke="none" fill-rule="evenodd"></path></svg>