<svg width="16" height="16" fill="currentColor" xmlns="http://www.w3.org/2000/svg"><path d="M4.440 3.506 C 4.425 3.511,4.381 3.522,4.342 3.531 C 4.239 3.554,4.106 3.675,4.050 3.799 C 4.003 3.902,4.001 4.086,4.001 8.000 C 4.001 11.914,4.003 12.098,4.050 12.201 C 4.150 12.421,4.387 12.543,4.604 12.485 C 4.770 12.440,4.844 12.385,4.928 12.243 L 5.000 12.120 5.008 10.447 C 5.012 9.526,5.019 8.773,5.024 8.773 C 5.029 8.773,6.453 9.598,8.190 10.605 C 10.168 11.753,11.396 12.451,11.480 12.474 C 11.852 12.575,12.266 12.371,12.436 12.003 L 12.493 11.880 12.493 8.000 L 12.493 4.120 12.436 3.997 C 12.354 3.819,12.204 3.665,12.031 3.583 C 11.816 3.480,11.540 3.482,11.333 3.587 C 11.252 3.627,9.804 4.463,8.113 5.444 C 6.423 6.424,5.034 7.227,5.027 7.227 C 5.021 7.227,5.012 6.474,5.008 5.553 L 5.000 3.880 4.929 3.760 C 4.888 3.689,4.816 3.616,4.756 3.583 C 4.656 3.528,4.494 3.489,4.440 3.506 " stroke="none" fill-rule="evenodd"></path></svg>