<svg width="16" height="16" fill="currentColor" xmlns="http://www.w3.org/2000/svg"><path d="M1.669 2.028 C 0.992 2.142,0.371 2.651,0.135 3.283 C -0.004 3.654,0.001 3.489,0.000 7.994 C -0.000 12.586,-0.007 12.367,0.156 12.767 C 0.347 13.238,0.762 13.653,1.233 13.844 C 1.639 14.010,1.217 14.000,8.000 14.000 C 14.782 14.000,14.361 14.010,14.766 13.845 C 15.233 13.654,15.654 13.233,15.845 12.766 C 16.007 12.367,16.000 12.584,16.000 8.000 C 16.000 3.415,16.007 3.633,15.844 3.233 C 15.666 2.795,15.309 2.422,14.864 2.208 C 14.422 1.995,15.102 2.015,8.080 2.010 C 4.626 2.008,1.741 2.016,1.669 2.028 M14.407 3.085 C 14.584 3.167,14.812 3.392,14.900 3.570 L 14.973 3.720 14.973 8.000 L 14.973 12.280 14.901 12.428 C 14.757 12.720,14.468 12.934,14.145 12.987 C 13.929 13.022,2.071 13.022,1.855 12.987 C 1.532 12.934,1.243 12.720,1.099 12.428 L 1.027 12.280 1.020 8.055 C 1.012 3.368,1.001 3.679,1.189 3.424 C 1.313 3.257,1.488 3.123,1.662 3.063 C 1.793 3.017,2.106 3.015,8.040 3.021 L 14.280 3.027 14.407 3.085 M6.280 5.055 C 6.160 5.118,6.104 5.176,6.050 5.293 C 6.004 5.395,6.001 5.533,6.001 8.000 C 6.001 10.482,6.003 10.605,6.051 10.710 C 6.166 10.962,6.491 11.072,6.734 10.940 C 6.763 10.924,7.393 10.478,8.133 9.949 L 9.480 8.987 9.493 9.807 C 9.509 10.750,9.514 10.776,9.741 10.916 C 9.984 11.067,10.308 10.982,10.438 10.733 C 10.493 10.627,10.493 10.613,10.493 8.000 C 10.493 5.460,10.492 5.370,10.442 5.270 C 10.319 5.022,9.974 4.935,9.730 5.090 C 9.514 5.226,9.509 5.253,9.493 6.193 L 9.480 7.013 8.187 6.089 C 6.576 4.939,6.692 5.013,6.508 5.013 C 6.426 5.014,6.324 5.032,6.280 5.055 " stroke="none" fill-rule="evenodd"></path></svg>