<svg width="16" height="16" fill="currentColor" xmlns="http://www.w3.org/2000/svg"><path d="M7.467 0.017 C 5.118 0.192,3.024 1.327,1.608 3.193 C 0.799 4.260,0.296 5.477,0.073 6.906 C -0.009 7.429,-0.009 8.571,0.073 9.094 C 0.415 11.288,1.476 13.089,3.195 14.393 C 4.257 15.199,5.481 15.705,6.906 15.927 C 7.429 16.009,8.571 16.009,9.094 15.927 C 11.038 15.624,12.690 14.748,13.930 13.362 C 15.030 12.133,15.665 10.775,15.927 9.094 C 16.009 8.571,16.009 7.429,15.927 6.906 C 15.705 5.481,15.199 4.257,14.393 3.195 C 13.070 1.452,11.180 0.355,9.000 0.066 C 8.688 0.025,7.760 -0.005,7.467 0.017 M9.040 1.078 C 11.831 1.511,14.104 3.571,14.781 6.281 C 14.942 6.924,14.973 7.204,14.973 8.000 C 14.973 8.555,14.962 8.775,14.924 9.027 C 14.474 11.939,12.308 14.238,9.437 14.850 C 8.548 15.040,7.452 15.040,6.563 14.850 C 3.952 14.294,1.876 12.308,1.227 9.747 C 1.059 9.083,1.027 8.807,1.027 8.000 C 1.027 7.193,1.059 6.917,1.227 6.253 C 1.847 3.807,3.806 1.848,6.253 1.227 C 6.473 1.171,6.797 1.106,6.973 1.083 C 7.149 1.059,7.329 1.035,7.373 1.029 C 7.574 1.002,8.774 1.037,9.040 1.078 M4.280 5.058 C 4.156 5.123,4.103 5.177,4.050 5.293 C 4.004 5.395,4.001 5.533,4.001 8.000 C 4.001 10.482,4.003 10.605,4.051 10.710 C 4.078 10.770,4.141 10.850,4.191 10.888 C 4.278 10.954,4.481 11.019,4.543 11.000 C 4.560 10.995,4.606 10.984,4.646 10.975 C 4.686 10.966,4.762 10.922,4.814 10.876 C 4.999 10.713,4.999 10.715,5.013 9.809 L 5.027 8.990 6.385 9.961 C 7.132 10.494,7.778 10.945,7.821 10.963 C 8.061 11.062,8.353 10.935,8.469 10.680 C 8.482 10.651,8.499 10.258,8.507 9.807 L 8.520 8.987 9.867 9.949 C 10.607 10.478,11.237 10.924,11.266 10.940 C 11.509 11.072,11.834 10.962,11.949 10.710 C 11.997 10.605,11.999 10.482,11.999 8.000 C 11.999 5.518,11.997 5.395,11.949 5.290 C 11.872 5.121,11.735 5.031,11.534 5.018 C 11.420 5.011,11.344 5.020,11.291 5.048 C 11.248 5.070,10.607 5.522,9.867 6.051 L 8.520 7.013 8.507 6.193 C 8.491 5.253,8.486 5.226,8.270 5.090 C 8.138 5.006,7.930 4.986,7.803 5.043 C 7.767 5.060,7.127 5.509,6.382 6.042 L 5.027 7.010 5.013 6.191 C 5.002 5.496,4.993 5.361,4.956 5.293 C 4.897 5.188,4.778 5.077,4.685 5.042 C 4.576 5.001,4.373 5.009,4.280 5.058 " stroke="none" fill-rule="evenodd"></path></svg>