<svg width="16" height="16" fill="currentColor" xmlns="http://www.w3.org/2000/svg"><path d="M7.467 0.017 C 5.118 0.192,3.024 1.327,1.608 3.193 C 0.799 4.260,0.296 5.477,0.073 6.906 C -0.009 7.429,-0.009 8.571,0.073 9.094 C 0.415 11.288,1.476 13.089,3.195 14.393 C 4.257 15.199,5.481 15.705,6.906 15.927 C 7.429 16.009,8.571 16.009,9.094 15.927 C 11.038 15.624,12.690 14.748,13.930 13.362 C 15.030 12.133,15.665 10.775,15.927 9.094 C 16.009 8.571,16.009 7.429,15.927 6.906 C 15.705 5.481,15.199 4.257,14.393 3.195 C 13.070 1.452,11.180 0.355,9.000 0.066 C 8.688 0.025,7.760 -0.005,7.467 0.017 M4.701 5.050 C 4.805 5.094,4.920 5.213,4.958 5.315 C 4.976 5.362,4.987 5.693,4.987 6.202 C 4.987 6.648,4.994 7.013,5.004 7.013 C 5.013 7.013,5.621 6.584,6.354 6.060 C 7.088 5.536,7.725 5.086,7.771 5.061 C 7.987 4.942,8.316 5.041,8.433 5.261 C 8.491 5.369,8.494 5.407,8.507 6.193 L 8.520 7.013 9.867 6.051 C 10.607 5.522,11.248 5.070,11.291 5.048 C 11.344 5.020,11.420 5.011,11.534 5.018 C 11.735 5.031,11.872 5.121,11.949 5.290 C 11.997 5.395,11.999 5.518,11.999 8.000 C 11.999 10.482,11.997 10.605,11.949 10.710 C 11.834 10.962,11.509 11.072,11.266 10.940 C 11.237 10.924,10.607 10.478,9.867 9.949 L 8.520 8.987 8.507 9.807 C 8.493 10.621,8.493 10.627,8.426 10.746 C 8.302 10.969,8.003 11.060,7.782 10.943 C 7.730 10.916,7.088 10.464,6.354 9.940 C 5.621 9.416,5.013 8.987,5.004 8.987 C 4.994 8.987,4.987 9.352,4.987 9.798 C 4.987 10.307,4.976 10.638,4.958 10.685 C 4.927 10.769,4.814 10.896,4.734 10.940 C 4.493 11.070,4.164 10.960,4.051 10.710 C 4.003 10.605,4.001 10.482,4.001 8.000 C 4.001 5.533,4.004 5.395,4.050 5.293 C 4.103 5.177,4.156 5.123,4.280 5.058 C 4.379 5.005,4.587 5.001,4.701 5.050 " stroke="none" fill-rule="evenodd"></path></svg>