<svg width="16" height="16" fill="currentColor" xmlns="http://www.w3.org/2000/svg"><path d="M7.800 0.050 C 7.671 0.110,7.590 0.194,7.535 0.326 C 7.501 0.406,7.493 0.551,7.493 1.097 L 7.493 1.769 7.153 1.435 C 6.966 1.252,6.775 1.082,6.728 1.057 C 6.555 0.968,6.257 1.021,6.128 1.165 C 6.064 1.235,6.000 1.397,6.000 1.486 C 6.001 1.706,6.030 1.744,6.777 2.495 L 7.494 3.217 7.487 3.974 L 7.480 4.731 6.463 5.341 L 5.445 5.951 4.809 5.585 C 4.460 5.383,4.154 5.199,4.130 5.176 C 4.106 5.152,4.014 4.858,3.921 4.507 C 3.556 3.122,3.552 3.111,3.353 3.010 C 3.125 2.894,2.840 2.967,2.700 3.178 C 2.596 3.336,2.606 3.491,2.752 4.020 C 2.819 4.258,2.868 4.453,2.863 4.453 C 2.857 4.453,2.628 4.323,2.353 4.164 C 2.078 4.005,1.803 3.849,1.741 3.817 C 1.407 3.647,1.012 3.879,1.014 4.246 C 1.015 4.373,1.086 4.550,1.163 4.617 C 1.191 4.641,1.469 4.808,1.781 4.988 C 2.093 5.168,2.339 5.323,2.328 5.333 C 2.316 5.343,2.110 5.403,1.871 5.467 C 1.631 5.530,1.397 5.607,1.351 5.638 C 1.049 5.842,1.051 6.266,1.355 6.470 C 1.527 6.587,1.568 6.581,2.591 6.308 C 3.115 6.168,3.561 6.053,3.584 6.053 C 3.607 6.053,3.932 6.230,4.306 6.446 L 4.987 6.839 4.987 8.002 L 4.987 9.166 4.293 9.565 L 3.599 9.964 2.673 9.714 C 1.715 9.455,1.541 9.426,1.396 9.502 C 1.296 9.555,1.184 9.675,1.148 9.768 C 1.058 10.008,1.187 10.318,1.413 10.405 C 1.470 10.427,1.854 10.533,2.263 10.640 L 2.379 10.670 1.796 11.005 C 1.476 11.189,1.191 11.359,1.163 11.383 C 1.135 11.407,1.090 11.475,1.063 11.533 C 0.962 11.753,1.025 12.005,1.218 12.152 C 1.304 12.218,1.339 12.227,1.505 12.227 L 1.693 12.227 2.276 11.887 C 2.596 11.700,2.862 11.547,2.866 11.547 C 2.869 11.547,2.821 11.736,2.759 11.967 C 2.696 12.198,2.636 12.431,2.626 12.485 C 2.606 12.597,2.647 12.749,2.729 12.860 C 2.858 13.034,3.177 13.094,3.365 12.980 C 3.560 12.860,3.561 12.859,3.921 11.493 C 4.012 11.149,4.100 10.852,4.117 10.835 C 4.133 10.817,4.439 10.634,4.796 10.428 L 5.445 10.053 6.469 10.668 L 7.493 11.283 7.493 12.033 L 7.493 12.784 6.776 13.505 C 6.026 14.260,6.000 14.295,6.001 14.520 C 6.002 14.727,6.178 14.934,6.394 14.982 C 6.632 15.036,6.724 14.985,7.153 14.564 L 7.493 14.231 7.494 14.909 C 7.494 15.511,7.500 15.599,7.544 15.693 C 7.730 16.096,8.270 16.096,8.456 15.693 C 8.500 15.599,8.506 15.511,8.506 14.909 L 8.507 14.231 8.847 14.564 C 9.199 14.910,9.258 14.955,9.409 14.989 C 9.527 15.015,9.743 14.958,9.831 14.877 C 9.918 14.797,9.999 14.625,9.999 14.520 C 10.000 14.295,9.974 14.260,9.224 13.505 L 8.507 12.784 8.507 12.033 L 8.507 11.283 9.531 10.668 L 10.555 10.053 11.204 10.428 C 11.561 10.634,11.867 10.817,11.883 10.835 C 11.900 10.852,12.023 11.280,12.158 11.786 C 12.293 12.291,12.422 12.745,12.445 12.794 C 12.496 12.900,12.615 12.994,12.755 13.039 C 12.943 13.100,13.192 12.999,13.304 12.818 C 13.405 12.654,13.400 12.559,13.259 12.033 C 13.188 11.766,13.132 11.547,13.135 11.547 C 13.137 11.547,13.402 11.699,13.723 11.886 L 14.307 12.226 14.495 12.226 C 14.661 12.227,14.696 12.218,14.782 12.152 C 15.027 11.965,15.054 11.574,14.836 11.383 C 14.809 11.359,14.526 11.190,14.207 11.007 L 13.626 10.673 13.940 10.589 C 14.664 10.394,14.734 10.359,14.830 10.148 C 14.925 9.938,14.864 9.698,14.680 9.558 C 14.494 9.416,14.385 9.429,13.327 9.714 L 12.401 9.964 11.707 9.565 L 11.013 9.166 11.013 8.002 L 11.013 6.839 11.694 6.446 C 12.068 6.230,12.393 6.053,12.416 6.053 C 12.439 6.053,12.885 6.168,13.409 6.308 C 14.456 6.588,14.474 6.590,14.668 6.450 C 14.862 6.309,14.928 6.067,14.830 5.852 C 14.735 5.643,14.645 5.598,13.973 5.424 C 13.819 5.384,13.684 5.343,13.672 5.333 C 13.661 5.323,13.889 5.179,14.179 5.013 C 14.811 4.652,14.865 4.614,14.934 4.480 C 15.102 4.150,14.863 3.760,14.493 3.760 C 14.350 3.760,14.315 3.777,13.647 4.164 C 13.372 4.323,13.143 4.453,13.137 4.453 C 13.132 4.453,13.180 4.261,13.244 4.025 C 13.406 3.428,13.407 3.415,13.324 3.247 C 13.236 3.068,13.111 2.981,12.920 2.966 C 12.751 2.952,12.576 3.022,12.489 3.140 C 12.418 3.237,12.388 3.333,12.132 4.307 C 12.005 4.786,11.895 5.151,11.870 5.176 C 11.846 5.199,11.540 5.383,11.191 5.585 L 10.555 5.951 9.537 5.341 L 8.520 4.731 8.513 3.974 L 8.506 3.217 9.223 2.495 C 9.970 1.744,9.999 1.706,10.000 1.486 C 10.000 1.397,9.936 1.235,9.872 1.165 C 9.743 1.021,9.445 0.968,9.272 1.057 C 9.225 1.082,9.034 1.252,8.847 1.435 L 8.507 1.769 8.506 1.091 C 8.506 0.489,8.500 0.401,8.456 0.307 C 8.336 0.045,8.051 -0.066,7.800 0.050 M9.023 6.200 L 10.000 6.786 10.000 8.003 L 10.000 9.219 9.016 9.810 C 8.474 10.134,8.017 10.400,8.000 10.400 C 7.983 10.400,7.526 10.134,6.984 9.810 L 6.000 9.219 6.000 8.003 L 6.000 6.787 6.980 6.195 C 7.519 5.870,7.979 5.606,8.003 5.608 C 8.026 5.611,8.485 5.877,9.023 6.200 M7.874 7.519 C 7.505 7.609,7.379 8.079,7.650 8.350 C 7.923 8.622,8.381 8.500,8.481 8.129 C 8.579 7.767,8.242 7.429,7.874 7.519 " stroke="none" fill-rule="evenodd"></path></svg>