<svg width="16" height="16" fill="currentColor" xmlns="http://www.w3.org/2000/svg"><path d="M7.800 0.050 C 7.671 0.110,7.590 0.194,7.535 0.326 C 7.501 0.406,7.493 0.551,7.493 1.097 L 7.493 1.769 7.153 1.435 C 6.966 1.252,6.775 1.082,6.728 1.057 C 6.555 0.968,6.257 1.021,6.128 1.165 C 6.064 1.235,6.000 1.397,6.000 1.486 C 6.001 1.706,6.030 1.744,6.776 2.495 L 7.493 3.216 7.493 5.168 C 7.493 6.242,7.489 7.120,7.483 7.120 C 7.459 7.120,4.147 5.199,4.119 5.168 C 4.101 5.149,4.012 4.851,3.921 4.507 C 3.556 3.121,3.552 3.111,3.353 3.010 C 3.125 2.894,2.840 2.967,2.700 3.178 C 2.596 3.336,2.606 3.491,2.752 4.020 C 2.819 4.258,2.868 4.453,2.863 4.453 C 2.857 4.453,2.628 4.323,2.353 4.164 C 2.078 4.005,1.803 3.849,1.741 3.817 C 1.611 3.751,1.426 3.743,1.299 3.797 C 1.013 3.919,0.917 4.312,1.115 4.556 C 1.160 4.612,1.392 4.763,1.749 4.969 C 2.058 5.147,2.311 5.305,2.310 5.320 C 2.310 5.335,2.126 5.396,1.901 5.457 C 1.397 5.593,1.352 5.611,1.254 5.723 C 0.998 6.015,1.170 6.469,1.566 6.542 C 1.627 6.554,1.918 6.487,2.602 6.304 C 3.125 6.165,3.575 6.054,3.602 6.059 C 3.654 6.067,6.984 7.978,6.985 8.000 C 6.985 8.007,6.223 8.452,5.292 8.988 L 3.599 9.964 2.673 9.714 C 1.615 9.429,1.506 9.416,1.320 9.558 C 1.208 9.643,1.121 9.810,1.121 9.941 C 1.119 10.112,1.238 10.309,1.391 10.389 C 1.452 10.420,1.733 10.501,2.263 10.640 L 2.379 10.670 1.796 11.005 C 1.476 11.189,1.191 11.359,1.163 11.383 C 1.135 11.407,1.090 11.475,1.063 11.533 C 0.962 11.753,1.025 12.005,1.218 12.152 C 1.304 12.218,1.339 12.227,1.505 12.227 L 1.693 12.227 2.276 11.887 C 2.596 11.700,2.862 11.547,2.866 11.547 C 2.869 11.547,2.821 11.736,2.759 11.967 C 2.696 12.198,2.636 12.431,2.626 12.485 C 2.606 12.597,2.647 12.749,2.729 12.860 C 2.858 13.034,3.177 13.094,3.365 12.980 C 3.563 12.859,3.555 12.878,3.869 11.693 C 3.989 11.239,4.101 10.852,4.117 10.835 C 4.133 10.817,4.897 10.370,5.813 9.841 L 7.480 8.879 7.487 10.831 L 7.494 12.783 6.777 13.505 C 6.026 14.260,6.000 14.295,6.001 14.520 C 6.002 14.727,6.178 14.934,6.394 14.982 C 6.632 15.036,6.724 14.985,7.153 14.564 L 7.493 14.231 7.494 14.909 C 7.494 15.511,7.500 15.599,7.544 15.693 C 7.603 15.822,7.688 15.904,7.820 15.959 C 8.083 16.069,8.401 15.912,8.479 15.633 C 8.494 15.577,8.506 15.248,8.507 14.882 L 8.507 14.231 8.847 14.564 C 9.276 14.985,9.368 15.036,9.606 14.982 C 9.822 14.934,9.998 14.727,9.999 14.520 C 10.000 14.295,9.974 14.260,9.223 13.505 L 8.506 12.783 8.513 10.831 L 8.520 8.879 10.187 9.841 C 11.103 10.370,11.865 10.815,11.880 10.829 C 11.894 10.843,12.022 11.287,12.163 11.814 C 12.358 12.540,12.437 12.795,12.489 12.863 C 12.684 13.119,13.091 13.110,13.282 12.847 C 13.408 12.673,13.405 12.581,13.259 12.033 C 13.188 11.766,13.132 11.547,13.135 11.547 C 13.139 11.547,13.404 11.700,13.724 11.887 L 14.307 12.227 14.495 12.227 C 14.661 12.227,14.696 12.218,14.782 12.152 C 14.975 12.005,15.038 11.753,14.937 11.533 C 14.910 11.475,14.865 11.407,14.837 11.383 C 14.809 11.359,14.524 11.189,14.204 11.005 L 13.621 10.670 13.737 10.640 C 14.267 10.501,14.548 10.420,14.609 10.389 C 14.762 10.309,14.881 10.112,14.879 9.941 C 14.879 9.810,14.792 9.643,14.680 9.558 C 14.496 9.418,14.401 9.429,13.370 9.704 C 12.870 9.837,12.441 9.947,12.416 9.947 C 12.370 9.947,9.014 8.025,9.015 8.000 C 9.016 7.978,12.346 6.067,12.398 6.059 C 12.425 6.054,12.877 6.166,13.403 6.306 C 14.457 6.588,14.474 6.590,14.668 6.450 C 14.862 6.309,14.928 6.067,14.830 5.852 C 14.735 5.643,14.645 5.598,13.973 5.424 C 13.819 5.384,13.684 5.343,13.672 5.333 C 13.661 5.323,13.889 5.179,14.179 5.013 C 14.811 4.652,14.865 4.614,14.934 4.480 C 15.102 4.150,14.863 3.760,14.493 3.760 C 14.350 3.760,14.315 3.777,13.647 4.164 C 13.372 4.323,13.143 4.453,13.137 4.453 C 13.132 4.453,13.180 4.261,13.244 4.025 C 13.406 3.428,13.407 3.415,13.324 3.247 C 13.236 3.068,13.111 2.981,12.920 2.966 C 12.751 2.952,12.576 3.022,12.489 3.140 C 12.418 3.236,12.390 3.329,12.131 4.307 C 12.010 4.761,11.898 5.149,11.881 5.167 C 11.854 5.197,8.542 7.120,8.517 7.120 C 8.511 7.120,8.507 6.242,8.507 5.168 L 8.507 3.216 9.224 2.495 C 9.970 1.744,9.999 1.706,10.000 1.486 C 10.000 1.397,9.936 1.235,9.872 1.165 C 9.743 1.021,9.445 0.968,9.272 1.057 C 9.225 1.082,9.034 1.252,8.847 1.435 L 8.507 1.769 8.506 1.091 C 8.506 0.489,8.500 0.401,8.456 0.307 C 8.336 0.045,8.051 -0.066,7.800 0.050 " stroke="none" fill-rule="evenodd"></path></svg>