<svg width="16" height="16" fill="currentColor" xmlns="http://www.w3.org/2000/svg"><path d="M11.053 1.591 C 10.638 1.656,10.281 1.828,9.999 2.097 C 9.826 2.263,9.769 2.340,9.669 2.542 C 9.510 2.866,9.454 3.144,9.475 3.506 C 9.505 4.018,9.636 4.330,9.959 4.656 C 10.296 4.996,10.671 5.147,11.185 5.147 C 11.489 5.147,11.707 5.098,11.931 4.978 C 12.116 4.880,12.325 4.678,12.392 4.531 C 12.419 4.475,12.457 4.428,12.477 4.427 C 12.508 4.427,12.512 4.478,12.499 4.713 C 12.478 5.106,12.416 5.387,12.292 5.643 C 12.167 5.905,12.000 6.085,11.793 6.182 C 11.659 6.245,11.607 6.253,11.373 6.253 C 11.151 6.253,11.084 6.243,10.967 6.190 C 10.824 6.125,10.613 5.926,10.613 5.854 C 10.613 5.819,10.542 5.813,10.103 5.813 L 9.593 5.813 9.611 5.927 C 9.637 6.098,9.790 6.396,9.930 6.551 C 10.244 6.899,10.756 7.094,11.356 7.093 C 12.431 7.092,13.095 6.553,13.373 5.455 C 13.462 5.107,13.496 4.769,13.496 4.253 C 13.496 3.709,13.445 3.322,13.321 2.942 C 13.206 2.587,13.075 2.357,12.853 2.123 C 12.641 1.901,12.416 1.759,12.120 1.662 C 11.937 1.602,11.852 1.592,11.520 1.585 C 11.307 1.581,11.097 1.584,11.053 1.591 M3.800 2.051 C 3.729 2.084,3.335 2.461,2.622 3.177 C 1.438 4.367,1.448 4.354,1.515 4.604 C 1.559 4.769,1.615 4.844,1.751 4.924 C 1.892 5.006,2.079 5.016,2.215 4.947 C 2.266 4.921,2.574 4.635,2.900 4.311 L 3.493 3.722 3.493 8.648 C 3.493 13.035,3.498 13.586,3.535 13.674 C 3.713 14.101,4.287 14.101,4.465 13.674 C 4.502 13.586,4.507 13.035,4.507 8.648 L 4.507 3.722 5.100 4.311 C 5.426 4.635,5.734 4.921,5.785 4.947 C 5.921 5.016,6.108 5.006,6.249 4.924 C 6.385 4.844,6.441 4.769,6.485 4.604 C 6.552 4.354,6.562 4.367,5.378 3.177 C 4.281 2.075,4.194 2.001,4.000 2.001 C 3.949 2.001,3.859 2.024,3.800 2.051 M11.622 2.412 C 11.885 2.448,12.129 2.643,12.259 2.920 C 12.327 3.066,12.333 3.107,12.333 3.387 C 12.333 3.664,12.326 3.708,12.262 3.846 C 12.084 4.225,11.657 4.433,11.235 4.346 C 10.822 4.261,10.568 3.989,10.510 3.569 C 10.440 3.071,10.650 2.623,11.029 2.464 C 11.142 2.416,11.367 2.377,11.453 2.389 C 11.483 2.393,11.559 2.404,11.622 2.412 M10.797 9.095 C 10.469 9.330,10.185 9.538,10.166 9.556 C 10.140 9.582,10.134 9.707,10.139 10.060 L 10.147 10.530 10.746 10.105 C 11.076 9.871,11.355 9.680,11.366 9.680 C 11.377 9.680,11.387 10.652,11.387 11.840 L 11.387 14.000 11.920 14.000 L 12.453 14.000 12.453 11.333 L 12.453 8.667 11.923 8.667 L 11.393 8.667 10.797 9.095 " stroke="none" fill-rule="evenodd"></path></svg>