<svg width="16" height="16" fill="currentColor" xmlns="http://www.w3.org/2000/svg"><path d="M9.498 4.317 C 9.011 5.768,8.613 6.968,8.613 6.984 C 8.613 7.006,8.763 7.012,9.139 7.007 L 9.665 7.000 9.819 6.493 C 9.904 6.215,9.998 5.906,10.028 5.807 L 10.082 5.627 10.973 5.627 L 11.864 5.627 11.922 5.820 C 11.954 5.926,12.048 6.235,12.131 6.507 L 12.283 7.000 12.838 7.007 L 13.393 7.014 13.381 6.950 C 13.374 6.914,12.975 5.714,12.494 4.282 L 11.620 1.680 11.001 1.680 L 10.382 1.680 9.498 4.317 M3.800 2.050 C 3.671 2.110,3.590 2.194,3.535 2.326 C 3.498 2.414,3.493 2.965,3.493 7.352 L 3.493 12.278 2.900 11.689 C 2.574 11.365,2.268 11.080,2.221 11.056 C 2.174 11.033,2.073 11.013,1.997 11.013 C 1.746 11.013,1.544 11.184,1.505 11.432 C 1.468 11.660,1.475 11.668,2.623 12.823 C 3.719 13.925,3.806 13.999,4.000 13.999 C 4.194 13.999,4.281 13.925,5.377 12.823 C 6.509 11.685,6.532 11.657,6.498 11.452 C 6.455 11.187,6.261 11.013,6.007 11.013 C 5.928 11.013,5.826 11.033,5.779 11.056 C 5.732 11.080,5.426 11.365,5.100 11.689 L 4.507 12.278 4.506 7.346 C 4.506 2.607,4.504 2.409,4.456 2.307 C 4.336 2.045,4.051 1.934,3.800 2.050 M11.326 3.766 C 11.504 4.356,11.646 4.843,11.642 4.847 C 11.638 4.851,11.335 4.851,10.969 4.847 L 10.303 4.840 10.613 3.813 C 10.959 2.667,10.950 2.693,10.980 2.693 C 10.992 2.693,11.148 3.176,11.326 3.766 M9.099 9.100 L 9.107 9.533 10.353 9.540 C 11.117 9.545,11.600 9.557,11.600 9.572 C 11.600 9.586,11.018 10.437,10.307 11.463 L 9.013 13.328 9.013 13.664 L 9.013 14.000 10.987 14.000 L 12.960 14.000 12.960 13.573 L 12.960 13.147 11.637 13.147 C 10.351 13.147,10.314 13.145,10.327 13.096 C 10.334 13.068,10.912 12.217,11.610 11.205 L 12.880 9.364 12.880 9.016 L 12.880 8.667 10.986 8.667 L 9.092 8.667 9.099 9.100 " stroke="none" fill-rule="evenodd"></path></svg>