<svg width="16" height="16" fill="currentColor" xmlns="http://www.w3.org/2000/svg"><path d="M3.669 0.028 C 2.991 0.143,2.371 0.651,2.135 1.283 C 1.994 1.659,2.001 1.324,2.000 7.994 C 2.000 14.784,1.990 14.361,2.156 14.767 C 2.347 15.238,2.762 15.653,3.233 15.844 C 3.633 16.007,3.415 16.000,8.000 16.000 C 12.584 16.000,12.367 16.007,12.766 15.845 C 13.233 15.654,13.654 15.233,13.845 14.766 C 14.010 14.361,14.000 14.782,14.000 8.000 C 14.000 1.217,14.010 1.639,13.844 1.233 C 13.666 0.795,13.309 0.422,12.864 0.208 C 12.426 -0.003,12.861 0.015,8.080 0.010 C 5.726 0.008,3.741 0.016,3.669 0.028 M12.430 1.100 C 12.608 1.188,12.833 1.416,12.915 1.593 L 12.973 1.720 12.980 7.946 C 12.988 14.846,13.001 14.319,12.811 14.576 C 12.691 14.738,12.526 14.866,12.341 14.942 L 12.200 15.000 8.000 15.000 L 3.800 15.000 3.659 14.942 C 3.381 14.828,3.152 14.596,3.063 14.338 C 3.018 14.207,3.015 13.881,3.015 8.000 C 3.015 2.119,3.018 1.793,3.063 1.662 C 3.154 1.399,3.399 1.154,3.662 1.062 C 3.793 1.017,4.025 1.015,8.040 1.021 L 12.280 1.027 12.430 1.100 M7.669 2.026 C 7.219 2.108,6.771 2.367,6.469 2.720 C 5.991 3.278,5.871 4.067,6.156 4.767 C 6.347 5.238,6.762 5.653,7.233 5.844 C 7.993 6.153,8.834 5.986,9.410 5.410 C 10.159 4.661,10.197 3.475,9.497 2.680 C 9.265 2.416,8.851 2.160,8.504 2.065 C 8.327 2.016,7.847 1.994,7.669 2.026 M8.255 3.298 C 8.431 3.358,8.642 3.569,8.702 3.745 C 8.795 4.019,8.739 4.287,8.543 4.505 C 8.254 4.827,7.746 4.827,7.457 4.505 C 7.176 4.192,7.185 3.772,7.479 3.478 C 7.692 3.264,7.969 3.200,8.255 3.298 M7.390 7.056 C 6.685 7.174,5.995 7.546,5.476 8.087 C 5.213 8.362,5.046 8.594,4.882 8.916 C 4.633 9.405,4.507 9.936,4.507 10.490 C 4.507 11.866,5.275 13.078,6.520 13.669 C 8.198 14.466,10.246 13.770,11.101 12.114 C 11.531 11.283,11.612 10.322,11.329 9.430 C 10.940 8.203,9.850 7.260,8.586 7.054 C 8.276 7.004,7.695 7.005,7.390 7.056 M8.386 9.054 C 8.631 9.118,8.849 9.248,9.056 9.453 C 9.528 9.920,9.629 10.608,9.313 11.211 C 9.066 11.682,8.537 12.000,8.000 12.000 C 7.769 12.000,7.587 11.955,7.338 11.836 C 6.734 11.547,6.397 10.852,6.536 10.181 C 6.642 9.671,7.095 9.192,7.603 9.055 C 7.795 9.004,8.190 9.003,8.386 9.054 " stroke="none" fill-rule="evenodd"></path></svg>