<svg width="16" height="16" fill="currentColor" xmlns="http://www.w3.org/2000/svg"><path d="M7.693 2.018 C 5.877 2.096,4.153 2.769,2.815 3.921 C 1.264 5.255,0.305 7.049,0.048 9.093 C 0.027 9.264,0.014 9.640,0.015 10.053 C 0.016 10.620,0.027 10.798,0.076 11.120 C 0.180 11.787,0.393 12.574,0.560 12.907 C 0.825 13.433,1.301 13.798,1.935 13.963 C 2.157 14.020,2.259 14.031,2.560 14.031 C 2.960 14.031,3.068 14.008,3.955 13.737 C 5.510 13.261,6.892 13.014,8.000 13.014 C 9.108 13.014,10.490 13.261,12.045 13.737 C 12.932 14.008,13.040 14.031,13.440 14.031 C 13.741 14.031,13.843 14.020,14.065 13.963 C 14.563 13.834,14.975 13.574,15.238 13.224 C 15.412 12.992,15.495 12.819,15.622 12.423 C 16.026 11.158,16.106 9.781,15.852 8.478 C 15.605 7.214,15.035 5.991,14.217 4.973 C 14.013 4.719,13.447 4.142,13.187 3.921 C 11.774 2.725,10.070 2.074,8.213 2.019 C 8.030 2.014,7.796 2.013,7.693 2.018 M9.120 3.091 C 10.594 3.343,11.920 4.023,12.947 5.053 C 13.790 5.898,14.428 6.986,14.737 8.105 C 14.906 8.719,14.965 9.136,14.980 9.841 C 14.990 10.334,14.983 10.547,14.948 10.828 C 14.877 11.400,14.687 12.179,14.556 12.435 C 14.467 12.610,14.248 12.820,14.069 12.904 C 13.658 13.097,13.331 13.089,12.627 12.868 C 11.348 12.468,10.138 12.196,9.040 12.063 C 8.509 11.999,7.491 11.999,6.960 12.063 C 5.862 12.196,4.652 12.468,3.373 12.868 C 2.669 13.089,2.342 13.097,1.931 12.904 C 1.752 12.820,1.533 12.610,1.444 12.435 C 1.313 12.179,1.123 11.400,1.052 10.828 C 0.985 10.294,1.009 9.355,1.102 8.827 C 1.281 7.816,1.622 6.960,2.177 6.125 C 2.706 5.331,3.304 4.729,4.093 4.200 C 4.954 3.623,5.889 3.252,6.880 3.095 C 7.362 3.019,7.363 3.019,8.107 3.027 C 8.655 3.033,8.851 3.045,9.120 3.091 M7.800 4.050 C 7.671 4.110,7.590 4.194,7.535 4.326 C 7.500 4.408,7.493 4.564,7.493 5.232 C 7.494 5.706,7.505 6.081,7.521 6.139 C 7.593 6.399,7.868 6.552,8.135 6.480 C 8.281 6.440,8.438 6.288,8.477 6.146 C 8.495 6.079,8.506 5.740,8.506 5.227 C 8.506 4.493,8.501 4.403,8.456 4.307 C 8.336 4.045,8.051 3.934,7.800 4.050 M3.822 5.670 C 3.636 5.791,3.553 5.999,3.605 6.213 C 3.631 6.319,3.697 6.397,4.157 6.862 C 4.445 7.153,4.725 7.414,4.779 7.442 C 4.959 7.535,5.236 7.488,5.363 7.343 C 5.494 7.194,5.532 6.955,5.451 6.792 C 5.392 6.674,4.436 5.715,4.314 5.651 C 4.166 5.574,3.958 5.582,3.822 5.670 M11.744 5.730 C 11.576 5.854,7.681 9.191,7.515 9.354 C 7.306 9.558,7.242 9.709,7.241 10.000 C 7.240 10.204,7.249 10.246,7.328 10.406 C 7.481 10.717,7.738 10.886,8.086 10.902 C 8.319 10.914,8.480 10.871,8.651 10.753 C 8.761 10.677,12.235 6.362,12.328 6.187 C 12.509 5.842,12.065 5.494,11.744 5.730 M2.440 9.506 C 2.425 9.511,2.381 9.522,2.342 9.531 C 2.239 9.554,2.106 9.675,2.050 9.799 C 1.932 10.059,2.053 10.351,2.326 10.465 C 2.473 10.527,4.114 10.527,4.260 10.465 C 4.392 10.410,4.477 10.329,4.536 10.200 C 4.646 9.961,4.549 9.684,4.307 9.551 C 4.237 9.513,4.109 9.506,3.347 9.501 C 2.863 9.498,2.455 9.500,2.440 9.506 M11.874 9.518 C 11.690 9.564,11.544 9.725,11.507 9.923 C 11.465 10.147,11.633 10.416,11.854 10.477 C 11.921 10.495,12.261 10.506,12.768 10.507 C 13.632 10.507,13.691 10.499,13.836 10.365 C 13.920 10.288,13.999 10.115,13.999 10.006 C 14.000 9.898,13.937 9.742,13.859 9.658 C 13.720 9.509,13.707 9.507,12.800 9.502 C 12.338 9.499,11.921 9.507,11.874 9.518 " stroke="none" fill-rule="evenodd"></path></svg>