<svg width="16" height="16" fill="currentColor" xmlns="http://www.w3.org/2000/svg"><path d="M7.467 0.017 C 5.118 0.192,3.024 1.327,1.608 3.193 C 0.799 4.260,0.296 5.477,0.073 6.906 C -0.009 7.429,-0.009 8.571,0.073 9.094 C 0.415 11.288,1.476 13.089,3.195 14.393 C 4.257 15.199,5.481 15.705,6.906 15.927 C 7.429 16.009,8.571 16.009,9.094 15.927 C 11.038 15.624,12.690 14.748,13.930 13.362 C 15.030 12.133,15.665 10.775,15.927 9.094 C 16.009 8.571,16.009 7.429,15.927 6.906 C 15.705 5.481,15.199 4.257,14.393 3.195 C 13.070 1.452,11.180 0.355,9.000 0.066 C 8.688 0.025,7.760 -0.005,7.467 0.017 M8.366 4.304 C 9.734 4.439,10.874 4.687,11.960 5.084 C 12.442 5.260,13.435 5.745,13.594 5.881 C 13.858 6.108,13.931 6.478,13.773 6.787 C 13.676 6.977,13.523 7.102,13.314 7.163 C 13.103 7.224,12.938 7.199,12.693 7.066 C 12.375 6.893,11.874 6.655,11.613 6.553 C 9.330 5.656,6.044 5.472,3.655 6.109 C 3.488 6.153,3.295 6.190,3.227 6.191 C 2.706 6.195,2.353 5.690,2.524 5.186 C 2.585 5.009,2.772 4.824,2.965 4.752 C 3.485 4.558,4.687 4.347,5.720 4.268 C 6.186 4.233,7.880 4.256,8.366 4.304 M7.427 7.014 C 8.665 7.097,9.800 7.335,10.853 7.734 C 11.421 7.948,12.224 8.345,12.475 8.534 C 12.694 8.700,12.779 8.933,12.712 9.188 C 12.664 9.373,12.556 9.505,12.384 9.589 C 12.265 9.647,12.213 9.658,12.085 9.649 C 11.954 9.639,11.875 9.607,11.559 9.433 C 11.354 9.321,11.055 9.171,10.893 9.099 C 8.901 8.215,6.311 7.997,4.189 8.536 C 3.709 8.658,3.585 8.664,3.395 8.575 C 2.976 8.380,2.937 7.764,3.327 7.508 C 3.506 7.391,4.461 7.171,5.187 7.081 C 5.914 6.990,6.711 6.966,7.427 7.014 M7.560 9.628 C 8.624 9.706,9.656 9.959,10.572 10.364 C 10.932 10.523,11.494 10.835,11.586 10.926 C 11.728 11.067,11.774 11.292,11.697 11.475 C 11.619 11.662,11.353 11.811,11.164 11.773 C 11.118 11.763,10.978 11.698,10.853 11.627 C 8.955 10.553,6.832 10.332,4.028 10.915 C 3.825 10.957,3.690 10.939,3.562 10.851 C 3.290 10.664,3.293 10.222,3.567 10.037 C 3.745 9.917,5.006 9.697,5.893 9.630 C 6.338 9.597,7.129 9.596,7.560 9.628 " stroke="none" fill-rule="evenodd"></path></svg>