<svg width="16" height="16" fill="currentColor" xmlns="http://www.w3.org/2000/svg"><path d="M1.669 0.028 C 0.992 0.142,0.371 0.651,0.135 1.283 C -0.006 1.659,0.001 1.324,0.000 7.994 C -0.000 14.784,-0.010 14.361,0.156 14.767 C 0.347 15.238,0.762 15.653,1.233 15.844 C 1.639 16.010,1.217 16.000,8.000 16.000 C 14.782 16.000,14.361 16.010,14.766 15.845 C 15.233 15.654,15.654 15.233,15.845 14.766 C 16.010 14.361,16.000 14.782,16.000 8.000 C 16.000 1.217,16.010 1.639,15.844 1.233 C 15.666 0.795,15.309 0.422,14.864 0.208 C 14.422 -0.005,15.102 0.015,8.080 0.010 C 4.626 0.008,1.741 0.016,1.669 0.028 M14.430 1.100 C 14.608 1.188,14.833 1.416,14.915 1.593 L 14.973 1.720 14.980 7.946 C 14.988 14.846,15.001 14.319,14.811 14.576 C 14.691 14.738,14.526 14.866,14.341 14.942 L 14.200 15.000 11.100 15.007 L 8.000 15.015 8.000 8.014 L 8.000 1.012 11.140 1.020 L 14.280 1.027 14.430 1.100 " stroke="none" fill-rule="evenodd"></path></svg>