<svg width="16" height="16" fill="currentColor" xmlns="http://www.w3.org/2000/svg"><path d="M9.687 0.421 C 9.376 0.651,9.126 0.853,9.132 0.869 C 9.137 0.886,10.093 2.177,11.255 3.739 L 13.367 6.580 13.890 6.193 C 14.178 5.981,14.435 5.787,14.460 5.762 C 14.505 5.720,14.395 5.567,12.397 2.879 C 11.237 1.317,10.279 0.031,10.270 0.021 C 10.260 0.010,9.998 0.190,9.687 0.421 M7.186 2.804 C 6.952 3.085,6.751 3.330,6.740 3.349 C 6.726 3.372,7.567 4.087,9.420 5.629 C 10.905 6.865,12.138 7.891,12.160 7.909 C 12.194 7.938,12.266 7.864,12.640 7.413 C 12.882 7.122,13.080 6.870,13.080 6.853 C 13.080 6.825,7.661 2.293,7.627 2.293 C 7.619 2.293,7.421 2.523,7.186 2.804 M5.459 5.393 C 5.424 5.470,5.289 5.759,5.161 6.036 C 5.033 6.312,4.938 6.547,4.950 6.558 C 4.983 6.587,11.349 9.547,11.378 9.547 C 11.391 9.547,11.534 9.262,11.697 8.913 L 11.992 8.280 11.906 8.234 C 11.858 8.209,10.411 7.533,8.690 6.731 C 6.968 5.930,5.552 5.269,5.542 5.263 C 5.532 5.258,5.495 5.316,5.459 5.393 M4.281 8.540 C 4.247 8.647,4.001 9.877,4.012 9.888 C 4.030 9.906,10.965 11.364,10.977 11.352 C 11.000 11.329,11.273 9.985,11.257 9.971 C 11.242 9.957,4.362 8.507,4.312 8.507 C 4.301 8.507,4.287 8.522,4.281 8.540 M0.987 13.147 L 0.987 16.000 7.413 16.000 L 13.840 16.000 13.840 13.147 L 13.840 10.293 13.120 10.293 L 12.400 10.293 12.400 12.440 L 12.400 14.587 7.413 14.587 L 2.427 14.587 2.427 12.440 L 2.427 10.293 1.707 10.293 L 0.987 10.293 0.987 13.147 M3.867 12.440 L 3.867 13.147 7.427 13.147 L 10.987 13.147 10.987 12.440 L 10.987 11.733 7.427 11.733 L 3.867 11.733 3.867 12.440 " stroke="none" fill-rule="evenodd"></path></svg>