<svg width="16" height="16" fill="currentColor" xmlns="http://www.w3.org/2000/svg"><path d="M7.766 0.563 C 7.704 0.594,7.630 0.651,7.603 0.690 C 7.575 0.728,7.060 1.736,6.458 2.929 C 5.857 4.122,5.358 5.104,5.351 5.111 C 5.344 5.118,4.215 5.284,2.842 5.479 C 0.472 5.816,0.339 5.838,0.237 5.906 C 0.019 6.050,-0.059 6.382,0.069 6.623 C 0.098 6.676,0.897 7.458,1.900 8.413 C 2.913 9.377,3.680 10.128,3.680 10.154 C 3.680 10.179,3.492 11.273,3.262 12.584 C 2.871 14.815,2.846 14.975,2.877 15.090 C 2.921 15.255,3.014 15.369,3.161 15.440 C 3.408 15.560,3.327 15.594,5.769 14.337 C 6.985 13.712,7.989 13.200,8.002 13.200 C 8.015 13.200,9.018 13.712,10.232 14.337 C 12.206 15.354,12.456 15.476,12.589 15.487 C 12.848 15.508,13.052 15.356,13.124 15.087 C 13.156 14.967,13.135 14.832,12.738 12.567 C 12.507 11.250,12.319 10.159,12.319 10.141 C 12.320 10.123,13.121 9.346,14.100 8.414 C 15.289 7.281,15.900 6.682,15.941 6.606 C 15.991 6.514,16.000 6.463,15.991 6.328 C 15.978 6.131,15.906 6.000,15.757 5.902 C 15.662 5.838,15.480 5.809,13.157 5.477 C 11.783 5.281,10.656 5.118,10.652 5.114 C 10.648 5.110,10.152 4.131,9.550 2.939 C 8.948 1.746,8.431 0.736,8.401 0.694 C 8.276 0.519,7.979 0.458,7.766 0.563 M8.933 4.073 C 9.439 5.080,9.889 5.945,9.933 5.996 C 9.977 6.047,10.053 6.105,10.103 6.126 C 10.152 6.146,11.104 6.293,12.217 6.451 C 13.331 6.610,14.248 6.746,14.255 6.753 C 14.262 6.760,13.659 7.347,12.914 8.056 C 11.148 9.739,11.291 9.592,11.242 9.763 L 11.201 9.907 11.557 11.933 C 11.753 13.048,11.912 13.962,11.909 13.966 C 11.907 13.969,11.059 13.537,10.026 13.006 C 8.226 12.081,8.140 12.040,8.000 12.040 C 7.859 12.040,7.774 12.081,5.975 13.006 C 4.942 13.537,4.094 13.969,4.092 13.966 C 4.090 13.963,4.248 13.048,4.444 11.934 L 4.800 9.907 4.758 9.763 C 4.708 9.591,4.843 9.728,3.070 8.040 C 1.767 6.799,1.728 6.760,1.803 6.740 C 1.845 6.729,2.732 6.600,3.773 6.453 C 4.815 6.306,5.725 6.172,5.797 6.156 C 6.050 6.098,6.039 6.117,7.055 4.096 C 7.567 3.076,7.993 2.241,8.000 2.241 C 8.007 2.241,8.427 3.065,8.933 4.073 " stroke="none" fill-rule="evenodd"></path></svg>