<svg width="16" height="16" fill="currentColor" xmlns="http://www.w3.org/2000/svg"><path d="M7.308 0.030 C 5.002 0.219,2.869 1.431,1.488 3.336 C 0.849 4.217,0.377 5.286,0.150 6.361 C 0.063 6.776,-0.017 7.433,0.015 7.466 C 0.029 7.479,0.999 7.884,2.171 8.366 L 4.302 9.241 4.518 9.129 C 4.793 8.986,5.068 8.910,5.380 8.889 L 5.627 8.872 6.593 7.470 L 7.559 6.068 7.593 5.747 C 7.637 5.330,7.727 5.015,7.905 4.653 C 8.339 3.770,9.141 3.169,10.105 3.003 C 10.746 2.893,11.404 2.991,11.983 3.283 C 12.303 3.445,12.496 3.585,12.763 3.851 C 13.160 4.246,13.417 4.694,13.567 5.249 C 13.630 5.483,13.637 5.552,13.637 6.000 C 13.637 6.449,13.630 6.517,13.566 6.754 C 13.484 7.058,13.310 7.439,13.128 7.713 C 12.874 8.096,12.411 8.501,11.979 8.717 C 11.619 8.899,11.063 9.040,10.713 9.040 L 10.553 9.040 9.143 10.046 L 7.733 11.053 7.733 11.226 C 7.732 11.848,7.337 12.552,6.777 12.931 C 5.559 13.755,3.878 13.188,3.426 11.801 L 3.354 11.579 1.884 10.973 C 1.075 10.640,0.398 10.362,0.380 10.354 C 0.328 10.334,0.338 10.377,0.469 10.740 C 1.052 12.360,2.245 13.839,3.712 14.762 C 4.684 15.373,5.755 15.759,6.973 15.937 C 7.431 16.004,8.551 16.005,9.013 15.938 C 10.815 15.678,12.359 14.926,13.600 13.703 C 14.892 12.431,15.662 10.890,15.937 9.027 C 16.004 8.574,16.004 7.426,15.937 6.973 C 15.666 5.134,14.914 3.613,13.656 2.355 C 13.015 1.715,12.365 1.248,11.533 0.831 C 10.258 0.192,8.771 -0.090,7.308 0.030 M10.213 4.013 C 9.445 4.186,8.878 4.724,8.661 5.486 C 8.586 5.751,8.581 6.217,8.651 6.480 C 8.879 7.341,9.632 7.965,10.507 8.018 C 11.656 8.088,12.641 7.157,12.640 6.002 C 12.638 5.105,12.077 4.343,11.213 4.064 C 10.943 3.977,10.479 3.953,10.213 4.013 M10.999 4.521 C 11.249 4.586,11.515 4.741,11.707 4.933 C 11.990 5.216,12.133 5.574,12.133 5.995 C 12.133 6.432,12.000 6.749,11.681 7.068 C 11.541 7.207,11.425 7.295,11.301 7.356 C 10.465 7.761,9.489 7.356,9.182 6.477 C 9.090 6.215,9.085 5.810,9.170 5.547 C 9.330 5.048,9.762 4.636,10.246 4.519 C 10.442 4.471,10.812 4.472,10.999 4.521 M5.280 9.405 C 5.243 9.411,5.148 9.435,5.068 9.457 L 4.922 9.498 5.481 9.731 C 6.109 9.992,6.201 10.043,6.378 10.233 C 6.845 10.733,6.831 11.485,6.345 11.977 C 6.025 12.301,5.542 12.426,5.116 12.294 C 5.023 12.265,4.743 12.157,4.495 12.054 C 4.246 11.950,4.032 11.869,4.019 11.874 C 3.975 11.888,4.217 12.212,4.393 12.373 C 4.782 12.729,5.304 12.870,5.827 12.760 C 6.326 12.654,6.791 12.292,7.008 11.840 C 7.121 11.605,7.200 11.291,7.200 11.080 C 7.200 11.013,7.182 10.865,7.159 10.752 C 7.030 10.103,6.504 9.558,5.880 9.427 C 5.705 9.390,5.430 9.380,5.280 9.405 " stroke="none" fill-rule="evenodd"></path></svg>