<svg width="16" height="16" fill="currentColor" xmlns="http://www.w3.org/2000/svg"><path d="M1.182 0.040 C 0.668 0.152,0.250 0.527,0.075 1.035 L 0.013 1.213 0.013 7.227 L 0.013 13.240 0.088 13.400 C 0.233 13.712,0.557 13.953,0.879 13.992 L 1.013 14.007 1.013 7.682 C 1.013 3.058,1.021 1.341,1.043 1.298 C 1.060 1.266,1.105 1.206,1.143 1.164 C 1.294 1.002,0.784 1.013,7.682 1.013 L 14.007 1.013 13.992 0.879 C 13.953 0.557,13.712 0.233,13.400 0.088 L 13.240 0.013 7.293 0.009 C 2.388 0.005,1.318 0.010,1.182 0.040 M3.182 2.040 C 2.668 2.152,2.250 2.527,2.075 3.035 L 2.013 3.213 2.013 9.000 L 2.013 14.787 2.075 14.965 C 2.226 15.403,2.576 15.758,3.021 15.924 L 3.187 15.987 6.465 15.994 C 9.665 16.001,9.748 16.000,9.954 15.948 C 10.070 15.919,10.232 15.857,10.315 15.811 C 10.536 15.688,15.688 10.536,15.811 10.315 C 15.857 10.232,15.919 10.070,15.948 9.954 C 16.000 9.748,16.001 9.665,15.994 6.465 L 15.987 3.187 15.924 3.021 C 15.758 2.577,15.397 2.221,14.962 2.073 L 14.787 2.013 9.067 2.009 C 4.349 2.005,3.318 2.010,3.182 2.040 M14.983 9.523 C 15.089 9.560,15.157 9.682,15.136 9.797 C 15.123 9.864,14.593 10.407,12.486 12.514 C 9.648 15.352,9.812 15.203,9.626 15.107 C 9.575 15.080,9.539 15.033,9.519 14.967 C 9.499 14.896,9.493 14.183,9.498 12.573 L 9.507 10.280 9.590 10.103 C 9.636 10.006,9.717 9.879,9.770 9.821 C 9.886 9.692,10.145 9.549,10.315 9.521 C 10.520 9.486,14.884 9.488,14.983 9.523 " stroke="none" fill-rule="evenodd"></path></svg>