<svg width="16" height="16" fill="currentColor" xmlns="http://www.w3.org/2000/svg"><path d="M2.110 1.055 C 1.775 1.146,1.437 1.393,1.238 1.693 C 1.189 1.767,1.116 1.923,1.075 2.040 L 1.000 2.253 1.000 8.000 L 1.000 13.747 1.074 13.955 C 1.245 14.439,1.561 14.755,2.045 14.926 L 2.253 15.000 5.533 15.000 C 8.642 15.000,8.822 14.997,8.973 14.951 C 9.371 14.829,9.258 14.932,12.071 12.125 C 14.862 9.339,14.818 9.386,14.941 9.000 L 15.000 8.813 15.000 5.533 L 15.000 2.253 14.926 2.045 C 14.791 1.662,14.539 1.359,14.211 1.188 C 13.854 1.000,14.336 1.013,7.988 1.015 C 3.073 1.017,2.233 1.022,2.110 1.055 M13.674 2.041 C 13.806 2.096,13.890 2.178,13.950 2.307 C 13.996 2.408,13.999 2.548,13.999 5.206 L 14.000 7.998 11.607 8.006 L 9.213 8.013 9.038 8.073 C 8.603 8.221,8.241 8.577,8.076 9.021 L 8.014 9.187 8.006 11.593 L 7.998 14.000 5.219 14.000 C 3.478 14.000,2.405 13.990,2.345 13.973 C 2.232 13.942,2.098 13.810,2.041 13.674 C 2.004 13.586,2.000 12.976,2.000 8.000 C 2.000 3.028,2.004 2.414,2.041 2.326 C 2.096 2.194,2.178 2.110,2.307 2.050 C 2.409 2.003,2.625 2.001,7.994 2.001 C 12.972 2.000,13.586 2.004,13.674 2.041 M11.400 11.387 L 9.027 13.760 9.019 11.580 C 9.015 10.381,9.018 9.374,9.026 9.342 C 9.045 9.265,9.165 9.124,9.266 9.063 C 9.343 9.016,9.451 9.014,11.560 9.013 L 13.773 9.013 11.400 11.387 " stroke="none" fill-rule="evenodd"></path></svg>