<svg width="16" height="16" fill="currentColor" xmlns="http://www.w3.org/2000/svg"><path d="M4.466 4.366 C 3.221 6.768,2.156 8.820,2.099 8.927 L 1.995 9.120 3.394 9.120 L 4.793 9.120 5.736 7.356 C 6.255 6.386,6.693 5.574,6.709 5.553 C 6.731 5.522,6.941 5.896,7.689 7.302 C 8.212 8.286,8.640 9.097,8.640 9.105 C 8.640 9.113,8.172 9.120,7.600 9.120 C 7.028 9.120,6.560 9.128,6.560 9.137 C 6.560 9.168,10.037 15.973,10.053 15.973 C 10.069 15.973,13.500 9.216,13.515 9.155 C 13.522 9.127,13.324 9.120,12.474 9.120 L 11.425 9.120 9.226 4.847 C 8.017 2.496,6.961 0.444,6.879 0.286 L 6.729 -0.001 4.466 4.366 M11.413 9.133 C 11.413 9.167,10.065 11.840,10.048 11.840 C 10.034 11.840,8.763 9.347,8.671 9.140 C 8.666 9.129,9.281 9.120,10.038 9.120 C 10.794 9.120,11.413 9.126,11.413 9.133 " stroke="none" fill-rule="evenodd"></path></svg>