<svg width="16" height="16" fill="currentColor" xmlns="http://www.w3.org/2000/svg"><path d="M3.280 1.066 C 1.826 1.331,0.623 2.371,0.192 3.733 C 0.039 4.217,0.014 4.392,0.015 4.960 C 0.016 5.395,0.026 5.526,0.076 5.760 C 0.281 6.717,0.726 7.474,1.698 8.520 C 2.026 8.873,2.444 9.279,3.520 10.293 C 5.296 11.966,6.281 12.983,7.524 14.427 C 7.670 14.596,7.719 14.635,7.846 14.679 C 7.991 14.729,8.001 14.729,8.144 14.684 C 8.286 14.640,8.310 14.617,8.713 14.153 C 9.764 12.941,10.922 11.755,12.480 10.294 C 14.124 8.753,14.773 8.063,15.232 7.373 C 15.585 6.843,15.796 6.348,15.925 5.753 C 15.974 5.526,15.984 5.393,15.985 4.960 C 15.986 4.392,15.961 4.217,15.808 3.733 C 15.372 2.353,14.156 1.315,12.680 1.062 C 12.262 0.991,11.579 1.003,11.226 1.088 C 10.317 1.309,9.535 1.834,8.838 2.693 C 8.566 3.028,8.201 3.586,8.064 3.873 C 8.038 3.928,8.009 3.973,8.000 3.973 C 7.991 3.973,7.962 3.928,7.936 3.873 C 7.843 3.677,7.538 3.192,7.345 2.933 C 6.593 1.923,5.767 1.330,4.774 1.088 C 4.439 1.007,3.667 0.995,3.280 1.066 M4.616 2.080 C 5.383 2.275,6.087 2.843,6.698 3.759 C 6.868 4.015,7.088 4.421,7.462 5.166 C 7.750 5.742,7.993 6.213,8.000 6.213 C 8.007 6.213,8.250 5.742,8.538 5.166 C 8.912 4.421,9.132 4.015,9.302 3.759 C 9.795 3.020,10.310 2.538,10.915 2.253 C 11.370 2.038,11.842 1.964,12.359 2.026 C 13.604 2.177,14.585 3.021,14.913 4.224 C 14.964 4.411,14.972 4.507,14.972 4.947 C 14.972 5.519,14.936 5.723,14.758 6.154 C 14.425 6.957,13.815 7.671,12.040 9.333 C 10.448 10.824,9.329 11.950,8.371 13.027 C 8.175 13.247,8.008 13.427,8.000 13.427 C 7.992 13.427,7.836 13.259,7.653 13.054 C 6.707 11.994,5.593 10.866,4.173 9.534 C 2.152 7.638,1.586 6.985,1.241 6.151 C 1.064 5.723,1.028 5.518,1.028 4.947 C 1.028 4.387,1.059 4.211,1.229 3.812 C 1.637 2.854,2.542 2.169,3.587 2.028 C 3.870 1.990,4.357 2.015,4.616 2.080 " stroke="none" fill-rule="evenodd"></path></svg>