<svg width="16" height="16" fill="currentColor" xmlns="http://www.w3.org/2000/svg"><path d="M7.730 1.090 C 7.510 1.229,7.509 1.237,7.493 2.327 L 7.480 3.281 7.147 2.945 C 6.963 2.761,6.769 2.586,6.714 2.558 C 6.422 2.406,6.044 2.612,6.007 2.943 C 5.980 3.180,6.001 3.207,6.863 4.075 C 7.322 4.537,7.712 4.908,7.772 4.939 C 7.908 5.009,8.092 5.009,8.228 4.939 C 8.288 4.908,8.678 4.537,9.137 4.075 C 9.999 3.207,10.020 3.180,9.993 2.943 C 9.956 2.612,9.578 2.406,9.286 2.558 C 9.231 2.586,9.037 2.761,8.853 2.945 L 8.520 3.281 8.507 2.327 C 8.494 1.455,8.489 1.364,8.442 1.270 C 8.319 1.022,7.974 0.935,7.730 1.090 M13.173 4.221 C 13.062 4.243,12.996 4.302,12.270 5.023 C 11.758 5.531,11.470 5.837,11.438 5.907 C 11.295 6.214,11.492 6.569,11.826 6.607 C 12.065 6.634,12.109 6.600,12.964 5.740 C 13.692 5.007,13.755 4.937,13.783 4.820 C 13.873 4.452,13.559 4.144,13.173 4.221 M2.437 4.280 C 2.236 4.400,2.157 4.605,2.224 4.835 C 2.262 4.964,2.319 5.027,3.059 5.764 C 3.760 6.462,3.867 6.559,3.972 6.587 C 4.341 6.685,4.685 6.341,4.586 5.971 C 4.559 5.868,4.462 5.760,3.791 5.085 C 3.371 4.662,2.982 4.293,2.928 4.265 C 2.784 4.190,2.576 4.196,2.437 4.280 M7.583 6.027 C 7.093 6.079,6.695 6.197,6.227 6.428 C 5.167 6.952,4.412 7.888,4.120 9.041 C 3.938 9.760,3.968 10.553,4.205 11.259 L 4.283 11.492 2.321 11.499 C 0.182 11.507,0.289 11.500,0.141 11.658 C -0.101 11.917,-0.007 12.326,0.326 12.465 C 0.415 12.502,1.223 12.507,8.000 12.507 C 14.777 12.507,15.585 12.502,15.674 12.465 C 15.806 12.410,15.890 12.329,15.950 12.200 C 16.060 11.961,15.962 11.684,15.720 11.551 C 15.648 11.511,15.445 11.506,13.679 11.499 L 11.717 11.492 11.793 11.266 C 11.949 10.801,11.984 10.568,11.984 10.000 C 11.984 9.524,11.978 9.453,11.910 9.162 C 11.721 8.357,11.371 7.722,10.810 7.166 C 10.277 6.638,9.546 6.240,8.841 6.094 C 8.420 6.007,7.989 5.984,7.583 6.027 M0.440 9.506 C 0.425 9.511,0.381 9.522,0.342 9.531 C 0.173 9.568,0.001 9.805,0.001 10.000 C 0.001 10.206,0.166 10.422,0.368 10.481 C 0.434 10.500,0.826 10.507,1.547 10.502 C 2.582 10.494,2.631 10.491,2.733 10.438 C 2.798 10.404,2.870 10.334,2.916 10.259 C 3.066 10.018,2.992 9.722,2.747 9.577 L 2.627 9.507 1.547 9.501 C 0.953 9.498,0.455 9.500,0.440 9.506 M13.396 9.518 C 13.057 9.602,12.902 9.967,13.084 10.259 C 13.130 10.334,13.202 10.404,13.267 10.438 C 13.369 10.491,13.418 10.494,14.453 10.502 C 15.174 10.507,15.566 10.500,15.632 10.481 C 15.832 10.422,15.998 10.207,15.999 10.006 C 16.001 9.831,15.884 9.641,15.720 9.551 C 15.650 9.512,15.509 9.506,14.560 9.502 C 13.966 9.499,13.442 9.507,13.396 9.518 " stroke="none" fill-rule="evenodd"></path></svg>