<svg width="16" height="16" fill="currentColor" xmlns="http://www.w3.org/2000/svg"><path d="M1.662 1.062 C 1.403 1.152,1.172 1.381,1.058 1.659 L 1.000 1.800 1.000 4.293 L 1.000 6.787 1.063 6.947 C 1.123 7.100,1.289 7.270,4.781 10.765 C 8.917 14.905,8.550 14.573,9.000 14.573 C 9.443 14.573,9.230 14.757,12.004 11.979 C 14.763 9.215,14.572 9.436,14.573 9.000 C 14.573 8.784,14.565 8.742,14.485 8.573 C 14.401 8.394,14.254 8.243,10.792 4.783 C 7.577 1.571,7.169 1.172,7.027 1.103 L 6.867 1.027 4.333 1.021 C 1.956 1.015,1.792 1.017,1.662 1.062 M4.880 3.053 C 5.571 3.237,6.055 3.918,5.990 4.616 C 5.945 5.098,5.705 5.496,5.299 5.762 C 4.465 6.307,3.312 5.855,3.053 4.880 C 3.003 4.690,3.003 4.319,3.053 4.125 C 3.184 3.622,3.611 3.190,4.110 3.055 C 4.297 3.005,4.695 3.004,4.880 3.053 " stroke="none" fill-rule="evenodd"></path></svg>