<svg width="16" height="16" fill="currentColor" xmlns="http://www.w3.org/2000/svg"><path d="M1.662 1.062 C 1.403 1.152,1.172 1.381,1.058 1.659 L 1.000 1.800 1.000 4.293 L 1.000 6.787 1.063 6.947 C 1.123 7.100,1.289 7.270,4.781 10.765 C 8.917 14.905,8.550 14.573,9.000 14.573 C 9.443 14.573,9.230 14.757,12.004 11.979 C 14.763 9.215,14.572 9.436,14.573 9.000 C 14.573 8.784,14.565 8.742,14.485 8.573 C 14.401 8.394,14.254 8.243,10.792 4.783 C 7.577 1.571,7.169 1.172,7.027 1.103 L 6.867 1.027 4.333 1.021 C 1.956 1.015,1.792 1.017,1.662 1.062 M10.073 5.500 L 13.573 9.000 11.287 11.287 L 9.000 13.573 5.500 10.073 L 2.000 6.573 2.000 4.287 L 2.000 2.000 4.287 2.000 L 6.573 2.000 10.073 5.500 M4.110 3.055 C 3.465 3.229,3.010 3.823,3.007 4.494 C 3.006 4.921,3.143 5.250,3.453 5.560 C 3.765 5.872,4.153 6.019,4.587 5.991 C 5.874 5.907,6.467 4.360,5.560 3.453 C 5.360 3.253,5.135 3.121,4.880 3.053 C 4.695 3.004,4.297 3.005,4.110 3.055 M4.687 4.041 C 4.813 4.094,4.874 4.150,4.936 4.272 C 5.084 4.563,4.916 4.915,4.594 4.988 C 4.390 5.034,4.140 4.906,4.051 4.710 C 3.935 4.454,4.044 4.171,4.307 4.050 C 4.437 3.990,4.557 3.987,4.687 4.041 " stroke="none" fill-rule="evenodd"></path></svg>