<svg width="16" height="16" fill="currentColor" xmlns="http://www.w3.org/2000/svg"><path d="M2.803 0.030 C 2.630 0.059,2.398 0.150,2.193 0.271 C 1.987 0.391,0.724 1.647,0.534 1.920 C 0.148 2.474,-0.025 3.060,0.008 3.691 C 0.026 4.030,0.084 4.259,0.293 4.813 C 0.745 6.016,1.405 7.322,2.100 8.387 C 3.491 10.517,5.295 12.346,7.387 13.747 C 8.609 14.565,9.870 15.214,11.213 15.716 C 11.857 15.957,11.974 15.982,12.453 15.983 C 12.817 15.983,12.898 15.975,13.125 15.914 C 13.443 15.828,13.772 15.676,14.046 15.490 C 14.307 15.312,15.572 14.057,15.720 13.828 C 16.187 13.110,16.049 12.146,15.396 11.567 C 15.351 11.527,14.766 11.068,14.097 10.548 C 12.626 9.405,12.544 9.359,11.960 9.357 C 11.707 9.357,11.628 9.373,10.453 9.667 C 9.121 10.000,9.127 9.999,8.881 9.891 C 8.708 9.815,6.216 7.327,6.119 7.135 C 6.008 6.913,6.021 6.822,6.350 5.514 C 6.626 4.415,6.647 4.315,6.648 4.067 C 6.650 3.762,6.602 3.542,6.477 3.285 C 6.364 3.053,4.509 0.669,4.274 0.454 C 3.884 0.097,3.342 -0.059,2.803 0.030 M15.293 0.050 C 15.223 0.084,14.486 0.803,13.107 2.184 L 11.027 4.267 11.013 2.820 C 11.002 1.538,10.995 1.364,10.956 1.293 C 10.897 1.188,10.778 1.077,10.685 1.042 C 10.508 0.975,10.247 1.033,10.128 1.165 C 9.998 1.308,10.000 1.272,10.000 3.486 C 10.000 4.761,10.010 5.596,10.026 5.654 C 10.059 5.772,10.227 5.939,10.348 5.974 C 10.405 5.990,11.231 6.000,12.520 5.999 C 14.494 5.999,14.606 5.996,14.710 5.949 C 14.960 5.836,15.070 5.507,14.940 5.266 C 14.896 5.186,14.769 5.073,14.685 5.042 C 14.635 5.023,14.123 5.013,13.172 5.013 C 12.381 5.013,11.733 5.004,11.733 4.993 C 11.733 4.982,12.675 4.031,13.827 2.880 C 16.084 0.623,16.022 0.693,15.993 0.440 C 15.957 0.116,15.585 -0.092,15.293 0.050 " stroke="none" fill-rule="evenodd"></path></svg>