<svg width="16" height="16" fill="currentColor" xmlns="http://www.w3.org/2000/svg"><path d="M7.467 0.017 C 5.118 0.192,3.024 1.327,1.608 3.193 C 0.799 4.260,0.296 5.477,0.073 6.906 C -0.009 7.429,-0.009 8.571,0.073 9.094 C 0.415 11.288,1.476 13.089,3.195 14.393 C 4.257 15.199,5.481 15.705,6.906 15.927 C 7.429 16.009,8.571 16.009,9.094 15.927 C 11.038 15.624,12.690 14.748,13.930 13.362 C 15.030 12.133,15.665 10.775,15.927 9.094 C 16.009 8.571,16.009 7.429,15.927 6.906 C 15.705 5.481,15.199 4.257,14.393 3.195 C 13.070 1.452,11.180 0.355,9.000 0.066 C 8.688 0.025,7.760 -0.005,7.467 0.017 M11.516 4.878 C 11.719 4.981,11.744 5.206,11.642 6.000 C 11.507 7.051,11.175 9.125,10.891 10.693 C 10.738 11.538,10.697 11.668,10.519 11.865 C 10.348 12.054,10.068 12.066,9.736 11.898 C 9.528 11.793,7.103 10.152,6.978 10.032 C 6.722 9.785,6.737 9.587,7.036 9.270 C 7.090 9.214,7.493 8.830,7.933 8.418 C 8.373 8.006,8.922 7.481,9.153 7.251 C 9.504 6.902,9.573 6.820,9.573 6.755 C 9.573 6.663,9.531 6.613,9.452 6.613 C 9.368 6.613,9.123 6.769,7.411 7.913 C 6.554 8.485,5.793 8.984,5.719 9.021 C 5.645 9.058,5.513 9.109,5.426 9.135 C 5.139 9.218,4.735 9.152,3.880 8.881 C 3.352 8.713,3.241 8.669,3.136 8.582 C 3.056 8.516,3.040 8.486,3.040 8.400 C 3.040 8.267,3.124 8.167,3.325 8.060 C 3.410 8.015,4.129 7.696,4.922 7.351 C 8.357 5.860,10.260 5.073,10.867 4.893 C 11.135 4.813,11.378 4.808,11.516 4.878 " stroke="none" fill-rule="evenodd"></path></svg>