<svg width="16" height="16" fill="currentColor" xmlns="http://www.w3.org/2000/svg"><path d="M2.803 0.030 C 2.630 0.059,2.398 0.150,2.193 0.271 C 1.987 0.391,0.724 1.647,0.534 1.920 C 0.148 2.474,-0.025 3.060,0.008 3.691 C 0.026 4.030,0.084 4.259,0.293 4.813 C 0.745 6.016,1.405 7.322,2.100 8.387 C 3.491 10.517,5.295 12.346,7.387 13.747 C 8.609 14.565,9.870 15.214,11.213 15.716 C 11.857 15.957,11.974 15.982,12.453 15.983 C 12.817 15.983,12.898 15.975,13.125 15.914 C 13.443 15.828,13.772 15.676,14.046 15.490 C 14.307 15.312,15.572 14.057,15.720 13.828 C 16.187 13.110,16.049 12.146,15.396 11.567 C 15.351 11.527,14.766 11.068,14.097 10.548 C 12.626 9.405,12.544 9.359,11.960 9.357 C 11.707 9.357,11.628 9.373,10.453 9.667 C 9.121 10.000,9.127 9.999,8.881 9.891 C 8.708 9.815,6.216 7.327,6.119 7.135 C 6.008 6.913,6.021 6.822,6.350 5.514 C 6.626 4.415,6.647 4.315,6.648 4.067 C 6.650 3.762,6.602 3.542,6.477 3.285 C 6.364 3.053,4.509 0.669,4.274 0.454 C 3.884 0.097,3.342 -0.059,2.803 0.030 M11.290 0.051 C 11.230 0.078,11.150 0.141,11.112 0.191 C 11.046 0.278,10.981 0.481,11.000 0.543 C 11.005 0.560,11.016 0.606,11.025 0.646 C 11.045 0.737,11.181 0.894,11.291 0.955 C 11.365 0.995,11.519 1.001,12.825 1.008 L 14.277 1.016 12.168 3.128 C 10.456 4.843,10.053 5.259,10.026 5.343 C 9.932 5.640,10.125 5.948,10.431 5.990 C 10.687 6.025,10.591 6.110,12.872 3.832 L 14.984 1.723 14.992 3.175 C 14.999 4.481,15.005 4.635,15.045 4.709 C 15.106 4.819,15.263 4.955,15.354 4.975 C 15.394 4.984,15.440 4.995,15.457 5.000 C 15.519 5.019,15.722 4.954,15.809 4.888 C 15.859 4.850,15.922 4.770,15.949 4.710 C 15.996 4.606,15.999 4.494,15.999 2.520 C 16.000 1.235,15.990 0.404,15.973 0.345 C 15.959 0.293,15.908 0.213,15.860 0.167 C 15.680 -0.008,15.788 -0.000,13.488 0.001 C 11.506 0.001,11.394 0.004,11.290 0.051 " stroke="none" fill-rule="evenodd"></path></svg>