<svg width="16" height="16" fill="currentColor" xmlns="http://www.w3.org/2000/svg"><path d="M1.554 1.053 C 0.862 1.204,0.301 1.736,0.076 2.454 L 0.013 2.653 0.013 8.000 L 0.013 13.347 0.076 13.546 C 0.332 14.362,0.966 14.890,1.807 14.986 C 2.126 15.023,13.874 15.023,14.193 14.986 C 15.034 14.890,15.668 14.362,15.924 13.546 L 15.987 13.347 15.987 8.000 L 15.987 2.653 15.924 2.453 C 15.714 1.784,15.243 1.308,14.559 1.076 C 14.419 1.029,14.161 1.026,8.067 1.022 C 2.806 1.018,1.692 1.023,1.554 1.053 M3.707 4.055 C 3.796 4.096,4.086 4.368,4.847 5.128 C 5.913 6.191,6.001 6.296,5.999 6.505 C 5.998 6.702,5.926 6.787,4.823 7.884 C 3.785 8.916,3.742 8.956,3.616 8.982 C 3.544 8.996,3.472 9.005,3.456 9.000 C 3.440 8.995,3.394 8.984,3.354 8.975 C 3.265 8.956,3.104 8.819,3.052 8.717 C 3.001 8.618,3.003 8.392,3.056 8.285 C 3.079 8.238,3.478 7.819,3.942 7.354 L 4.786 6.507 3.943 5.660 C 3.479 5.195,3.080 4.775,3.057 4.728 C 3.033 4.681,3.013 4.582,3.013 4.507 C 3.013 4.126,3.361 3.899,3.707 4.055 M9.727 8.563 C 9.900 8.647,9.987 8.793,9.987 9.000 C 9.987 9.207,9.900 9.353,9.727 9.437 C 9.612 9.492,9.586 9.493,8.000 9.493 C 6.414 9.493,6.388 9.492,6.273 9.437 C 6.100 9.353,6.013 9.207,6.013 9.000 C 6.013 8.794,6.099 8.649,6.271 8.564 C 6.385 8.507,6.404 8.507,7.998 8.507 C 9.586 8.507,9.612 8.508,9.727 8.563 " stroke="none" fill-rule="evenodd"></path></svg>