<svg width="16" height="16" fill="currentColor" xmlns="http://www.w3.org/2000/svg"><path d="M3.120 0.029 C 2.858 0.069,2.452 0.218,2.208 0.363 C 1.973 0.504,1.584 0.864,1.445 1.070 C 1.225 1.397,1.065 1.828,1.016 2.227 C 0.996 2.391,0.987 3.669,0.987 6.261 L 0.987 10.055 0.844 10.223 C -0.282 11.550,-0.279 13.480,0.850 14.780 C 1.504 15.533,2.377 15.953,3.373 15.992 C 5.019 16.056,6.486 14.954,6.893 13.349 C 7.170 12.258,6.887 11.066,6.149 10.216 L 6.001 10.045 5.994 6.069 L 5.987 2.093 5.927 1.885 C 5.670 0.982,4.993 0.305,4.120 0.079 C 3.871 0.014,3.381 -0.010,3.120 0.029 M3.879 1.054 C 4.386 1.186,4.814 1.616,4.947 2.125 C 4.981 2.257,4.987 2.832,4.987 6.373 L 4.987 10.468 5.203 10.680 C 5.469 10.943,5.623 11.154,5.760 11.447 C 6.327 12.657,5.818 14.132,4.627 14.727 C 3.218 15.431,1.524 14.687,1.093 13.173 C 1.020 12.916,0.993 12.377,1.038 12.092 C 1.126 11.548,1.409 11.028,1.826 10.647 L 2.000 10.487 2.000 6.424 C 2.001 3.000,2.007 2.332,2.039 2.180 C 2.150 1.658,2.587 1.197,3.108 1.054 C 3.290 1.004,3.688 1.004,3.879 1.054 M3.290 2.051 C 3.155 2.113,3.052 2.243,3.015 2.401 C 2.997 2.480,2.988 3.956,2.987 6.803 L 2.987 11.086 2.808 11.174 C 2.569 11.292,2.283 11.577,2.167 11.815 C 1.883 12.397,1.971 13.044,2.397 13.500 C 2.681 13.803,3.001 13.962,3.389 13.992 C 3.977 14.037,4.546 13.723,4.825 13.199 C 5.209 12.478,4.920 11.552,4.195 11.180 L 4.000 11.080 4.000 6.760 C 4.000 4.008,3.990 2.406,3.973 2.345 C 3.925 2.170,3.684 1.999,3.488 2.001 C 3.439 2.001,3.351 2.024,3.290 2.051 M8.307 2.051 C 8.171 2.113,8.060 2.232,8.026 2.348 C 7.992 2.468,7.993 3.532,8.027 3.657 C 8.068 3.803,8.256 3.965,8.413 3.988 C 8.684 4.029,8.928 3.863,8.984 3.600 C 9.021 3.429,9.021 2.560,8.985 2.401 C 8.912 2.084,8.591 1.919,8.307 2.051 M12.147 3.677 C 12.103 3.705,11.879 3.918,11.649 4.150 C 11.318 4.486,11.226 4.595,11.203 4.680 C 11.160 4.835,11.166 4.881,11.243 5.035 C 11.377 5.305,11.696 5.393,11.948 5.230 C 12.121 5.118,12.791 4.429,12.839 4.313 C 12.887 4.199,12.892 4.035,12.852 3.928 C 12.817 3.836,12.705 3.715,12.608 3.664 C 12.502 3.609,12.244 3.616,12.147 3.677 M8.262 5.065 C 7.983 5.219,7.916 5.584,8.126 5.817 C 8.257 5.962,8.288 5.974,8.581 6.002 C 8.936 6.036,9.120 6.086,9.406 6.229 C 9.920 6.486,10.311 6.980,10.443 7.541 C 10.468 7.645,10.486 7.837,10.486 8.000 C 10.486 8.320,10.438 8.557,10.321 8.815 C 10.021 9.476,9.357 9.944,8.653 9.990 C 8.377 10.008,8.238 10.059,8.124 10.186 C 7.879 10.457,8.032 10.905,8.394 10.983 C 8.628 11.033,9.161 10.955,9.530 10.815 C 10.544 10.434,11.269 9.565,11.454 8.510 C 11.504 8.224,11.504 7.776,11.454 7.489 C 11.215 6.120,10.045 5.075,8.693 5.024 C 8.396 5.013,8.350 5.017,8.262 5.065 M12.947 7.505 C 12.932 7.511,12.887 7.523,12.847 7.531 C 12.807 7.540,12.730 7.586,12.677 7.633 C 12.397 7.879,12.466 8.295,12.813 8.456 C 12.906 8.499,12.992 8.506,13.480 8.506 C 13.808 8.506,14.084 8.494,14.146 8.477 C 14.287 8.438,14.440 8.281,14.479 8.136 C 14.539 7.915,14.459 7.711,14.263 7.581 L 14.151 7.507 13.562 7.501 C 13.238 7.498,12.961 7.500,12.947 7.505 M11.422 10.760 C 11.308 10.829,11.173 11.045,11.173 11.159 C 11.174 11.345,11.228 11.423,11.663 11.863 C 11.900 12.103,12.132 12.316,12.179 12.336 C 12.359 12.414,12.627 12.360,12.752 12.222 C 12.874 12.087,12.911 11.860,12.839 11.687 C 12.791 11.571,12.121 10.882,11.948 10.770 C 11.789 10.667,11.584 10.663,11.422 10.760 M8.307 12.051 C 8.171 12.113,8.060 12.232,8.026 12.348 C 7.992 12.468,7.993 13.532,8.027 13.657 C 8.068 13.803,8.256 13.965,8.413 13.988 C 8.684 14.029,8.928 13.863,8.984 13.600 C 9.021 13.429,9.021 12.560,8.985 12.401 C 8.912 12.084,8.591 11.919,8.307 12.051 " stroke="none" fill-rule="evenodd"></path></svg>