<svg width="16" height="16" fill="currentColor" xmlns="http://www.w3.org/2000/svg"><path d="M3.120 0.029 C 2.858 0.069,2.452 0.218,2.208 0.363 C 1.973 0.504,1.584 0.864,1.445 1.070 C 1.225 1.397,1.065 1.828,1.016 2.227 C 0.996 2.391,0.987 3.669,0.987 6.261 L 0.987 10.055 0.844 10.223 C -0.282 11.550,-0.279 13.480,0.850 14.780 C 1.504 15.533,2.377 15.953,3.373 15.992 C 5.019 16.056,6.486 14.954,6.893 13.349 C 7.170 12.258,6.887 11.066,6.149 10.216 L 6.001 10.045 5.994 6.069 L 5.987 2.093 5.927 1.885 C 5.670 0.982,4.993 0.305,4.120 0.079 C 3.871 0.014,3.381 -0.010,3.120 0.029 M3.879 1.054 C 4.386 1.186,4.814 1.616,4.947 2.125 C 4.981 2.257,4.987 2.832,4.987 6.373 L 4.987 10.468 5.203 10.680 C 5.469 10.943,5.623 11.154,5.760 11.447 C 6.327 12.657,5.818 14.132,4.627 14.727 C 3.218 15.431,1.524 14.687,1.093 13.173 C 1.020 12.916,0.993 12.377,1.038 12.092 C 1.126 11.548,1.409 11.028,1.826 10.647 L 2.000 10.487 2.000 6.424 C 2.001 3.000,2.007 2.332,2.039 2.180 C 2.150 1.658,2.587 1.197,3.108 1.054 C 3.290 1.004,3.688 1.004,3.879 1.054 M8.307 2.051 C 8.171 2.113,8.060 2.232,8.026 2.348 C 7.990 2.476,7.991 13.525,8.027 13.657 C 8.068 13.803,8.256 13.965,8.413 13.988 C 8.684 14.029,8.928 13.863,8.984 13.600 C 9.001 13.524,9.013 13.193,9.013 12.847 L 9.013 12.229 9.353 12.565 C 9.540 12.749,9.734 12.921,9.785 12.946 C 9.921 13.016,10.108 13.007,10.249 12.924 C 10.385 12.844,10.441 12.769,10.485 12.604 C 10.549 12.363,10.529 12.334,9.731 11.532 L 9.013 10.811 9.020 9.847 L 9.027 8.882 9.840 9.351 C 10.287 9.610,10.657 9.824,10.661 9.827 C 10.666 9.831,10.787 10.271,10.930 10.806 C 11.081 11.368,11.213 11.807,11.242 11.846 C 11.347 11.986,11.462 12.040,11.654 12.040 C 11.808 12.040,11.844 12.030,11.931 11.964 C 11.986 11.922,12.053 11.852,12.079 11.808 C 12.173 11.654,12.167 11.561,12.030 11.052 C 11.960 10.789,11.905 10.569,11.910 10.563 C 11.914 10.558,12.180 10.704,12.500 10.889 C 13.113 11.242,13.225 11.284,13.398 11.227 C 13.690 11.131,13.834 10.817,13.710 10.547 C 13.640 10.397,13.592 10.360,13.067 10.060 C 12.810 9.913,12.553 9.766,12.497 9.732 L 12.393 9.671 12.857 9.547 C 13.461 9.385,13.524 9.351,13.612 9.140 C 13.738 8.839,13.539 8.497,13.217 8.460 C 13.126 8.450,12.891 8.503,12.134 8.705 L 11.168 8.963 10.671 8.677 C 10.397 8.519,10.026 8.306,9.847 8.203 C 9.667 8.100,9.520 8.009,9.521 8.001 C 9.521 7.993,9.892 7.773,10.345 7.512 L 11.170 7.038 12.118 7.292 C 12.640 7.432,13.109 7.547,13.161 7.547 C 13.295 7.547,13.414 7.490,13.511 7.380 C 13.663 7.206,13.686 7.027,13.584 6.812 C 13.512 6.659,13.383 6.595,12.865 6.457 L 12.392 6.330 12.977 5.993 C 13.298 5.808,13.587 5.628,13.619 5.594 C 13.698 5.510,13.760 5.355,13.760 5.240 C 13.760 4.961,13.454 4.708,13.178 4.760 C 13.126 4.770,12.815 4.933,12.487 5.122 C 12.099 5.346,11.895 5.450,11.904 5.420 C 11.912 5.394,11.973 5.171,12.038 4.923 C 12.145 4.522,12.155 4.458,12.132 4.352 C 12.084 4.142,11.938 3.998,11.731 3.960 C 11.537 3.924,11.302 4.041,11.209 4.221 C 11.186 4.266,11.055 4.722,10.919 5.234 C 10.782 5.746,10.667 6.169,10.662 6.173 C 10.657 6.178,10.287 6.393,9.840 6.650 L 9.027 7.119 9.020 6.154 L 9.013 5.189 9.730 4.468 C 10.487 3.707,10.530 3.649,10.498 3.452 C 10.455 3.187,10.261 3.013,10.007 3.013 C 9.928 3.013,9.826 3.033,9.779 3.057 C 9.732 3.081,9.540 3.251,9.353 3.435 L 9.013 3.771 9.013 3.145 C 9.012 2.801,9.000 2.466,8.985 2.401 C 8.912 2.084,8.591 1.919,8.307 2.051 M3.293 9.044 C 3.207 9.092,3.092 9.207,3.044 9.293 C 3.006 9.362,2.999 9.492,2.992 10.230 L 2.983 11.088 2.806 11.175 C 2.569 11.292,2.283 11.578,2.167 11.815 C 1.883 12.397,1.971 13.044,2.397 13.500 C 2.681 13.803,3.001 13.962,3.389 13.992 C 3.977 14.037,4.546 13.723,4.825 13.199 C 5.209 12.478,4.920 11.552,4.195 11.180 L 4.000 11.080 4.000 10.246 C 4.000 9.369,3.991 9.297,3.872 9.165 C 3.752 9.032,3.435 8.966,3.293 9.044 " stroke="none" fill-rule="evenodd"></path></svg>