<svg width="16" height="16" fill="currentColor" xmlns="http://www.w3.org/2000/svg"><path d="M2.630 6.547 C 2.220 6.651,1.838 6.965,1.651 7.354 C 1.175 8.342,1.900 9.493,3.000 9.493 C 3.515 9.493,3.978 9.238,4.267 8.795 C 4.572 8.328,4.572 7.674,4.267 7.205 C 4.083 6.921,3.752 6.663,3.454 6.570 C 3.264 6.510,2.825 6.498,2.630 6.547 M7.693 6.532 C 7.001 6.682,6.507 7.293,6.507 8.000 C 6.507 8.410,6.653 8.759,6.947 9.053 C 7.539 9.646,8.461 9.646,9.053 9.053 C 9.829 8.277,9.546 6.988,8.514 6.596 C 8.315 6.521,7.896 6.488,7.693 6.532 M12.630 6.547 C 12.220 6.651,11.838 6.965,11.651 7.354 C 11.175 8.342,11.900 9.493,13.000 9.493 C 13.515 9.493,13.978 9.238,14.267 8.795 C 14.572 8.328,14.572 7.674,14.267 7.205 C 14.083 6.921,13.752 6.663,13.454 6.570 C 13.264 6.510,12.825 6.498,12.630 6.547 " stroke="none" fill-rule="evenodd"></path></svg>