<svg width="16" height="16" fill="currentColor" xmlns="http://www.w3.org/2000/svg"><path d="M0.637 3.076 C 0.370 3.186,0.197 3.352,0.075 3.614 L 0.013 3.747 0.013 7.640 L 0.013 11.533 0.102 11.720 C 0.183 11.892,0.266 11.983,1.142 12.858 C 2.017 13.734,2.108 13.817,2.280 13.898 L 2.467 13.987 8.000 13.987 L 13.533 13.987 13.720 13.898 C 13.892 13.817,13.983 13.734,14.858 12.858 C 15.734 11.983,15.817 11.892,15.898 11.720 L 15.987 11.533 15.987 7.640 L 15.987 3.747 15.917 3.600 C 15.814 3.382,15.652 3.216,15.446 3.114 L 15.268 3.027 8.027 3.021 L 0.787 3.014 0.637 3.076 M12.687 6.041 C 12.813 6.094,12.874 6.150,12.936 6.272 C 12.981 6.361,12.987 6.436,12.987 7.000 C 12.987 7.564,12.981 7.639,12.936 7.728 C 12.874 7.850,12.813 7.906,12.687 7.959 C 12.599 7.995,12.069 8.000,8.000 8.000 C 3.931 8.000,3.401 7.995,3.313 7.959 C 3.187 7.906,3.126 7.850,3.064 7.728 C 3.019 7.639,3.013 7.564,3.013 7.000 C 3.013 6.436,3.019 6.361,3.064 6.272 C 3.125 6.152,3.186 6.095,3.307 6.042 C 3.389 6.007,3.964 6.002,7.994 6.001 C 12.070 6.000,12.599 6.005,12.687 6.041 " stroke="none" fill-rule="evenodd"></path></svg>