<svg width="16" height="16" fill="currentColor" xmlns="http://www.w3.org/2000/svg"><path d="M1.079 3.063 C 0.585 3.205,0.175 3.632,0.041 4.147 C 0.008 4.274,0.000 4.477,0.001 5.199 C 0.001 6.011,0.006 6.103,0.050 6.200 C 0.141 6.396,0.321 6.506,0.552 6.507 C 1.033 6.509,1.580 6.841,1.804 7.269 C 1.949 7.546,1.986 7.692,1.986 8.000 C 1.986 8.384,1.891 8.656,1.653 8.954 C 1.412 9.257,1.038 9.448,0.597 9.494 C 0.253 9.529,0.133 9.600,0.041 9.820 C -0.019 9.963,-0.019 11.584,0.041 11.839 C 0.165 12.363,0.570 12.787,1.107 12.951 C 1.260 12.998,1.539 13.000,8.000 13.000 C 14.461 13.000,14.740 12.998,14.893 12.951 C 15.430 12.786,15.835 12.362,15.960 11.833 C 16.019 11.584,16.018 9.961,15.959 9.820 C 15.867 9.600,15.747 9.529,15.403 9.494 C 14.814 9.433,14.382 9.133,14.142 8.619 C 13.882 8.064,13.999 7.394,14.433 6.955 C 14.701 6.684,15.099 6.509,15.453 6.506 C 15.687 6.505,15.873 6.385,15.959 6.180 C 16.018 6.039,16.019 4.416,15.960 4.167 C 15.834 3.631,15.410 3.194,14.880 3.053 C 14.753 3.019,13.824 3.014,7.987 3.016 C 1.681 3.017,1.230 3.020,1.079 3.063 M11.728 5.064 C 11.782 5.092,11.847 5.137,11.872 5.165 C 11.937 5.237,12.000 5.398,12.000 5.493 C 12.000 5.686,11.827 5.925,11.655 5.973 C 11.526 6.009,4.474 6.009,4.345 5.973 C 4.170 5.925,3.999 5.684,4.001 5.488 C 4.001 5.383,4.079 5.204,4.150 5.143 C 4.307 5.008,4.080 5.016,7.994 5.014 C 11.509 5.013,11.632 5.015,11.728 5.064 M11.446 7.114 C 11.931 7.353,12.132 7.947,11.893 8.440 C 11.760 8.715,11.476 8.927,11.162 8.984 C 10.941 9.025,5.058 9.025,4.839 8.984 C 4.216 8.869,3.858 8.253,4.067 7.653 C 4.156 7.397,4.359 7.191,4.633 7.078 L 4.787 7.014 8.027 7.020 L 11.268 7.027 11.446 7.114 M11.674 10.041 C 12.136 10.234,12.085 10.873,11.599 10.985 C 11.434 11.023,4.566 11.023,4.401 10.985 C 3.924 10.875,3.862 10.256,4.307 10.050 C 4.409 10.003,4.570 10.001,7.994 10.001 C 11.167 10.000,11.586 10.005,11.674 10.041 " stroke="none" fill-rule="evenodd"></path></svg>