<svg width="16" height="16" fill="currentColor" xmlns="http://www.w3.org/2000/svg"><path d="M1.079 3.063 C 0.585 3.205,0.175 3.632,0.041 4.147 C 0.008 4.274,0.000 4.477,0.001 5.199 C 0.001 6.011,0.006 6.103,0.050 6.200 C 0.141 6.396,0.321 6.506,0.552 6.507 C 1.033 6.509,1.580 6.841,1.804 7.269 C 1.949 7.546,1.986 7.692,1.986 8.000 C 1.986 8.384,1.891 8.656,1.653 8.954 C 1.412 9.257,1.038 9.448,0.597 9.494 C 0.253 9.529,0.133 9.600,0.041 9.820 C -0.019 9.963,-0.019 11.584,0.041 11.839 C 0.165 12.363,0.570 12.787,1.107 12.951 C 1.260 12.998,1.539 13.000,8.000 13.000 C 14.461 13.000,14.740 12.998,14.893 12.951 C 15.430 12.786,15.835 12.362,15.960 11.833 C 16.019 11.584,16.018 9.961,15.959 9.820 C 15.867 9.600,15.747 9.529,15.403 9.494 C 14.814 9.433,14.382 9.133,14.142 8.619 C 13.882 8.064,13.999 7.394,14.433 6.955 C 14.701 6.684,15.099 6.509,15.453 6.506 C 15.687 6.505,15.873 6.385,15.959 6.180 C 16.018 6.039,16.019 4.416,15.960 4.167 C 15.834 3.631,15.410 3.194,14.880 3.053 C 14.753 3.019,13.824 3.014,7.987 3.016 C 1.681 3.017,1.230 3.020,1.079 3.063 M4.987 4.000 L 4.987 4.507 4.493 4.507 L 4.000 4.507 4.000 4.000 L 4.000 3.493 4.493 3.493 L 4.987 3.493 4.987 4.000 M12.000 4.000 L 12.000 4.507 11.507 4.507 L 11.013 4.507 11.013 4.000 L 11.013 3.493 11.507 3.493 L 12.000 3.493 12.000 4.000 M4.987 6.000 L 4.987 6.507 4.493 6.507 L 4.000 6.507 4.000 6.000 L 4.000 5.493 4.493 5.493 L 4.987 5.493 4.987 6.000 M12.000 6.000 L 12.000 6.507 11.507 6.507 L 11.013 6.507 11.013 6.000 L 11.013 5.493 11.507 5.493 L 12.000 5.493 12.000 6.000 M4.987 8.000 L 4.987 8.507 4.493 8.507 L 4.000 8.507 4.000 8.000 L 4.000 7.493 4.493 7.493 L 4.987 7.493 4.987 8.000 M12.000 8.000 L 12.000 8.507 11.507 8.507 L 11.013 8.507 11.013 8.000 L 11.013 7.493 11.507 7.493 L 12.000 7.493 12.000 8.000 M4.987 10.000 L 4.987 10.507 4.493 10.507 L 4.000 10.507 4.000 10.000 L 4.000 9.493 4.493 9.493 L 4.987 9.493 4.987 10.000 M12.000 10.000 L 12.000 10.507 11.507 10.507 L 11.013 10.507 11.013 10.000 L 11.013 9.493 11.507 9.493 L 12.000 9.493 12.000 10.000 M4.987 12.000 L 4.987 12.507 4.493 12.507 L 4.000 12.507 4.000 12.000 L 4.000 11.493 4.493 11.493 L 4.987 11.493 4.987 12.000 M12.000 12.000 L 12.000 12.507 11.507 12.507 L 11.013 12.507 11.013 12.000 L 11.013 11.493 11.507 11.493 L 12.000 11.493 12.000 12.000 " stroke="none" fill-rule="evenodd"></path></svg>