<svg width="16" height="16" fill="currentColor" xmlns="http://www.w3.org/2000/svg"><path d="M0.498 0.502 L 0.000 1.000 1.121 2.574 C 1.738 3.439,2.287 4.187,2.341 4.236 C 2.539 4.415,2.707 4.475,3.083 4.505 C 3.558 4.543,3.470 4.473,5.060 6.061 C 5.826 6.826,6.453 7.459,6.453 7.468 C 6.453 7.476,5.868 8.075,5.153 8.799 L 3.853 10.115 3.613 10.065 C 3.271 9.993,2.688 9.997,2.355 10.074 C 1.744 10.215,1.264 10.491,0.817 10.961 C 0.089 11.726,-0.174 12.811,0.122 13.831 C 0.446 14.949,1.404 15.786,2.560 15.961 C 4.204 16.211,5.730 15.060,5.975 13.386 C 6.015 13.114,5.995 12.652,5.931 12.365 L 5.884 12.156 6.442 11.596 C 6.749 11.288,7.346 10.699,7.768 10.287 L 8.537 9.537 9.018 10.018 L 9.499 10.499 9.320 11.043 C 9.149 11.559,9.141 11.596,9.152 11.787 C 9.175 12.188,9.097 12.095,11.074 14.072 C 13.097 16.095,12.965 15.987,13.414 15.987 C 13.841 15.987,13.848 15.981,14.925 14.901 C 15.992 13.831,15.987 13.839,15.987 13.413 C 15.987 12.965,16.095 13.097,14.072 11.077 C 12.101 9.108,12.188 9.181,11.795 9.154 C 11.593 9.141,11.571 9.145,11.043 9.320 L 10.500 9.499 10.023 9.023 L 9.547 8.547 10.127 7.965 C 10.446 7.645,11.049 7.049,11.468 6.640 L 12.229 5.898 12.401 5.941 C 12.523 5.971,12.697 5.984,13.000 5.984 C 13.456 5.984,13.678 5.945,14.079 5.795 C 14.797 5.526,15.464 4.880,15.762 4.164 C 15.930 3.761,15.981 3.499,15.984 3.027 C 15.986 2.646,15.953 2.345,15.900 2.257 C 15.893 2.244,15.405 2.714,14.817 3.300 L 13.747 4.367 12.885 4.186 C 12.411 4.087,12.017 3.999,12.010 3.992 C 12.003 3.985,11.916 3.588,11.817 3.111 L 11.637 2.243 12.697 1.183 C 13.280 0.600,13.752 0.115,13.745 0.105 C 13.715 0.055,13.345 0.014,12.960 0.016 C 12.502 0.020,12.233 0.073,11.836 0.238 C 10.877 0.637,10.177 1.547,10.026 2.591 C 9.987 2.857,10.005 3.361,10.063 3.618 L 10.099 3.783 8.791 5.112 C 8.071 5.842,7.475 6.443,7.467 6.447 C 7.459 6.451,6.826 5.827,6.061 5.060 C 4.473 3.470,4.543 3.558,4.505 3.083 C 4.475 2.697,4.404 2.511,4.218 2.326 C 4.144 2.251,1.193 0.121,1.028 0.021 C 1.009 0.010,0.801 0.199,0.498 0.502 M11.208 10.549 C 11.326 10.608,14.285 13.563,14.348 13.686 C 14.455 13.891,14.389 14.164,14.198 14.310 C 14.066 14.411,13.841 14.429,13.691 14.351 C 13.563 14.285,10.610 11.331,10.549 11.208 C 10.465 11.038,10.517 10.759,10.657 10.637 C 10.806 10.506,11.045 10.468,11.208 10.549 M3.253 11.133 C 3.467 11.241,3.511 11.253,3.676 11.253 C 3.987 11.253,3.997 11.258,4.151 11.502 C 4.274 11.696,4.313 11.735,4.503 11.853 C 4.741 12.002,4.747 12.012,4.747 12.324 C 4.747 12.489,4.759 12.532,4.870 12.753 L 4.993 12.998 4.870 13.246 C 4.759 13.468,4.747 13.513,4.747 13.677 C 4.747 13.990,4.741 14.001,4.503 14.148 C 4.310 14.267,4.276 14.302,4.142 14.513 L 3.993 14.747 3.744 14.747 C 3.502 14.747,3.490 14.750,3.262 14.867 C 3.134 14.933,3.016 14.987,3.000 14.987 C 2.984 14.987,2.866 14.933,2.738 14.867 C 2.510 14.750,2.498 14.747,2.256 14.747 L 2.007 14.747 1.858 14.513 C 1.724 14.302,1.690 14.267,1.497 14.148 C 1.259 14.001,1.253 13.990,1.253 13.677 C 1.253 13.513,1.241 13.468,1.130 13.246 L 1.007 12.998 1.130 12.753 C 1.241 12.532,1.253 12.489,1.253 12.324 C 1.253 12.012,1.259 12.002,1.497 11.853 C 1.687 11.735,1.726 11.696,1.849 11.502 C 2.003 11.258,2.011 11.254,2.330 11.252 C 2.501 11.251,2.543 11.239,2.747 11.133 C 2.871 11.069,2.983 11.015,2.994 11.015 C 3.005 11.014,3.122 11.067,3.253 11.133 " stroke="none" fill-rule="evenodd"></path></svg>