<svg width="16" height="16" fill="currentColor" xmlns="http://www.w3.org/2000/svg"><path d="M5.371 0.053 C 5.240 0.087,4.632 0.377,3.417 0.985 C 1.722 1.833,1.646 1.874,1.470 2.041 C 1.278 2.222,1.144 2.439,1.049 2.720 C 1.002 2.860,1.000 3.096,0.992 8.173 C 0.986 11.987,0.993 13.555,1.014 13.745 C 1.084 14.360,1.360 14.921,1.789 15.318 C 2.101 15.607,2.398 15.775,2.840 15.912 L 3.080 15.987 8.000 15.987 L 12.920 15.987 13.160 15.912 C 13.641 15.763,14.003 15.545,14.309 15.220 C 14.631 14.879,14.841 14.483,14.950 14.013 C 14.998 13.809,15.000 13.569,15.000 8.347 C 15.000 3.127,14.998 2.886,14.951 2.733 C 14.865 2.452,14.728 2.228,14.530 2.041 C 14.354 1.874,14.278 1.833,12.583 0.985 C 11.281 0.333,10.767 0.089,10.619 0.051 C 10.428 0.002,10.302 0.000,7.989 0.001 C 5.708 0.003,5.548 0.006,5.371 0.053 M12.100 1.864 C 13.035 2.332,13.826 2.743,13.859 2.777 C 14.006 2.936,14.000 2.818,14.000 5.679 C 14.000 7.132,13.991 8.320,13.980 8.319 C 13.969 8.319,13.750 8.255,13.493 8.177 L 13.027 8.036 13.012 6.425 C 13.003 5.378,12.988 4.785,12.969 4.733 C 12.878 4.477,12.738 4.291,12.539 4.164 C 12.271 3.991,12.510 4.000,8.000 4.000 C 3.490 4.000,3.729 3.991,3.461 4.164 C 3.262 4.291,3.122 4.477,3.031 4.733 C 3.012 4.785,2.997 5.378,2.988 6.425 L 2.973 8.036 2.507 8.177 C 2.250 8.255,2.031 8.319,2.020 8.319 C 2.009 8.320,2.000 7.129,2.001 5.673 C 2.001 3.157,2.004 3.021,2.050 2.920 C 2.077 2.861,2.128 2.788,2.163 2.756 C 2.198 2.724,2.983 2.320,3.907 1.857 L 5.587 1.016 7.993 1.015 L 10.400 1.013 12.100 1.864 M6.306 2.050 C 5.864 2.251,5.927 2.883,6.400 2.984 C 6.587 3.024,9.413 3.024,9.600 2.984 C 9.961 2.907,10.121 2.464,9.885 2.195 C 9.709 1.994,9.777 2.001,8.000 2.001 C 6.522 2.001,6.406 2.005,6.306 2.050 M7.493 6.012 L 7.493 7.010 6.900 7.019 L 6.307 7.029 5.227 7.355 C 4.633 7.535,4.114 7.693,4.073 7.706 L 4.000 7.731 4.000 6.372 L 4.000 5.013 5.747 5.013 L 7.493 5.013 7.493 6.012 M12.000 6.372 L 12.000 7.731 11.927 7.706 C 11.886 7.693,11.367 7.535,10.773 7.355 L 9.693 7.029 9.100 7.019 L 8.507 7.010 8.507 6.012 L 8.507 5.013 10.253 5.013 L 12.000 5.013 12.000 6.372 M7.493 11.508 L 7.493 15.016 5.367 15.007 C 3.400 14.999,3.229 14.995,3.093 14.950 C 2.557 14.773,2.148 14.335,2.039 13.820 C 2.008 13.673,2.001 13.255,2.000 11.506 L 2.000 9.373 4.273 8.689 L 6.547 8.005 7.020 8.002 L 7.493 8.000 7.493 11.508 M11.711 8.686 L 14.000 9.373 14.000 11.506 C 13.999 13.255,13.992 13.673,13.961 13.820 C 13.852 14.335,13.443 14.773,12.907 14.950 C 12.771 14.995,12.600 14.999,10.633 15.007 L 8.507 15.016 8.507 11.508 L 8.507 8.000 8.964 8.000 L 9.422 8.000 11.711 8.686 M3.290 10.051 C 3.039 10.165,2.930 10.492,3.061 10.737 C 3.107 10.823,3.273 10.957,3.354 10.975 C 3.394 10.984,3.440 10.995,3.456 11.000 C 3.472 11.005,3.542 10.997,3.611 10.982 C 3.961 10.907,4.117 10.459,3.885 10.195 C 3.724 10.011,3.498 9.956,3.290 10.051 M12.306 10.050 C 11.974 10.201,11.901 10.609,12.161 10.858 C 12.257 10.949,12.461 11.025,12.544 11.000 C 12.560 10.995,12.606 10.984,12.646 10.975 C 12.727 10.957,12.893 10.823,12.939 10.737 C 13.070 10.492,12.961 10.165,12.710 10.051 C 12.571 9.988,12.443 9.988,12.306 10.050 M3.734 12.043 C 3.363 12.143,3.088 12.447,3.016 12.840 C 2.937 13.267,3.184 13.722,3.600 13.916 C 3.725 13.974,3.784 13.984,4.000 13.984 C 4.216 13.984,4.275 13.974,4.400 13.916 C 4.816 13.722,5.063 13.267,4.984 12.840 C 4.911 12.441,4.636 12.141,4.254 12.041 C 4.061 11.991,3.926 11.991,3.734 12.043 M11.734 12.043 C 11.363 12.143,11.088 12.447,11.016 12.840 C 10.937 13.267,11.184 13.722,11.600 13.916 C 11.725 13.974,11.784 13.984,12.000 13.984 C 12.216 13.984,12.275 13.974,12.400 13.916 C 12.816 13.722,13.063 13.267,12.984 12.840 C 12.911 12.441,12.636 12.141,12.254 12.041 C 12.061 11.991,11.926 11.991,11.734 12.043 " stroke="none" fill-rule="evenodd"></path></svg>