<svg width="16" height="16" fill="currentColor" xmlns="http://www.w3.org/2000/svg"><path d="M6.306 0.050 C 5.975 0.201,5.901 0.609,6.161 0.857 C 6.300 0.989,6.431 1.013,7.015 1.013 L 7.493 1.013 7.493 1.520 L 7.493 2.027 7.327 2.027 C 7.115 2.027,6.406 2.092,5.853 2.161 C 4.896 2.282,2.962 2.631,2.639 2.743 C 2.028 2.953,1.527 3.402,1.252 3.987 C 1.102 4.306,1.050 4.490,1.014 4.827 C 0.976 5.192,0.977 13.457,1.016 13.773 C 1.088 14.363,1.361 14.912,1.777 15.308 C 2.077 15.593,2.396 15.774,2.840 15.912 L 3.080 15.987 8.000 15.987 L 12.920 15.987 13.160 15.912 C 13.602 15.775,13.899 15.607,14.211 15.318 C 14.631 14.929,14.911 14.369,14.984 13.773 C 15.023 13.457,15.024 5.192,14.986 4.827 C 14.949 4.477,14.897 4.301,14.732 3.960 C 14.454 3.386,13.966 2.951,13.367 2.744 C 13.042 2.632,11.114 2.283,10.147 2.161 C 9.594 2.092,8.885 2.027,8.673 2.027 L 8.507 2.027 8.507 1.520 L 8.507 1.013 8.985 1.013 C 9.569 1.013,9.700 0.989,9.839 0.857 C 10.099 0.609,10.025 0.201,9.694 0.050 C 9.594 0.005,9.478 0.001,8.000 0.001 C 6.522 0.001,6.406 0.005,6.306 0.050 M9.307 4.067 C 10.199 4.146,11.491 4.314,11.773 4.388 C 12.389 4.548,12.853 5.155,12.853 5.799 C 12.853 5.902,12.824 6.209,12.788 6.480 C 12.708 7.085,12.602 8.059,12.555 8.613 C 12.510 9.148,12.510 10.918,12.555 11.453 C 12.652 12.609,12.798 14.003,12.895 14.691 C 12.916 14.844,12.933 14.979,12.933 14.991 C 12.933 15.020,11.954 15.020,11.937 14.992 C 11.918 14.962,11.746 13.516,11.681 12.840 C 11.651 12.532,11.620 12.217,11.612 12.140 L 11.596 12.000 10.405 12.000 C 9.118 11.999,9.017 11.990,8.747 11.854 C 8.675 11.817,8.548 11.732,8.465 11.664 C 8.294 11.525,8.209 11.493,8.000 11.493 C 7.791 11.493,7.706 11.525,7.535 11.664 C 7.452 11.732,7.325 11.817,7.253 11.854 C 6.983 11.990,6.882 11.999,5.595 12.000 L 4.403 12.000 4.389 12.113 C 4.381 12.176,4.349 12.491,4.319 12.813 C 4.264 13.395,4.122 14.649,4.085 14.880 L 4.065 15.000 3.563 15.007 L 3.060 15.015 3.077 14.906 C 3.147 14.469,3.348 12.608,3.432 11.627 C 3.498 10.850,3.498 9.174,3.432 8.453 C 3.376 7.847,3.272 6.922,3.198 6.376 C 3.170 6.165,3.147 5.907,3.147 5.802 C 3.147 5.154,3.609 4.549,4.229 4.387 C 4.569 4.298,6.299 4.088,7.187 4.027 C 7.653 3.996,8.733 4.016,9.307 4.067 M7.160 5.030 C 6.444 5.086,5.122 5.240,4.657 5.320 C 4.401 5.365,4.267 5.446,4.190 5.607 C 4.135 5.721,4.117 5.873,4.150 5.958 C 4.164 5.996,4.528 6.000,8.000 6.000 C 11.472 6.000,11.836 5.996,11.850 5.958 C 11.912 5.798,11.813 5.529,11.653 5.423 C 11.515 5.332,10.884 5.233,9.538 5.090 C 9.050 5.039,7.537 5.000,7.160 5.030 M4.303 7.180 C 4.312 7.272,4.338 7.515,4.359 7.720 C 4.454 8.625,4.486 9.231,4.486 10.113 L 4.486 11.013 5.556 11.013 C 6.229 11.013,6.665 11.003,6.729 10.985 C 6.785 10.969,6.876 10.915,6.931 10.865 C 7.218 10.607,7.516 10.507,8.000 10.507 C 8.484 10.507,8.782 10.607,9.069 10.865 C 9.124 10.915,9.215 10.969,9.271 10.985 C 9.335 11.003,9.771 11.013,10.444 11.013 L 11.515 11.013 11.514 10.127 C 11.513 9.254,11.546 8.629,11.641 7.720 C 11.662 7.515,11.688 7.272,11.697 7.180 L 11.714 7.013 8.000 7.013 L 4.286 7.013 4.303 7.180 M5.732 13.066 C 5.846 13.124,5.939 13.229,5.963 13.324 C 5.972 13.359,5.989 13.387,6.000 13.387 C 6.011 13.387,6.028 13.359,6.037 13.324 C 6.094 13.094,6.433 12.947,6.685 13.042 C 7.109 13.202,7.077 13.846,6.639 13.977 C 6.407 14.046,6.129 13.911,6.049 13.691 C 6.031 13.641,6.009 13.600,6.000 13.600 C 5.991 13.600,5.969 13.641,5.951 13.691 C 5.845 13.983,5.442 14.089,5.190 13.891 C 5.032 13.767,4.961 13.458,5.051 13.285 C 5.092 13.207,5.208 13.091,5.293 13.044 C 5.381 12.996,5.617 13.008,5.732 13.066 M9.732 13.066 C 9.846 13.124,9.939 13.229,9.963 13.324 C 9.972 13.359,9.989 13.387,10.000 13.387 C 10.011 13.387,10.028 13.359,10.037 13.324 C 10.094 13.094,10.433 12.947,10.685 13.042 C 11.109 13.202,11.077 13.846,10.639 13.977 C 10.407 14.046,10.129 13.911,10.049 13.691 C 10.031 13.641,10.009 13.600,10.000 13.600 C 9.991 13.600,9.969 13.641,9.951 13.691 C 9.845 13.983,9.442 14.089,9.190 13.891 C 9.032 13.767,8.961 13.458,9.051 13.285 C 9.092 13.207,9.208 13.091,9.293 13.044 C 9.381 12.996,9.617 13.008,9.732 13.066 " stroke="none" fill-rule="evenodd"></path></svg>