<svg width="16" height="16" fill="currentColor" xmlns="http://www.w3.org/2000/svg"><path d="M6.773 1.043 C 4.617 1.202,2.901 1.725,2.267 2.417 C 2.080 2.622,2.017 2.766,2.015 2.987 C 2.014 3.201,3.710 13.348,3.790 13.603 C 4.024 14.351,4.694 14.895,5.495 14.987 C 5.623 15.002,6.702 15.013,8.000 15.013 C 9.298 15.013,10.377 15.002,10.505 14.987 C 11.303 14.895,11.951 14.375,12.199 13.627 C 12.294 13.342,14.010 3.041,13.987 2.894 C 13.911 2.403,13.266 1.927,12.198 1.576 C 11.381 1.307,10.359 1.127,9.160 1.040 C 8.723 1.009,7.216 1.011,6.773 1.043 M8.880 2.027 C 10.387 2.112,11.639 2.365,12.447 2.748 C 12.798 2.913,12.893 2.979,12.852 3.028 C 12.801 3.090,12.535 3.228,12.238 3.348 C 11.553 3.623,10.641 3.819,9.493 3.938 C 8.866 4.003,7.128 4.003,6.507 3.938 C 5.372 3.820,4.486 3.631,3.786 3.359 C 3.493 3.245,3.204 3.095,3.150 3.030 C 3.107 2.979,3.196 2.916,3.553 2.748 C 4.699 2.204,6.854 1.913,8.880 2.027 " stroke="none" fill-rule="evenodd"></path></svg>