<svg width="16" height="16" fill="currentColor" xmlns="http://www.w3.org/2000/svg"><path d="M6.773 1.043 C 4.617 1.202,2.901 1.725,2.267 2.417 C 2.080 2.622,2.017 2.766,2.015 2.987 C 2.014 3.201,3.710 13.348,3.790 13.603 C 4.024 14.351,4.694 14.895,5.495 14.987 C 5.623 15.002,6.702 15.013,8.000 15.013 C 9.298 15.013,10.377 15.002,10.505 14.987 C 11.303 14.895,11.951 14.375,12.199 13.627 C 12.294 13.342,14.010 3.041,13.987 2.894 C 13.911 2.403,13.266 1.927,12.198 1.576 C 11.381 1.307,10.359 1.127,9.160 1.040 C 8.723 1.009,7.216 1.011,6.773 1.043 M3.733 4.404 C 6.189 5.248,10.347 5.185,12.633 4.270 C 12.710 4.239,12.773 4.226,12.773 4.241 C 12.773 4.255,12.436 6.292,12.024 8.767 C 11.433 12.318,11.262 13.296,11.212 13.407 C 11.123 13.606,10.913 13.817,10.713 13.910 L 10.547 13.987 8.000 13.987 L 5.453 13.987 5.287 13.910 C 5.087 13.817,4.877 13.606,4.788 13.407 C 4.738 13.296,4.567 12.318,3.976 8.767 C 3.564 6.292,3.227 4.255,3.227 4.241 C 3.227 4.226,3.290 4.239,3.367 4.270 C 3.444 4.301,3.609 4.361,3.733 4.404 " stroke="none" fill-rule="evenodd"></path></svg>