<svg width="16" height="16" fill="currentColor" xmlns="http://www.w3.org/2000/svg"><path d="M1.667 0.016 C 1.637 0.022,1.547 0.040,1.467 0.056 C 1.294 0.091,0.987 0.227,0.815 0.345 C 0.538 0.536,0.284 0.852,0.151 1.173 C -0.008 1.556,0.001 1.152,0.001 8.013 C 0.000 14.168,0.002 14.311,0.053 14.524 C 0.229 15.260,0.791 15.805,1.533 15.960 C 1.814 16.019,14.186 16.019,14.467 15.960 C 15.214 15.804,15.789 15.236,15.957 14.488 C 15.996 14.314,16.000 13.697,16.000 8.008 C 15.999 1.154,16.008 1.556,15.849 1.173 C 15.628 0.638,15.182 0.246,14.580 0.058 C 14.452 0.018,13.902 0.014,8.080 0.010 C 4.582 0.008,1.696 0.011,1.667 0.016 M6.594 2.999 C 6.739 3.060,6.855 3.172,6.924 3.319 L 6.986 3.453 6.986 7.488 C 6.987 10.812,6.980 11.537,6.951 11.608 C 6.892 11.747,6.771 11.870,6.628 11.937 L 6.493 11.999 4.997 12.000 C 3.344 12.000,3.354 12.001,3.178 11.832 C 3.129 11.785,3.063 11.699,3.031 11.640 L 2.973 11.533 2.965 7.587 C 2.961 5.416,2.965 3.577,2.974 3.500 C 2.997 3.303,3.120 3.130,3.303 3.034 L 3.446 2.960 4.973 2.960 C 6.253 2.960,6.515 2.966,6.594 2.999 M12.647 2.999 C 12.793 3.060,12.909 3.172,12.977 3.319 L 13.039 3.453 13.040 5.735 L 13.040 8.016 12.971 8.156 C 12.890 8.318,12.773 8.416,12.597 8.469 C 12.415 8.524,9.641 8.524,9.460 8.470 C 9.286 8.418,9.184 8.336,9.093 8.178 L 9.014 8.040 9.014 5.739 C 9.013 3.201,9.005 3.336,9.181 3.150 C 9.367 2.954,9.301 2.961,11.017 2.961 C 12.306 2.960,12.569 2.966,12.647 2.999 " stroke="none" fill-rule="evenodd"></path></svg>