<svg width="16" height="16" fill="currentColor" xmlns="http://www.w3.org/2000/svg"><path d="M7.661 1.051 C 7.493 1.105,7.335 1.207,7.195 1.351 C 7.102 1.447,6.188 2.981,3.599 7.387 C 1.690 10.635,0.103 13.353,0.072 13.427 C -0.009 13.620,-0.007 14.034,0.075 14.243 C 0.206 14.575,0.482 14.841,0.809 14.953 C 0.939 14.997,1.345 15.000,7.880 15.007 C 12.672 15.012,14.871 15.006,15.000 14.986 C 15.724 14.877,16.175 14.146,15.938 13.467 C 15.877 13.290,9.069 1.674,8.894 1.446 C 8.778 1.297,8.634 1.182,8.453 1.097 C 8.332 1.040,8.261 1.027,8.040 1.021 C 7.868 1.017,7.734 1.027,7.661 1.051 M8.115 2.087 C 8.150 2.134,9.711 4.780,11.583 7.967 C 14.003 12.086,14.987 13.783,14.987 13.838 C 14.987 13.881,14.968 13.935,14.945 13.958 C 14.907 13.996,14.240 14.000,8.007 14.000 C 1.627 14.000,1.107 13.997,1.062 13.956 C 1.035 13.932,1.013 13.879,1.013 13.839 C 1.013 13.791,2.167 11.804,4.443 7.930 C 6.329 4.720,7.891 2.072,7.914 2.047 C 7.976 1.977,8.043 1.990,8.115 2.087 " stroke="none" fill-rule="evenodd"></path></svg>