<svg width="16" height="16" fill="currentColor" xmlns="http://www.w3.org/2000/svg"><path d="M11.290 4.051 C 11.155 4.113,11.052 4.243,11.015 4.401 C 10.998 4.478,10.988 5.474,10.987 7.260 L 10.987 10.000 5.492 10.000 L -0.004 10.000 0.005 10.620 C 0.013 11.235,0.014 11.241,0.088 11.400 C 0.230 11.703,0.551 11.949,0.860 11.990 C 1.001 12.009,0.998 12.004,1.025 12.273 C 1.099 13.017,1.673 13.680,2.454 13.924 C 2.741 14.014,3.259 14.014,3.546 13.924 C 4.327 13.680,4.901 13.017,4.975 12.273 C 4.983 12.189,4.996 12.093,5.002 12.060 L 5.014 12.000 7.507 12.000 L 10.000 12.000 10.000 12.094 C 10.000 12.244,10.075 12.570,10.156 12.767 C 10.347 13.238,10.762 13.653,11.233 13.844 C 12.407 14.322,13.702 13.630,13.959 12.388 C 13.982 12.278,14.000 12.148,14.000 12.098 L 14.000 12.006 14.407 11.993 C 14.734 11.982,14.846 11.968,14.979 11.921 C 15.407 11.769,15.763 11.415,15.924 10.979 C 15.984 10.816,15.985 10.793,15.994 9.499 C 16.004 8.059,16.001 8.030,15.843 7.693 C 15.753 7.502,14.218 5.574,13.999 5.378 C 13.920 5.307,13.786 5.213,13.701 5.171 C 13.425 5.031,13.302 5.013,12.621 5.013 L 12.000 5.013 12.000 4.727 C 12.000 4.380,11.974 4.277,11.860 4.167 C 11.690 4.002,11.488 3.961,11.290 4.051 M13.193 6.041 C 13.247 6.064,13.315 6.103,13.343 6.128 C 13.414 6.190,14.868 8.005,14.934 8.113 C 14.984 8.196,14.986 8.251,14.987 9.405 C 14.987 10.192,14.977 10.636,14.958 10.685 C 14.943 10.726,14.898 10.794,14.858 10.836 C 14.719 10.983,14.663 10.998,14.186 11.008 L 13.746 11.018 13.661 10.889 C 13.535 10.694,13.253 10.427,13.039 10.298 C 12.803 10.157,12.449 10.037,12.193 10.013 L 12.000 9.995 12.000 7.997 L 12.000 6.000 12.548 6.000 C 12.980 6.000,13.116 6.009,13.193 6.041 M3.446 11.114 C 4.160 11.466,4.177 12.500,3.475 12.873 C 2.661 13.306,1.763 12.528,2.067 11.653 C 2.156 11.398,2.357 11.192,2.633 11.077 C 2.764 11.022,2.823 11.013,3.027 11.019 C 3.237 11.026,3.291 11.038,3.446 11.114 M12.431 11.101 C 12.608 11.188,12.833 11.417,12.915 11.593 C 12.963 11.698,12.973 11.768,12.973 12.000 C 12.973 12.251,12.966 12.295,12.901 12.428 C 12.707 12.821,12.268 13.054,11.848 12.986 C 11.533 12.935,11.241 12.717,11.101 12.430 C 11.009 12.243,10.986 11.920,11.050 11.701 C 11.130 11.427,11.385 11.160,11.662 11.061 C 11.873 10.986,12.234 11.005,12.431 11.101 " stroke="none" fill-rule="evenodd"></path></svg>