<svg width="16" height="16" fill="currentColor" xmlns="http://www.w3.org/2000/svg"><path d="M1.179 2.040 C 0.618 2.163,0.189 2.585,0.041 3.159 C -0.019 3.393,-0.021 10.627,0.040 10.853 C 0.149 11.264,0.455 11.653,0.800 11.821 L 0.978 11.907 1.007 12.160 C 1.063 12.652,1.228 13.023,1.542 13.363 C 2.108 13.975,2.967 14.164,3.760 13.850 C 4.133 13.703,4.513 13.373,4.727 13.010 C 4.838 12.823,4.945 12.514,4.972 12.307 C 4.981 12.233,4.995 12.134,5.002 12.087 L 5.016 12.000 7.508 12.000 L 10.000 12.000 10.000 12.094 C 10.000 12.244,10.075 12.570,10.156 12.767 C 10.347 13.238,10.762 13.653,11.233 13.844 C 12.407 14.322,13.702 13.630,13.959 12.388 C 13.982 12.278,14.000 12.148,14.000 12.098 L 14.000 12.006 14.407 11.993 C 14.734 11.982,14.846 11.968,14.979 11.921 C 15.407 11.769,15.763 11.415,15.924 10.979 C 15.984 10.816,15.985 10.793,15.994 9.499 C 16.004 8.059,16.001 8.030,15.843 7.693 C 15.753 7.502,14.218 5.574,13.999 5.378 C 13.920 5.307,13.786 5.213,13.701 5.171 C 13.426 5.031,13.301 5.013,12.623 5.013 L 12.004 5.013 11.994 4.100 C 11.984 3.230,11.981 3.179,11.923 3.021 C 11.762 2.580,11.398 2.221,10.962 2.073 L 10.787 2.013 6.067 2.009 C 2.149 2.005,1.318 2.010,1.179 2.040 M10.701 3.050 C 10.805 3.094,10.920 3.213,10.958 3.315 C 10.978 3.367,10.987 4.466,10.987 6.835 L 10.987 10.280 10.872 10.353 C 10.721 10.448,10.444 10.727,10.340 10.887 L 10.258 11.013 7.505 11.013 L 4.751 11.013 4.630 10.843 C 4.022 9.991,2.857 9.753,1.957 10.297 C 1.756 10.419,1.534 10.621,1.397 10.807 L 1.283 10.961 1.187 10.877 C 0.999 10.712,1.013 11.023,1.013 7.000 C 1.013 3.916,1.019 3.346,1.051 3.285 C 1.092 3.207,1.208 3.091,1.293 3.044 C 1.332 3.023,2.653 3.015,5.981 3.014 C 9.858 3.013,10.629 3.019,10.701 3.050 M13.193 6.041 C 13.247 6.064,13.315 6.103,13.343 6.128 C 13.414 6.190,14.868 8.005,14.934 8.113 C 14.984 8.196,14.986 8.251,14.987 9.405 C 14.987 10.192,14.977 10.636,14.958 10.685 C 14.943 10.726,14.898 10.794,14.858 10.836 C 14.719 10.983,14.663 10.998,14.186 11.008 L 13.746 11.018 13.661 10.889 C 13.535 10.694,13.253 10.427,13.039 10.298 C 12.803 10.157,12.449 10.037,12.193 10.013 L 12.000 9.995 12.000 7.997 L 12.000 6.000 12.548 6.000 C 12.980 6.000,13.116 6.009,13.193 6.041 M3.446 11.114 C 4.160 11.466,4.177 12.500,3.475 12.873 C 2.661 13.306,1.763 12.528,2.067 11.653 C 2.156 11.398,2.357 11.192,2.633 11.077 C 2.764 11.022,2.823 11.013,3.027 11.019 C 3.237 11.026,3.291 11.038,3.446 11.114 M12.431 11.101 C 12.608 11.188,12.833 11.417,12.915 11.593 C 12.963 11.698,12.973 11.768,12.973 12.000 C 12.973 12.251,12.966 12.295,12.901 12.428 C 12.707 12.821,12.268 13.054,11.848 12.986 C 11.533 12.935,11.241 12.717,11.101 12.430 C 11.009 12.243,10.986 11.920,11.050 11.701 C 11.130 11.427,11.385 11.160,11.662 11.061 C 11.873 10.986,12.234 11.005,12.431 11.101 " stroke="none" fill-rule="evenodd"></path></svg>