<svg width="16" height="16" fill="currentColor" xmlns="http://www.w3.org/2000/svg"><path d="M3.120 0.031 C 2.863 0.067,2.455 0.216,2.208 0.363 C 1.973 0.504,1.584 0.864,1.445 1.070 C 1.225 1.397,1.065 1.828,1.016 2.227 C 0.976 2.558,0.975 11.390,1.015 11.753 C 1.061 12.162,1.219 12.594,1.445 12.930 C 1.491 12.998,1.634 13.158,1.764 13.286 L 2.000 13.519 2.000 14.539 C 2.000 15.125,2.011 15.600,2.026 15.654 C 2.059 15.772,2.227 15.939,2.348 15.974 C 2.402 15.989,2.888 16.000,3.520 15.999 C 4.728 15.999,4.745 15.996,4.888 15.809 C 4.996 15.668,5.012 15.532,5.013 14.740 L 5.013 14.000 8.000 14.000 L 10.987 14.000 10.987 14.740 C 10.988 15.532,11.004 15.668,11.112 15.809 C 11.255 15.996,11.272 15.999,12.480 15.999 C 13.107 16.000,13.600 15.989,13.654 15.974 C 13.772 15.941,13.939 15.773,13.974 15.652 C 13.989 15.599,14.000 15.128,14.000 14.534 L 14.000 13.507 14.175 13.350 C 14.622 12.951,14.916 12.370,14.985 11.753 C 15.025 11.390,15.024 2.558,14.984 2.227 C 14.865 1.255,14.222 0.453,13.314 0.145 C 13.170 0.096,12.959 0.044,12.845 0.028 C 12.581 -0.007,3.375 -0.005,3.120 0.031 M12.880 1.053 C 13.410 1.194,13.849 1.652,13.961 2.180 C 14.018 2.449,14.018 11.551,13.961 11.820 C 13.850 12.342,13.431 12.786,12.893 12.951 C 12.741 12.998,12.519 13.000,8.000 13.000 C 3.481 13.000,3.259 12.998,3.107 12.951 C 2.569 12.786,2.150 12.342,2.039 11.820 C 1.982 11.551,1.982 2.449,2.039 2.180 C 2.150 1.658,2.587 1.197,3.108 1.054 C 3.313 0.998,12.669 0.997,12.880 1.053 M3.734 2.043 C 3.363 2.142,3.088 2.447,3.016 2.839 C 2.996 2.944,2.987 3.655,2.987 4.958 C 2.988 7.307,2.983 7.268,3.272 7.577 C 3.431 7.746,3.588 7.835,3.813 7.882 C 3.989 7.918,4.024 7.916,4.512 7.842 C 6.307 7.570,7.572 7.468,8.540 7.519 C 9.405 7.565,10.319 7.665,11.484 7.842 C 11.922 7.908,12.017 7.915,12.151 7.890 C 12.381 7.848,12.562 7.751,12.717 7.588 C 12.869 7.426,12.943 7.280,12.985 7.050 C 13.024 6.837,13.024 3.053,12.984 2.839 C 12.931 2.552,12.775 2.315,12.539 2.164 C 12.270 1.991,12.512 2.000,7.988 2.002 C 4.462 2.003,3.859 2.009,3.734 2.043 M12.000 4.963 L 12.000 6.913 11.917 6.897 C 11.549 6.823,10.097 6.640,9.213 6.555 C 8.762 6.511,7.238 6.511,6.787 6.555 C 5.903 6.640,4.451 6.823,4.083 6.897 L 4.000 6.913 4.000 4.963 L 4.000 3.013 8.000 3.013 L 12.000 3.013 12.000 4.963 M3.734 10.043 C 3.363 10.143,3.088 10.447,3.016 10.840 C 2.937 11.267,3.184 11.722,3.600 11.916 C 3.725 11.974,3.784 11.984,4.000 11.984 C 4.216 11.984,4.275 11.974,4.400 11.916 C 4.816 11.722,5.063 11.267,4.984 10.840 C 4.911 10.441,4.636 10.141,4.254 10.041 C 4.061 9.991,3.926 9.991,3.734 10.043 M6.767 10.028 C 6.485 10.097,6.229 10.310,6.096 10.587 C 6.022 10.741,6.013 10.786,6.013 11.000 C 6.013 11.207,6.024 11.262,6.089 11.403 C 6.184 11.609,6.390 11.814,6.600 11.912 L 6.760 11.987 8.000 11.987 L 9.240 11.987 9.403 11.911 C 9.609 11.816,9.814 11.610,9.912 11.400 C 9.976 11.262,9.987 11.207,9.987 11.000 C 9.987 10.793,9.976 10.738,9.912 10.600 C 9.814 10.390,9.609 10.184,9.403 10.089 L 9.240 10.013 8.053 10.009 C 7.401 10.006,6.822 10.015,6.767 10.028 M11.734 10.043 C 11.363 10.143,11.088 10.447,11.016 10.840 C 10.937 11.267,11.184 11.722,11.600 11.916 C 11.725 11.974,11.784 11.984,12.000 11.984 C 12.216 11.984,12.275 11.974,12.400 11.916 C 12.816 11.722,13.063 11.267,12.984 10.840 C 12.911 10.441,12.636 10.141,12.254 10.041 C 12.061 9.991,11.926 9.991,11.734 10.043 " stroke="none" fill-rule="evenodd"></path></svg>