<svg width="16" height="16" fill="currentColor" xmlns="http://www.w3.org/2000/svg"><path d="M4.306 3.793 C 4.159 4.190,1.013 13.051,1.013 13.068 C 1.013 13.083,1.259 13.093,1.625 13.093 L 2.236 13.093 2.288 12.953 C 2.316 12.876,2.528 12.246,2.759 11.553 L 3.178 10.293 4.919 10.293 L 6.661 10.293 6.847 10.833 C 6.949 11.130,7.161 11.760,7.318 12.233 L 7.604 13.093 8.229 13.093 C 8.572 13.093,8.853 13.086,8.853 13.077 C 8.853 13.065,5.619 3.964,5.559 3.807 C 5.543 3.764,5.487 3.760,4.930 3.760 C 4.465 3.760,4.315 3.768,4.306 3.793 M5.635 7.220 C 6.013 8.346,6.321 9.276,6.321 9.287 C 6.320 9.307,3.520 9.316,3.520 9.296 C 3.520 9.287,4.855 5.312,4.893 5.207 C 4.900 5.188,4.915 5.173,4.927 5.173 C 4.940 5.173,5.258 6.094,5.635 7.220 M12.044 5.817 C 10.933 5.959,10.193 6.596,9.987 7.587 C 9.965 7.689,9.947 7.812,9.947 7.860 L 9.947 7.947 10.503 7.947 L 11.059 7.947 11.075 7.810 C 11.100 7.600,11.229 7.353,11.406 7.177 C 11.684 6.899,12.041 6.774,12.560 6.774 C 13.067 6.774,13.437 6.900,13.697 7.161 C 13.989 7.452,14.080 7.769,14.080 8.490 L 14.080 8.955 12.860 8.967 C 11.725 8.978,11.622 8.983,11.374 9.038 C 10.354 9.264,9.768 9.870,9.684 10.786 C 9.641 11.253,9.710 11.643,9.905 12.041 C 10.239 12.723,10.952 13.143,11.853 13.191 C 12.757 13.239,13.557 12.921,13.973 12.350 C 14.039 12.260,14.101 12.187,14.113 12.187 C 14.124 12.187,14.133 12.391,14.133 12.640 L 14.133 13.093 14.694 13.093 L 15.255 13.093 15.247 10.393 C 15.239 7.696,15.239 7.693,15.180 7.480 C 14.926 6.566,14.218 5.983,13.173 5.825 C 12.898 5.784,12.335 5.780,12.044 5.817 M14.080 10.367 C 14.079 10.713,14.067 10.918,14.040 11.034 C 13.915 11.562,13.479 11.986,12.893 12.148 C 12.651 12.215,12.155 12.229,11.915 12.176 C 11.528 12.090,11.192 11.866,11.027 11.585 C 10.855 11.291,10.830 10.783,10.974 10.489 C 11.073 10.287,11.244 10.121,11.452 10.024 C 11.747 9.885,11.886 9.872,13.033 9.869 L 14.080 9.867 14.080 10.367 " stroke="none" fill-rule="evenodd"></path></svg>