<svg width="16" height="16" fill="currentColor" xmlns="http://www.w3.org/2000/svg"><path d="M7.960 3.005 C 7.251 3.095,6.579 3.344,6.127 3.682 C 5.887 3.862,5.555 4.221,5.424 4.442 C 5.160 4.889,5.053 5.322,5.076 5.853 C 5.084 6.044,5.107 6.266,5.126 6.347 L 5.161 6.493 5.874 6.500 C 6.266 6.504,6.587 6.502,6.587 6.495 C 6.587 6.488,6.552 6.427,6.509 6.360 C 6.384 6.162,6.338 5.943,6.352 5.607 C 6.362 5.349,6.373 5.296,6.450 5.132 C 6.568 4.880,6.711 4.698,6.908 4.550 C 7.657 3.987,9.009 3.922,9.863 4.408 C 10.323 4.670,10.668 5.171,10.735 5.674 L 10.754 5.813 11.379 5.813 L 12.005 5.813 11.988 5.673 C 11.956 5.416,11.917 5.242,11.838 4.999 C 11.502 3.970,10.510 3.216,9.245 3.028 C 8.989 2.990,8.189 2.976,7.960 3.005 M0.999 7.528 C 0.991 7.546,0.989 7.771,0.993 8.028 L 1.000 8.493 4.600 8.507 L 8.200 8.520 8.680 8.634 C 9.566 8.844,9.853 8.943,10.197 9.158 C 10.723 9.485,10.973 10.005,10.884 10.582 C 10.824 10.968,10.568 11.364,10.223 11.602 C 9.917 11.814,9.493 11.967,9.046 12.028 C 8.740 12.069,8.123 12.049,7.831 11.987 C 6.881 11.788,6.272 11.281,6.093 10.540 L 6.046 10.347 5.433 10.347 L 4.819 10.347 4.836 10.508 C 4.953 11.628,5.742 12.529,6.957 12.930 C 7.718 13.181,8.751 13.234,9.583 13.065 C 11.001 12.776,11.890 11.969,12.121 10.763 C 12.176 10.472,12.176 9.913,12.119 9.639 C 12.037 9.238,11.882 8.924,11.624 8.630 L 11.516 8.507 13.258 8.500 L 15.000 8.493 15.000 8.000 L 15.000 7.507 8.006 7.500 C 2.323 7.494,1.009 7.500,0.999 7.528 " stroke="none" fill-rule="evenodd"></path></svg>