<svg width="16" height="16" fill="currentColor" xmlns="http://www.w3.org/2000/svg"><path d="M11.364 0.028 C 11.149 0.067,10.833 0.179,10.645 0.284 C 10.109 0.582,9.738 1.046,9.556 1.645 C 9.493 1.850,9.484 1.927,9.482 2.253 C 9.480 2.683,9.519 2.869,9.680 3.218 C 9.894 3.680,10.205 4.018,10.640 4.261 C 11.755 4.885,13.193 4.440,13.762 3.293 C 13.942 2.930,14.004 2.678,14.006 2.293 C 14.011 1.595,13.724 0.978,13.186 0.525 C 12.975 0.348,12.560 0.135,12.293 0.068 C 12.085 0.015,11.562 -0.007,11.364 0.028 M7.987 0.257 C 7.943 0.262,7.793 0.280,7.653 0.296 C 5.694 0.519,3.806 1.619,2.599 3.240 C 2.401 3.506,2.107 3.953,2.107 3.986 C 2.107 3.994,2.200 4.000,2.313 4.000 C 2.787 4.001,3.296 4.127,3.757 4.359 L 3.998 4.479 4.152 4.274 C 5.084 3.035,6.619 2.210,8.166 2.116 L 8.452 2.099 8.465 2.016 C 8.472 1.971,8.485 1.873,8.494 1.800 C 8.542 1.402,8.772 0.804,9.013 0.450 C 9.072 0.364,9.120 0.282,9.120 0.267 C 9.120 0.242,8.188 0.234,7.987 0.257 M14.682 3.728 C 14.468 4.166,14.004 4.711,13.646 4.947 C 13.561 5.003,13.497 5.062,13.504 5.078 C 13.511 5.094,13.584 5.261,13.666 5.450 C 13.845 5.859,13.972 6.287,14.056 6.760 C 14.144 7.256,14.144 8.072,14.056 8.573 C 13.942 9.221,13.729 9.833,13.438 10.352 L 13.308 10.584 13.542 10.818 C 13.894 11.173,14.197 11.665,14.336 12.113 C 14.362 12.198,14.390 12.267,14.398 12.266 C 14.421 12.266,14.804 11.719,14.940 11.491 C 15.333 10.837,15.660 10.016,15.823 9.280 C 15.962 8.652,15.986 8.408,15.986 7.667 C 15.986 6.927,15.962 6.688,15.824 6.053 C 15.723 5.590,15.486 4.914,15.266 4.459 C 15.082 4.078,14.823 3.617,14.777 3.589 C 14.766 3.582,14.723 3.645,14.682 3.728 M1.853 5.027 C 1.013 5.186,0.356 5.778,0.093 6.613 C -0.004 6.922,-0.026 7.361,0.038 7.681 C 0.257 8.762,1.173 9.521,2.260 9.522 C 2.881 9.522,3.390 9.320,3.836 8.895 C 4.546 8.220,4.743 7.190,4.334 6.302 C 3.904 5.371,2.864 4.836,1.853 5.027 M3.453 10.297 C 3.026 10.471,2.432 10.556,1.984 10.508 C 1.828 10.491,1.696 10.482,1.691 10.487 C 1.685 10.493,1.788 10.712,1.918 10.975 C 2.175 11.490,2.443 11.915,2.767 12.319 C 4.095 13.975,6.113 14.998,8.222 15.085 L 8.618 15.102 8.499 14.918 C 8.190 14.439,8.015 13.935,7.981 13.433 C 7.972 13.305,7.958 13.200,7.949 13.200 C 7.861 13.199,7.363 13.102,7.121 13.037 C 5.815 12.691,4.691 11.883,3.935 10.747 C 3.842 10.607,3.738 10.435,3.704 10.366 C 3.670 10.297,3.630 10.241,3.615 10.241 C 3.599 10.242,3.527 10.267,3.453 10.297 M10.849 10.881 C 10.231 10.985,9.664 11.359,9.321 11.890 C 8.351 13.388,9.435 15.385,11.218 15.386 C 12.003 15.387,12.710 15.004,13.142 14.344 C 13.371 13.995,13.492 13.570,13.492 13.120 C 13.492 12.480,13.274 11.961,12.814 11.507 C 12.492 11.188,12.114 10.986,11.674 10.895 C 11.460 10.852,11.063 10.844,10.849 10.881 " stroke="none" fill-rule="evenodd"></path></svg>