<svg width="16" height="16" fill="currentColor" xmlns="http://www.w3.org/2000/svg"><path d="M7.800 0.050 C 7.563 0.160,7.493 0.312,7.493 0.717 L 7.493 1.009 7.340 1.025 C 5.981 1.164,5.065 1.414,4.050 1.922 C 3.170 2.362,2.498 2.852,1.855 3.524 C 0.729 4.699,0.087 6.151,0.008 7.697 C -0.003 7.929,0.002 8.059,0.027 8.147 C 0.099 8.403,0.338 8.547,0.587 8.482 C 0.714 8.449,0.751 8.426,1.081 8.176 C 1.294 8.014,1.664 7.806,1.913 7.709 C 2.898 7.323,4.029 7.502,4.931 8.184 C 5.223 8.406,5.287 8.445,5.408 8.482 C 5.557 8.526,5.694 8.473,5.965 8.262 C 6.218 8.066,6.400 7.948,6.615 7.839 C 6.782 7.755,7.251 7.592,7.407 7.563 L 7.495 7.548 7.487 10.674 L 7.480 13.800 7.405 14.013 C 7.164 14.696,6.736 14.995,6.000 14.995 C 5.262 14.995,4.829 14.692,4.598 14.013 C 4.534 13.825,4.523 13.745,4.508 13.333 C 4.496 12.977,4.481 12.848,4.448 12.787 C 4.238 12.399,3.729 12.414,3.544 12.813 C 3.504 12.899,3.494 12.986,3.494 13.253 C 3.492 14.642,4.141 15.610,5.278 15.914 C 5.503 15.974,5.588 15.982,5.987 15.983 C 6.517 15.985,6.761 15.938,7.142 15.759 C 7.787 15.457,8.197 14.928,8.422 14.109 L 8.493 13.853 8.501 10.701 L 8.509 7.548 8.594 7.564 C 8.749 7.592,9.219 7.755,9.385 7.839 C 9.613 7.954,9.822 8.090,10.044 8.268 C 10.296 8.469,10.443 8.526,10.592 8.482 C 10.714 8.445,10.775 8.407,11.085 8.172 C 11.299 8.009,11.652 7.812,11.913 7.709 C 12.898 7.321,14.084 7.514,14.960 8.203 C 15.207 8.397,15.293 8.450,15.419 8.483 C 15.661 8.547,15.902 8.401,15.973 8.147 C 16.037 7.920,15.969 7.145,15.835 6.573 C 15.805 6.441,15.726 6.177,15.661 5.987 C 14.931 3.847,13.056 2.137,10.620 1.390 C 10.058 1.217,9.473 1.108,8.660 1.025 L 8.507 1.009 8.506 0.711 C 8.506 0.479,8.495 0.390,8.456 0.307 C 8.336 0.045,8.051 -0.066,7.800 0.050 " stroke="none" fill-rule="evenodd"></path></svg>