<svg width="16" height="16" fill="currentColor" xmlns="http://www.w3.org/2000/svg"><path d="M10.528 0.041 C 9.268 0.238,8.261 1.236,8.043 2.505 C 8.006 2.722,8.000 3.045,8.000 4.885 L 8.000 7.013 5.364 7.013 C 2.823 7.013,2.721 7.015,2.518 7.066 C 1.947 7.210,1.468 7.596,1.215 8.120 C 0.989 8.585,1.003 8.378,0.993 11.307 C 0.987 12.993,0.993 13.997,1.012 14.165 C 1.105 15.028,1.626 15.664,2.454 15.924 L 2.653 15.987 6.000 15.987 L 9.347 15.987 9.546 15.924 C 10.374 15.664,10.895 15.028,10.988 14.165 C 11.007 13.997,11.013 12.993,11.007 11.307 C 10.997 8.378,11.011 8.585,10.785 8.120 C 10.596 7.730,10.292 7.420,9.907 7.227 C 9.666 7.106,9.335 7.013,9.142 7.013 L 9.013 7.013 9.013 4.871 C 9.013 2.822,9.016 2.719,9.066 2.518 C 9.378 1.276,10.759 0.649,11.907 1.227 C 12.413 1.482,12.794 1.960,12.934 2.518 C 12.984 2.719,12.987 2.822,12.987 4.843 C 12.987 6.289,12.996 7.001,13.016 7.095 C 13.052 7.260,13.186 7.422,13.325 7.468 C 13.560 7.546,13.840 7.434,13.943 7.220 C 14.000 7.104,14.000 7.090,14.000 4.928 C 14.000 3.121,13.993 2.715,13.960 2.526 C 13.672 0.870,12.173 -0.215,10.528 0.041 " stroke="none" fill-rule="evenodd"></path></svg>