<svg width="16" height="16" fill="currentColor" xmlns="http://www.w3.org/2000/svg"><path d="M3.290 4.051 C 3.155 4.113,3.052 4.243,3.015 4.401 C 2.976 4.572,2.976 11.416,3.016 11.600 C 3.072 11.863,3.316 12.029,3.587 11.988 C 3.744 11.965,3.932 11.803,3.973 11.657 C 4.009 11.526,4.010 4.477,3.973 4.345 C 3.925 4.170,3.684 3.999,3.488 4.001 C 3.439 4.001,3.351 4.024,3.290 4.051 M5.290 4.051 C 5.155 4.113,5.052 4.243,5.015 4.401 C 4.976 4.572,4.976 11.416,5.016 11.600 C 5.072 11.863,5.316 12.029,5.587 11.988 C 5.744 11.965,5.932 11.803,5.973 11.657 C 6.009 11.526,6.010 4.477,5.973 4.345 C 5.925 4.170,5.684 3.999,5.488 4.001 C 5.439 4.001,5.351 4.024,5.290 4.051 M7.290 4.051 C 7.155 4.113,7.052 4.243,7.015 4.401 C 6.976 4.572,6.976 11.416,7.016 11.600 C 7.072 11.863,7.316 12.029,7.587 11.988 C 7.744 11.965,7.932 11.803,7.973 11.657 C 8.009 11.526,8.010 4.477,7.973 4.345 C 7.925 4.170,7.684 3.999,7.488 4.001 C 7.439 4.001,7.351 4.024,7.290 4.051 M9.290 4.051 C 9.155 4.113,9.052 4.243,9.015 4.401 C 8.977 4.566,8.977 11.434,9.015 11.599 C 9.052 11.757,9.155 11.887,9.290 11.949 C 9.387 11.993,9.471 11.999,10.000 11.999 C 10.529 11.999,10.613 11.993,10.710 11.949 C 10.845 11.887,10.948 11.757,10.985 11.599 C 11.023 11.434,11.023 4.566,10.985 4.401 C 10.948 4.243,10.845 4.113,10.710 4.051 C 10.613 4.007,10.529 4.001,10.000 4.001 C 9.471 4.001,9.387 4.007,9.290 4.051 M12.307 4.051 C 12.171 4.113,12.060 4.232,12.026 4.348 C 11.990 4.475,11.991 11.526,12.027 11.657 C 12.068 11.803,12.256 11.965,12.413 11.988 C 12.684 12.029,12.928 11.863,12.984 11.600 C 13.024 11.416,13.024 4.572,12.985 4.401 C 12.912 4.084,12.591 3.919,12.307 4.051 " stroke="none" fill-rule="evenodd"></path></svg>