<svg width="16" height="16" fill="currentColor" xmlns="http://www.w3.org/2000/svg"><path d="M6.307 0.051 C 6.171 0.113,6.060 0.232,6.026 0.348 C 6.010 0.404,6.000 1.225,6.000 2.473 L 6.000 4.507 8.500 4.500 L 11.000 4.493 11.007 2.520 C 11.012 1.217,11.005 0.502,10.986 0.415 C 10.951 0.247,10.850 0.115,10.710 0.051 C 10.606 0.004,10.494 0.001,8.507 0.001 C 6.525 0.001,6.408 0.004,6.307 0.051 M8.000 1.507 L 8.000 2.000 7.507 2.000 L 7.013 2.000 7.013 1.507 L 7.013 1.013 7.507 1.013 L 8.000 1.013 8.000 1.507 M10.000 1.507 L 10.000 2.000 9.507 2.000 L 9.013 2.000 9.013 1.507 L 9.013 1.013 9.507 1.013 L 10.000 1.013 10.000 1.507 M5.266 5.063 C 5.161 5.127,5.046 5.264,5.020 5.355 C 5.009 5.395,5.000 6.603,5.000 8.040 C 5.000 10.646,5.000 10.654,5.059 10.873 C 5.144 11.192,5.243 11.371,5.811 12.224 C 6.324 12.994,6.518 13.338,6.682 13.760 C 6.849 14.195,6.987 14.877,6.987 15.275 C 6.987 15.668,7.084 15.871,7.315 15.959 C 7.412 15.996,7.572 16.001,8.549 15.994 L 9.671 15.987 9.764 15.922 C 9.901 15.829,9.980 15.699,9.990 15.553 C 10.046 14.737,10.114 14.347,10.284 13.859 C 10.439 13.415,10.666 13.003,11.201 12.199 C 11.743 11.384,11.825 11.242,11.924 10.947 L 11.987 10.760 11.995 8.107 C 12.000 6.302,11.994 5.422,11.975 5.357 C 11.937 5.226,11.855 5.129,11.732 5.066 C 11.631 5.014,11.561 5.013,8.488 5.013 C 5.475 5.014,5.343 5.016,5.266 5.063 " stroke="none" fill-rule="evenodd"></path></svg>