<svg width="16" height="16" fill="currentColor" xmlns="http://www.w3.org/2000/svg"><path d="M0.280 5.058 C 0.156 5.123,0.103 5.177,0.050 5.293 C 0.004 5.395,0.001 5.533,0.001 8.000 C 0.001 10.482,0.003 10.605,0.051 10.710 C 0.113 10.845,0.243 10.948,0.401 10.985 C 0.567 11.023,15.433 11.023,15.599 10.985 C 15.757 10.948,15.887 10.845,15.949 10.710 C 15.997 10.605,15.999 10.482,15.999 8.006 C 16.000 5.731,15.995 5.400,15.959 5.313 C 15.906 5.187,15.850 5.126,15.728 5.064 C 15.631 5.015,15.434 5.013,7.994 5.014 C 1.079 5.015,0.352 5.019,0.280 5.058 M13.923 6.586 L 14.003 6.665 13.995 7.268 L 13.987 7.871 13.912 7.936 L 13.837 8.000 8.000 8.000 L 2.163 8.000 2.088 7.936 L 2.013 7.871 2.005 7.268 L 1.997 6.665 2.077 6.586 L 2.156 6.507 8.000 6.507 L 13.844 6.507 13.923 6.586 " stroke="none" fill-rule="evenodd"></path></svg>