<svg width="16" height="16" fill="currentColor" xmlns="http://www.w3.org/2000/svg"><path d="M6.307 0.051 C 6.171 0.113,6.060 0.232,6.026 0.348 C 6.010 0.404,6.000 1.225,6.000 2.473 L 6.000 4.507 8.500 4.500 L 11.000 4.493 11.007 2.520 C 11.012 1.217,11.005 0.502,10.986 0.415 C 10.951 0.247,10.850 0.115,10.710 0.051 C 10.606 0.004,10.494 0.001,8.507 0.001 C 6.525 0.001,6.408 0.004,6.307 0.051 M8.000 1.507 L 8.000 2.000 7.507 2.000 L 7.013 2.000 7.013 1.507 L 7.013 1.013 7.507 1.013 L 8.000 1.013 8.000 1.507 M10.000 1.507 L 10.000 2.000 9.507 2.000 L 9.013 2.000 9.013 1.507 L 9.013 1.013 9.507 1.013 L 10.000 1.013 10.000 1.507 M5.662 5.062 C 5.403 5.152,5.172 5.381,5.058 5.659 L 5.000 5.800 5.000 8.253 L 5.000 10.707 5.060 10.942 C 5.169 11.371,5.260 11.538,5.926 12.542 C 6.277 13.071,6.606 13.586,6.657 13.686 C 6.842 14.055,6.987 14.610,6.987 14.955 C 6.987 15.348,7.107 15.638,7.344 15.817 C 7.578 15.993,7.650 16.004,8.550 15.995 C 9.316 15.987,9.352 15.984,9.482 15.925 C 9.557 15.891,9.674 15.807,9.741 15.739 C 9.921 15.556,9.976 15.410,10.003 15.042 C 10.031 14.651,10.043 14.575,10.121 14.274 C 10.230 13.855,10.397 13.550,11.072 12.542 C 11.722 11.572,11.816 11.400,11.929 10.977 C 11.986 10.762,11.987 10.742,11.987 8.253 L 11.987 5.747 11.917 5.600 C 11.814 5.382,11.652 5.216,11.446 5.114 L 11.268 5.027 8.534 5.021 C 5.966 5.015,5.792 5.018,5.662 5.062 M10.986 8.313 C 10.986 10.760,10.987 10.731,10.862 11.013 C 10.832 11.079,10.529 11.553,10.187 12.067 C 9.780 12.677,9.517 13.102,9.425 13.293 C 9.196 13.774,9.054 14.289,9.018 14.770 L 9.000 15.000 8.504 15.007 L 8.008 15.014 7.975 14.701 C 7.918 14.166,7.760 13.639,7.512 13.160 C 7.451 13.043,7.123 12.532,6.784 12.025 C 6.163 11.096,6.073 10.932,6.025 10.640 C 6.011 10.559,6.000 9.482,6.000 8.247 L 6.000 6.000 8.493 6.000 L 10.987 6.000 10.986 8.313 " stroke="none" fill-rule="evenodd"></path></svg>