<svg width="16" height="16" fill="currentColor" xmlns="http://www.w3.org/2000/svg"><path d="M2.637 3.076 C 2.370 3.186,2.195 3.353,2.076 3.614 C 2.017 3.741,2.014 3.781,2.006 4.520 L 1.997 5.293 1.080 6.214 C 0.291 7.005,0.152 7.156,0.088 7.294 L 0.013 7.453 0.013 9.853 L 0.013 12.253 0.083 12.400 C 0.229 12.707,0.510 12.924,0.838 12.984 C 1.062 13.025,14.938 13.025,15.162 12.984 C 15.490 12.924,15.771 12.707,15.917 12.400 L 15.987 12.253 15.987 9.853 L 15.987 7.453 15.912 7.294 C 15.848 7.156,15.709 7.005,14.920 6.214 L 14.003 5.293 13.995 4.520 C 13.986 3.751,13.986 3.746,13.917 3.600 C 13.814 3.383,13.652 3.216,13.446 3.114 L 13.268 3.027 8.027 3.021 L 2.787 3.014 2.637 3.076 M12.987 4.650 C 12.987 5.007,12.999 5.363,13.014 5.441 C 13.076 5.771,13.110 5.814,14.081 6.787 L 14.987 7.694 14.987 9.847 L 14.987 12.000 8.000 12.000 L 1.013 12.000 1.013 9.847 L 1.013 7.694 1.919 6.787 C 2.890 5.814,2.924 5.771,2.986 5.441 C 3.001 5.363,3.013 5.007,3.013 4.650 L 3.013 4.000 8.000 4.000 L 12.987 4.000 12.987 4.650 M3.290 8.051 C 3.155 8.113,3.052 8.243,3.015 8.401 C 2.980 8.555,2.980 9.445,3.015 9.599 C 3.052 9.757,3.155 9.887,3.290 9.949 C 3.396 9.997,3.564 9.999,8.000 9.999 C 12.436 9.999,12.604 9.997,12.710 9.949 C 12.845 9.887,12.948 9.757,12.985 9.599 C 13.020 9.445,13.020 8.555,12.985 8.401 C 12.948 8.243,12.845 8.113,12.710 8.051 C 12.604 8.003,12.436 8.001,8.000 8.001 C 3.564 8.001,3.396 8.003,3.290 8.051 " stroke="none" fill-rule="evenodd"></path></svg>