<svg width="16" height="16" fill="currentColor" xmlns="http://www.w3.org/2000/svg"><path d="M0.280 5.058 C 0.156 5.123,0.103 5.177,0.050 5.293 C 0.004 5.395,0.001 5.533,0.001 8.000 C 0.001 10.482,0.003 10.605,0.051 10.710 C 0.113 10.845,0.243 10.948,0.401 10.985 C 0.567 11.023,15.433 11.023,15.599 10.985 C 15.757 10.948,15.887 10.845,15.949 10.710 C 15.997 10.605,15.999 10.482,15.999 8.006 C 16.000 5.731,15.995 5.400,15.959 5.313 C 15.906 5.187,15.850 5.126,15.728 5.064 C 15.631 5.015,15.434 5.013,7.994 5.014 C 1.079 5.015,0.352 5.019,0.280 5.058 M14.987 8.000 L 14.987 10.000 8.000 10.000 L 1.013 10.000 1.013 8.000 L 1.013 6.000 8.000 6.000 L 14.987 6.000 14.987 8.000 M2.069 7.095 L 2.000 7.177 2.000 7.734 C 2.000 8.040,2.011 8.320,2.026 8.357 C 2.086 8.517,1.665 8.507,8.000 8.507 C 14.335 8.507,13.914 8.517,13.974 8.357 C 13.989 8.320,14.000 8.040,14.000 7.734 L 14.000 7.177 13.931 7.095 L 13.862 7.013 8.000 7.013 L 2.138 7.013 2.069 7.095 " stroke="none" fill-rule="evenodd"></path></svg>