<svg width="16" height="16" fill="currentColor" xmlns="http://www.w3.org/2000/svg"><path d="M7.467 0.017 C 5.118 0.192,3.024 1.327,1.608 3.193 C 0.799 4.260,0.296 5.477,0.073 6.906 C -0.009 7.429,-0.009 8.571,0.073 9.094 C 0.415 11.288,1.476 13.089,3.195 14.393 C 4.257 15.199,5.481 15.705,6.906 15.927 C 7.429 16.009,8.571 16.009,9.094 15.927 C 11.038 15.624,12.690 14.748,13.930 13.362 C 15.030 12.133,15.665 10.775,15.927 9.094 C 16.009 8.571,16.009 7.429,15.927 6.906 C 15.705 5.481,15.199 4.257,14.393 3.195 C 13.070 1.452,11.180 0.355,9.000 0.066 C 8.688 0.025,7.760 -0.005,7.467 0.017 M8.694 4.064 C 9.581 4.222,10.425 4.697,11.004 5.363 C 11.486 5.919,11.805 6.586,11.940 7.320 C 11.999 7.645,11.999 8.355,11.940 8.680 C 11.870 9.058,11.769 9.376,11.615 9.697 C 11.056 10.864,10.068 11.641,8.782 11.925 C 8.402 12.009,7.598 12.009,7.218 11.925 C 5.561 11.559,4.365 10.331,4.060 8.680 C 4.000 8.354,4.000 7.646,4.060 7.320 C 4.263 6.223,4.872 5.285,5.773 4.683 C 6.483 4.209,7.249 3.988,8.093 4.013 C 8.299 4.019,8.569 4.042,8.694 4.064 M7.669 6.026 C 7.219 6.108,6.771 6.367,6.469 6.720 C 5.991 7.278,5.871 8.067,6.156 8.767 C 6.347 9.238,6.762 9.653,7.233 9.844 C 7.993 10.153,8.834 9.986,9.410 9.410 C 10.159 8.661,10.197 7.475,9.497 6.680 C 9.265 6.416,8.851 6.160,8.504 6.065 C 8.327 6.016,7.847 5.994,7.669 6.026 M8.431 7.101 C 8.608 7.188,8.833 7.417,8.915 7.593 C 8.963 7.698,8.973 7.768,8.973 8.000 C 8.973 8.251,8.966 8.295,8.901 8.428 C 8.707 8.821,8.268 9.054,7.848 8.986 C 7.533 8.935,7.241 8.717,7.101 8.430 C 7.009 8.243,6.986 7.920,7.050 7.701 C 7.130 7.427,7.385 7.160,7.662 7.061 C 7.873 6.986,8.234 7.005,8.431 7.101 " stroke="none" fill-rule="evenodd"></path></svg>