<svg width="16" height="16" fill="currentColor" xmlns="http://www.w3.org/2000/svg"><path d="M11.182 2.352 L 10.830 2.707 11.032 2.919 C 12.036 3.976,12.707 5.389,12.952 6.960 C 13.020 7.397,13.020 8.603,12.952 9.040 C 12.706 10.620,12.032 12.030,11.008 13.108 L 10.829 13.297 11.183 13.650 L 11.538 14.003 11.760 13.768 C 12.801 12.670,13.563 11.173,13.863 9.639 C 13.989 8.995,14.013 8.736,14.013 8.000 C 14.013 7.264,13.989 7.005,13.863 6.361 C 13.562 4.825,12.787 3.304,11.756 2.229 L 11.533 1.997 11.182 2.352 M9.766 3.767 L 9.412 4.122 9.483 4.188 C 9.522 4.224,9.645 4.361,9.755 4.493 C 10.973 5.947,11.342 7.988,10.716 9.809 C 10.479 10.496,10.023 11.253,9.557 11.734 L 9.414 11.881 9.769 12.235 L 10.124 12.590 10.297 12.406 C 11.175 11.476,11.758 10.251,11.965 8.907 C 12.030 8.479,12.030 7.521,11.965 7.093 C 11.758 5.747,11.162 4.499,10.294 3.592 L 10.120 3.411 9.766 3.767 M6.440 3.506 C 6.425 3.511,6.380 3.523,6.340 3.532 C 6.299 3.541,5.728 3.979,5.060 4.514 L 3.853 5.480 2.613 5.493 L 1.373 5.507 1.253 5.577 C 1.179 5.621,1.107 5.693,1.066 5.764 L 1.000 5.880 1.000 8.002 L 1.000 10.124 1.080 10.253 C 1.130 10.333,1.200 10.403,1.267 10.438 C 1.369 10.491,1.421 10.494,2.613 10.507 L 3.853 10.520 5.059 11.485 C 6.366 12.532,6.382 12.543,6.611 12.482 C 6.769 12.441,6.870 12.364,6.941 12.231 L 7.000 12.120 7.000 8.000 L 7.000 3.880 6.933 3.760 C 6.891 3.685,6.826 3.619,6.760 3.582 C 6.655 3.525,6.493 3.486,6.440 3.506 M8.355 5.179 L 8.004 5.533 8.146 5.688 C 8.437 6.005,8.714 6.488,8.851 6.920 C 9.069 7.603,9.069 8.397,8.851 9.080 C 8.714 9.510,8.442 9.987,8.147 10.313 L 8.004 10.471 8.356 10.823 L 8.708 11.174 8.829 11.047 C 10.031 9.788,10.362 7.821,9.645 6.192 C 9.446 5.739,9.164 5.307,8.853 4.979 L 8.707 4.824 8.355 5.179 " stroke="none" fill-rule="evenodd"></path></svg>