<svg width="16" height="16" fill="currentColor" xmlns="http://www.w3.org/2000/svg"><path d="M7.800 0.050 C 7.671 0.110,7.590 0.194,7.535 0.326 C 7.498 0.415,7.493 1.223,7.494 8.006 C 7.494 15.319,7.496 15.590,7.544 15.693 C 7.730 16.096,8.270 16.096,8.456 15.693 C 8.504 15.590,8.505 15.320,8.505 8.000 C 8.505 0.680,8.504 0.410,8.456 0.307 C 8.336 0.045,8.051 -0.066,7.800 0.050 M3.669 2.028 C 2.993 2.141,2.371 2.651,2.135 3.283 C 1.996 3.654,2.001 3.489,2.000 7.994 C 2.000 12.586,1.993 12.367,2.156 12.767 C 2.347 13.238,2.762 13.653,3.233 13.844 C 3.597 13.993,3.689 14.000,5.159 14.000 L 6.507 14.000 6.507 13.508 L 6.507 13.016 5.153 13.008 C 3.836 13.000,3.796 12.998,3.659 12.942 C 3.474 12.866,3.309 12.738,3.189 12.576 C 3.001 12.321,3.012 12.632,3.020 7.945 L 3.027 3.720 3.099 3.572 C 3.192 3.384,3.384 3.192,3.572 3.099 L 3.720 3.027 5.107 3.013 L 6.493 3.000 6.501 2.500 L 6.508 2.000 5.154 2.003 C 4.409 2.005,3.741 2.016,3.669 2.028 M9.499 2.499 L 9.507 3.000 10.893 3.013 C 12.250 3.026,12.283 3.028,12.407 3.085 C 12.584 3.167,12.812 3.392,12.900 3.570 L 12.973 3.720 12.980 7.945 C 12.988 12.632,12.999 12.321,12.811 12.576 C 12.691 12.738,12.526 12.866,12.341 12.942 C 12.204 12.998,12.164 13.000,10.847 13.008 L 9.493 13.016 9.493 13.508 L 9.493 14.000 10.841 14.000 C 12.310 14.000,12.403 13.993,12.766 13.845 C 13.233 13.654,13.654 13.233,13.845 12.766 C 14.007 12.367,14.000 12.584,14.000 8.000 C 14.000 3.415,14.007 3.633,13.844 3.233 C 13.666 2.795,13.309 2.422,12.864 2.208 C 12.455 2.011,12.519 2.018,10.926 2.007 L 9.492 1.997 9.499 2.499 " stroke="none" fill-rule="evenodd"></path></svg>