<svg width="16" height="16" fill="currentColor" xmlns="http://www.w3.org/2000/svg"><path d="M5.307 0.041 C 4.866 0.136,4.410 0.481,4.205 0.872 C 4.013 1.241,4.000 1.342,4.000 2.498 L 4.000 3.520 3.750 3.772 C 2.791 4.737,2.199 5.969,2.040 7.328 C 1.830 9.119,2.464 10.933,3.753 12.234 L 4.000 12.483 4.000 13.504 C 4.000 14.433,4.005 14.543,4.053 14.730 C 4.175 15.207,4.488 15.603,4.908 15.810 C 5.304 16.005,5.209 15.999,8.000 15.999 C 10.792 15.999,10.696 16.005,11.093 15.810 C 11.400 15.658,11.659 15.398,11.812 15.088 C 11.987 14.732,11.999 14.632,12.000 13.488 L 12.000 12.482 12.247 12.234 C 12.977 11.502,13.496 10.612,13.775 9.614 C 13.824 9.438,13.877 9.227,13.893 9.147 L 13.921 9.000 14.027 8.994 C 14.162 8.986,14.327 8.902,14.395 8.807 C 14.496 8.665,14.511 8.546,14.502 7.947 C 14.494 7.445,14.487 7.360,14.442 7.270 C 14.373 7.131,14.187 7.013,14.037 7.013 L 13.924 7.013 13.894 6.860 C 13.878 6.776,13.824 6.562,13.775 6.386 C 13.496 5.388,12.977 4.498,12.247 3.766 L 12.000 3.518 12.000 2.512 C 11.999 1.366,11.987 1.268,11.810 0.909 C 11.624 0.531,11.258 0.220,10.827 0.073 L 10.653 0.013 8.067 0.008 C 5.933 0.004,5.450 0.010,5.307 0.041 M8.947 3.092 C 10.969 3.498,12.501 5.033,12.911 7.067 C 12.965 7.336,12.973 7.450,12.973 8.000 C 12.973 8.550,12.965 8.664,12.911 8.933 C 12.593 10.508,11.609 11.794,10.187 12.492 C 8.282 13.427,5.976 13.040,4.468 11.532 C 3.765 10.829,3.291 9.937,3.089 8.933 C 3.035 8.664,3.027 8.550,3.027 8.000 C 3.027 7.450,3.035 7.336,3.089 7.067 C 3.527 4.896,5.250 3.298,7.440 3.030 C 7.491 3.024,7.785 3.022,8.093 3.026 C 8.543 3.032,8.711 3.045,8.947 3.092 M7.800 4.544 C 7.695 4.591,7.586 4.709,7.535 4.832 C 7.499 4.917,7.493 5.115,7.493 6.211 L 7.493 7.490 6.671 7.498 L 5.849 7.507 5.737 7.581 C 5.541 7.711,5.461 7.915,5.521 8.136 C 5.560 8.281,5.713 8.438,5.854 8.477 C 5.999 8.517,8.001 8.517,8.146 8.477 C 8.282 8.439,8.439 8.282,8.477 8.146 C 8.497 8.074,8.506 7.538,8.506 6.480 C 8.506 5.018,8.502 4.913,8.456 4.813 C 8.399 4.689,8.285 4.575,8.178 4.535 C 8.076 4.497,7.897 4.501,7.800 4.544 " stroke="none" fill-rule="evenodd"></path></svg>