<svg width="16" height="16" fill="currentColor" xmlns="http://www.w3.org/2000/svg"><path d="M1.554 3.053 C 0.869 3.203,0.318 3.720,0.077 4.440 L 0.014 4.627 0.006 6.399 C -0.003 8.341,-0.001 8.383,0.155 8.766 C 0.347 9.238,0.761 9.652,1.233 9.844 C 1.639 10.010,1.217 10.000,8.000 10.000 C 14.782 10.000,14.361 10.010,14.766 9.845 C 15.234 9.654,15.654 9.233,15.845 8.765 C 16.001 8.383,16.003 8.341,15.993 6.399 C 15.984 4.633,15.984 4.626,15.923 4.440 C 15.703 3.773,15.236 3.306,14.559 3.076 C 14.419 3.029,14.161 3.026,8.067 3.022 C 2.806 3.018,1.692 3.023,1.554 3.053 M8.573 4.586 C 9.106 4.753,9.564 5.145,9.799 5.637 C 9.942 5.936,9.984 6.129,9.984 6.493 C 9.984 6.882,9.942 7.063,9.768 7.413 C 9.663 7.625,9.602 7.707,9.401 7.908 C 9.197 8.112,9.121 8.169,8.907 8.273 C 8.553 8.446,8.370 8.490,8.000 8.490 C 7.630 8.490,7.447 8.446,7.093 8.273 C 6.879 8.169,6.803 8.112,6.599 7.908 C 6.398 7.707,6.337 7.625,6.232 7.413 C 6.056 7.059,6.014 6.881,6.016 6.493 C 6.017 6.129,6.059 5.934,6.201 5.637 C 6.464 5.086,6.967 4.690,7.587 4.545 C 7.823 4.490,8.333 4.511,8.573 4.586 M7.787 5.530 C 7.250 5.650,6.915 6.164,7.026 6.697 C 7.092 7.017,7.293 7.267,7.595 7.409 C 7.726 7.470,7.781 7.480,8.000 7.480 C 8.219 7.480,8.274 7.470,8.405 7.409 C 8.707 7.267,8.908 7.017,8.974 6.697 C 9.088 6.150,8.731 5.625,8.174 5.522 C 7.988 5.488,7.976 5.488,7.787 5.530 M12.687 6.041 C 12.813 6.094,12.874 6.150,12.936 6.272 C 13.084 6.563,12.916 6.915,12.594 6.988 C 12.390 7.034,12.140 6.906,12.051 6.710 C 11.935 6.454,12.044 6.171,12.307 6.050 C 12.437 5.990,12.557 5.987,12.687 6.041 M6.805 10.978 C 6.785 10.986,6.653 11.094,6.511 11.218 C 6.224 11.469,5.756 11.794,5.404 11.985 C 5.277 12.055,5.144 12.149,5.109 12.196 C 5.041 12.285,4.979 12.477,4.998 12.537 C 5.004 12.557,5.016 12.606,5.025 12.646 C 5.045 12.737,5.181 12.894,5.291 12.955 C 5.366 12.996,5.581 13.001,7.880 13.008 C 9.259 13.013,10.448 13.009,10.524 13.000 C 10.858 12.960,11.064 12.669,10.975 12.363 C 10.926 12.193,10.858 12.129,10.533 11.948 C 10.172 11.746,9.785 11.476,9.505 11.232 C 9.372 11.116,9.238 11.007,9.207 10.990 C 9.149 10.959,6.880 10.948,6.805 10.978 " stroke="none" fill-rule="evenodd"></path></svg>