<svg width="16" height="16" fill="currentColor" xmlns="http://www.w3.org/2000/svg"><path d="M7.387 9.029 C 6.606 9.120,5.943 9.298,5.307 9.589 C 4.988 9.734,4.897 9.807,4.838 9.962 C 4.797 10.069,4.795 10.103,4.823 10.209 C 4.867 10.373,4.960 10.489,5.101 10.557 C 5.283 10.645,5.404 10.631,5.767 10.477 C 6.578 10.133,7.139 10.017,7.987 10.015 C 8.538 10.014,8.793 10.042,9.293 10.161 C 9.671 10.250,9.803 10.295,10.233 10.477 C 10.596 10.631,10.717 10.645,10.899 10.557 C 11.040 10.489,11.133 10.373,11.177 10.209 C 11.205 10.103,11.203 10.069,11.162 9.962 C 11.136 9.894,11.077 9.808,11.031 9.771 C 10.848 9.626,10.152 9.348,9.627 9.211 C 9.096 9.072,8.802 9.036,8.120 9.027 C 7.768 9.022,7.438 9.023,7.387 9.029 M7.744 11.520 C 7.511 11.552,7.372 11.593,7.160 11.692 C 6.887 11.820,6.800 11.921,6.800 12.109 C 6.800 12.267,6.883 12.385,7.261 12.768 C 7.699 13.210,7.807 13.286,8.002 13.284 C 8.197 13.283,8.304 13.208,8.739 12.768 C 9.117 12.385,9.200 12.267,9.200 12.109 C 9.200 11.920,9.113 11.820,8.835 11.690 C 8.514 11.539,8.087 11.473,7.744 11.520 " stroke="none" fill-rule="evenodd"></path></svg>