<svg width="16" height="16" fill="currentColor" xmlns="http://www.w3.org/2000/svg"><path d="M0.000 3.201 C 0.000 3.418,0.008 3.425,0.298 3.454 C 0.689 3.493,0.886 3.557,1.005 3.684 C 1.085 3.770,1.233 4.075,1.514 4.733 C 1.843 5.502,2.271 6.438,3.293 8.627 C 4.267 10.709,4.617 11.472,4.949 12.233 C 5.193 12.791,5.254 12.903,5.385 13.027 C 5.455 13.092,5.493 13.107,5.597 13.107 C 5.749 13.107,5.864 13.030,6.011 12.830 C 6.138 12.657,6.696 11.571,7.442 10.047 C 7.770 9.377,8.046 8.837,8.055 8.847 C 8.064 8.858,8.277 9.317,8.527 9.867 C 9.310 11.586,9.861 12.745,9.960 12.880 C 10.085 13.050,10.255 13.137,10.381 13.095 C 10.487 13.060,10.660 12.886,10.755 12.720 C 10.845 12.561,13.774 5.925,14.390 4.483 C 14.456 4.330,14.551 4.142,14.603 4.064 C 14.744 3.852,14.985 3.641,15.166 3.573 C 15.339 3.507,15.665 3.442,15.828 3.441 C 15.887 3.440,15.950 3.426,15.968 3.408 C 15.987 3.389,16.000 3.300,16.000 3.195 L 16.000 3.013 14.307 3.013 L 12.613 3.013 12.613 3.183 C 12.613 3.414,12.631 3.426,13.028 3.459 C 13.372 3.488,13.461 3.519,13.596 3.654 C 13.696 3.753,13.725 3.886,13.687 4.067 C 13.671 4.142,12.996 5.776,12.185 7.699 C 10.811 10.961,10.708 11.194,10.657 11.175 C 10.617 11.160,10.352 10.642,9.674 9.254 L 8.745 7.353 9.537 5.870 C 10.554 3.964,10.763 3.621,10.967 3.524 C 11.029 3.494,11.170 3.462,11.280 3.452 C 11.390 3.441,11.495 3.421,11.513 3.407 C 11.534 3.390,11.547 3.312,11.547 3.197 L 11.547 3.013 10.173 3.013 L 8.800 3.013 8.800 3.199 C 8.800 3.420,8.811 3.430,9.083 3.454 C 9.438 3.487,9.609 3.564,9.664 3.718 C 9.709 3.846,9.608 4.086,8.994 5.316 L 8.366 6.573 7.901 5.627 C 7.077 3.948,7.055 3.898,7.054 3.737 C 7.053 3.544,7.107 3.505,7.437 3.462 C 7.576 3.444,7.703 3.413,7.725 3.392 C 7.751 3.365,7.760 3.305,7.755 3.190 L 7.747 3.027 6.267 3.027 L 4.787 3.027 4.779 3.192 C 4.772 3.340,4.777 3.361,4.832 3.396 C 4.866 3.417,4.958 3.442,5.036 3.452 C 5.244 3.477,5.376 3.539,5.479 3.660 C 5.618 3.822,7.653 7.863,7.653 7.976 C 7.653 7.990,7.292 8.715,6.851 9.587 C 6.158 10.957,6.043 11.170,6.004 11.149 C 5.923 11.105,3.559 6.017,2.901 4.471 C 2.649 3.877,2.614 3.703,2.727 3.591 C 2.813 3.505,2.932 3.476,3.292 3.455 C 3.453 3.445,3.600 3.425,3.619 3.409 C 3.641 3.390,3.653 3.315,3.653 3.197 L 3.653 3.013 1.827 3.013 L 0.000 3.013 0.000 3.201 " stroke="none" fill-rule="evenodd"></path></svg>