<svg width="16" height="16" fill="currentColor" xmlns="http://www.w3.org/2000/svg"><path d="M1.669 2.028 C 0.992 2.142,0.371 2.651,0.135 3.283 C -0.004 3.654,0.001 3.489,0.000 7.994 C -0.000 12.586,-0.007 12.367,0.156 12.767 C 0.347 13.238,0.762 13.653,1.233 13.844 C 1.624 14.004,1.544 14.000,4.686 14.000 C 6.539 14.000,7.594 13.990,7.657 13.973 C 7.803 13.932,7.965 13.744,7.988 13.587 C 8.022 13.361,7.925 13.165,7.732 13.066 C 7.631 13.015,7.563 13.013,4.821 13.013 C 3.126 13.013,1.950 13.003,1.855 12.987 C 1.532 12.934,1.243 12.720,1.099 12.428 L 1.027 12.280 1.019 9.647 L 1.012 7.013 7.506 7.013 L 14.000 7.013 14.001 7.553 C 14.001 8.019,14.008 8.108,14.050 8.201 C 14.150 8.421,14.387 8.543,14.604 8.485 C 14.770 8.440,14.844 8.385,14.928 8.243 L 15.000 8.120 15.008 6.107 C 15.016 3.969,15.006 3.721,14.896 3.375 C 14.701 2.760,14.198 2.277,13.542 2.074 L 13.347 2.014 7.573 2.010 C 4.398 2.008,1.741 2.016,1.669 2.028 M13.347 3.069 C 13.544 3.143,13.699 3.264,13.819 3.441 C 13.990 3.692,14.000 3.772,14.000 4.952 L 14.000 6.000 7.507 6.000 L 1.013 6.000 1.014 4.900 C 1.015 3.915,1.020 3.786,1.063 3.662 C 1.154 3.399,1.399 3.154,1.662 3.063 C 1.793 3.018,2.100 3.015,7.499 3.014 L 13.198 3.013 13.347 3.069 M2.306 4.050 C 1.974 4.201,1.901 4.609,2.161 4.858 C 2.257 4.949,2.461 5.025,2.544 5.000 C 2.560 4.995,2.606 4.984,2.646 4.975 C 2.727 4.957,2.893 4.823,2.939 4.737 C 3.070 4.492,2.961 4.165,2.710 4.051 C 2.571 3.988,2.443 3.988,2.306 4.050 M3.799 4.050 C 3.579 4.150,3.457 4.387,3.515 4.604 C 3.559 4.769,3.615 4.844,3.751 4.924 C 3.911 5.017,4.089 5.017,4.249 4.924 C 4.522 4.764,4.583 4.425,4.380 4.184 C 4.236 4.013,4.000 3.959,3.799 4.050 M5.290 4.051 C 5.039 4.165,4.930 4.492,5.061 4.737 C 5.107 4.823,5.273 4.957,5.354 4.975 C 5.394 4.984,5.440 4.995,5.456 5.000 C 5.472 5.005,5.542 4.997,5.611 4.982 C 5.961 4.907,6.117 4.459,5.885 4.195 C 5.724 4.011,5.498 3.956,5.290 4.051 M11.907 9.053 C 11.169 9.189,10.552 9.510,10.026 10.031 C 8.634 11.410,8.668 13.693,10.102 15.045 C 10.737 15.644,11.624 16.000,12.485 16.000 C 14.008 16.001,15.352 15.029,15.824 13.587 C 15.936 13.243,15.975 13.024,15.990 12.627 C 16.015 12.018,15.906 11.512,15.627 10.947 C 15.137 9.950,14.185 9.239,13.095 9.056 C 12.793 9.005,12.174 9.003,11.907 9.053 M14.180 12.041 C 14.383 12.126,14.488 12.281,14.488 12.496 C 14.488 12.680,14.398 12.836,14.240 12.929 L 14.120 13.000 12.589 13.008 C 10.950 13.016,10.835 13.009,10.692 12.888 C 10.417 12.656,10.462 12.213,10.778 12.057 C 10.892 12.001,10.911 12.000,12.488 12.000 C 13.866 12.000,14.095 12.006,14.180 12.041 " stroke="none" fill-rule="evenodd"></path></svg>