<svg width="16" height="16" fill="currentColor" xmlns="http://www.w3.org/2000/svg"><path d="M0.280 1.058 C 0.156 1.123,0.103 1.177,0.050 1.293 C 0.003 1.396,0.001 1.652,0.001 8.000 C 0.001 14.389,0.003 14.604,0.051 14.710 C 0.113 14.845,0.243 14.948,0.401 14.985 C 0.567 15.023,15.433 15.023,15.599 14.985 C 15.757 14.948,15.887 14.845,15.949 14.710 C 15.997 14.604,15.999 14.389,15.999 8.006 C 16.000 2.131,15.996 1.401,15.959 1.313 C 15.906 1.187,15.850 1.126,15.728 1.064 C 15.631 1.015,15.434 1.013,7.994 1.014 C 1.079 1.015,0.352 1.019,0.280 1.058 M14.987 3.507 L 14.987 5.013 8.000 5.013 L 1.013 5.013 1.013 3.507 L 1.013 2.000 8.000 2.000 L 14.987 2.000 14.987 3.507 M2.262 3.067 C 2.072 3.168,1.979 3.364,2.013 3.590 C 2.028 3.696,2.055 3.742,2.156 3.844 C 2.258 3.945,2.304 3.972,2.410 3.987 C 2.822 4.049,3.134 3.625,2.940 3.266 C 2.896 3.186,2.769 3.073,2.685 3.042 C 2.569 2.998,2.371 3.010,2.262 3.067 M3.730 3.090 C 3.397 3.301,3.436 3.785,3.799 3.950 C 3.936 4.012,4.064 4.012,4.201 3.950 C 4.690 3.728,4.537 3.013,4.000 3.013 C 3.881 3.013,3.826 3.029,3.730 3.090 M5.293 3.044 C 5.072 3.167,4.969 3.380,5.019 3.614 C 5.072 3.864,5.323 4.028,5.590 3.987 C 5.696 3.972,5.742 3.945,5.844 3.844 C 5.945 3.742,5.972 3.696,5.987 3.590 C 6.036 3.264,5.818 3.012,5.488 3.014 C 5.410 3.015,5.323 3.028,5.293 3.044 M14.987 10.000 L 14.987 14.000 8.000 14.000 L 1.013 14.000 1.013 10.000 L 1.013 6.000 8.000 6.000 L 14.987 6.000 14.987 10.000 " stroke="none" fill-rule="evenodd"></path></svg>