<svg width="16" height="16" fill="currentColor" xmlns="http://www.w3.org/2000/svg"><path d="M1.554 1.053 C 0.862 1.204,0.301 1.736,0.076 2.454 L 0.013 2.653 0.013 8.000 L 0.013 13.347 0.076 13.546 C 0.332 14.362,0.966 14.890,1.807 14.986 C 2.126 15.023,13.874 15.023,14.193 14.986 C 15.034 14.890,15.668 14.362,15.924 13.546 L 15.987 13.347 15.987 8.000 L 15.987 2.653 15.924 2.453 C 15.714 1.784,15.243 1.308,14.559 1.076 C 14.419 1.029,14.161 1.026,8.067 1.022 C 2.806 1.018,1.692 1.023,1.554 1.053 M14.254 2.041 C 14.559 2.119,14.819 2.354,14.931 2.653 C 14.984 2.795,14.987 2.852,14.987 3.908 L 14.987 5.013 8.000 5.013 L 1.013 5.013 1.013 3.908 C 1.013 2.852,1.016 2.795,1.069 2.653 C 1.143 2.456,1.264 2.301,1.441 2.181 C 1.720 1.990,1.225 2.004,7.988 2.002 C 13.377 2.000,14.114 2.005,14.254 2.041 M2.262 3.067 C 2.072 3.168,1.979 3.364,2.013 3.590 C 2.028 3.696,2.055 3.742,2.156 3.844 C 2.258 3.945,2.304 3.972,2.410 3.987 C 2.822 4.049,3.134 3.625,2.940 3.266 C 2.896 3.186,2.769 3.073,2.685 3.042 C 2.569 2.998,2.371 3.010,2.262 3.067 M3.730 3.090 C 3.397 3.301,3.436 3.785,3.799 3.950 C 3.936 4.012,4.064 4.012,4.201 3.950 C 4.690 3.728,4.537 3.013,4.000 3.013 C 3.881 3.013,3.826 3.029,3.730 3.090 M5.293 3.044 C 5.072 3.167,4.969 3.380,5.019 3.614 C 5.072 3.864,5.323 4.028,5.590 3.987 C 5.696 3.972,5.742 3.945,5.844 3.844 C 5.945 3.742,5.972 3.696,5.987 3.590 C 6.036 3.264,5.818 3.012,5.488 3.014 C 5.410 3.015,5.323 3.028,5.293 3.044 M7.493 10.001 L 7.493 14.001 4.620 13.994 L 1.747 13.987 1.600 13.917 C 1.382 13.814,1.216 13.652,1.114 13.446 L 1.027 13.268 1.020 9.634 L 1.013 6.000 4.253 6.000 L 7.493 6.000 7.493 10.001 M14.980 9.634 L 14.973 13.268 14.886 13.446 C 14.784 13.652,14.618 13.814,14.400 13.917 L 14.253 13.987 11.380 13.994 L 8.507 14.001 8.507 10.001 L 8.507 6.000 11.747 6.000 L 14.987 6.000 14.980 9.634 " stroke="none" fill-rule="evenodd"></path></svg>