<svg width="16" height="16" fill="currentColor" xmlns="http://www.w3.org/2000/svg"><path d="M7.632 0.052 C 7.378 0.121,7.212 0.213,6.978 0.416 C 6.873 0.507,6.169 1.201,5.413 1.957 L 4.040 3.333 6.020 5.313 L 8.000 7.293 9.980 5.313 L 11.960 3.333 10.467 1.842 C 9.423 0.801,8.922 0.319,8.802 0.242 C 8.460 0.023,8.009 -0.050,7.632 0.052 M1.851 5.527 C 1.043 6.337,0.344 7.050,0.298 7.111 C -0.117 7.652,-0.091 8.411,0.359 8.958 C 0.439 9.054,1.141 9.769,1.919 10.547 L 3.333 11.960 5.313 9.980 L 7.293 8.000 5.320 6.027 C 4.235 4.941,3.341 4.053,3.333 4.053 C 3.325 4.053,2.658 4.716,1.851 5.527 M10.680 6.027 L 8.707 8.000 10.687 9.980 L 12.668 11.960 14.197 10.427 L 15.726 8.893 15.834 8.667 C 16.060 8.192,16.060 7.808,15.834 7.333 C 15.726 7.107,15.726 7.107,14.205 5.580 C 13.368 4.740,12.676 4.053,12.668 4.053 C 12.660 4.053,11.765 4.941,10.680 6.027 M6.013 10.694 L 4.040 12.668 5.573 14.197 L 7.107 15.726 7.333 15.834 C 7.588 15.955,7.768 16.000,8.000 16.000 C 8.232 16.000,8.412 15.955,8.667 15.834 L 8.893 15.726 10.427 14.197 L 11.960 12.668 9.987 10.694 C 8.901 9.608,8.007 8.720,8.000 8.720 C 7.993 8.720,7.099 9.608,6.013 10.694 " stroke="none" fill-rule="evenodd"></path></svg>