<svg width="16" height="16" fill="currentColor" xmlns="http://www.w3.org/2000/svg"><path d="M4.680 0.053 C 4.526 0.129,0.096 4.566,0.041 4.699 C 0.005 4.787,0.000 5.179,0.000 8.004 C 0.000 11.143,0.001 11.212,0.053 11.318 C 0.128 11.473,4.563 15.903,4.699 15.959 C 4.787 15.995,5.179 16.000,8.004 16.000 C 11.143 16.000,11.212 15.999,11.318 15.947 C 11.473 15.872,15.903 11.437,15.959 11.301 C 15.995 11.213,16.000 10.821,16.000 8.000 C 16.000 5.179,15.995 4.787,15.959 4.699 C 15.903 4.563,11.473 0.128,11.318 0.053 C 11.212 0.001,11.143 0.000,7.998 0.000 C 4.849 0.000,4.785 0.001,4.680 0.053 M12.953 3.047 L 14.987 5.080 14.987 8.000 L 14.987 10.920 12.940 12.967 L 10.893 15.013 8.000 15.013 L 5.107 15.013 3.060 12.967 L 1.013 10.920 1.013 8.000 L 1.013 5.080 3.047 3.047 L 5.080 1.013 8.000 1.013 L 10.920 1.013 12.953 3.047 M4.787 4.551 C 4.669 4.613,4.614 4.668,4.557 4.779 C 4.495 4.900,4.492 5.093,4.549 5.208 C 4.573 5.255,5.200 5.902,5.942 6.647 L 7.293 8.000 5.942 9.353 C 5.200 10.098,4.573 10.745,4.549 10.792 C 4.465 10.962,4.517 11.241,4.657 11.363 C 4.806 11.494,5.045 11.532,5.208 11.451 C 5.255 11.427,5.902 10.800,6.647 10.058 L 8.000 8.707 9.353 10.058 C 10.098 10.800,10.745 11.427,10.792 11.451 C 10.955 11.532,11.194 11.494,11.343 11.363 C 11.483 11.241,11.535 10.962,11.451 10.792 C 11.427 10.745,10.800 10.098,10.058 9.353 L 8.707 8.000 10.058 6.647 C 10.800 5.902,11.427 5.255,11.451 5.208 C 11.536 5.038,11.483 4.762,11.342 4.634 C 11.206 4.511,10.948 4.471,10.792 4.549 C 10.745 4.573,10.098 5.200,9.353 5.942 L 8.000 7.293 6.647 5.942 C 5.902 5.200,5.255 4.573,5.208 4.549 C 5.100 4.495,4.891 4.496,4.787 4.551 " stroke="none" fill-rule="evenodd"></path></svg>