<svg width="16" height="16" fill="currentColor" xmlns="http://www.w3.org/2000/svg"><path d="M4.680 0.053 C 4.526 0.129,0.096 4.566,0.041 4.699 C 0.005 4.787,0.000 5.179,0.000 8.004 C 0.000 11.143,0.001 11.212,0.053 11.318 C 0.128 11.473,4.563 15.903,4.699 15.959 C 4.787 15.995,5.179 16.000,8.004 16.000 C 11.143 16.000,11.212 15.999,11.318 15.947 C 11.473 15.872,15.903 11.437,15.959 11.301 C 15.995 11.213,16.000 10.821,16.000 8.000 C 16.000 5.179,15.995 4.787,15.959 4.699 C 15.903 4.563,11.473 0.128,11.318 0.053 C 11.212 0.001,11.143 0.000,7.998 0.000 C 4.849 0.000,4.785 0.001,4.680 0.053 M5.194 4.548 C 5.263 4.576,5.712 5.007,6.647 5.941 L 8.000 7.293 9.353 5.942 C 10.098 5.200,10.745 4.573,10.792 4.549 C 10.957 4.467,11.245 4.521,11.366 4.657 C 11.488 4.795,11.524 5.020,11.452 5.194 C 11.424 5.263,10.993 5.712,10.059 6.647 L 8.707 8.000 10.059 9.353 C 10.993 10.288,11.424 10.737,11.452 10.806 C 11.525 10.980,11.488 11.207,11.366 11.342 C 11.238 11.483,10.962 11.536,10.792 11.451 C 10.745 11.427,10.098 10.800,9.353 10.058 L 8.000 8.707 6.647 10.058 C 5.902 10.800,5.255 11.427,5.208 11.451 C 5.045 11.532,4.806 11.494,4.657 11.363 C 4.517 11.241,4.465 10.962,4.549 10.792 C 4.573 10.745,5.200 10.098,5.942 9.353 L 7.293 8.000 5.942 6.647 C 5.200 5.902,4.573 5.255,4.549 5.208 C 4.465 5.038,4.517 4.759,4.657 4.637 C 4.806 4.506,5.011 4.472,5.194 4.548 " stroke="none" fill-rule="evenodd"></path></svg>