<svg width="16" height="16" fill="currentColor" xmlns="http://www.w3.org/2000/svg"><path d="M1.669 0.028 C 0.992 0.142,0.371 0.651,0.135 1.283 C -0.006 1.659,0.001 1.324,0.000 7.994 C -0.000 14.784,-0.010 14.361,0.156 14.767 C 0.347 15.238,0.762 15.653,1.233 15.844 C 1.639 16.010,1.217 16.000,8.000 16.000 C 14.782 16.000,14.361 16.010,14.766 15.845 C 15.233 15.654,15.654 15.233,15.845 14.766 C 16.010 14.361,16.000 14.782,16.000 8.000 C 16.000 1.217,16.010 1.639,15.844 1.233 C 15.666 0.795,15.309 0.422,14.864 0.208 C 14.422 -0.005,15.102 0.015,8.080 0.010 C 4.626 0.008,1.741 0.016,1.669 0.028 M14.407 1.085 C 14.584 1.167,14.812 1.392,14.900 1.570 L 14.973 1.720 14.980 7.946 C 14.988 14.846,15.001 14.319,14.811 14.576 C 14.691 14.738,14.526 14.866,14.341 14.942 L 14.200 15.000 8.000 15.000 L 1.800 15.000 1.659 14.942 C 1.381 14.828,1.152 14.596,1.063 14.338 C 1.018 14.207,1.015 13.881,1.015 8.000 C 1.015 2.119,1.018 1.793,1.063 1.662 C 1.154 1.399,1.399 1.154,1.662 1.063 C 1.793 1.017,2.106 1.015,8.040 1.021 L 14.280 1.027 14.407 1.085 M4.787 4.551 C 4.669 4.613,4.614 4.668,4.557 4.779 C 4.495 4.900,4.492 5.093,4.549 5.208 C 4.573 5.255,5.200 5.902,5.942 6.647 L 7.293 8.000 5.942 9.353 C 5.200 10.098,4.573 10.745,4.549 10.792 C 4.465 10.962,4.517 11.241,4.657 11.363 C 4.806 11.494,5.045 11.532,5.208 11.451 C 5.255 11.427,5.902 10.800,6.647 10.058 L 8.000 8.707 9.353 10.058 C 10.098 10.800,10.745 11.427,10.792 11.451 C 10.955 11.532,11.194 11.494,11.343 11.363 C 11.483 11.241,11.535 10.962,11.451 10.792 C 11.427 10.745,10.800 10.098,10.058 9.353 L 8.707 8.000 10.058 6.647 C 10.800 5.902,11.427 5.255,11.451 5.208 C 11.536 5.038,11.483 4.762,11.342 4.634 C 11.206 4.511,10.948 4.471,10.792 4.549 C 10.745 4.573,10.098 5.200,9.353 5.942 L 8.000 7.293 6.647 5.942 C 5.902 5.200,5.255 4.573,5.208 4.549 C 5.100 4.495,4.891 4.496,4.787 4.551 " stroke="none" fill-rule="evenodd"></path></svg>