<svg viewBox="0 0 24 24" xmlns="http://www.w3.org/2000/svg"><path d="M8.970 6.010 L 8.280 6.700 10.430 8.850 L 12.580 11.000 8.290 11.000 L 4.000 11.000 4.000 12.000 L 4.000 13.000 8.290 13.000 L 12.580 13.000 10.440 15.140 L 8.300 17.280 9.010 17.990 L 9.720 18.700 13.070 15.350 L 16.420 12.000 13.080 8.660 C 11.243 6.823,9.722 5.320,9.700 5.320 C 9.678 5.320,9.349 5.630,8.970 6.010 M18.000 12.000 L 18.000 18.000 19.000 18.000 L 20.000 18.000 20.000 12.000 L 20.000 6.000 19.000 6.000 L 18.000 6.000 18.000 12.000 " stroke="none" fill-rule="evenodd" fill="black"></path></svg>