<svg viewBox="0 0 24 24" xmlns="http://www.w3.org/2000/svg"><path d="M6.000 5.000 L 6.000 6.000 12.000 6.000 L 18.000 6.000 18.000 5.000 L 18.000 4.000 12.000 4.000 L 6.000 4.000 6.000 5.000 M8.640 10.940 L 5.300 14.280 6.010 14.990 L 6.720 15.700 8.860 13.560 L 11.000 11.420 11.000 15.710 L 11.000 20.000 12.000 20.000 L 13.000 20.000 13.000 15.710 L 13.000 11.420 15.140 13.560 L 17.280 15.700 17.990 14.990 L 18.700 14.280 15.360 10.940 C 13.523 9.103,12.011 7.600,12.000 7.600 C 11.989 7.600,10.477 9.103,8.640 10.940 " stroke="none" fill-rule="evenodd" fill="black"></path></svg>