<svg viewBox="0 0 24 24" xmlns="http://www.w3.org/2000/svg"><path d="M17.580 2.047 C 16.859 2.185,16.199 2.848,16.044 3.592 C 15.789 4.816,16.751 6.000,18.000 6.000 C 19.080 6.000,20.000 5.080,20.000 4.000 C 20.000 3.477,19.790 2.983,19.404 2.596 C 18.913 2.106,18.277 1.914,17.580 2.047 M9.660 3.064 C 9.476 3.121,9.291 3.295,7.370 5.213 L 5.280 7.299 5.990 8.010 L 6.700 8.720 8.416 7.004 L 10.132 5.288 11.405 6.134 C 12.105 6.599,12.678 6.996,12.679 7.015 C 12.681 7.089,10.027 10.364,9.979 10.345 C 8.762 9.878,7.115 9.906,5.828 10.415 C 5.475 10.554,4.828 10.895,4.640 11.040 L 4.540 11.117 5.260 11.839 L 5.980 12.560 6.310 12.398 C 6.855 12.130,7.314 12.029,8.000 12.026 C 8.697 12.024,9.096 12.108,9.663 12.376 C 10.147 12.606,10.479 12.835,10.822 13.178 C 11.323 13.679,11.717 14.377,11.886 15.062 C 12.004 15.540,12.013 16.352,11.905 16.820 C 11.830 17.148,11.610 17.727,11.492 17.906 L 11.427 18.006 12.155 18.733 L 12.883 19.460 12.960 19.360 C 13.098 19.180,13.366 18.687,13.522 18.326 C 13.818 17.640,14.000 16.755,13.998 16.020 C 13.997 15.655,13.985 15.516,13.900 14.900 L 13.873 14.700 15.326 14.462 C 16.126 14.332,16.829 14.217,16.890 14.208 L 17.000 14.191 17.000 17.095 L 17.000 20.000 18.001 20.000 L 19.002 20.000 18.991 16.347 L 18.980 12.694 18.859 12.498 C 18.715 12.266,18.492 12.101,18.227 12.032 C 18.047 11.985,17.889 12.006,15.794 12.355 C 14.562 12.560,13.547 12.720,13.539 12.712 C 13.530 12.703,14.271 11.761,15.186 10.618 C 16.100 9.475,16.875 8.488,16.907 8.425 C 16.992 8.262,17.019 7.919,16.961 7.736 C 16.841 7.357,16.884 7.389,13.594 5.196 C 11.876 4.051,10.423 3.096,10.365 3.074 C 10.180 3.002,9.869 2.998,9.660 3.064 M2.905 12.850 C 2.533 13.447,2.276 14.094,2.114 14.840 C 1.986 15.434,1.985 16.591,2.113 17.174 C 2.242 17.758,2.416 18.243,2.684 18.759 C 3.671 20.663,5.598 21.893,7.744 21.988 C 8.861 22.038,9.996 21.762,10.970 21.203 C 11.129 21.111,11.305 21.002,11.360 20.960 L 11.460 20.883 10.738 20.160 L 10.016 19.437 9.838 19.535 C 9.102 19.944,8.084 20.096,7.245 19.922 C 6.443 19.756,5.738 19.382,5.185 18.829 C 4.677 18.321,4.284 17.627,4.114 16.938 C 3.996 16.460,3.987 15.648,4.095 15.180 C 4.170 14.852,4.390 14.273,4.508 14.094 L 4.573 13.994 3.857 13.277 C 3.463 12.883,3.128 12.560,3.113 12.560 C 3.098 12.560,3.004 12.691,2.905 12.850 " stroke="none" fill-rule="evenodd" fill="black"></path></svg>