<svg viewBox="0 0 24 24" xmlns="http://www.w3.org/2000/svg"><path d="M4.000 4.000 L 4.000 5.000 12.000 5.000 L 20.000 5.000 20.000 4.000 L 20.000 3.000 12.000 3.000 L 4.000 3.000 4.000 4.000 M4.000 8.000 L 4.000 9.000 9.500 9.000 L 15.000 9.000 15.000 8.000 L 15.000 7.000 9.500 7.000 L 4.000 7.000 4.000 8.000 M4.000 12.000 L 4.000 13.000 12.000 13.000 L 20.000 13.000 20.000 12.000 L 20.000 11.000 12.000 11.000 L 4.000 11.000 4.000 12.000 M4.000 16.000 L 4.000 17.000 9.500 17.000 L 15.000 17.000 15.000 16.000 L 15.000 15.000 9.500 15.000 L 4.000 15.000 4.000 16.000 M4.000 20.000 L 4.000 21.000 12.000 21.000 L 20.000 21.000 20.000 20.000 L 20.000 19.000 12.000 19.000 L 4.000 19.000 4.000 20.000 " stroke="none" fill-rule="evenodd" fill="black"></path></svg>