<svg viewBox="0 0 24 24" xmlns="http://www.w3.org/2000/svg"><path d="M11.120 2.041 C 6.685 2.503,3.049 5.807,2.184 10.160 C 1.564 13.285,2.550 16.513,4.859 18.915 C 6.719 20.850,9.382 22.000,12.000 22.000 C 14.263 22.000,16.587 21.136,18.380 19.627 C 20.646 17.720,22.000 14.868,22.000 12.000 C 22.000 9.143,20.642 6.273,18.400 4.391 C 16.931 3.158,15.223 2.382,13.360 2.101 C 12.858 2.025,11.595 1.991,11.120 2.041 M10.110 5.539 C 9.457 6.521,9.117 6.998,9.070 6.999 C 9.022 7.000,9.000 7.032,9.000 7.100 C 9.000 7.219,7.202 9.938,7.155 9.891 C 7.138 9.874,6.793 9.264,6.388 8.535 L 5.652 7.210 5.880 6.935 C 7.031 5.550,8.698 4.534,10.399 4.181 C 11.189 4.017,11.220 3.870,10.110 5.539 M13.940 4.261 C 15.012 4.539,16.064 5.073,16.980 5.801 C 17.307 6.062,18.054 6.797,18.124 6.927 C 18.161 6.997,18.038 7.000,14.858 7.000 C 12.932 7.000,11.559 6.985,11.567 6.964 C 11.574 6.945,11.994 6.306,12.500 5.545 C 13.079 4.674,13.444 4.162,13.486 4.161 C 13.522 4.160,13.726 4.205,13.940 4.261 M14.860 10.508 C 15.366 11.337,15.785 12.027,15.791 12.041 C 15.797 12.056,15.422 12.727,14.957 13.534 L 14.112 15.000 12.046 14.999 L 9.980 14.997 9.130 13.465 C 8.662 12.623,8.280 11.921,8.280 11.906 C 8.280 11.891,8.712 11.231,9.240 10.440 L 10.201 9.000 12.070 9.001 L 13.940 9.001 14.860 10.508 M19.519 9.350 C 19.686 9.809,19.822 10.325,19.906 10.820 C 19.999 11.371,19.999 12.629,19.906 13.180 C 19.832 13.611,19.655 14.322,19.608 14.367 C 19.593 14.383,18.973 13.402,18.232 12.188 C 17.490 10.973,16.748 9.760,16.583 9.490 L 16.283 9.000 17.838 9.000 L 19.392 9.000 19.519 9.350 M6.100 12.129 C 6.958 13.673,7.666 14.950,7.673 14.968 C 7.681 14.986,6.994 15.000,6.147 15.000 L 4.608 15.000 4.481 14.650 C 3.894 13.034,3.854 11.350,4.362 9.710 C 4.428 9.495,4.495 9.321,4.511 9.321 C 4.527 9.322,5.242 10.585,6.100 12.129 M17.750 15.237 C 18.151 15.894,18.490 16.461,18.504 16.495 C 18.536 16.579,18.110 17.123,17.651 17.585 C 16.690 18.552,15.625 19.212,14.380 19.611 C 13.887 19.769,13.680 19.819,13.680 19.780 C 13.680 19.740,16.976 14.040,16.999 14.041 C 17.011 14.041,17.348 14.579,17.750 15.237 M12.363 18.030 C 12.036 18.597,11.654 19.258,11.512 19.500 L 11.256 19.940 11.038 19.928 C 10.506 19.900,9.347 19.564,8.672 19.243 C 7.758 18.809,6.790 18.097,6.166 17.402 C 6.017 17.236,5.881 17.078,5.865 17.050 C 5.841 17.010,6.558 17.000,9.396 17.000 L 12.956 17.000 12.363 18.030 " stroke="none" fill-rule="evenodd" fill="black"></path></svg>