<svg viewBox="0 0 24 24" xmlns="http://www.w3.org/2000/svg"><path d="M11.440 2.024 C 10.623 2.120,10.069 2.246,9.519 2.458 C 6.793 3.511,5.002 6.105,5.002 9.000 C 5.002 10.710,5.613 12.311,6.773 13.640 L 7.000 13.899 7.002 17.540 C 7.003 20.476,7.014 21.209,7.057 21.330 C 7.136 21.551,7.298 21.744,7.511 21.869 C 7.673 21.964,7.743 21.980,8.000 21.979 L 8.300 21.977 10.149 21.049 L 11.999 20.120 13.852 21.045 C 15.889 22.062,15.919 22.073,16.322 21.939 C 16.592 21.850,16.844 21.603,16.934 21.340 C 16.993 21.165,17.000 20.788,17.001 17.523 L 17.002 13.900 17.163 13.720 C 18.323 12.417,18.925 10.932,18.987 9.220 C 19.114 5.723,16.608 2.680,13.120 2.095 C 12.780 2.038,11.704 1.992,11.440 2.024 M12.601 4.042 C 13.369 4.136,14.154 4.432,14.824 4.881 C 15.229 5.152,15.848 5.771,16.119 6.176 C 17.455 8.171,17.240 10.728,15.590 12.465 C 14.938 13.151,14.112 13.623,13.132 13.869 C 12.744 13.966,12.628 13.977,12.000 13.977 C 11.372 13.977,11.256 13.966,10.869 13.869 C 9.875 13.620,9.071 13.158,8.392 12.447 C 6.972 10.961,6.603 8.725,7.476 6.896 C 7.751 6.322,8.036 5.917,8.476 5.476 C 9.574 4.379,11.079 3.855,12.601 4.042 M9.734 15.606 C 9.972 15.691,10.395 15.809,10.674 15.868 C 11.128 15.964,11.264 15.975,12.000 15.975 C 12.736 15.975,12.872 15.964,13.326 15.868 C 13.782 15.772,14.446 15.561,14.850 15.384 L 15.000 15.319 15.000 17.339 C 15.000 18.451,14.992 19.360,14.981 19.360 C 14.971 19.360,14.358 19.058,13.618 18.690 L 12.274 18.020 11.987 18.022 L 11.700 18.024 10.370 18.692 C 9.639 19.059,9.031 19.360,9.020 19.360 C 9.009 19.360,9.000 18.451,9.000 17.339 L 9.000 15.319 9.150 15.384 C 9.232 15.421,9.495 15.520,9.734 15.606 " stroke="none" fill-rule="evenodd" fill="black"></path></svg>