<svg viewBox="0 0 24 24" xmlns="http://www.w3.org/2000/svg"><path d="M11.120 2.039 C 8.020 2.349,5.361 3.939,3.659 6.500 C 1.048 10.428,1.568 15.667,4.900 19.022 C 5.878 20.007,6.984 20.750,8.220 21.254 C 11.958 22.779,16.203 21.920,19.062 19.062 C 23.445 14.678,22.834 7.442,17.778 3.853 C 16.479 2.930,15.094 2.370,13.493 2.119 C 12.909 2.027,11.660 1.985,11.120 2.039 M12.726 4.040 C 14.253 4.189,15.634 4.727,16.853 5.648 C 17.273 5.965,18.035 6.727,18.352 7.147 C 20.742 10.311,20.499 14.656,17.773 17.521 C 16.272 19.098,14.172 19.999,12.000 19.999 C 8.240 19.999,4.947 17.326,4.177 13.648 C 3.701 11.373,4.234 9.019,5.648 7.147 C 5.965 6.727,6.727 5.965,7.147 5.648 C 8.764 4.427,10.767 3.849,12.726 4.040 M6.000 8.999 C 5.797 9.508,5.637 9.929,5.645 9.935 C 5.653 9.942,5.957 10.065,6.320 10.210 L 6.980 10.472 7.011 10.686 C 7.054 10.981,7.239 11.359,7.440 11.560 C 7.532 11.652,7.728 11.785,7.874 11.854 C 8.111 11.966,8.179 11.980,8.500 11.980 C 8.822 11.980,8.888 11.967,9.120 11.854 C 9.263 11.785,9.429 11.681,9.489 11.624 L 9.597 11.519 10.104 11.721 C 10.382 11.833,10.617 11.916,10.626 11.907 C 10.680 11.853,11.354 10.098,11.330 10.075 C 11.308 10.054,8.201 8.801,6.415 8.093 C 6.388 8.082,6.222 8.445,6.000 8.999 M15.120 9.068 C 13.767 9.610,12.653 10.058,12.645 10.065 C 12.628 10.078,13.361 11.920,13.384 11.920 C 13.392 11.920,13.625 11.830,13.902 11.719 L 14.405 11.518 14.570 11.659 C 14.868 11.914,15.377 12.046,15.754 11.965 C 16.390 11.829,16.838 11.370,16.969 10.721 L 17.020 10.471 17.680 10.209 C 18.043 10.065,18.347 9.942,18.355 9.935 C 18.378 9.917,17.635 8.080,17.606 8.082 C 17.592 8.083,16.473 8.527,15.120 9.068 M11.423 14.044 C 10.129 14.233,9.071 15.004,8.327 16.300 C 8.238 16.454,8.129 16.675,8.083 16.790 L 8.001 17.000 12.000 17.000 L 15.999 17.000 15.917 16.790 C 15.616 16.023,14.882 15.112,14.200 14.662 C 13.391 14.128,12.386 13.904,11.423 14.044 " stroke="none" fill-rule="evenodd" fill="black"></path></svg>