<svg viewBox="0 0 24 24" xmlns="http://www.w3.org/2000/svg"><path d="M11.120 2.039 C 8.020 2.349,5.361 3.939,3.659 6.500 C 1.048 10.428,1.568 15.667,4.900 19.022 C 5.878 20.007,6.984 20.750,8.220 21.254 C 11.958 22.779,16.203 21.920,19.062 19.062 C 23.445 14.678,22.834 7.442,17.778 3.853 C 16.479 2.930,15.094 2.370,13.493 2.119 C 12.909 2.027,11.660 1.985,11.120 2.039 M12.910 4.064 L 13.000 4.089 13.000 5.587 L 13.000 7.085 12.710 7.052 C 12.550 7.035,12.231 7.020,12.000 7.020 C 11.769 7.020,11.450 7.035,11.290 7.052 L 11.000 7.085 11.000 5.584 L 11.000 4.084 11.130 4.062 C 11.202 4.050,11.332 4.033,11.420 4.024 C 11.636 4.002,12.797 4.033,12.910 4.064 M9.000 6.310 L 9.000 8.020 8.723 8.260 C 8.571 8.392,8.351 8.612,8.235 8.750 L 8.022 9.000 6.311 9.000 C 5.370 9.000,4.600 8.986,4.600 8.969 C 4.600 8.953,4.705 8.729,4.834 8.471 C 5.630 6.883,6.883 5.630,8.471 4.834 C 8.729 4.705,8.953 4.600,8.969 4.600 C 8.986 4.600,9.000 5.370,9.000 6.310 M15.529 4.834 C 16.794 5.468,17.863 6.405,18.629 7.552 C 18.891 7.943,19.400 8.880,19.400 8.969 C 19.400 8.986,18.631 9.000,17.690 9.000 L 15.980 8.999 15.751 8.738 C 15.625 8.595,15.405 8.375,15.262 8.249 L 15.001 8.020 15.000 6.310 C 15.000 5.370,15.014 4.600,15.031 4.600 C 15.047 4.600,15.271 4.705,15.529 4.834 M12.566 9.062 C 12.794 9.105,13.032 9.188,13.318 9.327 C 13.685 9.505,13.782 9.575,14.104 9.896 C 14.425 10.218,14.495 10.315,14.673 10.682 C 15.105 11.573,15.107 12.422,14.680 13.305 C 13.985 14.739,12.332 15.370,10.850 14.767 C 10.205 14.504,9.637 13.960,9.321 13.303 C 9.072 12.785,9.021 12.563,9.021 12.000 C 9.021 11.434,9.072 11.216,9.328 10.682 C 9.506 10.312,9.573 10.221,9.895 9.900 C 10.171 9.625,10.338 9.497,10.580 9.372 C 11.268 9.018,11.844 8.928,12.566 9.062 M7.052 11.250 C 7.010 11.578,7.011 12.434,7.054 12.750 L 7.088 13.000 5.586 13.000 L 4.084 13.000 4.053 12.850 C 4.036 12.768,4.022 12.385,4.022 12.000 C 4.022 11.615,4.036 11.232,4.053 11.150 L 4.084 11.000 5.584 11.000 L 7.084 11.000 7.052 11.250 M19.947 11.150 C 19.964 11.232,19.978 11.615,19.978 12.000 C 19.978 12.385,19.964 12.768,19.947 12.850 L 19.916 13.000 18.416 13.000 L 16.916 13.000 16.948 12.750 C 16.990 12.422,16.989 11.566,16.946 11.250 L 16.912 11.000 18.414 11.000 L 19.916 11.000 19.947 11.150 M8.249 15.262 C 8.375 15.405,8.595 15.625,8.738 15.751 L 8.999 15.980 9.000 17.690 C 9.000 18.631,8.991 19.400,8.979 19.400 C 8.968 19.400,8.792 19.322,8.589 19.227 C 7.290 18.618,6.124 17.602,5.323 16.380 C 5.090 16.024,4.600 15.110,4.600 15.031 C 4.600 15.014,5.370 15.000,6.310 15.000 L 8.020 15.001 8.249 15.262 M19.400 15.031 C 19.400 15.047,19.296 15.268,19.169 15.521 C 18.362 17.130,17.146 18.352,15.561 19.149 C 15.287 19.287,15.048 19.400,15.031 19.400 C 15.014 19.400,15.000 18.631,15.000 17.690 L 15.001 15.980 15.262 15.751 C 15.405 15.625,15.625 15.405,15.751 15.262 L 15.980 15.001 17.690 15.000 C 18.631 15.000,19.400 15.014,19.400 15.031 M12.000 16.980 C 12.275 16.980,12.613 16.966,12.750 16.948 L 13.000 16.916 13.000 18.419 C 13.000 19.813,12.995 19.925,12.930 19.951 C 12.839 19.989,11.161 19.989,11.070 19.951 C 11.005 19.925,11.000 19.813,11.000 18.419 L 11.000 16.916 11.250 16.948 C 11.388 16.966,11.725 16.980,12.000 16.980 " stroke="none" fill-rule="evenodd" fill="black"></path></svg>