<svg viewBox="0 0 24 24" xmlns="http://www.w3.org/2000/svg"><path d="M3.580 5.047 C 3.236 5.113,2.883 5.310,2.596 5.596 C 1.800 6.393,1.800 7.607,2.596 8.404 C 3.393 9.200,4.607 9.200,5.404 8.404 C 6.200 7.607,6.200 6.393,5.404 5.596 C 4.913 5.106,4.277 4.914,3.580 5.047 M14.580 5.047 C 13.859 5.185,13.199 5.848,13.044 6.592 C 12.789 7.816,13.751 9.000,15.000 9.000 C 16.080 9.000,17.000 8.080,17.000 7.000 C 17.000 6.477,16.790 5.983,16.404 5.596 C 15.913 5.106,15.277 4.914,14.580 5.047 M19.580 5.047 C 18.859 5.185,18.199 5.848,18.044 6.592 C 17.789 7.816,18.751 9.000,20.000 9.000 C 21.080 9.000,22.000 8.080,22.000 7.000 C 22.000 6.477,21.790 5.983,21.404 5.596 C 20.913 5.106,20.277 4.914,19.580 5.047 M8.580 10.047 C 7.859 10.185,7.199 10.848,7.044 11.592 C 6.789 12.816,7.751 14.000,9.000 14.000 C 9.920 14.000,10.768 13.310,10.956 12.408 C 11.095 11.743,10.895 11.088,10.404 10.596 C 9.913 10.106,9.277 9.914,8.580 10.047 M14.580 10.047 C 13.707 10.214,13.000 11.087,13.000 12.000 C 13.000 12.920,13.690 13.768,14.592 13.956 C 15.816 14.211,17.000 13.249,17.000 12.000 C 17.000 11.477,16.790 10.983,16.404 10.596 C 15.913 10.106,15.277 9.914,14.580 10.047 M3.580 15.047 C 3.236 15.113,2.883 15.310,2.596 15.596 C 1.800 16.393,1.800 17.607,2.596 18.404 C 3.393 19.200,4.607 19.200,5.404 18.404 C 6.200 17.607,6.200 16.393,5.404 15.596 C 4.913 15.106,4.277 14.914,3.580 15.047 M14.580 15.047 C 13.707 15.214,13.000 16.087,13.000 17.000 C 13.000 17.920,13.690 18.768,14.592 18.956 C 15.816 19.211,17.000 18.249,17.000 17.000 C 17.000 16.477,16.790 15.983,16.404 15.596 C 15.913 15.106,15.277 14.914,14.580 15.047 " stroke="none" fill="black" fill-rule="evenodd"></path></svg>