<svg viewBox="0 0 24 24" xmlns="http://www.w3.org/2000/svg"><path d="M10.665 2.059 C 10.439 2.139,10.234 2.321,10.120 2.543 L 10.020 2.738 10.000 6.070 L 9.980 9.403 7.786 7.799 C 6.579 6.916,5.587 6.200,5.580 6.207 C 5.506 6.285,4.440 7.771,4.440 7.797 C 4.440 7.816,5.691 8.745,7.220 9.862 C 9.714 11.685,10.000 11.905,10.000 12.002 C 10.000 12.099,9.714 12.319,7.220 14.140 C 5.691 15.257,4.440 16.186,4.440 16.204 C 4.440 16.229,5.508 17.718,5.581 17.793 C 5.588 17.801,6.580 17.085,7.787 16.202 L 9.980 14.598 10.000 17.929 L 10.020 21.260 10.114 21.450 C 10.329 21.887,10.857 22.103,11.314 21.942 C 11.508 21.874,18.478 17.407,18.675 17.225 C 19.075 16.855,19.105 16.247,18.742 15.855 C 18.653 15.759,17.455 14.860,16.080 13.857 C 14.705 12.855,13.576 12.022,13.571 12.007 C 13.566 11.992,14.673 11.170,16.030 10.180 C 17.388 9.190,18.574 8.312,18.665 8.229 C 18.757 8.146,18.871 7.985,18.920 7.871 C 19.078 7.505,18.977 7.057,18.674 6.776 C 18.482 6.598,11.500 2.123,11.309 2.056 C 11.110 1.986,10.866 1.987,10.665 2.059 M14.121 6.197 C 15.253 6.926,16.180 7.537,16.180 7.556 C 16.180 7.585,15.033 8.434,12.190 10.508 L 12.000 10.647 12.000 7.741 C 12.000 6.143,12.014 4.844,12.031 4.854 C 12.047 4.865,12.988 5.469,14.121 6.197 M14.269 15.012 C 15.330 15.786,16.199 16.431,16.199 16.445 C 16.200 16.458,15.296 17.050,14.190 17.761 C 13.085 18.471,12.139 19.078,12.090 19.111 L 12.000 19.169 12.000 16.261 L 12.000 13.353 12.170 13.478 C 12.263 13.547,13.208 14.237,14.269 15.012 " stroke="none" fill-rule="evenodd" fill="black"></path></svg>