<svg viewBox="0 0 24 24" xmlns="http://www.w3.org/2000/svg"><path d="M5.513 2.041 C 4.551 2.205,3.693 2.802,3.328 3.562 C 2.991 4.262,3.020 3.471,3.020 12.000 C 3.020 19.189,3.024 19.593,3.092 19.840 C 3.398 20.938,4.234 21.695,5.408 21.937 C 5.683 21.993,6.539 22.000,13.358 22.000 L 21.000 22.000 21.000 21.000 L 21.000 20.000 13.402 20.000 C 5.824 20.000,5.802 20.000,5.582 19.917 C 5.209 19.778,5.000 19.448,5.000 19.000 C 5.000 18.703,5.082 18.480,5.256 18.298 C 5.567 17.976,4.909 18.000,13.427 18.000 L 21.000 18.000 21.000 10.902 C 21.000 5.875,20.987 3.742,20.956 3.592 C 20.817 2.927,20.322 2.365,19.647 2.107 L 19.420 2.020 12.560 2.014 C 8.787 2.011,5.616 2.023,5.513 2.041 M19.000 10.000 L 19.000 16.000 12.000 16.000 L 5.000 16.000 5.000 10.418 C 5.000 6.527,5.013 4.783,5.044 4.663 C 5.119 4.363,5.379 4.116,5.700 4.037 C 5.766 4.021,8.785 4.006,12.410 4.004 L 19.000 4.000 19.000 10.000 M8.000 7.000 L 8.000 8.000 12.500 8.000 L 17.000 8.000 17.000 7.000 L 17.000 6.000 12.500 6.000 L 8.000 6.000 8.000 7.000 " stroke="none" fill-rule="evenodd" fill="black"></path></svg>