<svg viewBox="0 0 24 24" xmlns="http://www.w3.org/2000/svg"><path d="M11.580 2.047 C 11.080 2.142,10.546 2.534,10.269 3.008 L 10.119 3.264 9.784 3.373 C 9.155 3.578,8.274 4.060,7.740 4.492 C 7.630 4.581,7.373 4.817,7.170 5.016 L 6.799 5.379 5.270 3.850 C 4.428 3.008,3.722 2.320,3.699 2.320 C 3.677 2.320,3.349 2.631,2.970 3.010 L 2.280 3.700 11.280 12.700 L 20.280 21.700 20.990 20.990 L 21.699 20.280 21.026 19.606 L 20.353 18.932 20.526 18.830 C 20.726 18.712,20.860 18.546,20.942 18.313 C 21.032 18.059,21.025 15.930,20.934 15.657 C 20.877 15.486,20.744 15.334,19.934 14.518 L 19.000 13.576 18.999 11.558 C 18.998 9.381,18.976 9.050,18.783 8.282 C 18.329 6.487,17.152 4.928,15.532 3.975 C 15.109 3.725,14.608 3.498,14.171 3.358 C 13.886 3.266,13.879 3.261,13.732 3.008 C 13.294 2.259,12.448 1.882,11.580 2.047 M12.601 5.042 C 13.369 5.136,14.154 5.432,14.824 5.881 C 15.229 6.152,15.848 6.771,16.119 7.176 C 16.568 7.846,16.864 8.631,16.958 9.399 C 16.983 9.596,17.000 10.661,17.000 11.942 C 17.000 13.881,17.008 14.169,17.066 14.343 C 17.123 14.514,17.256 14.666,18.066 15.482 L 19.000 16.424 19.000 16.712 L 19.000 17.000 18.710 17.000 L 18.420 17.000 13.309 11.889 L 8.197 6.777 8.529 6.456 C 8.711 6.279,8.959 6.061,9.080 5.972 C 10.100 5.223,11.360 4.889,12.601 5.042 M5.026 9.510 C 5.012 9.659,5.000 10.635,5.000 11.680 L 5.000 13.581 4.117 14.460 C 3.632 14.944,3.186 15.421,3.127 15.520 L 3.020 15.700 3.020 17.000 L 3.020 18.300 3.131 18.489 C 3.192 18.592,3.301 18.723,3.374 18.778 C 3.681 19.012,3.357 19.000,9.355 19.000 L 14.859 19.000 13.860 18.000 L 12.861 17.000 8.930 17.000 L 5.000 17.000 5.000 16.712 L 5.000 16.424 5.934 15.482 C 6.744 14.666,6.877 14.514,6.934 14.343 C 6.991 14.174,7.000 13.931,7.000 12.643 L 7.000 11.139 6.050 10.190 C 5.527 9.667,5.089 9.240,5.075 9.240 C 5.062 9.240,5.040 9.361,5.026 9.510 M9.222 20.090 C 9.300 20.346,9.563 20.759,9.831 21.044 C 10.837 22.113,12.373 22.304,13.622 21.516 C 14.086 21.223,14.643 20.536,14.778 20.090 L 14.805 20.000 12.000 20.000 L 9.195 20.000 9.222 20.090 " stroke="none" fill-rule="evenodd" fill="black"></path></svg>