<svg viewBox="0 0 24 24" xmlns="http://www.w3.org/2000/svg"><path d="M8.433 3.040 C 7.864 3.131,7.219 3.380,6.773 3.683 C 5.885 4.286,5.298 5.170,5.081 6.235 C 5.007 6.597,5.000 6.782,5.000 8.315 L 5.000 9.996 3.869 10.008 C 2.745 10.020,2.736 10.021,2.539 10.122 C 2.309 10.241,2.101 10.492,2.038 10.728 C 2.007 10.841,1.998 11.354,2.010 12.337 C 2.024 13.632,2.035 13.820,2.113 14.174 C 2.385 15.407,2.890 16.332,3.779 17.223 C 4.403 17.849,5.096 18.311,5.810 18.580 L 6.000 18.651 6.000 20.325 L 6.000 22.000 7.000 22.000 L 8.000 22.000 8.000 20.500 L 8.000 19.000 12.000 19.000 L 16.000 19.000 16.000 20.500 L 16.000 22.000 17.000 22.000 L 18.000 22.000 18.000 20.325 L 18.000 18.651 18.190 18.580 C 18.904 18.311,19.597 17.849,20.221 17.223 C 21.111 16.331,21.629 15.380,21.889 14.164 C 21.960 13.829,21.973 13.594,21.989 12.331 C 22.010 10.666,22.000 10.598,21.702 10.300 C 21.377 9.975,22.016 10.000,14.073 10.000 L 7.000 10.000 7.000 8.427 C 7.000 7.471,7.017 6.762,7.043 6.617 C 7.113 6.238,7.299 5.894,7.596 5.596 C 8.777 4.416,10.773 5.112,10.981 6.777 L 11.009 7.000 12.005 7.000 L 13.000 7.000 13.000 6.816 C 13.000 6.529,12.850 5.863,12.702 5.498 C 12.432 4.826,11.865 4.117,11.285 3.723 C 10.918 3.474,10.349 3.216,9.958 3.120 C 9.572 3.026,8.783 2.984,8.433 3.040 M19.989 12.810 C 19.964 13.755,19.900 14.079,19.624 14.663 C 19.393 15.150,19.165 15.479,18.815 15.829 C 18.264 16.380,17.553 16.758,16.769 16.918 C 16.379 16.998,16.241 17.000,12.000 17.000 C 7.759 17.000,7.621 16.998,7.231 16.918 C 6.447 16.758,5.736 16.380,5.185 15.829 C 4.835 15.479,4.607 15.150,4.376 14.663 C 4.100 14.079,4.036 13.755,4.011 12.810 L 3.990 12.000 12.000 12.000 L 20.010 12.000 19.989 12.810 " stroke="none" fill-rule="evenodd" fill="black"></path></svg>