<svg viewBox="0 0 24 24" xmlns="http://www.w3.org/2000/svg"><path d="M3.580 3.047 C 2.859 3.185,2.199 3.848,2.044 4.592 C 1.972 4.937,1.986 7.168,2.061 7.458 C 2.184 7.928,2.451 8.333,2.807 8.589 L 3.000 8.728 3.000 13.962 C 3.000 17.629,3.013 19.260,3.044 19.408 C 3.201 20.158,3.842 20.799,4.592 20.956 C 4.892 21.018,19.108 21.018,19.408 20.956 C 20.158 20.799,20.799 20.158,20.956 19.408 C 20.987 19.260,21.000 17.629,21.000 13.962 L 21.000 8.728 21.193 8.589 C 21.549 8.333,21.816 7.928,21.939 7.458 C 22.014 7.168,22.028 4.937,21.956 4.592 C 21.797 3.830,21.138 3.181,20.383 3.043 C 20.075 2.987,3.875 2.991,3.580 3.047 M20.000 6.000 L 20.000 7.000 12.000 7.000 L 4.000 7.000 4.000 6.000 L 4.000 5.000 12.000 5.000 L 20.000 5.000 20.000 6.000 M19.000 14.000 L 19.000 19.000 12.000 19.000 L 5.000 19.000 5.000 14.000 L 5.000 9.000 12.000 9.000 L 19.000 9.000 19.000 14.000 M8.000 12.000 L 8.000 13.000 12.000 13.000 L 16.000 13.000 16.000 12.000 L 16.000 11.000 12.000 11.000 L 8.000 11.000 8.000 12.000 " stroke="none" fill-rule="evenodd" fill="black"></path></svg>