<svg viewBox="0 0 24 24" xmlns="http://www.w3.org/2000/svg"><path d="M11.120 2.041 C 6.685 2.503,3.049 5.807,2.184 10.160 C 1.564 13.285,2.550 16.513,4.859 18.915 C 6.719 20.850,9.382 22.000,12.000 22.000 C 14.263 22.000,16.587 21.136,18.380 19.627 C 20.646 17.720,22.000 14.868,22.000 12.000 C 22.000 9.143,20.642 6.273,18.400 4.391 C 16.931 3.158,15.223 2.382,13.360 2.101 C 12.858 2.025,11.595 1.991,11.120 2.041 M13.200 4.100 C 16.047 4.570,18.464 6.554,19.495 9.269 C 19.836 10.166,19.974 10.955,19.974 12.000 C 19.974 12.840,19.925 13.245,19.733 13.980 C 19.383 15.318,18.642 16.596,17.620 17.620 C 14.463 20.786,9.545 20.786,6.380 17.620 C 4.463 15.704,3.643 13.051,4.164 10.460 C 4.469 8.945,5.246 7.513,6.380 6.380 C 7.627 5.132,9.307 4.286,10.940 4.084 C 11.138 4.059,11.354 4.032,11.420 4.023 C 11.666 3.989,12.833 4.039,13.200 4.100 M11.320 6.044 C 10.128 6.177,8.917 6.716,8.045 7.501 C 7.029 8.416,6.409 9.483,6.113 10.826 C 5.987 11.397,5.987 12.603,6.113 13.174 C 6.242 13.759,6.416 14.244,6.684 14.759 C 7.516 16.364,8.999 17.484,10.826 17.887 C 11.397 18.013,12.603 18.013,13.174 17.887 C 13.760 17.758,14.244 17.583,14.759 17.316 C 16.365 16.484,17.484 15.001,17.887 13.174 C 18.013 12.603,18.013 11.397,17.887 10.826 C 17.591 9.483,16.971 8.416,15.955 7.501 C 14.733 6.401,13.001 5.856,11.320 6.044 M12.958 8.120 C 13.621 8.282,14.325 8.682,14.822 9.178 C 15.322 9.679,15.716 10.375,15.887 11.062 C 16.013 11.571,16.013 12.429,15.887 12.938 C 15.646 13.908,15.012 14.801,14.181 15.343 C 12.599 16.374,10.515 16.160,9.185 14.829 C 8.678 14.321,8.285 13.628,8.113 12.938 C 7.987 12.429,7.987 11.571,8.113 11.062 C 8.215 10.652,8.472 10.086,8.723 9.715 C 9.311 8.850,10.338 8.214,11.433 8.040 C 11.783 7.984,12.572 8.026,12.958 8.120 M11.600 10.044 C 11.501 10.063,11.288 10.144,11.126 10.224 C 10.609 10.478,10.209 10.973,10.061 11.542 C 9.699 12.931,11.069 14.301,12.458 13.939 C 13.526 13.661,14.204 12.562,13.939 11.542 C 13.668 10.501,12.639 9.842,11.600 10.044 " stroke="none" fill-rule="evenodd" fill="black"></path></svg>