<svg viewBox="0 0 24 24" xmlns="http://www.w3.org/2000/svg"><path d="M10.960 2.047 C 9.230 2.210,7.442 2.919,5.980 4.021 C 3.012 6.259,1.522 10.001,2.143 13.660 C 2.568 16.167,3.961 18.460,5.980 19.978 C 6.579 20.428,6.998 20.684,7.660 21.004 C 8.599 21.457,9.379 21.706,10.440 21.890 C 10.868 21.964,11.093 21.977,12.000 21.977 C 12.907 21.977,13.132 21.964,13.560 21.890 C 14.621 21.706,15.401 21.457,16.340 21.004 C 19.519 19.469,21.627 16.414,21.959 12.860 C 22.273 9.494,20.752 6.081,18.020 4.021 C 15.987 2.488,13.540 1.804,10.960 2.047 M13.360 4.127 C 14.237 4.268,15.152 4.594,15.946 5.047 C 16.297 5.247,16.878 5.641,16.879 5.680 C 16.880 5.691,15.782 6.798,14.440 8.140 L 12.000 10.580 11.277 9.857 L 10.555 9.134 10.850 8.697 C 11.736 7.385,12.210 6.002,12.304 4.452 L 12.331 4.004 12.596 4.025 C 12.741 4.037,13.085 4.083,13.360 4.127 M10.301 4.490 C 10.214 5.521,9.867 6.541,9.320 7.376 L 9.113 7.693 8.108 6.687 C 7.145 5.725,7.105 5.679,7.181 5.620 C 7.673 5.236,8.688 4.685,9.320 4.460 C 9.547 4.380,10.175 4.192,10.314 4.163 C 10.322 4.161,10.316 4.309,10.301 4.490 M6.693 8.113 L 7.685 9.106 7.452 9.248 C 6.620 9.759,5.602 10.083,4.631 10.146 L 4.231 10.173 4.259 10.036 C 4.325 9.709,4.625 8.902,4.842 8.466 C 5.058 8.031,5.624 7.120,5.678 7.120 C 5.690 7.120,6.147 7.567,6.693 8.113 M18.634 7.556 C 19.149 8.334,19.519 9.163,19.738 10.034 C 19.852 10.486,19.960 11.186,19.960 11.470 L 19.960 11.669 19.774 11.695 C 19.672 11.709,19.499 11.720,19.390 11.720 C 18.863 11.720,17.769 11.956,17.089 12.216 C 16.432 12.468,15.573 12.936,15.048 13.328 L 14.877 13.457 14.149 12.728 L 13.420 12.000 15.860 9.560 C 17.202 8.218,18.310 7.120,18.322 7.120 C 18.335 7.120,18.475 7.316,18.634 7.556 M9.860 11.280 L 10.579 12.000 8.140 14.440 C 6.798 15.782,5.690 16.880,5.678 16.880 C 5.622 16.880,5.029 15.926,4.825 15.509 C 4.422 14.682,4.113 13.590,4.060 12.805 C 4.048 12.615,4.029 12.393,4.018 12.310 L 3.999 12.160 4.361 12.160 C 5.114 12.160,6.014 12.005,6.840 11.734 C 7.387 11.555,8.291 11.109,8.720 10.807 C 8.907 10.676,9.078 10.566,9.100 10.564 C 9.123 10.562,9.465 10.884,9.860 11.280 M12.736 14.156 L 13.450 14.871 13.188 15.266 C 12.383 16.479,11.939 17.880,11.856 19.470 L 11.828 20.000 11.664 20.000 C 11.404 19.999,10.815 19.924,10.380 19.836 C 9.309 19.620,8.013 19.030,7.181 18.380 C 7.106 18.321,7.211 18.209,9.541 15.879 C 10.882 14.538,11.989 13.440,12.000 13.440 C 12.012 13.440,12.342 13.762,12.736 14.156 M19.800 13.698 C 19.800 13.707,19.773 13.831,19.740 13.973 C 19.642 14.395,19.409 15.030,19.179 15.501 C 18.980 15.909,18.377 16.880,18.323 16.880 C 18.310 16.880,17.852 16.432,17.305 15.885 L 16.310 14.890 16.545 14.732 C 17.138 14.333,17.835 14.027,18.532 13.859 C 19.009 13.744,19.800 13.643,19.800 13.698 M16.819 18.380 C 16.144 18.909,15.063 19.448,14.185 19.694 L 13.830 19.793 13.858 19.407 C 13.934 18.359,14.262 17.310,14.752 16.551 L 14.900 16.321 15.899 17.320 C 16.856 18.276,16.895 18.321,16.819 18.380 " stroke="none" fill-rule="evenodd" fill="black"></path></svg>