<svg viewBox="0 0 24 24" xmlns="http://www.w3.org/2000/svg"><path d="M17.000 12.000 L 17.000 20.000 18.000 20.000 L 19.000 20.000 19.000 12.000 L 19.000 4.000 18.000 4.000 L 17.000 4.000 17.000 12.000 M9.000 13.000 L 9.000 20.000 10.000 20.000 L 11.000 20.000 11.000 13.000 L 11.000 6.000 10.000 6.000 L 9.000 6.000 9.000 13.000 M13.000 14.000 L 13.000 20.000 14.000 20.000 L 15.000 20.000 15.000 14.000 L 15.000 8.000 14.000 8.000 L 13.000 8.000 13.000 14.000 M5.000 16.000 L 5.000 20.000 6.000 20.000 L 7.000 20.000 7.000 16.000 L 7.000 12.000 6.000 12.000 L 5.000 12.000 5.000 16.000 " stroke="none" fill-rule="evenodd" fill="black"></path></svg>