<svg viewBox="0 0 24 24" xmlns="http://www.w3.org/2000/svg"><path d="M11.580 2.047 C 10.859 2.185,10.199 2.848,10.044 3.592 C 9.789 4.816,10.751 6.000,12.000 6.000 C 13.080 6.000,14.000 5.080,14.000 4.000 C 14.000 3.477,13.790 2.983,13.404 2.596 C 12.913 2.106,12.277 1.914,11.580 2.047 M4.000 8.000 L 4.000 9.000 6.500 9.000 L 9.000 9.000 9.000 15.500 L 9.000 22.000 10.000 22.000 L 11.000 22.000 11.000 18.500 L 11.000 15.000 12.000 15.000 L 13.000 15.000 13.000 18.500 L 13.000 22.000 14.000 22.000 L 15.000 22.000 15.000 15.500 L 15.000 9.000 17.500 9.000 L 20.000 9.000 20.000 8.000 L 20.000 7.000 12.000 7.000 L 4.000 7.000 4.000 8.000 " stroke="none" fill-rule="evenodd" fill="black"></path></svg>