<svg viewBox="0 0 24 24" xmlns="http://www.w3.org/2000/svg"><path d="M15.240 2.145 C 14.519 2.236,13.848 2.435,13.220 2.745 C 12.321 3.189,12.396 3.119,7.758 7.758 C 3.152 12.364,3.195 12.317,2.762 13.180 C 2.346 14.010,2.120 14.954,2.120 15.861 C 2.120 16.468,2.169 16.847,2.323 17.432 C 2.607 18.508,3.094 19.342,3.918 20.162 C 4.814 21.054,5.943 21.620,7.223 21.822 C 7.754 21.905,8.806 21.883,9.280 21.779 C 9.798 21.665,10.324 21.482,10.780 21.256 C 11.681 20.810,11.605 20.879,16.242 16.242 C 20.852 11.632,20.811 11.677,21.236 10.820 C 21.482 10.322,21.653 9.835,21.768 9.308 C 21.841 8.968,21.856 8.769,21.858 8.120 C 21.860 7.233,21.820 6.975,21.556 6.181 C 21.257 5.283,20.818 4.579,20.120 3.880 C 19.260 3.021,18.277 2.488,17.086 2.235 C 16.709 2.155,15.595 2.101,15.240 2.145 M16.876 4.238 C 18.181 4.563,19.283 5.605,19.692 6.901 C 19.973 7.792,19.924 8.830,19.563 9.680 C 19.259 10.394,19.332 10.314,14.923 14.733 C 12.554 17.108,10.689 18.945,10.510 19.081 C 10.135 19.366,9.663 19.602,9.180 19.746 C 8.853 19.844,8.757 19.854,8.140 19.857 C 7.346 19.861,7.038 19.797,6.406 19.498 C 5.922 19.269,5.611 19.044,5.240 18.655 C 4.653 18.039,4.323 17.389,4.179 16.565 C 4.000 15.547,4.217 14.547,4.818 13.620 C 4.996 13.344,12.912 5.383,13.391 4.997 C 13.905 4.583,14.513 4.302,15.154 4.180 C 15.581 4.099,16.431 4.128,16.876 4.238 M11.664 8.063 C 11.436 8.146,11.257 8.297,11.131 8.511 C 11.036 8.672,11.020 8.744,11.020 9.000 C 11.020 9.256,11.036 9.328,11.131 9.489 C 11.470 10.065,12.234 10.168,12.701 9.701 C 12.881 9.521,13.000 9.242,13.000 9.000 C 13.000 8.326,12.295 7.832,11.664 8.063 M8.664 11.063 C 8.436 11.146,8.257 11.297,8.131 11.511 C 8.036 11.672,8.020 11.744,8.020 12.000 C 8.020 12.256,8.036 12.328,8.131 12.489 C 8.470 13.065,9.234 13.168,9.701 12.701 C 10.092 12.310,10.092 11.690,9.701 11.299 C 9.429 11.027,9.018 10.933,8.664 11.063 M14.664 11.063 C 14.436 11.146,14.257 11.297,14.131 11.511 C 14.036 11.672,14.020 11.744,14.020 12.000 C 14.020 12.256,14.036 12.328,14.131 12.489 C 14.470 13.065,15.234 13.168,15.701 12.701 C 15.881 12.521,16.000 12.242,16.000 12.000 C 16.000 11.326,15.295 10.832,14.664 11.063 M11.664 14.063 C 11.436 14.146,11.257 14.297,11.131 14.511 C 11.036 14.672,11.020 14.744,11.020 15.000 C 11.020 15.256,11.036 15.328,11.131 15.489 C 11.470 16.065,12.234 16.168,12.701 15.701 C 12.881 15.521,13.000 15.242,13.000 15.000 C 13.000 14.326,12.295 13.832,11.664 14.063 " stroke="none" fill-rule="evenodd" fill="black"></path></svg>