<svg viewBox="0 0 24 24" xmlns="http://www.w3.org/2000/svg"><path d="M3.000 12.000 L 3.000 21.000 4.000 21.000 L 5.000 21.000 5.000 12.000 L 5.000 3.000 4.000 3.000 L 3.000 3.000 3.000 12.000 M7.000 4.000 L 7.000 5.000 8.000 5.000 L 9.000 5.000 9.000 4.000 L 9.000 3.000 8.000 3.000 L 7.000 3.000 7.000 4.000 M11.000 4.000 L 11.000 5.000 12.000 5.000 L 13.000 5.000 13.000 4.000 L 13.000 3.000 12.000 3.000 L 11.000 3.000 11.000 4.000 M15.000 4.000 L 15.000 5.000 16.000 5.000 L 17.000 5.000 17.000 4.000 L 17.000 3.000 16.000 3.000 L 15.000 3.000 15.000 4.000 M19.000 4.000 L 19.000 5.000 20.000 5.000 L 21.000 5.000 21.000 4.000 L 21.000 3.000 20.000 3.000 L 19.000 3.000 19.000 4.000 M11.000 8.000 L 11.000 9.000 12.000 9.000 L 13.000 9.000 13.000 8.000 L 13.000 7.000 12.000 7.000 L 11.000 7.000 11.000 8.000 M19.000 8.000 L 19.000 9.000 20.000 9.000 L 21.000 9.000 21.000 8.000 L 21.000 7.000 20.000 7.000 L 19.000 7.000 19.000 8.000 M7.000 12.000 L 7.000 13.000 8.000 13.000 L 9.000 13.000 9.000 12.000 L 9.000 11.000 8.000 11.000 L 7.000 11.000 7.000 12.000 M11.000 12.000 L 11.000 13.000 12.000 13.000 L 13.000 13.000 13.000 12.000 L 13.000 11.000 12.000 11.000 L 11.000 11.000 11.000 12.000 M15.000 12.000 L 15.000 13.000 16.000 13.000 L 17.000 13.000 17.000 12.000 L 17.000 11.000 16.000 11.000 L 15.000 11.000 15.000 12.000 M19.000 12.000 L 19.000 13.000 20.000 13.000 L 21.000 13.000 21.000 12.000 L 21.000 11.000 20.000 11.000 L 19.000 11.000 19.000 12.000 M11.000 16.000 L 11.000 17.000 12.000 17.000 L 13.000 17.000 13.000 16.000 L 13.000 15.000 12.000 15.000 L 11.000 15.000 11.000 16.000 M19.000 16.000 L 19.000 17.000 20.000 17.000 L 21.000 17.000 21.000 16.000 L 21.000 15.000 20.000 15.000 L 19.000 15.000 19.000 16.000 M7.000 20.000 L 7.000 21.000 8.000 21.000 L 9.000 21.000 9.000 20.000 L 9.000 19.000 8.000 19.000 L 7.000 19.000 7.000 20.000 M11.000 20.000 L 11.000 21.000 12.000 21.000 L 13.000 21.000 13.000 20.000 L 13.000 19.000 12.000 19.000 L 11.000 19.000 11.000 20.000 M15.000 20.000 L 15.000 21.000 16.000 21.000 L 17.000 21.000 17.000 20.000 L 17.000 19.000 16.000 19.000 L 15.000 19.000 15.000 20.000 M19.000 20.000 L 19.000 21.000 20.000 21.000 L 21.000 21.000 21.000 20.000 L 21.000 19.000 20.000 19.000 L 19.000 19.000 19.000 20.000 " stroke="none" fill-rule="evenodd" fill="black"></path></svg>