<svg viewBox="0 0 24 24" xmlns="http://www.w3.org/2000/svg"><path d="M11.120 2.039 C 8.020 2.349,5.361 3.939,3.659 6.500 C 1.048 10.428,1.568 15.667,4.900 19.022 C 5.878 20.007,6.984 20.750,8.220 21.254 C 11.958 22.779,16.203 21.920,19.062 19.062 C 23.445 14.678,22.834 7.442,17.778 3.853 C 16.479 2.930,15.094 2.370,13.493 2.119 C 12.909 2.027,11.660 1.985,11.120 2.039 M12.726 4.040 C 14.253 4.189,15.634 4.727,16.853 5.648 C 17.273 5.965,18.035 6.727,18.352 7.147 C 20.742 10.311,20.499 14.656,17.773 17.521 C 16.272 19.098,14.172 19.999,12.000 19.999 C 8.240 19.999,4.947 17.326,4.177 13.648 C 3.701 11.373,4.234 9.019,5.648 7.147 C 5.965 6.727,6.727 5.965,7.147 5.648 C 8.764 4.427,10.767 3.849,12.726 4.040 M10.150 6.041 C 9.722 6.149,9.343 6.465,9.144 6.880 C 9.034 7.111,9.020 7.180,9.020 7.500 C 9.020 7.811,9.035 7.894,9.133 8.104 C 9.276 8.413,9.585 8.721,9.900 8.868 C 10.107 8.965,10.190 8.980,10.500 8.980 C 10.811 8.980,10.894 8.965,11.104 8.867 C 11.413 8.724,11.721 8.415,11.868 8.100 C 11.965 7.893,11.980 7.810,11.980 7.500 C 11.980 7.189,11.965 7.106,11.867 6.896 C 11.725 6.589,11.414 6.278,11.110 6.139 C 10.852 6.022,10.407 5.976,10.150 6.041 M7.150 9.041 C 6.722 9.149,6.343 9.465,6.144 9.880 C 6.034 10.111,6.020 10.180,6.020 10.500 C 6.020 10.811,6.035 10.894,6.133 11.104 C 6.276 11.413,6.585 11.721,6.900 11.868 C 7.107 11.965,7.190 11.980,7.500 11.980 C 7.811 11.980,7.894 11.965,8.104 11.867 C 8.413 11.724,8.721 11.415,8.868 11.100 C 8.965 10.893,8.980 10.810,8.980 10.500 C 8.980 10.189,8.965 10.106,8.867 9.896 C 8.725 9.589,8.414 9.278,8.110 9.139 C 7.852 9.022,7.407 8.976,7.150 9.041 M11.150 10.041 C 10.722 10.149,10.343 10.465,10.144 10.880 C 10.034 11.111,10.020 11.180,10.020 11.500 C 10.020 11.811,10.035 11.894,10.133 12.104 C 10.276 12.413,10.585 12.721,10.900 12.868 C 11.107 12.965,11.190 12.980,11.500 12.980 C 11.811 12.980,11.894 12.965,12.104 12.867 C 12.413 12.724,12.721 12.415,12.868 12.100 C 12.965 11.893,12.980 11.810,12.980 11.500 C 12.980 11.189,12.965 11.106,12.867 10.896 C 12.725 10.589,12.414 10.278,12.110 10.139 C 11.852 10.022,11.407 9.976,11.150 10.041 " stroke="none" fill-rule="evenodd" fill="black"></path></svg>