<svg viewBox="0 0 24 24" xmlns="http://www.w3.org/2000/svg"><path d="M8.580 2.047 C 7.858 2.186,7.199 2.848,7.044 3.592 C 7.014 3.735,7.000 4.738,7.000 6.692 L 7.000 9.580 4.617 11.960 C 3.307 13.269,2.190 14.416,2.135 14.508 C 1.914 14.878,1.984 15.386,2.298 15.700 C 2.456 15.858,2.753 16.000,2.926 16.000 C 2.994 16.000,2.998 16.132,3.009 18.650 L 3.020 21.300 3.131 21.489 C 3.192 21.592,3.301 21.723,3.374 21.778 C 3.684 22.015,3.106 22.000,11.998 22.000 C 21.144 22.000,20.376 22.026,20.701 21.701 C 21.027 21.375,21.000 22.207,21.000 12.475 C 21.000 6.299,20.987 3.743,20.956 3.592 C 20.817 2.927,20.322 2.365,19.647 2.107 L 19.420 2.020 14.100 2.014 C 10.831 2.010,8.703 2.023,8.580 2.047 M19.000 12.000 L 19.000 20.000 16.000 20.000 L 13.000 20.000 13.000 18.000 C 13.000 16.092,13.003 16.000,13.073 16.000 C 13.246 16.000,13.544 15.858,13.702 15.700 C 14.016 15.386,14.086 14.878,13.865 14.508 C 13.810 14.416,12.693 13.269,11.383 11.960 L 9.000 9.580 9.000 6.790 L 9.000 4.000 14.000 4.000 L 19.000 4.000 19.000 12.000 M11.000 7.000 L 11.000 8.000 12.000 8.000 L 13.000 8.000 13.000 7.000 L 13.000 6.000 12.000 6.000 L 11.000 6.000 11.000 7.000 M15.000 7.000 L 15.000 8.000 16.000 8.000 L 17.000 8.000 17.000 7.000 L 17.000 6.000 16.000 6.000 L 15.000 6.000 15.000 7.000 M15.000 11.020 L 15.000 12.000 16.000 12.000 L 17.000 12.000 17.000 11.020 L 17.000 10.040 16.000 10.040 L 15.000 10.040 15.000 11.020 M9.510 12.930 L 11.000 14.420 11.000 17.210 L 11.000 20.000 8.000 20.000 L 5.000 20.000 5.000 17.210 L 5.000 14.420 6.490 12.930 C 7.309 12.111,7.989 11.440,8.000 11.440 C 8.011 11.440,8.690 12.110,9.510 12.930 M15.000 15.000 L 15.000 16.000 16.000 16.000 L 17.000 16.000 17.000 15.000 L 17.000 14.000 16.000 14.000 L 15.000 14.000 15.000 15.000 M7.000 16.000 L 7.000 17.000 8.000 17.000 L 9.000 17.000 9.000 16.000 L 9.000 15.000 8.000 15.000 L 7.000 15.000 7.000 16.000 " stroke="none" fill-rule="evenodd" fill="black"></path></svg>