<svg viewBox="0 0 24 24" xmlns="http://www.w3.org/2000/svg"><path d="M11.511 2.039 C 10.416 2.239,9.529 3.036,9.150 4.160 L 9.022 4.540 9.008 6.270 L 8.995 8.000 6.925 8.000 C 5.611 8.000,4.768 8.016,4.617 8.043 C 3.862 8.181,3.203 8.830,3.044 9.592 C 2.982 9.890,2.982 20.110,3.044 20.408 C 3.201 21.158,3.842 21.799,4.592 21.956 C 4.742 21.987,6.901 22.000,12.000 22.000 C 17.099 22.000,19.258 21.987,19.408 21.956 C 20.158 21.799,20.799 21.158,20.956 20.408 C 21.018 20.110,21.018 9.890,20.956 9.592 C 20.818 8.931,20.341 8.387,19.660 8.116 L 19.420 8.020 17.212 8.008 L 15.005 7.996 14.990 6.228 C 14.973 4.249,14.975 4.264,14.673 3.649 C 14.498 3.291,14.110 2.837,13.763 2.582 C 13.506 2.394,13.070 2.181,12.778 2.102 C 12.496 2.026,11.778 1.990,11.511 2.039 M12.416 4.101 C 12.599 4.188,12.810 4.388,12.909 4.571 C 12.975 4.690,12.981 4.904,12.991 7.350 L 13.002 10.000 16.001 10.000 L 19.000 10.000 19.000 11.000 L 19.000 12.000 12.000 12.000 L 5.000 12.000 5.000 11.000 L 5.000 10.000 8.000 10.000 L 11.000 10.000 11.000 7.486 C 11.000 5.421,11.010 4.939,11.057 4.782 C 11.243 4.166,11.881 3.846,12.416 4.101 M19.000 17.000 L 19.000 20.000 12.000 20.000 L 5.000 20.000 5.000 17.000 L 5.000 14.000 12.000 14.000 L 19.000 14.000 19.000 17.000 " stroke="none" fill-rule="evenodd" fill="black"></path></svg>