<svg viewBox="0 0 24 24" xmlns="http://www.w3.org/2000/svg"><path d="M5.602 2.043 C 4.776 2.150,3.978 2.604,3.543 3.213 C 3.330 3.512,3.203 3.787,3.096 4.180 C 3.023 4.451,3.020 4.714,3.020 12.020 L 3.020 19.580 3.112 19.898 C 3.263 20.419,3.452 20.736,3.842 21.126 C 4.131 21.415,4.250 21.503,4.564 21.655 C 4.771 21.755,5.093 21.874,5.280 21.918 C 5.615 21.998,5.724 21.999,13.310 22.000 L 21.000 22.000 21.000 21.000 L 21.000 20.000 13.387 20.000 C 6.464 20.000,5.757 19.994,5.583 19.935 C 5.180 19.797,4.966 19.404,5.014 18.889 C 5.059 18.409,5.324 18.114,5.780 18.040 C 5.931 18.015,8.801 18.000,13.510 18.000 L 21.000 18.000 21.000 10.888 C 21.000 3.113,21.014 3.591,20.770 3.088 C 20.518 2.570,19.893 2.124,19.300 2.041 C 18.955 1.992,5.978 1.995,5.602 2.043 M13.000 7.500 C 13.000 9.425,13.009 11.000,13.020 11.000 C 13.031 11.000,13.481 10.780,14.020 10.510 L 15.000 10.021 15.980 10.510 C 16.519 10.780,16.969 11.000,16.980 11.000 C 16.991 11.000,17.000 9.425,17.000 7.500 L 17.000 4.000 18.000 4.000 L 19.000 4.000 19.000 10.000 L 19.000 16.000 11.999 16.000 L 4.999 16.000 5.009 10.330 L 5.020 4.660 5.120 4.482 C 5.242 4.264,5.479 4.091,5.720 4.044 C 5.819 4.025,7.498 4.007,9.450 4.004 L 13.000 4.000 13.000 7.500 " stroke="none" fill-rule="evenodd" fill="black"></path></svg>