<svg viewBox="0 0 24 24" xmlns="http://www.w3.org/2000/svg"><path d="M4.554 4.550 C 2.752 6.453,1.866 9.362,2.262 12.074 C 2.528 13.896,3.273 15.507,4.486 16.881 L 4.773 17.206 5.484 16.496 L 6.195 15.786 5.997 15.569 C 5.172 14.667,4.573 13.486,4.319 12.260 C 3.846 9.983,4.466 7.635,5.988 5.942 L 6.203 5.703 5.512 5.012 C 5.132 4.631,4.810 4.320,4.797 4.320 C 4.783 4.320,4.674 4.424,4.554 4.550 M18.968 5.012 L 18.276 5.704 18.363 5.782 C 18.532 5.934,18.953 6.465,19.173 6.804 C 19.653 7.541,19.998 8.378,20.185 9.257 C 20.324 9.912,20.362 11.120,20.264 11.783 C 20.059 13.184,19.475 14.465,18.582 15.476 C 18.438 15.639,18.320 15.783,18.320 15.797 C 18.320 15.810,18.632 16.133,19.013 16.513 L 19.707 17.206 19.980 16.913 C 21.242 15.557,22.056 13.722,22.283 11.722 C 22.344 11.182,22.309 9.793,22.222 9.280 C 21.969 7.794,21.370 6.363,20.544 5.268 C 20.231 4.853,19.760 4.320,19.706 4.320 C 19.680 4.320,19.348 4.631,18.968 5.012 M7.021 7.590 C 6.217 8.554,5.840 9.566,5.840 10.761 C 5.840 11.541,6.004 12.213,6.368 12.928 C 6.577 13.340,6.863 13.751,7.133 14.031 L 7.298 14.201 7.989 13.511 C 8.369 13.131,8.680 12.810,8.680 12.797 C 8.680 12.784,8.587 12.658,8.474 12.517 C 8.360 12.375,8.198 12.116,8.114 11.940 C 7.633 10.941,7.808 9.723,8.553 8.877 L 8.715 8.694 8.027 8.007 C 7.649 7.629,7.318 7.320,7.293 7.320 C 7.267 7.320,7.145 7.441,7.021 7.590 M15.973 8.009 L 15.285 8.700 15.446 8.879 C 16.018 9.516,16.280 10.488,16.104 11.320 C 16.022 11.706,15.788 12.192,15.526 12.517 C 15.413 12.658,15.320 12.784,15.320 12.797 C 15.320 12.810,15.631 13.131,16.011 13.511 L 16.702 14.201 16.867 14.031 C 17.466 13.411,17.931 12.473,18.103 11.540 C 18.192 11.059,18.163 10.125,18.044 9.652 C 17.936 9.221,17.726 8.706,17.503 8.325 C 17.296 7.972,16.801 7.345,16.717 7.329 C 16.686 7.323,16.351 7.629,15.973 8.009 M11.400 8.595 C 10.403 8.914,9.802 9.984,10.061 10.978 C 10.154 11.336,10.353 11.673,10.634 11.952 L 10.889 12.203 10.463 16.912 C 10.228 19.501,10.026 21.706,10.013 21.810 L 9.990 22.000 12.000 22.000 L 14.010 22.000 13.987 21.810 C 13.974 21.706,13.771 19.492,13.536 16.891 L 13.107 12.161 13.224 12.072 C 13.997 11.478,14.216 10.422,13.750 9.547 C 13.517 9.110,13.135 8.789,12.640 8.614 C 12.309 8.496,11.734 8.488,11.400 8.595 " stroke="none" fill-rule="evenodd" fill="black"></path></svg>