<svg viewBox="0 0 24 24" xmlns="http://www.w3.org/2000/svg"><path d="M4.000 6.278 L 4.000 9.556 3.770 9.708 C 3.464 9.911,3.034 10.320,2.790 10.640 C 2.537 10.974,2.232 11.606,2.115 12.040 C 2.025 12.373,2.023 12.429,2.010 14.748 C 2.000 16.357,2.010 17.168,2.039 17.276 C 2.101 17.508,2.311 17.760,2.539 17.878 C 2.723 17.973,2.783 17.981,3.369 17.993 L 4.000 18.006 4.000 20.003 L 4.000 22.000 5.000 22.000 L 6.000 22.000 6.000 20.000 L 6.000 18.000 12.000 18.000 L 18.000 18.000 18.000 20.000 L 18.000 22.000 19.000 22.000 L 20.000 22.000 20.000 20.000 L 20.000 18.000 20.573 18.000 C 21.259 18.000,21.454 17.948,21.701 17.701 C 22.004 17.398,22.000 17.437,22.000 14.918 C 22.000 12.514,21.987 12.327,21.782 11.725 C 21.512 10.934,20.921 10.166,20.230 9.708 L 20.000 9.556 20.000 6.278 L 20.000 3.000 19.000 3.000 L 18.000 3.000 18.000 4.000 L 18.000 5.000 12.000 5.000 L 6.000 5.000 6.000 4.000 L 6.000 3.000 5.000 3.000 L 4.000 3.000 4.000 6.278 M11.000 8.000 L 11.000 9.000 8.500 9.000 L 6.000 9.000 6.000 8.000 L 6.000 7.000 8.500 7.000 L 11.000 7.000 11.000 8.000 M18.000 8.000 L 18.000 9.000 15.500 9.000 L 13.000 9.000 13.000 8.000 L 13.000 7.000 15.500 7.000 L 18.000 7.000 18.000 8.000 M18.644 11.106 C 19.244 11.336,19.669 11.760,19.892 12.353 C 19.973 12.569,19.978 12.660,19.991 14.290 L 20.005 16.000 12.002 16.000 L 4.000 16.000 4.000 14.427 C 4.000 13.471,4.017 12.762,4.043 12.617 C 4.180 11.868,4.845 11.188,5.580 11.047 C 5.704 11.023,8.198 11.010,12.100 11.014 L 18.420 11.020 18.644 11.106 " stroke="none" fill-rule="evenodd" fill="black"></path></svg>