<svg viewBox="0 0 24 24" xmlns="http://www.w3.org/2000/svg"><path d="M11.580 2.047 C 11.080 2.142,10.546 2.534,10.268 3.008 C 10.121 3.261,10.114 3.266,9.829 3.358 C 7.592 4.077,5.817 5.966,5.221 8.261 C 5.026 9.012,5.000 9.397,5.000 11.572 L 5.000 13.581 4.117 14.460 C 3.632 14.944,3.186 15.421,3.127 15.520 L 3.020 15.700 3.020 17.000 L 3.020 18.300 3.131 18.489 C 3.192 18.592,3.301 18.723,3.374 18.778 C 3.684 19.015,3.106 19.000,11.998 19.000 C 21.144 19.000,20.376 19.026,20.701 18.701 C 20.982 18.421,21.000 18.316,21.000 17.000 C 21.000 16.043,20.989 15.822,20.934 15.657 C 20.877 15.486,20.744 15.334,19.934 14.518 L 19.000 13.576 18.999 11.558 C 18.998 9.381,18.976 9.050,18.783 8.282 C 18.329 6.487,17.152 4.928,15.532 3.975 C 15.109 3.725,14.608 3.498,14.171 3.358 C 13.886 3.266,13.879 3.261,13.732 3.008 C 13.294 2.259,12.448 1.882,11.580 2.047 M12.601 5.042 C 13.369 5.136,14.154 5.432,14.824 5.881 C 15.229 6.152,15.848 6.771,16.119 7.176 C 16.568 7.846,16.864 8.631,16.958 9.399 C 16.983 9.596,17.000 10.661,17.000 11.942 C 17.000 13.881,17.008 14.169,17.066 14.343 C 17.123 14.514,17.256 14.666,18.066 15.482 L 19.000 16.424 19.000 16.712 L 19.000 17.000 12.000 17.000 L 5.000 17.000 5.000 16.712 L 5.000 16.424 5.934 15.482 C 6.744 14.666,6.877 14.514,6.934 14.343 C 6.992 14.169,7.000 13.881,7.000 11.942 C 7.000 10.661,7.017 9.596,7.042 9.399 C 7.136 8.631,7.432 7.846,7.881 7.176 C 8.152 6.771,8.771 6.152,9.176 5.881 C 10.209 5.190,11.409 4.895,12.601 5.042 M8.040 11.000 L 8.040 12.000 12.000 12.000 L 15.960 12.000 15.960 11.000 L 15.960 10.000 12.000 10.000 L 8.040 10.000 8.040 11.000 M9.222 20.090 C 9.300 20.346,9.563 20.759,9.831 21.044 C 10.837 22.113,12.373 22.304,13.622 21.516 C 14.086 21.223,14.643 20.536,14.778 20.090 L 14.805 20.000 12.000 20.000 L 9.195 20.000 9.222 20.090 " stroke="none" fill-rule="evenodd" fill="black"></path></svg>