<svg viewBox="0 0 24 24" xmlns="http://www.w3.org/2000/svg"><path d="M8.000 3.000 L 8.000 4.000 8.500 4.000 L 9.000 4.000 9.000 6.336 L 9.000 8.673 8.690 8.842 C 6.979 9.779,5.762 11.305,5.258 13.146 C 5.097 13.732,5.036 14.140,5.013 14.780 C 4.916 17.462,6.393 19.975,8.799 21.217 C 12.500 23.129,17.031 21.393,18.540 17.485 C 19.171 15.851,19.139 13.947,18.452 12.303 L 18.354 12.067 19.537 10.883 L 20.720 9.699 20.030 9.010 C 19.650 8.630,19.321 8.320,19.299 8.320 C 19.277 8.320,18.802 8.778,18.242 9.338 L 17.225 10.356 16.801 9.948 C 16.336 9.501,15.841 9.132,15.331 8.854 L 15.000 8.674 15.000 6.337 L 15.000 4.000 15.500 4.000 L 16.000 4.000 16.000 3.000 L 16.000 2.000 12.000 2.000 L 8.000 2.000 8.000 3.000 M13.000 7.030 L 13.000 10.060 13.450 10.217 C 14.301 10.513,14.932 10.895,15.502 11.460 C 16.152 12.105,16.676 13.037,16.858 13.870 L 16.886 14.000 12.003 14.000 C 9.317 14.000,7.120 13.988,7.120 13.973 C 7.120 13.890,7.302 13.316,7.407 13.068 C 7.994 11.683,9.056 10.730,10.610 10.194 L 11.000 10.060 11.000 7.030 L 11.000 4.000 12.000 4.000 L 13.000 4.000 13.000 7.030 M16.861 16.150 C 16.768 16.658,16.382 17.473,15.985 18.001 C 14.180 20.399,10.706 20.675,8.538 18.593 C 7.876 17.958,7.279 16.915,7.139 16.150 L 7.111 16.000 12.000 16.000 L 16.889 16.000 16.861 16.150 " stroke="none" fill-rule="evenodd" fill="black"></path></svg>