<svg viewBox="0 0 24 24" xmlns="http://www.w3.org/2000/svg"><path d="M3.970 4.010 L 3.280 4.700 4.870 6.290 L 6.460 7.880 5.400 8.940 L 4.341 10.000 7.170 10.000 L 10.000 10.000 10.000 7.170 L 10.000 4.341 8.940 5.400 L 7.880 6.460 6.310 4.890 C 5.446 4.026,4.722 3.320,4.700 3.320 C 4.678 3.320,4.349 3.630,3.970 4.010 M17.690 4.890 L 16.120 6.460 15.060 5.400 L 14.000 4.341 14.000 7.170 L 14.000 10.000 16.830 10.000 L 19.659 10.000 18.600 8.940 L 17.540 7.880 19.130 6.290 L 20.720 4.699 20.030 4.010 C 19.650 3.630,19.321 3.320,19.300 3.320 C 19.278 3.320,18.553 4.026,17.690 4.890 M5.400 15.060 L 6.460 16.120 4.880 17.700 L 3.300 19.280 4.010 19.990 L 4.720 20.700 6.300 19.120 L 7.880 17.540 8.940 18.600 L 10.000 19.659 10.000 16.830 L 10.000 14.000 7.170 14.000 L 4.341 14.000 5.400 15.060 M14.000 16.830 L 14.000 19.659 15.060 18.600 L 16.120 17.540 17.700 19.120 L 19.280 20.700 19.990 19.990 L 20.700 19.280 19.120 17.700 L 17.540 16.120 18.600 15.060 L 19.659 14.000 16.830 14.000 L 14.000 14.000 14.000 16.830 " stroke="none" fill-rule="evenodd" fill="black"></path></svg>