<svg viewBox="0 0 24 24" xmlns="http://www.w3.org/2000/svg"><path d="M6.350 3.350 L 5.640 4.060 8.820 7.240 L 12.000 10.420 15.180 7.240 L 18.360 4.060 17.650 3.350 L 16.941 2.640 14.470 5.110 L 12.000 7.580 9.530 5.110 L 7.059 2.640 6.350 3.350 M8.810 16.770 L 5.640 19.940 6.350 20.650 L 7.060 21.360 9.530 18.890 L 12.000 16.420 14.470 18.890 L 16.941 21.360 17.650 20.650 L 18.360 19.940 15.190 16.770 C 13.446 15.026,12.011 13.600,12.000 13.600 C 11.989 13.600,10.553 15.027,8.810 16.770 " stroke="none" fill-rule="evenodd" fill="black"></path></svg>