<svg viewBox="0 0 24 24" xmlns="http://www.w3.org/2000/svg"><path d="M11.120 2.039 C 8.020 2.349,5.361 3.939,3.659 6.500 C 1.048 10.428,1.567 15.662,4.900 19.022 C 5.164 19.288,5.533 19.628,5.719 19.778 C 9.424 22.738,14.587 22.738,18.281 19.777 C 18.716 19.428,19.428 18.716,19.777 18.281 C 22.070 15.419,22.632 11.597,21.254 8.220 C 20.063 5.300,17.467 3.049,14.430 2.303 C 13.446 2.062,12.028 1.948,11.120 2.039 M12.726 4.040 C 14.253 4.189,15.634 4.727,16.853 5.648 C 17.273 5.965,18.035 6.727,18.352 7.147 C 20.353 9.795,20.540 13.345,18.827 16.153 C 17.372 18.536,14.776 19.999,12.000 19.999 C 8.242 19.999,4.940 17.319,4.179 13.652 C 3.704 11.360,4.231 9.023,5.648 7.147 C 5.965 6.727,6.727 5.965,7.147 5.648 C 8.764 4.427,10.767 3.849,12.726 4.040 " stroke="none" fill-rule="evenodd" fill="black"></path></svg>