<svg viewBox="0 0 24 24" xmlns="http://www.w3.org/2000/svg"><path d="M7.000 3.000 L 7.000 4.000 5.927 4.000 C 5.330 4.000,4.750 4.019,4.617 4.043 C 3.862 4.181,3.203 4.830,3.044 5.592 C 2.982 5.892,2.982 20.108,3.044 20.408 C 3.201 21.158,3.842 21.799,4.592 21.956 C 4.892 22.018,19.108 22.018,19.408 21.956 C 19.776 21.879,20.117 21.690,20.404 21.404 C 20.690 21.117,20.879 20.776,20.956 20.408 C 21.018 20.108,21.018 5.892,20.956 5.592 C 20.817 4.926,20.316 4.358,19.647 4.109 C 19.439 4.032,19.321 4.023,18.210 4.009 L 17.000 3.994 17.000 2.997 L 17.000 2.000 16.000 2.000 L 15.000 2.000 15.000 3.000 L 15.000 4.000 12.000 4.000 L 9.000 4.000 9.000 3.000 L 9.000 2.000 8.000 2.000 L 7.000 2.000 7.000 3.000 M19.000 14.000 L 19.000 20.000 12.000 20.000 L 5.000 20.000 5.000 14.000 L 5.000 8.000 12.000 8.000 L 19.000 8.000 19.000 14.000 M8.970 11.010 L 8.280 11.700 9.430 12.850 L 10.579 14.000 9.440 15.140 L 8.300 16.280 9.010 16.990 L 9.720 17.700 10.860 16.560 L 12.000 15.421 13.140 16.560 L 14.280 17.700 14.990 16.990 L 15.700 16.280 14.560 15.140 L 13.421 14.000 14.570 12.850 L 15.720 11.699 15.030 11.010 C 14.650 10.630,14.321 10.320,14.300 10.320 C 14.278 10.320,13.752 10.828,13.130 11.450 L 12.000 12.579 10.870 11.450 C 10.248 10.828,9.722 10.320,9.700 10.320 C 9.678 10.320,9.349 10.630,8.970 11.010 " stroke="none" fill-rule="evenodd" fill="black"></path></svg>