<svg viewBox="0 0 24 24" xmlns="http://www.w3.org/2000/svg"><path d="M10.043 10.999 L 6.865 14.635 6.763 14.561 C 6.706 14.520,5.976 13.964,5.140 13.325 C 3.713 12.234,3.616 12.167,3.554 12.231 C 3.361 12.432,2.402 13.738,2.429 13.764 C 2.446 13.781,3.512 14.597,4.798 15.578 C 7.019 17.274,7.138 17.359,7.202 17.291 C 7.239 17.252,8.912 15.339,10.920 13.040 C 12.928 10.741,14.613 8.815,14.664 8.760 L 14.756 8.660 14.026 8.022 C 13.624 7.672,13.278 7.380,13.258 7.374 C 13.237 7.368,11.790 9.000,10.043 10.999 M17.060 10.981 C 15.322 12.971,13.889 14.599,13.875 14.599 C 13.861 14.600,13.692 14.473,13.499 14.319 C 13.305 14.164,13.134 14.043,13.117 14.049 C 13.047 14.075,11.880 15.576,11.909 15.604 C 11.990 15.682,14.103 17.360,14.120 17.360 C 14.159 17.360,21.717 8.700,21.713 8.660 C 21.709 8.617,20.285 7.359,20.244 7.362 C 20.231 7.363,18.798 8.991,17.060 10.981 " stroke="none" fill-rule="evenodd" fill="black"></path></svg>