<svg viewBox="0 0 24 24" xmlns="http://www.w3.org/2000/svg"><path d="M3.580 3.047 C 2.858 3.185,2.199 3.848,2.044 4.592 C 1.982 4.892,1.982 19.108,2.044 19.408 C 2.201 20.158,2.842 20.799,3.592 20.956 C 3.892 21.018,20.108 21.018,20.408 20.956 C 21.158 20.799,21.799 20.158,21.956 19.408 C 22.018 19.108,22.018 4.892,21.956 4.592 C 21.817 3.927,21.322 3.365,20.647 3.107 L 20.420 3.020 12.100 3.014 C 6.933 3.011,3.704 3.023,3.580 3.047 M20.000 13.000 L 20.000 19.000 12.000 19.000 L 4.000 19.000 4.000 13.000 L 4.000 7.000 12.000 7.000 L 20.000 7.000 20.000 13.000 M7.420 11.160 L 5.580 13.000 7.430 14.850 L 9.280 16.700 9.990 15.990 L 10.700 15.280 9.560 14.140 L 8.421 13.000 9.570 11.850 L 10.720 10.699 10.030 10.010 C 9.650 9.630,9.321 9.320,9.299 9.320 C 9.278 9.320,8.432 10.148,7.420 11.160 M13.970 10.010 L 13.280 10.700 14.430 11.850 L 15.579 13.000 14.440 14.140 L 13.300 15.280 14.010 15.990 L 14.720 16.700 16.570 14.850 L 18.420 13.000 16.580 11.160 C 15.568 10.148,14.722 9.320,14.700 9.320 C 14.678 9.320,14.349 9.630,13.970 10.010 " stroke="none" fill-rule="evenodd" fill="black"></path></svg>