<svg viewBox="0 0 24 24" xmlns="http://www.w3.org/2000/svg"><path d="M9.580 2.047 C 8.858 2.186,8.199 2.848,8.044 3.592 C 8.015 3.731,8.000 4.525,8.000 5.902 L 8.000 8.000 5.927 8.000 C 4.611 8.000,3.768 8.016,3.617 8.043 C 2.862 8.181,2.203 8.830,2.044 9.592 C 1.982 9.890,1.982 20.110,2.044 20.408 C 2.201 21.158,2.842 21.799,3.592 21.956 C 3.890 22.018,14.110 22.018,14.408 21.956 C 15.158 21.799,15.799 21.158,15.956 20.408 C 15.985 20.269,16.000 19.475,16.000 18.098 L 16.000 16.000 18.098 16.000 C 19.475 16.000,20.269 15.985,20.408 15.956 C 21.158 15.799,21.799 15.158,21.956 14.408 C 22.018 14.110,22.018 3.890,21.956 3.592 C 21.817 2.927,21.322 2.365,20.647 2.107 L 20.420 2.020 15.100 2.014 C 11.831 2.010,9.703 2.023,9.580 2.047 M20.000 9.000 L 20.000 14.000 18.000 14.000 L 16.000 14.000 16.000 11.902 C 16.000 10.525,15.985 9.731,15.956 9.592 C 15.817 8.926,15.319 8.362,14.647 8.108 C 14.426 8.024,14.357 8.021,12.210 8.009 L 10.000 7.996 10.000 5.998 L 10.000 4.000 15.000 4.000 L 20.000 4.000 20.000 9.000 M14.000 15.000 L 14.000 20.000 9.000 20.000 L 4.000 20.000 4.000 15.000 L 4.000 10.000 9.000 10.000 L 14.000 10.000 14.000 15.000 M6.000 13.000 L 6.000 14.000 9.000 14.000 L 12.000 14.000 12.000 13.000 L 12.000 12.000 9.000 12.000 L 6.000 12.000 6.000 13.000 M6.000 17.000 L 6.000 18.000 9.000 18.000 L 12.000 18.000 12.000 17.000 L 12.000 16.000 9.000 16.000 L 6.000 16.000 6.000 17.000 " stroke="none" fill-rule="evenodd" fill="black"></path></svg>