<svg viewBox="0 0 24 24" xmlns="http://www.w3.org/2000/svg"><path d="M11.640 2.073 C 11.031 2.320,2.554 6.110,2.437 6.187 C 2.358 6.239,2.254 6.336,2.205 6.402 C 1.991 6.691,2.000 6.449,2.000 11.998 C 2.000 17.779,1.979 17.383,2.296 17.697 C 2.441 17.841,2.990 18.095,7.031 19.891 C 9.546 21.007,11.683 21.943,11.781 21.969 C 11.915 22.005,12.013 22.005,12.171 21.972 C 12.286 21.948,14.442 21.013,16.961 19.894 C 21.009 18.096,21.559 17.841,21.704 17.697 C 22.021 17.383,22.000 17.778,22.000 12.000 C 22.000 6.220,22.021 6.617,21.703 6.303 C 21.557 6.159,20.995 5.899,16.900 4.082 C 11.823 1.829,12.038 1.911,11.640 2.073 M15.265 5.549 C 17.033 6.334,18.480 6.988,18.480 7.002 C 18.480 7.036,12.076 9.880,12.000 9.880 C 11.924 9.880,5.520 7.036,5.520 7.002 C 5.520 6.971,11.921 4.122,11.995 4.121 C 12.025 4.120,13.496 4.763,15.265 5.549 M7.570 10.129 L 11.000 11.653 11.000 15.547 C 11.000 17.688,10.989 19.440,10.975 19.440 C 10.961 19.440,9.386 18.745,7.475 17.895 L 4.000 16.351 4.000 12.451 C 4.000 8.754,4.004 8.553,4.070 8.578 C 4.109 8.593,5.684 9.291,7.570 10.129 M20.000 12.455 L 20.000 16.351 16.525 17.895 C 14.614 18.745,13.039 19.440,13.025 19.440 C 13.011 19.440,13.000 17.688,13.000 15.547 L 13.000 11.653 16.470 10.109 C 18.378 9.259,19.953 8.563,19.970 8.562 C 19.987 8.561,20.000 10.313,20.000 12.455 " stroke="none" fill-rule="evenodd" fill="black"></path></svg>