<svg viewBox="0 0 24 24" xmlns="http://www.w3.org/2000/svg"><path d="M5.868 3.064 C 4.572 3.298,3.531 4.244,3.133 5.548 C 3.038 5.863,3.026 5.963,3.026 6.500 C 3.026 7.037,3.038 7.137,3.133 7.452 C 3.501 8.657,4.346 9.502,5.548 9.866 C 5.853 9.958,5.975 9.973,6.460 9.976 C 7.062 9.980,7.299 9.937,7.775 9.736 C 7.910 9.679,8.047 9.629,8.080 9.626 C 8.136 9.620,10.440 12.046,10.440 12.110 C 10.440 12.126,9.925 12.655,9.295 13.285 L 8.150 14.431 7.905 14.316 C 7.324 14.045,6.564 13.945,5.926 14.056 C 4.576 14.292,3.539 15.217,3.133 16.548 C 3.038 16.863,3.026 16.963,3.026 17.500 C 3.026 18.037,3.038 18.137,3.133 18.452 C 3.501 19.656,4.344 20.499,5.548 20.867 C 5.863 20.962,5.963 20.974,6.500 20.974 C 7.037 20.974,7.137 20.962,7.452 20.867 C 8.920 20.419,9.901 19.194,9.988 17.698 C 10.021 17.121,9.904 16.529,9.657 16.037 L 9.566 15.854 10.702 14.718 C 11.827 13.594,11.840 13.582,11.915 13.661 C 11.956 13.704,13.002 14.829,14.240 16.160 C 15.477 17.491,16.654 18.749,16.855 18.956 C 17.411 19.528,17.896 19.809,18.558 19.941 C 18.803 19.991,19.152 20.000,20.418 19.991 L 21.977 19.980 15.721 14.300 C 12.280 11.176,9.438 8.600,9.407 8.576 C 9.358 8.540,9.375 8.489,9.513 8.256 C 9.864 7.664,10.024 7.010,9.987 6.320 C 9.875 4.213,7.946 2.688,5.868 3.064 M18.631 4.041 C 18.145 4.123,17.540 4.409,17.186 4.725 C 17.060 4.837,16.163 5.876,15.192 7.034 C 14.222 8.193,13.400 9.172,13.366 9.212 C 13.308 9.279,13.353 9.333,14.011 9.991 L 14.718 10.698 14.869 10.555 C 14.952 10.476,16.582 8.978,18.490 7.224 C 20.398 5.471,21.960 4.028,21.960 4.018 C 21.960 3.986,18.828 4.008,18.631 4.041 M7.110 5.139 C 7.415 5.278,7.725 5.589,7.866 5.896 C 7.962 6.105,7.978 6.191,7.978 6.500 C 7.979 6.807,7.963 6.894,7.872 7.090 C 7.722 7.411,7.414 7.724,7.109 7.865 C 6.893 7.965,6.812 7.980,6.500 7.980 C 6.190 7.980,6.107 7.965,5.900 7.868 C 5.584 7.721,5.275 7.413,5.134 7.104 C 5.038 6.895,5.022 6.809,5.022 6.500 C 5.021 6.190,5.037 6.107,5.133 5.900 C 5.324 5.489,5.727 5.148,6.150 5.041 C 6.407 4.976,6.852 5.022,7.110 5.139 M7.110 16.139 C 7.415 16.278,7.725 16.589,7.866 16.896 C 7.962 17.105,7.978 17.191,7.978 17.500 C 7.979 17.807,7.963 17.894,7.872 18.090 C 7.722 18.411,7.414 18.724,7.109 18.865 C 6.893 18.965,6.812 18.980,6.500 18.980 C 6.190 18.980,6.107 18.965,5.900 18.868 C 5.584 18.721,5.275 18.413,5.134 18.104 C 5.038 17.895,5.022 17.809,5.022 17.500 C 5.021 17.190,5.037 17.107,5.133 16.900 C 5.324 16.489,5.727 16.148,6.150 16.041 C 6.407 15.976,6.852 16.022,7.110 16.139 " stroke="none" fill-rule="evenodd" fill="black"></path></svg>