<svg viewBox="0 0 24 24" xmlns="http://www.w3.org/2000/svg"><path d="M5.433 2.040 C 4.864 2.131,4.219 2.380,3.773 2.683 C 2.433 3.592,1.764 5.209,2.082 6.769 C 2.409 8.372,3.628 9.591,5.231 9.918 C 5.582 9.990,5.782 10.000,6.816 10.000 L 8.000 10.000 8.000 11.996 L 8.000 13.993 6.690 14.011 C 5.510 14.027,5.346 14.037,5.042 14.116 C 4.672 14.211,4.076 14.477,3.773 14.683 C 2.433 15.592,1.764 17.209,2.082 18.769 C 2.409 20.372,3.628 21.591,5.231 21.918 C 7.075 22.294,8.988 21.263,9.693 19.514 C 9.955 18.865,9.970 18.754,9.989 17.310 L 10.007 16.000 12.003 16.000 L 14.000 16.000 14.000 17.155 C 14.000 18.402,14.034 18.736,14.217 19.271 C 14.510 20.130,15.070 20.855,15.819 21.343 C 18.189 22.887,21.351 21.553,21.918 18.769 C 22.179 17.487,21.764 16.119,20.829 15.185 C 20.479 14.835,20.150 14.607,19.663 14.376 C 18.996 14.060,18.807 14.031,17.310 14.011 L 16.000 13.993 16.000 11.996 L 16.000 10.000 17.184 10.000 C 18.218 10.000,18.418 9.990,18.769 9.918 C 20.372 9.591,21.591 8.372,21.918 6.769 C 22.179 5.487,21.764 4.119,20.829 3.185 C 20.321 2.678,19.628 2.285,18.938 2.113 C 18.429 1.987,17.571 1.987,17.062 2.113 C 16.679 2.209,16.086 2.470,15.773 2.683 C 14.885 3.286,14.298 4.170,14.081 5.235 C 14.010 5.581,14.000 5.785,14.000 6.816 L 14.000 8.000 12.003 8.000 L 10.007 8.000 9.989 6.690 C 9.970 5.247,9.955 5.134,9.694 4.489 C 9.535 4.093,9.277 3.679,8.973 3.331 C 8.509 2.801,7.664 2.292,6.960 2.121 C 6.571 2.026,5.784 1.984,5.433 2.040 M6.451 4.059 C 6.824 4.138,7.153 4.324,7.433 4.616 C 7.930 5.133,7.998 5.411,7.999 6.910 L 8.000 8.000 6.890 7.999 C 6.041 7.999,5.720 7.985,5.524 7.938 C 4.522 7.702,3.873 6.724,4.034 5.690 C 4.100 5.267,4.266 4.929,4.561 4.622 C 5.060 4.102,5.723 3.905,6.451 4.059 M18.451 4.059 C 18.827 4.138,19.153 4.325,19.439 4.622 C 20.498 5.725,19.957 7.589,18.476 7.938 C 18.280 7.985,17.959 7.999,17.110 7.999 L 16.000 8.000 16.001 6.910 C 16.001 5.688,16.035 5.431,16.243 5.041 C 16.397 4.752,16.787 4.368,17.077 4.221 C 17.487 4.014,17.969 3.957,18.451 4.059 M14.000 12.000 L 14.000 14.000 12.000 14.000 L 10.000 14.000 10.000 12.000 L 10.000 10.000 12.000 10.000 L 14.000 10.000 14.000 12.000 M7.999 17.090 C 7.999 17.882,7.983 18.254,7.941 18.451 C 7.620 19.967,5.693 20.516,4.582 19.407 C 3.999 18.825,3.843 17.892,4.200 17.128 C 4.350 16.807,4.728 16.410,5.043 16.242 C 5.429 16.036,5.654 16.007,6.890 16.003 L 8.000 16.000 7.999 17.090 M18.451 16.059 C 18.827 16.138,19.153 16.325,19.439 16.622 C 20.498 17.725,19.957 19.589,18.476 19.938 C 17.380 20.197,16.286 19.524,16.059 18.451 C 16.017 18.254,16.001 17.882,16.001 17.090 L 16.000 16.000 17.090 16.001 C 17.882 16.001,18.254 16.017,18.451 16.059 " stroke="none" fill-rule="evenodd" fill="black"></path></svg>