<svg viewBox="0 0 24 24" xmlns="http://www.w3.org/2000/svg"><path d="M11.240 4.041 C 9.547 4.249,8.013 5.048,6.937 6.280 C 6.602 6.664,6.135 7.362,5.915 7.810 C 5.747 8.151,5.738 8.161,5.541 8.226 C 4.627 8.527,3.643 9.249,3.015 10.076 C 2.703 10.488,2.320 11.249,2.183 11.729 C 1.833 12.955,2.013 14.367,2.663 15.482 C 3.504 16.923,5.007 17.872,6.630 17.986 L 7.000 18.012 7.000 17.006 L 7.000 16.000 6.858 16.000 C 6.634 16.000,6.145 15.887,5.850 15.767 C 5.205 15.504,4.636 14.960,4.321 14.303 C 4.101 13.843,4.044 13.638,4.012 13.181 C 3.959 12.432,4.268 11.631,4.845 11.022 C 5.413 10.422,5.961 10.128,6.818 9.962 C 7.059 9.916,7.258 9.874,7.261 9.869 C 7.264 9.864,7.334 9.662,7.417 9.420 C 8.001 7.722,9.189 6.571,10.787 6.157 C 11.864 5.878,13.099 5.997,14.104 6.476 C 14.678 6.751,15.083 7.036,15.524 7.476 C 15.964 7.917,16.249 8.322,16.524 8.896 C 16.870 9.622,17.000 10.293,17.000 11.364 L 17.000 11.991 17.710 12.010 C 18.292 12.025,18.460 12.043,18.644 12.110 C 19.248 12.330,19.698 12.790,19.904 13.400 C 20.015 13.727,20.004 14.340,19.881 14.660 C 19.622 15.332,19.071 15.818,18.408 15.956 C 18.291 15.980,17.927 16.000,17.598 16.000 L 17.000 16.000 17.000 17.000 L 17.000 18.000 17.684 18.000 C 18.768 18.000,19.446 17.822,20.181 17.343 C 21.080 16.757,21.698 15.838,21.922 14.755 C 22.181 13.503,21.752 12.109,20.822 11.178 C 20.380 10.737,19.812 10.388,19.223 10.198 C 19.075 10.150,18.949 10.091,18.942 10.066 C 18.935 10.041,18.900 9.852,18.863 9.646 C 18.773 9.141,18.562 8.514,18.300 7.969 C 17.309 5.905,15.402 4.479,13.120 4.095 C 12.692 4.023,11.636 3.993,11.240 4.041 M8.664 15.063 C 8.436 15.146,8.257 15.297,8.131 15.511 C 8.036 15.672,8.020 15.744,8.020 16.000 C 8.020 16.256,8.036 16.328,8.131 16.489 C 8.470 17.065,9.234 17.168,9.701 16.701 C 10.092 16.310,10.092 15.690,9.701 15.299 C 9.429 15.027,9.018 14.933,8.664 15.063 M14.664 15.063 C 14.436 15.146,14.257 15.297,14.131 15.511 C 14.036 15.672,14.020 15.744,14.020 16.000 C 14.020 16.256,14.036 16.328,14.131 16.489 C 14.470 17.065,15.234 17.168,15.701 16.701 C 15.881 16.521,16.000 16.242,16.000 16.000 C 16.000 15.326,15.295 14.832,14.664 15.063 M11.664 17.063 C 11.436 17.146,11.257 17.297,11.131 17.511 C 11.036 17.672,11.020 17.744,11.020 18.000 C 11.020 18.256,11.036 18.328,11.131 18.489 C 11.470 19.065,12.234 19.168,12.701 18.701 C 12.881 18.521,13.000 18.242,13.000 18.000 C 13.000 17.326,12.295 16.832,11.664 17.063 M8.664 18.063 C 8.436 18.146,8.257 18.297,8.131 18.511 C 8.036 18.672,8.020 18.744,8.020 19.000 C 8.020 19.256,8.036 19.328,8.131 19.489 C 8.470 20.065,9.234 20.168,9.701 19.701 C 10.092 19.310,10.092 18.690,9.701 18.299 C 9.429 18.027,9.018 17.933,8.664 18.063 M14.664 18.063 C 14.436 18.146,14.257 18.297,14.131 18.511 C 14.036 18.672,14.020 18.744,14.020 19.000 C 14.020 19.256,14.036 19.328,14.131 19.489 C 14.470 20.065,15.234 20.168,15.701 19.701 C 15.881 19.521,16.000 19.242,16.000 19.000 C 16.000 18.326,15.295 17.832,14.664 18.063 M11.664 20.063 C 11.436 20.146,11.257 20.297,11.131 20.511 C 11.036 20.672,11.020 20.744,11.020 21.000 C 11.020 21.256,11.036 21.328,11.131 21.489 C 11.470 22.065,12.234 22.168,12.701 21.701 C 12.881 21.521,13.000 21.242,13.000 21.000 C 13.000 20.326,12.295 19.832,11.664 20.063 " stroke="none" fill-rule="evenodd" fill="black"></path></svg>