<svg viewBox="0 0 24 24" xmlns="http://www.w3.org/2000/svg"><path d="M3.580 4.047 C 2.858 4.185,2.199 4.848,2.044 5.592 C 1.982 5.891,1.982 18.109,2.044 18.408 C 2.201 19.158,2.842 19.799,3.592 19.956 C 3.892 20.018,20.108 20.018,20.408 19.956 C 21.158 19.799,21.799 19.158,21.956 18.408 C 22.018 18.109,22.018 5.891,21.956 5.592 C 21.817 4.927,21.322 4.365,20.647 4.107 L 20.420 4.020 12.100 4.014 C 6.933 4.011,3.704 4.023,3.580 4.047 M20.000 7.000 L 20.000 8.000 12.000 8.000 L 4.000 8.000 4.000 7.000 L 4.000 6.000 12.000 6.000 L 20.000 6.000 20.000 7.000 M20.000 15.000 L 20.000 18.000 12.000 18.000 L 4.000 18.000 4.000 15.000 L 4.000 12.000 12.000 12.000 L 20.000 12.000 20.000 15.000 M6.000 15.000 L 6.000 16.000 9.000 16.000 L 12.000 16.000 12.000 15.000 L 12.000 14.000 9.000 14.000 L 6.000 14.000 6.000 15.000 " stroke="none" fill-rule="evenodd" fill="black"></path></svg>