<svg viewBox="0 0 24 24" xmlns="http://www.w3.org/2000/svg"><path d="M6.580 5.047 C 5.858 5.186,5.199 5.848,5.044 6.592 C 4.982 6.890,4.982 17.110,5.044 17.408 C 5.201 18.158,5.842 18.799,6.592 18.956 C 6.890 19.018,17.110 19.018,17.408 18.956 C 18.158 18.799,18.799 18.158,18.956 17.408 C 19.018 17.110,19.018 6.890,18.956 6.592 C 18.817 5.927,18.322 5.365,17.647 5.107 L 17.420 5.020 12.100 5.014 C 8.831 5.010,6.703 5.023,6.580 5.047 M17.000 12.000 L 17.000 17.000 12.000 17.000 L 7.000 17.000 7.000 12.000 L 7.000 7.000 12.000 7.000 L 17.000 7.000 17.000 12.000 M12.622 10.944 L 10.984 12.564 10.339 11.919 L 9.694 11.275 9.001 11.999 L 8.308 12.722 9.600 13.991 C 10.311 14.689,10.921 15.280,10.956 15.305 C 11.010 15.342,11.396 14.977,13.356 13.036 L 15.692 10.723 15.021 10.022 C 14.652 9.636,14.330 9.321,14.305 9.322 C 14.280 9.323,13.523 10.053,12.622 10.944 " stroke="none" fill-rule="evenodd" fill="black"></path></svg>