<svg viewBox="0 0 24 24" xmlns="http://www.w3.org/2000/svg"><path d="M3.580 2.047 C 2.858 2.185,2.199 2.848,2.044 3.592 C 2.013 3.743,2.000 6.414,2.000 12.902 L 2.000 22.000 4.667 20.000 L 7.333 18.000 13.765 18.000 C 18.305 18.000,20.258 17.987,20.408 17.956 C 21.158 17.799,21.799 17.158,21.956 16.408 C 22.018 16.109,22.018 3.891,21.956 3.592 C 21.817 2.927,21.322 2.365,20.647 2.107 L 20.420 2.020 12.100 2.014 C 6.933 2.011,3.704 2.023,3.580 2.047 M20.000 10.000 L 20.000 16.000 13.333 16.000 L 6.667 16.000 5.333 17.000 L 4.000 18.000 4.000 11.000 L 4.000 4.000 12.000 4.000 L 20.000 4.000 20.000 10.000 M13.390 9.190 L 11.000 11.580 9.870 10.450 C 9.248 9.828,8.721 9.320,8.699 9.320 C 8.677 9.320,8.349 9.631,7.970 10.010 L 7.280 10.701 9.140 12.560 L 11.000 14.420 14.110 11.310 L 17.220 8.200 16.520 7.500 C 16.136 7.115,15.812 6.800,15.800 6.800 C 15.789 6.800,14.704 7.875,13.390 9.190 " stroke="none" fill-rule="evenodd" fill="black"></path></svg>