<svg viewBox="0 0 24 24" xmlns="http://www.w3.org/2000/svg"><path d="M11.640 2.068 C 11.483 2.121,10.866 2.723,6.847 6.735 C 4.310 9.268,2.190 11.416,2.135 11.508 C 1.914 11.878,1.984 12.386,2.298 12.700 C 2.546 12.949,2.740 13.000,3.427 13.000 L 4.000 13.000 4.000 16.598 C 4.000 19.070,4.014 20.262,4.044 20.408 C 4.201 21.158,4.842 21.799,5.592 21.956 C 5.891 22.018,18.109 22.018,18.408 21.956 C 19.158 21.799,19.799 21.158,19.956 20.408 C 19.986 20.262,20.000 19.070,20.000 16.598 L 20.000 13.000 20.573 13.000 C 21.260 13.000,21.454 12.949,21.702 12.700 C 22.016 12.386,22.086 11.878,21.865 11.508 C 21.810 11.416,19.690 9.268,17.153 6.735 C 12.918 2.508,12.524 2.124,12.343 2.065 C 12.102 1.986,11.878 1.987,11.640 2.068 M15.010 7.430 L 18.000 10.420 18.000 15.210 L 18.000 20.000 12.000 20.000 L 6.000 20.000 6.000 15.210 L 6.000 10.420 8.990 7.430 C 10.634 5.786,11.989 4.440,12.000 4.440 C 12.011 4.440,13.365 5.785,15.010 7.430 M11.000 11.500 L 11.000 13.000 9.500 13.000 L 8.000 13.000 8.000 14.000 L 8.000 15.000 9.500 15.000 L 11.000 15.000 11.000 16.500 L 11.000 18.000 12.000 18.000 L 13.000 18.000 13.000 16.500 L 13.000 15.000 14.500 15.000 L 16.000 15.000 16.000 14.000 L 16.000 13.000 14.500 13.000 L 13.000 13.000 13.000 11.500 L 13.000 10.000 12.000 10.000 L 11.000 10.000 11.000 11.500 " stroke="none" fill-rule="evenodd" fill="black"></path></svg>