<svg viewBox="0 0 24 24" xmlns="http://www.w3.org/2000/svg"><path d="M11.120 2.039 C 8.020 2.349,5.361 3.939,3.659 6.500 C 1.048 10.428,1.568 15.667,4.900 19.022 C 5.878 20.007,6.984 20.750,8.220 21.254 C 11.958 22.779,16.203 21.920,19.062 19.062 C 23.445 14.678,22.834 7.442,17.778 3.853 C 16.479 2.930,15.094 2.370,13.493 2.119 C 12.909 2.027,11.660 1.985,11.120 2.039 M12.726 4.040 C 14.253 4.189,15.634 4.727,16.853 5.648 C 17.273 5.965,18.035 6.727,18.352 7.147 C 20.742 10.311,20.499 14.656,17.773 17.521 C 16.272 19.098,14.172 19.999,12.000 19.999 C 8.240 19.999,4.947 17.326,4.177 13.648 C 3.701 11.373,4.234 9.019,5.648 7.147 C 5.965 6.727,6.727 5.965,7.147 5.648 C 8.764 4.427,10.767 3.849,12.726 4.040 M9.140 10.440 L 6.300 13.280 7.010 13.990 L 7.720 14.700 9.860 12.560 L 12.000 10.420 14.140 12.560 L 16.280 14.700 16.990 13.990 L 17.700 13.280 14.860 10.440 C 13.298 8.878,12.011 7.600,12.000 7.600 C 11.989 7.600,10.702 8.878,9.140 10.440 " stroke="none" fill-rule="evenodd" fill="black"></path></svg>