<svg viewBox="0 0 24 24" xmlns="http://www.w3.org/2000/svg"><path d="M8.000 3.000 L 8.000 4.000 6.927 4.000 C 6.330 4.000,5.750 4.019,5.617 4.043 C 4.862 4.181,4.203 4.830,4.044 5.592 C 4.018 5.717,4.000 6.255,4.000 6.902 L 4.000 8.000 3.000 8.000 L 2.000 8.000 2.000 9.000 L 2.000 10.000 3.000 10.000 L 4.000 10.000 4.000 12.000 L 4.000 14.000 3.000 14.000 L 2.000 14.000 2.000 15.000 L 2.000 16.000 3.000 16.000 L 4.000 16.000 4.000 17.098 C 4.000 17.745,4.018 18.283,4.044 18.408 C 4.201 19.158,4.842 19.799,5.592 19.956 C 5.717 19.982,6.255 20.000,6.902 20.000 L 8.000 20.000 8.000 21.000 L 8.000 22.000 9.000 22.000 L 10.000 22.000 10.000 21.000 L 10.000 20.000 12.000 20.000 L 14.000 20.000 14.000 21.000 L 14.000 22.000 15.000 22.000 L 16.000 22.000 16.000 21.000 L 16.000 20.000 17.098 20.000 C 17.745 20.000,18.283 19.982,18.408 19.956 C 19.158 19.799,19.799 19.158,19.956 18.408 C 19.982 18.283,20.000 17.745,20.000 17.098 L 20.000 16.000 21.000 16.000 L 22.000 16.000 22.000 15.000 L 22.000 14.000 21.000 14.000 L 20.000 14.000 20.000 12.000 L 20.000 10.000 21.000 10.000 L 22.000 10.000 22.000 9.000 L 22.000 8.000 21.000 8.000 L 20.000 8.000 20.000 6.902 C 20.000 6.255,19.982 5.717,19.956 5.592 C 19.817 4.926,19.316 4.358,18.647 4.109 C 18.439 4.032,18.321 4.023,17.210 4.009 L 16.000 3.994 16.000 2.997 L 16.000 2.000 15.000 2.000 L 14.000 2.000 14.000 3.000 L 14.000 4.000 12.000 4.000 L 10.000 4.000 10.000 3.000 L 10.000 2.000 9.000 2.000 L 8.000 2.000 8.000 3.000 M18.000 12.000 L 18.000 18.000 12.000 18.000 L 6.000 18.000 6.000 12.000 L 6.000 6.000 12.000 6.000 L 18.000 6.000 18.000 12.000 M9.000 12.000 L 9.000 15.000 12.000 15.000 L 15.000 15.000 15.000 12.000 L 15.000 9.000 12.000 9.000 L 9.000 9.000 9.000 12.000 " stroke="none" fill-rule="evenodd" fill="black"></path></svg>