<svg viewBox="0 0 24 24" xmlns="http://www.w3.org/2000/svg"><path d="M7.955 2.055 C 7.582 2.189,7.319 2.488,7.259 2.848 L 7.233 3.000 6.044 3.000 C 5.362 3.000,4.753 3.019,4.617 3.043 C 3.862 3.181,3.203 3.830,3.044 4.592 C 2.982 4.892,2.982 20.108,3.044 20.408 C 3.201 21.158,3.842 21.799,4.592 21.956 C 4.892 22.018,19.108 22.018,19.408 21.956 C 20.158 21.799,20.799 21.158,20.956 20.408 C 21.018 20.108,21.018 4.892,20.956 4.592 C 20.817 3.926,20.316 3.359,19.647 3.109 C 19.436 3.030,19.325 3.023,18.093 3.009 L 16.766 2.994 16.740 2.840 C 16.695 2.572,16.487 2.282,16.240 2.144 L 16.020 2.020 12.060 2.011 C 8.890 2.004,8.071 2.013,7.955 2.055 M7.000 6.000 L 7.000 7.000 12.000 7.000 L 17.000 7.000 17.000 6.000 L 17.000 5.000 18.000 5.000 L 19.000 5.000 19.000 12.500 L 19.000 20.000 12.000 20.000 L 5.000 20.000 5.000 12.500 L 5.000 5.000 6.000 5.000 L 7.000 5.000 7.000 6.000 " stroke="none" fill-rule="evenodd" fill="black"></path></svg>