<svg viewBox="0 0 24 24" xmlns="http://www.w3.org/2000/svg"><path d="M11.041 11.690 C 9.954 16.579,9.058 20.626,9.049 20.683 L 9.033 20.786 9.997 20.999 C 10.527 21.117,10.967 21.206,10.975 21.196 C 10.992 21.176,14.960 3.316,14.960 3.257 C 14.960 3.222,13.203 2.799,13.059 2.800 C 13.036 2.800,12.128 6.800,11.041 11.690 M4.780 9.295 C 1.900 11.603,2.020 11.485,2.020 12.000 C 2.020 12.516,1.908 12.407,4.794 14.715 C 6.200 15.840,7.360 16.760,7.371 16.760 C 7.398 16.760,8.600 15.258,8.600 15.225 C 8.600 15.211,7.709 14.488,6.620 13.616 C 5.531 12.745,4.640 12.018,4.640 12.000 C 4.640 11.982,5.531 11.255,6.620 10.384 C 7.709 9.512,8.600 8.789,8.600 8.775 C 8.600 8.737,7.396 7.240,7.366 7.241 C 7.352 7.242,6.188 8.166,4.780 9.295 M16.004 7.995 C 15.672 8.411,15.400 8.762,15.400 8.775 C 15.400 8.789,16.291 9.512,17.380 10.384 C 18.469 11.255,19.360 11.982,19.360 12.000 C 19.360 12.018,18.469 12.745,17.380 13.616 C 16.291 14.488,15.400 15.211,15.400 15.225 C 15.400 15.258,16.602 16.760,16.629 16.760 C 16.640 16.760,17.800 15.840,19.206 14.715 C 22.092 12.407,21.980 12.516,21.980 12.000 C 21.980 11.484,22.092 11.593,19.206 9.285 C 17.800 8.160,16.640 7.240,16.629 7.240 C 16.617 7.240,16.336 7.580,16.004 7.995 " stroke="none" fill-rule="evenodd" fill="black"></path></svg>