<svg viewBox="0 0 24 24" xmlns="http://www.w3.org/2000/svg"><path d="M3.580 2.047 C 2.858 2.185,2.199 2.848,2.044 3.592 C 2.013 3.743,2.000 6.414,2.000 12.902 L 2.000 22.000 4.667 20.000 L 7.333 18.000 13.765 18.000 C 18.305 18.000,20.258 17.987,20.408 17.956 C 21.158 17.799,21.799 17.158,21.956 16.408 C 22.018 16.109,22.018 3.891,21.956 3.592 C 21.817 2.927,21.322 2.365,20.647 2.107 L 20.420 2.020 12.100 2.014 C 6.933 2.011,3.704 2.023,3.580 2.047 M20.000 10.000 L 20.000 16.000 13.333 16.000 L 6.667 16.000 5.333 17.000 L 4.000 18.000 4.000 11.000 L 4.000 4.000 12.000 4.000 L 20.000 4.000 20.000 10.000 M8.580 8.047 C 7.859 8.185,7.199 8.848,7.044 9.592 C 6.789 10.816,7.751 12.000,9.000 12.000 C 10.080 12.000,11.000 11.080,11.000 10.000 C 11.000 9.477,10.790 8.983,10.404 8.596 C 9.913 8.106,9.277 7.914,8.580 8.047 M14.580 8.047 C 13.859 8.185,13.199 8.848,13.044 9.592 C 12.789 10.816,13.751 12.000,15.000 12.000 C 16.080 12.000,17.000 11.080,17.000 10.000 C 17.000 9.477,16.790 8.983,16.404 8.596 C 15.913 8.106,15.277 7.914,14.580 8.047 " stroke="none" fill-rule="evenodd" fill="black"></path></svg>