<svg viewBox="0 0 24 24" xmlns="http://www.w3.org/2000/svg"><path d="M5.433 3.043 C 5.037 3.101,4.711 3.201,4.333 3.379 C 3.728 3.664,3.290 4.000,2.911 4.470 C 1.833 5.806,1.705 7.582,2.583 9.038 L 2.798 9.394 2.569 9.628 C 2.443 9.757,2.291 9.964,2.230 10.088 C 1.991 10.580,2.000 10.394,2.000 14.986 C 2.000 17.905,2.014 19.261,2.044 19.408 C 2.201 20.158,2.842 20.799,3.592 20.956 C 3.891 21.018,16.109 21.018,16.408 20.956 C 17.158 20.799,17.799 20.158,17.956 19.408 C 17.983 19.276,18.000 18.659,18.000 17.778 L 18.000 16.360 20.000 17.360 L 22.000 18.360 22.000 14.860 L 22.000 11.360 20.000 12.360 L 18.000 13.360 18.000 12.068 C 18.000 10.675,17.982 10.516,17.777 10.092 C 17.581 9.688,17.142 9.300,16.700 9.139 C 16.590 9.099,16.486 9.055,16.469 9.040 C 16.452 9.026,16.484 8.931,16.541 8.830 C 16.700 8.545,16.874 8.032,16.940 7.654 C 17.157 6.412,16.733 5.089,15.829 4.185 C 14.234 2.591,11.694 2.618,10.140 4.245 C 9.973 4.420,9.766 4.671,9.681 4.803 C 9.596 4.935,9.514 5.044,9.500 5.044 C 9.486 5.044,9.404 4.935,9.319 4.803 C 8.980 4.278,8.332 3.707,7.740 3.410 C 7.066 3.072,6.188 2.932,5.433 3.043 M6.644 5.114 C 7.239 5.320,7.697 5.788,7.904 6.400 C 8.015 6.727,8.004 7.340,7.881 7.660 C 7.341 9.066,5.638 9.451,4.599 8.404 C 3.988 7.788,3.836 6.904,4.207 6.125 C 4.451 5.611,5.029 5.157,5.580 5.044 C 5.859 4.987,6.378 5.021,6.644 5.114 M13.644 5.114 C 14.239 5.320,14.697 5.788,14.904 6.400 C 15.015 6.727,15.004 7.340,14.881 7.660 C 14.341 9.066,12.638 9.451,11.599 8.404 C 10.988 7.788,10.836 6.904,11.207 6.125 C 11.451 5.611,12.029 5.157,12.580 5.044 C 12.859 4.987,13.378 5.021,13.644 5.114 M16.000 15.000 L 16.000 19.000 10.000 19.000 L 4.000 19.000 4.000 15.000 L 4.000 11.000 10.000 11.000 L 16.000 11.000 16.000 15.000 " stroke="none" fill-rule="evenodd" fill="black"></path></svg>