<svg viewBox="0 0 24 24" xmlns="http://www.w3.org/2000/svg"><path d="M8.600 2.021 C 8.567 2.028,8.405 2.055,8.240 2.081 C 6.755 2.322,5.375 3.364,4.669 4.780 C 4.259 5.602,4.001 6.811,4.000 7.914 C 3.999 9.099,3.746 9.904,3.205 10.442 C 2.911 10.735,2.638 10.884,2.250 10.964 L 2.000 11.016 2.000 12.000 L 2.000 12.984 2.247 13.035 C 2.841 13.158,3.347 13.569,3.635 14.164 C 3.877 14.666,3.957 15.090,4.002 16.118 C 4.052 17.278,4.163 17.929,4.438 18.675 C 4.898 19.923,5.768 20.908,6.915 21.480 C 7.664 21.854,8.347 22.000,9.350 22.000 L 10.000 22.000 10.000 21.004 L 10.000 20.009 9.290 19.990 C 8.698 19.975,8.533 19.957,8.300 19.882 C 7.470 19.615,6.875 19.105,6.480 18.320 C 6.164 17.692,6.053 17.138,6.000 15.940 C 5.980 15.478,5.935 14.938,5.901 14.740 C 5.727 13.744,5.323 12.877,4.736 12.243 L 4.511 12.000 4.736 11.757 C 5.323 11.123,5.727 10.256,5.901 9.260 C 5.935 9.062,5.980 8.522,6.000 8.060 C 6.054 6.833,6.166 6.295,6.503 5.640 C 6.827 5.011,7.264 4.579,7.860 4.296 C 8.321 4.077,8.549 4.032,9.310 4.010 L 10.000 3.991 10.000 2.995 L 10.000 2.000 9.330 2.005 C 8.961 2.007,8.633 2.015,8.600 2.021 M14.000 2.990 L 14.000 3.991 14.690 4.010 C 15.451 4.032,15.679 4.077,16.140 4.296 C 16.736 4.579,17.173 5.011,17.497 5.640 C 17.834 6.295,17.946 6.833,18.000 8.060 C 18.020 8.522,18.065 9.062,18.099 9.260 C 18.273 10.256,18.677 11.123,19.264 11.757 L 19.489 12.000 19.264 12.243 C 18.821 12.721,18.494 13.301,18.285 13.980 C 18.104 14.567,18.041 15.001,18.000 15.940 C 17.947 17.138,17.836 17.692,17.520 18.320 C 17.125 19.105,16.530 19.615,15.700 19.882 C 15.467 19.957,15.302 19.975,14.710 19.990 L 14.000 20.009 14.000 21.004 L 14.000 22.000 14.650 22.000 C 15.031 22.000,15.451 21.975,15.664 21.941 C 17.237 21.686,18.609 20.668,19.331 19.220 C 19.741 18.398,19.999 17.189,20.000 16.086 C 20.001 14.953,20.242 14.145,20.738 13.609 C 20.999 13.327,21.385 13.110,21.750 13.038 L 22.000 12.990 22.000 12.003 L 22.000 11.016 21.750 10.965 C 21.153 10.842,20.654 10.433,20.360 9.824 C 20.123 9.335,20.043 8.902,19.998 7.882 C 19.978 7.408,19.933 6.849,19.899 6.640 C 19.677 5.288,19.191 4.269,18.381 3.459 C 17.744 2.822,16.970 2.381,16.091 2.153 C 15.663 2.041,15.547 2.029,14.810 2.010 L 14.000 1.990 14.000 2.990 " stroke="none" fill-rule="evenodd" fill="black"></path></svg>