<svg viewBox="0 0 24 24" xmlns="http://www.w3.org/2000/svg"><path d="M9.640 2.068 C 9.489 2.120,9.231 2.358,8.019 3.565 L 6.578 5.000 5.216 5.000 C 4.411 5.000,3.758 5.018,3.617 5.043 C 2.862 5.181,2.203 5.830,2.044 6.592 C 1.982 6.891,1.982 18.109,2.044 18.408 C 2.201 19.158,2.842 19.799,3.592 19.956 C 3.892 20.018,20.108 20.018,20.408 19.956 C 21.158 19.799,21.799 19.158,21.956 18.408 C 22.018 18.109,22.018 6.891,21.956 6.592 C 21.817 5.926,21.317 5.360,20.647 5.109 C 20.433 5.029,20.332 5.023,18.920 5.010 L 17.420 4.996 15.980 3.563 C 14.700 2.290,14.518 2.124,14.343 2.065 C 14.170 2.008,13.884 2.000,11.983 2.003 C 10.140 2.006,9.793 2.015,9.640 2.068 M15.019 5.435 C 16.301 6.710,16.482 6.876,16.657 6.935 C 16.826 6.991,17.078 7.000,18.427 7.000 L 20.000 7.000 20.000 12.500 L 20.000 18.000 12.000 18.000 L 4.000 18.000 4.000 12.500 L 4.000 7.000 5.573 7.000 C 6.921 7.000,7.174 6.991,7.343 6.935 C 7.518 6.876,7.699 6.711,8.980 5.435 L 10.420 4.001 11.999 4.000 L 13.578 4.000 15.019 5.435 M11.353 8.060 C 9.973 8.292,8.755 9.305,8.255 10.635 C 7.832 11.763,7.949 12.978,8.584 14.049 C 8.851 14.498,9.502 15.149,9.951 15.416 C 11.286 16.208,12.865 16.184,14.143 15.352 C 14.549 15.088,15.088 14.549,15.352 14.143 C 16.340 12.626,16.172 10.667,14.940 9.329 C 14.002 8.310,12.668 7.838,11.353 8.060 M12.483 10.073 C 13.441 10.323,14.128 11.348,13.967 12.286 C 13.893 12.718,13.716 13.051,13.384 13.384 C 13.076 13.693,12.829 13.839,12.451 13.937 C 11.784 14.110,11.149 13.919,10.617 13.384 C 9.824 12.589,9.800 11.477,10.560 10.667 C 10.959 10.242,11.475 10.005,12.000 10.005 C 12.121 10.005,12.338 10.036,12.483 10.073 " stroke="none" fill-rule="evenodd" fill="black"></path></svg>