<svg viewBox="0 0 24 24" xmlns="http://www.w3.org/2000/svg"><path d="M11.240 5.041 C 9.547 5.249,8.013 6.048,6.937 7.280 C 6.602 7.664,6.135 8.362,5.915 8.810 C 5.747 9.151,5.738 9.161,5.541 9.226 C 4.627 9.527,3.643 10.249,3.015 11.076 C 2.703 11.488,2.320 12.249,2.183 12.729 C 1.640 14.630,2.374 16.775,3.980 17.977 C 4.555 18.408,5.130 18.682,5.848 18.866 C 6.246 18.969,6.307 18.973,7.630 18.990 L 9.000 19.007 9.000 18.004 L 9.000 17.000 7.858 17.000 C 6.610 17.000,6.349 16.970,5.850 16.767 C 5.205 16.504,4.637 15.960,4.321 15.303 C 4.070 14.781,4.020 14.561,4.023 14.000 C 4.025 13.458,4.085 13.225,4.351 12.706 C 4.481 12.452,4.621 12.258,4.850 12.016 C 5.413 11.422,5.968 11.125,6.816 10.964 C 7.055 10.919,7.255 10.877,7.259 10.871 C 7.263 10.865,7.334 10.662,7.417 10.420 C 7.891 9.041,8.767 8.014,9.939 7.463 C 11.499 6.730,13.340 6.887,14.824 7.881 C 15.229 8.152,15.848 8.771,16.119 9.176 C 16.568 9.846,16.864 10.631,16.958 11.399 C 16.981 11.585,17.000 12.020,17.000 12.364 L 17.000 12.991 17.710 13.010 C 18.292 13.025,18.460 13.043,18.644 13.110 C 19.248 13.330,19.698 13.790,19.904 14.400 C 20.015 14.727,20.004 15.340,19.881 15.660 C 19.622 16.332,19.071 16.818,18.408 16.956 C 18.274 16.984,17.610 17.000,16.598 17.000 L 15.000 17.000 15.000 18.000 L 15.000 19.000 16.684 19.000 C 18.222 19.000,18.402 18.993,18.769 18.918 C 19.556 18.758,20.264 18.380,20.822 17.822 C 22.009 16.635,22.328 14.843,21.621 13.335 C 21.396 12.855,21.166 12.523,20.822 12.178 C 20.380 11.737,19.812 11.388,19.223 11.198 C 19.075 11.150,18.949 11.091,18.942 11.066 C 18.935 11.041,18.900 10.852,18.863 10.646 C 18.773 10.141,18.562 9.514,18.300 8.969 C 17.309 6.905,15.402 5.479,13.120 5.095 C 12.692 5.023,11.636 4.993,11.240 5.041 M9.984 12.520 L 8.000 15.000 9.500 15.000 L 11.000 15.000 11.000 17.000 L 11.000 19.000 12.000 19.000 L 13.000 19.000 13.000 17.000 L 13.000 15.000 14.500 15.000 L 16.000 15.000 14.016 12.520 C 12.925 11.156,12.018 10.040,12.000 10.040 C 11.982 10.040,11.075 11.156,9.984 12.520 " stroke="none" fill-rule="evenodd" fill="black"></path></svg>