<svg viewBox="0 0 24 24" xmlns="http://www.w3.org/2000/svg"><path d="M7.580 3.046 C 6.812 3.195,6.158 3.891,6.030 4.698 L 5.982 5.000 4.918 5.000 C 4.327 5.000,3.749 5.019,3.617 5.043 C 2.862 5.181,2.203 5.830,2.044 6.592 C 1.982 6.890,1.982 17.110,2.044 17.408 C 2.201 18.158,2.842 18.799,3.592 18.956 C 3.717 18.982,4.252 19.000,4.893 19.000 L 5.982 19.000 6.030 19.302 C 6.159 20.116,6.796 20.790,7.592 20.956 C 7.889 21.018,16.111 21.018,16.408 20.956 C 17.204 20.790,17.841 20.116,17.970 19.302 L 18.018 19.000 19.107 19.000 C 19.748 19.000,20.283 18.982,20.408 18.956 C 21.158 18.799,21.799 18.158,21.956 17.408 C 22.018 17.110,22.018 6.890,21.956 6.592 C 21.817 5.926,21.316 5.358,20.647 5.109 C 20.439 5.032,20.320 5.023,19.219 5.009 L 18.017 4.994 17.969 4.695 C 17.854 3.969,17.365 3.381,16.647 3.107 L 16.420 3.020 12.100 3.014 C 9.464 3.010,7.702 3.023,7.580 3.046 M16.000 12.000 L 16.000 19.000 12.000 19.000 L 8.000 19.000 8.000 12.000 L 8.000 5.000 12.000 5.000 L 16.000 5.000 16.000 12.000 M6.000 12.000 L 6.000 17.000 5.000 17.000 L 4.000 17.000 4.000 12.000 L 4.000 7.000 5.000 7.000 L 6.000 7.000 6.000 12.000 M20.000 12.000 L 20.000 17.000 19.000 17.000 L 18.000 17.000 18.000 12.000 L 18.000 7.000 19.000 7.000 L 20.000 7.000 20.000 12.000 " stroke="none" fill-rule="evenodd" fill="black"></path></svg>