<svg viewBox="0 0 24 24" xmlns="http://www.w3.org/2000/svg"><path d="M7.664 2.063 C 7.458 2.138,7.267 2.287,7.168 2.449 C 7.124 2.521,5.947 5.541,4.554 9.160 C 2.070 15.610,2.020 15.746,2.020 16.020 C 2.020 16.252,2.038 16.331,2.127 16.480 C 2.188 16.582,3.372 17.794,4.847 19.265 C 7.257 21.668,7.476 21.876,7.662 21.936 C 7.844 21.995,8.272 22.000,12.063 21.991 L 16.262 21.980 16.457 21.880 C 16.564 21.825,16.703 21.715,16.767 21.637 C 16.848 21.536,17.633 19.545,19.431 14.877 C 21.859 8.572,21.979 8.248,21.980 8.000 C 21.980 7.811,21.956 7.691,21.891 7.560 C 21.827 7.430,21.065 6.644,19.171 4.755 C 16.781 2.371,16.522 2.124,16.343 2.065 C 16.166 2.007,15.725 2.000,11.983 2.003 C 8.474 2.005,7.795 2.015,7.664 2.063 M17.080 5.500 L 18.580 7.000 16.000 7.000 L 13.420 7.000 11.920 5.500 L 10.420 4.000 13.000 4.000 L 15.580 4.000 17.080 5.500 M9.604 13.547 C 8.388 16.469,7.381 18.873,7.366 18.889 C 7.350 18.905,6.625 18.203,5.753 17.329 L 4.168 15.740 6.274 10.270 L 8.380 4.800 10.097 6.517 L 11.814 8.234 9.604 13.547 M19.520 9.030 C 19.520 9.066,15.331 19.962,15.308 19.985 C 15.300 19.993,13.898 19.996,12.192 19.990 L 9.092 19.980 11.376 14.491 L 13.660 9.002 16.590 9.001 C 18.202 9.000,19.520 9.014,19.520 9.030 " stroke="none" fill-rule="evenodd" fill="black"></path></svg>