<svg viewBox="0 0 24 24" xmlns="http://www.w3.org/2000/svg"><path d="M11.260 4.044 C 9.618 4.215,8.016 5.044,6.937 6.280 C 6.602 6.664,6.135 7.362,5.915 7.810 C 5.746 8.151,5.738 8.161,5.541 8.225 C 4.924 8.426,4.159 8.896,3.618 9.409 C 3.158 9.844,2.806 10.322,2.520 10.900 C 2.118 11.711,1.970 12.399,2.013 13.260 C 2.138 15.767,4.140 17.809,6.647 17.987 L 7.000 18.012 7.000 17.006 L 7.000 16.000 6.858 16.000 C 6.634 16.000,6.145 15.887,5.850 15.767 C 4.587 15.253,3.798 13.823,4.056 12.519 C 4.177 11.907,4.504 11.334,5.007 10.854 C 5.515 10.369,6.038 10.112,6.816 9.964 C 7.055 9.919,7.255 9.877,7.259 9.871 C 7.263 9.865,7.334 9.662,7.417 9.420 C 7.708 8.573,8.164 7.837,8.730 7.296 C 10.790 5.327,14.213 5.659,15.986 7.998 C 16.317 8.435,16.689 9.187,16.818 9.680 C 16.954 10.201,17.000 10.628,17.000 11.364 L 17.000 11.991 17.710 12.009 C 18.329 12.024,18.451 12.038,18.660 12.119 C 19.413 12.409,19.904 13.038,19.984 13.813 C 20.085 14.799,19.384 15.752,18.408 15.956 C 18.291 15.980,17.927 16.000,17.598 16.000 L 17.000 16.000 17.000 17.005 L 17.000 18.009 17.830 17.989 C 18.562 17.972,18.702 17.958,19.020 17.868 C 20.547 17.435,21.602 16.303,21.923 14.752 C 22.030 14.237,22.012 13.564,21.879 13.040 C 21.784 12.667,21.521 12.074,21.317 11.773 C 20.830 11.052,20.049 10.465,19.222 10.198 C 19.075 10.150,18.949 10.091,18.942 10.066 C 18.935 10.041,18.900 9.852,18.863 9.646 C 18.773 9.143,18.562 8.514,18.304 7.976 C 17.022 5.308,14.207 3.737,11.260 4.044 M8.000 16.500 L 8.000 20.000 9.000 20.000 L 10.000 20.000 10.000 16.500 L 10.000 13.000 9.000 13.000 L 8.000 13.000 8.000 16.500 M14.000 16.500 L 14.000 20.000 15.000 20.000 L 16.000 20.000 16.000 16.500 L 16.000 13.000 15.000 13.000 L 14.000 13.000 14.000 16.500 M11.000 18.500 L 11.000 22.000 12.000 22.000 L 13.000 22.000 13.000 18.500 L 13.000 15.000 12.000 15.000 L 11.000 15.000 11.000 18.500 " stroke="none" fill-rule="evenodd" fill="black"></path></svg>