<svg viewBox="0 0 24 24" xmlns="http://www.w3.org/2000/svg"><path d="M8.000 3.000 L 8.000 4.000 6.427 4.000 C 5.471 4.000,4.762 4.017,4.617 4.043 C 3.862 4.181,3.203 4.830,3.044 5.592 C 2.982 5.892,2.982 20.108,3.044 20.408 C 3.201 21.158,3.842 21.799,4.592 21.956 C 4.892 22.018,19.108 22.018,19.408 21.956 C 19.776 21.879,20.117 21.690,20.404 21.404 C 20.690 21.117,20.879 20.776,20.956 20.408 C 21.018 20.108,21.018 5.892,20.956 5.592 C 20.817 4.926,20.318 4.361,19.647 4.108 C 19.431 4.027,19.340 4.022,17.710 4.009 L 16.000 3.995 16.000 2.998 L 16.000 2.000 15.000 2.000 L 14.000 2.000 14.000 3.000 L 14.000 4.000 12.000 4.000 L 10.000 4.000 10.000 3.000 L 10.000 2.000 9.000 2.000 L 8.000 2.000 8.000 3.000 M19.000 13.500 L 19.000 20.000 12.000 20.000 L 5.000 20.000 5.000 13.500 L 5.000 7.000 12.000 7.000 L 19.000 7.000 19.000 13.500 M7.000 10.500 L 7.000 12.000 12.000 12.000 L 17.000 12.000 17.000 10.500 L 17.000 9.000 12.000 9.000 L 7.000 9.000 7.000 10.500 " stroke="none" fill-rule="evenodd" fill="black"></path></svg>