<svg viewBox="0 0 24 24" xmlns="http://www.w3.org/2000/svg"><path d="M4.000 4.500 L 4.000 6.000 6.000 6.000 L 8.000 6.000 8.000 4.500 L 8.000 3.000 6.000 3.000 L 4.000 3.000 4.000 4.500 M10.000 4.500 L 10.000 6.000 12.000 6.000 L 14.000 6.000 14.000 4.500 L 14.000 3.000 12.000 3.000 L 10.000 3.000 10.000 4.500 M16.000 4.500 L 16.000 6.000 18.000 6.000 L 20.000 6.000 20.000 4.500 L 20.000 3.000 18.000 3.000 L 16.000 3.000 16.000 4.500 M4.000 9.500 L 4.000 11.000 6.000 11.000 L 8.000 11.000 8.000 9.500 L 8.000 8.000 6.000 8.000 L 4.000 8.000 4.000 9.500 M10.000 9.500 L 10.000 11.000 12.000 11.000 L 14.000 11.000 14.000 9.500 L 14.000 8.000 12.000 8.000 L 10.000 8.000 10.000 9.500 M16.000 9.500 L 16.000 11.000 18.000 11.000 L 20.000 11.000 20.000 9.500 L 20.000 8.000 18.000 8.000 L 16.000 8.000 16.000 9.500 M4.000 14.500 L 4.000 16.000 6.000 16.000 L 8.000 16.000 8.000 14.500 L 8.000 13.000 6.000 13.000 L 4.000 13.000 4.000 14.500 M10.000 14.500 L 10.000 16.000 12.000 16.000 L 14.000 16.000 14.000 14.500 L 14.000 13.000 12.000 13.000 L 10.000 13.000 10.000 14.500 M16.000 14.500 L 16.000 16.000 18.000 16.000 L 20.000 16.000 20.000 14.500 L 20.000 13.000 18.000 13.000 L 16.000 13.000 16.000 14.500 M10.000 19.500 L 10.000 21.000 12.000 21.000 L 14.000 21.000 14.000 19.500 L 14.000 18.000 12.000 18.000 L 10.000 18.000 10.000 19.500 " stroke="none" fill-rule="evenodd" fill="black"></path></svg>