<svg viewBox="0 0 24 24" xmlns="http://www.w3.org/2000/svg"><path d="M5.580 4.047 C 4.859 4.185,4.199 4.848,4.044 5.592 C 3.905 6.257,4.105 6.912,4.596 7.404 C 5.393 8.200,6.607 8.200,7.404 7.404 C 8.200 6.607,8.200 5.393,7.404 4.596 C 6.913 4.106,6.277 3.914,5.580 4.047 M11.580 4.047 C 10.859 4.185,10.199 4.848,10.044 5.592 C 9.789 6.816,10.751 8.000,12.000 8.000 C 13.080 8.000,14.000 7.080,14.000 6.000 C 14.000 5.477,13.790 4.983,13.404 4.596 C 12.913 4.106,12.277 3.914,11.580 4.047 M17.580 4.047 C 16.859 4.185,16.199 4.848,16.044 5.592 C 15.789 6.816,16.751 8.000,18.000 8.000 C 19.080 8.000,20.000 7.080,20.000 6.000 C 20.000 5.477,19.790 4.983,19.404 4.596 C 18.913 4.106,18.277 3.914,17.580 4.047 M5.580 10.047 C 5.236 10.113,4.883 10.310,4.596 10.596 C 3.800 11.393,3.800 12.607,4.596 13.404 C 5.393 14.200,6.607 14.200,7.404 13.404 C 8.200 12.607,8.200 11.393,7.404 10.596 C 6.913 10.106,6.277 9.914,5.580 10.047 M11.580 10.047 C 10.707 10.214,10.000 11.087,10.000 12.000 C 10.000 12.920,10.690 13.768,11.592 13.956 C 12.816 14.211,14.000 13.249,14.000 12.000 C 14.000 11.477,13.790 10.983,13.404 10.596 C 12.913 10.106,12.277 9.914,11.580 10.047 M17.580 10.047 C 16.707 10.214,16.000 11.087,16.000 12.000 C 16.000 12.920,16.690 13.768,17.592 13.956 C 18.816 14.211,20.000 13.249,20.000 12.000 C 20.000 11.477,19.790 10.983,19.404 10.596 C 18.913 10.106,18.277 9.914,17.580 10.047 M11.580 16.047 C 10.707 16.214,10.000 17.087,10.000 18.000 C 10.000 18.920,10.690 19.768,11.592 19.956 C 12.816 20.211,14.000 19.249,14.000 18.000 C 14.000 17.477,13.790 16.983,13.404 16.596 C 12.913 16.106,12.277 15.914,11.580 16.047 " stroke="none" fill="black" fill-rule="evenodd"></path></svg>