<svg viewBox="0 0 24 24" xmlns="http://www.w3.org/2000/svg"><path d="M4.580 3.047 C 3.858 3.186,3.199 3.848,3.044 4.592 C 2.982 4.892,2.982 19.108,3.044 19.408 C 3.201 20.158,3.842 20.799,4.592 20.956 C 4.892 21.018,19.108 21.018,19.408 20.956 C 20.158 20.799,20.799 20.158,20.956 19.408 C 21.018 19.108,21.018 4.892,20.956 4.592 C 20.817 3.927,20.322 3.365,19.647 3.107 L 19.420 3.020 12.100 3.014 C 7.566 3.011,4.704 3.023,4.580 3.047 M19.000 12.000 L 19.000 19.000 12.000 19.000 L 5.000 19.000 5.000 12.000 L 5.000 5.000 12.000 5.000 L 19.000 5.000 19.000 12.000 M7.493 6.592 C 6.466 6.958,6.173 8.279,6.947 9.053 C 7.810 9.915,9.282 9.436,9.479 8.228 C 9.581 7.598,9.232 6.938,8.644 6.650 C 8.352 6.507,7.807 6.480,7.493 6.592 M15.493 6.592 C 14.831 6.828,14.409 7.538,14.521 8.228 C 14.718 9.436,16.190 9.915,17.053 9.053 C 17.782 8.323,17.575 7.106,16.644 6.650 C 16.352 6.507,15.807 6.480,15.493 6.592 M11.493 10.592 C 10.831 10.828,10.409 11.538,10.521 12.228 C 10.718 13.436,12.190 13.915,13.053 13.053 C 13.782 12.323,13.575 11.106,12.644 10.650 C 12.352 10.507,11.807 10.480,11.493 10.592 M7.493 14.592 C 6.831 14.828,6.409 15.538,6.521 16.228 C 6.718 17.436,8.190 17.915,9.053 17.053 C 9.782 16.323,9.575 15.106,8.644 14.650 C 8.352 14.507,7.807 14.480,7.493 14.592 M15.493 14.592 C 14.831 14.828,14.409 15.538,14.521 16.228 C 14.718 17.436,16.190 17.915,17.053 17.053 C 17.782 16.323,17.575 15.106,16.644 14.650 C 16.352 14.507,15.807 14.480,15.493 14.592 " stroke="none" fill-rule="evenodd" fill="black"></path></svg>