<svg viewBox="0 0 24 24" xmlns="http://www.w3.org/2000/svg"><path d="M6.580 3.047 C 5.858 3.186,5.199 3.848,5.044 4.592 C 5.018 4.717,5.000 5.255,5.000 5.902 L 5.000 7.000 4.427 7.000 C 4.112 7.000,3.748 7.020,3.617 7.043 C 2.862 7.181,2.203 7.830,2.044 8.592 C 1.982 8.890,1.982 19.110,2.044 19.408 C 2.201 20.158,2.842 20.799,3.592 20.956 C 3.887 21.017,10.113 21.017,10.408 20.956 C 11.204 20.790,11.841 20.116,11.970 19.302 L 12.018 19.000 16.107 19.000 C 18.938 19.000,20.261 18.986,20.408 18.956 C 21.158 18.799,21.799 18.158,21.956 17.408 C 22.018 17.109,22.018 4.891,21.956 4.592 C 21.817 3.927,21.322 3.365,20.647 3.107 L 20.420 3.020 13.600 3.014 C 9.382 3.011,6.704 3.023,6.580 3.047 M20.000 11.000 L 20.000 17.000 16.000 17.000 L 12.000 17.000 12.000 12.902 C 12.000 10.065,11.986 8.739,11.956 8.592 C 11.817 7.926,11.318 7.361,10.647 7.108 C 10.431 7.027,10.340 7.022,8.710 7.009 L 7.000 6.995 7.000 5.998 L 7.000 5.000 13.500 5.000 L 20.000 5.000 20.000 11.000 M10.000 14.000 L 10.000 19.000 7.000 19.000 L 4.000 19.000 4.000 14.000 L 4.000 9.000 7.000 9.000 L 10.000 9.000 10.000 14.000 " stroke="none" fill-rule="evenodd" fill="black"></path></svg>