<svg viewBox="0 0 24 24" xmlns="http://www.w3.org/2000/svg"><path d="M11.000 7.500 L 11.000 11.000 9.500 11.000 L 8.000 11.000 9.984 13.480 C 11.075 14.844,11.982 15.960,12.000 15.960 C 12.018 15.960,12.925 14.844,14.016 13.480 L 16.000 11.000 14.500 11.000 L 13.000 11.000 13.000 7.500 L 13.000 4.000 12.000 4.000 L 11.000 4.000 11.000 7.500 M2.000 14.598 C 2.000 17.070,2.014 18.262,2.044 18.408 C 2.201 19.158,2.842 19.799,3.592 19.956 C 3.892 20.018,20.108 20.018,20.408 19.956 C 21.158 19.799,21.799 19.158,21.956 18.408 C 21.986 18.262,22.000 17.070,22.000 14.598 L 22.000 11.000 21.000 11.000 L 20.000 11.000 20.000 14.500 L 20.000 18.000 12.000 18.000 L 4.000 18.000 4.000 14.500 L 4.000 11.000 3.000 11.000 L 2.000 11.000 2.000 14.598 " stroke="none" fill-rule="evenodd" fill="black"></path></svg>