<svg viewBox="0 0 24 24" xmlns="http://www.w3.org/2000/svg"><path d="M11.120 2.039 C 8.020 2.349,5.361 3.939,3.659 6.500 C 1.048 10.428,1.568 15.667,4.900 19.022 C 5.878 20.007,6.984 20.750,8.220 21.254 C 11.958 22.779,16.203 21.920,19.062 19.062 C 23.445 14.678,22.834 7.442,17.778 3.853 C 16.479 2.930,15.094 2.370,13.493 2.119 C 12.909 2.027,11.660 1.985,11.120 2.039 M11.000 5.590 L 11.000 7.101 10.654 7.190 C 10.464 7.239,10.125 7.367,9.900 7.474 C 8.814 7.993,8.039 8.756,7.517 9.820 C 7.131 10.607,6.971 11.373,7.013 12.238 C 7.136 14.812,9.188 16.864,11.762 16.987 C 13.687 17.079,15.514 16.040,16.402 14.347 C 16.622 13.927,16.769 13.554,16.842 13.227 L 16.893 13.000 18.406 13.000 C 19.702 13.000,19.920 13.008,19.920 13.058 C 19.920 13.240,19.729 14.053,19.580 14.508 C 18.068 19.100,12.828 21.312,8.500 19.184 C 5.339 17.629,3.576 14.263,4.100 10.780 C 4.538 7.872,6.603 5.411,9.420 4.441 C 9.861 4.290,10.695 4.089,10.910 4.083 L 11.000 4.080 11.000 5.590 M13.610 4.178 C 15.679 4.609,17.449 5.807,18.668 7.600 C 19.006 8.099,19.422 8.972,19.620 9.600 C 19.725 9.936,19.919 10.795,19.920 10.930 C 19.920 10.995,19.822 11.000,18.410 11.000 L 16.900 11.000 16.806 10.650 C 16.463 9.380,15.523 8.219,14.327 7.588 C 13.995 7.413,13.205 7.120,13.065 7.120 C 13.006 7.120,13.000 6.976,13.000 5.600 C 13.000 4.179,13.005 4.080,13.070 4.080 C 13.108 4.080,13.351 4.125,13.610 4.178 M12.566 9.062 C 12.794 9.105,13.032 9.188,13.318 9.327 C 13.685 9.505,13.782 9.575,14.104 9.896 C 14.425 10.218,14.495 10.315,14.673 10.682 C 15.105 11.573,15.107 12.422,14.680 13.305 C 13.985 14.739,12.332 15.370,10.850 14.767 C 10.205 14.504,9.637 13.960,9.321 13.303 C 9.072 12.785,9.021 12.563,9.021 12.000 C 9.021 11.434,9.072 11.216,9.328 10.682 C 9.506 10.312,9.573 10.221,9.895 9.900 C 10.171 9.625,10.338 9.497,10.580 9.372 C 11.268 9.018,11.844 8.928,12.566 9.062 " stroke="none" fill-rule="evenodd" fill="black"></path></svg>