<svg viewBox="0 0 24 24" xmlns="http://www.w3.org/2000/svg"><path d="M11.040 2.041 C 8.630 2.291,6.376 3.396,4.742 5.128 C 2.369 7.643,1.469 11.115,2.319 14.480 C 3.203 17.980,6.006 20.778,9.538 21.685 C 12.554 22.460,15.809 21.752,18.247 19.790 C 20.025 18.360,21.269 16.366,21.761 14.154 C 21.900 13.531,21.961 13.035,21.986 12.320 C 22.165 7.260,18.493 2.869,13.440 2.100 C 12.945 2.025,11.530 1.990,11.040 2.041 M12.806 4.042 C 14.327 4.196,15.783 4.793,17.003 5.763 C 17.416 6.092,18.055 6.748,18.371 7.169 C 20.895 10.531,20.423 15.217,17.279 17.993 C 15.639 19.441,13.361 20.183,11.248 19.959 C 9.906 19.816,8.651 19.368,7.576 18.646 C 3.734 16.070,2.852 10.868,5.629 7.169 C 5.945 6.748,6.584 6.092,6.997 5.763 C 8.655 4.444,10.724 3.831,12.806 4.042 M11.000 10.000 L 11.000 12.000 9.490 12.000 L 7.980 12.000 9.990 14.010 L 12.000 16.020 14.010 14.010 L 16.020 12.000 14.510 12.000 L 13.000 12.000 13.000 10.000 L 13.000 8.000 12.000 8.000 L 11.000 8.000 11.000 10.000 " stroke="none" fill-rule="evenodd" fill="black"></path></svg>