<svg viewBox="0 0 24 24" xmlns="http://www.w3.org/2000/svg"><path d="M7.400 3.043 C 7.301 3.062,7.093 3.142,6.937 3.221 C 6.387 3.499,6.376 3.515,4.139 7.196 C 3.024 9.031,2.087 10.604,2.056 10.691 C 2.025 10.779,2.000 10.917,2.000 10.998 C 2.000 11.395,1.834 11.197,6.723 16.633 C 9.876 20.139,11.375 21.778,11.505 21.860 C 11.672 21.966,11.728 21.980,12.000 21.980 C 12.272 21.980,12.328 21.966,12.495 21.860 C 12.625 21.778,14.124 20.139,17.277 16.633 C 22.164 11.199,22.000 11.395,22.000 10.999 C 22.000 10.918,21.980 10.791,21.955 10.716 C 21.930 10.641,20.981 9.050,19.846 7.180 C 18.220 4.500,17.738 3.736,17.572 3.573 C 17.331 3.335,16.886 3.100,16.565 3.040 C 16.296 2.990,7.660 2.993,7.400 3.043 M17.684 7.473 C 18.518 8.844,19.200 9.973,19.200 9.983 C 19.200 9.992,15.960 10.000,12.000 10.000 C 8.040 10.000,4.800 9.992,4.800 9.982 C 4.800 9.972,5.475 8.852,6.301 7.492 L 7.802 5.020 9.491 4.999 C 10.420 4.988,12.302 4.979,13.674 4.979 L 16.168 4.980 17.684 7.473 M18.720 12.018 C 18.720 12.045,12.043 19.458,12.008 19.471 C 11.979 19.480,5.317 12.107,5.287 12.033 C 5.279 12.015,8.299 12.000,11.997 12.000 C 15.694 12.000,18.720 12.008,18.720 12.018 " stroke="none" fill-rule="evenodd" fill="black"></path></svg>