<svg viewBox="0 0 24 24" xmlns="http://www.w3.org/2000/svg"><path d="M4.580 3.047 C 3.859 3.185,3.199 3.848,3.044 4.592 C 2.982 4.892,2.982 19.108,3.044 19.408 C 3.201 20.158,3.842 20.799,4.592 20.956 C 4.892 21.018,19.108 21.018,19.408 20.956 C 20.158 20.799,20.799 20.158,20.956 19.408 C 21.018 19.108,21.018 4.892,20.956 4.592 C 20.797 3.830,20.138 3.181,19.383 3.043 C 19.076 2.987,4.875 2.991,4.580 3.047 M14.000 12.000 L 14.000 19.000 9.500 19.000 L 5.000 19.000 5.000 12.000 L 5.000 5.000 9.500 5.000 L 14.000 5.000 14.000 12.000 M19.000 12.000 L 19.000 19.000 17.500 19.000 L 16.000 19.000 16.000 12.000 L 16.000 5.000 17.500 5.000 L 19.000 5.000 19.000 12.000 " stroke="none" fill-rule="evenodd" fill="black"></path></svg>