<svg viewBox="0 0 24 24" xmlns="http://www.w3.org/2000/svg"><path d="M11.680 4.024 C 11.625 4.034,11.472 4.080,11.340 4.127 C 9.948 4.613,9.552 6.359,10.596 7.404 C 11.393 8.200,12.607 8.200,13.404 7.404 C 14.449 6.358,14.061 4.641,12.662 4.123 C 12.428 4.037,11.900 3.983,11.680 4.024 M11.680 10.024 C 11.625 10.034,11.472 10.080,11.340 10.127 C 9.948 10.613,9.552 12.359,10.596 13.404 C 11.393 14.200,12.607 14.200,13.404 13.404 C 14.449 12.358,14.061 10.641,12.662 10.123 C 12.428 10.037,11.900 9.983,11.680 10.024 M11.680 16.024 C 11.625 16.034,11.472 16.080,11.340 16.127 C 9.948 16.613,9.552 18.359,10.596 19.404 C 11.393 20.200,12.607 20.200,13.404 19.404 C 14.449 18.358,14.061 16.641,12.662 16.123 C 12.428 16.037,11.900 15.983,11.680 16.024 " stroke="none" fill-rule="evenodd" fill="black"></path></svg>