<svg viewBox="0 0 24 24" xmlns="http://www.w3.org/2000/svg"><path d="M7.000 12.000 L 7.000 20.000 8.000 20.000 L 9.000 20.000 9.000 12.000 L 9.000 4.000 8.000 4.000 L 7.000 4.000 7.000 12.000 M15.000 12.000 L 15.000 18.000 16.000 18.000 L 17.000 18.000 17.000 12.000 L 17.000 6.000 16.000 6.000 L 15.000 6.000 15.000 12.000 M11.000 12.000 L 11.000 15.000 12.000 15.000 L 13.000 15.000 13.000 12.000 L 13.000 9.000 12.000 9.000 L 11.000 9.000 11.000 12.000 M3.000 12.000 L 3.000 14.000 4.000 14.000 L 5.000 14.000 5.000 12.000 L 5.000 10.000 4.000 10.000 L 3.000 10.000 3.000 12.000 M19.000 12.000 L 19.000 13.000 20.000 13.000 L 21.000 13.000 21.000 12.000 L 21.000 11.000 20.000 11.000 L 19.000 11.000 19.000 12.000 " stroke="none" fill-rule="evenodd" fill="black"></path></svg>