<svg viewBox="0 0 24 24" xmlns="http://www.w3.org/2000/svg"><path d="M8.810 5.130 L 5.640 8.301 6.350 9.010 L 7.061 9.720 9.540 7.240 L 12.020 4.760 14.490 7.230 L 16.960 9.699 17.660 9.000 L 18.360 8.301 15.190 5.130 C 13.447 3.387,12.011 1.960,12.000 1.960 C 11.989 1.960,10.553 3.387,8.810 5.130 M6.330 15.010 L 5.640 15.701 8.820 18.880 L 12.000 22.060 15.180 18.880 L 18.360 15.700 17.660 15.000 L 16.960 14.300 14.490 16.770 L 12.020 19.240 9.560 16.780 C 8.207 15.427,7.082 14.320,7.060 14.320 C 7.037 14.320,6.709 14.631,6.330 15.010 " stroke="none" fill-rule="evenodd" fill="black"></path></svg>