<svg viewBox="0 0 24 24" xmlns="http://www.w3.org/2000/svg"><path d="M4.580 3.047 C 3.858 3.186,3.199 3.848,3.044 4.592 C 2.982 4.892,2.982 19.108,3.044 19.408 C 3.201 20.158,3.842 20.799,4.592 20.956 C 4.892 21.018,19.108 21.018,19.408 20.956 C 20.158 20.799,20.799 20.158,20.956 19.408 C 21.018 19.108,21.018 4.892,20.956 4.592 C 20.817 3.927,20.322 3.365,19.647 3.107 L 19.420 3.020 12.100 3.014 C 7.566 3.011,4.704 3.023,4.580 3.047 M7.000 6.000 L 7.000 7.000 6.000 7.000 L 5.000 7.000 5.000 6.000 L 5.000 5.000 6.000 5.000 L 7.000 5.000 7.000 6.000 M15.000 8.000 L 15.000 11.000 12.000 11.000 L 9.000 11.000 9.000 8.000 L 9.000 5.000 12.000 5.000 L 15.000 5.000 15.000 8.000 M19.000 6.000 L 19.000 7.000 18.000 7.000 L 17.000 7.000 17.000 6.000 L 17.000 5.000 18.000 5.000 L 19.000 5.000 19.000 6.000 M7.000 10.000 L 7.000 11.000 6.000 11.000 L 5.000 11.000 5.000 10.000 L 5.000 9.000 6.000 9.000 L 7.000 9.000 7.000 10.000 M19.000 10.000 L 19.000 11.000 18.000 11.000 L 17.000 11.000 17.000 10.000 L 17.000 9.000 18.000 9.000 L 19.000 9.000 19.000 10.000 M7.000 14.000 L 7.000 15.000 6.000 15.000 L 5.000 15.000 5.000 14.000 L 5.000 13.000 6.000 13.000 L 7.000 13.000 7.000 14.000 M15.000 16.000 L 15.000 19.000 12.000 19.000 L 9.000 19.000 9.000 16.000 L 9.000 13.000 12.000 13.000 L 15.000 13.000 15.000 16.000 M19.000 14.000 L 19.000 15.000 18.000 15.000 L 17.000 15.000 17.000 14.000 L 17.000 13.000 18.000 13.000 L 19.000 13.000 19.000 14.000 M7.000 18.000 L 7.000 19.000 6.000 19.000 L 5.000 19.000 5.000 18.000 L 5.000 17.000 6.000 17.000 L 7.000 17.000 7.000 18.000 M19.000 18.000 L 19.000 19.000 18.000 19.000 L 17.000 19.000 17.000 18.000 L 17.000 17.000 18.000 17.000 L 19.000 17.000 19.000 18.000 " stroke="none" fill-rule="evenodd" fill="black"></path></svg>