<svg viewBox="0 0 24 24" xmlns="http://www.w3.org/2000/svg"><path d="M9.580 2.065 C 7.804 2.253,6.471 2.682,5.340 3.432 C 3.842 4.425,2.735 6.118,2.341 8.021 C 2.009 9.618,2.135 11.355,2.701 13.003 C 2.901 13.584,3.387 14.548,3.709 15.000 C 3.967 15.361,4.632 16.070,4.795 16.157 C 4.861 16.193,4.959 16.122,5.486 15.655 C 5.824 15.356,6.154 15.060,6.219 14.996 L 6.338 14.880 5.893 14.450 C 5.075 13.660,4.586 12.708,4.290 11.326 C 4.190 10.855,4.182 10.753,4.182 9.860 C 4.182 9.018,4.193 8.852,4.270 8.510 C 4.601 7.035,5.359 5.836,6.408 5.128 C 7.481 4.404,8.782 4.070,10.540 4.066 C 11.724 4.064,12.740 4.193,13.840 4.484 C 14.764 4.729,15.262 4.950,15.986 5.434 C 17.301 6.314,18.651 7.783,19.494 9.250 C 19.554 9.354,19.612 9.440,19.622 9.440 C 19.632 9.440,20.038 9.241,20.523 8.999 L 21.404 8.557 21.276 8.329 C 21.206 8.203,20.983 7.848,20.782 7.540 C 19.797 6.037,18.411 4.629,17.004 3.703 C 15.787 2.902,14.337 2.409,12.400 2.138 C 11.957 2.076,9.964 2.025,9.580 2.065 M10.080 5.565 C 7.904 5.815,6.250 7.297,5.899 9.310 C 5.747 10.184,5.897 11.034,6.378 12.020 C 6.658 12.595,6.997 13.095,7.719 14.000 C 9.675 16.452,10.632 18.297,10.900 20.135 C 10.935 20.375,10.974 20.892,10.988 21.285 L 11.013 22.000 12.006 22.000 L 13.000 22.000 13.000 21.470 C 12.999 20.447,12.873 19.504,12.616 18.600 C 12.114 16.838,10.979 14.850,9.251 12.707 C 8.173 11.371,7.793 10.584,7.855 9.814 C 7.938 8.784,8.715 7.939,9.860 7.634 C 10.345 7.505,11.379 7.505,11.960 7.634 C 12.552 7.766,13.135 7.996,13.522 8.252 L 13.624 8.319 14.177 7.503 C 14.480 7.054,14.718 6.669,14.704 6.647 C 14.691 6.625,14.540 6.527,14.370 6.429 C 13.129 5.716,11.544 5.397,10.080 5.565 M15.960 8.608 C 15.663 8.917,15.360 9.239,15.287 9.325 L 15.153 9.480 15.469 9.830 C 15.938 10.351,16.092 10.547,16.453 11.088 C 17.445 12.575,18.281 14.783,18.863 17.450 C 18.981 17.992,19.032 18.160,19.078 18.160 C 19.112 18.160,19.549 18.076,20.050 17.973 C 20.787 17.821,20.960 17.773,20.960 17.721 C 20.960 17.625,20.742 16.643,20.559 15.915 C 19.878 13.208,18.943 11.049,17.764 9.466 C 17.426 9.011,16.578 8.037,16.526 8.043 C 16.512 8.045,16.257 8.299,15.960 8.608 M11.056 9.909 C 10.794 10.299,10.548 10.666,10.510 10.723 L 10.440 10.828 10.690 11.023 C 11.054 11.307,11.772 12.038,12.148 12.507 C 13.003 13.576,13.771 15.008,14.141 16.220 L 14.243 16.554 14.371 16.516 C 14.442 16.496,14.860 16.379,15.300 16.256 C 15.740 16.133,16.113 16.020,16.129 16.005 C 16.170 15.966,15.994 15.405,15.732 14.740 C 15.056 13.026,14.065 11.505,12.799 10.240 C 12.341 9.782,11.659 9.203,11.576 9.201 C 11.552 9.200,11.318 9.519,11.056 9.909 M6.938 17.063 C 6.565 17.295,6.194 17.529,6.113 17.581 L 5.966 17.677 6.141 17.985 C 6.718 18.997,6.937 19.847,6.987 21.270 L 7.013 22.000 8.012 22.000 L 9.012 22.000 8.987 21.190 C 8.942 19.697,8.723 18.717,8.179 17.569 C 7.951 17.088,7.693 16.640,7.645 16.640 C 7.629 16.640,7.311 16.830,6.938 17.063 M15.600 18.294 C 14.776 18.447,14.701 18.468,14.707 18.541 C 14.710 18.584,14.741 18.800,14.775 19.020 C 14.868 19.618,14.951 20.535,14.983 21.310 L 15.011 22.000 16.006 22.000 L 17.000 22.000 17.000 21.603 C 17.000 20.826,16.887 19.544,16.732 18.550 C 16.671 18.162,16.656 18.120,16.582 18.124 C 16.537 18.126,16.095 18.203,15.600 18.294 " stroke="none" fill-rule="evenodd" fill="black"></path></svg>