<svg viewBox="0 0 24 24" xmlns="http://www.w3.org/2000/svg"><path d="M3.580 3.047 C 2.859 3.185,2.199 3.848,2.044 4.592 C 1.982 4.892,1.982 19.108,2.044 19.408 C 2.201 20.158,2.842 20.799,3.592 20.956 C 3.892 21.018,20.108 21.018,20.408 20.956 C 21.158 20.799,21.799 20.158,21.956 19.408 C 22.018 19.109,22.018 6.891,21.956 6.592 C 21.817 5.927,21.322 5.365,20.647 5.107 L 20.420 5.020 15.921 5.009 L 11.422 4.998 10.481 4.065 C 9.666 3.256,9.514 3.123,9.343 3.066 C 9.167 3.007,8.854 3.000,6.463 3.004 C 4.953 3.007,3.693 3.026,3.580 3.047 M20.000 13.000 L 20.000 19.000 12.000 19.000 L 4.000 19.000 4.000 13.000 L 4.000 7.000 12.000 7.000 L 20.000 7.000 20.000 13.000 M7.880 13.000 L 7.880 14.000 11.880 14.000 L 15.880 14.000 15.880 13.000 L 15.880 12.000 11.880 12.000 L 7.880 12.000 7.880 13.000 " stroke="none" fill-rule="evenodd" fill="black"></path></svg>