<svg viewBox="0 0 24 24" xmlns="http://www.w3.org/2000/svg"><path d="M17.485 4.020 L 16.000 6.000 17.000 6.000 L 18.000 6.000 18.000 8.000 L 18.000 10.000 17.000 10.000 L 16.000 10.000 17.485 11.980 C 18.302 13.069,18.983 13.960,19.000 13.960 C 19.017 13.960,19.698 13.069,20.515 11.980 L 22.000 10.000 21.000 10.000 L 20.000 10.000 20.000 8.000 L 20.000 6.000 21.000 6.000 L 22.000 6.000 20.515 4.020 C 19.698 2.931,19.017 2.040,19.000 2.040 C 18.983 2.040,18.302 2.931,17.485 4.020 M6.323 11.951 C 4.686 16.323,3.338 19.923,3.329 19.951 C 3.315 19.991,3.531 19.999,4.382 19.991 L 5.452 19.980 6.382 17.500 L 7.312 15.020 10.500 15.020 L 13.688 15.020 14.618 17.500 L 15.548 19.980 16.618 19.991 C 17.469 19.999,17.685 19.991,17.671 19.951 C 17.662 19.923,16.314 16.323,14.677 11.951 L 11.700 4.001 10.500 4.001 L 9.300 4.001 6.323 11.951 M11.736 9.816 C 12.387 11.553,12.920 12.979,12.920 12.986 C 12.920 12.994,11.831 13.000,10.500 13.000 C 9.169 13.000,8.080 12.994,8.080 12.986 C 8.080 12.976,9.161 10.087,10.409 6.764 C 10.465 6.615,10.500 6.566,10.521 6.604 C 10.539 6.635,11.085 8.080,11.736 9.816 " stroke="none" fill-rule="evenodd" fill="black"></path></svg>