<svg viewBox="0 0 24 24" xmlns="http://www.w3.org/2000/svg"><path d="M11.580 2.047 C 10.859 2.185,10.199 2.848,10.044 3.592 C 9.789 4.816,10.751 6.000,12.000 6.000 C 13.080 6.000,14.000 5.080,14.000 4.000 C 14.000 3.477,13.790 2.983,13.404 2.596 C 12.913 2.106,12.277 1.914,11.580 2.047 M9.664 7.062 C 9.455 7.140,9.266 7.288,9.162 7.457 C 9.060 7.622,7.034 13.672,7.073 13.694 C 7.088 13.702,7.489 13.838,7.963 13.996 L 8.827 14.282 8.434 16.051 C 8.218 17.024,8.032 17.860,8.020 17.910 L 7.998 18.000 8.999 18.000 L 10.000 18.000 10.000 20.000 L 10.000 22.000 12.000 22.000 L 14.000 22.000 14.000 20.000 L 14.000 18.000 15.001 18.000 L 16.002 18.000 15.980 17.910 C 15.968 17.860,15.782 17.024,15.566 16.052 L 15.174 14.284 15.617 14.127 C 15.861 14.041,16.262 13.904,16.508 13.823 L 16.956 13.675 15.921 10.593 C 14.797 7.244,14.825 7.310,14.457 7.120 L 14.262 7.020 12.041 7.012 C 10.189 7.006,9.794 7.014,9.664 7.062 " stroke="none" fill-rule="evenodd" fill="black"></path></svg>