<svg viewBox="0 0 24 24" xmlns="http://www.w3.org/2000/svg"><path d="M4.000 11.000 L 4.000 20.000 3.500 20.000 L 3.000 20.000 3.000 21.000 L 3.000 22.000 5.000 22.000 L 7.000 22.000 7.000 21.000 L 7.000 20.000 6.500 20.000 L 6.000 20.000 6.000 17.500 L 6.000 15.000 12.573 15.000 C 19.954 15.000,19.378 15.024,19.701 14.701 C 20.020 14.383,20.000 14.723,20.000 9.500 C 20.000 4.277,20.020 4.617,19.701 4.299 C 19.378 3.976,19.954 4.000,12.573 4.000 L 6.000 4.000 6.000 3.000 L 6.000 2.000 5.000 2.000 L 4.000 2.000 4.000 11.000 M18.000 9.500 L 18.000 13.000 12.000 13.000 L 6.000 13.000 6.000 9.500 L 6.000 6.000 12.000 6.000 L 18.000 6.000 18.000 9.500 " stroke="none" fill-rule="evenodd" fill="black"></path></svg>