<svg viewBox="0 0 24 24" xmlns="http://www.w3.org/2000/svg"><path d="M5.460 2.042 C 5.128 2.094,4.765 2.217,4.402 2.399 C 3.148 3.029,2.376 4.433,2.520 5.821 C 2.569 6.297,2.748 6.855,2.975 7.242 C 3.338 7.860,4.012 8.447,4.660 8.708 L 4.980 8.837 4.980 12.001 L 4.980 15.165 4.716 15.273 C 4.016 15.557,3.339 16.131,2.984 16.740 C 2.413 17.721,2.350 18.930,2.819 19.945 C 3.763 21.992,6.315 22.636,8.113 21.280 C 9.299 20.387,9.779 18.857,9.321 17.432 C 9.013 16.471,8.255 15.667,7.284 15.273 L 7.020 15.165 7.010 13.428 L 6.999 11.692 7.299 11.983 C 8.660 13.305,10.914 13.800,13.569 13.360 C 13.827 13.317,14.081 13.271,14.134 13.258 C 14.220 13.236,14.242 13.260,14.355 13.503 C 14.535 13.887,14.787 14.222,15.152 14.563 C 15.496 14.885,15.782 15.074,16.159 15.226 C 17.116 15.613,18.114 15.582,19.027 15.139 C 21.189 14.090,21.670 11.231,19.970 9.529 C 19.316 8.874,18.458 8.520,17.525 8.520 C 16.570 8.520,15.784 8.830,15.109 9.475 C 14.646 9.918,14.385 10.326,14.183 10.927 L 14.085 11.220 13.806 11.285 C 12.982 11.479,11.808 11.564,11.048 11.484 C 9.601 11.333,8.631 10.764,8.101 9.756 C 7.975 9.516,7.680 8.712,7.680 8.607 C 7.680 8.584,7.784 8.497,7.910 8.415 C 8.266 8.183,8.802 7.622,9.016 7.258 C 9.889 5.770,9.544 3.879,8.200 2.790 C 7.864 2.517,7.244 2.204,6.840 2.103 C 6.522 2.023,5.785 1.991,5.460 2.042 M6.520 4.099 C 6.917 4.239,7.243 4.570,7.402 4.994 C 7.533 5.343,7.503 5.814,7.329 6.169 C 7.175 6.480,6.924 6.722,6.600 6.873 C 6.413 6.961,6.324 6.976,6.000 6.976 C 5.676 6.976,5.587 6.961,5.400 6.873 C 5.076 6.722,4.825 6.480,4.671 6.169 C 4.495 5.811,4.467 5.343,4.600 4.989 C 4.834 4.364,5.429 3.973,6.080 4.018 C 6.223 4.028,6.421 4.064,6.520 4.099 M18.169 10.671 C 19.239 11.199,19.265 12.750,18.213 13.310 C 16.992 13.959,15.644 12.792,16.100 11.480 C 16.233 11.096,16.536 10.788,16.949 10.615 C 17.146 10.533,17.234 10.520,17.541 10.529 C 17.856 10.539,17.936 10.557,18.169 10.671 M6.520 17.099 C 6.917 17.239,7.243 17.570,7.402 17.994 C 7.533 18.343,7.503 18.814,7.329 19.169 C 7.175 19.480,6.924 19.722,6.600 19.873 C 6.413 19.961,6.324 19.976,6.000 19.976 C 5.676 19.976,5.587 19.961,5.400 19.873 C 5.076 19.722,4.825 19.480,4.671 19.169 C 4.495 18.811,4.467 18.343,4.600 17.989 C 4.834 17.364,5.429 16.973,6.080 17.018 C 6.223 17.028,6.421 17.064,6.520 17.099 " stroke="none" fill-rule="evenodd" fill="black"></path></svg>