<svg viewBox="0 0 24 24" xmlns="http://www.w3.org/2000/svg"><path d="M4.664 5.063 C 4.455 5.139,4.267 5.287,4.162 5.457 C 4.114 5.534,3.614 6.970,3.049 8.648 L 2.022 11.700 2.009 13.980 C 1.996 16.478,2.003 16.584,2.233 17.149 C 2.597 18.044,3.443 18.737,4.419 18.938 C 4.843 19.026,8.163 19.028,8.575 18.940 C 9.175 18.813,9.616 18.581,10.055 18.162 C 10.756 17.492,11.000 16.842,11.000 15.642 L 11.000 15.000 12.000 15.000 L 13.000 15.000 13.000 15.642 C 13.000 16.355,13.055 16.713,13.233 17.150 C 13.514 17.839,14.161 18.486,14.849 18.766 C 15.388 18.986,15.554 19.000,17.508 18.999 C 19.407 18.999,19.573 18.986,20.075 18.798 C 20.789 18.531,21.478 17.859,21.767 17.150 C 21.991 16.599,22.000 16.483,22.000 14.073 L 22.000 11.863 20.935 8.665 C 19.880 5.499,19.868 5.466,19.702 5.300 C 19.408 5.006,19.363 5.000,17.573 5.000 L 16.000 5.000 16.000 6.000 L 16.000 7.000 17.137 7.000 L 18.273 7.000 18.923 8.950 C 19.280 10.023,19.580 10.922,19.590 10.950 C 19.605 10.990,19.116 11.000,17.232 11.000 C 15.697 11.000,14.771 11.015,14.617 11.043 C 13.816 11.190,13.161 11.872,13.030 12.698 L 12.982 13.000 12.000 13.000 L 11.018 13.000 10.970 12.698 C 10.854 11.968,10.364 11.380,9.647 11.107 C 9.425 11.023,9.367 11.021,6.906 11.009 C 4.964 10.999,4.397 10.986,4.410 10.948 C 4.420 10.922,4.720 10.023,5.077 8.950 L 5.727 7.000 6.863 7.000 L 8.000 7.000 8.000 6.000 L 8.000 5.000 6.410 5.003 C 5.135 5.005,4.789 5.017,4.664 5.063 M9.000 14.553 C 9.000 16.342,8.990 16.412,8.705 16.697 C 8.407 16.996,8.374 17.000,6.500 17.000 C 4.629 17.000,4.593 16.995,4.299 16.701 C 4.006 16.409,4.000 16.362,4.000 14.573 L 4.000 13.000 6.500 13.000 L 9.000 13.000 9.000 14.553 M20.000 14.553 C 20.000 16.342,19.990 16.412,19.705 16.697 C 19.407 16.996,19.374 17.000,17.500 17.000 C 15.629 17.000,15.593 16.995,15.299 16.701 C 15.006 16.409,15.000 16.362,15.000 14.573 L 15.000 13.000 17.500 13.000 L 20.000 13.000 20.000 14.553 " stroke="none" fill-rule="evenodd" fill="black"></path></svg>