<svg viewBox="0 0 24 24" xmlns="http://www.w3.org/2000/svg"><path d="M7.868 2.061 C 6.560 2.308,5.531 3.244,5.133 4.548 C 5.036 4.867,5.026 4.963,5.023 5.560 C 5.020 6.169,5.078 6.660,5.185 6.940 C 5.205 6.992,5.118 7.000,4.532 7.000 C 4.159 7.000,3.748 7.020,3.617 7.043 C 2.862 7.181,2.203 7.830,2.044 8.592 C 1.985 8.875,1.985 11.125,2.044 11.408 C 2.210 12.204,2.884 12.841,3.698 12.970 L 4.000 13.018 4.000 16.607 C 4.000 19.073,4.014 20.262,4.044 20.408 C 4.201 21.158,4.842 21.799,5.592 21.956 C 5.891 22.018,18.109 22.018,18.408 21.956 C 19.158 21.799,19.799 21.158,19.956 20.408 C 19.986 20.262,20.000 19.073,20.000 16.607 L 20.000 13.018 20.302 12.970 C 21.116 12.841,21.790 12.204,21.956 11.408 C 22.015 11.125,22.015 8.875,21.956 8.592 C 21.817 7.925,21.312 7.354,20.647 7.111 C 20.453 7.040,20.301 7.025,19.610 7.010 C 19.165 7.000,18.800 6.986,18.800 6.979 C 18.800 6.972,18.840 6.807,18.888 6.613 C 18.963 6.317,18.977 6.151,18.976 5.580 C 18.975 4.957,18.966 4.870,18.867 4.548 C 18.459 3.216,17.423 2.292,16.074 2.056 C 14.780 1.830,13.719 2.388,12.794 3.780 C 12.663 3.978,12.456 4.338,12.334 4.580 C 12.213 4.822,12.107 5.026,12.100 5.033 C 12.093 5.041,11.995 4.868,11.883 4.650 C 11.633 4.164,11.283 3.631,10.973 3.265 C 10.514 2.723,9.806 2.252,9.220 2.098 C 8.875 2.007,8.244 1.990,7.868 2.061 M8.960 4.144 C 9.333 4.347,9.765 4.893,10.131 5.622 C 10.310 5.979,10.680 6.880,10.680 6.959 C 10.680 6.986,10.189 7.000,9.188 7.000 C 7.721 7.000,7.694 6.999,7.519 6.910 C 7.268 6.783,7.131 6.543,7.053 6.095 C 6.928 5.379,7.049 4.861,7.432 4.467 C 7.872 4.014,8.485 3.885,8.960 4.144 M16.114 4.141 C 16.415 4.278,16.727 4.591,16.861 4.890 C 17.001 5.201,17.031 5.616,16.947 6.095 C 16.869 6.543,16.732 6.783,16.481 6.910 C 16.307 6.998,16.275 7.000,14.913 7.000 L 13.523 7.000 13.665 6.590 C 13.858 6.034,14.193 5.303,14.425 4.929 C 14.662 4.547,15.008 4.173,15.220 4.073 C 15.433 3.971,15.804 3.999,16.114 4.141 M11.000 10.000 L 11.000 11.000 7.500 11.000 L 4.000 11.000 4.000 10.000 L 4.000 9.000 7.500 9.000 L 11.000 9.000 11.000 10.000 M20.000 10.000 L 20.000 11.000 16.500 11.000 L 13.000 11.000 13.000 10.000 L 13.000 9.000 16.500 9.000 L 20.000 9.000 20.000 10.000 M11.000 16.500 L 11.000 20.000 8.500 20.000 L 6.000 20.000 6.000 16.500 L 6.000 13.000 8.500 13.000 L 11.000 13.000 11.000 16.500 M18.000 16.500 L 18.000 20.000 15.500 20.000 L 13.000 20.000 13.000 16.500 L 13.000 13.000 15.500 13.000 L 18.000 13.000 18.000 16.500 " stroke="none" fill-rule="evenodd" fill="black"></path></svg>