<svg viewBox="0 0 24 24" xmlns="http://www.w3.org/2000/svg"><path d="M4.659 4.064 C 4.433 4.144,4.222 4.329,4.123 4.534 C 4.025 4.736,2.058 13.543,2.035 13.880 C 2.027 14.001,2.023 14.343,2.025 14.640 C 2.031 15.241,2.122 15.683,2.357 16.246 C 3.225 18.332,5.569 19.448,7.752 18.815 C 9.318 18.362,10.572 16.999,10.877 15.420 C 10.902 15.288,10.932 15.139,10.942 15.090 L 10.962 15.000 12.000 15.000 L 13.038 15.000 13.058 15.090 C 13.068 15.139,13.098 15.288,13.123 15.420 C 13.239 16.018,13.559 16.721,13.947 17.230 C 15.355 19.075,17.883 19.536,19.883 18.312 C 20.340 18.033,21.033 17.340,21.312 16.883 C 21.567 16.466,21.738 16.062,21.869 15.563 C 21.950 15.253,21.970 15.077,21.975 14.640 C 21.977 14.343,21.973 14.001,21.965 13.880 C 21.942 13.543,19.975 4.736,19.877 4.534 C 19.831 4.438,19.728 4.306,19.649 4.241 C 19.366 4.008,19.299 4.000,17.573 4.000 L 16.000 4.000 16.000 5.000 L 16.000 6.000 17.097 6.000 L 18.193 6.000 18.277 6.370 C 18.564 7.639,19.151 10.301,19.146 10.307 C 19.142 10.311,19.036 10.279,18.909 10.236 C 18.431 10.075,18.116 10.028,17.500 10.027 C 17.027 10.025,16.823 10.043,16.534 10.110 C 15.151 10.430,13.994 11.377,13.415 12.664 L 13.263 13.001 11.990 12.991 L 10.718 12.980 10.586 12.678 C 10.032 11.402,8.852 10.431,7.466 10.110 C 7.177 10.043,6.973 10.025,6.500 10.027 C 5.884 10.028,5.569 10.075,5.091 10.236 C 4.964 10.279,4.858 10.311,4.854 10.307 C 4.849 10.301,5.436 7.639,5.723 6.370 L 5.807 6.000 6.903 6.000 L 8.000 6.000 8.000 5.000 L 8.000 4.000 6.410 4.003 C 5.137 4.006,4.788 4.018,4.659 4.064 M7.240 12.116 C 8.008 12.358,8.645 13.000,8.891 13.780 C 9.016 14.175,9.016 14.825,8.891 15.220 C 8.498 16.464,7.245 17.205,5.980 16.940 C 5.127 16.761,4.380 16.080,4.116 15.240 C 3.686 13.867,4.550 12.381,5.965 12.059 C 6.305 11.982,6.899 12.008,7.240 12.116 M18.240 12.116 C 19.008 12.358,19.645 13.000,19.891 13.780 C 20.016 14.175,20.016 14.825,19.891 15.220 C 19.498 16.464,18.245 17.205,16.980 16.940 C 16.127 16.761,15.380 16.080,15.116 15.240 C 14.686 13.867,15.550 12.381,16.965 12.059 C 17.305 11.982,17.899 12.008,18.240 12.116 " stroke="none" fill-rule="evenodd" fill="black"></path></svg>