<svg viewBox="0 0 24 24" xmlns="http://www.w3.org/2000/svg"><path d="M16.150 2.054 C 16.068 2.085,15.960 2.137,15.910 2.170 C 15.825 2.226,11.404 6.565,8.344 9.595 C 7.506 10.425,6.927 11.030,6.894 11.109 C 6.863 11.181,6.605 12.251,6.320 13.485 C 6.035 14.720,5.786 15.750,5.767 15.775 C 5.747 15.800,5.342 16.311,4.866 16.910 L 4.001 18.000 5.408 18.000 L 6.814 18.000 7.377 17.446 C 7.687 17.141,7.976 16.880,8.020 16.867 C 8.064 16.854,8.916 16.654,9.912 16.424 C 10.927 16.189,11.775 15.973,11.839 15.932 C 12.064 15.790,20.804 7.148,20.892 6.982 C 21.006 6.765,21.012 6.328,20.905 6.100 C 20.810 5.899,17.133 2.237,16.903 2.115 C 16.704 2.009,16.349 1.981,16.150 2.054 M18.560 6.523 C 18.560 6.550,11.619 13.396,11.434 13.551 L 11.313 13.653 10.276 12.616 C 9.705 12.046,9.243 11.561,9.249 11.538 C 9.255 11.515,10.880 9.901,12.860 7.950 L 16.460 4.404 17.510 5.452 C 18.088 6.028,18.560 6.510,18.560 6.523 M4.000 21.000 L 4.000 22.000 12.000 22.000 L 20.000 22.000 20.000 21.000 L 20.000 20.000 12.000 20.000 L 4.000 20.000 4.000 21.000 " stroke="none" fill-rule="evenodd" fill="black"></path></svg>