<svg viewBox="0 0 24 24" xmlns="http://www.w3.org/2000/svg"><path d="M9.664 4.063 C 9.436 4.146,9.257 4.297,9.131 4.511 C 9.020 4.699,9.020 4.703,9.000 5.614 L 8.980 6.529 8.720 6.626 C 8.033 6.884,7.083 7.442,6.380 8.000 C 5.047 9.059,3.984 10.595,3.448 12.240 C 3.060 13.427,3.000 13.973,3.000 16.284 L 3.000 18.000 2.500 18.000 L 2.000 18.000 2.000 19.000 L 2.000 20.000 12.000 20.000 L 22.000 20.000 22.000 19.000 L 22.000 18.000 21.503 18.000 L 21.006 18.000 20.990 16.030 C 20.976 14.401,20.961 13.987,20.903 13.641 C 20.582 11.705,19.738 10.064,18.340 8.657 C 17.495 7.805,16.529 7.159,15.380 6.677 L 15.020 6.525 15.000 5.633 C 14.981 4.800,14.974 4.727,14.886 4.550 C 14.774 4.323,14.570 4.145,14.325 4.061 C 14.067 3.973,9.904 3.975,9.664 4.063 M13.000 10.500 L 13.000 15.000 14.000 15.000 L 15.000 15.000 15.000 11.839 L 15.000 8.679 15.202 8.781 C 15.773 9.070,16.224 9.396,16.764 9.910 C 17.855 10.949,18.522 12.142,18.822 13.596 C 18.974 14.331,18.999 14.714,18.999 16.410 L 19.000 18.000 12.000 18.000 L 5.000 18.000 5.000 16.364 C 5.000 14.270,5.057 13.704,5.360 12.790 C 5.510 12.337,5.884 11.564,6.149 11.160 C 6.750 10.242,7.636 9.420,8.580 8.901 L 8.980 8.681 8.990 11.840 L 9.000 15.000 10.000 15.000 L 11.000 15.000 11.000 10.500 L 11.000 6.000 12.000 6.000 L 13.000 6.000 13.000 10.500 " stroke="none" fill-rule="evenodd" fill="black"></path></svg>