<svg viewBox="0 0 24 24" xmlns="http://www.w3.org/2000/svg"><path d="M11.120 2.039 C 8.020 2.349,5.361 3.939,3.659 6.500 C 1.048 10.428,1.568 15.667,4.900 19.022 C 5.878 20.007,6.984 20.750,8.220 21.254 C 11.958 22.779,16.203 21.920,19.062 19.062 C 23.445 14.678,22.834 7.442,17.778 3.853 C 16.479 2.930,15.094 2.370,13.493 2.119 C 12.909 2.027,11.660 1.985,11.120 2.039 M12.726 4.040 C 14.253 4.189,15.634 4.727,16.853 5.648 C 17.273 5.965,18.035 6.727,18.352 7.147 C 20.742 10.311,20.499 14.656,17.773 17.521 C 16.272 19.098,14.172 19.999,12.000 19.999 C 8.240 19.999,4.947 17.326,4.177 13.648 C 3.701 11.373,4.234 9.019,5.648 7.147 C 5.965 6.727,6.727 5.965,7.147 5.648 C 8.764 4.427,10.767 3.849,12.726 4.040 M11.420 6.044 C 9.665 6.295,8.208 7.838,8.092 9.570 L 8.068 9.920 9.074 9.920 L 10.080 9.920 10.081 9.790 C 10.084 9.404,10.280 8.968,10.609 8.617 C 11.366 7.807,12.632 7.806,13.387 8.613 C 13.753 9.004,13.918 9.409,13.918 9.920 C 13.918 10.434,13.696 10.737,12.707 11.571 C 11.736 12.390,11.387 12.837,11.138 13.580 C 11.049 13.844,11.027 13.996,11.010 14.450 L 10.990 15.000 11.990 15.000 L 12.991 15.000 13.006 14.589 C 13.020 14.227,13.035 14.156,13.133 13.988 C 13.301 13.701,13.444 13.555,14.017 13.082 C 15.150 12.147,15.624 11.514,15.845 10.641 C 15.965 10.164,15.938 9.382,15.782 8.860 C 15.212 6.949,13.377 5.765,11.420 6.044 M11.000 17.000 L 11.000 18.000 12.000 18.000 L 13.000 18.000 13.000 17.000 L 13.000 16.000 12.000 16.000 L 11.000 16.000 11.000 17.000 " stroke="none" fill-rule="evenodd" fill="black"></path></svg>