<svg viewBox="0 0 24 24" xmlns="http://www.w3.org/2000/svg"><path d="M11.000 4.500 L 11.000 6.000 12.000 6.000 L 13.000 6.000 13.000 4.500 L 13.000 3.000 12.000 3.000 L 11.000 3.000 11.000 4.500 M5.000 9.490 L 5.000 11.000 3.500 11.000 L 2.000 11.000 2.000 12.000 L 2.000 13.000 3.500 13.000 L 5.000 13.000 5.000 14.480 C 5.000 15.294,5.014 15.960,5.030 15.960 C 5.047 15.960,5.951 15.069,7.040 13.980 L 9.020 12.000 7.010 9.990 L 5.000 7.980 5.000 9.490 M11.000 9.500 L 11.000 11.000 12.000 11.000 L 13.000 11.000 13.000 9.500 L 13.000 8.000 12.000 8.000 L 11.000 8.000 11.000 9.500 M17.010 9.975 C 15.927 11.066,15.040 11.973,15.040 11.990 C 15.040 12.007,15.931 12.911,17.020 14.000 L 19.000 15.980 19.000 14.490 L 19.000 13.000 20.500 13.000 L 22.000 13.000 22.000 12.000 L 22.000 11.000 20.500 11.000 L 19.001 11.000 18.990 9.496 L 18.980 7.991 17.010 9.975 M11.000 14.500 L 11.000 16.000 12.000 16.000 L 13.000 16.000 13.000 14.500 L 13.000 13.000 12.000 13.000 L 11.000 13.000 11.000 14.500 M11.000 19.500 L 11.000 21.000 12.000 21.000 L 13.000 21.000 13.000 19.500 L 13.000 18.000 12.000 18.000 L 11.000 18.000 11.000 19.500 " stroke="none" fill-rule="evenodd" fill="black"></path></svg>