<svg viewBox="0 0 24 24" xmlns="http://www.w3.org/2000/svg"><path d="M12.667 3.065 C 12.300 3.178,12.225 3.293,11.260 5.232 L 10.381 7.000 8.138 7.000 C 5.620 7.000,5.608 7.001,5.325 7.272 C 5.202 7.389,4.946 7.866,4.096 9.560 L 3.023 11.700 3.023 12.000 L 3.023 12.300 4.096 14.440 C 4.933 16.109,5.203 16.612,5.321 16.725 C 5.611 17.002,5.590 17.000,8.117 17.000 L 10.381 17.000 11.260 18.768 C 12.219 20.696,12.292 20.809,12.660 20.934 C 12.833 20.993,13.142 21.000,15.500 21.000 C 18.452 21.000,18.385 21.006,18.679 20.725 C 18.797 20.612,19.067 20.109,19.904 18.440 L 20.977 16.300 20.977 16.000 L 20.977 15.700 20.049 13.851 L 19.120 12.001 20.050 10.138 L 20.980 8.275 20.978 7.988 L 20.976 7.700 19.903 5.560 C 18.729 3.217,18.704 3.178,18.313 3.062 C 18.009 2.971,12.961 2.974,12.667 3.065 M18.130 6.500 L 18.880 8.000 18.130 9.500 L 17.380 11.000 15.500 11.000 L 13.620 11.000 12.870 9.500 L 12.120 8.000 12.870 6.500 L 13.620 5.000 15.500 5.000 L 17.380 5.000 18.130 6.500 M11.130 10.500 L 11.880 12.000 11.130 13.500 L 10.380 15.000 8.500 15.000 L 6.620 15.000 5.870 13.500 L 5.120 12.000 5.870 10.500 L 6.620 9.000 8.500 9.000 L 10.380 9.000 11.130 10.500 M18.130 14.500 L 18.880 16.000 18.130 17.500 L 17.380 19.000 15.500 19.000 L 13.620 19.000 12.870 17.500 L 12.120 16.000 12.870 14.500 L 13.620 13.000 15.500 13.000 L 17.380 13.000 18.130 14.500 " stroke="none" fill-rule="evenodd" fill="black"></path></svg>