<svg viewBox="0 0 24 24" xmlns="http://www.w3.org/2000/svg"><path d="M9.000 3.867 C 9.000 3.882,8.829 4.806,8.620 5.920 C 8.411 7.034,8.240 7.958,8.240 7.973 C 8.240 7.988,7.286 8.000,6.120 8.000 L 4.000 8.000 4.000 9.000 L 4.000 10.000 5.920 10.000 C 6.976 10.000,7.840 10.014,7.841 10.030 C 7.842 10.046,7.676 10.947,7.473 12.030 L 7.105 14.000 5.052 14.000 L 3.000 14.000 3.000 15.000 L 3.000 16.000 4.860 16.000 C 5.883 16.000,6.720 16.014,6.719 16.030 C 6.719 16.047,6.560 16.901,6.367 17.930 C 6.062 19.545,6.023 19.802,6.077 19.817 C 6.229 19.861,7.963 20.170,7.977 20.156 C 7.990 20.142,8.760 16.077,8.760 16.022 C 8.760 16.010,9.876 16.000,11.240 16.000 C 12.604 16.000,13.720 16.012,13.720 16.027 C 13.720 16.042,13.565 16.880,13.376 17.888 C 13.187 18.896,13.040 19.744,13.051 19.771 C 13.069 19.818,14.943 20.192,14.977 20.155 C 14.990 20.142,15.760 16.076,15.760 16.022 C 15.760 16.010,16.714 16.000,17.880 16.000 L 20.000 16.000 20.000 15.000 L 20.000 14.000 18.080 14.000 C 16.571 14.000,16.160 13.989,16.160 13.950 C 16.160 13.922,16.322 13.040,16.520 11.988 C 16.718 10.937,16.880 10.059,16.880 10.038 C 16.880 10.014,17.662 10.000,18.940 10.000 L 21.000 10.000 21.000 9.000 L 21.000 8.000 19.140 8.000 C 18.117 8.000,17.280 7.988,17.280 7.972 C 17.280 7.957,17.433 7.130,17.620 6.134 C 17.807 5.138,17.960 4.291,17.960 4.252 C 17.960 4.189,17.832 4.156,17.001 4.003 C 16.473 3.905,16.033 3.833,16.024 3.843 C 16.008 3.858,15.240 7.907,15.240 7.973 C 15.240 7.988,14.124 8.000,12.760 8.000 C 11.396 8.000,10.280 7.985,10.280 7.966 C 10.280 7.948,10.433 7.117,10.620 6.120 C 10.807 5.123,10.960 4.279,10.960 4.244 C 10.960 4.192,10.783 4.147,10.030 4.009 C 9.065 3.831,9.000 3.822,9.000 3.867 M14.841 10.030 C 14.842 10.046,14.676 10.947,14.473 12.030 L 14.105 14.000 11.632 14.000 C 9.681 14.000,9.160 13.989,9.160 13.950 C 9.160 13.922,9.322 13.040,9.520 11.988 C 9.718 10.937,9.880 10.059,9.880 10.038 C 9.880 9.993,14.839 9.985,14.841 10.030 " stroke="none" fill-rule="evenodd" fill="black"></path></svg>