<svg viewBox="0 0 24 24" xmlns="http://www.w3.org/2000/svg"><path d="M7.420 3.068 C 6.559 3.146,5.554 3.498,4.810 3.983 C 3.410 4.894,2.481 6.246,2.132 7.880 C 2.030 8.363,2.030 9.637,2.132 10.120 C 2.307 10.940,2.674 11.782,3.147 12.452 C 3.316 12.693,4.445 13.852,7.379 16.800 C 9.609 19.040,11.451 20.860,11.541 20.911 C 11.782 21.046,12.054 21.065,12.320 20.965 C 12.525 20.887,12.819 20.602,16.582 16.831 C 19.574 13.831,20.683 12.695,20.854 12.452 C 21.327 11.781,21.693 10.939,21.868 10.120 C 21.971 9.637,21.970 8.362,21.867 7.880 C 21.405 5.717,19.860 3.988,17.799 3.328 C 17.134 3.115,16.777 3.063,15.980 3.064 C 15.205 3.065,14.764 3.131,14.120 3.344 C 13.503 3.548,12.665 4.016,12.234 4.396 C 12.131 4.486,12.028 4.560,12.005 4.560 C 11.981 4.560,11.822 4.447,11.651 4.309 C 10.506 3.386,8.948 2.929,7.420 3.068 M8.956 5.158 C 9.351 5.256,9.848 5.481,10.204 5.723 C 10.344 5.818,10.685 6.114,10.961 6.381 C 11.491 6.893,11.671 7.000,12.000 7.000 C 12.328 7.000,12.513 6.891,13.019 6.400 C 13.284 6.144,13.608 5.862,13.740 5.773 C 15.373 4.672,17.579 4.907,18.893 6.323 C 20.198 7.729,20.311 9.846,19.162 11.360 C 19.054 11.503,17.398 13.186,15.482 15.100 L 12.000 18.580 8.518 15.100 C 6.602 13.186,4.945 11.503,4.836 11.360 C 4.567 11.009,4.260 10.375,4.160 9.960 C 3.619 7.726,5.050 5.532,7.333 5.097 C 7.730 5.021,8.521 5.051,8.956 5.158 " stroke="none" fill-rule="evenodd" fill="black"></path></svg>