<svg viewBox="0 0 24 24" xmlns="http://www.w3.org/2000/svg"><path d="M2.000 13.000 L 2.000 20.000 3.000 20.000 L 4.000 20.000 4.000 18.500 L 4.000 17.000 12.000 17.000 L 20.000 17.000 20.000 18.500 L 20.000 20.000 21.000 20.000 L 22.000 20.000 22.000 15.710 C 22.000 10.999,22.001 11.034,21.757 10.305 C 21.270 8.850,20.125 7.709,18.686 7.243 C 17.991 7.018,18.027 7.020,14.759 7.020 L 11.738 7.020 11.539 7.122 C 11.316 7.237,11.104 7.488,11.042 7.711 C 11.015 7.808,11.000 9.094,11.000 11.430 L 11.000 15.000 7.500 15.000 L 4.000 15.000 4.000 10.500 L 4.000 6.000 3.000 6.000 L 2.000 6.000 2.000 13.000 M6.960 9.062 C 6.542 9.151,6.069 9.414,5.741 9.739 C 4.759 10.714,4.759 12.277,5.742 13.264 C 6.710 14.237,8.288 14.236,9.262 13.262 C 10.237 12.287,10.237 10.703,9.262 9.740 C 8.649 9.135,7.795 8.884,6.960 9.062 M17.752 9.061 C 17.935 9.097,18.214 9.197,18.440 9.307 C 18.758 9.461,18.876 9.548,19.164 9.836 C 19.452 10.124,19.539 10.242,19.693 10.560 C 19.986 11.163,20.000 11.287,20.000 13.278 L 20.000 15.000 16.500 15.000 L 13.000 15.000 13.000 12.000 L 13.000 9.000 15.222 9.000 C 17.053 9.000,17.497 9.011,17.752 9.061 " stroke="none" fill-rule="evenodd" fill="black"></path></svg>