<svg viewBox="0 0 24 24" xmlns="http://www.w3.org/2000/svg"><path d="M3.536 4.059 C 3.003 4.175,2.413 4.614,2.204 5.050 C 1.992 5.492,2.001 5.181,2.001 12.000 C 2.001 18.818,1.992 18.507,2.204 18.950 C 2.328 19.209,2.766 19.636,3.047 19.770 C 3.551 20.012,3.020 19.999,12.000 19.999 C 20.980 19.999,20.449 20.012,20.953 19.770 C 21.234 19.636,21.672 19.209,21.796 18.950 C 22.008 18.507,21.999 18.818,21.999 12.000 C 21.999 5.181,22.008 5.492,21.796 5.050 C 21.668 4.784,21.269 4.396,20.964 4.242 C 20.460 3.988,20.972 4.001,11.980 4.004 C 5.329 4.006,3.734 4.016,3.536 4.059 M20.000 12.000 L 20.000 18.000 12.000 18.000 L 4.000 18.000 4.000 12.000 L 4.000 6.000 12.000 6.000 L 20.000 6.000 20.000 12.000 M9.300 8.042 C 8.536 8.198,7.976 8.725,7.783 9.469 C 7.659 9.947,7.723 10.532,7.948 10.976 C 8.084 11.245,8.488 11.640,8.760 11.772 C 9.451 12.105,10.252 12.062,10.860 11.658 C 11.860 10.994,12.009 9.468,11.159 8.597 C 10.707 8.133,9.953 7.908,9.300 8.042 M14.000 10.000 L 14.000 11.000 16.000 11.000 L 18.000 11.000 18.000 10.000 L 18.000 9.000 16.000 9.000 L 14.000 9.000 14.000 10.000 M8.940 12.822 C 8.364 12.929,7.737 13.183,7.280 13.493 C 6.998 13.684,6.537 14.148,6.361 14.418 C 6.120 14.788,6.034 15.070,6.010 15.570 L 5.990 16.000 9.715 16.000 L 13.440 16.000 13.440 15.702 C 13.440 15.296,13.381 15.038,13.200 14.660 C 12.826 13.876,11.873 13.171,10.819 12.896 C 10.310 12.764,9.437 12.729,8.940 12.822 M15.000 14.000 L 15.000 15.000 16.500 15.000 L 18.000 15.000 18.000 14.000 L 18.000 13.000 16.500 13.000 L 15.000 13.000 15.000 14.000 " stroke="none" fill-rule="evenodd" fill="black"></path></svg>