<svg viewBox="0 0 24 24" xmlns="http://www.w3.org/2000/svg"><path d="M3.580 3.047 C 2.858 3.186,2.199 3.848,2.044 4.592 C 1.982 4.891,1.982 17.109,2.044 17.408 C 2.201 18.158,2.842 18.799,3.592 18.956 C 3.739 18.986,5.065 19.000,7.902 19.000 L 12.000 19.000 12.000 18.000 L 12.000 17.000 8.000 17.000 L 4.000 17.000 4.000 11.000 L 4.000 5.000 10.500 5.000 L 17.000 5.000 17.000 8.500 L 17.000 12.000 18.000 12.000 L 19.000 12.000 19.000 8.402 C 19.000 5.930,18.986 4.738,18.956 4.592 C 18.817 3.927,18.322 3.365,17.647 3.107 L 17.420 3.020 10.600 3.014 C 6.382 3.011,3.704 3.023,3.580 3.047 M10.500 11.000 C 9.692 12.078,9.019 12.960,9.005 12.960 C 8.990 12.960,8.763 12.528,8.500 12.000 C 8.237 11.472,8.010 11.040,7.996 11.040 C 7.982 11.040,7.302 11.931,6.485 13.020 L 5.000 15.000 10.500 15.000 L 16.000 15.000 14.013 12.020 C 12.921 10.381,12.014 9.040,11.998 9.040 C 11.982 9.040,11.308 9.922,10.500 11.000 M17.000 15.500 L 17.000 17.000 15.500 17.000 L 14.000 17.000 14.000 18.000 L 14.000 19.000 15.500 19.000 L 17.000 19.000 17.000 20.500 L 17.000 22.000 18.000 22.000 L 19.000 22.000 19.000 20.500 L 19.000 19.000 20.500 19.000 L 22.000 19.000 22.000 18.000 L 22.000 17.000 20.500 17.000 L 19.000 17.000 19.000 15.500 L 19.000 14.000 18.000 14.000 L 17.000 14.000 17.000 15.500 " stroke="none" fill-rule="evenodd" fill="black"></path></svg>