<svg viewBox="0 0 24 24" xmlns="http://www.w3.org/2000/svg"><path d="M6.345 4.045 C 4.434 4.291,2.805 5.662,2.223 7.515 C 1.994 8.246,1.997 8.168,2.009 12.824 L 2.020 17.100 2.132 17.457 C 2.339 18.119,2.593 18.543,3.052 18.996 C 3.478 19.415,3.928 19.677,4.548 19.867 C 4.857 19.961,4.968 19.975,5.460 19.976 C 5.971 19.977,6.048 19.968,6.337 19.867 C 7.083 19.606,7.614 19.172,8.599 18.020 C 9.385 17.101,9.669 16.812,9.983 16.617 C 10.320 16.407,10.880 16.157,11.175 16.084 C 11.429 16.022,12.573 16.022,12.825 16.085 C 13.277 16.197,14.038 16.580,14.347 16.852 C 14.426 16.921,14.798 17.329,15.173 17.759 C 16.292 19.041,16.733 19.439,17.365 19.739 C 17.791 19.941,18.167 20.012,18.680 19.987 C 19.560 19.945,20.376 19.579,20.991 18.953 C 21.406 18.531,21.676 18.069,21.870 17.452 L 21.980 17.100 21.992 12.820 C 22.002 9.095,21.995 8.492,21.941 8.172 C 21.572 5.988,19.809 4.310,17.601 4.041 C 17.181 3.990,6.746 3.994,6.345 4.045 M17.780 6.094 C 18.814 6.400,19.565 7.137,19.886 8.161 L 19.980 8.460 19.980 12.660 L 19.980 16.860 19.868 17.100 C 19.642 17.584,19.146 17.943,18.640 17.989 C 18.450 18.007,18.372 17.993,18.195 17.911 C 17.891 17.770,17.685 17.573,16.865 16.641 C 16.468 16.189,16.016 15.694,15.861 15.539 C 15.209 14.888,13.920 14.228,13.000 14.074 C 12.613 14.009,11.387 14.009,11.000 14.074 C 10.363 14.180,9.507 14.542,8.798 15.005 C 8.359 15.292,8.009 15.636,7.196 16.581 C 6.535 17.348,6.093 17.785,5.859 17.901 C 5.613 18.023,5.207 18.008,4.896 17.866 C 4.587 17.725,4.279 17.416,4.132 17.100 L 4.020 16.860 4.020 12.680 C 4.020 8.090,4.008 8.347,4.258 7.780 C 4.626 6.949,5.471 6.257,6.330 6.083 C 6.445 6.060,6.576 6.033,6.620 6.025 C 6.664 6.016,9.139 6.012,12.120 6.015 C 17.187 6.022,17.556 6.027,17.780 6.094 M15.664 7.063 C 15.436 7.146,15.257 7.297,15.131 7.511 C 15.036 7.672,15.020 7.744,15.020 8.000 C 15.020 8.256,15.036 8.328,15.131 8.489 C 15.470 9.065,16.234 9.168,16.701 8.701 C 16.881 8.521,17.000 8.242,17.000 8.000 C 17.000 7.326,16.295 6.832,15.664 7.063 M7.580 8.047 C 6.859 8.185,6.199 8.848,6.044 9.592 C 5.905 10.257,6.105 10.912,6.596 11.404 C 7.393 12.200,8.607 12.200,9.404 11.404 C 10.200 10.607,10.200 9.393,9.404 8.596 C 8.913 8.106,8.277 7.914,7.580 8.047 M13.664 9.063 C 13.436 9.146,13.257 9.297,13.131 9.511 C 13.036 9.672,13.020 9.744,13.020 10.000 C 13.020 10.256,13.036 10.328,13.131 10.489 C 13.470 11.065,14.234 11.168,14.701 10.701 C 14.881 10.521,15.000 10.242,15.000 10.000 C 15.000 9.326,14.295 8.832,13.664 9.063 M17.664 9.063 C 17.436 9.146,17.257 9.297,17.131 9.511 C 17.036 9.672,17.020 9.744,17.020 10.000 C 17.020 10.256,17.036 10.328,17.131 10.489 C 17.470 11.065,18.234 11.168,18.701 10.701 C 18.881 10.521,19.000 10.242,19.000 10.000 C 19.000 9.326,18.295 8.832,17.664 9.063 M15.664 11.063 C 15.436 11.146,15.257 11.297,15.131 11.511 C 15.036 11.672,15.020 11.744,15.020 12.000 C 15.020 12.256,15.036 12.328,15.131 12.489 C 15.470 13.065,16.234 13.168,16.701 12.701 C 16.881 12.521,17.000 12.242,17.000 12.000 C 17.000 11.326,16.295 10.832,15.664 11.063 " stroke="none" fill-rule="evenodd" fill="black"></path></svg>