<svg viewBox="0 0 24 24" xmlns="http://www.w3.org/2000/svg"><path d="M8.580 2.046 C 7.857 2.187,7.199 2.849,7.044 3.592 C 7.016 3.726,7.000 4.390,7.000 5.402 L 7.000 7.000 5.427 7.000 C 4.471 7.000,3.762 7.017,3.617 7.043 C 2.862 7.181,2.203 7.830,2.044 8.592 C 1.983 8.887,1.983 15.113,2.044 15.408 C 2.201 16.158,2.842 16.799,3.592 16.956 C 3.726 16.984,4.390 17.000,5.402 17.000 L 7.000 17.000 7.000 18.598 C 7.000 19.610,7.016 20.274,7.044 20.408 C 7.201 21.158,7.842 21.799,8.592 21.956 C 8.887 22.017,15.113 22.017,15.408 21.956 C 16.158 21.799,16.799 21.158,16.956 20.408 C 16.984 20.274,17.000 19.610,17.000 18.598 L 17.000 17.000 18.598 17.000 C 19.610 17.000,20.274 16.984,20.408 16.956 C 21.158 16.799,21.799 16.158,21.956 15.408 C 22.017 15.113,22.017 8.887,21.956 8.592 C 21.817 7.926,21.318 7.361,20.647 7.108 C 20.431 7.027,20.340 7.022,18.710 7.009 L 17.000 6.995 17.000 5.400 C 17.000 4.389,16.984 3.726,16.956 3.592 C 16.817 2.927,16.321 2.364,15.647 2.107 C 15.421 2.021,15.399 2.020,12.100 2.014 C 10.095 2.010,8.701 2.023,8.580 2.046 M15.000 6.500 L 15.000 9.000 17.500 9.000 L 20.000 9.000 20.000 12.000 L 20.000 15.000 17.500 15.000 L 15.000 15.000 15.000 17.500 L 15.000 20.000 12.000 20.000 L 9.000 20.000 9.000 17.500 L 9.000 15.000 6.500 15.000 L 4.000 15.000 4.000 12.000 L 4.000 9.000 6.500 9.000 L 9.000 9.000 9.000 6.500 L 9.000 4.000 12.000 4.000 L 15.000 4.000 15.000 6.500 M10.986 6.520 L 10.000 8.000 12.000 8.000 L 14.000 8.000 13.014 6.520 C 12.471 5.706,12.015 5.040,12.000 5.040 C 11.985 5.040,11.529 5.706,10.986 6.520 M6.520 10.983 C 5.717 11.520,5.055 11.975,5.049 11.993 C 5.043 12.011,5.705 12.470,6.519 13.013 L 8.000 14.000 8.000 12.000 C 8.000 10.900,7.995 10.001,7.990 10.003 C 7.985 10.004,7.323 10.445,6.520 10.983 M11.580 10.047 C 10.707 10.214,10.000 11.087,10.000 12.000 C 10.000 12.920,10.690 13.768,11.592 13.956 C 12.816 14.211,14.000 13.249,14.000 12.000 C 14.000 11.477,13.790 10.983,13.404 10.596 C 12.913 10.106,12.277 9.914,11.580 10.047 M16.000 12.000 L 16.000 14.000 17.480 13.014 C 18.294 12.471,18.960 12.015,18.960 12.000 C 18.960 11.985,18.294 11.529,17.480 10.986 L 16.000 10.000 16.000 12.000 M10.986 17.480 C 11.529 18.294,11.985 18.960,12.000 18.960 C 12.015 18.960,12.471 18.294,13.014 17.480 L 14.000 16.000 12.000 16.000 L 10.000 16.000 10.986 17.480 " stroke="none" fill-rule="evenodd" fill="black"></path></svg>