<svg viewBox="0 0 24 24" xmlns="http://www.w3.org/2000/svg"><path d="M12.080 3.047 C 11.075 3.141,9.926 3.479,8.980 3.958 C 8.144 4.381,7.605 4.751,6.896 5.389 L 6.620 5.638 7.326 6.344 L 8.031 7.051 8.384 6.743 C 10.277 5.087,12.896 4.571,15.277 5.385 C 17.028 5.983,18.478 7.270,19.285 8.940 C 20.229 10.896,20.233 13.084,19.296 15.040 C 17.628 18.520,13.442 19.977,9.934 18.298 C 9.461 18.071,8.831 17.649,8.385 17.259 L 8.031 16.949 7.326 17.656 L 6.620 18.363 6.860 18.581 C 7.555 19.212,8.196 19.654,9.003 20.056 C 12.126 21.612,15.836 21.220,18.604 19.040 C 19.027 18.707,19.707 18.027,20.040 17.604 C 20.890 16.525,21.517 15.206,21.797 13.908 C 22.670 9.858,20.671 5.746,16.940 3.917 C 15.449 3.186,13.778 2.887,12.080 3.047 M11.000 9.500 L 11.000 11.000 6.500 11.000 L 2.000 11.000 2.000 12.000 L 2.000 13.000 6.500 13.000 L 11.000 13.000 11.000 14.500 L 11.000 16.000 13.480 14.016 C 14.844 12.925,15.960 12.018,15.960 12.000 C 15.960 11.982,14.844 11.075,13.480 9.984 L 11.000 8.000 11.000 9.500 " stroke="none" fill-rule="evenodd" fill="black"></path></svg>