<svg viewBox="0 0 24 24" xmlns="http://www.w3.org/2000/svg"><path d="M2.970 3.010 L 2.280 3.700 3.942 5.362 L 5.604 7.025 5.352 7.221 C 4.955 7.530,4.144 8.339,3.748 8.820 C 3.053 9.664,2.304 10.935,2.033 11.730 L 1.940 12.000 2.033 12.270 C 2.189 12.727,2.657 13.633,3.030 14.200 C 4.575 16.549,6.708 18.074,9.323 18.699 C 10.678 19.024,12.481 19.086,13.860 18.857 C 14.717 18.715,15.456 18.510,16.178 18.215 L 16.615 18.035 18.448 19.868 L 20.280 21.700 20.990 20.990 L 21.700 20.280 20.049 18.629 L 18.399 16.979 18.762 16.681 C 19.580 16.010,20.515 14.937,21.100 14.000 C 21.409 13.505,21.835 12.657,21.960 12.289 L 22.059 11.998 21.967 11.729 C 21.705 10.963,20.964 9.693,20.291 8.857 C 18.562 6.712,16.149 5.398,13.340 5.073 C 12.765 5.006,11.177 5.006,10.640 5.073 C 9.618 5.200,8.660 5.443,7.822 5.785 L 7.385 5.965 5.562 4.142 C 4.560 3.140,3.722 2.320,3.700 2.320 C 3.678 2.320,3.349 2.630,2.970 3.010 M12.880 7.042 C 14.930 7.228,16.567 7.938,17.992 9.260 C 18.605 9.829,19.332 10.807,19.740 11.614 L 19.930 11.989 19.720 12.404 C 19.123 13.587,18.243 14.617,17.118 15.452 L 16.976 15.557 16.206 14.786 L 15.436 14.015 15.600 13.674 C 16.028 12.782,16.110 11.824,15.834 10.930 C 15.792 10.793,15.743 10.680,15.725 10.680 C 15.708 10.680,15.653 10.724,15.602 10.778 C 15.551 10.832,15.428 10.904,15.328 10.938 C 14.343 11.274,13.565 10.064,14.290 9.323 C 14.359 9.252,14.477 9.162,14.552 9.124 L 14.689 9.054 14.380 8.822 C 13.970 8.512,13.454 8.260,12.974 8.133 C 12.644 8.046,12.488 8.029,12.020 8.026 C 11.343 8.022,10.944 8.108,10.364 8.382 L 9.984 8.563 9.452 8.032 L 8.920 7.501 9.070 7.448 C 9.528 7.287,10.543 7.089,11.220 7.028 C 11.580 6.995,12.449 7.003,12.880 7.042 M11.054 12.474 L 15.088 16.509 14.621 16.638 C 14.364 16.709,13.971 16.801,13.747 16.841 L 13.340 16.916 9.588 13.168 L 5.836 9.420 6.048 9.225 C 6.165 9.118,6.431 8.898,6.640 8.736 C 6.849 8.573,7.020 8.440,7.020 8.440 C 7.020 8.440,8.836 10.255,11.054 12.474 M7.539 13.959 C 10.850 17.270,10.607 16.948,9.600 16.694 C 7.533 16.173,5.789 14.886,4.620 13.020 C 4.496 12.822,4.323 12.515,4.235 12.339 C 4.093 12.053,4.080 12.004,4.120 11.899 C 4.181 11.736,4.567 11.040,4.596 11.040 C 4.609 11.040,5.934 12.354,7.539 13.959 " stroke="none" fill-rule="evenodd" fill="black"></path></svg>