<svg viewBox="0 0 24 24" xmlns="http://www.w3.org/2000/svg"><path d="M4.000 8.000 L 4.000 9.000 9.500 9.000 L 15.000 9.000 15.000 8.000 L 15.000 7.000 9.500 7.000 L 4.000 7.000 4.000 8.000 M4.000 12.000 L 4.000 13.000 9.500 13.000 L 15.000 13.000 15.000 12.000 L 15.000 11.000 9.500 11.000 L 4.000 11.000 4.000 12.000 M17.000 13.500 L 17.000 15.000 15.500 15.000 L 14.000 15.000 14.000 16.000 L 14.000 17.000 15.500 17.000 L 17.000 17.000 17.000 18.500 L 17.000 20.000 18.000 20.000 L 19.000 20.000 19.000 18.500 L 19.000 17.000 20.500 17.000 L 22.000 17.000 22.000 16.000 L 22.000 15.000 20.500 15.000 L 19.000 15.000 19.000 13.500 L 19.000 12.000 18.000 12.000 L 17.000 12.000 17.000 13.500 M4.000 16.000 L 4.000 17.000 8.000 17.000 L 12.000 17.000 12.000 16.000 L 12.000 15.000 8.000 15.000 L 4.000 15.000 4.000 16.000 " stroke="none" fill-rule="evenodd" fill="black"></path></svg>