<svg viewBox="0 0 24 24" xmlns="http://www.w3.org/2000/svg"><path d="M11.120 2.043 C 6.734 2.463,3.048 5.811,2.184 10.160 C 1.564 13.285,2.550 16.513,4.859 18.915 C 6.719 20.850,9.382 22.000,12.000 22.000 C 16.228 22.000,20.156 19.121,21.495 15.040 C 21.800 14.109,22.000 13.001,22.000 12.236 L 22.000 12.000 21.006 12.000 L 20.011 12.000 19.984 12.410 C 19.851 14.409,19.040 16.196,17.620 17.620 C 14.463 20.786,9.545 20.786,6.380 17.620 C 5.361 16.602,4.617 15.319,4.267 13.980 C 4.075 13.245,4.026 12.840,4.026 12.000 C 4.026 11.160,4.075 10.755,4.267 10.020 C 4.986 7.269,7.269 4.986,10.020 4.267 C 10.515 4.138,11.054 4.051,11.590 4.016 L 12.000 3.989 12.000 2.994 L 12.000 2.000 11.730 2.005 C 11.582 2.008,11.307 2.026,11.120 2.043 " stroke="none" fill-rule="evenodd" fill="black"></path></svg>