<svg viewBox="0 0 24 24" xmlns="http://www.w3.org/2000/svg"><path d="M4.580 3.047 C 3.845 3.188,3.184 3.863,3.041 4.620 C 3.009 4.794,2.999 6.456,3.008 10.640 L 3.020 16.420 3.114 16.671 C 3.235 16.995,3.503 17.356,3.780 17.570 C 3.966 17.714,4.000 17.760,4.000 17.870 L 4.000 18.000 3.000 18.000 L 2.000 18.000 2.000 19.000 L 2.000 20.000 12.000 20.000 L 22.000 20.000 22.000 19.000 L 22.000 18.000 21.000 18.000 L 20.000 18.000 20.000 17.870 C 20.000 17.760,20.034 17.714,20.220 17.570 C 20.497 17.356,20.765 16.995,20.886 16.671 L 20.980 16.420 20.992 10.640 C 21.001 6.456,20.991 4.794,20.959 4.620 C 20.830 3.941,20.335 3.370,19.647 3.107 L 19.420 3.020 12.100 3.014 C 7.566 3.011,4.704 3.023,4.580 3.047 M19.000 10.500 L 19.000 16.000 12.000 16.000 L 5.000 16.000 5.000 10.500 L 5.000 5.000 12.000 5.000 L 19.000 5.000 19.000 10.500 " stroke="none" fill-rule="evenodd" fill="black"></path></svg>