<svg viewBox="0 0 24 24" xmlns="http://www.w3.org/2000/svg"><path d="M11.040 2.041 C 9.011 2.252,7.089 3.066,5.537 4.374 C 2.451 6.973,1.233 11.261,2.494 15.088 C 4.044 19.793,8.766 22.660,13.640 21.856 C 16.961 21.308,19.838 19.055,21.179 15.952 C 21.681 14.790,21.940 13.625,21.986 12.320 C 22.165 7.257,18.496 2.870,13.440 2.100 C 12.945 2.025,11.530 1.990,11.040 2.041 M12.806 4.042 C 14.371 4.200,15.895 4.841,17.100 5.846 C 21.243 9.304,20.873 15.713,16.360 18.692 C 15.323 19.376,14.060 19.819,12.752 19.959 C 11.033 20.142,9.117 19.667,7.640 18.692 C 3.321 15.840,2.753 9.822,6.466 6.238 C 8.158 4.605,10.467 3.805,12.806 4.042 M10.000 10.020 L 8.020 12.000 10.010 13.990 L 12.000 15.980 12.000 14.490 L 12.000 13.000 14.000 13.000 L 16.000 13.000 16.000 12.000 L 16.000 11.000 14.000 11.000 L 12.001 11.000 11.990 9.520 L 11.980 8.040 10.000 10.020 " stroke="none" fill-rule="evenodd" fill="black"></path></svg>