<svg viewBox="0 0 24 24" xmlns="http://www.w3.org/2000/svg"><path d="M4.000 12.000 L 4.000 21.000 5.000 21.000 L 6.000 21.000 6.000 12.000 L 6.000 3.000 5.000 3.000 L 4.000 3.000 4.000 12.000 M7.000 12.000 L 7.000 21.000 8.000 21.000 L 9.000 21.000 9.000 12.000 L 9.000 3.000 8.000 3.000 L 7.000 3.000 7.000 12.000 M10.000 12.000 L 10.000 21.000 11.000 21.000 L 12.000 21.000 12.000 12.000 L 12.000 3.000 11.000 3.000 L 10.000 3.000 10.000 12.000 M13.780 3.553 C 13.274 3.740,12.856 3.895,12.850 3.899 C 12.843 3.905,18.612 19.596,18.987 20.590 C 19.022 20.683,19.071 20.760,19.095 20.761 C 19.174 20.763,20.920 20.110,20.920 20.078 C 20.920 20.043,14.834 3.518,14.754 3.337 L 14.700 3.214 13.780 3.553 " stroke="none" fill-rule="evenodd" fill="black"></path></svg>