<svg viewBox="0 0 24 24" xmlns="http://www.w3.org/2000/svg"><path d="M11.580 2.047 C 10.859 2.185,10.199 2.848,10.044 3.592 C 9.789 4.816,10.751 6.000,12.000 6.000 C 13.080 6.000,14.000 5.080,14.000 4.000 C 14.000 3.477,13.790 2.983,13.404 2.596 C 12.913 2.106,12.277 1.914,11.580 2.047 M5.804 4.423 C 4.592 4.749,4.001 6.136,4.583 7.287 C 4.848 7.810,5.463 8.234,6.087 8.324 C 6.645 8.405,7.237 8.219,7.662 7.831 C 8.051 7.475,8.242 7.122,8.322 6.606 C 8.469 5.656,7.808 4.669,6.859 4.421 C 6.567 4.345,6.090 4.346,5.804 4.423 M17.039 4.451 C 16.122 4.764,15.536 5.691,15.678 6.606 C 15.751 7.075,15.897 7.375,16.216 7.714 C 16.992 8.536,18.256 8.552,19.058 7.749 C 19.456 7.351,19.643 6.902,19.643 6.340 C 19.645 5.434,19.044 4.647,18.179 4.421 C 17.831 4.331,17.355 4.343,17.039 4.451 M3.580 10.047 C 3.236 10.113,2.883 10.310,2.596 10.596 C 1.800 11.393,1.800 12.607,2.596 13.404 C 3.393 14.200,4.607 14.200,5.404 13.404 C 6.200 12.607,6.200 11.393,5.404 10.596 C 4.913 10.106,4.277 9.914,3.580 10.047 M19.580 10.047 C 18.707 10.214,18.000 11.087,18.000 12.000 C 18.000 12.920,18.690 13.768,19.592 13.956 C 20.816 14.211,22.000 13.249,22.000 12.000 C 22.000 11.477,21.790 10.983,21.404 10.596 C 20.913 10.106,20.277 9.914,19.580 10.047 M5.830 15.721 C 5.545 15.792,5.184 16.008,4.937 16.256 C 4.544 16.648,4.357 17.100,4.357 17.660 C 4.355 18.769,5.231 19.645,6.340 19.643 C 6.902 19.643,7.351 19.456,7.749 19.058 C 8.740 18.068,8.449 16.458,7.169 15.848 C 6.877 15.709,6.836 15.700,6.420 15.692 C 6.178 15.688,5.913 15.701,5.830 15.721 M17.150 15.723 C 16.903 15.782,16.523 15.994,16.310 16.193 C 15.633 16.826,15.471 17.711,15.880 18.545 C 16.216 19.233,16.900 19.652,17.675 19.646 C 19.166 19.635,20.103 18.065,19.420 16.720 C 19.205 16.297,18.731 15.908,18.249 15.759 C 17.974 15.674,17.433 15.657,17.150 15.723 M11.580 18.047 C 10.859 18.185,10.199 18.848,10.044 19.592 C 9.789 20.816,10.751 22.000,12.000 22.000 C 13.080 22.000,14.000 21.080,14.000 20.000 C 14.000 19.477,13.790 18.983,13.404 18.596 C 12.913 18.106,12.277 17.914,11.580 18.047 " stroke="none" fill="black" fill-rule="evenodd"></path></svg>