<svg viewBox="0 0 24 24" xmlns="http://www.w3.org/2000/svg"><path d="M3.010 11.650 L 3.020 20.300 3.131 20.489 C 3.192 20.592,3.301 20.723,3.374 20.778 C 3.685 21.015,3.066 21.000,12.425 21.000 L 21.000 21.000 21.000 20.000 L 21.000 19.000 13.000 19.000 L 5.000 19.000 5.000 11.000 L 5.000 3.000 4.000 3.000 L 2.999 3.000 3.010 11.650 M18.131 10.449 L 16.001 12.578 14.771 11.354 C 13.639 10.229,13.523 10.125,13.326 10.060 C 13.065 9.976,12.801 9.994,12.556 10.113 C 12.431 10.174,11.651 10.928,9.840 12.739 L 7.300 15.280 8.010 15.990 L 8.720 16.700 10.859 14.561 L 12.999 12.422 14.229 13.645 C 15.315 14.724,15.483 14.877,15.657 14.934 C 15.906 15.017,16.093 15.017,16.343 14.935 C 16.522 14.876,16.778 14.632,19.130 12.285 L 21.720 9.701 21.031 9.011 C 20.651 8.631,20.323 8.320,20.300 8.320 C 20.278 8.320,19.302 9.278,18.131 10.449 " stroke="none" fill-rule="evenodd" fill="black"></path></svg>