<svg viewBox="0 0 24 24" xmlns="http://www.w3.org/2000/svg"><path d="M11.340 2.046 C 10.342 2.173,9.304 2.674,8.553 3.392 C 7.850 4.063,7.389 4.860,7.133 5.848 L 7.026 6.260 7.010 8.130 L 6.994 10.000 6.425 10.000 C 6.111 10.000,5.748 10.020,5.617 10.043 C 4.862 10.181,4.203 10.830,4.044 11.592 C 3.982 11.889,3.982 20.111,4.044 20.408 C 4.201 21.158,4.842 21.799,5.592 21.956 C 5.891 22.018,18.109 22.018,18.408 21.956 C 19.158 21.799,19.799 21.158,19.956 20.408 C 20.018 20.111,20.018 11.889,19.956 11.592 C 19.817 10.927,19.322 10.365,18.647 10.107 L 18.420 10.020 13.707 10.009 L 8.995 9.998 9.010 8.229 C 9.028 6.237,9.020 6.297,9.345 5.640 C 9.503 5.321,9.592 5.201,9.897 4.897 C 10.201 4.592,10.321 4.503,10.640 4.345 C 11.103 4.116,11.351 4.047,11.820 4.015 C 12.348 3.979,12.791 4.071,13.318 4.327 C 13.685 4.505,13.782 4.575,14.104 4.896 C 14.425 5.218,14.495 5.315,14.673 5.682 C 14.934 6.220,15.000 6.564,15.000 7.384 L 15.000 8.000 16.005 8.000 L 17.010 8.000 16.989 7.130 C 16.966 6.158,16.895 5.760,16.624 5.107 C 15.757 3.012,13.593 1.759,11.340 2.046 M18.000 16.000 L 18.000 20.000 12.000 20.000 L 6.000 20.000 6.000 16.000 L 6.000 12.000 12.000 12.000 L 18.000 12.000 18.000 16.000 " stroke="none" fill-rule="evenodd" fill="black"></path></svg>