<svg viewBox="0 0 24 24" xmlns="http://www.w3.org/2000/svg"><path d="M4.580 3.047 C 3.859 3.185,3.199 3.848,3.044 4.592 C 2.982 4.892,2.982 19.108,3.044 19.408 C 3.201 20.158,3.842 20.799,4.592 20.956 C 4.892 21.018,19.108 21.018,19.408 20.956 C 20.158 20.799,20.799 20.158,20.956 19.408 C 20.985 19.266,21.000 18.337,21.000 16.588 L 21.000 13.979 20.000 12.980 L 19.000 11.981 19.000 15.490 L 19.000 19.000 12.000 19.000 L 5.000 19.000 5.000 12.000 L 5.000 5.000 8.510 5.000 L 12.019 5.000 11.020 4.000 L 10.021 3.000 7.400 3.004 C 5.930 3.007,4.692 3.026,4.580 3.047 M14.660 4.640 L 16.300 6.280 12.800 9.780 L 9.300 13.280 10.010 13.990 L 10.720 14.700 14.220 11.200 L 17.720 7.700 19.360 9.340 L 21.000 10.980 21.000 6.990 L 21.000 3.000 17.010 3.000 L 13.020 3.000 14.660 4.640 " stroke="none" fill-rule="evenodd" fill="black"></path></svg>