<svg viewBox="0 0 24 24" xmlns="http://www.w3.org/2000/svg"><path d="M11.340 2.046 C 10.342 2.173,9.304 2.674,8.553 3.392 C 7.849 4.064,7.387 4.864,7.134 5.848 C 7.031 6.246,7.027 6.307,7.010 7.630 L 6.993 9.000 6.424 9.000 C 6.111 9.000,5.748 9.020,5.617 9.043 C 4.862 9.181,4.203 9.830,4.044 10.592 C 3.982 10.890,3.982 20.110,4.044 20.408 C 4.201 21.158,4.842 21.799,5.592 21.956 C 5.891 22.018,18.109 22.018,18.408 21.956 C 19.158 21.799,19.799 21.158,19.956 20.408 C 20.018 20.110,20.018 10.890,19.956 10.592 C 19.817 9.927,19.322 9.365,18.647 9.107 L 18.420 9.020 13.707 9.009 L 8.993 8.998 9.011 7.729 C 9.030 6.296,9.035 6.267,9.345 5.640 C 9.503 5.321,9.592 5.201,9.897 4.897 C 10.201 4.592,10.321 4.503,10.640 4.345 C 11.103 4.116,11.351 4.047,11.820 4.015 C 12.348 3.979,12.791 4.071,13.318 4.327 C 13.685 4.505,13.782 4.575,14.104 4.896 C 14.425 5.218,14.495 5.315,14.673 5.682 C 14.868 6.083,15.000 6.570,15.000 6.884 L 15.000 7.000 16.006 7.000 L 17.012 7.000 16.986 6.630 C 16.787 3.796,14.185 1.683,11.340 2.046 M18.000 15.500 L 18.000 20.000 15.500 20.000 L 13.000 20.000 13.000 18.870 L 13.000 17.740 13.220 17.570 C 14.129 16.868,14.254 15.527,13.490 14.678 C 12.716 13.816,11.413 13.780,10.596 14.596 C 9.742 15.451,9.827 16.834,10.780 17.570 L 11.000 17.740 11.000 18.870 L 11.000 20.000 8.500 20.000 L 6.000 20.000 6.000 15.500 L 6.000 11.000 12.000 11.000 L 18.000 11.000 18.000 15.500 " stroke="none" fill-rule="evenodd" fill="black"></path></svg>