<svg viewBox="0 0 24 24" xmlns="http://www.w3.org/2000/svg"><path d="M3.580 5.047 C 2.858 5.185,2.199 5.848,2.044 6.592 C 1.982 6.890,1.982 17.110,2.044 17.408 C 2.201 18.158,2.842 18.799,3.592 18.956 C 3.892 19.018,20.108 19.018,20.408 18.956 C 21.158 18.799,21.799 18.158,21.956 17.408 C 22.018 17.110,22.018 6.890,21.956 6.592 C 21.817 5.927,21.322 5.365,20.647 5.107 L 20.420 5.020 12.100 5.014 C 6.933 5.011,3.704 5.023,3.580 5.047 M19.000 12.000 L 19.000 17.000 13.000 17.000 L 7.000 17.000 7.000 12.000 L 7.000 7.000 13.000 7.000 L 19.000 7.000 19.000 12.000 " stroke="none" fill-rule="evenodd" fill="black"></path></svg>