<svg viewBox="0 0 24 24" xmlns="http://www.w3.org/2000/svg"><path d="M9.438 2.513 C 8.718 2.751,8.171 3.347,8.041 4.036 C 8.015 4.171,8.000 5.429,8.000 7.410 L 8.000 10.569 7.903 10.506 C 7.727 10.390,7.145 10.169,6.820 10.095 C 6.352 9.987,5.540 9.996,5.062 10.114 C 4.679 10.208,4.087 10.470,3.773 10.683 C 2.885 11.286,2.298 12.170,2.081 13.235 C 1.761 14.804,2.461 16.457,3.819 17.343 C 6.189 18.887,9.351 17.553,9.918 14.769 C 9.998 14.377,10.000 14.246,10.000 9.399 C 10.000 5.442,10.010 4.435,10.050 4.450 C 10.078 4.459,12.102 5.195,14.550 6.084 L 19.000 7.700 19.000 11.135 L 19.000 14.569 18.903 14.506 C 18.727 14.390,18.145 14.169,17.820 14.095 C 17.352 13.987,16.540 13.996,16.062 14.114 C 15.679 14.208,15.087 14.470,14.773 14.683 C 13.885 15.286,13.298 16.170,13.081 17.235 C 12.761 18.804,13.461 20.457,14.819 21.343 C 17.189 22.887,20.351 21.553,20.918 18.769 C 20.998 18.376,21.000 18.249,21.000 12.912 C 21.000 7.033,21.007 7.250,20.796 6.829 C 20.645 6.529,20.399 6.248,20.127 6.064 C 19.896 5.908,19.225 5.653,15.160 4.176 L 10.460 2.468 10.060 2.453 C 9.750 2.442,9.610 2.456,9.438 2.513 M6.644 12.114 C 7.239 12.320,7.697 12.788,7.904 13.400 C 8.015 13.727,8.004 14.340,7.881 14.660 C 7.341 16.066,5.638 16.451,4.599 15.404 C 3.988 14.788,3.836 13.904,4.207 13.125 C 4.451 12.611,5.029 12.157,5.580 12.044 C 5.859 11.987,6.378 12.021,6.644 12.114 M17.644 16.114 C 18.239 16.320,18.697 16.788,18.904 17.400 C 19.015 17.727,19.004 18.340,18.881 18.660 C 18.341 20.066,16.638 20.451,15.599 19.404 C 14.988 18.788,14.836 17.904,15.207 17.125 C 15.451 16.611,16.029 16.157,16.580 16.044 C 16.859 15.987,17.378 16.021,17.644 16.114 " stroke="none" fill-rule="evenodd" fill="black"></path></svg>