<svg viewBox="0 0 24 24" xmlns="http://www.w3.org/2000/svg"><path d="M4.580 3.047 C 3.858 3.186,3.199 3.848,3.044 4.592 C 2.982 4.890,2.982 14.110,3.044 14.408 C 3.201 15.158,3.842 15.799,4.592 15.956 C 4.726 15.984,5.390 16.000,6.402 16.000 L 8.000 16.000 8.000 17.598 C 8.000 18.610,8.016 19.274,8.044 19.408 C 8.201 20.158,8.842 20.799,9.592 20.956 C 9.890 21.018,19.110 21.018,19.408 20.956 C 20.158 20.799,20.799 20.158,20.956 19.408 C 21.018 19.110,21.018 9.890,20.956 9.592 C 20.817 8.926,20.318 8.361,19.647 8.108 C 19.431 8.027,19.340 8.022,17.710 8.009 L 16.000 7.995 16.000 6.400 C 16.000 5.389,15.984 4.726,15.956 4.592 C 15.817 3.927,15.322 3.365,14.647 3.107 L 14.420 3.020 9.600 3.014 C 6.647 3.010,4.703 3.023,4.580 3.047 M19.000 14.500 L 19.000 19.000 14.500 19.000 L 10.000 19.000 10.000 14.500 L 10.000 10.000 14.500 10.000 L 19.000 10.000 19.000 14.500 " stroke="none" fill-rule="evenodd" fill="black"></path></svg>