<svg viewBox="0 0 24 24" xmlns="http://www.w3.org/2000/svg"><path d="M7.000 4.758 L 7.000 7.517 7.330 7.315 C 8.314 6.713,9.577 6.256,10.650 6.112 L 11.000 6.066 11.000 4.033 L 11.000 2.000 9.000 2.000 L 7.000 2.000 7.000 4.758 M13.000 4.033 L 13.000 6.066 13.362 6.114 C 13.819 6.175,14.687 6.396,15.125 6.563 C 15.590 6.740,16.277 7.075,16.670 7.315 L 17.000 7.517 17.000 4.758 L 17.000 2.000 15.000 2.000 L 13.000 2.000 13.000 4.033 M11.440 8.024 C 10.623 8.120,10.069 8.246,9.519 8.458 C 6.793 9.511,5.002 12.105,5.002 15.000 C 5.002 18.847,8.153 21.998,12.000 21.998 C 15.184 21.998,18.002 19.804,18.783 16.718 C 19.787 12.743,17.182 8.776,13.120 8.095 C 12.780 8.038,11.704 7.992,11.440 8.024 M12.601 10.042 C 13.369 10.136,14.154 10.432,14.824 10.881 C 15.229 11.152,15.848 11.771,16.119 12.176 C 17.447 14.159,17.244 16.705,15.621 18.431 C 14.946 19.148,14.134 19.617,13.131 19.869 C 12.498 20.028,11.502 20.028,10.869 19.869 C 9.875 19.620,9.071 19.158,8.392 18.447 C 6.972 16.961,6.603 14.725,7.476 12.896 C 7.751 12.322,8.036 11.917,8.476 11.476 C 9.575 10.377,11.078 9.855,12.601 10.042 M11.380 12.250 C 11.054 12.915,10.783 13.466,10.778 13.473 C 10.772 13.479,10.161 13.573,9.419 13.681 C 8.676 13.789,8.066 13.883,8.062 13.889 C 8.059 13.895,8.492 14.323,9.025 14.840 C 9.558 15.357,9.996 15.810,9.997 15.846 C 9.999 15.882,9.900 16.491,9.778 17.200 C 9.656 17.909,9.563 18.496,9.571 18.505 C 9.580 18.513,10.118 18.241,10.768 17.900 C 11.417 17.559,11.972 17.280,12.000 17.280 C 12.028 17.280,12.583 17.559,13.232 17.900 C 13.882 18.241,14.420 18.513,14.429 18.505 C 14.437 18.496,14.344 17.909,14.222 17.200 C 14.100 16.491,14.001 15.882,14.002 15.846 C 14.004 15.810,14.441 15.357,14.975 14.840 C 15.508 14.323,15.942 13.895,15.938 13.889 C 15.934 13.883,15.324 13.789,14.581 13.681 C 13.839 13.573,13.227 13.479,13.222 13.473 C 13.217 13.466,12.945 12.915,12.619 12.250 C 12.293 11.585,12.015 11.040,12.000 11.040 C 11.986 11.040,11.707 11.585,11.380 12.250 " stroke="none" fill-rule="evenodd" fill="black"></path></svg>