<svg viewBox="0 0 24 24" xmlns="http://www.w3.org/2000/svg"><path d="M4.580 3.046 C 3.856 3.188,3.199 3.849,3.044 4.592 C 3.014 4.739,3.000 6.132,3.000 9.152 C 3.000 12.757,3.010 13.588,3.060 14.012 C 3.334 16.357,4.493 18.468,6.347 19.998 C 7.269 20.759,8.581 21.415,9.793 21.722 C 10.598 21.925,11.050 21.978,12.000 21.978 C 13.515 21.978,14.623 21.723,15.980 21.062 C 18.305 19.929,20.087 17.728,20.722 15.204 C 20.983 14.169,20.971 14.420,20.989 9.420 C 21.001 6.096,20.993 4.795,20.959 4.620 C 20.829 3.939,20.331 3.366,19.647 3.108 C 19.430 3.027,19.341 3.022,17.660 3.009 C 16.472 3.000,15.816 3.010,15.640 3.040 C 14.953 3.160,14.368 3.658,14.108 4.346 L 14.020 4.580 14.000 9.000 L 13.980 13.420 13.884 13.660 C 13.497 14.632,12.565 15.159,11.592 14.956 C 10.834 14.798,10.180 14.133,10.043 13.383 C 10.014 13.223,10.000 11.789,10.000 8.975 C 10.000 6.084,9.986 4.739,9.956 4.592 C 9.817 3.926,9.318 3.361,8.647 3.108 C 8.429 3.026,8.351 3.022,6.600 3.015 C 5.539 3.010,4.697 3.023,4.580 3.046 M8.000 6.500 L 8.000 8.000 6.500 8.000 L 5.000 8.000 5.000 6.500 L 5.000 5.000 6.500 5.000 L 8.000 5.000 8.000 6.500 M19.000 6.500 L 19.000 8.000 17.500 8.000 L 16.000 8.000 16.000 6.500 L 16.000 5.000 17.500 5.000 L 19.000 5.000 19.000 6.500 M8.000 11.684 C 8.000 13.222,8.007 13.402,8.082 13.769 C 8.299 14.833,8.924 15.759,9.819 16.343 C 12.189 17.887,15.351 16.553,15.918 13.769 C 15.993 13.402,16.000 13.222,16.000 11.684 L 16.000 10.000 17.504 10.000 L 19.007 10.000 18.988 11.910 C 18.967 13.915,18.958 14.033,18.761 14.800 C 17.984 17.818,15.149 19.998,12.000 19.998 C 8.851 19.998,6.016 17.818,5.239 14.800 C 5.042 14.033,5.033 13.915,5.012 11.910 L 4.993 10.000 6.496 10.000 L 8.000 10.000 8.000 11.684 " stroke="none" fill-rule="evenodd" fill="black"></path></svg>