<svg viewBox="0 0 24 24" xmlns="http://www.w3.org/2000/svg"><path d="M10.020 4.000 L 8.020 6.000 9.510 6.000 L 11.000 6.000 11.000 8.500 L 11.000 11.000 8.500 11.000 L 6.000 11.000 6.000 9.510 L 6.000 8.020 4.010 10.010 L 2.020 12.000 4.010 13.990 L 6.000 15.980 6.000 14.490 L 6.000 13.000 8.500 13.000 L 11.000 13.000 11.000 15.500 L 11.000 17.999 9.520 18.010 L 8.040 18.020 10.030 20.010 L 12.020 22.000 14.020 20.000 L 16.020 18.000 14.510 18.000 L 13.000 18.000 13.000 15.500 L 13.000 13.000 15.500 13.000 L 18.000 13.000 18.000 14.510 L 18.000 16.020 20.010 14.010 L 22.020 12.000 20.010 9.990 L 18.000 7.980 18.000 9.490 L 18.000 11.000 15.500 11.000 L 13.000 11.000 13.000 8.500 L 13.000 6.001 14.500 5.990 L 16.000 5.980 14.010 3.990 L 12.020 2.000 10.020 4.000 " stroke="none" fill-rule="evenodd" fill="black"></path></svg>