<svg viewBox="0 0 24 24" xmlns="http://www.w3.org/2000/svg"><path d="M11.200 2.045 C 8.458 2.321,6.039 4.007,4.820 6.492 C 4.223 7.710,3.962 8.952,4.012 10.338 C 4.100 12.746,5.145 15.209,7.134 17.693 C 8.200 19.024,9.742 20.536,11.060 21.541 C 11.869 22.157,12.131 22.157,12.940 21.541 C 14.971 19.993,17.007 17.769,18.209 15.787 C 19.767 13.216,20.317 10.678,19.822 8.337 C 19.371 6.206,18.030 4.319,16.153 3.173 C 14.676 2.272,12.919 1.872,11.200 2.045 M12.632 4.042 C 14.077 4.199,15.294 4.801,16.321 5.865 C 18.290 7.904,18.528 10.821,16.974 13.886 C 16.257 15.301,15.262 16.617,13.801 18.084 C 13.072 18.815,12.076 19.720,12.000 19.720 C 11.939 19.720,10.983 18.866,10.367 18.262 C 6.963 14.922,5.472 11.475,6.177 8.580 C 6.710 6.393,8.464 4.658,10.640 4.164 C 11.330 4.007,11.957 3.969,12.632 4.042 M11.433 6.040 C 10.864 6.131,10.219 6.380,9.773 6.683 C 8.885 7.286,8.298 8.170,8.081 9.235 C 7.761 10.804,8.461 12.457,9.819 13.343 C 12.189 14.887,15.351 13.553,15.918 10.769 C 16.179 9.487,15.764 8.119,14.829 7.185 C 14.325 6.682,13.625 6.283,12.958 6.120 C 12.572 6.026,11.783 5.984,11.433 6.040 M12.644 8.114 C 13.239 8.320,13.697 8.788,13.904 9.400 C 14.015 9.727,14.004 10.340,13.881 10.660 C 13.341 12.066,11.638 12.451,10.599 11.404 C 9.988 10.788,9.836 9.904,10.207 9.125 C 10.451 8.611,11.029 8.157,11.580 8.044 C 11.859 7.987,12.378 8.021,12.644 8.114 " stroke="none" fill-rule="evenodd" fill="black"></path></svg>