<svg viewBox="0 0 24 24" xmlns="http://www.w3.org/2000/svg"><path d="M4.580 3.047 C 3.858 3.186,3.199 3.848,3.044 4.592 C 2.982 4.892,2.982 19.108,3.044 19.408 C 3.201 20.158,3.842 20.799,4.592 20.956 C 4.739 20.986,6.084 21.000,8.975 21.000 C 12.716 21.000,13.166 20.993,13.343 20.935 C 13.523 20.876,13.850 20.561,17.171 17.245 C 19.810 14.610,20.826 13.571,20.891 13.440 L 20.980 13.260 20.992 9.060 C 21.001 6.045,20.991 4.792,20.959 4.620 C 20.830 3.941,20.335 3.370,19.647 3.107 L 19.420 3.020 12.100 3.014 C 7.566 3.011,4.704 3.023,4.580 3.047 M19.000 8.500 L 19.000 12.000 15.925 12.000 C 12.584 12.000,12.672 11.995,12.374 12.222 C 12.301 12.277,12.192 12.408,12.131 12.511 L 12.020 12.700 12.009 15.850 L 11.998 19.000 8.499 19.000 L 5.000 19.000 5.000 12.000 L 5.000 5.000 12.000 5.000 L 19.000 5.000 19.000 8.500 M17.560 14.010 C 17.560 14.016,16.759 14.821,15.780 15.800 L 14.000 17.580 14.000 15.790 L 14.000 14.000 15.780 14.000 C 16.759 14.000,17.560 14.005,17.560 14.010 " stroke="none" fill-rule="evenodd" fill="black"></path></svg>