<svg viewBox="0 0 24 24" xmlns="http://www.w3.org/2000/svg"><path d="M3.640 3.063 C 2.876 3.228,2.251 3.813,2.061 4.542 C 2.007 4.749,2.000 5.643,2.000 12.000 C 2.000 19.878,1.987 19.420,2.225 19.890 C 2.284 20.005,2.450 20.219,2.596 20.364 C 2.866 20.634,3.088 20.770,3.480 20.904 C 3.693 20.978,3.968 20.980,12.000 20.980 C 20.032 20.980,20.307 20.978,20.520 20.904 C 20.912 20.770,21.134 20.634,21.404 20.364 C 21.690 20.078,21.847 19.812,21.940 19.452 C 22.030 19.106,22.030 4.894,21.940 4.548 C 21.846 4.187,21.690 3.922,21.404 3.637 C 21.099 3.333,20.760 3.149,20.340 3.060 C 19.930 2.974,4.040 2.976,3.640 3.063 M19.990 11.990 L 19.980 18.980 11.990 18.990 L 4.000 19.000 4.000 12.027 C 4.000 8.191,4.012 5.041,4.027 5.027 C 4.041 5.012,7.641 5.000,12.027 5.000 L 20.000 5.000 19.990 11.990 M6.000 10.000 L 6.000 13.000 9.000 13.000 L 12.000 13.000 12.000 10.000 L 12.000 7.000 9.000 7.000 L 6.000 7.000 6.000 10.000 M14.000 8.000 L 14.000 9.000 16.000 9.000 L 18.000 9.000 18.000 8.000 L 18.000 7.000 16.000 7.000 L 14.000 7.000 14.000 8.000 M14.000 12.000 L 14.000 13.000 16.000 13.000 L 18.000 13.000 18.000 12.000 L 18.000 11.000 16.000 11.000 L 14.000 11.000 14.000 12.000 M6.000 16.000 L 6.000 17.000 12.000 17.000 L 18.000 17.000 18.000 16.000 L 18.000 15.000 12.000 15.000 L 6.000 15.000 6.000 16.000 " stroke="none" fill-rule="evenodd" fill="black"></path></svg>