<svg viewBox="0 0 24 24" xmlns="http://www.w3.org/2000/svg"><path d="M3.000 3.020 L 2.300 3.720 11.300 12.720 L 20.300 21.720 21.010 21.010 L 21.720 20.301 20.820 19.400 L 19.920 18.499 19.960 18.360 C 19.985 18.272,20.000 16.897,20.000 14.610 L 20.000 11.000 19.000 11.000 L 18.000 11.000 18.000 13.790 L 18.000 16.580 12.720 11.300 L 7.440 6.020 10.220 6.010 L 13.000 5.999 13.000 5.000 L 13.000 4.000 9.410 4.001 C 7.310 4.002,5.754 4.018,5.660 4.040 L 5.500 4.077 4.620 3.199 C 4.135 2.715,3.730 2.320,3.719 2.320 C 3.708 2.320,3.384 2.635,3.000 3.020 M17.503 3.040 C 16.828 3.162,16.156 3.550,15.703 4.080 C 14.987 4.917,14.806 6.100,15.234 7.151 C 15.521 7.857,16.143 8.479,16.849 8.766 C 17.989 9.230,19.251 8.978,20.115 8.115 C 21.238 6.992,21.295 5.212,20.246 4.020 C 19.897 3.624,19.276 3.239,18.756 3.097 C 18.491 3.024,17.770 2.991,17.503 3.040 M4.000 13.168 C 4.000 16.684,4.013 18.260,4.044 18.408 C 4.201 19.158,4.842 19.799,5.592 19.956 C 5.740 19.987,7.316 20.000,10.832 20.000 L 15.859 20.000 14.860 19.000 L 13.861 18.000 9.930 18.000 L 6.000 18.000 6.000 14.070 L 6.000 10.139 5.000 9.140 L 4.000 8.141 4.000 13.168 " stroke="none" fill-rule="evenodd" fill="black"></path></svg>