<svg viewBox="0 0 24 24" xmlns="http://www.w3.org/2000/svg"><path d="M2.000 12.000 L 2.000 22.000 3.000 22.000 L 4.000 22.000 4.000 12.000 L 4.000 2.000 3.000 2.000 L 2.000 2.000 2.000 12.000 M6.664 4.063 C 6.436 4.146,6.257 4.297,6.131 4.511 L 6.020 4.700 6.020 7.500 L 6.020 10.300 6.131 10.489 C 6.192 10.592,6.301 10.723,6.374 10.778 C 6.680 11.011,6.390 11.000,11.998 11.000 C 17.783 11.000,17.381 11.021,17.701 10.701 C 18.009 10.394,18.000 10.486,18.000 7.500 C 18.000 4.514,18.009 4.606,17.701 4.299 C 17.381 3.979,17.786 4.000,11.983 4.003 C 7.607 4.005,6.796 4.014,6.664 4.063 M16.000 7.500 L 16.000 9.000 12.000 9.000 L 8.000 9.000 8.000 7.500 L 8.000 6.000 12.000 6.000 L 16.000 6.000 16.000 7.500 M6.664 13.063 C 6.436 13.146,6.257 13.297,6.131 13.511 L 6.020 13.700 6.020 16.500 L 6.020 19.300 6.131 19.489 C 6.192 19.592,6.301 19.723,6.374 19.778 C 6.683 20.014,6.201 20.000,13.998 20.000 C 22.023 20.000,21.377 20.025,21.701 19.701 C 22.009 19.394,22.000 19.486,22.000 16.500 C 22.000 13.514,22.009 13.606,21.701 13.299 C 21.377 12.975,22.026 13.000,13.983 13.003 C 7.871 13.005,6.797 13.014,6.664 13.063 M20.000 16.500 L 20.000 18.000 14.000 18.000 L 8.000 18.000 8.000 16.500 L 8.000 15.000 14.000 15.000 L 20.000 15.000 20.000 16.500 " stroke="none" fill-rule="evenodd" fill="black"></path></svg>