<svg viewBox="0 0 24 24" xmlns="http://www.w3.org/2000/svg"><path d="M2.000 3.000 L 2.000 4.000 12.000 4.000 L 22.000 4.000 22.000 3.000 L 22.000 2.000 12.000 2.000 L 2.000 2.000 2.000 3.000 M4.664 6.063 C 4.436 6.146,4.257 6.297,4.131 6.511 L 4.020 6.700 4.010 13.914 C 4.002 18.806,4.013 21.178,4.041 21.282 C 4.102 21.509,4.313 21.761,4.539 21.878 L 4.738 21.980 7.436 21.991 C 10.488 22.003,10.390 22.012,10.700 21.702 C 11.025 21.377,11.000 22.025,11.000 14.000 C 11.000 5.977,11.025 6.623,10.701 6.299 C 10.393 5.991,10.488 6.000,7.483 6.003 C 5.276 6.005,4.793 6.015,4.664 6.063 M13.664 6.063 C 13.436 6.146,13.257 6.297,13.131 6.511 L 13.020 6.700 13.009 11.914 C 13.002 15.436,13.012 17.177,13.041 17.282 C 13.102 17.509,13.313 17.761,13.539 17.878 L 13.738 17.980 16.436 17.991 C 19.488 18.003,19.390 18.012,19.700 17.702 C 20.021 17.381,20.000 17.784,20.000 12.000 C 20.000 6.217,20.021 6.619,19.701 6.299 C 19.393 5.991,19.488 6.000,16.483 6.003 C 14.276 6.005,13.793 6.015,13.664 6.063 M9.000 14.000 L 9.000 20.000 7.500 20.000 L 6.000 20.000 6.000 14.000 L 6.000 8.000 7.500 8.000 L 9.000 8.000 9.000 14.000 M18.000 12.000 L 18.000 16.000 16.500 16.000 L 15.000 16.000 15.000 12.000 L 15.000 8.000 16.500 8.000 L 18.000 8.000 18.000 12.000 " stroke="none" fill-rule="evenodd" fill="black"></path></svg>