<svg viewBox="0 0 24 24" xmlns="http://www.w3.org/2000/svg"><path d="M11.000 2.999 L 11.000 3.998 8.869 4.009 L 6.738 4.020 6.539 4.122 C 6.316 4.237,6.104 4.488,6.042 4.711 C 5.985 4.915,5.985 10.085,6.042 10.289 C 6.104 10.512,6.316 10.763,6.539 10.878 L 6.738 10.980 8.869 10.991 L 11.000 11.002 11.000 12.001 L 11.000 13.000 7.925 13.000 C 4.584 13.000,4.672 12.995,4.374 13.222 C 4.301 13.277,4.192 13.408,4.131 13.511 L 4.020 13.700 4.020 16.500 L 4.020 19.300 4.131 19.489 C 4.192 19.592,4.301 19.723,4.374 19.778 C 4.672 20.005,4.584 20.000,7.925 20.000 L 11.000 20.000 11.000 21.000 L 11.000 22.000 12.000 22.000 L 13.000 22.000 13.000 21.000 L 13.000 20.000 16.073 20.000 C 19.536 20.000,19.390 20.012,19.701 19.701 C 20.009 19.394,20.000 19.486,20.000 16.500 C 20.000 13.514,20.009 13.606,19.701 13.299 C 19.390 12.988,19.536 13.000,16.073 13.000 L 13.000 13.000 13.000 12.000 L 13.000 11.000 15.073 11.000 C 17.419 11.000,17.400 11.002,17.701 10.701 C 18.009 10.394,18.000 10.486,18.000 7.500 C 18.000 4.514,18.009 4.606,17.701 4.299 C 17.400 3.998,17.419 4.000,15.073 4.000 L 13.000 4.000 13.000 3.000 L 13.000 2.000 12.000 2.000 L 11.000 2.000 11.000 2.999 M16.000 7.500 L 16.000 9.000 12.000 9.000 L 8.000 9.000 8.000 7.500 L 8.000 6.000 12.000 6.000 L 16.000 6.000 16.000 7.500 M18.000 16.500 L 18.000 18.000 12.000 18.000 L 6.000 18.000 6.000 16.500 L 6.000 15.000 12.000 15.000 L 18.000 15.000 18.000 16.500 " stroke="none" fill-rule="evenodd" fill="black"></path></svg>