<svg viewBox="0 0 24 24" xmlns="http://www.w3.org/2000/svg"><path d="M15.181 7.399 C 11.181 11.399,10.091 12.468,10.053 12.429 C 9.895 12.268,9.299 10.978,9.141 10.454 L 9.090 10.289 9.946 9.434 C 10.465 8.916,10.833 8.516,10.881 8.417 C 10.978 8.217,10.987 7.822,10.898 7.609 C 10.820 7.420,6.656 3.235,6.420 3.108 C 6.197 2.988,5.764 2.988,5.540 3.108 C 5.449 3.157,4.731 3.847,3.878 4.707 C 2.655 5.938,2.352 6.265,2.249 6.463 C 2.000 6.942,1.960 7.291,2.041 8.260 C 2.307 11.418,3.436 14.250,5.440 16.785 L 5.620 17.013 3.961 18.646 L 2.302 20.279 3.010 20.991 L 3.718 21.703 12.699 12.721 C 17.638 7.782,21.680 3.722,21.680 3.700 C 21.680 3.647,20.352 2.320,20.300 2.320 C 20.278 2.320,17.974 4.606,15.181 7.399 M7.299 6.719 L 8.577 7.998 7.853 8.729 C 7.192 9.396,7.123 9.479,7.064 9.677 C 6.980 9.963,6.982 10.015,7.100 10.482 C 7.372 11.553,7.856 12.687,8.421 13.580 L 8.649 13.940 7.840 14.730 C 7.395 15.165,7.016 15.520,6.999 15.520 C 6.953 15.520,6.365 14.716,6.085 14.271 C 4.847 12.306,4.177 10.214,4.020 7.823 L 3.994 7.426 4.987 6.433 C 5.533 5.887,5.989 5.440,6.000 5.440 C 6.011 5.440,6.596 6.016,7.299 6.719 M15.640 13.066 C 15.496 13.118,15.283 13.306,14.573 14.011 L 13.685 14.891 13.529 14.828 L 13.373 14.766 12.598 15.542 C 12.172 15.968,11.832 16.324,11.842 16.334 C 11.890 16.377,12.872 16.727,13.280 16.846 C 13.822 17.004,14.212 17.023,14.440 16.904 C 14.517 16.863,14.900 16.513,15.291 16.126 L 16.001 15.422 17.291 16.711 L 18.580 18.000 17.572 19.008 L 16.564 20.015 15.936 19.966 C 13.929 19.809,11.914 19.194,10.188 18.213 L 9.996 18.104 9.274 18.826 L 8.553 19.548 9.078 19.858 C 11.212 21.115,13.765 21.876,16.211 21.985 C 16.669 22.006,16.829 21.998,17.032 21.946 C 17.598 21.800,17.624 21.779,19.275 20.142 C 20.953 18.478,20.999 18.420,20.999 18.000 C 20.999 17.571,20.996 17.567,18.694 15.274 C 17.531 14.116,16.518 13.137,16.442 13.099 C 16.248 13.002,15.863 12.986,15.640 13.066 " stroke="none" fill-rule="evenodd" fill="black"></path></svg>