<svg viewBox="0 0 24 24" xmlns="http://www.w3.org/2000/svg"><path d="M7.000 3.500 L 7.000 5.000 8.000 5.000 L 9.000 5.000 9.000 3.500 L 9.000 2.000 8.000 2.000 L 7.000 2.000 7.000 3.500 M15.000 3.500 L 15.000 5.000 16.000 5.000 L 17.000 5.000 17.000 3.500 L 17.000 2.000 16.000 2.000 L 15.000 2.000 15.000 3.500 M3.000 7.000 L 3.000 8.000 4.000 8.000 L 5.000 8.000 5.000 10.684 C 5.000 13.229,5.004 13.388,5.082 13.769 C 5.409 15.372,6.628 16.591,8.231 16.918 C 8.582 16.990,8.782 17.000,9.816 17.000 L 11.000 17.000 11.000 19.500 L 11.000 22.000 12.000 22.000 L 13.000 22.000 13.000 19.500 L 13.000 17.000 14.184 17.000 C 15.218 17.000,15.418 16.990,15.769 16.918 C 17.372 16.591,18.591 15.372,18.918 13.769 C 18.996 13.388,19.000 13.229,19.000 10.684 L 19.000 8.000 20.000 8.000 L 21.000 8.000 21.000 7.000 L 21.000 6.000 12.000 6.000 L 3.000 6.000 3.000 7.000 M16.992 10.710 L 16.980 13.420 16.884 13.660 C 16.613 14.341,16.069 14.818,15.408 14.956 C 15.113 15.017,8.887 15.017,8.592 14.956 C 7.834 14.798,7.180 14.133,7.043 13.383 C 7.015 13.229,7.000 12.242,7.000 10.573 L 7.000 8.000 12.002 8.000 L 17.003 8.000 16.992 10.710 " stroke="none" fill-rule="evenodd" fill="black"></path></svg>