<svg viewBox="0 0 24 24" xmlns="http://www.w3.org/2000/svg"><path d="M11.524 2.146 C 11.317 2.248,11.181 2.425,6.699 8.402 C 3.569 12.575,2.072 14.602,2.043 14.706 C 1.958 15.014,2.017 15.342,2.204 15.606 C 2.307 15.750,11.451 21.859,11.690 21.944 C 11.899 22.017,12.104 22.015,12.323 21.937 C 12.420 21.902,14.579 20.485,17.120 18.787 C 21.329 15.975,21.750 15.684,21.852 15.516 C 21.985 15.297,22.030 14.978,21.962 14.727 C 21.927 14.596,20.804 13.073,17.302 8.403 C 12.819 2.425,12.683 2.248,12.476 2.146 C 12.180 1.998,11.820 1.998,11.524 2.146 M10.990 15.837 L 10.980 19.120 7.707 16.938 L 4.434 14.756 4.530 14.628 C 4.583 14.558,6.056 12.593,7.803 10.263 L 10.980 6.027 10.990 9.290 C 10.996 11.085,10.996 14.031,10.990 15.837 M16.301 10.400 C 18.055 12.743,19.508 14.682,19.529 14.708 C 19.556 14.742,18.666 15.355,16.333 16.910 C 14.555 18.095,13.078 19.078,13.050 19.095 C 13.010 19.119,13.000 17.804,13.000 12.574 C 13.000 7.009,13.008 6.032,13.055 6.081 C 13.085 6.114,14.546 8.057,16.301 10.400 " stroke="none" fill-rule="evenodd" fill="black"></path></svg>