<svg viewBox="0 0 24 24" xmlns="http://www.w3.org/2000/svg"><path d="M11.300 2.023 C 10.269 2.126,9.636 2.254,8.820 2.526 C 7.353 3.014,6.059 3.818,4.939 4.939 C 3.382 6.495,2.440 8.369,2.093 10.600 C 1.993 11.244,1.993 12.753,2.093 13.400 C 2.436 15.620,3.385 17.508,4.939 19.061 C 6.492 20.615,8.385 21.566,10.600 21.907 C 11.244 22.006,12.756 22.006,13.400 21.907 C 15.615 21.566,17.508 20.615,19.061 19.061 C 20.394 17.729,21.272 16.171,21.717 14.350 C 21.928 13.483,21.978 13.037,21.978 12.000 C 21.978 10.963,21.928 10.517,21.717 9.650 C 21.272 7.829,20.394 6.271,19.061 4.939 C 18.222 4.099,17.446 3.543,16.380 3.020 C 15.453 2.564,14.488 2.266,13.400 2.102 C 12.998 2.041,11.636 1.990,11.300 2.023 M11.009 8.190 L 11.020 12.300 11.131 12.489 C 11.192 12.592,11.301 12.723,11.374 12.778 C 11.677 13.009,11.495 13.000,15.885 13.000 C 19.582 13.000,19.920 13.005,19.920 13.065 C 19.920 13.101,19.875 13.353,19.820 13.625 C 19.397 15.714,18.139 17.549,16.320 18.730 C 13.509 20.555,9.800 20.392,7.100 18.325 C 6.747 18.055,6.190 17.510,5.847 17.100 C 3.848 14.711,3.440 11.302,4.816 8.500 C 5.718 6.664,7.207 5.294,9.117 4.543 C 9.644 4.335,10.559 4.101,10.909 4.084 L 10.999 4.080 11.009 8.190 M13.586 4.163 C 14.775 4.393,16.060 4.997,17.040 5.789 C 17.394 6.075,18.066 6.761,18.326 7.100 C 19.064 8.067,19.619 9.283,19.837 10.414 C 19.883 10.651,19.920 10.879,19.920 10.922 C 19.920 10.999,19.863 11.000,16.460 11.000 L 13.000 11.000 13.000 7.540 C 13.000 4.137,13.001 4.080,13.078 4.080 C 13.121 4.080,13.349 4.117,13.586 4.163 " stroke="none" fill-rule="evenodd" fill="black"></path></svg>