<svg viewBox="0 0 24 24" xmlns="http://www.w3.org/2000/svg"><path d="M6.580 2.047 C 5.858 2.186,5.199 2.848,5.044 3.592 C 4.984 3.881,4.984 7.119,5.044 7.408 C 5.201 8.158,5.842 8.799,6.592 8.956 C 6.891 9.018,18.109 9.018,18.408 8.956 C 19.158 8.799,19.799 8.158,19.956 7.408 C 20.016 7.119,20.016 3.881,19.956 3.592 C 19.817 2.927,19.322 2.365,18.647 2.107 L 18.420 2.020 12.600 2.014 C 9.015 2.010,6.703 2.023,6.580 2.047 M18.000 5.500 L 18.000 7.000 12.500 7.000 L 7.000 7.000 7.000 5.500 L 7.000 4.000 12.500 4.000 L 18.000 4.000 18.000 5.500 M3.580 5.047 C 2.859 5.185,2.199 5.848,2.044 6.592 C 1.983 6.884,1.983 11.116,2.044 11.408 C 2.201 12.158,2.842 12.799,3.592 12.956 C 3.738 12.986,4.930 13.000,7.402 13.000 L 11.000 13.000 11.000 13.991 L 11.000 14.981 10.790 15.031 C 10.514 15.096,10.290 15.257,10.141 15.498 L 10.020 15.694 10.009 18.409 C 10.002 20.220,10.012 21.176,10.040 21.280 C 10.102 21.509,10.312 21.761,10.539 21.878 C 10.737 21.980,10.740 21.980,11.933 21.992 C 13.313 22.005,13.413 21.989,13.700 21.702 C 14.009 21.393,14.000 21.487,14.000 18.500 C 14.000 15.514,14.009 15.606,13.701 15.299 C 13.544 15.142,13.246 15.000,13.073 15.000 C 13.004 15.000,13.000 14.938,13.000 13.902 C 13.000 13.255,12.982 12.717,12.956 12.592 C 12.817 11.927,12.322 11.365,11.647 11.107 C 11.421 11.021,11.405 11.020,7.710 11.009 L 4.000 10.998 4.000 7.999 L 4.000 5.000 3.890 5.004 C 3.829 5.007,3.690 5.026,3.580 5.047 " stroke="none" fill-rule="evenodd" fill="black"></path></svg>