<svg viewBox="0 0 24 24" xmlns="http://www.w3.org/2000/svg"><path d="M11.633 2.168 C 11.531 2.219,9.452 3.367,7.015 4.720 C 2.285 7.345,2.239 7.374,2.178 7.698 C 2.164 7.773,2.118 7.866,2.076 7.904 C 2.002 7.970,2.000 8.094,2.000 12.059 C 2.000 16.611,1.986 16.373,2.274 16.669 C 2.379 16.776,3.756 17.562,7.021 19.377 L 11.620 21.935 12.000 21.936 L 12.380 21.937 16.980 19.381 C 20.228 17.577,21.623 16.782,21.725 16.677 C 22.015 16.378,22.000 16.632,22.000 11.899 L 22.000 7.652 21.910 7.520 C 21.861 7.447,21.757 7.338,21.680 7.277 C 21.603 7.216,19.488 6.026,16.980 4.633 L 12.420 2.101 12.120 2.089 C 11.873 2.079,11.787 2.093,11.633 2.168 M15.453 6.065 C 17.305 7.092,18.841 7.951,18.868 7.976 C 18.903 8.009,18.655 8.165,17.874 8.600 C 17.301 8.919,16.801 9.195,16.762 9.214 C 16.707 9.240,15.895 8.792,13.285 7.297 C 11.412 6.225,9.885 5.342,9.891 5.336 C 9.967 5.260,11.994 4.166,12.033 4.180 C 12.062 4.191,13.601 5.039,15.453 6.065 M11.200 8.410 C 12.971 9.421,14.470 10.279,14.532 10.317 L 14.644 10.386 13.322 11.129 L 12.000 11.872 8.543 9.946 C 6.560 8.841,5.101 8.005,5.121 7.984 C 5.140 7.965,5.754 7.620,6.485 7.217 C 7.628 6.589,7.827 6.492,7.898 6.529 C 7.943 6.553,9.429 7.399,11.200 8.410 M7.535 11.680 L 10.999 13.620 11.000 16.453 C 11.000 18.169,10.985 19.281,10.963 19.273 C 10.943 19.266,9.368 18.396,7.464 17.340 L 4.003 15.420 4.001 12.567 C 4.001 10.949,4.015 9.719,4.035 9.727 C 4.054 9.734,5.629 10.613,7.535 11.680 M19.999 12.570 L 19.997 15.420 16.536 17.340 C 14.632 18.396,13.057 19.266,13.037 19.273 C 13.015 19.281,13.000 18.169,13.000 16.453 L 13.000 13.620 14.466 12.800 C 15.272 12.349,15.947 11.974,15.966 11.967 C 15.984 11.959,16.000 12.639,16.000 13.477 L 16.000 15.000 17.000 14.500 L 18.000 14.000 18.001 12.410 L 18.001 10.820 18.991 10.271 C 19.535 9.969,19.985 9.722,19.990 9.721 C 19.995 9.720,19.999 11.002,19.999 12.570 " stroke="none" fill-rule="evenodd" fill="black"></path></svg>