<svg viewBox="0 0 24 24" xmlns="http://www.w3.org/2000/svg"><path d="M7.664 2.063 C 7.326 2.187,7.072 2.488,7.017 2.830 L 6.990 3.000 5.422 3.000 C 4.469 3.000,3.762 3.017,3.617 3.043 C 2.862 3.181,2.203 3.830,2.044 4.592 C 1.982 4.891,1.982 18.109,2.044 18.408 C 2.201 19.158,2.842 19.799,3.592 19.956 C 3.738 19.986,4.927 20.000,7.393 20.000 L 10.982 20.000 11.030 20.302 C 11.159 21.116,11.796 21.790,12.592 21.956 C 12.888 22.018,20.112 22.018,20.408 21.956 C 21.158 21.799,21.799 21.158,21.956 20.408 C 22.018 20.112,22.018 12.888,21.956 12.592 C 21.783 11.765,21.079 11.126,20.223 11.019 L 20.000 10.991 20.000 7.897 C 20.000 5.794,19.986 4.736,19.956 4.592 C 19.817 3.926,19.318 3.361,18.647 3.108 C 18.431 3.027,18.340 3.022,16.710 3.009 C 15.108 2.996,15.000 2.991,15.000 2.925 C 15.000 2.754,14.857 2.455,14.701 2.299 C 14.389 1.987,14.547 2.000,10.983 2.003 C 8.342 2.005,7.794 2.015,7.664 2.063 M7.000 6.000 L 7.000 7.000 11.000 7.000 L 15.000 7.000 15.000 6.000 L 15.000 5.000 16.500 5.000 L 18.000 5.000 18.000 8.000 L 18.000 11.000 15.427 11.000 C 13.752 11.000,12.772 11.015,12.617 11.043 C 11.862 11.181,11.203 11.830,11.044 12.592 C 11.015 12.734,11.000 13.660,11.000 15.402 L 11.000 18.000 7.500 18.000 L 4.000 18.000 4.000 11.500 L 4.000 5.000 5.500 5.000 L 7.000 5.000 7.000 6.000 M20.000 16.500 L 20.000 20.000 16.500 20.000 L 13.000 20.000 13.000 16.500 L 13.000 13.000 16.500 13.000 L 20.000 13.000 20.000 16.500 " stroke="none" fill-rule="evenodd" fill="black"></path></svg>