<svg viewBox="0 0 24 24" xmlns="http://www.w3.org/2000/svg"><path d="M19.700 3.214 C 19.390 3.319,2.498 11.288,2.360 11.395 C 2.164 11.548,2.000 11.883,2.000 12.133 C 2.000 12.618,2.201 12.892,2.739 13.141 C 2.938 13.233,4.202 13.791,5.550 14.379 L 8.000 15.450 8.010 18.805 L 8.020 22.160 10.931 20.081 L 13.841 18.002 16.271 19.067 C 18.472 20.033,18.724 20.134,18.960 20.150 C 19.188 20.165,19.247 20.153,19.439 20.052 C 19.684 19.923,19.894 19.679,19.958 19.449 C 19.981 19.367,20.227 15.881,20.506 11.703 C 21.060 3.399,21.041 3.914,20.804 3.582 C 20.573 3.260,20.067 3.091,19.700 3.214 M18.499 11.685 C 18.287 14.905,18.101 17.569,18.087 17.604 C 18.065 17.657,17.617 17.473,15.460 16.528 C 14.030 15.901,12.854 15.383,12.847 15.377 C 12.839 15.371,13.539 13.987,14.401 12.301 C 15.263 10.615,15.962 9.229,15.954 9.220 C 15.945 9.212,14.240 10.149,12.163 11.303 C 10.087 12.456,8.368 13.400,8.344 13.400 C 8.320 13.400,7.656 13.117,6.868 12.770 C 5.936 12.360,5.454 12.129,5.488 12.107 C 5.592 12.041,18.860 5.807,18.872 5.819 C 18.879 5.825,18.711 8.465,18.499 11.685 " stroke="none" fill-rule="evenodd" fill="black"></path></svg>