<svg viewBox="0 0 24 24" xmlns="http://www.w3.org/2000/svg"><path d="M8.320 4.044 C 7.128 4.177,5.917 4.716,5.045 5.501 C 4.029 6.416,3.409 7.483,3.113 8.826 C 2.987 9.397,2.987 10.603,3.113 11.174 C 3.242 11.759,3.416 12.244,3.684 12.759 C 4.516 14.364,6.000 15.485,7.826 15.887 C 8.177 15.964,8.371 15.975,9.610 15.990 L 11.000 16.007 11.000 18.004 L 11.000 20.000 12.000 20.000 L 13.000 20.000 13.000 13.000 L 13.000 6.000 14.000 6.000 L 15.000 6.000 15.000 13.000 L 15.000 20.000 16.000 20.000 L 17.000 20.000 17.000 13.000 L 17.000 6.000 18.500 6.000 L 20.000 6.000 20.000 5.000 L 20.000 4.000 14.310 4.005 C 11.181 4.008,8.485 4.025,8.320 4.044 M11.000 10.000 L 11.000 14.000 9.816 14.000 C 8.479 14.000,8.122 13.954,7.498 13.702 C 6.826 13.432,6.117 12.865,5.723 12.285 C 5.472 11.914,5.215 11.348,5.113 10.938 C 4.987 10.429,4.987 9.571,5.113 9.062 C 5.215 8.652,5.472 8.086,5.723 7.715 C 6.311 6.849,7.362 6.200,8.433 6.043 C 8.558 6.025,9.187 6.008,9.830 6.005 L 11.000 6.000 11.000 10.000 " stroke="none" fill-rule="evenodd" fill="black"></path></svg>