<svg viewBox="0 0 24 24" xmlns="http://www.w3.org/2000/svg"><path d="M2.000 5.000 L 2.000 8.000 3.000 8.000 L 4.000 8.000 4.000 6.000 L 4.000 4.000 6.000 4.000 L 8.000 4.000 8.000 3.000 L 8.000 2.000 5.000 2.000 L 2.000 2.000 2.000 5.000 M16.000 3.000 L 16.000 4.000 18.000 4.000 L 20.000 4.000 20.000 6.000 L 20.000 8.000 21.000 8.000 L 22.000 8.000 22.000 5.000 L 22.000 2.000 19.000 2.000 L 16.000 2.000 16.000 3.000 M5.000 8.000 L 5.000 11.000 8.000 11.000 L 11.000 11.000 11.000 8.000 L 11.000 5.000 8.000 5.000 L 5.000 5.000 5.000 8.000 M13.000 8.000 L 13.000 11.000 16.000 11.000 L 19.000 11.000 19.000 8.000 L 19.000 5.000 16.000 5.000 L 13.000 5.000 13.000 8.000 M9.000 8.000 L 9.000 9.000 8.000 9.000 L 7.000 9.000 7.000 8.000 L 7.000 7.000 8.000 7.000 L 9.000 7.000 9.000 8.000 M17.000 8.000 L 17.000 9.000 16.000 9.000 L 15.000 9.000 15.000 8.000 L 15.000 7.000 16.000 7.000 L 17.000 7.000 17.000 8.000 M5.000 16.000 L 5.000 19.000 8.000 19.000 L 11.000 19.000 11.000 16.000 L 11.000 13.000 8.000 13.000 L 5.000 13.000 5.000 16.000 M13.000 14.000 L 13.000 15.000 14.000 15.000 L 15.000 15.000 15.000 16.000 L 15.000 17.000 16.000 17.000 L 17.000 17.000 17.000 18.000 L 17.000 19.000 18.000 19.000 L 19.000 19.000 19.000 18.000 L 19.000 17.000 18.000 17.000 L 17.000 17.000 17.000 16.000 L 17.000 15.000 18.000 15.000 L 19.000 15.000 19.000 14.000 L 19.000 13.000 18.000 13.000 L 17.000 13.000 17.000 14.000 L 17.000 15.000 16.000 15.000 L 15.000 15.000 15.000 14.000 L 15.000 13.000 14.000 13.000 L 13.000 13.000 13.000 14.000 M9.000 16.000 L 9.000 17.000 8.000 17.000 L 7.000 17.000 7.000 16.000 L 7.000 15.000 8.000 15.000 L 9.000 15.000 9.000 16.000 M2.000 19.000 L 2.000 22.000 5.000 22.000 L 8.000 22.000 8.000 21.000 L 8.000 20.000 6.000 20.000 L 4.000 20.000 4.000 18.000 L 4.000 16.000 3.000 16.000 L 2.000 16.000 2.000 19.000 M20.000 18.000 L 20.000 20.000 18.000 20.000 L 16.000 20.000 16.000 21.000 L 16.000 22.000 19.000 22.000 L 22.000 22.000 22.000 19.000 L 22.000 16.000 21.000 16.000 L 20.000 16.000 20.000 18.000 " stroke="none" fill-rule="evenodd" fill="black"></path></svg>