<svg viewBox="0 0 24 24" xmlns="http://www.w3.org/2000/svg"><path d="M3.664 2.063 C 3.436 2.146,3.257 2.297,3.131 2.511 L 3.020 2.700 3.020 12.000 L 3.020 21.300 3.131 21.489 C 3.192 21.592,3.301 21.723,3.374 21.778 C 3.684 22.015,3.106 22.000,11.998 22.000 C 21.144 22.000,20.376 22.026,20.701 21.701 C 21.017 21.385,21.000 21.654,21.000 17.073 L 21.000 13.000 20.000 13.000 L 19.000 13.000 19.000 16.500 L 19.000 20.000 12.000 20.000 L 5.000 20.000 5.000 12.000 L 5.000 4.000 7.500 4.000 L 10.000 4.000 10.000 3.000 L 10.000 2.000 6.910 2.003 C 4.333 2.005,3.794 2.015,3.664 2.063 M12.000 2.987 L 12.000 3.985 12.550 4.033 C 13.485 4.114,14.205 4.305,14.980 4.676 C 16.467 5.387,17.561 6.469,18.282 7.940 C 18.691 8.774,18.882 9.475,18.967 10.450 L 19.015 11.000 20.007 11.000 L 21.000 11.000 21.000 10.750 C 21.000 10.398,20.897 9.557,20.797 9.092 C 20.589 8.126,20.090 6.929,19.560 6.120 C 18.646 4.727,17.420 3.643,15.944 2.923 C 14.812 2.370,13.755 2.096,12.450 2.016 L 12.000 1.989 12.000 2.987 M12.000 6.994 L 12.000 7.989 12.270 8.017 C 12.670 8.057,12.861 8.112,13.260 8.298 C 13.917 8.606,14.391 9.078,14.704 9.740 C 14.865 10.081,15.000 10.601,15.000 10.884 L 15.000 11.000 16.006 11.000 L 17.012 11.000 16.986 10.630 C 16.860 8.843,15.771 7.273,14.104 6.476 C 13.533 6.204,12.690 6.000,12.131 6.000 L 12.000 6.000 12.000 6.994 M11.664 10.063 C 11.436 10.146,11.257 10.297,11.131 10.511 C 11.036 10.672,11.020 10.744,11.020 11.000 C 11.020 11.256,11.036 11.328,11.131 11.489 C 11.470 12.065,12.234 12.168,12.701 11.701 C 12.881 11.521,13.000 11.242,13.000 11.000 C 13.000 10.326,12.295 9.832,11.664 10.063 M7.000 16.380 L 7.000 18.000 7.320 18.000 L 7.640 18.000 7.640 17.320 L 7.640 16.640 7.879 16.640 C 8.088 16.640,8.134 16.655,8.258 16.763 C 8.335 16.831,8.561 17.128,8.761 17.423 L 9.123 17.960 9.502 17.960 C 9.710 17.960,9.880 17.951,9.880 17.940 C 9.880 17.896,9.418 17.169,9.252 16.952 C 9.156 16.826,9.024 16.692,8.959 16.653 C 8.894 16.614,8.840 16.572,8.840 16.560 C 8.840 16.547,8.921 16.515,9.020 16.489 C 9.250 16.427,9.497 16.204,9.583 15.978 C 9.714 15.635,9.599 15.175,9.331 14.970 C 9.116 14.806,8.802 14.762,7.850 14.761 L 7.000 14.760 7.000 16.380 M10.280 16.380 L 10.280 18.000 10.600 18.000 L 10.920 18.000 10.920 17.320 L 10.920 16.640 11.600 16.640 L 12.280 16.640 12.280 16.360 L 12.280 16.080 11.600 16.080 L 10.920 16.080 10.920 15.700 L 10.920 15.320 11.700 15.320 L 12.480 15.320 12.480 15.040 L 12.480 14.760 11.380 14.760 L 10.280 14.760 10.280 16.380 M13.000 16.380 L 13.000 18.000 13.340 18.000 L 13.680 18.000 13.680 16.380 L 13.680 14.760 13.340 14.760 L 13.000 14.760 13.000 16.380 M14.280 16.376 L 14.280 18.000 15.056 18.000 C 15.950 18.000,16.224 17.944,16.503 17.705 C 16.921 17.348,17.107 16.558,16.940 15.849 C 16.826 15.366,16.612 15.071,16.247 14.892 C 16.023 14.782,16.008 14.780,15.150 14.766 L 14.280 14.752 14.280 16.376 M8.796 15.378 C 9.038 15.503,9.058 15.870,8.834 16.059 C 8.714 16.160,8.700 16.162,8.186 16.151 L 7.660 16.140 7.649 15.730 L 7.637 15.320 8.161 15.320 C 8.540 15.320,8.715 15.336,8.796 15.378 M15.982 15.402 C 16.058 15.448,16.154 15.564,16.207 15.672 C 16.290 15.839,16.300 15.917,16.300 16.380 C 16.300 16.963,16.260 17.127,16.077 17.303 C 15.958 17.418,15.945 17.420,15.457 17.433 L 14.960 17.447 14.960 16.383 L 14.960 15.320 15.405 15.320 C 15.783 15.320,15.870 15.332,15.982 15.402 " stroke="none" fill-rule="evenodd" fill="black"></path></svg>