<svg viewBox="0 0 24 24" xmlns="http://www.w3.org/2000/svg"><path d="M4.000 4.000 L 4.000 5.000 12.000 5.000 L 20.000 5.000 20.000 4.000 L 20.000 3.000 12.000 3.000 L 4.000 3.000 4.000 4.000 M10.000 8.000 L 10.000 9.000 15.000 9.000 L 20.000 9.000 20.000 8.000 L 20.000 7.000 15.000 7.000 L 10.000 7.000 10.000 8.000 M4.000 12.000 L 4.000 16.020 6.010 14.010 L 8.020 12.000 6.010 9.990 L 4.000 7.980 4.000 12.000 M10.000 12.000 L 10.000 13.000 15.000 13.000 L 20.000 13.000 20.000 12.000 L 20.000 11.000 15.000 11.000 L 10.000 11.000 10.000 12.000 M10.000 16.000 L 10.000 17.000 15.000 17.000 L 20.000 17.000 20.000 16.000 L 20.000 15.000 15.000 15.000 L 10.000 15.000 10.000 16.000 M4.000 20.000 L 4.000 21.000 12.000 21.000 L 20.000 21.000 20.000 20.000 L 20.000 19.000 12.000 19.000 L 4.000 19.000 4.000 20.000 " stroke="none" fill-rule="evenodd" fill="black"></path></svg>