<svg viewBox="0 0 24 24" xmlns="http://www.w3.org/2000/svg"><path d="M5.665 2.059 C 5.439 2.139,5.234 2.321,5.120 2.543 L 5.020 2.738 5.010 11.938 C 4.998 22.266,4.972 21.374,5.298 21.700 C 5.571 21.973,5.964 22.066,6.317 21.941 C 6.528 21.866,19.576 12.844,19.748 12.654 C 20.054 12.314,20.075 11.786,19.799 11.398 C 19.694 11.251,6.532 2.135,6.312 2.057 C 6.110 1.986,5.867 1.987,5.665 2.059 M12.154 8.475 C 14.929 10.398,17.200 11.985,17.200 12.002 C 17.200 12.025,7.647 18.667,7.114 19.014 L 7.000 19.088 7.000 12.002 C 7.000 6.093,7.009 4.921,7.054 4.948 C 7.083 4.966,9.378 6.553,12.154 8.475 " stroke="none" fill-rule="evenodd" fill="black"></path></svg>