<svg viewBox="0 0 24 24" xmlns="http://www.w3.org/2000/svg"><path d="M9.522 3.982 C 8.170 5.064,7.058 5.967,7.050 5.989 C 7.043 6.011,8.153 6.923,9.518 8.014 L 11.999 10.000 12.010 8.546 L 12.020 7.093 12.280 7.146 C 12.685 7.228,13.143 7.387,13.584 7.597 C 15.323 8.426,16.533 10.008,16.906 11.940 C 17.012 12.485,17.003 13.525,16.889 14.101 C 16.403 16.544,14.609 18.359,12.160 18.885 C 11.818 18.959,11.610 18.976,11.040 18.978 C 10.612 18.979,10.225 18.959,10.045 18.925 C 9.849 18.889,9.742 18.885,9.725 18.912 C 9.688 18.972,9.302 20.796,9.323 20.815 C 9.332 20.824,9.520 20.864,9.740 20.903 C 10.310 21.005,11.616 21.007,12.215 20.907 C 13.584 20.677,14.718 20.196,15.788 19.393 C 18.557 17.316,19.679 13.715,18.576 10.445 C 18.192 9.305,17.604 8.340,16.761 7.464 C 15.559 6.215,13.966 5.375,12.310 5.117 L 12.001 5.069 11.990 3.542 L 11.980 2.016 9.522 3.982 M5.134 7.570 C 4.832 7.892,4.513 8.303,4.258 8.700 C 4.000 9.101,3.568 9.967,3.551 10.117 C 3.541 10.209,3.588 10.233,4.420 10.547 C 4.904 10.730,5.318 10.879,5.340 10.879 C 5.362 10.879,5.461 10.704,5.560 10.489 C 5.778 10.018,6.181 9.398,6.516 9.022 L 6.763 8.744 6.072 8.052 C 5.692 7.671,5.370 7.360,5.356 7.360 C 5.343 7.360,5.243 7.455,5.134 7.570 M3.000 12.936 C 3.000 13.526,3.053 14.065,3.163 14.600 C 3.273 15.133,3.485 15.807,3.537 15.787 C 5.366 15.106,5.366 15.107,5.341 15.022 C 5.112 14.263,5.000 13.572,5.000 12.928 L 5.000 12.573 4.310 12.525 C 3.931 12.499,3.481 12.467,3.310 12.453 L 3.000 12.428 3.000 12.936 M5.389 17.204 L 4.598 17.803 4.835 18.092 C 5.120 18.439,5.723 19.028,6.080 19.307 C 6.385 19.546,7.079 20.000,7.139 20.000 C 7.199 20.000,8.141 18.267,8.090 18.250 C 8.066 18.242,7.893 18.133,7.705 18.008 C 7.238 17.696,6.777 17.293,6.459 16.915 C 6.312 16.742,6.190 16.601,6.186 16.603 C 6.183 16.604,5.824 16.875,5.389 17.204 " stroke="none" fill-rule="evenodd" fill="black"></path></svg>