<svg viewBox="0 0 24 24" xmlns="http://www.w3.org/2000/svg"><path d="M12.000 3.000 L 12.000 4.000 13.500 4.000 L 15.000 4.000 15.000 5.000 L 15.000 6.000 9.402 6.000 C 5.470 6.000,3.741 6.013,3.592 6.044 C 2.927 6.183,2.364 6.677,2.110 7.343 L 2.020 7.580 2.009 11.869 C 1.997 16.594,1.989 16.422,2.244 16.928 C 2.404 17.244,2.756 17.596,3.072 17.756 C 3.576 18.010,3.271 17.999,9.410 17.999 L 15.000 18.000 15.000 19.000 L 15.000 20.000 13.500 20.000 L 12.000 20.000 12.000 21.000 L 12.000 22.000 16.000 22.000 L 20.000 22.000 20.000 21.000 L 20.000 20.000 18.500 20.000 L 17.000 20.000 17.000 12.000 L 17.000 4.000 18.500 4.000 L 20.000 4.000 20.000 3.000 L 20.000 2.000 16.000 2.000 L 12.000 2.000 12.000 3.000 M19.000 7.000 L 19.000 8.000 19.500 8.000 L 20.000 8.000 20.000 12.000 L 20.000 16.000 19.500 16.000 L 19.000 16.000 19.000 17.004 L 19.000 18.009 19.710 17.990 C 20.305 17.975,20.458 17.958,20.657 17.886 C 21.283 17.658,21.752 17.156,21.927 16.526 C 21.996 16.277,22.000 16.007,22.000 11.999 C 22.000 7.317,22.010 7.515,21.757 7.040 C 21.610 6.764,21.300 6.453,20.986 6.265 C 20.650 6.064,20.318 6.000,19.602 6.000 L 19.000 6.000 19.000 7.000 M15.000 9.000 L 15.000 10.000 10.500 10.000 L 6.000 10.000 6.000 12.000 L 6.000 14.000 10.500 14.000 L 15.000 14.000 15.000 15.000 L 15.000 16.000 9.500 16.000 L 4.000 16.000 4.000 12.000 L 4.000 8.000 9.500 8.000 L 15.000 8.000 15.000 9.000 " stroke="none" fill-rule="evenodd" fill="black"></path></svg>