<svg viewBox="0 0 24 24" xmlns="http://www.w3.org/2000/svg"><path d="M9.981 3.501 C 8.925 4.302,8.056 4.972,8.049 4.992 C 8.036 5.032,11.893 7.960,11.959 7.960 C 11.986 7.960,12.000 7.624,12.000 6.980 L 12.000 6.000 12.136 6.000 C 12.210 6.000,12.458 6.019,12.686 6.042 C 15.348 6.312,17.574 8.014,18.542 10.520 C 19.171 12.149,19.135 14.118,18.447 15.714 C 18.064 16.603,17.590 17.298,16.901 17.980 C 14.737 20.124,11.487 20.610,8.761 19.196 C 6.576 18.064,5.192 15.918,5.015 13.390 L 4.988 13.000 3.994 13.000 L 3.000 13.000 3.000 13.250 C 3.000 13.388,3.027 13.729,3.059 14.008 C 3.419 17.079,5.286 19.724,8.055 21.083 C 9.254 21.672,10.648 22.000,11.951 22.000 C 15.424 22.000,18.558 20.052,20.083 16.945 C 20.672 15.746,21.000 14.352,21.000 13.049 C 21.000 9.570,19.053 6.440,15.944 4.923 C 14.812 4.370,13.755 4.096,12.450 4.016 L 12.000 3.989 12.000 3.014 C 12.000 2.260,11.989 2.041,11.950 2.043 C 11.922 2.045,11.036 2.701,9.981 3.501 M11.490 10.042 C 10.544 10.211,9.738 10.814,9.322 11.660 C 9.084 12.145,9.023 12.417,9.023 13.000 C 9.023 13.582,9.084 13.855,9.322 14.340 C 9.694 15.099,10.404 15.678,11.240 15.906 C 11.600 16.004,12.402 16.004,12.760 15.906 C 13.803 15.619,14.619 14.803,14.906 13.760 C 15.004 13.402,15.004 12.600,14.906 12.240 C 14.806 11.871,14.555 11.381,14.319 11.093 C 13.947 10.640,13.346 10.253,12.780 10.102 C 12.487 10.023,11.776 9.990,11.490 10.042 " stroke="none" fill-rule="evenodd" fill="black"></path></svg>