<svg viewBox="0 0 24 24" xmlns="http://www.w3.org/2000/svg"><path d="M11.659 2.317 C 10.834 2.449,10.089 2.908,9.641 3.561 C 9.495 3.773,8.662 5.397,8.688 5.420 C 8.727 5.455,10.406 6.280,10.439 6.280 C 10.462 6.280,10.652 5.933,10.864 5.510 C 11.384 4.467,11.550 4.305,12.100 4.305 C 12.412 4.305,12.621 4.388,12.807 4.586 C 12.943 4.732,15.815 9.903,15.786 9.951 C 15.774 9.970,15.376 10.209,14.902 10.482 C 14.428 10.754,14.040 10.987,14.040 10.999 C 14.040 11.026,18.572 12.962,18.591 12.943 C 18.607 12.926,19.201 8.027,19.188 8.016 C 19.184 8.012,18.829 8.213,18.400 8.463 C 17.971 8.712,17.602 8.917,17.580 8.918 C 17.558 8.918,16.886 7.740,16.087 6.299 C 15.287 4.858,14.555 3.573,14.459 3.442 C 14.110 2.969,13.436 2.528,12.838 2.384 C 12.519 2.306,11.932 2.273,11.659 2.317 M6.312 8.974 C 5.064 9.505,4.042 9.951,4.042 9.965 C 4.041 9.979,4.445 10.222,4.939 10.505 C 5.433 10.788,5.838 11.034,5.839 11.050 C 5.840 11.067,5.309 12.143,4.659 13.441 C 4.010 14.740,3.430 15.942,3.371 16.111 C 3.274 16.388,3.263 16.478,3.262 16.980 C 3.260 17.458,3.274 17.584,3.354 17.840 C 3.611 18.665,4.165 19.324,4.900 19.680 C 5.468 19.955,5.567 19.970,6.850 19.989 L 8.000 20.006 8.000 19.006 L 8.000 18.005 6.970 17.992 C 5.957 17.980,5.937 17.978,5.762 17.880 C 5.546 17.759,5.338 17.497,5.277 17.268 C 5.176 16.896,5.193 16.853,6.436 14.369 L 7.599 12.043 8.388 12.499 C 8.823 12.750,9.182 12.951,9.187 12.946 C 9.199 12.934,8.608 8.034,8.592 8.019 C 8.585 8.013,7.559 8.442,6.312 8.974 M19.553 14.554 C 19.097 14.810,18.713 15.032,18.699 15.047 C 18.685 15.061,18.877 15.439,19.127 15.887 L 19.580 16.700 19.580 17.000 C 19.580 17.256,19.564 17.328,19.469 17.489 C 19.344 17.702,19.151 17.864,18.930 17.943 C 18.811 17.985,18.282 17.997,16.390 17.998 L 14.000 18.000 14.000 17.000 L 14.000 16.000 12.020 17.485 C 10.931 18.302,10.040 18.983,10.040 19.000 C 10.040 19.017,10.931 19.698,12.020 20.515 L 14.000 22.000 14.000 21.000 L 14.000 20.000 16.442 20.000 C 18.513 20.000,18.930 19.990,19.192 19.937 C 20.347 19.699,21.242 18.830,21.518 17.679 C 21.652 17.120,21.602 16.388,21.395 15.897 C 21.317 15.710,20.422 14.080,20.400 14.084 C 20.389 14.086,20.008 14.297,19.553 14.554 " stroke="none" fill-rule="evenodd" fill="black"></path></svg>