<svg viewBox="0 0 24 24" xmlns="http://www.w3.org/2000/svg"><path d="M8.664 4.062 C 8.435 4.147,8.256 4.298,8.131 4.511 L 8.020 4.700 8.009 8.350 L 7.998 12.000 6.499 12.000 L 5.000 12.000 5.000 13.000 L 5.000 14.000 6.500 14.000 L 8.000 14.000 8.000 15.000 L 8.000 16.000 6.500 16.000 L 5.000 16.000 5.000 17.000 L 5.000 18.000 6.500 18.000 L 8.000 18.000 8.000 19.500 L 8.000 21.000 9.000 21.000 L 10.000 21.000 10.000 19.500 L 10.000 18.000 13.000 18.000 L 16.000 18.000 16.000 17.000 L 16.000 16.000 13.000 16.000 L 10.000 16.000 10.000 15.000 L 10.000 14.000 12.450 14.000 C 14.464 14.000,14.968 13.989,15.280 13.938 C 16.883 13.678,18.245 12.674,18.974 11.216 C 19.666 9.829,19.666 8.171,18.974 6.784 C 18.279 5.393,17.041 4.440,15.479 4.093 C 15.217 4.035,14.788 4.025,12.000 4.015 C 9.292 4.005,8.797 4.012,8.664 4.062 M15.345 6.123 C 15.970 6.319,16.549 6.726,16.900 7.217 C 17.300 7.778,17.479 8.328,17.479 9.000 C 17.479 9.510,17.397 9.868,17.183 10.300 C 16.794 11.087,16.191 11.604,15.340 11.884 C 15.062 11.975,15.043 11.976,12.530 11.990 L 10.000 12.004 10.000 9.000 L 10.000 5.996 12.510 6.009 L 15.020 6.022 15.345 6.123 " stroke="none" fill-rule="evenodd" fill="black"></path></svg>