<svg viewBox="0 0 24 24" xmlns="http://www.w3.org/2000/svg"><path d="M9.020 6.000 L 12.020 9.000 15.010 6.010 C 16.654 4.366,18.000 3.016,18.000 3.010 C 18.000 3.005,15.305 3.000,12.010 3.000 L 6.020 3.000 9.020 6.000 M3.000 12.000 L 3.000 13.000 4.500 13.000 L 6.000 13.000 6.000 12.000 L 6.000 11.000 4.500 11.000 L 3.000 11.000 3.000 12.000 M8.000 12.000 L 8.000 13.000 9.500 13.000 L 11.000 13.000 11.000 12.000 L 11.000 11.000 9.500 11.000 L 8.000 11.000 8.000 12.000 M13.000 12.000 L 13.000 13.000 14.500 13.000 L 16.000 13.000 16.000 12.000 L 16.000 11.000 14.500 11.000 L 13.000 11.000 13.000 12.000 M18.000 12.000 L 18.000 13.000 19.500 13.000 L 21.000 13.000 21.000 12.000 L 21.000 11.000 19.500 11.000 L 18.000 11.000 18.000 12.000 M9.020 18.000 L 6.020 21.000 12.020 21.000 L 18.020 21.000 15.020 18.000 C 13.370 16.350,12.020 15.000,12.020 15.000 C 12.020 15.000,10.670 16.350,9.020 18.000 " stroke="none" fill-rule="evenodd" fill="black"></path></svg>