<svg viewBox="0 0 24 24" xmlns="http://www.w3.org/2000/svg"><path d="M3.664 3.063 C 3.436 3.146,3.257 3.297,3.131 3.511 L 3.020 3.700 3.008 5.350 L 2.997 7.000 3.998 7.000 L 5.000 7.000 5.000 6.000 L 5.000 5.000 6.000 5.000 L 7.000 5.000 7.000 4.000 L 7.000 3.000 5.410 3.003 C 4.135 3.005,3.789 3.017,3.664 3.063 M9.000 4.000 L 9.000 5.000 11.000 5.000 L 13.000 5.000 13.000 4.000 L 13.000 3.000 11.000 3.000 L 9.000 3.000 9.000 4.000 M15.000 4.000 L 15.000 5.000 16.000 5.000 L 17.000 5.000 17.000 6.000 L 17.000 7.000 18.000 7.000 L 19.000 7.000 19.000 5.427 C 19.000 3.638,18.994 3.591,18.701 3.299 C 18.409 3.006,18.362 3.000,16.573 3.000 L 15.000 3.000 15.000 4.000 M3.000 11.000 L 3.000 13.000 4.000 13.000 L 5.000 13.000 5.000 11.000 L 5.000 9.000 4.000 9.000 L 3.000 9.000 3.000 11.000 M17.000 10.500 L 17.000 12.000 18.000 12.000 L 19.000 12.000 19.000 10.500 L 19.000 9.000 18.000 9.000 L 17.000 9.000 17.000 10.500 M17.000 15.500 L 17.000 17.000 15.500 17.000 L 14.000 17.000 14.000 18.000 L 14.000 19.000 15.500 19.000 L 17.000 19.000 17.000 20.500 L 17.000 22.000 18.000 22.000 L 19.000 22.000 19.000 20.500 L 19.000 19.000 20.500 19.000 L 22.000 19.000 22.000 18.000 L 22.000 17.000 20.500 17.000 L 19.000 17.000 19.000 15.500 L 19.000 14.000 18.000 14.000 L 17.000 14.000 17.000 15.500 M3.008 16.650 L 3.020 18.300 3.131 18.489 C 3.192 18.592,3.301 18.723,3.374 18.778 C 3.656 18.993,3.721 19.000,5.425 19.000 L 7.000 19.000 7.000 18.000 L 7.000 17.000 6.000 17.000 L 5.000 17.000 5.000 16.000 L 5.000 15.000 3.998 15.000 L 2.997 15.000 3.008 16.650 M9.000 18.000 L 9.000 19.000 10.500 19.000 L 12.000 19.000 12.000 18.000 L 12.000 17.000 10.500 17.000 L 9.000 17.000 9.000 18.000 " stroke="none" fill-rule="evenodd" fill="black"></path></svg>