<svg viewBox="0 0 24 24" xmlns="http://www.w3.org/2000/svg"><path d="M6.667 2.065 C 6.415 2.142,6.155 2.400,6.066 2.660 C 6.008 2.830,6.000 3.099,5.998 4.837 L 5.997 6.820 5.652 7.040 C 5.174 7.344,4.373 8.140,4.043 8.638 C 3.593 9.318,3.301 10.006,3.112 10.834 C 3.024 11.219,3.024 11.231,3.010 16.176 C 2.996 21.757,2.976 21.378,3.298 21.700 C 3.619 22.021,3.213 22.000,9.017 21.998 C 13.226 21.997,14.208 21.987,14.330 21.943 C 14.551 21.864,14.744 21.702,14.869 21.489 L 14.980 21.300 14.980 16.280 L 14.980 11.260 14.889 10.850 C 14.704 10.012,14.417 9.325,13.965 8.640 C 13.656 8.170,12.809 7.329,12.354 7.040 L 12.007 6.820 11.994 4.760 L 11.980 2.700 11.869 2.511 C 11.740 2.291,11.563 2.146,11.322 2.061 C 11.070 1.972,6.958 1.975,6.667 2.065 M13.000 4.000 L 13.000 5.000 14.000 5.000 L 15.000 5.000 15.000 4.000 L 15.000 3.000 14.000 3.000 L 13.000 3.000 13.000 4.000 M16.000 4.000 L 16.000 5.000 17.000 5.000 L 18.000 5.000 18.000 4.000 L 18.000 3.000 17.000 3.000 L 16.000 3.000 16.000 4.000 M19.000 4.000 L 19.000 5.000 20.000 5.000 L 21.000 5.000 21.000 4.000 L 21.000 3.000 20.000 3.000 L 19.000 3.000 19.000 4.000 M10.000 5.000 L 10.000 6.000 9.000 6.000 L 8.000 6.000 8.000 5.000 L 8.000 4.000 9.000 4.000 L 10.000 4.000 10.000 5.000 M16.000 7.000 L 16.000 8.000 17.000 8.000 L 18.000 8.000 18.000 7.000 L 18.000 6.000 17.000 6.000 L 16.000 6.000 16.000 7.000 M19.000 7.000 L 19.000 8.000 20.000 8.000 L 21.000 8.000 21.000 7.000 L 21.000 6.000 20.000 6.000 L 19.000 6.000 19.000 7.000 M9.958 8.120 C 10.756 8.315,11.640 8.876,12.109 9.486 C 12.627 10.160,12.910 10.873,12.983 11.690 L 13.011 12.000 9.001 12.000 L 4.991 12.000 5.017 11.690 C 5.122 10.484,5.782 9.353,6.773 8.683 C 7.221 8.380,7.864 8.131,8.433 8.040 C 8.783 7.984,9.572 8.026,9.958 8.120 M19.000 10.000 L 19.000 11.000 20.000 11.000 L 21.000 11.000 21.000 10.000 L 21.000 9.000 20.000 9.000 L 19.000 9.000 19.000 10.000 M13.000 17.000 L 13.000 20.000 9.000 20.000 L 5.000 20.000 5.000 17.000 L 5.000 14.000 9.000 14.000 L 13.000 14.000 13.000 17.000 " stroke="none" fill-rule="evenodd" fill="black"></path></svg>