<svg viewBox="0 0 24 24" xmlns="http://www.w3.org/2000/svg"><path d="M11.760 2.036 C 11.705 2.055,9.807 2.991,7.543 4.116 C 3.052 6.347,3.203 6.261,3.054 6.687 C 2.989 6.875,2.980 7.028,2.983 7.980 C 2.985 8.862,3.002 9.185,3.075 9.740 C 3.475 12.757,4.556 15.354,6.348 17.604 C 6.883 18.276,8.102 19.499,8.760 20.024 C 9.613 20.704,10.562 21.342,11.368 21.777 C 11.762 21.990,12.044 22.045,12.304 21.959 C 12.482 21.900,13.167 21.502,13.700 21.147 C 17.744 18.458,20.251 14.471,20.896 9.700 C 21.055 8.527,21.073 7.069,20.934 6.661 C 20.802 6.273,20.908 6.333,16.441 4.100 C 12.710 2.235,12.280 2.029,12.081 2.016 C 11.959 2.009,11.815 2.018,11.760 2.036 M15.536 5.880 L 19.008 7.620 18.986 8.280 C 18.902 10.734,18.065 13.299,16.650 15.436 C 15.577 17.057,14.262 18.359,12.521 19.522 L 12.030 19.851 11.905 19.780 C 11.836 19.741,11.546 19.556,11.261 19.369 C 10.293 18.736,9.632 18.198,8.819 17.383 C 6.423 14.977,5.071 11.845,4.972 8.470 L 4.948 7.639 8.484 5.882 C 10.429 4.916,12.030 4.128,12.042 4.132 C 12.054 4.137,13.627 4.923,15.536 5.880 " stroke="none" fill-rule="evenodd" fill="black"></path></svg>