<svg viewBox="0 0 24 24" xmlns="http://www.w3.org/2000/svg"><path d="M3.664 3.063 C 3.440 3.145,3.257 3.296,3.139 3.497 C 2.924 3.864,2.891 3.685,3.980 8.038 L 4.970 12.000 3.980 15.962 C 2.890 20.319,2.924 20.135,3.141 20.506 C 3.337 20.840,3.712 21.028,4.100 20.988 C 4.258 20.972,6.107 20.117,12.900 16.921 C 17.630 14.696,21.563 12.825,21.640 12.763 C 22.095 12.399,22.095 11.598,21.640 11.238 C 21.515 11.140,4.818 3.255,4.350 3.074 C 4.126 2.987,3.881 2.983,3.664 3.063 M12.570 9.142 C 15.887 10.702,18.600 11.989,18.600 12.002 C 18.600 12.024,5.509 18.199,5.493 18.185 C 5.486 18.179,6.161 15.453,6.284 14.989 L 6.324 14.838 9.142 13.429 C 10.692 12.654,11.960 12.011,11.960 12.000 C 11.960 11.989,10.692 11.346,9.142 10.571 L 6.324 9.162 6.284 9.011 C 6.262 8.928,6.080 8.203,5.880 7.400 C 5.680 6.597,5.507 5.909,5.496 5.870 C 5.480 5.818,5.608 5.864,6.007 6.053 C 6.300 6.191,9.254 7.581,12.570 9.142 " stroke="none" fill-rule="evenodd" fill="black"></path></svg>