<svg viewBox="0 0 24 24" xmlns="http://www.w3.org/2000/svg"><path d="M8.440 2.024 C 7.623 2.120,7.069 2.246,6.519 2.458 C 4.376 3.286,2.773 5.083,2.217 7.282 C 1.492 10.154,2.656 13.176,5.120 14.817 C 7.660 16.508,10.957 16.370,13.348 14.473 L 13.596 14.276 13.665 14.408 C 13.702 14.481,14.000 15.098,14.326 15.780 L 14.919 17.020 15.696 17.760 C 16.363 18.395,17.394 19.437,18.614 20.712 C 18.787 20.892,18.941 21.040,18.955 21.040 C 18.969 21.040,19.448 20.572,20.020 20.000 L 21.059 18.960 20.900 18.804 C 18.852 16.804,18.190 16.148,17.659 15.592 L 17.021 14.923 15.660 14.275 C 14.912 13.919,14.293 13.622,14.285 13.616 C 14.277 13.609,14.360 13.490,14.470 13.352 C 15.423 12.151,15.931 10.767,15.987 9.220 C 16.114 5.724,13.607 2.680,10.120 2.095 C 9.780 2.038,8.704 1.992,8.440 2.024 M9.601 4.042 C 10.369 4.136,11.154 4.432,11.824 4.881 C 12.229 5.152,12.848 5.771,13.119 6.176 C 14.447 8.159,14.244 10.705,12.621 12.431 C 11.946 13.148,11.134 13.617,10.131 13.869 C 9.498 14.028,8.502 14.028,7.869 13.869 C 6.875 13.620,6.071 13.158,5.392 12.447 C 3.972 10.961,3.603 8.725,4.476 6.896 C 4.751 6.322,5.036 5.917,5.476 5.476 C 6.575 4.377,8.078 3.855,9.601 4.042 " stroke="none" fill-rule="evenodd" fill="black"></path></svg>