<svg viewBox="0 0 24 24" xmlns="http://www.w3.org/2000/svg"><path d="M15.000 14.000 L 15.000 21.000 16.000 21.000 L 17.000 21.000 17.000 14.000 L 17.000 7.000 16.000 7.000 L 15.000 7.000 15.000 14.000 M11.000 15.500 L 11.000 21.000 12.000 21.000 L 13.000 21.000 13.000 15.500 L 13.000 10.000 12.000 10.000 L 11.000 10.000 11.000 15.500 M7.000 17.000 L 7.000 21.000 8.000 21.000 L 9.000 21.000 9.000 17.000 L 9.000 13.000 8.000 13.000 L 7.000 13.000 7.000 17.000 M3.000 18.500 L 3.000 21.000 4.000 21.000 L 5.000 21.000 5.000 18.500 L 5.000 16.000 4.000 16.000 L 3.000 16.000 3.000 18.500 " stroke="none" fill-rule="evenodd" fill="black"></path></svg>