<svg viewBox="0 0 24 24" xmlns="http://www.w3.org/2000/svg"><path d="M10.760 3.035 C 10.705 3.053,10.597 3.099,10.520 3.138 C 10.375 3.211,6.320 7.228,6.320 7.299 C 6.320 7.321,6.630 7.650,7.010 8.030 L 7.699 8.720 9.350 7.070 L 11.000 5.420 12.040 6.460 C 12.612 7.032,13.080 7.511,13.080 7.525 C 13.080 7.539,12.630 8.113,12.079 8.801 C 11.529 9.489,11.083 10.057,11.089 10.063 C 11.095 10.068,11.303 10.053,11.551 10.029 C 12.081 9.976,12.761 10.030,13.240 10.161 C 13.726 10.295,14.291 10.595,14.833 11.006 C 16.035 11.919,16.175 11.981,17.020 11.978 C 17.789 11.975,18.071 11.858,18.917 11.191 C 19.084 11.059,19.237 10.936,19.258 10.916 C 19.315 10.862,11.718 3.273,11.472 3.140 C 11.266 3.027,10.933 2.978,10.760 3.035 M18.680 4.027 C 18.474 4.059,18.093 4.215,17.891 4.349 C 17.471 4.626,17.146 5.103,17.044 5.592 C 16.788 6.818,17.749 8.000,19.001 8.000 C 19.527 8.000,19.967 7.821,20.372 7.441 C 20.916 6.932,21.125 6.189,20.926 5.471 C 20.657 4.503,19.672 3.869,18.680 4.027 M2.000 12.986 L 2.000 13.984 2.370 14.030 C 2.863 14.093,3.223 14.274,3.900 14.801 C 4.761 15.473,5.182 15.697,5.946 15.889 C 6.249 15.965,6.404 15.977,7.020 15.975 C 7.669 15.973,7.779 15.963,8.139 15.867 C 8.714 15.713,9.271 15.426,9.841 14.990 C 10.903 14.176,11.145 14.056,11.800 14.012 C 12.576 13.961,13.048 14.139,13.897 14.800 C 14.757 15.471,15.183 15.697,15.946 15.889 C 16.249 15.965,16.404 15.977,17.020 15.975 C 17.669 15.973,17.780 15.963,18.140 15.867 C 18.843 15.680,19.312 15.419,20.220 14.709 C 20.850 14.217,21.165 14.071,21.710 14.018 L 22.000 13.990 22.000 12.995 L 22.000 12.000 21.870 12.000 C 21.595 12.000,21.005 12.093,20.682 12.186 C 20.204 12.325,19.694 12.601,19.147 13.019 C 18.002 13.893,17.807 13.980,17.000 13.980 C 16.176 13.980,16.027 13.913,14.833 13.006 C 14.017 12.386,13.379 12.123,12.470 12.031 C 11.608 11.944,10.730 12.093,10.029 12.445 C 9.629 12.646,9.489 12.741,8.811 13.264 C 8.240 13.706,7.986 13.846,7.593 13.939 C 7.051 14.067,6.288 13.980,5.847 13.740 C 5.744 13.684,5.408 13.442,5.100 13.202 C 4.048 12.381,3.394 12.100,2.350 12.017 L 2.000 11.989 2.000 12.986 M2.000 17.986 L 2.000 18.984 2.370 19.030 C 2.863 19.093,3.223 19.274,3.900 19.801 C 4.761 20.473,5.182 20.697,5.946 20.889 C 6.249 20.965,6.404 20.977,7.020 20.975 C 7.669 20.973,7.779 20.963,8.139 20.867 C 8.714 20.713,9.271 20.426,9.841 19.990 C 10.903 19.176,11.145 19.056,11.800 19.012 C 12.576 18.961,13.048 19.139,13.897 19.800 C 14.757 20.471,15.183 20.697,15.946 20.889 C 16.249 20.965,16.404 20.977,17.020 20.975 C 17.669 20.973,17.780 20.963,18.140 20.867 C 18.843 20.680,19.312 20.419,20.220 19.709 C 20.850 19.217,21.165 19.071,21.710 19.018 L 22.000 18.990 22.000 17.995 L 22.000 17.000 21.870 17.000 C 21.595 17.000,21.005 17.093,20.682 17.186 C 20.204 17.325,19.694 17.601,19.147 18.019 C 18.002 18.893,17.807 18.980,17.000 18.980 C 16.176 18.980,16.027 18.913,14.833 18.006 C 14.017 17.386,13.379 17.123,12.470 17.031 C 11.608 16.944,10.730 17.093,10.029 17.445 C 9.629 17.646,9.489 17.741,8.811 18.264 C 8.240 18.706,7.986 18.846,7.593 18.939 C 7.051 19.067,6.288 18.980,5.847 18.740 C 5.744 18.684,5.408 18.442,5.100 18.202 C 4.048 17.381,3.394 17.100,2.350 17.017 L 2.000 16.989 2.000 17.986 " stroke="none" fill-rule="evenodd" fill="black"></path></svg>