<svg viewBox="0 0 24 24" xmlns="http://www.w3.org/2000/svg"><path d="M11.340 2.046 C 9.610 2.266,8.055 3.467,7.376 5.107 C 7.106 5.760,7.034 6.158,7.011 7.129 L 6.990 7.997 5.364 8.009 L 3.738 8.020 3.539 8.122 C 3.316 8.237,3.104 8.488,3.042 8.711 C 2.982 8.926,2.984 20.121,3.044 20.408 C 3.201 21.158,3.842 21.799,4.592 21.956 C 4.892 22.018,19.108 22.018,19.408 21.956 C 20.158 21.799,20.799 21.158,20.956 20.408 C 20.987 20.259,21.000 18.511,21.000 14.525 C 21.000 8.154,21.022 8.620,20.701 8.299 C 20.409 8.007,20.362 8.000,18.578 8.000 L 17.010 8.000 16.989 7.130 C 16.966 6.158,16.895 5.760,16.624 5.107 C 15.757 3.012,13.593 1.759,11.340 2.046 M12.566 4.062 C 12.794 4.105,13.032 4.188,13.318 4.327 C 13.685 4.505,13.782 4.575,14.104 4.896 C 14.425 5.218,14.495 5.315,14.673 5.682 C 14.934 6.220,15.000 6.564,15.000 7.384 L 15.000 8.000 11.995 8.000 L 8.991 8.000 9.011 7.230 C 9.035 6.350,9.065 6.207,9.345 5.640 C 9.503 5.320,9.591 5.203,9.897 4.898 C 10.641 4.157,11.548 3.873,12.566 4.062 M7.000 11.000 L 7.000 12.000 8.000 12.000 L 9.000 12.000 9.000 11.000 L 9.000 10.000 12.000 10.000 L 15.000 10.000 15.000 11.000 L 15.000 12.000 16.000 12.000 L 17.000 12.000 17.000 11.000 L 17.000 10.000 18.000 10.000 L 19.000 10.000 19.000 15.000 L 19.000 20.000 12.000 20.000 L 5.000 20.000 5.000 15.000 L 5.000 10.000 6.000 10.000 L 7.000 10.000 7.000 11.000 " stroke="none" fill-rule="evenodd" fill="black"></path></svg>