<svg viewBox="0 0 24 24" xmlns="http://www.w3.org/2000/svg"><path d="M11.000 3.500 L 11.000 5.000 12.000 5.000 L 13.000 5.000 13.000 3.500 L 13.000 2.000 12.000 2.000 L 11.000 2.000 11.000 3.500 M4.920 4.940 L 4.221 5.640 5.280 6.700 L 6.339 7.760 7.050 7.050 L 7.760 6.341 6.710 5.290 C 6.133 4.713,5.651 4.240,5.640 4.240 C 5.628 4.240,5.304 4.555,4.920 4.940 M17.290 5.290 L 16.240 6.341 16.950 7.050 L 17.661 7.760 18.720 6.700 L 19.779 5.640 19.080 4.940 C 18.696 4.555,18.372 4.240,18.360 4.240 C 18.349 4.240,17.867 4.713,17.290 5.290 M11.200 7.061 C 9.370 7.346,7.786 8.721,7.224 10.513 C 6.776 11.939,6.993 13.474,7.822 14.750 C 8.121 15.210,8.790 15.879,9.250 16.178 C 10.948 17.281,13.052 17.281,14.750 16.178 C 15.210 15.879,15.879 15.210,16.178 14.750 C 17.279 13.055,17.280 10.943,16.182 9.258 C 15.905 8.834,15.345 8.249,14.927 7.948 C 13.858 7.178,12.508 6.857,11.200 7.061 M12.888 9.133 C 13.843 9.434,14.588 10.191,14.885 11.160 C 15.018 11.593,15.018 12.407,14.885 12.840 C 14.584 13.821,13.825 14.581,12.840 14.887 C 12.588 14.965,12.453 14.980,12.000 14.980 C 11.547 14.980,11.412 14.965,11.160 14.887 C 10.175 14.581,9.416 13.821,9.115 12.840 C 8.982 12.407,8.982 11.593,9.115 11.160 C 9.414 10.184,10.196 9.399,11.140 9.126 C 11.534 9.012,11.603 9.005,12.120 9.021 C 12.465 9.032,12.657 9.060,12.888 9.133 M2.000 12.000 L 2.000 13.000 3.500 13.000 L 5.000 13.000 5.000 12.000 L 5.000 11.000 3.500 11.000 L 2.000 11.000 2.000 12.000 M19.000 12.000 L 19.000 13.000 20.500 13.000 L 22.000 13.000 22.000 12.000 L 22.000 11.000 20.500 11.000 L 19.000 11.000 19.000 12.000 M5.280 17.300 L 4.220 18.360 4.930 19.070 L 5.640 19.780 6.700 18.720 L 7.760 17.659 7.050 16.950 L 6.339 16.240 5.280 17.300 M16.950 16.950 L 16.240 17.661 17.300 18.720 L 18.360 19.780 19.070 19.070 L 19.780 18.360 18.720 17.300 L 17.659 16.240 16.950 16.950 M11.000 20.500 L 11.000 22.000 12.000 22.000 L 13.000 22.000 13.000 20.500 L 13.000 19.000 12.000 19.000 L 11.000 19.000 11.000 20.500 " stroke="none" fill-rule="evenodd" fill="black"></path></svg>