<svg viewBox="0 0 24 24" xmlns="http://www.w3.org/2000/svg"><path d="M11.120 2.039 C 8.020 2.349,5.361 3.939,3.659 6.500 C 1.048 10.428,1.568 15.667,4.900 19.022 C 5.878 20.007,6.984 20.750,8.220 21.254 C 11.958 22.779,16.203 21.920,19.062 19.062 C 23.445 14.678,22.834 7.442,17.778 3.853 C 16.479 2.930,15.094 2.370,13.493 2.119 C 12.909 2.027,11.660 1.985,11.120 2.039 M12.726 4.040 C 14.253 4.189,15.634 4.727,16.853 5.648 C 17.273 5.965,18.035 6.727,18.352 7.147 C 20.742 10.311,20.499 14.656,17.773 17.521 C 16.272 19.098,14.172 19.999,12.000 19.999 C 8.240 19.999,4.947 17.326,4.177 13.648 C 3.701 11.373,4.234 9.019,5.648 7.147 C 5.965 6.727,6.727 5.965,7.147 5.648 C 8.764 4.427,10.767 3.849,12.726 4.040 M8.150 9.041 C 7.722 9.149,7.343 9.465,7.144 9.880 C 7.034 10.111,7.020 10.180,7.020 10.500 C 7.020 10.811,7.035 10.894,7.133 11.104 C 7.276 11.413,7.585 11.721,7.900 11.868 C 8.107 11.965,8.190 11.980,8.500 11.980 C 8.811 11.980,8.894 11.965,9.104 11.867 C 9.413 11.724,9.721 11.415,9.868 11.100 C 9.965 10.893,9.980 10.810,9.980 10.500 C 9.980 10.189,9.965 10.106,9.867 9.896 C 9.725 9.589,9.414 9.278,9.110 9.139 C 8.852 9.022,8.407 8.976,8.150 9.041 M15.149 9.041 C 14.221 9.275,13.739 10.292,14.156 11.137 C 14.453 11.741,15.123 12.088,15.745 11.959 C 16.387 11.827,16.829 11.384,16.960 10.745 C 17.131 9.907,16.466 9.066,15.596 9.019 C 15.433 9.010,15.232 9.020,15.149 9.041 M7.900 14.764 C 7.482 15.050,7.114 15.300,7.082 15.319 C 7.011 15.360,7.108 15.509,7.495 15.955 C 8.336 16.926,9.484 17.591,10.826 17.887 C 11.397 18.013,12.603 18.013,13.174 17.887 C 14.510 17.592,15.641 16.939,16.495 15.968 C 16.764 15.664,16.983 15.367,16.956 15.345 C 16.947 15.338,16.573 15.084,16.125 14.780 C 15.425 14.306,15.305 14.238,15.272 14.295 C 15.180 14.460,14.812 14.861,14.570 15.061 C 14.085 15.461,13.587 15.716,12.958 15.885 C 12.675 15.962,12.519 15.977,12.000 15.978 C 11.446 15.978,11.338 15.966,10.986 15.869 C 10.486 15.730,9.988 15.488,9.593 15.190 C 9.284 14.957,8.891 14.557,8.768 14.350 C 8.732 14.290,8.693 14.241,8.681 14.242 C 8.670 14.243,8.318 14.478,7.900 14.764 " stroke="none" fill-rule="evenodd" fill="black"></path></svg>