<svg viewBox="0 0 24 24" xmlns="http://www.w3.org/2000/svg"><path d="M8.580 2.047 C 7.859 2.185,7.199 2.848,7.044 3.592 C 7.018 3.717,7.000 4.255,7.000 4.902 L 7.000 6.000 5.000 6.000 L 3.000 6.000 3.000 7.000 L 3.000 8.000 4.000 8.000 L 5.000 8.000 5.000 14.098 C 5.000 18.395,5.013 20.259,5.044 20.408 C 5.201 21.158,5.842 21.799,6.592 21.956 C 6.890 22.018,17.110 22.018,17.408 21.956 C 18.158 21.799,18.799 21.158,18.956 20.408 C 18.987 20.259,19.000 18.395,19.000 14.098 L 19.000 8.000 20.000 8.000 L 21.000 8.000 21.000 7.000 L 21.000 6.000 19.000 6.000 L 17.000 6.000 17.000 4.902 C 17.000 4.255,16.982 3.717,16.956 3.592 C 16.797 2.830,16.138 2.181,15.383 2.043 C 15.081 1.988,8.871 1.992,8.580 2.047 M15.000 5.000 L 15.000 6.000 12.000 6.000 L 9.000 6.000 9.000 5.000 L 9.000 4.000 12.000 4.000 L 15.000 4.000 15.000 5.000 M17.000 14.000 L 17.000 20.000 12.000 20.000 L 7.000 20.000 7.000 14.000 L 7.000 8.000 12.000 8.000 L 17.000 8.000 17.000 14.000 M9.000 14.000 L 9.000 18.000 10.000 18.000 L 11.000 18.000 11.000 14.000 L 11.000 10.000 10.000 10.000 L 9.000 10.000 9.000 14.000 M13.000 14.000 L 13.000 18.000 14.000 18.000 L 15.000 18.000 15.000 14.000 L 15.000 10.000 14.000 10.000 L 13.000 10.000 13.000 14.000 " stroke="none" fill-rule="evenodd" fill="black"></path></svg>