<svg viewBox="0 0 24 24" xmlns="http://www.w3.org/2000/svg"><path d="M7.320 6.044 C 5.969 6.195,4.776 6.778,3.777 7.777 C 2.897 8.658,2.382 9.610,2.112 10.854 C 1.984 11.444,1.985 12.559,2.114 13.160 C 2.383 14.412,2.877 15.320,3.779 16.221 C 4.679 17.121,5.577 17.610,6.840 17.888 L 7.260 17.980 12.000 17.980 L 16.740 17.980 17.160 17.887 C 18.461 17.601,19.433 17.059,20.340 16.115 C 21.132 15.290,21.632 14.335,21.886 13.160 C 22.015 12.564,22.015 11.449,21.887 10.854 C 21.621 9.614,21.104 8.658,20.223 7.777 C 19.206 6.761,18.031 6.193,16.632 6.042 C 16.164 5.991,7.773 5.993,7.320 6.044 M16.960 8.112 C 17.147 8.162,17.498 8.299,17.740 8.418 C 19.720 9.390,20.543 11.721,19.603 13.700 C 19.048 14.869,18.037 15.660,16.765 15.919 C 16.380 15.997,16.230 16.000,12.000 16.000 C 7.759 16.000,7.621 15.998,7.231 15.918 C 6.447 15.758,5.736 15.380,5.185 14.829 C 3.735 13.378,3.613 11.100,4.901 9.491 C 5.506 8.735,6.463 8.188,7.433 8.042 C 7.558 8.024,9.676 8.012,12.140 8.016 L 16.620 8.023 16.960 8.112 M7.445 9.059 C 6.793 9.207,6.324 9.464,5.880 9.917 C 4.891 10.926,4.724 12.323,5.446 13.550 C 5.618 13.844,6.156 14.382,6.450 14.554 C 7.455 15.145,8.545 15.145,9.550 14.554 C 9.844 14.382,10.382 13.844,10.554 13.550 C 11.145 12.545,11.145 11.455,10.554 10.450 C 10.353 10.108,9.837 9.612,9.465 9.402 C 8.859 9.061,8.044 8.923,7.445 9.059 " stroke="none" fill-rule="evenodd" fill="black"></path></svg>