<svg viewBox="0 0 24 24" xmlns="http://www.w3.org/2000/svg"><path d="M7.664 2.063 C 7.326 2.187,7.072 2.488,7.017 2.830 L 6.990 3.000 5.922 3.000 C 5.328 3.000,4.749 3.019,4.617 3.043 C 3.862 3.181,3.203 3.830,3.044 4.592 C 2.982 4.892,2.982 20.108,3.044 20.408 C 3.201 21.158,3.842 21.799,4.592 21.956 C 4.892 22.018,19.108 22.018,19.408 21.956 C 20.158 21.799,20.799 21.158,20.956 20.408 C 21.018 20.108,21.018 4.892,20.956 4.592 C 20.817 3.926,20.316 3.358,19.647 3.109 C 19.439 3.032,19.321 3.023,18.210 3.009 C 17.092 2.995,17.000 2.989,17.000 2.924 C 17.000 2.754,16.857 2.455,16.701 2.299 C 16.384 1.982,16.666 2.000,11.983 2.003 C 8.474 2.005,7.795 2.015,7.664 2.063 M7.000 6.000 L 7.000 7.000 12.000 7.000 L 17.000 7.000 17.000 6.000 L 17.000 5.000 18.000 5.000 L 19.000 5.000 19.000 12.500 L 19.000 20.000 12.000 20.000 L 5.000 20.000 5.000 12.500 L 5.000 5.000 6.000 5.000 L 7.000 5.000 7.000 6.000 M9.000 11.020 L 8.301 11.720 9.440 12.860 L 10.579 14.000 9.440 15.140 L 8.300 16.280 9.010 16.990 L 9.720 17.700 10.860 16.560 L 12.000 15.421 13.140 16.560 L 14.280 17.700 14.990 16.990 L 15.700 16.280 14.560 15.140 L 13.421 14.000 14.560 12.860 L 15.700 11.720 14.990 11.010 L 14.280 10.300 13.140 11.440 L 12.000 12.579 10.870 11.450 C 10.248 10.828,9.730 10.320,9.719 10.320 C 9.708 10.320,9.384 10.635,9.000 11.020 " stroke="none" fill-rule="evenodd" fill="black"></path></svg>