<svg viewBox="0 0 24 24" xmlns="http://www.w3.org/2000/svg"><path d="M2.970 8.010 L 2.280 8.700 6.140 12.560 L 10.000 16.420 12.000 14.420 L 14.000 12.420 16.140 14.560 L 18.280 16.700 17.269 17.720 C 16.713 18.281,16.205 18.799,16.141 18.870 L 16.025 19.000 19.013 19.000 L 22.000 19.000 22.000 15.990 L 22.000 12.980 20.850 14.130 L 19.700 15.280 16.850 12.430 L 14.000 9.580 12.000 11.580 L 10.000 13.580 6.870 10.450 C 5.148 8.728,3.722 7.320,3.699 7.320 C 3.677 7.320,3.349 7.631,2.970 8.010 " stroke="none" fill-rule="evenodd" fill="black"></path></svg>