<svg viewBox="0 0 24 24" xmlns="http://www.w3.org/2000/svg"><path d="M10.668 2.060 C 10.466 2.136,10.303 2.256,10.193 2.410 C 10.143 2.480,8.796 6.237,7.200 10.759 L 4.299 18.980 3.149 18.991 L 2.000 19.001 2.000 20.001 L 2.000 21.000 12.000 21.000 L 22.000 21.000 22.000 20.001 L 22.000 19.001 20.851 18.991 L 19.701 18.980 16.796 10.748 C 14.517 4.291,13.864 2.483,13.771 2.368 C 13.705 2.287,13.564 2.175,13.457 2.120 C 13.263 2.020,13.259 2.020,12.041 2.012 C 11.072 2.006,10.789 2.016,10.668 2.060 M12.987 5.960 C 13.365 7.027,13.676 7.923,13.677 7.950 C 13.679 7.989,13.319 8.000,12.000 8.000 C 11.008 8.000,10.320 7.985,10.320 7.963 C 10.320 7.921,11.669 4.090,11.704 4.034 C 11.716 4.013,11.856 4.002,12.013 4.008 L 12.299 4.020 12.987 5.960 M14.939 11.500 L 15.463 12.980 13.731 12.990 C 12.779 12.996,11.221 12.996,10.268 12.990 L 8.536 12.980 9.039 11.560 C 9.316 10.779,9.555 10.108,9.570 10.070 C 9.596 10.004,9.740 10.000,12.007 10.010 L 14.415 10.020 14.939 11.500 M16.871 16.971 C 17.251 18.054,17.561 18.953,17.561 18.970 C 17.560 18.987,15.058 19.000,12.000 19.000 C 8.942 19.000,6.440 18.987,6.439 18.970 C 6.439 18.953,6.749 18.054,7.129 16.971 L 7.820 15.001 12.000 15.001 L 16.180 15.001 16.871 16.971 " stroke="none" fill-rule="evenodd" fill="black"></path></svg>