<svg viewBox="0 0 24 24" xmlns="http://www.w3.org/2000/svg"><path d="M11.320 2.024 C 11.243 2.033,11.009 2.059,10.800 2.081 C 8.184 2.365,5.653 3.827,4.005 6.006 C 1.775 8.954,1.381 12.992,2.996 16.342 C 3.516 17.421,4.058 18.180,4.939 19.062 C 5.527 19.651,6.114 20.126,6.760 20.535 C 7.552 21.036,8.822 21.552,9.821 21.777 C 11.204 22.089,12.796 22.089,14.179 21.777 C 15.178 21.552,16.448 21.036,17.240 20.535 C 18.194 19.931,19.342 18.888,19.955 18.068 C 21.459 16.055,22.178 13.586,21.960 11.180 C 21.728 8.619,20.581 6.285,18.741 4.630 C 17.161 3.208,15.302 2.346,13.240 2.079 C 12.885 2.034,11.563 1.995,11.320 2.024 M13.155 4.100 C 16.341 4.553,18.946 6.904,19.739 10.040 C 19.855 10.501,19.960 11.189,19.960 11.495 L 19.960 11.720 19.649 11.720 C 18.335 11.720,16.678 12.251,15.440 13.068 C 13.276 14.498,12.059 16.626,11.871 19.310 L 11.823 20.000 11.593 20.000 C 11.252 20.000,10.532 19.891,10.026 19.763 C 7.231 19.054,5.021 16.867,4.285 14.079 C 4.160 13.607,4.057 12.956,4.028 12.456 L 4.011 12.171 4.616 12.149 C 7.570 12.039,10.134 10.359,11.460 7.662 C 11.930 6.708,12.197 5.729,12.287 4.630 L 12.336 4.040 12.538 4.041 C 12.649 4.041,12.927 4.068,13.155 4.100 M10.320 4.262 C 10.320 4.726,10.125 5.681,9.923 6.205 C 9.138 8.244,7.539 9.620,5.463 10.044 C 4.989 10.140,4.240 10.193,4.240 10.131 C 4.240 10.025,4.461 9.344,4.625 8.943 C 5.542 6.704,7.436 5.010,9.800 4.316 C 10.243 4.186,10.320 4.178,10.320 4.262 M19.699 14.148 C 19.051 16.529,17.271 18.519,14.968 19.437 C 14.536 19.609,13.877 19.811,13.847 19.780 C 13.812 19.745,13.921 18.746,13.997 18.400 C 14.108 17.899,14.217 17.596,14.478 17.060 C 14.789 16.423,15.121 15.967,15.636 15.470 C 16.517 14.621,17.580 14.052,18.726 13.819 C 19.101 13.742,19.773 13.685,19.793 13.728 C 19.800 13.744,19.758 13.933,19.699 14.148 " stroke="none" fill-rule="evenodd" fill="black"></path></svg>