<svg viewBox="0 0 24 24" xmlns="http://www.w3.org/2000/svg"><path d="M2.970 3.010 L 2.280 3.700 11.280 12.700 L 20.280 21.700 20.990 20.990 L 21.700 20.280 18.941 17.521 C 17.304 15.884,16.198 14.748,16.221 14.729 C 16.242 14.711,16.359 14.621,16.480 14.530 C 16.601 14.439,17.322 13.738,18.083 12.972 C 19.160 11.889,19.517 11.504,19.693 11.235 C 20.247 10.395,20.520 9.477,20.520 8.460 C 20.520 6.558,19.498 4.892,17.800 4.023 C 16.383 3.298,14.746 3.291,13.299 4.004 C 12.780 4.260,12.331 4.602,11.761 5.177 L 11.301 5.640 11.997 6.337 L 12.694 7.035 13.168 6.581 C 13.428 6.331,13.744 6.059,13.868 5.976 C 14.870 5.311,16.193 5.313,17.201 5.982 C 18.564 6.884,18.931 8.755,18.018 10.143 C 17.852 10.395,16.042 12.256,15.494 12.738 C 15.315 12.896,15.062 13.081,14.932 13.151 L 14.695 13.276 14.058 12.638 L 13.421 12.000 14.133 11.287 L 14.846 10.573 14.353 10.100 C 13.754 9.525,13.338 9.210,12.861 8.970 C 12.015 8.545,11.124 8.367,10.240 8.445 L 9.900 8.476 6.820 5.398 C 5.126 3.705,3.722 2.320,3.699 2.320 C 3.677 2.320,3.349 2.631,2.970 3.010 M5.476 11.469 C 4.788 12.164,4.472 12.513,4.307 12.765 C 3.753 13.605,3.480 14.523,3.480 15.540 C 3.480 16.906,3.972 18.092,4.940 19.060 C 5.533 19.653,6.153 20.037,6.910 20.281 C 8.195 20.694,9.640 20.572,10.800 19.953 C 11.280 19.697,11.665 19.396,12.199 18.861 L 12.699 18.360 12.001 17.661 L 11.304 16.963 10.902 17.353 C 10.188 18.047,9.813 18.282,9.161 18.445 C 8.879 18.516,8.743 18.527,8.341 18.511 C 7.567 18.480,7.001 18.248,6.437 17.728 C 5.965 17.292,5.624 16.675,5.517 16.063 C 5.451 15.680,5.490 15.014,5.600 14.660 C 5.702 14.331,5.910 13.933,6.112 13.680 C 6.191 13.581,6.607 13.144,7.037 12.709 L 7.818 11.918 7.118 11.218 L 6.418 10.518 5.476 11.469 " stroke="none" fill-rule="evenodd" fill="black"></path></svg>