<svg viewBox="0 0 24 24" xmlns="http://www.w3.org/2000/svg"><path d="M7.353 4.040 C 6.533 4.171,5.822 4.517,5.230 5.076 C 4.856 5.428,4.622 5.750,4.396 6.220 C 4.084 6.871,4.021 7.173,4.021 8.000 C 4.021 8.815,4.084 9.123,4.379 9.747 C 4.593 10.200,4.736 10.411,5.071 10.766 C 5.428 11.144,5.748 11.378,6.220 11.603 C 6.869 11.914,7.172 11.978,8.000 11.978 C 8.828 11.978,9.131 11.914,9.780 11.603 C 10.252 11.378,10.572 11.144,10.929 10.766 C 11.264 10.410,11.408 10.199,11.621 9.747 C 11.914 9.126,11.978 8.815,11.978 8.000 C 11.978 7.397,11.965 7.253,11.886 6.960 C 11.771 6.530,11.467 5.892,11.227 5.576 C 10.694 4.872,9.870 4.325,9.036 4.119 C 8.653 4.024,7.726 3.981,7.353 4.040 M8.483 6.044 C 9.551 6.273,10.196 7.342,9.956 8.488 C 9.851 8.988,9.425 9.553,8.984 9.776 C 8.404 10.070,7.638 10.080,7.063 9.802 C 6.695 9.623,6.335 9.247,6.165 8.861 C 5.944 8.364,5.944 7.636,6.165 7.139 C 6.334 6.755,6.749 6.334,7.117 6.172 C 7.490 6.008,8.064 5.955,8.483 6.044 M17.000 9.500 L 17.000 11.000 15.500 11.000 L 14.000 11.000 14.000 12.000 L 14.000 13.000 15.500 13.000 L 17.000 13.000 17.000 14.500 L 17.000 16.000 18.000 16.000 L 19.000 16.000 19.000 14.500 L 19.000 13.000 20.500 13.000 L 22.000 13.000 22.000 12.000 L 22.000 11.000 20.500 11.000 L 19.000 11.000 19.000 9.500 L 19.000 8.000 18.000 8.000 L 17.000 8.000 17.000 9.500 M6.340 13.046 C 5.849 13.108,5.317 13.273,4.820 13.517 C 3.406 14.211,2.460 15.416,2.097 16.987 C 2.055 17.168,2.027 17.552,2.012 18.130 L 1.990 19.000 2.990 19.000 L 3.991 19.000 4.011 18.230 C 4.034 17.373,4.065 17.217,4.312 16.704 C 4.614 16.075,5.097 15.599,5.740 15.298 C 6.321 15.025,6.363 15.020,8.000 15.020 C 9.637 15.020,9.679 15.025,10.260 15.298 C 10.918 15.606,11.391 16.079,11.704 16.740 C 11.931 17.219,12.000 17.604,12.000 18.384 L 12.000 19.000 13.005 19.000 L 14.010 19.000 13.989 18.130 C 13.966 17.152,13.895 16.761,13.617 16.089 C 12.933 14.437,11.382 13.260,9.601 13.042 C 9.196 12.992,6.738 12.995,6.340 13.046 " stroke="none" fill-rule="evenodd" fill="black"></path></svg>