<svg viewBox="0 0 24 24" xmlns="http://www.w3.org/2000/svg"><path d="M11.528 4.142 C 11.384 4.215,11.267 4.315,11.166 4.455 C 10.437 5.452,2.093 17.572,2.049 17.697 C 1.924 18.054,2.072 18.548,2.374 18.778 C 2.685 19.016,2.011 19.000,11.998 19.000 C 22.265 19.000,21.375 19.027,21.701 18.701 C 21.959 18.443,22.057 18.068,21.959 17.715 C 21.936 17.632,19.949 14.724,17.326 10.935 C 12.145 3.451,12.621 4.071,12.043 4.047 C 11.779 4.036,11.713 4.049,11.528 4.142 M15.560 11.901 L 19.077 16.980 15.538 16.990 C 13.592 16.996,10.408 16.996,8.462 16.990 L 4.923 16.980 8.448 11.889 C 10.386 9.089,11.989 6.803,12.008 6.809 C 12.028 6.816,13.626 9.107,15.560 11.901 " stroke="none" fill-rule="evenodd" fill="black"></path></svg>