<svg viewBox="0 0 24 24" xmlns="http://www.w3.org/2000/svg"><path d="M12.700 3.056 C 12.612 3.083,11.226 3.982,9.620 5.053 L 6.700 7.000 5.277 7.000 C 4.428 7.000,3.759 7.017,3.617 7.043 C 2.862 7.181,2.203 7.830,2.044 8.592 C 1.983 8.887,1.983 15.113,2.044 15.408 C 2.201 16.158,2.842 16.799,3.592 16.956 C 3.724 16.983,4.349 17.000,5.252 17.000 L 6.700 17.000 9.615 18.944 C 11.219 20.013,12.603 20.913,12.690 20.944 C 13.036 21.065,13.432 20.970,13.701 20.701 C 14.026 20.376,14.000 21.144,14.000 12.000 C 14.000 2.848,14.027 3.625,13.697 3.295 C 13.436 3.034,13.057 2.943,12.700 3.056 M16.000 4.000 L 16.000 4.996 16.290 5.183 C 17.832 6.178,19.002 7.697,19.582 9.460 C 20.129 11.122,20.127 12.884,19.576 14.559 C 19.025 16.233,17.899 17.728,16.450 18.710 L 16.000 19.015 16.000 20.007 L 16.000 20.999 16.230 20.897 C 17.185 20.476,18.323 19.677,19.161 18.840 C 20.633 17.370,21.521 15.628,21.887 13.496 C 22.005 12.803,22.016 11.302,21.906 10.608 C 21.532 8.242,20.404 6.187,18.652 4.683 C 17.935 4.068,16.937 3.418,16.230 3.106 L 16.000 3.004 16.000 4.000 M11.990 15.060 L 11.980 18.120 9.780 16.654 C 8.571 15.847,7.500 15.149,7.400 15.104 C 7.228 15.024,7.145 15.019,5.610 15.008 L 4.000 14.996 4.000 11.998 L 4.000 9.000 5.533 9.000 C 6.804 9.000,7.101 8.989,7.275 8.938 C 7.426 8.893,8.118 8.454,9.733 7.378 L 11.980 5.881 11.990 8.940 C 11.996 10.623,11.996 13.377,11.990 15.060 M16.003 12.000 L 16.003 17.020 16.242 16.760 C 17.108 15.818,17.741 14.359,17.940 12.848 C 18.195 10.920,17.493 8.602,16.242 7.240 L 16.003 6.980 16.003 12.000 " stroke="none" fill-rule="evenodd" fill="black"></path></svg>