<svg viewBox="0 0 24 24" xmlns="http://www.w3.org/2000/svg"><path d="M12.640 2.860 L 11.941 3.560 12.300 3.920 L 12.659 4.280 7.855 9.090 C 2.778 14.175,2.842 14.106,2.502 14.814 C 2.158 15.528,2.020 16.156,2.020 17.000 C 2.020 17.675,2.063 17.970,2.247 18.540 C 2.732 20.052,3.966 21.282,5.468 21.753 C 6.087 21.947,6.293 21.978,6.980 21.979 C 7.845 21.980,8.464 21.845,9.186 21.498 C 9.894 21.158,9.825 21.222,14.910 16.145 L 19.720 11.341 20.080 11.700 L 20.441 12.059 21.150 11.349 L 21.860 10.640 17.620 6.400 C 15.288 4.068,13.371 2.160,13.360 2.160 C 13.348 2.160,13.025 2.475,12.640 2.860 M17.290 10.970 L 16.261 12.000 12.000 12.000 L 7.740 12.000 10.900 8.840 L 14.060 5.680 16.190 7.810 L 18.320 9.940 17.290 10.970 M11.740 16.523 C 10.354 17.910,9.087 19.153,8.926 19.284 C 8.585 19.561,8.299 19.714,7.879 19.846 C 7.623 19.927,7.497 19.940,7.000 19.940 C 6.503 19.940,6.377 19.927,6.121 19.846 C 5.409 19.623,4.912 19.252,4.506 18.640 C 4.153 18.108,4.021 17.661,4.021 17.000 C 4.021 16.043,4.285 15.495,5.208 14.539 L 5.729 14.000 9.994 14.000 L 14.260 14.000 11.740 16.523 " stroke="none" fill-rule="evenodd" fill="black"></path></svg>