<svg viewBox="0 0 24 24" xmlns="http://www.w3.org/2000/svg"><path d="M3.580 5.047 C 2.858 5.186,2.199 5.848,2.044 6.592 C 1.982 6.890,1.982 17.110,2.044 17.408 C 2.201 18.158,2.842 18.799,3.592 18.956 C 3.891 19.018,16.109 19.018,16.408 18.956 C 17.073 18.817,17.641 18.319,17.892 17.654 C 17.977 17.428,17.981 17.356,18.000 15.552 L 18.020 13.683 20.010 15.342 L 22.000 17.001 22.000 12.000 L 22.000 6.999 20.010 8.658 L 18.020 10.317 18.000 8.448 C 17.981 6.767,17.972 6.560,17.906 6.380 C 17.684 5.776,17.251 5.338,16.647 5.107 L 16.420 5.020 10.100 5.014 C 6.198 5.010,3.704 5.023,3.580 5.047 M16.000 12.000 L 16.000 17.000 10.000 17.000 L 4.000 17.000 4.000 12.000 L 4.000 7.000 10.000 7.000 L 16.000 7.000 16.000 12.000 M9.000 9.500 L 9.000 11.000 7.500 11.000 L 6.000 11.000 6.000 12.000 L 6.000 13.000 7.500 13.000 L 9.000 13.000 9.000 14.500 L 9.000 16.000 10.000 16.000 L 11.000 16.000 11.000 14.500 L 11.000 13.000 12.500 13.000 L 14.000 13.000 14.000 12.000 L 14.000 11.000 12.500 11.000 L 11.000 11.000 11.000 9.500 L 11.000 8.000 10.000 8.000 L 9.000 8.000 9.000 9.500 " stroke="none" fill-rule="evenodd" fill="black"></path></svg>