<svg viewBox="0 0 24 24" xmlns="http://www.w3.org/2000/svg"><path d="M10.680 7.940 C 8.059 8.233,5.720 9.287,3.847 11.022 L 3.554 11.293 4.247 11.987 C 4.627 12.368,4.955 12.680,4.974 12.680 C 4.994 12.680,5.124 12.574,5.262 12.444 C 6.698 11.101,8.612 10.219,10.700 9.939 C 11.343 9.852,12.657 9.852,13.300 9.939 C 14.880 10.151,16.314 10.685,17.580 11.532 C 18.003 11.815,18.594 12.285,18.818 12.517 C 18.905 12.606,18.995 12.680,19.019 12.680 C 19.042 12.680,19.373 12.368,19.753 11.987 L 20.446 11.293 20.153 11.022 C 18.236 9.247,15.830 8.183,13.143 7.922 C 12.567 7.866,11.257 7.876,10.680 7.940 M11.180 12.044 C 9.480 12.204,7.816 12.937,6.575 14.075 L 6.329 14.300 7.030 15.006 L 7.732 15.712 8.036 15.452 C 8.858 14.750,9.834 14.290,10.920 14.093 C 11.450 13.997,12.557 13.999,13.100 14.097 C 14.159 14.287,15.150 14.757,15.964 15.452 L 16.268 15.712 16.970 15.006 L 17.671 14.300 17.425 14.075 C 15.776 12.564,13.509 11.827,11.180 12.044 M11.580 16.047 C 10.707 16.214,10.000 17.087,10.000 18.000 C 10.000 18.920,10.690 19.768,11.592 19.956 C 12.816 20.211,14.000 19.249,14.000 18.000 C 14.000 17.477,13.790 16.983,13.404 16.596 C 12.913 16.106,12.277 15.914,11.580 16.047 " stroke="none" fill-rule="evenodd" fill="black"></path></svg>