<svg viewBox="0 0 24 24" xmlns="http://www.w3.org/2000/svg"><path d="M13.720 2.045 C 12.028 2.219,10.467 2.958,9.239 4.165 C 7.320 6.053,6.573 8.757,7.244 11.388 L 7.331 11.727 5.033 14.034 C 2.528 16.548,2.583 16.483,2.458 17.073 C 2.387 17.409,2.387 17.513,2.461 17.859 C 2.578 18.413,2.620 18.468,4.016 19.872 C 4.722 20.582,5.386 21.219,5.490 21.286 C 5.887 21.541,6.444 21.644,6.907 21.546 C 7.519 21.417,7.442 21.482,9.965 18.968 L 12.271 16.671 12.705 16.774 C 13.337 16.924,13.594 16.960,14.220 16.986 C 16.602 17.088,18.937 16.006,20.407 14.118 C 21.501 12.714,22.042 11.066,21.988 9.300 C 21.954 8.194,21.821 7.619,21.290 6.300 C 21.105 5.838,20.935 5.416,20.914 5.362 C 20.878 5.269,20.764 5.376,18.758 7.382 L 16.640 9.500 15.570 8.430 L 14.500 7.360 16.612 5.248 L 18.725 3.135 18.614 3.085 C 18.197 2.895,16.991 2.427,16.660 2.326 C 15.716 2.040,14.711 1.944,13.720 2.045 M14.949 4.032 C 14.981 4.053,14.444 4.616,13.339 5.721 L 11.680 7.380 14.150 9.850 L 16.620 12.320 18.287 10.653 C 20.200 8.741,20.030 8.836,19.988 9.696 C 19.845 12.598,17.692 14.783,14.778 14.982 C 14.008 15.035,13.145 14.881,12.306 14.542 C 12.059 14.442,11.840 14.360,11.819 14.360 C 11.797 14.360,10.610 15.530,9.180 16.960 C 7.750 18.390,6.562 19.560,6.540 19.560 C 6.488 19.560,4.440 17.513,4.440 17.460 C 4.440 17.438,5.614 16.246,7.049 14.811 L 9.658 12.202 9.592 12.031 C 9.556 11.937,9.454 11.671,9.366 11.440 C 9.109 10.766,9.027 10.301,9.026 9.500 C 9.025 8.947,9.042 8.743,9.114 8.409 C 9.503 6.596,10.675 5.162,12.358 4.437 C 12.776 4.256,13.373 4.095,13.807 4.044 C 14.188 4.000,14.886 3.993,14.949 4.032 " stroke="none" fill-rule="evenodd" fill="black"></path></svg>