<svg viewBox="0 0 24 24" xmlns="http://www.w3.org/2000/svg"><path d="M8.940 2.044 C 7.511 2.245,6.416 3.354,6.257 4.761 L 6.230 5.000 7.234 5.000 L 8.238 5.000 8.261 4.890 C 8.300 4.697,8.448 4.441,8.594 4.313 C 8.844 4.093,9.054 4.025,9.480 4.022 C 9.814 4.021,9.889 4.034,10.100 4.132 C 10.416 4.279,10.725 4.587,10.866 4.896 C 10.962 5.105,10.978 5.191,10.978 5.500 C 10.979 5.807,10.963 5.894,10.872 6.090 C 10.722 6.411,10.414 6.724,10.109 6.865 L 9.860 6.980 5.930 6.991 L 2.000 7.002 2.000 8.002 L 2.000 9.003 6.050 8.991 L 10.100 8.980 10.452 8.869 C 11.667 8.489,12.500 7.655,12.867 6.452 C 12.962 6.137,12.974 6.037,12.974 5.500 C 12.974 4.963,12.962 4.863,12.867 4.548 C 12.340 2.820,10.728 1.792,8.940 2.044 M17.433 5.040 C 16.864 5.131,16.219 5.380,15.773 5.683 C 15.103 6.137,14.578 6.789,14.285 7.528 C 14.147 7.876,14.000 8.540,14.000 8.816 L 14.000 9.000 14.993 9.000 L 15.986 9.000 16.033 8.695 C 16.101 8.260,16.277 7.916,16.596 7.596 C 17.656 6.537,19.419 6.965,19.904 8.400 C 20.015 8.727,20.004 9.340,19.881 9.660 C 19.622 10.332,19.071 10.818,18.408 10.956 C 18.257 10.987,15.856 11.000,10.098 11.000 L 2.000 11.000 2.000 12.000 L 2.000 13.000 10.184 13.000 C 18.269 13.000,18.372 12.999,18.769 12.918 C 20.372 12.591,21.591 11.372,21.918 9.769 C 22.179 8.487,21.764 7.119,20.829 6.185 C 20.325 5.682,19.625 5.283,18.958 5.120 C 18.572 5.026,17.783 4.984,17.433 5.040 M2.000 16.000 L 2.000 17.000 4.000 17.000 L 6.000 17.000 6.000 16.000 L 6.000 15.000 4.000 15.000 L 2.000 15.000 2.000 16.000 M8.000 15.999 L 8.000 16.998 11.930 17.009 L 15.860 17.020 16.100 17.132 C 16.416 17.279,16.725 17.587,16.866 17.896 C 16.962 18.105,16.978 18.191,16.978 18.500 C 16.979 18.807,16.963 18.894,16.872 19.090 C 16.722 19.411,16.414 19.724,16.109 19.865 C 15.889 19.967,15.816 19.980,15.480 19.979 C 15.055 19.977,14.847 19.909,14.594 19.687 C 14.448 19.559,14.300 19.303,14.261 19.110 L 14.238 19.000 13.239 19.000 L 12.240 19.000 12.240 19.096 C 12.240 19.284,12.357 19.800,12.454 20.040 C 12.817 20.939,13.521 21.565,14.508 21.867 C 14.825 21.963,14.921 21.974,15.480 21.974 C 16.039 21.974,16.135 21.963,16.452 21.867 C 17.657 21.499,18.499 20.656,18.867 19.452 C 18.962 19.137,18.974 19.037,18.974 18.500 C 18.974 17.963,18.962 17.863,18.867 17.548 C 18.534 16.457,17.784 15.640,16.746 15.237 C 16.137 15.001,16.121 15.000,11.875 15.000 L 8.000 15.000 8.000 15.999 " stroke="none" fill-rule="evenodd" fill="black"></path></svg>