<svg viewBox="0 0 24 24" xmlns="http://www.w3.org/2000/svg"><path d="M5.480 4.540 L 3.020 7.000 5.490 9.470 L 7.960 11.940 8.660 11.240 L 9.360 10.541 8.090 9.270 L 6.820 8.000 13.410 8.000 L 20.000 8.000 20.000 7.000 L 20.000 6.000 13.410 6.000 L 6.820 6.000 8.090 4.730 L 9.360 3.459 8.670 2.770 C 8.290 2.390,7.970 2.080,7.959 2.080 C 7.949 2.080,6.833 3.187,5.480 4.540 M15.330 12.770 L 14.640 13.460 15.910 14.730 L 17.180 16.000 10.590 16.000 L 4.000 16.000 4.000 17.000 L 4.000 18.000 10.590 18.000 L 17.180 18.000 15.910 19.270 L 14.640 20.541 15.340 21.240 L 16.040 21.940 18.510 19.470 L 20.980 17.000 18.520 14.540 C 17.167 13.187,16.051 12.080,16.040 12.080 C 16.029 12.080,15.709 12.390,15.330 12.770 " stroke="none" fill-rule="evenodd" fill="black"></path></svg>