<svg viewBox="0 0 24 24" xmlns="http://www.w3.org/2000/svg"><path d="M6.600 6.500 L 5.901 7.200 8.300 9.600 L 10.700 12.000 8.300 14.400 L 5.900 16.800 6.600 17.500 L 7.300 18.200 10.400 15.100 L 13.500 12.000 10.400 8.900 L 7.300 5.800 6.600 6.500 M12.240 6.500 L 11.541 7.200 13.940 9.600 L 16.340 12.000 13.940 14.400 L 11.540 16.800 12.250 17.510 L 12.960 18.220 16.070 15.110 L 19.180 12.000 16.080 8.900 C 14.375 7.195,12.971 5.800,12.960 5.800 C 12.948 5.800,12.624 6.115,12.240 6.500 " stroke="none" fill-rule="evenodd" fill="black"></path></svg>