<svg viewBox="0 0 24 24" xmlns="http://www.w3.org/2000/svg"><path d="M16.350 1.750 L 15.640 2.460 16.910 3.730 L 18.180 5.000 14.440 5.000 C 12.181 5.000,10.526 5.016,10.260 5.041 C 7.467 5.303,5.019 7.004,3.800 9.529 C 1.880 13.503,3.549 18.278,7.529 20.200 C 8.346 20.595,9.257 20.856,10.180 20.959 C 10.401 20.984,12.367 20.999,15.270 21.000 L 20.000 21.000 20.000 20.001 L 20.000 19.002 15.110 18.991 L 10.220 18.979 9.826 18.890 C 7.878 18.447,6.417 17.297,5.577 15.545 C 5.182 14.721,5.024 13.991,5.024 13.000 C 5.024 12.009,5.182 11.279,5.577 10.455 C 6.432 8.671,7.954 7.497,9.940 7.091 C 10.220 7.034,10.749 7.024,14.220 7.012 L 18.180 6.998 16.910 8.269 L 15.640 9.541 16.340 10.240 L 17.040 10.940 19.520 8.460 L 22.000 5.980 19.530 3.510 L 17.060 1.040 16.350 1.750 " stroke="none" fill-rule="evenodd" fill="black"></path></svg>