<svg viewBox="0 0 24 24" xmlns="http://www.w3.org/2000/svg"><path d="M7.920 8.900 L 4.820 12.000 7.930 15.110 L 11.040 18.220 11.750 17.510 L 12.460 16.800 10.060 14.400 L 7.660 12.000 10.060 9.600 L 12.459 7.200 11.760 6.500 C 11.376 6.115,11.052 5.800,11.040 5.800 C 11.029 5.800,9.625 7.195,7.920 8.900 M13.600 8.900 L 10.500 12.000 13.600 15.100 L 16.700 18.200 17.400 17.500 L 18.100 16.800 15.700 14.400 L 13.300 12.000 15.700 9.600 L 18.100 7.200 17.400 6.500 L 16.700 5.800 13.600 8.900 " stroke="none" fill-rule="evenodd" fill="black"></path></svg>