<svg viewBox="0 0 24 24" xmlns="http://www.w3.org/2000/svg"><path d="M11.120 2.039 C 8.336 2.318,5.905 3.624,4.193 5.760 C 1.474 9.155,1.267 13.917,3.682 17.533 C 6.770 22.155,12.946 23.386,17.560 20.299 C 22.155 17.225,23.377 11.041,20.299 6.440 C 18.728 4.092,16.319 2.562,13.493 2.119 C 12.909 2.027,11.660 1.985,11.120 2.039 M13.000 10.000 L 13.000 12.000 14.510 12.000 L 16.020 12.000 14.020 14.000 L 12.020 16.000 10.030 14.010 L 8.040 12.020 9.520 12.010 L 11.000 11.999 11.000 10.000 L 11.000 8.000 12.000 8.000 L 13.000 8.000 13.000 10.000 " stroke="none" fill-rule="evenodd" fill="black"></path></svg>