<svg viewBox="0 0 24 24" xmlns="http://www.w3.org/2000/svg"><path d="M6.480 4.500 L 5.780 5.200 8.890 8.310 L 12.000 11.420 15.110 8.310 L 18.220 5.200 17.510 4.490 L 16.800 3.780 14.400 6.180 L 12.000 8.580 9.610 6.190 C 8.295 4.875,7.211 3.800,7.199 3.800 C 7.188 3.800,6.864 4.115,6.480 4.500 M8.890 15.690 L 5.800 18.780 6.510 19.490 L 7.220 20.200 9.610 17.810 L 12.000 15.420 14.390 17.810 L 16.781 20.200 17.490 19.490 L 18.200 18.779 15.110 15.690 C 13.410 13.990,12.011 12.600,12.000 12.600 C 11.989 12.600,10.589 13.991,8.890 15.690 " stroke="none" fill-rule="evenodd" fill="black"></path></svg>