<svg viewBox="0 0 24 24" xmlns="http://www.w3.org/2000/svg"><path d="M11.210 7.778 C 9.466 9.532,8.040 10.979,8.040 10.993 C 8.040 11.008,9.471 12.451,11.220 14.200 L 14.400 17.380 14.400 14.690 L 14.400 12.000 16.200 12.000 L 18.000 12.000 18.000 15.500 L 18.000 19.000 19.000 19.000 L 20.000 19.000 20.000 14.500 L 20.000 10.000 17.200 10.000 L 14.401 10.000 14.390 7.294 L 14.380 4.589 11.210 7.778 M5.560 7.820 L 2.380 11.000 5.560 14.180 L 8.740 17.360 9.450 16.650 L 10.160 15.941 7.690 13.470 L 5.220 11.000 7.690 8.530 L 10.160 6.059 9.450 5.350 L 8.740 4.640 5.560 7.820 " stroke="none" fill-rule="evenodd" fill="black"></path></svg>