<svg viewBox="0 0 24 24" xmlns="http://www.w3.org/2000/svg"><path d="M9.600 7.290 L 9.600 10.000 6.800 10.000 L 4.000 10.000 4.000 14.500 L 4.000 19.000 5.000 19.000 L 6.000 19.000 6.000 15.500 L 6.000 12.000 7.800 12.000 L 9.599 12.000 9.610 14.680 L 9.620 17.360 12.810 14.170 L 16.000 10.980 12.800 7.780 L 9.600 4.580 9.600 7.290 M14.550 5.350 L 13.840 6.060 16.310 8.530 L 18.780 11.000 16.310 13.470 L 13.840 15.941 14.550 16.650 L 15.260 17.360 18.440 14.180 L 21.620 11.000 18.440 7.820 L 15.260 4.640 14.550 5.350 " stroke="none" fill-rule="evenodd" fill="black"></path></svg>