<svg viewBox="0 0 24 24" xmlns="http://www.w3.org/2000/svg">
  <path d="m5.636 12.707 1.829 1.829 1.414-1.415-1.829-1.828 1.415-1.414 1.828 1.828 1.414-1.414L9.88 8.465l1.414-1.415 1.828 1.829 1.415-1.414-1.829-1.829 2.829-2.828a1 1 0 0 1 1.414 0l4.242 4.242a1 1 0 0 1 0 1.415L8.465 21.192a1 1 0 0 1-1.415 0L2.808 16.95a1 1 0 0 1 0-1.414l2.828-2.829Zm8.485 5.656 4.243-4.242L21 16.757V21h-4.242l-2.637-2.637ZM5.636 9.878 2.808 7.05a1 1 0 0 1 0-1.415l2.828-2.828a1 1 0 0 1 1.414 0l2.83 2.828-4.244 4.243Z"/>
</svg>
