<svg viewBox="0 0 24 24" xmlns="http://www.w3.org/2000/svg"><path d="M14.620 2.536 C 13.915 2.653,13.148 2.919,12.590 3.240 C 11.880 3.649,11.735 3.783,8.045 7.459 C 6.057 9.440,4.277 11.231,4.090 11.440 C 2.394 13.330,2.024 15.877,3.118 18.140 C 3.689 19.322,4.678 20.311,5.860 20.882 C 7.585 21.716,9.475 21.708,11.180 20.859 C 12.072 20.415,12.043 20.442,16.262 16.222 C 20.276 12.207,20.356 12.121,20.784 11.371 C 21.113 10.794,21.382 9.987,21.481 9.280 C 21.504 9.115,21.523 8.742,21.523 8.452 C 21.523 6.895,20.949 5.460,19.884 4.349 C 19.024 3.452,18.061 2.903,16.840 2.613 C 16.492 2.530,16.294 2.511,15.680 2.498 C 15.184 2.488,14.834 2.500,14.620 2.536 M16.606 4.614 C 17.075 4.754,17.341 4.877,17.744 5.139 C 18.605 5.700,19.233 6.635,19.448 7.675 C 19.562 8.222,19.533 9.027,19.382 9.540 C 19.238 10.029,19.008 10.492,18.723 10.867 C 18.592 11.039,17.823 11.841,17.012 12.650 L 15.540 14.120 12.709 11.289 L 9.878 8.458 11.449 6.896 C 12.582 5.770,13.103 5.280,13.316 5.140 C 13.785 4.832,14.342 4.617,14.960 4.504 C 15.015 4.494,15.330 4.492,15.660 4.499 C 16.164 4.509,16.315 4.528,16.606 4.614 M12.650 17.012 C 11.175 18.490,10.759 18.858,10.305 19.088 C 9.656 19.416,9.055 19.540,8.271 19.510 C 7.693 19.487,7.285 19.392,6.774 19.160 C 5.762 18.701,4.960 17.758,4.614 16.620 C 4.513 16.285,4.505 16.210,4.505 15.540 C 4.505 14.872,4.513 14.795,4.613 14.469 C 4.916 13.481,5.042 13.313,6.896 11.449 L 8.458 9.878 11.289 12.709 L 14.120 15.540 12.650 17.012 " stroke="none" fill-rule="evenodd" fill="black"></path></svg>