<svg viewBox="0 0 24 24" xmlns="http://www.w3.org/2000/svg"><path d="M14.620 2.536 C 13.915 2.653,13.148 2.919,12.590 3.240 C 11.880 3.649,11.735 3.783,8.045 7.459 C 6.057 9.440,4.277 11.231,4.090 11.440 C 2.394 13.330,2.024 15.877,3.118 18.140 C 3.689 19.322,4.678 20.311,5.860 20.882 C 7.585 21.716,9.475 21.708,11.180 20.859 C 12.072 20.415,12.043 20.442,16.262 16.222 C 20.276 12.207,20.356 12.121,20.784 11.371 C 21.113 10.794,21.382 9.987,21.481 9.280 C 21.504 9.115,21.523 8.742,21.523 8.452 C 21.523 6.895,20.949 5.460,19.884 4.349 C 19.024 3.452,18.061 2.903,16.840 2.613 C 16.492 2.530,16.294 2.511,15.680 2.498 C 15.184 2.488,14.834 2.500,14.620 2.536 M12.010 11.990 C 13.544 13.524,14.800 14.798,14.800 14.821 C 14.800 14.898,11.024 18.625,10.760 18.809 C 10.275 19.147,9.679 19.389,9.103 19.482 C 8.628 19.559,7.819 19.513,7.389 19.384 C 6.011 18.974,5.033 17.999,4.614 16.620 C 4.513 16.285,4.505 16.210,4.505 15.540 C 4.505 14.872,4.513 14.795,4.613 14.469 C 4.672 14.275,4.774 14.000,4.839 13.856 C 5.102 13.276,5.267 13.087,7.235 11.110 C 8.281 10.059,9.156 9.200,9.179 9.200 C 9.201 9.200,10.475 10.455,12.010 11.990 " stroke="none" fill-rule="evenodd" fill="black"></path></svg>