<svg viewBox="0 0 24 24" xmlns="http://www.w3.org/2000/svg"><path d="M2.110 2.110 L 1.400 2.821 2.475 3.895 L 3.550 4.969 3.285 5.300 C 2.795 5.910,2.410 6.685,2.202 7.480 C 1.835 8.878,1.987 10.378,2.624 11.653 C 3.045 12.497,2.933 12.374,7.616 17.090 C 10.013 19.505,11.988 21.480,12.004 21.480 C 12.020 21.480,12.930 20.572,14.027 19.461 L 16.020 17.443 17.900 19.322 L 19.781 21.200 20.490 20.490 L 21.200 19.780 12.010 10.590 L 2.820 1.400 2.110 2.110 M7.429 3.033 L 7.278 3.060 8.409 4.186 C 9.374 5.148,9.578 5.332,9.800 5.442 C 10.185 5.633,10.444 5.823,11.000 6.319 C 11.275 6.565,11.613 6.866,11.751 6.989 L 12.003 7.212 12.111 7.114 C 13.431 5.914,13.763 5.651,14.260 5.416 C 16.061 4.562,18.155 5.117,19.282 6.747 C 20.233 8.122,20.220 9.929,19.249 11.320 C 19.149 11.463,18.702 11.949,18.254 12.401 L 17.441 13.222 18.141 13.921 L 18.842 14.620 19.794 13.660 C 20.496 12.952,20.807 12.609,20.975 12.353 C 21.422 11.673,21.708 10.989,21.886 10.174 C 22.005 9.630,22.014 8.522,21.905 7.940 C 21.515 5.854,20.136 4.193,18.134 3.398 C 16.210 2.633,13.802 3.027,12.190 4.369 L 12.000 4.527 11.810 4.369 C 11.090 3.770,10.132 3.318,9.160 3.119 C 8.722 3.030,7.722 2.980,7.429 3.033 M13.310 17.350 L 12.000 18.660 8.536 15.200 C 6.462 13.129,4.974 11.612,4.830 11.420 C 4.530 11.024,4.236 10.415,4.115 9.940 C 4.040 9.646,4.023 9.474,4.023 9.000 C 4.023 8.526,4.040 8.354,4.115 8.060 C 4.228 7.619,4.524 6.987,4.778 6.644 L 4.968 6.388 9.794 11.214 L 14.620 16.040 13.310 17.350 " stroke="none" fill-rule="evenodd" fill="black"></path></svg>