<svg viewBox="0 0 24 24" xmlns="http://www.w3.org/2000/svg"><path d="M11.433 1.040 C 10.843 1.134,10.221 1.380,9.731 1.712 C 8.955 2.240,8.394 3.037,8.130 3.989 C 8.034 4.337,8.022 4.449,8.022 5.000 C 8.022 5.553,8.034 5.663,8.132 6.017 C 8.475 7.256,9.357 8.252,10.520 8.715 C 12.334 9.437,14.462 8.710,15.444 7.033 C 16.503 5.224,15.985 2.878,14.269 1.712 C 13.917 1.473,13.343 1.214,12.958 1.120 C 12.572 1.026,11.783 0.984,11.433 1.040 M7.960 9.840 C 5.946 10.114,4.478 11.781,4.477 13.798 C 4.476 14.568,4.664 15.253,5.047 15.885 C 5.228 16.183,5.588 16.558,8.335 19.314 C 10.507 21.493,11.467 22.430,11.580 22.481 C 11.841 22.599,12.010 22.614,12.267 22.541 C 12.499 22.475,12.508 22.466,15.573 19.407 C 18.828 16.157,18.927 16.049,19.197 15.413 C 19.453 14.812,19.500 14.565,19.500 13.820 C 19.500 13.233,19.487 13.093,19.407 12.800 C 18.996 11.294,17.822 10.203,16.260 9.875 C 15.914 9.802,15.087 9.814,14.701 9.898 C 13.880 10.076,13.312 10.408,12.550 11.155 L 12.000 11.694 11.450 11.155 C 10.851 10.567,10.507 10.325,9.953 10.101 C 9.373 9.866,8.557 9.759,7.960 9.840 " stroke="none" fill-rule="evenodd" fill="black"></path></svg>