<svg viewBox="0 0 24 24" xmlns="http://www.w3.org/2000/svg"><path d="M11.433 1.040 C 10.843 1.134,10.221 1.380,9.731 1.712 C 8.955 2.240,8.394 3.037,8.130 3.989 C 8.034 4.337,8.022 4.449,8.022 5.000 C 8.022 5.553,8.034 5.663,8.132 6.017 C 8.475 7.256,9.357 8.252,10.520 8.715 C 12.334 9.437,14.462 8.710,15.444 7.033 C 16.503 5.224,15.985 2.878,14.269 1.712 C 13.917 1.473,13.343 1.214,12.958 1.120 C 12.572 1.026,11.783 0.984,11.433 1.040 M12.383 3.043 C 13.185 3.190,13.839 3.872,13.967 4.695 C 14.153 5.894,13.209 7.000,12.000 7.000 C 11.032 7.000,10.183 6.268,10.033 5.305 C 9.933 4.663,10.132 4.061,10.596 3.596 C 11.085 3.108,11.698 2.918,12.383 3.043 M7.960 9.840 C 5.946 10.114,4.478 11.781,4.477 13.798 C 4.476 14.568,4.664 15.253,5.047 15.885 C 5.228 16.183,5.588 16.558,8.335 19.314 C 10.507 21.493,11.467 22.430,11.580 22.481 C 11.841 22.599,12.010 22.614,12.267 22.541 C 12.499 22.475,12.508 22.466,15.573 19.407 C 18.828 16.157,18.927 16.049,19.197 15.413 C 19.453 14.812,19.500 14.565,19.500 13.820 C 19.500 13.233,19.487 13.093,19.407 12.800 C 18.996 11.294,17.822 10.203,16.260 9.875 C 15.914 9.802,15.087 9.814,14.701 9.898 C 13.880 10.076,13.312 10.408,12.550 11.155 L 12.000 11.694 11.450 11.155 C 10.851 10.567,10.507 10.325,9.953 10.101 C 9.373 9.866,8.557 9.759,7.960 9.840 M8.891 11.859 C 9.421 11.971,9.555 12.074,10.830 13.336 L 11.999 14.494 13.170 13.336 C 14.241 12.275,14.366 12.164,14.643 12.028 C 15.415 11.650,16.271 11.778,16.897 12.363 C 17.305 12.744,17.521 13.243,17.519 13.797 C 17.518 14.175,17.469 14.389,17.310 14.720 C 17.197 14.956,16.946 15.220,14.593 17.580 L 12.000 20.180 9.408 17.580 C 7.130 15.295,6.802 14.951,6.702 14.740 C 6.317 13.931,6.434 13.062,7.009 12.454 C 7.518 11.916,8.177 11.707,8.891 11.859 " stroke="none" fill-rule="evenodd" fill="black"></path></svg>