<svg viewBox="0 0 24 24" xmlns="http://www.w3.org/2000/svg"><path d="M6.981 2.045 C 6.210 2.157,5.365 2.630,4.606 3.373 C 4.211 3.761,3.709 4.350,3.729 4.404 C 3.735 4.421,4.090 4.698,4.518 5.019 L 5.296 5.602 5.398 5.472 C 6.016 4.681,6.613 4.198,7.138 4.062 C 7.336 4.011,7.686 4.000,9.188 4.000 L 11.000 4.000 11.000 5.000 L 11.000 6.000 9.500 6.000 L 8.000 6.000 8.000 6.994 L 8.000 7.989 7.690 8.016 C 7.006 8.076,6.296 8.329,5.731 8.712 C 4.965 9.233,4.409 10.017,4.131 10.968 L 4.022 11.340 4.009 15.740 C 3.999 18.917,4.008 20.207,4.041 20.380 C 4.186 21.143,4.829 21.797,5.592 21.956 C 5.891 22.018,18.109 22.018,18.408 21.956 C 19.171 21.797,19.814 21.143,19.959 20.380 C 19.991 20.207,20.001 18.914,19.992 15.760 L 19.980 11.380 19.873 10.995 C 19.413 9.328,18.024 8.167,16.310 8.016 L 16.000 7.989 16.000 6.994 L 16.000 6.000 14.500 6.000 L 13.000 6.000 13.000 5.000 L 13.000 4.000 15.000 4.000 L 17.000 4.000 17.000 3.000 L 17.000 2.000 12.110 2.005 C 9.421 2.008,7.113 2.025,6.981 2.045 M16.383 10.043 C 17.151 10.184,17.816 10.849,17.957 11.617 C 17.986 11.778,18.000 13.175,18.000 15.927 L 18.000 20.000 12.000 20.000 L 6.000 20.000 6.000 15.927 C 6.000 13.175,6.014 11.778,6.043 11.617 C 6.180 10.868,6.847 10.187,7.580 10.047 C 7.873 9.991,16.079 9.988,16.383 10.043 M11.000 13.000 L 11.000 14.000 10.000 14.000 L 9.000 14.000 9.000 15.000 L 9.000 16.000 10.000 16.000 L 11.000 16.000 11.000 17.000 L 11.000 18.000 12.000 18.000 L 13.000 18.000 13.000 17.000 L 13.000 16.000 14.000 16.000 L 15.000 16.000 15.000 15.000 L 15.000 14.000 14.000 14.000 L 13.000 14.000 13.000 13.000 L 13.000 12.000 12.000 12.000 L 11.000 12.000 11.000 13.000 " stroke="none" fill-rule="evenodd" fill="black"></path></svg>