<svg viewBox="0 0 24 24" xmlns="http://www.w3.org/2000/svg"><path d="M7.180 3.055 C 4.880 3.390,2.987 4.979,2.288 7.161 C 2.068 7.848,2.021 8.181,2.022 9.020 C 2.024 9.649,2.039 9.850,2.112 10.188 C 2.281 10.967,2.585 11.691,3.017 12.340 C 3.221 12.647,3.901 13.350,7.614 17.090 C 10.011 19.505,11.983 21.480,11.996 21.480 C 12.009 21.480,13.983 19.504,16.382 17.090 C 21.065 12.376,20.964 12.486,21.380 11.653 C 21.590 11.231,21.771 10.703,21.888 10.170 C 22.004 9.644,22.015 8.481,21.909 7.940 C 21.425 5.473,19.614 3.634,17.160 3.116 C 16.551 2.987,15.441 2.987,14.840 3.115 C 14.279 3.235,13.803 3.398,13.352 3.624 C 12.524 4.040,12.464 4.091,10.030 6.517 L 7.759 8.779 7.050 8.069 L 6.340 7.360 8.296 5.404 C 10.010 3.690,10.242 3.444,10.175 3.409 C 10.046 3.340,9.436 3.167,9.080 3.099 C 8.624 3.011,7.638 2.989,7.180 3.055 " stroke="none" fill-rule="evenodd" fill="black"></path></svg>