<svg viewBox="0 0 24 24" xmlns="http://www.w3.org/2000/svg"><path d="M6.440 3.024 C 4.991 3.196,3.750 3.779,2.782 4.740 C 1.564 5.950,0.948 7.510,1.013 9.220 C 1.048 10.152,1.229 10.861,1.644 11.700 C 2.034 12.486,2.068 12.523,6.683 17.160 L 11.003 21.500 12.482 20.002 L 13.960 18.504 14.130 18.661 C 14.224 18.748,14.906 19.420,15.647 20.156 L 16.995 21.494 19.783 18.737 C 21.317 17.221,22.660 15.863,22.769 15.720 C 23.481 14.785,23.682 13.575,23.312 12.451 C 22.982 11.449,22.139 10.575,21.169 10.231 L 20.912 10.140 20.936 9.960 C 20.996 9.510,21.009 8.711,20.963 8.336 C 20.642 5.706,18.765 3.666,16.160 3.116 C 15.551 2.987,14.441 2.987,13.840 3.115 C 12.839 3.329,11.913 3.767,11.190 4.369 L 11.000 4.527 10.810 4.369 C 10.082 3.763,9.140 3.319,8.160 3.119 C 7.755 3.037,6.784 2.983,6.440 3.024 M7.545 5.043 C 8.130 5.125,8.779 5.379,9.280 5.722 C 9.401 5.804,9.725 6.073,10.000 6.319 C 10.275 6.565,10.613 6.866,10.750 6.988 L 11.000 7.210 11.250 6.990 C 11.388 6.868,11.725 6.567,12.000 6.321 C 12.558 5.820,12.810 5.636,13.220 5.430 C 14.747 4.663,16.611 4.966,17.823 6.177 C 18.320 6.674,18.707 7.361,18.883 8.060 C 19.004 8.536,19.015 9.387,18.908 9.847 L 18.836 10.153 18.568 10.260 C 18.153 10.424,17.733 10.705,17.349 11.075 L 16.999 11.413 16.669 11.092 C 15.919 10.360,15.127 10.028,14.120 10.023 C 13.102 10.017,12.255 10.362,11.542 11.071 C 10.487 12.120,10.206 13.717,10.839 15.068 C 11.063 15.546,11.211 15.736,11.927 16.461 L 12.559 17.102 11.779 17.881 L 11.000 18.660 7.536 15.200 C 5.462 13.128,3.974 11.612,3.830 11.420 C 2.735 9.972,2.739 8.028,3.838 6.569 C 4.692 5.436,6.126 4.846,7.545 5.043 M14.502 12.062 C 14.633 12.096,14.821 12.171,14.920 12.229 C 15.019 12.286,15.527 12.756,16.050 13.274 L 16.999 14.214 17.970 13.254 C 19.019 12.216,19.147 12.122,19.636 12.031 C 20.310 11.906,21.035 12.275,21.342 12.901 C 21.450 13.119,21.460 13.176,21.460 13.561 C 21.460 14.272,21.558 14.146,19.102 16.600 L 17.000 18.700 14.898 16.600 C 12.442 14.146,12.540 14.272,12.540 13.561 C 12.540 13.176,12.550 13.119,12.658 12.901 C 12.995 12.214,13.756 11.868,14.502 12.062 " stroke="none" fill-rule="evenodd" fill="black"></path></svg>