<svg viewBox="0 0 24 24" xmlns="http://www.w3.org/2000/svg"><path d="M7.440 3.024 C 6.636 3.120,5.937 3.326,5.281 3.661 C 3.173 4.740,1.923 6.865,2.013 9.220 C 2.057 10.373,2.381 11.386,3.008 12.327 C 3.223 12.650,3.839 13.287,7.614 17.090 C 10.011 19.505,11.983 21.480,11.996 21.480 C 12.009 21.480,13.983 19.504,16.382 17.090 C 21.065 12.376,20.964 12.486,21.380 11.653 C 21.590 11.231,21.771 10.703,21.888 10.170 C 22.004 9.644,22.015 8.481,21.909 7.940 C 21.425 5.473,19.614 3.634,17.160 3.116 C 16.551 2.987,15.441 2.987,14.840 3.115 C 13.839 3.329,12.913 3.767,12.190 4.369 L 12.000 4.527 11.810 4.369 C 11.075 3.758,10.147 3.320,9.160 3.119 C 8.755 3.037,7.784 2.983,7.440 3.024 " stroke="none" fill-rule="evenodd" fill="black"></path></svg>