<svg viewBox="0 0 24 24" xmlns="http://www.w3.org/2000/svg"><path d="M6.865 3.040 C 5.099 3.263,3.536 4.372,2.712 5.985 C 2.425 6.547,2.231 7.124,2.094 7.820 C 1.993 8.331,1.993 9.719,2.093 10.360 C 2.467 12.751,3.620 14.862,5.678 16.923 C 6.740 17.986,7.875 18.897,9.356 19.875 C 10.161 20.407,11.929 21.480,12.000 21.480 C 12.071 21.480,13.839 20.407,14.644 19.875 C 17.090 18.260,18.992 16.482,20.179 14.700 C 21.873 12.157,22.431 9.209,21.662 6.862 C 21.008 4.866,19.425 3.460,17.400 3.074 C 16.965 2.991,15.889 3.012,15.430 3.112 C 14.240 3.372,13.068 3.992,12.210 4.816 L 12.000 5.017 11.790 4.816 C 10.936 3.996,9.745 3.365,8.591 3.119 C 8.164 3.028,7.277 2.987,6.865 3.040 " stroke="none" fill-rule="evenodd" fill="black"></path></svg>