<svg viewBox="0 0 24 24" xmlns="http://www.w3.org/2000/svg"><path d="M6.865 3.040 C 4.654 3.319,2.900 4.891,2.245 7.180 C 1.964 8.161,1.927 9.446,2.145 10.650 L 2.208 11.000 4.322 11.000 L 6.436 11.000 7.424 9.350 C 7.968 8.443,8.433 7.670,8.458 7.633 C 8.496 7.577,8.747 7.971,10.001 10.062 C 10.908 11.574,11.510 12.538,11.527 12.509 C 11.543 12.482,11.752 12.136,11.990 11.740 L 12.424 11.020 14.712 11.010 L 17.000 10.999 17.000 12.000 L 17.000 13.000 15.282 13.000 L 13.564 13.000 12.533 14.719 C 11.908 15.761,11.490 16.418,11.473 16.389 C 10.020 13.953,8.530 11.507,8.500 11.507 C 8.478 11.508,8.261 11.839,8.018 12.244 L 7.575 12.980 5.228 12.990 C 3.936 12.996,2.880 13.010,2.880 13.021 C 2.880 13.080,3.320 13.906,3.548 14.275 C 4.132 15.222,4.772 16.018,5.677 16.922 C 6.745 17.989,7.832 18.864,9.303 19.841 C 10.109 20.376,11.926 21.480,12.001 21.480 C 12.071 21.480,13.844 20.403,14.644 19.875 C 17.090 18.260,18.992 16.482,20.179 14.700 C 21.873 12.157,22.431 9.209,21.662 6.862 C 21.008 4.866,19.425 3.460,17.400 3.074 C 16.965 2.991,15.889 3.012,15.430 3.112 C 14.240 3.372,13.068 3.992,12.210 4.816 L 12.000 5.017 11.790 4.816 C 10.936 3.996,9.745 3.365,8.591 3.119 C 8.164 3.028,7.277 2.987,6.865 3.040 " stroke="none" fill-rule="evenodd" fill="black"></path></svg>