<svg viewBox="0 0 24 24" xmlns="http://www.w3.org/2000/svg"><path d="M6.924 2.170 C 6.883 2.264,5.994 4.266,4.948 6.620 C 3.902 8.974,3.040 10.924,3.033 10.954 C 3.024 10.991,3.387 11.163,4.170 11.493 C 5.058 11.867,5.316 11.991,5.301 12.039 C 5.291 12.072,4.778 14.287,4.162 16.960 C 3.546 19.633,3.032 21.861,3.020 21.911 L 2.998 22.001 7.689 21.991 L 12.380 21.980 12.546 21.891 C 12.753 21.781,12.988 21.510,13.040 21.323 C 13.093 21.132,13.090 20.843,13.034 20.676 C 13.009 20.601,12.772 20.225,12.507 19.840 C 12.242 19.455,12.025 19.113,12.025 19.080 C 12.025 19.047,12.159 18.341,12.322 17.510 L 12.620 16.001 13.494 16.000 C 14.476 16.000,14.927 15.935,15.480 15.715 C 16.642 15.253,17.543 14.233,17.868 13.012 C 17.959 12.668,17.974 12.521,17.990 11.810 L 18.008 11.000 19.504 11.000 L 21.000 11.000 21.000 6.500 L 21.000 2.000 13.999 2.000 L 6.997 2.000 6.924 2.170 M19.000 6.500 L 19.000 9.000 15.481 9.000 L 11.962 9.000 11.941 9.090 C 11.929 9.139,11.461 11.511,10.901 14.360 L 9.882 19.540 10.021 19.749 C 10.098 19.865,10.160 19.968,10.160 19.979 C 10.160 19.991,9.114 20.000,7.836 20.000 L 5.511 20.000 5.536 19.901 C 5.647 19.460,7.639 10.786,7.631 10.781 C 7.625 10.778,7.197 10.598,6.680 10.383 C 6.163 10.167,5.724 9.976,5.704 9.958 C 5.684 9.939,6.239 8.640,6.984 6.963 L 8.300 4.001 13.650 4.000 L 19.000 4.000 19.000 6.500 M16.000 11.573 C 16.000 11.888,15.980 12.252,15.957 12.383 C 15.819 13.138,15.170 13.797,14.408 13.956 C 14.291 13.980,13.930 14.000,13.604 14.000 L 13.013 14.000 13.281 12.650 C 13.428 11.908,13.561 11.232,13.576 11.150 L 13.604 11.000 14.802 11.000 L 16.000 11.000 16.000 11.573 " stroke="none" fill-rule="evenodd" fill="black"></path></svg>