<svg viewBox="0 0 24 24" xmlns="http://www.w3.org/2000/svg"><path d="M11.000 6.500 L 11.000 11.000 12.000 11.000 L 13.000 11.000 13.000 6.500 L 13.000 2.000 12.000 2.000 L 11.000 2.000 11.000 6.500 M7.440 5.403 C 6.712 5.482,6.068 5.822,5.365 6.499 C 3.500 8.295,2.298 11.608,2.036 15.680 C 1.982 16.514,2.010 19.099,2.077 19.480 C 2.168 19.999,2.274 20.240,2.517 20.483 C 2.760 20.726,3.004 20.833,3.520 20.922 C 3.911 20.990,6.186 21.019,6.717 20.964 C 7.900 20.840,8.826 20.421,9.523 19.696 C 10.263 18.925,10.685 17.964,10.899 16.560 C 11.007 15.856,11.092 11.837,11.001 11.781 C 10.980 11.767,10.150 12.225,9.158 12.798 C 8.165 13.371,7.339 13.840,7.322 13.840 C 7.275 13.840,6.311 12.155,6.341 12.126 C 6.355 12.111,7.369 11.522,8.593 10.815 C 10.772 9.557,10.820 9.527,10.807 9.415 C 10.781 9.180,10.632 8.488,10.532 8.140 C 10.381 7.614,10.163 7.096,9.941 6.736 C 9.710 6.364,9.223 5.861,8.940 5.704 C 8.481 5.450,7.965 5.347,7.440 5.403 M15.960 5.406 C 15.454 5.467,15.012 5.679,14.613 6.052 C 13.959 6.664,13.503 7.688,13.241 9.130 L 13.170 9.520 13.295 9.595 C 13.364 9.637,14.365 10.215,15.520 10.880 C 16.675 11.545,17.635 12.103,17.653 12.120 C 17.689 12.152,16.732 13.840,16.678 13.840 C 16.661 13.840,15.835 13.371,14.842 12.798 C 13.850 12.225,13.018 11.769,12.993 11.784 C 12.938 11.818,12.980 15.318,13.044 16.040 C 13.125 16.961,13.386 17.975,13.703 18.606 C 14.276 19.746,15.226 20.509,16.457 20.820 C 17.079 20.977,17.601 21.012,18.970 20.989 C 20.259 20.967,20.555 20.938,21.000 20.792 C 21.365 20.672,21.672 20.365,21.792 20.000 C 21.942 19.542,21.969 19.250,21.989 17.823 C 22.026 15.281,21.849 13.602,21.340 11.654 C 20.764 9.451,19.819 7.643,18.655 6.519 C 17.759 5.653,16.887 5.293,15.960 5.406 " stroke="none" fill-rule="evenodd" fill="black"></path></svg>