<svg viewBox="0 0 24 24" xmlns="http://www.w3.org/2000/svg"><path d="M11.000 5.712 L 11.000 9.424 8.690 10.756 C 7.420 11.489,6.365 12.103,6.346 12.120 C 6.310 12.154,7.264 13.840,7.320 13.840 C 7.338 13.840,8.399 13.236,9.677 12.499 L 12.000 11.157 14.323 12.499 C 15.601 13.236,16.662 13.840,16.680 13.840 C 16.736 13.840,17.690 12.154,17.654 12.120 C 17.635 12.103,16.581 11.489,15.310 10.756 L 13.000 9.424 13.000 5.712 L 13.000 2.000 12.000 2.000 L 11.000 2.000 11.000 5.712 M7.440 5.403 C 6.712 5.482,6.068 5.822,5.365 6.499 C 3.500 8.295,2.298 11.608,2.036 15.680 C 1.982 16.514,2.010 19.099,2.077 19.480 C 2.168 19.999,2.274 20.240,2.517 20.483 C 2.760 20.726,3.004 20.833,3.520 20.922 C 3.911 20.990,6.186 21.019,6.717 20.964 C 7.900 20.840,8.826 20.421,9.523 19.696 C 10.263 18.925,10.685 17.964,10.899 16.560 C 10.959 16.167,11.062 13.529,11.019 13.486 C 11.005 13.471,10.473 13.770,9.116 14.554 L 9.012 14.615 8.987 15.317 C 8.956 16.170,8.874 16.741,8.715 17.220 C 8.407 18.149,7.826 18.697,6.924 18.909 C 6.666 18.969,6.429 18.980,5.353 18.980 C 4.657 18.980,4.072 18.965,4.053 18.947 C 3.999 18.892,4.015 15.887,4.072 15.260 C 4.277 13.037,4.759 11.185,5.525 9.676 C 6.420 7.913,7.586 6.961,8.104 7.571 C 8.259 7.754,8.503 8.291,8.606 8.676 C 8.669 8.911,8.709 8.997,8.748 8.983 C 8.906 8.922,10.480 7.987,10.480 7.954 C 10.480 7.933,10.401 7.719,10.305 7.478 C 9.708 5.993,8.706 5.267,7.440 5.403 M15.960 5.404 C 14.987 5.512,14.192 6.240,13.695 7.478 C 13.599 7.719,13.520 7.933,13.520 7.954 C 13.520 7.987,15.094 8.922,15.252 8.983 C 15.291 8.997,15.331 8.911,15.394 8.676 C 15.497 8.291,15.741 7.754,15.896 7.571 C 16.307 7.087,17.158 7.588,17.955 8.784 C 18.983 10.327,19.645 12.452,19.906 15.049 C 19.959 15.572,19.976 16.126,19.978 17.327 C 19.979 18.199,19.965 18.928,19.947 18.947 C 19.928 18.965,19.343 18.980,18.647 18.980 C 17.571 18.980,17.334 18.969,17.076 18.909 C 16.174 18.697,15.593 18.149,15.285 17.220 C 15.125 16.738,15.043 16.165,15.013 15.317 L 14.988 14.615 14.044 14.070 C 13.525 13.770,13.069 13.513,13.032 13.499 C 12.969 13.475,12.965 13.544,12.984 14.467 C 13.008 15.740,13.059 16.378,13.184 17.000 C 13.424 18.197,13.809 19.000,14.477 19.696 C 15.173 20.421,16.077 20.830,17.270 20.961 C 17.805 21.020,20.075 20.992,20.480 20.922 C 20.996 20.833,21.240 20.726,21.483 20.483 C 21.726 20.240,21.832 19.998,21.923 19.480 C 21.992 19.087,22.018 16.566,21.962 15.667 C 21.716 11.665,20.500 8.301,18.655 6.519 C 17.760 5.654,16.900 5.298,15.960 5.404 " stroke="none" fill-rule="evenodd" fill="black"></path></svg>