<svg viewBox="0 0 24 24" xmlns="http://www.w3.org/2000/svg"><path d="M10.400 2.023 C 9.196 2.161,8.496 2.346,7.611 2.762 C 5.614 3.699,4.085 5.422,3.405 7.500 C 2.742 9.527,2.899 11.676,3.850 13.580 C 4.088 14.057,4.359 14.481,4.794 15.057 C 5.350 15.793,5.704 16.510,5.888 17.268 C 5.968 17.600,5.974 17.746,5.989 19.810 L 6.005 22.000 10.503 22.000 L 15.000 22.000 15.000 20.500 L 15.000 19.000 16.098 19.000 C 16.745 19.000,17.283 18.982,17.408 18.956 C 18.073 18.817,18.641 18.319,18.892 17.654 C 18.976 17.430,18.981 17.349,19.000 15.742 L 19.020 14.063 20.002 13.642 C 20.542 13.410,21.031 13.189,21.089 13.151 C 21.213 13.070,21.298 12.839,21.261 12.688 C 21.246 12.629,20.720 11.771,20.091 10.782 L 18.949 8.984 18.856 8.502 C 18.378 6.038,16.798 3.962,14.537 2.829 C 13.840 2.480,13.024 2.223,12.220 2.099 C 11.830 2.039,10.680 1.991,10.400 2.023 M13.532 7.412 C 14.020 7.653,14.354 8.063,14.484 8.581 C 14.509 8.680,14.522 8.913,14.512 9.098 C 14.497 9.388,14.473 9.479,14.341 9.748 C 14.196 10.043,14.102 10.146,12.595 11.660 L 11.002 13.260 9.539 11.800 C 8.734 10.997,7.987 10.224,7.880 10.082 C 7.606 9.720,7.505 9.389,7.527 8.930 C 7.548 8.490,7.697 8.144,8.005 7.818 C 8.539 7.254,9.376 7.121,10.094 7.487 C 10.181 7.531,10.420 7.730,10.626 7.930 L 11.000 8.292 11.393 7.911 C 11.806 7.510,11.920 7.433,12.280 7.313 C 12.449 7.256,12.587 7.243,12.871 7.254 C 13.200 7.267,13.275 7.285,13.532 7.412 " stroke="none" fill-rule="evenodd" fill="black"></path></svg>