<svg viewBox="0 0 24 24" xmlns="http://www.w3.org/2000/svg"><path d="M10.400 2.023 C 9.196 2.161,8.496 2.346,7.611 2.762 C 5.614 3.699,4.085 5.422,3.405 7.500 C 2.742 9.527,2.899 11.676,3.850 13.580 C 4.088 14.057,4.359 14.481,4.794 15.057 C 5.350 15.793,5.704 16.510,5.888 17.268 C 5.968 17.600,5.974 17.746,5.989 19.810 L 6.005 22.000 10.503 22.000 L 15.000 22.000 15.000 20.500 L 15.000 19.000 16.098 19.000 C 16.745 19.000,17.283 18.982,17.408 18.956 C 18.073 18.817,18.641 18.319,18.892 17.654 C 18.976 17.430,18.981 17.349,19.000 15.742 L 19.020 14.063 20.002 13.642 C 20.542 13.410,21.031 13.189,21.089 13.151 C 21.213 13.070,21.298 12.839,21.261 12.688 C 21.246 12.629,20.720 11.771,20.091 10.782 L 18.949 8.984 18.856 8.502 C 18.378 6.038,16.798 3.962,14.537 2.829 C 13.840 2.480,13.024 2.223,12.220 2.099 C 11.830 2.039,10.680 1.991,10.400 2.023 M12.072 4.100 C 13.413 4.357,14.647 5.056,15.506 6.045 C 16.314 6.976,16.796 8.061,16.961 9.320 L 17.005 9.660 17.763 10.851 C 18.179 11.507,18.520 12.056,18.520 12.072 C 18.520 12.088,18.183 12.246,17.770 12.422 L 17.020 12.743 17.010 14.871 L 16.999 17.000 15.000 17.000 L 13.000 17.000 13.000 18.500 L 13.000 20.000 10.500 20.000 L 8.000 20.000 7.999 18.930 C 7.998 17.498,7.921 16.939,7.596 16.013 C 7.338 15.279,6.965 14.611,6.346 13.780 C 5.926 13.215,5.845 13.088,5.629 12.656 C 4.678 10.757,4.830 8.450,6.024 6.660 C 6.599 5.799,7.336 5.151,8.300 4.660 C 8.975 4.317,9.502 4.155,10.320 4.041 C 10.681 3.990,11.673 4.024,12.072 4.100 M10.664 7.063 C 10.436 7.146,10.257 7.297,10.131 7.511 C 10.024 7.693,10.020 7.723,10.007 8.350 L 9.993 9.000 9.422 9.000 C 8.631 9.000,8.371 9.103,8.131 9.511 C 8.036 9.672,8.020 9.744,8.020 10.000 C 8.020 10.256,8.036 10.328,8.131 10.489 C 8.371 10.898,8.631 11.000,9.425 11.000 L 10.000 11.000 10.000 11.570 C 10.000 12.219,10.031 12.370,10.212 12.607 C 10.570 13.076,11.281 13.121,11.700 12.702 C 11.949 12.454,12.000 12.260,12.000 11.573 L 12.000 11.000 12.573 11.000 C 13.259 11.000,13.454 10.948,13.701 10.701 C 14.092 10.310,14.092 9.690,13.701 9.299 C 13.454 9.052,13.259 9.000,12.573 9.000 L 12.000 9.000 12.000 8.427 C 12.000 7.741,11.948 7.546,11.701 7.299 C 11.429 7.027,11.018 6.933,10.664 7.063 " stroke="none" fill-rule="evenodd" fill="black"></path></svg>