<svg viewBox="0 0 24 24" xmlns="http://www.w3.org/2000/svg"><path d="M10.400 2.023 C 9.196 2.161,8.496 2.346,7.611 2.762 C 5.614 3.699,4.085 5.422,3.405 7.500 C 2.742 9.527,2.899 11.676,3.850 13.580 C 4.088 14.057,4.359 14.481,4.794 15.057 C 5.350 15.793,5.704 16.510,5.888 17.268 C 5.968 17.600,5.974 17.746,5.989 19.810 L 6.005 22.000 10.503 22.000 L 15.000 22.000 15.000 20.500 L 15.000 19.000 16.098 19.000 C 16.745 19.000,17.283 18.982,17.408 18.956 C 18.073 18.817,18.641 18.319,18.892 17.654 C 18.976 17.430,18.981 17.349,19.000 15.742 L 19.020 14.063 20.002 13.642 C 20.542 13.410,21.031 13.189,21.089 13.151 C 21.213 13.070,21.298 12.839,21.261 12.688 C 21.246 12.629,20.720 11.771,20.091 10.782 L 18.949 8.984 18.856 8.502 C 18.378 6.038,16.798 3.962,14.537 2.829 C 13.840 2.480,13.024 2.223,12.220 2.099 C 11.830 2.039,10.680 1.991,10.400 2.023 M11.340 7.066 C 11.593 7.153,11.847 7.407,11.934 7.660 C 11.983 7.805,12.000 7.999,12.000 8.427 L 12.000 9.000 12.573 9.000 C 13.259 9.000,13.454 9.052,13.701 9.299 C 14.092 9.690,14.092 10.310,13.701 10.701 C 13.454 10.948,13.259 11.000,12.573 11.000 L 12.000 11.000 12.000 11.573 C 12.000 12.259,11.948 12.454,11.701 12.701 C 11.310 13.092,10.690 13.092,10.299 12.701 C 10.052 12.454,10.000 12.259,10.000 11.573 L 10.000 11.000 9.427 11.000 C 8.741 11.000,8.546 10.948,8.299 10.701 C 7.908 10.310,7.908 9.690,8.299 9.299 C 8.546 9.052,8.741 9.000,9.427 9.000 L 10.000 9.000 10.000 8.427 C 10.000 7.740,10.052 7.546,10.300 7.298 C 10.577 7.020,10.957 6.936,11.340 7.066 " stroke="none" fill-rule="evenodd" fill="black"></path></svg>