<svg viewBox="0 0 24 24" xmlns="http://www.w3.org/2000/svg"><path d="M13.000 3.000 L 13.000 3.999 15.654 4.010 L 18.308 4.020 15.654 7.009 L 13.000 9.999 13.000 10.999 L 13.000 12.000 17.000 12.000 L 21.000 12.000 21.000 11.000 L 21.000 10.001 18.345 9.990 L 15.690 9.980 18.345 6.991 L 21.000 4.002 21.000 3.001 L 21.000 2.000 17.000 2.000 L 13.000 2.000 13.000 3.000 M10.200 6.045 C 8.735 6.195,7.270 6.793,6.060 7.735 C 5.739 7.986,5.085 8.632,4.801 8.979 C 3.484 10.591,2.816 12.808,3.041 14.820 C 3.352 17.608,5.031 19.994,7.529 21.200 C 9.730 22.264,12.270 22.264,14.471 21.200 C 16.967 19.995,18.648 17.606,18.959 14.820 C 18.981 14.622,18.999 14.357,19.000 14.230 L 19.000 14.000 15.000 14.000 L 11.000 14.000 11.000 10.000 L 11.000 6.000 10.770 6.005 C 10.643 6.008,10.387 6.026,10.200 6.045 " stroke="none" fill-rule="evenodd" fill="black"></path></svg>