<svg viewBox="0 0 24 24" xmlns="http://www.w3.org/2000/svg"><path d="M4.664 3.063 C 4.436 3.146,4.257 3.297,4.131 3.511 L 4.020 3.700 4.020 6.720 C 4.020 9.521,4.025 9.766,4.095 10.100 C 4.375 11.442,5.023 12.588,5.990 13.453 C 6.837 14.210,7.686 14.633,8.890 14.897 L 9.000 14.922 9.000 15.906 C 9.000 17.075,9.056 17.532,9.279 18.205 C 9.567 19.070,9.983 19.745,10.619 20.381 C 11.405 21.168,12.342 21.667,13.480 21.906 C 13.960 22.007,15.049 22.008,15.520 21.907 C 16.306 21.740,16.950 21.471,17.582 21.047 C 18.568 20.385,19.276 19.466,19.682 18.322 L 19.830 17.904 20.128 17.779 C 22.116 16.943,22.630 14.418,21.124 12.891 C 20.765 12.527,20.246 12.229,19.740 12.097 C 19.368 12.000,18.641 11.997,18.280 12.092 C 17.333 12.340,16.506 13.087,16.188 13.980 C 15.794 15.090,16.064 16.296,16.891 17.115 C 17.111 17.333,17.588 17.683,17.729 17.730 C 17.757 17.739,17.735 17.827,17.671 17.967 C 17.077 19.265,15.743 20.068,14.309 19.989 C 13.390 19.939,12.574 19.553,11.936 18.868 C 11.619 18.528,11.409 18.192,11.240 17.753 C 11.049 17.259,11.000 16.866,11.000 15.836 L 11.000 14.922 11.110 14.897 C 12.025 14.696,12.663 14.434,13.338 13.980 C 14.649 13.100,15.521 11.799,15.885 10.180 C 15.973 9.788,15.976 9.718,15.990 6.826 C 16.006 3.484,16.016 3.614,15.702 3.300 C 15.408 3.006,15.363 3.000,13.573 3.000 L 12.000 3.000 12.000 4.000 L 12.000 5.000 13.002 5.000 L 14.005 5.000 13.990 7.310 C 13.975 9.543,13.972 9.631,13.886 9.958 C 13.510 11.390,12.424 12.488,11.005 12.871 C 10.669 12.962,10.542 12.975,10.000 12.975 C 9.458 12.975,9.331 12.962,8.995 12.871 C 7.806 12.550,6.914 11.799,6.376 10.663 C 6.026 9.923,6.027 9.934,6.010 7.310 L 5.995 5.000 6.998 5.000 L 8.000 5.000 8.000 4.000 L 8.000 3.000 6.410 3.003 C 5.135 3.005,4.789 3.017,4.664 3.063 " stroke="none" fill-rule="evenodd" fill="black"></path></svg>