<svg viewBox="0 0 24 24" xmlns="http://www.w3.org/2000/svg"><path d="M7.667 4.082 C 5.470 4.632,3.616 5.110,3.547 5.145 C 3.367 5.236,3.206 5.395,3.107 5.580 C 3.032 5.720,3.019 5.819,3.007 6.370 L 2.993 7.000 2.424 7.000 C 2.111 7.000,1.748 7.020,1.617 7.043 C 0.862 7.181,0.203 7.830,0.044 8.592 C 0.016 8.728,0.000 9.428,0.000 10.544 C 0.000 11.954,0.012 12.340,0.062 12.581 C 0.359 14.019,1.576 14.999,3.068 15.000 L 3.420 15.001 3.578 15.346 C 3.979 16.223,4.832 17.221,5.640 17.758 C 6.129 18.082,11.180 20.612,11.511 20.698 C 11.643 20.732,11.863 20.760,12.000 20.760 C 12.137 20.760,12.357 20.732,12.489 20.698 C 12.820 20.612,17.871 18.082,18.360 17.758 C 19.168 17.221,20.021 16.223,20.422 15.346 L 20.580 15.001 20.932 15.000 C 22.420 14.999,23.642 14.016,23.938 12.581 C 23.988 12.340,24.000 11.954,24.000 10.544 C 24.000 9.428,23.984 8.728,23.956 8.592 C 23.818 7.929,23.333 7.378,22.660 7.119 C 22.451 7.039,22.329 7.024,21.713 7.009 L 21.007 6.991 20.993 6.362 C 20.980 5.743,20.978 5.731,20.859 5.537 C 20.614 5.140,20.803 5.200,16.334 4.085 C 12.693 3.176,12.269 3.078,11.980 3.080 C 11.699 3.082,11.167 3.206,7.667 4.082 M3.000 11.000 C 3.000 12.908,2.997 13.000,2.927 13.000 C 2.754 13.000,2.456 12.858,2.299 12.701 C 2.006 12.409,2.000 12.362,2.000 10.573 L 2.000 9.000 2.500 9.000 L 3.000 9.000 3.000 11.000 M22.000 10.573 C 22.000 12.362,21.994 12.409,21.701 12.701 C 21.544 12.858,21.246 13.000,21.073 13.000 C 21.003 13.000,21.000 12.908,21.000 11.000 L 21.000 9.000 21.500 9.000 L 22.000 9.000 22.000 10.573 " stroke="none" fill-rule="evenodd" fill="black"></path></svg>