<svg viewBox="0 0 24 24" xmlns="http://www.w3.org/2000/svg"><path d="M15.310 3.030 L 14.600 3.740 15.660 4.800 L 16.720 5.861 15.660 6.920 L 14.600 7.980 12.830 6.210 L 11.059 4.440 10.370 5.130 C 9.990 5.510,9.680 5.839,9.680 5.861 C 9.680 5.884,9.833 6.054,10.020 6.240 L 10.361 6.579 7.180 9.760 L 4.000 12.940 4.000 15.760 L 4.000 18.581 2.940 19.640 L 1.880 20.699 2.590 21.410 L 3.299 22.120 4.360 21.060 L 5.421 20.000 8.240 20.000 L 11.060 20.000 14.240 16.820 L 17.421 13.639 17.760 13.980 C 17.946 14.167,18.116 14.320,18.139 14.320 C 18.161 14.320,18.490 14.010,18.870 13.630 L 19.560 12.941 17.790 11.170 L 16.020 9.400 17.080 8.340 L 18.139 7.280 19.200 8.340 L 20.261 9.400 20.970 8.690 L 21.680 7.979 18.850 5.150 L 16.020 2.320 15.310 3.030 M11.782 12.225 L 11.064 12.923 9.652 11.512 L 8.240 10.101 8.950 9.390 L 9.660 8.680 11.080 10.103 L 12.500 11.526 11.782 12.225 M8.940 15.040 L 8.240 15.740 6.830 14.330 L 5.420 12.920 6.120 12.220 L 6.819 11.520 8.230 12.930 L 9.640 14.340 8.940 15.040 " stroke="none" fill-rule="evenodd" fill="black"></path></svg>