<svg viewBox="0 0 24 24" xmlns="http://www.w3.org/2000/svg"><path d="M17.180 2.309 C 16.927 2.344,16.409 2.492,16.147 2.603 C 15.440 2.904,15.496 2.852,10.887 7.454 C 8.350 9.987,6.496 11.869,6.355 12.056 C 5.974 12.557,5.710 13.146,5.599 13.740 C 5.575 13.872,5.469 14.750,5.365 15.692 L 5.175 17.403 3.970 18.612 C 2.649 19.936,2.602 19.998,2.602 20.420 C 2.602 20.983,3.017 21.398,3.580 21.398 C 4.002 21.398,4.064 21.351,5.388 20.030 L 6.597 18.825 8.308 18.635 C 9.250 18.531,10.128 18.425,10.260 18.401 C 10.854 18.290,11.443 18.026,11.944 17.645 C 12.131 17.503,14.015 15.647,16.564 13.093 C 21.172 8.476,21.115 8.537,21.401 7.850 C 21.650 7.253,21.696 7.007,21.695 6.260 C 21.694 5.636,21.685 5.550,21.586 5.220 C 21.372 4.514,21.088 4.017,20.608 3.514 C 19.840 2.707,18.796 2.269,17.685 2.286 C 17.473 2.289,17.246 2.299,17.180 2.309 M18.090 8.030 C 18.656 8.596,19.120 9.077,19.120 9.099 C 19.120 9.121,18.810 9.450,18.430 9.830 L 17.741 10.520 16.670 9.450 L 15.600 8.381 16.290 7.690 C 16.669 7.311,16.997 7.000,17.019 7.000 C 17.041 7.000,17.523 7.463,18.090 8.030 M15.270 10.890 L 16.320 11.939 15.630 12.630 C 15.251 13.009,14.923 13.320,14.901 13.320 C 14.850 13.320,12.800 11.274,12.800 11.224 C 12.800 11.188,14.160 9.846,14.200 9.842 C 14.211 9.841,14.692 10.312,15.270 10.890 M12.440 13.700 L 13.500 14.760 12.790 15.470 L 12.080 16.180 11.013 15.113 L 9.947 14.047 10.640 13.343 C 11.021 12.957,11.344 12.640,11.357 12.640 C 11.370 12.640,11.857 13.117,12.440 13.700 " stroke="none" fill-rule="evenodd" fill="black"></path></svg>