<svg viewBox="0 0 24 24" xmlns="http://www.w3.org/2000/svg"><path d="M11.150 2.040 C 8.806 2.252,6.640 3.255,4.984 4.895 C 4.714 5.162,4.387 5.514,4.257 5.677 L 4.020 5.974 4.009 4.747 L 3.999 3.520 2.999 3.520 L 1.999 3.520 2.010 6.510 L 2.020 9.500 5.010 9.510 L 8.000 9.521 8.000 8.521 L 8.000 7.521 6.694 7.511 L 5.389 7.500 5.644 7.160 C 6.886 5.504,8.799 4.389,10.940 4.074 C 11.455 3.998,12.679 4.008,13.187 4.093 C 14.577 4.325,15.725 4.805,16.811 5.610 C 17.213 5.909,17.885 6.556,18.211 6.960 C 18.773 7.655,19.282 8.577,19.576 9.429 C 19.715 9.834,19.920 10.709,19.920 10.901 L 19.920 11.000 20.942 11.000 L 21.965 11.000 21.939 10.810 C 21.694 9.002,21.041 7.385,19.996 6.000 C 18.402 3.888,16.078 2.505,13.469 2.117 C 12.858 2.026,11.722 1.989,11.150 2.040 M2.015 12.490 C 2.069 13.460,2.286 14.532,2.607 15.420 C 2.944 16.353,3.563 17.457,4.199 18.260 C 4.536 18.685,5.377 19.518,5.800 19.846 C 6.150 20.117,6.833 20.585,6.940 20.626 C 6.993 20.646,7.000 20.501,7.000 19.465 L 7.000 18.281 6.410 17.691 C 6.074 17.355,5.700 16.934,5.544 16.715 C 4.631 15.441,4.122 14.012,4.020 12.430 L 3.992 12.000 2.990 12.000 L 1.988 12.000 2.015 12.490 M11.573 13.040 C 10.421 13.209,9.433 14.079,9.123 15.199 C 9.078 15.363,9.029 15.610,9.015 15.748 L 8.989 16.000 9.993 16.000 L 10.996 16.000 11.024 15.850 C 11.191 14.926,12.394 14.703,12.867 15.508 C 12.964 15.673,12.980 15.743,12.980 16.000 C 12.980 16.245,12.962 16.331,12.882 16.470 C 12.824 16.572,12.026 17.371,10.892 18.462 L 9.000 20.284 9.000 21.142 L 9.000 22.000 12.000 22.000 L 15.000 22.000 15.000 21.001 L 15.000 20.001 13.596 19.991 L 12.193 19.980 13.199 19.020 C 14.223 18.043,14.482 17.753,14.680 17.360 C 14.988 16.749,15.079 15.993,14.923 15.342 C 14.555 13.802,13.117 12.814,11.573 13.040 M16.000 16.000 L 16.000 19.000 18.000 19.000 L 20.000 19.000 20.000 20.500 L 20.000 22.000 21.000 22.000 L 22.000 22.000 22.000 17.500 L 22.000 13.000 21.000 13.000 L 20.000 13.000 20.000 15.000 L 20.000 17.000 19.000 17.000 L 18.000 17.000 18.000 15.000 L 18.000 13.000 17.000 13.000 L 16.000 13.000 16.000 16.000 " stroke="none" fill-rule="evenodd" fill="black"></path></svg>