<svg viewBox="0 0 24 24" xmlns="http://www.w3.org/2000/svg"><path d="M11.153 2.040 C 6.875 2.427,3.340 5.440,2.308 9.580 C 2.080 10.497,2.023 10.978,2.023 12.000 C 2.023 12.928,2.069 13.386,2.241 14.162 C 2.890 17.088,4.816 19.565,7.500 20.922 C 8.450 21.403,9.512 21.742,10.580 21.905 C 11.307 22.017,12.832 22.007,13.536 21.887 C 15.251 21.593,16.712 20.970,18.068 19.954 C 18.576 19.574,19.582 18.568,19.955 18.068 C 20.899 16.803,21.516 15.428,21.816 13.920 C 22.367 11.142,21.704 8.285,19.967 5.960 C 19.576 5.435,18.702 4.543,18.200 4.154 C 16.744 3.028,15.140 2.347,13.360 2.101 C 12.800 2.024,11.679 1.993,11.153 2.040 M13.000 6.995 L 13.000 7.990 13.730 8.008 C 14.413 8.025,14.482 8.034,14.802 8.145 C 14.990 8.211,15.245 8.332,15.369 8.415 C 15.855 8.737,16.276 9.320,16.417 9.866 C 16.499 10.184,16.499 10.815,16.417 11.131 C 16.352 11.382,16.156 11.809,16.051 11.928 C 15.998 11.988,16.000 12.008,16.071 12.108 C 16.348 12.501,16.480 12.952,16.480 13.507 C 16.480 13.961,16.415 14.252,16.235 14.610 C 15.902 15.273,15.326 15.739,14.616 15.921 C 14.370 15.984,14.174 16.000,13.654 16.000 L 13.000 16.000 13.000 17.000 L 13.000 18.000 12.000 18.000 L 11.000 18.000 11.000 17.000 L 11.000 16.000 9.500 16.000 L 8.000 16.000 8.000 12.000 L 8.000 8.000 9.500 8.000 L 11.000 8.000 11.000 7.000 L 11.000 6.000 12.000 6.000 L 13.000 6.000 13.000 6.995 M10.000 10.500 L 10.000 11.000 12.070 11.000 C 14.076 11.000,14.144 10.997,14.272 10.919 C 14.601 10.719,14.572 10.230,14.222 10.063 C 14.105 10.008,13.827 10.000,12.044 10.000 L 10.000 10.000 10.000 10.500 M10.000 13.500 L 10.000 14.000 12.070 14.000 C 14.076 14.000,14.144 13.997,14.272 13.919 C 14.601 13.719,14.572 13.230,14.222 13.063 C 14.105 13.008,13.827 13.000,12.044 13.000 L 10.000 13.000 10.000 13.500 " stroke="none" fill-rule="evenodd" fill="black"></path></svg>