<svg viewBox="0 0 24 24" xmlns="http://www.w3.org/2000/svg"><path d="M2.715 4.055 C 2.361 4.182,2.133 4.413,2.042 4.740 C 2.009 4.857,2.000 6.846,2.008 12.081 L 2.020 19.262 2.122 19.461 C 2.237 19.684,2.488 19.896,2.711 19.958 C 2.812 19.986,5.838 19.999,12.040 19.999 L 21.220 19.999 21.420 19.905 C 21.660 19.791,21.807 19.642,21.917 19.400 C 21.998 19.221,21.998 19.177,21.999 11.998 L 22.000 4.776 21.896 4.568 C 21.839 4.453,21.727 4.305,21.646 4.239 C 21.338 3.984,21.997 4.000,11.983 4.002 C 4.628 4.003,2.832 4.014,2.715 4.055 M17.772 6.340 C 18.106 7.164,18.872 7.923,19.692 8.242 L 19.980 8.354 19.990 12.001 L 20.000 15.647 19.916 15.669 C 19.743 15.715,19.173 16.012,18.941 16.178 C 18.446 16.533,17.973 17.138,17.755 17.699 L 17.646 17.980 12.000 17.980 L 6.354 17.980 6.245 17.699 C 5.890 16.787,5.051 16.003,4.070 15.666 C 4.003 15.644,4.000 15.442,4.010 12.000 L 4.020 8.357 4.340 8.228 C 5.134 7.908,5.888 7.168,6.201 6.403 C 6.261 6.258,6.320 6.108,6.333 6.070 C 6.356 6.003,6.653 6.000,12.000 6.010 L 17.643 6.020 17.772 6.340 M11.433 8.040 C 10.843 8.134,10.221 8.380,9.731 8.712 C 8.955 9.240,8.394 10.037,8.130 10.989 C 8.034 11.337,8.022 11.449,8.022 12.000 C 8.022 12.553,8.034 12.663,8.132 13.017 C 8.475 14.256,9.357 15.252,10.520 15.715 C 12.334 16.437,14.462 15.710,15.444 14.033 C 16.503 12.224,15.985 9.878,14.269 8.712 C 13.917 8.473,13.343 8.214,12.958 8.120 C 12.572 8.026,11.783 7.984,11.433 8.040 " stroke="none" fill-rule="evenodd" fill="black"></path></svg>