<svg viewBox="0 0 24 24" xmlns="http://www.w3.org/2000/svg"><path d="M13.440 2.026 C 12.049 2.156,10.927 2.516,9.827 3.186 C 8.600 3.933,7.539 5.073,6.894 6.337 C 6.713 6.693,6.692 6.717,6.482 6.819 C 5.798 7.152,5.012 7.709,4.431 8.272 C 2.709 9.943,1.806 12.384,2.042 14.726 C 2.385 18.134,4.746 20.904,8.018 21.740 C 9.882 22.215,11.754 22.030,13.474 21.199 C 15.038 20.444,16.291 19.232,17.108 17.683 L 17.307 17.307 17.683 17.108 C 20.065 15.854,21.626 13.594,21.958 10.921 C 22.018 10.439,22.009 9.451,21.940 8.968 C 21.726 7.460,21.129 6.077,20.207 4.948 C 19.862 4.526,19.110 3.819,18.689 3.520 C 17.489 2.668,16.163 2.175,14.720 2.042 C 14.288 2.003,13.759 1.996,13.440 2.026 M14.632 4.041 C 17.281 4.324,19.412 6.304,19.905 8.940 C 20.006 9.480,20.007 10.547,19.906 11.060 C 19.718 12.021,19.357 12.848,18.804 13.589 C 18.540 13.942,18.091 14.440,18.036 14.440 C 18.016 14.440,18.000 14.226,18.000 13.964 C 18.000 12.250,17.399 10.505,16.326 9.100 C 15.833 8.456,14.957 7.666,14.251 7.229 C 12.985 6.446,11.743 6.074,10.183 6.012 L 9.547 5.987 9.903 5.642 C 11.128 4.456,12.900 3.857,14.632 4.041 M11.000 9.500 L 11.000 10.000 12.000 10.000 L 13.000 10.000 13.000 10.999 L 13.000 11.998 10.897 12.009 L 8.794 12.020 8.657 12.169 C 8.549 12.287,8.520 12.353,8.520 12.478 C 8.520 12.689,8.587 12.826,8.737 12.918 C 8.849 12.987,8.972 12.995,10.160 13.011 C 11.584 13.029,11.664 13.041,12.160 13.288 C 12.522 13.468,13.055 14.005,13.230 14.366 C 13.427 14.771,13.496 15.081,13.491 15.540 C 13.487 15.949,13.401 16.323,13.239 16.641 C 13.022 17.068,12.572 17.512,12.126 17.737 C 11.875 17.864,11.372 18.000,11.154 18.000 L 11.000 18.000 11.000 18.500 L 11.000 19.000 10.000 19.000 L 9.000 19.000 9.000 18.500 L 9.000 18.000 8.000 18.000 L 7.000 18.000 7.000 17.000 L 7.000 16.000 9.070 16.000 C 11.076 16.000,11.144 15.997,11.272 15.919 C 11.401 15.840,11.520 15.635,11.520 15.491 C 11.520 15.360,11.376 15.147,11.238 15.073 C 11.114 15.007,10.986 15.000,9.901 14.999 C 8.554 14.999,8.392 14.977,7.881 14.733 C 7.298 14.454,6.749 13.777,6.583 13.134 C 6.510 12.850,6.500 12.260,6.564 11.952 C 6.702 11.280,7.251 10.584,7.882 10.282 C 8.204 10.127,8.653 10.002,8.890 10.001 L 9.000 10.000 9.000 9.500 L 9.000 9.000 10.000 9.000 L 11.000 9.000 11.000 9.500 " stroke="none" fill-rule="evenodd" fill="black"></path></svg>