<svg viewBox="0 0 24 24" xmlns="http://www.w3.org/2000/svg"><path d="M11.153 2.040 C 6.875 2.427,3.340 5.440,2.308 9.580 C 2.080 10.497,2.023 10.978,2.023 12.000 C 2.023 12.928,2.069 13.386,2.241 14.162 C 2.890 17.088,4.816 19.565,7.500 20.922 C 8.450 21.403,9.512 21.742,10.580 21.905 C 11.307 22.017,12.832 22.007,13.536 21.887 C 15.251 21.593,16.712 20.970,18.068 19.954 C 18.576 19.574,19.582 18.568,19.955 18.068 C 20.899 16.803,21.516 15.428,21.816 13.920 C 22.367 11.142,21.704 8.285,19.967 5.960 C 19.576 5.435,18.702 4.543,18.200 4.154 C 16.744 3.028,15.140 2.347,13.360 2.101 C 12.800 2.024,11.679 1.993,11.153 2.040 M15.750 10.250 L 17.000 11.500 14.500 14.000 L 12.000 16.500 9.500 14.000 L 7.000 11.500 8.250 10.250 L 9.500 9.000 12.000 9.000 L 14.500 9.000 15.750 10.250 " stroke="none" fill-rule="evenodd" fill="black"></path></svg>