<svg viewBox="0 0 24 24" xmlns="http://www.w3.org/2000/svg"><path d="M2.673 3.063 C 2.423 3.140,2.153 3.406,2.066 3.659 C 2.005 3.838,2.000 4.516,2.000 12.000 C 2.000 21.125,1.974 20.362,2.296 20.694 C 2.602 21.009,2.512 21.000,5.423 21.000 L 7.992 21.000 8.021 20.794 C 8.091 20.283,8.493 19.786,8.986 19.600 C 9.323 19.474,9.848 19.498,10.154 19.655 C 10.606 19.888,10.924 20.321,10.982 20.781 L 11.009 21.000 16.075 21.000 C 19.441 21.000,21.190 20.986,21.289 20.958 C 21.517 20.895,21.763 20.684,21.888 20.445 L 22.000 20.231 22.000 17.376 L 22.000 14.522 21.910 14.503 C 21.861 14.493,21.735 14.475,21.632 14.464 C 20.870 14.376,20.132 13.835,19.783 13.106 C 19.578 12.680,19.520 12.436,19.520 12.000 C 19.520 11.563,19.578 11.320,19.784 10.891 C 19.922 10.604,20.022 10.461,20.234 10.249 C 20.661 9.822,21.318 9.522,21.830 9.521 L 22.000 9.520 22.000 6.645 L 22.000 3.769 21.888 3.555 C 21.763 3.316,21.517 3.105,21.289 3.042 C 21.190 3.014,19.441 3.000,16.075 3.000 L 11.009 3.000 10.982 3.219 C 10.925 3.673,10.573 4.152,10.149 4.352 C 9.607 4.606,8.933 4.505,8.486 4.101 C 8.287 3.921,8.059 3.480,8.020 3.203 L 7.992 3.000 5.426 3.003 C 3.316 3.005,2.827 3.016,2.673 3.063 M10.190 7.677 C 10.493 7.840,10.731 8.089,10.873 8.393 C 10.964 8.588,10.979 8.673,10.980 9.001 C 10.980 9.351,10.969 9.403,10.849 9.648 C 10.470 10.417,9.598 10.706,8.814 10.320 C 8.515 10.173,8.311 9.955,8.146 9.605 C 8.036 9.372,8.021 9.298,8.020 8.995 C 8.020 8.671,8.030 8.631,8.180 8.338 C 8.366 7.977,8.588 7.766,8.945 7.616 C 9.150 7.530,9.228 7.519,9.560 7.530 C 9.902 7.542,9.965 7.557,10.190 7.677 M10.190 13.677 C 10.493 13.840,10.731 14.089,10.873 14.393 C 10.964 14.588,10.979 14.673,10.980 15.001 C 10.980 15.351,10.969 15.403,10.849 15.648 C 10.470 16.417,9.598 16.706,8.814 16.320 C 8.515 16.173,8.311 15.955,8.146 15.605 C 8.036 15.372,8.021 15.298,8.020 14.995 C 8.020 14.671,8.030 14.631,8.180 14.338 C 8.366 13.977,8.588 13.766,8.945 13.616 C 9.150 13.530,9.228 13.519,9.560 13.530 C 9.902 13.542,9.965 13.557,10.190 13.677 " stroke="none" fill-rule="evenodd" fill="black"></path></svg>