<svg viewBox="0 0 24 24" xmlns="http://www.w3.org/2000/svg"><path d="M11.300 2.025 C 9.197 2.200,7.311 2.949,5.692 4.252 C 5.531 4.381,5.400 4.503,5.400 4.524 C 5.400 4.555,6.230 6.346,6.269 6.398 C 6.276 6.407,6.376 6.324,6.491 6.213 C 7.034 5.690,7.803 5.156,8.500 4.819 C 11.641 3.300,15.352 3.960,17.761 6.464 C 18.392 7.120,18.809 7.718,19.200 8.529 C 19.685 9.532,20.000 10.822,20.000 11.804 L 20.000 12.000 18.760 12.000 C 18.078 12.000,17.521 12.013,17.522 12.030 C 17.529 12.115,20.186 17.653,20.220 17.654 C 20.278 17.654,20.675 17.010,20.932 16.499 C 22.654 13.075,22.287 9.066,19.967 5.960 C 19.576 5.435,18.702 4.543,18.200 4.154 C 16.416 2.774,14.446 2.072,12.220 2.024 C 11.824 2.015,11.410 2.016,11.300 2.025 M3.520 6.710 C 2.817 7.824,2.307 9.223,2.096 10.620 C 2.007 11.208,1.994 12.670,2.073 13.220 C 2.306 14.853,2.817 16.232,3.659 17.501 C 5.288 19.956,7.749 21.494,10.740 21.928 C 11.286 22.007,12.828 21.995,13.400 21.907 C 13.885 21.833,14.539 21.687,14.940 21.563 C 16.121 21.198,17.403 20.511,18.328 19.747 L 18.636 19.492 18.199 18.576 C 17.958 18.072,17.755 17.642,17.747 17.620 C 17.739 17.598,17.590 17.715,17.416 17.880 C 16.015 19.210,13.996 20.000,12.000 20.000 C 10.789 20.000,9.606 19.724,8.500 19.182 C 7.616 18.750,6.947 18.265,6.279 17.574 C 4.912 16.162,4.149 14.423,4.020 12.430 L 3.992 12.000 5.240 12.000 C 6.412 12.000,6.487 11.996,6.463 11.930 C 6.389 11.727,3.816 6.321,3.793 6.321 C 3.778 6.320,3.655 6.495,3.520 6.710 M9.190 7.708 L 8.480 8.421 9.520 9.460 C 10.092 10.032,10.560 10.513,10.560 10.530 C 10.560 10.546,9.984 10.560,9.279 10.560 L 7.999 10.560 8.009 11.550 L 8.020 12.540 9.510 12.550 L 11.000 12.561 11.000 13.060 L 11.000 13.560 9.499 13.560 L 7.999 13.560 8.009 14.550 L 8.020 15.540 9.509 15.550 L 10.999 15.561 11.009 16.550 L 11.020 17.540 12.010 17.551 L 13.000 17.561 13.000 16.561 L 13.000 15.560 14.500 15.560 L 16.000 15.560 16.000 14.560 L 16.000 13.561 14.510 13.550 L 13.020 13.540 13.009 13.050 L 12.998 12.560 14.499 12.560 L 16.000 12.560 16.000 11.560 L 16.000 10.560 14.720 10.560 C 14.016 10.560,13.440 10.547,13.440 10.530 C 13.440 10.514,13.912 10.028,14.490 9.450 L 15.539 8.400 14.840 7.700 L 14.141 7.000 13.074 8.066 L 12.008 9.131 10.954 8.063 L 9.900 6.995 9.190 7.708 " stroke="none" fill-rule="evenodd" fill="black"></path></svg>