<svg viewBox="0 0 24 24" xmlns="http://www.w3.org/2000/svg"><path d="M11.153 2.040 C 6.875 2.427,3.340 5.440,2.308 9.580 C 2.080 10.497,2.023 10.978,2.023 12.000 C 2.023 12.928,2.069 13.386,2.241 14.162 C 2.890 17.088,4.816 19.565,7.500 20.922 C 8.450 21.403,9.512 21.742,10.580 21.905 C 11.307 22.017,12.832 22.007,13.536 21.887 C 15.251 21.593,16.712 20.970,18.068 19.954 C 18.576 19.574,19.582 18.568,19.955 18.068 C 20.899 16.803,21.516 15.428,21.816 13.920 C 22.367 11.142,21.704 8.285,19.967 5.960 C 19.576 5.435,18.702 4.543,18.200 4.154 C 16.744 3.028,15.140 2.347,13.360 2.101 C 12.800 2.024,11.679 1.993,11.153 2.040 M12.700 4.040 C 15.155 4.263,17.337 5.567,18.691 7.620 C 19.518 8.874,20.000 10.485,20.000 11.994 C 20.000 15.026,18.274 17.813,15.560 19.165 C 12.419 20.730,8.628 20.053,6.200 17.495 C 3.632 14.789,3.284 10.647,5.365 7.552 C 6.996 5.127,9.814 3.778,12.700 4.040 M12.000 7.520 L 12.000 9.000 10.000 9.000 L 8.000 9.000 8.000 10.000 L 8.000 11.000 12.510 11.000 L 17.020 11.000 14.540 8.520 C 13.176 7.156,12.047 6.040,12.030 6.040 C 12.014 6.040,12.000 6.706,12.000 7.520 M9.500 15.480 L 11.980 17.960 11.990 16.480 L 12.001 15.000 14.000 15.000 L 16.000 15.000 16.000 14.000 L 16.000 13.000 11.510 13.000 L 7.020 13.000 9.500 15.480 " stroke="none" fill-rule="evenodd" fill="black"></path></svg>