<svg viewBox="0 0 24 24" xmlns="http://www.w3.org/2000/svg"><path d="M11.153 2.040 C 6.875 2.427,3.340 5.440,2.308 9.580 C 2.080 10.497,2.023 10.978,2.023 12.000 C 2.023 13.135,2.125 13.859,2.429 14.880 C 2.556 15.306,2.837 16.040,2.873 16.040 C 2.888 16.040,4.007 14.933,5.360 13.580 L 7.820 11.120 9.230 12.530 L 10.640 13.940 12.220 12.360 L 13.800 10.781 12.910 9.890 L 12.021 9.000 14.510 9.000 L 17.000 9.000 17.000 11.490 L 17.000 13.979 16.130 13.110 C 15.651 12.631,15.242 12.240,15.220 12.240 C 15.198 12.240,14.159 13.261,12.910 14.510 L 10.640 16.780 9.230 15.370 L 7.820 13.960 5.863 15.917 L 3.906 17.874 4.021 18.027 C 4.524 18.699,5.288 19.461,5.980 19.981 C 7.310 20.979,8.748 21.591,10.464 21.888 C 10.908 21.964,11.123 21.977,12.000 21.976 C 12.869 21.976,13.096 21.962,13.536 21.887 C 15.254 21.592,16.713 20.970,18.068 19.954 C 18.576 19.574,19.582 18.568,19.955 18.068 C 20.899 16.803,21.516 15.428,21.816 13.920 C 22.367 11.142,21.704 8.285,19.967 5.960 C 19.576 5.435,18.702 4.543,18.200 4.154 C 16.744 3.028,15.140 2.347,13.360 2.101 C 12.800 2.024,11.679 1.993,11.153 2.040 " stroke="none" fill-rule="evenodd" fill="black"></path></svg>