<svg viewBox="0 0 24 24" xmlns="http://www.w3.org/2000/svg"><path d="M10.573 2.040 C 9.422 2.209,8.471 3.044,8.116 4.200 C 8.040 4.446,8.023 4.591,8.024 5.000 C 8.024 5.518,8.051 5.668,8.230 6.120 C 8.368 6.472,8.562 6.767,8.855 7.074 C 9.476 7.722,10.284 8.040,11.179 7.988 C 12.443 7.914,13.504 7.072,13.887 5.840 C 13.967 5.583,13.980 5.459,13.977 4.980 C 13.974 4.479,13.963 4.387,13.865 4.100 C 13.377 2.678,12.020 1.829,10.573 2.040 M17.573 5.040 C 16.422 5.209,15.471 6.044,15.116 7.200 C 15.040 7.446,15.023 7.591,15.024 8.000 C 15.024 8.288,15.046 8.576,15.075 8.680 C 15.255 9.306,15.528 9.766,15.972 10.187 C 16.583 10.768,17.341 11.040,18.198 10.987 C 19.447 10.910,20.507 10.063,20.887 8.840 C 20.967 8.583,20.980 8.459,20.977 7.980 C 20.974 7.479,20.963 7.387,20.865 7.100 C 20.377 5.678,19.020 4.829,17.573 5.040 M1.726 9.046 C 1.543 9.098,1.313 9.256,1.205 9.402 C 0.992 9.690,1.000 9.490,1.000 14.498 C 1.000 19.725,0.980 19.382,1.300 19.702 C 1.588 19.990,1.687 20.006,3.087 19.992 C 4.241 19.981,4.308 19.976,4.460 19.894 C 4.669 19.781,4.816 19.622,4.917 19.400 C 4.997 19.222,4.998 19.162,4.999 14.498 L 5.000 9.776 4.896 9.568 C 4.839 9.453,4.727 9.305,4.646 9.239 C 4.384 9.022,4.227 9.000,2.983 9.004 C 2.365 9.006,1.800 9.025,1.726 9.046 M6.000 14.733 L 6.000 19.387 6.550 19.649 C 7.933 20.308,9.303 20.688,11.080 20.906 C 11.804 20.994,13.833 21.008,14.480 20.928 C 17.513 20.556,20.109 19.343,22.222 17.312 C 22.595 16.953,23.174 16.305,23.475 15.911 C 23.521 15.852,23.507 15.805,23.382 15.581 C 23.033 14.957,22.391 14.258,21.808 13.868 C 21.161 13.435,20.367 13.139,19.591 13.041 C 19.410 13.019,18.557 13.000,17.695 13.000 L 16.127 13.000 16.346 13.419 C 16.826 14.339,16.957 14.891,16.988 16.130 L 17.010 17.000 13.005 17.000 L 9.000 17.000 9.000 16.500 L 9.000 16.000 12.506 16.000 L 16.012 16.000 15.987 15.650 C 15.912 14.598,15.438 13.581,14.666 12.819 C 14.079 12.240,13.418 11.857,12.648 11.650 C 12.273 11.549,12.211 11.545,10.800 11.523 L 9.340 11.500 8.953 11.236 C 8.516 10.937,8.011 10.667,7.542 10.481 C 7.222 10.354,6.486 10.152,6.170 10.105 L 6.000 10.079 6.000 14.733 " stroke="none" fill-rule="evenodd" fill="black"></path></svg>