<svg viewBox="0 0 24 24" xmlns="http://www.w3.org/2000/svg"><path d="M2.715 3.055 C 2.361 3.182,2.133 3.413,2.042 3.740 C 2.009 3.857,2.000 6.107,2.008 12.081 L 2.020 20.262 2.122 20.461 C 2.237 20.684,2.488 20.896,2.711 20.958 C 2.812 20.986,5.838 20.999,12.040 20.999 L 21.220 20.999 21.420 20.905 C 21.660 20.791,21.807 20.642,21.917 20.400 C 21.998 20.221,21.998 20.183,21.999 11.998 L 22.000 3.776 21.896 3.568 C 21.839 3.453,21.727 3.305,21.646 3.239 C 21.338 2.984,21.997 3.000,11.983 3.002 C 4.628 3.003,2.832 3.014,2.715 3.055 M13.060 7.044 C 13.727 7.126,14.385 7.365,14.946 7.729 C 15.236 7.916,15.711 8.314,15.768 8.416 C 15.795 8.465,15.628 8.594,14.964 9.037 L 14.126 9.597 14.032 9.523 C 13.980 9.482,13.822 9.385,13.679 9.308 C 12.286 8.550,10.510 9.312,10.088 10.850 L 10.046 11.000 12.523 11.000 L 15.000 11.000 15.000 12.000 L 15.000 13.000 12.522 13.000 L 10.044 13.000 10.106 13.210 C 10.357 14.063,11.096 14.745,11.984 14.942 C 12.595 15.078,13.339 14.941,13.854 14.597 C 13.983 14.511,14.105 14.440,14.125 14.440 C 14.177 14.440,15.800 15.528,15.800 15.563 C 15.800 15.579,15.706 15.678,15.590 15.783 C 14.721 16.569,13.634 17.000,12.520 17.000 C 11.330 17.000,10.217 16.546,9.374 15.717 C 8.697 15.051,8.257 14.240,8.097 13.367 L 8.030 13.000 7.515 13.000 L 7.000 13.000 7.000 12.000 L 7.000 11.000 7.516 11.000 L 8.033 11.000 8.082 10.710 C 8.330 9.229,9.388 7.927,10.817 7.341 C 11.544 7.043,12.269 6.947,13.060 7.044 " stroke="none" fill-rule="evenodd" fill="black"></path></svg>