<svg viewBox="0 0 24 24" xmlns="http://www.w3.org/2000/svg"><path d="M11.153 2.040 C 6.875 2.427,3.340 5.440,2.308 9.580 C 2.080 10.497,2.023 10.978,2.023 12.000 C 2.023 12.928,2.069 13.386,2.241 14.162 C 2.890 17.088,4.816 19.565,7.500 20.922 C 8.450 21.403,9.512 21.742,10.580 21.905 C 11.307 22.017,12.832 22.007,13.536 21.887 C 15.251 21.593,16.712 20.970,18.068 19.954 C 18.576 19.574,19.582 18.568,19.955 18.068 C 20.899 16.803,21.516 15.428,21.816 13.920 C 22.367 11.142,21.704 8.285,19.967 5.960 C 19.576 5.435,18.702 4.543,18.200 4.154 C 16.744 3.028,15.140 2.347,13.360 2.101 C 12.800 2.024,11.679 1.993,11.153 2.040 M12.700 4.040 C 15.155 4.263,17.337 5.567,18.691 7.620 C 19.518 8.874,20.000 10.485,20.000 11.994 C 20.000 15.026,18.274 17.813,15.560 19.165 C 12.419 20.730,8.628 20.053,6.200 17.495 C 3.632 14.789,3.284 10.647,5.365 7.552 C 6.996 5.127,9.814 3.778,12.700 4.040 M11.934 7.042 C 11.366 7.116,10.742 7.330,10.238 7.623 C 9.112 8.279,8.307 9.429,8.079 10.710 L 8.027 11.000 7.514 11.000 L 7.000 11.000 7.000 12.000 L 7.000 13.000 7.516 13.000 L 8.032 13.000 8.061 13.210 C 8.138 13.776,8.413 14.471,8.776 15.015 C 9.021 15.383,9.621 15.987,9.980 16.228 C 11.502 17.251,13.502 17.251,15.020 16.229 C 15.281 16.054,15.800 15.610,15.800 15.562 C 15.800 15.527,14.177 14.440,14.125 14.440 C 14.105 14.440,13.984 14.510,13.855 14.595 C 12.783 15.306,11.282 15.041,10.518 14.007 C 10.318 13.736,10.080 13.234,10.080 13.083 L 10.080 13.000 12.540 13.000 L 15.000 13.000 15.000 12.000 L 15.000 11.000 12.536 11.000 L 10.071 11.000 10.099 10.852 C 10.213 10.242,10.809 9.536,11.462 9.237 C 11.733 9.113,12.226 9.000,12.495 9.000 C 12.972 9.000,13.681 9.237,13.997 9.503 L 14.116 9.604 14.958 9.041 C 15.421 8.732,15.800 8.463,15.800 8.443 C 15.800 8.386,15.247 7.924,14.946 7.729 C 14.066 7.158,12.966 6.908,11.934 7.042 " stroke="none" fill-rule="evenodd" fill="black"></path></svg>