<svg viewBox="0 0 24 24" xmlns="http://www.w3.org/2000/svg"><path d="M6.120 3.026 C 5.466 3.124,5.044 3.280,4.562 3.603 C 3.619 4.233,3.074 5.204,3.014 6.360 C 2.907 8.398,4.636 10.104,6.691 9.988 C 7.591 9.938,8.363 9.589,8.985 8.952 C 9.722 8.198,10.041 7.355,9.988 6.300 C 9.918 4.894,8.979 3.658,7.629 3.197 C 7.155 3.036,6.529 2.964,6.120 3.026 M11.290 11.290 L 3.520 19.060 4.230 19.770 L 4.940 20.480 12.710 12.710 L 20.480 4.940 19.770 4.230 L 19.060 3.520 11.290 11.290 M17.120 14.026 C 16.466 14.124,16.044 14.280,15.562 14.603 C 14.619 15.233,14.074 16.204,14.014 17.360 C 13.965 18.290,14.301 19.189,14.962 19.896 C 15.954 20.956,17.457 21.282,18.835 20.737 C 19.650 20.415,20.424 19.632,20.753 18.796 C 20.948 18.299,20.980 18.109,20.977 17.460 C 20.974 16.916,20.963 16.828,20.862 16.520 C 20.488 15.379,19.705 14.565,18.629 14.197 C 18.155 14.036,17.529 13.964,17.120 14.026 " stroke="none" fill-rule="evenodd" fill="black"></path></svg>