<svg viewBox="0 0 24 24" xmlns="http://www.w3.org/2000/svg"><path d="M6.214 6.810 C 1.180 11.849,1.426 11.582,1.426 12.000 C 1.426 12.418,1.148 12.119,6.634 17.614 C 10.596 21.583,11.780 22.747,11.920 22.811 C 12.153 22.917,12.489 22.916,12.725 22.808 C 12.858 22.748,14.022 21.605,17.560 18.064 L 22.219 13.401 21.520 8.497 C 21.135 5.799,20.809 3.575,20.796 3.553 C 20.776 3.521,11.163 2.120,10.961 2.120 C 10.927 2.120,8.791 4.230,6.214 6.810 M15.355 4.759 C 17.366 5.044,19.016 5.283,19.022 5.289 C 19.029 5.296,19.273 6.971,19.565 9.013 L 20.095 12.725 16.207 16.613 L 12.320 20.500 8.070 16.250 L 3.820 12.000 7.700 8.120 C 9.834 5.986,11.607 4.240,11.640 4.240 C 11.673 4.240,13.345 4.474,15.355 4.759 M14.558 7.235 C 14.205 7.348,13.939 7.514,13.686 7.777 C 12.528 8.983,13.257 10.929,14.947 11.143 C 15.465 11.209,16.134 10.959,16.534 10.550 C 17.610 9.448,17.131 7.661,15.643 7.224 C 15.354 7.139,14.842 7.145,14.558 7.235 " stroke="none" fill-rule="evenodd" fill="black"></path></svg>