<svg viewBox="0 0 24 24" xmlns="http://www.w3.org/2000/svg"><path d="M11.720 1.246 C 11.643 1.267,9.650 2.571,7.290 4.142 L 3.000 7.000 3.000 14.073 C 3.000 21.998,2.975 21.364,3.296 21.694 C 3.620 22.028,2.837 22.000,11.997 22.000 C 17.483 22.000,20.189 21.986,20.289 21.958 C 20.517 21.895,20.763 21.684,20.888 21.445 L 21.000 21.231 21.000 14.116 L 21.000 7.000 16.730 4.153 C 14.077 2.384,12.393 1.286,12.284 1.253 C 12.082 1.192,11.921 1.190,11.720 1.246 M12.383 7.043 C 13.101 7.174,13.742 7.770,13.927 8.477 C 14.118 9.209,13.903 9.948,13.350 10.462 C 12.187 11.543,10.305 10.887,10.038 9.308 C 9.896 8.468,10.357 7.585,11.130 7.218 C 11.574 7.007,11.921 6.959,12.383 7.043 " stroke="none" fill-rule="evenodd" fill="black"></path></svg>