<svg viewBox="0 0 24 24" xmlns="http://www.w3.org/2000/svg"><path d="M11.320 2.026 C 9.566 2.194,8.203 2.622,6.880 3.420 C 5.054 4.520,3.657 6.116,2.815 8.063 C 1.641 10.775,1.756 13.969,3.121 16.587 C 3.365 17.057,3.749 17.680,3.794 17.680 C 3.820 17.680,6.480 12.083,6.480 12.028 C 6.480 12.013,5.922 12.000,5.240 12.000 L 4.000 12.000 4.000 11.890 C 4.001 11.580,4.093 10.805,4.180 10.380 C 4.777 7.440,7.022 5.057,9.924 4.283 C 11.802 3.781,13.780 3.971,15.500 4.817 C 16.355 5.237,16.886 5.611,17.575 6.279 C 18.277 6.959,18.777 7.651,19.200 8.529 C 20.520 11.265,20.188 14.444,18.327 16.900 C 18.061 17.252,17.348 17.971,16.980 18.259 C 15.271 19.598,13.149 20.200,11.052 19.940 C 9.373 19.732,7.786 18.999,6.583 17.875 L 6.284 17.595 6.182 17.795 C 5.980 18.194,5.400 19.443,5.400 19.480 C 5.400 19.538,6.014 20.019,6.499 20.341 C 8.226 21.487,10.242 22.057,12.320 21.987 C 13.810 21.937,15.091 21.616,16.420 20.961 C 18.841 19.767,20.657 17.680,21.491 15.133 C 22.177 13.039,22.177 10.961,21.491 8.867 C 20.250 5.079,16.852 2.392,12.860 2.043 C 12.413 2.004,11.642 1.995,11.320 2.026 M11.000 7.000 L 11.000 8.000 10.390 8.001 C 9.650 8.002,9.340 8.060,8.880 8.285 C 8.251 8.593,7.756 9.208,7.581 9.898 C 7.503 10.204,7.503 10.796,7.581 11.102 C 7.695 11.550,7.905 11.911,8.257 12.260 C 8.625 12.625,8.923 12.795,9.416 12.920 C 9.714 12.995,9.864 13.000,11.908 13.000 C 14.258 13.000,14.273 13.001,14.412 13.213 C 14.499 13.347,14.500 13.652,14.414 13.783 C 14.268 14.006,14.358 14.000,11.322 14.000 L 8.520 14.000 8.520 15.000 L 8.520 16.000 9.760 16.000 L 11.000 16.000 11.000 17.000 L 11.000 18.000 12.000 18.000 L 13.000 18.000 13.000 17.000 L 13.000 16.000 13.630 15.999 C 14.714 15.998,15.179 15.833,15.760 15.245 C 16.280 14.717,16.492 14.214,16.493 13.500 C 16.495 12.798,16.282 12.284,15.780 11.777 C 15.439 11.432,15.178 11.263,14.760 11.115 C 14.503 11.024,14.471 11.023,12.160 11.002 C 10.234 10.984,9.805 10.970,9.735 10.923 C 9.527 10.785,9.457 10.459,9.588 10.237 C 9.732 9.993,9.642 10.000,12.716 10.000 L 15.520 10.000 15.520 9.000 L 15.520 8.000 14.260 8.000 L 13.000 8.000 13.000 7.000 L 13.000 6.000 12.000 6.000 L 11.000 6.000 11.000 7.000 " stroke="none" fill-rule="evenodd" fill="black"></path></svg>