<svg viewBox="0 0 24 24" xmlns="http://www.w3.org/2000/svg"><path d="M10.382 1.109 C 10.239 1.145,10.110 1.255,10.055 1.387 C 10.015 1.481,10.000 1.723,10.000 2.259 L 10.000 3.000 6.447 3.000 C 2.442 3.000,2.624 2.987,2.309 3.293 C 1.972 3.620,2.000 2.890,2.000 11.500 C 2.000 20.065,1.975 19.363,2.296 19.694 C 2.544 19.949,2.733 20.000,3.427 20.000 L 4.000 20.000 4.000 21.000 L 4.000 22.000 5.000 22.000 L 6.000 22.000 6.000 21.000 L 6.000 20.000 8.000 20.000 L 10.000 20.000 10.000 20.750 C 10.000 21.607,10.029 21.718,10.289 21.851 L 10.438 21.927 14.179 21.304 C 16.236 20.961,17.937 20.680,17.959 20.680 C 17.985 20.680,18.000 20.920,18.000 21.340 L 18.000 22.000 19.000 22.000 L 20.000 22.000 20.000 21.166 L 20.000 20.332 20.550 20.244 C 21.266 20.128,21.469 20.069,21.646 19.921 C 21.727 19.855,21.839 19.707,21.896 19.592 L 22.000 19.384 22.000 18.192 L 22.000 17.000 22.500 17.000 L 23.000 17.000 23.000 16.000 L 23.000 15.000 22.500 15.000 L 22.000 15.000 22.000 11.500 L 22.000 8.000 22.500 8.000 L 23.000 8.000 23.000 7.000 L 23.000 6.000 22.500 6.000 L 22.000 6.000 21.999 4.810 C 21.998 3.745,21.991 3.603,21.925 3.460 C 21.820 3.229,21.663 3.058,21.469 2.965 C 21.346 2.905,19.859 2.644,16.000 2.002 C 10.080 1.018,10.488 1.083,10.382 1.109 M16.090 4.043 L 20.000 4.693 20.000 11.500 L 20.000 18.307 16.090 18.957 C 13.939 19.314,12.139 19.616,12.090 19.628 L 12.000 19.649 12.000 11.500 L 12.000 3.351 12.090 3.372 C 12.139 3.384,13.939 3.686,16.090 4.043 M10.000 11.500 L 10.000 18.000 7.000 18.000 L 4.000 18.000 4.000 11.500 L 4.000 5.000 7.000 5.000 L 10.000 5.000 10.000 11.500 M16.160 9.067 C 15.731 9.224,15.310 9.826,15.115 10.560 C 14.986 11.048,14.985 11.908,15.113 12.418 C 15.416 13.629,16.209 14.263,16.948 13.886 C 17.342 13.685,17.738 13.070,17.905 12.400 C 18.010 11.979,18.010 10.979,17.905 10.580 C 17.732 9.922,17.375 9.369,16.971 9.133 C 16.750 9.003,16.410 8.976,16.160 9.067 " stroke="none" fill-rule="evenodd" fill="black"></path></svg>