<svg viewBox="0 0 24 24" xmlns="http://www.w3.org/2000/svg"><path d="M2.673 3.063 C 2.423 3.140,2.153 3.406,2.066 3.659 C 2.005 3.838,2.000 4.482,2.000 11.500 C 2.000 20.065,1.975 19.363,2.296 19.694 C 2.544 19.949,2.733 20.000,3.427 20.000 L 4.000 20.000 4.000 21.000 L 4.000 22.000 5.000 22.000 L 6.000 22.000 6.000 21.000 L 6.000 20.000 12.000 20.000 L 18.000 20.000 18.000 21.000 L 18.000 22.000 19.000 22.000 L 20.000 22.000 20.000 21.000 L 20.000 20.000 20.570 20.000 C 20.883 20.000,21.207 19.981,21.289 19.958 C 21.517 19.895,21.763 19.684,21.888 19.445 L 22.000 19.231 22.000 11.500 L 22.000 3.769 21.888 3.555 C 21.763 3.316,21.517 3.105,21.289 3.042 C 21.188 3.014,18.181 3.001,12.000 3.003 C 4.177 3.005,2.833 3.014,2.673 3.063 M12.960 6.121 C 13.431 6.239,14.109 6.578,14.510 6.897 C 15.215 7.459,15.727 8.314,15.925 9.260 C 15.953 9.392,15.975 9.725,15.975 10.000 C 15.975 10.719,15.857 11.211,15.534 11.843 C 15.073 12.746,14.177 13.513,13.249 13.800 L 13.020 13.871 13.010 15.435 L 12.999 17.000 12.000 17.000 L 11.001 17.000 10.990 15.438 L 10.980 13.876 10.700 13.779 C 9.876 13.493,9.176 12.954,8.683 12.227 C 8.470 11.914,8.209 11.321,8.113 10.938 C 7.987 10.429,7.987 9.571,8.113 9.062 C 8.215 8.654,8.470 8.088,8.722 7.715 C 9.304 6.853,10.337 6.215,11.433 6.040 C 11.791 5.983,12.573 6.025,12.960 6.121 M11.602 8.044 C 11.341 8.095,10.887 8.325,10.674 8.514 C 10.443 8.720,10.222 9.048,10.112 9.350 C 9.993 9.676,9.993 10.324,10.112 10.650 C 10.623 12.052,12.357 12.448,13.404 11.403 C 13.807 11.002,14.000 10.546,14.000 10.000 C 14.000 9.454,13.807 8.998,13.404 8.597 C 12.918 8.112,12.270 7.913,11.602 8.044 " stroke="none" fill-rule="evenodd" fill="black"></path></svg>