<svg viewBox="0 0 24 24" xmlns="http://www.w3.org/2000/svg"><path d="M11.364 1.042 C 10.856 1.106,10.324 1.270,9.820 1.518 C 8.562 2.139,7.666 3.175,7.243 4.497 C 7.040 5.130,7.001 5.513,7.000 6.830 L 7.000 8.000 5.447 8.000 C 3.664 8.000,3.602 8.008,3.309 8.293 C 2.975 8.618,3.000 8.074,3.000 15.000 C 3.000 21.888,2.977 21.365,3.296 21.694 C 3.620 22.028,2.837 22.000,11.997 22.000 C 17.483 22.000,20.189 21.986,20.289 21.958 C 20.517 21.895,20.763 21.684,20.888 21.445 L 21.000 21.231 21.000 15.000 L 21.000 8.769 20.888 8.555 C 20.763 8.316,20.517 8.105,20.289 8.042 C 20.198 8.017,19.528 8.000,18.570 8.000 L 17.000 8.000 17.000 6.790 C 17.000 5.473,16.964 5.113,16.776 4.513 C 16.525 3.712,16.144 3.093,15.525 2.477 C 14.787 1.743,13.979 1.306,12.980 1.100 C 12.594 1.021,11.771 0.991,11.364 1.042 M12.753 3.099 C 13.554 3.293,14.334 3.932,14.697 4.693 C 14.959 5.241,14.971 5.329,14.989 6.730 L 15.006 8.000 11.999 8.000 L 8.992 8.000 9.010 6.750 C 9.030 5.332,9.041 5.264,9.347 4.640 C 9.505 4.318,9.589 4.204,9.897 3.898 C 10.367 3.430,10.889 3.152,11.511 3.039 C 11.768 2.992,12.443 3.025,12.753 3.099 M9.000 11.570 C 9.000 11.883,8.981 12.207,8.958 12.289 C 8.897 12.509,8.685 12.762,8.469 12.874 C 7.968 13.131,7.409 12.962,7.136 12.470 C 7.024 12.267,7.020 12.239,7.006 11.630 L 6.993 11.000 7.996 11.000 L 9.000 11.000 9.000 11.570 M17.000 11.570 C 17.000 11.883,16.981 12.207,16.958 12.289 C 16.897 12.509,16.685 12.762,16.469 12.874 C 15.968 13.131,15.409 12.962,15.136 12.470 C 15.024 12.267,15.020 12.239,15.006 11.630 L 14.993 11.000 15.996 11.000 L 17.000 11.000 17.000 11.570 " stroke="none" fill-rule="evenodd" fill="black"></path></svg>