<svg viewBox="0 0 24 24" xmlns="http://www.w3.org/2000/svg"><path d="M11.283 2.045 C 9.924 2.208,8.673 2.838,7.687 3.859 C 7.048 4.520,6.642 5.179,6.343 6.037 C 6.096 6.747,6.037 7.114,6.012 8.110 L 5.989 9.000 3.995 9.000 L 2.000 9.000 2.000 10.000 L 2.000 11.000 2.578 11.000 L 3.155 11.000 3.178 11.170 C 3.190 11.263,3.362 13.311,3.560 15.720 C 3.802 18.679,3.940 20.170,3.983 20.315 C 4.027 20.462,4.100 20.582,4.216 20.698 C 4.544 21.026,3.881 21.000,11.997 21.000 C 16.849 21.000,19.269 20.986,19.369 20.958 C 19.604 20.893,19.846 20.682,19.968 20.438 C 20.076 20.222,20.079 20.188,20.439 15.820 C 20.638 13.400,20.812 11.325,20.825 11.210 L 20.849 11.000 21.425 11.000 L 22.000 11.000 22.000 10.000 L 22.000 9.000 20.000 9.000 L 18.000 9.000 18.000 8.263 C 18.000 7.459,17.963 7.098,17.821 6.541 C 17.550 5.471,17.024 4.547,16.239 3.762 C 15.398 2.921,14.348 2.361,13.160 2.119 C 12.667 2.019,11.790 1.985,11.283 2.045 M13.012 4.136 C 14.293 4.464,15.357 5.453,15.784 6.714 C 15.952 7.209,16.000 7.574,16.000 8.363 L 16.000 9.000 11.995 9.000 L 7.989 9.000 8.013 8.210 C 8.043 7.189,8.131 6.796,8.477 6.130 C 9.046 5.037,10.171 4.241,11.433 4.040 C 11.822 3.978,12.573 4.024,13.012 4.136 M18.815 11.150 C 18.805 11.232,18.663 12.929,18.499 14.920 C 18.336 16.911,18.190 18.643,18.177 18.770 L 18.152 19.000 11.996 19.000 C 6.160 19.000,5.840 18.996,5.840 18.930 C 5.840 18.892,5.696 17.142,5.520 15.043 C 5.344 12.943,5.200 11.174,5.200 11.113 L 5.200 11.000 12.016 11.000 L 18.832 11.000 18.815 11.150 M7.000 15.000 L 7.000 17.000 8.000 17.000 L 9.000 17.000 9.000 15.000 L 9.000 13.000 8.000 13.000 L 7.000 13.000 7.000 15.000 M11.000 15.000 L 11.000 17.000 12.000 17.000 L 13.000 17.000 13.000 15.000 L 13.000 13.000 12.000 13.000 L 11.000 13.000 11.000 15.000 M15.000 15.000 L 15.000 17.000 16.000 17.000 L 17.000 17.000 17.000 15.000 L 17.000 13.000 16.000 13.000 L 15.000 13.000 15.000 15.000 " stroke="none" fill-rule="evenodd" fill="black"></path></svg>