<svg viewBox="0 0 24 24" xmlns="http://www.w3.org/2000/svg"><path d="M8.609 3.493 C 8.590 3.519,7.865 4.768,7.000 6.270 L 5.426 9.000 3.713 9.000 L 2.000 9.000 2.000 10.000 L 2.000 11.000 2.578 11.000 L 3.155 11.000 3.178 11.170 C 3.190 11.263,3.362 13.311,3.560 15.720 C 3.758 18.129,3.941 20.177,3.966 20.272 C 4.029 20.512,4.203 20.735,4.428 20.867 L 4.620 20.980 11.914 20.990 C 16.861 20.997,19.258 20.987,19.362 20.959 C 19.606 20.894,19.846 20.688,19.969 20.440 C 20.076 20.222,20.080 20.184,20.459 15.633 C 20.668 13.110,20.840 11.035,20.840 11.023 C 20.840 11.010,21.101 11.000,21.420 11.000 L 22.000 11.000 22.000 10.000 L 22.000 9.000 20.290 8.999 L 18.580 8.999 16.984 6.229 C 16.106 4.706,15.384 3.455,15.380 3.450 C 15.361 3.424,13.661 4.440,13.668 4.472 C 13.673 4.493,14.246 5.496,14.942 6.701 C 15.638 7.907,16.217 8.917,16.228 8.946 C 16.245 8.991,15.537 9.000,12.004 9.000 C 9.670 9.000,7.760 8.992,7.760 8.983 C 7.760 8.974,8.345 7.953,9.060 6.714 C 10.074 4.958,10.349 4.453,10.310 4.417 C 10.282 4.392,9.897 4.164,9.452 3.909 C 8.874 3.577,8.635 3.459,8.609 3.493 M18.815 11.150 C 18.805 11.232,18.663 12.929,18.499 14.920 C 18.336 16.911,18.190 18.643,18.177 18.770 L 18.152 19.000 11.996 19.000 C 6.405 19.000,5.840 18.994,5.840 18.937 C 5.840 18.902,5.696 17.148,5.520 15.040 C 5.344 12.932,5.200 11.160,5.200 11.103 L 5.200 11.000 12.016 11.000 L 18.832 11.000 18.815 11.150 M7.000 15.000 L 7.000 17.000 8.000 17.000 L 9.000 17.000 9.000 15.000 L 9.000 13.000 8.000 13.000 L 7.000 13.000 7.000 15.000 M11.000 15.000 L 11.000 17.000 12.000 17.000 L 13.000 17.000 13.000 15.000 L 13.000 13.000 12.000 13.000 L 11.000 13.000 11.000 15.000 M15.000 15.000 L 15.000 17.000 16.000 17.000 L 17.000 17.000 17.000 15.000 L 17.000 13.000 16.000 13.000 L 15.000 13.000 15.000 15.000 " stroke="none" fill-rule="evenodd" fill="black"></path></svg>