<svg viewBox="0 0 24 24" xmlns="http://www.w3.org/2000/svg"><path d="M1.470 2.470 L 0.760 3.181 2.380 4.800 L 3.999 6.419 4.010 12.341 L 4.020 18.262 4.122 18.461 C 4.237 18.684,4.488 18.896,4.711 18.958 C 4.811 18.986,6.872 19.000,10.930 19.000 L 17.000 19.000 17.000 18.000 L 17.000 17.000 11.500 17.000 L 6.000 17.000 6.000 16.000 L 6.000 15.000 12.230 14.999 C 18.409 14.998,18.461 14.998,18.640 14.917 C 18.839 14.827,19.058 14.634,19.139 14.480 C 19.167 14.425,19.745 12.535,20.422 10.280 C 21.236 7.568,21.653 6.119,21.653 6.000 C 21.655 5.631,21.445 5.290,21.103 5.107 L 20.940 5.020 13.180 5.010 L 5.420 4.999 3.800 3.380 L 2.179 1.760 1.470 2.470 M19.300 7.050 C 19.291 7.078,18.903 8.369,18.440 9.920 C 17.976 11.471,17.578 12.798,17.555 12.870 L 17.514 13.000 11.757 13.000 L 6.000 13.000 6.000 10.000 L 6.000 7.000 12.659 7.000 C 17.968 7.000,19.314 7.010,19.300 7.050 M5.117 20.052 C 4.700 20.171,4.319 20.502,4.127 20.913 C 4.037 21.106,4.021 21.194,4.022 21.500 C 4.022 21.809,4.038 21.895,4.134 22.104 C 4.440 22.773,5.212 23.139,5.903 22.942 C 7.065 22.613,7.378 21.124,6.451 20.343 C 6.121 20.065,5.527 19.936,5.117 20.052 M17.117 20.052 C 16.700 20.171,16.319 20.502,16.127 20.913 C 16.037 21.106,16.021 21.194,16.022 21.500 C 16.022 21.809,16.038 21.895,16.134 22.104 C 16.440 22.773,17.212 23.139,17.903 22.942 C 19.065 22.613,19.378 21.124,18.451 20.343 C 18.121 20.065,17.527 19.936,17.117 20.052 " stroke="none" fill-rule="evenodd" fill="black"></path></svg>