<svg viewBox="0 0 24 24" xmlns="http://www.w3.org/2000/svg"><path d="M11.153 2.040 C 6.875 2.427,3.340 5.440,2.308 9.580 C 2.080 10.497,2.023 10.978,2.023 12.000 C 2.023 12.928,2.069 13.386,2.241 14.162 C 2.890 17.088,4.816 19.565,7.500 20.922 C 8.450 21.403,9.512 21.742,10.580 21.905 C 11.307 22.017,12.832 22.007,13.536 21.887 C 15.251 21.593,16.712 20.970,18.068 19.954 C 18.576 19.574,19.582 18.568,19.955 18.068 C 20.899 16.803,21.516 15.428,21.816 13.920 C 22.367 11.142,21.704 8.285,19.967 5.960 C 19.576 5.435,18.702 4.543,18.200 4.154 C 16.744 3.028,15.140 2.347,13.360 2.101 C 12.800 2.024,11.679 1.993,11.153 2.040 M12.700 4.040 C 15.155 4.263,17.337 5.567,18.691 7.620 C 19.518 8.874,20.000 10.485,20.000 11.994 C 20.000 15.026,18.274 17.813,15.560 19.165 C 12.419 20.730,8.628 20.053,6.200 17.495 C 3.632 14.789,3.284 10.647,5.365 7.552 C 6.996 5.127,9.814 3.778,12.700 4.040 M8.520 7.228 C 7.717 8.166,7.054 8.949,7.047 8.967 C 7.039 8.985,7.476 9.000,8.017 9.000 L 9.000 9.000 9.000 11.000 L 9.000 13.000 10.000 13.000 L 11.000 13.000 11.000 11.001 L 11.000 9.001 11.994 8.991 L 12.989 8.980 11.514 7.260 C 10.704 6.314,10.027 5.536,10.010 5.532 C 9.994 5.527,9.323 6.290,8.520 7.228 M13.000 13.000 L 13.000 15.000 12.000 15.000 L 10.999 15.000 12.483 16.730 C 13.298 17.681,13.983 18.460,14.003 18.460 C 14.023 18.460,14.704 17.686,15.514 16.740 L 16.989 15.020 15.994 15.009 L 15.000 14.999 15.000 12.999 L 15.000 11.000 14.000 11.000 L 13.000 11.000 13.000 13.000 " stroke="none" fill-rule="evenodd" fill="black"></path></svg>