<svg viewBox="0 0 24 24" xmlns="http://www.w3.org/2000/svg"><path d="M2.673 3.063 C 2.420 3.141,2.150 3.408,2.065 3.664 C 2.006 3.842,2.001 4.155,2.010 6.681 L 2.020 9.500 2.280 9.527 C 2.875 9.589,3.474 9.896,3.875 10.346 C 4.110 10.610,4.335 11.040,4.424 11.399 C 4.515 11.763,4.483 12.484,4.361 12.831 C 4.239 13.176,3.939 13.621,3.663 13.867 C 3.293 14.196,2.642 14.480,2.255 14.480 C 1.978 14.480,2.000 14.232,2.000 17.337 C 2.000 20.497,1.990 20.378,2.296 20.694 C 2.621 21.029,1.714 21.000,11.997 21.000 C 18.172 21.000,21.188 20.986,21.289 20.958 C 21.517 20.895,21.763 20.684,21.888 20.445 L 22.000 20.231 22.000 17.376 L 22.000 14.522 21.910 14.503 C 21.861 14.493,21.735 14.475,21.632 14.464 C 20.870 14.376,20.132 13.835,19.783 13.106 C 19.578 12.680,19.520 12.436,19.520 12.000 C 19.520 11.563,19.578 11.320,19.784 10.891 C 19.922 10.604,20.022 10.461,20.234 10.249 C 20.661 9.822,21.318 9.522,21.830 9.521 L 22.000 9.520 22.000 6.645 L 22.000 3.769 21.888 3.555 C 21.763 3.316,21.517 3.105,21.289 3.042 C 21.188 3.014,18.181 3.001,12.000 3.003 C 4.177 3.005,2.833 3.014,2.673 3.063 " stroke="none" fill-rule="evenodd" fill="black"></path></svg>