<svg viewBox="0 0 24 24" xmlns="http://www.w3.org/2000/svg"><path d="M9.518 5.229 C 8.151 7.006,7.008 8.458,6.980 8.455 C 6.939 8.451,2.979 5.703,2.190 5.131 L 2.000 4.993 2.000 10.997 L 2.000 17.000 12.000 17.000 L 22.000 17.000 22.000 11.002 L 22.000 5.004 19.517 6.742 C 18.152 7.698,17.023 8.479,17.007 8.478 C 16.992 8.477,15.861 7.019,14.492 5.237 L 12.005 1.998 9.518 5.229 M14.224 8.170 C 15.429 9.738,16.453 11.068,16.501 11.126 L 16.588 11.232 18.294 10.038 L 20.000 8.844 20.000 11.922 L 20.000 15.000 12.000 15.000 L 4.000 15.000 4.000 11.936 C 4.000 9.475,4.010 8.875,4.051 8.891 C 4.079 8.902,4.767 9.377,5.581 9.946 C 6.394 10.516,7.142 11.039,7.243 11.108 L 7.426 11.234 9.701 8.277 C 10.951 6.651,11.988 5.320,12.004 5.320 C 12.021 5.320,13.020 6.603,14.224 8.170 M2.000 20.000 L 2.000 21.000 12.000 21.000 L 22.000 21.000 22.000 20.000 L 22.000 19.000 12.000 19.000 L 2.000 19.000 2.000 20.000 " stroke="none" fill-rule="evenodd" fill="black"></path></svg>