<svg viewBox="0 0 24 24" xmlns="http://www.w3.org/2000/svg"><path d="M4.606 3.046 C 4.276 3.141,4.210 3.221,2.205 5.978 C 1.130 7.456,0.228 8.707,0.201 8.758 C 0.119 8.910,0.172 9.187,0.310 9.333 C 0.376 9.403,2.944 12.187,6.017 15.520 C 9.091 18.853,11.660 21.621,11.728 21.670 C 11.890 21.788,12.109 21.788,12.275 21.670 C 12.345 21.620,14.967 18.799,18.102 15.401 C 22.060 11.109,23.812 9.183,23.836 9.096 C 23.855 9.027,23.862 8.923,23.851 8.866 C 23.840 8.809,22.938 7.535,21.846 6.033 C 19.780 3.194,19.717 3.117,19.377 3.038 C 19.160 2.988,4.782 2.995,4.606 3.046 " stroke="none" fill-rule="evenodd" fill="black"></path></svg>