<svg viewBox="0 0 24 24" xmlns="http://www.w3.org/2000/svg"><path d="M11.726 1.766 C 11.395 1.861,11.341 1.927,9.294 4.794 C 8.200 6.326,7.236 7.674,7.152 7.789 L 6.998 7.999 4.847 6.565 C 3.663 5.776,2.626 5.108,2.542 5.081 C 2.307 5.003,1.950 5.050,1.726 5.188 C 1.517 5.317,1.301 5.636,1.262 5.873 C 1.226 6.093,2.893 20.173,2.980 20.390 C 3.065 20.601,3.377 20.889,3.591 20.952 C 3.711 20.989,5.743 21.000,12.008 21.000 C 19.589 21.000,20.282 20.995,20.460 20.934 C 20.718 20.846,20.971 20.591,21.052 20.336 C 21.146 20.045,22.775 6.082,22.742 5.859 C 22.706 5.622,22.502 5.328,22.276 5.189 C 22.057 5.054,21.739 5.010,21.487 5.078 C 21.376 5.108,20.546 5.637,19.160 6.560 L 17.005 7.996 14.877 5.016 C 13.706 3.376,12.688 1.989,12.614 1.933 C 12.358 1.738,12.035 1.677,11.726 1.766 M14.260 7.600 C 15.486 9.316,16.500 10.720,16.514 10.720 C 16.528 10.720,17.430 10.127,18.518 9.401 C 19.606 8.676,20.499 8.087,20.502 8.091 C 20.506 8.096,20.219 10.553,19.866 13.550 L 19.224 19.000 12.004 18.990 L 4.783 18.980 4.153 13.640 C 3.807 10.703,3.523 8.250,3.522 8.190 C 3.520 8.086,3.640 8.160,5.502 9.401 C 6.592 10.128,7.499 10.713,7.517 10.702 C 7.536 10.690,8.548 9.285,9.765 7.580 C 10.983 5.875,11.991 4.480,12.006 4.480 C 12.020 4.480,13.034 5.884,14.260 7.600 M11.602 11.044 C 11.341 11.095,10.887 11.325,10.674 11.514 C 10.446 11.717,10.242 12.021,10.119 12.340 C 10.043 12.536,10.026 12.657,10.026 13.000 C 10.026 13.343,10.043 13.464,10.119 13.660 C 10.661 15.065,12.357 15.449,13.404 14.403 C 13.807 14.002,14.000 13.546,14.000 13.000 C 14.000 12.454,13.807 11.998,13.404 11.597 C 12.918 11.112,12.270 10.913,11.602 11.044 " stroke="none" fill-rule="evenodd" fill="black"></path></svg>