<svg viewBox="0 0 24 24" xmlns="http://www.w3.org/2000/svg"><path d="M11.726 1.766 C 11.395 1.861,11.341 1.927,9.294 4.794 C 8.200 6.326,7.236 7.674,7.152 7.789 L 6.998 7.999 4.847 6.565 C 3.663 5.776,2.626 5.108,2.542 5.081 C 2.307 5.003,1.950 5.050,1.726 5.188 C 1.517 5.317,1.301 5.636,1.262 5.873 C 1.226 6.093,2.893 20.173,2.980 20.390 C 3.065 20.601,3.377 20.889,3.591 20.952 C 3.711 20.989,5.743 21.000,12.008 21.000 C 19.589 21.000,20.282 20.995,20.460 20.934 C 20.718 20.846,20.971 20.591,21.052 20.336 C 21.146 20.045,22.775 6.082,22.742 5.859 C 22.706 5.622,22.502 5.328,22.276 5.189 C 22.057 5.054,21.739 5.010,21.487 5.078 C 21.376 5.108,20.546 5.637,19.160 6.560 L 17.005 7.996 14.877 5.016 C 13.706 3.376,12.688 1.989,12.614 1.933 C 12.358 1.738,12.035 1.677,11.726 1.766 M12.383 11.043 C 13.101 11.174,13.742 11.770,13.927 12.477 C 14.118 13.209,13.903 13.948,13.350 14.462 C 12.187 15.543,10.305 14.887,10.038 13.308 C 9.896 12.468,10.357 11.585,11.130 11.218 C 11.574 11.007,11.921 10.959,12.383 11.043 " stroke="none" fill-rule="evenodd" fill="black"></path></svg>