<svg fill="none" viewBox="0 0 15 15" xmlns="http://www.w3.org/2000/svg">
  <path fill="currentColor" d="m7.5.5.29-.407a.5.5 0 0 0-.58 0L7.5.5zm7 5h.5a.5.5 0 0 0-.21-.407l-.29.407zm0 4 .29.407A.5.5 0 0 0 15 9.5h-.5zm-7 5-.29.407a.5.5 0 0 0 .58 0L7.5 14.5zm-7-5H0a.5.5 0 0 0 .21.407L.5 9.5zm0-4-.29-.407A.5.5 0 0 0 0 5.5h.5zM7.21.907l7 5 .58-.814-7-5-.58.814zM14 5.5v4h1v-4h-1zm.21 3.593-7 5 .58.814 7-5-.58-.814zm-6.42 5-7-5-.58.814 7 5 .58-.814zM1 9.5v-4H0v4h1zM.79 5.907l7-5-.58-.814-7 5 .58.814zm0 4 7-5-.58-.814-7 5 .58.814zm6.42-5 7 5 .58-.814-7-5-.58.814zm-7 1 7 5 .58-.814-7-5-.58.814zm7.58 5 7-5-.58-.814-7 5 .58.814zM7 .5v4h1v-4H7zm0 10v4h1v-4H7z"/>
</svg>
