<svg viewBox="0 0 24 24" xmlns="http://www.w3.org/2000/svg"><path d="M11.120 2.039 C 8.641 2.287,6.414 3.362,4.761 5.107 C 1.806 8.228,1.158 12.819,3.137 16.623 C 3.620 17.552,4.164 18.288,4.938 19.061 C 5.930 20.051,7.038 20.789,8.272 21.278 C 11.634 22.610,15.313 22.080,18.200 19.845 C 18.637 19.507,19.507 18.637,19.845 18.200 C 21.256 16.378,22.000 14.236,22.000 12.000 C 22.000 7.432,18.842 3.387,14.430 2.303 C 13.446 2.062,12.028 1.948,11.120 2.039 M12.792 4.041 C 14.343 4.206,15.751 4.778,16.980 5.741 C 17.348 6.029,18.061 6.748,18.327 7.100 C 19.938 9.227,20.413 11.922,19.619 14.434 C 19.563 14.613,19.498 14.760,19.476 14.760 C 19.383 14.760,14.816 13.342,14.766 13.298 C 14.759 13.291,14.834 13.136,14.934 12.953 C 15.034 12.770,15.208 12.413,15.321 12.160 C 15.529 11.695,15.971 10.427,16.022 10.150 L 16.049 10.000 14.424 10.000 L 12.800 10.000 12.800 9.440 L 12.800 8.880 14.800 8.880 L 16.800 8.880 16.800 8.540 L 16.800 8.200 14.800 8.200 L 12.800 8.200 12.800 7.280 L 12.800 6.360 11.968 6.360 C 11.312 6.360,11.119 6.372,11.058 6.417 C 10.986 6.469,10.978 6.541,10.960 7.327 L 10.940 8.180 9.070 8.190 L 7.200 8.201 7.200 8.540 L 7.200 8.880 9.080 8.880 L 10.960 8.880 10.960 9.420 L 10.960 9.960 9.420 9.960 L 7.880 9.960 7.880 10.280 L 7.880 10.600 10.980 10.600 C 12.762 10.600,14.080 10.615,14.080 10.636 C 14.080 10.716,13.749 11.624,13.586 11.988 C 13.311 12.604,13.226 12.763,13.182 12.746 C 13.159 12.738,12.830 12.629,12.451 12.504 C 11.008 12.031,10.059 11.848,8.854 11.811 C 8.016 11.786,7.633 11.828,7.100 12.005 C 6.638 12.158,6.269 12.378,5.966 12.680 C 5.657 12.989,5.476 13.290,5.314 13.762 C 5.197 14.103,5.184 14.187,5.182 14.620 C 5.180 15.024,5.195 15.147,5.277 15.395 C 5.720 16.748,7.303 17.567,9.160 17.404 C 10.750 17.264,11.880 16.696,13.121 15.414 C 13.331 15.197,13.561 14.951,13.633 14.867 L 13.764 14.713 14.992 15.272 C 15.667 15.579,16.706 16.043,17.300 16.303 C 17.894 16.563,18.387 16.780,18.395 16.786 C 18.425 16.807,17.878 17.430,17.554 17.743 C 16.379 18.880,14.998 19.579,13.320 19.888 C 12.704 20.002,11.383 20.011,10.780 19.907 C 8.983 19.596,7.469 18.808,6.255 17.552 C 4.305 15.534,3.560 12.650,4.283 9.925 C 4.783 8.040,5.972 6.396,7.620 5.309 C 9.111 4.326,11.035 3.854,12.792 4.041 M8.961 12.922 C 9.829 13.030,10.711 13.282,11.700 13.706 C 12.029 13.847,12.316 13.980,12.336 14.000 C 12.424 14.088,11.509 15.043,10.922 15.477 C 10.513 15.779,9.815 16.126,9.380 16.242 C 8.892 16.374,8.099 16.392,7.580 16.285 C 6.807 16.125,6.259 15.741,5.989 15.172 C 5.872 14.925,5.860 14.865,5.860 14.520 C 5.860 14.163,5.868 14.125,5.997 13.888 C 6.233 13.452,6.676 13.114,7.220 12.956 C 7.504 12.873,8.422 12.855,8.961 12.922 " stroke="none" fill-rule="evenodd" fill="black"></path></svg>