<svg viewBox="0 0 24 24" xmlns="http://www.w3.org/2000/svg"><path d="M11.120 2.039 C 8.641 2.287,6.414 3.362,4.761 5.107 C 1.806 8.228,1.158 12.819,3.137 16.623 C 3.620 17.552,4.164 18.288,4.938 19.061 C 5.715 19.837,6.454 20.383,7.377 20.863 C 10.496 22.485,14.214 22.360,17.220 20.530 C 18.179 19.947,19.302 18.931,19.952 18.061 C 20.273 17.631,20.278 17.621,20.190 17.576 C 20.140 17.550,19.317 17.187,18.360 16.768 C 16.779 16.077,15.092 15.324,14.133 14.881 L 13.765 14.711 13.634 14.866 C 12.865 15.769,11.969 16.504,11.180 16.879 C 9.844 17.514,8.153 17.602,6.958 17.099 C 6.126 16.749,5.489 16.086,5.259 15.331 C 5.112 14.849,5.159 14.133,5.371 13.606 C 5.696 12.802,6.255 12.285,7.100 12.005 C 7.633 11.828,8.016 11.786,8.854 11.811 C 10.059 11.848,11.008 12.031,12.451 12.504 C 12.830 12.629,13.159 12.738,13.183 12.747 C 13.232 12.765,13.618 11.971,13.804 11.471 C 13.935 11.118,14.079 10.680,14.079 10.630 C 14.080 10.614,12.685 10.600,10.980 10.600 L 7.880 10.600 7.880 10.280 L 7.880 9.960 9.420 9.960 L 10.960 9.960 10.960 9.420 L 10.960 8.880 9.080 8.880 L 7.200 8.880 7.200 8.540 L 7.200 8.201 9.070 8.190 L 10.940 8.180 10.960 7.327 C 10.978 6.541,10.986 6.469,11.058 6.417 C 11.119 6.372,11.312 6.360,11.968 6.360 L 12.800 6.360 12.800 7.280 L 12.800 8.200 14.800 8.200 L 16.800 8.200 16.800 8.540 L 16.800 8.880 14.800 8.880 L 12.800 8.880 12.800 9.440 L 12.800 10.000 14.420 10.000 C 15.529 10.000,16.040 10.013,16.040 10.042 C 16.040 10.118,15.848 10.770,15.705 11.180 C 15.504 11.756,15.300 12.231,15.011 12.795 C 14.871 13.068,14.762 13.295,14.769 13.300 C 14.830 13.354,21.398 15.376,21.424 15.349 C 21.453 15.320,21.723 14.371,21.779 14.099 C 22.055 12.762,22.068 11.401,21.815 10.103 C 21.073 6.292,18.165 3.221,14.430 2.303 C 13.446 2.062,12.028 1.948,11.120 2.039 M7.220 12.956 C 6.843 13.066,6.562 13.230,6.299 13.495 C 5.943 13.854,5.860 14.048,5.860 14.522 C 5.860 14.883,5.868 14.921,6.010 15.208 C 6.286 15.766,6.811 16.126,7.580 16.285 C 8.099 16.392,8.892 16.374,9.380 16.242 C 9.845 16.118,10.533 15.768,10.987 15.425 C 11.363 15.142,11.997 14.524,12.270 14.175 L 12.399 14.010 11.829 13.760 C 10.818 13.317,9.842 13.031,8.961 12.922 C 8.422 12.855,7.504 12.873,7.220 12.956 " stroke="none" fill-rule="evenodd" fill="black"></path></svg>