<svg viewBox="0 0 24 24" xmlns="http://www.w3.org/2000/svg"><path d="M11.780 3.347 C 10.753 3.475,9.742 3.972,9.014 4.708 C 8.672 5.052,8.211 5.700,7.983 6.156 C 7.836 6.449,7.546 7.161,7.567 7.177 C 7.603 7.204,9.387 7.801,9.430 7.801 C 9.457 7.800,9.480 7.780,9.480 7.755 C 9.480 7.653,9.826 6.931,10.007 6.652 C 10.269 6.251,10.517 5.995,10.869 5.759 C 11.295 5.474,11.698 5.353,12.302 5.330 C 12.856 5.308,13.114 5.350,13.478 5.522 C 14.371 5.944,14.912 6.877,14.986 8.121 L 15.011 8.543 14.088 8.612 C 11.580 8.799,9.959 9.198,8.858 9.899 C 7.758 10.599,7.141 11.618,7.002 12.963 C 6.816 14.758,8.006 16.356,9.912 16.870 C 10.266 16.966,10.367 16.975,11.060 16.976 C 11.905 16.976,12.311 16.913,12.988 16.676 C 13.946 16.339,14.890 15.639,15.467 14.836 L 15.616 14.629 15.675 14.764 C 15.948 15.389,16.311 16.079,16.520 16.370 C 16.658 16.562,16.788 16.720,16.808 16.720 C 16.835 16.720,18.051 15.762,18.333 15.518 C 18.351 15.503,18.293 15.393,18.203 15.275 C 17.851 14.813,17.453 13.905,17.321 13.267 C 17.148 12.424,17.051 11.154,17.019 9.287 C 16.993 7.845,16.955 7.382,16.815 6.845 C 16.337 5.007,15.020 3.705,13.310 3.380 C 13.017 3.325,12.115 3.305,11.780 3.347 M14.982 10.750 C 14.942 11.037,14.771 11.740,14.655 12.100 C 14.408 12.862,13.891 13.730,13.449 14.123 C 12.818 14.685,11.969 14.999,11.080 14.999 C 10.413 14.999,9.900 14.815,9.493 14.430 C 8.642 13.625,8.920 12.223,10.067 11.536 C 10.901 11.037,12.013 10.793,14.380 10.587 C 14.468 10.580,14.646 10.570,14.775 10.567 L 15.009 10.560 14.982 10.750 M20.420 17.046 C 19.995 17.100,19.579 17.226,19.231 17.407 C 18.802 17.630,18.681 17.796,18.814 17.979 C 18.866 18.049,18.900 18.051,19.444 18.007 C 20.294 17.938,20.636 18.002,20.915 18.281 C 21.180 18.546,21.158 18.983,20.839 19.823 C 20.649 20.322,20.640 20.443,20.785 20.557 C 20.994 20.721,21.193 20.648,21.532 20.281 C 22.067 19.704,22.461 18.749,22.508 17.920 C 22.536 17.428,22.478 17.270,22.231 17.161 C 21.896 17.014,21.080 16.962,20.420 17.046 M2.048 17.448 C 1.987 17.509,1.989 17.635,2.053 17.750 C 2.080 17.799,2.313 18.063,2.571 18.336 C 4.319 20.191,6.405 21.497,8.651 22.143 C 9.755 22.461,10.751 22.601,11.920 22.602 C 13.008 22.603,13.728 22.516,14.770 22.257 C 16.655 21.789,18.287 20.970,19.727 19.772 C 20.108 19.455,20.240 19.286,20.240 19.112 C 20.240 18.956,20.080 18.787,19.936 18.791 C 19.872 18.793,19.541 18.931,19.200 19.098 C 17.577 19.893,15.865 20.412,14.040 20.662 C 13.414 20.748,11.727 20.782,11.020 20.724 C 8.931 20.551,6.898 19.989,5.020 19.067 C 4.225 18.676,3.760 18.406,2.934 17.856 C 2.557 17.605,2.214 17.400,2.172 17.400 C 2.130 17.400,2.074 17.422,2.048 17.448 " stroke="none" fill-rule="evenodd" fill="black"></path></svg>