<svg viewBox="0 0 24 24" xmlns="http://www.w3.org/2000/svg"><path d="M11.340 2.024 C 11.252 2.033,11.027 2.059,10.840 2.083 C 9.374 2.263,7.896 2.855,6.661 3.757 L 6.381 3.960 5.660 3.240 L 4.939 2.520 4.230 3.230 L 3.520 3.941 4.239 4.659 C 4.863 5.282,4.952 5.386,4.909 5.444 C 4.026 6.643,3.442 7.916,3.182 9.209 C 3.046 9.888,3.000 10.405,3.000 11.264 L 3.000 12.000 12.000 12.000 L 21.000 12.000 21.000 11.264 C 21.000 10.405,20.954 9.888,20.818 9.209 C 20.559 7.919,19.972 6.640,19.091 5.444 C 19.048 5.386,19.137 5.282,19.761 4.659 L 20.480 3.941 19.770 3.230 L 19.061 2.520 18.337 3.243 L 17.613 3.966 17.352 3.769 C 16.237 2.925,14.776 2.321,13.320 2.101 C 12.911 2.039,11.662 1.991,11.340 2.024 M9.340 7.066 C 9.709 7.192,10.000 7.604,10.000 8.000 C 10.000 8.527,9.527 9.000,9.000 9.000 C 8.758 9.000,8.479 8.881,8.299 8.701 C 7.907 8.309,7.908 7.690,8.300 7.298 C 8.577 7.020,8.957 6.936,9.340 7.066 M15.340 7.066 C 15.709 7.192,16.000 7.604,16.000 8.000 C 16.000 8.527,15.527 9.000,15.000 9.000 C 14.758 9.000,14.479 8.881,14.299 8.701 C 13.907 8.309,13.908 7.690,14.300 7.298 C 14.577 7.020,14.957 6.936,15.340 7.066 M3.009 17.650 L 3.020 21.300 3.131 21.489 C 3.192 21.592,3.301 21.723,3.374 21.778 C 3.684 22.015,3.106 22.000,11.998 22.000 C 21.144 22.000,20.376 22.026,20.701 21.701 C 21.015 21.387,21.000 21.595,21.000 17.573 L 21.000 14.000 11.999 14.000 L 2.998 14.000 3.009 17.650 " stroke="none" fill-rule="evenodd" fill="black"></path></svg>