<svg viewBox="0 0 24 24" xmlns="http://www.w3.org/2000/svg"><path d="M15.760 0.867 C 14.571 0.989,13.150 1.835,12.424 2.852 C 11.828 3.688,11.532 4.508,11.491 5.436 L 11.468 5.972 11.904 5.950 C 14.029 5.843,15.960 3.621,15.960 1.284 C 15.960 1.040,15.947 0.843,15.930 0.846 C 15.913 0.850,15.837 0.859,15.760 0.867 M15.140 6.225 C 14.381 6.341,13.972 6.459,12.904 6.868 C 11.690 7.333,11.588 7.331,10.280 6.820 C 9.207 6.401,8.710 6.280,8.058 6.280 C 6.293 6.280,4.677 7.175,3.627 8.733 C 2.550 10.333,2.232 12.656,2.744 15.189 C 2.987 16.394,3.422 17.645,3.990 18.780 C 4.588 19.973,5.548 21.317,6.365 22.103 C 6.907 22.625,7.335 22.871,7.900 22.986 C 8.445 23.098,9.014 22.980,10.101 22.529 C 10.740 22.265,11.160 22.162,11.722 22.133 C 12.491 22.093,12.973 22.189,13.855 22.558 C 14.166 22.688,14.555 22.832,14.720 22.878 C 15.581 23.118,16.426 22.973,17.134 22.465 C 17.987 21.852,19.190 20.224,19.943 18.660 C 20.176 18.177,20.560 17.231,20.560 17.141 C 20.560 17.130,20.448 17.065,20.310 16.995 C 19.699 16.688,18.984 16.096,18.569 15.553 C 18.175 15.038,17.865 14.372,17.708 13.702 C 17.637 13.398,17.624 13.217,17.625 12.580 C 17.626 11.893,17.636 11.783,17.729 11.437 C 17.869 10.916,18.044 10.509,18.314 10.080 C 18.670 9.514,19.287 8.869,19.776 8.550 C 19.877 8.484,19.960 8.413,19.960 8.391 C 19.960 8.318,19.560 7.847,19.271 7.580 C 18.550 6.912,17.655 6.483,16.601 6.297 C 16.253 6.236,15.356 6.192,15.140 6.225 " stroke="none" fill-rule="evenodd" fill="black"></path></svg>