<svg viewBox="0 0 24 24" xmlns="http://www.w3.org/2000/svg"><path d="M16.973 2.778 C 16.881 2.806,16.746 2.867,16.673 2.912 C 16.600 2.958,15.866 3.671,15.043 4.498 L 13.547 6.000 12.000 6.000 L 10.453 6.000 8.957 4.498 C 7.211 2.745,7.204 2.741,6.633 2.766 C 6.225 2.785,5.989 2.891,5.738 3.171 C 5.446 3.496,5.357 3.964,5.502 4.411 C 5.562 4.594,5.656 4.707,6.249 5.306 L 6.928 5.991 6.034 6.010 C 5.285 6.026,5.088 6.043,4.820 6.115 C 3.402 6.496,2.367 7.595,2.074 9.031 C 2.002 9.384,1.998 9.611,2.009 13.631 L 2.021 17.860 2.111 18.180 C 2.223 18.580,2.470 19.100,2.697 19.417 C 2.900 19.700,3.376 20.168,3.653 20.357 C 3.938 20.551,4.454 20.781,4.840 20.887 L 5.180 20.980 12.000 20.980 L 18.820 20.980 19.160 20.887 C 19.586 20.770,20.093 20.535,20.414 20.305 C 20.700 20.100,21.167 19.625,21.357 19.347 C 21.544 19.072,21.788 18.535,21.891 18.171 C 21.979 17.861,21.979 17.852,21.991 13.632 C 22.002 9.607,21.999 9.386,21.926 9.031 C 21.635 7.604,20.589 6.494,19.180 6.115 C 18.912 6.043,18.715 6.026,17.965 6.010 L 17.070 5.991 17.733 5.326 C 18.436 4.620,18.530 4.484,18.582 4.095 C 18.637 3.676,18.403 3.189,18.027 2.940 C 17.706 2.728,17.321 2.669,16.973 2.778 M18.789 8.630 C 19.057 8.773,19.227 8.946,19.358 9.209 L 19.480 9.453 19.480 13.479 C 19.480 18.008,19.499 17.716,19.174 18.078 C 19.072 18.192,18.900 18.323,18.768 18.388 L 18.540 18.500 12.000 18.500 L 5.460 18.500 5.232 18.388 C 5.100 18.323,4.928 18.192,4.826 18.078 C 4.501 17.716,4.520 18.007,4.520 13.483 L 4.521 9.460 4.614 9.260 C 4.777 8.912,5.005 8.701,5.355 8.575 C 5.472 8.533,6.764 8.525,12.060 8.532 L 18.620 8.540 18.789 8.630 M7.907 11.055 C 7.520 11.164,7.175 11.504,7.061 11.889 C 7.015 12.044,7.000 12.295,7.000 12.906 C 7.000 13.838,7.039 14.011,7.323 14.334 C 7.790 14.864,8.642 14.884,9.137 14.376 C 9.449 14.055,9.520 13.778,9.520 12.880 C 9.520 11.979,9.449 11.702,9.134 11.385 C 8.830 11.078,8.317 10.940,7.907 11.055 M15.469 11.041 C 15.241 11.098,15.037 11.215,14.866 11.386 C 14.552 11.700,14.480 11.979,14.480 12.880 C 14.480 13.778,14.551 14.055,14.863 14.376 C 15.350 14.875,16.199 14.865,16.661 14.354 C 16.962 14.020,16.980 13.938,16.980 12.880 C 16.980 11.822,16.962 11.740,16.661 11.406 C 16.385 11.101,15.865 10.942,15.469 11.041 " stroke="none" fill-rule="evenodd" fill="black"></path></svg>