<svg viewBox="0 0 24 24" xmlns="http://www.w3.org/2000/svg"><path d="M12.200 2.375 C 11.624 2.534,11.280 2.892,11.280 3.334 C 11.280 3.694,11.318 3.733,13.001 5.105 L 14.566 6.380 9.793 6.400 L 5.020 6.420 4.795 6.511 C 3.668 6.967,3.433 8.131,4.380 8.568 L 4.580 8.660 7.072 8.680 L 9.565 8.700 5.654 11.700 C 0.760 15.454,1.052 15.222,0.847 15.514 C 0.119 16.553,0.621 17.722,1.800 17.734 C 2.166 17.737,2.587 17.617,2.866 17.429 C 2.974 17.357,4.060 16.481,5.281 15.483 C 6.501 14.485,7.518 13.654,7.541 13.637 C 7.569 13.615,7.577 13.778,7.567 14.140 C 7.542 14.967,7.716 15.691,8.166 16.640 C 8.514 17.375,8.976 18.022,9.578 18.621 C 10.801 19.835,12.296 20.584,14.142 20.907 C 14.705 21.005,16.255 21.005,16.818 20.907 C 19.202 20.490,21.109 19.305,22.325 17.487 C 23.694 15.440,23.872 12.888,22.799 10.699 C 22.412 9.910,21.765 9.056,21.136 8.504 C 20.823 8.230,13.604 2.670,13.351 2.509 C 13.085 2.339,12.554 2.278,12.200 2.375 M16.540 8.779 C 18.399 9.167,19.825 10.461,20.248 12.145 C 20.322 12.439,20.337 12.606,20.335 13.120 C 20.333 13.654,20.319 13.793,20.231 14.122 C 19.834 15.603,18.608 16.824,17.040 17.295 C 16.523 17.451,16.042 17.520,15.480 17.520 C 14.056 17.520,12.791 17.001,11.859 16.034 C 11.294 15.448,11.002 14.960,10.772 14.211 C 10.673 13.887,10.664 13.805,10.662 13.140 C 10.660 12.507,10.671 12.379,10.753 12.080 C 11.232 10.324,12.831 8.993,14.785 8.723 C 15.177 8.668,16.160 8.700,16.540 8.779 " stroke="none" fill-rule="evenodd" fill="black"></path></svg>