<svg viewBox="0 0 24 24" xmlns="http://www.w3.org/2000/svg"><path d="M4.980 3.087 C 4.414 3.194,3.802 3.667,3.513 4.220 C 3.276 4.675,3.250 4.845,3.225 6.140 C 3.197 7.602,3.118 8.281,2.874 9.158 C 2.736 9.655,2.391 10.381,2.166 10.651 C 1.794 11.095,1.482 11.279,0.869 11.417 L 0.758 11.442 0.769 12.008 L 0.780 12.573 1.024 12.623 C 1.455 12.711,1.831 12.950,2.166 13.349 C 2.391 13.619,2.736 14.345,2.874 14.842 C 3.118 15.719,3.197 16.398,3.225 17.860 C 3.241 18.689,3.264 19.088,3.307 19.260 C 3.507 20.064,4.209 20.754,4.992 20.916 C 5.291 20.978,18.709 20.978,19.008 20.916 C 19.724 20.768,20.351 20.209,20.640 19.460 C 20.727 19.236,20.735 19.141,20.763 18.000 C 20.802 16.416,20.883 15.710,21.127 14.842 C 21.248 14.410,21.507 13.813,21.695 13.535 C 22.005 13.076,22.505 12.719,22.971 12.624 L 23.220 12.573 23.231 12.008 L 23.242 11.442 23.131 11.418 C 22.622 11.305,22.351 11.167,22.036 10.860 C 21.409 10.251,21.023 9.200,20.837 7.600 C 20.813 7.391,20.780 6.671,20.763 6.000 C 20.735 4.859,20.727 4.764,20.640 4.540 C 20.346 3.778,19.703 3.214,18.983 3.083 C 18.676 3.028,5.274 3.031,4.980 3.087 M13.658 7.352 C 14.765 7.660,15.438 8.413,15.507 9.419 C 15.519 9.596,15.509 9.848,15.484 9.980 C 15.346 10.715,14.738 11.409,14.047 11.618 C 13.801 11.692,13.724 11.760,13.884 11.760 C 13.931 11.760,14.079 11.788,14.214 11.823 C 15.113 12.053,15.762 12.707,15.946 13.569 C 16.076 14.180,15.935 15.000,15.616 15.480 C 15.224 16.070,14.724 16.402,13.880 16.633 L 13.500 16.737 11.249 16.751 L 8.999 16.765 8.879 16.645 L 8.760 16.526 8.760 12.000 L 8.760 7.474 8.879 7.354 L 8.999 7.235 11.169 7.249 C 13.262 7.263,13.351 7.267,13.658 7.352 M10.280 9.860 L 10.280 11.286 11.470 11.271 C 12.578 11.257,12.679 11.249,12.940 11.164 C 13.692 10.919,14.034 10.447,13.991 9.714 C 13.958 9.131,13.665 8.757,13.084 8.556 C 12.835 8.469,12.749 8.463,11.550 8.449 L 10.280 8.433 10.280 9.860 M10.280 14.003 L 10.280 15.566 11.650 15.549 C 12.798 15.535,13.059 15.521,13.258 15.463 C 14.069 15.226,14.440 14.759,14.440 13.974 C 14.440 13.178,13.994 12.684,13.112 12.503 C 12.869 12.453,12.535 12.440,11.542 12.440 L 10.280 12.440 10.280 14.003 " stroke="none" fill-rule="evenodd" fill="black"></path></svg>