<svg viewBox="0 0 24 24" xmlns="http://www.w3.org/2000/svg"><path d="M5.503 3.042 C 4.509 3.210,3.544 3.988,3.216 4.885 C 3.042 5.360,3.032 5.444,2.998 6.720 C 2.952 8.454,2.860 8.995,2.476 9.792 C 2.162 10.441,1.668 10.884,1.150 10.981 L 1.000 11.009 1.000 12.000 L 1.000 12.991 1.148 13.019 C 1.414 13.069,1.771 13.282,2.029 13.545 C 2.219 13.738,2.325 13.896,2.476 14.209 C 2.860 15.005,2.952 15.546,2.998 17.280 C 3.033 18.596,3.045 18.685,3.245 19.180 C 3.518 19.854,4.156 20.484,4.849 20.766 C 5.449 21.011,5.123 21.000,12.000 21.000 C 18.876 21.000,18.551 21.011,19.150 20.767 C 19.861 20.477,20.544 19.781,20.789 19.097 C 20.960 18.620,20.969 18.544,21.002 17.280 C 21.048 15.547,21.140 15.005,21.524 14.209 C 21.675 13.896,21.781 13.738,21.971 13.545 C 22.229 13.282,22.586 13.069,22.852 13.019 L 23.000 12.991 23.000 12.000 L 23.000 11.009 22.850 10.981 C 22.332 10.884,21.839 10.441,21.523 9.792 C 21.141 9.004,21.048 8.457,21.002 6.720 C 20.967 5.423,20.956 5.335,20.768 4.849 C 20.527 4.223,19.959 3.630,19.296 3.312 C 18.639 2.996,19.291 3.023,12.120 3.015 C 8.589 3.012,5.611 3.024,5.503 3.042 M18.340 5.066 C 18.598 5.154,18.851 5.409,18.932 5.664 C 18.981 5.816,18.999 6.117,19.014 7.000 C 19.026 7.744,19.055 8.283,19.096 8.552 C 19.309 9.945,19.701 10.887,20.422 11.737 L 20.645 12.000 20.422 12.263 C 19.701 13.113,19.309 14.055,19.096 15.448 C 19.055 15.717,19.026 16.256,19.014 17.000 C 18.992 18.313,18.970 18.432,18.702 18.700 C 18.379 19.024,18.905 19.000,12.000 19.000 C 5.097 19.000,5.621 19.023,5.299 18.701 C 5.031 18.433,5.000 18.286,5.000 17.283 C 5.000 14.904,4.589 13.455,3.576 12.261 L 3.352 11.996 3.551 11.766 C 4.060 11.181,4.426 10.496,4.654 9.700 C 4.909 8.809,5.000 8.028,5.000 6.717 C 5.000 5.713,5.031 5.567,5.300 5.298 C 5.614 4.984,5.091 5.007,11.983 5.003 C 17.620 5.000,18.162 5.006,18.340 5.066 M8.480 12.002 L 8.480 17.003 11.250 16.990 C 14.324 16.976,14.181 16.988,14.791 16.700 C 15.721 16.262,16.336 15.398,16.479 14.330 C 16.557 13.752,16.390 12.979,16.075 12.456 C 15.903 12.171,15.574 11.806,15.322 11.621 L 15.126 11.477 15.221 11.263 C 15.549 10.519,15.583 9.769,15.323 9.010 C 15.163 8.545,14.989 8.271,14.619 7.901 C 14.282 7.563,14.006 7.378,13.594 7.211 C 13.115 7.018,12.902 7.003,10.610 7.001 L 8.480 7.000 8.480 12.002 M12.944 9.108 C 13.134 9.210,13.347 9.438,13.425 9.626 C 13.496 9.795,13.496 10.205,13.425 10.374 C 13.338 10.581,13.118 10.804,12.900 10.906 C 12.706 10.996,12.667 10.999,11.610 11.000 L 10.520 11.000 10.520 9.998 L 10.520 8.995 11.650 9.008 C 12.724 9.019,12.788 9.024,12.944 9.108 M13.944 13.108 C 14.134 13.210,14.347 13.438,14.425 13.626 C 14.496 13.795,14.496 14.205,14.425 14.374 C 14.338 14.581,14.118 14.804,13.900 14.906 C 13.701 14.999,13.691 14.999,12.110 15.000 L 10.520 15.000 10.520 13.998 L 10.520 12.997 12.150 13.008 C 13.740 13.020,13.784 13.022,13.944 13.108 " stroke="none" fill-rule="evenodd" fill="black"></path></svg>