<svg viewBox="0 0 24 24" xmlns="http://www.w3.org/2000/svg"><path d="M9.780 4.240 L 7.540 6.480 9.770 8.710 L 12.000 10.940 14.240 8.700 L 16.480 6.460 14.250 4.230 L 12.020 2.000 9.780 4.240 M4.000 5.930 L 4.000 7.860 5.920 5.940 C 6.976 4.884,7.840 4.016,7.840 4.010 C 7.840 4.005,6.976 4.000,5.920 4.000 L 4.000 4.000 4.000 5.930 M18.060 5.920 C 19.116 6.976,19.984 7.840,19.990 7.840 C 19.995 7.840,20.000 6.976,20.000 5.920 L 20.000 4.000 18.070 4.000 L 16.140 4.000 18.060 5.920 M4.240 9.780 L 2.020 12.000 4.250 14.230 L 6.480 16.460 8.710 14.230 L 10.940 12.000 8.720 9.780 C 7.499 8.559,6.491 7.560,6.480 7.560 C 6.469 7.560,5.461 8.559,4.240 9.780 M15.280 9.780 L 13.060 12.000 15.300 14.240 L 17.540 16.480 19.780 14.240 L 22.020 12.000 19.800 9.780 C 18.579 8.559,17.562 7.560,17.540 7.560 C 17.518 7.560,16.501 8.559,15.280 9.780 M9.760 15.300 L 7.540 17.520 9.760 19.740 C 10.981 20.961,11.993 21.960,12.009 21.960 C 12.025 21.960,13.039 20.967,14.261 19.752 L 16.485 17.545 14.252 15.312 C 13.025 14.085,12.011 13.080,12.000 13.080 C 11.989 13.080,10.981 14.079,9.760 15.300 M4.000 18.080 L 4.000 20.000 5.930 20.000 L 7.860 20.000 5.940 18.080 C 4.884 17.024,4.016 16.160,4.010 16.160 C 4.005 16.160,4.000 17.024,4.000 18.080 M18.060 18.080 L 16.140 20.000 18.070 20.000 L 20.000 20.000 20.000 18.080 C 20.000 17.024,19.995 16.160,19.990 16.160 C 19.984 16.160,19.116 17.024,18.060 18.080 " stroke="none" fill-rule="evenodd" fill="black"></path></svg>