<svg viewBox="0 0 24 24" xmlns="http://www.w3.org/2000/svg"><path d="M11.120 2.039 C 8.641 2.287,6.414 3.362,4.761 5.107 C 1.806 8.228,1.158 12.819,3.137 16.623 C 3.620 17.552,4.164 18.288,4.938 19.061 C 5.930 20.051,7.038 20.789,8.272 21.278 C 11.634 22.610,15.313 22.080,18.200 19.845 C 18.637 19.507,19.507 18.637,19.845 18.200 C 21.256 16.378,22.000 14.236,22.000 12.000 C 22.000 7.432,18.842 3.387,14.430 2.303 C 13.446 2.062,12.028 1.948,11.120 2.039 M13.240 4.100 C 14.950 4.383,16.392 5.117,17.602 6.320 C 18.058 6.774,18.600 7.413,18.600 7.497 C 18.600 7.510,17.009 7.520,15.065 7.520 C 12.114 7.520,11.474 7.530,11.189 7.580 C 9.924 7.800,8.699 8.671,8.079 9.790 C 8.028 9.883,7.974 9.960,7.961 9.960 C 7.948 9.960,7.509 9.219,6.987 8.313 L 6.036 6.666 6.328 6.370 C 7.648 5.030,9.428 4.201,11.360 4.025 C 11.716 3.992,12.868 4.038,13.240 4.100 M6.517 11.504 C 7.450 13.122,8.304 14.566,8.416 14.713 C 9.248 15.812,10.529 16.464,11.913 16.493 C 12.115 16.497,12.280 16.502,12.280 16.505 C 12.280 16.521,10.390 19.784,10.367 19.807 C 10.352 19.821,10.172 19.790,9.966 19.736 C 8.975 19.477,7.943 18.970,7.100 18.326 C 6.730 18.043,6.103 17.421,5.762 16.997 C 5.072 16.141,4.550 15.109,4.277 14.060 C 4.070 13.267,4.025 12.893,4.026 12.000 C 4.026 11.127,4.072 10.743,4.261 9.994 C 4.391 9.482,4.735 8.559,4.795 8.561 C 4.809 8.561,5.584 9.885,6.517 11.504 M12.827 9.647 C 13.553 9.907,14.108 10.472,14.368 11.213 C 14.488 11.556,14.514 12.240,14.420 12.600 C 14.270 13.179,13.926 13.685,13.448 14.027 C 12.939 14.392,12.303 14.560,11.730 14.482 C 10.751 14.347,10.021 13.782,9.668 12.888 C 9.565 12.625,9.544 12.513,9.529 12.120 C 9.516 11.773,9.528 11.596,9.579 11.400 C 9.810 10.505,10.477 9.830,11.377 9.578 C 11.514 9.540,11.736 9.525,12.060 9.533 C 12.455 9.542,12.591 9.562,12.827 9.647 M19.670 9.720 C 19.800 10.153,19.925 10.866,19.969 11.430 C 20.194 14.324,18.796 17.118,16.311 18.736 C 15.354 19.360,13.949 19.858,12.895 19.947 L 12.590 19.973 12.650 19.876 C 13.049 19.243,16.072 13.927,16.162 13.700 C 16.689 12.385,16.586 10.934,15.881 9.730 L 15.758 9.519 17.687 9.530 L 19.616 9.540 19.670 9.720 " stroke="none" fill-rule="evenodd" fill="black"></path></svg>