<svg viewBox="0 0 24 24" xmlns="http://www.w3.org/2000/svg"><path d="M11.120 2.039 C 8.641 2.287,6.414 3.362,4.761 5.107 C 1.806 8.228,1.158 12.819,3.137 16.623 C 3.620 17.552,4.164 18.288,4.938 19.061 C 5.930 20.051,7.038 20.789,8.272 21.278 C 11.634 22.610,15.313 22.080,18.200 19.845 C 18.637 19.507,19.507 18.637,19.845 18.200 C 21.256 16.378,22.000 14.236,22.000 12.000 C 22.000 7.432,18.842 3.387,14.430 2.303 C 13.446 2.062,12.028 1.948,11.120 2.039 M13.068 3.145 C 15.809 3.454,18.356 5.191,19.750 7.702 C 20.492 9.039,20.909 10.562,20.925 12.000 C 20.930 12.488,20.922 12.559,20.838 12.735 C 20.397 13.671,18.406 14.499,15.640 14.897 C 14.215 15.102,12.282 15.196,10.910 15.127 C 9.858 15.074,8.671 14.970,8.535 14.918 C 8.443 14.883,8.441 14.870,8.360 13.740 C 8.310 13.042,8.310 11.383,8.361 10.718 C 8.658 6.850,9.811 3.896,11.290 3.219 C 11.683 3.040,12.016 3.026,13.068 3.145 M11.531 7.359 C 11.291 7.506,11.046 7.910,10.866 8.460 C 10.619 9.215,10.499 9.947,10.442 11.037 C 10.407 11.717,10.443 12.937,10.500 12.994 C 10.551 13.045,12.965 13.022,13.380 12.967 C 14.911 12.763,15.906 12.378,16.155 11.893 C 16.219 11.769,16.211 11.305,16.138 10.922 C 15.875 9.536,15.094 8.472,13.832 7.781 C 13.099 7.381,11.867 7.154,11.531 7.359 " stroke="none" fill-rule="evenodd" fill="black"></path></svg>