<svg viewBox="0 0 24 24" xmlns="http://www.w3.org/2000/svg"><path d="M11.120 2.039 C 8.641 2.287,6.414 3.362,4.761 5.107 C 1.806 8.228,1.158 12.819,3.137 16.623 C 3.620 17.552,4.164 18.288,4.938 19.061 C 5.930 20.051,7.038 20.789,8.272 21.278 C 11.634 22.610,15.313 22.080,18.200 19.845 C 18.637 19.507,19.507 18.637,19.845 18.200 C 21.256 16.378,22.000 14.236,22.000 12.000 C 22.000 7.432,18.842 3.387,14.430 2.303 C 13.446 2.062,12.028 1.948,11.120 2.039 M12.740 4.041 C 15.525 4.302,17.953 5.983,19.182 8.500 C 20.655 11.514,20.091 15.104,17.765 17.530 C 16.248 19.111,14.175 19.999,12.000 19.999 C 8.235 19.999,4.948 17.331,4.177 13.648 C 3.426 10.057,5.201 6.431,8.501 4.817 C 9.822 4.170,11.277 3.904,12.740 4.041 M7.236 6.287 C 7.078 6.582,7.461 8.142,7.852 8.794 C 8.004 9.048,8.139 9.125,8.980 9.441 C 9.548 9.654,11.612 10.343,12.054 10.467 C 12.571 10.612,12.163 10.551,11.057 10.318 C 9.772 10.047,8.802 9.827,8.503 9.738 C 8.246 9.663,7.984 9.663,7.920 9.739 C 7.843 9.833,7.979 10.313,8.216 10.780 C 8.381 11.107,8.480 11.243,8.759 11.524 C 9.255 12.024,9.177 12.006,11.000 12.039 C 11.825 12.053,12.451 12.068,12.390 12.072 C 12.188 12.086,10.182 12.361,9.941 12.408 C 9.659 12.462,9.513 12.581,9.549 12.726 C 9.649 13.125,10.564 13.899,11.149 14.080 C 11.495 14.187,11.634 14.181,12.082 14.043 C 12.607 13.881,13.085 13.751,13.098 13.767 C 13.104 13.774,13.022 14.140,12.915 14.580 C 12.809 15.020,12.722 15.412,12.721 15.450 C 12.720 15.513,12.774 15.520,13.300 15.520 C 13.738 15.520,13.880 15.532,13.879 15.570 C 13.878 15.598,13.735 16.187,13.561 16.879 C 13.387 17.572,13.248 18.141,13.252 18.145 C 13.257 18.149,13.912 17.286,14.709 16.226 L 16.158 14.300 15.419 14.289 C 14.908 14.282,14.680 14.264,14.680 14.234 C 14.680 14.209,14.764 14.052,14.866 13.884 C 15.784 12.380,16.371 11.343,16.540 10.927 C 16.788 10.318,16.584 9.952,15.771 9.545 C 15.373 9.346,15.029 9.212,13.906 8.823 C 12.094 8.194,10.781 7.667,8.424 6.623 C 7.898 6.390,7.426 6.200,7.375 6.200 C 7.321 6.200,7.263 6.236,7.236 6.287 " stroke="none" fill-rule="evenodd" fill="black"></path></svg>