<svg viewBox="0 0 24 24" xmlns="http://www.w3.org/2000/svg"><path d="M8.880 4.028 C 8.479 4.096,7.408 4.356,6.924 4.502 C 6.272 4.700,5.816 4.865,5.156 5.144 L 4.710 5.332 4.421 5.776 C 2.324 9.001,1.337 12.576,1.521 16.276 C 1.544 16.751,1.573 17.171,1.584 17.209 C 1.608 17.288,2.657 17.994,3.280 18.350 C 4.228 18.892,5.251 19.355,6.300 19.717 C 6.623 19.829,6.894 19.920,6.902 19.920 C 6.937 19.920,7.687 18.753,7.860 18.430 C 8.030 18.112,8.040 18.078,7.974 18.054 C 7.516 17.887,6.418 17.353,6.307 17.243 C 6.290 17.225,6.367 17.138,6.479 17.048 L 6.683 16.886 7.098 17.060 C 8.221 17.530,9.470 17.855,10.740 18.007 C 11.268 18.069,12.796 18.068,13.300 18.004 C 14.745 17.821,15.878 17.511,17.162 16.948 C 17.303 16.886,17.304 16.886,17.517 17.049 C 17.720 17.204,17.727 17.216,17.656 17.270 C 17.543 17.355,16.535 17.853,16.260 17.959 C 16.128 18.011,16.006 18.065,15.989 18.079 C 15.957 18.107,16.166 18.506,16.479 19.020 C 16.656 19.310,17.076 19.920,17.098 19.920 C 17.105 19.920,17.325 19.846,17.586 19.757 C 19.142 19.220,20.403 18.598,21.766 17.694 C 22.498 17.208,22.420 17.372,22.478 16.180 C 22.596 13.732,22.207 11.382,21.294 9.040 C 21.060 8.440,20.358 7.018,20.020 6.460 C 19.587 5.745,19.304 5.326,19.240 5.305 C 19.207 5.295,18.982 5.202,18.740 5.099 C 17.791 4.696,16.688 4.352,15.685 4.145 C 14.879 3.979,14.983 3.966,14.825 4.251 C 14.749 4.388,14.628 4.635,14.556 4.800 C 14.484 4.965,14.422 5.105,14.417 5.112 C 14.413 5.119,14.151 5.092,13.835 5.053 C 13.398 5.000,12.962 4.983,12.020 4.983 C 10.916 4.983,10.497 5.006,9.798 5.103 L 9.617 5.129 9.341 4.564 C 9.189 4.254,9.046 4.002,9.022 4.005 C 8.999 4.008,8.935 4.019,8.880 4.028 M8.845 10.680 C 9.787 10.856,10.445 11.776,10.390 12.840 C 10.366 13.305,10.258 13.641,10.017 14.005 C 9.805 14.323,9.576 14.519,9.212 14.691 C 8.959 14.811,8.910 14.820,8.518 14.820 C 8.109 14.820,8.086 14.815,7.785 14.667 C 7.399 14.476,7.110 14.193,6.910 13.814 C 6.094 12.261,7.253 10.383,8.845 10.680 M15.848 10.685 C 16.521 10.828,17.112 11.418,17.305 12.140 C 17.381 12.421,17.375 13.094,17.296 13.363 C 16.972 14.453,15.971 15.065,15.005 14.765 C 14.661 14.658,14.445 14.519,14.188 14.242 C 13.376 13.365,13.429 11.923,14.302 11.125 C 14.739 10.725,15.295 10.567,15.848 10.685 " stroke="none" fill-rule="evenodd" fill="black"></path></svg>