<svg viewBox="0 0 24 24" xmlns="http://www.w3.org/2000/svg"><path d="M11.120 2.039 C 9.316 2.220,7.707 2.807,6.280 3.806 C 2.443 6.492,0.976 11.457,2.744 15.774 L 2.922 16.209 2.217 18.087 C 1.830 19.120,1.520 19.973,1.528 19.982 C 1.537 19.990,2.411 19.889,3.470 19.756 L 5.396 19.515 5.746 19.798 C 8.275 21.844,11.750 22.522,14.865 21.578 C 16.499 21.082,17.850 20.272,19.061 19.061 C 19.836 18.287,20.383 17.547,20.863 16.623 C 23.186 12.156,21.847 6.696,17.720 3.806 C 16.452 2.918,15.069 2.366,13.493 2.119 C 12.909 2.027,11.660 1.985,11.120 2.039 M13.156 7.115 C 15.324 7.522,16.759 8.812,17.205 10.756 C 17.307 11.200,17.348 12.208,17.284 12.689 C 17.144 13.737,16.740 14.620,16.073 15.336 C 15.406 16.053,14.630 16.498,13.560 16.778 C 12.810 16.974,12.413 17.000,10.118 17.000 L 8.000 17.000 8.000 11.997 L 8.000 6.993 10.350 7.011 C 12.537 7.028,12.732 7.035,13.156 7.115 M10.720 12.026 L 10.720 14.571 11.550 14.549 C 12.210 14.531,12.445 14.510,12.700 14.443 C 13.891 14.132,14.536 13.271,14.530 12.000 C 14.526 10.942,14.103 10.200,13.269 9.785 C 12.757 9.531,12.464 9.480,11.502 9.480 L 10.720 9.480 10.720 12.026 " stroke="none" fill-rule="evenodd" fill="black"></path></svg>