<svg viewBox="0 0 24 24" xmlns="http://www.w3.org/2000/svg"><path d="M4.695 5.385 C 3.004 6.429,1.608 7.296,1.591 7.313 C 1.575 7.329,2.519 7.962,3.691 8.718 C 4.862 9.474,5.843 10.113,5.870 10.138 C 5.909 10.173,5.426 10.505,3.739 11.599 C 2.539 12.377,1.572 13.027,1.589 13.044 C 1.606 13.061,3.003 13.923,4.694 14.959 L 7.768 16.843 9.842 15.501 C 10.982 14.763,11.941 14.149,11.972 14.138 C 12.004 14.125,12.940 14.707,14.134 15.480 L 16.239 16.844 19.290 14.976 C 20.967 13.949,22.364 13.087,22.393 13.060 C 22.435 13.021,22.065 12.764,20.513 11.759 C 19.450 11.070,18.467 10.431,18.329 10.339 L 18.078 10.171 20.261 8.759 C 22.009 7.629,22.434 7.338,22.392 7.299 C 22.363 7.272,20.968 6.404,19.291 5.369 L 16.241 3.487 14.122 4.863 L 12.003 6.238 10.292 5.126 C 9.350 4.515,8.397 3.896,8.174 3.751 L 7.769 3.488 4.695 5.385 M8.920 6.619 C 9.525 7.010,10.052 7.353,10.092 7.380 C 10.155 7.424,10.024 7.521,8.980 8.199 C 8.311 8.633,7.772 8.958,7.740 8.946 C 7.636 8.906,5.320 7.393,5.322 7.367 C 5.325 7.314,7.701 5.878,7.760 5.893 C 7.793 5.901,8.315 6.228,8.920 6.619 M17.533 6.635 C 18.187 7.039,18.718 7.374,18.712 7.380 C 18.637 7.439,16.320 8.923,16.273 8.940 C 16.187 8.974,13.814 7.438,13.887 7.396 C 13.916 7.380,14.453 7.032,15.080 6.623 C 15.707 6.215,16.248 5.885,16.281 5.890 C 16.315 5.896,16.878 6.231,17.533 6.635 M13.211 9.400 C 13.842 9.807,14.358 10.152,14.359 10.167 C 14.359 10.181,13.830 10.536,13.182 10.956 L 12.004 11.719 10.820 10.953 C 9.861 10.333,9.646 10.178,9.688 10.137 C 9.801 10.029,11.982 8.638,12.022 8.649 C 12.046 8.655,12.581 8.993,13.211 9.400 M9.160 12.259 C 9.699 12.607,10.145 12.895,10.152 12.901 C 10.161 12.908,7.979 14.333,7.777 14.451 C 7.729 14.479,5.362 13.043,5.353 12.980 C 5.349 12.958,5.893 12.586,6.560 12.153 L 7.773 11.366 7.977 11.497 C 8.089 11.569,8.621 11.912,9.160 12.259 M17.548 12.220 C 18.191 12.636,18.713 12.980,18.708 12.983 C 18.704 12.987,18.153 13.326,17.485 13.736 L 16.269 14.481 15.075 13.710 C 14.419 13.287,13.886 12.925,13.892 12.907 C 13.897 12.889,14.423 12.536,15.061 12.122 C 16.086 11.456,16.229 11.375,16.300 11.417 C 16.344 11.443,16.906 11.804,17.548 12.220 M7.740 17.842 C 7.256 18.151,6.848 18.417,6.833 18.432 C 6.819 18.447,7.984 19.210,9.424 20.127 L 12.042 21.793 14.659 20.127 C 16.636 18.867,17.264 18.449,17.228 18.415 C 17.169 18.359,15.538 17.324,15.465 17.296 C 15.437 17.285,14.663 17.754,13.745 18.338 C 12.828 18.922,12.062 19.400,12.043 19.400 C 12.023 19.400,11.258 18.923,10.343 18.340 C 9.427 17.757,8.665 17.280,8.649 17.280 C 8.633 17.280,8.224 17.533,7.740 17.842 " stroke="none" fill-rule="evenodd" fill="black"></path></svg>