<svg viewBox="0 0 24 24" xmlns="http://www.w3.org/2000/svg"><path d="M11.120 2.039 C 8.643 2.287,6.414 3.362,4.761 5.107 C 1.806 8.228,1.158 12.819,3.137 16.623 C 3.620 17.552,4.164 18.288,4.938 19.061 C 5.715 19.837,6.454 20.383,7.377 20.863 C 10.895 22.693,15.120 22.285,18.240 19.814 C 19.023 19.194,20.283 17.770,20.461 17.304 C 20.519 17.152,20.521 17.112,20.474 17.017 C 20.372 16.807,20.266 16.813,19.634 17.064 C 19.318 17.190,18.883 17.343,18.668 17.405 C 17.065 17.867,15.054 17.777,13.461 17.172 C 11.738 16.518,10.359 15.166,9.786 13.569 C 9.537 12.877,9.450 11.962,9.581 11.408 C 9.700 10.902,10.034 10.372,10.427 10.063 C 10.891 9.699,11.407 9.521,12.000 9.521 C 12.982 9.521,13.802 10.029,14.237 10.908 C 14.405 11.247,14.479 11.591,14.479 12.040 C 14.479 12.677,14.321 13.073,13.859 13.592 C 13.572 13.915,13.552 13.990,13.677 14.266 C 13.867 14.683,14.631 15.058,15.680 15.247 C 16.357 15.369,17.501 15.369,18.069 15.247 C 19.099 15.025,19.931 14.584,20.624 13.892 C 21.470 13.047,21.936 11.958,21.990 10.698 C 22.057 9.117,21.493 7.427,20.423 6.010 C 18.836 3.907,16.288 2.476,13.460 2.099 C 12.895 2.024,11.604 1.991,11.120 2.039 M13.360 4.102 C 14.302 4.242,15.075 4.479,15.915 4.884 C 16.885 5.351,17.570 5.845,18.275 6.583 C 19.617 7.988,20.271 9.916,19.880 11.314 C 19.553 12.482,18.538 13.251,17.197 13.346 C 17.009 13.360,16.733 13.358,16.584 13.342 C 16.330 13.315,16.314 13.307,16.338 13.226 C 16.501 12.664,16.537 11.710,16.421 11.020 C 16.342 10.548,16.103 9.803,15.906 9.413 C 15.367 8.342,14.393 7.382,13.240 6.786 C 11.854 6.070,10.119 5.712,8.320 5.772 C 7.741 5.791,7.509 5.819,6.880 5.943 C 6.751 5.969,6.766 5.950,7.072 5.707 C 8.228 4.787,9.680 4.202,11.212 4.040 C 11.665 3.992,12.853 4.026,13.360 4.102 M9.835 7.825 L 10.051 7.851 9.655 8.049 C 8.907 8.425,8.321 8.873,7.769 9.492 C 6.661 10.734,6.003 12.418,6.001 14.020 C 5.999 15.134,6.296 16.598,6.757 17.743 C 6.845 17.960,6.909 18.144,6.902 18.152 C 6.873 18.180,6.027 17.335,5.794 17.046 C 4.712 15.701,4.107 14.108,4.016 12.366 C 3.948 11.062,4.320 10.024,5.172 9.134 C 5.810 8.467,6.714 7.986,7.600 7.842 C 7.765 7.815,7.927 7.786,7.960 7.778 C 8.049 7.757,9.586 7.795,9.835 7.825 M8.753 15.930 C 9.966 17.721,11.941 18.999,14.224 19.469 C 14.409 19.507,14.560 19.550,14.560 19.564 C 14.560 19.597,13.906 19.778,13.500 19.857 C 12.773 19.998,11.949 20.039,11.497 19.957 C 10.327 19.743,9.344 18.747,8.645 17.068 C 8.393 16.462,8.145 15.520,8.063 14.860 C 8.038 14.664,8.042 14.669,8.290 15.140 C 8.429 15.404,8.637 15.760,8.753 15.930 " stroke="none" fill-rule="evenodd" fill="black"></path></svg>