<svg viewBox="0 0 24 24" xmlns="http://www.w3.org/2000/svg"><path d="M10.200 2.578 C 9.730 2.698,9.170 3.023,8.680 3.460 C 7.606 4.420,5.883 6.115,5.111 6.971 C 3.672 8.570,3.429 9.138,3.522 10.691 C 3.646 12.764,4.326 14.508,5.415 15.548 C 6.337 16.429,7.468 16.927,8.900 17.082 C 9.796 17.180,10.513 17.057,11.027 16.720 C 11.342 16.513,11.816 16.009,12.013 15.671 L 12.166 15.408 12.663 15.583 C 13.366 15.831,14.254 16.065,14.852 16.160 C 15.134 16.204,15.462 16.275,15.582 16.317 C 16.433 16.616,17.143 17.491,17.287 18.416 C 17.473 19.613,16.514 20.731,15.299 20.733 C 14.725 20.734,14.280 20.489,14.051 20.045 C 13.749 19.462,13.963 19.097,14.747 18.857 C 15.011 18.776,15.100 18.728,15.214 18.601 C 15.540 18.240,15.421 17.654,14.979 17.440 C 14.817 17.361,14.756 17.353,14.499 17.376 C 13.217 17.492,12.246 18.470,12.172 19.720 C 12.112 20.751,12.689 21.682,13.700 22.182 C 14.161 22.410,14.582 22.515,15.168 22.547 C 16.501 22.619,17.796 22.134,18.696 21.227 C 19.564 20.351,20.083 19.146,20.298 17.508 C 20.554 15.555,20.587 12.611,20.378 10.305 C 20.253 8.926,19.990 7.159,19.834 6.648 C 19.536 5.675,18.787 4.992,17.677 4.681 C 17.464 4.621,13.619 3.920,13.504 3.920 C 13.497 3.920,13.459 3.834,13.420 3.730 C 13.309 3.436,13.172 3.222,12.982 3.046 C 12.583 2.678,12.141 2.556,11.140 2.536 C 10.614 2.526,10.361 2.537,10.200 2.578 M11.709 4.796 C 11.930 5.268,12.448 5.705,12.940 5.835 C 13.028 5.858,13.973 6.030,15.040 6.217 C 17.220 6.599,17.519 6.677,17.745 6.926 C 17.882 7.078,17.919 7.176,18.000 7.622 C 18.176 8.579,18.340 9.928,18.447 11.300 C 18.504 12.040,18.516 14.680,18.466 15.494 L 18.431 16.048 18.118 15.710 C 17.757 15.321,17.353 15.000,16.898 14.740 C 16.449 14.484,16.231 14.410,15.472 14.257 C 14.540 14.069,14.088 13.950,13.280 13.680 C 12.895 13.551,12.472 13.434,12.340 13.420 C 11.775 13.358,11.103 13.611,10.715 14.032 C 10.597 14.160,10.448 14.362,10.384 14.482 C 10.213 14.801,10.060 14.981,9.892 15.061 C 9.767 15.121,9.676 15.128,9.302 15.106 C 8.118 15.040,7.028 14.523,6.500 13.780 C 5.897 12.932,5.520 11.576,5.520 10.259 C 5.520 9.810,5.522 9.799,5.637 9.671 L 5.753 9.540 7.747 9.520 L 9.740 9.500 9.945 9.392 C 10.168 9.274,10.326 9.110,10.431 8.885 C 10.491 8.756,10.501 8.510,10.520 6.714 C 10.539 4.794,10.544 4.684,10.616 4.604 C 10.685 4.528,10.735 4.520,11.136 4.521 L 11.580 4.522 11.709 4.796 M15.533 10.111 C 15.250 10.213,15.064 10.364,14.961 10.578 C 14.850 10.807,14.866 10.883,15.043 10.970 C 15.348 11.119,16.928 11.269,17.059 11.161 C 17.189 11.053,17.101 10.668,16.894 10.438 C 16.586 10.097,15.979 9.952,15.533 10.111 " stroke="none" fill-rule="evenodd" fill="black"></path></svg>