<svg viewBox="0 0 24 24" xmlns="http://www.w3.org/2000/svg"><path d="M11.120 2.039 C 8.629 2.288,6.405 3.366,4.741 5.129 C 0.377 9.753,1.365 17.197,6.784 20.529 C 9.757 22.357,13.506 22.485,16.623 20.863 C 18.170 20.058,19.526 18.804,20.496 17.280 C 20.776 16.841,21.249 15.849,21.434 15.315 C 21.836 14.152,21.978 13.285,21.978 12.000 C 21.978 10.715,21.836 9.848,21.434 8.685 C 21.249 8.151,20.776 7.159,20.496 6.720 C 19.915 5.807,18.965 4.745,18.200 4.154 C 16.755 3.037,15.204 2.374,13.400 2.101 C 12.904 2.026,11.603 1.991,11.120 2.039 M13.218 4.099 C 17.327 4.734,20.292 8.472,19.960 12.600 C 19.674 16.166,17.122 19.089,13.653 19.824 C 13.404 19.877,13.155 19.920,13.100 19.920 L 13.000 19.920 13.000 16.960 L 13.000 14.000 13.998 14.000 L 14.997 14.000 15.036 13.850 C 15.161 13.378,15.480 12.077,15.480 12.041 C 15.480 12.014,15.069 12.000,14.240 12.000 L 13.000 12.000 13.000 10.910 C 13.001 9.308,13.057 8.984,13.376 8.741 C 13.594 8.574,13.732 8.550,14.640 8.525 L 15.500 8.500 15.511 7.555 L 15.521 6.611 15.371 6.584 C 14.763 6.478,13.715 6.524,13.122 6.684 C 12.268 6.914,11.592 7.517,11.259 8.349 C 11.058 8.849,11.032 9.085,11.011 10.590 L 10.992 12.000 9.996 12.000 L 9.000 12.000 9.000 13.000 L 9.000 14.000 10.000 14.000 L 11.000 14.000 11.000 16.960 L 11.000 19.920 10.900 19.920 C 10.714 19.920,9.896 19.729,9.457 19.582 C 8.261 19.183,7.188 18.508,6.298 17.593 C 5.601 16.877,5.198 16.303,4.781 15.429 C 3.454 12.653,3.845 9.366,5.789 6.960 C 6.075 6.606,6.761 5.934,7.100 5.674 C 8.289 4.766,9.721 4.197,11.207 4.040 C 11.660 3.993,12.732 4.024,13.218 4.099 " stroke="none" fill-rule="evenodd" fill="black"></path></svg>