<svg viewBox="0 0 24 24" xmlns="http://www.w3.org/2000/svg"><path d="M5.340 7.046 C 4.849 7.108,4.317 7.273,3.820 7.517 C 2.374 8.226,1.390 9.510,1.075 11.100 C 1.002 11.468,1.002 12.532,1.075 12.900 C 1.482 14.953,3.047 16.518,5.100 16.925 C 5.468 16.998,6.532 16.998,6.900 16.925 C 8.723 16.564,10.191 15.273,10.753 13.539 C 10.940 12.961,10.980 12.680,10.978 11.960 C 10.976 11.381,10.963 11.247,10.869 10.869 C 10.678 10.104,10.374 9.473,9.926 8.912 C 8.822 7.527,7.090 6.823,5.340 7.046 M17.340 7.046 C 16.849 7.108,16.317 7.273,15.820 7.517 C 14.374 8.226,13.390 9.510,13.075 11.100 C 13.002 11.468,13.002 12.532,13.075 12.900 C 13.482 14.953,15.047 16.518,17.100 16.925 C 17.468 16.998,18.532 16.998,18.900 16.925 C 20.723 16.564,22.191 15.273,22.753 13.539 C 22.940 12.961,22.980 12.680,22.978 11.960 C 22.976 11.381,22.963 11.247,22.869 10.869 C 22.678 10.104,22.374 9.473,21.926 8.912 C 20.822 7.527,19.090 6.823,17.340 7.046 M6.756 9.097 C 7.093 9.189,7.595 9.447,7.873 9.671 C 8.554 10.219,9.000 11.140,9.000 12.000 C 9.000 13.170,8.225 14.329,7.151 14.766 C 5.642 15.380,3.989 14.734,3.298 13.260 C 3.072 12.779,3.021 12.546,3.021 12.000 C 3.021 11.454,3.072 11.221,3.298 10.740 C 3.716 9.848,4.537 9.215,5.503 9.040 C 5.770 8.991,6.491 9.024,6.756 9.097 M18.756 9.097 C 19.093 9.189,19.595 9.447,19.873 9.671 C 20.554 10.219,21.000 11.140,21.000 12.000 C 21.000 13.170,20.225 14.329,19.151 14.766 C 17.642 15.380,15.989 14.734,15.298 13.260 C 15.072 12.779,15.021 12.546,15.021 12.000 C 15.021 11.454,15.072 11.221,15.298 10.740 C 15.716 9.848,16.537 9.215,17.503 9.040 C 17.770 8.991,18.491 9.024,18.756 9.097 " stroke="none" fill-rule="evenodd" fill="black"></path></svg>