<svg viewBox="0 0 24 24" xmlns="http://www.w3.org/2000/svg"><path d="M11.300 2.024 C 9.775 2.180,8.690 2.486,7.476 3.104 C 4.772 4.478,2.828 7.024,2.207 10.000 C 2.163 10.209,2.104 10.542,2.075 10.740 C 2.005 11.214,2.004 12.741,2.074 13.240 C 2.293 14.813,2.822 16.227,3.659 17.480 C 4.099 18.137,4.416 18.526,4.945 19.055 C 7.447 21.557,11.011 22.551,14.420 21.697 C 18.847 20.588,22.000 16.554,22.000 12.000 C 22.000 7.082,18.349 2.850,13.472 2.117 C 12.963 2.040,11.678 1.985,11.300 2.024 M12.900 4.202 C 13.823 4.307,14.619 4.542,15.460 4.958 C 16.537 5.490,17.379 6.156,18.125 7.067 L 18.361 7.355 17.830 7.817 L 17.300 8.280 17.143 8.090 C 16.831 7.712,16.131 7.054,15.760 6.790 C 15.300 6.462,14.476 6.049,13.960 5.887 C 12.394 5.394,10.730 5.498,9.300 6.176 C 8.544 6.535,7.957 6.962,7.360 7.587 C 6.776 8.199,6.396 8.771,6.054 9.557 L 5.921 9.860 10.027 13.966 L 14.132 18.072 14.396 17.973 C 15.471 17.571,16.510 16.746,17.263 15.696 C 17.673 15.124,18.114 14.173,18.256 13.550 L 18.282 13.440 16.581 13.440 L 14.880 13.440 14.880 12.720 L 14.880 12.000 17.366 12.000 L 19.852 12.000 19.829 12.491 C 19.757 14.018,19.116 15.652,18.091 16.920 C 17.760 17.330,17.094 17.967,16.660 18.289 C 15.925 18.835,14.960 19.307,14.096 19.542 L 13.708 19.648 9.030 14.970 L 4.352 10.292 4.438 9.976 C 4.788 8.690,5.442 7.541,6.379 6.567 C 7.064 5.855,7.771 5.342,8.646 4.923 C 9.426 4.549,10.223 4.308,11.021 4.206 C 11.415 4.155,12.474 4.153,12.900 4.202 M11.735 19.833 C 11.330 19.868,10.276 19.677,9.520 19.433 C 7.438 18.761,5.815 17.329,4.875 15.338 C 4.441 14.418,4.160 13.265,4.160 12.407 L 4.160 12.152 8.025 15.986 L 11.889 19.820 11.735 19.833 " stroke="none" fill-rule="evenodd" fill="black"></path></svg>