<svg viewBox="0 0 24 24" xmlns="http://www.w3.org/2000/svg"><path d="M5.575 2.397 C 5.368 2.448,5.196 2.600,5.098 2.816 C 4.874 3.309,2.237 10.259,2.165 10.544 C 1.720 12.307,2.209 14.079,3.500 15.383 C 3.675 15.560,4.913 16.516,6.800 17.932 C 8.461 19.178,10.224 20.502,10.717 20.875 C 11.326 21.336,11.670 21.569,11.786 21.602 C 11.972 21.654,12.188 21.629,12.372 21.534 C 12.435 21.501,13.264 20.885,14.213 20.166 C 15.163 19.446,16.903 18.136,18.080 17.254 C 20.687 15.301,20.930 15.071,21.432 14.090 C 22.000 12.978,22.141 11.745,21.835 10.543 C 21.751 10.212,18.969 2.911,18.849 2.706 C 18.625 2.323,18.095 2.268,17.758 2.593 C 17.611 2.734,17.578 2.823,16.960 4.720 C 16.605 5.809,16.180 7.110,16.014 7.610 L 15.713 8.520 12.000 8.520 L 8.287 8.520 7.986 7.610 C 7.820 7.110,7.394 5.809,7.038 4.720 C 6.367 2.665,6.338 2.595,6.079 2.460 C 5.938 2.387,5.724 2.360,5.575 2.397 " stroke="none" fill-rule="evenodd" fill="black"></path></svg>