<svg viewBox="0 0 24 24" xmlns="http://www.w3.org/2000/svg"><path d="M5.989 2.481 C 5.616 2.575,5.187 2.911,5.020 3.240 C 4.902 3.473,2.391 10.028,2.308 10.320 C 2.167 10.815,2.107 11.263,2.107 11.820 C 2.108 12.941,2.404 13.918,3.030 14.857 C 3.525 15.602,3.730 15.774,7.540 18.641 C 9.655 20.232,11.129 21.315,11.297 21.400 C 11.562 21.534,11.594 21.540,11.997 21.540 C 12.393 21.540,12.436 21.532,12.680 21.411 C 12.911 21.296,19.509 16.364,20.078 15.880 C 20.340 15.658,20.749 15.186,20.980 14.840 C 21.904 13.452,22.146 11.659,21.618 10.100 C 21.458 9.625,19.106 3.517,18.999 3.296 C 18.855 2.999,18.562 2.714,18.249 2.567 C 18.049 2.474,17.970 2.460,17.620 2.460 C 17.272 2.460,17.191 2.474,16.995 2.566 C 16.731 2.689,16.468 2.915,16.322 3.144 C 16.262 3.238,15.897 4.290,15.459 5.633 L 14.700 7.959 12.000 7.959 L 9.300 7.960 8.541 5.633 C 8.103 4.293,7.737 3.237,7.677 3.142 C 7.537 2.920,7.268 2.692,7.000 2.567 C 6.756 2.454,6.266 2.412,5.989 2.481 M7.183 7.271 L 7.990 9.740 12.000 9.740 L 16.010 9.740 16.806 7.300 C 17.243 5.958,17.611 4.833,17.623 4.800 C 17.644 4.744,19.631 9.857,19.878 10.600 C 20.105 11.285,20.137 12.165,19.959 12.800 C 19.788 13.406,19.387 14.064,18.940 14.473 C 18.636 14.751,12.047 19.701,11.988 19.696 C 11.913 19.690,5.288 14.698,5.046 14.465 C 4.569 14.007,4.217 13.423,4.032 12.780 C 3.952 12.502,3.941 12.376,3.944 11.820 C 3.947 11.322,3.965 11.118,4.024 10.900 C 4.116 10.567,6.332 4.761,6.358 4.786 C 6.368 4.795,6.739 5.914,7.183 7.271 " stroke="none" fill-rule="evenodd" fill="black"></path></svg>