<svg viewBox="0 0 24 24" xmlns="http://www.w3.org/2000/svg"><path d="M11.140 3.041 C 9.673 3.207,8.401 3.637,7.227 4.366 C 3.766 6.512,2.177 10.828,3.425 14.689 C 4.345 17.537,6.462 19.642,9.320 20.551 C 12.126 21.444,15.456 20.844,17.600 19.059 C 19.180 17.743,20.154 15.928,20.507 13.640 C 20.561 13.291,20.579 12.934,20.579 12.160 C 20.580 11.599,20.567 11.108,20.551 11.070 C 20.524 11.004,20.282 11.000,16.261 11.000 L 12.000 11.000 12.000 12.000 L 12.000 13.000 15.280 13.000 C 18.471 13.000,18.560 13.002,18.560 13.076 C 18.560 13.245,18.388 13.991,18.257 14.392 C 17.735 15.985,16.687 17.308,15.298 18.125 C 13.681 19.077,11.610 19.260,9.726 18.616 C 6.720 17.589,4.759 14.595,5.033 11.450 C 5.118 10.474,5.308 9.777,5.720 8.933 C 6.432 7.474,7.538 6.383,9.020 5.675 C 10.398 5.018,12.035 4.836,13.520 5.177 C 14.519 5.406,15.499 5.904,16.279 6.579 L 16.537 6.802 17.248 6.092 C 17.640 5.701,17.960 5.367,17.960 5.350 C 17.960 5.269,17.336 4.770,16.760 4.392 C 15.743 3.724,14.597 3.294,13.320 3.101 C 12.815 3.025,11.584 2.991,11.140 3.041 " stroke="none" fill-rule="evenodd" fill="black"></path></svg>