<svg viewBox="0 0 24 24" xmlns="http://www.w3.org/2000/svg"><path d="M3.299 2.052 C 3.151 2.205,3.080 2.317,3.047 2.450 C 2.979 2.717,2.979 21.283,3.047 21.550 C 3.080 21.683,3.151 21.795,3.299 21.948 C 3.412 22.064,3.531 22.160,3.562 22.160 C 3.594 22.160,5.906 19.874,8.700 17.080 L 13.780 12.000 8.700 6.920 C 5.906 4.126,3.594 1.840,3.562 1.840 C 3.531 1.840,3.412 1.936,3.299 2.052 M10.220 6.994 L 14.500 11.280 15.647 10.133 L 16.794 8.987 11.549 5.950 C 8.664 4.281,6.222 2.868,6.122 2.811 C 5.997 2.741,7.291 4.061,10.220 6.994 M16.460 10.760 L 15.220 12.000 16.465 13.245 L 17.709 14.489 19.105 13.680 C 19.872 13.235,20.558 12.828,20.629 12.774 C 20.700 12.721,20.808 12.592,20.869 12.489 C 20.964 12.328,20.980 12.256,20.980 12.000 C 20.980 11.744,20.964 11.672,20.869 11.511 C 20.808 11.408,20.700 11.279,20.629 11.226 C 20.526 11.149,17.736 9.520,17.707 9.520 C 17.703 9.520,17.142 10.078,16.460 10.760 M10.200 17.022 L 5.900 21.323 11.160 18.277 C 14.053 16.601,16.505 15.182,16.608 15.123 L 16.796 15.015 15.648 13.868 L 14.500 12.720 10.200 17.022 " stroke="none" fill-rule="evenodd" fill="black"></path></svg>