<svg viewBox="0 0 24 24" xmlns="http://www.w3.org/2000/svg"><path d="M11.280 2.024 C 10.496 2.094,9.653 2.257,9.003 2.463 C 4.952 3.745,2.171 7.397,2.013 11.640 C 1.925 14.013,2.660 16.265,4.153 18.200 C 4.490 18.637,5.363 19.510,5.800 19.847 C 7.747 21.349,9.973 22.071,12.400 21.987 C 15.676 21.873,18.337 20.451,20.011 17.920 C 20.575 17.068,21.098 15.805,21.336 14.720 C 21.624 13.409,21.674 11.852,21.473 10.510 L 21.426 10.200 16.713 10.200 L 12.000 10.200 12.000 12.120 L 12.000 14.040 14.680 14.040 C 17.217 14.040,17.360 14.044,17.360 14.111 C 17.360 14.281,17.179 14.814,16.984 15.220 C 16.140 16.974,14.336 17.996,12.060 18.010 C 11.297 18.015,10.877 17.949,10.180 17.717 C 8.674 17.213,7.453 16.132,6.724 14.655 C 5.768 12.719,5.922 10.444,7.133 8.630 C 8.049 7.257,9.480 6.324,11.075 6.059 C 11.627 5.967,12.772 5.995,13.280 6.114 C 14.135 6.314,14.926 6.707,15.568 7.251 L 15.828 7.472 17.259 6.041 L 18.690 4.609 18.520 4.455 C 17.333 3.381,15.660 2.533,14.116 2.223 C 13.843 2.168,13.467 2.104,13.280 2.080 C 12.922 2.034,11.586 1.997,11.280 2.024 " stroke="none" fill-rule="evenodd" fill="black"></path></svg>