<svg viewBox="0 0 24 24" xmlns="http://www.w3.org/2000/svg"><path d="M17.540 1.787 C 16.426 1.879,15.072 2.235,13.753 2.782 L 13.220 3.003 12.420 3.016 C 11.607 3.030,11.095 3.088,10.440 3.242 C 7.540 3.923,5.117 6.050,4.087 8.820 C 3.918 9.272,3.709 9.962,3.732 9.986 C 3.740 9.993,3.834 9.896,3.942 9.769 C 4.051 9.643,4.373 9.299,4.660 9.004 C 5.745 7.886,6.870 6.993,7.860 6.463 L 8.140 6.313 7.398 7.067 C 6.428 8.051,5.949 8.600,5.274 9.500 C 2.868 12.705,1.305 16.614,1.520 18.886 C 1.570 19.407,1.644 19.698,1.823 20.077 C 2.092 20.649,2.720 21.122,3.481 21.326 C 3.966 21.456,4.831 21.456,5.480 21.326 C 6.288 21.165,7.485 20.721,8.341 20.267 L 8.613 20.122 8.921 20.258 C 10.529 20.965,12.477 21.177,14.220 20.835 C 17.004 20.289,19.394 18.441,20.600 15.904 C 20.727 15.638,20.860 15.344,20.895 15.250 L 20.959 15.080 18.565 15.080 L 16.171 15.080 16.022 15.323 C 15.710 15.827,14.985 16.423,14.364 16.684 C 13.805 16.918,13.414 17.008,12.849 17.030 C 12.234 17.054,11.873 17.007,11.373 16.837 C 9.887 16.335,8.837 14.996,8.700 13.430 L 8.673 13.120 15.053 13.120 L 21.434 13.120 21.465 12.850 C 21.515 12.411,21.493 11.336,21.422 10.820 C 21.299 9.920,20.972 8.823,20.613 8.108 L 20.477 7.836 20.657 7.348 C 21.256 5.722,21.361 4.467,20.984 3.466 C 20.852 3.115,20.572 2.694,20.321 2.469 C 19.735 1.941,18.709 1.690,17.540 1.787 M19.350 2.940 C 20.072 3.110,20.520 3.542,20.708 4.251 C 20.795 4.577,20.792 5.309,20.702 5.740 C 20.627 6.097,20.417 6.748,20.271 7.073 L 20.176 7.287 19.991 7.009 C 19.337 6.025,18.400 5.108,17.350 4.423 C 17.056 4.232,16.201 3.783,15.884 3.655 C 15.797 3.619,15.816 3.604,16.104 3.483 C 16.728 3.220,17.301 3.042,17.860 2.939 C 18.250 2.867,19.042 2.868,19.350 2.940 M13.764 7.193 C 15.259 7.588,16.371 8.908,16.540 10.490 L 16.569 10.760 12.659 10.760 L 8.749 10.760 8.775 10.509 C 8.937 8.921,10.364 7.464,12.074 7.140 C 12.500 7.059,13.359 7.086,13.764 7.193 M4.180 15.420 C 4.842 17.048,5.996 18.462,7.480 19.461 C 7.733 19.632,7.945 19.784,7.951 19.799 C 7.968 19.842,7.069 20.255,6.616 20.413 C 5.989 20.631,5.488 20.727,4.980 20.728 C 4.150 20.729,3.648 20.465,3.267 19.829 C 2.880 19.184,2.887 18.099,3.286 16.845 C 3.484 16.225,3.992 15.052,4.039 15.108 C 4.053 15.126,4.117 15.266,4.180 15.420 " stroke="none" fill-rule="evenodd" fill="black"></path></svg>