<svg viewBox="0 0 24 24" xmlns="http://www.w3.org/2000/svg"><path d="M8.445 2.043 C 7.482 2.077,6.946 2.130,6.420 2.243 C 5.326 2.479,4.509 2.901,3.771 3.611 C 3.135 4.224,2.754 4.804,2.484 5.573 C 2.060 6.781,2.000 7.574,2.000 11.960 C 2.001 16.430,2.060 17.219,2.484 18.427 C 2.986 19.859,4.141 21.014,5.573 21.516 C 6.782 21.940,7.572 22.000,11.980 22.000 C 16.430 21.999,17.218 21.940,18.427 21.516 C 19.862 21.012,21.012 19.862,21.516 18.427 C 21.940 17.218,22.000 16.428,22.000 12.020 C 21.999 7.570,21.940 6.782,21.516 5.573 C 21.255 4.831,20.874 4.237,20.277 3.647 C 19.413 2.792,18.295 2.296,16.838 2.121 C 15.921 2.011,10.730 1.962,8.445 2.043 M17.780 5.635 C 18.076 5.777,18.243 5.949,18.383 6.254 C 18.478 6.462,18.488 6.524,18.472 6.814 C 18.444 7.317,18.217 7.666,17.778 7.880 C 17.483 8.025,17.061 8.020,16.753 7.868 C 16.168 7.581,15.899 6.849,16.159 6.249 C 16.270 5.994,16.604 5.674,16.849 5.587 C 17.142 5.483,17.503 5.502,17.780 5.635 M12.601 7.042 C 13.369 7.136,14.154 7.432,14.824 7.881 C 14.998 7.997,15.313 8.265,15.524 8.476 C 17.687 10.640,17.425 14.175,14.964 16.022 C 14.405 16.441,13.631 16.780,12.900 16.925 C 12.486 17.006,11.387 16.997,10.972 16.909 C 8.954 16.477,7.451 14.983,7.037 12.997 C 6.916 12.415,6.916 11.585,7.037 11.003 C 7.575 8.424,9.970 6.719,12.601 7.042 M11.400 9.064 C 10.451 9.259,9.555 10.006,9.220 10.882 C 8.702 12.234,9.151 13.683,10.340 14.493 C 11.017 14.954,12.014 15.119,12.820 14.903 C 13.853 14.627,14.696 13.772,14.962 12.731 C 15.067 12.320,15.068 11.681,14.963 11.272 C 14.696 10.229,13.856 9.378,12.820 9.101 C 12.468 9.007,11.765 8.989,11.400 9.064 " stroke="none" fill-rule="evenodd" fill="black"></path></svg>