<svg viewBox="0 0 24 24" xmlns="http://www.w3.org/2000/svg"><path d="M3.000 12.000 L 3.000 22.000 7.000 22.000 L 11.000 22.000 11.000 21.000 L 11.000 20.000 12.000 20.000 L 13.000 20.000 13.000 21.000 L 13.000 22.000 17.000 22.000 L 21.000 22.000 21.000 18.000 L 21.000 14.000 20.000 14.000 L 19.000 14.000 19.000 12.000 L 19.000 10.000 20.000 10.000 L 21.000 10.000 21.000 6.000 L 21.000 2.000 17.000 2.000 L 13.000 2.000 13.000 3.000 L 13.000 4.000 12.000 4.000 L 11.000 4.000 11.000 3.000 L 11.000 2.000 7.000 2.000 L 3.000 2.000 3.000 12.000 M9.000 6.000 L 9.000 8.000 11.000 8.000 L 13.000 8.000 13.000 7.000 L 13.000 6.000 14.000 6.000 L 15.000 6.000 15.000 5.000 L 15.000 4.000 17.000 4.000 L 19.000 4.000 19.000 6.000 L 19.000 8.000 18.000 8.000 L 17.000 8.000 17.000 9.000 L 17.000 10.000 16.000 10.000 L 15.000 10.000 15.000 12.000 L 15.000 14.000 16.000 14.000 L 17.000 14.000 17.000 15.000 L 17.000 16.000 18.000 16.000 L 19.000 16.000 19.000 18.000 L 19.000 20.000 17.000 20.000 L 15.000 20.000 15.000 19.000 L 15.000 18.000 14.000 18.000 L 13.000 18.000 13.000 17.000 L 13.000 16.000 11.000 16.000 L 9.000 16.000 9.000 18.000 L 9.000 20.000 7.000 20.000 L 5.000 20.000 5.000 12.000 L 5.000 4.000 7.000 4.000 L 9.000 4.000 9.000 6.000 " stroke="none" fill-rule="evenodd" fill="black"></path></svg>