<svg viewBox="0 0 24 24" xmlns="http://www.w3.org/2000/svg"><path d="M11.300 2.601 C 8.575 2.743,6.017 3.825,4.257 5.579 C 3.099 6.732,2.416 7.977,2.113 9.482 C 1.982 10.135,1.982 11.255,2.113 11.913 C 2.717 14.943,5.200 17.365,8.720 18.356 C 9.125 18.470,9.539 18.560,10.300 18.699 C 10.731 18.778,11.065 18.933,11.184 19.109 C 11.232 19.180,11.282 19.333,11.297 19.449 C 11.321 19.647,11.256 20.296,11.160 20.797 C 11.093 21.153,11.108 21.428,11.200 21.520 C 11.325 21.645,11.578 21.638,11.949 21.498 C 12.572 21.264,14.334 20.180,15.883 19.079 C 18.221 17.417,19.876 15.871,20.807 14.480 C 22.014 12.676,22.312 10.606,21.655 8.580 C 21.417 7.847,20.840 6.813,20.327 6.200 C 18.271 3.744,14.929 2.411,11.300 2.601 M6.291 8.374 C 6.362 8.404,6.456 8.469,6.500 8.519 C 6.577 8.605,6.581 8.680,6.600 10.454 L 6.620 12.300 7.473 12.320 L 8.326 12.340 8.463 12.489 C 8.574 12.611,8.600 12.671,8.600 12.809 C 8.600 12.910,8.567 13.034,8.519 13.112 C 8.378 13.344,8.284 13.360,7.091 13.360 C 5.913 13.360,5.839 13.347,5.663 13.107 C 5.581 12.996,5.580 12.956,5.580 10.840 C 5.580 8.724,5.581 8.684,5.663 8.573 C 5.752 8.452,5.975 8.320,6.091 8.320 C 6.130 8.320,6.220 8.345,6.291 8.374 M9.815 8.375 C 9.887 8.405,9.986 8.480,10.033 8.541 C 10.120 8.651,10.120 8.655,10.120 10.849 L 10.120 13.048 9.987 13.181 C 9.745 13.423,9.390 13.391,9.183 13.107 C 9.102 12.996,9.100 12.953,9.100 10.840 C 9.100 8.724,9.101 8.684,9.183 8.573 C 9.272 8.452,9.495 8.320,9.611 8.320 C 9.650 8.320,9.742 8.345,9.815 8.375 M11.596 8.383 C 11.736 8.439,11.881 8.618,12.807 9.872 L 13.860 11.298 13.880 9.979 C 13.902 8.538,13.904 8.526,14.146 8.397 C 14.287 8.321,14.558 8.331,14.688 8.416 C 14.921 8.569,14.920 8.557,14.920 10.866 C 14.920 12.864,14.916 12.987,14.845 13.103 C 14.765 13.234,14.546 13.360,14.400 13.360 C 14.154 13.360,14.063 13.260,12.991 11.806 L 11.940 10.380 11.929 11.688 L 11.919 12.995 11.788 13.134 C 11.552 13.384,11.193 13.354,10.983 13.067 C 10.902 12.956,10.900 12.913,10.900 10.820 C 10.900 8.724,10.901 8.684,10.983 8.573 C 11.064 8.462,11.292 8.320,11.389 8.320 C 11.416 8.320,11.510 8.348,11.596 8.383 M18.317 8.390 C 18.716 8.594,18.727 9.119,18.336 9.320 C 18.248 9.366,18.036 9.383,17.450 9.393 L 16.680 9.406 16.680 9.861 L 16.680 10.316 17.523 10.328 L 18.366 10.340 18.503 10.489 C 18.621 10.618,18.640 10.667,18.640 10.840 C 18.640 11.013,18.621 11.062,18.503 11.191 L 18.366 11.340 17.523 11.352 L 16.680 11.364 16.680 11.842 L 16.680 12.320 17.482 12.320 C 18.367 12.320,18.467 12.342,18.579 12.559 C 18.670 12.733,18.657 13.007,18.553 13.139 C 18.392 13.345,18.296 13.360,17.140 13.360 C 15.957 13.360,15.862 13.343,15.721 13.112 C 15.643 12.984,15.640 12.916,15.640 10.840 C 15.640 8.765,15.643 8.696,15.721 8.568 C 15.861 8.338,15.944 8.323,17.120 8.322 C 18.052 8.320,18.197 8.329,18.317 8.390 " stroke="none" fill-rule="evenodd" fill="black"></path></svg>