<svg viewBox="0 0 24 24" xmlns="http://www.w3.org/2000/svg"><path d="M4.493 3.592 C 3.904 3.802,3.511 4.366,3.511 5.000 C 3.512 5.411,3.623 5.694,3.906 6.000 C 4.502 6.643,5.439 6.666,6.053 6.053 C 6.783 5.322,6.576 4.107,5.644 3.650 C 5.352 3.507,4.807 3.480,4.493 3.592 M14.800 8.058 C 13.878 8.210,13.037 8.624,12.250 9.311 L 12.000 9.530 12.000 9.025 L 12.000 8.520 11.000 8.520 L 10.000 8.520 10.000 14.760 L 10.000 21.000 10.999 21.000 L 11.997 21.000 12.009 16.970 L 12.021 12.940 12.111 12.620 C 12.455 11.398,13.420 10.434,14.620 10.113 C 15.078 9.991,15.926 9.991,16.380 10.114 C 17.018 10.288,17.578 10.618,18.022 11.085 C 18.447 11.532,18.717 12.010,18.889 12.620 L 18.979 12.940 18.991 16.970 L 19.003 21.000 20.001 21.000 L 21.000 21.000 21.000 17.055 C 21.000 12.632,21.000 12.635,20.721 11.795 C 20.433 10.931,20.018 10.255,19.381 9.618 C 18.592 8.828,17.623 8.315,16.517 8.100 C 16.046 8.009,15.221 7.989,14.800 8.058 M4.000 14.760 L 4.000 21.000 5.000 21.000 L 6.000 21.000 6.000 14.760 L 6.000 8.520 5.000 8.520 L 4.000 8.520 4.000 14.760 " stroke="none" fill-rule="evenodd" fill="black"></path></svg>