<svg viewBox="0 0 24 24" xmlns="http://www.w3.org/2000/svg"><path d="M4.465 3.063 C 2.955 3.429,2.434 5.326,3.543 6.418 C 4.320 7.182,5.560 7.182,6.337 6.418 C 6.734 6.027,6.933 5.543,6.929 4.980 C 6.918 3.693,5.719 2.760,4.465 3.063 M16.880 8.118 C 15.423 8.248,14.074 8.951,13.425 9.920 L 13.278 10.140 13.305 9.310 L 13.333 8.480 11.326 8.480 L 9.320 8.480 9.320 14.740 L 9.320 21.000 11.298 21.000 L 13.277 21.000 13.290 17.410 C 13.306 13.399,13.290 13.627,13.596 12.984 C 13.802 12.552,14.075 12.228,14.449 11.974 C 15.379 11.341,16.551 11.452,17.296 12.241 C 17.588 12.551,17.794 12.934,17.929 13.420 C 18.018 13.739,18.019 13.755,18.031 17.370 L 18.043 21.000 20.023 21.000 L 22.003 21.000 21.989 16.590 C 21.973 11.690,21.987 11.949,21.696 11.081 C 21.268 9.802,20.388 8.875,19.164 8.415 C 18.502 8.167,17.623 8.052,16.880 8.118 M3.000 14.740 L 3.000 21.000 5.000 21.000 L 7.000 21.000 7.000 14.740 L 7.000 8.480 5.000 8.480 L 3.000 8.480 3.000 14.740 " stroke="none" fill-rule="evenodd" fill="black"></path></svg>