<svg viewBox="0 0 24 24" xmlns="http://www.w3.org/2000/svg"><path d="M3.643 3.069 C 3.546 3.103,3.392 3.206,3.300 3.298 C 2.973 3.624,3.000 2.855,3.000 12.000 C 3.000 21.144,2.974 20.376,3.299 20.701 C 3.624 21.026,2.854 21.000,12.017 20.998 C 18.732 20.997,20.207 20.987,20.330 20.943 C 20.551 20.864,20.744 20.702,20.869 20.489 L 20.980 20.300 20.980 12.000 L 20.980 3.700 20.869 3.511 C 20.808 3.408,20.699 3.277,20.626 3.222 C 20.315 2.985,20.897 3.000,11.985 3.003 C 4.697 3.006,3.801 3.013,3.643 3.069 M10.817 9.721 C 11.607 11.480,12.265 12.920,12.280 12.920 C 12.294 12.920,12.873 11.484,13.566 9.730 L 14.825 6.540 16.533 6.530 C 17.472 6.524,18.240 6.530,18.240 6.544 C 18.240 6.558,18.028 6.815,17.768 7.115 C 17.508 7.415,17.265 7.705,17.228 7.759 C 17.165 7.850,17.160 8.161,17.160 11.827 L 17.160 15.796 17.700 16.324 C 17.997 16.615,18.240 16.877,18.240 16.906 C 18.240 16.951,17.813 16.960,15.800 16.960 C 14.169 16.960,13.360 16.946,13.360 16.919 C 13.360 16.897,13.612 16.631,13.921 16.329 L 14.481 15.780 14.481 12.640 C 14.481 10.913,14.490 9.347,14.502 9.160 L 14.523 8.820 12.874 12.930 C 11.967 15.191,11.213 17.040,11.199 17.040 C 11.179 17.040,7.971 9.908,7.742 9.353 C 7.709 9.272,7.663 9.194,7.641 9.180 C 7.613 9.163,7.600 10.050,7.600 11.890 C 7.600 14.239,7.609 14.655,7.662 14.833 C 7.708 14.990,7.896 15.271,8.422 15.975 C 8.806 16.489,9.120 16.920,9.120 16.934 C 9.120 16.949,8.310 16.960,7.320 16.960 C 5.997 16.960,5.520 16.948,5.520 16.914 C 5.520 16.889,5.830 16.444,6.210 15.925 C 6.835 15.068,6.905 14.957,6.960 14.720 C 7.012 14.496,7.017 14.029,7.000 11.320 C 6.981 8.277,6.978 8.175,6.900 8.031 C 6.856 7.949,6.640 7.634,6.420 7.332 C 6.200 7.030,5.979 6.724,5.929 6.651 L 5.837 6.520 7.609 6.521 L 9.380 6.522 10.817 9.721 " stroke="none" fill-rule="evenodd" fill="black"></path></svg>