<svg viewBox="0 0 24 24" xmlns="http://www.w3.org/2000/svg"><path d="M11.040 2.045 C 7.643 2.344,4.765 4.154,3.191 6.980 C 2.135 8.874,1.764 11.213,2.159 13.483 C 2.419 14.980,3.063 16.442,3.991 17.637 C 4.137 17.826,4.484 18.214,4.763 18.500 C 5.042 18.786,5.299 19.077,5.335 19.147 C 5.386 19.249,5.404 19.463,5.423 20.207 C 5.435 20.720,5.463 21.232,5.485 21.345 C 5.560 21.741,5.944 22.035,6.330 21.991 C 6.425 21.980,6.990 21.756,7.613 21.481 C 8.887 20.920,8.781 20.939,9.620 21.134 C 10.482 21.334,10.907 21.379,11.960 21.378 C 12.986 21.378,13.366 21.344,14.180 21.180 C 16.808 20.650,19.047 19.161,20.465 16.998 C 22.321 14.168,22.508 10.279,20.936 7.213 C 19.143 3.716,15.234 1.675,11.040 2.045 M13.314 4.100 C 16.628 4.571,19.161 6.879,19.822 10.028 C 20.184 11.752,19.959 13.641,19.214 15.140 C 18.476 16.625,17.358 17.749,15.880 18.493 C 14.003 19.437,11.906 19.643,9.680 19.102 C 8.999 18.937,8.378 18.976,7.793 19.220 C 7.391 19.388,7.400 19.388,7.400 19.237 C 7.400 18.905,7.172 18.269,6.917 17.893 C 6.845 17.787,6.582 17.495,6.331 17.245 C 5.494 16.409,5.010 15.712,4.608 14.760 C 4.063 13.470,3.879 11.919,4.098 10.473 C 4.561 7.423,6.740 5.049,9.787 4.277 C 10.187 4.175,10.815 4.072,11.320 4.025 C 11.676 3.992,12.869 4.036,13.314 4.100 M17.472 8.747 C 17.435 8.757,16.661 9.330,15.752 10.022 C 14.843 10.713,14.040 11.298,13.967 11.323 C 13.707 11.411,13.617 11.360,12.249 10.337 C 10.747 9.214,10.695 9.186,10.140 9.207 C 9.709 9.223,9.434 9.337,9.159 9.616 C 9.058 9.719,8.339 10.817,7.449 12.227 C 5.946 14.608,5.914 14.664,5.932 14.832 C 5.964 15.129,6.260 15.337,6.521 15.246 C 6.586 15.223,7.379 14.643,8.283 13.957 C 9.295 13.189,9.977 12.699,10.056 12.681 C 10.339 12.617,10.407 12.657,11.736 13.654 C 13.182 14.738,13.318 14.814,13.800 14.811 C 13.974 14.810,14.175 14.782,14.280 14.744 C 14.540 14.648,14.849 14.425,14.989 14.230 C 15.056 14.136,15.780 12.998,16.599 11.700 C 18.052 9.394,18.086 9.336,18.068 9.168 C 18.036 8.869,17.757 8.672,17.472 8.747 " stroke="none" fill-rule="evenodd" fill="black"></path></svg>