<svg viewBox="0 0 24 24" xmlns="http://www.w3.org/2000/svg"><path d="M11.120 2.039 C 10.299 2.121,9.443 2.304,8.751 2.545 C 5.024 3.842,2.403 7.177,2.043 11.080 C 2.015 11.377,2.000 13.396,2.000 16.770 L 2.000 22.000 2.210 21.999 C 2.517 21.998,3.213 21.899,3.591 21.802 C 6.000 21.187,7.854 19.252,8.362 16.822 C 8.490 16.207,8.519 15.609,8.519 13.533 C 8.520 11.378,8.529 11.270,8.760 10.693 C 9.184 9.636,10.161 8.815,11.278 8.580 C 11.646 8.503,12.354 8.503,12.721 8.580 C 13.389 8.721,13.951 9.031,14.460 9.540 C 15.156 10.236,15.480 11.017,15.480 12.000 C 15.480 12.970,15.157 13.758,14.480 14.441 C 13.967 14.960,13.529 15.213,12.809 15.407 C 12.536 15.481,12.355 15.493,11.258 15.510 L 10.015 15.529 9.970 16.074 C 9.832 17.724,9.275 19.168,8.286 20.439 C 7.950 20.870,7.389 21.438,6.987 21.754 L 6.675 22.000 9.567 22.000 C 12.624 22.000,13.031 21.982,13.897 21.815 C 15.468 21.510,16.890 20.859,18.200 19.845 C 18.637 19.507,19.507 18.637,19.845 18.200 C 21.256 16.378,22.000 14.236,22.000 12.000 C 22.000 7.432,18.842 3.387,14.430 2.303 C 13.446 2.062,12.028 1.948,11.120 2.039 " stroke="none" fill-rule="evenodd" fill="black"></path></svg>