<svg viewBox="0 0 24 24" xmlns="http://www.w3.org/2000/svg"><path d="M11.120 2.039 C 8.629 2.288,6.405 3.366,4.741 5.129 C 0.377 9.753,1.365 17.197,6.784 20.529 C 9.757 22.357,13.506 22.485,16.623 20.863 C 18.170 20.058,19.526 18.804,20.496 17.280 C 20.776 16.841,21.249 15.849,21.434 15.315 C 21.836 14.152,21.978 13.285,21.978 12.000 C 21.978 10.715,21.836 9.848,21.434 8.685 C 21.249 8.151,20.776 7.159,20.496 6.720 C 19.915 5.807,18.965 4.745,18.200 4.154 C 16.755 3.037,15.204 2.374,13.400 2.101 C 12.904 2.026,11.603 1.991,11.120 2.039 M14.981 5.542 C 15.445 5.663,15.928 6.015,16.100 6.357 C 16.273 6.700,16.131 7.110,15.781 7.279 C 15.505 7.413,15.241 7.345,14.923 7.058 C 14.617 6.781,14.286 6.737,13.993 6.933 C 13.699 7.129,13.669 7.364,13.843 8.074 C 13.945 8.492,13.874 8.441,14.573 8.600 C 16.170 8.963,17.417 10.234,17.869 11.957 C 18.005 12.477,18.040 13.441,17.943 13.998 C 17.617 15.874,16.141 17.553,14.254 18.196 C 11.841 19.019,9.137 18.309,7.532 16.431 C 6.774 15.544,6.266 14.469,6.073 13.344 C 5.966 12.718,5.987 11.667,6.118 11.100 C 6.561 9.175,7.733 7.666,9.434 6.831 C 9.937 6.583,10.152 6.550,10.416 6.678 C 10.740 6.835,10.875 7.200,10.729 7.529 C 10.635 7.742,10.496 7.853,10.040 8.081 C 9.512 8.345,9.133 8.618,8.719 9.036 C 8.043 9.716,7.680 10.409,7.453 11.452 C 7.343 11.956,7.355 12.901,7.478 13.400 C 7.658 14.132,7.913 14.679,8.340 15.247 C 9.729 17.095,12.270 17.695,14.320 16.659 C 15.676 15.973,16.499 14.808,16.623 13.398 C 16.677 12.783,16.485 11.961,16.148 11.361 C 16.042 11.174,15.854 10.935,15.640 10.718 C 15.352 10.426,15.242 10.345,14.920 10.189 C 14.489 9.980,14.360 9.936,14.360 9.997 C 14.360 10.020,14.441 10.324,14.539 10.672 C 14.792 11.567,14.842 11.839,14.843 12.318 C 14.846 13.183,14.529 13.894,13.903 14.435 C 13.507 14.775,12.780 15.040,12.240 15.040 C 12.001 15.040,11.495 14.941,11.263 14.849 C 10.418 14.514,9.733 13.688,9.539 12.771 C 9.466 12.425,9.465 11.777,9.538 11.434 C 9.681 10.756,10.067 10.090,10.613 9.575 C 11.033 9.179,11.496 8.903,12.060 8.713 C 12.413 8.594,12.499 8.550,12.493 8.492 C 12.489 8.452,12.455 8.263,12.418 8.071 C 12.373 7.837,12.356 7.594,12.366 7.331 C 12.380 6.979,12.397 6.907,12.530 6.627 C 12.778 6.105,13.198 5.750,13.800 5.556 C 14.081 5.464,14.658 5.458,14.981 5.542 M12.600 9.984 C 11.318 10.324,10.539 11.635,10.961 12.740 C 11.089 13.075,11.491 13.478,11.800 13.581 C 12.246 13.729,12.717 13.641,13.069 13.344 C 13.375 13.085,13.547 12.449,13.444 11.958 C 13.330 11.415,12.904 9.920,12.864 9.923 C 12.840 9.924,12.721 9.952,12.600 9.984 " stroke="none" fill-rule="evenodd" fill="black"></path></svg>