<svg viewBox="0 0 24 24" xmlns="http://www.w3.org/2000/svg"><path d="M9.400 3.041 C 6.507 3.256,4.064 3.442,3.970 3.455 C 3.758 3.484,3.453 3.637,3.312 3.786 C 3.253 3.849,3.163 3.990,3.112 4.100 L 3.020 4.300 3.020 10.380 L 3.020 16.460 3.113 16.730 C 3.245 17.111,3.429 17.376,4.818 19.180 C 6.142 20.900,6.316 21.104,6.573 21.232 C 6.967 21.428,6.768 21.434,13.590 21.021 C 20.476 20.604,20.224 20.628,20.589 20.363 C 20.694 20.287,20.792 20.163,20.866 20.013 L 20.980 19.780 20.992 13.080 C 21.000 8.392,20.991 6.336,20.961 6.232 C 20.932 6.132,20.843 6.017,20.689 5.881 C 20.409 5.632,16.655 2.990,16.391 2.856 C 16.062 2.688,15.789 2.640,15.202 2.645 C 14.904 2.647,12.293 2.825,9.400 3.041 M15.757 3.742 C 16.102 3.823,16.257 3.918,17.397 4.748 C 18.342 5.437,18.490 5.563,18.428 5.626 C 18.382 5.671,7.466 6.325,7.080 6.305 C 6.709 6.286,6.554 6.235,6.280 6.037 C 5.870 5.741,4.645 4.750,4.624 4.697 C 4.593 4.615,4.637 4.525,4.732 4.473 C 4.817 4.428,14.539 3.693,15.160 3.686 C 15.347 3.683,15.616 3.708,15.757 3.742 M19.540 6.983 C 19.749 7.121,19.739 6.839,19.752 12.860 C 19.759 15.940,19.753 18.554,19.739 18.668 C 19.726 18.782,19.675 18.935,19.627 19.008 C 19.436 19.295,19.838 19.255,13.307 19.631 C 6.840 20.003,7.151 19.997,6.917 19.763 C 6.856 19.702,6.787 19.579,6.763 19.490 C 6.731 19.374,6.722 17.678,6.729 13.653 C 6.739 8.393,6.745 7.971,6.808 7.855 C 6.947 7.602,6.633 7.632,13.165 7.244 C 16.473 7.048,19.241 6.896,19.316 6.907 C 19.391 6.917,19.491 6.952,19.540 6.983 M16.400 8.988 C 15.861 9.020,15.354 9.063,15.274 9.083 C 15.075 9.134,14.896 9.311,14.843 9.509 C 14.773 9.768,14.792 9.782,15.291 9.836 C 15.537 9.863,15.743 9.889,15.749 9.896 C 15.755 9.902,15.756 11.021,15.750 12.383 L 15.740 14.858 13.924 12.079 C 12.925 10.551,12.095 9.285,12.079 9.267 C 12.063 9.248,11.399 9.278,10.604 9.332 C 9.234 9.426,9.151 9.436,9.019 9.525 C 8.853 9.638,8.720 9.889,8.720 10.090 C 8.720 10.263,8.723 10.264,9.250 10.301 L 9.640 10.327 9.640 13.922 L 9.640 17.517 9.470 17.561 C 8.928 17.703,8.875 17.727,8.797 17.854 C 8.721 17.980,8.690 18.280,8.754 18.280 C 9.068 18.280,11.539 18.107,11.649 18.078 C 11.733 18.055,11.863 17.982,11.938 17.916 C 12.096 17.777,12.200 17.529,12.120 17.480 C 12.092 17.463,11.838 17.399,11.555 17.337 L 11.040 17.226 11.040 14.525 C 11.040 13.004,11.055 11.841,11.075 11.862 C 11.094 11.883,11.899 13.142,12.865 14.660 C 13.830 16.178,14.722 17.539,14.847 17.684 C 15.126 18.010,15.288 18.092,15.680 18.112 C 16.035 18.130,16.367 18.054,16.790 17.859 L 17.080 17.725 17.080 13.709 L 17.080 9.693 17.370 9.641 C 17.530 9.612,17.700 9.571,17.748 9.549 C 17.865 9.496,17.960 9.287,17.960 9.084 L 17.960 8.920 17.670 8.925 C 17.511 8.928,16.939 8.957,16.400 8.988 " stroke="none" fill-rule="evenodd" fill="black"></path></svg>