<svg viewBox="0 0 24 24" xmlns="http://www.w3.org/2000/svg"><path d="M3.643 3.069 C 3.546 3.103,3.392 3.206,3.300 3.298 C 2.973 3.624,3.000 2.855,3.000 12.000 C 3.000 21.144,2.974 20.376,3.299 20.701 C 3.624 21.026,2.854 21.000,12.017 20.998 C 18.732 20.997,20.207 20.987,20.330 20.943 C 20.551 20.864,20.744 20.702,20.869 20.489 L 20.980 20.300 20.980 12.000 L 20.980 3.700 20.869 3.511 C 20.808 3.408,20.699 3.277,20.626 3.222 C 20.315 2.985,20.897 3.000,11.985 3.003 C 4.697 3.006,3.801 3.013,3.643 3.069 M19.000 12.000 L 19.000 19.000 12.000 19.000 L 5.000 19.000 5.000 12.000 L 5.000 5.000 12.000 5.000 L 19.000 5.000 19.000 12.000 M7.000 12.000 L 7.000 17.000 9.500 17.000 L 12.000 17.000 12.000 13.260 L 12.000 9.520 13.240 9.520 L 14.480 9.520 14.480 13.260 L 14.480 17.000 15.740 17.000 L 17.000 17.000 17.000 12.000 L 17.000 7.000 12.000 7.000 L 7.000 7.000 7.000 12.000 " stroke="none" fill-rule="evenodd" fill="black"></path></svg>