<svg viewBox="0 0 24 24" xmlns="http://www.w3.org/2000/svg"><path d="M6.992 4.494 C 4.271 5.313,2.034 5.992,2.022 6.005 C 1.990 6.036,2.989 15.445,3.028 15.482 C 3.252 15.689,11.956 22.456,12.000 22.456 C 12.044 22.456,20.748 15.689,20.972 15.482 C 21.017 15.440,22.007 6.030,21.970 5.999 C 21.935 5.968,12.139 3.033,12.020 3.017 C 11.976 3.011,9.713 3.676,6.992 4.494 M15.931 6.264 C 19.002 7.181,19.799 7.432,19.787 7.480 C 19.760 7.584,12.038 19.900,12.000 19.900 C 11.971 19.900,4.151 7.446,4.174 7.438 C 4.376 7.363,11.993 5.091,12.020 5.098 C 12.042 5.104,13.802 5.629,15.931 6.264 " stroke="none" fill-rule="evenodd" fill="black"></path></svg>