<svg viewBox="0 0 24 24" xmlns="http://www.w3.org/2000/svg"><path d="M11.120 2.039 C 9.316 2.220,7.707 2.807,6.280 3.806 C 3.586 5.692,2.001 8.736,2.000 12.023 C 2.000 13.919,2.603 15.928,3.642 17.487 C 4.455 18.708,5.582 19.801,6.780 20.530 C 7.171 20.768,7.902 21.145,8.015 21.166 C 8.074 21.178,8.288 20.653,9.339 17.921 L 10.593 14.662 10.326 14.484 C 9.453 13.899,8.940 12.856,9.013 11.815 C 9.104 10.511,9.961 9.466,11.240 9.098 C 11.603 8.994,12.397 8.994,12.760 9.098 C 13.494 9.309,14.113 9.757,14.501 10.358 C 14.850 10.898,14.979 11.340,14.979 12.000 C 14.979 12.255,14.955 12.558,14.924 12.680 C 14.742 13.413,14.284 14.074,13.675 14.483 L 13.410 14.660 14.663 17.920 C 15.713 20.655,15.926 21.178,15.985 21.166 C 16.098 21.145,16.829 20.768,17.220 20.530 C 18.467 19.771,19.670 18.577,20.496 17.280 C 20.783 16.830,21.255 15.841,21.436 15.310 C 21.840 14.129,21.978 13.284,21.978 12.000 C 21.978 10.715,21.836 9.848,21.434 8.685 C 21.249 8.151,20.776 7.159,20.496 6.720 C 19.915 5.807,18.965 4.745,18.200 4.154 C 16.755 3.037,15.204 2.374,13.400 2.101 C 12.904 2.026,11.603 1.991,11.120 2.039 " stroke="none" fill-rule="evenodd" fill="black"></path></svg>