<svg viewBox="0 0 24 24" xmlns="http://www.w3.org/2000/svg"><path d="M10.440 2.027 C 10.162 2.056,9.500 2.209,9.223 2.308 C 8.057 2.727,7.060 3.593,6.512 4.663 C 6.412 4.860,6.300 5.112,6.263 5.225 L 6.197 5.430 5.793 5.558 C 5.570 5.629,5.119 5.822,4.791 5.989 C 4.259 6.257,4.153 6.329,3.832 6.634 C 2.925 7.498,2.359 8.537,2.198 9.636 C 2.138 10.050,2.170 10.995,2.258 11.390 C 2.427 12.142,2.750 12.875,3.172 13.463 L 3.432 13.825 3.338 14.152 C 3.064 15.096,3.111 16.051,3.482 17.100 C 3.749 17.856,4.081 18.369,4.697 18.980 C 5.490 19.767,6.331 20.197,7.437 20.382 C 7.892 20.458,8.635 20.447,9.031 20.360 L 9.242 20.313 9.479 20.533 C 10.017 21.031,10.704 21.486,11.211 21.682 C 11.808 21.912,12.180 21.975,12.960 21.978 C 13.736 21.980,13.992 21.943,14.623 21.739 C 15.417 21.481,15.997 21.127,16.584 20.542 C 17.130 19.998,17.486 19.456,17.718 18.817 L 17.805 18.575 18.193 18.467 C 18.692 18.327,19.291 18.029,19.720 17.706 C 20.089 17.428,20.668 16.848,20.867 16.559 C 21.253 15.998,21.623 15.102,21.726 14.480 C 21.806 14.002,21.787 13.174,21.686 12.652 C 21.501 11.703,21.220 11.073,20.613 10.245 C 20.575 10.193,20.585 10.111,20.662 9.847 C 21.048 8.523,20.756 6.912,19.916 5.720 C 19.672 5.375,19.129 4.817,18.780 4.553 C 18.197 4.113,17.489 3.795,16.774 3.654 C 16.351 3.571,15.388 3.560,15.011 3.634 L 14.761 3.683 14.397 3.362 C 13.493 2.563,12.637 2.157,11.620 2.041 C 11.277 2.003,10.741 1.996,10.440 2.027 M11.246 3.362 C 11.797 3.417,12.111 3.497,12.520 3.686 C 12.923 3.873,13.377 4.160,13.332 4.200 C 13.314 4.216,12.373 4.763,11.240 5.417 C 10.107 6.071,9.139 6.644,9.090 6.690 C 9.040 6.736,8.982 6.838,8.960 6.917 C 8.936 7.005,8.920 8.140,8.920 9.890 C 8.920 11.447,8.912 12.720,8.902 12.720 C 8.892 12.720,8.512 12.501,8.059 12.233 L 7.235 11.745 7.251 9.143 C 7.268 6.294,7.268 6.299,7.519 5.651 C 7.907 4.648,8.833 3.808,9.909 3.481 C 10.150 3.407,10.296 3.381,10.786 3.325 C 10.811 3.322,11.018 3.339,11.246 3.362 M16.489 4.937 C 17.202 5.073,17.910 5.471,18.461 6.045 C 19.006 6.613,19.269 7.083,19.402 7.725 C 19.479 8.099,19.505 8.946,19.446 9.150 C 19.414 9.262,19.652 9.387,17.205 7.971 C 15.261 6.846,15.215 6.822,15.000 6.822 C 14.784 6.822,14.739 6.846,12.305 8.251 C 10.944 9.037,9.823 9.680,9.815 9.680 C 9.807 9.680,9.800 9.249,9.800 8.721 L 9.800 7.763 10.230 7.508 C 12.578 6.119,14.167 5.217,14.451 5.113 C 15.045 4.897,15.896 4.823,16.489 4.937 M5.880 9.434 L 5.880 11.908 5.971 12.044 C 6.044 12.153,6.556 12.464,8.501 13.587 C 9.843 14.361,10.966 15.011,10.999 15.031 C 11.043 15.058,10.858 15.185,10.263 15.539 C 9.825 15.798,9.438 16.018,9.403 16.028 C 9.342 16.044,5.545 13.876,5.080 13.559 C 3.804 12.692,3.209 10.995,3.617 9.386 C 3.863 8.419,4.509 7.637,5.498 7.112 C 5.653 7.029,5.803 6.962,5.830 6.961 C 5.869 6.960,5.880 7.481,5.880 9.434 M16.594 9.114 C 18.898 10.447,18.964 10.489,19.318 10.838 C 20.295 11.801,20.687 13.348,20.274 14.610 C 19.954 15.588,19.248 16.405,18.340 16.846 L 18.020 17.002 18.000 14.482 L 17.980 11.962 17.880 11.864 C 17.825 11.811,16.682 11.134,15.340 10.360 C 13.998 9.586,12.896 8.949,12.891 8.944 C 12.874 8.928,14.500 7.967,14.550 7.963 C 14.577 7.962,15.497 8.479,16.594 9.114 M13.106 10.135 L 14.180 10.749 14.180 12.003 L 14.180 13.257 13.120 13.866 C 12.537 14.201,12.033 14.475,12.000 14.475 C 11.967 14.475,11.463 14.201,10.880 13.866 L 9.820 13.257 9.820 12.003 L 9.820 10.749 10.880 10.138 C 11.463 9.802,11.961 9.526,11.986 9.524 C 12.011 9.522,12.515 9.797,13.106 10.135 M15.955 11.780 L 16.765 12.259 16.750 14.900 C 16.735 17.469,16.733 17.549,16.647 17.876 C 16.470 18.547,16.119 19.155,15.632 19.631 C 15.302 19.955,15.057 20.129,14.660 20.321 C 13.771 20.751,12.608 20.797,11.689 20.441 C 11.390 20.325,10.948 20.076,10.747 19.911 L 10.633 19.818 12.707 18.623 C 13.847 17.966,14.830 17.382,14.890 17.326 C 14.951 17.270,15.018 17.161,15.040 17.082 C 15.064 16.995,15.080 15.849,15.080 14.107 C 15.080 12.548,15.095 11.279,15.113 11.287 C 15.131 11.294,15.510 11.516,15.955 11.780 M14.151 16.262 C 14.123 16.287,13.164 16.855,12.020 17.523 C 10.673 18.310,9.820 18.783,9.600 18.866 C 8.620 19.235,7.588 19.198,6.653 18.761 C 6.235 18.565,6.007 18.409,5.666 18.082 C 5.207 17.644,4.831 17.036,4.647 16.435 C 4.532 16.060,4.477 15.484,4.520 15.120 C 4.540 14.955,4.557 14.806,4.558 14.789 C 4.561 14.745,4.500 14.712,6.755 16.012 C 8.559 17.052,8.792 17.176,8.975 17.190 L 9.180 17.205 11.680 15.762 L 14.180 14.318 14.191 15.267 C 14.199 15.994,14.190 16.227,14.151 16.262 " stroke="none" fill-rule="evenodd" fill="black"></path></svg>