<svg viewBox="0 0 24 24" xmlns="http://www.w3.org/2000/svg"><path d="M6.360 2.036 C 6.069 2.128,5.844 2.327,5.735 2.587 C 5.690 2.694,3.080 19.128,3.080 19.302 C 3.080 19.352,3.339 19.360,4.872 19.360 L 6.665 19.360 7.118 16.470 C 7.377 14.822,7.604 13.491,7.648 13.372 C 7.756 13.078,8.029 12.790,8.352 12.631 L 8.618 12.500 10.259 12.476 C 11.162 12.462,12.053 12.430,12.240 12.404 C 14.878 12.035,16.511 10.802,17.379 8.523 C 17.871 7.231,18.073 5.609,17.846 4.764 C 17.595 3.827,16.985 3.088,16.100 2.650 C 15.554 2.379,15.020 2.228,14.120 2.091 C 13.762 2.036,13.163 2.025,10.080 2.016 C 8.089 2.009,6.415 2.019,6.360 2.036 M19.998 8.730 C 19.901 9.140,19.591 9.987,19.364 10.460 C 18.250 12.785,16.354 14.218,13.680 14.755 C 12.957 14.901,12.260 14.962,11.050 14.988 C 10.406 15.001,9.879 15.023,9.878 15.036 C 9.877 15.049,9.665 16.392,9.407 18.020 L 8.937 20.980 8.176 20.991 L 7.414 21.002 7.323 21.585 C 7.273 21.905,7.243 22.226,7.257 22.297 C 7.284 22.444,7.405 22.574,7.573 22.637 C 7.735 22.699,11.024 22.695,11.270 22.633 C 11.515 22.572,11.767 22.323,11.833 22.079 C 11.859 21.980,12.025 20.982,12.201 19.860 C 12.579 17.446,12.576 17.462,12.702 17.271 C 12.893 16.981,13.020 16.948,14.060 16.915 C 14.687 16.895,15.127 16.860,15.440 16.805 C 16.837 16.559,17.854 16.069,18.681 15.241 C 19.456 14.467,19.967 13.488,20.281 12.179 C 20.609 10.815,20.587 9.691,20.215 8.785 C 20.155 8.639,20.093 8.520,20.077 8.520 C 20.061 8.520,20.026 8.615,19.998 8.730 " stroke="none" fill-rule="evenodd" fill="black"></path></svg>