<svg viewBox="0 0 24 24" xmlns="http://www.w3.org/2000/svg"><path d="M11.340 2.026 C 9.906 2.143,8.751 2.463,7.497 3.091 C 4.708 4.490,2.721 7.163,2.165 10.266 C 1.749 12.586,2.193 15.044,3.397 17.078 C 4.176 18.394,5.192 19.466,6.471 20.320 C 6.909 20.612,7.890 21.160,7.977 21.160 C 7.990 21.160,8.000 20.877,8.001 20.530 C 8.001 20.183,8.028 19.711,8.061 19.480 C 8.115 19.097,8.559 17.160,9.212 14.458 C 9.449 13.474,9.461 13.407,9.407 13.278 C 9.240 12.873,9.191 12.612,9.171 12.013 C 9.142 11.161,9.246 10.716,9.608 10.135 C 10.224 9.148,11.430 8.948,12.094 9.724 C 12.303 9.968,12.400 10.257,12.400 10.636 C 12.400 11.206,12.305 11.608,11.688 13.660 C 11.529 14.189,11.507 14.307,11.504 14.660 C 11.500 15.014,11.512 15.086,11.606 15.287 C 11.885 15.882,12.410 16.209,13.078 16.204 C 13.709 16.200,14.181 16.002,14.681 15.532 C 15.456 14.802,15.978 13.638,16.179 12.189 C 16.442 10.287,16.124 9.051,15.131 8.118 C 14.375 7.407,13.401 7.081,12.035 7.080 C 11.133 7.080,10.527 7.216,9.800 7.581 C 8.459 8.256,7.522 9.524,7.262 11.015 C 7.181 11.479,7.182 12.241,7.263 12.612 C 7.342 12.969,7.622 13.557,7.834 13.811 C 8.059 14.079,8.066 14.156,7.918 14.707 C 7.765 15.280,7.711 15.390,7.569 15.428 C 7.417 15.468,7.336 15.449,7.061 15.311 C 6.225 14.892,5.618 14.006,5.381 12.857 C 4.961 10.827,5.637 8.754,7.202 7.265 C 8.576 5.960,10.495 5.294,12.660 5.373 C 14.052 5.423,15.147 5.768,16.220 6.494 C 16.679 6.804,17.473 7.594,17.754 8.020 C 18.529 9.194,18.812 10.373,18.683 11.899 C 18.452 14.650,17.177 16.726,15.199 17.572 C 14.365 17.928,13.268 18.046,12.540 17.859 C 11.996 17.719,11.392 17.342,11.059 16.932 C 10.947 16.795,10.873 16.733,10.861 16.766 C 10.851 16.796,10.690 17.433,10.503 18.182 C 10.316 18.931,10.102 19.705,10.026 19.904 C 9.868 20.318,9.511 21.039,9.305 21.360 L 9.164 21.580 9.330 21.630 C 9.718 21.746,10.428 21.885,10.945 21.945 C 11.607 22.022,12.780 22.001,13.440 21.900 C 16.552 21.424,19.196 19.601,20.750 16.860 C 21.289 15.908,21.724 14.631,21.901 13.480 C 21.991 12.896,22.022 11.649,21.962 11.058 C 21.722 8.693,20.736 6.612,19.062 4.938 C 17.364 3.240,15.203 2.237,12.820 2.041 C 12.369 2.004,11.701 1.997,11.340 2.026 " stroke="none" fill-rule="evenodd" fill="black"></path></svg>