<svg viewBox="0 0 24 24" xmlns="http://www.w3.org/2000/svg"><path d="M11.120 2.039 C 8.629 2.288,6.405 3.366,4.741 5.129 C 0.377 9.753,1.365 17.197,6.784 20.529 C 9.757 22.357,13.506 22.485,16.623 20.863 C 18.170 20.058,19.526 18.804,20.496 17.280 C 20.776 16.841,21.249 15.849,21.434 15.315 C 21.836 14.152,21.978 13.285,21.978 12.000 C 21.978 10.715,21.836 9.848,21.434 8.685 C 21.249 8.151,20.776 7.159,20.496 6.720 C 19.915 5.807,18.965 4.745,18.200 4.154 C 16.755 3.037,15.204 2.374,13.400 2.101 C 12.904 2.026,11.603 1.991,11.120 2.039 M13.720 8.181 C 14.917 8.455,15.829 9.366,16.063 10.522 C 16.281 11.597,15.872 12.720,15.016 13.401 C 14.645 13.695,14.358 13.845,13.892 13.986 C 13.556 14.087,13.487 14.093,12.357 14.116 L 11.174 14.140 9.906 15.354 L 8.638 16.568 8.649 12.974 L 8.660 9.380 8.751 9.182 C 8.970 8.708,9.340 8.370,9.822 8.205 C 10.047 8.127,10.152 8.123,11.760 8.122 C 13.125 8.121,13.511 8.133,13.720 8.181 " stroke="none" fill-rule="evenodd" fill="black"></path></svg>