<svg viewBox="0 0 24 24" xmlns="http://www.w3.org/2000/svg"><path d="M11.120 2.039 C 8.629 2.288,6.405 3.366,4.741 5.129 C 0.377 9.753,1.365 17.197,6.784 20.529 C 9.757 22.357,13.506 22.485,16.623 20.863 C 18.170 20.058,19.526 18.804,20.496 17.280 C 20.776 16.841,21.249 15.849,21.434 15.315 C 21.836 14.152,21.978 13.285,21.978 12.000 C 21.978 10.715,21.836 9.848,21.434 8.685 C 21.249 8.151,20.776 7.159,20.496 6.720 C 19.915 5.807,18.965 4.745,18.200 4.154 C 16.755 3.037,15.204 2.374,13.400 2.101 C 12.904 2.026,11.603 1.991,11.120 2.039 M12.740 4.041 C 15.159 4.268,17.352 5.587,18.691 7.620 C 20.226 9.949,20.414 12.987,19.179 15.508 C 18.384 17.133,17.095 18.416,15.471 19.200 C 13.270 20.264,10.730 20.264,8.529 19.200 C 6.300 18.124,4.677 16.053,4.178 13.648 C 3.640 11.053,4.397 8.393,6.217 6.489 C 7.919 4.708,10.304 3.813,12.740 4.041 M9.827 8.203 C 9.186 8.423,8.744 8.944,8.641 9.600 C 8.598 9.878,8.581 16.560,8.624 16.560 C 8.637 16.560,9.216 16.015,9.911 15.350 L 11.174 14.140 12.357 14.116 C 13.493 14.093,13.554 14.088,13.899 13.984 C 14.811 13.708,15.460 13.156,15.859 12.315 C 16.065 11.882,16.132 11.517,16.108 10.960 C 16.093 10.636,16.062 10.424,16.000 10.241 C 15.700 9.356,15.087 8.696,14.240 8.347 C 13.716 8.132,13.601 8.121,11.760 8.122 C 10.163 8.123,10.046 8.128,9.827 8.203 " stroke="none" fill-rule="evenodd" fill="black"></path></svg>