<svg viewBox="0 0 24 24" xmlns="http://www.w3.org/2000/svg"><path d="M11.120 2.039 C 8.629 2.288,6.405 3.366,4.741 5.129 C 0.377 9.753,1.365 17.197,6.784 20.529 C 9.757 22.357,13.506 22.485,16.623 20.863 C 18.170 20.058,19.526 18.804,20.496 17.280 C 20.776 16.841,21.249 15.849,21.434 15.315 C 21.836 14.152,21.978 13.285,21.978 12.000 C 21.978 10.715,21.836 9.848,21.434 8.685 C 21.249 8.151,20.776 7.159,20.496 6.720 C 19.915 5.807,18.965 4.745,18.200 4.154 C 16.755 3.037,15.204 2.374,13.400 2.101 C 12.904 2.026,11.603 1.991,11.120 2.039 M14.204 7.108 C 15.059 7.349,15.759 7.845,16.221 8.539 C 16.643 9.174,16.812 9.725,16.816 10.480 C 16.823 12.092,15.829 13.405,14.237 13.885 C 13.953 13.971,13.864 13.976,12.210 13.990 L 10.480 14.005 10.480 15.503 L 10.480 17.000 9.500 17.000 L 8.520 17.000 8.520 11.998 L 8.520 6.996 11.210 7.009 C 13.816 7.022,13.909 7.025,14.204 7.108 M10.480 10.500 L 10.480 12.003 12.091 11.992 L 13.702 11.980 13.968 11.849 C 14.510 11.582,14.816 11.095,14.816 10.500 C 14.816 9.905,14.510 9.418,13.968 9.151 L 13.702 9.020 12.091 9.008 L 10.480 8.996 10.480 10.500 " stroke="none" fill-rule="evenodd" fill="black"></path></svg>