<svg viewBox="0 0 24 24" xmlns="http://www.w3.org/2000/svg"><path d="M7.240 2.710 C 6.578 2.890,6.053 3.405,5.765 4.154 C 5.431 5.027,5.378 6.316,5.620 7.741 C 5.675 8.067,5.720 8.347,5.720 8.362 C 5.720 8.377,5.554 8.448,5.350 8.520 C 4.518 8.815,3.633 9.250,3.040 9.655 C 2.652 9.920,2.094 10.471,1.886 10.794 C 1.389 11.567,1.385 12.429,1.875 13.188 C 2.452 14.079,3.707 14.907,5.357 15.483 C 5.557 15.553,5.720 15.623,5.720 15.638 C 5.720 15.653,5.675 15.933,5.620 16.259 C 5.321 18.020,5.472 19.517,6.034 20.386 C 6.216 20.667,6.581 21.009,6.838 21.139 C 7.991 21.723,9.723 21.153,11.606 19.569 L 12.000 19.238 12.394 19.569 C 13.778 20.733,15.088 21.360,16.137 21.360 C 16.808 21.360,17.271 21.169,17.699 20.715 C 18.485 19.882,18.726 18.300,18.379 16.252 C 18.325 15.930,18.280 15.653,18.280 15.638 C 18.280 15.623,18.443 15.553,18.643 15.483 C 19.966 15.021,20.976 14.439,21.660 13.742 C 22.248 13.144,22.485 12.643,22.485 12.000 C 22.485 11.348,22.246 10.850,21.640 10.238 C 21.015 9.607,20.073 9.052,18.860 8.600 C 18.552 8.485,18.294 8.386,18.287 8.380 C 18.281 8.373,18.321 8.092,18.378 7.754 C 18.849 4.938,18.213 3.035,16.686 2.696 C 15.542 2.441,14.021 3.064,12.350 4.471 L 12.000 4.766 11.650 4.470 C 10.646 3.621,9.644 3.030,8.780 2.779 C 8.295 2.638,7.617 2.607,7.240 2.710 M8.292 4.198 C 8.965 4.370,9.910 4.936,10.758 5.675 L 10.935 5.829 10.544 6.285 C 10.329 6.535,10.001 6.940,9.815 7.185 L 9.476 7.629 8.936 7.700 C 8.638 7.739,8.131 7.820,7.808 7.880 C 7.484 7.941,7.214 7.985,7.206 7.978 C 7.181 7.955,7.115 7.621,7.058 7.221 C 6.871 5.906,6.984 4.786,7.348 4.361 C 7.563 4.111,7.794 4.071,8.292 4.198 M16.368 4.162 C 16.825 4.288,17.082 5.126,17.025 6.300 C 16.994 6.932,16.858 7.921,16.794 7.978 C 16.786 7.985,16.516 7.941,16.192 7.880 C 15.869 7.820,15.362 7.739,15.064 7.700 L 14.524 7.629 14.186 7.185 C 14.000 6.940,13.676 6.539,13.464 6.293 C 13.253 6.047,13.080 5.838,13.080 5.828 C 13.080 5.817,13.260 5.662,13.479 5.482 C 14.285 4.823,15.085 4.359,15.681 4.203 C 16.026 4.112,16.162 4.104,16.368 4.162 M12.278 7.210 L 12.524 7.500 12.262 7.512 C 12.118 7.518,11.884 7.518,11.742 7.512 L 11.483 7.500 11.728 7.210 C 11.862 7.050,11.985 6.920,12.002 6.920 C 12.018 6.920,12.142 7.050,12.278 7.210 M13.629 9.064 C 13.774 9.105,14.456 10.201,15.060 11.364 L 15.390 12.000 15.060 12.636 C 14.679 13.369,14.385 13.876,13.978 14.504 L 13.691 14.947 13.175 14.973 C 12.516 15.007,11.484 15.007,10.825 14.973 L 10.310 14.947 10.087 14.604 C 9.674 13.965,9.197 13.143,8.908 12.571 L 8.620 12.003 8.854 11.531 C 9.192 10.852,10.126 9.266,10.285 9.100 C 10.307 9.078,10.508 9.048,10.732 9.034 C 11.208 9.003,13.498 9.027,13.629 9.064 M8.111 9.739 C 7.979 9.970,7.856 10.150,7.838 10.139 C 7.797 10.113,7.586 9.481,7.611 9.456 C 7.634 9.432,8.148 9.329,8.266 9.324 C 8.344 9.320,8.329 9.361,8.111 9.739 M16.062 9.379 C 16.233 9.412,16.380 9.446,16.389 9.456 C 16.414 9.480,16.190 10.160,16.157 10.160 C 16.143 10.160,16.022 9.971,15.889 9.740 C 15.745 9.488,15.669 9.320,15.700 9.320 C 15.729 9.320,15.892 9.347,16.062 9.379 M6.359 10.500 C 6.476 10.830,6.658 11.304,6.764 11.554 L 6.955 12.008 6.817 12.320 C 6.695 12.598,6.276 13.702,6.171 14.020 C 6.124 14.164,6.115 14.163,5.600 13.972 C 4.120 13.422,3.002 12.574,3.002 12.000 C 3.002 11.506,3.906 10.738,5.080 10.236 C 5.551 10.034,6.098 9.844,6.123 9.873 C 6.136 9.888,6.242 10.170,6.359 10.500 M18.885 10.222 C 20.093 10.737,20.998 11.499,20.998 12.000 C 20.998 12.450,20.221 13.152,19.177 13.645 C 18.571 13.931,17.882 14.174,17.860 14.110 C 17.711 13.672,17.317 12.624,17.199 12.353 L 17.046 12.000 17.199 11.647 C 17.317 11.376,17.713 10.324,17.860 9.891 C 17.879 9.836,18.296 9.970,18.885 10.222 M11.493 10.592 C 10.904 10.802,10.511 11.366,10.511 12.000 C 10.512 12.411,10.623 12.694,10.906 13.000 C 11.502 13.643,12.439 13.666,13.053 13.053 C 13.783 12.322,13.576 11.107,12.644 10.650 C 12.352 10.507,11.807 10.480,11.493 10.592 M8.106 14.250 C 8.235 14.475,8.345 14.671,8.352 14.685 C 8.364 14.711,7.639 14.572,7.609 14.542 C 7.577 14.511,7.814 13.840,7.857 13.840 C 7.865 13.840,7.977 14.024,8.106 14.250 M16.295 14.183 C 16.357 14.372,16.400 14.534,16.391 14.543 C 16.361 14.572,15.636 14.711,15.648 14.685 C 15.716 14.537,16.135 13.840,16.156 13.840 C 16.171 13.840,16.234 13.994,16.295 14.183 M7.860 16.135 C 8.146 16.189,8.628 16.265,8.932 16.304 L 9.484 16.375 9.692 16.658 C 9.806 16.813,10.130 17.215,10.411 17.551 C 10.693 17.888,10.913 18.179,10.900 18.200 C 10.852 18.277,10.043 18.905,9.700 19.131 C 8.844 19.695,8.028 19.975,7.627 19.842 C 7.135 19.680,6.884 18.724,6.991 17.427 C 7.034 16.914,7.128 16.253,7.184 16.068 C 7.198 16.024,7.232 16.004,7.273 16.016 C 7.310 16.027,7.574 16.080,7.860 16.135 M16.816 16.070 C 16.828 16.108,16.865 16.302,16.899 16.500 C 17.201 18.286,16.988 19.639,16.373 19.842 C 15.972 19.975,15.156 19.695,14.300 19.131 C 13.954 18.903,13.148 18.277,13.099 18.198 C 13.086 18.177,13.249 17.957,13.462 17.710 C 13.674 17.462,14.000 17.061,14.185 16.817 L 14.521 16.374 15.070 16.304 C 15.373 16.265,15.872 16.183,16.180 16.121 C 16.488 16.060,16.752 16.007,16.767 16.005 C 16.782 16.002,16.804 16.032,16.816 16.070 M12.437 16.600 C 12.396 16.655,12.281 16.790,12.181 16.900 L 12.000 17.100 11.858 16.940 C 11.781 16.852,11.666 16.717,11.603 16.640 L 11.489 16.500 12.000 16.500 L 12.511 16.500 12.437 16.600 " stroke="none" fill-rule="evenodd" fill="black"></path></svg>