<svg viewBox="0 0 24 24" xmlns="http://www.w3.org/2000/svg"><path d="M13.500 2.726 C 12.856 2.799,12.269 3.209,11.986 3.784 C 11.845 4.070,11.837 4.103,11.440 5.980 C 11.240 6.926,11.067 7.731,11.056 7.770 C 11.039 7.824,10.991 7.840,10.839 7.840 C 10.575 7.840,9.788 7.945,9.304 8.045 C 8.196 8.275,7.060 8.694,6.114 9.224 L 5.729 9.440 5.494 9.336 C 4.681 8.975,3.650 8.984,2.851 9.358 C 2.006 9.754,1.375 10.505,1.112 11.428 C 0.986 11.868,0.986 12.610,1.110 13.046 C 1.290 13.674,1.524 14.072,1.990 14.540 L 2.269 14.820 2.292 15.240 C 2.366 16.599,2.931 17.830,3.980 18.914 C 4.733 19.694,5.425 20.192,6.460 20.699 C 7.791 21.352,9.262 21.747,10.869 21.882 C 11.588 21.943,13.048 21.912,13.720 21.821 C 16.841 21.401,19.423 20.010,20.787 18.015 C 21.376 17.154,21.704 16.211,21.782 15.160 L 21.810 14.780 22.096 14.480 C 22.254 14.314,22.450 14.069,22.531 13.934 C 23.557 12.246,22.815 10.085,20.958 9.350 C 20.570 9.196,20.267 9.144,19.780 9.145 C 19.289 9.147,18.941 9.219,18.517 9.408 L 18.253 9.525 17.822 9.285 C 16.457 8.526,14.869 8.017,13.370 7.859 C 13.174 7.838,13.120 7.818,13.121 7.766 C 13.122 7.657,13.746 4.761,13.774 4.733 C 13.788 4.718,14.507 4.857,15.370 5.039 L 16.941 5.372 17.070 5.642 C 17.228 5.973,17.575 6.333,17.909 6.511 C 18.696 6.930,19.627 6.796,20.255 6.173 C 20.660 5.771,20.849 5.320,20.848 4.760 C 20.845 3.752,20.134 2.930,19.140 2.787 C 18.592 2.708,18.086 2.848,17.608 3.209 C 17.469 3.314,17.338 3.400,17.316 3.400 C 17.294 3.400,16.598 3.255,15.768 3.078 C 14.122 2.726,13.860 2.685,13.500 2.726 M13.103 9.843 C 14.660 9.994,16.251 10.590,17.737 11.577 C 18.087 11.810,18.381 12.000,18.390 12.000 C 18.399 12.000,18.563 11.854,18.754 11.675 C 19.193 11.264,19.435 11.143,19.820 11.144 C 20.164 11.145,20.402 11.242,20.640 11.480 C 20.879 11.719,20.978 11.957,20.979 12.300 C 20.981 12.819,20.736 13.143,20.097 13.468 L 19.720 13.660 19.748 13.800 C 19.807 14.100,19.778 15.208,19.703 15.540 C 19.195 17.787,16.526 19.537,13.086 19.879 C 12.494 19.938,11.347 19.929,10.740 19.861 C 7.592 19.509,5.151 17.990,4.456 15.949 C 4.306 15.509,4.265 15.099,4.292 14.317 L 4.317 13.613 3.941 13.443 C 3.479 13.233,3.278 13.066,3.132 12.769 C 2.984 12.467,2.977 12.040,3.116 11.753 C 3.323 11.322,3.722 11.073,4.204 11.073 C 4.579 11.073,4.801 11.185,5.247 11.599 L 5.594 11.921 6.253 11.487 C 7.727 10.515,9.145 9.998,10.760 9.843 C 11.269 9.795,12.607 9.794,13.103 9.843 M8.110 12.041 C 7.471 12.202,7.010 12.743,6.969 13.379 C 6.945 13.757,7.010 14.021,7.202 14.318 C 7.732 15.139,8.888 15.228,9.554 14.499 C 9.825 14.203,9.934 13.916,9.934 13.500 C 9.934 12.909,9.629 12.418,9.103 12.158 C 8.825 12.022,8.390 11.970,8.110 12.041 M15.110 12.041 C 14.471 12.202,14.010 12.743,13.969 13.379 C 13.945 13.757,14.010 14.021,14.202 14.318 C 14.732 15.139,15.888 15.228,16.554 14.499 C 16.825 14.203,16.934 13.916,16.934 13.500 C 16.934 12.909,16.629 12.418,16.103 12.158 C 15.825 12.022,15.390 11.970,15.110 12.041 M8.117 16.837 C 7.984 16.970,7.957 17.201,8.059 17.347 C 8.141 17.464,8.708 17.821,9.096 18.001 C 10.620 18.704,12.712 18.795,14.475 18.234 C 15.210 18.000,15.873 17.566,15.953 17.266 C 16.030 16.979,15.838 16.720,15.550 16.720 C 15.420 16.720,15.332 16.756,15.152 16.882 C 14.218 17.537,12.723 17.889,11.410 17.763 C 10.407 17.666,9.509 17.362,8.794 16.876 C 8.497 16.674,8.291 16.662,8.117 16.837 " stroke="none" fill-rule="evenodd" fill="black"></path></svg>