<svg viewBox="0 0 24 24" xmlns="http://www.w3.org/2000/svg"><path d="M11.120 2.039 C 8.629 2.288,6.405 3.366,4.741 5.129 C 0.377 9.753,1.365 17.197,6.784 20.529 C 9.757 22.357,13.506 22.485,16.623 20.863 C 18.170 20.058,19.526 18.804,20.496 17.280 C 20.776 16.841,21.249 15.849,21.434 15.315 C 21.836 14.152,21.978 13.285,21.978 12.000 C 21.978 10.715,21.836 9.848,21.434 8.685 C 21.249 8.151,20.776 7.159,20.496 6.720 C 19.915 5.807,18.965 4.745,18.200 4.154 C 16.755 3.037,15.204 2.374,13.400 2.101 C 12.904 2.026,11.603 1.991,11.120 2.039 M14.035 6.243 L 15.249 6.486 15.406 6.324 C 15.614 6.107,15.768 6.033,16.060 6.010 C 16.368 5.985,16.656 6.100,16.864 6.329 C 17.055 6.541,17.120 6.709,17.120 6.991 C 17.120 7.732,16.341 8.217,15.687 7.884 C 15.476 7.776,15.250 7.504,15.185 7.281 L 15.132 7.100 14.076 6.877 C 13.034 6.657,13.020 6.655,12.991 6.737 C 12.934 6.898,12.359 9.732,12.378 9.752 C 12.389 9.763,12.583 9.787,12.809 9.805 C 13.320 9.847,13.943 9.971,14.417 10.125 C 14.828 10.259,15.632 10.636,15.978 10.857 C 16.209 11.005,16.210 11.005,16.295 10.927 C 16.342 10.884,16.479 10.798,16.600 10.736 C 16.795 10.636,16.863 10.623,17.201 10.621 C 17.552 10.620,17.602 10.630,17.849 10.751 C 18.806 11.223,18.939 12.491,18.101 13.168 L 17.868 13.356 17.851 13.783 C 17.831 14.297,17.736 14.690,17.538 15.085 C 16.848 16.464,15.177 17.477,13.120 17.765 C 12.499 17.851,11.320 17.831,10.700 17.723 C 8.683 17.371,7.137 16.381,6.502 15.036 C 6.306 14.621,6.239 14.332,6.212 13.790 L 6.188 13.321 6.017 13.220 C 5.810 13.099,5.594 12.845,5.471 12.577 C 5.397 12.416,5.380 12.311,5.380 12.000 C 5.380 11.665,5.394 11.593,5.492 11.391 C 5.740 10.886,6.179 10.594,6.731 10.567 C 7.089 10.549,7.360 10.620,7.632 10.804 C 7.727 10.868,7.812 10.920,7.821 10.920 C 7.831 10.920,7.956 10.848,8.099 10.761 C 9.080 10.160,10.182 9.810,11.328 9.734 L 11.717 9.708 11.763 9.484 C 11.788 9.361,11.958 8.558,12.142 7.700 C 12.496 6.045,12.512 6.000,12.734 6.000 C 12.781 6.000,13.367 6.109,14.035 6.243 M9.345 12.059 C 8.809 12.250,8.532 12.888,8.763 13.400 C 8.920 13.746,9.203 13.950,9.581 13.989 C 10.366 14.070,10.924 13.220,10.541 12.526 C 10.306 12.099,9.793 11.899,9.345 12.059 M14.040 12.075 C 13.727 12.177,13.448 12.436,13.358 12.705 C 13.145 13.340,13.564 13.954,14.284 14.060 C 14.640 14.113,15.115 13.793,15.242 13.417 C 15.310 13.217,15.310 12.904,15.243 12.705 C 15.176 12.507,14.951 12.258,14.746 12.153 C 14.571 12.064,14.199 12.023,14.040 12.075 M9.560 15.400 C 9.454 15.506,9.459 15.657,9.570 15.762 C 9.794 15.973,10.409 16.267,10.913 16.404 C 11.296 16.508,12.277 16.552,12.711 16.484 C 13.292 16.394,14.063 16.079,14.475 15.765 C 14.661 15.623,14.550 15.320,14.311 15.320 C 14.247 15.320,14.119 15.372,14.027 15.435 C 13.404 15.862,12.772 16.023,11.844 15.990 C 11.354 15.973,11.205 15.952,10.920 15.860 C 10.546 15.740,10.268 15.609,10.013 15.435 C 9.816 15.300,9.671 15.289,9.560 15.400 " stroke="none" fill-rule="evenodd" fill="black"></path></svg>