<svg viewBox="0 0 24 24" xmlns="http://www.w3.org/2000/svg"><path d="M17.889 2.578 C 17.341 2.711,16.727 3.154,16.402 3.651 C 16.313 3.787,16.191 4.043,16.130 4.219 C 16.035 4.496,16.020 4.603,16.020 5.000 C 16.020 5.397,16.035 5.504,16.130 5.781 C 16.350 6.421,16.818 6.953,17.411 7.235 C 17.819 7.429,18.084 7.492,18.500 7.492 C 18.917 7.492,19.180 7.430,19.600 7.231 C 20.252 6.922,20.791 6.240,20.940 5.535 C 21.121 4.681,20.884 3.886,20.261 3.255 C 20.001 2.992,19.876 2.900,19.600 2.769 C 19.413 2.680,19.165 2.588,19.048 2.564 C 18.769 2.506,18.154 2.514,17.889 2.578 M3.000 12.500 L 3.000 21.000 11.510 21.000 L 20.020 21.000 18.288 19.268 L 16.556 17.535 17.128 17.248 C 17.443 17.090,17.871 16.839,18.080 16.690 C 18.569 16.342,19.346 15.565,19.689 15.080 C 20.256 14.278,20.688 13.267,20.887 12.276 C 20.964 11.893,20.978 11.691,20.979 11.020 C 20.980 10.209,20.956 9.989,20.793 9.315 L 20.710 8.970 20.421 9.103 C 18.749 9.876,16.621 9.471,15.275 8.125 C 14.708 7.557,14.323 6.896,14.136 6.164 C 13.979 5.551,13.970 4.963,14.105 4.150 L 14.130 4.000 8.565 4.000 L 3.000 4.000 3.000 12.500 " stroke="none" fill-rule="evenodd" fill="black"></path></svg>