<svg viewBox="0 0 24 24" xmlns="http://www.w3.org/2000/svg"><path d="M7.560 3.041 C 5.178 3.375,3.338 5.240,3.037 7.625 C 2.979 8.087,3.007 8.858,3.098 9.277 C 3.179 9.655,3.369 10.221,3.501 10.483 C 3.599 10.675,3.602 10.703,3.564 10.973 C 3.429 11.940,3.492 12.990,3.747 14.020 C 3.900 14.640,4.064 15.090,4.362 15.706 C 5.598 18.261,7.963 19.989,10.820 20.422 C 11.342 20.501,12.500 20.514,12.993 20.447 C 13.314 20.403,13.333 20.405,13.523 20.502 C 14.069 20.778,14.817 20.959,15.544 20.989 C 18.095 21.096,20.326 19.363,20.887 16.840 C 20.964 16.490,20.980 16.307,20.979 15.740 C 20.979 15.332,20.958 14.964,20.927 14.820 C 20.837 14.407,20.678 13.912,20.535 13.602 C 20.401 13.310,20.399 13.299,20.437 13.002 C 20.567 11.982,20.508 11.011,20.253 9.980 C 19.872 8.438,19.029 6.967,17.915 5.899 C 16.551 4.593,14.870 3.793,13.001 3.562 C 12.567 3.508,11.435 3.508,11.010 3.561 C 10.696 3.600,10.673 3.598,10.480 3.500 C 10.212 3.364,9.655 3.181,9.260 3.099 C 8.885 3.022,7.932 2.989,7.560 3.041 M12.627 6.443 C 14.073 6.640,15.381 7.361,15.783 8.183 C 15.934 8.491,15.963 8.918,15.849 9.143 C 15.677 9.479,15.393 9.661,14.969 9.705 C 14.545 9.750,14.377 9.663,13.862 9.135 C 13.175 8.431,12.799 8.251,11.938 8.211 C 11.184 8.177,10.690 8.298,10.342 8.604 C 9.909 8.984,9.882 9.708,10.290 10.013 C 10.633 10.270,10.947 10.370,12.520 10.720 C 13.909 11.028,14.188 11.104,14.574 11.277 C 15.580 11.729,16.140 12.451,16.281 13.480 C 16.367 14.103,16.276 14.693,16.006 15.260 C 15.647 16.012,15.003 16.535,14.040 16.856 C 13.489 17.039,13.029 17.116,12.320 17.146 C 10.945 17.204,9.652 16.898,8.783 16.308 C 7.948 15.742,7.488 14.786,7.757 14.178 C 7.871 13.920,7.977 13.810,8.220 13.695 C 8.367 13.626,8.490 13.601,8.685 13.600 C 9.072 13.600,9.306 13.732,9.639 14.142 C 10.448 15.136,10.878 15.383,11.880 15.427 C 12.816 15.469,13.491 15.185,13.829 14.608 C 13.979 14.352,14.004 13.916,13.882 13.665 C 13.785 13.463,13.597 13.281,13.364 13.162 C 13.280 13.119,12.488 12.902,11.603 12.680 C 10.719 12.458,9.866 12.230,9.708 12.173 C 8.815 11.853,8.219 11.367,7.933 10.725 C 7.631 10.049,7.647 9.002,7.970 8.280 C 8.383 7.358,9.463 6.679,10.860 6.463 C 11.300 6.395,12.203 6.385,12.627 6.443 " stroke="none" fill-rule="evenodd" fill="black"></path></svg>