<svg viewBox="0 0 24 24" xmlns="http://www.w3.org/2000/svg"><path d="M11.380 3.027 C 9.739 3.164,8.273 3.998,7.417 5.282 C 6.631 6.460,6.493 7.379,6.686 10.137 C 6.737 10.870,6.748 10.841,6.370 10.926 C 6.091 10.988,5.716 10.929,5.285 10.756 C 5.042 10.658,4.942 10.637,4.793 10.654 C 4.242 10.717,3.923 11.158,4.167 11.520 C 4.325 11.755,4.688 11.963,5.320 12.180 C 5.983 12.408,6.328 12.612,6.471 12.860 C 6.548 12.993,6.561 13.067,6.551 13.301 C 6.541 13.542,6.512 13.640,6.347 13.981 C 5.523 15.686,4.076 16.955,2.560 17.299 C 2.126 17.398,2.042 17.436,2.014 17.549 C 1.914 17.949,2.670 18.359,3.986 18.620 C 4.269 18.676,4.542 18.731,4.593 18.742 C 4.707 18.768,4.774 18.920,4.886 19.411 C 4.996 19.894,5.047 19.990,5.210 20.021 C 5.282 20.034,5.565 20.005,5.840 19.956 C 6.505 19.838,7.320 19.837,7.766 19.954 C 8.221 20.074,8.424 20.185,9.332 20.814 C 10.372 21.533,11.011 21.760,11.996 21.760 C 13.021 21.760,13.544 21.567,14.800 20.725 C 15.632 20.167,15.904 20.025,16.304 19.940 C 16.703 19.855,17.562 19.864,18.198 19.958 C 18.946 20.070,18.958 20.062,19.120 19.381 C 19.179 19.130,19.256 18.881,19.290 18.829 C 19.344 18.747,19.431 18.719,19.921 18.625 C 20.875 18.443,21.554 18.191,21.831 17.918 C 22.079 17.673,22.045 17.433,21.752 17.362 C 20.974 17.174,20.470 16.969,19.951 16.630 C 19.050 16.044,18.262 15.140,17.716 14.068 C 17.371 13.393,17.347 13.049,17.622 12.729 C 17.814 12.504,18.093 12.354,18.681 12.158 C 19.236 11.973,19.254 11.965,19.549 11.771 C 19.797 11.608,19.920 11.425,19.920 11.221 C 19.920 11.020,19.803 10.869,19.552 10.743 C 19.256 10.596,19.014 10.605,18.489 10.785 C 17.988 10.956,17.667 10.979,17.425 10.862 L 17.270 10.786 17.294 10.483 C 17.420 8.929,17.423 7.626,17.303 6.953 C 17.144 6.064,16.608 5.112,15.879 4.425 C 14.759 3.368,13.178 2.877,11.380 3.027 " stroke="none" fill-rule="evenodd" fill="black"></path></svg>