<svg viewBox="0 0 24 24" xmlns="http://www.w3.org/2000/svg"><path d="M11.380 3.027 C 10.978 3.061,10.385 3.179,10.017 3.300 C 9.191 3.570,8.637 3.916,7.999 4.557 C 7.318 5.242,6.916 5.880,6.704 6.610 C 6.525 7.228,6.505 7.509,6.542 8.860 C 6.560 9.542,6.577 10.243,6.578 10.417 L 6.580 10.735 6.443 10.770 C 6.259 10.818,5.855 10.745,5.568 10.611 C 5.245 10.461,4.826 10.460,4.535 10.610 C 4.070 10.851,3.910 11.271,4.137 11.658 C 4.323 11.976,4.659 12.180,5.435 12.446 C 6.239 12.722,6.440 12.888,6.440 13.277 C 6.440 13.471,6.410 13.569,6.246 13.904 C 5.818 14.776,5.113 15.649,4.405 16.182 C 3.971 16.509,3.372 16.807,2.880 16.942 C 2.290 17.103,2.184 17.149,2.109 17.276 C 2.024 17.419,2.020 17.646,2.099 17.798 C 2.295 18.177,3.025 18.507,4.189 18.743 C 4.470 18.799,4.704 18.850,4.709 18.856 C 4.715 18.862,4.773 19.076,4.838 19.333 C 4.978 19.883,5.005 19.940,5.173 20.042 C 5.331 20.139,5.458 20.138,6.060 20.039 C 6.649 19.942,7.427 19.935,7.799 20.022 C 8.136 20.102,8.584 20.343,9.180 20.766 C 10.078 21.403,10.537 21.620,11.252 21.745 C 11.744 21.831,12.564 21.801,13.040 21.680 C 13.528 21.557,14.173 21.226,14.840 20.757 C 15.514 20.284,15.954 20.059,16.320 20.002 C 16.752 19.933,17.500 19.951,18.025 20.043 C 18.535 20.131,18.709 20.122,18.887 19.995 C 19.001 19.914,19.038 19.817,19.204 19.171 C 19.288 18.844,19.289 18.842,19.434 18.817 C 20.251 18.676,21.072 18.440,21.400 18.252 C 21.887 17.974,22.074 17.617,21.906 17.291 C 21.833 17.150,21.753 17.114,21.221 16.980 C 19.940 16.658,18.716 15.625,17.887 14.166 C 17.288 13.111,17.397 12.854,18.627 12.426 C 19.118 12.255,19.316 12.159,19.585 11.958 C 20.016 11.636,20.075 11.152,19.728 10.786 C 19.518 10.565,19.337 10.500,18.940 10.502 C 18.619 10.503,18.548 10.518,18.280 10.639 C 18.040 10.747,17.926 10.775,17.713 10.777 C 17.567 10.779,17.434 10.767,17.418 10.752 C 17.403 10.736,17.410 10.358,17.435 9.912 C 17.500 8.759,17.493 7.606,17.420 7.188 C 17.242 6.168,16.839 5.401,16.080 4.638 C 15.136 3.691,14.062 3.187,12.670 3.040 C 12.320 3.003,11.732 2.997,11.380 3.027 M13.033 5.119 C 14.135 5.388,15.082 6.227,15.380 7.200 C 15.479 7.523,15.499 8.388,15.435 9.543 C 15.405 10.092,15.383 10.655,15.388 10.795 C 15.398 11.130,15.526 11.541,15.701 11.802 L 15.843 12.012 15.725 12.296 C 15.395 13.092,15.466 13.855,15.960 14.817 C 16.372 15.618,16.976 16.449,17.587 17.057 L 17.906 17.374 17.713 17.629 C 17.607 17.769,17.520 17.899,17.520 17.917 C 17.520 17.935,17.192 17.960,16.790 17.972 C 15.511 18.013,15.117 18.157,13.724 19.095 C 12.774 19.735,12.659 19.780,11.980 19.780 C 11.370 19.780,11.205 19.725,10.622 19.326 C 9.684 18.684,9.411 18.510,9.140 18.380 C 8.523 18.084,7.901 17.958,7.050 17.956 C 6.736 17.955,6.480 17.939,6.480 17.921 C 6.480 17.903,6.398 17.777,6.298 17.641 L 6.116 17.394 6.491 17.004 C 7.152 16.314,7.587 15.704,7.991 14.897 C 8.538 13.804,8.605 13.136,8.256 12.256 L 8.159 12.011 8.301 11.776 C 8.379 11.646,8.480 11.423,8.525 11.280 C 8.603 11.033,8.605 10.969,8.574 9.980 C 8.555 9.408,8.541 8.589,8.541 8.160 C 8.543 7.423,8.548 7.364,8.646 7.093 C 8.782 6.717,9.045 6.329,9.407 5.970 C 9.749 5.631,9.901 5.523,10.293 5.338 C 10.834 5.082,11.331 4.997,12.140 5.021 C 12.517 5.032,12.809 5.064,13.033 5.119 " stroke="none" fill-rule="evenodd" fill="black"></path></svg>