<svg viewBox="0 0 24 24" xmlns="http://www.w3.org/2000/svg"><path d="M13.694 7.143 C 13.100 7.243,12.387 7.515,11.850 7.847 L 11.719 7.927 11.730 12.716 L 11.740 17.506 11.836 17.647 C 11.889 17.724,11.996 17.831,12.073 17.884 L 12.214 17.980 16.697 17.980 C 20.855 17.980,21.198 17.975,21.435 17.910 C 22.066 17.735,22.471 17.511,22.927 17.085 C 24.173 15.919,24.346 14.068,23.341 12.660 C 22.653 11.697,21.392 11.156,20.218 11.321 C 19.664 11.398,19.712 11.414,19.654 11.130 C 19.536 10.556,19.242 9.879,18.868 9.320 C 18.608 8.931,17.904 8.229,17.509 7.965 C 16.879 7.543,16.195 7.267,15.465 7.141 C 15.030 7.066,14.146 7.067,13.694 7.143 M10.347 8.754 C 9.894 9.886,9.861 16.258,10.301 17.707 C 10.377 17.957,10.418 18.017,10.494 17.988 C 10.793 17.873,11.022 14.698,10.925 12.015 C 10.831 9.424,10.600 8.122,10.347 8.754 M7.014 9.708 C 6.847 10.109,6.738 11.040,6.674 12.615 C 6.573 15.126,6.818 18.000,7.133 18.000 C 7.690 18.000,7.791 10.831,7.250 9.696 C 7.166 9.520,7.091 9.524,7.014 9.708 M8.730 9.610 C 8.604 9.769,8.485 10.417,8.392 11.440 C 8.324 12.203,8.323 15.376,8.392 16.120 C 8.463 16.892,8.516 17.257,8.607 17.608 C 8.777 18.259,8.948 18.076,9.098 17.080 C 9.225 16.241,9.259 15.531,9.259 13.780 C 9.259 12.034,9.225 11.329,9.099 10.480 C 9.016 9.920,8.899 9.560,8.800 9.560 C 8.783 9.560,8.752 9.582,8.730 9.610 M5.382 10.211 C 5.152 10.563,5.001 12.080,5.000 14.044 C 5.000 15.366,5.047 16.247,5.161 17.020 C 5.250 17.627,5.295 17.800,5.396 17.926 C 5.505 18.060,5.575 17.980,5.675 17.608 C 6.004 16.379,6.051 12.720,5.760 10.955 C 5.644 10.254,5.518 10.004,5.382 10.211 M2.026 11.768 C 1.608 12.421,1.540 16.020,1.922 17.257 C 1.965 17.397,2.027 17.533,2.060 17.560 C 2.309 17.767,2.517 16.974,2.604 15.484 C 2.723 13.430,2.379 11.215,2.026 11.768 M3.687 11.950 C 3.214 12.868,3.211 17.098,3.682 17.874 C 3.794 18.058,3.882 18.025,3.986 17.759 C 4.305 16.949,4.388 14.182,4.138 12.717 C 4.078 12.362,3.977 12.017,3.909 11.930 C 3.853 11.858,3.729 11.869,3.687 11.950 M0.354 12.708 C 0.260 12.818,0.172 13.074,0.093 13.465 C -0.017 14.011,-0.008 15.553,0.109 16.090 C 0.328 17.100,0.631 17.096,0.853 16.080 C 0.924 15.754,0.936 15.562,0.936 14.740 C 0.936 13.911,0.925 13.727,0.851 13.391 C 0.718 12.778,0.523 12.511,0.354 12.708 " stroke="none" fill-rule="evenodd" fill="black"></path></svg>