<svg viewBox="0 0 24 24" xmlns="http://www.w3.org/2000/svg"><path d="M14.686 2.684 C 14.205 3.048,14.007 3.221,14.033 3.254 C 14.053 3.279,15.208 4.830,16.600 6.700 C 17.993 8.570,19.162 10.139,19.198 10.186 C 19.265 10.271,19.268 10.269,19.942 9.754 C 20.315 9.469,20.618 9.213,20.616 9.186 C 20.611 9.133,15.435 2.163,15.398 2.161 C 15.386 2.161,15.065 2.396,14.686 2.684 M11.641 5.594 C 11.345 5.943,11.100 6.245,11.094 6.264 C 11.082 6.313,17.835 11.928,17.876 11.903 C 17.893 11.892,18.153 11.595,18.453 11.244 L 18.998 10.605 15.611 7.782 C 13.748 6.230,12.214 4.960,12.201 4.960 C 12.188 4.960,11.936 5.246,11.641 5.594 M9.168 9.394 C 8.970 9.826,8.820 10.192,8.834 10.208 C 8.903 10.281,16.774 13.921,16.803 13.893 C 16.848 13.847,17.528 12.355,17.511 12.338 C 17.499 12.326,10.548 9.076,9.814 8.740 L 9.529 8.608 9.168 9.394 M7.902 12.846 C 7.862 13.018,7.596 14.730,7.608 14.738 C 7.635 14.756,16.612 16.041,16.625 16.028 C 16.640 16.014,16.761 14.465,16.748 14.458 C 16.743 14.455,14.787 14.079,12.400 13.620 C 10.013 13.162,8.029 12.779,7.992 12.769 C 7.945 12.757,7.917 12.782,7.902 12.846 M4.000 18.340 L 4.000 22.000 12.000 22.000 L 20.000 22.000 20.000 18.340 L 20.000 14.680 19.000 14.680 L 18.000 14.680 18.000 17.340 L 18.000 20.000 12.000 20.000 L 6.000 20.000 6.000 17.340 L 6.000 14.680 5.000 14.680 L 4.000 14.680 4.000 18.340 M7.320 17.680 L 7.320 18.680 11.990 18.670 L 16.660 18.660 16.671 17.670 L 16.681 16.680 12.001 16.680 L 7.320 16.680 7.320 17.680 " stroke="none" fill-rule="evenodd" fill="black"></path></svg>