<svg viewBox="0 0 24 24" xmlns="http://www.w3.org/2000/svg"><path d="M16.360 4.044 C 14.865 4.237,13.497 5.135,12.708 6.440 C 12.266 7.173,12.045 7.946,12.014 8.880 L 11.993 9.500 10.993 11.005 L 9.994 12.510 9.387 12.531 C 8.672 12.554,8.329 12.633,7.774 12.901 C 7.227 13.165,6.714 13.571,6.373 14.012 L 6.286 14.123 4.402 13.362 C 3.366 12.943,2.503 12.600,2.484 12.600 C 2.466 12.600,2.285 13.008,2.082 13.506 C 1.795 14.211,1.726 14.419,1.767 14.444 C 1.796 14.463,2.651 14.813,3.666 15.222 L 5.513 15.967 5.513 16.473 C 5.514 17.037,5.572 17.371,5.757 17.877 C 6.200 19.091,7.124 19.946,8.429 20.348 C 8.755 20.449,8.831 20.456,9.500 20.456 C 10.171 20.456,10.245 20.449,10.580 20.347 C 11.703 20.005,12.585 19.269,13.078 18.262 C 13.400 17.605,13.540 16.915,13.492 16.216 L 13.470 15.897 14.786 14.911 L 16.102 13.924 16.401 13.966 C 16.784 14.020,17.569 13.988,17.980 13.901 C 19.468 13.587,20.715 12.657,21.402 11.347 C 21.639 10.895,21.761 10.573,21.882 10.080 C 22.005 9.580,22.019 8.562,21.909 8.052 C 21.763 7.372,21.500 6.744,21.128 6.180 C 20.880 5.805,20.214 5.141,19.824 4.880 C 18.791 4.191,17.547 3.890,16.360 4.044 M17.756 6.097 C 18.093 6.189,18.595 6.447,18.873 6.671 C 19.554 7.219,20.000 8.140,20.000 9.000 C 20.000 10.170,19.225 11.329,18.151 11.766 C 16.642 12.380,14.989 11.734,14.298 10.260 C 14.072 9.779,14.021 9.546,14.021 9.000 C 14.021 8.454,14.072 8.221,14.298 7.740 C 14.716 6.848,15.537 6.215,16.503 6.040 C 16.770 5.991,17.491 6.024,17.756 6.097 M16.580 7.047 C 15.859 7.185,15.199 7.848,15.044 8.592 C 14.789 9.816,15.751 11.000,17.000 11.000 C 18.080 11.000,19.000 10.080,19.000 9.000 C 19.000 8.477,18.790 7.983,18.404 7.596 C 17.913 7.106,17.277 6.914,16.580 7.047 M13.060 12.067 C 13.148 12.190,13.389 12.451,13.597 12.647 C 13.916 12.949,13.965 13.012,13.917 13.057 C 13.815 13.151,12.720 13.962,12.667 13.983 C 12.639 13.994,12.557 13.930,12.486 13.841 C 12.414 13.752,12.251 13.592,12.122 13.485 L 11.889 13.291 12.368 12.565 C 12.632 12.166,12.860 11.841,12.874 11.842 C 12.888 11.843,12.972 11.944,13.060 12.067 M10.043 14.584 C 10.526 14.728,10.902 15.006,11.168 15.417 C 11.380 15.745,11.480 16.092,11.480 16.500 C 11.480 18.001,9.922 18.952,8.580 18.270 C 8.136 18.045,7.751 17.580,7.599 17.087 C 7.555 16.944,7.526 16.821,7.534 16.813 C 7.542 16.804,7.942 16.953,8.422 17.144 C 9.132 17.426,9.333 17.490,9.500 17.489 C 10.060 17.484,10.480 17.060,10.480 16.500 C 10.480 16.190,10.336 15.881,10.117 15.722 C 10.033 15.662,9.594 15.462,9.142 15.278 C 8.689 15.094,8.325 14.925,8.333 14.902 C 8.354 14.836,8.636 14.687,8.900 14.602 C 9.206 14.503,9.741 14.495,10.043 14.584 " stroke="none" fill-rule="evenodd" fill="black"></path></svg>