<svg viewBox="0 0 24 24" xmlns="http://www.w3.org/2000/svg"><path d="M6.980 3.045 C 6.080 3.157,5.129 3.615,4.436 4.270 C 3.700 4.964,3.183 5.968,3.043 6.977 C 2.984 7.404,2.984 16.596,3.043 17.023 C 3.283 18.749,4.490 20.203,6.143 20.757 C 6.842 20.991,6.976 21.000,9.605 21.000 L 12.000 21.000 12.000 12.000 L 12.000 3.000 9.630 3.005 C 8.326 3.008,7.134 3.026,6.980 3.045 M14.000 12.000 L 14.000 21.000 15.395 21.000 C 16.933 21.000,17.212 20.972,17.857 20.757 C 19.480 20.213,20.641 18.848,20.940 17.132 C 21.030 16.620,21.030 7.380,20.940 6.868 C 20.631 5.093,19.379 3.679,17.680 3.187 C 17.152 3.034,16.723 3.000,15.310 3.000 L 14.000 3.000 14.000 12.000 M10.000 12.000 L 10.000 19.000 8.670 18.999 C 7.147 18.999,6.974 18.977,6.440 18.715 C 5.826 18.414,5.311 17.796,5.095 17.100 C 5.024 16.871,5.020 16.628,5.020 12.000 C 5.020 7.372,5.024 7.129,5.095 6.900 C 5.397 5.925,6.273 5.153,7.220 5.028 C 7.286 5.019,7.939 5.009,8.670 5.006 L 10.000 5.000 10.000 12.000 M7.150 7.041 C 6.727 7.148,6.324 7.488,6.132 7.900 C 6.035 8.107,6.020 8.190,6.020 8.500 C 6.020 8.811,6.035 8.894,6.133 9.104 C 6.276 9.413,6.585 9.721,6.900 9.868 C 7.107 9.965,7.190 9.980,7.500 9.980 C 7.820 9.980,7.889 9.966,8.120 9.856 C 8.450 9.699,8.699 9.450,8.856 9.120 C 8.966 8.889,8.980 8.820,8.980 8.500 C 8.980 8.180,8.966 8.111,8.856 7.880 C 8.610 7.367,8.142 7.048,7.592 7.019 C 7.431 7.010,7.232 7.020,7.150 7.041 M17.762 11.285 C 18.875 11.814,19.145 13.252,18.297 14.136 C 17.952 14.497,17.529 14.683,17.040 14.689 C 16.330 14.698,15.703 14.321,15.398 13.702 C 14.904 12.698,15.410 11.535,16.500 11.174 C 16.601 11.141,16.808 11.125,17.060 11.131 C 17.425 11.141,17.486 11.154,17.762 11.285 " stroke="none" fill-rule="evenodd" fill="black"></path></svg>