<svg viewBox="0 0 24 24" xmlns="http://www.w3.org/2000/svg"><path d="M11.120 2.039 C 8.629 2.288,6.405 3.366,4.741 5.129 C 0.377 9.753,1.365 17.197,6.784 20.529 C 9.757 22.357,13.506 22.485,16.623 20.863 C 18.170 20.058,19.526 18.804,20.496 17.280 C 20.776 16.841,21.249 15.849,21.434 15.315 C 21.836 14.152,21.978 13.285,21.978 12.000 C 21.978 10.715,21.836 9.848,21.434 8.685 C 21.249 8.151,20.776 7.159,20.496 6.720 C 19.915 5.807,18.965 4.745,18.200 4.154 C 16.755 3.037,15.204 2.374,13.400 2.101 C 12.904 2.026,11.603 1.991,11.120 2.039 M12.740 4.041 C 15.159 4.268,17.352 5.587,18.691 7.620 C 20.226 9.949,20.414 12.987,19.179 15.508 C 18.384 17.133,17.095 18.416,15.471 19.200 C 13.270 20.264,10.730 20.264,8.529 19.200 C 6.300 18.124,4.677 16.053,4.178 13.648 C 3.640 11.053,4.397 8.393,6.217 6.489 C 7.919 4.708,10.304 3.813,12.740 4.041 M16.360 7.788 C 15.414 8.134,6.409 11.636,6.292 11.704 C 5.986 11.881,5.927 12.055,6.110 12.234 C 6.198 12.319,6.491 12.425,7.564 12.758 L 8.908 13.174 9.337 14.597 C 9.573 15.380,9.795 16.081,9.830 16.155 C 9.916 16.336,10.095 16.411,10.304 16.354 C 10.421 16.321,10.597 16.176,11.039 15.745 C 11.359 15.434,11.668 15.137,11.728 15.085 L 11.835 14.991 13.068 15.904 C 13.745 16.407,14.381 16.860,14.480 16.912 C 14.828 17.093,15.147 16.942,15.260 16.541 C 15.371 16.149,17.000 8.391,17.000 8.255 C 17.000 8.074,16.907 7.857,16.806 7.803 C 16.722 7.758,16.465 7.750,16.360 7.788 " stroke="none" fill-rule="evenodd" fill="black"></path></svg>