<svg viewBox="0 0 24 24" xmlns="http://www.w3.org/2000/svg"><path d="M11.120 2.039 C 8.629 2.288,6.405 3.366,4.741 5.129 C 0.377 9.753,1.365 17.197,6.784 20.529 C 9.757 22.357,13.506 22.485,16.623 20.863 C 18.170 20.058,19.526 18.804,20.496 17.280 C 20.776 16.841,21.249 15.849,21.434 15.315 C 21.836 14.152,21.978 13.285,21.978 12.000 C 21.978 10.715,21.836 9.848,21.434 8.685 C 21.249 8.151,20.776 7.159,20.496 6.720 C 19.915 5.807,18.965 4.745,18.200 4.154 C 16.755 3.037,15.204 2.374,13.400 2.101 C 12.904 2.026,11.603 1.991,11.120 2.039 M16.828 7.820 C 16.945 7.902,17.014 8.134,16.988 8.356 C 16.961 8.575,15.296 16.445,15.238 16.623 C 15.133 16.948,14.796 17.076,14.480 16.912 C 14.381 16.861,13.745 16.407,13.067 15.904 L 11.835 14.990 11.707 15.105 C 11.637 15.168,11.327 15.466,11.019 15.766 C 10.401 16.366,10.265 16.445,10.022 16.343 C 9.851 16.272,9.812 16.172,9.319 14.537 L 8.908 13.175 7.584 12.763 C 6.856 12.536,6.211 12.315,6.150 12.273 C 5.922 12.111,5.977 11.886,6.290 11.705 C 6.408 11.637,15.182 8.224,16.360 7.789 C 16.481 7.744,16.745 7.762,16.828 7.820 " stroke="none" fill-rule="evenodd" fill="black"></path></svg>