<svg viewBox="0 0 24 24" xmlns="http://www.w3.org/2000/svg"><path d="M4.773 3.060 C 4.001 3.228,3.375 3.791,3.112 4.552 L 3.020 4.820 3.020 12.000 L 3.020 19.180 3.112 19.448 C 3.344 20.116,3.884 20.656,4.552 20.888 L 4.820 20.980 12.000 20.980 L 19.180 20.980 19.448 20.888 C 20.116 20.656,20.656 20.116,20.888 19.448 L 20.980 19.180 20.980 12.000 L 20.980 4.820 20.888 4.552 C 20.657 3.884,20.107 3.335,19.443 3.109 L 19.180 3.020 12.100 3.013 C 6.279 3.007,4.976 3.015,4.773 3.060 M10.231 5.463 C 10.455 5.574,10.593 5.716,10.732 5.975 L 10.820 6.140 10.820 11.540 C 10.820 16.477,10.814 16.952,10.754 17.086 C 10.662 17.287,10.417 17.549,10.223 17.653 C 10.063 17.738,10.024 17.740,8.165 17.751 C 6.045 17.764,6.039 17.764,5.720 17.491 C 5.626 17.410,5.507 17.253,5.455 17.142 L 5.361 16.940 5.360 11.543 L 5.360 6.145 5.446 5.968 C 5.554 5.745,5.739 5.558,5.964 5.447 C 6.137 5.361,6.169 5.360,8.082 5.360 L 10.024 5.360 10.231 5.463 M18.024 5.436 C 18.234 5.532,18.468 5.766,18.564 5.976 C 18.634 6.131,18.638 6.304,18.639 9.291 C 18.640 12.745,18.652 12.561,18.399 12.881 C 18.329 12.969,18.178 13.084,18.048 13.148 L 17.820 13.260 15.920 13.260 C 14.076 13.260,14.015 13.258,13.840 13.176 C 13.572 13.052,13.417 12.902,13.292 12.648 L 13.180 12.420 13.180 9.300 C 13.180 6.218,13.181 6.178,13.264 6.000 C 13.385 5.738,13.534 5.580,13.769 5.463 L 13.976 5.360 15.918 5.361 C 17.726 5.362,17.871 5.367,18.024 5.436 " stroke="none" fill-rule="evenodd" fill="black"></path></svg>