<svg viewBox="0 0 24 24" xmlns="http://www.w3.org/2000/svg"><path d="M17.295 3.041 C 16.266 3.171,15.314 3.536,14.512 4.105 C 14.105 4.394,13.376 5.113,13.064 5.532 C 12.407 6.416,11.912 7.548,11.852 8.304 C 11.813 8.790,12.001 9.173,12.376 9.371 C 12.600 9.490,12.981 9.482,13.500 9.349 C 14.279 9.148,14.445 9.154,14.521 9.383 C 14.712 9.962,14.086 11.282,12.750 13.115 L 12.565 13.369 12.499 13.215 C 12.132 12.352,11.836 10.954,11.403 8.038 C 11.238 6.926,11.124 6.403,10.916 5.814 C 10.470 4.550,9.708 3.679,8.803 3.398 C 7.370 2.953,5.446 3.788,3.231 5.815 C 2.469 6.512,0.949 8.122,0.873 8.312 C 0.810 8.470,0.841 8.668,0.958 8.843 C 1.311 9.372,2.277 10.664,2.373 10.736 C 2.446 10.790,2.545 10.820,2.653 10.820 C 2.802 10.820,2.894 10.768,3.491 10.348 C 3.860 10.089,4.187 9.867,4.218 9.855 C 4.293 9.826,4.570 10.306,4.786 10.840 C 4.999 11.368,5.325 12.564,5.662 14.060 C 6.176 16.337,6.545 17.511,7.122 18.700 C 7.686 19.862,8.462 20.767,9.224 21.152 C 9.690 21.387,10.007 21.460,10.560 21.459 C 11.758 21.456,12.971 20.934,14.382 19.813 C 15.287 19.094,16.665 17.622,17.725 16.240 C 18.832 14.798,20.176 12.798,20.709 11.800 C 21.208 10.866,21.668 9.632,21.866 8.698 C 21.963 8.243,21.976 8.090,21.978 7.440 C 21.980 6.615,21.919 6.172,21.713 5.540 C 21.285 4.224,20.342 3.383,18.978 3.101 C 18.599 3.022,17.694 2.990,17.295 3.041 M18.511 5.041 C 19.050 5.129,19.450 5.409,19.691 5.868 C 19.932 6.328,19.978 6.566,19.979 7.360 C 19.980 8.025,19.973 8.086,19.846 8.580 C 19.530 9.811,18.822 11.276,17.837 12.740 C 16.626 14.539,15.448 16.024,14.301 17.193 C 13.015 18.506,12.062 19.177,11.159 19.405 C 10.225 19.641,9.600 19.214,8.940 17.887 C 8.500 17.001,8.208 16.056,7.542 13.355 C 7.291 12.335,7.021 11.275,6.942 11.000 C 6.330 8.863,5.567 7.888,4.448 7.810 L 4.155 7.789 4.268 7.671 C 4.437 7.492,5.340 6.688,5.680 6.414 C 6.594 5.675,7.394 5.280,7.974 5.280 C 8.196 5.280,8.459 5.446,8.680 5.725 C 9.052 6.196,9.144 6.499,9.378 8.040 C 9.989 12.070,10.247 13.198,10.810 14.295 C 11.439 15.521,12.215 15.903,13.140 15.443 C 13.594 15.216,13.878 14.940,14.440 14.176 C 15.422 12.840,15.995 11.840,16.275 10.977 C 16.635 9.864,16.593 8.835,16.160 8.159 C 15.836 7.655,15.111 7.240,14.554 7.240 C 14.472 7.240,14.395 7.225,14.384 7.207 C 14.328 7.117,14.934 6.362,15.379 5.967 C 16.186 5.250,17.466 4.872,18.511 5.041 " stroke="none" fill-rule="evenodd" fill="black"></path></svg>