<svg viewBox="0 0 24 24" xmlns="http://www.w3.org/2000/svg"><path d="M1.095 3.169 C 1.150 3.263,3.617 7.525,6.578 12.640 C 9.539 17.755,11.979 21.940,12.000 21.940 C 12.021 21.940,14.503 17.683,17.514 12.480 L 22.990 3.020 21.845 3.009 C 20.856 3.000,20.694 3.007,20.655 3.060 C 20.631 3.093,18.678 6.460,16.316 10.540 C 13.954 14.621,12.012 17.960,12.000 17.960 C 11.989 17.960,10.033 14.598,7.655 10.490 L 3.331 3.020 2.163 3.009 L 0.996 2.999 1.095 3.169 M5.367 3.036 C 5.399 3.122,11.982 14.478,12.000 14.478 C 12.018 14.478,18.601 3.122,18.633 3.036 C 18.641 3.015,18.156 3.000,17.493 3.000 L 16.340 3.000 14.180 6.738 C 12.992 8.794,12.011 10.477,12.000 10.477 C 11.989 10.477,11.008 8.794,9.820 6.738 L 7.660 3.000 6.507 3.000 C 5.844 3.000,5.359 3.015,5.367 3.036 " stroke="none" fill-rule="evenodd" fill="black"></path></svg>