<svg viewBox="0 0 24 24" xmlns="http://www.w3.org/2000/svg"><path d="M3.530 3.061 C 3.171 3.139,2.900 3.298,2.579 3.619 C 1.976 4.223,1.681 5.186,1.616 6.760 C 1.506 9.479,2.479 14.393,3.787 17.720 C 4.481 19.484,5.148 20.493,5.850 20.838 C 6.436 21.126,7.228 21.009,7.968 20.525 C 8.998 19.851,10.005 18.560,11.348 16.191 C 11.626 15.701,11.885 15.247,11.924 15.182 L 11.994 15.064 12.060 15.182 C 12.095 15.247,12.323 15.660,12.565 16.100 C 13.643 18.059,14.338 19.062,15.185 19.882 C 15.805 20.482,16.267 20.760,16.920 20.925 C 18.058 21.213,18.848 20.637,19.698 18.900 C 21.191 15.852,22.511 9.898,22.386 6.779 C 22.323 5.193,22.027 4.225,21.421 3.619 C 21.094 3.292,20.829 3.139,20.451 3.059 C 20.104 2.985,19.893 2.986,19.463 3.061 C 17.771 3.356,15.876 5.168,13.452 8.808 C 13.082 9.365,12.608 10.095,12.400 10.430 C 12.191 10.765,12.011 11.040,12.000 11.040 C 11.989 11.040,11.809 10.765,11.600 10.430 C 10.525 8.699,9.221 6.854,8.339 5.818 C 6.537 3.699,4.903 2.762,3.530 3.061 M4.372 5.080 C 4.907 5.246,5.715 5.880,6.485 6.738 C 7.569 7.947,8.715 9.569,10.286 12.115 L 10.838 13.009 10.743 13.175 C 10.691 13.266,10.383 13.815,10.060 14.396 C 8.540 17.124,7.610 18.420,6.845 18.870 L 6.670 18.973 6.595 18.877 C 6.451 18.692,6.119 18.089,5.935 17.676 C 4.563 14.592,3.450 9.199,3.638 6.547 C 3.705 5.608,3.871 5.000,4.061 5.000 C 4.089 5.000,4.229 5.036,4.372 5.080 M20.109 5.200 C 20.401 5.792,20.460 7.351,20.258 9.160 C 19.985 11.612,19.193 14.853,18.334 17.037 C 17.988 17.915,17.437 18.960,17.319 18.960 C 17.232 18.960,16.958 18.795,16.729 18.605 C 16.040 18.031,15.184 16.755,13.961 14.480 C 13.648 13.897,13.340 13.328,13.276 13.215 L 13.160 13.011 13.713 12.115 C 16.141 8.176,17.842 6.057,19.212 5.262 C 19.434 5.133,19.823 4.999,19.940 5.011 C 19.991 5.017,20.053 5.086,20.109 5.200 " stroke="none" fill-rule="evenodd" fill="black"></path></svg>