<svg viewBox="0 0 24 24" xmlns="http://www.w3.org/2000/svg"><path d="M11.220 3.624 C 8.433 3.844,6.029 4.884,4.300 6.618 C 3.127 7.794,2.377 9.197,2.095 10.740 C 1.983 11.355,1.993 12.548,2.115 13.160 C 2.490 15.041,3.574 16.735,5.208 17.992 C 5.629 18.315,5.720 18.446,5.720 18.726 C 5.720 18.902,5.443 20.005,5.258 20.564 C 5.180 20.800,5.166 20.891,5.197 20.972 C 5.251 21.115,5.415 21.215,5.550 21.188 C 5.611 21.176,6.182 20.865,6.820 20.497 C 7.458 20.129,8.059 19.803,8.156 19.774 C 8.405 19.698,8.569 19.707,8.972 19.818 C 9.485 19.960,10.068 20.071,10.660 20.140 C 11.337 20.218,12.666 20.218,13.338 20.140 C 16.567 19.762,19.317 18.161,20.861 15.760 C 21.314 15.055,21.706 14.061,21.886 13.160 C 22.007 12.548,22.017 11.355,21.905 10.740 C 21.447 8.231,19.728 6.086,17.135 4.788 C 16.022 4.231,14.825 3.871,13.520 3.701 C 13.039 3.638,11.635 3.592,11.220 3.624 M9.180 8.054 C 9.578 8.240,9.796 8.503,9.905 8.928 C 10.018 9.368,9.910 9.763,9.581 10.114 C 8.995 10.742,7.958 10.600,7.542 9.836 C 7.393 9.562,7.355 9.115,7.456 8.811 C 7.578 8.445,7.869 8.146,8.228 8.018 C 8.481 7.927,8.946 7.945,9.180 8.054 M15.915 8.076 C 16.173 8.210,16.422 8.486,16.521 8.751 C 16.647 9.084,16.621 9.538,16.459 9.835 C 16.129 10.441,15.393 10.679,14.774 10.378 C 14.333 10.164,14.068 9.738,14.065 9.240 C 14.062 8.706,14.328 8.286,14.814 8.054 C 14.996 7.968,15.063 7.958,15.380 7.971 C 15.656 7.982,15.781 8.006,15.915 8.076 " stroke="none" fill-rule="evenodd" fill="black"></path></svg>