<svg viewBox="0 0 24 24" xmlns="http://www.w3.org/2000/svg"><path d="M10.980 3.547 C 10.892 3.555,10.562 3.597,10.246 3.642 C 7.991 3.959,5.863 4.985,4.357 6.480 C 3.178 7.651,2.456 8.957,2.138 10.495 C 1.585 13.179,2.818 16.210,5.174 17.958 C 5.820 18.436,5.820 18.442,5.464 19.777 C 5.319 20.323,5.200 20.813,5.200 20.866 C 5.200 20.920,5.246 21.010,5.303 21.067 C 5.473 21.236,5.595 21.189,6.780 20.500 C 7.374 20.155,7.929 19.837,8.013 19.794 C 8.232 19.682,8.539 19.692,9.101 19.832 C 11.317 20.382,13.545 20.297,15.700 19.582 C 18.254 18.734,20.277 17.053,21.284 14.940 C 22.212 12.992,22.235 10.754,21.348 8.820 C 21.083 8.244,20.924 7.990,20.846 8.020 C 20.810 8.034,18.197 9.533,15.041 11.350 C 11.884 13.168,9.230 14.680,9.142 14.711 C 8.939 14.781,8.684 14.718,8.524 14.558 C 8.402 14.436,6.520 10.344,6.520 10.200 C 6.520 10.096,6.591 9.957,6.677 9.891 C 6.839 9.766,6.942 9.821,8.168 10.678 C 9.180 11.385,9.401 11.523,9.587 11.565 C 9.754 11.602,9.849 11.604,9.974 11.570 C 10.065 11.545,12.336 10.541,15.020 9.338 C 17.704 8.135,19.959 7.125,20.032 7.094 L 20.164 7.037 20.000 6.849 C 19.738 6.550,19.140 6.020,18.640 5.645 C 17.114 4.501,15.362 3.804,13.440 3.579 C 12.987 3.525,11.458 3.506,10.980 3.547 " stroke="none" fill-rule="evenodd" fill="black"></path></svg>