<svg viewBox="0 0 24 24" xmlns="http://www.w3.org/2000/svg"><path d="M3.569 3.040 C 3.135 3.132,2.605 3.562,2.328 4.047 C 2.161 4.339,1.977 4.903,1.899 5.361 C 1.809 5.894,1.779 7.164,1.837 8.023 C 2.115 12.168,3.639 17.701,5.124 19.960 C 5.429 20.424,5.906 20.911,6.179 21.037 C 6.606 21.234,7.226 21.079,7.826 20.625 C 8.174 20.362,8.842 19.653,9.267 19.095 C 9.973 18.169,10.918 16.674,11.660 15.310 C 11.836 14.987,11.989 14.722,12.000 14.722 C 12.011 14.722,12.154 14.969,12.317 15.271 C 13.660 17.758,15.189 19.880,16.174 20.625 C 16.774 21.079,17.394 21.234,17.821 21.037 C 18.094 20.911,18.571 20.424,18.876 19.960 C 20.091 18.112,21.385 13.950,21.939 10.109 C 22.133 8.760,22.175 8.204,22.176 6.960 C 22.178 5.651,22.138 5.296,21.914 4.621 C 21.762 4.160,21.608 3.894,21.310 3.576 C 20.694 2.917,19.898 2.832,18.927 3.322 C 18.389 3.593,17.914 3.962,17.259 4.618 C 15.865 6.013,14.305 8.160,12.491 11.179 C 12.239 11.597,12.018 11.940,12.000 11.940 C 11.982 11.940,11.732 11.548,11.444 11.070 C 8.712 6.524,6.356 3.749,4.724 3.159 C 4.349 3.023,3.877 2.974,3.569 3.040 M4.455 4.416 C 5.880 5.113,8.320 8.223,10.835 12.547 L 11.281 13.315 10.914 14.007 C 10.178 15.396,9.266 16.917,8.640 17.800 C 7.750 19.056,6.823 19.956,6.521 19.860 C 6.381 19.816,6.163 19.483,5.839 18.820 C 4.640 16.367,3.580 12.331,3.175 8.680 C 3.074 7.774,3.073 6.001,3.173 5.472 C 3.258 5.024,3.458 4.570,3.649 4.391 C 3.766 4.282,3.797 4.273,4.002 4.288 C 4.139 4.298,4.316 4.348,4.455 4.416 M20.356 4.396 C 20.503 4.534,20.693 4.922,20.778 5.260 C 21.029 6.260,20.945 8.310,20.557 10.615 C 20.029 13.755,19.128 16.843,18.161 18.820 C 17.837 19.483,17.619 19.816,17.479 19.860 C 17.343 19.903,17.057 19.731,16.691 19.385 C 15.720 18.468,14.553 16.739,13.172 14.172 L 12.716 13.323 13.033 12.772 C 15.943 7.710,18.764 4.295,20.046 4.282 C 20.197 4.280,20.255 4.302,20.356 4.396 " stroke="none" fill-rule="evenodd" fill="black"></path></svg>