<svg viewBox="0 0 24 24" xmlns="http://www.w3.org/2000/svg"><path d="M16.460 3.023 C 15.644 3.137,15.504 3.182,15.284 3.403 C 14.854 3.832,14.917 4.574,15.411 4.907 C 15.690 5.095,15.901 5.127,16.380 5.053 C 18.409 4.742,20.343 6.006,20.867 7.986 C 21.003 8.499,21.020 9.350,20.905 9.878 C 20.823 10.256,20.836 10.479,20.956 10.710 C 21.058 10.908,21.263 11.100,21.458 11.182 C 21.655 11.264,22.017 11.267,22.205 11.189 C 22.401 11.107,22.630 10.897,22.724 10.712 C 22.933 10.302,23.056 9.076,22.963 8.320 C 22.644 5.708,20.738 3.644,18.160 3.119 C 17.758 3.037,16.761 2.981,16.460 3.023 M9.595 5.360 C 8.268 5.571,6.720 6.357,5.200 7.592 C 4.612 8.070,3.327 9.372,2.908 9.916 C 0.832 12.606,0.448 15.046,1.783 17.070 C 2.137 17.605,2.936 18.384,3.560 18.799 C 6.444 20.722,10.927 21.169,14.660 19.908 C 16.927 19.142,18.723 17.828,19.601 16.293 C 20.361 14.966,20.386 13.507,19.668 12.405 C 19.297 11.834,18.652 11.294,17.949 10.967 C 17.644 10.824,17.636 10.817,17.659 10.700 C 17.711 10.432,17.726 9.728,17.685 9.500 C 17.661 9.368,17.567 9.109,17.476 8.925 C 17.180 8.323,16.621 7.878,15.902 7.672 C 15.613 7.589,15.498 7.580,14.780 7.581 C 14.050 7.582,13.936 7.592,13.480 7.695 C 12.765 7.857,12.824 7.870,12.797 7.540 C 12.713 6.523,12.063 5.720,11.080 5.421 C 10.821 5.342,9.937 5.306,9.595 5.360 M10.703 7.452 C 10.786 7.549,10.800 7.606,10.800 7.854 C 10.800 8.035,10.763 8.287,10.701 8.522 C 10.528 9.180,10.587 9.551,10.917 9.880 C 11.153 10.115,11.354 10.207,11.679 10.230 C 11.976 10.251,12.107 10.220,12.960 9.924 C 13.713 9.663,14.256 9.554,14.821 9.551 C 15.303 9.548,15.589 9.629,15.677 9.794 C 15.755 9.940,15.723 10.231,15.580 10.657 C 15.360 11.316,15.395 11.670,15.724 12.085 C 15.884 12.288,16.095 12.408,16.548 12.556 C 18.049 13.047,18.539 13.966,17.939 15.168 C 17.500 16.049,16.614 16.831,15.320 17.480 C 12.351 18.970,8.255 18.998,5.378 17.549 C 4.618 17.166,3.716 16.399,3.406 15.871 C 2.947 15.089,2.891 14.354,3.218 13.377 C 3.774 11.717,5.455 9.746,7.434 8.434 C 8.316 7.849,9.016 7.535,9.860 7.344 C 9.904 7.334,10.090 7.329,10.273 7.333 C 10.585 7.340,10.613 7.347,10.703 7.452 " stroke="none" fill-rule="evenodd" fill="black"></path></svg>