<svg viewBox="0 0 24 24" xmlns="http://www.w3.org/2000/svg"><path d="M11.120 2.039 C 8.629 2.288,6.405 3.366,4.741 5.129 C 1.861 8.181,1.182 12.687,3.040 16.428 L 3.350 17.052 2.679 19.516 C 2.310 20.871,2.012 21.984,2.016 21.988 C 2.020 21.992,3.132 21.693,4.487 21.324 L 6.951 20.651 7.573 20.960 C 8.854 21.596,10.191 21.934,11.640 21.987 C 14.017 22.074,16.267 21.340,18.200 19.847 C 18.962 19.258,19.915 18.193,20.496 17.280 C 20.776 16.841,21.249 15.849,21.434 15.315 C 21.836 14.152,21.978 13.285,21.978 12.000 C 21.978 10.715,21.836 9.848,21.434 8.685 C 21.249 8.151,20.776 7.159,20.496 6.720 C 19.915 5.807,18.965 4.745,18.200 4.154 C 16.755 3.037,15.204 2.374,13.400 2.101 C 12.904 2.026,11.603 1.991,11.120 2.039 M9.161 7.394 C 9.290 7.462,9.333 7.543,9.773 8.564 C 10.325 9.844,10.323 9.834,10.030 10.272 C 9.931 10.419,9.758 10.645,9.645 10.772 C 9.506 10.930,9.440 11.039,9.440 11.113 C 9.440 11.230,9.697 11.669,9.994 12.060 C 10.228 12.369,10.990 13.131,11.301 13.367 C 11.864 13.796,12.810 14.279,13.086 14.280 C 13.265 14.280,13.293 14.255,13.776 13.676 C 13.989 13.421,14.206 13.189,14.259 13.161 C 14.465 13.050,14.629 13.096,15.680 13.562 C 16.241 13.810,16.741 14.049,16.790 14.094 C 16.867 14.162,16.880 14.214,16.880 14.449 C 16.880 15.249,16.581 15.750,15.849 16.178 C 15.312 16.492,14.704 16.598,14.016 16.497 C 13.166 16.372,11.777 15.786,10.847 15.160 C 9.394 14.181,8.036 12.659,7.335 11.222 C 6.996 10.527,6.903 10.133,6.928 9.490 C 6.957 8.768,7.165 8.261,7.651 7.737 C 7.979 7.383,8.125 7.320,8.621 7.320 C 8.932 7.320,9.052 7.336,9.161 7.394 " stroke="none" fill-rule="evenodd" fill="black"></path></svg>