<svg viewBox="0 0 24 24" xmlns="http://www.w3.org/2000/svg"><path d="M11.120 2.039 C 8.641 2.287,6.414 3.362,4.761 5.107 C 1.806 8.228,1.158 12.819,3.137 16.623 C 3.620 17.552,4.164 18.288,4.938 19.061 C 5.930 20.051,7.038 20.789,8.272 21.278 C 11.634 22.610,15.313 22.080,18.200 19.845 C 18.637 19.507,19.507 18.637,19.845 18.200 C 21.256 16.378,22.000 14.236,22.000 12.000 C 22.000 7.432,18.842 3.387,14.430 2.303 C 13.446 2.062,12.028 1.948,11.120 2.039 M12.740 4.042 C 13.721 4.134,14.689 4.409,15.538 4.836 C 16.019 5.078,16.840 5.584,16.840 5.638 C 16.840 5.651,16.741 5.721,16.620 5.793 C 15.961 6.187,15.603 6.887,15.653 7.687 C 15.686 8.226,15.814 8.622,16.192 9.358 C 16.378 9.720,16.572 10.138,16.622 10.286 C 16.831 10.902,16.845 11.599,16.663 12.400 C 16.570 12.814,15.619 16.091,15.563 16.192 C 15.547 16.222,14.976 14.692,14.235 12.632 L 12.936 9.020 13.288 9.008 L 13.640 8.997 13.640 7.998 L 13.640 7.000 11.140 7.000 L 8.640 7.000 8.640 7.999 L 8.640 8.999 9.725 9.009 L 10.809 9.020 11.084 9.780 C 11.235 10.198,11.359 10.564,11.359 10.593 C 11.360 10.655,9.200 16.845,9.162 16.890 C 9.148 16.906,8.528 15.161,7.784 13.012 C 7.040 10.863,6.423 9.082,6.412 9.053 C 6.396 9.011,6.475 9.000,6.776 9.000 L 7.160 9.000 7.160 8.001 L 7.160 7.002 6.458 6.991 L 5.756 6.980 6.108 6.603 C 7.190 5.443,8.480 4.659,9.936 4.277 C 10.879 4.030,11.799 3.953,12.740 4.042 M19.678 9.771 C 20.254 11.782,20.033 13.907,19.058 15.752 C 18.654 16.516,18.189 17.129,17.538 17.756 C 17.304 17.981,17.107 18.160,17.100 18.153 C 17.093 18.146,17.418 17.015,17.824 15.640 C 18.637 12.883,18.921 11.791,19.244 10.188 C 19.489 8.974,19.458 9.003,19.678 9.771 M5.961 13.863 C 6.798 16.281,7.518 18.355,7.561 18.470 C 7.604 18.585,7.626 18.680,7.609 18.680 C 7.537 18.680,6.824 18.107,6.465 17.761 C 4.308 15.679,3.494 12.619,4.329 9.730 C 4.375 9.570,4.418 9.445,4.426 9.452 C 4.433 9.460,5.124 11.444,5.961 13.863 M13.580 16.720 C 14.125 18.227,14.572 19.486,14.575 19.517 C 14.581 19.587,14.273 19.689,13.660 19.820 C 12.979 19.966,12.450 20.013,11.760 19.990 C 11.254 19.973,10.345 19.866,10.286 19.817 C 10.275 19.808,12.281 14.037,12.426 13.659 C 12.448 13.601,12.469 13.628,12.523 13.783 C 12.560 13.891,13.036 15.213,13.580 16.720 " stroke="none" fill-rule="evenodd" fill="black"></path></svg>