<svg viewBox="0 0 24 24" xmlns="http://www.w3.org/2000/svg"><path d="M17.908 3.890 C 16.374 6.508,11.518 14.974,11.527 15.013 C 11.534 15.042,12.440 16.625,13.540 18.532 L 15.540 21.998 16.690 21.999 C 17.323 22.000,17.840 21.993,17.840 21.983 C 17.840 21.974,16.940 20.408,15.839 18.502 C 14.739 16.596,13.835 15.024,13.829 15.007 C 13.822 14.984,17.507 8.574,20.106 4.090 L 20.436 3.520 19.280 3.520 L 18.125 3.520 17.908 3.890 M6.072 7.130 C 6.336 7.563,8.400 11.168,8.400 11.195 C 8.400 11.213,7.731 12.386,6.914 13.802 C 6.097 15.219,5.420 16.410,5.409 16.449 C 5.392 16.516,5.457 16.520,6.509 16.520 C 7.525 16.520,7.633 16.514,7.687 16.450 C 7.792 16.326,10.696 11.263,10.698 11.201 C 10.699 11.167,10.163 10.209,9.506 9.070 L 8.312 7.000 7.153 7.000 L 5.993 7.000 6.072 7.130 " stroke="none" fill-rule="evenodd" fill="black"></path></svg>