<svg viewBox="0 0 24 24" xmlns="http://www.w3.org/2000/svg"><path d="M9.440 4.043 C 6.835 4.117,5.030 4.283,4.280 4.517 C 3.714 4.693,3.092 5.193,2.784 5.719 C 2.261 6.612,2.021 8.583,2.021 12.000 C 2.021 14.641,2.180 16.554,2.484 17.580 C 2.679 18.235,3.083 18.795,3.619 19.154 C 4.139 19.502,4.620 19.629,5.898 19.758 C 10.101 20.183,18.104 20.021,19.745 19.478 C 20.616 19.190,21.307 18.410,21.557 17.433 C 21.811 16.440,22.000 14.122,22.000 12.000 C 22.000 9.881,21.811 7.567,21.557 6.567 C 21.309 5.590,20.619 4.811,19.745 4.522 C 18.576 4.136,13.873 3.917,9.440 4.043 M13.014 10.260 C 14.634 11.206,15.960 11.989,15.960 12.002 C 15.960 12.021,10.127 15.439,10.036 15.473 C 10.015 15.481,10.000 14.021,10.000 12.000 C 10.000 10.082,10.015 8.519,10.034 8.527 C 10.052 8.534,11.393 9.314,13.014 10.260 " stroke="none" fill-rule="evenodd" fill="black"></path></svg>