<svg viewBox="0 0 24 24" xmlns="http://www.w3.org/2000/svg"><path d="M11.902 2.679 C 11.569 2.852,11.400 3.122,11.400 3.483 C 11.400 3.742,11.498 3.964,11.917 4.656 C 12.510 5.636,12.621 5.938,12.591 6.498 C 12.580 6.697,12.542 6.928,12.507 7.011 C 12.368 7.340,11.833 8.081,10.824 9.340 C 9.300 11.244,7.977 12.775,4.899 16.200 C 1.148 20.374,1.380 20.079,1.380 20.680 C 1.380 20.982,1.393 21.044,1.498 21.234 C 1.674 21.551,1.954 21.784,2.275 21.880 C 2.564 21.966,3.591 22.121,4.540 22.221 C 5.367 22.309,7.394 22.343,8.190 22.283 C 10.788 22.087,12.940 21.395,14.680 20.195 C 14.945 20.012,15.053 19.960,15.169 19.960 C 15.441 19.960,16.209 19.836,16.657 19.720 C 19.260 19.047,21.189 17.393,21.915 15.210 C 22.283 14.107,22.340 12.770,22.076 11.460 C 21.966 10.914,21.811 10.469,21.475 9.728 C 21.250 9.233,21.186 9.048,21.170 8.852 C 21.128 8.342,21.350 7.939,22.102 7.160 C 22.678 6.563,22.746 6.445,22.707 6.117 C 22.673 5.831,22.545 5.614,22.330 5.477 C 22.115 5.341,21.972 5.296,21.580 5.238 C 21.426 5.216,21.261 5.189,21.213 5.179 C 21.161 5.167,21.036 5.030,20.898 4.830 C 20.209 3.838,19.091 3.122,17.830 2.864 C 17.159 2.726,15.764 2.645,13.600 2.617 C 12.105 2.597,12.055 2.599,11.902 2.679 M16.220 4.541 C 16.726 4.571,17.284 4.625,17.460 4.661 C 18.393 4.853,19.172 5.413,19.563 6.174 C 19.655 6.354,19.793 6.566,19.870 6.647 L 20.010 6.794 19.923 6.916 C 19.787 7.107,19.493 7.755,19.422 8.020 C 19.387 8.152,19.347 8.414,19.333 8.602 C 19.292 9.181,19.404 9.630,19.801 10.480 C 20.227 11.395,20.351 11.903,20.387 12.880 C 20.420 13.795,20.282 14.479,19.919 15.200 C 19.449 16.132,18.618 16.930,17.570 17.455 C 17.367 17.557,17.200 17.629,17.200 17.616 C 17.200 17.602,17.261 17.489,17.336 17.365 C 18.002 16.259,18.359 14.978,18.360 13.700 C 18.360 12.622,18.121 11.729,17.631 10.973 C 17.218 10.337,16.692 9.902,15.820 9.477 C 15.200 9.175,14.735 9.025,14.209 8.957 C 14.017 8.933,13.783 8.901,13.690 8.886 L 13.519 8.860 13.773 8.493 C 14.065 8.070,14.206 7.775,14.328 7.333 C 14.400 7.073,14.415 6.912,14.415 6.380 C 14.415 5.796,14.406 5.709,14.306 5.384 C 14.246 5.188,14.135 4.894,14.060 4.731 L 13.922 4.434 14.611 4.460 C 14.990 4.475,15.714 4.511,16.220 4.541 M14.291 10.837 C 14.663 10.933,15.179 11.169,15.509 11.392 C 16.469 12.045,16.780 13.350,16.362 14.971 C 15.905 16.745,14.514 18.337,12.569 19.315 C 10.850 20.180,8.512 20.591,5.963 20.477 C 5.194 20.443,4.041 20.340,3.829 20.287 C 3.720 20.260,3.794 20.172,6.329 17.277 C 9.580 13.564,10.948 12.013,11.259 11.685 C 11.733 11.184,12.357 10.859,13.060 10.746 C 13.300 10.707,13.987 10.758,14.291 10.837 " stroke="none" fill-rule="evenodd" fill="black"></path></svg>