<svg viewBox="0 0 24 24" xmlns="http://www.w3.org/2000/svg"><path d="M5.484 2.950 C 5.462 3.033,5.399 3.280,5.344 3.500 C 5.212 4.025,4.930 4.844,4.699 5.371 C 4.203 6.503,3.511 7.427,2.767 7.950 L 2.485 8.148 2.986 8.984 C 3.262 9.444,3.495 9.828,3.504 9.837 C 3.513 9.846,3.678 9.748,3.870 9.619 C 4.557 9.158,5.449 8.168,5.950 7.310 L 6.131 7.000 6.565 7.000 L 7.000 7.000 7.000 9.000 L 7.000 11.000 5.000 11.000 L 3.000 11.000 3.000 12.000 L 3.000 13.000 4.992 13.000 L 6.983 13.000 6.952 13.370 C 6.801 15.143,6.043 16.839,4.711 18.390 C 4.536 18.593,4.035 19.106,3.596 19.530 L 2.799 20.300 3.495 20.995 C 4.173 21.672,4.194 21.689,4.280 21.628 C 4.486 21.484,5.725 20.265,6.098 19.840 C 7.174 18.613,7.906 17.416,8.379 16.108 C 8.449 15.914,8.523 15.760,8.543 15.766 C 8.563 15.772,9.045 16.507,9.613 17.398 C 10.181 18.290,10.661 19.016,10.680 19.011 C 10.752 18.992,12.320 17.979,12.320 17.951 C 12.320 17.936,11.618 16.820,10.760 15.471 L 9.200 13.020 10.360 13.009 L 11.520 12.999 11.520 11.999 L 11.520 11.000 10.260 11.000 L 9.000 11.000 9.000 9.000 L 9.000 7.000 10.260 7.000 L 11.520 7.000 11.520 6.000 L 11.520 5.000 9.260 5.000 C 8.017 5.000,7.000 4.993,7.000 4.985 C 7.000 4.977,7.055 4.792,7.122 4.575 C 7.245 4.178,7.487 3.232,7.470 3.218 C 7.454 3.206,5.602 2.800,5.561 2.800 C 5.540 2.800,5.505 2.868,5.484 2.950 M13.000 12.000 L 13.000 19.000 13.750 19.000 L 14.501 19.000 15.000 20.000 L 15.500 21.000 16.750 20.000 L 17.999 19.000 19.500 19.000 L 21.000 19.000 21.000 12.000 L 21.000 5.000 17.000 5.000 L 13.000 5.000 13.000 12.000 M19.000 12.000 L 19.000 17.000 18.150 17.000 L 17.299 17.000 16.751 17.440 C 16.449 17.682,16.197 17.880,16.190 17.880 C 16.183 17.880,16.079 17.682,15.960 17.440 L 15.743 17.000 15.371 17.000 L 15.000 17.000 15.000 12.000 L 15.000 7.000 17.000 7.000 L 19.000 7.000 19.000 12.000 " stroke="none" fill-rule="evenodd" fill="black"></path></svg>