<svg fill="currentColor" viewBox="0 0 256 256" xmlns="http://www.w3.org/2000/svg"><path d="M187.947 32.237 C 187.477 32.346,186.084 32.639,184.849 32.889 C 180.233 33.823,174.651 36.684,170.857 40.061 C 169.906 40.907,163.010 48.096,155.533 56.036 C 144.700 67.539,141.758 70.436,141.049 70.296 C 140.560 70.198,121.824 63.431,99.413 55.256 C 72.561 45.461,57.928 40.328,56.501 40.203 C 54.880 40.061,53.915 40.232,52.661 40.882 C 51.714 41.373,45.299 47.466,37.902 54.902 C 26.436 66.426,24.756 68.282,24.329 69.902 C 23.764 72.044,24.043 73.781,25.326 76.114 C 26.113 77.544,30.775 80.800,58.832 99.517 L 91.424 121.260 84.010 128.683 L 76.596 136.107 65.374 136.107 C 55.129 136.107,54.015 136.178,52.570 136.928 C 51.699 137.380,45.099 143.668,37.904 150.902 C 26.701 162.164,24.743 164.319,24.279 165.904 C 23.327 169.149,25.003 173.298,27.874 174.802 C 28.618 175.191,37.462 178.809,47.527 182.841 L 65.828 190.172 73.228 208.686 C 77.298 218.869,80.871 227.664,81.167 228.232 C 81.995 229.816,84.766 231.607,86.880 231.924 C 90.593 232.480,91.229 231.993,105.688 217.497 C 113.004 210.161,119.194 203.620,119.442 202.959 C 119.717 202.226,119.893 197.400,119.893 190.581 L 119.893 179.404 127.318 171.988 L 134.743 164.572 156.489 197.187 C 168.450 215.126,178.731 230.127,179.337 230.524 C 179.942 230.921,181.295 231.474,182.342 231.755 C 186.252 232.800,186.491 232.626,201.325 217.883 C 208.742 210.511,214.969 203.975,215.299 203.214 C 215.626 202.459,215.893 201.047,215.893 200.077 C 215.893 198.826,211.539 186.343,200.891 157.077 C 192.640 134.397,185.808 115.440,185.709 114.951 C 185.564 114.240,188.429 111.331,199.964 100.477 C 207.904 93.005,215.323 85.821,216.450 84.513 C 218.861 81.714,220.603 78.793,221.846 75.464 C 228.590 57.401,218.718 38.307,199.893 33.002 C 197.744 32.396,189.531 31.871,187.947 32.237 M198.475 49.585 C 201.846 51.133,204.536 53.758,206.187 57.112 C 207.471 59.722,207.573 60.243,207.573 64.204 C 207.573 68.070,207.455 68.713,206.345 70.905 C 204.834 73.886,205.177 73.538,185.523 92.041 C 168.685 107.893,168.107 108.558,168.107 112.049 C 168.107 112.984,173.485 128.367,182.014 151.827 C 189.663 172.866,196.557 191.828,197.334 193.966 L 198.746 197.851 192.003 204.584 L 185.260 211.317 163.517 178.725 C 144.560 150.309,141.554 146.010,140.056 145.173 C 137.859 143.947,134.563 143.888,132.356 145.038 C 130.017 146.256,105.572 170.931,104.762 172.893 C 104.231 174.179,104.107 176.561,104.107 185.485 L 104.107 196.490 97.508 203.079 L 90.909 209.667 90.296 208.194 C 89.958 207.383,87.268 200.685,84.317 193.310 C 80.241 183.121,78.626 179.564,77.596 178.501 C 76.504 177.374,73.489 176.005,62.120 171.472 C 54.354 168.375,47.639 165.659,47.197 165.436 C 46.492 165.079,47.199 164.223,52.952 158.461 L 59.510 151.893 70.608 151.884 C 80.529 151.876,81.888 151.790,83.413 151.079 C 84.535 150.557,89.594 145.772,98.179 137.115 C 110.254 124.940,111.276 123.793,111.733 121.916 C 112.005 120.799,112.104 119.359,111.952 118.716 C 111.112 115.148,111.531 115.464,77.761 92.942 C 60.051 81.131,45.341 71.327,45.073 71.157 C 44.768 70.962,47.126 68.322,51.413 64.059 L 58.240 57.272 99.627 72.383 C 124.874 81.601,141.890 87.595,143.263 87.754 C 147.176 88.207,147.704 87.785,161.186 73.421 C 182.794 50.399,182.817 50.378,186.914 48.890 C 189.827 47.832,195.386 48.166,198.475 49.585 " stroke="none" fill-rule="evenodd"></path></svg>