<svg fill="currentColor" viewBox="0 0 256 256" xmlns="http://www.w3.org/2000/svg"><path d="M51.593 17.470 C 49.369 18.952,17.851 50.500,17.053 52.043 C 15.543 54.962,15.954 59.112,17.969 61.300 C 19.242 62.683,21.996 63.979,23.680 63.988 C 27.389 64.009,27.546 63.881,44.316 47.209 C 53.084 38.492,60.993 30.445,61.891 29.327 C 66.449 23.649,62.978 16.213,55.770 16.213 C 53.946 16.213,53.096 16.469,51.593 17.470 M196.198 17.076 C 191.668 19.470,190.709 25.091,194.109 29.327 C 195.007 30.445,202.916 38.492,211.684 47.209 C 228.454 63.881,228.611 64.009,232.320 63.988 C 234.243 63.978,236.975 62.566,238.212 60.945 C 240.414 58.058,240.465 54.332,238.347 51.279 C 236.675 48.869,205.199 17.686,203.648 16.903 C 201.782 15.961,198.150 16.045,196.198 17.076 M120.960 32.257 C 106.943 33.704,96.967 36.422,85.973 41.789 C 56.392 56.230,36.475 84.406,32.633 117.248 C 28.441 153.087,45.213 188.474,75.947 208.636 C 84.578 214.298,97.344 219.612,107.650 221.832 C 150.844 231.138,194.724 209.808,214.223 170.027 C 226.354 145.277,227.201 116.510,216.547 91.099 C 203.551 60.102,175.416 38.185,142.080 33.088 C 137.736 32.424,124.420 31.900,120.960 32.257 M143.147 49.474 C 175.407 55.943,200.093 80.631,206.522 112.853 C 207.838 119.450,208.149 131.821,207.175 138.795 C 203.413 165.721,186.543 188.710,162.022 200.326 C 131.672 214.703,95.326 208.356,71.485 184.515 C 60.240 173.270,52.662 158.988,49.422 142.933 C 48.553 138.629,48.431 136.795,48.431 128.000 C 48.431 119.205,48.553 117.371,49.422 113.067 C 56.432 78.333,83.996 52.763,119.040 48.482 C 119.861 48.382,124.565 48.352,129.493 48.416 C 136.686 48.509,139.379 48.718,143.147 49.474 M124.800 64.806 C 122.735 65.760,121.435 67.110,120.554 69.219 C 119.980 70.593,119.894 74.578,119.896 99.720 C 119.897 119.504,120.047 129.176,120.369 130.337 C 120.973 132.512,123.488 135.027,125.663 135.631 C 126.826 135.954,136.494 136.100,156.373 136.095 C 183.671 136.088,185.488 136.041,187.093 135.300 C 189.159 134.347,190.459 132.996,191.340 130.888 C 192.893 127.170,191.267 122.880,187.520 120.813 C 186.377 120.182,183.551 120.093,161.173 119.984 L 136.107 119.861 136.097 95.237 C 136.089 72.210,136.037 70.503,135.300 68.907 C 133.370 64.725,128.823 62.949,124.800 64.806 " stroke="none" fill-rule="evenodd"></path></svg>