<svg fill="currentColor" viewBox="0 0 256 256" xmlns="http://www.w3.org/2000/svg"><path d="M118.400 32.288 C 106.656 33.762,96.359 38.591,88.153 46.473 C 82.071 52.314,76.787 60.472,76.809 63.988 C 76.840 68.976,81.866 72.957,86.568 71.718 C 89.416 70.967,90.711 69.800,92.893 66.017 C 97.386 58.228,104.983 52.238,113.935 49.427 C 116.720 48.552,117.976 48.427,123.947 48.427 C 129.914 48.427,131.174 48.552,133.952 49.425 C 144.340 52.687,152.406 59.619,156.615 68.901 C 159.119 74.422,159.640 77.169,159.886 86.144 L 160.113 94.422 157.104 91.991 C 150.984 87.045,144.181 83.610,136.565 81.618 C 131.012 80.165,121.110 79.796,115.217 80.822 C 90.149 85.186,72.107 106.498,72.107 131.744 C 72.107 146.145,77.116 158.499,87.040 168.572 C 105.910 187.725,137.156 189.113,157.440 171.700 L 159.787 169.686 160.000 174.155 C 160.188 178.091,160.350 178.831,161.359 180.354 C 163.817 184.066,169.320 185.029,172.698 182.337 C 173.575 181.638,174.677 180.310,175.147 179.386 C 175.985 177.735,176.000 176.862,176.000 128.213 C 176.000 73.378,176.124 76.058,173.183 67.234 C 167.134 49.085,150.828 35.470,131.785 32.667 C 127.640 32.057,121.604 31.886,118.400 32.288 M133.178 97.225 C 143.222 99.842,151.475 106.678,156.353 116.422 C 158.891 121.490,159.694 125.162,159.728 131.840 C 159.763 138.696,159.112 141.706,156.346 147.479 C 148.178 164.523,128.555 172.317,110.926 165.518 C 100.069 161.331,91.363 151.175,88.864 139.780 C 87.874 135.268,88.002 127.377,89.134 123.116 C 92.758 109.474,103.628 99.332,117.547 96.604 C 121.518 95.825,128.939 96.120,133.178 97.225 M204.445 160.916 C 202.090 162.081,200.469 164.491,200.207 167.214 C 199.938 170.011,200.683 172.024,202.641 173.793 C 204.776 175.721,207.153 176.209,214.528 176.230 L 220.373 176.248 215.585 180.890 C 196.569 199.327,169.072 212.072,141.443 215.255 C 129.957 216.578,115.529 215.916,103.481 213.512 C 80.873 209.003,57.219 196.910,41.142 181.641 C 36.171 176.920,34.966 176.213,31.891 176.213 C 26.670 176.213,22.971 181.019,24.324 186.043 C 25.563 190.643,40.573 203.313,54.723 211.703 C 96.392 236.410,146.428 238.663,189.788 217.787 C 204.510 210.699,218.062 201.299,227.831 191.399 C 229.820 189.383,231.596 187.733,231.777 187.733 C 231.958 187.733,232.107 190.908,232.107 194.787 C 232.107 199.827,232.274 202.233,232.694 203.214 C 234.086 206.468,238.141 208.490,241.686 207.698 C 243.892 207.205,244.983 206.482,246.478 204.522 L 247.680 202.946 247.680 184.109 L 247.680 165.271 246.535 163.541 C 245.845 162.498,244.646 161.450,243.520 160.905 C 241.707 160.027,241.115 160.000,223.972 160.000 C 206.757 160.001,206.245 160.025,204.445 160.916 " stroke="none" fill-rule="evenodd"></path></svg>