<svg fill="currentColor" viewBox="0 0 256 256" xmlns="http://www.w3.org/2000/svg"><path d="M122.240 32.632 C 111.732 34.583,102.420 42.078,98.479 51.758 C 94.099 62.513,95.793 74.905,102.844 83.690 C 106.724 88.525,112.366 92.589,117.355 94.145 L 119.886 94.933 119.890 151.319 L 119.893 207.705 118.080 207.492 C 109.356 206.463,97.411 202.938,89.387 199.022 C 67.340 188.264,50.124 167.758,43.520 144.386 C 42.239 139.853,40.533 131.080,40.533 129.024 L 40.533 128.000 48.747 127.998 C 53.264 127.996,57.658 127.801,58.512 127.564 C 60.844 126.916,63.432 123.899,63.809 121.389 C 64.351 117.775,62.806 114.634,59.710 113.055 C 58.166 112.267,57.152 112.213,43.834 112.213 L 29.607 112.213 27.679 113.436 C 24.648 115.358,24.096 116.910,24.161 123.322 C 24.372 144.041,32.038 165.434,45.790 183.680 C 49.361 188.418,60.395 199.327,65.338 203.006 C 76.930 211.635,89.433 217.550,103.311 220.971 C 112.371 223.204,117.343 223.767,128.000 223.767 C 138.657 223.767,143.629 223.204,152.689 220.971 C 166.581 217.547,179.132 211.606,190.662 202.997 C 195.646 199.276,206.682 188.372,210.213 183.680 C 223.822 165.600,231.584 144.008,231.827 123.558 C 231.906 116.885,231.384 115.379,228.321 113.436 L 226.393 112.213 212.166 112.213 C 198.848 112.213,197.834 112.267,196.290 113.055 C 193.194 114.634,191.649 117.775,192.191 121.389 C 192.568 123.899,195.156 126.916,197.488 127.564 C 198.342 127.801,202.736 127.996,207.253 127.998 L 215.467 128.000 215.465 128.960 C 215.464 129.488,215.171 131.744,214.813 133.973 C 209.671 166.020,186.915 192.901,156.160 203.255 C 150.953 205.008,142.672 206.932,137.920 207.492 L 136.107 207.705 136.107 151.213 C 136.107 97.699,136.146 94.719,136.853 94.708 C 138.131 94.689,143.055 92.399,145.720 90.585 C 158.502 81.887,163.323 66.005,157.513 51.737 C 154.308 43.868,147.024 36.962,138.802 33.999 C 133.397 32.051,127.839 31.592,122.240 32.632 M134.897 49.618 C 137.730 51.004,141.333 54.670,142.637 57.493 C 143.413 59.172,143.573 60.288,143.573 64.000 C 143.573 68.011,143.452 68.727,142.414 70.841 C 139.319 77.143,132.295 80.868,125.568 79.773 C 120.534 78.953,115.860 75.480,113.613 70.887 C 112.145 67.886,111.783 62.712,112.797 59.223 C 114.075 54.828,118.155 50.562,122.597 48.978 C 125.964 47.777,131.750 48.078,134.897 49.618 " stroke="none" fill-rule="evenodd"></path></svg>