<svg fill="currentColor" viewBox="0 0 256 256" xmlns="http://www.w3.org/2000/svg"><path d="M27.679 49.436 C 25.675 50.707,24.445 52.658,24.028 55.229 C 23.507 58.438,24.101 59.199,38.086 73.246 L 51.326 86.544 47.203 90.979 C 32.012 107.314,22.365 126.006,18.184 147.200 C 16.342 156.537,16.041 160.892,16.020 178.560 C 16.001 194.690,16.028 195.269,16.928 197.463 C 18.719 201.833,22.167 205.281,26.537 207.072 L 28.800 208.000 128.000 208.000 L 227.200 208.000 229.463 207.072 C 233.833 205.281,237.281 201.833,239.072 197.463 C 239.973 195.265,239.999 194.705,239.981 177.920 C 239.969 166.535,239.774 159.039,239.408 155.947 C 236.414 130.648,226.009 108.477,208.567 90.233 L 204.850 86.345 217.843 73.359 C 231.925 59.285,232.498 58.535,231.930 54.940 C 231.022 49.191,224.566 46.289,219.710 49.447 C 218.667 50.125,212.068 56.448,205.046 63.497 L 192.279 76.313 190.540 75.120 C 161.456 55.177,122.529 50.576,89.173 63.137 C 81.329 66.091,72.164 70.815,65.768 75.202 L 63.908 76.477 50.408 63.032 C 42.982 55.637,36.292 49.277,35.541 48.900 C 33.298 47.772,29.942 48.001,27.679 49.436 M137.448 72.543 C 158.507 74.624,177.751 83.337,193.605 97.969 C 206.780 110.128,217.292 128.271,221.389 145.920 C 223.394 154.560,223.673 157.836,223.885 175.253 L 224.089 192.000 127.999 192.000 L 31.910 192.000 32.115 175.680 C 32.363 156.041,33.022 150.835,36.729 139.263 C 48.549 102.355,81.612 75.704,119.680 72.398 C 123.603 72.058,133.337 72.137,137.448 72.543 M86.716 145.309 C 79.234 149.037,77.758 159.042,83.860 164.666 C 86.406 167.013,88.390 167.791,91.947 167.837 C 95.526 167.882,97.955 166.908,100.431 164.431 C 102.908 161.955,103.882 159.526,103.837 155.947 C 103.792 152.448,103.035 150.466,100.790 147.977 C 97.363 144.175,91.298 143.025,86.716 145.309 M158.933 145.217 C 156.531 146.338,153.969 148.947,152.910 151.350 C 151.852 153.753,151.906 158.461,153.018 160.853 C 155.087 165.301,159.192 167.899,164.053 167.837 C 167.610 167.791,169.594 167.013,172.140 164.666 C 178.229 159.054,176.749 149.029,169.284 145.309 C 166.293 143.818,162.012 143.781,158.933 145.217 " stroke="none" fill-rule="evenodd"></path></svg>