<svg fill="currentColor" viewBox="0 0 256 256" xmlns="http://www.w3.org/2000/svg"><path d="M36.053 40.505 C 30.344 41.916,25.583 47.035,24.322 53.120 C 24.024 54.557,23.916 79.407,23.993 129.280 L 24.107 203.307 25.224 205.957 C 27.063 210.321,30.434 213.551,34.721 215.057 C 37.053 215.877,38.826 215.893,128.000 215.893 C 217.174 215.893,218.947 215.877,221.279 215.057 C 225.566 213.551,228.937 210.321,230.776 205.957 L 231.893 203.307 231.893 128.000 L 231.893 52.693 230.867 50.144 C 229.561 46.901,226.312 43.426,222.933 41.659 L 220.373 40.320 128.853 40.255 C 78.517 40.219,36.757 40.331,36.053 40.505 M215.893 128.000 L 215.893 200.107 128.000 200.107 L 40.107 200.107 40.107 128.000 L 40.107 55.893 128.000 55.893 L 215.893 55.893 215.893 128.000 M63.738 72.797 C 59.916 74.152,56.663 78.397,56.062 82.815 C 55.472 87.149,58.095 92.099,62.203 94.407 C 69.109 98.286,77.569 94.568,79.565 86.776 C 80.984 81.237,78.545 76.032,73.303 73.412 C 70.323 71.923,66.834 71.699,63.738 72.797 M103.999 72.689 C 99.410 74.402,96.000 79.145,96.000 83.816 C 96.000 90.554,101.436 96.000,108.161 96.000 C 112.188 96.000,116.818 93.117,118.695 89.441 C 119.975 86.935,120.231 82.500,119.244 79.917 C 118.312 77.475,115.623 74.475,113.299 73.283 C 111.102 72.157,106.256 71.847,103.999 72.689 " stroke="none" fill-rule="evenodd"></path></svg>