<svg fill="currentColor" viewBox="0 0 256 256" xmlns="http://www.w3.org/2000/svg"><path d="M124.800 32.806 C 122.735 33.760,121.435 35.110,120.554 37.219 C 119.966 38.626,119.893 47.444,119.893 117.635 L 119.893 196.472 90.347 166.946 C 69.742 146.357,60.320 137.222,59.214 136.764 C 54.713 134.900,49.752 137.244,48.407 141.871 C 47.853 143.777,47.854 144.282,48.413 146.149 C 49.006 148.131,51.432 150.651,86.283 185.479 C 112.490 211.668,123.990 222.885,125.106 223.345 C 127.202 224.210,129.115 224.159,131.200 223.181 C 132.372 222.632,144.550 210.712,170.094 185.111 C 206.452 148.671,207.290 147.794,207.707 145.757 C 209.021 139.342,202.843 134.255,196.786 136.764 C 195.680 137.222,186.258 146.357,165.653 166.946 L 136.107 196.472 136.097 117.542 C 136.088 41.718,136.057 38.546,135.300 36.907 C 133.370 32.725,128.823 30.949,124.800 32.806 " stroke="none" fill-rule="evenodd"></path></svg>