<svg fill="currentColor" viewBox="0 0 256 256" xmlns="http://www.w3.org/2000/svg"><path d="M123.710 17.443 C 122.667 18.119,114.406 26.135,105.353 35.256 C 88.205 52.532,87.871 52.936,87.903 56.370 C 87.916 57.788,89.289 60.618,90.510 61.740 C 91.843 62.965,94.356 64.000,96.000 64.000 C 98.815 64.000,100.389 62.779,110.187 53.001 L 119.893 43.314 119.896 69.977 C 119.897 88.114,120.049 97.183,120.369 98.337 C 120.999 100.607,123.497 103.042,125.843 103.674 C 130.116 104.824,134.505 102.389,135.661 98.227 C 135.943 97.214,136.103 87.002,136.104 69.977 L 136.107 43.314 145.813 53.001 C 155.688 62.856,157.187 64.010,160.093 63.991 C 161.847 63.979,164.613 62.726,165.846 61.384 C 166.957 60.175,168.107 57.578,168.107 56.277 C 168.107 52.923,167.713 52.450,150.647 35.256 C 141.594 26.135,133.333 18.119,132.290 17.443 C 130.773 16.460,129.914 16.213,128.000 16.213 C 126.086 16.213,125.227 16.460,123.710 17.443 M53.711 88.472 C 52.863 88.781,51.615 89.435,50.938 89.927 C 48.522 91.680,17.570 123.121,16.850 124.554 C 15.755 126.730,15.898 129.737,17.199 131.932 C 17.796 132.937,25.834 141.263,35.062 150.434 C 52.465 167.729,52.918 168.107,56.277 168.107 C 57.578 168.107,60.175 166.957,61.384 165.846 C 62.726 164.613,63.979 161.847,63.991 160.093 C 64.010 157.187,62.856 155.688,53.001 145.813 L 43.314 136.107 69.977 136.104 C 88.114 136.103,97.183 135.951,98.337 135.631 C 100.597 135.003,103.042 132.502,103.668 130.176 C 104.620 126.644,103.346 123.374,100.208 121.297 L 98.410 120.107 70.877 119.985 L 43.344 119.863 53.016 110.172 C 62.779 100.390,64.000 98.814,64.000 96.000 C 64.000 93.364,62.060 90.167,59.733 88.970 C 57.999 88.077,55.390 87.861,53.711 88.472 M199.040 88.089 C 198.805 88.175,198.100 88.358,197.473 88.496 C 194.810 89.081,192.030 92.853,192.009 95.907 C 191.990 98.812,193.144 100.313,202.984 110.172 L 212.656 119.863 185.123 119.985 L 157.590 120.107 155.792 121.297 C 152.654 123.374,151.380 126.644,152.332 130.176 C 152.958 132.502,155.403 135.003,157.663 135.631 C 158.817 135.951,167.886 136.103,186.023 136.104 L 212.686 136.107 202.999 145.813 C 193.144 155.688,191.990 157.187,192.009 160.093 C 192.021 161.847,193.274 164.613,194.616 165.846 C 195.825 166.957,198.422 168.107,199.723 168.107 C 203.082 168.107,203.535 167.729,220.938 150.434 C 230.166 141.263,238.204 132.937,238.801 131.932 C 240.276 129.444,240.276 126.554,238.799 124.068 C 237.477 121.843,205.538 89.954,203.719 89.042 C 202.349 88.356,199.756 87.828,199.040 88.089 M125.979 152.299 C 124.155 152.745,121.781 154.592,120.853 156.289 C 120.171 157.536,120.088 160.015,119.893 185.071 L 119.680 212.488 110.293 203.053 C 104.403 197.132,100.271 193.320,99.200 192.818 C 95.103 190.899,90.379 192.851,88.554 197.219 C 87.763 199.112,87.732 200.081,88.392 202.404 C 88.815 203.892,91.433 206.718,105.566 220.938 C 114.737 230.166,123.063 238.204,124.068 238.801 C 125.362 239.568,126.511 239.885,128.000 239.885 C 129.489 239.885,130.638 239.568,131.932 238.801 C 132.937 238.204,141.263 230.166,150.434 220.938 C 167.729 203.535,168.107 203.082,168.107 199.723 C 168.107 198.422,166.957 195.825,165.846 194.616 C 164.583 193.242,161.829 192.019,160.000 192.019 C 157.098 192.019,155.315 193.395,145.707 203.053 L 136.320 212.488 136.107 185.071 C 135.899 158.408,135.869 157.612,135.020 156.166 C 133.268 153.184,129.303 151.488,125.979 152.299 " stroke="none" fill-rule="evenodd"></path></svg>