<svg fill="currentColor" viewBox="0 0 256 256" xmlns="http://www.w3.org/2000/svg"><path d="M120.960 24.326 C 100.935 25.586,81.587 32.844,64.891 45.360 C 59.554 49.360,49.234 59.686,45.276 64.986 C 34.512 79.399,27.973 94.882,25.095 112.768 C 23.886 120.283,23.787 134.307,24.890 141.867 C 27.542 160.046,34.293 176.318,45.279 191.014 C 49.299 196.392,59.608 206.701,64.986 210.721 C 79.686 221.710,96.000 228.476,114.133 231.105 C 117.683 231.620,121.936 231.847,128.000 231.847 C 144.598 231.847,158.874 228.583,173.440 221.458 C 184.661 215.968,192.320 210.472,201.396 201.396 C 210.475 192.317,215.974 184.654,221.456 173.440 C 235.707 144.287,235.458 110.173,220.780 81.026 C 214.698 68.950,203.517 55.194,193.067 46.931 C 172.349 30.550,147.221 22.673,120.960 24.326 M142.080 41.152 C 159.933 44.170,175.895 52.156,188.870 64.559 C 202.597 77.682,211.532 94.696,214.904 114.133 C 215.937 120.088,215.932 135.829,214.895 141.867 C 212.390 156.454,206.990 169.066,198.207 180.843 C 173.373 214.141,127.558 225.417,90.240 207.417 C 81.119 203.017,74.345 198.338,67.182 191.490 C 53.399 178.314,44.463 161.314,41.098 141.867 C 40.060 135.867,40.060 120.133,41.098 114.133 C 46.547 82.647,66.943 57.480,96.401 45.891 C 101.417 43.918,110.346 41.621,115.413 41.001 C 117.525 40.743,119.733 40.449,120.320 40.349 C 122.762 39.932,138.241 40.503,142.080 41.152 M111.147 88.095 C 110.912 88.178,110.196 88.361,109.554 88.502 C 108.913 88.643,107.685 89.377,106.824 90.133 C 102.350 94.061,103.458 100.726,109.013 103.298 C 110.570 104.019,112.029 104.089,125.649 104.097 L 140.577 104.107 114.694 130.027 C 91.407 153.347,88.762 156.133,88.323 157.808 C 86.723 163.905,92.095 169.277,98.192 167.677 C 99.867 167.238,102.653 164.593,125.973 141.306 L 151.893 115.423 151.903 130.351 C 151.911 143.971,151.981 145.430,152.702 146.987 C 155.270 152.532,161.939 153.650,165.854 149.191 C 166.603 148.338,167.426 146.918,167.685 146.034 C 168.010 144.921,168.114 136.625,168.024 119.040 C 167.897 94.346,167.869 93.613,167.020 92.166 C 166.539 91.348,165.323 90.100,164.317 89.393 L 162.487 88.107 137.030 88.025 C 123.029 87.981,111.381 88.012,111.147 88.095 " stroke="none" fill-rule="evenodd"></path></svg>