<svg fill="currentColor" viewBox="0 0 256 256" xmlns="http://www.w3.org/2000/svg"><path d="M76.587 48.828 C 74.572 49.744,25.334 99.309,24.548 101.213 C 23.763 103.114,23.734 104.083,24.390 106.404 C 24.817 107.914,28.385 111.670,49.883 133.238 C 66.546 149.955,75.458 158.597,76.615 159.158 C 81.338 161.450,87.076 158.402,87.769 153.231 C 88.337 148.994,89.328 150.189,65.363 126.187 L 43.318 104.107 64.948 82.453 C 79.827 67.558,86.783 60.305,87.235 59.214 C 88.941 55.101,87.196 50.459,83.320 48.801 C 81.584 48.058,78.253 48.071,76.587 48.828 M123.710 49.446 C 120.664 51.426,73.541 98.913,72.764 100.786 C 72.003 102.624,71.913 105.237,72.553 106.959 C 73.217 108.747,122.681 158.186,124.800 159.181 C 128.896 161.102,133.621 159.149,135.446 154.781 C 136.237 152.888,136.268 151.919,135.608 149.596 C 135.184 148.103,132.454 145.172,117.380 130.027 L 99.650 112.213 117.143 112.213 C 134.894 112.213,138.505 112.431,146.133 113.965 C 159.070 116.565,173.799 123.705,184.308 132.470 C 193.060 139.770,201.382 150.234,206.447 160.308 C 212.170 171.691,215.081 182.859,215.823 196.283 C 216.204 203.169,216.831 204.782,219.859 206.663 C 222.486 208.294,225.331 208.338,227.978 206.787 C 231.802 204.545,232.465 202.156,231.746 193.199 C 230.564 178.492,227.444 166.909,221.250 154.240 C 206.744 124.572,178.688 103.454,146.134 97.700 C 138.265 96.309,132.738 96.001,115.633 96.000 L 99.214 96.000 117.185 77.973 C 136.200 58.901,136.507 58.528,135.972 55.229 C 135.277 50.943,132.175 48.213,128.000 48.213 C 126.084 48.213,125.229 48.459,123.710 49.446 " stroke="none" fill-rule="evenodd"></path></svg>