<svg fill="currentColor" viewBox="0 0 256 256" xmlns="http://www.w3.org/2000/svg"><path d="M189.979 24.299 C 188.155 24.745,185.781 26.592,184.853 28.289 C 184.152 29.570,184.100 33.894,183.995 98.880 L 183.883 168.107 125.548 168.107 L 67.214 168.107 85.197 150.080 C 100.453 134.788,103.251 131.794,103.641 130.347 C 104.211 128.234,104.213 127.762,103.661 125.773 C 103.127 123.850,101.475 121.806,99.724 120.900 C 98.289 120.158,95.195 119.950,93.227 120.464 C 91.640 120.878,42.184 170.053,40.930 172.463 C 39.872 174.497,39.872 177.503,40.930 179.537 C 41.384 180.410,53.008 192.346,66.850 206.154 C 89.403 228.651,92.135 231.238,93.808 231.677 C 99.905 233.277,105.279 227.903,103.676 221.808 C 103.240 220.150,101.221 217.977,85.200 201.920 L 67.214 183.893 130.474 183.893 C 182.640 183.893,193.976 183.792,195.114 183.317 C 196.925 182.560,199.097 180.047,199.680 178.034 C 200.011 176.893,200.109 155.123,200.020 103.040 C 199.894 29.963,199.890 29.647,199.020 28.166 C 197.268 25.184,193.303 23.488,189.979 24.299 " stroke="none" fill-rule="evenodd"></path></svg>