<svg fill="currentColor" viewBox="0 0 256 256" xmlns="http://www.w3.org/2000/svg"><path d="M117.711 24.472 C 116.863 24.781,115.615 25.436,114.938 25.929 C 112.426 27.756,17.550 123.148,16.846 124.554 C 15.754 126.736,15.899 129.740,17.202 131.932 C 17.801 132.937,40.239 155.666,67.065 182.439 C 118.616 233.890,116.728 232.131,120.370 232.097 C 121.788 232.084,124.618 230.711,125.740 229.490 C 127.986 227.047,128.000 226.891,128.000 204.609 L 128.000 183.910 157.365 183.795 L 186.730 183.680 188.460 182.535 C 189.502 181.845,190.550 180.646,191.095 179.520 L 192.000 177.651 192.000 128.000 L 192.000 78.349 191.095 76.480 C 190.550 75.354,189.502 74.155,188.460 73.465 L 186.730 72.320 157.365 72.205 L 128.000 72.090 128.000 51.391 C 128.000 29.108,127.984 28.929,125.740 26.525 C 123.759 24.404,120.317 23.524,117.711 24.472 M112.694 83.200 C 113.529 84.995,115.398 86.819,117.041 87.440 C 117.846 87.744,127.723 87.893,147.014 87.893 L 175.787 87.893 175.787 128.000 L 175.787 168.107 146.970 168.107 C 119.210 168.107,118.093 168.137,116.517 168.941 C 114.228 170.109,112.795 171.982,112.251 174.515 C 111.970 175.828,111.787 182.182,111.787 190.634 L 111.787 204.586 73.494 166.293 L 35.201 128.001 73.387 89.812 L 111.573 51.623 111.787 66.665 C 111.967 79.348,112.109 81.941,112.694 83.200 M212.425 72.938 C 210.192 74.153,208.783 76.036,208.251 78.515 C 207.594 81.579,207.602 174.456,208.259 177.522 C 208.827 180.167,210.969 182.757,213.198 183.492 C 216.962 184.735,221.441 182.937,223.095 179.520 L 224.000 177.651 224.000 128.000 L 224.000 78.349 223.095 76.480 C 221.275 72.720,216.027 70.979,212.425 72.938 " stroke="none" fill-rule="evenodd"></path></svg>