<svg fill="currentColor" viewBox="0 0 256 256" xmlns="http://www.w3.org/2000/svg"><path d="M44.265 32.461 C 39.776 33.526,35.661 36.951,33.540 41.387 L 32.213 44.160 32.213 128.000 L 32.213 211.840 33.407 214.400 C 34.974 217.760,38.261 221.060,41.555 222.583 L 44.160 223.787 128.000 223.787 L 211.840 223.787 214.445 222.583 C 217.739 221.060,221.026 217.760,222.593 214.400 L 223.787 211.840 223.787 128.000 L 223.787 44.160 222.583 41.555 C 221.060 38.261,217.760 34.974,214.400 33.407 L 211.840 32.213 128.853 32.147 C 81.512 32.109,45.179 32.244,44.265 32.461 M207.787 128.213 L 207.787 208.213 128.000 208.213 L 48.213 208.213 48.213 128.213 L 48.213 48.213 128.000 48.213 L 207.787 48.213 207.787 128.213 M123.710 81.443 C 122.667 82.119,114.406 90.135,105.353 99.256 C 88.205 116.532,87.871 116.936,87.903 120.370 C 87.916 121.788,89.289 124.618,90.510 125.740 C 91.875 126.995,94.373 128.002,96.093 127.991 C 98.904 127.972,100.763 126.526,110.293 116.947 L 119.680 107.512 119.893 138.770 C 120.103 169.437,120.123 170.059,120.999 171.733 C 122.265 174.156,125.181 175.885,128.000 175.885 C 130.819 175.885,133.735 174.156,135.001 171.733 C 135.877 170.059,135.897 169.437,136.107 138.770 L 136.320 107.512 145.707 116.947 C 151.597 122.868,155.729 126.680,156.800 127.182 C 160.897 129.101,165.621 127.149,167.446 122.781 C 168.238 120.888,168.268 119.919,167.607 117.596 C 167.185 116.109,164.583 113.296,150.647 99.256 C 141.594 90.135,133.333 82.119,132.290 81.443 C 130.773 80.460,129.914 80.213,128.000 80.213 C 126.086 80.213,125.227 80.460,123.710 81.443 " stroke="none" fill-rule="evenodd"></path></svg>