<svg fill="currentColor" viewBox="0 0 256 256" xmlns="http://www.w3.org/2000/svg"><path d="M124.800 32.806 C 122.735 33.760,121.435 35.110,120.554 37.219 C 119.965 38.628,119.893 48.453,119.893 128.000 C 119.893 207.547,119.965 217.372,120.554 218.781 C 123.408 225.612,132.592 225.612,135.446 218.781 C 136.035 217.372,136.106 207.552,136.097 127.907 C 136.088 42.006,136.058 38.548,135.300 36.907 C 133.370 32.725,128.823 30.949,124.800 32.806 M46.178 88.313 C 45.411 88.494,44.067 89.139,43.192 89.747 C 40.174 91.840,9.472 122.999,8.769 124.681 C 7.924 126.703,7.924 129.298,8.769 131.320 C 9.215 132.387,14.825 138.311,25.943 149.453 C 45.737 169.292,46.254 169.649,51.436 167.047 C 54.051 165.735,55.528 163.647,55.793 160.890 C 56.168 156.990,55.694 156.308,45.298 145.813 L 35.683 136.107 66.161 136.104 C 87.082 136.103,97.172 135.954,98.337 135.631 C 100.597 135.003,103.042 132.502,103.668 130.176 C 104.620 126.643,103.345 123.374,100.208 121.297 L 98.410 120.107 67.052 119.987 L 35.695 119.867 45.143 110.358 C 54.901 100.538,55.893 99.217,55.893 96.041 C 55.893 90.944,51.118 87.145,46.178 88.313 M207.147 88.104 C 206.912 88.182,206.196 88.361,205.554 88.502 C 203.991 88.847,201.395 91.183,200.683 92.886 C 199.922 94.709,199.953 97.365,200.758 99.292 C 201.166 100.270,204.927 104.391,210.857 110.358 L 220.305 119.867 188.948 119.987 L 157.590 120.107 155.792 121.297 C 152.655 123.374,151.380 126.643,152.332 130.176 C 152.958 132.502,155.403 135.003,157.663 135.631 C 158.828 135.954,168.918 136.103,189.839 136.104 L 220.317 136.107 210.702 145.813 C 200.306 156.308,199.832 156.990,200.207 160.890 C 200.472 163.647,201.949 165.735,204.564 167.047 C 209.762 169.657,210.253 169.316,230.242 149.239 C 243.407 136.017,247.041 132.132,247.460 130.830 C 248.224 128.462,247.810 125.341,246.478 123.421 C 244.826 121.040,213.332 89.804,211.840 89.067 C 210.495 88.402,207.872 87.864,207.147 88.104 " stroke="none" fill-rule="evenodd"></path></svg>