<svg fill="currentColor" viewBox="0 0 256 256" xmlns="http://www.w3.org/2000/svg"><path d="M44.265 32.461 C 39.776 33.526,35.661 36.951,33.540 41.387 L 32.213 44.160 32.213 128.000 L 32.213 211.840 33.407 214.400 C 34.974 217.760,38.261 221.060,41.555 222.583 L 44.160 223.787 128.000 223.787 L 211.840 223.787 214.445 222.583 C 217.739 221.060,221.026 217.760,222.593 214.400 L 223.787 211.840 223.787 128.000 L 223.787 44.160 222.583 41.555 C 221.060 38.261,217.760 34.974,214.400 33.407 L 211.840 32.213 128.853 32.147 C 81.512 32.109,45.179 32.244,44.265 32.461 M207.787 128.213 L 207.787 208.213 128.000 208.213 L 48.213 208.213 48.213 128.213 L 48.213 48.213 128.000 48.213 L 207.787 48.213 207.787 128.213 M117.711 88.472 C 116.863 88.781,115.615 89.435,114.938 89.927 C 112.522 91.680,81.570 123.121,80.850 124.554 C 79.755 126.730,79.898 129.737,81.199 131.932 C 81.796 132.937,89.834 141.263,99.062 150.434 C 116.465 167.729,116.918 168.107,120.277 168.107 C 121.578 168.107,124.175 166.957,125.384 165.846 C 126.758 164.583,127.981 161.829,127.981 160.000 C 127.981 157.098,126.605 155.315,116.947 145.707 L 107.512 136.320 138.770 136.107 C 169.437 135.897,170.059 135.877,171.733 135.001 C 172.770 134.460,173.920 133.337,174.663 132.141 C 177.055 128.289,175.876 123.545,171.951 121.238 L 170.027 120.107 138.769 119.893 L 107.512 119.680 116.947 110.293 C 126.526 100.763,127.972 98.904,127.991 96.093 C 128.009 93.382,126.100 90.188,123.733 88.970 C 121.999 88.077,119.390 87.861,117.711 88.472 " stroke="none" fill-rule="evenodd"></path></svg>