<svg fill="currentColor" viewBox="0 0 256 256" xmlns="http://www.w3.org/2000/svg"><path d="M76.586 32.846 C 75.489 33.389,65.954 42.644,49.883 58.765 C 23.760 84.970,23.893 84.818,23.893 88.277 C 23.893 90.903,25.413 92.583,50.468 117.664 C 73.950 141.169,75.883 142.999,77.851 143.588 C 79.716 144.146,80.224 144.147,82.124 143.595 C 86.855 142.219,89.143 137.382,87.235 132.786 C 86.787 131.708,80.942 125.556,68.995 113.589 L 51.413 95.979 113.280 96.121 C 169.038 96.250,175.426 96.333,177.974 96.968 C 187.763 99.404,195.722 103.844,202.286 110.530 C 207.917 116.265,212.323 124.064,214.499 132.148 C 215.516 135.925,215.622 137.047,215.622 144.000 C 215.622 150.953,215.516 152.075,214.499 155.852 C 213.303 160.296,210.595 166.425,208.115 170.303 C 201.159 181.177,188.708 189.243,175.597 191.370 C 172.368 191.894,164.058 191.997,125.041 191.998 L 78.349 192.000 76.480 192.905 C 73.063 194.559,71.265 199.038,72.508 202.802 C 73.243 205.031,75.833 207.173,78.478 207.741 C 81.362 208.359,165.795 208.392,172.740 207.777 C 187.024 206.513,198.501 201.775,209.557 192.580 C 218.099 185.475,224.915 175.276,228.676 163.969 C 231.110 156.656,231.831 152.087,231.831 144.000 C 231.831 135.913,231.110 131.344,228.676 124.031 C 223.945 109.810,215.179 98.458,202.667 90.349 C 196.264 86.199,189.982 83.505,182.193 81.567 L 177.707 80.452 114.667 80.322 C 79.995 80.250,51.627 80.056,51.627 79.889 C 51.627 79.723,59.677 71.520,69.517 61.660 C 88.939 42.198,88.331 42.960,87.769 38.769 C 87.075 33.596,81.276 30.524,76.586 32.846 " stroke="none" fill-rule="evenodd"></path></svg>