<svg fill="currentColor" viewBox="0 0 256 256" xmlns="http://www.w3.org/2000/svg"><path d="M61.919 56.312 C 57.735 57.326,55.181 61.833,56.321 66.192 C 56.765 67.887,61.965 73.214,114.685 125.963 L 172.563 183.874 129.268 183.990 L 85.973 184.107 84.049 185.238 C 80.124 187.545,78.945 192.289,81.337 196.141 C 82.080 197.337,83.230 198.460,84.267 199.001 C 85.968 199.891,86.140 199.894,139.243 200.005 C 177.190 200.084,193.017 199.981,194.267 199.644 C 196.542 199.031,199.031 196.542,199.644 194.267 C 199.981 193.017,200.084 177.190,200.005 139.243 C 199.897 87.615,199.868 85.922,199.071 84.316 C 196.377 78.888,187.623 78.888,184.929 84.316 C 184.138 85.911,184.099 87.602,183.893 129.174 L 183.680 172.375 126.293 114.960 C 94.731 83.382,68.427 57.292,67.840 56.983 C 66.362 56.204,63.638 55.895,61.919 56.312 " stroke="none" fill-rule="evenodd"></path></svg>