<svg fill="currentColor" viewBox="0 0 256 256" xmlns="http://www.w3.org/2000/svg"><path d="M118.604 32.456 C 104.527 33.624,89.650 38.152,77.013 45.117 C 68.714 49.690,58.379 57.416,57.005 60.074 C 53.751 66.366,59.286 73.524,66.006 71.714 C 67.044 71.435,69.050 70.144,71.087 68.444 C 83.911 57.745,100.820 50.626,118.184 48.617 C 124.610 47.874,137.198 48.322,142.720 49.490 C 158.928 52.921,174.334 61.490,188.646 75.035 C 192.426 78.612,200.107 87.038,200.107 87.606 C 200.107 87.740,192.379 87.907,182.933 87.978 C 164.338 88.117,164.531 88.094,162.260 90.525 C 158.383 94.678,159.880 101.216,165.219 103.446 C 166.586 104.018,170.214 104.105,192.093 104.097 C 215.772 104.089,217.496 104.038,219.093 103.300 C 221.159 102.347,222.459 100.996,223.340 98.888 C 223.911 97.521,224.000 93.860,224.000 71.828 C 224.000 46.736,223.986 46.321,223.095 44.480 C 220.640 39.409,213.512 38.649,209.798 43.062 C 208.100 45.080,207.787 47.727,207.787 60.045 L 207.787 71.408 201.280 65.010 C 190.567 54.476,181.881 48.120,170.240 42.298 C 153.893 34.122,137.104 30.922,118.604 32.456 M39.040 152.095 C 38.805 152.178,38.100 152.358,37.473 152.496 C 35.816 152.860,33.703 154.799,32.802 156.782 C 32.070 158.393,32.018 160.192,32.009 184.079 C 32.000 209.275,32.013 209.678,32.905 211.520 C 34.286 214.373,36.561 215.680,40.143 215.680 C 42.705 215.680,43.190 215.539,44.654 214.373 C 47.882 211.799,47.983 211.300,48.136 197.178 L 48.272 184.650 54.749 191.019 C 65.222 201.317,73.963 207.781,84.816 213.254 C 99.359 220.588,113.109 224.000,128.122 224.000 C 150.222 224.000,173.319 216.422,190.720 203.462 C 198.385 197.753,200.570 194.725,199.897 190.743 C 199.235 186.822,196.059 184.178,192.012 184.178 C 189.197 184.178,188.598 184.483,184.360 188.078 C 176.216 194.987,164.257 201.157,152.432 204.550 C 121.607 213.396,92.589 205.191,66.626 180.287 C 63.146 176.949,55.893 168.897,55.893 168.371 C 55.893 168.226,63.429 168.102,72.640 168.097 C 88.009 168.089,89.527 168.023,91.093 167.300 C 93.159 166.347,94.459 164.996,95.340 162.888 C 96.893 159.170,95.267 154.880,91.520 152.813 C 90.374 152.181,87.579 152.098,64.853 152.025 C 50.891 151.981,39.275 152.012,39.040 152.095 " stroke="none" fill-rule="evenodd"></path></svg>