<svg fill="currentColor" viewBox="0 0 256 256" xmlns="http://www.w3.org/2000/svg"><path d="M148.644 32.816 C 147.678 33.255,146.393 34.263,145.788 35.055 C 144.731 36.441,143.698 39.693,143.998 40.693 C 144.077 40.957,144.257 41.698,144.397 42.339 C 144.714 43.786,146.889 46.311,148.650 47.275 C 149.841 47.928,152.296 48.012,173.206 48.124 L 196.438 48.248 162.680 82.044 C 125.731 119.034,127.530 116.978,128.200 121.447 C 128.453 123.131,128.876 123.878,130.499 125.501 C 132.122 127.124,132.869 127.547,134.553 127.800 C 139.022 128.470,136.966 130.269,173.956 93.320 L 207.752 59.562 207.876 82.794 C 207.988 103.704,208.072 106.159,208.725 107.350 C 209.689 109.111,212.214 111.286,213.661 111.603 C 214.302 111.743,215.043 111.923,215.307 112.002 C 216.307 112.302,219.559 111.269,220.945 110.212 C 221.737 109.607,222.745 108.322,223.184 107.356 C 223.941 105.689,223.982 103.904,223.988 72.320 C 223.993 51.765,223.835 38.462,223.575 37.528 C 223.344 36.696,222.529 35.410,221.764 34.669 C 218.880 31.878,220.611 31.999,183.800 32.009 C 152.101 32.018,150.311 32.059,148.644 32.816 M44.265 64.463 C 39.784 65.519,35.662 68.949,33.540 73.387 L 32.213 76.160 32.213 144.000 L 32.213 211.840 33.407 214.400 C 34.974 217.760,38.261 221.060,41.555 222.583 L 44.160 223.787 112.000 223.787 L 179.840 223.787 182.445 222.583 C 185.739 221.060,189.026 217.760,190.593 214.400 L 191.787 211.840 191.914 174.080 C 191.984 153.312,191.923 135.496,191.778 134.489 C 191.458 132.254,189.518 129.896,187.097 128.796 C 182.511 126.712,177.414 129.350,176.248 134.409 C 175.964 135.640,175.804 149.110,175.797 172.267 L 175.787 208.213 112.000 208.213 L 48.213 208.213 48.213 144.213 L 48.213 80.213 83.819 80.213 C 108.011 80.213,120.123 80.064,121.604 79.746 C 127.382 78.507,129.940 71.419,126.161 67.115 C 123.270 63.822,125.945 64.015,83.627 64.052 C 62.859 64.071,45.146 64.256,44.265 64.463 " stroke="none" fill-rule="evenodd"></path></svg>