<svg fill="currentColor" viewBox="0 0 256 256" xmlns="http://www.w3.org/2000/svg"><path d="M167.040 24.089 C 166.805 24.175,166.037 24.370,165.333 24.522 C 164.375 24.729,157.640 31.202,138.548 50.266 C 114.827 73.953,112.999 75.881,112.411 77.851 C 111.854 79.716,111.853 80.225,112.405 82.124 C 113.781 86.855,118.618 89.143,123.214 87.235 C 124.292 86.787,130.438 80.946,142.400 69.001 L 160.000 51.427 160.000 110.951 C 160.000 149.246,159.843 171.726,159.560 173.981 C 157.120 193.447,143.155 209.279,123.806 214.517 C 120.073 215.527,118.949 215.633,112.000 215.633 C 105.051 215.633,103.927 215.527,100.194 214.517 C 82.242 209.657,69.543 196.482,64.973 177.974 C 64.355 175.471,64.247 169.545,64.031 126.262 L 63.787 77.377 62.641 75.647 C 58.774 69.804,49.733 71.606,48.251 78.515 C 47.626 81.432,47.609 166.433,48.232 173.013 C 48.807 179.082,49.633 183.067,51.443 188.518 C 56.651 204.196,68.170 217.503,83.026 225.000 C 88.200 227.611,90.692 228.550,96.272 229.988 C 125.005 237.397,155.270 223.731,168.901 197.195 C 172.769 189.664,174.973 181.827,175.777 172.740 C 176.039 169.785,176.207 145.164,176.210 109.655 L 176.213 51.417 194.027 69.209 C 203.824 78.994,212.380 87.201,213.041 87.447 C 217.810 89.219,223.326 85.896,223.888 80.912 C 224.336 76.933,224.882 77.574,198.457 51.063 C 184.932 37.495,173.099 25.941,172.160 25.388 C 170.518 24.421,167.929 23.765,167.040 24.089 " stroke="none" fill-rule="evenodd"></path></svg>