<svg fill="currentColor" viewBox="0 0 256 256" xmlns="http://www.w3.org/2000/svg"><path d="M76.265 32.460 C 71.774 33.528,67.661 36.951,65.540 41.387 L 64.213 44.160 64.092 70.613 C 63.957 100.041,63.901 99.394,66.794 101.934 C 68.882 103.767,71.256 104.397,73.658 103.755 C 76.322 103.042,77.510 102.156,78.844 99.886 L 80.000 97.920 80.123 73.067 L 80.246 48.213 144.016 48.213 L 207.787 48.213 207.787 112.213 L 207.787 176.213 182.697 176.213 L 157.607 176.213 155.679 177.436 C 153.662 178.715,152.445 180.659,152.020 183.279 C 151.494 186.519,154.289 190.566,157.753 191.578 C 158.867 191.903,167.402 192.007,185.600 191.917 L 211.840 191.787 214.445 190.583 C 217.739 189.060,221.026 185.760,222.593 182.400 L 223.787 179.840 223.787 112.000 L 223.787 44.160 222.583 41.555 C 221.060 38.261,217.760 34.974,214.400 33.407 L 211.840 32.213 144.853 32.146 C 106.790 32.108,77.175 32.244,76.265 32.460 M52.644 128.816 C 51.678 129.255,50.393 130.263,49.788 131.055 C 48.731 132.441,47.698 135.693,47.998 136.693 C 48.077 136.957,48.257 137.698,48.397 138.339 C 48.714 139.786,50.889 142.311,52.650 143.275 C 53.841 143.928,56.296 144.012,77.206 144.124 L 100.438 144.248 66.692 178.044 C 30.242 214.547,31.605 213.006,32.166 217.099 C 32.655 220.662,35.338 223.345,38.901 223.834 C 42.994 224.395,41.453 225.758,77.956 189.308 L 111.752 155.562 111.876 178.794 C 111.988 199.704,112.072 202.159,112.725 203.350 C 113.689 205.111,116.214 207.286,117.661 207.603 C 118.302 207.743,119.043 207.923,119.307 208.002 C 120.307 208.302,123.559 207.269,124.945 206.212 C 125.737 205.607,126.745 204.322,127.184 203.356 C 127.941 201.689,127.982 199.904,127.988 168.320 C 127.993 147.765,127.835 134.462,127.575 133.528 C 127.344 132.696,126.529 131.410,125.764 130.669 C 122.880 127.878,124.611 127.999,87.800 128.009 C 56.101 128.018,54.311 128.059,52.644 128.816 " stroke="none" fill-rule="evenodd"></path></svg>