<svg fill="currentColor" viewBox="0 0 256 256" xmlns="http://www.w3.org/2000/svg"><path d="M119.064 32.444 C 100.626 34.224,81.782 41.851,68.085 53.078 C 65.640 55.083,52.427 67.063,36.915 81.341 L 32.213 85.669 32.000 69.608 C 31.773 52.510,31.731 52.170,29.590 50.290 C 27.260 48.243,22.989 47.556,20.522 48.832 C 18.953 49.643,16.737 52.194,16.326 53.661 C 15.900 55.183,15.900 104.817,16.326 106.339 C 16.743 107.828,18.943 110.340,20.650 111.275 C 21.854 111.934,24.289 112.000,47.573 112.000 C 61.653 112.000,73.698 111.853,74.339 111.674 C 75.672 111.301,78.310 109.111,79.016 107.792 C 81.004 104.078,79.495 98.971,75.818 96.960 C 74.616 96.303,72.682 96.188,59.635 96.000 L 44.817 95.787 58.043 83.627 C 77.059 66.143,78.250 65.108,83.161 61.806 C 93.401 54.921,104.488 50.624,116.535 48.873 C 122.436 48.015,133.575 48.016,139.465 48.875 C 174.785 54.027,202.106 81.535,207.151 117.026 C 207.965 122.751,207.953 133.175,207.127 139.103 C 203.400 165.825,186.487 188.737,161.886 200.391 C 153.342 204.437,142.801 207.131,133.147 207.735 C 111.968 209.058,91.842 202.247,75.349 188.174 C 71.248 184.675,70.255 184.159,67.607 184.147 C 61.989 184.122,58.134 189.910,60.308 195.107 C 62.015 199.188,74.917 208.824,85.871 214.198 C 122.638 232.237,166.805 224.860,195.832 195.832 C 211.226 180.439,220.816 160.558,223.367 138.752 C 226.707 110.200,216.523 80.976,196.053 60.375 C 181.616 45.845,162.565 36.214,142.080 33.090 C 136.607 32.255,124.530 31.916,119.064 32.444 " stroke="none" fill-rule="evenodd"></path></svg>