<svg fill="currentColor" viewBox="0 0 256 256" xmlns="http://www.w3.org/2000/svg"><path d="M36.903 32.796 C 29.817 36.015,30.827 46.123,38.396 47.746 C 41.475 48.406,214.525 48.406,217.604 47.746 C 225.173 46.123,226.183 36.015,219.097 32.796 C 217.460 32.052,213.548 32.019,128.000 32.019 C 42.452 32.019,38.540 32.052,36.903 32.796 M172.800 80.684 C 172.213 80.913,149.317 103.508,121.920 130.896 L 72.107 180.692 72.107 141.746 C 72.107 99.577,72.190 101.166,69.846 98.616 C 68.583 97.242,65.829 96.019,64.000 96.019 C 60.702 96.019,57.247 98.655,56.312 101.886 C 55.994 102.982,55.892 118.566,55.980 152.747 C 56.106 201.787,56.111 202.035,56.999 203.733 C 57.554 204.795,58.669 205.923,59.952 206.720 L 62.013 208.000 111.967 208.000 L 161.920 208.000 163.886 206.844 C 166.156 205.510,167.042 204.322,167.755 201.658 C 168.682 198.189,166.743 194.403,163.218 192.802 C 161.585 192.061,159.407 192.018,122.456 192.009 L 83.418 192.000 133.000 142.400 C 168.091 107.296,182.773 92.336,183.237 91.214 C 184.940 87.097,183.195 82.459,179.320 80.801 C 177.752 80.130,174.375 80.069,172.800 80.684 " stroke="none" fill-rule="evenodd"></path></svg>