<svg fill="currentColor" viewBox="0 0 256 256" xmlns="http://www.w3.org/2000/svg"><path d="M44.265 32.461 C 39.776 33.526,35.661 36.951,33.540 41.387 L 32.213 44.160 32.213 128.000 L 32.213 211.840 33.407 214.400 C 34.974 217.760,38.261 221.060,41.555 222.583 L 44.160 223.787 128.000 223.787 L 211.840 223.787 214.445 222.583 C 217.739 221.060,221.026 217.760,222.593 214.400 L 223.787 211.840 223.787 128.000 L 223.787 44.160 222.583 41.555 C 221.060 38.261,217.760 34.974,214.400 33.407 L 211.840 32.213 128.853 32.147 C 81.512 32.109,45.179 32.244,44.265 32.461 M207.787 128.213 L 207.787 208.213 128.000 208.213 L 48.213 208.213 48.213 128.213 L 48.213 48.213 128.000 48.213 L 207.787 48.213 207.787 128.213 M158.933 88.093 C 158.699 88.177,157.931 88.370,157.227 88.522 C 156.268 88.729,149.441 95.296,130.027 114.688 L 104.107 140.577 104.097 125.649 C 104.087 109.172,104.022 108.721,101.280 106.160 C 97.278 102.422,91.106 103.821,88.702 109.013 C 87.962 110.612,87.912 112.292,87.905 135.680 C 87.900 152.602,88.050 161.186,88.369 162.337 C 88.973 164.512,91.488 167.027,93.663 167.631 C 94.814 167.950,103.398 168.100,120.320 168.095 C 143.708 168.088,145.388 168.038,146.987 167.298 C 150.138 165.839,151.893 163.227,151.893 160.000 C 151.893 157.858,151.262 156.238,149.840 154.735 C 147.333 152.086,147.558 152.119,130.803 151.975 L 115.473 151.843 141.328 125.948 C 167.994 99.241,168.102 99.121,168.102 96.000 C 168.102 93.467,166.091 90.118,163.896 88.995 C 162.714 88.390,159.658 87.835,158.933 88.093 " stroke="none" fill-rule="evenodd"></path></svg>