<svg fill="currentColor" viewBox="0 0 256 256" xmlns="http://www.w3.org/2000/svg"><path d="M44.265 32.461 C 39.776 33.526,35.661 36.951,33.540 41.387 L 32.213 44.160 32.213 128.000 L 32.213 211.840 33.407 214.400 C 34.974 217.760,38.261 221.060,41.555 222.583 L 44.160 223.787 128.000 223.787 L 211.840 223.787 214.445 222.583 C 217.739 221.060,221.026 217.760,222.593 214.400 L 223.787 211.840 223.787 128.000 L 223.787 44.160 222.583 41.555 C 221.060 38.261,217.760 34.974,214.400 33.407 L 211.840 32.213 128.853 32.147 C 81.512 32.109,45.179 32.244,44.265 32.461 M207.787 128.213 L 207.787 208.213 128.000 208.213 L 48.213 208.213 48.213 128.213 L 48.213 48.213 128.000 48.213 L 207.787 48.213 207.787 128.213 M93.979 88.301 C 92.156 88.744,89.781 90.592,88.853 92.289 C 88.170 93.537,88.096 95.822,87.976 119.040 C 87.886 136.625,87.990 144.921,88.315 146.034 C 88.574 146.918,89.397 148.338,90.146 149.191 C 94.061 153.650,100.730 152.532,103.298 146.987 C 104.019 145.430,104.089 143.971,104.097 130.351 L 104.107 115.423 130.027 141.306 C 153.347 164.593,156.133 167.238,157.808 167.677 C 163.905 169.277,169.277 163.905,167.677 157.808 C 167.238 156.133,164.593 153.347,141.306 130.027 L 115.423 104.107 130.351 104.097 C 143.971 104.089,145.430 104.019,146.987 103.298 C 152.176 100.895,153.584 94.693,149.840 90.735 C 147.236 87.983,148.643 88.114,120.747 88.036 C 106.784 87.997,94.739 88.116,93.979 88.301 " stroke="none" fill-rule="evenodd"></path></svg>