<svg fill="currentColor" viewBox="0 0 256 256" xmlns="http://www.w3.org/2000/svg"><path d="M44.265 32.461 C 39.776 33.526,35.661 36.951,33.540 41.387 L 32.213 44.160 32.213 128.000 L 32.213 211.840 33.407 214.400 C 34.974 217.760,38.261 221.060,41.555 222.583 L 44.160 223.787 128.000 223.787 L 211.840 223.787 214.445 222.583 C 217.739 221.060,221.026 217.760,222.593 214.400 L 223.787 211.840 223.787 128.000 L 223.787 44.160 222.583 41.555 C 221.060 38.261,217.760 34.974,214.400 33.407 L 211.840 32.213 128.853 32.147 C 81.512 32.109,45.179 32.244,44.265 32.461 M207.787 128.213 L 207.787 208.213 128.000 208.213 L 48.213 208.213 48.213 128.213 L 48.213 48.213 128.000 48.213 L 207.787 48.213 207.787 128.213 M135.040 88.089 C 134.805 88.175,134.100 88.358,133.473 88.496 C 130.768 89.090,128.019 92.872,128.019 96.000 C 128.019 98.902,129.395 100.685,139.053 110.293 L 148.488 119.680 117.231 119.893 L 85.973 120.107 84.049 121.238 C 80.124 123.545,78.945 128.289,81.337 132.141 C 82.080 133.337,83.230 134.460,84.267 135.001 C 85.941 135.877,86.563 135.897,117.230 136.107 L 148.488 136.320 139.053 145.707 C 133.132 151.597,129.320 155.729,128.818 156.800 C 126.899 160.897,128.851 165.621,133.219 167.446 C 135.112 168.237,136.081 168.268,138.404 167.608 C 139.892 167.185,142.718 164.567,156.938 150.434 C 166.166 141.263,174.204 132.937,174.801 131.932 C 176.276 129.444,176.276 126.554,174.799 124.068 C 173.477 121.843,141.538 89.954,139.719 89.042 C 138.349 88.356,135.756 87.828,135.040 88.089 " stroke="none" fill-rule="evenodd"></path></svg>