<svg fill="currentColor" viewBox="0 0 256 256" xmlns="http://www.w3.org/2000/svg"><path d="M91.679 49.436 C 86.355 52.812,86.976 60.561,92.782 63.198 C 94.415 63.939,96.593 63.982,133.546 63.991 L 172.585 64.000 123.001 113.600 C 87.860 148.752,73.225 163.662,72.761 164.786 C 70.196 171.001,75.203 177.047,81.798 175.699 C 83.788 175.292,85.122 174.001,133.867 125.297 L 183.893 75.312 183.893 114.256 C 183.893 156.423,183.810 154.834,186.154 157.384 C 187.417 158.758,190.171 159.981,192.000 159.981 C 195.298 159.981,198.753 157.345,199.688 154.114 C 200.006 153.018,200.108 137.434,200.020 103.253 C 199.897 55.582,199.866 53.919,199.071 52.316 C 198.576 51.318,197.481 50.172,196.321 49.436 L 194.393 48.213 144.000 48.213 L 93.607 48.213 91.679 49.436 M36.198 209.076 C 33.176 210.673,31.657 213.825,32.191 217.389 C 32.568 219.899,35.156 222.916,37.488 223.564 C 39.633 224.160,216.367 224.160,218.512 223.564 C 220.844 222.916,223.432 219.899,223.809 217.389 C 224.351 213.775,222.806 210.634,219.710 209.055 C 218.083 208.225,216.813 208.214,127.910 208.232 C 39.637 208.251,37.727 208.268,36.198 209.076 " stroke="none" fill-rule="evenodd"></path></svg>