<svg fill="currentColor" viewBox="0 0 256 256" xmlns="http://www.w3.org/2000/svg"><path d="M157.919 24.312 C 153.733 25.327,151.179 29.837,152.324 34.192 C 152.760 35.850,154.779 38.023,170.800 54.080 L 188.786 72.107 125.568 72.107 C 81.938 72.107,61.977 72.247,61.148 72.560 C 59.440 73.206,57.622 75.027,56.702 77.013 C 55.943 78.653,55.912 81.571,55.905 151.680 C 55.900 203.622,56.034 225.129,56.369 226.337 C 56.999 228.607,59.497 231.042,61.843 231.674 C 66.116 232.824,70.505 230.389,71.661 226.227 C 71.956 225.166,72.103 201.983,72.104 156.267 L 72.107 87.893 130.447 87.893 L 188.786 87.893 170.800 105.920 C 154.779 121.977,152.760 124.150,152.324 125.808 C 150.721 131.903,156.095 137.277,162.192 135.677 C 163.865 135.238,166.597 132.651,189.150 110.154 C 202.992 96.346,214.616 84.410,215.070 83.537 C 216.074 81.608,216.137 78.527,215.212 76.672 C 214.433 75.110,165.464 25.838,163.840 24.983 C 162.361 24.204,159.637 23.895,157.919 24.312 " stroke="none" fill-rule="evenodd"></path></svg>