<svg fill="currentColor" viewBox="0 0 256 256" xmlns="http://www.w3.org/2000/svg"><path d="M94.933 24.093 C 94.699 24.177,93.931 24.370,93.227 24.522 C 92.269 24.728,85.620 31.111,66.850 49.839 C 53.016 63.643,41.384 75.590,40.930 76.463 C 39.872 78.497,39.872 81.503,40.930 83.537 C 41.384 84.410,53.008 96.346,66.850 110.154 C 89.403 132.651,92.135 135.238,93.808 135.677 C 99.905 137.277,105.279 131.903,103.676 125.808 C 103.240 124.150,101.221 121.977,85.200 105.920 L 67.214 87.893 125.553 87.893 L 183.893 87.893 183.896 156.267 C 183.897 204.836,184.035 225.132,184.369 226.337 C 184.999 228.607,187.497 231.042,189.843 231.674 C 194.116 232.824,198.505 230.389,199.661 226.227 C 199.957 225.163,200.100 200.580,200.095 151.680 C 200.088 81.571,200.057 78.653,199.298 77.013 C 198.378 75.027,196.560 73.206,194.852 72.560 C 194.023 72.247,174.062 72.107,130.432 72.107 L 67.214 72.107 85.197 54.080 C 100.453 38.788,103.251 35.794,103.641 34.347 C 104.211 32.234,104.213 31.762,103.661 29.773 C 103.145 27.915,101.485 25.808,99.896 24.995 C 98.714 24.390,95.658 23.835,94.933 24.093 " stroke="none" fill-rule="evenodd"></path></svg>