<svg fill="currentColor" viewBox="0 0 256 256" xmlns="http://www.w3.org/2000/svg"><path d="M120.960 24.326 C 100.935 25.586,81.587 32.844,64.891 45.360 C 59.554 49.360,49.234 59.686,45.276 64.986 C 34.512 79.399,27.973 94.882,25.095 112.768 C 23.886 120.283,23.787 134.307,24.890 141.867 C 27.542 160.046,34.293 176.318,45.279 191.014 C 49.299 196.392,59.608 206.701,64.986 210.721 C 79.686 221.710,96.000 228.476,114.133 231.105 C 117.683 231.620,121.936 231.847,128.000 231.847 C 144.598 231.847,158.874 228.583,173.440 221.458 C 184.661 215.968,192.320 210.472,201.396 201.396 C 210.475 192.317,215.974 184.654,221.456 173.440 C 235.707 144.287,235.458 110.173,220.780 81.026 C 214.698 68.950,203.517 55.194,193.067 46.931 C 172.349 30.550,147.221 22.673,120.960 24.326 M142.080 41.152 C 159.933 44.170,175.895 52.156,188.870 64.559 C 202.597 77.682,211.532 94.696,214.904 114.133 C 215.937 120.088,215.932 135.829,214.895 141.867 C 212.390 156.454,206.990 169.066,198.207 180.843 C 173.373 214.141,127.558 225.417,90.240 207.417 C 81.119 203.017,74.345 198.338,67.182 191.490 C 53.399 178.314,44.463 161.314,41.098 141.867 C 40.060 135.867,40.060 120.133,41.098 114.133 C 46.547 82.647,66.943 57.480,96.401 45.891 C 101.417 43.918,110.346 41.621,115.413 41.001 C 117.525 40.743,119.733 40.449,120.320 40.349 C 122.762 39.932,138.241 40.503,142.080 41.152 M123.679 81.436 C 119.914 83.824,120.136 81.726,119.893 117.230 L 119.680 148.488 110.293 139.053 C 100.763 129.474,98.904 128.028,96.093 128.009 C 94.373 127.998,91.875 129.005,90.510 130.260 C 89.289 131.382,87.916 134.212,87.903 135.630 C 87.871 139.070,88.189 139.453,105.566 156.938 C 114.737 166.166,123.063 174.204,124.068 174.801 C 126.555 176.276,129.445 176.276,131.932 174.801 C 132.937 174.204,141.263 166.166,150.434 156.938 C 167.729 139.535,168.107 139.082,168.107 135.723 C 168.107 134.422,166.957 131.825,165.846 130.616 C 164.583 129.242,161.829 128.019,160.000 128.019 C 157.098 128.019,155.315 129.395,145.707 139.053 L 136.320 148.488 136.107 117.230 C 135.903 87.458,135.854 85.895,135.071 84.316 C 133.104 80.353,127.586 78.958,123.679 81.436 " stroke="none" fill-rule="evenodd"></path></svg>