<svg fill="currentColor" viewBox="0 0 256 256" xmlns="http://www.w3.org/2000/svg"><path d="M36.903 32.796 C 29.817 36.015,30.827 46.123,38.396 47.746 C 41.475 48.406,214.525 48.406,217.604 47.746 C 225.173 46.123,226.183 36.015,219.097 32.796 C 217.460 32.052,213.548 32.019,128.000 32.019 C 42.452 32.019,38.540 32.052,36.903 32.796 M76.587 80.818 C 72.783 82.516,71.080 87.145,72.763 91.214 C 73.227 92.336,87.909 107.296,123.000 142.400 L 172.582 192.000 133.544 192.009 C 96.593 192.018,94.415 192.061,92.782 192.802 C 89.257 194.403,87.318 198.189,88.245 201.658 C 88.958 204.322,89.844 205.510,92.114 206.844 L 94.080 208.000 144.033 208.000 L 193.987 208.000 196.048 206.720 C 197.331 205.923,198.446 204.795,199.001 203.733 C 199.889 202.035,199.894 201.787,200.020 152.747 C 200.108 118.566,200.006 102.982,199.688 101.886 C 198.753 98.655,195.298 96.019,192.000 96.019 C 190.171 96.019,187.417 97.242,186.154 98.616 C 183.810 101.166,183.893 99.577,183.893 141.746 L 183.893 180.692 134.080 130.899 C 105.828 102.658,83.747 80.912,83.066 80.659 C 81.418 80.047,78.133 80.128,76.587 80.818 " stroke="none" fill-rule="evenodd"></path></svg>