<svg fill="currentColor" viewBox="0 0 256 256" xmlns="http://www.w3.org/2000/svg"><path d="M120.960 24.326 C 100.935 25.586,81.587 32.844,64.891 45.360 C 59.554 49.360,49.234 59.686,45.276 64.986 C 34.512 79.399,27.973 94.882,25.095 112.768 C 23.886 120.283,23.787 134.307,24.890 141.867 C 27.542 160.046,34.293 176.318,45.279 191.014 C 49.299 196.392,59.608 206.701,64.986 210.721 C 79.686 221.710,96.000 228.476,114.133 231.105 C 117.683 231.620,121.936 231.847,128.000 231.847 C 144.598 231.847,158.874 228.583,173.440 221.458 C 184.661 215.968,192.320 210.472,201.396 201.396 C 210.475 192.317,215.974 184.654,221.456 173.440 C 235.707 144.287,235.458 110.173,220.780 81.026 C 214.698 68.950,203.517 55.194,193.067 46.931 C 172.349 30.550,147.221 22.673,120.960 24.326 M140.800 41.019 C 176.680 45.924,206.869 74.500,214.178 110.478 C 216.088 119.876,216.358 132.899,214.835 142.080 C 207.747 184.803,171.171 215.893,128.000 215.893 C 84.837 215.893,48.329 184.863,41.158 142.080 C 40.061 135.535,39.862 124.134,40.726 117.333 C 43.264 97.352,51.759 79.980,65.880 65.892 C 75.140 56.655,84.298 50.653,96.401 45.892 C 100.208 44.394,111.725 41.183,112.066 41.524 C 112.153 41.611,111.550 43.163,110.725 44.973 C 108.692 49.434,106.528 56.030,105.322 61.440 C 104.541 64.946,104.326 67.172,104.334 71.680 C 104.344 76.933,104.447 77.698,105.507 80.374 C 107.906 86.432,112.194 91.006,117.973 93.672 C 124.773 96.810,131.227 96.810,138.027 93.672 C 146.006 89.991,151.230 82.505,151.783 73.960 C 151.979 70.938,151.882 70.219,151.046 68.492 C 149.144 64.563,144.514 62.952,140.586 64.853 C 138.054 66.079,136.646 68.210,136.052 71.714 C 135.445 75.298,134.079 77.624,131.843 78.880 C 128.103 80.982,123.442 79.706,121.261 75.983 C 120.348 74.426,120.161 73.594,120.202 71.285 C 120.342 63.556,124.580 51.364,130.124 42.740 L 131.860 40.041 134.730 40.311 C 136.308 40.460,139.040 40.779,140.800 41.019 M88.191 116.643 C 84.080 118.176,81.511 121.075,80.391 125.447 C 79.801 127.752,79.803 128.255,80.410 130.627 C 81.289 134.058,83.274 136.759,86.078 138.339 C 92.009 141.681,99.480 139.495,102.501 133.534 C 104.084 130.412,104.380 127.879,103.512 124.893 C 102.043 119.839,97.869 116.495,92.661 116.200 C 90.870 116.098,89.211 116.263,88.191 116.643 M160.300 116.669 C 154.457 118.753,151.001 124.618,152.271 130.292 C 154.220 139.003,163.731 142.702,171.082 137.608 C 173.258 136.100,174.805 133.689,175.609 130.553 C 176.196 128.259,176.196 127.741,175.609 125.447 C 174.485 121.063,171.868 118.117,167.809 116.669 C 165.734 115.929,162.374 115.929,160.300 116.669 M97.342 160.433 C 94.099 161.807,92.160 164.598,92.160 167.890 C 92.160 170.444,92.973 172.301,94.786 173.894 C 96.948 175.791,103.379 178.982,108.435 180.663 C 116.053 183.198,119.180 183.680,128.000 183.680 C 136.820 183.680,139.947 183.198,147.565 180.663 C 152.621 178.982,159.052 175.791,161.214 173.894 C 165.087 170.493,164.652 164.239,160.343 161.387 C 158.940 160.459,158.071 160.213,156.191 160.213 C 154.131 160.213,153.100 160.568,148.480 162.869 C 142.400 165.896,138.715 167.015,132.418 167.747 C 124.057 168.719,116.245 167.198,107.547 162.905 C 102.080 160.206,99.406 159.559,97.342 160.433 " stroke="none" fill-rule="evenodd"></path></svg>