<svg fill="currentColor" viewBox="0 0 256 256" xmlns="http://www.w3.org/2000/svg"><path d="M28.373 56.333 C 19.313 57.536,11.143 64.941,8.783 74.088 C 8.184 76.410,8.107 82.571,8.107 128.000 C 8.107 173.429,8.184 179.590,8.783 181.912 C 10.808 189.761,16.999 196.307,24.820 198.869 L 27.947 199.893 116.267 199.893 L 204.587 199.893 207.787 198.666 C 211.907 197.086,214.867 195.110,217.687 192.056 C 220.551 188.954,222.089 186.109,223.156 181.937 C 223.974 178.740,224.000 177.054,224.000 128.000 C 224.000 78.946,223.974 77.260,223.156 74.063 C 221.991 69.507,220.466 66.858,216.967 63.313 C 213.901 60.206,210.983 58.417,206.507 56.901 C 204.250 56.137,200.821 56.104,117.547 56.050 C 69.909 56.019,29.781 56.146,28.373 56.333 M203.512 72.956 C 204.428 73.423,205.716 74.512,206.375 75.376 L 207.573 76.947 207.573 128.034 L 207.573 179.121 206.283 180.715 C 205.573 181.593,204.328 182.666,203.516 183.102 C 202.092 183.865,198.992 183.893,116.153 183.893 C 44.983 183.893,30.030 183.795,28.886 183.317 C 27.230 182.625,24.884 180.059,24.433 178.446 C 24.007 176.923,24.007 79.077,24.433 77.554 C 24.871 75.990,27.203 73.394,28.792 72.701 C 29.842 72.244,45.949 72.137,115.964 72.123 C 200.889 72.107,201.866 72.116,203.512 72.956 M114.987 88.104 C 114.752 88.182,114.036 88.361,113.394 88.502 C 111.668 88.883,109.376 91.100,108.594 93.147 C 107.998 94.710,107.923 97.037,108.033 110.727 C 108.159 126.418,108.166 126.516,109.157 128.110 C 111.157 131.327,115.637 132.738,119.167 131.264 C 120.991 130.502,123.151 127.990,123.708 125.985 C 124.328 123.751,124.307 96.333,123.683 94.080 C 123.035 91.741,121.820 90.154,119.964 89.221 C 118.387 88.429,115.776 87.843,114.987 88.104 M246.339 88.301 C 244.141 88.824,242.167 90.296,241.050 92.246 L 240.000 94.080 240.000 128.000 L 240.000 161.920 241.156 163.886 C 242.490 166.156,243.678 167.042,246.342 167.755 C 249.811 168.682,253.597 166.743,255.198 163.218 C 255.936 161.592,255.982 159.575,255.991 128.093 C 256.001 91.969,256.063 93.014,253.740 90.525 C 251.938 88.596,248.919 87.689,246.339 88.301 M111.980 144.779 C 107.059 146.675,104.107 150.858,104.107 155.934 C 104.107 163.861,111.681 169.686,119.160 167.512 C 127.744 165.017,130.798 154.610,124.848 148.129 C 122.406 145.469,119.562 144.214,116.053 144.250 C 114.528 144.266,112.695 144.504,111.980 144.779 " stroke="none" fill-rule="evenodd"></path></svg>