<svg fill="currentColor" viewBox="0 0 256 256" xmlns="http://www.w3.org/2000/svg"><path d="M28.373 56.333 C 19.313 57.536,11.143 64.941,8.783 74.088 C 8.184 76.410,8.107 82.571,8.107 128.000 C 8.107 173.429,8.184 179.590,8.783 181.912 C 10.808 189.761,16.999 196.307,24.820 198.869 L 27.947 199.893 116.267 199.893 L 204.587 199.893 207.787 198.666 C 211.907 197.086,214.867 195.110,217.687 192.056 C 220.551 188.954,222.089 186.109,223.156 181.937 C 223.974 178.740,224.000 177.054,224.000 128.000 C 224.000 78.946,223.974 77.260,223.156 74.063 C 221.991 69.507,220.466 66.858,216.967 63.313 C 213.901 60.206,210.983 58.417,206.507 56.901 C 204.250 56.137,200.821 56.104,117.547 56.050 C 69.909 56.019,29.781 56.146,28.373 56.333 M203.512 72.956 C 204.428 73.423,205.716 74.512,206.375 75.376 L 207.573 76.947 207.573 128.034 L 207.573 179.121 206.283 180.715 C 205.573 181.593,204.328 182.666,203.516 183.102 C 202.092 183.865,198.992 183.893,116.153 183.893 C 44.983 183.893,30.030 183.795,28.886 183.317 C 27.230 182.625,24.884 180.059,24.433 178.446 C 24.007 176.923,24.007 79.077,24.433 77.554 C 24.871 75.990,27.203 73.394,28.792 72.701 C 29.842 72.244,45.949 72.137,115.964 72.123 C 200.889 72.107,201.866 72.116,203.512 72.956 M246.339 88.301 C 244.141 88.824,242.167 90.296,241.050 92.246 L 240.000 94.080 240.000 128.000 L 240.000 161.920 241.156 163.886 C 242.490 166.156,243.678 167.042,246.342 167.755 C 249.811 168.682,253.597 166.743,255.198 163.218 C 255.936 161.592,255.982 159.575,255.991 128.093 C 256.001 91.969,256.063 93.014,253.740 90.525 C 251.938 88.596,248.919 87.689,246.339 88.301 M112.285 93.076 C 111.204 93.610,109.964 94.704,109.298 95.709 L 108.160 97.429 108.028 108.629 L 107.895 119.830 96.934 119.968 L 85.973 120.107 84.049 121.238 C 80.124 123.545,78.945 128.289,81.337 132.141 C 83.544 135.694,84.268 135.874,96.934 136.020 L 107.895 136.147 108.028 147.327 C 108.156 158.187,108.188 158.552,109.157 160.110 C 111.157 163.327,115.637 164.738,119.167 163.264 C 120.991 162.502,123.151 159.990,123.708 157.985 C 123.962 157.070,124.156 151.994,124.158 146.240 L 124.160 136.107 134.720 136.097 C 144.087 136.089,145.473 135.999,146.987 135.298 C 150.138 133.839,151.893 131.227,151.893 128.000 C 151.893 125.858,151.262 124.238,149.840 122.735 C 147.420 120.178,147.108 120.119,135.147 119.968 L 124.160 119.830 124.158 109.728 C 124.156 103.996,123.962 98.930,123.708 98.015 C 123.151 96.010,120.991 93.498,119.167 92.736 C 117.153 91.895,114.396 92.031,112.285 93.076 " stroke="none" fill-rule="evenodd"></path></svg>