<svg fill="currentColor" viewBox="0 0 256 256" xmlns="http://www.w3.org/2000/svg"><path d="M29.979 56.296 C 28.152 56.746,25.779 58.594,24.853 60.289 C 24.153 61.569,24.100 65.712,23.995 127.081 C 23.914 173.957,24.017 193.007,24.356 194.266 C 24.975 196.567,27.456 199.031,29.785 199.658 C 31.087 200.009,41.143 200.107,65.823 200.008 L 100.053 199.872 104.290 198.715 C 119.528 194.551,130.848 183.207,134.626 168.313 C 137.643 156.418,135.459 144.329,128.421 133.965 C 126.158 130.633,121.592 126.045,118.343 123.839 L 115.725 122.062 117.427 120.231 C 121.793 115.535,125.132 109.549,126.776 103.467 C 127.990 98.979,128.110 89.995,127.015 85.609 C 123.486 71.472,113.359 61.038,99.509 57.270 L 95.360 56.141 63.360 56.048 C 45.760 55.997,30.739 56.109,29.979 56.296 M95.273 72.742 C 102.944 74.740,109.236 80.839,111.130 88.113 C 111.981 91.379,111.970 96.929,111.106 99.869 C 109.015 106.988,104.125 112.177,96.939 114.903 C 94.553 115.809,93.993 115.828,67.307 115.957 L 40.107 116.089 40.107 94.098 L 40.107 72.107 66.470 72.107 C 88.442 72.107,93.240 72.213,95.273 72.742 M164.338 73.022 C 161.590 74.383,160.213 76.711,160.213 80.000 C 160.213 83.321,161.601 85.646,164.389 86.996 C 166.273 87.908,166.289 87.908,200.610 87.794 L 234.947 87.680 236.522 86.478 C 239.439 84.253,240.453 81.414,239.571 77.940 C 238.986 75.635,237.710 74.087,235.430 72.918 C 233.914 72.141,232.432 72.107,200.017 72.107 C 166.288 72.107,166.181 72.110,164.338 73.022 M194.133 104.354 C 189.087 105.250,187.679 105.580,184.816 106.537 C 168.568 111.968,156.559 125.542,152.940 142.567 C 148.478 163.565,159.655 185.906,179.263 195.180 C 194.070 202.183,210.665 201.469,224.551 193.233 C 231.050 189.378,238.415 182.020,239.555 178.242 C 241.537 171.677,234.711 165.944,228.495 168.953 C 227.534 169.418,225.900 170.810,224.865 172.046 C 218.448 179.703,209.695 183.897,200.145 183.890 C 187.605 183.881,176.963 177.315,171.583 166.266 C 170.419 163.876,169.371 161.488,169.253 160.960 L 169.040 160.000 205.345 160.000 C 241.470 160.000,241.660 159.995,243.520 159.095 C 246.346 157.727,247.633 155.489,247.829 151.599 C 248.126 145.715,246.482 138.238,243.428 131.589 C 238.872 121.668,229.441 112.501,219.246 108.083 C 213.348 105.527,208.421 104.487,201.387 104.316 C 197.984 104.232,194.720 104.250,194.133 104.354 M207.985 120.991 C 215.241 122.940,221.686 127.384,225.981 133.399 C 227.976 136.192,230.104 140.539,230.596 142.827 L 230.894 144.213 200.212 144.213 C 183.336 144.213,169.417 144.101,169.280 143.964 C 168.902 143.587,170.506 139.236,172.008 136.559 C 176.754 128.106,184.798 122.318,194.347 120.485 C 197.968 119.790,204.404 120.029,207.985 120.991 M102.708 133.481 C 115.297 138.174,122.350 151.536,119.050 164.439 C 117.841 169.167,115.903 172.518,112.213 176.256 C 109.828 178.673,108.198 179.894,105.813 181.050 C 99.812 183.958,100.654 183.893,68.817 183.893 L 40.107 183.893 40.107 158.066 L 40.107 132.239 70.080 132.365 L 100.053 132.491 102.708 133.481 " stroke="none" fill-rule="evenodd"></path></svg>