<svg fill="currentColor" viewBox="0 0 256 256" xmlns="http://www.w3.org/2000/svg"><path d="M121.692 24.352 C 111.840 25.109,101.471 27.959,92.663 32.332 C 87.381 34.954,85.646 36.508,84.899 39.283 C 83.600 44.107,87.447 49.125,92.495 49.192 C 94.099 49.214,95.502 48.736,99.413 46.839 C 105.113 44.074,109.350 42.602,115.369 41.294 C 121.615 39.937,134.385 39.937,140.631 41.294 C 166.448 46.904,185.341 65.854,190.707 91.520 C 191.396 94.820,191.688 98.445,191.993 107.520 C 192.670 127.682,194.386 141.641,198.024 156.587 C 199.500 162.653,202.807 173.092,203.995 175.442 C 206.230 179.859,212.460 181.065,216.179 177.799 C 219.452 174.926,219.610 172.343,216.995 164.515 C 211.782 148.914,208.216 126.739,208.212 109.911 C 208.211 103.288,207.532 94.202,206.702 89.707 C 203.257 71.039,193.053 53.768,178.602 42.144 C 165.265 31.416,150.621 25.637,133.452 24.328 C 130.336 24.090,127.403 23.922,126.933 23.955 C 126.464 23.988,124.105 24.166,121.692 24.352 M44.587 32.806 C 42.612 33.718,41.209 35.120,40.562 36.828 C 39.927 38.503,39.994 41.581,40.701 43.214 C 41.028 43.969,45.237 48.907,50.055 54.187 L 58.814 63.787 57.536 66.133 C 53.593 73.374,50.131 83.834,48.873 92.305 C 48.516 94.710,48.036 102.141,47.807 108.819 C 47.237 125.398,46.142 135.297,43.489 147.840 C 41.069 159.287,38.732 166.495,34.642 175.136 C 32.247 180.196,32.213 180.320,32.213 184.116 C 32.213 187.602,32.345 188.232,33.610 190.802 C 35.341 194.317,38.712 197.521,42.135 198.903 L 44.587 199.893 113.757 200.107 L 182.927 200.320 192.998 211.413 C 199.998 219.124,203.561 222.731,204.681 223.242 C 208.106 224.805,212.158 223.777,214.458 220.762 C 215.913 218.855,216.328 215.175,215.346 212.893 C 214.354 210.590,53.738 34.141,51.558 32.960 C 49.401 31.792,46.904 31.737,44.587 32.806 M119.313 130.347 L 167.796 183.680 108.148 183.788 C 75.342 183.848,48.454 183.848,48.397 183.788 C 48.340 183.729,49.119 181.952,50.128 179.840 C 55.142 169.342,59.830 151.378,62.043 134.184 C 63.179 125.362,63.602 119.617,63.992 107.733 C 64.375 96.037,64.858 92.052,66.627 85.973 C 67.813 81.897,69.986 76.733,70.449 76.888 C 70.658 76.957,92.647 101.014,119.313 130.347 M93.979 216.302 C 91.046 217.012,88.705 219.593,88.109 222.773 C 87.437 226.351,90.134 230.651,93.663 231.631 C 96.039 232.290,159.961 232.290,162.337 231.631 C 164.597 231.003,167.042 228.502,167.668 226.176 C 168.620 222.643,167.345 219.374,164.208 217.297 L 162.410 216.107 128.885 216.037 C 110.446 215.999,94.739 216.119,93.979 216.302 " stroke="none" fill-rule="evenodd"></path></svg>