<svg fill="currentColor" viewBox="0 0 256 256" xmlns="http://www.w3.org/2000/svg"><path d="M121.545 24.343 C 92.572 26.426,65.941 45.507,54.575 72.326 C 49.750 83.711,47.791 94.432,47.788 109.461 C 47.785 123.620,45.051 143.398,41.132 157.606 C 39.200 164.609,37.675 168.728,34.642 175.136 C 32.247 180.196,32.213 180.320,32.213 184.116 C 32.213 187.602,32.345 188.232,33.610 190.802 C 35.341 194.317,38.712 197.521,42.135 198.903 C 44.563 199.884,44.799 199.895,66.715 200.107 L 88.842 200.320 89.781 203.520 C 93.663 216.760,104.374 227.052,118.072 230.703 C 124.055 232.297,131.945 232.297,137.928 230.703 C 151.626 227.052,162.337 216.760,166.219 203.520 L 167.158 200.320 189.285 200.107 L 211.413 199.893 213.973 198.864 C 215.778 198.138,217.300 197.068,219.131 195.237 C 222.571 191.797,223.738 188.942,223.766 183.893 C 223.786 180.352,223.729 180.146,221.367 175.147 C 218.262 168.578,217.077 165.407,215.027 158.175 C 210.935 143.744,208.847 128.781,208.213 109.348 C 207.989 102.491,207.512 94.907,207.153 92.494 C 202.167 59.016,176.796 32.238,143.796 25.622 C 139.914 24.844,129.305 23.798,126.933 23.959 C 126.464 23.991,124.039 24.164,121.545 24.343 M137.169 40.754 C 149.534 42.618,159.962 47.359,169.727 55.558 C 180.209 64.359,187.934 77.627,190.762 91.690 C 191.365 94.685,191.697 99.000,191.998 107.733 C 192.558 124.009,193.562 134.058,195.876 146.560 C 197.995 158.010,202.209 172.083,205.854 179.882 L 207.728 183.893 127.935 183.893 C 84.049 183.893,48.216 183.749,48.306 183.573 C 52.109 176.166,55.181 167.525,57.799 156.876 C 61.693 141.033,63.308 128.206,64.013 107.520 C 64.305 98.962,64.636 94.678,65.238 91.690 C 70.595 65.062,91.619 44.952,118.468 40.776 C 123.569 39.983,131.985 39.973,137.169 40.754 M149.902 201.707 C 146.395 210.113,137.471 215.893,128.000 215.893 C 118.529 215.893,109.605 210.113,106.098 201.707 L 105.430 200.107 128.000 200.107 L 150.570 200.107 149.902 201.707 " stroke="none" fill-rule="evenodd"></path></svg>