<svg fill="currentColor" viewBox="0 0 256 256" xmlns="http://www.w3.org/2000/svg"><path d="M28.800 40.711 C 26.358 41.801,23.893 45.383,23.893 47.842 C 23.893 48.357,24.646 51.099,25.566 53.936 C 34.087 80.204,34.007 126.077,25.377 161.631 L 23.893 167.741 23.893 184.474 C 23.893 202.138,24.056 203.942,25.986 207.693 C 27.184 210.022,30.563 213.191,33.264 214.518 L 35.627 215.680 52.956 215.680 L 70.286 215.680 77.833 211.947 L 85.381 208.213 93.896 208.213 L 102.411 208.213 108.699 211.353 C 118.500 216.246,116.626 215.949,136.856 215.805 L 154.342 215.680 161.888 211.947 L 169.434 208.213 177.903 208.213 L 186.373 208.213 193.978 211.947 L 201.584 215.680 218.881 215.680 L 236.178 215.680 238.995 214.293 C 242.334 212.649,244.956 209.972,246.545 206.581 L 247.680 204.160 247.680 181.973 L 247.680 159.787 246.512 155.190 C 243.681 144.043,238.542 135.170,230.479 127.511 C 224.301 121.641,217.006 117.276,209.174 114.763 C 201.958 112.448,199.193 112.217,178.667 112.215 L 160.000 112.213 160.000 83.032 C 160.000 55.014,159.966 53.742,159.145 51.138 C 157.587 46.201,153.556 42.189,148.677 40.720 C 145.741 39.837,30.779 39.828,28.800 40.711 M143.787 68.053 L 143.787 80.213 126.920 80.213 C 108.273 80.213,108.310 80.209,105.934 82.914 C 102.667 86.636,103.979 92.916,108.480 95.095 C 110.287 95.970,110.903 96.000,127.068 96.000 L 143.787 96.000 143.787 104.107 L 143.787 112.213 126.961 112.213 C 116.110 112.213,109.709 112.374,108.934 112.667 C 103.224 114.825,102.452 123.203,107.647 126.641 L 109.377 127.787 153.782 128.010 L 198.187 128.234 201.803 129.239 C 215.898 133.153,226.653 143.639,230.399 157.120 L 231.199 160.000 136.691 160.000 C 46.883 160.000,42.193 159.963,42.404 159.253 C 43.505 155.534,46.018 138.376,47.012 127.787 C 47.892 118.423,47.760 87.341,46.806 79.001 C 46.026 72.176,44.278 61.451,43.528 58.883 C 43.289 58.063,43.093 57.055,43.093 56.643 C 43.093 55.932,45.703 55.893,93.440 55.893 L 143.787 55.893 143.787 68.053 M232.107 188.160 L 232.107 200.107 219.088 200.107 L 206.070 200.107 199.342 196.738 C 189.888 192.004,189.871 192.000,178.290 192.000 C 172.947 192.000,167.617 192.206,166.445 192.457 C 165.273 192.708,161.024 194.532,157.002 196.510 L 149.689 200.107 135.880 200.107 L 122.072 200.107 114.102 196.160 L 106.132 192.213 94.080 192.213 L 82.028 192.213 74.058 196.160 L 66.088 200.107 53.097 200.107 L 40.107 200.107 40.107 188.160 L 40.107 176.213 136.107 176.213 L 232.107 176.213 232.107 188.160 " stroke="none" fill-rule="evenodd"></path></svg>