<svg fill="currentColor" viewBox="0 0 256 256" xmlns="http://www.w3.org/2000/svg"><path d="M36.907 32.809 C 34.738 33.813,32.954 35.708,32.418 37.576 C 31.845 39.575,31.850 216.405,32.424 218.468 C 32.948 220.357,35.634 223.025,37.568 223.579 C 38.443 223.831,47.621 224.000,60.342 224.000 C 81.184 224.000,81.691 223.980,83.520 223.095 C 86.373 221.714,87.680 219.439,87.680 215.857 C 87.680 213.292,87.540 212.811,86.370 211.346 C 83.823 208.160,84.196 208.215,65.173 208.214 L 48.213 208.213 48.213 128.236 L 48.213 48.259 64.960 48.129 C 83.820 47.984,83.702 48.003,86.373 44.654 C 87.539 43.190,87.680 42.705,87.680 40.143 C 87.680 36.561,86.373 34.286,83.520 32.905 C 81.690 32.019,81.198 32.000,60.132 32.009 C 40.097 32.018,38.496 32.073,36.907 32.809 M172.445 32.916 C 169.050 34.596,167.272 39.060,168.508 42.802 C 169.243 45.031,171.833 47.173,174.478 47.741 C 175.862 48.037,182.468 48.213,192.234 48.213 L 207.787 48.213 207.787 128.213 L 207.787 208.213 190.920 208.213 C 172.273 208.213,172.310 208.209,169.934 210.914 C 166.667 214.636,167.979 220.916,172.480 223.095 C 174.309 223.980,174.816 224.000,195.658 224.000 C 208.379 224.000,217.557 223.831,218.432 223.579 C 220.366 223.025,223.052 220.357,223.576 218.468 C 224.151 216.399,224.150 39.597,223.575 37.528 C 223.344 36.696,222.529 35.410,221.764 34.669 C 218.962 31.958,219.375 32.000,195.747 32.000 C 174.672 32.001,174.261 32.017,172.445 32.916 " stroke="none" fill-rule="evenodd"></path></svg>