<svg fill="currentColor" viewBox="0 0 256 256" xmlns="http://www.w3.org/2000/svg"><path d="M68.480 32.981 C 61.088 36.515,48.478 49.840,41.145 61.867 C 25.339 87.790,20.077 123.147,26.927 157.404 C 31.153 178.538,41.566 198.569,55.676 212.707 C 60.471 217.512,66.536 222.390,69.000 223.424 C 71.796 224.597,75.386 223.825,77.776 221.536 C 79.357 220.021,80.318 216.656,79.804 214.433 C 79.279 212.164,78.302 210.958,74.838 208.303 C 59.623 196.639,48.669 179.104,43.568 158.244 C 40.966 147.606,40.368 141.951,40.368 128.000 C 40.368 117.100,40.496 114.584,41.322 109.227 C 43.285 96.493,46.333 86.610,51.388 76.587 C 57.624 64.219,64.685 55.527,74.842 47.709 C 78.698 44.742,79.456 43.660,79.694 40.790 C 79.963 37.552,78.692 34.955,76.094 33.432 C 73.404 31.855,71.117 31.720,68.480 32.981 M180.907 32.680 C 176.413 34.627,174.646 40.199,177.258 44.186 C 177.645 44.777,179.138 46.164,180.577 47.270 C 188.608 53.440,193.323 58.451,198.930 66.773 C 210.104 83.359,215.893 104.251,215.893 128.000 C 215.893 147.028,212.488 163.063,205.249 178.133 C 198.987 191.170,191.365 200.478,179.466 209.622 C 176.624 211.806,175.563 214.496,176.283 217.697 C 177.353 222.462,182.605 225.268,187.000 223.424 C 191.626 221.483,202.665 211.141,208.703 203.093 C 222.777 184.333,230.081 163.150,231.765 136.213 C 232.556 123.558,231.445 109.284,228.703 96.853 C 223.331 72.509,210.082 50.145,193.067 36.698 C 187.454 32.263,184.287 31.216,180.907 32.680 " stroke="none" fill-rule="evenodd"></path></svg>