<svg fill="currentColor" viewBox="0 0 256 256" xmlns="http://www.w3.org/2000/svg"><path d="M119.942 16.872 C 105.737 19.954,94.591 29.842,90.069 43.372 C 88.158 49.092,87.893 52.410,87.893 70.669 L 87.893 87.893 84.587 87.884 C 80.693 87.873,78.299 86.968,75.804 84.563 C 73.275 82.126,72.508 80.239,72.063 75.355 C 71.301 66.986,68.912 61.594,63.610 56.272 C 60.973 53.627,59.622 52.663,56.320 51.073 C 51.214 48.615,48.211 48.026,42.327 48.331 C 34.909 48.715,29.539 51.096,24.311 56.316 C 17.781 62.837,15.309 70.433,16.231 81.151 C 17.026 90.404,19.248 98.382,23.278 106.453 C 26.507 112.920,30.515 118.409,36.053 123.947 C 48.652 136.546,63.485 142.960,82.453 144.014 L 87.893 144.316 87.893 176.265 L 87.893 208.213 62.916 208.213 C 38.899 208.213,37.876 208.246,36.290 209.055 C 33.194 210.634,31.649 213.775,32.191 217.389 C 32.568 219.899,35.156 222.916,37.488 223.564 C 39.633 224.160,216.367 224.160,218.512 223.564 C 220.844 222.916,223.432 219.899,223.809 217.389 C 224.351 213.775,222.806 210.634,219.710 209.055 C 218.124 208.246,217.101 208.213,193.084 208.213 L 168.107 208.213 168.107 196.114 L 168.107 184.014 174.827 183.764 C 182.287 183.486,186.875 182.654,193.907 180.300 C 220.901 171.268,239.822 145.185,239.884 116.922 C 239.903 108.050,237.623 102.339,231.695 96.411 C 225.978 90.694,220.016 88.203,212.053 88.203 C 201.027 88.203,191.565 94.104,186.898 103.893 C 184.939 108.003,184.386 110.184,183.907 115.703 C 183.488 120.528,182.515 122.655,179.580 125.168 C 177.304 127.116,174.637 128.000,171.034 128.000 L 168.140 128.000 167.999 89.067 C 167.858 50.347,167.852 50.113,166.903 46.507 C 162.925 31.391,151.028 19.984,136.018 16.891 C 131.980 16.059,123.735 16.049,119.942 16.872 M132.508 32.456 C 139.092 33.642,145.879 38.641,148.974 44.587 C 151.817 50.045,151.636 46.939,151.882 94.507 C 152.104 137.607,152.115 138.043,152.999 139.733 C 153.554 140.797,154.668 141.922,155.954 142.720 L 158.018 144.000 167.009 143.970 C 177.147 143.937,179.249 143.571,184.747 140.888 C 187.106 139.736,188.854 138.427,191.402 135.903 C 196.917 130.440,199.287 125.168,200.064 116.639 C 200.498 111.872,201.111 110.279,203.460 107.804 C 206.055 105.070,207.881 104.331,212.053 104.325 C 215.244 104.321,215.919 104.461,217.671 105.490 C 222.457 108.304,224.298 112.319,223.834 118.929 C 222.311 140.588,208.485 158.663,188.373 165.286 C 181.929 167.408,179.533 167.740,169.173 167.944 C 163.776 168.050,158.732 168.236,157.964 168.356 C 156.164 168.639,153.678 170.832,152.689 173.010 C 151.980 174.570,151.911 176.191,151.903 191.467 L 151.893 208.213 128.000 208.213 L 104.107 208.213 104.097 171.413 C 104.088 136.548,104.047 134.524,103.300 132.907 C 102.347 130.841,100.996 129.541,98.888 128.660 C 97.638 128.138,95.496 128.000,88.654 127.998 C 79.129 127.996,74.438 127.438,68.620 125.612 C 60.295 123.000,53.534 118.882,47.360 112.661 C 37.651 102.879,32.430 90.837,32.275 77.867 C 32.216 72.939,32.261 72.661,33.474 70.471 C 38.131 62.064,49.581 61.926,54.441 70.218 C 55.323 71.723,55.619 72.984,55.929 76.554 C 57.053 89.498,64.166 98.892,75.724 102.698 C 78.852 103.728,79.883 103.841,87.691 104.008 C 93.521 104.133,96.837 104.029,98.129 103.681 C 100.504 103.042,102.997 100.620,103.631 98.337 C 103.946 97.203,104.105 89.421,104.111 74.880 C 104.120 50.577,104.174 50.013,106.993 44.631 C 109.225 40.371,113.031 36.720,117.472 34.579 C 122.559 32.126,127.111 31.484,132.508 32.456 " stroke="none" fill-rule="evenodd"></path></svg>