<svg fill="currentColor" viewBox="0 0 256 256" xmlns="http://www.w3.org/2000/svg"><path d="M120.747 24.320 C 100.702 25.678,81.581 32.877,64.891 45.350 C 59.600 49.305,49.272 59.644,45.285 64.978 C 29.947 85.496,22.391 110.531,24.234 134.720 C 25.330 149.089,28.553 161.196,34.542 173.440 C 40.032 184.661,45.528 192.320,54.604 201.396 C 63.683 210.475,71.346 215.974,82.560 221.456 C 97.130 228.578,111.425 231.847,128.000 231.847 C 144.575 231.847,158.870 228.578,173.440 221.456 C 184.654 215.974,192.317 210.475,201.396 201.396 C 210.475 192.317,215.974 184.654,221.456 173.440 C 228.578 158.870,231.847 144.575,231.847 128.000 C 231.847 121.892,231.622 117.709,231.099 114.133 C 228.432 95.894,221.715 79.693,210.721 64.986 C 206.728 59.644,196.403 49.307,191.109 45.350 C 176.201 34.209,159.489 27.336,141.653 25.012 C 135.278 24.181,126.900 23.904,120.747 24.320 M142.080 41.154 C 181.757 47.879,211.426 79.523,215.448 119.405 C 218.151 146.209,208.013 173.388,188.404 191.906 C 175.505 204.088,160.576 211.503,142.080 214.916 C 136.317 215.980,119.685 215.980,113.920 214.917 C 95.373 211.495,80.131 203.870,67.278 191.582 C 53.392 178.307,44.449 161.321,41.102 141.867 C 40.072 135.875,40.072 120.125,41.102 114.133 C 46.510 82.696,66.944 57.479,96.401 45.891 C 101.417 43.918,110.346 41.621,115.413 41.001 C 117.525 40.743,119.733 40.449,120.320 40.349 C 122.768 39.931,138.240 40.503,142.080 41.154 M91.679 81.436 C 89.675 82.707,88.445 84.658,88.028 87.229 C 87.495 90.512,87.860 90.958,105.968 109.166 C 123.506 126.800,124.890 127.981,128.000 127.981 C 131.110 127.981,132.494 126.800,150.032 109.166 C 168.140 90.958,168.505 90.512,167.972 87.229 C 167.285 82.994,164.168 80.213,160.109 80.213 C 158.852 80.213,157.210 80.522,156.459 80.900 C 155.708 81.277,148.997 87.657,141.547 95.077 L 128.000 108.569 114.453 95.077 C 107.003 87.657,100.292 81.277,99.541 80.900 C 97.298 79.772,93.942 80.001,91.679 81.436 M92.800 136.714 C 90.151 137.901,87.923 141.227,87.903 144.023 C 87.880 147.137,89.486 149.035,106.547 166.057 C 117.689 177.175,123.613 182.785,124.680 183.231 C 126.703 184.076,129.297 184.076,131.320 183.231 C 132.387 182.785,138.311 177.175,149.453 166.057 C 169.292 146.263,169.649 145.746,167.047 140.564 C 165.735 137.949,163.647 136.472,160.890 136.207 C 156.838 135.817,156.618 135.984,141.757 150.760 L 127.994 164.444 114.442 150.935 C 105.497 142.018,100.352 137.201,99.311 136.766 C 97.390 135.963,94.526 135.940,92.800 136.714 " stroke="none" fill-rule="evenodd"></path></svg>