<svg fill="currentColor" viewBox="0 0 256 256" xmlns="http://www.w3.org/2000/svg"><path d="M120.960 24.326 C 100.935 25.586,81.587 32.844,64.891 45.360 C 59.554 49.360,49.234 59.686,45.276 64.986 C 34.512 79.399,27.973 94.882,25.095 112.768 C 23.886 120.283,23.787 134.307,24.890 141.867 C 27.542 160.046,34.293 176.318,45.279 191.014 C 49.299 196.392,59.608 206.701,64.986 210.721 C 79.686 221.710,96.000 228.476,114.133 231.105 C 117.683 231.620,121.936 231.847,128.000 231.847 C 144.598 231.847,158.874 228.583,173.440 221.458 C 184.661 215.968,192.320 210.472,201.396 201.396 C 210.475 192.317,215.974 184.654,221.456 173.440 C 235.707 144.287,235.458 110.173,220.780 81.026 C 214.698 68.950,203.517 55.194,193.067 46.931 C 172.349 30.550,147.221 22.673,120.960 24.326 M142.080 41.152 C 159.933 44.170,175.895 52.156,188.870 64.559 C 202.597 77.682,211.532 94.696,214.904 114.133 C 215.937 120.088,215.932 135.829,214.895 141.867 C 212.390 156.454,206.990 169.066,198.207 180.843 C 173.373 214.141,127.558 225.417,90.240 207.417 C 81.119 203.017,74.345 198.338,67.182 191.490 C 53.399 178.314,44.463 161.314,41.098 141.867 C 40.060 135.867,40.060 120.133,41.098 114.133 C 46.547 82.647,66.943 57.480,96.401 45.891 C 101.417 43.918,110.346 41.621,115.413 41.001 C 117.525 40.743,119.733 40.449,120.320 40.349 C 122.762 39.932,138.241 40.503,142.080 41.152 M84.693 104.814 C 82.470 105.984,81.067 107.630,80.413 109.833 C 79.853 111.719,79.852 112.219,80.410 114.117 C 81.000 116.126,82.430 117.654,102.280 137.478 C 116.920 152.098,124.013 158.894,125.106 159.345 C 127.201 160.210,129.114 160.159,131.200 159.182 C 132.348 158.645,139.855 151.414,154.115 137.112 C 174.526 116.640,175.335 115.768,175.627 113.920 C 175.794 112.864,175.914 111.904,175.896 111.787 C 175.877 111.669,175.749 110.868,175.611 110.006 C 174.910 105.625,169.280 102.899,164.786 104.765 C 163.708 105.213,157.562 111.054,145.600 122.999 L 128.000 140.573 110.400 122.999 C 98.438 111.054,92.292 105.213,91.214 104.765 C 89.195 103.927,86.339 103.949,84.693 104.814 " stroke="none" fill-rule="evenodd"></path></svg>