<svg fill="currentColor" viewBox="0 0 256 256" xmlns="http://www.w3.org/2000/svg"><path d="M156.587 40.759 C 154.960 41.484,75.505 120.575,73.482 123.484 C 72.500 124.895,72.320 125.595,72.320 128.000 C 72.320 130.404,72.500 131.106,73.481 132.516 C 74.120 133.435,92.840 152.357,115.081 174.564 C 147.962 207.396,155.828 215.040,157.170 215.467 C 159.461 216.196,162.650 215.805,164.474 214.571 C 166.209 213.397,168.111 209.959,168.097 208.023 C 168.073 204.620,167.751 204.270,128.944 165.440 L 91.527 128.000 128.944 90.560 C 167.751 51.730,168.073 51.380,168.097 47.977 C 168.111 46.025,166.209 42.603,164.447 41.411 C 162.503 40.096,158.770 39.786,156.587 40.759 " stroke="none" fill-rule="evenodd"></path></svg>