<svg fill="currentColor" viewBox="0 0 256 256" xmlns="http://www.w3.org/2000/svg"><path d="M116.693 40.807 C 114.540 41.927,33.737 122.844,32.820 124.800 C 31.803 126.967,31.803 129.033,32.820 131.200 C 33.820 133.333,115.242 214.779,117.041 215.447 C 121.811 217.219,127.326 213.896,127.888 208.912 C 128.345 204.853,129.912 206.598,89.238 165.867 L 51.425 128.000 89.238 90.133 C 129.912 49.402,128.345 51.147,127.888 47.088 C 127.305 41.918,121.173 38.477,116.693 40.807 M196.693 40.781 C 194.814 41.587,114.768 121.438,113.203 124.068 C 112.431 125.365,112.115 126.507,112.115 128.000 C 112.115 129.493,112.431 130.635,113.203 131.932 C 114.868 134.730,194.834 214.429,196.786 215.237 C 201.468 217.174,206.350 214.783,207.607 209.938 C 208.079 208.118,208.072 207.454,207.565 205.768 C 207.014 203.937,203.683 200.485,169.083 165.883 L 131.204 128.002 169.243 89.921 C 206.454 52.667,207.290 51.795,207.707 49.757 C 209.024 43.328,202.724 38.194,196.693 40.781 " stroke="none" fill-rule="evenodd"></path></svg>