<svg fill="currentColor" viewBox="0 0 256 256" xmlns="http://www.w3.org/2000/svg"><path d="M199.040 24.104 C 198.805 24.182,198.100 24.358,197.473 24.496 C 195.816 24.860,193.703 26.799,192.802 28.782 C 192.058 30.420,192.018 32.775,192.012 75.733 C 192.007 104.905,192.158 121.511,192.436 122.512 C 193.084 124.844,196.101 127.432,198.611 127.809 C 202.995 128.466,206.871 125.796,207.762 121.504 C 208.092 119.916,208.198 105.901,208.116 74.659 L 208.000 30.080 206.869 28.155 C 206.203 27.024,205.061 25.859,204.095 25.328 C 202.496 24.448,199.899 23.819,199.040 24.104 M156.800 64.806 C 154.735 65.760,153.435 67.110,152.554 69.219 C 151.982 70.586,151.895 74.214,151.903 96.093 C 151.911 119.772,151.962 121.496,152.700 123.093 C 155.673 129.535,164.327 129.535,167.300 123.093 C 168.038 121.495,168.088 119.781,168.088 96.000 C 168.088 72.219,168.038 70.505,167.300 68.907 C 165.370 64.725,160.823 62.949,156.800 64.806 M116.425 104.938 C 114.163 106.169,112.765 108.064,112.235 110.616 C 111.909 112.186,111.803 126.364,111.884 157.447 C 111.991 198.456,112.058 202.133,112.725 203.350 C 113.689 205.111,116.214 207.286,117.661 207.603 C 118.302 207.743,119.043 207.923,119.307 208.002 C 120.307 208.302,123.559 207.269,124.945 206.212 C 125.737 205.607,126.745 204.322,127.184 203.356 C 127.947 201.676,127.982 199.614,127.991 155.975 L 128.000 110.349 127.095 108.480 C 125.275 104.720,120.027 102.979,116.425 104.938 M76.587 144.818 C 74.997 145.528,73.160 147.454,72.560 149.041 C 72.258 149.841,72.107 158.851,72.107 176.041 C 72.107 196.999,72.217 202.098,72.694 203.214 C 74.086 206.468,78.141 208.490,81.686 207.698 C 83.892 207.205,84.983 206.482,86.478 204.522 L 87.680 202.946 87.680 175.966 L 87.680 148.986 86.370 147.346 C 85.649 146.444,84.401 145.371,83.596 144.961 C 81.863 144.077,78.405 144.006,76.587 144.818 M155.679 145.436 C 152.569 147.408,151.212 151.269,152.472 154.564 C 152.997 155.937,155.482 158.690,162.769 165.970 C 168.051 171.248,172.373 175.755,172.373 175.985 C 172.373 176.215,167.975 180.824,162.599 186.228 C 151.702 197.182,151.235 197.879,152.245 201.658 C 152.952 204.300,153.843 205.510,156.022 206.787 C 158.268 208.103,161.265 208.249,163.446 207.147 C 164.249 206.741,169.230 202.113,174.514 196.862 L 184.122 187.315 193.928 197.138 C 202.816 206.042,203.934 207.019,205.883 207.591 C 207.780 208.147,208.282 208.147,210.161 207.589 C 214.869 206.191,217.138 201.355,215.231 196.786 C 214.806 195.767,211.147 191.766,204.995 185.592 L 195.422 175.984 204.814 166.606 C 210.532 160.896,214.536 156.548,215.050 155.492 C 217.066 151.345,215.181 146.222,211.066 144.667 C 209.387 144.033,206.309 144.102,204.680 144.810 C 203.924 145.138,198.990 149.745,193.714 155.046 L 184.122 164.685 174.514 155.138 C 169.230 149.887,164.292 145.281,163.541 144.902 C 161.301 143.772,157.943 144.000,155.679 145.436 M39.040 184.104 C 38.805 184.182,38.100 184.358,37.473 184.496 C 35.816 184.860,33.703 186.799,32.802 188.782 C 31.658 191.300,31.668 200.827,32.816 203.356 C 34.641 207.375,39.865 209.118,43.792 207.016 C 45.111 206.310,47.301 203.672,47.674 202.339 C 47.853 201.698,48.000 198.677,48.000 195.627 C 48.000 190.394,47.936 189.971,46.869 188.155 C 46.203 187.024,45.061 185.859,44.095 185.328 C 42.496 184.448,39.899 183.819,39.040 184.104 " stroke="none" fill-rule="evenodd"></path></svg>