<svg fill="currentColor" viewBox="0 0 256 256" xmlns="http://www.w3.org/2000/svg"><path d="M199.040 24.104 C 198.805 24.182,198.100 24.358,197.473 24.496 C 195.816 24.860,193.703 26.799,192.802 28.782 C 192.053 30.431,192.019 33.364,192.019 95.787 C 192.019 158.209,192.053 161.142,192.802 162.791 C 195.558 168.859,203.904 169.161,207.032 163.306 L 208.000 161.493 208.000 95.787 L 208.000 30.080 206.869 28.155 C 206.203 27.024,205.061 25.859,204.095 25.328 C 202.496 24.448,199.899 23.819,199.040 24.104 M44.587 32.806 C 42.612 33.718,41.209 35.120,40.562 36.828 C 39.928 38.501,39.994 41.579,40.699 43.214 C 41.025 43.969,57.148 62.014,76.528 83.315 L 111.766 122.043 111.883 162.035 C 111.990 198.726,112.060 202.136,112.725 203.350 C 113.689 205.111,116.214 207.286,117.661 207.603 C 118.302 207.743,119.043 207.923,119.307 208.002 C 120.307 208.302,123.559 207.269,124.945 206.212 C 125.737 205.607,126.745 204.322,127.184 203.356 C 127.939 201.693,127.982 199.958,127.991 170.756 L 128.000 139.912 139.934 153.037 L 151.867 166.162 151.987 184.094 C 152.102 201.333,152.141 202.093,152.999 203.733 C 155.075 207.707,160.264 209.071,164.141 206.663 C 167.544 204.549,167.859 203.475,168.107 193.132 L 168.320 184.237 185.781 203.462 C 199.420 218.479,203.602 222.831,204.883 223.344 C 208.399 224.750,212.197 223.726,214.458 220.762 C 215.913 218.855,216.328 215.175,215.346 212.893 C 214.354 210.590,53.738 34.141,51.558 32.960 C 49.401 31.792,46.904 31.737,44.587 32.806 M156.800 64.806 C 154.735 65.760,153.435 67.110,152.554 69.219 C 151.986 70.578,151.894 73.975,151.896 93.533 C 151.897 107.855,152.061 116.854,152.339 117.853 C 153.495 122.016,157.884 124.451,162.157 123.300 C 164.503 122.669,167.001 120.234,167.631 117.964 C 167.948 116.821,168.100 108.806,168.095 93.440 C 168.088 72.157,168.035 70.498,167.300 68.907 C 165.370 64.725,160.823 62.949,156.800 64.806 M76.587 144.818 C 74.997 145.528,73.160 147.454,72.560 149.041 C 72.258 149.841,72.107 158.851,72.107 176.041 C 72.107 196.999,72.217 202.098,72.694 203.214 C 74.086 206.468,78.141 208.490,81.686 207.698 C 83.892 207.205,84.983 206.482,86.478 204.522 L 87.680 202.946 87.680 175.966 L 87.680 148.986 86.370 147.346 C 85.649 146.444,84.401 145.371,83.596 144.961 C 81.863 144.077,78.405 144.006,76.587 144.818 M39.040 184.104 C 38.805 184.182,38.100 184.358,37.473 184.496 C 35.816 184.860,33.703 186.799,32.802 188.782 C 31.658 191.300,31.668 200.827,32.816 203.356 C 34.641 207.375,39.865 209.118,43.792 207.016 C 45.111 206.310,47.301 203.672,47.674 202.339 C 47.853 201.698,48.000 198.677,48.000 195.627 C 48.000 190.394,47.936 189.971,46.869 188.155 C 46.203 187.024,45.061 185.859,44.095 185.328 C 42.496 184.448,39.899 183.819,39.040 184.104 " stroke="none" fill-rule="evenodd"></path></svg>