<svg fill="currentColor" viewBox="0 0 256 256" xmlns="http://www.w3.org/2000/svg"><path d="M36.053 40.505 C 32.312 41.430,27.686 45.015,25.988 48.307 C 23.820 52.510,23.893 49.989,23.893 120.107 C 23.893 192.720,23.719 188.343,26.784 192.838 C 28.589 195.486,31.736 198.038,34.560 199.142 C 36.344 199.840,39.741 199.902,82.480 200.009 C 115.374 200.092,128.984 199.989,130.251 199.648 C 132.587 199.019,135.028 196.553,135.668 194.176 C 136.620 190.643,135.345 187.374,132.208 185.297 L 130.409 184.107 85.258 183.991 L 40.107 183.874 40.107 119.884 L 40.107 55.893 127.912 55.893 L 215.716 55.893 216.216 57.762 C 217.530 62.675,222.722 65.240,227.218 63.198 C 230.587 61.668,232.421 58.288,231.923 54.530 C 231.183 48.951,227.906 44.260,222.933 41.659 L 220.373 40.320 128.853 40.255 C 78.517 40.219,36.757 40.331,36.053 40.505 M183.040 72.716 C 170.644 74.941,161.090 79.877,152.507 88.491 C 141.828 99.208,136.109 112.915,136.110 127.787 C 136.111 141.269,140.549 153.534,149.178 163.903 L 151.893 167.165 151.896 195.903 C 151.897 215.553,152.047 225.177,152.369 226.337 C 153.345 229.851,157.648 232.563,161.194 231.898 C 162.011 231.744,169.276 228.322,177.339 224.292 L 192.000 216.966 206.661 224.292 C 214.724 228.322,221.989 231.744,222.806 231.898 C 226.352 232.563,230.655 229.851,231.631 226.337 C 231.953 225.177,232.103 215.557,232.104 195.915 L 232.107 167.190 234.456 164.421 C 239.356 158.646,243.004 152.095,245.237 145.067 C 247.438 138.138,247.674 136.466,247.671 127.787 C 247.669 120.376,247.569 119.285,246.507 115.083 C 241.083 93.626,224.955 77.902,203.520 73.173 C 199.170 72.213,187.317 71.949,183.040 72.716 M202.115 89.402 C 206.093 90.408,211.462 92.845,215.014 95.259 C 217.520 96.962,223.038 102.480,224.741 104.986 C 227.161 108.547,229.593 113.909,230.688 118.098 C 231.589 121.546,231.771 123.205,231.771 128.000 C 231.771 134.928,230.632 140.007,227.834 145.556 C 225.277 150.628,223.892 152.516,219.743 156.587 C 213.298 162.911,205.375 166.694,196.356 167.752 C 188.013 168.731,178.853 166.725,171.437 162.295 C 167.686 160.054,161.457 154.289,159.249 151.014 C 156.820 147.412,154.402 142.072,153.312 137.902 C 151.762 131.974,151.763 124.025,153.313 118.096 C 158.176 99.493,175.042 87.136,194.133 88.186 C 196.363 88.309,199.955 88.856,202.115 89.402 M68.903 96.796 C 61.733 100.053,62.842 110.173,70.544 111.772 C 72.123 112.100,79.335 112.212,93.281 112.126 C 112.726 112.006,113.787 111.959,115.386 111.147 C 116.310 110.677,117.654 109.556,118.373 108.654 C 119.539 107.190,119.680 106.705,119.680 104.143 C 119.680 100.561,118.373 98.286,115.520 96.905 C 113.690 96.019,113.198 96.000,92.132 96.009 C 72.241 96.018,70.484 96.077,68.903 96.796 M68.903 128.796 C 61.733 132.053,62.842 142.173,70.544 143.772 C 72.123 144.100,79.335 144.212,93.281 144.126 C 112.726 144.006,113.787 143.959,115.386 143.147 C 116.310 142.677,117.654 141.556,118.373 140.654 C 119.539 139.190,119.680 138.705,119.680 136.143 C 119.680 132.561,118.373 130.286,115.520 128.905 C 113.690 128.019,113.198 128.000,92.132 128.009 C 72.241 128.018,70.484 128.077,68.903 128.796 M174.293 180.964 C 180.462 183.082,185.364 183.893,192.000 183.893 C 194.989 183.893,199.140 183.597,201.224 183.235 C 204.387 182.685,212.352 180.272,215.147 179.017 C 215.850 178.701,215.893 179.603,215.893 194.728 C 215.893 203.553,215.803 210.773,215.692 210.773 C 215.582 210.773,210.673 208.373,204.783 205.440 C 195.492 200.813,193.800 200.107,192.000 200.107 C 190.200 200.107,188.508 200.813,179.217 205.440 C 173.327 208.373,168.418 210.773,168.308 210.773 C 168.197 210.773,168.107 203.553,168.107 194.728 C 168.107 179.603,168.150 178.701,168.853 179.017 C 169.264 179.202,171.712 180.078,174.293 180.964 " stroke="none" fill-rule="evenodd"></path></svg>