<svg fill="currentColor" viewBox="0 0 256 256" xmlns="http://www.w3.org/2000/svg"><path d="M94.720 8.585 C 93.357 9.127,91.403 10.977,90.628 12.459 C 90.297 13.093,88.793 17.893,87.286 23.126 C 79.754 49.274,74.699 75.454,72.722 98.560 C 71.936 107.735,72.064 127.329,72.950 133.760 C 75.386 151.428,80.857 164.196,89.535 172.464 C 95.745 178.380,101.652 181.401,110.613 183.242 L 111.787 183.483 111.787 207.795 L 111.787 232.107 103.068 232.107 C 97.945 232.107,93.854 232.294,93.148 232.560 C 90.496 233.562,87.912 237.234,87.912 240.000 C 87.912 242.766,90.496 246.438,93.148 247.440 C 93.948 247.742,102.895 247.893,119.935 247.893 C 147.150 247.893,147.187 247.891,149.485 245.850 C 151.736 243.851,152.474 239.598,151.091 236.587 C 149.259 232.597,147.690 232.107,136.760 232.107 L 128.000 232.107 128.000 207.854 L 128.000 183.601 131.947 182.653 C 137.035 181.430,143.689 178.204,147.703 175.015 C 164.075 162.004,170.695 134.764,167.021 95.519 C 164.947 73.363,159.772 47.389,152.241 21.333 C 149.337 11.284,148.722 10.157,145.385 8.763 C 144.032 8.198,140.488 8.110,119.800 8.134 C 104.955 8.150,95.379 8.323,94.720 8.585 M191.738 8.797 C 187.916 10.152,184.663 14.397,184.062 18.815 C 183.472 23.149,186.095 28.099,190.203 30.407 C 197.109 34.286,205.569 30.568,207.565 22.776 C 208.984 17.237,206.545 12.032,201.303 9.412 C 198.323 7.923,194.834 7.699,191.738 8.797 M138.183 30.187 C 140.335 37.925,143.360 50.305,145.011 58.133 L 146.249 64.000 120.058 64.000 C 105.653 64.000,93.867 63.889,93.867 63.753 C 93.867 61.535,101.506 30.261,103.473 24.427 C 103.613 24.012,107.311 23.893,120.043 23.893 L 136.432 23.893 138.183 30.187 M215.479 40.991 C 212.708 42.248,210.938 43.728,209.719 45.807 C 204.826 54.157,211.295 64.623,220.890 63.879 C 225.932 63.489,230.081 60.083,231.512 55.160 C 233.192 49.381,229.744 42.697,224.088 40.770 C 221.376 39.846,217.800 39.938,215.479 40.991 M149.107 81.173 C 149.395 82.448,150.445 91.068,151.122 97.707 C 151.983 106.157,151.838 127.045,150.875 133.333 C 147.792 153.458,140.841 163.727,128.000 167.125 C 124.159 168.142,115.573 168.123,111.787 167.091 C 106.944 165.769,103.750 163.922,100.197 160.390 C 97.391 157.600,96.592 156.449,94.567 152.276 C 90.740 144.393,89.088 136.844,88.304 123.655 C 87.671 113.000,88.585 97.252,90.709 82.240 L 90.996 80.213 119.943 80.213 L 148.890 80.213 149.107 81.173 M193.300 88.347 C 189.379 89.141,185.662 92.693,184.473 96.784 C 181.652 106.489,192.045 115.205,201.137 110.756 C 205.356 108.692,207.880 104.718,207.914 100.083 C 207.971 92.458,200.928 86.802,193.300 88.347 " stroke="none" fill-rule="evenodd"></path></svg>