<svg fill="currentColor" viewBox="0 0 256 256" xmlns="http://www.w3.org/2000/svg"><path d="M36.907 32.809 C 34.738 33.813,32.954 35.708,32.418 37.576 C 31.834 39.612,31.851 216.408,32.436 218.512 C 32.694 219.440,33.617 220.755,34.735 221.786 C 38.026 224.820,42.622 224.666,45.719 221.418 C 47.588 219.459,48.213 217.054,48.213 211.828 L 48.213 208.232 93.120 208.116 C 142.624 207.988,139.102 208.187,141.708 205.371 C 144.067 202.822,143.991 203.596,144.125 181.013 L 144.251 160.000 180.605 159.998 C 203.083 159.996,217.536 159.835,218.468 159.576 C 220.357 159.052,223.025 156.366,223.579 154.432 C 224.144 152.464,224.140 103.561,223.575 101.528 C 223.344 100.696,222.529 99.410,221.764 98.669 C 218.973 95.968,219.275 96.000,196.726 96.000 L 176.251 96.000 176.125 74.987 C 176.014 56.354,175.920 53.828,175.291 52.693 C 174.355 51.002,172.448 49.230,170.959 48.667 C 170.131 48.354,150.886 48.213,108.986 48.213 L 48.213 48.213 48.203 44.267 C 48.197 42.096,47.994 39.460,47.752 38.409 C 46.585 33.344,41.463 30.699,36.907 32.809 M160.000 80.000 L 160.000 96.000 104.107 96.000 L 48.213 96.000 48.213 80.000 L 48.213 64.000 104.107 64.000 L 160.000 64.000 160.000 80.000 M207.787 128.213 L 207.787 144.213 128.000 144.213 L 48.213 144.213 48.213 128.213 L 48.213 112.213 128.000 112.213 L 207.787 112.213 207.787 128.213 M128.000 176.000 L 128.000 192.000 88.107 192.000 L 48.213 192.000 48.213 176.000 L 48.213 160.000 88.107 160.000 L 128.000 160.000 128.000 176.000 " stroke="none" fill-rule="evenodd"></path></svg>