<svg fill="currentColor" viewBox="0 0 256 256" xmlns="http://www.w3.org/2000/svg"><path d="M28.800 40.711 C 27.117 41.463,25.379 43.350,24.556 45.320 C 23.965 46.735,23.894 55.646,23.903 128.093 C 23.912 206.207,23.942 209.345,24.702 210.987 C 25.622 212.973,27.440 214.794,29.148 215.440 C 30.838 216.078,225.162 216.078,226.852 215.440 C 229.504 214.438,232.088 210.766,232.088 208.000 C 232.088 205.234,229.504 201.562,226.852 200.560 C 226.017 200.245,197.389 200.107,132.879 200.107 L 40.107 200.107 40.107 181.813 L 40.107 163.519 66.872 140.106 C 81.593 127.229,94.253 116.156,95.005 115.500 L 96.372 114.307 126.171 136.652 C 142.560 148.942,156.617 159.223,157.409 159.498 C 159.436 160.205,161.221 160.108,163.200 159.184 C 164.139 158.745,179.828 145.314,198.065 129.337 L 231.224 100.287 231.897 97.971 C 232.652 95.374,232.474 94.050,231.031 91.515 C 229.248 88.383,224.533 86.910,221.140 88.427 C 220.238 88.830,167.169 134.786,160.762 140.712 L 159.605 141.783 129.873 119.484 C 113.521 107.219,99.504 96.918,98.725 96.592 C 96.800 95.788,94.841 95.862,92.800 96.817 C 91.861 97.257,79.669 107.625,65.707 119.859 L 40.320 142.103 40.107 93.985 C 39.872 40.956,40.084 44.828,37.265 42.160 C 35.087 40.100,31.533 39.492,28.800 40.711 " stroke="none" fill-rule="evenodd"></path></svg>