<svg fill="currentColor" viewBox="0 0 256 256" xmlns="http://www.w3.org/2000/svg"><path d="M133.091 24.324 C 127.236 25.315,122.097 30.118,120.555 36.041 C 119.572 39.811,119.572 80.935,120.555 84.706 C 122.184 90.964,126.666 94.967,133.861 96.591 C 141.194 98.246,146.217 101.026,151.015 106.085 C 156.969 112.362,159.733 119.311,159.733 128.000 C 159.733 136.603,156.981 143.589,151.150 149.787 C 133.902 168.122,103.781 160.472,96.998 136.034 C 96.442 134.029,96.248 131.739,96.248 127.147 C 96.248 118.864,97.102 115.809,101.372 108.800 C 104.402 103.826,104.750 98.480,102.373 93.452 C 101.330 91.248,98.931 88.586,86.623 75.976 C 78.638 67.794,71.461 60.535,70.676 59.845 C 67.348 56.924,62.140 55.484,57.801 56.286 C 52.650 57.238,49.645 59.465,44.825 65.900 C 26.997 89.705,20.169 119.887,26.095 148.693 C 33.790 186.100,61.088 216.183,97.542 227.431 C 102.818 229.059,107.622 230.134,113.920 231.096 C 119.931 232.014,134.358 232.130,140.373 231.308 C 164.247 228.048,184.861 217.947,201.404 201.404 C 217.947 184.860,228.072 164.194,231.305 140.373 C 232.005 135.212,232.020 120.849,231.330 115.840 C 228.039 91.942,218.633 72.295,202.461 55.543 C 187.906 40.466,170.006 30.408,149.973 26.049 C 146.306 25.251,136.628 23.838,135.551 23.944 C 135.270 23.971,134.163 24.142,133.091 24.324 M145.470 41.453 C 160.796 44.377,176.379 52.536,188.046 63.745 C 193.819 69.291,197.372 73.471,201.168 79.183 C 211.395 94.574,216.364 112.065,215.764 130.560 C 215.424 141.040,213.956 148.953,210.698 157.867 C 202.772 179.557,186.289 197.686,165.600 207.469 C 157.650 211.229,146.385 214.514,138.682 215.319 L 136.107 215.588 136.107 195.482 L 136.107 175.376 137.280 175.126 C 143.075 173.890,149.596 171.203,154.453 168.048 C 157.916 165.798,165.685 158.071,167.900 154.673 C 180.542 135.282,178.017 110.000,161.845 94.057 C 155.290 87.595,146.383 82.815,137.280 80.874 L 136.107 80.624 136.107 60.316 L 136.107 40.008 138.560 40.305 C 139.909 40.469,143.019 40.985,145.470 41.453 M76.021 87.987 L 87.970 100.240 87.132 101.427 C 84.583 105.035,81.418 113.203,80.819 117.718 L 80.530 119.893 60.532 119.893 L 40.533 119.893 40.535 118.933 C 40.539 116.949,41.882 109.699,43.089 105.149 C 45.927 94.451,51.819 82.606,58.431 74.302 L 60.250 72.018 62.161 73.875 C 63.212 74.897,69.449 81.247,76.021 87.987 M80.874 137.280 C 84.964 156.461,99.539 171.036,118.720 175.126 L 119.893 175.376 119.893 195.480 L 119.893 215.585 117.013 215.295 C 106.215 214.209,91.811 209.102,81.510 202.705 C 62.918 191.160,48.700 171.995,43.116 150.951 C 41.886 146.318,40.539 139.067,40.535 137.067 L 40.533 136.107 60.579 136.107 L 80.624 136.107 80.874 137.280 " stroke="none" fill-rule="evenodd"></path></svg>