<svg fill="currentColor" viewBox="0 0 256 256" xmlns="http://www.w3.org/2000/svg"><path d="M28.800 40.711 C 27.117 41.463,25.379 43.350,24.556 45.320 C 23.965 46.735,23.894 55.646,23.903 128.093 C 23.912 206.207,23.942 209.345,24.702 210.987 C 25.622 212.973,27.440 214.794,29.148 215.440 C 30.838 216.078,225.162 216.078,226.852 215.440 C 229.504 214.438,232.088 210.766,232.088 208.000 C 232.088 205.234,229.504 201.562,226.852 200.560 C 226.017 200.245,197.389 200.107,132.879 200.107 L 40.107 200.107 40.107 141.765 L 40.107 83.423 66.027 109.303 C 88.254 131.496,92.190 135.249,93.653 135.643 C 95.778 136.214,96.225 136.214,98.347 135.640 C 99.779 135.253,102.297 132.942,114.031 121.247 L 128.008 107.316 154.350 133.658 L 180.692 160.000 169.600 160.009 C 157.248 160.020,156.212 160.214,153.914 162.945 C 150.625 166.854,151.717 172.354,156.305 174.983 L 158.080 176.000 180.053 176.000 L 202.027 176.000 203.951 174.869 C 205.137 174.171,206.284 173.025,206.938 171.882 L 208.000 170.027 208.000 148.053 L 208.000 126.080 206.869 124.155 C 204.192 119.603,197.765 118.772,194.260 122.525 C 192.175 124.759,192.000 125.931,192.000 137.689 L 192.000 148.685 162.027 118.741 C 140.390 97.126,131.697 88.707,130.773 88.473 C 129.135 88.059,126.857 88.060,125.227 88.476 C 124.330 88.705,119.766 92.973,109.970 102.743 L 95.993 116.683 68.050 88.743 L 40.107 60.802 40.097 53.761 C 40.087 45.989,39.708 44.428,37.280 42.160 C 35.072 40.098,31.531 39.493,28.800 40.711 " stroke="none" fill-rule="evenodd"></path></svg>