<svg fill="currentColor" viewBox="0 0 256 256" xmlns="http://www.w3.org/2000/svg"><path d="M36.053 40.505 C 32.312 41.430,27.686 45.015,25.988 48.307 C 23.820 52.510,23.893 49.989,23.893 120.107 C 23.893 192.720,23.719 188.343,26.784 192.838 C 28.591 195.489,31.741 198.041,34.560 199.139 C 36.316 199.823,39.181 199.898,68.053 200.025 L 99.627 200.163 107.307 212.828 C 111.753 220.160,115.759 226.271,116.821 227.339 C 117.830 228.354,119.942 229.792,121.514 230.534 C 124.025 231.719,124.816 231.884,128.000 231.884 C 131.184 231.884,131.975 231.719,134.486 230.534 C 136.058 229.792,138.170 228.354,139.179 227.339 C 140.241 226.271,144.247 220.160,148.693 212.828 L 156.373 200.163 187.947 200.025 C 216.819 199.898,219.684 199.823,221.440 199.139 C 224.258 198.041,227.408 195.490,229.218 192.838 C 232.302 188.321,232.133 192.818,232.007 119.004 L 231.893 52.693 230.867 50.144 C 229.561 46.901,226.312 43.426,222.933 41.659 L 220.373 40.320 128.853 40.255 C 78.517 40.219,36.757 40.331,36.053 40.505 M215.893 119.873 L 215.893 183.853 184.404 183.980 L 152.914 184.107 149.658 185.716 C 147.561 186.753,145.823 187.989,144.775 189.190 C 143.879 190.215,139.806 196.547,135.723 203.260 C 131.641 209.974,128.162 215.467,127.994 215.467 C 127.825 215.467,124.268 209.851,120.089 202.987 C 115.467 195.395,111.768 189.799,110.646 188.701 C 108.259 186.365,105.307 184.891,101.914 184.340 C 100.237 184.068,87.914 183.899,69.653 183.897 L 40.107 183.893 40.107 119.893 L 40.107 55.893 128.000 55.893 L 215.893 55.893 215.893 119.873 M92.782 96.802 C 89.257 98.403,87.318 102.189,88.245 105.658 C 88.958 108.322,89.844 109.510,92.114 110.844 L 94.080 112.000 128.000 112.000 L 161.920 112.000 163.886 110.844 C 166.156 109.510,167.042 108.322,167.755 105.658 C 168.682 102.189,166.743 98.403,163.218 96.802 C 161.592 96.063,159.584 96.019,128.000 96.019 C 96.416 96.019,94.408 96.063,92.782 96.802 M92.782 128.802 C 89.257 130.403,87.318 134.189,88.245 137.658 C 88.958 140.322,89.844 141.510,92.114 142.844 L 94.080 144.000 128.000 144.000 L 161.920 144.000 163.886 142.844 C 166.156 141.510,167.042 140.322,167.755 137.658 C 168.682 134.189,166.743 130.403,163.218 128.802 C 161.592 128.063,159.584 128.019,128.000 128.019 C 96.416 128.019,94.408 128.063,92.782 128.802 " stroke="none" fill-rule="evenodd"></path></svg>