<svg fill="currentColor" viewBox="0 0 256 256" xmlns="http://www.w3.org/2000/svg"><path d="M44.265 32.461 C 39.776 33.526,35.661 36.951,33.540 41.387 L 32.213 44.160 32.100 94.891 L 31.986 145.622 32.898 147.506 C 34.286 150.374,36.554 151.680,40.143 151.680 C 42.705 151.680,43.190 151.539,44.654 150.373 C 45.556 149.654,46.677 148.310,47.147 147.386 C 47.983 145.740,48.002 144.744,48.115 96.960 L 48.231 48.213 128.009 48.213 L 207.787 48.213 207.787 128.213 L 207.787 208.213 170.863 208.213 C 134.955 208.213,133.894 208.236,132.290 209.055 C 129.194 210.634,127.649 213.775,128.191 217.389 C 128.576 219.952,131.165 222.932,133.571 223.580 C 134.642 223.868,148.288 223.978,173.519 223.902 L 211.840 223.787 214.445 222.583 C 217.739 221.060,221.026 217.760,222.593 214.400 L 223.787 211.840 223.787 128.000 L 223.787 44.160 222.583 41.555 C 221.060 38.261,217.760 34.974,214.400 33.407 L 211.840 32.213 128.853 32.147 C 81.512 32.109,45.179 32.244,44.265 32.461 M117.547 152.536 C 116.608 152.879,115.751 153.163,115.642 153.167 C 115.533 153.170,103.870 164.737,89.724 178.870 L 64.004 204.566 54.509 195.132 C 49.286 189.943,44.341 185.352,43.520 184.929 C 41.689 183.985,38.215 183.951,36.469 184.859 C 32.641 186.849,31.036 191.397,32.819 195.200 C 33.928 197.565,58.938 222.449,61.106 223.345 C 63.117 224.175,64.882 224.176,66.894 223.345 C 69.091 222.438,126.047 165.616,127.181 163.200 C 128.160 161.111,128.210 159.196,127.340 157.112 C 125.659 153.090,121.431 151.114,117.547 152.536 " stroke="none" fill-rule="evenodd"></path></svg>