<svg fill="currentColor" viewBox="0 0 256 256" xmlns="http://www.w3.org/2000/svg"><path d="M140.688 72.865 C 139.653 73.339,124.216 88.216,97.203 114.773 C 74.169 137.419,55.066 156.101,54.752 156.290 C 54.348 156.532,49.322 151.851,37.650 140.360 C 28.558 131.410,20.408 123.720,19.537 123.270 C 16.243 121.570,11.879 122.627,9.542 125.691 C 8.025 127.681,7.710 131.260,8.841 133.673 C 9.337 134.731,16.627 142.175,29.857 155.130 C 48.661 173.543,50.269 175.011,52.273 175.594 C 54.180 176.148,54.684 176.146,56.585 175.582 C 58.607 174.981,61.519 172.214,104.356 130.178 C 129.445 105.557,150.402 84.675,150.926 83.773 C 152.610 80.875,151.929 76.374,149.470 74.150 C 147.250 72.142,143.471 71.589,140.688 72.865 M236.686 72.865 C 235.646 73.340,220.449 87.989,193.650 114.347 C 170.864 136.757,151.748 155.457,151.170 155.900 L 150.119 156.707 140.446 147.069 C 134.226 140.871,130.207 137.195,129.187 136.769 C 127.138 135.914,124.477 135.925,122.752 136.797 C 118.793 138.797,117.220 142.241,118.421 146.285 C 119.000 148.234,120.144 149.481,132.543 161.674 C 145.005 173.930,146.202 174.991,148.233 175.582 C 150.185 176.149,150.673 176.149,152.579 175.584 C 154.592 174.986,157.565 172.158,200.563 129.951 C 232.304 98.792,246.626 84.456,247.135 83.331 C 248.470 80.383,247.704 76.120,245.485 74.150 C 243.218 72.137,239.471 71.590,236.686 72.865 " stroke="none" fill-rule="evenodd"></path></svg>