<svg fill="currentColor" viewBox="0 0 256 256" xmlns="http://www.w3.org/2000/svg"><path d="M123.307 32.247 C 122.720 32.351,121.088 32.636,119.680 32.881 C 107.810 34.939,96.373 42.999,90.009 53.790 C 87.875 57.408,85.832 62.881,84.858 67.588 C 83.134 75.920,84.310 86.246,87.880 94.118 C 92.179 103.599,101.328 112.543,110.735 116.459 C 117.118 119.116,119.801 119.618,127.787 119.651 C 135.761 119.683,138.908 119.105,145.338 116.428 C 155.305 112.279,164.586 102.780,168.742 92.475 C 178.939 67.185,163.884 38.826,137.173 33.014 C 134.218 32.371,125.367 31.882,123.307 32.247 M134.059 48.676 C 135.303 48.930,138.127 50.006,140.336 51.066 C 143.610 52.637,144.951 53.595,147.601 56.256 C 153.218 61.897,155.715 67.994,155.727 76.098 C 155.739 84.154,153.369 89.866,147.642 95.581 C 141.775 101.436,135.983 103.884,128.000 103.884 C 120.017 103.884,114.225 101.436,108.358 95.581 C 102.690 89.925,100.228 84.047,100.228 76.174 C 100.228 71.055,101.116 67.309,103.354 62.986 C 106.819 56.295,114.047 50.578,121.248 48.836 C 124.085 48.149,131.060 48.062,134.059 48.676 M61.973 128.455 C 39.504 131.376,22.430 152.304,24.087 174.892 C 25.513 194.332,38.845 210.038,58.027 214.873 C 60.578 215.517,62.696 215.673,68.480 215.646 C 75.072 215.616,76.084 215.508,79.573 214.461 C 87.545 212.069,95.416 207.300,100.302 201.901 C 113.126 187.731,115.616 167.828,106.652 151.138 C 98.066 135.151,80.207 126.084,61.973 128.455 M181.961 128.414 C 172.693 129.735,163.767 134.172,157.104 140.769 C 147.689 150.091,142.815 163.508,144.217 176.246 C 145.047 183.788,147.250 189.998,151.241 196.049 C 157.194 205.075,165.563 211.194,176.427 214.464 C 179.953 215.526,180.876 215.622,187.733 215.640 C 195.975 215.661,198.959 215.118,205.200 212.462 C 224.491 204.253,235.349 183.470,231.042 162.997 C 227.623 146.744,214.986 133.580,198.827 129.438 C 194.292 128.276,186.325 127.792,181.961 128.414 M74.629 144.871 C 83.998 147.079,91.796 154.487,94.823 164.053 C 96.064 167.976,96.146 175.564,94.988 179.391 C 91.791 189.963,83.749 197.306,72.981 199.488 C 61.198 201.876,48.667 195.632,43.121 184.610 C 35.143 168.757,43.713 149.523,60.741 145.059 C 64.519 144.068,70.861 143.983,74.629 144.871 M196.693 145.425 C 204.959 148.104,211.864 155.087,214.691 163.627 C 216.092 167.859,216.113 175.913,214.734 180.267 C 210.470 193.724,196.507 202.190,183.013 199.498 C 174.544 197.809,167.255 192.517,163.544 185.365 C 160.879 180.228,160.246 177.658,160.238 171.947 C 160.233 168.053,160.427 166.424,161.177 164.053 C 164.168 154.601,171.873 147.209,181.179 144.865 C 184.823 143.948,193.049 144.245,196.693 145.425 " stroke="none" fill-rule="evenodd"></path></svg>