<svg fill="currentColor" viewBox="0 0 256 256" xmlns="http://www.w3.org/2000/svg"><path d="M80.526 34.895 C 49.835 50.636,29.706 79.656,24.677 115.413 C 23.874 121.123,23.994 135.650,24.895 141.867 C 27.524 160.000,34.290 176.314,45.279 191.014 C 49.299 196.392,59.608 206.701,64.986 210.721 C 79.686 221.710,96.000 228.476,114.133 231.105 C 121.135 232.120,134.865 232.120,141.867 231.105 C 160.000 228.476,176.314 221.710,191.014 210.721 C 196.392 206.701,206.701 196.392,210.721 191.014 C 221.084 177.151,227.879 161.423,230.572 145.067 C 232.954 130.595,232.412 117.281,228.854 102.827 C 221.569 73.232,202.188 48.565,175.474 34.890 C 168.458 31.298,166.339 31.149,162.993 34.014 C 160.034 36.546,159.251 39.909,160.816 43.356 C 161.788 45.496,163.323 46.690,168.320 49.189 C 170.432 50.246,173.888 52.251,176.000 53.645 C 201.995 70.798,216.911 99.892,215.762 131.200 C 215.254 145.024,212.086 157.071,205.863 168.843 C 187.112 204.308,147.587 222.523,108.373 213.769 C 83.735 208.268,62.212 191.681,50.178 168.919 C 40.769 151.124,37.890 130.724,41.874 110.081 C 44.422 96.877,51.356 82.240,60.180 71.442 C 67.604 62.357,77.716 54.175,87.680 49.189 C 92.677 46.690,94.212 45.496,95.184 43.356 C 96.749 39.909,95.966 36.546,93.007 34.014 C 89.659 31.148,87.541 31.297,80.526 34.895 " stroke="none" fill-rule="evenodd"></path></svg>