<svg fill="currentColor" viewBox="0 0 256 256" xmlns="http://www.w3.org/2000/svg"><path d="M44.265 32.461 C 39.776 33.526,35.661 36.951,33.540 41.387 L 32.213 44.160 32.213 128.000 L 32.213 211.840 33.407 214.400 C 34.974 217.760,38.261 221.060,41.555 222.583 L 44.160 223.787 128.000 223.787 L 211.840 223.787 214.445 222.583 C 217.739 221.060,221.026 217.760,222.593 214.400 L 223.787 211.840 223.787 128.000 L 223.787 44.160 222.583 41.555 C 221.060 38.261,217.760 34.974,214.400 33.407 L 211.840 32.213 128.853 32.147 C 81.512 32.109,45.179 32.244,44.265 32.461 M79.787 96.795 L 79.787 145.376 76.920 146.787 C 73.100 148.668,68.532 153.239,66.674 157.041 C 64.653 161.174,63.862 165.032,64.143 169.387 C 64.546 175.629,66.802 180.573,71.288 185.040 C 80.601 194.316,95.441 194.283,104.749 184.965 C 109.687 180.022,111.919 174.625,111.897 167.680 C 111.870 159.049,106.820 150.840,99.095 146.869 L 96.004 145.280 96.002 130.348 L 96.000 115.416 119.893 139.307 L 143.787 163.197 143.787 185.705 L 143.787 208.213 96.000 208.213 L 48.213 208.213 48.213 128.213 L 48.213 48.213 64.000 48.213 L 79.787 48.213 79.787 96.795 M128.000 60.814 C 128.000 71.176,128.116 73.696,128.656 75.000 C 129.074 76.011,132.391 79.682,137.802 85.120 L 146.293 93.653 145.211 96.841 C 144.374 99.309,144.127 100.904,144.116 103.903 C 144.093 110.743,146.295 116.008,151.251 120.960 C 156.247 125.952,162.442 128.307,169.387 127.854 C 189.984 126.510,199.462 101.793,184.960 87.243 C 181.655 83.928,177.391 81.534,173.160 80.618 C 169.709 79.871,162.963 80.290,160.003 81.436 L 157.660 82.343 150.937 75.630 L 144.213 68.917 144.213 58.565 L 144.213 48.213 176.000 48.213 L 207.787 48.213 207.787 128.213 L 207.787 208.213 183.893 208.213 L 160.000 208.213 159.991 183.360 C 159.982 159.953,159.935 158.407,159.181 156.800 C 158.635 155.637,148.444 145.172,127.190 123.948 L 96.000 92.802 96.000 70.508 L 96.000 48.213 112.000 48.213 L 128.000 48.213 128.000 60.814 M170.985 96.656 C 173.012 97.503,173.981 98.401,174.979 100.356 C 177.351 105.004,174.654 110.647,169.504 111.808 C 166.235 112.546,162.244 110.500,160.816 107.356 C 158.957 103.262,160.709 98.744,164.907 96.806 C 167.000 95.840,168.918 95.793,170.985 96.656 M90.781 160.660 C 92.890 161.541,94.240 162.841,95.194 164.907 C 97.289 169.446,94.644 174.606,89.646 175.729 C 88.624 175.958,87.572 176.081,87.307 176.002 C 87.043 175.923,86.302 175.743,85.661 175.603 C 84.236 175.291,81.670 173.099,80.832 171.478 C 80.492 170.820,80.213 169.305,80.213 168.111 C 80.213 162.278,85.587 158.490,90.781 160.660 " stroke="none" fill-rule="evenodd"></path></svg>