<svg fill="currentColor" viewBox="0 0 256 256" xmlns="http://www.w3.org/2000/svg"><path d="M71.680 40.933 C 57.407 43.947,45.908 54.622,41.545 68.907 C 40.476 72.409,40.370 73.366,40.346 79.787 C 40.323 85.904,40.448 87.268,41.296 90.195 C 44.683 101.889,52.028 110.776,62.507 115.859 C 69.006 119.011,72.067 119.679,80.000 119.679 C 87.933 119.679,90.994 119.011,97.493 115.859 C 107.972 110.776,115.318 101.888,118.704 90.195 C 119.539 87.311,119.679 85.845,119.679 80.000 C 119.679 74.155,119.539 72.689,118.704 69.805 C 113.489 51.793,98.072 40.043,79.787 40.142 C 77.205 40.156,73.770 40.491,71.680 40.933 M167.680 40.933 C 153.407 43.947,141.908 54.622,137.545 68.907 C 136.476 72.409,136.370 73.366,136.346 79.787 C 136.323 85.904,136.448 87.268,137.296 90.195 C 140.683 101.889,148.028 110.776,158.507 115.859 C 165.006 119.011,168.067 119.679,176.000 119.679 C 183.933 119.679,186.994 119.011,193.493 115.859 C 203.972 110.776,211.318 101.888,214.704 90.195 C 215.539 87.311,215.679 85.845,215.679 80.000 C 215.679 74.155,215.539 72.689,214.704 69.805 C 209.489 51.793,194.072 40.043,175.787 40.142 C 173.205 40.156,169.770 40.491,167.680 40.933 M86.613 57.033 C 94.281 59.133,100.774 65.669,103.060 73.589 C 104.033 76.959,104.033 83.041,103.060 86.411 C 100.564 95.056,93.500 101.616,84.693 103.465 C 80.938 104.253,79.062 104.253,75.307 103.465 C 66.496 101.615,59.438 95.059,56.936 86.400 C 55.890 82.781,55.981 76.580,57.134 72.960 C 61.131 60.413,73.855 53.538,86.613 57.033 M182.613 57.033 C 190.281 59.133,196.774 65.669,199.060 73.589 C 200.033 76.959,200.033 83.041,199.060 86.411 C 196.564 95.056,189.500 101.616,180.693 103.465 C 176.938 104.253,175.062 104.253,171.307 103.465 C 162.496 101.615,155.438 95.059,152.936 86.400 C 151.890 82.781,151.981 76.580,153.134 72.960 C 157.131 60.413,169.855 53.538,182.613 57.033 M71.680 136.933 C 57.407 139.947,45.908 150.622,41.545 164.907 C 40.476 168.409,40.370 169.366,40.346 175.787 C 40.323 181.904,40.448 183.268,41.296 186.195 C 44.683 197.889,52.028 206.776,62.507 211.859 C 69.006 215.011,72.067 215.679,80.000 215.679 C 87.933 215.679,90.994 215.011,97.493 211.859 C 107.972 206.776,115.318 197.888,118.704 186.195 C 119.539 183.311,119.679 181.845,119.679 176.000 C 119.679 170.155,119.539 168.689,118.704 165.805 C 113.489 147.793,98.072 136.043,79.787 136.142 C 77.205 136.156,73.770 136.491,71.680 136.933 M167.680 136.933 C 153.407 139.947,141.908 150.622,137.545 164.907 C 136.476 168.409,136.370 169.366,136.346 175.787 C 136.323 181.904,136.448 183.268,137.296 186.195 C 140.683 197.889,148.028 206.776,158.507 211.859 C 165.006 215.011,168.067 215.679,176.000 215.679 C 183.933 215.679,186.994 215.011,193.493 211.859 C 203.972 206.776,211.318 197.888,214.704 186.195 C 215.539 183.311,215.679 181.845,215.679 176.000 C 215.679 170.155,215.539 168.689,214.704 165.805 C 209.489 147.793,194.072 136.043,175.787 136.142 C 173.205 136.156,169.770 136.491,167.680 136.933 M86.613 153.033 C 94.281 155.133,100.774 161.669,103.060 169.589 C 104.033 172.959,104.033 179.041,103.060 182.411 C 100.564 191.056,93.500 197.616,84.693 199.465 C 80.938 200.253,79.062 200.253,75.307 199.465 C 66.496 197.615,59.438 191.059,56.936 182.400 C 55.890 178.781,55.981 172.580,57.134 168.960 C 61.131 156.413,73.855 149.538,86.613 153.033 M182.613 153.033 C 190.281 155.133,196.774 161.669,199.060 169.589 C 200.033 172.959,200.033 179.041,199.060 182.411 C 196.564 191.056,189.500 197.616,180.693 199.465 C 176.938 200.253,175.062 200.253,171.307 199.465 C 162.496 197.615,155.438 191.059,152.936 182.400 C 151.890 178.781,151.981 172.580,153.134 168.960 C 157.131 156.413,169.855 149.538,182.613 153.033 " stroke="none" fill-rule="evenodd"></path></svg>