<svg fill="currentColor" viewBox="0 0 256 256" xmlns="http://www.w3.org/2000/svg"><path d="M121.173 16.476 C 110.211 18.517,101.824 22.644,94.979 29.363 L 92.333 31.960 72.300 32.087 L 52.267 32.213 49.408 33.568 C 45.901 35.229,43.211 37.846,41.566 41.197 L 40.320 43.733 40.209 131.306 C 40.100 217.465,40.112 218.917,40.938 221.268 C 42.449 225.566,45.675 228.935,50.043 230.776 L 52.693 231.893 128.000 231.893 L 203.307 231.893 205.957 230.776 C 210.325 228.935,213.551 225.566,215.062 221.268 C 215.888 218.917,215.900 217.465,215.791 131.306 L 215.680 43.733 214.434 41.197 C 212.789 37.846,210.099 35.229,206.592 33.568 L 203.733 32.213 183.700 32.087 L 163.667 31.960 161.021 29.363 C 155.344 23.790,147.875 19.641,139.520 17.420 C 137.105 16.777,134.594 16.533,129.280 16.423 C 125.408 16.343,121.760 16.367,121.173 16.476 M136.067 33.033 C 142.252 34.728,148.832 39.037,152.849 44.022 C 156.752 48.867,160.000 57.380,160.000 62.767 L 160.000 64.000 127.941 64.000 L 95.882 64.000 96.176 61.120 C 96.612 56.849,97.192 54.812,99.181 50.560 C 103.630 41.050,112.393 34.292,122.699 32.423 C 125.548 31.906,133.235 32.257,136.067 33.033 M82.122 49.951 C 80.734 53.887,80.083 59.078,80.042 66.560 C 80.007 72.836,80.116 74.238,80.725 75.350 C 81.660 77.057,84.172 79.257,85.661 79.674 C 87.184 80.100,168.816 80.100,170.339 79.674 C 171.828 79.257,174.340 77.057,175.275 75.350 C 175.884 74.238,175.993 72.836,175.958 66.560 C 175.917 59.078,175.266 53.887,173.878 49.951 L 173.265 48.213 186.686 48.213 L 200.107 48.213 200.107 132.053 L 200.107 215.893 128.000 215.893 L 55.893 215.893 55.893 132.053 L 55.893 48.213 69.314 48.213 L 82.735 48.213 82.122 49.951 M91.679 113.436 C 86.355 116.812,86.976 124.561,92.782 127.198 C 94.408 127.937,96.416 127.981,128.000 127.981 C 159.584 127.981,161.592 127.937,163.218 127.198 C 169.024 124.561,169.645 116.812,164.321 113.436 L 162.393 112.213 128.000 112.213 L 93.607 112.213 91.679 113.436 M91.679 145.436 C 86.355 148.812,86.976 156.561,92.782 159.198 C 94.408 159.937,96.416 159.981,128.000 159.981 C 159.584 159.981,161.592 159.937,163.218 159.198 C 169.024 156.561,169.645 148.812,164.321 145.436 L 162.393 144.213 128.000 144.213 L 93.607 144.213 91.679 145.436 " stroke="none" fill-rule="evenodd"></path></svg>