<svg fill="currentColor" viewBox="0 0 256 256" xmlns="http://www.w3.org/2000/svg"><path d="M120.747 32.263 C 116.129 32.686,109.100 33.834,104.994 34.835 C 91.849 38.040,78.537 44.639,67.627 53.357 C 63.379 56.752,53.811 66.404,46.143 75.031 L 40.320 81.581 40.107 71.617 C 39.865 60.330,39.722 59.786,36.367 57.428 C 34.873 56.378,34.172 56.178,32.000 56.178 C 29.828 56.178,29.127 56.378,27.633 57.428 C 26.655 58.116,25.461 59.348,24.980 60.166 C 24.130 61.613,24.107 62.249,24.107 83.840 C 24.107 105.518,24.127 106.066,24.999 107.733 C 25.554 108.795,26.669 109.924,27.952 110.720 L 30.013 112.000 51.593 112.000 C 63.462 112.000,73.698 111.853,74.339 111.674 C 75.672 111.301,78.310 109.111,79.016 107.792 C 81.118 103.865,79.375 98.641,75.356 96.816 C 73.773 96.097,72.390 96.018,61.281 96.009 L 48.962 96.000 51.454 93.120 C 61.545 81.458,73.307 69.222,77.914 65.594 C 88.009 57.645,99.323 52.368,112.213 49.596 C 117.154 48.534,118.301 48.449,127.787 48.440 C 136.832 48.431,138.599 48.546,142.933 49.421 C 171.662 55.223,194.629 75.316,203.775 102.651 C 206.854 111.852,208.005 120.167,207.664 130.741 C 207.260 143.264,204.637 153.664,199.199 164.309 C 189.896 182.519,173.609 196.743,154.389 203.444 C 136.544 209.666,117.469 209.442,99.627 202.802 C 91.789 199.885,81.773 193.891,75.520 188.375 C 71.511 184.839,70.324 184.207,67.618 184.168 C 63.229 184.104,59.702 187.565,59.668 191.971 C 59.647 194.718,60.839 196.831,63.943 199.549 C 82.950 216.187,106.689 224.771,131.200 223.868 C 151.656 223.114,169.607 216.716,186.027 204.327 C 191.230 200.401,198.957 192.903,202.908 187.947 C 218.167 168.804,225.901 143.145,223.565 119.405 C 220.675 90.019,205.176 64.086,180.907 48.025 C 169.279 40.330,155.986 35.218,142.055 33.085 C 137.703 32.419,124.571 31.912,120.747 32.263 M124.800 72.711 C 123.117 73.463,121.379 75.350,120.556 77.320 C 119.983 78.692,119.894 82.253,119.896 103.773 C 119.897 120.083,120.055 129.204,120.354 130.280 C 120.604 131.182,121.419 132.555,122.165 133.330 C 122.910 134.105,132.916 140.359,144.399 147.227 C 167.465 161.022,167.317 160.955,171.183 159.246 C 175.359 157.398,177.160 152.214,175.016 148.208 C 174.068 146.437,171.427 144.683,153.909 134.190 L 136.107 123.526 136.097 101.123 C 136.089 80.227,136.035 78.605,135.298 77.013 C 134.378 75.027,132.560 73.206,130.852 72.560 C 129.223 71.945,126.357 72.017,124.800 72.711 " stroke="none" fill-rule="evenodd"></path></svg>