<svg fill="currentColor" viewBox="0 0 256 256" xmlns="http://www.w3.org/2000/svg"><path d="M26.597 49.003 C 22.460 50.432,18.751 54.089,16.928 58.537 L 16.000 60.800 16.000 128.000 L 16.000 195.200 16.928 197.463 C 18.719 201.833,22.167 205.281,26.537 207.072 L 28.800 208.000 128.000 208.000 L 227.200 208.000 229.463 207.072 C 233.833 205.281,237.281 201.833,239.072 197.463 L 240.000 195.200 240.000 128.000 L 240.000 60.800 239.072 58.537 C 237.249 54.089,233.540 50.432,229.403 49.003 C 227.313 48.280,222.101 48.241,128.000 48.241 C 33.899 48.241,28.687 48.280,26.597 49.003 M224.000 128.000 L 224.000 192.000 128.000 192.000 L 32.000 192.000 32.000 128.000 L 32.000 64.000 128.000 64.000 L 224.000 64.000 224.000 128.000 M91.253 88.314 C 77.250 90.055,64.739 99.376,59.327 112.099 C 56.965 117.652,56.165 121.664,56.157 128.000 C 56.151 132.931,56.314 134.356,57.286 137.899 C 60.141 148.302,66.315 156.634,75.256 162.152 C 81.753 166.160,90.862 168.478,98.102 167.964 C 108.148 167.251,118.035 162.843,119.492 158.429 C 120.687 154.808,119.125 150.684,115.865 148.852 C 113.375 147.453,110.890 147.556,107.296 149.207 C 97.057 153.912,86.722 152.398,79.379 145.117 C 76.419 142.182,74.978 139.958,73.336 135.790 C 72.513 133.700,72.368 132.537,72.368 128.000 C 72.368 123.463,72.513 122.300,73.336 120.210 C 77.189 110.429,84.740 104.784,94.720 104.225 C 99.494 103.958,102.543 104.602,107.277 106.879 C 110.813 108.580,112.833 108.752,115.431 107.571 C 118.596 106.133,120.735 102.345,120.135 99.239 C 119.541 96.166,118.160 94.632,114.040 92.470 C 107.498 89.037,98.556 87.407,91.253 88.314 M170.702 88.399 C 156.489 90.178,143.548 100.478,138.636 113.920 C 132.625 130.370,137.597 148.512,151.040 159.180 C 159.281 165.720,170.118 168.929,180.037 167.765 C 187.388 166.902,196.009 163.533,198.193 160.670 C 200.773 157.287,200.489 152.941,197.501 150.096 C 194.514 147.252,191.419 147.042,186.803 149.372 C 179.895 152.859,171.645 152.744,164.639 149.062 C 159.210 146.209,154.110 139.659,152.723 133.760 C 152.079 131.019,152.079 124.981,152.723 122.240 C 154.199 115.962,159.579 109.382,165.547 106.557 C 172.744 103.151,179.235 103.211,187.028 106.757 C 191.479 108.781,193.818 108.834,196.631 106.972 C 200.274 104.561,201.223 99.002,198.555 95.706 C 195.920 92.450,187.859 89.188,180.388 88.355 C 175.750 87.838,175.168 87.841,170.702 88.399 " stroke="none" fill-rule="evenodd"></path></svg>