<svg fill="currentColor" viewBox="0 0 256 256" xmlns="http://www.w3.org/2000/svg"><path d="M44.587 32.806 C 42.612 33.718,41.209 35.120,40.562 36.828 C 39.928 38.501,39.994 41.579,40.699 43.214 C 41.025 43.969,50.261 54.438,61.224 66.479 C 72.187 78.520,81.089 88.433,81.005 88.508 C 80.922 88.582,78.837 88.477,76.373 88.274 C 65.630 87.389,53.254 89.819,43.520 94.725 C 25.603 103.756,13.461 119.711,9.099 139.957 C 7.986 145.125,7.997 159.099,9.119 164.267 C 11.969 177.394,17.660 187.939,26.861 197.139 C 36.058 206.337,46.557 212.005,59.733 214.887 C 63.161 215.636,66.299 215.680,116.907 215.680 L 170.453 215.680 175.524 214.663 C 178.312 214.104,182.728 212.985,185.337 212.176 C 192.646 209.912,191.446 209.499,197.547 216.374 C 201.156 220.442,203.432 222.643,204.587 223.183 C 208.073 224.814,212.125 223.820,214.458 220.762 C 215.913 218.855,216.328 215.175,215.346 212.893 C 214.354 210.590,53.738 34.141,51.558 32.960 C 49.401 31.792,46.904 31.737,44.587 32.806 M150.187 40.551 C 136.479 42.233,122.062 47.542,111.149 54.927 C 106.606 58.002,105.199 59.614,104.753 62.255 C 103.875 67.451,108.781 72.403,113.881 71.469 C 114.724 71.315,117.483 69.843,120.013 68.198 C 128.714 62.543,137.927 58.835,147.579 57.103 C 154.514 55.860,165.486 55.860,172.421 57.103 C 202.622 62.520,225.801 85.846,230.998 116.053 C 232.903 127.126,231.954 139.767,228.408 150.565 C 225.976 157.971,220.884 167.208,215.681 173.653 C 212.827 177.189,212.053 178.734,212.053 180.899 C 212.053 183.191,212.904 185.084,214.669 186.716 C 218.069 189.860,222.500 189.702,225.792 186.319 C 233.988 177.896,241.672 163.458,245.122 149.995 C 250.435 129.264,248.142 107.613,238.615 88.556 C 226.389 64.100,203.169 46.702,175.905 41.569 C 171.176 40.679,168.399 40.433,161.707 40.310 C 157.131 40.227,151.947 40.335,150.187 40.551 M136.899 149.648 C 160.399 175.517,179.627 196.853,179.627 197.061 C 179.627 197.270,179.003 197.574,178.240 197.738 C 167.761 199.993,172.581 199.810,118.994 199.984 C 77.050 200.119,69.036 200.049,65.447 199.512 C 44.817 196.426,28.857 181.260,24.904 160.986 C 23.944 156.059,23.965 147.361,24.948 142.720 C 28.832 124.385,42.322 110.098,60.042 105.554 C 64.682 104.363,75.093 103.590,75.093 104.435 C 75.093 104.687,74.697 106.562,74.212 108.601 C 72.355 116.424,71.493 128.027,72.560 130.852 C 73.562 133.504,77.234 136.088,80.000 136.088 C 83.093 136.088,87.194 132.845,87.653 130.036 C 87.778 129.268,88.085 126.048,88.335 122.880 C 88.841 116.454,89.559 112.432,91.143 107.158 C 92.825 101.560,92.952 101.294,93.610 102.006 C 93.919 102.340,113.399 123.779,136.899 149.648 " stroke="none" fill-rule="evenodd"></path></svg>