<svg fill="currentColor" viewBox="0 0 256 256" xmlns="http://www.w3.org/2000/svg"><path d="M123.093 32.273 C 104.056 35.287,90.540 49.027,88.246 67.698 C 87.489 73.854,88.458 76.698,92.022 78.787 C 94.669 80.338,97.514 80.294,100.141 78.663 C 102.765 77.033,103.702 75.103,104.179 70.348 C 104.390 68.241,104.996 65.323,105.526 63.865 C 110.339 50.605,125.596 44.446,138.453 50.573 C 142.052 52.288,145.675 55.433,147.883 58.760 C 149.615 61.368,151.483 65.978,151.442 67.539 C 151.423 68.282,136.846 79.406,82.282 120.320 C 43.858 149.132,12.505 172.933,11.702 173.901 C 7.497 178.965,6.954 186.884,10.435 192.397 C 11.968 194.826,15.569 197.823,18.261 198.910 L 20.693 199.893 126.907 200.004 C 242.746 200.125,235.773 200.262,239.989 197.787 C 242.522 196.301,245.212 193.394,246.524 190.725 C 247.547 188.643,247.680 187.884,247.680 184.098 C 247.680 180.151,247.575 179.609,246.317 177.054 C 245.568 175.531,244.416 173.773,243.757 173.146 C 243.099 172.520,219.904 154.985,192.213 134.179 C 164.523 113.374,141.867 96.189,141.867 95.991 C 141.867 95.792,147.354 91.512,154.061 86.479 C 168.302 75.792,167.937 76.231,167.814 69.973 C 167.593 58.691,161.571 47.357,151.893 40.004 C 148.204 37.201,142.274 34.367,137.813 33.274 C 134.266 32.406,125.864 31.834,123.093 32.273 M180.053 145.067 L 231.823 183.893 128.000 183.893 L 24.177 183.893 75.947 145.067 C 104.420 123.712,127.844 106.240,128.000 106.240 C 128.156 106.240,151.580 123.712,180.053 145.067 " stroke="none" fill-rule="evenodd"></path></svg>