<svg fill="currentColor" viewBox="0 0 256 256" xmlns="http://www.w3.org/2000/svg"><path d="M123.733 16.589 C 121.897 17.193,119.040 18.731,75.093 42.779 C 51.509 55.684,31.331 66.885,30.254 67.669 C 28.080 69.250,26.560 71.245,25.087 74.453 L 24.107 76.587 24.107 128.000 L 24.107 179.413 25.254 181.860 C 26.768 185.091,28.337 187.094,30.542 188.611 C 33.585 190.704,120.983 238.408,123.080 239.120 C 125.598 239.975,130.402 239.975,132.920 239.120 C 135.017 238.408,222.415 190.704,225.458 188.611 C 227.663 187.094,229.232 185.091,230.746 181.860 L 231.893 179.413 231.893 128.000 L 231.893 76.587 230.703 74.045 C 229.149 70.726,227.801 69.001,225.553 67.455 C 223.851 66.284,141.431 21.054,135.253 17.900 C 132.818 16.657,132.012 16.470,128.640 16.362 C 126.528 16.294,124.320 16.397,123.733 16.589 M142.078 39.730 L 156.195 47.460 142.285 55.090 C 134.634 59.287,128.206 62.720,128.000 62.720 C 127.795 62.720,121.902 59.582,114.907 55.748 C 107.911 51.913,101.638 48.489,100.966 48.138 L 99.746 47.500 113.766 39.781 C 121.478 35.536,127.826 32.049,127.874 32.031 C 127.922 32.014,134.314 35.479,142.078 39.730 M104.311 68.208 C 115.493 74.332,125.397 79.545,126.321 79.794 C 127.486 80.108,128.501 80.111,129.637 79.805 C 130.537 79.563,140.569 74.273,151.930 68.049 C 163.291 61.826,172.786 56.785,173.030 56.847 C 173.833 57.051,206.934 75.273,206.925 75.506 C 206.913 75.849,128.615 118.613,128.000 118.613 C 127.359 118.613,49.087 75.841,49.075 75.484 C 49.058 74.987,82.578 56.810,83.270 56.941 C 83.660 57.014,93.129 62.084,104.311 68.208 M83.840 113.023 L 119.680 132.652 119.789 175.979 C 119.848 199.809,119.761 219.307,119.595 219.307 C 119.429 219.307,112.228 215.424,103.593 210.680 L 87.893 202.052 87.893 176.106 C 87.893 147.808,87.942 148.394,85.433 146.283 C 84.721 145.683,74.231 139.768,62.122 133.139 L 40.107 121.085 40.107 105.100 L 40.107 89.115 44.053 91.255 C 46.224 92.431,64.128 102.227,83.840 113.023 M215.893 105.098 L 215.893 121.022 193.813 133.094 C 181.669 139.733,171.182 145.671,170.507 146.290 C 168.056 148.537,168.107 147.909,168.107 176.106 L 168.107 202.053 152.365 210.680 C 143.706 215.425,136.505 219.307,136.362 219.307 C 136.220 219.307,136.152 199.796,136.211 175.949 L 136.320 132.590 175.787 110.925 C 197.493 99.009,215.397 89.241,215.573 89.217 C 215.749 89.193,215.893 96.339,215.893 105.098 M56.499 148.267 L 72.102 156.800 72.104 175.070 L 72.107 193.341 67.489 190.857 C 64.950 189.491,57.756 185.589,51.503 182.187 L 40.134 176.000 40.120 157.724 C 40.112 146.716,40.263 139.505,40.501 139.591 C 40.718 139.669,47.917 143.573,56.499 148.267 M215.880 157.760 L 215.866 176.000 204.497 182.187 C 198.244 185.589,191.050 189.491,188.511 190.857 L 183.893 193.341 183.896 175.070 L 183.900 156.800 199.576 148.190 C 208.199 143.455,215.397 139.567,215.573 139.550 C 215.749 139.534,215.887 147.728,215.880 157.760 " stroke="none" fill-rule="evenodd"></path></svg>