<svg fill="currentColor" viewBox="0 0 256 256" xmlns="http://www.w3.org/2000/svg"><path d="M84.693 16.710 C 83.318 17.469,81.472 19.314,80.709 20.693 C 80.089 21.812,79.984 24.060,79.870 38.541 C 79.783 49.723,79.898 55.865,80.224 57.438 C 81.129 61.799,84.973 64.471,89.389 63.809 C 91.899 63.432,94.916 60.844,95.564 58.512 C 95.821 57.586,95.996 50.031,95.998 39.773 C 96.000 21.612,95.923 20.811,93.957 18.637 C 92.038 16.515,86.961 15.459,84.693 16.710 M116.693 16.710 C 115.318 17.469,113.472 19.314,112.709 20.693 C 112.089 21.812,111.984 24.060,111.870 38.541 C 111.783 49.723,111.898 55.865,112.224 57.438 C 113.129 61.799,116.973 64.471,121.389 63.809 C 123.899 63.432,126.916 60.844,127.564 58.512 C 127.821 57.586,127.996 50.031,127.998 39.773 C 128.000 21.612,127.923 20.811,125.957 18.637 C 124.038 16.515,118.961 15.459,116.693 16.710 M148.693 16.710 C 147.318 17.469,145.472 19.314,144.709 20.693 C 144.089 21.812,143.984 24.060,143.870 38.541 C 143.783 49.723,143.898 55.865,144.224 57.438 C 145.129 61.799,148.973 64.471,153.389 63.809 C 155.899 63.432,158.916 60.844,159.564 58.512 C 159.821 57.586,159.996 50.031,159.998 39.773 C 160.000 21.612,159.923 20.811,157.957 18.637 C 156.038 16.515,150.961 15.459,148.693 16.710 M27.679 81.436 C 23.910 83.826,24.107 81.978,24.107 114.987 C 24.107 144.673,24.179 146.307,25.863 154.667 C 28.257 166.552,33.550 179.305,40.180 189.161 C 43.949 194.763,46.925 198.407,51.998 203.627 L 56.455 208.213 43.031 208.213 L 29.607 208.213 27.679 209.436 C 22.355 212.812,22.976 220.561,28.782 223.198 C 30.437 223.950,34.100 223.982,120.079 223.991 L 209.651 224.000 211.520 223.095 C 214.373 221.714,215.680 219.439,215.680 215.857 C 215.680 213.292,215.540 212.811,214.370 211.346 C 211.887 208.240,211.749 208.215,197.013 208.214 C 189.797 208.214,183.893 208.125,183.893 208.017 C 183.893 207.908,185.621 206.078,187.732 203.948 C 196.845 194.756,203.961 184.053,208.865 172.160 C 209.736 170.048,210.636 168.201,210.865 168.057 C 211.093 167.912,212.386 167.678,213.736 167.536 C 215.087 167.395,217.805 166.771,219.776 166.149 C 232.107 162.260,241.451 153.265,245.672 141.219 C 247.644 135.594,248.005 132.326,247.793 122.011 C 247.621 113.612,247.511 112.543,246.467 109.104 C 242.630 96.476,234.024 87.232,221.605 82.401 C 215.719 80.111,220.425 80.213,121.275 80.213 L 29.607 80.213 27.679 81.436 M199.994 119.787 C 199.786 145.690,199.658 147.356,197.137 156.800 C 195.167 164.178,192.322 170.783,188.130 177.707 C 180.850 189.730,168.853 200.931,156.611 207.134 L 154.453 208.228 119.573 208.114 L 84.693 208.000 80.722 205.719 C 61.617 194.745,47.543 176.172,42.444 155.203 C 40.335 146.529,40.107 142.958,40.107 118.591 L 40.107 96.000 120.146 96.000 L 200.185 96.000 199.994 119.787 M220.587 99.634 C 225.295 102.507,229.162 107.599,230.949 113.280 C 231.767 115.881,231.889 117.231,231.891 123.733 C 231.893 128.697,231.695 131.987,231.301 133.547 C 229.611 140.247,224.770 146.334,218.726 149.359 C 216.800 150.323,215.204 150.892,215.122 150.645 C 215.040 150.400,215.180 148.517,215.432 146.460 C 215.706 144.226,215.891 133.641,215.892 120.167 L 215.893 97.614 217.067 97.908 C 217.712 98.070,219.296 98.847,220.587 99.634 " stroke="none" fill-rule="evenodd"></path></svg>