<svg fill="currentColor" viewBox="0 0 256 256" xmlns="http://www.w3.org/2000/svg"><path d="M120.960 24.313 C 100.810 25.632,81.578 32.851,64.891 45.360 C 59.554 49.360,49.234 59.686,45.276 64.986 C 34.512 79.399,27.973 94.882,25.095 112.768 C 23.886 120.283,23.787 134.307,24.890 141.867 C 27.542 160.046,34.293 176.318,45.279 191.014 C 49.299 196.392,59.608 206.701,64.986 210.721 C 79.686 221.710,96.000 228.476,114.133 231.105 C 117.683 231.620,121.936 231.847,128.000 231.847 C 144.598 231.847,158.874 228.583,173.440 221.458 C 184.661 215.968,192.320 210.472,201.396 201.396 C 210.475 192.317,215.974 184.654,221.456 173.440 C 227.379 161.323,230.589 149.359,231.749 135.072 C 232.467 126.230,231.837 123.699,228.343 121.386 C 226.935 120.455,225.931 120.224,221.819 119.885 C 211.145 119.005,202.884 115.329,195.907 108.352 C 188.919 101.364,185.323 93.529,184.158 82.754 C 183.176 73.678,182.115 72.687,172.362 71.737 C 152.481 69.801,137.779 54.612,136.159 34.334 C 135.715 28.783,135.116 27.353,132.460 25.507 C 130.405 24.079,128.134 23.843,120.960 24.313 M121.660 45.186 C 122.932 50.424,125.151 55.907,127.857 60.503 C 135.867 74.104,150.122 84.077,165.820 87.061 L 168.441 87.559 168.939 90.180 C 171.923 105.878,181.896 120.133,195.497 128.143 C 200.093 130.849,205.576 133.068,210.814 134.340 C 216.216 135.652,215.932 135.103,214.813 142.080 C 211.310 163.915,199.470 183.801,181.743 197.623 C 170.601 206.311,157.216 212.160,142.293 214.862 C 136.457 215.918,123.445 216.141,117.015 215.293 C 110.837 214.479,102.013 212.281,96.614 210.211 C 70.489 200.197,50.237 177.775,43.128 150.997 C 40.808 142.259,40.360 138.536,40.360 128.000 C 40.360 117.467,40.808 113.741,43.125 105.013 C 50.205 78.344,70.076 56.244,96.213 45.967 C 102.861 43.353,114.190 40.652,118.827 40.575 L 120.533 40.547 121.660 45.186 M81.280 96.374 C 77.936 97.253,74.783 99.713,73.282 102.613 C 71.950 105.187,71.759 109.812,72.881 112.348 C 74.284 115.518,75.837 117.212,78.616 118.600 C 89.077 123.828,100.031 112.626,94.463 102.395 C 92.449 98.695,89.155 96.543,85.019 96.226 C 83.666 96.122,81.984 96.189,81.280 96.374 M126.809 113.316 C 123.721 114.854,121.463 117.557,120.552 120.802 C 119.265 125.389,120.457 129.401,124.125 132.833 C 128.683 137.096,135.159 137.130,139.847 132.915 C 146.257 127.152,144.947 117.127,137.284 113.309 C 134.177 111.761,129.924 111.763,126.809 113.316 M89.387 152.271 C 78.334 155.173,76.694 169.781,86.863 174.756 C 92.794 177.658,100.377 174.812,103.082 168.669 C 104.148 166.247,104.099 161.548,102.982 159.147 C 101.890 156.799,99.451 154.327,97.109 153.195 C 95.117 152.232,91.281 151.773,89.387 152.271 M152.077 160.749 C 147.080 162.537,144.149 166.651,144.099 171.947 C 144.053 176.728,146.335 180.408,150.697 182.588 C 156.684 185.579,163.702 183.277,166.583 177.376 C 168.086 174.298,168.362 171.762,167.512 168.840 C 165.571 162.164,158.493 158.454,152.077 160.749 " stroke="none" fill-rule="evenodd"></path></svg>