<svg fill="currentColor" viewBox="0 0 256 256" xmlns="http://www.w3.org/2000/svg"><path d="M125.503 24.347 C 123.395 24.767,120.553 26.318,119.178 27.799 C 118.667 28.350,108.714 44.640,97.060 64.000 C 85.405 83.360,75.823 99.248,75.765 99.308 C 75.707 99.367,63.965 93.607,49.670 86.508 L 23.680 73.600 20.053 73.609 C 15.770 73.620,13.952 74.388,11.239 77.331 C 9.027 79.731,7.944 82.865,8.200 86.122 C 8.329 87.763,14.359 106.805,27.068 145.707 C 37.340 177.152,46.012 203.398,46.339 204.031 C 47.673 206.619,51.795 208.475,54.721 207.806 C 55.483 207.632,57.534 206.768,59.279 205.886 C 71.414 199.754,88.932 195.156,108.373 193.000 C 117.547 191.982,138.421 191.980,147.627 192.996 C 167.160 195.151,184.718 199.802,197.204 206.127 C 200.841 207.970,202.323 208.254,204.860 207.596 C 207.072 207.022,208.768 205.743,209.706 203.941 C 210.013 203.351,218.671 177.143,228.946 145.701 C 249.394 83.128,248.873 84.996,247.038 80.730 C 245.881 78.040,242.813 75.078,240.117 74.049 C 238.676 73.498,237.305 73.334,235.162 73.455 C 232.254 73.620,231.716 73.863,206.282 86.531 C 192.027 93.631,180.313 99.386,180.251 99.320 C 180.189 99.254,170.601 83.360,158.945 64.000 C 147.289 44.640,137.244 28.265,136.622 27.612 C 134.165 25.028,129.283 23.595,125.503 24.347 M146.470 74.356 C 170.800 114.858,169.512 112.818,171.725 114.341 C 174.369 116.160,178.014 117.029,180.793 116.501 C 182.223 116.230,190.919 112.115,206.047 104.550 C 218.737 98.204,229.120 93.126,229.120 93.267 C 229.120 93.881,198.278 187.984,197.969 188.313 C 197.779 188.515,195.639 187.913,193.212 186.976 C 181.584 182.487,167.143 179.159,150.825 177.209 C 141.620 176.109,114.380 176.109,105.175 177.209 C 88.857 179.159,74.416 182.487,62.788 186.976 C 60.361 187.913,58.221 188.515,58.031 188.313 C 57.722 187.984,26.880 93.881,26.880 93.267 C 26.880 93.126,37.244 98.194,49.911 104.529 C 62.577 110.863,73.857 116.253,74.977 116.507 C 77.681 117.119,81.316 116.357,83.923 114.629 C 86.413 112.981,85.910 113.769,108.800 75.613 C 119.243 58.205,127.883 43.963,128.000 43.964 C 128.117 43.965,136.429 57.641,146.470 74.356 " stroke="none" fill-rule="evenodd"></path></svg>