<svg fill="currentColor" viewBox="0 0 256 256" xmlns="http://www.w3.org/2000/svg"><path d="M28.800 40.711 C 27.117 41.463,25.379 43.350,24.556 45.320 C 23.987 46.683,23.895 49.894,23.903 68.146 C 23.911 87.884,23.968 89.507,24.700 91.093 C 27.673 97.535,36.327 97.535,39.300 91.093 C 40.023 89.527,40.089 88.009,40.097 72.654 L 40.107 55.921 57.527 55.800 L 74.947 55.680 76.523 54.478 C 79.439 52.253,80.453 49.413,79.571 45.940 C 78.986 43.635,77.710 42.087,75.430 40.918 C 73.934 40.151,72.654 40.108,51.964 40.123 C 34.631 40.137,29.814 40.259,28.800 40.711 M180.693 40.814 C 176.778 42.875,175.225 46.699,176.605 50.882 C 177.163 52.571,179.326 54.794,181.041 55.440 C 181.814 55.732,188.241 55.893,199.068 55.893 L 215.893 55.893 215.903 72.640 C 215.911 88.009,215.977 89.527,216.700 91.093 C 219.733 97.666,228.648 97.478,231.446 90.781 C 232.013 89.425,232.105 86.181,232.097 67.960 C 232.089 48.196,232.033 46.601,231.298 45.013 C 230.378 43.027,228.560 41.206,226.852 40.560 C 226.058 40.261,218.246 40.112,203.812 40.124 C 184.763 40.139,181.810 40.227,180.693 40.814 M125.579 56.334 C 123.235 56.804,124.696 56.001,95.147 73.062 C 80.949 81.259,68.701 88.571,67.928 89.311 C 67.156 90.051,66.004 91.714,65.368 93.008 L 64.213 95.360 64.096 127.423 C 63.981 159.024,63.992 159.520,64.869 161.864 C 66.588 166.457,67.126 166.834,94.933 182.888 C 109.013 191.017,121.509 198.119,122.701 198.672 C 125.749 200.084,128.251 200.343,131.029 199.532 C 133.847 198.709,186.041 168.673,188.072 166.706 C 188.844 165.957,189.996 164.286,190.632 162.992 L 191.787 160.640 191.787 128.000 L 191.787 95.360 190.632 93.008 C 189.996 91.714,188.844 90.049,188.072 89.308 C 186.713 88.004,136.362 58.658,132.907 57.156 C 130.718 56.205,127.838 55.882,125.579 56.334 M148.215 84.241 C 159.156 90.563,168.107 95.862,168.107 96.018 C 168.107 96.173,159.084 101.510,148.056 107.878 L 128.004 119.456 107.949 107.885 C 96.918 101.521,87.893 96.184,87.893 96.027 C 87.893 95.692,127.656 72.575,128.055 72.678 C 128.203 72.716,137.275 77.919,148.215 84.241 M100.405 121.980 L 119.893 133.240 119.893 156.015 L 119.893 178.791 117.841 177.609 C 116.712 176.959,107.788 171.819,98.011 166.187 L 80.233 155.947 80.223 133.191 C 80.218 120.676,80.372 110.500,80.565 110.578 C 80.759 110.656,89.687 115.787,100.405 121.980 M175.777 133.227 L 175.767 155.947 157.989 166.187 C 148.212 171.819,139.288 176.959,138.159 177.609 L 136.107 178.791 136.107 156.018 L 136.107 133.245 155.627 121.919 C 166.363 115.690,175.291 110.574,175.467 110.550 C 175.643 110.526,175.782 120.731,175.777 133.227 M28.800 160.806 C 26.735 161.760,25.435 163.110,24.554 165.219 C 23.987 166.575,23.895 169.819,23.903 188.040 C 23.911 207.662,23.971 209.410,24.689 210.990 C 25.668 213.146,28.146 215.348,29.964 215.678 C 30.732 215.818,41.167 215.875,53.154 215.806 L 74.947 215.680 76.522 214.478 C 79.439 212.253,80.453 209.413,79.571 205.940 C 78.986 203.635,77.710 202.087,75.430 200.918 C 73.953 200.161,72.721 200.107,56.977 200.107 L 40.107 200.107 40.097 183.360 C 40.089 167.991,40.023 166.473,39.300 164.907 C 37.370 160.725,32.823 158.949,28.800 160.806 M220.800 160.806 C 218.735 161.760,217.435 163.110,216.554 165.219 C 215.996 166.554,215.893 169.387,215.893 183.453 L 215.893 200.107 199.023 200.107 C 183.121 200.107,182.059 200.155,180.517 200.941 C 175.889 203.302,174.658 209.340,178.023 213.172 C 180.465 215.954,179.892 215.893,203.905 215.893 C 218.232 215.893,226.061 215.739,226.852 215.440 C 228.560 214.794,230.378 212.973,231.298 210.987 C 232.034 209.397,232.088 207.813,232.088 187.947 C 232.088 168.107,232.033 166.494,231.300 164.907 C 229.370 160.725,224.823 158.949,220.800 160.806 " stroke="none" fill-rule="evenodd"></path></svg>