<svg fill="currentColor" viewBox="0 0 256 256" xmlns="http://www.w3.org/2000/svg"><path d="M36.907 32.809 C 34.738 33.813,32.954 35.708,32.418 37.576 C 32.154 38.499,32.003 61.511,32.009 100.264 C 32.018 159.249,32.048 161.556,32.819 163.200 C 33.953 165.616,90.909 222.438,93.106 223.345 C 94.507 223.923,101.841 224.000,155.826 223.998 C 194.521 223.996,217.514 223.841,218.468 223.576 C 220.357 223.052,223.025 220.366,223.579 218.432 C 223.847 217.499,224.000 194.713,224.000 155.829 C 224.000 101.845,223.923 94.507,223.345 93.106 C 222.438 90.909,165.616 33.953,163.200 32.819 C 161.556 32.048,159.255 32.019,100.053 32.019 C 41.150 32.019,38.543 32.051,36.907 32.809 M151.893 68.053 L 151.893 87.893 125.545 87.893 L 99.197 87.893 79.360 68.053 L 59.523 48.213 105.708 48.213 L 151.893 48.213 151.893 68.053 M87.893 125.545 L 87.893 151.893 68.053 151.893 L 48.213 151.893 48.213 105.708 L 48.213 59.523 68.053 79.360 L 87.893 99.197 87.893 125.545 M182.400 73.813 L 196.475 87.893 182.291 87.893 L 168.107 87.893 168.107 73.813 C 168.107 66.069,168.156 59.733,168.216 59.733 C 168.276 59.733,174.659 66.069,182.400 73.813 M151.893 128.000 L 151.893 151.893 128.000 151.893 L 104.107 151.893 104.107 128.000 L 104.107 104.107 128.000 104.107 L 151.893 104.107 151.893 128.000 M207.787 150.292 L 207.787 196.477 187.947 176.640 L 168.107 156.803 168.107 130.455 L 168.107 104.107 187.947 104.107 L 207.787 104.107 207.787 150.292 M87.893 182.187 C 87.893 189.931,87.844 196.267,87.784 196.267 C 87.724 196.267,81.341 189.931,73.600 182.187 L 59.525 168.107 73.709 168.107 L 87.893 168.107 87.893 182.187 M176.535 187.842 C 187.387 198.696,196.267 207.720,196.267 207.895 C 196.267 208.070,175.531 208.213,150.187 208.213 L 104.107 208.213 104.107 188.160 L 104.107 168.107 130.455 168.107 L 156.803 168.107 176.535 187.842 " stroke="none" fill-rule="evenodd"></path></svg>