<svg fill="currentColor" viewBox="0 0 256 256" xmlns="http://www.w3.org/2000/svg"><path d="M127.619 32.488 C 118.018 33.491,109.111 36.155,99.981 40.755 C 91.484 45.035,86.746 48.499,79.569 55.676 C 72.416 62.828,68.928 67.591,64.706 75.972 C 60.507 84.307,57.887 92.699,56.555 102.080 L 56.268 104.107 47.255 104.107 C 38.943 104.107,38.097 104.177,36.373 105.012 C 33.602 106.353,32.213 108.686,32.213 112.000 C 32.213 115.314,33.602 117.647,36.373 118.988 C 38.094 119.821,38.947 119.893,47.068 119.893 L 55.893 119.893 55.893 128.000 L 55.893 136.107 47.068 136.107 C 38.947 136.107,38.094 136.179,36.373 137.012 C 33.602 138.353,32.213 140.686,32.213 144.000 C 32.213 147.314,33.602 149.647,36.373 150.988 C 38.097 151.823,38.943 151.893,47.255 151.893 L 56.268 151.893 56.555 153.920 C 57.887 163.301,60.507 171.693,64.706 180.028 C 68.568 187.693,72.261 192.925,78.080 198.975 C 88.018 209.308,97.971 215.634,111.073 219.945 C 120.567 223.070,125.267 223.779,136.320 223.754 C 144.815 223.735,146.219 223.625,151.102 222.593 C 161.772 220.339,171.361 216.453,179.558 211.063 C 184.644 207.719,189.300 203.920,190.666 202.000 C 192.929 198.819,192.050 193.810,188.791 191.324 C 187.482 190.326,186.670 190.072,184.367 189.942 C 181.211 189.764,181.843 189.430,173.820 195.509 C 158.016 207.482,135.699 211.168,116.693 204.945 C 112.561 203.591,106.373 200.860,103.467 199.105 C 99.006 196.413,93.390 191.859,89.629 187.885 C 80.535 178.276,75.106 167.202,72.768 153.493 L 72.495 151.893 97.126 151.893 C 121.354 151.893,121.788 151.879,123.627 150.988 C 126.398 149.647,127.787 147.314,127.787 144.000 C 127.787 140.686,126.398 138.353,123.627 137.012 C 121.787 136.121,121.358 136.107,96.932 136.107 L 72.107 136.107 72.107 128.008 L 72.107 119.909 105.527 119.794 L 138.947 119.680 140.522 118.478 C 143.439 116.253,144.453 113.414,143.571 109.940 C 142.986 107.635,141.710 106.087,139.430 104.918 C 137.915 104.141,136.451 104.107,105.171 104.107 L 72.495 104.107 72.768 102.507 C 75.232 88.056,80.870 76.979,90.864 66.957 C 99.730 58.065,109.617 52.570,122.027 49.639 C 127.558 48.332,138.665 47.814,144.263 48.602 C 155.489 50.182,165.900 54.447,174.412 60.952 C 176.145 62.276,178.281 63.901,179.160 64.561 C 185.591 69.400,194.502 62.706,191.426 55.346 C 190.726 53.672,186.909 50.104,182.368 46.879 C 166.457 35.580,146.990 30.463,127.619 32.488 " stroke="none" fill-rule="evenodd"></path></svg>