<svg fill="currentColor" viewBox="0 0 256 256" xmlns="http://www.w3.org/2000/svg"><path d="M100.480 16.924 C 98.503 17.968,97.654 18.839,96.802 20.693 C 96.123 22.173,96.017 23.579,96.009 31.253 L 96.000 40.107 79.174 40.107 C 68.324 40.107,61.922 40.268,61.148 40.560 C 58.496 41.562,55.912 45.234,55.912 48.000 C 55.912 50.766,58.496 54.438,61.148 55.440 C 61.808 55.689,64.544 55.893,67.228 55.893 L 72.107 55.893 72.107 123.947 L 72.107 192.000 67.307 192.009 C 63.575 192.017,62.123 192.193,60.782 192.802 C 57.257 194.403,55.318 198.189,56.245 201.658 C 56.958 204.322,57.844 205.510,60.114 206.844 L 62.080 208.000 79.040 208.129 L 96.000 208.258 96.009 216.876 C 96.017 224.313,96.126 225.730,96.802 227.218 C 98.403 230.743,102.189 232.682,105.658 231.755 C 108.322 231.042,109.510 230.156,110.844 227.886 C 111.985 225.946,112.002 225.804,112.144 217.067 L 112.288 208.213 120.144 208.213 L 128.000 208.213 128.009 216.853 C 128.017 224.312,128.126 225.729,128.802 227.218 C 130.403 230.743,134.189 232.682,137.658 231.755 C 140.322 231.042,141.510 230.156,142.844 227.886 C 143.985 225.946,144.002 225.804,144.144 217.067 L 144.288 208.213 148.259 208.213 C 160.379 208.213,169.839 205.637,178.414 199.999 C 187.813 193.820,194.974 184.059,198.151 173.094 C 204.380 151.602,194.372 128.159,174.485 117.657 C 172.948 116.845,171.412 116.080,171.072 115.956 C 170.613 115.790,170.903 115.250,172.194 113.866 C 183.818 101.404,187.076 83.124,180.537 67.057 C 178.646 62.410,175.542 57.770,171.553 53.626 C 164.757 46.568,156.854 42.355,147.435 40.771 L 144.427 40.265 144.207 31.119 C 143.968 21.213,143.832 20.595,141.371 18.267 C 139.050 16.071,135.248 15.545,132.356 17.021 C 128.454 19.013,128.000 20.505,128.000 31.346 L 128.000 40.107 120.143 40.107 L 112.287 40.107 112.140 31.040 C 112.020 23.604,111.867 21.743,111.288 20.693 C 110.357 19.004,108.450 17.231,106.959 16.667 C 105.222 16.011,101.963 16.140,100.480 16.924 M146.987 56.881 C 157.048 59.756,164.604 67.402,167.094 77.227 C 168.016 80.862,168.010 87.284,167.081 90.880 C 165.766 95.975,163.594 99.689,159.589 103.695 C 156.816 106.467,155.182 107.709,152.747 108.893 C 146.181 112.087,147.288 111.993,116.053 111.997 L 88.107 112.000 87.997 83.922 L 87.887 55.844 116.157 55.997 C 141.281 56.133,144.712 56.231,146.987 56.881 M160.213 129.012 C 171.086 132.234,179.370 140.354,182.687 151.040 C 183.520 153.723,183.680 155.171,183.680 160.000 C 183.680 164.829,183.520 166.277,182.687 168.960 C 179.370 179.646,171.098 187.755,160.213 190.990 C 157.866 191.688,154.755 191.763,122.773 191.890 L 87.893 192.028 87.893 159.998 L 87.893 127.967 122.773 128.110 C 154.700 128.242,157.870 128.318,160.213 129.012 " stroke="none" fill-rule="evenodd"></path></svg>