<svg fill="currentColor" viewBox="0 0 256 256" xmlns="http://www.w3.org/2000/svg"><path d="M124.800 8.714 C 124.096 9.030,122.825 10.031,121.975 10.938 C 118.954 14.160,33.929 122.699,32.973 124.552 C 31.739 126.944,31.739 129.056,32.973 131.448 C 33.928 133.300,118.951 241.835,121.975 245.063 C 125.576 248.907,130.424 248.907,134.025 245.063 C 137.049 241.835,222.072 133.300,223.027 131.448 C 223.562 130.411,224.000 128.859,224.000 128.000 C 224.000 127.141,223.562 125.589,223.027 124.552 C 222.072 122.700,137.049 14.165,134.025 10.937 C 133.175 10.030,131.862 9.022,131.107 8.697 C 129.383 7.956,126.473 7.964,124.800 8.714 M119.710 155.205 C 119.498 155.418,53.748 125.598,53.182 125.033 C 52.974 124.825,67.389 106.112,86.246 82.115 L 119.680 39.566 119.788 97.292 C 119.848 129.042,119.813 155.103,119.710 155.205 M170.241 82.704 C 188.676 106.181,203.026 124.824,202.821 125.030 C 202.457 125.394,138.292 154.668,136.853 155.126 C 136.145 155.352,136.107 152.412,136.107 97.431 C 136.107 47.922,136.193 39.588,136.700 40.122 C 137.027 40.466,152.120 59.628,170.241 82.704 M93.867 161.297 C 107.829 167.648,119.399 172.989,119.577 173.167 C 119.756 173.345,119.852 183.154,119.791 194.964 L 119.680 216.437 94.233 184.059 C 80.237 166.250,68.349 151.129,67.815 150.455 C 66.932 149.342,66.918 149.254,67.662 149.491 C 68.112 149.634,79.904 154.947,93.867 161.297 M188.145 150.507 C 187.633 151.152,175.763 166.250,161.767 184.059 L 136.320 216.437 136.209 194.964 C 136.148 183.154,136.245 173.344,136.425 173.165 C 136.819 172.770,188.226 149.354,188.724 149.342 C 188.917 149.337,188.657 149.861,188.145 150.507 " stroke="none" fill-rule="evenodd"></path></svg>