<svg fill="currentColor" viewBox="0 0 256 256" xmlns="http://www.w3.org/2000/svg"><path d="M118.400 24.353 C 86.602 26.116,59.661 36.344,44.131 52.547 C 37.570 59.392,33.891 66.282,32.448 74.425 C 31.829 77.924,31.829 178.076,32.448 181.575 C 34.043 190.577,38.297 197.924,46.440 205.740 C 79.491 237.464,158.495 241.120,200.724 212.882 C 205.852 209.453,212.697 203.135,215.911 198.863 C 219.734 193.784,222.496 187.533,223.552 181.575 C 224.171 178.076,224.171 77.924,223.552 74.425 C 222.109 66.282,218.430 59.392,211.869 52.547 C 196.070 36.064,169.616 26.160,136.468 24.320 C 128.315 23.868,127.096 23.870,118.400 24.353 M142.118 40.737 C 158.196 42.279,171.013 45.639,182.827 51.408 C 189.859 54.843,194.288 57.781,198.565 61.848 C 210.901 73.581,210.905 86.417,198.574 98.142 C 179.597 116.189,138.170 124.421,100.939 117.545 C 82.776 114.190,66.820 107.075,57.426 98.142 C 45.095 86.417,45.099 73.581,57.435 61.848 C 67.152 52.607,84.366 45.191,103.467 42.017 C 114.859 40.124,130.370 39.611,142.118 40.737 M50.413 113.348 C 56.123 118.156,68.417 124.716,77.867 127.997 C 118.572 142.130,171.770 137.069,201.685 116.218 C 203.844 114.713,205.727 113.293,205.869 113.063 C 206.011 112.833,206.513 112.438,206.984 112.186 C 207.833 111.732,207.840 111.825,207.707 122.351 L 207.573 132.975 205.787 136.567 C 201.752 144.680,194.326 151.134,182.479 156.822 C 171.325 162.177,158.710 165.546,143.147 167.326 C 137.094 168.018,118.906 168.018,112.853 167.326 C 97.290 165.546,84.675 162.177,73.521 156.822 C 61.674 151.134,54.248 144.680,50.213 136.567 L 48.427 132.975 48.293 122.381 C 48.219 116.554,48.249 111.787,48.359 111.787 C 48.469 111.787,49.393 112.489,50.413 113.348 M55.893 165.293 C 66.501 172.360,82.087 178.339,97.184 181.132 C 109.037 183.325,112.852 183.643,127.573 183.662 C 141.713 183.680,145.138 183.442,155.520 181.718 C 174.946 178.492,194.697 170.420,205.760 161.186 L 207.787 159.494 207.787 169.302 C 207.787 180.779,207.414 182.604,204.014 187.786 C 194.863 201.733,171.533 212.265,143.199 215.241 C 130.422 216.582,113.766 215.914,100.939 213.545 C 78.435 209.389,59.688 199.524,51.986 187.786 C 48.586 182.604,48.213 180.779,48.213 169.302 L 48.213 159.494 50.240 161.186 C 51.355 162.116,53.899 163.965,55.893 165.293 " stroke="none" fill-rule="evenodd"></path></svg>