<svg fill="currentColor" viewBox="0 0 256 256" xmlns="http://www.w3.org/2000/svg"><path d="M34.249 40.720 C 26.142 42.684,19.428 49.263,16.783 57.836 C 16.042 60.238,16.000 63.123,16.000 112.000 C 16.000 160.877,16.042 163.762,16.783 166.164 C 18.153 170.603,20.008 173.703,23.206 176.896 C 26.520 180.205,30.748 182.566,34.901 183.425 C 36.476 183.751,54.547 183.893,94.475 183.893 L 151.788 183.893 151.983 190.187 C 152.150 195.568,152.340 196.936,153.293 199.629 C 156.017 207.330,162.369 213.225,170.088 215.217 C 173.930 216.208,225.900 216.233,229.777 215.246 C 238.254 213.087,245.087 206.254,247.246 197.777 C 248.222 193.945,248.222 94.055,247.246 90.223 C 245.284 82.522,239.890 76.515,232.226 73.500 C 229.423 72.397,229.008 72.357,218.837 72.197 L 208.341 72.032 208.085 65.989 C 207.692 56.733,205.970 52.273,200.794 47.104 C 197.480 43.795,193.252 41.434,189.099 40.575 C 185.610 39.852,37.256 39.991,34.249 40.720 M187.520 56.813 C 190.968 58.715,192.000 61.147,192.000 67.367 L 192.000 72.041 181.440 72.209 C 169.659 72.396,168.565 72.596,163.934 75.401 C 158.805 78.507,155.305 82.768,153.239 88.421 L 152.107 91.520 151.987 129.813 L 151.867 168.107 95.240 168.097 C 41.098 168.088,38.538 168.053,36.907 167.300 C 34.841 166.347,33.541 164.996,32.660 162.888 C 32.077 161.492,32.001 155.544,32.009 111.907 C 32.018 64.902,32.057 62.423,32.802 60.782 C 33.703 58.799,35.816 56.860,37.473 56.496 C 38.100 56.358,38.805 56.180,39.040 56.100 C 39.275 56.020,72.491 55.989,112.853 56.031 C 180.252 56.100,186.344 56.164,187.520 56.813 M228.139 89.251 C 229.090 89.881,230.324 91.129,230.881 92.025 L 231.893 93.653 231.893 144.070 L 231.893 194.486 230.607 196.316 C 229.900 197.322,228.652 198.539,227.834 199.020 C 226.387 199.869,225.654 199.897,200.960 200.024 C 183.375 200.114,175.079 200.010,173.966 199.685 C 171.951 199.095,169.439 196.922,168.683 195.114 C 167.828 193.068,167.828 94.932,168.683 92.886 C 169.395 91.183,171.991 88.847,173.554 88.502 C 174.196 88.361,174.912 88.178,175.147 88.095 C 175.381 88.012,187.012 87.981,200.992 88.025 L 226.410 88.107 228.139 89.251 M188.800 104.711 C 186.241 105.854,183.882 109.410,183.903 112.093 C 183.924 114.787,186.543 118.455,189.148 119.440 C 189.871 119.713,194.203 119.890,200.028 119.884 C 208.503 119.876,209.919 119.777,211.413 119.091 C 213.443 118.159,214.353 117.207,215.237 115.091 C 216.394 112.323,215.812 108.724,213.850 106.515 C 213.449 106.063,212.352 105.340,211.413 104.909 C 209.913 104.220,208.522 104.126,199.893 104.133 C 192.630 104.138,189.747 104.289,188.800 104.711 M84.693 200.814 C 80.778 202.875,79.225 206.699,80.605 210.882 C 81.163 212.571,83.326 214.794,85.041 215.440 C 86.699 216.066,129.197 216.065,130.852 215.440 C 133.504 214.438,136.088 210.766,136.088 208.000 C 136.088 205.234,133.504 201.562,130.852 200.560 C 130.058 200.261,122.246 200.112,107.812 200.124 C 88.763 200.139,85.810 200.227,84.693 200.814 " stroke="none" fill-rule="evenodd"></path></svg>