<svg fill="currentColor" viewBox="0 0 256 256" xmlns="http://www.w3.org/2000/svg"><path d="M74.027 16.844 C 64.920 19.331,58.463 26.130,56.526 35.270 C 55.590 39.688,55.599 216.340,56.535 220.800 C 58.439 229.867,65.561 237.182,74.667 239.423 C 78.131 240.275,177.869 240.275,181.333 239.423 C 190.439 237.182,197.561 229.867,199.465 220.800 C 200.407 216.312,200.409 39.685,199.467 35.237 C 197.751 27.136,192.313 20.737,184.481 17.601 L 181.547 16.427 128.853 16.344 C 85.451 16.276,75.784 16.364,74.027 16.844 M180.353 33.359 C 181.395 34.048,182.443 35.247,182.988 36.373 L 183.893 38.243 183.893 128.000 L 183.893 217.757 182.988 219.627 C 182.443 220.753,181.395 221.952,180.353 222.641 L 178.622 223.787 128.000 223.787 L 77.378 223.787 75.647 222.641 C 74.603 221.950,73.557 220.753,73.009 219.621 L 72.101 217.745 72.210 127.508 L 72.320 37.271 73.458 35.551 C 74.123 34.546,75.366 33.448,76.445 32.913 L 78.293 31.995 128.458 32.104 L 178.623 32.213 180.353 33.359 M91.679 49.436 C 86.355 52.812,86.976 60.561,92.782 63.198 C 94.408 63.937,96.416 63.981,128.000 63.981 C 159.584 63.981,161.592 63.937,163.218 63.198 C 169.024 60.561,169.645 52.812,164.321 49.436 L 162.393 48.213 128.000 48.213 L 93.607 48.213 91.679 49.436 " stroke="none" fill-rule="evenodd"></path></svg>