<svg fill="currentColor" viewBox="0 0 256 256" xmlns="http://www.w3.org/2000/svg"><path d="M58.699 32.448 C 47.861 34.285,37.934 42.409,34.154 52.536 C 31.940 58.465,32.015 55.822,32.007 127.911 C 31.999 201.370,31.885 197.871,34.492 204.277 C 37.558 211.811,44.189 218.442,51.723 221.508 C 58.127 224.114,54.644 224.000,128.000 224.000 C 201.341 224.000,197.878 224.113,204.263 221.513 C 211.733 218.471,218.471 211.733,221.513 204.263 C 224.113 197.878,224.000 201.341,224.000 128.000 C 224.000 54.644,224.114 58.127,221.508 51.723 C 218.658 44.721,212.947 38.748,205.827 35.325 C 198.820 31.956,205.774 32.243,129.280 32.163 C 91.616 32.124,59.854 32.252,58.699 32.448 M198.873 49.602 C 201.731 51.006,205.330 54.664,206.637 57.493 L 207.573 59.520 207.685 127.126 C 207.809 202.105,207.991 197.140,204.972 201.218 C 203.057 203.805,200.422 205.859,197.463 207.072 L 195.200 208.000 128.000 208.000 L 60.800 208.000 58.537 207.072 C 54.089 205.249,50.432 201.540,49.003 197.403 C 48.284 195.325,48.241 191.389,48.241 128.000 C 48.241 64.611,48.284 60.675,49.003 58.597 C 50.457 54.387,54.382 50.462,58.597 49.000 C 60.683 48.276,64.403 48.241,128.640 48.331 L 196.480 48.427 198.873 49.602 M123.850 116.759 C 121.059 117.748,117.967 120.784,116.931 123.554 C 113.235 133.431,122.524 142.782,132.371 139.097 C 140.459 136.072,142.516 125.097,136.080 119.311 C 132.644 116.221,128.067 115.266,123.850 116.759 " stroke="none" fill-rule="evenodd"></path></svg>