<svg fill="currentColor" viewBox="0 0 256 256" xmlns="http://www.w3.org/2000/svg"><path d="M58.699 32.448 C 47.861 34.285,37.934 42.409,34.154 52.536 C 31.940 58.465,32.015 55.822,32.007 127.911 C 31.999 201.370,31.885 197.871,34.492 204.277 C 37.558 211.811,44.189 218.442,51.723 221.508 C 58.127 224.114,54.644 224.000,128.000 224.000 C 201.341 224.000,197.878 224.113,204.263 221.513 C 211.733 218.471,218.471 211.733,221.513 204.263 C 224.113 197.878,224.000 201.341,224.000 128.000 C 224.000 54.644,224.114 58.127,221.508 51.723 C 218.658 44.721,212.947 38.748,205.827 35.325 C 198.820 31.956,205.774 32.243,129.280 32.163 C 91.616 32.124,59.854 32.252,58.699 32.448 M198.873 49.602 C 201.731 51.006,205.330 54.664,206.637 57.493 L 207.573 59.520 207.685 127.126 C 207.809 202.105,207.991 197.140,204.972 201.218 C 203.057 203.805,200.422 205.859,197.463 207.072 L 195.200 208.000 128.000 208.000 L 60.800 208.000 58.537 207.072 C 54.089 205.249,50.432 201.540,49.003 197.403 C 48.284 195.325,48.241 191.389,48.241 128.000 C 48.241 64.611,48.284 60.675,49.003 58.597 C 50.457 54.387,54.382 50.462,58.597 49.000 C 60.683 48.276,64.403 48.241,128.640 48.331 L 196.480 48.427 198.873 49.602 M97.300 88.347 C 93.379 89.141,89.662 92.693,88.473 96.784 C 85.652 106.489,96.045 115.205,105.137 110.756 C 109.356 108.692,111.880 104.718,111.914 100.083 C 111.971 92.458,104.928 86.802,97.300 88.347 M153.600 88.282 C 142.458 90.632,140.618 105.744,150.863 110.756 C 156.815 113.669,164.368 110.834,167.082 104.669 C 168.148 102.247,168.099 97.548,166.982 95.147 C 164.677 90.190,158.814 87.182,153.600 88.282 M94.933 145.217 C 92.531 146.338,89.969 148.947,88.910 151.350 C 87.852 153.753,87.906 158.461,89.018 160.853 C 91.087 165.301,95.192 167.899,100.053 167.837 C 103.610 167.791,105.594 167.013,108.140 164.666 C 114.229 159.054,112.749 149.029,105.284 145.309 C 102.293 143.818,98.012 143.781,94.933 145.217 M150.716 145.309 C 143.234 149.037,141.758 159.042,147.860 164.666 C 150.406 167.013,152.390 167.791,155.947 167.837 C 159.526 167.882,161.955 166.908,164.431 164.431 C 166.908 161.955,167.882 159.526,167.837 155.947 C 167.792 152.448,167.035 150.466,164.790 147.977 C 161.363 144.175,155.298 143.025,150.716 145.309 " stroke="none" fill-rule="evenodd"></path></svg>