<svg fill="currentColor" viewBox="0 0 256 256" xmlns="http://www.w3.org/2000/svg"><path d="M120.960 24.326 C 100.935 25.586,81.587 32.844,64.891 45.360 C 59.554 49.360,49.234 59.686,45.276 64.986 C 34.512 79.399,27.973 94.882,25.095 112.768 C 23.886 120.283,23.787 134.307,24.890 141.867 C 27.542 160.046,34.293 176.318,45.279 191.014 C 49.299 196.392,59.608 206.701,64.986 210.721 C 79.686 221.710,96.000 228.476,114.133 231.105 C 117.683 231.620,121.936 231.847,128.000 231.847 C 144.598 231.847,158.874 228.583,173.440 221.458 C 184.661 215.968,192.320 210.472,201.396 201.396 C 210.475 192.317,215.974 184.654,221.456 173.440 C 235.707 144.287,235.458 110.173,220.780 81.026 C 214.698 68.950,203.517 55.194,193.067 46.931 C 172.349 30.550,147.221 22.673,120.960 24.326 M137.297 40.558 C 153.087 42.278,168.184 48.277,181.252 58.026 L 184.352 60.338 167.218 77.476 L 150.083 94.614 146.615 92.785 C 139.819 89.202,132.463 87.730,124.500 88.361 C 114.829 89.128,106.312 93.205,99.200 100.472 C 86.754 113.188,84.466 133.148,93.692 148.528 C 102.023 162.414,118.727 170.237,134.251 167.524 C 149.733 164.818,162.377 153.661,166.334 139.215 L 167.127 136.320 191.353 136.210 L 215.578 136.100 215.284 138.770 C 215.122 140.238,214.602 143.328,214.129 145.635 C 206.454 183.024,175.547 211.169,137.411 215.497 C 131.761 216.138,118.876 215.791,113.707 214.859 C 94.011 211.305,77.847 202.735,64.405 188.717 C 43.582 167.003,35.334 135.870,42.654 106.609 C 46.634 90.702,54.970 76.298,66.830 64.838 C 81.392 50.767,99.332 42.504,119.893 40.396 C 123.324 40.045,133.448 40.139,137.297 40.558 M197.607 74.347 C 206.688 85.730,213.417 102.150,215.268 117.444 L 215.566 119.900 191.322 119.790 L 167.079 119.680 166.474 117.203 C 166.142 115.840,164.872 112.768,163.653 110.376 L 161.437 106.027 178.317 89.067 C 187.600 79.739,195.336 72.107,195.508 72.107 C 195.680 72.107,196.624 73.115,197.607 74.347 M136.159 105.516 C 143.085 108.142,147.753 112.784,150.498 119.774 C 151.513 122.360,151.634 123.233,151.634 128.000 C 151.634 132.767,151.513 133.640,150.498 136.226 C 146.693 145.916,138.109 151.893,128.000 151.893 C 117.891 151.893,109.307 145.916,105.502 136.226 C 104.487 133.640,104.366 132.767,104.366 128.000 C 104.366 123.262,104.490 122.351,105.477 119.841 C 108.646 111.779,114.974 106.273,123.093 104.514 C 126.301 103.818,133.047 104.336,136.159 105.516 " stroke="none" fill-rule="evenodd"></path></svg>