<svg fill="currentColor" viewBox="0 0 256 256" xmlns="http://www.w3.org/2000/svg"><path d="M60.587 24.487 C 53.988 25.954,49.321 30.984,48.198 37.836 C 47.950 39.353,47.791 74.473,47.789 128.079 L 47.787 215.837 34.880 215.972 L 21.973 216.107 20.049 217.238 C 16.124 219.545,14.945 224.289,17.337 228.141 C 18.080 229.337,19.230 230.460,20.267 231.001 L 21.973 231.893 128.000 231.893 L 234.027 231.893 235.733 231.001 C 241.141 228.175,241.226 220.228,235.882 217.169 C 234.034 216.111,233.975 216.106,221.120 215.972 L 208.213 215.837 208.211 128.079 C 208.209 74.473,208.050 39.353,207.802 37.836 C 206.646 30.781,201.672 25.631,194.784 24.358 C 190.995 23.658,63.767 23.779,60.587 24.487 M192.000 128.000 L 192.000 215.893 128.000 215.893 L 64.000 215.893 64.000 128.000 L 64.000 40.107 128.000 40.107 L 192.000 40.107 192.000 128.000 M153.600 120.282 C 142.458 122.632,140.618 137.744,150.863 142.756 C 156.815 145.669,164.368 142.834,167.082 136.669 C 168.148 134.247,168.099 129.548,166.982 127.147 C 164.677 122.190,158.814 119.182,153.600 120.282 " stroke="none" fill-rule="evenodd"></path></svg>