<svg fill="currentColor" viewBox="0 0 256 256" xmlns="http://www.w3.org/2000/svg"><path d="M60.587 24.487 C 53.988 25.954,49.321 30.984,48.198 37.836 C 47.950 39.353,47.791 74.473,47.789 128.079 L 47.787 215.837 34.880 215.972 L 21.973 216.107 20.049 217.238 C 16.124 219.545,14.945 224.289,17.337 228.141 C 18.080 229.337,19.230 230.460,20.267 231.001 L 21.973 231.893 128.000 231.893 L 234.027 231.893 235.733 231.001 C 241.141 228.175,241.226 220.228,235.882 217.169 C 234.034 216.111,233.975 216.106,221.120 215.972 L 208.213 215.837 208.211 128.079 C 208.209 74.473,208.050 39.353,207.802 37.836 C 206.646 30.781,201.672 25.631,194.784 24.358 C 190.995 23.658,63.767 23.779,60.587 24.487 M160.000 128.000 L 160.000 215.893 112.000 215.893 L 64.000 215.893 64.000 128.000 L 64.000 40.107 112.000 40.107 L 160.000 40.107 160.000 128.000 M192.000 128.000 L 192.000 215.893 184.107 215.893 L 176.213 215.893 176.213 128.000 L 176.213 40.107 184.107 40.107 L 192.000 40.107 192.000 128.000 M129.300 120.347 C 125.379 121.141,121.662 124.693,120.473 128.784 C 117.652 138.489,128.045 147.205,137.137 142.756 C 141.356 140.692,143.880 136.718,143.914 132.083 C 143.971 124.458,136.928 118.802,129.300 120.347 " stroke="none" fill-rule="evenodd"></path></svg>