<svg fill="currentColor" viewBox="0 0 256 256" xmlns="http://www.w3.org/2000/svg"><path d="M120.960 24.326 C 100.935 25.586,81.587 32.844,64.891 45.360 C 59.554 49.360,49.234 59.686,45.276 64.986 C 34.512 79.399,27.973 94.882,25.095 112.768 C 23.886 120.283,23.787 134.307,24.890 141.867 C 27.542 160.046,34.293 176.318,45.279 191.014 C 49.299 196.392,59.608 206.701,64.986 210.721 C 79.686 221.710,96.000 228.476,114.133 231.105 C 117.683 231.620,121.936 231.847,128.000 231.847 C 144.598 231.847,158.874 228.583,173.440 221.458 C 184.661 215.968,192.320 210.472,201.396 201.396 C 210.475 192.317,215.974 184.654,221.456 173.440 C 235.707 144.287,235.458 110.173,220.780 81.026 C 214.698 68.950,203.517 55.194,193.067 46.931 C 172.349 30.550,147.221 22.673,120.960 24.326 M142.080 41.152 C 159.933 44.170,175.895 52.156,188.870 64.559 C 202.597 77.682,211.532 94.696,214.904 114.133 C 215.937 120.088,215.932 135.829,214.895 141.867 C 212.390 156.454,206.990 169.066,198.207 180.843 C 173.373 214.141,127.558 225.417,90.240 207.417 C 81.119 203.017,74.345 198.338,67.182 191.490 C 53.399 178.314,44.463 161.314,41.098 141.867 C 40.060 135.867,40.060 120.133,41.098 114.133 C 46.547 82.647,66.943 57.480,96.401 45.891 C 101.417 43.918,110.346 41.621,115.413 41.001 C 117.525 40.743,119.733 40.449,120.320 40.349 C 122.762 39.932,138.241 40.503,142.080 41.152 M124.584 72.480 C 121.547 73.476,118.553 76.053,117.111 78.914 C 115.981 81.155,115.799 85.200,116.705 87.928 C 118.215 92.476,123.146 96.000,128.000 96.000 C 132.854 96.000,137.785 92.476,139.295 87.928 C 140.201 85.200,140.019 81.155,138.889 78.914 C 137.855 76.862,135.360 74.333,133.333 73.283 C 131.478 72.321,126.470 71.862,124.584 72.480 M123.850 116.759 C 121.059 117.748,117.967 120.784,116.931 123.554 C 113.235 133.431,122.524 142.782,132.371 139.097 C 140.459 136.072,142.516 125.097,136.080 119.311 C 132.644 116.221,128.067 115.266,123.850 116.759 M123.947 160.730 C 120.972 161.748,117.706 165.059,116.705 168.072 C 115.799 170.800,115.981 174.845,117.111 177.086 C 118.133 179.113,120.620 181.650,122.667 182.751 C 124.973 183.993,130.880 184.067,133.120 182.883 C 140.179 179.152,142.108 170.148,137.102 164.299 C 133.988 160.661,128.501 159.173,123.947 160.730 " stroke="none" fill-rule="evenodd"></path></svg>