<svg fill="currentColor" viewBox="0 0 256 256" xmlns="http://www.w3.org/2000/svg"><path d="M43.021 96.407 C 28.330 99.102,17.883 110.109,16.262 124.599 C 14.542 139.972,23.985 154.005,39.264 158.781 C 43.862 160.218,52.138 160.218,56.736 158.781 C 69.648 154.745,78.275 144.475,79.738 131.401 C 81.459 116.016,71.644 101.491,56.678 97.275 C 53.165 96.286,46.123 95.838,43.021 96.407 M122.699 96.423 C 115.497 97.729,108.336 101.869,103.498 107.524 C 95.861 116.452,93.932 129.071,98.492 140.277 C 101.558 147.811,108.189 154.442,115.723 157.508 C 127.881 162.456,141.348 159.769,150.559 150.559 C 162.541 138.577,163.146 119.596,151.952 106.880 C 148.234 102.656,141.615 98.553,136.067 97.033 C 133.235 96.257,125.548 95.906,122.699 96.423 M203.021 96.407 C 188.330 99.102,177.883 110.109,176.262 124.599 C 174.542 139.972,183.985 154.005,199.264 158.781 C 203.862 160.218,212.138 160.218,216.736 158.781 C 229.648 154.745,238.275 144.475,239.738 131.401 C 241.459 116.016,231.644 101.491,216.678 97.275 C 213.165 96.286,206.123 95.838,203.021 96.407 M55.135 113.829 C 66.552 119.454,66.828 136.002,55.604 141.969 C 42.577 148.894,28.200 136.444,33.066 122.453 C 34.489 118.361,37.715 115.075,42.125 113.226 C 44.220 112.347,45.160 112.211,48.438 112.310 C 51.797 112.412,52.653 112.606,55.135 113.829 M134.897 113.618 C 137.730 115.004,141.333 118.670,142.637 121.493 C 143.413 123.172,143.573 124.288,143.573 128.000 C 143.573 132.011,143.452 132.727,142.414 134.841 C 139.319 141.143,132.295 144.868,125.568 143.773 C 120.534 142.953,115.860 139.480,113.613 134.887 C 112.145 131.886,111.783 126.712,112.797 123.223 C 114.075 118.828,118.155 114.562,122.597 112.978 C 125.964 111.777,131.750 112.078,134.897 113.618 M215.135 113.829 C 226.552 119.454,226.828 136.002,215.604 141.969 C 202.577 148.894,188.200 136.444,193.066 122.453 C 194.489 118.361,197.715 115.075,202.125 113.226 C 204.220 112.347,205.160 112.211,208.438 112.310 C 211.797 112.412,212.653 112.606,215.135 113.829 " stroke="none" fill-rule="evenodd"></path></svg>