<svg fill="currentColor" viewBox="0 0 256 256" xmlns="http://www.w3.org/2000/svg"><path d="M86.716 49.309 C 79.234 53.037,77.758 63.042,83.860 68.666 C 86.406 71.013,88.390 71.791,91.947 71.837 C 95.526 71.882,97.955 70.908,100.431 68.431 C 102.908 65.955,103.882 63.526,103.837 59.947 C 103.792 56.448,103.035 54.466,100.790 51.977 C 97.363 48.175,91.298 47.025,86.716 49.309 M158.933 49.217 C 156.531 50.338,153.969 52.947,152.910 55.350 C 151.852 57.753,151.906 62.461,153.018 64.853 C 155.087 69.301,159.192 71.899,164.053 71.837 C 167.610 71.791,169.594 71.013,172.140 68.666 C 178.229 63.054,176.749 53.029,169.284 49.309 C 166.293 47.818,162.012 47.781,158.933 49.217 M88.191 116.643 C 84.080 118.176,81.511 121.075,80.391 125.447 C 79.801 127.752,79.803 128.255,80.410 130.627 C 81.289 134.058,83.274 136.759,86.078 138.339 C 92.009 141.681,99.480 139.495,102.501 133.534 C 104.084 130.412,104.380 127.879,103.512 124.893 C 102.043 119.839,97.869 116.495,92.661 116.200 C 90.870 116.098,89.211 116.263,88.191 116.643 M160.300 116.669 C 154.457 118.753,151.001 124.618,152.271 130.292 C 154.220 139.003,163.731 142.702,171.082 137.608 C 173.258 136.100,174.805 133.689,175.609 130.553 C 176.196 128.259,176.196 127.741,175.609 125.447 C 174.485 121.063,171.868 118.117,167.809 116.669 C 165.734 115.929,162.374 115.929,160.300 116.669 M89.600 184.282 C 78.458 186.632,76.618 201.744,86.863 206.756 C 92.815 209.669,100.368 206.834,103.082 200.669 C 104.148 198.247,104.099 193.548,102.982 191.147 C 100.677 186.190,94.814 183.182,89.600 184.282 M161.300 184.347 C 157.379 185.141,153.662 188.693,152.473 192.784 C 149.652 202.489,160.045 211.205,169.137 206.756 C 173.356 204.692,175.880 200.718,175.914 196.083 C 175.971 188.458,168.928 182.802,161.300 184.347 " stroke="none" fill-rule="evenodd"></path></svg>