<svg fill="currentColor" viewBox="0 0 256 256" xmlns="http://www.w3.org/2000/svg"><path d="M54.716 49.309 C 47.234 53.037,45.758 63.042,51.860 68.666 C 54.406 71.013,56.390 71.791,59.947 71.837 C 63.526 71.882,65.955 70.908,68.431 68.431 C 70.908 65.955,71.882 63.526,71.837 59.947 C 71.792 56.448,71.035 54.466,68.790 51.977 C 65.363 48.175,59.298 47.025,54.716 49.309 M122.516 49.530 C 118.680 51.446,116.556 54.592,116.162 58.939 C 115.710 63.915,118.152 68.306,122.649 70.606 C 131.875 75.324,142.295 66.710,139.506 56.669 C 138.697 53.757,136.475 51.107,133.578 49.600 C 129.852 47.662,126.298 47.639,122.516 49.530 M190.933 49.217 C 188.531 50.338,185.969 52.947,184.910 55.350 C 183.852 57.753,183.906 62.461,185.018 64.853 C 187.087 69.301,191.192 71.899,196.053 71.837 C 199.610 71.791,201.594 71.013,204.140 68.666 C 210.229 63.054,208.749 53.029,201.284 49.309 C 198.293 47.818,194.012 47.781,190.933 49.217 M56.191 116.643 C 52.080 118.176,49.511 121.075,48.391 125.447 C 47.801 127.752,47.803 128.255,48.410 130.627 C 49.289 134.058,51.274 136.759,54.078 138.339 C 60.009 141.681,67.480 139.495,70.501 133.534 C 72.084 130.412,72.380 127.879,71.512 124.893 C 70.043 119.839,65.869 116.495,60.661 116.200 C 58.870 116.098,57.211 116.263,56.191 116.643 M123.850 116.759 C 121.059 117.748,117.967 120.784,116.931 123.554 C 113.235 133.431,122.524 142.782,132.371 139.097 C 140.459 136.072,142.516 125.097,136.080 119.311 C 132.644 116.221,128.067 115.266,123.850 116.759 M192.300 116.669 C 186.457 118.753,183.001 124.618,184.271 130.292 C 186.220 139.003,195.731 142.702,203.082 137.608 C 205.258 136.100,206.805 133.689,207.609 130.553 C 208.196 128.259,208.196 127.741,207.609 125.447 C 206.485 121.063,203.868 118.117,199.809 116.669 C 197.734 115.929,194.374 115.929,192.300 116.669 M57.600 184.282 C 46.458 186.632,44.618 201.744,54.863 206.756 C 60.815 209.669,68.368 206.834,71.082 200.669 C 72.148 198.247,72.099 193.548,70.982 191.147 C 68.677 186.190,62.814 183.182,57.600 184.282 M124.929 184.470 C 119.083 186.104,115.622 191.107,116.168 197.132 C 116.634 202.270,120.135 206.248,125.373 207.590 C 127.745 208.197,128.248 208.199,130.553 207.609 C 136.276 206.143,139.877 201.722,139.928 196.103 C 139.954 193.223,139.252 191.157,137.426 188.742 C 134.645 185.062,129.321 183.242,124.929 184.470 M193.300 184.347 C 189.379 185.141,185.662 188.693,184.473 192.784 C 181.652 202.489,192.045 211.205,201.137 206.756 C 205.356 204.692,207.880 200.718,207.914 196.083 C 207.971 188.458,200.928 182.802,193.300 184.347 " stroke="none" fill-rule="evenodd"></path></svg>