<svg fill="currentColor" viewBox="0 0 256 256" xmlns="http://www.w3.org/2000/svg"><path d="M124.800 32.806 C 122.735 33.760,121.435 35.110,120.554 37.219 C 119.971 38.613,119.893 44.326,119.893 85.631 L 119.893 132.462 106.347 118.944 C 97.319 109.936,92.271 105.207,91.214 104.767 C 86.719 102.897,81.753 105.243,80.407 109.871 C 79.853 111.777,79.854 112.282,80.412 114.149 C 80.999 116.109,82.627 117.846,102.283 137.478 C 123.985 159.154,124.968 160.012,128.093 159.991 C 131.158 159.970,132.524 158.768,154.092 137.112 C 174.603 116.518,175.292 115.774,175.706 113.757 C 177.024 107.343,170.837 102.249,164.786 104.767 C 163.729 105.207,158.681 109.936,149.653 118.944 L 136.107 132.462 136.097 85.538 C 136.088 40.829,136.051 38.533,135.300 36.907 C 133.370 32.725,128.823 30.949,124.800 32.806 M36.480 144.922 C 34.469 145.983,33.356 147.186,32.637 149.078 C 32.053 150.613,31.987 154.550,32.093 181.333 L 32.213 211.840 33.407 214.400 C 34.974 217.760,38.261 221.060,41.555 222.583 L 44.160 223.787 128.000 223.787 L 211.840 223.787 214.400 222.593 C 217.760 221.026,221.060 217.739,222.583 214.445 L 223.787 211.840 223.916 181.547 C 224.003 161.217,223.898 150.746,223.596 149.711 C 222.612 146.332,219.639 144.213,215.882 144.213 C 213.472 144.213,212.429 144.626,210.629 146.292 C 207.863 148.851,208.012 147.078,207.879 179.093 L 207.758 208.213 128.000 208.213 L 48.242 208.213 48.121 179.093 C 48.012 152.898,47.929 149.845,47.291 148.693 C 46.355 147.002,44.448 145.230,42.959 144.667 C 41.224 144.012,37.964 144.140,36.480 144.922 " stroke="none" fill-rule="evenodd"></path></svg>