<svg fill="currentColor" viewBox="0 0 256 256" xmlns="http://www.w3.org/2000/svg"><path d="M123.679 17.436 C 122.519 18.172,121.424 19.318,120.929 20.316 C 120.138 21.911,120.099 23.602,119.893 65.175 L 119.680 108.377 102.400 91.052 C 90.950 79.571,84.544 73.456,83.413 72.926 C 80.555 71.585,76.793 72.104,74.530 74.150 C 72.173 76.281,71.428 80.650,72.930 83.537 C 73.384 84.410,85.004 96.342,98.850 110.152 C 124.715 135.949,124.886 136.102,128.000 136.102 C 131.114 136.102,131.285 135.949,157.150 110.152 C 170.996 96.342,182.616 84.410,183.070 83.537 C 184.572 80.650,183.827 76.281,181.470 74.150 C 179.207 72.104,175.445 71.585,172.587 72.926 C 171.456 73.456,165.050 79.571,153.600 91.052 L 136.320 108.377 136.107 65.175 C 135.901 23.602,135.862 21.911,135.071 20.316 C 133.104 16.353,127.586 14.958,123.679 17.436 M28.587 120.477 C 21.969 121.975,17.320 126.988,16.198 133.836 C 15.966 135.256,15.794 150.027,15.797 168.320 C 15.802 203.030,15.864 204.090,18.128 207.952 C 19.638 210.530,22.610 213.178,25.525 214.545 L 27.947 215.680 128.000 215.680 L 228.053 215.680 230.475 214.545 C 233.390 213.178,236.362 210.530,237.872 207.952 C 240.136 204.090,240.198 203.030,240.203 168.320 C 240.206 150.027,240.034 135.256,239.802 133.836 C 238.628 126.670,233.589 121.545,226.512 120.321 C 224.698 120.007,216.794 119.892,202.880 119.978 L 181.973 120.107 180.118 121.169 C 174.774 124.228,174.859 132.175,180.267 135.001 C 181.921 135.866,182.619 135.897,202.987 136.012 L 224.000 136.130 224.000 168.118 L 224.000 200.107 128.000 200.107 L 32.000 200.107 32.000 168.118 L 32.000 136.130 53.013 136.012 C 73.381 135.897,74.079 135.866,75.733 135.001 C 76.770 134.460,77.920 133.337,78.663 132.141 C 81.055 128.289,79.876 123.545,75.951 121.238 L 74.027 120.107 52.480 120.027 C 36.582 119.967,30.318 120.086,28.587 120.477 M183.631 156.824 C 179.271 158.434,176.119 163.020,176.091 167.794 C 176.028 178.522,188.908 183.970,196.466 176.412 C 198.870 174.008,199.879 171.472,199.855 167.893 C 199.824 163.240,197.417 159.378,193.168 157.163 C 191.266 156.171,185.915 155.981,183.631 156.824 " stroke="none" fill-rule="evenodd"></path></svg>