<svg fill="currentColor" viewBox="0 0 256 256" xmlns="http://www.w3.org/2000/svg"><path d="M72.527 40.906 C 69.434 42.569,18.936 77.749,17.853 78.995 C 14.976 82.306,15.603 87.563,19.209 90.356 C 19.791 90.807,29.643 97.659,41.103 105.583 C 52.564 113.507,61.780 120.131,61.583 120.302 C 61.387 120.474,51.588 127.273,39.808 135.411 C 27.703 143.774,17.985 150.777,17.458 151.516 C 15.691 153.998,15.840 158.557,17.764 160.843 C 19.591 163.015,72.134 199.151,74.291 199.719 C 75.675 200.084,76.609 200.089,77.890 199.739 C 78.985 199.439,88.444 193.154,103.676 182.604 C 117.712 172.884,127.984 166.040,128.335 166.174 C 128.666 166.301,139.526 173.739,152.469 182.702 C 165.411 191.665,176.766 199.263,177.702 199.586 C 181.350 200.844,180.888 201.110,209.594 181.261 C 224.205 171.159,236.705 162.387,237.371 161.767 C 239.753 159.551,240.494 156.835,239.568 153.714 C 239.230 152.576,238.421 151.147,237.770 150.538 C 237.119 149.929,227.083 142.861,215.467 134.831 C 203.851 126.800,194.290 120.177,194.221 120.113 C 194.151 120.049,201.255 115.045,210.007 108.992 C 236.427 90.721,237.834 89.705,238.677 88.277 C 240.523 85.152,240.314 81.489,238.147 78.995 C 237.064 77.749,186.566 42.569,183.473 40.906 C 181.841 40.028,179.041 39.864,177.260 40.541 C 176.632 40.780,165.292 48.471,152.059 57.633 L 128.000 74.291 103.941 57.633 C 90.708 48.471,79.368 40.780,78.740 40.541 C 76.959 39.864,74.159 40.028,72.527 40.906 M95.180 71.005 L 113.957 83.984 111.272 85.884 C 103.159 91.626,76.252 110.080,75.993 110.080 C 75.424 110.080,38.613 84.422,38.613 84.025 C 38.613 83.544,75.084 58.121,75.854 58.066 C 76.156 58.044,84.852 63.867,95.180 71.005 M199.174 70.995 C 209.325 78.010,217.575 83.906,217.508 84.096 C 217.364 84.505,180.443 110.080,179.997 110.080 C 179.368 110.080,142.720 84.456,142.720 84.017 C 142.720 83.363,179.279 58.041,180.066 58.150 C 180.425 58.199,189.024 63.980,199.174 70.995 M147.361 107.120 C 157.606 114.215,165.937 120.063,165.874 120.114 C 165.811 120.166,157.262 126.079,146.876 133.253 L 127.992 146.298 109.756 133.676 C 99.726 126.733,91.184 120.822,90.773 120.540 C 90.125 120.094,92.493 118.320,108.907 106.960 C 119.291 99.774,127.999 93.968,128.260 94.057 C 128.520 94.147,137.115 100.025,147.361 107.120 M97.280 144.418 C 106.080 150.478,113.436 155.571,113.626 155.738 C 113.973 156.042,77.005 181.850,76.107 181.930 C 75.551 181.980,38.446 156.523,38.419 156.073 C 38.408 155.908,46.878 149.913,57.241 142.750 L 76.081 129.728 78.681 131.565 C 80.110 132.575,88.480 138.359,97.280 144.418 M199.893 143.490 C 209.749 150.292,217.857 155.890,217.911 155.929 C 217.965 155.968,209.454 161.918,198.998 169.152 L 179.988 182.305 178.207 181.057 C 177.228 180.371,168.690 174.457,159.234 167.915 L 142.041 156.020 144.087 154.597 C 179.725 129.809,179.780 129.773,180.907 130.466 C 181.493 130.827,190.037 136.688,199.893 143.490 M100.795 204.225 C 98.122 205.543,95.988 208.940,96.012 211.840 C 96.023 213.195,97.488 216.004,98.826 217.237 C 100.308 218.602,122.477 234.021,124.580 235.149 C 126.203 236.019,129.011 236.190,130.763 235.524 C 132.521 234.855,157.572 217.282,158.392 216.142 C 158.798 215.577,159.361 214.251,159.644 213.195 C 161.281 207.070,154.051 201.325,148.474 204.318 C 147.656 204.757,142.798 208.021,137.678 211.571 C 132.558 215.122,128.199 218.027,127.991 218.027 C 127.783 218.027,123.192 214.952,117.790 211.193 C 112.388 207.435,107.470 204.171,106.863 203.940 C 105.218 203.315,102.371 203.449,100.795 204.225 " stroke="none" fill-rule="evenodd"></path></svg>