<svg fill="currentColor" viewBox="0 0 256 256" xmlns="http://www.w3.org/2000/svg"><path d="M124.525 8.863 C 120.213 11.116,103.981 24.907,94.522 34.354 C 64.501 64.339,46.178 96.565,41.156 128.213 C 40.231 134.040,39.862 148.059,40.492 153.415 C 43.628 180.087,57.723 203.025,80.000 217.713 C 95.554 227.969,116.019 233.263,134.293 231.758 C 177.207 228.225,210.486 196.123,215.508 153.415 C 216.221 147.354,215.774 133.878,214.638 127.188 C 208.757 92.544,188.096 58.737,152.960 26.267 C 147.801 21.500,138.976 14.201,134.298 10.833 C 131.263 8.648,130.599 8.348,128.476 8.208 C 126.714 8.092,125.669 8.266,124.525 8.863 M131.566 28.878 C 158.123 50.675,180.335 78.347,190.755 102.613 C 196.990 117.135,199.813 130.152,199.774 144.213 C 199.730 160.370,195.059 174.352,185.403 187.225 C 174.830 201.320,159.722 210.839,141.833 214.676 C 137.764 215.549,136.010 215.676,128.000 215.676 C 119.979 215.676,118.239 215.550,114.146 214.672 C 107.313 213.207,102.514 211.516,95.787 208.203 C 75.622 198.273,61.094 178.778,57.142 156.344 C 56.088 150.361,55.895 139.594,56.727 133.120 C 59.826 108.996,71.244 85.642,92.203 60.563 C 97.606 54.098,108.484 42.906,115.413 36.685 C 120.273 32.322,127.610 26.090,127.940 26.047 C 128.024 26.036,129.656 27.310,131.566 28.878 M172.587 144.818 C 169.973 145.985,168.905 147.700,167.610 152.805 C 163.702 168.215,152.234 179.718,136.900 183.609 C 134.665 184.176,132.468 184.839,132.018 185.081 C 129.869 186.239,127.992 189.522,128.009 192.093 C 128.031 195.345,130.685 198.745,133.968 199.729 C 136.045 200.351,139.160 199.807,145.432 197.726 C 163.853 191.614,177.738 176.781,182.831 157.772 C 183.976 153.497,184.155 150.934,183.440 149.041 C 182.822 147.407,180.981 145.511,179.320 144.801 C 177.593 144.062,174.262 144.070,172.587 144.818 " stroke="none" fill-rule="evenodd"></path></svg>