<svg fill="currentColor" viewBox="0 0 256 256" xmlns="http://www.w3.org/2000/svg"><path d="M116.053 16.857 C 100.459 18.996,85.485 25.448,72.960 35.423 C 68.848 38.698,61.309 46.311,58.391 50.133 C 46.240 66.054,40.108 84.303,40.112 104.533 C 40.114 115.457,41.023 122.341,43.562 130.678 C 46.877 141.564,50.149 146.519,62.101 158.749 C 70.260 167.098,72.534 170.187,74.177 175.147 C 75.250 178.387,75.946 183.386,75.949 187.871 C 75.957 198.559,79.853 210.332,86.198 218.844 C 101.797 239.766,131.069 246.199,152.215 233.352 C 158.137 229.754,165.707 222.604,167.309 219.093 C 170.027 213.138,164.653 206.688,158.252 208.223 C 156.447 208.656,155.555 209.337,151.359 213.480 C 146.013 218.759,142.862 220.847,137.600 222.597 C 134.577 223.603,133.504 223.736,128.213 223.757 C 121.890 223.782,119.411 223.339,114.279 221.266 C 106.634 218.178,99.564 211.502,95.634 203.660 C 93.431 199.263,92.584 195.452,92.144 187.947 C 91.673 179.902,91.482 178.343,90.444 174.041 C 88.096 164.307,84.781 159.084,73.840 147.874 C 65.402 139.231,62.673 135.647,60.369 130.184 C 57.396 123.134,56.226 115.885,56.229 104.533 C 56.232 91.592,58.380 82.443,64.040 71.269 C 73.689 52.221,91.582 38.386,112.617 33.710 C 122.044 31.614,133.519 31.607,143.262 33.691 C 163.856 38.095,182.121 52.077,191.730 70.792 C 196.676 80.426,198.931 88.549,199.718 99.563 C 199.955 102.883,200.335 106.190,200.563 106.911 C 201.587 110.159,206.063 112.508,209.686 111.698 C 211.891 111.205,212.983 110.483,214.478 108.523 C 215.575 107.087,215.693 106.582,215.827 102.748 C 216.010 97.521,214.965 89.089,213.334 82.632 C 207.887 61.066,194.458 42.320,175.732 30.141 C 165.138 23.252,152.287 18.524,139.605 16.850 C 133.751 16.077,121.713 16.081,116.053 16.857 M122.849 56.331 C 113.478 57.381,105.193 60.860,97.520 66.966 C 87.982 74.555,81.558 86.659,80.220 99.563 C 79.609 105.451,80.160 107.541,82.973 110.010 C 83.810 110.746,85.020 111.462,85.661 111.603 C 86.302 111.743,87.043 111.923,87.307 112.002 C 88.308 112.302,91.559 111.269,92.949 110.209 C 94.893 108.726,95.847 106.305,96.148 102.089 C 97.120 88.467,105.941 77.379,119.040 73.313 C 121.723 72.480,123.171 72.320,128.000 72.320 C 132.829 72.320,134.277 72.480,136.960 73.313 C 154.527 78.765,164.406 97.788,157.991 113.811 C 156.715 116.999,153.676 121.758,148.306 128.978 C 139.524 140.786,136.107 149.266,136.107 159.252 C 136.107 166.588,138.257 171.966,143.146 176.854 C 152.627 186.335,167.346 186.335,176.867 176.854 C 181.606 172.135,182.802 168.394,180.855 164.373 C 179.516 161.607,177.177 160.211,173.898 160.222 C 170.676 160.232,169.090 161.109,166.790 164.154 C 164.681 166.945,163.032 167.845,159.997 167.864 C 157.091 167.883,155.176 166.853,153.393 164.316 C 152.197 162.615,152.111 162.241,152.172 158.989 C 152.250 154.798,153.682 150.081,156.142 145.920 C 157.043 144.395,160.095 139.979,162.925 136.107 C 172.035 123.640,174.759 117.648,175.776 107.840 C 177.884 87.510,164.940 66.853,145.341 59.269 C 138.794 56.736,129.763 55.556,122.849 56.331 " stroke="none" fill-rule="evenodd"></path></svg>