<svg fill="currentColor" viewBox="0 0 256 256" xmlns="http://www.w3.org/2000/svg"><path d="M36.053 40.505 C 32.312 41.430,27.686 45.015,25.988 48.307 C 23.801 52.546,23.893 48.708,23.896 135.663 C 23.897 190.778,24.041 217.047,24.346 218.145 C 25.340 221.724,29.293 224.355,32.957 223.875 C 34.109 223.724,40.117 220.975,49.387 216.358 L 64.000 209.080 78.750 216.433 C 92.803 223.439,93.617 223.787,96.000 223.787 C 98.383 223.787,99.197 223.439,113.250 216.433 L 128.000 209.080 142.750 216.433 C 156.803 223.439,157.617 223.787,160.000 223.787 C 162.383 223.787,163.197 223.439,177.250 216.433 L 192.000 209.080 206.613 216.358 C 215.883 220.975,221.891 223.724,223.043 223.875 C 226.739 224.360,230.690 221.701,231.667 218.073 C 231.977 216.922,232.083 190.944,232.005 134.548 L 231.893 52.693 230.867 50.144 C 229.561 46.901,226.312 43.426,222.933 41.659 L 220.373 40.320 128.853 40.255 C 78.517 40.219,36.757 40.331,36.053 40.505 M215.893 129.487 L 215.893 203.081 204.772 197.541 C 196.716 193.527,193.217 191.995,192.078 191.983 C 190.879 191.971,186.894 193.762,175.253 199.546 L 160.000 207.126 144.747 199.546 C 133.734 194.074,129.078 191.967,128.000 191.967 C 126.922 191.967,122.266 194.074,111.253 199.546 L 96.000 207.126 80.747 199.546 C 69.106 193.762,65.121 191.971,63.922 191.983 C 62.783 191.995,59.284 193.527,51.228 197.541 L 40.107 203.081 40.107 129.487 L 40.107 55.893 128.000 55.893 L 215.893 55.893 215.893 129.487 M93.732 88.305 C 90.320 89.392,90.514 89.056,72.864 124.301 C 57.055 155.870,56.160 157.779,56.141 160.002 C 56.126 161.749,56.378 162.767,57.126 163.977 C 59.596 167.973,64.671 169.158,68.347 166.598 C 69.930 165.495,70.663 164.380,73.600 158.609 L 77.013 151.902 96.011 151.898 L 115.009 151.893 118.198 158.336 C 120.235 162.451,121.886 165.219,122.768 165.998 C 127.853 170.488,135.916 166.795,135.860 160.002 C 135.841 157.776,134.960 155.902,119.013 124.160 C 103.378 93.038,102.066 90.584,100.480 89.495 C 98.608 88.209,95.664 87.690,93.732 88.305 M164.907 96.809 C 162.738 97.813,160.954 99.708,160.418 101.576 C 160.188 102.378,160.000 106.811,160.000 111.427 L 160.000 119.820 150.933 119.967 C 143.497 120.087,141.636 120.240,140.587 120.819 C 134.381 124.238,134.619 132.337,141.013 135.298 C 142.494 135.983,143.862 136.089,151.360 136.097 L 160.000 136.107 160.002 144.533 C 160.004 149.168,160.199 153.658,160.436 154.512 C 161.084 156.844,164.101 159.432,166.611 159.809 C 170.944 160.458,174.844 157.810,175.746 153.604 C 176.003 152.405,176.213 147.978,176.213 143.766 L 176.213 136.107 184.427 136.104 C 189.102 136.103,193.371 135.899,194.337 135.631 C 196.597 135.003,199.042 132.502,199.668 130.176 C 200.620 126.644,199.346 123.374,196.209 121.297 L 194.411 120.107 185.312 119.963 L 176.213 119.820 176.203 112.070 C 176.197 107.808,175.994 103.460,175.752 102.409 C 174.585 97.344,169.463 94.699,164.907 96.809 M101.656 125.227 L 107.091 136.107 96.000 136.107 L 84.909 136.107 90.344 125.227 C 93.333 119.243,95.878 114.347,96.000 114.347 C 96.122 114.347,98.667 119.243,101.656 125.227 " stroke="none" fill-rule="evenodd"></path></svg>