<svg fill="currentColor" viewBox="0 0 256 256" xmlns="http://www.w3.org/2000/svg"><path d="M36.907 32.809 C 34.738 33.813,32.954 35.708,32.418 37.576 C 32.154 38.498,32.000 61.508,32.000 100.171 C 32.000 154.387,32.075 161.486,32.660 162.888 C 33.541 164.996,34.841 166.347,36.907 167.300 C 38.503 168.037,40.210 168.089,63.253 168.097 L 87.893 168.107 87.893 192.654 C 87.893 213.845,87.984 217.417,88.554 218.781 C 89.435 220.890,90.735 222.240,92.800 223.194 C 94.434 223.948,97.117 223.982,155.733 223.988 C 194.519 223.993,217.513 223.842,218.468 223.576 C 220.357 223.052,223.025 220.366,223.579 218.432 C 223.847 217.499,224.000 194.713,224.000 155.829 C 224.000 89.442,224.126 93.081,221.740 90.525 C 219.405 88.025,220.449 88.117,193.173 87.984 L 168.107 87.861 168.097 63.237 C 168.089 40.210,168.037 38.503,167.300 36.907 C 166.347 34.841,164.996 33.541,162.888 32.660 C 161.486 32.075,154.381 32.001,99.960 32.009 C 41.158 32.018,38.543 32.052,36.907 32.809 M112.640 68.053 L 132.477 87.893 115.837 87.893 L 99.197 87.893 79.360 68.053 L 59.523 48.213 76.163 48.213 L 92.803 48.213 112.640 68.053 M151.893 66.347 C 151.893 76.320,151.844 84.480,151.785 84.480 C 151.725 84.480,143.518 76.320,133.547 66.347 L 115.417 48.213 133.655 48.213 L 151.893 48.213 151.893 66.347 M87.893 115.837 L 87.893 132.477 68.053 112.640 L 48.213 92.803 48.213 76.163 L 48.213 59.523 68.053 79.360 L 87.893 99.197 87.893 115.837 M151.893 128.000 L 151.893 151.893 128.000 151.893 L 104.107 151.893 104.107 128.000 L 104.107 104.107 128.000 104.107 L 151.893 104.107 151.893 128.000 M207.787 122.240 C 207.787 132.213,207.738 140.373,207.678 140.373 C 207.618 140.373,199.411 132.213,189.440 122.240 L 171.310 104.107 189.549 104.107 L 207.787 104.107 207.787 122.240 M66.560 133.760 L 84.690 151.893 66.451 151.893 L 48.213 151.893 48.213 133.760 C 48.213 123.787,48.262 115.627,48.322 115.627 C 48.382 115.627,56.589 123.787,66.560 133.760 M207.787 179.837 L 207.787 196.477 187.947 176.640 L 168.107 156.803 168.107 140.163 L 168.107 123.523 187.947 143.360 L 207.787 163.197 207.787 179.837 M176.535 187.842 C 187.387 198.696,196.267 207.720,196.267 207.895 C 196.267 208.070,188.922 208.213,179.945 208.213 L 163.623 208.213 143.573 188.160 L 123.523 168.107 140.163 168.107 L 156.803 168.107 176.535 187.842 M140.373 207.891 C 140.373 208.068,132.213 208.213,122.240 208.213 L 104.107 208.213 104.107 189.762 L 104.107 171.310 122.240 189.440 C 132.213 199.411,140.373 207.714,140.373 207.891 " stroke="none" fill-rule="evenodd"></path></svg>