<svg fill="currentColor" viewBox="0 0 256 256" xmlns="http://www.w3.org/2000/svg"><path d="M120.960 24.326 C 100.935 25.586,81.587 32.844,64.891 45.360 C 59.554 49.360,49.234 59.686,45.276 64.986 C 34.512 79.399,27.973 94.882,25.095 112.768 C 23.886 120.283,23.787 134.307,24.890 141.867 C 27.542 160.046,34.293 176.318,45.279 191.014 C 49.299 196.392,59.608 206.701,64.986 210.721 C 79.686 221.710,96.000 228.476,114.133 231.105 C 117.683 231.620,121.936 231.847,128.000 231.847 C 144.598 231.847,158.874 228.583,173.440 221.458 C 184.661 215.968,192.320 210.472,201.396 201.396 C 210.475 192.317,215.974 184.654,221.456 173.440 C 235.707 144.287,235.458 110.173,220.780 81.026 C 214.698 68.950,203.517 55.194,193.067 46.931 C 172.349 30.550,147.221 22.673,120.960 24.326 M142.080 41.154 C 169.674 45.831,192.852 62.549,205.863 87.157 C 210.283 95.518,213.253 104.424,214.916 114.309 C 215.962 120.524,215.953 135.757,214.899 141.867 C 213.222 151.599,210.181 160.674,205.863 168.843 C 192.887 193.385,169.781 210.109,142.344 214.817 C 140.260 215.174,138.004 215.467,137.331 215.467 L 136.107 215.467 136.107 183.680 L 136.107 151.893 148.879 151.893 C 156.866 151.893,162.101 151.723,162.852 151.440 C 165.504 150.438,168.088 146.766,168.088 144.000 C 168.088 141.234,165.504 137.562,162.852 136.560 C 162.101 136.277,156.859 136.107,148.858 136.107 L 136.064 136.107 136.192 121.920 L 136.320 107.733 137.566 105.197 C 139.211 101.846,141.901 99.229,145.408 97.568 L 148.267 96.213 159.360 96.000 C 171.622 95.764,172.144 95.655,174.247 92.899 C 177.429 88.727,175.749 82.477,170.959 80.667 C 169.070 79.953,148.502 80.088,144.967 80.837 C 141.263 81.622,135.764 84.228,132.346 86.819 C 127.946 90.153,123.788 95.829,122.001 100.941 C 120.167 106.184,119.893 109.042,119.893 122.918 L 119.893 136.107 107.121 136.107 C 99.134 136.107,93.899 136.277,93.148 136.560 C 90.496 137.562,87.912 141.234,87.912 144.000 C 87.912 146.766,90.496 150.438,93.148 151.440 C 93.899 151.723,99.134 151.893,107.121 151.893 L 119.893 151.893 119.893 183.680 L 119.893 215.467 118.669 215.467 C 117.996 215.467,115.740 215.174,113.656 214.817 C 92.780 211.235,73.979 200.510,60.728 184.625 C 50.416 172.262,43.890 158.044,41.101 141.867 C 40.047 135.757,40.038 120.524,41.084 114.309 C 45.785 86.375,62.402 63.225,87.143 50.145 C 97.153 44.853,106.897 41.944,119.893 40.368 C 123.227 39.964,138.186 40.494,142.080 41.154 " stroke="none" fill-rule="evenodd"></path></svg>