<svg fill="currentColor" viewBox="0 0 256 256" xmlns="http://www.w3.org/2000/svg"><path d="M52.926 24.355 C 48.250 25.282,43.642 28.869,41.482 33.264 L 40.320 35.627 40.205 74.773 C 40.093 112.614,40.117 113.973,40.906 115.520 C 41.912 117.492,42.878 118.388,44.909 119.237 C 46.907 120.072,49.093 120.072,51.091 119.237 C 53.207 118.353,54.159 117.443,55.091 115.413 C 55.832 113.800,55.875 111.702,55.884 76.907 L 55.893 40.107 99.840 40.107 L 143.787 40.107 143.797 63.893 C 143.804 78.689,143.974 88.403,144.248 89.591 C 144.827 92.104,146.472 94.198,148.644 95.184 C 150.294 95.933,151.902 95.982,175.253 95.991 L 200.107 96.000 200.107 104.977 C 200.107 112.944,200.198 114.132,200.915 115.537 C 201.913 117.492,202.882 118.390,204.909 119.237 C 206.907 120.072,209.093 120.072,211.091 119.237 C 213.207 118.353,214.159 117.443,215.091 115.413 C 215.799 113.871,215.875 112.384,215.884 99.974 C 215.890 91.399,215.725 85.791,215.445 85.041 C 214.929 83.660,157.463 25.915,155.520 24.825 C 154.343 24.164,150.252 24.102,104.533 24.042 C 77.187 24.007,53.972 24.148,52.926 24.355 M188.160 79.891 C 188.160 80.068,181.824 80.213,174.080 80.213 L 160.000 80.213 160.000 65.816 L 160.000 51.418 174.080 65.493 C 181.824 73.235,188.160 79.714,188.160 79.891 M100.338 144.702 C 97.890 145.914,96.329 148.304,96.112 151.172 C 95.959 153.188,96.882 156.007,106.388 182.568 C 112.132 198.618,117.203 212.250,117.656 212.861 C 118.985 214.654,121.534 215.878,123.953 215.886 C 126.512 215.895,128.594 214.884,130.185 212.862 C 130.953 211.885,134.691 201.960,141.654 182.409 C 151.187 155.639,151.968 153.232,151.796 151.152 C 151.245 144.512,142.815 141.775,138.094 146.703 C 137.273 147.560,135.261 152.659,130.591 165.717 C 127.081 175.531,124.133 183.636,124.041 183.728 C 123.949 183.820,121.025 175.907,117.544 166.143 C 114.063 156.379,110.815 147.801,110.327 147.080 C 109.152 145.345,106.126 143.787,103.933 143.787 C 102.972 143.787,101.355 144.199,100.338 144.702 M55.572 144.687 C 44.937 146.459,37.513 153.714,36.279 163.541 C 35.085 173.051,40.289 180.078,51.627 184.267 C 52.917 184.744,56.831 186.016,60.323 187.095 C 70.248 190.161,72.517 191.642,71.889 194.649 C 71.433 196.837,70.496 197.976,68.337 198.969 C 66.611 199.763,65.610 199.881,60.800 199.855 C 57.156 199.836,54.256 199.581,52.347 199.113 C 48.565 198.185,46.838 198.213,44.837 199.235 C 39.502 201.956,38.710 208.387,43.223 212.349 C 45.869 214.673,54.191 216.125,62.863 215.776 C 71.844 215.416,77.060 213.491,81.764 208.803 C 86.216 204.366,88.150 199.033,87.819 192.110 C 87.574 186.981,86.058 183.788,82.117 180.102 C 78.476 176.696,73.563 174.337,64.213 171.507 C 60.224 170.299,55.904 168.789,54.613 168.151 C 52.330 167.022,52.269 166.947,52.369 165.341 C 52.497 163.292,53.674 161.976,56.278 160.971 C 58.976 159.929,66.632 159.949,72.272 161.012 C 77.075 161.917,78.757 161.665,81.108 159.686 C 83.858 157.372,84.716 153.608,83.237 150.350 C 81.774 147.130,78.837 145.709,71.467 144.657 C 67.895 144.147,58.708 144.164,55.572 144.687 M185.138 144.863 C 179.550 146.220,174.604 149.242,170.027 154.095 C 163.063 161.481,159.594 171.261,160.139 181.973 C 161.439 207.496,184.944 223.228,205.668 212.447 C 209.928 210.230,214.835 205.806,215.488 203.593 C 215.783 202.595,215.901 198.213,215.815 191.505 L 215.680 180.984 214.370 179.345 C 212.149 176.569,210.981 176.215,204.036 176.214 C 198.809 176.213,197.704 176.333,196.290 177.055 C 193.172 178.645,191.649 181.771,192.200 185.447 C 192.619 188.240,195.585 191.319,198.293 191.772 L 200.107 192.075 200.107 194.773 L 200.107 197.471 198.293 198.346 C 192.166 201.306,186.448 200.182,181.675 195.079 C 177.993 191.144,176.213 186.246,176.213 180.053 C 176.213 171.600,180.084 164.494,186.368 161.407 C 188.375 160.422,189.359 160.213,192.000 160.213 C 194.879 160.213,195.542 160.384,198.613 161.919 C 201.174 163.199,202.516 163.617,203.986 163.596 C 210.713 163.497,214.211 155.741,209.892 150.501 C 208.384 148.671,202.695 145.778,198.827 144.874 C 195.428 144.080,188.386 144.074,185.138 144.863 " stroke="none" fill-rule="evenodd"></path></svg>