<svg fill="currentColor" viewBox="0 0 256 256" xmlns="http://www.w3.org/2000/svg"><path d="M52.926 24.355 C 48.250 25.282,43.642 28.869,41.482 33.264 L 40.320 35.627 40.205 74.773 C 40.093 112.614,40.117 113.973,40.906 115.520 C 41.912 117.492,42.878 118.388,44.909 119.237 C 46.907 120.072,49.093 120.072,51.091 119.237 C 53.207 118.353,54.159 117.443,55.091 115.413 C 55.832 113.800,55.875 111.702,55.884 76.907 L 55.893 40.107 99.840 40.107 L 143.787 40.107 143.797 63.893 C 143.804 78.689,143.974 88.403,144.248 89.591 C 144.827 92.104,146.472 94.198,148.644 95.184 C 150.294 95.933,151.902 95.982,175.253 95.991 L 200.107 96.000 200.107 155.910 L 200.107 215.820 191.040 215.963 C 182.291 216.102,181.908 216.144,180.118 217.169 C 174.774 220.228,174.859 228.175,180.267 231.001 C 181.865 231.837,182.648 231.893,192.640 231.893 C 203.187 231.893,203.336 231.881,205.957 230.776 C 210.321 228.937,213.551 225.566,215.057 221.279 C 215.874 218.957,215.893 217.345,215.893 152.572 C 215.893 107.470,215.751 85.858,215.447 85.041 C 214.935 83.662,157.471 25.922,155.520 24.826 C 154.342 24.164,150.285 24.102,104.533 24.042 C 77.187 24.007,53.972 24.148,52.926 24.355 M188.160 79.891 C 188.160 80.068,181.824 80.213,174.080 80.213 L 160.000 80.213 160.000 65.816 L 160.000 51.418 174.080 65.493 C 181.824 73.235,188.160 79.714,188.160 79.891 M44.587 144.818 C 42.997 145.528,41.160 147.454,40.560 149.041 C 40.256 149.848,40.107 160.041,40.107 180.098 C 40.107 208.553,40.145 210.028,40.915 211.537 C 41.913 213.492,42.882 214.390,44.909 215.237 C 46.907 216.072,49.093 216.072,51.091 215.237 C 54.860 213.662,55.871 211.484,55.884 204.907 L 55.893 200.107 60.311 200.107 C 62.740 200.107,65.874 199.987,67.274 199.841 L 69.819 199.575 73.630 206.097 C 78.106 213.759,79.438 215.083,82.956 215.375 C 86.021 215.629,88.770 214.351,90.375 211.926 C 91.302 210.526,91.520 209.701,91.520 207.604 C 91.520 205.122,91.363 204.743,87.787 198.575 C 85.733 195.034,84.053 192.007,84.053 191.849 C 84.053 191.691,84.902 190.519,85.940 189.245 C 92.482 181.213,93.782 169.221,89.127 159.839 C 86.214 153.968,82.025 149.817,76.160 146.990 C 74.048 145.972,71.303 144.930,70.059 144.676 C 66.652 143.979,46.211 144.093,44.587 144.818 M122.880 144.851 C 114.982 146.437,109.097 150.615,106.235 156.668 C 104.561 160.207,103.971 163.328,104.198 167.449 C 104.453 172.093,105.806 174.884,109.459 178.301 C 112.939 181.557,117.166 183.626,125.653 186.230 C 134.334 188.894,137.526 190.143,138.895 191.411 C 139.908 192.350,140.025 192.720,139.836 194.392 C 139.718 195.442,139.262 196.705,138.824 197.199 C 136.471 199.850,130.363 200.700,122.880 199.418 C 120.416 198.997,117.233 198.643,115.806 198.632 C 113.592 198.616,112.978 198.792,111.610 199.836 C 107.447 203.012,106.937 207.855,110.364 211.648 C 112.127 213.600,114.121 214.318,120.533 215.310 C 126.581 216.245,135.669 215.917,139.733 214.618 C 143.934 213.275,146.246 212.018,148.891 209.640 C 152.965 205.977,155.342 201.180,155.947 195.403 C 156.805 187.213,152.692 180.379,144.334 176.104 C 140.754 174.273,137.097 172.953,128.643 170.438 C 124.562 169.223,121.236 167.717,120.393 166.701 C 119.575 165.716,120.680 162.993,122.355 161.866 C 125.357 159.846,132.689 159.554,140.712 161.134 C 144.913 161.961,146.750 161.597,149.191 159.454 C 152.855 156.237,152.855 150.963,149.189 147.745 C 147.486 146.249,145.826 145.696,140.373 144.808 C 135.903 144.079,126.607 144.102,122.880 144.851 M69.392 161.383 C 76.393 165.033,78.073 173.930,72.876 179.834 C 69.980 183.125,68.562 183.633,61.760 183.817 L 55.893 183.975 55.893 171.946 L 55.893 159.916 61.547 160.078 C 66.675 160.225,67.404 160.346,69.392 161.383 " stroke="none" fill-rule="evenodd"></path></svg>