<svg fill="currentColor" viewBox="0 0 256 256" xmlns="http://www.w3.org/2000/svg"><path d="M117.973 24.600 C 105.649 26.065,96.287 28.498,86.613 32.747 C 54.986 46.642,32.898 74.042,26.025 107.907 C 21.515 130.134,24.552 153.075,34.759 173.867 C 40.242 185.037,46.724 193.938,55.734 202.670 C 73.144 219.544,94.953 229.438,119.680 231.680 C 126.452 232.294,224.110 232.249,226.337 231.631 C 228.597 231.003,231.042 228.502,231.668 226.176 C 232.620 222.644,231.346 219.374,228.208 217.297 L 226.410 216.107 205.107 215.893 L 183.804 215.680 187.369 213.258 C 202.368 203.068,215.171 187.608,222.811 170.464 C 232.258 149.260,234.407 125.354,228.871 103.040 C 225.466 89.314,217.604 73.559,208.608 62.432 C 191.990 41.877,165.834 27.637,139.430 24.770 C 135.630 24.357,120.990 24.241,117.973 24.600 M142.080 41.152 C 159.933 44.170,175.895 52.156,188.870 64.559 C 202.598 77.683,211.542 94.716,214.902 114.133 C 215.940 120.133,215.940 135.867,214.902 141.867 C 211.514 161.448,202.368 178.719,188.404 191.906 C 171.901 207.491,150.875 215.856,128.129 215.885 C 97.098 215.925,68.569 199.791,52.583 173.163 C 46.883 163.668,43.075 153.289,41.098 141.867 C 40.060 135.867,40.060 120.133,41.098 114.133 C 46.547 82.647,66.943 57.480,96.401 45.891 C 101.417 43.918,110.346 41.621,115.413 41.001 C 117.525 40.743,119.733 40.449,120.320 40.349 C 122.762 39.932,138.241 40.503,142.080 41.152 M124.373 56.330 C 117.376 57.268,110.264 62.302,106.918 68.683 C 99.923 82.029,106.492 98.181,120.820 102.868 C 127.247 104.969,135.087 103.945,140.726 100.266 C 153.612 91.862,155.752 74.085,145.165 63.411 C 139.554 57.754,132.265 55.272,124.373 56.330 M130.852 72.560 C 133.758 73.658,135.802 76.730,135.802 80.000 C 135.802 82.419,135.050 84.151,133.265 85.840 C 128.313 90.525,120.198 86.898,120.198 80.000 C 120.198 76.802,122.214 73.698,125.013 72.585 C 126.447 72.015,129.376 72.003,130.852 72.560 M74.084 104.757 C 67.512 106.417,61.405 111.444,58.412 117.658 C 50.794 133.475,62.407 151.893,80.000 151.893 C 88.235 151.893,95.646 147.810,100.266 140.726 C 105.148 133.242,105.150 122.776,100.271 115.274 C 97.324 110.742,92.033 106.611,87.262 105.118 C 84.217 104.165,77.192 103.972,74.084 104.757 M170.084 104.757 C 163.512 106.417,157.405 111.444,154.412 117.658 C 146.794 133.475,158.407 151.893,176.000 151.893 C 184.235 151.893,191.646 147.810,196.266 140.726 C 201.148 133.242,201.150 122.776,196.271 115.274 C 193.324 110.742,188.033 106.611,183.262 105.118 C 180.217 104.165,173.192 103.972,170.084 104.757 M83.627 120.979 C 85.087 121.725,86.892 123.699,87.440 125.148 C 88.472 127.881,87.829 131.150,85.840 133.280 C 84.437 134.782,81.721 136.088,80.000 136.088 C 77.234 136.088,73.562 133.504,72.560 130.852 C 71.937 129.202,71.992 126.541,72.683 124.886 C 73.395 123.183,75.991 120.847,77.554 120.502 C 78.196 120.361,78.912 120.182,79.147 120.104 C 79.838 119.875,82.474 120.390,83.627 120.979 M179.627 120.979 C 181.087 121.725,182.892 123.699,183.440 125.148 C 184.472 127.881,183.829 131.150,181.840 133.280 C 180.437 134.782,177.721 136.088,176.000 136.088 C 173.234 136.088,169.562 133.504,168.560 130.852 C 167.937 129.202,167.992 126.541,168.683 124.886 C 169.395 123.183,171.991 120.847,173.554 120.502 C 174.196 120.361,174.912 120.182,175.147 120.104 C 175.838 119.875,178.474 120.390,179.627 120.979 M124.373 152.330 C 117.376 153.268,110.264 158.302,106.918 164.683 C 101.026 175.925,104.558 189.277,115.274 196.266 C 122.761 201.150,133.239 201.150,140.726 196.266 C 153.612 187.862,155.752 170.085,145.165 159.411 C 139.554 153.754,132.265 151.272,124.373 152.330 M130.852 168.560 C 133.758 169.658,135.802 172.730,135.802 176.000 C 135.802 178.419,135.050 180.151,133.265 181.840 C 128.313 186.525,120.198 182.898,120.198 176.000 C 120.198 172.802,122.214 169.698,125.013 168.585 C 126.447 168.015,129.376 168.003,130.852 168.560 " stroke="none" fill-rule="evenodd"></path></svg>