<svg fill="currentColor" viewBox="0 0 256 256" xmlns="http://www.w3.org/2000/svg"><path d="M101.091 24.313 C 97.021 25.024,92.836 27.860,90.512 31.483 C 87.943 35.486,87.893 36.084,87.893 63.215 L 87.893 87.850 62.187 87.978 L 36.480 88.107 33.686 89.430 C 28.776 91.757,25.816 95.196,24.555 100.041 C 23.577 103.795,23.567 152.147,24.544 155.964 C 25.753 160.691,29.916 165.334,34.560 167.136 C 36.296 167.809,38.938 167.893,62.187 168.009 L 87.893 168.138 87.893 192.779 C 87.893 220.339,87.920 220.638,90.784 224.838 C 92.682 227.621,95.843 230.117,98.773 231.145 C 100.721 231.828,103.270 231.893,128.000 231.893 C 152.730 231.893,155.279 231.828,157.227 231.145 C 160.157 230.117,163.318 227.621,165.216 224.838 C 168.080 220.638,168.107 220.339,168.107 192.779 L 168.107 168.138 193.813 168.009 C 217.062 167.893,219.704 167.809,221.440 167.136 C 226.084 165.334,230.247 160.691,231.456 155.964 C 232.433 152.147,232.423 103.795,231.445 100.041 C 230.184 95.196,227.224 91.757,222.314 89.430 L 219.520 88.107 193.813 87.978 L 168.107 87.850 168.107 63.215 C 168.107 36.084,168.057 35.486,165.488 31.483 C 163.751 28.776,161.673 27.022,158.314 25.430 L 155.520 24.107 129.280 24.040 C 114.848 24.003,102.163 24.126,101.091 24.313 M151.896 68.373 C 151.897 87.681,152.047 97.178,152.369 98.337 C 152.973 100.512,155.488 103.027,157.663 103.631 C 158.822 103.953,168.319 104.103,187.627 104.104 L 215.893 104.107 215.893 127.986 L 215.893 151.865 186.703 151.986 L 157.513 152.107 155.684 153.393 C 154.677 154.100,153.461 155.348,152.980 156.166 C 152.126 157.620,152.104 158.305,151.989 186.773 L 151.871 215.893 128.000 215.893 L 104.129 215.893 104.011 186.773 C 103.896 158.305,103.874 157.620,103.020 156.166 C 102.539 155.348,101.323 154.100,100.316 153.393 L 98.487 152.107 69.297 151.986 L 40.107 151.865 40.107 127.986 L 40.107 104.107 68.373 104.104 C 87.681 104.103,97.178 103.953,98.337 103.631 C 100.512 103.027,103.027 100.512,103.631 98.337 C 103.953 97.178,104.103 87.681,104.104 68.373 L 104.107 40.107 128.000 40.107 L 151.893 40.107 151.896 68.373 " stroke="none" fill-rule="evenodd"></path></svg>