<svg fill="currentColor" viewBox="0 0 256 256" xmlns="http://www.w3.org/2000/svg"><path d="M72.960 24.349 C 60.549 25.503,48.913 30.610,37.030 40.121 C 31.362 44.657,32.000 33.051,32.002 131.655 C 32.004 187.789,32.152 217.491,32.436 218.512 C 33.084 220.844,36.101 223.432,38.611 223.809 C 42.944 224.458,46.844 221.810,47.746 217.604 C 48.050 216.185,48.213 207.773,48.213 193.483 L 48.213 171.542 51.307 169.360 C 55.767 166.213,63.100 162.744,68.053 161.438 C 73.878 159.902,82.914 159.808,89.493 161.214 C 98.398 163.118,104.040 165.357,122.667 174.377 C 147.219 186.266,156.079 189.548,168.617 191.394 C 174.408 192.247,183.581 192.045,188.800 190.949 C 196.941 189.240,204.785 185.877,212.129 180.949 C 218.587 176.613,222.468 173.197,223.303 171.112 C 223.937 169.528,224.000 163.789,224.000 107.859 L 224.000 46.349 223.095 44.480 C 221.467 41.116,217.199 39.328,213.619 40.509 C 212.782 40.786,210.888 41.983,209.409 43.170 C 202.580 48.652,195.667 52.427,188.800 54.426 C 185.860 55.281,183.624 55.599,179.263 55.781 C 166.482 56.313,158.182 53.773,133.333 41.728 C 111.732 31.256,103.908 28.117,93.760 25.851 C 89.667 24.936,79.465 23.762,77.271 23.953 C 76.895 23.986,74.955 24.164,72.960 24.349 M90.880 41.553 C 99.501 43.556,105.513 46.004,125.013 55.455 C 139.807 62.624,143.656 64.342,150.400 66.786 C 159.168 69.964,169.970 72.108,177.195 72.105 C 186.108 72.102,195.848 69.761,204.044 65.653 C 205.857 64.744,207.441 64.000,207.564 64.000 C 207.686 64.000,207.787 86.633,207.787 114.295 L 207.787 164.590 203.940 167.189 C 189.686 176.820,175.795 178.369,157.704 172.346 C 151.007 170.117,146.284 168.033,129.707 159.995 C 104.511 147.777,95.165 144.786,80.781 144.337 C 75.048 144.157,72.498 144.265,69.048 144.832 C 63.577 145.731,57.186 147.822,52.098 150.377 L 48.213 152.329 48.213 101.991 L 48.213 51.654 50.453 49.992 C 57.317 44.897,65.220 41.609,73.600 40.364 C 76.879 39.876,86.517 40.540,90.880 41.553 " stroke="none" fill-rule="evenodd"></path></svg>