<svg fill="currentColor" viewBox="0 0 256 256" xmlns="http://www.w3.org/2000/svg"><path d="M72.960 24.349 C 60.549 25.503,48.913 30.610,37.030 40.121 C 31.362 44.657,32.000 33.051,32.002 131.655 C 32.004 187.789,32.152 217.491,32.436 218.512 C 33.084 220.844,36.101 223.432,38.611 223.809 C 42.944 224.458,46.844 221.810,47.746 217.604 C 48.050 216.185,48.213 207.773,48.213 193.483 L 48.213 171.542 51.307 169.360 C 55.767 166.213,63.100 162.744,68.053 161.438 C 73.878 159.902,82.914 159.808,89.493 161.214 C 98.398 163.118,104.040 165.357,122.667 174.377 C 142.583 184.021,150.186 187.152,159.657 189.610 C 176.298 193.929,191.949 192.254,206.080 184.643 C 213.773 180.500,222.194 173.884,223.303 171.112 C 223.937 169.528,224.000 163.789,224.000 107.859 L 224.000 46.349 223.095 44.480 C 221.467 41.116,217.199 39.328,213.619 40.509 C 212.782 40.786,210.888 41.983,209.409 43.170 C 193.875 55.640,179.318 58.755,161.079 53.513 C 154.680 51.673,148.103 48.878,133.333 41.721 C 111.747 31.262,103.906 28.117,93.760 25.851 C 89.667 24.936,79.465 23.762,77.271 23.953 C 76.895 23.986,74.955 24.164,72.960 24.349 M86.933 40.772 L 87.893 41.060 87.893 64.922 L 87.893 88.785 86.293 88.462 C 85.413 88.284,81.909 88.149,78.507 88.163 C 68.645 88.202,59.905 90.267,51.733 94.487 L 48.213 96.305 48.213 73.965 L 48.213 51.625 50.799 49.722 C 57.445 44.829,65.379 41.574,73.600 40.366 C 75.376 40.105,85.761 40.421,86.933 40.772 M125.013 55.465 C 136.357 60.983,143.707 64.283,149.973 66.668 L 151.680 67.318 151.790 90.804 L 151.901 114.290 149.230 113.213 C 147.762 112.621,140.416 109.157,132.907 105.517 C 119.189 98.867,109.291 94.430,105.920 93.421 L 104.107 92.878 104.107 69.298 L 104.107 45.717 108.053 47.426 C 110.224 48.366,117.856 51.983,125.013 55.465 M207.787 86.156 L 207.787 108.311 206.315 109.524 C 202.173 112.939,194.011 117.005,187.908 118.694 C 185.053 119.485,183.383 119.633,177.067 119.654 C 172.960 119.668,169.264 119.542,168.853 119.373 C 168.155 119.087,168.107 117.531,168.107 95.237 L 168.107 71.408 171.200 71.797 C 180.972 73.028,194.482 70.509,203.947 65.691 C 205.707 64.795,207.291 64.048,207.467 64.031 C 207.643 64.014,207.787 73.970,207.787 86.156 M87.147 104.754 C 87.843 105.031,87.893 106.387,87.893 124.739 L 87.893 144.427 79.040 144.439 C 71.567 144.449,69.555 144.594,66.133 145.365 C 61.144 146.491,55.763 148.416,51.468 150.612 L 48.213 152.277 48.213 133.950 L 48.213 115.622 51.093 113.502 C 54.388 111.077,61.256 107.541,65.169 106.255 C 70.151 104.618,74.073 104.113,80.427 104.290 C 83.712 104.381,86.736 104.590,87.147 104.754 M123.733 118.826 C 137.309 125.416,143.894 128.389,148.841 130.161 C 150.330 130.695,151.628 131.338,151.726 131.592 C 151.823 131.846,151.852 140.639,151.791 151.132 L 151.680 170.210 147.413 168.369 C 145.067 167.357,137.003 163.543,129.493 159.893 C 121.984 156.244,113.203 152.231,109.981 150.976 L 104.122 148.693 104.114 129.192 L 104.107 109.691 107.200 110.996 C 108.901 111.714,116.341 115.238,123.733 118.826 M207.787 146.295 L 207.787 164.590 203.940 167.189 C 197.714 171.396,191.807 173.920,185.173 175.210 C 181.691 175.888,174.460 176.067,170.560 175.573 L 168.107 175.262 168.107 155.249 L 168.107 135.237 169.280 135.564 C 169.925 135.744,173.621 135.877,177.493 135.860 C 183.025 135.835,185.465 135.629,188.880 134.898 C 194.188 133.762,199.685 131.858,203.947 129.679 C 205.707 128.779,207.291 128.033,207.467 128.021 C 207.643 128.010,207.787 136.233,207.787 146.295 " stroke="none" fill-rule="evenodd"></path></svg>