<svg fill="currentColor" viewBox="0 0 256 256" xmlns="http://www.w3.org/2000/svg"><path d="M86.339 24.295 C 80.917 25.609,78.440 31.476,81.337 36.141 C 83.218 39.169,84.939 39.864,90.987 40.036 L 96.000 40.178 96.000 68.552 L 96.000 96.926 65.037 148.530 C 48.007 176.911,33.661 201.039,33.156 202.146 C 31.738 205.258,31.836 211.002,33.364 214.280 C 34.948 217.681,37.945 220.736,41.333 222.404 L 44.142 223.787 127.991 223.787 L 211.840 223.787 214.445 222.583 C 221.501 219.322,225.489 210.995,223.414 203.857 C 222.931 202.193,213.166 185.542,191.359 149.193 L 160.000 96.921 160.000 68.550 L 160.000 40.178 165.013 40.036 C 171.061 39.864,172.782 39.169,174.663 36.141 C 177.055 32.289,175.876 27.545,171.951 25.238 L 170.027 24.107 128.853 24.038 C 106.208 24.001,87.077 24.116,86.339 24.295 M143.787 69.692 C 143.787 93.405,143.902 99.651,144.366 101.159 C 144.685 102.193,153.517 117.311,163.993 134.753 C 174.469 152.195,183.040 166.629,183.040 166.829 C 183.040 167.481,178.267 167.894,171.307 167.845 C 165.703 167.805,163.498 167.593,158.998 166.661 C 150.150 164.827,140.962 161.588,132.313 157.254 C 117.962 150.062,104.535 145.852,91.884 144.579 C 89.103 144.299,86.760 144.020,86.679 143.959 C 86.598 143.897,92.097 134.569,98.900 123.230 C 105.703 111.891,111.480 101.845,111.738 100.907 C 112.060 99.740,112.209 89.848,112.211 69.653 L 112.213 40.107 128.000 40.107 L 143.787 40.107 143.787 69.692 M94.933 161.022 C 105.946 163.045,110.147 164.558,128.805 173.222 C 141.046 178.907,151.538 182.044,163.125 183.485 C 171.079 184.475,184.897 183.530,191.053 181.576 C 191.781 181.345,192.961 183.081,199.840 194.494 C 204.211 201.746,207.787 207.799,207.787 207.946 C 207.787 208.093,171.883 208.213,128.000 208.213 C 84.117 208.213,48.213 208.101,48.213 207.964 C 48.213 207.827,54.592 197.084,62.387 184.091 C 76.439 160.671,76.574 160.465,78.067 160.275 C 80.857 159.919,91.492 160.390,94.933 161.022 " stroke="none" fill-rule="evenodd"></path></svg>