<svg fill="currentColor" viewBox="0 0 256 256" xmlns="http://www.w3.org/2000/svg"><path d="M87.054 32.679 C 85.771 33.026,83.851 33.871,82.787 34.557 C 81.724 35.243,70.447 46.228,57.728 58.969 C 37.333 79.398,34.461 82.436,33.408 84.693 L 32.213 87.253 32.213 149.547 L 32.213 211.840 33.407 214.400 C 34.974 217.760,38.261 221.060,41.555 222.583 L 44.160 223.787 128.000 223.787 L 211.840 223.787 214.445 222.583 C 217.739 221.060,221.026 217.760,222.593 214.400 L 223.787 211.840 223.787 128.000 L 223.787 44.160 222.583 41.555 C 221.060 38.261,217.760 34.974,214.400 33.407 L 211.840 32.213 150.613 32.131 C 97.756 32.060,89.068 32.135,87.054 32.679 M168.005 64.107 L 167.893 80.000 126.507 80.213 C 95.206 80.375,84.900 80.553,84.219 80.944 C 82.803 81.755,80.678 84.379,80.397 85.661 C 80.257 86.302,80.077 87.043,79.998 87.307 C 79.698 88.307,80.731 91.559,81.788 92.945 C 82.393 93.737,83.678 94.745,84.644 95.184 C 86.320 95.945,88.299 95.982,128.275 95.991 C 169.010 96.000,170.224 95.977,172.862 95.145 C 176.328 94.051,179.216 91.912,181.143 89.009 C 183.844 84.942,183.893 84.517,183.893 65.426 L 183.893 48.213 195.840 48.213 L 207.787 48.213 207.787 128.213 L 207.787 208.213 128.000 208.213 L 48.213 208.213 48.213 149.655 L 48.213 91.096 69.652 69.655 L 91.090 48.213 129.604 48.213 L 168.117 48.213 168.005 64.107 M119.942 112.872 C 116.162 113.692,113.293 114.673,110.293 116.169 C 98.617 121.996,90.837 132.566,88.543 145.721 C 86.296 158.603,90.803 171.682,100.750 181.144 C 105.625 185.782,111.316 188.929,118.187 190.787 C 123.402 192.197,132.598 192.197,137.813 190.787 C 145.354 188.748,151.596 185.062,156.802 179.573 C 161.889 174.209,164.908 168.783,166.883 161.454 C 168.200 156.569,168.206 148.030,166.897 142.720 C 163.179 127.639,151.136 116.006,136.018 112.891 C 131.980 112.059,123.735 112.049,119.942 112.872 M132.508 128.456 C 136.582 129.190,141.604 131.853,144.718 134.930 C 154.247 144.348,154.326 159.350,144.896 168.794 C 140.074 173.623,134.680 175.888,128.000 175.888 C 121.320 175.888,115.926 173.623,111.104 168.794 C 106.413 164.095,104.099 158.530,104.113 151.979 C 104.133 142.861,109.359 134.490,117.472 130.579 C 122.559 128.126,127.111 127.484,132.508 128.456 " stroke="none" fill-rule="evenodd"></path></svg>