<svg fill="currentColor" viewBox="0 0 256 256" xmlns="http://www.w3.org/2000/svg"><path d="M44.265 32.463 C 39.784 33.519,35.662 36.949,33.540 41.387 L 32.213 44.160 32.213 128.000 L 32.213 211.840 33.407 214.400 C 34.974 217.760,38.261 221.060,41.555 222.583 L 44.160 223.787 128.000 223.787 L 211.840 223.787 214.445 222.583 C 217.739 221.060,221.026 217.760,222.593 214.400 L 223.787 211.840 223.787 149.547 L 223.787 87.253 222.592 84.693 C 221.539 82.436,218.667 79.398,198.272 58.969 C 185.553 46.228,174.281 35.246,173.222 34.563 C 169.059 31.878,172.186 31.996,106.044 32.043 C 72.816 32.067,45.149 32.255,44.265 32.463 M186.345 69.652 L 207.787 91.090 207.787 149.658 L 207.787 208.227 195.947 208.113 L 184.107 208.000 183.893 177.910 L 183.680 147.821 182.278 144.973 C 180.652 141.670,177.987 139.085,174.507 137.434 L 172.160 136.320 128.000 136.320 L 83.840 136.320 81.493 137.434 C 78.013 139.085,75.348 141.670,73.722 144.973 L 72.320 147.821 72.107 177.910 L 71.893 208.000 60.053 208.113 L 48.213 208.227 48.213 128.220 L 48.213 48.213 106.558 48.213 L 164.904 48.213 186.345 69.652 M92.782 64.802 C 89.257 66.403,87.318 70.189,88.245 73.658 C 88.958 76.322,89.844 77.510,92.114 78.844 L 94.080 80.000 122.636 80.121 C 142.406 80.205,151.896 80.096,153.480 79.767 C 161.159 78.173,162.253 68.046,155.097 64.796 C 153.496 64.068,151.512 64.019,123.947 64.019 C 96.295 64.019,94.402 64.066,92.782 64.802 M168.003 179.947 L 167.893 208.000 128.000 208.000 L 88.107 208.000 87.997 179.947 L 87.887 151.893 128.000 151.893 L 168.113 151.893 168.003 179.947 " stroke="none" fill-rule="evenodd"></path></svg>