<svg fill="currentColor" viewBox="0 0 256 256" xmlns="http://www.w3.org/2000/svg"><path d="M204.813 40.782 C 203.998 41.136,202.970 41.752,202.527 42.152 C 200.269 44.194,199.432 48.611,200.788 51.328 C 201.163 52.079,205.802 57.045,211.095 62.364 L 220.721 72.034 202.627 72.221 C 185.961 72.393,184.197 72.482,180.267 73.347 C 155.508 78.800,138.390 93.286,131.060 114.987 C 130.346 117.099,129.067 122.157,128.217 126.228 C 126.496 134.470,125.343 138.019,122.650 143.360 C 120.304 148.011,118.498 150.505,114.666 154.385 C 108.838 160.285,101.810 164.142,92.694 166.445 C 90.004 167.124,87.654 167.680,87.472 167.680 C 87.290 167.680,86.912 166.768,86.631 165.653 C 85.792 162.318,83.660 157.600,81.514 154.329 C 76.097 146.075,68.548 140.534,58.667 137.563 C 55.261 136.539,54.103 136.405,48.427 136.379 C 43.740 136.358,41.257 136.544,39.152 137.074 C 23.523 141.012,12.307 152.408,8.894 167.820 C 7.667 173.361,7.952 181.641,9.553 187.003 C 14.719 204.303,29.980 215.892,47.645 215.929 C 56.528 215.947,64.337 213.488,71.477 208.424 C 74.307 206.417,78.961 201.677,80.955 198.771 C 83.055 195.711,85.268 190.968,86.350 187.210 C 87.297 183.919,87.449 183.671,88.590 183.548 C 89.263 183.475,92.021 182.930,94.720 182.335 C 116.657 177.504,132.930 163.558,140.200 143.360 C 141.765 139.011,142.323 136.904,143.781 129.835 C 145.272 122.609,146.591 118.528,148.963 113.803 C 151.280 109.189,152.705 107.162,156.285 103.394 C 163.163 96.152,171.600 91.655,183.133 89.082 C 186.675 88.292,188.872 88.180,203.947 88.019 L 220.800 87.839 211.135 97.573 C 205.819 102.927,201.163 107.921,200.788 108.672 C 199.489 111.274,200.097 115.106,202.185 117.485 C 204.233 119.819,208.658 120.568,211.537 119.069 C 213.496 118.049,246.272 85.212,247.212 83.328 C 248.138 81.472,248.074 78.392,247.069 76.463 C 245.840 74.104,213.072 41.573,211.107 40.762 C 209.120 39.941,206.734 39.949,204.813 40.782 M54.613 153.033 C 62.281 155.133,68.774 161.669,71.060 169.589 C 72.033 172.959,72.033 179.041,71.060 182.411 C 68.564 191.056,61.500 197.616,52.693 199.465 C 48.938 200.253,47.062 200.253,43.307 199.465 C 34.496 197.615,27.438 191.059,24.936 182.400 C 23.890 178.781,23.981 172.580,25.134 168.960 C 29.131 156.413,41.855 149.538,54.613 153.033 " stroke="none" fill-rule="evenodd"></path></svg>