<svg fill="currentColor" viewBox="0 0 256 256" xmlns="http://www.w3.org/2000/svg"><path d="M119.680 16.823 C 110.419 18.958,102.364 24.005,96.616 31.274 C 91.488 37.758,88.533 45.741,88.021 54.491 L 87.767 58.848 86.657 58.065 C 84.517 56.555,80.219 54.611,76.500 53.470 C 73.091 52.425,72.100 52.317,65.707 52.294 C 60.080 52.274,58.068 52.431,55.687 53.075 C 48.917 54.907,43.131 58.134,38.101 62.883 C 29.705 70.810,25.501 80.609,25.538 92.160 C 25.583 105.727,32.273 117.907,43.841 125.478 C 45.542 126.591,47.174 127.588,47.467 127.693 C 48.138 127.932,48.197 127.884,44.373 130.233 C 32.664 137.427,25.584 150.061,25.538 163.840 C 25.502 174.834,29.207 184.028,36.860 191.934 C 44.610 199.941,54.416 204.045,65.707 204.008 C 72.449 203.986,77.837 202.640,84.053 199.423 C 85.813 198.512,87.397 197.701,87.573 197.621 C 87.749 197.541,87.893 198.618,87.893 200.015 C 87.893 203.220,88.927 209.210,90.070 212.628 C 94.062 224.563,103.782 234.210,115.627 237.993 C 120.133 239.432,123.249 239.916,128.000 239.916 C 143.498 239.916,157.039 231.427,163.843 217.446 C 166.296 212.406,167.567 207.538,167.958 201.693 C 168.111 199.397,168.351 197.583,168.492 197.660 C 171.562 199.364,177.639 201.988,180.267 202.744 C 183.220 203.593,184.600 203.721,190.507 203.696 C 196.643 203.670,197.712 203.552,201.080 202.525 C 222.922 195.866,234.954 174.036,228.635 152.533 C 225.886 143.182,218.527 133.892,210.258 129.334 C 208.377 128.297,207.690 127.573,208.585 127.573 C 209.340 127.573,215.331 123.381,217.765 121.150 C 228.596 111.222,233.157 94.740,228.959 80.696 C 225.532 69.229,217.049 59.779,205.888 54.994 C 200.624 52.737,197.908 52.267,190.293 52.294 C 183.871 52.317,182.916 52.422,179.413 53.492 C 177.301 54.137,173.968 55.517,172.005 56.559 C 170.043 57.601,168.392 58.453,168.336 58.453 C 168.281 58.453,168.119 56.581,167.977 54.293 C 167.055 39.480,158.950 26.930,146.133 20.468 C 139.570 17.159,137.093 16.567,129.067 16.386 C 124.278 16.279,121.476 16.409,119.680 16.823 M132.508 32.456 C 139.107 33.645,145.864 38.630,149.007 44.631 C 153.590 53.381,152.721 62.236,145.622 79.097 C 143.780 83.471,141.065 89.352,140.641 89.886 C 140.609 89.926,139.048 89.582,137.171 89.120 C 131.290 87.673,122.028 87.985,116.013 89.833 C 115.496 89.992,114.806 88.920,113.142 85.371 C 107.261 72.835,104.099 62.553,104.113 56.018 C 104.133 46.860,109.344 38.497,117.472 34.579 C 122.559 32.126,127.111 31.484,132.508 32.456 M72.533 69.135 C 79.888 71.285,87.413 78.307,97.582 92.513 C 101.702 98.269,101.599 97.754,99.153 100.366 C 94.697 105.124,91.412 110.766,89.768 116.480 C 88.653 120.356,89.060 120.240,80.050 119.263 C 60.327 117.126,51.182 113.430,45.948 105.481 C 43.196 101.303,42.173 98.241,41.922 93.438 C 41.656 88.362,42.251 85.402,44.392 81.154 C 49.577 70.864,61.306 65.854,72.533 69.135 M196.053 68.778 C 202.619 70.191,208.780 75.204,211.884 81.656 C 213.785 85.608,214.334 88.556,214.078 93.438 C 213.608 102.429,208.502 109.933,200.240 113.775 C 194.365 116.507,180.101 119.333,170.947 119.579 L 167.175 119.680 166.243 116.480 C 164.567 110.721,161.269 105.112,156.644 100.151 C 154.432 97.779,154.328 98.226,158.418 92.513 C 167.961 79.182,175.254 72.109,182.124 69.521 C 186.154 68.003,191.201 67.734,196.053 68.778 M136.159 105.516 C 143.085 108.142,147.753 112.784,150.498 119.774 C 151.513 122.360,151.634 123.233,151.634 128.000 C 151.634 132.767,151.513 133.640,150.498 136.226 C 146.693 145.916,138.109 151.893,128.000 151.893 C 117.891 151.893,109.307 145.916,105.502 136.226 C 104.487 133.640,104.366 132.767,104.366 128.000 C 104.366 123.262,104.490 122.351,105.477 119.841 C 108.646 111.779,114.974 106.273,123.093 104.514 C 126.301 103.818,133.047 104.336,136.159 105.516 M89.768 139.520 C 91.405 145.210,95.577 152.265,99.594 156.137 C 100.433 156.946,101.120 157.772,101.120 157.974 C 101.120 158.999,93.074 169.848,88.137 175.479 C 81.822 182.683,76.452 186.218,69.727 187.599 C 59.845 189.628,49.093 184.217,44.386 174.846 C 42.250 170.592,41.656 167.632,41.922 162.562 C 42.173 157.753,43.196 154.697,45.960 150.500 C 50.331 143.862,57.399 140.342,70.969 138.045 C 76.415 137.123,85.096 136.164,87.197 136.251 L 88.847 136.320 89.768 139.520 M173.653 136.537 C 190.687 138.284,200.705 141.173,206.162 145.912 C 208.607 148.036,211.609 152.504,212.904 155.947 C 214.095 159.116,214.521 165.509,213.778 169.087 C 212.983 172.914,210.331 177.769,207.489 180.598 C 204.139 183.932,201.785 185.418,197.890 186.659 C 193.290 188.124,189.912 188.381,186.042 187.562 C 179.486 186.174,174.100 182.594,167.863 175.479 C 162.916 169.836,154.880 158.999,154.880 157.970 C 154.880 157.766,155.471 157.036,156.193 156.346 C 160.163 152.557,164.751 144.924,166.180 139.733 C 166.568 138.325,166.962 136.933,167.056 136.640 C 167.259 136.004,168.296 135.988,173.653 136.537 M119.680 167.112 C 123.987 168.174,132.626 168.076,137.171 166.913 C 139.048 166.433,140.609 166.074,140.641 166.114 C 141.065 166.648,143.780 172.529,145.622 176.903 C 152.721 193.765,153.591 202.622,149.005 211.369 C 145.052 218.911,136.589 224.000,128.000 224.000 C 119.411 224.000,110.948 218.911,106.995 211.369 C 102.626 203.035,103.222 194.736,109.285 179.490 C 112.460 171.504,115.270 165.939,116.013 166.167 C 116.387 166.282,118.037 166.707,119.680 167.112 " stroke="none" fill-rule="evenodd"></path></svg>