<svg fill="currentColor" viewBox="0 0 256 256" xmlns="http://www.w3.org/2000/svg"><path d="M122.027 32.267 C 110.328 33.762,101.770 36.880,92.596 42.988 C 86.811 46.840,80.256 53.133,76.672 58.276 C 74.309 61.667,74.228 61.734,71.801 62.268 C 66.581 63.417,56.078 66.657,50.418 68.864 C 39.830 72.992,31.612 77.475,24.533 82.985 C 9.202 94.917,4.261 110.324,11.092 124.899 C 21.483 147.073,57.945 163.074,107.733 167.309 C 115.984 168.011,140.016 168.011,148.267 167.309 C 198.055 163.074,234.517 147.073,244.908 124.899 C 248.808 116.578,248.903 107.698,245.183 99.298 C 241.351 90.645,231.449 81.396,218.880 74.730 C 210.488 70.279,197.852 65.609,187.004 62.950 L 182.221 61.778 179.562 58.117 C 170.448 45.572,155.974 36.373,140.417 33.236 C 136.421 32.430,125.326 31.845,122.027 32.267 M136.584 48.840 C 151.131 51.387,163.962 61.000,170.758 74.441 C 174.359 81.562,175.368 85.742,175.661 94.741 C 175.876 101.326,175.831 101.921,174.995 103.558 C 173.461 106.565,171.912 107.308,164.063 108.795 C 141.494 113.072,114.506 113.072,91.937 108.795 C 84.087 107.307,82.539 106.566,81.003 103.556 C 80.172 101.926,80.122 101.310,80.327 95.165 C 80.502 89.946,80.781 87.645,81.640 84.362 C 86.416 66.090,101.931 51.751,120.286 48.644 C 123.670 48.072,132.825 48.181,136.584 48.840 M65.659 82.240 C 64.005 89.125,63.514 100.499,64.661 105.364 C 66.444 112.930,72.055 119.452,79.074 122.119 C 83.090 123.645,95.968 125.940,107.733 127.227 C 114.630 127.981,141.370 127.981,148.267 127.227 C 160.032 125.940,172.910 123.645,176.926 122.119 C 183.802 119.507,189.594 112.768,191.344 105.343 C 192.472 100.559,192.057 89.260,190.487 82.027 C 190.286 81.097,190.347 80.640,190.674 80.640 C 191.863 80.640,202.544 84.804,207.763 87.303 C 219.150 92.754,227.043 99.156,230.164 105.470 C 231.584 108.343,231.780 109.116,231.798 111.921 C 231.816 114.734,231.634 115.497,230.244 118.424 C 227.541 124.114,220.751 130.133,211.454 135.079 C 196.912 142.815,176.399 148.321,152.533 150.894 C 142.235 152.004,113.883 152.019,103.680 150.920 C 79.607 148.326,59.141 142.843,44.546 135.079 C 38.710 131.974,35.012 129.326,31.052 125.415 C 28.076 122.475,27.016 121.076,25.756 118.424 C 24.366 115.497,24.184 114.734,24.202 111.921 C 24.220 109.115,24.416 108.344,25.841 105.461 C 30.065 96.913,41.895 88.932,60.160 82.309 C 65.977 80.199,66.150 80.197,65.659 82.240 M85.657 184.491 C 83.274 185.356,82.019 186.305,81.221 187.844 C 79.745 190.694,72.107 214.396,72.116 216.099 C 72.148 221.986,78.468 225.798,83.627 223.042 C 84.683 222.478,85.971 221.389,86.490 220.623 C 87.686 218.857,96.000 193.879,96.000 192.054 C 96.000 189.366,94.080 186.178,91.733 184.970 C 89.976 184.066,87.390 183.862,85.657 184.491 M125.979 184.299 C 124.155 184.745,121.781 186.592,120.853 188.289 C 120.183 189.513,120.094 191.436,119.982 207.034 C 119.896 219.058,120.007 224.971,120.343 226.219 C 121.964 232.239,130.064 233.942,134.125 229.116 C 136.041 226.838,136.151 225.561,136.018 207.034 C 135.899 190.407,135.855 189.589,135.020 188.166 C 133.268 185.184,129.303 183.488,125.979 184.299 M167.040 184.089 C 166.805 184.175,166.100 184.358,165.473 184.496 C 162.789 185.086,160.029 188.855,160.009 191.961 C 159.997 193.836,168.268 218.789,169.510 220.623 C 170.029 221.389,171.317 222.478,172.373 223.042 C 177.528 225.796,183.852 221.986,183.884 216.107 C 183.895 214.027,175.726 189.250,174.371 187.258 C 173.859 186.504,172.768 185.547,171.947 185.132 C 170.427 184.362,167.813 183.807,167.040 184.089 " stroke="none" fill-rule="evenodd"></path></svg>