<svg fill="currentColor" viewBox="0 0 256 256" xmlns="http://www.w3.org/2000/svg"><path d="M36.053 40.501 C 30.324 41.937,25.583 47.036,24.322 53.120 C 24.024 54.557,23.916 79.542,23.993 129.707 L 24.107 204.160 25.333 206.815 C 26.773 209.932,30.112 213.309,33.156 214.728 L 35.200 215.680 74.240 215.805 C 95.712 215.873,113.915 215.814,114.692 215.674 C 116.887 215.277,119.359 212.767,120.114 210.171 C 120.685 208.208,120.684 207.730,120.106 205.784 C 119.433 203.518,117.430 201.300,115.338 200.505 C 114.719 200.269,99.119 200.107,77.199 200.107 L 40.107 200.107 40.107 144.000 L 40.107 87.893 127.976 87.893 L 215.846 87.893 215.976 96.960 C 216.128 107.503,216.418 108.525,219.859 110.663 C 223.736 113.071,228.925 111.707,231.001 107.733 C 231.837 106.134,231.893 105.356,231.889 95.360 C 231.886 85.103,231.846 84.595,230.863 82.144 C 229.562 78.902,226.317 75.429,222.933 73.659 L 220.373 72.320 176.014 72.204 L 131.656 72.087 117.134 57.646 C 104.945 45.524,102.168 42.973,99.840 41.762 L 97.067 40.320 67.200 40.250 C 50.773 40.212,36.757 40.325,36.053 40.501 M100.480 64.000 L 108.578 72.107 74.342 72.107 L 40.107 72.107 40.107 64.000 L 40.107 55.893 66.244 55.893 L 92.382 55.893 100.480 64.000 M183.069 128.464 C 174.516 130.142,166.931 135.726,163.246 143.058 C 161.175 147.178,160.000 152.024,160.000 156.442 L 160.000 160.000 155.200 160.009 C 151.437 160.017,150.020 160.191,148.644 160.816 C 146.472 161.802,144.827 163.896,144.248 166.409 C 143.632 169.083,143.639 206.628,144.256 209.506 C 144.795 212.020,146.678 214.439,148.780 215.317 C 149.903 215.786,157.168 215.893,187.905 215.893 C 213.537 215.893,226.037 215.748,226.852 215.440 C 228.560 214.794,230.378 212.973,231.298 210.987 C 232.033 209.399,232.089 207.804,232.097 188.040 C 232.107 165.164,232.099 165.066,229.846 162.616 C 228.010 160.618,225.907 160.020,220.693 160.009 L 215.893 160.000 215.893 156.228 C 215.893 148.371,213.191 141.883,207.598 136.307 C 204.911 133.629,203.368 132.493,200.533 131.105 C 194.964 128.379,188.493 127.401,183.069 128.464 M192.853 145.100 C 197.241 147.084,199.584 150.802,199.980 156.404 L 200.233 160.000 188.223 160.000 L 176.213 160.000 176.213 156.457 C 176.213 153.509,176.397 152.545,177.309 150.716 C 178.549 148.226,180.678 146.177,183.225 145.020 C 185.660 143.914,190.316 143.953,192.853 145.100 M215.893 188.160 L 215.893 200.107 187.947 200.107 L 160.000 200.107 160.000 188.160 L 160.000 176.213 187.947 176.213 L 215.893 176.213 215.893 188.160 " stroke="none" fill-rule="evenodd"></path></svg>