<svg fill="currentColor" viewBox="0 0 256 256" xmlns="http://www.w3.org/2000/svg"><path d="M36.053 40.501 C 30.324 41.937,25.583 47.036,24.322 53.120 C 24.024 54.557,23.916 79.542,23.993 129.707 L 24.107 204.160 25.333 206.815 C 26.773 209.932,30.112 213.309,33.156 214.728 L 35.200 215.680 127.440 215.790 C 219.438 215.901,219.687 215.899,222.012 215.029 C 226.832 213.225,230.187 209.498,231.459 204.533 C 232.045 202.247,232.108 195.164,232.007 143.321 L 231.893 84.693 230.867 82.144 C 229.561 78.901,226.312 75.426,222.933 73.659 L 220.373 72.320 176.014 72.204 L 131.656 72.087 117.134 57.646 C 104.945 45.524,102.168 42.973,99.840 41.762 L 97.067 40.320 67.200 40.250 C 50.773 40.212,36.757 40.325,36.053 40.501 M100.480 64.000 L 108.578 72.107 74.342 72.107 L 40.107 72.107 40.107 64.000 L 40.107 55.893 66.244 55.893 L 92.382 55.893 100.480 64.000 M215.893 144.000 L 215.893 200.107 128.000 200.107 L 40.107 200.107 40.107 144.000 L 40.107 87.893 128.000 87.893 L 215.893 87.893 215.893 144.000 M123.679 113.436 C 120.400 115.515,120.128 116.518,119.976 127.040 L 119.846 136.107 111.045 136.107 C 100.877 136.107,99.459 136.474,97.359 139.647 C 95.726 142.114,95.726 145.886,97.359 148.353 C 99.459 151.526,100.877 151.893,111.045 151.893 L 119.846 151.893 119.976 160.960 C 120.095 169.181,120.190 170.186,120.999 171.733 C 123.075 175.707,128.264 177.071,132.141 174.663 C 135.582 172.525,135.872 171.503,136.024 160.960 L 136.154 151.893 144.955 151.893 C 155.123 151.893,156.541 151.526,158.641 148.353 C 160.274 145.886,160.274 142.114,158.641 139.647 C 156.541 136.474,155.123 136.107,144.955 136.107 L 136.154 136.107 136.024 127.040 C 135.872 116.518,135.600 115.515,132.321 113.436 C 130.789 112.465,129.901 112.213,128.000 112.213 C 126.099 112.213,125.211 112.465,123.679 113.436 " stroke="none" fill-rule="evenodd"></path></svg>