<svg fill="currentColor" viewBox="0 0 256 256" xmlns="http://www.w3.org/2000/svg"><path d="M34.521 49.014 C 30.123 50.748,27.383 53.382,25.254 57.926 L 24.107 60.373 24.107 131.840 L 24.107 203.307 25.224 205.957 C 27.063 210.321,30.434 213.551,34.721 215.057 C 37.054 215.878,38.816 215.893,128.523 215.883 L 219.947 215.873 222.369 214.877 C 225.510 213.585,227.858 211.699,229.488 209.158 C 232.253 204.849,232.133 207.977,232.007 143.321 L 231.893 84.693 230.867 82.144 C 229.561 78.901,226.312 75.426,222.933 73.659 L 220.373 72.320 175.605 72.204 L 130.836 72.088 116.606 61.432 C 108.780 55.571,101.374 50.247,100.148 49.601 L 97.920 48.427 67.200 48.334 C 38.433 48.248,36.355 48.291,34.521 49.014 M107.555 74.719 C 115.397 80.614,122.869 85.942,124.160 86.559 L 126.507 87.680 171.200 87.794 L 215.893 87.909 215.893 144.008 L 215.893 200.107 128.000 200.107 L 40.107 200.107 40.107 132.053 L 40.107 64.000 66.702 64.000 L 93.296 64.000 107.555 74.719 " stroke="none" fill-rule="evenodd"></path></svg>