<svg fill="currentColor" viewBox="0 0 256 256" xmlns="http://www.w3.org/2000/svg"><path d="M36.053 40.505 C 30.344 41.916,25.583 47.035,24.322 53.120 C 24.024 54.557,23.916 79.407,23.993 129.280 L 24.107 203.307 25.224 205.957 C 27.063 210.321,30.434 213.551,34.721 215.057 C 37.053 215.877,38.826 215.893,128.000 215.893 C 217.174 215.893,218.947 215.877,221.279 215.057 C 225.566 213.551,228.937 210.321,230.776 205.957 L 231.893 203.307 231.893 128.000 L 231.893 52.693 230.867 50.144 C 229.561 46.901,226.312 43.426,222.933 41.659 L 220.373 40.320 128.853 40.255 C 78.517 40.219,36.757 40.331,36.053 40.505 M215.893 128.000 L 215.893 200.107 128.000 200.107 L 40.107 200.107 40.107 128.000 L 40.107 55.893 128.000 55.893 L 215.893 55.893 215.893 128.000 M156.800 72.711 C 154.241 73.854,151.882 77.410,151.903 80.093 C 151.924 82.787,154.543 86.455,157.148 87.440 C 157.899 87.723,163.134 87.893,171.121 87.893 L 183.893 87.893 183.903 100.587 C 183.913 114.585,184.035 115.332,186.720 117.840 C 190.722 121.578,196.894 120.179,199.298 114.987 C 200.026 113.414,200.088 111.921,200.088 96.000 C 200.088 80.079,200.026 78.586,199.298 77.013 C 198.378 75.027,196.560 73.206,194.852 72.560 C 192.947 71.841,158.444 71.977,156.800 72.711 M60.800 136.711 C 59.117 137.463,57.379 139.350,56.556 141.320 C 55.994 142.666,55.895 145.505,55.903 160.093 C 55.911 175.911,55.975 177.416,56.702 178.987 C 57.622 180.973,59.440 182.794,61.148 183.440 C 61.926 183.733,68.566 183.893,80.000 183.893 C 91.434 183.893,98.074 183.733,98.852 183.440 C 101.504 182.438,104.088 178.766,104.088 176.000 C 104.088 173.234,101.504 169.562,98.852 168.560 C 98.101 168.277,92.866 168.107,84.879 168.107 L 72.107 168.107 72.097 155.413 C 72.087 141.415,71.965 140.668,69.280 138.160 C 67.072 136.098,63.531 135.493,60.800 136.711 " stroke="none" fill-rule="evenodd"></path></svg>