<svg fill="currentColor" viewBox="0 0 256 256" xmlns="http://www.w3.org/2000/svg"><path d="M165.760 32.297 C 162.722 32.697,157.043 34.336,154.195 35.633 C 143.129 40.677,134.277 51.406,131.766 62.822 C 131.494 64.057,129.041 77.355,126.313 92.373 L 121.355 119.680 95.557 119.893 C 67.511 120.125,68.592 120.028,66.260 122.525 C 62.383 126.678,63.880 133.216,69.219 135.446 C 70.581 136.015,74.072 136.107,94.493 136.107 C 113.162 136.107,118.187 136.220,118.187 136.640 C 118.187 138.535,108.551 189.769,107.767 192.044 C 105.357 199.033,99.587 204.574,92.160 207.027 C 89.539 207.893,88.427 207.951,71.893 208.088 C 62.272 208.168,53.972 208.327,53.448 208.443 C 52.327 208.689,49.665 210.934,48.984 212.208 C 46.851 216.194,48.640 221.398,52.772 223.225 C 54.559 224.016,55.552 224.048,73.298 223.895 C 91.898 223.733,91.956 223.730,95.679 222.627 C 102.797 220.518,107.758 217.678,112.984 212.722 C 118.339 207.644,122.728 200.020,124.235 193.178 C 124.507 191.943,126.958 178.645,129.683 163.627 L 134.637 136.320 160.438 136.107 C 188.490 135.875,187.408 135.972,189.740 133.475 C 190.961 132.167,192.000 129.650,192.000 128.000 C 192.000 126.350,190.961 123.833,189.740 122.525 C 187.410 120.030,188.363 120.117,162.027 119.983 C 143.425 119.889,137.813 119.740,137.813 119.343 C 137.813 117.679,147.419 66.329,148.124 64.230 C 150.366 57.542,155.564 52.184,162.498 49.411 C 164.834 48.477,165.466 48.441,183.467 48.224 C 204.065 47.975,203.331 48.079,206.010 45.027 C 206.746 44.190,207.462 42.980,207.603 42.339 C 207.743 41.698,207.923 40.957,208.002 40.693 C 208.302 39.693,207.269 36.441,206.212 35.055 C 205.607 34.263,204.322 33.255,203.356 32.816 C 201.727 32.076,200.354 32.023,184.320 32.073 C 174.816 32.103,166.464 32.204,165.760 32.297 " stroke="none" fill-rule="evenodd"></path></svg>