<svg fill="currentColor" viewBox="0 0 256 256" xmlns="http://www.w3.org/2000/svg"><path d="M123.520 8.679 C 122.581 8.989,121.141 9.583,120.320 9.998 C 118.351 10.993,51.488 77.757,50.093 80.120 C 48.529 82.770,47.710 87.146,48.206 90.195 C 49.048 95.371,50.002 96.679,60.716 107.354 C 72.680 119.275,73.314 119.680,80.000 119.680 C 83.932 119.680,84.472 119.576,86.891 118.349 L 89.515 117.017 93.070 120.590 L 96.624 124.163 62.861 157.975 C 35.118 185.757,28.890 192.203,27.932 194.124 C 22.611 204.797,24.189 215.829,32.180 223.820 C 40.170 231.810,51.191 233.387,61.876 228.070 C 63.799 227.113,70.209 220.919,98.024 193.140 L 131.834 159.373 135.410 162.930 L 138.986 166.488 137.653 169.073 C 136.419 171.466,136.320 171.977,136.320 175.962 C 136.320 182.692,136.713 183.307,148.646 195.284 C 159.246 205.923,160.508 206.852,165.658 207.804 C 168.605 208.349,173.179 207.501,175.880 205.908 C 176.885 205.316,192.989 189.512,211.667 170.789 C 250.235 132.128,247.680 135.164,247.680 128.000 C 247.680 121.477,247.234 120.783,235.390 108.886 C 223.471 96.914,222.403 96.212,216.116 96.215 C 212.652 96.217,211.969 96.358,209.299 97.621 L 206.331 99.024 181.610 74.303 L 156.889 49.582 157.767 48.151 C 160.404 43.851,160.649 37.779,158.371 33.170 C 157.279 30.961,155.359 28.819,147.114 20.610 C 135.609 9.157,134.578 8.466,128.640 8.242 C 126.602 8.166,124.539 8.341,123.520 8.679 M136.108 32.215 L 143.995 40.110 112.000 72.107 L 80.005 104.104 72.001 96.108 L 63.997 88.112 95.891 56.216 C 113.432 38.673,127.883 24.320,128.003 24.320 C 128.124 24.320,131.771 27.873,136.108 32.215 M172.695 132.585 L 150.403 154.880 125.762 130.242 L 101.120 105.603 123.412 83.308 L 145.704 61.013 170.345 85.652 L 194.987 110.290 172.695 132.585 M224.002 120.108 L 231.888 128.003 199.893 160.000 L 167.899 191.997 160.109 184.216 C 155.825 179.937,152.320 176.242,152.320 176.005 C 152.320 175.581,215.473 112.213,215.897 112.213 C 216.017 112.213,219.664 115.766,224.002 120.108 M114.349 141.869 L 120.527 148.058 87.250 181.339 C 60.397 208.197,53.623 214.755,52.156 215.316 C 49.623 216.286,46.088 215.884,43.915 214.378 C 40.696 212.148,39.261 207.248,40.761 203.613 C 41.221 202.500,51.309 192.130,74.574 168.853 C 92.810 150.608,107.830 135.680,107.951 135.680 C 108.072 135.680,110.951 138.465,114.349 141.869 " stroke="none" fill-rule="evenodd"></path></svg>