<svg fill="currentColor" viewBox="0 0 256 256" xmlns="http://www.w3.org/2000/svg"><path d="M94.507 25.359 C 87.876 27.581,83.120 29.593,77.653 32.491 C 73.130 34.888,71.418 36.278,70.583 38.225 C 70.273 38.951,69.410 45.095,68.666 51.879 L 67.314 64.213 65.764 65.773 L 64.213 67.332 52.267 68.671 C 45.696 69.408,39.537 70.293,38.579 70.639 C 37.622 70.985,36.342 71.793,35.735 72.434 C 33.116 75.199,27.262 88.037,24.720 96.589 C 23.358 101.168,23.173 103.408,24.000 105.260 C 24.293 105.916,28.037 110.848,32.320 116.220 C 42.622 129.142,42.636 126.846,32.183 139.939 C 27.825 145.398,24.081 150.333,23.863 150.907 C 23.157 152.764,23.439 155.466,24.794 159.804 C 26.654 165.759,29.114 171.800,31.894 177.237 C 34.531 182.394,36.232 184.597,38.219 185.428 C 38.948 185.732,45.095 186.590,51.879 187.334 L 64.213 188.686 65.745 190.236 L 67.276 191.787 68.655 203.947 C 70.089 216.598,70.570 218.618,72.582 220.443 C 76.465 223.966,97.439 232.533,102.178 232.533 C 104.799 232.533,106.424 231.510,116.181 223.721 C 129.147 213.370,126.842 213.361,139.939 223.817 C 145.398 228.175,150.333 231.919,150.907 232.137 C 153.089 232.967,155.927 232.530,162.346 230.377 C 169.702 227.910,180.782 222.700,183.214 220.564 C 184.127 219.762,185.123 218.510,185.428 217.781 C 185.732 217.052,186.586 210.905,187.325 204.121 L 188.668 191.787 190.227 190.281 L 191.787 188.776 203.947 187.371 C 216.584 185.912,218.625 185.422,220.443 183.418 C 223.966 179.535,232.533 158.561,232.533 153.822 C 232.533 151.201,231.510 149.576,223.721 139.819 C 213.370 126.853,213.361 129.158,223.817 116.061 C 228.175 110.602,231.919 105.667,232.137 105.093 C 232.966 102.914,232.530 100.071,230.383 93.653 C 227.444 84.864,222.111 74.028,219.718 71.979 C 218.733 71.136,217.421 70.344,216.803 70.220 C 216.185 70.096,210.304 69.408,203.733 68.691 L 191.787 67.388 190.281 65.801 L 188.776 64.213 187.371 52.053 C 185.792 38.383,185.423 37.071,182.574 35.008 C 177.069 31.020,158.201 23.467,153.743 23.467 C 151.210 23.467,149.509 24.543,139.819 32.279 C 130.222 39.941,129.971 40.107,128.000 40.107 C 126.029 40.107,125.778 39.941,116.181 32.279 C 110.788 27.973,105.740 24.229,104.964 23.959 C 102.565 23.122,100.263 23.431,94.507 25.359 M109.826 47.745 C 115.082 51.945,119.833 55.527,120.384 55.703 C 121.909 56.191,132.665 56.253,134.704 55.785 C 136.083 55.469,138.708 53.614,146.010 47.790 L 155.520 40.207 159.147 41.485 C 165.209 43.622,170.666 46.339,170.672 47.224 C 170.686 49.484,173.248 69.976,173.650 71.055 C 174.270 72.712,182.856 81.410,184.634 82.181 C 185.665 82.628,206.656 85.333,209.094 85.333 C 209.666 85.333,211.928 90.006,214.014 95.496 L 215.848 100.325 208.211 109.881 C 202.857 116.580,200.459 119.919,200.187 121.051 C 199.680 123.168,199.881 134.294,200.452 135.731 C 200.697 136.346,204.274 141.082,208.402 146.255 L 215.907 155.661 214.029 160.518 C 211.793 166.304,209.649 170.667,209.042 170.667 C 207.969 170.667,186.187 173.277,185.204 173.524 C 183.765 173.884,174.564 182.854,173.807 184.634 C 173.368 185.667,170.667 206.706,170.667 209.094 C 170.667 209.666,165.993 211.928,160.496 214.017 L 155.658 215.855 147.146 209.023 C 134.831 199.140,136.854 200.106,128.474 200.112 C 124.576 200.116,120.963 200.232,120.445 200.371 C 119.927 200.510,115.223 204.037,109.992 208.208 L 100.480 215.793 96.853 214.526 C 90.915 212.451,85.334 209.666,85.328 208.774 C 85.311 205.988,82.694 185.817,82.202 184.667 C 81.474 182.970,72.748 174.303,71.158 173.698 C 70.346 173.390,48.335 170.667,46.653 170.667 C 46.318 170.667,43.137 163.646,41.604 159.524 L 40.166 155.656 47.796 146.110 C 53.035 139.554,55.553 136.058,55.832 134.949 C 56.293 133.113,56.203 122.408,55.711 120.664 C 55.532 120.033,51.971 115.233,47.796 109.998 L 40.207 100.480 41.485 96.853 C 43.622 90.791,46.339 85.334,47.224 85.328 C 50.041 85.310,70.185 82.692,71.333 82.195 C 73.114 81.423,81.721 72.738,82.335 71.093 C 82.686 70.151,85.333 48.800,85.333 46.906 C 85.333 46.239,94.467 42.074,100.161 40.143 C 100.221 40.123,104.570 43.544,109.826 47.745 M119.183 80.845 C 110.170 82.480,100.676 87.503,94.026 94.153 C 75.405 112.774,75.433 143.255,94.089 161.911 C 112.717 180.539,143.233 180.589,161.800 162.021 C 175.601 148.220,179.684 128.057,172.375 109.802 C 166.480 95.080,152.278 83.588,136.584 80.840 C 132.248 80.080,123.382 80.083,119.183 80.845 M136.067 97.033 C 139.655 98.016,145.011 100.769,147.978 103.155 C 155.245 108.999,160.000 118.826,160.000 128.000 C 160.000 140.482,151.738 152.844,140.277 157.508 C 124.186 164.056,106.551 157.162,99.176 141.440 C 96.768 136.306,96.222 133.824,96.222 128.000 C 96.222 122.176,96.768 119.694,99.176 114.560 C 103.641 105.042,112.395 98.292,122.699 96.423 C 125.548 95.906,133.235 96.257,136.067 97.033 " stroke="none" fill-rule="evenodd"></path></svg>