<svg viewBox="0 0 256 256" xmlns="http://www.w3.org/2000/svg"><path d="M123.679 17.436 C 120.391 19.521,120.127 20.502,119.977 31.183 L 119.848 40.392 115.711 40.927 C 110.049 41.660,101.142 43.992,96.086 46.066 C 93.777 47.012,91.679 47.787,91.424 47.787 C 91.168 47.787,89.109 44.571,86.849 40.640 C 82.382 32.874,80.815 31.030,78.046 30.284 C 73.673 29.107,69.521 31.610,68.294 36.164 C 67.587 38.789,68.174 40.444,72.381 47.687 C 77.930 57.243,77.678 55.866,74.333 58.359 C 68.846 62.447,61.093 70.348,56.951 76.073 L 56.090 77.264 48.291 72.791 C 43.933 70.291,39.889 68.258,39.126 68.183 C 32.946 67.572,28.348 73.127,30.459 78.654 C 31.457 81.269,32.602 82.188,40.640 86.831 C 44.571 89.101,47.787 91.113,47.787 91.301 C 47.787 91.489,47.005 93.615,46.050 96.024 C 43.930 101.372,41.548 110.490,40.871 115.849 L 40.370 119.823 31.171 119.965 C 22.107 120.105,21.945 120.123,20.049 121.238 C 16.124 123.545,14.945 128.289,17.337 132.141 C 19.481 135.591,20.482 135.872,31.170 136.022 L 40.366 136.152 40.870 140.138 C 41.553 145.549,43.912 154.554,46.107 160.132 C 47.174 162.843,47.760 164.885,47.532 165.103 C 47.320 165.307,44.075 167.239,40.320 169.396 C 36.565 171.553,33.036 173.730,32.477 174.233 C 31.115 175.458,29.885 178.219,29.885 180.053 C 29.885 183.523,33.024 187.270,36.472 187.917 C 38.835 188.360,40.915 187.544,48.316 183.268 C 52.131 181.063,55.462 179.198,55.718 179.123 C 55.973 179.048,57.377 180.486,58.836 182.319 C 63.633 188.340,70.510 195.017,76.059 199.040 L 77.236 199.893 72.977 207.269 C 70.634 211.326,68.513 215.406,68.262 216.336 C 67.355 219.705,69.279 223.601,72.656 225.236 C 74.926 226.335,76.902 226.363,79.147 225.327 C 81.555 224.216,82.187 223.395,86.830 215.360 C 89.101 211.429,91.113 208.213,91.301 208.213 C 91.489 208.213,93.615 208.995,96.024 209.950 C 101.377 212.072,110.491 214.452,115.862 215.130 L 119.848 215.634 119.978 224.830 C 120.128 235.518,120.409 236.519,123.859 238.663 C 127.736 241.071,132.925 239.707,135.001 235.733 C 135.812 234.183,135.905 233.185,136.022 224.830 L 136.152 215.634 140.138 215.130 C 145.509 214.452,154.623 212.072,159.976 209.950 C 162.385 208.995,164.511 208.213,164.699 208.213 C 164.887 208.213,166.899 211.429,169.170 215.360 C 173.813 223.395,174.445 224.216,176.853 225.327 C 179.098 226.363,181.074 226.335,183.344 225.236 C 186.721 223.601,188.645 219.705,187.738 216.336 C 187.487 215.406,185.366 211.326,183.023 207.269 L 178.764 199.893 179.941 199.040 C 185.490 195.017,192.367 188.340,197.164 182.319 C 198.623 180.486,200.027 179.048,200.282 179.123 C 200.538 179.198,203.869 181.063,207.684 183.268 C 211.500 185.472,215.420 187.491,216.395 187.754 C 221.084 189.016,226.155 184.779,226.122 179.627 C 226.112 178.162,224.751 175.337,223.523 174.233 C 222.964 173.730,219.435 171.553,215.680 169.396 C 211.925 167.239,208.680 165.307,208.468 165.103 C 208.240 164.885,208.826 162.843,209.893 160.132 C 212.088 154.554,214.447 145.549,215.130 140.138 L 215.634 136.152 224.830 136.022 C 235.518 135.872,236.519 135.591,238.663 132.141 C 241.061 128.279,239.832 123.430,235.882 121.169 C 234.089 120.142,233.719 120.102,224.829 119.965 L 215.630 119.823 215.129 115.849 C 214.452 110.490,212.070 101.372,209.950 96.024 C 208.995 93.615,208.213 91.489,208.213 91.301 C 208.213 91.113,211.429 89.101,215.360 86.831 C 219.291 84.561,223.031 82.206,223.672 81.599 C 226.123 79.278,226.705 75.274,225.055 72.084 C 223.740 69.542,220.204 67.853,216.882 68.182 C 216.133 68.256,212.020 70.317,207.709 72.779 L 199.894 77.242 199.040 76.062 C 194.908 70.349,187.149 62.443,181.667 58.359 C 178.322 55.866,178.070 57.243,183.619 47.687 C 187.826 40.444,188.413 38.789,187.706 36.164 C 186.479 31.610,182.327 29.107,177.954 30.284 C 175.185 31.030,173.618 32.874,169.151 40.640 C 166.891 44.571,164.832 47.787,164.576 47.787 C 164.321 47.787,162.223 47.012,159.914 46.066 C 154.858 43.992,145.951 41.660,140.289 40.927 L 136.152 40.392 136.023 31.183 C 135.873 20.502,135.609 19.521,132.321 17.436 C 129.609 15.716,126.391 15.716,123.679 17.436 M138.027 56.789 C 148.911 58.189,160.558 62.882,170.312 69.799 C 174.830 73.003,182.930 81.111,186.201 85.704 C 192.952 95.183,198.059 107.739,199.109 117.440 L 199.375 119.893 165.927 119.877 L 132.480 119.860 115.881 91.036 C 102.808 68.337,99.408 62.132,99.881 61.834 C 101.319 60.927,107.729 58.876,112.400 57.828 C 120.831 55.937,128.869 55.611,138.027 56.789 M101.957 98.890 C 110.982 114.548,118.367 127.648,118.367 128.000 C 118.367 128.913,85.638 185.578,85.104 185.590 C 84.860 185.596,82.913 184.077,80.777 182.215 C 47.932 153.585,47.932 102.415,80.777 73.785 C 82.913 71.923,84.860 70.404,85.104 70.410 C 85.347 70.415,92.931 83.231,101.957 98.890 M199.109 138.560 C 198.364 145.441,195.014 155.393,191.006 162.632 C 187.524 168.920,184.163 173.351,178.773 178.760 C 172.821 184.733,167.566 188.542,160.213 192.213 C 145.041 199.788,128.995 201.855,112.679 198.337 C 108.621 197.461,100.367 194.791,99.681 194.131 C 99.473 193.931,106.627 181.058,115.894 164.956 L 132.480 136.140 165.927 136.123 L 199.375 136.107 199.109 138.560 " stroke="none" fill-rule="evenodd" fill="black"></path></svg>