<svg fill="currentColor" viewBox="0 0 256 256" xmlns="http://www.w3.org/2000/svg"><path d="M118.827 16.478 C 106.103 18.366,95.402 22.136,85.777 28.119 C 65.842 40.511,52.390 61.023,48.814 84.480 C 47.989 89.893,47.876 101.164,48.597 106.240 C 51.941 129.807,64.900 150.335,84.496 163.108 C 92.497 168.323,103.172 172.629,112.640 174.461 C 115.104 174.938,117.696 175.383,118.400 175.451 L 119.680 175.573 119.793 187.840 L 119.906 200.107 103.030 200.107 C 87.121 200.107,86.059 200.155,84.517 200.941 C 82.351 202.046,80.698 204.075,80.389 206.006 C 80.251 206.868,80.123 207.669,80.104 207.787 C 79.894 209.103,80.880 211.870,82.023 213.172 C 84.419 215.901,84.362 215.893,103.026 215.893 L 119.893 215.893 119.903 228.587 C 119.913 242.585,120.035 243.332,122.720 245.840 C 126.722 249.578,132.894 248.179,135.298 242.987 C 136.010 241.448,136.089 240.031,136.097 228.600 L 136.107 215.921 153.527 215.800 L 170.947 215.680 172.523 214.478 C 175.439 212.253,176.453 209.413,175.571 205.940 C 174.986 203.635,173.710 202.087,171.430 200.918 C 169.953 200.161,168.720 200.107,152.970 200.107 L 136.094 200.107 136.207 187.840 L 136.320 175.573 137.600 175.450 C 144.347 174.797,154.944 171.667,162.347 168.139 C 170.935 164.046,177.050 159.736,184.052 152.841 C 215.829 121.546,215.948 70.929,184.319 39.257 C 173.593 28.516,159.455 20.941,144.000 17.655 C 139.584 16.716,137.590 16.547,129.493 16.427 C 124.331 16.351,119.531 16.374,118.827 16.478 M139.099 33.031 C 153.290 35.552,166.807 43.152,176.060 53.815 C 183.779 62.708,188.880 73.374,191.033 85.120 C 191.987 90.326,191.987 101.674,191.033 106.880 C 189.924 112.930,188.302 118.013,185.844 123.144 C 176.894 141.825,161.036 154.296,140.519 158.790 C 134.819 160.038,122.434 160.157,116.693 159.020 C 107.269 157.152,97.158 152.797,90.240 147.625 C 85.966 144.430,79.973 138.525,77.035 134.613 C 62.733 115.573,60.053 89.945,70.156 68.856 C 81.347 45.497,104.100 31.444,129.493 32.206 C 132.779 32.305,137.101 32.676,139.099 33.031 " stroke="none" fill-rule="evenodd"></path></svg>