<svg fill="currentColor" viewBox="0 0 256 256" xmlns="http://www.w3.org/2000/svg"><path d="M119.040 72.811 C 107.799 74.532,96.855 80.166,88.533 88.518 C 83.750 93.318,80.765 97.419,77.949 103.058 C 76.028 106.907,73.708 113.531,73.174 116.693 C 73.015 117.632,72.795 118.730,72.685 119.134 C 72.497 119.820,70.259 119.876,39.122 119.988 C 2.715 120.118,4.632 119.986,2.260 122.525 C -1.617 126.678,-0.120 133.216,5.219 135.446 C 6.599 136.023,10.963 136.107,39.638 136.107 C 70.550 136.107,72.488 136.150,72.681 136.853 C 72.793 137.264,73.015 138.368,73.174 139.307 C 74.143 145.046,78.045 154.120,82.062 159.978 C 84.883 164.091,91.461 170.732,95.573 173.619 C 110.092 183.812,128.704 186.614,145.342 181.112 C 154.238 178.170,161.102 173.921,167.680 167.283 C 172.275 162.646,175.280 158.490,178.051 152.942 C 179.972 149.093,182.292 142.469,182.826 139.307 C 182.985 138.368,183.207 137.264,183.319 136.853 C 183.512 136.150,185.450 136.107,216.362 136.107 C 251.869 136.107,250.858 136.168,253.384 133.846 C 254.726 132.613,255.979 129.847,255.991 128.093 C 256.009 125.299,254.143 122.260,251.520 120.813 C 250.365 120.176,246.981 120.095,216.878 119.988 C 185.741 119.876,183.503 119.820,183.315 119.134 C 183.205 118.730,182.985 117.632,182.826 116.693 C 182.292 113.531,179.972 106.907,178.051 103.058 C 175.235 97.419,172.250 93.318,167.467 88.518 C 154.785 75.790,137.083 70.049,119.040 72.811 M138.115 89.402 C 142.093 90.408,147.462 92.845,151.014 95.259 C 153.520 96.962,159.038 102.480,160.741 104.986 C 163.161 108.547,165.593 113.909,166.688 118.098 C 168.237 124.025,168.237 131.975,166.688 137.902 C 165.598 142.072,163.180 147.412,160.751 151.014 C 158.543 154.289,152.314 160.054,148.563 162.295 C 143.947 165.053,137.840 167.109,132.356 167.752 C 124.013 168.731,114.853 166.725,107.437 162.295 C 103.686 160.054,97.457 154.289,95.249 151.014 C 92.820 147.412,90.402 142.072,89.312 137.902 C 87.762 131.974,87.763 124.025,89.313 118.096 C 94.176 99.493,111.042 87.136,130.133 88.186 C 132.363 88.309,135.955 88.856,138.115 89.402 " stroke="none" fill-rule="evenodd"></path></svg>