<svg fill="currentColor" viewBox="0 0 256 256" xmlns="http://www.w3.org/2000/svg"><path d="M58.240 32.632 C 47.732 34.583,38.420 42.078,34.479 51.758 C 30.099 62.513,31.793 74.905,38.844 83.690 C 42.700 88.495,48.336 92.568,53.308 94.142 L 55.791 94.929 56.014 102.184 C 56.242 109.597,56.432 110.725,58.297 115.713 C 61.237 123.580,68.319 130.682,76.239 133.709 C 81.940 135.887,84.378 136.107,102.864 136.107 L 119.893 136.107 119.893 148.659 L 119.893 161.212 118.569 161.503 C 114.825 162.325,108.955 165.886,105.312 169.544 C 96.206 178.688,93.558 192.158,98.487 204.263 C 100.074 208.159,102.568 211.705,106.084 215.065 C 109.796 218.610,113.119 220.609,118.210 222.359 C 121.978 223.654,122.615 223.744,128.000 223.744 C 133.385 223.744,134.022 223.654,137.790 222.359 C 142.881 220.609,146.204 218.610,149.916 215.065 C 155.010 210.198,157.953 204.934,159.343 198.201 C 161.839 186.122,156.567 172.858,146.524 165.948 C 144.103 164.283,139.195 161.869,137.493 161.507 L 136.107 161.212 136.107 148.659 L 136.107 136.107 153.136 136.107 C 166.457 136.107,170.889 135.968,173.490 135.470 C 182.575 133.732,190.051 128.758,194.935 121.202 C 198.547 115.613,200.107 109.369,200.107 100.496 L 200.107 94.827 201.493 94.551 C 202.256 94.399,204.512 93.471,206.507 92.488 C 209.485 91.021,210.858 89.973,214.188 86.631 C 218.643 82.157,220.545 79.288,222.099 74.695 C 223.617 70.207,224.145 66.470,223.883 62.070 C 223.221 50.974,216.315 40.516,206.450 35.671 C 200.928 32.958,197.949 32.254,192.000 32.254 C 183.023 32.254,175.921 35.163,169.444 41.494 C 156.914 53.739,156.936 74.254,169.493 86.642 C 173.301 90.399,180.550 94.670,183.184 94.708 C 183.918 94.719,183.959 95.153,183.824 101.440 C 183.691 107.638,183.594 108.342,182.566 110.507 C 180.915 113.987,178.330 116.652,175.027 118.278 L 172.178 119.680 128.000 119.680 L 83.822 119.680 80.973 118.278 C 77.670 116.652,75.085 113.987,73.434 110.507 C 72.406 108.342,72.309 107.638,72.176 101.440 C 72.041 95.153,72.082 94.719,72.816 94.708 C 74.126 94.689,79.020 92.423,81.720 90.585 C 94.502 81.887,99.323 66.005,93.513 51.737 C 90.308 43.868,83.024 36.962,74.802 33.999 C 69.397 32.051,63.839 31.592,58.240 32.632 M70.897 49.618 C 73.730 51.004,77.333 54.670,78.637 57.493 C 79.413 59.172,79.573 60.288,79.573 64.000 C 79.573 68.011,79.452 68.727,78.414 70.841 C 75.319 77.143,68.295 80.868,61.568 79.773 C 56.534 78.953,51.860 75.480,49.613 70.887 C 48.145 67.886,47.783 62.712,48.797 59.223 C 50.075 54.828,54.155 50.562,58.597 48.978 C 61.964 47.777,67.750 48.078,70.897 49.618 M198.897 49.618 C 201.730 51.004,205.333 54.670,206.637 57.493 C 207.413 59.172,207.573 60.288,207.573 64.000 C 207.573 68.011,207.452 68.727,206.414 70.841 C 203.319 77.143,196.295 80.868,189.568 79.773 C 184.534 78.953,179.860 75.480,177.613 70.887 C 176.145 67.886,175.783 62.712,176.797 59.223 C 178.075 54.828,182.155 50.562,186.597 48.978 C 189.964 47.777,195.750 48.078,198.897 49.618 M134.897 177.618 C 137.730 179.004,141.333 182.670,142.637 185.493 C 143.413 187.172,143.573 188.288,143.573 192.000 C 143.573 196.011,143.452 196.727,142.414 198.841 C 139.319 205.143,132.295 208.868,125.568 207.773 C 120.534 206.953,115.860 203.480,113.613 198.887 C 112.145 195.886,111.783 190.712,112.797 187.223 C 114.075 182.828,118.155 178.562,122.597 176.978 C 125.964 175.777,131.750 176.078,134.897 177.618 " stroke="none" fill-rule="evenodd"></path></svg>