<svg fill="currentColor" viewBox="0 0 256 256" xmlns="http://www.w3.org/2000/svg"><path d="M51.317 16.202 C 48.602 16.845,47.654 17.676,42.000 24.376 C 19.391 51.165,10.717 88.546,19.213 122.582 C 29.656 164.418,62.164 196.085,104.228 205.396 C 108.451 206.331,111.106 206.757,118.080 207.616 L 119.893 207.839 119.893 215.919 L 119.893 224.000 107.200 224.009 C 95.808 224.018,94.330 224.099,92.782 224.802 C 89.257 226.403,87.318 230.189,88.245 233.658 C 88.958 236.322,89.844 237.510,92.114 238.844 L 94.080 240.000 128.000 240.000 L 161.920 240.000 163.886 238.844 C 168.361 236.214,169.356 230.831,166.086 226.945 C 163.742 224.159,162.924 224.020,148.800 224.009 L 136.107 224.000 136.107 215.919 L 136.107 207.839 138.133 207.589 C 150.236 206.094,158.246 204.252,167.211 200.903 C 180.118 196.080,192.255 188.754,202.453 179.629 C 206.638 175.885,207.885 173.941,207.885 171.163 C 207.885 166.631,204.541 163.202,200.149 163.229 C 197.189 163.247,196.122 163.815,191.787 167.681 C 178.326 179.685,161.976 187.583,144.000 190.766 C 136.769 192.047,123.351 192.345,116.068 191.387 C 105.026 189.934,94.312 186.653,84.693 181.777 C 55.147 166.801,35.595 138.167,32.385 105.173 C 31.787 99.026,32.112 87.256,33.040 81.493 C 34.651 71.483,37.127 63.632,41.585 54.400 C 45.888 45.487,50.387 38.848,57.685 30.637 C 60.399 27.584,61.013 26.330,61.013 23.844 C 61.013 18.938,56.104 15.069,51.317 16.202 M119.040 16.482 C 91.617 19.832,68.204 36.403,56.127 61.011 C 41.158 91.511,47.351 128.306,71.522 152.478 C 82.743 163.698,97.200 171.445,112.604 174.491 C 147.467 181.385,183.028 164.042,199.196 132.259 C 205.846 119.187,208.776 104.852,207.751 90.400 C 205.192 54.304,178.919 24.647,143.147 17.474 C 139.379 16.718,136.686 16.509,129.493 16.416 C 124.565 16.352,119.861 16.382,119.040 16.482 M139.099 33.033 C 153.274 35.542,166.806 43.151,176.060 53.815 C 183.779 62.708,188.880 73.374,191.033 85.120 C 191.987 90.326,191.987 101.674,191.033 106.880 C 189.924 112.930,188.302 118.013,185.844 123.144 C 176.895 141.824,161.083 154.261,140.519 158.796 C 134.434 160.138,121.566 160.138,115.481 158.796 C 94.899 154.257,79.113 141.840,70.156 123.144 C 61.214 104.479,62.207 82.088,72.788 63.831 C 82.698 46.730,100.761 34.826,120.356 32.483 C 124.972 31.930,134.443 32.208,139.099 33.033 " stroke="none" fill-rule="evenodd"></path></svg>