<svg fill="currentColor" viewBox="0 0 256 256" xmlns="http://www.w3.org/2000/svg"><path d="M120.960 24.326 C 100.935 25.586,81.587 32.844,64.891 45.360 C 59.554 49.360,49.234 59.686,45.276 64.986 C 34.512 79.399,27.973 94.882,25.095 112.768 C 23.886 120.283,23.787 134.307,24.890 141.867 C 27.542 160.046,34.293 176.318,45.279 191.014 C 49.299 196.392,59.608 206.701,64.986 210.721 C 79.686 221.710,96.000 228.476,114.133 231.105 C 117.683 231.620,121.936 231.847,128.000 231.847 C 144.598 231.847,158.874 228.583,173.440 221.458 C 184.661 215.968,192.320 210.472,201.396 201.396 C 210.475 192.317,215.974 184.654,221.456 173.440 C 235.707 144.287,235.458 110.173,220.780 81.026 C 214.698 68.950,203.517 55.194,193.067 46.931 C 172.349 30.550,147.221 22.673,120.960 24.326 M130.143 42.560 C 143.347 57.520,153.809 80.200,157.648 102.187 C 158.471 106.902,159.573 116.119,159.573 118.291 L 159.573 119.893 128.000 119.893 L 96.427 119.893 96.427 118.293 C 96.429 113.185,98.744 98.683,100.736 91.307 C 105.057 75.304,112.142 60.388,120.994 48.657 C 124.550 43.945,127.492 40.533,128.000 40.533 C 128.195 40.533,129.159 41.445,130.143 42.560 M104.960 43.269 C 104.960 43.366,103.701 45.430,102.162 47.856 C 96.548 56.705,90.299 70.394,87.098 80.853 C 83.967 91.087,81.550 103.445,80.610 114.027 L 80.090 119.893 60.256 119.893 L 40.423 119.893 40.724 117.227 C 42.830 98.528,51.987 79.860,65.907 65.890 C 75.418 56.343,86.131 49.609,99.200 44.960 C 104.361 43.124,104.960 42.948,104.960 43.269 M156.309 44.796 C 185.636 54.908,207.643 79.640,213.930 109.551 C 214.509 112.306,215.116 115.760,215.280 117.227 L 215.577 119.893 195.744 119.893 L 175.910 119.893 175.389 114.027 C 173.268 90.162,165.556 66.492,153.823 47.842 C 152.293 45.409,151.040 43.345,151.040 43.256 C 151.040 42.987,151.191 43.031,156.309 44.796 M80.610 141.973 C 81.550 152.555,83.967 164.913,87.098 175.147 C 90.302 185.616,96.548 199.295,102.175 208.165 C 103.721 210.602,104.913 212.669,104.825 212.757 C 104.514 213.068,94.471 209.414,90.548 207.563 C 72.006 198.817,56.355 182.925,47.907 164.267 C 44.463 156.660,41.590 146.464,40.724 138.773 L 40.423 136.107 60.256 136.107 L 80.090 136.107 80.610 141.973 M159.389 140.216 C 157.520 165.679,147.679 191.560,132.752 210.272 C 131.128 212.308,129.394 214.339,128.900 214.786 C 128.015 215.585,127.985 215.585,127.100 214.786 C 126.606 214.339,124.876 212.313,123.257 210.284 C 110.999 194.917,101.944 174.387,98.352 153.813 C 97.529 149.098,96.427 139.881,96.427 137.709 L 96.427 136.107 128.058 136.107 L 159.690 136.107 159.389 140.216 M215.280 138.773 C 214.420 146.491,211.381 157.109,207.820 164.842 C 199.356 183.217,183.790 198.913,165.452 207.563 C 161.547 209.406,151.486 213.068,151.178 212.760 C 151.091 212.673,152.214 210.702,153.673 208.381 C 165.571 189.456,173.259 165.947,175.389 141.973 L 175.910 136.107 195.744 136.107 L 215.577 136.107 215.280 138.773 " stroke="none" fill-rule="evenodd"></path></svg>