<svg fill="currentColor" viewBox="0 0 256 256" xmlns="http://www.w3.org/2000/svg"><path d="M120.960 24.326 C 100.935 25.586,81.587 32.844,64.891 45.360 C 59.554 49.360,49.234 59.686,45.276 64.986 C 34.512 79.399,27.973 94.882,25.095 112.768 C 23.886 120.283,23.787 134.307,24.890 141.867 C 27.542 160.046,34.293 176.318,45.279 191.014 C 49.299 196.392,59.608 206.701,64.986 210.721 C 79.686 221.710,96.000 228.476,114.133 231.105 C 117.683 231.620,121.936 231.847,128.000 231.847 C 144.598 231.847,158.874 228.583,173.440 221.458 C 184.661 215.968,192.320 210.472,201.396 201.396 C 210.475 192.317,215.974 184.654,221.456 173.440 C 235.707 144.287,235.458 110.173,220.780 81.026 C 214.698 68.950,203.517 55.194,193.067 46.931 C 172.349 30.550,147.221 22.673,120.960 24.326 M130.143 42.560 C 139.317 52.954,147.646 67.868,152.777 83.093 L 154.395 87.893 128.000 87.893 L 101.605 87.893 103.223 83.093 C 107.304 70.984,113.103 59.550,120.046 49.920 C 123.111 45.669,127.454 40.533,127.984 40.533 C 128.187 40.533,129.159 41.445,130.143 42.560 M104.960 43.256 C 104.960 43.345,103.704 45.409,102.169 47.842 C 96.130 57.418,89.147 73.142,86.294 83.588 L 85.120 87.889 67.520 87.891 C 57.840 87.892,49.920 87.771,49.920 87.622 C 49.920 86.964,55.349 78.326,57.943 74.857 C 59.513 72.758,63.006 68.813,65.706 66.090 C 75.226 56.489,86.173 49.581,99.200 44.957 C 104.314 43.141,104.960 42.950,104.960 43.256 M156.433 44.831 C 176.074 51.576,192.899 65.224,203.488 83.000 C 204.914 85.394,206.080 87.473,206.080 87.622 C 206.080 87.771,198.160 87.892,188.480 87.891 L 170.880 87.889 169.706 83.588 C 166.844 73.109,160.181 58.065,154.066 48.276 C 152.402 45.612,151.040 43.356,151.040 43.263 C 151.040 42.986,151.163 43.022,156.433 44.831 M81.198 108.267 C 79.729 119.513,79.729 136.525,81.197 147.733 L 81.742 151.893 62.485 151.893 L 43.228 151.893 42.307 147.733 C 40.608 140.064,40.333 137.315,40.333 128.000 C 40.333 118.685,40.608 115.936,42.307 108.267 L 43.228 104.107 62.485 104.107 L 81.742 104.107 81.198 108.267 M158.018 104.738 C 158.893 107.019,159.741 118.468,159.741 128.000 C 159.741 137.532,158.893 148.981,158.018 151.262 C 157.807 151.811,153.898 151.893,127.980 151.893 C 111.592 151.893,98.096 151.749,97.990 151.573 C 97.883 151.397,97.449 148.373,97.024 144.853 C 95.975 136.150,95.961 119.914,96.995 111.458 C 97.405 108.110,97.849 105.086,97.982 104.738 C 98.349 103.783,157.651 103.783,158.018 104.738 M213.465 107.200 C 215.350 115.362,215.653 118.246,215.653 128.000 C 215.653 137.754,215.350 140.638,213.465 148.800 L 212.751 151.893 193.504 151.893 L 174.258 151.893 174.804 147.733 C 175.772 140.348,176.180 128.492,175.752 120.213 C 175.530 115.931,175.104 110.555,174.804 108.267 L 174.258 104.107 193.504 104.107 L 212.751 104.107 213.465 107.200 M86.294 172.412 C 89.148 182.864,96.130 198.582,102.177 208.170 C 103.716 210.610,104.905 212.677,104.819 212.763 C 104.503 213.079,94.410 209.366,90.243 207.401 C 85.381 205.107,78.980 201.193,74.240 197.615 C 69.825 194.283,61.368 185.737,57.938 181.143 C 55.345 177.668,49.920 169.032,49.920 168.378 C 49.920 168.229,57.840 168.108,67.520 168.109 L 85.120 168.111 86.294 172.412 M152.550 173.547 C 147.802 187.373,141.118 199.758,132.737 210.258 C 128.590 215.453,128.233 215.762,127.285 214.986 C 126.891 214.664,125.082 212.536,123.263 210.258 C 114.882 199.758,108.198 187.373,103.450 173.547 L 101.583 168.107 128.000 168.107 L 154.417 168.107 152.550 173.547 M206.080 168.378 C 206.080 169.032,200.655 177.668,198.062 181.143 C 194.632 185.737,186.176 194.282,181.760 197.616 C 174.067 203.424,165.249 208.142,156.415 211.175 C 153.622 212.134,151.265 212.847,151.178 212.760 C 151.090 212.673,152.385 210.414,154.056 207.741 C 160.181 197.935,166.842 182.898,169.706 172.412 L 170.880 168.111 188.480 168.109 C 198.160 168.108,206.080 168.229,206.080 168.378 " stroke="none" fill-rule="evenodd"></path></svg>