<svg fill="currentColor" viewBox="0 0 256 256" xmlns="http://www.w3.org/2000/svg"><path d="M117.547 32.628 C 79.989 36.988,48.777 62.198,36.977 97.707 C 28.976 121.783,30.671 147.252,41.789 170.027 C 51.302 189.514,66.532 204.750,85.951 214.207 C 108.805 225.337,133.979 227.019,158.293 219.041 C 193.501 207.488,219.007 176.018,223.367 138.752 C 224.235 131.327,224.182 126.950,223.198 124.782 C 222.318 122.845,220.240 120.907,218.527 120.427 C 217.900 120.251,196.733 120.107,171.489 120.107 L 125.591 120.107 123.792 121.297 C 120.655 123.373,119.380 126.643,120.332 130.176 C 120.958 132.502,123.403 135.003,125.663 135.631 C 126.845 135.959,139.492 136.103,167.360 136.104 L 207.360 136.107 207.360 137.440 C 207.360 139.860,205.281 149.093,203.716 153.625 C 189.273 195.445,144.979 217.556,102.984 203.910 C 75.514 194.983,55.291 171.908,49.387 142.751 C 48.551 138.624,48.431 136.731,48.440 127.787 C 48.449 118.303,48.534 117.151,49.597 112.188 C 56.516 79.892,80.727 55.949,113.067 49.422 C 117.371 48.553,119.205 48.431,128.000 48.431 C 136.795 48.431,138.629 48.553,142.933 49.422 C 150.380 50.925,156.563 53.058,163.627 56.562 C 173.103 61.263,181.623 67.733,187.780 74.905 C 191.476 79.211,193.547 80.419,196.711 80.115 C 200.859 79.717,203.947 76.391,203.947 72.323 C 203.947 69.515,203.179 68.095,199.367 63.852 C 184.530 47.340,164.131 36.421,141.867 33.077 C 135.378 32.103,123.899 31.891,117.547 32.628 " stroke="none" fill-rule="evenodd"></path></svg>