<svg fill="currentColor" viewBox="0 0 256 256" xmlns="http://www.w3.org/2000/svg"><path d="M26.597 49.003 C 22.460 50.432,18.751 54.089,16.928 58.537 L 16.000 60.800 16.000 128.000 L 16.000 195.200 16.928 197.463 C 18.719 201.833,22.167 205.281,26.537 207.072 C 28.780 207.992,29.078 208.001,60.364 208.125 C 79.534 208.201,92.983 208.086,94.614 207.832 C 100.192 206.963,100.999 206.352,115.086 192.314 L 128.000 179.445 140.914 192.314 C 155.001 206.352,155.808 206.963,161.386 207.832 C 163.017 208.086,176.466 208.201,195.636 208.125 C 226.922 208.001,227.220 207.992,229.463 207.072 C 233.833 205.281,237.281 201.833,239.072 197.463 L 240.000 195.200 240.000 128.000 L 240.000 60.800 239.072 58.537 C 237.249 54.089,233.540 50.432,229.403 49.003 C 227.313 48.280,222.101 48.241,128.000 48.241 C 33.899 48.241,28.687 48.280,26.597 49.003 M224.000 128.000 L 224.000 192.000 193.609 192.000 L 163.218 192.000 150.196 179.008 C 134.871 163.720,134.737 163.627,128.000 163.627 C 121.263 163.627,121.129 163.720,105.804 179.008 L 92.782 192.000 62.391 192.000 L 32.000 192.000 32.000 128.000 L 32.000 64.000 128.000 64.000 L 224.000 64.000 224.000 128.000 M75.021 96.407 C 60.330 99.102,49.883 110.109,48.262 124.599 C 46.542 139.972,55.985 154.005,71.264 158.781 C 75.862 160.218,84.138 160.218,88.736 158.781 C 101.648 154.745,110.275 144.475,111.738 131.401 C 113.459 116.016,103.644 101.491,88.678 97.275 C 85.165 96.286,78.123 95.838,75.021 96.407 M171.021 96.407 C 156.330 99.102,145.883 110.109,144.262 124.599 C 142.542 139.972,151.985 154.005,167.264 158.781 C 171.862 160.218,180.138 160.218,184.736 158.781 C 197.648 154.745,206.275 144.475,207.738 131.401 C 209.459 116.016,199.644 101.491,184.678 97.275 C 181.165 96.286,174.123 95.838,171.021 96.407 M87.135 113.829 C 98.552 119.454,98.828 136.002,87.604 141.969 C 74.577 148.894,60.200 136.444,65.066 122.453 C 66.489 118.361,69.715 115.075,74.125 113.226 C 76.220 112.347,77.160 112.211,80.438 112.310 C 83.797 112.412,84.653 112.606,87.135 113.829 M183.135 113.829 C 194.552 119.454,194.828 136.002,183.604 141.969 C 170.577 148.894,156.200 136.444,161.066 122.453 C 162.489 118.361,165.715 115.075,170.125 113.226 C 172.220 112.347,173.160 112.211,176.438 112.310 C 179.797 112.412,180.653 112.606,183.135 113.829 " stroke="none" fill-rule="evenodd"></path></svg>