<svg fill="currentColor" viewBox="0 0 256 256" xmlns="http://www.w3.org/2000/svg"><path d="M121.813 24.168 C 99.477 25.337,78.962 31.781,62.720 42.729 C 48.113 52.576,38.624 64.616,33.685 79.573 C 32.506 83.141,32.270 84.505,32.244 87.901 C 32.216 91.658,32.318 92.174,33.610 94.801 C 35.341 98.317,38.711 101.521,42.135 102.903 L 44.587 103.893 128.000 103.893 L 211.413 103.893 213.865 102.903 C 217.288 101.521,220.659 98.317,222.390 94.802 C 223.681 92.179,223.785 91.658,223.759 87.902 C 223.735 84.507,223.500 83.139,222.328 79.573 C 217.435 64.694,207.731 52.412,193.173 42.674 C 178.843 33.089,161.912 27.086,143.360 25.012 C 137.197 24.323,126.699 23.912,121.813 24.168 M144.213 41.165 C 154.603 42.724,166.717 46.445,175.111 50.655 C 188.259 57.250,198.862 67.103,204.155 77.643 C 205.740 80.801,207.787 86.361,207.787 87.512 C 207.787 87.735,174.625 87.893,127.953 87.893 L 48.118 87.893 48.415 86.315 C 49.368 81.232,54.291 72.331,59.307 66.621 C 63.945 61.340,71.638 55.547,79.463 51.443 C 90.719 45.540,102.542 42.193,118.613 40.361 C 122.405 39.929,139.564 40.468,144.213 41.165 M22.339 120.298 C 16.922 121.599,14.440 127.476,17.337 132.141 C 18.080 133.337,19.230 134.460,20.267 135.001 L 21.973 135.893 128.000 135.893 L 234.027 135.893 235.733 135.001 C 241.141 132.175,241.226 124.228,235.882 121.169 L 234.027 120.107 128.853 120.042 C 71.008 120.006,23.077 120.121,22.339 120.298 M66.560 152.209 C 65.374 152.428,24.244 167.308,21.547 168.494 C 15.218 171.277,14.952 179.749,21.097 182.834 C 22.258 183.417,23.747 183.893,24.405 183.893 C 25.064 183.893,28.801 182.741,32.710 181.333 C 36.619 179.925,39.858 178.773,39.909 178.773 C 39.960 178.773,40.100 181.605,40.221 185.067 C 40.384 189.743,40.678 192.175,41.363 194.531 C 45.691 209.403,57.196 220.054,72.320 223.192 C 75.946 223.944,79.043 223.989,128.000 223.989 C 176.957 223.989,180.054 223.944,183.680 223.192 C 196.488 220.535,206.953 212.335,212.297 200.770 C 215.033 194.847,215.552 192.222,215.843 182.836 L 216.107 174.313 226.281 170.610 C 238.134 166.297,239.454 165.398,240.401 160.996 C 241.322 156.720,237.142 151.931,232.465 151.903 C 231.488 151.897,223.020 154.766,209.824 159.573 C 198.230 163.797,188.450 167.253,188.089 167.253 C 187.729 167.253,179.102 163.877,168.917 159.751 C 154.106 153.749,149.973 152.238,148.267 152.196 C 146.434 152.151,143.452 153.216,127.089 159.761 L 108.045 167.379 89.329 159.905 C 70.976 152.577,68.714 151.812,66.560 152.209 M87.040 176.213 C 101.422 181.965,106.699 183.893,108.055 183.891 C 109.403 183.888,114.746 181.937,128.907 176.276 L 147.948 168.663 167.094 176.321 C 189.050 185.103,187.389 184.764,194.897 181.993 C 197.312 181.102,199.424 180.511,199.591 180.679 C 200.133 181.230,199.743 188.150,199.029 190.639 C 196.714 198.706,189.692 205.366,181.333 207.423 C 177.869 208.275,78.131 208.275,74.667 207.423 C 68.287 205.853,62.247 201.319,59.192 195.807 C 56.713 191.334,56.276 189.250,56.013 180.665 L 55.777 172.957 61.702 170.772 C 64.960 169.570,67.674 168.575,67.731 168.560 C 67.789 168.545,76.478 171.989,87.040 176.213 " stroke="none" fill-rule="evenodd"></path></svg>