<svg fill="currentColor" viewBox="0 0 256 256" xmlns="http://www.w3.org/2000/svg"><path d="M159.079 24.368 C 145.700 26.094,134.029 35.933,129.783 49.067 C 127.800 55.200,127.506 63.014,129.043 68.693 C 132.564 81.699,142.249 91.391,155.308 94.976 C 157.252 95.510,159.838 95.760,163.970 95.813 L 169.860 95.888 171.952 100.104 C 178.005 112.302,190.287 119.908,203.895 119.886 C 209.130 119.877,212.616 119.231,217.397 117.382 C 227.201 113.591,234.909 105.323,238.265 94.996 C 244.590 75.528,233.162 54.733,213.120 49.245 C 210.831 48.618,208.723 48.427,204.099 48.427 L 198.065 48.427 197.353 46.446 C 196.961 45.357,195.706 42.957,194.564 41.113 C 188.749 31.722,178.979 25.574,167.893 24.331 C 163.593 23.849,163.086 23.851,159.079 24.368 M169.167 40.763 C 172.549 41.644,175.540 43.429,178.215 46.163 C 180.432 48.429,183.040 52.758,183.040 54.172 C 183.040 54.586,182.240 55.478,181.262 56.155 C 178.923 57.775,175.017 62.350,172.862 65.991 C 171.104 68.963,168.539 75.900,168.527 77.716 C 168.514 79.627,168.015 79.876,164.214 79.874 C 155.914 79.868,149.628 75.869,145.968 68.267 C 144.460 65.135,144.427 64.956,144.427 59.925 C 144.427 54.803,144.433 54.769,146.101 51.391 C 150.415 42.654,159.809 38.325,169.167 40.763 M207.835 64.429 C 213.549 65.495,219.212 69.834,221.822 75.145 C 228.053 87.826,219.915 102.312,205.653 103.928 C 200.465 104.516,193.966 102.086,189.944 98.054 C 185.682 93.781,183.444 87.217,184.274 81.420 C 185.934 69.810,196.364 62.288,207.835 64.429 M82.109 113.050 C 74.266 115.107,72.630 116.320,57.692 131.162 L 44.770 144.000 28.241 144.213 L 11.712 144.427 8.865 145.829 C 5.565 147.455,2.982 150.118,1.328 153.600 L 0.213 155.947 0.089 178.959 C -0.031 201.110,-0.003 202.076,0.835 204.772 C 1.935 208.310,4.055 211.194,6.991 213.143 C 11.382 216.059,7.741 215.893,67.485 215.893 L 121.609 215.893 153.970 207.801 L 186.331 199.708 206.552 191.122 C 217.674 186.399,227.677 181.962,228.782 181.262 C 229.886 180.561,231.952 178.746,233.372 177.228 C 237.809 172.484,239.946 167.092,239.946 160.640 C 239.946 152.178,235.807 144.634,228.575 139.918 C 224.983 137.576,221.495 136.489,216.747 136.234 C 212.747 136.019,212.396 136.085,190.133 141.199 C 177.725 144.050,167.521 146.326,167.457 146.258 C 167.393 146.189,167.530 144.981,167.762 143.573 C 168.630 138.298,167.193 131.238,164.158 125.867 C 162.071 122.174,156.980 117.388,152.911 115.293 C 146.833 112.163,147.594 112.224,114.560 112.243 C 87.314 112.259,84.896 112.319,82.109 113.050 M143.621 128.630 C 146.207 129.398,148.940 131.660,150.510 134.329 C 151.539 136.080,151.680 136.757,151.676 139.947 C 151.674 142.649,151.471 143.954,150.883 145.067 C 149.784 147.143,147.307 149.659,145.280 150.756 C 143.633 151.648,142.981 151.687,126.720 151.893 C 112.077 152.079,109.699 152.200,108.587 152.815 C 102.380 156.251,102.619 164.337,109.013 167.298 C 110.583 168.024,112.081 168.089,127.630 168.097 L 144.539 168.107 179.827 159.988 C 216.405 151.572,216.514 151.552,219.307 152.979 C 221.928 154.318,224.008 157.761,223.991 160.733 C 223.978 162.957,222.669 165.637,220.911 167.040 C 220.102 167.686,210.913 171.849,200.493 176.290 L 181.547 184.367 150.084 192.237 L 118.622 200.107 87.258 200.107 L 55.893 200.107 55.893 177.804 L 55.893 155.501 68.373 143.075 C 80.791 130.713,82.492 129.308,86.073 128.464 C 86.957 128.256,99.789 128.066,114.589 128.043 C 137.175 128.007,141.840 128.101,143.621 128.630 M40.107 180.053 L 40.107 200.107 28.160 200.107 L 16.213 200.107 16.213 180.053 L 16.213 160.000 28.160 160.000 L 40.107 160.000 40.107 180.053 " stroke="none" fill-rule="evenodd"></path></svg>