<svg fill="currentColor" viewBox="0 0 256 256" xmlns="http://www.w3.org/2000/svg"><path d="M204.587 16.818 C 200.780 18.517,199.075 23.158,200.769 27.214 C 201.193 28.230,204.796 32.177,210.796 38.199 C 215.946 43.368,220.160 47.736,220.160 47.906 C 220.160 48.075,207.960 48.213,193.050 48.213 C 166.909 48.213,165.880 48.243,164.290 49.055 C 161.194 50.634,159.649 53.775,160.191 57.389 C 160.568 59.899,163.156 62.916,165.488 63.564 C 166.457 63.833,177.132 63.996,193.917 63.998 L 220.793 64.000 210.897 73.920 C 205.454 79.376,200.799 84.380,200.554 85.041 C 198.780 89.808,202.104 95.326,207.088 95.888 C 210.971 96.326,211.010 96.294,229.240 78.135 C 240.318 67.099,246.505 60.624,247.053 59.492 C 248.038 57.458,248.137 54.720,247.296 52.786 C 246.527 51.019,212.665 17.254,211.066 16.660 C 209.418 16.047,206.133 16.128,204.587 16.818 M93.105 40.968 C 83.919 43.375,76.849 49.870,73.460 59.017 L 72.326 62.080 72.109 104.960 L 71.893 147.840 69.143 143.360 C 64.663 136.060,59.792 131.881,52.836 129.370 C 50.034 128.358,49.105 128.240,43.947 128.240 C 38.789 128.240,37.860 128.358,35.057 129.370 C 30.608 130.976,27.605 132.890,24.136 136.330 C 16.288 144.112,13.856 155.975,18.003 166.243 C 19.368 169.621,48.827 219.960,50.523 221.811 C 53.795 225.382,58.994 225.345,62.170 221.729 C 63.427 220.296,64.444 217.836,64.406 216.320 C 64.364 214.697,62.362 211.060,48.236 186.947 C 39.940 172.787,32.875 160.403,32.534 159.427 C 31.760 157.209,32.034 153.544,33.165 150.987 C 34.997 146.846,39.228 144.202,43.947 144.250 C 47.183 144.283,48.747 144.785,51.279 146.601 C 52.791 147.687,54.720 150.502,62.080 162.372 C 73.917 181.461,74.141 181.787,76.160 182.921 C 79.924 185.035,84.905 183.617,86.977 179.841 C 87.617 178.675,87.699 173.461,87.893 121.813 L 88.107 65.067 89.088 63.075 C 90.237 60.743,93.255 57.817,95.492 56.866 C 98.064 55.773,102.616 55.969,105.173 57.282 C 107.813 58.637,109.765 60.636,110.900 63.147 C 111.750 65.027,111.768 65.792,111.777 100.139 C 111.784 123.997,111.937 135.911,112.256 137.399 C 112.732 139.621,114.465 142.083,116.208 143.016 C 120.135 145.118,125.359 143.375,127.184 139.356 C 127.864 137.857,127.983 136.501,127.991 130.104 C 128.002 121.201,128.432 119.270,131.075 116.267 C 133.513 113.497,136.349 112.213,139.947 112.250 C 144.961 112.301,148.436 114.392,150.555 118.632 L 151.893 121.310 151.903 133.295 C 151.911 143.964,151.997 145.468,152.689 146.990 C 153.691 149.197,156.155 151.347,158.098 151.712 C 162.010 152.445,165.328 150.860,167.047 147.436 C 167.930 145.677,168.107 144.713,168.107 141.646 C 168.107 136.673,168.941 134.364,171.753 131.552 C 173.472 129.833,174.523 129.175,176.445 128.616 C 182.266 126.924,187.920 129.374,190.780 134.827 L 191.787 136.747 191.787 160.640 C 191.787 185.442,191.692 187.180,189.835 196.383 C 188.876 201.131,187.439 205.902,185.341 211.297 C 183.754 215.381,183.693 215.794,184.339 218.120 C 185.219 221.290,188.673 223.969,191.907 223.991 C 193.633 224.002,196.134 222.991,197.476 221.740 C 200.879 218.568,205.835 201.759,207.440 187.947 C 207.818 184.691,207.988 176.063,207.993 159.787 C 208.001 133.364,208.059 133.950,204.731 127.161 C 202.264 122.128,197.869 117.734,192.839 115.271 C 188.129 112.964,185.024 112.213,180.198 112.213 C 175.521 112.213,172.637 112.752,169.204 114.268 C 167.215 115.146,166.633 115.260,166.480 114.801 C 166.373 114.480,165.523 112.693,164.590 110.829 C 161.471 104.597,154.840 99.221,147.672 97.113 C 142.443 95.575,136.075 95.807,130.590 97.735 C 129.299 98.189,128.200 98.560,128.147 98.560 C 128.094 98.560,127.984 90.448,127.902 80.533 C 127.757 63.002,127.726 62.430,126.771 59.733 C 125.040 54.846,123.256 51.991,119.681 48.391 C 116.991 45.682,115.479 44.559,112.635 43.157 C 106.436 40.101,99.418 39.314,93.105 40.968 " stroke="none" fill-rule="evenodd"></path></svg>