<svg fill="currentColor" viewBox="0 0 256 256" xmlns="http://www.w3.org/2000/svg"><path d="M98.347 32.630 C 90.114 34.156,82.249 39.187,77.652 45.869 C 75.689 48.722,73.946 52.678,72.969 56.499 C 72.494 58.357,72.028 59.954,71.935 60.047 C 71.841 60.141,70.826 59.741,69.678 59.160 C 64.933 56.755,58.315 55.659,52.513 56.316 C 39.055 57.841,28.538 67.029,24.914 80.427 C 24.162 83.208,24.107 85.251,24.107 110.080 C 24.107 133.535,24.199 137.363,24.872 141.867 C 27.615 160.223,34.305 176.334,45.279 191.014 C 49.299 196.392,59.608 206.701,64.986 210.721 C 79.686 221.710,96.000 228.476,114.133 231.105 C 121.135 232.120,134.865 232.120,141.867 231.105 C 160.000 228.476,176.314 221.710,191.014 210.721 C 196.392 206.701,206.701 196.392,210.721 191.014 C 222.951 174.654,229.768 156.858,231.671 136.320 C 232.234 130.248,232.228 111.104,231.663 107.520 C 229.697 95.064,221.788 85.774,209.479 81.461 C 206.971 80.582,205.693 80.472,195.413 80.247 L 184.107 80.000 183.868 68.907 C 183.652 58.849,183.538 57.534,182.646 54.827 C 180.111 47.129,175.845 41.482,169.432 37.333 C 156.928 29.244,140.970 30.692,130.011 40.909 L 127.968 42.813 126.171 41.075 C 121.670 36.723,115.782 33.758,109.444 32.653 C 105.029 31.883,102.411 31.877,98.347 32.630 M111.254 49.890 C 114.486 51.622,117.023 54.279,118.545 57.525 L 119.680 59.947 119.680 84.053 L 119.680 108.160 118.566 110.507 C 116.915 113.987,114.330 116.652,111.027 118.278 C 108.381 119.580,107.874 119.680,103.902 119.680 C 100.112 119.680,99.359 119.548,97.264 118.518 C 92.706 116.278,89.273 111.743,88.326 106.715 C 87.725 103.522,87.753 64.489,88.359 61.212 C 89.420 55.473,92.931 51.252,98.521 48.996 C 100.056 48.376,101.356 48.233,104.533 48.333 C 108.188 48.448,108.849 48.601,111.254 49.890 M158.910 49.672 C 163.673 52.011,166.765 56.179,167.675 61.488 C 167.936 63.010,168.087 67.698,168.018 72.107 L 167.893 80.000 151.972 80.112 L 136.051 80.224 136.185 70.085 C 136.317 60.159,136.344 59.896,137.444 57.549 C 139.366 53.451,142.715 50.423,147.134 48.788 C 148.121 48.423,150.103 48.251,152.533 48.319 C 155.781 48.410,156.765 48.619,158.910 49.672 M62.972 73.725 C 66.278 75.394,69.585 78.957,70.878 82.241 C 71.755 84.471,71.858 85.565,72.014 94.305 C 72.201 104.779,71.885 107.704,70.197 111.161 C 68.823 113.974,65.684 117.070,62.736 118.518 C 60.641 119.548,59.888 119.680,56.098 119.680 C 52.126 119.680,51.619 119.580,48.973 118.278 C 45.670 116.652,43.085 113.987,41.434 110.507 L 40.320 108.160 40.320 96.000 C 40.320 84.261,40.353 83.767,41.288 81.741 C 43.233 77.524,46.608 74.411,50.901 72.873 C 54.348 71.639,59.569 72.007,62.972 73.725 M206.592 97.568 C 210.099 99.229,212.789 101.846,214.434 105.197 L 215.680 107.733 215.664 122.667 C 215.647 139.020,215.407 141.449,212.872 150.997 C 203.842 185.013,174.504 210.630,139.296 215.246 C 109.803 219.112,79.778 207.409,60.735 184.625 C 48.834 170.386,42.067 153.926,40.307 134.941 L 40.022 131.855 42.755 133.095 C 47.365 135.185,50.490 135.840,55.893 135.848 C 59.717 135.854,61.548 135.644,64.189 134.893 C 68.886 133.559,73.691 130.950,76.949 127.964 C 78.465 126.576,79.837 125.440,80.000 125.440 C 80.163 125.440,81.535 126.576,83.051 127.964 C 93.481 137.522,110.636 138.571,122.078 130.351 C 123.224 129.527,124.306 128.866,124.481 128.882 C 124.656 128.897,125.876 130.300,127.191 131.999 C 129.223 134.624,133.136 138.105,135.613 139.491 C 136.169 139.802,135.733 140.454,133.159 143.164 C 125.643 151.076,120.956 161.655,120.096 172.643 C 119.742 177.170,120.170 178.941,122.172 181.220 C 127.229 186.980,136.064 183.048,136.097 175.022 C 136.130 167.226,140.083 158.470,146.121 152.822 C 151.649 147.651,157.718 144.995,165.745 144.234 C 168.217 144.000,170.788 143.525,171.457 143.179 C 173.096 142.331,175.289 139.771,175.603 138.339 C 175.743 137.698,175.923 136.957,176.002 136.693 C 176.302 135.693,175.269 132.441,174.212 131.055 C 172.102 128.290,170.820 128.020,159.725 128.009 C 151.045 128.001,149.522 127.896,147.138 127.145 C 143.672 126.051,140.784 123.912,138.857 121.009 C 136.365 117.257,136.107 115.780,136.107 105.307 L 136.107 95.975 169.920 96.094 L 203.733 96.213 206.592 97.568 " stroke="none" fill-rule="evenodd"></path></svg>