<svg fill="currentColor" viewBox="0 0 256 256" xmlns="http://www.w3.org/2000/svg"><path d="M101.120 16.880 C 96.562 18.066,91.781 20.840,88.311 24.311 C 82.767 29.856,80.398 35.671,79.932 44.879 C 79.660 50.244,79.625 50.402,78.759 50.120 C 73.589 48.435,71.768 48.160,66.987 48.343 C 59.020 48.648,53.636 50.950,48.243 56.357 C 45.000 59.609,43.073 62.650,41.463 67.057 L 40.320 70.187 40.194 114.133 C 40.083 152.938,40.150 158.697,40.769 163.354 C 43.424 183.344,52.299 200.946,66.836 215.054 C 76.357 224.294,86.712 230.763,98.560 234.873 C 108.949 238.478,117.157 239.871,128.000 239.871 C 147.869 239.871,165.966 233.712,181.973 221.501 C 185.793 218.588,193.406 211.048,196.683 206.933 C 206.758 194.285,213.180 179.180,215.240 163.285 C 215.756 159.309,215.893 153.422,215.893 135.300 C 215.893 109.421,215.833 108.820,212.593 102.681 C 209.446 96.718,202.224 90.889,195.840 89.160 C 190.547 87.726,183.684 87.913,178.819 89.623 C 177.520 90.080,176.402 90.453,176.335 90.453 C 176.268 90.453,176.210 83.493,176.205 74.987 C 176.196 58.963,175.978 55.850,174.535 51.180 C 171.543 41.491,162.127 33.728,151.672 32.329 C 146.033 31.574,141.399 32.385,134.986 35.250 C 134.721 35.368,134.372 34.925,134.210 34.265 C 133.569 31.664,130.750 27.417,127.577 24.269 C 123.987 20.707,119.360 18.069,114.577 16.858 C 111.385 16.049,104.268 16.061,101.120 16.880 M111.621 32.630 C 114.207 33.398,116.940 35.660,118.510 38.329 L 119.680 40.320 119.893 77.227 C 120.086 110.570,120.175 114.257,120.815 115.413 C 124.251 121.620,132.337 121.381,135.298 114.987 C 136.041 113.381,136.088 111.624,136.097 85.295 L 136.107 57.310 137.445 54.632 C 139.564 50.392,143.039 48.301,148.053 48.250 C 151.574 48.214,154.407 49.470,156.878 52.161 C 160.116 55.688,160.000 54.150,160.000 93.645 L 160.000 128.683 157.333 129.232 C 153.730 129.973,147.807 132.301,144.279 134.362 C 131.177 142.014,122.768 154.404,120.510 169.385 C 119.442 176.470,119.933 179.236,122.720 181.840 C 127.978 186.751,136.066 182.630,136.097 175.022 C 136.130 167.226,140.083 158.470,146.121 152.822 C 151.649 147.651,157.718 144.995,165.745 144.234 C 170.557 143.778,171.941 143.281,173.708 141.371 C 175.976 138.920,175.985 138.864,176.226 125.227 C 176.367 117.172,176.628 112.031,176.930 111.360 C 178.839 107.107,183.304 104.107,187.725 104.107 C 192.675 104.107,196.559 106.490,198.694 110.838 L 199.893 113.280 199.880 136.107 C 199.867 157.659,199.814 159.223,198.936 164.117 C 197.648 171.299,195.401 177.938,191.960 184.731 C 181.946 204.500,163.525 218.303,141.156 222.799 C 134.178 224.202,121.822 224.202,114.844 222.799 C 100.604 219.937,88.590 213.747,78.486 204.064 C 67.196 193.246,59.866 179.586,57.050 164.117 C 56.117 158.991,56.107 158.455,56.107 116.053 L 56.107 73.173 57.302 70.740 C 61.710 61.762,74.525 61.942,78.780 71.040 L 79.778 73.173 79.782 96.299 C 79.785 111.431,79.948 120.178,80.254 121.604 C 81.156 125.810,85.056 128.458,89.389 127.809 C 91.899 127.432,94.916 124.844,95.564 122.512 C 95.840 121.519,95.997 106.819,96.000 81.707 C 96.003 57.343,96.164 41.881,96.424 40.945 C 97.079 38.587,99.203 35.565,101.077 34.324 C 104.597 31.995,107.767 31.486,111.621 32.630 " stroke="none" fill-rule="evenodd"></path></svg>