<svg fill="currentColor" viewBox="0 0 256 256" xmlns="http://www.w3.org/2000/svg"><path d="M27.747 64.683 C 21.810 66.279,17.411 71.156,16.252 77.429 C 15.604 80.934,15.603 175.051,16.250 178.588 C 17.213 183.845,20.692 188.341,25.600 190.672 L 27.947 191.787 128.000 191.787 L 228.053 191.787 230.400 190.672 C 235.308 188.341,238.787 183.845,239.750 178.588 C 240.397 175.051,240.396 80.934,239.748 77.429 C 238.898 72.828,236.404 69.044,232.624 66.618 C 228.260 63.818,235.510 63.997,127.804 64.028 C 43.252 64.052,29.766 64.141,27.747 64.683 M224.000 128.213 L 224.000 176.213 128.000 176.213 L 32.000 176.213 32.000 128.213 L 32.000 80.213 128.000 80.213 L 224.000 80.213 224.000 128.213 M184.191 116.643 C 180.080 118.176,177.511 121.075,176.391 125.447 C 175.801 127.752,175.803 128.255,176.410 130.627 C 177.289 134.058,179.274 136.759,182.078 138.339 C 188.009 141.681,195.480 139.495,198.501 133.534 C 200.084 130.412,200.380 127.879,199.512 124.893 C 198.043 119.839,193.869 116.495,188.661 116.200 C 186.870 116.098,185.211 116.263,184.191 116.643 " stroke="none" fill-rule="evenodd"></path></svg>