<svg fill="currentColor" viewBox="0 0 256 256" xmlns="http://www.w3.org/2000/svg"><path d="M92.800 32.806 C 90.735 33.760,89.435 35.110,88.554 37.219 C 87.984 38.583,87.893 42.154,87.893 63.330 L 87.893 87.861 62.827 87.984 C 35.551 88.117,36.595 88.025,34.260 90.525 C 30.383 94.678,31.880 101.216,37.219 103.446 C 38.583 104.016,42.155 104.107,63.346 104.107 L 87.893 104.107 87.893 127.984 L 87.893 151.861 62.827 151.984 C 35.551 152.117,36.595 152.025,34.260 154.525 C 30.468 158.587,31.783 164.936,36.907 167.300 C 38.503 168.037,40.210 168.089,63.253 168.097 L 87.893 168.107 87.893 192.654 C 87.893 213.845,87.984 217.417,88.554 218.781 C 91.408 225.612,100.592 225.612,103.446 218.781 C 104.016 217.417,104.107 213.845,104.107 192.654 L 104.107 168.107 128.000 168.107 L 151.893 168.107 151.893 192.654 C 151.893 213.845,151.984 217.417,152.554 218.781 C 155.408 225.612,164.592 225.612,167.446 218.781 C 168.016 217.417,168.107 213.845,168.107 192.654 L 168.107 168.107 192.747 168.097 C 215.790 168.089,217.497 168.037,219.093 167.300 C 221.159 166.347,222.459 164.996,223.340 162.888 C 224.893 159.170,223.267 154.880,219.520 152.813 C 218.377 152.182,215.551 152.093,193.173 151.984 L 168.107 151.861 168.107 127.984 L 168.107 104.107 192.654 104.107 C 219.125 104.107,218.906 104.124,221.384 101.846 C 222.726 100.613,223.979 97.847,223.991 96.093 C 224.009 93.299,222.143 90.260,219.520 88.813 C 218.377 88.182,215.551 88.093,193.173 87.984 L 168.107 87.861 168.107 63.330 C 168.107 42.154,168.016 38.583,167.446 37.219 C 164.592 30.388,155.408 30.388,152.554 37.219 C 151.984 38.583,151.893 42.155,151.893 63.346 L 151.893 87.893 128.000 87.893 L 104.107 87.893 104.097 63.253 C 104.089 40.210,104.037 38.503,103.300 36.907 C 101.370 32.725,96.823 30.949,92.800 32.806 M151.893 128.000 L 151.893 151.893 128.000 151.893 L 104.107 151.893 104.107 128.000 L 104.107 104.107 128.000 104.107 L 151.893 104.107 151.893 128.000 " stroke="none" fill-rule="evenodd"></path></svg>