<svg fill="currentColor" viewBox="0 0 256 256" xmlns="http://www.w3.org/2000/svg"><path d="M67.413 40.303 C 67.061 40.387,65.333 40.687,63.573 40.969 C 58.784 41.735,52.809 43.763,47.765 46.332 C 29.690 55.541,18.234 72.548,16.202 93.189 C 14.833 107.095,19.681 123.012,28.631 133.993 C 32.519 138.763,122.944 230.324,124.502 231.068 C 125.276 231.438,126.574 231.848,127.386 231.980 C 131.012 232.569,129.313 234.159,178.914 183.761 C 204.363 157.903,226.051 135.680,227.108 134.377 C 233.225 126.837,237.573 117.098,239.143 107.414 C 239.969 102.324,239.965 93.312,239.136 88.483 C 235.017 64.496,216.916 45.927,192.931 41.082 C 187.928 40.071,175.761 40.080,170.880 41.098 C 162.652 42.813,154.551 46.335,148.028 51.031 C 146.149 52.384,140.955 57.007,136.486 61.305 C 132.017 65.603,128.187 69.120,127.976 69.120 C 127.765 69.120,124.372 66.000,120.436 62.187 C 112.502 54.499,109.810 52.152,106.027 49.617 C 100.562 45.956,92.958 42.755,85.931 41.158 C 83.243 40.547,69.118 39.895,67.413 40.303 M82.641 56.939 C 88.211 58.124,93.844 60.579,98.450 63.827 C 99.567 64.615,104.064 68.671,108.443 72.843 L 116.407 80.427 110.705 86.187 C 107.568 89.355,104.801 92.487,104.554 93.148 C 103.981 94.685,103.981 97.313,104.553 98.852 C 104.799 99.513,110.130 105.237,116.399 111.573 C 122.669 117.909,128.841 124.193,130.115 125.537 L 132.431 127.980 127.011 133.501 C 119.728 140.919,118.778 143.103,120.953 147.436 C 122.265 150.051,124.353 151.528,127.110 151.793 C 130.936 152.161,131.787 151.593,140.887 142.598 C 145.512 138.027,149.817 133.535,150.454 132.615 C 151.888 130.546,152.283 127.181,151.348 125.001 C 150.972 124.123,145.191 117.903,137.154 109.727 L 123.596 95.935 125.691 93.882 C 137.662 82.157,155.179 65.605,157.187 64.124 C 160.906 61.379,166.896 58.584,171.733 57.337 C 175.189 56.445,177.054 56.230,181.547 56.201 C 184.597 56.181,188.245 56.404,189.653 56.696 C 203.468 59.565,214.011 67.782,219.942 80.302 C 222.811 86.358,223.739 90.684,223.724 97.920 C 223.702 108.572,221.003 116.388,214.629 124.261 C 211.930 127.593,128.578 212.267,127.995 212.267 C 127.415 212.267,44.079 127.599,41.373 124.261 C 28.021 107.784,29.192 83.681,44.078 68.580 C 50.554 62.011,59.457 57.577,68.693 56.322 C 72.212 55.843,78.877 56.138,82.641 56.939 " stroke="none" fill-rule="evenodd"></path></svg>