<svg fill="currentColor" viewBox="0 0 256 256" xmlns="http://www.w3.org/2000/svg"><path d="M69.547 32.612 C 48.651 35.635,30.711 48.835,21.960 67.627 C 10.996 91.170,15.340 118.586,34.468 146.558 C 51.274 171.135,80.614 196.985,115.569 218.008 C 123.462 222.756,126.030 223.992,128.000 223.992 C 129.970 223.992,132.538 222.756,140.431 218.008 C 171.079 199.575,197.561 177.330,215.128 155.264 C 244.386 118.514,247.983 80.333,224.732 53.333 C 215.902 43.079,202.575 35.498,189.013 33.015 C 183.445 31.995,172.282 31.988,167.040 33.000 C 153.751 35.566,144.196 40.658,133.990 50.614 L 128.246 56.217 122.972 51.255 C 116.439 45.109,111.669 41.642,105.600 38.626 C 96.955 34.331,89.783 32.553,79.787 32.227 C 75.745 32.095,72.195 32.229,69.547 32.612 M86.507 48.858 C 96.422 50.739,103.735 54.835,111.994 63.133 L 116.680 67.842 110.841 73.707 C 107.630 76.934,104.801 80.114,104.554 80.774 C 103.913 82.495,104.002 85.110,104.764 86.935 C 105.195 87.966,109.789 92.892,118.079 101.212 L 130.736 113.914 121.739 122.984 C 113.376 131.416,112.713 132.197,112.313 134.095 C 111.013 140.273,116.369 145.344,122.322 143.571 C 124.164 143.022,125.645 141.683,136.816 130.467 C 150.452 116.775,150.610 116.557,149.991 112.362 C 149.691 110.333,149.432 110.039,136.499 97.055 L 123.312 83.816 136.430 70.766 C 143.644 63.588,150.699 56.948,152.107 56.009 C 160.747 50.249,169.137 47.928,179.927 48.312 C 187.421 48.579,191.444 49.588,198.187 52.892 C 215.987 61.616,225.743 79.553,223.606 99.627 C 222.699 108.143,220.513 115.348,216.086 124.408 C 205.709 145.646,183.639 168.760,152.747 190.745 C 142.908 197.747,129.156 206.507,128.002 206.507 C 126.423 206.507,107.162 193.844,96.213 185.607 C 60.827 158.987,39.450 132.315,33.671 107.572 C 29.773 90.888,33.237 75.485,43.577 63.514 C 50.132 55.926,60.789 50.143,71.253 48.497 C 74.108 48.048,83.395 48.268,86.507 48.858 " stroke="none" fill-rule="evenodd"></path></svg>