<svg fill="currentColor" viewBox="0 0 256 256" xmlns="http://www.w3.org/2000/svg"><path d="M72.533 32.288 C 61.345 33.420,50.693 37.402,41.706 43.814 C 37.273 46.976,30.770 53.473,27.670 57.835 C 20.363 68.120,16.270 80.522,16.077 92.965 C 16.009 97.359,16.108 98.121,16.951 99.697 C 19.350 104.186,25.189 105.339,29.055 102.086 C 31.102 100.364,31.979 98.037,31.993 94.293 C 32.018 87.663,33.885 79.428,36.589 74.027 C 41.325 64.566,48.333 57.566,57.738 52.904 C 65.209 49.200,68.722 48.438,78.293 48.444 C 86.864 48.450,89.382 48.860,95.909 51.312 C 106.629 55.338,115.029 63.196,120.123 73.964 C 121.436 76.738,122.043 77.527,123.658 78.550 C 126.399 80.289,129.599 80.290,132.337 78.553 C 133.981 77.511,134.559 76.741,136.066 73.583 C 141.091 63.058,149.451 55.308,160.091 51.312 C 166.618 48.860,169.136 48.450,177.707 48.444 C 187.278 48.438,190.791 49.200,198.262 52.904 C 206.686 57.080,212.464 62.414,217.458 70.624 C 222.594 79.069,224.633 88.379,223.646 98.881 C 222.803 107.845,220.686 114.992,216.086 124.408 C 205.709 145.646,183.639 168.760,152.747 190.745 C 142.908 197.747,129.156 206.507,128.002 206.507 C 126.641 206.507,108.618 194.809,98.773 187.536 C 86.082 178.159,76.500 169.960,66.308 159.756 C 60.303 153.743,59.199 152.821,57.492 152.391 C 53.360 151.351,49.656 153.197,48.020 157.112 C 47.189 159.102,47.182 160.882,47.998 162.835 C 49.993 167.610,70.002 186.045,86.938 198.711 C 98.734 207.534,117.421 219.690,123.947 222.785 C 125.355 223.453,127.179 223.999,128.000 223.999 C 129.889 223.999,133.150 222.450,140.160 218.223 C 167.255 201.882,192.047 181.865,208.900 162.723 C 238.475 129.130,247.324 95.188,233.804 67.200 C 220.770 40.218,191.083 26.654,161.430 34.133 C 149.614 37.113,140.441 42.466,132.080 51.260 L 128.000 55.550 123.920 51.260 C 115.555 42.462,106.365 37.101,94.570 34.138 C 87.463 32.353,78.953 31.638,72.533 32.288 M84.693 96.806 C 83.755 97.240,82.573 98.051,82.068 98.610 C 81.562 99.169,78.162 104.177,74.512 109.740 L 67.875 119.852 48.732 119.980 L 29.590 120.107 27.791 121.297 C 24.654 123.374,23.380 126.644,24.332 130.176 C 24.973 132.557,27.413 135.019,29.757 135.651 C 30.991 135.983,38.055 136.093,52.782 136.012 C 73.246 135.898,74.089 135.861,75.733 135.018 C 77.129 134.302,78.351 132.791,82.435 126.738 C 85.182 122.665,87.602 119.161,87.813 118.950 C 88.040 118.723,93.372 126.398,100.863 137.732 C 107.829 148.273,113.956 157.299,114.477 157.789 C 116.656 159.835,120.334 160.542,123.000 159.425 C 125.057 158.564,126.741 156.434,133.760 145.812 L 140.160 136.127 150.400 136.115 C 156.521 136.107,161.323 135.912,162.337 135.631 C 164.597 135.003,167.042 132.502,167.668 130.176 C 168.620 126.644,167.346 123.374,164.209 121.297 L 162.411 120.107 149.085 119.973 C 134.743 119.829,133.232 119.990,130.957 121.904 C 130.215 122.528,127.438 126.290,124.787 130.263 L 119.966 137.488 107.182 118.344 C 100.150 107.815,93.846 98.698,93.172 98.085 C 90.822 95.946,87.607 95.462,84.693 96.806 " stroke="none" fill-rule="evenodd"></path></svg>