<svg fill="currentColor" viewBox="0 0 256 256" xmlns="http://www.w3.org/2000/svg"><path d="M60.800 40.699 C 58.267 41.806,50.822 50.669,44.990 59.520 C 34.317 75.717,27.931 92.659,24.887 112.853 C 24.276 116.912,24.157 123.159,24.013 159.074 C 23.899 187.649,23.990 201.289,24.305 202.807 C 25.371 207.933,28.687 212.269,33.264 214.518 L 35.627 215.680 55.902 215.680 L 76.178 215.680 78.995 214.293 C 82.334 212.649,84.956 209.972,86.545 206.581 L 87.680 204.160 87.893 177.557 L 88.107 150.954 93.530 154.576 C 112.036 166.935,125.446 182.872,134.843 203.675 C 137.628 209.841,139.685 212.304,143.699 214.280 L 146.542 215.680 194.124 215.811 C 227.931 215.904,242.347 215.804,243.918 215.467 C 246.847 214.837,250.903 212.163,252.780 209.623 C 253.613 208.495,254.702 206.261,255.200 204.657 C 256.001 202.077,256.080 201.043,255.885 195.697 C 255.634 188.815,255.022 186.108,252.592 181.120 C 250.492 176.810,247.378 172.981,243.713 170.205 C 237.971 165.855,237.239 165.628,207.232 158.879 L 179.840 152.719 124.373 97.046 C 84.020 56.541,68.474 41.200,67.320 40.739 C 65.381 39.966,62.519 39.948,60.800 40.699 M117.334 112.880 C 146.315 141.876,170.795 166.059,171.734 166.619 C 172.998 167.372,180.645 169.256,201.174 173.869 C 219.524 177.993,229.663 180.464,231.142 181.173 C 234.045 182.565,236.864 185.416,238.371 188.485 C 239.419 190.618,239.592 191.523,239.718 195.520 L 239.862 200.107 195.336 200.107 L 150.810 200.107 148.931 195.947 C 137.923 171.576,119.889 151.461,96.745 137.738 C 80.570 128.147,63.003 122.482,43.413 120.538 L 40.533 120.252 40.533 118.686 C 40.534 113.679,43.867 98.853,46.753 91.025 C 48.897 85.209,54.049 74.825,57.196 69.973 C 60.324 65.153,63.969 60.160,64.361 60.160 C 64.515 60.160,88.353 83.884,117.334 112.880 M47.573 137.156 C 55.152 138.234,63.441 140.262,69.653 142.558 L 72.107 143.464 72.107 171.785 L 72.107 200.107 56.107 200.107 L 40.107 200.107 40.107 168.320 L 40.107 136.533 41.707 136.541 C 42.587 136.545,45.227 136.822,47.573 137.156 " stroke="none" fill-rule="evenodd"></path></svg>