<svg fill="currentColor" viewBox="0 0 256 256" xmlns="http://www.w3.org/2000/svg"><path d="M120.747 24.320 C 100.702 25.678,81.581 32.877,64.891 45.350 C 59.600 49.305,49.272 59.644,45.285 64.978 C 29.947 85.496,22.391 110.531,24.234 134.720 C 25.330 149.089,28.553 161.196,34.542 173.440 C 40.032 184.661,45.528 192.320,54.604 201.396 C 63.683 210.475,71.346 215.974,82.560 221.456 C 97.130 228.578,111.425 231.847,128.000 231.847 C 144.575 231.847,158.870 228.578,173.440 221.456 C 184.654 215.974,192.317 210.475,201.396 201.396 C 210.475 192.317,215.974 184.654,221.456 173.440 C 228.578 158.870,231.847 144.575,231.847 128.000 C 231.847 121.892,231.622 117.709,231.099 114.133 C 228.432 95.894,221.715 79.693,210.721 64.986 C 206.728 59.644,196.403 49.307,191.109 45.350 C 176.201 34.209,159.489 27.336,141.653 25.012 C 135.278 24.181,126.900 23.904,120.747 24.320 M142.080 41.156 C 179.369 47.467,207.776 75.593,214.708 113.067 C 216.045 120.292,216.046 135.404,214.711 142.746 C 211.203 162.029,202.163 178.903,188.339 191.971 C 184.975 195.151,177.104 201.387,176.455 201.387 C 176.322 201.387,176.210 190.203,176.206 176.533 C 176.198 149.558,176.072 147.801,173.872 144.048 C 171.513 140.022,166.645 136.775,162.174 136.245 L 160.015 135.990 159.901 102.586 C 159.788 69.588,159.776 69.168,158.906 68.002 C 157.143 65.642,155.134 64.391,152.702 64.141 L 150.400 63.904 124.800 76.704 C 110.720 83.744,98.777 89.960,98.260 90.518 C 96.016 92.940,96.000 93.113,96.000 115.340 L 96.000 135.988 93.834 136.244 C 89.355 136.775,84.489 140.019,82.128 144.048 C 79.928 147.801,79.802 149.558,79.794 176.533 C 79.790 190.203,79.660 201.387,79.504 201.387 C 78.755 201.387,70.568 194.787,66.830 191.168 C 44.105 169.173,35.013 136.835,42.885 106.001 C 49.828 78.801,69.558 56.525,95.963 46.072 C 101.319 43.951,110.163 41.645,115.413 40.999 C 117.525 40.739,119.829 40.448,120.533 40.352 C 123.452 39.955,138.244 40.506,142.080 41.156 M143.787 110.720 L 143.787 136.107 128.000 136.107 L 112.213 136.107 112.213 118.504 L 112.213 100.901 127.680 93.141 C 136.187 88.873,143.291 85.371,143.467 85.357 C 143.643 85.344,143.787 96.757,143.787 110.720 M160.000 180.901 L 160.000 209.909 158.400 210.587 C 155.943 211.628,147.045 213.999,142.290 214.880 C 136.186 216.011,119.814 216.011,113.710 214.880 C 108.955 213.999,100.057 211.628,97.600 210.587 L 96.000 209.909 96.000 180.901 L 96.000 151.893 128.000 151.893 L 160.000 151.893 160.000 180.901 " stroke="none" fill-rule="evenodd"></path></svg>