<svg fill="currentColor" viewBox="0 0 256 256" xmlns="http://www.w3.org/2000/svg"><path d="M76.265 32.460 C 71.774 33.528,67.661 36.951,65.540 41.387 L 64.213 44.160 64.079 54.046 L 63.944 63.932 54.052 64.073 L 44.160 64.213 41.387 65.547 C 37.849 67.248,35.219 69.876,33.540 73.387 L 32.213 76.160 32.213 144.000 L 32.213 211.840 33.407 214.400 C 34.974 217.760,38.261 221.060,41.555 222.583 L 44.160 223.787 112.000 223.787 L 179.840 223.787 182.445 222.583 C 185.739 221.060,189.026 217.760,190.593 214.400 C 191.776 211.862,191.788 211.756,191.921 201.948 L 192.056 192.056 201.948 191.921 C 211.769 191.788,211.859 191.778,214.445 190.583 C 217.739 189.060,221.026 185.760,222.593 182.400 L 223.787 179.840 223.787 112.000 L 223.787 44.160 222.583 41.555 C 221.060 38.261,217.760 34.974,214.400 33.407 L 211.840 32.213 144.853 32.146 C 106.790 32.108,77.175 32.244,76.265 32.460 M207.787 82.645 L 207.787 117.077 198.507 107.894 C 188.789 98.278,187.540 97.352,182.951 96.368 C 181.739 96.108,179.624 96.013,178.251 96.156 C 172.580 96.749,174.911 94.667,132.261 137.239 L 93.216 176.213 86.715 176.213 L 80.213 176.213 80.213 112.213 L 80.213 48.213 144.000 48.213 L 207.787 48.213 207.787 82.645 M114.909 64.641 C 96.485 68.646,89.731 91.459,103.035 104.749 C 107.997 109.706,113.260 111.907,120.099 111.884 C 138.154 111.822,149.552 92.650,141.082 76.589 C 140.340 75.182,138.485 72.773,136.960 71.236 C 131.078 65.307,122.983 62.886,114.909 64.641 M64.100 130.027 L 64.213 179.840 65.407 182.400 C 66.974 185.760,70.261 189.060,73.555 190.583 L 76.160 191.787 125.973 191.900 L 175.787 192.014 175.787 200.114 L 175.787 208.213 112.000 208.213 L 48.213 208.213 48.213 144.213 L 48.213 80.213 56.100 80.213 L 63.986 80.213 64.100 130.027 M123.644 81.021 C 125.599 82.019,126.497 82.988,127.344 85.015 C 128.204 87.075,128.160 88.993,127.204 91.097 C 124.408 97.252,116.067 97.614,113.055 91.710 C 112.058 89.756,111.940 86.241,112.815 84.565 C 113.469 83.314,115.334 81.460,116.693 80.710 C 118.073 79.949,121.877 80.119,123.644 81.021 M194.024 125.971 L 207.787 139.728 207.787 157.971 L 207.787 176.213 162.133 176.213 C 137.024 176.213,116.480 176.070,116.480 175.894 C 116.480 175.547,179.703 112.213,180.050 112.213 C 180.166 112.213,186.455 118.404,194.024 125.971 " stroke="none" fill-rule="evenodd"></path></svg>