<svg fill="currentColor" viewBox="0 0 256 256" xmlns="http://www.w3.org/2000/svg"><path d="M58.027 72.302 C 57.675 72.387,55.947 72.687,54.187 72.969 C 47.072 74.108,39.413 77.233,32.427 81.847 C 28.004 84.769,21.030 91.650,18.025 96.057 C 4.801 115.453,4.806 140.638,18.036 159.942 C 21.195 164.552,28.037 171.280,32.743 174.406 C 43.064 181.260,53.660 184.217,66.339 183.781 C 71.642 183.599,73.592 183.338,77.653 182.266 C 89.792 179.063,97.889 173.931,107.401 163.413 C 114.209 155.885,115.315 153.782,114.350 150.198 C 113.328 146.404,109.574 143.871,105.632 144.315 C 103.048 144.606,101.688 145.708,95.901 152.194 C 88.450 160.545,82.588 164.403,73.835 166.716 C 68.256 168.190,60.406 168.271,54.923 166.912 C 45.696 164.625,37.792 159.538,32.400 152.416 C 20.581 136.803,21.553 115.219,34.725 100.808 C 39.133 95.984,46.717 91.327,52.936 89.626 C 65.530 86.179,78.145 88.645,88.691 96.615 C 90.020 97.620,104.042 113.078,122.089 133.434 C 139.198 152.732,154.391 169.518,155.852 170.735 C 166.235 179.394,178.597 183.893,192.000 183.893 C 203.463 183.893,214.366 180.503,223.982 173.949 C 228.074 171.159,235.086 164.143,237.923 159.998 C 251.221 140.574,251.223 115.482,237.929 96.000 C 235.158 91.940,228.575 85.301,224.427 82.384 C 217.552 77.550,208.613 73.948,200.351 72.684 C 195.146 71.887,185.685 72.109,180.907 73.140 C 172.721 74.907,164.505 78.645,158.086 83.525 C 154.101 86.554,144.580 96.552,142.752 99.627 C 140.731 103.026,140.977 106.234,143.478 109.082 C 145.770 111.693,149.397 112.537,152.440 111.170 C 154.259 110.353,154.756 109.877,160.000 103.946 C 162.464 101.158,165.761 97.874,167.326 96.646 C 184.902 82.865,210.769 86.259,223.980 104.079 C 237.699 122.586,233.101 148.636,213.857 161.429 C 207.246 165.824,200.236 167.853,191.787 167.816 C 185.166 167.788,180.124 166.644,174.532 163.903 C 167.563 160.487,167.098 160.015,134.150 122.827 C 117.179 103.673,102.372 87.185,101.247 86.187 C 94.251 79.987,84.820 75.245,75.307 73.144 C 72.595 72.545,59.639 71.914,58.027 72.302 " stroke="none" fill-rule="evenodd"></path></svg>