<svg fill="currentColor" viewBox="0 0 256 256" xmlns="http://www.w3.org/2000/svg"><path d="M120.960 24.326 C 100.935 25.586,81.587 32.844,64.891 45.360 C 59.554 49.360,49.234 59.686,45.276 64.986 C 34.512 79.399,27.973 94.882,25.095 112.768 C 23.886 120.283,23.787 134.307,24.890 141.867 C 27.542 160.046,34.293 176.318,45.279 191.014 C 49.299 196.392,59.608 206.701,64.986 210.721 C 79.686 221.710,96.000 228.476,114.133 231.105 C 117.683 231.620,121.936 231.847,128.000 231.847 C 144.598 231.847,158.874 228.583,173.440 221.458 C 184.661 215.968,192.320 210.472,201.396 201.396 C 210.475 192.317,215.974 184.654,221.456 173.440 C 235.707 144.287,235.458 110.173,220.780 81.026 C 214.698 68.950,203.517 55.194,193.067 46.931 C 172.349 30.550,147.221 22.673,120.960 24.326 M142.080 41.152 C 159.933 44.170,175.895 52.156,188.870 64.559 C 202.597 77.682,211.532 94.696,214.904 114.133 C 215.937 120.088,215.932 135.829,214.895 141.867 C 212.390 156.454,206.990 169.066,198.207 180.843 C 173.373 214.141,127.558 225.417,90.240 207.417 C 81.119 203.017,74.345 198.338,67.182 191.490 C 53.399 178.314,44.463 161.314,41.098 141.867 C 40.060 135.867,40.060 120.133,41.098 114.133 C 46.547 82.647,66.943 57.480,96.401 45.891 C 101.417 43.918,110.346 41.621,115.413 41.001 C 117.525 40.743,119.733 40.449,120.320 40.349 C 122.762 39.932,138.241 40.503,142.080 41.152 M119.479 72.991 C 116.708 74.248,114.938 75.728,113.719 77.807 C 108.826 86.157,115.295 96.623,124.890 95.879 C 129.932 95.489,134.081 92.083,135.512 87.160 C 137.192 81.381,133.744 74.697,128.088 72.770 C 125.376 71.846,121.800 71.938,119.479 72.991 M116.693 112.688 C 115.453 113.404,113.491 115.281,112.963 116.257 C 110.620 120.583,113.121 126.366,117.887 127.640 L 119.893 128.177 119.893 148.692 C 119.893 170.416,120.004 171.840,121.986 175.693 C 123.187 178.029,126.568 181.195,129.264 182.509 C 131.262 183.483,132.191 183.662,135.285 183.670 C 138.647 183.679,139.071 183.583,140.521 182.478 C 142.482 180.984,143.205 179.893,143.698 177.686 C 144.192 175.477,143.426 172.315,142.036 170.826 C 140.822 169.526,138.192 168.107,136.995 168.107 C 136.156 168.107,136.141 167.771,136.018 146.240 L 135.893 124.373 134.539 121.514 C 132.878 118.008,130.260 115.317,126.910 113.672 C 124.861 112.666,123.717 112.404,120.960 112.311 C 118.939 112.242,117.199 112.396,116.693 112.688 " stroke="none" fill-rule="evenodd"></path></svg>