<svg fill="currentColor" viewBox="0 0 256 256" xmlns="http://www.w3.org/2000/svg"><path d="M148.740 16.850 C 131.546 19.296,115.666 27.310,103.370 39.747 C 96.376 46.822,91.710 53.433,87.692 61.961 C 81.946 74.159,79.233 88.488,80.220 101.419 C 80.724 108.029,80.799 108.497,82.449 115.335 L 83.769 120.804 54.327 150.322 C 28.898 175.816,24.817 180.079,24.389 181.596 C 23.715 183.985,23.697 223.916,24.369 226.337 C 24.988 228.566,27.500 231.043,29.757 231.651 C 30.991 231.983,38.055 232.093,52.782 232.012 C 73.385 231.897,74.078 231.866,75.733 231.001 C 76.795 230.447,77.924 229.330,78.720 228.049 L 80.000 225.989 80.143 217.138 L 80.287 208.287 89.138 208.143 L 97.989 208.000 100.049 206.720 C 103.595 204.517,103.871 203.560,104.024 192.960 L 104.154 183.893 112.891 183.893 C 119.763 183.893,121.960 183.754,123.188 183.241 C 124.067 182.874,127.035 180.329,129.984 177.413 L 135.220 172.237 140.676 173.554 C 147.393 175.174,147.885 175.254,154.275 175.774 C 169.918 177.046,187.959 172.664,201.589 164.282 C 211.133 158.413,220.317 149.565,226.546 140.240 C 232.991 130.592,237.473 118.783,239.139 107.061 C 239.949 101.358,239.949 90.642,239.139 84.939 C 237.103 70.612,231.039 56.691,221.985 45.555 C 220.700 43.975,217.456 40.574,214.776 37.997 C 204.113 27.746,190.055 20.470,175.123 17.472 C 169.094 16.262,155.182 15.934,148.740 16.850 M166.838 32.449 C 174.908 33.452,180.334 34.987,187.227 38.216 C 204.441 46.282,217.049 61.512,221.873 80.065 C 229.324 108.724,215.749 139.145,189.464 152.692 C 179.377 157.890,171.213 159.805,159.360 159.753 C 150.725 159.714,146.676 159.047,138.849 156.373 C 136.446 155.552,133.839 154.884,133.054 154.889 C 130.433 154.907,128.334 156.375,122.459 162.302 L 116.705 168.107 105.527 168.107 C 98.666 168.107,93.885 168.282,93.148 168.560 C 91.440 169.206,89.622 171.027,88.702 173.013 C 88.017 174.494,87.911 175.862,87.903 183.360 L 87.893 192.000 79.346 192.000 C 69.892 192.000,68.755 192.232,66.236 194.669 C 65.471 195.410,64.656 196.696,64.425 197.528 C 64.194 198.359,64.004 202.832,64.002 207.467 L 64.000 215.893 52.053 215.893 L 40.107 215.893 40.107 201.492 L 40.107 187.091 69.789 157.439 C 86.226 141.018,99.838 127.080,100.295 126.204 C 101.461 123.966,101.330 122.137,99.648 117.186 C 96.980 109.329,96.275 104.906,96.275 96.000 C 96.275 89.447,96.437 87.346,97.230 83.627 C 99.930 70.957,105.754 59.934,114.345 51.235 C 128.154 37.253,148.087 30.119,166.838 32.449 M176.175 64.637 C 173.751 65.416,170.501 68.217,169.305 70.559 C 168.022 73.071,167.769 77.500,168.761 80.096 C 169.800 82.818,172.752 85.878,175.465 87.044 C 177.268 87.820,178.222 87.958,180.676 87.798 C 184.367 87.557,186.594 86.487,188.929 83.834 C 194.106 77.954,192.532 69.307,185.598 65.533 C 182.882 64.055,179.104 63.696,176.175 64.637 " stroke="none" fill-rule="evenodd"></path></svg>