<svg fill="currentColor" viewBox="0 0 256 256" xmlns="http://www.w3.org/2000/svg"><path d="M120.960 24.326 C 100.935 25.586,81.587 32.844,64.891 45.360 C 59.554 49.360,49.234 59.686,45.276 64.986 C 34.512 79.399,27.973 94.882,25.095 112.768 C 23.886 120.283,23.787 134.307,24.890 141.867 C 27.542 160.046,34.293 176.318,45.279 191.014 C 49.299 196.392,59.608 206.701,64.986 210.721 C 79.686 221.710,96.000 228.476,114.133 231.105 C 117.683 231.620,121.936 231.847,128.000 231.847 C 144.598 231.847,158.874 228.583,173.440 221.458 C 184.661 215.968,192.320 210.472,201.396 201.396 C 210.475 192.317,215.974 184.654,221.456 173.440 C 235.707 144.287,235.458 110.173,220.780 81.026 C 214.698 68.950,203.517 55.194,193.067 46.931 C 172.349 30.550,147.221 22.673,120.960 24.326 M142.080 41.152 C 151.332 42.716,160.652 45.821,168.533 49.966 C 172.351 51.973,180.565 57.294,183.139 59.427 L 184.305 60.393 170.048 74.646 L 155.791 88.898 154.123 87.795 C 140.514 78.788,121.511 77.661,106.919 84.995 C 105.063 85.928,102.794 87.188,101.877 87.795 L 100.209 88.898 85.952 74.646 L 71.695 60.393 72.861 59.427 C 75.435 57.294,83.649 51.973,87.467 49.966 C 95.790 45.589,106.809 42.054,115.413 41.001 C 117.525 40.743,119.733 40.449,120.320 40.349 C 122.762 39.932,138.241 40.503,142.080 41.152 M87.562 102.256 C 82.650 109.928,80.120 118.681,80.120 128.000 C 80.120 137.318,82.650 146.072,87.561 153.743 L 88.882 155.806 74.638 170.056 L 60.393 184.305 59.427 183.139 C 57.281 180.549,51.969 172.343,49.973 168.533 C 45.789 160.546,42.751 151.418,41.098 141.867 C 40.060 135.867,40.060 120.133,41.098 114.133 C 43.658 99.341,49.065 86.761,58.026 74.747 L 60.339 71.647 74.611 85.919 L 88.884 100.192 87.562 102.256 M200.721 78.720 C 206.436 87.149,210.425 95.784,212.885 105.049 C 215.192 113.739,215.640 117.477,215.640 128.000 C 215.640 135.174,215.454 138.678,214.902 141.867 C 213.249 151.418,210.211 160.546,206.027 168.533 C 204.031 172.343,198.719 180.549,196.573 183.139 L 195.607 184.305 181.362 170.056 L 167.118 155.806 168.439 153.743 C 173.350 146.072,175.880 137.318,175.880 128.000 C 175.880 118.682,173.350 109.928,168.439 102.257 L 167.118 100.194 181.362 85.944 L 195.607 71.695 196.573 72.861 C 197.104 73.502,198.971 76.139,200.721 78.720 M136.067 97.033 C 139.655 98.016,145.011 100.769,147.978 103.155 C 155.245 108.999,160.000 118.826,160.000 128.000 C 160.000 140.482,151.738 152.844,140.277 157.508 C 124.186 164.056,106.551 157.162,99.176 141.440 C 96.768 136.306,96.222 133.824,96.222 128.000 C 96.222 122.176,96.768 119.694,99.176 114.560 C 103.641 105.042,112.395 98.292,122.699 96.423 C 125.548 95.906,133.235 96.257,136.067 97.033 M102.083 168.332 C 104.865 170.223,110.178 172.677,113.920 173.799 C 119.247 175.398,122.512 175.880,128.000 175.880 C 137.318 175.880,146.072 173.350,153.743 168.439 L 155.806 167.118 170.056 181.362 L 184.305 195.607 183.139 196.584 C 180.399 198.881,171.522 204.578,167.733 206.471 C 148.413 216.126,126.840 218.462,106.096 213.146 C 94.521 210.179,84.399 205.267,74.548 197.836 L 71.657 195.655 85.853 181.454 C 93.660 173.644,100.149 167.253,100.272 167.253 C 100.395 167.253,101.210 167.739,102.083 168.332 " stroke="none" fill-rule="evenodd"></path></svg>