<svg fill="currentColor" viewBox="0 0 256 256" xmlns="http://www.w3.org/2000/svg"><path d="M156.800 8.753 C 156.096 9.133,155.064 9.863,154.507 10.375 C 151.636 13.014,41.885 130.889,41.069 132.210 C 39.017 135.531,40.309 140.744,43.668 142.695 C 44.642 143.261,58.357 148.564,74.144 154.479 C 97.550 163.249,102.811 165.361,102.648 165.924 C 102.539 166.303,99.154 183.128,95.128 203.313 C 88.364 237.215,87.844 240.152,88.299 241.844 C 88.916 244.132,91.310 246.834,93.305 247.492 C 95.318 248.157,98.775 247.786,100.192 246.754 C 101.745 245.622,213.085 126.494,214.482 124.470 C 215.778 122.592,216.228 119.426,215.508 117.246 C 214.411 113.921,214.360 113.898,182.827 102.029 C 154.927 91.529,153.393 90.897,153.500 89.955 C 153.562 89.408,156.884 72.595,160.881 52.594 C 166.037 26.792,168.069 15.806,167.876 14.777 C 167.500 12.774,166.331 10.983,164.475 9.567 C 162.508 8.067,158.802 7.674,156.800 8.753 M141.228 68.900 C 138.411 82.973,136.107 95.199,136.107 96.069 C 136.107 98.958,137.785 101.681,140.414 103.055 C 141.023 103.373,153.119 107.979,167.294 113.289 C 181.469 118.600,193.209 123.082,193.384 123.250 C 193.558 123.419,174.845 143.779,151.800 168.494 C 128.755 193.210,109.844 213.264,109.775 213.059 C 109.707 212.854,111.955 201.172,114.772 187.100 C 117.589 173.027,119.893 160.783,119.893 159.890 C 119.893 158.997,119.634 157.645,119.317 156.886 C 118.037 153.823,117.229 153.450,89.044 142.908 C 74.339 137.407,62.304 132.791,62.300 132.649 C 62.287 132.167,146.106 42.584,146.228 42.950 C 146.295 43.150,144.045 54.828,141.228 68.900 " stroke="none" fill-rule="evenodd"></path></svg>