<svg fill="currentColor" viewBox="0 0 256 256" xmlns="http://www.w3.org/2000/svg"><path d="M123.947 16.843 C 123.243 17.171,122.265 17.788,121.773 18.213 C 119.460 20.217,25.718 121.862,25.047 123.095 C 23.273 126.352,23.859 130.005,26.565 132.560 C 27.516 133.457,35.735 137.352,52.907 145.040 C 66.635 151.187,78.034 156.381,78.239 156.582 C 78.450 156.789,75.609 169.560,71.683 186.052 C 66.338 208.507,64.804 215.584,64.966 217.026 C 65.564 222.334,71.328 225.497,76.132 223.154 C 77.421 222.526,90.262 208.918,126.080 170.226 C 152.597 141.580,174.665 117.448,175.120 116.597 C 176.942 113.193,175.483 108.269,172.095 106.384 C 170.848 105.690,143.426 93.292,122.821 84.105 L 121.269 83.413 128.278 54.187 C 133.426 32.721,135.240 24.476,135.109 23.139 C 134.874 20.754,133.112 18.151,131.003 17.075 C 129.031 16.069,125.834 15.964,123.947 16.843 M108.166 69.476 C 105.934 78.894,104.107 87.311,104.107 88.179 C 104.107 90.431,105.641 93.318,107.465 94.497 C 108.317 95.047,119.189 100.050,131.627 105.615 C 144.064 111.181,154.296 115.782,154.365 115.841 C 154.433 115.899,139.553 132.090,121.298 151.821 C 103.043 171.551,88.057 187.554,87.996 187.382 C 87.935 187.210,89.711 179.423,91.943 170.077 C 94.174 160.731,96.000 152.473,96.000 151.726 C 96.000 149.987,94.397 146.840,92.989 145.816 C 92.389 145.380,81.567 140.377,68.941 134.698 C 56.315 129.019,45.971 124.197,45.955 123.982 C 45.926 123.595,111.895 52.075,112.113 52.256 C 112.175 52.308,110.399 60.057,108.166 69.476 M192.640 136.791 C 191.936 137.176,190.907 137.899,190.352 138.399 C 189.144 139.488,152.497 212.598,152.100 214.711 C 151.270 219.137,155.328 223.960,159.907 223.991 C 161.685 224.003,164.172 222.971,165.547 221.651 C 166.133 221.088,168.914 216.010,171.726 210.367 L 176.839 200.107 195.938 200.107 L 215.037 200.107 220.117 210.240 C 226.238 222.448,227.597 224.017,232.028 223.991 C 236.790 223.962,240.869 219.062,239.832 214.613 C 239.641 213.792,231.106 196.372,220.866 175.902 C 203.185 140.559,202.159 138.625,200.499 137.526 C 198.304 136.074,194.590 135.726,192.640 136.791 M196.152 183.794 C 190.278 183.857,185.394 183.830,185.298 183.734 C 185.202 183.638,187.559 178.692,190.535 172.743 L 195.947 161.927 201.389 172.803 L 206.830 183.680 196.152 183.794 " stroke="none" fill-rule="evenodd"></path></svg>