<svg fill="currentColor" viewBox="0 0 256 256" xmlns="http://www.w3.org/2000/svg"><path d="M115.838 16.882 C 87.184 20.783,61.063 40.006,48.597 66.366 C 44.619 74.777,41.644 85.092,40.506 94.422 C 39.851 99.793,40.206 113.234,41.140 118.400 C 45.003 139.770,54.888 157.178,71.036 171.053 C 76.328 175.599,76.938 176.278,78.364 179.200 C 79.402 181.328,79.537 182.182,79.818 188.373 C 80.057 193.641,80.325 195.717,80.991 197.463 C 82.624 201.739,86.125 205.263,90.537 207.072 C 92.798 207.999,92.838 208.000,128.000 208.000 C 163.162 208.000,163.202 207.999,165.463 207.072 C 169.875 205.263,173.376 201.739,175.009 197.463 C 175.675 195.716,175.943 193.643,176.181 188.373 C 176.621 178.618,177.023 177.902,186.880 169.295 C 199.319 158.434,208.869 142.695,213.146 126.010 C 219.300 101.997,215.107 76.471,201.628 55.893 C 197.765 49.997,194.406 45.999,188.691 40.499 C 175.173 27.490,158.766 19.541,139.897 16.859 C 134.375 16.074,121.685 16.086,115.838 16.882 M140.160 33.046 C 165.961 37.568,187.444 55.848,196.017 80.577 C 205.742 108.627,196.860 140.375,173.972 159.375 C 169.455 163.124,167.920 164.732,165.441 168.312 C 161.785 173.592,160.000 179.889,160.000 187.502 L 160.000 192.000 128.055 192.000 L 96.109 192.000 95.877 186.133 C 95.611 179.428,94.968 176.627,92.568 171.733 C 90.353 167.216,87.712 164.101,82.090 159.372 C 54.236 135.948,47.937 96.677,67.099 65.920 C 74.188 54.542,83.826 45.855,96.213 39.679 C 104.519 35.538,111.029 33.550,119.893 32.448 C 124.296 31.901,135.513 32.232,140.160 33.046 M132.480 48.894 C 130.473 50.002,129.647 50.855,128.802 52.693 C 127.296 55.973,127.963 59.216,130.672 61.795 C 131.870 62.935,132.972 63.416,136.239 64.225 C 144.175 66.191,150.851 69.897,156.342 75.384 C 161.957 80.995,165.907 87.997,167.705 95.525 C 168.430 98.559,168.981 99.894,169.980 101.032 C 171.488 102.748,174.126 104.088,176.000 104.088 C 179.150 104.088,183.155 100.870,183.714 97.890 C 184.389 94.291,182.439 87.017,178.798 79.556 C 171.903 65.427,160.121 55.213,144.806 50.088 C 139.259 48.232,134.513 47.772,132.480 48.894 M84.644 224.816 C 80.625 226.641,78.882 231.865,80.984 235.792 C 81.690 237.111,84.328 239.301,85.661 239.674 C 87.184 240.100,168.816 240.100,170.339 239.674 C 171.672 239.301,174.310 237.111,175.016 235.792 C 177.118 231.865,175.375 226.641,171.356 224.816 C 169.679 224.055,167.719 224.019,128.000 224.019 C 88.281 224.019,86.321 224.055,84.644 224.816 " stroke="none" fill-rule="evenodd"></path></svg>