<svg fill="currentColor" viewBox="0 0 256 256" xmlns="http://www.w3.org/2000/svg"><path d="M170.057 24.336 C 159.561 25.526,149.830 29.520,141.440 36.083 C 137.012 39.547,105.146 71.524,104.557 73.094 C 103.532 75.828,104.496 80.217,106.515 82.010 C 108.729 83.976,112.322 84.553,115.107 83.392 C 116.175 82.946,122.484 76.981,134.400 65.150 C 149.756 49.904,152.573 47.294,155.621 45.490 C 162.427 41.461,171.319 39.289,178.773 39.835 C 205.330 41.778,222.542 67.603,214.007 92.699 C 211.228 100.869,210.377 101.932,190.850 121.600 C 179.019 133.516,173.054 139.825,172.608 140.893 C 171.447 143.678,172.024 147.271,173.990 149.485 C 176.003 151.752,180.571 152.526,183.377 151.074 C 184.248 150.624,192.848 142.320,202.490 132.621 C 220.823 114.179,222.564 112.137,226.251 104.747 C 228.183 100.874,230.167 94.914,231.102 90.171 C 232.018 85.524,232.124 75.399,231.304 70.827 C 230.559 66.669,227.887 58.514,226.125 55.019 C 218.357 39.611,203.079 28.116,186.240 25.009 C 181.707 24.172,174.242 23.862,170.057 24.336 M72.533 104.919 C 71.712 105.372,63.153 113.678,53.514 123.378 C 34.804 142.205,33.061 144.275,29.470 151.941 C 25.624 160.150,24.147 166.827,24.147 176.000 C 24.147 191.471,29.561 204.528,40.516 215.484 C 51.472 226.439,64.529 231.853,80.000 231.853 C 89.173 231.853,95.850 230.376,104.059 226.530 C 111.724 222.939,113.795 221.196,132.623 202.486 C 142.323 192.847,150.627 184.248,151.076 183.377 C 153.517 178.649,150.255 172.661,144.912 172.059 C 141.025 171.621,141.023 171.622,122.240 190.283 C 111.728 200.726,103.670 208.383,102.049 209.468 C 98.535 211.821,94.982 213.448,90.240 214.878 C 86.831 215.906,85.682 216.039,80.000 216.065 C 74.587 216.090,73.041 215.943,69.973 215.111 C 47.014 208.880,34.421 185.564,41.993 163.301 C 44.772 155.131,45.623 154.068,65.150 134.400 C 76.981 122.484,82.946 116.175,83.392 115.107 C 84.847 111.617,83.678 107.559,80.635 105.546 C 78.291 103.995,74.712 103.718,72.533 104.919 " stroke="none" fill-rule="evenodd"></path></svg>