<svg fill="currentColor" viewBox="0 0 256 256" xmlns="http://www.w3.org/2000/svg"><path d="M55.253 72.729 C 49.533 73.631,45.271 75.017,39.467 77.865 C 24.397 85.258,14.092 97.882,9.686 114.347 C 8.434 119.028,8.372 119.646,8.348 127.787 C 8.325 135.722,8.405 136.642,9.489 140.917 C 14.805 161.876,30.115 177.187,51.083 182.512 L 55.680 183.680 81.313 183.680 L 106.946 183.680 108.522 182.478 C 111.439 180.254,112.453 177.414,111.571 173.940 C 110.986 171.635,109.710 170.087,107.430 168.918 C 105.935 168.152,104.634 168.107,83.888 168.107 C 70.814 168.107,60.578 167.924,58.591 167.655 C 53.966 167.028,47.580 164.770,43.437 162.295 C 39.686 160.054,33.457 154.289,31.249 151.014 C 28.820 147.412,26.402 142.072,25.312 137.902 C 23.762 131.974,23.763 124.025,25.313 118.096 C 29.032 103.872,39.749 93.142,54.098 89.280 L 58.240 88.165 82.594 87.923 L 106.948 87.680 108.523 86.478 C 111.439 84.253,112.453 81.413,111.571 77.940 C 110.986 75.635,109.710 74.087,107.430 72.918 C 105.928 72.148,104.652 72.109,82.257 72.149 C 65.555 72.179,57.670 72.348,55.253 72.729 M148.693 72.801 C 144.744 74.921,143.225 78.699,144.621 82.929 C 145.254 84.846,148.022 87.351,149.841 87.653 C 150.618 87.782,161.717 87.948,174.507 88.023 L 197.760 88.159 201.902 89.277 C 206.115 90.414,211.500 92.871,215.014 95.259 C 217.520 96.962,223.038 102.480,224.741 104.986 C 227.161 108.547,229.593 113.909,230.688 118.098 C 231.589 121.546,231.771 123.205,231.771 128.000 C 231.771 132.795,231.589 134.454,230.688 137.902 C 229.598 142.072,227.180 147.412,224.751 151.014 C 222.543 154.289,216.314 160.054,212.563 162.295 C 208.420 164.770,202.034 167.028,197.409 167.655 C 195.422 167.924,185.186 168.107,172.112 168.107 C 151.366 168.107,150.065 168.152,148.570 168.918 C 144.748 170.878,143.230 174.713,144.614 178.908 C 145.247 180.826,147.998 183.338,149.841 183.681 C 150.618 183.825,162.389 183.874,176.000 183.790 L 200.747 183.637 205.013 182.512 C 226.294 176.903,241.416 161.602,246.660 140.373 C 247.538 136.820,247.661 135.294,247.661 128.000 C 247.661 120.706,247.538 119.180,246.660 115.627 C 241.278 93.840,225.512 78.372,203.307 73.093 C 200.735 72.482,196.824 72.365,175.147 72.248 C 152.649 72.128,149.837 72.187,148.693 72.801 " stroke="none" fill-rule="evenodd"></path></svg>