<svg fill="currentColor" viewBox="0 0 256 256" xmlns="http://www.w3.org/2000/svg"><path d="M92.792 40.701 C 91.054 41.459,88.890 44.002,88.313 45.966 C 87.999 47.035,87.885 52.001,87.974 60.800 C 88.127 76.016,88.209 76.396,91.859 78.663 C 95.736 81.071,100.925 79.707,103.001 75.733 C 103.841 74.127,103.901 73.247,104.026 60.800 C 104.115 52.001,104.001 47.035,103.687 45.966 C 103.094 43.949,100.920 41.438,99.114 40.683 C 97.382 39.959,94.475 39.968,92.792 40.701 M158.863 41.139 C 152.439 42.360,145.853 45.174,140.035 49.186 C 136.129 51.880,122.207 66.076,121.114 68.480 C 119.104 72.903,121.619 78.101,126.391 79.386 C 130.280 80.434,132.093 79.364,139.307 71.767 C 146.417 64.278,148.801 62.183,152.638 60.052 C 164.949 53.211,180.513 55.432,190.541 65.459 C 195.724 70.642,198.767 76.888,199.673 84.199 C 200.446 90.440,199.324 96.787,196.423 102.577 C 194.400 106.615,192.268 109.123,184.826 116.220 C 178.279 122.464,176.893 124.172,176.446 126.553 C 175.374 132.266,181.965 137.398,187.427 135.103 C 188.934 134.470,201.233 122.950,204.507 119.105 C 212.544 109.667,216.799 96.035,215.494 83.910 C 213.262 63.181,199.487 47.139,179.285 41.743 C 175.024 40.605,163.470 40.263,158.863 41.139 M47.147 88.089 C 46.912 88.175,46.196 88.361,45.554 88.502 C 43.991 88.847,41.395 91.183,40.683 92.886 C 39.375 96.017,40.220 99.581,42.809 101.854 C 45.311 104.051,46.315 104.172,60.800 104.026 C 76.016 103.873,76.396 103.791,78.663 100.141 C 81.061 96.279,79.832 91.430,75.882 89.169 L 74.027 88.107 60.800 88.020 C 53.525 87.972,47.381 88.003,47.147 88.089 M68.480 121.137 C 66.697 121.970,55.483 132.382,51.644 136.768 C 47.244 141.795,43.771 148.473,41.892 155.520 C 35.391 179.900,49.115 205.220,73.173 213.233 C 78.575 215.032,82.590 215.644,88.747 215.604 C 94.817 215.565,98.842 214.836,104.865 212.683 C 113.249 209.687,117.773 206.322,128.372 195.200 C 134.353 188.924,135.369 187.657,135.913 185.797 C 136.469 183.893,136.467 183.399,135.893 181.464 C 135.220 179.198,133.216 176.980,131.125 176.185 C 127.974 174.987,124.057 176.304,121.147 179.541 C 116.343 184.885,108.318 192.701,106.035 194.262 C 96.535 200.754,83.772 201.439,73.387 196.014 C 65.866 192.085,59.892 184.707,57.526 176.427 C 56.757 173.733,56.550 171.933,56.545 167.893 C 56.537 160.625,57.887 155.935,61.645 150.187 C 63.238 147.750,71.135 139.569,76.223 135.086 C 79.075 132.572,80.211 129.452,79.386 126.391 C 78.098 121.607,72.866 119.086,68.480 121.137 M182.339 152.287 C 176.903 153.638,174.440 159.476,177.337 164.141 C 179.604 167.791,179.984 167.873,195.200 168.026 C 209.685 168.172,210.689 168.051,213.191 165.854 C 216.586 162.873,216.874 157.942,213.840 154.735 C 211.360 152.114,211.357 152.114,196.907 152.030 C 189.632 151.988,183.077 152.103,182.339 152.287 M155.679 177.436 C 152.207 179.638,152.126 180.025,151.974 195.200 C 151.828 209.685,151.949 210.689,154.146 213.191 C 157.363 216.854,162.637 216.854,165.854 213.191 C 168.051 210.689,168.172 209.685,168.026 195.200 C 167.874 180.025,167.793 179.638,164.321 177.436 C 162.789 176.465,161.901 176.213,160.000 176.213 C 158.099 176.213,157.211 176.465,155.679 177.436 " stroke="none" fill-rule="evenodd"></path></svg>