<svg fill="currentColor" viewBox="0 0 256 256" xmlns="http://www.w3.org/2000/svg"><path d="M44.479 36.870 C 35.532 41.348,34.442 42.009,33.385 43.607 C 31.699 46.154,31.712 49.864,33.415 52.438 C 35.773 56.002,40.056 56.825,44.732 54.613 C 46.219 53.909,47.508 53.333,47.596 53.333 C 47.684 53.333,47.811 65.189,47.878 79.680 C 47.988 103.523,48.069 106.152,48.725 107.350 C 49.689 109.111,52.214 111.286,53.661 111.603 C 54.302 111.743,55.043 111.923,55.307 112.002 C 56.308 112.302,59.559 111.269,60.949 110.209 C 61.744 109.602,62.759 108.282,63.205 107.274 C 63.982 105.518,64.010 104.046,63.901 71.313 C 63.788 37.581,63.776 37.168,62.906 36.002 C 61.143 33.641,59.134 32.391,56.702 32.142 C 54.439 31.909,54.233 31.989,44.479 36.870 M103.040 56.099 C 102.805 56.180,102.100 56.358,101.473 56.496 C 98.768 57.090,96.019 60.872,96.019 64.000 C 96.019 65.829,97.242 68.583,98.616 69.846 C 101.207 72.228,97.910 72.107,160.000 72.107 C 222.090 72.107,218.793 72.228,221.384 69.846 C 222.726 68.613,223.979 65.847,223.991 64.093 C 224.009 61.299,222.143 58.260,219.520 56.813 C 218.349 56.167,213.363 56.100,160.853 56.030 C 129.291 55.987,103.275 56.019,103.040 56.099 M103.040 120.099 C 102.805 120.180,102.100 120.358,101.473 120.496 C 98.768 121.090,96.019 124.872,96.019 128.000 C 96.019 129.829,97.242 132.583,98.616 133.846 C 101.207 136.228,97.910 136.107,160.000 136.107 C 222.090 136.107,218.793 136.228,221.384 133.846 C 222.726 132.613,223.979 129.847,223.991 128.093 C 224.009 125.299,222.143 122.260,219.520 120.813 C 218.349 120.167,213.363 120.100,160.853 120.030 C 129.291 119.987,103.275 120.019,103.040 120.099 M49.750 136.787 C 42.581 138.521,36.573 143.391,33.402 150.035 C 31.138 154.781,31.504 158.255,34.558 161.014 C 36.385 162.665,38.306 163.204,41.197 162.879 C 43.884 162.576,45.828 160.923,47.503 157.519 C 48.632 155.225,49.304 154.424,50.970 153.394 C 56.178 150.174,63.220 153.372,63.883 159.258 C 64.007 160.355,63.841 161.688,63.470 162.575 C 63.130 163.391,56.172 172.985,48.009 183.896 C 39.845 194.806,32.884 204.400,32.538 205.214 C 31.066 208.684,32.889 213.301,36.401 215.002 C 38.265 215.904,38.613 215.918,56.622 215.800 L 74.947 215.680 76.522 214.478 C 79.439 212.253,80.453 209.413,79.571 205.940 C 78.986 203.635,77.710 202.087,75.430 200.918 C 74.026 200.198,72.859 200.107,65.084 200.107 C 60.264 200.107,56.320 199.983,56.320 199.831 C 56.320 199.680,60.832 193.529,66.347 186.164 C 71.861 178.798,76.837 171.858,77.402 170.741 C 80.823 163.990,80.822 156.305,77.398 149.377 C 74.438 143.388,68.011 138.322,61.396 136.763 C 58.029 135.969,53.088 135.979,49.750 136.787 M103.040 184.099 C 102.805 184.180,102.100 184.358,101.473 184.496 C 98.768 185.090,96.019 188.872,96.019 192.000 C 96.019 193.829,97.242 196.583,98.616 197.846 C 101.207 200.228,97.910 200.107,160.000 200.107 C 222.090 200.107,218.793 200.228,221.384 197.846 C 222.726 196.613,223.979 193.847,223.991 192.093 C 224.009 189.299,222.143 186.260,219.520 184.813 C 218.349 184.167,213.363 184.100,160.853 184.030 C 129.291 183.987,103.275 184.019,103.040 184.099 " stroke="none" fill-rule="evenodd"></path></svg>