<svg fill="currentColor" viewBox="0 0 256 256" xmlns="http://www.w3.org/2000/svg"><path d="M101.973 24.372 C 76.032 27.355,53.032 41.465,38.301 63.434 C 35.226 68.020,30.424 77.759,28.639 83.029 C 25.410 92.564,23.893 101.801,23.893 111.926 C 23.893 122.314,25.163 130.144,28.436 139.947 C 32.759 152.892,39.468 163.726,49.401 173.807 C 64.614 189.244,83.522 197.957,105.726 199.762 C 126.228 201.429,148.922 194.647,165.222 181.982 L 168.285 179.601 194.116 205.395 C 217.354 228.600,220.133 231.238,221.808 231.677 C 227.905 233.277,233.277 227.905,231.677 221.808 C 231.238 220.133,228.600 217.354,205.396 194.117 L 179.603 168.287 181.596 165.743 C 193.973 149.956,200.990 127.849,199.919 108.025 C 198.368 79.304,183.981 54.031,160.213 38.272 C 151.619 32.574,139.165 27.457,129.432 25.624 C 120.331 23.911,110.058 23.442,101.973 24.372 M124.698 41.153 C 154.533 46.664,177.243 69.439,182.904 99.526 C 183.942 105.045,183.942 118.955,182.904 124.474 C 180.790 135.709,176.374 145.944,169.748 154.968 C 166.269 159.705,158.569 167.233,153.592 170.762 C 145.915 176.206,135.850 180.543,126.080 182.616 C 120.547 183.791,109.293 184.221,103.401 183.483 C 79.227 180.457,58.503 165.752,47.550 143.854 C 39.636 128.031,37.947 109.042,42.922 91.835 C 47.780 75.033,59.023 60.232,74.027 50.886 C 82.740 45.458,92.358 42.055,103.253 40.544 C 107.348 39.977,120.323 40.345,124.698 41.153 " stroke="none" fill-rule="evenodd"></path></svg>