<svg fill="currentColor" viewBox="0 0 256 256" xmlns="http://www.w3.org/2000/svg"><path d="M101.973 24.372 C 76.032 27.355,53.032 41.465,38.301 63.434 C 35.226 68.020,30.424 77.759,28.639 83.029 C 25.410 92.564,23.893 101.801,23.893 111.926 C 23.893 122.314,25.163 130.144,28.436 139.947 C 32.759 152.892,39.468 163.726,49.401 173.807 C 64.614 189.244,83.522 197.957,105.726 199.762 C 126.228 201.429,148.922 194.647,165.222 181.982 L 168.285 179.601 194.116 205.395 C 217.354 228.600,220.133 231.238,221.808 231.677 C 227.905 233.277,233.277 227.905,231.677 221.808 C 231.238 220.133,228.600 217.354,205.396 194.117 L 179.603 168.287 181.596 165.743 C 193.973 149.956,200.990 127.849,199.919 108.025 C 198.368 79.304,183.981 54.031,160.213 38.272 C 151.619 32.574,139.165 27.457,129.432 25.624 C 120.331 23.911,110.058 23.442,101.973 24.372 M124.698 41.153 C 154.533 46.664,177.243 69.439,182.904 99.526 C 183.942 105.045,183.942 118.955,182.904 124.474 C 180.790 135.709,176.374 145.944,169.748 154.968 C 166.269 159.705,158.569 167.233,153.592 170.762 C 145.915 176.206,135.850 180.543,126.080 182.616 C 120.547 183.791,109.293 184.221,103.401 183.483 C 79.227 180.457,58.503 165.752,47.550 143.854 C 39.636 128.031,37.947 109.042,42.922 91.835 C 47.780 75.033,59.023 60.232,74.027 50.886 C 82.740 45.458,92.358 42.055,103.253 40.544 C 107.348 39.977,120.323 40.345,124.698 41.153 M108.813 72.782 C 106.863 73.628,105.895 74.542,104.915 76.463 C 104.174 77.914,104.107 79.132,104.107 91.076 L 104.107 104.107 91.293 104.107 C 77.832 104.107,76.627 104.254,74.530 106.150 C 71.400 108.980,71.400 115.020,74.530 117.850 C 76.627 119.746,77.832 119.893,91.293 119.893 L 104.107 119.893 104.107 132.924 C 104.107 144.868,104.174 146.086,104.915 147.537 C 105.913 149.492,106.882 150.390,108.909 151.237 C 110.907 152.072,113.093 152.072,115.091 151.237 C 117.207 150.353,118.159 149.443,119.091 147.413 C 119.796 145.878,119.876 144.408,119.884 132.800 L 119.893 119.893 132.800 119.884 C 144.408 119.876,145.878 119.796,147.413 119.091 C 149.443 118.159,150.353 117.207,151.237 115.091 C 152.072 113.093,152.072 110.907,151.237 108.909 C 150.353 106.793,149.443 105.841,147.413 104.909 C 145.878 104.204,144.408 104.124,132.800 104.116 L 119.893 104.107 119.884 91.200 C 119.876 79.592,119.796 78.122,119.091 76.587 C 118.159 74.557,117.207 73.647,115.091 72.763 C 113.125 71.941,110.735 71.949,108.813 72.782 " stroke="none" fill-rule="evenodd"></path></svg>