<svg fill="currentColor" viewBox="0 0 256 256" xmlns="http://www.w3.org/2000/svg"><path d="M137.600 24.307 C 120.059 25.635,103.244 32.219,89.660 43.077 C 87.398 44.886,76.907 55.085,66.347 65.742 C 16.500 116.048,18.882 113.580,17.723 116.112 C 16.157 119.532,15.644 122.770,16.196 125.760 C 17.116 130.756,17.618 131.365,35.502 149.173 C 51.218 164.822,52.427 165.927,54.827 166.831 C 59.929 168.753,66.235 167.834,70.348 164.569 C 71.297 163.816,85.148 149.760,101.128 133.333 C 117.108 116.907,131.268 102.430,132.593 101.163 C 133.948 99.868,136.226 98.282,137.795 97.541 C 140.256 96.379,141.016 96.226,144.213 96.249 C 150.636 96.296,155.323 99.074,158.326 104.613 C 159.726 107.194,159.787 107.494,159.787 111.796 C 159.787 119.789,162.102 117.053,124.881 153.037 C 107.236 170.095,92.080 184.996,91.199 186.150 C 87.500 190.998,87.272 198.665,90.672 203.916 C 92.054 206.051,123.174 236.901,125.091 238.037 C 127.507 239.468,132.048 240.274,134.995 239.794 C 139.820 239.009,141.455 237.883,150.294 229.266 C 188.740 191.781,208.789 172.003,210.773 169.604 C 220.882 157.379,227.244 144.076,230.363 128.640 C 234.428 108.527,230.776 86.102,220.518 68.180 C 210.399 50.502,193.820 36.500,174.507 29.321 C 163.856 25.363,149.467 23.407,137.600 24.307 M157.125 41.152 C 184.433 46.206,206.399 66.405,213.526 93.013 C 217.094 106.337,216.512 122.765,212.023 135.486 C 209.333 143.106,205.699 149.903,200.917 156.257 C 198.779 159.097,169.688 188.482,168.592 188.907 C 168.441 188.966,161.942 182.630,154.152 174.827 L 139.987 160.640 153.912 147.200 C 161.570 139.808,168.666 132.634,169.680 131.257 C 173.918 125.503,175.967 119.148,175.955 111.787 C 175.946 106.057,175.246 102.981,172.802 97.920 C 168.955 89.955,162.105 84.202,153.173 81.433 C 150.520 80.611,149.026 80.441,144.427 80.439 C 138.089 80.437,135.097 81.067,130.299 83.412 C 125.543 85.737,123.131 87.881,109.032 102.316 C 101.768 109.754,95.719 115.888,95.591 115.947 C 95.462 116.006,88.975 109.670,81.176 101.867 L 66.996 87.680 82.245 72.429 C 100.717 53.955,103.160 51.960,113.280 47.093 C 120.386 43.676,128.295 41.390,136.533 40.373 C 139.834 39.966,153.512 40.483,157.125 41.152 M70.163 113.470 L 84.214 127.526 82.132 129.790 C 80.987 131.035,75.693 136.492,70.367 141.918 L 60.684 151.782 46.343 137.436 L 32.001 123.090 43.840 111.252 C 50.351 104.741,55.776 99.413,55.895 99.413 C 56.014 99.413,62.435 105.739,70.163 113.470 M142.836 186.143 L 157.028 200.339 144.931 212.135 L 132.834 223.932 118.516 209.566 L 104.198 195.200 116.206 183.590 C 122.810 177.205,128.310 171.973,128.429 171.964 C 128.548 171.954,135.031 178.335,142.836 186.143 " stroke="none" fill-rule="evenodd"></path></svg>