<svg fill="currentColor" viewBox="0 0 256 256" xmlns="http://www.w3.org/2000/svg"><path d="M117.161 16.699 C 103.924 18.398,89.862 23.681,78.933 31.064 C 57.355 45.639,43.541 68.523,40.511 94.713 C 39.867 100.278,40.214 113.713,41.155 119.680 C 45.162 145.080,57.370 170.275,77.686 195.069 C 89.225 209.151,103.403 223.009,117.547 234.029 C 124.987 239.826,126.401 240.482,129.808 239.716 C 134.328 238.701,155.734 220.270,168.173 206.684 C 195.107 177.265,210.199 149.131,214.845 119.680 C 215.783 113.737,216.132 100.284,215.494 94.713 C 212.487 68.470,198.545 45.474,176.810 30.909 C 165.658 23.435,151.884 18.345,138.251 16.660 C 134.000 16.135,121.378 16.158,117.161 16.699 M135.183 32.434 C 144.283 33.393,152.105 35.665,160.213 39.706 C 173.731 46.442,185.119 57.764,191.960 71.269 C 197.501 82.209,199.738 91.565,199.761 103.893 C 199.782 115.228,198.140 124.947,194.310 136.154 C 185.874 160.839,167.569 186.591,141.440 210.531 C 136.791 214.791,128.400 221.867,127.998 221.867 C 127.474 221.867,116.382 212.308,110.933 207.161 C 84.010 181.731,65.639 153.525,59.102 127.582 C 54.873 110.799,55.179 94.432,59.983 80.577 C 66.069 63.024,79.298 47.922,95.787 39.706 C 108.233 33.503,121.713 31.015,135.183 32.434 M123.093 64.273 C 119.328 64.869,114.365 66.296,111.576 67.585 C 98.927 73.429,90.255 85.055,88.355 98.715 C 87.730 103.206,87.774 105.869,88.543 110.279 C 90.070 119.034,93.646 126.069,99.621 132.073 C 107.369 139.857,117.096 143.916,128.000 143.916 C 143.497 143.916,157.036 135.429,163.844 121.446 C 166.869 115.232,167.850 110.848,167.818 103.680 C 167.790 97.236,167.055 93.674,164.572 87.930 C 159.836 76.974,149.356 68.101,137.813 65.274 C 134.266 64.406,125.864 63.834,123.093 64.273 M134.169 80.867 C 138.091 81.888,141.591 83.968,144.896 87.240 C 152.453 94.723,154.060 105.726,149.005 115.369 C 145.052 122.911,136.589 128.000,128.000 128.000 C 124.303 128.000,121.400 127.280,117.401 125.371 C 107.743 120.759,102.353 109.635,104.575 98.901 C 106.266 90.729,113.523 83.073,121.648 80.888 C 124.715 80.063,131.042 80.052,134.169 80.867 " stroke="none" fill-rule="evenodd"></path></svg>