<svg fill="currentColor" viewBox="0 0 256 256" xmlns="http://www.w3.org/2000/svg"><path d="M122.027 24.345 C 78.855 26.794,41.869 55.565,28.819 96.853 C 27.159 102.104,25.761 108.280,24.907 114.133 C 23.878 121.184,23.871 135.334,24.892 142.080 C 26.464 152.462,29.789 163.602,33.871 172.160 L 36.110 176.853 30.129 194.773 C 24.407 211.921,24.150 212.840,24.161 216.107 C 24.193 225.035,30.965 231.807,39.893 231.839 C 43.161 231.850,44.075 231.594,61.260 225.855 L 79.214 219.860 81.740 221.140 C 90.921 225.790,102.686 229.409,114.133 231.104 C 121.152 232.143,135.270 232.146,142.080 231.109 C 177.417 225.729,206.589 204.442,221.696 173.013 C 228.594 158.660,231.838 144.353,231.853 128.213 C 231.866 114.005,229.635 102.292,224.401 89.087 C 212.843 59.927,186.994 36.682,156.607 28.121 C 150.330 26.353,141.547 24.789,136.401 24.523 C 134.010 24.399,130.997 24.241,129.707 24.170 C 128.416 24.100,124.960 24.179,122.027 24.345 M137.021 40.559 C 159.577 42.866,180.667 54.028,195.248 71.375 C 205.492 83.563,212.099 97.937,214.902 114.133 C 215.940 120.133,215.940 135.867,214.902 141.867 C 211.552 161.227,202.711 178.093,188.952 191.374 C 175.826 204.044,160.209 211.746,140.800 215.123 C 138.808 215.470,133.976 215.680,128.000 215.680 C 118.272 215.680,115.865 215.440,108.161 213.699 C 101.920 212.289,95.809 210.064,88.314 206.471 C 84.334 204.563,80.714 203.095,79.994 203.097 C 79.293 203.099,70.091 205.974,59.545 209.486 C 48.998 212.998,40.315 215.817,40.249 215.751 C 40.183 215.685,43.012 207.002,46.537 196.455 C 51.789 180.740,52.912 176.953,52.765 175.467 C 52.656 174.370,51.575 171.676,50.025 168.641 C 45.401 159.585,42.751 151.596,41.084 141.691 C 40.038 135.476,40.047 120.243,41.101 114.133 C 46.839 80.847,69.583 54.441,101.333 44.201 C 112.106 40.727,125.402 39.370,137.021 40.559 M108.800 104.779 C 106.910 105.588,74.089 138.241,72.931 140.463 C 71.432 143.342,72.181 147.767,74.515 149.815 C 76.992 151.990,80.763 152.514,83.537 151.069 C 84.408 150.616,91.167 144.184,98.558 136.776 L 111.995 123.307 125.651 136.919 C 133.162 144.405,139.921 150.837,140.672 151.212 C 142.528 152.138,145.608 152.074,147.537 151.069 C 149.496 150.049,182.272 117.212,183.212 115.328 C 184.569 112.609,183.731 108.194,181.470 106.150 C 180.234 105.032,177.700 104.106,175.907 104.116 C 172.734 104.134,171.285 105.319,157.442 119.210 L 144.005 132.693 130.349 119.055 C 121.185 109.903,116.172 105.202,115.107 104.762 C 113.123 103.942,110.740 103.949,108.800 104.779 " stroke="none" fill-rule="evenodd"></path></svg>