<svg fill="currentColor" viewBox="0 0 256 256" xmlns="http://www.w3.org/2000/svg"><path d="M66.347 49.046 C 51.615 52.921,38.165 67.395,28.662 89.600 C 14.060 123.720,11.900 162.950,23.365 185.813 C 26.667 192.398,32.048 198.602,37.547 202.164 C 44.817 206.873,56.461 209.117,64.640 207.386 C 79.802 204.177,93.550 190.676,110.289 162.560 C 116.426 152.251,117.760 149.579,117.760 147.593 C 117.760 145.718,116.847 143.193,115.717 141.944 C 113.718 139.733,109.429 138.874,106.546 140.107 C 104.442 141.008,103.282 142.546,98.782 150.400 C 84.857 174.704,73.064 188.164,63.021 191.214 C 60.596 191.951,59.401 192.071,56.582 191.865 C 42.302 190.817,34.129 178.827,32.357 156.327 C 31.562 146.222,32.663 132.922,35.267 121.173 C 40.967 95.458,53.006 73.712,65.493 66.573 C 73.886 61.776,81.866 63.930,91.520 73.599 C 100.478 82.570,109.431 96.301,124.489 124.160 C 137.855 148.888,141.783 155.976,146.241 163.413 C 161.946 189.611,174.670 202.558,188.816 206.733 C 195.713 208.769,204.747 208.182,212.480 205.196 C 220.666 202.034,228.073 194.912,232.635 185.813 C 244.089 162.972,241.935 123.798,227.348 89.650 C 218.427 68.765,205.639 54.335,191.961 49.721 C 187.411 48.186,180.255 47.777,175.518 48.781 C 164.758 51.062,154.094 59.300,143.380 73.606 C 139.020 79.427,138.320 81.165,139.121 84.176 C 140.417 89.050,145.257 91.633,149.651 89.797 C 151.806 88.897,152.313 88.379,156.502 82.802 C 160.819 77.056,167.281 70.429,170.876 68.061 C 174.259 65.833,177.947 64.382,180.906 64.114 C 195.850 62.759,213.339 87.815,220.733 121.173 C 227.552 151.936,223.042 180.166,209.970 188.555 C 205.054 191.709,198.161 192.788,192.979 191.214 C 183.420 188.311,173.293 177.189,159.894 154.880 C 155.734 147.954,152.533 142.171,136.751 113.067 C 126.026 93.290,117.772 80.006,110.487 70.797 C 106.291 65.493,99.917 59.075,95.787 55.993 C 91.797 53.016,85.881 50.095,81.745 49.059 C 77.328 47.952,70.526 47.947,66.347 49.046 " stroke="none" fill-rule="evenodd"></path></svg>