<svg fill="currentColor" viewBox="0 0 256 256" xmlns="http://www.w3.org/2000/svg"><path d="M108.265 32.463 C 103.784 33.519,99.662 36.949,97.540 41.387 L 96.213 44.160 96.078 54.066 L 95.944 63.973 65.989 64.093 L 36.034 64.213 33.197 65.610 C 29.683 67.341,26.479 70.713,25.097 74.135 L 24.107 76.587 24.107 128.000 L 24.107 179.413 25.097 181.865 C 26.479 185.287,29.683 188.659,33.197 190.390 L 36.033 191.787 54.070 191.911 L 72.107 192.035 72.107 201.336 C 72.107 211.777,72.367 213.259,74.857 217.009 C 76.802 219.939,79.689 222.066,83.200 223.154 C 85.937 224.003,86.841 224.013,152.969 223.900 L 219.965 223.787 222.802 222.390 C 226.317 220.659,229.521 217.288,230.903 213.865 L 231.893 211.413 231.893 164.053 L 231.893 116.693 230.867 114.144 C 229.555 110.887,226.297 107.411,222.933 105.682 C 220.497 104.428,220.080 104.356,214.293 104.188 L 208.213 104.012 208.213 75.978 C 208.213 57.577,208.054 47.079,207.748 45.429 C 206.898 40.828,204.404 37.044,200.624 34.618 C 196.428 31.926,197.759 31.996,151.697 32.043 C 128.690 32.066,109.146 32.256,108.265 32.463 M192.000 86.737 L 192.000 125.261 172.053 139.658 L 152.107 154.054 151.893 114.894 L 151.680 75.733 150.434 73.197 C 148.789 69.846,146.099 67.229,142.592 65.568 L 139.733 64.213 125.973 64.080 L 112.213 63.946 112.213 56.080 L 112.213 48.213 152.107 48.213 L 192.000 48.213 192.000 86.737 M136.002 128.107 L 135.893 176.000 88.000 176.109 L 40.107 176.217 40.107 128.215 L 40.107 80.213 88.109 80.213 L 136.110 80.213 136.002 128.107 M81.920 96.608 C 75.290 98.010,70.175 100.823,65.263 105.770 C 62.255 108.799,61.271 110.148,59.631 113.493 C 56.859 119.148,56.160 122.069,56.160 128.000 C 56.160 133.925,56.857 136.844,59.626 142.507 C 61.300 145.932,62.206 147.157,65.470 150.417 C 69.735 154.675,73.542 156.969,79.360 158.787 C 83.505 160.082,91.672 160.183,96.000 158.993 C 104.752 156.588,112.537 150.318,116.486 142.494 C 118.949 137.615,119.680 134.299,119.680 128.000 C 119.680 121.701,118.949 118.385,116.486 113.506 C 112.571 105.750,104.662 99.344,96.213 97.087 C 92.617 96.126,85.351 95.882,81.920 96.608 M94.910 113.672 C 104.820 118.538,106.968 131.561,99.151 139.378 C 95.477 143.052,90.000 144.664,84.844 143.589 C 79.733 142.523,75.724 139.315,73.455 134.475 C 72.476 132.385,72.320 131.498,72.320 128.000 C 72.320 124.512,72.477 123.612,73.444 121.549 C 75.366 117.451,78.715 114.423,83.134 112.788 C 84.121 112.423,86.103 112.251,88.533 112.319 C 91.781 112.410,92.765 112.619,94.910 113.672 M215.893 164.053 C 215.893 183.883,215.834 200.107,215.762 200.107 C 215.340 200.107,166.296 164.405,166.247 164.062 C 166.191 163.673,214.868 128.125,215.573 128.039 C 215.749 128.017,215.893 144.224,215.893 164.053 M175.686 190.933 C 188.392 200.085,198.797 207.718,198.808 207.895 C 198.818 208.072,173.915 208.168,143.467 208.108 L 88.107 208.000 87.991 200.000 L 87.875 192.000 113.012 192.000 C 136.983 192.000,138.276 191.960,140.862 191.145 C 147.394 189.084,151.893 183.040,151.893 176.323 C 151.893 175.050,152.049 174.073,152.238 174.151 C 152.428 174.229,162.979 181.781,175.686 190.933 " stroke="none" fill-rule="evenodd"></path></svg>