<svg fill="currentColor" viewBox="0 0 256 256" xmlns="http://www.w3.org/2000/svg"><path d="M128.873 16.699 C 120.134 18.148,110.655 23.801,104.971 30.954 C 100.275 36.863,97.459 43.361,96.399 50.731 C 95.897 54.218,96.044 61.732,96.643 63.240 C 96.916 63.928,95.069 63.980,66.484 64.093 L 36.034 64.213 33.197 65.610 C 29.683 67.341,26.479 70.713,25.097 74.135 L 24.107 76.587 24.107 128.000 L 24.107 179.413 25.097 181.865 C 26.479 185.287,29.683 188.659,33.197 190.390 L 36.034 191.787 56.310 191.910 L 76.587 192.034 78.363 195.774 C 90.865 222.094,120.312 236.550,149.250 230.573 C 168.113 226.677,185.369 213.125,193.643 195.710 C 195.341 192.136,195.895 191.573,197.715 191.573 C 199.684 191.573,205.577 189.744,209.280 187.982 C 220.050 182.860,227.687 173.426,230.941 161.223 C 231.888 157.672,231.893 157.473,231.893 123.733 L 231.893 89.813 230.875 87.561 C 229.623 84.790,226.431 81.821,223.708 80.893 C 222.342 80.427,220.179 80.213,216.834 80.213 C 211.284 80.213,211.615 80.635,213.544 76.023 C 216.166 69.755,216.599 61.163,214.612 54.827 C 209.065 37.134,190.379 27.764,173.082 34.001 C 171.478 34.580,170.122 34.991,170.069 34.913 C 167.179 30.670,162.256 25.577,158.720 23.173 C 156.208 21.465,151.375 19.038,148.693 18.137 C 143.312 16.330,134.815 15.714,128.873 16.699 M143.391 33.247 C 144.933 33.727,147.345 34.864,148.751 35.773 C 161.460 43.987,163.675 61.096,153.482 72.312 L 151.195 74.829 150.180 72.732 C 148.767 69.813,145.960 67.163,142.592 65.568 L 139.733 64.213 126.507 64.000 L 113.280 63.787 112.781 61.867 C 112.154 59.454,112.093 52.882,112.674 50.347 C 114.569 42.085,122.226 34.544,130.678 32.616 C 134.124 31.830,139.742 32.109,143.391 33.247 M190.846 49.645 C 197.190 52.749,200.877 59.915,199.644 66.746 C 198.400 73.641,193.234 78.644,186.164 79.802 C 183.521 80.234,168.107 80.379,168.107 79.972 C 168.107 79.839,168.566 79.119,169.127 78.372 C 173.460 72.602,176.342 61.952,176.074 52.703 L 176.000 50.152 178.347 49.171 C 180.328 48.343,181.294 48.211,184.557 48.324 C 187.745 48.435,188.845 48.666,190.846 49.645 M136.002 128.107 L 135.893 176.000 88.000 176.109 L 40.107 176.217 40.107 128.215 L 40.107 80.213 88.109 80.213 L 136.110 80.213 136.002 128.107 M68.903 96.796 C 63.592 99.208,62.418 105.748,66.582 109.719 C 68.542 111.589,70.946 112.213,76.181 112.213 L 79.787 112.213 79.787 131.819 C 79.787 144.416,79.954 152.204,80.254 153.604 C 81.156 157.810,85.056 160.458,89.389 159.809 C 91.899 159.432,94.916 156.844,95.564 154.512 C 95.827 153.567,95.996 145.008,95.998 132.639 L 96.000 112.319 101.013 112.130 C 104.521 111.999,106.424 111.733,107.350 111.246 C 109.091 110.331,111.283 107.801,111.603 106.339 C 111.743 105.698,111.923 104.957,112.002 104.693 C 112.302 103.693,111.269 100.441,110.212 99.055 C 107.922 96.054,107.669 96.019,88.107 96.019 C 72.097 96.019,70.468 96.085,68.903 96.796 M183.795 135.787 L 183.664 175.573 182.508 179.792 C 176.758 200.785,159.110 214.992,137.813 215.774 C 122.892 216.322,109.624 210.626,99.918 199.506 C 97.771 197.046,94.720 192.785,94.720 192.248 C 94.720 192.111,104.492 192.000,116.435 192.000 C 136.981 192.000,138.296 191.954,140.862 191.145 C 144.328 190.051,147.216 187.912,149.143 185.009 C 152.024 180.670,151.893 182.944,151.893 137.319 L 151.893 96.000 167.910 96.000 L 183.926 96.000 183.795 135.787 M215.893 125.419 C 215.893 145.107,215.739 155.586,215.425 157.099 C 215.168 158.343,214.278 160.800,213.447 162.560 C 211.494 166.697,206.710 171.562,202.776 173.409 C 201.313 174.097,200.066 174.577,200.005 174.476 C 199.944 174.376,199.947 156.677,200.013 135.147 L 200.132 96.000 208.013 96.000 L 215.893 96.000 215.893 125.419 " stroke="none" fill-rule="evenodd"></path></svg>