<svg fill="currentColor" viewBox="0 0 256 256" xmlns="http://www.w3.org/2000/svg"><path d="M69.091 24.320 C 65.035 25.015,60.839 27.856,58.512 31.483 C 56.166 35.138,55.893 37.196,55.893 51.255 L 55.893 63.931 45.963 64.072 L 36.032 64.213 33.196 65.610 C 29.683 67.341,26.478 70.714,25.097 74.135 L 24.107 76.587 24.107 128.000 L 24.107 179.413 25.097 181.865 C 26.478 185.286,29.683 188.659,33.196 190.390 L 36.031 191.787 45.936 191.921 L 55.840 192.056 55.993 205.788 C 56.163 221.120,56.231 221.535,59.220 225.493 C 60.106 226.667,61.880 228.343,63.162 229.218 C 67.679 232.302,63.182 232.133,136.996 232.007 L 203.307 231.893 205.957 230.776 C 210.321 228.937,213.551 225.566,215.057 221.279 C 215.877 218.947,215.893 217.174,215.893 128.000 C 215.893 38.826,215.877 37.053,215.057 34.721 C 213.550 30.430,210.072 26.880,205.569 25.034 L 203.307 24.107 137.173 24.046 C 100.800 24.013,70.163 24.136,69.091 24.320 M128.000 52.053 L 128.000 64.000 100.053 64.000 L 72.107 64.000 72.107 52.053 L 72.107 40.107 100.053 40.107 L 128.000 40.107 128.000 52.053 M200.107 64.000 L 200.107 87.893 180.094 87.893 L 160.082 87.893 159.930 82.027 C 159.792 76.676,159.674 75.935,158.588 73.600 C 156.326 68.737,151.306 64.895,146.313 64.209 L 144.213 63.920 144.213 52.013 L 144.213 40.107 172.160 40.107 L 200.107 40.107 200.107 64.000 M143.787 128.213 L 143.787 176.213 91.947 176.213 L 40.107 176.213 40.107 128.213 L 40.107 80.213 91.947 80.213 L 143.787 80.213 143.787 128.213 M69.333 96.513 C 65.223 97.943,62.967 102.941,64.632 106.927 C 64.980 107.759,68.932 112.840,73.414 118.220 L 81.564 128.000 73.414 137.780 C 68.932 143.160,64.980 148.241,64.632 149.073 C 62.495 154.187,66.523 160.000,72.202 160.000 C 75.351 160.000,76.573 158.961,84.318 149.698 C 88.411 144.804,91.897 140.811,92.066 140.824 C 92.235 140.837,95.614 144.768,99.576 149.559 C 107.675 159.356,108.831 160.270,112.657 159.902 C 117.121 159.473,120.179 155.775,119.805 151.258 C 119.580 148.553,119.842 148.929,109.764 136.853 L 102.374 128.000 109.764 119.147 C 119.842 107.071,119.580 107.447,119.805 104.742 C 120.178 100.240,117.253 96.680,112.743 96.146 C 108.859 95.686,107.751 96.552,99.576 106.441 C 95.614 111.232,92.235 115.163,92.066 115.176 C 91.897 115.189,88.411 111.196,84.318 106.302 C 78.227 99.018,76.559 97.276,75.123 96.702 C 73.156 95.914,71.233 95.852,69.333 96.513 M200.107 128.000 L 200.107 151.893 180.053 151.893 L 160.000 151.893 160.000 128.000 L 160.000 104.107 180.053 104.107 L 200.107 104.107 200.107 128.000 M200.107 192.000 L 200.107 215.893 172.160 215.893 L 144.213 215.893 144.213 204.002 L 144.213 192.110 146.240 191.841 C 151.185 191.185,156.334 187.248,158.588 182.400 C 159.674 180.065,159.792 179.324,159.930 173.973 L 160.082 168.107 180.094 168.107 L 200.107 168.107 200.107 192.000 M128.000 203.947 L 128.000 215.893 100.053 215.893 L 72.107 215.893 72.107 203.947 L 72.107 192.000 100.053 192.000 L 128.000 192.000 128.000 203.947 " stroke="none" fill-rule="evenodd"></path></svg>