<svg fill="currentColor" viewBox="0 0 256 256" xmlns="http://www.w3.org/2000/svg"><path d="M42.084 40.781 C 33.527 42.861,26.396 50.339,24.518 59.202 C 23.594 63.561,23.610 176.287,24.535 180.693 C 26.520 190.146,33.854 197.480,43.307 199.465 C 47.800 200.408,208.200 200.408,212.693 199.465 C 219.855 197.961,226.192 193.150,229.268 186.880 C 232.269 180.765,232.137 184.050,232.009 118.492 L 231.893 59.520 230.761 56.421 C 228.695 50.768,225.195 46.507,220.066 43.401 C 214.502 40.031,223.122 40.329,128.853 40.246 C 57.165 40.183,44.213 40.263,42.084 40.781 M211.413 56.815 C 213.105 57.752,214.877 59.658,215.440 61.148 C 215.752 61.975,215.893 80.285,215.893 119.935 C 215.893 170.792,215.817 177.704,215.237 179.091 C 214.353 181.207,213.443 182.159,211.413 183.091 C 209.776 183.843,206.383 183.875,128.000 183.875 C 49.617 183.875,46.224 183.843,44.587 183.091 C 42.557 182.159,41.647 181.207,40.763 179.091 C 40.183 177.704,40.107 170.788,40.107 119.893 C 40.107 72.458,40.209 62.022,40.683 60.886 C 41.395 59.183,43.991 56.847,45.554 56.502 C 46.196 56.361,46.912 56.180,47.147 56.100 C 47.381 56.020,84.149 55.989,128.853 56.031 C 203.713 56.101,210.234 56.163,211.413 56.815 M93.979 216.302 C 91.046 217.012,88.705 219.593,88.109 222.773 C 87.437 226.351,90.134 230.651,93.663 231.631 C 96.039 232.290,159.961 232.290,162.337 231.631 C 164.597 231.003,167.042 228.502,167.668 226.176 C 168.620 222.643,167.345 219.374,164.208 217.297 L 162.410 216.107 128.885 216.037 C 110.446 215.999,94.739 216.119,93.979 216.302 " stroke="none" fill-rule="evenodd"></path></svg>