<svg fill="currentColor" viewBox="0 0 256 256" xmlns="http://www.w3.org/2000/svg"><path d="M123.679 17.436 C 121.380 18.894,120.353 20.826,119.890 24.564 C 119.433 28.244,118.070 30.786,114.560 34.501 C 110.569 38.726,106.533 41.818,93.786 50.418 C 81.048 59.012,75.099 63.387,69.033 68.624 C 50.820 84.348,41.185 102.695,40.245 123.443 L 39.978 129.340 38.879 129.064 C 31.720 127.267,25.412 128.089,19.426 131.597 C 16.371 133.387,12.779 137.236,10.999 140.627 C 8.028 146.286,8.107 145.238,8.107 179.307 C 8.107 208.538,8.144 210.027,8.915 211.537 C 9.913 213.492,10.882 214.390,12.909 215.237 C 14.277 215.809,18.800 215.893,48.000 215.893 C 83.783 215.893,83.175 215.926,85.468 213.851 C 87.660 211.867,87.665 211.822,87.893 192.213 C 88.127 172.152,88.057 172.695,90.735 170.160 C 93.689 167.366,98.311 167.366,101.265 170.160 C 103.943 172.695,103.873 172.152,104.107 192.213 C 104.335 211.822,104.340 211.867,106.532 213.851 C 108.707 215.820,109.482 215.893,128.000 215.893 C 146.518 215.893,147.293 215.820,149.468 213.851 C 151.660 211.867,151.665 211.822,151.893 192.213 C 152.127 172.152,152.057 172.695,154.735 170.160 C 157.689 167.366,162.311 167.366,165.265 170.160 C 167.943 172.695,167.873 172.152,168.107 192.213 C 168.335 211.822,168.340 211.867,170.532 213.851 C 172.826 215.928,172.205 215.894,208.093 215.884 C 239.892 215.875,241.801 215.832,243.447 215.084 C 245.477 214.162,246.858 212.561,247.491 210.396 C 247.794 209.357,247.899 198.690,247.811 177.707 L 247.680 146.560 246.505 143.626 C 242.022 132.425,230.189 125.952,219.093 128.631 C 217.685 128.971,216.418 129.256,216.277 129.265 C 216.135 129.273,215.900 126.640,215.754 123.413 C 214.817 102.744,205.147 84.319,187.023 68.672 C 180.901 63.387,174.981 59.031,162.214 50.418 C 149.467 41.818,145.431 38.726,141.440 34.501 C 137.930 30.786,136.567 28.244,136.110 24.564 C 135.647 20.826,134.620 18.894,132.321 17.436 C 129.609 15.716,126.391 15.716,123.679 17.436 M131.211 46.953 C 135.449 51.234,141.179 55.592,153.387 63.816 C 168.844 74.229,174.251 78.323,180.621 84.439 C 190.342 93.770,197.647 106.955,199.080 117.755 L 199.363 119.893 128.055 119.893 L 56.747 119.893 56.747 118.660 C 56.747 114.926,60.321 104.849,63.631 99.254 C 70.694 87.312,79.119 79.609,101.973 64.198 C 115.216 55.269,119.340 52.172,123.947 47.699 C 126.059 45.648,127.888 43.964,128.011 43.958 C 128.135 43.952,129.575 45.300,131.211 46.953 M200.107 168.107 L 200.107 200.107 192.000 200.107 L 183.893 200.107 183.893 186.408 C 183.893 175.292,183.766 172.216,183.217 170.088 C 181.205 162.291,175.110 155.827,167.253 153.160 C 163.337 151.831,156.663 151.831,152.747 153.160 C 144.890 155.827,138.795 162.291,136.783 170.088 C 136.234 172.216,136.107 175.292,136.107 186.408 L 136.107 200.107 128.000 200.107 L 119.893 200.107 119.893 186.408 C 119.893 175.292,119.766 172.216,119.217 170.088 C 117.205 162.291,111.110 155.827,103.253 153.160 C 101.088 152.425,99.497 152.219,96.000 152.219 C 92.503 152.219,90.912 152.425,88.747 153.160 C 80.890 155.827,74.795 162.291,72.783 170.088 C 72.234 172.216,72.107 175.292,72.107 186.408 L 72.107 200.107 64.000 200.107 L 55.893 200.107 55.893 168.107 L 55.893 136.107 128.000 136.107 L 200.107 136.107 200.107 168.107 M35.930 145.169 C 36.936 145.734,38.092 146.910,38.762 148.049 L 39.893 149.973 40.016 175.040 L 40.139 200.107 32.000 200.107 L 23.861 200.107 23.984 175.040 L 24.107 149.973 25.164 148.126 C 27.301 144.394,32.171 143.056,35.930 145.169 M227.930 145.169 C 228.936 145.734,230.092 146.910,230.762 148.049 L 231.893 149.973 232.016 175.040 L 232.139 200.107 224.000 200.107 L 215.861 200.107 215.984 175.040 L 216.107 149.973 217.164 148.126 C 219.301 144.394,224.171 143.056,227.930 145.169 " stroke="none" fill-rule="evenodd"></path></svg>