<svg fill="currentColor" viewBox="0 0 256 256" xmlns="http://www.w3.org/2000/svg"><path d="M160.640 24.314 C 154.241 25.094,148.875 27.739,144.205 32.414 C 128.952 47.684,136.155 73.538,157.227 79.156 C 162.883 80.664,171.240 79.750,176.594 77.036 C 181.658 74.470,186.378 69.611,189.048 64.213 C 194.903 52.377,191.566 37.888,181.170 30.009 C 175.175 25.465,167.854 23.434,160.640 24.314 M169.368 41.445 C 173.608 43.564,175.699 47.039,175.750 52.053 C 175.842 61.045,166.223 66.781,158.292 62.465 C 152.690 59.416,150.513 52.555,153.325 46.808 C 155.444 42.476,159.112 40.205,164.092 40.140 C 166.193 40.113,167.203 40.363,169.368 41.445 M84.367 64.437 C 80.243 65.478,76.995 67.847,74.509 71.625 C 73.485 73.181,56.366 102.096,36.465 135.882 C -3.226 203.267,-1.035 199.138,0.754 203.183 C 1.733 205.394,3.732 207.072,6.187 207.742 C 8.606 208.403,247.394 208.403,249.813 207.742 C 252.268 207.072,254.267 205.394,255.246 203.183 C 257.024 199.161,258.472 201.956,227.674 149.958 C 209.252 118.856,199.018 101.983,197.843 100.777 C 196.859 99.767,194.809 98.327,193.289 97.577 C 190.798 96.348,190.144 96.213,186.676 96.213 C 183.355 96.213,182.478 96.377,180.285 97.404 C 176.977 98.953,175.241 100.305,173.720 102.519 C 173.039 103.510,166.864 113.824,159.997 125.440 C 153.130 137.056,147.276 146.815,146.988 147.126 C 146.566 147.582,142.087 140.255,123.902 109.366 C 109.644 85.146,100.646 70.290,99.455 69.002 C 95.902 65.163,89.347 63.180,84.367 64.437 M99.794 100.053 L 111.355 119.680 88.250 119.790 C 75.542 119.851,65.055 119.811,64.945 119.701 C 64.763 119.519,69.730 110.947,83.085 88.393 C 85.771 83.857,88.028 80.209,88.101 80.286 C 88.174 80.364,93.436 89.259,99.794 100.053 M209.809 151.253 C 222.470 172.608,233.056 190.512,233.336 191.040 L 233.843 192.000 203.215 191.999 L 172.587 191.998 164.611 178.453 C 160.224 171.002,156.511 164.580,156.360 164.180 C 156.092 163.475,158.105 159.977,179.722 123.591 C 183.463 117.293,186.584 112.205,186.657 112.284 C 186.731 112.362,197.149 129.899,209.809 151.253 M137.448 163.947 L 153.853 191.787 88.164 191.895 C 52.034 191.954,22.409 191.938,22.329 191.858 C 22.209 191.738,52.470 140.099,54.437 137.067 L 55.060 136.107 88.051 136.107 L 121.042 136.107 137.448 163.947 " stroke="none" fill-rule="evenodd"></path></svg>