<svg fill="currentColor" viewBox="0 0 256 256" xmlns="http://www.w3.org/2000/svg"><path d="M100.693 17.075 C 77.783 21.131,58.468 37.918,51.231 60.065 C 49.561 65.175,48.743 69.279,48.223 75.153 C 47.650 81.628,47.650 174.372,48.223 180.847 C 49.629 196.737,55.747 209.962,66.844 221.106 C 77.861 232.168,91.248 238.369,107.153 239.777 C 113.429 240.333,142.571 240.333,148.847 239.777 C 164.752 238.369,178.139 232.168,189.156 221.106 C 200.253 209.962,206.371 196.737,207.777 180.847 C 208.350 174.372,208.350 81.628,207.777 75.153 C 206.982 66.171,205.036 59.184,201.166 51.413 C 193.333 35.685,178.543 23.347,161.802 18.574 C 154.079 16.372,151.748 16.214,127.573 16.250 C 107.727 16.279,104.663 16.373,100.693 17.075 M151.169 32.636 C 169.505 35.399,184.871 48.835,190.018 66.603 C 191.938 73.230,191.998 75.096,191.996 128.427 C 191.995 170.853,191.894 179.660,191.364 183.169 C 188.275 203.669,172.427 219.730,151.729 223.340 C 146.201 224.303,109.799 224.303,104.271 223.340 C 91.673 221.143,81.038 214.603,73.423 204.372 C 68.793 198.152,65.808 190.949,64.636 183.169 C 63.697 176.944,63.697 79.056,64.636 72.831 C 67.731 52.296,84.040 35.838,104.442 32.662 C 110.007 31.795,145.463 31.775,151.169 32.636 M125.979 56.299 C 124.155 56.745,121.781 58.592,120.853 60.289 C 120.170 61.537,120.096 63.822,119.976 87.040 C 119.886 104.625,119.990 112.921,120.315 114.034 C 120.905 116.049,123.078 118.561,124.886 119.317 C 126.650 120.054,129.350 120.054,131.114 119.317 C 132.922 118.561,135.095 116.049,135.685 114.034 C 136.010 112.921,136.114 104.625,136.024 87.040 C 135.897 62.346,135.869 61.613,135.020 60.166 C 133.268 57.184,129.303 55.488,125.979 56.299 " stroke="none" fill-rule="evenodd"></path></svg>