<svg fill="currentColor" viewBox="0 0 256 256" xmlns="http://www.w3.org/2000/svg"><path d="M100.693 17.075 C 77.783 21.131,58.468 37.918,51.231 60.065 C 49.561 65.175,48.743 69.279,48.223 75.153 C 47.650 81.628,47.650 174.372,48.223 180.847 C 49.629 196.737,55.747 209.962,66.844 221.106 C 77.861 232.168,91.248 238.369,107.153 239.777 C 113.429 240.333,142.571 240.333,148.847 239.777 C 164.752 238.369,178.139 232.168,189.156 221.106 C 200.253 209.962,206.371 196.737,207.777 180.847 C 208.350 174.372,208.350 81.628,207.777 75.153 C 206.982 66.171,205.036 59.184,201.166 51.413 C 193.333 35.685,178.543 23.347,161.802 18.574 C 154.079 16.372,151.748 16.214,127.573 16.250 C 107.727 16.279,104.663 16.373,100.693 17.075 M119.893 68.053 L 119.893 104.107 91.947 104.107 L 64.000 104.107 64.003 90.560 C 64.005 75.365,64.424 71.162,66.571 64.751 C 72.196 47.962,87.059 35.368,104.442 32.662 C 106.487 32.343,110.800 32.064,114.027 32.041 L 119.893 32.000 119.893 68.053 M151.169 32.636 C 169.505 35.399,184.871 48.835,190.018 66.603 C 191.620 72.134,191.997 76.776,191.999 90.987 L 192.000 104.107 164.053 104.107 L 136.107 104.107 136.107 68.053 L 136.107 32.000 141.547 32.003 C 144.539 32.004,148.869 32.289,151.169 32.636 M191.997 149.440 C 191.995 181.976,191.873 183.952,189.429 191.249 C 184.705 205.348,173.387 216.693,159.358 221.392 C 152.113 223.819,149.937 224.000,128.000 224.000 C 106.122 224.000,103.875 223.815,96.754 221.430 C 82.567 216.676,71.324 205.434,66.571 191.249 C 64.127 183.952,64.005 181.976,64.003 149.440 L 64.000 119.893 128.000 119.893 L 192.000 119.893 191.997 149.440 " stroke="none" fill-rule="evenodd"></path></svg>