<svg fill="currentColor" viewBox="0 0 256 256" xmlns="http://www.w3.org/2000/svg"><path d="M124.782 32.802 C 122.678 33.758,120.928 35.757,120.339 37.880 C 120.046 38.933,119.897 57.738,119.896 93.788 L 119.893 148.110 117.433 146.177 C 112.222 142.083,104.969 138.695,97.935 137.069 C 95.776 136.570,92.896 136.378,87.680 136.386 C 81.224 136.396,79.966 136.520,76.229 137.517 C 58.776 142.172,46.012 155.095,41.274 172.909 C 40.471 175.930,40.341 177.512,40.359 184.107 C 40.378 191.090,40.485 192.174,41.538 196.053 C 42.964 201.310,46.528 208.716,49.545 212.693 C 67.677 236.596,102.252 238.618,122.809 216.977 C 127.835 211.685,131.522 205.417,133.736 198.402 C 136.077 190.979,136.101 190.407,136.104 142.780 L 136.107 98.894 137.280 99.186 C 137.925 99.347,153.762 104.071,172.472 109.686 C 192.676 115.748,207.193 119.893,208.222 119.893 C 210.081 119.893,212.686 118.772,213.815 117.485 C 215.943 115.061,215.893 115.767,215.893 88.114 C 215.893 67.370,215.780 61.994,215.317 60.886 C 214.307 58.469,212.025 56.905,207.476 55.512 C 180.040 47.108,128.845 32.002,127.825 32.009 C 127.100 32.015,125.731 32.371,124.782 32.802 M167.421 60.190 C 183.873 65.123,197.957 69.358,198.720 69.600 L 200.107 70.040 200.107 85.630 C 200.107 101.125,200.101 101.218,199.234 100.991 C 198.754 100.866,184.356 96.571,167.239 91.448 L 136.116 82.133 136.111 66.408 C 136.107 51.995,136.165 50.704,136.808 50.951 C 137.193 51.099,150.969 55.256,167.421 60.190 M96.336 153.217 C 106.377 155.746,115.292 164.247,118.433 174.290 C 120.835 181.971,120.202 190.554,116.702 197.760 C 113.321 204.719,108.588 209.454,101.760 212.706 C 96.398 215.260,92.391 216.064,86.444 215.781 C 58.858 214.469,45.926 180.993,65.459 161.459 C 73.572 153.346,84.872 150.330,96.336 153.217 " stroke="none" fill-rule="evenodd"></path></svg>