<svg fill="currentColor" viewBox="0 0 256 256" xmlns="http://www.w3.org/2000/svg"><path d="M44.025 32.666 C 40.898 33.508,38.330 35.104,36.083 37.604 C 33.345 40.650,32.244 43.708,32.266 48.213 L 32.284 51.840 65.240 140.587 C 83.366 189.397,98.552 230.143,98.988 231.133 C 100.105 233.671,103.260 236.882,105.911 238.181 C 113.676 241.983,122.793 239.423,126.989 232.263 C 127.578 231.258,133.416 213.015,140.097 191.297 L 152.143 152.143 191.297 140.097 C 213.191 133.361,231.255 127.580,232.275 126.982 C 237.542 123.896,240.880 116.754,239.789 110.907 C 238.819 105.711,235.447 101.099,231.109 99.035 C 228.137 97.621,54.143 33.207,51.627 32.590 C 48.698 31.870,46.916 31.889,44.025 32.666 M134.899 80.223 C 182.379 97.829,221.786 112.457,222.469 112.730 C 223.588 113.178,223.630 113.262,222.896 113.573 C 222.447 113.764,205.184 119.108,184.533 125.450 C 163.883 131.791,145.990 137.464,144.772 138.055 C 141.967 139.418,138.638 143.033,137.466 145.991 C 136.970 147.243,131.557 164.587,125.436 184.533 C 119.316 204.480,114.093 221.472,113.829 222.293 L 113.350 223.787 112.736 222.293 C 111.898 220.256,48.213 48.610,48.213 48.389 C 48.213 48.293,48.294 48.213,48.392 48.213 C 48.491 48.213,87.419 62.618,134.899 80.223 " stroke="none" fill-rule="evenodd"></path></svg>