<svg fill="currentColor" viewBox="0 0 256 256" xmlns="http://www.w3.org/2000/svg"><path d="M51.134 48.806 C 46.777 50.367,43.371 53.441,41.444 57.549 L 40.320 59.947 40.107 123.093 C 39.912 180.804,39.833 186.350,39.187 187.520 C 37.763 190.102,34.718 192.000,32.000 192.000 C 29.282 192.000,26.237 190.102,24.813 187.520 C 24.170 186.355,24.087 181.672,23.893 135.613 L 23.680 84.986 22.370 83.346 C 20.687 81.240,18.645 80.215,16.134 80.214 C 13.658 80.213,12.094 80.784,10.507 82.267 C 7.979 84.632,8.107 81.740,8.107 136.499 C 8.107 171.366,8.251 187.533,8.575 189.099 C 10.298 197.423,17.044 204.504,25.836 207.217 C 28.264 207.966,32.309 208.000,119.680 208.000 C 195.001 208.000,211.398 207.899,213.333 207.423 C 220.125 205.752,226.378 200.848,229.308 194.897 C 232.267 188.884,232.133 192.459,232.007 122.981 L 231.893 60.373 230.539 57.514 C 228.878 54.008,226.260 51.317,222.910 49.672 L 220.373 48.427 136.533 48.337 C 68.323 48.264,52.403 48.352,51.134 48.806 M215.791 125.365 L 215.680 186.729 214.535 188.460 C 213.845 189.502,212.646 190.550,211.520 191.095 L 209.651 192.000 132.171 192.000 L 54.691 192.000 55.287 189.760 C 55.784 187.891,55.884 177.282,55.888 125.760 L 55.893 64.000 135.898 64.000 L 215.902 64.000 215.791 125.365 M92.800 104.711 C 90.241 105.854,87.882 109.410,87.903 112.093 C 87.924 114.787,90.543 118.455,93.148 119.440 C 93.967 119.749,107.595 119.890,136.028 119.884 C 175.557 119.875,177.795 119.834,179.413 119.091 C 181.443 118.159,182.353 117.207,183.237 115.091 C 184.072 113.093,184.072 110.907,183.237 108.909 C 182.353 106.793,181.443 105.841,179.413 104.909 C 177.794 104.165,175.573 104.126,135.893 104.133 C 101.893 104.139,93.841 104.247,92.800 104.711 M92.800 136.711 C 90.241 137.854,87.882 141.410,87.903 144.093 C 87.924 146.787,90.543 150.455,93.148 151.440 C 93.967 151.749,107.595 151.890,136.028 151.884 C 175.557 151.875,177.795 151.834,179.413 151.091 C 181.443 150.159,182.353 149.207,183.237 147.091 C 184.072 145.093,184.072 142.907,183.237 140.909 C 182.353 138.793,181.443 137.841,179.413 136.909 C 177.794 136.165,175.573 136.126,135.893 136.133 C 101.893 136.139,93.841 136.247,92.800 136.711 " stroke="none" fill-rule="evenodd"></path></svg>