<svg fill="currentColor" viewBox="0 0 256 256" xmlns="http://www.w3.org/2000/svg"><path d="M188.800 32.820 C 186.357 33.966,33.567 186.894,32.655 189.106 C 31.027 193.051,32.853 197.429,36.907 199.300 C 38.906 200.223,40.009 200.286,42.404 199.614 C 43.942 199.182,53.717 189.572,121.281 122.069 C 164.168 79.220,198.700 44.390,199.072 43.606 C 200.057 41.529,200.269 39.545,199.692 37.795 C 198.159 33.150,193.060 30.821,188.800 32.820 M206.178 120.313 C 205.411 120.494,204.067 121.141,203.192 121.751 C 202.316 122.360,183.608 140.864,161.619 162.870 C 120.135 204.383,119.927 204.609,119.903 208.023 C 119.889 209.959,121.791 213.397,123.526 214.571 C 125.350 215.805,128.539 216.196,130.830 215.467 C 132.172 215.040,140.038 207.396,172.919 174.564 C 195.160 152.357,213.849 133.481,214.449 132.618 C 216.483 129.692,216.335 125.606,214.102 123.062 C 211.960 120.623,209.086 119.625,206.178 120.313 " stroke="none" fill-rule="evenodd"></path></svg>