<svg fill="currentColor" viewBox="0 0 256 256" xmlns="http://www.w3.org/2000/svg"><path d="M36.338 41.022 C 33.590 42.383,32.213 44.711,32.213 48.000 C 32.213 51.314,33.602 53.647,36.373 54.988 C 38.094 55.821,38.947 55.893,47.068 55.893 L 55.893 55.893 55.893 128.000 L 55.893 200.107 47.068 200.107 C 38.947 200.107,38.094 200.179,36.373 201.012 C 33.602 202.353,32.213 204.686,32.213 208.000 C 32.213 211.314,33.602 213.647,36.373 214.988 C 38.215 215.880,38.624 215.893,64.000 215.893 C 89.376 215.893,89.785 215.880,91.627 214.988 C 94.398 213.647,95.787 211.314,95.787 208.000 C 95.787 204.686,94.398 202.353,91.627 201.012 C 89.906 200.179,89.053 200.107,80.932 200.107 L 72.107 200.107 72.107 139.876 C 72.107 106.748,72.182 79.724,72.275 79.822 C 72.367 79.920,88.806 109.760,108.806 146.133 C 128.806 182.507,145.674 212.818,146.291 213.493 C 148.508 215.915,148.276 215.893,171.905 215.893 C 186.232 215.893,194.061 215.739,194.852 215.440 C 196.560 214.794,198.378 212.973,199.298 210.987 C 200.057 209.346,200.088 206.326,200.097 132.587 L 200.107 55.893 208.932 55.893 C 217.053 55.893,217.906 55.821,219.627 54.988 C 222.398 53.647,223.787 51.314,223.787 48.000 C 223.787 44.686,222.398 42.353,219.627 41.012 C 217.785 40.120,217.376 40.107,192.000 40.107 C 166.624 40.107,166.215 40.120,164.373 41.012 C 161.602 42.353,160.213 44.686,160.213 48.000 C 160.213 51.314,161.602 53.647,164.373 54.988 C 166.094 55.821,166.947 55.893,175.068 55.893 L 183.893 55.893 183.893 116.124 C 183.893 149.252,183.817 176.276,183.723 176.178 C 183.630 176.080,167.190 146.240,147.190 109.867 C 127.189 73.493,110.418 43.283,109.919 42.732 C 109.421 42.181,108.301 41.365,107.430 40.918 C 105.914 40.141,104.432 40.107,72.017 40.107 C 38.288 40.107,38.181 40.110,36.338 41.022 M138.667 127.646 C 160.373 167.106,178.197 199.553,178.276 199.749 C 178.354 199.946,173.553 200.107,167.606 200.107 L 156.795 200.107 117.331 128.353 C 95.626 88.888,77.803 56.440,77.724 56.246 C 77.646 56.052,82.446 55.895,88.391 55.897 L 99.200 55.900 138.667 127.646 " stroke="none" fill-rule="evenodd"></path></svg>