<svg fill="currentColor" viewBox="0 0 256 256" xmlns="http://www.w3.org/2000/svg"><path d="M123.307 32.195 C 122.955 32.280,121.227 32.584,119.467 32.870 C 102.830 35.576,88.151 48.155,82.641 64.427 C 78.633 76.264,79.458 90.209,84.800 100.907 C 87.846 107.008,93.583 114.068,98.704 118.017 L 100.340 119.279 96.814 121.600 C 94.874 122.876,91.586 125.540,89.507 127.518 C 81.300 135.328,76.352 143.894,73.471 155.281 C 72.434 159.379,72.331 160.520,72.329 167.893 C 72.326 176.572,72.562 178.244,74.763 185.173 C 82.049 208.115,103.827 223.997,128.000 223.997 C 152.221 223.997,173.900 208.148,181.289 185.040 C 183.366 178.541,184.042 173.297,183.771 165.768 C 183.422 156.065,181.102 147.983,176.302 139.752 C 172.277 132.849,165.715 125.897,159.145 121.573 L 155.660 119.279 157.296 118.021 C 162.290 114.185,168.207 106.901,171.200 100.907 C 174.187 94.924,175.915 87.040,175.876 79.573 C 175.757 56.970,160.094 37.873,137.696 33.023 C 134.869 32.411,124.812 31.832,123.307 32.195 M136.937 49.277 C 147.647 52.622,155.768 60.876,158.787 71.486 C 160.143 76.252,160.151 83.722,158.804 88.452 C 153.752 106.196,135.592 115.928,117.974 110.334 C 110.093 107.831,103.167 101.786,99.257 93.999 C 95.154 85.827,95.154 74.173,99.257 66.001 C 100.777 62.974,103.652 59.025,105.881 56.904 C 109.755 53.217,115.728 49.999,120.865 48.832 C 124.434 48.020,133.739 48.278,136.937 49.277 M137.736 129.260 C 152.213 132.825,163.818 144.851,167.096 159.683 C 168.130 164.361,168.031 172.502,166.883 177.228 C 163.606 190.722,153.352 201.848,140.373 205.993 C 135.867 207.432,132.751 207.916,128.000 207.916 C 109.481 207.916,93.505 195.307,89.117 177.228 C 87.961 172.462,87.858 164.322,88.896 159.683 C 92.476 143.677,104.872 131.716,121.062 128.646 C 125.430 127.818,133.012 128.097,137.736 129.260 " stroke="none" fill-rule="evenodd"></path></svg>