<svg fill="currentColor" viewBox="0 0 256 256" xmlns="http://www.w3.org/2000/svg"><path d="M44.265 32.461 C 39.776 33.526,35.661 36.951,33.540 41.387 L 32.213 44.160 32.213 128.000 L 32.213 211.840 33.407 214.400 C 34.974 217.760,38.261 221.060,41.555 222.583 L 44.160 223.787 128.000 223.787 L 211.840 223.787 214.445 222.583 C 217.739 221.060,221.026 217.760,222.593 214.400 L 223.787 211.840 223.787 128.000 L 223.787 44.160 222.583 41.555 C 221.060 38.261,217.760 34.974,214.400 33.407 L 211.840 32.213 128.853 32.147 C 81.512 32.109,45.179 32.244,44.265 32.461 M207.787 128.213 L 207.787 208.213 128.000 208.213 L 48.213 208.213 48.213 128.213 L 48.213 48.213 128.000 48.213 L 207.787 48.213 207.787 128.213 M124.295 68.292 C 111.747 69.558,101.210 78.513,97.213 91.307 C 95.800 95.831,95.795 103.665,97.204 108.567 C 98.459 112.936,100.572 116.930,103.520 120.504 L 105.870 123.353 102.108 127.299 C 99.309 130.236,97.838 132.222,96.361 135.063 C 93.335 140.879,92.550 143.874,92.284 150.624 C 92.086 155.661,92.178 156.882,93.011 160.224 C 96.346 173.603,105.901 183.329,119.253 186.935 C 121.895 187.648,123.872 187.857,128.000 187.857 C 134.135 187.857,138.089 186.994,143.322 184.515 C 161.910 175.708,169.291 153.461,159.700 135.153 C 158.173 132.236,156.699 130.244,153.892 127.299 L 150.130 123.353 152.536 120.450 C 155.228 117.201,157.854 112.120,158.996 107.947 C 160.183 103.613,160.080 95.445,158.787 91.307 C 153.963 75.865,140.206 66.686,124.295 68.292 M134.558 85.466 C 137.695 86.903,140.374 89.460,142.127 92.692 C 143.510 95.243,143.573 95.557,143.573 99.840 C 143.573 103.811,143.443 104.598,142.426 106.767 C 141.050 109.704,137.911 112.960,135.187 114.277 C 127.059 118.206,117.354 114.835,113.574 106.767 C 112.556 104.596,112.427 103.815,112.430 99.840 C 112.432 95.771,112.541 95.153,113.618 93.105 C 115.884 88.793,119.401 85.830,123.703 84.609 C 126.663 83.769,131.724 84.169,134.558 85.466 M136.582 134.064 C 144.476 137.965,149.037 146.563,147.680 154.985 C 145.071 171.185,125.462 177.599,113.913 166.030 C 103.489 155.589,107.685 138.044,121.808 133.012 C 123.472 132.419,124.994 132.275,128.663 132.365 C 133.133 132.475,133.546 132.563,136.582 134.064 " stroke="none" fill-rule="evenodd"></path></svg>