<svg fill="currentColor" viewBox="0 0 256 256" xmlns="http://www.w3.org/2000/svg"><path d="M120.960 24.326 C 100.935 25.586,81.587 32.844,64.891 45.360 C 59.554 49.360,49.234 59.686,45.276 64.986 C 34.512 79.399,27.973 94.882,25.095 112.768 C 23.886 120.283,23.787 134.307,24.890 141.867 C 27.542 160.046,34.293 176.318,45.279 191.014 C 49.299 196.392,59.608 206.701,64.986 210.721 C 79.686 221.710,96.000 228.476,114.133 231.105 C 117.683 231.620,121.936 231.847,128.000 231.847 C 144.598 231.847,158.874 228.583,173.440 221.458 C 184.661 215.968,192.320 210.472,201.396 201.396 C 210.475 192.317,215.974 184.654,221.456 173.440 C 235.707 144.287,235.458 110.173,220.780 81.026 C 214.698 68.950,203.517 55.194,193.067 46.931 C 172.349 30.550,147.221 22.673,120.960 24.326 M142.080 41.152 C 159.933 44.170,175.895 52.156,188.870 64.559 C 202.597 77.682,211.532 94.696,214.904 114.133 C 215.937 120.088,215.932 135.829,214.895 141.867 C 212.390 156.454,206.990 169.066,198.207 180.843 C 173.373 214.141,127.558 225.417,90.240 207.417 C 81.119 203.017,74.345 198.338,67.182 191.490 C 53.399 178.314,44.463 161.314,41.098 141.867 C 40.060 135.867,40.060 120.133,41.098 114.133 C 46.547 82.647,66.943 57.480,96.401 45.891 C 101.417 43.918,110.346 41.621,115.413 41.001 C 117.525 40.743,119.733 40.449,120.320 40.349 C 122.762 39.932,138.241 40.503,142.080 41.152 M121.813 72.384 C 105.574 74.977,93.276 86.516,87.550 104.533 C 84.794 113.204,83.850 120.523,84.167 130.741 C 84.817 151.665,92.703 168.678,105.819 177.451 C 109.575 179.963,113.162 181.550,118.187 182.921 C 122.225 184.023,133.852 183.992,138.027 182.869 C 149.934 179.664,159.192 171.806,165.245 159.764 C 167.032 156.210,169.343 149.081,170.555 143.385 C 171.598 138.484,171.697 137.188,171.714 128.213 C 171.730 119.596,171.611 117.804,170.743 113.513 C 166.263 91.372,155.253 77.793,138.027 73.162 C 135.484 72.479,124.517 71.953,121.813 72.384 M134.814 89.018 C 145.363 92.002,152.519 102.215,155.101 117.973 C 155.910 122.914,155.910 133.086,155.101 138.027 C 153.288 149.089,148.566 158.640,142.767 162.971 C 138.027 166.511,133.894 167.887,128.000 167.887 C 117.638 167.887,110.206 162.758,105.136 152.107 C 101.761 145.017,100.270 137.628,100.270 128.000 C 100.270 108.001,107.963 93.232,120.492 89.177 C 124.707 87.812,130.328 87.750,134.814 89.018 " stroke="none" fill-rule="evenodd"></path></svg>