<svg fill="currentColor" viewBox="0 0 256 256" xmlns="http://www.w3.org/2000/svg"><path d="M84.693 40.811 C 80.774 42.884,79.225 46.700,80.605 50.882 C 81.163 52.571,83.326 54.794,85.041 55.440 C 85.853 55.747,97.713 55.893,121.628 55.893 C 145.143 55.893,157.013 56.038,157.013 56.324 C 157.013 56.561,146.933 90.351,134.613 131.413 C 118.475 185.203,112.213 206.646,112.213 208.126 C 112.213 213.326,117.748 217.154,122.592 215.305 C 123.603 214.919,125.065 213.947,125.842 213.146 C 127.174 211.771,128.631 207.106,151.532 130.911 C 166.046 82.621,175.838 49.356,175.878 48.201 C 175.966 45.730,174.788 43.329,172.654 41.627 L 171.014 40.320 128.494 40.227 C 90.372 40.144,85.841 40.204,84.693 40.811 " stroke="none" fill-rule="evenodd"></path></svg>