<svg fill="currentColor" viewBox="0 0 256 256" xmlns="http://www.w3.org/2000/svg"><path d="M120.960 24.326 C 100.935 25.586,81.587 32.844,64.891 45.360 C 59.554 49.360,49.234 59.686,45.276 64.986 C 34.512 79.399,27.973 94.882,25.095 112.768 C 23.886 120.283,23.787 134.307,24.890 141.867 C 27.542 160.046,34.293 176.318,45.279 191.014 C 49.299 196.392,59.608 206.701,64.986 210.721 C 79.686 221.710,96.000 228.476,114.133 231.105 C 117.683 231.620,121.936 231.847,128.000 231.847 C 144.598 231.847,158.874 228.583,173.440 221.458 C 184.661 215.968,192.320 210.472,201.396 201.396 C 210.475 192.317,215.974 184.654,221.456 173.440 C 235.707 144.287,235.458 110.173,220.780 81.026 C 214.698 68.950,203.517 55.194,193.067 46.931 C 172.349 30.550,147.221 22.673,120.960 24.326 M142.080 41.152 C 159.933 44.170,175.895 52.156,188.870 64.559 C 202.597 77.682,211.532 94.696,214.904 114.133 C 215.937 120.088,215.932 135.829,214.895 141.867 C 212.390 156.454,206.990 169.066,198.207 180.843 C 173.373 214.141,127.558 225.417,90.240 207.417 C 81.119 203.017,74.345 198.338,67.182 191.490 C 53.399 178.314,44.463 161.314,41.098 141.867 C 40.060 135.867,40.060 120.133,41.098 114.133 C 46.547 82.647,66.943 57.480,96.401 45.891 C 101.417 43.918,110.346 41.621,115.413 41.001 C 117.525 40.743,119.733 40.449,120.320 40.349 C 122.762 39.932,138.241 40.503,142.080 41.152 M101.400 76.569 C 99.287 77.322,97.793 78.716,96.806 80.853 C 95.419 83.860,96.040 87.192,98.459 89.717 C 100.623 91.977,102.253 92.160,120.167 92.160 L 136.499 92.160 126.854 105.920 C 121.549 113.488,116.948 120.298,116.631 121.053 C 115.330 124.146,116.461 128.246,119.190 130.327 C 120.315 131.185,121.524 131.598,123.823 131.908 C 131.148 132.896,135.320 134.753,138.724 138.541 C 142.556 142.806,143.990 147.052,143.692 153.252 C 143.510 157.016,143.328 157.767,141.895 160.667 C 139.123 166.276,133.993 170.319,128.094 171.545 C 124.882 172.213,119.840 171.830,116.907 170.694 C 114.600 169.802,113.882 169.335,109.068 165.601 C 107.320 164.244,106.153 163.677,104.795 163.524 C 98.444 162.808,93.837 169.315,96.682 174.983 C 97.735 177.078,103.015 181.487,106.925 183.534 C 113.919 187.196,120.865 188.592,127.814 187.732 C 144.004 185.728,156.268 174.321,159.388 158.362 C 160.945 150.396,159.420 141.561,155.176 133.973 C 152.582 129.334,146.436 123.296,141.547 120.582 C 139.493 119.443,137.813 118.448,137.813 118.372 C 137.813 118.296,142.369 111.744,147.937 103.810 C 153.506 95.877,158.498 88.538,159.031 87.501 C 161.125 83.426,159.410 78.746,155.093 76.753 C 153.494 76.015,151.798 75.966,128.213 75.975 C 107.992 75.982,102.717 76.099,101.400 76.569 " stroke="none" fill-rule="evenodd"></path></svg>