<svg fill="currentColor" viewBox="0 0 256 256" xmlns="http://www.w3.org/2000/svg"><path d="M44.265 32.461 C 39.776 33.526,35.661 36.951,33.540 41.387 L 32.213 44.160 32.213 128.000 L 32.213 211.840 33.407 214.400 C 34.974 217.760,38.261 221.060,41.555 222.583 L 44.160 223.787 128.000 223.787 L 211.840 223.787 214.445 222.583 C 217.739 221.060,221.026 217.760,222.593 214.400 L 223.787 211.840 223.787 128.000 L 223.787 44.160 222.583 41.555 C 221.060 38.261,217.760 34.974,214.400 33.407 L 211.840 32.213 128.853 32.147 C 81.512 32.109,45.179 32.244,44.265 32.461 M207.787 128.213 L 207.787 208.213 128.000 208.213 L 48.213 208.213 48.213 128.213 L 48.213 48.213 128.000 48.213 L 207.787 48.213 207.787 128.213 M129.005 72.700 C 126.440 73.862,102.105 90.402,101.417 91.451 C 98.582 95.778,100.305 101.461,105.053 103.444 C 108.488 104.879,109.887 104.399,117.905 99.032 C 121.098 96.895,123.812 95.147,123.935 95.147 C 124.059 95.147,124.160 113.822,124.160 136.647 C 124.160 176.253,124.196 178.214,124.952 179.623 C 128.035 185.372,136.494 185.267,139.138 179.447 C 139.892 177.785,139.928 175.465,139.937 128.028 L 139.947 78.349 139.042 76.480 C 137.342 72.968,132.467 71.133,129.005 72.700 " stroke="none" fill-rule="evenodd"></path></svg>