<svg fill="currentColor" viewBox="0 0 256 256" xmlns="http://www.w3.org/2000/svg"><path d="M120.960 24.326 C 100.935 25.586,81.587 32.844,64.891 45.360 C 59.554 49.360,49.234 59.686,45.276 64.986 C 34.512 79.399,27.973 94.882,25.095 112.768 C 23.886 120.283,23.787 134.307,24.890 141.867 C 27.542 160.046,34.293 176.318,45.279 191.014 C 49.299 196.392,59.608 206.701,64.986 210.721 C 79.686 221.710,96.000 228.476,114.133 231.105 C 117.683 231.620,121.936 231.847,128.000 231.847 C 144.598 231.847,158.874 228.583,173.440 221.458 C 184.661 215.968,192.320 210.472,201.396 201.396 C 210.475 192.317,215.974 184.654,221.456 173.440 C 235.707 144.287,235.458 110.173,220.780 81.026 C 214.698 68.950,203.517 55.194,193.067 46.931 C 172.349 30.550,147.221 22.673,120.960 24.326 M142.080 41.152 C 159.933 44.170,175.895 52.156,188.870 64.559 C 202.597 77.682,211.532 94.696,214.904 114.133 C 215.937 120.088,215.932 135.829,214.895 141.867 C 212.390 156.454,206.990 169.066,198.207 180.843 C 173.373 214.141,127.558 225.417,90.240 207.417 C 81.119 203.017,74.345 198.338,67.182 191.490 C 53.399 178.314,44.463 161.314,41.098 141.867 C 40.060 135.867,40.060 120.133,41.098 114.133 C 46.547 82.647,66.943 57.480,96.401 45.891 C 101.417 43.918,110.346 41.621,115.413 41.001 C 117.525 40.743,119.733 40.449,120.320 40.349 C 122.762 39.932,138.241 40.503,142.080 41.152 M121.387 72.712 C 111.408 75.018,103.467 81.256,99.174 90.159 C 98.404 91.757,97.649 93.799,97.497 94.697 C 96.578 100.140,101.844 105.089,107.086 103.708 C 109.971 102.947,111.478 101.538,113.256 97.941 C 116.744 90.881,123.062 87.320,130.289 88.342 C 135.348 89.057,140.102 92.557,142.407 97.264 C 143.430 99.352,143.565 100.123,143.569 103.893 C 143.573 107.596,143.428 108.471,142.471 110.510 C 141.865 111.802,131.267 126.336,118.921 142.807 C 102.351 164.913,96.398 173.158,96.185 174.294 C 95.509 177.896,97.230 181.467,100.373 182.988 C 102.215 183.880,102.624 183.893,128.000 183.893 C 153.376 183.893,153.785 183.880,155.627 182.988 C 158.398 181.647,159.787 179.314,159.787 176.000 C 159.787 172.686,158.398 170.353,155.627 169.012 C 153.819 168.137,153.204 168.107,137.039 168.107 C 127.843 168.107,120.320 167.980,120.320 167.825 C 120.320 167.670,128.171 157.062,137.767 144.251 C 147.363 131.441,155.793 119.801,156.501 118.385 C 158.994 113.392,159.770 110.000,159.765 104.107 C 159.761 98.066,159.123 95.093,156.782 90.193 C 153.023 82.326,145.700 76.046,137.173 73.377 C 133.348 72.180,125.178 71.835,121.387 72.712 " stroke="none" fill-rule="evenodd"></path></svg>