<svg fill="currentColor" viewBox="0 0 256 256" xmlns="http://www.w3.org/2000/svg"><path d="M120.960 24.326 C 100.935 25.586,81.587 32.844,64.891 45.360 C 59.554 49.360,49.234 59.686,45.276 64.986 C 34.512 79.399,27.973 94.882,25.095 112.768 C 23.886 120.283,23.787 134.307,24.890 141.867 C 27.542 160.046,34.293 176.318,45.279 191.014 C 49.299 196.392,59.608 206.701,64.986 210.721 C 79.686 221.710,96.000 228.476,114.133 231.105 C 117.683 231.620,121.936 231.847,128.000 231.847 C 144.598 231.847,158.874 228.583,173.440 221.458 C 184.661 215.968,192.320 210.472,201.396 201.396 C 210.475 192.317,215.974 184.654,221.456 173.440 C 235.707 144.287,235.458 110.173,220.780 81.026 C 214.698 68.950,203.517 55.194,193.067 46.931 C 172.349 30.550,147.221 22.673,120.960 24.326 M142.080 41.152 C 159.933 44.170,175.895 52.156,188.870 64.559 C 202.597 77.682,211.532 94.696,214.904 114.133 C 215.937 120.088,215.932 135.829,214.895 141.867 C 212.390 156.454,206.990 169.066,198.207 180.843 C 173.373 214.141,127.558 225.417,90.240 207.417 C 81.119 203.017,74.345 198.338,67.182 191.490 C 53.399 178.314,44.463 161.314,41.098 141.867 C 40.060 135.867,40.060 120.133,41.098 114.133 C 46.547 82.647,66.943 57.480,96.401 45.891 C 101.417 43.918,110.346 41.621,115.413 41.001 C 117.525 40.743,119.733 40.449,120.320 40.349 C 122.762 39.932,138.241 40.503,142.080 41.152 M108.813 72.782 C 106.883 73.619,105.895 74.541,104.963 76.373 C 104.482 77.320,102.670 87.093,100.012 103.072 C 95.291 131.461,95.342 130.429,98.515 133.602 C 101.777 136.864,105.835 136.745,110.063 133.265 C 120.970 124.285,136.007 127.217,141.953 139.483 C 143.287 142.235,143.513 143.164,143.695 146.645 C 143.953 151.579,143.107 155.105,140.819 158.626 C 137.563 163.636,132.817 166.732,126.827 167.753 C 121.220 168.709,114.739 166.864,110.507 163.109 C 107.894 160.791,106.213 160.000,103.898 160.000 C 101.417 160.000,98.961 161.238,97.411 163.270 C 96.356 164.653,96.213 165.205,96.213 167.893 C 96.213 170.592,96.354 171.131,97.429 172.540 C 100.257 176.248,106.594 180.275,112.782 182.298 C 117.931 183.981,125.516 184.387,131.018 183.274 C 153.196 178.787,165.755 155.349,157.256 134.307 C 153.329 124.585,144.733 116.827,134.187 113.487 C 130.572 112.342,121.525 111.855,117.581 112.592 C 116.192 112.852,114.975 112.984,114.877 112.886 C 114.779 112.788,115.623 107.124,116.754 100.300 L 118.808 87.893 136.283 87.893 C 153.218 87.893,153.815 87.865,155.627 86.988 C 158.398 85.647,159.787 83.314,159.787 80.000 C 159.787 76.686,158.398 74.353,155.627 73.012 C 153.795 72.125,153.316 72.107,132.025 72.123 C 113.641 72.137,110.065 72.239,108.813 72.782 " stroke="none" fill-rule="evenodd"></path></svg>