<svg fill="currentColor" viewBox="0 0 256 256" xmlns="http://www.w3.org/2000/svg"><path d="M42.194 49.215 C 37.917 50.979,35.133 53.646,33.205 57.827 C 32.261 59.876,32.224 60.412,32.088 73.884 L 31.948 87.821 22.907 87.967 C 15.495 88.087,13.636 88.240,12.587 88.819 C 6.381 92.238,6.619 100.337,13.013 103.298 C 14.494 103.983,15.861 104.089,23.334 104.097 L 31.947 104.107 32.082 118.080 L 32.217 132.053 33.330 134.400 C 35.656 139.306,40.154 142.786,45.412 143.750 C 47.174 144.072,71.083 144.211,124.132 144.206 C 206.854 144.198,203.840 144.282,207.952 141.872 C 210.530 140.362,213.178 137.390,214.545 134.475 L 215.680 132.053 215.803 118.080 L 215.926 104.107 224.017 104.107 L 232.107 104.107 232.107 129.067 C 232.107 142.795,232.059 154.027,232.000 154.027 C 231.123 154.027,129.961 183.254,128.664 183.882 C 126.281 185.035,123.074 188.230,121.836 190.683 C 119.962 194.396,119.828 196.194,119.972 215.680 C 120.101 233.324,120.141 234.092,120.999 235.733 C 122.265 238.156,125.181 239.885,128.000 239.885 C 130.819 239.885,133.735 238.156,135.001 235.733 C 135.859 234.092,135.898 233.334,136.013 216.014 L 136.133 198.002 139.000 197.157 C 140.577 196.692,163.467 190.144,189.867 182.604 C 218.946 174.300,238.672 168.459,239.910 167.785 C 242.566 166.340,245.125 163.530,246.545 160.501 L 247.680 158.080 247.798 129.622 C 247.912 102.161,247.887 101.080,247.069 98.754 C 245.544 94.416,242.050 90.849,237.569 89.057 C 235.553 88.251,234.253 88.134,225.616 87.983 L 215.926 87.813 215.803 73.880 L 215.680 59.947 214.545 57.525 C 213.028 54.289,210.495 51.630,207.254 49.873 L 204.587 48.427 124.587 48.328 L 44.587 48.229 42.194 49.215 M200.107 96.000 L 200.107 128.000 124.160 128.000 L 48.213 128.000 48.213 96.000 L 48.213 64.000 124.160 64.000 L 200.107 64.000 200.107 96.000 " stroke="none" fill-rule="evenodd"></path></svg>