<svg fill="currentColor" viewBox="0 0 256 256" xmlns="http://www.w3.org/2000/svg"><path d="M68.267 24.185 C 59.164 25.169,50.767 29.069,44.247 35.342 C 38.899 40.489,35.237 46.737,33.203 54.187 L 32.213 57.813 32.213 99.200 L 32.213 140.587 33.200 143.441 C 35.621 150.450,41.247 156.153,48.332 158.781 C 50.983 159.765,51.019 159.766,77.479 159.901 L 103.971 160.036 99.960 183.591 C 95.533 209.594,95.432 210.871,97.327 217.018 C 102.706 234.460,120.642 243.854,138.026 238.334 C 149.973 234.540,158.959 223.109,159.813 210.618 C 160.023 207.548,159.587 204.422,156.040 183.591 L 152.029 160.036 178.521 159.901 C 204.981 159.766,205.017 159.765,207.668 158.781 C 214.621 156.202,220.174 150.653,222.791 143.668 L 223.786 141.013 223.915 86.187 C 224.005 47.889,223.905 30.883,223.584 29.779 C 223.025 27.857,221.374 25.823,219.576 24.838 C 218.330 24.156,213.262 24.104,144.000 24.065 C 103.168 24.043,69.088 24.097,68.267 24.185 M175.787 59.712 C 175.787 72.444,175.952 80.091,176.259 81.522 C 176.827 84.167,178.969 86.757,181.198 87.492 C 184.962 88.735,189.441 86.937,191.095 83.520 C 191.979 81.693,192.000 81.174,192.000 60.879 L 192.000 40.107 199.893 40.107 L 207.787 40.107 207.787 72.107 L 207.787 104.107 128.000 104.107 L 48.213 104.107 48.213 82.223 C 48.213 63.949,48.321 59.926,48.867 57.831 C 50.960 49.795,58.197 42.671,66.249 40.720 C 67.985 40.299,80.392 40.171,122.133 40.143 L 175.787 40.107 175.787 59.712 M207.787 128.826 C 207.787 138.313,207.611 139.386,205.733 141.371 C 203.130 144.123,204.695 143.979,174.720 144.213 L 147.413 144.427 144.746 145.873 C 139.604 148.662,136.479 153.432,136.191 158.933 C 136.069 161.262,136.898 166.995,139.955 184.960 C 144.302 210.511,144.365 211.335,142.277 215.599 C 140.857 218.499,137.351 221.964,134.507 223.277 C 131.570 224.634,124.430 224.634,121.493 223.277 C 118.711 221.992,115.163 218.520,113.722 215.674 C 111.597 211.472,111.684 210.319,116.057 184.747 C 119.185 166.455,119.926 161.322,119.783 158.910 C 119.455 153.348,116.385 148.656,111.254 145.873 L 108.587 144.427 81.280 144.213 C 51.906 143.984,53.202 144.090,50.629 141.708 C 48.314 139.565,48.213 139.041,48.213 129.088 L 48.213 119.893 128.000 119.893 L 207.787 119.893 207.787 128.826 " stroke="none" fill-rule="evenodd"></path></svg>