<svg fill="currentColor" viewBox="0 0 256 256" xmlns="http://www.w3.org/2000/svg"><path d="M42.880 16.982 C 36.090 19.341,31.530 26.126,32.112 33.004 C 32.277 34.952,36.399 47.488,48.144 81.766 L 63.953 127.906 48.142 174.140 C 36.394 208.495,32.275 221.047,32.111 222.996 C 31.691 227.983,34.385 233.842,38.450 236.787 C 42.844 239.970,48.817 240.787,53.578 238.856 C 54.969 238.292,94.182 216.046,140.719 189.422 C 205.709 152.239,225.773 140.571,227.239 139.108 C 233.564 132.792,233.555 122.912,227.220 116.723 C 225.482 115.024,208.595 105.226,139.611 65.890 C 90.534 37.904,53.356 16.959,52.276 16.687 C 49.542 15.998,45.331 16.131,42.880 16.982 M132.288 80.102 C 178.252 106.324,215.723 127.901,215.556 128.051 C 214.755 128.774,48.574 223.650,48.405 223.481 C 48.246 223.321,74.298 146.714,77.282 138.568 L 78.178 136.123 108.102 136.008 C 137.516 135.895,138.056 135.878,139.733 135.001 C 140.770 134.460,141.920 133.337,142.663 132.141 C 145.055 128.289,143.876 123.545,139.951 121.238 L 138.027 120.107 108.087 119.986 L 78.146 119.866 76.674 115.506 C 74.869 110.159,48.623 33.732,48.331 32.972 C 48.216 32.672,48.256 32.427,48.419 32.427 C 48.582 32.427,86.323 53.881,132.288 80.102 " stroke="none" fill-rule="evenodd"></path></svg>