<svg fill="currentColor" viewBox="0 0 256 256" xmlns="http://www.w3.org/2000/svg"><path d="M36.480 48.924 C 34.503 49.968,33.654 50.839,32.802 52.693 C 32.052 54.328,32.019 57.484,32.019 128.000 C 32.019 198.972,32.047 201.663,32.816 203.356 C 34.641 207.375,39.865 209.118,43.792 207.016 C 45.111 206.310,47.301 203.672,47.674 202.339 C 48.100 200.816,48.100 55.184,47.674 53.661 C 47.222 52.047,44.877 49.482,43.220 48.790 C 41.381 48.021,38.063 48.087,36.480 48.924 M103.040 88.104 C 102.805 88.182,102.100 88.358,101.473 88.496 C 99.816 88.860,97.703 90.799,96.802 92.782 C 96.107 94.313,96.018 95.765,96.009 105.735 L 96.000 116.964 95.040 116.664 C 94.512 116.499,89.712 114.950,84.373 113.222 C 79.034 111.494,74.234 110.081,73.706 110.082 C 68.697 110.095,64.632 114.917,65.687 119.595 C 66.184 121.796,67.729 123.943,69.539 124.947 C 70.365 125.405,75.360 127.162,80.640 128.851 C 85.920 130.541,90.369 132.048,90.527 132.201 C 90.685 132.355,88.217 136.032,85.042 140.373 C 78.110 149.853,77.764 150.386,77.205 152.427 C 75.977 156.915,80.110 162.115,84.907 162.115 C 86.830 162.115,89.509 160.867,90.936 159.307 C 91.553 158.632,94.625 154.519,97.763 150.167 C 100.900 145.815,103.659 142.237,103.893 142.216 C 104.128 142.195,107.205 146.136,110.730 150.972 C 114.256 155.809,117.781 160.198,118.565 160.726 C 124.509 164.732,132.511 158.956,130.586 152.048 C 130.320 151.093,127.358 146.594,123.538 141.345 C 119.915 136.365,117.084 132.214,117.248 132.122 C 117.412 132.029,122.093 130.486,127.650 128.694 C 138.428 125.217,139.730 124.535,141.245 121.563 C 143.117 117.895,141.460 113.048,137.659 111.071 C 135.275 109.831,132.589 110.265,122.764 113.477 C 117.655 115.147,113.205 116.617,112.875 116.744 C 112.372 116.937,112.254 115.143,112.138 105.527 L 112.000 94.080 110.869 92.155 C 110.203 91.024,109.061 89.859,108.095 89.328 C 106.496 88.448,103.899 87.819,103.040 88.104 M199.040 88.104 C 198.805 88.182,198.100 88.358,197.473 88.496 C 195.816 88.860,193.703 90.799,192.802 92.782 C 192.107 94.313,192.018 95.765,192.009 105.735 L 192.000 116.964 191.040 116.664 C 190.512 116.499,185.664 114.933,180.267 113.183 C 171.944 110.485,170.164 110.041,168.547 110.259 C 164.486 110.806,161.707 114.029,161.707 118.191 C 161.707 120.771,162.413 122.288,164.444 124.072 C 165.628 125.111,168.092 126.081,176.093 128.655 C 181.674 130.451,186.372 132.046,186.534 132.200 C 186.695 132.354,184.041 136.320,180.635 141.013 C 177.229 145.707,174.158 150.087,173.810 150.746 C 172.343 153.529,173.462 158.354,176.046 160.387 C 178.887 162.622,183.272 162.601,185.847 160.340 C 186.667 159.620,190.143 155.169,193.572 150.449 C 197.000 145.729,199.845 141.814,199.894 141.751 C 199.943 141.687,202.729 145.431,206.085 150.071 C 209.441 154.710,212.589 158.964,213.080 159.523 C 214.244 160.847,217.019 162.112,218.787 162.124 C 224.222 162.160,228.443 156.193,226.411 151.346 C 226.094 150.591,223.022 146.102,219.584 141.370 C 216.146 136.638,213.336 132.606,213.339 132.410 C 213.342 132.214,218.092 130.517,223.895 128.640 C 233.260 125.610,234.618 125.056,235.973 123.704 C 239.324 120.360,239.118 115.093,235.516 112.062 C 233.912 110.712,231.169 109.921,229.307 110.270 C 228.183 110.481,211.047 115.911,208.875 116.744 C 208.372 116.937,208.254 115.143,208.138 105.527 L 208.000 94.080 206.869 92.155 C 206.203 91.024,205.061 89.859,204.095 89.328 C 202.496 88.448,199.899 87.819,199.040 88.104 " stroke="none" fill-rule="evenodd"></path></svg>