<svg fill="currentColor" viewBox="0 0 256 256" xmlns="http://www.w3.org/2000/svg"><path d="M68.198 49.071 C 63.732 51.446,62.661 57.349,66.021 61.069 C 66.864 62.002,67.954 62.995,68.443 63.276 C 69.115 63.662,81.978 63.839,120.960 64.000 L 172.587 64.213 175.391 65.167 C 182.507 67.587,188.616 73.716,190.728 80.553 C 194.781 93.675,187.837 106.795,174.507 111.201 C 172.304 111.929,168.835 111.991,117.973 112.212 C 64.347 112.445,63.753 112.457,60.574 113.356 C 49.211 116.567,40.516 122.271,34.017 130.779 C 13.931 157.069,25.521 194.845,56.960 205.557 C 64.287 208.054,61.384 207.927,117.487 208.188 L 169.055 208.427 169.999 211.035 C 173.952 221.952,183.436 229.645,195.361 231.607 C 200.306 232.421,205.480 231.897,210.685 230.055 C 215.454 228.367,218.493 226.446,222.289 222.720 C 234.830 210.408,235.227 190.839,223.191 178.228 C 212.492 167.017,196.697 164.901,183.138 172.862 C 179.193 175.178,174.166 180.530,171.969 184.754 C 170.935 186.742,169.861 189.137,169.584 190.077 L 169.079 191.787 117.926 191.787 C 69.730 191.787,66.613 191.742,64.000 191.009 C 53.106 187.954,44.661 179.747,41.313 168.960 C 39.877 164.333,39.877 155.667,41.313 151.040 C 44.630 140.354,52.912 132.236,63.787 129.012 C 66.162 128.307,70.249 128.236,120.533 128.015 L 174.720 127.777 178.560 126.589 C 185.611 124.406,190.382 121.710,195.381 117.081 C 204.174 108.941,209.129 95.856,207.808 84.265 C 205.881 67.355,195.127 54.476,178.699 49.402 L 175.573 48.437 122.667 48.339 C 70.969 48.243,69.724 48.259,68.198 49.071 M205.964 185.247 C 208.988 186.378,212.619 189.765,214.308 193.029 C 215.548 195.426,215.653 195.956,215.666 199.893 C 215.678 203.626,215.541 204.454,214.566 206.507 C 212.926 209.964,210.327 212.653,207.083 214.250 C 201.743 216.879,195.064 216.311,190.546 212.843 C 186.304 209.586,184.193 205.263,184.193 199.836 C 184.193 196.864,184.379 195.969,185.489 193.597 C 187.172 190.000,189.235 187.762,192.445 186.051 C 196.763 183.750,201.251 183.483,205.964 185.247 " stroke="none" fill-rule="evenodd"></path></svg>