<svg fill="currentColor" viewBox="0 0 256 256" xmlns="http://www.w3.org/2000/svg"><path d="M52.372 32.463 C 47.863 33.526,43.667 36.917,41.566 41.197 L 40.320 43.733 40.190 126.720 C 40.096 186.461,40.192 210.326,40.534 211.918 C 41.162 214.846,43.837 218.902,46.377 220.780 C 47.505 221.613,49.687 222.686,51.228 223.165 C 53.924 224.003,54.890 224.031,77.041 223.911 L 100.053 223.787 102.400 222.672 C 107.308 220.341,110.787 215.845,111.750 210.588 C 112.403 207.022,112.402 48.963,111.748 45.429 C 110.571 39.060,106.172 34.252,100.066 32.661 C 97.922 32.103,94.141 32.007,75.750 32.043 C 63.773 32.066,53.253 32.256,52.372 32.463 M155.747 32.674 C 149.793 34.297,145.410 39.160,144.252 45.429 C 143.598 48.963,143.597 207.022,144.250 210.588 C 145.213 215.845,148.692 220.341,153.600 222.672 L 155.947 223.787 178.959 223.911 C 201.110 224.031,202.076 224.003,204.772 223.165 C 206.313 222.686,208.495 221.613,209.623 220.780 C 212.163 218.902,214.838 214.846,215.466 211.918 C 215.808 210.326,215.904 186.461,215.810 126.720 L 215.680 43.733 214.434 41.197 C 212.789 37.846,210.099 35.229,206.592 33.568 L 203.733 32.213 180.907 32.126 C 161.814 32.053,157.698 32.142,155.747 32.674 M96.000 128.218 L 96.000 208.222 76.053 208.111 L 56.107 208.000 55.999 128.107 L 55.891 48.213 75.946 48.213 L 96.000 48.213 96.000 128.218 M200.001 128.107 L 199.893 208.000 179.947 208.111 L 160.000 208.222 160.000 128.218 L 160.000 48.213 180.054 48.213 L 200.109 48.213 200.001 128.107 " stroke="none" fill-rule="evenodd"></path></svg>