<svg fill="currentColor" viewBox="0 0 256 256" xmlns="http://www.w3.org/2000/svg"><path d="M120.960 24.326 C 100.935 25.586,81.587 32.844,64.891 45.360 C 59.554 49.360,49.234 59.686,45.276 64.986 C 34.512 79.399,27.973 94.882,25.095 112.768 C 23.886 120.283,23.787 134.307,24.890 141.867 C 27.542 160.046,34.293 176.318,45.279 191.014 C 49.299 196.392,59.608 206.701,64.986 210.721 C 79.686 221.710,96.000 228.476,114.133 231.105 C 117.683 231.620,121.936 231.847,128.000 231.847 C 144.598 231.847,158.874 228.583,173.440 221.458 C 184.661 215.968,192.320 210.472,201.396 201.396 C 210.475 192.317,215.974 184.654,221.456 173.440 C 235.707 144.287,235.458 110.173,220.780 81.026 C 214.698 68.950,203.517 55.194,193.067 46.931 C 172.349 30.550,147.221 22.673,120.960 24.326 M142.080 41.152 C 159.933 44.170,175.895 52.156,188.870 64.559 C 202.597 77.682,211.532 94.696,214.904 114.133 C 215.937 120.088,215.932 135.829,214.895 141.867 C 212.390 156.454,206.990 169.066,198.207 180.843 C 173.373 214.141,127.558 225.417,90.240 207.417 C 81.119 203.017,74.345 198.338,67.182 191.490 C 53.399 178.314,44.463 161.314,41.098 141.867 C 40.060 135.867,40.060 120.133,41.098 114.133 C 46.547 82.647,66.943 57.480,96.401 45.891 C 101.417 43.918,110.346 41.621,115.413 41.001 C 117.525 40.743,119.733 40.449,120.320 40.349 C 122.762 39.932,138.241 40.503,142.080 41.152 M103.040 88.104 C 102.805 88.182,102.100 88.358,101.473 88.496 C 99.816 88.860,97.703 90.799,96.802 92.782 C 96.063 94.408,96.019 96.416,96.019 128.000 C 96.019 159.584,96.063 161.592,96.802 163.218 C 98.403 166.743,102.189 168.682,105.658 167.755 C 108.322 167.042,109.510 166.156,110.844 163.886 L 112.000 161.920 112.000 128.000 L 112.000 94.080 110.869 92.155 C 110.203 91.024,109.061 89.859,108.095 89.328 C 106.496 88.448,103.899 87.819,103.040 88.104 M150.339 88.301 C 148.141 88.824,146.167 90.296,145.050 92.246 L 144.000 94.080 144.000 128.000 L 144.000 161.920 145.156 163.886 C 146.490 166.156,147.678 167.042,150.342 167.755 C 153.811 168.682,157.597 166.743,159.198 163.218 C 159.936 161.592,159.982 159.575,159.991 128.093 C 160.001 91.969,160.063 93.014,157.740 90.525 C 155.938 88.596,152.919 87.689,150.339 88.301 " stroke="none" fill-rule="evenodd"></path></svg>