<svg fill="currentColor" viewBox="0 0 256 256" xmlns="http://www.w3.org/2000/svg"><path d="M74.194 17.215 C 69.921 18.978,67.146 21.634,65.198 25.827 C 64.218 27.937,64.213 28.038,64.088 48.947 L 63.962 69.948 48.777 96.941 C 40.425 111.788,33.233 124.976,32.796 126.248 C 31.351 130.448,32.022 135.589,34.518 139.429 C 37.778 144.445,122.374 253.714,123.674 254.588 C 126.361 256.395,129.632 256.396,132.326 254.592 C 133.171 254.026,150.015 232.527,173.350 202.229 C 225.704 134.255,222.157 138.988,223.161 135.742 C 224.208 132.357,224.224 129.643,223.217 126.438 C 222.779 125.044,215.742 112.059,207.236 96.947 L 192.038 69.948 191.912 48.947 L 191.787 27.947 190.672 25.600 C 189.018 22.117,186.435 19.454,183.133 17.829 L 180.285 16.427 128.436 16.327 L 76.587 16.228 74.194 17.215 M175.787 48.000 L 175.787 64.000 128.000 64.000 L 80.213 64.000 80.213 48.000 L 80.213 32.000 128.000 32.000 L 175.787 32.000 175.787 48.000 M193.495 105.271 C 201.238 119.053,207.561 130.621,207.547 130.978 C 207.526 131.493,138.852 221.214,136.684 223.558 C 136.198 224.084,136.107 219.014,136.107 191.530 L 136.107 158.877 138.560 157.877 C 151.265 152.697,158.322 138.963,155.227 125.440 C 154.986 124.384,153.927 121.718,152.876 119.515 C 149.752 112.970,144.241 108.131,136.889 105.476 C 134.087 104.464,133.158 104.346,128.000 104.346 C 122.842 104.346,121.913 104.464,119.111 105.476 C 114.619 107.098,111.606 109.014,108.106 112.475 C 105.634 114.918,104.663 116.289,103.119 119.515 C 100.670 124.633,100.078 127.200,100.129 132.480 C 100.238 143.632,107.049 153.624,117.440 157.874 L 119.893 158.877 119.893 191.530 C 119.893 219.014,119.802 224.084,119.316 223.558 C 117.148 221.214,48.474 131.493,48.453 130.978 C 48.439 130.621,54.762 119.053,62.505 105.271 L 76.584 80.213 128.000 80.213 L 179.416 80.213 193.495 105.271 M133.420 121.425 C 137.047 123.175,139.451 126.751,139.828 130.956 C 140.092 133.894,139.493 136.211,137.814 138.745 C 136.197 141.187,133.838 142.767,130.553 143.609 C 128.259 144.196,127.741 144.196,125.447 143.609 C 122.311 142.805,119.900 141.258,118.392 139.082 C 115.349 134.691,115.268 129.898,118.159 125.340 C 121.306 120.377,127.798 118.712,133.420 121.425 " stroke="none" fill-rule="evenodd"></path></svg>