<svg fill="currentColor" viewBox="0 0 256 256" xmlns="http://www.w3.org/2000/svg"><path d="M69.901 40.517 C 62.437 41.876,55.781 45.391,50.416 50.806 C 47.304 53.948,45.245 56.941,43.306 61.145 C 41.231 65.644,40.507 68.741,40.237 74.265 C 39.719 84.869,43.254 93.998,50.801 101.544 C 61.921 112.665,79.705 115.120,93.440 107.432 C 108.520 98.991,115.440 81.379,110.145 64.916 C 106.480 53.519,97.354 44.729,85.687 41.358 C 82.201 40.351,73.389 39.881,69.901 40.517 M196.474 48.868 C 195.766 49.217,162.231 82.477,121.952 122.778 C 50.381 194.389,48.708 196.100,48.300 198.095 C 47.658 201.241,48.378 203.600,50.630 205.733 C 52.905 207.888,56.605 208.501,59.382 207.183 C 60.180 206.805,92.936 174.358,134.042 133.228 C 206.194 61.034,207.287 59.916,207.709 57.856 C 207.945 56.706,208.074 55.554,207.998 55.296 C 207.921 55.038,207.743 54.302,207.603 53.661 C 207.291 52.236,205.099 49.670,203.478 48.832 C 201.935 48.034,198.123 48.054,196.474 48.868 M82.739 57.267 C 89.754 59.862,94.370 65.429,95.638 72.822 C 98.031 86.780,84.781 98.921,71.055 95.346 C 61.224 92.785,54.662 82.790,56.328 72.914 C 58.409 60.577,71.201 52.998,82.739 57.267 M171.307 145.107 C 166.938 146.171,160.978 149.142,157.451 152.014 C 143.122 163.679,139.837 184.224,149.849 199.561 C 165.019 222.799,199.787 220.838,212.037 196.053 C 214.746 190.573,215.466 187.803,215.763 181.735 C 216.042 176.014,215.318 171.523,213.302 166.475 C 208.991 155.680,198.926 147.279,187.371 144.830 C 183.249 143.956,175.480 144.090,171.307 145.107 M184.710 160.658 C 199.546 164.155,204.924 182.581,194.345 193.672 C 187.353 201.002,176.261 202.022,168.187 196.078 C 158.386 188.863,157.321 174.565,165.943 165.943 C 170.936 160.950,177.777 159.024,184.710 160.658 " stroke="none" fill-rule="evenodd"></path></svg>