<svg fill="currentColor" viewBox="0 0 256 256" xmlns="http://www.w3.org/2000/svg"><path d="M124.500 46.884 C 55.988 59.399,42.768 61.926,40.820 62.879 C 37.941 64.287,34.857 67.533,33.357 70.734 L 32.213 73.173 32.093 96.497 L 31.972 119.820 22.919 119.967 C 15.496 120.087,13.636 120.240,12.587 120.819 C 6.381 124.238,6.619 132.337,13.013 135.298 C 14.494 135.983,15.861 136.089,23.346 136.097 L 31.972 136.107 32.093 159.476 L 32.213 182.846 33.610 185.683 C 35.338 189.192,38.746 192.443,41.957 193.644 C 43.207 194.112,80.791 201.149,125.475 209.282 C 191.810 221.356,207.197 224.035,209.318 223.876 C 214.802 223.467,220.141 219.656,222.593 214.400 L 223.787 211.840 223.902 173.973 L 224.018 136.107 232.649 136.097 C 240.138 136.089,241.506 135.983,242.987 135.298 C 246.138 133.839,247.893 131.227,247.893 128.000 C 247.893 125.858,247.262 124.238,245.840 122.735 C 243.489 120.251,242.911 120.126,233.076 119.967 L 224.018 119.820 223.902 81.990 L 223.787 44.160 222.460 41.387 C 220.831 37.980,218.216 35.346,214.782 33.654 C 209.667 31.133,215.047 30.345,124.500 46.884 M207.787 84.053 L 207.787 119.893 127.996 119.893 L 48.205 119.893 48.316 98.462 L 48.427 77.032 127.147 62.670 C 170.443 54.772,206.299 48.288,206.827 48.261 L 207.787 48.213 207.787 84.053 M207.787 171.947 C 207.787 191.659,207.643 207.795,207.467 207.805 C 207.291 207.815,171.387 201.335,127.681 193.405 L 48.216 178.987 48.215 157.547 L 48.213 136.107 128.000 136.107 L 207.787 136.107 207.787 171.947 " stroke="none" fill-rule="evenodd"></path></svg>