<svg fill="currentColor" viewBox="0 0 256 256" xmlns="http://www.w3.org/2000/svg"><path d="M160.640 24.314 C 154.241 25.094,148.875 27.739,144.205 32.414 C 128.952 47.684,136.155 73.538,157.227 79.156 C 162.883 80.664,171.240 79.750,176.594 77.036 C 181.658 74.470,186.378 69.611,189.048 64.213 C 194.903 52.377,191.566 37.888,181.170 30.009 C 175.175 25.465,167.854 23.434,160.640 24.314 M169.368 41.445 C 173.608 43.564,175.699 47.039,175.750 52.053 C 175.842 61.045,166.223 66.781,158.292 62.465 C 152.690 59.416,150.513 52.555,153.325 46.808 C 155.444 42.476,159.112 40.205,164.092 40.140 C 166.193 40.113,167.203 40.363,169.368 41.445 M116.693 72.807 C 115.989 73.173,107.679 81.182,98.227 90.603 C 82.236 106.541,80.997 107.883,80.408 109.888 C 79.850 111.789,79.850 112.288,80.407 114.138 C 80.986 116.061,82.637 117.834,100.458 135.664 L 119.878 155.093 119.992 178.560 C 120.104 201.422,120.130 202.071,120.999 203.733 C 123.842 209.173,132.158 209.173,135.001 203.733 C 135.872 202.067,135.896 201.437,136.018 176.853 C 136.108 158.420,136.006 151.166,135.635 149.760 C 135.177 148.028,133.376 146.081,117.274 129.913 L 99.421 111.985 109.767 101.646 L 120.112 91.307 133.763 105.003 C 141.276 112.541,148.031 118.967,148.786 119.296 C 149.904 119.782,154.205 119.893,171.905 119.893 C 186.232 119.893,194.061 119.739,194.852 119.440 C 197.504 118.438,200.088 114.766,200.088 112.000 C 200.088 109.234,197.504 105.562,194.852 104.560 C 194.069 104.265,187.021 104.107,174.593 104.107 L 155.535 104.107 140.168 88.766 C 129.821 78.437,124.282 73.210,123.214 72.766 C 121.202 71.930,118.344 71.948,116.693 72.807 M48.483 136.741 C 39.850 138.540,32.982 142.328,27.071 148.551 C 19.744 156.264,16.095 165.390,16.095 176.000 C 16.095 193.933,27.500 209.085,45.047 214.461 C 48.515 215.524,49.479 215.630,55.893 215.654 C 63.754 215.683,66.712 215.095,72.754 212.304 C 93.679 202.636,102.157 176.847,91.034 156.699 C 85.980 147.544,76.475 140.107,66.347 137.381 C 61.892 136.182,52.738 135.854,48.483 136.741 M194.347 136.377 C 179.838 138.587,167.225 148.869,162.413 162.411 C 155.452 182.000,164.487 203.637,183.246 212.304 C 189.288 215.095,192.246 215.683,200.107 215.654 C 206.497 215.630,207.493 215.521,210.896 214.477 C 228.495 209.081,239.905 193.946,239.905 176.000 C 239.905 160.441,231.224 146.700,217.143 139.968 C 211.753 137.391,207.718 136.468,201.173 136.313 C 198.123 136.241,195.051 136.270,194.347 136.377 M62.720 153.024 C 69.610 154.904,75.580 160.428,78.385 167.519 C 79.438 170.182,79.546 170.967,79.546 176.000 C 79.546 181.033,79.438 181.818,78.385 184.481 C 71.715 201.341,50.335 205.312,38.232 191.938 C 29.700 182.510,30.048 168.451,39.039 159.309 C 45.337 152.905,53.928 150.625,62.720 153.024 M206.484 153.025 C 210.593 154.170,213.799 156.093,216.961 159.309 C 224.273 166.743,225.997 177.346,221.409 186.665 C 216.747 196.135,205.572 201.668,195.453 199.517 C 187.117 197.744,180.734 192.364,177.615 184.481 C 176.562 181.818,176.454 181.033,176.454 176.000 C 176.454 170.967,176.562 170.182,177.615 167.519 C 182.272 155.749,194.405 149.657,206.484 153.025 " stroke="none" fill-rule="evenodd"></path></svg>