<svg fill="currentColor" viewBox="0 0 256 256" xmlns="http://www.w3.org/2000/svg"><path d="M44.537 32.816 C 41.931 34.000,40.407 36.239,40.193 39.202 C 40.080 40.768,40.244 42.152,40.655 43.107 C 41.006 43.921,47.667 51.585,55.458 60.139 L 69.624 75.692 63.666 78.536 C 48.965 85.554,36.904 94.038,25.543 105.353 C 13.461 117.386,8.107 129.450,8.107 144.640 C 8.107 152.973,9.945 160.730,13.684 168.169 C 19.542 179.825,25.159 184.313,33.226 183.783 C 36.105 183.594,39.479 182.502,62.507 174.306 C 76.821 169.211,89.109 164.687,89.813 164.254 C 91.866 162.989,94.579 159.959,95.721 157.653 C 96.465 156.153,97.695 150.900,99.870 139.947 C 101.570 131.381,103.008 124.312,103.065 124.238 C 103.223 124.031,110.640 122.027,111.247 122.027 C 111.541 122.027,132.238 144.539,157.240 172.053 C 189.165 207.186,203.223 222.366,204.457 223.040 C 208.833 225.431,214.285 223.101,215.700 218.236 C 216.253 216.331,216.253 215.824,215.696 213.957 C 215.123 212.038,207.502 203.522,134.195 122.880 C 76.097 58.970,52.827 33.650,51.556 32.960 C 49.395 31.788,46.913 31.737,44.537 32.816 M119.680 64.248 C 119.211 64.364,118.398 64.551,117.874 64.663 C 116.501 64.955,113.889 67.384,113.216 68.993 C 111.613 72.830,113.335 77.528,116.993 79.299 C 118.734 80.141,119.562 80.213,127.507 80.213 C 143.612 80.213,157.719 82.488,171.733 87.343 C 189.263 93.417,205.522 103.339,218.396 115.819 C 225.246 122.460,228.911 128.290,230.883 135.680 C 232.195 140.597,232.198 148.403,230.889 153.387 C 229.945 156.982,226.411 164.446,224.627 166.613 L 223.573 167.893 218.335 166.080 C 211.328 163.655,208.699 163.706,205.935 166.320 C 204.240 167.924,203.495 169.530,203.452 171.667 C 203.405 173.997,203.783 175.223,205.085 176.960 C 206.417 178.739,207.537 179.298,214.811 181.816 C 219.605 183.475,221.360 183.890,223.604 183.891 C 231.287 183.897,236.696 179.352,242.316 168.169 C 249.695 153.487,249.796 136.156,242.588 121.582 C 238.698 113.717,232.336 106.177,222.933 98.292 C 201.276 80.128,175.954 69.099,147.113 65.267 C 140.856 64.436,121.776 63.727,119.680 64.248 M97.116 109.438 C 93.053 111.089,90.010 114.031,88.343 117.919 C 87.894 118.966,86.151 126.703,84.469 135.112 C 82.787 143.520,81.354 150.459,81.285 150.531 C 81.216 150.604,70.178 154.563,56.757 159.331 L 32.354 167.998 31.077 166.239 C 29.024 163.408,26.090 157.074,25.125 153.387 C 23.823 148.412,23.825 140.597,25.129 135.680 C 26.241 131.485,28.648 126.442,31.316 122.714 C 34.886 117.725,45.147 108.507,53.547 102.744 C 60.737 97.809,71.455 92.103,78.519 89.447 L 81.199 88.440 90.325 98.464 L 99.450 108.489 97.116 109.438 " stroke="none" fill-rule="evenodd"></path></svg>