<svg fill="currentColor" viewBox="0 0 256 256" xmlns="http://www.w3.org/2000/svg"><path d="M61.979 24.309 C 60.162 24.740,57.784 26.586,56.853 28.289 C 56.153 29.569,56.099 33.762,55.980 95.787 C 55.894 140.924,56.001 163.478,56.317 166.827 C 59.531 200.937,82.931 228.591,116.053 237.422 C 121.518 238.879,127.778 239.766,133.384 239.878 C 138.469 239.980,139.612 239.636,141.708 237.371 C 144.113 234.773,143.991 236.609,144.119 201.144 L 144.238 168.262 149.666 167.749 C 162.787 166.508,173.364 162.848,183.666 155.981 C 199.786 145.235,210.457 129.406,214.705 109.937 C 215.526 106.175,215.651 104.326,215.651 96.000 C 215.651 87.674,215.526 85.825,214.705 82.063 C 210.480 62.703,199.927 46.973,183.950 36.220 C 173.632 29.277,162.349 25.376,149.581 24.339 C 143.229 23.823,64.139 23.796,61.979 24.309 M128.000 84.565 C 128.000 109.289,127.838 128.844,127.634 128.619 C 127.195 128.132,78.593 41.680,78.237 40.753 C 78.017 40.180,80.830 40.107,102.994 40.107 L 128.000 40.107 128.000 84.565 M152.546 40.735 C 173.542 44.140,190.409 58.407,197.119 78.437 C 200.744 89.254,200.744 102.746,197.119 113.563 C 191.475 130.411,178.313 143.570,161.567 149.108 C 156.695 150.719,150.426 151.893,146.698 151.893 L 144.213 151.893 144.213 96.000 L 144.213 40.107 146.453 40.108 C 147.685 40.109,150.427 40.391,152.546 40.735 M97.236 107.433 C 110.871 131.673,122.027 151.593,122.027 151.700 C 122.027 151.806,110.795 151.893,97.067 151.893 L 72.107 151.893 72.107 107.449 C 72.107 83.004,72.183 63.084,72.276 63.182 C 72.370 63.280,83.602 83.193,97.236 107.433 M128.000 195.859 L 128.000 223.612 126.400 223.340 C 122.554 222.686,115.968 220.851,112.427 219.448 C 92.373 211.501,77.206 193.153,73.208 172.006 C 72.837 170.044,72.533 168.364,72.533 168.273 C 72.533 168.181,85.013 168.107,100.267 168.107 L 128.000 168.107 128.000 195.859 " stroke="none" fill-rule="evenodd"></path></svg>