<svg fill="currentColor" viewBox="0 0 256 256" xmlns="http://www.w3.org/2000/svg"><path d="M105.173 16.502 C 102.250 16.868,95.243 18.482,93.106 19.282 C 88.753 20.910,86.172 24.483,86.773 28.047 C 86.922 28.930,90.666 39.589,95.092 51.733 C 99.519 63.877,103.076 73.813,102.996 73.813 C 102.916 73.813,101.777 73.338,100.464 72.758 C 96.483 70.997,90.249 69.157,85.861 68.448 C 80.352 67.558,71.286 67.578,65.899 68.492 C 43.088 72.362,24.425 89.291,18.168 111.787 C 15.220 122.384,15.544 135.583,19.007 145.982 C 20.296 149.853,21.234 151.181,23.490 152.332 C 26.678 153.958,27.408 153.767,51.282 145.065 C 63.516 140.606,73.590 137.021,73.669 137.100 C 73.747 137.178,73.119 138.838,72.274 140.788 C 70.235 145.494,68.393 152.942,67.785 158.944 C 66.517 171.446,70.165 185.863,77.345 196.734 C 86.341 210.353,99.285 219.150,115.678 222.786 C 121.495 224.076,132.562 224.185,138.400 223.009 C 149.469 220.779,153.173 218.223,153.174 212.814 C 153.174 211.505,150.872 204.677,145.067 188.768 C 140.608 176.547,136.960 166.416,136.960 166.254 C 136.960 166.092,137.872 166.419,138.987 166.981 C 143.747 169.382,151.894 171.604,158.080 172.187 L 161.067 172.469 190.507 201.829 C 217.049 228.300,220.130 231.238,221.808 231.677 C 227.906 233.276,233.277 227.905,231.677 221.808 C 231.238 220.135,228.666 217.420,206.227 194.948 L 181.265 169.948 184.606 168.774 C 201.304 162.902,215.346 148.329,221.012 130.992 C 223.223 124.224,223.775 120.445,223.754 112.213 C 223.734 104.262,223.380 101.866,221.136 94.516 C 220.226 91.537,219.618 90.338,218.401 89.121 C 216.598 87.318,213.598 86.441,211.185 87.011 C 210.073 87.274,170.945 101.388,166.735 103.045 C 166.147 103.277,166.288 102.678,167.454 99.986 C 169.328 95.660,170.954 90.009,171.792 84.912 C 172.679 79.517,172.354 68.774,171.146 63.518 C 165.481 38.876,146.412 20.829,121.826 16.842 C 118.336 16.276,108.568 16.076,105.173 16.502 M122.869 33.324 C 139.452 37.536,152.090 50.562,155.510 66.965 C 158.613 81.850,153.864 97.238,142.948 107.667 C 139.348 111.107,135.236 114.095,134.792 113.594 C 134.461 113.221,105.387 33.381,105.387 32.845 C 105.387 31.699,117.810 32.039,122.869 33.324 M87.253 84.874 C 92.178 86.206,99.447 89.910,103.547 93.177 C 107.038 95.958,111.399 100.803,113.041 103.725 L 113.911 105.273 73.489 119.993 C 48.311 129.162,32.906 134.565,32.640 134.322 C 32.390 134.093,32.220 131.245,32.229 127.445 C 32.242 122.098,32.416 120.301,33.222 117.206 C 37.428 101.045,49.188 88.984,64.640 84.984 C 69.490 83.729,69.885 83.693,77.227 83.828 C 82.384 83.923,84.592 84.154,87.253 84.874 M207.528 106.062 C 208.067 107.466,207.779 117.833,207.111 121.085 C 204.970 131.508,198.814 141.261,190.293 147.732 C 186.490 150.621,179.815 153.801,174.710 155.158 C 171.006 156.142,169.623 156.289,164.053 156.289 C 158.525 156.289,157.089 156.139,153.512 155.187 C 145.772 153.128,139.519 149.645,133.808 144.214 C 130.281 140.861,126.045 135.317,126.606 134.790 C 126.916 134.499,206.415 105.436,206.994 105.403 C 207.145 105.394,207.385 105.690,207.528 106.062 M105.996 128.107 C 110.722 140.713,134.735 207.168,134.609 207.293 C 134.074 207.828,126.602 208.160,123.366 207.793 C 104.387 205.640,89.408 192.550,84.789 174.080 C 84.054 171.144,83.884 169.195,83.895 163.840 C 83.907 158.055,84.051 156.696,85.042 152.990 C 87.769 142.804,94.240 133.526,102.632 127.773 C 103.795 126.976,104.875 126.317,105.031 126.308 C 105.188 126.300,105.622 127.109,105.996 128.107 " stroke="none" fill-rule="evenodd"></path></svg>