<svg fill="currentColor" viewBox="0 0 256 256" xmlns="http://www.w3.org/2000/svg"><path d="M84.425 8.938 C 82.192 10.153,80.783 12.036,80.251 14.515 C 79.954 15.900,79.787 23.758,79.787 36.288 L 79.787 55.893 55.787 55.896 C 39.763 55.897,31.219 56.053,30.080 56.364 C 25.574 57.595,23.137 61.742,24.326 66.157 C 24.958 68.503,27.393 71.001,29.663 71.631 C 30.628 71.899,34.893 72.103,39.556 72.104 L 47.751 72.107 47.907 118.720 C 48.074 168.914,47.975 166.634,50.269 173.236 C 54.676 185.924,65.106 195.340,78.720 198.925 C 81.886 199.759,83.501 199.837,101.013 199.997 L 119.893 200.169 119.903 220.725 C 119.911 239.822,119.968 241.401,120.702 242.987 C 123.759 249.588,132.241 249.588,135.298 242.987 C 136.032 241.401,136.089 239.822,136.097 220.725 L 136.107 200.169 154.987 199.997 C 176.698 199.798,177.561 199.681,185.446 195.843 C 195.085 191.152,202.301 183.110,205.731 173.236 C 208.025 166.634,207.926 168.914,208.093 118.720 L 208.249 72.107 216.444 72.104 C 221.107 72.103,225.372 71.899,226.337 71.631 C 228.597 71.003,231.042 68.502,231.668 66.176 C 232.620 62.644,231.346 59.374,228.208 57.297 L 226.410 56.107 201.312 55.984 L 176.213 55.861 176.213 36.272 C 176.213 15.363,176.045 13.253,174.202 11.062 C 170.488 6.649,163.360 7.409,160.905 12.480 C 160.021 14.307,160.000 14.826,160.000 35.121 L 160.000 55.893 128.000 55.893 L 96.000 55.893 96.000 35.121 C 96.000 14.826,95.979 14.307,95.095 12.480 C 93.275 8.720,88.027 6.979,84.425 8.938 M191.904 118.507 C 191.787 164.661,191.782 164.919,190.879 167.274 C 187.964 174.881,183.369 179.705,176.374 182.505 L 173.440 183.680 128.000 183.680 L 82.560 183.680 79.626 182.505 C 71.815 179.379,65.912 172.371,64.466 164.508 C 64.148 162.782,64.000 147.679,64.000 117.042 L 64.000 72.107 128.011 72.107 L 192.022 72.107 191.904 118.507 M121.418 88.508 C 117.868 89.814,117.489 90.531,110.533 109.126 C 104.027 126.520,103.562 128.210,104.560 130.852 C 105.206 132.560,107.027 134.378,109.013 135.298 C 110.531 136.000,111.919 136.089,121.522 136.097 L 132.324 136.107 132.024 137.067 C 131.859 137.595,130.012 142.539,127.920 148.053 C 123.694 159.190,123.388 160.857,125.030 163.778 C 127.702 168.533,133.478 169.392,137.422 165.621 C 138.918 164.191,139.624 162.547,145.477 146.874 C 152.112 129.109,152.489 127.690,151.317 124.886 C 150.555 123.063,148.044 120.903,146.038 120.346 C 145.118 120.090,139.974 119.897,134.051 119.896 L 123.676 119.893 123.977 118.933 C 124.142 118.405,125.979 113.471,128.059 107.967 C 132.319 96.693,132.605 95.034,130.815 91.980 C 128.990 88.866,124.727 87.291,121.418 88.508 " stroke="none" fill-rule="evenodd"></path></svg>