<svg fill="currentColor" viewBox="0 0 256 256" xmlns="http://www.w3.org/2000/svg"><path d="M112.651 16.856 C 111.132 17.199,108.348 18.223,106.464 19.132 C 96.117 24.127,89.779 32.900,88.256 44.335 C 87.628 49.052,88.216 53.895,90.045 59.078 C 90.739 61.044,91.307 62.742,91.307 62.853 C 91.307 63.257,58.031 93.013,57.578 93.013 C 57.322 93.013,56.289 92.531,55.284 91.942 C 48.775 88.127,38.761 87.093,30.787 89.411 C 23.023 91.668,15.151 98.193,11.525 105.377 C 6.656 115.023,6.779 125.528,11.878 135.467 C 14.202 139.997,20.394 146.017,25.173 148.395 C 36.021 153.790,47.856 153.105,57.857 146.504 C 59.055 145.713,60.166 145.067,60.325 145.067 C 60.564 145.067,128.726 194.855,129.843 195.845 C 130.035 196.015,129.747 197.572,129.203 199.304 C 127.772 203.859,127.777 212.149,129.213 216.747 C 131.744 224.849,137.349 231.975,144.213 235.818 C 157.896 243.479,175.315 240.111,184.985 227.935 C 187.273 225.054,189.959 219.700,190.919 216.107 C 194.202 203.815,189.233 189.698,179.041 182.363 L 177.815 181.481 191.433 142.900 L 205.051 104.320 209.026 104.013 C 221.661 103.037,231.408 96.654,236.574 85.973 C 239.017 80.921,239.834 77.403,239.821 71.990 C 239.798 62.895,236.383 54.927,229.873 48.781 C 219.237 38.740,203.297 37.262,190.733 45.151 C 187.720 47.042,183.408 51.192,181.718 53.825 C 180.980 54.975,180.079 55.881,179.689 55.865 C 179.303 55.850,172.939 54.170,165.547 52.132 L 152.107 48.427 151.781 44.829 C 151.405 40.681,149.667 35.253,147.569 31.675 C 145.635 28.376,139.519 22.339,136.107 20.360 C 131.309 17.577,127.342 16.533,120.960 16.373 C 117.180 16.278,114.534 16.432,112.651 16.856 M126.470 33.422 C 129.589 34.850,132.271 37.413,134.020 40.639 C 135.415 43.212,135.467 43.474,135.467 48.000 C 135.467 52.321,135.371 52.874,134.267 54.972 C 130.462 62.195,122.823 65.521,115.359 63.205 C 104.913 59.962,100.733 47.774,106.992 38.806 C 108.939 36.016,112.419 33.534,115.627 32.649 C 118.928 31.738,123.504 32.064,126.470 33.422 M214.030 57.231 C 217.175 58.408,220.664 61.690,222.283 64.993 C 226.226 73.038,222.714 82.775,214.400 86.852 C 212.086 87.986,211.431 88.107,207.573 88.107 C 203.723 88.107,203.059 87.985,200.770 86.861 C 197.418 85.216,194.801 82.525,193.143 79.019 C 191.935 76.464,191.791 75.752,191.796 72.320 C 191.799 69.056,191.972 68.112,192.944 66.026 C 195.136 61.319,200.024 57.332,204.821 56.338 C 207.366 55.810,211.236 56.186,214.030 57.231 M162.624 67.923 L 175.702 71.467 176.194 75.299 C 177.304 83.956,181.277 91.471,187.317 96.339 C 188.687 97.443,189.808 98.635,189.808 98.987 C 189.809 99.339,183.726 116.811,176.291 137.813 L 162.773 176.000 158.293 176.257 C 155.829 176.398,152.673 176.846,151.279 177.252 C 148.397 178.092,143.379 180.505,141.362 182.020 C 140.615 182.581,139.884 183.040,139.738 183.040 C 139.509 183.040,71.255 133.147,70.238 132.237 C 70.027 132.047,70.249 130.449,70.749 128.564 C 72.597 121.603,72.356 115.832,69.931 108.962 C 69.250 107.033,68.693 105.348,68.693 105.218 C 68.693 105.087,76.254 98.168,85.494 89.842 L 102.295 74.703 105.014 76.177 C 110.488 79.143,117.264 80.467,123.414 79.774 C 127.395 79.325,133.104 77.426,136.375 75.463 C 139.560 73.550,144.118 69.300,146.155 66.343 C 147.452 64.459,147.991 63.993,148.676 64.164 C 149.155 64.283,155.432 65.975,162.624 67.923 M46.749 105.596 C 49.976 107.174,52.848 110.056,54.418 113.289 C 55.515 115.549,55.657 116.303,55.668 119.902 C 55.679 123.642,55.569 124.190,54.283 126.802 C 52.534 130.356,49.170 133.539,45.759 134.869 C 40.494 136.922,33.805 135.832,29.746 132.259 C 20.377 124.012,23.013 109.237,34.621 104.935 C 38.075 103.655,43.372 103.943,46.749 105.596 M164.066 192.661 C 169.053 193.960,173.092 197.637,174.939 202.559 C 176.247 206.047,176.024 211.271,174.420 214.714 C 172.957 217.853,169.617 221.186,166.501 222.614 C 164.424 223.566,163.439 223.740,160.000 223.761 C 156.471 223.783,155.633 223.640,153.525 222.652 C 150.289 221.135,147.630 218.601,145.873 215.361 C 144.478 212.788,144.427 212.526,144.427 208.000 C 144.427 203.705,144.526 203.118,145.599 201.082 C 147.887 196.742,151.370 193.859,155.747 192.683 C 158.809 191.860,160.970 191.855,164.066 192.661 " stroke="none" fill-rule="evenodd"></path></svg>