<svg fill="currentColor" viewBox="0 0 256 256" xmlns="http://www.w3.org/2000/svg"><path d="M128.239 16.917 C 112.149 20.366,100.363 34.781,100.121 51.306 L 100.053 55.892 81.892 55.893 C 70.615 55.893,62.777 56.070,61.216 56.358 C 54.328 57.631,49.354 62.781,48.198 69.836 C 47.975 71.202,47.790 79.444,47.789 88.151 L 47.787 103.983 42.560 104.238 C 36.724 104.524,33.658 105.225,29.152 107.303 C 16.041 113.350,8.107 125.657,8.107 139.947 C 8.107 159.706,23.814 175.724,43.412 175.950 L 47.785 176.000 47.786 192.028 C 47.786 201.727,47.970 209.056,48.250 210.588 C 49.213 215.845,52.692 220.341,57.600 222.672 L 59.947 223.787 135.893 223.787 L 211.840 223.787 214.445 222.583 C 217.739 221.060,221.026 217.760,222.593 214.400 L 223.787 211.840 223.907 187.826 C 224.023 164.730,223.995 163.739,223.188 161.914 C 222.590 160.562,221.764 159.645,220.317 158.728 C 217.727 157.086,215.356 157.037,211.357 158.546 C 199.278 163.102,186.340 155.640,184.348 142.967 C 183.034 134.611,187.561 125.943,195.174 122.232 C 200.650 119.563,205.765 119.437,212.441 121.810 C 215.323 122.834,215.788 122.888,217.714 122.426 C 218.875 122.147,220.465 121.359,221.245 120.673 C 224.073 118.191,224.044 118.495,223.909 91.947 L 223.787 68.053 222.643 65.614 C 220.330 60.678,215.762 57.169,210.536 56.314 C 209.141 56.085,199.914 55.897,190.031 55.896 L 172.062 55.893 171.827 50.667 C 171.672 47.216,171.291 44.425,170.704 42.453 C 166.775 29.253,156.483 19.614,143.373 16.856 C 139.539 16.050,132.149 16.080,128.239 16.917 M142.671 33.227 C 147.759 35.015,151.834 38.851,154.349 44.221 C 155.430 46.528,155.520 47.130,155.520 52.053 C 155.520 56.832,155.409 57.631,154.453 59.733 C 152.374 64.308,153.546 68.728,157.446 71.020 C 158.891 71.869,159.624 71.897,183.360 72.013 L 207.787 72.133 207.787 88.062 L 207.787 103.991 202.560 104.225 C 196.506 104.496,192.713 105.443,187.811 107.908 C 179.163 112.256,172.907 119.492,169.837 128.698 C 166.789 137.837,167.446 147.197,171.753 155.968 C 177.689 168.056,189.997 175.770,203.627 175.944 L 207.787 175.997 207.787 192.105 L 207.787 208.213 135.893 208.213 L 64.000 208.213 63.991 185.920 C 63.980 160.303,64.090 161.121,60.313 158.725 C 57.728 157.086,55.354 157.038,51.357 158.546 C 34.272 164.990,18.226 147.515,26.225 131.174 C 28.997 125.511,34.711 121.330,41.034 120.335 C 44.510 119.789,48.036 120.244,52.441 121.810 C 55.313 122.830,55.793 122.887,57.692 122.431 C 60.249 121.818,62.159 120.277,63.198 117.991 C 63.925 116.390,63.982 114.686,63.991 94.187 L 64.000 72.107 88.000 72.097 C 110.450 72.089,112.110 72.037,113.707 71.298 C 114.645 70.863,115.929 69.955,116.560 69.280 C 118.925 66.748,119.196 63.934,117.504 59.464 C 114.607 51.808,116.308 43.618,121.970 37.966 C 124.539 35.401,128.622 33.116,131.840 32.441 C 134.577 31.867,139.901 32.253,142.671 33.227 " stroke="none" fill-rule="evenodd"></path></svg>