<svg fill="currentColor" viewBox="0 0 256 256" xmlns="http://www.w3.org/2000/svg"><path d="M120.960 24.326 C 100.935 25.586,81.587 32.844,64.891 45.360 C 59.554 49.360,49.234 59.686,45.276 64.986 C 34.512 79.399,27.973 94.882,25.095 112.768 C 23.886 120.283,23.787 134.307,24.890 141.867 C 27.542 160.046,34.293 176.318,45.279 191.014 C 49.299 196.392,59.608 206.701,64.986 210.721 C 79.686 221.710,96.000 228.476,114.133 231.105 C 117.683 231.620,121.936 231.847,128.000 231.847 C 144.598 231.847,158.874 228.583,173.440 221.458 C 184.661 215.968,192.320 210.472,201.396 201.396 C 210.475 192.317,215.974 184.654,221.456 173.440 C 235.707 144.287,235.458 110.173,220.780 81.026 C 214.698 68.950,203.517 55.194,193.067 46.931 C 172.349 30.550,147.221 22.673,120.960 24.326 M142.080 41.152 C 159.933 44.170,175.895 52.156,188.870 64.559 C 202.597 77.682,211.532 94.696,214.904 114.133 C 215.937 120.088,215.932 135.829,214.895 141.867 C 212.390 156.454,206.990 169.066,198.207 180.843 C 173.373 214.141,127.558 225.417,90.240 207.417 C 81.119 203.017,74.345 198.338,67.182 191.490 C 53.399 178.314,44.463 161.314,41.098 141.867 C 40.060 135.867,40.060 120.133,41.098 114.133 C 46.547 82.647,66.943 57.480,96.401 45.891 C 101.417 43.918,110.346 41.621,115.413 41.001 C 117.525 40.743,119.733 40.449,120.320 40.349 C 122.762 39.932,138.241 40.503,142.080 41.152 M120.039 72.710 C 111.283 74.378,103.680 78.485,97.635 84.813 C 91.003 91.755,87.889 99.704,87.906 109.653 C 87.913 113.732,88.665 115.921,90.720 117.840 C 94.722 121.578,100.894 120.179,103.298 114.987 C 103.885 113.718,104.093 112.239,104.109 109.227 C 104.124 106.161,104.360 104.524,105.078 102.508 C 108.178 93.799,117.146 88.203,128.000 88.203 C 138.854 88.203,147.822 93.799,150.922 102.508 C 155.121 114.306,144.971 126.733,130.238 127.831 C 126.122 128.138,124.502 128.620,122.808 130.046 C 120.473 132.011,119.912 133.929,119.912 139.947 C 119.912 144.239,120.066 145.613,120.702 146.987 C 124.210 154.564,134.283 153.132,136.012 144.811 C 136.330 143.284,136.410 143.230,139.529 142.420 C 159.217 137.312,171.671 118.140,167.003 100.125 C 163.675 87.279,152.917 77.079,138.729 73.317 C 134.486 72.192,124.466 71.867,120.039 72.710 M124.584 168.480 C 121.547 169.476,118.553 172.053,117.111 174.914 C 115.981 177.155,115.799 181.200,116.705 183.928 C 118.215 188.476,123.146 192.000,128.000 192.000 C 132.854 192.000,137.785 188.476,139.295 183.928 C 140.201 181.200,140.019 177.155,138.889 174.914 C 137.855 172.862,135.360 170.333,133.333 169.283 C 131.478 168.321,126.470 167.862,124.584 168.480 " stroke="none" fill-rule="evenodd"></path></svg>