<svg fill="currentColor" viewBox="0 0 256 256" xmlns="http://www.w3.org/2000/svg"><path d="M120.960 24.326 C 100.935 25.586,81.587 32.844,64.891 45.360 C 59.554 49.360,49.234 59.686,45.276 64.986 C 34.512 79.399,27.973 94.882,25.095 112.768 C 23.886 120.283,23.787 134.307,24.890 141.867 C 27.542 160.046,34.293 176.318,45.279 191.014 C 49.299 196.392,59.608 206.701,64.986 210.721 C 79.686 221.710,96.000 228.476,114.133 231.105 C 117.683 231.620,121.936 231.847,128.000 231.847 C 144.598 231.847,158.874 228.583,173.440 221.458 C 184.661 215.968,192.320 210.472,201.396 201.396 C 210.475 192.317,215.974 184.654,221.456 173.440 C 235.707 144.287,235.458 110.173,220.780 81.026 C 214.698 68.950,203.517 55.194,193.067 46.931 C 172.349 30.550,147.221 22.673,120.960 24.326 M142.080 41.152 C 159.933 44.170,175.895 52.156,188.870 64.559 C 202.597 77.682,211.532 94.696,214.904 114.133 C 215.937 120.088,215.932 135.829,214.895 141.867 C 212.390 156.454,206.990 169.066,198.207 180.843 C 173.373 214.141,127.558 225.417,90.240 207.417 C 81.119 203.017,74.345 198.338,67.182 191.490 C 53.399 178.314,44.463 161.314,41.098 141.867 C 40.060 135.867,40.060 120.133,41.098 114.133 C 46.547 82.647,66.943 57.480,96.401 45.891 C 101.417 43.918,110.346 41.621,115.413 41.001 C 117.525 40.743,119.733 40.449,120.320 40.349 C 122.762 39.932,138.241 40.503,142.080 41.152 M119.467 64.645 C 109.472 66.017,100.761 69.324,92.373 74.929 C 78.380 84.280,69.005 98.275,65.184 115.516 C 63.846 121.552,63.846 134.448,65.184 140.484 C 70.947 166.489,89.524 185.071,115.481 190.796 C 121.566 192.138,134.434 192.138,140.519 190.796 C 166.457 185.075,185.119 166.411,190.790 140.519 C 192.038 134.819,192.157 122.434,191.020 116.693 C 189.152 107.271,184.799 97.162,179.627 90.240 C 165.495 71.325,142.392 61.496,119.467 64.645 M136.584 80.840 C 156.334 84.298,172.483 100.892,175.380 120.704 C 176.094 125.591,175.676 135.326,174.572 139.520 C 170.630 154.490,159.936 166.874,146.198 172.375 C 122.672 181.795,96.617 172.039,85.234 149.547 C 81.675 142.516,80.213 136.241,80.213 128.000 C 80.213 119.528,81.722 113.264,85.543 105.864 C 92.238 92.902,104.985 83.421,119.183 80.845 C 123.382 80.083,132.248 80.080,136.584 80.840 " stroke="none" fill-rule="evenodd"></path></svg>