<svg fill="currentColor" viewBox="0 0 256 256" xmlns="http://www.w3.org/2000/svg"><path d="M190.507 24.179 C 190.037 24.291,153.366 35.260,109.016 48.554 C 33.703 71.128,28.274 72.818,26.801 74.149 C 23.649 76.996,23.856 72.062,23.988 141.227 L 24.107 203.307 25.224 205.957 C 27.063 210.321,30.434 213.551,34.721 215.057 C 37.053 215.877,38.826 215.893,128.000 215.893 C 217.174 215.893,218.947 215.877,221.279 215.057 C 225.566 213.551,228.937 210.321,230.776 205.957 L 231.893 203.307 231.893 144.000 L 231.893 84.693 230.867 82.144 C 229.561 78.901,226.312 75.426,222.933 73.659 L 220.373 72.320 153.630 72.107 L 86.887 71.893 140.830 55.739 C 173.528 45.947,195.383 39.194,196.321 38.594 C 199.724 36.417,200.983 31.537,199.012 28.162 C 197.403 25.407,193.333 23.501,190.507 24.179 M215.893 144.000 L 215.893 200.107 128.000 200.107 L 40.107 200.107 40.107 144.000 L 40.107 87.893 128.000 87.893 L 215.893 87.893 215.893 144.000 M60.800 104.711 C 58.241 105.854,55.882 109.410,55.903 112.093 C 55.924 114.787,58.543 118.455,61.148 119.440 C 61.926 119.733,68.566 119.893,80.000 119.893 C 91.434 119.893,98.074 119.733,98.852 119.440 C 101.504 118.438,104.088 114.766,104.088 112.000 C 104.088 109.234,101.504 105.562,98.852 104.560 C 96.947 103.841,62.444 103.977,60.800 104.711 M153.455 104.526 C 140.937 106.797,129.901 114.897,124.377 125.867 C 116.414 141.681,119.589 160.352,132.364 172.831 C 137.238 177.593,143.169 180.856,150.747 182.946 C 154.462 183.971,165.538 183.971,169.253 182.946 C 176.814 180.861,182.520 177.711,187.603 172.817 C 207.633 153.531,202.588 120.712,177.673 108.220 C 172.355 105.553,167.837 104.473,161.280 104.302 C 158.112 104.219,154.591 104.319,153.455 104.526 M167.467 121.260 C 174.500 123.572,180.772 129.931,182.951 136.960 C 183.947 140.171,183.947 147.829,182.951 151.040 C 182.016 154.057,179.506 158.179,177.067 160.708 C 167.753 170.359,152.247 170.359,142.933 160.708 C 140.494 158.179,137.984 154.057,137.049 151.040 C 136.053 147.829,136.053 140.171,137.049 136.960 C 139.109 130.315,144.865 124.204,151.545 121.568 C 156.075 119.781,162.583 119.655,167.467 121.260 M60.800 136.711 C 58.241 137.854,55.882 141.410,55.903 144.093 C 55.924 146.787,58.543 150.455,61.148 151.440 C 61.926 151.733,68.566 151.893,80.000 151.893 C 91.434 151.893,98.074 151.733,98.852 151.440 C 101.504 150.438,104.088 146.766,104.088 144.000 C 104.088 141.234,101.504 137.562,98.852 136.560 C 96.947 135.841,62.444 135.977,60.800 136.711 M60.800 168.711 C 58.241 169.854,55.882 173.410,55.903 176.093 C 55.924 178.787,58.543 182.455,61.148 183.440 C 61.926 183.733,68.566 183.893,80.000 183.893 C 91.434 183.893,98.074 183.733,98.852 183.440 C 101.504 182.438,104.088 178.766,104.088 176.000 C 104.088 173.234,101.504 169.562,98.852 168.560 C 96.947 167.841,62.444 167.977,60.800 168.711 " stroke="none" fill-rule="evenodd"></path></svg>