<svg fill="currentColor" viewBox="0 0 256 256" xmlns="http://www.w3.org/2000/svg"><path d="M115.840 48.677 C 93.520 50.965,73.064 59.172,54.400 73.326 C 48.912 77.488,37.381 89.019,33.220 94.507 C 22.113 109.153,14.939 124.289,11.076 141.227 C 8.723 151.544,8.441 154.446,8.222 170.547 C 8.020 185.415,8.028 185.595,8.967 187.535 C 11.586 192.945,19.221 193.466,22.535 188.460 L 23.680 186.731 23.950 173.470 C 24.290 156.808,24.971 150.910,27.771 140.390 C 31.230 127.396,38.297 113.678,47.232 102.613 C 51.066 97.865,58.776 90.191,63.387 86.534 C 75.337 77.057,91.430 69.466,106.027 66.422 C 114.426 64.671,118.775 64.238,128.000 64.238 C 137.225 64.238,141.574 64.671,149.973 66.422 C 164.402 69.431,179.154 76.310,191.787 85.921 C 196.538 89.536,204.676 97.533,208.773 102.613 C 218.122 114.207,225.160 128.197,228.691 142.204 C 230.998 151.356,231.713 157.956,232.031 173.045 L 232.320 186.731 233.465 188.460 C 236.779 193.466,244.414 192.945,247.033 187.535 C 247.972 185.594,247.980 185.416,247.777 170.547 C 247.605 157.943,247.426 154.638,246.670 150.049 C 243.199 128.985,235.693 111.534,222.780 94.507 C 218.619 89.019,207.088 77.488,201.600 73.326 C 182.691 58.986,162.426 50.924,139.581 48.653 C 134.502 48.148,120.866 48.162,115.840 48.677 M117.161 80.699 C 103.924 82.398,89.862 87.681,78.933 95.064 C 57.501 109.540,43.691 132.282,40.544 158.282 C 40.304 160.271,40.107 167.266,40.107 173.827 C 40.107 185.112,40.156 185.858,41.012 187.627 C 43.586 192.945,51.252 193.418,54.535 188.460 L 55.680 186.731 55.966 173.686 C 56.191 163.418,56.438 159.579,57.127 155.658 C 58.345 148.722,60.610 142.041,64.040 135.269 C 73.689 116.221,91.582 102.386,112.617 97.710 C 122.044 95.614,133.519 95.607,143.262 97.691 C 164.080 102.143,182.303 116.205,191.960 135.269 C 198.071 147.335,199.606 154.639,200.030 173.685 L 200.320 186.731 201.465 188.460 C 204.748 193.418,212.414 192.945,214.988 187.627 C 215.846 185.855,215.893 185.125,215.885 173.625 C 215.880 165.634,215.671 159.964,215.275 157.013 C 211.828 131.346,198.094 109.172,176.810 94.909 C 165.658 87.435,151.884 82.345,138.251 80.660 C 134.000 80.135,121.378 80.158,117.161 80.699 M118.248 112.898 C 106.964 114.790,95.919 120.736,87.620 129.387 C 81.508 135.760,77.310 142.761,74.735 150.879 C 72.492 157.948,72.107 161.372,72.107 174.215 C 72.107 185.105,72.158 185.863,73.012 187.627 C 75.586 192.945,83.252 193.418,86.535 188.461 L 87.680 186.732 87.942 174.753 C 88.131 166.082,88.394 161.920,88.895 159.683 C 91.667 147.301,100.057 136.907,111.576 131.585 C 116.792 129.175,121.340 128.252,128.000 128.252 C 132.509 128.252,134.575 128.456,137.515 129.190 C 152.268 132.874,163.782 144.742,167.099 159.683 C 167.591 161.898,167.861 166.165,168.053 174.753 L 168.320 186.732 169.465 188.461 C 172.748 193.418,180.414 192.945,182.988 187.627 C 183.842 185.863,183.893 185.105,183.893 174.215 C 183.893 161.372,183.508 157.948,181.265 150.879 C 175.037 131.246,157.608 116.153,137.372 112.872 C 132.416 112.068,123.123 112.081,118.248 112.898 " stroke="none" fill-rule="evenodd"></path></svg>