<svg fill="currentColor" viewBox="0 0 256 256" xmlns="http://www.w3.org/2000/svg"><path d="M108.793 56.463 C 107.499 56.747,105.387 57.577,104.100 58.307 C 98.634 61.408,14.968 114.917,13.146 116.476 C 11.849 117.587,10.649 119.197,9.733 121.059 C 8.433 123.698,8.320 124.255,8.320 127.991 C 8.320 131.489,8.476 132.387,9.444 134.451 C 10.063 135.770,11.283 137.640,12.156 138.606 C 13.917 140.555,103.640 197.937,106.798 199.133 C 109.539 200.171,114.850 200.045,117.865 198.869 C 121.276 197.539,124.640 194.356,126.390 190.803 L 127.787 187.966 127.909 167.583 C 127.976 156.372,128.140 147.200,128.273 147.200 C 128.406 147.200,146.495 158.657,168.471 172.661 C 190.447 186.664,209.335 198.470,210.446 198.896 C 216.732 201.307,223.546 199.573,228.066 194.410 C 229.124 193.202,230.418 191.157,230.941 189.867 L 231.893 187.520 231.893 128.000 L 231.893 68.480 230.941 66.133 C 228.923 61.158,223.776 57.102,218.608 56.416 C 215.266 55.972,211.486 56.506,209.100 57.760 C 208.025 58.325,189.346 70.119,167.589 83.970 L 128.031 109.154 127.909 88.594 L 127.787 68.034 126.390 65.197 C 123.097 58.511,115.855 54.916,108.793 56.463 M215.790 155.875 L 215.680 183.750 172.061 155.982 C 148.070 140.709,128.443 128.117,128.446 128.000 C 128.449 127.883,148.078 115.299,172.066 100.037 L 215.680 72.287 215.790 100.144 C 215.850 115.465,215.850 140.544,215.790 155.875 M111.787 128.036 C 111.787 166.054,111.648 183.491,111.346 183.391 C 111.103 183.310,91.427 170.862,67.621 155.729 L 24.338 128.213 25.316 127.443 C 26.761 126.304,111.092 72.572,111.467 72.551 C 111.643 72.541,111.787 97.509,111.787 128.036 " stroke="none" fill-rule="evenodd"></path></svg>