<svg fill="currentColor" viewBox="0 0 256 256" xmlns="http://www.w3.org/2000/svg"><path d="M42.194 49.216 C 37.922 50.976,35.146 53.634,33.198 57.827 L 32.213 59.947 32.089 82.959 C 31.969 105.110,31.997 106.076,32.835 108.772 C 34.391 113.780,38.403 117.799,43.323 119.280 C 46.388 120.202,209.612 120.202,212.677 119.280 C 217.597 117.799,221.609 113.780,223.165 108.772 C 224.003 106.076,224.031 105.110,223.911 82.959 L 223.787 59.947 222.672 57.600 C 221.018 54.117,218.435 51.454,215.133 49.829 L 212.285 48.427 128.436 48.328 L 44.587 48.230 42.194 49.216 M207.787 84.053 L 207.787 104.107 128.000 104.107 L 48.213 104.107 48.213 84.053 L 48.213 64.000 128.000 64.000 L 207.787 64.000 207.787 84.053 M42.880 136.876 C 37.981 138.577,34.365 142.304,32.835 147.228 C 31.997 149.924,31.969 150.890,32.089 173.041 L 32.213 196.053 33.328 198.400 C 35.659 203.308,40.155 206.787,45.412 207.750 C 48.972 208.402,207.028 208.402,210.588 207.750 C 215.845 206.787,220.341 203.308,222.672 198.400 L 223.787 196.053 223.911 173.041 C 224.031 150.890,224.003 149.924,223.165 147.228 C 222.065 143.690,219.945 140.806,217.009 138.857 C 212.557 135.901,219.229 136.105,127.826 136.121 C 50.319 136.134,44.877 136.182,42.880 136.876 M207.787 171.947 L 207.787 192.000 128.000 192.000 L 48.213 192.000 48.213 171.947 L 48.213 151.893 128.000 151.893 L 207.787 151.893 207.787 171.947 " stroke="none" fill-rule="evenodd"></path></svg>