<svg fill="currentColor" viewBox="0 0 256 256" xmlns="http://www.w3.org/2000/svg"><path d="M52.693 40.780 C 48.719 42.979,47.226 46.702,48.621 50.929 C 49.255 52.851,52.027 55.354,53.841 55.644 C 54.618 55.769,58.805 56.069,63.147 56.312 C 84.772 57.522,102.962 62.376,121.387 71.853 C 152.966 88.096,176.988 114.553,189.995 147.413 C 195.752 161.957,198.770 176.168,199.690 193.067 C 199.933 197.525,200.313 201.851,200.535 202.679 C 201.442 206.069,205.939 208.535,209.686 207.698 C 211.894 207.205,212.985 206.481,214.478 204.518 L 215.680 202.938 215.634 194.589 C 215.473 165.761,205.079 134.190,187.394 108.815 C 177.257 94.270,162.876 79.751,148.556 69.602 C 122.770 51.327,92.594 41.148,61.653 40.285 C 55.027 40.100,53.798 40.168,52.693 40.780 M52.693 112.710 C 51.484 113.377,49.502 115.262,48.963 116.257 C 47.392 119.157,47.939 122.963,50.280 125.417 C 52.223 127.454,53.545 127.808,61.440 128.399 C 64.843 128.654,69.291 129.232,71.326 129.685 C 98.711 135.777,120.223 157.289,126.315 184.674 C 126.768 186.709,127.346 191.157,127.601 194.560 C 128.192 202.455,128.546 203.777,130.583 205.720 C 132.117 207.183,135.372 208.394,136.704 207.998 C 136.962 207.921,137.698 207.743,138.339 207.603 C 139.794 207.284,142.321 205.100,143.260 203.350 C 144.155 201.683,144.089 194.393,143.118 187.748 C 137.922 152.158,112.133 123.517,77.383 114.741 C 68.627 112.530,55.045 111.413,52.693 112.710 M57.600 184.282 C 46.458 186.632,44.618 201.744,54.863 206.756 C 60.815 209.669,68.368 206.834,71.082 200.669 C 72.148 198.247,72.099 193.548,70.982 191.147 C 68.677 186.190,62.814 183.182,57.600 184.282 " stroke="none" fill-rule="evenodd"></path></svg>