<svg fill="currentColor" viewBox="0 0 256 256" xmlns="http://www.w3.org/2000/svg"><path d="M35.627 32.301 C 25.231 33.772,15.748 40.710,11.252 50.133 C 8.268 56.388,7.271 64.411,8.760 70.204 C 10.270 76.081,14.443 82.689,18.650 85.865 C 20.530 87.285,21.399 87.651,23.257 87.805 C 27.650 88.169,31.408 85.168,31.888 80.912 C 32.196 78.176,31.380 76.262,28.764 73.582 C 24.792 69.514,23.502 65.953,24.334 61.362 C 25.287 56.109,28.374 51.988,33.090 49.672 C 35.404 48.536,36.020 48.427,40.107 48.427 C 44.390 48.427,44.704 48.490,47.254 49.873 C 50.495 51.630,53.028 54.289,54.545 57.525 L 55.680 59.947 55.908 128.640 C 56.164 206.099,55.811 198.699,59.627 206.507 C 61.301 209.933,62.205 211.156,65.470 214.417 C 69.735 218.675,73.542 220.969,79.360 222.787 L 82.560 223.787 144.000 223.787 L 205.440 223.787 208.640 222.787 C 214.458 220.969,218.265 218.675,222.530 214.417 C 225.794 211.157,226.700 209.932,228.374 206.507 C 231.154 200.822,231.846 197.922,231.836 192.000 C 231.829 187.773,231.666 186.621,230.656 183.684 C 229.175 179.377,227.125 175.996,223.915 172.563 C 220.294 168.693,218.857 168.107,212.985 168.107 L 208.213 168.107 208.210 116.373 C 208.208 84.613,208.041 63.200,207.779 60.909 C 206.238 47.459,197.702 37.216,184.678 33.189 L 181.547 32.221 109.227 32.170 C 69.451 32.142,36.331 32.201,35.627 32.301 M181.544 49.102 C 184.712 50.288,187.179 52.230,189.109 55.058 C 192.142 59.501,192.000 56.537,192.000 115.290 L 192.000 168.107 147.093 168.116 C 104.156 168.125,102.110 168.160,100.430 168.923 C 98.116 169.974,96.379 172.294,96.108 174.696 C 95.727 178.080,96.255 179.446,99.034 182.269 C 103.232 186.533,104.514 189.958,103.666 194.638 C 101.292 207.731,85.311 212.527,76.372 202.829 C 75.392 201.766,74.079 199.806,73.455 198.475 L 72.320 196.053 72.092 127.360 C 71.840 51.220,72.083 57.453,69.110 50.895 L 67.894 48.213 123.531 48.213 C 178.870 48.213,179.181 48.218,181.544 49.102 M100.903 96.796 C 93.752 100.044,94.841 110.173,102.512 111.766 C 104.097 112.095,114.732 112.203,137.410 112.120 C 167.157 112.011,170.143 111.936,171.350 111.275 C 173.111 110.311,175.286 107.786,175.603 106.339 C 175.743 105.698,175.923 104.957,176.002 104.693 C 176.302 103.693,175.269 100.441,174.212 99.055 C 173.607 98.263,172.322 97.255,171.356 96.816 C 169.689 96.059,167.908 96.019,136.107 96.019 C 104.621 96.019,102.511 96.065,100.903 96.796 M100.903 128.796 C 93.752 132.044,94.841 142.173,102.512 143.766 C 104.097 144.095,114.732 144.203,137.410 144.120 C 167.157 144.011,170.143 143.936,171.350 143.275 C 173.111 142.311,175.286 139.786,175.603 138.339 C 175.743 137.698,175.923 136.957,176.002 136.693 C 176.302 135.693,175.269 132.441,174.212 131.055 C 173.607 130.263,172.322 129.255,171.356 128.816 C 169.689 128.059,167.908 128.019,136.107 128.019 C 104.621 128.019,102.511 128.065,100.903 128.796 M214.349 186.453 C 215.551 188.572,215.680 189.152,215.680 192.427 C 215.680 195.462,215.495 196.448,214.545 198.475 C 213.178 201.390,210.530 204.362,207.952 205.872 C 203.992 208.193,203.885 208.198,158.187 208.206 C 134.238 208.210,116.053 208.051,116.053 207.838 C 116.053 207.632,116.537 206.407,117.127 205.117 C 119.212 200.563,120.021 196.203,119.754 190.960 C 119.622 188.364,119.384 185.711,119.227 185.065 L 118.940 183.890 165.979 183.998 L 213.018 184.107 214.349 186.453 " stroke="none" fill-rule="evenodd"></path></svg>