<svg fill="currentColor" viewBox="0 0 256 256" xmlns="http://www.w3.org/2000/svg"><path d="M44.265 32.463 C 39.784 33.519,35.662 36.949,33.540 41.387 L 32.213 44.160 32.086 58.771 C 31.967 72.437,32.012 73.503,32.782 75.244 C 33.235 76.268,34.256 77.602,35.051 78.209 C 36.441 79.269,39.692 80.302,40.693 80.002 C 40.957 79.923,41.698 79.743,42.339 79.603 C 43.786 79.286,46.311 77.111,47.275 75.350 C 47.902 74.205,48.018 72.294,48.135 61.148 L 48.269 48.269 61.148 48.135 C 72.294 48.018,74.205 47.902,75.350 47.275 C 77.111 46.311,79.286 43.786,79.603 42.339 C 79.743 41.698,79.923 40.957,80.002 40.693 C 80.302 39.693,79.269 36.441,78.212 35.055 C 75.982 32.132,75.263 32.015,59.733 32.052 C 52.107 32.071,45.146 32.256,44.265 32.463 M108.445 32.916 C 106.090 34.081,104.469 36.491,104.207 39.214 C 103.938 42.014,104.683 44.024,106.649 45.800 C 109.214 48.117,110.779 48.278,129.354 48.130 C 147.771 47.984,147.709 47.994,150.373 44.654 C 151.539 43.190,151.680 42.705,151.680 40.143 C 151.680 36.561,150.373 34.286,147.520 32.905 C 145.707 32.027,145.115 32.000,127.972 32.000 C 110.757 32.001,110.245 32.025,108.445 32.916 M180.644 32.803 C 179.678 33.249,178.393 34.263,177.788 35.055 C 176.731 36.441,175.698 39.693,175.998 40.693 C 176.077 40.957,176.257 41.698,176.397 42.339 C 176.714 43.786,178.889 46.311,180.650 47.275 C 181.795 47.902,183.706 48.018,194.852 48.135 L 207.731 48.269 207.865 61.148 C 207.982 72.294,208.098 74.205,208.725 75.350 C 209.689 77.111,212.214 79.286,213.661 79.603 C 214.302 79.743,215.043 79.923,215.307 80.002 C 216.308 80.302,219.559 79.269,220.949 78.209 C 221.744 77.602,222.765 76.268,223.218 75.244 C 223.988 73.503,224.033 72.437,223.914 58.771 L 223.787 44.160 222.593 41.600 C 221.026 38.240,217.739 34.940,214.445 33.417 L 211.840 32.213 197.120 32.103 C 183.421 32.000,182.278 32.048,180.644 32.803 M36.338 105.022 C 35.257 105.557,34.018 106.651,33.352 107.657 L 32.213 109.377 32.093 127.486 C 31.975 145.275,31.989 145.629,32.892 147.492 C 34.287 150.375,36.547 151.680,40.143 151.680 C 42.705 151.680,43.190 151.539,44.654 150.373 C 47.994 147.709,47.984 147.771,48.130 129.354 C 48.271 111.652,48.066 109.278,46.209 107.070 C 43.764 104.165,39.752 103.332,36.338 105.022 M212.425 104.938 C 210.192 106.153,208.783 108.036,208.251 110.515 C 207.620 113.461,207.626 142.570,208.259 145.522 C 208.827 148.167,210.969 150.757,213.198 151.492 C 216.962 152.735,221.441 150.937,223.095 147.520 C 223.973 145.707,224.000 145.115,224.000 128.000 C 224.000 110.885,223.973 110.293,223.095 108.480 C 221.275 104.720,216.027 102.979,212.425 104.938 M36.480 176.922 C 34.467 177.983,33.356 179.186,32.629 181.089 C 32.055 182.592,31.976 184.965,32.085 197.345 L 32.213 211.840 33.417 214.445 C 34.940 217.739,38.240 221.026,41.600 222.593 L 44.160 223.787 58.771 223.914 C 72.437 224.033,73.503 223.988,75.244 223.218 C 79.337 221.408,81.152 216.163,79.037 212.257 C 78.340 210.970,76.300 209.174,74.959 208.667 C 74.208 208.383,68.981 208.213,61.013 208.213 L 48.269 208.213 48.134 195.093 C 48.019 183.834,47.899 181.792,47.291 180.693 C 46.355 179.002,44.448 177.230,42.959 176.667 C 41.224 176.012,37.964 176.140,36.480 176.922 M214.339 184.301 C 212.141 184.824,210.167 186.296,209.050 188.246 C 208.040 190.010,207.995 190.426,207.857 199.147 L 207.713 208.213 198.660 208.213 L 189.607 208.213 187.679 209.436 C 182.355 212.812,182.976 220.561,188.782 223.198 C 190.271 223.874,191.688 223.983,199.147 223.991 L 207.787 224.000 207.787 231.659 C 207.787 235.871,207.999 240.310,208.259 241.522 C 208.827 244.167,210.969 246.757,213.198 247.492 C 216.962 248.735,221.441 246.937,223.095 243.520 C 223.928 241.800,224.000 240.947,224.000 232.825 L 224.000 224.000 232.825 224.000 C 240.947 224.000,241.800 223.928,243.520 223.095 C 246.373 221.714,247.680 219.439,247.680 215.857 C 247.680 213.292,247.540 212.811,246.370 211.346 C 244.000 208.381,243.294 208.215,233.067 208.214 L 224.000 208.213 224.000 199.453 C 224.000 190.105,223.751 188.679,221.740 186.525 C 219.938 184.596,216.919 183.689,214.339 184.301 M108.579 208.808 C 106.767 209.597,104.628 212.182,104.288 213.991 C 103.568 217.832,105.278 221.545,108.480 223.095 C 110.293 223.973,110.885 224.000,128.000 224.000 C 145.115 224.000,145.707 223.973,147.520 223.095 C 150.373 221.714,151.680 219.439,151.680 215.857 C 151.680 213.292,151.540 212.811,150.370 211.346 C 147.806 208.139,148.338 208.213,128.000 208.231 C 113.979 208.243,109.575 208.374,108.579 208.808 " stroke="none" fill-rule="evenodd"></path></svg>