<svg fill="currentColor" viewBox="0 0 256 256" xmlns="http://www.w3.org/2000/svg"><path d="M150.332 24.303 C 148.018 24.853,146.175 26.210,145.067 28.182 L 144.000 30.080 143.875 51.259 L 143.750 72.438 140.888 72.732 C 139.314 72.894,135.607 73.493,132.649 74.063 C 85.407 83.168,39.027 122.354,22.840 166.843 C 18.532 178.682,15.398 193.597,16.255 198.182 C 17.310 203.829,22.232 207.935,27.947 207.935 C 31.994 207.935,33.983 206.785,39.875 201.038 C 65.230 176.305,95.120 160.178,126.293 154.408 C 130.527 153.625,140.763 152.333,142.808 152.324 L 143.749 152.320 143.874 173.120 C 143.999 193.693,144.010 193.939,144.950 195.697 C 146.094 197.837,147.694 199.046,150.301 199.744 C 154.561 200.883,151.666 203.463,197.442 157.728 C 226.562 128.633,239.072 115.860,239.390 114.896 C 239.639 114.141,239.857 112.989,239.874 112.335 C 239.971 108.716,241.539 110.421,198.041 66.852 C 175.358 44.132,156.320 25.294,155.733 24.989 C 154.251 24.218,151.931 23.923,150.332 24.303 M190.400 142.187 L 160.213 172.377 160.000 156.876 L 159.787 141.376 158.641 139.646 C 157.924 138.562,156.749 137.555,155.492 136.947 C 153.565 136.014,153.198 135.986,145.971 136.240 C 107.991 137.573,70.063 153.190,38.515 180.486 C 36.349 182.360,34.500 183.893,34.407 183.893 C 34.314 183.893,34.702 182.245,35.269 180.231 C 38.960 167.125,46.708 152.293,56.201 140.160 C 73.704 117.789,100.243 99.533,126.242 91.979 C 133.263 89.939,139.649 88.825,147.413 88.288 C 154.900 87.770,156.827 87.095,158.641 84.354 L 159.787 82.624 159.909 67.035 L 160.031 51.447 190.309 81.722 L 220.587 111.998 190.400 142.187 " stroke="none" fill-rule="evenodd"></path></svg>