<svg fill="currentColor" viewBox="0 0 256 256" xmlns="http://www.w3.org/2000/svg"><path d="M42.880 40.876 C 38.021 42.563,34.386 46.285,32.855 51.138 C 32.029 53.757,32.000 55.010,32.000 87.832 C 32.001 121.262,32.158 126.251,33.515 135.893 C 35.508 150.055,40.676 165.617,47.403 177.714 C 57.974 196.723,72.784 211.964,93.337 224.983 C 99.540 228.913,112.480 235.329,119.253 237.833 C 126.937 240.675,129.057 240.675,136.747 237.837 C 148.712 233.422,166.352 223.473,176.000 215.699 C 200.282 196.135,215.444 171.828,221.220 143.203 C 223.685 130.989,223.698 130.728,223.880 90.928 C 224.045 54.700,224.033 54.022,223.171 51.248 C 222.066 47.691,219.950 44.809,217.009 42.857 C 212.557 39.901,219.229 40.105,127.826 40.121 C 50.319 40.134,44.877 40.182,42.880 40.876 M207.672 92.053 C 207.500 131.223,207.541 130.448,204.994 141.996 C 201.522 157.730,193.504 174.030,183.114 186.472 C 175.641 195.421,164.436 205.077,153.957 211.597 C 145.700 216.735,130.756 223.707,128.000 223.707 C 125.241 223.707,110.192 216.691,102.043 211.605 C 91.523 205.040,80.394 195.448,72.860 186.453 C 62.556 174.151,54.472 157.706,51.006 141.996 C 48.459 130.448,48.500 131.223,48.328 92.053 L 48.169 55.893 128.000 55.893 L 207.831 55.893 207.672 92.053 M164.693 96.883 C 163.226 97.543,156.791 103.723,137.382 123.113 L 111.992 148.479 102.822 139.295 C 91.382 127.837,89.346 126.659,84.693 128.806 C 82.340 129.893,81.048 131.431,80.404 133.913 C 79.743 136.459,80.121 138.513,81.655 140.721 C 82.255 141.586,88.177 147.707,94.813 154.323 C 107.175 166.648,108.973 168.088,112.000 168.088 C 115.302 168.088,116.169 167.311,145.184 138.327 C 160.620 122.908,173.741 109.586,174.343 108.721 C 175.879 106.515,176.257 104.461,175.596 101.913 C 174.952 99.431,173.660 97.893,171.307 96.806 C 169.096 95.786,167.079 95.809,164.693 96.883 " stroke="none" fill-rule="evenodd"></path></svg>