<svg fill="currentColor" viewBox="0 0 256 256" xmlns="http://www.w3.org/2000/svg"><path d="M45.564 32.398 C 42.367 33.427,40.107 36.646,40.107 40.169 C 40.107 41.953,39.970 42.194,38.253 43.426 C 37.234 44.158,35.710 45.775,34.866 47.019 C 31.833 51.489,31.933 49.886,32.120 90.964 C 32.302 130.725,32.315 130.990,34.780 143.203 C 38.232 160.308,45.637 177.032,55.950 191.017 C 70.319 210.499,91.843 226.725,116.650 236.775 C 126.849 240.907,128.784 240.920,138.880 236.927 C 155.458 230.369,172.252 219.845,184.105 208.586 C 185.850 206.928,187.447 205.639,187.654 205.720 C 187.861 205.800,191.325 209.515,195.351 213.973 C 203.613 223.122,205.001 224.169,208.508 223.894 C 213.141 223.531,216.191 219.909,215.802 215.230 C 215.700 213.995,215.317 212.536,214.952 211.986 C 213.596 209.946,54.112 34.729,52.577 33.592 C 50.830 32.299,47.586 31.747,45.564 32.398 M95.360 40.701 C 91.916 42.210,89.877 46.294,90.816 49.805 C 91.426 52.084,92.310 53.334,94.262 54.675 L 95.724 55.680 151.755 55.791 L 207.787 55.903 207.787 89.346 C 207.787 109.141,207.607 124.593,207.347 127.208 C 206.167 139.078,204.101 147.640,199.592 159.354 C 197.787 164.041,197.498 165.184,197.715 166.770 C 198.258 170.727,201.518 173.653,205.385 173.653 C 209.982 173.653,211.944 171.673,214.954 163.989 C 218.007 156.197,220.362 148.029,221.703 140.587 C 223.684 129.590,223.689 129.479,223.874 90.935 C 224.049 54.674,224.038 54.038,223.173 51.255 C 221.609 46.221,217.607 42.204,212.677 40.720 C 209.772 39.846,97.354 39.827,95.360 40.701 M114.131 124.650 C 148.511 162.466,176.625 193.522,176.607 193.663 C 176.549 194.114,168.446 201.271,164.907 203.998 C 154.819 211.770,141.927 218.958,131.012 222.895 L 127.956 223.998 123.822 222.449 C 100.447 213.694,78.835 196.696,65.581 176.640 C 59.271 167.093,53.556 153.505,51.010 141.996 C 48.459 130.470,48.500 131.231,48.328 92.053 L 48.169 55.893 49.896 55.893 L 51.622 55.893 114.131 124.650 " stroke="none" fill-rule="evenodd"></path></svg>