<svg fill="currentColor" viewBox="0 0 256 256" xmlns="http://www.w3.org/2000/svg"><path d="M93.013 32.674 C 92.166 33.037,88.332 36.493,84.156 40.657 L 76.793 48.000 64.103 48.213 L 51.413 48.427 48.746 49.873 C 45.505 51.630,42.972 54.289,41.455 57.525 L 40.320 59.947 40.320 140.160 L 40.320 220.373 41.482 222.736 C 42.809 225.437,45.978 228.816,48.307 230.014 C 52.537 232.190,49.350 232.107,128.000 232.107 C 206.650 232.107,203.463 232.190,207.693 230.014 C 210.022 228.816,213.191 225.437,214.518 222.736 L 215.680 220.373 215.680 140.160 L 215.680 59.947 214.545 57.525 C 213.028 54.289,210.495 51.630,207.254 49.873 L 204.587 48.427 191.897 48.213 L 179.207 48.000 171.844 40.656 C 167.232 36.056,163.887 33.067,162.894 32.656 C 160.534 31.680,95.293 31.696,93.013 32.674 M144.569 48.594 C 144.302 49.307,128.214 73.365,128.000 73.371 C 127.835 73.376,116.114 55.791,112.013 49.387 L 111.262 48.213 127.986 48.213 C 137.606 48.213,144.651 48.375,144.569 48.594 M106.221 69.731 L 117.429 86.555 115.995 87.805 C 115.206 88.493,108.608 94.202,101.333 100.493 L 88.107 111.931 87.997 85.738 L 87.887 59.546 91.187 56.226 C 93.002 54.400,94.605 52.907,94.749 52.907 C 94.894 52.907,100.056 60.478,106.221 69.731 M164.813 56.226 L 168.113 59.546 168.003 85.738 L 167.893 111.931 154.667 100.493 C 147.392 94.202,140.794 88.493,140.005 87.805 L 138.571 86.555 149.779 69.731 C 155.944 60.478,161.106 52.907,161.251 52.907 C 161.395 52.907,162.998 54.400,164.813 56.226 M72.107 89.309 C 72.107 117.268,72.088 117.054,74.814 121.027 C 77.978 125.639,83.576 128.301,89.255 127.895 C 93.905 127.562,96.224 126.073,108.014 115.840 C 113.692 110.912,118.688 106.629,119.116 106.322 C 119.867 105.784,119.893 107.629,119.893 160.829 L 119.893 215.893 87.893 215.893 L 55.893 215.893 55.893 139.947 L 55.893 64.000 64.000 64.000 L 72.107 64.000 72.107 89.309 M200.107 139.947 L 200.107 215.893 168.107 215.893 L 136.107 215.893 136.107 160.818 L 136.107 105.742 137.131 106.524 C 137.694 106.955,142.904 111.409,148.707 116.423 C 155.910 122.645,160.008 125.882,161.616 126.618 C 169.413 130.187,178.991 126.426,182.729 118.327 C 183.675 116.277,183.681 116.138,183.799 90.133 L 183.918 64.000 192.013 64.000 L 200.107 64.000 200.107 139.947 " stroke="none" fill-rule="evenodd"></path></svg>