<svg fill="currentColor" viewBox="0 0 256 256" xmlns="http://www.w3.org/2000/svg"><path d="M44.813 40.782 C 43.998 41.136,42.970 41.752,42.527 42.152 C 40.270 44.194,39.432 48.610,40.787 51.328 C 41.162 52.079,74.617 85.861,115.134 126.400 L 188.799 200.107 177.521 200.107 C 166.900 200.107,166.134 200.159,164.373 201.012 C 161.602 202.353,160.213 204.686,160.213 208.000 C 160.213 211.314,161.602 213.647,164.373 214.988 C 166.204 215.875,166.691 215.893,187.975 215.884 C 208.148 215.875,209.829 215.818,211.413 215.091 C 213.443 214.159,214.353 213.207,215.237 211.091 C 215.798 209.748,215.893 206.390,215.893 187.882 C 215.893 166.703,215.874 166.203,214.988 164.373 C 213.647 161.602,211.314 160.213,208.000 160.213 C 204.686 160.213,202.353 161.602,201.012 164.373 C 200.159 166.134,200.107 166.900,200.107 177.521 L 200.107 188.799 126.400 115.107 C 73.821 62.540,52.239 41.228,51.107 40.761 C 49.120 39.941,46.733 39.949,44.813 40.782 M164.338 41.022 C 161.590 42.383,160.213 44.711,160.213 48.000 C 160.213 51.314,161.602 53.647,164.373 54.988 C 166.134 55.841,166.900 55.893,177.512 55.893 L 188.781 55.893 166.319 78.400 C 146.116 98.644,143.808 101.096,143.361 102.786 C 141.796 108.712,147.281 114.206,153.201 112.642 C 154.908 112.191,157.293 109.947,177.600 89.681 L 200.107 67.219 200.107 78.488 C 200.107 89.100,200.159 89.866,201.012 91.627 C 202.353 94.398,204.686 95.787,208.000 95.787 C 211.314 95.787,213.647 94.398,214.988 91.627 C 215.874 89.797,215.893 89.297,215.893 68.118 C 215.893 49.610,215.798 46.252,215.237 44.909 C 214.353 42.793,213.443 41.841,211.413 40.909 C 209.829 40.182,208.147 40.125,187.947 40.116 C 166.549 40.107,166.156 40.123,164.338 41.022 M102.827 143.458 C 101.014 143.834,99.250 145.510,71.329 173.368 C 54.838 189.823,41.388 203.580,40.929 204.463 C 39.432 207.344,40.183 211.768,42.515 213.815 C 44.991 215.989,48.761 216.513,51.537 215.071 C 52.420 214.612,66.179 201.161,82.633 184.671 C 109.342 157.902,112.192 154.915,112.640 153.214 C 113.558 149.727,111.895 145.777,108.871 144.265 C 106.747 143.203,105.106 142.984,102.827 143.458 " stroke="none" fill-rule="evenodd"></path></svg>