<svg fill="currentColor" viewBox="0 0 256 256" xmlns="http://www.w3.org/2000/svg"><path d="M204.813 40.782 C 201.853 42.066,200.107 44.744,200.107 48.000 C 200.107 50.931,201.224 52.595,207.123 58.453 L 212.494 63.787 190.407 64.000 L 168.320 64.213 165.547 65.559 C 164.021 66.299,162.096 67.547,161.268 68.332 C 159.834 69.692,142.578 93.493,140.852 96.491 C 139.035 99.648,139.363 102.927,141.771 105.669 C 144.209 108.445,147.877 109.154,151.280 107.507 C 152.828 106.757,154.346 104.864,162.562 93.427 L 172.056 80.213 192.374 80.223 L 212.693 80.232 206.883 85.911 C 200.547 92.104,199.856 93.241,200.207 96.890 C 200.472 99.647,201.949 101.735,204.564 103.047 C 209.529 105.540,210.565 104.900,225.187 90.323 C 231.823 83.707,237.745 77.586,238.345 76.721 C 239.792 74.639,240.210 72.589,239.695 70.095 C 239.296 68.161,238.586 67.361,226.197 54.887 C 217.642 46.274,212.530 41.445,211.413 40.923 C 209.361 39.964,206.825 39.910,204.813 40.782 M28.782 64.794 C 25.251 66.414,23.318 70.191,24.245 73.658 C 24.958 76.322,25.844 77.510,28.114 78.844 L 30.080 80.000 57.061 80.122 L 84.042 80.243 121.748 133.028 C 142.486 162.060,160.201 186.555,161.114 187.462 C 162.026 188.369,164.021 189.713,165.547 190.449 L 168.320 191.787 190.407 192.000 L 212.494 192.213 207.123 197.547 C 204.169 200.480,201.382 203.592,200.929 204.463 C 199.487 207.239,200.011 211.009,202.185 213.485 C 204.230 215.815,208.653 216.567,211.537 215.074 C 212.408 214.624,219.003 208.336,226.192 201.101 C 238.565 188.651,239.288 187.837,239.691 185.905 C 240.210 183.413,239.795 181.367,238.346 179.276 C 236.624 176.791,213.286 153.789,211.637 152.952 C 209.798 152.018,206.279 151.972,204.577 152.861 C 200.703 154.883,199.080 159.278,200.740 163.250 C 201.089 164.085,203.904 167.340,207.005 170.494 L 212.636 176.222 192.398 176.111 L 172.160 176.000 134.511 123.307 C 113.803 94.325,96.043 69.771,95.044 68.741 C 94.044 67.710,91.979 66.270,90.453 65.541 L 87.680 64.213 59.093 64.108 C 32.036 64.009,30.414 64.046,28.782 64.794 M105.159 148.224 C 103.218 149.069,102.308 150.195,92.695 163.627 L 83.840 176.000 56.502 176.213 L 29.164 176.427 27.449 177.562 C 25.649 178.753,24.422 180.798,24.020 183.279 C 23.494 186.520,26.290 190.566,29.753 191.577 C 30.870 191.904,39.942 192.007,59.520 191.917 L 87.680 191.787 90.453 190.449 C 91.979 189.713,93.969 188.374,94.876 187.472 C 96.456 185.902,113.445 162.468,115.148 159.509 C 116.319 157.475,116.604 155.643,116.061 153.630 C 115.491 151.511,113.363 148.987,111.487 148.203 C 109.753 147.478,106.848 147.488,105.159 148.224 " stroke="none" fill-rule="evenodd"></path></svg>