<svg fill="currentColor" viewBox="0 0 256 256" xmlns="http://www.w3.org/2000/svg"><path d="M204.813 40.782 C 203.998 41.136,202.970 41.752,202.527 42.152 C 200.269 44.195,199.432 48.613,200.789 51.328 C 201.165 52.079,203.968 55.211,207.019 58.288 L 212.565 63.884 202.603 64.118 C 192.240 64.363,188.923 64.778,181.460 66.764 C 173.728 68.822,164.182 73.573,157.440 78.719 C 149.412 84.846,140.628 95.051,139.749 99.271 C 139.123 102.278,141.504 106.540,144.513 107.797 C 146.598 108.668,149.372 108.513,151.373 107.413 C 152.487 106.801,154.188 105.062,156.067 102.613 C 165.080 90.866,177.432 83.306,191.542 80.899 C 194.291 80.430,198.192 80.213,203.871 80.213 L 212.179 80.213 206.628 85.897 C 200.591 92.078,199.864 93.323,200.207 96.890 C 200.472 99.647,201.949 101.735,204.564 103.047 C 209.529 105.540,210.565 104.900,225.187 90.323 C 231.823 83.707,237.745 77.586,238.345 76.721 C 239.792 74.639,240.210 72.589,239.695 70.095 C 239.296 68.161,238.586 67.361,226.197 54.887 C 217.642 46.274,212.530 41.445,211.413 40.923 C 209.361 39.964,206.825 39.910,204.813 40.782 M28.782 64.778 C 25.240 66.436,23.319 70.196,24.245 73.658 C 24.958 76.322,25.844 77.510,28.114 78.844 L 30.080 80.000 46.933 80.270 C 60.314 80.484,64.402 80.683,66.773 81.238 C 77.810 83.821,86.501 88.603,94.334 96.404 C 98.393 100.446,101.094 104.047,120.758 131.627 C 132.805 148.523,143.752 163.691,145.085 165.333 C 150.749 172.315,159.301 179.355,167.253 183.585 C 178.466 189.549,189.375 192.000,204.709 192.000 L 212.681 192.000 207.077 197.653 C 203.994 200.763,201.165 203.921,200.789 204.672 C 199.489 207.273,200.096 211.106,202.185 213.485 C 204.230 215.815,208.653 216.567,211.537 215.074 C 212.408 214.624,219.003 208.336,226.192 201.101 C 238.565 188.651,239.288 187.837,239.691 185.905 C 240.210 183.413,239.795 181.367,238.346 179.276 C 236.624 176.791,213.286 153.789,211.637 152.952 C 209.798 152.018,206.279 151.972,204.577 152.861 C 200.703 154.883,199.080 159.278,200.740 163.250 C 201.089 164.084,203.921 167.367,207.033 170.547 L 212.693 176.327 203.733 176.090 C 197.085 175.915,193.652 175.624,190.426 174.964 C 178.597 172.543,168.807 167.188,160.626 158.664 C 158.214 156.150,150.710 146.003,135.269 124.373 C 123.207 107.477,112.238 92.309,110.893 90.667 C 99.813 77.134,85.245 68.600,67.097 65.009 C 64.591 64.513,59.743 64.308,47.147 64.163 C 31.490 63.983,30.405 64.019,28.782 64.778 M105.173 148.261 C 103.364 149.111,102.944 149.528,99.776 153.613 C 94.490 160.430,87.080 166.607,79.860 170.216 C 78.375 170.959,75.207 172.219,72.820 173.017 C 65.158 175.580,62.874 175.835,45.440 176.074 C 29.801 176.288,29.637 176.300,27.901 177.301 C 23.647 179.754,22.717 185.256,25.914 189.055 C 28.298 191.888,28.892 191.980,44.885 191.991 C 55.258 191.997,60.623 191.822,64.144 191.360 C 79.554 189.340,93.350 182.785,104.406 172.231 C 110.849 166.080,115.598 159.865,116.251 156.729 C 116.877 153.722,114.496 149.460,111.487 148.203 C 109.720 147.465,106.812 147.492,105.173 148.261 " stroke="none" fill-rule="evenodd"></path></svg>