<svg fill="currentColor" viewBox="0 0 256 256" xmlns="http://www.w3.org/2000/svg"><path d="M68.907 32.814 C 67.968 33.251,66.314 34.542,65.231 35.684 C 59.068 42.180,9.204 99.747,8.705 100.942 C 7.980 102.675,7.959 105.599,8.659 107.210 C 9.485 109.112,123.153 230.658,124.726 231.321 C 126.476 232.059,129.543 232.051,131.316 231.304 C 132.255 230.908,151.291 210.810,189.508 169.864 C 220.746 136.396,246.599 108.564,246.960 108.014 C 247.913 106.563,248.113 102.898,247.340 101.049 C 246.798 99.751,191.625 36.192,189.175 34.043 C 186.744 31.911,189.411 31.999,127.907 32.009 C 72.926 32.018,70.544 32.051,68.907 32.814 M93.867 72.107 L 75.941 96.000 54.794 96.000 L 33.647 96.000 36.984 92.190 C 38.819 90.094,48.192 79.354,57.813 68.324 L 75.307 48.268 93.550 48.241 L 111.793 48.213 93.867 72.107 M198.187 68.324 C 207.808 79.354,217.181 90.094,219.016 92.190 L 222.353 96.000 201.206 96.000 L 180.059 96.000 162.133 72.107 L 144.207 48.213 162.450 48.241 L 180.693 48.268 198.187 68.324 M144.162 74.880 L 160.003 96.000 128.000 96.000 L 95.997 96.000 111.838 74.880 C 120.551 63.264,127.824 53.760,128.000 53.760 C 128.176 53.760,135.449 63.264,144.162 74.880 M89.001 148.053 C 96.838 167.648,103.551 184.448,103.919 185.387 L 104.588 187.093 102.910 185.387 C 99.737 182.158,35.588 113.268,35.260 112.737 C 34.999 112.314,39.028 112.228,54.841 112.316 L 74.752 112.427 89.001 148.053 M163.840 112.532 C 163.840 113.162,128.253 201.813,128.000 201.813 C 127.747 201.813,92.160 113.162,92.160 112.532 C 92.160 112.357,108.288 112.213,128.000 112.213 C 147.712 112.213,163.840 112.357,163.840 112.532 M220.734 112.747 C 220.412 113.269,156.386 182.023,153.089 185.387 L 151.417 187.093 152.250 184.960 C 152.708 183.787,159.268 167.371,166.828 148.480 C 174.388 129.589,180.740 113.701,180.943 113.173 L 181.312 112.213 201.188 112.213 C 216.980 112.213,220.996 112.323,220.734 112.747 " stroke="none" fill-rule="evenodd"></path></svg>