<svg fill="currentColor" viewBox="0 0 256 256" xmlns="http://www.w3.org/2000/svg"><path d="M117.760 16.478 C 103.312 18.202,92.297 21.361,80.686 27.112 C 50.911 41.861,31.029 68.123,25.303 100.267 C 23.878 108.265,23.689 121.471,24.887 129.280 C 27.675 147.454,34.688 163.368,46.227 177.707 C 51.916 184.777,62.536 194.280,70.053 199.027 L 72.052 200.290 72.186 210.332 C 72.319 220.272,72.332 220.397,73.482 222.736 C 74.809 225.437,77.978 228.816,80.307 230.014 C 84.413 232.127,83.959 232.107,128.000 232.107 C 172.041 232.107,171.587 232.127,175.693 230.014 C 178.022 228.816,181.191 225.437,182.518 222.736 C 183.668 220.397,183.681 220.272,183.814 210.332 L 183.948 200.290 185.947 199.027 C 193.441 194.294,204.018 184.837,209.790 177.707 C 221.024 163.830,228.364 147.161,231.113 129.280 C 232.307 121.520,232.114 108.296,230.691 100.267 C 228.897 90.143,226.484 82.675,222.073 73.600 C 209.293 47.305,184.296 27.074,155.330 19.582 C 145.940 17.153,141.118 16.559,129.707 16.423 C 123.957 16.355,118.581 16.380,117.760 16.478 M141.653 33.076 C 179.091 38.785,208.546 66.698,214.806 102.400 C 215.769 107.894,216.121 118.618,215.518 124.108 C 213.351 143.845,204.856 161.001,190.238 175.169 C 185.171 180.080,181.381 183.017,174.720 187.195 C 167.859 191.498,168.122 190.801,168.114 204.693 L 168.107 215.893 160.000 215.893 L 151.893 215.893 151.893 203.121 C 151.893 195.134,151.723 189.899,151.440 189.148 C 150.342 186.242,147.270 184.198,144.000 184.198 C 140.730 184.198,137.658 186.242,136.560 189.148 C 136.277 189.899,136.107 195.134,136.107 203.121 L 136.107 215.893 128.000 215.893 L 119.893 215.893 119.893 203.121 C 119.893 195.134,119.723 189.899,119.440 189.148 C 118.342 186.242,115.270 184.198,112.000 184.198 C 108.730 184.198,105.658 186.242,104.560 189.148 C 104.277 189.899,104.107 195.134,104.107 203.121 L 104.107 215.893 96.000 215.893 L 87.893 215.893 87.886 204.693 C 87.878 190.801,88.141 191.498,81.280 187.195 C 78.699 185.575,75.147 183.172,73.387 181.854 C 69.410 178.875,62.161 171.886,58.814 167.803 C 48.644 155.397,42.242 140.138,40.482 124.108 C 39.879 118.618,40.231 107.894,41.194 102.400 C 45.718 76.602,62.876 53.854,86.827 41.903 C 98.027 36.314,107.280 33.701,120.960 32.262 C 124.378 31.902,137.287 32.410,141.653 33.076 M85.760 104.770 C 78.093 106.417,70.473 112.428,67.027 119.545 C 62.951 127.967,63.041 136.531,67.295 145.067 C 69.497 149.483,74.514 154.501,78.933 156.706 C 83.825 159.147,88.488 160.165,93.436 159.873 C 100.763 159.440,106.283 156.952,111.615 151.682 C 117.583 145.783,120.233 138.869,119.778 130.386 C 119.390 123.169,116.732 117.235,111.660 112.260 C 109.031 109.681,107.819 108.812,104.381 107.042 C 99.045 104.294,91.987 103.433,85.760 104.770 M157.105 104.968 C 145.092 108.115,136.913 118.074,136.230 130.386 C 135.760 138.855,138.410 145.777,144.385 151.682 C 148.083 155.337,151.037 157.153,155.947 158.790 C 158.434 159.619,159.789 159.782,164.053 159.764 C 168.434 159.746,169.671 159.577,172.620 158.596 C 176.447 157.323,180.577 154.865,183.414 152.172 C 186.190 149.537,189.285 144.564,190.589 140.642 C 191.578 137.669,191.746 136.442,191.764 132.053 C 191.788 126.379,191.055 123.361,188.450 118.400 C 186.327 114.358,181.043 109.330,176.635 107.157 C 170.436 104.101,163.418 103.314,157.105 104.968 M96.721 120.975 C 98.745 121.808,101.803 124.819,102.877 127.036 C 104.263 129.900,104.194 134.298,102.718 137.173 C 98.993 144.430,90.034 146.181,83.954 140.843 C 79.176 136.647,78.876 128.458,83.331 123.803 C 84.897 122.166,87.440 120.737,89.600 120.282 C 91.448 119.892,94.909 120.229,96.721 120.975 M169.387 121.400 C 173.568 123.528,175.762 127.194,175.777 132.076 C 175.817 144.715,159.096 148.504,153.283 137.173 C 151.961 134.597,151.753 130.028,152.844 127.514 C 153.671 125.606,156.183 122.772,158.093 121.592 C 161.131 119.714,165.916 119.633,169.387 121.400 " stroke="none" fill-rule="evenodd"></path></svg>