<svg fill="currentColor" viewBox="0 0 256 256" xmlns="http://www.w3.org/2000/svg"><path d="M120.960 24.326 C 100.935 25.586,81.587 32.844,64.891 45.360 C 59.554 49.360,49.234 59.686,45.276 64.986 C 34.512 79.399,27.973 94.882,25.095 112.768 C 23.886 120.283,23.787 134.307,24.890 141.867 C 27.542 160.046,34.293 176.318,45.279 191.014 C 49.299 196.392,59.608 206.701,64.986 210.721 C 79.686 221.710,96.000 228.476,114.133 231.105 C 117.683 231.620,121.936 231.847,128.000 231.847 C 144.598 231.847,158.874 228.583,173.440 221.458 C 184.661 215.968,192.320 210.472,201.396 201.396 C 210.475 192.317,215.974 184.654,221.456 173.440 C 235.707 144.287,235.458 110.173,220.780 81.026 C 214.698 68.950,203.517 55.194,193.067 46.931 C 172.349 30.550,147.221 22.673,120.960 24.326 M142.080 41.152 C 159.933 44.170,175.895 52.156,188.870 64.559 C 202.597 77.682,211.532 94.696,214.904 114.133 C 215.937 120.088,215.932 135.829,214.895 141.867 C 212.390 156.454,206.990 169.066,198.207 180.843 C 173.373 214.141,127.558 225.417,90.240 207.417 C 81.119 203.017,74.345 198.338,67.182 191.490 C 53.399 178.314,44.463 161.314,41.098 141.867 C 40.060 135.867,40.060 120.133,41.098 114.133 C 46.547 82.647,66.943 57.480,96.401 45.891 C 101.417 43.918,110.346 41.621,115.413 41.001 C 117.525 40.743,119.733 40.449,120.320 40.349 C 122.762 39.932,138.241 40.503,142.080 41.152 M88.068 96.752 C 84.114 98.168,81.495 101.085,80.424 105.266 C 79.354 109.444,80.434 113.287,83.557 116.410 C 85.712 118.566,88.022 119.598,91.161 119.810 C 96.160 120.148,100.459 117.726,102.583 113.376 C 104.732 108.973,104.321 104.409,101.436 100.659 C 98.446 96.771,92.701 95.092,88.068 96.752 M147.831 101.303 C 142.977 104.214,142.851 111.208,147.594 114.560 L 149.405 115.840 162.916 115.968 C 172.214 116.056,176.981 115.942,178.206 115.602 C 183.745 114.064,185.776 106.842,181.840 102.682 C 179.547 100.259,179.600 100.266,163.968 100.271 L 149.547 100.275 147.831 101.303 M164.907 144.497 C 162.878 145.569,162.160 146.340,159.806 149.973 C 154.184 158.652,146.521 164.376,137.173 166.879 C 132.309 168.181,123.643 168.190,118.827 166.898 C 109.387 164.365,101.876 158.673,95.847 149.485 C 93.208 145.462,91.368 144.231,87.979 144.220 C 85.442 144.212,83.939 144.849,82.292 146.629 C 80.138 148.956,79.534 151.345,80.385 154.173 C 81.292 157.187,86.009 163.692,90.652 168.332 C 101.036 178.709,113.484 183.893,128.019 183.893 C 142.477 183.893,154.998 178.676,165.356 168.335 C 170.445 163.255,175.588 155.857,176.016 153.002 C 176.755 148.077,172.997 143.757,168.014 143.804 C 167.009 143.813,165.611 144.125,164.907 144.497 " stroke="none" fill-rule="evenodd"></path></svg>