<svg fill="currentColor" viewBox="0 0 256 256" xmlns="http://www.w3.org/2000/svg"><path d="M121.813 24.356 C 100.760 25.555,80.788 33.125,63.573 46.432 C 61.579 47.974,57.446 51.742,54.390 54.805 C 38.181 71.049,28.483 90.576,24.884 114.216 C 23.889 120.753,23.894 135.501,24.893 142.080 C 28.506 165.868,38.967 186.420,55.734 202.670 C 71.647 218.093,91.092 227.600,113.920 231.118 C 120.666 232.158,135.225 232.154,142.080 231.111 C 147.189 230.334,154.411 228.735,158.080 227.570 C 160.054 226.943,162.691 224.419,193.394 193.766 C 230.440 156.781,227.156 160.634,229.260 151.680 C 231.161 143.590,231.831 137.507,231.846 128.213 C 231.854 123.500,231.612 117.865,231.306 115.627 C 227.051 84.484,211.051 58.563,185.600 41.583 C 166.570 28.887,144.923 23.040,121.813 24.356 M140.800 41.228 C 172.975 45.738,200.501 68.547,211.152 99.524 C 216.475 115.007,217.323 132.972,213.481 148.873 L 212.803 151.680 182.257 182.279 L 151.711 212.878 147.855 213.730 C 140.581 215.338,138.864 215.548,131.200 215.773 C 119.461 216.117,111.178 214.945,100.480 211.424 C 81.466 205.166,65.763 193.069,54.498 176.000 C 36.432 148.627,35.609 111.768,52.432 83.556 C 70.885 52.611,105.097 36.223,140.800 41.228 M88.068 96.752 C 84.114 98.168,81.495 101.085,80.424 105.266 C 79.354 109.444,80.434 113.287,83.557 116.410 C 85.712 118.566,88.022 119.598,91.161 119.810 C 96.160 120.148,100.459 117.726,102.583 113.376 C 104.732 108.973,104.321 104.409,101.436 100.659 C 98.446 96.771,92.701 95.092,88.068 96.752 M160.995 96.409 C 157.058 97.347,153.692 100.697,152.473 104.891 C 150.783 110.703,154.312 117.364,160.099 119.286 C 169.077 122.268,177.887 114.288,175.576 105.266 C 173.884 98.661,167.590 94.838,160.995 96.409 M164.907 144.497 C 162.878 145.569,162.160 146.340,159.806 149.973 C 154.184 158.652,146.521 164.376,137.173 166.879 C 132.309 168.181,123.643 168.190,118.827 166.898 C 109.387 164.365,101.876 158.673,95.847 149.485 C 93.208 145.462,91.368 144.231,87.979 144.220 C 85.442 144.212,83.939 144.849,82.292 146.629 C 80.138 148.956,79.534 151.345,80.385 154.173 C 81.292 157.187,86.009 163.692,90.652 168.332 C 101.036 178.709,113.484 183.893,128.019 183.893 C 142.477 183.893,154.998 178.676,165.356 168.335 C 170.445 163.255,175.588 155.857,176.016 153.002 C 176.755 148.077,172.997 143.757,168.014 143.804 C 167.009 143.813,165.611 144.125,164.907 144.497 " stroke="none" fill-rule="evenodd"></path></svg>