<svg fill="currentColor" viewBox="0 0 256 256" xmlns="http://www.w3.org/2000/svg"><path d="M120.960 24.326 C 100.935 25.586,81.587 32.844,64.891 45.360 C 59.554 49.360,49.234 59.686,45.276 64.986 C 34.512 79.399,27.973 94.882,25.095 112.768 C 23.886 120.283,23.787 134.307,24.890 141.867 C 27.542 160.046,34.293 176.318,45.279 191.014 C 49.299 196.392,59.608 206.701,64.986 210.721 C 79.686 221.710,96.000 228.476,114.133 231.105 C 117.683 231.620,121.936 231.847,128.000 231.847 C 144.598 231.847,158.874 228.583,173.440 221.458 C 184.661 215.968,192.320 210.472,201.396 201.396 C 210.475 192.317,215.974 184.654,221.456 173.440 C 235.707 144.287,235.458 110.173,220.780 81.026 C 214.698 68.950,203.517 55.194,193.067 46.931 C 172.349 30.550,147.221 22.673,120.960 24.326 M142.080 41.152 C 159.933 44.170,175.895 52.156,188.870 64.559 C 202.597 77.682,211.532 94.696,214.904 114.133 C 215.937 120.088,215.932 135.829,214.895 141.867 C 212.390 156.454,206.990 169.066,198.207 180.843 C 173.373 214.141,127.558 225.417,90.240 207.417 C 81.119 203.017,74.345 198.338,67.182 191.490 C 53.399 178.314,44.463 161.314,41.098 141.867 C 40.060 135.867,40.060 120.133,41.098 114.133 C 46.547 82.647,66.943 57.480,96.401 45.891 C 101.417 43.918,110.346 41.621,115.413 41.001 C 117.525 40.743,119.733 40.449,120.320 40.349 C 122.762 39.932,138.241 40.503,142.080 41.152 M76.384 80.979 C 72.450 83.148,71.008 87.785,73.039 91.733 C 73.959 93.521,75.787 94.829,99.572 110.720 L 125.117 127.787 128.000 127.787 L 130.883 127.787 156.428 110.720 C 180.213 94.829,182.041 93.521,182.961 91.733 C 184.371 88.992,184.124 85.535,182.363 83.358 C 180.399 80.932,178.605 80.135,175.507 80.312 L 172.881 80.462 150.649 95.271 C 138.421 103.416,128.242 110.080,128.027 110.080 C 127.813 110.080,117.591 103.418,105.312 95.275 L 82.987 80.470 80.427 80.316 C 78.490 80.199,77.505 80.361,76.384 80.979 M88.068 128.752 C 84.114 130.168,81.495 133.085,80.424 137.266 C 79.354 141.444,80.434 145.287,83.557 148.410 C 85.712 150.566,88.022 151.598,91.161 151.810 C 96.160 152.148,100.459 149.726,102.583 145.376 C 104.732 140.973,104.321 136.409,101.436 132.659 C 98.446 128.771,92.701 127.092,88.068 128.752 M160.995 128.409 C 157.058 129.347,153.692 132.697,152.473 136.891 C 150.783 142.703,154.312 149.364,160.099 151.286 C 169.077 154.268,177.887 146.288,175.576 137.266 C 173.884 130.661,167.590 126.838,160.995 128.409 M119.356 168.755 C 115.019 169.574,111.605 170.747,107.357 172.877 C 102.176 175.475,98.374 178.069,97.383 179.681 C 94.721 184.011,96.606 189.577,101.347 191.388 C 104.096 192.438,106.178 191.948,110.876 189.145 C 117.898 184.955,124.280 183.461,131.608 184.294 C 136.430 184.842,140.176 186.210,145.516 189.371 C 149.106 191.496,150.308 192.000,151.792 192.000 C 156.551 192.000,160.000 188.643,160.000 184.010 C 160.000 179.771,157.600 177.435,148.693 173.006 C 141.356 169.357,137.869 168.511,129.280 168.295 C 124.630 168.179,121.684 168.315,119.356 168.755 " stroke="none" fill-rule="evenodd"></path></svg>