<svg fill="currentColor" viewBox="0 0 256 256" xmlns="http://www.w3.org/2000/svg"><path d="M47.147 56.100 C 46.912 56.180,46.196 56.361,45.554 56.502 C 44.913 56.643,43.685 57.377,42.824 58.133 C 38.350 62.061,39.458 68.726,45.013 71.298 C 46.652 72.056,49.475 72.088,115.960 72.097 C 191.200 72.107,186.777 72.243,189.384 69.846 C 190.726 68.613,191.979 65.847,191.991 64.093 C 192.009 61.299,190.143 58.260,187.520 56.813 C 186.345 56.165,180.534 56.100,116.907 56.030 C 78.773 55.988,47.381 56.020,47.147 56.100 M180.425 104.938 C 178.192 106.153,176.783 108.036,176.251 110.515 C 175.936 111.986,175.787 124.839,175.787 150.513 L 175.787 188.344 162.027 174.652 C 147.250 159.949,146.902 159.682,143.088 160.112 C 137.965 160.690,134.640 166.471,136.704 171.214 C 137.476 172.987,179.439 214.852,181.041 215.447 C 182.906 216.140,185.587 215.976,187.492 215.052 C 188.639 214.496,196.317 207.092,210.169 193.186 C 232.087 171.181,232.130 171.131,232.097 167.630 C 232.084 166.212,230.711 163.382,229.490 162.260 C 228.157 161.035,225.644 160.000,224.000 160.000 C 221.072 160.000,219.690 161.141,205.760 175.053 L 192.000 188.795 192.000 149.572 C 192.000 110.475,191.997 110.343,191.095 108.480 C 189.275 104.720,184.027 102.979,180.425 104.938 M47.147 120.097 C 46.912 120.179,46.196 120.361,45.554 120.502 C 44.913 120.643,43.685 121.377,42.824 122.133 C 38.350 126.061,39.458 132.726,45.013 135.298 C 46.633 136.048,48.614 136.088,84.053 136.088 C 119.449 136.088,121.475 136.047,123.093 135.300 C 125.159 134.347,126.459 132.996,127.340 130.888 C 128.893 127.170,127.267 122.880,123.520 120.813 C 122.360 120.173,118.753 120.099,84.907 120.028 C 64.373 119.984,47.381 120.016,47.147 120.097 M47.147 184.096 C 46.912 184.178,46.196 184.361,45.554 184.502 C 43.991 184.847,41.395 187.183,40.683 188.886 C 39.375 192.017,40.220 195.581,42.809 197.854 C 43.662 198.603,45.082 199.425,45.966 199.682 C 47.082 200.007,56.516 200.111,76.800 200.022 C 105.493 199.896,106.058 199.877,107.733 199.001 C 108.770 198.460,109.920 197.337,110.663 196.141 C 113.055 192.289,111.876 187.545,107.951 185.238 L 106.027 184.107 76.800 184.026 C 60.725 183.982,47.381 184.013,47.147 184.096 " stroke="none" fill-rule="evenodd"></path></svg>