<svg fill="currentColor" viewBox="0 0 256 256" xmlns="http://www.w3.org/2000/svg"><path d="M149.547 24.546 C 148.608 24.884,147.826 25.163,147.810 25.167 C 147.793 25.170,131.864 37.551,112.412 52.680 L 77.045 80.187 52.282 80.307 L 27.520 80.427 25.159 81.586 C 20.392 83.927,17.010 88.570,16.178 93.912 C 15.913 95.613,15.799 109.239,15.876 129.924 C 15.999 162.970,16.006 163.216,16.928 165.463 C 18.720 169.835,22.172 173.286,26.537 175.069 C 28.744 175.971,29.406 175.999,53.333 176.210 L 77.867 176.427 112.576 203.461 C 131.666 218.329,147.794 230.760,148.416 231.085 C 152.390 233.160,157.299 231.399,159.198 227.218 C 159.951 225.561,159.981 221.675,159.981 128.000 C 159.981 34.325,159.951 30.439,159.198 28.782 C 158.242 26.678,156.243 24.928,154.120 24.339 C 152.095 23.776,151.623 23.798,149.547 24.546 M143.682 167.656 L 143.573 207.313 113.707 184.078 C 94.953 169.489,83.284 160.687,82.347 160.424 C 81.449 160.172,71.108 160.004,56.427 160.002 L 32.000 160.000 32.000 128.000 L 32.000 96.000 56.760 96.000 C 76.711 96.000,81.787 95.887,82.894 95.418 C 83.649 95.098,97.611 84.453,113.920 71.762 L 143.573 48.687 143.682 88.343 C 143.742 110.155,143.742 145.845,143.682 167.656 " stroke="none" fill-rule="evenodd"></path></svg>