<svg fill="currentColor" viewBox="0 0 256 256" xmlns="http://www.w3.org/2000/svg"><path d="M123.710 17.443 C 122.667 18.119,114.406 26.135,105.353 35.256 C 88.205 52.532,87.871 52.936,87.903 56.370 C 87.916 57.788,89.289 60.618,90.510 61.740 C 91.843 62.965,94.356 64.000,96.000 64.000 C 98.815 64.000,100.389 62.779,110.187 53.001 L 119.893 43.314 119.893 69.657 L 119.893 96.000 83.121 96.000 C 46.521 96.000,46.341 96.004,44.480 96.905 C 41.063 98.559,39.265 103.038,40.508 106.802 C 41.258 109.077,43.846 111.190,46.571 111.754 C 48.204 112.093,71.726 112.195,129.280 112.113 C 208.748 112.001,209.727 111.990,211.386 111.147 C 212.310 110.677,213.654 109.556,214.373 108.654 C 215.539 107.190,215.680 106.705,215.680 104.143 C 215.680 100.561,214.373 98.286,211.520 96.905 C 209.659 96.004,209.479 96.000,172.879 96.000 L 136.107 96.000 136.107 69.657 L 136.107 43.314 145.813 53.001 C 155.688 62.856,157.187 64.010,160.093 63.991 C 161.847 63.979,164.613 62.726,165.846 61.384 C 166.957 60.175,168.107 57.578,168.107 56.277 C 168.107 52.923,167.713 52.450,150.647 35.256 C 141.594 26.135,133.333 18.119,132.290 17.443 C 130.773 16.460,129.914 16.213,128.000 16.213 C 126.086 16.213,125.227 16.460,123.710 17.443 M44.579 144.808 C 42.767 145.597,40.628 148.182,40.288 149.991 C 39.568 153.832,41.278 157.545,44.480 159.095 C 46.341 159.996,46.521 160.000,83.121 160.000 L 119.893 160.000 119.893 186.343 L 119.893 212.686 110.187 202.999 C 100.312 193.144,98.813 191.990,95.907 192.009 C 94.153 192.021,91.387 193.274,90.154 194.616 C 89.043 195.825,87.893 198.422,87.893 199.723 C 87.893 203.082,88.271 203.535,105.566 220.938 C 114.737 230.166,123.063 238.204,124.068 238.801 C 126.555 240.276,129.445 240.276,131.932 238.801 C 132.937 238.204,141.263 230.166,150.434 220.938 C 167.811 203.453,168.129 203.070,168.097 199.630 C 168.084 198.212,166.711 195.382,165.490 194.260 C 164.157 193.035,161.644 192.000,160.000 192.000 C 157.185 192.000,155.611 193.221,145.813 202.999 L 136.107 212.686 136.107 186.343 L 136.107 160.000 172.879 160.000 C 209.479 160.000,209.659 159.996,211.520 159.095 C 214.373 157.714,215.680 155.439,215.680 151.857 C 215.680 149.292,215.540 148.811,214.370 147.346 C 213.649 146.444,212.401 145.371,211.596 144.961 C 210.218 144.258,205.371 144.216,128.000 144.231 C 61.084 144.244,45.628 144.351,44.579 144.808 " stroke="none" fill-rule="evenodd"></path></svg>