<svg fill="currentColor" viewBox="0 0 256 256" xmlns="http://www.w3.org/2000/svg"><path d="M50.901 40.899 C 46.620 42.383,43.380 45.316,41.430 49.474 L 40.320 51.840 40.320 128.000 L 40.320 204.160 41.455 206.581 C 43.044 209.972,45.666 212.649,49.005 214.293 L 51.822 215.680 128.000 215.680 L 204.178 215.680 206.995 214.293 C 210.334 212.649,212.956 209.972,214.545 206.581 L 215.680 204.160 215.680 127.991 L 215.680 51.822 214.278 48.973 C 212.652 45.670,209.987 43.085,206.507 41.434 L 204.160 40.320 128.640 40.225 C 56.843 40.134,53.011 40.168,50.901 40.899 M200.107 87.893 L 200.107 119.893 128.000 119.893 L 55.893 119.893 55.893 87.893 L 55.893 55.893 128.000 55.893 L 200.107 55.893 200.107 87.893 M72.107 168.107 L 72.107 200.107 64.000 200.107 L 55.893 200.107 55.893 168.107 L 55.893 136.107 64.000 136.107 L 72.107 136.107 72.107 168.107 M104.107 168.107 L 104.107 200.107 96.000 200.107 L 87.893 200.107 87.893 168.107 L 87.893 136.107 96.000 136.107 L 104.107 136.107 104.107 168.107 M136.107 168.107 L 136.107 200.107 128.000 200.107 L 119.893 200.107 119.893 168.107 L 119.893 136.107 128.000 136.107 L 136.107 136.107 136.107 168.107 M168.107 168.107 L 168.107 200.107 160.000 200.107 L 151.893 200.107 151.893 168.107 L 151.893 136.107 160.000 136.107 L 168.107 136.107 168.107 168.107 M200.107 168.107 L 200.107 200.107 192.000 200.107 L 183.893 200.107 183.893 168.107 L 183.893 136.107 192.000 136.107 L 200.107 136.107 200.107 168.107 " stroke="none" fill-rule="evenodd"></path></svg>