<svg fill="currentColor" viewBox="0 0 256 256" xmlns="http://www.w3.org/2000/svg"><path d="M124.800 8.711 C 124.096 9.026,123.006 9.834,122.378 10.508 C 121.750 11.182,114.524 23.445,106.321 37.760 L 91.406 63.787 60.530 64.000 C 32.422 64.194,29.534 64.279,28.317 64.945 C 25.371 66.558,23.583 69.992,24.078 73.088 C 24.268 74.277,29.199 83.310,39.543 101.417 L 54.730 128.000 39.543 154.583 C 29.199 172.690,24.268 181.723,24.078 182.912 C 23.583 186.008,25.371 189.442,28.317 191.055 C 29.534 191.721,32.422 191.806,60.540 192.000 L 91.427 192.213 106.198 218.027 C 114.322 232.224,121.319 244.359,121.747 244.992 C 122.789 246.537,125.712 247.893,128.000 247.893 C 130.288 247.893,133.211 246.537,134.253 244.992 C 134.681 244.359,141.678 232.224,149.802 218.027 L 164.573 192.213 195.673 192.000 C 218.273 191.845,227.007 191.650,227.627 191.288 C 230.733 189.474,232.673 185.345,231.853 182.294 C 231.616 181.414,224.713 168.981,216.511 154.667 C 208.310 140.352,201.600 128.352,201.600 128.000 C 201.600 127.648,208.310 115.648,216.511 101.333 C 224.713 87.019,231.616 74.586,231.853 73.706 C 232.708 70.525,230.879 66.722,227.627 64.922 C 226.477 64.286,223.191 64.192,195.455 64.000 L 164.563 63.787 149.350 37.131 C 135.154 12.260,134.011 10.396,132.262 9.291 C 130.145 7.953,127.040 7.712,124.800 8.711 M137.067 47.949 C 141.936 56.469,145.920 63.566,145.920 63.720 C 145.920 63.874,137.856 64.000,128.000 64.000 C 118.144 64.000,110.080 63.880,110.080 63.734 C 110.080 63.309,127.764 32.435,128.000 32.447 C 128.117 32.453,132.197 39.429,137.067 47.949 M80.911 82.148 C 75.048 92.640,64.187 111.360,63.964 111.360 C 63.735 111.360,46.641 81.817,46.151 80.574 C 46.073 80.376,54.105 80.213,64.001 80.213 L 81.993 80.213 80.911 82.148 M168.945 103.755 C 176.328 116.700,182.370 127.606,182.370 127.990 C 182.370 128.375,176.270 139.383,168.814 152.452 L 155.259 176.213 128.008 176.213 L 100.756 176.213 87.055 152.241 C 79.520 139.056,73.410 128.045,73.477 127.773 C 73.545 127.501,79.648 116.691,87.040 103.750 L 100.480 80.222 128.000 80.221 L 155.520 80.220 168.945 103.755 M208.911 82.148 C 202.038 94.447,192.172 111.346,191.916 111.258 C 191.652 111.167,176.855 85.532,174.675 81.387 L 174.058 80.213 192.026 80.213 L 209.993 80.213 208.911 82.148 M73.086 160.116 C 77.945 168.628,81.920 175.763,81.920 175.972 C 81.920 176.323,46.574 175.996,46.220 175.642 C 46.003 175.425,63.629 144.640,63.969 144.640 C 64.125 144.640,68.227 151.604,73.086 160.116 M201.086 160.116 C 205.945 168.628,209.920 175.732,209.920 175.903 C 209.920 176.074,201.856 176.213,192.000 176.213 C 182.144 176.213,174.080 176.078,174.080 175.912 C 174.080 175.415,191.704 144.640,191.989 144.640 C 192.133 144.640,196.227 151.604,201.086 160.116 M145.920 192.280 C 145.920 192.699,128.247 223.540,128.000 223.553 C 127.764 223.565,110.080 192.691,110.080 192.266 C 110.080 192.120,118.144 192.000,128.000 192.000 C 137.856 192.000,145.920 192.126,145.920 192.280 " stroke="none" fill-rule="evenodd"></path></svg>