<svg fill="currentColor" viewBox="0 0 256 256" xmlns="http://www.w3.org/2000/svg"><path d="M120.960 24.326 C 100.935 25.586,81.587 32.844,64.891 45.360 C 59.554 49.360,49.234 59.686,45.276 64.986 C 34.512 79.399,27.973 94.882,25.095 112.768 C 23.886 120.283,23.787 134.307,24.890 141.867 C 27.542 160.046,34.293 176.318,45.279 191.014 C 49.299 196.392,59.608 206.701,64.986 210.721 C 79.686 221.710,96.000 228.476,114.133 231.105 C 117.683 231.620,121.936 231.847,128.000 231.847 C 144.598 231.847,158.874 228.583,173.440 221.458 C 184.661 215.968,192.320 210.472,201.396 201.396 C 210.475 192.317,215.974 184.654,221.456 173.440 C 235.707 144.287,235.458 110.173,220.780 81.026 C 214.698 68.950,203.517 55.194,193.067 46.931 C 172.349 30.550,147.221 22.673,120.960 24.326 M142.080 41.152 C 183.100 48.087,213.487 81.881,215.754 123.086 C 216.035 128.190,216.034 128.197,215.157 127.566 C 214.674 127.218,212.098 125.276,209.433 123.250 C 192.830 110.630,172.312 101.694,151.893 98.191 C 142.537 96.586,138.501 96.260,128.000 96.260 C 117.521 96.260,113.527 96.582,104.107 98.185 C 83.564 101.680,61.674 111.332,45.405 124.067 C 43.039 125.919,40.848 127.592,40.536 127.785 C 40.070 128.073,40.018 127.226,40.248 123.055 C 42.146 88.554,63.883 58.683,96.401 45.891 C 101.417 43.918,110.346 41.621,115.413 41.001 C 117.525 40.743,119.733 40.449,120.320 40.349 C 122.762 39.932,138.241 40.503,142.080 41.152 M145.777 113.431 C 170.213 117.198,192.930 128.243,210.180 144.746 L 213.641 148.057 213.202 149.975 L 212.763 151.893 189.475 151.902 C 176.666 151.907,164.964 152.087,163.469 152.303 C 158.192 153.066,153.224 156.617,151.210 161.066 C 150.678 162.240,145.926 174.720,140.650 188.800 C 135.373 202.880,130.920 214.745,130.755 215.166 C 130.504 215.805,130.032 215.911,127.896 215.806 L 125.339 215.680 115.217 188.587 C 109.650 173.685,104.783 160.891,104.401 160.154 C 103.316 158.059,100.055 155.048,97.540 153.817 C 96.279 153.201,94.025 152.519,92.531 152.303 C 91.036 152.087,79.325 151.907,66.505 151.902 L 43.197 151.893 42.735 150.080 L 42.272 148.267 44.710 145.784 C 48.162 142.267,54.786 136.849,60.098 133.197 C 76.571 121.871,96.072 114.711,116.053 112.649 C 122.341 112.001,139.411 112.450,145.777 113.431 M123.947 128.730 C 120.972 129.748,117.706 133.059,116.705 136.072 C 115.799 138.800,115.981 142.845,117.111 145.086 C 118.133 147.113,120.620 149.650,122.667 150.751 C 124.973 151.993,130.880 152.067,133.120 150.883 C 140.179 147.152,142.108 138.148,137.102 132.299 C 133.988 128.661,128.501 127.173,123.947 128.730 M98.975 190.827 C 105.569 208.409,107.264 213.332,106.721 213.328 C 106.339 213.325,103.435 212.452,100.267 211.388 C 80.078 204.610,63.315 191.135,52.512 173.000 C 51.086 170.606,49.920 168.525,49.920 168.373 C 49.920 168.222,59.058 168.148,70.227 168.209 L 90.534 168.320 98.975 190.827 M206.080 168.378 C 206.080 168.527,204.914 170.606,203.488 173.000 C 192.685 191.135,175.922 204.610,155.733 211.388 C 152.565 212.452,149.663 213.325,149.285 213.328 C 148.749 213.332,150.375 208.570,156.606 191.893 C 161.011 180.101,164.821 169.925,165.071 169.280 L 165.526 168.107 185.803 168.107 C 196.955 168.107,206.080 168.229,206.080 168.378 " stroke="none" fill-rule="evenodd"></path></svg>