<svg fill="currentColor" viewBox="0 0 256 256" xmlns="http://www.w3.org/2000/svg"><path d="M44.265 32.461 C 39.776 33.526,35.661 36.951,33.540 41.387 L 32.213 44.160 32.213 128.000 L 32.213 211.840 33.407 214.400 C 34.974 217.760,38.261 221.060,41.555 222.583 L 44.160 223.787 128.000 223.787 L 211.840 223.787 214.445 222.583 C 217.739 221.060,221.026 217.760,222.593 214.400 L 223.787 211.840 223.787 128.000 L 223.787 44.160 222.583 41.555 C 221.060 38.261,217.760 34.974,214.400 33.407 L 211.840 32.213 128.853 32.147 C 81.512 32.109,45.179 32.244,44.265 32.461 M207.787 128.213 L 207.787 208.213 128.000 208.213 L 48.213 208.213 48.213 128.213 L 48.213 48.213 128.000 48.213 L 207.787 48.213 207.787 128.213 M120.667 72.567 C 116.416 73.190,112.964 74.251,108.800 76.215 C 99.348 80.672,93.078 87.810,90.624 96.908 C 89.527 100.974,89.637 107.792,90.857 111.360 C 94.314 121.467,102.251 126.952,121.774 132.729 C 133.636 136.238,138.230 137.812,142.293 139.758 C 149.042 142.989,151.421 145.821,151.797 151.074 C 151.989 153.760,151.884 154.283,150.655 156.780 C 147.787 162.607,141.045 166.524,131.755 167.760 C 128.885 168.143,127.115 168.143,124.245 167.760 C 112.689 166.222,105.093 160.488,104.110 152.559 C 103.647 148.826,102.619 146.893,100.321 145.436 C 96.414 142.958,90.896 144.353,88.929 148.316 C 88.320 149.544,88.118 150.803,88.151 153.173 C 88.330 166.090,99.759 178.192,115.840 182.494 C 119.737 183.536,120.791 183.635,128.000 183.635 C 135.209 183.635,136.263 183.536,140.160 182.494 C 151.245 179.529,160.436 172.750,164.865 164.273 C 171.077 152.384,167.891 138.327,157.131 130.155 C 151.047 125.535,144.384 122.803,124.800 116.898 C 116.204 114.307,111.304 112.113,108.650 109.666 C 106.354 107.550,105.623 105.649,105.936 102.611 C 106.576 96.414,112.552 90.840,120.640 88.895 C 124.572 87.950,132.059 87.971,135.680 88.938 C 141.336 90.448,146.270 93.837,148.622 97.826 C 151.279 102.332,155.271 103.890,159.378 102.025 C 162.568 100.576,164.684 96.804,164.034 93.724 C 163.184 89.700,157.702 82.725,152.747 79.362 C 147.587 75.861,141.259 73.425,135.098 72.568 C 131.313 72.042,124.250 72.041,120.667 72.567 " stroke="none" fill-rule="evenodd"></path></svg>