<svg fill="currentColor" viewBox="0 0 256 256" xmlns="http://www.w3.org/2000/svg"><path d="M26.597 49.003 C 22.460 50.432,18.751 54.089,16.928 58.537 L 16.000 60.800 16.000 128.000 L 16.000 195.200 16.928 197.463 C 18.719 201.833,22.167 205.281,26.537 207.072 L 28.800 208.000 128.000 208.000 L 227.200 208.000 229.463 207.072 C 233.833 205.281,237.281 201.833,239.072 197.463 L 240.000 195.200 240.000 128.000 L 240.000 60.800 239.072 58.537 C 237.249 54.089,233.540 50.432,229.403 49.003 C 227.313 48.280,222.101 48.241,128.000 48.241 C 33.899 48.241,28.687 48.280,26.597 49.003 M224.000 128.000 L 224.000 192.000 128.000 192.000 L 32.000 192.000 32.000 128.000 L 32.000 64.000 128.000 64.000 L 224.000 64.000 224.000 128.000 M52.644 128.816 C 48.625 130.641,46.882 135.865,48.984 139.792 C 49.690 141.111,52.328 143.301,53.661 143.674 C 55.179 144.099,72.821 144.099,74.339 143.674 C 75.672 143.301,78.310 141.111,79.016 139.792 C 81.118 135.865,79.375 130.641,75.356 128.816 C 73.808 128.113,72.465 128.019,64.000 128.019 C 55.535 128.019,54.192 128.113,52.644 128.816 M100.903 128.796 C 93.763 132.039,94.840 142.173,102.493 143.762 C 104.080 144.091,119.244 144.197,153.390 144.116 C 198.218 144.009,202.130 143.943,203.350 143.275 C 205.111 142.311,207.286 139.786,207.603 138.339 C 207.743 137.698,207.923 136.957,208.002 136.693 C 208.302 135.693,207.269 132.441,206.212 131.055 C 205.607 130.263,204.322 129.255,203.356 128.816 C 201.673 128.052,199.535 128.019,152.107 128.019 C 105.145 128.019,102.526 128.058,100.903 128.796 M52.644 160.816 C 51.678 161.255,50.393 162.263,49.788 163.055 C 48.731 164.441,47.698 167.693,47.998 168.693 C 48.077 168.957,48.257 169.698,48.397 170.339 C 48.714 171.786,50.889 174.311,52.650 175.275 C 53.870 175.943,57.782 176.009,102.610 176.116 C 136.756 176.197,151.920 176.091,153.507 175.762 C 161.160 174.173,162.237 164.039,155.097 160.796 C 153.474 160.058,150.855 160.019,103.893 160.019 C 56.465 160.019,54.327 160.052,52.644 160.816 M180.644 160.816 C 176.625 162.641,174.882 167.865,176.984 171.792 C 177.690 173.111,180.328 175.301,181.661 175.674 C 183.179 176.099,200.821 176.099,202.339 175.674 C 203.672 175.301,206.310 173.111,207.016 171.792 C 209.118 167.865,207.375 162.641,203.356 160.816 C 201.808 160.113,200.465 160.019,192.000 160.019 C 183.535 160.019,182.192 160.113,180.644 160.816 " stroke="none" fill-rule="evenodd"></path></svg>