<svg fill="currentColor" viewBox="0 0 256 256" xmlns="http://www.w3.org/2000/svg"><path d="M76.425 32.899 C 73.798 34.237,72.107 36.995,72.107 39.941 C 72.107 41.905,72.614 43.190,76.412 50.844 C 81.334 60.761,82.214 62.080,84.644 63.184 C 90.053 65.640,96.000 61.686,96.000 55.632 C 96.000 54.682,94.388 50.995,91.082 44.388 C 86.781 35.790,85.958 34.421,84.515 33.466 C 82.128 31.886,78.863 31.657,76.425 32.899 M173.564 32.399 C 170.643 33.337,169.887 34.386,164.874 44.457 C 159.887 54.477,159.582 55.438,160.424 58.468 C 160.899 60.179,163.460 62.873,165.254 63.548 C 168.225 64.666,172.277 63.490,174.197 60.953 C 174.794 60.165,177.220 55.616,179.588 50.844 C 184.380 41.186,184.687 39.882,182.988 36.373 C 181.391 33.075,177.100 31.265,173.564 32.399 M120.533 72.373 C 92.611 75.342,68.604 94.629,59.681 121.262 C 57.033 129.165,55.615 139.257,56.053 147.075 L 56.322 151.856 35.094 151.981 C 16.262 152.093,13.722 152.187,12.587 152.815 C 6.380 156.251,6.619 164.337,13.013 167.298 C 14.661 168.061,18.638 168.088,128.000 168.088 C 237.362 168.088,241.339 168.061,242.987 167.298 C 246.138 165.839,247.893 163.227,247.893 160.000 C 247.893 157.858,247.262 156.238,245.840 154.735 C 243.268 152.018,244.182 152.119,220.906 151.981 L 199.678 151.856 199.947 147.075 C 200.385 139.257,198.967 129.165,196.319 121.262 C 188.105 96.743,167.206 78.390,141.781 73.369 C 137.279 72.480,124.962 71.903,120.533 72.373 M21.571 88.511 C 19.199 89.383,17.898 90.459,16.907 92.368 C 15.240 95.581,16.286 100.325,19.103 102.331 C 19.765 102.802,24.280 105.159,29.138 107.569 C 36.794 111.367,38.244 111.946,40.028 111.919 C 41.161 111.902,42.669 111.587,43.380 111.219 C 45.087 110.336,47.283 107.798,47.603 106.339 C 47.743 105.698,47.923 104.957,48.002 104.693 C 48.081 104.428,47.958 103.376,47.729 102.354 C 46.952 98.895,45.958 98.114,35.873 93.040 C 30.741 90.457,25.802 88.242,24.897 88.118 C 23.950 87.988,22.540 88.154,21.571 88.511 M138.561 88.951 C 160.452 93.195,177.955 110.304,182.655 132.053 C 183.626 136.545,184.145 144.925,183.706 149.022 L 183.399 151.893 128.000 151.893 L 72.601 151.893 72.294 149.022 C 71.855 144.925,72.374 136.545,73.345 132.053 C 78.331 108.979,97.293 91.575,120.960 88.349 C 124.999 87.798,134.248 88.114,138.561 88.951 M229.973 88.273 C 229.387 88.462,224.831 90.669,219.850 93.177 C 213.144 96.554,210.524 98.094,209.756 99.109 C 208.658 100.560,207.655 103.623,207.960 104.594 C 208.060 104.913,208.257 105.698,208.397 106.339 C 208.717 107.798,210.913 110.336,212.620 111.219 C 213.331 111.587,214.839 111.902,215.972 111.919 C 217.756 111.946,219.206 111.367,226.862 107.569 C 231.720 105.159,236.235 102.802,236.897 102.331 C 239.814 100.254,240.736 95.471,238.871 92.090 C 237.277 89.202,232.908 87.327,229.973 88.273 M44.445 192.916 C 41.050 194.596,39.272 199.060,40.508 202.802 C 41.258 205.077,43.846 207.190,46.571 207.754 C 48.204 208.093,71.726 208.195,129.280 208.113 C 208.748 208.001,209.727 207.990,211.386 207.147 C 212.310 206.677,213.654 205.556,214.373 204.654 C 215.539 203.190,215.680 202.705,215.680 200.143 C 215.680 196.561,214.373 194.286,211.520 192.905 L 209.651 192.000 127.972 192.000 L 46.293 192.001 44.445 192.916 " stroke="none" fill-rule="evenodd"></path></svg>