<svg fill="currentColor" viewBox="0 0 256 256" xmlns="http://www.w3.org/2000/svg"><path d="M50.133 40.567 C 38.476 42.536,28.591 51.729,25.070 63.876 L 24.107 67.200 24.107 118.827 L 24.107 170.453 25.251 174.594 C 27.445 182.540,30.886 188.660,36.393 194.416 C 59.784 218.862,100.814 208.671,110.262 176.068 C 111.745 170.950,112.213 165.713,112.213 154.257 L 112.213 144.213 128.000 144.213 L 143.787 144.213 143.787 154.257 C 143.787 159.781,143.992 166.141,144.243 168.391 C 145.651 181.016,151.837 191.878,161.872 199.343 C 179.565 212.503,204.321 210.391,219.607 194.416 C 225.114 188.660,228.556 182.537,230.749 174.594 L 231.892 170.453 231.893 118.827 L 231.893 67.200 230.930 63.876 C 227.015 50.369,215.870 41.126,202.435 40.243 C 198.904 40.011,198.289 40.084,196.500 40.950 C 192.562 42.856,190.950 47.482,192.853 51.414 C 194.220 54.237,196.153 55.366,200.809 56.062 C 202.913 56.376,205.529 57.029,206.623 57.513 C 209.395 58.739,212.747 62.019,214.338 65.060 L 215.680 67.627 215.800 97.813 L 215.921 128.000 128.000 128.000 L 40.079 128.000 40.200 97.813 L 40.320 67.627 41.662 65.067 C 44.431 59.783,48.496 57.062,55.091 56.077 C 59.854 55.365,61.771 54.256,63.147 51.414 C 65.020 47.544,63.433 42.854,59.627 41.012 C 57.615 40.038,54.209 39.878,50.133 40.567 M95.905 156.693 C 95.738 168.876,95.706 169.255,94.588 172.587 C 93.958 174.464,93.255 176.288,93.024 176.640 C 92.690 177.152,89.291 173.967,76.064 160.747 L 59.521 144.213 77.799 144.213 L 96.077 144.213 95.905 156.693 M215.887 155.840 C 215.882 164.641,215.726 168.123,215.244 170.168 C 214.568 173.034,212.983 177.067,212.532 177.067 C 212.384 177.067,204.872 169.675,195.840 160.640 L 179.417 144.213 197.655 144.213 L 215.893 144.213 215.887 155.840 M80.640 189.024 C 80.288 189.255,78.464 189.960,76.587 190.593 C 73.656 191.580,72.449 191.745,68.053 191.764 C 62.379 191.788,59.361 191.055,54.400 188.450 C 50.755 186.536,45.414 181.076,43.391 177.195 C 40.573 171.789,40.107 168.991,40.107 157.479 L 40.107 147.414 60.693 168.010 C 77.141 184.464,81.151 188.690,80.640 189.024 M200.960 188.623 C 200.960 189.626,193.999 191.584,189.436 191.864 C 177.040 192.624,165.371 184.630,161.433 172.678 C 160.324 169.313,160.271 168.740,160.109 158.293 L 159.940 147.413 180.450 167.892 C 191.731 179.155,200.960 188.484,200.960 188.623 " stroke="none" fill-rule="evenodd"></path></svg>