<svg fill="currentColor" viewBox="0 0 256 256" xmlns="http://www.w3.org/2000/svg"><path d="M121.813 24.148 C 95.776 26.116,73.561 35.963,55.527 53.530 C 42.891 65.838,34.490 79.197,29.089 95.573 C 25.837 105.429,24.356 114.114,24.031 125.227 C 22.965 161.687,40.631 195.291,71.467 215.455 C 83.086 223.053,96.468 228.192,111.652 230.887 C 119.076 232.204,135.872 232.324,143.147 231.111 C 162.439 227.894,178.518 220.843,193.067 209.222 C 224.384 184.206,238.587 142.746,229.150 103.890 C 226.674 93.695,222.338 82.797,219.908 80.664 C 216.174 77.385,210.694 78.199,207.880 82.452 C 206.108 85.129,206.331 87.445,208.959 93.653 C 214.179 105.983,216.196 116.973,215.773 130.773 C 215.363 144.122,212.894 154.317,207.199 166.187 C 191.101 199.736,154.885 219.708,118.187 215.274 C 100.736 213.166,83.647 205.744,71.247 194.890 C 54.977 180.647,45.110 163.099,41.313 141.653 C 40.427 136.645,40.549 118.638,41.505 113.493 C 44.899 95.231,52.486 80.134,64.617 67.507 C 75.052 56.646,86.856 49.160,100.693 44.626 C 128.282 35.587,157.739 40.486,181.252 58.026 L 184.351 60.337 172.971 71.723 L 161.591 83.108 158.769 81.288 C 152.633 77.330,146.248 74.682,139.076 73.120 C 134.031 72.021,122.009 72.012,117.006 73.103 C 96.715 77.529,80.854 91.756,74.715 111.039 C 66.440 137.028,78.337 165.549,102.552 177.773 C 111.509 182.295,119.804 184.107,129.920 183.751 C 138.526 183.448,144.916 181.940,152.217 178.488 C 163.561 173.125,174.210 162.126,179.256 150.559 C 182.166 143.890,183.519 137.836,183.780 130.319 C 183.982 124.488,183.922 123.708,183.132 121.923 C 180.896 116.866,173.807 115.810,169.948 119.958 C 168.485 121.532,168.114 123.030,167.896 128.238 C 167.458 138.713,164.573 146.431,158.282 153.957 C 152.800 160.516,144.616 165.300,135.467 167.294 C 131.673 168.121,123.764 168.019,119.680 167.090 C 107.431 164.305,97.871 156.816,92.381 145.707 C 89.796 140.476,88.987 137.729,88.336 131.981 C 87.308 122.907,89.835 113.011,95.215 105.035 C 98.958 99.486,106.752 93.406,113.559 90.724 C 121.374 87.645,131.496 87.239,139.507 89.682 C 142.230 90.512,148.713 93.516,149.532 94.326 C 149.795 94.586,144.686 100.006,135.380 109.340 C 122.508 122.249,120.758 124.163,120.325 125.808 C 118.720 131.901,124.094 137.277,130.192 135.677 C 131.883 135.234,136.546 130.702,181.255 86.048 C 208.317 59.020,230.716 36.420,231.032 35.825 C 233.095 31.943,231.547 26.882,227.683 24.876 C 226.081 24.044,222.083 23.957,220.585 24.721 C 219.999 25.019,214.144 30.611,207.573 37.148 L 195.627 49.033 193.067 46.893 C 188.585 43.148,180.469 38.021,173.867 34.765 C 163.685 29.745,152.729 26.402,141.666 24.939 C 137.008 24.323,125.538 23.866,121.813 24.148 " stroke="none" fill-rule="evenodd"></path></svg>