<svg fill="currentColor" viewBox="0 0 256 256" xmlns="http://www.w3.org/2000/svg"><path d="M112.247 16.904 C 108.291 18.311,104.905 21.302,103.127 24.960 C 102.557 26.133,99.520 33.571,96.379 41.488 L 90.667 55.883 79.787 55.891 C 73.803 55.896,67.665 56.101,66.148 56.347 C 62.686 56.909,58.864 58.919,56.823 61.252 C 55.960 62.239,48.939 74.109,41.223 87.630 L 27.192 112.213 20.622 112.213 C 13.204 112.213,12.050 112.505,9.934 114.914 C 6.667 118.636,7.979 124.916,12.480 127.095 C 14.043 127.851,15.131 128.000,19.111 128.000 L 23.873 128.000 23.990 169.707 L 24.107 211.413 25.097 213.865 C 26.479 217.288,29.683 220.659,33.198 222.390 L 36.036 223.787 52.045 223.787 L 68.053 223.787 70.400 222.672 C 75.308 220.341,78.787 215.845,79.750 210.588 C 80.005 209.196,80.213 204.444,80.213 200.028 L 80.213 192.000 128.000 192.000 L 175.787 192.000 175.787 200.028 C 175.787 204.444,175.995 209.196,176.250 210.588 C 177.213 215.845,180.692 220.341,185.600 222.672 L 187.947 223.787 203.955 223.787 L 219.964 223.787 222.802 222.390 C 226.317 220.659,229.521 217.288,230.903 213.865 L 231.893 211.413 232.010 169.707 L 232.127 128.000 236.889 128.000 C 242.599 128.000,244.703 127.228,246.535 124.459 C 247.492 123.012,247.680 122.259,247.680 119.857 C 247.680 117.292,247.540 116.811,246.370 115.346 C 244.113 112.523,243.040 112.215,235.458 112.214 L 228.783 112.213 214.765 87.626 C 207.055 74.103,200.040 62.233,199.177 61.249 C 197.134 58.918,193.311 56.909,189.852 56.347 C 188.335 56.101,182.197 55.896,176.213 55.891 L 165.333 55.883 159.613 41.488 C 156.467 33.571,153.364 26.037,152.716 24.747 C 151.265 21.852,148.585 19.211,145.493 17.628 L 143.147 16.427 128.640 16.330 C 116.357 16.247,113.844 16.335,112.247 16.904 M143.152 43.413 C 145.666 49.691,147.818 55.067,147.934 55.360 C 148.101 55.782,143.944 55.893,128.000 55.893 C 112.056 55.893,107.899 55.782,108.066 55.360 C 108.182 55.067,110.334 49.691,112.848 43.413 L 117.420 32.000 128.000 32.000 L 138.580 32.000 143.152 43.413 M198.705 91.947 C 204.872 102.741,209.919 111.717,209.919 111.893 C 209.920 112.069,173.056 112.213,128.000 112.213 C 82.944 112.213,46.080 112.080,46.080 111.917 C 46.080 111.755,51.120 102.738,57.280 91.880 L 68.480 72.139 127.985 72.230 L 187.491 72.320 198.705 91.947 M215.893 152.107 L 215.893 176.213 128.000 176.213 L 40.107 176.213 40.107 152.107 L 40.107 128.000 128.000 128.000 L 215.893 128.000 215.893 152.107 M59.679 145.436 C 54.355 148.812,54.976 156.561,60.782 159.198 C 62.289 159.882,63.716 159.982,72.079 159.991 C 80.972 159.999,81.783 159.936,83.520 159.095 C 86.373 157.714,87.680 155.439,87.680 151.857 C 87.680 149.292,87.540 148.811,86.370 147.346 C 83.959 144.330,83.426 144.215,71.870 144.214 L 61.607 144.213 59.679 145.436 M172.579 144.808 C 170.767 145.597,168.628 148.182,168.288 149.991 C 167.568 153.832,169.278 157.545,172.480 159.095 C 174.217 159.936,175.028 159.999,183.921 159.991 C 192.284 159.982,193.711 159.882,195.218 159.198 C 201.024 156.561,201.645 148.812,196.321 145.436 L 194.393 144.213 184.130 144.230 C 176.616 144.242,173.522 144.397,172.579 144.808 M64.000 200.107 L 64.000 208.213 52.053 208.213 L 40.107 208.213 40.107 200.107 L 40.107 192.000 52.053 192.000 L 64.000 192.000 64.000 200.107 M215.893 200.107 L 215.893 208.213 203.947 208.213 L 192.000 208.213 192.000 200.107 L 192.000 192.000 203.947 192.000 L 215.893 192.000 215.893 200.107 " stroke="none" fill-rule="evenodd"></path></svg>