<svg fill="currentColor" viewBox="0 0 256 256" xmlns="http://www.w3.org/2000/svg"><path d="M229.120 24.303 C 227.856 24.574,34.661 100.033,25.735 103.742 C 21.716 105.413,19.153 107.711,17.447 111.175 C 15.815 114.491,15.591 118.302,16.815 121.940 C 17.806 124.885,21.422 128.846,24.219 130.049 C 25.356 130.538,38.115 133.251,53.005 136.169 L 79.750 141.411 79.875 172.359 L 80.000 203.307 80.996 205.775 C 82.392 209.234,85.862 212.870,89.266 214.442 C 91.630 215.534,92.427 215.680,96.009 215.680 C 99.745 215.680,100.302 215.566,102.938 214.268 C 105.531 212.992,107.082 211.533,119.143 199.017 C 126.478 191.405,132.638 185.177,132.830 185.175 C 133.023 185.174,142.280 193.134,153.401 202.863 C 164.522 212.593,174.349 221.027,175.237 221.606 C 179.310 224.260,185.502 224.657,190.084 222.560 C 193.114 221.172,196.412 218.046,197.768 215.276 C 198.533 213.712,204.754 187.400,218.914 125.836 C 229.948 77.864,239.241 37.365,239.566 35.840 C 240.372 32.054,239.838 29.676,237.614 27.149 C 235.453 24.695,232.271 23.629,229.120 24.303 M201.671 129.194 C 191.758 172.208,183.486 207.420,183.289 207.443 C 182.751 207.505,101.162 135.953,101.274 135.517 C 101.406 135.004,219.498 50.376,219.607 50.716 C 219.655 50.865,211.584 86.180,201.671 129.194 M130.581 94.549 L 86.130 126.378 61.732 121.592 C 48.313 118.960,37.258 116.738,37.166 116.653 C 36.960 116.465,26.872 120.455,106.027 89.417 C 143.339 74.786,174.129 62.794,174.450 62.768 C 174.770 62.742,155.030 77.043,130.581 94.549 M109.348 164.225 L 120.722 174.209 115.203 180.011 C 112.167 183.202,106.614 188.981,102.862 192.853 L 96.042 199.893 96.021 176.289 L 96.000 152.685 96.987 153.462 C 97.529 153.890,103.092 158.733,109.348 164.225 " stroke="none" fill-rule="evenodd"></path></svg>