<svg fill="currentColor" viewBox="0 0 256 256" xmlns="http://www.w3.org/2000/svg"><path d="M36.480 48.924 C 34.503 49.968,33.654 50.839,32.802 52.693 C 32.054 54.324,32.018 57.140,32.009 116.025 L 32.000 177.651 32.905 179.520 C 34.286 182.373,36.561 183.680,40.143 183.680 C 42.705 183.680,43.190 183.539,44.654 182.373 C 45.556 181.654,46.677 180.310,47.147 179.386 C 47.969 177.768,48.004 176.733,48.122 150.933 L 48.244 124.160 92.175 124.160 L 136.107 124.160 136.107 151.057 C 136.107 176.608,136.147 178.033,136.915 179.537 C 137.913 181.492,138.882 182.390,140.909 183.237 C 145.256 185.053,150.218 182.782,151.486 178.396 C 151.789 177.346,151.892 157.072,151.806 114.920 L 151.680 52.986 150.370 51.346 C 148.687 49.240,146.645 48.215,144.134 48.214 C 141.658 48.213,140.094 48.784,138.507 50.267 C 136.049 52.566,136.107 51.828,136.107 81.053 L 136.107 107.947 92.175 107.947 L 48.244 107.947 48.122 80.960 C 48.013 56.754,47.927 53.841,47.291 52.693 C 46.355 51.002,44.448 49.230,42.959 48.667 C 41.222 48.011,37.963 48.140,36.480 48.924 M196.338 105.022 C 192.707 106.820,192.848 106.315,188.133 134.459 C 185.321 151.240,183.974 160.323,184.141 161.377 C 184.638 164.527,187.469 167.344,190.682 167.887 C 193.152 168.304,195.532 167.460,198.057 165.272 C 208.895 155.878,225.443 159.708,230.586 172.800 C 234.281 182.206,229.933 193.288,220.770 197.816 C 213.325 201.496,205.187 200.536,198.644 195.206 C 195.295 192.479,194.296 192.006,191.876 192.003 C 185.846 191.995,182.158 197.958,184.808 203.432 C 186.590 207.115,194.221 212.218,201.387 214.520 C 206.286 216.093,214.465 216.329,219.977 215.055 C 241.312 210.125,253.299 187.595,245.546 166.996 C 241.438 156.082,231.087 147.248,219.645 144.891 C 215.929 144.125,208.606 143.999,205.216 144.642 C 203.972 144.878,202.885 145.001,202.800 144.915 C 202.714 144.829,203.568 139.212,204.698 132.433 L 206.752 120.107 224.656 119.893 C 243.782 119.665,243.872 119.655,245.851 117.468 C 246.942 116.263,247.893 113.716,247.893 112.000 C 247.893 110.290,246.948 107.751,245.850 106.515 C 245.449 106.063,244.352 105.340,243.413 104.909 C 241.829 104.182,240.147 104.125,219.947 104.116 C 198.549 104.107,198.156 104.123,196.338 105.022 " stroke="none" fill-rule="evenodd"></path></svg>