<svg fill="currentColor" viewBox="0 0 256 256" xmlns="http://www.w3.org/2000/svg"><path d="M108.813 40.782 C 106.863 41.628,105.895 42.542,104.915 44.463 C 104.198 45.868,104.107 47.056,104.107 55.013 L 104.107 63.980 62.187 64.097 L 20.267 64.213 17.408 65.568 C 13.901 67.229,11.211 69.846,9.566 73.197 L 8.320 75.733 8.188 126.720 C 8.095 163.073,8.193 178.341,8.533 179.918 C 9.163 182.849,11.839 186.905,14.377 188.778 C 15.505 189.609,17.647 190.674,19.138 191.145 C 21.774 191.976,23.005 192.000,62.978 192.000 L 104.107 192.000 104.107 200.977 C 104.107 208.944,104.198 210.132,104.915 211.537 C 105.913 213.492,106.882 214.390,108.909 215.237 C 111.815 216.451,115.932 215.645,117.850 213.485 C 120.005 211.058,119.894 215.730,119.884 127.907 C 119.875 49.625,119.843 46.224,119.091 44.587 C 118.159 42.557,117.207 41.647,115.091 40.763 C 113.125 39.941,110.735 39.949,108.813 40.782 M140.445 64.910 C 137.049 66.601,135.273 71.062,136.508 74.802 C 137.243 77.031,139.833 79.173,142.478 79.741 C 144.009 80.069,158.027 80.213,188.396 80.213 L 232.110 80.213 232.002 128.107 L 231.893 176.000 186.453 176.213 C 151.977 176.375,140.796 176.551,140.112 176.944 C 138.524 177.855,136.584 180.415,136.288 181.991 C 135.568 185.832,137.278 189.545,140.480 191.095 L 142.349 192.000 188.250 192.000 C 232.999 192.000,234.218 191.979,236.862 191.145 C 238.353 190.674,240.495 189.609,241.623 188.778 C 244.161 186.905,246.837 182.849,247.467 179.918 C 247.807 178.341,247.905 163.073,247.812 126.720 L 247.680 75.733 246.434 73.197 C 244.789 69.846,242.099 67.229,238.592 65.568 L 235.733 64.213 189.013 64.102 L 142.293 63.991 140.445 64.910 M104.002 128.107 L 103.893 176.000 64.000 176.000 L 24.107 176.000 23.998 128.107 L 23.890 80.213 64.000 80.213 L 104.110 80.213 104.002 128.107 M44.813 104.782 C 42.863 105.628,41.895 106.542,40.915 108.463 C 39.433 111.367,40.183 115.728,42.530 117.850 C 44.240 119.397,46.344 119.893,51.186 119.893 L 55.893 119.893 55.903 132.587 C 55.913 146.585,56.035 147.332,58.720 149.840 C 62.722 153.578,68.894 152.179,71.298 146.987 C 72.010 145.448,72.089 144.031,72.097 132.587 L 72.107 119.893 76.907 119.884 C 83.484 119.871,85.662 118.860,87.237 115.091 C 88.072 113.093,88.072 110.907,87.237 108.909 C 86.353 106.793,85.443 105.841,83.413 104.909 C 81.843 104.188,80.288 104.126,64.000 104.133 C 49.185 104.139,46.051 104.245,44.813 104.782 " stroke="none" fill-rule="evenodd"></path></svg>