<svg fill="currentColor" viewBox="0 0 256 256" xmlns="http://www.w3.org/2000/svg"><path d="M36.480 48.924 C 34.503 49.968,33.654 50.839,32.802 52.693 C 32.054 54.324,32.018 57.140,32.009 116.025 L 32.000 177.651 32.905 179.520 C 34.286 182.373,36.561 183.680,40.143 183.680 C 42.705 183.680,43.190 183.539,44.654 182.373 C 45.556 181.654,46.677 180.310,47.147 179.386 C 47.969 177.768,48.004 176.733,48.122 150.933 L 48.244 124.160 92.175 124.160 L 136.107 124.160 136.107 151.057 C 136.107 176.608,136.147 178.033,136.915 179.537 C 137.913 181.492,138.882 182.390,140.909 183.237 C 145.256 185.053,150.218 182.782,151.486 178.396 C 151.789 177.346,151.892 157.072,151.806 114.920 L 151.680 52.986 150.370 51.346 C 148.687 49.240,146.645 48.215,144.134 48.214 C 141.658 48.213,140.094 48.784,138.507 50.267 C 136.049 52.566,136.107 51.828,136.107 81.053 L 136.107 107.947 92.175 107.947 L 48.244 107.947 48.122 80.960 C 48.013 56.754,47.927 53.841,47.291 52.693 C 46.355 51.002,44.448 49.230,42.959 48.667 C 41.222 48.011,37.963 48.140,36.480 48.924 M209.432 104.724 C 201.353 106.412,193.684 111.686,189.238 118.613 C 186.012 123.639,184.841 127.315,185.585 130.078 C 186.777 134.504,191.944 137.235,196.132 135.653 C 198.073 134.920,199.653 133.123,201.403 129.658 C 203.371 125.762,206.074 122.937,209.392 121.309 C 211.582 120.234,212.291 120.107,216.116 120.107 C 220.087 120.107,220.594 120.206,223.240 121.509 C 226.515 123.121,228.952 125.638,230.716 129.228 C 231.751 131.336,231.893 132.118,231.893 135.680 C 231.893 139.152,231.735 140.072,230.786 142.093 C 230.177 143.391,219.568 157.938,207.210 174.418 C 183.074 206.605,183.212 206.392,184.261 209.890 C 184.905 212.041,187.040 214.545,188.886 215.317 C 189.994 215.780,195.333 215.891,215.986 215.884 C 240.030 215.875,241.818 215.823,243.413 215.091 C 245.443 214.159,246.353 213.207,247.237 211.091 C 248.451 208.185,247.645 204.068,245.485 202.150 C 243.276 200.188,242.453 200.107,224.867 200.107 C 215.708 200.107,208.213 200.009,208.213 199.889 C 208.213 199.770,215.979 189.322,225.469 176.672 C 234.960 164.022,243.300 152.648,244.003 151.396 C 247.654 144.889,248.880 135.942,247.092 128.843 C 244.193 117.328,236.292 108.914,225.067 105.385 C 221.252 104.187,213.562 103.861,209.432 104.724 " stroke="none" fill-rule="evenodd"></path></svg>