<svg fill="currentColor" viewBox="0 0 256 256" xmlns="http://www.w3.org/2000/svg"><path d="M39.040 56.097 C 38.805 56.179,38.100 56.358,37.473 56.496 C 34.768 57.090,32.019 60.872,32.019 64.000 C 32.019 65.829,33.242 68.583,34.616 69.846 C 37.160 72.185,35.728 72.107,76.040 72.097 C 111.378 72.088,113.367 72.048,114.987 71.298 C 118.138 69.839,119.893 67.227,119.893 64.000 C 119.893 61.858,119.262 60.238,117.840 58.735 C 115.189 55.934,117.924 56.115,76.800 56.028 C 56.267 55.984,39.275 56.016,39.040 56.097 M143.147 56.097 C 142.912 56.179,142.196 56.361,141.554 56.502 C 140.913 56.643,139.685 57.377,138.824 58.133 C 134.350 62.061,135.458 68.726,141.013 71.298 C 142.633 72.048,144.614 72.088,180.053 72.088 C 215.449 72.088,217.475 72.047,219.093 71.300 C 221.159 70.347,222.459 68.996,223.340 66.888 C 224.893 63.170,223.267 58.880,219.520 56.813 C 218.360 56.173,214.753 56.099,180.907 56.028 C 160.373 55.984,143.381 56.016,143.147 56.097 M36.903 96.796 C 29.756 100.043,30.840 110.173,38.506 111.764 C 40.092 112.094,51.812 112.201,77.244 112.118 C 112.739 112.003,113.751 111.977,115.386 111.147 C 116.310 110.677,117.654 109.556,118.373 108.654 C 119.539 107.190,119.680 106.705,119.680 104.143 C 119.680 100.561,118.373 98.286,115.520 96.905 C 113.658 96.004,113.502 96.000,76.132 96.009 C 40.764 96.018,38.515 96.063,36.903 96.796 M140.445 96.916 C 137.050 98.596,135.272 103.060,136.508 106.802 C 137.243 109.031,139.833 111.173,142.478 111.741 C 145.536 112.396,214.548 112.401,217.604 111.746 C 223.382 110.507,225.940 103.419,222.161 99.115 C 219.274 95.827,221.907 96.020,179.840 96.010 C 142.302 96.001,142.293 96.001,140.445 96.916 M36.338 137.022 C 33.590 138.383,32.213 140.711,32.213 144.000 C 32.213 147.314,33.602 149.647,36.373 150.988 C 38.236 151.890,38.387 151.893,75.975 151.884 C 111.674 151.875,113.799 151.832,115.413 151.091 C 117.443 150.159,118.353 149.207,119.237 147.091 C 120.072 145.093,120.072 142.907,119.237 140.909 C 118.353 138.793,117.443 137.841,115.413 136.909 C 113.799 136.168,111.674 136.125,75.947 136.116 C 38.191 136.107,38.186 136.107,36.338 137.022 M140.813 136.782 C 138.863 137.628,137.895 138.542,136.915 140.463 C 135.433 143.367,136.183 147.728,138.530 149.850 C 140.841 151.940,139.882 151.893,180.118 151.893 C 217.602 151.893,217.765 151.890,219.627 150.988 C 222.398 149.647,223.787 147.314,223.787 144.000 C 223.787 140.686,222.398 138.353,219.627 137.012 C 217.764 136.110,217.620 136.107,180.025 136.123 C 147.394 136.138,142.093 136.227,140.813 136.782 M36.198 177.076 C 33.176 178.673,31.657 181.825,32.191 185.389 C 32.568 187.899,35.156 190.916,37.488 191.564 C 38.479 191.839,52.537 191.996,76.345 191.998 C 113.491 192.000,113.659 191.996,115.520 191.095 C 118.373 189.714,119.680 187.439,119.680 183.857 C 119.680 181.292,119.540 180.811,118.370 179.346 C 115.685 175.987,118.751 176.212,75.947 176.233 C 39.040 176.250,37.708 176.279,36.198 177.076 M140.579 176.808 C 138.767 177.597,136.628 180.182,136.288 181.991 C 135.568 185.832,137.278 189.545,140.480 191.095 C 142.341 191.996,142.509 192.000,179.655 191.998 C 203.463 191.996,217.521 191.839,218.512 191.564 C 220.844 190.916,223.432 187.899,223.809 185.389 C 224.351 181.775,222.806 178.634,219.710 177.055 C 218.104 176.236,217.056 176.214,179.964 176.230 C 149.444 176.243,141.611 176.358,140.579 176.808 " stroke="none" fill-rule="evenodd"></path></svg>