<svg fill="currentColor" viewBox="0 0 256 256" xmlns="http://www.w3.org/2000/svg"><path d="M76.587 48.818 C 75.883 49.132,74.800 49.941,74.180 50.615 C 72.737 52.184,8.501 188.694,8.215 190.800 C 7.717 194.467,9.564 197.746,13.010 199.311 C 15.118 200.269,16.621 200.304,18.680 199.445 C 21.872 198.114,22.532 197.006,31.391 178.127 L 39.893 160.007 80.000 160.007 L 120.107 160.007 128.609 178.127 C 137.468 197.006,138.128 198.114,141.320 199.445 C 143.379 200.304,144.882 200.269,146.990 199.311 C 150.436 197.746,152.283 194.467,151.785 190.800 C 151.499 188.695,87.264 52.184,85.820 50.614 C 85.200 49.940,84.076 49.124,83.320 48.801 C 81.593 48.062,78.262 48.070,76.587 48.818 M97.020 111.018 C 105.376 128.782,112.213 143.518,112.213 143.765 C 112.213 144.074,102.238 144.213,80.000 144.213 C 57.531 144.213,47.787 144.076,47.787 143.760 C 47.787 143.510,55.020 127.937,63.862 109.152 L 79.937 74.998 80.881 76.859 C 81.401 77.883,88.663 93.254,97.020 111.018 M192.640 96.436 C 182.406 97.756,171.684 103.179,169.067 108.360 C 166.950 112.551,168.832 117.355,173.325 119.233 C 176.270 120.463,179.201 119.825,182.038 117.334 C 183.716 115.861,186.981 114.128,189.824 113.201 C 192.929 112.189,203.095 111.949,206.512 112.807 C 217.116 115.470,224.000 123.331,224.000 132.779 L 224.000 135.245 221.959 133.990 C 214.473 129.384,204.022 127.243,194.719 128.410 C 184.658 129.672,176.250 133.846,169.540 140.910 C 165.770 144.880,163.302 148.975,161.579 154.120 C 160.351 157.791,160.254 158.516,160.246 164.053 C 160.239 169.706,160.314 170.245,161.638 174.080 C 165.799 186.135,175.901 195.133,189.257 198.683 C 192.939 199.662,194.331 199.809,199.893 199.809 C 207.872 199.809,212.528 198.732,219.346 195.309 L 223.866 193.041 224.576 195.038 C 226.851 201.446,235.393 202.182,238.869 196.271 L 240.000 194.347 240.000 161.067 C 240.000 130.657,239.935 127.534,239.247 124.853 C 235.759 111.263,225.253 101.137,210.778 97.416 C 206.178 96.233,197.747 95.778,192.640 96.436 M206.737 144.860 C 211.006 145.945,215.283 148.305,218.207 151.190 C 225.836 158.716,225.828 169.211,218.187 176.857 C 210.573 184.476,197.324 186.148,187.096 180.781 C 183.733 179.016,179.318 174.565,177.699 171.307 C 176.518 168.931,176.427 168.407,176.427 164.031 C 176.427 159.532,176.492 159.187,177.848 156.516 C 180.735 150.827,186.401 146.548,193.280 144.860 C 196.519 144.065,203.612 144.065,206.737 144.860 " stroke="none" fill-rule="evenodd"></path></svg>