<svg fill="currentColor" viewBox="0 0 256 256" xmlns="http://www.w3.org/2000/svg"><path d="M121.455 8.526 C 103.980 11.697,90.782 25.372,88.355 42.822 C 88.048 45.027,87.893 60.878,87.893 90.035 L 87.893 133.929 83.579 138.111 C 73.987 147.410,68.138 158.079,65.202 171.627 C 63.941 177.444,63.834 189.766,64.994 195.561 C 69.694 219.045,86.159 237.737,108.373 244.810 C 116.054 247.255,118.913 247.672,128.000 247.672 C 137.087 247.672,139.946 247.255,147.627 244.810 C 167.079 238.617,182.383 223.353,188.809 203.737 C 191.231 196.343,191.762 192.762,191.754 183.893 C 191.747 177.356,191.583 175.249,190.798 171.627 C 187.914 158.318,182.698 148.604,173.343 139.118 L 168.107 133.809 168.107 89.975 C 168.107 60.861,167.952 45.027,167.645 42.822 C 165.430 26.894,154.423 14.188,138.846 9.579 C 135.756 8.664,133.956 8.424,129.280 8.302 C 126.112 8.219,122.591 8.319,121.455 8.526 M135.467 25.260 C 140.817 27.019,145.510 30.833,148.599 35.934 C 151.893 41.372,151.648 37.236,151.890 91.520 C 152.135 146.602,151.748 141.350,155.813 144.721 C 163.102 150.764,167.253 155.606,170.491 161.844 C 174.320 169.220,175.820 175.464,175.812 183.991 C 175.789 207.175,160.322 226.131,137.387 231.086 C 132.643 232.111,123.165 232.121,118.683 231.105 C 110.807 229.321,104.886 226.601,98.760 221.951 C 90.391 215.599,84.437 206.529,81.395 195.498 C 80.621 192.693,80.487 191.030,80.477 184.107 C 80.466 176.659,80.557 175.663,81.590 171.859 C 84.352 161.690,90.671 152.174,98.773 145.985 C 101.575 143.845,102.057 143.346,103.155 141.440 C 103.840 140.253,103.909 136.613,104.110 91.520 C 104.352 37.236,104.107 41.366,107.401 35.939 C 113.378 26.090,124.786 21.749,135.467 25.260 M123.679 81.436 C 119.886 83.841,120.122 81.403,119.992 119.529 L 119.878 153.085 118.712 153.362 C 118.071 153.514,115.723 154.532,113.493 155.623 C 110.070 157.299,108.840 158.208,105.583 161.470 C 101.325 165.735,99.031 169.542,97.213 175.360 C 95.918 179.505,95.817 187.672,97.007 192.000 C 99.412 200.752,105.682 208.537,113.506 212.486 C 118.385 214.949,121.701 215.680,128.000 215.680 C 134.299 215.680,137.615 214.949,142.494 212.486 C 150.318 208.537,156.588 200.752,158.993 192.000 C 160.183 187.672,160.082 179.505,158.787 175.360 C 155.673 165.393,148.519 157.613,139.276 154.142 L 136.129 152.960 136.011 119.467 C 135.898 87.378,135.859 85.904,135.071 84.316 C 133.104 80.353,127.586 78.958,123.679 81.436 M134.475 169.481 C 137.692 170.955,140.360 173.489,142.127 176.746 C 143.510 179.296,143.573 179.610,143.573 183.893 C 143.573 187.980,143.464 188.596,142.328 190.910 C 140.681 194.263,137.990 196.880,134.486 198.534 C 131.975 199.719,131.184 199.884,128.000 199.884 C 124.816 199.884,124.025 199.719,121.514 198.534 C 118.010 196.880,115.319 194.263,113.672 190.910 C 112.535 188.594,112.427 187.983,112.430 183.893 C 112.432 179.824,112.541 179.207,113.618 177.158 C 115.824 172.961,119.143 170.099,123.429 168.701 C 126.287 167.768,131.548 168.140,134.475 169.481 " stroke="none" fill-rule="evenodd"></path></svg>