<svg fill="currentColor" viewBox="0 0 256 256" xmlns="http://www.w3.org/2000/svg"><path d="M99.772 9.338 C 96.528 11.396,95.147 15.548,96.594 18.894 C 96.920 19.649,101.987 27.755,107.854 36.907 C 113.776 46.145,118.375 53.736,118.193 53.973 C 117.872 54.390,20.265 206.913,17.811 210.832 C 17.129 211.921,16.402 213.553,16.196 214.459 C 15.433 217.803,17.433 221.725,20.644 223.184 C 22.344 223.956,25.774 223.981,128.000 223.981 C 230.226 223.981,233.656 223.956,235.356 223.184 C 238.567 221.725,240.567 217.803,239.804 214.459 C 239.598 213.553,238.871 211.921,238.190 210.832 C 237.235 209.307,148.434 70.545,139.435 56.518 L 137.509 53.515 148.535 36.288 C 154.904 26.337,159.676 18.449,159.832 17.613 C 161.337 9.592,151.058 4.726,145.867 11.001 C 145.309 11.675,141.109 18.112,136.533 25.306 C 131.957 32.500,128.117 38.385,128.000 38.386 C 127.883 38.386,124.043 32.492,119.467 25.288 C 114.891 18.084,110.574 11.531,109.873 10.725 C 107.323 7.790,103.123 7.213,99.772 9.338 M172.693 138.200 C 197.157 176.427,217.173 207.818,217.173 207.958 C 217.173 208.099,210.847 208.213,203.115 208.213 L 189.057 208.213 188.035 206.827 C 187.473 206.064,175.127 186.839,160.600 164.105 C 140.656 132.894,133.798 122.484,132.601 121.602 C 129.565 119.365,125.348 119.601,122.663 122.159 C 121.877 122.908,109.290 142.240,94.691 165.120 C 80.092 188.000,67.857 207.056,67.501 207.467 C 66.910 208.149,65.656 208.213,52.841 208.213 C 45.133 208.213,38.827 208.099,38.827 207.958 C 38.827 207.574,127.754 68.697,128.000 68.697 C 128.117 68.697,148.229 99.973,172.693 138.200 M148.647 175.138 C 159.830 192.616,169.092 207.208,169.229 207.565 C 169.451 208.142,164.930 208.213,128.000 208.213 C 91.070 208.213,86.549 208.142,86.771 207.565 C 87.237 206.350,127.686 143.360,128.000 143.360 C 128.172 143.360,137.463 157.660,148.647 175.138 " stroke="none" fill-rule="evenodd"></path></svg>