<svg fill="currentColor" viewBox="0 0 256 256" xmlns="http://www.w3.org/2000/svg"><path d="M73.600 56.363 C 43.972 58.794,18.352 80.256,10.496 109.227 C 7.276 121.103,7.276 134.897,10.496 146.773 C 16.787 169.970,34.441 188.673,57.262 196.319 C 61.825 197.848,67.524 199.052,73.050 199.655 C 78.727 200.274,177.273 200.274,182.950 199.655 C 195.297 198.308,205.790 194.563,215.666 187.981 C 231.786 177.235,242.457 161.406,246.705 141.937 C 247.526 138.175,247.651 136.326,247.651 128.000 C 247.651 119.674,247.526 117.825,246.705 114.063 C 242.480 94.703,231.927 78.973,215.950 68.220 C 205.632 61.277,194.349 57.376,181.581 56.339 C 175.054 55.809,80.094 55.830,73.600 56.363 M184.546 72.735 C 205.542 76.140,222.409 90.407,229.119 110.437 C 232.744 121.254,232.744 134.746,229.119 145.563 C 223.475 162.411,210.313 175.570,193.567 181.108 C 184.885 183.979,186.899 183.893,128.000 183.893 C 69.101 183.893,71.115 183.979,62.433 181.108 C 42.966 174.670,28.520 157.996,24.909 137.797 C 23.968 132.527,23.971 123.555,24.917 118.203 C 29.080 94.661,48.283 76.032,71.951 72.576 C 73.327 72.375,98.357 72.188,127.573 72.160 C 172.357 72.118,181.298 72.208,184.546 72.735 M170.702 88.399 C 159.036 89.859,147.757 97.294,141.599 107.583 C 139.460 111.157,137.212 117.409,136.521 121.707 C 135.869 125.763,136.189 134.045,137.132 137.492 C 139.130 144.804,142.450 150.806,147.169 155.636 C 163.254 172.102,188.945 172.087,204.817 155.603 C 209.711 150.520,212.861 144.814,214.946 137.253 C 215.971 133.538,215.971 122.462,214.946 118.747 C 212.795 110.947,209.436 104.990,204.281 99.836 C 197.831 93.386,189.788 89.474,180.693 88.364 C 176.358 87.835,175.177 87.839,170.702 88.399 M183.262 105.118 C 191.714 107.764,198.560 115.969,199.679 124.795 C 201.515 139.276,190.490 151.893,176.000 151.893 C 165.624 151.893,156.570 145.297,153.160 135.253 C 151.759 131.127,151.816 124.642,153.290 120.421 C 156.004 112.648,162.390 106.706,170.138 104.745 C 173.191 103.972,180.243 104.173,183.262 105.118 " stroke="none" fill-rule="evenodd"></path></svg>