<svg fill="currentColor" viewBox="0 0 256 256" xmlns="http://www.w3.org/2000/svg"><path d="M59.203 32.437 C 55.798 33.017,51.969 34.475,48.409 36.545 C 43.894 39.170,36.927 46.130,33.311 51.627 C 12.146 83.800,10.069 143.463,28.827 180.480 C 33.198 189.105,38.234 195.735,43.879 200.294 C 56.632 210.594,71.979 210.455,84.541 199.926 C 87.849 197.153,92.136 192.325,94.411 188.808 L 95.787 186.683 96.000 199.261 L 96.213 211.840 97.407 214.400 C 98.974 217.760,102.261 221.060,105.555 222.583 L 108.160 223.787 168.107 223.787 L 228.053 223.787 230.400 222.672 C 235.415 220.290,238.833 215.791,239.786 210.316 C 240.140 208.283,240.223 193.979,240.088 158.052 C 239.930 115.823,239.801 107.745,239.208 102.834 C 236.431 79.820,230.148 61.538,220.580 48.631 C 217.450 44.409,211.388 38.782,207.532 36.518 C 205.677 35.429,202.624 34.015,200.747 33.376 L 197.333 32.213 129.280 32.152 C 91.851 32.119,60.316 32.247,59.203 32.437 M70.132 49.658 C 74.939 52.016,81.161 59.140,84.923 66.592 C 99.501 95.470,99.586 143.996,85.110 172.820 C 80.706 181.589,75.466 187.726,70.149 190.344 C 67.604 191.597,66.794 191.787,64.000 191.787 C 61.199 191.787,60.398 191.598,57.818 190.327 C 49.207 186.088,40.938 172.607,36.467 155.520 C 33.289 143.378,32.229 134.368,32.249 119.680 C 32.266 107.689,32.865 101.139,34.846 91.307 C 39.174 69.822,48.753 53.227,59.267 48.998 C 62.266 47.792,66.903 48.074,70.132 49.658 M198.132 49.657 C 206.808 53.917,215.242 67.784,219.748 85.196 C 221.680 92.661,223.573 105.074,223.573 110.277 L 223.573 112.213 214.813 112.213 C 205.018 112.213,204.145 112.396,201.934 114.914 C 198.667 118.636,199.979 124.916,204.480 127.095 C 206.200 127.928,207.053 128.000,215.175 128.000 L 224.000 128.000 224.000 168.107 L 224.000 208.213 168.107 208.213 L 112.213 208.213 112.213 168.107 L 112.213 128.000 120.853 127.991 C 128.312 127.983,129.729 127.874,131.218 127.198 C 137.024 124.561,137.645 116.812,132.321 113.436 L 130.393 112.213 121.168 112.213 L 111.944 112.213 111.412 105.920 C 109.622 84.738,103.686 65.357,94.897 51.998 C 93.626 50.067,92.587 48.423,92.587 48.345 C 92.587 48.267,115.771 48.253,144.107 48.315 L 195.627 48.427 198.132 49.657 M61.155 108.331 C 55.480 109.788,51.688 115.094,52.156 120.924 C 52.963 130.970,64.986 135.509,72.249 128.510 C 74.494 126.347,75.595 124.024,75.844 120.924 C 76.235 116.049,73.969 111.888,69.639 109.531 C 67.321 108.270,63.500 107.729,61.155 108.331 M155.679 113.436 C 150.355 116.812,150.976 124.561,156.782 127.198 C 158.289 127.882,159.716 127.982,168.079 127.991 C 176.972 127.999,177.783 127.936,179.520 127.095 C 182.373 125.714,183.680 123.439,183.680 119.857 C 183.680 117.292,183.540 116.811,182.370 115.346 C 179.959 112.330,179.426 112.215,167.870 112.214 L 157.607 112.213 155.679 113.436 " stroke="none" fill-rule="evenodd"></path></svg>