<svg fill="currentColor" viewBox="0 0 256 256" xmlns="http://www.w3.org/2000/svg"><path d="M86.339 24.301 C 84.141 24.824,82.167 26.296,81.050 28.246 C 80.040 30.010,79.995 30.426,79.857 39.147 L 79.713 48.213 50.715 48.213 C 26.228 48.213,21.532 48.310,20.522 48.832 C 18.901 49.670,16.709 52.236,16.397 53.661 C 16.257 54.302,16.077 55.043,15.998 55.307 C 15.698 56.307,16.731 59.559,17.788 60.945 C 18.393 61.737,19.678 62.745,20.644 63.184 C 22.323 63.946,24.361 63.982,66.941 63.991 L 111.483 64.000 111.196 67.093 C 110.279 76.984,105.766 90.374,100.122 99.950 C 96.309 106.419,89.018 116.053,87.935 116.053 C 87.311 116.053,81.935 109.346,78.826 104.687 C 74.964 98.902,72.963 95.110,70.196 88.330 C 68.318 83.730,67.785 82.825,66.273 81.672 C 62.100 78.490,56.292 79.927,54.135 84.676 C 52.957 87.269,53.147 88.833,55.294 94.252 C 59.737 105.462,65.285 114.489,74.168 124.956 L 76.015 127.134 72.034 129.732 C 67.512 132.685,58.512 137.187,53.760 138.875 C 45.751 141.719,36.665 143.433,26.453 144.027 C 23.755 144.184,21.047 144.568,20.437 144.881 C 18.894 145.672,16.703 148.264,16.397 149.661 C 16.257 150.302,16.077 151.043,15.998 151.307 C 15.698 152.308,16.731 155.559,17.791 156.949 C 18.398 157.744,19.774 158.784,20.849 159.260 C 22.626 160.046,23.351 160.099,28.789 159.850 C 47.348 158.998,65.259 153.227,80.628 143.147 C 82.864 141.681,85.446 139.906,86.366 139.203 L 88.039 137.925 91.467 140.467 C 102.843 148.901,117.576 155.182,133.013 158.178 C 136.357 158.827,139.093 159.503,139.093 159.680 C 139.093 159.858,133.113 171.954,125.805 186.561 C 118.496 201.169,112.359 213.792,112.168 214.613 C 110.860 220.228,117.243 225.619,122.746 223.548 C 125.476 222.520,126.794 220.470,133.968 206.096 L 141.003 192.000 176.000 192.000 L 210.997 192.000 218.032 206.096 C 225.206 220.470,226.524 222.520,229.254 223.548 C 234.757 225.619,241.139 220.229,239.833 214.613 C 239.642 213.792,226.593 187.347,210.835 155.846 C 183.247 100.694,182.119 98.528,180.404 97.392 C 177.864 95.712,174.139 95.710,171.604 97.387 C 169.932 98.493,169.176 99.867,158.510 121.174 C 147.392 143.384,147.168 143.787,145.930 143.787 C 140.762 143.787,128.545 141.121,121.284 138.408 C 114.612 135.916,105.174 130.913,101.351 127.843 L 100.089 126.829 102.153 124.535 C 115.358 109.852,124.871 88.621,127.220 68.587 L 127.758 64.000 140.359 63.998 C 147.529 63.996,153.629 63.809,154.512 63.564 C 156.844 62.916,159.432 59.899,159.809 57.389 C 160.351 53.775,158.806 50.634,155.710 49.055 C 154.116 48.242,153.082 48.213,125.030 48.213 L 96.000 48.213 96.000 39.453 C 96.000 30.105,95.751 28.679,93.740 26.525 C 91.938 24.596,88.919 23.689,86.339 24.301 M202.643 175.680 C 202.662 176.101,197.061 176.213,176.000 176.213 C 158.544 176.213,149.333 176.066,149.333 175.788 C 149.333 175.553,155.333 163.361,162.666 148.693 L 175.998 122.025 189.309 148.586 C 196.630 163.194,202.630 175.387,202.643 175.680 " stroke="none" fill-rule="evenodd"></path></svg>