<svg fill="currentColor" viewBox="0 0 256 256" xmlns="http://www.w3.org/2000/svg"><path d="M84.693 16.710 C 83.484 17.377,81.502 19.262,80.963 20.257 C 78.876 24.111,80.647 29.369,84.644 31.184 C 86.321 31.945,88.281 31.981,128.000 31.981 C 167.719 31.981,169.679 31.945,171.356 31.184 C 175.353 29.369,177.124 24.111,175.037 20.257 C 174.340 18.970,172.300 17.174,170.959 16.667 C 169.240 16.018,85.873 16.059,84.693 16.710 M36.198 49.076 C 31.607 51.502,30.648 57.396,34.214 61.265 C 36.342 63.574,37.760 63.995,43.413 63.998 L 47.787 64.000 47.787 136.028 C 47.787 186.051,47.928 208.830,48.250 210.588 C 49.213 215.845,52.692 220.341,57.600 222.672 L 59.947 223.787 128.000 223.787 L 196.053 223.787 198.400 222.672 C 203.308 220.341,206.787 215.845,207.750 210.588 C 208.072 208.830,208.213 186.051,208.213 136.028 L 208.213 64.000 212.587 63.998 C 218.240 63.995,219.658 63.574,221.786 61.265 C 225.387 57.358,224.381 51.438,219.710 49.055 C 218.083 48.225,216.813 48.214,127.910 48.232 C 39.637 48.251,37.727 48.268,36.198 49.076 M192.000 136.107 L 192.000 208.213 128.000 208.213 L 64.000 208.213 64.000 136.107 L 64.000 64.000 128.000 64.000 L 192.000 64.000 192.000 136.107 " stroke="none" fill-rule="evenodd"></path></svg>