<svg fill="currentColor" viewBox="0 0 256 256" xmlns="http://www.w3.org/2000/svg"><path d="M97.759 16.886 C 94.283 17.821,90.055 20.228,87.507 22.722 C 82.172 27.942,80.283 32.755,79.905 42.085 L 79.656 48.213 58.798 48.213 C 38.880 48.213,37.865 48.251,36.290 49.055 C 31.619 51.438,30.613 57.358,34.214 61.265 C 36.342 63.574,37.760 63.995,43.413 63.998 L 47.787 64.000 47.787 136.028 C 47.787 186.051,47.928 208.830,48.250 210.588 C 49.213 215.845,52.692 220.341,57.600 222.672 L 59.947 223.787 128.000 223.787 L 196.053 223.787 198.400 222.672 C 203.308 220.341,206.787 215.845,207.750 210.588 C 208.072 208.830,208.213 186.051,208.213 136.028 L 208.213 64.000 212.587 63.998 C 218.240 63.995,219.658 63.574,221.786 61.265 C 225.387 57.358,224.381 51.438,219.710 49.055 C 218.135 48.251,217.120 48.213,197.202 48.213 L 176.344 48.213 176.095 42.085 C 175.892 37.068,175.647 35.361,174.742 32.665 C 172.109 24.820,165.853 18.896,158.058 16.865 C 154.442 15.924,101.270 15.942,97.759 16.886 M155.093 32.806 C 158.884 34.556,160.000 36.990,160.000 43.506 L 160.000 48.213 128.000 48.213 L 96.000 48.213 96.000 43.506 C 96.000 36.990,97.116 34.556,100.907 32.806 C 102.505 32.069,104.219 32.019,128.000 32.019 C 151.781 32.019,153.495 32.069,155.093 32.806 M192.000 136.107 L 192.000 208.213 128.000 208.213 L 64.000 208.213 64.000 136.107 L 64.000 64.000 128.000 64.000 L 192.000 64.000 192.000 136.107 M100.907 96.809 C 98.738 97.813,96.954 99.708,96.418 101.576 C 96.161 102.474,96.004 115.821,96.009 136.317 C 96.018 167.902,96.059 169.690,96.816 171.356 C 97.255 172.322,98.263 173.607,99.055 174.212 C 100.441 175.269,103.693 176.302,104.693 176.002 C 104.957 175.923,105.698 175.743,106.339 175.603 C 107.786 175.286,110.311 173.111,111.275 171.350 C 111.936 170.143,112.011 167.156,112.120 137.389 C 112.200 115.527,112.089 104.053,111.786 102.638 C 110.660 97.389,105.558 94.655,100.907 96.809 M148.644 96.816 C 146.403 97.834,144.790 99.954,144.214 102.638 C 143.911 104.053,143.800 115.527,143.880 137.389 C 143.989 167.156,144.064 170.143,144.725 171.350 C 145.689 173.111,148.214 175.286,149.661 175.603 C 150.302 175.743,151.043 175.923,151.307 176.002 C 152.307 176.302,155.559 175.269,156.945 174.212 C 157.737 173.607,158.745 172.322,159.184 171.356 C 159.941 169.689,159.982 167.904,159.988 136.320 C 159.993 115.765,159.835 102.462,159.575 101.528 C 158.795 98.718,154.949 95.988,151.800 96.009 C 151.030 96.015,149.610 96.378,148.644 96.816 " stroke="none" fill-rule="evenodd"></path></svg>