<svg fill="currentColor" viewBox="0 0 256 256" xmlns="http://www.w3.org/2000/svg"><path d="M164.198 49.076 C 161.176 50.673,159.657 53.825,160.191 57.389 C 160.568 59.899,163.156 62.916,165.488 63.564 C 166.444 63.830,175.810 63.996,189.866 63.998 L 212.693 64.000 174.405 102.287 L 136.118 140.575 118.512 123.003 C 106.600 111.113,100.394 105.217,99.320 104.769 C 97.301 103.926,94.706 103.924,92.680 104.765 C 91.568 105.226,80.263 116.244,54.922 141.565 C 35.027 161.443,18.258 178.414,17.656 179.279 C 17.055 180.143,16.404 181.555,16.210 182.415 C 15.752 184.444,16.618 187.834,17.969 189.300 C 19.242 190.683,21.996 191.979,23.680 191.988 C 27.558 192.009,26.284 193.157,62.183 157.308 L 95.993 123.545 113.810 141.303 C 128.862 156.305,131.892 159.133,133.333 159.528 C 135.662 160.166,137.127 160.118,139.000 159.345 C 140.120 158.883,152.848 146.434,182.293 116.999 L 224.000 75.308 224.002 98.134 C 224.004 112.190,224.170 121.556,224.436 122.512 C 225.084 124.844,228.101 127.432,230.611 127.809 C 235.003 128.467,238.871 125.797,239.766 121.488 C 240.095 119.903,240.203 109.268,240.120 86.590 C 240.012 57.134,239.931 53.849,239.291 52.693 C 238.355 51.002,236.448 49.230,234.959 48.667 C 234.145 48.360,222.788 48.219,199.759 48.232 C 166.993 48.250,165.703 48.281,164.198 49.076 " stroke="none" fill-rule="evenodd"></path></svg>