<svg fill="currentColor" viewBox="0 0 256 256" xmlns="http://www.w3.org/2000/svg"><path d="M159.093 40.772 C 144.301 43.450,131.047 53.739,124.561 67.578 C 121.432 74.256,119.897 81.620,119.895 89.966 L 119.893 93.959 118.720 93.681 C 116.106 93.060,110.412 91.120,105.173 89.066 C 87.383 82.090,67.025 68.964,49.193 52.973 C 44.064 48.374,43.089 47.911,39.408 48.325 C 37.151 48.580,34.792 50.290,33.644 52.503 C 32.161 55.361,31.510 73.068,32.438 85.333 C 34.584 113.726,43.726 139.249,58.869 159.130 C 62.749 164.224,68.212 170.163,72.423 173.867 C 74.558 175.744,76.320 177.485,76.339 177.735 C 76.391 178.423,68.958 185.497,64.853 188.665 C 57.771 194.132,49.392 199.114,40.804 202.965 C 35.068 205.536,33.961 206.352,32.806 208.853 C 31.076 212.603,32.145 215.648,36.661 219.829 C 47.368 229.742,70.844 234.178,95.963 231.035 C 136.000 226.024,170.944 204.573,193.261 171.307 C 205.164 153.563,212.597 133.575,215.235 112.215 L 215.833 107.371 231.417 91.766 C 239.988 83.183,247.201 75.620,247.447 74.959 C 248.685 71.629,247.291 67.304,244.354 65.359 L 242.624 64.213 226.086 64.000 L 209.548 63.787 207.444 60.789 C 199.958 50.127,188.622 42.991,175.624 40.758 C 171.023 39.967,163.504 39.974,159.093 40.772 M171.108 56.318 C 182.049 57.571,191.223 63.816,196.498 73.600 C 199.817 79.756,200.919 80.213,212.438 80.213 L 220.348 80.213 210.890 89.707 C 205.158 95.460,201.187 99.788,200.811 100.693 C 200.470 101.515,200.065 103.531,199.910 105.173 C 198.331 121.915,194.553 135.403,187.531 149.361 C 169.682 184.843,136.679 208.672,96.853 214.834 C 90.844 215.764,75.215 216.153,69.757 215.510 C 65.170 214.969,59.887 213.959,58.115 213.286 C 57.044 212.879,57.157 212.770,60.972 210.539 C 73.530 203.196,85.224 193.195,92.167 183.861 C 95.238 179.731,96.000 178.156,96.000 175.935 C 96.000 172.894,94.612 170.979,90.111 167.813 C 87.828 166.207,83.584 162.521,80.622 159.573 C 60.848 139.891,49.513 112.036,48.336 80.235 L 48.076 73.216 49.159 74.048 C 68.638 89.013,83.000 97.534,100.053 104.242 C 110.101 108.194,123.595 111.865,128.126 111.879 C 130.811 111.887,133.760 110.109,135.001 107.733 C 135.825 106.157,135.913 105.094,136.146 93.867 C 136.375 82.855,136.489 81.425,137.356 78.720 C 141.194 66.736,151.454 57.897,163.295 56.373 C 167.334 55.854,167.076 55.856,171.108 56.318 " stroke="none" fill-rule="evenodd"></path></svg>