<svg fill="currentColor" viewBox="0 0 256 256" xmlns="http://www.w3.org/2000/svg"><path d="M119.467 24.310 C 82.031 27.259,48.769 48.428,29.954 81.280 C 25.051 89.841,20.295 102.446,18.180 112.487 C 16.515 120.393,15.742 127.453,16.221 130.394 C 17.338 137.256,22.766 142.661,29.675 143.793 C 31.205 144.043,49.630 144.209,76.035 144.211 L 119.856 144.213 120.000 174.827 C 120.109 198.069,120.274 205.851,120.686 207.147 C 122.863 213.999,125.111 218.083,128.930 222.121 C 135.092 228.637,145.146 232.607,153.813 231.948 C 170.036 230.714,182.814 218.108,183.775 202.392 C 183.987 198.923,183.906 198.270,183.048 196.497 C 181.144 192.563,176.516 190.951,172.586 192.853 C 169.744 194.229,168.635 196.146,167.923 200.909 C 167.580 203.208,166.884 205.761,166.242 207.071 C 164.825 209.968,161.714 213.055,158.736 214.518 C 156.641 215.548,155.888 215.680,152.098 215.680 C 148.126 215.680,147.619 215.580,144.973 214.278 C 141.670 212.652,139.085 209.987,137.434 206.507 L 136.320 204.160 136.202 174.187 L 136.084 144.213 179.936 144.211 C 206.360 144.209,224.795 144.043,226.325 143.793 C 233.227 142.663,238.355 137.659,239.816 130.629 C 240.190 128.832,240.144 127.219,239.600 122.975 C 236.973 102.499,229.604 84.387,217.266 68.082 C 213.092 62.566,201.525 51.018,196.142 46.992 C 180.005 34.925,162.505 27.743,142.507 24.979 C 136.793 24.189,125.252 23.854,119.467 24.310 M107.648 42.788 C 107.460 43.090,106.330 44.770,105.136 46.521 C 91.363 66.735,82.813 92.765,80.580 121.280 L 80.054 128.000 56.027 128.000 C 42.812 128.000,32.004 127.856,32.008 127.680 C 32.012 127.504,32.289 125.440,32.623 123.093 C 35.505 102.833,44.493 84.279,58.438 69.804 C 70.956 56.810,85.581 48.147,103.132 43.331 C 107.574 42.112,108.109 42.048,107.648 42.788 M155.266 43.999 C 179.055 50.754,200.016 67.579,212.377 89.840 C 216.563 97.380,220.122 106.743,221.927 114.967 C 222.611 118.086,223.961 126.391,223.992 127.680 C 223.996 127.856,213.175 128.000,199.944 128.000 L 175.888 128.000 175.599 123.840 C 173.498 93.623,165.206 67.881,150.503 45.931 L 147.974 42.155 149.400 42.447 C 150.185 42.607,152.824 43.306,155.266 43.999 M131.560 47.394 C 143.299 61.800,152.056 80.742,156.321 100.957 C 157.809 108.008,159.080 117.052,159.418 122.987 L 159.703 128.000 127.950 128.000 L 96.196 128.000 96.503 123.413 C 97.470 108.967,100.775 93.477,105.674 80.427 C 109.484 70.280,116.806 56.918,122.377 49.946 C 126.149 45.224,127.733 43.502,128.167 43.647 C 128.423 43.732,129.950 45.419,131.560 47.394 " stroke="none" fill-rule="evenodd"></path></svg>