<svg fill="currentColor" viewBox="0 0 256 256" xmlns="http://www.w3.org/2000/svg"><path d="M36.907 32.809 C 34.738 33.813,32.954 35.708,32.418 37.576 C 32.154 38.498,32.000 61.508,32.000 100.171 C 32.000 154.387,32.075 161.486,32.660 162.888 C 33.541 164.996,34.841 166.347,36.907 167.300 C 38.503 168.037,40.210 168.089,63.253 168.097 L 87.893 168.107 87.893 192.654 C 87.893 213.845,87.984 217.417,88.554 218.781 C 89.435 220.890,90.735 222.240,92.800 223.194 C 94.434 223.948,97.117 223.982,155.733 223.988 C 194.519 223.993,217.513 223.842,218.468 223.576 C 220.357 223.052,223.025 220.366,223.579 218.432 C 223.847 217.499,224.000 194.713,224.000 155.829 C 224.000 89.442,224.126 93.081,221.740 90.525 C 219.405 88.025,220.449 88.117,193.173 87.984 L 168.107 87.861 168.097 63.237 C 168.089 40.210,168.037 38.503,167.300 36.907 C 166.347 34.841,164.996 33.541,162.888 32.660 C 161.486 32.075,154.381 32.001,99.960 32.009 C 41.158 32.018,38.543 32.052,36.907 32.809 M154.351 101.658 L 207.795 155.103 207.684 175.685 L 207.573 196.268 133.547 122.241 L 59.521 48.213 80.214 48.213 L 100.908 48.213 154.351 101.658 M151.893 62.293 C 151.893 70.037,151.844 76.373,151.784 76.373 C 151.724 76.373,145.341 70.037,137.600 62.293 L 123.525 48.213 137.709 48.213 L 151.893 48.213 151.893 62.293 M196.267 207.893 C 196.267 208.069,187.099 208.213,175.894 208.213 L 155.521 208.213 101.867 154.561 L 48.213 100.908 48.213 80.214 L 48.213 59.521 122.240 133.547 C 162.955 174.261,196.267 207.717,196.267 207.893 M207.787 118.187 C 207.787 125.931,207.738 132.267,207.678 132.267 C 207.618 132.267,201.235 125.931,193.493 118.187 L 179.418 104.107 193.602 104.107 L 207.787 104.107 207.787 118.187 M62.507 137.813 L 76.582 151.893 62.398 151.893 L 48.213 151.893 48.213 137.813 C 48.213 130.069,48.262 123.733,48.322 123.733 C 48.382 123.733,54.765 130.069,62.507 137.813 M132.267 207.891 C 132.267 208.068,125.931 208.213,118.187 208.213 L 104.107 208.213 104.107 193.816 L 104.107 179.418 118.187 193.493 C 125.931 201.235,132.267 207.714,132.267 207.891 " stroke="none" fill-rule="evenodd"></path></svg>