<svg fill="currentColor" viewBox="0 0 256 256" xmlns="http://www.w3.org/2000/svg"><path d="M120.533 24.306 C 70.859 28.206,31.432 65.615,24.969 114.979 C 24.191 120.925,24.081 133.334,24.755 139.175 C 26.665 155.729,32.536 171.908,41.444 185.173 C 45.932 191.857,48.669 195.209,54.268 200.879 C 69.815 216.625,88.648 226.412,111.218 230.472 C 116.028 231.338,118.067 231.458,128.000 231.462 C 139.417 231.467,141.043 231.321,149.547 229.538 C 165.218 226.250,181.046 218.725,193.568 208.610 C 198.160 204.900,206.168 196.796,209.558 192.427 C 221.602 176.902,228.588 160.130,231.328 140.160 C 232.396 132.378,231.861 115.839,230.350 109.968 C 229.841 107.987,227.675 105.452,225.834 104.683 C 221.931 103.052,217.301 104.797,215.465 108.590 C 214.499 110.586,214.494 110.672,215.083 115.572 C 215.916 122.493,215.811 136.388,214.885 141.867 C 212.745 154.528,207.877 166.833,200.985 176.999 C 197.849 181.625,194.455 185.813,193.843 185.813 C 193.587 185.813,192.459 184.592,191.336 183.099 C 184.333 173.783,172.721 164.485,161.873 159.508 L 157.986 157.724 161.708 154.002 C 170.958 144.752,175.848 133.077,175.904 120.107 C 176.018 93.577,154.591 72.107,128.000 72.107 C 112.816 72.107,98.715 79.144,89.569 91.285 C 77.472 107.342,76.908 129.747,88.173 146.678 C 89.491 148.659,92.244 151.955,94.292 154.002 L 98.014 157.724 94.127 159.508 C 83.279 164.485,71.667 173.783,64.664 183.099 C 63.541 184.592,62.413 185.813,62.157 185.813 C 61.542 185.813,58.147 181.619,54.982 176.950 C 48.104 166.804,43.344 154.775,41.098 141.867 C 39.948 135.256,40.051 120.098,41.292 113.254 C 48.117 75.622,76.728 47.338,114.280 41.098 C 120.010 40.146,134.356 40.042,140.486 40.909 C 144.259 41.443,144.830 41.430,146.539 40.777 C 149.188 39.766,151.327 37.275,151.704 34.764 C 152.219 31.327,150.503 27.727,147.644 26.249 C 144.819 24.788,128.913 23.648,120.533 24.306 M172.579 48.808 C 170.767 49.597,168.628 52.182,168.288 53.991 C 167.568 57.832,169.278 61.545,172.480 63.095 C 174.322 63.987,174.725 64.000,199.921 63.991 C 223.808 63.982,225.607 63.930,227.218 63.198 C 233.024 60.561,233.645 52.812,228.321 49.436 L 226.393 48.213 200.130 48.230 C 179.391 48.243,173.596 48.365,172.579 48.808 M135.565 88.993 C 144.156 90.902,152.252 97.341,156.335 105.510 C 159.067 110.975,159.751 113.903,159.743 120.107 C 159.736 125.921,159.068 129.021,156.798 133.773 C 152.931 141.866,145.843 147.907,136.960 150.681 C 134.268 151.521,132.845 151.680,128.000 151.680 C 121.701 151.680,118.385 150.949,113.506 148.486 C 105.675 144.533,99.373 136.703,97.018 128.000 C 95.990 124.200,95.963 115.994,96.965 112.213 C 98.128 107.825,101.293 101.947,104.200 98.775 C 112.397 89.828,123.602 86.334,135.565 88.993 M135.969 168.544 C 148.866 170.234,160.802 175.653,170.548 184.242 C 175.637 188.726,182.460 197.221,181.519 197.900 C 164.604 210.109,147.399 215.893,128.000 215.893 C 108.601 215.893,91.396 210.109,74.481 197.900 C 73.540 197.221,80.363 188.726,85.452 184.242 C 93.175 177.436,103.569 171.980,113.067 169.747 C 119.555 168.221,129.514 167.698,135.969 168.544 " stroke="none" fill-rule="evenodd"></path></svg>