<svg fill="currentColor" viewBox="0 0 256 256" xmlns="http://www.w3.org/2000/svg"><path d="M36.053 40.505 C 30.344 41.916,25.583 47.035,24.322 53.120 C 24.024 54.557,23.916 79.407,23.993 129.280 L 24.107 203.307 25.224 205.957 C 27.063 210.321,30.434 213.551,34.721 215.057 C 37.053 215.877,38.826 215.893,128.000 215.893 C 217.174 215.893,218.947 215.877,221.279 215.057 C 225.566 213.551,228.937 210.321,230.776 205.957 L 231.893 203.307 231.893 128.000 L 231.893 52.693 230.867 50.144 C 229.561 46.901,226.312 43.426,222.933 41.659 L 220.373 40.320 128.853 40.255 C 78.517 40.219,36.757 40.331,36.053 40.505 M215.893 128.000 L 215.893 200.107 208.671 200.107 L 201.449 200.107 199.459 196.160 C 191.562 180.497,178.773 167.921,162.856 160.166 L 157.819 157.712 160.800 154.909 C 175.975 140.644,180.228 118.344,171.348 99.599 C 164.871 85.926,152.713 76.311,137.600 72.911 C 134.179 72.141,121.821 72.141,118.400 72.911 C 103.768 76.203,91.694 85.493,85.152 98.494 C 79.269 110.184,78.458 123.498,82.859 136.107 C 85.271 143.018,88.999 148.808,94.567 154.293 L 98.085 157.759 93.096 160.190 C 77.228 167.920,64.366 180.575,56.534 196.160 L 54.551 200.107 47.329 200.107 L 40.107 200.107 40.107 128.000 L 40.107 55.893 128.000 55.893 L 215.893 55.893 215.893 128.000 M135.565 88.993 C 144.156 90.902,152.252 97.341,156.335 105.510 C 159.067 110.975,159.751 113.903,159.743 120.107 C 159.736 125.921,159.068 129.021,156.798 133.773 C 152.931 141.866,145.843 147.907,136.960 150.681 C 134.268 151.521,132.845 151.680,128.000 151.680 C 121.701 151.680,118.385 150.949,113.506 148.486 C 105.675 144.533,99.373 136.703,97.018 128.000 C 95.990 124.200,95.963 115.994,96.965 112.213 C 98.128 107.825,101.293 101.947,104.200 98.775 C 112.397 89.828,123.602 86.334,135.565 88.993 M140.849 169.354 C 157.621 172.950,171.771 182.479,181.133 196.480 L 183.415 199.893 155.708 200.003 C 140.468 200.063,115.532 200.063,100.292 200.003 L 72.585 199.893 74.867 196.480 C 84.905 181.468,100.233 171.721,118.479 168.746 C 123.844 167.872,135.400 168.186,140.849 169.354 " stroke="none" fill-rule="evenodd"></path></svg>