<svg fill="currentColor" viewBox="0 0 256 256" xmlns="http://www.w3.org/2000/svg"><path d="M28.587 56.487 C 21.988 57.954,17.321 62.984,16.198 69.836 C 15.654 73.162,15.654 182.838,16.198 186.164 C 17.117 191.772,20.380 196.107,25.514 198.539 L 28.373 199.893 38.696 200.033 L 49.019 200.173 49.902 202.826 C 52.574 210.857,59.842 218.410,67.996 221.630 C 74.706 224.280,82.647 224.691,88.960 222.716 C 98.706 219.667,106.568 212.388,109.857 203.370 L 111.048 200.107 136.110 200.107 L 161.173 200.107 161.443 201.455 C 161.911 203.796,164.582 208.837,166.969 211.887 C 170.776 216.749,175.945 220.329,182.400 222.573 C 185.525 223.660,186.336 223.760,192.000 223.760 C 197.664 223.760,198.475 223.660,201.600 222.573 C 208.055 220.329,213.224 216.749,217.031 211.887 C 219.405 208.854,222.088 203.798,222.550 201.488 L 222.814 200.172 233.113 200.017 C 242.635 199.874,243.599 199.788,245.865 198.888 C 249.282 197.530,252.650 194.335,254.390 190.803 L 255.787 187.965 255.916 153.609 C 256.008 129.078,255.907 118.783,255.565 117.607 C 255.209 116.386,249.076 108.946,231.827 88.807 C 219.035 73.873,207.865 61.011,207.004 60.227 C 204.874 58.283,202.059 56.914,199.051 56.358 C 195.246 55.655,31.774 55.778,28.587 56.487 M87.893 92.160 L 87.893 112.213 59.947 112.213 L 32.000 112.213 32.000 92.160 L 32.000 72.107 59.947 72.107 L 87.893 72.107 87.893 92.160 M160.000 92.160 L 160.000 112.213 132.053 112.213 L 104.107 112.213 104.107 92.160 L 104.107 72.107 132.053 72.107 L 160.000 72.107 160.000 92.160 M213.333 91.822 C 222.603 102.635,230.251 111.647,230.329 111.848 C 230.407 112.049,218.263 112.213,203.342 112.213 L 176.213 112.213 176.213 92.160 L 176.213 72.107 186.347 72.134 L 196.480 72.161 213.333 91.822 M239.787 155.947 L 239.787 183.893 231.301 183.893 L 222.815 183.893 222.553 182.496 C 222.145 180.325,219.275 174.937,216.941 171.964 C 213.044 167.000,206.488 162.728,200.093 160.984 C 196.288 159.947,187.712 159.947,183.907 160.984 C 177.512 162.728,170.956 167.000,167.059 171.964 C 164.725 174.937,161.855 180.325,161.447 182.496 L 161.185 183.893 136.116 183.893 L 111.048 183.893 109.880 180.691 C 106.496 171.414,98.864 164.385,88.736 161.219 C 84.138 159.782,75.862 159.782,71.264 161.219 C 61.032 164.418,52.969 171.958,49.891 181.207 L 48.997 183.893 40.499 183.893 L 32.000 183.893 32.000 155.947 L 32.000 128.000 135.893 128.000 L 239.787 128.000 239.787 155.947 M87.135 177.829 C 98.552 183.454,98.828 200.002,87.604 205.969 C 74.577 212.894,60.200 200.444,65.066 186.453 C 66.489 182.361,69.715 179.075,74.125 177.226 C 76.220 176.347,77.160 176.211,80.438 176.310 C 83.797 176.412,84.653 176.606,87.135 177.829 M198.897 177.618 C 201.730 179.004,205.333 182.670,206.637 185.493 C 207.413 187.172,207.573 188.288,207.573 192.000 C 207.573 196.011,207.452 196.727,206.414 198.841 C 203.319 205.143,196.295 208.868,189.568 207.773 C 184.534 206.953,179.860 203.480,177.613 198.887 C 176.145 195.886,175.783 190.712,176.797 187.223 C 178.075 182.828,182.155 178.562,186.597 176.978 C 189.964 175.777,195.750 176.078,198.897 177.618 " stroke="none" fill-rule="evenodd"></path></svg>