<svg fill="currentColor" viewBox="0 0 256 256" xmlns="http://www.w3.org/2000/svg"><path d="M28.587 56.487 C 21.988 57.954,17.321 62.984,16.198 69.836 C 15.654 73.162,15.654 182.838,16.198 186.164 C 17.117 191.772,20.380 196.107,25.514 198.539 L 28.373 199.893 112.000 199.893 L 195.627 199.893 198.486 198.539 C 203.620 196.107,206.883 191.772,207.802 186.164 C 208.025 184.798,208.210 178.160,208.211 171.413 L 208.213 159.146 226.615 171.413 L 245.018 183.680 247.873 183.680 C 251.438 183.680,253.717 182.368,255.095 179.520 L 256.000 177.651 256.000 128.000 C 256.000 78.935,255.990 78.328,255.132 76.556 C 253.604 73.399,249.966 71.623,246.401 72.292 C 245.397 72.480,238.512 76.809,226.643 84.714 L 208.427 96.846 208.195 82.877 C 207.979 69.858,207.901 68.750,207.042 66.612 C 204.744 60.890,200.616 57.436,194.788 56.359 C 190.982 55.655,31.776 55.778,28.587 56.487 M192.000 128.000 L 192.000 183.893 112.000 183.893 L 32.000 183.893 32.000 128.000 L 32.000 72.107 112.000 72.107 L 192.000 72.107 192.000 128.000 M239.685 144.427 L 239.573 160.855 223.893 150.399 L 208.213 139.943 208.213 128.068 L 208.213 116.192 223.893 105.740 L 239.573 95.287 239.685 111.644 C 239.746 120.640,239.746 135.392,239.685 144.427 " stroke="none" fill-rule="evenodd"></path></svg>