<svg fill="currentColor" viewBox="0 0 256 256" xmlns="http://www.w3.org/2000/svg"><path d="M120.960 24.326 C 100.935 25.586,81.587 32.844,64.891 45.360 C 59.554 49.360,49.234 59.686,45.276 64.986 C 34.512 79.399,27.973 94.882,25.095 112.768 C 23.886 120.283,23.787 134.307,24.890 141.867 C 27.542 160.046,34.293 176.318,45.279 191.014 C 49.299 196.392,59.608 206.701,64.986 210.721 C 79.686 221.710,96.000 228.476,114.133 231.105 C 117.683 231.620,121.936 231.847,128.000 231.847 C 144.598 231.847,158.874 228.583,173.440 221.458 C 184.661 215.968,192.320 210.472,201.396 201.396 C 210.475 192.317,215.974 184.654,221.456 173.440 C 235.707 144.287,235.458 110.173,220.780 81.026 C 214.698 68.950,203.517 55.194,193.067 46.931 C 172.349 30.550,147.221 22.673,120.960 24.326 M142.080 41.152 C 159.933 44.170,175.895 52.156,188.870 64.559 C 202.597 77.682,211.532 94.696,214.904 114.133 C 215.937 120.088,215.932 135.829,214.895 141.867 C 212.390 156.454,206.990 169.066,198.207 180.843 C 173.373 214.141,127.558 225.417,90.240 207.417 C 81.119 203.017,74.345 198.338,67.182 191.490 C 53.399 178.314,44.463 161.314,41.098 141.867 C 40.060 135.867,40.060 120.133,41.098 114.133 C 46.547 82.647,66.943 57.480,96.401 45.891 C 101.417 43.918,110.346 41.621,115.413 41.001 C 117.525 40.743,119.733 40.449,120.320 40.349 C 122.762 39.932,138.241 40.503,142.080 41.152 M121.840 56.339 C 112.495 57.158,104.403 59.474,95.787 63.794 C 72.595 75.423,57.880 97.791,56.075 124.160 C 55.756 128.824,56.224 131.153,57.875 133.116 C 60.706 136.480,65.776 136.935,69.116 134.125 C 71.260 132.321,71.765 130.839,72.157 125.199 C 73.184 110.461,78.504 98.532,88.518 88.518 C 98.532 78.504,110.492 73.179,125.277 72.152 C 130.833 71.766,132.326 71.254,134.125 69.116 C 137.173 65.493,136.365 60.046,132.390 57.419 C 130.408 56.109,127.665 55.829,121.840 56.339 M122.699 96.423 C 115.497 97.729,108.336 101.869,103.498 107.524 C 95.861 116.452,93.932 129.071,98.492 140.277 C 101.558 147.811,108.189 154.442,115.723 157.508 C 127.881 162.456,141.348 159.769,150.559 150.559 C 162.541 138.577,163.146 119.596,151.952 106.880 C 148.234 102.656,141.615 98.553,136.067 97.033 C 133.235 96.257,125.548 95.906,122.699 96.423 M134.897 113.618 C 137.730 115.004,141.333 118.670,142.637 121.493 C 143.413 123.172,143.573 124.288,143.573 128.000 C 143.573 132.011,143.452 132.727,142.414 134.841 C 139.319 141.143,132.295 144.868,125.568 143.773 C 120.534 142.953,115.860 139.480,113.613 134.887 C 112.145 131.886,111.783 126.712,112.797 123.223 C 114.075 118.828,118.155 114.562,122.597 112.978 C 125.964 111.777,131.750 112.078,134.897 113.618 M189.979 120.299 C 188.138 120.749,185.762 122.609,184.901 124.275 C 184.453 125.140,184.075 127.455,183.848 130.723 C 182.830 145.383,177.517 157.405,167.690 167.286 C 162.959 172.044,158.833 175.061,153.173 177.899 C 145.875 181.560,139.577 183.253,130.998 183.861 C 126.006 184.215,125.165 184.389,123.676 185.374 C 119.358 188.232,118.762 193.955,122.403 197.597 C 124.777 199.971,126.618 200.323,133.547 199.731 C 143.592 198.873,152.182 196.423,160.853 191.945 C 167.754 188.381,173.082 184.464,178.773 178.773 C 191.007 166.539,198.071 151.464,199.723 134.063 C 200.268 128.325,200.052 125.851,198.831 123.843 C 197.166 121.105,193.194 119.515,189.979 120.299 " stroke="none" fill-rule="evenodd"></path></svg>