<svg fill="currentColor" viewBox="0 0 256 256" xmlns="http://www.w3.org/2000/svg"><path d="M68.480 48.882 C 51.407 51.486,36.606 58.767,24.413 70.560 C 4.219 90.091,-4.134 117.977,1.978 145.460 C 5.398 160.833,13.489 175.095,24.943 185.937 C 36.787 197.149,50.507 203.987,67.200 206.999 L 72.747 208.000 127.787 208.000 C 188.143 208.000,185.357 208.105,195.995 205.425 C 218.343 199.795,237.930 183.655,248.098 162.492 C 271.428 113.932,240.805 56.752,187.252 48.880 C 183.311 48.301,175.492 48.219,127.519 48.255 C 83.040 48.288,71.574 48.410,68.480 48.882 M188.288 65.197 C 201.077 67.903,212.140 73.840,221.013 82.760 C 230.156 91.950,235.744 102.148,238.582 114.824 C 239.443 118.672,239.573 120.402,239.573 128.000 C 239.573 135.598,239.443 137.328,238.582 141.176 C 233.452 164.088,217.331 181.902,195.360 188.941 C 185.968 191.949,189.820 191.787,127.787 191.787 L 71.893 191.787 67.564 190.827 C 57.675 188.637,49.229 184.830,41.676 179.159 C 29.179 169.776,20.555 156.111,17.200 140.373 C 16.097 135.200,16.097 120.800,17.200 115.627 C 22.165 92.342,38.424 74.176,60.681 67.046 C 64.304 65.886,69.945 64.735,74.240 64.281 C 75.061 64.194,100.021 64.145,129.707 64.173 L 183.680 64.223 188.288 65.197 M60.373 88.604 C 59.669 88.976,58.730 89.592,58.286 89.973 C 57.101 90.992,55.913 93.845,55.903 95.700 C 55.896 96.857,59.799 106.936,69.532 130.900 C 84.454 167.636,83.943 166.616,87.938 167.692 C 90.909 168.492,94.402 167.333,96.193 164.953 C 96.742 164.224,103.208 148.843,110.562 130.773 C 122.666 101.032,123.932 97.693,123.926 95.521 C 123.902 87.383,112.923 84.873,109.105 92.133 C 108.542 93.204,104.067 104.012,99.161 116.152 C 94.254 128.292,90.139 138.228,90.016 138.232 C 89.893 138.236,85.573 127.830,80.416 115.106 C 70.687 91.102,69.969 89.663,67.114 88.470 C 65.275 87.701,61.956 87.767,60.373 88.604 M143.147 88.079 C 142.912 88.171,142.196 88.361,141.554 88.502 C 139.991 88.847,137.395 91.183,136.683 92.886 C 136.215 94.006,136.107 100.626,136.107 127.959 C 136.107 150.726,136.254 162.041,136.560 162.852 C 137.562 165.504,141.234 168.088,144.000 168.088 C 146.766 168.088,150.438 165.504,151.440 162.852 C 151.706 162.146,151.893 158.055,151.893 152.932 L 151.893 144.213 158.507 144.213 C 162.144 144.213,165.256 144.190,165.423 144.162 C 165.590 144.134,167.750 147.649,170.223 151.974 C 178.047 165.655,177.974 165.544,179.827 166.609 C 182.155 167.946,183.909 168.250,186.015 167.683 C 188.246 167.083,190.948 164.669,191.599 162.695 C 192.659 159.482,192.085 157.865,186.336 147.863 L 180.954 138.499 184.082 135.224 C 189.647 129.400,192.319 122.296,191.854 114.560 C 191.231 104.177,185.646 95.673,176.427 91.069 C 171.046 88.382,170.048 88.234,156.160 88.066 C 149.237 87.982,143.381 87.988,143.147 88.079 M169.368 105.445 C 173.611 107.565,175.703 111.045,175.745 116.053 C 175.773 119.461,174.750 121.935,172.258 124.484 C 169.368 127.440,167.244 128.000,158.917 128.000 L 151.893 128.000 151.893 116.053 L 151.893 104.107 159.292 104.107 L 166.690 104.107 169.368 105.445 " stroke="none" fill-rule="evenodd"></path></svg>