<svg fill="currentColor" viewBox="0 0 256 256" xmlns="http://www.w3.org/2000/svg"><path d="M50.195 40.783 C 46.371 41.708,41.937 44.247,38.964 47.213 C 36.043 50.127,33.289 55.216,32.465 59.221 C 31.803 62.441,31.812 193.622,32.475 196.779 C 33.132 199.910,35.368 204.589,37.463 207.220 C 39.686 210.011,43.843 212.991,47.626 214.505 L 50.560 215.680 134.716 215.792 C 217.518 215.902,218.910 215.890,221.265 215.063 C 225.566 213.551,228.935 210.326,230.776 205.957 L 231.893 203.307 231.893 144.000 L 231.893 84.693 230.867 82.144 C 229.561 78.901,226.312 75.426,222.933 73.659 L 220.373 72.320 137.173 72.107 C 56.096 71.899,53.931 71.872,52.316 71.071 C 46.940 68.403,46.823 60.200,52.118 57.169 L 53.973 56.107 124.373 55.893 C 176.806 55.734,194.991 55.553,195.627 55.183 C 197.975 53.817,200.116 50.331,200.097 47.907 C 200.076 45.213,197.457 41.545,194.852 40.560 C 194.020 40.246,172.014 40.118,123.172 40.142 C 63.899 40.172,52.296 40.274,50.195 40.783 M134.280 87.893 L 215.893 87.893 215.893 144.003 L 215.893 200.113 134.933 200.003 C 55.957 199.896,53.933 199.873,52.316 199.071 C 51.318 198.576,50.172 197.481,49.436 196.321 L 48.213 194.393 48.213 140.566 L 48.213 86.738 50.440 87.316 C 52.274 87.792,67.041 87.893,134.280 87.893 M176.175 128.637 C 173.751 129.416,170.501 132.217,169.305 134.559 C 168.022 137.071,167.769 141.500,168.761 144.096 C 169.800 146.818,172.752 149.878,175.465 151.044 C 177.268 151.820,178.222 151.958,180.676 151.798 C 184.367 151.557,186.594 150.487,188.929 147.834 C 194.106 141.954,192.532 133.307,185.598 129.533 C 182.882 128.055,179.104 127.696,176.175 128.637 " stroke="none" fill-rule="evenodd"></path></svg>