<svg fill="currentColor" viewBox="0 0 256 256" xmlns="http://www.w3.org/2000/svg"><path d="M27.679 49.436 C 26.519 50.172,25.424 51.318,24.929 52.316 C 24.126 53.933,24.107 55.753,24.107 128.000 L 24.107 202.027 24.999 203.733 C 25.554 204.795,26.669 205.923,27.952 206.720 L 30.013 208.000 128.000 208.000 L 225.987 208.000 228.048 206.720 C 229.331 205.923,230.446 204.795,231.001 203.733 L 231.893 202.027 231.893 128.000 C 231.893 55.753,231.874 53.933,231.071 52.316 C 230.576 51.318,229.481 50.172,228.321 49.436 L 226.393 48.213 128.000 48.213 L 29.607 48.213 27.679 49.436 M119.893 80.000 L 119.893 96.000 80.000 96.000 L 40.107 96.000 40.107 80.000 L 40.107 64.000 80.000 64.000 L 119.893 64.000 119.893 80.000 M215.893 80.000 L 215.893 96.000 176.000 96.000 L 136.107 96.000 136.107 80.000 L 136.107 64.000 176.000 64.000 L 215.893 64.000 215.893 80.000 M72.005 128.107 L 71.893 144.000 56.000 144.112 L 40.107 144.224 40.107 128.219 L 40.107 112.213 56.112 112.213 L 72.117 112.213 72.005 128.107 M168.005 128.107 L 167.893 144.000 128.000 144.000 L 88.107 144.000 87.995 128.107 L 87.883 112.213 128.000 112.213 L 168.117 112.213 168.005 128.107 M215.893 128.219 L 215.893 144.224 200.000 144.112 L 184.107 144.000 183.995 128.107 L 183.883 112.213 199.888 112.213 L 215.893 112.213 215.893 128.219 M119.893 176.000 L 119.893 192.000 80.000 192.000 L 40.107 192.000 40.107 176.000 L 40.107 160.000 80.000 160.000 L 119.893 160.000 119.893 176.000 M215.893 176.000 L 215.893 192.000 176.000 192.000 L 136.107 192.000 136.107 176.000 L 136.107 160.000 176.000 160.000 L 215.893 160.000 215.893 176.000 " stroke="none" fill-rule="evenodd"></path></svg>