<svg fill="currentColor" viewBox="0 0 256 256" xmlns="http://www.w3.org/2000/svg"><path d="M74.042 56.352 C 56.623 59.000,39.363 78.558,20.381 117.160 C 17.129 123.772,16.449 125.507,16.321 127.512 C 16.137 130.381,16.967 132.260,19.200 134.029 C 22.200 136.406,26.930 136.258,29.471 133.708 C 30.145 133.033,32.305 129.216,34.273 125.227 C 49.412 94.534,63.269 76.295,74.154 72.734 C 83.488 69.681,92.984 78.043,105.182 100.055 C 109.423 107.708,112.243 113.389,120.740 131.398 C 132.510 156.345,137.053 165.049,143.244 174.507 C 151.475 187.082,159.575 194.818,167.833 197.992 C 187.666 205.613,207.101 191.211,228.085 153.343 C 229.806 150.238,233.072 143.986,235.343 139.449 C 238.889 132.367,239.499 130.838,239.657 128.640 C 239.877 125.563,239.097 123.796,236.654 121.844 C 235.160 120.650,234.737 120.533,231.893 120.533 C 227.074 120.533,226.681 120.971,220.411 133.337 C 209.957 153.953,201.327 167.277,193.091 175.512 C 183.010 185.593,175.583 186.507,167.077 178.713 C 162.065 174.120,157.108 167.188,150.952 156.160 C 146.708 148.559,143.952 143.011,135.900 125.867 C 120.010 92.033,112.271 78.604,102.926 68.646 C 93.981 59.114,83.952 54.846,74.042 56.352 " stroke="none" fill-rule="evenodd"></path></svg>