<svg fill="currentColor" viewBox="0 0 256 256" xmlns="http://www.w3.org/2000/svg"><path d="M119.986 24.362 C 96.464 26.056,73.490 36.317,56.265 52.822 C 39.153 69.220,28.570 89.827,24.888 113.920 C 23.850 120.711,23.850 135.281,24.887 142.080 C 26.477 152.504,29.795 163.614,33.871 172.160 L 36.110 176.853 30.129 194.773 C 24.407 211.921,24.150 212.840,24.161 216.107 C 24.193 225.035,30.965 231.807,39.893 231.839 C 43.161 231.850,44.075 231.594,61.260 225.855 L 79.214 219.860 81.740 221.140 C 91.228 225.945,103.671 229.678,115.627 231.304 C 120.784 232.005,135.147 232.020,140.160 231.330 C 164.618 227.962,184.629 218.186,201.407 201.407 C 218.213 184.602,228.221 164.033,231.311 139.947 C 231.988 134.674,231.992 121.218,231.319 116.053 C 228.826 96.916,222.232 80.533,210.958 65.462 C 195.379 44.636,171.275 29.892,145.839 25.629 C 140.576 24.747,130.321 23.851,126.720 23.958 C 125.664 23.989,122.634 24.171,119.986 24.362 M137.297 40.560 C 171.724 44.323,200.528 67.543,211.363 100.267 C 217.467 118.699,217.467 137.301,211.363 155.733 C 200.717 187.886,172.830 210.834,138.985 215.293 C 131.954 216.220,119.508 215.923,112.853 214.671 C 103.407 212.892,96.324 210.467,86.662 205.700 C 83.594 204.187,80.819 203.095,80.048 203.097 C 79.318 203.099,70.091 205.974,59.545 209.486 C 48.998 212.998,40.315 215.817,40.249 215.751 C 40.183 215.685,43.012 207.002,46.537 196.455 C 51.789 180.740,52.912 176.953,52.765 175.467 C 52.656 174.370,51.575 171.676,50.025 168.641 C 44.995 158.790,42.094 149.438,40.726 138.667 C 39.861 131.862,40.061 120.457,41.160 113.920 C 46.383 82.839,66.991 57.461,96.401 45.891 C 101.417 43.918,110.346 41.621,115.413 41.001 C 117.525 40.743,119.733 40.462,120.320 40.377 C 122.762 40.024,133.451 40.139,137.297 40.560 M97.937 64.475 C 87.768 65.956,77.623 72.198,71.558 80.706 C 65.848 88.714,63.658 96.669,64.135 107.660 C 65.369 136.071,80.026 161.859,103.893 177.609 C 111.381 182.550,120.981 186.806,129.920 189.147 C 136.333 190.827,141.580 191.573,148.907 191.846 C 154.506 192.055,156.142 191.964,159.575 191.249 C 175.774 187.876,187.886 175.826,191.195 159.792 C 192.709 152.459,192.013 148.116,188.953 145.805 C 186.841 144.209,155.200 128.525,153.417 128.191 C 150.622 127.666,149.062 128.364,140.828 133.819 L 132.746 139.174 130.266 137.534 C 124.926 134.003,116.305 124.241,117.197 122.735 C 117.358 122.463,119.588 119.092,122.153 115.245 C 124.717 111.397,127.082 107.611,127.408 106.832 C 128.742 103.638,128.548 103.107,119.302 84.605 C 114.518 75.032,110.148 66.777,109.590 66.260 C 107.260 64.103,103.960 63.597,97.937 64.475 M104.958 91.730 C 108.010 97.830,110.507 103.055,110.507 103.343 C 110.507 103.630,108.421 106.943,105.871 110.706 C 100.179 119.105,99.742 119.948,99.742 122.513 C 99.742 125.125,102.507 130.945,106.237 136.184 C 114.291 147.493,129.414 157.611,135.850 155.996 C 136.438 155.848,140.388 153.425,144.627 150.610 C 148.866 147.796,152.525 145.493,152.757 145.493 C 152.990 145.493,158.170 147.990,164.270 151.042 C 173.186 155.502,175.360 156.756,175.360 157.437 C 175.360 159.044,173.204 163.634,171.123 166.458 C 167.454 171.436,161.545 174.840,154.947 175.779 C 151.445 176.277,143.265 175.672,137.524 174.491 C 109.531 168.731,87.477 146.655,81.492 118.400 C 80.183 112.224,79.835 101.365,80.835 97.905 C 82.501 92.135,86.724 86.378,91.222 83.742 C 93.555 82.375,97.675 80.664,98.665 80.650 C 99.216 80.643,100.856 83.531,104.958 91.730 " stroke="none" fill-rule="evenodd"></path></svg>