<svg fill="currentColor" viewBox="0 0 256 256" xmlns="http://www.w3.org/2000/svg"><path d="M168.107 17.083 C 159.094 19.401,151.460 25.618,147.432 33.920 C 144.991 38.952,144.113 42.676,144.113 48.000 C 144.113 57.591,148.120 66.105,155.723 72.670 C 158.568 75.126,164.664 78.163,168.747 79.159 C 172.663 80.114,179.337 80.114,183.253 79.159 C 192.482 76.909,200.484 70.497,204.568 62.080 C 207.009 57.048,207.887 53.324,207.887 48.000 C 207.887 42.676,207.009 38.952,204.568 33.920 C 200.502 25.540,192.852 19.354,183.718 17.061 C 179.240 15.936,172.530 15.946,168.107 17.083 M182.502 33.481 C 185.761 34.967,189.071 38.279,190.572 41.555 C 191.596 43.790,191.766 44.706,191.769 48.000 C 191.773 51.307,191.608 52.195,190.586 54.400 C 189.030 57.755,185.744 61.058,182.445 62.583 C 180.198 63.621,179.313 63.787,176.000 63.787 C 172.689 63.787,171.807 63.622,169.600 62.593 C 166.228 61.020,162.936 57.738,161.428 54.445 C 160.404 52.210,160.234 51.294,160.231 48.000 C 160.227 44.692,160.391 43.805,161.414 41.600 C 163.451 37.211,167.756 33.575,172.265 32.436 C 175.004 31.744,179.758 32.229,182.502 33.481 M96.213 72.399 C 77.669 74.017,59.774 80.963,45.272 92.171 C 40.919 95.535,39.680 97.377,39.680 100.484 C 39.680 104.920,43.137 108.373,47.578 108.373 C 49.962 108.373,51.169 107.773,55.630 104.372 C 65.653 96.728,77.442 91.544,89.806 89.343 C 102.503 87.083,116.735 88.037,128.679 91.950 C 133.383 93.490,140.800 96.764,140.800 97.300 C 140.800 97.477,136.452 105.177,131.137 114.411 C 125.823 123.645,121.097 132.046,120.635 133.079 C 119.032 136.666,120.651 141.100,124.267 143.032 L 126.080 144.000 158.119 144.117 L 190.158 144.234 182.997 180.066 C 175.930 215.428,175.844 215.927,176.414 218.125 C 177.440 222.080,181.169 224.442,185.389 223.809 C 187.898 223.432,190.916 220.844,191.565 218.512 C 191.802 217.658,195.643 198.720,200.101 176.427 C 207.385 139.996,208.158 135.721,207.740 134.187 C 207.091 131.800,205.420 129.754,203.356 128.816 C 201.695 128.062,199.984 128.018,171.840 128.009 C 155.472 128.004,142.080 127.900,142.080 127.779 C 142.080 127.657,145.753 121.191,150.242 113.409 C 154.731 105.627,158.759 98.478,159.193 97.523 C 160.161 95.391,160.207 93.481,159.340 91.405 C 158.405 89.169,157.290 88.119,153.272 85.691 C 141.692 78.695,127.109 73.903,113.313 72.560 C 108.976 72.138,100.155 72.055,96.213 72.399 M95.367 104.596 C 71.768 107.619,50.738 125.077,43.310 147.811 C 40.751 155.642,40.332 158.462,40.326 167.893 C 40.319 177.219,40.721 180.018,43.170 187.723 C 52.127 215.902,80.653 234.703,109.891 231.697 C 137.270 228.883,159.354 209.959,166.009 183.611 C 167.580 177.389,168.465 168.424,167.745 166.021 C 166.312 161.239,161.170 158.789,156.800 160.806 C 153.467 162.345,151.893 165.143,151.893 169.530 C 151.893 174.984,150.219 182.151,147.556 188.098 C 142.919 198.454,132.866 208.084,122.237 212.352 C 115.158 215.194,112.829 215.615,104.107 215.628 C 96.841 215.639,95.874 215.548,91.947 214.485 C 74.073 209.647,60.820 195.559,56.948 177.280 C 55.965 172.639,55.944 163.941,56.904 159.014 C 60.120 142.522,71.535 128.992,87.215 123.092 C 91.440 121.502,94.870 120.787,101.371 120.141 C 106.446 119.636,107.256 119.444,108.593 118.424 C 111.436 116.256,112.445 113.382,111.571 109.940 C 110.986 107.635,109.710 106.087,107.430 104.918 C 105.672 104.017,100.887 103.889,95.367 104.596 " stroke="none" fill-rule="evenodd"></path></svg>