<svg fill="currentColor" viewBox="0 0 256 256" xmlns="http://www.w3.org/2000/svg"><path d="M119.893 96.259 C 103.748 97.695,90.959 100.846,78.117 106.551 C 65.681 112.076,50.911 121.641,48.937 125.449 C 47.762 127.715,48.101 131.693,49.642 133.713 C 51.751 136.478,55.624 137.690,58.662 136.535 C 59.276 136.302,61.737 134.701,64.130 132.978 C 78.222 122.833,92.903 116.592,109.653 113.626 C 118.069 112.135,132.368 111.770,140.843 112.829 C 159.538 115.166,175.980 121.594,191.236 132.532 C 196.779 136.507,197.691 136.960,200.156 136.960 C 205.199 136.960,209.050 131.902,207.752 126.982 C 207.122 124.593,204.006 121.702,197.217 117.206 C 180.156 105.908,161.803 99.083,142.507 96.860 C 138.240 96.368,123.165 95.968,119.893 96.259 M116.693 144.866 C 111.276 145.735,104.967 147.416,100.480 149.185 C 92.885 152.179,83.334 157.842,81.475 160.453 C 79.597 163.090,79.843 167.596,82.000 170.052 C 85.376 173.898,88.889 173.939,94.598 170.200 C 101.347 165.780,109.193 162.584,117.174 161.005 C 122.895 159.873,134.073 159.972,139.814 161.205 C 147.799 162.920,154.359 165.644,161.191 170.080 C 165.066 172.596,167.306 173.317,169.623 172.795 C 174.222 171.758,176.907 167.185,175.568 162.674 C 174.835 160.207,173.785 159.157,168.857 155.966 C 161.344 151.101,151.975 147.343,142.668 145.460 C 136.638 144.239,122.594 143.918,116.693 144.866 M123.947 192.730 C 120.972 193.748,117.706 197.059,116.705 200.072 C 115.799 202.800,115.981 206.845,117.111 209.086 C 118.133 211.113,120.620 213.650,122.667 214.751 C 124.973 215.993,130.880 216.067,133.120 214.883 C 140.179 211.152,142.108 202.148,137.102 196.299 C 133.988 192.661,128.501 191.173,123.947 192.730 " stroke="none" fill-rule="evenodd"></path></svg>