<svg fill="currentColor" viewBox="0 0 256 256" xmlns="http://www.w3.org/2000/svg"><path d="M154.084 24.342 C 128.493 26.435,106.066 41.977,94.979 65.303 C 86.731 82.654,85.776 101.826,92.243 120.240 C 93.178 122.902,93.877 125.129,93.798 125.190 C 91.487 126.948,33.124 177.708,32.056 178.890 C 28.820 182.467,26.574 186.649,25.097 191.846 C 23.867 196.176,23.780 203.629,24.913 207.762 C 28.713 221.632,40.064 230.966,54.358 231.974 C 62.187 232.527,71.899 228.998,77.658 223.508 C 78.706 222.509,129.337 164.118,130.836 162.179 C 130.907 162.087,132.554 162.598,134.496 163.313 C 144.556 167.021,153.166 168.427,162.987 167.965 C 185.354 166.912,205.875 155.739,218.817 137.566 C 224.415 129.705,229.233 117.985,231.080 107.733 C 232.132 101.894,232.126 90.188,231.068 84.267 C 229.708 76.653,227.242 69.142,225.371 66.919 C 223.084 64.201,219.276 63.336,216.107 64.815 C 215.102 65.284,206.011 73.369,194.005 84.472 L 173.611 103.332 165.015 101.479 L 156.420 99.627 154.564 90.987 L 152.707 82.347 171.548 61.973 C 182.638 49.981,190.716 40.898,191.185 39.893 C 192.161 37.802,192.209 35.887,191.340 33.805 C 189.991 30.577,188.221 29.414,181.546 27.372 C 175.926 25.653,171.809 24.851,165.914 24.330 C 160.613 23.860,159.961 23.861,154.084 24.342 M166.352 40.382 C 167.803 40.534,168.935 40.815,168.868 41.006 C 168.801 41.197,161.739 48.949,153.173 58.233 C 144.608 67.517,137.264 75.729,136.853 76.483 C 136.443 77.237,136.107 78.689,136.107 79.710 C 136.107 81.603,141.856 108.875,142.506 110.066 C 143.213 111.361,145.737 113.402,147.200 113.862 C 150.236 114.816,174.650 119.893,176.152 119.882 C 177.007 119.876,178.419 119.540,179.289 119.135 C 180.159 118.731,188.464 111.392,197.744 102.827 C 207.024 94.261,214.790 87.195,215.001 87.124 C 215.609 86.921,216.039 94.029,215.744 99.413 C 215.001 112.981,209.406 125.475,199.680 135.285 C 194.977 140.028,190.858 143.045,185.173 145.908 C 177.211 149.918,168.984 151.895,160.264 151.892 C 151.263 151.889,143.134 150.008,135.112 146.072 C 131.517 144.308,130.984 144.165,128.538 144.309 C 126.722 144.417,125.501 144.742,124.698 145.334 C 124.050 145.811,111.187 160.480,96.112 177.932 C 81.038 195.384,67.909 210.474,66.936 211.465 C 65.963 212.456,63.992 213.810,62.557 214.474 C 60.304 215.515,59.421 215.680,56.107 215.680 C 52.696 215.680,51.957 215.532,49.493 214.360 C 45.967 212.681,43.317 210.030,41.642 206.507 C 40.469 204.038,40.325 203.312,40.333 199.893 C 40.344 194.928,41.613 191.926,45.149 188.501 C 46.483 187.209,61.601 174.050,78.746 159.258 C 95.891 144.465,110.281 131.813,110.724 131.141 C 111.186 130.439,111.604 128.885,111.708 127.483 C 111.871 125.261,111.697 124.640,109.728 120.443 C 105.394 111.200,104.320 106.346,104.320 96.000 C 104.320 90.391,104.513 87.631,105.097 84.907 C 110.066 61.703,128.122 44.424,151.253 40.735 C 155.050 40.130,162.313 39.960,166.352 40.382 " stroke="none" fill-rule="evenodd"></path></svg>