<svg fill="currentColor" viewBox="0 0 256 256" xmlns="http://www.w3.org/2000/svg"><path d="M44.265 32.461 C 39.776 33.526,35.661 36.951,33.540 41.387 L 32.213 44.160 32.213 128.000 L 32.213 211.840 33.407 214.400 C 34.974 217.760,38.261 221.060,41.555 222.583 L 44.160 223.787 128.000 223.787 L 211.840 223.787 214.445 222.583 C 217.739 221.060,221.026 217.760,222.593 214.400 L 223.787 211.840 223.787 128.000 L 223.787 44.160 222.583 41.555 C 221.060 38.261,217.760 34.974,214.400 33.407 L 211.840 32.213 128.853 32.147 C 81.512 32.109,45.179 32.244,44.265 32.461 M207.787 128.213 L 207.787 208.213 128.000 208.213 L 48.213 208.213 48.213 128.213 L 48.213 48.213 128.000 48.213 L 207.787 48.213 207.787 128.213 M93.919 88.312 C 89.733 89.327,87.178 93.839,88.325 98.192 C 88.758 99.834,90.458 101.700,102.746 114.027 L 116.676 128.000 102.746 141.973 C 90.458 154.300,88.758 156.166,88.325 157.808 C 86.719 163.901,92.099 169.281,98.192 167.675 C 99.834 167.242,101.700 165.542,114.027 153.254 L 128.000 139.324 141.973 153.254 C 154.300 165.542,156.166 167.242,157.808 167.675 C 160.099 168.279,162.522 167.908,164.353 166.674 C 167.288 164.696,168.581 161.246,167.675 157.808 C 167.242 156.166,165.542 154.300,153.254 141.973 L 139.324 128.000 153.251 114.027 C 164.943 102.297,167.253 99.779,167.640 98.347 C 168.211 96.235,168.214 95.762,167.661 93.773 C 167.127 91.850,165.475 89.806,163.724 88.900 C 162.287 88.157,159.191 87.950,157.227 88.466 C 156.338 88.700,151.672 93.066,141.970 102.742 L 127.994 116.682 114.237 102.973 C 106.671 95.432,100.096 89.073,99.627 88.841 C 98.301 88.185,95.508 87.926,93.919 88.312 " stroke="none" fill-rule="evenodd"></path></svg>