<svg viewBox="0 0 24 24" xmlns="http://www.w3.org/2000/svg"><path d="M11.120 2.039 C 8.641 2.287,6.414 3.362,4.761 5.107 C 1.806 8.228,1.158 12.819,3.137 16.623 C 3.620 17.552,4.164 18.288,4.938 19.061 C 5.930 20.051,7.038 20.789,8.272 21.278 C 11.634 22.610,15.313 22.080,18.200 19.845 C 18.637 19.507,19.507 18.637,19.845 18.200 C 21.256 16.378,22.000 14.236,22.000 12.000 C 22.000 7.432,18.842 3.387,14.430 2.303 C 13.446 2.062,12.028 1.948,11.120 2.039 M13.041 6.097 C 14.371 6.333,15.638 7.046,16.506 8.045 C 17.229 8.879,17.707 9.879,17.909 10.980 C 17.999 11.468,17.999 12.532,17.909 13.020 C 17.805 13.587,17.653 14.064,17.423 14.545 C 16.584 16.296,15.102 17.462,13.174 17.887 C 12.603 18.013,11.397 18.013,10.826 17.887 C 8.341 17.339,6.548 15.496,6.090 13.020 C 6.000 12.531,6.000 11.469,6.090 10.980 C 6.394 9.335,7.309 7.928,8.660 7.025 C 9.725 6.313,10.873 5.981,12.140 6.019 C 12.448 6.029,12.853 6.063,13.041 6.097 M11.374 7.839 C 9.703 8.277,8.966 10.235,9.939 11.656 L 10.109 11.904 9.892 12.121 C 9.632 12.381,9.440 12.687,9.315 13.040 C 9.184 13.411,9.182 14.069,9.311 14.440 C 9.689 15.534,10.745 16.240,12.000 16.240 C 13.255 16.240,14.311 15.534,14.689 14.440 C 14.823 14.052,14.817 13.409,14.675 13.016 C 14.552 12.676,14.347 12.356,14.084 12.096 L 13.891 11.905 14.061 11.656 C 14.352 11.232,14.489 10.779,14.490 10.240 C 14.492 8.863,13.369 7.753,11.984 7.762 C 11.803 7.763,11.534 7.798,11.374 7.839 M12.436 9.358 C 12.744 9.516,12.946 9.807,12.987 10.153 C 13.053 10.719,12.581 11.240,12.000 11.240 C 11.419 11.240,10.947 10.719,11.013 10.153 C 11.095 9.460,11.831 9.049,12.436 9.358 M12.464 12.819 C 12.717 12.894,13.015 13.105,13.152 13.305 C 13.298 13.520,13.322 13.880,13.206 14.109 C 13.008 14.497,12.551 14.734,12.000 14.734 C 11.268 14.734,10.720 14.316,10.720 13.758 C 10.720 13.331,11.027 12.978,11.540 12.816 C 11.760 12.746,12.225 12.748,12.464 12.819 " stroke="none" fill-rule="evenodd" fill="black"></path></svg>