<svg viewBox="0 0 24 24" xmlns="http://www.w3.org/2000/svg"><path d="M7.240 3.753 L 2.500 6.501 2.490 11.990 L 2.480 17.479 2.630 17.573 C 2.712 17.625,4.854 18.867,7.389 20.335 L 11.999 23.002 16.749 20.251 L 21.500 17.500 21.500 12.002 L 21.500 6.503 16.747 3.752 C 14.133 2.238,11.991 1.001,11.987 1.003 C 11.983 1.004,9.847 2.242,7.240 3.753 M8.400 9.919 C 10.347 11.045,11.954 11.980,11.970 11.996 C 11.987 12.011,11.996 13.972,11.990 16.352 L 11.980 20.680 8.260 18.526 L 4.540 16.372 4.530 12.022 L 4.520 7.672 4.690 7.771 C 4.783 7.826,6.453 8.792,8.400 9.919 " stroke="none" fill-rule="evenodd" fill="black"></path></svg>