<svg viewBox="0 0 24 24" xmlns="http://www.w3.org/2000/svg"><path d="M11.540 2.024 C 11.213 2.073,10.792 2.181,10.540 2.281 C 9.238 2.798,8.297 3.947,8.060 5.308 C 8.010 5.592,8.000 6.190,8.000 8.829 L 8.000 12.007 7.350 11.993 C 6.723 11.980,6.693 11.976,6.511 11.869 C 6.408 11.808,6.275 11.696,6.217 11.619 C 6.015 11.355,6.004 11.267,6.002 10.017 C 6.000 8.679,5.982 8.580,5.697 8.295 C 5.496 8.094,5.172 7.979,4.893 8.011 C 4.514 8.053,4.139 8.362,4.042 8.711 C 4.018 8.798,4.000 9.360,4.000 10.072 C 4.000 11.400,4.031 11.671,4.236 12.163 C 4.531 12.867,5.149 13.481,5.849 13.766 C 6.287 13.945,6.645 14.000,7.358 14.000 L 8.000 14.000 8.000 17.000 L 8.000 20.000 7.000 20.000 L 6.000 20.000 6.000 21.000 L 6.000 22.000 12.000 22.000 L 18.000 22.000 18.000 21.000 L 18.000 20.000 17.000 20.000 L 16.000 20.000 16.000 18.500 L 16.000 17.000 16.642 17.000 C 17.355 17.000,17.713 16.945,18.151 16.766 C 18.854 16.480,19.480 15.853,19.767 15.150 C 20.000 14.577,20.000 14.577,20.000 11.069 C 20.000 7.442,20.014 7.612,19.697 7.295 C 19.496 7.094,19.172 6.979,18.893 7.011 C 18.514 7.053,18.139 7.362,18.042 7.711 C 18.015 7.808,18.000 8.952,18.000 10.972 C 18.000 13.029,17.986 14.141,17.958 14.252 C 17.894 14.503,17.679 14.774,17.453 14.885 C 17.279 14.971,17.198 14.981,16.631 14.993 L 16.002 15.005 15.990 10.193 C 15.978 5.406,15.977 5.378,15.891 5.060 C 15.631 4.094,15.041 3.236,14.285 2.723 C 13.918 2.474,13.349 2.216,12.958 2.120 C 12.630 2.040,11.809 1.984,11.540 2.024 M12.662 4.124 C 13.247 4.342,13.644 4.737,13.884 5.340 L 13.980 5.580 13.991 12.790 L 14.001 20.000 12.001 20.000 L 10.000 20.000 10.000 12.902 C 10.000 7.875,10.013 5.742,10.044 5.592 C 10.199 4.849,10.850 4.193,11.580 4.044 C 11.880 3.983,12.384 4.020,12.662 4.124 " stroke="none" fill-rule="evenodd" fill="black"></path></svg>