<svg viewBox="0 0 24 24" xmlns="http://www.w3.org/2000/svg"><path d="M14.868 2.064 C 14.480 2.134,14.045 2.300,13.669 2.523 C 13.393 2.687,12.824 3.209,12.653 3.456 L 12.573 3.571 12.156 3.410 C 11.106 3.003,9.919 2.901,8.827 3.122 C 7.254 3.442,5.825 4.406,4.978 5.720 C 4.372 6.659,4.005 7.846,4.000 8.880 L 3.999 9.180 3.780 9.274 C 3.443 9.421,3.174 9.605,2.892 9.884 C 2.559 10.214,2.318 10.605,2.153 11.080 C 2.030 11.437,2.022 11.492,2.023 12.000 C 2.024 12.503,2.033 12.566,2.155 12.920 C 2.226 13.129,2.363 13.426,2.459 13.580 C 2.667 13.915,3.128 14.369,3.462 14.571 C 3.737 14.736,4.317 14.939,4.630 14.980 C 4.745 14.995,4.840 15.015,4.840 15.025 C 4.840 15.163,5.897 21.323,5.937 21.420 C 5.968 21.493,6.067 21.625,6.158 21.713 C 6.474 22.020,6.070 22.000,12.000 22.000 C 17.930 22.000,17.526 22.020,17.842 21.713 C 17.933 21.625,18.031 21.495,18.062 21.422 C 18.092 21.350,18.361 19.826,18.660 18.036 C 18.959 16.245,19.212 14.752,19.222 14.718 C 19.232 14.684,19.344 14.606,19.470 14.545 C 20.337 14.122,21.085 13.375,21.519 12.500 C 22.216 11.095,22.143 9.467,21.323 8.137 C 20.839 7.351,20.021 6.659,19.191 6.334 C 18.936 6.233,18.923 6.223,18.951 6.124 C 18.967 6.067,18.978 5.768,18.976 5.460 C 18.973 4.975,18.958 4.853,18.866 4.548 C 18.665 3.884,18.357 3.388,17.862 2.932 C 17.052 2.185,15.954 1.867,14.868 2.064 M10.958 5.120 C 11.144 5.166,11.462 5.281,11.663 5.376 C 12.567 5.804,13.127 6.354,13.602 7.280 C 13.806 7.678,14.191 8.093,14.502 8.251 C 14.866 8.436,15.136 8.492,15.557 8.472 C 15.896 8.455,15.985 8.434,16.339 8.282 C 16.867 8.057,17.209 7.986,17.640 8.013 C 18.704 8.081,19.597 8.792,19.905 9.820 C 20.004 10.150,20.004 10.850,19.905 11.180 C 19.707 11.841,19.231 12.419,18.645 12.713 C 18.027 13.022,18.518 13.003,11.239 12.991 L 4.738 12.980 4.539 12.878 C 4.001 12.601,3.843 11.877,4.215 11.390 C 4.313 11.261,4.445 11.169,4.775 11.001 C 5.386 10.688,5.675 10.384,5.889 9.830 C 5.950 9.671,5.978 9.465,6.003 8.980 C 6.052 8.046,6.225 7.463,6.642 6.829 C 7.300 5.826,8.290 5.209,9.540 5.024 C 9.809 4.984,10.630 5.040,10.958 5.120 M11.000 17.500 L 11.000 20.000 10.000 20.000 L 9.000 20.000 9.000 17.500 L 9.000 15.000 10.000 15.000 L 11.000 15.000 11.000 17.500 M15.000 17.500 L 15.000 20.000 14.000 20.000 L 13.000 20.000 13.000 17.500 L 13.000 15.000 14.000 15.000 L 15.000 15.000 15.000 17.500 " stroke="none" fill-rule="evenodd" fill="black"></path></svg>