<svg viewBox="0 0 24 24" xmlns="http://www.w3.org/2000/svg"><path d="M3.000 6.000 L 3.000 9.000 4.000 9.000 L 5.000 9.000 5.000 7.000 L 5.000 5.000 7.000 5.000 L 9.000 5.000 9.000 4.000 L 9.000 3.000 6.000 3.000 L 3.000 3.000 3.000 6.000 M15.000 4.000 L 15.000 5.000 17.000 5.000 L 19.000 5.000 19.000 7.000 L 19.000 9.000 20.000 9.000 L 21.000 9.000 21.000 6.000 L 21.000 3.000 18.000 3.000 L 15.000 3.000 15.000 4.000 M10.960 6.089 C 10.930 6.157,7.133 15.663,6.677 16.810 L 6.601 17.000 7.676 17.000 L 8.752 17.000 9.348 15.510 L 9.944 14.020 11.996 14.020 L 14.048 14.020 14.640 15.500 L 15.232 16.980 16.316 16.991 L 17.400 17.001 17.340 16.851 C 17.307 16.768,16.319 14.297,15.144 11.360 L 13.008 6.020 12.003 6.009 L 10.999 5.999 10.960 6.089 M12.633 10.480 L 13.232 11.980 12.010 11.991 C 11.338 11.996,10.782 11.995,10.775 11.988 C 10.768 11.981,11.036 11.289,11.371 10.450 C 11.706 9.611,11.992 8.937,12.007 8.953 C 12.022 8.968,12.303 9.655,12.633 10.480 M3.000 18.000 L 3.000 21.000 6.000 21.000 L 9.000 21.000 9.000 20.000 L 9.000 19.000 7.000 19.000 L 5.000 19.000 5.000 17.000 L 5.000 15.000 4.000 15.000 L 3.000 15.000 3.000 18.000 M19.000 17.000 L 19.000 19.000 17.000 19.000 L 15.000 19.000 15.000 20.000 L 15.000 21.000 18.000 21.000 L 21.000 21.000 21.000 18.000 L 21.000 15.000 20.000 15.000 L 19.000 15.000 19.000 17.000 " stroke="none" fill-rule="evenodd" fill="black"></path></svg>