<svg viewBox="0 0 24 24" xmlns="http://www.w3.org/2000/svg"><path d="M9.000 4.500 L 9.000 7.000 6.500 7.000 L 4.000 7.000 4.000 10.000 L 4.000 13.000 6.500 13.000 L 9.000 13.000 9.000 17.500 L 9.000 22.000 12.000 22.000 L 15.000 22.000 15.000 17.500 L 15.000 13.000 17.500 13.000 L 20.000 13.000 20.000 10.000 L 20.000 7.000 17.500 7.000 L 15.000 7.000 15.000 4.500 L 15.000 2.000 12.000 2.000 L 9.000 2.000 9.000 4.500 M13.000 6.500 L 13.000 9.000 15.500 9.000 L 18.000 9.000 18.000 10.000 L 18.000 11.000 15.500 11.000 L 13.000 11.000 13.000 15.500 L 13.000 20.000 12.000 20.000 L 11.000 20.000 11.000 15.500 L 11.000 11.000 8.500 11.000 L 6.000 11.000 6.000 10.000 L 6.000 9.000 8.500 9.000 L 11.000 9.000 11.000 6.500 L 11.000 4.000 12.000 4.000 L 13.000 4.000 13.000 6.500 " stroke="none" fill-rule="evenodd" fill="black"></path></svg>