<svg viewBox="0 0 24 24" xmlns="http://www.w3.org/2000/svg"><path d="M3.664 3.063 C 3.436 3.146,3.257 3.297,3.131 3.511 L 3.020 3.700 3.020 12.000 L 3.020 20.300 3.131 20.489 C 3.192 20.592,3.301 20.723,3.374 20.778 C 3.684 21.015,3.106 21.000,11.998 21.000 C 21.144 21.000,20.376 21.026,20.701 20.701 C 21.026 20.376,21.000 21.144,21.000 12.000 C 21.000 2.856,21.026 3.624,20.701 3.299 C 20.376 2.973,21.147 3.000,11.983 3.003 C 5.003 3.005,3.797 3.014,3.664 3.063 M12.762 8.133 C 13.202 8.281,13.426 8.421,13.764 8.757 C 14.247 9.239,14.480 9.802,14.480 10.486 C 14.480 10.949,14.426 11.191,14.231 11.600 C 14.103 11.869,14.005 12.004,13.764 12.243 C 13.597 12.409,13.357 12.604,13.230 12.676 L 13.000 12.806 13.000 14.403 L 13.000 16.000 12.000 16.000 L 11.000 16.000 11.000 14.403 L 11.000 12.806 10.770 12.676 C 10.643 12.604,10.403 12.409,10.236 12.243 C 9.995 12.004,9.897 11.869,9.769 11.600 C 9.575 11.193,9.520 10.949,9.520 10.500 C 9.520 10.052,9.575 9.807,9.769 9.400 C 10.078 8.750,10.747 8.221,11.460 8.063 C 11.854 7.976,12.379 8.004,12.762 8.133 " stroke="none" fill-rule="evenodd" fill="black"></path></svg>