<svg viewBox="0 0 24 24" xmlns="http://www.w3.org/2000/svg"><path d="M5.664 3.063 C 5.436 3.146,5.257 3.297,5.131 3.511 L 5.020 3.700 5.010 11.350 L 4.999 19.000 4.000 19.000 L 3.000 19.000 3.000 20.000 L 3.000 21.000 12.000 21.000 L 21.000 21.000 21.000 20.000 L 21.000 19.000 20.000 19.000 L 19.000 19.000 19.000 11.427 C 19.000 2.917,19.026 3.624,18.697 3.295 C 18.381 2.978,18.868 3.000,11.963 3.003 C 6.736 3.005,5.797 3.014,5.664 3.063 M15.000 12.000 L 15.000 13.000 14.000 13.000 L 13.000 13.000 13.000 12.000 L 13.000 11.000 14.000 11.000 L 15.000 11.000 15.000 12.000 " stroke="none" fill-rule="evenodd" fill="black"></path></svg>