<svg viewBox="0 0 24 24" xmlns="http://www.w3.org/2000/svg"><path d="M11.120 2.039 C 8.641 2.287,6.414 3.362,4.761 5.107 C 1.806 8.228,1.158 12.819,3.137 16.623 C 3.620 17.552,4.164 18.288,4.938 19.061 C 5.930 20.051,7.038 20.789,8.272 21.278 C 11.634 22.610,15.313 22.080,18.200 19.845 C 18.637 19.507,19.507 18.637,19.845 18.200 C 21.256 16.378,22.000 14.236,22.000 12.000 C 22.000 7.432,18.842 3.387,14.430 2.303 C 13.446 2.062,12.028 1.948,11.120 2.039 M10.549 4.940 L 10.996 5.260 10.998 6.526 L 11.000 7.792 9.653 8.769 L 8.306 9.747 7.263 9.409 C 6.689 9.223,6.184 9.057,6.139 9.040 C 6.076 9.016,6.001 8.829,5.787 8.161 L 5.515 7.313 5.688 7.087 C 5.966 6.720,6.591 6.091,7.006 5.759 C 7.682 5.217,8.519 4.749,9.319 4.464 L 9.699 4.329 9.901 4.474 C 10.012 4.555,10.303 4.764,10.549 4.940 M15.420 4.776 C 15.994 5.050,16.517 5.377,16.994 5.759 C 17.416 6.097,18.046 6.730,18.314 7.087 L 18.485 7.314 18.214 8.161 C 17.999 8.831,17.925 9.015,17.861 9.040 C 17.817 9.056,17.311 9.223,16.737 9.409 L 15.694 9.747 14.347 8.769 L 13.000 7.792 13.002 6.526 L 13.004 5.260 13.652 4.794 L 14.299 4.329 14.639 4.447 C 14.827 4.513,15.178 4.661,15.420 4.776 M13.164 10.382 C 13.789 10.835,14.305 11.226,14.311 11.252 C 14.317 11.279,14.126 11.903,13.888 12.640 L 13.455 13.980 11.999 13.980 L 10.544 13.980 10.113 12.660 C 9.876 11.934,9.687 11.310,9.691 11.272 C 9.699 11.212,11.926 9.560,11.999 9.560 C 12.015 9.560,12.539 9.930,13.164 10.382 M6.576 11.291 L 7.691 11.660 8.203 13.238 L 8.714 14.816 8.052 15.728 L 7.390 16.640 6.434 16.640 L 5.477 16.640 5.276 16.330 C 4.777 15.560,4.333 14.467,4.164 13.592 C 4.074 13.125,4.000 12.433,4.000 12.058 L 4.000 11.815 4.630 11.350 C 5.130 10.982,5.281 10.889,5.360 10.904 C 5.415 10.914,5.962 11.088,6.576 11.291 M19.364 11.350 L 20.010 11.820 19.984 12.353 C 19.913 13.807,19.483 15.154,18.709 16.351 L 18.522 16.640 17.564 16.640 L 16.605 16.640 15.946 15.728 L 15.286 14.816 15.797 13.238 L 16.309 11.660 17.464 11.274 C 18.100 11.062,18.642 10.886,18.669 10.884 C 18.695 10.882,19.008 11.092,19.364 11.350 M14.359 16.948 L 15.049 17.896 14.775 18.749 L 14.500 19.602 14.234 19.681 C 12.824 20.104,11.200 20.103,9.760 19.679 L 9.500 19.602 9.226 18.749 L 8.951 17.896 9.641 16.948 L 10.331 16.000 12.000 16.000 L 13.669 16.000 14.359 16.948 " stroke="none" fill-rule="evenodd" fill="black"></path></svg>