<svg viewBox="0 0 24 24" xmlns="http://www.w3.org/2000/svg"><path d="M11.120 2.042 C 6.664 2.449,3.034 5.724,2.185 10.103 C 1.632 12.960,2.334 15.848,4.153 18.200 C 4.490 18.635,5.362 19.506,5.800 19.845 C 8.237 21.731,11.182 22.402,14.193 21.756 C 15.421 21.493,16.936 20.801,17.940 20.045 C 18.550 19.586,19.464 18.721,19.672 18.407 C 19.733 18.315,19.692 18.272,16.577 15.157 L 13.420 12.000 16.577 8.843 C 19.694 5.725,19.733 5.685,19.672 5.593 C 19.540 5.396,18.921 4.768,18.500 4.408 C 16.475 2.672,13.758 1.801,11.120 2.042 M12.520 5.099 C 12.917 5.239,13.243 5.570,13.402 5.994 C 13.533 6.343,13.503 6.814,13.329 7.169 C 13.175 7.480,12.924 7.722,12.600 7.873 C 12.413 7.961,12.324 7.976,12.000 7.976 C 11.676 7.976,11.587 7.961,11.400 7.873 C 11.076 7.722,10.825 7.480,10.671 7.169 C 10.495 6.811,10.467 6.343,10.600 5.989 C 10.834 5.364,11.429 4.973,12.080 5.018 C 12.223 5.028,12.421 5.064,12.520 5.099 " stroke="none" fill-rule="evenodd" fill="black"></path></svg>