<svg viewBox="0 0 24 24" xmlns="http://www.w3.org/2000/svg"><path d="M5.675 6.560 C 3.980 6.828,2.505 7.869,1.652 9.400 C 1.457 9.749,1.244 10.325,1.129 10.811 C 1.036 11.207,1.023 11.345,1.022 11.980 C 1.021 12.537,1.038 12.777,1.095 13.040 C 1.341 14.165,1.800 15.034,2.567 15.823 C 3.521 16.805,4.669 17.349,6.059 17.479 C 7.280 17.593,8.657 17.216,9.680 16.488 C 9.942 16.301,10.640 15.654,10.640 15.598 C 10.640 15.582,10.503 15.355,10.336 15.094 C 10.169 14.833,9.923 14.424,9.788 14.184 C 9.547 13.754,9.543 13.750,9.482 13.843 C 8.476 15.379,6.586 15.922,4.973 15.139 C 4.250 14.788,3.708 14.238,3.358 13.500 C 3.091 12.936,3.020 12.616,3.022 11.980 C 3.024 11.571,3.044 11.388,3.115 11.120 C 3.458 9.832,4.505 8.839,5.796 8.578 C 6.217 8.493,7.122 8.515,7.520 8.621 C 8.083 8.770,8.630 9.082,9.092 9.517 C 9.688 10.079,10.112 10.697,11.111 12.463 C 12.089 14.192,12.402 14.672,13.018 15.389 C 13.946 16.469,15.007 17.120,16.261 17.379 C 17.010 17.534,17.908 17.535,18.634 17.382 C 20.419 17.005,21.942 15.716,22.618 14.009 C 22.699 13.805,22.812 13.436,22.870 13.189 C 22.962 12.795,22.975 12.651,22.977 12.020 C 22.979 11.460,22.963 11.225,22.905 10.960 C 22.650 9.792,22.183 8.932,21.364 8.119 C 20.555 7.315,19.696 6.848,18.600 6.613 C 18.124 6.511,16.881 6.510,16.414 6.610 C 15.361 6.838,14.482 7.298,13.731 8.015 C 13.527 8.210,13.360 8.384,13.360 8.401 C 13.360 8.418,13.497 8.645,13.664 8.906 C 13.831 9.167,14.077 9.576,14.212 9.816 C 14.454 10.247,14.457 10.250,14.518 10.156 C 14.706 9.867,15.095 9.438,15.340 9.250 C 15.667 8.999,16.230 8.715,16.600 8.614 C 16.978 8.510,17.992 8.511,18.380 8.615 C 19.049 8.795,19.799 9.277,20.210 9.792 C 20.470 10.119,20.734 10.630,20.864 11.060 C 20.960 11.380,20.972 11.484,20.972 12.000 C 20.972 12.516,20.960 12.620,20.864 12.940 C 20.355 14.627,18.818 15.658,17.080 15.478 C 16.139 15.380,15.401 15.011,14.724 14.299 C 14.171 13.717,13.787 13.136,12.810 11.400 C 12.481 10.817,12.133 10.214,12.036 10.059 C 10.761 8.029,9.535 7.038,7.800 6.633 C 7.414 6.543,6.075 6.497,5.675 6.560 " stroke="none" fill-rule="evenodd" fill="black"></path></svg>