<svg viewBox="0 0 24 24" xmlns="http://www.w3.org/2000/svg"><path d="M14.259 7.601 L 10.297 11.563 9.999 11.425 C 8.489 10.732,6.661 10.899,5.185 11.867 C 4.782 12.132,4.098 12.826,3.823 13.249 C 2.976 14.552,2.774 16.122,3.262 17.594 C 3.741 19.036,4.931 20.230,6.376 20.719 C 6.991 20.927,7.319 20.978,8.020 20.975 C 8.713 20.972,8.982 20.929,9.606 20.720 C 11.049 20.237,12.201 19.094,12.711 17.640 C 12.924 17.033,12.979 16.689,12.978 15.960 C 12.977 15.378,12.964 15.249,12.868 14.867 C 12.809 14.629,12.691 14.266,12.606 14.061 L 12.453 13.687 13.946 12.194 L 15.440 10.700 16.500 11.760 L 17.560 12.820 19.320 11.060 L 21.080 9.300 20.022 8.240 L 18.965 7.180 19.666 6.464 L 20.368 5.748 19.314 4.694 C 18.735 4.114,18.251 3.640,18.240 3.640 C 18.229 3.640,16.437 5.423,14.259 7.601 M8.647 14.082 C 9.167 14.258,9.586 14.635,9.832 15.151 C 9.979 15.458,9.980 15.463,9.980 15.980 C 9.980 16.498,9.979 16.501,9.830 16.813 C 9.486 17.535,8.813 17.960,8.017 17.960 C 6.508 17.960,5.576 16.392,6.270 15.021 C 6.471 14.623,6.984 14.207,7.460 14.056 C 7.724 13.972,8.362 13.986,8.647 14.082 " stroke="none" fill-rule="evenodd" fill="black"></path></svg>