<svg viewBox="0 0 24 24" xmlns="http://www.w3.org/2000/svg"><path d="M14.675 7.905 L 10.770 11.810 10.235 11.546 C 9.401 11.133,8.618 10.965,7.743 11.012 C 6.433 11.083,5.320 11.594,4.400 12.545 C 2.094 14.928,2.724 18.861,5.661 20.406 C 7.447 21.347,9.554 21.138,11.144 19.863 C 13.059 18.328,13.552 15.565,12.292 13.430 L 12.180 13.241 13.270 12.151 L 14.360 11.060 15.420 12.120 L 16.480 13.180 17.190 12.470 L 17.900 11.760 16.840 10.700 L 15.780 9.640 16.490 8.930 L 17.200 8.220 18.440 9.460 L 19.680 10.699 20.380 10.000 L 21.080 9.301 19.840 8.060 L 18.600 6.820 19.310 6.110 L 20.019 5.400 19.320 4.700 C 18.936 4.315,18.612 4.000,18.600 4.000 C 18.589 4.000,16.823 5.757,14.675 7.905 M8.784 13.039 C 8.958 13.083,9.253 13.195,9.440 13.288 C 9.716 13.425,9.851 13.528,10.161 13.839 C 10.472 14.149,10.575 14.284,10.712 14.560 C 10.941 15.020,11.040 15.434,11.040 15.929 C 11.040 16.416,10.957 16.802,10.762 17.220 C 10.395 18.009,9.651 18.632,8.800 18.865 C 8.440 18.964,7.637 18.966,7.280 18.870 C 6.255 18.592,5.414 17.748,5.135 16.720 C 5.047 16.393,5.036 15.597,5.115 15.280 C 5.259 14.704,5.546 14.219,5.995 13.790 C 6.593 13.218,7.214 12.970,8.064 12.963 C 8.343 12.961,8.565 12.985,8.784 13.039 " stroke="none" fill-rule="evenodd" fill="black"></path></svg>