<svg viewBox="0 0 24 24" xmlns="http://www.w3.org/2000/svg"><path d="M11.420 2.023 C 11.354 2.032,11.129 2.060,10.920 2.084 C 9.901 2.201,8.732 2.620,7.790 3.204 C 7.086 3.640,6.289 4.340,5.789 4.959 C 3.837 7.379,3.453 10.683,4.800 13.471 C 5.222 14.347,5.561 14.817,6.417 15.718 C 7.286 16.633,7.693 17.207,7.866 17.761 L 7.940 17.999 9.470 18.000 L 11.000 18.000 11.000 15.500 L 11.000 13.000 12.000 13.000 L 13.000 13.000 13.000 15.500 L 13.000 18.000 14.530 18.000 L 16.060 17.999 16.134 17.761 C 16.307 17.207,16.714 16.633,17.583 15.718 C 18.439 14.817,18.778 14.347,19.200 13.471 C 20.265 11.268,20.264 8.737,19.199 6.526 C 18.775 5.647,18.263 4.942,17.553 4.259 C 16.332 3.084,14.866 2.354,13.218 2.099 C 12.829 2.039,11.659 1.989,11.420 2.023 M8.000 20.598 C 8.000 20.927,8.020 21.291,8.044 21.408 C 8.201 22.158,8.842 22.799,9.592 22.956 C 9.884 23.017,14.116 23.017,14.408 22.956 C 15.158 22.799,15.799 22.158,15.956 21.408 C 15.980 21.291,16.000 20.927,16.000 20.598 L 16.000 20.000 12.000 20.000 L 8.000 20.000 8.000 20.598 " stroke="none" fill-rule="evenodd" fill="black"></path></svg>