<svg viewBox="0 0 24 24" xmlns="http://www.w3.org/2000/svg"><path d="M2.664 3.063 C 2.436 3.146,2.257 3.297,2.131 3.511 L 2.020 3.700 2.009 7.413 C 2.002 9.838,2.012 11.178,2.039 11.277 C 2.099 11.498,2.290 11.739,2.508 11.867 L 2.700 11.980 3.849 11.992 L 4.999 12.004 5.009 16.152 L 5.020 20.300 5.131 20.489 C 5.256 20.702,5.449 20.864,5.670 20.943 C 5.793 20.987,6.939 20.997,11.983 20.998 C 18.905 21.000,18.379 21.024,18.701 20.701 C 19.017 20.385,19.000 20.654,19.000 16.073 L 19.000 12.000 20.073 12.000 C 21.308 12.000,21.423 11.979,21.701 11.701 C 22.015 11.387,22.000 11.604,22.000 7.500 C 22.000 3.391,22.016 3.614,21.697 3.295 C 21.393 2.991,21.508 3.000,18.060 3.000 L 15.014 3.000 14.967 3.353 C 14.942 3.548,14.885 3.809,14.842 3.933 C 14.561 4.750,13.907 5.458,13.150 5.767 C 12.017 6.228,10.766 5.984,9.903 5.132 C 9.390 4.627,9.090 3.995,9.016 3.270 L 8.989 3.000 5.904 3.003 C 3.332 3.005,2.794 3.015,2.664 3.063 " stroke="none" fill-rule="evenodd" fill="black"></path></svg>