<svg viewBox="0 0 24 24" xmlns="http://www.w3.org/2000/svg"><path d="M5.740 2.203 C 5.638 2.253,4.762 3.099,3.329 4.531 C 1.265 6.594,1.072 6.798,0.995 7.000 C 0.900 7.252,0.910 7.543,1.020 7.765 C 1.057 7.839,1.968 8.782,3.043 9.860 L 4.999 11.820 5.010 16.560 L 5.020 21.300 5.131 21.489 C 5.256 21.702,5.449 21.864,5.670 21.943 C 5.793 21.987,6.939 21.997,11.983 21.998 C 18.905 22.000,18.379 22.024,18.701 21.701 C 19.020 21.382,19.000 21.725,19.000 16.483 L 19.000 11.821 20.977 9.841 C 22.878 7.936,22.956 7.852,23.017 7.643 C 23.096 7.372,23.096 7.308,23.017 7.037 C 22.955 6.828,22.872 6.739,20.707 4.567 C 19.095 2.951,18.407 2.287,18.271 2.217 C 18.027 2.091,17.661 2.085,17.400 2.203 C 17.267 2.263,16.866 2.637,15.859 3.642 L 14.498 5.000 12.001 5.000 L 9.503 5.000 8.141 3.642 C 7.138 2.642,6.733 2.264,6.600 2.203 C 6.358 2.094,5.960 2.093,5.740 2.203 M12.000 7.000 L 15.340 7.000 16.580 5.760 L 17.820 4.520 19.230 5.930 L 20.640 7.340 18.820 9.160 L 17.000 10.980 17.000 15.490 L 17.000 20.000 12.000 20.000 L 7.000 20.000 7.000 15.510 L 7.000 11.020 5.170 9.190 L 3.340 7.360 4.760 5.940 L 6.180 4.520 7.420 5.760 L 8.660 7.000 12.000 7.000 " stroke="none" fill-rule="evenodd" fill="black"></path></svg>