<svg viewBox="0 0 24 24" xmlns="http://www.w3.org/2000/svg"><path d="M11.420 2.063 C 10.459 2.252,9.608 2.947,9.237 3.846 C 8.940 4.567,8.926 5.293,9.196 6.057 C 9.332 6.445,9.518 6.718,9.925 7.128 L 10.310 7.516 10.091 7.688 C 9.622 8.057,9.234 8.684,9.082 9.321 C 9.005 9.641,9.001 9.786,9.000 11.972 C 9.000 14.497,9.009 14.619,9.236 15.163 C 9.531 15.867,10.149 16.481,10.849 16.766 C 11.406 16.993,11.503 17.000,14.073 17.000 L 16.428 17.000 17.741 19.190 C 18.462 20.395,19.074 21.411,19.099 21.448 C 19.140 21.510,19.232 21.465,19.983 21.014 C 20.443 20.738,20.827 20.505,20.836 20.497 C 20.845 20.488,20.224 19.432,19.456 18.151 C 17.901 15.553,17.840 15.470,17.312 15.220 C 16.910 15.029,16.709 15.000,15.795 15.000 L 15.000 15.000 15.000 12.358 C 15.000 9.493,14.995 9.417,14.775 8.877 C 14.615 8.481,14.363 8.126,14.015 7.804 L 13.696 7.509 14.078 7.125 C 14.482 6.718,14.668 6.445,14.804 6.057 C 15.074 5.293,15.060 4.567,14.763 3.846 C 14.227 2.547,12.807 1.790,11.420 2.063 M12.473 4.129 C 13.162 4.483,13.155 5.521,12.460 5.878 C 12.169 6.028,11.774 6.023,11.508 5.867 C 10.602 5.334,11.011 3.945,12.054 4.017 C 12.194 4.027,12.362 4.071,12.473 4.129 M12.316 9.063 C 12.462 9.106,12.581 9.179,12.701 9.299 C 13.006 9.604,13.000 9.542,13.000 12.451 L 13.000 15.007 12.350 14.993 C 11.721 14.980,11.694 14.976,11.508 14.867 C 11.289 14.739,11.099 14.498,11.039 14.275 C 11.012 14.176,11.001 13.337,11.009 11.911 L 11.020 9.700 11.131 9.511 C 11.383 9.083,11.823 8.916,12.316 9.063 M7.378 10.616 C 6.746 10.929,6.257 11.271,5.799 11.720 C 4.584 12.914,3.940 14.542,4.014 16.240 C 4.121 18.720,5.697 20.843,8.037 21.657 C 8.762 21.909,9.160 21.974,10.000 21.975 C 10.613 21.975,10.809 21.961,11.144 21.888 C 13.066 21.473,14.583 20.299,15.394 18.600 C 15.504 18.369,15.606 18.140,15.620 18.090 L 15.645 18.000 14.553 18.000 L 13.460 18.001 13.301 18.248 C 13.213 18.384,13.006 18.633,12.841 18.802 C 11.347 20.322,8.960 20.396,7.331 18.973 C 6.798 18.507,6.305 17.683,6.115 16.940 C 5.986 16.437,5.986 15.583,6.114 15.062 C 6.214 14.657,6.469 14.092,6.721 13.715 C 6.936 13.395,7.475 12.864,7.773 12.680 L 7.999 12.540 7.999 11.450 C 8.000 10.579,7.989 10.360,7.948 10.360 C 7.919 10.360,7.662 10.475,7.378 10.616 " stroke="none" fill-rule="evenodd" fill="black"></path></svg>