<svg viewBox="0 0 24 24" xmlns="http://www.w3.org/2000/svg"><path d="M11.577 2.601 C 11.488 2.645,11.358 2.739,11.290 2.811 C 11.174 2.931,1.785 19.139,1.576 19.580 C 1.321 20.117,1.626 20.801,2.191 20.958 C 2.399 21.016,21.601 21.016,21.809 20.958 C 22.200 20.850,22.521 20.419,22.519 20.005 C 22.519 19.873,22.488 19.714,22.445 19.620 C 22.272 19.244,12.822 2.928,12.709 2.810 C 12.430 2.519,11.929 2.427,11.577 2.601 M15.895 12.244 C 18.026 15.940,19.762 18.972,19.751 18.982 C 19.741 18.992,16.242 18.996,11.976 18.990 L 4.219 18.980 8.099 12.252 C 10.234 8.551,11.989 5.524,12.000 5.524 C 12.011 5.524,13.764 8.548,15.895 12.244 M11.000 11.500 L 11.000 14.000 12.000 14.000 L 13.000 14.000 13.000 11.500 L 13.000 9.000 12.000 9.000 L 11.000 9.000 11.000 11.500 M11.000 17.000 L 11.000 18.000 12.000 18.000 L 13.000 18.000 13.000 17.000 L 13.000 16.000 12.000 16.000 L 11.000 16.000 11.000 17.000 " stroke="none" fill-rule="evenodd" fill="black"></path></svg>