<svg viewBox="0 0 24 24" xmlns="http://www.w3.org/2000/svg"><path d="M11.040 3.045 C 10.157 3.117,9.025 3.372,8.133 3.702 C 7.522 3.927,6.585 4.406,5.996 4.793 C 3.942 6.144,2.417 8.087,1.619 10.367 C 1.429 10.908,1.200 11.802,1.200 12.000 C 1.200 12.198,1.429 13.092,1.619 13.633 C 2.369 15.778,3.799 17.670,5.665 18.988 C 9.736 21.864,15.253 21.630,19.075 18.419 C 19.524 18.042,20.311 17.230,20.645 16.800 C 21.415 15.806,21.983 14.771,22.381 13.633 C 22.571 13.092,22.800 12.198,22.800 12.000 C 22.800 11.802,22.571 10.908,22.381 10.367 C 21.207 7.012,18.439 4.406,15.007 3.423 C 13.779 3.071,12.372 2.937,11.040 3.045 M12.700 5.042 C 14.104 5.162,15.296 5.529,16.467 6.201 C 18.398 7.309,19.817 9.042,20.544 11.180 C 20.798 11.926,20.799 12.068,20.550 12.808 C 19.766 15.139,18.123 17.020,15.942 18.082 C 13.432 19.304,10.565 19.304,8.060 18.082 C 5.877 17.017,4.226 15.130,3.460 12.824 C 3.207 12.064,3.203 11.999,3.374 11.440 C 3.961 9.521,5.105 7.904,6.700 6.741 C 7.944 5.835,9.451 5.242,10.920 5.081 C 11.720 4.994,12.053 4.987,12.700 5.042 M11.173 7.579 C 10.328 7.733,9.438 8.203,8.815 8.827 C 7.069 10.573,7.072 13.430,8.821 15.179 C 10.381 16.739,12.890 16.935,14.645 15.634 C 16.439 14.304,17.001 11.969,16.011 9.964 C 15.414 8.756,14.148 7.814,12.805 7.579 C 12.398 7.508,11.567 7.508,11.173 7.579 M12.592 9.581 C 13.482 9.790,14.210 10.519,14.420 11.410 C 14.547 11.948,14.475 12.605,14.237 13.095 C 13.810 13.969,12.981 14.485,12.000 14.485 C 11.019 14.485,10.190 13.969,9.763 13.095 C 9.437 12.424,9.436 11.566,9.763 10.908 C 10.095 10.238,10.693 9.752,11.392 9.582 C 11.697 9.508,12.281 9.507,12.592 9.581 " stroke="none" fill-rule="evenodd" fill="black"></path></svg>