<svg viewBox="0 0 24 24" xmlns="http://www.w3.org/2000/svg"><path d="M2.110 2.110 L 1.400 2.821 2.958 4.378 L 4.515 5.935 4.043 6.424 C 2.808 7.701,1.926 9.242,1.417 11.012 C 1.182 11.825,1.168 11.970,1.276 12.450 C 1.396 12.986,1.703 13.912,1.937 14.444 C 2.720 16.224,4.054 17.850,5.665 18.988 C 8.193 20.774,11.342 21.404,14.400 20.735 C 15.499 20.495,16.853 19.945,17.790 19.357 C 17.877 19.303,17.937 19.357,19.530 20.950 L 21.181 22.600 21.890 21.890 L 22.600 21.180 12.710 11.290 L 2.820 1.400 2.110 2.110 M11.096 3.041 C 10.606 3.082,9.947 3.186,9.453 3.302 C 8.994 3.409,8.053 3.707,8.024 3.754 C 8.013 3.771,8.352 4.133,8.777 4.557 L 9.550 5.329 9.907 5.247 C 10.649 5.077,11.146 5.023,12.000 5.023 C 12.581 5.023,12.954 5.044,13.280 5.094 C 16.690 5.614,19.444 7.921,20.546 11.180 C 20.798 11.926,20.798 12.069,20.550 12.808 C 20.331 13.461,19.986 14.196,19.647 14.736 C 19.511 14.952,19.400 15.140,19.400 15.155 C 19.400 15.169,19.716 15.496,20.103 15.880 L 20.806 16.580 20.913 16.447 C 21.312 15.949,22.009 14.653,22.299 13.867 C 22.484 13.365,22.710 12.579,22.770 12.231 C 22.811 11.990,22.806 11.916,22.724 11.550 C 22.604 11.014,22.297 10.088,22.063 9.556 C 20.764 6.604,18.135 4.318,15.007 3.423 C 13.800 3.077,12.365 2.937,11.096 3.041 M8.009 9.928 C 7.661 10.620,7.506 11.256,7.508 11.980 C 7.509 12.567,7.562 12.894,7.744 13.440 C 8.173 14.726,9.187 15.768,10.449 16.219 C 11.028 16.426,11.390 16.490,11.980 16.492 C 12.752 16.493,13.490 16.313,14.129 15.966 L 14.399 15.820 15.399 16.820 C 15.950 17.370,16.400 17.830,16.400 17.844 C 16.400 17.894,15.362 18.356,14.900 18.511 C 13.850 18.865,13.145 18.978,12.000 18.978 C 11.117 18.978,10.667 18.930,9.960 18.761 C 7.381 18.144,5.243 16.486,4.027 14.160 C 3.586 13.317,3.206 12.187,3.257 11.871 C 3.310 11.541,3.654 10.595,3.917 10.060 C 4.068 9.752,4.335 9.284,4.511 9.020 C 4.848 8.513,5.484 7.745,5.768 7.502 L 5.937 7.357 7.056 8.477 L 8.175 9.596 8.009 9.928 M14.099 9.875 C 16.009 11.788,16.465 12.226,16.494 12.173 C 16.543 12.085,16.460 11.293,16.362 10.908 C 16.036 9.632,15.196 8.585,14.021 7.991 C 13.404 7.680,12.958 7.564,12.260 7.534 L 11.740 7.512 14.099 9.875 M11.298 12.718 C 12.177 13.598,12.887 14.326,12.876 14.337 C 12.806 14.407,12.294 14.492,11.960 14.490 C 10.931 14.482,10.043 13.855,9.653 12.860 C 9.554 12.605,9.544 12.531,9.542 12.040 C 9.540 11.542,9.601 11.120,9.675 11.120 C 9.689 11.120,10.419 11.839,11.298 12.718 " stroke="none" fill-rule="evenodd" fill="black"></path></svg>