<svg viewBox="0 0 24 24" xmlns="http://www.w3.org/2000/svg"><path d="M1.610 6.889 C 1.125 6.982,1.147 6.928,1.318 7.621 C 1.671 9.054,2.302 10.394,3.163 11.543 C 3.326 11.760,3.476 11.964,3.495 11.994 C 3.520 12.035,3.250 12.329,2.465 13.115 L 1.400 14.181 2.110 14.890 L 2.821 15.600 3.880 14.540 C 4.463 13.956,4.958 13.486,4.980 13.495 C 5.002 13.503,5.212 13.655,5.447 13.832 C 6.131 14.347,7.002 14.840,7.832 15.180 C 8.036 15.264,8.196 15.352,8.187 15.376 C 8.178 15.400,8.043 15.897,7.887 16.480 C 7.732 17.063,7.560 17.704,7.507 17.905 L 7.409 18.269 8.364 18.521 C 8.890 18.660,9.328 18.766,9.337 18.757 C 9.346 18.747,9.527 18.092,9.740 17.300 C 9.953 16.508,10.130 15.857,10.134 15.853 C 10.138 15.849,10.330 15.874,10.561 15.910 C 11.146 16.001,12.854 16.001,13.439 15.910 C 13.670 15.874,13.862 15.849,13.866 15.853 C 13.870 15.857,14.047 16.508,14.260 17.300 C 14.473 18.092,14.654 18.747,14.663 18.757 C 14.672 18.766,15.110 18.660,15.636 18.521 L 16.591 18.269 16.493 17.905 C 16.440 17.704,16.268 17.063,16.113 16.480 C 15.957 15.897,15.822 15.400,15.813 15.376 C 15.804 15.352,15.964 15.264,16.168 15.180 C 16.997 14.840,17.837 14.365,18.540 13.840 C 18.782 13.659,18.998 13.504,19.020 13.495 C 19.042 13.486,19.537 13.956,20.120 14.540 L 21.179 15.600 21.890 14.890 L 22.600 14.181 21.535 13.115 C 20.750 12.329,20.480 12.035,20.505 11.994 C 20.524 11.964,20.674 11.760,20.837 11.543 C 21.709 10.380,22.346 9.014,22.702 7.545 C 22.849 6.936,22.873 6.983,22.370 6.888 L 21.940 6.806 21.440 7.137 C 19.804 8.218,18.097 8.983,16.256 9.459 C 11.581 10.668,6.568 9.822,2.587 7.153 C 2.326 6.978,2.091 6.829,2.066 6.822 C 2.041 6.815,1.836 6.845,1.610 6.889 " stroke="none" fill-rule="evenodd" fill="black"></path></svg>