<svg viewBox="0 0 24 24" xmlns="http://www.w3.org/2000/svg"><path d="M6.230 1.230 L 5.520 1.940 6.550 2.970 L 7.579 4.000 5.290 4.000 L 3.000 4.000 3.000 5.000 L 3.000 6.000 3.500 6.000 L 4.000 6.000 7.000 10.500 L 10.000 15.000 10.000 18.500 L 10.000 22.000 12.000 22.000 L 14.000 22.000 14.000 18.500 L 14.000 14.999 14.885 13.670 C 15.372 12.938,15.786 12.322,15.806 12.301 C 15.828 12.277,16.563 12.983,17.751 14.171 L 19.661 16.080 20.370 15.370 L 21.080 14.660 14.010 7.590 L 6.940 0.520 6.230 1.230 M15.640 6.420 C 16.971 7.751,18.070 8.840,18.083 8.840 C 18.096 8.840,18.533 8.201,19.054 7.420 L 20.000 6.000 20.500 6.000 L 21.000 6.000 21.000 5.000 L 21.000 4.000 17.110 4.000 L 13.220 4.000 15.640 6.420 " stroke="none" fill-rule="evenodd" fill="black"></path></svg>