<svg viewBox="0 0 24 24" xmlns="http://www.w3.org/2000/svg"><path d="M3.000 5.000 L 3.000 6.000 3.500 6.000 L 4.000 6.000 6.500 9.750 L 9.000 13.500 9.000 17.750 L 9.000 22.000 12.000 22.000 L 15.000 22.000 15.000 17.750 L 15.000 13.500 17.500 9.750 L 20.000 6.000 20.500 6.000 L 21.000 6.000 21.000 5.000 L 21.000 4.000 12.000 4.000 L 3.000 4.000 3.000 5.000 M15.300 9.450 L 13.000 12.900 13.000 16.450 L 13.000 20.000 12.000 20.000 L 11.000 20.000 11.000 16.450 L 11.000 12.900 8.700 9.450 L 6.400 6.000 12.000 6.000 L 17.600 6.000 15.300 9.450 " stroke="none" fill-rule="evenodd" fill="black"></path></svg>