<svg viewBox="0 0 24 24" xmlns="http://www.w3.org/2000/svg"><path d="M11.120 2.039 C 8.641 2.287,6.414 3.362,4.761 5.107 C 1.806 8.228,1.158 12.819,3.137 16.623 C 3.620 17.552,4.164 18.288,4.938 19.061 C 5.930 20.051,7.038 20.789,8.272 21.278 C 11.634 22.610,15.313 22.080,18.200 19.845 C 18.637 19.507,19.507 18.637,19.845 18.200 C 21.256 16.378,22.000 14.236,22.000 12.000 C 22.000 7.432,18.842 3.387,14.430 2.303 C 13.446 2.062,12.028 1.948,11.120 2.039 M12.717 11.297 L 16.894 15.474 16.717 15.706 C 16.486 16.008,15.990 16.505,15.702 16.722 L 15.474 16.894 11.290 12.710 L 7.106 8.526 7.272 8.311 C 7.505 8.008,7.892 7.614,8.218 7.347 C 8.371 7.222,8.506 7.120,8.518 7.120 C 8.530 7.120,10.420 9.000,12.717 11.297 " stroke="none" fill-rule="evenodd" fill="black"></path></svg>