<svg viewBox="0 0 24 24" xmlns="http://www.w3.org/2000/svg"><path d="M11.120 2.039 C 8.641 2.287,6.414 3.362,4.761 5.107 C 1.806 8.228,1.158 12.819,3.137 16.623 C 3.620 17.552,4.164 18.288,4.938 19.061 C 5.930 20.051,7.038 20.789,8.272 21.278 C 11.634 22.610,15.313 22.080,18.200 19.845 C 18.637 19.507,19.507 18.637,19.845 18.200 C 21.256 16.378,22.000 14.236,22.000 12.000 C 22.000 7.432,18.842 3.387,14.430 2.303 C 13.446 2.062,12.028 1.948,11.120 2.039 M12.740 4.041 C 15.525 4.302,17.953 5.983,19.182 8.500 C 20.655 11.514,20.091 15.104,17.765 17.530 C 16.248 19.111,14.175 19.999,12.000 19.999 C 8.235 19.999,4.948 17.331,4.177 13.648 C 3.426 10.057,5.201 6.431,8.501 4.817 C 9.822 4.170,11.277 3.904,12.740 4.041 M11.283 11.297 L 7.106 15.474 7.283 15.706 C 7.510 16.002,7.998 16.490,8.294 16.717 L 8.526 16.894 12.710 12.710 L 16.894 8.526 16.718 8.297 C 16.620 8.171,16.433 7.957,16.300 7.821 C 16.068 7.583,15.528 7.120,15.482 7.120 C 15.470 7.120,13.580 9.000,11.283 11.297 " stroke="none" fill-rule="evenodd" fill="black"></path></svg>