<svg viewBox="0 0 24 24" xmlns="http://www.w3.org/2000/svg"><path d="M4.000 4.232 L 4.000 6.463 7.220 9.222 C 8.990 10.739,10.439 11.990,10.440 12.002 C 10.440 12.014,8.991 13.265,7.220 14.782 L 4.001 17.540 4.000 19.770 L 4.000 22.000 12.000 22.000 L 20.000 22.000 20.000 19.770 L 19.999 17.540 16.780 14.782 C 15.009 13.265,13.560 12.014,13.560 12.002 C 13.561 11.990,15.010 10.739,16.780 9.222 L 20.000 6.463 20.000 4.232 L 20.000 2.000 12.000 2.000 L 4.000 2.000 4.000 4.232 M18.000 4.772 L 18.000 5.545 17.150 6.272 L 16.300 7.000 12.000 7.000 L 7.700 7.000 6.850 6.272 L 6.000 5.545 6.000 4.772 L 6.000 4.000 12.000 4.000 L 18.000 4.000 18.000 4.772 M15.013 15.900 L 17.999 18.460 18.000 19.230 L 18.000 20.000 17.496 20.000 L 16.993 20.000 14.496 18.502 L 12.000 17.004 9.504 18.502 L 7.007 20.000 6.503 20.000 L 5.998 20.000 6.009 19.223 L 6.020 18.446 9.000 15.886 C 10.639 14.478,11.990 13.330,12.003 13.333 C 12.016 13.337,13.370 14.492,15.013 15.900 " stroke="none" fill-rule="evenodd" fill="black"></path></svg>