<svg viewBox="0 0 24 24" xmlns="http://www.w3.org/2000/svg"><path d="M12.000 3.987 L 12.000 4.985 12.550 5.033 C 13.485 5.114,14.205 5.305,14.980 5.676 C 16.467 6.387,17.561 7.469,18.282 8.940 C 18.691 9.774,18.882 10.475,18.967 11.450 L 19.015 12.000 20.007 12.000 L 21.000 12.000 21.000 11.750 C 21.000 11.398,20.897 10.557,20.797 10.092 C 20.589 9.126,20.090 7.929,19.560 7.120 C 18.646 5.727,17.420 4.643,15.944 3.923 C 14.812 3.370,13.755 3.096,12.450 3.016 L 12.000 2.989 12.000 3.987 " stroke="none" fill-rule="evenodd" fill="black"></path></svg>