<svg viewBox="0 0 24 24" xmlns="http://www.w3.org/2000/svg"><path d="M11.162 3.042 C 8.032 3.344,5.289 5.244,3.918 8.058 C 3.508 8.901,3.198 9.903,3.086 10.750 L 3.053 11.000 4.060 11.000 L 5.067 11.000 5.133 10.668 C 5.564 8.471,6.992 6.639,9.020 5.677 C 10.879 4.796,13.098 4.790,14.953 5.662 C 16.611 6.442,17.878 7.802,18.537 9.508 C 18.671 9.854,18.846 10.493,18.900 10.830 L 18.927 11.000 19.937 11.000 L 20.947 11.000 20.914 10.750 C 20.802 9.907,20.488 8.892,20.082 8.060 C 18.780 5.390,16.268 3.549,13.318 3.102 C 12.803 3.025,11.670 2.993,11.162 3.042 M3.066 13.150 C 3.503 16.204,5.340 18.754,8.060 20.082 C 9.980 21.020,12.140 21.242,14.216 20.717 C 16.087 20.244,17.802 19.140,19.014 17.631 C 20.013 16.385,20.701 14.795,20.914 13.239 L 20.947 13.000 19.940 13.000 L 18.934 13.000 18.845 13.424 C 18.329 15.881,16.514 17.899,14.140 18.653 C 12.637 19.130,11.187 19.111,9.691 18.595 C 7.756 17.928,6.210 16.428,5.463 14.492 C 5.329 14.146,5.154 13.507,5.100 13.170 L 5.073 13.000 4.059 13.000 L 3.045 13.000 3.066 13.150 " stroke="none" fill-rule="evenodd" fill="black"></path></svg>