<svg viewBox="0 0 24 24" xmlns="http://www.w3.org/2000/svg"><path d="M4.664 2.063 C 4.436 2.146,4.257 2.297,4.131 2.511 L 4.020 2.700 4.009 6.850 L 3.999 11.000 6.999 11.000 L 10.000 11.000 10.000 9.500 L 10.000 8.000 12.480 9.984 C 13.844 11.075,14.960 11.982,14.960 12.000 C 14.960 12.018,13.844 12.925,12.480 14.016 L 10.000 16.000 10.000 14.500 L 10.000 13.000 6.999 13.000 L 3.999 13.000 4.009 17.150 L 4.020 21.300 4.131 21.489 C 4.192 21.592,4.301 21.723,4.374 21.778 C 4.683 22.014,4.201 22.000,11.998 22.000 C 20.023 22.000,19.377 22.025,19.701 21.701 C 20.027 21.375,20.000 22.264,20.000 12.000 C 20.000 1.736,20.027 2.625,19.701 2.299 C 19.377 1.975,20.026 2.000,11.983 2.003 C 5.871 2.005,4.797 2.014,4.664 2.063 " stroke="none" fill-rule="evenodd" fill="black"></path></svg>