<svg viewBox="0 0 24 24" xmlns="http://www.w3.org/2000/svg"><path d="M11.340 2.024 C 10.266 2.133,9.723 2.235,9.007 2.461 C 6.421 3.280,4.295 5.087,3.078 7.500 C 2.819 8.013,2.480 8.843,2.480 8.963 C 2.480 8.985,2.913 9.000,3.530 8.999 L 4.580 8.999 4.754 8.622 C 5.134 7.802,5.583 7.151,6.240 6.467 C 6.951 5.728,7.629 5.233,8.529 4.800 C 11.321 3.453,14.625 3.837,17.040 5.789 C 17.394 6.075,18.067 6.761,18.326 7.100 C 19.055 8.055,19.583 9.203,19.821 10.350 C 20.563 13.928,18.805 17.547,15.540 19.161 C 14.483 19.683,13.139 20.000,11.980 20.000 C 10.594 20.000,8.987 19.541,7.808 18.808 C 6.494 17.991,5.404 16.772,4.771 15.411 L 4.580 15.000 3.530 15.000 C 2.913 15.000,2.480 15.015,2.480 15.037 C 2.480 15.157,2.819 15.987,3.078 16.500 C 4.415 19.151,6.839 21.058,9.740 21.740 C 11.391 22.129,13.240 22.070,14.865 21.578 C 16.499 21.082,17.850 20.272,19.061 19.061 C 19.836 18.287,20.383 17.547,20.863 16.623 C 23.186 12.156,21.847 6.696,17.720 3.806 C 16.089 2.664,14.248 2.065,12.240 2.023 C 11.833 2.014,11.428 2.015,11.340 2.024 M10.000 9.500 L 10.000 11.000 5.500 11.000 L 1.000 11.000 1.000 12.000 L 1.000 13.000 5.500 13.000 L 10.000 13.000 10.000 14.500 L 10.000 16.000 12.480 14.016 C 13.844 12.925,14.960 12.018,14.960 12.000 C 14.960 11.982,13.844 11.075,12.480 9.984 L 10.000 8.000 10.000 9.500 " stroke="none" fill-rule="evenodd" fill="black"></path></svg>