<svg viewBox="0 0 24 24" xmlns="http://www.w3.org/2000/svg"><path d="M11.080 2.042 C 8.456 2.294,5.946 3.614,4.320 5.597 L 4.020 5.963 4.009 4.742 L 3.999 3.520 2.999 3.520 L 2.000 3.520 2.000 6.520 L 2.000 9.520 5.000 9.520 L 8.000 9.520 8.000 8.520 L 8.000 7.520 6.700 7.520 C 5.985 7.520,5.400 7.510,5.400 7.497 C 5.400 7.412,5.941 6.773,6.397 6.320 C 6.976 5.744,7.427 5.400,8.089 5.030 C 11.158 3.310,14.973 3.791,17.511 6.217 C 18.966 7.607,19.799 9.370,19.967 11.410 L 20.016 12.000 21.008 12.000 L 22.000 12.000 22.000 11.770 C 21.999 10.759,21.712 9.368,21.278 8.272 C 20.116 5.343,17.492 3.056,14.430 2.303 C 13.432 2.058,12.039 1.949,11.080 2.042 M2.000 12.230 C 2.001 12.937,2.183 14.075,2.422 14.865 C 2.918 16.500,3.730 17.854,4.938 19.061 C 5.715 19.837,6.454 20.383,7.377 20.863 C 10.813 22.650,14.920 22.307,18.030 19.973 C 18.575 19.564,19.273 18.899,19.680 18.403 L 19.980 18.037 19.991 19.278 L 20.001 20.520 21.001 20.520 L 22.000 20.520 22.000 17.520 L 22.000 14.520 19.000 14.520 L 16.000 14.520 16.000 15.519 L 16.000 16.519 17.295 16.529 L 18.590 16.540 18.366 16.840 C 18.077 17.225,17.424 17.901,17.040 18.211 C 15.084 19.792,12.452 20.374,10.050 19.757 C 8.572 19.377,7.325 18.653,6.257 17.554 C 4.909 16.167,4.143 14.415,4.016 12.430 L 3.989 12.000 2.995 12.000 L 2.000 12.000 2.000 12.230 " stroke="none" fill-rule="evenodd" fill="black"></path></svg>