<svg viewBox="0 0 24 24" xmlns="http://www.w3.org/2000/svg"><path d="M11.100 2.042 C 9.799 2.177,8.730 2.480,7.579 3.041 C 6.391 3.620,5.110 4.620,4.362 5.552 L 4.224 5.723 3.112 4.612 L 2.000 3.501 2.000 6.510 L 2.000 9.520 4.980 9.520 C 6.619 9.520,7.960 9.506,7.960 9.490 C 7.960 9.473,7.439 8.939,6.802 8.302 L 5.645 7.145 5.771 6.983 C 6.003 6.682,6.617 6.074,7.003 5.763 C 8.852 4.270,11.289 3.689,13.650 4.179 C 16.046 4.676,18.097 6.278,19.182 8.500 C 19.639 9.434,19.878 10.320,19.967 11.410 L 20.016 12.000 21.008 12.000 L 22.000 12.000 22.000 11.770 C 21.999 10.759,21.712 9.368,21.278 8.272 C 20.116 5.343,17.492 3.056,14.430 2.303 C 13.435 2.059,12.015 1.948,11.100 2.042 M2.000 12.230 C 2.001 12.937,2.183 14.075,2.422 14.865 C 2.918 16.500,3.730 17.854,4.938 19.061 C 5.715 19.837,6.454 20.383,7.377 20.863 C 10.277 22.371,13.686 22.375,16.612 20.872 C 17.683 20.322,18.947 19.309,19.638 18.448 L 19.776 18.277 20.888 19.388 L 22.000 20.499 22.000 17.510 L 22.000 14.520 19.010 14.520 L 16.021 14.520 17.188 15.690 L 18.356 16.860 18.195 17.060 C 18.107 17.170,17.905 17.393,17.747 17.554 C 16.269 19.070,14.369 19.913,12.260 19.988 C 10.959 20.035,9.710 19.771,8.529 19.200 C 7.718 18.809,7.120 18.392,6.464 17.761 C 4.991 16.344,4.149 14.510,4.016 12.430 L 3.989 12.000 2.995 12.000 L 2.000 12.000 2.000 12.230 " stroke="none" fill-rule="evenodd" fill="black"></path></svg>