<svg viewBox="0 0 24 24" xmlns="http://www.w3.org/2000/svg"><path d="M3.953 10.615 C 3.513 10.796,3.213 11.122,3.074 11.570 C 2.979 11.876,2.980 12.129,3.080 12.446 C 3.518 13.835,5.482 13.835,5.920 12.446 C 6.059 12.006,6.001 11.582,5.749 11.185 C 5.384 10.610,4.583 10.356,3.953 10.615 M11.533 10.575 C 11.285 10.656,11.108 10.778,10.885 11.022 C 10.623 11.309,10.511 11.601,10.511 12.000 C 10.511 12.446,10.625 12.712,10.956 13.044 C 11.288 13.375,11.554 13.489,12.000 13.489 C 12.446 13.489,12.712 13.375,13.044 13.044 C 13.375 12.712,13.489 12.446,13.489 12.000 C 13.489 11.589,13.377 11.306,13.094 11.000 C 12.780 10.661,12.527 10.546,12.062 10.532 C 11.836 10.525,11.638 10.541,11.533 10.575 M18.953 10.615 C 18.513 10.796,18.213 11.122,18.074 11.570 C 17.979 11.876,17.980 12.129,18.080 12.446 C 18.518 13.835,20.482 13.835,20.920 12.446 C 21.059 12.006,21.001 11.582,20.749 11.185 C 20.384 10.610,19.583 10.356,18.953 10.615 " stroke="none" fill-rule="evenodd" fill="black"></path></svg>