<svg viewBox="0 0 24 24" xmlns="http://www.w3.org/2000/svg"><path d="M11.600 3.061 C 11.479 3.094,11.282 3.189,11.162 3.271 C 10.131 3.975,10.363 5.544,11.554 5.920 C 11.876 6.021,12.124 6.021,12.446 5.920 C 13.607 5.554,13.867 4.017,12.890 3.302 C 12.531 3.039,12.024 2.944,11.600 3.061 M11.533 10.575 C 11.285 10.656,11.108 10.778,10.885 11.022 C 10.623 11.309,10.511 11.601,10.511 12.000 C 10.511 12.446,10.625 12.712,10.956 13.044 C 11.288 13.375,11.554 13.489,12.000 13.489 C 12.446 13.489,12.712 13.375,13.044 13.044 C 13.375 12.712,13.489 12.446,13.489 12.000 C 13.489 11.589,13.377 11.306,13.094 11.000 C 12.780 10.661,12.527 10.546,12.062 10.532 C 11.836 10.525,11.638 10.541,11.533 10.575 M11.601 18.061 C 11.038 18.220,10.630 18.675,10.523 19.265 C 10.422 19.823,10.699 20.441,11.191 20.753 C 11.582 21.001,12.008 21.058,12.446 20.920 C 13.607 20.554,13.867 19.017,12.890 18.302 C 12.530 18.038,12.022 17.943,11.601 18.061 " stroke="none" fill-rule="evenodd" fill="black"></path></svg>