<svg viewBox="0 0 24 24" xmlns="http://www.w3.org/2000/svg"><path d="M11.280 2.024 C 10.135 2.127,9.102 2.376,8.132 2.782 C 6.528 3.454,5.049 4.606,4.023 5.980 C 3.554 6.609,3.352 6.940,3.020 7.620 C 2.383 8.929,2.066 10.196,2.013 11.640 C 1.926 14.017,2.662 16.272,4.153 18.200 C 4.490 18.635,5.362 19.506,5.800 19.845 C 8.483 21.921,11.882 22.537,15.053 21.520 C 16.585 21.029,17.902 20.222,19.062 19.062 C 20.026 18.098,20.704 17.093,21.216 15.872 C 21.698 14.721,21.939 13.624,21.986 12.360 C 22.152 7.969,19.427 3.999,15.249 2.545 C 14.296 2.213,13.319 2.045,12.220 2.023 C 11.802 2.015,11.379 2.015,11.280 2.024 M12.783 4.043 C 14.051 4.168,15.318 4.613,16.372 5.304 C 16.889 5.643,17.131 5.839,17.594 6.293 C 18.289 6.975,18.753 7.618,19.186 8.500 C 20.268 10.705,20.267 13.298,19.183 15.500 C 18.942 15.990,18.391 16.880,18.329 16.880 C 18.291 16.880,7.120 5.709,7.120 5.672 C 7.120 5.609,8.010 5.058,8.500 4.817 C 9.830 4.162,11.299 3.897,12.783 4.043 M11.290 12.710 C 14.364 15.784,16.880 18.312,16.880 18.328 C 16.880 18.391,15.982 18.951,15.508 19.182 C 13.587 20.120,11.487 20.257,9.446 19.578 C 8.234 19.175,7.207 18.529,6.293 17.595 C 5.632 16.920,5.265 16.403,4.837 15.541 C 3.567 12.990,3.757 9.975,5.339 7.580 C 5.506 7.327,5.656 7.120,5.671 7.120 C 5.687 7.120,8.215 9.635,11.290 12.710 " stroke="none" fill-rule="evenodd" fill="black"></path></svg>