<svg viewBox="0 0 24 24" xmlns="http://www.w3.org/2000/svg"><path d="M11.120 2.039 C 8.641 2.287,6.414 3.362,4.761 5.107 C 1.806 8.228,1.158 12.819,3.137 16.623 C 3.620 17.552,4.164 18.288,4.938 19.061 C 5.930 20.051,7.038 20.789,8.272 21.278 C 11.634 22.610,15.313 22.080,18.200 19.845 C 18.637 19.507,19.507 18.637,19.845 18.200 C 21.256 16.378,22.000 14.236,22.000 12.000 C 22.000 7.432,18.842 3.387,14.430 2.303 C 13.446 2.062,12.028 1.948,11.120 2.039 M12.740 4.041 C 15.525 4.302,17.953 5.983,19.182 8.500 C 20.655 11.514,20.091 15.104,17.765 17.530 C 16.248 19.111,14.175 19.999,12.000 19.999 C 8.235 19.999,4.948 17.331,4.177 13.648 C 3.426 10.057,5.201 6.431,8.501 4.817 C 9.822 4.170,11.277 3.904,12.740 4.041 M11.280 6.580 C 10.809 6.675,10.315 6.901,9.882 7.218 C 9.487 7.509,9.017 8.092,8.821 8.535 C 8.717 8.770,8.551 9.285,8.573 9.306 C 8.586 9.320,10.237 9.657,10.432 9.686 C 10.512 9.698,10.535 9.671,10.595 9.493 C 10.735 9.082,11.138 8.695,11.552 8.575 C 11.879 8.480,12.364 8.514,12.646 8.651 C 12.924 8.787,13.213 9.077,13.351 9.359 C 13.449 9.557,13.460 9.624,13.460 10.000 C 13.460 10.379,13.449 10.442,13.348 10.647 C 13.203 10.943,12.835 11.286,12.548 11.394 C 12.430 11.438,12.200 11.486,12.037 11.502 C 11.874 11.517,11.685 11.552,11.617 11.580 C 11.420 11.660,11.195 11.884,11.094 12.100 C 11.006 12.290,11.001 12.344,11.000 13.150 L 11.000 14.000 11.998 14.000 L 12.997 14.000 13.008 13.677 L 13.020 13.355 13.300 13.242 C 14.743 12.662,15.651 11.169,15.480 9.660 C 15.429 9.213,15.258 8.652,15.072 8.320 C 14.587 7.456,13.762 6.833,12.798 6.602 C 12.402 6.507,11.694 6.496,11.280 6.580 M11.000 16.000 L 11.000 17.000 12.000 17.000 L 13.000 17.000 13.000 16.000 L 13.000 15.000 12.000 15.000 L 11.000 15.000 11.000 16.000 " stroke="none" fill-rule="evenodd" fill="black"></path></svg>