<svg viewBox="0 0 24 24" xmlns="http://www.w3.org/2000/svg"><path d="M11.120 2.039 C 8.641 2.287,6.414 3.362,4.761 5.107 C 1.806 8.228,1.158 12.819,3.137 16.623 C 3.620 17.552,4.164 18.288,4.938 19.061 C 5.930 20.051,7.038 20.789,8.272 21.278 C 11.634 22.610,15.313 22.080,18.200 19.845 C 18.637 19.507,19.507 18.637,19.845 18.200 C 21.256 16.378,22.000 14.236,22.000 12.000 C 22.000 7.432,18.842 3.387,14.430 2.303 C 13.446 2.062,12.028 1.948,11.120 2.039 M12.900 6.619 C 13.276 6.722,13.914 7.052,14.207 7.295 C 16.238 8.981,15.745 12.261,13.313 13.237 L 13.020 13.355 13.008 13.677 L 12.997 14.000 11.996 14.000 L 10.995 14.000 11.007 13.110 C 11.019 12.288,11.027 12.208,11.106 12.060 C 11.296 11.708,11.529 11.568,12.036 11.502 C 12.550 11.436,12.801 11.316,13.094 11.000 C 13.377 10.694,13.488 10.411,13.489 10.000 C 13.489 9.365,13.092 8.796,12.507 8.594 C 12.234 8.500,11.766 8.500,11.493 8.594 C 11.097 8.731,10.713 9.119,10.582 9.515 L 10.517 9.708 9.749 9.554 C 9.326 9.470,8.887 9.381,8.773 9.358 L 8.566 9.316 8.645 9.030 C 8.981 7.819,10.026 6.846,11.280 6.578 C 11.625 6.505,12.569 6.528,12.900 6.619 M13.000 16.000 L 13.000 17.000 12.000 17.000 L 11.000 17.000 11.000 16.000 L 11.000 15.000 12.000 15.000 L 13.000 15.000 13.000 16.000 " stroke="none" fill-rule="evenodd" fill="black"></path></svg>