<svg viewBox="0 0 24 24" xmlns="http://www.w3.org/2000/svg"><path d="M11.120 2.039 C 8.641 2.287,6.414 3.362,4.761 5.107 C 1.806 8.228,1.158 12.819,3.137 16.623 C 3.620 17.552,4.164 18.288,4.938 19.061 C 5.930 20.051,7.038 20.789,8.272 21.278 C 11.634 22.610,15.313 22.080,18.200 19.845 C 18.637 19.507,19.507 18.637,19.845 18.200 C 21.256 16.378,22.000 14.236,22.000 12.000 C 22.000 7.432,18.842 3.387,14.430 2.303 C 13.446 2.062,12.028 1.948,11.120 2.039 M12.740 4.041 C 15.525 4.302,17.953 5.983,19.182 8.500 C 20.655 11.514,20.091 15.104,17.765 17.530 C 16.248 19.111,14.175 19.999,12.000 19.999 C 8.235 19.999,4.948 17.331,4.177 13.648 C 3.426 10.057,5.201 6.431,8.501 4.817 C 9.822 4.170,11.277 3.904,12.740 4.041 M11.340 7.046 C 10.849 7.108,10.317 7.273,9.820 7.517 C 8.374 8.226,7.390 9.510,7.075 11.100 C 7.002 11.468,7.002 12.532,7.075 12.900 C 7.482 14.953,9.047 16.518,11.100 16.925 C 11.468 16.998,12.532 16.998,12.900 16.925 C 14.723 16.564,16.191 15.273,16.753 13.539 C 16.940 12.961,16.980 12.680,16.978 11.960 C 16.976 11.381,16.963 11.247,16.869 10.869 C 16.678 10.104,16.374 9.473,15.926 8.912 C 14.822 7.527,13.090 6.823,11.340 7.046 " stroke="none" fill-rule="evenodd" fill="black"></path></svg>