<svg viewBox="0 0 24 24" xmlns="http://www.w3.org/2000/svg"><path d="M10.320 2.025 C 8.099 2.228,6.165 3.122,4.637 4.650 C 3.428 5.859,2.558 7.447,2.203 9.092 C 1.331 13.140,3.333 17.259,7.060 19.083 C 11.518 21.264,16.895 19.411,19.083 14.940 C 20.611 11.817,20.197 8.088,18.021 5.380 C 16.602 3.614,14.553 2.436,12.320 2.101 C 11.908 2.039,10.675 1.992,10.320 2.025 M18.760 18.780 L 18.061 19.480 19.480 20.900 L 20.899 22.320 21.610 21.610 L 22.320 20.901 20.910 19.490 C 20.135 18.715,19.491 18.080,19.480 18.080 C 19.468 18.080,19.144 18.395,18.760 18.780 " stroke="none" fill-rule="evenodd" fill="black"></path></svg>