<svg viewBox="0 0 24 24" xmlns="http://www.w3.org/2000/svg"><path d="M16.710 1.350 L 16.000 2.061 17.460 3.520 L 18.920 4.980 16.150 5.002 C 13.451 5.024,13.371 5.027,13.042 5.114 C 12.649 5.217,12.073 5.480,11.731 5.712 C 10.965 6.233,10.408 7.018,10.131 7.968 L 10.023 8.340 10.010 11.670 L 9.997 15.000 10.998 15.000 L 12.000 15.000 12.000 11.927 C 12.000 9.893,12.015 8.774,12.043 8.617 C 12.184 7.849,12.849 7.184,13.617 7.043 C 13.778 7.014,15.240 7.000,18.157 7.000 C 22.958 7.000,22.632 7.019,22.829 6.724 C 22.935 6.565,22.950 6.293,22.863 6.128 C 22.831 6.069,21.593 4.809,20.112 3.330 L 17.419 0.640 16.710 1.350 M2.664 3.063 C 2.436 3.146,2.257 3.297,2.131 3.511 L 2.020 3.700 2.020 12.000 L 2.020 20.300 2.131 20.489 C 2.260 20.709,2.437 20.854,2.678 20.939 C 2.830 20.993,3.916 21.000,11.998 21.000 C 22.265 21.000,21.375 21.027,21.701 20.701 C 22.021 20.381,22.000 20.774,22.000 15.073 L 22.000 10.000 21.000 10.000 L 20.000 10.000 20.000 14.500 L 20.000 19.000 12.000 19.000 L 4.000 19.000 4.000 12.000 L 4.000 5.000 6.500 5.000 L 9.000 5.000 9.000 4.000 L 9.000 3.000 5.910 3.003 C 3.333 3.005,2.794 3.015,2.664 3.063 " stroke="none" fill-rule="evenodd" fill="black"></path></svg>