<svg viewBox="0 0 24 24" xmlns="http://www.w3.org/2000/svg"><path d="M16.276 2.580 C 15.686 2.698,15.081 3.019,14.601 3.468 C 13.781 4.236,13.402 5.294,13.531 6.460 L 13.562 6.740 11.014 8.128 L 8.466 9.516 8.321 9.386 C 7.964 9.063,7.437 8.777,6.932 8.631 C 6.668 8.554,6.525 8.540,6.000 8.540 C 5.475 8.540,5.332 8.554,5.068 8.631 C 3.529 9.076,2.514 10.415,2.514 12.000 C 2.514 13.135,3.022 14.140,3.940 14.826 C 5.233 15.791,7.158 15.690,8.340 14.595 L 8.460 14.484 11.010 15.872 L 13.561 17.260 13.530 17.540 C 13.405 18.698,13.777 19.752,14.579 20.514 C 15.737 21.614,17.473 21.810,18.804 20.990 C 21.162 19.539,21.021 16.117,18.551 14.876 C 18.014 14.605,17.712 14.540,17.000 14.540 C 16.475 14.540,16.332 14.554,16.068 14.631 C 15.563 14.777,15.036 15.063,14.679 15.386 L 14.534 15.516 11.987 14.128 L 9.440 12.740 9.469 12.420 C 9.504 12.025,9.504 11.977,9.470 11.580 L 9.442 11.260 11.991 9.872 L 14.540 8.484 14.660 8.595 C 15.269 9.159,16.117 9.484,16.980 9.485 C 17.698 9.486,18.314 9.309,18.891 8.936 C 20.168 8.110,20.781 6.514,20.373 5.080 C 20.014 3.817,18.983 2.846,17.721 2.580 C 17.373 2.507,16.643 2.507,16.276 2.580 " stroke="none" fill-rule="evenodd" fill="black"></path></svg>