<svg viewBox="0 0 24 24" xmlns="http://www.w3.org/2000/svg"><path d="M16.420 2.041 C 14.844 2.285,13.559 3.431,13.138 4.968 C 12.978 5.551,12.963 6.395,13.102 6.900 C 13.122 6.971,12.874 7.117,11.050 8.110 C 9.909 8.732,8.962 9.240,8.944 9.240 C 8.926 9.240,8.819 9.157,8.706 9.055 C 7.100 7.610,4.680 7.672,3.159 9.198 C 1.523 10.839,1.650 13.592,3.430 15.061 C 4.981 16.341,7.196 16.297,8.693 14.957 L 8.927 14.748 9.079 14.824 C 9.162 14.866,10.106 15.377,11.176 15.960 C 12.876 16.886,13.119 17.030,13.101 17.100 C 12.970 17.602,12.979 18.449,13.121 18.980 C 13.411 20.065,14.079 20.939,15.046 21.496 C 15.291 21.637,15.667 21.783,16.060 21.889 C 16.500 22.009,17.436 22.016,17.880 21.904 C 19.099 21.597,20.017 20.876,20.560 19.800 C 21.677 17.586,20.550 14.936,18.171 14.186 C 16.847 13.768,15.349 14.105,14.288 15.060 C 14.102 15.228,14.065 15.246,13.983 15.209 C 13.906 15.174,9.917 13.004,9.892 12.984 C 9.887 12.980,9.909 12.834,9.940 12.659 C 10.013 12.252,10.013 11.748,9.940 11.341 C 9.909 11.166,9.887 11.020,9.892 11.017 C 9.962 10.969,14.040 8.760,14.060 8.760 C 14.075 8.760,14.189 8.851,14.314 8.963 C 14.855 9.448,15.498 9.768,16.240 9.921 C 16.748 10.026,17.428 10.012,17.940 9.885 C 19.408 9.521,20.557 8.352,20.899 6.877 C 21.261 5.317,20.593 3.611,19.269 2.712 C 18.925 2.479,18.354 2.221,17.960 2.122 C 17.570 2.024,16.796 1.983,16.420 2.041 M17.383 4.043 C 18.185 4.190,18.839 4.872,18.967 5.695 C 19.153 6.894,18.209 8.000,17.000 8.000 C 16.032 8.000,15.183 7.268,15.033 6.305 C 14.933 5.663,15.132 5.061,15.596 4.596 C 16.085 4.108,16.698 3.918,17.383 4.043 M6.383 10.043 C 7.185 10.190,7.839 10.872,7.967 11.695 C 8.153 12.894,7.209 14.000,6.000 14.000 C 5.032 14.000,4.183 13.268,4.033 12.305 C 3.933 11.663,4.132 11.061,4.596 10.596 C 5.085 10.108,5.698 9.918,6.383 10.043 M17.383 16.043 C 18.185 16.190,18.839 16.872,18.967 17.695 C 19.153 18.894,18.209 20.000,17.000 20.000 C 16.032 20.000,15.183 19.268,15.033 18.305 C 14.933 17.663,15.132 17.061,15.596 16.596 C 16.085 16.108,16.698 15.918,17.383 16.043 " stroke="none" fill-rule="evenodd" fill="black"></path></svg>