<svg viewBox="0 0 24 24" xmlns="http://www.w3.org/2000/svg"><path d="M7.823 1.925 C 5.558 2.430,3.642 2.873,3.564 2.910 C 3.347 3.013,3.137 3.247,3.064 3.469 C 3.003 3.651,2.999 4.138,3.010 9.124 L 3.023 14.580 3.112 14.966 C 3.399 16.221,3.904 17.149,4.777 18.023 L 5.260 18.507 8.630 20.754 L 12.000 23.001 15.370 20.754 L 18.740 18.507 19.223 18.023 C 20.096 17.149,20.601 16.221,20.888 14.966 L 20.977 14.580 20.990 9.124 C 21.001 4.138,20.997 3.651,20.936 3.469 C 20.863 3.247,20.653 3.013,20.436 2.910 C 20.317 2.854,12.059 0.994,11.970 1.003 C 11.954 1.005,10.087 1.420,7.823 1.925 M13.000 8.500 L 13.000 10.000 14.500 10.000 L 16.000 10.000 16.000 11.000 L 16.000 12.000 14.500 12.000 L 13.000 12.000 13.000 13.500 L 13.000 15.000 12.000 15.000 L 11.000 15.000 11.000 13.500 L 11.000 12.000 9.500 12.000 L 8.000 12.000 8.000 11.000 L 8.000 10.000 9.500 10.000 L 11.000 10.000 11.000 8.500 L 11.000 7.000 12.000 7.000 L 13.000 7.000 13.000 8.500 " stroke="none" fill-rule="evenodd" fill="black"></path></svg>