<svg viewBox="0 0 24 24" xmlns="http://www.w3.org/2000/svg"><path d="M7.823 1.925 C 5.558 2.430,3.642 2.873,3.564 2.910 C 3.347 3.013,3.137 3.247,3.064 3.469 C 3.003 3.651,2.999 4.138,3.010 9.124 L 3.023 14.580 3.112 14.966 C 3.399 16.221,3.904 17.149,4.777 18.023 L 5.260 18.507 8.630 20.754 L 12.000 23.001 15.370 20.754 L 18.740 18.507 19.223 18.023 C 20.096 17.149,20.601 16.221,20.888 14.966 L 20.977 14.580 20.990 9.124 C 21.001 4.138,20.997 3.651,20.936 3.469 C 20.863 3.247,20.653 3.013,20.436 2.910 C 20.317 2.854,12.059 0.994,11.970 1.003 C 11.954 1.005,10.087 1.420,7.823 1.925 M15.452 3.818 C 17.295 4.226,18.847 4.570,18.902 4.584 L 19.000 4.609 19.000 9.314 C 19.000 14.392,18.997 14.448,18.788 15.060 C 18.583 15.657,18.260 16.174,17.810 16.624 C 17.555 16.879,17.056 17.228,14.752 18.765 L 12.000 20.601 9.248 18.765 C 6.944 17.228,6.445 16.879,6.190 16.624 C 5.740 16.174,5.417 15.657,5.212 15.060 C 5.003 14.448,5.000 14.392,5.000 9.313 L 5.000 4.605 5.310 4.536 C 9.126 3.680,11.993 3.053,12.040 3.064 C 12.073 3.071,13.608 3.411,15.452 3.818 M11.251 7.510 L 10.530 8.981 8.915 9.214 C 8.027 9.343,7.293 9.454,7.285 9.462 C 7.271 9.476,9.041 11.222,9.410 11.557 C 9.518 11.656,9.600 11.765,9.600 11.812 C 9.600 11.857,9.482 12.577,9.338 13.413 C 9.194 14.249,9.082 14.954,9.088 14.981 C 9.095 15.010,9.676 14.726,10.532 14.275 C 11.320 13.860,11.981 13.520,12.000 13.520 C 12.019 13.520,12.680 13.860,13.468 14.275 C 14.278 14.702,14.905 15.009,14.911 14.983 C 14.918 14.958,14.805 14.251,14.661 13.414 C 14.518 12.576,14.400 11.855,14.400 11.811 C 14.400 11.766,14.491 11.647,14.610 11.537 C 15.045 11.136,16.729 9.476,16.715 9.462 C 16.707 9.454,15.973 9.343,15.085 9.214 L 13.470 8.981 12.749 7.510 C 12.352 6.702,12.015 6.040,12.000 6.040 C 11.985 6.040,11.648 6.702,11.251 7.510 " stroke="none" fill-rule="evenodd" fill="black"></path></svg>