<svg viewBox="0 0 24 24" xmlns="http://www.w3.org/2000/svg"><path d="M7.823 1.925 C 5.558 2.430,3.642 2.873,3.564 2.910 C 3.347 3.013,3.137 3.247,3.064 3.469 C 3.003 3.651,2.999 4.138,3.010 9.124 L 3.023 14.580 3.112 14.966 C 3.399 16.221,3.904 17.149,4.777 18.023 L 5.260 18.507 8.630 20.754 L 12.000 23.001 15.370 20.754 L 18.740 18.507 19.223 18.023 C 20.096 17.149,20.601 16.221,20.888 14.966 L 20.977 14.580 20.990 9.124 C 21.001 4.138,20.997 3.651,20.936 3.469 C 20.863 3.247,20.653 3.013,20.436 2.910 C 20.317 2.854,12.059 0.994,11.970 1.003 C 11.954 1.005,10.087 1.420,7.823 1.925 M12.743 7.510 L 13.464 8.980 15.082 9.214 C 15.972 9.343,16.707 9.454,16.715 9.462 C 16.729 9.476,15.045 11.136,14.610 11.537 C 14.472 11.665,14.400 11.763,14.400 11.825 C 14.400 11.876,14.518 12.604,14.662 13.443 C 14.806 14.281,14.919 14.981,14.912 14.998 C 14.905 15.015,14.255 14.690,13.468 14.275 C 12.680 13.860,12.019 13.520,12.000 13.520 C 11.981 13.520,11.320 13.860,10.532 14.275 C 9.745 14.690,9.095 15.016,9.088 14.999 C 9.082 14.983,9.194 14.283,9.338 13.444 C 9.482 12.605,9.600 11.876,9.600 11.824 C 9.600 11.763,9.534 11.670,9.410 11.557 C 9.041 11.222,7.271 9.476,7.285 9.462 C 7.293 9.454,8.028 9.343,8.918 9.214 L 10.536 8.980 11.257 7.510 C 11.653 6.702,11.987 6.040,12.000 6.040 C 12.013 6.040,12.347 6.702,12.743 7.510 " stroke="none" fill-rule="evenodd" fill="black"></path></svg>