<svg viewBox="0 0 24 24" xmlns="http://www.w3.org/2000/svg"><path d="M5.270 5.310 L 2.480 8.100 2.480 12.000 L 2.480 15.900 5.290 18.710 L 8.100 21.520 12.000 21.520 L 15.900 21.520 18.710 18.710 L 21.520 15.900 21.520 12.000 L 21.520 8.100 18.730 5.310 L 15.940 2.520 12.000 2.520 L 8.060 2.520 5.270 5.310 M17.310 6.690 L 19.480 8.860 19.480 12.000 L 19.480 15.141 17.289 17.330 L 15.098 19.520 12.000 19.520 L 8.902 19.520 6.711 17.330 L 4.520 15.141 4.520 12.001 L 4.520 8.860 6.690 6.690 L 8.860 4.520 12.000 4.520 L 15.140 4.520 17.310 6.690 M8.000 12.000 L 8.000 13.000 12.000 13.000 L 16.000 13.000 16.000 12.000 L 16.000 11.000 12.000 11.000 L 8.000 11.000 8.000 12.000 " stroke="none" fill-rule="evenodd" fill="black"></path></svg>