<svg viewBox="0 0 24 24" xmlns="http://www.w3.org/2000/svg"><path d="M10.303 4.171 C 9.381 6.178,8.623 7.825,8.618 7.832 C 8.613 7.838,6.816 8.057,4.623 8.317 C 2.431 8.577,0.632 8.796,0.625 8.805 C 0.618 8.813,1.879 9.990,3.427 11.420 C 4.975 12.850,6.304 14.083,6.380 14.160 L 6.517 14.300 5.738 18.219 C 5.309 20.374,4.964 22.149,4.969 22.165 C 4.975 22.180,6.552 21.312,8.474 20.236 C 10.395 19.160,11.982 18.280,12.000 18.280 C 12.017 18.280,13.604 19.160,15.526 20.236 C 17.448 21.312,19.025 22.180,19.030 22.165 C 19.036 22.150,18.689 20.370,18.260 18.210 L 17.479 14.282 17.620 14.151 C 17.698 14.079,19.028 12.850,20.575 11.420 C 22.122 9.990,23.382 8.813,23.375 8.805 C 23.368 8.796,21.569 8.577,19.377 8.317 C 17.184 8.057,15.387 7.838,15.382 7.832 C 15.378 7.825,14.619 6.178,13.697 4.172 C 12.775 2.165,12.011 0.523,12.000 0.523 C 11.989 0.523,11.225 2.165,10.303 4.171 M13.016 7.480 C 13.564 8.668,14.032 9.655,14.056 9.674 C 14.080 9.693,15.153 9.831,16.440 9.981 C 17.727 10.131,18.793 10.264,18.808 10.277 C 18.824 10.290,18.050 11.028,17.088 11.917 C 16.016 12.909,15.336 13.566,15.329 13.617 C 15.323 13.663,15.525 14.734,15.778 15.998 C 16.031 17.261,16.231 18.302,16.223 18.311 C 16.214 18.319,15.269 17.801,14.123 17.159 C 12.808 16.422,12.012 15.998,11.965 16.010 C 11.925 16.021,10.970 16.546,9.843 17.178 C 8.715 17.809,7.786 18.320,7.778 18.312 C 7.770 18.304,7.970 17.263,8.222 15.999 C 8.473 14.734,8.679 13.664,8.678 13.620 C 8.677 13.567,8.088 12.998,6.920 11.920 C 5.954 11.029,5.176 10.290,5.192 10.277 C 5.207 10.264,6.286 10.129,7.590 9.977 L 9.960 9.700 10.970 7.510 C 11.525 6.306,11.989 5.320,12.000 5.320 C 12.011 5.320,12.468 6.292,13.016 7.480 " stroke="none" fill-rule="evenodd" fill="black"></path></svg>