<svg viewBox="0 0 24 24" xmlns="http://www.w3.org/2000/svg"><path d="M8.000 2.000 L 8.000 3.000 12.000 3.000 L 16.000 3.000 16.000 2.000 L 16.000 1.000 12.000 1.000 L 8.000 1.000 8.000 2.000 M11.140 4.041 C 9.058 4.252,7.086 5.188,5.620 6.661 C 3.868 8.422,2.926 10.825,3.012 13.320 C 3.160 17.645,6.360 21.226,10.688 21.908 C 11.313 22.006,12.679 22.005,13.312 21.906 C 14.907 21.655,16.433 20.985,17.657 19.998 C 19.747 18.312,21.000 15.690,21.000 13.000 C 21.000 11.028,20.361 9.168,19.091 7.444 C 19.048 7.386,19.137 7.282,19.761 6.659 L 20.480 5.941 19.770 5.230 L 19.061 4.520 18.337 5.243 L 17.613 5.966 17.352 5.769 C 16.237 4.925,14.776 4.321,13.320 4.101 C 12.809 4.024,11.631 3.992,11.140 4.041 M12.686 6.042 C 14.238 6.199,15.639 6.834,16.793 7.902 C 17.782 8.817,18.558 10.192,18.841 11.529 C 19.093 12.723,19.019 14.072,18.639 15.211 C 18.054 16.963,16.783 18.427,15.125 19.258 C 11.887 20.881,7.938 19.752,6.039 16.660 C 4.538 14.217,4.688 11.083,6.416 8.787 C 7.877 6.846,10.272 5.797,12.686 6.042 M11.000 11.000 L 11.000 14.000 12.000 14.000 L 13.000 14.000 13.000 11.000 L 13.000 8.000 12.000 8.000 L 11.000 8.000 11.000 11.000 " stroke="none" fill-rule="evenodd" fill="black"></path></svg>