<svg viewBox="0 0 24 24" xmlns="http://www.w3.org/2000/svg"><path d="M7.260 5.044 C 5.587 5.220,3.957 6.043,2.834 7.281 C 1.445 8.812,0.795 10.869,1.060 12.894 C 1.434 15.745,3.480 18.057,6.274 18.783 C 7.094 18.996,7.205 19.000,12.000 19.000 C 16.795 19.000,16.906 18.996,17.726 18.783 C 20.520 18.057,22.566 15.745,22.940 12.894 C 23.451 8.994,20.621 5.441,16.686 5.042 C 16.187 4.991,7.743 4.994,7.260 5.044 M16.756 9.097 C 17.093 9.189,17.595 9.447,17.873 9.671 C 18.554 10.219,19.000 11.140,19.000 12.000 C 19.000 13.170,18.225 14.329,17.151 14.766 C 15.642 15.380,13.989 14.734,13.298 13.260 C 13.072 12.779,13.021 12.546,13.021 12.000 C 13.021 11.454,13.072 11.221,13.298 10.740 C 13.716 9.848,14.537 9.215,15.503 9.040 C 15.770 8.991,16.491 9.024,16.756 9.097 " stroke="none" fill-rule="evenodd" fill="black"></path></svg>