<svg viewBox="0 0 24 24" xmlns="http://www.w3.org/2000/svg"><path d="M10.320 2.025 C 9.097 2.137,8.094 2.416,7.015 2.943 C 5.241 3.810,3.800 5.257,2.917 7.060 C 1.698 9.547,1.698 12.453,2.917 14.940 C 4.277 17.714,6.916 19.581,9.988 19.940 C 12.293 20.210,14.539 19.577,16.556 18.091 C 16.614 18.048,16.901 18.321,18.761 20.181 L 20.899 22.320 21.610 21.610 L 22.320 20.901 20.178 18.758 L 18.036 16.616 18.172 16.438 C 19.331 14.921,20.000 12.924,20.000 10.986 C 20.000 6.563,16.712 2.760,12.320 2.101 C 11.908 2.039,10.675 1.992,10.320 2.025 M12.000 8.500 L 12.000 10.000 13.500 10.000 L 15.000 10.000 15.000 11.000 L 15.000 12.000 13.500 12.000 L 12.000 12.000 12.000 13.500 L 12.000 15.000 11.000 15.000 L 10.000 15.000 10.000 13.500 L 10.000 12.000 8.500 12.000 L 7.000 12.000 7.000 11.000 L 7.000 10.000 8.500 10.000 L 10.000 10.000 10.000 8.500 L 10.000 7.000 11.000 7.000 L 12.000 7.000 12.000 8.500 " stroke="none" fill-rule="evenodd" fill="black"></path></svg>