<svg width="32" height="32" xmlns="http://www.w3.org/2000/svg"><path d="M14.933 0.034 C 10.237 0.384,6.020 2.671,3.211 6.391 C 1.590 8.538,0.590 10.959,0.146 13.813 C -0.017 14.858,-0.017 17.142,0.146 18.187 C 0.830 22.578,2.950 26.177,6.391 28.787 C 8.515 30.398,10.963 31.410,13.813 31.854 C 14.858 32.017,17.142 32.017,18.187 31.854 C 20.149 31.549,21.935 30.970,23.505 30.132 C 26.290 28.646,28.646 26.290,30.132 23.505 C 30.970 21.935,31.549 20.149,31.854 18.187 C 32.017 17.142,32.017 14.858,31.854 13.813 C 31.410 10.961,30.399 8.515,28.784 6.386 C 26.139 2.901,22.361 0.710,18.000 0.132 C 17.376 0.050,15.520 -0.010,14.933 0.034 M17.074 4.802 C 19.734 5.068,22.068 6.171,23.948 8.052 C 28.093 12.196,28.373 18.750,24.597 23.256 C 22.484 25.778,19.312 27.252,16.000 27.252 C 10.625 27.252,5.988 23.435,4.961 18.167 C 3.753 11.967,7.850 6.011,14.080 4.910 C 14.973 4.752,16.150 4.709,17.074 4.802 M15.253 5.444 C 13.250 5.564,11.185 6.347,9.520 7.619 C 9.084 7.953,8.219 8.794,7.815 9.280 C 6.604 10.732,5.760 12.669,5.488 14.613 C 5.388 15.332,5.400 16.799,5.511 17.528 C 5.745 19.054,6.311 20.537,7.148 21.813 C 7.907 22.972,9.022 24.087,10.187 24.852 C 12.460 26.345,15.288 26.921,17.905 26.423 C 19.586 26.104,21.123 25.418,22.480 24.381 C 22.933 24.035,23.847 23.139,24.228 22.667 C 26.862 19.406,27.337 14.972,25.453 11.227 C 24.624 9.580,23.329 8.141,21.733 7.095 C 20.720 6.431,19.359 5.879,18.114 5.627 C 17.534 5.510,17.242 5.478,16.213 5.421 C 16.052 5.412,15.620 5.423,15.253 5.444 M18.597 8.267 C 19.239 9.570,20.941 15.833,21.048 17.280 C 21.076 17.663,21.070 17.690,20.908 17.932 C 20.242 18.923,15.872 22.953,14.381 23.951 C 13.918 24.260,13.867 24.245,13.627 23.720 C 12.916 22.170,11.295 16.205,11.214 14.841 C 11.186 14.369,11.190 14.340,11.332 14.126 C 11.588 13.738,12.478 12.811,13.686 11.672 C 16.082 9.413,17.994 7.858,18.318 7.904 C 18.392 7.915,18.481 8.031,18.597 8.267 " stroke="none" fill-rule="evenodd" fill="black"></path></svg>