<svg width="32" height="32" xmlns="http://www.w3.org/2000/svg"><path d="M14.933 0.034 C 10.237 0.384,6.020 2.671,3.211 6.391 C 1.590 8.538,0.590 10.959,0.146 13.813 C -0.017 14.858,-0.017 17.142,0.146 18.187 C 0.830 22.578,2.950 26.177,6.391 28.787 C 8.515 30.398,10.963 31.410,13.813 31.854 C 14.858 32.017,17.142 32.017,18.187 31.854 C 20.149 31.549,21.935 30.970,23.505 30.132 C 26.290 28.646,28.646 26.290,30.132 23.505 C 30.970 21.935,31.549 20.149,31.854 18.187 C 32.017 17.142,32.017 14.858,31.854 13.813 C 31.410 10.961,30.399 8.515,28.784 6.386 C 26.139 2.901,22.361 0.710,18.000 0.132 C 17.376 0.050,15.520 -0.010,14.933 0.034 M13.920 5.536 C 13.920 5.559,13.778 5.805,13.604 6.082 C 13.430 6.359,13.296 6.594,13.306 6.604 C 13.316 6.614,13.380 6.586,13.449 6.542 C 13.971 6.205,15.351 5.807,16.345 5.704 C 18.466 5.486,20.780 6.205,22.664 7.667 L 22.907 7.854 22.644 7.820 C 22.499 7.801,22.103 7.773,21.764 7.756 L 21.147 7.726 21.520 7.932 C 23.078 8.789,24.374 10.050,25.248 11.560 C 25.765 12.453,26.205 13.740,26.370 14.843 C 26.474 15.533,26.522 16.716,26.469 17.272 L 26.427 17.717 26.133 17.356 C 25.972 17.158,25.816 16.963,25.787 16.924 C 25.750 16.875,25.732 17.146,25.729 17.773 C 25.726 18.504,25.702 18.804,25.610 19.232 C 25.200 21.145,24.188 22.816,22.585 24.226 C 22.293 24.483,22.040 24.693,22.024 24.693 C 22.007 24.693,22.035 24.493,22.084 24.247 C 22.134 24.002,22.192 23.672,22.214 23.514 L 22.253 23.227 22.005 23.562 C 20.885 25.079,19.185 26.151,17.387 26.476 L 17.200 26.509 17.548 26.148 C 17.740 25.949,17.951 25.723,18.018 25.646 L 18.140 25.506 17.689 25.687 C 16.221 26.276,14.617 26.344,12.773 25.896 C 12.190 25.754,11.676 25.578,11.979 25.623 C 13.198 25.805,14.374 25.619,15.496 25.065 C 17.016 24.316,18.086 22.888,18.349 21.259 C 18.439 20.701,18.388 19.713,18.242 19.200 C 18.089 18.662,17.721 17.916,17.399 17.493 C 17.145 17.158,16.462 16.478,16.385 16.482 C 16.317 16.486,15.284 17.902,15.122 18.215 C 14.981 18.485,14.959 18.591,14.931 19.140 C 14.885 20.022,14.866 20.053,13.818 21.007 C 13.013 21.739,12.861 21.813,12.154 21.813 C 11.759 21.813,11.731 21.822,11.484 22.013 C 11.240 22.203,11.207 22.213,10.853 22.208 C 10.459 22.203,9.508 21.977,9.295 21.837 C 9.050 21.677,8.611 20.731,8.475 20.071 L 8.407 19.742 8.816 18.898 C 9.270 17.959,9.236 18.101,9.495 16.053 C 9.708 14.369,9.709 14.283,9.502 13.843 C 9.283 13.374,9.260 13.214,9.348 12.785 L 9.422 12.424 8.378 11.667 C 6.892 10.590,4.626 8.888,4.541 8.783 C 4.479 8.708,4.480 8.690,4.544 8.665 C 4.623 8.635,5.222 8.838,7.457 9.653 C 8.199 9.924,8.815 10.136,8.826 10.125 C 8.836 10.115,8.812 9.962,8.770 9.786 C 8.543 8.822,8.827 7.610,9.442 6.918 C 9.616 6.721,9.642 6.708,9.668 6.801 C 9.957 7.834,10.187 8.425,10.187 8.137 C 10.187 8.094,10.299 7.839,10.437 7.570 C 10.982 6.504,11.944 5.780,13.093 5.571 C 13.529 5.492,13.920 5.475,13.920 5.536 M13.974 8.305 C 13.549 8.940,12.995 9.737,12.743 10.076 C 12.004 11.068,11.942 11.111,11.629 10.847 C 11.537 10.770,11.454 10.716,11.444 10.727 C 11.411 10.762,10.789 12.493,10.672 12.872 C 10.482 13.493,10.526 13.908,10.857 14.587 C 11.146 15.181,11.190 15.726,10.981 16.117 C 10.923 16.225,10.911 16.214,10.806 15.943 C 10.667 15.586,10.537 15.345,10.440 15.264 C 10.378 15.213,10.338 15.431,10.190 16.602 C 10.093 17.371,9.980 18.129,9.939 18.287 C 9.898 18.445,9.719 18.852,9.541 19.193 C 9.264 19.724,9.222 19.841,9.248 20.008 C 9.290 20.270,9.587 21.039,9.698 21.174 C 9.755 21.244,9.953 21.323,10.255 21.397 C 10.823 21.536,10.877 21.518,11.441 20.999 C 11.968 20.513,12.082 20.279,12.181 19.481 C 12.227 19.108,12.296 18.778,12.344 18.704 C 12.457 18.533,12.660 18.447,13.013 18.422 L 13.307 18.401 13.067 18.476 C 12.864 18.538,12.850 18.550,12.976 18.555 C 13.313 18.567,13.600 18.862,13.600 19.196 C 13.600 19.262,13.277 19.623,12.747 20.150 C 12.277 20.617,11.893 21.030,11.893 21.067 C 11.893 21.120,11.986 21.128,12.297 21.101 C 12.520 21.083,12.734 21.049,12.774 21.027 C 12.813 21.005,13.127 20.724,13.470 20.402 C 14.136 19.779,14.290 19.548,14.292 19.167 C 14.294 18.860,14.169 18.594,13.878 18.283 C 13.464 17.840,13.154 17.740,12.593 17.870 C 12.464 17.899,12.346 17.911,12.331 17.895 C 12.276 17.841,12.542 17.610,12.845 17.449 C 13.133 17.294,13.152 17.271,13.271 16.924 C 13.493 16.275,13.982 15.017,14.059 14.895 C 14.111 14.812,14.275 14.734,14.600 14.636 C 14.857 14.559,15.096 14.468,15.131 14.435 C 15.261 14.311,16.003 12.467,15.969 12.352 C 15.907 12.142,15.293 10.587,15.255 10.545 C 15.234 10.522,15.112 10.564,14.982 10.639 C 14.624 10.845,14.111 10.987,13.722 10.987 L 13.375 10.987 13.700 10.769 C 14.120 10.489,14.628 9.926,14.831 9.518 C 15.046 9.084,15.119 8.592,15.042 8.094 C 14.979 7.684,14.828 7.145,14.777 7.149 C 14.760 7.150,14.399 7.670,13.974 8.305 M14.642 8.738 C 14.594 9.140,14.438 9.451,14.169 9.686 C 13.956 9.872,13.508 10.113,13.463 10.067 C 13.451 10.055,13.699 9.649,14.014 9.165 C 14.628 8.221,14.710 8.165,14.642 8.738 M15.904 9.735 C 15.810 9.868,15.733 9.995,15.733 10.019 C 15.733 10.042,15.941 10.587,16.195 11.230 C 16.449 11.874,16.658 12.472,16.659 12.560 C 16.661 12.763,16.387 13.498,16.276 13.587 C 16.231 13.623,16.081 13.653,15.945 13.653 L 15.697 13.653 15.487 14.145 L 15.277 14.637 14.749 14.800 C 14.223 14.963,14.222 14.964,14.121 15.202 C 14.025 15.427,13.333 17.263,13.333 17.293 C 13.333 17.300,13.450 17.299,13.592 17.289 C 13.735 17.279,13.938 17.295,14.043 17.324 L 14.236 17.377 14.485 16.915 C 14.743 16.437,15.205 15.718,15.432 15.441 C 15.556 15.288,15.585 15.280,16.114 15.245 C 16.418 15.225,16.775 15.170,16.907 15.123 C 18.282 14.630,18.828 12.815,18.081 11.213 C 17.996 11.030,17.946 10.880,17.971 10.880 C 18.051 10.880,18.533 11.285,18.742 11.527 C 19.056 11.892,19.340 12.410,19.517 12.941 C 19.607 13.210,19.680 13.475,19.680 13.530 C 19.680 13.586,19.815 13.835,19.981 14.083 C 20.561 14.951,20.971 15.971,21.145 16.978 C 21.221 17.419,21.244 17.472,21.500 17.778 L 21.775 18.107 21.742 18.722 C 21.698 19.542,21.660 19.636,21.286 19.863 C 21.002 20.036,20.975 20.069,20.883 20.377 C 20.613 21.277,19.954 22.336,19.167 23.133 L 18.627 23.680 18.944 23.507 C 19.460 23.224,20.107 22.709,20.623 22.169 C 21.638 21.108,22.258 19.904,22.593 18.347 C 22.739 17.670,22.728 16.162,22.572 15.455 C 22.346 14.429,22.012 13.623,21.477 12.811 C 20.372 11.134,18.682 9.975,16.757 9.574 C 16.148 9.448,16.099 9.457,15.904 9.735 M13.389 12.055 C 13.293 12.322,13.224 12.544,13.234 12.550 C 13.245 12.555,13.325 12.597,13.412 12.641 C 13.670 12.774,13.813 13.036,13.813 13.379 C 13.813 13.670,13.808 13.680,13.502 13.978 C 13.184 14.287,12.501 14.723,12.162 14.835 C 12.058 14.869,11.942 14.941,11.904 14.995 C 11.747 15.217,11.391 15.056,11.257 14.703 C 11.193 14.535,11.187 14.105,11.247 13.954 C 11.278 13.873,11.299 13.896,11.358 14.075 C 11.439 14.319,11.538 14.428,11.628 14.373 C 11.681 14.340,12.988 12.383,13.362 11.776 C 13.447 11.638,13.527 11.536,13.539 11.548 C 13.552 11.561,13.484 11.789,13.389 12.055 M19.772 15.020 C 19.756 15.515,19.715 16.057,19.682 16.224 C 19.627 16.506,19.632 16.547,19.754 16.789 C 20.711 18.677,20.295 21.285,18.724 23.252 L 18.533 23.491 18.796 23.279 C 19.553 22.667,20.298 21.547,20.710 20.399 C 20.874 19.944,20.891 19.919,21.199 19.710 C 21.554 19.467,21.554 19.466,21.621 18.627 L 21.656 18.188 21.365 17.872 C 21.123 17.609,21.069 17.513,21.039 17.298 C 20.902 16.296,20.517 15.240,19.985 14.407 L 19.802 14.120 19.772 15.020 M10.384 18.947 C 10.283 19.384,10.284 19.392,10.425 19.456 C 10.607 19.539,10.607 19.800,10.425 20.067 C 10.209 20.385,9.900 20.398,9.792 20.095 C 9.752 19.983,9.795 19.865,10.048 19.394 C 10.350 18.832,10.437 18.715,10.384 18.947 M12.646 18.953 C 12.613 18.992,12.562 19.210,12.534 19.436 C 12.505 19.662,12.466 19.876,12.446 19.910 C 12.427 19.945,12.517 19.875,12.646 19.755 C 12.775 19.635,12.958 19.483,13.053 19.418 C 13.258 19.278,13.295 19.027,13.124 18.935 C 12.978 18.857,12.717 18.867,12.646 18.953 " stroke="none" fill-rule="evenodd" fill="black"></path></svg>