<svg width="32" height="32" xmlns="http://www.w3.org/2000/svg"><path d="M14.933 0.034 C 10.237 0.384,6.020 2.671,3.211 6.391 C 1.590 8.538,0.590 10.959,0.146 13.813 C -0.017 14.858,-0.017 17.142,0.146 18.187 C 0.830 22.578,2.950 26.177,6.391 28.787 C 8.515 30.398,10.963 31.410,13.813 31.854 C 14.858 32.017,17.142 32.017,18.187 31.854 C 20.149 31.549,21.935 30.970,23.505 30.132 C 26.290 28.646,28.646 26.290,30.132 23.505 C 30.970 21.935,31.549 20.149,31.854 18.187 C 32.017 17.142,32.017 14.858,31.854 13.813 C 31.410 10.961,30.399 8.515,28.784 6.386 C 26.139 2.901,22.361 0.710,18.000 0.132 C 17.376 0.050,15.520 -0.010,14.933 0.034 M12.400 4.141 C 12.855 4.252,13.811 4.731,14.369 5.128 C 14.912 5.515,15.518 6.099,15.788 6.498 C 15.890 6.648,15.985 6.771,16.000 6.772 C 16.015 6.772,16.080 6.679,16.146 6.564 C 16.329 6.243,17.099 5.456,17.573 5.106 C 18.104 4.714,18.933 4.306,19.490 4.163 C 20.003 4.030,20.779 4.018,21.275 4.135 C 22.301 4.377,22.864 5.026,22.921 6.032 C 22.993 7.302,22.503 8.133,21.455 8.518 C 20.891 8.725,19.621 8.761,14.907 8.701 C 10.671 8.648,10.722 8.651,10.121 8.385 C 9.554 8.134,9.092 7.503,8.964 6.804 C 8.726 5.499,9.241 4.525,10.361 4.163 C 10.873 3.997,11.770 3.988,12.400 4.141 M10.808 5.286 C 10.294 5.406,10.109 5.655,10.113 6.220 C 10.118 6.887,10.408 7.285,10.975 7.406 C 11.222 7.458,12.217 7.480,13.990 7.471 L 14.886 7.467 14.790 7.300 C 14.646 7.051,13.999 6.373,13.649 6.103 C 13.239 5.788,12.643 5.474,12.194 5.338 C 11.805 5.219,11.189 5.196,10.808 5.286 M19.627 5.381 C 19.229 5.509,18.707 5.778,18.317 6.055 C 17.962 6.306,17.204 7.084,17.048 7.356 L 16.949 7.528 18.888 7.509 C 20.664 7.491,20.849 7.481,21.088 7.385 C 21.439 7.244,21.640 6.986,21.716 6.580 C 21.836 5.933,21.659 5.525,21.190 5.365 C 20.845 5.247,20.013 5.256,19.627 5.381 M10.880 10.267 L 10.880 10.987 11.227 10.987 L 11.573 10.987 11.573 11.360 L 11.573 11.733 11.227 11.733 L 10.880 11.733 10.880 12.080 L 10.880 12.427 11.253 12.427 L 11.627 12.427 11.627 12.080 L 11.627 11.733 11.973 11.733 L 12.320 11.733 12.320 11.360 L 12.320 10.987 12.693 10.987 L 13.067 10.987 13.067 10.613 L 13.067 10.240 12.347 10.240 L 11.627 10.240 11.627 9.893 L 11.627 9.547 12.720 9.547 L 13.813 9.547 13.813 10.267 L 13.813 10.987 14.160 10.987 L 14.507 10.987 14.507 11.360 L 14.507 11.733 14.160 11.733 L 13.813 11.733 13.813 12.080 L 13.813 12.427 14.160 12.427 L 14.507 12.427 14.507 13.173 L 14.507 13.920 14.160 13.920 L 13.813 13.920 13.813 14.267 L 13.813 14.613 13.440 14.613 L 13.067 14.613 13.067 13.893 L 13.067 13.173 12.693 13.173 L 12.320 13.173 12.320 12.798 L 12.320 12.422 11.960 12.438 L 11.600 12.453 11.585 13.187 L 11.570 13.920 11.225 13.920 L 10.880 13.920 10.880 14.293 L 10.880 14.667 7.947 14.667 L 5.013 14.667 5.013 12.107 L 5.013 9.547 7.947 9.547 L 10.880 9.547 10.880 10.267 M17.452 10.253 L 17.467 10.960 18.200 10.975 L 18.933 10.990 18.933 10.268 L 18.933 9.547 19.307 9.547 L 19.680 9.547 19.680 10.267 L 19.680 10.987 20.027 10.987 L 20.373 10.987 20.373 11.360 L 20.373 11.733 20.027 11.733 L 19.680 11.733 19.680 11.360 L 19.680 10.987 19.307 10.987 L 18.933 10.987 18.933 11.707 L 18.933 12.427 19.653 12.427 L 20.373 12.427 20.373 13.173 L 20.373 13.920 20.029 13.920 L 19.685 13.920 19.669 14.280 L 19.653 14.640 19.293 14.656 L 18.933 14.672 18.933 13.922 L 18.933 13.173 18.560 13.173 L 18.187 13.173 18.187 13.893 L 18.187 14.613 17.840 14.613 L 17.493 14.613 17.493 13.893 L 17.493 13.173 17.120 13.173 L 16.747 13.173 16.747 13.893 L 16.747 14.613 16.373 14.613 L 16.000 14.613 16.000 13.893 L 16.000 13.173 16.373 13.173 L 16.747 13.173 16.747 12.800 L 16.747 12.427 16.373 12.427 L 16.000 12.427 16.000 12.082 L 16.000 11.738 15.640 11.722 L 15.280 11.707 15.264 11.347 L 15.248 10.987 15.624 10.987 L 16.000 10.987 16.000 11.362 L 16.000 11.738 16.360 11.722 L 16.720 11.707 16.734 10.627 L 16.749 9.547 17.093 9.547 L 17.437 9.547 17.452 10.253 M26.987 12.080 L 26.987 14.613 24.427 14.613 L 21.867 14.613 21.867 13.896 L 21.867 13.178 21.507 13.162 L 21.147 13.147 21.131 12.787 L 21.115 12.427 20.771 12.427 L 20.427 12.427 20.427 12.080 L 20.427 11.733 20.773 11.733 L 21.120 11.733 21.120 11.360 L 21.120 10.987 21.493 10.987 L 21.867 10.987 21.867 10.613 L 21.867 10.240 21.147 10.240 L 20.427 10.240 20.427 9.893 L 20.427 9.547 23.707 9.547 L 26.987 9.547 26.987 12.080 M5.731 10.307 C 5.717 10.344,5.712 11.166,5.719 12.134 L 5.733 13.893 7.560 13.907 L 9.387 13.921 9.387 12.081 L 9.387 10.240 7.572 10.240 C 6.163 10.240,5.751 10.255,5.731 10.307 M22.613 12.080 L 22.613 13.921 24.440 13.907 L 26.267 13.893 26.267 12.080 L 26.267 10.267 24.440 10.253 L 22.613 10.239 22.613 12.080 M8.640 12.080 L 8.640 13.173 7.547 13.173 L 6.453 13.173 6.453 12.080 L 6.453 10.987 7.547 10.987 L 8.640 10.987 8.640 12.080 M10.133 11.362 L 10.133 11.738 10.493 11.722 L 10.853 11.707 10.869 11.347 L 10.885 10.987 10.509 10.987 L 10.133 10.987 10.133 11.362 M13.067 11.360 L 13.067 11.733 13.440 11.733 L 13.813 11.733 13.813 11.360 L 13.813 10.987 13.440 10.987 L 13.067 10.987 13.067 11.360 M25.547 12.080 L 25.547 13.173 24.453 13.173 L 23.360 13.173 23.360 12.080 L 23.360 10.987 24.453 10.987 L 25.547 10.987 25.547 12.080 M15.253 12.080 L 15.253 12.427 14.907 12.427 L 14.560 12.427 14.560 12.080 L 14.560 11.733 14.907 11.733 L 15.253 11.733 15.253 12.080 M10.133 13.173 L 10.133 13.920 10.507 13.920 L 10.880 13.920 10.880 13.173 L 10.880 12.427 10.507 12.427 L 10.133 12.427 10.133 13.173 M13.067 12.800 L 13.067 13.173 13.440 13.173 L 13.813 13.173 13.813 12.800 L 13.813 12.427 13.440 12.427 L 13.067 12.427 13.067 12.800 M12.320 14.293 L 12.320 14.667 11.973 14.667 L 11.627 14.667 11.627 14.293 L 11.627 13.920 11.973 13.920 L 12.320 13.920 12.320 14.293 M15.253 14.267 L 15.253 14.613 14.907 14.613 L 14.560 14.613 14.560 14.267 L 14.560 13.920 14.907 13.920 L 15.253 13.920 15.253 14.267 M21.120 14.293 L 21.120 14.667 20.773 14.667 L 20.427 14.667 20.427 14.293 L 20.427 13.920 20.773 13.920 L 21.120 13.920 21.120 14.293 M7.947 15.733 L 7.947 16.107 8.320 16.107 L 8.693 16.107 8.693 15.733 L 8.693 15.360 9.413 15.360 L 10.133 15.360 10.133 15.733 L 10.133 16.107 10.507 16.107 L 10.880 16.107 10.880 15.733 L 10.880 15.360 11.973 15.360 L 13.067 15.360 13.067 15.733 L 13.067 16.107 11.973 16.107 L 10.880 16.107 10.880 16.480 L 10.880 16.853 11.600 16.853 L 12.320 16.853 12.320 17.200 L 12.320 17.547 12.693 17.547 L 13.067 17.547 13.067 18.293 L 13.067 19.040 13.440 19.040 L 13.813 19.040 13.813 19.387 L 13.813 19.733 14.533 19.733 L 15.253 19.733 15.253 18.640 L 15.253 17.547 14.880 17.547 L 14.507 17.547 14.507 17.920 L 14.507 18.293 14.160 18.293 L 13.813 18.293 13.813 17.920 L 13.813 17.547 14.160 17.547 L 14.507 17.547 14.507 16.829 L 14.507 16.111 14.893 16.096 L 15.280 16.080 15.296 15.720 L 15.312 15.360 16.029 15.360 L 16.747 15.360 16.747 16.453 L 16.747 17.547 17.092 17.547 L 17.437 17.547 17.452 18.280 L 17.467 19.013 18.200 19.028 L 18.933 19.043 18.933 19.388 L 18.933 19.733 18.560 19.733 L 18.187 19.733 18.187 20.107 L 18.187 20.480 18.560 20.480 L 18.933 20.480 18.933 20.856 L 18.933 21.232 19.293 21.216 L 19.653 21.200 19.669 20.840 L 19.685 20.480 20.776 20.480 L 21.867 20.480 21.867 20.107 L 21.867 19.733 20.773 19.733 L 19.680 19.733 19.680 19.013 L 19.680 18.293 18.933 18.293 L 18.187 18.293 18.187 17.920 L 18.187 17.547 18.560 17.547 L 18.933 17.547 18.933 16.827 L 18.933 16.107 19.307 16.107 L 19.680 16.107 19.680 16.827 L 19.680 17.547 20.053 17.547 L 20.427 17.547 20.427 17.173 L 20.427 16.800 20.773 16.800 L 21.120 16.800 21.120 16.453 L 21.120 16.107 20.773 16.107 L 20.427 16.107 20.427 15.733 L 20.427 15.360 20.773 15.360 L 21.120 15.360 21.120 15.733 L 21.120 16.107 21.493 16.107 L 21.867 16.107 21.867 16.480 L 21.867 16.853 22.240 16.853 L 22.613 16.853 22.613 17.200 L 22.613 17.547 23.333 17.547 L 24.053 17.547 24.053 16.453 L 24.053 15.360 24.427 15.360 L 24.800 15.360 24.800 16.453 L 24.800 17.547 24.427 17.547 L 24.053 17.547 24.053 17.920 L 24.053 18.293 24.427 18.293 L 24.800 18.293 24.800 19.013 L 24.800 19.733 24.080 19.733 L 23.360 19.733 23.360 19.387 L 23.360 19.040 22.987 19.040 L 22.613 19.040 22.613 20.479 L 22.613 21.918 21.507 21.932 L 20.400 21.947 20.400 23.760 L 20.400 25.573 22.227 25.587 L 24.053 25.601 24.053 23.761 L 24.053 21.920 24.427 21.920 L 24.800 21.920 24.800 24.133 L 24.800 26.347 21.867 26.347 L 18.933 26.347 18.933 25.973 L 18.933 25.600 19.307 25.600 L 19.680 25.600 19.680 25.227 L 19.680 24.853 19.307 24.853 L 18.933 24.853 18.933 24.509 L 18.933 24.165 18.573 24.149 L 18.213 24.133 18.198 23.773 L 18.182 23.413 18.558 23.413 L 18.933 23.413 18.933 23.040 L 18.933 22.667 18.560 22.667 L 18.187 22.667 18.187 22.293 L 18.187 21.920 18.560 21.920 L 18.933 21.920 18.933 21.576 L 18.933 21.232 18.573 21.216 L 18.213 21.200 18.198 20.840 L 18.182 20.480 17.840 20.480 L 17.498 20.480 17.482 20.120 L 17.467 19.760 16.733 19.745 L 16.000 19.730 16.000 20.452 L 16.000 21.173 15.653 21.173 L 15.307 21.173 15.307 20.827 L 15.307 20.480 14.187 20.480 L 13.067 20.480 13.067 21.200 L 13.067 21.920 13.440 21.920 L 13.813 21.920 13.813 21.573 L 13.813 21.227 14.160 21.227 L 14.507 21.227 14.507 21.573 L 14.507 21.920 14.880 21.920 L 15.253 21.920 15.253 22.667 L 15.253 23.413 14.880 23.413 L 14.507 23.413 14.507 23.787 L 14.507 24.160 13.787 24.160 L 13.067 24.160 13.067 23.040 L 13.067 21.920 12.693 21.920 L 12.320 21.920 12.320 24.133 L 12.320 26.347 9.760 26.347 L 7.200 26.347 7.200 23.789 L 7.200 21.232 7.560 21.216 L 7.920 21.200 7.936 20.840 L 7.952 20.480 8.293 20.480 L 8.635 20.480 8.651 20.840 L 8.667 21.200 9.387 21.200 L 10.107 21.200 10.122 20.840 L 10.138 20.480 10.509 20.480 L 10.880 20.480 10.880 19.733 L 10.880 18.987 10.507 18.987 L 10.133 18.987 10.133 18.640 L 10.133 18.293 9.760 18.293 L 9.387 18.293 9.387 17.920 L 9.387 17.547 9.040 17.547 L 8.693 17.547 8.693 17.200 L 8.693 16.853 8.320 16.853 L 7.947 16.853 7.947 16.480 L 7.947 16.107 7.573 16.107 L 7.200 16.107 7.200 15.733 L 7.200 15.360 7.573 15.360 L 7.947 15.360 7.947 15.733 M18.187 15.733 L 18.187 16.107 17.840 16.107 L 17.493 16.107 17.493 15.733 L 17.493 15.360 17.840 15.360 L 18.187 15.360 18.187 15.733 M23.307 15.733 L 23.307 16.107 22.960 16.107 L 22.613 16.107 22.613 15.733 L 22.613 15.360 22.960 15.360 L 23.307 15.360 23.307 15.733 M7.893 17.200 L 7.893 17.547 8.267 17.547 L 8.640 17.547 8.640 18.293 L 8.640 19.040 8.267 19.040 L 7.893 19.040 7.893 19.760 L 7.893 20.480 7.547 20.480 L 7.200 20.480 7.200 18.667 L 7.200 16.853 7.547 16.853 L 7.893 16.853 7.893 17.200 M9.387 17.200 L 9.387 17.547 9.760 17.547 L 10.133 17.547 10.133 17.200 L 10.133 16.853 9.760 16.853 L 9.387 16.853 9.387 17.200 M21.132 17.933 L 21.147 19.013 21.507 19.029 L 21.867 19.045 21.867 18.669 L 21.867 18.293 22.240 18.293 L 22.613 18.293 22.613 17.920 L 22.613 17.547 22.240 17.547 L 21.867 17.547 21.867 17.200 L 21.867 16.853 21.492 16.853 L 21.118 16.853 21.132 17.933 M11.573 17.920 L 11.573 18.293 11.227 18.293 L 10.880 18.293 10.880 18.640 L 10.880 18.987 11.253 18.987 L 11.627 18.987 11.627 18.640 L 11.627 18.293 11.973 18.293 L 12.320 18.293 12.320 17.920 L 12.320 17.547 11.947 17.547 L 11.573 17.547 11.573 17.920 M16.000 17.920 L 16.000 18.293 16.373 18.293 L 16.747 18.293 16.747 17.920 L 16.747 17.547 16.373 17.547 L 16.000 17.547 16.000 17.920 M11.573 19.387 L 11.573 19.733 11.947 19.733 L 12.320 19.733 12.320 19.387 L 12.320 19.040 11.947 19.040 L 11.573 19.040 11.573 19.387 M10.880 20.853 L 10.880 21.227 11.600 21.227 L 12.320 21.227 12.320 20.853 L 12.320 20.480 11.600 20.480 L 10.880 20.480 10.880 20.853 M24.800 20.853 L 24.800 21.227 24.080 21.227 L 23.360 21.227 23.360 20.853 L 23.360 20.480 24.080 20.480 L 24.800 20.480 24.800 20.853 M17.440 22.320 L 17.440 23.413 17.096 23.413 L 16.752 23.413 16.736 23.773 L 16.720 24.133 16.360 24.149 L 16.000 24.165 16.000 25.258 L 16.000 26.352 15.640 26.336 L 15.280 26.320 15.265 25.587 L 15.250 24.853 14.905 24.853 L 14.560 24.853 14.560 24.507 L 14.560 24.160 15.280 24.160 L 16.000 24.160 16.000 23.787 L 16.000 23.413 16.373 23.413 L 16.747 23.413 16.747 22.320 L 16.747 21.227 17.093 21.227 L 17.440 21.227 17.440 22.320 M7.947 23.760 L 7.947 25.601 9.773 25.587 L 11.600 25.573 11.600 23.760 L 11.600 21.947 9.773 21.933 L 7.947 21.919 7.947 23.760 M10.880 23.760 L 10.880 24.853 9.787 24.853 L 8.693 24.853 8.693 23.760 L 8.693 22.667 9.787 22.667 L 10.880 22.667 10.880 23.760 M13.813 23.042 L 13.813 23.418 14.173 23.402 L 14.533 23.387 14.549 23.027 L 14.565 22.667 14.189 22.667 L 13.813 22.667 13.813 23.042 M23.307 23.760 L 23.307 24.853 22.213 24.853 L 21.120 24.853 21.120 23.760 L 21.120 22.667 22.213 22.667 L 23.307 22.667 23.307 23.760 M18.187 24.507 L 18.187 24.853 17.842 24.853 L 17.496 24.853 17.482 25.587 L 17.467 26.320 17.107 26.336 L 16.747 26.352 16.747 25.602 L 16.747 24.853 17.120 24.853 L 17.493 24.853 17.493 24.507 L 17.493 24.160 17.840 24.160 L 18.187 24.160 18.187 24.507 M13.802 25.587 L 13.787 26.320 13.427 26.336 L 13.067 26.352 13.067 25.602 L 13.067 24.853 13.442 24.853 L 13.816 24.853 13.802 25.587 " stroke="none" fill-rule="evenodd" fill="black"></path></svg>