<svg width="32" height="32" xmlns="http://www.w3.org/2000/svg"><path d="M14.933 0.034 C 10.237 0.384,6.020 2.671,3.211 6.391 C 1.590 8.538,0.590 10.959,0.146 13.813 C -0.017 14.858,-0.017 17.142,0.146 18.187 C 0.830 22.578,2.950 26.177,6.391 28.787 C 8.515 30.398,10.963 31.410,13.813 31.854 C 14.858 32.017,17.142 32.017,18.187 31.854 C 20.149 31.549,21.935 30.970,23.505 30.132 C 26.290 28.646,28.646 26.290,30.132 23.505 C 30.970 21.935,31.549 20.149,31.854 18.187 C 32.017 17.142,32.017 14.858,31.854 13.813 C 31.410 10.961,30.399 8.515,28.784 6.386 C 26.139 2.901,22.361 0.710,18.000 0.132 C 17.376 0.050,15.520 -0.010,14.933 0.034 M15.716 5.076 C 15.838 5.156,15.973 5.311,16.039 5.447 C 16.102 5.575,16.725 7.438,17.423 9.586 L 18.693 13.492 21.909 13.493 C 25.382 13.493,25.265 13.484,25.541 13.780 C 25.727 13.979,25.757 14.385,25.606 14.631 C 25.381 14.995,25.462 14.987,22.165 14.987 C 20.534 14.987,19.200 15.005,19.200 15.027 C 19.200 15.049,19.394 15.649,19.631 16.360 L 20.062 17.653 22.604 17.654 C 25.030 17.654,25.154 17.658,25.317 17.758 C 25.557 17.904,25.662 18.090,25.662 18.368 C 25.662 18.682,25.523 18.909,25.251 19.041 C 25.044 19.141,24.916 19.147,22.790 19.147 L 20.547 19.147 21.392 21.720 C 21.858 23.135,22.238 24.377,22.238 24.480 C 22.237 24.945,21.882 25.346,21.388 25.440 C 20.983 25.517,12.466 25.512,12.105 25.435 C 11.115 25.222,10.953 23.883,11.867 23.461 C 12.068 23.368,12.302 23.362,15.960 23.361 C 18.094 23.361,19.840 23.342,19.840 23.320 C 19.840 23.298,19.525 22.350,19.139 21.213 L 18.439 19.147 16.818 19.147 C 15.036 19.147,14.961 19.135,14.704 18.830 C 14.516 18.606,14.500 18.171,14.671 17.953 C 14.897 17.666,14.973 17.653,16.468 17.653 C 17.228 17.653,17.862 17.640,17.879 17.623 C 17.895 17.607,17.714 17.007,17.475 16.290 L 17.041 14.987 16.092 14.987 C 15.022 14.987,14.844 14.946,14.668 14.657 C 14.530 14.430,14.527 14.055,14.661 13.836 C 14.831 13.556,15.045 13.493,15.832 13.493 L 16.528 13.493 15.835 11.430 C 15.453 10.296,15.124 9.339,15.104 9.303 C 15.083 9.268,14.267 11.678,13.291 14.660 C 12.314 17.641,11.166 21.143,10.740 22.443 C 10.093 24.414,9.937 24.838,9.797 24.997 C 9.591 25.231,9.362 25.333,9.040 25.333 C 8.494 25.333,8.099 24.936,8.066 24.354 C 8.048 24.043,8.203 23.555,11.093 14.773 C 12.822 9.520,14.193 5.437,14.265 5.328 C 14.548 4.898,15.261 4.774,15.716 5.076 " stroke="none" fill-rule="evenodd" fill="black"></path></svg>