<svg width="32" height="32" xmlns="http://www.w3.org/2000/svg"><path d="M14.933 0.034 C 10.237 0.384,6.020 2.671,3.211 6.391 C 1.590 8.538,0.590 10.959,0.146 13.813 C -0.017 14.858,-0.017 17.142,0.146 18.187 C 0.830 22.578,2.950 26.177,6.391 28.787 C 8.515 30.398,10.963 31.410,13.813 31.854 C 14.858 32.017,17.142 32.017,18.187 31.854 C 20.149 31.549,21.935 30.970,23.505 30.132 C 26.290 28.646,28.646 26.290,30.132 23.505 C 30.970 21.935,31.549 20.149,31.854 18.187 C 32.017 17.142,32.017 14.858,31.854 13.813 C 31.410 10.961,30.399 8.515,28.784 6.386 C 26.139 2.901,22.361 0.710,18.000 0.132 C 17.376 0.050,15.520 -0.010,14.933 0.034 M19.114 7.080 C 19.129 7.131,19.336 7.905,19.573 8.800 C 19.810 9.695,20.040 10.553,20.084 10.707 L 20.163 10.987 21.388 10.987 C 22.062 10.987,22.613 11.000,22.613 11.017 C 22.613 11.033,22.238 11.695,21.780 12.486 L 20.947 13.925 21.359 15.456 C 21.585 16.298,22.117 18.283,22.540 19.867 C 22.964 21.451,23.323 22.789,23.339 22.841 C 23.366 22.930,23.293 22.934,22.128 22.921 L 20.889 22.907 20.257 20.560 C 19.910 19.269,19.548 17.919,19.453 17.560 C 19.358 17.201,19.268 16.907,19.253 16.908 C 19.239 16.908,18.447 18.264,17.493 19.920 L 15.760 22.931 14.384 22.932 C 13.626 22.933,13.018 22.915,13.031 22.893 C 13.044 22.871,13.655 21.809,14.388 20.533 C 15.121 19.257,16.322 17.176,17.056 15.908 L 18.392 13.603 17.960 11.976 L 17.528 10.349 17.412 10.521 C 17.349 10.616,16.718 11.701,16.011 12.933 C 15.304 14.165,13.719 16.913,12.488 19.040 L 10.250 22.907 8.885 22.921 C 8.134 22.929,7.520 22.924,7.520 22.911 C 7.520 22.898,8.327 21.487,9.314 19.777 C 14.874 10.137,16.502 7.316,16.597 7.160 L 16.702 6.987 17.894 6.987 C 18.983 6.987,19.089 6.995,19.114 7.080 " stroke="none" fill-rule="evenodd" fill="black"></path></svg>