<svg viewBox="0 0 32 32" xmlns="http://www.w3.org/2000/svg"><path d="M14.933 0.034 C 10.237 0.384,6.020 2.671,3.211 6.391 C 1.590 8.538,0.590 10.959,0.146 13.813 C -0.017 14.858,-0.017 17.142,0.146 18.187 C 0.830 22.578,2.950 26.177,6.391 28.787 C 8.515 30.398,10.963 31.410,13.813 31.854 C 14.858 32.017,17.142 32.017,18.187 31.854 C 20.149 31.549,21.935 30.970,23.505 30.132 C 26.290 28.646,28.646 26.290,30.132 23.505 C 30.970 21.935,31.549 20.149,31.854 18.187 C 32.017 17.142,32.017 14.858,31.854 13.813 C 31.410 10.961,30.399 8.515,28.784 6.386 C 26.139 2.901,22.361 0.710,18.000 0.132 C 17.376 0.050,15.520 -0.010,14.933 0.034 M16.696 6.233 C 18.023 6.683,19.122 7.140,20.637 7.874 C 22.986 9.011,24.697 10.077,26.523 11.542 L 26.992 11.919 26.959 12.133 C 26.888 12.589,26.545 13.903,26.316 14.595 C 24.504 20.075,21.125 23.994,16.723 25.724 C 16.374 25.861,16.048 25.973,15.997 25.973 C 15.854 25.973,14.978 25.624,14.267 25.284 C 12.815 24.590,11.604 23.720,10.373 22.483 C 8.284 20.387,6.758 17.830,5.708 14.667 C 5.472 13.958,5.105 12.564,5.045 12.152 L 5.009 11.905 5.655 11.392 C 7.598 9.851,9.963 8.453,12.613 7.280 C 13.848 6.734,15.721 6.038,15.976 6.030 C 16.036 6.028,16.360 6.120,16.696 6.233 M15.333 7.222 C 12.756 8.145,10.044 9.493,7.964 10.885 C 7.503 11.194,6.585 11.865,6.103 12.245 C 6.041 12.294,6.058 12.418,6.212 13.018 C 6.531 14.270,7.028 15.641,7.590 16.823 L 7.919 17.512 7.982 16.815 C 8.129 15.187,8.717 13.862,9.785 12.755 C 10.917 11.580,12.250 10.952,13.939 10.798 L 14.357 10.760 13.972 10.372 L 13.586 9.983 13.953 9.944 C 14.410 9.894,15.652 9.991,16.390 10.134 C 17.643 10.376,18.801 10.781,20.053 11.418 C 21.166 11.983,21.138 11.962,21.106 12.245 C 21.080 12.481,21.082 12.486,21.300 12.596 C 22.054 12.980,22.677 13.576,22.996 14.220 C 23.187 14.605,23.216 14.714,23.240 15.129 C 23.255 15.401,23.240 15.730,23.203 15.907 C 23.027 16.752,22.380 17.511,21.687 17.683 C 21.544 17.719,21.538 17.713,21.581 17.594 C 21.606 17.524,21.626 17.366,21.625 17.242 C 21.623 16.814,21.212 16.549,20.632 16.602 C 20.017 16.657,19.565 17.095,19.382 17.812 C 19.213 18.477,19.382 19.055,19.885 19.534 C 20.340 19.966,21.050 20.252,21.909 20.350 L 22.225 20.385 22.465 20.073 C 23.316 18.965,24.290 17.206,24.896 15.680 C 25.389 14.438,25.972 12.480,25.903 12.300 C 25.862 12.193,24.586 11.245,23.756 10.706 C 21.818 9.444,19.319 8.204,16.987 7.346 C 16.547 7.184,16.139 7.039,16.080 7.022 C 16.021 7.006,15.690 7.094,15.333 7.222 M17.947 11.974 C 18.230 12.217,18.561 12.392,19.005 12.535 L 19.371 12.653 19.615 12.481 C 19.865 12.305,19.910 12.300,20.373 12.403 C 20.622 12.458,20.160 12.227,19.733 12.083 C 19.296 11.935,18.420 11.786,18.000 11.789 L 17.733 11.791 17.947 11.974 " stroke="none" fill-rule="evenodd" fill="black"></path></svg>