<svg width="32" height="32" xmlns="http://www.w3.org/2000/svg"><path d="M14.933 0.034 C 10.237 0.384,6.020 2.671,3.211 6.391 C 1.590 8.538,0.590 10.959,0.146 13.813 C -0.017 14.858,-0.017 17.142,0.146 18.187 C 0.830 22.578,2.950 26.177,6.391 28.787 C 8.515 30.398,10.963 31.410,13.813 31.854 C 14.858 32.017,17.142 32.017,18.187 31.854 C 20.149 31.549,21.935 30.970,23.505 30.132 C 26.290 28.646,28.646 26.290,30.132 23.505 C 30.970 21.935,31.549 20.149,31.854 18.187 C 32.017 17.142,32.017 14.858,31.854 13.813 C 31.410 10.961,30.399 8.515,28.784 6.386 C 26.139 2.901,22.361 0.710,18.000 0.132 C 17.376 0.050,15.520 -0.010,14.933 0.034 M17.544 5.152 C 17.879 5.197,18.173 5.245,18.197 5.260 C 18.275 5.308,18.242 5.364,18.129 5.372 C 17.951 5.386,17.468 5.792,16.877 6.425 C 16.575 6.749,16.276 7.080,16.213 7.161 L 16.098 7.308 15.193 6.377 C 14.696 5.866,14.218 5.416,14.131 5.377 C 13.959 5.301,13.934 5.253,14.045 5.211 C 14.118 5.183,14.927 5.081,15.360 5.046 C 15.769 5.013,16.904 5.068,17.544 5.152 M12.380 6.093 C 12.087 6.423,11.131 7.497,10.256 8.480 L 8.665 10.267 8.426 10.253 C 8.281 10.244,8.104 10.277,7.976 10.336 L 7.765 10.432 7.323 10.189 C 7.080 10.056,6.881 9.935,6.881 9.920 C 6.880 9.849,7.574 8.983,8.000 8.525 C 9.157 7.279,10.571 6.335,12.218 5.708 C 12.523 5.592,12.805 5.496,12.843 5.495 C 12.882 5.494,12.674 5.763,12.380 6.093 M20.027 5.802 C 21.392 6.346,22.649 7.181,23.737 8.265 C 24.263 8.789,25.175 9.901,25.173 10.017 C 25.172 10.037,24.989 10.158,24.766 10.285 L 24.359 10.517 24.085 10.378 C 23.935 10.302,23.739 10.240,23.649 10.240 C 23.502 10.240,23.290 10.019,21.437 7.941 C 20.309 6.676,19.379 5.621,19.369 5.595 C 19.352 5.548,19.539 5.607,20.027 5.802 M20.667 8.053 C 21.747 9.271,22.701 10.342,22.787 10.434 C 22.920 10.577,22.934 10.619,22.883 10.714 C 22.823 10.826,22.804 10.827,20.691 10.827 C 19.519 10.827,18.560 10.816,18.560 10.803 C 18.560 10.789,18.586 10.721,18.619 10.650 C 18.665 10.548,18.658 10.484,18.584 10.341 C 18.454 10.089,18.089 9.616,17.523 8.968 C 16.783 8.121,16.822 8.189,16.969 8.009 C 17.904 6.867,18.286 6.337,18.463 5.936 C 18.552 5.737,18.582 5.707,18.637 5.767 C 18.674 5.807,19.587 6.836,20.667 8.053 M14.072 6.629 C 14.168 6.769,14.486 7.175,14.778 7.531 C 15.296 8.163,15.305 8.180,15.214 8.289 C 15.163 8.350,14.952 8.592,14.745 8.827 C 14.180 9.469,13.903 9.809,13.683 10.133 C 13.512 10.384,13.488 10.454,13.516 10.626 L 13.548 10.827 11.364 10.827 C 10.054 10.827,9.167 10.807,9.149 10.776 C 9.131 10.749,10.117 9.607,11.340 8.238 L 13.562 5.751 13.728 6.062 C 13.820 6.233,13.975 6.488,14.072 6.629 M17.329 10.333 L 17.840 10.826 16.089 10.826 L 14.339 10.827 15.209 9.918 L 16.080 9.009 16.449 9.424 C 16.652 9.653,17.048 10.062,17.329 10.333 M7.021 10.749 C 7.420 10.967,7.467 11.008,7.467 11.146 C 7.467 11.348,7.554 11.572,7.690 11.717 L 7.800 11.834 6.606 15.274 C 5.950 17.166,5.398 18.697,5.378 18.677 C 5.330 18.626,5.187 17.880,5.121 17.335 C 5.039 16.655,5.054 15.115,5.149 14.460 C 5.298 13.432,5.597 12.398,5.989 11.557 C 6.302 10.887,6.502 10.507,6.542 10.507 C 6.561 10.507,6.776 10.616,7.021 10.749 M25.847 11.177 C 26.617 12.797,26.945 14.233,26.947 16.000 C 26.949 16.828,26.901 17.372,26.764 18.095 C 26.732 18.265,26.697 18.395,26.687 18.385 C 26.647 18.345,24.373 11.754,24.373 11.678 C 24.373 11.632,24.395 11.572,24.422 11.544 C 24.450 11.516,24.493 11.410,24.519 11.308 C 24.560 11.147,24.630 11.085,25.043 10.844 C 25.305 10.691,25.528 10.564,25.537 10.563 C 25.546 10.561,25.686 10.838,25.847 11.177 M22.969 11.647 L 23.085 11.827 19.583 17.992 C 17.656 21.383,16.062 24.152,16.041 24.145 C 16.019 24.139,14.419 21.349,12.486 17.947 L 8.970 11.760 9.056 11.613 L 9.143 11.467 15.998 11.467 L 22.853 11.468 22.969 11.647 M24.937 15.328 C 25.536 17.026,26.026 18.430,26.026 18.448 C 26.026 18.466,25.744 18.483,25.400 18.488 C 24.856 18.494,24.070 18.600,23.067 18.801 L 22.907 18.833 22.591 17.896 C 22.224 16.807,21.887 16.064,21.692 15.917 L 21.555 15.813 22.605 13.973 C 23.183 12.961,23.677 12.099,23.703 12.058 C 23.741 11.997,23.761 12.008,23.799 12.111 C 23.826 12.182,24.338 13.630,24.937 15.328 M9.488 14.013 L 10.510 15.839 10.347 15.986 C 10.154 16.161,9.860 16.822,9.486 17.920 C 9.342 18.345,9.204 18.724,9.181 18.762 C 9.147 18.817,8.989 18.803,8.396 18.693 C 7.987 18.617,7.323 18.527,6.918 18.493 C 6.323 18.443,6.189 18.417,6.213 18.356 C 6.253 18.251,8.090 12.968,8.253 12.489 C 8.326 12.274,8.404 12.118,8.426 12.142 C 8.448 12.167,8.926 13.008,9.488 14.013 M10.833 12.407 C 10.617 12.558,10.750 12.844,11.007 12.780 C 11.160 12.741,11.219 12.616,11.148 12.482 C 11.073 12.343,10.962 12.317,10.833 12.407 M14.935 12.425 C 14.805 12.555,14.800 12.606,14.910 12.716 C 15.027 12.833,15.185 12.821,15.256 12.689 C 15.328 12.554,15.294 12.452,15.151 12.376 C 15.063 12.329,15.022 12.338,14.935 12.425 M16.827 12.904 C 16.711 12.951,16.502 13.161,16.538 13.194 C 16.550 13.205,16.948 13.409,17.422 13.645 C 17.897 13.882,18.299 14.099,18.316 14.127 C 18.379 14.229,18.272 14.347,17.714 14.787 C 16.986 15.361,16.970 15.369,16.734 15.297 C 16.545 15.239,16.267 15.271,16.267 15.351 C 16.267 15.374,16.350 15.433,16.452 15.482 C 16.700 15.600,16.960 15.965,16.960 16.195 C 16.960 16.293,16.983 16.373,17.010 16.373 C 17.106 16.373,17.227 16.135,17.227 15.945 C 17.227 15.805,17.266 15.716,17.373 15.616 C 17.574 15.427,18.660 14.720,18.748 14.720 C 18.840 14.720,18.846 14.745,19.013 15.787 C 19.090 16.271,19.163 16.698,19.176 16.735 C 19.212 16.847,19.504 16.665,19.607 16.466 C 19.685 16.316,19.692 16.164,19.662 15.244 L 19.628 14.193 19.761 14.036 C 19.833 13.949,20.015 13.786,20.165 13.673 C 20.584 13.355,20.719 13.005,20.449 12.937 C 20.258 12.889,20.138 12.936,19.696 13.234 C 19.456 13.396,19.253 13.493,19.157 13.493 C 19.072 13.493,18.601 13.349,18.111 13.173 C 17.234 12.858,17.038 12.817,16.827 12.904 M13.173 13.600 C 13.093 13.751,13.193 13.920,13.363 13.920 C 13.533 13.920,13.651 13.699,13.548 13.575 C 13.452 13.459,13.241 13.473,13.173 13.600 M11.826 18.080 C 12.236 18.799,12.611 19.463,12.658 19.556 L 12.745 19.725 12.386 19.620 C 12.188 19.563,11.679 19.432,11.253 19.330 C 10.828 19.228,10.452 19.134,10.418 19.122 C 10.377 19.108,10.449 18.815,10.639 18.230 C 10.795 17.752,10.950 17.220,10.986 17.049 C 11.021 16.878,11.056 16.746,11.065 16.756 C 11.073 16.765,11.415 17.361,11.826 18.080 M21.473 18.310 C 21.607 18.715,21.706 19.059,21.691 19.073 C 21.660 19.105,19.401 19.686,19.384 19.667 C 19.374 19.655,20.841 17.076,20.981 16.859 C 21.014 16.808,21.059 16.905,21.128 17.179 C 21.183 17.396,21.338 17.905,21.473 18.310 M13.636 17.422 C 13.578 17.480,13.595 17.680,13.664 17.749 C 13.825 17.910,14.063 17.751,14.005 17.521 C 13.979 17.417,13.937 17.387,13.821 17.387 C 13.739 17.387,13.655 17.403,13.636 17.422 M26.347 19.280 C 26.410 19.505,26.403 19.546,26.240 19.960 C 25.811 21.051,24.852 22.651,24.585 22.721 C 24.512 22.740,24.375 22.771,24.280 22.790 C 24.118 22.822,24.107 22.814,24.107 22.675 C 24.107 22.482,23.954 21.906,23.623 20.846 C 23.475 20.374,23.364 19.978,23.377 19.965 C 23.389 19.953,23.744 19.862,24.166 19.763 C 25.132 19.537,25.927 19.282,26.089 19.147 C 26.157 19.090,26.228 19.043,26.246 19.042 C 26.265 19.041,26.310 19.148,26.347 19.280 M6.720 19.454 C 6.999 19.542,7.563 19.692,7.973 19.787 C 8.384 19.882,8.728 19.966,8.737 19.974 C 8.746 19.983,8.619 20.418,8.455 20.941 C 8.291 21.465,8.115 22.104,8.065 22.361 L 7.973 22.829 7.813 22.797 C 7.282 22.690,7.295 22.700,6.898 22.094 C 6.437 21.392,6.206 20.975,5.927 20.338 L 5.713 19.850 5.826 19.502 C 5.939 19.155,5.940 19.154,6.076 19.224 C 6.152 19.263,6.441 19.366,6.720 19.454 M15.544 19.683 C 15.470 19.765,15.458 19.815,15.499 19.880 C 15.607 20.050,15.719 20.083,15.837 19.976 C 15.968 19.857,15.975 19.770,15.863 19.657 C 15.750 19.545,15.663 19.552,15.544 19.683 M11.067 20.449 C 12.223 20.696,12.852 20.776,13.060 20.704 L 13.222 20.647 14.318 22.530 C 14.920 23.566,15.413 24.424,15.413 24.437 C 15.413 24.467,8.806 23.011,8.768 22.972 C 8.752 22.956,8.798 22.850,8.870 22.736 C 9.133 22.319,9.634 21.180,9.938 20.305 C 9.961 20.239,10.007 20.219,10.092 20.239 C 10.159 20.254,10.597 20.349,11.067 20.449 M22.498 21.196 C 22.713 21.737,22.993 22.361,23.120 22.583 C 23.246 22.805,23.346 22.987,23.341 22.988 C 23.337 22.988,21.833 23.321,20.000 23.728 C 18.167 24.135,16.661 24.463,16.653 24.457 C 16.646 24.450,17.134 23.579,17.737 22.521 L 18.833 20.598 18.996 20.679 C 19.198 20.780,19.619 20.729,21.067 20.429 C 21.609 20.316,22.065 20.222,22.080 20.219 C 22.095 20.216,22.283 20.656,22.498 21.196 M11.907 24.345 C 13.983 24.800,15.693 25.173,15.707 25.173 C 15.721 25.173,15.733 25.580,15.733 26.078 L 15.733 26.983 15.373 26.955 C 12.897 26.762,10.701 25.876,8.912 24.349 C 8.388 23.902,7.935 23.447,8.053 23.488 C 8.097 23.504,9.831 23.889,11.907 24.345 M23.678 23.818 C 22.677 24.839,21.103 25.824,19.684 26.317 C 18.674 26.667,17.385 26.933,16.700 26.933 L 16.427 26.933 16.427 26.057 L 16.427 25.181 16.840 25.088 C 19.179 24.567,23.878 23.529,23.918 23.525 C 23.947 23.522,23.839 23.654,23.678 23.818 " stroke="none" fill-rule="evenodd" fill="black"></path></svg>