<svg viewBox="0 0 32 32" xmlns="http://www.w3.org/2000/svg"><path d="M14.933 0.034 C 10.237 0.384,6.020 2.671,3.211 6.391 C 1.590 8.538,0.590 10.959,0.146 13.813 C -0.017 14.858,-0.017 17.142,0.146 18.187 C 0.830 22.578,2.950 26.177,6.391 28.787 C 8.515 30.398,10.963 31.410,13.813 31.854 C 14.858 32.017,17.142 32.017,18.187 31.854 C 20.149 31.549,21.935 30.970,23.505 30.132 C 26.290 28.646,28.646 26.290,30.132 23.505 C 30.970 21.935,31.549 20.149,31.854 18.187 C 32.017 17.142,32.017 14.858,31.854 13.813 C 31.410 10.961,30.399 8.515,28.784 6.386 C 26.139 2.901,22.361 0.710,18.000 0.132 C 17.376 0.050,15.520 -0.010,14.933 0.034 M20.706 10.766 C 23.276 13.372,25.513 15.650,25.677 15.828 L 25.976 16.151 25.687 16.425 C 24.630 17.424,22.892 18.519,21.461 19.086 C 17.683 20.584,13.752 20.507,10.034 18.863 C 8.776 18.307,7.352 17.360,6.170 16.294 L 6.019 16.159 6.356 15.791 C 6.820 15.285,15.966 6.031,16.004 6.028 C 16.021 6.027,18.137 8.159,20.706 10.766 M11.413 11.451 C 8.905 13.993,6.854 16.086,6.855 16.103 C 6.856 16.120,7.060 16.298,7.309 16.499 C 9.214 18.041,11.620 19.076,14.160 19.448 C 15.020 19.573,17.004 19.574,17.830 19.449 C 19.852 19.143,21.655 18.499,23.274 17.507 C 23.815 17.175,24.871 16.400,25.047 16.206 L 25.161 16.080 20.603 11.467 C 18.096 8.929,16.028 6.848,16.009 6.842 C 15.989 6.835,13.921 8.910,11.413 11.451 M16.963 14.724 C 18.220 14.824,19.577 15.122,20.741 15.554 C 21.274 15.753,22.489 16.326,22.846 16.548 L 23.052 16.676 22.709 16.893 C 21.645 17.565,20.139 18.176,18.805 18.478 L 18.232 18.607 17.888 18.397 C 17.436 18.120,16.371 17.587,15.852 17.379 C 14.001 16.634,12.346 16.282,10.437 16.229 C 9.827 16.212,9.347 16.179,9.370 16.156 C 9.442 16.086,10.697 15.586,11.220 15.418 C 13.111 14.812,15.081 14.574,16.963 14.724 M14.853 15.285 C 13.818 15.387,12.603 15.593,12.267 15.723 C 12.145 15.770,12.157 15.778,12.400 15.813 C 14.115 16.059,16.130 16.748,17.724 17.635 L 18.355 17.986 18.684 17.921 C 19.506 17.760,21.064 17.190,21.666 16.831 L 21.890 16.698 21.373 16.453 C 20.391 15.988,18.945 15.568,17.680 15.382 C 17.165 15.306,15.290 15.241,14.853 15.285 M21.553 20.093 C 21.400 20.373,20.458 21.471,19.711 22.240 C 18.296 23.697,16.030 25.973,15.994 25.973 C 15.976 25.973,15.310 25.305,14.515 24.488 L 13.070 23.002 13.801 22.937 C 16.324 22.712,18.250 22.043,20.720 20.534 C 21.189 20.247,21.580 20.010,21.589 20.006 C 21.597 20.003,21.581 20.042,21.553 20.093 M18.491 22.375 C 17.564 22.788,16.288 23.165,15.253 23.332 C 14.945 23.382,14.618 23.439,14.527 23.458 L 14.360 23.493 15.181 24.343 L 16.003 25.193 16.299 24.903 C 16.718 24.493,18.950 22.186,18.926 22.188 C 18.916 22.189,18.720 22.273,18.491 22.375 " stroke="none" fill-rule="evenodd" fill="black"></path></svg>