<svg width="32" height="32" xmlns="http://www.w3.org/2000/svg"><path d="M14.933 0.034 C 10.237 0.384,6.020 2.671,3.211 6.391 C 1.590 8.538,0.590 10.959,0.146 13.813 C -0.017 14.858,-0.017 17.142,0.146 18.187 C 0.830 22.578,2.950 26.177,6.391 28.787 C 8.515 30.398,10.963 31.410,13.813 31.854 C 14.858 32.017,17.142 32.017,18.187 31.854 C 20.149 31.549,21.935 30.970,23.505 30.132 C 26.290 28.646,28.646 26.290,30.132 23.505 C 30.970 21.935,31.549 20.149,31.854 18.187 C 32.017 17.142,32.017 14.858,31.854 13.813 C 31.410 10.961,30.399 8.515,28.784 6.386 C 26.139 2.901,22.361 0.710,18.000 0.132 C 17.376 0.050,15.520 -0.010,14.933 0.034 M16.747 7.945 C 19.841 9.567,22.408 10.912,22.450 10.935 C 22.503 10.963,22.221 11.129,21.567 11.457 L 20.606 11.938 17.116 10.126 C 15.197 9.129,13.212 8.099,12.706 7.835 L 11.785 7.356 11.799 9.550 L 11.813 11.745 12.427 12.080 C 12.764 12.265,13.793 12.825,14.714 13.324 L 16.388 14.232 15.430 14.711 L 14.472 15.191 12.583 14.187 C 11.427 13.573,10.614 13.107,10.490 12.989 C 10.378 12.882,10.228 12.670,10.157 12.517 L 10.028 12.240 10.027 8.886 C 10.027 5.545,10.027 5.532,10.142 5.347 C 10.288 5.110,10.620 4.949,10.907 4.977 C 11.062 4.992,12.668 5.808,16.747 7.945 M24.477 12.150 C 24.548 12.203,24.656 12.313,24.717 12.394 C 24.825 12.539,24.827 12.590,24.827 15.937 L 24.827 19.333 24.707 19.575 C 24.448 20.103,24.583 20.025,17.652 23.621 C 12.919 26.075,11.073 27.008,10.910 27.026 C 10.622 27.059,10.293 26.898,10.139 26.649 C 10.028 26.470,10.027 26.428,10.027 23.125 C 10.027 19.492,10.015 19.642,10.329 19.188 C 10.404 19.079,10.577 18.920,10.713 18.834 C 10.926 18.700,23.568 12.126,23.787 12.036 C 23.923 11.980,24.340 12.049,24.477 12.150 M17.440 17.334 L 11.813 20.257 11.799 22.449 L 11.785 24.642 12.044 24.511 C 13.104 23.974,23.022 18.811,23.054 18.780 C 23.076 18.758,23.088 17.766,23.081 16.576 L 23.067 14.412 17.440 17.334 " stroke="none" fill-rule="evenodd" fill="black"></path></svg>