<svg width="32" height="32" xmlns="http://www.w3.org/2000/svg"><path d="M14.933 0.034 C 10.237 0.384,6.020 2.671,3.211 6.391 C 1.590 8.538,0.590 10.959,0.146 13.813 C -0.017 14.858,-0.017 17.142,0.146 18.187 C 0.830 22.578,2.950 26.177,6.391 28.787 C 8.515 30.398,10.963 31.410,13.813 31.854 C 14.858 32.017,17.142 32.017,18.187 31.854 C 20.149 31.549,21.935 30.970,23.505 30.132 C 26.290 28.646,28.646 26.290,30.132 23.505 C 30.970 21.935,31.549 20.149,31.854 18.187 C 32.017 17.142,32.017 14.858,31.854 13.813 C 31.410 10.961,30.399 8.515,28.784 6.386 C 26.139 2.901,22.361 0.710,18.000 0.132 C 17.376 0.050,15.520 -0.010,14.933 0.034 M16.313 6.850 C 16.394 6.892,16.524 7.018,16.601 7.130 C 16.903 7.568,18.985 11.274,19.076 11.536 C 19.224 11.959,19.205 12.631,19.034 13.040 C 18.871 13.431,14.300 21.528,14.048 21.873 C 13.838 22.160,13.427 22.458,13.012 22.625 C 12.729 22.739,12.646 22.744,10.369 22.762 C 7.784 22.784,7.491 22.761,7.242 22.522 C 7.033 22.322,6.964 22.040,7.058 21.768 C 7.114 21.606,14.248 8.947,15.182 7.352 C 15.431 6.927,15.629 6.773,15.927 6.773 C 16.058 6.773,16.232 6.808,16.313 6.850 M21.712 16.361 C 21.788 16.404,21.923 16.551,22.011 16.687 C 22.407 17.296,24.875 21.573,24.941 21.766 C 25.102 22.231,24.827 22.633,24.289 22.721 C 23.869 22.790,18.713 22.789,18.341 22.720 C 17.997 22.657,17.734 22.413,17.676 22.105 C 17.645 21.938,17.672 21.843,17.848 21.500 C 18.192 20.831,20.624 16.681,20.785 16.489 C 21.011 16.219,21.377 16.168,21.712 16.361 " stroke="none" fill-rule="evenodd" fill="black"></path></svg>