<svg width="32" height="32" xmlns="http://www.w3.org/2000/svg"><path d="M14.933 0.034 C 10.237 0.384,6.020 2.671,3.211 6.391 C 1.590 8.538,0.590 10.959,0.146 13.813 C -0.017 14.858,-0.017 17.142,0.146 18.187 C 0.830 22.578,2.950 26.177,6.391 28.787 C 8.515 30.398,10.963 31.410,13.813 31.854 C 14.858 32.017,17.142 32.017,18.187 31.854 C 20.149 31.549,21.935 30.970,23.505 30.132 C 26.290 28.646,28.646 26.290,30.132 23.505 C 30.970 21.935,31.549 20.149,31.854 18.187 C 32.017 17.142,32.017 14.858,31.854 13.813 C 31.410 10.961,30.399 8.515,28.784 6.386 C 26.139 2.901,22.361 0.710,18.000 0.132 C 17.376 0.050,15.520 -0.010,14.933 0.034 M17.760 4.135 C 19.026 4.326,20.088 4.658,21.258 5.230 C 24.837 6.977,27.264 10.302,27.875 14.293 C 28.004 15.139,28.004 16.861,27.875 17.707 C 27.263 21.699,24.840 25.020,21.253 26.778 C 17.089 28.819,12.128 28.264,8.492 25.351 C 6.470 23.730,4.963 21.374,4.355 18.880 C 4.108 17.863,4.031 17.184,4.031 16.000 C 4.031 14.004,4.376 12.490,5.230 10.742 C 6.412 8.320,8.308 6.423,10.742 5.228 C 12.109 4.556,13.361 4.214,15.120 4.032 C 15.549 3.988,17.215 4.053,17.760 4.135 M15.253 4.269 C 10.557 4.542,6.445 7.664,4.892 12.136 C 4.430 13.466,4.244 14.575,4.244 16.000 C 4.244 17.047,4.300 17.572,4.516 18.557 C 5.377 22.482,8.248 25.727,12.053 27.078 C 13.445 27.572,14.503 27.753,16.000 27.753 C 17.111 27.753,17.787 27.676,18.758 27.441 C 22.617 26.506,25.752 23.682,27.078 19.947 C 27.572 18.555,27.753 17.497,27.753 16.000 C 27.753 14.503,27.572 13.445,27.078 12.053 C 25.754 8.323,22.632 5.510,18.769 4.568 C 17.708 4.309,16.433 4.201,15.253 4.269 M17.477 4.667 C 19.866 4.974,22.101 6.040,23.919 7.740 C 25.040 8.789,26.169 10.518,26.736 12.053 C 27.496 14.110,27.625 16.590,27.088 18.773 C 26.525 21.059,25.193 23.210,23.414 24.708 C 21.739 26.118,19.756 27.010,17.573 27.336 C 16.786 27.453,15.214 27.453,14.427 27.336 C 11.489 26.898,8.882 25.413,7.078 23.152 C 5.440 21.098,4.587 18.647,4.587 16.000 C 4.587 13.684,5.218 11.575,6.479 9.680 C 7.619 7.967,9.062 6.693,10.907 5.771 C 12.033 5.208,13.238 4.834,14.453 4.672 C 15.218 4.570,16.701 4.568,17.477 4.667 M15.819 9.043 C 14.994 9.463,14.435 9.890,13.570 10.758 C 12.587 11.744,11.935 12.670,11.224 14.086 C 10.951 14.628,10.240 16.338,10.240 16.451 C 10.240 16.498,9.947 16.622,9.413 16.800 C 8.959 16.952,8.587 17.104,8.588 17.138 C 8.588 17.172,8.656 17.428,8.737 17.707 L 8.886 18.213 9.269 18.195 L 9.652 18.176 9.666 19.745 L 9.680 21.315 10.600 20.677 L 11.520 20.038 11.520 19.113 L 11.520 18.187 13.907 18.187 C 15.219 18.186,16.851 18.171,17.533 18.151 C 18.611 18.121,18.773 18.127,18.773 18.196 C 18.773 18.404,18.217 19.558,17.789 20.235 L 17.490 20.711 17.952 21.483 L 18.414 22.256 18.515 22.128 C 19.134 21.340,19.788 20.082,20.265 18.761 L 20.491 18.136 21.379 18.121 L 22.267 18.107 22.330 17.787 C 22.366 17.611,22.410 17.344,22.429 17.194 L 22.464 16.920 21.605 16.948 L 20.747 16.975 20.748 16.848 C 20.749 16.777,20.775 16.624,20.808 16.507 C 20.840 16.389,20.881 15.839,20.900 15.284 L 20.933 14.274 21.547 14.081 C 21.968 13.948,22.158 13.863,22.154 13.810 C 22.143 13.656,21.851 12.693,21.816 12.693 C 21.796 12.693,21.572 12.764,21.317 12.850 L 20.853 13.007 20.853 12.090 L 20.852 11.173 20.644 10.707 C 20.285 9.899,19.789 9.309,19.173 8.955 L 18.907 8.801 17.600 8.801 L 16.293 8.802 15.819 9.043 M17.869 11.425 C 18.456 11.713,18.973 12.406,19.204 13.213 C 19.259 13.408,19.299 13.571,19.292 13.577 C 19.237 13.625,12.196 15.893,12.173 15.870 C 12.123 15.821,12.522 14.977,12.872 14.390 C 13.312 13.651,13.714 13.129,14.248 12.599 C 14.748 12.104,15.078 11.854,15.547 11.613 C 16.123 11.317,16.396 11.253,17.013 11.267 C 17.500 11.278,17.612 11.299,17.869 11.425 M19.394 15.453 C 19.375 15.769,19.317 16.231,19.266 16.480 L 19.173 16.933 17.360 16.973 C 16.363 16.994,14.944 17.006,14.207 16.999 L 12.867 16.987 16.074 15.938 C 17.837 15.362,19.314 14.888,19.355 14.885 C 19.417 14.881,19.424 14.979,19.394 15.453 " stroke="none" fill-rule="evenodd" fill="black"></path></svg>