<svg width="32" height="32" xmlns="http://www.w3.org/2000/svg"><path d="M14.933 0.034 C 10.237 0.384,6.020 2.671,3.211 6.391 C 1.590 8.538,0.590 10.959,0.146 13.813 C -0.017 14.858,-0.017 17.142,0.146 18.187 C 0.830 22.578,2.950 26.177,6.391 28.787 C 8.515 30.398,10.963 31.410,13.813 31.854 C 14.858 32.017,17.142 32.017,18.187 31.854 C 20.149 31.549,21.935 30.970,23.505 30.132 C 26.290 28.646,28.646 26.290,30.132 23.505 C 30.970 21.935,31.549 20.149,31.854 18.187 C 32.017 17.142,32.017 14.858,31.854 13.813 C 31.410 10.961,30.399 8.515,28.784 6.386 C 26.139 2.901,22.361 0.710,18.000 0.132 C 17.376 0.050,15.520 -0.010,14.933 0.034 M17.280 8.054 C 18.651 8.174,19.711 8.436,20.613 8.878 C 21.313 9.221,21.698 9.543,21.897 9.949 C 22.520 11.223,20.720 12.427,17.627 12.805 C 16.964 12.886,15.229 12.886,14.587 12.805 C 12.805 12.580,11.391 12.071,10.720 11.413 C 10.353 11.052,10.240 10.822,10.240 10.430 C 10.240 10.047,10.359 9.811,10.728 9.463 C 11.827 8.425,14.625 7.823,17.280 8.054 M11.508 12.500 C 12.088 12.793,13.238 13.104,14.320 13.261 C 15.107 13.375,17.057 13.389,17.813 13.286 C 18.957 13.131,20.022 12.851,20.795 12.505 L 21.118 12.360 21.628 12.562 C 23.753 13.403,24.370 14.642,23.212 15.744 C 21.408 17.460,15.957 18.115,11.974 17.094 C 10.130 16.622,8.898 15.882,8.584 15.059 C 8.486 14.805,8.514 14.326,8.641 14.078 C 8.862 13.645,9.389 13.179,10.027 12.852 C 10.345 12.689,11.102 12.379,11.188 12.376 C 11.226 12.374,11.370 12.431,11.508 12.500 M23.912 16.822 C 24.951 17.320,25.679 17.927,25.986 18.551 C 26.137 18.859,26.160 18.957,26.157 19.306 C 26.154 19.648,26.128 19.755,25.983 20.039 C 25.232 21.505,22.479 22.646,18.649 23.077 C 17.484 23.208,14.648 23.207,13.440 23.075 C 11.210 22.832,9.485 22.406,8.126 21.762 C 7.117 21.284,6.490 20.757,6.181 20.129 C 6.030 19.823,6.017 19.756,6.035 19.376 C 6.060 18.845,6.197 18.557,6.653 18.074 C 7.132 17.566,7.899 17.088,8.817 16.724 L 9.180 16.580 9.697 16.846 C 10.729 17.376,12.225 17.768,13.920 17.954 C 14.934 18.065,17.249 18.081,18.107 17.982 C 20.000 17.766,21.501 17.366,22.667 16.767 C 23.202 16.492,23.229 16.494,23.912 16.822 " stroke="none" fill-rule="evenodd" fill="black"></path></svg>