<svg viewBox="0 0 32 32" xmlns="http://www.w3.org/2000/svg"><path d="M14.933 0.034 C 10.237 0.384,6.020 2.671,3.211 6.391 C 1.590 8.538,0.590 10.959,0.146 13.813 C -0.017 14.858,-0.017 17.142,0.146 18.187 C 0.830 22.578,2.950 26.177,6.391 28.787 C 8.515 30.398,10.963 31.410,13.813 31.854 C 14.858 32.017,17.142 32.017,18.187 31.854 C 20.149 31.549,21.935 30.970,23.505 30.132 C 26.290 28.646,28.646 26.290,30.132 23.505 C 30.970 21.935,31.549 20.149,31.854 18.187 C 32.017 17.142,32.017 14.858,31.854 13.813 C 31.410 10.961,30.399 8.515,28.784 6.386 C 26.139 2.901,22.361 0.710,18.000 0.132 C 17.376 0.050,15.520 -0.010,14.933 0.034 M20.987 6.177 C 22.876 6.717,24.338 8.212,24.832 10.107 C 24.953 10.571,24.971 10.744,24.969 11.441 C 24.963 13.124,24.569 14.073,23.323 15.403 L 22.780 15.984 23.075 16.272 C 23.505 16.693,24.099 17.503,24.385 18.057 C 25.169 19.576,25.188 21.333,24.435 22.902 C 23.605 24.634,22.051 25.771,20.240 25.972 C 19.871 26.013,17.748 26.026,13.360 26.015 L 7.013 26.000 7.000 17.827 L 6.986 9.653 8.800 9.653 L 10.613 9.653 10.613 7.838 L 10.613 6.024 15.587 6.039 L 20.560 6.055 20.987 6.177 M12.439 8.731 L 12.453 9.627 16.293 9.653 L 20.133 9.680 20.402 9.822 C 20.729 9.995,21.089 10.374,21.245 10.711 C 21.337 10.911,21.360 11.059,21.359 11.467 C 21.358 12.245,21.370 12.228,19.377 14.260 L 17.657 16.013 19.322 17.711 C 21.233 19.661,21.295 19.746,21.325 20.449 C 21.339 20.791,21.319 20.943,21.228 21.184 C 21.079 21.583,20.716 21.982,20.331 22.171 L 20.027 22.320 15.320 22.334 L 10.613 22.349 10.613 16.908 L 10.613 11.467 9.707 11.467 L 8.800 11.467 8.800 17.813 L 8.800 24.160 14.467 24.159 C 20.662 24.158,20.472 24.167,21.107 23.846 C 22.044 23.374,22.716 22.559,23.048 21.493 C 23.236 20.894,23.223 20.029,23.020 19.441 C 22.732 18.610,22.346 18.095,21.073 16.840 L 20.220 16.000 20.891 15.320 C 22.160 14.034,22.670 13.444,22.862 13.039 C 23.340 12.033,23.312 10.751,22.791 9.744 C 22.651 9.473,22.457 9.226,22.136 8.905 C 21.673 8.442,21.330 8.221,20.708 7.985 C 20.402 7.869,20.370 7.868,16.412 7.852 L 12.424 7.836 12.439 8.731 M12.427 16.000 L 12.427 20.533 15.978 20.533 L 19.529 20.533 17.339 18.307 C 16.135 17.082,15.147 16.060,15.143 16.035 C 15.139 16.009,16.136 14.971,17.359 13.728 L 19.582 11.467 16.004 11.467 L 12.427 11.467 12.427 16.000 " stroke="none" fill-rule="evenodd" fill="black"></path></svg>