<svg viewBox="0 0 32 32" xmlns="http://www.w3.org/2000/svg"><path d="M14.933 0.034 C 10.237 0.384,6.020 2.671,3.211 6.391 C 1.590 8.538,0.590 10.959,0.146 13.813 C -0.017 14.858,-0.017 17.142,0.146 18.187 C 0.830 22.578,2.950 26.177,6.391 28.787 C 8.515 30.398,10.963 31.410,13.813 31.854 C 14.858 32.017,17.142 32.017,18.187 31.854 C 20.149 31.549,21.935 30.970,23.505 30.132 C 26.290 28.646,28.646 26.290,30.132 23.505 C 30.970 21.935,31.549 20.149,31.854 18.187 C 32.017 17.142,32.017 14.858,31.854 13.813 C 31.410 10.961,30.399 8.515,28.784 6.386 C 26.139 2.901,22.361 0.710,18.000 0.132 C 17.376 0.050,15.520 -0.010,14.933 0.034 M23.446 5.534 C 23.875 5.754,24.221 6.107,24.438 6.547 C 24.603 6.883,24.613 6.938,24.612 7.466 C 24.611 7.969,24.596 8.058,24.463 8.330 C 24.234 8.800,23.895 9.140,23.425 9.372 C 23.025 9.570,23.008 9.573,22.398 9.573 C 21.925 9.573,21.754 9.592,21.679 9.653 C 21.597 9.721,18.261 13.358,17.640 14.058 C 17.530 14.182,17.440 14.330,17.440 14.388 C 17.440 14.446,17.554 14.597,17.693 14.723 C 18.586 15.535,19.253 16.619,19.563 17.760 C 19.687 18.216,19.701 18.365,19.703 19.253 C 19.707 20.378,19.636 20.766,19.251 21.726 C 19.134 22.018,19.050 22.295,19.065 22.342 C 19.080 22.389,19.381 22.715,19.734 23.067 L 20.375 23.707 21.028 23.707 C 21.622 23.707,21.707 23.719,21.981 23.848 C 23.457 24.540,23.357 26.680,21.822 27.256 C 20.966 27.577,19.997 27.209,19.545 26.392 C 19.398 26.126,19.386 26.064,19.377 25.493 C 19.372 25.156,19.366 24.858,19.364 24.832 C 19.357 24.739,18.218 23.627,18.131 23.627 C 18.082 23.627,17.852 23.784,17.621 23.977 C 15.974 25.349,14.270 25.800,12.321 25.378 C 11.004 25.093,9.971 24.533,9.109 23.636 C 8.025 22.507,7.465 21.208,7.378 19.616 C 7.213 16.607,9.192 14.007,12.198 13.280 C 12.469 13.215,12.719 13.127,12.755 13.084 C 12.836 12.985,12.853 10.774,12.773 10.558 C 12.744 10.478,12.588 10.306,12.427 10.177 C 11.323 9.292,11.513 7.646,12.788 7.036 C 13.165 6.856,13.797 6.833,14.200 6.985 C 14.602 7.137,15.044 7.542,15.238 7.937 C 15.367 8.200,15.387 8.302,15.387 8.720 C 15.387 9.129,15.366 9.245,15.244 9.505 C 15.160 9.684,14.996 9.905,14.849 10.038 C 14.711 10.164,14.529 10.331,14.445 10.409 L 14.293 10.552 14.293 11.803 C 14.293 12.759,14.310 13.067,14.362 13.111 C 14.400 13.142,14.620 13.207,14.852 13.255 C 15.084 13.303,15.425 13.399,15.611 13.469 C 15.797 13.539,15.985 13.582,16.029 13.565 C 16.074 13.548,16.823 12.751,17.695 11.794 C 18.567 10.837,19.574 9.735,19.933 9.344 C 20.293 8.953,20.587 8.596,20.587 8.551 C 20.587 8.507,20.536 8.302,20.473 8.097 C 20.194 7.178,20.543 6.164,21.303 5.681 C 21.754 5.394,21.989 5.334,22.587 5.351 C 23.064 5.365,23.154 5.384,23.446 5.534 " stroke="none" fill-rule="evenodd" fill="black"></path></svg>