<svg viewBox="0 0 32 32" xmlns="http://www.w3.org/2000/svg"><path d="M14.933 0.038 C 14.394 0.071,13.366 0.216,12.693 0.354 C 8.101 1.295,4.063 4.346,1.836 8.557 C 1.009 10.119,0.450 11.858,0.146 13.813 C -0.017 14.858,-0.017 17.142,0.146 18.187 C 0.590 21.039,1.601 23.485,3.217 25.614 C 5.556 28.697,8.847 30.809,12.582 31.623 C 13.834 31.896,14.509 31.966,15.947 31.970 C 17.369 31.974,17.890 31.925,19.166 31.672 C 21.886 31.132,24.390 29.898,26.486 28.068 C 29.528 25.410,31.375 21.914,31.901 17.813 C 32.007 16.993,31.991 14.821,31.874 13.973 C 31.227 9.311,28.798 5.372,24.960 2.761 C 22.028 0.767,18.532 -0.183,14.933 0.038 M20.034 7.593 C 22.421 7.942,23.733 9.146,23.942 11.180 C 24.154 13.241,23.110 14.816,21.196 15.324 L 20.738 15.446 21.310 15.587 C 22.884 15.977,23.879 16.895,24.269 18.317 C 24.486 19.107,24.399 20.399,24.075 21.197 C 23.502 22.605,22.084 23.560,19.974 23.957 C 19.418 24.061,19.153 24.068,15.027 24.091 L 10.667 24.116 10.667 21.738 L 10.667 19.360 12.346 19.360 L 14.024 19.360 14.039 20.387 L 14.053 21.413 16.347 21.410 C 18.291 21.407,18.694 21.394,18.994 21.319 C 19.794 21.120,20.360 20.716,20.606 20.167 C 21.067 19.139,20.842 18.035,20.062 17.504 C 19.514 17.131,19.929 17.152,12.787 17.134 L 6.347 17.117 6.347 15.785 L 6.347 14.453 8.507 14.453 L 10.667 14.453 10.667 10.955 L 10.667 7.457 15.053 7.482 C 18.733 7.502,19.536 7.520,20.034 7.593 M14.053 10.196 C 14.038 10.235,14.032 11.203,14.039 12.347 L 14.053 14.427 16.240 14.425 C 18.185 14.424,18.465 14.413,18.773 14.327 C 19.571 14.105,20.039 13.732,20.273 13.131 C 20.444 12.692,20.442 11.889,20.268 11.443 C 20.039 10.855,19.539 10.462,18.764 10.259 C 18.300 10.138,14.097 10.081,14.053 10.196 " stroke="none" fill-rule="evenodd" fill="black"></path></svg>