<svg viewBox="0 0 32 32" xmlns="http://www.w3.org/2000/svg"><path d="M14.933 0.034 C 10.237 0.384,6.020 2.671,3.211 6.391 C 1.590 8.538,0.590 10.959,0.146 13.813 C -0.017 14.858,-0.017 17.142,0.146 18.187 C 0.830 22.578,2.950 26.177,6.391 28.787 C 8.515 30.398,10.963 31.410,13.813 31.854 C 14.858 32.017,17.142 32.017,18.187 31.854 C 20.149 31.549,21.935 30.970,23.505 30.132 C 26.290 28.646,28.646 26.290,30.132 23.505 C 30.970 21.935,31.549 20.149,31.854 18.187 C 32.017 17.142,32.017 14.858,31.854 13.813 C 31.410 10.961,30.399 8.515,28.784 6.386 C 26.139 2.901,22.361 0.710,18.000 0.132 C 17.376 0.050,15.520 -0.010,14.933 0.034 M22.720 14.473 C 22.720 20.966,22.717 21.041,22.418 21.995 C 21.476 24.996,18.499 26.989,15.422 26.678 C 12.336 26.365,9.909 24.103,9.410 21.073 C 9.272 20.234,9.323 19.159,9.539 18.336 C 10.034 16.456,11.313 14.880,13.055 14.005 C 14.800 13.129,16.973 13.099,18.820 13.925 L 19.200 14.094 19.200 16.305 L 19.200 18.516 18.931 18.114 C 18.460 17.409,17.776 16.898,16.987 16.660 C 16.755 16.590,16.490 16.563,16.027 16.563 C 15.563 16.563,15.298 16.590,15.067 16.660 C 14.143 16.938,13.309 17.634,12.919 18.453 C 12.243 19.869,12.490 21.394,13.570 22.469 C 14.231 23.127,15.057 23.476,15.973 23.483 C 16.985 23.491,17.724 23.186,18.458 22.458 C 18.839 22.080,18.957 21.921,19.134 21.547 C 19.517 20.738,19.493 21.311,19.493 12.894 L 19.493 5.281 21.107 6.893 L 22.720 8.506 22.720 14.473 M12.547 13.422 C 12.583 13.406,12.837 13.295,13.110 13.176 C 14.848 12.414,17.050 12.395,18.810 13.127 L 19.200 13.290 19.200 13.549 L 19.200 13.807 18.806 13.628 C 17.854 13.194,17.033 13.046,15.787 13.082 C 14.508 13.119,13.782 13.302,12.736 13.852 C 11.292 14.611,10.104 15.950,9.487 17.513 L 9.337 17.893 9.335 13.181 L 9.333 8.469 10.893 6.909 L 12.453 5.349 12.467 9.400 C 12.478 12.606,12.495 13.445,12.547 13.422 " stroke="none" fill-rule="evenodd" fill="black"></path></svg>