<svg viewBox="0 0 32 32" xmlns="http://www.w3.org/2000/svg"><path d="M14.933 0.034 C 10.237 0.384,6.020 2.671,3.211 6.391 C 1.590 8.538,0.590 10.959,0.146 13.813 C -0.017 14.858,-0.017 17.142,0.146 18.187 C 0.830 22.578,2.950 26.177,6.391 28.787 C 8.515 30.398,10.963 31.410,13.813 31.854 C 14.858 32.017,17.142 32.017,18.187 31.854 C 20.149 31.549,21.935 30.970,23.505 30.132 C 26.290 28.646,28.646 26.290,30.132 23.505 C 30.970 21.935,31.549 20.149,31.854 18.187 C 32.017 17.142,32.017 14.858,31.854 13.813 C 31.410 10.961,30.399 8.515,28.784 6.386 C 26.139 2.901,22.361 0.710,18.000 0.132 C 17.376 0.050,15.520 -0.010,14.933 0.034 M10.667 7.112 L 11.920 7.173 11.920 16.000 L 11.920 24.827 10.613 24.889 C 9.895 24.923,9.133 24.960,8.920 24.970 L 8.533 24.989 8.533 24.814 C 8.533 24.704,8.560 24.640,8.605 24.640 C 8.644 24.640,8.823 24.567,9.001 24.478 C 9.840 24.059,10.396 23.021,10.559 21.573 C 10.631 20.932,10.630 10.772,10.558 10.267 C 10.411 9.239,10.096 8.538,9.525 7.971 C 9.316 7.764,9.009 7.525,8.840 7.438 C 8.591 7.309,8.534 7.255,8.533 7.146 C 8.533 6.993,8.304 6.996,10.667 7.112 M16.773 7.094 C 17.699 7.196,18.334 7.493,18.993 8.135 C 19.609 8.735,20.047 9.483,20.273 10.320 C 20.442 10.945,20.443 12.153,20.275 12.827 C 20.021 13.847,19.537 14.558,18.728 15.099 C 18.503 15.249,18.331 15.387,18.344 15.406 C 18.358 15.425,18.635 15.550,18.961 15.685 C 20.126 16.166,20.507 16.432,20.963 17.082 C 21.476 17.812,21.707 18.682,21.706 19.886 C 21.706 21.629,21.293 22.779,20.324 23.733 C 19.702 24.346,19.170 24.649,18.287 24.893 C 18.009 24.969,17.745 24.986,16.853 24.981 C 15.833 24.977,14.004 24.891,13.427 24.821 L 13.173 24.790 13.173 16.004 L 13.173 7.217 14.333 7.137 C 15.802 7.035,16.179 7.028,16.773 7.094 M20.165 7.619 C 21.524 8.087,22.543 9.010,22.940 10.133 C 23.045 10.430,23.063 10.587,23.064 11.227 C 23.067 12.075,22.976 12.467,22.623 13.147 C 22.299 13.769,21.348 14.635,20.806 14.800 L 20.679 14.838 20.814 14.659 C 21.315 13.991,21.616 12.825,21.615 11.547 C 21.615 10.045,21.186 8.938,20.217 7.937 C 19.995 7.708,19.827 7.520,19.845 7.520 C 19.862 7.520,20.006 7.565,20.165 7.619 M15.295 8.399 C 14.891 8.510,14.702 8.645,14.657 8.855 C 14.574 9.242,14.506 10.702,14.472 12.852 L 14.436 15.084 14.748 15.122 C 15.188 15.178,16.108 15.111,16.626 14.987 C 17.860 14.692,18.524 14.035,18.833 12.803 C 18.930 12.418,18.943 12.247,18.920 11.629 C 18.898 11.007,18.871 10.836,18.728 10.395 C 18.373 9.310,17.721 8.666,16.708 8.404 C 16.324 8.304,15.647 8.302,15.295 8.399 M21.966 16.031 C 22.817 16.413,23.622 17.178,24.018 17.985 C 24.347 18.654,24.428 18.993,24.464 19.842 C 24.510 20.941,24.300 21.770,23.773 22.564 C 23.299 23.278,22.288 24.064,21.547 24.294 C 21.422 24.333,21.426 24.322,21.603 24.126 C 22.331 23.321,22.833 22.043,22.930 20.752 C 23.060 19.026,22.544 17.157,21.643 16.089 C 21.395 15.794,21.424 15.789,21.966 16.031 M14.455 17.740 C 14.457 19.587,14.534 21.344,14.637 21.926 C 14.804 22.869,15.112 23.363,15.668 23.578 C 15.931 23.680,16.083 23.697,16.773 23.701 C 17.664 23.706,18.018 23.639,18.595 23.358 C 19.483 22.926,20.061 22.016,20.287 20.697 C 20.423 19.906,20.388 19.337,20.161 18.604 C 19.922 17.834,19.256 17.017,18.610 16.703 C 18.069 16.439,17.509 16.363,15.880 16.334 L 14.453 16.308 14.455 17.740 " fill="#181818" stroke="none" fill-rule="evenodd"></path></svg>