<svg width="32" height="32" xmlns="http://www.w3.org/2000/svg"><path d="M14.933 0.034 C 10.237 0.384,6.020 2.671,3.211 6.391 C 1.590 8.538,0.590 10.959,0.146 13.813 C -0.017 14.858,-0.017 17.142,0.146 18.187 C 0.830 22.578,2.950 26.177,6.391 28.787 C 8.515 30.398,10.963 31.410,13.813 31.854 C 14.858 32.017,17.142 32.017,18.187 31.854 C 20.149 31.549,21.935 30.970,23.505 30.132 C 26.290 28.646,28.646 26.290,30.132 23.505 C 30.970 21.935,31.549 20.149,31.854 18.187 C 32.017 17.142,32.017 14.858,31.854 13.813 C 31.410 10.961,30.399 8.515,28.784 6.386 C 26.139 2.901,22.361 0.710,18.000 0.132 C 17.376 0.050,15.520 -0.010,14.933 0.034 M16.987 6.178 C 17.350 6.350,17.664 6.668,17.832 7.033 C 17.919 7.223,17.946 7.385,17.946 7.733 C 17.947 8.123,17.926 8.230,17.797 8.491 C 17.340 9.423,16.201 9.737,15.342 9.168 C 15.074 8.990,14.797 8.634,14.686 8.323 C 14.603 8.093,14.594 7.459,14.668 7.190 C 14.792 6.746,15.317 6.211,15.752 6.085 C 15.845 6.058,16.088 6.034,16.293 6.032 C 16.599 6.028,16.724 6.054,16.987 6.178 M11.282 8.611 C 11.663 8.780,11.916 9.023,12.104 9.399 C 12.242 9.675,12.267 9.784,12.267 10.129 C 12.267 10.708,12.152 10.996,11.761 11.389 C 11.517 11.633,11.371 11.733,11.154 11.802 C 10.305 12.072,9.455 11.699,9.076 10.892 C 8.889 10.491,8.878 9.868,9.051 9.484 C 9.445 8.613,10.423 8.230,11.282 8.611 M22.747 8.766 C 23.087 8.922,23.368 9.197,23.560 9.562 C 23.688 9.806,23.706 9.899,23.705 10.320 C 23.704 10.889,23.585 11.191,23.212 11.564 C 22.421 12.356,21.116 12.146,20.558 11.139 C 20.412 10.876,20.400 10.811,20.400 10.320 C 20.400 9.828,20.412 9.764,20.558 9.501 C 20.793 9.078,21.208 8.757,21.680 8.633 C 21.937 8.566,22.449 8.630,22.747 8.766 M16.894 11.444 L 16.880 12.488 16.360 12.498 L 15.840 12.507 15.840 11.453 L 15.840 10.400 16.374 10.400 L 16.909 10.400 16.894 11.444 M14.176 11.803 L 14.992 12.619 14.725 12.744 C 14.200 12.990,13.549 13.650,13.311 14.177 C 13.256 14.300,13.196 14.400,13.178 14.400 C 13.143 14.400,11.828 13.074,11.654 12.864 L 11.553 12.742 12.429 11.864 C 12.911 11.382,13.318 10.987,13.333 10.987 C 13.349 10.987,13.728 11.354,14.176 11.803 M21.054 12.874 C 21.062 12.907,20.711 13.290,20.274 13.726 L 19.480 14.519 19.300 14.180 C 19.074 13.753,18.476 13.142,18.053 12.907 C 17.877 12.809,17.722 12.720,17.709 12.709 C 17.696 12.698,18.055 12.320,18.506 11.867 L 19.327 11.045 20.184 11.930 C 20.655 12.417,21.047 12.842,21.054 12.874 M16.799 13.576 C 17.869 13.829,18.613 14.801,18.613 15.947 C 18.613 18.122,16.051 19.215,14.543 17.682 C 13.227 16.345,13.833 14.062,15.632 13.578 C 16.009 13.476,16.373 13.476,16.799 13.576 M24.522 13.966 C 24.869 14.145,25.135 14.413,25.310 14.757 C 25.447 15.028,25.467 15.124,25.467 15.520 C 25.467 15.909,25.445 16.017,25.317 16.277 C 24.705 17.524,22.979 17.575,22.321 16.366 C 22.138 16.029,22.076 15.407,22.187 15.013 C 22.317 14.547,22.759 14.075,23.235 13.893 C 23.541 13.776,24.230 13.815,24.522 13.966 M8.878 14.234 C 9.215 14.383,9.522 14.687,9.705 15.053 C 9.845 15.334,9.867 15.434,9.866 15.809 C 9.866 16.158,9.840 16.296,9.730 16.533 C 9.561 16.897,9.282 17.192,8.933 17.377 C 8.705 17.498,8.601 17.519,8.213 17.519 C 7.668 17.519,7.376 17.405,7.028 17.058 C 6.653 16.682,6.534 16.382,6.536 15.813 C 6.538 15.397,6.557 15.296,6.682 15.055 C 7.110 14.230,8.064 13.874,8.878 14.234 M12.907 15.840 L 12.907 16.373 11.867 16.373 L 10.827 16.373 10.827 15.840 L 10.827 15.307 11.867 15.307 L 12.907 15.307 12.907 15.840 M21.600 15.840 L 21.600 16.373 20.547 16.373 L 19.493 16.373 19.493 15.840 L 19.493 15.307 20.547 15.307 L 21.600 15.307 21.600 15.840 M20.079 19.840 L 19.172 20.747 18.355 19.928 L 17.537 19.109 17.822 18.948 C 18.445 18.596,18.952 18.068,19.232 17.478 L 19.329 17.276 20.157 18.104 L 20.986 18.933 20.079 19.840 M13.786 18.427 C 14.002 18.643,14.303 18.876,14.499 18.979 L 14.837 19.158 14.045 19.965 C 13.610 20.409,13.241 20.779,13.226 20.786 C 13.211 20.794,12.797 20.398,12.306 19.906 L 11.414 19.012 12.222 18.169 L 13.030 17.325 13.221 17.689 C 13.339 17.915,13.555 18.196,13.786 18.427 M16.907 20.653 L 16.907 21.707 16.373 21.707 L 15.840 21.707 15.840 20.653 L 15.840 19.600 16.373 19.600 L 16.907 19.600 16.907 20.653 M22.697 19.915 C 23.049 20.076,23.339 20.369,23.514 20.742 C 23.631 20.992,23.653 21.112,23.651 21.493 C 23.649 21.880,23.627 21.988,23.502 22.228 C 22.850 23.488,21.180 23.520,20.507 22.286 C 20.378 22.048,20.348 21.922,20.330 21.539 C 20.310 21.132,20.323 21.043,20.441 20.785 C 20.680 20.262,21.128 19.891,21.653 19.779 C 21.941 19.718,22.397 19.778,22.697 19.915 M11.173 20.013 C 11.738 20.304,12.057 20.800,12.095 21.447 C 12.140 22.197,11.825 22.762,11.180 23.092 C 10.865 23.253,10.766 23.277,10.435 23.276 C 9.521 23.274,8.814 22.589,8.759 21.653 C 8.713 20.853,9.147 20.197,9.914 19.910 C 10.221 19.795,10.850 19.847,11.173 20.013 M16.987 22.712 C 17.350 22.884,17.664 23.202,17.832 23.567 C 17.919 23.756,17.946 23.918,17.946 24.267 C 17.947 24.656,17.926 24.763,17.797 25.024 C 17.377 25.880,16.385 26.230,15.547 25.817 C 14.959 25.528,14.661 25.068,14.624 24.393 C 14.598 23.902,14.654 23.671,14.893 23.291 C 15.185 22.827,15.681 22.570,16.293 22.564 C 16.598 22.561,16.726 22.588,16.987 22.712 " stroke="none" fill-rule="evenodd" fill="black"></path></svg>