<svg width="32" height="32" xmlns="http://www.w3.org/2000/svg"><path d="M14.933 0.034 C 10.237 0.384,6.020 2.671,3.211 6.391 C 1.590 8.538,0.590 10.959,0.146 13.813 C -0.017 14.858,-0.017 17.142,0.146 18.187 C 0.830 22.578,2.950 26.177,6.391 28.787 C 8.515 30.398,10.963 31.410,13.813 31.854 C 14.858 32.017,17.142 32.017,18.187 31.854 C 20.149 31.549,21.935 30.970,23.505 30.132 C 26.290 28.646,28.646 26.290,30.132 23.505 C 30.970 21.935,31.549 20.149,31.854 18.187 C 32.017 17.142,32.017 14.858,31.854 13.813 C 31.410 10.961,30.399 8.515,28.784 6.386 C 26.139 2.901,22.361 0.710,18.000 0.132 C 17.376 0.050,15.520 -0.010,14.933 0.034 M19.093 7.115 C 21.389 7.446,22.652 8.273,22.934 9.630 C 22.972 9.814,22.986 10.982,22.976 13.153 L 22.960 16.400 22.835 16.711 C 22.464 17.629,21.634 18.243,20.267 18.610 C 19.315 18.865,18.961 18.895,16.653 18.919 L 14.453 18.942 14.453 17.978 L 14.453 17.013 16.387 17.013 C 18.077 17.012,18.380 16.999,18.800 16.911 C 19.604 16.742,20.007 16.504,20.220 16.071 L 20.347 15.813 20.347 12.960 C 20.347 10.120,20.346 10.106,20.229 9.887 C 20.001 9.460,19.551 9.195,18.773 9.031 C 18.370 8.945,18.009 8.935,15.493 8.934 L 12.667 8.933 12.653 10.467 L 12.638 12.000 11.333 12.000 L 10.027 12.000 10.027 9.488 L 10.027 6.976 14.253 7.002 C 17.808 7.023,18.577 7.041,19.093 7.115 M18.046 13.527 L 18.293 13.561 18.293 14.501 L 18.293 15.440 15.466 15.424 L 12.639 15.409 12.653 19.238 L 12.667 23.067 15.520 23.067 C 18.054 23.067,18.421 23.056,18.798 22.972 C 19.572 22.800,20.003 22.539,20.227 22.107 C 20.322 21.924,20.342 21.770,20.363 21.027 L 20.387 20.160 21.687 20.160 L 22.987 20.160 22.987 21.162 C 22.987 21.878,22.964 22.251,22.907 22.470 C 22.561 23.797,21.379 24.554,19.127 24.888 C 18.624 24.963,17.884 24.980,14.280 24.999 L 10.027 25.021 10.027 19.257 L 10.027 13.493 13.913 13.493 C 16.050 13.493,17.910 13.509,18.046 13.527 " stroke="none" fill-rule="evenodd" fill="black"></path></svg>