<svg width="32" height="32" xmlns="http://www.w3.org/2000/svg"><path d="M14.933 0.034 C 10.237 0.384,6.020 2.671,3.211 6.391 C 1.590 8.538,0.590 10.959,0.146 13.813 C -0.017 14.858,-0.017 17.142,0.146 18.187 C 0.830 22.578,2.950 26.177,6.391 28.787 C 8.515 30.398,10.963 31.410,13.813 31.854 C 14.858 32.017,17.142 32.017,18.187 31.854 C 20.149 31.549,21.935 30.970,23.505 30.132 C 26.290 28.646,28.646 26.290,30.132 23.505 C 30.970 21.935,31.549 20.149,31.854 18.187 C 32.017 17.142,32.017 14.858,31.854 13.813 C 31.410 10.961,30.399 8.515,28.784 6.386 C 26.139 2.901,22.361 0.710,18.000 0.132 C 17.376 0.050,15.520 -0.010,14.933 0.034 M22.372 6.084 C 22.751 6.150,23.064 6.311,23.219 6.521 C 23.454 6.838,23.271 7.590,22.816 8.179 C 21.941 9.310,20.230 11.023,18.520 12.480 C 17.814 13.081,17.245 13.582,17.255 13.592 C 17.265 13.603,17.461 13.549,17.690 13.474 C 19.549 12.863,21.775 12.390,23.049 12.336 C 24.124 12.290,24.642 12.412,24.855 12.763 C 25.093 13.152,24.924 13.735,24.371 14.429 C 23.981 14.920,22.701 16.140,22.133 16.564 C 21.854 16.771,19.647 18.401,17.227 20.185 C 14.807 21.969,12.785 23.464,12.733 23.509 C 12.645 23.586,12.640 23.535,12.640 22.546 L 12.640 21.501 14.093 20.449 C 14.893 19.869,15.895 19.131,16.320 18.808 C 16.745 18.484,17.453 17.968,17.893 17.661 C 20.777 15.645,22.152 14.354,21.569 14.207 C 21.105 14.091,19.286 14.510,16.929 15.277 L 15.893 15.614 15.893 14.254 L 15.893 12.895 16.040 12.781 C 16.120 12.718,16.474 12.414,16.826 12.105 C 17.178 11.796,17.877 11.193,18.378 10.764 C 19.991 9.387,20.800 8.542,20.800 8.237 C 20.800 8.034,20.629 7.981,20.083 8.017 C 18.869 8.095,16.274 8.968,12.880 10.440 C 11.477 11.048,9.589 11.781,9.116 11.901 C 8.350 12.094,7.666 11.987,7.323 11.618 C 7.041 11.315,6.931 10.640,7.088 10.173 C 7.163 9.948,7.180 9.942,7.393 10.052 C 7.652 10.186,8.112 10.255,8.533 10.222 C 9.401 10.155,9.835 9.997,15.061 7.843 C 16.796 7.128,17.724 6.803,18.853 6.515 C 20.520 6.090,21.629 5.954,22.372 6.084 M15.134 10.986 C 15.229 11.045,15.355 11.171,15.414 11.266 C 15.516 11.435,15.520 11.541,15.520 14.819 C 15.520 17.826,15.510 18.217,15.433 18.380 C 15.303 18.654,15.070 18.796,14.749 18.796 C 14.421 18.795,14.220 18.675,14.077 18.394 C 13.978 18.199,13.973 18.053,13.973 14.842 C 13.973 11.760,13.981 11.479,14.067 11.308 C 14.265 10.913,14.766 10.762,15.134 10.986 M11.946 12.467 C 12.048 12.518,12.188 12.644,12.257 12.747 L 12.384 12.933 12.348 19.760 C 12.327 23.821,12.292 26.653,12.262 26.751 C 12.122 27.204,11.540 27.406,11.121 27.147 C 10.746 26.916,10.768 27.438,10.813 19.805 C 10.853 13.067,10.855 12.930,10.960 12.753 C 11.164 12.408,11.585 12.285,11.946 12.467 M13.653 15.615 L 13.653 16.670 13.199 16.895 C 12.949 17.019,12.721 17.120,12.693 17.120 C 12.660 17.120,12.640 16.747,12.640 16.138 L 12.640 15.157 13.107 14.863 C 13.363 14.702,13.591 14.568,13.613 14.565 C 13.635 14.562,13.653 15.035,13.653 15.615 M10.507 17.241 L 10.507 18.109 9.946 18.388 C 9.638 18.541,9.313 18.667,9.224 18.667 C 8.781 18.667,8.453 18.338,8.453 17.893 C 8.453 17.453,8.572 17.342,9.592 16.827 C 10.080 16.581,10.486 16.378,10.493 16.376 C 10.501 16.375,10.507 16.764,10.507 17.241 M10.468 24.560 L 10.427 25.200 10.167 25.373 C 9.596 25.755,8.929 25.462,8.865 24.801 C 8.824 24.373,8.933 24.228,9.753 23.626 L 10.480 23.091 10.494 23.505 C 10.502 23.733,10.490 24.208,10.468 24.560 " stroke="none" fill-rule="evenodd" fill="black"></path></svg>