<svg width="32" height="32" xmlns="http://www.w3.org/2000/svg"><path d="M14.933 0.034 C 10.237 0.384,6.020 2.671,3.211 6.391 C 1.590 8.538,0.590 10.959,0.146 13.813 C -0.017 14.858,-0.017 17.142,0.146 18.187 C 0.830 22.578,2.950 26.177,6.391 28.787 C 8.515 30.398,10.963 31.410,13.813 31.854 C 14.858 32.017,17.142 32.017,18.187 31.854 C 20.149 31.549,21.935 30.970,23.505 30.132 C 26.290 28.646,28.646 26.290,30.132 23.505 C 30.970 21.935,31.549 20.149,31.854 18.187 C 32.017 17.142,32.017 14.858,31.854 13.813 C 31.410 10.961,30.399 8.515,28.784 6.386 C 26.139 2.901,22.361 0.710,18.000 0.132 C 17.376 0.050,15.520 -0.010,14.933 0.034 M17.120 4.056 C 20.845 4.396,24.280 6.531,26.219 9.711 C 27.069 11.104,27.639 12.697,27.871 14.323 C 27.991 15.166,27.991 16.768,27.871 17.573 C 27.480 20.198,26.325 22.510,24.477 24.370 C 22.676 26.183,20.325 27.363,17.705 27.767 C 16.866 27.897,15.241 27.897,14.402 27.767 C 10.381 27.147,7.079 24.737,5.331 21.147 C 4.499 19.439,4.140 17.882,4.138 15.973 C 4.136 13.998,4.491 12.458,5.358 10.689 C 6.896 7.549,9.690 5.262,13.042 4.399 C 14.417 4.045,15.762 3.932,17.120 4.056 M14.560 5.629 C 10.399 6.259,7.024 9.277,5.974 13.308 C 5.736 14.224,5.644 14.959,5.644 15.947 C 5.644 16.950,5.738 17.695,5.980 18.612 C 6.988 22.432,10.045 25.332,13.941 26.163 C 17.665 26.958,21.608 25.577,24.081 22.613 C 25.780 20.575,26.683 17.769,26.463 15.205 C 26.306 13.371,25.760 11.747,24.812 10.293 C 23.213 7.842,20.782 6.226,17.859 5.673 C 17.227 5.553,15.235 5.526,14.560 5.629 M16.640 9.413 L 16.640 10.240 16.253 10.240 C 15.354 10.241,14.264 10.516,13.305 10.984 C 11.278 11.972,9.898 13.752,9.404 16.012 C 9.268 16.639,9.269 18.191,9.406 18.827 C 9.870 20.965,10.982 22.600,12.761 23.757 C 14.049 24.595,15.625 25.050,17.787 25.208 L 18.267 25.244 17.947 25.313 C 17.771 25.352,17.285 25.413,16.867 25.449 C 15.617 25.557,14.340 25.409,13.093 25.012 C 11.880 24.625,10.429 23.783,9.815 23.107 C 8.896 22.097,8.162 20.610,7.830 19.080 C 7.727 18.609,7.711 18.371,7.710 17.360 C 7.709 16.333,7.724 16.117,7.831 15.627 C 8.586 12.164,11.202 9.525,14.596 8.801 C 15.166 8.680,15.784 8.605,16.307 8.594 L 16.640 8.587 16.640 9.413 M18.187 10.873 C 18.633 10.978,19.179 11.152,19.326 11.237 C 19.433 11.298,18.786 12.708,18.667 12.674 C 17.495 12.338,17.558 12.349,16.640 12.348 C 15.887 12.348,15.695 12.366,15.307 12.471 C 13.484 12.966,12.067 14.342,11.553 16.117 C 10.861 18.504,11.860 21.016,14.094 22.511 C 15.176 23.234,16.361 23.644,17.947 23.842 C 18.669 23.932,20.194 23.920,20.849 23.819 C 21.573 23.708,21.561 23.705,21.253 23.911 C 20.802 24.212,20.317 24.463,19.746 24.689 C 19.201 24.905,19.194 24.907,18.485 24.907 C 16.759 24.907,14.935 24.538,13.783 23.957 C 12.743 23.433,11.744 22.615,11.098 21.757 C 10.505 20.971,10.012 19.833,9.843 18.859 C 9.735 18.241,9.735 17.012,9.843 16.394 C 10.318 13.667,12.472 11.443,15.200 10.861 C 15.811 10.731,15.857 10.728,16.827 10.748 C 17.491 10.762,17.855 10.795,18.187 10.873 M18.000 12.893 C 18.888 13.142,19.664 13.592,20.284 14.219 C 20.598 14.535,21.120 15.228,21.120 15.327 C 21.120 15.345,20.802 15.518,20.414 15.713 L 19.708 16.067 19.602 15.913 C 19.543 15.829,19.315 15.578,19.094 15.356 C 17.772 14.023,15.703 14.038,14.364 15.390 C 13.710 16.050,13.327 17.069,13.407 17.934 C 13.584 19.833,15.335 21.418,17.810 21.918 C 18.959 22.151,20.637 22.199,22.353 22.050 C 22.881 22.004,23.340 21.975,23.373 21.987 C 23.445 22.010,22.902 22.606,22.384 23.074 C 21.978 23.439,21.896 23.466,20.853 23.580 C 20.141 23.657,18.349 23.609,17.609 23.494 C 16.471 23.316,15.505 22.946,14.576 22.333 C 13.252 21.458,12.292 20.209,11.941 18.907 C 11.774 18.286,11.771 17.170,11.935 16.517 C 12.414 14.607,13.978 13.151,15.929 12.799 C 16.367 12.720,17.578 12.775,18.000 12.893 " stroke="none" fill-rule="evenodd" fill="black"></path></svg>