<svg width="32" height="32" xmlns="http://www.w3.org/2000/svg"><path d="M14.933 0.034 C 10.237 0.384,6.020 2.671,3.211 6.391 C 1.590 8.538,0.590 10.959,0.146 13.813 C -0.017 14.858,-0.017 17.142,0.146 18.187 C 0.830 22.578,2.950 26.177,6.391 28.787 C 8.515 30.398,10.963 31.410,13.813 31.854 C 14.858 32.017,17.142 32.017,18.187 31.854 C 20.149 31.549,21.935 30.970,23.505 30.132 C 26.290 28.646,28.646 26.290,30.132 23.505 C 30.970 21.935,31.549 20.149,31.854 18.187 C 32.017 17.142,32.017 14.858,31.854 13.813 C 31.410 10.961,30.399 8.515,28.784 6.386 C 26.139 2.901,22.361 0.710,18.000 0.132 C 17.376 0.050,15.520 -0.010,14.933 0.034 M14.930 5.853 C 14.929 5.905,14.765 6.859,14.567 7.973 L 14.206 10.000 17.934 10.014 C 19.984 10.021,21.654 10.048,21.644 10.073 C 21.635 10.098,19.605 12.092,17.133 14.504 C 14.662 16.916,12.640 18.899,12.640 18.912 C 12.640 18.924,12.532 19.542,12.400 20.285 C 12.268 21.027,12.160 21.648,12.160 21.665 C 12.160 21.736,13.533 21.765,14.347 21.710 C 17.332 21.510,19.372 20.702,20.350 19.332 C 20.687 18.859,21.049 18.065,21.206 17.455 C 21.523 16.220,21.292 14.808,20.606 13.785 L 20.359 13.417 21.606 12.204 C 22.292 11.537,22.881 10.990,22.915 10.989 C 23.025 10.985,23.629 11.641,23.924 12.084 C 24.741 13.312,25.093 14.860,24.958 16.634 C 24.928 17.033,24.856 17.591,24.798 17.874 C 24.384 19.909,22.785 21.921,20.481 23.307 C 19.446 23.930,18.233 24.387,17.048 24.601 C 16.418 24.715,16.287 24.718,12.231 24.719 C 9.938 24.720,8.050 24.708,8.035 24.693 C 8.020 24.678,8.267 23.179,8.585 21.362 L 9.162 18.059 9.448 17.788 C 9.605 17.640,10.832 16.528,12.175 15.319 L 14.617 13.120 12.352 13.120 C 11.106 13.120,10.076 13.102,10.063 13.080 C 10.051 13.058,10.331 11.402,10.687 9.400 L 11.333 5.760 13.133 5.760 C 14.813 5.760,14.933 5.766,14.930 5.853 M12.292 11.587 L 10.267 12.827 12.747 12.853 L 15.227 12.880 12.307 15.510 C 10.603 17.044,9.376 18.188,9.360 18.256 C 9.330 18.384,8.267 24.415,8.267 24.455 C 8.267 24.469,9.541 24.480,11.097 24.480 L 13.928 24.480 16.044 22.938 C 17.208 22.090,18.208 21.358,18.267 21.312 C 18.349 21.248,18.300 21.253,18.053 21.338 C 17.495 21.529,16.155 21.855,15.547 21.949 C 14.869 22.053,11.977 22.078,11.880 21.981 C 11.844 21.945,11.917 21.414,12.103 20.364 L 12.379 18.800 14.150 17.037 C 15.123 16.068,17.043 14.166,18.416 12.811 L 20.912 10.347 17.614 10.347 L 14.316 10.347 12.292 11.587 " stroke="none" fill-rule="evenodd" fill="black"></path></svg>