<svg width="32" height="32" xmlns="http://www.w3.org/2000/svg"><path d="M14.933 0.034 C 10.237 0.384,6.020 2.671,3.211 6.391 C 1.590 8.538,0.590 10.959,0.146 13.813 C -0.017 14.858,-0.017 17.142,0.146 18.187 C 0.830 22.578,2.950 26.177,6.391 28.787 C 8.515 30.398,10.963 31.410,13.813 31.854 C 14.858 32.017,17.142 32.017,18.187 31.854 C 20.149 31.549,21.935 30.970,23.505 30.132 C 26.290 28.646,28.646 26.290,30.132 23.505 C 30.970 21.935,31.549 20.149,31.854 18.187 C 32.017 17.142,32.017 14.858,31.854 13.813 C 31.410 10.961,30.399 8.515,28.784 6.386 C 26.139 2.901,22.361 0.710,18.000 0.132 C 17.376 0.050,15.520 -0.010,14.933 0.034 M17.707 4.129 C 18.709 4.283,19.469 4.476,20.347 4.801 C 21.314 5.159,23.200 6.233,23.200 6.425 C 23.200 6.527,21.715 8.107,21.619 8.107 C 21.581 8.107,21.399 8.009,21.215 7.889 C 20.697 7.552,19.660 7.061,19.034 6.858 C 18.090 6.551,17.435 6.445,16.293 6.414 C 14.585 6.369,13.407 6.612,11.954 7.310 C 8.958 8.749,6.998 11.400,6.476 14.720 C 6.406 15.164,6.394 15.518,6.415 16.427 C 6.445 17.682,6.528 18.172,6.879 19.173 C 8.066 22.551,10.920 24.984,14.427 25.608 C 14.997 25.709,15.290 25.730,16.080 25.724 C 16.922 25.718,17.138 25.697,17.840 25.555 C 18.761 25.368,19.534 25.114,20.293 24.747 C 20.899 24.455,22.133 23.657,22.133 23.557 C 22.133 23.521,21.916 23.276,21.649 23.012 C 21.383 22.749,20.756 22.107,20.256 21.586 L 19.346 20.639 19.697 20.317 C 19.889 20.141,20.172 19.840,20.324 19.649 C 20.476 19.458,20.632 19.309,20.671 19.317 C 20.751 19.335,25.173 23.829,25.173 23.891 C 25.173 23.979,24.474 24.688,23.924 25.158 C 23.158 25.814,22.217 26.437,21.360 26.857 C 20.504 27.277,19.966 27.476,19.049 27.711 C 18.055 27.967,17.494 28.049,16.480 28.087 C 14.410 28.164,12.260 27.672,10.453 26.707 C 9.417 26.153,8.335 25.358,7.564 24.581 C 5.295 22.297,4.027 19.245,4.033 16.080 C 4.038 12.755,5.346 9.684,7.729 7.400 C 9.726 5.486,12.195 4.351,15.008 4.052 C 15.590 3.991,17.083 4.033,17.707 4.129 M24.429 7.662 C 26.548 9.837,27.651 12.266,27.919 15.350 C 28.089 17.306,27.641 19.541,26.691 21.467 C 26.373 22.111,25.783 23.068,25.474 23.440 L 25.341 23.600 24.539 22.773 C 24.098 22.319,23.737 21.923,23.737 21.893 C 23.736 21.864,23.869 21.636,24.033 21.387 C 24.581 20.552,25.036 19.490,25.301 18.427 C 25.508 17.596,25.563 17.094,25.563 16.027 C 25.563 15.082,25.547 14.883,25.424 14.292 C 25.255 13.482,24.934 12.533,24.607 11.875 C 24.335 11.330,23.524 10.080,23.441 10.080 C 23.411 10.080,22.737 10.730,21.942 11.525 L 20.497 12.969 20.223 12.625 C 19.355 11.534,18.169 10.818,16.890 10.611 C 16.298 10.516,15.021 10.570,14.480 10.714 C 13.252 11.041,12.100 11.884,11.388 12.977 C 10.330 14.602,10.164 16.890,10.976 18.679 C 11.363 19.531,12.269 20.531,13.111 21.034 C 14.079 21.613,15.021 21.843,16.240 21.798 C 17.101 21.766,17.661 21.630,18.369 21.280 C 18.601 21.165,18.817 21.088,18.849 21.109 C 18.969 21.187,20.587 22.866,20.586 22.912 C 20.586 22.960,20.178 23.232,19.733 23.481 C 19.390 23.673,18.604 23.975,18.107 24.105 C 16.564 24.508,14.748 24.459,13.304 23.976 C 12.051 23.557,11.026 22.890,10.077 21.878 C 8.894 20.616,8.145 19.079,7.900 17.413 C 7.745 16.349,7.772 15.566,8.005 14.412 C 8.487 12.025,10.042 10.000,12.277 8.853 C 13.003 8.480,13.792 8.203,14.507 8.071 C 15.124 7.957,16.666 7.944,17.304 8.048 C 18.454 8.235,19.662 8.746,20.629 9.454 C 20.784 9.567,20.945 9.653,20.986 9.643 C 21.027 9.634,21.555 9.099,22.160 8.453 C 23.563 6.955,23.604 6.917,23.721 6.980 C 23.772 7.008,24.090 7.314,24.429 7.662 " stroke="none" fill-rule="evenodd" fill="black"></path></svg>