<svg width="32" height="32" xmlns="http://www.w3.org/2000/svg"><path d="M14.933 0.034 C 10.237 0.384,6.020 2.671,3.211 6.391 C 1.590 8.538,0.590 10.959,0.146 13.813 C -0.017 14.858,-0.017 17.142,0.146 18.187 C 0.830 22.578,2.950 26.177,6.391 28.787 C 8.515 30.398,10.963 31.410,13.813 31.854 C 14.858 32.017,17.142 32.017,18.187 31.854 C 20.149 31.549,21.935 30.970,23.505 30.132 C 26.290 28.646,28.646 26.290,30.132 23.505 C 30.970 21.935,31.549 20.149,31.854 18.187 C 32.017 17.142,32.017 14.858,31.854 13.813 C 31.410 10.961,30.399 8.515,28.784 6.386 C 26.139 2.901,22.361 0.710,18.000 0.132 C 17.376 0.050,15.520 -0.010,14.933 0.034 M20.846 6.877 L 25.760 9.727 25.760 15.417 C 25.760 19.905,25.746 21.118,25.693 21.161 C 25.555 21.272,15.941 26.827,15.886 26.827 C 15.855 26.827,13.623 25.552,10.928 23.994 L 6.026 21.161 6.040 15.424 L 6.053 9.686 10.960 6.846 C 13.659 5.284,15.882 4.011,15.900 4.016 C 15.918 4.022,18.144 5.309,20.846 6.877 M12.726 9.892 C 11.028 10.871,9.618 11.694,9.592 11.720 C 9.540 11.772,15.761 15.389,15.894 15.384 C 15.955 15.382,21.146 12.414,22.094 11.839 L 22.240 11.750 19.112 9.942 C 17.391 8.947,15.945 8.128,15.898 8.122 C 15.852 8.115,14.424 8.912,12.726 9.892 M9.495 17.474 L 9.498 19.120 11.215 20.103 C 12.160 20.643,13.598 21.468,14.410 21.934 L 15.887 22.783 19.075 20.941 C 21.021 19.817,22.284 19.117,22.318 19.145 C 22.356 19.177,22.369 18.664,22.359 17.510 C 22.345 15.949,22.337 15.830,22.252 15.854 C 22.201 15.867,20.751 16.695,19.029 17.694 L 15.897 19.508 12.762 17.696 C 11.038 16.699,9.597 15.871,9.560 15.856 C 9.507 15.834,9.494 16.178,9.495 17.474 M22.560 19.276 C 22.560 19.291,22.608 19.329,22.667 19.360 C 22.725 19.391,22.773 19.405,22.773 19.390 C 22.773 19.376,22.725 19.338,22.667 19.307 C 22.608 19.275,22.560 19.262,22.560 19.276 " stroke="none" fill-rule="evenodd" fill="black"></path></svg>