<svg width="32" height="32" xmlns="http://www.w3.org/2000/svg"><path d="M14.933 0.034 C 10.237 0.384,6.020 2.671,3.211 6.391 C 1.590 8.538,0.590 10.959,0.146 13.813 C -0.017 14.858,-0.017 17.142,0.146 18.187 C 0.830 22.578,2.950 26.177,6.391 28.787 C 8.515 30.398,10.963 31.410,13.813 31.854 C 14.858 32.017,17.142 32.017,18.187 31.854 C 20.149 31.549,21.935 30.970,23.505 30.132 C 26.290 28.646,28.646 26.290,30.132 23.505 C 30.970 21.935,31.549 20.149,31.854 18.187 C 32.017 17.142,32.017 14.858,31.854 13.813 C 31.410 10.961,30.399 8.515,28.784 6.386 C 26.139 2.901,22.361 0.710,18.000 0.132 C 17.376 0.050,15.520 -0.010,14.933 0.034 M9.302 7.451 C 9.422 7.535,9.578 7.693,9.649 7.802 L 9.778 8.000 16.000 8.000 L 22.222 8.000 22.351 7.802 C 22.555 7.489,22.864 7.303,23.232 7.271 C 23.506 7.247,23.584 7.263,23.839 7.397 C 24.830 7.919,24.628 9.432,23.538 9.659 L 23.227 9.724 21.968 12.793 L 20.709 15.863 20.807 16.078 C 20.943 16.378,20.938 16.862,20.795 17.157 C 20.663 17.430,20.370 17.687,20.097 17.769 L 19.901 17.828 18.595 21.006 L 17.289 24.183 17.415 24.398 C 17.689 24.865,17.634 25.426,17.274 25.834 C 16.717 26.467,15.782 26.351,15.396 25.600 C 15.198 25.213,15.207 24.716,15.420 24.394 L 15.557 24.187 14.058 21.014 L 12.559 17.841 12.296 17.804 C 11.515 17.692,11.079 16.797,11.446 16.061 L 11.586 15.780 10.612 13.717 C 10.076 12.582,9.434 11.218,9.185 10.687 L 8.732 9.720 8.439 9.655 C 7.367 9.415,7.182 7.913,8.161 7.397 C 8.416 7.263,8.494 7.247,8.768 7.271 C 8.999 7.291,9.142 7.339,9.302 7.451 M10.269 8.955 C 10.297 8.981,11.650 9.965,13.276 11.140 C 15.102 12.460,16.254 13.260,16.289 13.233 C 16.321 13.208,17.607 12.246,19.147 11.094 C 20.687 9.942,21.969 8.978,21.997 8.953 C 22.026 8.927,19.483 8.907,16.133 8.907 C 12.622 8.907,10.239 8.926,10.269 8.955 M9.716 9.753 C 9.725 9.779,10.331 11.063,11.060 12.607 L 12.388 15.413 12.566 15.413 C 12.664 15.413,12.839 15.451,12.954 15.497 L 13.164 15.581 14.318 14.716 C 14.952 14.240,15.452 13.832,15.429 13.811 C 15.327 13.716,9.761 9.707,9.731 9.707 C 9.713 9.707,9.706 9.728,9.716 9.753 M19.627 11.847 C 18.263 12.873,17.117 13.742,17.080 13.778 C 17.027 13.830,17.242 14.009,18.127 14.649 L 19.240 15.455 19.591 15.427 L 19.941 15.399 20.077 15.073 C 20.804 13.339,22.166 9.974,22.140 9.977 C 22.122 9.979,20.991 10.820,19.627 11.847 M14.941 15.368 L 13.653 16.333 13.653 16.614 C 13.653 16.819,13.613 16.974,13.504 17.181 L 13.355 17.467 14.854 20.640 C 15.679 22.385,16.383 23.813,16.420 23.813 C 16.458 23.813,17.037 22.475,17.767 20.700 L 19.046 17.586 18.916 17.446 C 18.636 17.147,18.518 16.669,18.623 16.267 C 18.655 16.143,18.575 16.074,17.511 15.307 C 16.880 14.852,16.333 14.463,16.296 14.441 C 16.253 14.417,15.750 14.761,14.941 15.368 " stroke="none" fill-rule="evenodd" fill="black"></path></svg>