<svg viewBox="0 0 32 32" xmlns="http://www.w3.org/2000/svg"><path d="M14.933 0.034 C 10.237 0.384,6.020 2.671,3.211 6.391 C 1.590 8.538,0.590 10.959,0.146 13.813 C -0.017 14.858,-0.017 17.142,0.146 18.187 C 0.830 22.578,2.950 26.177,6.391 28.787 C 8.515 30.398,10.963 31.410,13.813 31.854 C 14.858 32.017,17.142 32.017,18.187 31.854 C 20.149 31.549,21.935 30.970,23.505 30.132 C 26.290 28.646,28.646 26.290,30.132 23.505 C 30.970 21.935,31.549 20.149,31.854 18.187 C 32.017 17.142,32.017 14.858,31.854 13.813 C 31.410 10.961,30.399 8.515,28.784 6.386 C 26.139 2.901,22.361 0.710,18.000 0.132 C 17.376 0.050,15.520 -0.010,14.933 0.034 M17.120 5.068 C 21.665 5.538,25.468 8.799,26.637 13.227 C 26.898 14.218,26.955 14.714,26.955 16.000 C 26.955 16.897,26.932 17.335,26.863 17.733 C 26.616 19.161,26.140 20.458,25.427 21.645 C 22.187 27.043,15.086 28.629,9.869 25.121 C 7.357 23.432,5.668 20.795,5.137 17.733 C 5.007 16.984,5.007 15.017,5.137 14.267 C 5.812 10.369,8.319 7.246,11.947 5.785 C 12.664 5.497,13.746 5.208,14.427 5.125 C 14.691 5.093,14.967 5.058,15.040 5.047 C 15.330 5.005,16.642 5.018,17.120 5.068 M15.333 6.455 C 14.009 6.541,12.876 6.860,11.627 7.501 C 10.690 7.982,10.057 8.449,9.253 9.253 C 8.432 10.074,7.973 10.700,7.474 11.682 C 6.079 14.422,6.079 17.578,7.474 20.318 C 7.973 21.300,8.432 21.926,9.253 22.747 C 10.074 23.568,10.700 24.027,11.682 24.526 C 16.402 26.929,22.176 25.021,24.558 20.271 C 26.016 17.363,25.898 13.934,24.241 11.119 C 23.306 9.530,21.692 8.072,20.014 7.301 C 19.052 6.858,17.834 6.535,16.922 6.479 C 16.664 6.463,16.333 6.443,16.187 6.434 C 16.040 6.425,15.656 6.435,15.333 6.455 M17.307 8.083 C 20.525 8.575,23.122 11.056,23.854 14.337 C 23.951 14.773,23.969 15.027,23.971 15.973 C 23.973 16.957,23.958 17.161,23.849 17.647 C 23.535 19.050,22.952 20.227,22.053 21.276 C 21.877 21.481,21.707 21.643,21.676 21.638 C 21.644 21.632,21.433 21.418,21.206 21.163 L 20.793 20.699 21.156 20.249 C 21.824 19.423,22.221 18.635,22.491 17.605 C 22.676 16.898,22.720 15.664,22.589 14.879 C 22.351 13.457,21.728 12.272,20.669 11.227 C 19.712 10.282,18.473 9.646,17.135 9.413 C 16.164 9.243,14.839 9.342,13.910 9.654 C 11.560 10.441,9.836 12.439,9.413 14.865 C 9.310 15.456,9.311 16.553,9.416 17.153 C 9.615 18.293,10.161 19.449,10.941 20.382 C 11.054 20.517,11.090 20.601,11.059 20.656 C 11.034 20.699,10.835 20.922,10.617 21.151 L 10.221 21.567 9.932 21.250 C 9.330 20.591,8.694 19.477,8.380 18.533 C 7.483 15.831,8.102 12.800,9.983 10.689 C 11.845 8.599,14.503 7.654,17.307 8.083 M17.173 11.317 C 18.949 11.740,20.335 13.184,20.721 15.013 C 20.853 15.638,20.842 16.650,20.697 17.200 C 20.565 17.703,20.286 18.312,20.016 18.690 C 19.746 19.067,19.292 19.571,19.221 19.572 C 19.188 19.573,18.997 19.499,18.797 19.408 C 18.596 19.317,18.372 19.220,18.299 19.192 C 18.170 19.143,18.175 19.134,18.598 18.704 C 19.102 18.194,19.346 17.828,19.537 17.297 C 20.205 15.444,19.398 13.465,17.627 12.614 C 17.005 12.316,16.685 12.243,16.000 12.246 C 15.325 12.249,14.914 12.346,14.293 12.648 C 13.921 12.829,13.753 12.956,13.352 13.359 C 12.938 13.775,12.827 13.926,12.615 14.362 C 12.132 15.355,12.096 16.376,12.508 17.415 C 12.710 17.924,12.972 18.307,13.409 18.733 C 13.612 18.931,13.768 19.101,13.756 19.110 C 13.700 19.153,12.767 19.521,12.717 19.521 C 12.637 19.520,12.179 18.979,11.907 18.564 C 11.129 17.379,10.972 15.613,11.519 14.201 C 12.376 11.986,14.799 10.750,17.173 11.317 " stroke="none" fill-rule="evenodd" fill="black"></path></svg>