<svg viewBox="0 0 32 32" xmlns="http://www.w3.org/2000/svg"><path d="M14.933 0.034 C 10.237 0.384,6.020 2.671,3.211 6.391 C 1.590 8.538,0.590 10.959,0.146 13.813 C -0.017 14.858,-0.017 17.142,0.146 18.187 C 0.830 22.578,2.950 26.177,6.391 28.787 C 8.515 30.398,10.963 31.410,13.813 31.854 C 14.858 32.017,17.142 32.017,18.187 31.854 C 20.149 31.549,21.935 30.970,23.505 30.132 C 26.290 28.646,28.646 26.290,30.132 23.505 C 30.970 21.935,31.549 20.149,31.854 18.187 C 32.017 17.142,32.017 14.858,31.854 13.813 C 31.410 10.961,30.399 8.515,28.784 6.386 C 26.139 2.901,22.361 0.710,18.000 0.132 C 17.376 0.050,15.520 -0.010,14.933 0.034 M22.987 8.960 L 22.987 9.920 16.080 9.920 L 9.173 9.920 9.173 8.960 L 9.173 8.000 16.080 8.000 L 22.987 8.000 22.987 8.960 M24.693 14.613 L 24.693 15.573 22.080 15.573 L 19.467 15.573 19.467 18.935 C 19.467 22.548,19.467 22.549,19.740 22.740 C 19.846 22.814,20.050 22.827,21.181 22.827 L 22.498 22.827 22.662 22.689 C 22.934 22.460,23.052 21.861,23.125 20.342 L 23.161 19.590 23.887 19.822 C 24.287 19.950,24.699 20.078,24.804 20.107 L 24.995 20.159 24.975 20.466 C 24.891 21.723,24.680 23.056,24.478 23.600 C 24.331 23.996,24.005 24.320,23.581 24.492 C 23.285 24.611,23.247 24.613,21.093 24.613 C 18.921 24.613,18.905 24.613,18.596 24.488 C 18.245 24.346,17.964 24.121,17.789 23.842 C 17.512 23.399,17.522 23.540,17.493 19.440 L 17.467 15.600 16.000 15.600 L 14.533 15.600 14.499 16.347 C 14.407 18.382,13.868 20.307,13.024 21.621 C 12.170 22.952,10.603 24.069,8.462 24.875 L 8.113 25.006 7.574 24.182 C 7.277 23.729,7.047 23.338,7.062 23.314 C 7.078 23.289,7.277 23.203,7.505 23.121 C 8.150 22.893,9.255 22.341,9.813 21.969 C 10.468 21.534,11.157 20.839,11.452 20.317 C 12.047 19.266,12.423 17.806,12.514 16.201 L 12.549 15.573 10.088 15.573 L 7.627 15.573 7.627 14.613 L 7.627 13.653 16.160 13.653 L 24.693 13.653 24.693 14.613 " stroke="none" fill-rule="evenodd" fill="black"></path></svg>