<svg width="32" height="32" xmlns="http://www.w3.org/2000/svg"><path d="M14.933 0.034 C 10.237 0.384,6.020 2.671,3.211 6.391 C 1.590 8.538,0.590 10.959,0.146 13.813 C -0.017 14.858,-0.017 17.142,0.146 18.187 C 0.830 22.578,2.950 26.177,6.391 28.787 C 8.515 30.398,10.963 31.410,13.813 31.854 C 14.858 32.017,17.142 32.017,18.187 31.854 C 20.149 31.549,21.935 30.970,23.505 30.132 C 26.290 28.646,28.646 26.290,30.132 23.505 C 30.970 21.935,31.549 20.149,31.854 18.187 C 32.017 17.142,32.017 14.858,31.854 13.813 C 31.410 10.961,30.399 8.515,28.784 6.386 C 26.139 2.901,22.361 0.710,18.000 0.132 C 17.376 0.050,15.520 -0.010,14.933 0.034 M20.381 7.267 C 20.293 7.421,19.779 8.315,19.239 9.253 L 18.257 10.960 15.999 10.960 L 13.740 10.960 12.766 9.265 C 12.230 8.332,11.717 7.438,11.625 7.278 L 11.459 6.987 16.000 6.987 L 20.541 6.987 20.381 7.267 M11.683 9.547 C 12.277 10.588,12.764 11.467,12.764 11.499 C 12.764 11.532,12.262 12.437,11.649 13.511 L 10.533 15.464 8.280 15.465 C 7.041 15.466,6.027 15.453,6.027 15.437 C 6.027 15.417,9.928 8.578,10.493 7.609 C 10.507 7.584,10.537 7.584,10.560 7.609 C 10.583 7.633,11.088 8.505,11.683 9.547 M21.718 7.987 C 21.848 8.214,22.858 9.977,23.963 11.904 C 25.069 13.831,25.973 15.421,25.973 15.437 C 25.973 15.453,24.959 15.466,23.720 15.466 L 21.467 15.465 20.351 13.510 C 19.738 12.435,19.236 11.528,19.236 11.495 C 19.236 11.437,21.433 7.573,21.466 7.573 C 21.475 7.573,21.588 7.759,21.718 7.987 M11.649 18.490 C 12.262 19.565,12.764 20.471,12.764 20.502 C 12.764 20.611,10.544 24.432,10.506 24.389 C 10.458 24.335,6.027 16.586,6.027 16.556 C 6.027 16.543,7.041 16.534,8.280 16.534 L 10.533 16.535 11.649 18.490 M25.973 16.556 C 25.973 16.586,21.541 24.335,21.492 24.391 C 21.470 24.415,20.946 23.549,20.327 22.465 L 19.201 20.495 20.334 18.515 L 21.467 16.535 23.720 16.534 C 24.959 16.534,25.973 16.543,25.973 16.556 M19.401 23.027 L 20.525 24.987 18.262 25.001 C 17.018 25.008,14.982 25.008,13.737 25.001 L 11.474 24.987 12.599 23.027 L 13.723 21.067 16.000 21.067 L 18.277 21.067 19.401 23.027 " stroke="none" fill-rule="evenodd" fill="black"></path></svg>