<svg width="32" height="32" xmlns="http://www.w3.org/2000/svg"><path d="M14.933 0.034 C 10.237 0.384,6.020 2.671,3.211 6.391 C 1.590 8.538,0.590 10.959,0.146 13.813 C -0.017 14.858,-0.017 17.142,0.146 18.187 C 0.830 22.578,2.950 26.177,6.391 28.787 C 8.515 30.398,10.963 31.410,13.813 31.854 C 14.858 32.017,17.142 32.017,18.187 31.854 C 20.149 31.549,21.935 30.970,23.505 30.132 C 26.290 28.646,28.646 26.290,30.132 23.505 C 30.970 21.935,31.549 20.149,31.854 18.187 C 32.017 17.142,32.017 14.858,31.854 13.813 C 31.410 10.961,30.399 8.515,28.784 6.386 C 26.139 2.901,22.361 0.710,18.000 0.132 C 17.376 0.050,15.520 -0.010,14.933 0.034 M19.653 5.174 C 20.402 5.463,20.981 6.393,20.852 7.098 C 20.672 8.084,19.192 8.027,19.017 7.027 C 18.969 6.753,19.072 6.414,19.260 6.226 C 19.408 6.077,19.412 6.064,19.322 5.995 C 19.087 5.815,18.573 5.762,18.276 5.886 C 17.847 6.065,17.445 6.773,17.194 7.792 C 17.074 8.277,16.897 9.535,16.938 9.606 C 16.948 9.623,17.102 9.653,17.280 9.672 C 18.354 9.784,19.592 10.353,20.219 11.022 C 20.571 11.397,20.582 11.430,20.548 11.956 C 20.525 12.317,20.541 12.537,20.616 12.863 L 20.714 13.294 20.567 13.421 C 20.381 13.581,20.097 13.589,19.957 13.438 C 19.901 13.379,19.787 13.159,19.702 12.949 C 19.503 12.455,19.016 11.719,18.680 11.404 C 18.255 11.006,17.578 10.720,17.064 10.720 L 16.907 10.720 16.935 13.133 C 16.949 14.461,16.976 16.885,16.994 18.521 L 17.026 21.496 17.220 21.462 C 17.955 21.335,19.006 20.844,19.733 20.289 C 19.983 20.098,20.327 19.835,20.499 19.705 C 20.671 19.574,20.846 19.467,20.888 19.467 C 21.038 19.467,21.227 19.719,21.227 19.920 C 21.227 20.463,20.412 21.256,19.260 21.837 C 18.760 22.088,17.899 22.373,17.382 22.458 L 16.978 22.524 16.910 23.002 C 16.660 24.772,15.867 26.139,14.773 26.686 C 14.296 26.925,13.904 27.004,13.336 26.976 C 12.770 26.949,12.388 26.788,11.984 26.405 C 11.660 26.099,11.479 25.774,11.418 25.386 C 11.304 24.664,11.650 24.213,12.319 24.214 C 12.665 24.214,12.908 24.339,13.067 24.600 C 13.294 24.971,13.269 25.488,13.010 25.783 C 12.924 25.881,12.853 25.973,12.853 25.987 C 12.853 26.056,13.407 26.240,13.615 26.240 C 14.349 26.240,14.966 25.179,15.228 23.467 C 15.271 23.188,15.306 22.864,15.306 22.746 L 15.307 22.532 14.845 22.413 C 12.924 21.917,11.262 20.283,10.611 18.252 C 10.358 17.462,10.274 16.879,10.276 15.920 C 10.278 14.014,10.768 12.605,11.823 11.465 C 12.569 10.660,13.704 10.031,14.858 9.784 L 15.289 9.692 15.352 9.151 C 15.444 8.361,15.642 7.680,15.978 7.000 C 16.478 5.990,17.192 5.344,18.087 5.094 C 18.503 4.978,19.243 5.016,19.653 5.174 M14.950 10.908 C 13.622 11.409,12.706 12.726,12.355 14.640 C 12.128 15.877,12.224 17.249,12.622 18.441 C 13.034 19.673,13.845 20.702,14.768 21.164 C 15.012 21.287,15.248 21.387,15.291 21.387 C 15.359 21.387,15.364 20.729,15.331 16.093 C 15.310 13.182,15.290 10.796,15.286 10.792 C 15.283 10.787,15.131 10.840,14.950 10.908 " stroke="none" fill-rule="evenodd" fill="black"></path></svg>