<svg width="32" height="32" xmlns="http://www.w3.org/2000/svg"><path d="M14.933 0.034 C 10.237 0.384,6.020 2.671,3.211 6.391 C 1.590 8.538,0.590 10.959,0.146 13.813 C -0.017 14.858,-0.017 17.142,0.146 18.187 C 0.830 22.578,2.950 26.177,6.391 28.787 C 8.515 30.398,10.963 31.410,13.813 31.854 C 14.858 32.017,17.142 32.017,18.187 31.854 C 20.149 31.549,21.935 30.970,23.505 30.132 C 26.290 28.646,28.646 26.290,30.132 23.505 C 30.970 21.935,31.549 20.149,31.854 18.187 C 32.017 17.142,32.017 14.858,31.854 13.813 C 31.410 10.961,30.399 8.515,28.784 6.386 C 26.139 2.901,22.361 0.710,18.000 0.132 C 17.376 0.050,15.520 -0.010,14.933 0.034 M20.192 8.055 C 21.536 8.162,22.423 8.376,23.286 8.799 C 25.634 9.951,26.408 12.294,25.727 16.184 C 25.489 17.541,25.190 18.517,24.688 19.570 C 24.261 20.464,23.769 21.186,23.144 21.835 C 21.794 23.237,20.153 23.967,17.920 24.160 C 17.581 24.189,15.439 24.213,13.129 24.213 L 8.952 24.213 8.983 24.067 C 9.030 23.846,9.546 20.939,9.546 20.893 C 9.547 20.871,11.118 20.853,13.038 20.853 C 16.718 20.853,17.260 20.828,18.114 20.612 C 20.055 20.122,20.953 19.154,21.519 16.938 C 22.174 14.373,22.018 12.934,20.999 12.165 C 20.514 11.798,19.964 11.599,19.067 11.463 C 18.783 11.420,17.397 11.388,14.930 11.366 L 11.220 11.333 11.516 9.667 L 11.811 8.000 15.658 8.000 C 17.817 8.000,19.806 8.024,20.192 8.055 M16.107 14.452 C 16.107 14.547,15.728 16.118,15.645 16.368 C 15.377 17.175,14.803 17.630,13.897 17.756 C 13.636 17.792,12.118 17.813,9.756 17.813 C 6.560 17.813,6.027 17.802,6.027 17.737 C 6.027 17.623,6.339 16.279,6.436 15.973 C 6.732 15.047,7.317 14.551,8.228 14.455 C 8.822 14.393,16.107 14.390,16.107 14.452 " stroke="none" fill-rule="evenodd" fill="black"></path></svg>