<svg viewBox="0 0 32 32" xmlns="http://www.w3.org/2000/svg"><path d="M14.933 0.034 C 10.237 0.384,6.020 2.671,3.211 6.391 C 1.590 8.538,0.590 10.959,0.146 13.813 C -0.017 14.858,-0.017 17.142,0.146 18.187 C 0.830 22.578,2.950 26.177,6.391 28.787 C 8.515 30.398,10.963 31.410,13.813 31.854 C 14.858 32.017,17.142 32.017,18.187 31.854 C 20.149 31.549,21.935 30.970,23.505 30.132 C 26.290 28.646,28.646 26.290,30.132 23.505 C 30.970 21.935,31.549 20.149,31.854 18.187 C 32.017 17.142,32.017 14.858,31.854 13.813 C 31.410 10.961,30.399 8.515,28.784 6.386 C 26.139 2.901,22.361 0.710,18.000 0.132 C 17.376 0.050,15.520 -0.010,14.933 0.034 M16.928 5.216 C 17.586 5.524,18.058 6.119,18.182 6.796 C 18.219 6.996,18.240 8.055,18.240 9.659 L 18.240 12.204 20.307 11.029 C 22.709 9.663,23.030 9.500,23.449 9.442 C 23.850 9.387,24.376 9.462,24.732 9.625 C 25.134 9.809,25.567 10.240,25.774 10.661 C 25.937 10.992,25.947 11.044,25.947 11.602 C 25.947 12.169,25.939 12.207,25.764 12.553 C 25.650 12.777,25.476 13.009,25.306 13.164 C 25.126 13.327,24.270 13.844,22.822 14.662 C 21.607 15.349,20.583 15.934,20.547 15.962 C 20.500 15.998,21.147 16.391,22.760 17.305 C 24.250 18.149,25.136 18.684,25.318 18.848 C 25.498 19.011,25.659 19.226,25.772 19.456 C 25.937 19.792,25.947 19.842,25.947 20.400 C 25.947 20.956,25.937 21.008,25.774 21.339 C 25.375 22.150,24.402 22.702,23.565 22.591 C 23.089 22.527,22.733 22.353,20.567 21.123 C 19.369 20.442,18.355 19.873,18.314 19.857 C 18.252 19.833,18.240 20.224,18.240 22.358 C 18.240 25.036,18.219 25.328,17.993 25.773 C 17.177 27.384,14.819 27.385,14.009 25.775 C 13.776 25.313,13.760 25.097,13.760 22.392 C 13.760 20.229,13.748 19.833,13.686 19.857 C 13.645 19.873,12.631 20.442,11.433 21.123 C 9.267 22.353,8.911 22.527,8.435 22.591 C 7.588 22.703,6.585 22.121,6.197 21.293 C 6.068 21.018,6.053 20.926,6.053 20.399 C 6.053 19.842,6.063 19.792,6.228 19.456 C 6.341 19.226,6.502 19.011,6.682 18.848 C 6.864 18.684,7.750 18.149,9.240 17.305 C 10.853 16.391,11.500 15.998,11.453 15.962 C 11.417 15.934,10.391 15.349,9.173 14.662 C 6.740 13.289,6.511 13.123,6.210 12.507 C 6.066 12.212,6.053 12.141,6.053 11.600 C 6.053 11.074,6.068 10.981,6.197 10.707 C 6.720 9.592,8.065 9.112,9.188 9.641 C 9.371 9.727,10.474 10.339,11.640 11.000 L 13.760 12.204 13.760 9.625 C 13.760 7.918,13.780 6.950,13.820 6.763 C 13.951 6.145,14.373 5.583,14.927 5.288 C 15.351 5.061,15.574 5.014,16.116 5.035 C 16.497 5.050,16.640 5.081,16.928 5.216 M15.438 5.816 C 15.137 5.931,14.773 6.261,14.643 6.535 C 14.472 6.895,14.452 7.276,14.466 9.946 L 14.480 12.609 15.200 13.023 C 15.596 13.251,15.956 13.437,16.000 13.436 C 16.044 13.435,16.404 13.249,16.800 13.023 L 17.520 12.611 17.534 9.947 C 17.548 7.276,17.528 6.895,17.357 6.535 C 17.042 5.870,16.157 5.539,15.438 5.816 M7.600 10.259 C 7.292 10.403,7.026 10.656,6.863 10.960 C 6.773 11.127,6.749 11.266,6.749 11.600 C 6.749 12.092,6.846 12.328,7.182 12.648 C 7.357 12.814,12.132 15.573,12.245 15.573 C 12.267 15.573,12.618 15.387,13.024 15.160 L 13.762 14.747 13.748 13.873 L 13.733 12.999 11.627 11.801 C 8.570 10.063,8.711 10.133,8.251 10.134 C 7.960 10.134,7.802 10.165,7.600 10.259 M22.922 10.369 C 22.679 10.498,21.532 11.142,20.373 11.800 L 18.267 12.997 18.252 13.872 L 18.238 14.747 18.986 15.165 C 19.398 15.396,19.764 15.573,19.801 15.559 C 20.100 15.444,24.660 12.799,24.818 12.648 C 25.154 12.328,25.251 12.092,25.251 11.600 C 25.251 11.266,25.227 11.127,25.137 10.960 C 24.849 10.423,24.365 10.135,23.749 10.134 C 23.396 10.133,23.328 10.153,22.922 10.369 M14.453 13.867 C 14.453 14.128,14.475 14.293,14.509 14.293 C 14.604 14.293,15.249 13.903,15.223 13.861 C 15.196 13.818,14.534 13.440,14.485 13.440 C 14.467 13.440,14.453 13.632,14.453 13.867 M17.156 13.621 C 16.986 13.719,16.824 13.821,16.797 13.848 C 16.749 13.896,17.369 14.293,17.491 14.293 C 17.525 14.293,17.547 14.128,17.547 13.867 C 17.547 13.632,17.529 13.441,17.507 13.442 C 17.485 13.443,17.327 13.523,17.156 13.621 M15.212 14.727 L 14.451 15.160 14.465 16.012 L 14.480 16.864 15.240 17.291 L 16.000 17.718 16.760 17.291 L 17.520 16.864 17.535 16.012 L 17.549 15.159 16.784 14.726 C 16.364 14.488,16.009 14.294,15.996 14.294 C 15.984 14.294,15.631 14.489,15.212 14.727 M13.347 15.778 C 13.164 15.886,13.014 15.986,13.014 16.002 C 13.013 16.032,13.680 16.427,13.731 16.427 C 13.747 16.427,13.760 16.235,13.760 16.000 C 13.760 15.765,13.742 15.576,13.720 15.578 C 13.698 15.581,13.530 15.671,13.347 15.778 M18.240 15.996 C 18.240 16.233,18.253 16.427,18.269 16.427 C 18.321 16.427,18.987 16.032,18.987 16.001 C 18.987 15.977,18.432 15.648,18.281 15.582 C 18.258 15.572,18.240 15.758,18.240 15.996 M9.770 17.810 C 8.441 18.567,7.268 19.267,7.165 19.366 C 6.846 19.673,6.749 19.914,6.749 20.400 C 6.749 20.734,6.773 20.873,6.863 21.040 C 7.143 21.562,7.680 21.889,8.249 21.883 C 8.677 21.879,8.731 21.853,11.493 20.283 L 13.733 19.010 13.746 18.132 L 13.760 17.253 13.023 16.840 C 12.617 16.613,12.263 16.428,12.236 16.430 C 12.209 16.432,11.099 17.053,9.770 17.810 M18.974 16.841 L 18.241 17.253 18.254 18.131 L 18.267 19.008 20.453 20.252 C 23.286 21.862,23.320 21.879,23.744 21.883 C 24.321 21.889,24.856 21.565,25.137 21.040 C 25.227 20.873,25.251 20.734,25.251 20.400 C 25.251 19.907,25.153 19.670,24.818 19.354 C 24.643 19.188,19.853 16.425,19.745 16.427 C 19.724 16.428,19.377 16.614,18.974 16.841 M14.453 18.133 C 14.453 18.368,14.466 18.560,14.482 18.560 C 14.532 18.560,15.252 18.161,15.252 18.133 C 15.252 18.098,14.563 17.707,14.501 17.707 C 14.475 17.707,14.453 17.899,14.453 18.133 M17.080 17.912 C 16.897 18.019,16.748 18.119,16.748 18.133 C 16.749 18.161,17.468 18.560,17.518 18.560 C 17.534 18.560,17.547 18.368,17.547 18.133 C 17.547 17.825,17.528 17.708,17.480 17.712 C 17.443 17.714,17.264 17.804,17.080 17.912 M15.200 18.983 L 14.480 19.401 14.466 22.059 C 14.452 24.723,14.472 25.105,14.643 25.465 C 14.863 25.928,15.461 26.293,16.000 26.293 C 16.539 26.293,17.137 25.928,17.357 25.465 C 17.528 25.105,17.548 24.723,17.534 22.059 L 17.520 19.401 16.800 18.983 C 16.404 18.753,16.044 18.565,16.000 18.565 C 15.956 18.565,15.596 18.753,15.200 18.983 " stroke="none" fill-rule="evenodd" fill="black"></path></svg>