<svg width="32" height="32" xmlns="http://www.w3.org/2000/svg"><path d="M14.933 0.034 C 10.237 0.384,6.020 2.671,3.211 6.391 C 1.590 8.538,0.590 10.959,0.146 13.813 C -0.017 14.858,-0.017 17.142,0.146 18.187 C 0.830 22.578,2.950 26.177,6.391 28.787 C 8.515 30.398,10.963 31.410,13.813 31.854 C 14.858 32.017,17.142 32.017,18.187 31.854 C 20.149 31.549,21.935 30.970,23.505 30.132 C 26.290 28.646,28.646 26.290,30.132 23.505 C 30.970 21.935,31.549 20.149,31.854 18.187 C 32.017 17.142,32.017 14.858,31.854 13.813 C 31.410 10.961,30.399 8.515,28.784 6.386 C 26.139 2.901,22.361 0.710,18.000 0.132 C 17.376 0.050,15.520 -0.010,14.933 0.034 M16.532 5.145 C 17.148 5.270,17.843 5.481,18.412 5.717 L 18.931 5.932 18.754 6.139 C 18.657 6.253,18.549 6.439,18.515 6.552 C 18.472 6.698,18.453 7.596,18.453 9.589 L 18.453 12.420 18.012 12.213 C 17.189 11.827,16.228 11.644,15.360 11.707 C 12.970 11.882,11.036 13.495,10.415 15.829 C 10.296 16.278,10.277 16.457,10.276 17.173 C 10.275 17.909,10.290 18.059,10.419 18.533 C 10.952 20.495,12.439 21.979,14.373 22.480 C 15.592 22.795,16.940 22.650,18.104 22.078 C 18.337 21.963,18.532 21.875,18.537 21.881 C 18.543 21.888,18.585 22.026,18.632 22.188 C 18.740 22.567,19.015 22.887,19.390 23.070 C 19.645 23.195,19.730 23.211,20.042 23.188 C 20.826 23.132,21.352 22.581,21.353 21.813 C 21.353 21.623,21.325 21.414,21.290 21.350 C 21.242 21.262,21.227 19.551,21.227 14.268 L 21.227 7.302 21.453 7.460 C 22.268 8.027,23.484 9.116,24.246 9.960 C 25.377 11.213,26.086 12.369,26.365 13.419 L 26.495 13.904 26.125 13.714 C 25.395 13.340,24.842 13.444,24.497 14.020 C 24.189 14.535,24.127 15.296,24.323 16.174 C 24.384 16.445,24.465 17.111,24.504 17.653 C 24.543 18.196,24.600 18.704,24.631 18.781 C 24.708 18.976,24.894 19.093,25.126 19.093 C 25.416 19.093,25.978 18.904,26.231 18.721 C 26.353 18.632,26.462 18.560,26.473 18.560 C 26.512 18.560,26.294 19.415,26.106 19.995 C 25.270 22.582,23.569 24.699,21.440 25.805 C 20.486 26.300,19.373 26.666,18.240 26.855 C 17.618 26.959,16.118 27.015,15.351 26.962 L 14.782 26.924 14.572 26.488 C 14.304 25.934,13.859 25.367,13.345 24.929 C 12.852 24.509,12.546 24.303,11.741 23.853 C 10.919 23.393,10.462 23.080,9.628 22.406 C 9.246 22.097,8.789 21.729,8.613 21.587 C 7.887 21.001,7.316 20.864,6.890 21.172 C 6.769 21.260,6.629 21.394,6.579 21.470 L 6.488 21.610 6.423 21.485 C 6.387 21.416,6.270 21.110,6.164 20.804 C 5.195 18.019,5.306 15.168,6.491 12.373 C 7.068 11.013,7.949 9.633,9.052 8.362 C 9.719 7.593,10.805 6.570,11.352 6.195 C 12.195 5.618,13.187 5.212,14.107 5.069 C 14.549 5.000,16.049 5.047,16.532 5.145 M15.693 8.269 C 15.332 8.453,14.991 8.943,14.988 9.284 C 14.985 9.573,15.416 9.789,15.823 9.705 C 15.935 9.681,16.219 9.623,16.453 9.576 C 17.108 9.443,17.185 9.419,17.242 9.328 C 17.319 9.206,17.253 9.003,17.052 8.739 C 16.653 8.216,16.144 8.040,15.693 8.269 M16.484 14.646 C 17.585 14.973,17.992 15.647,17.993 17.147 C 17.993 17.704,17.971 17.914,17.879 18.214 C 17.623 19.052,17.070 19.514,16.262 19.562 C 15.468 19.609,14.717 19.314,14.129 18.725 C 13.628 18.223,13.479 17.886,13.451 17.200 C 13.433 16.758,13.449 16.608,13.544 16.320 C 13.743 15.719,14.149 15.201,14.693 14.855 C 15.133 14.576,15.932 14.482,16.484 14.646 " stroke="none" fill-rule="evenodd" fill="black"></path></svg>