<svg width="32" height="32" xmlns="http://www.w3.org/2000/svg"><path d="M14.933 0.034 C 10.237 0.384,6.020 2.671,3.211 6.391 C 1.590 8.538,0.590 10.959,0.146 13.813 C -0.017 14.858,-0.017 17.142,0.146 18.187 C 0.830 22.578,2.950 26.177,6.391 28.787 C 8.515 30.398,10.963 31.410,13.813 31.854 C 14.858 32.017,17.142 32.017,18.187 31.854 C 20.149 31.549,21.935 30.970,23.505 30.132 C 26.290 28.646,28.646 26.290,30.132 23.505 C 30.970 21.935,31.549 20.149,31.854 18.187 C 32.017 17.142,32.017 14.858,31.854 13.813 C 31.410 10.961,30.399 8.515,28.784 6.386 C 26.139 2.901,22.361 0.710,18.000 0.132 C 17.376 0.050,15.520 -0.010,14.933 0.034 M15.917 5.733 C 16.173 9.328,16.369 12.980,16.484 16.320 C 16.562 18.577,16.562 23.559,16.483 24.987 C 16.402 26.449,16.281 27.713,16.207 27.858 C 15.982 28.297,15.355 28.243,15.207 27.772 C 15.139 27.557,15.006 26.029,14.929 24.587 C 14.854 23.188,14.855 18.158,14.930 16.080 C 15.074 12.092,15.310 8.047,15.636 3.973 C 15.719 2.937,15.717 2.924,15.917 5.733 M16.769 5.532 C 17.443 7.261,18.018 9.437,18.428 11.813 C 19.444 17.704,19.322 23.801,18.129 26.858 C 17.888 27.474,17.760 27.627,17.481 27.627 C 17.330 27.627,17.258 27.590,17.144 27.454 C 16.979 27.258,16.979 27.318,17.144 25.280 C 17.309 23.256,17.342 22.346,17.370 19.120 C 17.401 15.579,17.355 13.832,17.171 11.680 C 17.080 10.608,16.542 5.565,16.452 4.935 C 16.435 4.819,16.434 4.736,16.449 4.751 C 16.463 4.766,16.608 5.117,16.769 5.532 M14.723 7.205 C 14.151 12.340,14.084 13.304,14.044 17.013 C 14.004 20.614,14.105 23.423,14.376 26.306 C 14.445 27.036,14.445 27.170,14.379 27.329 C 14.263 27.606,13.964 27.711,13.697 27.568 C 13.454 27.438,12.987 26.112,12.748 24.875 C 12.134 21.694,12.186 16.993,12.885 12.507 C 13.282 9.952,13.969 7.280,14.718 5.370 C 14.842 5.053,14.954 4.803,14.966 4.814 C 14.977 4.826,14.868 5.902,14.723 7.205 M12.871 9.107 C 11.312 15.182,11.073 20.678,12.170 25.253 C 12.402 26.221,12.414 26.402,12.258 26.576 C 11.951 26.920,11.630 26.746,11.265 26.039 C 10.198 23.976,9.812 18.783,10.456 15.147 C 10.682 13.872,11.231 11.989,11.763 10.667 C 12.078 9.882,13.049 8.000,13.138 8.000 C 13.148 8.000,13.028 8.498,12.871 9.107 M19.070 9.354 C 20.217 11.658,20.990 14.396,21.226 16.987 C 21.302 17.820,21.304 20.089,21.229 21.040 C 21.020 23.695,20.578 25.534,19.933 26.436 C 19.647 26.836,19.289 26.857,19.110 26.482 C 19.024 26.300,19.026 26.273,19.219 25.481 C 19.522 24.232,19.701 23.180,19.850 21.760 C 19.956 20.747,19.939 17.352,19.821 16.133 C 19.595 13.791,19.158 11.335,18.556 9.013 C 18.438 8.559,18.329 8.139,18.314 8.080 C 18.260 7.864,18.685 8.582,19.070 9.354 M21.216 12.947 C 21.723 13.843,21.968 14.326,22.296 15.066 C 23.168 17.039,23.451 18.461,23.398 20.612 C 23.368 21.842,23.295 22.350,23.036 23.135 C 22.714 24.114,21.868 25.385,21.539 25.386 C 21.333 25.387,21.359 25.082,21.701 23.431 C 22.057 21.714,22.107 21.209,22.107 19.333 C 22.107 18.027,22.086 17.529,22.009 16.960 C 21.833 15.668,21.559 14.463,21.154 13.209 C 21.025 12.808,20.927 12.480,20.936 12.480 C 20.945 12.480,21.071 12.690,21.216 12.947 M10.312 13.120 C 9.934 14.251,9.594 15.725,9.410 17.040 C 9.294 17.867,9.249 20.093,9.331 20.945 C 9.417 21.850,9.609 22.979,9.843 23.958 C 10.029 24.739,10.094 25.283,10.012 25.365 C 9.835 25.544,9.246 24.878,8.827 24.027 C 8.277 22.906,8.084 21.886,8.087 20.107 C 8.090 18.323,8.246 17.390,8.782 15.952 C 9.009 15.343,9.479 14.298,9.744 13.813 C 10.156 13.061,10.466 12.528,10.482 12.544 C 10.492 12.554,10.415 12.813,10.312 13.120 " stroke="none" fill-rule="evenodd" fill="black"></path></svg>