<svg width="32" height="32" xmlns="http://www.w3.org/2000/svg"><path d="M14.933 0.034 C 10.237 0.384,6.020 2.671,3.211 6.391 C 1.590 8.538,0.590 10.959,0.146 13.813 C -0.017 14.858,-0.017 17.142,0.146 18.187 C 0.830 22.578,2.950 26.177,6.391 28.787 C 8.515 30.398,10.963 31.410,13.813 31.854 C 14.858 32.017,17.142 32.017,18.187 31.854 C 20.149 31.549,21.935 30.970,23.505 30.132 C 26.290 28.646,28.646 26.290,30.132 23.505 C 30.970 21.935,31.549 20.149,31.854 18.187 C 32.017 17.142,32.017 14.858,31.854 13.813 C 31.410 10.961,30.399 8.515,28.784 6.386 C 26.139 2.901,22.361 0.710,18.000 0.132 C 17.376 0.050,15.520 -0.010,14.933 0.034 M19.387 9.295 L 24.933 12.560 24.971 16.000 C 24.999 18.646,24.993 19.454,24.944 19.500 C 24.848 19.590,13.882 25.973,13.824 25.973 C 13.694 25.973,10.677 24.223,9.426 23.422 L 8.027 22.525 8.027 15.998 L 8.027 9.470 9.840 8.398 C 10.837 7.808,12.121 7.034,12.693 6.678 C 13.265 6.322,13.757 6.030,13.787 6.030 C 13.816 6.029,16.336 7.499,19.387 9.295 M12.678 7.219 C 12.069 7.575,11.570 7.891,11.569 7.920 C 11.569 7.958,19.468 12.623,21.818 13.972 C 21.881 14.008,22.201 13.850,23.071 13.354 C 23.714 12.987,24.256 12.670,24.275 12.650 C 24.318 12.606,13.967 6.558,13.861 6.565 C 13.820 6.568,13.288 6.862,12.678 7.219 M8.480 16.046 L 8.480 22.172 9.640 22.867 L 10.800 23.563 10.827 22.301 C 10.841 21.608,10.841 18.845,10.827 16.163 L 10.800 11.286 9.663 10.603 C 9.038 10.227,8.516 9.920,8.503 9.920 C 8.490 9.920,8.480 12.677,8.480 16.046 M12.388 10.602 L 11.257 11.280 11.255 15.907 C 11.254 18.451,11.265 20.533,11.279 20.533 C 11.293 20.533,11.821 20.219,12.452 19.836 L 13.600 19.138 13.600 14.529 C 13.600 11.994,13.582 9.921,13.560 9.922 C 13.538 9.923,13.011 10.229,12.388 10.602 M14.039 11.310 L 14.053 12.647 17.840 14.864 C 19.923 16.083,21.657 17.092,21.694 17.106 C 21.748 17.127,21.759 16.855,21.748 15.785 L 21.733 14.438 17.920 12.208 C 15.823 10.981,14.088 9.976,14.066 9.975 C 14.043 9.974,14.031 10.575,14.039 11.310 M13.973 16.084 C 13.973 17.928,13.992 18.883,14.027 18.871 C 14.140 18.833,18.769 16.025,18.771 15.993 C 18.774 15.948,14.115 13.280,14.035 13.280 C 13.989 13.280,13.973 14.002,13.973 16.084 M15.458 18.575 C 13.356 19.814,11.620 20.842,11.600 20.862 C 11.581 20.881,12.073 21.199,12.694 21.568 C 13.692 22.160,13.837 22.231,13.938 22.177 C 14.209 22.033,21.577 17.694,21.618 17.655 C 21.662 17.612,19.452 16.318,19.341 16.322 C 19.307 16.323,17.560 17.337,15.458 18.575 M19.322 19.538 L 14.138 22.587 14.106 22.800 C 14.089 22.917,14.082 23.554,14.091 24.215 L 14.107 25.417 19.320 22.352 L 24.533 19.288 24.533 17.884 C 24.533 17.112,24.527 16.482,24.520 16.484 C 24.513 16.487,22.174 17.861,19.322 19.538 " stroke="none" fill-rule="evenodd" fill="black"></path></svg>