<svg width="32" height="32" xmlns="http://www.w3.org/2000/svg"><path d="M14.933 0.034 C 10.237 0.384,6.020 2.671,3.211 6.391 C 1.590 8.538,0.590 10.959,0.146 13.813 C -0.017 14.858,-0.017 17.142,0.146 18.187 C 0.830 22.578,2.950 26.177,6.391 28.787 C 8.515 30.398,10.963 31.410,13.813 31.854 C 14.858 32.017,17.142 32.017,18.187 31.854 C 20.149 31.549,21.935 30.970,23.505 30.132 C 26.290 28.646,28.646 26.290,30.132 23.505 C 30.970 21.935,31.549 20.149,31.854 18.187 C 32.017 17.142,32.017 14.858,31.854 13.813 C 31.410 10.961,30.399 8.515,28.784 6.386 C 26.139 2.901,22.361 0.710,18.000 0.132 C 17.376 0.050,15.520 -0.010,14.933 0.034 M17.021 4.056 C 20.513 4.409,23.515 6.505,25.018 9.638 C 25.617 10.887,25.906 12.075,25.958 13.500 C 26.006 14.828,25.817 15.903,25.305 17.213 C 24.313 19.749,22.519 22.308,19.386 25.653 C 17.998 27.135,17.363 27.739,17.012 27.910 C 16.460 28.180,15.737 28.181,15.158 27.914 C 14.912 27.800,14.659 27.578,13.840 26.753 C 12.357 25.261,10.560 23.247,10.560 23.077 C 10.560 23.031,10.583 22.979,10.612 22.961 C 10.640 22.943,10.970 23.026,11.345 23.145 C 11.720 23.263,12.297 23.406,12.628 23.461 L 13.230 23.563 13.691 24.061 C 13.945 24.336,14.539 24.950,15.012 25.427 C 16.174 26.600,15.974 26.618,17.360 25.214 C 21.122 21.405,23.307 18.202,24.012 15.467 C 24.545 13.398,24.004 10.937,22.597 9.034 C 22.147 8.426,21.299 7.626,20.630 7.181 C 19.374 6.344,18.170 5.926,16.698 5.816 C 12.597 5.508,8.959 8.251,8.108 12.293 C 7.967 12.965,7.911 14.127,7.995 14.662 C 8.033 14.902,8.038 15.077,8.008 15.107 C 7.981 15.133,7.795 15.176,7.594 15.201 C 7.347 15.231,7.110 15.307,6.857 15.437 C 6.553 15.593,6.472 15.615,6.416 15.559 C 6.278 15.421,6.174 14.428,6.205 13.547 C 6.271 11.664,6.833 9.931,7.882 8.373 C 9.909 5.367,13.448 3.694,17.021 4.056 M16.863 8.201 C 17.678 8.426,18.550 8.848,19.200 9.331 C 19.995 9.923,20.802 10.879,21.255 11.765 C 22.188 13.594,22.209 15.948,21.309 17.787 C 20.948 18.525,20.537 19.084,19.859 19.762 C 19.193 20.427,18.504 20.923,17.680 21.332 C 15.201 22.562,12.559 22.514,10.318 21.200 C 9.145 20.511,8.087 19.432,7.299 18.121 C 7.078 17.753,7.040 17.649,7.040 17.413 C 7.040 17.107,7.166 16.868,7.431 16.672 C 7.672 16.493,8.131 16.515,8.419 16.720 C 9.119 17.219,9.346 17.349,9.733 17.475 C 10.265 17.648,10.919 17.673,11.186 17.530 C 11.560 17.330,11.544 17.509,11.573 13.360 L 11.600 9.627 11.769 9.269 C 12.036 8.707,12.474 8.328,13.093 8.126 C 13.254 8.073,13.693 8.060,14.880 8.072 C 16.290 8.086,16.496 8.099,16.863 8.201 M13.447 9.907 C 13.336 9.999,13.336 10.023,13.320 13.680 C 13.304 17.311,13.303 17.365,13.187 17.707 C 12.907 18.532,12.260 19.116,11.413 19.304 C 10.724 19.458,10.751 19.416,11.183 19.669 C 12.973 20.718,15.229 20.698,17.147 19.614 C 18.680 18.749,19.709 17.499,20.063 16.073 C 20.231 15.397,20.232 14.137,20.064 13.520 C 19.723 12.267,18.836 11.129,17.669 10.447 C 16.736 9.901,16.327 9.813,14.728 9.813 C 13.692 9.813,13.546 9.824,13.447 9.907 " stroke="none" fill-rule="evenodd" fill="black"></path></svg>