<svg width="32" height="32" xmlns="http://www.w3.org/2000/svg"><path d="M14.933 0.034 C 10.237 0.384,6.020 2.671,3.211 6.391 C 1.590 8.538,0.590 10.959,0.146 13.813 C -0.017 14.858,-0.017 17.142,0.146 18.187 C 0.830 22.578,2.950 26.177,6.391 28.787 C 8.515 30.398,10.963 31.410,13.813 31.854 C 14.858 32.017,17.142 32.017,18.187 31.854 C 20.149 31.549,21.935 30.970,23.505 30.132 C 26.290 28.646,28.646 26.290,30.132 23.505 C 30.970 21.935,31.549 20.149,31.854 18.187 C 32.017 17.142,32.017 14.858,31.854 13.813 C 31.410 10.961,30.399 8.515,28.784 6.386 C 26.139 2.901,22.361 0.710,18.000 0.132 C 17.376 0.050,15.520 -0.010,14.933 0.034 M16.333 5.659 C 16.385 5.721,16.427 5.850,16.427 5.947 C 16.427 6.169,16.288 6.337,16.069 6.379 C 15.926 6.407,15.871 6.386,15.735 6.250 C 15.636 6.151,15.573 6.033,15.573 5.947 C 15.573 5.860,15.636 5.742,15.735 5.643 C 15.871 5.507,15.926 5.486,16.069 5.514 C 16.163 5.532,16.282 5.598,16.333 5.659 M15.461 6.627 C 15.789 6.903,16.250 6.884,16.586 6.581 C 16.700 6.478,16.809 6.322,16.828 6.234 C 16.847 6.146,16.880 6.082,16.902 6.091 C 16.923 6.099,18.527 7.039,20.467 8.179 L 23.994 10.252 23.861 10.452 C 23.696 10.702,23.650 10.973,23.730 11.218 C 23.870 11.642,24.168 11.853,24.621 11.847 L 24.907 11.844 24.907 16.002 L 24.907 20.160 24.595 20.160 C 24.252 20.160,24.022 20.275,23.820 20.548 C 23.649 20.779,23.664 21.250,23.851 21.533 L 23.996 21.751 20.444 23.838 C 18.491 24.985,16.888 25.917,16.882 25.909 C 16.877 25.900,16.841 25.815,16.803 25.720 C 16.710 25.488,16.419 25.240,16.188 25.197 C 15.773 25.119,15.347 25.344,15.197 25.720 C 15.159 25.815,15.124 25.900,15.118 25.908 C 15.113 25.916,13.510 24.984,11.556 23.837 L 8.004 21.751 8.142 21.543 C 8.337 21.249,8.358 20.940,8.203 20.640 C 8.022 20.288,7.782 20.148,7.400 20.169 L 7.093 20.187 7.093 16.015 L 7.093 11.844 7.379 11.847 C 7.832 11.853,8.130 11.642,8.270 11.218 C 8.350 10.973,8.304 10.702,8.139 10.453 L 8.008 10.254 11.560 8.168 L 15.111 6.082 15.201 6.283 C 15.251 6.394,15.368 6.548,15.461 6.627 M15.750 7.382 L 15.600 7.511 15.584 8.950 L 15.568 10.388 15.148 10.450 C 13.666 10.667,12.346 11.429,11.458 12.581 L 11.318 12.763 10.208 12.111 C 9.597 11.753,9.036 11.447,8.961 11.432 C 8.744 11.389,8.533 11.587,8.533 11.835 C 8.533 12.100,8.586 12.143,9.707 12.799 C 10.220 13.100,10.693 13.379,10.757 13.419 L 10.874 13.492 10.722 13.861 C 10.461 14.495,10.339 15.064,10.309 15.787 C 10.271 16.722,10.417 17.525,10.798 18.460 C 10.826 18.528,10.611 18.677,9.769 19.170 C 9.183 19.512,8.662 19.840,8.610 19.897 C 8.466 20.057,8.489 20.314,8.661 20.462 C 8.741 20.530,8.856 20.587,8.918 20.587 C 8.979 20.587,9.500 20.312,10.075 19.977 C 10.650 19.641,11.157 19.352,11.201 19.335 C 11.256 19.315,11.349 19.391,11.484 19.568 C 11.754 19.923,12.345 20.474,12.745 20.746 C 13.435 21.214,14.477 21.609,15.225 21.686 L 15.568 21.721 15.584 23.105 L 15.600 24.489 15.750 24.618 C 15.940 24.781,16.114 24.781,16.304 24.618 L 16.453 24.489 16.469 23.104 L 16.485 21.718 16.842 21.651 C 18.195 21.400,19.462 20.615,20.252 19.539 C 20.389 19.352,20.524 19.200,20.553 19.200 C 20.582 19.200,21.124 19.505,21.756 19.877 C 23.003 20.610,23.174 20.669,23.367 20.431 C 23.505 20.261,23.496 19.992,23.347 19.856 C 23.281 19.796,22.723 19.453,22.107 19.094 C 21.491 18.734,20.978 18.432,20.967 18.422 C 20.956 18.413,20.990 18.247,21.042 18.053 C 21.122 17.756,21.127 17.660,21.075 17.432 C 21.041 17.284,20.963 17.092,20.902 17.007 C 20.675 16.688,20.127 16.543,19.797 16.715 C 19.567 16.835,19.436 17.012,19.255 17.450 C 18.684 18.834,17.471 19.705,16.019 19.774 C 15.368 19.805,14.856 19.707,14.315 19.446 C 13.862 19.228,13.372 18.860,13.109 18.543 L 12.911 18.305 14.896 17.143 C 15.987 16.504,17.636 15.537,18.560 14.995 C 19.484 14.453,20.912 13.615,21.733 13.133 C 22.555 12.652,23.285 12.201,23.356 12.132 C 23.538 11.954,23.529 11.701,23.334 11.533 C 23.227 11.442,23.142 11.412,23.045 11.431 C 22.969 11.446,22.391 11.764,21.760 12.137 C 21.129 12.511,20.577 12.826,20.533 12.837 C 20.486 12.850,20.412 12.790,20.353 12.689 C 20.298 12.596,20.055 12.320,19.814 12.076 C 19.038 11.291,17.993 10.721,16.961 10.519 L 16.485 10.427 16.469 8.969 L 16.453 7.511 16.304 7.382 C 16.114 7.219,15.940 7.219,15.750 7.382 M7.791 10.351 C 7.887 10.447,7.898 10.508,7.875 10.816 C 7.853 11.116,7.827 11.190,7.708 11.292 C 7.631 11.359,7.510 11.413,7.440 11.413 C 7.268 11.413,7.038 11.204,7.028 11.040 C 6.996 10.489,7.134 10.240,7.471 10.240 C 7.611 10.240,7.716 10.276,7.791 10.351 M24.912 10.741 C 25.051 10.969,25.039 11.075,24.857 11.257 C 24.670 11.445,24.482 11.457,24.299 11.293 C 24.065 11.082,24.108 10.706,24.380 10.592 C 24.609 10.495,24.793 10.546,24.912 10.741 M16.773 12.455 C 17.133 12.548,17.762 12.845,17.992 13.028 L 18.143 13.150 15.378 14.772 C 13.858 15.664,12.532 16.442,12.432 16.500 L 12.251 16.606 12.290 15.920 C 12.369 14.544,12.731 13.752,13.563 13.138 C 14.559 12.405,15.669 12.168,16.773 12.455 M7.699 20.697 C 7.807 20.782,7.840 20.855,7.840 21.011 C 7.840 21.415,7.460 21.620,7.171 21.372 C 6.960 21.190,6.957 20.893,7.166 20.713 C 7.347 20.557,7.515 20.552,7.699 20.697 M24.834 20.713 C 25.043 20.893,25.040 21.190,24.829 21.372 C 24.540 21.620,24.160 21.415,24.160 21.011 C 24.160 20.636,24.546 20.465,24.834 20.713 M16.177 25.662 C 16.348 25.753,16.423 25.873,16.423 26.053 C 16.423 26.335,16.167 26.540,15.890 26.479 C 15.506 26.395,15.457 25.869,15.813 25.664 C 15.950 25.586,16.033 25.585,16.177 25.662 " stroke="none" fill-rule="evenodd" fill="black"></path></svg>