<svg viewBox="0 0 32 32" xmlns="http://www.w3.org/2000/svg"><path d="M14.933 0.034 C 10.237 0.384,6.020 2.671,3.211 6.391 C 1.590 8.538,0.590 10.959,0.146 13.813 C -0.017 14.858,-0.017 17.142,0.146 18.187 C 0.830 22.578,2.950 26.177,6.391 28.787 C 8.515 30.398,10.963 31.410,13.813 31.854 C 14.858 32.017,17.142 32.017,18.187 31.854 C 20.149 31.549,21.935 30.970,23.505 30.132 C 26.290 28.646,28.646 26.290,30.132 23.505 C 30.970 21.935,31.549 20.149,31.854 18.187 C 32.017 17.142,32.017 14.858,31.854 13.813 C 31.410 10.961,30.399 8.515,28.784 6.386 C 26.139 2.901,22.361 0.710,18.000 0.132 C 17.376 0.050,15.520 -0.010,14.933 0.034 M19.920 9.113 C 20.972 9.268,21.960 9.615,22.757 10.111 C 23.246 10.415,23.995 11.139,24.318 11.620 C 24.807 12.348,25.177 13.313,25.373 14.373 C 25.500 15.054,25.498 16.848,25.370 17.547 C 25.088 19.083,24.456 20.352,23.534 21.233 C 22.626 22.101,21.667 22.568,20.187 22.864 C 19.742 22.953,19.276 22.960,13.893 22.960 C 8.398 22.960,8.070 22.955,7.904 22.864 C 7.655 22.728,7.520 22.481,7.520 22.160 C 7.520 21.829,7.651 21.560,7.888 21.401 L 8.069 21.280 10.501 21.280 C 11.839 21.280,13.131 21.264,13.373 21.245 L 13.813 21.211 13.813 18.928 L 13.813 16.644 11.427 16.629 C 9.195 16.614,9.027 16.607,8.833 16.511 C 8.304 16.248,8.307 15.324,8.838 15.061 C 9.025 14.967,9.214 14.959,11.427 14.945 L 13.813 14.929 13.813 12.826 L 13.813 10.723 11.080 10.708 C 8.557 10.694,8.332 10.686,8.151 10.596 C 8.035 10.538,7.920 10.426,7.871 10.321 C 7.766 10.101,7.762 9.656,7.862 9.416 C 7.947 9.212,8.065 9.134,8.389 9.068 C 8.743 8.996,19.407 9.037,19.920 9.113 M16.259 10.759 C 15.799 10.796,15.816 10.718,15.798 12.959 L 15.782 14.919 16.819 14.943 C 17.961 14.969,18.040 14.990,18.242 15.323 C 18.393 15.571,18.385 16.034,18.225 16.272 C 18.017 16.580,17.898 16.610,16.785 16.631 L 15.783 16.650 15.798 18.830 L 15.813 21.010 15.935 21.132 C 16.056 21.253,16.061 21.253,17.695 21.253 C 19.445 21.253,19.746 21.223,20.453 20.974 C 22.075 20.404,23.043 19.107,23.338 17.108 C 23.442 16.405,23.414 15.113,23.281 14.455 C 22.852 12.333,21.611 11.109,19.573 10.798 C 19.101 10.726,16.986 10.701,16.259 10.759 " stroke="none" fill-rule="evenodd" fill="black"></path></svg>