<svg width="32" height="32" xmlns="http://www.w3.org/2000/svg"><path d="M14.933 0.034 C 10.237 0.384,6.020 2.671,3.211 6.391 C 1.590 8.538,0.590 10.959,0.146 13.813 C -0.017 14.858,-0.017 17.142,0.146 18.187 C 0.830 22.578,2.950 26.177,6.391 28.787 C 8.515 30.398,10.963 31.410,13.813 31.854 C 14.858 32.017,17.142 32.017,18.187 31.854 C 20.149 31.549,21.935 30.970,23.505 30.132 C 26.290 28.646,28.646 26.290,30.132 23.505 C 30.970 21.935,31.549 20.149,31.854 18.187 C 32.017 17.142,32.017 14.858,31.854 13.813 C 31.410 10.961,30.399 8.515,28.784 6.386 C 26.139 2.901,22.361 0.710,18.000 0.132 C 17.376 0.050,15.520 -0.010,14.933 0.034 M18.108 9.199 C 17.359 11.979,16.747 14.263,16.747 14.273 C 16.747 14.284,18.242 14.299,20.069 14.306 L 23.392 14.320 17.353 20.663 C 14.031 24.151,11.193 27.126,11.045 27.274 L 10.776 27.543 12.508 22.938 C 13.461 20.406,14.240 18.325,14.240 18.313 C 14.240 18.302,12.845 18.293,11.141 18.293 C 8.596 18.293,8.047 18.281,8.069 18.223 C 8.109 18.119,19.424 4.100,19.448 4.124 C 19.460 4.135,18.857 6.419,18.108 9.199 " stroke="none" fill-rule="evenodd" fill="black"></path></svg>