<svg viewBox="0 0 32 32" xmlns="http://www.w3.org/2000/svg"><path d="M14.933 0.034 C 10.237 0.384,6.020 2.671,3.211 6.391 C 1.590 8.538,0.590 10.959,0.146 13.813 C -0.017 14.858,-0.017 17.142,0.146 18.187 C 0.830 22.578,2.950 26.177,6.391 28.787 C 8.515 30.398,10.963 31.410,13.813 31.854 C 14.858 32.017,17.142 32.017,18.187 31.854 C 20.149 31.549,21.935 30.970,23.505 30.132 C 26.290 28.646,28.646 26.290,30.132 23.505 C 30.970 21.935,31.549 20.149,31.854 18.187 C 32.017 17.142,32.017 14.858,31.854 13.813 C 31.410 10.961,30.399 8.515,28.784 6.386 C 26.139 2.901,22.361 0.710,18.000 0.132 C 17.376 0.050,15.520 -0.010,14.933 0.034 M17.410 6.209 C 18.709 6.847,18.943 8.596,17.859 9.570 C 17.013 10.331,15.572 10.147,14.943 9.197 C 14.675 8.793,14.598 8.486,14.624 7.928 C 14.644 7.512,14.672 7.392,14.813 7.120 C 15.065 6.635,15.404 6.319,15.877 6.129 C 16.281 5.967,16.994 6.004,17.410 6.209 M9.832 8.191 C 10.498 8.363,11.123 8.806,11.499 9.372 C 11.611 9.541,11.802 9.920,11.924 10.213 C 12.187 10.849,12.710 11.901,12.871 12.120 C 13.364 12.789,14.498 13.057,15.544 12.752 C 16.240 12.549,16.753 12.706,17.052 13.215 C 17.176 13.426,17.200 13.526,17.198 13.840 C 17.195 14.610,16.696 15.084,15.947 15.030 C 15.521 14.999,15.269 14.819,14.872 14.260 C 14.492 13.724,14.121 13.387,13.671 13.165 C 13.358 13.011,13.278 12.994,12.836 12.995 C 12.227 12.995,11.745 13.147,10.928 13.597 C 10.036 14.089,9.796 14.160,9.040 14.160 C 8.510 14.160,8.339 14.139,8.044 14.037 C 7.130 13.721,6.357 12.873,6.106 11.909 C 6.003 11.514,6.005 10.774,6.109 10.373 C 6.379 9.336,7.229 8.457,8.219 8.191 C 8.609 8.086,9.425 8.086,9.832 8.191 M23.156 12.013 C 24.885 12.576,25.976 14.114,25.972 15.984 C 25.970 17.164,25.595 18.080,24.773 18.912 C 24.028 19.666,23.184 20.035,22.080 20.089 C 21.565 20.114,21.390 20.101,20.989 20.005 C 19.559 19.662,18.452 18.640,17.993 17.241 C 17.850 16.805,17.840 16.717,17.843 15.947 C 17.845 15.206,17.860 15.078,17.982 14.711 C 18.419 13.405,19.421 12.406,20.693 12.007 C 21.193 11.851,21.234 11.846,22.027 11.864 C 22.621 11.877,22.818 11.903,23.156 12.013 M16.630 16.873 C 17.150 17.202,17.323 17.853,17.042 18.427 C 16.875 18.768,16.657 18.954,16.316 19.045 C 16.110 19.100,15.970 19.093,15.362 18.991 C 14.880 18.911,14.563 18.884,14.378 18.908 C 13.673 19.001,12.889 19.615,12.506 20.374 C 12.395 20.594,12.201 21.053,12.075 21.396 C 11.753 22.270,11.516 22.714,11.177 23.080 C 10.679 23.618,10.006 23.898,9.185 23.907 C 8.306 23.917,7.585 23.636,6.989 23.049 C 6.352 22.422,6.046 21.624,6.096 20.720 C 6.131 20.093,6.286 19.620,6.621 19.119 C 7.065 18.455,7.769 17.997,8.549 17.863 C 9.141 17.762,9.581 17.849,11.147 18.381 C 11.895 18.635,12.601 18.860,12.716 18.882 C 13.367 19.007,14.389 18.321,14.927 17.399 C 15.143 17.027,15.383 16.807,15.656 16.729 C 15.905 16.658,16.406 16.732,16.630 16.873 M17.411 22.132 C 18.649 22.732,18.931 24.432,17.955 25.407 C 16.983 26.380,15.432 26.103,14.802 24.843 C 14.632 24.503,14.613 24.423,14.613 24.028 C 14.613 23.787,14.648 23.474,14.691 23.332 C 14.859 22.775,15.392 22.232,15.952 22.051 C 16.323 21.930,17.082 21.973,17.411 22.132 " stroke="none" fill-rule="evenodd" fill="black"></path></svg>