<svg width="32" height="32" xmlns="http://www.w3.org/2000/svg"><path d="M14.933 0.034 C 10.237 0.384,6.020 2.671,3.211 6.391 C 1.590 8.538,0.590 10.959,0.146 13.813 C -0.017 14.858,-0.017 17.142,0.146 18.187 C 0.830 22.578,2.950 26.177,6.391 28.787 C 8.515 30.398,10.963 31.410,13.813 31.854 C 14.858 32.017,17.142 32.017,18.187 31.854 C 20.149 31.549,21.935 30.970,23.505 30.132 C 26.290 28.646,28.646 26.290,30.132 23.505 C 30.970 21.935,31.549 20.149,31.854 18.187 C 32.017 17.142,32.017 14.858,31.854 13.813 C 31.410 10.961,30.399 8.515,28.784 6.386 C 26.139 2.901,22.361 0.710,18.000 0.132 C 17.376 0.050,15.520 -0.010,14.933 0.034 M16.321 5.100 C 16.511 5.226,26.647 15.346,26.832 15.595 C 26.944 15.745,26.987 15.863,26.987 16.021 L 26.987 16.239 21.613 21.613 L 16.239 26.987 16.000 26.987 L 15.761 26.987 10.387 21.613 L 5.013 16.239 5.013 16.000 L 5.013 15.761 10.387 10.387 C 15.735 5.039,15.762 5.013,15.975 5.013 C 16.093 5.013,16.249 5.053,16.321 5.100 M11.680 11.707 L 7.387 16.000 11.240 19.853 L 15.093 23.707 15.093 19.853 L 15.093 16.000 16.000 16.000 L 16.907 16.000 16.907 19.853 L 16.907 23.707 20.760 19.853 L 24.613 16.000 20.320 11.707 C 17.959 9.345,16.015 7.413,16.000 7.413 C 15.985 7.413,14.041 9.345,11.680 11.707 " stroke="none" fill-rule="evenodd" fill="black"></path></svg>