<svg width="32" height="32" xmlns="http://www.w3.org/2000/svg"><path d="M14.933 0.034 C 10.237 0.384,6.020 2.671,3.211 6.391 C 1.590 8.538,0.590 10.959,0.146 13.813 C -0.017 14.858,-0.017 17.142,0.146 18.187 C 0.830 22.578,2.950 26.177,6.391 28.787 C 8.515 30.398,10.963 31.410,13.813 31.854 C 14.858 32.017,17.142 32.017,18.187 31.854 C 20.149 31.549,21.935 30.970,23.505 30.132 C 26.290 28.646,28.646 26.290,30.132 23.505 C 30.970 21.935,31.549 20.149,31.854 18.187 C 32.017 17.142,32.017 14.858,31.854 13.813 C 31.410 10.961,30.399 8.515,28.784 6.386 C 26.139 2.901,22.361 0.710,18.000 0.132 C 17.376 0.050,15.520 -0.010,14.933 0.034 M23.148 9.095 C 24.205 9.224,24.635 9.397,24.838 9.775 C 24.935 9.958,24.968 10.571,24.893 10.836 C 24.840 11.025,24.604 11.301,24.431 11.375 C 24.336 11.417,22.537 11.454,18.560 11.497 C 13.004 11.557,12.811 11.563,12.305 11.674 C 10.916 11.981,10.393 12.597,10.264 14.077 C 10.201 14.801,9.311 14.720,17.280 14.720 C 22.323 14.720,24.192 14.736,24.325 14.781 C 24.843 14.957,24.986 15.201,24.974 15.884 C 24.962 16.529,24.873 16.723,24.507 16.907 L 24.240 17.040 17.253 17.067 L 10.267 17.093 10.278 17.609 C 10.308 18.922,10.660 19.620,11.487 20.003 C 12.381 20.418,13.355 20.473,19.815 20.477 L 24.244 20.480 24.482 20.600 C 24.983 20.853,25.148 21.587,24.822 22.115 C 24.610 22.457,24.325 22.644,23.817 22.773 C 23.043 22.970,22.142 22.997,17.173 22.972 C 12.221 22.948,12.126 22.943,10.784 22.692 C 8.836 22.327,7.787 21.466,7.337 19.863 C 7.076 18.935,7.026 18.408,7.001 16.354 C 6.963 13.303,7.158 12.064,7.836 11.024 C 8.562 9.912,9.891 9.328,12.213 9.101 C 13.392 8.986,22.215 8.981,23.148 9.095 " stroke="none" fill-rule="evenodd" fill="black"></path></svg>