<svg viewBox="0 0 32 32" xmlns="http://www.w3.org/2000/svg"><path d="M14.933 0.034 C 10.237 0.384,6.020 2.671,3.211 6.391 C 1.590 8.538,0.590 10.959,0.146 13.813 C -0.017 14.858,-0.017 17.142,0.146 18.187 C 0.830 22.578,2.950 26.177,6.391 28.787 C 8.515 30.398,10.963 31.410,13.813 31.854 C 14.858 32.017,17.142 32.017,18.187 31.854 C 20.149 31.549,21.935 30.970,23.505 30.132 C 26.290 28.646,28.646 26.290,30.132 23.505 C 30.970 21.935,31.549 20.149,31.854 18.187 C 32.017 17.142,32.017 14.858,31.854 13.813 C 31.410 10.961,30.399 8.515,28.784 6.386 C 26.139 2.901,22.361 0.710,18.000 0.132 C 17.376 0.050,15.520 -0.010,14.933 0.034 M16.275 4.469 C 16.344 4.551,17.528 6.160,18.907 8.044 L 21.413 11.471 22.651 17.109 C 23.331 20.210,23.889 22.823,23.891 22.916 C 23.893 23.043,23.856 23.112,23.747 23.189 C 23.666 23.246,21.920 24.345,19.867 25.633 C 17.501 27.116,16.084 27.973,16.000 27.972 C 15.917 27.972,14.400 27.051,12.013 25.554 C 8.963 23.640,8.152 23.109,8.127 23.006 C 8.086 22.843,10.536 11.603,10.654 11.413 C 10.780 11.210,15.629 4.577,15.751 4.440 C 15.902 4.272,16.120 4.284,16.275 4.469 M13.550 8.511 C 12.394 10.093,11.401 11.450,11.344 11.528 L 11.242 11.669 11.788 13.394 C 12.088 14.343,12.348 15.147,12.367 15.180 C 12.385 15.213,13.138 13.935,14.041 12.340 L 15.681 9.440 15.667 7.538 L 15.653 5.636 13.550 8.511 M16.320 7.544 L 16.320 9.435 17.955 12.320 C 18.854 13.907,19.607 15.186,19.629 15.162 C 19.707 15.078,20.752 11.717,20.723 11.642 C 20.687 11.549,16.375 5.653,16.343 5.653 C 16.330 5.653,16.320 6.504,16.320 7.544 M14.310 13.137 L 12.647 16.083 13.419 18.508 C 13.843 19.842,14.311 21.311,14.458 21.773 L 14.725 22.613 16.000 22.613 L 17.275 22.613 17.648 21.453 C 17.854 20.815,18.322 19.346,18.690 18.189 L 19.359 16.085 17.693 13.137 C 16.777 11.516,16.015 10.190,16.000 10.190 C 15.985 10.191,15.225 11.517,14.310 13.137 M10.914 12.996 C 10.897 13.050,10.525 14.737,10.085 16.747 C 9.646 18.756,9.263 20.505,9.234 20.633 C 9.205 20.761,9.201 20.845,9.223 20.820 C 9.261 20.778,11.738 16.409,11.888 16.120 C 11.941 16.018,11.878 15.774,11.462 14.467 C 11.194 13.623,10.968 12.926,10.959 12.916 C 10.950 12.906,10.930 12.942,10.914 12.996 M20.546 14.467 L 20.053 16.020 21.422 18.437 C 22.175 19.766,22.796 20.848,22.802 20.840 C 22.821 20.819,21.095 12.970,21.064 12.940 C 21.050 12.925,20.816 13.612,20.546 14.467 M10.597 19.702 C 9.726 21.239,9.013 22.523,9.013 22.555 C 9.013 22.596,9.752 22.613,11.526 22.613 L 14.039 22.613 14.009 22.498 C 13.905 22.099,12.234 16.907,12.210 16.907 C 12.194 16.907,11.468 18.165,10.597 19.702 M19.772 16.942 C 19.740 16.994,17.973 22.535,17.973 22.582 C 17.973 22.621,22.958 22.624,22.998 22.584 C 23.023 22.559,19.944 17.059,19.839 16.942 C 19.817 16.917,19.786 16.917,19.772 16.942 M9.920 23.478 C 11.889 24.740,15.417 26.915,15.404 26.858 C 15.394 26.818,15.135 25.991,14.827 25.020 L 14.267 23.255 11.920 23.255 L 9.573 23.256 9.920 23.478 M14.948 23.320 C 14.961 23.357,15.197 24.100,15.472 24.973 C 15.748 25.845,15.985 26.559,16.000 26.559 C 16.015 26.560,16.253 25.846,16.528 24.973 C 16.804 24.101,17.040 23.357,17.054 23.320 C 17.073 23.268,16.840 23.253,16.001 23.253 C 15.163 23.253,14.930 23.268,14.948 23.320 M17.729 23.327 C 17.696 23.412,16.587 26.900,16.587 26.917 C 16.587 26.932,22.351 23.320,22.390 23.281 C 22.405 23.266,21.369 23.253,20.087 23.253 C 18.161 23.253,17.752 23.266,17.729 23.327 " stroke="none" fill-rule="evenodd" fill="black"></path></svg>