<svg width="32" height="32" xmlns="http://www.w3.org/2000/svg"><path d="M14.933 0.034 C 10.237 0.384,6.020 2.671,3.211 6.391 C 1.590 8.538,0.590 10.959,0.146 13.813 C -0.017 14.858,-0.017 17.142,0.146 18.187 C 0.830 22.578,2.950 26.177,6.391 28.787 C 8.515 30.398,10.963 31.410,13.813 31.854 C 14.858 32.017,17.142 32.017,18.187 31.854 C 20.149 31.549,21.935 30.970,23.505 30.132 C 26.290 28.646,28.646 26.290,30.132 23.505 C 30.970 21.935,31.549 20.149,31.854 18.187 C 32.017 17.142,32.017 14.858,31.854 13.813 C 31.410 10.961,30.399 8.515,28.784 6.386 C 26.139 2.901,22.361 0.710,18.000 0.132 C 17.376 0.050,15.520 -0.010,14.933 0.034 M13.342 5.712 C 13.392 5.782,14.719 8.155,16.290 10.984 C 18.104 14.250,19.147 16.182,19.147 16.274 C 19.147 16.367,19.096 16.458,19.006 16.529 C 18.876 16.632,18.796 16.640,17.945 16.640 C 17.148 16.640,17.010 16.628,16.910 16.547 C 16.847 16.495,15.958 14.929,14.934 13.067 C 13.911 11.204,13.054 9.682,13.030 9.685 C 12.988 9.690,8.860 17.266,8.856 17.347 C 8.854 17.369,9.241 17.387,9.716 17.387 C 10.967 17.387,10.991 17.432,10.394 18.627 C 10.186 19.045,9.978 19.429,9.933 19.480 C 9.857 19.566,9.679 19.573,7.653 19.573 C 5.541 19.573,5.453 19.569,5.362 19.469 C 5.299 19.400,5.275 19.306,5.289 19.189 C 5.301 19.084,6.802 16.323,9.007 12.347 C 11.041 8.680,12.728 5.651,12.756 5.617 C 12.883 5.460,13.198 5.512,13.342 5.712 M19.187 5.587 C 19.367 5.745,26.720 19.063,26.720 19.230 C 26.720 19.311,26.680 19.422,26.632 19.476 C 26.547 19.569,26.297 19.573,20.822 19.573 L 15.101 19.573 14.991 19.433 C 14.890 19.305,14.880 19.221,14.880 18.480 C 14.880 17.739,14.890 17.655,14.991 17.527 L 15.101 17.387 19.130 17.387 C 22.928 17.387,23.156 17.381,23.123 17.294 C 23.048 17.101,19.024 9.707,18.993 9.707 C 18.975 9.707,18.780 10.061,18.560 10.493 C 18.135 11.330,18.015 11.462,17.743 11.394 C 17.621 11.363,17.534 11.228,17.173 10.506 C 16.939 10.038,16.747 9.618,16.747 9.574 C 16.747 9.411,18.688 5.607,18.798 5.553 C 18.961 5.474,19.070 5.483,19.187 5.587 M14.692 13.687 C 14.792 13.725,15.627 15.358,15.627 15.515 C 15.627 15.571,14.775 17.087,13.733 18.884 C 12.692 20.681,11.848 22.159,11.858 22.169 C 11.868 22.179,13.740 22.181,16.017 22.174 L 20.158 22.160 19.760 21.493 C 19.337 20.787,19.287 20.606,19.467 20.427 C 19.566 20.327,19.644 20.320,20.610 20.320 C 21.611 20.320,21.652 20.324,21.780 20.440 C 21.853 20.506,22.335 21.328,22.851 22.267 C 23.827 24.041,23.854 24.110,23.648 24.320 C 23.579 24.390,22.657 24.400,15.993 24.400 L 8.417 24.400 8.315 24.274 C 8.259 24.205,8.213 24.101,8.213 24.043 C 8.213 23.985,8.882 22.853,9.699 21.529 C 10.516 20.204,11.862 17.932,12.690 16.480 C 13.518 15.028,14.244 13.798,14.304 13.747 C 14.416 13.649,14.543 13.630,14.692 13.687 " stroke="none" fill-rule="evenodd" fill="black"></path></svg>