<svg width="32" height="32" xmlns="http://www.w3.org/2000/svg"><path d="M14.933 0.034 C 10.237 0.384,6.020 2.671,3.211 6.391 C 1.590 8.538,0.590 10.959,0.146 13.813 C -0.017 14.858,-0.017 17.142,0.146 18.187 C 0.830 22.578,2.950 26.177,6.391 28.787 C 8.515 30.398,10.963 31.410,13.813 31.854 C 14.858 32.017,17.142 32.017,18.187 31.854 C 20.149 31.549,21.935 30.970,23.505 30.132 C 26.290 28.646,28.646 26.290,30.132 23.505 C 30.970 21.935,31.549 20.149,31.854 18.187 C 32.017 17.142,32.017 14.858,31.854 13.813 C 31.410 10.961,30.399 8.515,28.784 6.386 C 26.139 2.901,22.361 0.710,18.000 0.132 C 17.376 0.050,15.520 -0.010,14.933 0.034 M18.966 6.109 C 19.887 6.269,20.719 6.604,21.510 7.135 C 22.555 7.836,23.470 9.161,23.822 10.481 C 23.945 10.945,23.964 11.120,23.966 11.840 C 23.968 12.575,23.952 12.731,23.821 13.244 C 23.475 14.589,22.910 15.522,21.905 16.408 C 20.989 17.214,19.614 17.771,18.347 17.849 C 17.420 17.906,16.770 17.721,16.329 17.274 C 15.954 16.895,15.824 16.589,15.799 16.027 C 15.770 15.412,15.891 15.061,16.274 14.643 C 16.672 14.206,16.957 14.089,17.831 14.002 C 18.651 13.920,18.980 13.804,19.356 13.464 C 19.799 13.063,20.032 12.415,19.986 11.707 C 19.911 10.543,18.946 9.894,17.437 9.992 C 15.785 10.101,14.122 10.994,13.159 12.292 C 12.282 13.472,11.853 14.992,11.996 16.413 C 12.268 19.113,13.805 20.968,16.407 21.733 C 16.746 21.832,17.092 21.886,17.627 21.920 C 18.037 21.947,18.446 21.990,18.535 22.017 C 19.942 22.441,20.446 24.237,19.458 25.310 C 18.913 25.903,18.328 26.069,17.120 25.976 C 14.490 25.772,11.863 24.364,10.155 22.240 C 9.236 21.098,8.459 19.239,8.159 17.469 C 7.758 15.096,8.171 12.892,9.394 10.895 C 10.924 8.395,13.486 6.648,16.373 6.135 C 17.091 6.007,18.310 5.995,18.966 6.109 " stroke="none" fill-rule="evenodd" fill="black"></path></svg>