<svg viewBox="0 0 32 32" xmlns="http://www.w3.org/2000/svg"><path d="M14.933 0.034 C 10.237 0.384,6.020 2.671,3.211 6.391 C 1.590 8.538,0.590 10.959,0.146 13.813 C -0.017 14.858,-0.017 17.142,0.146 18.187 C 0.830 22.578,2.950 26.177,6.391 28.787 C 8.515 30.398,10.963 31.410,13.813 31.854 C 14.858 32.017,17.142 32.017,18.187 31.854 C 20.149 31.549,21.935 30.970,23.505 30.132 C 26.290 28.646,28.646 26.290,30.132 23.505 C 30.970 21.935,31.549 20.149,31.854 18.187 C 32.017 17.142,32.017 14.858,31.854 13.813 C 31.410 10.961,30.399 8.515,28.784 6.386 C 26.139 2.901,22.361 0.710,18.000 0.132 C 17.376 0.050,15.520 -0.010,14.933 0.034 M15.590 6.126 C 16.220 6.542,16.023 7.545,15.288 7.655 C 15.080 7.686,14.994 7.671,14.791 7.566 C 14.219 7.272,14.187 6.466,14.733 6.133 C 14.960 5.994,15.385 5.991,15.590 6.126 M20.593 7.087 C 20.770 7.264,20.800 7.327,20.800 7.527 C 20.799 8.103,20.224 8.451,19.749 8.162 C 19.351 7.920,19.301 7.373,19.647 7.055 C 19.811 6.905,19.877 6.880,20.112 6.880 C 20.359 6.880,20.406 6.900,20.593 7.087 M11.147 7.647 C 11.618 7.896,11.849 8.474,11.682 8.982 C 11.371 9.922,10.012 9.969,9.629 9.054 C 9.233 8.107,10.245 7.169,11.147 7.647 M24.057 10.236 C 24.473 10.651,24.012 11.325,23.485 11.073 C 23.243 10.958,23.131 10.703,23.204 10.435 C 23.310 10.054,23.768 9.947,24.057 10.236 M8.177 11.471 C 8.427 11.540,8.772 11.843,8.912 12.116 C 9.236 12.752,8.979 13.533,8.344 13.844 C 7.456 14.278,6.484 13.675,6.489 12.693 C 6.491 12.294,6.608 12.018,6.889 11.749 C 7.217 11.435,7.684 11.334,8.177 11.471 M12.962 11.953 C 13.474 12.250,13.953 12.494,14.027 12.494 C 14.100 12.494,14.545 12.265,15.024 11.981 C 15.588 11.644,15.939 11.468,16.037 11.470 C 16.127 11.472,16.561 11.693,17.120 12.021 L 18.053 12.569 18.067 16.164 C 18.077 18.583,18.063 19.804,18.025 19.893 C 17.987 19.984,17.660 20.218,16.998 20.627 L 16.027 21.226 15.999 17.480 C 15.984 15.419,15.966 13.730,15.959 13.726 C 15.609 13.516,14.036 12.640,14.010 12.640 C 13.990 12.640,13.973 14.148,13.973 15.992 C 13.973 19.116,13.967 19.349,13.880 19.427 C 13.769 19.526,12.047 20.533,11.988 20.533 C 11.965 20.533,11.947 19.026,11.947 17.184 C 11.947 14.585,11.932 13.814,11.880 13.748 C 11.843 13.701,11.393 13.418,10.880 13.119 C 10.367 12.821,9.939 12.570,9.930 12.561 C 9.901 12.533,11.864 11.419,11.948 11.416 C 11.993 11.415,12.449 11.656,12.962 11.953 M21.014 11.898 C 21.439 12.136,21.865 12.389,21.960 12.461 L 22.133 12.592 22.133 15.992 L 22.133 19.393 21.151 19.963 C 20.610 20.277,20.154 20.533,20.137 20.533 C 20.121 20.533,20.107 19.035,20.107 17.203 L 20.107 13.873 19.987 13.739 C 19.921 13.665,19.478 13.382,19.003 13.109 C 18.528 12.836,18.133 12.589,18.127 12.560 C 18.107 12.471,19.899 11.470,20.081 11.468 C 20.184 11.467,20.516 11.620,21.014 11.898 M25.667 13.943 C 26.191 14.130,26.475 14.533,26.478 15.093 C 26.481 15.673,26.149 16.099,25.560 16.271 C 25.069 16.414,24.466 16.123,24.209 15.619 C 24.054 15.314,24.069 14.830,24.245 14.507 C 24.526 13.992,25.131 13.751,25.667 13.943 M7.636 16.144 C 8.324 16.528,8.549 17.402,8.140 18.100 C 7.881 18.542,7.460 18.774,6.922 18.772 C 6.210 18.770,5.654 18.298,5.524 17.584 C 5.408 16.947,5.831 16.251,6.480 16.008 C 6.767 15.901,7.317 15.966,7.636 16.144 M25.264 18.913 C 25.567 19.158,25.705 19.434,25.706 19.802 C 25.709 20.841,24.489 21.298,23.802 20.516 C 23.475 20.144,23.447 19.633,23.729 19.189 C 23.945 18.848,24.241 18.709,24.704 18.732 C 25.008 18.747,25.091 18.774,25.264 18.913 M9.420 20.524 C 9.664 20.650,9.923 20.913,10.059 21.173 C 10.202 21.446,10.194 22.037,10.042 22.324 C 9.377 23.584,7.520 23.139,7.520 21.719 C 7.520 21.145,7.892 20.625,8.427 20.452 C 8.729 20.354,9.150 20.385,9.420 20.524 M22.193 22.836 C 22.641 23.088,22.735 23.700,22.383 24.074 C 22.047 24.430,21.531 24.450,21.201 24.120 C 21.018 23.937,20.960 23.789,20.960 23.503 C 20.961 22.886,21.634 22.522,22.193 22.836 M13.365 24.128 C 13.516 24.279,13.547 24.348,13.547 24.543 C 13.547 24.809,13.448 24.979,13.226 25.094 C 13.029 25.195,12.887 25.194,12.666 25.089 C 12.100 24.821,12.313 23.947,12.944 23.947 C 13.146 23.947,13.213 23.976,13.365 24.128 M17.909 24.571 C 18.167 24.763,18.261 24.940,18.256 25.227 C 18.253 25.431,18.218 25.538,18.108 25.684 C 17.938 25.906,17.765 25.986,17.456 25.984 C 16.657 25.980,16.414 24.878,17.132 24.512 C 17.350 24.401,17.719 24.429,17.909 24.571 " stroke="none" fill-rule="evenodd" fill="black"></path></svg>