<svg viewBox="0 0 32 32" xmlns="http://www.w3.org/2000/svg"><path d="M14.933 0.034 C 10.237 0.384,6.020 2.671,3.211 6.391 C 1.590 8.538,0.590 10.959,0.146 13.813 C -0.017 14.858,-0.017 17.142,0.146 18.187 C 0.830 22.578,2.950 26.177,6.391 28.787 C 8.515 30.398,10.963 31.410,13.813 31.854 C 14.858 32.017,17.142 32.017,18.187 31.854 C 20.149 31.549,21.935 30.970,23.505 30.132 C 26.290 28.646,28.646 26.290,30.132 23.505 C 30.970 21.935,31.549 20.149,31.854 18.187 C 32.017 17.142,32.017 14.858,31.854 13.813 C 31.410 10.961,30.399 8.515,28.784 6.386 C 26.139 2.901,22.361 0.710,18.000 0.132 C 17.376 0.050,15.520 -0.010,14.933 0.034 M19.947 7.125 C 20.538 7.202,21.329 7.351,21.765 7.468 L 21.973 7.524 21.973 8.781 C 21.973 9.957,21.967 10.036,21.880 9.999 C 19.953 9.199,17.697 9.065,16.152 9.660 C 15.075 10.074,14.210 10.955,13.727 12.128 C 13.629 12.366,13.548 12.602,13.548 12.653 C 13.547 12.741,13.757 12.747,17.227 12.747 C 19.251 12.747,20.907 12.755,20.907 12.765 C 20.907 12.776,20.731 13.214,20.515 13.739 L 20.124 14.693 16.576 14.707 L 13.027 14.721 12.994 14.920 C 12.951 15.183,12.951 16.450,12.994 16.766 L 13.028 17.013 16.109 17.013 L 19.190 17.013 18.800 17.987 L 18.410 18.960 15.925 18.974 C 14.558 18.981,13.440 18.999,13.440 19.014 C 13.440 19.074,13.887 20.026,14.060 20.333 C 14.322 20.798,14.791 21.400,15.114 21.685 C 15.457 21.988,16.223 22.370,16.754 22.503 C 18.160 22.857,19.706 22.766,21.289 22.237 C 21.635 22.121,21.931 22.027,21.946 22.027 C 21.961 22.027,21.973 22.554,21.973 23.198 L 21.973 24.369 21.560 24.499 C 20.445 24.850,19.424 24.984,17.893 24.979 C 16.943 24.976,16.602 24.954,16.097 24.863 C 13.503 24.393,11.760 23.076,10.647 20.746 C 10.486 20.409,10.270 19.881,10.168 19.573 L 9.983 19.013 8.996 18.999 L 8.010 18.984 8.382 18.066 C 8.587 17.560,8.767 17.117,8.783 17.080 C 8.802 17.035,8.946 17.013,9.232 17.013 L 9.653 17.013 9.653 16.033 C 9.653 15.494,9.668 14.979,9.686 14.888 L 9.719 14.723 8.866 14.708 L 8.012 14.693 8.402 13.733 L 8.792 12.773 9.429 12.758 L 10.067 12.743 10.242 12.252 C 11.259 9.405,13.270 7.667,16.121 7.171 C 17.225 6.978,18.674 6.961,19.947 7.125 " stroke="none" fill-rule="evenodd" fill="black"></path></svg>