<svg viewBox="0 0 32 32" xmlns="http://www.w3.org/2000/svg"><path d="M14.933 0.034 C 10.237 0.384,6.020 2.671,3.211 6.391 C 1.590 8.538,0.590 10.959,0.146 13.813 C -0.017 14.858,-0.017 17.142,0.146 18.187 C 0.830 22.578,2.950 26.177,6.391 28.787 C 8.515 30.398,10.963 31.410,13.813 31.854 C 14.858 32.017,17.142 32.017,18.187 31.854 C 20.149 31.549,21.935 30.970,23.505 30.132 C 26.290 28.646,28.646 26.290,30.132 23.505 C 30.970 21.935,31.549 20.149,31.854 18.187 C 32.017 17.142,32.017 14.858,31.854 13.813 C 31.410 10.961,30.399 8.515,28.784 6.386 C 26.139 2.901,22.361 0.710,18.000 0.132 C 17.376 0.050,15.520 -0.010,14.933 0.034 M17.760 5.144 C 20.072 5.535,22.106 6.583,23.765 8.237 C 25.408 9.876,26.456 11.914,26.863 14.267 C 26.993 15.017,26.993 16.983,26.863 17.733 C 26.545 19.570,25.878 21.128,24.776 22.605 C 21.328 27.228,14.792 28.369,9.973 25.189 C 9.419 24.823,8.427 24.034,8.427 23.959 C 8.427 23.937,10.587 21.760,13.227 19.120 C 16.763 15.584,18.027 14.288,18.027 14.200 C 18.027 13.859,18.420 13.320,18.831 13.096 C 19.156 12.919,19.750 12.851,20.065 12.955 C 20.594 13.130,21.006 13.554,21.153 14.077 C 21.234 14.363,21.303 14.439,23.138 16.280 C 24.184 17.329,25.055 18.187,25.074 18.187 C 25.136 18.187,25.289 17.220,25.325 16.604 C 25.482 13.938,24.579 11.461,22.759 9.568 C 20.926 7.662,18.609 6.667,16.000 6.667 C 14.431 6.667,13.039 7.004,11.690 7.712 C 10.695 8.234,10.044 8.730,9.195 9.612 C 7.896 10.962,7.062 12.672,6.745 14.640 C 6.596 15.564,6.657 17.336,6.861 17.994 C 6.886 18.075,7.132 17.854,8.139 16.847 C 8.825 16.162,9.387 15.565,9.387 15.520 C 9.388 15.329,9.656 14.888,9.907 14.662 C 10.479 14.148,11.257 14.104,11.906 14.550 C 12.162 14.727,12.449 15.124,12.509 15.387 C 12.534 15.496,12.799 15.802,13.340 16.347 L 14.134 17.148 13.547 17.733 L 12.960 18.318 12.411 17.771 L 11.861 17.223 11.597 17.342 C 11.238 17.504,10.690 17.502,10.323 17.339 L 10.059 17.221 8.152 19.128 C 7.103 20.177,6.234 21.024,6.222 21.011 C 6.153 20.936,5.928 20.430,5.724 19.893 C 5.481 19.253,5.229 18.302,5.111 17.573 C 5.006 16.929,5.022 14.937,5.138 14.267 C 5.676 11.144,7.344 8.581,10.004 6.787 C 11.196 5.983,13.023 5.297,14.427 5.125 C 14.691 5.093,14.967 5.056,15.040 5.044 C 15.345 4.991,17.280 5.063,17.760 5.144 M19.263 13.921 C 18.952 14.112,18.846 14.550,19.038 14.864 C 19.333 15.348,19.983 15.366,20.272 14.898 C 20.363 14.751,20.381 14.657,20.360 14.440 C 20.338 14.211,20.303 14.138,20.141 13.990 C 19.979 13.842,19.908 13.813,19.694 13.814 C 19.533 13.814,19.375 13.853,19.263 13.921 M10.556 15.268 C 10.190 15.514,10.151 16.029,10.475 16.352 C 10.710 16.588,10.967 16.631,11.266 16.487 C 11.552 16.348,11.680 16.140,11.680 15.812 C 11.680 15.591,11.655 15.536,11.473 15.354 C 11.288 15.169,11.238 15.147,11.001 15.147 C 10.814 15.147,10.683 15.182,10.556 15.268 M14.828 19.865 L 10.868 23.825 11.181 24.013 C 12.432 24.767,13.930 25.237,15.373 25.328 C 17.488 25.461,19.458 24.925,21.258 23.727 C 22.407 22.963,23.689 21.521,24.301 20.304 L 24.490 19.930 22.469 17.909 L 20.449 15.889 20.211 15.997 C 19.895 16.140,19.314 16.144,19.007 16.005 L 18.788 15.905 14.828 19.865 " stroke="none" fill-rule="evenodd" fill="black"></path></svg>