<svg viewBox="0 0 32 32" xmlns="http://www.w3.org/2000/svg"><path d="M14.933 0.034 C 10.237 0.384,6.020 2.671,3.211 6.391 C 1.590 8.538,0.590 10.959,0.146 13.813 C -0.017 14.858,-0.017 17.142,0.146 18.187 C 0.830 22.578,2.950 26.177,6.391 28.787 C 8.515 30.398,10.963 31.410,13.813 31.854 C 14.858 32.017,17.142 32.017,18.187 31.854 C 20.149 31.549,21.935 30.970,23.505 30.132 C 26.290 28.646,28.646 26.290,30.132 23.505 C 30.970 21.935,31.549 20.149,31.854 18.187 C 32.017 17.142,32.017 14.858,31.854 13.813 C 31.410 10.961,30.399 8.515,28.784 6.386 C 26.139 2.901,22.361 0.710,18.000 0.132 C 17.376 0.050,15.520 -0.010,14.933 0.034 M22.397 6.114 C 23.087 6.285,23.472 6.580,23.776 7.170 C 23.946 7.500,23.970 7.593,23.968 7.920 C 23.965 8.516,23.659 8.992,23.103 9.265 C 22.696 9.464,22.085 9.475,21.680 9.290 C 21.024 8.990,20.720 8.385,20.903 7.746 C 20.965 7.529,20.910 7.527,20.668 7.739 C 20.406 7.969,19.941 8.684,19.662 9.284 C 19.446 9.750,18.987 10.983,18.987 11.097 C 18.987 11.125,19.252 11.147,19.592 11.147 C 20.267 11.147,20.598 11.221,20.882 11.438 C 21.132 11.629,21.230 11.839,21.234 12.194 C 21.237 12.440,21.211 12.531,21.085 12.710 C 20.780 13.144,20.286 13.270,18.868 13.277 L 18.349 13.280 18.315 13.427 C 18.255 13.692,18.128 14.211,18.100 14.307 C 18.075 14.392,18.128 14.400,18.710 14.400 C 19.458 14.400,19.719 14.472,20.014 14.761 C 20.424 15.160,20.393 15.587,19.918 16.099 C 19.551 16.496,19.415 16.533,18.330 16.533 C 17.734 16.533,17.492 16.552,17.456 16.600 C 17.428 16.637,17.292 17.111,17.154 17.653 C 16.214 21.338,15.410 23.113,14.083 24.427 C 13.021 25.478,11.855 25.972,10.400 25.988 C 9.441 25.998,8.825 25.795,8.406 25.329 C 7.975 24.850,7.897 24.304,8.179 23.751 C 8.448 23.222,8.964 22.928,9.689 22.890 C 10.395 22.853,10.953 23.091,11.271 23.565 C 11.466 23.854,11.513 23.817,11.734 23.210 C 11.912 22.721,13.547 16.790,13.547 16.634 C 13.547 16.553,13.448 16.542,12.573 16.525 C 11.652 16.508,11.587 16.500,11.362 16.373 C 10.918 16.124,10.728 15.633,10.902 15.179 C 11.006 14.907,11.152 14.759,11.441 14.632 C 11.617 14.555,11.865 14.535,12.891 14.517 L 14.129 14.495 14.207 14.221 C 14.250 14.070,14.312 13.843,14.346 13.717 C 14.379 13.590,14.419 13.452,14.435 13.410 C 14.460 13.346,14.350 13.333,13.750 13.333 C 12.671 13.333,12.126 13.147,11.886 12.694 C 11.768 12.474,11.756 12.069,11.859 11.822 C 11.952 11.600,12.214 11.380,12.468 11.309 C 12.577 11.279,13.173 11.254,13.792 11.254 C 14.796 11.253,14.926 11.243,14.999 11.160 C 15.045 11.109,15.226 10.779,15.402 10.427 C 16.644 7.943,18.331 6.484,20.400 6.105 C 20.949 6.004,21.974 6.009,22.397 6.114 " stroke="none" fill-rule="evenodd" fill="black"></path></svg>