<svg viewBox="0 0 32 32" xmlns="http://www.w3.org/2000/svg"><path d="M14.933 0.034 C 10.237 0.384,6.020 2.671,3.211 6.391 C 1.590 8.538,0.590 10.959,0.146 13.813 C -0.017 14.858,-0.017 17.142,0.146 18.187 C 0.830 22.578,2.950 26.177,6.391 28.787 C 8.515 30.398,10.963 31.410,13.813 31.854 C 14.858 32.017,17.142 32.017,18.187 31.854 C 20.149 31.549,21.935 30.970,23.505 30.132 C 26.290 28.646,28.646 26.290,30.132 23.505 C 30.970 21.935,31.549 20.149,31.854 18.187 C 32.017 17.142,32.017 14.858,31.854 13.813 C 31.410 10.961,30.399 8.515,28.784 6.386 C 26.139 2.901,22.361 0.710,18.000 0.132 C 17.376 0.050,15.520 -0.010,14.933 0.034 M16.758 6.082 C 16.867 6.112,17.029 6.210,17.118 6.299 C 17.259 6.441,17.280 6.499,17.280 6.756 C 17.280 7.296,16.775 8.041,15.836 8.884 C 15.400 9.276,14.415 10.027,14.337 10.027 C 14.237 10.027,13.985 9.868,13.953 9.784 C 13.887 9.611,13.927 9.551,14.280 9.300 C 15.081 8.729,15.777 8.066,16.151 7.520 C 16.419 7.126,16.480 6.973,16.480 6.686 C 16.480 6.484,16.453 6.417,16.317 6.291 C 16.228 6.207,16.054 6.116,15.930 6.088 C 15.723 6.042,15.738 6.038,16.133 6.033 C 16.368 6.030,16.649 6.052,16.758 6.082 M14.958 6.262 C 15.368 6.434,15.400 6.844,15.043 7.361 L 14.841 7.653 14.492 7.653 C 14.299 7.653,14.125 7.636,14.104 7.615 C 14.083 7.594,14.141 7.461,14.233 7.318 C 14.324 7.176,14.414 6.983,14.433 6.890 C 14.507 6.521,14.132 6.302,13.550 6.374 C 13.165 6.421,13.222 6.368,13.658 6.272 C 14.114 6.172,14.731 6.168,14.958 6.262 M18.307 6.293 C 18.945 6.469,19.172 6.705,19.171 7.189 C 19.169 8.403,17.047 10.462,14.092 12.117 C 12.318 13.111,10.358 13.845,8.842 14.083 C 8.226 14.179,7.344 14.127,7.026 13.975 C 6.534 13.741,6.384 13.264,6.612 12.659 C 6.677 12.487,6.737 12.292,6.745 12.225 C 6.753 12.158,6.774 12.088,6.793 12.069 C 6.811 12.051,6.816 12.118,6.802 12.218 C 6.774 12.435,6.921 12.959,7.037 13.054 C 7.298 13.267,7.482 13.304,8.267 13.300 C 8.974 13.297,9.101 13.281,9.760 13.108 C 10.807 12.834,11.738 12.474,12.827 11.922 C 15.459 10.589,17.595 8.867,18.195 7.596 C 18.458 7.039,18.387 6.506,18.026 6.320 C 17.881 6.245,17.824 6.187,17.894 6.187 C 17.909 6.187,18.095 6.235,18.307 6.293 M12.027 7.045 C 10.373 7.916,9.728 8.236,9.802 8.147 C 9.895 8.034,10.507 7.612,10.507 7.660 C 10.507 7.682,10.544 7.654,10.591 7.597 C 10.637 7.540,10.659 7.525,10.639 7.563 C 10.619 7.601,10.870 7.499,11.195 7.336 C 11.740 7.062,11.924 6.946,11.693 7.020 C 11.619 7.044,11.616 7.039,11.675 6.997 C 11.717 6.967,11.783 6.956,11.822 6.971 C 11.861 6.986,11.893 6.972,11.893 6.939 C 11.893 6.907,11.911 6.883,11.933 6.886 C 12.040 6.903,12.110 6.875,12.080 6.827 C 12.062 6.797,12.056 6.773,12.066 6.773 C 12.077 6.773,12.288 6.702,12.536 6.614 C 12.784 6.527,13.023 6.455,13.067 6.455 C 13.111 6.455,12.643 6.720,12.027 7.045 M20.535 7.131 C 21.299 7.605,21.017 8.734,19.790 10.118 C 18.371 11.720,15.609 13.577,12.824 14.802 C 11.916 15.202,10.413 15.731,10.293 15.693 C 10.089 15.628,10.014 15.296,10.142 15.017 C 10.191 14.908,10.293 14.854,10.662 14.742 C 13.337 13.931,16.757 11.922,18.642 10.053 C 19.560 9.144,20.017 8.471,20.163 7.819 C 20.243 7.464,20.182 7.191,19.968 6.936 L 19.831 6.774 20.089 6.894 C 20.231 6.960,20.432 7.067,20.535 7.131 M10.933 7.385 C 10.933 7.398,10.879 7.436,10.813 7.468 C 10.698 7.524,10.697 7.523,10.797 7.443 C 10.906 7.356,10.933 7.344,10.933 7.385 M22.127 8.097 C 23.029 8.825,22.519 10.195,20.684 11.975 C 18.324 14.262,14.372 16.514,10.914 17.542 C 8.938 18.129,7.256 18.186,6.525 17.690 C 6.132 17.423,6.066 17.300,6.043 16.789 C 6.024 16.377,6.028 16.358,6.097 16.507 C 6.192 16.711,6.587 16.994,6.961 17.125 C 7.627 17.359,8.344 17.371,9.459 17.167 C 13.314 16.462,19.521 12.639,21.357 9.840 C 21.924 8.977,22.036 8.328,21.699 7.871 L 21.577 7.707 21.735 7.807 C 21.822 7.863,21.999 7.993,22.127 8.097 M9.112 8.932 C 8.893 9.335,8.913 9.588,9.173 9.724 C 9.582 9.936,10.620 9.698,11.827 9.115 C 12.186 8.942,12.497 8.800,12.517 8.800 C 12.604 8.800,12.800 9.042,12.800 9.151 C 12.800 9.246,12.707 9.317,12.326 9.514 C 11.729 9.822,10.776 10.196,10.187 10.353 C 9.570 10.518,8.851 10.526,8.587 10.371 C 8.421 10.274,8.398 10.233,8.384 10.014 C 8.363 9.688,8.509 9.405,8.922 8.974 C 9.099 8.790,9.249 8.640,9.257 8.640 C 9.264 8.640,9.199 8.771,9.112 8.932 M23.852 9.859 C 24.251 10.703,23.307 12.349,21.522 13.923 C 19.149 16.015,15.866 17.913,12.567 19.099 C 9.982 20.028,7.711 20.205,6.845 19.544 C 6.638 19.386,6.543 19.220,6.399 18.759 C 6.279 18.375,6.271 18.306,6.375 18.533 C 6.416 18.621,6.450 18.663,6.451 18.627 C 6.452 18.590,6.556 18.639,6.685 18.738 C 7.069 19.031,7.473 19.119,8.400 19.114 C 9.319 19.108,10.095 18.975,11.330 18.611 C 15.754 17.304,20.982 13.961,22.748 11.309 C 23.361 10.388,23.511 9.792,23.277 9.200 C 23.207 9.024,23.752 9.649,23.852 9.859 M7.702 10.568 C 7.568 10.828,7.348 11.152,7.323 11.127 C 7.297 11.102,7.751 10.350,7.777 10.374 C 7.787 10.383,7.753 10.470,7.702 10.568 M24.913 11.493 C 25.023 11.733,25.047 11.973,24.955 11.917 C 24.855 11.855,24.587 11.235,24.587 11.067 L 24.587 10.907 24.702 11.093 C 24.764 11.196,24.860 11.376,24.913 11.493 M10.764 11.326 C 10.809 11.718,10.639 11.858,9.889 12.046 C 8.703 12.343,7.920 12.326,7.500 11.996 L 7.358 11.884 7.495 11.635 C 7.748 11.176,7.744 11.178,7.981 11.318 C 8.169 11.429,8.247 11.439,8.880 11.434 C 9.454 11.428,9.651 11.404,10.027 11.292 C 10.611 11.118,10.741 11.124,10.764 11.326 M25.659 13.760 C 25.660 14.274,25.437 14.809,24.904 15.573 C 24.530 16.110,23.111 17.509,22.320 18.123 C 20.829 19.279,18.273 20.853,17.868 20.865 C 17.650 20.871,17.493 20.720,17.493 20.502 C 17.493 20.283,17.588 20.207,18.427 19.748 C 19.313 19.263,20.209 18.698,21.120 18.047 C 23.616 16.265,25.202 14.458,25.406 13.165 L 25.466 12.785 25.562 13.099 C 25.615 13.272,25.658 13.569,25.659 13.760 M6.240 14.467 C 6.240 14.535,6.348 14.682,6.507 14.832 C 6.751 15.061,6.773 15.102,6.773 15.325 C 6.773 15.570,6.686 15.840,6.607 15.840 C 6.484 15.840,6.195 15.500,6.135 15.285 C 6.062 15.026,6.107 14.271,6.192 14.323 C 6.218 14.340,6.240 14.404,6.240 14.467 M22.507 14.987 C 22.583 15.063,22.613 15.164,22.613 15.345 C 22.613 15.580,22.595 15.614,22.324 15.869 C 21.629 16.527,20.141 17.592,18.773 18.413 C 14.391 21.041,9.505 22.396,7.821 21.450 C 7.525 21.283,7.307 21.017,7.307 20.822 C 7.307 20.755,7.279 20.683,7.245 20.662 C 7.205 20.637,7.197 20.649,7.222 20.698 C 7.244 20.740,7.223 20.727,7.177 20.670 C 7.035 20.494,7.084 20.470,7.293 20.613 C 7.403 20.688,7.661 20.803,7.867 20.868 C 8.192 20.971,8.350 20.986,9.093 20.981 C 10.070 20.975,10.819 20.849,12.077 20.477 C 15.099 19.585,19.023 17.498,21.427 15.504 C 22.260 14.813,22.309 14.789,22.507 14.987 M25.947 15.775 C 25.887 16.418,25.460 17.173,24.635 18.094 C 23.978 18.827,22.340 20.213,22.129 20.213 C 22.074 20.213,21.990 20.153,21.942 20.080 C 21.794 19.855,21.918 19.679,22.608 19.124 C 23.919 18.071,24.748 17.233,25.309 16.395 C 25.617 15.936,25.863 15.361,25.872 15.079 C 25.878 14.922,25.883 14.928,25.931 15.144 C 25.960 15.276,25.967 15.556,25.947 15.775 M25.634 18.264 C 24.384 20.779,18.936 24.236,14.773 25.155 C 14.018 25.322,12.858 25.383,12.424 25.279 C 12.268 25.242,11.970 25.130,11.763 25.030 C 11.556 24.931,11.435 24.864,11.493 24.882 C 12.114 25.067,13.368 25.046,14.320 24.834 C 17.098 24.214,20.674 22.446,23.171 20.459 C 24.294 19.564,25.261 18.513,25.641 17.773 L 25.840 17.386 25.857 17.584 C 25.870 17.734,25.816 17.899,25.634 18.264 M25.203 19.851 C 24.460 21.319,22.337 23.055,19.707 24.346 C 17.363 25.497,15.325 26.028,14.095 25.808 L 13.680 25.734 14.293 25.699 C 16.732 25.559,20.465 23.881,23.253 21.671 C 23.869 21.184,24.828 20.211,25.120 19.779 C 25.252 19.584,25.369 19.433,25.380 19.443 C 25.391 19.453,25.311 19.637,25.203 19.851 M9.068 22.584 C 9.472 22.679,10.423 22.692,11.009 22.611 C 11.355 22.562,11.439 22.567,11.601 22.644 C 11.938 22.804,11.997 23.127,11.707 23.214 C 11.619 23.241,11.175 23.275,10.720 23.290 C 9.513 23.331,9.014 23.179,8.556 22.632 C 8.245 22.260,8.238 22.231,8.493 22.374 C 8.619 22.445,8.878 22.539,9.068 22.584 M23.006 22.910 C 22.774 23.265,21.279 24.261,20.135 24.824 C 18.899 25.431,17.815 25.803,16.853 25.949 C 16.186 26.050,15.747 26.047,16.307 25.944 C 18.367 25.568,20.818 24.435,22.638 23.018 C 23.021 22.720,23.157 22.680,23.006 22.910 M16.458 23.003 C 16.579 23.108,16.592 23.144,16.542 23.237 C 16.475 23.363,16.298 23.441,15.333 23.770 C 12.721 24.661,10.842 24.752,10.000 24.027 L 9.787 23.843 10.053 23.932 C 10.258 24.000,10.519 24.020,11.173 24.020 C 11.892 24.020,12.132 23.998,12.696 23.879 C 13.558 23.696,14.475 23.431,15.280 23.131 C 16.030 22.852,16.253 22.828,16.458 23.003 " stroke="none" fill-rule="evenodd" fill="black"></path></svg>