<svg viewBox="0 0 32 32" xmlns="http://www.w3.org/2000/svg"><path d="M14.933 0.034 C 10.237 0.384,6.020 2.671,3.211 6.391 C 1.590 8.538,0.590 10.959,0.146 13.813 C -0.017 14.858,-0.017 17.142,0.146 18.187 C 0.830 22.578,2.950 26.177,6.391 28.787 C 8.515 30.398,10.963 31.410,13.813 31.854 C 14.858 32.017,17.142 32.017,18.187 31.854 C 20.149 31.549,21.935 30.970,23.505 30.132 C 26.290 28.646,28.646 26.290,30.132 23.505 C 30.970 21.935,31.549 20.149,31.854 18.187 C 32.017 17.142,32.017 14.858,31.854 13.813 C 31.410 10.961,30.399 8.515,28.784 6.386 C 26.139 2.901,22.361 0.710,18.000 0.132 C 17.376 0.050,15.520 -0.010,14.933 0.034 M16.791 7.120 C 17.877 8.728,18.525 10.334,18.722 11.908 C 18.815 12.654,18.764 14.112,18.619 14.834 C 18.505 15.403,18.248 16.260,18.034 16.790 L 17.919 17.073 18.360 16.689 C 20.107 15.165,22.147 14.509,24.645 14.668 C 25.579 14.728,25.973 14.777,25.973 14.835 C 25.973 14.921,25.381 16.065,25.111 16.500 C 24.281 17.838,23.132 18.913,21.840 19.559 C 21.135 19.912,21.117 19.877,21.751 19.388 C 23.109 18.340,23.696 17.604,24.077 16.466 C 24.299 15.807,24.231 15.758,23.093 15.763 C 22.527 15.765,22.280 15.791,21.937 15.883 C 20.734 16.206,19.400 16.979,18.085 18.114 C 17.325 18.771,16.718 19.349,16.753 19.384 C 16.769 19.400,17.026 19.438,17.326 19.468 C 18.996 19.640,20.377 20.354,21.262 21.505 C 21.529 21.852,21.920 22.498,21.920 22.593 C 21.920 22.689,21.100 22.800,20.453 22.792 C 19.772 22.782,19.222 22.657,18.627 22.375 C 18.414 22.274,18.240 22.182,18.240 22.170 C 18.240 22.158,18.402 22.194,18.600 22.250 C 19.145 22.405,19.852 22.435,20.310 22.323 C 20.517 22.272,20.728 22.200,20.778 22.163 C 21.145 21.895,19.420 20.567,18.187 20.168 C 17.823 20.050,16.766 19.787,16.656 19.787 C 16.619 19.787,16.679 19.959,16.798 20.200 C 17.578 21.771,17.537 23.446,16.680 24.948 C 16.367 25.499,16.012 25.987,15.952 25.950 C 15.851 25.887,15.353 25.107,15.123 24.652 C 14.760 23.933,14.604 23.279,14.605 22.480 C 14.605 21.627,14.767 20.961,15.167 20.173 C 15.244 20.021,15.307 19.884,15.307 19.868 C 15.307 19.804,14.772 19.847,14.370 19.944 C 13.597 20.129,12.602 20.631,11.902 21.188 C 11.543 21.473,11.058 22.069,11.131 22.135 C 11.154 22.156,11.293 22.218,11.440 22.273 C 11.866 22.433,12.804 22.410,13.358 22.226 C 13.591 22.148,13.791 22.093,13.801 22.103 C 13.839 22.141,13.484 22.358,13.186 22.479 C 12.478 22.767,11.279 22.877,10.503 22.726 C 9.965 22.622,9.969 22.632,10.270 22.130 C 10.825 21.206,11.561 20.515,12.453 20.079 C 13.177 19.726,13.843 19.555,14.960 19.435 L 15.280 19.401 14.747 18.895 C 12.215 16.494,10.099 15.501,8.133 15.794 L 7.728 15.854 7.763 16.020 C 8.041 17.342,9.010 18.615,10.469 19.574 C 10.664 19.703,10.816 19.815,10.807 19.824 C 10.766 19.865,10.260 19.671,9.892 19.473 C 8.491 18.717,6.891 16.937,6.210 15.377 C 6.110 15.147,6.028 14.921,6.027 14.874 C 6.026 14.748,6.961 14.647,8.080 14.653 C 10.294 14.663,11.992 15.297,13.611 16.717 L 14.076 17.124 13.914 16.735 C 13.704 16.231,13.415 15.230,13.306 14.632 C 13.121 13.614,13.144 12.237,13.365 11.149 C 13.664 9.676,14.560 7.845,15.724 6.325 L 15.966 6.010 16.144 6.218 C 16.242 6.333,16.533 6.739,16.791 7.120 M15.727 8.412 C 15.123 9.166,14.676 9.964,14.379 10.817 C 14.091 11.646,14.004 12.171,14.008 13.067 C 14.012 13.913,14.087 14.367,14.353 15.173 C 14.640 16.042,15.267 17.172,15.802 17.787 L 15.988 18.000 16.102 17.867 C 16.164 17.793,16.394 17.469,16.612 17.147 C 18.152 14.863,18.383 12.408,17.275 10.081 C 17.007 9.519,16.474 8.678,16.149 8.305 L 15.973 8.103 15.727 8.412 M15.790 20.536 C 14.906 21.748,14.887 23.147,15.739 24.286 L 15.973 24.598 16.181 24.366 C 16.618 23.878,16.893 22.986,16.826 22.273 C 16.764 21.605,16.497 20.912,16.147 20.509 L 15.963 20.298 15.790 20.536 " stroke="none" fill-rule="evenodd" fill="black"></path></svg>