<svg width="32" height="32" xmlns="http://www.w3.org/2000/svg"><path d="M14.933 0.034 C 10.237 0.384,6.020 2.671,3.211 6.391 C 1.590 8.538,0.590 10.959,0.146 13.813 C -0.017 14.858,-0.017 17.142,0.146 18.187 C 0.830 22.578,2.950 26.177,6.391 28.787 C 8.515 30.398,10.963 31.410,13.813 31.854 C 14.858 32.017,17.142 32.017,18.187 31.854 C 20.149 31.549,21.935 30.970,23.505 30.132 C 26.290 28.646,28.646 26.290,30.132 23.505 C 30.970 21.935,31.549 20.149,31.854 18.187 C 32.017 17.142,32.017 14.858,31.854 13.813 C 31.410 10.961,30.399 8.515,28.784 6.386 C 26.139 2.901,22.361 0.710,18.000 0.132 C 17.376 0.050,15.520 -0.010,14.933 0.034 M20.747 7.749 L 25.467 10.482 25.481 11.620 C 25.494 12.606,25.485 12.755,25.417 12.729 C 25.373 12.712,24.194 12.036,22.796 11.226 C 21.135 10.263,20.224 9.765,20.167 9.786 C 20.119 9.805,18.418 10.782,16.387 11.957 L 12.693 14.095 12.693 14.760 C 12.693 15.270,12.678 15.419,12.627 15.398 C 12.590 15.384,11.879 14.977,11.047 14.494 L 9.535 13.616 8.034 14.486 L 6.533 15.355 6.519 12.948 C 6.512 11.612,6.526 10.519,6.552 10.493 C 6.607 10.438,15.961 5.016,16.000 5.016 C 16.015 5.016,18.151 6.246,20.747 7.749 M22.882 13.880 L 25.490 15.387 25.491 18.453 L 25.491 21.520 22.885 23.027 C 21.452 23.855,20.246 24.532,20.206 24.530 C 20.166 24.528,18.969 23.850,17.547 23.022 L 14.960 21.517 14.960 18.455 L 14.960 15.392 17.547 13.887 C 18.969 13.059,20.165 12.380,20.204 12.378 C 20.243 12.375,21.448 13.051,22.882 13.880 M11.081 17.121 L 12.588 17.992 12.574 19.747 L 12.560 21.501 11.049 22.379 L 9.537 23.256 8.035 22.385 L 6.533 21.515 6.533 19.738 L 6.533 17.962 8.027 17.095 C 8.848 16.619,9.532 16.233,9.547 16.240 C 9.561 16.246,10.252 16.642,11.081 17.121 M15.987 24.722 C 17.050 25.336,17.920 25.851,17.919 25.866 C 17.918 25.914,16.084 26.956,16.001 26.956 C 15.857 26.956,11.783 24.566,11.854 24.524 C 11.890 24.502,12.328 24.246,12.827 23.955 L 13.733 23.426 13.893 23.515 C 13.981 23.564,14.923 24.107,15.987 24.722 " stroke="none" fill-rule="evenodd" fill="black"></path></svg>