<svg width="32" height="32" xmlns="http://www.w3.org/2000/svg"><path d="M14.933 0.034 C 10.237 0.384,6.020 2.671,3.211 6.391 C 1.590 8.538,0.590 10.959,0.146 13.813 C -0.017 14.858,-0.017 17.142,0.146 18.187 C 0.830 22.578,2.950 26.177,6.391 28.787 C 8.515 30.398,10.963 31.410,13.813 31.854 C 14.858 32.017,17.142 32.017,18.187 31.854 C 20.149 31.549,21.935 30.970,23.505 30.132 C 26.290 28.646,28.646 26.290,30.132 23.505 C 30.970 21.935,31.549 20.149,31.854 18.187 C 32.017 17.142,32.017 14.858,31.854 13.813 C 31.410 10.961,30.399 8.515,28.784 6.386 C 26.139 2.901,22.361 0.710,18.000 0.132 C 17.376 0.050,15.520 -0.010,14.933 0.034 M24.867 6.324 C 25.107 6.638,25.361 7.268,25.437 7.739 C 25.638 8.978,25.220 10.551,24.402 11.631 C 24.254 11.827,23.216 13.063,22.095 14.380 C 20.757 15.950,19.508 17.489,18.462 18.853 L 16.869 20.933 16.661 20.928 C 16.547 20.926,16.081 20.905,15.627 20.882 C 14.306 20.816,13.212 20.971,12.435 21.334 C 12.090 21.495,11.653 21.804,11.702 21.853 C 11.727 21.878,16.894 22.127,17.480 22.131 C 17.634 22.132,17.760 22.156,17.760 22.184 C 17.760 22.269,17.009 22.608,16.579 22.717 C 15.746 22.927,14.664 22.983,13.493 22.878 C 12.926 22.826,11.719 22.652,11.431 22.580 C 11.267 22.538,11.267 22.660,11.433 23.017 C 11.702 23.593,12.419 24.098,13.274 24.313 C 13.491 24.367,13.640 24.428,13.607 24.449 C 13.573 24.470,13.336 24.500,13.079 24.516 C 12.547 24.549,12.066 24.458,11.597 24.236 C 11.278 24.086,10.787 23.664,10.551 23.339 C 10.410 23.145,10.400 23.140,10.400 23.264 C 10.400 23.444,10.585 23.970,10.743 24.236 C 10.907 24.514,11.269 24.863,11.564 25.029 C 11.860 25.197,11.752 25.249,11.267 25.171 C 10.786 25.094,10.398 24.898,10.008 24.533 L 9.678 24.224 8.838 25.123 C 8.026 25.992,7.840 26.132,7.840 25.873 C 7.840 25.823,8.165 25.400,8.562 24.932 L 9.285 24.080 9.266 23.775 C 9.235 23.282,8.990 23.133,8.551 23.341 C 8.311 23.455,8.199 23.631,8.199 23.895 C 8.199 24.011,8.192 24.107,8.184 24.107 C 8.175 24.107,8.121 24.029,8.063 23.933 C 7.829 23.547,7.869 23.158,8.183 22.792 L 8.368 22.575 7.451 21.656 C 6.946 21.150,6.593 20.767,6.667 20.803 C 6.740 20.839,7.265 21.119,7.833 21.424 C 8.401 21.729,8.874 21.971,8.884 21.961 C 8.894 21.950,8.687 21.417,8.424 20.776 C 8.161 20.135,7.953 19.603,7.961 19.594 C 7.970 19.586,8.336 20.038,8.775 20.598 L 9.573 21.617 9.611 20.955 C 9.679 19.743,9.834 19.028,10.100 18.695 L 10.227 18.537 10.293 18.935 C 10.382 19.467,10.585 20.162,10.743 20.470 C 10.877 20.732,11.156 21.026,11.328 21.087 C 11.427 21.122,11.428 21.063,11.393 18.601 L 11.357 16.080 11.848 15.667 C 12.118 15.441,12.351 15.266,12.364 15.280 C 12.378 15.294,12.420 15.994,12.458 16.837 C 12.518 18.188,12.538 18.378,12.620 18.438 C 12.672 18.476,12.753 18.507,12.801 18.507 C 13.213 18.507,13.611 16.968,13.689 15.077 L 13.724 14.233 14.502 13.494 C 14.930 13.088,15.304 12.752,15.333 12.749 C 15.363 12.745,15.430 13.001,15.483 13.317 C 15.585 13.930,15.694 14.133,15.921 14.133 C 16.159 14.133,16.206 13.992,16.383 12.751 L 16.553 11.566 17.010 11.121 C 18.008 10.149,19.625 8.930,21.307 7.881 C 22.644 7.046,24.507 6.012,24.613 6.045 C 24.643 6.054,24.757 6.180,24.867 6.324 M21.856 9.861 C 20.429 11.012,17.521 14.442,14.664 18.347 C 13.389 20.089,13.438 19.999,14.108 19.379 C 16.117 17.522,18.658 14.655,20.461 12.213 C 21.281 11.103,22.337 9.547,22.270 9.547 C 22.257 9.547,22.071 9.688,21.856 9.861 " stroke="none" fill-rule="evenodd" fill="black"></path></svg>