<svg viewBox="0 0 32 32" xmlns="http://www.w3.org/2000/svg"><path d="M14.933 0.034 C 10.237 0.384,6.020 2.671,3.211 6.391 C 1.590 8.538,0.590 10.959,0.146 13.813 C -0.017 14.858,-0.017 17.142,0.146 18.187 C 0.830 22.578,2.950 26.177,6.391 28.787 C 8.515 30.398,10.963 31.410,13.813 31.854 C 14.858 32.017,17.142 32.017,18.187 31.854 C 20.149 31.549,21.935 30.970,23.505 30.132 C 26.290 28.646,28.646 26.290,30.132 23.505 C 30.970 21.935,31.549 20.149,31.854 18.187 C 32.017 17.142,32.017 14.858,31.854 13.813 C 31.410 10.961,30.399 8.515,28.784 6.386 C 26.139 2.901,22.361 0.710,18.000 0.132 C 17.376 0.050,15.520 -0.010,14.933 0.034 M17.760 5.144 C 19.992 5.521,21.987 6.519,23.609 8.070 C 25.325 9.710,26.443 11.839,26.863 14.267 C 26.993 15.017,26.993 16.983,26.863 17.733 C 26.652 18.953,26.272 20.085,25.733 21.105 C 23.389 25.539,18.448 27.815,13.547 26.721 C 10.467 26.034,7.776 23.960,6.272 21.115 C 5.728 20.085,5.349 18.957,5.137 17.733 C 5.007 16.983,5.007 15.017,5.137 14.267 C 5.818 10.331,8.368 7.185,12.050 5.736 C 12.677 5.490,13.793 5.203,14.427 5.125 C 14.691 5.093,14.967 5.056,15.040 5.044 C 15.345 4.991,17.280 5.063,17.760 5.144 " stroke="none" fill-rule="evenodd" fill="black"></path></svg>