<svg width="32" height="32" xmlns="http://www.w3.org/2000/svg"><path d="M14.933 0.034 C 10.237 0.384,6.020 2.671,3.211 6.391 C 1.590 8.538,0.590 10.959,0.146 13.813 C -0.017 14.858,-0.017 17.142,0.146 18.187 C 0.830 22.578,2.950 26.177,6.391 28.787 C 8.515 30.398,10.963 31.410,13.813 31.854 C 14.858 32.017,17.142 32.017,18.187 31.854 C 20.149 31.549,21.935 30.970,23.505 30.132 C 26.290 28.646,28.646 26.290,30.132 23.505 C 30.970 21.935,31.549 20.149,31.854 18.187 C 32.017 17.142,32.017 14.858,31.854 13.813 C 31.410 10.961,30.399 8.515,28.784 6.386 C 26.139 2.901,22.361 0.710,18.000 0.132 C 17.376 0.050,15.520 -0.010,14.933 0.034 M16.630 5.329 C 17.314 5.502,17.883 5.652,17.894 5.663 C 17.905 5.674,17.772 6.245,17.600 6.933 C 17.428 7.621,17.293 8.190,17.300 8.198 C 17.345 8.243,18.539 8.516,18.566 8.487 C 18.584 8.469,18.737 7.895,18.906 7.213 C 19.075 6.531,19.228 5.974,19.246 5.975 C 19.314 5.978,21.768 6.603,21.787 6.622 C 21.798 6.633,21.628 7.356,21.409 8.229 L 21.012 9.815 21.641 10.441 C 22.760 11.555,23.471 12.802,23.807 14.243 C 23.978 14.974,24.016 15.253,23.946 15.253 C 23.899 15.253,21.968 14.779,21.329 14.611 C 21.165 14.568,21.127 14.528,21.069 14.334 C 20.979 14.032,20.673 13.431,20.423 13.062 C 19.754 12.076,18.715 11.334,17.467 10.952 C 17.016 10.814,16.926 10.805,16.000 10.806 C 14.874 10.806,14.533 10.872,13.733 11.248 C 12.258 11.939,11.226 13.179,10.820 14.747 C 10.650 15.404,10.647 16.567,10.815 17.183 C 11.171 18.487,11.986 19.648,13.030 20.338 C 15.084 21.697,17.718 21.533,19.588 19.931 L 19.895 19.668 21.241 20.001 C 21.981 20.185,22.616 20.351,22.653 20.369 C 22.748 20.419,22.154 21.150,21.567 21.707 C 20.553 22.668,19.408 23.293,18.001 23.653 L 17.522 23.775 17.127 25.368 C 16.909 26.243,16.723 26.969,16.714 26.980 C 16.691 27.008,14.223 26.394,14.171 26.348 C 14.147 26.327,14.270 25.745,14.443 25.056 L 14.757 23.801 14.219 23.664 C 13.922 23.588,13.632 23.511,13.573 23.493 C 13.473 23.463,13.444 23.550,13.152 24.730 C 12.979 25.429,12.833 26.007,12.826 26.015 C 12.810 26.036,10.294 25.405,10.261 25.372 C 10.247 25.358,10.415 24.633,10.633 23.760 L 11.031 22.174 10.431 21.580 C 9.557 20.716,9.089 20.039,8.628 18.973 C 7.318 15.948,8.168 12.246,10.667 10.095 C 11.658 9.242,13.045 8.540,14.182 8.317 C 14.492 8.256,14.509 8.244,14.557 8.060 C 14.585 7.954,14.768 7.225,14.964 6.440 C 15.160 5.655,15.335 5.014,15.353 5.015 C 15.372 5.016,15.946 5.157,16.630 5.329 " stroke="none" fill-rule="evenodd" fill="black"></path></svg>