<svg width="32" height="32" xmlns="http://www.w3.org/2000/svg"><path d="M14.933 0.034 C 10.237 0.384,6.020 2.671,3.211 6.391 C 1.590 8.538,0.590 10.959,0.146 13.813 C -0.017 14.858,-0.017 17.142,0.146 18.187 C 0.830 22.578,2.950 26.177,6.391 28.787 C 8.515 30.398,10.963 31.410,13.813 31.854 C 14.858 32.017,17.142 32.017,18.187 31.854 C 20.149 31.549,21.935 30.970,23.505 30.132 C 26.290 28.646,28.646 26.290,30.132 23.505 C 30.970 21.935,31.549 20.149,31.854 18.187 C 32.017 17.142,32.017 14.858,31.854 13.813 C 31.410 10.961,30.399 8.515,28.784 6.386 C 26.139 2.901,22.361 0.710,18.000 0.132 C 17.376 0.050,15.520 -0.010,14.933 0.034 M16.021 5.125 C 16.319 5.359,16.320 5.371,16.320 7.544 L 16.320 9.547 17.147 9.547 L 17.973 9.547 17.973 8.595 C 17.973 7.693,17.980 7.633,18.094 7.461 C 18.400 7.003,18.995 6.999,19.293 7.451 C 19.371 7.571,19.391 7.760,19.413 8.605 L 19.440 9.615 19.733 9.689 C 20.987 10.007,21.984 11.048,22.280 12.347 L 22.377 12.773 24.269 12.800 C 26.310 12.829,26.299 12.827,26.474 13.124 C 26.593 13.326,26.583 13.695,26.452 13.910 C 26.258 14.228,26.174 14.240,24.160 14.240 L 22.344 14.240 22.359 15.053 L 22.373 15.867 23.360 15.893 C 24.428 15.922,24.497 15.940,24.669 16.231 C 24.794 16.443,24.787 16.827,24.654 17.008 C 24.446 17.293,24.272 17.333,23.265 17.333 L 22.344 17.333 22.359 18.147 L 22.373 18.960 24.951 18.987 L 27.528 19.013 27.711 19.213 C 27.865 19.381,27.893 19.451,27.893 19.666 C 27.893 19.827,27.853 19.985,27.785 20.097 C 27.585 20.425,27.569 20.427,24.837 20.427 L 22.365 20.427 22.274 20.852 C 22.223 21.085,22.083 21.475,21.962 21.716 C 21.533 22.573,20.595 23.326,19.709 23.524 L 19.413 23.590 19.413 24.582 C 19.413 25.471,19.402 25.591,19.309 25.744 C 19.036 26.191,18.351 26.191,18.078 25.744 C 17.985 25.591,17.974 25.471,17.974 24.600 L 17.973 23.627 17.147 23.627 L 16.320 23.627 16.320 25.347 C 16.320 27.273,16.310 27.333,15.943 27.529 C 15.591 27.718,15.162 27.594,14.977 27.250 C 14.889 27.085,14.880 26.912,14.880 25.347 L 14.880 23.627 14.053 23.627 L 13.227 23.627 13.226 24.280 C 13.226 24.833,13.210 24.959,13.122 25.104 C 12.831 25.582,12.220 25.593,11.908 25.125 C 11.798 24.961,11.787 24.882,11.787 24.267 L 11.787 23.590 11.491 23.524 C 10.595 23.324,9.654 22.565,9.235 21.707 C 9.028 21.282,8.853 20.739,8.853 20.522 C 8.853 20.432,8.751 20.427,7.160 20.426 C 5.576 20.426,5.456 20.420,5.296 20.322 C 4.955 20.114,4.828 19.729,4.989 19.390 C 5.167 19.014,5.156 19.016,7.091 18.987 L 8.827 18.960 8.841 18.147 L 8.856 17.333 7.935 17.333 C 6.926 17.333,6.755 17.293,6.544 17.005 C 6.343 16.731,6.433 16.206,6.712 16.016 C 6.831 15.935,7.007 15.916,7.840 15.893 L 8.827 15.867 8.841 15.053 L 8.856 14.240 6.716 14.240 C 4.343 14.240,4.319 14.237,4.108 13.895 C 3.920 13.591,3.987 13.186,4.267 12.933 C 4.379 12.831,4.480 12.826,6.603 12.800 L 8.823 12.773 8.919 12.350 C 9.217 11.041,10.203 10.012,11.467 9.690 L 11.760 9.615 11.787 8.597 L 11.813 7.580 11.971 7.416 C 12.336 7.035,12.911 7.117,13.152 7.584 C 13.207 7.691,13.227 7.963,13.227 8.637 L 13.227 9.547 14.053 9.547 L 14.880 9.547 14.880 7.544 C 14.880 5.371,14.881 5.359,15.179 5.125 C 15.282 5.044,15.398 5.013,15.600 5.013 C 15.802 5.013,15.918 5.044,16.021 5.125 M11.811 10.794 C 11.030 10.984,10.442 11.508,10.128 12.293 L 10.000 12.613 9.984 16.427 C 9.971 19.724,9.980 20.291,10.052 20.613 C 10.238 21.451,10.824 22.086,11.680 22.379 C 11.956 22.474,12.185 22.480,15.573 22.480 C 18.923 22.480,19.196 22.473,19.493 22.381 C 19.921 22.249,20.190 22.084,20.526 21.748 C 20.833 21.440,21.076 20.985,21.168 20.544 C 21.245 20.175,21.250 13.099,21.173 12.687 C 20.999 11.746,20.254 10.981,19.317 10.780 C 18.906 10.692,12.180 10.705,11.811 10.794 M18.460 12.598 C 18.927 12.873,18.904 12.681,18.922 16.493 C 18.933 18.776,18.919 19.907,18.880 20.053 C 18.803 20.339,18.545 20.624,18.302 20.692 C 18.071 20.756,12.427 20.769,12.427 20.705 C 12.427 20.682,12.543 20.316,12.685 19.892 L 12.943 19.120 15.111 19.106 L 17.280 19.092 17.280 18.828 L 17.280 18.565 15.133 18.549 C 12.999 18.533,12.985 18.533,12.773 18.410 C 12.488 18.244,12.381 18.086,12.316 17.734 C 12.282 17.554,12.267 16.592,12.277 15.266 C 12.293 13.114,12.294 13.091,12.414 12.899 C 12.573 12.643,12.757 12.529,13.089 12.479 C 13.238 12.456,14.452 12.441,15.787 12.446 L 18.213 12.453 18.460 12.598 M13.932 15.507 L 13.947 16.880 15.600 16.880 L 17.253 16.880 17.268 15.507 L 17.282 14.133 15.600 14.133 L 13.918 14.133 13.932 15.507 " stroke="none" fill-rule="evenodd" fill="black"></path></svg>