<svg width="32" height="32" xmlns="http://www.w3.org/2000/svg"><path d="M14.933 0.034 C 10.237 0.384,6.020 2.671,3.211 6.391 C 1.590 8.538,0.590 10.959,0.146 13.813 C -0.017 14.858,-0.017 17.142,0.146 18.187 C 0.830 22.578,2.950 26.177,6.391 28.787 C 8.515 30.398,10.963 31.410,13.813 31.854 C 14.858 32.017,17.142 32.017,18.187 31.854 C 20.149 31.549,21.935 30.970,23.505 30.132 C 26.290 28.646,28.646 26.290,30.132 23.505 C 30.970 21.935,31.549 20.149,31.854 18.187 C 32.017 17.142,32.017 14.858,31.854 13.813 C 31.410 10.961,30.399 8.515,28.784 6.386 C 26.139 2.901,22.361 0.710,18.000 0.132 C 17.376 0.050,15.520 -0.010,14.933 0.034 M17.947 4.187 C 18.745 4.322,19.617 4.559,20.303 4.827 C 24.468 6.455,27.361 10.192,27.894 14.631 C 27.967 15.239,27.967 16.685,27.894 17.333 C 27.351 22.149,23.901 26.218,19.258 27.517 C 17.196 28.094,15.219 28.129,13.169 27.625 C 10.973 27.085,9.112 26.033,7.519 24.431 C 5.639 22.541,4.491 20.207,4.131 17.547 C 4.032 16.813,4.032 15.221,4.131 14.468 C 4.803 9.377,8.596 5.299,13.616 4.269 C 14.944 3.997,16.631 3.965,17.947 4.187 M14.613 10.347 L 14.613 11.734 15.289 12.454 C 15.661 12.849,15.973 13.173,15.982 13.173 C 15.992 13.173,16.000 12.225,16.000 11.067 L 16.000 8.960 15.307 8.960 L 14.613 8.960 14.613 10.347 M9.760 11.400 C 10.303 11.950,11.548 13.208,12.529 14.196 L 14.311 15.991 11.531 18.807 C 10.002 20.355,8.761 21.632,8.772 21.644 C 8.784 21.655,9.595 21.647,10.574 21.626 L 12.355 21.587 14.158 19.700 C 15.149 18.662,15.979 17.813,16.002 17.813 C 16.025 17.813,16.856 18.664,17.849 19.705 L 19.653 21.596 21.439 21.598 L 23.225 21.600 22.400 20.760 C 21.945 20.298,20.698 19.038,19.627 17.960 L 17.681 16.000 19.654 14.013 C 20.739 12.921,21.987 11.661,22.426 11.213 L 23.225 10.400 21.439 10.400 L 19.653 10.400 17.845 12.293 C 16.850 13.335,16.021 14.187,16.002 14.187 C 15.969 14.187,13.385 11.507,12.675 10.738 L 12.364 10.400 10.569 10.400 L 8.774 10.400 9.760 11.400 M16.002 20.948 L 16.000 23.097 16.680 23.082 L 17.360 23.067 17.372 21.653 L 17.385 20.240 16.695 19.520 L 16.005 18.800 16.002 20.948 " stroke="none" fill-rule="evenodd" fill="black"></path></svg>