<svg width="32" height="32" xmlns="http://www.w3.org/2000/svg"><path d="M14.933 0.034 C 10.237 0.384,6.020 2.671,3.211 6.391 C 1.590 8.538,0.590 10.959,0.146 13.813 C -0.017 14.858,-0.017 17.142,0.146 18.187 C 0.830 22.578,2.950 26.177,6.391 28.787 C 8.515 30.398,10.963 31.410,13.813 31.854 C 14.858 32.017,17.142 32.017,18.187 31.854 C 20.149 31.549,21.935 30.970,23.505 30.132 C 26.290 28.646,28.646 26.290,30.132 23.505 C 30.970 21.935,31.549 20.149,31.854 18.187 C 32.017 17.142,32.017 14.858,31.854 13.813 C 31.410 10.961,30.399 8.515,28.784 6.386 C 26.139 2.901,22.361 0.710,18.000 0.132 C 17.376 0.050,15.520 -0.010,14.933 0.034 M25.234 5.907 C 25.452 7.317,25.196 9.247,24.537 11.156 C 23.815 13.251,23.325 14.094,22.635 14.431 C 22.474 14.510,22.331 14.562,22.316 14.547 C 22.302 14.533,21.994 13.635,21.634 12.554 C 21.184 11.206,20.952 10.582,20.897 10.571 C 20.834 10.559,20.801 10.649,20.751 10.971 C 20.517 12.489,19.826 13.785,18.971 14.310 C 18.885 14.362,18.808 14.398,18.800 14.390 C 18.745 14.328,18.042 12.871,17.843 12.405 C 17.043 10.531,16.708 8.893,16.851 7.556 C 16.945 6.677,16.965 6.653,17.390 6.925 C 18.057 7.352,18.482 8.105,18.823 9.461 C 19.015 10.225,19.086 10.251,19.252 9.616 C 19.550 8.479,19.917 7.662,20.320 7.244 C 20.729 6.820,21.076 6.827,21.515 7.270 C 21.841 7.600,22.045 7.975,22.346 8.800 C 22.469 9.137,22.587 9.444,22.608 9.482 C 22.631 9.523,22.710 9.322,22.799 9.002 C 23.349 7.006,23.926 5.999,24.773 5.556 C 25.134 5.368,25.153 5.382,25.234 5.907 M9.973 7.587 C 10.426 8.935,10.664 9.573,10.715 9.573 C 10.766 9.573,10.854 9.324,10.997 8.773 C 11.478 6.925,12.022 6.027,12.661 6.027 C 13.080 6.027,13.413 6.554,13.971 8.103 C 14.555 9.723,14.776 10.803,14.777 12.040 C 14.778 12.742,14.691 13.547,14.615 13.547 C 14.502 13.547,14.034 13.167,13.833 12.911 C 13.411 12.374,13.126 11.739,12.772 10.547 C 12.682 10.244,12.607 10.080,12.558 10.080 C 12.480 10.080,12.473 10.101,12.370 10.640 C 12.287 11.077,12.016 11.916,11.854 12.240 C 11.672 12.603,11.390 12.982,11.216 13.095 C 10.481 13.577,9.796 12.904,9.314 11.226 C 9.200 10.829,9.102 10.581,9.055 10.571 C 8.999 10.560,8.948 10.703,8.860 11.126 C 8.631 12.217,8.286 13.102,7.814 13.812 C 7.559 14.196,7.086 14.666,6.813 14.807 C 6.616 14.909,6.602 14.891,6.469 14.375 C 6.318 13.783,6.334 11.839,6.499 10.916 C 6.847 8.961,7.581 7.188,8.415 6.286 C 8.719 5.957,9.152 5.604,9.253 5.601 C 9.283 5.601,9.607 6.494,9.973 7.587 M27.515 16.822 C 27.791 17.072,27.794 17.802,27.522 18.618 C 27.307 19.264,26.661 20.578,26.238 21.227 C 24.956 23.196,23.134 24.734,21.001 25.649 C 18.215 26.845,15.224 26.988,12.412 26.059 C 9.205 25.001,6.660 22.777,5.145 19.710 C 4.742 18.894,4.219 17.439,4.198 17.076 L 4.187 16.884 4.480 16.835 C 4.673 16.803,4.907 16.807,5.163 16.846 C 6.048 16.982,6.480 17.366,7.095 18.564 C 7.311 18.983,7.622 19.532,7.787 19.783 C 8.787 21.304,10.403 22.737,11.973 23.492 C 14.584 24.749,17.550 24.719,20.267 23.408 C 21.406 22.859,22.522 22.044,23.325 21.173 C 23.968 20.477,24.861 19.157,24.735 19.089 C 24.697 19.069,24.391 19.036,24.053 19.016 C 23.278 18.970,23.082 18.918,22.911 18.715 C 22.738 18.510,22.719 18.134,22.873 17.980 C 23.069 17.784,25.300 16.969,26.160 16.779 C 26.677 16.665,27.366 16.687,27.515 16.822 " stroke="none" fill-rule="evenodd" fill="black"></path></svg>