<svg viewBox="0 0 32 32" xmlns="http://www.w3.org/2000/svg"><path d="M14.693 0.059 C 10.795 0.421,7.413 1.980,4.747 4.643 C 1.606 7.780,0.001 11.675,0.000 16.160 C -0.000 19.638,1.268 23.245,3.451 25.973 C 3.953 26.602,4.937 27.607,5.573 28.143 C 5.867 28.390,6.515 28.863,7.013 29.194 C 8.337 30.073,8.560 30.202,8.687 30.162 C 8.746 30.143,9.215 29.695,9.729 29.166 L 10.663 28.204 9.958 27.633 C 8.944 26.810,8.753 26.432,8.901 25.537 C 9.054 24.613,9.336 24.197,10.785 22.768 L 11.952 21.615 11.578 21.393 C 10.273 20.618,9.323 19.457,8.889 18.107 C 8.644 17.345,8.613 17.100,8.617 15.973 C 8.620 14.991,8.632 14.865,8.763 14.373 C 9.239 12.599,10.596 11.013,12.398 10.128 C 13.532 9.571,14.712 9.349,16.267 9.402 C 17.627 9.448,18.741 9.714,19.802 10.248 C 20.077 10.386,20.269 10.451,20.345 10.432 C 20.463 10.402,21.467 9.366,22.183 8.533 C 23.407 7.110,24.028 5.545,23.785 4.491 C 23.651 3.910,23.193 3.309,22.702 3.068 C 21.638 2.548,20.488 2.966,19.870 4.098 C 19.725 4.365,19.622 4.493,19.534 4.515 C 19.367 4.556,19.341 4.521,19.351 4.266 C 19.365 3.907,19.631 3.203,19.910 2.786 C 20.465 1.955,21.377 1.541,22.493 1.612 C 22.706 1.626,22.880 1.620,22.880 1.598 C 22.880 1.543,21.988 1.157,21.265 0.898 C 19.258 0.181,16.785 -0.135,14.693 0.059 M24.587 2.553 C 24.587 2.580,24.669 2.725,24.769 2.874 C 25.461 3.902,25.353 5.174,24.445 6.674 C 23.954 7.488,23.438 8.103,21.662 10.000 C 21.222 10.469,20.882 10.874,20.906 10.898 C 20.929 10.923,21.725 10.934,22.674 10.922 C 24.674 10.898,24.767 10.879,25.251 10.405 C 25.557 10.104,25.813 9.999,25.813 10.175 C 25.813 10.369,24.971 12.660,24.874 12.731 C 24.803 12.783,24.462 12.800,23.509 12.800 L 22.239 12.800 22.420 13.160 C 22.670 13.657,22.912 14.362,23.013 14.890 C 23.113 15.409,23.127 16.499,23.042 17.040 C 22.597 19.855,20.501 21.821,17.380 22.352 C 16.431 22.514,15.069 22.480,13.969 22.267 C 13.542 22.185,13.133 22.132,13.062 22.150 C 12.885 22.194,12.047 23.139,11.840 23.528 C 11.411 24.334,11.668 24.948,12.536 25.193 C 13.010 25.326,15.419 25.492,19.227 25.653 C 21.640 25.755,22.347 25.895,23.363 26.466 C 24.275 26.979,25.028 27.868,25.283 28.733 C 25.320 28.858,25.361 28.960,25.374 28.960 C 25.477 28.960,26.676 27.936,27.311 27.307 C 29.882 24.758,31.378 21.716,31.902 17.973 C 31.996 17.303,31.997 14.919,31.903 14.240 C 31.634 12.279,31.232 10.810,30.558 9.321 C 29.478 6.934,27.732 4.824,25.365 3.045 C 24.725 2.564,24.587 2.477,24.587 2.553 M14.854 10.539 C 13.858 10.780,12.985 11.538,12.597 12.499 C 11.880 14.275,12.009 17.229,12.884 19.067 C 13.436 20.225,14.231 20.969,15.225 21.256 C 15.897 21.450,17.022 21.321,17.671 20.975 C 17.822 20.895,18.121 20.656,18.335 20.446 C 18.969 19.820,19.226 19.137,19.459 17.465 C 19.533 16.934,19.550 16.640,19.518 16.452 C 19.493 16.306,19.448 15.871,19.418 15.485 C 19.299 13.978,18.846 12.688,18.100 11.734 C 17.298 10.709,16.051 10.250,14.854 10.539 M11.720 28.600 C 11.364 28.980,10.548 30.129,10.371 30.500 C 10.267 30.716,10.189 30.899,10.198 30.907 C 10.273 30.973,10.838 31.220,11.227 31.358 C 12.325 31.746,13.531 31.939,15.147 31.983 C 17.834 32.057,20.599 31.576,22.521 30.701 C 22.985 30.489,23.680 30.055,23.680 29.976 C 23.680 29.862,23.338 29.544,23.076 29.416 C 22.743 29.253,21.728 29.034,20.960 28.961 C 20.652 28.931,19.584 28.870,18.587 28.825 C 17.589 28.780,15.765 28.672,14.533 28.585 C 13.301 28.499,12.201 28.427,12.088 28.427 C 11.925 28.427,11.849 28.462,11.720 28.600 " stroke="none" fill-rule="evenodd" fill="black"></path></svg>