<svg viewBox="0 0 32 32" xmlns="http://www.w3.org/2000/svg"><path d="M14.933 0.034 C 10.237 0.384,6.020 2.671,3.211 6.391 C 1.590 8.538,0.590 10.959,0.146 13.813 C -0.017 14.858,-0.017 17.142,0.146 18.187 C 0.830 22.578,2.950 26.177,6.391 28.787 C 8.515 30.398,10.963 31.410,13.813 31.854 C 14.858 32.017,17.142 32.017,18.187 31.854 C 20.149 31.549,21.935 30.970,23.505 30.132 C 26.290 28.646,28.646 26.290,30.132 23.505 C 30.970 21.935,31.549 20.149,31.854 18.187 C 32.017 17.142,32.017 14.858,31.854 13.813 C 31.410 10.961,30.399 8.515,28.784 6.386 C 26.139 2.901,22.361 0.710,18.000 0.132 C 17.376 0.050,15.520 -0.010,14.933 0.034 M16.411 6.507 C 16.615 6.756,16.970 7.212,17.199 7.520 C 17.632 8.103,18.773 9.799,18.773 9.859 C 18.773 9.878,18.149 10.518,17.387 11.280 L 16.000 12.666 14.613 11.280 C 13.851 10.518,13.227 9.879,13.227 9.860 C 13.227 9.788,14.452 7.995,14.935 7.360 C 15.668 6.396,15.969 6.026,16.006 6.040 C 16.025 6.048,16.207 6.257,16.411 6.507 M14.328 12.433 L 15.983 14.093 17.626 12.433 C 18.530 11.520,19.284 10.774,19.301 10.774 C 19.387 10.775,20.496 12.891,21.200 14.395 C 21.867 15.822,22.531 17.598,22.805 18.693 C 23.065 19.730,23.029 20.844,22.709 21.636 C 22.387 22.432,21.573 23.537,20.847 24.162 C 18.558 26.132,15.498 26.542,12.760 25.245 C 11.367 24.585,9.878 23.073,9.325 21.758 C 8.901 20.748,8.912 19.649,9.362 18.160 C 9.584 17.425,10.352 15.418,10.721 14.610 C 11.176 13.614,12.618 10.775,12.670 10.773 C 12.672 10.773,13.418 11.520,14.328 12.433 " stroke="none" fill-rule="evenodd" fill="black"></path></svg>