<svg viewBox="0 0 32 32" xmlns="http://www.w3.org/2000/svg"><path d="M14.933 0.034 C 10.237 0.384,6.020 2.671,3.211 6.391 C 1.590 8.538,0.590 10.959,0.146 13.813 C -0.017 14.858,-0.017 17.142,0.146 18.187 C 0.830 22.578,2.950 26.177,6.391 28.787 C 8.515 30.398,10.963 31.410,13.813 31.854 C 14.858 32.017,17.142 32.017,18.187 31.854 C 20.149 31.549,21.935 30.970,23.505 30.132 C 26.290 28.646,28.646 26.290,30.132 23.505 C 30.970 21.935,31.549 20.149,31.854 18.187 C 32.017 17.142,32.017 14.858,31.854 13.813 C 31.410 10.961,30.399 8.515,28.784 6.386 C 26.139 2.901,22.361 0.710,18.000 0.132 C 17.376 0.050,15.520 -0.010,14.933 0.034 M10.390 6.108 C 10.732 6.188,11.230 6.411,11.538 6.621 C 11.631 6.684,12.672 7.697,13.851 8.872 L 15.996 11.007 18.171 8.846 C 20.454 6.578,20.639 6.422,21.333 6.183 C 21.818 6.017,22.719 5.980,23.277 6.104 C 24.575 6.393,25.607 7.426,25.896 8.726 C 26.016 9.264,25.979 10.179,25.821 10.628 C 25.542 11.413,25.496 11.469,23.179 13.800 L 20.991 15.999 23.179 18.200 C 25.241 20.273,25.380 20.425,25.589 20.833 C 25.908 21.455,25.990 21.857,25.958 22.640 C 25.918 23.574,25.658 24.222,25.058 24.877 C 23.977 26.056,22.144 26.331,20.693 25.532 C 20.478 25.414,19.814 24.787,18.205 23.185 L 16.011 21.000 13.832 23.155 C 12.633 24.341,11.528 25.390,11.374 25.487 C 10.582 25.988,9.374 26.132,8.459 25.835 C 7.311 25.463,6.392 24.492,6.113 23.357 C 6.007 22.925,6.002 22.123,6.104 21.645 C 6.185 21.264,6.402 20.782,6.660 20.414 C 6.747 20.289,7.655 19.353,8.677 18.333 L 10.534 16.480 11.278 17.224 L 12.021 17.969 11.677 18.329 C 11.488 18.527,10.664 19.361,9.845 20.182 C 8.757 21.275,8.328 21.741,8.248 21.918 C 7.957 22.562,8.271 23.401,8.933 23.748 C 9.239 23.907,9.758 23.902,10.080 23.735 C 10.447 23.545,10.769 23.243,12.691 21.277 L 14.471 19.458 10.600 15.583 C 8.044 13.023,6.669 11.607,6.549 11.413 C 6.177 10.810,6.027 10.280,6.027 9.572 C 6.027 8.884,6.105 8.526,6.384 7.947 C 6.812 7.054,7.625 6.389,8.598 6.134 C 9.078 6.009,9.917 5.996,10.390 6.108 M9.236 8.167 C 8.811 8.244,8.347 8.642,8.209 9.046 C 8.099 9.369,8.118 9.803,8.254 10.080 C 8.336 10.249,8.987 10.935,10.452 12.400 L 12.533 14.479 13.493 13.520 C 14.021 12.993,14.453 12.548,14.453 12.531 C 14.453 12.515,13.543 11.586,12.430 10.467 C 10.329 8.353,10.153 8.205,9.680 8.150 C 9.563 8.137,9.363 8.144,9.236 8.167 M22.240 8.156 C 21.777 8.252,21.609 8.407,17.797 12.234 L 14.020 16.026 14.997 16.970 C 15.534 17.490,15.991 17.916,16.012 17.917 C 16.034 17.919,16.377 17.604,16.774 17.218 L 17.497 16.516 18.229 17.231 C 18.631 17.625,18.971 17.953,18.984 17.962 C 18.997 17.970,18.675 18.311,18.268 18.719 L 17.528 19.461 18.590 20.565 C 19.760 21.780,21.648 23.617,21.831 23.717 C 21.894 23.752,22.063 23.809,22.205 23.843 C 23.047 24.049,24.006 23.180,23.871 22.336 C 23.786 21.806,23.720 21.732,20.037 18.042 L 16.513 14.510 17.092 13.908 C 17.411 13.577,17.739 13.235,17.822 13.148 L 17.974 12.988 18.708 13.721 C 19.111 14.124,19.459 14.453,19.482 14.453 C 19.504 14.453,20.441 13.534,21.565 12.410 C 23.063 10.911,23.640 10.299,23.729 10.115 C 23.968 9.622,23.872 9.019,23.486 8.590 C 23.161 8.229,22.685 8.063,22.240 8.156 " stroke="none" fill-rule="evenodd" fill="black"></path></svg>