<svg width="32" height="32" xmlns="http://www.w3.org/2000/svg"><path d="M14.933 0.034 C 10.237 0.384,6.020 2.671,3.211 6.391 C 1.590 8.538,0.590 10.959,0.146 13.813 C -0.017 14.858,-0.017 17.142,0.146 18.187 C 0.830 22.578,2.950 26.177,6.391 28.787 C 8.515 30.398,10.963 31.410,13.813 31.854 C 14.858 32.017,17.142 32.017,18.187 31.854 C 20.149 31.549,21.935 30.970,23.505 30.132 C 26.290 28.646,28.646 26.290,30.132 23.505 C 30.970 21.935,31.549 20.149,31.854 18.187 C 32.017 17.142,32.017 14.858,31.854 13.813 C 31.410 10.961,30.399 8.515,28.784 6.386 C 26.139 2.901,22.361 0.710,18.000 0.132 C 17.376 0.050,15.520 -0.010,14.933 0.034 M8.268 9.090 C 11.159 9.475,13.638 11.290,14.619 13.739 C 14.711 13.969,14.840 14.374,14.905 14.639 L 15.023 15.120 15.970 15.120 L 16.917 15.120 17.040 14.640 C 17.343 13.451,17.942 12.418,18.880 11.468 C 20.466 9.862,22.638 9.020,25.059 9.074 C 25.528 9.085,25.929 9.111,25.951 9.133 C 26.001 9.183,25.240 10.973,25.118 11.096 C 25.049 11.164,24.888 11.191,24.421 11.214 C 22.648 11.301,20.952 12.239,20.003 13.658 C 19.718 14.083,19.360 14.867,19.360 15.065 C 19.360 15.135,19.481 15.147,20.196 15.147 C 20.977 15.147,21.706 15.220,21.707 15.299 C 21.707 15.318,21.512 15.783,21.273 16.333 L 20.838 17.333 20.099 17.333 C 19.660 17.333,19.360 17.354,19.360 17.385 C 19.360 17.489,19.535 17.956,19.691 18.267 C 20.292 19.466,21.482 20.474,22.853 20.943 C 23.411 21.134,23.639 21.179,24.399 21.246 L 25.091 21.307 25.524 22.293 C 25.903 23.155,25.947 23.287,25.872 23.333 C 25.823 23.364,25.376 23.386,24.827 23.386 C 23.760 23.385,23.024 23.274,22.108 22.977 C 19.578 22.157,17.575 20.111,17.036 17.799 L 16.940 17.384 15.958 17.399 L 14.976 17.413 14.848 17.920 C 14.598 18.909,13.875 20.139,13.050 20.974 C 12.868 21.158,12.457 21.505,12.136 21.746 C 10.943 22.641,9.496 23.184,7.867 23.349 C 7.330 23.403,6.240 23.374,6.165 23.304 C 6.137 23.277,6.298 22.842,6.556 22.250 L 6.995 21.241 7.564 21.212 C 9.600 21.105,11.509 19.769,12.182 17.980 C 12.255 17.786,12.331 17.561,12.350 17.480 L 12.385 17.333 11.432 17.331 C 10.568 17.329,10.070 17.288,9.994 17.212 C 9.964 17.182,10.680 15.466,10.806 15.267 C 10.880 15.151,10.912 15.147,11.650 15.147 L 12.418 15.147 12.366 14.947 C 12.169 14.197,11.777 13.505,11.194 12.882 C 10.249 11.870,8.932 11.260,7.493 11.167 C 7.185 11.147,6.911 11.104,6.884 11.072 C 6.774 10.938,6.025 9.153,6.064 9.115 C 6.178 9.005,7.511 8.989,8.268 9.090 " stroke="none" fill-rule="evenodd" fill="black"></path></svg>