<svg width="32" height="32" xmlns="http://www.w3.org/2000/svg"><path d="M14.933 0.034 C 10.237 0.384,6.020 2.671,3.211 6.391 C 1.590 8.538,0.590 10.959,0.146 13.813 C -0.017 14.858,-0.017 17.142,0.146 18.187 C 0.830 22.578,2.950 26.177,6.391 28.787 C 8.515 30.398,10.963 31.410,13.813 31.854 C 14.858 32.017,17.142 32.017,18.187 31.854 C 20.149 31.549,21.935 30.970,23.505 30.132 C 26.290 28.646,28.646 26.290,30.132 23.505 C 30.970 21.935,31.549 20.149,31.854 18.187 C 32.017 17.142,32.017 14.858,31.854 13.813 C 31.410 10.961,30.399 8.515,28.784 6.386 C 26.139 2.901,22.361 0.710,18.000 0.132 C 17.376 0.050,15.520 -0.010,14.933 0.034 M15.751 3.427 C 17.061 4.739,18.078 7.203,18.298 9.600 C 18.414 10.852,18.271 11.675,17.759 12.720 C 17.410 13.433,16.923 14.170,15.826 15.648 C 14.652 17.228,14.103 18.053,13.713 18.822 C 13.014 20.199,12.786 21.227,12.906 22.470 C 13.028 23.732,13.394 24.836,14.165 26.265 C 14.417 26.734,14.637 27.195,14.652 27.289 C 14.676 27.441,14.663 27.466,14.540 27.497 C 14.115 27.603,12.742 27.081,11.838 26.469 C 9.991 25.220,8.668 23.228,8.180 20.960 C 8.030 20.264,8.043 18.621,8.203 17.880 C 8.442 16.782,8.897 15.759,9.612 14.710 C 10.097 13.999,10.464 13.546,11.355 12.560 C 12.809 10.952,13.417 10.118,14.000 8.933 C 14.731 7.447,15.141 5.728,15.236 3.751 C 15.255 3.360,15.291 3.040,15.318 3.040 C 15.344 3.040,15.539 3.214,15.751 3.427 M21.312 13.555 C 22.680 14.966,23.492 16.690,23.681 18.587 C 23.780 19.586,23.667 20.820,23.386 21.787 C 22.852 23.626,21.393 25.380,19.521 26.433 C 19.096 26.672,18.585 27.113,18.385 27.413 L 18.296 27.547 17.988 27.226 C 16.618 25.800,15.994 24.169,16.157 22.440 C 16.303 20.892,16.898 19.466,18.281 17.350 C 19.093 16.107,19.423 15.553,19.808 14.781 C 20.050 14.297,20.458 13.323,20.557 12.996 C 20.585 12.903,20.593 12.904,20.733 13.004 C 20.814 13.062,21.074 13.310,21.312 13.555 " stroke="none" fill-rule="evenodd" fill="black"></path></svg>