<svg viewBox="0 0 32 32" xmlns="http://www.w3.org/2000/svg"><path d="M14.933 0.034 C 10.237 0.384,6.020 2.671,3.211 6.391 C 1.590 8.538,0.590 10.959,0.146 13.813 C -0.017 14.858,-0.017 17.142,0.146 18.187 C 0.830 22.578,2.950 26.177,6.391 28.787 C 8.515 30.398,10.963 31.410,13.813 31.854 C 14.858 32.017,17.142 32.017,18.187 31.854 C 20.149 31.549,21.935 30.970,23.505 30.132 C 26.290 28.646,28.646 26.290,30.132 23.505 C 30.970 21.935,31.549 20.149,31.854 18.187 C 32.017 17.142,32.017 14.858,31.854 13.813 C 31.410 10.961,30.399 8.515,28.784 6.386 C 26.139 2.901,22.361 0.710,18.000 0.132 C 17.376 0.050,15.520 -0.010,14.933 0.034 M16.269 6.147 C 16.620 6.383,16.628 6.423,16.670 8.133 L 16.709 9.680 16.546 9.506 C 16.178 9.113,15.613 9.074,15.209 9.414 L 15.055 9.543 15.019 9.066 C 14.968 8.391,15.038 6.619,15.122 6.453 C 15.198 6.305,15.398 6.109,15.520 6.064 C 15.725 5.989,16.096 6.030,16.269 6.147 M12.947 7.093 C 13.043 7.151,13.169 7.277,13.228 7.373 C 13.332 7.543,13.334 7.629,13.320 11.360 C 13.307 15.078,13.304 15.177,13.200 15.319 C 13.076 15.488,12.719 15.680,12.528 15.680 C 12.307 15.680,11.931 15.455,11.815 15.253 C 11.709 15.071,11.707 14.984,11.707 11.297 C 11.707 7.556,11.708 7.527,11.818 7.377 C 12.103 6.993,12.585 6.872,12.947 7.093 M19.667 7.093 C 19.763 7.151,19.889 7.277,19.947 7.373 C 20.049 7.540,20.053 7.646,20.053 10.043 C 20.053 12.720,20.056 12.688,19.778 12.940 C 19.337 13.341,18.610 13.116,18.453 12.530 C 18.415 12.392,18.401 11.500,18.411 9.933 C 18.426 7.611,18.430 7.541,18.539 7.368 C 18.601 7.271,18.721 7.145,18.806 7.089 C 19.015 6.951,19.437 6.953,19.667 7.093 M9.787 8.963 C 9.875 9.016,9.995 9.139,10.053 9.236 C 10.158 9.411,10.160 9.508,10.160 15.627 L 10.160 21.840 10.032 22.046 C 9.898 22.262,9.575 22.450,9.337 22.452 C 9.114 22.454,8.759 22.245,8.630 22.037 L 8.509 21.841 8.526 15.630 C 8.536 12.215,8.563 9.370,8.586 9.310 C 8.649 9.144,8.906 8.908,9.062 8.874 C 9.138 8.858,9.224 8.837,9.253 8.828 C 9.355 8.799,9.627 8.868,9.787 8.963 M23.093 8.957 C 23.305 9.104,23.454 9.366,23.494 9.661 C 23.515 9.812,23.515 12.626,23.494 15.914 L 23.456 21.893 23.342 22.067 C 23.218 22.255,22.871 22.453,22.667 22.453 C 22.455 22.453,22.114 22.253,21.973 22.045 L 21.840 21.848 21.840 15.657 C 21.840 9.758,21.845 9.457,21.938 9.270 C 22.147 8.850,22.718 8.695,23.093 8.957 M16.269 11.054 C 16.367 11.120,16.497 11.258,16.557 11.360 C 16.660 11.536,16.668 11.645,16.684 13.250 C 16.694 14.187,16.687 15.033,16.668 15.129 C 16.631 15.328,16.475 15.439,16.302 15.390 C 16.238 15.372,15.935 15.058,15.627 14.692 L 15.067 14.028 15.028 13.534 C 15.007 13.262,15.004 12.687,15.022 12.256 C 15.047 11.624,15.073 11.441,15.153 11.309 C 15.379 10.938,15.915 10.815,16.269 11.054 M19.680 14.947 C 19.777 15.013,19.900 15.150,19.955 15.253 C 20.048 15.429,20.053 15.650,20.053 19.519 C 20.053 23.470,20.050 23.605,19.949 23.770 C 19.756 24.087,19.392 24.234,19.027 24.144 C 18.749 24.074,18.471 23.756,18.428 23.457 C 18.410 23.331,18.402 21.458,18.411 19.297 C 18.427 15.406,18.428 15.366,18.538 15.217 C 18.727 14.962,18.975 14.827,19.253 14.827 C 19.426 14.827,19.559 14.864,19.680 14.947 M16.024 17.738 C 16.363 18.136,16.655 18.520,16.673 18.592 C 16.691 18.663,16.696 19.063,16.685 19.481 C 16.669 20.126,16.649 20.268,16.557 20.426 C 16.230 20.985,15.453 21.000,15.141 20.453 C 15.064 20.317,15.045 20.069,15.016 18.795 C 14.979 17.130,14.994 17.013,15.249 17.013 C 15.386 17.013,15.488 17.109,16.024 17.738 M12.885 17.435 C 13.012 17.492,13.152 17.612,13.218 17.720 C 13.332 17.904,13.333 17.931,13.333 20.753 C 13.333 23.481,13.329 23.607,13.229 23.770 C 12.809 24.460,11.806 24.219,11.708 23.405 C 11.689 23.248,11.681 21.956,11.690 20.533 C 11.706 18.035,11.710 17.940,11.816 17.760 C 11.945 17.541,12.280 17.335,12.507 17.335 C 12.595 17.336,12.765 17.380,12.885 17.435 M16.683 23.973 C 16.659 25.459,16.646 25.537,16.365 25.795 C 15.994 26.136,15.362 26.010,15.120 25.547 C 15.040 25.393,14.948 22.864,15.010 22.533 L 15.047 22.334 15.190 22.470 C 15.560 22.823,16.189 22.803,16.533 22.429 L 16.667 22.283 16.685 22.435 C 16.696 22.518,16.694 23.211,16.683 23.973 " stroke="none" fill-rule="evenodd" fill="black"></path></svg>