<svg viewBox="0 0 32 32" xmlns="http://www.w3.org/2000/svg"><path d="M14.933 0.034 C 10.237 0.384,6.020 2.671,3.211 6.391 C 1.590 8.538,0.590 10.959,0.146 13.813 C -0.017 14.858,-0.017 17.142,0.146 18.187 C 0.830 22.578,2.950 26.177,6.391 28.787 C 8.515 30.398,10.963 31.410,13.813 31.854 C 14.858 32.017,17.142 32.017,18.187 31.854 C 20.149 31.549,21.935 30.970,23.505 30.132 C 26.290 28.646,28.646 26.290,30.132 23.505 C 30.970 21.935,31.549 20.149,31.854 18.187 C 32.017 17.142,32.017 14.858,31.854 13.813 C 31.410 10.961,30.399 8.515,28.784 6.386 C 26.139 2.901,22.361 0.710,18.000 0.132 C 17.376 0.050,15.520 -0.010,14.933 0.034 M24.862 6.202 C 25.216 6.376,25.667 6.834,25.830 7.187 C 25.927 7.397,25.947 7.536,25.947 8.000 C 25.947 8.501,25.931 8.591,25.802 8.855 C 25.415 9.643,24.537 10.108,23.696 9.972 C 23.067 9.869,22.483 9.435,22.202 8.861 C 22.018 8.486,21.973 7.839,22.100 7.403 C 22.259 6.853,22.769 6.320,23.325 6.122 C 23.746 5.972,24.469 6.010,24.862 6.202 M17.573 8.161 C 18.569 8.370,19.500 8.751,20.332 9.290 L 20.691 9.523 19.610 10.604 L 18.528 11.685 18.157 11.503 C 17.428 11.146,16.849 11.018,15.973 11.023 C 14.923 11.029,14.096 11.275,13.248 11.835 C 11.143 13.225,10.403 15.953,11.518 18.213 L 11.676 18.533 10.601 19.611 L 9.525 20.689 9.346 20.438 C 8.844 19.735,8.327 18.455,8.124 17.413 C 7.991 16.729,7.992 15.303,8.126 14.587 C 8.595 12.080,10.152 9.996,12.397 8.869 C 13.276 8.427,14.037 8.202,15.227 8.031 C 15.626 7.974,17.059 8.053,17.573 8.161 M23.120 12.377 C 23.460 13.042,23.680 13.672,23.846 14.453 C 24.006 15.211,24.019 16.683,23.872 17.440 C 23.239 20.696,20.839 23.142,17.583 23.851 C 16.805 24.020,15.207 24.019,14.431 23.848 C 13.427 23.628,12.491 23.247,11.662 22.722 L 11.296 22.491 12.384 21.403 L 13.472 20.315 13.709 20.448 C 14.079 20.654,14.859 20.894,15.387 20.964 C 17.693 21.269,19.969 19.840,20.724 17.614 C 21.013 16.760,21.075 16.053,20.932 15.220 C 20.837 14.669,20.701 14.235,20.481 13.787 L 20.324 13.467 21.399 12.389 L 22.475 11.311 22.652 11.559 C 22.749 11.696,22.959 12.064,23.120 12.377 M8.862 22.202 C 9.216 22.376,9.667 22.834,9.830 23.187 C 9.927 23.397,9.947 23.536,9.947 24.000 C 9.947 24.501,9.931 24.591,9.802 24.855 C 9.415 25.643,8.537 26.108,7.696 25.972 C 7.067 25.869,6.483 25.435,6.202 24.861 C 6.018 24.486,5.973 23.839,6.100 23.403 C 6.259 22.853,6.769 22.320,7.325 22.122 C 7.746 21.972,8.469 22.010,8.862 22.202 " stroke="none" fill-rule="evenodd" fill="black"></path></svg>