<svg viewBox="0 0 32 32" xmlns="http://www.w3.org/2000/svg"><path d="M14.933 0.034 C 10.237 0.384,6.020 2.671,3.211 6.391 C 1.590 8.538,0.590 10.959,0.146 13.813 C -0.017 14.858,-0.017 17.142,0.146 18.187 C 0.830 22.578,2.950 26.177,6.391 28.787 C 8.515 30.398,10.963 31.410,13.813 31.854 C 14.858 32.017,17.142 32.017,18.187 31.854 C 20.149 31.549,21.935 30.970,23.505 30.132 C 26.290 28.646,28.646 26.290,30.132 23.505 C 30.970 21.935,31.549 20.149,31.854 18.187 C 32.017 17.142,32.017 14.858,31.854 13.813 C 31.410 10.961,30.399 8.515,28.784 6.386 C 26.139 2.901,22.361 0.710,18.000 0.132 C 17.376 0.050,15.520 -0.010,14.933 0.034 M16.943 5.070 C 17.127 5.140,17.370 5.364,17.471 5.557 C 17.645 5.890,17.507 6.469,17.195 6.715 C 16.731 7.079,15.999 6.920,15.732 6.398 C 15.408 5.762,15.857 5.022,16.570 5.015 C 16.693 5.014,16.861 5.039,16.943 5.070 M19.538 5.810 C 19.921 5.956,20.021 6.416,19.738 6.732 C 19.604 6.882,19.547 6.907,19.333 6.907 C 19.120 6.907,19.063 6.882,18.929 6.732 C 18.523 6.278,18.974 5.596,19.538 5.810 M18.046 8.258 C 18.486 8.494,18.720 8.901,18.720 9.428 C 18.720 10.582,17.342 11.173,16.460 10.398 C 15.966 9.965,15.865 9.224,16.227 8.693 C 16.635 8.092,17.400 7.910,18.046 8.258 M14.057 9.749 C 14.650 10.055,14.936 10.694,14.755 11.312 C 14.583 11.898,14.081 12.267,13.454 12.267 C 12.899 12.267,12.496 12.034,12.242 11.567 C 11.854 10.855,12.231 9.930,13.012 9.679 C 13.322 9.579,13.787 9.610,14.057 9.749 M17.553 11.630 C 17.826 11.769,17.997 12.111,17.942 12.406 C 17.860 12.843,17.380 13.145,16.965 13.021 C 16.320 12.828,16.215 11.970,16.795 11.634 C 17.039 11.492,17.280 11.491,17.553 11.630 M11.701 11.968 C 12.068 12.121,12.172 12.544,11.917 12.847 C 11.745 13.051,11.499 13.104,11.233 12.993 C 10.808 12.815,10.787 12.211,11.199 11.992 C 11.422 11.874,11.471 11.871,11.701 11.968 M6.724 13.213 C 7.556 13.635,7.542 14.801,6.699 15.237 C 6.613 15.282,6.409 15.330,6.245 15.343 C 5.636 15.395,5.075 14.928,5.025 14.328 C 4.947 13.380,5.865 12.778,6.724 13.213 M15.707 13.166 C 16.580 13.563,16.597 14.777,15.737 15.213 C 15.244 15.463,14.787 15.388,14.392 14.994 C 13.978 14.581,13.925 14.078,14.243 13.578 C 14.529 13.126,15.202 12.937,15.707 13.166 M18.324 15.072 C 18.845 15.319,18.852 16.139,18.336 16.406 C 17.845 16.659,17.260 16.353,17.193 15.809 C 17.122 15.227,17.766 14.808,18.324 15.072 M9.376 15.915 C 9.979 16.220,10.260 17.015,9.980 17.627 C 9.858 17.894,9.466 18.259,9.209 18.344 C 8.554 18.560,7.816 18.275,7.507 17.688 C 7.355 17.398,7.342 16.809,7.482 16.528 C 7.835 15.820,8.662 15.553,9.376 15.915 M21.439 15.827 C 21.832 16.024,21.985 16.526,21.762 16.890 C 21.372 17.531,20.413 17.315,20.336 16.568 C 20.306 16.278,20.452 16.011,20.726 15.854 C 20.976 15.710,21.191 15.702,21.439 15.827 M6.215 16.641 C 6.646 16.907,6.671 17.489,6.267 17.867 C 6.146 17.980,6.074 18.000,5.787 18.000 C 5.500 18.000,5.427 17.980,5.306 17.867 C 4.901 17.489,4.926 16.925,5.360 16.639 C 5.576 16.497,5.983 16.498,6.215 16.641 M19.544 17.414 C 20.795 18.017,20.437 19.834,19.047 19.934 C 18.756 19.955,18.637 19.937,18.412 19.840 C 18.110 19.710,17.793 19.399,17.675 19.116 C 17.579 18.887,17.578 18.342,17.673 18.114 C 17.820 17.763,18.167 17.455,18.560 17.327 C 18.776 17.257,19.317 17.304,19.544 17.414 M22.081 18.600 C 22.491 18.970,22.220 19.573,21.645 19.573 C 21.394 19.573,21.120 19.273,21.120 18.998 C 21.120 18.676,21.347 18.453,21.674 18.453 C 21.866 18.453,21.953 18.485,22.081 18.600 M7.180 19.302 C 7.843 19.603,7.922 20.534,7.319 20.931 C 6.935 21.184,6.476 21.160,6.130 20.869 C 5.904 20.679,5.813 20.475,5.813 20.160 C 5.813 19.854,5.894 19.666,6.115 19.456 C 6.402 19.184,6.795 19.127,7.180 19.302 M10.348 19.381 C 10.784 19.670,10.986 20.237,10.826 20.722 C 10.730 21.013,10.370 21.351,10.065 21.437 C 9.110 21.704,8.250 20.789,8.636 19.917 C 8.787 19.575,8.880 19.477,9.200 19.323 C 9.558 19.150,10.036 19.174,10.348 19.381 M16.759 19.762 C 17.305 20.123,17.295 20.950,16.741 21.316 C 16.553 21.441,16.457 21.467,16.185 21.466 C 15.791 21.465,15.539 21.320,15.353 20.989 C 14.863 20.118,15.913 19.202,16.759 19.762 M21.642 20.475 C 22.035 20.677,22.261 21.048,22.261 21.493 C 22.261 22.617,20.806 23.062,20.141 22.141 C 19.987 21.929,19.973 21.875,19.973 21.493 C 19.973 21.111,19.987 21.058,20.141 20.845 C 20.376 20.521,20.677 20.373,21.104 20.373 C 21.334 20.373,21.509 20.406,21.642 20.475 M18.454 21.201 C 18.653 21.303,18.720 21.431,18.720 21.707 C 18.720 22.030,18.500 22.240,18.160 22.240 C 17.820 22.240,17.600 22.030,17.600 21.707 C 17.600 21.436,17.666 21.306,17.855 21.203 C 18.043 21.101,18.260 21.100,18.454 21.201 M8.185 21.942 C 8.376 22.022,8.533 22.258,8.533 22.464 C 8.533 22.669,8.345 22.917,8.137 22.985 C 7.772 23.106,7.361 22.830,7.360 22.464 C 7.360 22.263,7.515 22.024,7.697 21.945 C 7.914 21.850,7.964 21.850,8.185 21.942 M16.810 22.405 C 17.095 22.556,17.286 22.748,17.418 23.018 C 17.615 23.420,17.591 23.920,17.357 24.300 C 16.922 25.004,15.909 25.151,15.296 24.598 C 14.604 23.974,14.705 22.942,15.507 22.445 C 15.820 22.251,16.481 22.231,16.810 22.405 M24.893 22.482 C 25.157 22.784,24.960 23.315,24.556 23.391 C 24.176 23.462,23.879 23.213,23.879 22.823 C 23.879 22.311,24.547 22.086,24.893 22.482 M10.923 22.805 C 11.271 22.978,11.499 23.251,11.608 23.621 C 11.982 24.898,10.422 25.861,9.399 24.985 C 9.090 24.721,8.960 24.421,8.960 23.977 C 8.960 23.199,9.497 22.674,10.296 22.669 C 10.568 22.667,10.707 22.697,10.923 22.805 M20.027 23.139 C 20.900 23.536,20.917 24.750,20.057 25.187 C 19.596 25.420,19.139 25.364,18.766 25.027 C 18.473 24.763,18.383 24.566,18.378 24.183 C 18.374 23.912,18.400 23.815,18.534 23.596 C 18.831 23.109,19.506 22.903,20.027 23.139 M22.664 23.525 C 22.924 23.671,23.040 23.877,23.040 24.190 C 23.040 24.595,22.682 24.960,22.285 24.960 C 22.033 24.960,21.718 24.750,21.598 24.502 C 21.268 23.821,21.999 23.151,22.664 23.525 M17.919 25.427 C 18.801 25.870,18.164 27.182,17.260 26.782 C 16.965 26.651,16.800 26.408,16.800 26.101 C 16.800 25.704,17.173 25.333,17.573 25.333 C 17.661 25.333,17.817 25.375,17.919 25.427 M14.508 25.788 C 14.678 25.875,14.827 26.113,14.827 26.296 C 14.827 26.478,14.660 26.711,14.461 26.805 C 14.101 26.976,13.653 26.702,13.653 26.309 C 13.653 26.070,13.729 25.938,13.937 25.811 C 14.141 25.686,14.299 25.680,14.508 25.788 " stroke="none" fill-rule="evenodd" fill="black"></path></svg>