<svg width="32" height="32" xmlns="http://www.w3.org/2000/svg"><path d="M14.933 0.034 C 10.237 0.384,6.020 2.671,3.211 6.391 C 1.590 8.538,0.590 10.959,0.146 13.813 C -0.017 14.858,-0.017 17.142,0.146 18.187 C 0.830 22.578,2.950 26.177,6.391 28.787 C 8.515 30.398,10.963 31.410,13.813 31.854 C 14.858 32.017,17.142 32.017,18.187 31.854 C 20.149 31.549,21.935 30.970,23.505 30.132 C 26.290 28.646,28.646 26.290,30.132 23.505 C 30.970 21.935,31.549 20.149,31.854 18.187 C 32.017 17.142,32.017 14.858,31.854 13.813 C 31.410 10.961,30.399 8.515,28.784 6.386 C 26.139 2.901,22.361 0.710,18.000 0.132 C 17.376 0.050,15.520 -0.010,14.933 0.034 M21.678 5.095 C 22.440 5.293,23.098 5.850,23.454 6.596 C 23.651 7.009,23.653 7.020,23.653 7.680 C 23.653 8.253,23.635 8.394,23.527 8.681 L 23.400 9.014 23.719 9.401 C 24.915 10.846,25.704 12.679,25.925 14.523 C 26.024 15.354,25.960 16.894,25.793 17.684 C 25.439 19.358,24.651 20.936,23.536 22.208 L 23.120 22.683 23.319 23.088 C 24.076 24.625,23.272 26.412,21.604 26.902 C 21.233 27.011,20.581 27.011,20.210 26.902 C 19.493 26.691,18.839 26.174,18.538 25.578 C 18.410 25.325,18.364 25.277,18.272 25.299 C 17.191 25.559,15.522 25.572,14.329 25.331 C 13.610 25.185,12.644 24.859,11.979 24.538 C 9.899 23.533,8.088 21.619,7.228 19.515 L 7.045 19.067 6.629 19.030 C 5.806 18.958,5.248 18.694,4.724 18.129 C 3.510 16.818,3.900 14.688,5.497 13.899 C 5.740 13.779,6.058 13.673,6.293 13.634 L 6.684 13.568 6.806 13.109 C 7.736 9.608,10.717 6.801,14.267 6.085 C 15.495 5.837,16.933 5.838,18.168 6.087 L 18.717 6.197 19.052 5.859 C 19.761 5.142,20.751 4.854,21.678 5.095 M14.855 6.485 C 12.952 6.780,11.245 7.622,9.862 8.947 C 8.851 9.916,8.232 10.802,7.703 12.038 C 7.490 12.538,7.200 13.425,7.200 13.580 C 7.200 13.616,7.278 13.661,7.373 13.681 C 8.184 13.852,9.015 14.647,9.281 15.508 C 9.399 15.890,9.421 16.560,9.329 16.960 C 9.162 17.682,8.581 18.405,7.910 18.724 C 7.593 18.876,7.532 18.925,7.554 19.013 C 7.568 19.072,7.746 19.456,7.949 19.867 C 9.243 22.479,11.610 24.280,14.516 24.863 C 15.470 25.055,17.403 25.030,18.153 24.817 C 18.241 24.792,18.249 24.753,18.220 24.507 C 18.174 24.115,18.302 23.446,18.496 23.062 C 19.255 21.558,21.262 21.105,22.572 22.142 L 22.786 22.312 23.021 22.050 C 24.231 20.696,24.987 19.196,25.343 17.440 C 25.451 16.904,25.466 16.678,25.464 15.653 C 25.460 14.319,25.391 13.870,25.009 12.723 C 24.651 11.647,24.018 10.507,23.345 9.724 L 23.107 9.448 22.914 9.646 C 22.316 10.259,21.330 10.558,20.493 10.381 C 19.046 10.074,18.069 8.643,18.355 7.249 C 18.400 7.031,18.454 6.813,18.476 6.763 C 18.508 6.691,18.472 6.662,18.294 6.613 C 17.529 6.408,15.774 6.342,14.855 6.485 M16.907 13.074 C 17.326 13.169,17.843 13.481,18.183 13.845 C 19.800 15.573,18.594 18.400,16.240 18.400 C 15.486 18.400,14.864 18.143,14.324 17.609 C 13.815 17.105,13.546 16.446,13.548 15.710 C 13.550 15.204,13.609 14.914,13.789 14.533 C 14.344 13.360,15.591 12.776,16.907 13.074 " stroke="none" fill-rule="evenodd" fill="black"></path></svg>