<svg width="32" height="32" xmlns="http://www.w3.org/2000/svg"><path d="M14.933 0.034 C 10.237 0.384,6.020 2.671,3.211 6.391 C 1.590 8.538,0.590 10.959,0.146 13.813 C -0.017 14.858,-0.017 17.142,0.146 18.187 C 0.830 22.578,2.950 26.177,6.391 28.787 C 8.515 30.398,10.963 31.410,13.813 31.854 C 14.858 32.017,17.142 32.017,18.187 31.854 C 20.149 31.549,21.935 30.970,23.505 30.132 C 26.290 28.646,28.646 26.290,30.132 23.505 C 30.970 21.935,31.549 20.149,31.854 18.187 C 32.017 17.142,32.017 14.858,31.854 13.813 C 31.410 10.961,30.399 8.515,28.784 6.386 C 26.139 2.901,22.361 0.710,18.000 0.132 C 17.376 0.050,15.520 -0.010,14.933 0.034 M14.187 4.289 C 14.187 4.544,14.164 4.605,13.987 4.818 C 13.057 5.936,12.836 6.268,12.472 7.093 C 12.056 8.040,11.841 9.073,11.841 10.133 C 11.840 11.346,12.082 12.261,12.768 13.646 C 12.991 14.097,13.173 14.500,13.173 14.542 C 13.173 14.584,13.098 14.659,13.006 14.709 C 12.186 15.155,11.225 15.904,10.713 16.496 C 9.640 17.738,9.081 19.107,8.906 20.921 C 8.735 22.700,9.300 24.420,10.502 25.781 C 10.681 25.984,10.827 26.182,10.827 26.221 C 10.827 26.548,9.356 25.718,8.164 24.717 C 6.171 23.045,4.747 20.666,4.238 18.156 C 3.828 16.132,3.985 13.697,4.650 11.787 C 5.017 10.733,5.816 9.313,6.586 8.347 C 7.231 7.537,8.388 6.471,9.268 5.875 C 10.140 5.286,11.518 4.636,12.567 4.321 C 13.022 4.184,13.836 4.009,14.040 4.004 C 14.182 4.000,14.187 4.008,14.187 4.289 M21.222 5.073 C 24.140 6.629,26.354 9.413,27.170 12.551 C 27.421 13.517,27.476 13.954,27.505 15.210 C 27.547 16.996,27.421 17.977,26.983 19.278 C 26.740 19.997,26.115 21.313,25.727 21.920 C 24.281 24.183,22.161 25.895,19.653 26.823 C 18.481 27.257,16.160 27.635,16.160 27.391 C 16.160 27.350,16.262 27.280,16.387 27.236 C 16.511 27.192,16.769 27.103,16.960 27.038 C 17.404 26.886,18.177 26.500,18.587 26.224 C 19.546 25.580,20.530 24.516,20.984 23.633 C 21.068 23.470,21.069 23.446,20.992 23.370 C 20.916 23.293,20.866 23.327,20.441 23.740 C 19.642 24.517,19.125 24.846,18.237 25.142 C 17.233 25.477,16.075 25.551,15.360 25.326 C 14.302 24.993,13.486 24.069,13.247 22.933 C 13.132 22.386,13.175 20.922,13.326 20.240 C 13.811 18.049,15.107 16.328,16.920 15.465 C 17.118 15.370,17.280 15.277,17.280 15.257 C 17.280 15.237,17.129 15.090,16.945 14.930 C 16.226 14.306,15.730 13.679,15.410 12.987 C 14.853 11.780,14.654 10.392,14.851 9.079 C 14.974 8.263,15.238 7.325,15.473 6.874 C 15.840 6.168,16.623 5.519,17.272 5.382 C 18.098 5.208,19.000 5.686,19.448 6.535 C 19.699 7.011,19.751 7.334,19.722 8.246 C 19.700 8.964,19.681 9.088,19.525 9.546 C 19.431 9.825,19.245 10.233,19.112 10.453 C 18.979 10.673,18.857 10.932,18.841 11.027 C 18.816 11.177,18.840 11.227,19.019 11.395 C 19.421 11.774,19.875 11.878,20.293 11.686 C 20.668 11.515,20.997 11.107,21.312 10.426 C 21.583 9.839,21.669 9.409,21.665 8.659 C 21.659 7.387,21.382 6.474,20.640 5.284 C 20.523 5.095,20.427 4.909,20.427 4.870 C 20.427 4.730,20.720 4.805,21.222 5.073 " stroke="none" fill-rule="evenodd" fill="black"></path></svg>