<svg width="32" height="32" xmlns="http://www.w3.org/2000/svg"><path d="M14.933 0.034 C 10.237 0.384,6.020 2.671,3.211 6.391 C 1.590 8.538,0.590 10.959,0.146 13.813 C -0.017 14.858,-0.017 17.142,0.146 18.187 C 0.830 22.578,2.950 26.177,6.391 28.787 C 8.515 30.398,10.963 31.410,13.813 31.854 C 14.858 32.017,17.142 32.017,18.187 31.854 C 20.149 31.549,21.935 30.970,23.505 30.132 C 26.290 28.646,28.646 26.290,30.132 23.505 C 30.970 21.935,31.549 20.149,31.854 18.187 C 32.017 17.142,32.017 14.858,31.854 13.813 C 31.410 10.961,30.399 8.515,28.784 6.386 C 26.139 2.901,22.361 0.710,18.000 0.132 C 17.376 0.050,15.520 -0.010,14.933 0.034 M16.645 6.151 C 16.984 6.329,17.185 6.653,17.223 7.079 L 17.253 7.420 20.140 9.072 L 23.027 10.724 23.282 10.589 C 24.162 10.121,25.158 10.880,24.950 11.861 C 24.892 12.135,24.571 12.550,24.368 12.615 C 24.270 12.646,24.267 12.748,24.267 16.002 L 24.267 19.357 24.413 19.434 C 24.755 19.611,24.977 20.003,24.977 20.427 C 24.977 21.194,24.256 21.746,23.533 21.534 L 23.262 21.454 20.258 23.093 L 17.253 24.732 17.220 25.003 C 17.107 25.905,16.051 26.312,15.360 25.721 C 15.131 25.525,14.937 25.188,14.935 24.984 C 14.934 24.897,14.336 24.535,11.867 23.124 C 9.585 21.821,8.784 21.387,8.733 21.429 C 8.581 21.555,8.174 21.614,7.903 21.549 C 6.871 21.302,6.698 19.890,7.640 19.407 L 7.840 19.304 7.840 16.005 L 7.840 12.706 7.680 12.640 C 7.425 12.534,7.152 12.215,7.064 11.920 C 6.902 11.378,7.131 10.844,7.631 10.594 C 8.009 10.406,8.318 10.408,8.697 10.600 L 8.987 10.747 11.960 9.046 L 14.933 7.345 14.935 7.126 C 14.937 6.725,15.199 6.326,15.600 6.115 C 15.850 5.984,16.361 6.001,16.645 6.151 M13.893 8.684 L 12.613 9.418 12.600 12.242 L 12.586 15.067 13.096 15.373 C 13.377 15.542,13.635 15.678,13.670 15.677 C 13.705 15.675,14.021 15.500,14.373 15.288 C 14.943 14.946,15.015 14.886,15.027 14.745 C 15.061 14.364,15.109 14.226,15.268 14.044 C 15.480 13.803,15.705 13.707,16.054 13.707 C 16.590 13.707,17.003 14.080,17.054 14.612 L 17.080 14.874 17.765 15.277 C 18.142 15.499,18.465 15.680,18.483 15.680 C 18.500 15.680,18.741 15.545,19.017 15.380 L 19.520 15.080 19.520 12.267 L 19.520 9.454 18.240 8.723 L 16.960 7.993 16.613 8.164 C 16.311 8.313,16.231 8.331,15.989 8.302 C 15.818 8.282,15.612 8.207,15.452 8.108 C 15.310 8.019,15.189 7.947,15.183 7.948 C 15.178 7.949,14.597 8.280,13.893 8.684 M10.560 10.590 L 9.307 11.310 9.303 11.624 C 9.299 12.045,9.090 12.397,8.732 12.587 L 8.480 12.720 8.480 16.012 L 8.480 19.304 8.685 19.409 C 9.133 19.638,9.353 20.057,9.323 20.622 L 9.307 20.918 10.560 21.638 C 11.249 22.034,11.843 22.370,11.880 22.385 C 11.933 22.406,11.947 21.820,11.947 19.563 L 11.947 16.714 12.480 16.405 C 12.773 16.236,13.013 16.090,13.013 16.081 C 13.013 16.072,12.773 15.928,12.480 15.760 L 11.947 15.455 11.947 12.661 C 11.947 10.460,11.933 9.867,11.880 9.868 C 11.843 9.869,11.249 10.193,10.560 10.590 M20.160 12.660 L 20.160 15.453 19.681 15.730 C 19.418 15.882,19.190 16.026,19.175 16.051 C 19.160 16.075,19.363 16.223,19.627 16.379 L 20.107 16.663 20.107 19.532 C 20.107 21.109,20.125 22.400,20.147 22.400 C 20.180 22.400,22.719 21.031,22.759 20.992 C 22.766 20.985,22.744 20.847,22.710 20.685 C 22.594 20.133,22.837 19.651,23.369 19.382 L 23.627 19.252 23.627 16.006 L 23.627 12.760 23.320 12.607 C 22.897 12.395,22.693 12.068,22.693 11.600 L 22.693 11.271 21.466 10.569 C 20.791 10.183,20.221 9.867,20.199 9.867 C 20.178 9.867,20.160 11.124,20.160 12.660 M14.835 15.752 C 14.561 15.908,14.333 16.051,14.328 16.070 C 14.324 16.088,14.547 16.238,14.825 16.402 L 15.330 16.700 15.518 16.595 C 15.895 16.384,16.350 16.401,16.650 16.636 L 16.780 16.738 17.257 16.443 C 17.519 16.281,17.754 16.129,17.778 16.106 C 17.803 16.083,17.592 15.926,17.309 15.757 L 16.794 15.450 16.589 15.565 C 16.262 15.749,15.957 15.768,15.648 15.622 C 15.504 15.554,15.375 15.492,15.360 15.483 C 15.345 15.475,15.109 15.595,14.835 15.752 M13.093 16.765 L 12.613 17.048 12.600 19.924 L 12.588 22.800 13.795 23.493 C 14.459 23.875,15.019 24.193,15.038 24.201 C 15.058 24.209,15.174 24.120,15.296 24.004 C 15.742 23.580,16.434 23.571,16.866 23.985 C 17.039 24.151,16.888 24.211,18.373 23.396 L 19.493 22.782 19.507 19.928 L 19.521 17.074 19.076 16.806 C 18.831 16.658,18.591 16.521,18.542 16.502 C 18.484 16.480,18.212 16.611,17.766 16.876 L 17.080 17.284 17.055 17.548 C 16.975 18.371,15.973 18.749,15.341 18.194 C 15.184 18.056,15.074 17.808,15.042 17.523 L 15.013 17.259 14.354 16.869 C 13.992 16.655,13.668 16.480,13.634 16.481 C 13.601 16.481,13.357 16.609,13.093 16.765 " stroke="none" fill-rule="evenodd" fill="black"></path></svg>