<svg viewBox="0 0 32 32" xmlns="http://www.w3.org/2000/svg"><path d="M14.933 0.034 C 10.237 0.384,6.020 2.671,3.211 6.391 C 1.590 8.538,0.590 10.959,0.146 13.813 C -0.017 14.858,-0.017 17.142,0.146 18.187 C 0.830 22.578,2.950 26.177,6.391 28.787 C 8.515 30.398,10.963 31.410,13.813 31.854 C 14.858 32.017,17.142 32.017,18.187 31.854 C 20.149 31.549,21.935 30.970,23.505 30.132 C 26.290 28.646,28.646 26.290,30.132 23.505 C 30.970 21.935,31.549 20.149,31.854 18.187 C 32.017 17.142,32.017 14.858,31.854 13.813 C 31.410 10.961,30.399 8.515,28.784 6.386 C 26.139 2.901,22.361 0.710,18.000 0.132 C 17.376 0.050,15.520 -0.010,14.933 0.034 M12.320 10.373 L 12.320 14.720 13.040 14.720 L 13.760 14.720 13.760 12.560 L 13.760 10.400 14.747 10.400 L 15.733 10.400 15.733 12.524 C 15.733 13.693,15.747 14.663,15.764 14.680 C 15.781 14.697,15.906 14.673,16.042 14.626 C 16.559 14.450,16.613 14.364,18.636 10.453 C 19.660 8.473,20.567 6.752,20.651 6.628 C 20.734 6.504,20.916 6.324,21.055 6.228 L 21.307 6.053 22.660 6.037 C 23.807 6.024,24.009 6.033,23.985 6.097 C 23.920 6.265,19.503 14.272,19.360 14.480 C 19.139 14.801,18.658 15.224,18.349 15.369 C 18.204 15.437,18.083 15.506,18.082 15.521 C 18.081 15.536,18.206 15.593,18.360 15.648 C 18.947 15.856,19.491 16.314,19.919 16.960 C 20.112 17.252,24.480 25.913,24.480 26.004 C 24.480 26.021,23.850 26.027,23.080 26.017 C 21.737 26.001,21.670 25.995,21.426 25.875 C 21.286 25.806,21.087 25.646,20.983 25.520 C 20.871 25.382,20.063 23.780,18.977 21.538 C 17.977 19.475,17.090 17.685,17.005 17.562 C 16.743 17.179,16.277 16.907,15.887 16.907 L 15.733 16.907 15.733 18.775 L 15.733 20.642 14.760 20.628 L 13.787 20.613 13.773 18.733 L 13.759 16.853 13.040 16.853 L 12.321 16.853 12.307 21.427 L 12.293 26.000 10.907 26.000 L 9.520 26.000 9.507 16.013 L 9.493 6.027 10.907 6.027 L 12.320 6.027 12.320 10.373 " stroke="none" fill-rule="evenodd" fill="black"></path></svg>