<svg width="32" height="32" xmlns="http://www.w3.org/2000/svg"><path d="M14.933 0.034 C 10.237 0.384,6.020 2.671,3.211 6.391 C 1.590 8.538,0.590 10.959,0.146 13.813 C -0.017 14.858,-0.017 17.142,0.146 18.187 C 0.830 22.578,2.950 26.177,6.391 28.787 C 8.515 30.398,10.963 31.410,13.813 31.854 C 14.858 32.017,17.142 32.017,18.187 31.854 C 20.149 31.549,21.935 30.970,23.505 30.132 C 26.290 28.646,28.646 26.290,30.132 23.505 C 30.970 21.935,31.549 20.149,31.854 18.187 C 32.017 17.142,32.017 14.858,31.854 13.813 C 31.410 10.961,30.399 8.515,28.784 6.386 C 26.139 2.901,22.361 0.710,18.000 0.132 C 17.376 0.050,15.520 -0.010,14.933 0.034 M24.800 8.836 C 25.170 8.956,25.621 9.258,26.530 9.998 L 27.249 10.583 26.625 10.828 C 25.811 11.148,25.587 11.267,25.293 11.537 C 24.939 11.861,24.690 12.277,24.371 13.078 C 23.605 15.001,23.345 15.485,22.811 15.980 C 22.293 16.460,21.637 16.858,20.041 17.662 C 18.898 18.237,18.495 18.467,18.271 18.672 C 17.897 19.014,17.790 19.306,17.825 19.887 C 17.859 20.462,18.024 20.760,18.641 21.368 C 19.142 21.861,19.486 22.074,20.170 22.318 C 20.415 22.405,20.721 22.604,20.677 22.648 C 20.665 22.660,20.444 22.633,20.187 22.588 C 19.606 22.487,18.931 22.487,18.373 22.587 C 17.859 22.680,17.867 22.680,17.867 22.612 C 17.867 22.582,17.975 22.482,18.107 22.389 C 18.239 22.296,18.347 22.190,18.347 22.155 C 18.347 22.044,17.906 21.630,17.486 21.346 C 16.842 20.912,16.485 20.454,16.324 19.855 C 16.289 19.726,16.226 19.622,16.172 19.607 C 16.121 19.593,15.747 19.565,15.340 19.545 C 14.919 19.524,14.630 19.489,14.670 19.465 C 14.709 19.441,14.904 19.379,15.103 19.327 C 15.303 19.275,15.467 19.214,15.467 19.192 C 15.467 19.109,15.055 19.079,14.325 19.110 C 13.073 19.162,11.548 19.515,8.594 20.435 C 7.765 20.693,5.540 21.454,5.107 21.627 C 5.041 21.654,5.013 21.639,5.013 21.579 C 5.013 21.469,4.992 21.471,4.640 21.605 C 4.311 21.731,3.615 21.796,3.417 21.720 C 3.294 21.673,3.314 21.651,3.790 21.302 L 4.293 20.933 3.975 20.907 L 3.657 20.880 7.288 19.093 L 10.918 17.307 10.225 17.269 C 9.843 17.248,9.501 17.224,9.465 17.216 C 9.346 17.188,16.904 12.620,18.053 12.025 C 18.464 11.812,19.124 11.500,19.520 11.331 C 20.284 11.006,20.490 10.873,21.253 10.213 C 21.943 9.617,22.274 9.382,22.816 9.102 C 23.636 8.678,24.114 8.614,24.800 8.836 " stroke="none" fill-rule="evenodd" fill="black"></path></svg>