<svg viewBox="0 0 32 32" xmlns="http://www.w3.org/2000/svg"><path d="M14.933 0.034 C 10.237 0.384,6.020 2.671,3.211 6.391 C 1.590 8.538,0.590 10.959,0.146 13.813 C -0.017 14.858,-0.017 17.142,0.146 18.187 C 0.830 22.578,2.950 26.177,6.391 28.787 C 8.515 30.398,10.963 31.410,13.813 31.854 C 14.858 32.017,17.142 32.017,18.187 31.854 C 20.149 31.549,21.935 30.970,23.505 30.132 C 26.290 28.646,28.646 26.290,30.132 23.505 C 30.970 21.935,31.549 20.149,31.854 18.187 C 32.017 17.142,32.017 14.858,31.854 13.813 C 31.410 10.961,30.399 8.515,28.784 6.386 C 26.139 2.901,22.361 0.710,18.000 0.132 C 17.376 0.050,15.520 -0.010,14.933 0.034 M20.938 10.741 L 25.573 13.002 25.586 13.794 L 25.599 14.587 21.217 17.307 C 18.806 18.803,16.613 20.163,16.343 20.329 L 15.853 20.631 12.262 18.847 C 10.287 17.865,8.659 17.050,8.645 17.036 C 8.611 17.002,9.024 16.160,9.074 16.160 C 9.096 16.160,10.549 16.876,12.303 17.750 C 14.058 18.625,15.568 19.371,15.660 19.407 C 15.825 19.473,15.869 19.448,20.140 16.796 C 22.512 15.324,24.496 14.081,24.549 14.035 C 24.610 13.983,24.639 13.896,24.629 13.799 C 24.614 13.651,24.449 13.565,20.463 11.622 C 18.180 10.509,16.284 9.614,16.249 9.634 C 16.215 9.653,14.117 10.963,11.587 12.546 L 6.987 15.422 6.987 16.698 L 6.987 17.973 10.760 19.858 C 12.835 20.895,14.824 21.881,15.179 22.050 L 15.826 22.357 19.899 19.837 C 22.140 18.451,24.017 17.287,24.069 17.251 C 24.153 17.195,24.115 17.174,23.789 17.094 C 23.383 16.994,23.373 16.980,23.464 16.640 C 23.491 16.537,23.539 16.354,23.570 16.233 L 23.627 16.013 24.837 16.316 C 25.502 16.482,26.055 16.644,26.065 16.676 C 26.086 16.737,25.523 19.028,25.475 19.076 C 25.445 19.106,24.679 18.937,24.584 18.879 C 24.544 18.854,24.559 18.718,24.631 18.435 C 24.689 18.210,24.732 18.027,24.728 18.027 C 24.723 18.027,22.729 19.259,20.297 20.765 L 15.874 23.503 10.964 21.060 L 6.053 18.617 6.039 16.730 L 6.025 14.842 11.106 11.662 C 13.900 9.913,16.213 8.482,16.244 8.481 C 16.276 8.480,18.388 9.498,20.938 10.741 " stroke="none" fill-rule="evenodd" fill="black"></path></svg>