<svg viewBox="0 0 32 32" xmlns="http://www.w3.org/2000/svg"><path d="M14.933 0.034 C 10.237 0.384,6.020 2.671,3.211 6.391 C 1.590 8.538,0.590 10.959,0.146 13.813 C -0.017 14.858,-0.017 17.142,0.146 18.187 C 0.830 22.578,2.950 26.177,6.391 28.787 C 8.515 30.398,10.963 31.410,13.813 31.854 C 14.858 32.017,17.142 32.017,18.187 31.854 C 20.149 31.549,21.935 30.970,23.505 30.132 C 26.290 28.646,28.646 26.290,30.132 23.505 C 30.970 21.935,31.549 20.149,31.854 18.187 C 32.017 17.142,32.017 14.858,31.854 13.813 C 31.410 10.961,30.399 8.515,28.784 6.386 C 26.139 2.901,22.361 0.710,18.000 0.132 C 17.376 0.050,15.520 -0.010,14.933 0.034 M18.507 10.582 L 18.533 13.627 22.746 13.653 L 26.958 13.680 25.713 14.960 L 24.468 16.240 20.261 16.267 L 16.053 16.293 19.010 19.307 L 21.967 22.320 21.970 24.159 L 21.973 25.998 20.203 24.186 C 19.230 23.189,17.886 21.821,17.217 21.147 L 16.000 19.920 14.546 21.387 C 13.746 22.193,12.402 23.553,11.559 24.407 L 10.027 25.961 10.028 24.141 L 10.029 22.320 13.014 19.280 L 15.998 16.240 15.999 10.619 L 16.000 4.999 17.240 6.268 L 18.480 7.537 18.507 10.582 M14.702 14.906 C 15.372 15.595,15.928 16.183,15.938 16.213 C 15.950 16.249,14.568 16.267,11.758 16.267 L 7.560 16.267 6.412 15.091 C 5.781 14.444,5.218 13.856,5.162 13.784 L 5.059 13.653 9.272 13.653 L 13.485 13.653 14.702 14.906 " stroke="none" fill-rule="evenodd" fill="black"></path></svg>