<svg width="32" height="32" xmlns="http://www.w3.org/2000/svg"><path d="M14.933 0.034 C 10.237 0.384,6.020 2.671,3.211 6.391 C 1.590 8.538,0.590 10.959,0.146 13.813 C -0.017 14.858,-0.017 17.142,0.146 18.187 C 0.830 22.578,2.950 26.177,6.391 28.787 C 8.515 30.398,10.963 31.410,13.813 31.854 C 14.858 32.017,17.142 32.017,18.187 31.854 C 20.149 31.549,21.935 30.970,23.505 30.132 C 26.290 28.646,28.646 26.290,30.132 23.505 C 30.970 21.935,31.549 20.149,31.854 18.187 C 32.017 17.142,32.017 14.858,31.854 13.813 C 31.410 10.961,30.399 8.515,28.784 6.386 C 26.139 2.901,22.361 0.710,18.000 0.132 C 17.376 0.050,15.520 -0.010,14.933 0.034 M18.333 8.067 C 18.266 8.242,16.849 14.094,16.864 14.135 C 16.873 14.160,17.167 14.062,17.517 13.917 C 17.868 13.772,18.171 13.653,18.191 13.653 C 18.237 13.653,17.572 16.316,17.511 16.375 C 17.487 16.399,17.179 16.532,16.827 16.670 C 16.475 16.809,16.170 16.937,16.150 16.955 C 16.113 16.986,15.307 20.251,15.307 20.367 C 15.307 20.410,16.351 20.427,19.147 20.427 C 21.259 20.427,22.987 20.438,22.987 20.452 C 22.987 20.466,22.793 21.270,22.556 22.239 L 22.124 24.000 15.702 24.000 C 11.376 24.000,9.280 23.982,9.280 23.946 C 9.280 23.916,9.534 22.858,9.844 21.595 C 10.155 20.331,10.396 19.285,10.381 19.270 C 10.366 19.254,10.062 19.355,9.707 19.493 C 9.351 19.632,9.051 19.736,9.040 19.725 C 9.004 19.689,9.666 17.095,9.727 17.031 C 9.760 16.996,10.075 16.855,10.427 16.716 C 10.779 16.578,11.084 16.450,11.105 16.432 C 11.125 16.414,11.600 14.539,12.159 12.266 C 12.719 9.993,13.187 8.103,13.200 8.067 C 13.218 8.015,13.785 8.000,15.791 8.000 C 17.823 8.000,18.353 8.014,18.333 8.067 " stroke="none" fill-rule="evenodd" fill="black"></path></svg>