<svg width="32" height="32" xmlns="http://www.w3.org/2000/svg"><path d="M14.933 0.034 C 10.237 0.384,6.020 2.671,3.211 6.391 C 1.590 8.538,0.590 10.959,0.146 13.813 C -0.017 14.858,-0.017 17.142,0.146 18.187 C 0.830 22.578,2.950 26.177,6.391 28.787 C 8.515 30.398,10.963 31.410,13.813 31.854 C 14.858 32.017,17.142 32.017,18.187 31.854 C 20.149 31.549,21.935 30.970,23.505 30.132 C 26.290 28.646,28.646 26.290,30.132 23.505 C 30.970 21.935,31.549 20.149,31.854 18.187 C 32.017 17.142,32.017 14.858,31.854 13.813 C 31.410 10.961,30.399 8.515,28.784 6.386 C 26.139 2.901,22.361 0.710,18.000 0.132 C 17.376 0.050,15.520 -0.010,14.933 0.034 M20.245 8.327 C 22.501 9.592,24.401 10.676,24.467 10.736 C 24.646 10.899,24.624 11.114,24.413 11.270 C 24.318 11.340,22.676 12.279,20.764 13.355 L 17.288 15.312 17.016 15.117 C 16.866 15.009,16.642 14.891,16.519 14.855 L 16.293 14.788 16.279 13.698 L 16.265 12.607 16.565 12.512 C 17.158 12.325,17.653 11.643,17.653 11.013 C 17.653 10.696,17.480 10.253,17.252 9.986 C 17.148 9.865,16.919 9.695,16.737 9.604 C 16.457 9.464,16.350 9.440,16.000 9.440 C 15.650 9.440,15.543 9.464,15.265 9.602 C 14.680 9.895,14.377 10.374,14.375 11.013 C 14.374 11.316,14.402 11.444,14.523 11.691 C 14.706 12.063,15.064 12.391,15.418 12.508 L 15.680 12.595 15.680 13.705 L 15.680 14.815 15.501 14.848 C 15.402 14.867,15.186 14.979,15.021 15.097 L 14.721 15.312 11.187 13.329 C 9.244 12.239,7.599 11.298,7.533 11.237 C 7.398 11.114,7.379 10.947,7.484 10.803 C 7.606 10.637,15.792 6.039,15.978 6.032 C 16.103 6.028,17.152 6.592,20.245 8.327 M10.984 13.797 L 14.454 15.753 14.414 15.943 C 14.369 16.153,14.364 16.529,14.402 16.768 C 14.426 16.919,14.403 16.936,13.477 17.455 L 12.526 17.988 12.330 17.799 C 11.999 17.480,11.713 17.363,11.210 17.341 C 10.800 17.324,10.740 17.335,10.425 17.490 C 9.838 17.779,9.519 18.292,9.523 18.938 C 9.532 20.147,10.912 20.906,11.981 20.289 C 12.513 19.983,12.828 19.399,12.791 18.789 L 12.773 18.492 13.759 17.940 L 14.744 17.389 14.911 17.551 C 15.002 17.639,15.219 17.770,15.392 17.840 L 15.707 17.968 15.687 21.877 C 15.669 25.546,15.662 25.793,15.573 25.887 C 15.520 25.942,15.417 25.987,15.345 25.987 C 15.175 25.987,7.270 21.540,7.101 21.349 L 6.975 21.207 6.995 16.635 C 7.014 12.239,7.018 12.059,7.116 11.952 C 7.172 11.889,7.282 11.840,7.365 11.840 C 7.461 11.840,8.727 12.524,10.984 13.797 M24.881 11.948 C 24.973 12.049,24.979 12.296,25.003 16.638 L 25.028 21.220 24.874 21.371 C 24.725 21.517,16.944 25.925,16.712 25.996 C 16.632 26.020,16.556 25.993,16.463 25.909 L 16.329 25.787 16.311 21.877 L 16.293 17.968 16.608 17.840 C 16.781 17.770,16.999 17.638,17.092 17.548 L 17.261 17.385 18.240 17.935 L 19.220 18.486 19.223 18.883 C 19.226 19.205,19.255 19.337,19.376 19.585 C 19.976 20.806,21.730 20.806,22.330 19.585 C 22.452 19.337,22.480 19.210,22.479 18.907 C 22.476 18.268,22.174 17.788,21.588 17.496 C 21.311 17.357,21.203 17.333,20.858 17.334 C 20.386 17.334,20.040 17.468,19.688 17.786 L 19.470 17.982 18.522 17.449 C 17.660 16.965,17.576 16.905,17.599 16.792 C 17.631 16.638,17.630 16.140,17.598 15.909 L 17.573 15.739 21.013 13.793 C 23.393 12.448,24.504 11.847,24.618 11.844 C 24.720 11.841,24.821 11.881,24.881 11.948 " stroke="none" fill-rule="evenodd" fill="black"></path></svg>