<svg width="32" height="32" xmlns="http://www.w3.org/2000/svg"><path d="M14.933 0.034 C 10.237 0.384,6.020 2.671,3.211 6.391 C 1.590 8.538,0.590 10.959,0.146 13.813 C -0.017 14.858,-0.017 17.142,0.146 18.187 C 0.830 22.578,2.950 26.177,6.391 28.787 C 8.515 30.398,10.963 31.410,13.813 31.854 C 14.858 32.017,17.142 32.017,18.187 31.854 C 20.149 31.549,21.935 30.970,23.505 30.132 C 26.290 28.646,28.646 26.290,30.132 23.505 C 30.970 21.935,31.549 20.149,31.854 18.187 C 32.017 17.142,32.017 14.858,31.854 13.813 C 31.410 10.961,30.399 8.515,28.784 6.386 C 26.139 2.901,22.361 0.710,18.000 0.132 C 17.376 0.050,15.520 -0.010,14.933 0.034 M17.760 5.144 C 19.992 5.521,21.987 6.519,23.609 8.070 C 25.325 9.710,26.443 11.839,26.863 14.267 C 26.993 15.017,26.993 16.983,26.863 17.733 C 26.652 18.954,26.272 20.085,25.731 21.109 C 25.425 21.688,24.867 22.560,24.802 22.560 C 24.781 22.560,23.644 21.216,22.275 19.573 C 20.906 17.931,19.768 16.588,19.746 16.590 C 19.725 16.591,19.411 16.951,19.049 17.390 C 18.687 17.828,18.375 18.185,18.356 18.184 C 18.336 18.182,17.084 16.694,15.574 14.877 C 14.063 13.060,12.811 11.573,12.791 11.573 C 12.772 11.573,11.191 13.451,9.279 15.747 C 7.366 18.042,5.783 19.927,5.761 19.936 C 5.668 19.971,5.257 18.473,5.111 17.573 C 5.003 16.907,5.019 14.985,5.138 14.273 C 5.784 10.415,8.278 7.290,11.908 5.790 C 12.719 5.455,13.831 5.186,14.987 5.046 C 15.402 4.996,17.273 5.062,17.760 5.144 M12.400 7.479 C 12.312 7.510,12.139 7.605,12.015 7.690 C 11.341 8.149,11.281 9.227,11.899 9.785 C 12.181 10.040,12.448 10.143,12.836 10.145 C 13.250 10.147,13.575 9.999,13.857 9.679 C 14.489 8.961,14.186 7.801,13.287 7.495 C 13.014 7.402,12.635 7.395,12.400 7.479 M19.376 9.446 C 18.120 9.653,17.192 10.678,17.086 11.973 C 17.026 12.709,17.299 13.445,17.846 14.025 C 18.378 14.589,19.030 14.880,19.764 14.880 C 21.057 14.880,22.207 13.850,22.406 12.514 C 22.594 11.245,21.791 9.959,20.560 9.557 C 20.159 9.427,19.735 9.387,19.376 9.446 M15.286 15.814 C 16.603 17.399,17.712 18.735,17.751 18.784 C 17.813 18.863,17.677 19.046,16.616 20.317 L 15.411 21.760 11.015 21.760 L 6.619 21.760 6.366 21.295 C 6.226 21.040,6.034 20.650,5.938 20.429 L 5.763 20.027 9.281 20.013 L 12.800 19.999 12.800 16.416 C 12.800 14.419,12.820 12.854,12.846 12.883 C 12.871 12.911,13.969 14.230,15.286 15.814 M21.785 20.267 L 23.736 22.613 24.242 22.613 C 24.519 22.613,24.747 22.628,24.747 22.646 C 24.747 22.718,24.035 23.524,23.608 23.933 L 23.149 24.373 16.001 24.373 L 8.852 24.373 8.425 23.965 C 8.015 23.574,7.253 22.716,7.253 22.647 C 7.253 22.629,10.067 22.608,13.507 22.600 L 19.760 22.587 19.774 20.253 C 19.782 18.970,19.798 17.920,19.811 17.920 C 19.823 17.920,20.712 18.976,21.785 20.267 M21.683 25.418 C 18.213 27.510,13.787 27.510,10.317 25.418 L 10.000 25.227 16.000 25.227 L 22.000 25.227 21.683 25.418 " stroke="none" fill-rule="evenodd" fill="black"></path></svg>