<svg width="32" height="32" xmlns="http://www.w3.org/2000/svg"><path d="M14.933 0.034 C 10.237 0.384,6.020 2.671,3.211 6.391 C 1.590 8.538,0.590 10.959,0.146 13.813 C -0.017 14.858,-0.017 17.142,0.146 18.187 C 0.830 22.578,2.950 26.177,6.391 28.787 C 8.515 30.398,10.963 31.410,13.813 31.854 C 14.858 32.017,17.142 32.017,18.187 31.854 C 20.149 31.549,21.935 30.970,23.505 30.132 C 26.290 28.646,28.646 26.290,30.132 23.505 C 30.970 21.935,31.549 20.149,31.854 18.187 C 32.017 17.142,32.017 14.858,31.854 13.813 C 31.410 10.961,30.399 8.515,28.784 6.386 C 26.139 2.901,22.361 0.710,18.000 0.132 C 17.376 0.050,15.520 -0.010,14.933 0.034 M23.679 8.151 C 24.026 8.498,24.025 9.284,23.679 9.655 L 23.531 9.813 20.645 9.813 L 17.760 9.813 17.760 10.907 L 17.760 12.000 19.945 12.000 C 22.399 12.000,22.392 11.999,22.949 12.389 C 23.265 12.610,23.530 12.926,23.719 13.307 C 23.970 13.810,23.973 13.878,23.973 17.920 C 23.973 21.470,23.967 21.755,23.875 22.053 C 23.641 22.818,23.198 23.360,22.636 23.570 C 22.171 23.744,21.679 23.795,20.614 23.777 L 19.618 23.760 19.439 23.564 C 19.019 23.105,19.093 22.327,19.586 22.026 C 19.741 21.932,19.856 21.920,20.619 21.920 C 21.747 21.920,21.971 21.840,22.193 21.360 C 22.285 21.160,22.291 20.944,22.292 17.947 C 22.292 15.906,22.273 14.675,22.238 14.548 C 22.171 14.309,21.967 14.055,21.740 13.931 C 21.593 13.851,21.347 13.838,19.667 13.824 L 17.760 13.807 17.760 19.162 L 17.760 24.518 17.638 24.698 C 17.470 24.948,17.314 25.012,16.867 25.013 L 16.480 25.013 16.480 19.413 L 16.480 13.813 16.027 13.813 L 15.573 13.813 15.573 19.413 L 15.573 25.013 15.187 25.013 C 14.714 25.013,14.465 24.904,14.333 24.640 C 14.247 24.466,14.240 24.091,14.240 19.130 L 14.240 13.807 12.360 13.824 L 10.480 13.840 10.240 13.973 C 10.063 14.072,9.965 14.176,9.867 14.373 L 9.733 14.640 9.718 17.787 C 9.701 21.065,9.712 21.254,9.927 21.557 C 10.139 21.855,10.281 21.890,11.371 21.920 L 12.368 21.947 12.558 22.131 C 12.872 22.436,12.945 22.943,12.733 23.362 C 12.526 23.773,12.433 23.796,11.067 23.771 C 10.075 23.753,9.843 23.733,9.568 23.643 C 8.812 23.395,8.378 22.897,8.130 21.997 C 8.053 21.716,8.044 21.248,8.052 17.877 C 8.062 13.714,8.057 13.774,8.382 13.166 C 8.580 12.794,8.997 12.386,9.391 12.179 L 9.680 12.027 11.960 12.011 L 14.240 11.996 14.240 10.905 L 14.240 9.813 11.329 9.813 L 8.418 9.813 8.268 9.662 C 7.915 9.310,7.915 8.504,8.268 8.151 L 8.418 8.000 15.973 8.000 L 23.528 8.000 23.679 8.151 M15.573 10.933 L 15.573 12.053 16.027 12.053 L 16.480 12.053 16.480 10.933 L 16.480 9.813 16.027 9.813 L 15.573 9.813 15.573 10.933 " stroke="none" fill-rule="evenodd" fill="black"></path></svg>