<svg viewBox="0 0 32 32" xmlns="http://www.w3.org/2000/svg"><path d="M14.933 0.034 C 10.237 0.384,6.020 2.671,3.211 6.391 C 1.590 8.538,0.590 10.959,0.146 13.813 C -0.017 14.858,-0.017 17.142,0.146 18.187 C 0.830 22.578,2.950 26.177,6.391 28.787 C 8.515 30.398,10.963 31.410,13.813 31.854 C 14.858 32.017,17.142 32.017,18.187 31.854 C 20.149 31.549,21.935 30.970,23.505 30.132 C 26.290 28.646,28.646 26.290,30.132 23.505 C 30.970 21.935,31.549 20.149,31.854 18.187 C 32.017 17.142,32.017 14.858,31.854 13.813 C 31.410 10.961,30.399 8.515,28.784 6.386 C 26.139 2.901,22.361 0.710,18.000 0.132 C 17.376 0.050,15.520 -0.010,14.933 0.034 M20.720 7.750 L 25.467 10.485 25.478 16.002 L 25.489 21.520 20.741 24.261 C 16.059 26.964,15.990 27.001,15.838 26.928 C 15.754 26.887,13.621 25.653,11.098 24.187 L 6.511 21.520 6.522 16.003 L 6.533 10.485 11.227 7.750 C 13.808 6.246,15.932 5.015,15.947 5.015 C 15.961 5.015,18.109 6.246,20.720 7.750 M11.693 8.631 L 7.520 11.066 7.520 16.003 L 7.520 20.939 11.712 23.381 C 14.164 24.809,15.941 25.813,15.992 25.798 C 16.040 25.785,17.976 24.682,20.293 23.347 L 24.507 20.921 24.507 16.003 L 24.507 11.085 20.960 9.032 C 16.802 6.625,16.023 6.185,15.933 6.191 C 15.897 6.193,13.989 7.291,11.693 8.631 M20.096 11.640 C 20.338 12.674,20.535 13.538,20.534 13.560 C 20.533 13.614,11.360 13.612,11.360 13.558 C 11.360 13.504,12.155 9.916,12.186 9.827 C 12.205 9.774,13.003 9.760,15.934 9.760 L 19.657 9.760 20.096 11.640 M18.333 14.253 C 18.319 14.290,18.140 14.776,17.934 15.333 L 17.561 16.347 17.679 17.493 C 17.744 18.124,17.788 18.658,17.776 18.680 C 17.764 18.702,16.941 18.720,15.947 18.720 C 14.953 18.720,14.130 18.702,14.119 18.680 C 14.107 18.658,14.154 18.118,14.223 17.480 L 14.348 16.321 13.947 15.272 C 13.727 14.696,13.547 14.216,13.547 14.205 C 13.547 14.195,14.629 14.187,15.952 14.187 C 17.855 14.187,18.353 14.201,18.333 14.253 M21.857 15.855 C 22.508 16.347,23.040 16.762,23.040 16.775 C 23.040 16.789,22.279 18.132,21.349 19.760 L 19.657 22.720 18.989 22.718 L 18.320 22.715 17.507 21.960 L 16.693 21.205 16.693 20.843 L 16.693 20.482 17.547 19.647 L 18.400 18.812 18.400 17.552 L 18.401 16.293 19.477 15.590 C 20.073 15.200,20.580 14.902,20.614 14.923 C 20.647 14.943,21.206 15.363,21.857 15.855 M12.430 15.613 L 13.493 16.292 13.493 17.554 L 13.493 18.816 14.347 19.642 L 15.200 20.468 15.200 20.840 L 15.200 21.213 14.393 21.968 L 13.585 22.723 12.895 22.708 L 12.206 22.693 10.526 19.764 C 9.603 18.152,8.842 16.816,8.837 16.795 C 8.823 16.743,11.208 14.942,11.296 14.937 C 11.335 14.935,11.845 15.239,12.430 15.613 " stroke="none" fill-rule="evenodd" fill="black"></path></svg>