<svg width="32" height="32" xmlns="http://www.w3.org/2000/svg"><path d="M14.933 0.034 C 10.237 0.384,6.020 2.671,3.211 6.391 C 1.590 8.538,0.590 10.959,0.146 13.813 C -0.017 14.858,-0.017 17.142,0.146 18.187 C 0.830 22.578,2.950 26.177,6.391 28.787 C 8.515 30.398,10.963 31.410,13.813 31.854 C 14.858 32.017,17.142 32.017,18.187 31.854 C 20.149 31.549,21.935 30.970,23.505 30.132 C 26.290 28.646,28.646 26.290,30.132 23.505 C 30.970 21.935,31.549 20.149,31.854 18.187 C 32.017 17.142,32.017 14.858,31.854 13.813 C 31.410 10.961,30.399 8.515,28.784 6.386 C 26.139 2.901,22.361 0.710,18.000 0.132 C 17.376 0.050,15.520 -0.010,14.933 0.034 M14.659 6.162 C 14.984 6.435,14.998 6.914,14.690 7.203 C 14.575 7.311,14.497 7.333,14.237 7.333 C 13.955 7.333,13.904 7.316,13.755 7.166 C 13.530 6.941,13.485 6.593,13.646 6.332 C 13.785 6.107,13.929 6.035,14.249 6.030 C 14.442 6.027,14.535 6.058,14.659 6.162 M18.295 6.108 C 18.675 6.304,18.720 6.873,18.379 7.185 C 18.224 7.327,18.144 7.360,17.955 7.360 C 17.642 7.360,17.383 7.183,17.285 6.902 C 17.189 6.625,17.238 6.431,17.464 6.205 C 17.615 6.054,17.681 6.027,17.891 6.027 C 18.027 6.027,18.209 6.063,18.295 6.108 M14.565 9.341 C 15.038 9.499,15.329 9.904,15.326 10.400 C 15.323 10.735,15.232 10.940,14.978 11.183 C 14.757 11.395,14.571 11.467,14.250 11.465 C 12.998 11.460,12.762 9.695,13.965 9.332 C 14.172 9.269,14.360 9.272,14.565 9.341 M18.257 9.337 C 18.369 9.368,18.554 9.478,18.667 9.580 C 19.233 10.091,19.124 10.988,18.453 11.347 C 18.257 11.452,18.154 11.471,17.886 11.455 C 17.452 11.429,17.183 11.254,16.993 10.873 C 16.770 10.426,16.830 10.002,17.164 9.644 C 17.463 9.326,17.838 9.221,18.257 9.337 M14.731 12.670 C 15.057 12.781,15.356 13.047,15.547 13.394 C 15.681 13.640,15.703 13.736,15.702 14.080 C 15.701 14.407,15.675 14.530,15.559 14.754 C 14.993 15.850,13.416 15.848,12.880 14.750 C 12.768 14.522,12.739 14.387,12.740 14.090 C 12.742 13.459,13.007 13.025,13.557 12.750 C 13.936 12.561,14.332 12.534,14.731 12.670 M18.590 12.734 C 18.829 12.857,19.141 13.176,19.290 13.450 C 19.435 13.718,19.424 14.461,19.271 14.747 C 18.993 15.262,18.488 15.571,17.920 15.572 C 17.309 15.573,16.815 15.250,16.547 14.674 C 16.433 14.429,16.417 14.333,16.438 14.007 C 16.466 13.577,16.565 13.345,16.846 13.049 C 17.184 12.692,17.471 12.582,18.000 12.606 C 18.246 12.617,18.447 12.661,18.590 12.734 M10.869 13.115 C 11.769 13.576,11.609 14.908,10.626 15.144 C 9.464 15.422,8.789 13.811,9.800 13.171 C 10.106 12.976,10.553 12.953,10.869 13.115 M22.200 13.171 C 23.211 13.811,22.536 15.422,21.374 15.144 C 20.712 14.985,20.350 14.243,20.634 13.627 C 20.820 13.224,21.154 13.019,21.630 13.015 C 21.898 13.014,21.995 13.040,22.200 13.171 M7.055 13.501 C 7.207 13.583,7.360 13.875,7.360 14.085 C 7.360 14.356,7.166 14.623,6.902 14.715 C 6.625 14.811,6.431 14.762,6.205 14.536 C 6.051 14.381,6.027 14.322,6.027 14.093 C 6.027 13.547,6.564 13.238,7.055 13.501 M25.566 13.460 C 25.840 13.574,25.973 13.782,25.973 14.093 C 25.973 14.322,25.949 14.381,25.795 14.536 C 25.569 14.762,25.375 14.811,25.098 14.715 C 24.515 14.512,24.495 13.654,25.069 13.456 C 25.311 13.373,25.358 13.373,25.566 13.460 M14.854 16.421 C 15.379 16.654,15.701 17.173,15.700 17.787 C 15.698 18.234,15.608 18.467,15.308 18.792 C 15.005 19.121,14.675 19.270,14.240 19.274 C 12.742 19.287,12.175 17.405,13.410 16.518 C 13.770 16.259,14.393 16.218,14.854 16.421 M18.559 16.426 C 19.087 16.695,19.369 17.127,19.404 17.716 C 19.440 18.321,19.123 18.860,18.575 19.128 C 18.338 19.244,18.199 19.275,17.924 19.274 C 17.311 19.272,16.865 18.994,16.590 18.443 C 16.156 17.576,16.624 16.564,17.573 16.314 C 17.819 16.249,18.324 16.306,18.559 16.426 M10.885 16.817 C 11.347 17.061,11.582 17.650,11.416 18.151 C 11.283 18.554,10.799 18.882,10.340 18.879 C 9.812 18.875,9.281 18.328,9.281 17.787 C 9.281 16.999,10.189 16.450,10.885 16.817 M22.054 16.793 C 22.427 16.962,22.719 17.399,22.719 17.787 C 22.719 18.009,22.601 18.303,22.438 18.490 C 22.007 18.980,21.311 19.005,20.853 18.547 C 20.599 18.293,20.514 18.050,20.545 17.672 C 20.606 16.940,21.382 16.487,22.054 16.793 M7.042 17.210 C 7.269 17.344,7.382 17.591,7.345 17.872 C 7.281 18.343,6.777 18.596,6.345 18.372 C 5.929 18.157,5.922 17.427,6.334 17.203 C 6.530 17.097,6.856 17.100,7.042 17.210 M25.655 17.201 C 25.847 17.300,25.973 17.532,25.973 17.787 C 25.973 18.192,25.703 18.453,25.282 18.453 C 24.818 18.453,24.491 17.886,24.715 17.470 C 24.890 17.144,25.312 17.023,25.655 17.201 M14.792 20.547 C 15.283 20.818,15.481 21.472,15.224 21.973 C 15.129 22.159,14.829 22.436,14.650 22.503 C 14.422 22.589,14.025 22.569,13.784 22.460 C 13.366 22.270,13.143 21.860,13.185 21.357 C 13.249 20.576,14.084 20.156,14.792 20.547 M18.257 20.431 C 18.369 20.462,18.554 20.571,18.667 20.674 C 19.233 21.184,19.124 22.082,18.453 22.440 C 18.257 22.545,18.154 22.565,17.886 22.549 C 17.452 22.523,17.183 22.347,16.993 21.966 C 16.770 21.519,16.830 21.095,17.164 20.738 C 17.463 20.419,17.838 20.314,18.257 20.431 M14.558 24.727 C 14.875 24.914,14.976 25.362,14.776 25.690 C 14.651 25.895,14.515 25.974,14.272 25.983 C 13.825 26.000,13.512 25.676,13.561 25.246 C 13.616 24.755,14.142 24.481,14.558 24.727 M18.299 24.762 C 18.413 24.839,18.505 24.961,18.549 25.092 C 18.782 25.799,17.892 26.319,17.417 25.754 C 17.232 25.534,17.196 25.355,17.285 25.098 C 17.432 24.677,17.928 24.512,18.299 24.762 " stroke="none" fill-rule="evenodd" fill="black"></path></svg>