<svg width="32" height="32" xmlns="http://www.w3.org/2000/svg"><path d="M14.933 0.034 C 10.237 0.384,6.020 2.671,3.211 6.391 C 1.590 8.538,0.590 10.959,0.146 13.813 C -0.017 14.858,-0.017 17.142,0.146 18.187 C 0.830 22.578,2.950 26.177,6.391 28.787 C 8.515 30.398,10.963 31.410,13.813 31.854 C 14.858 32.017,17.142 32.017,18.187 31.854 C 20.149 31.549,21.935 30.970,23.505 30.132 C 26.290 28.646,28.646 26.290,30.132 23.505 C 30.970 21.935,31.549 20.149,31.854 18.187 C 32.017 17.142,32.017 14.858,31.854 13.813 C 31.410 10.961,30.399 8.515,28.784 6.386 C 26.139 2.901,22.361 0.710,18.000 0.132 C 17.376 0.050,15.520 -0.010,14.933 0.034 M18.363 7.435 C 20.324 8.626,20.626 8.826,20.546 8.881 C 20.249 9.086,18.387 10.187,18.339 10.187 C 18.307 10.187,17.777 9.887,17.161 9.520 C 16.545 9.153,16.022 8.853,16.000 8.853 C 15.978 8.853,15.455 9.153,14.839 9.520 C 14.223 9.887,13.693 10.187,13.662 10.187 C 13.589 10.187,11.354 8.841,11.382 8.814 C 11.493 8.703,15.941 6.037,16.004 6.044 C 16.050 6.049,17.111 6.675,18.363 7.435 M20.000 14.468 L 24.000 12.065 23.998 16.526 L 23.997 20.987 22.745 21.716 L 21.493 22.445 21.493 19.484 C 21.493 17.007,21.481 16.526,21.421 16.550 C 21.381 16.565,20.144 17.298,18.673 18.179 L 15.998 19.781 13.338 18.184 C 11.875 17.306,10.639 16.573,10.592 16.555 C 10.514 16.525,10.507 16.785,10.507 19.461 C 10.507 21.077,10.491 22.400,10.473 22.400 C 10.454 22.400,9.891 22.082,9.221 21.693 L 8.003 20.987 8.001 16.526 L 8.000 12.066 12.000 14.468 L 16.000 16.871 20.000 14.468 M14.783 22.433 C 15.350 22.774,15.866 23.078,15.931 23.107 C 16.032 23.154,16.210 23.066,17.198 22.482 C 17.830 22.108,18.380 21.815,18.421 21.830 C 18.461 21.846,18.979 22.151,19.571 22.509 C 20.443 23.036,20.635 23.173,20.578 23.226 C 20.493 23.304,16.204 25.906,16.085 25.952 C 16.032 25.972,15.174 25.484,13.774 24.637 C 12.549 23.897,11.515 23.262,11.477 23.227 C 11.422 23.177,11.637 23.025,12.517 22.490 C 13.127 22.120,13.655 21.816,13.690 21.815 C 13.725 21.814,14.217 22.092,14.783 22.433 " stroke="none" fill-rule="evenodd" fill="black"></path></svg>