<svg width="32" height="32" xmlns="http://www.w3.org/2000/svg"><path d="M14.933 0.034 C 10.237 0.384,6.020 2.671,3.211 6.391 C 1.590 8.538,0.590 10.959,0.146 13.813 C -0.017 14.858,-0.017 17.142,0.146 18.187 C 0.830 22.578,2.950 26.177,6.391 28.787 C 8.515 30.398,10.963 31.410,13.813 31.854 C 14.858 32.017,17.142 32.017,18.187 31.854 C 20.149 31.549,21.935 30.970,23.505 30.132 C 26.290 28.646,28.646 26.290,30.132 23.505 C 30.970 21.935,31.549 20.149,31.854 18.187 C 32.017 17.142,32.017 14.858,31.854 13.813 C 31.410 10.961,30.399 8.515,28.784 6.386 C 26.139 2.901,22.361 0.710,18.000 0.132 C 17.376 0.050,15.520 -0.010,14.933 0.034 M13.254 11.360 C 15.096 13.252,16.866 15.067,17.188 15.394 L 17.773 15.988 13.519 20.354 C 11.180 22.755,9.209 24.779,9.139 24.852 L 9.013 24.984 9.013 15.999 L 9.013 7.014 9.459 7.467 C 9.704 7.716,11.412 9.468,13.254 11.360 " stroke="none" fill-rule="evenodd" fill="black"></path></svg>