<svg viewBox="0 0 32 32" xmlns="http://www.w3.org/2000/svg"><path d="M14.640 0.056 C 10.826 0.406,7.356 2.024,4.693 4.692 C 0.705 8.689,-0.878 14.401,0.483 19.884 C 0.894 21.537,1.609 23.185,2.576 24.708 L 2.843 25.129 3.060 24.871 C 5.247 22.274,10.464 21.603,14.007 23.464 L 14.601 23.775 14.698 23.208 C 14.751 22.895,15.662 17.612,16.722 11.467 C 17.781 5.321,18.634 0.277,18.617 0.257 C 18.482 0.096,15.720 -0.043,14.640 0.056 M27.284 4.827 C 27.789 6.041,28.188 7.406,28.354 8.482 C 28.481 9.309,28.480 10.811,28.351 11.547 C 28.209 12.360,27.722 13.715,27.529 13.834 C 27.503 13.850,27.415 13.690,27.333 13.478 C 26.428 11.145,24.800 9.375,22.533 8.263 C 21.895 7.950,20.810 7.560,20.394 7.494 C 20.179 7.460,20.175 7.463,20.145 7.637 C 20.129 7.734,19.574 10.741,18.913 14.320 C 17.269 23.213,16.711 26.288,16.637 26.853 C 16.534 27.645,16.484 27.858,16.316 28.214 C 15.732 29.448,14.494 30.399,12.711 30.982 C 12.364 31.096,11.936 31.219,11.760 31.256 L 11.440 31.323 11.760 31.422 C 12.206 31.561,13.518 31.821,14.187 31.904 C 15.097 32.017,17.307 31.989,18.187 31.853 C 21.800 31.296,24.826 29.788,27.307 27.307 C 29.788 24.826,31.291 21.812,31.854 18.187 C 32.007 17.205,32.018 14.915,31.875 13.947 C 31.618 12.216,31.180 10.719,30.492 9.227 C 29.832 7.795,28.709 6.156,27.640 5.067 C 27.220 4.638,27.200 4.625,27.284 4.827 " stroke="none" fill-rule="evenodd" fill="black"></path></svg>