<svg viewBox="0 0 32 32" xmlns="http://www.w3.org/2000/svg"><path d="M14.933 0.034 C 10.237 0.384,6.020 2.671,3.211 6.391 C 1.590 8.538,0.590 10.959,0.146 13.813 C -0.017 14.858,-0.017 17.142,0.146 18.187 C 0.830 22.578,2.950 26.177,6.391 28.787 C 8.515 30.398,10.963 31.410,13.813 31.854 C 14.858 32.017,17.142 32.017,18.187 31.854 C 20.149 31.549,21.935 30.970,23.505 30.132 C 26.290 28.646,28.646 26.290,30.132 23.505 C 30.970 21.935,31.549 20.149,31.854 18.187 C 32.017 17.142,32.017 14.858,31.854 13.813 C 31.410 10.961,30.399 8.515,28.784 6.386 C 26.139 2.901,22.361 0.710,18.000 0.132 C 17.376 0.050,15.520 -0.010,14.933 0.034 M16.767 13.606 C 17.826 15.561,18.717 17.166,18.747 17.174 C 18.776 17.181,19.561 15.582,20.490 13.620 L 22.181 10.053 24.586 10.039 C 26.867 10.026,26.988 10.030,26.942 10.119 C 26.915 10.171,25.651 12.841,24.133 16.053 C 22.614 19.265,21.348 21.924,21.319 21.961 C 21.278 22.013,20.752 22.025,18.896 22.014 L 16.527 22.000 14.675 18.587 C 13.657 16.709,12.803 15.140,12.778 15.100 C 12.739 15.037,12.726 15.038,12.690 15.101 C 12.668 15.141,12.032 16.650,11.278 18.454 C 10.525 20.258,9.874 21.799,9.833 21.880 L 9.757 22.027 7.380 22.027 C 5.138 22.027,5.004 22.021,5.036 21.933 C 5.055 21.882,6.180 19.182,7.535 15.934 L 10.000 10.028 12.420 10.041 L 14.841 10.053 16.767 13.606 " stroke="none" fill-rule="evenodd" fill="black"></path></svg>