<svg width="32" height="32" xmlns="http://www.w3.org/2000/svg"><path d="M14.933 0.034 C 10.237 0.384,6.020 2.671,3.211 6.391 C 1.590 8.538,0.590 10.959,0.146 13.813 C -0.017 14.858,-0.017 17.142,0.146 18.187 C 0.830 22.578,2.950 26.177,6.391 28.787 C 8.515 30.398,10.963 31.410,13.813 31.854 C 14.858 32.017,17.142 32.017,18.187 31.854 C 20.149 31.549,21.935 30.970,23.505 30.132 C 26.290 28.646,28.646 26.290,30.132 23.505 C 30.970 21.935,31.549 20.149,31.854 18.187 C 32.017 17.142,32.017 14.858,31.854 13.813 C 31.410 10.961,30.399 8.515,28.784 6.386 C 26.139 2.901,22.361 0.710,18.000 0.132 C 17.376 0.050,15.520 -0.010,14.933 0.034 M18.415 9.640 L 20.802 13.733 18.401 13.747 C 17.081 13.755,14.920 13.755,13.599 13.747 L 11.198 13.733 13.586 9.640 C 14.899 7.389,15.985 5.547,16.000 5.547 C 16.015 5.547,17.101 7.389,18.415 9.640 M12.868 19.255 C 14.177 21.500,15.264 23.378,15.283 23.428 C 15.316 23.515,15.028 23.520,10.401 23.520 L 5.485 23.520 5.590 23.347 C 5.647 23.251,6.708 21.433,7.947 19.307 C 10.628 14.703,10.405 15.075,10.451 15.129 C 10.472 15.154,11.560 17.010,12.868 19.255 M23.975 19.173 C 25.257 21.373,26.353 23.251,26.410 23.347 L 26.515 23.520 21.599 23.520 C 17.046 23.520,16.684 23.513,16.716 23.432 C 16.815 23.172,21.572 15.098,21.605 15.132 C 21.627 15.155,22.693 16.973,23.975 19.173 " stroke="none" fill-rule="evenodd" fill="black"></path></svg>