<svg width="32" height="32" xmlns="http://www.w3.org/2000/svg"><path d="M14.933 0.034 C 10.237 0.384,6.020 2.671,3.211 6.391 C 1.590 8.538,0.590 10.959,0.146 13.813 C -0.017 14.858,-0.017 17.142,0.146 18.187 C 0.830 22.578,2.950 26.177,6.391 28.787 C 8.515 30.398,10.963 31.410,13.813 31.854 C 14.858 32.017,17.142 32.017,18.187 31.854 C 20.149 31.549,21.935 30.970,23.505 30.132 C 26.290 28.646,28.646 26.290,30.132 23.505 C 30.970 21.935,31.549 20.149,31.854 18.187 C 32.017 17.142,32.017 14.858,31.854 13.813 C 31.410 10.961,30.399 8.515,28.784 6.386 C 26.139 2.901,22.361 0.710,18.000 0.132 C 17.376 0.050,15.520 -0.010,14.933 0.034 M17.973 4.181 C 22.937 5.036,26.811 8.836,27.757 13.777 C 28.054 15.330,27.983 17.401,27.580 18.966 C 27.278 20.136,26.649 21.553,25.996 22.533 C 24.114 25.360,21.309 27.193,17.947 27.793 C 17.347 27.900,17.080 27.917,15.973 27.916 C 14.607 27.916,14.172 27.867,13.095 27.596 C 10.532 26.950,8.290 25.514,6.650 23.467 C 5.316 21.803,4.460 19.833,4.124 17.653 C 3.980 16.727,3.996 15.033,4.156 14.085 C 4.801 10.265,7.133 7.062,10.538 5.320 C 11.875 4.637,13.304 4.216,14.848 4.053 C 15.616 3.971,17.112 4.032,17.973 4.181 M15.200 4.963 C 12.461 5.139,9.936 6.333,7.972 8.379 C 5.766 10.677,4.647 13.890,4.962 17.021 C 5.455 21.914,9.071 25.887,13.887 26.826 C 15.757 27.190,17.571 27.074,19.411 26.473 C 23.593 25.107,26.555 21.390,26.986 16.968 C 27.289 13.857,26.170 10.666,23.975 8.379 C 21.642 5.948,18.557 4.748,15.200 4.963 M13.013 12.133 L 15.333 14.453 14.893 14.893 L 14.453 15.333 12.121 13.000 L 9.788 10.668 10.213 10.241 C 10.446 10.006,10.650 9.813,10.666 9.813 C 10.681 9.813,11.738 10.857,13.013 12.133 M22.133 10.692 C 22.133 10.722,21.089 11.791,19.813 13.067 L 17.494 15.386 17.054 14.946 L 16.614 14.506 18.960 12.160 L 21.305 9.814 21.719 10.226 C 21.947 10.452,22.133 10.662,22.133 10.692 M16.415 16.412 L 15.976 16.853 15.534 16.415 L 15.093 15.976 15.532 15.534 L 15.971 15.093 16.412 15.532 L 16.853 15.971 16.415 16.412 M14.961 17.067 L 15.385 17.494 13.040 19.840 L 10.695 22.186 10.254 21.747 L 9.812 21.308 12.146 18.974 C 13.429 17.690,14.492 16.640,14.508 16.640 C 14.523 16.640,14.727 16.832,14.961 17.067 M19.840 18.960 L 22.159 21.280 21.720 21.720 L 21.280 22.159 18.934 19.814 L 16.588 17.468 16.999 17.054 C 17.226 16.826,17.435 16.640,17.466 16.640 C 17.496 16.640,18.564 17.684,19.840 18.960 " stroke="none" fill-rule="evenodd" fill="black"></path></svg>