<svg width="32" height="32" xmlns="http://www.w3.org/2000/svg"><path d="M14.933 0.034 C 10.237 0.384,6.020 2.671,3.211 6.391 C 1.590 8.538,0.590 10.959,0.146 13.813 C -0.017 14.858,-0.017 17.142,0.146 18.187 C 0.830 22.578,2.950 26.177,6.391 28.787 C 8.515 30.398,10.963 31.410,13.813 31.854 C 14.858 32.017,17.142 32.017,18.187 31.854 C 20.149 31.549,21.935 30.970,23.505 30.132 C 26.290 28.646,28.646 26.290,30.132 23.505 C 30.970 21.935,31.549 20.149,31.854 18.187 C 32.017 17.142,32.017 14.858,31.854 13.813 C 31.410 10.961,30.399 8.515,28.784 6.386 C 26.139 2.901,22.361 0.710,18.000 0.132 C 17.376 0.050,15.520 -0.010,14.933 0.034 M9.760 12.136 C 10.191 12.265,10.814 12.604,11.134 12.883 C 11.713 13.390,12.182 14.158,12.376 14.915 C 12.521 15.483,12.520 16.465,12.374 17.045 C 12.095 18.150,11.322 19.161,10.400 19.627 C 9.845 19.907,9.534 19.971,8.747 19.969 C 8.112 19.967,7.981 19.950,7.643 19.830 C 6.553 19.440,5.765 18.698,5.321 17.641 C 5.019 16.922,4.931 15.932,5.095 15.104 C 5.172 14.713,5.611 13.698,5.696 13.714 C 5.716 13.718,5.931 13.928,6.172 14.182 L 6.610 14.643 6.471 14.988 C 6.251 15.531,6.199 16.026,6.307 16.550 C 6.519 17.573,7.124 18.299,8.031 18.617 C 8.287 18.707,8.443 18.724,8.859 18.709 C 9.324 18.692,9.410 18.672,9.773 18.492 C 10.674 18.047,11.255 17.101,11.253 16.082 C 11.250 14.827,10.501 13.759,9.419 13.466 C 8.912 13.329,8.237 13.371,7.813 13.567 L 7.493 13.715 7.055 13.244 C 6.814 12.985,6.616 12.756,6.615 12.736 C 6.612 12.671,7.321 12.282,7.614 12.188 C 7.768 12.138,8.008 12.077,8.147 12.051 C 8.508 11.985,9.415 12.033,9.760 12.136 M26.947 12.067 C 26.602 12.507,24.107 15.962,24.107 16.000 C 24.107 16.038,26.602 19.493,26.947 19.933 C 26.989 19.986,26.834 20.000,26.207 19.998 L 25.413 19.997 24.373 18.578 C 23.801 17.798,23.310 17.158,23.280 17.157 C 23.251 17.155,22.759 17.794,22.187 18.576 L 21.147 19.998 19.657 19.985 L 18.168 19.973 17.859 19.318 L 17.551 18.664 18.245 18.678 L 18.940 18.693 19.224 19.297 C 19.381 19.629,19.520 19.912,19.534 19.926 C 19.548 19.939,20.214 19.069,21.013 17.992 C 22.209 16.379,22.456 16.017,22.410 15.943 C 22.379 15.894,21.728 15.009,20.964 13.978 C 20.199 12.947,19.573 12.092,19.573 12.078 C 19.573 12.065,19.928 12.053,20.362 12.053 L 21.151 12.053 22.135 13.393 C 22.677 14.130,23.153 14.786,23.194 14.851 C 23.262 14.961,23.241 15.005,22.885 15.486 C 22.654 15.800,22.518 16.030,22.542 16.069 C 22.745 16.400,23.278 17.064,23.313 17.028 C 23.474 16.868,24.050 16.016,24.032 15.967 C 24.019 15.934,23.849 15.688,23.653 15.421 C 23.457 15.153,23.305 14.913,23.315 14.887 C 23.325 14.861,23.801 14.201,24.373 13.421 L 25.413 12.003 26.207 12.001 C 26.834 12.000,26.989 12.014,26.947 12.067 M16.770 13.988 C 17.267 15.050,17.824 16.238,18.008 16.627 L 18.342 17.333 17.633 17.333 L 16.925 17.333 16.373 16.186 C 16.069 15.554,15.804 15.056,15.784 15.079 C 15.745 15.122,14.767 17.190,13.942 18.973 L 13.467 20.000 12.782 20.000 C 12.378 20.000,12.105 19.979,12.116 19.950 C 12.181 19.766,15.819 12.054,15.840 12.055 C 15.855 12.055,16.273 12.925,16.770 13.988 " stroke="none" fill-rule="evenodd" fill="black"></path></svg>