<svg width="32" height="32" xmlns="http://www.w3.org/2000/svg"><path d="M14.933 0.034 C 10.237 0.384,6.020 2.671,3.211 6.391 C 1.590 8.538,0.590 10.959,0.146 13.813 C -0.017 14.858,-0.017 17.142,0.146 18.187 C 0.830 22.578,2.950 26.177,6.391 28.787 C 8.515 30.398,10.963 31.410,13.813 31.854 C 14.858 32.017,17.142 32.017,18.187 31.854 C 20.149 31.549,21.935 30.970,23.505 30.132 C 26.290 28.646,28.646 26.290,30.132 23.505 C 30.970 21.935,31.549 20.149,31.854 18.187 C 32.017 17.142,32.017 14.858,31.854 13.813 C 31.410 10.961,30.399 8.515,28.784 6.386 C 26.139 2.901,22.361 0.710,18.000 0.132 C 17.376 0.050,15.520 -0.010,14.933 0.034 M9.412 10.136 C 10.232 10.294,14.604 11.377,15.229 11.576 C 16.124 11.862,16.540 12.128,16.756 12.551 C 16.848 12.732,16.862 12.838,16.842 13.223 C 16.820 13.676,16.811 13.700,15.764 16.213 C 14.610 18.985,14.396 19.433,14.063 19.776 C 13.703 20.146,13.367 20.280,12.727 20.309 C 12.024 20.340,11.644 20.266,8.502 19.489 C 5.423 18.727,4.893 18.550,4.462 18.141 C 4.070 17.768,3.967 17.358,4.115 16.757 C 4.191 16.449,6.249 11.479,6.438 11.147 C 6.626 10.817,6.903 10.482,7.107 10.337 C 7.568 10.009,8.385 9.937,9.412 10.136 M19.505 12.594 C 20.349 12.803,21.048 12.980,21.057 12.988 C 21.066 12.996,20.978 13.227,20.862 13.501 C 20.573 14.180,19.439 16.911,19.397 17.027 C 19.378 17.078,19.377 17.120,19.393 17.120 C 19.410 17.120,20.519 16.432,21.858 15.591 C 23.198 14.750,24.371 14.015,24.465 13.959 L 24.638 13.858 26.318 14.268 C 27.242 14.494,27.987 14.697,27.974 14.720 C 27.960 14.742,27.012 15.341,25.868 16.051 C 24.723 16.762,23.787 17.359,23.787 17.380 C 23.787 17.400,23.961 17.460,24.173 17.514 C 24.933 17.705,25.537 18.073,25.743 18.472 C 25.873 18.723,25.893 19.189,25.789 19.551 C 25.683 19.920,24.330 23.196,24.244 23.292 C 24.198 23.343,23.852 23.276,22.670 22.985 C 21.836 22.779,21.145 22.603,21.134 22.592 C 21.123 22.581,21.367 21.965,21.677 21.224 C 21.997 20.457,22.240 19.801,22.240 19.703 C 22.240 19.574,22.194 19.491,22.058 19.371 C 21.899 19.231,21.696 19.168,20.426 18.856 C 19.629 18.661,18.927 18.508,18.868 18.517 C 18.780 18.530,18.638 18.824,18.125 20.052 C 17.777 20.887,17.468 21.594,17.439 21.623 C 17.386 21.676,14.474 20.995,14.382 20.908 C 14.346 20.874,17.906 12.213,17.956 12.213 C 17.964 12.213,18.661 12.385,19.505 12.594 M9.234 12.840 C 9.079 12.998,7.680 16.274,7.680 16.480 C 7.680 16.671,7.773 16.783,8.010 16.878 C 8.381 17.026,11.028 17.653,11.283 17.653 C 11.697 17.653,11.758 17.559,12.527 15.707 C 12.905 14.797,13.230 13.998,13.251 13.931 C 13.303 13.762,13.178 13.588,12.926 13.478 C 12.572 13.324,9.941 12.693,9.651 12.693 C 9.424 12.693,9.354 12.718,9.234 12.840 " stroke="none" fill-rule="evenodd" fill="black"></path></svg>