<svg width="32" height="32" xmlns="http://www.w3.org/2000/svg"><path d="M14.933 0.034 C 10.237 0.384,6.020 2.671,3.211 6.391 C 1.590 8.538,0.590 10.959,0.146 13.813 C -0.017 14.858,-0.017 17.142,0.146 18.187 C 0.830 22.578,2.950 26.177,6.391 28.787 C 8.515 30.398,10.963 31.410,13.813 31.854 C 14.858 32.017,17.142 32.017,18.187 31.854 C 20.149 31.549,21.935 30.970,23.505 30.132 C 26.290 28.646,28.646 26.290,30.132 23.505 C 30.970 21.935,31.549 20.149,31.854 18.187 C 32.017 17.142,32.017 14.858,31.854 13.813 C 31.410 10.961,30.399 8.515,28.784 6.386 C 26.139 2.901,22.361 0.710,18.000 0.132 C 17.376 0.050,15.520 -0.010,14.933 0.034 M16.874 7.042 C 17.246 7.072,17.780 7.144,18.060 7.201 C 21.389 7.886,24.110 10.561,24.802 13.830 C 24.989 14.715,25.019 15.633,25.003 20.008 L 24.987 24.203 17.477 16.862 L 9.968 9.520 10.269 9.253 C 11.677 8.006,13.558 7.198,15.413 7.044 C 16.156 6.982,16.141 6.982,16.874 7.042 M14.853 15.466 C 18.285 18.818,21.306 21.771,21.566 22.026 L 22.038 22.492 21.592 22.866 C 19.759 24.406,17.406 25.173,15.133 24.971 C 12.832 24.766,10.941 23.877,9.411 22.282 C 9.119 21.977,8.738 21.529,8.565 21.287 C 7.949 20.423,7.391 19.145,7.177 18.105 C 7.016 17.325,6.988 16.421,6.987 12.107 L 6.987 7.761 7.800 8.566 C 8.247 9.009,11.421 12.114,14.853 15.466 " stroke="none" fill-rule="evenodd" fill="black"></path></svg>