<svg width="32" height="32" xmlns="http://www.w3.org/2000/svg"><path d="M14.933 0.034 C 10.237 0.384,6.020 2.671,3.211 6.391 C 1.590 8.538,0.590 10.959,0.146 13.813 C -0.017 14.858,-0.017 17.142,0.146 18.187 C 0.830 22.578,2.950 26.177,6.391 28.787 C 8.515 30.398,10.963 31.410,13.813 31.854 C 14.858 32.017,17.142 32.017,18.187 31.854 C 20.149 31.549,21.935 30.970,23.505 30.132 C 26.290 28.646,28.646 26.290,30.132 23.505 C 30.970 21.935,31.549 20.149,31.854 18.187 C 32.017 17.142,32.017 14.858,31.854 13.813 C 31.410 10.961,30.399 8.515,28.784 6.386 C 26.139 2.901,22.361 0.710,18.000 0.132 C 17.376 0.050,15.520 -0.010,14.933 0.034 M19.196 3.283 C 20.204 3.832,20.575 5.039,20.043 6.038 C 19.704 6.674,19.115 7.043,18.360 7.091 L 17.921 7.120 16.932 8.665 L 15.942 10.211 16.538 10.328 C 18.197 10.654,19.629 11.444,20.810 12.685 C 21.824 13.751,22.509 15.072,22.833 16.587 C 22.932 17.052,22.952 17.313,22.952 18.133 C 22.952 19.199,22.865 19.784,22.580 20.640 C 21.858 22.803,20.128 24.656,18.053 25.488 C 16.885 25.956,15.972 26.112,14.674 26.064 C 12.643 25.989,10.856 25.205,9.414 23.757 C 8.520 22.860,7.879 21.833,7.499 20.693 C 7.173 19.711,7.120 19.354,7.120 18.133 C 7.120 16.905,7.183 16.479,7.505 15.551 C 8.475 12.749,10.927 10.690,13.784 10.277 L 14.243 10.211 15.487 8.271 L 16.731 6.331 16.577 6.032 C 16.006 4.920,16.575 3.559,17.775 3.168 C 17.915 3.122,18.172 3.100,18.453 3.110 C 18.837 3.123,18.951 3.149,19.196 3.283 M14.133 14.002 C 12.184 14.418,10.825 16.099,10.816 18.107 C 10.808 19.982,11.952 21.543,13.778 22.150 C 14.223 22.298,14.331 22.312,14.987 22.315 C 15.582 22.317,15.780 22.296,16.130 22.196 C 17.256 21.874,18.221 21.100,18.747 20.100 C 18.849 19.904,18.933 19.727,18.933 19.705 C 18.933 19.683,18.813 19.778,18.665 19.916 C 17.741 20.781,16.301 20.760,15.366 19.868 C 15.013 19.531,14.813 19.196,14.695 18.745 C 14.332 17.351,15.258 15.941,16.682 15.721 C 17.383 15.612,18.135 15.839,18.689 16.327 L 18.942 16.550 18.858 16.349 C 18.606 15.746,17.830 14.881,17.212 14.514 C 16.809 14.276,16.338 14.089,15.903 13.997 C 15.457 13.903,14.589 13.905,14.133 14.002 " stroke="none" fill-rule="evenodd" fill="black"></path></svg>