<svg width="32" height="32" xmlns="http://www.w3.org/2000/svg"><path d="M14.933 0.034 C 10.237 0.384,6.020 2.671,3.211 6.391 C 1.590 8.538,0.590 10.959,0.146 13.813 C -0.017 14.858,-0.017 17.142,0.146 18.187 C 0.830 22.578,2.950 26.177,6.391 28.787 C 8.515 30.398,10.963 31.410,13.813 31.854 C 14.858 32.017,17.142 32.017,18.187 31.854 C 20.149 31.549,21.935 30.970,23.505 30.132 C 26.290 28.646,28.646 26.290,30.132 23.505 C 30.970 21.935,31.549 20.149,31.854 18.187 C 32.017 17.142,32.017 14.858,31.854 13.813 C 31.410 10.961,30.399 8.515,28.784 6.386 C 26.139 2.901,22.361 0.710,18.000 0.132 C 17.376 0.050,15.520 -0.010,14.933 0.034 M16.730 5.683 C 17.262 5.943,17.556 6.429,17.556 7.048 C 17.556 7.711,17.182 8.243,16.549 8.480 C 15.529 8.861,14.436 8.121,14.438 7.050 C 14.439 6.503,14.669 6.061,15.100 5.776 C 15.568 5.466,16.211 5.429,16.730 5.683 M20.679 7.938 C 21.823 8.529,21.812 10.107,20.659 10.674 C 20.363 10.820,20.247 10.848,19.951 10.846 C 19.327 10.840,18.790 10.501,18.527 9.947 C 18.345 9.562,18.350 9.029,18.538 8.651 C 18.700 8.325,19.065 7.986,19.377 7.871 C 19.702 7.751,20.385 7.786,20.679 7.938 M12.257 8.280 C 12.613 8.516,12.769 8.800,12.791 9.253 C 12.807 9.560,12.789 9.679,12.702 9.850 C 12.390 10.462,11.604 10.717,10.995 10.403 C 10.236 10.013,10.086 9.000,10.702 8.416 C 10.954 8.177,11.182 8.104,11.631 8.119 C 11.968 8.131,12.071 8.157,12.257 8.280 M24.631 10.209 C 25.326 10.561,25.653 11.352,25.404 12.084 C 25.272 12.473,24.815 12.909,24.407 13.036 C 23.658 13.270,22.863 12.940,22.489 12.240 C 22.325 11.934,22.325 11.212,22.489 10.907 C 22.703 10.510,23.109 10.189,23.547 10.073 C 23.825 10.000,24.347 10.065,24.631 10.209 M16.573 10.473 C 16.865 10.624,17.116 10.929,17.208 11.245 C 17.508 12.277,16.403 13.150,15.419 12.659 C 14.454 12.178,14.544 10.800,15.565 10.418 C 15.810 10.326,16.346 10.356,16.573 10.473 M7.740 11.087 C 7.922 11.269,7.947 11.325,7.947 11.545 C 7.947 11.996,7.658 12.286,7.216 12.280 C 6.943 12.276,6.756 12.167,6.611 11.930 C 6.315 11.445,6.670 10.881,7.273 10.880 C 7.504 10.880,7.556 10.903,7.740 11.087 M20.532 12.800 C 21.293 13.193,21.447 14.116,20.854 14.728 C 20.396 15.202,19.706 15.258,19.189 14.863 C 18.567 14.386,18.552 13.435,19.160 12.943 C 19.532 12.642,20.108 12.582,20.532 12.800 M11.852 12.962 C 12.268 13.078,12.538 13.431,12.541 13.865 C 12.547 14.583,11.857 15.067,11.212 14.797 C 10.949 14.687,10.780 14.525,10.661 14.267 C 10.540 14.005,10.535 13.816,10.643 13.559 C 10.753 13.295,10.915 13.127,11.173 13.007 C 11.418 12.895,11.571 12.884,11.852 12.962 M24.631 14.635 C 25.326 14.988,25.653 15.779,25.404 16.510 C 25.272 16.899,24.815 17.336,24.407 17.463 C 23.658 17.697,22.863 17.367,22.489 16.667 C 22.325 16.361,22.325 15.638,22.489 15.333 C 22.703 14.936,23.109 14.616,23.547 14.500 C 23.825 14.426,24.347 14.492,24.631 14.635 M16.464 15.152 C 16.950 15.387,17.123 16.006,16.838 16.493 C 16.465 17.128,15.471 17.112,15.137 16.464 C 14.694 15.605,15.583 14.726,16.464 15.152 M7.625 15.394 C 7.829 15.515,7.947 15.736,7.947 16.000 C 7.947 16.406,7.652 16.708,7.255 16.708 C 6.523 16.708,6.230 15.785,6.843 15.411 C 7.053 15.283,7.423 15.275,7.625 15.394 M20.581 17.090 C 20.924 17.268,21.227 17.769,21.227 18.160 C 21.227 18.737,20.725 19.294,20.118 19.391 C 19.778 19.445,19.341 19.290,19.069 19.019 C 18.789 18.738,18.702 18.492,18.730 18.054 C 18.755 17.657,18.926 17.357,19.249 17.143 C 19.601 16.911,20.188 16.887,20.581 17.090 M11.852 17.282 C 12.279 17.401,12.541 17.755,12.541 18.213 C 12.541 18.650,12.341 18.947,11.934 19.117 C 11.444 19.322,10.895 19.094,10.661 18.587 C 10.536 18.317,10.536 18.110,10.661 17.840 C 10.784 17.573,10.971 17.399,11.235 17.304 C 11.485 17.215,11.596 17.211,11.852 17.282 M24.631 19.062 C 25.326 19.414,25.653 20.206,25.404 20.937 C 25.272 21.326,24.815 21.762,24.407 21.890 C 23.658 22.123,22.863 21.793,22.489 21.093 C 22.398 20.923,22.375 20.788,22.375 20.427 C 22.375 20.065,22.398 19.930,22.489 19.760 C 22.705 19.357,23.103 19.043,23.547 18.926 C 23.826 18.853,24.347 18.918,24.631 19.062 M16.655 19.377 C 16.935 19.541,17.145 19.831,17.229 20.171 C 17.358 20.691,17.079 21.265,16.574 21.516 C 15.834 21.885,14.963 21.484,14.772 20.686 C 14.628 20.086,15.002 19.447,15.614 19.250 C 15.879 19.164,16.401 19.228,16.655 19.377 M7.625 19.821 C 7.829 19.941,7.947 20.163,7.947 20.427 C 7.947 20.833,7.652 21.135,7.255 21.135 C 6.538 21.135,6.242 20.273,6.812 19.847 C 6.997 19.709,7.413 19.696,7.625 19.821 M20.686 21.391 C 21.812 21.954,21.806 23.537,20.677 24.116 C 20.368 24.274,19.782 24.309,19.424 24.190 C 19.076 24.075,18.711 23.751,18.538 23.402 C 18.262 22.848,18.394 22.075,18.833 21.677 C 19.235 21.314,19.443 21.232,19.978 21.229 C 20.297 21.227,20.408 21.253,20.686 21.391 M12.154 21.705 C 12.579 21.923,12.800 22.294,12.800 22.789 C 12.800 24.100,11.029 24.507,10.437 23.331 C 10.088 22.638,10.496 21.797,11.280 21.594 C 11.507 21.535,11.929 21.589,12.154 21.705 M16.717 23.596 C 17.259 23.862,17.556 24.344,17.556 24.960 C 17.556 25.574,17.259 26.058,16.723 26.321 C 15.762 26.791,14.622 26.238,14.457 25.222 C 14.251 23.959,15.549 23.025,16.717 23.596 " stroke="none" fill-rule="evenodd" fill="black"></path></svg>