<svg width="32" height="32" xmlns="http://www.w3.org/2000/svg"><path d="M14.933 0.034 C 10.237 0.384,6.020 2.671,3.211 6.391 C 1.590 8.538,0.590 10.959,0.146 13.813 C -0.017 14.858,-0.017 17.142,0.146 18.187 C 0.830 22.578,2.950 26.177,6.391 28.787 C 8.515 30.398,10.963 31.410,13.813 31.854 C 14.858 32.017,17.142 32.017,18.187 31.854 C 20.149 31.549,21.935 30.970,23.505 30.132 C 26.290 28.646,28.646 26.290,30.132 23.505 C 30.970 21.935,31.549 20.149,31.854 18.187 C 32.017 17.142,32.017 14.858,31.854 13.813 C 31.410 10.961,30.399 8.515,28.784 6.386 C 26.139 2.901,22.361 0.710,18.000 0.132 C 17.376 0.050,15.520 -0.010,14.933 0.034 M17.760 4.135 C 19.026 4.326,20.088 4.658,21.258 5.230 C 24.837 6.977,27.264 10.302,27.875 14.293 C 28.004 15.139,28.004 16.861,27.875 17.707 C 27.263 21.699,24.840 25.020,21.253 26.778 C 17.089 28.819,12.128 28.264,8.492 25.351 C 6.470 23.730,4.963 21.374,4.355 18.880 C 4.108 17.863,4.031 17.184,4.031 16.000 C 4.031 14.004,4.376 12.490,5.230 10.742 C 6.412 8.320,8.308 6.423,10.742 5.228 C 12.109 4.556,13.361 4.214,15.120 4.032 C 15.549 3.988,17.215 4.053,17.760 4.135 M17.440 8.625 C 17.208 8.710,17.148 8.834,17.014 9.507 L 16.952 9.813 13.288 9.813 L 9.624 9.813 8.704 10.920 L 7.784 12.027 14.119 12.053 C 21.102 12.083,20.586 12.056,20.914 12.409 C 21.198 12.715,21.227 12.836,21.227 13.732 C 21.227 14.810,21.137 15.044,20.613 15.325 C 20.403 15.438,20.355 15.440,17.373 15.456 C 15.709 15.464,14.347 15.464,14.347 15.456 C 14.347 15.447,14.455 14.936,14.587 14.320 C 14.719 13.705,14.827 13.194,14.827 13.186 C 14.827 13.178,14.150 13.178,13.324 13.186 L 11.820 13.200 10.737 18.293 C 10.142 21.095,9.654 23.417,9.654 23.453 C 9.653 23.505,9.987 23.520,11.147 23.520 C 11.968 23.520,12.640 23.511,12.640 23.501 C 12.640 23.481,13.791 18.041,13.841 17.827 C 13.868 17.710,13.887 17.707,14.561 17.707 C 14.942 17.707,15.253 17.725,15.254 17.747 C 15.254 17.769,15.214 17.981,15.164 18.218 C 15.115 18.455,15.091 18.689,15.110 18.739 C 15.186 18.937,15.807 19.004,16.134 18.850 C 16.323 18.760,16.393 18.632,16.479 18.213 C 16.596 17.646,16.507 17.707,17.228 17.707 C 17.959 17.707,17.918 17.668,17.783 18.240 C 17.686 18.651,17.715 18.812,17.898 18.882 C 18.114 18.964,18.569 18.942,18.773 18.840 C 18.973 18.740,19.030 18.615,19.148 18.013 L 19.208 17.707 20.668 17.707 C 21.537 17.707,22.243 17.683,22.411 17.647 C 23.038 17.515,23.551 17.163,23.898 16.626 C 24.233 16.108,24.267 15.847,24.267 13.770 C 24.267 12.775,24.242 11.834,24.213 11.678 C 24.046 10.797,23.325 10.053,22.464 9.872 C 22.309 9.840,21.895 9.813,21.544 9.813 C 21.069 9.813,20.907 9.796,20.907 9.747 C 20.908 9.710,20.943 9.536,20.986 9.360 C 21.145 8.701,21.073 8.587,20.502 8.587 C 19.940 8.587,19.819 8.682,19.707 9.210 C 19.658 9.439,19.606 9.669,19.592 9.720 C 19.569 9.802,19.490 9.813,18.930 9.813 C 18.456 9.813,18.293 9.796,18.293 9.747 C 18.293 9.710,18.334 9.479,18.385 9.234 L 18.478 8.789 18.353 8.688 C 18.257 8.610,18.146 8.588,17.874 8.591 C 17.679 8.593,17.484 8.608,17.440 8.625 " stroke="none" fill-rule="evenodd" fill="black"></path></svg>