<svg viewBox="0 0 32 32" xmlns="http://www.w3.org/2000/svg"><path d="M14.933 0.034 C 10.237 0.384,6.020 2.671,3.211 6.391 C 1.590 8.538,0.590 10.959,0.146 13.813 C -0.017 14.858,-0.017 17.142,0.146 18.187 C 0.830 22.578,2.950 26.177,6.391 28.787 C 8.515 30.398,10.963 31.410,13.813 31.854 C 14.858 32.017,17.142 32.017,18.187 31.854 C 20.149 31.549,21.935 30.970,23.505 30.132 C 26.290 28.646,28.646 26.290,30.132 23.505 C 30.970 21.935,31.549 20.149,31.854 18.187 C 32.017 17.142,32.017 14.858,31.854 13.813 C 31.410 10.961,30.399 8.515,28.784 6.386 C 26.139 2.901,22.361 0.710,18.000 0.132 C 17.376 0.050,15.520 -0.010,14.933 0.034 M23.043 11.337 C 25.931 14.524,26.820 15.531,26.905 15.711 C 27.081 16.081,27.031 16.220,26.517 16.788 C 26.259 17.073,24.898 18.579,23.492 20.133 C 22.087 21.688,20.922 22.960,20.903 22.960 C 20.884 22.960,19.782 21.760,18.454 20.293 C 17.126 18.827,16.021 17.627,15.998 17.627 C 15.975 17.627,14.895 18.791,13.599 20.213 C 12.303 21.636,11.200 22.844,11.149 22.897 C 11.059 22.991,10.958 22.886,8.607 20.284 C 5.247 16.565,5.116 16.417,5.061 16.277 C 4.975 16.056,5.006 15.757,5.132 15.594 C 5.342 15.321,10.337 9.771,10.880 9.208 L 11.026 9.056 13.488 11.688 C 14.842 13.136,15.968 14.326,15.991 14.334 C 16.013 14.342,17.133 13.144,18.479 11.672 L 20.927 8.996 21.117 9.208 C 21.221 9.326,22.088 10.284,23.043 11.337 M9.605 13.833 C 7.831 15.755,7.840 15.744,7.840 16.008 C 7.840 16.192,7.891 16.271,8.329 16.760 C 9.440 18.003,11.060 19.736,11.097 19.722 C 11.169 19.695,14.533 15.989,14.533 15.936 C 14.533 15.875,11.147 12.267,11.090 12.267 C 11.068 12.267,10.400 12.971,9.605 13.833 M19.132 14.137 L 17.437 16.000 19.171 17.841 C 20.125 18.853,20.916 19.687,20.930 19.694 C 20.981 19.720,23.802 16.606,23.899 16.416 C 24.030 16.158,24.031 15.757,23.900 15.547 C 23.685 15.203,20.979 12.264,20.882 12.270 C 20.852 12.272,20.064 13.112,19.132 14.137 " stroke="none" fill-rule="evenodd" fill="black"></path></svg>