<svg viewBox="0 0 32 32" xmlns="http://www.w3.org/2000/svg"><path d="M14.933 0.034 C 10.237 0.384,6.020 2.671,3.211 6.391 C 1.590 8.538,0.590 10.959,0.146 13.813 C -0.017 14.858,-0.017 17.142,0.146 18.187 C 0.830 22.578,2.950 26.177,6.391 28.787 C 8.515 30.398,10.963 31.410,13.813 31.854 C 14.858 32.017,17.142 32.017,18.187 31.854 C 20.149 31.549,21.935 30.970,23.505 30.132 C 26.290 28.646,28.646 26.290,30.132 23.505 C 30.970 21.935,31.549 20.149,31.854 18.187 C 32.017 17.142,32.017 14.858,31.854 13.813 C 31.410 10.961,30.399 8.515,28.784 6.386 C 26.139 2.901,22.361 0.710,18.000 0.132 C 17.376 0.050,15.520 -0.010,14.933 0.034 M16.988 6.126 C 17.139 6.195,18.379 7.407,21.204 10.245 C 25.777 14.841,25.782 14.846,25.892 15.108 C 25.996 15.357,25.997 15.894,25.894 16.140 C 25.665 16.688,25.178 17.014,24.590 17.012 C 24.366 17.011,24.163 16.976,24.027 16.913 C 23.877 16.845,22.710 15.700,20.110 13.071 L 16.407 9.326 14.407 11.327 L 12.406 13.327 14.415 15.356 C 15.624 16.577,16.471 17.475,16.544 17.612 C 16.713 17.933,16.714 18.545,16.546 18.864 C 16.286 19.356,15.836 19.627,15.284 19.626 C 14.730 19.625,14.701 19.600,11.857 16.708 C 9.292 14.100,9.232 14.034,9.144 13.733 C 9.039 13.372,9.070 13.006,9.232 12.672 C 9.392 12.344,15.458 6.340,15.810 6.161 C 16.141 5.993,16.661 5.978,16.988 6.126 M17.415 12.522 C 17.541 12.588,18.675 13.683,20.224 15.236 C 22.183 17.201,22.847 17.899,22.929 18.080 C 23.077 18.407,23.080 18.978,22.935 19.276 C 22.865 19.421,21.779 20.543,19.695 22.624 C 16.266 26.049,16.335 25.990,15.721 25.991 C 15.126 25.991,15.228 26.082,10.531 21.345 C 7.410 18.197,6.205 16.949,6.131 16.785 C 5.976 16.444,5.990 15.934,6.164 15.585 C 6.491 14.929,7.280 14.641,7.947 14.935 C 8.135 15.018,9.000 15.860,11.973 18.857 L 15.760 22.674 17.752 20.678 L 19.745 18.681 17.720 16.634 C 16.454 15.354,15.652 14.502,15.581 14.362 C 15.414 14.033,15.421 13.472,15.598 13.124 C 15.749 12.825,16.035 12.570,16.345 12.455 C 16.632 12.349,17.142 12.381,17.415 12.522 " stroke="none" fill-rule="evenodd" fill="black"></path></svg>