<svg viewBox="0 0 32 32" xmlns="http://www.w3.org/2000/svg"><path d="M14.933 0.034 C 10.237 0.384,6.020 2.671,3.211 6.391 C 1.590 8.538,0.590 10.959,0.146 13.813 C -0.017 14.858,-0.017 17.142,0.146 18.187 C 0.830 22.578,2.950 26.177,6.391 28.787 C 8.515 30.398,10.963 31.410,13.813 31.854 C 14.858 32.017,17.142 32.017,18.187 31.854 C 20.149 31.549,21.935 30.970,23.505 30.132 C 26.290 28.646,28.646 26.290,30.132 23.505 C 30.970 21.935,31.549 20.149,31.854 18.187 C 32.017 17.142,32.017 14.858,31.854 13.813 C 31.410 10.961,30.399 8.515,28.784 6.386 C 26.139 2.901,22.361 0.710,18.000 0.132 C 17.376 0.050,15.520 -0.010,14.933 0.034 M18.027 14.294 L 18.027 21.602 16.893 21.588 L 15.760 21.573 15.746 14.280 L 15.733 6.987 16.880 6.987 L 18.027 6.987 18.027 14.294 M11.374 11.063 C 11.870 11.157,12.357 11.378,12.780 11.698 C 13.701 12.396,14.366 13.739,14.554 15.280 C 14.629 15.888,14.630 16.962,14.557 17.548 C 14.337 19.318,13.506 20.647,12.240 21.252 C 11.976 21.379,11.649 21.508,11.514 21.540 C 10.527 21.773,9.312 21.587,8.652 21.102 C 8.505 20.995,8.371 20.907,8.353 20.907 C 8.335 20.907,8.320 21.831,8.320 22.960 L 8.320 25.013 7.173 25.013 L 6.027 25.013 6.027 18.080 L 6.027 11.147 7.144 11.147 L 8.262 11.147 8.277 11.472 L 8.293 11.797 8.507 11.625 C 9.170 11.089,10.327 10.862,11.374 11.063 M24.960 12.267 L 24.960 13.440 24.592 13.440 C 23.522 13.440,22.454 14.213,22.165 15.196 C 22.092 15.447,22.080 15.901,22.080 18.543 L 22.080 21.600 20.933 21.600 L 19.787 21.600 19.787 16.427 L 19.787 11.253 20.853 11.253 L 21.920 11.253 21.920 11.580 L 21.920 11.906 22.093 11.774 C 22.391 11.547,22.810 11.362,23.267 11.255 C 23.832 11.123,23.932 11.111,24.493 11.101 L 24.960 11.093 24.960 12.267 M10.106 12.910 C 9.591 12.978,9.043 13.374,8.708 13.922 C 8.216 14.724,8.022 16.587,8.300 17.836 C 8.595 19.155,9.601 19.935,10.743 19.729 C 11.663 19.563,12.193 18.913,12.406 17.692 C 12.528 16.994,12.483 15.351,12.326 14.758 C 11.969 13.407,11.199 12.766,10.106 12.910 M25.973 20.348 L 25.973 21.602 24.840 21.588 L 23.707 21.573 23.692 20.333 L 23.678 19.093 24.826 19.093 L 25.973 19.093 25.973 20.348 " stroke="none" fill-rule="evenodd" fill="black"></path></svg>