<svg width="32" height="32" xmlns="http://www.w3.org/2000/svg"><path d="M14.933 0.034 C 10.237 0.384,6.020 2.671,3.211 6.391 C 1.590 8.538,0.590 10.959,0.146 13.813 C -0.017 14.858,-0.017 17.142,0.146 18.187 C 0.830 22.578,2.950 26.177,6.391 28.787 C 8.515 30.398,10.963 31.410,13.813 31.854 C 14.858 32.017,17.142 32.017,18.187 31.854 C 20.149 31.549,21.935 30.970,23.505 30.132 C 26.290 28.646,28.646 26.290,30.132 23.505 C 30.970 21.935,31.549 20.149,31.854 18.187 C 32.017 17.142,32.017 14.858,31.854 13.813 C 31.410 10.961,30.399 8.515,28.784 6.386 C 26.139 2.901,22.361 0.710,18.000 0.132 C 17.376 0.050,15.520 -0.010,14.933 0.034 M20.883 8.402 C 24.023 9.986,25.605 10.811,25.625 10.875 C 25.673 11.027,25.563 11.250,25.411 11.308 C 25.335 11.336,25.131 11.360,24.957 11.360 L 24.640 11.360 24.640 11.916 C 24.640 12.453,24.635 12.476,24.499 12.583 C 24.388 12.670,24.282 12.693,23.993 12.693 L 23.627 12.693 23.627 16.347 L 23.627 20.000 24.027 20.000 C 24.602 20.000,24.640 20.048,24.640 20.773 L 24.640 21.333 25.007 21.333 C 25.573 21.333,25.622 21.393,25.645 22.105 C 25.662 22.638,25.671 22.676,25.784 22.719 C 25.996 22.800,26.039 23.081,25.867 23.253 C 25.761 23.359,25.689 23.360,16.012 23.360 C 5.178 23.360,6.027 23.390,6.027 23.008 C 6.027 22.857,6.057 22.805,6.186 22.731 L 6.346 22.640 6.346 22.070 C 6.347 21.368,6.377 21.333,6.972 21.333 L 7.360 21.333 7.360 20.750 C 7.360 20.039,7.391 20.000,7.959 20.000 L 8.320 20.000 8.320 16.352 L 8.320 12.705 7.927 12.685 C 7.372 12.657,7.360 12.641,7.360 11.940 L 7.360 11.360 6.857 11.360 C 6.580 11.360,6.293 11.337,6.218 11.309 C 6.047 11.244,5.982 11.015,6.085 10.841 C 6.187 10.671,15.729 6.037,15.992 6.031 C 16.127 6.028,17.334 6.613,20.883 8.402 M8.000 11.680 L 8.000 12.000 16.000 12.000 L 24.000 12.000 24.000 11.680 L 24.000 11.360 16.000 11.360 L 8.000 11.360 8.000 11.680 M10.293 16.347 L 10.293 20.000 10.987 20.000 L 11.680 20.000 11.680 16.347 L 11.680 12.693 10.987 12.693 L 10.293 12.693 10.293 16.347 M13.653 16.347 L 13.653 20.000 14.320 20.000 L 14.987 20.000 14.987 16.347 L 14.987 12.693 14.320 12.693 L 13.653 12.693 13.653 16.347 M16.960 16.347 L 16.960 20.000 17.627 20.000 L 18.293 20.000 18.293 16.347 L 18.293 12.693 17.627 12.693 L 16.960 12.693 16.960 16.347 M20.320 16.347 L 20.320 20.000 20.987 20.000 L 21.653 20.000 21.653 16.347 L 21.653 12.693 20.987 12.693 L 20.320 12.693 20.320 16.347 M8.000 21.013 L 8.000 21.333 16.000 21.333 L 24.000 21.333 24.000 21.013 L 24.000 20.693 16.000 20.693 L 8.000 20.693 8.000 21.013 " stroke="none" fill-rule="evenodd" fill="black"></path></svg>