<svg viewBox="0 0 32 32" xmlns="http://www.w3.org/2000/svg"><path d="M14.933 0.034 C 10.237 0.384,6.020 2.671,3.211 6.391 C 1.590 8.538,0.590 10.959,0.146 13.813 C -0.017 14.858,-0.017 17.142,0.146 18.187 C 0.830 22.578,2.950 26.177,6.391 28.787 C 8.515 30.398,10.963 31.410,13.813 31.854 C 14.858 32.017,17.142 32.017,18.187 31.854 C 20.149 31.549,21.935 30.970,23.505 30.132 C 26.290 28.646,28.646 26.290,30.132 23.505 C 30.970 21.935,31.549 20.149,31.854 18.187 C 32.017 17.142,32.017 14.858,31.854 13.813 C 31.410 10.961,30.399 8.515,28.784 6.386 C 26.139 2.901,22.361 0.710,18.000 0.132 C 17.376 0.050,15.520 -0.010,14.933 0.034 M17.311 5.250 L 18.543 6.504 20.240 6.049 C 21.637 5.674,21.949 5.606,22.006 5.664 C 22.044 5.702,22.275 6.477,22.518 7.385 L 22.960 9.038 24.662 9.494 C 25.819 9.804,26.382 9.979,26.420 10.039 C 26.462 10.106,26.365 10.536,26.017 11.824 L 25.559 13.520 26.779 14.740 C 27.451 15.411,28.000 15.978,28.000 16.000 C 28.000 16.022,27.436 16.601,26.746 17.286 L 25.493 18.533 25.956 20.255 C 26.358 21.747,26.409 21.987,26.343 22.052 C 26.301 22.093,25.550 22.319,24.674 22.554 C 23.797 22.789,23.069 22.993,23.055 23.007 C 23.041 23.022,22.829 23.779,22.584 24.690 C 22.339 25.602,22.125 26.371,22.107 26.400 C 22.088 26.429,22.038 26.453,21.995 26.453 C 21.951 26.453,21.144 26.245,20.200 25.991 L 18.485 25.528 17.281 26.764 C 16.532 27.534,16.039 28.000,15.975 28.000 C 15.912 28.000,15.404 27.534,14.668 26.800 C 14.006 26.140,13.433 25.600,13.396 25.600 C 13.358 25.600,12.596 25.796,11.702 26.037 C 10.295 26.414,10.067 26.463,10.003 26.397 C 9.963 26.354,9.731 25.576,9.489 24.667 C 9.247 23.757,9.046 23.008,9.042 23.002 C 9.038 22.996,8.292 22.791,7.384 22.548 L 5.733 22.105 5.719 21.946 C 5.711 21.858,5.896 21.079,6.131 20.213 L 6.557 18.640 5.278 17.360 C 4.575 16.655,4.000 16.043,4.000 15.999 C 4.000 15.955,4.552 15.368,5.227 14.693 C 5.901 14.019,6.453 13.434,6.453 13.392 C 6.453 13.351,6.262 12.601,6.028 11.726 C 5.794 10.850,5.617 10.098,5.634 10.054 C 5.670 9.961,5.707 9.949,7.627 9.439 C 8.433 9.224,9.099 9.045,9.106 9.041 C 9.113 9.036,9.288 8.398,9.495 7.623 C 10.019 5.661,10.017 5.668,10.107 5.634 C 10.151 5.617,10.909 5.798,11.791 6.036 L 13.395 6.468 14.634 5.234 C 15.385 4.485,15.913 3.999,15.976 3.998 C 16.043 3.997,16.523 4.447,17.311 5.250 M14.802 5.651 C 14.305 6.149,13.912 6.570,13.930 6.587 C 13.959 6.617,15.661 7.090,15.747 7.092 C 15.769 7.093,15.787 6.565,15.787 5.920 C 15.787 5.275,15.768 4.747,15.746 4.747 C 15.724 4.747,15.299 5.154,14.802 5.651 M16.160 5.950 C 16.160 7.072,16.166 7.152,16.253 7.125 C 16.305 7.109,16.707 7.000,17.147 6.881 C 17.587 6.763,17.981 6.654,18.024 6.638 C 18.076 6.618,17.804 6.311,17.171 5.678 C 16.660 5.166,16.223 4.747,16.201 4.747 C 16.178 4.747,16.160 5.288,16.160 5.950 M20.142 6.495 L 18.871 6.844 19.594 7.566 C 19.991 7.964,20.325 8.278,20.335 8.264 C 20.362 8.231,21.410 6.402,21.488 6.253 C 21.537 6.158,21.536 6.135,21.482 6.139 C 21.444 6.143,20.841 6.303,20.142 6.495 M11.884 6.800 C 12.240 7.049,12.548 7.253,12.570 7.253 C 12.592 7.253,12.712 7.153,12.838 7.029 L 13.066 6.805 12.226 6.577 C 11.764 6.452,11.353 6.349,11.312 6.348 C 11.271 6.347,11.528 6.551,11.884 6.800 M10.221 6.489 C 10.073 6.984,9.592 8.863,9.608 8.879 C 9.629 8.900,11.358 8.446,11.394 8.411 C 11.408 8.397,10.322 6.469,10.266 6.409 C 10.257 6.400,10.237 6.436,10.221 6.489 M10.883 6.667 C 10.929 6.740,11.143 7.107,11.358 7.482 C 11.796 8.247,11.754 8.231,12.114 7.778 L 12.269 7.582 11.801 7.248 C 11.544 7.065,11.213 6.829,11.067 6.724 C 10.827 6.553,10.809 6.547,10.883 6.667 M21.381 7.267 C 21.258 7.479,21.063 7.818,20.947 8.019 C 20.831 8.219,20.756 8.402,20.781 8.424 C 20.828 8.465,21.452 8.647,21.471 8.626 C 21.487 8.608,21.631 6.880,21.617 6.880 C 21.610 6.880,21.504 7.054,21.381 7.267 M13.238 7.215 C 13.085 7.370,12.960 7.510,12.960 7.526 C 12.960 7.542,13.063 7.629,13.188 7.719 L 13.417 7.883 14.294 7.645 C 14.776 7.514,15.177 7.401,15.185 7.393 C 15.197 7.381,13.591 6.933,13.535 6.933 C 13.525 6.933,13.391 7.060,13.238 7.215 M17.562 7.189 C 17.175 7.295,16.863 7.387,16.869 7.393 C 16.888 7.412,19.498 8.107,19.550 8.107 C 19.577 8.107,19.347 7.855,19.040 7.547 C 18.683 7.188,18.443 6.988,18.374 6.991 C 18.315 6.993,17.950 7.082,17.562 7.189 M22.011 7.253 C 21.976 7.357,21.865 8.710,21.890 8.735 C 21.915 8.759,22.472 8.906,22.486 8.891 C 22.492 8.885,22.393 8.496,22.267 8.027 C 22.141 7.557,22.026 7.209,22.011 7.253 M14.933 7.896 C 14.420 8.038,13.967 8.161,13.926 8.170 C 13.885 8.179,14.413 8.581,15.099 9.064 C 15.785 9.546,16.831 10.283,17.423 10.700 L 18.499 11.458 19.282 10.097 C 19.712 9.349,20.044 8.718,20.019 8.696 C 19.948 8.632,16.141 7.626,15.995 7.633 C 15.925 7.636,15.447 7.755,14.933 7.896 M12.453 8.000 C 12.281 8.180,12.287 8.183,12.616 8.100 C 12.880 8.034,12.894 8.016,12.760 7.914 C 12.632 7.817,12.627 7.819,12.453 8.000 M12.693 8.501 C 12.356 8.595,12.084 8.696,12.089 8.723 C 12.100 8.785,13.589 11.370,13.647 11.428 C 13.670 11.451,14.045 11.300,14.482 11.093 C 15.694 10.516,15.755 10.591,15.071 11.813 C 14.819 12.263,14.613 12.649,14.613 12.671 C 14.613 12.693,15.326 12.695,16.197 12.677 C 17.377 12.652,17.796 12.626,17.843 12.575 C 17.878 12.537,17.993 12.350,18.098 12.158 L 18.289 11.810 15.831 10.078 C 14.479 9.126,13.358 8.343,13.340 8.337 C 13.321 8.332,13.031 8.406,12.693 8.501 M10.799 9.667 C 10.360 10.114,9.739 10.747,9.420 11.074 L 8.840 11.669 8.533 12.808 C 8.364 13.434,8.242 13.953,8.262 13.961 C 8.291 13.972,13.215 11.704,13.268 11.655 C 13.295 11.631,11.697 8.886,11.647 8.869 C 11.621 8.860,11.239 9.219,10.799 9.667 M19.640 10.287 C 19.222 11.014,18.880 11.636,18.880 11.668 C 18.880 11.700,19.189 11.944,19.567 12.209 C 19.945 12.475,20.269 12.729,20.286 12.774 C 20.304 12.819,20.271 12.902,20.212 12.961 C 20.115 13.058,20.032 13.067,19.142 13.067 C 18.560 13.067,18.185 13.087,18.196 13.117 C 18.205 13.145,18.561 13.757,18.987 14.477 L 19.760 15.786 20.307 15.786 C 20.837 15.787,20.853 15.783,20.856 15.667 C 20.858 15.601,20.973 14.281,21.111 12.734 L 21.364 9.922 20.882 9.443 L 20.400 8.964 19.640 10.287 M21.170 9.141 C 21.387 9.367,21.440 9.380,21.440 9.203 C 21.440 9.052,21.424 9.039,21.173 8.987 L 20.987 8.948 21.170 9.141 M10.097 9.193 C 9.769 9.285,9.487 9.376,9.468 9.394 C 9.431 9.431,9.063 10.788,9.085 10.809 C 9.092 10.817,9.505 10.416,10.002 9.918 C 10.604 9.315,10.870 9.015,10.799 9.019 C 10.741 9.023,10.425 9.101,10.097 9.193 M21.802 9.453 L 21.780 9.733 22.393 10.359 C 22.730 10.703,23.015 10.976,23.026 10.965 C 23.056 10.935,22.663 9.476,22.606 9.406 C 22.568 9.359,21.963 9.173,21.848 9.173 C 21.834 9.173,21.814 9.299,21.802 9.453 M7.801 9.811 C 7.178 9.982,6.605 10.137,6.527 10.157 C 6.445 10.177,6.405 10.212,6.432 10.238 C 6.543 10.345,8.438 11.420,8.465 11.392 C 8.513 11.345,9.001 9.493,8.965 9.497 C 8.948 9.500,8.424 9.641,7.801 9.811 M23.105 9.578 C 23.120 9.634,23.236 10.070,23.361 10.546 L 23.590 11.412 23.861 11.258 C 25.164 10.522,25.682 10.228,25.695 10.216 C 25.703 10.208,25.152 10.052,24.472 9.869 C 23.791 9.686,23.199 9.522,23.155 9.506 C 23.098 9.484,23.084 9.503,23.105 9.578 M21.501 12.946 C 21.374 14.406,21.260 15.642,21.245 15.693 C 21.221 15.781,21.319 15.787,22.770 15.787 C 23.622 15.787,24.320 15.769,24.320 15.748 C 24.320 15.726,24.088 14.840,23.805 13.779 L 23.290 11.849 22.510 11.070 L 21.730 10.291 21.501 12.946 M24.881 11.150 C 24.325 11.466,23.863 11.745,23.855 11.770 C 23.846 11.794,24.151 12.125,24.531 12.504 C 25.001 12.973,25.231 13.169,25.250 13.117 C 25.316 12.935,25.926 10.602,25.910 10.590 C 25.901 10.582,25.438 10.835,24.881 11.150 M6.187 10.673 C 6.187 10.775,6.782 12.984,6.820 13.026 C 6.840 13.047,7.153 12.768,7.515 12.405 L 8.173 11.746 7.806 11.532 C 6.690 10.881,6.224 10.613,6.206 10.613 C 6.196 10.613,6.187 10.640,6.187 10.673 M14.304 11.627 L 13.862 11.835 14.023 12.117 C 14.111 12.272,14.202 12.405,14.225 12.412 C 14.248 12.420,14.317 12.336,14.378 12.226 C 14.439 12.116,14.567 11.889,14.662 11.720 C 14.757 11.551,14.815 11.415,14.791 11.416 C 14.766 11.418,14.548 11.513,14.304 11.627 M10.768 13.273 L 8.068 14.533 7.928 15.067 C 7.850 15.360,7.772 15.654,7.754 15.720 L 7.721 15.840 9.297 15.840 C 10.752 15.840,10.875 15.833,10.899 15.747 C 10.913 15.695,10.955 15.285,10.991 14.835 C 11.054 14.053,11.105 13.867,11.253 13.867 C 11.343 13.867,11.457 14.030,11.923 14.823 C 12.183 15.265,12.411 15.627,12.432 15.627 C 12.475 15.627,13.973 12.972,13.973 12.895 C 13.973 12.837,13.641 12.231,13.536 12.099 C 13.474 12.021,13.195 12.139,10.768 13.273 M18.460 12.333 L 18.298 12.613 18.560 12.629 C 18.705 12.638,18.960 12.638,19.127 12.629 L 19.431 12.613 19.092 12.373 C 18.906 12.241,18.724 12.115,18.688 12.093 C 18.644 12.066,18.568 12.147,18.460 12.333 M7.589 12.920 L 6.940 13.573 7.053 14.000 C 7.115 14.235,7.173 14.436,7.182 14.448 C 7.225 14.505,7.693 14.268,7.736 14.167 C 7.762 14.105,7.881 13.681,8.001 13.227 C 8.120 12.772,8.228 12.370,8.241 12.333 C 8.253 12.297,8.258 12.267,8.251 12.267 C 8.244 12.267,7.946 12.561,7.589 12.920 M23.893 12.497 C 23.893 12.548,24.580 15.140,24.623 15.253 C 24.657 15.343,24.654 15.353,24.926 14.339 L 25.107 13.665 24.500 13.060 C 24.166 12.727,23.893 12.474,23.893 12.497 M14.882 13.117 L 14.324 13.147 13.665 14.320 C 13.303 14.965,12.932 15.629,12.841 15.794 L 12.676 16.094 13.524 17.539 L 14.373 18.984 15.013 18.985 C 15.365 18.986,16.139 18.971,16.733 18.951 L 17.813 18.916 18.613 17.490 C 19.053 16.705,19.413 16.047,19.413 16.027 C 19.413 16.008,19.024 15.334,18.549 14.529 L 17.684 13.067 16.562 13.077 C 15.945 13.083,15.189 13.101,14.882 13.117 M5.812 14.694 C 5.388 15.119,5.056 15.467,5.073 15.467 C 5.091 15.467,5.414 15.321,5.792 15.142 C 6.170 14.963,6.555 14.785,6.649 14.746 L 6.819 14.675 6.738 14.364 C 6.693 14.193,6.640 14.024,6.620 13.988 C 6.596 13.945,6.315 14.191,5.812 14.694 M25.419 14.083 C 25.352 14.279,24.971 15.762,24.983 15.774 C 24.991 15.782,25.494 15.782,26.100 15.774 L 27.201 15.760 26.323 14.883 C 25.739 14.300,25.436 14.032,25.419 14.083 M7.427 14.831 C 7.289 14.883,7.284 14.907,7.369 15.149 L 7.431 15.327 7.505 15.071 C 7.546 14.930,7.572 14.809,7.563 14.801 C 7.554 14.792,7.493 14.806,7.427 14.831 M11.389 14.893 C 11.377 14.930,11.353 15.158,11.334 15.400 L 11.299 15.840 11.655 15.840 C 11.972 15.840,12.008 15.830,11.976 15.747 C 11.925 15.614,11.461 14.827,11.433 14.827 C 11.420 14.827,11.401 14.857,11.389 14.893 M6.107 15.446 C 5.697 15.638,5.351 15.805,5.338 15.817 C 5.326 15.830,5.719 15.840,6.211 15.840 L 7.107 15.840 7.073 15.670 C 7.007 15.340,6.929 15.093,6.891 15.095 C 6.870 15.096,6.517 15.254,6.107 15.446 M20.068 16.280 C 20.082 16.317,20.226 16.572,20.388 16.847 C 20.721 17.414,20.709 17.421,20.775 16.627 L 20.809 16.213 20.426 16.213 C 20.140 16.213,20.049 16.230,20.068 16.280 M21.204 16.333 C 21.190 16.399,21.152 16.789,21.120 17.200 C 21.088 17.611,21.051 17.998,21.038 18.061 C 21.012 18.186,20.895 18.253,20.778 18.208 C 20.737 18.192,20.479 17.797,20.205 17.330 C 19.931 16.863,19.693 16.481,19.677 16.481 C 19.660 16.480,19.295 17.106,18.864 17.870 L 18.082 19.261 18.308 19.657 C 18.432 19.874,18.550 20.052,18.571 20.053 C 18.592 20.053,19.840 19.480,21.344 18.780 L 24.080 17.506 24.223 16.980 C 24.302 16.690,24.380 16.399,24.398 16.333 L 24.429 16.213 22.829 16.213 L 21.229 16.213 21.204 16.333 M24.907 16.277 C 24.907 16.339,25.072 16.971,25.097 17.004 C 25.110 17.021,26.538 16.370,26.713 16.267 C 26.770 16.234,26.477 16.216,25.853 16.215 C 25.159 16.214,24.907 16.230,24.907 16.277 M5.707 17.200 C 6.219 17.713,6.652 18.133,6.669 18.133 C 6.686 18.133,6.739 17.971,6.788 17.773 C 6.836 17.575,6.946 17.155,7.032 16.840 L 7.188 16.267 5.981 16.267 L 4.774 16.267 5.707 17.200 M7.680 16.295 C 7.680 16.311,7.911 17.193,8.193 18.255 L 8.706 20.187 9.511 20.999 C 9.954 21.446,10.332 21.794,10.350 21.772 C 10.369 21.751,10.484 20.557,10.607 19.120 C 10.730 17.683,10.842 16.453,10.857 16.387 L 10.882 16.267 9.281 16.267 C 8.400 16.267,7.680 16.279,7.680 16.295 M11.253 16.333 C 11.252 16.370,11.134 17.720,10.990 19.333 L 10.727 22.267 11.196 22.739 L 11.664 23.210 12.469 21.811 L 13.274 20.411 12.624 19.959 C 11.853 19.422,11.733 19.319,11.733 19.193 C 11.733 19.018,11.916 18.987,12.925 18.987 L 13.911 18.987 13.108 17.627 L 12.304 16.267 11.779 16.267 C 11.394 16.267,11.253 16.285,11.253 16.333 M25.947 17.082 C 25.565 17.262,25.245 17.414,25.235 17.420 C 25.205 17.439,25.348 18.027,25.383 18.027 C 25.400 18.027,25.702 17.739,26.053 17.387 C 26.404 17.035,26.680 16.749,26.666 16.751 C 26.652 16.753,26.328 16.902,25.947 17.082 M7.349 17.253 C 7.306 17.400,7.213 17.742,7.143 18.014 L 7.015 18.508 7.582 19.074 L 8.148 19.641 7.806 18.367 C 7.618 17.667,7.456 17.069,7.446 17.040 C 7.436 17.011,7.393 17.107,7.349 17.253 M24.627 17.044 C 24.605 17.066,24.587 17.133,24.587 17.193 C 24.587 17.271,24.603 17.285,24.645 17.243 C 24.677 17.211,24.695 17.144,24.685 17.094 C 24.675 17.044,24.649 17.022,24.627 17.044 M24.640 17.699 C 24.537 17.745,24.446 17.787,24.437 17.792 C 24.422 17.801,24.001 19.360,24.000 19.412 C 24.000 19.426,24.228 19.211,24.507 18.933 C 24.785 18.656,25.012 18.392,25.011 18.348 C 25.010 18.303,24.968 18.120,24.918 17.941 L 24.827 17.615 24.640 17.699 M21.359 19.226 C 19.951 19.882,18.800 20.438,18.800 20.463 C 18.800 20.525,20.281 23.093,20.317 23.093 C 20.334 23.093,21.036 22.403,21.879 21.560 L 23.410 20.027 23.674 19.040 C 23.819 18.497,23.933 18.049,23.928 18.043 C 23.922 18.038,22.766 18.570,21.359 19.226 M24.453 19.573 C 24.075 19.953,23.776 20.272,23.789 20.283 C 23.851 20.335,25.838 21.486,25.849 21.476 C 25.864 21.461,25.186 18.928,25.160 18.903 C 25.150 18.892,24.832 19.194,24.453 19.573 M6.861 19.073 C 6.775 19.352,6.240 21.387,6.240 21.433 C 6.240 21.477,8.041 20.445,8.172 20.325 C 8.194 20.306,7.914 19.994,7.551 19.631 C 7.011 19.092,6.886 18.991,6.861 19.073 M14.689 19.399 L 14.312 19.418 14.094 19.802 C 13.973 20.014,13.867 20.214,13.858 20.247 C 13.844 20.294,16.618 22.290,18.486 23.577 L 18.706 23.729 19.326 23.564 C 19.667 23.473,19.947 23.380,19.947 23.357 C 19.947 23.300,18.510 20.794,18.423 20.700 C 18.367 20.638,18.234 20.683,17.597 20.981 C 16.489 21.498,16.409 21.412,17.006 20.355 C 17.207 19.998,17.412 19.629,17.461 19.533 L 17.549 19.360 16.308 19.371 C 15.625 19.376,14.897 19.389,14.689 19.399 M12.779 19.563 C 12.893 19.645,13.099 19.789,13.236 19.883 L 13.486 20.053 13.649 19.767 C 13.740 19.609,13.813 19.465,13.813 19.447 C 13.813 19.428,13.534 19.413,13.192 19.413 L 12.571 19.413 12.779 19.563 M17.575 20.168 C 17.441 20.407,17.339 20.610,17.348 20.620 C 17.358 20.629,17.550 20.550,17.775 20.444 L 18.184 20.250 18.038 19.992 C 17.959 19.850,17.877 19.733,17.857 19.733 C 17.836 19.733,17.710 19.929,17.575 20.168 M12.834 21.988 C 12.408 22.728,12.076 23.349,12.096 23.368 C 12.135 23.404,15.917 24.426,16.021 24.428 C 16.053 24.429,16.552 24.305,17.130 24.153 C 18.145 23.886,18.176 23.874,18.063 23.787 C 17.999 23.738,17.047 23.067,15.947 22.295 C 14.847 21.523,13.871 20.836,13.778 20.767 L 13.609 20.642 12.834 21.988 M7.424 21.253 C 6.917 21.556,6.501 21.823,6.501 21.846 C 6.501 21.891,8.846 22.531,8.882 22.496 C 8.894 22.484,8.808 22.115,8.690 21.677 C 8.423 20.680,8.427 20.693,8.383 20.697 C 8.363 20.699,7.931 20.949,7.424 21.253 M23.416 21.574 C 23.288 22.059,23.197 22.468,23.214 22.485 C 23.239 22.510,24.339 22.232,25.376 21.938 L 25.659 21.857 24.666 21.275 C 24.120 20.955,23.667 20.693,23.661 20.693 C 23.654 20.693,23.544 21.090,23.416 21.574 M22.025 22.002 C 21.425 22.602,20.966 23.093,21.004 23.093 C 21.043 23.093,21.442 22.995,21.890 22.874 L 22.706 22.655 22.932 21.804 C 23.057 21.337,23.149 20.944,23.137 20.932 C 23.125 20.920,22.624 21.402,22.025 22.002 M8.973 21.147 C 9.117 21.739,9.357 22.596,9.387 22.630 C 9.421 22.668,10.146 22.877,10.253 22.879 C 10.275 22.880,10.293 22.766,10.293 22.626 L 10.293 22.372 9.620 21.706 C 9.250 21.340,8.958 21.088,8.973 21.147 M10.667 22.908 C 10.667 22.984,10.878 23.107,10.929 23.061 C 10.959 23.033,10.768 22.827,10.712 22.827 C 10.687 22.827,10.667 22.863,10.667 22.908 M9.685 23.821 C 9.786 24.198,9.908 24.658,9.955 24.842 C 10.002 25.026,10.048 25.170,10.056 25.161 C 10.065 25.153,10.098 24.846,10.130 24.480 C 10.162 24.113,10.201 23.701,10.218 23.563 L 10.249 23.313 10.042 23.257 C 9.928 23.227,9.759 23.186,9.667 23.168 L 9.500 23.135 9.685 23.821 M21.523 23.394 C 21.055 23.524,20.662 23.640,20.650 23.653 C 20.637 23.665,20.900 24.154,21.233 24.739 C 21.673 25.510,21.851 25.779,21.879 25.715 C 21.918 25.626,22.560 23.233,22.560 23.177 C 22.560 23.119,22.370 23.159,21.523 23.394 M10.564 24.199 C 10.529 24.632,10.488 25.047,10.473 25.120 C 10.456 25.206,10.464 25.234,10.497 25.200 C 10.577 25.117,11.410 23.659,11.389 23.638 C 11.379 23.628,11.255 23.589,11.112 23.551 C 10.970 23.514,10.802 23.467,10.740 23.447 C 10.630 23.412,10.626 23.433,10.564 24.199 M19.932 24.095 C 19.793 24.235,19.680 24.366,19.680 24.384 C 19.680 24.423,21.126 25.453,21.148 25.429 C 21.170 25.405,20.270 23.868,20.224 23.853 C 20.202 23.845,20.070 23.954,19.932 24.095 M11.303 24.653 C 11.062 25.071,10.805 25.516,10.732 25.642 C 10.660 25.768,10.609 25.878,10.620 25.887 C 10.656 25.915,13.066 25.254,13.066 25.216 C 13.067 25.163,11.837 23.893,11.784 23.893 C 11.761 23.893,11.544 24.235,11.303 24.653 M12.960 24.498 L 13.573 25.112 14.393 24.892 C 14.967 24.737,15.182 24.659,15.113 24.630 C 15.058 24.608,14.461 24.444,13.787 24.265 C 13.112 24.087,12.512 23.928,12.453 23.912 C 12.395 23.896,12.623 24.160,12.960 24.498 M19.293 23.983 C 19.194 24.009,19.170 24.082,19.246 24.129 C 19.272 24.145,19.335 24.110,19.388 24.052 C 19.483 23.947,19.470 23.937,19.293 23.983 M17.656 24.433 C 17.232 24.549,16.880 24.649,16.873 24.656 C 16.866 24.663,17.209 24.762,17.635 24.876 L 18.409 25.084 18.695 24.768 L 18.981 24.453 18.837 24.334 C 18.648 24.176,18.565 24.183,17.656 24.433 M19.095 24.932 C 18.966 25.063,18.870 25.182,18.883 25.194 C 18.916 25.227,20.711 25.707,20.730 25.688 C 20.744 25.674,19.445 24.742,19.362 24.706 C 19.344 24.698,19.224 24.800,19.095 24.932 M16.160 26.076 C 16.160 26.724,16.178 27.253,16.201 27.253 C 16.258 27.253,18.054 25.449,18.024 25.421 C 18.011 25.408,17.628 25.299,17.173 25.177 C 16.719 25.056,16.305 24.944,16.253 24.928 C 16.166 24.901,16.160 24.980,16.160 26.076 M15.013 25.144 C 14.661 25.241,14.268 25.349,14.138 25.384 L 13.903 25.449 14.804 26.351 C 15.300 26.847,15.724 27.253,15.746 27.253 C 15.768 27.253,15.787 26.737,15.787 26.107 C 15.787 25.223,15.771 24.961,15.720 24.964 C 15.683 24.967,15.365 25.048,15.013 25.144 " stroke="none" fill-rule="evenodd" fill="black"></path></svg>