<svg viewBox="0 0 32 32" xmlns="http://www.w3.org/2000/svg"><path d="M14.933 0.034 C 10.237 0.384,6.020 2.671,3.211 6.391 C 1.590 8.538,0.590 10.959,0.146 13.813 C -0.017 14.858,-0.017 17.142,0.146 18.187 C 0.830 22.578,2.950 26.177,6.391 28.787 C 8.515 30.398,10.963 31.410,13.813 31.854 C 14.858 32.017,17.142 32.017,18.187 31.854 C 20.149 31.549,21.935 30.970,23.505 30.132 C 26.290 28.646,28.646 26.290,30.132 23.505 C 30.970 21.935,31.549 20.149,31.854 18.187 C 32.017 17.142,32.017 14.858,31.854 13.813 C 31.410 10.961,30.399 8.515,28.784 6.386 C 26.139 2.901,22.361 0.710,18.000 0.132 C 17.376 0.050,15.520 -0.010,14.933 0.034 M15.886 6.164 C 16.045 6.252,16.675 6.859,17.653 7.867 L 19.173 9.433 20.427 8.156 C 21.751 6.806,21.929 6.670,22.373 6.668 C 22.711 6.667,22.977 6.765,23.212 6.977 C 23.663 7.383,23.798 7.988,23.553 8.507 C 23.376 8.883,20.228 12.122,19.834 12.333 C 19.517 12.504,19.106 12.530,18.785 12.400 C 18.647 12.344,18.086 11.809,16.933 10.633 L 15.279 8.945 12.276 12.024 L 9.273 15.103 10.067 15.912 C 10.675 16.532,10.884 16.780,10.958 16.973 C 11.242 17.716,10.697 18.535,9.921 18.530 C 9.743 18.529,9.555 18.490,9.445 18.431 C 9.160 18.281,6.826 15.883,6.653 15.565 C 6.475 15.237,6.463 14.902,6.615 14.567 C 6.684 14.414,7.045 14.004,7.669 13.367 C 8.190 12.835,9.970 11.012,11.625 9.316 C 13.279 7.620,14.718 6.188,14.823 6.132 C 15.113 5.979,15.577 5.992,15.886 6.164 M22.620 13.620 C 22.933 13.804,25.266 16.224,25.387 16.490 C 25.538 16.823,25.524 17.158,25.347 17.484 C 25.244 17.671,24.024 18.957,21.315 21.730 C 19.178 23.917,17.363 25.754,17.283 25.811 C 17.033 25.989,16.669 26.043,16.349 25.950 C 16.053 25.864,16.118 25.925,13.491 23.237 L 12.822 22.552 11.558 23.839 C 10.722 24.689,10.226 25.154,10.093 25.210 C 9.798 25.336,9.347 25.322,9.048 25.177 C 8.422 24.874,8.157 24.075,8.465 23.422 C 8.516 23.313,9.306 22.458,10.256 21.483 C 11.513 20.193,12.020 19.707,12.204 19.618 C 12.510 19.469,12.955 19.457,13.231 19.591 C 13.396 19.671,14.935 21.183,16.298 22.604 L 16.724 23.048 19.726 19.972 L 22.729 16.897 21.951 16.108 C 21.453 15.602,21.136 15.236,21.068 15.086 C 20.920 14.759,20.930 14.428,21.100 14.087 C 21.387 13.511,22.075 13.299,22.620 13.620 " stroke="none" fill-rule="evenodd" fill="black"></path></svg>