<svg width="32" height="32" xmlns="http://www.w3.org/2000/svg"><path d="M14.933 0.034 C 10.237 0.384,6.020 2.671,3.211 6.391 C 1.590 8.538,0.590 10.959,0.146 13.813 C -0.017 14.858,-0.017 17.142,0.146 18.187 C 0.830 22.578,2.950 26.177,6.391 28.787 C 8.515 30.398,10.963 31.410,13.813 31.854 C 14.858 32.017,17.142 32.017,18.187 31.854 C 20.149 31.549,21.935 30.970,23.505 30.132 C 26.290 28.646,28.646 26.290,30.132 23.505 C 30.970 21.935,31.549 20.149,31.854 18.187 C 32.017 17.142,32.017 14.858,31.854 13.813 C 31.410 10.961,30.399 8.515,28.784 6.386 C 26.139 2.901,22.361 0.710,18.000 0.132 C 17.376 0.050,15.520 -0.010,14.933 0.034 M24.400 7.102 C 24.618 7.222,24.779 7.403,24.877 7.639 C 24.951 7.814,24.960 8.749,24.959 15.985 C 24.958 23.775,24.953 24.143,24.860 24.349 C 24.740 24.612,24.490 24.831,24.225 24.904 C 24.093 24.941,21.340 24.960,15.945 24.960 L 7.863 24.960 7.628 24.840 C 7.499 24.774,7.319 24.628,7.230 24.515 L 7.067 24.310 7.053 16.047 C 7.039 8.001,7.042 7.779,7.141 7.586 C 7.197 7.476,7.303 7.331,7.376 7.262 C 7.681 6.978,7.288 6.990,16.080 7.002 C 23.560 7.012,24.253 7.021,24.400 7.102 M9.592 9.273 C 9.429 9.377,9.311 9.507,9.233 9.666 L 9.118 9.904 9.132 16.032 L 9.147 22.160 9.270 22.333 C 9.338 22.429,9.481 22.573,9.586 22.653 L 9.778 22.800 15.906 22.814 C 21.825 22.828,22.042 22.825,22.263 22.727 C 22.540 22.605,22.745 22.349,22.825 22.027 C 22.867 21.856,22.879 20.069,22.869 15.840 C 22.854 10.015,22.851 9.889,22.747 9.683 C 22.688 9.568,22.548 9.400,22.435 9.310 L 22.230 9.147 16.033 9.133 L 9.836 9.119 9.592 9.273 M15.693 10.691 C 16.732 10.912,17.612 11.643,18.133 12.720 C 18.452 13.380,18.520 13.672,18.518 14.371 C 18.514 15.765,17.771 17.088,16.669 17.663 C 16.099 17.961,15.935 17.990,14.667 18.023 L 13.467 18.053 13.468 19.693 L 13.469 21.333 12.068 21.333 L 10.667 21.333 10.667 15.973 L 10.667 10.613 13.000 10.614 C 14.817 10.615,15.413 10.632,15.693 10.691 M13.440 14.347 L 13.440 15.467 14.293 15.467 L 15.146 15.467 15.351 15.282 C 15.589 15.067,15.680 14.813,15.680 14.367 C 15.679 13.918,15.591 13.659,15.360 13.428 L 15.159 13.227 14.300 13.227 L 13.440 13.227 13.440 14.347 M21.333 20.320 L 21.333 21.333 18.027 21.333 L 14.720 21.333 14.720 20.320 L 14.720 19.307 18.027 19.307 L 21.333 19.307 21.333 20.320 " stroke="none" fill-rule="evenodd" fill="black"></path></svg>