<svg viewBox="0 0 32 32" xmlns="http://www.w3.org/2000/svg"><path d="M14.933 0.034 C 10.237 0.384,6.020 2.671,3.211 6.391 C 1.590 8.538,0.590 10.959,0.146 13.813 C -0.017 14.858,-0.017 17.142,0.146 18.187 C 0.830 22.578,2.950 26.177,6.391 28.787 C 8.515 30.398,10.963 31.410,13.813 31.854 C 14.858 32.017,17.142 32.017,18.187 31.854 C 20.149 31.549,21.935 30.970,23.505 30.132 C 26.290 28.646,28.646 26.290,30.132 23.505 C 30.970 21.935,31.549 20.149,31.854 18.187 C 32.017 17.142,32.017 14.858,31.854 13.813 C 31.410 10.961,30.399 8.515,28.784 6.386 C 26.139 2.901,22.361 0.710,18.000 0.132 C 17.376 0.050,15.520 -0.010,14.933 0.034 M17.481 6.181 C 18.636 6.437,19.826 6.959,20.747 7.613 C 21.398 8.076,22.328 9.007,22.785 9.653 C 24.705 12.370,24.991 15.872,23.537 18.867 C 23.377 19.197,23.228 19.467,23.206 19.467 C 23.184 19.467,23.102 19.209,23.025 18.893 C 22.612 17.209,21.486 16.096,19.825 15.730 C 19.263 15.606,19.489 15.547,20.521 15.547 L 21.485 15.547 21.520 15.200 C 21.593 14.477,21.380 13.333,21.012 12.468 C 20.640 11.594,19.721 10.494,18.933 9.981 C 17.461 9.021,15.664 8.757,14.055 9.264 C 12.557 9.737,11.233 10.881,10.566 12.281 C 9.844 13.797,9.784 15.542,10.400 17.094 C 11.233 19.191,13.206 20.624,15.408 20.732 L 16.016 20.762 15.982 20.554 C 15.910 20.120,15.885 19.015,15.946 18.933 C 15.998 18.863,16.014 18.866,16.069 18.952 C 16.823 20.121,17.172 20.548,17.760 21.019 C 18.526 21.633,19.234 21.954,20.502 22.265 C 22.074 22.649,22.873 22.968,23.771 23.568 C 24.629 24.142,26.002 25.556,25.964 25.826 C 25.933 26.045,25.734 26.007,25.398 25.719 C 24.123 24.622,22.837 23.953,21.413 23.647 C 20.823 23.520,19.271 23.531,17.632 23.675 C 16.131 23.806,15.328 23.814,14.560 23.705 C 12.598 23.426,10.909 22.553,9.489 21.083 C 7.730 19.261,6.837 16.757,7.042 14.215 C 7.145 12.931,7.404 11.998,7.974 10.853 C 8.427 9.944,8.907 9.279,9.629 8.560 C 10.973 7.221,12.558 6.409,14.427 6.101 C 15.080 5.993,16.845 6.039,17.481 6.181 M22.230 18.693 C 22.607 19.011,22.736 20.000,22.400 20.000 C 22.267 20.000,21.996 19.706,21.839 19.392 C 21.541 18.794,21.800 18.331,22.230 18.693 M20.702 20.246 C 21.002 20.454,21.198 20.762,21.198 21.026 C 21.198 21.464,20.663 21.689,20.174 21.457 C 19.894 21.324,19.680 20.956,19.680 20.608 C 19.680 20.360,19.699 20.314,19.851 20.186 C 19.995 20.065,20.058 20.046,20.252 20.068 C 20.384 20.083,20.576 20.159,20.702 20.246 " stroke="none" fill-rule="evenodd" fill="black"></path></svg>