<svg viewBox="0 0 32 32" xmlns="http://www.w3.org/2000/svg"><path d="M14.933 0.034 C 10.237 0.384,6.020 2.671,3.211 6.391 C 1.590 8.538,0.590 10.959,0.146 13.813 C -0.017 14.858,-0.017 17.142,0.146 18.187 C 0.830 22.578,2.950 26.177,6.391 28.787 C 8.515 30.398,10.963 31.410,13.813 31.854 C 14.858 32.017,17.142 32.017,18.187 31.854 C 20.149 31.549,21.935 30.970,23.505 30.132 C 26.290 28.646,28.646 26.290,30.132 23.505 C 30.970 21.935,31.549 20.149,31.854 18.187 C 32.017 17.142,32.017 14.858,31.854 13.813 C 31.410 10.961,30.399 8.515,28.784 6.386 C 26.139 2.901,22.361 0.710,18.000 0.132 C 17.376 0.050,15.520 -0.010,14.933 0.034 M13.211 6.131 C 13.305 6.189,13.432 6.333,13.492 6.451 L 13.602 6.667 15.728 6.667 L 17.854 6.667 17.920 6.506 C 17.957 6.418,18.068 6.274,18.168 6.186 C 18.322 6.051,18.395 6.027,18.638 6.027 C 19.131 6.027,19.438 6.384,19.405 6.921 L 19.387 7.215 20.933 8.356 C 23.073 9.933,22.851 9.792,23.018 9.682 C 23.200 9.563,23.554 9.559,23.776 9.674 C 24.027 9.804,24.160 10.050,24.160 10.385 C 24.160 10.618,24.134 10.692,23.999 10.847 L 23.837 11.030 24.468 13.100 L 25.098 15.170 25.330 15.237 C 25.719 15.350,25.920 15.610,25.920 16.000 C 25.920 16.390,25.666 16.709,25.301 16.778 C 25.202 16.797,25.120 16.820,25.120 16.830 C 25.120 16.840,24.798 17.887,24.404 19.157 C 24.011 20.428,23.681 21.504,23.671 21.549 C 23.660 21.600,23.949 21.894,24.427 22.318 C 24.852 22.695,25.274 23.073,25.364 23.157 L 25.529 23.310 25.818 23.176 C 26.637 22.794,27.467 23.316,27.467 24.213 C 27.467 24.587,27.356 24.844,27.085 25.103 C 26.859 25.319,26.677 25.387,26.330 25.385 C 25.975 25.384,25.664 25.241,25.448 24.980 C 25.179 24.655,25.123 24.298,25.253 23.733 C 25.280 23.614,25.181 23.510,24.345 22.773 C 23.829 22.319,23.384 21.938,23.355 21.928 C 23.327 21.918,22.418 22.574,21.336 23.385 L 19.368 24.860 19.396 25.137 C 19.419 25.368,19.403 25.443,19.298 25.595 C 19.103 25.879,18.917 25.991,18.640 25.991 C 18.357 25.991,18.171 25.876,17.978 25.582 L 17.849 25.387 15.711 25.387 L 13.573 25.387 13.467 25.584 C 13.192 26.093,12.456 26.122,12.157 25.637 C 12.078 25.511,12.055 25.391,12.066 25.173 L 12.080 24.880 10.323 23.567 L 8.566 22.254 8.350 22.353 C 8.073 22.478,7.977 22.477,7.707 22.347 C 7.453 22.224,7.253 21.918,7.253 21.654 C 7.253 21.444,7.395 21.132,7.528 21.049 C 7.582 21.015,7.626 20.951,7.625 20.907 C 7.624 20.863,7.342 19.929,6.997 18.832 L 6.371 16.837 6.127 16.766 C 5.479 16.577,5.297 15.851,5.789 15.419 C 5.896 15.324,6.064 15.240,6.181 15.221 L 6.386 15.189 7.023 13.128 L 7.661 11.067 7.544 10.975 C 7.389 10.853,7.253 10.559,7.253 10.346 C 7.253 10.120,7.437 9.800,7.634 9.684 C 7.834 9.566,8.230 9.564,8.408 9.681 C 8.569 9.786,8.357 9.920,10.587 8.306 L 12.080 7.225 12.062 6.898 C 12.041 6.510,12.137 6.285,12.389 6.131 C 12.613 5.995,12.987 5.995,13.211 6.131 M13.488 7.164 C 13.437 7.275,13.531 7.429,14.413 8.690 L 15.394 10.092 15.718 10.099 L 16.042 10.107 17.027 8.694 C 17.900 7.441,18.006 7.267,17.958 7.160 L 17.903 7.040 15.724 7.040 L 13.544 7.040 13.488 7.164 M12.893 7.559 C 12.800 7.572,12.719 7.634,12.673 7.724 C 12.550 7.963,11.307 10.922,11.308 10.969 C 11.309 10.994,11.356 11.069,11.413 11.136 L 11.515 11.259 13.201 11.017 C 14.129 10.884,14.910 10.761,14.937 10.744 C 14.964 10.727,14.987 10.679,14.987 10.636 C 14.987 10.593,15.014 10.514,15.048 10.460 C 15.102 10.375,14.976 10.170,14.126 8.958 C 13.585 8.186,13.119 7.550,13.091 7.545 C 13.063 7.541,12.974 7.547,12.893 7.559 M17.320 8.952 C 16.411 10.258,16.338 10.381,16.406 10.478 C 16.447 10.536,16.480 10.626,16.480 10.679 C 16.480 10.731,16.488 10.773,16.498 10.773 C 16.508 10.773,17.268 10.881,18.187 11.013 C 19.106 11.145,19.886 11.253,19.920 11.253 C 19.955 11.253,20.011 11.199,20.044 11.133 C 20.078 11.067,20.133 10.976,20.167 10.929 C 20.216 10.862,20.084 10.530,19.490 9.223 C 19.085 8.330,18.752 7.597,18.750 7.594 C 18.748 7.591,18.648 7.575,18.527 7.560 L 18.308 7.532 17.320 8.952 M10.533 8.821 C 8.888 10.016,8.826 10.067,8.811 10.250 L 8.794 10.439 9.444 10.713 C 9.801 10.864,10.114 10.987,10.139 10.987 C 10.164 10.987,10.263 10.939,10.359 10.880 C 10.455 10.822,10.629 10.773,10.747 10.772 L 10.960 10.770 11.634 9.172 C 12.004 8.293,12.292 7.575,12.274 7.578 C 12.255 7.580,11.472 8.139,10.533 8.821 M19.884 9.169 C 20.606 10.755,20.615 10.771,20.775 10.772 C 20.864 10.773,21.019 10.830,21.120 10.899 L 21.303 11.025 21.972 10.748 C 22.633 10.474,22.640 10.469,22.653 10.289 C 22.666 10.108,22.656 10.099,20.956 8.853 C 20.015 8.164,19.225 7.593,19.200 7.584 C 19.176 7.575,19.484 8.288,19.884 9.169 M8.498 10.976 L 8.330 11.120 8.484 13.064 C 8.569 14.133,8.646 15.031,8.655 15.060 C 8.671 15.107,10.240 12.261,10.240 12.185 C 10.240 12.166,10.190 12.079,10.129 11.994 C 10.068 11.908,10.002 11.729,9.982 11.596 L 9.947 11.355 9.387 11.117 C 8.651 10.804,8.691 10.811,8.498 10.976 M22.107 11.113 L 21.467 11.390 21.438 11.628 C 21.421 11.759,21.376 11.918,21.335 11.980 C 21.269 12.084,21.325 12.218,21.999 13.553 C 22.404 14.356,22.765 15.057,22.801 15.109 C 22.886 15.234,22.897 15.138,23.048 12.901 L 23.165 11.161 22.982 10.996 C 22.882 10.904,22.788 10.831,22.773 10.833 C 22.759 10.835,22.459 10.961,22.107 11.113 M13.213 11.405 C 12.127 11.562,11.520 11.672,11.520 11.711 C 11.520 11.744,11.463 11.856,11.393 11.959 L 11.266 12.147 11.950 13.660 L 12.635 15.173 12.838 15.208 C 12.949 15.227,13.043 15.239,13.047 15.234 C 13.051 15.230,13.517 14.423,14.083 13.440 C 14.648 12.457,15.135 11.614,15.164 11.567 C 15.203 11.503,15.186 11.437,15.098 11.314 C 15.033 11.222,14.963 11.149,14.943 11.153 C 14.923 11.156,14.145 11.270,13.213 11.405 M16.355 11.275 C 16.273 11.399,16.302 11.459,17.342 13.324 L 18.413 15.245 18.607 15.215 C 18.713 15.198,18.802 15.182,18.804 15.179 C 18.805 15.176,19.111 14.501,19.483 13.680 L 20.160 12.187 20.040 11.934 C 19.970 11.787,19.875 11.670,19.813 11.656 C 19.755 11.641,19.023 11.532,18.187 11.413 C 17.351 11.294,16.615 11.186,16.553 11.172 C 16.474 11.155,16.412 11.187,16.355 11.275 M7.932 11.520 C 7.879 11.643,6.773 15.258,6.773 15.310 C 6.773 15.335,6.833 15.444,6.907 15.552 C 7.119 15.865,7.085 16.272,6.822 16.561 C 6.727 16.666,6.738 16.712,7.309 18.534 C 7.630 19.560,7.909 20.436,7.929 20.480 C 7.948 20.524,8.031 19.720,8.113 18.693 C 8.250 16.974,8.255 16.822,8.175 16.773 C 7.760 16.520,7.581 16.159,7.683 15.778 C 7.737 15.576,8.048 15.253,8.189 15.253 C 8.286 15.253,8.291 15.394,8.133 13.399 C 7.973 11.374,7.977 11.416,7.932 11.520 M23.520 11.511 C 23.520 11.611,23.313 14.558,23.282 14.908 C 23.253 15.223,23.256 15.232,23.417 15.327 C 23.910 15.618,23.907 16.402,23.413 16.683 C 23.265 16.767,23.256 16.791,23.281 17.013 C 23.296 17.145,23.358 17.997,23.419 18.907 C 23.479 19.816,23.535 20.566,23.542 20.573 C 23.549 20.581,23.826 19.711,24.157 18.640 L 24.759 16.694 24.598 16.511 C 24.315 16.189,24.312 15.815,24.588 15.500 L 24.740 15.327 24.159 13.417 C 23.620 11.647,23.520 11.347,23.520 11.511 M15.478 11.797 C 15.419 11.894,14.922 12.753,14.374 13.705 C 13.387 15.420,13.379 15.438,13.462 15.580 C 13.569 15.762,13.571 16.256,13.465 16.397 C 13.422 16.454,13.387 16.529,13.387 16.563 C 13.387 16.598,13.861 17.439,14.441 18.433 L 15.496 20.240 15.748 20.269 L 15.999 20.298 17.042 18.447 L 18.085 16.596 17.976 16.392 C 17.839 16.137,17.837 15.894,17.970 15.633 L 18.073 15.431 17.022 13.542 L 15.970 11.653 15.778 11.637 C 15.610 11.623,15.572 11.643,15.478 11.797 M9.880 13.693 C 8.843 15.601,8.939 15.377,9.066 15.585 C 9.206 15.814,9.206 16.185,9.067 16.413 L 8.962 16.586 9.777 18.120 C 10.590 19.649,10.593 19.653,10.777 19.669 L 10.961 19.685 11.645 18.157 L 12.329 16.629 12.208 16.501 C 12.119 16.406,12.081 16.290,12.065 16.066 C 12.047 15.808,12.064 15.730,12.174 15.569 L 12.305 15.378 11.612 13.849 C 10.949 12.384,10.914 12.320,10.773 12.320 C 10.636 12.320,10.577 12.411,9.880 13.693 M20.488 12.413 C 20.461 12.465,20.147 13.150,19.791 13.936 L 19.143 15.365 19.265 15.536 C 19.437 15.777,19.435 16.225,19.261 16.470 L 19.135 16.646 19.846 18.163 C 20.788 20.174,20.622 20.174,21.667 18.166 C 22.099 17.334,22.453 16.631,22.453 16.605 C 22.453 16.578,22.405 16.462,22.347 16.347 C 22.207 16.073,22.212 15.908,22.367 15.622 L 22.495 15.387 21.718 13.853 L 20.942 12.320 20.739 12.320 C 20.601 12.320,20.522 12.349,20.488 12.413 M12.827 16.789 C 12.672 16.807,12.645 16.856,11.985 18.339 L 11.303 19.870 11.422 20.088 L 11.541 20.305 13.144 20.531 C 14.025 20.655,14.800 20.769,14.865 20.784 C 14.960 20.805,15.001 20.774,15.073 20.624 L 15.162 20.437 14.110 18.632 C 13.531 17.639,13.042 16.814,13.022 16.799 C 13.003 16.784,12.915 16.779,12.827 16.789 M17.361 18.665 C 16.319 20.517,16.310 20.536,16.397 20.670 C 16.452 20.754,16.520 20.796,16.576 20.780 C 16.626 20.767,17.387 20.653,18.267 20.529 C 19.414 20.367,19.882 20.281,19.920 20.225 C 19.949 20.182,20.023 20.071,20.084 19.978 L 20.195 19.809 19.494 18.318 L 18.794 16.827 18.603 16.811 L 18.413 16.794 17.361 18.665 M22.011 18.324 L 21.221 19.845 21.331 20.022 C 21.391 20.120,21.440 20.283,21.440 20.386 L 21.440 20.572 22.306 20.949 C 22.782 21.157,23.178 21.320,23.185 21.313 C 23.203 21.295,22.941 17.333,22.902 17.027 C 22.886 16.902,22.857 16.801,22.837 16.801 C 22.817 16.802,22.445 17.487,22.011 18.324 M8.639 16.853 C 8.638 16.868,8.568 17.780,8.482 18.880 L 8.326 20.880 8.495 21.013 C 8.588 21.087,8.678 21.147,8.694 21.147 C 8.710 21.147,9.002 21.027,9.343 20.880 L 9.962 20.613 9.988 20.381 C 10.003 20.253,10.067 20.078,10.131 19.992 L 10.248 19.834 9.566 18.544 C 8.851 17.190,8.642 16.809,8.639 16.853 M11.467 20.767 C 11.467 20.807,11.431 20.870,11.387 20.907 C 11.343 20.943,11.307 21.006,11.307 21.045 C 11.307 21.121,12.680 24.320,12.739 24.382 C 12.758 24.402,12.849 24.426,12.942 24.436 C 13.106 24.453,13.133 24.420,14.121 23.025 L 15.131 21.596 15.027 21.385 C 14.969 21.268,14.905 21.173,14.883 21.173 C 14.862 21.173,14.092 21.065,13.173 20.933 C 12.254 20.801,11.495 20.693,11.485 20.693 C 11.475 20.693,11.467 20.726,11.467 20.767 M18.560 20.880 C 17.929 20.975,17.209 21.082,16.960 21.117 L 16.507 21.182 16.409 21.392 L 16.311 21.601 16.680 22.121 C 16.882 22.406,17.339 23.049,17.693 23.550 L 18.338 24.460 18.525 24.438 L 18.711 24.416 19.451 22.755 L 20.190 21.093 20.059 20.893 C 19.972 20.760,19.892 20.696,19.818 20.700 C 19.757 20.704,19.191 20.785,18.560 20.880 M9.467 21.251 C 8.844 21.524,8.826 21.537,8.796 21.721 L 8.765 21.911 10.556 23.244 C 11.541 23.977,12.353 24.570,12.361 24.563 C 12.369 24.555,12.054 23.808,11.661 22.901 L 10.947 21.253 10.702 21.224 C 10.567 21.208,10.384 21.142,10.297 21.078 C 10.209 21.013,10.131 20.962,10.122 20.965 C 10.114 20.968,9.819 21.096,9.467 21.251 M21.122 21.096 C 21.008 21.176,20.862 21.227,20.744 21.227 L 20.551 21.227 19.823 22.863 C 19.423 23.763,19.105 24.509,19.116 24.521 C 19.127 24.532,19.992 23.900,21.037 23.116 C 22.083 22.332,22.919 21.672,22.896 21.651 C 22.853 21.612,21.361 20.958,21.325 20.963 C 21.315 20.964,21.223 21.024,21.122 21.096 M14.666 22.924 C 13.297 24.864,13.414 24.675,13.483 24.826 L 13.544 24.960 15.724 24.960 L 17.903 24.960 17.964 24.827 C 18.020 24.702,17.954 24.593,17.012 23.261 L 15.999 21.829 15.719 21.829 L 15.439 21.829 14.666 22.924 " stroke="none" fill-rule="evenodd" fill="black"></path></svg>