<svg width="32" height="32" xmlns="http://www.w3.org/2000/svg"><path d="M14.933 0.034 C 10.237 0.384,6.020 2.671,3.211 6.391 C 1.590 8.538,0.590 10.959,0.146 13.813 C -0.017 14.858,-0.017 17.142,0.146 18.187 C 0.830 22.578,2.950 26.177,6.391 28.787 C 8.515 30.398,10.963 31.410,13.813 31.854 C 14.858 32.017,17.142 32.017,18.187 31.854 C 20.149 31.549,21.935 30.970,23.505 30.132 C 26.290 28.646,28.646 26.290,30.132 23.505 C 30.970 21.935,31.549 20.149,31.854 18.187 C 32.017 17.142,32.017 14.858,31.854 13.813 C 31.410 10.961,30.399 8.515,28.784 6.386 C 26.139 2.901,22.361 0.710,18.000 0.132 C 17.376 0.050,15.520 -0.010,14.933 0.034 M18.547 9.493 L 22.613 11.703 22.612 13.651 L 22.611 15.600 20.533 16.667 C 19.390 17.253,18.456 17.745,18.456 17.760 C 18.457 17.775,19.591 18.567,20.976 19.520 L 23.493 21.253 23.507 23.107 C 23.515 24.126,23.503 24.960,23.481 24.960 C 23.458 24.961,21.586 23.719,19.319 22.202 L 15.199 19.443 15.213 17.447 L 15.227 15.450 17.023 14.512 C 18.011 13.996,18.834 13.558,18.852 13.540 C 18.877 13.515,14.239 10.868,14.019 10.782 C 13.994 10.773,13.968 13.481,13.960 16.801 L 13.947 22.837 12.933 23.368 C 12.376 23.660,11.602 24.066,11.213 24.270 L 10.507 24.642 10.507 16.725 L 10.507 8.808 12.227 7.906 L 13.947 7.004 14.213 7.143 C 14.360 7.220,16.310 8.277,18.547 9.493 " stroke="none" fill-rule="evenodd" fill="black"></path></svg>