<svg viewBox="0 0 32 32" xmlns="http://www.w3.org/2000/svg"><path d="M14.933 0.034 C 10.237 0.384,6.020 2.671,3.211 6.391 C 1.590 8.538,0.590 10.959,0.146 13.813 C -0.017 14.858,-0.017 17.142,0.146 18.187 C 0.830 22.578,2.950 26.177,6.391 28.787 C 8.515 30.398,10.963 31.410,13.813 31.854 C 14.858 32.017,17.142 32.017,18.187 31.854 C 20.149 31.549,21.935 30.970,23.505 30.132 C 26.290 28.646,28.646 26.290,30.132 23.505 C 30.970 21.935,31.549 20.149,31.854 18.187 C 32.017 17.142,32.017 14.858,31.854 13.813 C 31.410 10.961,30.399 8.515,28.784 6.386 C 26.139 2.901,22.361 0.710,18.000 0.132 C 17.376 0.050,15.520 -0.010,14.933 0.034 M23.509 5.098 C 25.755 5.559,27.264 7.682,26.937 9.920 C 26.602 12.207,24.542 13.842,22.263 13.628 L 21.869 13.591 21.475 13.022 C 20.720 11.930,19.754 10.962,18.779 10.321 L 18.293 10.001 18.293 9.311 C 18.293 8.854,18.323 8.501,18.380 8.270 C 18.764 6.710,20.137 5.420,21.760 5.093 C 22.244 4.996,23.022 4.998,23.509 5.098 " stroke="none" fill-rule="evenodd" fill="black"></path></svg>