<svg viewBox="0 0 32 32" xmlns="http://www.w3.org/2000/svg"><path d="M14.933 0.034 C 10.237 0.384,6.020 2.671,3.211 6.391 C 1.590 8.538,0.590 10.959,0.146 13.813 C -0.017 14.858,-0.017 17.142,0.146 18.187 C 0.830 22.578,2.950 26.177,6.391 28.787 C 8.515 30.398,10.963 31.410,13.813 31.854 C 14.858 32.017,17.142 32.017,18.187 31.854 C 20.149 31.549,21.935 30.970,23.505 30.132 C 26.290 28.646,28.646 26.290,30.132 23.505 C 30.970 21.935,31.549 20.149,31.854 18.187 C 32.017 17.142,32.017 14.858,31.854 13.813 C 31.410 10.961,30.399 8.515,28.784 6.386 C 26.139 2.901,22.361 0.710,18.000 0.132 C 17.376 0.050,15.520 -0.010,14.933 0.034 M13.269 6.164 C 13.617 6.338,13.941 6.702,14.057 7.051 C 14.174 7.404,14.141 7.996,13.986 8.293 C 13.506 9.220,12.259 9.432,11.536 8.710 C 10.920 8.093,10.914 7.068,11.523 6.458 C 11.965 6.016,12.717 5.890,13.269 6.164 M20.132 6.245 C 20.407 6.374,20.720 6.699,20.841 6.979 C 20.887 7.087,20.925 7.328,20.926 7.520 C 20.929 7.946,20.794 8.255,20.468 8.567 C 20.154 8.867,13.305 14.177,13.035 14.330 C 12.751 14.490,12.397 14.536,12.059 14.455 C 11.197 14.248,10.752 13.219,11.179 12.422 C 11.323 12.153,11.589 11.934,15.013 9.263 C 17.037 7.684,18.813 6.334,18.960 6.263 C 19.311 6.094,19.794 6.086,20.132 6.245 M20.012 11.842 C 20.481 11.973,20.913 12.492,20.981 13.009 C 21.021 13.310,20.917 13.738,20.742 14.000 C 20.621 14.180,13.589 19.703,13.112 19.993 C 12.824 20.168,12.301 20.208,11.968 20.081 C 11.187 19.782,10.845 18.882,11.221 18.112 C 11.368 17.812,11.453 17.742,15.124 14.889 C 17.285 13.209,18.973 11.935,19.104 11.883 C 19.368 11.779,19.726 11.763,20.012 11.842 M20.283 17.801 C 20.965 18.182,21.190 19.062,20.779 19.746 C 20.634 19.988,20.150 20.383,16.858 22.940 C 12.885 26.027,12.914 26.007,12.372 25.992 C 11.656 25.971,11.069 25.336,11.074 24.587 C 11.076 24.202,11.162 23.956,11.388 23.688 C 11.541 23.506,18.599 17.988,18.924 17.796 C 19.332 17.555,19.845 17.557,20.283 17.801 M20.104 23.005 C 20.860 23.356,21.200 24.301,20.847 25.067 C 20.300 26.252,18.763 26.312,18.089 25.173 C 17.962 24.959,17.947 24.880,17.947 24.427 C 17.947 23.857,18.006 23.693,18.339 23.342 C 18.798 22.859,19.500 22.725,20.104 23.005 " stroke="none" fill-rule="evenodd" fill="black"></path></svg>