<svg viewBox="0 0 32 32" xmlns="http://www.w3.org/2000/svg"><path d="M14.933 0.034 C 10.237 0.384,6.020 2.671,3.211 6.391 C 1.590 8.538,0.590 10.959,0.146 13.813 C -0.017 14.858,-0.017 17.142,0.146 18.187 C 0.830 22.578,2.950 26.177,6.391 28.787 C 8.515 30.398,10.963 31.410,13.813 31.854 C 14.858 32.017,17.142 32.017,18.187 31.854 C 20.149 31.549,21.935 30.970,23.505 30.132 C 26.290 28.646,28.646 26.290,30.132 23.505 C 30.970 21.935,31.549 20.149,31.854 18.187 C 32.017 17.142,32.017 14.858,31.854 13.813 C 31.410 10.961,30.399 8.515,28.784 6.386 C 26.139 2.901,22.361 0.710,18.000 0.132 C 17.376 0.050,15.520 -0.010,14.933 0.034 M11.728 5.095 C 12.448 5.265,13.141 5.751,13.543 6.367 C 13.896 6.909,14.036 7.383,14.042 8.053 C 14.049 8.982,13.790 9.624,13.147 10.267 C 12.532 10.882,11.859 11.159,10.987 11.154 C 9.115 11.145,7.681 9.329,8.074 7.467 C 8.434 5.760,10.063 4.703,11.728 5.095 M18.197 8.965 C 18.897 9.109,19.636 9.626,20.049 10.260 C 20.887 11.546,20.718 13.143,19.628 14.246 C 18.644 15.241,17.377 15.389,15.961 14.674 C 15.444 14.413,14.982 14.452,14.580 14.791 C 14.302 15.026,14.223 15.261,14.184 15.977 C 14.159 16.419,14.111 16.732,14.031 16.974 C 13.732 17.872,12.929 18.651,12.008 18.935 C 11.401 19.123,10.518 19.058,9.897 18.779 C 9.358 18.538,8.764 17.948,8.466 17.358 C 8.104 16.642,8.026 15.725,8.265 14.989 C 8.575 14.034,9.357 13.276,10.342 12.978 C 10.627 12.892,11.357 12.885,11.744 12.965 C 11.899 12.998,12.252 13.130,12.527 13.259 C 12.917 13.442,13.088 13.493,13.300 13.492 C 13.643 13.491,13.952 13.353,14.171 13.103 C 14.376 12.869,14.453 12.617,14.453 12.171 C 14.454 11.168,14.922 10.164,15.651 9.602 C 16.382 9.038,17.361 8.793,18.197 8.965 M24.718 12.935 C 25.975 13.263,26.897 14.429,26.971 15.787 C 27.023 16.755,26.749 17.468,26.056 18.165 C 25.586 18.637,25.108 18.915,24.500 19.067 C 23.923 19.212,23.139 19.067,22.350 18.668 C 22.048 18.516,21.968 18.498,21.672 18.517 C 21.260 18.543,20.946 18.739,20.751 19.091 C 20.643 19.287,20.616 19.431,20.583 19.995 C 20.542 20.716,20.464 21.020,20.201 21.493 C 19.827 22.164,19.231 22.662,18.511 22.906 C 18.202 23.010,18.007 23.040,17.629 23.040 C 17.051 23.040,16.667 22.949,16.048 22.664 C 15.321 22.330,14.817 22.386,14.411 22.849 C 14.204 23.085,14.134 23.332,14.133 23.840 C 14.128 25.266,13.293 26.442,11.992 26.853 C 10.926 27.189,9.781 26.899,8.978 26.088 C 8.360 25.464,8.006 24.516,8.078 23.680 C 8.117 23.232,8.292 22.663,8.510 22.275 C 8.854 21.662,9.585 21.074,10.236 20.884 C 10.605 20.777,11.451 20.774,11.852 20.879 C 12.018 20.922,12.353 21.054,12.597 21.172 C 13.237 21.483,13.702 21.453,14.098 21.077 C 14.355 20.833,14.412 20.659,14.460 19.971 C 14.530 18.962,14.782 18.330,15.350 17.740 C 15.937 17.130,16.585 16.853,17.425 16.853 C 18.027 16.853,18.402 16.942,19.010 17.228 C 19.529 17.473,19.883 17.504,20.240 17.339 C 20.713 17.120,20.888 16.786,20.930 16.020 C 20.978 15.165,21.143 14.682,21.591 14.085 C 22.296 13.148,23.638 12.654,24.718 12.935 " stroke="none" fill-rule="evenodd" fill="black"></path></svg>