<svg width="32" height="32" xmlns="http://www.w3.org/2000/svg"><path d="M14.933 0.034 C 10.237 0.384,6.020 2.671,3.211 6.391 C 1.590 8.538,0.590 10.959,0.146 13.813 C -0.017 14.858,-0.017 17.142,0.146 18.187 C 0.830 22.578,2.950 26.177,6.391 28.787 C 8.515 30.398,10.963 31.410,13.813 31.854 C 14.858 32.017,17.142 32.017,18.187 31.854 C 20.149 31.549,21.935 30.970,23.505 30.132 C 26.290 28.646,28.646 26.290,30.132 23.505 C 30.970 21.935,31.549 20.149,31.854 18.187 C 32.017 17.142,32.017 14.858,31.854 13.813 C 31.410 10.961,30.399 8.515,28.784 6.386 C 26.139 2.901,22.361 0.710,18.000 0.132 C 17.376 0.050,15.520 -0.010,14.933 0.034 M17.760 4.136 C 21.210 4.663,24.245 6.658,26.154 9.653 C 26.822 10.700,27.489 12.384,27.727 13.627 C 28.044 15.274,28.020 17.093,27.659 18.670 C 27.285 20.307,26.451 22.052,25.420 23.359 C 23.105 26.293,19.700 27.953,15.993 27.953 C 14.571 27.954,13.587 27.795,12.213 27.345 C 8.395 26.095,5.401 22.901,4.399 19.011 C 4.110 17.889,4.031 17.240,4.031 16.000 C 4.031 14.009,4.380 12.473,5.226 10.747 C 6.426 8.296,8.296 6.426,10.747 5.226 C 12.120 4.554,13.476 4.181,15.093 4.033 C 15.572 3.989,17.213 4.052,17.760 4.136 M14.720 5.711 C 10.726 6.226,7.412 8.939,6.163 12.720 C 5.624 14.350,5.496 16.275,5.816 17.934 C 6.685 22.436,10.402 25.826,14.979 26.291 C 16.919 26.488,18.890 26.109,20.693 25.193 C 22.671 24.188,24.188 22.671,25.193 20.693 C 26.109 18.890,26.488 16.919,26.291 14.979 C 25.803 10.172,22.117 6.363,17.344 5.733 C 16.700 5.648,15.303 5.636,14.720 5.711 M20.427 16.000 L 20.427 20.427 15.973 20.427 L 11.520 20.427 11.520 16.000 L 11.520 11.573 15.973 11.573 L 20.427 11.573 20.427 16.000 M12.973 15.987 L 12.987 18.960 15.987 18.974 L 18.987 18.988 18.987 16.000 L 18.987 13.013 15.973 13.013 L 12.959 13.013 12.973 15.987 " stroke="none" fill-rule="evenodd" fill="black"></path></svg>