<svg width="32" height="32" xmlns="http://www.w3.org/2000/svg"><path d="M14.933 0.034 C 10.237 0.384,6.020 2.671,3.211 6.391 C 1.590 8.538,0.590 10.959,0.146 13.813 C -0.017 14.858,-0.017 17.142,0.146 18.187 C 0.830 22.578,2.950 26.177,6.391 28.787 C 8.515 30.398,10.963 31.410,13.813 31.854 C 14.858 32.017,17.142 32.017,18.187 31.854 C 20.149 31.549,21.935 30.970,23.505 30.132 C 26.290 28.646,28.646 26.290,30.132 23.505 C 30.970 21.935,31.549 20.149,31.854 18.187 C 32.017 17.142,32.017 14.858,31.854 13.813 C 31.410 10.961,30.399 8.515,28.784 6.386 C 26.139 2.901,22.361 0.710,18.000 0.132 C 17.376 0.050,15.520 -0.010,14.933 0.034 M26.595 15.823 C 26.524 15.894,15.842 19.789,15.761 19.774 C 15.701 19.762,13.257 18.868,10.329 17.787 L 5.006 15.821 10.410 10.417 L 15.813 5.013 21.211 10.411 C 24.180 13.380,26.603 15.815,26.595 15.823 M12.235 10.948 C 10.336 12.890,8.685 14.582,8.566 14.707 L 8.351 14.933 10.834 14.933 L 13.316 14.933 14.565 13.677 L 15.813 12.421 17.040 13.661 L 18.267 14.902 20.707 14.924 C 22.049 14.936,23.146 14.937,23.145 14.926 C 23.143 14.915,21.465 13.221,19.416 11.161 L 15.689 7.415 12.235 10.948 M26.373 16.793 C 26.256 16.907,23.836 19.165,20.996 21.811 L 15.832 26.621 15.679 26.497 C 15.426 26.294,5.069 16.673,5.085 16.657 C 5.096 16.646,13.359 19.663,15.547 20.476 L 15.814 20.575 21.147 18.586 C 24.080 17.492,26.504 16.594,26.533 16.592 C 26.561 16.589,26.489 16.680,26.373 16.793 " stroke="none" fill-rule="evenodd" fill="black"></path></svg>