<svg viewBox="0 0 32 32" xmlns="http://www.w3.org/2000/svg"><path d="M14.933 0.034 C 10.237 0.384,6.020 2.671,3.211 6.391 C 1.590 8.538,0.590 10.959,0.146 13.813 C -0.017 14.858,-0.017 17.142,0.146 18.187 C 0.830 22.578,2.950 26.177,6.391 28.787 C 8.515 30.398,10.963 31.410,13.813 31.854 C 14.858 32.017,17.142 32.017,18.187 31.854 C 20.149 31.549,21.935 30.970,23.505 30.132 C 26.290 28.646,28.646 26.290,30.132 23.505 C 30.970 21.935,31.549 20.149,31.854 18.187 C 32.017 17.142,32.017 14.858,31.854 13.813 C 31.410 10.961,30.399 8.515,28.784 6.386 C 26.139 2.901,22.361 0.710,18.000 0.132 C 17.376 0.050,15.520 -0.010,14.933 0.034 M21.247 14.996 C 23.846 20.472,25.973 24.966,25.973 24.983 C 25.973 25.000,21.711 25.013,16.500 25.013 C 7.504 25.013,7.029 25.009,7.054 24.920 C 7.089 24.797,16.493 5.008,16.508 5.026 C 16.515 5.034,18.647 9.520,21.247 14.996 M16.351 10.761 C 15.954 11.570,10.720 22.607,10.720 22.635 C 10.720 22.652,13.327 22.667,16.512 22.667 C 21.125 22.667,22.299 22.653,22.277 22.600 C 22.241 22.510,16.524 10.483,16.511 10.468 C 16.505 10.462,16.433 10.594,16.351 10.761 " stroke="none" fill-rule="evenodd" fill="black"></path></svg>