<svg viewBox="0 0 32 32" xmlns="http://www.w3.org/2000/svg"><path d="M14.933 0.034 C 10.237 0.384,6.020 2.671,3.211 6.391 C 1.590 8.538,0.590 10.959,0.146 13.813 C -0.017 14.858,-0.017 17.142,0.146 18.187 C 0.830 22.578,2.950 26.177,6.391 28.787 C 8.515 30.398,10.963 31.410,13.813 31.854 C 14.858 32.017,17.142 32.017,18.187 31.854 C 20.149 31.549,21.935 30.970,23.505 30.132 C 26.290 28.646,28.646 26.290,30.132 23.505 C 30.970 21.935,31.549 20.149,31.854 18.187 C 32.017 17.142,32.017 14.858,31.854 13.813 C 31.410 10.961,30.399 8.515,28.784 6.386 C 26.139 2.901,22.361 0.710,18.000 0.132 C 17.376 0.050,15.520 -0.010,14.933 0.034 M20.914 6.324 C 21.297 6.516,21.489 6.639,21.455 6.673 C 21.427 6.701,19.223 7.973,16.558 9.499 C 12.485 11.831,11.694 12.266,11.602 12.222 C 11.281 12.069,7.175 9.710,7.161 9.671 C 7.140 9.605,7.843 8.772,7.914 8.779 C 7.947 8.781,8.801 9.258,9.813 9.837 C 11.442 10.770,11.669 10.885,11.787 10.839 C 11.860 10.811,13.792 9.716,16.080 8.407 C 18.368 7.098,20.258 6.027,20.281 6.027 C 20.303 6.027,20.588 6.160,20.914 6.324 M23.573 8.219 C 23.573 8.242,20.900 9.786,17.632 11.650 L 11.691 15.040 8.809 13.380 L 5.926 11.720 6.190 11.193 C 6.335 10.904,6.466 10.667,6.479 10.667 C 6.493 10.667,7.627 11.306,8.999 12.087 C 10.371 12.869,11.543 13.530,11.604 13.558 C 11.697 13.601,12.602 13.104,17.200 10.488 L 22.684 7.368 23.129 7.773 C 23.373 7.995,23.573 8.196,23.573 8.219 M24.774 9.528 C 24.943 9.752,25.084 9.971,25.087 10.014 C 25.091 10.064,22.714 11.453,18.427 13.906 C 14.760 16.004,11.735 17.721,11.704 17.722 C 11.648 17.724,5.352 14.162,5.257 14.074 C 5.203 14.025,5.429 12.973,5.504 12.927 C 5.527 12.912,6.915 13.682,8.587 14.637 C 10.259 15.592,11.657 16.373,11.694 16.373 C 11.730 16.373,14.616 14.741,18.107 12.747 C 21.597 10.752,24.456 9.120,24.460 9.120 C 24.464 9.120,24.605 9.304,24.774 9.528 M26.172 11.989 C 26.731 13.420,26.922 14.299,26.971 15.656 C 27.070 18.423,26.179 20.997,24.375 23.158 C 22.692 25.175,20.021 26.584,17.228 26.931 C 16.579 27.011,15.304 27.000,14.603 26.907 C 10.871 26.414,7.599 24.053,6.060 20.741 C 5.373 19.262,5.082 18.015,5.029 16.328 L 4.998 15.349 5.164 15.435 C 5.255 15.482,6.752 16.325,8.490 17.307 C 10.227 18.290,11.674 19.092,11.705 19.090 C 11.735 19.089,14.904 17.291,18.747 15.096 C 22.589 12.900,25.756 11.109,25.784 11.116 C 25.812 11.122,25.987 11.515,26.172 11.989 " stroke="none" fill-rule="evenodd" fill="black"></path></svg>