<svg viewBox="0 0 32 32" xmlns="http://www.w3.org/2000/svg"><path d="M14.933 0.034 C 10.237 0.384,6.020 2.671,3.211 6.391 C 1.590 8.538,0.590 10.959,0.146 13.813 C -0.017 14.858,-0.017 17.142,0.146 18.187 C 0.830 22.578,2.950 26.177,6.391 28.787 C 8.515 30.398,10.963 31.410,13.813 31.854 C 14.858 32.017,17.142 32.017,18.187 31.854 C 20.149 31.549,21.935 30.970,23.505 30.132 C 26.290 28.646,28.646 26.290,30.132 23.505 C 30.970 21.935,31.549 20.149,31.854 18.187 C 32.017 17.142,32.017 14.858,31.854 13.813 C 31.410 10.961,30.399 8.515,28.784 6.386 C 26.139 2.901,22.361 0.710,18.000 0.132 C 17.376 0.050,15.520 -0.010,14.933 0.034 M21.227 7.996 C 22.609 8.343,23.558 9.252,23.875 10.533 C 24.003 11.049,24.004 12.167,23.877 12.636 C 23.712 13.246,23.479 13.643,23.014 14.108 C 22.532 14.592,22.037 14.881,21.289 15.115 C 19.940 15.538,18.561 15.564,15.920 15.217 C 15.045 15.101,14.628 15.075,13.600 15.071 C 12.911 15.069,12.185 15.087,11.987 15.111 L 11.628 15.155 11.658 14.978 C 11.840 13.917,12.035 13.262,12.399 12.494 C 13.554 10.056,15.804 8.362,18.480 7.915 C 19.133 7.806,20.646 7.851,21.227 7.996 M15.067 16.669 C 15.419 16.709,16.139 16.793,16.667 16.855 C 17.479 16.952,17.811 16.965,18.827 16.940 C 19.487 16.925,20.105 16.896,20.200 16.876 C 20.397 16.836,20.395 16.766,20.230 17.627 C 19.771 20.017,18.076 22.232,15.867 23.328 C 14.732 23.891,13.559 24.164,12.277 24.163 C 10.774 24.163,9.801 23.828,9.012 23.041 C 8.307 22.338,8.034 21.600,8.032 20.400 C 8.030 19.262,8.273 18.610,8.960 17.914 C 9.714 17.151,10.752 16.733,12.267 16.586 C 12.831 16.531,14.219 16.572,15.067 16.669 " stroke="none" fill-rule="evenodd" fill="black"></path></svg>