<svg width="32" height="32" xmlns="http://www.w3.org/2000/svg"><path d="M14.933 0.034 C 10.237 0.384,6.020 2.671,3.211 6.391 C 1.590 8.538,0.590 10.959,0.146 13.813 C -0.017 14.858,-0.017 17.142,0.146 18.187 C 0.830 22.578,2.950 26.177,6.391 28.787 C 8.515 30.398,10.963 31.410,13.813 31.854 C 14.858 32.017,17.142 32.017,18.187 31.854 C 20.149 31.549,21.935 30.970,23.505 30.132 C 26.290 28.646,28.646 26.290,30.132 23.505 C 30.970 21.935,31.549 20.149,31.854 18.187 C 32.017 17.142,32.017 14.858,31.854 13.813 C 31.410 10.961,30.399 8.515,28.784 6.386 C 26.139 2.901,22.361 0.710,18.000 0.132 C 17.376 0.050,15.520 -0.010,14.933 0.034 M11.843 9.155 C 12.764 9.503,13.158 9.829,14.081 11.006 C 14.529 11.577,14.571 11.650,14.510 11.747 C 14.453 11.839,12.753 14.023,12.640 14.150 C 12.619 14.174,12.268 13.766,11.861 13.243 C 11.453 12.721,11.063 12.239,10.992 12.173 L 10.864 12.053 8.770 12.053 C 7.618 12.053,6.637 12.039,6.591 12.021 C 6.517 11.993,6.507 11.808,6.507 10.498 L 6.507 9.008 9.027 9.025 C 11.432 9.042,11.560 9.048,11.843 9.155 M25.493 10.501 C 25.493 11.808,25.483 11.993,25.409 12.021 C 25.363 12.039,24.394 12.053,23.256 12.053 C 21.287 12.053,21.181 12.058,21.056 12.157 C 20.820 12.343,18.016 15.948,18.046 16.027 C 18.082 16.121,20.762 19.544,20.969 19.760 L 21.122 19.920 23.294 19.947 L 25.467 19.973 25.481 21.483 L 25.495 22.992 22.974 22.976 L 20.453 22.959 20.094 22.820 C 19.593 22.625,19.197 22.374,18.830 22.017 C 18.657 21.849,17.958 21.003,17.277 20.136 C 16.595 19.269,16.023 18.561,16.005 18.563 C 15.988 18.565,15.457 19.231,14.827 20.042 C 13.284 22.029,13.024 22.296,12.288 22.660 C 11.646 22.976,11.468 22.993,8.880 22.976 L 6.533 22.960 6.533 21.467 L 6.533 19.973 8.701 19.947 C 10.774 19.921,10.874 19.915,10.987 19.813 C 11.117 19.696,11.140 19.667,15.430 14.187 C 17.072 12.089,18.526 10.258,18.661 10.116 C 19.128 9.627,19.898 9.190,20.507 9.068 C 20.624 9.044,21.794 9.022,23.107 9.019 L 25.493 9.013 25.493 10.501 " stroke="none" fill-rule="evenodd" fill="black"></path></svg>