<svg viewBox="0 0 32 32" xmlns="http://www.w3.org/2000/svg"><path d="M14.933 0.034 C 10.237 0.384,6.020 2.671,3.211 6.391 C 1.590 8.538,0.590 10.959,0.146 13.813 C -0.017 14.858,-0.017 17.142,0.146 18.187 C 0.830 22.578,2.950 26.177,6.391 28.787 C 8.515 30.398,10.963 31.410,13.813 31.854 C 14.858 32.017,17.142 32.017,18.187 31.854 C 20.149 31.549,21.935 30.970,23.505 30.132 C 26.290 28.646,28.646 26.290,30.132 23.505 C 30.970 21.935,31.549 20.149,31.854 18.187 C 32.017 17.142,32.017 14.858,31.854 13.813 C 31.410 10.961,30.399 8.515,28.784 6.386 C 26.139 2.901,22.361 0.710,18.000 0.132 C 17.376 0.050,15.520 -0.010,14.933 0.034 M13.053 10.093 C 13.082 10.130,13.123 10.316,13.144 10.507 C 13.178 10.828,13.295 11.159,13.447 11.366 C 13.499 11.437,13.466 11.545,13.266 11.956 C 12.906 12.697,12.500 13.067,12.050 13.067 C 11.834 13.067,11.553 12.793,11.472 12.504 C 11.400 12.243,11.394 11.360,11.465 11.360 C 11.556 11.360,11.894 11.032,12.145 10.698 C 12.537 10.179,12.698 10.027,12.857 10.027 C 12.936 10.027,13.024 10.057,13.053 10.093 M16.325 10.138 C 16.386 10.199,16.531 10.457,16.648 10.711 C 16.765 10.965,16.923 11.239,16.999 11.319 C 17.137 11.463,17.138 11.470,17.073 11.820 C 16.958 12.444,16.668 12.900,16.295 13.042 C 16.004 13.154,15.697 13.124,15.472 12.963 C 15.261 12.813,14.995 12.264,14.919 11.823 L 14.859 11.470 15.057 11.295 C 15.196 11.172,15.310 10.987,15.439 10.673 C 15.541 10.427,15.664 10.181,15.713 10.126 C 15.840 9.986,16.180 9.993,16.325 10.138 M19.580 10.227 C 19.684 10.337,19.914 10.607,20.091 10.827 C 20.268 11.048,20.473 11.260,20.547 11.299 C 20.649 11.354,20.688 11.428,20.714 11.613 C 20.852 12.626,20.505 13.173,19.807 13.042 C 19.415 12.969,18.934 12.348,18.664 11.568 C 18.605 11.396,18.610 11.361,18.712 11.222 C 18.778 11.133,18.864 10.874,18.914 10.613 C 18.963 10.364,19.026 10.130,19.055 10.093 C 19.157 9.961,19.385 10.019,19.580 10.227 M10.275 10.164 C 10.293 10.210,10.266 10.424,10.215 10.640 C 10.140 10.958,10.134 11.068,10.184 11.219 C 10.239 11.384,10.230 11.437,10.108 11.678 C 9.531 12.816,8.883 13.371,8.555 13.008 C 8.425 12.864,8.424 12.272,8.553 11.830 C 8.633 11.555,8.708 11.458,9.352 10.803 C 10.040 10.103,10.208 9.987,10.275 10.164 M22.757 10.808 C 23.399 11.461,23.479 11.563,23.545 11.814 C 23.677 12.322,23.697 12.656,23.608 12.868 C 23.380 13.414,22.749 13.021,22.161 11.969 C 21.906 11.512,21.895 11.476,21.891 11.067 C 21.889 10.832,21.867 10.514,21.843 10.360 C 21.800 10.091,21.803 10.080,21.920 10.080 C 22.006 10.080,22.253 10.294,22.757 10.808 M8.279 10.361 C 8.271 10.407,8.181 10.583,8.079 10.753 C 7.977 10.922,7.893 11.099,7.893 11.146 C 7.893 11.319,7.100 12.585,6.782 12.920 C 6.499 13.217,6.400 13.173,6.400 12.752 C 6.400 12.201,6.712 11.574,7.274 10.993 C 7.862 10.385,8.326 10.093,8.279 10.361 M24.745 10.964 C 25.307 11.545,25.647 12.163,25.688 12.681 C 25.752 13.489,25.313 13.159,24.555 11.832 C 24.367 11.502,24.213 11.197,24.213 11.154 C 24.213 11.111,24.118 10.903,24.002 10.691 C 23.886 10.480,23.806 10.292,23.823 10.274 C 23.896 10.202,24.301 10.505,24.745 10.964 M10.995 11.990 C 11.013 12.421,11.041 12.563,11.158 12.799 L 11.299 13.084 11.163 13.424 C 10.974 13.896,10.661 14.362,10.440 14.498 C 10.235 14.625,9.992 14.645,9.863 14.545 C 9.635 14.369,9.441 13.833,9.442 13.387 C 9.443 13.189,9.472 13.118,9.607 12.987 C 9.831 12.769,10.132 12.320,10.367 11.853 C 10.558 11.473,10.565 11.467,10.768 11.467 L 10.974 11.467 10.995 11.990 M14.584 11.659 C 14.663 12.079,14.837 12.537,15.019 12.801 C 15.203 13.069,15.208 13.087,15.149 13.319 C 14.993 13.939,14.615 14.425,14.191 14.552 C 13.624 14.722,13.294 14.531,12.989 13.856 C 12.918 13.701,12.845 13.485,12.825 13.376 C 12.793 13.198,12.807 13.164,12.978 13.014 C 13.236 12.788,13.525 12.338,13.718 11.864 L 13.880 11.467 14.214 11.467 L 14.548 11.467 14.584 11.659 M18.243 11.667 C 18.373 12.063,18.683 12.633,18.912 12.896 C 19.146 13.163,19.146 13.163,19.095 13.432 C 18.959 14.147,18.578 14.560,18.053 14.560 C 17.519 14.560,17.111 14.123,16.899 13.321 C 16.834 13.079,16.837 13.062,16.970 12.921 C 17.206 12.668,17.381 12.236,17.467 11.693 L 17.503 11.467 17.841 11.467 L 18.178 11.467 18.243 11.667 M21.757 12.059 C 21.946 12.383,22.207 12.760,22.337 12.897 L 22.574 13.147 22.516 13.557 C 22.416 14.267,22.163 14.605,21.777 14.542 C 21.496 14.497,21.266 14.243,20.956 13.640 L 20.687 13.117 20.835 12.814 C 20.959 12.560,20.987 12.425,21.005 11.988 L 21.026 11.467 21.220 11.468 C 21.409 11.470,21.420 11.481,21.757 12.059 M24.210 11.976 C 24.370 12.253,24.640 12.667,24.810 12.894 L 25.120 13.307 25.120 13.797 C 25.120 14.343,25.056 14.547,24.870 14.594 C 24.600 14.662,24.347 14.341,24.026 13.523 C 23.870 13.125,23.856 13.047,23.901 12.844 C 23.961 12.579,23.921 12.211,23.786 11.773 L 23.691 11.467 23.806 11.469 C 23.893 11.470,23.988 11.588,24.210 11.976 M8.194 11.950 C 8.098 12.339,8.095 12.419,8.157 12.803 L 8.226 13.227 7.928 13.835 C 7.615 14.475,7.445 14.667,7.194 14.667 C 6.937 14.667,6.853 14.466,6.857 13.869 L 6.861 13.360 7.204 12.906 C 7.392 12.657,7.664 12.243,7.806 11.986 C 8.009 11.622,8.092 11.520,8.182 11.520 L 8.299 11.520 8.194 11.950 M6.434 11.879 C 6.225 12.291,6.080 12.773,6.080 13.053 C 6.080 13.238,6.026 13.422,5.889 13.708 C 5.687 14.130,5.468 14.453,5.384 14.453 C 5.297 14.453,5.328 13.960,5.443 13.517 C 5.587 12.957,6.025 12.062,6.293 11.780 C 6.411 11.657,6.520 11.569,6.537 11.586 C 6.554 11.602,6.507 11.735,6.434 11.879 M25.814 11.920 C 26.179 12.377,26.509 13.218,26.610 13.948 C 26.675 14.412,26.628 14.593,26.496 14.391 C 26.175 13.900,25.978 13.367,25.923 12.842 C 25.892 12.543,25.828 12.321,25.689 12.027 C 25.487 11.602,25.531 11.564,25.814 11.920 M12.253 13.397 C 12.516 13.391,12.534 13.399,12.564 13.535 C 12.680 14.060,12.838 14.382,13.086 14.600 L 13.272 14.763 13.174 15.208 C 12.990 16.048,12.714 16.608,12.370 16.835 C 12.110 17.007,11.788 17.021,11.582 16.870 C 11.264 16.635,10.947 15.918,10.818 15.141 L 10.759 14.780 11.032 14.474 C 11.182 14.305,11.403 13.979,11.523 13.748 C 11.716 13.377,11.754 13.333,11.857 13.366 C 11.921 13.387,12.099 13.401,12.253 13.397 M6.520 13.853 C 6.535 14.110,6.585 14.426,6.631 14.557 C 6.708 14.776,6.706 14.840,6.606 15.430 C 6.409 16.590,6.232 17.101,6.051 17.032 C 5.821 16.943,5.653 16.242,5.653 15.368 C 5.653 14.852,5.663 14.805,5.841 14.451 C 6.004 14.127,6.130 13.832,6.257 13.480 C 6.275 13.429,6.335 13.387,6.391 13.387 C 6.480 13.387,6.495 13.441,6.520 13.853 M8.987 13.627 C 9.057 14.103,9.139 14.361,9.268 14.515 L 9.404 14.676 9.316 15.173 C 9.139 16.175,8.873 16.804,8.565 16.953 C 8.431 17.017,8.399 17.014,8.274 16.921 C 7.971 16.696,7.779 16.144,7.686 15.229 L 7.641 14.779 7.890 14.521 C 8.063 14.341,8.191 14.133,8.310 13.838 L 8.481 13.413 8.718 13.413 C 8.954 13.413,8.955 13.415,8.987 13.627 M20.527 13.693 C 20.725 14.086,21.135 14.642,21.284 14.722 C 21.389 14.778,21.397 14.812,21.365 15.083 C 21.316 15.503,21.047 16.272,20.834 16.606 C 20.650 16.893,20.395 17.067,20.155 17.067 C 20.088 17.067,19.932 17.017,19.807 16.957 C 19.435 16.777,19.198 16.324,19.018 15.454 C 18.902 14.893,18.907 14.847,19.120 14.599 C 19.309 14.378,19.482 13.989,19.548 13.636 C 19.584 13.446,19.591 13.441,19.779 13.469 C 19.886 13.484,20.045 13.474,20.133 13.446 C 20.221 13.419,20.311 13.394,20.333 13.391 C 20.354 13.389,20.442 13.525,20.527 13.693 M23.678 13.613 C 23.770 13.922,24.070 14.508,24.237 14.706 C 24.350 14.841,24.373 14.923,24.373 15.190 C 24.373 15.934,24.057 16.908,23.764 17.064 C 23.656 17.122,23.602 17.123,23.467 17.067 C 23.160 16.940,22.909 16.353,22.729 15.339 L 22.633 14.800 22.757 14.618 C 22.915 14.386,23.040 13.967,23.040 13.669 C 23.040 13.455,23.049 13.440,23.161 13.468 C 23.228 13.485,23.342 13.475,23.415 13.446 C 23.607 13.369,23.604 13.367,23.678 13.613 M25.997 13.893 C 26.091 14.157,26.209 14.450,26.258 14.544 C 26.449 14.912,26.323 16.687,26.088 16.922 C 25.985 17.025,25.983 17.025,25.893 16.887 C 25.774 16.706,25.626 16.134,25.490 15.339 C 25.389 14.746,25.387 14.690,25.467 14.490 C 25.515 14.372,25.567 14.079,25.584 13.838 C 25.612 13.448,25.626 13.403,25.720 13.408 C 25.802 13.412,25.862 13.517,25.997 13.893 M16.646 13.653 C 16.737 13.939,17.007 14.457,17.179 14.674 C 17.363 14.906,17.370 15.040,17.228 15.595 C 16.971 16.599,16.449 17.114,15.854 16.950 C 15.415 16.828,14.949 16.039,14.781 15.132 C 14.734 14.881,14.735 14.877,14.937 14.717 C 15.190 14.517,15.536 14.005,15.627 13.698 L 15.695 13.467 16.141 13.467 L 16.587 13.467 16.646 13.653 M7.308 14.973 C 7.323 15.630,7.568 16.652,7.783 16.955 C 7.871 17.080,7.877 17.158,7.838 17.754 C 7.794 18.444,7.714 18.669,7.497 18.711 C 7.189 18.772,6.978 18.516,6.715 17.762 L 6.545 17.274 6.656 16.810 C 6.717 16.555,6.818 16.059,6.881 15.707 C 6.943 15.355,7.004 15.037,7.016 15.000 C 7.038 14.929,7.306 14.905,7.308 14.973 M10.400 15.127 C 10.400 15.384,10.537 16.046,10.653 16.352 C 10.710 16.501,10.832 16.733,10.925 16.868 C 11.114 17.142,11.126 17.267,11.013 17.749 C 10.865 18.373,10.612 18.720,10.303 18.720 C 9.951 18.720,9.611 18.407,9.360 17.853 C 9.154 17.397,9.140 17.210,9.296 17.003 C 9.476 16.763,9.674 16.184,9.785 15.573 C 9.836 15.295,9.884 15.043,9.892 15.013 C 9.900 14.984,10.018 14.959,10.153 14.959 C 10.395 14.957,10.400 14.960,10.400 15.127 M14.522 15.428 C 14.624 15.951,14.858 16.513,15.096 16.810 C 15.284 17.046,15.294 17.215,15.145 17.659 C 14.901 18.384,14.545 18.720,14.021 18.720 C 13.502 18.720,13.088 18.307,12.750 17.449 L 12.646 17.186 12.780 17.061 C 13.050 16.807,13.283 16.276,13.676 15.013 C 13.686 14.984,13.859 14.960,14.062 14.960 L 14.430 14.960 14.522 15.428 M18.595 15.326 C 18.737 16.100,18.990 16.664,19.340 16.994 L 19.574 17.214 19.333 17.696 C 18.944 18.473,18.528 18.780,17.964 18.704 C 17.573 18.652,17.226 18.176,17.029 17.423 L 16.940 17.084 17.160 16.754 C 17.449 16.322,17.760 15.473,17.760 15.118 C 17.760 15.055,17.770 14.994,17.783 14.982 C 17.795 14.970,17.968 14.960,18.166 14.960 L 18.527 14.960 18.595 15.326 M22.400 15.772 C 22.518 16.243,22.671 16.706,22.768 16.889 C 22.954 17.238,22.950 17.293,22.699 17.822 C 22.310 18.646,21.802 18.938,21.452 18.538 C 21.284 18.347,21.100 17.861,21.027 17.413 C 20.986 17.164,20.994 17.132,21.154 16.922 C 21.432 16.556,21.698 15.683,21.705 15.119 C 21.707 14.962,21.714 14.957,21.952 14.962 L 22.197 14.966 22.400 15.772 M25.092 15.054 C 25.107 15.120,25.167 15.461,25.225 15.813 C 25.284 16.165,25.372 16.585,25.420 16.747 C 25.547 17.168,25.529 17.408,25.334 17.911 C 25.118 18.470,24.902 18.732,24.677 18.709 C 24.396 18.681,24.319 18.503,24.267 17.766 C 24.222 17.126,24.224 17.109,24.351 16.922 C 24.518 16.676,24.678 16.154,24.719 15.725 C 24.791 14.962,24.793 14.957,24.934 14.946 C 25.031 14.938,25.072 14.966,25.092 15.054 M26.911 15.715 C 27.013 16.337,26.988 17.481,26.863 17.879 C 26.748 18.247,26.504 18.648,26.452 18.554 C 26.429 18.514,26.403 18.180,26.393 17.813 C 26.380 17.312,26.398 17.072,26.464 16.846 C 26.512 16.680,26.566 16.236,26.585 15.859 C 26.604 15.482,26.632 15.113,26.648 15.040 L 26.676 14.907 26.750 15.048 C 26.791 15.126,26.864 15.426,26.911 15.715 M5.440 15.921 C 5.470 16.390,5.518 16.869,5.546 16.987 C 5.646 17.403,5.598 18.705,5.486 18.635 C 5.385 18.573,5.162 18.052,5.090 17.714 C 5.003 17.301,4.993 16.454,5.069 15.920 C 5.141 15.412,5.275 14.960,5.336 15.021 C 5.362 15.048,5.409 15.453,5.440 15.921 M16.662 17.686 C 16.805 18.256,16.954 18.591,17.155 18.797 C 17.333 18.981,17.344 19.012,17.314 19.233 C 17.266 19.585,17.026 20.045,16.744 20.328 C 16.296 20.776,15.873 20.781,15.469 20.343 C 15.231 20.085,14.981 19.602,14.873 19.194 C 14.809 18.951,14.811 18.944,14.998 18.714 C 15.194 18.472,15.438 18.016,15.594 17.600 L 15.684 17.360 16.131 17.354 L 16.577 17.348 16.662 17.686 M20.658 17.660 C 20.713 18.128,20.860 18.524,21.048 18.712 L 21.227 18.891 21.125 19.121 C 20.848 19.747,20.229 20.429,19.843 20.532 C 19.340 20.668,19.022 20.285,18.931 19.433 L 18.880 18.960 19.062 18.800 C 19.311 18.581,19.552 18.180,19.687 17.761 L 19.800 17.412 20.214 17.412 L 20.628 17.412 20.658 17.660 M23.860 17.813 C 23.902 18.309,23.970 18.561,24.110 18.738 L 24.217 18.875 24.075 19.158 C 23.728 19.842,23.162 20.515,22.837 20.629 C 22.687 20.681,22.648 20.675,22.562 20.589 C 22.432 20.459,22.377 20.009,22.416 19.400 C 22.444 18.976,22.462 18.910,22.591 18.783 C 22.851 18.524,23.047 18.148,23.275 17.467 C 23.285 17.437,23.413 17.413,23.560 17.413 L 23.827 17.413 23.860 17.813 M6.369 17.507 C 6.494 17.940,6.721 18.469,6.889 18.721 C 7.059 18.976,7.117 19.134,7.202 19.572 C 7.315 20.155,7.337 20.615,7.255 20.666 C 7.171 20.718,6.902 20.551,6.722 20.334 C 6.540 20.117,6.034 19.134,6.014 18.960 C 5.996 18.808,6.083 17.532,6.114 17.482 C 6.155 17.415,6.348 17.434,6.369 17.507 M8.913 17.810 C 9.071 18.291,9.179 18.492,9.437 18.784 C 9.650 19.026,9.659 19.052,9.690 19.482 C 9.729 20.037,9.675 20.495,9.553 20.646 C 9.468 20.751,9.441 20.755,9.266 20.698 C 9.017 20.615,8.523 20.089,8.227 19.591 C 7.887 19.017,7.882 18.994,8.025 18.633 C 8.094 18.461,8.165 18.188,8.184 18.027 C 8.254 17.437,8.239 17.461,8.534 17.461 L 8.798 17.461 8.913 17.810 M12.372 17.723 C 12.476 18.126,12.731 18.587,12.971 18.804 C 13.187 18.999,13.191 19.009,13.181 19.328 C 13.148 20.314,12.801 20.772,12.229 20.583 C 11.956 20.493,11.508 20.055,11.227 19.603 C 10.872 19.031,10.849 18.945,11.008 18.778 C 11.179 18.599,11.346 18.203,11.424 17.793 L 11.486 17.467 11.896 17.467 L 12.307 17.467 12.372 17.723 M26.050 18.067 C 26.068 18.382,26.105 18.722,26.133 18.823 C 26.178 18.990,26.153 19.064,25.854 19.643 C 25.237 20.836,24.704 21.124,24.854 20.182 C 24.979 19.403,25.067 19.095,25.247 18.814 C 25.428 18.531,25.633 18.081,25.757 17.693 C 25.801 17.559,25.853 17.493,25.919 17.493 C 26.005 17.493,26.020 17.559,26.050 18.067 M14.507 19.307 C 14.614 19.787,14.823 20.247,15.052 20.508 C 15.256 20.740,15.266 20.766,15.237 21.013 C 15.193 21.381,15.017 21.699,14.810 21.786 C 14.296 22.001,13.907 21.927,13.537 21.545 C 13.392 21.396,13.259 21.196,13.222 21.073 C 13.163 20.874,13.168 20.849,13.299 20.693 C 13.471 20.489,13.586 20.106,13.654 19.515 C 13.683 19.268,13.706 19.055,13.706 19.040 C 13.706 19.025,13.872 19.013,14.074 19.013 L 14.442 19.013 14.507 19.307 M10.812 19.734 C 11.019 20.158,11.168 20.383,11.386 20.601 L 11.680 20.895 11.679 21.234 C 11.678 21.671,11.599 21.826,11.347 21.889 C 10.948 21.988,10.503 21.725,10.114 21.161 L 9.917 20.874 10.007 20.664 C 10.100 20.447,10.125 19.733,10.055 19.317 L 10.022 19.120 10.278 19.141 L 10.533 19.161 10.812 19.734 M18.365 19.496 C 18.404 19.962,18.566 20.495,18.750 20.764 C 18.915 21.005,18.901 21.104,18.654 21.471 C 18.431 21.802,18.087 21.986,17.681 21.992 C 17.226 21.999,16.959 21.737,16.826 21.152 C 16.765 20.885,16.767 20.876,16.938 20.665 C 17.156 20.398,17.402 19.885,17.519 19.451 L 17.609 19.120 17.971 19.120 L 18.333 19.120 18.365 19.496 M24.561 19.834 C 24.488 20.222,24.432 20.592,24.437 20.656 C 24.442 20.721,24.379 20.881,24.297 21.013 C 23.973 21.534,23.592 21.813,23.181 21.830 C 22.976 21.839,22.959 21.829,22.943 21.691 C 22.918 21.474,23.219 20.868,23.491 20.587 C 23.752 20.317,24.070 19.838,24.261 19.427 C 24.361 19.213,24.419 19.148,24.528 19.135 C 24.604 19.125,24.673 19.120,24.680 19.124 C 24.688 19.127,24.634 19.447,24.561 19.834 M21.930 19.710 C 21.915 20.222,21.953 20.576,22.049 20.804 C 22.096 20.917,21.708 21.436,21.422 21.642 C 21.104 21.870,20.809 21.949,20.571 21.870 C 20.350 21.797,20.267 21.619,20.267 21.221 C 20.267 20.976,20.283 20.948,20.608 20.624 C 20.941 20.293,21.232 19.814,21.383 19.347 C 21.446 19.153,21.457 19.147,21.697 19.147 L 21.947 19.146 21.930 19.710 M26.267 19.723 C 26.053 20.411,25.746 20.966,25.408 21.276 C 25.152 21.510,24.840 21.658,24.765 21.582 C 24.693 21.511,24.849 21.275,25.224 20.882 C 25.456 20.640,25.723 20.291,25.838 20.080 C 26.294 19.248,26.367 19.129,26.389 19.192 C 26.401 19.229,26.346 19.468,26.267 19.723 M6.810 20.839 C 7.437 21.472,7.522 21.681,7.102 21.555 C 6.825 21.473,6.406 21.022,6.171 20.555 C 5.997 20.209,5.705 19.378,5.708 19.237 C 5.709 19.202,5.847 19.437,6.015 19.759 C 6.272 20.253,6.397 20.423,6.810 20.839 M7.779 19.547 C 7.982 19.981,8.241 20.373,8.581 20.761 C 8.859 21.079,9.083 21.574,9.056 21.809 C 9.041 21.936,9.020 21.946,8.786 21.943 C 8.596 21.941,8.477 21.901,8.306 21.782 C 8.049 21.603,7.563 20.926,7.594 20.790 C 7.605 20.741,7.558 20.393,7.488 20.017 C 7.332 19.177,7.332 19.200,7.488 19.200 C 7.594 19.200,7.645 19.261,7.779 19.547 " stroke="none" fill-rule="evenodd" fill="black"></path></svg>