<svg viewBox="0 0 32 32" xmlns="http://www.w3.org/2000/svg"><path d="M14.933 0.034 C 10.237 0.384,6.020 2.671,3.211 6.391 C 1.590 8.538,0.590 10.959,0.146 13.813 C -0.017 14.858,-0.017 17.142,0.146 18.187 C 0.830 22.578,2.950 26.177,6.391 28.787 C 8.515 30.398,10.963 31.410,13.813 31.854 C 14.858 32.017,17.142 32.017,18.187 31.854 C 20.149 31.549,21.935 30.970,23.505 30.132 C 26.290 28.646,28.646 26.290,30.132 23.505 C 30.970 21.935,31.549 20.149,31.854 18.187 C 32.017 17.142,32.017 14.858,31.854 13.813 C 31.410 10.961,30.399 8.515,28.784 6.386 C 26.139 2.901,22.361 0.710,18.000 0.132 C 17.376 0.050,15.520 -0.010,14.933 0.034 M16.589 6.170 C 16.678 6.222,16.766 6.323,16.783 6.394 C 16.801 6.464,16.796 6.825,16.772 7.194 C 16.696 8.365,16.678 8.318,17.212 8.319 C 17.499 8.320,17.555 8.304,17.621 8.200 C 17.666 8.130,17.743 7.696,17.806 7.155 C 17.886 6.467,17.937 6.203,18.005 6.128 C 18.175 5.940,18.832 6.027,19.073 6.269 C 19.224 6.419,19.234 6.621,19.139 7.613 C 19.063 8.395,19.079 8.427,19.623 8.583 C 19.816 8.639,20.369 8.796,20.853 8.932 C 21.337 9.068,21.787 9.215,21.853 9.258 C 22.011 9.360,22.010 9.604,21.850 10.377 C 21.702 11.089,21.588 11.309,21.318 11.398 C 21.139 11.458,21.060 11.445,20.442 11.252 C 19.267 10.885,18.627 10.763,17.732 10.733 C 16.723 10.700,16.291 10.767,15.735 11.046 C 15.252 11.287,14.936 11.601,14.729 12.044 C 14.523 12.482,14.526 13.075,14.734 13.501 C 15.037 14.117,15.450 14.370,17.200 15.009 C 19.182 15.733,19.658 15.972,20.184 16.506 C 20.722 17.052,20.985 17.688,21.048 18.591 C 21.147 20.023,20.579 21.480,19.543 22.449 C 18.884 23.065,18.269 23.386,17.099 23.724 C 16.671 23.848,16.314 23.982,16.254 24.042 C 16.172 24.125,16.131 24.308,16.055 24.940 C 15.947 25.837,15.926 25.910,15.759 25.974 C 15.575 26.044,14.943 25.881,14.785 25.723 C 14.656 25.594,14.655 25.585,14.692 24.938 C 14.738 24.143,14.718 24.107,14.240 24.107 C 13.768 24.107,13.750 24.136,13.652 25.040 C 13.548 26.002,13.473 26.083,12.829 25.920 C 12.286 25.784,12.242 25.711,12.298 25.040 C 12.365 24.233,12.352 24.048,12.219 23.940 C 12.156 23.890,11.907 23.783,11.666 23.703 C 10.799 23.417,10.133 23.138,10.080 23.039 C 9.999 22.888,10.015 22.670,10.155 22.007 C 10.337 21.147,10.454 20.960,10.806 20.960 C 10.886 20.960,11.277 21.066,11.676 21.196 C 12.561 21.484,13.068 21.591,13.867 21.659 C 15.531 21.800,16.908 21.423,17.636 20.627 C 18.137 20.080,18.365 19.229,18.177 18.603 C 18.100 18.344,17.769 17.960,17.475 17.790 C 17.353 17.719,16.721 17.479,16.070 17.257 C 13.526 16.389,12.621 15.814,12.101 14.733 C 11.603 13.696,11.700 12.013,12.329 10.800 C 12.763 9.964,13.346 9.433,14.384 8.927 C 14.776 8.736,15.134 8.525,15.194 8.449 C 15.253 8.374,15.312 8.212,15.326 8.090 C 15.340 7.967,15.387 7.512,15.430 7.079 C 15.485 6.534,15.538 6.248,15.601 6.151 C 15.688 6.018,15.707 6.013,16.059 6.043 C 16.265 6.060,16.498 6.116,16.589 6.170 " stroke="none" fill-rule="evenodd" fill="black"></path></svg>