<svg width="32" height="32" xmlns="http://www.w3.org/2000/svg"><path d="M14.933 0.034 C 10.235 0.384,6.048 2.654,3.216 6.386 C 1.598 8.520,0.591 10.955,0.146 13.813 C -0.017 14.858,-0.017 17.142,0.146 18.187 C 0.751 22.072,2.496 25.366,5.264 27.849 C 7.722 30.055,10.443 31.329,13.813 31.854 C 14.858 32.017,17.142 32.017,18.187 31.854 C 22.076 31.248,25.381 29.495,27.861 26.724 C 30.060 24.267,31.330 21.551,31.854 18.187 C 32.017 17.142,32.017 14.858,31.854 13.813 C 31.410 10.963,30.398 8.515,28.787 6.391 C 26.141 2.903,22.360 0.710,18.000 0.132 C 17.376 0.050,15.520 -0.010,14.933 0.034 M21.276 10.155 C 22.945 10.380,24.301 10.740,25.680 11.324 C 26.233 11.559,27.265 12.097,27.379 12.211 C 27.408 12.240,27.193 12.178,26.902 12.074 C 25.454 11.555,23.244 11.149,20.968 10.983 C 19.875 10.903,17.520 10.947,16.773 11.060 C 14.623 11.387,13.415 11.998,12.949 12.994 C 12.654 13.623,12.689 14.323,13.059 15.242 C 13.164 15.500,13.166 15.526,13.084 15.558 C 12.924 15.619,11.970 15.010,11.516 14.556 C 10.588 13.628,10.687 12.614,11.787 11.781 C 12.951 10.900,14.961 10.289,17.440 10.061 C 17.995 10.010,20.689 10.076,21.276 10.155 M12.107 10.898 C 12.107 10.908,11.885 11.081,11.613 11.283 C 10.603 12.036,9.805 12.981,9.574 13.697 C 9.438 14.117,9.478 14.659,9.674 15.059 C 10.059 15.846,11.093 16.510,12.529 16.894 C 12.942 17.004,13.170 17.031,13.720 17.035 C 14.393 17.040,14.400 17.041,14.400 17.163 C 14.400 17.333,14.281 17.542,14.071 17.744 C 13.803 18.001,13.531 18.094,13.040 18.096 C 11.350 18.103,9.124 16.472,8.633 14.866 C 8.468 14.327,8.504 13.693,8.726 13.223 C 9.130 12.369,10.173 11.596,11.680 11.034 C 12.131 10.866,12.107 10.874,12.107 10.898 M20.501 12.875 C 22.413 13.448,24.026 14.940,24.427 16.507 C 24.616 17.249,24.537 17.998,24.201 18.628 C 23.860 19.269,23.016 20.020,22.187 20.421 C 21.996 20.513,21.900 20.546,21.973 20.495 C 22.299 20.268,22.828 19.703,22.976 19.423 C 23.252 18.904,23.323 18.566,23.295 17.898 C 23.276 17.419,23.240 17.219,23.110 16.843 C 22.608 15.403,21.266 14.170,19.707 13.717 C 18.908 13.484,17.941 13.431,17.147 13.574 C 16.612 13.671,16.640 13.672,16.640 13.552 C 16.640 13.490,16.737 13.389,16.894 13.288 C 17.305 13.024,17.677 12.878,18.320 12.725 C 18.379 12.711,18.787 12.707,19.227 12.716 C 19.908 12.730,20.097 12.754,20.501 12.875 M18.699 15.250 C 19.408 15.423,20.031 15.653,20.480 15.908 C 20.877 16.133,21.368 16.609,21.538 16.933 C 21.659 17.163,21.678 17.266,21.679 17.680 C 21.680 18.112,21.663 18.197,21.507 18.525 C 20.496 20.661,16.671 22.198,12.928 21.973 C 9.757 21.782,6.773 20.508,4.320 18.297 C 4.111 18.108,4.172 18.135,4.800 18.508 C 7.231 19.950,9.535 20.866,11.787 21.283 C 12.571 21.429,14.166 21.483,14.917 21.388 C 17.429 21.074,19.196 19.690,19.344 17.923 C 19.417 17.051,18.948 16.100,18.113 15.428 C 17.974 15.317,17.916 15.234,17.938 15.177 C 17.979 15.070,17.947 15.067,18.699 15.250 " stroke="none" fill-rule="evenodd" fill="black"></path></svg>