<svg width="32" height="32" xmlns="http://www.w3.org/2000/svg"><path d="M14.933 0.034 C 10.237 0.384,6.020 2.671,3.211 6.391 C 1.590 8.538,0.590 10.959,0.146 13.813 C -0.017 14.858,-0.017 17.142,0.146 18.187 C 0.830 22.578,2.950 26.177,6.391 28.787 C 8.515 30.398,10.963 31.410,13.813 31.854 C 14.858 32.017,17.142 32.017,18.187 31.854 C 20.149 31.549,21.935 30.970,23.505 30.132 C 26.290 28.646,28.646 26.290,30.132 23.505 C 30.970 21.935,31.549 20.149,31.854 18.187 C 32.017 17.142,32.017 14.858,31.854 13.813 C 31.410 10.961,30.399 8.515,28.784 6.386 C 26.139 2.901,22.361 0.710,18.000 0.132 C 17.376 0.050,15.520 -0.010,14.933 0.034 M21.508 6.494 L 21.973 6.962 21.973 16.000 L 21.973 25.038 21.481 25.532 L 20.989 26.027 16.002 26.027 L 11.015 26.027 10.521 25.534 L 10.027 25.042 10.027 16.002 L 10.027 6.962 10.492 6.494 L 10.958 6.027 16.000 6.027 L 21.042 6.027 21.508 6.494 M11.893 16.000 L 11.893 24.000 16.000 24.000 L 20.107 24.000 20.107 16.000 L 20.107 8.000 16.000 8.000 L 11.893 8.000 11.893 16.000 M16.960 12.133 L 16.960 13.280 18.000 13.280 L 19.040 13.280 19.040 14.240 L 19.040 15.200 16.027 15.200 L 13.013 15.200 13.013 14.240 L 13.013 13.280 14.053 13.280 L 15.093 13.280 15.093 12.133 L 15.093 10.987 16.027 10.987 L 16.960 10.987 16.960 12.133 M19.040 17.867 L 19.040 18.827 18.000 18.827 L 16.960 18.827 16.960 19.973 L 16.960 21.120 16.027 21.120 L 15.093 21.120 15.093 19.973 L 15.093 18.827 14.053 18.827 L 13.013 18.827 13.013 17.867 L 13.013 16.907 16.027 16.907 L 19.040 16.907 19.040 17.867 " stroke="none" fill-rule="evenodd" fill="black"></path></svg>