<svg width="32" height="32" xmlns="http://www.w3.org/2000/svg"><path d="M14.933 0.034 C 10.237 0.384,6.020 2.671,3.211 6.391 C 1.590 8.538,0.590 10.959,0.146 13.813 C -0.017 14.858,-0.017 17.142,0.146 18.187 C 0.830 22.578,2.950 26.177,6.391 28.787 C 8.515 30.398,10.963 31.410,13.813 31.854 C 14.858 32.017,17.142 32.017,18.187 31.854 C 20.149 31.549,21.935 30.970,23.505 30.132 C 26.290 28.646,28.646 26.290,30.132 23.505 C 30.970 21.935,31.549 20.149,31.854 18.187 C 32.017 17.142,32.017 14.858,31.854 13.813 C 31.410 10.961,30.399 8.515,28.784 6.386 C 26.139 2.901,22.361 0.710,18.000 0.132 C 17.376 0.050,15.520 -0.010,14.933 0.034 M11.970 11.041 C 13.581 11.198,14.648 11.903,15.041 13.071 C 15.135 13.349,15.152 13.507,15.138 13.948 C 15.121 14.444,15.104 14.518,14.923 14.883 C 14.814 15.101,14.616 15.393,14.483 15.531 C 14.349 15.670,14.240 15.792,14.240 15.804 C 14.240 15.816,14.330 15.886,14.440 15.958 C 15.592 16.722,15.911 18.458,15.119 19.652 C 14.767 20.182,14.233 20.534,13.430 20.767 C 12.676 20.985,12.198 21.013,9.167 21.013 C 6.355 21.013,6.305 21.012,6.167 20.903 C 6.027 20.793,6.027 20.790,6.027 20.029 C 6.027 19.385,6.040 19.255,6.115 19.193 C 6.186 19.134,6.780 19.115,9.275 19.093 C 12.301 19.066,12.351 19.064,12.644 18.946 C 13.126 18.752,13.333 18.465,13.333 17.994 C 13.333 17.402,12.911 17.043,12.053 16.909 C 11.851 16.877,10.573 16.854,8.985 16.854 C 6.609 16.853,6.249 16.843,6.145 16.770 C 6.032 16.691,6.027 16.653,6.027 15.930 C 6.028 15.514,6.046 15.147,6.067 15.115 C 6.182 14.943,6.345 14.933,9.080 14.933 C 12.063 14.933,12.119 14.928,12.526 14.626 C 12.864 14.374,12.952 13.871,12.733 13.438 C 12.641 13.256,12.551 13.169,12.347 13.067 L 12.080 12.933 9.148 12.917 C 6.550 12.903,6.204 12.891,6.121 12.815 C 6.039 12.741,6.027 12.629,6.027 11.969 C 6.027 11.210,6.027 11.207,6.167 11.097 C 6.305 10.989,6.357 10.987,8.874 10.988 C 10.285 10.989,11.679 11.013,11.970 11.041 M22.102 11.047 C 22.175 11.081,22.260 11.180,22.291 11.269 C 22.372 11.501,22.368 20.509,22.287 20.743 C 22.252 20.842,22.172 20.935,22.097 20.964 C 22.025 20.991,21.607 21.013,21.167 21.013 C 20.390 21.013,20.365 21.010,20.238 20.882 L 20.107 20.752 20.107 16.968 C 20.107 13.324,20.103 13.181,20.005 13.059 L 19.903 12.933 18.274 12.918 L 16.644 12.902 16.535 12.764 C 16.439 12.642,16.427 12.549,16.427 11.963 C 16.427 11.268,16.464 11.118,16.657 11.040 C 16.839 10.967,21.940 10.974,22.102 11.047 M25.833 11.097 C 25.973 11.207,25.973 11.211,25.973 11.960 C 25.973 12.585,25.958 12.728,25.885 12.809 C 25.805 12.898,25.694 12.907,24.658 12.907 C 23.209 12.907,23.307 12.976,23.307 11.951 C 23.307 10.936,23.237 10.987,24.640 10.987 C 25.624 10.987,25.701 10.994,25.833 11.097 " stroke="none" fill-rule="evenodd" fill="black"></path></svg>