<svg viewBox="0 0 32 32" xmlns="http://www.w3.org/2000/svg"><path d="M14.933 0.034 C 10.237 0.384,6.020 2.671,3.211 6.391 C 1.590 8.538,0.590 10.959,0.146 13.813 C -0.017 14.858,-0.017 17.142,0.146 18.187 C 0.830 22.578,2.950 26.177,6.391 28.787 C 8.515 30.398,10.963 31.410,13.813 31.854 C 14.858 32.017,17.142 32.017,18.187 31.854 C 20.149 31.549,21.935 30.970,23.505 30.132 C 26.290 28.646,28.646 26.290,30.132 23.505 C 30.970 21.935,31.549 20.149,31.854 18.187 C 32.017 17.142,32.017 14.858,31.854 13.813 C 31.410 10.961,30.399 8.515,28.784 6.386 C 26.139 2.901,22.361 0.710,18.000 0.132 C 17.376 0.050,15.520 -0.010,14.933 0.034 M17.472 8.533 L 17.434 11.040 20.210 11.040 L 22.987 11.040 22.987 12.800 L 22.987 14.560 20.213 14.560 L 17.440 14.560 17.440 17.714 C 17.440 20.012,17.457 20.926,17.504 21.081 C 17.661 21.605,18.361 22.095,19.203 22.271 C 19.770 22.389,20.679 22.375,21.173 22.240 C 21.393 22.180,21.606 22.126,21.647 22.119 C 21.698 22.110,21.881 22.575,22.256 23.671 C 22.696 24.958,22.778 25.245,22.716 25.284 C 22.568 25.379,21.829 25.648,21.424 25.754 C 20.777 25.923,20.200 25.986,19.307 25.985 C 17.986 25.982,16.847 25.733,15.832 25.223 C 15.245 24.928,14.981 24.745,14.541 24.323 C 13.879 23.691,13.455 22.970,13.215 22.070 L 13.097 21.627 13.081 14.773 L 13.065 7.920 15.239 6.976 C 16.435 6.457,17.435 6.031,17.462 6.029 C 17.490 6.028,17.494 7.044,17.472 8.533 M9.732 10.929 C 10.156 11.138,10.462 11.469,10.707 11.985 C 10.882 12.353,10.901 12.440,10.923 12.963 C 10.943 13.439,10.928 13.599,10.835 13.904 C 10.378 15.411,8.881 15.957,7.801 15.011 C 7.283 14.558,6.921 13.563,7.016 12.855 C 7.102 12.216,7.301 11.747,7.644 11.374 C 8.241 10.725,8.993 10.565,9.732 10.929 " stroke="none" fill-rule="evenodd" fill="black"></path></svg>