<svg width="32" height="32" xmlns="http://www.w3.org/2000/svg"><path d="M14.933 0.034 C 10.237 0.384,6.020 2.671,3.211 6.391 C 1.590 8.538,0.590 10.959,0.146 13.813 C -0.017 14.858,-0.017 17.142,0.146 18.187 C 0.830 22.578,2.950 26.177,6.391 28.787 C 8.515 30.398,10.963 31.410,13.813 31.854 C 14.858 32.017,17.142 32.017,18.187 31.854 C 20.149 31.549,21.935 30.970,23.505 30.132 C 26.290 28.646,28.646 26.290,30.132 23.505 C 30.970 21.935,31.549 20.149,31.854 18.187 C 32.017 17.142,32.017 14.858,31.854 13.813 C 31.410 10.961,30.399 8.515,28.784 6.386 C 26.139 2.901,22.361 0.710,18.000 0.132 C 17.376 0.050,15.520 -0.010,14.933 0.034 M7.732 11.560 C 7.731 11.582,7.640 11.960,7.529 12.400 L 7.327 13.200 6.170 13.214 C 5.534 13.222,5.013 13.215,5.013 13.198 C 5.013 13.161,5.381 11.680,5.413 11.587 C 5.431 11.536,5.714 11.520,6.585 11.520 C 7.217 11.520,7.733 11.538,7.732 11.560 M15.488 12.333 C 15.389 12.781,14.917 14.803,14.437 16.827 L 13.566 20.507 12.490 20.521 C 11.681 20.532,11.413 20.520,11.413 20.472 C 11.413 20.436,11.797 18.805,12.267 16.847 C 12.736 14.888,13.120 13.272,13.120 13.256 C 13.120 13.240,12.462 13.227,11.657 13.227 L 10.194 13.227 10.135 13.507 C 10.102 13.661,9.733 15.299,9.315 17.147 L 8.554 20.507 7.370 20.521 C 6.453 20.532,6.187 20.520,6.187 20.469 C 6.187 20.432,6.667 18.420,7.253 15.997 C 7.840 13.575,8.320 11.576,8.320 11.556 C 8.320 11.536,9.973 11.520,11.993 11.520 L 15.666 11.520 15.488 12.333 M24.453 11.649 C 25.513 11.960,26.187 12.667,26.187 13.469 L 26.187 13.707 26.592 13.707 C 26.894 13.707,26.992 13.724,26.974 13.773 C 26.960 13.810,26.895 14.002,26.830 14.200 L 26.711 14.560 26.349 14.560 C 25.995 14.560,25.985 14.564,25.919 14.722 C 25.791 15.032,25.153 15.486,24.534 15.708 C 24.415 15.751,24.376 15.785,24.427 15.801 C 24.471 15.815,24.644 15.866,24.812 15.916 C 25.371 16.079,25.804 16.545,25.889 17.075 L 25.921 17.280 26.315 17.280 L 26.708 17.280 26.601 17.704 L 26.495 18.129 26.177 18.144 L 25.859 18.160 25.754 18.471 C 25.617 18.876,25.460 19.118,25.140 19.417 C 24.805 19.729,24.494 19.910,23.950 20.109 C 23.134 20.407,22.847 20.429,20.078 20.414 L 17.570 20.400 18.623 16.080 C 19.202 13.704,19.690 11.704,19.707 11.636 L 19.737 11.513 21.935 11.534 C 23.835 11.553,24.177 11.568,24.453 11.649 M17.177 13.867 C 17.656 14.937,18.043 15.863,18.038 15.923 C 18.031 16.016,17.389 18.984,17.297 19.354 C 17.272 19.451,17.045 18.967,16.339 17.311 C 15.830 16.117,15.413 15.095,15.413 15.039 C 15.413 14.984,15.581 14.219,15.787 13.341 C 15.992 12.462,16.161 11.723,16.162 11.698 C 16.166 11.618,16.294 11.891,17.177 13.867 M21.307 13.587 C 21.257 13.814,21.161 14.236,21.093 14.524 C 20.995 14.945,20.984 15.053,21.042 15.075 C 21.081 15.090,21.552 15.094,22.090 15.084 C 23.035 15.067,23.074 15.062,23.307 14.925 C 23.937 14.555,23.949 13.665,23.329 13.301 C 23.123 13.181,23.062 13.173,22.254 13.173 L 21.397 13.173 21.307 13.587 M20.614 16.653 C 20.601 16.690,20.494 17.140,20.374 17.653 C 20.255 18.167,20.144 18.629,20.128 18.680 C 20.101 18.767,20.184 18.773,21.358 18.773 C 22.719 18.773,22.807 18.759,23.141 18.477 C 23.760 17.955,23.573 16.987,22.788 16.659 C 22.552 16.560,20.647 16.555,20.614 16.653 " stroke="none" fill-rule="evenodd" fill="black"></path></svg>