<svg width="32" height="32" xmlns="http://www.w3.org/2000/svg"><path d="M14.933 0.034 C 10.237 0.384,6.020 2.671,3.211 6.391 C 1.590 8.538,0.590 10.959,0.146 13.813 C -0.017 14.858,-0.017 17.142,0.146 18.187 C 0.830 22.578,2.950 26.177,6.391 28.787 C 8.515 30.398,10.963 31.410,13.813 31.854 C 14.858 32.017,17.142 32.017,18.187 31.854 C 20.149 31.549,21.935 30.970,23.505 30.132 C 26.290 28.646,28.646 26.290,30.132 23.505 C 30.970 21.935,31.549 20.149,31.854 18.187 C 32.017 17.142,32.017 14.858,31.854 13.813 C 31.410 10.961,30.399 8.515,28.784 6.386 C 26.139 2.901,22.361 0.710,18.000 0.132 C 17.376 0.050,15.520 -0.010,14.933 0.034 M16.825 4.134 C 17.030 4.177,17.366 4.293,17.572 4.392 C 18.062 4.625,25.124 8.705,25.452 8.944 C 25.875 9.252,26.283 9.749,26.537 10.267 C 26.979 11.167,26.953 10.838,26.974 15.813 C 26.987 18.720,26.973 20.421,26.936 20.767 C 26.872 21.362,26.704 21.896,26.444 22.334 C 26.234 22.688,25.665 23.311,25.362 23.518 C 25.111 23.690,18.021 27.787,17.646 27.977 C 16.741 28.436,15.495 28.465,14.523 28.049 C 14.382 27.989,12.551 26.951,10.453 25.743 C 6.656 23.556,6.638 23.545,6.185 23.093 C 5.660 22.571,5.344 22.028,5.172 21.353 C 5.071 20.960,5.067 20.743,5.067 16.187 C 5.067 11.661,5.072 11.411,5.170 11.028 C 5.355 10.304,5.804 9.577,6.360 9.103 C 6.648 8.856,13.683 4.749,14.398 4.409 C 15.110 4.072,16.036 3.967,16.825 4.134 M15.413 5.682 C 15.111 5.767,7.827 9.933,7.431 10.247 C 7.117 10.496,6.837 10.911,6.719 11.299 C 6.614 11.645,6.611 11.770,6.626 16.320 L 6.640 20.987 6.788 21.303 C 6.971 21.694,7.243 22.032,7.537 22.232 C 8.107 22.621,15.039 26.576,15.313 26.669 C 15.709 26.802,16.263 26.805,16.675 26.676 C 16.951 26.589,23.852 22.653,24.458 22.236 C 24.967 21.887,25.296 21.313,25.389 20.612 C 25.426 20.332,25.440 18.723,25.428 15.893 C 25.408 11.080,25.431 11.358,25.010 10.728 C 24.892 10.550,24.682 10.323,24.544 10.222 C 24.167 9.947,17.081 5.865,16.773 5.746 C 16.414 5.607,15.787 5.577,15.413 5.682 M17.166 10.089 C 17.713 10.387,18.201 10.658,18.252 10.692 C 18.334 10.748,18.291 10.845,17.809 11.684 C 17.516 12.195,17.226 12.655,17.165 12.707 C 17.068 12.789,16.927 12.800,16.004 12.800 C 15.248 12.800,14.928 12.781,14.863 12.733 C 14.814 12.697,14.523 12.235,14.217 11.707 C 13.671 10.765,13.662 10.745,13.777 10.682 C 13.841 10.647,14.325 10.379,14.853 10.086 C 15.506 9.725,15.871 9.554,15.992 9.551 C 16.123 9.548,16.438 9.692,17.166 10.089 M13.535 12.094 C 13.913 12.751,14.080 13.094,14.080 13.211 C 14.080 13.327,13.931 13.638,13.608 14.197 C 13.005 15.241,13.077 15.200,11.854 15.200 C 10.944 15.200,10.935 15.199,10.910 15.080 C 10.763 14.392,10.672 13.627,10.659 12.970 C 10.650 12.544,10.663 12.460,10.751 12.373 C 10.859 12.266,12.840 11.157,12.935 11.151 C 12.965 11.148,13.235 11.573,13.535 12.094 M20.155 11.723 C 20.738 12.044,21.235 12.354,21.293 12.433 C 21.391 12.565,21.393 12.611,21.335 13.339 C 21.301 13.761,21.233 14.347,21.183 14.640 L 21.092 15.173 20.207 15.188 C 18.932 15.209,19.018 15.256,18.414 14.213 C 18.113 13.693,17.920 13.302,17.920 13.211 C 17.920 13.047,18.977 11.149,19.067 11.151 C 19.096 11.152,19.586 11.409,20.155 11.723 M17.092 13.662 C 17.276 13.746,18.187 15.328,18.187 15.563 C 18.187 15.732,17.378 17.203,17.170 17.413 C 17.073 17.511,16.980 17.522,16.114 17.538 C 15.368 17.551,15.123 17.538,14.976 17.477 C 14.815 17.410,14.721 17.280,14.301 16.553 C 14.003 16.036,13.813 15.650,13.813 15.558 C 13.813 15.374,14.679 13.853,14.869 13.704 C 14.989 13.609,15.090 13.600,15.978 13.600 C 16.611 13.600,17.003 13.622,17.092 13.662 M12.978 16.006 C 13.163 16.090,14.079 17.672,14.079 17.908 C 14.080 18.033,13.930 18.344,13.560 18.987 C 13.274 19.484,13.024 19.892,13.005 19.892 C 12.960 19.894,12.453 19.085,12.170 18.560 C 11.784 17.845,11.147 16.264,11.147 16.022 C 11.147 15.960,11.303 15.947,11.997 15.947 C 12.506 15.947,12.900 15.970,12.978 16.006 M20.776 16.333 C 20.583 16.956,20.279 17.687,19.926 18.373 C 19.543 19.118,19.048 19.905,18.987 19.867 C 18.877 19.799,17.920 18.037,17.920 17.903 C 17.920 17.722,18.721 16.304,18.941 16.093 L 19.095 15.947 19.995 15.947 L 20.895 15.947 20.776 16.333 M17.084 18.352 C 17.172 18.392,17.405 18.743,17.804 19.432 C 18.129 19.994,18.410 20.496,18.430 20.547 C 18.455 20.613,18.388 20.732,18.206 20.947 C 17.838 21.381,17.046 22.158,16.588 22.532 C 16.048 22.974,15.948 22.971,15.373 22.491 C 14.906 22.101,13.547 20.714,13.547 20.627 C 13.547 20.515,14.747 18.493,14.871 18.396 C 14.989 18.303,15.095 18.293,15.978 18.293 C 16.577 18.293,17.005 18.316,17.084 18.352 " stroke="none" fill-rule="evenodd" fill="black"></path></svg>