<svg width="32" height="32" xmlns="http://www.w3.org/2000/svg"><path d="M14.933 0.034 C 10.237 0.384,6.020 2.671,3.211 6.391 C 1.590 8.538,0.590 10.959,0.146 13.813 C -0.017 14.858,-0.017 17.142,0.146 18.187 C 0.830 22.578,2.950 26.177,6.391 28.787 C 8.515 30.398,10.963 31.410,13.813 31.854 C 14.858 32.017,17.142 32.017,18.187 31.854 C 20.149 31.549,21.935 30.970,23.505 30.132 C 26.290 28.646,28.646 26.290,30.132 23.505 C 30.970 21.935,31.549 20.149,31.854 18.187 C 32.017 17.142,32.017 14.858,31.854 13.813 C 31.410 10.961,30.399 8.515,28.784 6.386 C 26.139 2.901,22.361 0.710,18.000 0.132 C 17.376 0.050,15.520 -0.010,14.933 0.034 M14.847 8.613 L 21.935 9.917 22.287 10.253 C 22.481 10.438,23.319 11.235,24.148 12.023 C 24.978 12.812,25.650 13.475,25.642 13.497 C 25.598 13.616,15.115 26.334,15.086 26.303 C 15.052 26.266,7.520 7.327,7.520 7.278 C 7.520 7.263,7.574 7.264,7.640 7.280 C 7.706 7.296,10.949 7.896,14.847 8.613 M10.298 8.868 C 10.344 8.904,11.756 10.073,13.435 11.467 C 15.114 12.860,16.510 14.008,16.537 14.018 C 16.564 14.027,17.489 13.283,18.593 12.364 C 19.696 11.445,20.566 10.687,20.526 10.680 C 16.968 10.022,10.288 8.800,10.257 8.802 C 10.233 8.803,10.251 8.833,10.298 8.868 M9.541 9.664 C 9.906 10.610,14.999 23.391,15.037 23.456 C 15.082 23.534,15.090 23.535,15.092 23.463 C 15.093 23.417,15.321 21.499,15.600 19.200 C 15.879 16.901,16.107 15.014,16.107 15.007 C 16.107 14.988,9.642 9.629,9.560 9.580 C 9.510 9.550,9.505 9.571,9.541 9.664 M19.795 12.668 C 18.758 13.532,17.954 14.239,18.008 14.239 C 18.268 14.235,23.842 13.192,23.829 13.149 C 23.813 13.099,21.734 11.093,21.699 11.094 C 21.689 11.095,20.832 11.803,19.795 12.668 M20.349 14.847 L 17.097 15.441 17.056 15.601 C 16.999 15.821,16.098 23.356,16.117 23.446 C 16.126 23.486,17.789 21.501,19.813 19.036 C 24.144 13.760,23.759 14.238,23.671 14.246 C 23.632 14.250,22.137 14.520,20.349 14.847 " stroke="none" fill-rule="evenodd" fill="black"></path></svg>