<svg width="32" height="32" xmlns="http://www.w3.org/2000/svg"><path d="M14.773 0.033 C 11.958 0.289,9.351 1.202,7.071 2.730 C 6.751 2.944,6.480 3.146,6.470 3.177 C 6.460 3.208,7.703 4.612,9.234 6.297 C 10.765 7.982,12.234 9.604,12.498 9.903 L 12.980 10.446 12.966 10.756 C 12.946 11.175,12.783 11.533,12.495 11.786 C 12.111 12.124,11.806 12.241,10.810 12.430 C 10.436 12.501,10.179 12.705,10.090 13.001 C 10.056 13.114,10.002 13.457,9.971 13.763 C 9.894 14.508,9.758 14.992,9.408 15.772 C 9.248 16.131,9.081 16.524,9.038 16.646 C 8.935 16.937,8.939 17.466,9.046 17.779 C 9.154 18.096,9.550 18.534,10.077 18.919 C 10.929 19.541,11.144 19.839,11.145 20.400 C 11.147 20.894,11.065 21.102,10.733 21.450 C 10.360 21.841,9.971 22.100,9.366 22.361 C 8.981 22.527,7.801 22.880,7.632 22.880 C 7.609 22.880,7.562 22.787,7.528 22.673 C 7.494 22.560,7.307 22.206,7.112 21.887 C 6.385 20.696,6.217 20.165,6.248 19.166 C 6.266 18.593,6.283 18.501,6.432 18.187 C 6.522 17.996,6.760 17.624,6.961 17.360 C 8.551 15.274,8.684 15.019,8.932 13.579 C 9.093 12.640,9.203 12.338,9.547 11.897 C 9.724 11.669,9.813 11.503,9.813 11.402 C 9.813 11.206,9.789 11.160,8.263 8.420 C 7.555 7.148,6.962 6.083,6.947 6.053 C 6.927 6.018,6.936 6.018,6.974 6.053 C 7.004 6.083,7.587 6.971,8.269 8.027 C 10.443 11.395,10.443 11.395,10.958 11.453 C 11.348 11.497,11.971 11.240,12.111 10.978 C 12.240 10.737,12.432 10.992,8.427 6.077 C 7.245 4.627,6.259 3.418,6.235 3.392 C 6.155 3.303,4.935 4.387,4.199 5.200 C 2.005 7.625,0.664 10.450,0.148 13.733 C -0.020 14.798,-0.021 17.116,0.146 18.187 C 0.828 22.574,2.950 26.177,6.391 28.787 C 8.515 30.398,10.963 31.410,13.813 31.854 C 14.858 32.017,17.142 32.017,18.187 31.854 C 20.149 31.549,21.935 30.970,23.505 30.132 C 26.290 28.646,28.646 26.290,30.132 23.505 C 30.970 21.935,31.549 20.149,31.854 18.187 C 31.948 17.584,31.967 17.228,31.967 16.000 C 31.967 14.772,31.948 14.416,31.854 13.813 C 31.410 10.961,30.399 8.515,28.784 6.386 C 26.146 2.909,22.388 0.725,18.027 0.134 C 17.438 0.054,15.276 -0.013,14.773 0.033 M13.467 5.838 C 14.285 6.056,14.984 6.501,15.840 7.348 L 16.453 7.956 17.047 7.890 C 18.226 7.759,19.559 7.883,20.533 8.215 C 20.952 8.357,21.990 8.884,22.107 9.014 C 22.322 9.251,22.340 10.346,22.137 10.805 C 21.993 11.130,21.998 11.283,22.158 11.442 C 22.517 11.802,23.002 11.343,23.234 10.423 L 23.325 10.060 23.509 10.270 C 23.785 10.583,24.252 11.312,24.434 11.715 C 24.573 12.021,24.800 12.769,24.800 12.921 C 24.800 12.948,24.704 12.842,24.586 12.685 C 24.226 12.205,23.798 11.934,23.200 11.810 C 23.001 11.768,22.326 11.697,21.699 11.652 C 20.055 11.533,19.106 11.312,18.366 10.876 C 17.898 10.601,17.171 9.845,16.317 8.747 C 14.770 6.757,13.903 6.103,12.393 5.785 L 12.027 5.708 12.587 5.731 C 12.895 5.743,13.291 5.791,13.467 5.838 M22.725 6.307 C 22.576 6.702,22.628 7.643,22.823 8.080 C 22.876 8.197,23.198 8.590,23.541 8.954 C 24.407 9.874,24.500 10.026,23.881 9.514 C 23.600 9.281,23.309 9.057,23.235 9.018 C 22.990 8.886,22.953 8.953,22.914 9.601 C 22.880 10.155,22.752 10.709,22.604 10.933 C 22.565 10.993,22.563 10.986,22.594 10.907 C 22.617 10.848,22.645 10.458,22.655 10.040 C 22.685 8.863,22.557 8.563,21.824 8.100 C 21.627 7.976,21.275 7.782,21.040 7.668 C 20.525 7.419,20.724 7.440,21.520 7.719 C 21.813 7.821,22.128 7.917,22.220 7.931 L 22.387 7.957 22.422 7.538 C 22.467 7.022,22.546 6.607,22.646 6.368 C 22.729 6.168,22.798 6.115,22.725 6.307 M12.844 6.596 C 13.454 6.888,13.703 7.311,14.019 8.593 C 14.222 9.415,14.306 9.627,14.651 10.202 C 14.877 10.577,14.857 10.667,14.548 10.667 C 14.266 10.667,13.784 10.445,13.398 10.138 C 12.646 9.541,12.056 8.296,11.965 7.115 C 11.947 6.876,11.948 6.596,11.968 6.491 L 12.004 6.300 12.282 6.380 C 12.435 6.424,12.688 6.521,12.844 6.596 M19.075 12.000 C 19.447 12.140,20.290 12.317,21.493 12.506 C 22.994 12.743,23.800 13.013,24.571 13.536 C 25.310 14.038,25.922 14.924,26.109 15.761 C 26.233 16.319,26.195 17.489,26.039 17.920 C 25.906 18.290,25.696 18.720,25.650 18.720 C 25.631 18.720,25.601 18.588,25.585 18.427 C 25.542 18.009,25.332 17.594,24.978 17.222 C 24.482 16.703,23.703 16.271,22.053 15.601 C 19.032 14.375,18.080 13.478,18.080 11.856 L 18.080 11.414 18.422 11.648 C 18.610 11.777,18.904 11.935,19.075 12.000 M14.139 12.596 C 14.407 12.688,14.608 12.853,14.752 13.098 C 14.932 13.404,14.921 13.657,14.717 13.889 C 14.308 14.355,13.044 14.504,12.773 14.117 C 12.655 13.949,12.668 13.379,12.795 13.131 C 13.055 12.623,13.595 12.408,14.139 12.596 M13.383 12.849 C 13.185 13.047,13.187 13.130,13.391 13.302 C 13.595 13.474,13.922 13.487,14.173 13.334 C 14.551 13.104,14.292 12.694,13.769 12.694 C 13.585 12.693,13.507 12.725,13.383 12.849 M20.046 15.760 C 20.239 16.131,20.240 16.137,20.240 16.801 C 20.240 17.451,20.235 17.478,20.060 17.835 C 19.835 18.293,19.387 18.744,18.927 18.975 C 18.394 19.244,17.852 19.354,16.640 19.442 C 15.458 19.528,15.120 19.575,14.513 19.738 C 14.296 19.796,14.108 19.832,14.094 19.819 C 14.080 19.805,14.342 19.661,14.675 19.500 C 15.310 19.191,15.517 19.136,17.364 18.783 C 18.314 18.601,18.736 18.418,19.175 17.996 C 19.615 17.574,19.805 17.133,19.828 16.480 C 19.842 16.107,19.820 15.871,19.746 15.587 C 19.647 15.205,19.647 15.202,19.749 15.294 C 19.805 15.345,19.939 15.555,20.046 15.760 M21.161 15.915 C 21.271 15.985,21.756 16.264,22.240 16.534 C 23.626 17.307,24.122 17.663,24.574 18.206 C 25.207 18.969,25.464 19.916,25.339 21.023 C 25.228 22.006,24.837 22.807,24.134 23.493 C 23.722 23.896,23.040 24.346,23.040 24.215 C 23.040 24.182,23.086 24.065,23.143 23.955 C 23.456 23.340,23.487 22.533,23.225 21.813 C 23.035 21.293,22.890 21.036,22.078 19.787 C 21.706 19.215,21.327 18.615,21.237 18.453 C 20.836 17.740,20.663 16.962,20.751 16.263 C 20.819 15.722,20.837 15.706,21.161 15.915 M7.211 18.997 C 7.116 19.092,7.133 19.178,7.263 19.264 C 7.376 19.339,7.377 19.347,7.292 19.558 C 7.193 19.807,7.241 19.919,7.472 19.974 C 7.647 20.016,7.924 19.797,7.972 19.577 C 8.014 19.388,7.888 19.070,7.741 18.991 C 7.598 18.914,7.290 18.918,7.211 18.997 M16.326 20.809 C 17.088 21.095,17.630 21.537,17.937 22.123 C 18.154 22.537,18.245 22.865,18.399 23.787 C 18.592 24.944,18.814 25.424,19.266 25.665 C 19.584 25.835,20.457 25.834,20.933 25.663 L 21.253 25.548 21.120 25.662 C 21.047 25.724,20.807 25.862,20.587 25.968 C 20.219 26.145,20.148 26.160,19.707 26.160 C 19.111 26.160,18.779 26.021,18.355 25.594 C 18.119 25.355,17.980 25.123,17.533 24.218 C 17.073 23.286,16.953 23.087,16.697 22.831 C 16.171 22.308,15.542 22.094,14.948 22.237 C 14.303 22.391,13.915 23.076,14.152 23.642 C 14.246 23.867,14.601 24.183,14.853 24.266 C 15.186 24.377,15.549 24.311,15.764 24.102 C 16.316 23.568,15.993 22.773,15.224 22.773 C 14.791 22.773,14.519 23.332,14.829 23.582 C 14.948 23.677,14.949 23.682,14.841 23.629 C 14.692 23.556,14.613 23.411,14.615 23.217 C 14.624 22.513,15.759 22.383,16.198 23.035 C 16.296 23.180,16.320 23.289,16.320 23.583 C 16.320 24.339,15.843 24.800,15.062 24.800 C 14.536 24.800,14.252 24.644,13.558 23.976 C 12.543 22.998,12.303 22.864,11.184 22.644 L 10.601 22.529 10.988 22.216 C 11.823 21.541,12.826 21.020,13.774 20.769 C 14.219 20.652,14.349 20.641,15.120 20.658 C 15.870 20.675,16.016 20.693,16.326 20.809 " stroke="none" fill-rule="evenodd" fill="black"></path></svg>