<svg viewBox="0 0 32 32" xmlns="http://www.w3.org/2000/svg"><path d="M14.933 0.034 C 10.237 0.384,6.020 2.671,3.211 6.391 C 1.590 8.538,0.590 10.959,0.146 13.813 C -0.017 14.858,-0.017 17.142,0.146 18.187 C 0.830 22.578,2.950 26.177,6.391 28.787 C 8.515 30.398,10.963 31.410,13.813 31.854 C 14.858 32.017,17.142 32.017,18.187 31.854 C 20.149 31.549,21.935 30.970,23.505 30.132 C 26.290 28.646,28.646 26.290,30.132 23.505 C 30.970 21.935,31.549 20.149,31.854 18.187 C 32.017 17.142,32.017 14.858,31.854 13.813 C 31.410 10.961,30.399 8.515,28.784 6.386 C 26.139 2.901,22.361 0.710,18.000 0.132 C 17.376 0.050,15.520 -0.010,14.933 0.034 M10.209 12.813 C 11.404 19.221,11.472 19.573,11.519 19.573 C 11.541 19.573,11.573 19.495,11.590 19.400 C 11.607 19.305,12.114 16.719,12.717 13.654 C 13.320 10.589,13.813 8.063,13.813 8.041 C 13.813 8.018,14.534 8.000,15.416 8.000 L 17.018 8.000 16.985 8.173 C 16.967 8.269,16.178 11.791,15.232 16.000 L 13.512 23.653 11.516 23.667 L 9.520 23.680 7.771 15.880 C 6.809 11.590,6.023 8.062,6.025 8.040 C 6.026 8.018,6.766 8.000,7.669 8.000 L 9.311 8.000 10.209 12.813 M23.126 11.724 C 24.174 12.006,24.861 12.566,25.332 13.520 C 25.747 14.362,25.912 15.288,25.957 17.027 L 25.989 18.240 23.039 18.240 L 20.090 18.240 20.122 19.080 C 20.172 20.429,20.376 21.163,20.817 21.586 C 21.077 21.835,21.297 21.920,21.675 21.919 C 22.447 21.916,22.940 21.257,23.122 19.987 L 23.159 19.733 24.486 19.733 L 25.813 19.733 25.813 19.863 C 25.813 20.111,25.699 20.830,25.592 21.253 C 25.163 22.952,23.907 23.900,21.973 23.985 C 20.440 24.052,19.267 23.697,18.506 22.937 C 17.809 22.239,17.440 21.339,17.270 19.919 C 17.163 19.022,17.180 16.350,17.298 15.586 C 17.665 13.210,18.733 11.972,20.691 11.651 C 21.323 11.547,22.615 11.586,23.126 11.724 M21.091 13.780 C 20.491 14.059,20.210 14.672,20.128 15.880 L 20.091 16.427 21.627 16.427 L 23.163 16.427 23.127 15.846 C 23.086 15.156,22.933 14.518,22.732 14.187 C 22.429 13.689,21.683 13.504,21.091 13.780 " stroke="none" fill-rule="evenodd" fill="black"></path></svg>