<svg viewBox="0 0 32 32" xmlns="http://www.w3.org/2000/svg"><path d="M14.933 0.034 C 10.237 0.384,6.020 2.671,3.211 6.391 C 1.590 8.538,0.590 10.959,0.146 13.813 C -0.017 14.858,-0.017 17.142,0.146 18.187 C 0.830 22.578,2.950 26.177,6.391 28.787 C 8.515 30.398,10.963 31.410,13.813 31.854 C 14.858 32.017,17.142 32.017,18.187 31.854 C 20.149 31.549,21.935 30.970,23.505 30.132 C 26.290 28.646,28.646 26.290,30.132 23.505 C 30.970 21.935,31.549 20.149,31.854 18.187 C 32.017 17.142,32.017 14.858,31.854 13.813 C 31.410 10.961,30.399 8.515,28.784 6.386 C 26.139 2.901,22.361 0.710,18.000 0.132 C 17.376 0.050,15.520 -0.010,14.933 0.034 M11.921 11.640 L 13.683 16.240 15.972 16.279 C 17.611 16.307,18.272 16.301,18.298 16.260 C 18.318 16.227,19.123 14.140,20.087 11.621 C 21.051 9.102,21.865 7.040,21.895 7.040 C 22.045 7.040,23.386 7.626,23.380 7.689 C 23.376 7.728,22.971 8.804,22.480 10.080 C 21.989 11.356,21.576 12.442,21.561 12.493 C 21.536 12.580,21.618 12.587,22.767 12.587 L 24.000 12.587 24.000 13.440 L 24.000 14.293 22.434 14.293 L 20.868 14.293 20.516 15.213 C 20.322 15.719,20.148 16.175,20.129 16.227 C 20.097 16.314,20.211 16.320,22.049 16.320 L 24.003 16.320 23.988 17.186 L 23.973 18.052 21.707 18.034 L 19.440 18.016 17.733 22.475 C 16.795 24.927,16.015 26.933,16.000 26.933 C 15.985 26.933,15.204 24.923,14.263 22.466 L 12.553 18.000 10.276 17.986 L 8.000 17.972 8.000 17.106 L 8.000 16.240 9.948 16.258 L 11.896 16.277 11.795 16.018 C 11.740 15.876,11.568 15.430,11.413 15.027 L 11.131 14.293 9.565 14.293 L 8.000 14.293 8.000 13.440 L 8.000 12.587 9.233 12.587 C 10.382 12.587,10.464 12.580,10.439 12.493 C 10.424 12.442,10.011 11.356,9.520 10.080 C 9.029 8.804,8.624 7.728,8.620 7.689 C 8.614 7.622,9.898 7.055,10.080 7.045 C 10.138 7.042,10.645 8.307,11.921 11.640 M14.447 18.236 C 15.599 21.262,15.978 22.238,16.000 22.238 C 16.035 22.238,17.620 18.082,17.594 18.058 C 17.583 18.048,16.849 18.029,15.964 18.016 L 14.354 17.993 14.447 18.236 " stroke="none" fill-rule="evenodd" fill="black"></path></svg>