<svg viewBox="0 0 32 32" xmlns="http://www.w3.org/2000/svg"><path d="M14.933 0.034 C 10.237 0.384,6.020 2.671,3.211 6.391 C 1.590 8.538,0.590 10.959,0.146 13.813 C -0.017 14.858,-0.017 17.142,0.146 18.187 C 0.830 22.578,2.950 26.177,6.391 28.787 C 8.515 30.398,10.963 31.410,13.813 31.854 C 14.858 32.017,17.142 32.017,18.187 31.854 C 20.149 31.549,21.935 30.970,23.505 30.132 C 26.290 28.646,28.646 26.290,30.132 23.505 C 30.970 21.935,31.549 20.149,31.854 18.187 C 32.017 17.142,32.017 14.858,31.854 13.813 C 31.410 10.961,30.399 8.515,28.784 6.386 C 26.139 2.901,22.361 0.710,18.000 0.132 C 17.376 0.050,15.520 -0.010,14.933 0.034 M13.849 12.521 C 15.028 15.006,16.011 17.036,16.034 17.032 C 16.057 17.027,17.016 14.999,18.165 12.525 L 20.255 8.027 22.607 8.013 C 23.901 8.005,24.960 8.011,24.960 8.026 C 24.960 8.079,16.026 25.920,16.000 25.920 C 15.974 25.920,7.040 8.079,7.040 8.027 C 7.040 8.012,8.090 8.000,9.373 8.001 L 11.707 8.001 13.849 12.521 M16.627 10.181 C 16.883 10.313,17.130 10.576,17.283 10.880 C 17.432 11.176,17.446 11.758,17.312 12.068 C 17.194 12.339,16.881 12.676,16.617 12.816 C 16.311 12.978,15.689 12.978,15.383 12.816 C 15.120 12.677,14.808 12.341,14.687 12.068 C 14.569 11.800,14.569 11.186,14.687 10.919 C 14.862 10.522,15.255 10.178,15.653 10.073 C 15.896 10.010,16.403 10.066,16.627 10.181 M22.940 17.095 C 23.646 17.335,24.037 18.144,23.816 18.905 C 23.631 19.543,22.928 20.014,22.303 19.920 C 21.556 19.808,21.066 19.238,21.067 18.483 C 21.069 17.450,21.986 16.770,22.940 17.095 " stroke="none" fill-rule="evenodd" fill="black"></path></svg>