<svg width="32" height="32" xmlns="http://www.w3.org/2000/svg"><path d="M14.933 0.034 C 10.237 0.384,6.020 2.671,3.211 6.391 C 1.590 8.538,0.590 10.959,0.146 13.813 C -0.017 14.858,-0.017 17.142,0.146 18.187 C 0.830 22.578,2.950 26.177,6.391 28.787 C 8.515 30.398,10.963 31.410,13.813 31.854 C 14.858 32.017,17.142 32.017,18.187 31.854 C 20.149 31.549,21.935 30.970,23.505 30.132 C 26.290 28.646,28.646 26.290,30.132 23.505 C 30.970 21.935,31.549 20.149,31.854 18.187 C 32.017 17.142,32.017 14.858,31.854 13.813 C 31.410 10.961,30.399 8.515,28.784 6.386 C 26.139 2.901,22.361 0.710,18.000 0.132 C 17.376 0.050,15.520 -0.010,14.933 0.034 M10.842 6.845 C 11.491 7.118,12.978 9.404,14.816 12.953 L 15.296 13.880 15.581 13.487 C 18.230 9.830,20.351 7.405,21.320 6.924 C 21.614 6.778,21.688 6.763,21.946 6.793 C 22.547 6.864,23.231 7.246,23.910 7.891 C 24.789 8.726,25.387 9.907,25.478 10.989 C 25.522 11.518,25.469 11.687,25.084 12.256 C 24.366 13.315,21.323 17.309,17.608 22.071 C 14.681 25.821,13.969 26.720,13.926 26.720 C 13.765 26.720,11.259 22.135,9.335 18.320 C 7.833 15.339,7.023 13.564,6.691 12.520 C 6.164 10.861,6.789 9.224,8.528 7.709 C 9.098 7.212,9.330 7.052,9.707 6.897 C 10.046 6.757,10.574 6.733,10.842 6.845 " stroke="none" fill-rule="evenodd" fill="black"></path></svg>