<svg width="32" height="32" xmlns="http://www.w3.org/2000/svg"><path d="M14.933 0.038 C 14.394 0.071,13.366 0.216,12.693 0.354 C 6.647 1.593,1.757 6.407,0.401 12.455 C 0.095 13.820,0.033 14.412,0.033 16.000 C 0.033 17.588,0.095 18.180,0.401 19.545 C 1.221 23.201,3.342 26.473,6.391 28.787 C 8.515 30.398,10.963 31.410,13.813 31.854 C 14.858 32.017,17.142 32.017,18.187 31.854 C 20.149 31.549,21.935 30.970,23.505 30.132 C 26.290 28.646,28.646 26.290,30.132 23.505 C 30.970 21.935,31.550 20.146,31.854 18.187 C 32.021 17.116,32.020 14.798,31.852 13.733 C 31.629 12.317,31.184 10.774,30.642 9.541 C 30.346 8.868,30.313 8.811,30.250 8.880 C 30.224 8.910,27.160 13.145,23.442 18.293 C 19.723 23.441,16.618 27.722,16.541 27.805 C 16.171 28.203,15.617 28.269,15.185 27.967 C 15.028 27.857,13.645 26.109,10.618 22.198 L 6.275 16.587 4.471 16.587 C 3.479 16.587,2.668 16.569,2.670 16.547 C 2.671 16.525,3.098 16.027,3.619 15.440 L 4.564 14.373 8.050 14.373 L 11.536 14.373 13.628 17.040 C 14.778 18.507,15.747 19.707,15.781 19.707 C 15.815 19.707,18.338 16.251,21.390 12.027 L 26.937 4.347 26.602 4.034 C 26.150 3.613,25.530 3.134,24.853 2.683 C 21.948 0.746,18.477 -0.179,14.933 0.038 " stroke="none" fill-rule="evenodd" fill="black"></path></svg>