<svg width="32" height="32" xmlns="http://www.w3.org/2000/svg"><path d="M14.933 0.034 C 10.237 0.384,6.020 2.671,3.211 6.391 C 1.590 8.538,0.590 10.959,0.146 13.813 C -0.017 14.858,-0.017 17.142,0.146 18.187 C 0.830 22.578,2.950 26.177,6.391 28.787 C 8.515 30.398,10.963 31.410,13.813 31.854 C 14.858 32.017,17.142 32.017,18.187 31.854 C 20.149 31.549,21.935 30.970,23.505 30.132 C 26.290 28.646,28.646 26.290,30.132 23.505 C 30.970 21.935,31.549 20.149,31.854 18.187 C 32.017 17.142,32.017 14.858,31.854 13.813 C 31.410 10.961,30.399 8.515,28.784 6.386 C 26.139 2.901,22.361 0.710,18.000 0.132 C 17.376 0.050,15.520 -0.010,14.933 0.034 M16.000 8.958 L 16.000 11.890 15.067 10.918 L 14.133 9.947 14.133 7.987 L 14.133 6.027 15.067 6.027 L 16.000 6.027 16.000 8.958 M13.469 10.613 C 14.843 12.051,15.982 13.227,15.999 13.227 C 16.017 13.227,16.462 12.776,16.989 12.226 C 17.516 11.675,18.641 10.499,19.490 9.612 L 21.034 8.000 23.517 8.000 L 26.000 8.000 23.733 10.280 C 22.486 11.534,20.762 13.270,19.902 14.139 L 18.337 15.717 22.128 19.552 C 24.213 21.661,25.920 23.405,25.920 23.427 C 25.920 23.449,24.830 23.467,23.497 23.467 L 21.075 23.467 18.663 20.947 C 17.336 19.561,16.193 18.367,16.123 18.293 L 15.995 18.160 15.800 18.373 C 15.693 18.491,14.553 19.685,13.267 21.027 L 10.928 23.467 8.504 23.467 C 7.171 23.467,6.080 23.447,6.080 23.424 C 6.080 23.400,7.784 21.654,9.867 19.545 L 13.655 15.709 11.828 13.868 C 10.822 12.855,9.100 11.121,8.000 10.013 L 6.001 8.000 8.486 8.000 L 10.971 8.000 13.469 10.613 M17.864 23.453 L 17.867 25.440 16.933 25.440 L 16.000 25.440 16.002 22.493 L 16.003 19.547 16.933 20.507 L 17.862 21.467 17.864 23.453 " stroke="none" fill-rule="evenodd" fill="black"></path></svg>