<svg width="32" height="32" xmlns="http://www.w3.org/2000/svg"><path d="M14.933 0.034 C 10.237 0.384,6.020 2.671,3.211 6.391 C 1.590 8.538,0.590 10.959,0.146 13.813 C -0.017 14.858,-0.017 17.142,0.146 18.187 C 0.830 22.578,2.950 26.177,6.391 28.787 C 8.515 30.398,10.963 31.410,13.813 31.854 C 14.858 32.017,17.142 32.017,18.187 31.854 C 20.149 31.549,21.935 30.970,23.505 30.132 C 26.290 28.646,28.646 26.290,30.132 23.505 C 30.970 21.935,31.549 20.149,31.854 18.187 C 32.017 17.142,32.017 14.858,31.854 13.813 C 31.410 10.961,30.399 8.515,28.784 6.386 C 26.139 2.901,22.361 0.710,18.000 0.132 C 17.376 0.050,15.520 -0.010,14.933 0.034 M24.045 11.173 C 25.078 12.918,25.935 14.377,25.950 14.416 C 25.966 14.457,24.007 16.778,21.319 19.902 C 18.757 22.881,16.542 25.464,16.397 25.643 C 16.252 25.821,16.120 25.969,16.104 25.970 C 16.065 25.974,6.183 14.805,6.088 14.651 C 6.021 14.542,6.154 14.303,7.973 11.267 L 9.930 8.000 16.048 8.000 L 22.167 8.000 24.045 11.173 M10.325 8.973 C 10.179 9.197,7.307 14.038,7.307 14.059 C 7.307 14.071,8.441 14.080,9.827 14.079 L 12.347 14.078 13.707 11.776 C 14.455 10.510,15.146 9.334,15.243 9.163 L 15.420 8.853 12.911 8.853 L 10.402 8.853 10.325 8.973 M18.281 11.467 L 19.809 14.080 22.278 14.080 C 23.636 14.080,24.747 14.070,24.747 14.059 C 24.747 14.047,24.050 12.871,23.199 11.445 L 21.651 8.853 19.202 8.853 L 16.754 8.853 18.281 11.467 M14.724 11.762 C 13.985 13.013,13.389 14.047,13.401 14.059 C 13.413 14.071,14.627 14.075,16.099 14.067 L 18.775 14.053 17.488 11.840 C 16.779 10.623,16.171 9.595,16.135 9.557 C 16.082 9.500,15.805 9.934,14.724 11.762 M7.520 14.961 C 7.520 15.006,10.037 17.867,10.076 17.867 C 10.095 17.867,10.368 17.429,10.682 16.893 C 10.997 16.358,11.385 15.698,11.545 15.427 L 11.837 14.933 9.679 14.933 C 8.491 14.933,7.520 14.946,7.520 14.961 M12.816 15.000 C 12.608 15.274,10.714 18.574,10.735 18.626 C 10.771 18.719,16.007 24.694,16.047 24.690 C 16.107 24.682,21.360 18.603,21.360 18.541 C 21.360 18.507,20.894 17.682,20.325 16.707 L 19.289 14.933 16.078 14.933 C 13.571 14.933,12.855 14.948,12.816 15.000 M20.336 14.973 C 20.875 15.936,21.999 17.813,22.030 17.802 C 22.054 17.794,22.593 17.187,23.229 16.453 C 23.865 15.720,24.422 15.078,24.468 15.027 C 24.546 14.938,24.445 14.933,22.432 14.933 C 21.267 14.933,20.324 14.951,20.336 14.973 " stroke="none" fill-rule="evenodd" fill="black"></path></svg>