<svg viewBox="0 0 32 32" xmlns="http://www.w3.org/2000/svg"><path d="M14.933 0.034 C 10.237 0.384,6.020 2.671,3.211 6.391 C 1.590 8.538,0.590 10.959,0.146 13.813 C -0.017 14.858,-0.017 17.142,0.146 18.187 C 0.830 22.578,2.950 26.177,6.391 28.787 C 8.515 30.398,10.963 31.410,13.813 31.854 C 14.858 32.017,17.142 32.017,18.187 31.854 C 20.149 31.549,21.935 30.970,23.505 30.132 C 26.290 28.646,28.646 26.290,30.132 23.505 C 30.970 21.935,31.549 20.149,31.854 18.187 C 32.017 17.142,32.017 14.858,31.854 13.813 C 31.410 10.961,30.399 8.515,28.784 6.386 C 26.139 2.901,22.361 0.710,18.000 0.132 C 17.376 0.050,15.520 -0.010,14.933 0.034 M14.867 6.944 C 15.255 7.038,15.573 7.136,15.573 7.160 C 15.573 7.184,15.440 7.734,15.278 8.382 C 15.115 9.030,14.989 9.564,14.998 9.570 C 15.040 9.595,16.037 9.815,16.108 9.814 C 16.169 9.814,16.259 9.530,16.475 8.653 C 16.632 8.015,16.775 7.478,16.794 7.459 C 16.842 7.407,18.201 7.751,18.225 7.820 C 18.235 7.853,18.111 8.410,17.949 9.058 C 17.786 9.706,17.653 10.248,17.653 10.261 C 17.653 10.275,17.791 10.337,17.960 10.400 C 18.426 10.573,19.166 10.958,19.479 11.190 C 20.456 11.913,20.807 12.824,20.560 14.000 C 20.372 14.892,19.833 15.580,19.095 15.870 L 18.716 16.018 18.998 16.180 C 19.427 16.426,19.869 16.896,20.067 17.317 C 20.219 17.639,20.240 17.744,20.258 18.246 C 20.283 18.945,20.162 19.479,19.818 20.186 C 19.399 21.046,18.783 21.572,17.906 21.819 C 17.535 21.923,17.341 21.942,16.667 21.942 C 15.982 21.942,15.340 21.882,14.901 21.779 C 14.795 21.754,14.770 21.826,14.479 22.996 C 14.310 23.680,14.163 24.249,14.154 24.260 C 14.138 24.280,12.739 23.947,12.700 23.914 C 12.689 23.905,12.818 23.344,12.987 22.667 C 13.156 21.990,13.285 21.429,13.274 21.419 C 13.233 21.386,12.135 21.127,12.116 21.146 C 12.105 21.157,11.966 21.690,11.806 22.330 C 11.647 22.970,11.507 23.521,11.495 23.555 C 11.480 23.598,11.263 23.564,10.773 23.440 C 10.387 23.343,10.059 23.250,10.042 23.234 C 10.026 23.217,10.151 22.650,10.320 21.973 C 10.489 21.296,10.618 20.733,10.606 20.721 C 10.594 20.710,9.949 20.542,9.172 20.348 C 8.396 20.155,7.732 19.987,7.697 19.975 C 7.655 19.960,7.753 19.674,7.983 19.136 C 8.175 18.687,8.351 18.299,8.375 18.274 C 8.399 18.248,8.653 18.290,8.946 18.367 C 9.237 18.444,9.548 18.507,9.637 18.507 C 9.832 18.507,10.044 18.351,10.125 18.148 C 10.243 17.851,11.840 11.356,11.840 11.171 C 11.840 10.928,11.724 10.705,11.523 10.562 C 11.436 10.500,11.074 10.374,10.720 10.282 C 10.337 10.183,10.084 10.092,10.097 10.058 C 10.108 10.026,10.198 9.670,10.297 9.267 C 10.414 8.789,10.500 8.533,10.546 8.533 C 10.584 8.533,11.253 8.693,12.032 8.889 C 12.999 9.131,13.461 9.226,13.485 9.186 C 13.505 9.154,13.652 8.598,13.812 7.951 C 13.972 7.303,14.116 6.773,14.132 6.772 C 14.147 6.772,14.478 6.849,14.867 6.944 M14.218 12.785 C 14.023 13.571,13.850 14.253,13.836 14.302 C 13.815 14.372,13.873 14.410,14.101 14.476 C 15.169 14.787,16.206 14.870,16.773 14.691 C 17.347 14.511,17.707 14.003,17.707 13.375 C 17.707 12.524,16.923 11.922,15.325 11.543 C 15.007 11.468,14.708 11.396,14.660 11.382 C 14.588 11.361,14.516 11.591,14.218 12.785 M26.216 15.954 C 26.763 16.090,26.878 16.136,26.857 16.207 C 26.694 16.754,26.352 18.265,26.384 18.295 C 26.408 18.316,26.897 18.448,27.471 18.590 L 28.516 18.846 28.333 19.575 L 28.151 20.305 27.087 20.039 C 26.502 19.892,26.010 19.786,25.993 19.803 C 25.976 19.819,25.848 20.292,25.707 20.853 C 25.566 21.415,25.437 21.887,25.421 21.904 C 25.370 21.955,24.000 21.591,24.001 21.527 C 24.002 21.494,24.119 21.004,24.262 20.439 C 24.405 19.874,24.506 19.404,24.487 19.394 C 24.469 19.384,23.985 19.260,23.413 19.120 C 22.841 18.979,22.366 18.859,22.358 18.852 C 22.344 18.841,22.637 17.617,22.692 17.459 C 22.706 17.416,23.035 17.478,23.743 17.657 C 24.310 17.800,24.800 17.918,24.834 17.919 C 24.868 17.919,25.004 17.477,25.148 16.893 C 25.288 16.329,25.412 15.849,25.424 15.827 C 25.457 15.767,25.494 15.773,26.216 15.954 M13.413 16.013 C 13.303 16.329,12.608 19.260,12.640 19.280 C 12.770 19.361,14.292 19.688,14.784 19.742 C 16.388 19.916,17.318 19.296,17.212 18.124 C 17.131 17.234,16.261 16.635,14.355 16.155 C 13.415 15.919,13.445 15.924,13.413 16.013 " stroke="none" fill-rule="evenodd" fill="black"></path></svg>