<svg width="32" height="32" xmlns="http://www.w3.org/2000/svg"><path d="M14.933 0.034 C 10.237 0.384,6.020 2.671,3.211 6.391 C 1.590 8.538,0.590 10.959,0.146 13.813 C -0.017 14.858,-0.017 17.142,0.146 18.187 C 0.830 22.578,2.950 26.177,6.391 28.787 C 8.515 30.398,10.963 31.410,13.813 31.854 C 14.858 32.017,17.142 32.017,18.187 31.854 C 20.149 31.549,21.935 30.970,23.505 30.132 C 26.290 28.646,28.646 26.290,30.132 23.505 C 30.970 21.935,31.549 20.149,31.854 18.187 C 32.017 17.142,32.017 14.858,31.854 13.813 C 31.410 10.961,30.399 8.515,28.784 6.386 C 26.139 2.901,22.361 0.710,18.000 0.132 C 17.376 0.050,15.520 -0.010,14.933 0.034 M13.502 11.812 C 14.408 13.337,15.169 14.603,15.192 14.626 C 15.215 14.649,15.347 14.466,15.485 14.219 L 15.737 13.770 14.370 11.462 C 13.618 10.193,12.990 9.122,12.976 9.084 C 12.953 9.026,13.496 9.013,15.994 9.013 C 17.669 9.013,19.040 9.023,19.040 9.035 C 19.040 9.057,17.528 11.637,14.323 17.080 C 13.361 18.715,12.554 20.053,12.531 20.053 C 12.508 20.053,12.395 19.891,12.281 19.693 C 12.166 19.495,11.399 18.193,10.576 16.800 C 8.216 12.801,6.027 9.067,6.027 9.039 C 6.027 9.024,7.338 9.019,8.940 9.026 L 11.854 9.040 13.502 11.812 M25.973 9.036 C 25.973 9.048,25.821 9.318,25.634 9.636 C 22.023 15.789,19.659 19.798,19.546 19.962 C 19.489 20.045,19.315 19.780,18.160 17.842 C 17.434 16.624,16.824 15.627,16.804 15.627 C 16.785 15.627,16.658 15.817,16.521 16.051 L 16.273 16.475 17.609 18.726 C 18.903 20.909,18.942 20.982,18.872 21.124 C 18.738 21.396,16.027 25.972,16.000 25.971 C 15.970 25.971,15.886 25.829,14.234 23.016 L 13.077 21.044 13.219 20.799 C 13.296 20.664,14.884 17.957,16.747 14.784 L 20.133 9.014 23.053 9.014 C 24.659 9.014,25.973 9.023,25.973 9.036 " stroke="none" fill-rule="evenodd" fill="black"></path></svg>