<svg viewBox="0 0 32 32" xmlns="http://www.w3.org/2000/svg"><path d="M14.933 0.034 C 10.237 0.384,6.020 2.671,3.211 6.391 C 1.590 8.538,0.590 10.959,0.146 13.813 C -0.017 14.858,-0.017 17.142,0.146 18.187 C 0.830 22.578,2.950 26.177,6.391 28.787 C 8.515 30.398,10.963 31.410,13.813 31.854 C 14.858 32.017,17.142 32.017,18.187 31.854 C 20.149 31.549,21.935 30.970,23.505 30.132 C 26.290 28.646,28.646 26.290,30.132 23.505 C 30.970 21.935,31.549 20.149,31.854 18.187 C 32.017 17.142,32.017 14.858,31.854 13.813 C 31.410 10.961,30.399 8.515,28.784 6.386 C 26.139 2.901,22.361 0.710,18.000 0.132 C 17.376 0.050,15.520 -0.010,14.933 0.034 M12.836 10.095 C 12.900 10.131,13.338 10.561,13.810 11.051 C 14.632 11.906,14.667 11.952,14.667 12.161 C 14.667 12.281,14.633 12.443,14.591 12.523 C 14.549 12.602,14.159 13.018,13.724 13.447 C 12.891 14.270,12.755 14.354,12.449 14.239 C 12.364 14.206,12.098 13.989,11.860 13.756 L 11.426 13.333 10.502 13.333 L 9.578 13.333 8.922 13.989 L 8.267 14.645 8.267 15.589 L 8.267 16.532 8.838 17.146 C 9.153 17.483,9.486 17.795,9.580 17.839 C 9.841 17.964,11.222 17.954,11.444 17.827 C 11.534 17.775,13.291 16.014,15.350 13.912 C 17.409 11.811,19.131 10.077,19.178 10.059 C 19.224 10.041,20.269 10.027,21.499 10.027 L 23.736 10.027 23.982 10.253 C 24.117 10.378,24.836 11.108,25.581 11.876 L 26.933 13.271 26.933 15.599 L 26.933 17.927 26.031 18.870 C 24.673 20.290,23.831 21.108,23.663 21.171 C 23.572 21.205,22.956 21.227,22.101 21.227 C 20.528 21.227,20.455 21.241,20.301 21.566 C 20.230 21.713,20.213 21.928,20.213 22.657 C 20.213 23.555,20.212 23.567,20.076 23.728 C 19.865 23.980,19.671 24.010,18.436 23.991 L 17.325 23.973 17.142 23.774 L 16.960 23.575 16.960 21.299 L 16.960 19.024 17.960 18.016 C 19.259 16.708,19.323 16.689,20.050 17.409 C 20.272 17.628,20.521 17.833,20.603 17.864 C 20.831 17.949,22.153 17.936,22.362 17.846 C 22.574 17.756,23.601 16.715,23.677 16.514 C 23.755 16.308,23.745 14.891,23.664 14.708 C 23.581 14.519,22.694 13.562,22.483 13.433 C 22.341 13.347,22.204 13.334,21.418 13.334 L 20.517 13.333 19.995 13.853 C 19.708 14.139,17.995 15.885,16.189 17.733 C 14.383 19.581,12.840 21.122,12.759 21.158 C 12.566 21.243,8.520 21.254,8.280 21.170 C 8.115 21.113,5.200 18.171,5.075 17.937 C 4.988 17.772,4.988 13.428,5.075 13.263 C 5.154 13.114,8.028 10.181,8.179 10.095 C 8.264 10.047,8.869 10.030,10.507 10.030 C 12.143 10.030,12.750 10.047,12.836 10.095 " stroke="none" fill-rule="evenodd" fill="black"></path></svg>