<svg viewBox="0 0 32 32" xmlns="http://www.w3.org/2000/svg"><path d="M14.933 0.034 C 10.237 0.384,6.020 2.671,3.211 6.391 C 1.590 8.538,0.590 10.959,0.146 13.813 C -0.017 14.858,-0.017 17.142,0.146 18.187 C 0.830 22.578,2.950 26.177,6.391 28.787 C 8.515 30.398,10.963 31.410,13.813 31.854 C 14.858 32.017,17.142 32.017,18.187 31.854 C 20.149 31.549,21.935 30.970,23.505 30.132 C 26.290 28.646,28.646 26.290,30.132 23.505 C 30.970 21.935,31.549 20.149,31.854 18.187 C 32.017 17.142,32.017 14.858,31.854 13.813 C 31.410 10.961,30.399 8.515,28.784 6.386 C 26.139 2.901,22.361 0.710,18.000 0.132 C 17.376 0.050,15.520 -0.010,14.933 0.034 M21.662 8.933 C 21.771 9.989,21.862 10.944,21.864 11.056 L 21.867 11.258 21.485 11.242 L 21.102 11.227 20.705 10.533 C 19.931 9.184,19.339 8.448,18.830 8.202 C 18.348 7.969,18.022 7.939,15.560 7.909 C 14.277 7.894,13.227 7.896,13.227 7.914 C 13.227 7.932,14.404 9.413,15.843 11.205 C 18.121 14.043,18.457 14.484,18.443 14.620 C 18.430 14.740,17.687 15.616,15.227 18.408 C 13.467 20.405,12.018 22.061,12.008 22.088 C 11.997 22.117,13.555 22.131,15.902 22.122 C 19.781 22.107,19.816 22.106,20.097 21.990 C 20.765 21.717,21.436 20.992,21.938 20.001 C 22.095 19.693,22.233 19.410,22.245 19.374 C 22.261 19.324,22.357 19.337,22.628 19.425 C 22.968 19.536,22.988 19.551,22.959 19.678 C 22.942 19.752,22.611 20.977,22.223 22.400 L 21.519 24.987 15.266 25.000 L 9.013 25.014 9.013 24.543 L 9.013 24.072 12.402 20.221 L 15.791 16.369 13.982 14.091 C 12.987 12.838,11.487 10.949,10.647 9.893 L 9.121 7.973 9.121 7.480 L 9.120 6.986 15.292 7.000 L 21.464 7.013 21.662 8.933 " stroke="none" fill-rule="evenodd" fill="black"></path></svg>