<svg width="32" height="32" xmlns="http://www.w3.org/2000/svg"><path d="M14.933 0.034 C 10.237 0.384,6.020 2.671,3.211 6.391 C 1.590 8.538,0.590 10.959,0.146 13.813 C -0.017 14.858,-0.017 17.142,0.146 18.187 C 0.830 22.578,2.950 26.177,6.391 28.787 C 8.515 30.398,10.963 31.410,13.813 31.854 C 14.858 32.017,17.142 32.017,18.187 31.854 C 20.149 31.549,21.935 30.970,23.505 30.132 C 26.290 28.646,28.646 26.290,30.132 23.505 C 30.970 21.935,31.549 20.149,31.854 18.187 C 32.017 17.142,32.017 14.858,31.854 13.813 C 31.410 10.961,30.399 8.515,28.784 6.386 C 26.139 2.901,22.361 0.710,18.000 0.132 C 17.376 0.050,15.520 -0.010,14.933 0.034 M16.874 5.223 C 17.326 5.440,17.904 5.992,18.266 6.553 C 18.663 7.168,19.382 8.749,19.299 8.824 C 19.273 8.847,18.378 9.118,18.373 9.104 C 18.370 9.098,18.288 8.877,18.190 8.613 C 17.720 7.345,17.068 6.402,16.461 6.114 C 16.219 5.999,15.812 6.005,15.547 6.127 C 15.095 6.336,14.542 7.034,14.127 7.922 C 13.879 8.450,13.421 9.794,13.457 9.887 C 13.471 9.924,13.587 9.984,13.714 10.021 C 14.012 10.108,15.293 10.635,15.696 10.837 L 16.006 10.991 16.576 10.730 C 19.242 9.508,21.976 8.972,23.569 9.360 C 25.021 9.713,25.709 10.770,25.419 12.202 C 25.258 12.997,24.856 13.799,24.128 14.777 L 23.724 15.321 23.382 14.982 C 23.194 14.796,23.040 14.626,23.040 14.606 C 23.040 14.585,23.194 14.364,23.382 14.115 C 24.537 12.584,24.824 11.327,24.151 10.751 C 23.688 10.355,22.821 10.190,21.740 10.290 C 21.166 10.344,20.157 10.523,19.916 10.615 L 19.805 10.657 19.924 11.342 C 19.990 11.718,20.070 12.267,20.104 12.560 C 20.222 13.602,20.182 13.493,20.549 13.760 C 22.076 14.867,23.674 16.482,24.519 17.771 C 25.208 18.822,25.466 19.544,25.466 20.427 C 25.467 20.947,25.454 21.012,25.296 21.348 C 24.990 21.992,24.490 22.367,23.594 22.623 C 23.235 22.726,23.049 22.743,22.320 22.742 C 21.761 22.741,21.284 22.708,20.936 22.648 C 20.644 22.598,20.397 22.548,20.387 22.538 C 20.373 22.524,20.583 21.602,20.610 21.562 C 20.614 21.556,20.809 21.584,21.042 21.624 C 22.380 21.854,23.525 21.734,24.086 21.306 C 24.942 20.653,24.460 19.095,22.809 17.174 L 22.395 16.692 21.958 17.082 C 21.546 17.448,20.594 18.224,20.321 18.415 C 20.209 18.493,20.188 18.579,20.104 19.317 C 19.861 21.458,19.401 23.223,18.723 24.615 C 18.187 25.714,17.566 26.440,16.863 26.786 C 16.538 26.946,16.467 26.960,16.000 26.960 C 15.535 26.960,15.462 26.945,15.146 26.789 C 14.431 26.435,13.805 25.705,13.278 24.613 C 12.998 24.032,12.668 23.203,12.705 23.173 C 12.750 23.137,13.610 22.872,13.627 22.890 C 13.639 22.901,13.731 23.127,13.832 23.393 C 14.325 24.684,15.001 25.640,15.599 25.890 C 16.547 26.285,17.587 25.146,18.340 22.888 C 18.461 22.526,18.560 22.189,18.560 22.141 C 18.560 22.077,18.387 21.988,17.933 21.820 C 17.589 21.692,17.013 21.458,16.655 21.300 L 16.003 21.012 15.457 21.258 C 14.091 21.872,12.760 22.319,11.547 22.573 C 10.824 22.724,10.652 22.740,9.760 22.743 C 8.887 22.746,8.725 22.733,8.357 22.626 C 7.505 22.379,7.050 22.038,6.742 21.415 C 6.581 21.088,6.544 20.950,6.522 20.578 C 6.457 19.507,7.092 18.080,8.220 16.762 L 8.366 16.591 8.694 16.961 L 9.022 17.331 8.652 17.826 C 7.469 19.404,7.172 20.643,7.833 21.240 C 8.280 21.644,9.167 21.820,10.230 21.716 C 10.826 21.658,11.845 21.476,12.084 21.385 L 12.195 21.343 12.075 20.656 C 12.009 20.277,11.928 19.717,11.896 19.411 C 11.794 18.454,11.849 18.563,11.212 18.071 C 8.851 16.249,7.260 14.345,6.685 12.654 C 6.569 12.311,6.544 12.139,6.540 11.653 C 6.534 10.918,6.646 10.597,7.069 10.140 C 7.567 9.602,8.278 9.321,9.319 9.249 C 9.998 9.203,11.627 9.373,11.627 9.490 C 11.627 9.538,11.405 10.422,11.388 10.441 C 11.381 10.449,11.144 10.419,10.861 10.373 C 10.252 10.275,9.158 10.263,8.752 10.351 C 7.881 10.537,7.499 10.928,7.503 11.629 C 7.507 12.403,7.995 13.375,8.989 14.587 C 9.229 14.880,9.473 15.162,9.531 15.214 C 9.632 15.304,9.640 15.303,9.738 15.192 C 9.881 15.031,10.993 14.107,11.429 13.788 C 11.628 13.643,11.800 13.475,11.811 13.415 C 11.822 13.355,11.859 13.031,11.894 12.693 C 12.010 11.549,12.292 10.104,12.585 9.152 C 13.276 6.909,14.239 5.516,15.382 5.107 C 15.813 4.954,16.408 5.000,16.874 5.223 M13.148 11.029 C 13.103 11.144,12.857 12.714,12.880 12.737 C 12.889 12.747,13.145 12.600,13.448 12.411 C 13.752 12.222,14.188 11.959,14.418 11.827 L 14.837 11.587 14.418 11.413 C 14.188 11.316,13.816 11.170,13.591 11.088 C 13.219 10.951,13.180 10.946,13.148 11.029 M18.129 11.197 C 17.760 11.338,17.394 11.487,17.315 11.529 L 17.171 11.604 17.585 11.836 C 17.813 11.963,18.248 12.223,18.550 12.412 C 18.853 12.602,19.107 12.749,19.116 12.739 C 19.140 12.709,18.886 11.129,18.841 11.030 C 18.804 10.949,18.728 10.967,18.129 11.197 M15.245 12.529 C 14.477 12.948,13.142 13.771,12.889 13.981 L 12.720 14.122 12.702 15.713 C 12.692 16.588,12.699 17.453,12.719 17.635 L 12.754 17.966 13.404 18.389 C 14.090 18.836,14.764 19.235,15.533 19.650 L 15.999 19.901 16.653 19.542 C 17.468 19.094,17.835 18.873,18.622 18.356 L 19.244 17.947 19.283 17.227 C 19.304 16.831,19.309 15.968,19.294 15.310 L 19.266 14.112 19.113 13.988 C 18.677 13.634,16.165 12.160,16.001 12.160 C 15.956 12.161,15.616 12.327,15.245 12.529 M16.507 14.821 C 16.972 15.037,17.240 15.484,17.237 16.038 C 17.233 16.642,16.841 17.142,16.260 17.282 C 15.591 17.442,14.927 17.000,14.767 16.288 C 14.588 15.484,15.176 14.720,15.973 14.722 C 16.172 14.722,16.374 14.760,16.507 14.821 M20.267 16.003 C 20.267 17.122,20.272 17.182,20.360 17.114 C 20.560 16.958,21.159 16.453,21.400 16.237 L 21.653 16.011 21.355 15.738 C 21.191 15.588,20.879 15.320,20.661 15.142 L 20.267 14.820 20.267 16.003 M11.245 15.213 C 10.684 15.681,10.347 15.982,10.347 16.015 C 10.347 16.039,11.373 16.912,11.631 17.108 C 11.707 17.165,11.715 17.061,11.712 16.026 C 11.711 15.396,11.695 14.880,11.678 14.880 C 11.660 14.880,11.466 15.030,11.245 15.213 M12.874 19.367 C 12.889 19.437,12.953 19.829,13.017 20.240 C 13.081 20.651,13.151 21.007,13.174 21.031 C 13.208 21.068,14.413 20.634,14.737 20.469 C 14.816 20.428,14.718 20.353,14.177 20.044 C 13.815 19.837,13.460 19.627,13.387 19.577 C 13.313 19.526,13.162 19.431,13.051 19.363 L 12.848 19.242 12.874 19.367 M18.735 19.493 C 18.583 19.596,18.167 19.846,17.812 20.050 L 17.166 20.420 17.316 20.497 C 17.559 20.620,18.783 21.075,18.807 21.050 C 18.841 21.016,19.026 20.016,19.067 19.640 C 19.087 19.457,19.083 19.307,19.058 19.307 C 19.033 19.307,18.887 19.391,18.735 19.493 " stroke="none" fill-rule="evenodd" fill="black"></path></svg>