<svg width="32" height="32" xmlns="http://www.w3.org/2000/svg"><path d="M14.933 0.034 C 10.237 0.384,6.020 2.671,3.211 6.391 C 1.590 8.538,0.590 10.959,0.146 13.813 C -0.017 14.858,-0.017 17.142,0.146 18.187 C 0.830 22.578,2.950 26.177,6.391 28.787 C 8.515 30.398,10.963 31.410,13.813 31.854 C 14.858 32.017,17.142 32.017,18.187 31.854 C 20.149 31.549,21.935 30.970,23.505 30.132 C 26.290 28.646,28.646 26.290,30.132 23.505 C 30.970 21.935,31.549 20.149,31.854 18.187 C 32.017 17.142,32.017 14.858,31.854 13.813 C 31.410 10.961,30.399 8.515,28.784 6.386 C 26.139 2.901,22.361 0.710,18.000 0.132 C 17.376 0.050,15.520 -0.010,14.933 0.034 M11.341 10.387 C 13.941 12.945,14.152 13.122,14.903 13.371 C 15.277 13.494,15.421 13.513,16.000 13.513 C 16.579 13.513,16.723 13.494,17.097 13.371 C 17.333 13.292,17.685 13.126,17.879 13.001 C 18.115 12.848,19.031 11.987,20.657 10.387 L 23.083 8.000 24.515 8.003 L 25.947 8.006 22.853 11.075 C 21.152 12.764,19.580 14.280,19.360 14.446 C 17.785 15.629,15.699 15.898,13.872 15.153 C 12.950 14.777,12.773 14.632,10.429 12.338 C 9.225 11.160,7.748 9.702,7.147 9.098 L 6.054 8.000 7.485 8.000 L 8.916 8.000 11.341 10.387 M17.412 17.142 C 18.043 17.306,18.876 17.704,19.365 18.076 C 19.559 18.223,21.131 19.746,22.858 21.462 L 26.000 24.581 24.560 24.584 L 23.119 24.587 21.733 23.195 C 20.970 22.430,19.826 21.304,19.190 20.693 C 18.150 19.694,17.989 19.560,17.590 19.363 C 16.562 18.857,15.419 18.860,14.400 19.372 C 13.981 19.582,13.836 19.706,12.480 21.022 C 11.673 21.804,10.534 22.926,9.947 23.515 L 8.881 24.587 7.441 24.584 L 6.000 24.582 9.139 21.464 C 10.866 19.749,12.438 18.227,12.632 18.080 C 13.307 17.572,14.148 17.207,15.022 17.042 C 15.659 16.921,16.735 16.966,17.412 17.142 " stroke="none" fill-rule="evenodd" fill="black"></path></svg>