<svg viewBox="0 0 32 32" xmlns="http://www.w3.org/2000/svg"><path d="M14.933 0.034 C 10.237 0.384,6.020 2.671,3.211 6.391 C 1.590 8.538,0.590 10.959,0.146 13.813 C -0.017 14.858,-0.017 17.142,0.146 18.187 C 0.830 22.578,2.950 26.177,6.391 28.787 C 8.515 30.398,10.963 31.410,13.813 31.854 C 14.858 32.017,17.142 32.017,18.187 31.854 C 20.149 31.549,21.935 30.970,23.505 30.132 C 26.290 28.646,28.646 26.290,30.132 23.505 C 30.970 21.935,31.549 20.149,31.854 18.187 C 32.017 17.142,32.017 14.858,31.854 13.813 C 31.410 10.961,30.399 8.515,28.784 6.386 C 26.139 2.901,22.361 0.710,18.000 0.132 C 17.376 0.050,15.520 -0.010,14.933 0.034 M13.601 6.214 L 13.973 6.401 13.973 8.187 L 13.973 9.973 18.201 9.973 L 22.429 9.973 22.842 10.388 L 23.254 10.803 20.703 13.308 C 19.300 14.686,18.157 15.821,18.164 15.830 C 18.170 15.839,18.314 15.806,18.483 15.757 C 19.164 15.559,19.939 15.688,20.889 16.159 C 21.758 16.590,22.214 16.991,22.654 17.712 C 23.200 18.605,23.409 19.341,23.451 20.514 C 23.485 21.451,23.423 21.985,23.199 22.669 C 22.636 24.393,21.598 25.338,19.746 25.812 C 18.471 26.139,16.785 26.018,15.790 25.529 C 15.155 25.217,14.496 24.487,14.199 23.767 C 14.027 23.350,13.969 22.481,14.092 22.187 C 14.206 21.916,14.435 21.665,14.687 21.536 C 14.962 21.396,15.538 21.348,15.864 21.439 C 16.159 21.522,16.500 21.807,16.653 22.099 C 16.815 22.407,16.815 23.077,16.653 23.390 C 16.528 23.632,16.150 24.000,16.027 24.000 C 15.895 24.000,15.935 24.090,16.147 24.264 C 16.678 24.702,18.074 24.932,18.909 24.719 C 19.901 24.465,20.611 23.798,20.949 22.800 C 21.314 21.722,21.366 20.365,21.087 19.200 C 20.952 18.635,20.574 17.909,20.242 17.577 C 19.846 17.182,19.214 16.873,18.631 16.789 C 17.985 16.696,17.692 16.768,16.654 17.276 L 15.787 17.702 15.787 17.440 L 15.787 17.179 18.077 14.176 L 20.367 11.173 17.237 11.159 C 15.515 11.152,14.076 11.158,14.037 11.172 C 13.981 11.194,13.971 11.844,13.984 14.573 C 14.000 17.923,14.001 17.949,14.120 18.265 C 14.268 18.657,14.474 18.918,14.750 19.063 C 14.918 19.151,15.057 19.173,15.440 19.172 C 15.859 19.171,15.956 19.153,16.200 19.025 C 16.506 18.864,17.139 18.296,17.340 18.000 C 17.492 17.777,17.610 17.729,17.810 17.812 C 18.267 18.001,18.133 18.749,17.517 19.453 C 16.846 20.220,15.933 20.515,14.660 20.378 C 13.284 20.230,12.564 19.841,12.124 19.009 C 11.809 18.413,11.819 18.551,11.789 14.720 L 11.760 11.173 10.147 11.159 L 8.533 11.145 8.533 10.559 L 8.533 9.973 10.160 9.973 L 11.787 9.973 11.787 8.656 L 11.787 7.338 11.413 6.989 L 11.039 6.640 11.040 6.333 L 11.040 6.027 12.135 6.027 L 13.229 6.027 13.601 6.214 " stroke="none" fill-rule="evenodd" fill="black"></path></svg>