<svg viewBox="0 0 32 32" xmlns="http://www.w3.org/2000/svg"><path d="M14.933 0.034 C 10.237 0.384,6.020 2.671,3.211 6.391 C 1.590 8.538,0.590 10.959,0.146 13.813 C -0.017 14.858,-0.017 17.142,0.146 18.187 C 0.830 22.578,2.950 26.177,6.391 28.787 C 8.515 30.398,10.963 31.410,13.813 31.854 C 14.858 32.017,17.142 32.017,18.187 31.854 C 20.149 31.549,21.935 30.970,23.505 30.132 C 26.290 28.646,28.646 26.290,30.132 23.505 C 30.970 21.935,31.549 20.149,31.854 18.187 C 32.017 17.142,32.017 14.858,31.854 13.813 C 31.410 10.961,30.399 8.515,28.784 6.386 C 26.139 2.901,22.361 0.710,18.000 0.132 C 17.376 0.050,15.520 -0.010,14.933 0.034 M17.760 5.144 C 19.992 5.521,21.987 6.519,23.609 8.070 C 25.325 9.710,26.443 11.839,26.863 14.267 C 26.993 15.017,26.993 16.983,26.863 17.733 C 26.652 18.953,26.272 20.085,25.733 21.105 C 23.389 25.539,18.448 27.815,13.547 26.721 C 10.467 26.034,7.776 23.960,6.272 21.115 C 5.728 20.085,5.349 18.957,5.137 17.733 C 5.007 16.983,5.007 15.017,5.137 14.267 C 5.818 10.331,8.368 7.185,12.050 5.736 C 12.677 5.490,13.793 5.203,14.427 5.125 C 14.691 5.093,14.967 5.056,15.040 5.044 C 15.345 4.991,17.280 5.063,17.760 5.144 M15.973 7.118 L 14.907 7.453 14.880 8.162 L 14.853 8.871 14.480 8.946 C 12.439 9.355,10.542 10.805,9.578 12.693 C 9.246 13.344,9.058 13.881,8.898 14.634 C 8.736 15.395,8.736 16.606,8.899 17.370 C 9.312 19.315,10.394 20.933,11.993 21.998 C 12.802 22.537,13.835 22.955,14.718 23.100 L 15.093 23.162 15.093 24.194 C 15.093 24.762,15.099 25.226,15.107 25.226 C 15.114 25.226,15.612 25.072,16.213 24.885 L 17.307 24.544 17.321 23.821 L 17.336 23.097 17.561 23.041 C 18.516 22.807,19.467 22.374,20.225 21.829 C 20.776 21.432,21.607 20.566,21.991 19.990 C 22.267 19.575,22.655 18.818,22.744 18.520 L 22.781 18.400 21.617 18.402 L 20.453 18.403 20.270 18.724 C 19.903 19.364,19.038 20.157,18.297 20.532 C 17.577 20.897,16.815 21.074,15.973 21.073 C 14.260 21.072,12.677 20.214,11.744 18.783 C 11.301 18.103,10.933 17.072,10.933 16.509 L 10.933 16.374 17.080 16.360 L 23.227 16.347 23.212 15.893 C 23.181 14.951,22.865 13.725,22.435 12.870 C 21.943 11.893,21.084 10.862,20.217 10.208 C 19.624 9.761,18.523 9.214,17.867 9.041 C 17.588 8.967,17.306 8.907,17.240 8.907 L 17.120 8.907 17.120 7.840 C 17.120 7.253,17.102 6.775,17.080 6.778 C 17.058 6.781,16.560 6.934,15.973 7.118 M16.997 11.011 C 18.354 11.300,19.498 12.080,20.246 13.228 C 20.523 13.652,20.727 14.064,20.684 14.108 C 20.669 14.122,18.541 14.128,15.955 14.120 L 11.253 14.107 11.467 13.678 C 12.125 12.358,13.455 11.331,14.907 11.022 C 15.399 10.917,16.527 10.911,16.997 11.011 " stroke="none" fill-rule="evenodd" fill="black"></path></svg>