<svg width="32" height="32" xmlns="http://www.w3.org/2000/svg"><path d="M14.933 0.034 C 10.237 0.384,6.020 2.671,3.211 6.391 C 1.590 8.538,0.590 10.959,0.146 13.813 C -0.017 14.858,-0.017 17.142,0.146 18.187 C 0.830 22.578,2.950 26.177,6.391 28.787 C 8.515 30.398,10.963 31.410,13.813 31.854 C 14.858 32.017,17.142 32.017,18.187 31.854 C 20.149 31.549,21.935 30.970,23.505 30.132 C 26.290 28.646,28.646 26.290,30.132 23.505 C 30.970 21.935,31.549 20.149,31.854 18.187 C 32.017 17.142,32.017 14.858,31.854 13.813 C 31.410 10.961,30.399 8.515,28.784 6.386 C 26.139 2.901,22.361 0.710,18.000 0.132 C 17.376 0.050,15.520 -0.010,14.933 0.034 M8.993 12.238 C 9.434 12.456,9.734 12.760,9.957 13.217 C 10.079 13.467,10.102 13.584,10.104 13.970 C 10.106 14.221,10.089 14.490,10.067 14.567 C 10.029 14.704,10.032 14.706,10.254 14.684 C 10.520 14.657,10.791 14.779,10.953 15.000 C 11.097 15.196,11.099 15.613,10.957 15.815 C 10.816 16.014,10.796 16.054,10.732 16.252 L 10.677 16.424 10.855 16.288 C 11.161 16.055,11.546 15.940,12.023 15.940 C 12.480 15.940,12.771 16.017,13.153 16.241 L 13.377 16.372 13.321 16.223 C 13.232 15.989,13.316 15.682,13.521 15.489 C 13.731 15.291,13.975 15.239,14.251 15.332 L 14.448 15.399 14.313 15.223 C 14.239 15.126,14.134 14.928,14.079 14.783 C 13.690 13.760,14.135 12.670,15.136 12.196 C 15.459 12.043,15.541 12.027,16.000 12.027 C 16.459 12.027,16.541 12.043,16.864 12.196 C 17.785 12.632,18.243 13.598,17.996 14.582 C 17.965 14.705,17.973 14.710,18.175 14.683 C 18.444 14.647,18.751 14.787,18.886 15.009 C 19.029 15.243,19.018 15.608,18.862 15.841 C 18.793 15.943,18.711 16.105,18.678 16.201 L 18.618 16.375 18.844 16.243 C 19.228 16.017,19.519 15.940,19.973 15.940 C 20.430 15.941,20.755 16.028,21.067 16.234 L 21.253 16.357 21.253 16.015 C 21.253 15.687,21.262 15.664,21.453 15.489 C 21.673 15.287,21.879 15.245,22.224 15.331 C 22.364 15.366,22.366 15.364,22.281 15.269 C 22.232 15.215,22.125 15.027,22.042 14.852 C 21.912 14.573,21.893 14.470,21.893 14.027 C 21.893 13.581,21.911 13.484,22.041 13.220 C 22.270 12.752,22.564 12.457,23.027 12.228 C 23.411 12.039,23.463 12.027,23.917 12.030 C 24.535 12.035,24.898 12.169,25.310 12.546 C 25.752 12.950,25.934 13.340,25.961 13.947 C 25.987 14.499,25.878 14.877,25.581 15.267 C 24.940 16.107,23.688 16.334,22.827 15.766 L 22.640 15.643 22.640 15.978 C 22.640 16.275,22.623 16.331,22.485 16.475 C 22.236 16.735,21.978 16.789,21.618 16.658 C 21.525 16.624,21.525 16.627,21.611 16.726 C 21.787 16.927,21.986 17.450,22.013 17.780 C 22.052 18.264,21.949 18.667,21.689 19.054 C 20.796 20.383,18.856 20.277,18.117 18.858 C 17.958 18.553,17.948 18.499,17.947 17.967 C 17.947 17.421,17.954 17.388,18.140 17.024 L 18.333 16.648 18.195 16.700 C 17.704 16.887,17.136 16.342,17.284 15.826 C 17.311 15.731,17.333 15.648,17.333 15.640 C 17.333 15.632,17.242 15.683,17.130 15.754 C 16.440 16.189,15.514 16.181,14.849 15.735 L 14.631 15.589 14.700 15.789 C 14.827 16.157,14.646 16.525,14.266 16.670 C 14.075 16.743,13.983 16.751,13.846 16.709 L 13.671 16.655 13.862 17.028 C 14.046 17.387,14.053 17.422,14.053 17.967 C 14.052 18.499,14.042 18.553,13.883 18.858 C 13.417 19.752,12.381 20.193,11.432 19.901 C 10.258 19.540,9.655 18.236,10.156 17.141 C 10.234 16.970,10.339 16.783,10.389 16.726 C 10.475 16.627,10.475 16.624,10.382 16.658 C 10.009 16.794,9.743 16.730,9.490 16.442 C 9.335 16.265,9.323 16.226,9.344 15.944 L 9.366 15.639 9.176 15.764 C 8.852 15.978,8.535 16.066,8.080 16.069 C 7.184 16.075,6.447 15.570,6.133 14.735 C 6.036 14.479,6.020 14.346,6.039 13.947 C 6.057 13.542,6.086 13.417,6.225 13.146 C 6.395 12.813,6.794 12.395,7.084 12.245 C 7.673 11.940,8.385 11.938,8.993 12.238 M9.798 14.922 C 9.719 15.004,9.640 15.154,9.622 15.255 L 9.589 15.440 9.781 15.177 C 9.943 14.956,10.022 14.773,9.957 14.773 C 9.947 14.773,9.876 14.840,9.798 14.922 M17.800 14.833 C 17.694 14.893,17.547 15.153,17.547 15.280 C 17.547 15.409,17.635 15.330,17.793 15.062 C 17.944 14.803,17.945 14.752,17.800 14.833 " stroke="none" fill-rule="evenodd" fill="black"></path></svg>