<svg viewBox="0 0 32 32" xmlns="http://www.w3.org/2000/svg"><path d="M14.933 0.034 C 10.237 0.384,6.020 2.671,3.211 6.391 C 1.590 8.538,0.590 10.959,0.146 13.813 C -0.017 14.858,-0.017 17.142,0.146 18.187 C 0.830 22.578,2.950 26.177,6.391 28.787 C 8.515 30.398,10.963 31.410,13.813 31.854 C 14.858 32.017,17.142 32.017,18.187 31.854 C 20.149 31.549,21.935 30.970,23.505 30.132 C 26.290 28.646,28.646 26.290,30.132 23.505 C 30.970 21.935,31.549 20.149,31.854 18.187 C 32.017 17.142,32.017 14.858,31.854 13.813 C 31.410 10.961,30.399 8.515,28.784 6.386 C 26.139 2.901,22.361 0.710,18.000 0.132 C 17.376 0.050,15.520 -0.010,14.933 0.034 M17.867 5.165 C 20.996 5.721,23.692 7.545,25.371 10.243 C 27.064 12.964,27.451 16.480,26.395 19.559 C 25.700 21.584,24.419 23.376,22.718 24.703 C 20.164 26.694,16.771 27.441,13.547 26.721 C 11.271 26.213,9.103 24.886,7.592 23.078 C 5.401 20.457,4.555 17.053,5.254 13.681 C 6.085 9.673,9.251 6.379,13.249 5.362 C 13.633 5.264,14.163 5.157,14.427 5.125 C 14.691 5.093,14.967 5.056,15.040 5.044 C 15.406 4.981,17.283 5.062,17.867 5.165 M15.227 7.788 C 13.219 8.015,11.649 8.774,10.200 10.219 C 9.811 10.606,9.493 10.949,9.493 10.981 C 9.493 11.023,10.503 11.040,13.067 11.040 C 15.032 11.040,16.640 11.051,16.640 11.065 C 16.640 11.079,16.313 11.667,15.914 12.372 L 15.188 13.653 11.656 13.653 L 8.123 13.653 8.011 14.120 C 7.825 14.888,7.770 15.478,7.804 16.347 C 7.851 17.578,8.128 18.662,8.675 19.750 C 10.524 23.431,14.776 25.181,18.689 23.872 C 20.116 23.394,21.362 22.571,22.275 21.500 C 22.461 21.282,22.613 21.083,22.613 21.059 C 22.613 21.034,20.120 21.008,17.073 21.000 L 11.533 20.987 12.396 19.467 C 12.870 18.631,14.130 16.411,15.195 14.533 C 16.261 12.656,17.149 11.102,17.170 11.079 C 17.190 11.057,17.930 11.045,18.813 11.053 L 20.419 11.067 18.499 14.453 C 17.443 16.316,16.507 17.966,16.419 18.120 L 16.258 18.401 20.142 18.387 L 24.025 18.373 24.120 18.027 C 24.671 16.004,24.254 13.417,23.084 11.598 C 21.828 9.647,19.892 8.334,17.620 7.894 C 16.954 7.765,15.859 7.717,15.227 7.788 M23.450 9.804 C 23.048 10.206,22.720 10.551,22.720 10.571 C 22.720 10.591,22.839 10.764,22.984 10.956 C 24.113 12.449,24.698 14.375,24.620 16.347 C 24.570 17.631,24.286 18.745,23.728 19.856 C 23.457 20.395,23.022 21.090,22.811 21.320 L 22.701 21.440 23.396 22.147 C 23.778 22.535,24.112 22.864,24.139 22.877 C 24.234 22.925,25.011 21.862,25.423 21.120 C 25.921 20.222,26.363 18.933,26.566 17.787 C 26.724 16.891,26.738 15.212,26.595 14.373 C 26.275 12.496,25.536 10.800,24.418 9.376 L 24.179 9.073 23.450 9.804 " stroke="none" fill-rule="evenodd" fill="black"></path></svg>