<svg viewBox="0 0 24 24" xmlns="http://www.w3.org/2000/svg"><path d="M11.433 2.040 C 10.843 2.134,10.221 2.380,9.731 2.712 C 8.762 3.370,8.105 4.502,8.014 5.670 L 7.988 6.000 12.000 6.000 L 16.012 6.000 15.988 5.690 C 15.895 4.503,15.243 3.374,14.269 2.712 C 13.917 2.473,13.343 2.214,12.958 2.120 C 12.572 2.026,11.783 1.984,11.433 2.040 M3.542 7.990 C 3.281 8.447,3.061 8.832,3.054 8.846 C 3.046 8.860,3.531 9.154,4.130 9.500 C 4.730 9.846,5.224 10.133,5.229 10.137 C 5.235 10.142,5.193 10.360,5.137 10.623 C 5.050 11.029,5.032 11.242,5.012 12.050 L 4.989 13.000 3.495 13.000 L 2.000 13.000 2.000 14.000 L 2.000 15.000 3.500 15.000 L 5.000 15.000 5.000 15.211 C 5.000 15.757,5.145 16.551,5.366 17.215 C 5.453 17.476,5.518 17.696,5.511 17.703 C 5.504 17.710,4.949 18.033,4.279 18.420 C 3.596 18.814,3.066 19.145,3.073 19.172 C 3.100 19.273,4.020 20.840,4.052 20.840 C 4.071 20.840,4.618 20.533,5.267 20.157 C 5.916 19.782,6.471 19.466,6.500 19.455 C 6.530 19.443,6.764 19.646,7.046 19.928 C 7.318 20.199,7.711 20.541,7.920 20.689 C 10.386 22.430,13.614 22.430,16.080 20.689 C 16.289 20.541,16.682 20.199,16.954 19.928 C 17.236 19.646,17.470 19.443,17.500 19.455 C 17.529 19.466,18.084 19.782,18.733 20.157 C 19.382 20.533,19.929 20.840,19.948 20.840 C 19.980 20.840,20.900 19.273,20.927 19.172 C 20.934 19.145,20.401 18.813,19.720 18.419 C 19.049 18.030,18.495 17.708,18.488 17.701 C 18.482 17.695,18.547 17.476,18.634 17.215 C 18.855 16.551,19.000 15.757,19.000 15.211 L 19.000 15.000 20.500 15.000 L 22.000 15.000 22.000 14.000 L 22.000 13.000 20.500 13.000 L 19.000 13.000 19.000 12.289 C 19.000 11.562,18.962 11.115,18.856 10.620 C 18.824 10.466,18.787 10.295,18.776 10.240 C 18.756 10.146,18.818 10.103,19.857 9.506 C 20.464 9.158,20.954 8.861,20.947 8.846 C 20.805 8.569,19.973 7.160,19.951 7.160 C 19.934 7.160,19.502 7.402,18.990 7.698 C 18.479 7.993,18.031 8.246,17.995 8.260 C 17.949 8.278,17.903 8.243,17.842 8.142 L 17.753 8.000 12.000 8.000 L 6.247 8.000 6.158 8.142 C 6.097 8.243,6.051 8.278,6.005 8.260 C 5.969 8.246,5.521 7.993,5.010 7.698 C 4.498 7.402,4.066 7.160,4.049 7.160 C 4.032 7.160,3.804 7.534,3.542 7.990 M16.695 10.290 C 16.833 10.680,16.908 10.993,16.958 11.399 C 17.013 11.839,17.013 15.157,16.958 15.601 C 16.758 17.233,15.704 18.740,14.263 19.455 C 13.896 19.637,13.218 19.880,13.076 19.880 C 13.002 19.880,13.000 19.807,13.000 16.940 L 13.000 14.000 12.000 14.000 L 11.000 14.000 11.000 16.940 C 11.000 19.807,10.998 19.880,10.924 19.880 C 10.782 19.880,10.104 19.637,9.737 19.455 C 8.296 18.740,7.242 17.233,7.042 15.601 C 6.987 15.157,6.987 11.839,7.042 11.399 C 7.092 10.993,7.167 10.680,7.305 10.290 L 7.408 10.000 12.000 10.000 L 16.592 10.000 16.695 10.290 " stroke="none" fill-rule="evenodd" fill="black"></path></svg>