<svg viewBox="0 0 24 24" xmlns="http://www.w3.org/2000/svg"><path d="M11.433 2.040 C 10.843 2.134,10.221 2.380,9.731 2.712 C 8.762 3.370,8.105 4.502,8.014 5.670 L 7.988 6.000 12.000 6.000 L 16.012 6.000 15.988 5.690 C 15.895 4.503,15.243 3.374,14.269 2.712 C 13.917 2.473,13.343 2.214,12.958 2.120 C 12.572 2.026,11.783 1.984,11.433 2.040 M3.542 7.990 C 3.281 8.447,3.061 8.832,3.054 8.846 C 3.046 8.860,3.531 9.154,4.130 9.500 C 4.730 9.846,5.224 10.133,5.229 10.137 C 5.235 10.142,5.193 10.360,5.137 10.623 C 5.050 11.029,5.032 11.242,5.012 12.050 L 4.989 13.000 3.495 13.000 L 2.000 13.000 2.000 14.000 L 2.000 15.000 3.500 15.000 L 5.000 15.000 5.000 15.211 C 5.000 15.757,5.145 16.551,5.366 17.215 C 5.453 17.476,5.518 17.696,5.511 17.703 C 5.504 17.710,4.949 18.033,4.279 18.420 C 3.596 18.814,3.066 19.145,3.073 19.172 C 3.100 19.273,4.020 20.840,4.052 20.840 C 4.071 20.840,4.618 20.533,5.267 20.157 C 5.916 19.782,6.471 19.466,6.499 19.455 C 6.528 19.444,6.767 19.650,7.046 19.927 C 7.602 20.482,8.101 20.853,8.723 21.177 C 9.402 21.531,10.209 21.811,10.810 21.901 L 11.000 21.929 11.000 17.965 L 11.000 14.000 12.000 14.000 L 13.000 14.000 13.000 17.965 L 13.000 21.929 13.190 21.901 C 13.744 21.818,14.539 21.552,15.161 21.240 C 15.871 20.885,16.626 20.315,17.142 19.745 C 17.294 19.577,17.435 19.440,17.455 19.440 C 17.475 19.440,18.037 19.755,18.703 20.140 C 19.369 20.525,19.929 20.840,19.948 20.840 C 19.980 20.840,20.900 19.273,20.927 19.172 C 20.934 19.145,20.401 18.813,19.720 18.419 C 19.049 18.030,18.495 17.708,18.488 17.701 C 18.482 17.695,18.547 17.476,18.634 17.215 C 18.855 16.551,19.000 15.757,19.000 15.211 L 19.000 15.000 20.500 15.000 L 22.000 15.000 22.000 14.000 L 22.000 13.000 20.500 13.000 L 19.000 13.000 19.000 12.289 C 19.000 11.562,18.962 11.115,18.856 10.620 C 18.824 10.466,18.787 10.295,18.776 10.240 C 18.756 10.146,18.818 10.103,19.857 9.506 C 20.464 9.158,20.954 8.861,20.947 8.846 C 20.805 8.569,19.973 7.160,19.951 7.160 C 19.934 7.160,19.502 7.402,18.990 7.698 C 18.479 7.993,18.031 8.246,17.995 8.260 C 17.949 8.278,17.903 8.243,17.842 8.142 L 17.753 8.000 12.000 8.000 L 6.247 8.000 6.158 8.142 C 6.097 8.243,6.051 8.278,6.005 8.260 C 5.969 8.246,5.521 7.993,5.010 7.698 C 4.498 7.402,4.066 7.160,4.049 7.160 C 4.032 7.160,3.804 7.534,3.542 7.990 " stroke="none" fill-rule="evenodd" fill="black"></path></svg>