<svg viewBox="0 0 24 24" xmlns="http://www.w3.org/2000/svg"><path d="M8.160 3.180 L 7.461 3.880 7.979 4.399 C 8.293 4.714,8.482 4.932,8.459 4.953 C 8.437 4.972,8.285 5.075,8.120 5.183 C 7.205 5.781,6.356 6.708,5.859 7.650 L 5.675 8.000 4.337 8.000 L 3.000 8.000 3.000 9.000 L 3.000 10.000 4.032 10.000 L 5.064 10.000 5.034 10.270 C 5.018 10.418,5.003 10.868,5.002 11.270 L 5.000 12.000 4.000 12.000 L 3.000 12.000 3.000 13.000 L 3.000 14.000 4.000 14.000 L 5.000 14.000 5.002 14.730 C 5.003 15.132,5.018 15.582,5.034 15.730 L 5.064 16.000 4.032 16.000 L 3.000 16.000 3.000 17.000 L 3.000 18.000 4.337 18.000 L 5.675 18.000 5.859 18.350 C 6.655 19.859,8.134 21.095,9.800 21.642 C 10.623 21.912,11.060 21.979,12.000 21.979 C 12.696 21.979,12.889 21.965,13.276 21.887 C 14.269 21.687,15.280 21.255,16.079 20.689 C 16.288 20.541,16.675 20.204,16.940 19.940 C 17.456 19.424,17.845 18.909,18.141 18.350 L 18.325 18.000 19.663 18.000 L 21.000 18.000 21.000 17.000 L 21.000 16.000 19.968 16.000 L 18.936 16.000 18.966 15.730 C 18.982 15.582,18.997 15.132,18.998 14.730 L 19.000 14.000 20.000 14.000 L 21.000 14.000 21.000 13.000 L 21.000 12.000 20.000 12.000 L 19.000 12.000 18.998 11.270 C 18.997 10.868,18.982 10.418,18.966 10.270 L 18.936 10.000 19.968 10.000 L 21.000 10.000 21.000 9.000 L 21.000 8.000 19.663 8.000 L 18.325 8.000 18.141 7.650 C 17.644 6.708,16.795 5.781,15.880 5.183 C 15.715 5.075,15.563 4.972,15.541 4.953 C 15.518 4.932,15.707 4.714,16.021 4.399 L 16.539 3.880 15.830 3.170 L 15.120 2.460 14.270 3.304 L 13.420 4.147 13.100 4.088 C 12.666 4.009,11.336 4.008,10.892 4.087 L 10.565 4.146 9.733 3.313 C 9.275 2.855,8.891 2.480,8.880 2.480 C 8.868 2.480,8.545 2.795,8.160 3.180 M12.601 6.042 C 13.369 6.136,14.154 6.432,14.824 6.881 C 15.229 7.152,15.848 7.771,16.119 8.176 C 16.568 8.846,16.864 9.631,16.958 10.399 C 17.013 10.848,17.013 15.152,16.958 15.601 C 16.723 17.522,15.375 19.158,13.539 19.753 C 12.973 19.936,12.676 19.980,12.000 19.980 C 11.325 19.980,11.027 19.936,10.465 19.754 C 8.624 19.158,7.277 17.524,7.042 15.601 C 6.987 15.152,6.987 10.848,7.042 10.399 C 7.142 9.581,7.506 8.670,7.994 8.016 C 9.061 6.588,10.840 5.826,12.601 6.042 M9.000 11.000 L 9.000 12.000 12.000 12.000 L 15.000 12.000 15.000 11.000 L 15.000 10.000 12.000 10.000 L 9.000 10.000 9.000 11.000 M9.000 15.000 L 9.000 16.000 12.000 16.000 L 15.000 16.000 15.000 15.000 L 15.000 14.000 12.000 14.000 L 9.000 14.000 9.000 15.000 " stroke="none" fill-rule="evenodd" fill="black"></path></svg>