<svg viewBox="0 0 24 24" xmlns="http://www.w3.org/2000/svg"><path d="M14.149 3.170 C 14.116 3.264,12.654 7.282,10.899 12.100 C 9.145 16.918,7.700 20.892,7.690 20.930 C 7.672 20.995,7.741 21.000,8.732 21.000 L 9.792 21.000 9.851 20.830 C 9.884 20.737,11.346 16.718,13.101 11.900 C 14.855 7.082,16.300 3.109,16.310 3.070 C 16.328 3.005,16.259 3.000,15.268 3.000 L 14.208 3.000 14.149 3.170 M2.827 9.156 C 1.294 10.695,0.040 11.968,0.040 11.987 C 0.040 12.005,1.305 13.285,2.850 14.830 L 5.661 17.640 6.360 16.940 L 7.059 16.240 4.940 14.120 L 2.820 12.000 4.940 9.880 L 7.059 7.760 6.360 7.060 C 5.976 6.675,5.650 6.360,5.637 6.360 C 5.624 6.360,4.360 7.618,2.827 9.156 M17.640 7.060 L 16.941 7.760 19.060 9.880 L 21.180 12.000 19.060 14.120 L 16.941 16.240 17.640 16.940 L 18.339 17.640 21.170 14.810 L 24.000 11.980 21.190 9.170 C 19.645 7.625,18.371 6.360,18.360 6.360 C 18.348 6.360,18.024 6.675,17.640 7.060 " stroke="none" fill-rule="evenodd" fill="black"></path></svg>