<svg viewBox="0 0 24 24" xmlns="http://www.w3.org/2000/svg"><path d="M5.875 3.062 C 4.568 3.299,3.533 4.237,3.133 5.548 C 3.038 5.863,3.026 5.963,3.026 6.500 C 3.026 7.037,3.038 7.137,3.133 7.452 C 3.501 8.656,4.345 9.500,5.548 9.866 C 5.883 9.968,5.952 9.974,6.950 9.991 L 8.000 10.008 8.000 12.004 L 8.000 14.000 7.125 14.000 C 6.529 14.000,6.141 14.019,5.908 14.060 C 4.573 14.292,3.538 15.221,3.133 16.548 C 3.038 16.863,3.026 16.963,3.026 17.500 C 3.026 18.037,3.038 18.137,3.133 18.452 C 3.501 19.656,4.344 20.499,5.548 20.867 C 5.863 20.962,5.963 20.974,6.500 20.974 C 7.037 20.974,7.137 20.962,7.452 20.867 C 8.656 20.499,9.500 19.655,9.866 18.452 C 9.968 18.117,9.974 18.048,9.991 17.050 L 10.008 16.000 12.000 16.000 L 13.992 16.000 14.009 17.050 C 14.026 18.048,14.032 18.117,14.134 18.452 C 14.500 19.655,15.344 20.499,16.548 20.867 C 16.863 20.962,16.963 20.974,17.500 20.974 C 18.037 20.974,18.137 20.962,18.452 20.867 C 19.656 20.499,20.499 19.656,20.867 18.452 C 20.962 18.137,20.974 18.037,20.974 17.500 C 20.974 16.963,20.962 16.863,20.867 16.548 C 20.462 15.221,19.427 14.292,18.092 14.060 C 17.859 14.019,17.471 14.000,16.875 14.000 L 16.000 14.000 16.000 12.004 L 16.000 10.008 17.050 9.991 C 18.048 9.974,18.117 9.968,18.452 9.866 C 19.655 9.500,20.499 8.656,20.867 7.452 C 20.962 7.137,20.974 7.037,20.974 6.500 C 20.974 5.963,20.962 5.863,20.867 5.548 C 20.665 4.886,20.361 4.395,19.868 3.936 C 18.541 2.698,16.459 2.698,15.132 3.936 C 14.639 4.395,14.335 4.887,14.134 5.548 C 14.032 5.883,14.026 5.952,14.009 6.950 L 13.992 8.000 12.000 8.000 L 10.008 8.000 9.991 6.950 C 9.974 5.952,9.968 5.883,9.866 5.548 C 9.665 4.887,9.361 4.395,8.868 3.936 C 8.071 3.193,6.954 2.867,5.875 3.062 M7.110 5.139 C 7.414 5.278,7.725 5.589,7.867 5.896 C 7.979 6.138,7.980 6.147,7.993 7.073 L 8.007 8.005 7.073 7.993 C 6.147 7.980,6.138 7.979,5.900 7.868 C 5.584 7.721,5.275 7.413,5.134 7.104 C 5.038 6.895,5.022 6.809,5.022 6.500 C 5.021 6.190,5.037 6.107,5.133 5.900 C 5.324 5.489,5.727 5.148,6.150 5.041 C 6.407 4.976,6.852 5.022,7.110 5.139 M18.110 5.139 C 18.415 5.278,18.725 5.589,18.866 5.896 C 18.962 6.105,18.978 6.191,18.978 6.500 C 18.979 6.810,18.963 6.893,18.867 7.100 C 18.722 7.415,18.413 7.724,18.104 7.867 C 17.862 7.979,17.854 7.980,16.927 7.993 L 15.993 8.005 16.007 7.073 C 16.020 6.148,16.021 6.138,16.132 5.900 C 16.324 5.488,16.727 5.148,17.150 5.041 C 17.407 4.976,17.852 5.022,18.110 5.139 M14.000 12.000 L 14.000 14.000 12.000 14.000 L 10.000 14.000 10.000 12.000 L 10.000 10.000 12.000 10.000 L 14.000 10.000 14.000 12.000 M7.993 16.930 C 7.980 17.852,7.979 17.862,7.868 18.100 C 7.721 18.415,7.413 18.724,7.104 18.867 C 6.894 18.965,6.811 18.980,6.500 18.980 C 6.190 18.980,6.107 18.965,5.900 18.868 C 5.584 18.721,5.275 18.413,5.134 18.104 C 5.038 17.895,5.022 17.809,5.022 17.500 C 5.021 17.190,5.037 17.107,5.133 16.900 C 5.324 16.487,5.735 16.141,6.150 16.043 C 6.232 16.024,6.684 16.006,7.153 16.004 L 8.006 16.000 7.993 16.930 M18.104 16.133 C 18.413 16.276,18.722 16.585,18.867 16.900 C 18.963 17.106,18.979 17.190,18.979 17.500 C 18.979 17.810,18.963 17.894,18.867 18.100 C 18.722 18.415,18.413 18.724,18.104 18.867 C 17.894 18.965,17.811 18.980,17.500 18.980 C 17.190 18.980,17.107 18.965,16.900 18.868 C 16.585 18.721,16.276 18.413,16.133 18.104 C 16.021 17.862,16.020 17.853,16.007 16.927 L 15.993 15.993 16.927 16.007 C 17.853 16.020,17.862 16.021,18.104 16.133 " stroke="none" fill-rule="evenodd" fill="black"></path></svg>