<svg viewBox="0 0 24 24" xmlns="http://www.w3.org/2000/svg"><path d="M5.503 2.042 C 4.667 2.182,3.817 2.773,3.396 3.508 C 3.244 3.772,3.098 4.191,3.041 4.522 C 3.010 4.705,3.000 6.714,3.008 11.440 L 3.020 18.100 3.130 18.452 C 3.511 19.667,4.339 20.494,5.548 20.868 L 5.900 20.977 7.950 20.991 L 10.000 21.005 10.000 20.004 L 10.000 19.003 8.070 18.991 L 6.140 18.980 5.896 18.867 C 5.587 18.724,5.278 18.415,5.133 18.100 C 5.037 17.894,5.021 17.810,5.021 17.500 C 5.021 17.190,5.037 17.106,5.133 16.900 C 5.279 16.585,5.587 16.276,5.896 16.133 C 6.131 16.025,6.167 16.020,6.900 16.006 L 7.660 15.991 10.320 12.756 C 11.783 10.977,12.992 9.525,13.006 9.531 C 13.021 9.536,14.196 10.993,15.617 12.770 L 18.200 16.000 18.600 16.000 L 19.000 16.000 19.000 17.500 L 19.000 19.000 17.500 19.000 L 16.000 19.000 16.000 20.000 L 16.000 21.000 18.073 21.000 C 20.419 21.000,20.400 21.002,20.701 20.701 C 21.027 20.375,21.000 21.204,21.000 11.500 C 21.000 1.796,21.027 2.625,20.701 2.299 C 20.377 1.975,21.034 1.999,12.923 2.005 C 8.950 2.007,5.611 2.024,5.503 2.042 M9.000 6.000 L 9.000 7.000 8.000 7.000 L 7.000 7.000 7.000 6.000 L 7.000 5.000 8.000 5.000 L 9.000 5.000 9.000 6.000 M9.000 9.000 L 9.000 10.000 8.000 10.000 L 7.000 10.000 7.000 9.000 L 7.000 8.000 8.000 8.000 L 9.000 8.000 9.000 9.000 M10.984 14.520 L 9.000 17.000 10.500 17.000 L 12.000 17.000 12.000 20.000 L 12.000 23.000 13.000 23.000 L 14.000 23.000 14.000 20.000 L 14.000 17.000 15.500 17.000 L 17.000 17.000 15.016 14.520 C 13.925 13.156,13.018 12.040,13.000 12.040 C 12.982 12.040,12.075 13.156,10.984 14.520 " stroke="none" fill-rule="evenodd" fill="black"></path></svg>