<svg viewBox="0 0 24 24" xmlns="http://www.w3.org/2000/svg"><path d="M12.760 3.991 C 11.539 5.076,10.540 5.981,10.540 6.000 C 10.540 6.019,11.543 6.928,12.770 8.018 L 15.000 10.001 15.000 8.500 L 15.000 7.000 16.000 7.000 L 17.000 7.000 17.000 11.079 L 17.000 15.158 16.786 15.259 C 15.872 15.691,15.258 16.457,15.063 17.408 C 14.822 18.587,15.322 19.800,16.333 20.488 C 16.849 20.840,17.320 20.978,18.000 20.978 C 18.680 20.978,19.151 20.840,19.667 20.488 C 21.238 19.419,21.452 17.221,20.115 15.885 C 19.855 15.626,19.659 15.488,19.284 15.299 L 19.000 15.157 19.000 10.980 C 19.000 8.086,18.986 6.739,18.956 6.592 C 18.797 5.830,18.138 5.181,17.383 5.043 C 17.250 5.019,16.671 5.000,16.073 5.000 L 15.001 5.000 14.990 3.508 L 14.980 2.017 12.760 3.991 M5.600 3.023 C 4.704 3.183,3.988 3.633,3.507 4.339 C 2.478 5.852,3.098 7.998,4.780 8.742 L 5.000 8.839 5.000 11.998 L 5.000 15.158 4.786 15.259 C 3.872 15.691,3.258 16.457,3.063 17.408 C 2.822 18.587,3.322 19.800,4.333 20.488 C 4.849 20.840,5.320 20.978,6.000 20.978 C 6.680 20.978,7.151 20.840,7.667 20.488 C 9.238 19.419,9.452 17.221,8.115 15.885 C 7.855 15.626,7.659 15.488,7.284 15.299 L 7.000 15.157 7.000 12.001 L 7.000 8.846 7.298 8.702 C 7.947 8.390,8.509 7.794,8.778 7.133 C 9.148 6.222,9.036 5.137,8.489 4.333 C 8.091 3.749,7.492 3.315,6.809 3.115 C 6.549 3.039,5.821 2.984,5.600 3.023 " stroke="none" fill-rule="evenodd" fill="black"></path></svg>