<svg viewBox="0 0 24 24" xmlns="http://www.w3.org/2000/svg"><path d="M5.600 3.023 C 4.704 3.183,3.988 3.633,3.507 4.339 C 2.478 5.852,3.098 7.998,4.780 8.742 L 5.000 8.839 5.000 12.001 L 5.000 15.163 4.818 15.241 C 3.932 15.621,3.259 16.451,3.063 17.408 C 2.636 19.494,4.506 21.364,6.592 20.937 C 8.437 20.559,9.490 18.570,8.764 16.837 C 8.618 16.489,8.408 16.179,8.129 15.898 C 7.888 15.657,7.443 15.345,7.237 15.273 C 7.127 15.235,7.118 15.219,7.142 15.105 C 7.176 14.949,7.404 14.487,7.559 14.261 C 7.830 13.868,8.361 13.443,8.826 13.248 C 9.365 13.021,9.297 13.026,12.120 12.999 L 14.740 12.974 15.152 12.867 C 16.310 12.567,17.242 11.962,17.969 11.040 C 18.350 10.558,18.719 9.777,18.863 9.153 L 18.933 8.846 19.157 8.764 C 19.805 8.526,20.483 7.846,20.767 7.150 C 21.229 6.015,20.981 4.754,20.129 3.898 C 19.134 2.900,17.608 2.718,16.424 3.457 C 14.785 4.478,14.516 6.743,15.873 8.105 C 16.112 8.345,16.626 8.705,16.789 8.746 C 16.872 8.767,16.881 8.786,16.858 8.895 C 16.824 9.051,16.596 9.513,16.441 9.739 C 16.180 10.118,15.655 10.549,15.221 10.741 C 14.688 10.977,14.756 10.971,11.940 11.001 C 9.518 11.025,9.315 11.033,8.980 11.109 C 8.323 11.259,7.725 11.511,7.230 11.847 L 7.000 12.003 7.000 10.424 L 7.000 8.846 7.298 8.702 C 7.947 8.390,8.509 7.794,8.778 7.133 C 9.148 6.222,9.036 5.137,8.489 4.333 C 8.091 3.749,7.492 3.315,6.809 3.115 C 6.549 3.039,5.821 2.984,5.600 3.023 " stroke="none" fill-rule="evenodd" fill="black"></path></svg>