<svg viewBox="0 0 24 24" xmlns="http://www.w3.org/2000/svg"><path d="M3.010 2.190 C 3.022 2.294,3.388 6.340,3.823 11.180 C 4.258 16.020,4.617 19.985,4.622 19.991 C 4.626 19.998,6.288 20.452,8.314 21.002 L 11.999 22.001 15.685 21.002 C 17.712 20.453,19.374 19.998,19.378 19.992 C 19.383 19.985,19.742 16.020,20.177 11.180 C 20.612 6.340,20.978 2.294,20.989 2.190 L 21.011 2.000 12.000 2.000 L 2.989 2.000 3.010 2.190 M17.662 5.810 C 17.649 5.881,17.604 6.309,17.560 6.760 C 17.516 7.211,17.469 7.647,17.456 7.730 L 17.433 7.880 13.136 7.880 L 8.840 7.880 8.843 8.070 C 8.844 8.175,8.885 8.683,8.933 9.200 L 9.020 10.140 13.135 10.150 L 17.250 10.160 17.228 10.310 C 17.216 10.393,17.076 11.900,16.917 13.660 C 16.748 15.521,16.609 16.879,16.584 16.904 C 16.539 16.950,12.112 18.162,11.995 18.161 C 11.905 18.160,7.515 16.970,7.440 16.926 C 7.392 16.898,7.347 16.533,7.219 15.146 L 7.059 13.400 8.189 13.400 C 8.811 13.400,9.320 13.413,9.320 13.430 C 9.322 13.537,9.479 15.213,9.489 15.221 C 9.495 15.226,10.063 15.379,10.750 15.561 L 12.000 15.890 13.250 15.561 C 13.938 15.379,14.505 15.226,14.512 15.220 C 14.519 15.214,14.582 14.568,14.654 13.785 L 14.784 12.360 10.872 12.360 C 8.720 12.360,6.960 12.350,6.960 12.337 C 6.960 12.276,6.358 5.959,6.340 5.830 L 6.319 5.680 12.001 5.680 L 17.684 5.680 17.662 5.810 " stroke="none" fill-rule="evenodd" fill="black"></path></svg>