<svg viewBox="0 0 24 24" xmlns="http://www.w3.org/2000/svg"><path d="M3.010 2.190 C 3.022 2.294,3.388 6.340,3.823 11.180 C 4.258 16.020,4.617 19.985,4.622 19.991 C 4.626 19.998,6.288 20.452,8.314 21.002 L 11.999 22.001 15.685 21.002 C 17.712 20.453,19.374 19.998,19.378 19.992 C 19.383 19.985,19.742 16.020,20.177 11.180 C 20.612 6.340,20.978 2.294,20.989 2.190 L 21.011 2.000 12.000 2.000 L 2.989 2.000 3.010 2.190 M18.801 4.030 C 18.802 4.086,17.509 18.420,17.502 18.429 C 17.498 18.434,16.258 18.774,14.747 19.184 L 12.000 19.929 9.253 19.184 C 7.742 18.774,6.502 18.434,6.498 18.429 C 6.490 18.420,5.198 4.087,5.199 4.030 C 5.200 3.991,18.800 3.991,18.801 4.030 M6.337 5.870 C 6.350 5.975,6.487 7.401,6.640 9.040 C 6.794 10.679,6.929 12.097,6.942 12.190 L 6.965 12.360 10.862 12.360 L 14.760 12.360 14.760 12.458 C 14.760 12.572,14.519 15.216,14.508 15.224 C 14.503 15.227,13.938 15.378,13.251 15.559 L 12.002 15.890 10.751 15.560 C 10.063 15.379,9.496 15.228,9.492 15.224 C 9.488 15.221,9.457 14.885,9.423 14.479 C 9.389 14.072,9.350 13.663,9.338 13.570 L 9.315 13.400 8.174 13.400 L 7.034 13.400 7.055 13.510 C 7.067 13.570,7.143 14.358,7.224 15.260 C 7.305 16.162,7.376 16.906,7.382 16.913 C 7.402 16.937,11.929 18.160,12.000 18.160 C 12.071 18.160,16.599 16.937,16.618 16.913 C 16.623 16.906,16.757 15.478,16.916 13.740 C 17.074 12.002,17.215 10.486,17.228 10.370 L 17.251 10.160 13.147 10.160 L 9.044 10.160 9.023 10.030 C 8.996 9.864,8.840 8.113,8.840 7.980 L 8.840 7.880 13.139 7.880 L 17.438 7.880 17.457 7.790 C 17.468 7.740,17.514 7.313,17.559 6.840 C 17.605 6.367,17.652 5.913,17.665 5.830 L 17.687 5.680 12.000 5.680 L 6.312 5.680 6.337 5.870 " stroke="none" fill-rule="evenodd" fill="black"></path></svg>