<svg viewBox="0 0 24 24" xmlns="http://www.w3.org/2000/svg"><path d="M5.503 3.042 C 4.487 3.214,3.556 3.976,3.202 4.925 C 2.994 5.481,3.001 5.233,3.001 11.992 C 3.000 18.878,2.989 18.550,3.234 19.151 C 3.521 19.857,4.143 20.479,4.849 20.766 C 5.449 21.011,5.123 21.000,12.000 21.000 C 18.876 21.000,18.551 21.011,19.150 20.767 C 19.850 20.482,20.482 19.850,20.767 19.150 C 21.011 18.551,21.000 18.876,21.000 12.000 C 21.000 5.123,21.011 5.449,20.766 4.849 C 20.499 4.193,19.964 3.633,19.296 3.312 C 18.639 2.996,19.291 3.023,12.120 3.015 C 8.589 3.012,5.611 3.024,5.503 3.042 M18.340 5.066 C 18.455 5.105,18.603 5.201,18.701 5.299 C 19.023 5.621,19.000 5.097,19.000 12.000 C 19.000 18.903,19.023 18.379,18.701 18.701 C 18.379 19.023,18.903 19.000,12.000 19.000 C 5.097 19.000,5.621 19.023,5.299 18.701 C 4.977 18.379,5.000 18.903,5.000 12.000 C 5.000 5.096,4.976 5.621,5.300 5.298 C 5.614 4.984,5.091 5.007,11.983 5.003 C 17.620 5.000,18.162 5.006,18.340 5.066 M14.861 10.162 C 14.229 10.261,13.603 10.586,13.206 11.021 C 12.846 11.415,12.694 11.863,12.731 12.418 C 12.774 13.045,13.019 13.509,13.500 13.870 C 13.886 14.161,14.298 14.354,15.140 14.641 C 16.252 15.020,16.638 15.263,16.777 15.669 C 16.957 16.199,16.723 16.643,16.166 16.826 C 15.824 16.938,15.118 16.928,14.720 16.805 C 14.351 16.691,13.941 16.488,13.608 16.256 C 13.470 16.159,13.344 16.081,13.328 16.082 C 13.313 16.083,13.114 16.345,12.886 16.665 C 12.494 17.213,12.476 17.248,12.546 17.304 C 13.421 17.993,14.159 18.266,15.260 18.307 C 16.407 18.350,17.127 18.114,17.730 17.496 C 18.265 16.947,18.470 16.187,18.300 15.380 C 18.178 14.802,17.838 14.318,17.330 13.997 C 16.968 13.768,16.740 13.672,15.907 13.395 C 14.615 12.965,14.280 12.731,14.280 12.257 C 14.280 11.980,14.392 11.829,14.711 11.672 C 14.951 11.554,15.019 11.539,15.398 11.526 C 16.017 11.505,16.685 11.676,17.161 11.978 C 17.329 12.084,17.390 12.105,17.425 12.068 C 17.460 12.030,18.001 11.195,18.134 10.971 C 18.175 10.903,17.692 10.594,17.301 10.438 C 16.815 10.243,16.372 10.161,15.700 10.142 C 15.370 10.132,14.993 10.141,14.861 10.162 M9.840 13.051 C 9.840 16.058,9.835 16.145,9.639 16.462 C 9.485 16.711,9.030 16.920,8.641 16.920 C 8.394 16.920,8.019 16.819,7.807 16.694 C 7.711 16.638,7.530 16.487,7.404 16.358 L 7.175 16.123 6.779 16.445 C 6.561 16.623,6.330 16.812,6.266 16.866 L 6.149 16.964 6.299 17.182 C 6.529 17.515,6.919 17.858,7.250 18.015 C 7.746 18.252,7.980 18.298,8.700 18.299 C 9.259 18.300,9.378 18.288,9.640 18.207 C 10.443 17.957,10.962 17.477,11.183 16.781 C 11.342 16.281,11.364 15.773,11.352 12.920 L 11.340 10.260 10.590 10.249 L 9.840 10.238 9.840 13.051 " stroke="none" fill-rule="evenodd" fill="black"></path></svg>