<svg viewBox="0 0 24 24" xmlns="http://www.w3.org/2000/svg"><path d="M5.503 3.042 C 4.487 3.214,3.556 3.976,3.202 4.925 C 2.994 5.481,3.001 5.233,3.001 11.992 C 3.000 18.878,2.989 18.550,3.234 19.151 C 3.521 19.857,4.143 20.479,4.849 20.766 C 5.449 21.011,5.123 21.000,12.000 21.000 C 18.876 21.000,18.551 21.011,19.150 20.767 C 19.850 20.482,20.482 19.850,20.767 19.150 C 21.011 18.551,21.000 18.876,21.000 12.000 C 21.000 5.123,21.011 5.449,20.766 4.849 C 20.499 4.193,19.964 3.633,19.296 3.312 C 18.639 2.996,19.291 3.023,12.120 3.015 C 8.589 3.012,5.611 3.024,5.503 3.042 M16.648 10.237 C 16.839 10.280,17.133 10.371,17.301 10.438 C 17.689 10.593,18.175 10.903,18.134 10.969 C 17.989 11.204,17.429 12.066,17.408 12.088 C 17.392 12.103,17.282 12.053,17.161 11.977 C 16.684 11.676,16.017 11.505,15.398 11.526 C 15.017 11.539,14.951 11.553,14.707 11.673 C 14.559 11.746,14.411 11.847,14.378 11.898 C 14.272 12.059,14.238 12.243,14.282 12.408 C 14.383 12.782,14.771 13.017,15.907 13.395 C 16.741 13.672,16.968 13.768,17.332 13.998 C 17.847 14.323,18.187 14.822,18.302 15.423 C 18.459 16.246,18.259 16.951,17.707 17.517 C 17.123 18.116,16.398 18.350,15.260 18.307 C 14.160 18.266,13.418 17.992,12.547 17.305 C 12.479 17.251,12.501 17.212,12.882 16.683 C 13.106 16.373,13.304 16.110,13.322 16.099 C 13.340 16.088,13.468 16.158,13.607 16.255 C 13.940 16.488,14.350 16.691,14.720 16.805 C 14.959 16.879,15.113 16.898,15.480 16.898 C 16.051 16.899,16.312 16.828,16.571 16.600 C 16.791 16.406,16.858 16.231,16.829 15.921 C 16.777 15.342,16.433 15.082,15.140 14.641 C 13.978 14.246,13.366 13.889,13.059 13.427 C 12.673 12.846,12.617 12.040,12.920 11.440 C 13.235 10.816,14.029 10.290,14.848 10.163 C 15.231 10.104,16.238 10.145,16.648 10.237 M11.311 13.350 C 11.299 16.224,11.293 16.476,11.226 16.676 C 10.958 17.475,10.466 17.950,9.640 18.207 C 9.378 18.288,9.259 18.300,8.700 18.299 C 7.980 18.298,7.746 18.252,7.250 18.015 C 6.915 17.855,6.517 17.504,6.300 17.177 L 6.155 16.959 6.269 16.863 C 6.331 16.811,6.561 16.622,6.780 16.444 L 7.177 16.121 7.408 16.358 C 7.684 16.643,7.898 16.775,8.218 16.858 C 8.864 17.026,9.471 16.811,9.707 16.330 L 9.820 16.100 9.831 13.170 L 9.842 10.240 10.583 10.240 L 11.323 10.240 11.311 13.350 " stroke="none" fill-rule="evenodd" fill="black"></path></svg>