<svg viewBox="0 0 24 24" xmlns="http://www.w3.org/2000/svg"><path d="M5.503 2.042 C 4.667 2.182,3.817 2.773,3.396 3.508 C 3.244 3.772,3.098 4.191,3.041 4.522 C 3.010 4.705,3.000 6.853,3.008 11.940 L 3.020 19.100 3.130 19.452 C 3.511 20.666,4.334 21.489,5.548 21.870 L 5.900 21.980 13.017 21.991 C 21.017 22.003,20.375 22.027,20.700 21.702 C 21.028 21.375,21.000 22.267,21.000 12.000 C 21.000 1.736,21.027 2.625,20.701 2.299 C 20.377 1.975,21.034 1.999,12.923 2.005 C 8.950 2.007,5.611 2.024,5.503 2.042 M19.000 18.500 L 19.000 20.001 12.570 19.990 L 6.140 19.980 5.900 19.868 C 5.584 19.721,5.275 19.413,5.134 19.104 C 5.038 18.895,5.022 18.809,5.022 18.500 C 5.021 18.190,5.037 18.107,5.133 17.900 C 5.324 17.487,5.735 17.141,6.150 17.043 C 6.233 17.024,9.124 17.006,12.650 17.004 L 19.000 17.000 19.000 18.500 " stroke="none" fill-rule="evenodd" fill="black"></path></svg>