<svg viewBox="0 0 24 24" xmlns="http://www.w3.org/2000/svg"><path d="M4.000 4.000 L 4.000 6.000 3.000 6.000 L 2.000 6.000 2.000 7.000 L 2.000 8.000 3.000 8.000 L 4.000 8.000 4.000 9.500 L 4.000 11.000 3.000 11.000 L 2.000 11.000 2.000 12.000 L 2.000 13.000 3.000 13.000 L 4.000 13.000 4.000 14.500 L 4.000 16.000 3.000 16.000 L 2.000 16.000 2.000 17.000 L 2.000 18.000 3.000 18.000 L 4.000 18.000 4.000 20.000 L 4.000 22.000 12.098 22.000 C 17.856 22.000,20.257 21.987,20.408 21.956 C 21.158 21.799,21.799 21.158,21.956 20.408 C 22.018 20.108,22.018 3.892,21.956 3.592 C 21.797 2.830,21.138 2.181,20.383 2.043 C 20.217 2.013,17.698 2.000,12.073 2.000 L 4.000 2.000 4.000 4.000 M8.000 12.000 L 8.000 20.000 7.000 20.000 L 6.000 20.000 6.000 12.000 L 6.000 4.000 7.000 4.000 L 8.000 4.000 8.000 12.000 M20.000 12.000 L 20.000 20.000 15.000 20.000 L 10.000 20.000 10.000 12.000 L 10.000 4.000 15.000 4.000 L 20.000 4.000 20.000 12.000 " stroke="none" fill-rule="evenodd" fill="black"></path></svg>