<svg viewBox="0 0 24 24" xmlns="http://www.w3.org/2000/svg"><path d="M6.433 2.043 C 5.861 2.127,5.225 2.377,4.731 2.712 C 3.956 3.239,3.396 4.034,3.129 4.989 L 3.020 5.380 3.020 12.000 L 3.020 18.620 3.131 19.017 C 3.552 20.526,4.707 21.608,6.226 21.917 C 6.628 21.999,6.716 22.000,13.389 22.000 C 20.976 22.000,20.378 22.024,20.701 21.701 C 21.024 21.378,21.000 21.954,21.000 14.573 L 21.000 8.000 13.902 8.000 C 8.875 8.000,6.742 7.987,6.592 7.956 C 5.795 7.790,5.159 7.116,5.033 6.305 C 4.870 5.254,5.586 4.232,6.617 4.043 C 6.782 4.013,9.020 4.000,13.927 4.000 L 21.000 4.000 21.000 3.427 C 21.000 2.741,20.948 2.546,20.701 2.299 C 20.377 1.975,20.976 1.999,13.403 2.005 C 9.694 2.008,6.558 2.025,6.433 2.043 M6.664 5.063 C 6.436 5.146,6.257 5.297,6.131 5.511 C 6.036 5.672,6.020 5.744,6.020 6.000 C 6.020 6.256,6.036 6.328,6.131 6.489 C 6.192 6.592,6.301 6.723,6.374 6.778 C 6.683 7.013,6.255 7.000,13.425 7.000 L 20.000 7.000 20.000 6.000 L 20.000 5.000 13.410 5.003 C 7.795 5.005,6.797 5.014,6.664 5.063 " stroke="none" fill-rule="evenodd" fill="black"></path></svg>