<svg viewBox="0 0 24 24" xmlns="http://www.w3.org/2000/svg"><path d="M3.000 12.000 L 3.000 22.000 11.098 22.000 C 16.856 22.000,19.257 21.987,19.408 21.956 C 20.158 21.799,20.799 21.158,20.956 20.408 C 21.018 20.108,21.018 3.892,20.956 3.592 C 20.797 2.830,20.138 2.181,19.383 2.043 C 19.217 2.013,16.698 2.000,11.073 2.000 L 3.000 2.000 3.000 12.000 M7.000 12.000 L 7.000 20.000 6.000 20.000 L 5.000 20.000 5.000 12.000 L 5.000 4.000 6.000 4.000 L 7.000 4.000 7.000 12.000 M19.000 12.000 L 19.000 20.000 14.000 20.000 L 9.000 20.000 9.000 12.000 L 9.000 4.000 14.000 4.000 L 19.000 4.000 19.000 12.000 M22.000 8.000 L 22.000 10.000 23.000 10.000 L 24.000 10.000 24.000 8.000 L 24.000 6.000 23.000 6.000 L 22.000 6.000 22.000 8.000 M12.020 10.000 L 10.020 12.000 11.510 12.000 L 13.000 12.000 13.000 14.000 L 13.000 16.000 14.000 16.000 L 15.000 16.000 15.000 14.000 L 15.000 12.001 16.500 11.990 L 18.000 11.980 16.010 9.990 L 14.020 8.000 12.020 10.000 M22.000 14.000 L 22.000 16.000 23.000 16.000 L 24.000 16.000 24.000 14.000 L 24.000 12.000 23.000 12.000 L 22.000 12.000 22.000 14.000 " stroke="none" fill-rule="evenodd" fill="black"></path></svg>