<svg viewBox="0 0 24 24" xmlns="http://www.w3.org/2000/svg"><path d="M3.000 12.000 L 3.000 22.000 5.000 22.000 L 7.000 22.000 7.000 12.000 L 7.000 2.000 5.000 2.000 L 3.000 2.000 3.000 12.000 M9.000 12.000 L 9.000 22.000 14.098 22.000 C 17.665 22.000,19.260 21.987,19.408 21.956 C 20.158 21.799,20.799 21.158,20.956 20.408 C 21.018 20.108,21.018 3.892,20.956 3.592 C 20.797 2.830,20.138 2.181,19.383 2.043 C 19.220 2.014,17.543 2.000,14.073 2.000 L 9.000 2.000 9.000 12.000 M22.000 8.000 L 22.000 10.000 23.000 10.000 L 24.000 10.000 24.000 8.000 L 24.000 6.000 23.000 6.000 L 22.000 6.000 22.000 8.000 M17.500 11.990 L 16.000 12.001 16.000 14.000 L 16.000 16.000 15.000 16.000 L 14.000 16.000 14.000 14.000 L 14.000 12.000 12.510 12.000 L 11.020 12.000 13.020 10.000 L 15.020 8.000 17.010 9.990 L 19.000 11.980 17.500 11.990 M22.000 14.000 L 22.000 16.000 23.000 16.000 L 24.000 16.000 24.000 14.000 L 24.000 12.000 23.000 12.000 L 22.000 12.000 22.000 14.000 " stroke="none" fill-rule="evenodd" fill="black"></path></svg>