<svg viewBox="0 0 24 24" xmlns="http://www.w3.org/2000/svg"><path d="M3.000 12.000 L 3.000 22.000 11.098 22.000 C 16.856 22.000,19.257 21.987,19.408 21.956 C 20.158 21.799,20.799 21.158,20.956 20.408 C 21.018 20.108,21.018 3.892,20.956 3.592 C 20.797 2.830,20.138 2.181,19.383 2.043 C 19.217 2.013,16.698 2.000,11.073 2.000 L 3.000 2.000 3.000 12.000 M7.000 12.000 L 7.000 20.000 6.000 20.000 L 5.000 20.000 5.000 12.000 L 5.000 4.000 6.000 4.000 L 7.000 4.000 7.000 12.000 M19.000 12.000 L 19.000 20.000 14.000 20.000 L 9.000 20.000 9.000 12.000 L 9.000 4.000 14.000 4.000 L 19.000 4.000 19.000 12.000 M22.000 8.000 L 22.000 10.000 23.000 10.000 L 24.000 10.000 24.000 8.000 L 24.000 6.000 23.000 6.000 L 22.000 6.000 22.000 8.000 M13.580 8.047 C 12.859 8.185,12.199 8.848,12.044 9.592 C 11.789 10.816,12.751 12.000,14.000 12.000 C 15.080 12.000,16.000 11.080,16.000 10.000 C 16.000 9.477,15.790 8.983,15.404 8.596 C 14.913 8.106,14.277 7.914,13.580 8.047 M22.000 14.000 L 22.000 16.000 23.000 16.000 L 24.000 16.000 24.000 14.000 L 24.000 12.000 23.000 12.000 L 22.000 12.000 22.000 14.000 M13.503 13.040 C 12.471 13.227,11.556 13.976,11.202 14.925 C 11.099 15.201,11.002 15.648,11.001 15.850 L 11.000 16.000 14.000 16.000 L 17.000 16.000 17.000 15.858 C 17.000 15.634,16.887 15.145,16.766 14.849 C 16.433 14.030,15.641 13.339,14.756 13.097 C 14.491 13.024,13.770 12.991,13.503 13.040 " stroke="none" fill-rule="evenodd" fill="black"></path></svg>