<svg viewBox="0 0 24 24" xmlns="http://www.w3.org/2000/svg"><path d="M3.664 2.063 C 3.436 2.146,3.257 2.297,3.131 2.511 L 3.020 2.700 3.020 12.000 L 3.020 21.300 3.131 21.489 C 3.192 21.592,3.301 21.723,3.374 21.778 C 3.684 22.015,3.106 22.000,11.998 22.000 C 21.144 22.000,20.376 22.026,20.701 21.701 C 21.011 21.391,21.000 21.520,21.000 18.203 L 21.000 15.260 18.630 17.630 L 16.260 20.000 14.130 20.000 L 12.000 20.000 12.000 17.870 L 12.000 15.740 16.500 11.240 L 21.000 6.740 21.000 4.797 C 21.000 2.596,21.000 2.598,20.701 2.299 C 20.376 1.973,21.147 2.000,11.983 2.003 C 5.003 2.005,3.797 2.014,3.664 2.063 M15.000 9.000 L 15.000 10.000 11.000 10.000 L 7.000 10.000 7.000 9.000 L 7.000 8.000 11.000 8.000 L 15.000 8.000 15.000 9.000 M17.890 12.690 L 14.000 16.580 14.000 17.290 L 14.000 18.000 14.710 18.000 L 15.420 18.000 19.310 14.110 L 23.200 10.220 22.490 9.510 L 21.780 8.800 17.890 12.690 M12.000 13.000 L 12.000 14.000 9.500 14.000 L 7.000 14.000 7.000 13.000 L 7.000 12.000 9.500 12.000 L 12.000 12.000 12.000 13.000 " stroke="none" fill-rule="evenodd" fill="black"></path></svg>