<svg viewBox="0 0 24 24" xmlns="http://www.w3.org/2000/svg"><path d="M3.670 2.057 C 3.449 2.136,3.256 2.298,3.131 2.511 L 3.020 2.700 3.020 12.000 L 3.020 21.300 3.131 21.489 C 3.256 21.702,3.449 21.864,3.670 21.943 C 3.893 22.022,20.107 22.022,20.330 21.943 C 20.551 21.864,20.744 21.702,20.869 21.489 L 20.980 21.300 20.990 14.141 L 21.001 6.981 18.511 4.491 L 16.020 2.000 9.920 2.002 C 4.929 2.003,3.793 2.013,3.670 2.057 M12.592 6.581 C 13.482 6.790,14.210 7.519,14.420 8.410 C 14.547 8.948,14.475 9.605,14.237 10.095 C 13.810 10.969,12.981 11.485,12.000 11.485 C 11.019 11.485,10.190 10.969,9.763 10.095 C 9.437 9.424,9.436 8.566,9.763 7.908 C 10.095 7.238,10.693 6.752,11.392 6.582 C 11.697 6.508,12.281 6.507,12.592 6.581 M12.680 13.058 C 14.143 13.280,15.388 14.197,16.041 15.535 C 16.221 15.902,16.391 16.446,16.452 16.850 L 16.475 17.000 12.000 17.000 L 7.525 17.000 7.548 16.850 C 7.609 16.446,7.779 15.902,7.959 15.535 C 8.828 13.755,10.722 12.761,12.680 13.058 " stroke="none" fill-rule="evenodd" fill="black"></path></svg>