<svg viewBox="0 0 24 24" xmlns="http://www.w3.org/2000/svg"><path d="M3.670 2.057 C 3.449 2.136,3.256 2.298,3.131 2.511 L 3.020 2.700 3.020 12.000 L 3.020 21.300 3.131 21.489 C 3.256 21.702,3.449 21.864,3.670 21.943 C 3.893 22.022,20.107 22.022,20.330 21.943 C 20.551 21.864,20.744 21.702,20.869 21.489 L 20.980 21.300 20.990 14.141 L 21.001 6.981 18.511 4.491 L 16.020 2.000 9.920 2.002 C 4.929 2.003,3.793 2.013,3.670 2.057 M11.184 9.120 C 11.607 9.725,11.975 10.220,12.000 10.220 C 12.025 10.220,12.393 9.725,12.816 9.120 L 13.587 8.020 14.797 8.009 L 16.008 7.999 15.870 8.189 C 15.794 8.294,15.162 9.195,14.465 10.190 L 13.199 12.000 14.465 13.810 C 15.162 14.806,15.794 15.706,15.870 15.811 L 16.008 16.001 14.797 15.991 L 13.587 15.980 12.816 14.880 C 12.393 14.275,12.025 13.780,12.000 13.780 C 11.975 13.780,11.607 14.275,11.184 14.880 L 10.413 15.980 9.203 15.991 L 7.992 16.001 8.130 15.811 C 8.206 15.706,8.838 14.806,9.535 13.810 L 10.801 12.000 9.535 10.190 C 8.838 9.195,8.206 8.294,8.130 8.189 L 7.992 7.999 9.203 8.009 L 10.413 8.020 11.184 9.120 " stroke="none" fill-rule="evenodd" fill="black"></path></svg>