<svg viewBox="0 0 24 24" xmlns="http://www.w3.org/2000/svg"><path d="M3.670 2.057 C 3.449 2.136,3.256 2.298,3.131 2.511 L 3.020 2.700 3.010 11.914 C 3.003 18.175,3.013 21.178,3.041 21.283 C 3.102 21.509,3.313 21.761,3.539 21.878 L 3.738 21.980 8.869 21.990 L 14.000 22.001 14.000 18.500 L 14.000 15.000 17.500 15.000 L 21.000 15.000 21.000 8.927 C 21.000 2.106,21.023 2.621,20.701 2.299 C 20.376 1.974,21.146 2.000,11.983 2.002 C 5.268 2.003,3.793 2.013,3.670 2.057 M16.000 19.490 L 16.000 21.980 18.480 19.500 C 19.844 18.136,20.960 17.016,20.960 17.010 C 20.960 17.005,19.844 17.000,18.480 17.000 L 16.000 17.000 16.000 19.490 " stroke="none" fill-rule="evenodd" fill="black"></path></svg>