<svg viewBox="0 0 24 24" xmlns="http://www.w3.org/2000/svg"><path d="M3.670 2.057 C 3.449 2.136,3.256 2.298,3.131 2.511 L 3.020 2.700 3.020 12.000 L 3.020 21.300 3.131 21.489 C 3.256 21.702,3.449 21.864,3.670 21.943 C 3.893 22.022,20.107 22.022,20.330 21.943 C 20.551 21.864,20.744 21.702,20.869 21.489 L 20.980 21.300 20.990 14.141 L 21.001 6.981 18.511 4.491 L 16.020 2.000 9.920 2.002 C 4.929 2.003,3.793 2.013,3.670 2.057 M12.000 10.000 L 12.000 12.000 14.006 12.000 L 16.011 12.000 15.984 12.310 C 15.924 12.994,15.671 13.704,15.288 14.269 C 14.760 15.046,13.946 15.617,13.005 15.871 C 12.669 15.962,12.542 15.975,12.000 15.975 C 11.458 15.975,11.331 15.962,10.995 15.871 C 10.054 15.617,9.240 15.046,8.712 14.269 C 8.471 13.913,8.214 13.341,8.113 12.938 C 7.987 12.429,7.987 11.571,8.113 11.062 C 8.284 10.376,8.679 9.675,9.177 9.177 C 9.872 8.482,10.891 8.032,11.830 8.005 L 12.000 8.000 12.000 10.000 " stroke="none" fill-rule="evenodd" fill="black"></path></svg>