<svg viewBox="0 0 24 24" xmlns="http://www.w3.org/2000/svg"><path d="M3.670 2.057 C 3.449 2.136,3.256 2.298,3.131 2.511 L 3.020 2.700 3.020 12.000 L 3.020 21.300 3.131 21.489 C 3.256 21.702,3.449 21.864,3.670 21.943 C 3.793 21.987,5.268 21.997,11.983 21.998 C 21.146 22.000,20.376 22.026,20.701 21.701 C 21.025 21.377,21.000 22.016,21.000 14.063 L 21.000 6.980 18.510 4.490 L 16.020 2.000 9.920 2.002 C 4.929 2.003,3.793 2.013,3.670 2.057 M15.000 6.000 L 15.000 8.000 14.500 8.000 L 14.000 8.000 14.000 10.490 L 14.000 12.980 13.010 11.990 L 12.020 11.000 11.010 12.010 L 10.000 13.019 10.000 10.510 L 10.000 8.000 9.000 8.000 L 8.000 8.000 8.000 12.000 L 8.000 16.000 9.010 16.000 L 10.021 16.000 11.020 15.000 L 12.019 14.000 13.020 15.000 L 14.021 16.000 15.010 16.000 L 16.000 16.000 16.000 12.000 L 16.000 8.000 17.500 8.000 L 19.000 8.000 19.000 14.000 L 19.000 20.000 12.000 20.000 L 5.000 20.000 5.000 12.000 L 5.000 4.000 10.000 4.000 L 15.000 4.000 15.000 6.000 " stroke="none" fill-rule="evenodd" fill="black"></path></svg>