<svg viewBox="0 0 24 24" xmlns="http://www.w3.org/2000/svg"><path d="M3.664 2.063 C 3.436 2.146,3.257 2.297,3.131 2.511 L 3.020 2.700 3.020 12.000 L 3.020 21.300 3.131 21.489 C 3.256 21.702,3.449 21.864,3.670 21.943 C 3.793 21.987,5.268 21.997,11.983 21.998 C 21.146 22.000,20.376 22.026,20.701 21.701 C 21.023 21.379,21.000 21.894,21.000 15.073 L 21.000 9.000 17.927 9.000 C 14.464 9.000,14.610 9.012,14.299 8.701 C 13.988 8.390,14.000 8.536,14.000 5.073 L 14.000 2.000 8.910 2.003 C 4.597 2.005,3.796 2.014,3.664 2.063 M16.000 4.520 L 16.000 7.000 18.490 7.000 L 20.980 7.000 18.500 4.520 C 17.136 3.156,16.016 2.040,16.010 2.040 C 16.005 2.040,16.000 3.156,16.000 4.520 " stroke="none" fill-rule="evenodd" fill="black"></path></svg>