<svg viewBox="0 0 24 24" xmlns="http://www.w3.org/2000/svg"><path d="M3.670 2.057 C 3.449 2.136,3.256 2.298,3.131 2.511 L 3.020 2.700 3.020 12.000 L 3.020 21.300 3.133 21.492 C 3.260 21.709,3.502 21.901,3.721 21.960 C 3.817 21.986,5.353 21.997,8.054 21.990 L 12.238 21.980 12.077 21.726 C 11.114 20.202,10.773 18.261,11.162 16.511 C 11.358 15.629,11.794 14.645,12.310 13.921 C 12.658 13.431,13.436 12.653,13.920 12.310 C 14.392 11.974,15.285 11.521,15.795 11.357 C 17.395 10.844,19.131 10.901,20.623 11.515 L 21.000 11.670 21.000 9.325 L 21.000 6.980 18.510 4.490 L 16.020 2.000 9.920 2.002 C 4.929 2.003,3.793 2.013,3.670 2.057 M17.340 13.046 C 16.849 13.108,16.317 13.273,15.820 13.517 C 14.374 14.226,13.390 15.510,13.075 17.100 C 13.002 17.468,13.002 18.532,13.075 18.900 C 13.436 20.723,14.727 22.191,16.461 22.753 C 17.027 22.936,17.324 22.980,18.000 22.980 C 18.675 22.980,18.973 22.936,19.535 22.754 C 21.057 22.261,22.260 21.059,22.753 19.539 C 22.940 18.961,22.980 18.680,22.978 17.960 C 22.976 17.381,22.963 17.247,22.869 16.869 C 22.678 16.104,22.374 15.473,21.926 14.912 C 20.822 13.527,19.090 12.823,17.340 13.046 M18.700 15.081 C 18.788 15.105,18.956 15.162,19.074 15.208 L 19.287 15.292 17.294 17.286 L 15.301 19.279 15.234 19.148 C 15.093 18.873,15.025 18.512,15.023 18.020 C 15.019 17.342,15.144 16.907,15.498 16.358 C 15.899 15.738,16.635 15.225,17.322 15.085 C 17.442 15.061,17.576 15.032,17.620 15.022 C 17.752 14.992,18.528 15.034,18.700 15.081 M20.904 17.242 C 20.993 17.566,21.004 18.362,20.925 18.680 C 20.567 20.109,19.275 21.076,17.841 20.987 C 17.459 20.963,17.143 20.896,16.858 20.777 L 16.707 20.713 18.703 18.717 L 20.699 16.721 20.766 16.852 C 20.803 16.925,20.865 17.100,20.904 17.242 " stroke="none" fill-rule="evenodd" fill="black"></path></svg>