<svg viewBox="0 0 24 24" xmlns="http://www.w3.org/2000/svg"><path d="M3.664 2.063 C 3.436 2.146,3.257 2.297,3.131 2.511 L 3.020 2.700 3.010 11.914 C 3.003 18.175,3.013 21.178,3.041 21.283 C 3.102 21.509,3.313 21.761,3.539 21.878 L 3.738 21.980 9.358 21.990 L 14.979 22.001 17.989 18.991 L 21.000 15.980 21.000 9.417 C 21.000 2.047,21.024 2.622,20.701 2.299 C 20.376 1.973,21.147 2.000,11.983 2.003 C 5.003 2.005,3.797 2.014,3.664 2.063 M19.000 9.500 L 19.000 15.000 16.500 15.000 L 14.000 15.000 14.000 17.500 L 14.000 20.000 9.500 20.000 L 5.000 20.000 5.000 12.000 L 5.000 4.000 12.000 4.000 L 19.000 4.000 19.000 9.500 " stroke="none" fill-rule="evenodd" fill="black"></path></svg>