<svg viewBox="0 0 24 24" xmlns="http://www.w3.org/2000/svg"><path d="M3.670 2.057 C 3.449 2.136,3.256 2.298,3.131 2.511 L 3.020 2.700 3.020 12.000 L 3.020 21.300 3.131 21.489 C 3.256 21.702,3.449 21.864,3.670 21.943 C 3.893 22.022,20.107 22.022,20.330 21.943 C 20.551 21.864,20.744 21.702,20.869 21.489 L 20.980 21.300 20.990 14.141 L 21.001 6.981 18.511 4.491 L 16.020 2.000 9.920 2.002 C 4.929 2.003,3.793 2.013,3.670 2.057 M12.958 8.114 C 13.640 8.293,14.335 8.689,14.823 9.177 C 15.321 9.675,15.716 10.376,15.887 11.062 C 16.013 11.571,16.013 12.429,15.887 12.938 C 15.531 14.368,14.440 15.480,13.005 15.873 L 12.620 15.978 10.310 15.991 L 8.000 16.004 8.000 11.999 L 8.000 7.995 10.310 8.010 C 12.543 8.025,12.631 8.028,12.958 8.114 M10.000 12.000 L 10.000 14.000 11.098 14.000 C 11.745 14.000,12.283 13.982,12.408 13.956 C 13.310 13.768,14.000 12.920,14.000 12.000 C 14.000 11.068,13.290 10.209,12.383 10.043 C 12.250 10.019,11.670 10.000,11.073 10.000 L 10.000 10.000 10.000 12.000 " stroke="none" fill-rule="evenodd" fill="black"></path></svg>