<svg viewBox="0 0 24 24" xmlns="http://www.w3.org/2000/svg"><path d="M3.664 2.063 C 3.436 2.146,3.257 2.297,3.131 2.511 L 3.020 2.700 3.020 12.000 L 3.020 21.300 3.131 21.489 C 3.192 21.592,3.301 21.723,3.374 21.778 C 3.684 22.015,3.106 22.000,11.998 22.000 C 21.144 22.000,20.376 22.026,20.701 21.701 C 21.027 21.375,21.000 22.264,21.000 12.000 C 21.000 1.736,21.027 2.625,20.701 2.299 C 20.376 1.973,21.147 2.000,11.983 2.003 C 5.003 2.005,3.797 2.014,3.664 2.063 M7.010 8.494 L 7.020 12.989 8.756 11.997 L 10.492 11.005 10.636 11.080 C 10.715 11.122,11.500 11.568,12.380 12.072 L 13.980 12.989 13.990 8.494 L 14.000 4.000 16.500 4.000 L 19.000 4.000 19.000 12.000 L 19.000 20.000 12.000 20.000 L 5.000 20.000 5.000 12.000 L 5.000 4.000 6.000 4.000 L 7.000 4.000 7.010 8.494 " stroke="none" fill-rule="evenodd" fill="black"></path></svg>