<svg viewBox="0 0 24 24" xmlns="http://www.w3.org/2000/svg"><path d="M3.689 2.059 C 3.454 2.132,3.263 2.287,3.131 2.511 L 3.020 2.700 3.010 11.914 C 3.003 17.998,3.013 21.180,3.040 21.278 C 3.099 21.498,3.291 21.739,3.508 21.867 L 3.700 21.980 8.660 21.990 L 13.620 22.000 12.760 21.432 C 12.035 20.953,11.832 20.797,11.466 20.432 L 11.031 20.000 8.016 20.000 L 5.000 20.000 5.000 12.000 L 5.000 4.000 9.500 4.000 L 14.000 4.000 14.000 6.500 L 14.000 9.000 17.500 9.000 L 21.000 9.000 21.000 8.510 L 21.000 8.020 17.990 5.010 L 14.980 2.000 9.420 2.003 C 4.899 2.005,3.828 2.015,3.689 2.059 M12.000 14.117 C 12.000 16.748,12.009 17.280,12.061 17.523 C 12.184 18.110,12.435 18.582,12.842 18.995 C 13.042 19.198,13.500 19.522,14.791 20.374 C 15.720 20.987,16.502 21.480,16.530 21.469 C 16.632 21.430,19.812 19.314,19.986 19.169 C 20.202 18.990,20.554 18.536,20.691 18.260 C 20.746 18.150,20.833 17.934,20.885 17.780 L 20.980 17.500 20.991 14.250 L 21.003 11.000 16.501 11.000 L 12.000 11.000 12.000 14.117 M18.991 15.113 L 18.980 17.226 18.860 17.423 C 18.753 17.598,18.618 17.701,17.640 18.350 C 17.035 18.751,16.522 19.080,16.500 19.080 C 16.478 19.080,15.965 18.751,15.360 18.350 C 14.382 17.701,14.247 17.598,14.140 17.423 L 14.020 17.226 14.009 15.113 L 13.997 13.000 16.500 13.000 L 19.003 13.000 18.991 15.113 " stroke="none" fill-rule="evenodd" fill="black"></path></svg>