<svg viewBox="0 0 24 24" xmlns="http://www.w3.org/2000/svg"><path d="M3.670 2.057 C 3.449 2.136,3.256 2.298,3.131 2.511 L 3.020 2.700 3.020 12.000 L 3.020 21.300 3.131 21.489 C 3.256 21.702,3.449 21.864,3.670 21.943 C 3.893 22.022,20.107 22.022,20.330 21.943 C 20.551 21.864,20.744 21.702,20.869 21.489 L 20.980 21.300 20.990 14.141 L 21.001 6.981 18.511 4.491 L 16.020 2.000 9.920 2.002 C 4.929 2.003,3.793 2.013,3.670 2.057 M10.600 9.180 L 11.299 9.880 10.240 10.940 L 9.181 12.000 10.240 13.060 L 11.300 14.120 10.590 14.830 L 9.880 15.540 8.110 13.770 L 6.340 12.000 8.100 10.240 C 9.068 9.272,9.869 8.480,9.880 8.480 C 9.892 8.480,10.216 8.795,10.600 9.180 M15.900 10.240 L 17.660 12.000 15.890 13.770 L 14.120 15.540 13.410 14.830 L 12.700 14.120 13.760 13.060 L 14.819 12.000 13.760 10.940 L 12.701 9.880 13.400 9.180 C 13.784 8.795,14.108 8.480,14.120 8.480 C 14.131 8.480,14.932 9.272,15.900 10.240 " stroke="none" fill-rule="evenodd" fill="black"></path></svg>