<svg viewBox="0 0 24 24" xmlns="http://www.w3.org/2000/svg"><path d="M3.670 2.057 C 3.449 2.136,3.256 2.298,3.131 2.511 L 3.020 2.700 3.020 12.000 L 3.020 21.300 3.131 21.489 C 3.256 21.702,3.449 21.864,3.670 21.943 C 3.893 22.022,20.107 22.022,20.330 21.943 C 20.551 21.864,20.744 21.702,20.869 21.489 L 20.980 21.300 20.990 14.141 L 21.001 6.981 18.511 4.491 L 16.020 2.000 9.920 2.002 C 4.929 2.003,3.793 2.013,3.670 2.057 M12.900 6.619 C 13.276 6.722,13.914 7.052,14.207 7.295 C 16.238 8.981,15.745 12.261,13.313 13.237 L 13.020 13.355 13.008 13.677 L 12.997 14.000 11.996 14.000 L 10.995 14.000 11.007 13.110 C 11.019 12.288,11.027 12.208,11.106 12.060 C 11.296 11.708,11.529 11.568,12.036 11.502 C 12.550 11.436,12.801 11.316,13.094 11.000 C 13.377 10.694,13.488 10.411,13.489 10.000 C 13.489 9.365,13.092 8.796,12.507 8.594 C 12.234 8.500,11.766 8.500,11.493 8.594 C 11.097 8.731,10.713 9.119,10.582 9.515 L 10.517 9.708 9.749 9.554 C 9.326 9.470,8.887 9.381,8.773 9.358 L 8.566 9.316 8.645 9.030 C 8.981 7.819,10.026 6.846,11.280 6.578 C 11.625 6.505,12.569 6.528,12.900 6.619 M13.000 16.000 L 13.000 17.000 12.000 17.000 L 11.000 17.000 11.000 16.000 L 11.000 15.000 12.000 15.000 L 13.000 15.000 13.000 16.000 " stroke="none" fill-rule="evenodd" fill="black"></path></svg>