<svg viewBox="0 0 24 24" xmlns="http://www.w3.org/2000/svg"><path d="M3.689 2.059 C 3.454 2.132,3.263 2.287,3.131 2.511 L 3.020 2.700 3.020 12.000 L 3.020 21.300 3.131 21.489 C 3.256 21.702,3.449 21.864,3.670 21.943 C 3.793 21.987,5.268 21.997,11.983 21.998 C 21.146 22.000,20.376 22.026,20.701 21.701 C 21.024 21.378,21.000 21.953,21.000 14.583 L 21.000 8.020 17.990 5.010 L 14.980 2.000 9.420 2.003 C 4.899 2.005,3.828 2.015,3.689 2.059 M14.000 6.500 L 14.000 9.000 16.500 9.000 L 19.000 9.000 19.000 14.500 L 19.000 20.000 12.000 20.000 L 5.000 20.000 5.000 12.000 L 5.000 4.000 9.500 4.000 L 14.000 4.000 14.000 6.500 M8.000 8.000 L 8.000 9.000 9.500 9.000 L 11.000 9.000 11.000 8.000 L 11.000 7.000 9.500 7.000 L 8.000 7.000 8.000 8.000 M8.000 12.000 L 8.000 13.000 12.000 13.000 L 16.000 13.000 16.000 12.000 L 16.000 11.000 12.000 11.000 L 8.000 11.000 8.000 12.000 M8.000 16.000 L 8.000 17.000 12.000 17.000 L 16.000 17.000 16.000 16.000 L 16.000 15.000 12.000 15.000 L 8.000 15.000 8.000 16.000 " stroke="none" fill-rule="evenodd" fill="black"></path></svg>