<svg viewBox="0 0 24 24" xmlns="http://www.w3.org/2000/svg"><path d="M2.664 3.063 C 2.436 3.146,2.257 3.297,2.131 3.511 L 2.020 3.700 2.020 12.000 L 2.020 20.300 2.131 20.489 C 2.260 20.709,2.437 20.854,2.678 20.939 C 2.830 20.993,3.916 21.000,11.998 21.000 C 22.265 21.000,21.375 21.027,21.701 20.701 C 22.025 20.377,22.000 21.023,22.000 13.000 C 22.000 4.977,22.025 5.623,21.701 5.299 C 21.384 4.981,21.689 5.000,16.783 5.000 L 12.419 5.000 11.420 4.000 L 10.421 3.000 6.620 3.003 C 3.427 3.005,2.795 3.015,2.664 3.063 M13.000 9.084 C 13.000 9.626,13.003 9.648,13.085 9.670 C 13.284 9.722,13.880 10.043,14.132 10.234 C 14.282 10.347,14.410 10.440,14.417 10.440 C 14.424 10.440,14.632 10.322,14.880 10.178 C 15.128 10.034,15.345 9.913,15.364 9.908 C 15.397 9.900,16.360 11.535,16.360 11.600 C 16.360 11.618,16.145 11.756,15.882 11.907 L 15.404 12.180 15.432 12.340 C 15.469 12.551,15.468 13.411,15.431 13.640 L 15.401 13.820 15.881 14.092 C 16.144 14.242,16.360 14.380,16.360 14.399 C 16.360 14.425,15.420 16.074,15.386 16.106 C 15.383 16.110,15.236 16.027,15.060 15.924 C 14.884 15.820,14.666 15.693,14.575 15.643 L 14.409 15.551 14.140 15.757 C 13.860 15.971,13.615 16.109,13.240 16.263 L 13.020 16.352 13.000 16.926 L 12.980 17.500 11.991 17.511 L 11.002 17.521 10.991 16.938 L 10.980 16.354 10.700 16.245 C 10.404 16.129,10.049 15.919,9.773 15.695 C 9.682 15.621,9.595 15.560,9.580 15.560 C 9.566 15.560,9.340 15.685,9.079 15.838 L 8.603 16.115 8.104 15.249 L 7.605 14.383 8.013 14.147 C 8.650 13.778,8.595 13.830,8.557 13.632 C 8.538 13.538,8.523 13.253,8.523 13.000 C 8.523 12.747,8.538 12.462,8.557 12.368 C 8.595 12.170,8.650 12.222,8.011 11.852 L 7.602 11.615 8.004 10.917 C 8.225 10.534,8.450 10.144,8.504 10.052 L 8.601 9.884 9.078 10.162 C 9.340 10.315,9.570 10.440,9.591 10.440 C 9.611 10.440,9.659 10.405,9.697 10.363 C 9.833 10.213,10.344 9.900,10.660 9.772 L 10.980 9.643 10.991 9.082 L 11.002 8.520 12.001 8.520 L 13.000 8.520 13.000 9.084 M11.384 11.617 C 10.936 11.805,10.652 12.115,10.515 12.567 C 10.248 13.445,10.829 14.353,11.737 14.476 C 12.392 14.565,13.029 14.211,13.313 13.600 C 13.400 13.414,13.416 13.322,13.417 13.000 C 13.418 12.652,13.408 12.598,13.290 12.356 C 13.143 12.054,12.907 11.817,12.594 11.655 C 12.414 11.562,12.320 11.543,12.000 11.531 C 11.667 11.519,11.591 11.530,11.384 11.617 " stroke="none" fill-rule="evenodd" fill="black"></path></svg>