<svg viewBox="0 0 24 24" xmlns="http://www.w3.org/2000/svg"><path d="M2.664 3.063 C 2.436 3.146,2.257 3.297,2.131 3.511 L 2.020 3.700 2.020 12.000 L 2.020 20.300 2.131 20.489 C 2.260 20.709,2.437 20.854,2.678 20.939 C 2.830 20.993,3.916 21.000,11.998 21.000 C 22.265 21.000,21.375 21.027,21.701 20.701 C 22.025 20.377,22.000 21.023,22.000 13.000 C 22.000 4.977,22.025 5.623,21.701 5.299 C 21.384 4.981,21.689 5.000,16.783 5.000 L 12.419 5.000 11.420 4.000 L 10.421 3.000 6.620 3.003 C 3.427 3.005,2.795 3.015,2.664 3.063 M10.580 6.000 L 11.579 7.000 15.790 7.000 L 20.000 7.000 20.000 13.000 L 20.000 19.000 12.000 19.000 L 4.000 19.000 4.000 12.000 L 4.000 5.000 6.790 5.000 L 9.581 5.000 10.580 6.000 M11.433 9.043 C 10.861 9.127,10.225 9.377,9.731 9.712 C 8.955 10.240,8.394 11.037,8.130 11.989 C 8.034 12.337,8.022 12.449,8.022 13.000 C 8.022 13.553,8.034 13.663,8.132 14.017 C 8.475 15.256,9.357 16.252,10.520 16.715 C 11.882 17.257,13.450 17.001,14.580 16.052 C 15.370 15.389,15.907 14.343,15.988 13.310 L 16.012 13.000 14.006 13.000 L 12.000 13.000 12.000 11.000 L 12.000 9.000 11.830 9.005 C 11.737 9.008,11.558 9.025,11.433 9.043 " stroke="none" fill-rule="evenodd" fill="black"></path></svg>