<svg viewBox="0 0 24 24" xmlns="http://www.w3.org/2000/svg"><path d="M2.664 3.063 C 2.436 3.146,2.257 3.297,2.131 3.511 L 2.020 3.700 2.020 12.000 L 2.020 20.300 2.133 20.492 C 2.265 20.716,2.487 20.890,2.728 20.956 C 2.858 20.991,4.928 21.000,11.200 20.991 C 19.206 20.980,19.505 20.977,19.640 20.906 C 19.816 20.812,20.030 20.612,20.102 20.474 C 20.151 20.380,22.480 11.141,22.480 11.040 C 22.480 11.013,19.660 11.000,13.990 11.000 L 5.499 11.000 4.753 13.970 L 4.007 16.940 4.004 10.970 L 4.000 5.000 6.790 5.000 L 9.581 5.000 10.580 6.000 L 11.579 7.000 15.290 7.000 L 19.000 7.000 19.000 8.000 L 19.000 9.000 20.000 9.000 L 21.000 9.000 21.000 7.427 C 21.000 5.638,20.994 5.591,20.701 5.299 C 20.386 4.984,20.629 5.000,16.283 5.000 L 12.419 5.000 11.420 4.000 L 10.421 3.000 6.620 3.003 C 3.427 3.005,2.795 3.015,2.664 3.063 M19.920 13.040 C 19.920 13.073,18.613 18.336,18.477 18.850 L 18.437 19.000 11.994 19.000 C 6.857 19.000,5.555 18.990,5.569 18.950 C 5.579 18.922,5.919 17.573,6.323 15.950 L 7.059 13.000 13.490 13.000 C 17.796 13.000,19.920 13.013,19.920 13.040 " stroke="none" fill-rule="evenodd" fill="black"></path></svg>