<svg viewBox="0 0 24 24" xmlns="http://www.w3.org/2000/svg"><path d="M2.664 3.063 C 2.436 3.146,2.257 3.297,2.131 3.511 L 2.020 3.700 2.020 12.000 L 2.020 20.300 2.131 20.489 C 2.260 20.709,2.437 20.854,2.678 20.939 C 2.830 20.993,3.916 21.000,11.998 21.000 C 22.265 21.000,21.375 21.027,21.701 20.701 C 22.025 20.377,22.000 21.023,22.000 13.000 C 22.000 4.977,22.025 5.623,21.701 5.299 C 21.384 4.981,21.689 5.000,16.783 5.000 L 12.419 5.000 11.420 4.000 L 10.421 3.000 6.620 3.003 C 3.427 3.005,2.795 3.015,2.664 3.063 M10.580 6.000 L 11.579 7.000 15.790 7.000 L 20.000 7.000 20.000 13.000 L 20.000 19.000 12.000 19.000 L 4.000 19.000 4.000 12.000 L 4.000 5.000 6.790 5.000 L 9.581 5.000 10.580 6.000 M11.540 8.028 C 10.699 8.139,9.784 8.659,9.260 9.326 C 8.900 9.782,8.471 10.774,8.613 10.820 C 8.800 10.882,10.501 11.194,10.521 11.170 C 10.535 11.154,10.578 11.056,10.616 10.953 C 10.878 10.239,11.688 9.846,12.425 10.075 C 12.901 10.222,13.228 10.530,13.402 10.994 C 13.533 11.343,13.503 11.814,13.329 12.169 C 13.175 12.480,12.924 12.723,12.600 12.873 C 12.397 12.968,12.328 12.977,11.690 12.992 L 11.000 13.008 11.000 14.004 L 11.000 15.000 11.656 15.000 C 12.376 15.000,12.798 14.940,13.236 14.776 C 14.704 14.224,15.662 12.667,15.479 11.129 C 15.291 9.558,14.141 8.326,12.614 8.060 C 12.295 8.004,11.825 7.990,11.540 8.028 M11.000 17.000 L 11.000 18.000 12.000 18.000 L 13.000 18.000 13.000 17.000 L 13.000 16.000 12.000 16.000 L 11.000 16.000 11.000 17.000 " stroke="none" fill-rule="evenodd" fill="black"></path></svg>