<svg viewBox="0 0 24 24" xmlns="http://www.w3.org/2000/svg"><path d="M2.664 3.063 C 2.436 3.146,2.257 3.297,2.131 3.511 L 2.020 3.700 2.010 11.914 C 2.003 17.490,2.013 20.178,2.041 20.283 C 2.102 20.509,2.313 20.761,2.539 20.878 L 2.738 20.980 7.919 20.990 L 13.100 21.000 12.960 20.891 C 12.452 20.498,11.915 19.871,11.601 19.301 L 11.434 19.000 7.717 19.000 L 4.000 19.000 4.000 12.000 L 4.000 5.000 6.790 5.000 L 9.581 5.000 10.580 6.000 L 11.579 7.000 15.790 7.000 L 20.000 7.000 20.000 8.000 L 20.000 9.000 21.000 9.000 L 22.000 9.000 22.000 7.427 C 22.000 5.638,21.994 5.591,21.701 5.299 C 21.384 4.981,21.689 5.000,16.783 5.000 L 12.419 5.000 11.420 4.000 L 10.421 3.000 6.620 3.003 C 3.427 3.005,2.795 3.015,2.664 3.063 M13.000 14.117 C 13.000 16.748,13.009 17.280,13.061 17.523 C 13.184 18.110,13.435 18.582,13.842 18.995 C 14.042 19.198,14.500 19.522,15.791 20.374 C 16.720 20.987,17.502 21.480,17.530 21.469 C 17.632 21.430,20.812 19.314,20.986 19.169 C 21.202 18.990,21.554 18.536,21.691 18.260 C 21.746 18.150,21.833 17.934,21.885 17.780 L 21.980 17.500 21.991 14.250 L 22.003 11.000 17.501 11.000 L 13.000 11.000 13.000 14.117 M19.991 15.113 L 19.980 17.226 19.860 17.423 C 19.753 17.598,19.618 17.701,18.640 18.350 C 18.035 18.751,17.522 19.080,17.500 19.080 C 17.478 19.080,16.965 18.751,16.360 18.350 C 15.382 17.701,15.247 17.598,15.140 17.423 L 15.020 17.226 15.009 15.113 L 14.997 13.000 17.500 13.000 L 20.003 13.000 19.991 15.113 " stroke="none" fill-rule="evenodd" fill="black"></path></svg>