<svg viewBox="0 0 24 24" xmlns="http://www.w3.org/2000/svg"><path d="M2.664 3.063 C 2.436 3.146,2.257 3.297,2.131 3.511 L 2.020 3.700 2.020 12.000 L 2.020 20.300 2.131 20.489 C 2.260 20.709,2.437 20.854,2.678 20.939 C 2.830 20.993,3.916 21.000,11.998 21.000 C 22.265 21.000,21.375 21.027,21.701 20.701 C 22.025 20.377,22.000 21.023,22.000 13.000 C 22.000 4.977,22.025 5.623,21.701 5.299 C 21.384 4.981,21.689 5.000,16.783 5.000 L 12.419 5.000 11.420 4.000 L 10.421 3.000 6.620 3.003 C 3.427 3.005,2.795 3.015,2.664 3.063 M10.580 6.000 L 11.579 7.000 15.790 7.000 L 20.000 7.000 20.000 13.000 L 20.000 19.000 12.000 19.000 L 4.000 19.000 4.000 12.000 L 4.000 5.000 6.790 5.000 L 9.581 5.000 10.580 6.000 M11.500 8.057 C 10.709 8.239,10.094 8.720,9.765 9.411 C 9.571 9.819,9.508 10.084,9.508 10.500 C 9.508 10.918,9.571 11.181,9.770 11.600 C 9.898 11.869,9.995 12.003,10.236 12.243 C 10.774 12.778,11.256 12.980,12.000 12.980 C 12.397 12.980,12.504 12.965,12.781 12.870 C 13.421 12.650,13.953 12.182,14.235 11.589 C 14.429 11.181,14.492 10.916,14.492 10.500 C 14.492 10.084,14.429 9.819,14.235 9.411 C 13.846 8.593,13.028 8.057,12.106 8.017 C 11.879 8.007,11.649 8.022,11.500 8.057 M11.433 14.040 C 10.843 14.134,10.221 14.380,9.731 14.712 C 8.762 15.370,8.105 16.502,8.014 17.670 L 7.988 18.000 12.000 18.000 L 16.012 18.000 15.988 17.690 C 15.895 16.503,15.243 15.374,14.269 14.712 C 13.917 14.473,13.343 14.214,12.958 14.120 C 12.572 14.026,11.783 13.984,11.433 14.040 " stroke="none" fill-rule="evenodd" fill="black"></path></svg>