<svg viewBox="0 0 24 24" xmlns="http://www.w3.org/2000/svg"><path d="M2.664 3.063 C 2.436 3.146,2.257 3.297,2.131 3.511 L 2.020 3.700 2.020 12.000 L 2.020 20.300 2.131 20.489 C 2.260 20.709,2.437 20.854,2.678 20.939 C 2.830 20.993,3.916 21.000,11.998 21.000 C 22.265 21.000,21.375 21.027,21.701 20.701 C 22.025 20.377,22.000 21.023,22.000 13.000 C 22.000 4.977,22.025 5.623,21.701 5.299 C 21.384 4.981,21.689 5.000,16.783 5.000 L 12.419 5.000 11.420 4.000 L 10.421 3.000 6.620 3.003 C 3.427 3.005,2.795 3.015,2.664 3.063 M16.000 13.000 L 16.000 14.000 12.000 14.000 L 8.000 14.000 8.000 13.000 L 8.000 12.000 12.000 12.000 L 16.000 12.000 16.000 13.000 " stroke="none" fill-rule="evenodd" fill="black"></path></svg>