<svg viewBox="0 0 24 24" xmlns="http://www.w3.org/2000/svg"><path d="M2.664 3.063 C 2.436 3.146,2.257 3.297,2.131 3.511 L 2.020 3.700 2.020 12.000 L 2.020 20.300 2.133 20.492 C 2.265 20.716,2.487 20.890,2.728 20.956 C 2.856 20.991,4.088 21.000,7.569 20.991 L 12.238 20.980 12.073 20.720 C 11.291 19.491,10.905 17.910,11.031 16.450 C 11.117 15.450,11.311 14.761,11.760 13.860 C 12.125 13.129,12.471 12.650,13.060 12.060 C 13.324 11.796,13.711 11.458,13.920 11.310 C 14.372 10.988,15.275 10.529,15.790 10.359 C 17.767 9.707,19.983 9.975,21.726 11.077 L 21.980 11.238 21.990 8.550 C 22.002 5.511,22.011 5.608,21.702 5.300 C 21.383 4.981,21.691 5.000,16.783 5.000 L 12.419 5.000 11.420 4.000 L 10.421 3.000 6.620 3.003 C 3.427 3.005,2.795 3.015,2.664 3.063 M17.340 12.046 C 16.849 12.108,16.317 12.273,15.820 12.517 C 14.374 13.226,13.390 14.510,13.075 16.100 C 13.002 16.468,13.002 17.532,13.075 17.900 C 13.436 19.723,14.727 21.191,16.461 21.753 C 17.027 21.936,17.324 21.980,18.000 21.980 C 18.675 21.980,18.973 21.936,19.535 21.754 C 21.057 21.261,22.260 20.059,22.753 18.539 C 22.940 17.961,22.980 17.680,22.978 16.960 C 22.976 16.381,22.963 16.247,22.869 15.869 C 22.678 15.104,22.374 14.473,21.926 13.912 C 20.822 12.527,19.090 11.823,17.340 12.046 M18.700 14.081 C 18.788 14.105,18.956 14.162,19.074 14.208 L 19.287 14.292 17.294 16.286 L 15.301 18.279 15.234 18.148 C 15.093 17.873,15.025 17.512,15.023 17.020 C 15.019 16.342,15.144 15.907,15.498 15.358 C 15.899 14.738,16.635 14.225,17.322 14.085 C 17.442 14.061,17.576 14.032,17.620 14.022 C 17.752 13.992,18.528 14.034,18.700 14.081 M20.904 16.242 C 20.993 16.566,21.004 17.362,20.925 17.680 C 20.567 19.109,19.275 20.076,17.841 19.987 C 17.459 19.963,17.143 19.896,16.858 19.777 L 16.707 19.713 18.703 17.717 L 20.699 15.721 20.766 15.852 C 20.803 15.925,20.865 16.100,20.904 16.242 " stroke="none" fill-rule="evenodd" fill="black"></path></svg>