<svg viewBox="0 0 24 24" xmlns="http://www.w3.org/2000/svg"><path d="M4.674 2.056 C 4.233 2.214,3.935 2.517,3.825 2.920 C 3.792 3.041,3.402 4.956,2.960 7.175 C 2.188 11.041,2.157 11.219,2.203 11.411 C 2.261 11.656,2.471 11.881,2.706 11.951 C 2.830 11.988,3.840 12.000,6.935 12.000 L 11.000 12.000 11.000 16.000 L 11.000 20.000 9.000 20.000 L 7.000 20.000 7.000 21.000 L 7.000 22.000 12.000 22.000 L 17.000 22.000 17.000 21.000 L 17.000 20.000 15.000 20.000 L 13.000 20.000 13.000 16.001 L 13.000 12.001 17.130 11.991 C 21.117 11.980,21.265 11.977,21.415 11.903 C 21.590 11.816,21.777 11.554,21.818 11.339 C 21.836 11.239,21.621 10.083,21.039 7.170 C 20.597 4.954,20.208 3.039,20.174 2.916 C 20.087 2.597,19.874 2.336,19.560 2.163 L 19.300 2.020 12.060 2.012 C 6.171 2.005,4.793 2.013,4.674 2.056 " stroke="none" fill-rule="evenodd" fill="black"></path></svg>