<svg viewBox="0 0 24 24" xmlns="http://www.w3.org/2000/svg"><path d="M2.664 2.063 C 2.436 2.146,2.257 2.297,2.131 2.511 L 2.020 2.700 2.009 10.980 C 1.997 20.064,1.984 19.538,2.233 20.149 C 2.521 20.857,3.142 21.479,3.849 21.766 C 4.453 22.012,4.024 22.000,12.000 22.000 C 19.974 22.000,19.547 22.012,20.150 21.767 C 20.850 21.482,21.482 20.850,21.767 20.150 C 22.007 19.561,22.000 19.715,22.000 14.642 L 22.000 10.000 20.000 10.000 L 18.000 10.000 18.000 6.427 C 18.000 2.405,18.015 2.613,17.701 2.299 C 17.377 1.975,18.026 2.000,9.983 2.003 C 3.871 2.005,2.797 2.014,2.664 2.063 M11.000 9.000 L 11.000 12.000 8.000 12.000 L 5.000 12.000 5.000 9.000 L 5.000 6.000 8.000 6.000 L 11.000 6.000 11.000 9.000 M7.000 9.000 L 7.000 10.000 8.000 10.000 L 9.000 10.000 9.000 9.000 L 9.000 8.000 8.000 8.000 L 7.000 8.000 7.000 9.000 M20.000 15.573 C 20.000 19.595,20.015 19.387,19.701 19.701 C 19.310 20.092,18.690 20.092,18.299 19.701 C 17.985 19.387,18.000 19.595,18.000 15.573 L 18.000 12.000 19.000 12.000 L 20.000 12.000 20.000 15.573 M15.000 14.000 L 15.000 15.000 10.000 15.000 L 5.000 15.000 5.000 14.000 L 5.000 13.000 10.000 13.000 L 15.000 13.000 15.000 14.000 M15.000 17.000 L 15.000 18.000 10.000 18.000 L 5.000 18.000 5.000 17.000 L 5.000 16.000 10.000 16.000 L 15.000 16.000 15.000 17.000 " stroke="none" fill-rule="evenodd" fill="black"></path></svg>