<svg viewBox="0 0 24 24" xmlns="http://www.w3.org/2000/svg"><path d="M16.000 10.000 L 16.000 18.000 18.500 18.000 L 21.000 18.000 21.000 10.000 L 21.000 2.000 18.500 2.000 L 16.000 2.000 16.000 10.000 M10.000 12.000 L 10.000 18.000 12.500 18.000 L 15.000 18.000 15.000 12.000 L 15.000 6.000 12.500 6.000 L 10.000 6.000 10.000 12.000 M4.000 14.000 L 4.000 18.000 6.500 18.000 L 9.000 18.000 9.000 14.000 L 9.000 10.000 6.500 10.000 L 4.000 10.000 4.000 14.000 M3.000 21.000 L 3.000 22.000 12.500 22.000 L 22.000 22.000 22.000 21.000 L 22.000 20.000 12.500 20.000 L 3.000 20.000 3.000 21.000 " stroke="none" fill-rule="evenodd" fill="black"></path></svg>