<svg fill="none" viewBox="0 0 15 15" xmlns="http://www.w3.org/2000/svg">
  <path fill="currentColor" d="m7.5.5.137-.48a.5.5 0 0 0-.274 0L7.5.5zm-7 2-.137-.48a.5.5 0 0 0-.36.535L.5 2.5zm1 9-.497.055a.5.5 0 0 0 .273.392L1.5 11.5zm6 3-.224.447a.5.5 0 0 0 .448 0L7.5 14.5zm6-3 .224.447a.5.5 0 0 0 .273-.392L13.5 11.5zm1-9 .497.055a.5.5 0 0 0-.36-.536L14.5 2.5zm-7 .5.458-.2L7.5 1.753 7.042 2.8 7.5 3zM7.363.02l-7 2 .274.96 7-2-.274-.96zM.003 2.554l1 9 .994-.11-1-9-.994.11zm1.273 9.392 6 3 .448-.894-6-3-.448.894zm6.448 3 6-3-.448-.894-6 3 .448.894zm6.273-3.392 1-9-.994-.11-1 9 .994.11zm.64-9.536-7-2-.274.962 7 2 .274-.962zM4.458 11.2l3.5-8-.916-.4-3.5 8 .916.4zm2.584-8 3.5 8 .916-.4-3.5-8-.916.4zM5 9h5V8H5v1z"/>
</svg>
