<svg fill="none" viewBox="0 0 15 15" xmlns="http://www.w3.org/2000/svg">
  <path fill="currentColor" d="m7.5 1.5.197-.46a.5.5 0 0 0-.394 0l.197.46zm-7 3-.197-.46a.5.5 0 0 0 0 .92L.5 4.5zm7 3-.197.46a.5.5 0 0 0 .394 0L7.5 7.5zm7-3 .197.46a.5.5 0 0 0 0-.92l-.197.46zm-7 6-.197.46.197.084.197-.084-.197-.46zm0 3-.197.46.197.084.197-.084-.197-.46zM7.303 1.04l-7 3 .394.92 7-3-.394-.92zm-7 3.92 7 3 .394-.92-7-3-.394.92zm7.394 3 7-3-.394-.92-7 3 .394.92zm7-3.92-7-3-.394.92 7 3 .394-.92zM.303 7.96l7 3 .394-.92-7-3-.394.92zm7.394 3 7-3-.394-.92-7 3 .394.92zm-7.394 0 7 3 .394-.92-7-3-.394.92zm7.394 3 7-3-.394-.92-7 3 .394.92z"/>
</svg>
