<svg viewBox="0 0 24 24" xmlns="http://www.w3.org/2000/svg"><path d="M3.875 3.062 C 2.568 3.299,1.533 4.237,1.133 5.548 C 1.038 5.863,1.026 5.963,1.026 6.500 C 1.026 7.037,1.038 7.137,1.133 7.452 C 1.501 8.656,2.344 9.499,3.548 9.867 C 3.863 9.962,3.963 9.974,4.500 9.974 C 5.037 9.974,5.137 9.962,5.452 9.867 C 6.656 9.499,7.499 8.656,7.867 7.452 C 7.962 7.137,7.974 7.037,7.974 6.500 C 7.974 5.963,7.962 5.863,7.867 5.548 C 7.665 4.886,7.361 4.395,6.868 3.936 C 6.071 3.193,4.954 2.867,3.875 3.062 M15.200 4.058 C 14.246 4.196,13.443 4.501,12.660 5.025 C 11.349 5.901,10.480 7.197,10.109 8.830 C 10.021 9.216,10.020 9.256,10.020 12.500 C 10.020 15.744,10.021 15.784,10.109 16.170 C 10.667 18.625,12.393 20.350,14.826 20.887 C 15.397 21.013,16.603 21.013,17.174 20.887 C 19.882 20.290,21.810 18.090,21.986 15.395 L 22.012 15.000 21.012 15.000 L 20.011 15.000 19.984 15.310 C 19.924 15.994,19.671 16.704,19.288 17.269 C 18.760 18.046,17.946 18.617,17.005 18.871 C 16.669 18.962,16.542 18.975,16.000 18.975 C 15.458 18.975,15.331 18.962,14.995 18.871 C 14.054 18.617,13.240 18.046,12.712 17.269 C 12.473 16.916,12.215 16.344,12.111 15.938 C 12.020 15.581,12.020 15.573,12.020 12.500 C 12.020 9.427,12.020 9.419,12.111 9.062 C 12.288 8.369,12.681 7.673,13.177 7.177 C 13.675 6.679,14.376 6.284,15.062 6.113 C 15.571 5.987,16.429 5.987,16.938 6.113 C 17.346 6.215,17.912 6.470,18.285 6.722 C 19.224 7.356,19.879 8.499,19.984 9.690 L 20.011 10.000 21.012 10.000 L 22.012 10.000 21.986 9.605 C 21.807 6.864,19.754 4.579,17.041 4.097 C 16.552 4.010,15.660 3.991,15.200 4.058 M5.110 5.139 C 5.415 5.278,5.725 5.589,5.866 5.896 C 5.962 6.105,5.978 6.191,5.978 6.500 C 5.979 6.810,5.963 6.893,5.867 7.100 C 5.722 7.415,5.413 7.724,5.104 7.867 C 4.894 7.965,4.811 7.980,4.500 7.980 C 4.190 7.980,4.107 7.965,3.900 7.868 C 3.584 7.721,3.275 7.413,3.134 7.104 C 3.038 6.895,3.022 6.809,3.022 6.500 C 3.021 6.190,3.037 6.107,3.133 5.900 C 3.324 5.489,3.727 5.148,4.150 5.041 C 4.407 4.976,4.852 5.022,5.110 5.139 " stroke="none" fill-rule="evenodd" fill="black"></path></svg>