<svg viewBox="0 0 24 24" xmlns="http://www.w3.org/2000/svg"><path d="M11.345 2.043 C 9.036 2.247,6.911 3.664,5.826 5.720 C 5.307 6.703,5.056 7.643,5.012 8.769 L 4.988 9.358 4.844 9.404 C 4.765 9.429,4.507 9.548,4.271 9.668 C 2.568 10.533,1.403 12.128,1.075 14.045 C 0.969 14.669,0.987 15.594,1.118 16.208 C 1.365 17.364,1.931 18.408,2.761 19.239 C 3.594 20.072,4.584 20.607,5.820 20.893 C 6.174 20.975,6.270 20.977,11.740 20.991 C 17.645 21.005,17.754 21.002,18.478 20.815 C 20.717 20.235,22.390 18.479,22.888 16.188 C 23.016 15.597,23.016 14.403,22.888 13.812 C 22.491 11.984,21.355 10.494,19.729 9.668 C 19.493 9.548,19.235 9.429,19.156 9.404 L 19.012 9.358 18.988 8.769 C 18.956 7.952,18.850 7.404,18.573 6.620 C 18.203 5.569,17.464 4.485,16.620 3.750 C 15.163 2.483,13.274 1.872,11.345 2.043 M12.947 4.100 C 13.397 4.185,13.714 4.293,14.180 4.519 C 15.574 5.194,16.547 6.433,16.887 7.970 C 16.960 8.299,16.978 8.502,16.978 9.000 C 16.978 9.685,16.920 10.052,16.718 10.645 C 16.653 10.834,16.600 10.996,16.600 11.005 C 16.600 11.013,16.710 11.014,16.845 11.006 C 17.726 10.957,18.751 11.299,19.503 11.893 C 20.484 12.670,21.078 14.033,20.978 15.280 C 20.829 17.133,19.475 18.621,17.645 18.941 C 17.144 19.029,6.856 19.029,6.355 18.941 C 5.078 18.718,4.007 17.924,3.439 16.780 C 2.469 14.828,3.239 12.451,5.160 11.463 C 5.775 11.147,6.540 10.972,7.155 11.006 C 7.290 11.014,7.400 11.013,7.400 11.005 C 7.400 10.996,7.347 10.834,7.283 10.645 C 6.768 9.131,6.985 7.507,7.878 6.182 C 8.660 5.024,9.984 4.219,11.400 4.042 C 11.788 3.994,12.534 4.022,12.947 4.100 " stroke="none" fill-rule="evenodd" fill="black"></path></svg>