<svg viewBox="0 0 24 24" xmlns="http://www.w3.org/2000/svg"><path d="M11.018 2.494 C 11.017 3.224,11.000 3.558,10.947 3.860 C 10.580 5.975,9.632 7.549,7.665 9.311 C 6.547 10.312,6.202 10.682,5.751 11.360 C 4.481 13.274,4.161 15.679,4.886 17.860 C 5.798 20.601,8.183 22.562,11.063 22.940 C 13.394 23.245,15.801 22.384,17.432 20.662 C 18.487 19.547,19.142 18.229,19.400 16.700 C 19.510 16.052,19.520 15.122,19.422 14.580 C 19.363 14.246,19.136 13.393,19.041 13.141 L 18.999 13.033 18.590 13.422 C 17.540 14.421,16.468 15.178,15.794 15.396 C 15.568 15.470,15.240 15.513,15.240 15.470 C 15.240 15.450,15.376 15.182,15.542 14.876 C 16.322 13.439,16.901 11.906,17.103 10.744 C 17.456 8.708,17.011 7.055,15.658 5.378 C 15.238 4.858,14.239 3.898,13.520 3.324 C 12.835 2.776,11.444 1.774,11.060 1.551 C 11.034 1.536,11.019 1.861,11.018 2.494 M13.393 5.870 C 14.702 7.164,15.240 8.233,15.240 9.542 C 15.240 10.780,14.770 12.125,13.563 14.341 C 13.265 14.888,13.183 15.187,13.211 15.620 C 13.273 16.575,13.963 17.323,14.926 17.478 C 15.439 17.561,16.277 17.395,16.956 17.077 C 17.141 16.990,17.298 16.924,17.304 16.931 C 17.331 16.957,17.101 17.570,16.941 17.900 C 16.678 18.439,16.392 18.846,15.955 19.300 C 15.469 19.804,15.005 20.141,14.380 20.443 C 13.525 20.857,12.695 21.030,11.780 20.985 C 11.159 20.955,10.829 20.893,10.254 20.701 C 8.602 20.148,7.339 18.870,6.781 17.187 C 6.569 16.547,6.505 16.065,6.532 15.304 C 6.564 14.422,6.703 13.840,7.061 13.100 C 7.440 12.314,7.889 11.793,9.217 10.597 C 10.414 9.519,11.316 8.390,11.937 7.193 C 12.207 6.672,12.511 5.936,12.625 5.526 C 12.663 5.387,12.716 5.280,12.745 5.280 C 12.773 5.280,13.065 5.545,13.393 5.870 " stroke="none" fill-rule="evenodd" fill="black"></path></svg>