<svg viewBox="0 0 24 24" xmlns="http://www.w3.org/2000/svg"><path d="M11.563 1.470 C 11.429 1.542,9.558 3.216,6.190 6.280 L 1.022 10.980 2.511 10.990 L 4.000 11.001 4.000 14.006 L 4.000 17.012 4.370 16.986 C 5.091 16.935,5.900 16.680,6.542 16.300 C 6.968 16.048,7.297 15.779,7.678 15.372 L 8.000 15.028 8.322 15.372 C 9.047 16.147,9.833 16.609,10.869 16.869 C 11.256 16.966,11.372 16.977,12.000 16.977 C 12.628 16.977,12.744 16.966,13.131 16.869 C 14.167 16.609,14.953 16.147,15.678 15.372 L 16.000 15.028 16.322 15.372 C 16.703 15.779,17.032 16.048,17.458 16.300 C 18.100 16.680,18.909 16.935,19.630 16.986 L 20.000 17.012 20.000 14.006 L 20.000 11.001 21.489 10.990 L 22.978 10.980 17.788 6.260 C 14.175 2.975,12.540 1.513,12.409 1.451 C 12.136 1.321,11.829 1.328,11.563 1.470 M7.820 17.625 C 7.388 18.008,6.568 18.465,5.926 18.680 C 5.128 18.947,4.955 18.969,3.410 18.989 L 2.000 19.008 2.000 20.004 L 2.000 21.000 3.222 21.000 C 3.893 21.000,4.618 20.981,4.832 20.958 C 5.746 20.858,6.631 20.602,7.490 20.191 L 8.000 19.947 8.510 20.192 C 10.752 21.271,13.236 21.270,15.490 20.191 L 16.000 19.947 16.510 20.192 C 17.355 20.599,18.254 20.858,19.168 20.958 C 19.382 20.981,20.107 21.000,20.778 21.000 L 22.000 21.000 22.000 20.004 L 22.000 19.008 20.590 18.989 C 19.344 18.973,19.137 18.961,18.809 18.886 C 17.822 18.662,16.939 18.245,16.230 17.667 L 16.000 17.479 15.770 17.667 C 15.053 18.251,14.166 18.668,13.170 18.889 C 12.605 19.014,11.395 19.014,10.830 18.889 C 9.835 18.669,8.947 18.251,8.231 17.667 C 8.104 17.564,7.996 17.481,7.991 17.482 C 7.985 17.483,7.908 17.547,7.820 17.625 " stroke="none" fill-rule="evenodd" fill="black"></path></svg>