<svg viewBox="0 0 24 24" xmlns="http://www.w3.org/2000/svg"><path d="M8.420 2.023 C 8.354 2.032,8.129 2.060,7.920 2.084 C 7.109 2.177,6.024 2.526,5.245 2.945 C 1.902 4.745,0.276 8.584,1.320 12.210 C 1.858 14.078,3.036 15.662,4.680 16.730 C 5.007 16.942,5.724 17.319,5.910 17.377 L 6.000 17.405 6.000 16.306 L 6.000 15.207 5.670 14.987 C 4.349 14.105,3.457 12.769,3.115 11.160 C 2.986 10.554,2.986 9.444,3.115 8.840 C 3.233 8.289,3.361 7.912,3.603 7.403 C 5.030 4.405,8.681 3.148,11.660 4.630 C 13.585 5.587,14.836 7.470,14.982 9.629 L 15.010 10.038 15.190 9.880 C 15.595 9.523,16.094 9.258,16.636 9.111 C 17.078 8.992,17.935 8.993,18.378 9.114 C 20.620 9.726,21.669 12.248,20.518 14.260 C 20.222 14.776,19.618 15.361,19.150 15.584 L 19.000 15.655 19.000 16.726 L 19.000 17.798 19.350 17.674 C 20.175 17.383,20.855 16.943,21.474 16.301 C 22.257 15.488,22.746 14.534,22.948 13.425 C 23.046 12.888,23.036 11.979,22.925 11.452 C 22.423 9.064,20.566 7.338,18.174 7.037 C 17.809 6.991,17.020 7.004,16.620 7.062 L 16.460 7.086 16.222 6.579 C 15.807 5.693,15.286 4.968,14.554 4.257 C 13.368 3.104,11.905 2.373,10.240 2.100 C 9.872 2.040,8.663 1.989,8.420 2.023 M9.580 13.047 C 8.859 13.185,8.199 13.848,8.044 14.592 C 7.789 15.816,8.751 17.000,10.000 17.000 C 10.920 17.000,11.768 16.310,11.956 15.408 C 12.095 14.743,11.895 14.088,11.404 13.596 C 10.913 13.106,10.277 12.914,9.580 13.047 M14.580 16.047 C 13.707 16.214,13.000 17.087,13.000 18.000 C 13.000 18.920,13.690 19.768,14.592 19.956 C 15.816 20.211,17.000 19.249,17.000 18.000 C 17.000 17.477,16.790 16.983,16.404 16.596 C 15.913 16.106,15.277 15.914,14.580 16.047 M9.580 19.047 C 8.859 19.185,8.199 19.848,8.044 20.592 C 7.789 21.816,8.751 23.000,10.000 23.000 C 11.080 23.000,12.000 22.080,12.000 21.000 C 12.000 20.477,11.790 19.983,11.404 19.596 C 10.913 19.106,10.277 18.914,9.580 19.047 " stroke="none" fill-rule="evenodd" fill="black"></path></svg>