<svg viewBox="0 0 24 24" xmlns="http://www.w3.org/2000/svg"><path d="M11.000 2.500 L 11.000 4.000 12.000 4.000 L 13.000 4.000 13.000 2.500 L 13.000 1.000 12.000 1.000 L 11.000 1.000 11.000 2.500 M4.230 4.230 L 3.520 4.941 4.580 6.000 L 5.640 7.060 6.350 6.350 L 7.060 5.640 6.000 4.580 L 4.939 3.520 4.230 4.230 M18.000 4.580 L 16.940 5.640 17.650 6.350 L 18.360 7.060 19.420 6.000 L 20.480 4.939 19.770 4.230 L 19.059 3.520 18.000 4.580 M11.400 6.044 C 10.750 6.106,10.061 6.297,9.443 6.585 C 8.239 7.147,7.155 8.230,6.585 9.442 C 6.184 10.292,6.029 10.983,6.024 11.940 C 6.022 12.314,6.035 12.706,6.052 12.810 L 6.085 13.000 12.000 13.000 L 17.915 13.000 17.948 12.810 C 17.965 12.706,17.978 12.314,17.976 11.940 C 17.973 11.408,17.954 11.173,17.887 10.860 C 17.620 9.609,17.106 8.658,16.224 7.778 C 15.186 6.743,13.985 6.177,12.540 6.041 C 12.052 5.996,11.897 5.996,11.400 6.044 M1.000 12.000 L 1.000 13.000 2.500 13.000 L 4.000 13.000 4.000 12.000 L 4.000 11.000 2.500 11.000 L 1.000 11.000 1.000 12.000 M20.000 12.000 L 20.000 13.000 21.500 13.000 L 23.000 13.000 23.000 12.000 L 23.000 11.000 21.500 11.000 L 20.000 11.000 20.000 12.000 M2.000 16.000 L 2.000 17.000 7.000 17.000 L 12.000 17.000 12.000 16.000 L 12.000 15.000 7.000 15.000 L 2.000 15.000 2.000 16.000 M14.000 16.000 L 14.000 17.000 18.000 17.000 L 22.000 17.000 22.000 16.000 L 22.000 15.000 18.000 15.000 L 14.000 15.000 14.000 16.000 M4.000 20.000 L 4.000 21.000 9.000 21.000 L 14.000 21.000 14.000 20.000 L 14.000 19.000 9.000 19.000 L 4.000 19.000 4.000 20.000 M16.000 20.000 L 16.000 21.000 18.000 21.000 L 20.000 21.000 20.000 20.000 L 20.000 19.000 18.000 19.000 L 16.000 19.000 16.000 20.000 " stroke="none" fill-rule="evenodd" fill="black"></path></svg>