<svg viewBox="0 0 24 24" xmlns="http://www.w3.org/2000/svg"><path d="M11.069 4.039 C 8.822 4.258,6.868 5.041,5.101 6.432 C 4.640 6.795,3.606 7.863,3.231 8.363 C 2.100 9.872,1.420 11.491,1.111 13.408 C 1.030 13.911,1.025 14.107,1.010 16.970 L 0.995 20.000 2.495 20.000 L 3.995 20.000 4.012 17.070 C 4.030 13.909,4.032 13.876,4.260 12.992 C 4.537 11.920,5.060 10.878,5.760 10.006 C 7.552 7.771,10.375 6.672,13.220 7.100 C 16.170 7.544,18.670 9.666,19.598 12.514 C 19.772 13.047,19.901 13.675,19.960 14.274 C 19.982 14.506,20.000 15.857,20.000 17.344 L 20.000 20.000 21.502 20.000 L 23.005 20.000 22.990 16.970 C 22.975 14.107,22.970 13.911,22.889 13.408 C 22.580 11.491,21.900 9.872,20.769 8.363 C 20.394 7.863,19.360 6.795,18.899 6.432 C 17.302 5.175,15.548 4.412,13.580 4.120 C 12.946 4.026,11.638 3.984,11.069 4.039 M11.260 8.044 C 9.874 8.190,8.559 8.756,7.454 9.684 C 6.388 10.578,5.581 11.874,5.217 13.274 C 5.016 14.047,5.000 14.350,5.000 17.282 L 5.000 20.000 6.498 20.000 L 7.996 20.000 8.010 17.190 C 8.024 14.434,8.026 14.373,8.114 14.042 C 8.294 13.358,8.689 12.665,9.177 12.177 C 9.675 11.679,10.376 11.284,11.062 11.113 C 11.571 10.987,12.429 10.987,12.938 11.113 C 13.624 11.284,14.325 11.679,14.823 12.177 C 15.311 12.665,15.706 13.358,15.886 14.042 C 15.974 14.373,15.976 14.434,15.990 17.190 L 16.004 20.000 17.502 20.000 L 19.000 20.000 19.000 17.282 C 19.000 15.096,18.988 14.474,18.940 14.106 C 18.445 10.333,15.043 7.647,11.260 8.044 M11.503 12.040 C 10.471 12.227,9.556 12.976,9.202 13.925 C 9.006 14.450,9.001 14.528,9.001 17.350 L 9.000 20.000 12.000 20.000 L 15.000 20.000 15.000 17.358 C 15.000 14.476,14.996 14.413,14.766 13.849 C 14.433 13.030,13.641 12.339,12.756 12.097 C 12.491 12.024,11.770 11.991,11.503 12.040 " stroke="none" fill-rule="evenodd" fill="black"></path></svg>