<svg viewBox="0 0 24 24" xmlns="http://www.w3.org/2000/svg"><path d="M8.400 2.023 C 7.174 2.163,6.323 2.399,5.422 2.850 C 4.695 3.213,4.071 3.659,3.449 4.257 C 2.741 4.937,2.255 5.606,1.818 6.500 C 0.479 9.236,0.807 12.455,2.674 14.900 C 2.934 15.239,3.606 15.925,3.960 16.211 C 5.055 17.096,6.378 17.684,7.775 17.906 L 8.170 17.969 9.795 16.349 C 10.689 15.458,11.483 14.695,11.560 14.655 C 11.754 14.553,12.246 14.553,12.440 14.655 C 12.517 14.695,13.320 15.467,14.225 16.369 L 15.871 18.009 16.825 17.989 C 17.589 17.973,17.857 17.952,18.163 17.885 C 18.701 17.767,19.114 17.627,19.597 17.397 C 20.185 17.117,20.629 16.808,21.112 16.343 C 22.065 15.426,22.607 14.450,22.888 13.143 C 23.014 12.557,23.014 11.433,22.888 10.854 C 22.436 8.772,21.090 7.175,19.133 6.397 C 18.281 6.059,17.018 5.918,16.120 6.062 C 15.983 6.085,15.977 6.080,15.808 5.803 C 15.223 4.846,14.330 3.929,13.380 3.312 C 12.426 2.692,11.381 2.289,10.240 2.100 C 9.875 2.039,8.690 1.990,8.400 2.023 M10.953 18.030 C 9.971 19.018,9.923 19.074,9.769 19.400 C 9.570 19.820,9.508 20.083,9.508 20.500 C 9.508 20.916,9.571 21.181,9.765 21.589 C 10.169 22.439,11.056 22.997,12.000 22.997 C 13.351 22.997,14.477 21.886,14.490 20.540 C 14.494 20.090,14.436 19.832,14.231 19.400 C 14.077 19.074,14.029 19.018,13.047 18.030 C 12.484 17.463,12.013 17.000,12.000 17.000 C 11.987 17.000,11.516 17.463,10.953 18.030 " stroke="none" fill-rule="evenodd" fill="black"></path></svg>