<svg viewBox="0 0 24 24" xmlns="http://www.w3.org/2000/svg"><path d="M10.984 1.490 C 10.742 5.767,7.942 9.342,3.865 10.578 C 3.075 10.817,1.937 10.999,1.230 11.000 L 1.000 11.000 1.000 11.994 L 1.000 12.989 1.490 13.016 C 4.967 13.212,7.985 15.077,9.706 18.091 C 10.456 19.404,10.894 20.920,10.984 22.510 L 11.011 23.000 12.000 23.000 L 12.989 23.000 13.016 22.510 C 13.106 20.920,13.544 19.404,14.294 18.091 C 16.015 15.077,19.033 13.212,22.510 13.016 L 23.000 12.989 23.000 11.994 L 23.000 11.000 22.770 11.000 C 22.370 11.000,21.638 10.918,21.103 10.815 C 17.593 10.134,14.727 7.645,13.545 4.249 C 13.264 3.441,13.069 2.425,13.016 1.490 L 12.989 1.000 12.000 1.000 L 11.011 1.000 10.984 1.490 " stroke="none" fill-rule="evenodd" fill="black"></path></svg>