<svg viewBox="0 0 24 24" xmlns="http://www.w3.org/2000/svg"><path d="M8.420 2.023 C 8.354 2.032,8.129 2.060,7.920 2.084 C 6.893 2.201,5.602 2.676,4.685 3.272 C 2.774 4.515,1.529 6.399,1.112 8.680 C 0.999 9.301,0.989 10.623,1.093 11.220 C 1.500 13.543,2.718 15.433,4.620 16.692 C 4.968 16.922,5.884 17.400,5.976 17.400 C 6.003 17.400,6.050 17.236,6.089 17.010 C 6.197 16.380,6.343 15.936,6.639 15.340 C 7.242 14.126,8.121 13.243,9.331 12.638 C 10.224 12.191,10.957 12.022,12.000 12.023 C 13.050 12.025,13.780 12.193,14.669 12.638 C 15.877 13.242,16.759 14.128,17.361 15.340 C 17.737 16.099,17.912 16.737,17.983 17.610 L 18.011 17.960 18.136 17.960 C 18.204 17.959,18.449 17.916,18.681 17.864 C 20.822 17.378,22.420 15.738,22.886 13.548 C 23.008 12.975,23.008 12.032,22.886 11.452 C 22.528 9.761,21.506 8.407,19.992 7.621 C 19.026 7.119,17.982 6.934,16.780 7.051 L 16.460 7.082 16.222 6.577 C 15.805 5.691,15.285 4.967,14.554 4.257 C 13.368 3.104,11.905 2.373,10.240 2.100 C 9.872 2.040,8.663 1.989,8.420 2.023 M11.000 15.124 C 11.000 16.094,10.992 16.245,10.941 16.226 C 10.909 16.214,10.477 15.969,9.982 15.682 C 9.486 15.395,9.066 15.160,9.049 15.160 C 9.027 15.160,8.195 16.568,8.053 16.846 C 8.046 16.861,8.472 17.121,9.000 17.425 C 9.528 17.729,9.960 17.988,9.960 18.002 C 9.960 18.015,9.528 18.275,9.001 18.579 C 8.474 18.882,8.048 19.142,8.054 19.156 C 8.186 19.419,9.027 20.840,9.051 20.840 C 9.069 20.840,9.505 20.597,10.019 20.300 C 10.534 20.003,10.965 19.760,10.978 19.760 C 10.990 19.760,11.000 20.264,11.000 20.880 L 11.000 22.000 12.000 22.000 L 13.000 22.000 13.000 20.880 C 13.000 20.264,13.010 19.760,13.022 19.760 C 13.035 19.760,13.466 20.003,13.981 20.300 C 14.495 20.597,14.931 20.840,14.949 20.840 C 14.973 20.840,15.814 19.419,15.946 19.156 C 15.952 19.142,15.526 18.882,14.999 18.579 C 14.472 18.275,14.040 18.015,14.040 18.002 C 14.040 17.989,14.472 17.729,14.999 17.424 C 15.527 17.120,15.953 16.859,15.946 16.845 C 15.806 16.568,14.973 15.160,14.949 15.160 C 14.931 15.160,14.512 15.395,14.018 15.681 C 13.524 15.968,13.093 16.213,13.060 16.226 C 13.008 16.246,13.000 16.108,13.000 15.124 L 13.000 14.000 12.000 14.000 L 11.000 14.000 11.000 15.124 " stroke="none" fill-rule="evenodd" fill="black"></path></svg>