<svg viewBox="0 0 24 24" xmlns="http://www.w3.org/2000/svg"><path d="M16.439 2.110 C 16.438 2.319,16.321 2.774,16.207 3.016 C 15.959 3.541,15.540 3.963,15.027 4.202 C 14.775 4.321,14.320 4.438,14.110 4.439 L 14.000 4.440 14.000 4.995 L 14.000 5.550 14.243 5.577 C 14.980 5.661,15.640 6.067,16.037 6.680 C 16.244 7.000,16.353 7.296,16.408 7.687 L 16.452 8.000 17.001 8.000 L 17.550 8.000 17.577 7.757 C 17.661 7.020,18.067 6.360,18.680 5.963 C 19.000 5.756,19.296 5.647,19.687 5.592 L 20.000 5.548 20.000 4.994 L 20.000 4.440 19.890 4.439 C 19.680 4.438,19.225 4.321,18.973 4.202 C 18.195 3.839,17.680 3.110,17.578 2.230 L 17.551 2.000 16.995 2.000 L 16.440 2.000 16.439 2.110 M6.982 5.370 C 6.897 6.480,6.570 7.449,5.986 8.325 C 4.953 9.873,3.241 10.865,1.395 10.986 L 1.000 11.012 1.000 12.001 L 1.000 12.990 1.370 13.018 C 2.200 13.082,2.871 13.254,3.545 13.577 C 4.850 14.203,5.797 15.150,6.423 16.455 C 6.746 17.129,6.918 17.800,6.982 18.630 L 7.010 19.000 7.999 19.000 L 8.989 19.000 9.016 18.635 C 9.078 17.815,9.255 17.128,9.577 16.455 C 10.203 15.150,11.150 14.203,12.455 13.577 C 13.128 13.255,13.815 13.078,14.635 13.016 L 15.000 12.989 15.000 12.000 L 15.000 11.012 14.605 10.986 C 12.756 10.865,11.052 9.877,10.014 8.325 C 9.431 7.453,9.099 6.468,9.016 5.365 L 8.989 5.000 7.999 5.000 L 7.010 5.000 6.982 5.370 M8.268 9.311 C 8.894 10.294,9.810 11.197,10.800 11.808 C 10.954 11.902,11.079 11.991,11.080 12.004 C 11.080 12.017,10.927 12.121,10.740 12.235 C 9.787 12.818,8.806 13.805,8.192 14.800 C 8.098 14.954,8.011 15.079,8.000 15.079 C 7.989 15.079,7.902 14.954,7.808 14.800 C 7.194 13.805,6.213 12.818,5.260 12.235 C 5.073 12.121,4.920 12.017,4.920 12.004 C 4.921 11.991,5.046 11.902,5.200 11.808 C 6.190 11.197,7.106 10.294,7.732 9.311 C 7.869 9.097,7.989 8.922,8.000 8.922 C 8.011 8.922,8.131 9.097,8.268 9.311 M17.224 14.329 C 17.190 14.734,17.016 15.269,16.793 15.654 C 16.577 16.026,16.030 16.574,15.651 16.797 C 15.278 17.018,14.707 17.202,14.310 17.230 L 14.000 17.251 14.000 18.000 L 14.000 18.748 14.329 18.776 C 14.734 18.810,15.269 18.984,15.654 19.207 C 16.029 19.424,16.576 19.971,16.793 20.346 C 17.016 20.731,17.190 21.266,17.224 21.671 L 17.252 22.000 18.000 22.000 L 18.748 22.000 18.776 21.671 C 18.810 21.263,18.988 20.715,19.209 20.340 C 19.422 19.977,19.977 19.422,20.340 19.209 C 20.715 18.988,21.263 18.810,21.671 18.776 L 22.000 18.748 22.000 18.000 L 22.000 17.251 21.690 17.230 C 21.293 17.202,20.722 17.018,20.349 16.797 C 19.976 16.578,19.424 16.026,19.209 15.660 C 18.988 15.285,18.810 14.737,18.776 14.329 L 18.748 14.000 18.000 14.000 L 17.252 14.000 17.224 14.329 " stroke="none" fill-rule="evenodd" fill="black"></path></svg>