<svg viewBox="0 0 24 24" xmlns="http://www.w3.org/2000/svg"><path d="M15.018 2.005 C 13.130 2.135,11.359 3.128,10.246 4.682 L 10.004 5.020 9.112 5.022 C 7.978 5.026,7.338 5.126,6.405 5.447 C 3.702 6.377,1.706 8.682,1.162 11.500 C 0.925 12.726,0.980 13.968,1.324 15.180 C 2.102 17.920,4.266 20.032,7.020 20.740 C 8.057 21.006,8.035 21.005,13.420 20.990 C 18.254 20.976,18.260 20.976,18.620 20.888 C 18.818 20.839,19.097 20.761,19.240 20.714 C 20.865 20.179,22.219 18.809,22.731 17.180 C 22.931 16.545,22.977 16.226,22.977 15.500 C 22.977 14.993,22.959 14.734,22.904 14.480 C 22.677 13.420,22.263 12.589,21.580 11.822 L 21.278 11.481 21.363 11.315 C 21.615 10.820,21.873 9.966,21.958 9.340 C 22.015 8.927,22.015 7.975,21.958 7.596 C 21.753 6.219,21.159 4.990,20.226 4.013 C 18.856 2.578,17.014 1.868,15.018 2.005 M16.563 4.133 C 18.307 4.583,19.544 5.879,19.926 7.660 C 20.007 8.035,19.995 9.034,19.905 9.420 C 19.797 9.884,19.600 10.409,19.542 10.386 C 19.309 10.297,18.785 10.152,18.495 10.097 C 18.105 10.023,17.247 10.000,16.760 10.052 L 16.460 10.083 16.222 9.578 C 15.804 8.688,15.276 7.954,14.553 7.259 C 13.892 6.623,13.119 6.087,12.390 5.759 C 12.219 5.683,12.080 5.606,12.080 5.588 C 12.080 5.517,12.675 4.982,12.981 4.778 C 13.539 4.407,14.215 4.142,14.860 4.042 C 15.281 3.976,16.130 4.022,16.563 4.133 " stroke="none" fill-rule="evenodd" fill="black"></path></svg>