<svg viewBox="0 0 24 24" xmlns="http://www.w3.org/2000/svg"><path d="M11.000 2.500 L 11.000 4.000 12.000 4.000 L 13.000 4.000 13.000 2.500 L 13.000 1.000 12.000 1.000 L 11.000 1.000 11.000 2.500 M4.230 4.230 L 3.520 4.941 4.580 6.000 L 5.640 7.060 6.350 6.350 L 7.060 5.640 6.000 4.580 L 4.939 3.520 4.230 4.230 M18.000 4.580 L 16.940 5.640 17.650 6.350 L 18.360 7.060 19.420 6.000 L 20.480 4.939 19.770 4.230 L 19.059 3.520 18.000 4.580 M11.284 6.045 C 9.024 6.307,7.040 7.919,6.317 10.080 C 5.931 11.234,5.899 12.479,6.226 13.630 L 6.331 14.000 9.165 14.000 L 12.000 14.000 12.000 16.006 L 12.000 18.012 12.378 17.987 C 14.467 17.850,16.363 16.612,17.314 14.762 C 17.584 14.239,17.758 13.748,17.887 13.150 C 18.014 12.559,18.015 11.437,17.889 10.857 C 17.529 9.203,16.655 7.898,15.312 7.013 C 14.112 6.221,12.697 5.881,11.284 6.045 M1.000 12.000 L 1.000 13.000 2.500 13.000 L 4.000 13.000 4.000 12.000 L 4.000 11.000 2.500 11.000 L 1.000 11.000 1.000 12.000 M20.000 12.000 L 20.000 13.000 21.500 13.000 L 23.000 13.000 23.000 12.000 L 23.000 11.000 21.500 11.000 L 20.000 11.000 20.000 12.000 M2.000 17.000 L 2.000 18.000 6.000 18.000 L 10.000 18.000 10.000 17.000 L 10.000 16.000 6.000 16.000 L 2.000 16.000 2.000 17.000 M17.640 17.660 L 16.941 18.360 18.000 19.420 L 19.059 20.480 19.770 19.770 L 20.480 19.061 19.430 18.010 C 18.853 17.433,18.371 16.960,18.360 16.960 C 18.348 16.960,18.024 17.275,17.640 17.660 M6.000 21.000 L 6.000 22.000 10.500 22.000 L 15.000 22.000 15.000 21.000 L 15.000 20.000 10.500 20.000 L 6.000 20.000 6.000 21.000 " stroke="none" fill-rule="evenodd" fill="black"></path></svg>