<svg viewBox="0 0 24 24" xmlns="http://www.w3.org/2000/svg"><path d="M11.433 1.040 C 10.843 1.134,10.221 1.380,9.731 1.712 C 8.965 2.233,8.407 3.019,8.131 3.968 L 8.023 4.340 8.008 7.300 L 7.992 10.260 7.632 10.540 C 6.480 11.437,5.587 12.820,5.217 14.282 C 4.714 16.276,5.111 18.381,6.312 20.080 C 6.656 20.567,7.433 21.344,7.920 21.688 C 10.923 23.811,15.015 23.296,17.353 20.500 C 18.809 18.760,19.335 16.469,18.783 14.282 C 18.413 12.820,17.520 11.436,16.368 10.540 L 16.008 10.260 15.993 7.320 L 15.979 4.380 15.873 3.995 C 15.613 3.047,15.045 2.239,14.269 1.712 C 13.917 1.473,13.343 1.214,12.958 1.120 C 12.572 1.026,11.783 0.984,11.433 1.040 M15.984 16.310 C 15.924 16.994,15.671 17.704,15.288 18.269 C 14.760 19.046,13.946 19.617,13.005 19.871 C 12.669 19.962,12.542 19.975,12.000 19.975 C 11.458 19.975,11.331 19.962,10.995 19.871 C 9.338 19.424,8.167 18.025,8.016 16.310 L 7.989 16.000 12.000 16.000 L 16.011 16.000 15.984 16.310 " stroke="none" fill-rule="evenodd" fill="black"></path></svg>