<svg viewBox="0 0 24 24" xmlns="http://www.w3.org/2000/svg"><path d="M8.260 2.039 C 6.294 2.250,4.580 3.074,3.259 4.445 C 2.100 5.647,1.386 7.078,1.094 8.780 C 0.998 9.340,0.998 10.668,1.093 11.220 C 1.405 13.026,2.180 14.515,3.446 15.741 C 4.388 16.654,5.432 17.272,6.670 17.652 L 7.000 17.754 7.000 16.707 L 6.999 15.660 6.710 15.545 C 6.021 15.270,5.339 14.812,4.763 14.237 C 3.922 13.397,3.374 12.374,3.115 11.160 C 2.986 10.555,2.986 9.445,3.115 8.840 C 3.604 6.541,5.289 4.760,7.508 4.197 C 10.210 3.511,12.995 4.747,14.299 7.209 C 14.686 7.940,14.889 8.637,14.968 9.507 L 15.015 10.033 15.193 9.877 C 15.596 9.522,16.087 9.260,16.620 9.115 C 17.069 8.992,17.924 8.990,18.364 9.111 C 19.609 9.451,20.553 10.391,20.885 11.622 C 21.008 12.079,21.009 12.928,20.886 13.378 C 20.575 14.517,19.730 15.425,18.629 15.803 C 18.210 15.947,17.879 15.999,17.390 16.000 L 17.000 16.000 17.000 17.006 L 17.000 18.012 17.630 17.988 C 19.237 17.926,20.634 17.273,21.627 16.120 C 22.763 14.802,23.217 13.096,22.877 11.428 C 22.484 9.499,21.150 7.965,19.289 7.305 C 18.600 7.060,17.633 6.962,16.760 7.050 L 16.460 7.080 16.222 6.576 C 15.226 4.463,13.334 2.885,11.075 2.282 C 10.825 2.216,10.440 2.134,10.220 2.100 C 9.729 2.025,8.692 1.993,8.260 2.039 M10.499 14.752 L 8.018 17.980 9.509 17.990 L 10.999 18.001 11.010 20.242 L 11.020 22.482 13.505 19.251 L 15.991 16.020 14.496 16.010 L 13.001 15.999 12.990 13.762 L 12.980 11.524 10.499 14.752 " stroke="none" fill-rule="evenodd" fill="black"></path></svg>