<svg viewBox="0 0 24 24" xmlns="http://www.w3.org/2000/svg"><path d="M2.000 4.000 L 2.000 5.000 12.000 5.000 L 22.000 5.000 22.000 4.000 L 22.000 3.000 12.000 3.000 L 2.000 3.000 2.000 4.000 M4.000 8.000 L 4.000 9.000 12.000 9.000 L 20.000 9.000 20.000 8.000 L 20.000 7.000 12.000 7.000 L 4.000 7.000 4.000 8.000 M8.000 12.000 L 8.000 13.000 15.000 13.000 L 22.000 13.000 22.000 12.000 L 22.000 11.000 15.000 11.000 L 8.000 11.000 8.000 12.000 M10.000 16.000 L 10.000 17.000 14.000 17.000 L 18.000 17.000 18.000 16.000 L 18.000 15.000 14.000 15.000 L 10.000 15.000 10.000 16.000 M8.000 20.000 L 8.000 21.000 11.000 21.000 L 14.000 21.000 14.000 20.000 L 14.000 19.000 11.000 19.000 L 8.000 19.000 8.000 20.000 " stroke="none" fill-rule="evenodd" fill="black"></path></svg>