<svg viewBox="0 0 24 24" xmlns="http://www.w3.org/2000/svg"><path d="M8.575 3.690 C 5.024 7.249,4.854 7.435,4.309 8.320 C 3.844 9.076,3.395 10.202,3.203 11.092 C 2.335 15.121,4.327 19.243,8.020 21.062 C 9.325 21.705,10.509 21.978,12.000 21.978 C 12.909 21.978,13.413 21.919,14.204 21.720 C 17.395 20.917,19.909 18.402,20.721 15.201 C 20.889 14.542,20.959 14.038,20.987 13.300 C 21.068 11.185,20.393 9.135,19.042 7.393 C 18.819 7.105,12.062 0.280,12.000 0.280 C 11.987 0.280,10.446 1.814,8.575 3.690 M9.750 8.768 C 10.047 8.878,10.367 9.183,10.529 9.512 C 10.649 9.756,10.660 9.810,10.660 10.159 C 10.660 10.487,10.645 10.571,10.556 10.760 C 10.401 11.087,10.158 11.336,9.849 11.489 C 9.600 11.611,9.553 11.620,9.181 11.620 C 8.822 11.620,8.756 11.608,8.550 11.507 C 7.790 11.134,7.481 10.227,7.860 9.481 C 8.210 8.790,8.999 8.492,9.750 8.768 M12.710 13.710 L 9.180 17.240 8.470 16.530 L 7.760 15.821 11.290 12.290 L 14.820 8.760 15.530 9.470 L 16.240 10.179 12.710 13.710 M15.417 14.497 C 15.742 14.656,15.979 14.887,16.129 15.191 C 16.251 15.440,16.260 15.487,16.260 15.859 C 16.260 16.209,16.247 16.288,16.155 16.480 C 15.942 16.927,15.564 17.218,15.065 17.320 C 14.437 17.448,13.773 17.101,13.471 16.488 C 13.351 16.244,13.340 16.190,13.340 15.841 C 13.340 15.513,13.355 15.429,13.445 15.235 C 13.636 14.829,13.981 14.530,14.397 14.412 C 14.682 14.331,15.160 14.371,15.417 14.497 " stroke="none" fill-rule="evenodd" fill="black"></path></svg>