<svg viewBox="0 0 24 24" xmlns="http://www.w3.org/2000/svg"><path d="M12.982 2.042 C 11.842 2.221,10.861 2.941,10.356 3.970 C 10.274 4.137,10.238 4.252,10.262 4.273 C 10.313 4.319,12.078 4.975,12.096 4.955 C 12.104 4.947,12.147 4.867,12.192 4.778 C 12.314 4.535,12.588 4.283,12.880 4.144 C 13.111 4.034,13.181 4.020,13.501 4.020 C 13.827 4.020,13.887 4.032,14.125 4.150 C 14.443 4.306,14.724 4.592,14.872 4.911 C 14.963 5.106,14.979 5.194,14.979 5.500 C 14.979 5.807,14.963 5.894,14.872 6.090 C 14.722 6.411,14.414 6.724,14.109 6.865 L 13.860 6.980 9.160 7.002 C 3.923 7.026,4.349 7.002,3.704 7.312 C 2.260 8.006,1.627 9.660,2.234 11.151 C 2.516 11.844,3.146 12.482,3.820 12.755 C 4.413 12.995,3.807 12.976,11.661 12.999 L 18.862 13.020 19.125 13.150 C 19.443 13.306,19.724 13.592,19.872 13.911 C 19.963 14.106,19.979 14.194,19.979 14.500 C 19.979 14.807,19.963 14.894,19.872 15.090 C 19.722 15.411,19.414 15.724,19.109 15.865 C 18.893 15.965,18.812 15.980,18.500 15.980 C 18.181 15.980,18.111 15.966,17.880 15.857 C 17.585 15.717,17.286 15.436,17.180 15.199 C 17.140 15.112,17.097 15.040,17.084 15.040 C 17.043 15.041,15.274 15.713,15.250 15.737 C 15.237 15.750,15.270 15.854,15.323 15.968 C 15.749 16.884,16.544 17.561,17.548 17.866 C 17.856 17.959,17.973 17.973,18.480 17.976 C 18.972 17.979,19.109 17.966,19.380 17.889 C 20.366 17.607,21.185 16.940,21.618 16.066 C 22.609 14.063,21.554 11.728,19.378 11.111 L 19.060 11.020 11.900 11.000 L 4.740 10.980 4.550 10.886 C 4.323 10.774,4.145 10.570,4.061 10.325 C 3.899 9.849,4.108 9.331,4.550 9.114 L 4.740 9.020 9.420 9.000 L 14.100 8.979 14.452 8.869 C 15.669 8.489,16.516 7.639,16.862 6.452 C 17.208 5.264,16.879 3.973,16.000 3.078 C 15.507 2.576,15.005 2.280,14.364 2.116 C 14.010 2.025,13.323 1.988,12.982 2.042 M4.000 15.997 L 4.000 16.998 7.430 17.009 L 10.860 17.020 11.089 17.127 C 11.408 17.277,11.694 17.558,11.850 17.875 C 11.968 18.113,11.980 18.172,11.979 18.499 C 11.979 18.806,11.963 18.895,11.872 19.090 C 11.722 19.411,11.414 19.724,11.109 19.865 C 10.893 19.965,10.812 19.980,10.500 19.980 C 10.181 19.980,10.111 19.966,9.880 19.857 C 9.585 19.717,9.286 19.436,9.180 19.199 C 9.140 19.112,9.097 19.040,9.084 19.040 C 9.043 19.041,7.274 19.713,7.250 19.737 C 7.237 19.750,7.270 19.854,7.323 19.968 C 7.749 20.884,8.544 21.561,9.548 21.866 C 9.856 21.959,9.973 21.973,10.480 21.976 C 10.972 21.979,11.109 21.966,11.380 21.889 C 12.366 21.607,13.185 20.940,13.618 20.066 C 14.609 18.063,13.552 15.724,11.378 15.111 C 11.061 15.022,11.047 15.021,7.530 15.009 L 4.000 14.997 4.000 15.997 " stroke="none" fill-rule="evenodd" fill="black"></path></svg>