<svg viewBox="0 0 24 24" xmlns="http://www.w3.org/2000/svg"><path d="M9.664 2.063 C 9.436 2.146,9.257 2.297,9.131 2.511 C 9.024 2.693,9.020 2.723,9.007 3.349 L 8.993 3.997 7.365 4.009 L 5.738 4.020 5.539 4.122 C 5.316 4.237,5.104 4.488,5.042 4.711 C 4.984 4.918,4.984 21.082,5.042 21.289 C 5.104 21.512,5.316 21.763,5.539 21.878 L 5.738 21.980 11.937 21.990 C 18.906 22.002,18.378 22.025,18.700 21.702 C 19.018 21.384,19.000 21.668,19.000 16.972 L 19.000 12.799 17.000 14.400 L 15.000 16.001 15.000 14.500 L 15.000 13.000 14.422 13.000 C 13.754 13.000,13.520 13.040,13.160 13.214 C 12.825 13.376,12.374 13.815,12.224 14.125 C 12.009 14.571,12.001 14.650,12.000 16.390 L 12.000 18.000 10.997 18.000 L 9.994 18.000 10.010 16.190 C 10.026 14.192,10.030 14.156,10.315 13.479 C 10.618 12.758,11.294 11.976,11.952 11.584 C 12.668 11.158,13.321 11.000,14.370 11.000 L 15.000 11.000 15.000 9.500 L 15.000 7.999 17.000 9.600 L 19.000 11.201 19.000 8.028 C 19.000 4.452,19.013 4.611,18.701 4.299 C 18.409 4.006,18.362 4.000,16.573 4.000 L 15.000 4.000 15.000 3.427 C 15.000 2.741,14.948 2.546,14.701 2.299 C 14.398 1.996,14.430 2.000,11.983 2.003 C 10.210 2.005,9.792 2.016,9.664 2.063 " stroke="none" fill-rule="evenodd" fill="black"></path></svg>