<svg viewBox="0 0 24 24" xmlns="http://www.w3.org/2000/svg"><path d="M2.664 5.063 C 2.436 5.146,2.257 5.297,2.131 5.511 L 2.020 5.700 2.020 12.000 L 2.020 18.300 2.131 18.489 C 2.192 18.592,2.301 18.723,2.374 18.778 C 2.684 19.015,2.106 19.000,10.998 19.000 C 20.144 19.000,19.376 19.026,19.701 18.701 C 20.023 18.379,20.000 18.903,20.000 12.000 C 20.000 5.097,20.023 5.621,19.701 5.299 C 19.376 4.973,20.147 5.000,10.983 5.003 C 4.003 5.005,2.797 5.014,2.664 5.063 M9.000 12.000 L 9.000 16.000 7.000 16.000 L 5.000 16.000 5.000 12.000 L 5.000 8.000 7.000 8.000 L 9.000 8.000 9.000 12.000 M21.000 12.000 L 21.000 15.000 22.000 15.000 L 23.000 15.000 23.000 12.000 L 23.000 9.000 22.000 9.000 L 21.000 9.000 21.000 12.000 " stroke="none" fill-rule="evenodd" fill="black"></path></svg>