<svg viewBox="0 0 24 24" xmlns="http://www.w3.org/2000/svg"><path d="M9.664 2.063 C 9.436 2.146,9.257 2.297,9.131 2.511 C 9.024 2.693,9.020 2.723,9.007 3.349 L 8.993 3.997 7.365 4.009 L 5.738 4.020 5.539 4.122 C 5.316 4.237,5.104 4.488,5.042 4.711 C 4.984 4.918,4.984 21.082,5.042 21.289 C 5.104 21.512,5.316 21.763,5.539 21.878 L 5.738 21.980 11.937 21.990 C 18.906 22.002,18.378 22.025,18.700 21.702 C 19.027 21.376,19.000 22.146,19.000 13.000 C 19.000 3.856,19.026 4.624,18.701 4.299 C 18.409 4.006,18.362 4.000,16.573 4.000 L 15.000 4.000 15.000 3.427 C 15.000 2.741,14.948 2.546,14.701 2.299 C 14.398 1.996,14.430 2.000,11.983 2.003 C 10.210 2.005,9.792 2.016,9.664 2.063 M14.499 12.000 L 15.997 12.000 13.509 15.484 L 11.020 18.968 11.010 16.484 L 10.999 14.000 9.501 14.000 L 8.003 14.000 10.491 10.516 L 12.980 7.032 12.990 9.516 L 13.001 12.000 14.499 12.000 " stroke="none" fill-rule="evenodd" fill="black"></path></svg>