<svg viewBox="0 0 24 24" xmlns="http://www.w3.org/2000/svg"><path d="M2.664 3.063 C 2.436 3.146,2.257 3.297,2.131 3.511 L 2.020 3.700 2.009 5.844 L 1.997 7.989 2.529 8.016 C 3.072 8.045,3.694 8.103,3.890 8.143 L 4.000 8.166 4.000 6.583 L 4.000 5.000 12.000 5.000 L 20.000 5.000 20.000 12.000 L 20.000 19.000 17.417 19.000 L 14.834 19.000 14.857 19.110 C 14.897 19.306,14.955 19.927,14.984 20.470 L 15.011 21.000 18.079 21.000 C 21.535 21.000,21.390 21.012,21.701 20.701 C 22.026 20.376,22.000 21.144,22.000 12.000 C 22.000 2.856,22.026 3.624,21.701 3.299 C 21.375 2.972,22.267 3.000,11.983 3.003 C 4.135 3.005,2.798 3.014,2.664 3.063 M6.000 7.817 L 6.000 8.634 6.210 8.702 C 7.258 9.045,8.624 9.750,9.590 10.447 C 10.658 11.217,11.664 12.211,12.454 13.275 C 13.194 14.273,13.939 15.694,14.298 16.790 L 14.366 17.000 16.183 17.000 L 18.000 17.000 18.000 12.000 L 18.000 7.000 12.000 7.000 L 6.000 7.000 6.000 7.817 M2.000 10.988 L 2.000 11.989 2.450 12.016 C 4.739 12.156,6.781 13.063,8.359 14.641 C 9.937 16.219,10.844 18.261,10.984 20.550 L 11.011 21.000 12.012 21.000 L 13.012 21.000 12.985 20.469 C 12.874 18.244,12.119 16.165,10.769 14.363 C 10.394 13.863,9.360 12.795,8.899 12.432 C 7.018 10.951,4.882 10.143,2.510 10.016 L 2.000 9.988 2.000 10.988 M2.000 14.992 L 2.000 15.984 2.470 16.031 C 3.076 16.093,3.599 16.235,4.104 16.476 C 4.678 16.751,5.083 17.036,5.524 17.476 C 6.364 18.317,6.848 19.339,6.969 20.530 L 7.016 21.000 8.008 21.000 L 9.000 21.000 9.000 20.782 C 9.000 20.448,8.891 19.691,8.783 19.274 C 8.037 16.405,5.632 14.340,2.686 14.042 C 2.458 14.019,2.210 14.000,2.136 14.000 L 2.000 14.000 2.000 14.992 M2.000 19.494 L 2.000 21.000 3.500 21.000 L 5.000 21.000 5.000 20.858 C 5.000 20.634,4.887 20.145,4.766 19.849 C 4.492 19.176,3.956 18.624,3.260 18.298 C 2.861 18.112,2.670 18.057,2.270 18.017 L 2.000 17.989 2.000 19.494 " stroke="none" fill-rule="evenodd" fill="black"></path></svg>