<svg viewBox="0 0 24 24" xmlns="http://www.w3.org/2000/svg"><path d="M5.000 10.570 C 5.000 17.728,5.014 21.188,5.042 21.289 C 5.104 21.512,5.316 21.763,5.539 21.878 L 5.738 21.980 11.937 21.990 C 18.906 22.002,18.378 22.025,18.700 21.702 C 19.028 21.375,19.000 22.267,19.000 12.000 C 19.000 1.736,19.027 2.625,18.701 2.299 C 18.380 1.978,18.834 2.000,12.573 2.000 L 7.000 2.000 7.000 1.000 L 7.000 0.000 6.000 0.000 L 5.000 0.000 5.000 10.570 M17.000 6.500 L 17.000 9.000 12.000 9.000 L 7.000 9.000 7.000 6.500 L 7.000 4.000 12.000 4.000 L 17.000 4.000 17.000 6.500 M17.000 15.500 L 17.000 20.000 12.000 20.000 L 7.000 20.000 7.000 15.500 L 7.000 11.000 12.000 11.000 L 17.000 11.000 17.000 15.500 " stroke="none" fill-rule="evenodd" fill="black"></path></svg>