<svg viewBox="0 0 24 24" xmlns="http://www.w3.org/2000/svg"><path d="M11.080 3.023 C 8.852 3.172,7.050 3.606,5.598 4.344 C 4.197 5.056,3.334 5.947,3.079 6.945 C 2.932 7.519,3.010 8.081,3.319 8.671 C 4.112 10.188,6.560 11.417,9.620 11.837 C 13.585 12.382,17.798 11.507,19.820 9.721 C 20.576 9.052,21.000 8.254,21.000 7.500 C 21.000 6.958,20.718 6.253,20.310 5.773 C 19.129 4.388,16.832 3.438,13.840 3.100 C 13.325 3.042,11.545 2.992,11.080 3.023 M3.003 11.244 C 3.000 12.955,3.018 13.096,3.319 13.671 C 4.112 15.188,6.560 16.417,9.620 16.837 C 13.585 17.382,17.798 16.507,19.820 14.721 C 20.407 14.201,20.767 13.657,20.921 13.055 C 20.993 12.774,21.000 12.615,20.997 11.244 C 20.994 9.863,20.989 9.761,20.938 9.995 C 20.780 10.726,20.212 11.473,19.338 12.102 C 18.923 12.401,17.879 12.931,17.300 13.137 C 14.057 14.290,9.943 14.290,6.700 13.137 C 6.121 12.931,5.077 12.401,4.660 12.101 C 3.788 11.475,3.221 10.727,3.062 9.995 C 3.011 9.761,3.006 9.863,3.003 11.244 M3.003 16.244 C 3.000 17.955,3.018 18.096,3.319 18.671 C 4.112 20.188,6.560 21.417,9.620 21.837 C 13.585 22.382,17.798 21.507,19.820 19.721 C 20.407 19.201,20.767 18.657,20.921 18.055 C 20.993 17.774,21.000 17.615,20.997 16.244 C 20.994 14.863,20.989 14.761,20.938 14.995 C 20.780 15.726,20.212 16.473,19.338 17.102 C 18.923 17.401,17.879 17.931,17.300 18.137 C 14.057 19.290,9.943 19.290,6.700 18.137 C 6.121 17.931,5.077 17.401,4.660 17.101 C 3.788 16.475,3.221 15.727,3.062 14.995 C 3.011 14.761,3.006 14.863,3.003 16.244 " stroke="none" fill-rule="evenodd" fill="black"></path></svg>