<svg viewBox="0 0 24 24" xmlns="http://www.w3.org/2000/svg"><path d="M4.664 2.063 C 4.436 2.146,4.257 2.297,4.131 2.511 L 4.020 2.700 4.020 12.000 L 4.020 21.300 4.131 21.489 C 4.192 21.592,4.301 21.723,4.374 21.778 C 4.683 22.014,4.201 22.000,11.998 22.000 C 20.023 22.000,19.377 22.025,19.701 21.701 C 20.027 21.375,20.000 22.264,20.000 12.000 C 20.000 1.736,20.027 2.625,19.701 2.299 C 19.377 1.975,20.026 2.000,11.983 2.003 C 5.871 2.005,4.797 2.014,4.664 2.063 M18.000 12.000 L 18.000 20.000 12.000 20.000 L 6.000 20.000 6.000 12.000 L 6.000 4.000 12.000 4.000 L 18.000 4.000 18.000 12.000 M11.367 7.043 C 8.803 7.376,6.873 9.680,7.015 12.240 C 7.151 14.682,8.945 16.616,11.398 16.964 C 11.721 17.009,12.594 16.993,12.848 16.936 L 12.956 16.911 12.478 15.956 L 12.000 15.000 11.850 14.999 C 11.648 14.998,11.201 14.901,10.925 14.798 C 10.219 14.535,9.638 13.985,9.298 13.260 C 9.072 12.779,9.021 12.546,9.021 12.000 C 9.021 11.454,9.072 11.221,9.298 10.740 C 9.607 10.081,10.081 9.607,10.740 9.298 C 11.221 9.072,11.454 9.021,12.000 9.021 C 12.546 9.021,12.779 9.072,13.260 9.298 C 13.918 9.606,14.391 10.079,14.704 10.740 C 14.865 11.081,15.000 11.601,15.000 11.884 L 15.000 12.000 13.760 12.000 C 13.078 12.000,12.520 12.009,12.520 12.020 C 12.520 12.043,14.600 16.211,14.624 16.237 C 14.658 16.272,15.113 15.924,15.447 15.607 C 16.167 14.922,16.616 14.141,16.869 13.131 C 16.966 12.744,16.977 12.628,16.977 12.000 C 16.977 11.372,16.966 11.256,16.869 10.869 C 16.610 9.835,16.144 9.040,15.384 8.331 C 14.323 7.342,12.807 6.856,11.367 7.043 " stroke="none" fill-rule="evenodd" fill="black"></path></svg>