<svg viewBox="0 0 24 24" xmlns="http://www.w3.org/2000/svg"><path d="M4.664 2.063 C 4.436 2.146,4.257 2.297,4.131 2.511 L 4.020 2.700 4.020 12.000 L 4.020 21.300 4.131 21.489 C 4.192 21.592,4.301 21.723,4.374 21.778 C 4.683 22.014,4.201 22.000,11.998 22.000 C 20.025 22.000,19.377 22.025,19.702 21.700 C 20.026 21.376,20.002 22.002,19.990 14.139 C 19.980 7.339,19.978 7.135,19.903 6.980 C 19.853 6.874,19.010 6.000,17.425 4.410 L 15.022 2.000 9.921 2.003 C 5.598 2.005,4.796 2.014,4.664 2.063 M16.090 5.910 L 18.000 7.820 18.000 13.910 L 18.000 20.000 12.000 20.000 L 6.000 20.000 6.000 12.000 L 6.000 4.000 10.090 4.000 L 14.180 4.000 16.090 5.910 M11.331 7.580 C 10.101 7.848,9.131 8.953,9.016 10.218 L 8.989 10.520 9.989 10.520 L 10.990 10.520 11.016 10.356 C 11.053 10.127,11.170 9.915,11.345 9.761 C 11.550 9.581,11.715 9.520,12.000 9.520 C 12.285 9.520,12.450 9.581,12.655 9.761 C 12.888 9.966,12.978 10.171,12.978 10.500 C 12.978 11.001,13.120 10.845,10.607 13.100 L 9.002 14.540 9.001 15.270 L 9.000 16.000 12.000 16.000 L 15.000 16.000 15.000 15.000 L 15.000 14.000 13.799 14.000 L 12.599 14.000 13.417 13.260 C 14.445 12.331,14.709 11.974,14.908 11.240 C 15.018 10.834,15.007 10.067,14.886 9.680 C 14.559 8.630,13.763 7.862,12.731 7.598 C 12.370 7.505,11.713 7.497,11.331 7.580 " stroke="none" fill-rule="evenodd" fill="black"></path></svg>