<svg viewBox="0 0 24 24" xmlns="http://www.w3.org/2000/svg"><path d="M4.664 2.063 C 4.436 2.146,4.257 2.297,4.131 2.511 L 4.020 2.700 4.020 12.000 L 4.020 21.300 4.131 21.489 C 4.192 21.592,4.301 21.723,4.374 21.778 C 4.683 22.014,4.201 22.000,11.998 22.000 C 20.025 22.000,19.377 22.025,19.702 21.700 C 20.026 21.376,20.002 22.002,19.990 14.139 C 19.980 7.339,19.978 7.135,19.903 6.980 C 19.853 6.874,19.010 6.000,17.425 4.410 L 15.022 2.000 9.921 2.003 C 5.598 2.005,4.796 2.014,4.664 2.063 M12.731 7.598 C 13.588 7.817,14.298 8.393,14.679 9.180 C 14.912 9.659,14.975 9.941,14.976 10.500 C 14.977 10.877,14.958 11.047,14.888 11.292 C 14.683 12.012,14.443 12.333,13.417 13.260 L 12.599 14.000 13.799 14.000 L 15.000 14.000 15.000 15.000 L 15.000 16.000 12.000 16.000 L 9.000 16.000 9.001 15.270 L 9.003 14.540 10.411 13.274 C 13.149 10.814,12.978 11.000,12.978 10.500 C 12.978 10.171,12.888 9.966,12.655 9.761 C 12.450 9.581,12.285 9.520,12.000 9.520 C 11.715 9.520,11.550 9.581,11.345 9.761 C 11.170 9.915,11.053 10.127,11.016 10.356 L 10.990 10.520 9.990 10.520 L 8.990 10.520 9.017 10.239 C 9.146 8.935,10.091 7.850,11.336 7.579 C 11.713 7.497,12.372 7.506,12.731 7.598 " stroke="none" fill-rule="evenodd" fill="black"></path></svg>