<svg viewBox="0 0 24 24" xmlns="http://www.w3.org/2000/svg"><path d="M11.340 1.024 C 10.432 1.118,9.865 1.233,9.160 1.466 C 8.290 1.753,7.155 2.350,6.566 2.830 L 6.392 2.972 7.103 3.683 L 7.814 4.394 8.057 4.221 C 8.191 4.126,8.489 3.948,8.720 3.826 C 10.230 3.028,11.869 2.812,13.560 3.186 C 16.152 3.759,18.240 5.847,18.815 8.440 C 18.992 9.242,19.008 9.590,18.988 12.300 C 18.969 14.971,18.967 14.998,18.761 15.800 C 18.469 16.935,17.747 18.179,16.903 18.998 C 16.697 19.199,16.696 19.197,16.780 18.720 C 16.946 17.765,16.971 17.340,16.989 15.150 L 17.007 13.000 16.008 13.000 L 15.009 13.000 14.988 15.090 C 14.967 17.210,14.946 17.553,14.780 18.540 C 14.695 19.048,14.553 19.662,14.396 20.206 L 14.272 20.631 13.906 20.734 C 13.416 20.872,12.908 20.958,12.408 20.988 L 11.996 21.012 12.084 20.796 C 12.261 20.357,12.555 19.405,12.673 18.880 C 12.981 17.521,12.999 17.178,13.000 12.790 L 13.000 9.000 12.000 9.000 L 11.000 9.000 11.000 12.710 C 10.999 14.886,10.982 16.618,10.958 16.900 C 10.798 18.783,10.209 20.479,9.159 22.078 C 9.025 22.282,8.921 22.455,8.928 22.461 C 8.935 22.468,9.150 22.537,9.406 22.615 C 10.255 22.872,11.107 22.999,11.992 23.000 C 15.307 23.002,18.397 21.147,19.940 18.229 C 20.408 17.343,20.686 16.526,20.889 15.440 C 20.970 15.005,20.975 14.833,20.990 12.300 C 21.001 10.478,20.992 9.473,20.961 9.160 C 20.650 6.019,18.765 3.300,15.944 1.923 C 15.066 1.494,14.269 1.244,13.320 1.101 C 12.911 1.039,11.662 0.991,11.340 1.024 M4.900 4.455 C 3.798 5.987,3.208 7.465,3.042 9.114 C 2.973 9.792,2.987 14.391,3.059 15.008 C 3.299 17.057,4.201 18.924,5.645 20.362 C 6.232 20.947,7.023 21.560,7.117 21.502 C 7.208 21.445,7.798 20.511,8.027 20.060 C 8.429 19.268,8.706 18.435,8.886 17.480 C 8.969 17.037,8.973 16.885,8.998 13.260 C 9.021 9.871,9.031 9.476,9.093 9.260 C 9.411 8.150,10.228 7.348,11.320 7.075 C 11.635 6.996,12.434 7.007,12.753 7.094 C 13.809 7.384,14.593 8.171,14.910 9.260 C 14.948 9.389,14.976 9.732,14.989 10.230 L 15.009 11.000 16.010 11.000 L 17.010 11.000 16.989 10.130 C 16.966 9.152,16.895 8.761,16.617 8.089 C 15.782 6.072,13.687 4.813,11.530 5.031 C 10.888 5.097,10.389 5.238,9.820 5.517 C 8.591 6.120,7.688 7.140,7.263 8.407 C 7.018 9.137,7.030 8.928,6.999 13.040 C 6.968 17.253,6.981 17.040,6.672 18.110 C 6.574 18.451,6.579 18.452,6.262 18.003 C 5.667 17.159,5.241 16.082,5.073 15.000 C 4.997 14.513,4.997 9.487,5.073 9.000 C 5.234 7.963,5.620 6.953,6.170 6.131 L 6.387 5.807 5.683 5.103 C 5.296 4.716,4.970 4.400,4.959 4.400 C 4.949 4.400,4.922 4.425,4.900 4.455 " stroke="none" fill-rule="evenodd" fill="black"></path></svg>