<svg viewBox="0 0 24 24" xmlns="http://www.w3.org/2000/svg"><path d="M6.200 4.060 C 5.259 4.191,4.446 4.500,3.660 5.025 C 2.349 5.901,1.480 7.197,1.109 8.830 C 1.022 9.213,1.020 9.273,1.020 12.000 C 1.020 14.727,1.022 14.787,1.109 15.170 C 1.669 17.634,3.403 19.361,5.848 19.891 L 6.260 19.980 12.000 19.980 L 17.740 19.980 18.152 19.891 C 20.604 19.359,22.359 17.604,22.891 15.152 C 22.978 14.748,22.980 14.685,22.980 12.000 C 22.980 9.315,22.978 9.252,22.891 8.848 C 22.353 6.366,20.565 4.606,18.060 4.091 C 17.773 4.032,17.157 4.024,12.160 4.016 C 7.714 4.009,6.503 4.018,6.200 4.060 M10.000 10.000 L 10.000 11.000 11.000 11.000 L 12.000 11.000 12.000 12.000 L 12.000 13.000 11.000 13.000 L 10.000 13.000 10.000 14.000 L 10.000 15.000 9.000 15.000 L 8.000 15.000 8.000 14.000 L 8.000 13.000 7.000 13.000 L 6.000 13.000 6.000 12.000 L 6.000 11.000 7.000 11.000 L 8.000 11.000 8.000 10.000 L 8.000 9.000 9.000 9.000 L 10.000 9.000 10.000 10.000 M16.000 10.000 L 16.000 11.000 15.000 11.000 L 14.000 11.000 14.000 10.000 L 14.000 9.000 15.000 9.000 L 16.000 9.000 16.000 10.000 M18.000 14.000 L 18.000 15.000 17.000 15.000 L 16.000 15.000 16.000 14.000 L 16.000 13.000 17.000 13.000 L 18.000 13.000 18.000 14.000 " stroke="none" fill-rule="evenodd" fill="black"></path></svg>