<svg viewBox="0 0 24 24" xmlns="http://www.w3.org/2000/svg"><path d="M11.120 2.039 C 10.299 2.121,9.443 2.304,8.751 2.545 C 5.354 3.728,2.866 6.592,2.185 10.103 C 1.632 12.961,2.330 15.834,4.152 18.200 C 4.533 18.694,5.429 19.570,5.960 19.967 C 6.372 20.276,7.055 20.720,7.117 20.720 C 7.130 20.720,7.440 20.120,7.806 19.388 L 8.472 18.055 8.106 17.812 C 5.706 16.219,4.552 13.306,5.186 10.440 C 5.534 8.866,6.480 7.399,7.776 6.425 C 10.164 4.629,13.417 4.534,15.888 6.187 C 17.402 7.201,18.448 8.740,18.834 10.523 C 19.440 13.319,18.262 16.241,15.894 17.812 L 15.528 18.055 16.194 19.388 C 16.560 20.120,16.870 20.720,16.883 20.720 C 16.945 20.720,17.628 20.276,18.040 19.967 C 18.571 19.570,19.467 18.694,19.848 18.200 C 22.299 15.018,22.687 10.883,20.863 7.377 C 19.554 4.861,17.162 2.974,14.430 2.303 C 13.446 2.062,12.028 1.948,11.120 2.039 M11.360 7.044 C 10.348 7.175,9.315 7.667,8.574 8.371 C 7.840 9.068,7.385 9.856,7.131 10.869 C 7.034 11.256,7.023 11.372,7.023 12.000 C 7.023 12.628,7.034 12.744,7.131 13.131 C 7.384 14.141,7.833 14.922,8.553 15.607 C 8.887 15.923,9.342 16.272,9.376 16.237 C 9.384 16.227,9.691 15.620,10.057 14.887 L 10.723 13.554 10.523 13.335 C 9.787 12.531,9.848 11.269,10.658 10.529 C 11.708 9.569,13.397 9.996,13.885 11.343 C 14.002 11.664,14.011 12.284,13.905 12.600 C 13.805 12.898,13.660 13.142,13.451 13.366 L 13.276 13.553 13.942 14.886 C 14.309 15.620,14.616 16.227,14.624 16.237 C 14.658 16.272,15.113 15.923,15.447 15.607 C 16.172 14.918,16.614 14.148,16.869 13.131 C 16.966 12.744,16.977 12.628,16.977 12.000 C 16.977 11.372,16.966 11.256,16.869 10.869 C 16.615 9.856,16.160 9.068,15.426 8.371 C 14.356 7.355,12.823 6.854,11.360 7.044 M10.490 19.020 L 9.000 22.000 12.000 22.000 L 15.000 22.000 13.510 19.020 C 12.691 17.381,12.011 16.040,12.000 16.040 C 11.989 16.040,11.309 17.381,10.490 19.020 " stroke="none" fill-rule="evenodd" fill="black"></path></svg>