<svg viewBox="0 0 24 24" xmlns="http://www.w3.org/2000/svg"><path d="M13.000 1.995 L 13.000 2.990 13.370 3.018 C 14.481 3.103,15.451 3.430,16.325 4.014 C 17.243 4.628,17.931 5.428,18.423 6.455 C 18.746 7.129,18.918 7.800,18.982 8.630 L 19.010 9.000 20.005 9.000 L 21.000 9.000 21.000 8.770 C 20.999 8.161,20.832 7.225,20.595 6.500 C 19.716 3.813,17.407 1.747,14.647 1.179 C 14.202 1.087,13.473 1.000,13.150 1.000 L 13.000 1.000 13.000 1.995 M4.664 2.063 C 4.436 2.146,4.257 2.297,4.131 2.511 L 4.020 2.700 4.010 11.914 C 4.003 18.175,4.013 21.178,4.041 21.283 C 4.102 21.509,4.313 21.761,4.539 21.878 L 4.738 21.980 10.937 21.990 C 17.906 22.002,17.378 22.025,17.700 21.702 C 18.021 21.381,18.000 21.776,18.000 16.073 L 18.000 11.000 14.500 11.000 L 11.000 11.000 11.000 6.500 L 11.000 2.000 7.910 2.003 C 5.333 2.005,4.794 2.015,4.664 2.063 M13.000 4.994 L 13.000 5.989 13.270 6.017 C 13.670 6.057,13.861 6.112,14.260 6.298 C 14.917 6.606,15.391 7.078,15.704 7.740 C 15.865 8.081,16.000 8.601,16.000 8.884 L 16.000 9.000 17.006 9.000 L 18.012 9.000 17.986 8.630 C 17.860 6.843,16.771 5.273,15.104 4.476 C 14.533 4.204,13.690 4.000,13.131 4.000 L 13.000 4.000 13.000 4.994 M13.000 7.995 L 13.000 9.000 14.000 9.000 L 15.000 9.000 15.000 8.902 C 15.000 8.528,14.772 7.987,14.478 7.666 C 14.140 7.295,13.724 7.080,13.230 7.019 L 13.000 6.991 13.000 7.995 " stroke="none" fill-rule="evenodd" fill="black"></path></svg>