<svg viewBox="0 0 24 24" xmlns="http://www.w3.org/2000/svg"><path d="M3.664 2.063 C 3.436 2.146,3.257 2.297,3.131 2.511 L 3.020 2.700 3.020 12.000 L 3.020 21.300 3.131 21.489 C 3.192 21.592,3.301 21.723,3.374 21.778 C 3.684 22.015,3.106 22.000,11.998 22.000 C 21.144 22.000,20.376 22.026,20.701 21.701 C 21.027 21.375,21.000 22.264,21.000 12.000 C 21.000 1.736,21.027 2.625,20.701 2.299 C 20.387 1.985,20.595 2.000,16.573 2.000 L 13.000 2.000 13.000 4.500 L 13.000 7.000 14.510 7.000 L 16.020 7.000 14.020 9.000 L 12.020 11.000 10.030 9.010 L 8.040 7.020 9.520 7.010 L 11.000 6.999 11.000 4.500 L 11.000 2.000 7.410 2.003 C 4.399 2.005,3.795 2.015,3.664 2.063 M19.000 18.000 L 19.000 20.000 12.000 20.000 L 5.000 20.000 5.000 18.000 L 5.000 16.000 12.000 16.000 L 19.000 16.000 19.000 18.000 M15.000 18.000 L 15.000 19.000 16.000 19.000 L 17.000 19.000 17.000 18.000 L 17.000 17.000 16.000 17.000 L 15.000 17.000 15.000 18.000 " stroke="none" fill-rule="evenodd" fill="black"></path></svg>