<svg viewBox="0 0 24 24" xmlns="http://www.w3.org/2000/svg"><path d="M7.240 3.753 L 2.500 6.501 2.490 11.990 L 2.480 17.479 2.630 17.573 C 2.712 17.625,4.854 18.867,7.389 20.335 L 11.999 23.002 16.749 20.251 L 21.500 17.500 21.500 12.002 L 21.500 6.503 16.747 3.752 C 14.133 2.238,11.991 1.001,11.987 1.003 C 11.983 1.004,9.847 2.242,7.240 3.753 M15.740 5.477 L 19.460 7.632 19.460 12.002 L 19.460 16.372 15.740 18.526 C 13.694 19.711,12.011 20.680,12.000 20.680 C 11.989 20.680,10.306 19.711,8.260 18.526 L 4.540 16.372 4.540 12.002 L 4.540 7.632 8.260 5.477 C 10.306 4.291,11.989 3.322,12.000 3.322 C 12.011 3.322,13.694 4.291,15.740 5.477 M7.017 9.069 C 6.755 9.522,6.535 9.913,6.529 9.938 C 6.523 9.963,7.526 10.567,8.759 11.280 L 11.000 12.578 11.000 15.109 L 11.000 17.640 12.000 17.640 L 13.000 17.640 13.000 15.110 L 13.000 12.579 15.242 11.282 C 16.474 10.569,17.478 9.966,17.472 9.942 C 17.448 9.853,16.504 8.245,16.482 8.257 C 16.470 8.264,15.457 8.849,14.230 9.557 L 12.001 10.846 9.770 9.557 C 8.544 8.849,7.530 8.264,7.517 8.257 C 7.505 8.250,7.280 8.615,7.017 9.069 " stroke="none" fill-rule="evenodd" fill="black"></path></svg>