<svg viewBox="0 0 24 24" xmlns="http://www.w3.org/2000/svg"><path d="M3.683 3.069 C 3.439 3.155,3.188 3.417,3.096 3.684 C 3.029 3.876,3.021 4.027,3.022 5.060 C 3.023 6.591,3.149 7.619,3.501 8.982 C 4.227 11.790,5.627 14.232,7.698 16.302 C 10.271 18.876,13.396 20.405,17.069 20.888 C 17.625 20.961,17.942 20.976,18.920 20.978 C 20.283 20.980,20.403 20.959,20.700 20.662 C 21.000 20.362,21.000 20.361,20.999 18.203 C 20.999 16.761,20.987 16.276,20.949 16.201 C 20.862 16.029,20.670 15.933,20.352 15.902 C 19.267 15.797,17.577 15.346,16.515 14.879 C 16.309 14.788,16.059 14.686,15.960 14.652 C 15.633 14.541,15.585 14.583,14.839 15.625 C 14.479 16.128,14.116 16.634,14.032 16.748 L 13.881 16.956 13.491 16.775 C 10.761 15.508,8.514 13.245,7.191 10.433 C 7.058 10.150,7.052 10.122,7.113 10.069 C 7.150 10.038,7.652 9.676,8.230 9.264 C 9.267 8.526,9.400 8.404,9.400 8.200 C 9.400 8.153,9.301 7.892,9.180 7.618 C 8.662 6.449,8.269 5.028,8.118 3.780 C 8.062 3.321,8.007 3.188,7.828 3.078 C 7.706 3.004,7.617 3.000,5.780 3.003 C 4.148 3.006,3.833 3.016,3.683 3.069 " stroke="none" fill-rule="evenodd" fill="black"></path></svg>