<svg viewBox="0 0 24 24" xmlns="http://www.w3.org/2000/svg"><path d="M3.000 7.000 L 3.000 11.000 7.000 11.000 L 11.000 11.000 11.000 7.000 L 11.000 3.000 7.000 3.000 L 3.000 3.000 3.000 7.000 M13.000 7.000 L 13.000 11.000 17.000 11.000 L 21.000 11.000 21.000 7.000 L 21.000 3.000 17.000 3.000 L 13.000 3.000 13.000 7.000 M8.000 7.000 L 8.000 8.000 7.000 8.000 L 6.000 8.000 6.000 7.000 L 6.000 6.000 7.000 6.000 L 8.000 6.000 8.000 7.000 M18.000 7.000 L 18.000 8.000 17.000 8.000 L 16.000 8.000 16.000 7.000 L 16.000 6.000 17.000 6.000 L 18.000 6.000 18.000 7.000 M3.000 17.000 L 3.000 21.000 7.000 21.000 L 11.000 21.000 11.000 17.000 L 11.000 13.000 7.000 13.000 L 3.000 13.000 3.000 17.000 M13.000 14.500 L 13.000 16.000 14.500 16.000 L 16.000 16.000 16.000 16.500 L 16.000 17.000 15.500 17.000 L 15.000 17.000 15.000 17.500 L 15.000 18.000 14.000 18.000 L 13.000 18.000 13.000 19.500 L 13.000 21.000 14.000 21.000 L 15.000 21.000 15.000 20.000 L 15.000 19.000 16.000 19.000 L 17.000 19.000 17.000 20.000 L 17.000 21.000 19.000 21.000 L 21.000 21.000 21.000 19.000 L 21.000 17.000 20.000 17.000 L 19.000 17.000 19.000 18.000 L 19.000 19.000 18.000 19.000 L 17.000 19.000 17.000 18.000 L 17.000 17.000 17.500 17.000 L 18.000 17.000 18.000 16.000 L 18.000 15.000 19.500 15.000 L 21.000 15.000 21.000 14.000 L 21.000 13.000 19.500 13.000 L 18.000 13.000 18.000 14.000 L 18.000 15.000 17.000 15.000 L 16.000 15.000 16.000 14.000 L 16.000 13.000 14.500 13.000 L 13.000 13.000 13.000 14.500 M8.000 17.000 L 8.000 18.000 7.000 18.000 L 6.000 18.000 6.000 17.000 L 6.000 16.000 7.000 16.000 L 8.000 16.000 8.000 17.000 " stroke="none" fill-rule="evenodd" fill="black"></path></svg>