<svg viewBox="0 0 24 24" xmlns="http://www.w3.org/2000/svg"><path d="M3.879 4.590 C 2.413 6.154,1.431 8.251,1.094 10.540 C 0.995 11.213,0.995 12.787,1.094 13.460 C 1.432 15.753,2.429 17.880,3.885 19.413 L 4.220 19.765 4.918 19.064 L 5.616 18.363 5.447 18.172 C 4.804 17.440,4.389 16.853,4.027 16.160 C 3.574 15.294,3.247 14.284,3.094 13.280 C 2.997 12.646,2.997 11.354,3.094 10.720 C 3.369 8.916,4.121 7.320,5.336 5.959 L 5.639 5.620 4.950 4.930 C 4.571 4.551,4.249 4.240,4.234 4.240 C 4.219 4.240,4.060 4.397,3.879 4.590 M19.050 4.930 L 18.361 5.620 18.664 5.959 C 19.657 7.071,20.344 8.343,20.699 9.727 C 20.917 10.574,20.977 11.065,20.977 12.000 C 20.977 12.935,20.917 13.426,20.699 14.273 C 20.332 15.702,19.676 16.895,18.553 18.172 L 18.384 18.363 19.082 19.064 L 19.780 19.765 20.082 19.449 C 21.561 17.900,22.565 15.769,22.906 13.460 C 23.005 12.788,23.005 11.213,22.906 10.540 C 22.620 8.595,21.919 6.893,20.783 5.383 C 20.466 4.963,19.824 4.240,19.766 4.240 C 19.751 4.240,19.429 4.551,19.050 4.930 M6.718 7.410 C 5.043 9.344,4.553 12.036,5.440 14.439 C 5.720 15.199,6.262 16.094,6.797 16.680 L 7.035 16.940 7.744 16.234 L 8.453 15.527 8.246 15.295 C 7.239 14.165,6.797 12.507,7.103 11.010 C 7.276 10.163,7.708 9.290,8.243 8.704 C 8.352 8.586,8.440 8.473,8.440 8.454 C 8.440 8.401,7.106 7.080,7.052 7.080 C 7.026 7.080,6.876 7.229,6.718 7.410 M16.230 7.750 C 15.861 8.119,15.560 8.440,15.560 8.463 C 15.560 8.487,15.607 8.550,15.664 8.603 C 16.067 8.979,16.641 10.010,16.820 10.680 C 17.126 11.830,17.018 13.068,16.520 14.110 C 16.295 14.583,16.047 14.966,15.756 15.293 L 15.552 15.522 16.245 16.231 C 16.627 16.621,16.947 16.940,16.958 16.940 C 16.968 16.940,17.109 16.787,17.271 16.600 C 19.354 14.196,19.572 10.733,17.808 8.098 C 17.533 7.688,17.019 7.080,16.947 7.080 C 16.921 7.080,16.598 7.382,16.230 7.750 M11.580 10.047 C 10.707 10.214,10.000 11.087,10.000 12.000 C 10.000 12.920,10.690 13.768,11.592 13.956 C 12.816 14.211,14.000 13.249,14.000 12.000 C 14.000 11.477,13.790 10.983,13.404 10.596 C 12.913 10.106,12.277 9.914,11.580 10.047 " stroke="none" fill-rule="evenodd" fill="black"></path></svg>