<svg viewBox="0 0 24 24" xmlns="http://www.w3.org/2000/svg"><path d="M3.664 3.063 C 3.436 3.146,3.257 3.297,3.131 3.511 L 3.020 3.700 3.010 11.914 C 3.003 17.490,3.013 20.178,3.041 20.283 C 3.102 20.509,3.313 20.761,3.539 20.878 C 3.736 20.979,3.745 20.980,4.869 20.992 L 6.000 21.004 6.000 17.002 L 6.000 13.000 12.000 13.000 L 18.000 13.000 18.000 17.000 L 18.000 21.000 19.073 21.000 C 20.308 21.000,20.423 20.979,20.701 20.701 C 21.024 20.378,21.000 20.955,21.000 13.563 L 21.000 6.980 19.010 4.990 L 17.020 3.000 10.420 3.003 C 4.796 3.005,3.797 3.014,3.664 3.063 M8.000 18.000 L 8.000 21.000 12.000 21.000 L 16.000 21.000 16.000 18.000 L 16.000 15.000 12.000 15.000 L 8.000 15.000 8.000 18.000 " stroke="none" fill-rule="evenodd" fill="black"></path></svg>