<svg viewBox="0 0 24 24" xmlns="http://www.w3.org/2000/svg"><path d="M3.664 3.063 C 3.436 3.146,3.257 3.297,3.131 3.511 L 3.020 3.700 3.020 12.000 L 3.020 20.300 3.131 20.489 C 3.192 20.592,3.301 20.723,3.374 20.778 C 3.684 21.015,3.106 21.000,11.998 21.000 C 21.144 21.000,20.376 21.026,20.701 20.701 C 21.024 20.378,21.000 20.955,21.000 13.563 L 21.000 6.980 19.010 4.990 L 17.020 3.000 10.420 3.003 C 4.796 3.005,3.797 3.014,3.664 3.063 M17.590 6.410 L 19.000 7.820 19.000 13.410 L 19.000 19.000 18.000 19.000 L 17.000 19.000 17.000 16.000 L 17.000 13.000 12.000 13.000 L 7.000 13.000 7.000 16.000 L 7.000 19.000 6.000 19.000 L 5.000 19.000 5.000 12.000 L 5.000 5.000 10.590 5.000 L 16.180 5.000 17.590 6.410 M15.000 17.000 L 15.000 19.000 12.000 19.000 L 9.000 19.000 9.000 17.000 L 9.000 15.000 12.000 15.000 L 15.000 15.000 15.000 17.000 " stroke="none" fill-rule="evenodd" fill="black"></path></svg>