<svg viewBox="0 0 24 24" xmlns="http://www.w3.org/2000/svg"><path d="M3.664 3.063 C 3.436 3.146,3.257 3.297,3.131 3.511 L 3.020 3.700 3.020 12.000 L 3.020 20.300 3.131 20.489 C 3.192 20.592,3.301 20.723,3.374 20.778 C 3.684 21.015,3.106 21.000,11.998 21.000 C 21.146 21.000,20.376 21.027,20.702 20.700 C 21.026 20.376,21.002 21.002,20.990 13.139 C 20.980 6.322,20.978 6.136,20.903 5.980 C 20.854 5.879,20.307 5.298,19.425 4.410 L 18.024 3.000 10.922 3.003 C 4.863 3.005,3.797 3.014,3.664 3.063 M16.000 6.500 L 16.000 9.000 11.500 9.000 L 7.000 9.000 7.000 6.500 L 7.000 4.000 11.500 4.000 L 16.000 4.000 16.000 6.500 M13.000 6.500 L 13.000 8.000 14.000 8.000 L 15.000 8.000 15.000 6.500 L 15.000 5.000 14.000 5.000 L 13.000 5.000 13.000 6.500 M18.000 15.500 L 18.000 19.000 12.000 19.000 L 6.000 19.000 6.000 15.500 L 6.000 12.000 12.000 12.000 L 18.000 12.000 18.000 15.500 " stroke="none" fill-rule="evenodd" fill="black"></path></svg>