<svg viewBox="0 0 24 24" xmlns="http://www.w3.org/2000/svg"><path d="M11.280 2.024 C 10.517 2.091,9.597 2.272,8.932 2.485 C 8.496 2.624,7.880 2.876,7.880 2.914 C 7.880 2.929,8.217 3.278,8.630 3.689 L 9.380 4.438 9.696 4.340 C 12.483 3.478,15.611 4.278,17.689 6.386 C 18.338 7.044,18.800 7.700,19.199 8.526 C 20.817 11.877,19.900 15.919,16.994 18.241 C 15.147 19.718,12.736 20.303,10.420 19.836 C 7.461 19.240,5.024 16.946,4.278 14.054 C 4.081 13.287,4.023 12.824,4.024 12.000 C 4.025 10.636,4.286 9.531,4.887 8.352 C 5.091 7.953,5.621 7.120,5.671 7.120 C 5.687 7.120,7.117 8.537,8.850 10.270 L 12.000 13.420 12.710 12.710 L 13.420 12.000 9.553 8.133 C 5.735 4.315,5.685 4.267,5.593 4.328 C 5.542 4.362,5.334 4.546,5.131 4.738 C 3.976 5.827,3.075 7.224,2.549 8.742 C 1.871 10.696,1.826 12.897,2.422 14.865 C 2.918 16.500,3.730 17.854,4.938 19.061 C 5.715 19.837,6.454 20.383,7.377 20.863 C 10.286 22.376,13.714 22.376,16.623 20.863 C 17.547 20.383,18.287 19.836,19.061 19.061 C 19.836 18.287,20.383 17.547,20.863 16.623 C 23.186 12.156,21.847 6.696,17.720 3.806 C 16.452 2.918,15.069 2.366,13.493 2.119 C 12.998 2.041,11.711 1.986,11.280 2.024 " stroke="none" fill-rule="evenodd" fill="black"></path></svg>