<svg viewBox="0 0 24 24" xmlns="http://www.w3.org/2000/svg"><path d="M6.555 4.470 C 4.306 6.724,4.087 6.956,4.044 7.120 C 4.009 7.256,4.000 9.030,4.009 14.300 L 4.020 21.300 4.131 21.489 C 4.192 21.592,4.301 21.723,4.374 21.778 C 4.683 22.014,4.201 22.000,11.998 22.000 C 20.023 22.000,19.377 22.025,19.701 21.701 C 20.027 21.375,20.000 22.264,20.000 12.000 C 20.000 1.736,20.027 2.625,19.701 2.299 C 19.381 1.979,19.773 2.000,14.082 2.000 L 9.019 2.000 6.555 4.470 M18.000 12.000 L 18.000 20.000 12.000 20.000 L 6.000 20.000 6.000 13.910 L 6.000 7.820 7.910 5.910 L 9.820 4.000 13.910 4.000 L 18.000 4.000 18.000 12.000 M12.000 7.000 L 12.000 9.000 13.000 9.000 L 14.000 9.000 14.000 7.000 L 14.000 5.000 13.000 5.000 L 12.000 5.000 12.000 7.000 M15.000 7.000 L 15.000 9.000 16.000 9.000 L 17.000 9.000 17.000 7.000 L 17.000 5.000 16.000 5.000 L 15.000 5.000 15.000 7.000 M9.000 7.500 L 9.000 9.000 10.000 9.000 L 11.000 9.000 11.000 7.500 L 11.000 6.000 10.000 6.000 L 9.000 6.000 9.000 7.500 " stroke="none" fill-rule="evenodd" fill="black"></path></svg>