<svg viewBox="0 0 24 24" xmlns="http://www.w3.org/2000/svg"><path d="M7.000 4.000 L 7.000 6.000 4.500 6.000 L 2.000 6.000 2.000 7.000 L 2.000 8.000 3.000 8.000 L 3.999 8.000 4.010 14.150 L 4.020 20.300 4.131 20.489 C 4.192 20.592,4.301 20.723,4.374 20.778 C 4.683 21.014,4.201 21.000,11.998 21.000 C 20.023 21.000,19.377 21.025,19.701 20.701 C 20.023 20.379,20.000 20.894,20.000 14.073 L 20.000 8.000 21.000 8.000 L 22.000 8.000 22.000 7.000 L 22.000 6.000 19.500 6.000 L 17.000 6.000 17.000 4.000 L 17.000 2.000 16.000 2.000 L 15.000 2.000 15.000 5.000 L 15.000 8.000 16.500 8.000 L 18.000 8.000 18.000 9.000 L 18.000 10.000 12.000 10.000 L 6.000 10.000 6.000 9.000 L 6.000 8.000 7.500 8.000 L 9.000 8.000 9.000 5.000 L 9.000 2.000 8.000 2.000 L 7.000 2.000 7.000 4.000 M11.000 5.000 L 11.000 8.000 12.000 8.000 L 13.000 8.000 13.000 5.000 L 13.000 2.000 12.000 2.000 L 11.000 2.000 11.000 5.000 " stroke="none" fill-rule="evenodd" fill="black"></path></svg>