<svg viewBox="0 0 24 24" xmlns="http://www.w3.org/2000/svg"><path d="M10.700 2.091 C 9.567 2.216,8.154 2.687,7.091 3.294 C 4.659 4.682,2.941 6.952,2.285 9.645 C 1.869 11.351,1.918 13.200,2.422 14.865 C 2.918 16.500,3.730 17.854,4.938 19.061 C 5.715 19.837,6.454 20.383,7.377 20.863 C 10.286 22.376,13.714 22.376,16.623 20.863 C 17.547 20.383,18.287 19.836,19.061 19.061 C 19.836 18.287,20.383 17.547,20.863 16.623 C 22.537 13.406,22.348 9.556,20.368 6.539 C 19.601 5.370,18.725 4.484,17.560 3.701 C 16.276 2.838,14.749 2.262,13.290 2.089 L 13.000 2.054 13.000 7.027 L 13.000 12.000 12.000 12.000 L 11.000 12.000 10.990 7.030 L 10.980 2.060 10.700 2.091 " stroke="none" fill-rule="evenodd" fill="black"></path></svg>