<svg viewBox="0 0 24 24" xmlns="http://www.w3.org/2000/svg"><path d="M11.040 3.025 C 9.447 3.140,8.209 3.355,6.840 3.756 C 5.618 4.113,4.220 4.714,3.057 5.381 C 2.105 5.927,0.698 6.925,0.737 7.026 C 0.770 7.114,11.963 20.960,12.000 20.960 C 12.039 20.960,23.254 7.088,23.272 7.017 C 23.295 6.928,22.079 6.059,21.160 5.508 C 20.579 5.160,19.248 4.505,18.620 4.259 C 17.112 3.668,15.511 3.279,13.840 3.100 C 13.281 3.040,11.493 2.992,11.040 3.025 M13.780 5.101 C 15.359 5.281,16.895 5.685,18.311 6.295 C 18.976 6.582,20.402 7.334,20.399 7.398 C 20.397 7.437,12.030 17.780,12.000 17.780 C 11.969 17.780,3.602 7.436,3.601 7.397 C 3.598 7.316,5.450 6.376,6.146 6.106 C 7.636 5.526,9.229 5.167,10.880 5.041 C 11.518 4.992,13.107 5.025,13.780 5.101 " stroke="none" fill-rule="evenodd" fill="black"></path></svg>