<svg viewBox="0 0 24 24" xmlns="http://www.w3.org/2000/svg"><path d="M11.040 3.025 C 9.447 3.140,8.209 3.355,6.840 3.756 C 5.618 4.113,4.220 4.714,3.057 5.381 C 2.105 5.927,0.698 6.925,0.737 7.026 C 0.782 7.144,11.972 20.963,12.011 20.950 C 12.035 20.942,13.391 19.280,15.026 17.258 L 17.998 13.580 17.999 10.790 L 18.000 8.000 20.252 8.000 L 22.503 8.000 22.892 7.518 C 23.105 7.253,23.280 7.021,23.280 7.002 C 23.280 6.959,22.497 6.368,22.000 6.037 C 21.038 5.395,19.632 4.656,18.620 4.259 C 17.112 3.668,15.511 3.279,13.840 3.100 C 13.281 3.040,11.493 2.992,11.040 3.025 M20.000 13.500 L 20.000 17.000 21.000 17.000 L 22.000 17.000 22.000 13.500 L 22.000 10.000 21.000 10.000 L 20.000 10.000 20.000 13.500 M20.000 20.000 L 20.000 21.000 21.000 21.000 L 22.000 21.000 22.000 20.000 L 22.000 19.000 21.000 19.000 L 20.000 19.000 20.000 20.000 " stroke="none" fill-rule="evenodd" fill="black"></path></svg>