<svg viewBox="0 0 24 24" xmlns="http://www.w3.org/2000/svg"><path d="M2.110 2.110 L 1.400 2.821 2.516 3.936 L 3.633 5.052 3.146 5.330 C 2.120 5.916,0.695 6.918,0.736 7.025 C 0.770 7.113,11.964 20.960,12.001 20.960 C 12.019 20.960,12.787 20.026,13.707 18.883 L 15.380 16.807 17.220 18.644 L 19.061 20.480 19.770 19.770 L 20.480 19.060 11.650 10.230 L 2.820 1.400 2.110 2.110 M11.140 3.023 C 10.291 3.085,9.785 3.136,9.320 3.205 C 8.702 3.297,7.834 3.473,7.791 3.514 C 7.775 3.529,10.044 5.824,12.834 8.614 L 17.906 13.686 20.574 10.384 C 22.041 8.569,23.251 7.058,23.263 7.027 C 23.288 6.960,22.625 6.451,21.860 5.950 C 19.421 4.352,16.783 3.415,13.840 3.100 C 13.287 3.041,11.563 2.992,11.140 3.023 " stroke="none" fill-rule="evenodd" fill="black"></path></svg>