<svg viewBox="0 0 24 24" xmlns="http://www.w3.org/2000/svg"><path d="M4.664 2.063 C 4.436 2.146,4.257 2.297,4.131 2.511 L 4.020 2.700 4.020 12.000 L 4.020 21.300 4.131 21.489 C 4.192 21.592,4.301 21.723,4.374 21.778 C 4.683 22.014,4.201 22.000,11.998 22.000 C 20.023 22.000,19.377 22.025,19.701 21.701 C 20.027 21.375,20.000 22.264,20.000 12.000 C 20.000 1.736,20.027 2.625,19.701 2.299 C 19.377 1.975,20.026 2.000,11.983 2.003 C 5.871 2.005,4.797 2.014,4.664 2.063 M18.000 12.000 L 18.000 20.000 12.000 20.000 L 6.000 20.000 6.000 12.000 L 6.000 4.000 12.000 4.000 L 18.000 4.000 18.000 12.000 M11.664 17.063 C 11.436 17.146,11.257 17.297,11.131 17.511 C 11.036 17.672,11.020 17.744,11.020 18.000 C 11.020 18.256,11.036 18.328,11.131 18.489 C 11.470 19.065,12.234 19.168,12.701 18.701 C 12.881 18.521,13.000 18.242,13.000 18.000 C 13.000 17.326,12.295 16.832,11.664 17.063 " stroke="none" fill-rule="evenodd" fill="black"></path></svg>