<svg viewBox="0 0 24 24" xmlns="http://www.w3.org/2000/svg"><path d="M3.664 2.063 C 3.436 2.146,3.257 2.297,3.131 2.511 L 3.020 2.700 3.020 12.000 L 3.020 21.300 3.131 21.489 C 3.192 21.592,3.301 21.723,3.374 21.778 C 3.684 22.015,3.106 22.000,11.998 22.000 C 21.144 22.000,20.376 22.026,20.701 21.701 C 21.027 21.375,21.000 22.264,21.000 12.000 C 21.000 1.736,21.027 2.625,20.701 2.299 C 20.400 1.998,20.419 2.000,18.073 2.000 L 16.000 2.000 16.000 3.000 L 16.000 4.000 17.500 4.000 L 19.000 4.000 19.000 9.000 L 19.000 14.000 12.000 14.000 L 5.000 14.000 5.000 9.000 L 5.000 4.000 6.500 4.000 L 8.000 4.000 8.000 3.000 L 8.000 2.000 5.910 2.003 C 4.201 2.005,3.792 2.016,3.664 2.063 M10.020 4.000 L 8.020 6.000 9.510 6.000 L 11.000 6.000 11.000 8.500 L 11.000 11.000 12.000 11.000 L 13.000 11.000 13.000 8.500 L 13.000 6.001 14.500 5.990 L 16.000 5.980 14.010 3.990 L 12.020 2.000 10.020 4.000 M19.000 18.000 L 19.000 20.000 12.000 20.000 L 5.000 20.000 5.000 18.000 L 5.000 16.000 12.000 16.000 L 19.000 16.000 19.000 18.000 M15.000 18.000 L 15.000 19.000 16.000 19.000 L 17.000 19.000 17.000 18.000 L 17.000 17.000 16.000 17.000 L 15.000 17.000 15.000 18.000 " stroke="none" fill-rule="evenodd" fill="black"></path></svg>