<svg viewBox="0 0 24 24" xmlns="http://www.w3.org/2000/svg"><path d="M2.110 2.110 L 1.400 2.821 2.516 3.936 L 3.633 5.052 3.146 5.330 C 2.275 5.828,0.720 6.899,0.720 7.001 C 0.720 7.022,0.996 7.378,1.333 7.794 L 1.946 8.550 2.274 8.298 C 3.011 7.732,3.901 7.171,4.691 6.775 L 5.133 6.553 6.265 7.685 C 6.888 8.308,7.385 8.829,7.369 8.843 C 7.353 8.856,7.232 8.909,7.100 8.960 C 6.164 9.319,4.632 10.213,3.969 10.787 L 3.838 10.900 4.463 11.672 L 5.087 12.445 5.214 12.342 C 5.482 12.123,6.480 11.479,6.880 11.267 C 7.491 10.943,8.752 10.440,8.954 10.440 C 8.991 10.440,9.595 11.015,10.297 11.717 C 11.720 13.141,11.643 13.012,11.102 13.059 C 9.964 13.159,8.613 13.650,7.580 14.338 C 6.889 14.798,6.891 14.675,7.561 15.509 C 7.875 15.900,8.154 16.244,8.180 16.273 C 8.219 16.315,8.285 16.284,8.532 16.107 C 9.916 15.114,11.736 14.771,13.444 15.182 L 13.860 15.282 16.460 17.881 L 19.061 20.480 19.770 19.770 L 20.480 19.060 11.650 10.230 L 2.820 1.400 2.110 2.110 M11.140 3.023 C 10.291 3.085,9.785 3.136,9.320 3.205 C 8.701 3.297,7.834 3.473,7.791 3.514 C 7.775 3.530,8.137 3.917,8.596 4.376 L 9.430 5.209 9.889 5.146 C 11.425 4.935,13.145 4.968,14.740 5.239 C 17.219 5.661,19.732 6.761,21.719 8.294 L 22.052 8.552 22.140 8.446 C 22.617 7.867,23.280 7.027,23.280 7.001 C 23.280 6.951,22.446 6.333,21.860 5.950 C 19.421 4.352,16.783 3.415,13.840 3.100 C 13.287 3.041,11.563 2.992,11.140 3.023 M13.360 9.137 C 14.456 10.236,14.508 10.282,14.720 10.340 C 16.190 10.737,17.559 11.407,18.727 12.300 L 18.914 12.443 19.535 11.674 C 19.876 11.251,20.147 10.891,20.137 10.874 C 20.097 10.811,19.365 10.280,18.996 10.048 C 17.035 8.813,15.006 8.165,12.640 8.019 L 12.220 7.993 13.360 9.137 M11.600 18.023 C 11.140 18.105,10.497 18.368,10.206 18.594 L 10.112 18.667 11.039 19.813 C 11.550 20.444,11.982 20.960,12.001 20.960 C 12.019 20.960,12.451 20.444,12.960 19.813 L 13.887 18.665 13.793 18.593 C 13.615 18.456,13.072 18.192,12.807 18.114 C 12.549 18.039,11.820 17.984,11.600 18.023 " stroke="none" fill-rule="evenodd" fill="black"></path></svg>