<svg viewBox="0 0 24 24" xmlns="http://www.w3.org/2000/svg"><path d="M2.110 2.110 L 1.400 2.821 2.516 3.936 L 3.633 5.052 3.146 5.330 C 2.279 5.825,0.720 6.899,0.720 7.001 C 0.720 7.020,1.135 7.551,1.643 8.179 C 2.238 8.916,2.582 9.311,2.613 9.293 C 2.639 9.277,2.833 9.133,3.043 8.973 C 3.637 8.524,4.433 8.032,5.189 7.649 L 5.878 7.300 6.638 8.059 C 7.056 8.476,7.385 8.829,7.369 8.843 C 7.353 8.856,7.232 8.909,7.100 8.960 C 6.164 9.319,4.631 10.214,3.969 10.787 L 3.838 10.900 4.760 12.040 C 5.268 12.667,5.698 13.185,5.716 13.192 C 5.734 13.198,5.843 13.129,5.958 13.038 C 6.842 12.339,8.220 11.662,9.380 11.357 L 9.820 11.241 10.688 12.108 C 11.165 12.585,11.548 12.987,11.539 13.001 C 11.530 13.016,11.365 13.039,11.171 13.054 C 10.021 13.138,8.626 13.640,7.557 14.355 C 6.898 14.796,6.904 14.688,7.502 15.428 C 7.783 15.776,8.202 16.296,8.433 16.583 L 8.853 17.107 9.166 16.891 C 10.371 16.061,11.894 15.800,13.320 16.180 C 13.764 16.299,14.555 16.674,14.905 16.932 L 15.150 17.113 15.265 16.958 L 15.380 16.803 17.220 18.642 L 19.061 20.480 19.770 19.770 L 20.480 19.060 11.650 10.230 L 2.820 1.400 2.110 2.110 M11.140 3.023 C 10.370 3.080,9.804 3.133,9.460 3.182 C 8.918 3.260,7.760 3.487,7.760 3.517 C 7.760 3.530,8.333 4.113,9.033 4.813 L 10.306 6.086 11.043 6.037 C 11.865 5.983,12.902 6.007,13.669 6.098 C 16.398 6.422,18.923 7.425,21.014 9.016 C 21.193 9.152,21.361 9.277,21.388 9.293 C 21.418 9.312,21.754 8.927,22.338 8.202 C 22.835 7.586,23.251 7.057,23.263 7.027 C 23.288 6.960,22.623 6.449,21.860 5.950 C 19.421 4.352,16.783 3.415,13.840 3.100 C 13.287 3.041,11.563 2.992,11.140 3.023 M14.140 9.918 L 16.060 11.843 16.549 12.098 C 17.075 12.374,17.670 12.747,18.031 13.027 C 18.155 13.123,18.270 13.197,18.287 13.191 C 18.347 13.170,20.156 10.906,20.137 10.875 C 20.097 10.811,19.367 10.281,18.996 10.048 C 17.035 8.813,15.005 8.165,12.640 8.019 L 12.220 7.993 14.140 9.918 M11.600 18.023 C 11.140 18.105,10.497 18.368,10.206 18.594 L 10.112 18.667 11.039 19.813 C 11.550 20.444,11.982 20.960,12.001 20.960 C 12.019 20.960,12.451 20.444,12.960 19.813 L 13.887 18.665 13.793 18.593 C 13.615 18.456,13.072 18.192,12.807 18.114 C 12.549 18.039,11.820 17.984,11.600 18.023 " stroke="none" fill-rule="evenodd" fill="black"></path></svg>